{
  "jsonPath": "Pop/Finnish Pop/Kristian Meurman/the-entertainer.json",
  "path": "Pop\\Finnish Pop\\Kristian Meurman\\The Entertainer.mid",
  "name": "The Entertainer",
  "difficulty": "Advanced",
  "bpm": 120,
  "notes": [
    {
      "midi": 74,
      "hit": false,
      "t": 9357.009999999998,
      "d": 129.5586000000003,
      "v": 80
    },
    {
      "midi": 76,
      "hit": false,
      "t": 9500.963999999998,
      "d": 163.14786666666623,
      "v": 73
    },
    {
      "midi": 79,
      "hit": false,
      "t": 9500.963999999998,
      "d": 172.7448000000004,
      "v": 73
    },
    {
      "midi": 74,
      "hit": false,
      "t": 9644.917999999998,
      "d": 143.95400000000154,
      "v": 78
    },
    {
      "midi": 72,
      "hit": false,
      "t": 9788.872,
      "d": 134.35706666666738,
      "v": 74
    },
    {
      "midi": 74,
      "hit": false,
      "t": 9932.826000000001,
      "d": 134.35706666666738,
      "v": 79
    },
    {
      "midi": 72,
      "hit": false,
      "t": 10076.780000000002,
      "d": 119.96166666666613,
      "v": 73
    },
    {
      "midi": 71,
      "hit": false,
      "t": 10220.734000000002,
      "d": 244.72179999999935,
      "v": 77
    },
    {
      "midi": 74,
      "hit": false,
      "t": 10508.642000000002,
      "d": 273.5126,
      "v": 78
    },
    {
      "midi": 71,
      "hit": false,
      "t": 10508.642000000002,
      "d": 292.70646666666653,
      "v": 78
    },
    {
      "midi": 69,
      "hit": false,
      "t": 10940.504,
      "d": 148.7524666666668,
      "v": 76
    },
    {
      "midi": 74,
      "hit": false,
      "t": 11084.458,
      "d": 129.5586000000003,
      "v": 76
    },
    {
      "midi": 69,
      "hit": false,
      "t": 11228.412,
      "d": 129.5586000000003,
      "v": 69
    },
    {
      "midi": 67,
      "hit": false,
      "t": 11372.366,
      "d": 633.3976000000002,
      "v": 65
    },
    {
      "midi": 71,
      "hit": false,
      "t": 11372.366,
      "d": 642.9945333333344,
      "v": 76
    },
    {
      "midi": 69,
      "hit": false,
      "t": 12092.136,
      "d": 143.95399999999972,
      "v": 75
    },
    {
      "midi": 74,
      "hit": false,
      "t": 12236.09,
      "d": 129.5586000000003,
      "v": 75
    },
    {
      "midi": 69,
      "hit": false,
      "t": 12380.044,
      "d": 139.15553333333264,
      "v": 81
    },
    {
      "midi": 71,
      "hit": false,
      "t": 12523.998,
      "d": 542.226733333333,
      "v": 74
    },
    {
      "midi": 74,
      "hit": false,
      "t": 12523.998,
      "d": 551.8236666666671,
      "v": 78
    },
    {
      "midi": 69,
      "hit": false,
      "t": 13099.814,
      "d": 215.9310000000005,
      "v": 73
    },
    {
      "midi": 60,
      "hit": false,
      "t": 13099.814,
      "d": 220.72946666666758,
      "v": 78
    },
    {
      "midi": 59,
      "hit": false,
      "t": 13387.722000000002,
      "d": 355.08653333333314,
      "v": 81
    },
    {
      "midi": 67,
      "hit": false,
      "t": 13387.722000000002,
      "d": 374.28039999999964,
      "v": 71
    },
    {
      "midi": 74,
      "hit": false,
      "t": 13963.538,
      "d": 129.5586000000003,
      "v": 80
    },
    {
      "midi": 76,
      "hit": false,
      "t": 14107.492,
      "d": 163.14786666666623,
      "v": 73
    },
    {
      "midi": 79,
      "hit": false,
      "t": 14107.492,
      "d": 172.7448000000004,
      "v": 73
    },
    {
      "midi": 74,
      "hit": false,
      "t": 14251.446,
      "d": 143.95400000000154,
      "v": 78
    },
    {
      "midi": 72,
      "hit": false,
      "t": 14395.400000000001,
      "d": 134.35706666666738,
      "v": 74
    },
    {
      "midi": 74,
      "hit": false,
      "t": 14539.354000000003,
      "d": 134.35706666666738,
      "v": 79
    },
    {
      "midi": 72,
      "hit": false,
      "t": 14683.308000000005,
      "d": 119.96166666666613,
      "v": 73
    },
    {
      "midi": 71,
      "hit": false,
      "t": 14827.262000000004,
      "d": 244.72179999999935,
      "v": 77
    },
    {
      "midi": 74,
      "hit": false,
      "t": 15115.170000000004,
      "d": 273.5126,
      "v": 78
    },
    {
      "midi": 71,
      "hit": false,
      "t": 15115.170000000004,
      "d": 292.70646666666653,
      "v": 78
    },
    {
      "midi": 79,
      "hit": false,
      "t": 15259.124000000003,
      "d": 292.70646666666653,
      "v": 80
    },
    {
      "midi": 69,
      "hit": false,
      "t": 15547.032000000003,
      "d": 148.7524666666668,
      "v": 76
    },
    {
      "midi": 38,
      "hit": false,
      "t": 15547.032000000003,
      "d": 470.2497333333322,
      "v": 63
    },
    {
      "midi": 74,
      "hit": false,
      "t": 15690.986000000003,
      "d": 129.5586000000003,
      "v": 76
    },
    {
      "midi": 69,
      "hit": false,
      "t": 15834.940000000002,
      "d": 129.5586000000003,
      "v": 69
    },
    {
      "midi": 67,
      "hit": false,
      "t": 15978.894000000002,
      "d": 633.3975999999984,
      "v": 65
    },
    {
      "midi": 71,
      "hit": false,
      "t": 15978.894000000002,
      "d": 642.9945333333326,
      "v": 76
    },
    {
      "midi": 79,
      "hit": false,
      "t": 16410.756,
      "d": 292.70646666666653,
      "v": 79
    },
    {
      "midi": 69,
      "hit": false,
      "t": 16698.664,
      "d": 143.95400000000154,
      "v": 75
    },
    {
      "midi": 38,
      "hit": false,
      "t": 16698.664,
      "d": 470.24973333333764,
      "v": 63
    },
    {
      "midi": 74,
      "hit": false,
      "t": 16842.618000000002,
      "d": 129.5586000000003,
      "v": 75
    },
    {
      "midi": 69,
      "hit": false,
      "t": 16986.572000000004,
      "d": 139.15553333333446,
      "v": 81
    },
    {
      "midi": 71,
      "hit": false,
      "t": 17130.526000000005,
      "d": 542.226733333333,
      "v": 74
    },
    {
      "midi": 74,
      "hit": false,
      "t": 17130.526000000005,
      "d": 551.8236666666671,
      "v": 78
    },
    {
      "midi": 69,
      "hit": false,
      "t": 17850.296000000006,
      "d": 215.9310000000005,
      "v": 73
    },
    {
      "midi": 60,
      "hit": false,
      "t": 17850.296000000006,
      "d": 220.72946666666758,
      "v": 78
    },
    {
      "midi": 69,
      "hit": false,
      "t": 18138.204000000005,
      "d": 215.9310000000005,
      "v": 73
    },
    {
      "midi": 60,
      "hit": false,
      "t": 18138.204000000005,
      "d": 220.72946666666758,
      "v": 78
    },
    {
      "midi": 67,
      "hit": false,
      "t": 18426.112000000005,
      "d": 916.5071333333326,
      "v": 71
    },
    {
      "midi": 59,
      "hit": false,
      "t": 18426.112000000005,
      "d": 926.1040666666668,
      "v": 81
    },
    {
      "midi": 55,
      "hit": false,
      "t": 44913.648,
      "d": 1477.9277333333303,
      "v": 56
    },
    {
      "midi": 62,
      "hit": false,
      "t": 44913.648,
      "d": 1492.3231333333315,
      "v": 56
    },
    {
      "midi": 59,
      "hit": false,
      "t": 44913.648,
      "d": 1497.1215999999986,
      "v": 56
    },
    {
      "midi": 55,
      "hit": false,
      "t": 47216.912,
      "d": 652.5914666666649,
      "v": 56
    },
    {
      "midi": 60,
      "hit": false,
      "t": 47216.912,
      "d": 662.1883999999991,
      "v": 56
    },
    {
      "midi": 64,
      "hit": false,
      "t": 47216.912,
      "d": 690.9792000000016,
      "v": 56
    },
    {
      "midi": 55,
      "hit": false,
      "t": 47936.682,
      "d": 355.08653333333496,
      "v": 56
    },
    {
      "midi": 60,
      "hit": false,
      "t": 47936.682,
      "d": 355.08653333333496,
      "v": 56
    },
    {
      "midi": 64,
      "hit": false,
      "t": 47936.682,
      "d": 355.08653333333496,
      "v": 56
    },
    {
      "midi": 55,
      "hit": false,
      "t": 48368.544,
      "d": 1007.6779999999999,
      "v": 56
    },
    {
      "midi": 60,
      "hit": false,
      "t": 48368.544,
      "d": 1012.476466666667,
      "v": 56
    },
    {
      "midi": 64,
      "hit": false,
      "t": 48368.544,
      "d": 1041.2672666666695,
      "v": 56
    },
    {
      "midi": 55,
      "hit": false,
      "t": 50815.762,
      "d": 100.76780000000144,
      "v": 56
    },
    {
      "midi": 62,
      "hit": false,
      "t": 50815.762,
      "d": 100.76780000000144,
      "v": 56
    },
    {
      "midi": 59,
      "hit": false,
      "t": 50815.762,
      "d": 110.36473333333561,
      "v": 56
    },
    {
      "midi": 62,
      "hit": false,
      "t": 50959.71600000001,
      "d": 191.93866666666872,
      "v": 56
    },
    {
      "midi": 55,
      "hit": false,
      "t": 50959.71600000001,
      "d": 196.7371333333358,
      "v": 56
    },
    {
      "midi": 59,
      "hit": false,
      "t": 50959.71600000001,
      "d": 196.7371333333358,
      "v": 56
    },
    {
      "midi": 59,
      "hit": false,
      "t": 51247.62400000001,
      "d": 503.83899999999994,
      "v": 59
    },
    {
      "midi": 55,
      "hit": false,
      "t": 51247.62400000001,
      "d": 513.4359333333341,
      "v": 59
    },
    {
      "midi": 62,
      "hit": false,
      "t": 51247.62400000001,
      "d": 523.0328666666683,
      "v": 59
    },
    {
      "midi": 55,
      "hit": false,
      "t": 51823.44000000001,
      "d": 537.4282666666695,
      "v": 55
    },
    {
      "midi": 59,
      "hit": false,
      "t": 51823.44000000001,
      "d": 537.4282666666695,
      "v": 51
    },
    {
      "midi": 60,
      "hit": false,
      "t": 52399.256000000016,
      "d": 561.4205999999976,
      "v": 51
    },
    {
      "midi": 55,
      "hit": false,
      "t": 52399.256000000016,
      "d": 566.2190666666647,
      "v": 52
    },
    {
      "midi": 62,
      "hit": false,
      "t": 52975.072000000015,
      "d": 1022.0734000000011,
      "v": 52
    },
    {
      "midi": 54,
      "hit": false,
      "t": 52975.072000000015,
      "d": 1026.8718666666682,
      "v": 55
    },
    {
      "midi": 57,
      "hit": false,
      "t": 52975.072000000015,
      "d": 1026.8718666666682,
      "v": 55
    },
    {
      "midi": 55,
      "hit": false,
      "t": 54126.70400000002,
      "d": 1477.9277333333303,
      "v": 56
    },
    {
      "midi": 62,
      "hit": false,
      "t": 54126.70400000002,
      "d": 1492.3231333333315,
      "v": 56
    },
    {
      "midi": 59,
      "hit": false,
      "t": 54126.70400000002,
      "d": 1497.1215999999986,
      "v": 56
    },
    {
      "midi": 55,
      "hit": false,
      "t": 56429.968000000015,
      "d": 652.5914666666649,
      "v": 56
    },
    {
      "midi": 60,
      "hit": false,
      "t": 56429.968000000015,
      "d": 662.1883999999991,
      "v": 56
    },
    {
      "midi": 64,
      "hit": false,
      "t": 56429.968000000015,
      "d": 690.9792000000016,
      "v": 56
    },
    {
      "midi": 55,
      "hit": false,
      "t": 57149.73800000002,
      "d": 355.08653333333496,
      "v": 56
    },
    {
      "midi": 60,
      "hit": false,
      "t": 57149.73800000002,
      "d": 355.08653333333496,
      "v": 56
    },
    {
      "midi": 64,
      "hit": false,
      "t": 57149.73800000002,
      "d": 355.08653333333496,
      "v": 56
    },
    {
      "midi": 55,
      "hit": false,
      "t": 57581.60000000002,
      "d": 1007.6779999999999,
      "v": 56
    },
    {
      "midi": 60,
      "hit": false,
      "t": 57581.60000000002,
      "d": 1012.476466666667,
      "v": 56
    },
    {
      "midi": 64,
      "hit": false,
      "t": 57581.60000000002,
      "d": 1041.2672666666695,
      "v": 56
    },
    {
      "midi": 55,
      "hit": false,
      "t": 58733.232000000025,
      "d": 1007.6779999999999,
      "v": 53
    },
    {
      "midi": 59,
      "hit": false,
      "t": 58733.232000000025,
      "d": 1012.476466666667,
      "v": 53
    },
    {
      "midi": 64,
      "hit": false,
      "t": 58733.232000000025,
      "d": 1041.2672666666695,
      "v": 53
    },
    {
      "midi": 54,
      "hit": false,
      "t": 59884.86400000003,
      "d": 1007.6779999999999,
      "v": 53
    },
    {
      "midi": 57,
      "hit": false,
      "t": 59884.86400000003,
      "d": 1012.476466666667,
      "v": 53
    },
    {
      "midi": 62,
      "hit": false,
      "t": 59884.86400000003,
      "d": 1041.2672666666695,
      "v": 53
    },
    {
      "midi": 57,
      "hit": false,
      "t": 61036.496000000036,
      "d": 1007.6779999999999,
      "v": 53
    },
    {
      "midi": 60,
      "hit": false,
      "t": 61036.496000000036,
      "d": 1012.476466666667,
      "v": 53
    },
    {
      "midi": 64,
      "hit": false,
      "t": 61036.496000000036,
      "d": 1041.2672666666695,
      "v": 53
    },
    {
      "midi": 55,
      "hit": false,
      "t": 62188.12800000004,
      "d": 1007.6779999999999,
      "v": 53
    },
    {
      "midi": 59,
      "hit": false,
      "t": 62188.12800000004,
      "d": 1012.476466666667,
      "v": 53
    },
    {
      "midi": 64,
      "hit": false,
      "t": 62188.12800000004,
      "d": 1041.2672666666695,
      "v": 53
    },
    {
      "midi": 54,
      "hit": false,
      "t": 63339.760000000046,
      "d": 1007.6779999999999,
      "v": 53
    },
    {
      "midi": 57,
      "hit": false,
      "t": 63339.760000000046,
      "d": 1012.476466666667,
      "v": 53
    },
    {
      "midi": 62,
      "hit": false,
      "t": 63339.760000000046,
      "d": 1041.2672666666695,
      "v": 53
    },
    {
      "midi": 55,
      "hit": false,
      "t": 69097.92000000004,
      "d": 1477.9277333333303,
      "v": 87
    },
    {
      "midi": 62,
      "hit": false,
      "t": 69097.92000000004,
      "d": 1492.3231333333242,
      "v": 87
    },
    {
      "midi": 59,
      "hit": false,
      "t": 69097.92000000004,
      "d": 1497.121599999984,
      "v": 87
    },
    {
      "midi": 55,
      "hit": false,
      "t": 71401.18400000002,
      "d": 652.5914666666649,
      "v": 87
    },
    {
      "midi": 60,
      "hit": false,
      "t": 71401.18400000002,
      "d": 662.1883999999991,
      "v": 87
    },
    {
      "midi": 64,
      "hit": false,
      "t": 71401.18400000002,
      "d": 690.9792000000016,
      "v": 87
    },
    {
      "midi": 55,
      "hit": false,
      "t": 72120.95400000003,
      "d": 355.08653333333496,
      "v": 87
    },
    {
      "midi": 60,
      "hit": false,
      "t": 72120.95400000003,
      "d": 355.08653333333496,
      "v": 87
    },
    {
      "midi": 64,
      "hit": false,
      "t": 72120.95400000003,
      "d": 355.08653333333496,
      "v": 87
    },
    {
      "midi": 55,
      "hit": false,
      "t": 72552.81600000004,
      "d": 1007.6779999999999,
      "v": 87
    },
    {
      "midi": 60,
      "hit": false,
      "t": 72552.81600000004,
      "d": 1012.4764666666597,
      "v": 87
    },
    {
      "midi": 64,
      "hit": false,
      "t": 72552.81600000004,
      "d": 1041.2672666666622,
      "v": 87
    },
    {
      "midi": 55,
      "hit": false,
      "t": 75000.03400000003,
      "d": 100.76780000000144,
      "v": 86
    },
    {
      "midi": 62,
      "hit": false,
      "t": 75000.03400000003,
      "d": 100.76780000000144,
      "v": 86
    },
    {
      "midi": 59,
      "hit": false,
      "t": 75000.03400000003,
      "d": 110.36473333333561,
      "v": 86
    },
    {
      "midi": 62,
      "hit": false,
      "t": 75143.98800000003,
      "d": 191.93866666666872,
      "v": 86
    },
    {
      "midi": 55,
      "hit": false,
      "t": 75143.98800000003,
      "d": 196.73713333332853,
      "v": 86
    },
    {
      "midi": 59,
      "hit": false,
      "t": 75143.98800000003,
      "d": 196.73713333332853,
      "v": 86
    },
    {
      "midi": 59,
      "hit": false,
      "t": 75431.89600000002,
      "d": 503.8390000000072,
      "v": 90
    },
    {
      "midi": 55,
      "hit": false,
      "t": 75431.89600000002,
      "d": 513.4359333333414,
      "v": 90
    },
    {
      "midi": 62,
      "hit": false,
      "t": 75431.89600000002,
      "d": 523.0328666666755,
      "v": 90
    },
    {
      "midi": 55,
      "hit": false,
      "t": 76007.71200000003,
      "d": 537.4282666666695,
      "v": 83
    },
    {
      "midi": 59,
      "hit": false,
      "t": 76007.71200000003,
      "d": 537.4282666666695,
      "v": 77
    },
    {
      "midi": 60,
      "hit": false,
      "t": 76583.52800000003,
      "d": 561.4205999999976,
      "v": 77
    },
    {
      "midi": 55,
      "hit": false,
      "t": 76583.52800000003,
      "d": 566.2190666666575,
      "v": 79
    },
    {
      "midi": 62,
      "hit": false,
      "t": 77159.34400000003,
      "d": 1022.0733999999939,
      "v": 79
    },
    {
      "midi": 54,
      "hit": false,
      "t": 77159.34400000003,
      "d": 1026.8718666666537,
      "v": 83
    },
    {
      "midi": 57,
      "hit": false,
      "t": 77159.34400000003,
      "d": 1026.8718666666537,
      "v": 83
    },
    {
      "midi": 55,
      "hit": false,
      "t": 78310.97600000001,
      "d": 1477.9277333333303,
      "v": 87
    },
    {
      "midi": 62,
      "hit": false,
      "t": 78310.97600000001,
      "d": 1492.3231333333242,
      "v": 87
    },
    {
      "midi": 59,
      "hit": false,
      "t": 78310.97600000001,
      "d": 1497.121599999984,
      "v": 87
    },
    {
      "midi": 55,
      "hit": false,
      "t": 80614.23999999999,
      "d": 652.5914666666649,
      "v": 87
    },
    {
      "midi": 60,
      "hit": false,
      "t": 80614.23999999999,
      "d": 662.1883999999991,
      "v": 87
    },
    {
      "midi": 64,
      "hit": false,
      "t": 80614.23999999999,
      "d": 690.9792000000016,
      "v": 87
    },
    {
      "midi": 55,
      "hit": false,
      "t": 81334.01,
      "d": 355.08653333333496,
      "v": 87
    },
    {
      "midi": 60,
      "hit": false,
      "t": 81334.01,
      "d": 355.08653333333496,
      "v": 87
    },
    {
      "midi": 64,
      "hit": false,
      "t": 81334.01,
      "d": 355.08653333333496,
      "v": 87
    },
    {
      "midi": 55,
      "hit": false,
      "t": 81765.872,
      "d": 1007.6779999999999,
      "v": 87
    },
    {
      "midi": 60,
      "hit": false,
      "t": 81765.872,
      "d": 1012.4764666666597,
      "v": 87
    },
    {
      "midi": 64,
      "hit": false,
      "t": 81765.872,
      "d": 1041.2672666666622,
      "v": 87
    },
    {
      "midi": 55,
      "hit": false,
      "t": 82917.504,
      "d": 1007.6779999999999,
      "v": 80
    },
    {
      "midi": 59,
      "hit": false,
      "t": 82917.504,
      "d": 1012.4764666666597,
      "v": 80
    },
    {
      "midi": 64,
      "hit": false,
      "t": 82917.504,
      "d": 1041.2672666666622,
      "v": 80
    },
    {
      "midi": 54,
      "hit": false,
      "t": 84069.136,
      "d": 1007.6779999999999,
      "v": 80
    },
    {
      "midi": 57,
      "hit": false,
      "t": 84069.136,
      "d": 1012.4764666666597,
      "v": 80
    },
    {
      "midi": 62,
      "hit": false,
      "t": 84069.136,
      "d": 1041.2672666666622,
      "v": 80
    },
    {
      "midi": 57,
      "hit": false,
      "t": 85220.768,
      "d": 1007.6779999999999,
      "v": 80
    },
    {
      "midi": 60,
      "hit": false,
      "t": 85220.768,
      "d": 1012.4764666666597,
      "v": 80
    },
    {
      "midi": 64,
      "hit": false,
      "t": 85220.768,
      "d": 1041.2672666666622,
      "v": 80
    },
    {
      "midi": 55,
      "hit": false,
      "t": 86372.4,
      "d": 1007.6779999999999,
      "v": 80
    },
    {
      "midi": 59,
      "hit": false,
      "t": 86372.4,
      "d": 1012.4764666666597,
      "v": 80
    },
    {
      "midi": 64,
      "hit": false,
      "t": 86372.4,
      "d": 1041.2672666666622,
      "v": 80
    },
    {
      "midi": 54,
      "hit": false,
      "t": 87524.03199999999,
      "d": 1007.6779999999999,
      "v": 80
    },
    {
      "midi": 57,
      "hit": false,
      "t": 87524.03199999999,
      "d": 1012.4764666666597,
      "v": 80
    },
    {
      "midi": 62,
      "hit": false,
      "t": 87524.03199999999,
      "d": 1041.2672666666622,
      "v": 80
    },
    {
      "midi": 43,
      "hit": false,
      "t": 88675.66399999999,
      "d": 211.13253333333705,
      "v": 69
    },
    {
      "midi": 62,
      "hit": false,
      "t": 88675.66399999999,
      "d": 254.3187333333335,
      "v": 69
    },
    {
      "midi": 43,
      "hit": false,
      "t": 88963.57199999999,
      "d": 43.18619999999646,
      "v": 73
    },
    {
      "midi": 43,
      "hit": false,
      "t": 89107.52599999998,
      "d": 249.5202666666737,
      "v": 67
    },
    {
      "midi": 62,
      "hit": false,
      "t": 89107.52599999998,
      "d": 350.28806666667515,
      "v": 65
    },
    {
      "midi": 43,
      "hit": false,
      "t": 89395.434,
      "d": 52.783133333330625,
      "v": 60
    },
    {
      "midi": 43,
      "hit": false,
      "t": 89539.38799999999,
      "d": 52.783133333330625,
      "v": 63
    },
    {
      "midi": 62,
      "hit": false,
      "t": 89539.38799999999,
      "d": 187.14019999999437,
      "v": 50
    },
    {
      "midi": 43,
      "hit": false,
      "t": 89683.34199999999,
      "d": 52.783133333330625,
      "v": 63
    },
    {
      "midi": 43,
      "hit": false,
      "t": 89827.29599999999,
      "d": 244.72179999999935,
      "v": 73
    },
    {
      "midi": 62,
      "hit": false,
      "t": 89827.29599999999,
      "d": 311.90033333332394,
      "v": 73
    },
    {
      "midi": 43,
      "hit": false,
      "t": 90115.20399999998,
      "d": 57.58159999999043,
      "v": 63
    },
    {
      "midi": 62,
      "hit": false,
      "t": 90259.15799999997,
      "d": 268.7141333333275,
      "v": 65
    },
    {
      "midi": 43,
      "hit": false,
      "t": 90259.15799999997,
      "d": 359.88499999999476,
      "v": 68
    },
    {
      "midi": 43,
      "hit": false,
      "t": 90691.01999999996,
      "d": 47.98466666667082,
      "v": 60
    },
    {
      "midi": 62,
      "hit": false,
      "t": 90691.01999999996,
      "d": 163.14786666666623,
      "v": 61
    },
    {
      "midi": 43,
      "hit": false,
      "t": 90834.97399999996,
      "d": 52.783133333330625,
      "v": 62
    },
    {
      "midi": 43,
      "hit": false,
      "t": 90978.92799999996,
      "d": 201.5356000000029,
      "v": 72
    },
    {
      "midi": 62,
      "hit": false,
      "t": 90978.92799999996,
      "d": 292.7064666666556,
      "v": 72
    },
    {
      "midi": 43,
      "hit": false,
      "t": 91266.83599999995,
      "d": 43.18619999999646,
      "v": 53
    },
    {
      "midi": 43,
      "hit": false,
      "t": 91410.78999999995,
      "d": 244.72179999999935,
      "v": 78
    },
    {
      "midi": 62,
      "hit": false,
      "t": 91410.78999999995,
      "d": 273.51260000000184,
      "v": 78
    },
    {
      "midi": 43,
      "hit": false,
      "t": 91698.69799999995,
      "d": 239.923333333325,
      "v": 62
    },
    {
      "midi": 62,
      "hit": false,
      "t": 91842.65199999994,
      "d": 187.14019999999437,
      "v": 73
    },
    {
      "midi": 43,
      "hit": false,
      "t": 91986.60599999994,
      "d": 100.76780000000144,
      "v": 63
    },
    {
      "midi": 43,
      "hit": false,
      "t": 92130.55999999994,
      "d": 230.32640000000538,
      "v": 72
    },
    {
      "midi": 62,
      "hit": false,
      "t": 92130.55999999994,
      "d": 302.30340000000433,
      "v": 62
    },
    {
      "midi": 43,
      "hit": false,
      "t": 92418.46799999995,
      "d": 76.77546666665876,
      "v": 61
    },
    {
      "midi": 43,
      "hit": false,
      "t": 92562.42199999995,
      "d": 211.13253333333705,
      "v": 69
    },
    {
      "midi": 62,
      "hit": false,
      "t": 92562.42199999995,
      "d": 263.9156666666677,
      "v": 69
    },
    {
      "midi": 43,
      "hit": false,
      "t": 92850.32999999994,
      "d": 47.98466666667082,
      "v": 67
    },
    {
      "midi": 43,
      "hit": false,
      "t": 92994.28399999994,
      "d": 62.38006666666479,
      "v": 78
    },
    {
      "midi": 62,
      "hit": false,
      "t": 92994.28399999994,
      "d": 206.3340666666627,
      "v": 78
    },
    {
      "midi": 43,
      "hit": false,
      "t": 93138.23799999994,
      "d": 71.97699999999895,
      "v": 72
    },
    {
      "midi": 43,
      "hit": false,
      "t": 93282.19199999994,
      "d": 244.72179999999935,
      "v": 62
    },
    {
      "midi": 62,
      "hit": false,
      "t": 93282.19199999994,
      "d": 316.6987999999983,
      "v": 69
    },
    {
      "midi": 43,
      "hit": false,
      "t": 93570.09999999993,
      "d": 57.58160000000498,
      "v": 67
    },
    {
      "midi": 43,
      "hit": false,
      "t": 93714.05399999993,
      "d": 220.72946666667121,
      "v": 78
    },
    {
      "midi": 62,
      "hit": false,
      "t": 93714.05399999993,
      "d": 287.90800000001036,
      "v": 78
    },
    {
      "midi": 43,
      "hit": false,
      "t": 94001.96199999994,
      "d": 47.98466666667082,
      "v": 63
    },
    {
      "midi": 43,
      "hit": false,
      "t": 94145.91599999994,
      "d": 105.56626666666125,
      "v": 67
    },
    {
      "midi": 62,
      "hit": false,
      "t": 94145.91599999994,
      "d": 254.31873333331896,
      "v": 63
    },
    {
      "midi": 43,
      "hit": false,
      "t": 94289.86999999994,
      "d": 105.56626666666125,
      "v": 75
    },
    {
      "midi": 43,
      "hit": false,
      "t": 94433.82399999992,
      "d": 211.13253333333705,
      "v": 69
    },
    {
      "midi": 62,
      "hit": false,
      "t": 94433.82399999992,
      "d": 254.3187333333335,
      "v": 69
    },
    {
      "midi": 43,
      "hit": false,
      "t": 94721.73199999992,
      "d": 43.18619999999646,
      "v": 73
    },
    {
      "midi": 43,
      "hit": false,
      "t": 94865.68599999991,
      "d": 249.5202666666737,
      "v": 67
    },
    {
      "midi": 62,
      "hit": false,
      "t": 94865.68599999991,
      "d": 350.28806666667515,
      "v": 65
    },
    {
      "midi": 43,
      "hit": false,
      "t": 95153.59399999992,
      "d": 52.783133333330625,
      "v": 60
    },
    {
      "midi": 43,
      "hit": false,
      "t": 95297.54799999992,
      "d": 52.783133333330625,
      "v": 63
    },
    {
      "midi": 62,
      "hit": false,
      "t": 95297.54799999992,
      "d": 187.14019999999437,
      "v": 50
    },
    {
      "midi": 43,
      "hit": false,
      "t": 95441.50199999992,
      "d": 52.783133333330625,
      "v": 63
    },
    {
      "midi": 43,
      "hit": false,
      "t": 95585.45599999992,
      "d": 244.72179999999935,
      "v": 73
    },
    {
      "midi": 62,
      "hit": false,
      "t": 95585.45599999992,
      "d": 311.90033333332394,
      "v": 73
    },
    {
      "midi": 43,
      "hit": false,
      "t": 95873.36399999991,
      "d": 57.58159999999043,
      "v": 63
    },
    {
      "midi": 62,
      "hit": false,
      "t": 96017.3179999999,
      "d": 268.7141333333275,
      "v": 65
    },
    {
      "midi": 43,
      "hit": false,
      "t": 96017.3179999999,
      "d": 359.88499999999476,
      "v": 68
    },
    {
      "midi": 43,
      "hit": false,
      "t": 96449.17999999989,
      "d": 47.98466666667082,
      "v": 60
    },
    {
      "midi": 62,
      "hit": false,
      "t": 96449.17999999989,
      "d": 163.14786666666623,
      "v": 61
    },
    {
      "midi": 43,
      "hit": false,
      "t": 96593.13399999989,
      "d": 52.783133333330625,
      "v": 62
    },
    {
      "midi": 43,
      "hit": false,
      "t": 96737.08799999989,
      "d": 201.5356000000029,
      "v": 72
    },
    {
      "midi": 62,
      "hit": false,
      "t": 96737.08799999989,
      "d": 292.7064666666556,
      "v": 72
    },
    {
      "midi": 43,
      "hit": false,
      "t": 97024.99599999988,
      "d": 43.18619999999646,
      "v": 53
    },
    {
      "midi": 43,
      "hit": false,
      "t": 97168.94999999988,
      "d": 244.72179999999935,
      "v": 78
    },
    {
      "midi": 62,
      "hit": false,
      "t": 97168.94999999988,
      "d": 273.51260000000184,
      "v": 78
    },
    {
      "midi": 43,
      "hit": false,
      "t": 97456.85799999988,
      "d": 239.923333333325,
      "v": 62
    },
    {
      "midi": 62,
      "hit": false,
      "t": 97600.81199999987,
      "d": 187.14019999999437,
      "v": 73
    },
    {
      "midi": 43,
      "hit": false,
      "t": 97744.76599999987,
      "d": 100.76780000000144,
      "v": 63
    },
    {
      "midi": 55,
      "hit": false,
      "t": 97888.71999999987,
      "d": 1477.9277333333303,
      "v": 56
    },
    {
      "midi": 62,
      "hit": false,
      "t": 97888.71999999987,
      "d": 1492.3231333333242,
      "v": 56
    },
    {
      "midi": 59,
      "hit": false,
      "t": 97888.71999999987,
      "d": 1497.121599999984,
      "v": 56
    },
    {
      "midi": 55,
      "hit": false,
      "t": 100191.98399999985,
      "d": 652.5914666666649,
      "v": 56
    },
    {
      "midi": 60,
      "hit": false,
      "t": 100191.98399999985,
      "d": 662.1883999999991,
      "v": 56
    },
    {
      "midi": 64,
      "hit": false,
      "t": 100191.98399999985,
      "d": 690.9792000000016,
      "v": 56
    },
    {
      "midi": 55,
      "hit": false,
      "t": 100911.75399999986,
      "d": 355.08653333333496,
      "v": 56
    },
    {
      "midi": 60,
      "hit": false,
      "t": 100911.75399999986,
      "d": 355.08653333333496,
      "v": 56
    },
    {
      "midi": 64,
      "hit": false,
      "t": 100911.75399999986,
      "d": 355.08653333333496,
      "v": 56
    },
    {
      "midi": 55,
      "hit": false,
      "t": 101343.61599999986,
      "d": 1007.6779999999999,
      "v": 56
    },
    {
      "midi": 60,
      "hit": false,
      "t": 101343.61599999986,
      "d": 1012.4764666666597,
      "v": 56
    },
    {
      "midi": 64,
      "hit": false,
      "t": 101343.61599999986,
      "d": 1041.2672666666622,
      "v": 56
    },
    {
      "midi": 55,
      "hit": false,
      "t": 103790.83399999986,
      "d": 100.76780000000144,
      "v": 56
    },
    {
      "midi": 62,
      "hit": false,
      "t": 103790.83399999986,
      "d": 100.76780000000144,
      "v": 56
    },
    {
      "midi": 59,
      "hit": false,
      "t": 103790.83399999986,
      "d": 110.36473333333561,
      "v": 56
    },
    {
      "midi": 62,
      "hit": false,
      "t": 103934.78799999985,
      "d": 191.93866666666872,
      "v": 56
    },
    {
      "midi": 55,
      "hit": false,
      "t": 103934.78799999985,
      "d": 196.73713333332853,
      "v": 56
    },
    {
      "midi": 59,
      "hit": false,
      "t": 103934.78799999985,
      "d": 196.73713333332853,
      "v": 56
    },
    {
      "midi": 59,
      "hit": false,
      "t": 104222.69599999985,
      "d": 503.8390000000072,
      "v": 59
    },
    {
      "midi": 55,
      "hit": false,
      "t": 104222.69599999985,
      "d": 513.4359333333414,
      "v": 59
    },
    {
      "midi": 62,
      "hit": false,
      "t": 104222.69599999985,
      "d": 523.0328666666755,
      "v": 59
    },
    {
      "midi": 55,
      "hit": false,
      "t": 104798.51199999986,
      "d": 537.4282666666695,
      "v": 55
    },
    {
      "midi": 59,
      "hit": false,
      "t": 104798.51199999986,
      "d": 537.4282666666695,
      "v": 51
    },
    {
      "midi": 60,
      "hit": false,
      "t": 105374.32799999986,
      "d": 561.4205999999976,
      "v": 51
    },
    {
      "midi": 55,
      "hit": false,
      "t": 105374.32799999986,
      "d": 566.2190666666575,
      "v": 52
    },
    {
      "midi": 62,
      "hit": false,
      "t": 105950.14399999985,
      "d": 1022.0733999999939,
      "v": 52
    },
    {
      "midi": 54,
      "hit": false,
      "t": 105950.14399999985,
      "d": 1026.8718666666537,
      "v": 55
    },
    {
      "midi": 57,
      "hit": false,
      "t": 105950.14399999985,
      "d": 1026.8718666666537,
      "v": 55
    },
    {
      "midi": 55,
      "hit": false,
      "t": 107101.77599999984,
      "d": 1477.9277333333303,
      "v": 56
    },
    {
      "midi": 62,
      "hit": false,
      "t": 107101.77599999984,
      "d": 1492.3231333333242,
      "v": 56
    },
    {
      "midi": 59,
      "hit": false,
      "t": 107101.77599999984,
      "d": 1497.121599999984,
      "v": 56
    },
    {
      "midi": 55,
      "hit": false,
      "t": 109405.03999999982,
      "d": 652.5914666666649,
      "v": 56
    },
    {
      "midi": 60,
      "hit": false,
      "t": 109405.03999999982,
      "d": 662.1883999999991,
      "v": 56
    },
    {
      "midi": 64,
      "hit": false,
      "t": 109405.03999999982,
      "d": 690.9792000000016,
      "v": 56
    },
    {
      "midi": 55,
      "hit": false,
      "t": 110124.80999999982,
      "d": 355.08653333333496,
      "v": 56
    },
    {
      "midi": 60,
      "hit": false,
      "t": 110124.80999999982,
      "d": 355.08653333333496,
      "v": 56
    },
    {
      "midi": 64,
      "hit": false,
      "t": 110124.80999999982,
      "d": 355.08653333333496,
      "v": 56
    },
    {
      "midi": 55,
      "hit": false,
      "t": 110556.67199999983,
      "d": 1007.6779999999999,
      "v": 56
    },
    {
      "midi": 60,
      "hit": false,
      "t": 110556.67199999983,
      "d": 1012.4764666666597,
      "v": 56
    },
    {
      "midi": 64,
      "hit": false,
      "t": 110556.67199999983,
      "d": 1041.2672666666622,
      "v": 56
    },
    {
      "midi": 55,
      "hit": false,
      "t": 111708.30399999983,
      "d": 1007.6779999999999,
      "v": 53
    },
    {
      "midi": 59,
      "hit": false,
      "t": 111708.30399999983,
      "d": 1012.4764666666597,
      "v": 53
    },
    {
      "midi": 64,
      "hit": false,
      "t": 111708.30399999983,
      "d": 1041.2672666666622,
      "v": 53
    },
    {
      "midi": 54,
      "hit": false,
      "t": 112859.93599999983,
      "d": 1007.6779999999999,
      "v": 53
    },
    {
      "midi": 57,
      "hit": false,
      "t": 112859.93599999983,
      "d": 1012.4764666666597,
      "v": 53
    },
    {
      "midi": 62,
      "hit": false,
      "t": 112859.93599999983,
      "d": 1041.2672666666622,
      "v": 53
    },
    {
      "midi": 57,
      "hit": false,
      "t": 114011.56799999982,
      "d": 1007.6779999999999,
      "v": 53
    },
    {
      "midi": 60,
      "hit": false,
      "t": 114011.56799999982,
      "d": 1012.4764666666597,
      "v": 53
    },
    {
      "midi": 64,
      "hit": false,
      "t": 114011.56799999982,
      "d": 1041.2672666666622,
      "v": 53
    },
    {
      "midi": 55,
      "hit": false,
      "t": 115163.19999999982,
      "d": 1007.6779999999999,
      "v": 53
    },
    {
      "midi": 59,
      "hit": false,
      "t": 115163.19999999982,
      "d": 1012.4764666666597,
      "v": 53
    },
    {
      "midi": 64,
      "hit": false,
      "t": 115163.19999999982,
      "d": 1041.2672666666622,
      "v": 53
    },
    {
      "midi": 54,
      "hit": false,
      "t": 116314.83199999982,
      "d": 1007.6779999999999,
      "v": 53
    },
    {
      "midi": 57,
      "hit": false,
      "t": 116314.83199999982,
      "d": 1012.4764666666597,
      "v": 53
    },
    {
      "midi": 62,
      "hit": false,
      "t": 116314.83199999982,
      "d": 1041.2672666666622,
      "v": 53
    },
    {
      "midi": 43,
      "hit": false,
      "t": 117466.46399999982,
      "d": 244.72179999999935,
      "v": 62
    },
    {
      "midi": 62,
      "hit": false,
      "t": 117466.46399999982,
      "d": 316.6987999999983,
      "v": 69
    },
    {
      "midi": 43,
      "hit": false,
      "t": 117754.37199999981,
      "d": 57.58160000000498,
      "v": 67
    },
    {
      "midi": 43,
      "hit": false,
      "t": 117898.32599999981,
      "d": 220.72946666667121,
      "v": 78
    },
    {
      "midi": 62,
      "hit": false,
      "t": 117898.32599999981,
      "d": 287.90800000001036,
      "v": 78
    },
    {
      "midi": 43,
      "hit": false,
      "t": 118186.23399999982,
      "d": 47.98466666667082,
      "v": 63
    },
    {
      "midi": 43,
      "hit": false,
      "t": 118330.18799999982,
      "d": 105.56626666666125,
      "v": 67
    },
    {
      "midi": 62,
      "hit": false,
      "t": 118330.18799999982,
      "d": 254.31873333331896,
      "v": 63
    },
    {
      "midi": 43,
      "hit": false,
      "t": 118474.14199999982,
      "d": 105.56626666666125,
      "v": 75
    },
    {
      "midi": 43,
      "hit": false,
      "t": 118618.0959999998,
      "d": 211.13253333333705,
      "v": 69
    },
    {
      "midi": 62,
      "hit": false,
      "t": 118618.0959999998,
      "d": 254.3187333333335,
      "v": 69
    },
    {
      "midi": 43,
      "hit": false,
      "t": 118906.0039999998,
      "d": 43.18619999999646,
      "v": 73
    },
    {
      "midi": 43,
      "hit": false,
      "t": 119049.9579999998,
      "d": 249.5202666666737,
      "v": 67
    },
    {
      "midi": 62,
      "hit": false,
      "t": 119049.9579999998,
      "d": 350.28806666667515,
      "v": 65
    },
    {
      "midi": 43,
      "hit": false,
      "t": 119337.8659999998,
      "d": 52.783133333330625,
      "v": 60
    },
    {
      "midi": 43,
      "hit": false,
      "t": 119481.8199999998,
      "d": 52.783133333330625,
      "v": 63
    },
    {
      "midi": 62,
      "hit": false,
      "t": 119481.8199999998,
      "d": 187.14019999999437,
      "v": 50
    },
    {
      "midi": 43,
      "hit": false,
      "t": 119625.7739999998,
      "d": 52.783133333330625,
      "v": 63
    },
    {
      "midi": 43,
      "hit": false,
      "t": 119769.7279999998,
      "d": 244.72179999999935,
      "v": 73
    },
    {
      "midi": 79,
      "hit": false,
      "t": 119769.7279999998,
      "d": 278.31106666666165,
      "v": 74
    },
    {
      "midi": 62,
      "hit": false,
      "t": 119769.7279999998,
      "d": 311.90033333332394,
      "v": 73
    },
    {
      "midi": 74,
      "hit": false,
      "t": 119769.7279999998,
      "d": 311.90033333332394,
      "v": 90
    },
    {
      "midi": 43,
      "hit": false,
      "t": 120057.6359999998,
      "d": 57.58159999999043,
      "v": 63
    },
    {
      "midi": 69,
      "hit": false,
      "t": 120201.58999999978,
      "d": 215.93099999999686,
      "v": 88
    },
    {
      "midi": 74,
      "hit": false,
      "t": 120201.58999999978,
      "d": 220.72946666665666,
      "v": 84
    },
    {
      "midi": 62,
      "hit": false,
      "t": 120201.58999999978,
      "d": 268.7141333333275,
      "v": 65
    },
    {
      "midi": 43,
      "hit": false,
      "t": 120201.58999999978,
      "d": 359.88499999999476,
      "v": 68
    },
    {
      "midi": 74,
      "hit": false,
      "t": 120489.49799999977,
      "d": 196.73713333332853,
      "v": 77
    },
    {
      "midi": 43,
      "hit": false,
      "t": 120633.45199999977,
      "d": 47.98466666667082,
      "v": 60
    },
    {
      "midi": 62,
      "hit": false,
      "t": 120633.45199999977,
      "d": 163.14786666666623,
      "v": 61
    },
    {
      "midi": 71,
      "hit": false,
      "t": 120633.45199999977,
      "d": 254.3187333333335,
      "v": 91
    },
    {
      "midi": 43,
      "hit": false,
      "t": 120777.40599999977,
      "d": 52.783133333330625,
      "v": 62
    },
    {
      "midi": 71,
      "hit": false,
      "t": 120921.35999999977,
      "d": 95.96933333332709,
      "v": 68
    },
    {
      "midi": 67,
      "hit": false,
      "t": 120921.35999999977,
      "d": 100.76779999998689,
      "v": 83
    },
    {
      "midi": 43,
      "hit": false,
      "t": 120921.35999999977,
      "d": 201.53559999998834,
      "v": 72
    },
    {
      "midi": 62,
      "hit": false,
      "t": 120921.35999999977,
      "d": 292.70646666664106,
      "v": 72
    },
    {
      "midi": 67,
      "hit": false,
      "t": 121065.31399999975,
      "d": 225.52793333333102,
      "v": 91
    },
    {
      "midi": 74,
      "hit": false,
      "t": 121065.31399999975,
      "d": 225.52793333333102,
      "v": 74
    },
    {
      "midi": 43,
      "hit": false,
      "t": 121209.26799999975,
      "d": 43.18619999999646,
      "v": 53
    },
    {
      "midi": 43,
      "hit": false,
      "t": 121353.22199999975,
      "d": 244.72179999999935,
      "v": 78
    },
    {
      "midi": 62,
      "hit": false,
      "t": 121353.22199999975,
      "d": 273.51260000000184,
      "v": 78
    },
    {
      "midi": 69,
      "hit": false,
      "t": 121353.22199999975,
      "d": 302.3033999999898,
      "v": 78
    },
    {
      "midi": 76,
      "hit": false,
      "t": 121353.22199999975,
      "d": 302.3033999999898,
      "v": 88
    },
    {
      "midi": 43,
      "hit": false,
      "t": 121641.12999999974,
      "d": 239.923333333325,
      "v": 62
    },
    {
      "midi": 62,
      "hit": false,
      "t": 121785.08399999974,
      "d": 187.14019999999437,
      "v": 73
    },
    {
      "midi": 71,
      "hit": false,
      "t": 121785.08399999974,
      "d": 451.05586666666204,
      "v": 95
    },
    {
      "midi": 43,
      "hit": false,
      "t": 121929.03799999974,
      "d": 100.76780000000144,
      "v": 63
    },
    {
      "midi": 79,
      "hit": false,
      "t": 121929.03799999974,
      "d": 383.87733333333745,
      "v": 81
    },
    {
      "midi": 62,
      "hit": false,
      "t": 122072.99199999974,
      "d": 1041.2672666666622,
      "v": 73
    },
    {
      "midi": 43,
      "hit": false,
      "t": 122072.99199999974,
      "d": 1113.2442666666611,
      "v": 67
    },
    {
      "midi": 74,
      "hit": false,
      "t": 122360.89999999975,
      "d": 215.93099999999686,
      "v": 87
    },
    {
      "midi": 71,
      "hit": false,
      "t": 122360.89999999975,
      "d": 230.32639999999083,
      "v": 87
    },
    {
      "midi": 70,
      "hit": false,
      "t": 122648.80799999974,
      "d": 148.7524666666577,
      "v": 96
    },
    {
      "midi": 71,
      "hit": false,
      "t": 122792.76199999974,
      "d": 220.72946666665666,
      "v": 85
    },
    {
      "midi": 71,
      "hit": false,
      "t": 123080.66999999974,
      "d": 297.50493333333,
      "v": 68
    },
    {
      "midi": 74,
      "hit": false,
      "t": 123080.66999999974,
      "d": 307.10186666666414,
      "v": 90
    },
    {
      "midi": 71,
      "hit": false,
      "t": 123512.53199999973,
      "d": 225.52793333333102,
      "v": 85
    },
    {
      "midi": 74,
      "hit": false,
      "t": 123512.53199999973,
      "d": 230.32639999999083,
      "v": 85
    },
    {
      "midi": 70,
      "hit": false,
      "t": 123800.43999999973,
      "d": 143.9539999999979,
      "v": 85
    },
    {
      "midi": 71,
      "hit": false,
      "t": 123944.39399999972,
      "d": 287.9079999999958,
      "v": 79
    },
    {
      "midi": 67,
      "hit": false,
      "t": 124232.30199999972,
      "d": 143.9539999999979,
      "v": 68
    },
    {
      "midi": 72,
      "hit": false,
      "t": 124376.25599999972,
      "d": 153.55093333333207,
      "v": 78
    },
    {
      "midi": 79,
      "hit": false,
      "t": 124520.20999999972,
      "d": 326.29573333333246,
      "v": 90
    },
    {
      "midi": 72,
      "hit": false,
      "t": 124808.11799999971,
      "d": 307.10186666666414,
      "v": 83
    },
    {
      "midi": 79,
      "hit": false,
      "t": 124952.07199999971,
      "d": 254.3187333333335,
      "v": 90
    },
    {
      "midi": 76,
      "hit": false,
      "t": 125096.0259999997,
      "d": 115.16319999999541,
      "v": 66
    },
    {
      "midi": 67,
      "hit": false,
      "t": 125096.0259999997,
      "d": 143.9539999999979,
      "v": 79
    },
    {
      "midi": 76,
      "hit": false,
      "t": 125239.9799999997,
      "d": 105.56626666666125,
      "v": 57
    },
    {
      "midi": 67,
      "hit": false,
      "t": 125383.9339999997,
      "d": 110.36473333333561,
      "v": 80
    },
    {
      "midi": 81,
      "hit": false,
      "t": 125671.8419999997,
      "d": 153.55093333333207,
      "v": 95
    },
    {
      "midi": 79,
      "hit": false,
      "t": 125815.7959999997,
      "d": 139.1555333333381,
      "v": 82
    },
    {
      "midi": 72,
      "hit": false,
      "t": 125815.7959999997,
      "d": 273.51260000000184,
      "v": 79
    },
    {
      "midi": 76,
      "hit": false,
      "t": 126103.70399999969,
      "d": 129.55860000000393,
      "v": 91
    },
    {
      "midi": 74,
      "hit": false,
      "t": 126247.65799999969,
      "d": 129.55860000000393,
      "v": 79
    },
    {
      "midi": 72,
      "hit": false,
      "t": 126391.61199999969,
      "d": 163.14786666666623,
      "v": 68
    },
    {
      "midi": 69,
      "hit": false,
      "t": 126535.56599999969,
      "d": 297.50493333333,
      "v": 85
    },
    {
      "midi": 64,
      "hit": false,
      "t": 126967.42799999968,
      "d": 235.12486666666518,
      "v": 81
    },
    {
      "midi": 72,
      "hit": false,
      "t": 126967.42799999968,
      "d": 249.52026666665915,
      "v": 85
    },
    {
      "midi": 72,
      "hit": false,
      "t": 127255.33599999968,
      "d": 220.72946666667121,
      "v": 79
    },
    {
      "midi": 67,
      "hit": false,
      "t": 127255.33599999968,
      "d": 235.12486666666518,
      "v": 81
    },
    {
      "midi": 69,
      "hit": false,
      "t": 127399.28999999967,
      "d": 364.6834666666691,
      "v": 75
    },
    {
      "midi": 81,
      "hit": false,
      "t": 127975.10599999968,
      "d": 187.14019999999437,
      "v": 94
    },
    {
      "midi": 67,
      "hit": false,
      "t": 128119.05999999968,
      "d": 225.52793333333102,
      "v": 83
    },
    {
      "midi": 79,
      "hit": false,
      "t": 128119.05999999968,
      "d": 254.3187333333335,
      "v": 79
    },
    {
      "midi": 74,
      "hit": false,
      "t": 128406.96799999967,
      "d": 100.76780000000144,
      "v": 94
    },
    {
      "midi": 71,
      "hit": false,
      "t": 128550.92199999967,
      "d": 139.1555333333381,
      "v": 79
    },
    {
      "midi": 74,
      "hit": false,
      "t": 128694.87599999967,
      "d": 259.1171999999933,
      "v": 83
    },
    {
      "midi": 67,
      "hit": false,
      "t": 128838.82999999967,
      "d": 153.55093333333207,
      "v": 77
    },
    {
      "midi": 79,
      "hit": false,
      "t": 128982.78399999966,
      "d": 451.05586666666204,
      "v": 84
    },
    {
      "midi": 76,
      "hit": false,
      "t": 128982.78399999966,
      "d": 455.85433333332185,
      "v": 84
    },
    {
      "midi": 70,
      "hit": false,
      "t": 129558.59999999966,
      "d": 153.55093333333207,
      "v": 92
    },
    {
      "midi": 69,
      "hit": false,
      "t": 129702.55399999965,
      "d": 182.34173333333456,
      "v": 69
    },
    {
      "midi": 67,
      "hit": false,
      "t": 129846.50799999965,
      "d": 139.1555333333381,
      "v": 84
    },
    {
      "midi": 64,
      "hit": false,
      "t": 129990.46199999965,
      "d": 134.35706666666374,
      "v": 81
    },
    {
      "midi": 62,
      "hit": false,
      "t": 130278.36999999965,
      "d": 153.55093333333207,
      "v": 66
    },
    {
      "midi": 66,
      "hit": false,
      "t": 130278.36999999965,
      "d": 172.7448000000004,
      "v": 81
    },
    {
      "midi": 62,
      "hit": false,
      "t": 130566.27799999964,
      "d": 153.55093333333207,
      "v": 60
    },
    {
      "midi": 69,
      "hit": false,
      "t": 130566.27799999964,
      "d": 177.5432666666602,
      "v": 84
    },
    {
      "midi": 62,
      "hit": false,
      "t": 130854.18599999964,
      "d": 134.35706666666374,
      "v": 80
    },
    {
      "midi": 66,
      "hit": false,
      "t": 130854.18599999964,
      "d": 143.9539999999979,
      "v": 80
    },
    {
      "midi": 62,
      "hit": false,
      "t": 131286.04799999963,
      "d": 148.7524666666577,
      "v": 80
    },
    {
      "midi": 67,
      "hit": false,
      "t": 131430.00199999963,
      "d": 158.34940000000643,
      "v": 86
    },
    {
      "midi": 69,
      "hit": false,
      "t": 131573.95599999963,
      "d": 153.55093333331752,
      "v": 88
    },
    {
      "midi": 70,
      "hit": false,
      "t": 131717.90999999963,
      "d": 143.9539999999979,
      "v": 100
    },
    {
      "midi": 69,
      "hit": false,
      "t": 131861.86399999962,
      "d": 129.55859999998938,
      "v": 91
    },
    {
      "midi": 67,
      "hit": false,
      "t": 132005.81799999962,
      "d": 119.96166666666977,
      "v": 75
    },
    {
      "midi": 64,
      "hit": false,
      "t": 132149.77199999962,
      "d": 129.55859999998938,
      "v": 92
    },
    {
      "midi": 62,
      "hit": false,
      "t": 132293.72599999962,
      "d": 143.9539999999979,
      "v": 80
    },
    {
      "midi": 70,
      "hit": false,
      "t": 132437.67999999961,
      "d": 129.55859999998938,
      "v": 92
    },
    {
      "midi": 71,
      "hit": false,
      "t": 132581.6339999996,
      "d": 134.3570666666783,
      "v": 83
    },
    {
      "midi": 74,
      "hit": false,
      "t": 132725.5879999996,
      "d": 187.14019999999437,
      "v": 93
    },
    {
      "midi": 70,
      "hit": false,
      "t": 132869.5419999996,
      "d": 172.74479999998584,
      "v": 85
    },
    {
      "midi": 71,
      "hit": false,
      "t": 133013.4959999996,
      "d": 139.155533333309,
      "v": 99
    },
    {
      "midi": 74,
      "hit": false,
      "t": 133157.44999999958,
      "d": 163.14786666666623,
      "v": 87
    },
    {
      "midi": 70,
      "hit": false,
      "t": 133301.40399999957,
      "d": 143.9539999999979,
      "v": 79
    },
    {
      "midi": 71,
      "hit": false,
      "t": 133445.35799999957,
      "d": 153.55093333331752,
      "v": 96
    },
    {
      "midi": 72,
      "hit": false,
      "t": 133589.31199999957,
      "d": 153.55093333331752,
      "v": 78
    },
    {
      "midi": 79,
      "hit": false,
      "t": 133733.26599999957,
      "d": 326.29573333333246,
      "v": 90
    },
    {
      "midi": 72,
      "hit": false,
      "t": 134021.17399999956,
      "d": 307.10186666666414,
      "v": 83
    },
    {
      "midi": 79,
      "hit": false,
      "t": 134165.12799999956,
      "d": 254.31873333331896,
      "v": 90
    },
    {
      "midi": 76,
      "hit": false,
      "t": 134309.08199999956,
      "d": 115.16319999998086,
      "v": 66
    },
    {
      "midi": 67,
      "hit": false,
      "t": 134309.08199999956,
      "d": 143.9539999999688,
      "v": 79
    },
    {
      "midi": 76,
      "hit": false,
      "t": 134453.03599999953,
      "d": 105.56626666666125,
      "v": 57
    },
    {
      "midi": 67,
      "hit": false,
      "t": 134596.98999999953,
      "d": 110.36473333332106,
      "v": 80
    },
    {
      "midi": 81,
      "hit": false,
      "t": 134884.89799999952,
      "d": 153.55093333331752,
      "v": 95
    },
    {
      "midi": 79,
      "hit": false,
      "t": 135028.85199999952,
      "d": 139.155533333309,
      "v": 82
    },
    {
      "midi": 72,
      "hit": false,
      "t": 135028.85199999952,
      "d": 273.5125999999873,
      "v": 79
    },
    {
      "midi": 76,
      "hit": false,
      "t": 135316.7599999995,
      "d": 129.55859999998938,
      "v": 91
    },
    {
      "midi": 74,
      "hit": false,
      "t": 135460.7139999995,
      "d": 129.55859999998938,
      "v": 79
    },
    {
      "midi": 72,
      "hit": false,
      "t": 135604.6679999995,
      "d": 163.14786666666623,
      "v": 68
    },
    {
      "midi": 67,
      "hit": false,
      "t": 135748.6219999995,
      "d": 129.55859999998938,
      "v": 85
    },
    {
      "midi": 76,
      "hit": false,
      "t": 135892.5759999995,
      "d": 191.93866666665417,
      "v": 75
    },
    {
      "midi": 79,
      "hit": false,
      "t": 135892.5759999995,
      "d": 220.7294666666421,
      "v": 91
    },
    {
      "midi": 81,
      "hit": false,
      "t": 136180.48399999947,
      "d": 187.14019999999437,
      "v": 94
    },
    {
      "midi": 76,
      "hit": false,
      "t": 136324.43799999947,
      "d": 191.93866666665417,
      "v": 79
    },
    {
      "midi": 79,
      "hit": false,
      "t": 136324.43799999947,
      "d": 211.1325333333225,
      "v": 88
    },
    {
      "midi": 81,
      "hit": false,
      "t": 136612.34599999947,
      "d": 182.34173333333456,
      "v": 89
    },
    {
      "midi": 79,
      "hit": false,
      "t": 136756.29999999946,
      "d": 201.5356000000029,
      "v": 86
    },
    {
      "midi": 76,
      "hit": false,
      "t": 136756.29999999946,
      "d": 239.92333333333954,
      "v": 59
    },
    {
      "midi": 78,
      "hit": false,
      "t": 137044.20799999946,
      "d": 278.3110666666762,
      "v": 77
    },
    {
      "midi": 72,
      "hit": false,
      "t": 137044.20799999946,
      "d": 331.0942000000214,
      "v": 77
    },
    {
      "midi": 74,
      "hit": false,
      "t": 137476.06999999948,
      "d": 211.1325333333225,
      "v": 73
    },
    {
      "midi": 78,
      "hit": false,
      "t": 137476.06999999948,
      "d": 230.32639999999083,
      "v": 75
    },
    {
      "midi": 78,
      "hit": false,
      "t": 137763.97799999948,
      "d": 100.76780000000144,
      "v": 84
    },
    {
      "midi": 74,
      "hit": false,
      "t": 137763.97799999948,
      "d": 115.16320000000997,
      "v": 84
    },
    {
      "midi": 76,
      "hit": false,
      "t": 138195.8399999995,
      "d": 191.93866666665417,
      "v": 75
    },
    {
      "midi": 79,
      "hit": false,
      "t": 138195.8399999995,
      "d": 220.7294666666421,
      "v": 91
    },
    {
      "midi": 81,
      "hit": false,
      "t": 138483.74799999947,
      "d": 187.14019999999437,
      "v": 94
    },
    {
      "midi": 76,
      "hit": false,
      "t": 138627.70199999947,
      "d": 191.93866666665417,
      "v": 79
    },
    {
      "midi": 79,
      "hit": false,
      "t": 138627.70199999947,
      "d": 211.1325333333225,
      "v": 88
    },
    {
      "midi": 81,
      "hit": false,
      "t": 138915.60999999946,
      "d": 182.34173333333456,
      "v": 89
    },
    {
      "midi": 79,
      "hit": false,
      "t": 139059.56399999946,
      "d": 201.5356000000029,
      "v": 86
    },
    {
      "midi": 76,
      "hit": false,
      "t": 139059.56399999946,
      "d": 239.92333333333954,
      "v": 59
    },
    {
      "midi": 76,
      "hit": false,
      "t": 139347.47199999946,
      "d": 191.93866666665417,
      "v": 75
    },
    {
      "midi": 79,
      "hit": false,
      "t": 139347.47199999946,
      "d": 220.7294666666421,
      "v": 91
    },
    {
      "midi": 81,
      "hit": false,
      "t": 139635.37999999942,
      "d": 187.14019999999437,
      "v": 94
    },
    {
      "midi": 76,
      "hit": false,
      "t": 139779.33399999942,
      "d": 191.93866666665417,
      "v": 79
    },
    {
      "midi": 79,
      "hit": false,
      "t": 139779.33399999942,
      "d": 211.1325333333225,
      "v": 88
    },
    {
      "midi": 81,
      "hit": false,
      "t": 140067.24199999942,
      "d": 182.34173333333456,
      "v": 89
    },
    {
      "midi": 79,
      "hit": false,
      "t": 140211.1959999994,
      "d": 201.5356000000029,
      "v": 86
    },
    {
      "midi": 76,
      "hit": false,
      "t": 140211.1959999994,
      "d": 239.92333333333954,
      "v": 59
    },
    {
      "midi": 69,
      "hit": false,
      "t": 140499.1039999994,
      "d": 307.10186666666414,
      "v": 77
    },
    {
      "midi": 66,
      "hit": false,
      "t": 140499.1039999994,
      "d": 331.09419999999227,
      "v": 77
    },
    {
      "midi": 74,
      "hit": false,
      "t": 140643.0579999994,
      "d": 187.14019999999437,
      "v": 65
    },
    {
      "midi": 66,
      "hit": false,
      "t": 140930.9659999994,
      "d": 211.1325333333225,
      "v": 73
    },
    {
      "midi": 69,
      "hit": false,
      "t": 140930.9659999994,
      "d": 230.32639999999083,
      "v": 75
    },
    {
      "midi": 74,
      "hit": false,
      "t": 140930.9659999994,
      "d": 268.7141333333275,
      "v": 80
    },
    {
      "midi": 69,
      "hit": false,
      "t": 141218.8739999994,
      "d": 100.76780000000144,
      "v": 84
    },
    {
      "midi": 66,
      "hit": false,
      "t": 141218.8739999994,
      "d": 115.16320000000997,
      "v": 84
    },
    {
      "midi": 72,
      "hit": false,
      "t": 141362.8279999994,
      "d": 225.52793333333102,
      "v": 75
    },
    {
      "midi": 78,
      "hit": false,
      "t": 141362.8279999994,
      "d": 230.32639999999083,
      "v": 92
    },
    {
      "midi": 74,
      "hit": false,
      "t": 141794.6899999994,
      "d": 129.55859999998938,
      "v": 80
    },
    {
      "midi": 76,
      "hit": false,
      "t": 141938.6439999994,
      "d": 163.14786666666623,
      "v": 73
    },
    {
      "midi": 79,
      "hit": false,
      "t": 141938.6439999994,
      "d": 172.74479999998584,
      "v": 73
    },
    {
      "midi": 74,
      "hit": false,
      "t": 142082.5979999994,
      "d": 143.9539999999979,
      "v": 78
    },
    {
      "midi": 72,
      "hit": false,
      "t": 142226.55199999938,
      "d": 134.3570666666783,
      "v": 74
    },
    {
      "midi": 74,
      "hit": false,
      "t": 142370.50599999938,
      "d": 134.3570666666783,
      "v": 79
    },
    {
      "midi": 72,
      "hit": false,
      "t": 142514.45999999938,
      "d": 119.96166666666977,
      "v": 73
    },
    {
      "midi": 71,
      "hit": false,
      "t": 142658.41399999938,
      "d": 244.72179999999935,
      "v": 77
    },
    {
      "midi": 74,
      "hit": false,
      "t": 142946.32199999937,
      "d": 273.5125999999873,
      "v": 78
    },
    {
      "midi": 71,
      "hit": false,
      "t": 142946.32199999937,
      "d": 292.7064666666556,
      "v": 78
    },
    {
      "midi": 69,
      "hit": false,
      "t": 143378.18399999937,
      "d": 148.7524666666577,
      "v": 76
    },
    {
      "midi": 74,
      "hit": false,
      "t": 143522.13799999937,
      "d": 129.55859999998938,
      "v": 76
    },
    {
      "midi": 69,
      "hit": false,
      "t": 143666.09199999936,
      "d": 129.55859999998938,
      "v": 69
    },
    {
      "midi": 67,
      "hit": false,
      "t": 143810.04599999936,
      "d": 633.3975999999966,
      "v": 65
    },
    {
      "midi": 71,
      "hit": false,
      "t": 143810.04599999936,
      "d": 642.9945333333162,
      "v": 76
    },
    {
      "midi": 69,
      "hit": false,
      "t": 144529.81599999935,
      "d": 143.9539999999979,
      "v": 75
    },
    {
      "midi": 74,
      "hit": false,
      "t": 144673.76999999935,
      "d": 129.55859999998938,
      "v": 75
    },
    {
      "midi": 69,
      "hit": false,
      "t": 144817.72399999935,
      "d": 139.1555333333381,
      "v": 81
    },
    {
      "midi": 71,
      "hit": false,
      "t": 144961.67799999935,
      "d": 542.2267333333439,
      "v": 74
    },
    {
      "midi": 74,
      "hit": false,
      "t": 144961.67799999935,
      "d": 551.8236666666635,
      "v": 78
    },
    {
      "midi": 69,
      "hit": false,
      "t": 145537.49399999934,
      "d": 215.9310000000114,
      "v": 73
    },
    {
      "midi": 60,
      "hit": false,
      "t": 145537.49399999934,
      "d": 220.72946666667121,
      "v": 78
    },
    {
      "midi": 59,
      "hit": false,
      "t": 145825.40199999933,
      "d": 355.0865333333204,
      "v": 81
    },
    {
      "midi": 67,
      "hit": false,
      "t": 145825.40199999933,
      "d": 374.28039999998873,
      "v": 71
    },
    {
      "midi": 74,
      "hit": false,
      "t": 146401.21799999932,
      "d": 129.55859999998938,
      "v": 80
    },
    {
      "midi": 76,
      "hit": false,
      "t": 146545.17199999932,
      "d": 163.14786666666623,
      "v": 73
    },
    {
      "midi": 79,
      "hit": false,
      "t": 146545.17199999932,
      "d": 172.74479999998584,
      "v": 73
    },
    {
      "midi": 74,
      "hit": false,
      "t": 146689.12599999932,
      "d": 143.9539999999979,
      "v": 78
    },
    {
      "midi": 72,
      "hit": false,
      "t": 146833.07999999932,
      "d": 134.3570666666783,
      "v": 74
    },
    {
      "midi": 74,
      "hit": false,
      "t": 146977.03399999932,
      "d": 134.3570666666783,
      "v": 79
    },
    {
      "midi": 72,
      "hit": false,
      "t": 147120.9879999993,
      "d": 119.96166666666977,
      "v": 73
    },
    {
      "midi": 71,
      "hit": false,
      "t": 147264.9419999993,
      "d": 244.72179999999935,
      "v": 77
    },
    {
      "midi": 74,
      "hit": false,
      "t": 147552.8499999993,
      "d": 273.5125999999873,
      "v": 78
    },
    {
      "midi": 71,
      "hit": false,
      "t": 147552.8499999993,
      "d": 292.7064666666556,
      "v": 78
    },
    {
      "midi": 79,
      "hit": false,
      "t": 147696.8039999993,
      "d": 292.7064666666556,
      "v": 80
    },
    {
      "midi": 69,
      "hit": false,
      "t": 147984.7119999993,
      "d": 148.7524666666577,
      "v": 76
    },
    {
      "midi": 38,
      "hit": false,
      "t": 147984.7119999993,
      "d": 470.24973333333037,
      "v": 63
    },
    {
      "midi": 74,
      "hit": false,
      "t": 148128.6659999993,
      "d": 129.55859999998938,
      "v": 76
    },
    {
      "midi": 69,
      "hit": false,
      "t": 148272.6199999993,
      "d": 129.55859999998938,
      "v": 69
    },
    {
      "midi": 67,
      "hit": false,
      "t": 148416.5739999993,
      "d": 633.3975999999966,
      "v": 65
    },
    {
      "midi": 71,
      "hit": false,
      "t": 148416.5739999993,
      "d": 642.9945333333162,
      "v": 76
    },
    {
      "midi": 79,
      "hit": false,
      "t": 148848.4359999993,
      "d": 292.7064666666556,
      "v": 79
    },
    {
      "midi": 69,
      "hit": false,
      "t": 149136.34399999928,
      "d": 143.9539999999979,
      "v": 75
    },
    {
      "midi": 38,
      "hit": false,
      "t": 149136.34399999928,
      "d": 470.24973333333037,
      "v": 63
    },
    {
      "midi": 74,
      "hit": false,
      "t": 149280.29799999928,
      "d": 129.55859999998938,
      "v": 75
    },
    {
      "midi": 69,
      "hit": false,
      "t": 149424.25199999928,
      "d": 139.1555333333381,
      "v": 81
    },
    {
      "midi": 71,
      "hit": false,
      "t": 149568.20599999928,
      "d": 542.2267333333439,
      "v": 74
    },
    {
      "midi": 74,
      "hit": false,
      "t": 149568.20599999928,
      "d": 551.8236666666635,
      "v": 78
    },
    {
      "midi": 69,
      "hit": false,
      "t": 150287.97599999927,
      "d": 215.9310000000114,
      "v": 73
    },
    {
      "midi": 60,
      "hit": false,
      "t": 150287.97599999927,
      "d": 220.72946666667121,
      "v": 78
    },
    {
      "midi": 69,
      "hit": false,
      "t": 150575.88399999926,
      "d": 215.9310000000114,
      "v": 73
    },
    {
      "midi": 60,
      "hit": false,
      "t": 150575.88399999926,
      "d": 220.72946666667121,
      "v": 78
    },
    {
      "midi": 55,
      "hit": false,
      "t": 150863.79199999926,
      "d": 1477.9277333333448,
      "v": 71
    },
    {
      "midi": 62,
      "hit": false,
      "t": 150863.79199999926,
      "d": 1492.3231333333533,
      "v": 71
    },
    {
      "midi": 59,
      "hit": false,
      "t": 150863.79199999926,
      "d": 1497.1216000000131,
      "v": 71
    },
    {
      "midi": 55,
      "hit": false,
      "t": 153167.05599999928,
      "d": 652.5914666666649,
      "v": 56
    },
    {
      "midi": 60,
      "hit": false,
      "t": 153167.05599999928,
      "d": 662.1883999999845,
      "v": 56
    },
    {
      "midi": 64,
      "hit": false,
      "t": 153167.05599999928,
      "d": 690.9791999999725,
      "v": 56
    },
    {
      "midi": 55,
      "hit": false,
      "t": 153886.82599999924,
      "d": 355.0865333333204,
      "v": 56
    },
    {
      "midi": 60,
      "hit": false,
      "t": 153886.82599999924,
      "d": 355.0865333333204,
      "v": 56
    },
    {
      "midi": 64,
      "hit": false,
      "t": 153886.82599999924,
      "d": 355.0865333333204,
      "v": 56
    },
    {
      "midi": 55,
      "hit": false,
      "t": 154318.68799999924,
      "d": 1007.6780000000144,
      "v": 56
    },
    {
      "midi": 60,
      "hit": false,
      "t": 154318.68799999924,
      "d": 1012.4764666666742,
      "v": 56
    },
    {
      "midi": 64,
      "hit": false,
      "t": 154318.68799999924,
      "d": 1041.2672666666622,
      "v": 56
    },
    {
      "midi": 55,
      "hit": false,
      "t": 156765.90599999923,
      "d": 100.76780000000144,
      "v": 56
    },
    {
      "midi": 62,
      "hit": false,
      "t": 156765.90599999923,
      "d": 100.76780000000144,
      "v": 56
    },
    {
      "midi": 59,
      "hit": false,
      "t": 156765.90599999923,
      "d": 110.36473333332106,
      "v": 56
    },
    {
      "midi": 62,
      "hit": false,
      "t": 156909.85999999923,
      "d": 191.93866666665417,
      "v": 56
    },
    {
      "midi": 55,
      "hit": false,
      "t": 156909.85999999923,
      "d": 196.73713333331398,
      "v": 56
    },
    {
      "midi": 59,
      "hit": false,
      "t": 156909.85999999923,
      "d": 196.73713333331398,
      "v": 56
    },
    {
      "midi": 59,
      "hit": false,
      "t": 157197.7679999992,
      "d": 503.8390000000072,
      "v": 59
    },
    {
      "midi": 55,
      "hit": false,
      "t": 157197.7679999992,
      "d": 513.4359333333268,
      "v": 59
    },
    {
      "midi": 62,
      "hit": false,
      "t": 157197.7679999992,
      "d": 523.0328666666464,
      "v": 59
    },
    {
      "midi": 55,
      "hit": false,
      "t": 157773.5839999992,
      "d": 537.428266666655,
      "v": 55
    },
    {
      "midi": 59,
      "hit": false,
      "t": 157773.5839999992,
      "d": 537.428266666655,
      "v": 51
    },
    {
      "midi": 60,
      "hit": false,
      "t": 158349.39999999918,
      "d": 561.4206000000122,
      "v": 51
    },
    {
      "midi": 55,
      "hit": false,
      "t": 158349.39999999918,
      "d": 566.219066666672,
      "v": 52
    },
    {
      "midi": 62,
      "hit": false,
      "t": 158925.21599999917,
      "d": 1022.0733999999939,
      "v": 52
    },
    {
      "midi": 54,
      "hit": false,
      "t": 158925.21599999917,
      "d": 1026.8718666666537,
      "v": 55
    },
    {
      "midi": 57,
      "hit": false,
      "t": 158925.21599999917,
      "d": 1026.8718666666537,
      "v": 55
    },
    {
      "midi": 55,
      "hit": false,
      "t": 160076.84799999915,
      "d": 1477.9277333333448,
      "v": 56
    },
    {
      "midi": 62,
      "hit": false,
      "t": 160076.84799999915,
      "d": 1492.3231333333533,
      "v": 56
    },
    {
      "midi": 59,
      "hit": false,
      "t": 160076.84799999915,
      "d": 1497.1216000000131,
      "v": 56
    },
    {
      "midi": 55,
      "hit": false,
      "t": 162380.11199999918,
      "d": 652.5914666666649,
      "v": 56
    },
    {
      "midi": 60,
      "hit": false,
      "t": 162380.11199999918,
      "d": 662.1883999999845,
      "v": 56
    },
    {
      "midi": 64,
      "hit": false,
      "t": 162380.11199999918,
      "d": 690.9791999999725,
      "v": 56
    },
    {
      "midi": 55,
      "hit": false,
      "t": 163099.88199999914,
      "d": 355.0865333333204,
      "v": 56
    },
    {
      "midi": 60,
      "hit": false,
      "t": 163099.88199999914,
      "d": 355.0865333333204,
      "v": 56
    },
    {
      "midi": 64,
      "hit": false,
      "t": 163099.88199999914,
      "d": 355.0865333333204,
      "v": 56
    },
    {
      "midi": 55,
      "hit": false,
      "t": 163531.74399999913,
      "d": 1007.6780000000144,
      "v": 56
    },
    {
      "midi": 60,
      "hit": false,
      "t": 163531.74399999913,
      "d": 1012.4764666666742,
      "v": 56
    },
    {
      "midi": 64,
      "hit": false,
      "t": 163531.74399999913,
      "d": 1041.2672666666622,
      "v": 56
    },
    {
      "midi": 55,
      "hit": false,
      "t": 164683.37599999912,
      "d": 1007.6780000000144,
      "v": 53
    },
    {
      "midi": 59,
      "hit": false,
      "t": 164683.37599999912,
      "d": 1012.4764666666742,
      "v": 53
    },
    {
      "midi": 64,
      "hit": false,
      "t": 164683.37599999912,
      "d": 1041.2672666666622,
      "v": 53
    },
    {
      "midi": 54,
      "hit": false,
      "t": 165835.0079999991,
      "d": 1007.6780000000144,
      "v": 53
    },
    {
      "midi": 57,
      "hit": false,
      "t": 165835.0079999991,
      "d": 1012.4764666666742,
      "v": 53
    },
    {
      "midi": 62,
      "hit": false,
      "t": 165835.0079999991,
      "d": 1041.2672666666622,
      "v": 53
    },
    {
      "midi": 57,
      "hit": false,
      "t": 166986.63999999908,
      "d": 1007.6780000000144,
      "v": 53
    },
    {
      "midi": 60,
      "hit": false,
      "t": 166986.63999999908,
      "d": 1012.4764666666742,
      "v": 53
    },
    {
      "midi": 64,
      "hit": false,
      "t": 166986.63999999908,
      "d": 1041.2672666666622,
      "v": 53
    },
    {
      "midi": 55,
      "hit": false,
      "t": 168138.27199999907,
      "d": 1007.6780000000144,
      "v": 53
    },
    {
      "midi": 59,
      "hit": false,
      "t": 168138.27199999907,
      "d": 1012.4764666666742,
      "v": 53
    },
    {
      "midi": 64,
      "hit": false,
      "t": 168138.27199999907,
      "d": 1041.2672666666622,
      "v": 53
    },
    {
      "midi": 54,
      "hit": false,
      "t": 169289.90399999905,
      "d": 1007.6780000000144,
      "v": 53
    },
    {
      "midi": 57,
      "hit": false,
      "t": 169289.90399999905,
      "d": 1012.4764666666742,
      "v": 53
    },
    {
      "midi": 62,
      "hit": false,
      "t": 169289.90399999905,
      "d": 1041.2672666666622,
      "v": 53
    },
    {
      "midi": 43,
      "hit": false,
      "t": 170441.53599999903,
      "d": 244.72179999999935,
      "v": 62
    },
    {
      "midi": 62,
      "hit": false,
      "t": 170441.53599999903,
      "d": 316.69879999998375,
      "v": 69
    },
    {
      "midi": 43,
      "hit": false,
      "t": 170729.44399999903,
      "d": 57.58159999997588,
      "v": 67
    },
    {
      "midi": 43,
      "hit": false,
      "t": 170873.397999999,
      "d": 220.72946666667121,
      "v": 78
    },
    {
      "midi": 62,
      "hit": false,
      "t": 170873.397999999,
      "d": 287.9079999999958,
      "v": 78
    },
    {
      "midi": 43,
      "hit": false,
      "t": 171161.305999999,
      "d": 47.98466666665627,
      "v": 63
    },
    {
      "midi": 43,
      "hit": false,
      "t": 171305.259999999,
      "d": 105.56626666666125,
      "v": 67
    },
    {
      "midi": 62,
      "hit": false,
      "t": 171305.259999999,
      "d": 254.31873333331896,
      "v": 63
    },
    {
      "midi": 43,
      "hit": false,
      "t": 171449.213999999,
      "d": 105.56626666666125,
      "v": 75
    },
    {
      "midi": 43,
      "hit": false,
      "t": 171593.167999999,
      "d": 211.1325333333225,
      "v": 69
    },
    {
      "midi": 62,
      "hit": false,
      "t": 171593.167999999,
      "d": 254.31873333331896,
      "v": 69
    },
    {
      "midi": 43,
      "hit": false,
      "t": 171881.07599999898,
      "d": 43.18619999999646,
      "v": 73
    },
    {
      "midi": 43,
      "hit": false,
      "t": 172025.02999999898,
      "d": 249.52026666665915,
      "v": 67
    },
    {
      "midi": 62,
      "hit": false,
      "t": 172025.02999999898,
      "d": 350.2880666666606,
      "v": 65
    },
    {
      "midi": 43,
      "hit": false,
      "t": 172312.93799999898,
      "d": 52.78313333334518,
      "v": 60
    },
    {
      "midi": 43,
      "hit": false,
      "t": 172456.89199999897,
      "d": 52.78313333334518,
      "v": 63
    },
    {
      "midi": 62,
      "hit": false,
      "t": 172456.89199999897,
      "d": 187.14019999999437,
      "v": 50
    },
    {
      "midi": 43,
      "hit": false,
      "t": 172600.84599999897,
      "d": 52.78313333331607,
      "v": 63
    },
    {
      "midi": 43,
      "hit": false,
      "t": 172744.79999999894,
      "d": 244.72179999999935,
      "v": 73
    },
    {
      "midi": 62,
      "hit": false,
      "t": 172744.79999999894,
      "d": 311.90033333332394,
      "v": 73
    },
    {
      "midi": 43,
      "hit": false,
      "t": 173032.70799999894,
      "d": 57.58160000000498,
      "v": 63
    },
    {
      "midi": 62,
      "hit": false,
      "t": 173176.66199999893,
      "d": 268.7141333333275,
      "v": 65
    },
    {
      "midi": 43,
      "hit": false,
      "t": 173176.66199999893,
      "d": 359.8849999999802,
      "v": 68
    },
    {
      "midi": 43,
      "hit": false,
      "t": 173608.52399999893,
      "d": 47.98466666665627,
      "v": 60
    },
    {
      "midi": 62,
      "hit": false,
      "t": 173608.52399999893,
      "d": 163.14786666666623,
      "v": 61
    },
    {
      "midi": 43,
      "hit": false,
      "t": 173752.47799999893,
      "d": 52.78313333334518,
      "v": 62
    },
    {
      "midi": 43,
      "hit": false,
      "t": 173896.43199999892,
      "d": 201.5356000000029,
      "v": 72
    },
    {
      "midi": 62,
      "hit": false,
      "t": 173896.43199999892,
      "d": 292.7064666666556,
      "v": 72
    },
    {
      "midi": 43,
      "hit": false,
      "t": 174184.33999999892,
      "d": 43.18619999999646,
      "v": 53
    },
    {
      "midi": 43,
      "hit": false,
      "t": 174328.29399999892,
      "d": 244.72179999999935,
      "v": 78
    },
    {
      "midi": 62,
      "hit": false,
      "t": 174328.29399999892,
      "d": 273.5125999999873,
      "v": 78
    },
    {
      "midi": 43,
      "hit": false,
      "t": 174616.2019999989,
      "d": 239.92333333333954,
      "v": 62
    },
    {
      "midi": 62,
      "hit": false,
      "t": 174760.1559999989,
      "d": 187.14019999999437,
      "v": 73
    },
    {
      "midi": 43,
      "hit": false,
      "t": 174904.1099999989,
      "d": 100.76780000000144,
      "v": 63
    },
    {
      "midi": 55,
      "hit": false,
      "t": 175048.0639999989,
      "d": 1477.9277333333448,
      "v": 87
    },
    {
      "midi": 62,
      "hit": false,
      "t": 175048.0639999989,
      "d": 1492.3231333333533,
      "v": 87
    },
    {
      "midi": 59,
      "hit": false,
      "t": 175048.0639999989,
      "d": 1497.1216000000131,
      "v": 87
    },
    {
      "midi": 55,
      "hit": false,
      "t": 177351.32799999893,
      "d": 652.5914666666649,
      "v": 87
    },
    {
      "midi": 60,
      "hit": false,
      "t": 177351.32799999893,
      "d": 662.1883999999845,
      "v": 87
    },
    {
      "midi": 64,
      "hit": false,
      "t": 177351.32799999893,
      "d": 690.9791999999725,
      "v": 87
    },
    {
      "midi": 55,
      "hit": false,
      "t": 178071.0979999989,
      "d": 355.0865333333204,
      "v": 87
    },
    {
      "midi": 60,
      "hit": false,
      "t": 178071.0979999989,
      "d": 355.0865333333204,
      "v": 87
    },
    {
      "midi": 64,
      "hit": false,
      "t": 178071.0979999989,
      "d": 355.0865333333204,
      "v": 87
    },
    {
      "midi": 55,
      "hit": false,
      "t": 178502.9599999989,
      "d": 1007.6780000000144,
      "v": 87
    },
    {
      "midi": 60,
      "hit": false,
      "t": 178502.9599999989,
      "d": 1012.4764666666742,
      "v": 87
    },
    {
      "midi": 64,
      "hit": false,
      "t": 178502.9599999989,
      "d": 1041.2672666666622,
      "v": 87
    },
    {
      "midi": 55,
      "hit": false,
      "t": 179654.59199999887,
      "d": 1007.6780000000144,
      "v": 87
    },
    {
      "midi": 60,
      "hit": false,
      "t": 179654.59199999887,
      "d": 1012.4764666666742,
      "v": 87
    },
    {
      "midi": 64,
      "hit": false,
      "t": 179654.59199999887,
      "d": 1041.2672666666622,
      "v": 87
    },
    {
      "midi": 55,
      "hit": false,
      "t": 180950.17799999885,
      "d": 100.76780000000144,
      "v": 86
    },
    {
      "midi": 62,
      "hit": false,
      "t": 180950.17799999885,
      "d": 100.76780000000144,
      "v": 86
    },
    {
      "midi": 59,
      "hit": false,
      "t": 180950.17799999885,
      "d": 110.36473333332106,
      "v": 86
    },
    {
      "midi": 55,
      "hit": false,
      "t": 181094.13199999885,
      "d": 105.56626666666125,
      "v": 86
    },
    {
      "midi": 59,
      "hit": false,
      "t": 181094.13199999885,
      "d": 105.56626666666125,
      "v": 86
    },
    {
      "midi": 62,
      "hit": false,
      "t": 181094.13199999885,
      "d": 105.56626666666125,
      "v": 86
    },
    {
      "midi": 55,
      "hit": false,
      "t": 181238.08599999885,
      "d": 105.56626666666125,
      "v": 86
    },
    {
      "midi": 59,
      "hit": false,
      "t": 181238.08599999885,
      "d": 105.56626666666125,
      "v": 86
    },
    {
      "midi": 62,
      "hit": false,
      "t": 181238.08599999885,
      "d": 105.56626666666125,
      "v": 86
    },
    {
      "midi": 55,
      "hit": false,
      "t": 181382.03999999884,
      "d": 100.76780000000144,
      "v": 90
    },
    {
      "midi": 59,
      "hit": false,
      "t": 181382.03999999884,
      "d": 105.56626666666125,
      "v": 90
    },
    {
      "midi": 62,
      "hit": false,
      "t": 181382.03999999884,
      "d": 115.16319999998086,
      "v": 90
    },
    {
      "midi": 55,
      "hit": false,
      "t": 181957.85599999884,
      "d": 537.428266666655,
      "v": 83
    },
    {
      "midi": 59,
      "hit": false,
      "t": 181957.85599999884,
      "d": 537.428266666655,
      "v": 77
    },
    {
      "midi": 60,
      "hit": false,
      "t": 182533.67199999883,
      "d": 561.4206000000122,
      "v": 77
    },
    {
      "midi": 55,
      "hit": false,
      "t": 182533.67199999883,
      "d": 566.219066666672,
      "v": 79
    },
    {
      "midi": 62,
      "hit": false,
      "t": 183109.48799999882,
      "d": 1022.0733999999939,
      "v": 79
    },
    {
      "midi": 54,
      "hit": false,
      "t": 183109.48799999882,
      "d": 1026.8718666666537,
      "v": 83
    },
    {
      "midi": 57,
      "hit": false,
      "t": 183109.48799999882,
      "d": 1026.8718666666537,
      "v": 83
    },
    {
      "midi": 55,
      "hit": false,
      "t": 184261.1199999988,
      "d": 1477.9277333333448,
      "v": 87
    },
    {
      "midi": 62,
      "hit": false,
      "t": 184261.1199999988,
      "d": 1492.3231333333533,
      "v": 87
    },
    {
      "midi": 59,
      "hit": false,
      "t": 184261.1199999988,
      "d": 1497.1216000000131,
      "v": 87
    },
    {
      "midi": 55,
      "hit": false,
      "t": 186564.38399999883,
      "d": 652.5914666666649,
      "v": 87
    },
    {
      "midi": 60,
      "hit": false,
      "t": 186564.38399999883,
      "d": 662.1883999999845,
      "v": 87
    },
    {
      "midi": 64,
      "hit": false,
      "t": 186564.38399999883,
      "d": 690.9791999999725,
      "v": 87
    },
    {
      "midi": 55,
      "hit": false,
      "t": 187284.1539999988,
      "d": 355.0865333333204,
      "v": 87
    },
    {
      "midi": 60,
      "hit": false,
      "t": 187284.1539999988,
      "d": 355.0865333333204,
      "v": 87
    },
    {
      "midi": 64,
      "hit": false,
      "t": 187284.1539999988,
      "d": 355.0865333333204,
      "v": 87
    },
    {
      "midi": 55,
      "hit": false,
      "t": 187716.01599999878,
      "d": 1007.6780000000144,
      "v": 87
    },
    {
      "midi": 60,
      "hit": false,
      "t": 187716.01599999878,
      "d": 1012.4764666666742,
      "v": 87
    },
    {
      "midi": 64,
      "hit": false,
      "t": 187716.01599999878,
      "d": 1041.2672666666622,
      "v": 87
    },
    {
      "midi": 55,
      "hit": false,
      "t": 188867.64799999876,
      "d": 1007.6780000000144,
      "v": 80
    },
    {
      "midi": 59,
      "hit": false,
      "t": 188867.64799999876,
      "d": 1012.4764666666742,
      "v": 80
    },
    {
      "midi": 64,
      "hit": false,
      "t": 188867.64799999876,
      "d": 1041.2672666666622,
      "v": 80
    },
    {
      "midi": 54,
      "hit": false,
      "t": 190019.27999999875,
      "d": 1007.6780000000144,
      "v": 80
    },
    {
      "midi": 57,
      "hit": false,
      "t": 190019.27999999875,
      "d": 1012.4764666666742,
      "v": 80
    },
    {
      "midi": 62,
      "hit": false,
      "t": 190019.27999999875,
      "d": 1041.2672666666622,
      "v": 80
    },
    {
      "midi": 57,
      "hit": false,
      "t": 191170.91199999873,
      "d": 1007.6780000000144,
      "v": 80
    },
    {
      "midi": 60,
      "hit": false,
      "t": 191170.91199999873,
      "d": 1012.4764666666742,
      "v": 80
    },
    {
      "midi": 64,
      "hit": false,
      "t": 191170.91199999873,
      "d": 1041.2672666666622,
      "v": 80
    },
    {
      "midi": 55,
      "hit": false,
      "t": 192322.5439999987,
      "d": 1007.6780000000144,
      "v": 80
    },
    {
      "midi": 59,
      "hit": false,
      "t": 192322.5439999987,
      "d": 1012.4764666666742,
      "v": 80
    },
    {
      "midi": 64,
      "hit": false,
      "t": 192322.5439999987,
      "d": 1041.2672666666622,
      "v": 80
    },
    {
      "midi": 54,
      "hit": false,
      "t": 193474.1759999987,
      "d": 1007.6780000000144,
      "v": 80
    },
    {
      "midi": 57,
      "hit": false,
      "t": 193474.1759999987,
      "d": 1012.4764666666742,
      "v": 80
    },
    {
      "midi": 62,
      "hit": false,
      "t": 193474.1759999987,
      "d": 1041.2672666666622,
      "v": 80
    },
    {
      "midi": 74,
      "hit": false,
      "t": 194769.76199999868,
      "d": 129.55859999998938,
      "v": 80
    },
    {
      "midi": 76,
      "hit": false,
      "t": 194913.71599999868,
      "d": 163.14786666666623,
      "v": 73
    },
    {
      "midi": 79,
      "hit": false,
      "t": 194913.71599999868,
      "d": 172.74479999998584,
      "v": 73
    },
    {
      "midi": 74,
      "hit": false,
      "t": 195057.66999999867,
      "d": 143.9539999999979,
      "v": 78
    },
    {
      "midi": 72,
      "hit": false,
      "t": 195201.62399999867,
      "d": 134.3570666666783,
      "v": 74
    },
    {
      "midi": 74,
      "hit": false,
      "t": 195345.57799999867,
      "d": 134.3570666666783,
      "v": 79
    },
    {
      "midi": 72,
      "hit": false,
      "t": 195489.53199999867,
      "d": 119.96166666666977,
      "v": 73
    },
    {
      "midi": 71,
      "hit": false,
      "t": 195633.48599999867,
      "d": 244.72179999999935,
      "v": 77
    },
    {
      "midi": 74,
      "hit": false,
      "t": 195921.39399999866,
      "d": 273.5125999999873,
      "v": 78
    },
    {
      "midi": 71,
      "hit": false,
      "t": 195921.39399999866,
      "d": 292.7064666666556,
      "v": 78
    },
    {
      "midi": 69,
      "hit": false,
      "t": 196353.25599999866,
      "d": 148.7524666666577,
      "v": 76
    },
    {
      "midi": 74,
      "hit": false,
      "t": 196497.20999999865,
      "d": 129.55859999998938,
      "v": 76
    },
    {
      "midi": 69,
      "hit": false,
      "t": 196641.16399999865,
      "d": 129.55859999998938,
      "v": 69
    },
    {
      "midi": 67,
      "hit": false,
      "t": 196785.11799999865,
      "d": 633.3975999999966,
      "v": 65
    },
    {
      "midi": 71,
      "hit": false,
      "t": 196785.11799999865,
      "d": 642.9945333333162,
      "v": 76
    },
    {
      "midi": 69,
      "hit": false,
      "t": 197504.88799999864,
      "d": 143.9539999999979,
      "v": 75
    },
    {
      "midi": 74,
      "hit": false,
      "t": 197648.84199999864,
      "d": 129.55859999998938,
      "v": 75
    },
    {
      "midi": 69,
      "hit": false,
      "t": 197792.79599999863,
      "d": 139.1555333333381,
      "v": 81
    },
    {
      "midi": 71,
      "hit": false,
      "t": 197936.74999999863,
      "d": 542.2267333333439,
      "v": 74
    },
    {
      "midi": 74,
      "hit": false,
      "t": 197936.74999999863,
      "d": 551.8236666666635,
      "v": 78
    },
    {
      "midi": 69,
      "hit": false,
      "t": 198512.56599999862,
      "d": 215.9310000000114,
      "v": 73
    },
    {
      "midi": 60,
      "hit": false,
      "t": 198512.56599999862,
      "d": 220.72946666667121,
      "v": 78
    },
    {
      "midi": 59,
      "hit": false,
      "t": 198800.47399999862,
      "d": 355.0865333333204,
      "v": 81
    },
    {
      "midi": 67,
      "hit": false,
      "t": 198800.47399999862,
      "d": 374.28039999998873,
      "v": 71
    },
    {
      "midi": 74,
      "hit": false,
      "t": 199376.2899999986,
      "d": 129.55859999998938,
      "v": 80
    },
    {
      "midi": 76,
      "hit": false,
      "t": 199520.2439999986,
      "d": 163.14786666666623,
      "v": 73
    },
    {
      "midi": 79,
      "hit": false,
      "t": 199520.2439999986,
      "d": 172.74479999998584,
      "v": 73
    },
    {
      "midi": 74,
      "hit": false,
      "t": 199664.1979999986,
      "d": 143.9539999999979,
      "v": 78
    },
    {
      "midi": 72,
      "hit": false,
      "t": 199808.1519999986,
      "d": 134.3570666666783,
      "v": 74
    },
    {
      "midi": 74,
      "hit": false,
      "t": 199952.1059999986,
      "d": 134.3570666666783,
      "v": 79
    },
    {
      "midi": 72,
      "hit": false,
      "t": 200096.0599999986,
      "d": 119.96166666666977,
      "v": 73
    },
    {
      "midi": 71,
      "hit": false,
      "t": 200240.0139999986,
      "d": 244.72179999999935,
      "v": 77
    },
    {
      "midi": 74,
      "hit": false,
      "t": 200527.9219999986,
      "d": 273.5125999999873,
      "v": 78
    },
    {
      "midi": 71,
      "hit": false,
      "t": 200527.9219999986,
      "d": 292.7064666666556,
      "v": 78
    },
    {
      "midi": 79,
      "hit": false,
      "t": 200671.8759999986,
      "d": 292.7064666666556,
      "v": 80
    },
    {
      "midi": 69,
      "hit": false,
      "t": 200959.7839999986,
      "d": 148.7524666666577,
      "v": 76
    },
    {
      "midi": 38,
      "hit": false,
      "t": 200959.7839999986,
      "d": 470.24973333333037,
      "v": 63
    },
    {
      "midi": 74,
      "hit": false,
      "t": 201103.7379999986,
      "d": 129.55859999998938,
      "v": 76
    },
    {
      "midi": 69,
      "hit": false,
      "t": 201247.69199999858,
      "d": 129.55859999998938,
      "v": 69
    },
    {
      "midi": 67,
      "hit": false,
      "t": 201391.64599999858,
      "d": 633.3975999999966,
      "v": 65
    },
    {
      "midi": 71,
      "hit": false,
      "t": 201391.64599999858,
      "d": 642.9945333333162,
      "v": 76
    },
    {
      "midi": 79,
      "hit": false,
      "t": 201823.50799999858,
      "d": 292.7064666666556,
      "v": 79
    },
    {
      "midi": 69,
      "hit": false,
      "t": 202111.41599999857,
      "d": 143.9539999999979,
      "v": 75
    },
    {
      "midi": 38,
      "hit": false,
      "t": 202111.41599999857,
      "d": 470.24973333333037,
      "v": 63
    },
    {
      "midi": 74,
      "hit": false,
      "t": 202255.36999999857,
      "d": 129.55859999998938,
      "v": 75
    },
    {
      "midi": 69,
      "hit": false,
      "t": 202399.32399999857,
      "d": 139.1555333333381,
      "v": 81
    },
    {
      "midi": 71,
      "hit": false,
      "t": 202543.27799999857,
      "d": 542.2267333333439,
      "v": 74
    },
    {
      "midi": 74,
      "hit": false,
      "t": 202543.27799999857,
      "d": 551.8236666666635,
      "v": 78
    },
    {
      "midi": 69,
      "hit": false,
      "t": 203119.09399999856,
      "d": 215.9310000000114,
      "v": 73
    },
    {
      "midi": 60,
      "hit": false,
      "t": 203119.09399999856,
      "d": 220.72946666667121,
      "v": 78
    },
    {
      "midi": 67,
      "hit": false,
      "t": 203407.00199999855,
      "d": 369.4819333333289,
      "v": 71
    },
    {
      "midi": 59,
      "hit": false,
      "t": 203407.00199999855,
      "d": 379.07886666664854,
      "v": 81
    },
    {
      "midi": 64,
      "hit": false,
      "t": 203982.81799999854,
      "d": 393.47426666665706,
      "v": 75
    },
    {
      "midi": 67,
      "hit": false,
      "t": 203982.81799999854,
      "d": 398.27273333331686,
      "v": 75
    },
    {
      "midi": 60,
      "hit": false,
      "t": 203982.81799999854,
      "d": 403.07119999997667,
      "v": 75
    },
    {
      "midi": 66,
      "hit": false,
      "t": 204414.6799999985,
      "d": 393.47426666665706,
      "v": 77
    },
    {
      "midi": 62,
      "hit": false,
      "t": 204414.6799999985,
      "d": 417.4665999999852,
      "v": 77
    },
    {
      "midi": 69,
      "hit": false,
      "t": 204414.6799999985,
      "d": 455.85433333332185,
      "v": 79
    },
    {
      "midi": 67,
      "hit": false,
      "t": 204846.5419999985,
      "d": 119.96166666666977,
      "v": 79
    },
    {
      "midi": 59,
      "hit": false,
      "t": 204846.5419999985,
      "d": 129.55859999998938,
      "v": 79
    },
    {
      "midi": 62,
      "hit": false,
      "t": 204846.5419999985,
      "d": 134.3570666666492,
      "v": 79
    },
    {
      "midi": 55,
      "hit": false,
      "t": 205278.4039999985,
      "d": 2044.1467999999877,
      "v": 75
    },
    {
      "midi": 59,
      "hit": false,
      "t": 205278.4039999985,
      "d": 2072.9375999999756,
      "v": 75
    },
    {
      "midi": 62,
      "hit": false,
      "t": 205278.4039999985,
      "d": 2092.131466666644,
      "v": 75
    },
    {
      "midi": 64,
      "hit": false,
      "t": 207437.71399999846,
      "d": 393.47426666665706,
      "v": 75
    },
    {
      "midi": 67,
      "hit": false,
      "t": 207437.71399999846,
      "d": 398.27273333331686,
      "v": 75
    },
    {
      "midi": 60,
      "hit": false,
      "t": 207437.71399999846,
      "d": 403.07119999997667,
      "v": 75
    },
    {
      "midi": 66,
      "hit": false,
      "t": 207869.57599999843,
      "d": 393.47426666665706,
      "v": 77
    },
    {
      "midi": 62,
      "hit": false,
      "t": 207869.57599999843,
      "d": 417.4665999999852,
      "v": 77
    },
    {
      "midi": 69,
      "hit": false,
      "t": 207869.57599999843,
      "d": 455.85433333332185,
      "v": 79
    },
    {
      "midi": 67,
      "hit": false,
      "t": 208301.43799999842,
      "d": 119.96166666666977,
      "v": 79
    },
    {
      "midi": 59,
      "hit": false,
      "t": 208301.43799999842,
      "d": 129.55859999998938,
      "v": 79
    },
    {
      "midi": 62,
      "hit": false,
      "t": 208301.43799999842,
      "d": 134.3570666666492,
      "v": 79
    },
    {
      "midi": 55,
      "hit": false,
      "t": 208733.29999999842,
      "d": 911.7086666666728,
      "v": 75
    },
    {
      "midi": 59,
      "hit": false,
      "t": 208733.29999999842,
      "d": 911.7086666666728,
      "v": 75
    },
    {
      "midi": 62,
      "hit": false,
      "t": 208733.29999999842,
      "d": 911.7086666666728,
      "v": 75
    },
    {
      "midi": 64,
      "hit": false,
      "t": 209740.97799999843,
      "d": 393.47426666665706,
      "v": 75
    },
    {
      "midi": 67,
      "hit": false,
      "t": 209740.97799999843,
      "d": 398.27273333331686,
      "v": 75
    },
    {
      "midi": 60,
      "hit": false,
      "t": 209740.97799999843,
      "d": 403.07119999997667,
      "v": 75
    },
    {
      "midi": 66,
      "hit": false,
      "t": 210172.8399999984,
      "d": 393.47426666665706,
      "v": 77
    },
    {
      "midi": 62,
      "hit": false,
      "t": 210172.8399999984,
      "d": 417.4665999999852,
      "v": 77
    },
    {
      "midi": 69,
      "hit": false,
      "t": 210172.8399999984,
      "d": 455.85433333332185,
      "v": 79
    },
    {
      "midi": 67,
      "hit": false,
      "t": 210604.7019999984,
      "d": 119.96166666666977,
      "v": 79
    },
    {
      "midi": 59,
      "hit": false,
      "t": 210604.7019999984,
      "d": 129.55859999998938,
      "v": 79
    },
    {
      "midi": 62,
      "hit": false,
      "t": 210604.7019999984,
      "d": 134.3570666666492,
      "v": 79
    },
    {
      "midi": 62,
      "hit": false,
      "t": 211036.56399999838,
      "d": 4323.418466666655,
      "v": 75
    },
    {
      "midi": 55,
      "hit": false,
      "t": 211036.56399999838,
      "d": 4328.216933333315,
      "v": 75
    },
    {
      "midi": 59,
      "hit": false,
      "t": 211036.56399999838,
      "d": 4328.216933333315,
      "v": 75
    }
  ]
}