{
  "jsonPath": "Unknown/Unknown/B3/stayin-alive.json",
  "path": "Unknown\\Unknown\\B3\\Stayin Alive.mid",
  "name": "Stayin Alive",
  "difficulty": "Advanced",
  "bpm": 104.00001386666851,
  "notes": [
    {
      "midi": 65,
      "hit": false,
      "t": 282.45188541666664,
      "d": 78.12498958333333,
      "v": 85
    },
    {
      "midi": 68,
      "hit": false,
      "t": 282.45188541666664,
      "d": 78.12498958333333,
      "v": 83
    },
    {
      "midi": 72,
      "hit": false,
      "t": 282.45188541666664,
      "d": 90.14421875,
      "v": 100
    },
    {
      "midi": 67,
      "hit": false,
      "t": 576.923,
      "d": 72.11537499999997,
      "v": 105
    },
    {
      "midi": 62,
      "hit": false,
      "t": 576.923,
      "d": 78.12498958333333,
      "v": 96
    },
    {
      "midi": 70,
      "hit": false,
      "t": 576.923,
      "d": 84.13460416666669,
      "v": 96
    },
    {
      "midi": 60,
      "hit": false,
      "t": 871.3941145833334,
      "d": 1340.1440520833335,
      "v": 80
    },
    {
      "midi": 65,
      "hit": false,
      "t": 871.3941145833334,
      "d": 1352.1632812500002,
      "v": 93
    },
    {
      "midi": 68,
      "hit": false,
      "t": 871.3941145833334,
      "d": 1352.1632812500002,
      "v": 89
    },
    {
      "midi": 65,
      "hit": false,
      "t": 2602.1631145833335,
      "d": 90.14421875000016,
      "v": 96
    },
    {
      "midi": 68,
      "hit": false,
      "t": 2602.1631145833335,
      "d": 90.14421875000016,
      "v": 90
    },
    {
      "midi": 60,
      "hit": false,
      "t": 2602.1631145833335,
      "d": 96.1538333333333,
      "v": 85
    },
    {
      "midi": 67,
      "hit": false,
      "t": 2890.6246145833334,
      "d": 78.12498958333344,
      "v": 86
    },
    {
      "midi": 58,
      "hit": false,
      "t": 2890.6246145833334,
      "d": 84.13460416666658,
      "v": 80
    },
    {
      "midi": 63,
      "hit": false,
      "t": 2890.6246145833334,
      "d": 90.14421874999971,
      "v": 58
    },
    {
      "midi": 60,
      "hit": false,
      "t": 3179.0861145833333,
      "d": 1147.8363854166664,
      "v": 89
    },
    {
      "midi": 56,
      "hit": false,
      "t": 3179.0861145833333,
      "d": 1183.8940729166661,
      "v": 71
    },
    {
      "midi": 65,
      "hit": false,
      "t": 3179.0861145833333,
      "d": 1189.9036874999993,
      "v": 92
    },
    {
      "midi": 65,
      "hit": false,
      "t": 4609.374385416666,
      "d": 3281.2495625,
      "v": 85
    },
    {
      "midi": 68,
      "hit": false,
      "t": 4609.374385416666,
      "d": 3299.2784062500004,
      "v": 68
    },
    {
      "midi": 62,
      "hit": false,
      "t": 4609.374385416666,
      "d": 3311.2976354166667,
      "v": 96
    },
    {
      "midi": 68,
      "hit": false,
      "t": 9513.219885416665,
      "d": 84.13460416666749,
      "v": 94
    },
    {
      "midi": 72,
      "hit": false,
      "t": 9513.219885416665,
      "d": 84.13460416666749,
      "v": 100
    },
    {
      "midi": 65,
      "hit": false,
      "t": 9519.2295,
      "d": 72.1153749999994,
      "v": 91
    },
    {
      "midi": 67,
      "hit": false,
      "t": 9801.681385416667,
      "d": 72.1153749999994,
      "v": 96
    },
    {
      "midi": 70,
      "hit": false,
      "t": 9801.681385416667,
      "d": 78.12498958333344,
      "v": 90
    },
    {
      "midi": 62,
      "hit": false,
      "t": 9801.681385416667,
      "d": 84.13460416666749,
      "v": 85
    },
    {
      "midi": 65,
      "hit": false,
      "t": 10102.162114583334,
      "d": 1364.1825104166674,
      "v": 92
    },
    {
      "midi": 68,
      "hit": false,
      "t": 10102.162114583334,
      "d": 1364.1825104166674,
      "v": 82
    },
    {
      "midi": 60,
      "hit": false,
      "t": 10102.162114583334,
      "d": 1418.2690416666665,
      "v": 82
    },
    {
      "midi": 68,
      "hit": false,
      "t": 11820.911885416668,
      "d": 78.12498958333344,
      "v": 87
    },
    {
      "midi": 60,
      "hit": false,
      "t": 11820.911885416668,
      "d": 96.15383333333375,
      "v": 85
    },
    {
      "midi": 65,
      "hit": false,
      "t": 11820.911885416668,
      "d": 96.15383333333375,
      "v": 93
    },
    {
      "midi": 58,
      "hit": false,
      "t": 12109.37338541667,
      "d": 66.10576041666718,
      "v": 72
    },
    {
      "midi": 63,
      "hit": false,
      "t": 12109.37338541667,
      "d": 78.12498958333344,
      "v": 73
    },
    {
      "midi": 67,
      "hit": false,
      "t": 12109.37338541667,
      "d": 96.15383333333375,
      "v": 90
    },
    {
      "midi": 60,
      "hit": false,
      "t": 12397.83488541667,
      "d": 1243.9902187499993,
      "v": 91
    },
    {
      "midi": 65,
      "hit": false,
      "t": 12397.83488541667,
      "d": 1256.0094479166655,
      "v": 85
    },
    {
      "midi": 56,
      "hit": false,
      "t": 12397.83488541667,
      "d": 1280.047906249998,
      "v": 66
    },
    {
      "midi": 65,
      "hit": false,
      "t": 14140.623114583335,
      "d": 90.14421874999971,
      "v": 78
    },
    {
      "midi": 68,
      "hit": false,
      "t": 14140.623114583335,
      "d": 90.14421874999971,
      "v": 76
    },
    {
      "midi": 72,
      "hit": false,
      "t": 14140.623114583335,
      "d": 90.14421874999971,
      "v": 89
    },
    {
      "midi": 62,
      "hit": false,
      "t": 14429.084614583335,
      "d": 72.1153749999994,
      "v": 89
    },
    {
      "midi": 67,
      "hit": false,
      "t": 14429.084614583335,
      "d": 78.12498958333344,
      "v": 97
    },
    {
      "midi": 70,
      "hit": false,
      "t": 14429.084614583335,
      "d": 78.12498958333344,
      "v": 90
    },
    {
      "midi": 68,
      "hit": false,
      "t": 14711.536500000002,
      "d": 1424.2786562500005,
      "v": 75
    },
    {
      "midi": 65,
      "hit": false,
      "t": 14711.536500000002,
      "d": 1448.317114583333,
      "v": 91
    },
    {
      "midi": 60,
      "hit": false,
      "t": 14711.536500000002,
      "d": 1478.3651874999996,
      "v": 78
    },
    {
      "midi": 65,
      "hit": false,
      "t": 16436.295885416668,
      "d": 90.14421874999971,
      "v": 103
    },
    {
      "midi": 68,
      "hit": false,
      "t": 16436.295885416668,
      "d": 102.16344791666779,
      "v": 98
    },
    {
      "midi": 60,
      "hit": false,
      "t": 16436.295885416668,
      "d": 108.17306250000183,
      "v": 88
    },
    {
      "midi": 67,
      "hit": false,
      "t": 16724.75738541667,
      "d": 84.13460416666567,
      "v": 81
    },
    {
      "midi": 58,
      "hit": false,
      "t": 16724.75738541667,
      "d": 90.14421874999971,
      "v": 77
    },
    {
      "midi": 63,
      "hit": false,
      "t": 16724.75738541667,
      "d": 90.14421874999971,
      "v": 92
    },
    {
      "midi": 60,
      "hit": false,
      "t": 17013.21888541667,
      "d": 1195.9133020833324,
      "v": 91
    },
    {
      "midi": 65,
      "hit": false,
      "t": 17013.21888541667,
      "d": 1237.980604166667,
      "v": 83
    },
    {
      "midi": 56,
      "hit": false,
      "t": 17013.21888541667,
      "d": 1256.0094479166655,
      "v": 65
    },
    {
      "midi": 72,
      "hit": false,
      "t": 18743.98788541667,
      "d": 90.14421874999971,
      "v": 97
    },
    {
      "midi": 65,
      "hit": false,
      "t": 18743.98788541667,
      "d": 96.15383333333375,
      "v": 85
    },
    {
      "midi": 68,
      "hit": false,
      "t": 18743.98788541667,
      "d": 96.15383333333375,
      "v": 84
    },
    {
      "midi": 62,
      "hit": false,
      "t": 19032.449385416672,
      "d": 78.12498958333526,
      "v": 90
    },
    {
      "midi": 70,
      "hit": false,
      "t": 19038.459000000006,
      "d": 72.11537500000122,
      "v": 102
    },
    {
      "midi": 67,
      "hit": false,
      "t": 19044.46861458334,
      "d": 66.10576041666718,
      "v": 100
    },
    {
      "midi": 65,
      "hit": false,
      "t": 19332.93011458334,
      "d": 1171.8748437499999,
      "v": 85
    },
    {
      "midi": 68,
      "hit": false,
      "t": 19332.93011458334,
      "d": 1171.8748437499999,
      "v": 83
    },
    {
      "midi": 60,
      "hit": false,
      "t": 19332.93011458334,
      "d": 1207.9325312500005,
      "v": 80
    },
    {
      "midi": 65,
      "hit": false,
      "t": 21051.679885416674,
      "d": 84.13460416666567,
      "v": 93
    },
    {
      "midi": 68,
      "hit": false,
      "t": 21051.679885416674,
      "d": 90.14421874999971,
      "v": 89
    },
    {
      "midi": 60,
      "hit": false,
      "t": 21051.679885416674,
      "d": 96.15383333333375,
      "v": 89
    },
    {
      "midi": 58,
      "hit": false,
      "t": 21340.141385416675,
      "d": 78.12498958333163,
      "v": 75
    },
    {
      "midi": 63,
      "hit": false,
      "t": 21340.141385416675,
      "d": 84.13460416666567,
      "v": 78
    },
    {
      "midi": 67,
      "hit": false,
      "t": 21340.141385416675,
      "d": 84.13460416666567,
      "v": 89
    },
    {
      "midi": 60,
      "hit": false,
      "t": 21640.62211458334,
      "d": 1033.6537083333315,
      "v": 88
    },
    {
      "midi": 56,
      "hit": false,
      "t": 21640.62211458334,
      "d": 1093.7498541666646,
      "v": 64
    },
    {
      "midi": 65,
      "hit": false,
      "t": 21640.62211458334,
      "d": 1105.7690833333327,
      "v": 85
    },
    {
      "midi": 65,
      "hit": false,
      "t": 23064.90077083334,
      "d": 4374.999416666666,
      "v": 85
    },
    {
      "midi": 70,
      "hit": false,
      "t": 23064.90077083334,
      "d": 4374.999416666666,
      "v": 87
    },
    {
      "midi": 62,
      "hit": false,
      "t": 23064.90077083334,
      "d": 4405.047489583332,
      "v": 83
    },
    {
      "midi": 65,
      "hit": false,
      "t": 27698.31361458334,
      "d": 4338.941729166669,
      "v": 80
    },
    {
      "midi": 70,
      "hit": false,
      "t": 27698.31361458334,
      "d": 4356.970572916667,
      "v": 72
    },
    {
      "midi": 62,
      "hit": false,
      "t": 27704.323229166675,
      "d": 4374.999416666666,
      "v": 71
    },
    {
      "midi": 68,
      "hit": false,
      "t": 32584.130270833342,
      "d": 234.37496874999852,
      "v": 79
    },
    {
      "midi": 65,
      "hit": false,
      "t": 32584.130270833342,
      "d": 252.403812499997,
      "v": 85
    },
    {
      "midi": 60,
      "hit": false,
      "t": 32590.139885416676,
      "d": 240.38458333333256,
      "v": 78
    },
    {
      "midi": 56,
      "hit": false,
      "t": 33161.05327083334,
      "d": 1093.7498541666646,
      "v": 66
    },
    {
      "midi": 60,
      "hit": false,
      "t": 33161.05327083334,
      "d": 1183.8940729166643,
      "v": 88
    },
    {
      "midi": 65,
      "hit": false,
      "t": 33173.07250000001,
      "d": 1177.8844583333266,
      "v": 86
    },
    {
      "midi": 68,
      "hit": false,
      "t": 34909.85111458333,
      "d": 72.11537499999395,
      "v": 77
    },
    {
      "midi": 60,
      "hit": false,
      "t": 34909.85111458333,
      "d": 84.13460416666203,
      "v": 78
    },
    {
      "midi": 65,
      "hit": false,
      "t": 34915.86072916666,
      "d": 66.10576041666354,
      "v": 83
    },
    {
      "midi": 58,
      "hit": false,
      "t": 35186.29338541666,
      "d": 84.13460416666203,
      "v": 71
    },
    {
      "midi": 67,
      "hit": false,
      "t": 35186.29338541666,
      "d": 96.15383333333011,
      "v": 85
    },
    {
      "midi": 63,
      "hit": false,
      "t": 35198.31261458333,
      "d": 66.10576041666354,
      "v": 78
    },
    {
      "midi": 60,
      "hit": false,
      "t": 35492.78372916666,
      "d": 1201.9229166666628,
      "v": 86
    },
    {
      "midi": 56,
      "hit": false,
      "t": 35498.79334374999,
      "d": 1213.9421458333309,
      "v": 71
    },
    {
      "midi": 65,
      "hit": false,
      "t": 35498.79334374999,
      "d": 1231.9709895833294,
      "v": 75
    },
    {
      "midi": 72,
      "hit": false,
      "t": 37199.514270833315,
      "d": 288.4614999999976,
      "v": 97
    },
    {
      "midi": 65,
      "hit": false,
      "t": 37199.514270833315,
      "d": 300.4807291666657,
      "v": 82
    },
    {
      "midi": 68,
      "hit": false,
      "t": 37199.514270833315,
      "d": 312.4999583333338,
      "v": 78
    },
    {
      "midi": 60,
      "hit": false,
      "t": 37776.43727083332,
      "d": 1274.038291666664,
      "v": 73
    },
    {
      "midi": 68,
      "hit": false,
      "t": 37776.43727083332,
      "d": 1286.057520833332,
      "v": 77
    },
    {
      "midi": 65,
      "hit": false,
      "t": 37776.43727083332,
      "d": 1292.0671354166625,
      "v": 85
    },
    {
      "midi": 68,
      "hit": false,
      "t": 39513.21588541665,
      "d": 60.09614583333314,
      "v": 82
    },
    {
      "midi": 65,
      "hit": false,
      "t": 39513.21588541665,
      "d": 102.16344791666779,
      "v": 89
    },
    {
      "midi": 60,
      "hit": false,
      "t": 39513.21588541665,
      "d": 108.1730624999982,
      "v": 82
    },
    {
      "midi": 63,
      "hit": false,
      "t": 39795.667770833315,
      "d": 72.11537499999395,
      "v": 89
    },
    {
      "midi": 58,
      "hit": false,
      "t": 39795.667770833315,
      "d": 84.13460416666203,
      "v": 80
    },
    {
      "midi": 67,
      "hit": false,
      "t": 39801.677385416646,
      "d": 66.10576041666354,
      "v": 86
    },
    {
      "midi": 60,
      "hit": false,
      "t": 40096.148499999974,
      "d": 1292.0671354166698,
      "v": 89
    },
    {
      "midi": 56,
      "hit": false,
      "t": 40096.148499999974,
      "d": 1304.0863645833379,
      "v": 76
    },
    {
      "midi": 65,
      "hit": false,
      "t": 40096.148499999974,
      "d": 1334.1344375000044,
      "v": 92
    },
    {
      "midi": 68,
      "hit": false,
      "t": 41832.92711458331,
      "d": 222.3557395833268,
      "v": 83
    },
    {
      "midi": 65,
      "hit": false,
      "t": 41838.93672916664,
      "d": 216.3461249999964,
      "v": 84
    },
    {
      "midi": 72,
      "hit": false,
      "t": 41838.93672916664,
      "d": 228.36535416666447,
      "v": 86
    },
    {
      "midi": 70,
      "hit": false,
      "t": 42397.83088541664,
      "d": 228.36535416666447,
      "v": 83
    },
    {
      "midi": 62,
      "hit": false,
      "t": 42403.84049999997,
      "d": 234.37496875000215,
      "v": 83
    },
    {
      "midi": 67,
      "hit": false,
      "t": 42403.84049999997,
      "d": 234.37496875000215,
      "v": 88
    },
    {
      "midi": 68,
      "hit": false,
      "t": 42986.7731145833,
      "d": 216.3461249999964,
      "v": 89
    },
    {
      "midi": 65,
      "hit": false,
      "t": 42986.7731145833,
      "d": 222.3557395833268,
      "v": 90
    },
    {
      "midi": 60,
      "hit": false,
      "t": 42992.78272916663,
      "d": 228.36535416666447,
      "v": 89
    },
    {
      "midi": 58,
      "hit": false,
      "t": 43563.6961145833,
      "d": 246.39419791667024,
      "v": 77
    },
    {
      "midi": 63,
      "hit": false,
      "t": 43563.6961145833,
      "d": 246.39419791667024,
      "v": 96
    },
    {
      "midi": 67,
      "hit": false,
      "t": 43563.6961145833,
      "d": 252.40381250000064,
      "v": 90
    },
    {
      "midi": 60,
      "hit": false,
      "t": 44122.5902708333,
      "d": 78.12498958333163,
      "v": 84
    },
    {
      "midi": 65,
      "hit": false,
      "t": 44122.5902708333,
      "d": 78.12498958333163,
      "v": 97
    },
    {
      "midi": 68,
      "hit": false,
      "t": 44128.59988541663,
      "d": 42.06730208333465,
      "v": 80
    },
    {
      "midi": 58,
      "hit": false,
      "t": 44417.06138541663,
      "d": 48.076916666665056,
      "v": 90
    },
    {
      "midi": 63,
      "hit": false,
      "t": 44417.06138541663,
      "d": 48.076916666665056,
      "v": 89
    },
    {
      "midi": 67,
      "hit": false,
      "t": 44417.06138541663,
      "d": 48.076916666665056,
      "v": 99
    },
    {
      "midi": 65,
      "hit": false,
      "t": 44711.532499999965,
      "d": 1195.9133020833324,
      "v": 105
    },
    {
      "midi": 56,
      "hit": false,
      "t": 44711.532499999965,
      "d": 1207.9325312500005,
      "v": 92
    },
    {
      "midi": 60,
      "hit": false,
      "t": 44711.532499999965,
      "d": 1213.9421458333309,
      "v": 92
    },
    {
      "midi": 72,
      "hit": false,
      "t": 46436.29188541663,
      "d": 228.36535416666447,
      "v": 91
    },
    {
      "midi": 65,
      "hit": false,
      "t": 46436.29188541663,
      "d": 234.37496874999488,
      "v": 86
    },
    {
      "midi": 68,
      "hit": false,
      "t": 46436.29188541663,
      "d": 234.37496874999488,
      "v": 77
    },
    {
      "midi": 70,
      "hit": false,
      "t": 47013.21488541662,
      "d": 228.3653541666572,
      "v": 78
    },
    {
      "midi": 62,
      "hit": false,
      "t": 47019.22449999995,
      "d": 234.37496874999488,
      "v": 82
    },
    {
      "midi": 67,
      "hit": false,
      "t": 47025.23411458328,
      "d": 216.3461249999964,
      "v": 90
    },
    {
      "midi": 68,
      "hit": false,
      "t": 47608.166729166616,
      "d": 216.3461249999964,
      "v": 83
    },
    {
      "midi": 60,
      "hit": false,
      "t": 47608.166729166616,
      "d": 246.39419791666296,
      "v": 85
    },
    {
      "midi": 65,
      "hit": false,
      "t": 47608.166729166616,
      "d": 258.41342708333104,
      "v": 88
    },
    {
      "midi": 67,
      "hit": false,
      "t": 48167.06088541661,
      "d": 270.4326562499991,
      "v": 86
    },
    {
      "midi": 58,
      "hit": false,
      "t": 48167.06088541661,
      "d": 294.471114583328,
      "v": 72
    },
    {
      "midi": 63,
      "hit": false,
      "t": 48173.07049999994,
      "d": 288.4614999999976,
      "v": 89
    },
    {
      "midi": 65,
      "hit": false,
      "t": 48455.52238541661,
      "d": 2283.6535416666666,
      "v": 103
    },
    {
      "midi": 56,
      "hit": false,
      "t": 48455.52238541661,
      "d": 6893.027927083327,
      "v": 77
    },
    {
      "midi": 60,
      "hit": false,
      "t": 48461.53199999994,
      "d": 4561.297468750003,
      "v": 100
    },
    {
      "midi": 63,
      "hit": false,
      "t": 50763.21438541661,
      "d": 2295.6727708333274,
      "v": 87
    },
    {
      "midi": 60,
      "hit": false,
      "t": 53058.88715624994,
      "d": 2271.6343124999985,
      "v": 89
    },
    {
      "midi": 63,
      "hit": false,
      "t": 55372.588770833274,
      "d": 2271.6343124999985,
      "v": 78
    },
    {
      "midi": 67,
      "hit": false,
      "t": 55372.588770833274,
      "d": 2283.6535416666666,
      "v": 78
    },
    {
      "midi": 48,
      "hit": false,
      "t": 55372.588770833274,
      "d": 2295.6727708333347,
      "v": 78
    },
    {
      "midi": 58,
      "hit": false,
      "t": 55372.588770833274,
      "d": 2295.6727708333347,
      "v": 86
    },
    {
      "midi": 68,
      "hit": false,
      "t": 57974.75188541661,
      "d": 84.13460416666203,
      "v": 94
    },
    {
      "midi": 72,
      "hit": false,
      "t": 57974.75188541661,
      "d": 84.13460416666203,
      "v": 100
    },
    {
      "midi": 65,
      "hit": false,
      "t": 57980.76149999994,
      "d": 72.11537500000122,
      "v": 91
    },
    {
      "midi": 67,
      "hit": false,
      "t": 58263.21338541661,
      "d": 72.11537500000122,
      "v": 96
    },
    {
      "midi": 70,
      "hit": false,
      "t": 58263.21338541661,
      "d": 78.12498958333163,
      "v": 90
    },
    {
      "midi": 62,
      "hit": false,
      "t": 58263.21338541661,
      "d": 84.13460416666203,
      "v": 85
    },
    {
      "midi": 65,
      "hit": false,
      "t": 58563.69411458327,
      "d": 1364.1825104166637,
      "v": 92
    },
    {
      "midi": 68,
      "hit": false,
      "t": 58563.69411458327,
      "d": 1364.1825104166637,
      "v": 82
    },
    {
      "midi": 60,
      "hit": false,
      "t": 58563.69411458327,
      "d": 1418.2690416666665,
      "v": 82
    },
    {
      "midi": 68,
      "hit": false,
      "t": 60282.4438854166,
      "d": 78.12498958333163,
      "v": 87
    },
    {
      "midi": 60,
      "hit": false,
      "t": 60282.4438854166,
      "d": 96.15383333333011,
      "v": 85
    },
    {
      "midi": 65,
      "hit": false,
      "t": 60282.4438854166,
      "d": 96.15383333333011,
      "v": 93
    },
    {
      "midi": 58,
      "hit": false,
      "t": 60570.9053854166,
      "d": 66.10576041666354,
      "v": 72
    },
    {
      "midi": 63,
      "hit": false,
      "t": 60570.9053854166,
      "d": 78.12498958333163,
      "v": 73
    },
    {
      "midi": 67,
      "hit": false,
      "t": 60570.9053854166,
      "d": 96.15383333333011,
      "v": 90
    },
    {
      "midi": 60,
      "hit": false,
      "t": 60859.366885416595,
      "d": 1243.9902187499974,
      "v": 91
    },
    {
      "midi": 65,
      "hit": false,
      "t": 60859.366885416595,
      "d": 1256.0094479166655,
      "v": 85
    },
    {
      "midi": 56,
      "hit": false,
      "t": 60859.366885416595,
      "d": 1280.0479062500017,
      "v": 66
    },
    {
      "midi": 65,
      "hit": false,
      "t": 62602.155114583264,
      "d": 90.14421874999971,
      "v": 78
    },
    {
      "midi": 68,
      "hit": false,
      "t": 62602.155114583264,
      "d": 90.14421874999971,
      "v": 76
    },
    {
      "midi": 72,
      "hit": false,
      "t": 62602.155114583264,
      "d": 90.14421874999971,
      "v": 89
    },
    {
      "midi": 62,
      "hit": false,
      "t": 62890.61661458326,
      "d": 72.11537500000122,
      "v": 89
    },
    {
      "midi": 67,
      "hit": false,
      "t": 62890.61661458326,
      "d": 78.12498958333163,
      "v": 97
    },
    {
      "midi": 70,
      "hit": false,
      "t": 62890.61661458326,
      "d": 78.12498958333163,
      "v": 90
    },
    {
      "midi": 68,
      "hit": false,
      "t": 63173.06849999993,
      "d": 1424.2786562499969,
      "v": 75
    },
    {
      "midi": 65,
      "hit": false,
      "t": 63173.06849999993,
      "d": 1448.317114583333,
      "v": 91
    },
    {
      "midi": 60,
      "hit": false,
      "t": 63173.06849999993,
      "d": 1478.3651874999996,
      "v": 78
    },
    {
      "midi": 65,
      "hit": false,
      "t": 64897.8278854166,
      "d": 90.14421874999971,
      "v": 103
    },
    {
      "midi": 68,
      "hit": false,
      "t": 64897.8278854166,
      "d": 102.16344791666779,
      "v": 98
    },
    {
      "midi": 60,
      "hit": false,
      "t": 64897.8278854166,
      "d": 108.1730624999982,
      "v": 88
    },
    {
      "midi": 67,
      "hit": false,
      "t": 65186.289385416596,
      "d": 84.1346041666693,
      "v": 81
    },
    {
      "midi": 58,
      "hit": false,
      "t": 65186.289385416596,
      "d": 90.14421874999971,
      "v": 77
    },
    {
      "midi": 63,
      "hit": false,
      "t": 65186.289385416596,
      "d": 90.14421874999971,
      "v": 92
    },
    {
      "midi": 60,
      "hit": false,
      "t": 65474.75088541659,
      "d": 1195.9133020833397,
      "v": 91
    },
    {
      "midi": 65,
      "hit": false,
      "t": 65474.75088541659,
      "d": 1237.9806041666743,
      "v": 83
    },
    {
      "midi": 56,
      "hit": false,
      "t": 65474.75088541659,
      "d": 1256.0094479166728,
      "v": 65
    },
    {
      "midi": 72,
      "hit": false,
      "t": 67205.5198854166,
      "d": 90.14421875000698,
      "v": 97
    },
    {
      "midi": 65,
      "hit": false,
      "t": 67205.5198854166,
      "d": 96.15383333334466,
      "v": 85
    },
    {
      "midi": 68,
      "hit": false,
      "t": 67205.5198854166,
      "d": 96.15383333334466,
      "v": 84
    },
    {
      "midi": 62,
      "hit": false,
      "t": 67493.9813854166,
      "d": 78.12498958334618,
      "v": 90
    },
    {
      "midi": 70,
      "hit": false,
      "t": 67499.99099999994,
      "d": 72.1153750000085,
      "v": 102
    },
    {
      "midi": 67,
      "hit": false,
      "t": 67506.00061458327,
      "d": 66.10576041667082,
      "v": 100
    },
    {
      "midi": 65,
      "hit": false,
      "t": 67794.46211458328,
      "d": 1171.8748437500035,
      "v": 85
    },
    {
      "midi": 68,
      "hit": false,
      "t": 67794.46211458328,
      "d": 1171.8748437500035,
      "v": 83
    },
    {
      "midi": 60,
      "hit": false,
      "t": 67794.46211458328,
      "d": 1207.9325312500005,
      "v": 80
    },
    {
      "midi": 65,
      "hit": false,
      "t": 69513.21188541662,
      "d": 84.1346041666693,
      "v": 93
    },
    {
      "midi": 68,
      "hit": false,
      "t": 69513.21188541662,
      "d": 90.14421875000698,
      "v": 89
    },
    {
      "midi": 60,
      "hit": false,
      "t": 69513.21188541662,
      "d": 96.15383333334466,
      "v": 89
    },
    {
      "midi": 58,
      "hit": false,
      "t": 69801.67338541662,
      "d": 78.12498958333163,
      "v": 75
    },
    {
      "midi": 63,
      "hit": false,
      "t": 69801.67338541662,
      "d": 84.1346041666693,
      "v": 78
    },
    {
      "midi": 67,
      "hit": false,
      "t": 69801.67338541662,
      "d": 84.1346041666693,
      "v": 89
    },
    {
      "midi": 60,
      "hit": false,
      "t": 70102.15411458329,
      "d": 1033.6537083333387,
      "v": 88
    },
    {
      "midi": 56,
      "hit": false,
      "t": 70102.15411458329,
      "d": 1093.7498541666719,
      "v": 64
    },
    {
      "midi": 65,
      "hit": false,
      "t": 70102.15411458329,
      "d": 1105.7690833333327,
      "v": 85
    },
    {
      "midi": 65,
      "hit": false,
      "t": 71526.43277083329,
      "d": 4374.999416666673,
      "v": 85
    },
    {
      "midi": 70,
      "hit": false,
      "t": 71526.43277083329,
      "d": 4374.999416666673,
      "v": 87
    },
    {
      "midi": 62,
      "hit": false,
      "t": 71526.43277083329,
      "d": 4405.047489583347,
      "v": 83
    },
    {
      "midi": 65,
      "hit": false,
      "t": 76159.8456145833,
      "d": 4338.941729166676,
      "v": 80
    },
    {
      "midi": 70,
      "hit": false,
      "t": 76159.8456145833,
      "d": 4356.970572916674,
      "v": 72
    },
    {
      "midi": 62,
      "hit": false,
      "t": 76165.85522916664,
      "d": 4374.999416666673,
      "v": 71
    },
    {
      "midi": 68,
      "hit": false,
      "t": 81045.66227083332,
      "d": 234.37496875000943,
      "v": 79
    },
    {
      "midi": 65,
      "hit": false,
      "t": 81045.66227083332,
      "d": 252.40381250000792,
      "v": 85
    },
    {
      "midi": 60,
      "hit": false,
      "t": 81051.67188541665,
      "d": 240.38458333333256,
      "v": 78
    },
    {
      "midi": 56,
      "hit": false,
      "t": 81622.58527083333,
      "d": 1093.7498541666573,
      "v": 66
    },
    {
      "midi": 60,
      "hit": false,
      "t": 81622.58527083333,
      "d": 1183.8940729166643,
      "v": 88
    },
    {
      "midi": 65,
      "hit": false,
      "t": 81634.60449999999,
      "d": 1177.8844583333412,
      "v": 86
    },
    {
      "midi": 68,
      "hit": false,
      "t": 83371.38311458332,
      "d": 72.1153750000085,
      "v": 77
    },
    {
      "midi": 60,
      "hit": false,
      "t": 83371.38311458332,
      "d": 84.1346041666693,
      "v": 78
    },
    {
      "midi": 65,
      "hit": false,
      "t": 83377.39272916666,
      "d": 66.10576041667082,
      "v": 83
    },
    {
      "midi": 58,
      "hit": false,
      "t": 83647.82538541665,
      "d": 84.1346041666693,
      "v": 71
    },
    {
      "midi": 67,
      "hit": false,
      "t": 83647.82538541665,
      "d": 96.15383333333011,
      "v": 85
    },
    {
      "midi": 63,
      "hit": false,
      "t": 83659.84461458331,
      "d": 66.10576041667082,
      "v": 78
    },
    {
      "midi": 60,
      "hit": false,
      "t": 83954.31572916666,
      "d": 1201.9229166666773,
      "v": 86
    },
    {
      "midi": 56,
      "hit": false,
      "t": 83960.32534375,
      "d": 1213.9421458333381,
      "v": 71
    },
    {
      "midi": 65,
      "hit": false,
      "t": 83960.32534375,
      "d": 1231.9709895833366,
      "v": 75
    },
    {
      "midi": 72,
      "hit": false,
      "t": 85661.04627083334,
      "d": 288.4615000000049,
      "v": 97
    },
    {
      "midi": 65,
      "hit": false,
      "t": 85661.04627083334,
      "d": 300.4807291666657,
      "v": 82
    },
    {
      "midi": 68,
      "hit": false,
      "t": 85661.04627083334,
      "d": 312.4999583333265,
      "v": 78
    },
    {
      "midi": 60,
      "hit": false,
      "t": 86237.96927083333,
      "d": 1274.0382916666713,
      "v": 73
    },
    {
      "midi": 68,
      "hit": false,
      "t": 86237.96927083333,
      "d": 1286.057520833332,
      "v": 77
    },
    {
      "midi": 65,
      "hit": false,
      "t": 86237.96927083333,
      "d": 1292.0671354166698,
      "v": 85
    },
    {
      "midi": 68,
      "hit": false,
      "t": 87974.74788541667,
      "d": 60.09614583333314,
      "v": 82
    },
    {
      "midi": 65,
      "hit": false,
      "t": 87974.74788541667,
      "d": 102.16344791666779,
      "v": 89
    },
    {
      "midi": 60,
      "hit": false,
      "t": 87974.74788541667,
      "d": 108.17306250000547,
      "v": 82
    },
    {
      "midi": 63,
      "hit": false,
      "t": 88257.19977083334,
      "d": 72.1153750000085,
      "v": 89
    },
    {
      "midi": 58,
      "hit": false,
      "t": 88257.19977083334,
      "d": 84.1346041666693,
      "v": 80
    },
    {
      "midi": 67,
      "hit": false,
      "t": 88263.20938541667,
      "d": 66.10576041667082,
      "v": 86
    },
    {
      "midi": 60,
      "hit": false,
      "t": 88557.6805,
      "d": 1292.0671354166698,
      "v": 89
    },
    {
      "midi": 56,
      "hit": false,
      "t": 88557.6805,
      "d": 1304.0863645833306,
      "v": 76
    },
    {
      "midi": 65,
      "hit": false,
      "t": 88557.6805,
      "d": 1334.1344375000044,
      "v": 92
    },
    {
      "midi": 68,
      "hit": false,
      "t": 90294.45911458334,
      "d": 222.35573958333407,
      "v": 83
    },
    {
      "midi": 65,
      "hit": false,
      "t": 90300.46872916668,
      "d": 216.3461249999964,
      "v": 84
    },
    {
      "midi": 72,
      "hit": false,
      "t": 90300.46872916668,
      "d": 228.3653541666572,
      "v": 86
    },
    {
      "midi": 70,
      "hit": false,
      "t": 90859.36288541667,
      "d": 228.36535416667175,
      "v": 83
    },
    {
      "midi": 62,
      "hit": false,
      "t": 90865.37250000001,
      "d": 234.37496874999488,
      "v": 83
    },
    {
      "midi": 67,
      "hit": false,
      "t": 90865.37250000001,
      "d": 234.37496874999488,
      "v": 88
    },
    {
      "midi": 68,
      "hit": false,
      "t": 91448.30511458335,
      "d": 216.34612500001094,
      "v": 89
    },
    {
      "midi": 65,
      "hit": false,
      "t": 91448.30511458335,
      "d": 222.35573958334862,
      "v": 90
    },
    {
      "midi": 60,
      "hit": false,
      "t": 91454.31472916668,
      "d": 228.36535416667175,
      "v": 89
    },
    {
      "midi": 58,
      "hit": false,
      "t": 92025.22811458335,
      "d": 246.39419791667024,
      "v": 77
    },
    {
      "midi": 63,
      "hit": false,
      "t": 92025.22811458335,
      "d": 246.39419791667024,
      "v": 96
    },
    {
      "midi": 67,
      "hit": false,
      "t": 92025.22811458335,
      "d": 252.40381250000792,
      "v": 90
    },
    {
      "midi": 60,
      "hit": false,
      "t": 92584.12227083337,
      "d": 78.12498958334618,
      "v": 84
    },
    {
      "midi": 65,
      "hit": false,
      "t": 92584.12227083337,
      "d": 78.12498958334618,
      "v": 97
    },
    {
      "midi": 68,
      "hit": false,
      "t": 92590.1318854167,
      "d": 42.06730208333465,
      "v": 80
    },
    {
      "midi": 58,
      "hit": false,
      "t": 92878.59338541671,
      "d": 48.07691666667233,
      "v": 90
    },
    {
      "midi": 63,
      "hit": false,
      "t": 92878.59338541671,
      "d": 48.07691666667233,
      "v": 89
    },
    {
      "midi": 67,
      "hit": false,
      "t": 92878.59338541671,
      "d": 48.07691666667233,
      "v": 99
    },
    {
      "midi": 65,
      "hit": false,
      "t": 93173.06450000005,
      "d": 1195.9133020833397,
      "v": 105
    },
    {
      "midi": 56,
      "hit": false,
      "t": 93173.06450000005,
      "d": 1207.9325312500005,
      "v": 92
    },
    {
      "midi": 60,
      "hit": false,
      "t": 93173.06450000005,
      "d": 1213.9421458333381,
      "v": 92
    },
    {
      "midi": 72,
      "hit": false,
      "t": 94897.82388541673,
      "d": 228.36535416667175,
      "v": 91
    },
    {
      "midi": 65,
      "hit": false,
      "t": 94897.82388541673,
      "d": 234.37496875000943,
      "v": 86
    },
    {
      "midi": 68,
      "hit": false,
      "t": 94897.82388541673,
      "d": 234.37496875000943,
      "v": 77
    },
    {
      "midi": 70,
      "hit": false,
      "t": 95474.74688541674,
      "d": 228.36535416667175,
      "v": 78
    },
    {
      "midi": 62,
      "hit": false,
      "t": 95480.75650000008,
      "d": 234.37496874999488,
      "v": 82
    },
    {
      "midi": 67,
      "hit": false,
      "t": 95486.76611458341,
      "d": 216.3461249999964,
      "v": 90
    },
    {
      "midi": 68,
      "hit": false,
      "t": 96069.69872916673,
      "d": 216.3461249999964,
      "v": 83
    },
    {
      "midi": 60,
      "hit": false,
      "t": 96069.69872916673,
      "d": 246.39419791667024,
      "v": 85
    },
    {
      "midi": 65,
      "hit": false,
      "t": 96069.69872916673,
      "d": 258.41342708333104,
      "v": 88
    },
    {
      "midi": 67,
      "hit": false,
      "t": 96628.59288541673,
      "d": 270.4326562500064,
      "v": 86
    },
    {
      "midi": 58,
      "hit": false,
      "t": 96628.59288541673,
      "d": 282.4518854166672,
      "v": 72
    },
    {
      "midi": 63,
      "hit": false,
      "t": 96634.60250000007,
      "d": 258.41342708333104,
      "v": 89
    },
    {
      "midi": 65,
      "hit": false,
      "t": 96917.05438541673,
      "d": 2289.663156249997,
      "v": 103
    },
    {
      "midi": 56,
      "hit": false,
      "t": 96917.05438541673,
      "d": 6893.027927083342,
      "v": 77
    },
    {
      "midi": 60,
      "hit": false,
      "t": 96923.06400000007,
      "d": 4555.287854166658,
      "v": 100
    },
    {
      "midi": 63,
      "hit": false,
      "t": 99230.75600000007,
      "d": 2271.6343124999985,
      "v": 80
    },
    {
      "midi": 60,
      "hit": false,
      "t": 101526.4287708334,
      "d": 2325.7208437500085,
      "v": 85
    },
    {
      "midi": 75,
      "hit": false,
      "t": 103834.12077083341,
      "d": 1412.259427083336,
      "v": 77
    },
    {
      "midi": 67,
      "hit": false,
      "t": 103834.12077083341,
      "d": 2283.653541666674,
      "v": 78
    },
    {
      "midi": 48,
      "hit": false,
      "t": 103834.12077083341,
      "d": 2295.6727708333347,
      "v": 78
    },
    {
      "midi": 58,
      "hit": false,
      "t": 103834.12077083341,
      "d": 2295.6727708333347,
      "v": 96
    },
    {
      "midi": 79,
      "hit": false,
      "t": 105288.44750000008,
      "d": 252.40381249999336,
      "v": 96
    },
    {
      "midi": 75,
      "hit": false,
      "t": 105288.44750000008,
      "d": 300.4807291666657,
      "v": 90
    },
    {
      "midi": 72,
      "hit": false,
      "t": 105594.93784375009,
      "d": 186.2980520833371,
      "v": 73
    },
    {
      "midi": 75,
      "hit": false,
      "t": 105745.17820833343,
      "d": 264.4230416666687,
      "v": 86
    },
    {
      "midi": 72,
      "hit": false,
      "t": 106021.62047916676,
      "d": 72.11537499999395,
      "v": 85
    },
    {
      "midi": 68,
      "hit": false,
      "t": 106436.28388541675,
      "d": 84.1346041666693,
      "v": 94
    },
    {
      "midi": 72,
      "hit": false,
      "t": 106436.28388541675,
      "d": 84.1346041666693,
      "v": 100
    },
    {
      "midi": 65,
      "hit": false,
      "t": 106442.29350000009,
      "d": 72.11537499999395,
      "v": 91
    },
    {
      "midi": 67,
      "hit": false,
      "t": 106724.74538541675,
      "d": 72.11537499999395,
      "v": 96
    },
    {
      "midi": 70,
      "hit": false,
      "t": 106724.74538541675,
      "d": 78.12498958333163,
      "v": 90
    },
    {
      "midi": 62,
      "hit": false,
      "t": 106724.74538541675,
      "d": 84.1346041666693,
      "v": 85
    },
    {
      "midi": 65,
      "hit": false,
      "t": 107025.22611458342,
      "d": 1364.1825104166637,
      "v": 92
    },
    {
      "midi": 68,
      "hit": false,
      "t": 107025.22611458342,
      "d": 1364.1825104166637,
      "v": 82
    },
    {
      "midi": 60,
      "hit": false,
      "t": 107025.22611458342,
      "d": 1418.2690416666592,
      "v": 82
    },
    {
      "midi": 68,
      "hit": false,
      "t": 108743.97588541674,
      "d": 78.12498958333163,
      "v": 87
    },
    {
      "midi": 60,
      "hit": false,
      "t": 108743.97588541674,
      "d": 96.15383333333011,
      "v": 85
    },
    {
      "midi": 65,
      "hit": false,
      "t": 108743.97588541674,
      "d": 96.15383333333011,
      "v": 93
    },
    {
      "midi": 58,
      "hit": false,
      "t": 109032.43738541674,
      "d": 66.10576041667082,
      "v": 72
    },
    {
      "midi": 63,
      "hit": false,
      "t": 109032.43738541674,
      "d": 78.12498958333163,
      "v": 73
    },
    {
      "midi": 67,
      "hit": false,
      "t": 109032.43738541674,
      "d": 96.15383333333011,
      "v": 90
    },
    {
      "midi": 60,
      "hit": false,
      "t": 109320.89888541673,
      "d": 1243.9902187499974,
      "v": 91
    },
    {
      "midi": 65,
      "hit": false,
      "t": 109320.89888541673,
      "d": 1256.0094479166582,
      "v": 85
    },
    {
      "midi": 56,
      "hit": false,
      "t": 109320.89888541673,
      "d": 1280.0479062499944,
      "v": 66
    },
    {
      "midi": 58,
      "hit": false,
      "t": 110757.19677083338,
      "d": 4374.999416666673,
      "v": 72
    },
    {
      "midi": 62,
      "hit": false,
      "t": 110763.20638541672,
      "d": 4362.980187499998,
      "v": 85
    },
    {
      "midi": 65,
      "hit": false,
      "t": 110769.21600000006,
      "d": 4332.932114583324,
      "v": 83
    },
    {
      "midi": 70,
      "hit": false,
      "t": 111045.65827083339,
      "d": 4116.585989583342,
      "v": 72
    },
    {
      "midi": 70,
      "hit": false,
      "t": 115360.56154166673,
      "d": 2301.6823854166723,
      "v": 61
    },
    {
      "midi": 62,
      "hit": false,
      "t": 115366.57115625007,
      "d": 2331.7304583333316,
      "v": 71
    },
    {
      "midi": 65,
      "hit": false,
      "t": 115372.5807708334,
      "d": 2271.6343124999985,
      "v": 85
    },
    {
      "midi": 68,
      "hit": false,
      "t": 117974.74388541673,
      "d": 84.1346041666693,
      "v": 94
    },
    {
      "midi": 72,
      "hit": false,
      "t": 117974.74388541673,
      "d": 84.1346041666693,
      "v": 100
    },
    {
      "midi": 65,
      "hit": false,
      "t": 117980.75350000006,
      "d": 72.11537499999395,
      "v": 91
    },
    {
      "midi": 67,
      "hit": false,
      "t": 118263.20538541673,
      "d": 72.11537499999395,
      "v": 96
    },
    {
      "midi": 70,
      "hit": false,
      "t": 118263.20538541673,
      "d": 78.12498958333163,
      "v": 90
    },
    {
      "midi": 62,
      "hit": false,
      "t": 118263.20538541673,
      "d": 84.1346041666693,
      "v": 85
    },
    {
      "midi": 65,
      "hit": false,
      "t": 118563.6861145834,
      "d": 1364.1825104166637,
      "v": 92
    },
    {
      "midi": 68,
      "hit": false,
      "t": 118563.6861145834,
      "d": 1364.1825104166637,
      "v": 82
    },
    {
      "midi": 60,
      "hit": false,
      "t": 118563.6861145834,
      "d": 1418.2690416666592,
      "v": 82
    },
    {
      "midi": 68,
      "hit": false,
      "t": 120282.43588541672,
      "d": 78.12498958333163,
      "v": 87
    },
    {
      "midi": 60,
      "hit": false,
      "t": 120282.43588541672,
      "d": 96.15383333333011,
      "v": 85
    },
    {
      "midi": 65,
      "hit": false,
      "t": 120282.43588541672,
      "d": 96.15383333333011,
      "v": 93
    },
    {
      "midi": 58,
      "hit": false,
      "t": 120570.89738541671,
      "d": 66.10576041667082,
      "v": 72
    },
    {
      "midi": 63,
      "hit": false,
      "t": 120570.89738541671,
      "d": 78.12498958333163,
      "v": 73
    },
    {
      "midi": 67,
      "hit": false,
      "t": 120570.89738541671,
      "d": 96.15383333333011,
      "v": 90
    },
    {
      "midi": 60,
      "hit": false,
      "t": 120859.3588854167,
      "d": 1243.9902187499974,
      "v": 91
    },
    {
      "midi": 65,
      "hit": false,
      "t": 120859.3588854167,
      "d": 1256.0094479166582,
      "v": 85
    },
    {
      "midi": 56,
      "hit": false,
      "t": 120859.3588854167,
      "d": 1280.0479062499944,
      "v": 66
    },
    {
      "midi": 58,
      "hit": false,
      "t": 122295.65677083336,
      "d": 4374.999416666673,
      "v": 72
    },
    {
      "midi": 62,
      "hit": false,
      "t": 122301.6663854167,
      "d": 4362.980187499998,
      "v": 85
    },
    {
      "midi": 65,
      "hit": false,
      "t": 122307.67600000004,
      "d": 4332.932114583324,
      "v": 83
    },
    {
      "midi": 70,
      "hit": false,
      "t": 122584.11827083337,
      "d": 4116.585989583342,
      "v": 72
    },
    {
      "midi": 70,
      "hit": false,
      "t": 126899.0215416667,
      "d": 2301.6823854166723,
      "v": 61
    },
    {
      "midi": 62,
      "hit": false,
      "t": 126905.03115625004,
      "d": 2331.7304583333316,
      "v": 71
    },
    {
      "midi": 65,
      "hit": false,
      "t": 126911.04077083338,
      "d": 2271.6343124999985,
      "v": 85
    },
    {
      "midi": 68,
      "hit": false,
      "t": 129513.2038854167,
      "d": 84.1346041666693,
      "v": 94
    },
    {
      "midi": 72,
      "hit": false,
      "t": 129513.2038854167,
      "d": 84.1346041666693,
      "v": 100
    },
    {
      "midi": 65,
      "hit": false,
      "t": 129519.21350000004,
      "d": 72.11537499999395,
      "v": 91
    },
    {
      "midi": 67,
      "hit": false,
      "t": 129801.66538541671,
      "d": 72.11537499999395,
      "v": 96
    },
    {
      "midi": 70,
      "hit": false,
      "t": 129801.66538541671,
      "d": 78.12498958333163,
      "v": 90
    },
    {
      "midi": 62,
      "hit": false,
      "t": 129801.66538541671,
      "d": 84.1346041666693,
      "v": 85
    },
    {
      "midi": 65,
      "hit": false,
      "t": 130102.14611458337,
      "d": 1364.1825104166783,
      "v": 92
    },
    {
      "midi": 68,
      "hit": false,
      "t": 130102.14611458337,
      "d": 1364.1825104166783,
      "v": 82
    },
    {
      "midi": 60,
      "hit": false,
      "t": 130102.14611458337,
      "d": 1418.2690416666883,
      "v": 82
    },
    {
      "midi": 68,
      "hit": false,
      "t": 131820.89588541674,
      "d": 78.12498958333163,
      "v": 87
    },
    {
      "midi": 60,
      "hit": false,
      "t": 131820.89588541674,
      "d": 96.15383333334466,
      "v": 85
    },
    {
      "midi": 65,
      "hit": false,
      "t": 131820.89588541674,
      "d": 96.15383333334466,
      "v": 93
    },
    {
      "midi": 58,
      "hit": false,
      "t": 132109.35738541675,
      "d": 66.10576041665627,
      "v": 72
    },
    {
      "midi": 63,
      "hit": false,
      "t": 132109.35738541675,
      "d": 78.12498958333163,
      "v": 73
    },
    {
      "midi": 67,
      "hit": false,
      "t": 132109.35738541675,
      "d": 96.15383333334466,
      "v": 90
    },
    {
      "midi": 60,
      "hit": false,
      "t": 132397.81888541675,
      "d": 1243.9902187499974,
      "v": 91
    },
    {
      "midi": 65,
      "hit": false,
      "t": 132397.81888541675,
      "d": 1256.0094479166728,
      "v": 85
    },
    {
      "midi": 56,
      "hit": false,
      "t": 132397.81888541675,
      "d": 1280.0479062499944,
      "v": 66
    },
    {
      "midi": 65,
      "hit": false,
      "t": 134140.60711458343,
      "d": 90.14421875000698,
      "v": 78
    },
    {
      "midi": 68,
      "hit": false,
      "t": 134140.60711458343,
      "d": 90.14421875000698,
      "v": 76
    },
    {
      "midi": 72,
      "hit": false,
      "t": 134140.60711458343,
      "d": 90.14421875000698,
      "v": 89
    },
    {
      "midi": 62,
      "hit": false,
      "t": 134429.06861458343,
      "d": 72.11537499999395,
      "v": 89
    },
    {
      "midi": 67,
      "hit": false,
      "t": 134429.06861458343,
      "d": 78.12498958333163,
      "v": 97
    },
    {
      "midi": 70,
      "hit": false,
      "t": 134429.06861458343,
      "d": 78.12498958333163,
      "v": 90
    },
    {
      "midi": 68,
      "hit": false,
      "t": 134711.5205000001,
      "d": 1424.2786562500114,
      "v": 75
    },
    {
      "midi": 65,
      "hit": false,
      "t": 134711.5205000001,
      "d": 1448.317114583333,
      "v": 91
    },
    {
      "midi": 60,
      "hit": false,
      "t": 134711.5205000001,
      "d": 1478.3651874999923,
      "v": 78
    },
    {
      "midi": 65,
      "hit": false,
      "t": 136436.27988541676,
      "d": 90.14421875000698,
      "v": 103
    },
    {
      "midi": 68,
      "hit": false,
      "t": 136436.27988541676,
      "d": 102.16344791668234,
      "v": 98
    },
    {
      "midi": 60,
      "hit": false,
      "t": 136436.27988541676,
      "d": 108.17306250002002,
      "v": 88
    },
    {
      "midi": 67,
      "hit": false,
      "t": 136724.7413854168,
      "d": 84.1346041666693,
      "v": 81
    },
    {
      "midi": 58,
      "hit": false,
      "t": 136724.7413854168,
      "d": 90.14421875000698,
      "v": 77
    },
    {
      "midi": 63,
      "hit": false,
      "t": 136724.7413854168,
      "d": 90.14421875000698,
      "v": 92
    },
    {
      "midi": 60,
      "hit": false,
      "t": 137013.2028854168,
      "d": 1195.913302083325,
      "v": 91
    },
    {
      "midi": 65,
      "hit": false,
      "t": 137013.2028854168,
      "d": 1237.9806041666598,
      "v": 83
    },
    {
      "midi": 56,
      "hit": false,
      "t": 137013.2028854168,
      "d": 1256.0094479166728,
      "v": 65
    },
    {
      "midi": 72,
      "hit": false,
      "t": 138743.9718854168,
      "d": 90.14421875000698,
      "v": 97
    },
    {
      "midi": 65,
      "hit": false,
      "t": 138743.9718854168,
      "d": 96.15383333334466,
      "v": 85
    },
    {
      "midi": 68,
      "hit": false,
      "t": 138743.9718854168,
      "d": 96.15383333334466,
      "v": 84
    },
    {
      "midi": 62,
      "hit": false,
      "t": 139032.4333854168,
      "d": 78.12498958333163,
      "v": 90
    },
    {
      "midi": 70,
      "hit": false,
      "t": 139038.44300000014,
      "d": 72.11537499999395,
      "v": 102
    },
    {
      "midi": 67,
      "hit": false,
      "t": 139044.45261458348,
      "d": 66.10576041665627,
      "v": 100
    },
    {
      "midi": 65,
      "hit": false,
      "t": 139332.91411458346,
      "d": 1171.8748437500035,
      "v": 85
    },
    {
      "midi": 68,
      "hit": false,
      "t": 139332.91411458346,
      "d": 1171.8748437500035,
      "v": 83
    },
    {
      "midi": 60,
      "hit": false,
      "t": 139332.91411458346,
      "d": 1207.9325312500005,
      "v": 80
    },
    {
      "midi": 65,
      "hit": false,
      "t": 141051.66388541678,
      "d": 84.1346041666693,
      "v": 93
    },
    {
      "midi": 68,
      "hit": false,
      "t": 141051.66388541678,
      "d": 90.14421875000698,
      "v": 89
    },
    {
      "midi": 60,
      "hit": false,
      "t": 141051.66388541678,
      "d": 96.15383333334466,
      "v": 89
    },
    {
      "midi": 58,
      "hit": false,
      "t": 141340.1253854168,
      "d": 78.12498958333163,
      "v": 75
    },
    {
      "midi": 63,
      "hit": false,
      "t": 141340.1253854168,
      "d": 84.1346041666693,
      "v": 78
    },
    {
      "midi": 67,
      "hit": false,
      "t": 141340.1253854168,
      "d": 84.1346041666693,
      "v": 89
    },
    {
      "midi": 60,
      "hit": false,
      "t": 141640.60611458347,
      "d": 1033.6537083333242,
      "v": 88
    },
    {
      "midi": 56,
      "hit": false,
      "t": 141640.60611458347,
      "d": 1093.7498541666719,
      "v": 64
    },
    {
      "midi": 65,
      "hit": false,
      "t": 141640.60611458347,
      "d": 1105.7690833333472,
      "v": 85
    },
    {
      "midi": 65,
      "hit": false,
      "t": 143064.88477083348,
      "d": 4374.999416666658,
      "v": 85
    },
    {
      "midi": 70,
      "hit": false,
      "t": 143064.88477083348,
      "d": 4374.999416666658,
      "v": 87
    },
    {
      "midi": 62,
      "hit": false,
      "t": 143064.88477083348,
      "d": 4405.047489583318,
      "v": 83
    },
    {
      "midi": 65,
      "hit": false,
      "t": 147698.29761458345,
      "d": 4338.941729166661,
      "v": 80
    },
    {
      "midi": 70,
      "hit": false,
      "t": 147698.29761458345,
      "d": 4356.970572916674,
      "v": 72
    },
    {
      "midi": 62,
      "hit": false,
      "t": 147704.3072291668,
      "d": 4374.999416666658,
      "v": 71
    },
    {
      "midi": 68,
      "hit": false,
      "t": 152584.11427083344,
      "d": 234.37496874999488,
      "v": 79
    },
    {
      "midi": 65,
      "hit": false,
      "t": 152584.11427083344,
      "d": 252.40381250000792,
      "v": 85
    },
    {
      "midi": 60,
      "hit": false,
      "t": 152590.12388541678,
      "d": 240.38458333333256,
      "v": 78
    },
    {
      "midi": 56,
      "hit": false,
      "t": 153161.03727083345,
      "d": 1093.7498541666719,
      "v": 66
    },
    {
      "midi": 60,
      "hit": false,
      "t": 153161.03727083345,
      "d": 1183.8940729166789,
      "v": 88
    },
    {
      "midi": 65,
      "hit": false,
      "t": 153173.05650000012,
      "d": 1177.8844583333412,
      "v": 86
    },
    {
      "midi": 68,
      "hit": false,
      "t": 154909.83511458346,
      "d": 72.11537499999395,
      "v": 77
    },
    {
      "midi": 60,
      "hit": false,
      "t": 154909.83511458346,
      "d": 84.1346041666693,
      "v": 78
    },
    {
      "midi": 65,
      "hit": false,
      "t": 154915.8447291668,
      "d": 66.10576041665627,
      "v": 83
    },
    {
      "midi": 58,
      "hit": false,
      "t": 155186.2773854168,
      "d": 84.1346041666693,
      "v": 71
    },
    {
      "midi": 67,
      "hit": false,
      "t": 155186.2773854168,
      "d": 96.15383333334466,
      "v": 85
    },
    {
      "midi": 63,
      "hit": false,
      "t": 155198.29661458347,
      "d": 66.10576041665627,
      "v": 78
    },
    {
      "midi": 60,
      "hit": false,
      "t": 155492.7677291668,
      "d": 1201.9229166666628,
      "v": 86
    },
    {
      "midi": 56,
      "hit": false,
      "t": 155498.77734375015,
      "d": 1213.9421458333381,
      "v": 71
    },
    {
      "midi": 65,
      "hit": false,
      "t": 155498.77734375015,
      "d": 1231.9709895833512,
      "v": 75
    },
    {
      "midi": 72,
      "hit": false,
      "t": 157199.4982708335,
      "d": 288.4615000000049,
      "v": 97
    },
    {
      "midi": 65,
      "hit": false,
      "t": 157199.4982708335,
      "d": 300.48072916668025,
      "v": 82
    },
    {
      "midi": 68,
      "hit": false,
      "t": 157199.4982708335,
      "d": 312.4999583333556,
      "v": 78
    },
    {
      "midi": 60,
      "hit": false,
      "t": 157776.4212708335,
      "d": 1274.0382916666567,
      "v": 73
    },
    {
      "midi": 68,
      "hit": false,
      "t": 157776.4212708335,
      "d": 1286.057520833332,
      "v": 77
    },
    {
      "midi": 65,
      "hit": false,
      "t": 157776.4212708335,
      "d": 1292.0671354166698,
      "v": 85
    },
    {
      "midi": 68,
      "hit": false,
      "t": 159513.19988541683,
      "d": 60.09614583334769,
      "v": 82
    },
    {
      "midi": 65,
      "hit": false,
      "t": 159513.19988541683,
      "d": 102.16344791668234,
      "v": 89
    },
    {
      "midi": 60,
      "hit": false,
      "t": 159513.19988541683,
      "d": 108.17306250002002,
      "v": 82
    },
    {
      "midi": 63,
      "hit": false,
      "t": 159795.65177083353,
      "d": 72.11537499999395,
      "v": 89
    },
    {
      "midi": 58,
      "hit": false,
      "t": 159795.65177083353,
      "d": 84.1346041666693,
      "v": 80
    },
    {
      "midi": 67,
      "hit": false,
      "t": 159801.66138541687,
      "d": 66.10576041665627,
      "v": 86
    },
    {
      "midi": 60,
      "hit": false,
      "t": 160096.1325000002,
      "d": 1292.0671354166698,
      "v": 89
    },
    {
      "midi": 56,
      "hit": false,
      "t": 160096.1325000002,
      "d": 1304.0863645833451,
      "v": 76
    },
    {
      "midi": 65,
      "hit": false,
      "t": 160096.1325000002,
      "d": 1334.1344375000044,
      "v": 92
    },
    {
      "midi": 68,
      "hit": false,
      "t": 161832.91111458355,
      "d": 222.35573958334862,
      "v": 83
    },
    {
      "midi": 65,
      "hit": false,
      "t": 161838.9207291669,
      "d": 216.34612500001094,
      "v": 84
    },
    {
      "midi": 72,
      "hit": false,
      "t": 161838.9207291669,
      "d": 228.3653541666863,
      "v": 86
    },
    {
      "midi": 70,
      "hit": false,
      "t": 162397.8148854169,
      "d": 228.3653541666572,
      "v": 83
    },
    {
      "midi": 62,
      "hit": false,
      "t": 162403.82450000025,
      "d": 234.37496874999488,
      "v": 83
    },
    {
      "midi": 67,
      "hit": false,
      "t": 162403.82450000025,
      "d": 234.37496874999488,
      "v": 88
    },
    {
      "midi": 68,
      "hit": false,
      "t": 162986.75711458357,
      "d": 216.34612500001094,
      "v": 89
    },
    {
      "midi": 65,
      "hit": false,
      "t": 162986.75711458357,
      "d": 222.35573958334862,
      "v": 90
    },
    {
      "midi": 60,
      "hit": false,
      "t": 162992.7667291669,
      "d": 228.3653541666863,
      "v": 89
    },
    {
      "midi": 58,
      "hit": false,
      "t": 163563.68011458358,
      "d": 246.39419791667024,
      "v": 77
    },
    {
      "midi": 63,
      "hit": false,
      "t": 163563.68011458358,
      "d": 246.39419791667024,
      "v": 96
    },
    {
      "midi": 67,
      "hit": false,
      "t": 163563.68011458358,
      "d": 252.40381250000792,
      "v": 90
    },
    {
      "midi": 60,
      "hit": false,
      "t": 164122.57427083357,
      "d": 78.12498958333163,
      "v": 84
    },
    {
      "midi": 65,
      "hit": false,
      "t": 164122.57427083357,
      "d": 78.12498958333163,
      "v": 97
    },
    {
      "midi": 68,
      "hit": false,
      "t": 164128.5838854169,
      "d": 42.06730208333465,
      "v": 80
    },
    {
      "midi": 58,
      "hit": false,
      "t": 164417.04538541692,
      "d": 48.07691666667233,
      "v": 90
    },
    {
      "midi": 63,
      "hit": false,
      "t": 164417.04538541692,
      "d": 48.07691666667233,
      "v": 89
    },
    {
      "midi": 67,
      "hit": false,
      "t": 164417.04538541692,
      "d": 48.07691666667233,
      "v": 99
    },
    {
      "midi": 65,
      "hit": false,
      "t": 164711.51650000026,
      "d": 1195.913302083325,
      "v": 105
    },
    {
      "midi": 56,
      "hit": false,
      "t": 164711.51650000026,
      "d": 1207.9325312500005,
      "v": 92
    },
    {
      "midi": 60,
      "hit": false,
      "t": 164711.51650000026,
      "d": 1213.9421458333381,
      "v": 92
    },
    {
      "midi": 72,
      "hit": false,
      "t": 166436.27588541692,
      "d": 228.3653541666572,
      "v": 91
    },
    {
      "midi": 65,
      "hit": false,
      "t": 166436.27588541692,
      "d": 234.37496874999488,
      "v": 86
    },
    {
      "midi": 68,
      "hit": false,
      "t": 166436.27588541692,
      "d": 234.37496874999488,
      "v": 77
    },
    {
      "midi": 70,
      "hit": false,
      "t": 167013.1988854169,
      "d": 228.3653541666863,
      "v": 78
    },
    {
      "midi": 62,
      "hit": false,
      "t": 167019.20850000024,
      "d": 234.37496875002398,
      "v": 82
    },
    {
      "midi": 67,
      "hit": false,
      "t": 167025.21811458358,
      "d": 216.34612500001094,
      "v": 90
    },
    {
      "midi": 68,
      "hit": false,
      "t": 167608.15072916693,
      "d": 216.34612500001094,
      "v": 83
    },
    {
      "midi": 60,
      "hit": false,
      "t": 167608.15072916693,
      "d": 246.39419791667024,
      "v": 85
    },
    {
      "midi": 65,
      "hit": false,
      "t": 167608.15072916693,
      "d": 258.4134270833456,
      "v": 88
    },
    {
      "midi": 67,
      "hit": false,
      "t": 168167.04488541695,
      "d": 270.43265625002095,
      "v": 86
    },
    {
      "midi": 58,
      "hit": false,
      "t": 168167.04488541695,
      "d": 318.5095729166933,
      "v": 72
    },
    {
      "midi": 63,
      "hit": false,
      "t": 168173.0545000003,
      "d": 258.4134270833456,
      "v": 89
    },
    {
      "midi": 56,
      "hit": false,
      "t": 168455.506385417,
      "d": 6893.027927083342,
      "v": 77
    },
    {
      "midi": 65,
      "hit": false,
      "t": 168455.506385417,
      "d": 6893.027927083342,
      "v": 93
    },
    {
      "midi": 60,
      "hit": false,
      "t": 168461.51600000032,
      "d": 6874.999083333329,
      "v": 100
    },
    {
      "midi": 75,
      "hit": false,
      "t": 175372.57277083365,
      "d": 1394.230583333323,
      "v": 78
    },
    {
      "midi": 48,
      "hit": false,
      "t": 175372.57277083365,
      "d": 1454.3267291666416,
      "v": 78
    },
    {
      "midi": 67,
      "hit": false,
      "t": 175372.57277083365,
      "d": 1472.3555729166546,
      "v": 78
    },
    {
      "midi": 58,
      "hit": false,
      "t": 175372.57277083365,
      "d": 1520.432489583327,
      "v": 66
    },
    {
      "midi": 96,
      "hit": false,
      "t": 176790.8418125003,
      "d": 96.15383333334466,
      "v": 63
    },
    {
      "midi": 95,
      "hit": false,
      "t": 176862.95718750032,
      "d": 102.16344791665324,
      "v": 41
    },
    {
      "midi": 93,
      "hit": false,
      "t": 176941.08217708365,
      "d": 96.15383333331556,
      "v": 47
    },
    {
      "midi": 91,
      "hit": false,
      "t": 177013.19755208364,
      "d": 90.14421874997788,
      "v": 50
    },
    {
      "midi": 89,
      "hit": false,
      "t": 177079.3033125003,
      "d": 78.12498958333163,
      "v": 51
    },
    {
      "midi": 88,
      "hit": false,
      "t": 177139.39945833362,
      "d": 72.11537500002305,
      "v": 52
    },
    {
      "midi": 86,
      "hit": false,
      "t": 177193.48598958363,
      "d": 72.11537499999395,
      "v": 54
    },
    {
      "midi": 84,
      "hit": false,
      "t": 177241.5629062503,
      "d": 66.10576041665627,
      "v": 50
    },
    {
      "midi": 83,
      "hit": false,
      "t": 177289.63982291694,
      "d": 60.09614583334769,
      "v": 48
    },
    {
      "midi": 81,
      "hit": false,
      "t": 177331.70712500028,
      "d": 60.09614583334769,
      "v": 53
    },
    {
      "midi": 79,
      "hit": false,
      "t": 177373.7744270836,
      "d": 60.09614583334769,
      "v": 54
    },
    {
      "midi": 77,
      "hit": false,
      "t": 177409.83211458364,
      "d": 60.09614583334769,
      "v": 54
    },
    {
      "midi": 76,
      "hit": false,
      "t": 177451.89941666697,
      "d": 60.09614583334769,
      "v": 52
    },
    {
      "midi": 74,
      "hit": false,
      "t": 177487.957104167,
      "d": 60.09614583334769,
      "v": 57
    },
    {
      "midi": 72,
      "hit": false,
      "t": 177530.02440625033,
      "d": 60.09614583334769,
      "v": 54
    },
    {
      "midi": 71,
      "hit": false,
      "t": 177572.09170833367,
      "d": 54.08653125001001,
      "v": 52
    },
    {
      "midi": 69,
      "hit": false,
      "t": 177614.159010417,
      "d": 60.09614583331859,
      "v": 54
    },
    {
      "midi": 67,
      "hit": false,
      "t": 177650.216697917,
      "d": 54.08653124998091,
      "v": 57
    },
    {
      "midi": 68,
      "hit": false,
      "t": 177974.73588541697,
      "d": 84.1346041666693,
      "v": 94
    },
    {
      "midi": 72,
      "hit": false,
      "t": 177974.73588541697,
      "d": 84.1346041666693,
      "v": 100
    },
    {
      "midi": 65,
      "hit": false,
      "t": 177980.7455000003,
      "d": 72.11537499999395,
      "v": 91
    },
    {
      "midi": 67,
      "hit": false,
      "t": 178263.19738541698,
      "d": 72.11537499999395,
      "v": 96
    },
    {
      "midi": 70,
      "hit": false,
      "t": 178263.19738541698,
      "d": 78.12498958333163,
      "v": 90
    },
    {
      "midi": 62,
      "hit": false,
      "t": 178263.19738541698,
      "d": 84.1346041666693,
      "v": 85
    },
    {
      "midi": 65,
      "hit": false,
      "t": 178563.67811458366,
      "d": 1364.1825104166637,
      "v": 92
    },
    {
      "midi": 68,
      "hit": false,
      "t": 178563.67811458366,
      "d": 1364.1825104166637,
      "v": 82
    },
    {
      "midi": 60,
      "hit": false,
      "t": 178563.67811458366,
      "d": 1418.2690416666737,
      "v": 82
    },
    {
      "midi": 68,
      "hit": false,
      "t": 180282.427885417,
      "d": 78.12498958333163,
      "v": 87
    },
    {
      "midi": 60,
      "hit": false,
      "t": 180282.427885417,
      "d": 96.15383333334466,
      "v": 85
    },
    {
      "midi": 65,
      "hit": false,
      "t": 180282.427885417,
      "d": 96.15383333334466,
      "v": 93
    },
    {
      "midi": 58,
      "hit": false,
      "t": 180570.88938541702,
      "d": 66.10576041665627,
      "v": 72
    },
    {
      "midi": 63,
      "hit": false,
      "t": 180570.88938541702,
      "d": 78.12498958333163,
      "v": 73
    },
    {
      "midi": 67,
      "hit": false,
      "t": 180570.88938541702,
      "d": 96.15383333334466,
      "v": 90
    },
    {
      "midi": 60,
      "hit": false,
      "t": 180859.35088541702,
      "d": 1243.9902187499974,
      "v": 91
    },
    {
      "midi": 65,
      "hit": false,
      "t": 180859.35088541702,
      "d": 1256.0094479166728,
      "v": 85
    },
    {
      "midi": 56,
      "hit": false,
      "t": 180859.35088541702,
      "d": 1280.0479062499944,
      "v": 66
    },
    {
      "midi": 58,
      "hit": false,
      "t": 182295.64877083368,
      "d": 4374.999416666658,
      "v": 72
    },
    {
      "midi": 62,
      "hit": false,
      "t": 182301.65838541702,
      "d": 4362.980187499983,
      "v": 85
    },
    {
      "midi": 65,
      "hit": false,
      "t": 182307.66800000035,
      "d": 4332.932114583324,
      "v": 83
    },
    {
      "midi": 70,
      "hit": false,
      "t": 182584.11027083368,
      "d": 4116.585989583313,
      "v": 72
    },
    {
      "midi": 70,
      "hit": false,
      "t": 186899.013541667,
      "d": 2301.6823854167014,
      "v": 61
    },
    {
      "midi": 62,
      "hit": false,
      "t": 186905.02315625033,
      "d": 2331.7304583333607,
      "v": 71
    },
    {
      "midi": 65,
      "hit": false,
      "t": 186911.03277083367,
      "d": 2271.634312500013,
      "v": 85
    },
    {
      "midi": 68,
      "hit": false,
      "t": 189513.19588541702,
      "d": 84.1346041666693,
      "v": 94
    },
    {
      "midi": 72,
      "hit": false,
      "t": 189513.19588541702,
      "d": 84.1346041666693,
      "v": 100
    },
    {
      "midi": 65,
      "hit": false,
      "t": 189519.20550000036,
      "d": 72.11537499999395,
      "v": 91
    },
    {
      "midi": 67,
      "hit": false,
      "t": 189801.65738541703,
      "d": 72.11537499999395,
      "v": 96
    },
    {
      "midi": 70,
      "hit": false,
      "t": 189801.65738541703,
      "d": 78.12498958333163,
      "v": 90
    },
    {
      "midi": 62,
      "hit": false,
      "t": 189801.65738541703,
      "d": 84.1346041666693,
      "v": 85
    },
    {
      "midi": 65,
      "hit": false,
      "t": 190102.1381145837,
      "d": 1364.1825104166637,
      "v": 92
    },
    {
      "midi": 68,
      "hit": false,
      "t": 190102.1381145837,
      "d": 1364.1825104166637,
      "v": 82
    },
    {
      "midi": 60,
      "hit": false,
      "t": 190102.1381145837,
      "d": 1418.2690416666737,
      "v": 82
    },
    {
      "midi": 68,
      "hit": false,
      "t": 191820.88788541706,
      "d": 78.12498958333163,
      "v": 87
    },
    {
      "midi": 60,
      "hit": false,
      "t": 191820.88788541706,
      "d": 96.15383333334466,
      "v": 85
    },
    {
      "midi": 65,
      "hit": false,
      "t": 191820.88788541706,
      "d": 96.15383333334466,
      "v": 93
    },
    {
      "midi": 58,
      "hit": false,
      "t": 192109.34938541707,
      "d": 66.10576041665627,
      "v": 72
    },
    {
      "midi": 63,
      "hit": false,
      "t": 192109.34938541707,
      "d": 78.12498958333163,
      "v": 73
    },
    {
      "midi": 67,
      "hit": false,
      "t": 192109.34938541707,
      "d": 96.15383333334466,
      "v": 90
    },
    {
      "midi": 60,
      "hit": false,
      "t": 192397.81088541707,
      "d": 1243.9902187499974,
      "v": 91
    },
    {
      "midi": 65,
      "hit": false,
      "t": 192397.81088541707,
      "d": 1256.0094479166728,
      "v": 85
    },
    {
      "midi": 56,
      "hit": false,
      "t": 192397.81088541707,
      "d": 1280.0479062499944,
      "v": 66
    },
    {
      "midi": 58,
      "hit": false,
      "t": 193834.10877083373,
      "d": 4374.999416666658,
      "v": 72
    },
    {
      "midi": 62,
      "hit": false,
      "t": 193840.11838541707,
      "d": 4362.980187499983,
      "v": 85
    },
    {
      "midi": 65,
      "hit": false,
      "t": 193846.1280000004,
      "d": 4332.932114583324,
      "v": 83
    },
    {
      "midi": 70,
      "hit": false,
      "t": 194122.57027083373,
      "d": 4116.585989583313,
      "v": 72
    },
    {
      "midi": 65,
      "hit": false,
      "t": 198755.9831145837,
      "d": 90.14421875000698,
      "v": 78
    },
    {
      "midi": 68,
      "hit": false,
      "t": 198755.9831145837,
      "d": 90.14421875000698,
      "v": 76
    },
    {
      "midi": 72,
      "hit": false,
      "t": 198755.9831145837,
      "d": 90.14421875000698,
      "v": 89
    },
    {
      "midi": 62,
      "hit": false,
      "t": 199044.4446145837,
      "d": 72.11537499999395,
      "v": 89
    },
    {
      "midi": 67,
      "hit": false,
      "t": 199044.4446145837,
      "d": 78.12498958333163,
      "v": 97
    },
    {
      "midi": 70,
      "hit": false,
      "t": 199044.4446145837,
      "d": 78.12498958333163,
      "v": 90
    },
    {
      "midi": 68,
      "hit": false,
      "t": 199326.89650000038,
      "d": 1424.2786562500114,
      "v": 75
    },
    {
      "midi": 65,
      "hit": false,
      "t": 199326.89650000038,
      "d": 1448.317114583333,
      "v": 91
    },
    {
      "midi": 60,
      "hit": false,
      "t": 199326.89650000038,
      "d": 1478.3651874999923,
      "v": 78
    },
    {
      "midi": 65,
      "hit": false,
      "t": 201051.65588541704,
      "d": 90.14421875000698,
      "v": 103
    },
    {
      "midi": 68,
      "hit": false,
      "t": 201051.65588541704,
      "d": 102.16344791668234,
      "v": 98
    },
    {
      "midi": 60,
      "hit": false,
      "t": 201051.65588541704,
      "d": 108.17306250002002,
      "v": 88
    },
    {
      "midi": 67,
      "hit": false,
      "t": 201340.11738541708,
      "d": 84.1346041666693,
      "v": 81
    },
    {
      "midi": 58,
      "hit": false,
      "t": 201340.11738541708,
      "d": 90.14421875000698,
      "v": 77
    },
    {
      "midi": 63,
      "hit": false,
      "t": 201340.11738541708,
      "d": 90.14421875000698,
      "v": 92
    },
    {
      "midi": 60,
      "hit": false,
      "t": 201628.57888541708,
      "d": 1195.913302083325,
      "v": 91
    },
    {
      "midi": 65,
      "hit": false,
      "t": 201628.57888541708,
      "d": 1237.9806041666598,
      "v": 83
    },
    {
      "midi": 56,
      "hit": false,
      "t": 201628.57888541708,
      "d": 1256.0094479166728,
      "v": 65
    },
    {
      "midi": 68,
      "hit": false,
      "t": 203359.34788541708,
      "d": 84.1346041666693,
      "v": 94
    },
    {
      "midi": 72,
      "hit": false,
      "t": 203359.34788541708,
      "d": 84.1346041666693,
      "v": 100
    },
    {
      "midi": 65,
      "hit": false,
      "t": 203365.35750000042,
      "d": 72.11537499999395,
      "v": 91
    },
    {
      "midi": 67,
      "hit": false,
      "t": 203647.8093854171,
      "d": 72.11537499999395,
      "v": 96
    },
    {
      "midi": 70,
      "hit": false,
      "t": 203647.8093854171,
      "d": 78.12498958333163,
      "v": 90
    },
    {
      "midi": 62,
      "hit": false,
      "t": 203647.8093854171,
      "d": 84.1346041666693,
      "v": 85
    },
    {
      "midi": 65,
      "hit": false,
      "t": 203948.29011458377,
      "d": 1364.1825104166637,
      "v": 92
    },
    {
      "midi": 68,
      "hit": false,
      "t": 203948.29011458377,
      "d": 1364.1825104166637,
      "v": 82
    },
    {
      "midi": 60,
      "hit": false,
      "t": 203948.29011458377,
      "d": 1418.2690416666737,
      "v": 82
    },
    {
      "midi": 68,
      "hit": false,
      "t": 205667.03988541712,
      "d": 78.12498958333163,
      "v": 87
    },
    {
      "midi": 60,
      "hit": false,
      "t": 205667.03988541712,
      "d": 96.15383333334466,
      "v": 85
    },
    {
      "midi": 65,
      "hit": false,
      "t": 205667.03988541712,
      "d": 96.15383333334466,
      "v": 93
    },
    {
      "midi": 58,
      "hit": false,
      "t": 205955.50138541713,
      "d": 66.10576041665627,
      "v": 72
    },
    {
      "midi": 63,
      "hit": false,
      "t": 205955.50138541713,
      "d": 78.12498958333163,
      "v": 73
    },
    {
      "midi": 67,
      "hit": false,
      "t": 205955.50138541713,
      "d": 96.15383333334466,
      "v": 90
    },
    {
      "midi": 60,
      "hit": false,
      "t": 206243.96288541713,
      "d": 1243.9902187499974,
      "v": 91
    },
    {
      "midi": 65,
      "hit": false,
      "t": 206243.96288541713,
      "d": 1256.0094479166728,
      "v": 85
    },
    {
      "midi": 56,
      "hit": false,
      "t": 206243.96288541713,
      "d": 1280.0479062499944,
      "v": 66
    },
    {
      "midi": 58,
      "hit": false,
      "t": 207680.2607708338,
      "d": 4374.999416666658,
      "v": 72
    },
    {
      "midi": 62,
      "hit": false,
      "t": 207686.27038541713,
      "d": 4362.980187499983,
      "v": 85
    },
    {
      "midi": 65,
      "hit": false,
      "t": 207692.28000000046,
      "d": 4332.932114583324,
      "v": 83
    },
    {
      "midi": 70,
      "hit": false,
      "t": 207968.7222708338,
      "d": 4116.585989583313,
      "v": 72
    },
    {
      "midi": 70,
      "hit": false,
      "t": 212283.6255416671,
      "d": 2301.6823854167014,
      "v": 61
    },
    {
      "midi": 62,
      "hit": false,
      "t": 212289.63515625044,
      "d": 2331.7304583333607,
      "v": 71
    },
    {
      "midi": 65,
      "hit": false,
      "t": 212295.64477083378,
      "d": 2271.634312500013,
      "v": 85
    },
    {
      "midi": 68,
      "hit": false,
      "t": 214897.80788541713,
      "d": 84.1346041666693,
      "v": 94
    },
    {
      "midi": 72,
      "hit": false,
      "t": 214897.80788541713,
      "d": 84.1346041666693,
      "v": 100
    },
    {
      "midi": 65,
      "hit": false,
      "t": 214903.81750000047,
      "d": 72.11537499999395,
      "v": 91
    },
    {
      "midi": 67,
      "hit": false,
      "t": 215186.26938541714,
      "d": 72.11537499999395,
      "v": 96
    },
    {
      "midi": 70,
      "hit": false,
      "t": 215186.26938541714,
      "d": 78.12498958333163,
      "v": 90
    },
    {
      "midi": 62,
      "hit": false,
      "t": 215186.26938541714,
      "d": 84.1346041666693,
      "v": 85
    },
    {
      "midi": 65,
      "hit": false,
      "t": 215486.75011458382,
      "d": 1364.1825104166637,
      "v": 92
    },
    {
      "midi": 68,
      "hit": false,
      "t": 215486.75011458382,
      "d": 1364.1825104166637,
      "v": 82
    },
    {
      "midi": 60,
      "hit": false,
      "t": 215486.75011458382,
      "d": 1418.2690416666737,
      "v": 82
    },
    {
      "midi": 68,
      "hit": false,
      "t": 217205.49988541717,
      "d": 78.12498958333163,
      "v": 87
    },
    {
      "midi": 60,
      "hit": false,
      "t": 217205.49988541717,
      "d": 96.15383333334466,
      "v": 85
    },
    {
      "midi": 65,
      "hit": false,
      "t": 217205.49988541717,
      "d": 96.15383333334466,
      "v": 93
    },
    {
      "midi": 58,
      "hit": false,
      "t": 217493.96138541718,
      "d": 66.10576041665627,
      "v": 72
    },
    {
      "midi": 63,
      "hit": false,
      "t": 217493.96138541718,
      "d": 78.12498958333163,
      "v": 73
    },
    {
      "midi": 67,
      "hit": false,
      "t": 217493.96138541718,
      "d": 96.15383333334466,
      "v": 90
    },
    {
      "midi": 60,
      "hit": false,
      "t": 217782.42288541718,
      "d": 1243.9902187499974,
      "v": 91
    },
    {
      "midi": 65,
      "hit": false,
      "t": 217782.42288541718,
      "d": 1256.0094479166728,
      "v": 85
    },
    {
      "midi": 56,
      "hit": false,
      "t": 217782.42288541718,
      "d": 1280.0479062499944,
      "v": 66
    },
    {
      "midi": 58,
      "hit": false,
      "t": 219218.72077083384,
      "d": 4374.999416666658,
      "v": 72
    },
    {
      "midi": 62,
      "hit": false,
      "t": 219224.73038541718,
      "d": 4362.980187499983,
      "v": 85
    },
    {
      "midi": 65,
      "hit": false,
      "t": 219230.74000000051,
      "d": 4332.932114583324,
      "v": 83
    },
    {
      "midi": 70,
      "hit": false,
      "t": 219507.18227083384,
      "d": 4116.585989583313,
      "v": 72
    },
    {
      "midi": 65,
      "hit": false,
      "t": 224140.59511458382,
      "d": 90.14421875000698,
      "v": 78
    },
    {
      "midi": 68,
      "hit": false,
      "t": 224140.59511458382,
      "d": 90.14421875000698,
      "v": 76
    },
    {
      "midi": 72,
      "hit": false,
      "t": 224140.59511458382,
      "d": 90.14421875000698,
      "v": 89
    },
    {
      "midi": 62,
      "hit": false,
      "t": 224429.05661458382,
      "d": 72.11537499999395,
      "v": 89
    },
    {
      "midi": 67,
      "hit": false,
      "t": 224429.05661458382,
      "d": 78.12498958333163,
      "v": 97
    },
    {
      "midi": 70,
      "hit": false,
      "t": 224429.05661458382,
      "d": 78.12498958333163,
      "v": 90
    },
    {
      "midi": 68,
      "hit": false,
      "t": 224711.5085000005,
      "d": 1424.2786562500114,
      "v": 75
    },
    {
      "midi": 65,
      "hit": false,
      "t": 224711.5085000005,
      "d": 1448.317114583333,
      "v": 91
    },
    {
      "midi": 60,
      "hit": false,
      "t": 224711.5085000005,
      "d": 1478.3651874999923,
      "v": 78
    },
    {
      "midi": 65,
      "hit": false,
      "t": 226436.26788541715,
      "d": 90.14421875000698,
      "v": 103
    },
    {
      "midi": 68,
      "hit": false,
      "t": 226436.26788541715,
      "d": 102.16344791668234,
      "v": 98
    },
    {
      "midi": 60,
      "hit": false,
      "t": 226436.26788541715,
      "d": 108.17306250002002,
      "v": 88
    },
    {
      "midi": 67,
      "hit": false,
      "t": 226724.7293854172,
      "d": 84.1346041666693,
      "v": 81
    },
    {
      "midi": 58,
      "hit": false,
      "t": 226724.7293854172,
      "d": 90.14421875000698,
      "v": 77
    },
    {
      "midi": 63,
      "hit": false,
      "t": 226724.7293854172,
      "d": 90.14421875000698,
      "v": 92
    },
    {
      "midi": 60,
      "hit": false,
      "t": 227013.1908854172,
      "d": 1195.913302083325,
      "v": 91
    },
    {
      "midi": 65,
      "hit": false,
      "t": 227013.1908854172,
      "d": 1237.9806041666598,
      "v": 83
    },
    {
      "midi": 56,
      "hit": false,
      "t": 227013.1908854172,
      "d": 1256.0094479166728,
      "v": 65
    },
    {
      "midi": 68,
      "hit": false,
      "t": 228743.9598854172,
      "d": 84.1346041666693,
      "v": 94
    },
    {
      "midi": 72,
      "hit": false,
      "t": 228743.9598854172,
      "d": 84.1346041666693,
      "v": 100
    },
    {
      "midi": 65,
      "hit": false,
      "t": 228749.96950000053,
      "d": 72.11537499999395,
      "v": 91
    },
    {
      "midi": 67,
      "hit": false,
      "t": 229032.4213854172,
      "d": 72.11537499999395,
      "v": 96
    },
    {
      "midi": 70,
      "hit": false,
      "t": 229032.4213854172,
      "d": 78.12498958333163,
      "v": 90
    },
    {
      "midi": 62,
      "hit": false,
      "t": 229032.4213854172,
      "d": 84.1346041666693,
      "v": 85
    },
    {
      "midi": 65,
      "hit": false,
      "t": 229332.90211458388,
      "d": 1364.1825104166637,
      "v": 92
    },
    {
      "midi": 68,
      "hit": false,
      "t": 229332.90211458388,
      "d": 1364.1825104166637,
      "v": 82
    },
    {
      "midi": 60,
      "hit": false,
      "t": 229332.90211458388,
      "d": 1418.2690416666737,
      "v": 82
    },
    {
      "midi": 68,
      "hit": false,
      "t": 231051.65188541723,
      "d": 78.12498958333163,
      "v": 87
    },
    {
      "midi": 60,
      "hit": false,
      "t": 231051.65188541723,
      "d": 96.15383333334466,
      "v": 85
    },
    {
      "midi": 65,
      "hit": false,
      "t": 231051.65188541723,
      "d": 96.15383333334466,
      "v": 93
    },
    {
      "midi": 58,
      "hit": false,
      "t": 231340.11338541724,
      "d": 66.10576041665627,
      "v": 72
    },
    {
      "midi": 63,
      "hit": false,
      "t": 231340.11338541724,
      "d": 78.12498958333163,
      "v": 73
    },
    {
      "midi": 67,
      "hit": false,
      "t": 231340.11338541724,
      "d": 96.15383333334466,
      "v": 90
    },
    {
      "midi": 60,
      "hit": false,
      "t": 231628.57488541724,
      "d": 1243.9902187499974,
      "v": 91
    },
    {
      "midi": 65,
      "hit": false,
      "t": 231628.57488541724,
      "d": 1256.0094479166728,
      "v": 85
    },
    {
      "midi": 56,
      "hit": false,
      "t": 231628.57488541724,
      "d": 1280.0479062499944,
      "v": 66
    },
    {
      "midi": 58,
      "hit": false,
      "t": 233064.8727708339,
      "d": 4374.999416666658,
      "v": 72
    },
    {
      "midi": 62,
      "hit": false,
      "t": 233070.88238541724,
      "d": 4362.980187499983,
      "v": 85
    },
    {
      "midi": 65,
      "hit": false,
      "t": 233076.89200000057,
      "d": 4332.932114583324,
      "v": 83
    },
    {
      "midi": 70,
      "hit": false,
      "t": 233353.3342708339,
      "d": 4116.585989583313,
      "v": 72
    },
    {
      "midi": 70,
      "hit": false,
      "t": 237668.23754166721,
      "d": 2301.6823854167014,
      "v": 61
    },
    {
      "midi": 62,
      "hit": false,
      "t": 237674.24715625055,
      "d": 2331.7304583333607,
      "v": 71
    },
    {
      "midi": 65,
      "hit": false,
      "t": 237680.2567708339,
      "d": 2271.634312500013,
      "v": 85
    },
    {
      "midi": 68,
      "hit": false,
      "t": 240282.41988541724,
      "d": 84.1346041666693,
      "v": 94
    },
    {
      "midi": 72,
      "hit": false,
      "t": 240282.41988541724,
      "d": 84.1346041666693,
      "v": 100
    },
    {
      "midi": 65,
      "hit": false,
      "t": 240288.42950000058,
      "d": 72.11537499999395,
      "v": 91
    },
    {
      "midi": 67,
      "hit": false,
      "t": 240570.88138541725,
      "d": 72.11537499999395,
      "v": 96
    },
    {
      "midi": 70,
      "hit": false,
      "t": 240570.88138541725,
      "d": 78.12498958333163,
      "v": 90
    },
    {
      "midi": 62,
      "hit": false,
      "t": 240570.88138541725,
      "d": 84.1346041666693,
      "v": 85
    },
    {
      "midi": 65,
      "hit": false,
      "t": 240871.36211458393,
      "d": 1364.1825104166637,
      "v": 92
    },
    {
      "midi": 68,
      "hit": false,
      "t": 240871.36211458393,
      "d": 1364.1825104166637,
      "v": 82
    },
    {
      "midi": 60,
      "hit": false,
      "t": 240871.36211458393,
      "d": 1418.2690416666737,
      "v": 82
    },
    {
      "midi": 68,
      "hit": false,
      "t": 242590.11188541728,
      "d": 78.12498958333163,
      "v": 87
    },
    {
      "midi": 60,
      "hit": false,
      "t": 242590.11188541728,
      "d": 96.15383333334466,
      "v": 85
    },
    {
      "midi": 65,
      "hit": false,
      "t": 242590.11188541728,
      "d": 96.15383333334466,
      "v": 93
    },
    {
      "midi": 58,
      "hit": false,
      "t": 242878.5733854173,
      "d": 66.10576041665627,
      "v": 72
    },
    {
      "midi": 63,
      "hit": false,
      "t": 242878.5733854173,
      "d": 78.12498958333163,
      "v": 73
    },
    {
      "midi": 67,
      "hit": false,
      "t": 242878.5733854173,
      "d": 96.15383333334466,
      "v": 90
    },
    {
      "midi": 60,
      "hit": false,
      "t": 243167.0348854173,
      "d": 1243.9902187499974,
      "v": 91
    },
    {
      "midi": 65,
      "hit": false,
      "t": 243167.0348854173,
      "d": 1256.0094479166728,
      "v": 85
    },
    {
      "midi": 56,
      "hit": false,
      "t": 243167.0348854173,
      "d": 1280.0479062499944,
      "v": 66
    },
    {
      "midi": 58,
      "hit": false,
      "t": 244603.33277083395,
      "d": 4374.999416666658,
      "v": 72
    },
    {
      "midi": 62,
      "hit": false,
      "t": 244609.3423854173,
      "d": 4362.980187499983,
      "v": 85
    },
    {
      "midi": 65,
      "hit": false,
      "t": 244615.35200000062,
      "d": 4332.932114583324,
      "v": 83
    },
    {
      "midi": 70,
      "hit": false,
      "t": 244891.79427083395,
      "d": 4116.585989583313,
      "v": 72
    },
    {
      "midi": 65,
      "hit": false,
      "t": 249525.20711458393,
      "d": 90.14421875000698,
      "v": 78
    },
    {
      "midi": 68,
      "hit": false,
      "t": 249525.20711458393,
      "d": 90.14421875000698,
      "v": 76
    },
    {
      "midi": 72,
      "hit": false,
      "t": 249525.20711458393,
      "d": 90.14421875000698,
      "v": 89
    },
    {
      "midi": 62,
      "hit": false,
      "t": 249813.66861458393,
      "d": 72.11537499999395,
      "v": 89
    },
    {
      "midi": 67,
      "hit": false,
      "t": 249813.66861458393,
      "d": 78.12498958333163,
      "v": 97
    },
    {
      "midi": 70,
      "hit": false,
      "t": 249813.66861458393,
      "d": 78.12498958333163,
      "v": 90
    },
    {
      "midi": 68,
      "hit": false,
      "t": 250096.1205000006,
      "d": 1424.2786562500114,
      "v": 75
    },
    {
      "midi": 65,
      "hit": false,
      "t": 250096.1205000006,
      "d": 1448.317114583333,
      "v": 91
    },
    {
      "midi": 60,
      "hit": false,
      "t": 250096.1205000006,
      "d": 1478.3651874999923,
      "v": 78
    },
    {
      "midi": 65,
      "hit": false,
      "t": 251820.87988541726,
      "d": 90.14421875000698,
      "v": 103
    },
    {
      "midi": 68,
      "hit": false,
      "t": 251820.87988541726,
      "d": 102.16344791668234,
      "v": 98
    },
    {
      "midi": 60,
      "hit": false,
      "t": 251820.87988541726,
      "d": 108.17306250002002,
      "v": 88
    },
    {
      "midi": 67,
      "hit": false,
      "t": 252109.3413854173,
      "d": 84.1346041666693,
      "v": 81
    },
    {
      "midi": 58,
      "hit": false,
      "t": 252109.3413854173,
      "d": 90.14421875000698,
      "v": 77
    },
    {
      "midi": 63,
      "hit": false,
      "t": 252109.3413854173,
      "d": 90.14421875000698,
      "v": 92
    },
    {
      "midi": 60,
      "hit": false,
      "t": 252397.8028854173,
      "d": 1195.913302083325,
      "v": 91
    },
    {
      "midi": 65,
      "hit": false,
      "t": 252397.8028854173,
      "d": 1237.9806041666598,
      "v": 83
    },
    {
      "midi": 56,
      "hit": false,
      "t": 252397.8028854173,
      "d": 1256.0094479166728,
      "v": 65
    },
    {
      "midi": 68,
      "hit": false,
      "t": 254128.5718854173,
      "d": 84.1346041666693,
      "v": 94
    },
    {
      "midi": 72,
      "hit": false,
      "t": 254128.5718854173,
      "d": 84.1346041666693,
      "v": 100
    },
    {
      "midi": 65,
      "hit": false,
      "t": 254134.58150000064,
      "d": 72.11537499999395,
      "v": 91
    },
    {
      "midi": 67,
      "hit": false,
      "t": 254417.0333854173,
      "d": 72.11537499999395,
      "v": 96
    },
    {
      "midi": 70,
      "hit": false,
      "t": 254417.0333854173,
      "d": 78.12498958333163,
      "v": 90
    },
    {
      "midi": 62,
      "hit": false,
      "t": 254417.0333854173,
      "d": 84.1346041666693,
      "v": 85
    },
    {
      "midi": 65,
      "hit": false,
      "t": 254717.514114584,
      "d": 1364.1825104166637,
      "v": 92
    },
    {
      "midi": 68,
      "hit": false,
      "t": 254717.514114584,
      "d": 1364.1825104166637,
      "v": 82
    },
    {
      "midi": 60,
      "hit": false,
      "t": 254717.514114584,
      "d": 1418.2690416666737,
      "v": 82
    },
    {
      "midi": 68,
      "hit": false,
      "t": 256436.26388541734,
      "d": 78.12498958333163,
      "v": 87
    },
    {
      "midi": 60,
      "hit": false,
      "t": 256436.26388541734,
      "d": 96.15383333334466,
      "v": 85
    },
    {
      "midi": 65,
      "hit": false,
      "t": 256436.26388541734,
      "d": 96.15383333334466,
      "v": 93
    },
    {
      "midi": 58,
      "hit": false,
      "t": 256724.72538541735,
      "d": 66.10576041665627,
      "v": 72
    },
    {
      "midi": 63,
      "hit": false,
      "t": 256724.72538541735,
      "d": 78.12498958333163,
      "v": 73
    },
    {
      "midi": 67,
      "hit": false,
      "t": 256724.72538541735,
      "d": 96.15383333334466,
      "v": 90
    },
    {
      "midi": 60,
      "hit": false,
      "t": 257013.18688541735,
      "d": 1243.9902187499974,
      "v": 91
    },
    {
      "midi": 65,
      "hit": false,
      "t": 257013.18688541735,
      "d": 1256.0094479166728,
      "v": 85
    },
    {
      "midi": 56,
      "hit": false,
      "t": 257013.18688541735,
      "d": 1280.0479062499944,
      "v": 66
    },
    {
      "midi": 58,
      "hit": false,
      "t": 258449.484770834,
      "d": 4374.999416666717,
      "v": 72
    },
    {
      "midi": 62,
      "hit": false,
      "t": 258455.49438541735,
      "d": 4362.980187500041,
      "v": 85
    },
    {
      "midi": 65,
      "hit": false,
      "t": 258461.50400000068,
      "d": 4332.932114583353,
      "v": 83
    },
    {
      "midi": 70,
      "hit": false,
      "t": 258737.946270834,
      "d": 4116.5859895834,
      "v": 72
    },
    {
      "midi": 70,
      "hit": false,
      "t": 263052.84954166744,
      "d": 2301.6823854167014,
      "v": 61
    },
    {
      "midi": 62,
      "hit": false,
      "t": 263058.8591562508,
      "d": 2331.73045833339,
      "v": 71
    },
    {
      "midi": 65,
      "hit": false,
      "t": 263064.8687708341,
      "d": 2271.634312500013,
      "v": 85
    },
    {
      "midi": 68,
      "hit": false,
      "t": 265667.0318854175,
      "d": 84.1346041666693,
      "v": 94
    },
    {
      "midi": 72,
      "hit": false,
      "t": 265667.0318854175,
      "d": 84.1346041666693,
      "v": 100
    },
    {
      "midi": 65,
      "hit": false,
      "t": 265673.04150000087,
      "d": 72.11537499999395,
      "v": 91
    },
    {
      "midi": 67,
      "hit": false,
      "t": 265955.4933854175,
      "d": 72.11537499999395,
      "v": 96
    },
    {
      "midi": 70,
      "hit": false,
      "t": 265955.4933854175,
      "d": 78.12498958333163,
      "v": 90
    },
    {
      "midi": 62,
      "hit": false,
      "t": 265955.4933854175,
      "d": 84.1346041666693,
      "v": 85
    },
    {
      "midi": 65,
      "hit": false,
      "t": 266255.97411458415,
      "d": 1364.1825104166637,
      "v": 92
    },
    {
      "midi": 68,
      "hit": false,
      "t": 266255.97411458415,
      "d": 1364.1825104166637,
      "v": 82
    },
    {
      "midi": 60,
      "hit": false,
      "t": 266255.97411458415,
      "d": 1418.2690416666446,
      "v": 82
    },
    {
      "midi": 68,
      "hit": false,
      "t": 267974.72388541745,
      "d": 78.12498958333163,
      "v": 87
    },
    {
      "midi": 60,
      "hit": false,
      "t": 267974.72388541745,
      "d": 96.15383333334466,
      "v": 85
    },
    {
      "midi": 65,
      "hit": false,
      "t": 267974.72388541745,
      "d": 96.15383333334466,
      "v": 93
    },
    {
      "midi": 58,
      "hit": false,
      "t": 268263.1853854175,
      "d": 66.10576041665627,
      "v": 72
    },
    {
      "midi": 63,
      "hit": false,
      "t": 268263.1853854175,
      "d": 78.12498958333163,
      "v": 73
    },
    {
      "midi": 67,
      "hit": false,
      "t": 268263.1853854175,
      "d": 96.15383333334466,
      "v": 90
    },
    {
      "midi": 60,
      "hit": false,
      "t": 268551.6468854175,
      "d": 1243.9902187500265,
      "v": 91
    },
    {
      "midi": 65,
      "hit": false,
      "t": 268551.6468854175,
      "d": 1256.009447916702,
      "v": 85
    },
    {
      "midi": 56,
      "hit": false,
      "t": 268551.6468854175,
      "d": 1280.0479062500526,
      "v": 66
    },
    {
      "midi": 58,
      "hit": false,
      "t": 269987.94477083423,
      "d": 4374.999416666746,
      "v": 72
    },
    {
      "midi": 62,
      "hit": false,
      "t": 269993.9543854176,
      "d": 4362.98018750007,
      "v": 85
    },
    {
      "midi": 65,
      "hit": false,
      "t": 269999.9640000009,
      "d": 4332.932114583382,
      "v": 83
    },
    {
      "midi": 70,
      "hit": false,
      "t": 270276.40627083427,
      "d": 4116.5859895834,
      "v": 72
    },
    {
      "midi": 65,
      "hit": false,
      "t": 274909.81911458436,
      "d": 90.14421875000698,
      "v": 78
    },
    {
      "midi": 68,
      "hit": false,
      "t": 274909.81911458436,
      "d": 90.14421875000698,
      "v": 76
    },
    {
      "midi": 72,
      "hit": false,
      "t": 274909.81911458436,
      "d": 90.14421875000698,
      "v": 89
    },
    {
      "midi": 62,
      "hit": false,
      "t": 275198.28061458434,
      "d": 72.11537499999395,
      "v": 89
    },
    {
      "midi": 67,
      "hit": false,
      "t": 275198.28061458434,
      "d": 78.12498958333163,
      "v": 97
    },
    {
      "midi": 70,
      "hit": false,
      "t": 275198.28061458434,
      "d": 78.12498958333163,
      "v": 90
    },
    {
      "midi": 68,
      "hit": false,
      "t": 275480.732500001,
      "d": 1424.2786562500987,
      "v": 75
    },
    {
      "midi": 65,
      "hit": false,
      "t": 275480.732500001,
      "d": 1448.3171145834494,
      "v": 91
    },
    {
      "midi": 60,
      "hit": false,
      "t": 275480.732500001,
      "d": 1478.3651875001378,
      "v": 78
    },
    {
      "midi": 65,
      "hit": false,
      "t": 277205.4918854178,
      "d": 90.14421874994878,
      "v": 103
    },
    {
      "midi": 68,
      "hit": false,
      "t": 277205.4918854178,
      "d": 102.16344791662414,
      "v": 98
    },
    {
      "midi": 60,
      "hit": false,
      "t": 277205.4918854178,
      "d": 108.17306249996182,
      "v": 88
    },
    {
      "midi": 67,
      "hit": false,
      "t": 277493.95338541776,
      "d": 84.1346041666693,
      "v": 81
    },
    {
      "midi": 58,
      "hit": false,
      "t": 277493.95338541776,
      "d": 90.14421875000698,
      "v": 77
    },
    {
      "midi": 63,
      "hit": false,
      "t": 277493.95338541776,
      "d": 90.14421875000698,
      "v": 92
    },
    {
      "midi": 60,
      "hit": false,
      "t": 277782.4148854178,
      "d": 1195.9133020834415,
      "v": 91
    },
    {
      "midi": 65,
      "hit": false,
      "t": 277782.4148854178,
      "d": 1237.980604166747,
      "v": 83
    },
    {
      "midi": 56,
      "hit": false,
      "t": 277782.4148854178,
      "d": 1256.00944791676,
      "v": 65
    },
    {
      "midi": 68,
      "hit": false,
      "t": 279513.18388541794,
      "d": 84.1346041666693,
      "v": 94
    },
    {
      "midi": 72,
      "hit": false,
      "t": 279513.18388541794,
      "d": 84.1346041666693,
      "v": 100
    },
    {
      "midi": 65,
      "hit": false,
      "t": 279519.1935000013,
      "d": 72.11537499999395,
      "v": 91
    },
    {
      "midi": 67,
      "hit": false,
      "t": 279801.64538541797,
      "d": 72.11537499999395,
      "v": 96
    },
    {
      "midi": 70,
      "hit": false,
      "t": 279801.64538541797,
      "d": 78.12498958333163,
      "v": 90
    },
    {
      "midi": 62,
      "hit": false,
      "t": 279801.64538541797,
      "d": 84.1346041666693,
      "v": 85
    },
    {
      "midi": 65,
      "hit": false,
      "t": 280102.1261145846,
      "d": 1364.182510416722,
      "v": 92
    },
    {
      "midi": 68,
      "hit": false,
      "t": 280102.1261145846,
      "d": 1364.182510416722,
      "v": 82
    },
    {
      "midi": 60,
      "hit": false,
      "t": 280102.1261145846,
      "d": 1418.2690416667028,
      "v": 82
    },
    {
      "midi": 68,
      "hit": false,
      "t": 281820.87588541803,
      "d": 78.12498958333163,
      "v": 87
    },
    {
      "midi": 60,
      "hit": false,
      "t": 281820.87588541803,
      "d": 96.15383333334466,
      "v": 85
    },
    {
      "midi": 65,
      "hit": false,
      "t": 281820.87588541803,
      "d": 96.15383333334466,
      "v": 93
    },
    {
      "midi": 58,
      "hit": false,
      "t": 282109.337385418,
      "d": 66.10576041665627,
      "v": 72
    },
    {
      "midi": 63,
      "hit": false,
      "t": 282109.337385418,
      "d": 78.12498958333163,
      "v": 73
    },
    {
      "midi": 67,
      "hit": false,
      "t": 282109.337385418,
      "d": 96.15383333334466,
      "v": 90
    },
    {
      "midi": 60,
      "hit": false,
      "t": 282397.798885418,
      "d": 1243.9902187500848,
      "v": 91
    },
    {
      "midi": 65,
      "hit": false,
      "t": 282397.798885418,
      "d": 1256.00944791676,
      "v": 85
    },
    {
      "midi": 56,
      "hit": false,
      "t": 282397.798885418,
      "d": 1280.0479062501108,
      "v": 66
    },
    {
      "midi": 58,
      "hit": false,
      "t": 283834.09677083476,
      "d": 4374.99941666692,
      "v": 72
    },
    {
      "midi": 62,
      "hit": false,
      "t": 283840.1063854181,
      "d": 4362.980187500245,
      "v": 85
    },
    {
      "midi": 65,
      "hit": false,
      "t": 283846.11600000144,
      "d": 4332.9321145835565,
      "v": 83
    },
    {
      "midi": 70,
      "hit": false,
      "t": 284122.5582708348,
      "d": 4116.585989583575,
      "v": 72
    },
    {
      "midi": 56,
      "hit": false,
      "t": 288437.4615416684,
      "d": 570.9133854166721,
      "v": 61
    },
    {
      "midi": 60,
      "hit": false,
      "t": 288443.47115625173,
      "d": 570.9133854166721,
      "v": 71
    },
    {
      "midi": 65,
      "hit": false,
      "t": 288449.48077083507,
      "d": 570.9133854166721,
      "v": 85
    }
  ]
}