{
  "jsonPath": "Rock/Country Rock/Vern Gosdin/do-you-believe-me-now.json",
  "path": "Rock\\Country Rock\\Vern Gosdin\\Do You Believe Me Now.mid",
  "name": "Do You Believe Me Now",
  "difficulty": "Advanced",
  "bpm": 78.00017940041262,
  "notes": [
    {
      "midi": 32,
      "hit": false,
      "t": 20000,
      "d": 3723.9583333333358,
      "v": 94
    },
    {
      "midi": 51,
      "hit": false,
      "t": 20505.208333333332,
      "d": 640.625,
      "v": 90
    },
    {
      "midi": 56,
      "hit": false,
      "t": 20994.791666666664,
      "d": 687.5000000000036,
      "v": 94
    },
    {
      "midi": 51,
      "hit": false,
      "t": 21531.25,
      "d": 1562.5,
      "v": 93
    },
    {
      "midi": 56,
      "hit": false,
      "t": 21989.583333333336,
      "d": 901.0416666666642,
      "v": 93
    },
    {
      "midi": 60,
      "hit": false,
      "t": 22104.166666666668,
      "d": 1317.7083333333321,
      "v": 90
    },
    {
      "midi": 56,
      "hit": false,
      "t": 23010.416666666668,
      "d": 880.2083333333358,
      "v": 91
    },
    {
      "midi": 51,
      "hit": false,
      "t": 23447.916666666668,
      "d": 546.875,
      "v": 88
    },
    {
      "midi": 32,
      "hit": false,
      "t": 23958.333333333336,
      "d": 3755.2083333333285,
      "v": 94
    },
    {
      "midi": 51,
      "hit": false,
      "t": 24458.333333333336,
      "d": 671.875,
      "v": 97
    },
    {
      "midi": 56,
      "hit": false,
      "t": 24958.333333333336,
      "d": 625,
      "v": 98
    },
    {
      "midi": 51,
      "hit": false,
      "t": 25468.750000000004,
      "d": 1666.6666666666642,
      "v": 93
    },
    {
      "midi": 56,
      "hit": false,
      "t": 25984.375000000004,
      "d": 848.9583333333321,
      "v": 94
    },
    {
      "midi": 60,
      "hit": false,
      "t": 26093.750000000004,
      "d": 1416.6666666666606,
      "v": 96
    },
    {
      "midi": 56,
      "hit": false,
      "t": 26989.583333333336,
      "d": 614.5833333333285,
      "v": 91
    },
    {
      "midi": 51,
      "hit": false,
      "t": 27468.75,
      "d": 348.9583333333321,
      "v": 88
    },
    {
      "midi": 37,
      "hit": false,
      "t": 28000,
      "d": 3625.0000000000036,
      "v": 94
    },
    {
      "midi": 53,
      "hit": false,
      "t": 28520.833333333332,
      "d": 671.875,
      "v": 87
    },
    {
      "midi": 56,
      "hit": false,
      "t": 29005.208333333332,
      "d": 651.0416666666679,
      "v": 93
    },
    {
      "midi": 53,
      "hit": false,
      "t": 29520.833333333332,
      "d": 234.375,
      "v": 87
    },
    {
      "midi": 53,
      "hit": false,
      "t": 29854.166666666668,
      "d": 1187.5000000000036,
      "v": 90
    },
    {
      "midi": 56,
      "hit": false,
      "t": 29973.958333333336,
      "d": 765.625,
      "v": 86
    },
    {
      "midi": 61,
      "hit": false,
      "t": 30067.708333333336,
      "d": 1119.7916666666679,
      "v": 83
    },
    {
      "midi": 56,
      "hit": false,
      "t": 30953.125000000004,
      "d": 656.25,
      "v": 94
    },
    {
      "midi": 53,
      "hit": false,
      "t": 31447.91666666667,
      "d": 598.9583333333321,
      "v": 84
    },
    {
      "midi": 37,
      "hit": false,
      "t": 31932.29166666667,
      "d": 3666.6666666666642,
      "v": 88
    },
    {
      "midi": 53,
      "hit": false,
      "t": 32484.375000000004,
      "d": 609.3750000000036,
      "v": 86
    },
    {
      "midi": 56,
      "hit": false,
      "t": 32947.91666666667,
      "d": 546.875,
      "v": 93
    },
    {
      "midi": 53,
      "hit": false,
      "t": 33447.91666666667,
      "d": 166.66666666666424,
      "v": 86
    },
    {
      "midi": 53,
      "hit": false,
      "t": 33760.41666666667,
      "d": 1406.25,
      "v": 94
    },
    {
      "midi": 56,
      "hit": false,
      "t": 33895.833333333336,
      "d": 791.6666666666715,
      "v": 93
    },
    {
      "midi": 61,
      "hit": false,
      "t": 34088.54166666667,
      "d": 1494.7916666666642,
      "v": 86
    },
    {
      "midi": 56,
      "hit": false,
      "t": 35010.41666666667,
      "d": 661.4583333333285,
      "v": 93
    },
    {
      "midi": 53,
      "hit": false,
      "t": 35505.208333333336,
      "d": 447.91666666666424,
      "v": 92
    },
    {
      "midi": 39,
      "hit": false,
      "t": 36015.625,
      "d": 3572.9166666666642,
      "v": 88
    },
    {
      "midi": 55,
      "hit": false,
      "t": 36468.75,
      "d": 692.7083333333285,
      "v": 90
    },
    {
      "midi": 58,
      "hit": false,
      "t": 36994.791666666664,
      "d": 572.9166666666642,
      "v": 90
    },
    {
      "midi": 55,
      "hit": false,
      "t": 37494.791666666664,
      "d": 1609.375,
      "v": 88
    },
    {
      "midi": 58,
      "hit": false,
      "t": 37890.625,
      "d": 916.6666666666642,
      "v": 92
    },
    {
      "midi": 63,
      "hit": false,
      "t": 38026.041666666664,
      "d": 1083.3333333333358,
      "v": 83
    },
    {
      "midi": 58,
      "hit": false,
      "t": 38979.166666666664,
      "d": 546.875,
      "v": 87
    },
    {
      "midi": 55,
      "hit": false,
      "t": 39453.125,
      "d": 505.2083333333285,
      "v": 82
    },
    {
      "midi": 39,
      "hit": false,
      "t": 39973.95833333333,
      "d": 3843.75,
      "v": 84
    },
    {
      "midi": 55,
      "hit": false,
      "t": 40479.16666666666,
      "d": 697.9166666666715,
      "v": 93
    },
    {
      "midi": 58,
      "hit": false,
      "t": 40968.74999999999,
      "d": 552.0833333333358,
      "v": 94
    },
    {
      "midi": 55,
      "hit": false,
      "t": 41458.33333333333,
      "d": 187.5,
      "v": 88
    },
    {
      "midi": 55,
      "hit": false,
      "t": 41770.83333333333,
      "d": 1395.8333333333285,
      "v": 88
    },
    {
      "midi": 58,
      "hit": false,
      "t": 41874.99999999999,
      "d": 848.9583333333285,
      "v": 90
    },
    {
      "midi": 63,
      "hit": false,
      "t": 41994.79166666666,
      "d": 1473.9583333333358,
      "v": 91
    },
    {
      "midi": 58,
      "hit": false,
      "t": 42994.79166666666,
      "d": 630.2083333333358,
      "v": 91
    },
    {
      "midi": 55,
      "hit": false,
      "t": 43515.62499999999,
      "d": 343.75,
      "v": 95
    },
    {
      "midi": 32,
      "hit": false,
      "t": 44020.83333333333,
      "d": 3567.7083333333358,
      "v": 95
    },
    {
      "midi": 51,
      "hit": false,
      "t": 44499.99999999999,
      "d": 692.7083333333285,
      "v": 92
    },
    {
      "midi": 56,
      "hit": false,
      "t": 45010.41666666666,
      "d": 536.4583333333358,
      "v": 86
    },
    {
      "midi": 51,
      "hit": false,
      "t": 45463.54166666666,
      "d": 343.7500000000073,
      "v": 93
    },
    {
      "midi": 51,
      "hit": false,
      "t": 45890.625,
      "d": 1229.1666666666642,
      "v": 93
    },
    {
      "midi": 56,
      "hit": false,
      "t": 45968.75,
      "d": 744.7916666666642,
      "v": 89
    },
    {
      "midi": 60,
      "hit": false,
      "t": 46104.166666666664,
      "d": 1348.9583333333285,
      "v": 81
    },
    {
      "midi": 56,
      "hit": false,
      "t": 47005.20833333333,
      "d": 562.5,
      "v": 89
    },
    {
      "midi": 51,
      "hit": false,
      "t": 47442.70833333333,
      "d": 208.33333333333576,
      "v": 90
    },
    {
      "midi": 51,
      "hit": false,
      "t": 47875,
      "d": 2421.8750000000073,
      "v": 84
    },
    {
      "midi": 60,
      "hit": false,
      "t": 47901.041666666664,
      "d": 2359.3750000000073,
      "v": 88
    },
    {
      "midi": 56,
      "hit": false,
      "t": 47906.25,
      "d": 2432.2916666666715,
      "v": 81
    },
    {
      "midi": 32,
      "hit": false,
      "t": 47911.458333333336,
      "d": 2500,
      "v": 90
    },
    {
      "midi": 32,
      "hit": false,
      "t": 51984.375,
      "d": 3776.0416666666497,
      "v": 94
    },
    {
      "midi": 51,
      "hit": false,
      "t": 52500,
      "d": 645.8333333333285,
      "v": 94
    },
    {
      "midi": 56,
      "hit": false,
      "t": 52994.791666666664,
      "d": 666.666666666657,
      "v": 90
    },
    {
      "midi": 51,
      "hit": false,
      "t": 53499.99999999999,
      "d": 260.41666666666424,
      "v": 93
    },
    {
      "midi": 51,
      "hit": false,
      "t": 53833.33333333332,
      "d": 1411.4583333333285,
      "v": 86
    },
    {
      "midi": 56,
      "hit": false,
      "t": 53968.749999999985,
      "d": 921.875,
      "v": 88
    },
    {
      "midi": 60,
      "hit": false,
      "t": 54078.124999999985,
      "d": 1947.9166666666642,
      "v": 88
    },
    {
      "midi": 56,
      "hit": false,
      "t": 55062.499999999985,
      "d": 791.6666666666642,
      "v": 84
    },
    {
      "midi": 51,
      "hit": false,
      "t": 55499.999999999985,
      "d": 739.5833333333285,
      "v": 90
    },
    {
      "midi": 32,
      "hit": false,
      "t": 56026.04166666665,
      "d": 2713.5416666666642,
      "v": 93
    },
    {
      "midi": 51,
      "hit": false,
      "t": 57026.04166666665,
      "d": 2578.125,
      "v": 79
    },
    {
      "midi": 54,
      "hit": false,
      "t": 57432.29166666665,
      "d": 2166.6666666666642,
      "v": 94
    },
    {
      "midi": 60,
      "hit": false,
      "t": 57916.66666666665,
      "d": 1739.5833333333358,
      "v": 90
    },
    {
      "midi": 32,
      "hit": false,
      "t": 58953.12499999998,
      "d": 932.2916666666715,
      "v": 90
    },
    {
      "midi": 37,
      "hit": false,
      "t": 60015.624999999985,
      "d": 3651.0416666666715,
      "v": 90
    },
    {
      "midi": 53,
      "hit": false,
      "t": 60458.33333333332,
      "d": 697.9166666666715,
      "v": 80
    },
    {
      "midi": 56,
      "hit": false,
      "t": 60963.54166666666,
      "d": 598.9583333333358,
      "v": 93
    },
    {
      "midi": 53,
      "hit": false,
      "t": 61463.54166666666,
      "d": 270.83333333333576,
      "v": 90
    },
    {
      "midi": 53,
      "hit": false,
      "t": 61812.49999999999,
      "d": 1359.375,
      "v": 88
    },
    {
      "midi": 56,
      "hit": false,
      "t": 61906.24999999999,
      "d": 906.25,
      "v": 94
    },
    {
      "midi": 61,
      "hit": false,
      "t": 61989.58333333333,
      "d": 1427.0833333333285,
      "v": 94
    },
    {
      "midi": 56,
      "hit": false,
      "t": 62973.95833333333,
      "d": 671.8749999999927,
      "v": 92
    },
    {
      "midi": 53,
      "hit": false,
      "t": 63442.70833333332,
      "d": 651.0416666666642,
      "v": 91
    },
    {
      "midi": 37,
      "hit": false,
      "t": 63973.95833333332,
      "d": 3744.7916666666497,
      "v": 84
    },
    {
      "midi": 53,
      "hit": false,
      "t": 64447.91666666666,
      "d": 718.75,
      "v": 85
    },
    {
      "midi": 56,
      "hit": false,
      "t": 64963.54166666666,
      "d": 562.5,
      "v": 90
    },
    {
      "midi": 53,
      "hit": false,
      "t": 65473.95833333332,
      "d": 1401.0416666666642,
      "v": 86
    },
    {
      "midi": 56,
      "hit": false,
      "t": 65953.12499999999,
      "d": 1005.2083333333285,
      "v": 92
    },
    {
      "midi": 61,
      "hit": false,
      "t": 65953.12499999999,
      "d": 1557.291666666657,
      "v": 88
    },
    {
      "midi": 53,
      "hit": false,
      "t": 66989.58333333331,
      "d": 890.6249999999854,
      "v": 94
    },
    {
      "midi": 39,
      "hit": false,
      "t": 67989.5833333333,
      "d": 3671.8749999999854,
      "v": 93
    },
    {
      "midi": 51,
      "hit": false,
      "t": 68484.37499999996,
      "d": 593.75,
      "v": 94
    },
    {
      "midi": 55,
      "hit": false,
      "t": 68994.79166666663,
      "d": 541.666666666657,
      "v": 93
    },
    {
      "midi": 51,
      "hit": false,
      "t": 69468.74999999996,
      "d": 1093.75,
      "v": 90
    },
    {
      "midi": 55,
      "hit": false,
      "t": 69994.79166666663,
      "d": 1177.0833333333285,
      "v": 91
    },
    {
      "midi": 58,
      "hit": false,
      "t": 70041.66666666663,
      "d": 1447.916666666657,
      "v": 73
    },
    {
      "midi": 51,
      "hit": false,
      "t": 71010.41666666663,
      "d": 677.0833333333285,
      "v": 84
    },
    {
      "midi": 55,
      "hit": false,
      "t": 71499.99999999996,
      "d": 578.125,
      "v": 92
    },
    {
      "midi": 39,
      "hit": false,
      "t": 71963.54166666663,
      "d": 4010.4166666666715,
      "v": 85
    },
    {
      "midi": 55,
      "hit": false,
      "t": 72447.91666666663,
      "d": 770.8333333333285,
      "v": 90
    },
    {
      "midi": 58,
      "hit": false,
      "t": 73010.41666666663,
      "d": 536.4583333333285,
      "v": 86
    },
    {
      "midi": 55,
      "hit": false,
      "t": 73463.54166666663,
      "d": 1395.8333333333285,
      "v": 91
    },
    {
      "midi": 58,
      "hit": false,
      "t": 73984.37499999996,
      "d": 1630.208333333343,
      "v": 94
    },
    {
      "midi": 63,
      "hit": false,
      "t": 73999.99999999996,
      "d": 1338.5416666666715,
      "v": 91
    },
    {
      "midi": 55,
      "hit": false,
      "t": 75026.04166666663,
      "d": 786.458333333343,
      "v": 87
    },
    {
      "midi": 32,
      "hit": false,
      "t": 76026.04166666663,
      "d": 3536.458333333372,
      "v": 89
    },
    {
      "midi": 51,
      "hit": false,
      "t": 76499.99999999996,
      "d": 682.2916666666715,
      "v": 95
    },
    {
      "midi": 56,
      "hit": false,
      "t": 77010.41666666663,
      "d": 552.083333333343,
      "v": 84
    },
    {
      "midi": 51,
      "hit": false,
      "t": 77489.5833333333,
      "d": 1588.541666666686,
      "v": 90
    },
    {
      "midi": 56,
      "hit": false,
      "t": 77973.95833333331,
      "d": 750,
      "v": 81
    },
    {
      "midi": 60,
      "hit": false,
      "t": 78020.83333333331,
      "d": 1348.958333333343,
      "v": 79
    },
    {
      "midi": 56,
      "hit": false,
      "t": 79015.62499999999,
      "d": 552.083333333343,
      "v": 82
    },
    {
      "midi": 51,
      "hit": false,
      "t": 79473.95833333333,
      "d": 578.125,
      "v": 88
    },
    {
      "midi": 32,
      "hit": false,
      "t": 80005.20833333333,
      "d": 3703.125,
      "v": 77
    },
    {
      "midi": 51,
      "hit": false,
      "t": 80989.58333333333,
      "d": 781.25,
      "v": 93
    },
    {
      "midi": 51,
      "hit": false,
      "t": 81984.375,
      "d": 734.3749999999854,
      "v": 94
    },
    {
      "midi": 54,
      "hit": false,
      "t": 81989.58333333333,
      "d": 895.8333333333285,
      "v": 92
    },
    {
      "midi": 51,
      "hit": false,
      "t": 82958.33333333333,
      "d": 781.25,
      "v": 94
    },
    {
      "midi": 56,
      "hit": false,
      "t": 82958.33333333333,
      "d": 802.0833333333285,
      "v": 99
    },
    {
      "midi": 37,
      "hit": false,
      "t": 84052.08333333333,
      "d": 3619.791666666657,
      "v": 88
    },
    {
      "midi": 53,
      "hit": false,
      "t": 84546.875,
      "d": 687.5,
      "v": 93
    },
    {
      "midi": 56,
      "hit": false,
      "t": 84994.79166666667,
      "d": 557.2916666666715,
      "v": 93
    },
    {
      "midi": 53,
      "hit": false,
      "t": 85479.16666666667,
      "d": 1708.333333333314,
      "v": 88
    },
    {
      "midi": 56,
      "hit": false,
      "t": 85963.54166666667,
      "d": 822.916666666657,
      "v": 93
    },
    {
      "midi": 61,
      "hit": false,
      "t": 86000,
      "d": 1588.5416666666424,
      "v": 76
    },
    {
      "midi": 56,
      "hit": false,
      "t": 87026.04166666666,
      "d": 588.541666666657,
      "v": 82
    },
    {
      "midi": 53,
      "hit": false,
      "t": 87473.95833333331,
      "d": 557.2916666666861,
      "v": 86
    },
    {
      "midi": 37,
      "hit": false,
      "t": 88020.83333333333,
      "d": 3968.7500000000146,
      "v": 78
    },
    {
      "midi": 53,
      "hit": false,
      "t": 88479.16666666667,
      "d": 687.5,
      "v": 94
    },
    {
      "midi": 56,
      "hit": false,
      "t": 88958.33333333334,
      "d": 614.5833333333285,
      "v": 94
    },
    {
      "midi": 53,
      "hit": false,
      "t": 89473.95833333334,
      "d": 875,
      "v": 88
    },
    {
      "midi": 56,
      "hit": false,
      "t": 89963.54166666667,
      "d": 1223.958333333343,
      "v": 94
    },
    {
      "midi": 61,
      "hit": false,
      "t": 89989.58333333334,
      "d": 1250,
      "v": 93
    },
    {
      "midi": 53,
      "hit": false,
      "t": 91036.45833333334,
      "d": 619.791666666657,
      "v": 97
    },
    {
      "midi": 56,
      "hit": false,
      "t": 91526.04166666667,
      "d": 494.7916666666715,
      "v": 92
    },
    {
      "midi": 32,
      "hit": false,
      "t": 92000.00000000001,
      "d": 3661.458333333314,
      "v": 91
    },
    {
      "midi": 51,
      "hit": false,
      "t": 92515.625,
      "d": 635.4166666666715,
      "v": 90
    },
    {
      "midi": 56,
      "hit": false,
      "t": 92963.54166666667,
      "d": 546.875,
      "v": 90
    },
    {
      "midi": 51,
      "hit": false,
      "t": 93432.29166666667,
      "d": 1593.7499999999854,
      "v": 92
    },
    {
      "midi": 56,
      "hit": false,
      "t": 93927.08333333333,
      "d": 791.666666666657,
      "v": 80
    },
    {
      "midi": 60,
      "hit": false,
      "t": 93963.54166666666,
      "d": 1510.4166666666715,
      "v": 85
    },
    {
      "midi": 56,
      "hit": false,
      "t": 94979.16666666666,
      "d": 593.75,
      "v": 81
    },
    {
      "midi": 51,
      "hit": false,
      "t": 95479.16666666666,
      "d": 552.0833333333285,
      "v": 88
    },
    {
      "midi": 32,
      "hit": false,
      "t": 95947.91666666666,
      "d": 3739.583333333314,
      "v": 88
    },
    {
      "midi": 51,
      "hit": false,
      "t": 96484.37499999999,
      "d": 640.625,
      "v": 91
    },
    {
      "midi": 56,
      "hit": false,
      "t": 96963.54166666666,
      "d": 562.4999999999854,
      "v": 84
    },
    {
      "midi": 51,
      "hit": false,
      "t": 97447.91666666664,
      "d": 927.0833333333285,
      "v": 90
    },
    {
      "midi": 56,
      "hit": false,
      "t": 97947.91666666664,
      "d": 1125,
      "v": 90
    },
    {
      "midi": 60,
      "hit": false,
      "t": 97968.74999999997,
      "d": 1552.083333333343,
      "v": 84
    },
    {
      "midi": 51,
      "hit": false,
      "t": 99010.41666666664,
      "d": 625,
      "v": 91
    },
    {
      "midi": 34,
      "hit": false,
      "t": 99999.99999999997,
      "d": 3729.166666666657,
      "v": 89
    },
    {
      "midi": 53,
      "hit": false,
      "t": 100552.0833333333,
      "d": 651.0416666666715,
      "v": 83
    },
    {
      "midi": 56,
      "hit": false,
      "t": 100973.9583333333,
      "d": 614.583333333343,
      "v": 94
    },
    {
      "midi": 53,
      "hit": false,
      "t": 101468.74999999997,
      "d": 1713.541666666657,
      "v": 89
    },
    {
      "midi": 56,
      "hit": false,
      "t": 101921.87499999997,
      "d": 869.791666666657,
      "v": 91
    },
    {
      "midi": 62,
      "hit": false,
      "t": 101927.0833333333,
      "d": 1906.25,
      "v": 83
    },
    {
      "midi": 56,
      "hit": false,
      "t": 102999.99999999996,
      "d": 630.208333333343,
      "v": 88
    },
    {
      "midi": 53,
      "hit": false,
      "t": 103473.9583333333,
      "d": 562.5,
      "v": 81
    },
    {
      "midi": 34,
      "hit": false,
      "t": 103984.37499999997,
      "d": 3911.4583333333285,
      "v": 85
    },
    {
      "midi": 53,
      "hit": false,
      "t": 104468.74999999997,
      "d": 760.4166666666715,
      "v": 90
    },
    {
      "midi": 56,
      "hit": false,
      "t": 104984.37499999997,
      "d": 588.5416666666715,
      "v": 91
    },
    {
      "midi": 53,
      "hit": false,
      "t": 105473.95833333331,
      "d": 1296.875,
      "v": 88
    },
    {
      "midi": 56,
      "hit": false,
      "t": 105942.70833333331,
      "d": 848.9583333333285,
      "v": 90
    },
    {
      "midi": 62,
      "hit": false,
      "t": 105994.79166666664,
      "d": 1661.4583333333285,
      "v": 90
    },
    {
      "midi": 53,
      "hit": false,
      "t": 107015.62499999997,
      "d": 614.5833333333285,
      "v": 88
    },
    {
      "midi": 39,
      "hit": false,
      "t": 107968.74999999997,
      "d": 3416.666666666686,
      "v": 90
    },
    {
      "midi": 55,
      "hit": false,
      "t": 108458.3333333333,
      "d": 755.2083333333285,
      "v": 87
    },
    {
      "midi": 58,
      "hit": false,
      "t": 108973.9583333333,
      "d": 562.5,
      "v": 94
    },
    {
      "midi": 55,
      "hit": false,
      "t": 109505.2083333333,
      "d": 166.66666666667152,
      "v": 91
    },
    {
      "midi": 55,
      "hit": false,
      "t": 109817.70833333331,
      "d": 1260.416666666686,
      "v": 88
    },
    {
      "midi": 58,
      "hit": false,
      "t": 109906.24999999999,
      "d": 765.6250000000146,
      "v": 94
    },
    {
      "midi": 63,
      "hit": false,
      "t": 110041.66666666666,
      "d": 1260.4166666666715,
      "v": 86
    },
    {
      "midi": 58,
      "hit": false,
      "t": 111000,
      "d": 828.1249999999854,
      "v": 90
    },
    {
      "midi": 63,
      "hit": false,
      "t": 112010.41666666666,
      "d": 1989.5833333333285,
      "v": 91
    },
    {
      "midi": 39,
      "hit": false,
      "t": 112026.04166666666,
      "d": 2093.75,
      "v": 88
    },
    {
      "midi": 55,
      "hit": false,
      "t": 112031.24999999999,
      "d": 2046.875,
      "v": 84
    },
    {
      "midi": 58,
      "hit": false,
      "t": 112046.87499999999,
      "d": 2015.625,
      "v": 89
    },
    {
      "midi": 32,
      "hit": false,
      "t": 115958.33333333333,
      "d": 3723.958333333343,
      "v": 90
    },
    {
      "midi": 51,
      "hit": false,
      "t": 116484.375,
      "d": 661.4583333333285,
      "v": 88
    },
    {
      "midi": 56,
      "hit": false,
      "t": 116989.58333333333,
      "d": 578.125,
      "v": 90
    },
    {
      "midi": 51,
      "hit": false,
      "t": 117505.20833333333,
      "d": 1651.0416666666715,
      "v": 87
    },
    {
      "midi": 56,
      "hit": false,
      "t": 117979.16666666667,
      "d": 828.125,
      "v": 80
    },
    {
      "midi": 60,
      "hit": false,
      "t": 118010.41666666667,
      "d": 1468.75,
      "v": 78
    },
    {
      "midi": 56,
      "hit": false,
      "t": 119046.875,
      "d": 880.208333333343,
      "v": 87
    },
    {
      "midi": 51,
      "hit": false,
      "t": 119494.79166666667,
      "d": 625.0000000000146,
      "v": 90
    },
    {
      "midi": 32,
      "hit": false,
      "t": 120000.00000000001,
      "d": 4010.4166666666715,
      "v": 88
    },
    {
      "midi": 51,
      "hit": false,
      "t": 120489.58333333334,
      "d": 645.8333333333285,
      "v": 81
    },
    {
      "midi": 56,
      "hit": false,
      "t": 120958.33333333334,
      "d": 619.791666666657,
      "v": 96
    },
    {
      "midi": 51,
      "hit": false,
      "t": 121479.16666666667,
      "d": 2208.333333333343,
      "v": 91
    },
    {
      "midi": 56,
      "hit": false,
      "t": 121880.20833333333,
      "d": 843.7500000000146,
      "v": 94
    },
    {
      "midi": 60,
      "hit": false,
      "t": 121994.79166666667,
      "d": 1598.958333333343,
      "v": 93
    },
    {
      "midi": 56,
      "hit": false,
      "t": 122989.58333333334,
      "d": 703.125,
      "v": 92
    },
    {
      "midi": 37,
      "hit": false,
      "t": 124000.00000000001,
      "d": 3682.2916666666715,
      "v": 91
    },
    {
      "midi": 53,
      "hit": false,
      "t": 124494.79166666669,
      "d": 692.708333333343,
      "v": 90
    },
    {
      "midi": 56,
      "hit": false,
      "t": 125005.20833333336,
      "d": 562.5,
      "v": 86
    },
    {
      "midi": 53,
      "hit": false,
      "t": 125500.00000000003,
      "d": 2552.0833333333285,
      "v": 84
    },
    {
      "midi": 56,
      "hit": false,
      "t": 125859.37500000003,
      "d": 822.916666666657,
      "v": 87
    },
    {
      "midi": 61,
      "hit": false,
      "t": 126000.00000000003,
      "d": 1166.666666666657,
      "v": 77
    },
    {
      "midi": 56,
      "hit": false,
      "t": 126994.79166666669,
      "d": 916.6666666666715,
      "v": 81
    },
    {
      "midi": 61,
      "hit": false,
      "t": 127473.95833333336,
      "d": 666.6666666666715,
      "v": 88
    },
    {
      "midi": 37,
      "hit": false,
      "t": 127973.95833333336,
      "d": 4010.4166666666424,
      "v": 90
    },
    {
      "midi": 53,
      "hit": false,
      "t": 128500.00000000003,
      "d": 661.4583333333285,
      "v": 88
    },
    {
      "midi": 56,
      "hit": false,
      "t": 128968.75000000003,
      "d": 630.2083333333285,
      "v": 88
    },
    {
      "midi": 53,
      "hit": false,
      "t": 129494.79166666669,
      "d": 1619.791666666657,
      "v": 83
    },
    {
      "midi": 56,
      "hit": false,
      "t": 129880.20833333336,
      "d": 895.8333333333285,
      "v": 93
    },
    {
      "midi": 61,
      "hit": false,
      "t": 130020.83333333336,
      "d": 1598.9583333332994,
      "v": 86
    },
    {
      "midi": 56,
      "hit": false,
      "t": 131000.00000000001,
      "d": 630.2083333332994,
      "v": 89
    },
    {
      "midi": 53,
      "hit": false,
      "t": 131468.75,
      "d": 401.04166666665697,
      "v": 90
    },
    {
      "midi": 39,
      "hit": false,
      "t": 131963.54166666666,
      "d": 3723.958333333372,
      "v": 88
    },
    {
      "midi": 55,
      "hit": false,
      "t": 132468.75,
      "d": 744.7916666666861,
      "v": 84
    },
    {
      "midi": 58,
      "hit": false,
      "t": 132973.95833333334,
      "d": 609.375,
      "v": 88
    },
    {
      "midi": 55,
      "hit": false,
      "t": 133505.20833333334,
      "d": 1572.916666666686,
      "v": 88
    },
    {
      "midi": 58,
      "hit": false,
      "t": 133921.87500000003,
      "d": 890.625,
      "v": 90
    },
    {
      "midi": 63,
      "hit": false,
      "t": 134046.87500000003,
      "d": 1406.25,
      "v": 90
    },
    {
      "midi": 58,
      "hit": false,
      "t": 134994.7916666667,
      "d": 807.2916666666861,
      "v": 84
    },
    {
      "midi": 55,
      "hit": false,
      "t": 135468.75000000003,
      "d": 567.708333333343,
      "v": 87
    },
    {
      "midi": 39,
      "hit": false,
      "t": 135932.29166666672,
      "d": 4093.7499999999127,
      "v": 84
    },
    {
      "midi": 55,
      "hit": false,
      "t": 136463.54166666672,
      "d": 677.0833333333139,
      "v": 88
    },
    {
      "midi": 58,
      "hit": false,
      "t": 136942.70833333337,
      "d": 598.9583333333139,
      "v": 91
    },
    {
      "midi": 55,
      "hit": false,
      "t": 137468.75000000003,
      "d": 1635.4166666665988,
      "v": 84
    },
    {
      "midi": 58,
      "hit": false,
      "t": 137812.5,
      "d": 802.0833333333139,
      "v": 92
    },
    {
      "midi": 63,
      "hit": false,
      "t": 137994.79166666666,
      "d": 1505.208333333314,
      "v": 84
    },
    {
      "midi": 58,
      "hit": false,
      "t": 138999.99999999997,
      "d": 588.541666666657,
      "v": 90
    },
    {
      "midi": 55,
      "hit": false,
      "t": 139484.37499999997,
      "d": 338.54166666665697,
      "v": 93
    },
    {
      "midi": 32,
      "hit": false,
      "t": 139973.95833333328,
      "d": 3671.875,
      "v": 93
    },
    {
      "midi": 51,
      "hit": false,
      "t": 140494.79166666663,
      "d": 630.208333333343,
      "v": 90
    },
    {
      "midi": 56,
      "hit": false,
      "t": 140937.49999999997,
      "d": 635.416666666657,
      "v": 93
    },
    {
      "midi": 51,
      "hit": false,
      "t": 141463.54166666663,
      "d": 1619.791666666657,
      "v": 89
    },
    {
      "midi": 56,
      "hit": false,
      "t": 141864.58333333328,
      "d": 833.3333333333139,
      "v": 92
    },
    {
      "midi": 60,
      "hit": false,
      "t": 141984.37499999994,
      "d": 1541.666666666686,
      "v": 83
    },
    {
      "midi": 56,
      "hit": false,
      "t": 142968.74999999994,
      "d": 786.458333333343,
      "v": 83
    },
    {
      "midi": 51,
      "hit": false,
      "t": 143458.33333333328,
      "d": 635.416666666657,
      "v": 90
    },
    {
      "midi": 32,
      "hit": false,
      "t": 143937.49999999994,
      "d": 3619.791666666686,
      "v": 90
    },
    {
      "midi": 51,
      "hit": false,
      "t": 144468.74999999994,
      "d": 739.5833333333139,
      "v": 85
    },
    {
      "midi": 56,
      "hit": false,
      "t": 144994.7916666666,
      "d": 578.125,
      "v": 90
    },
    {
      "midi": 51,
      "hit": false,
      "t": 145494.7916666666,
      "d": 2078.125000000029,
      "v": 90
    },
    {
      "midi": 60,
      "hit": false,
      "t": 145973.95833333328,
      "d": 1401.041666666686,
      "v": 84
    },
    {
      "midi": 56,
      "hit": false,
      "t": 145994.79166666663,
      "d": 828.125,
      "v": 90
    },
    {
      "midi": 56,
      "hit": false,
      "t": 146999.99999999997,
      "d": 677.0833333333139,
      "v": 89
    },
    {
      "midi": 75,
      "hit": false,
      "t": 148968.74999999994,
      "d": 572.9166666666861,
      "v": 110
    },
    {
      "midi": 80,
      "hit": false,
      "t": 149473.95833333328,
      "d": 536.458333333343,
      "v": 76
    },
    {
      "midi": 77,
      "hit": false,
      "t": 149953.12499999997,
      "d": 500,
      "v": 88
    },
    {
      "midi": 85,
      "hit": false,
      "t": 149979.16666666663,
      "d": 500,
      "v": 86
    },
    {
      "midi": 75,
      "hit": false,
      "t": 150463.54166666663,
      "d": 500,
      "v": 71
    },
    {
      "midi": 84,
      "hit": false,
      "t": 150468.74999999997,
      "d": 562.4999999999709,
      "v": 57
    },
    {
      "midi": 73,
      "hit": false,
      "t": 150973.95833333328,
      "d": 500,
      "v": 88
    },
    {
      "midi": 82,
      "hit": false,
      "t": 151005.20833333328,
      "d": 500,
      "v": 63
    },
    {
      "midi": 80,
      "hit": false,
      "t": 151468.74999999994,
      "d": 500,
      "v": 84
    },
    {
      "midi": 72,
      "hit": false,
      "t": 151473.95833333328,
      "d": 500,
      "v": 98
    },
    {
      "midi": 75,
      "hit": false,
      "t": 151953.12499999994,
      "d": 1916.666666666686,
      "v": 78
    },
    {
      "midi": 82,
      "hit": false,
      "t": 151968.74999999994,
      "d": 317.70833333334303,
      "v": 71
    },
    {
      "midi": 84,
      "hit": false,
      "t": 152171.87499999994,
      "d": 1729.166666666686,
      "v": 82
    },
    {
      "midi": 75,
      "hit": false,
      "t": 156427.08333333328,
      "d": 302.08333333331393,
      "v": 76
    },
    {
      "midi": 87,
      "hit": false,
      "t": 156510.4166666666,
      "d": 218.75,
      "v": 106
    },
    {
      "midi": 73,
      "hit": false,
      "t": 157192.70833333328,
      "d": 312.5,
      "v": 80
    },
    {
      "midi": 85,
      "hit": false,
      "t": 157296.87499999994,
      "d": 244.79166666668607,
      "v": 84
    },
    {
      "midi": 72,
      "hit": false,
      "t": 157937.49999999997,
      "d": 223.95833333334303,
      "v": 78
    },
    {
      "midi": 84,
      "hit": false,
      "t": 158031.24999999997,
      "d": 171.875,
      "v": 94
    },
    {
      "midi": 70,
      "hit": false,
      "t": 158437.49999999997,
      "d": 223.95833333334303,
      "v": 106
    },
    {
      "midi": 82,
      "hit": false,
      "t": 158484.37499999997,
      "d": 213.54166666668607,
      "v": 90
    },
    {
      "midi": 68,
      "hit": false,
      "t": 158906.25,
      "d": 171.875,
      "v": 90
    },
    {
      "midi": 80,
      "hit": false,
      "t": 158958.33333333334,
      "d": 208.33333333331393,
      "v": 78
    },
    {
      "midi": 70,
      "hit": false,
      "t": 159406.25,
      "d": 135.41666666668607,
      "v": 71
    },
    {
      "midi": 82,
      "hit": false,
      "t": 159442.70833333334,
      "d": 130.20833333334303,
      "v": 102
    },
    {
      "midi": 65,
      "hit": false,
      "t": 159937.50000000003,
      "d": 1125,
      "v": 45
    },
    {
      "midi": 77,
      "hit": false,
      "t": 160062.50000000003,
      "d": 1052.083333333343,
      "v": 47
    },
    {
      "midi": 39,
      "hit": false,
      "t": 164000.00000000003,
      "d": 3619.7916666667443,
      "v": 88
    },
    {
      "midi": 55,
      "hit": false,
      "t": 164500.00000000003,
      "d": 739.583333333343,
      "v": 84
    },
    {
      "midi": 58,
      "hit": false,
      "t": 165020.83333333337,
      "d": 552.083333333343,
      "v": 84
    },
    {
      "midi": 55,
      "hit": false,
      "t": 165479.16666666672,
      "d": 239.58333333334303,
      "v": 88
    },
    {
      "midi": 55,
      "hit": false,
      "t": 165848.9583333334,
      "d": 1260.416666666686,
      "v": 90
    },
    {
      "midi": 58,
      "hit": false,
      "t": 165958.3333333334,
      "d": 677.083333333343,
      "v": 81
    },
    {
      "midi": 63,
      "hit": false,
      "t": 166036.4583333334,
      "d": 1442.7083333333721,
      "v": 88
    },
    {
      "midi": 58,
      "hit": false,
      "t": 166979.16666666674,
      "d": 713.5416666666861,
      "v": 84
    },
    {
      "midi": 55,
      "hit": false,
      "t": 167458.33333333343,
      "d": 593.75,
      "v": 81
    },
    {
      "midi": 39,
      "hit": false,
      "t": 167989.58333333343,
      "d": 3812.500000000058,
      "v": 81
    },
    {
      "midi": 55,
      "hit": false,
      "t": 168458.33333333343,
      "d": 656.25,
      "v": 84
    },
    {
      "midi": 58,
      "hit": false,
      "t": 168953.1250000001,
      "d": 578.1250000000291,
      "v": 86
    },
    {
      "midi": 55,
      "hit": false,
      "t": 169463.54166666677,
      "d": 843.7500000000291,
      "v": 79
    },
    {
      "midi": 58,
      "hit": false,
      "t": 169906.25000000012,
      "d": 854.1666666666861,
      "v": 90
    },
    {
      "midi": 63,
      "hit": false,
      "t": 169958.33333333346,
      "d": 1479.166666666686,
      "v": 89
    },
    {
      "midi": 77,
      "hit": false,
      "t": 172000.00000000015,
      "d": 312.5,
      "v": 55
    },
    {
      "midi": 85,
      "hit": false,
      "t": 172000.00000000015,
      "d": 312.5,
      "v": 82
    },
    {
      "midi": 75,
      "hit": false,
      "t": 172463.5416666668,
      "d": 328.125,
      "v": 80
    },
    {
      "midi": 84,
      "hit": false,
      "t": 172562.50000000015,
      "d": 260.41666666665697,
      "v": 55
    },
    {
      "midi": 75,
      "hit": false,
      "t": 172953.12500000015,
      "d": 458.33333333331393,
      "v": 84
    },
    {
      "midi": 84,
      "hit": false,
      "t": 173010.4166666668,
      "d": 437.5,
      "v": 82
    },
    {
      "midi": 73,
      "hit": false,
      "t": 173500.00000000015,
      "d": 380.20833333334303,
      "v": 84
    },
    {
      "midi": 82,
      "hit": false,
      "t": 173567.7083333335,
      "d": 395.83333333331393,
      "v": 85
    },
    {
      "midi": 75,
      "hit": false,
      "t": 173906.25000000015,
      "d": 864.583333333343,
      "v": 86
    },
    {
      "midi": 84,
      "hit": false,
      "t": 174046.87500000015,
      "d": 708.333333333343,
      "v": 86
    },
    {
      "midi": 80,
      "hit": false,
      "t": 174947.91666666683,
      "d": 348.95833333334303,
      "v": 96
    },
    {
      "midi": 68,
      "hit": false,
      "t": 174963.54166666683,
      "d": 375,
      "v": 80
    },
    {
      "midi": 65,
      "hit": false,
      "t": 175234.37500000017,
      "d": 328.125,
      "v": 90
    },
    {
      "midi": 77,
      "hit": false,
      "t": 175250.00000000017,
      "d": 296.875,
      "v": 74
    },
    {
      "midi": 63,
      "hit": false,
      "t": 175484.37500000017,
      "d": 333.33333333334303,
      "v": 84
    },
    {
      "midi": 75,
      "hit": false,
      "t": 175494.79166666683,
      "d": 338.54166666668607,
      "v": 84
    },
    {
      "midi": 73,
      "hit": false,
      "t": 175973.95833333352,
      "d": 3427.083333333314,
      "v": 80
    },
    {
      "midi": 61,
      "hit": false,
      "t": 176015.62500000017,
      "d": 3479.166666666657,
      "v": 73
    },
    {
      "midi": 39,
      "hit": false,
      "t": 180000.00000000017,
      "d": 3770.833333333285,
      "v": 83
    },
    {
      "midi": 55,
      "hit": false,
      "t": 180463.54166666683,
      "d": 833.3333333333139,
      "v": 86
    },
    {
      "midi": 58,
      "hit": false,
      "t": 181000.00000000015,
      "d": 567.7083333333139,
      "v": 86
    },
    {
      "midi": 55,
      "hit": false,
      "t": 181463.5416666668,
      "d": 244.79166666665697,
      "v": 90
    },
    {
      "midi": 55,
      "hit": false,
      "t": 181828.12500000012,
      "d": 1890.625,
      "v": 88
    },
    {
      "midi": 58,
      "hit": false,
      "t": 181921.87500000012,
      "d": 1187.5,
      "v": 84
    },
    {
      "midi": 63,
      "hit": false,
      "t": 182015.62500000012,
      "d": 1854.166666666686,
      "v": 88
    },
    {
      "midi": 58,
      "hit": false,
      "t": 183458.33333333346,
      "d": 578.125,
      "v": 85
    },
    {
      "midi": 39,
      "hit": false,
      "t": 184026.0416666668,
      "d": 3328.125,
      "v": 86
    },
    {
      "midi": 55,
      "hit": false,
      "t": 184489.58333333346,
      "d": 708.3333333333139,
      "v": 80
    },
    {
      "midi": 58,
      "hit": false,
      "t": 184984.37500000012,
      "d": 578.125,
      "v": 87
    },
    {
      "midi": 55,
      "hit": false,
      "t": 185494.79166666677,
      "d": 1697.916666666686,
      "v": 83
    },
    {
      "midi": 58,
      "hit": false,
      "t": 185958.33333333343,
      "d": 1229.166666666686,
      "v": 83
    },
    {
      "midi": 63,
      "hit": false,
      "t": 185963.54166666677,
      "d": 1125,
      "v": 84
    },
    {
      "midi": 60,
      "hit": false,
      "t": 188000.00000000015,
      "d": 1713.541666666657,
      "v": 82
    },
    {
      "midi": 56,
      "hit": false,
      "t": 188000.00000000015,
      "d": 1718.75,
      "v": 80
    },
    {
      "midi": 51,
      "hit": false,
      "t": 188000.00000000015,
      "d": 1723.958333333343,
      "v": 80
    },
    {
      "midi": 44,
      "hit": false,
      "t": 188000.00000000015,
      "d": 1833.333333333343,
      "v": 88
    },
    {
      "midi": 44,
      "hit": false,
      "t": 190046.87500000015,
      "d": 1619.791666666657,
      "v": 88
    },
    {
      "midi": 53,
      "hit": false,
      "t": 190052.0833333335,
      "d": 1479.166666666657,
      "v": 80
    },
    {
      "midi": 61,
      "hit": false,
      "t": 190062.50000000015,
      "d": 1432.291666666657,
      "v": 82
    },
    {
      "midi": 56,
      "hit": false,
      "t": 190072.9166666668,
      "d": 1489.583333333343,
      "v": 82
    },
    {
      "midi": 44,
      "hit": false,
      "t": 192010.4166666668,
      "d": 4963.541666666628,
      "v": 86
    },
    {
      "midi": 51,
      "hit": false,
      "t": 192041.6666666668,
      "d": 4854.166666666628,
      "v": 87
    },
    {
      "midi": 60,
      "hit": false,
      "t": 192052.08333333346,
      "d": 4833.333333333314,
      "v": 81
    },
    {
      "midi": 56,
      "hit": false,
      "t": 192078.12500000012,
      "d": 4776.041666666657,
      "v": 71
    }
  ]
}