{
  "jsonPath": "Country/Irish Country/Dolores Keane/one-golden-rule.json",
  "path": "Country\\Irish Country\\Dolores Keane\\One Golden Rule.mid",
  "name": "One Golden Rule",
  "difficulty": "Advanced",
  "bpm": 85.00004250002125,
  "notes": [
    {
      "midi": 50,
      "hit": false,
      "t": 4000,
      "d": 1633.333333333333,
      "v": 54
    },
    {
      "midi": 66,
      "hit": false,
      "t": 4000,
      "d": 2000,
      "v": 57
    },
    {
      "midi": 69,
      "hit": false,
      "t": 4000,
      "d": 2041.666666666667,
      "v": 56
    },
    {
      "midi": 62,
      "hit": false,
      "t": 4000,
      "d": 2075,
      "v": 61
    },
    {
      "midi": 38,
      "hit": false,
      "t": 5500,
      "d": 2133.333333333333,
      "v": 49
    },
    {
      "midi": 50,
      "hit": false,
      "t": 6000,
      "d": 1908.333333333333,
      "v": 52
    },
    {
      "midi": 62,
      "hit": false,
      "t": 6500,
      "d": 1358.333333333333,
      "v": 76
    },
    {
      "midi": 66,
      "hit": false,
      "t": 7500,
      "d": 316.66666666666606,
      "v": 87
    },
    {
      "midi": 55,
      "hit": false,
      "t": 8500,
      "d": 1008.3333333333339,
      "v": 68
    },
    {
      "midi": 59,
      "hit": false,
      "t": 9000,
      "d": 675,
      "v": 85
    },
    {
      "midi": 62,
      "hit": false,
      "t": 9500,
      "d": 208.33333333333394,
      "v": 87
    },
    {
      "midi": 57,
      "hit": false,
      "t": 10033.333333333334,
      "d": 966.6666666666661,
      "v": 80
    },
    {
      "midi": 61,
      "hit": false,
      "t": 10033.333333333334,
      "d": 966.6666666666661,
      "v": 80
    },
    {
      "midi": 64,
      "hit": false,
      "t": 10033.333333333334,
      "d": 966.6666666666661,
      "v": 80
    },
    {
      "midi": 57,
      "hit": false,
      "t": 12016.666666666666,
      "d": 1675,
      "v": 72
    },
    {
      "midi": 62,
      "hit": false,
      "t": 12016.666666666666,
      "d": 1675,
      "v": 72
    },
    {
      "midi": 66,
      "hit": false,
      "t": 13525,
      "d": 166.66666666666606,
      "v": 66
    },
    {
      "midi": 69,
      "hit": false,
      "t": 13783.333333333332,
      "d": 216.66666666666606,
      "v": 70
    },
    {
      "midi": 61,
      "hit": false,
      "t": 13999.999999999998,
      "d": 2000,
      "v": 80
    },
    {
      "midi": 64,
      "hit": false,
      "t": 13999.999999999998,
      "d": 2000,
      "v": 80
    },
    {
      "midi": 66,
      "hit": false,
      "t": 13999.999999999998,
      "d": 2000,
      "v": 80
    },
    {
      "midi": 69,
      "hit": false,
      "t": 13999.999999999998,
      "d": 2000,
      "v": 80
    },
    {
      "midi": 55,
      "hit": false,
      "t": 16016.666666666664,
      "d": 1675,
      "v": 72
    },
    {
      "midi": 62,
      "hit": false,
      "t": 16016.666666666664,
      "d": 1675,
      "v": 72
    },
    {
      "midi": 59,
      "hit": false,
      "t": 17524.999999999996,
      "d": 166.66666666666788,
      "v": 66
    },
    {
      "midi": 62,
      "hit": false,
      "t": 17783.333333333332,
      "d": 216.66666666666788,
      "v": 70
    },
    {
      "midi": 57,
      "hit": false,
      "t": 18016.666666666668,
      "d": 1675,
      "v": 72
    },
    {
      "midi": 64,
      "hit": false,
      "t": 18016.666666666668,
      "d": 1675,
      "v": 72
    },
    {
      "midi": 61,
      "hit": false,
      "t": 19525,
      "d": 166.66666666666788,
      "v": 66
    },
    {
      "midi": 64,
      "hit": false,
      "t": 20000,
      "d": 4.166666666667879,
      "v": 70
    },
    {
      "midi": 54,
      "hit": false,
      "t": 20000,
      "d": 650,
      "v": 68
    },
    {
      "midi": 59,
      "hit": false,
      "t": 20000,
      "d": 650,
      "v": 68
    },
    {
      "midi": 62,
      "hit": false,
      "t": 20000,
      "d": 650,
      "v": 68
    },
    {
      "midi": 47,
      "hit": false,
      "t": 20500,
      "d": 975,
      "v": 78
    },
    {
      "midi": 54,
      "hit": false,
      "t": 21000,
      "d": 558.3333333333321,
      "v": 80
    },
    {
      "midi": 59,
      "hit": false,
      "t": 21000,
      "d": 558.3333333333321,
      "v": 80
    },
    {
      "midi": 62,
      "hit": false,
      "t": 21000,
      "d": 558.3333333333321,
      "v": 80
    },
    {
      "midi": 54,
      "hit": false,
      "t": 22000,
      "d": 1708.3333333333321,
      "v": 76
    },
    {
      "midi": 59,
      "hit": false,
      "t": 22500,
      "d": 1008.3333333333321,
      "v": 68
    },
    {
      "midi": 62,
      "hit": false,
      "t": 23000,
      "d": 675,
      "v": 85
    },
    {
      "midi": 66,
      "hit": false,
      "t": 23500,
      "d": 283.3333333333321,
      "v": 87
    },
    {
      "midi": 55,
      "hit": false,
      "t": 24016.666666666664,
      "d": 1675,
      "v": 72
    },
    {
      "midi": 62,
      "hit": false,
      "t": 24016.666666666664,
      "d": 1675,
      "v": 72
    },
    {
      "midi": 59,
      "hit": false,
      "t": 25524.999999999996,
      "d": 166.66666666666788,
      "v": 66
    },
    {
      "midi": 62,
      "hit": false,
      "t": 25783.333333333332,
      "d": 216.66666666666788,
      "v": 70
    },
    {
      "midi": 61,
      "hit": false,
      "t": 26000,
      "d": 650,
      "v": 68
    },
    {
      "midi": 66,
      "hit": false,
      "t": 26000,
      "d": 650,
      "v": 68
    },
    {
      "midi": 70,
      "hit": false,
      "t": 26000,
      "d": 650,
      "v": 68
    },
    {
      "midi": 42,
      "hit": false,
      "t": 26500,
      "d": 975,
      "v": 78
    },
    {
      "midi": 61,
      "hit": false,
      "t": 27000,
      "d": 558.3333333333321,
      "v": 80
    },
    {
      "midi": 66,
      "hit": false,
      "t": 27000,
      "d": 558.3333333333321,
      "v": 80
    },
    {
      "midi": 70,
      "hit": false,
      "t": 27000,
      "d": 558.3333333333321,
      "v": 80
    },
    {
      "midi": 47,
      "hit": false,
      "t": 28000,
      "d": 1633.3333333333321,
      "v": 54
    },
    {
      "midi": 62,
      "hit": false,
      "t": 28000,
      "d": 2000,
      "v": 57
    },
    {
      "midi": 66,
      "hit": false,
      "t": 28000,
      "d": 2041.6666666666679,
      "v": 56
    },
    {
      "midi": 59,
      "hit": false,
      "t": 28000,
      "d": 2075,
      "v": 61
    },
    {
      "midi": 35,
      "hit": false,
      "t": 29500,
      "d": 2133.333333333332,
      "v": 49
    },
    {
      "midi": 47,
      "hit": false,
      "t": 30000,
      "d": 1908.3333333333321,
      "v": 52
    },
    {
      "midi": 59,
      "hit": false,
      "t": 30500,
      "d": 1358.3333333333321,
      "v": 76
    },
    {
      "midi": 62,
      "hit": false,
      "t": 31500,
      "d": 316.66666666666424,
      "v": 87
    },
    {
      "midi": 56,
      "hit": false,
      "t": 32025,
      "d": 1491.6666666666715,
      "v": 82
    },
    {
      "midi": 59,
      "hit": false,
      "t": 32025,
      "d": 1491.6666666666715,
      "v": 82
    },
    {
      "midi": 64,
      "hit": false,
      "t": 32025,
      "d": 1491.6666666666715,
      "v": 82
    },
    {
      "midi": 52,
      "hit": false,
      "t": 33483.333333333336,
      "d": 2433.333333333343,
      "v": 63
    },
    {
      "midi": 64,
      "hit": false,
      "t": 34016.66666666667,
      "d": 1916.6666666666715,
      "v": 66
    },
    {
      "midi": 68,
      "hit": false,
      "t": 34500.00000000001,
      "d": 1400.0000000000073,
      "v": 68
    },
    {
      "midi": 71,
      "hit": false,
      "t": 35033.33333333334,
      "d": 850,
      "v": 82
    },
    {
      "midi": 76,
      "hit": false,
      "t": 35483.33333333334,
      "d": 400,
      "v": 59
    },
    {
      "midi": 55,
      "hit": false,
      "t": 36066.66666666668,
      "d": 3558.3333333333358,
      "v": 78
    },
    {
      "midi": 59,
      "hit": false,
      "t": 36066.66666666668,
      "d": 3558.3333333333358,
      "v": 78
    },
    {
      "midi": 62,
      "hit": false,
      "t": 36066.66666666668,
      "d": 3558.3333333333358,
      "v": 78
    },
    {
      "midi": 57,
      "hit": false,
      "t": 40000.000000000015,
      "d": 650,
      "v": 68
    },
    {
      "midi": 61,
      "hit": false,
      "t": 40000.000000000015,
      "d": 650,
      "v": 68
    },
    {
      "midi": 64,
      "hit": false,
      "t": 40000.000000000015,
      "d": 650,
      "v": 68
    },
    {
      "midi": 45,
      "hit": false,
      "t": 40500.000000000015,
      "d": 975,
      "v": 78
    },
    {
      "midi": 57,
      "hit": false,
      "t": 41000.000000000015,
      "d": 558.3333333333358,
      "v": 80
    },
    {
      "midi": 61,
      "hit": false,
      "t": 41000.000000000015,
      "d": 558.3333333333358,
      "v": 80
    },
    {
      "midi": 64,
      "hit": false,
      "t": 41000.000000000015,
      "d": 558.3333333333358,
      "v": 80
    },
    {
      "midi": 61,
      "hit": false,
      "t": 42016.666666666686,
      "d": 1675,
      "v": 72
    },
    {
      "midi": 66,
      "hit": false,
      "t": 42016.666666666686,
      "d": 1675,
      "v": 72
    },
    {
      "midi": 70,
      "hit": false,
      "t": 42016.666666666686,
      "d": 1675,
      "v": 72
    },
    {
      "midi": 58,
      "hit": false,
      "t": 43525.00000000002,
      "d": 275,
      "v": 66
    },
    {
      "midi": 59,
      "hit": false,
      "t": 44000.00000000002,
      "d": 1750,
      "v": 53
    },
    {
      "midi": 61,
      "hit": false,
      "t": 44000.00000000002,
      "d": 1750,
      "v": 70
    },
    {
      "midi": 62,
      "hit": false,
      "t": 44000.00000000002,
      "d": 1750,
      "v": 58
    },
    {
      "midi": 35,
      "hit": false,
      "t": 44041.666666666686,
      "d": 1708.3333333333358,
      "v": 33
    },
    {
      "midi": 66,
      "hit": false,
      "t": 45700.00000000002,
      "d": 50,
      "v": 58
    },
    {
      "midi": 62,
      "hit": false,
      "t": 45750.00000000002,
      "d": 741.6666666666642,
      "v": 61
    },
    {
      "midi": 59,
      "hit": false,
      "t": 45841.666666666686,
      "d": 533.3333333333358,
      "v": 85
    },
    {
      "midi": 59,
      "hit": false,
      "t": 46491.666666666686,
      "d": 516.6666666666642,
      "v": 91
    },
    {
      "midi": 62,
      "hit": false,
      "t": 47008.33333333335,
      "d": 533.3333333333285,
      "v": 70
    },
    {
      "midi": 66,
      "hit": false,
      "t": 47525.000000000015,
      "d": 216.66666666666424,
      "v": 68
    },
    {
      "midi": 54,
      "hit": false,
      "t": 48025.000000000015,
      "d": 1491.6666666666715,
      "v": 82
    },
    {
      "midi": 59,
      "hit": false,
      "t": 48025.000000000015,
      "d": 1491.6666666666715,
      "v": 82
    },
    {
      "midi": 62,
      "hit": false,
      "t": 48025.000000000015,
      "d": 1491.6666666666715,
      "v": 82
    },
    {
      "midi": 45,
      "hit": false,
      "t": 49483.33333333335,
      "d": 2433.333333333343,
      "v": 63
    },
    {
      "midi": 59,
      "hit": false,
      "t": 50016.666666666686,
      "d": 1916.6666666666715,
      "v": 66
    },
    {
      "midi": 62,
      "hit": false,
      "t": 50500.00000000002,
      "d": 1400.0000000000073,
      "v": 68
    },
    {
      "midi": 66,
      "hit": false,
      "t": 51033.33333333336,
      "d": 850,
      "v": 82
    },
    {
      "midi": 71,
      "hit": false,
      "t": 51483.33333333336,
      "d": 400,
      "v": 59
    },
    {
      "midi": 56,
      "hit": false,
      "t": 52033.33333333336,
      "d": 2275,
      "v": 74
    },
    {
      "midi": 59,
      "hit": false,
      "t": 52033.33333333336,
      "d": 2275,
      "v": 74
    },
    {
      "midi": 64,
      "hit": false,
      "t": 52033.33333333336,
      "d": 2275,
      "v": 74
    },
    {
      "midi": 44,
      "hit": false,
      "t": 54525.00000000002,
      "d": 566.6666666666642,
      "v": 78
    },
    {
      "midi": 56,
      "hit": false,
      "t": 55016.666666666686,
      "d": 700,
      "v": 74
    },
    {
      "midi": 59,
      "hit": false,
      "t": 55016.666666666686,
      "d": 700,
      "v": 74
    },
    {
      "midi": 64,
      "hit": false,
      "t": 55016.666666666686,
      "d": 700,
      "v": 74
    },
    {
      "midi": 55,
      "hit": false,
      "t": 56025.00000000002,
      "d": 1491.6666666666715,
      "v": 82
    },
    {
      "midi": 59,
      "hit": false,
      "t": 56025.00000000002,
      "d": 1491.6666666666715,
      "v": 82
    },
    {
      "midi": 62,
      "hit": false,
      "t": 56025.00000000002,
      "d": 1491.6666666666715,
      "v": 82
    },
    {
      "midi": 43,
      "hit": false,
      "t": 57483.33333333336,
      "d": 2433.333333333343,
      "v": 63
    },
    {
      "midi": 55,
      "hit": false,
      "t": 58016.66666666669,
      "d": 1916.6666666666715,
      "v": 66
    },
    {
      "midi": 59,
      "hit": false,
      "t": 58500.00000000003,
      "d": 1400.0000000000073,
      "v": 68
    },
    {
      "midi": 62,
      "hit": false,
      "t": 59033.333333333365,
      "d": 850,
      "v": 82
    },
    {
      "midi": 67,
      "hit": false,
      "t": 59483.333333333365,
      "d": 400,
      "v": 59
    },
    {
      "midi": 57,
      "hit": false,
      "t": 60000.00000000003,
      "d": 3283.3333333333358,
      "v": 72
    },
    {
      "midi": 66,
      "hit": false,
      "t": 60000.00000000003,
      "d": 3283.3333333333358,
      "v": 72
    },
    {
      "midi": 62,
      "hit": false,
      "t": 63033.333333333365,
      "d": 250,
      "v": 61
    },
    {
      "midi": 66,
      "hit": false,
      "t": 63291.6666666667,
      "d": 350,
      "v": 74
    },
    {
      "midi": 69,
      "hit": false,
      "t": 63541.6666666667,
      "d": 325,
      "v": 68
    },
    {
      "midi": 74,
      "hit": false,
      "t": 63800.00000000004,
      "d": 183.33333333332848,
      "v": 68
    },
    {
      "midi": 55,
      "hit": false,
      "t": 64000.00000000003,
      "d": 650,
      "v": 68
    },
    {
      "midi": 59,
      "hit": false,
      "t": 64000.00000000003,
      "d": 650,
      "v": 68
    },
    {
      "midi": 64,
      "hit": false,
      "t": 64000.00000000003,
      "d": 650,
      "v": 68
    },
    {
      "midi": 45,
      "hit": false,
      "t": 64500.00000000003,
      "d": 975,
      "v": 78
    },
    {
      "midi": 55,
      "hit": false,
      "t": 65000.00000000003,
      "d": 558.3333333333285,
      "v": 80
    },
    {
      "midi": 59,
      "hit": false,
      "t": 65000.00000000003,
      "d": 558.3333333333285,
      "v": 80
    },
    {
      "midi": 64,
      "hit": false,
      "t": 65000.00000000003,
      "d": 558.3333333333285,
      "v": 80
    },
    {
      "midi": 57,
      "hit": false,
      "t": 66500.00000000003,
      "d": 1008.3333333333285,
      "v": 68
    },
    {
      "midi": 61,
      "hit": false,
      "t": 67000.00000000003,
      "d": 675,
      "v": 85
    },
    {
      "midi": 64,
      "hit": false,
      "t": 67500.00000000003,
      "d": 208.33333333332848,
      "v": 87
    },
    {
      "midi": 54,
      "hit": false,
      "t": 68025.00000000003,
      "d": 1491.666666666657,
      "v": 82
    },
    {
      "midi": 57,
      "hit": false,
      "t": 68025.00000000003,
      "d": 1491.666666666657,
      "v": 82
    },
    {
      "midi": 62,
      "hit": false,
      "t": 68025.00000000003,
      "d": 1491.666666666657,
      "v": 82
    },
    {
      "midi": 50,
      "hit": false,
      "t": 69483.33333333336,
      "d": 2433.333333333314,
      "v": 63
    },
    {
      "midi": 62,
      "hit": false,
      "t": 70016.66666666669,
      "d": 1916.666666666657,
      "v": 66
    },
    {
      "midi": 66,
      "hit": false,
      "t": 70500.00000000001,
      "d": 1399.9999999999854,
      "v": 68
    },
    {
      "midi": 69,
      "hit": false,
      "t": 71033.33333333334,
      "d": 850,
      "v": 82
    },
    {
      "midi": 74,
      "hit": false,
      "t": 71483.33333333334,
      "d": 400,
      "v": 59
    },
    {
      "midi": 55,
      "hit": false,
      "t": 72016.66666666667,
      "d": 1675,
      "v": 72
    },
    {
      "midi": 62,
      "hit": false,
      "t": 72016.66666666667,
      "d": 1675,
      "v": 72
    },
    {
      "midi": 59,
      "hit": false,
      "t": 73525,
      "d": 166.66666666667152,
      "v": 66
    },
    {
      "midi": 62,
      "hit": false,
      "t": 73783.33333333334,
      "d": 216.66666666667152,
      "v": 70
    },
    {
      "midi": 57,
      "hit": false,
      "t": 74033.33333333334,
      "d": 966.6666666666715,
      "v": 80
    },
    {
      "midi": 61,
      "hit": false,
      "t": 74033.33333333334,
      "d": 966.6666666666715,
      "v": 80
    },
    {
      "midi": 64,
      "hit": false,
      "t": 74033.33333333334,
      "d": 966.6666666666715,
      "v": 80
    },
    {
      "midi": 57,
      "hit": false,
      "t": 76000.00000000001,
      "d": 650,
      "v": 68
    },
    {
      "midi": 62,
      "hit": false,
      "t": 76000.00000000001,
      "d": 650,
      "v": 68
    },
    {
      "midi": 66,
      "hit": false,
      "t": 76000.00000000001,
      "d": 650,
      "v": 68
    },
    {
      "midi": 50,
      "hit": false,
      "t": 76500.00000000001,
      "d": 975,
      "v": 78
    },
    {
      "midi": 57,
      "hit": false,
      "t": 77000.00000000001,
      "d": 558.3333333333285,
      "v": 80
    },
    {
      "midi": 62,
      "hit": false,
      "t": 77000.00000000001,
      "d": 558.3333333333285,
      "v": 80
    },
    {
      "midi": 66,
      "hit": false,
      "t": 77000.00000000001,
      "d": 558.3333333333285,
      "v": 80
    },
    {
      "midi": 61,
      "hit": false,
      "t": 78000.00000000001,
      "d": 650,
      "v": 68
    },
    {
      "midi": 64,
      "hit": false,
      "t": 78000.00000000001,
      "d": 650,
      "v": 68
    },
    {
      "midi": 66,
      "hit": false,
      "t": 78000.00000000001,
      "d": 650,
      "v": 68
    },
    {
      "midi": 69,
      "hit": false,
      "t": 78000.00000000001,
      "d": 650,
      "v": 68
    },
    {
      "midi": 54,
      "hit": false,
      "t": 78500.00000000001,
      "d": 975,
      "v": 78
    },
    {
      "midi": 61,
      "hit": false,
      "t": 79000.00000000001,
      "d": 558.3333333333285,
      "v": 80
    },
    {
      "midi": 64,
      "hit": false,
      "t": 79000.00000000001,
      "d": 558.3333333333285,
      "v": 80
    },
    {
      "midi": 66,
      "hit": false,
      "t": 79000.00000000001,
      "d": 558.3333333333285,
      "v": 80
    },
    {
      "midi": 69,
      "hit": false,
      "t": 79000.00000000001,
      "d": 558.3333333333285,
      "v": 80
    },
    {
      "midi": 55,
      "hit": false,
      "t": 80016.66666666667,
      "d": 1675,
      "v": 72
    },
    {
      "midi": 62,
      "hit": false,
      "t": 80016.66666666667,
      "d": 1675,
      "v": 72
    },
    {
      "midi": 59,
      "hit": false,
      "t": 81525,
      "d": 166.66666666667152,
      "v": 66
    },
    {
      "midi": 62,
      "hit": false,
      "t": 81783.33333333334,
      "d": 216.66666666667152,
      "v": 70
    },
    {
      "midi": 57,
      "hit": false,
      "t": 82016.66666666669,
      "d": 1675,
      "v": 72
    },
    {
      "midi": 64,
      "hit": false,
      "t": 82016.66666666669,
      "d": 1675,
      "v": 72
    },
    {
      "midi": 61,
      "hit": false,
      "t": 83525.00000000001,
      "d": 166.66666666667152,
      "v": 66
    },
    {
      "midi": 64,
      "hit": false,
      "t": 84000.00000000001,
      "d": 4.166666666671517,
      "v": 70
    },
    {
      "midi": 54,
      "hit": false,
      "t": 84000.00000000001,
      "d": 650,
      "v": 68
    },
    {
      "midi": 59,
      "hit": false,
      "t": 84000.00000000001,
      "d": 650,
      "v": 68
    },
    {
      "midi": 62,
      "hit": false,
      "t": 84000.00000000001,
      "d": 650,
      "v": 68
    },
    {
      "midi": 47,
      "hit": false,
      "t": 84500.00000000001,
      "d": 975,
      "v": 78
    },
    {
      "midi": 54,
      "hit": false,
      "t": 85000.00000000001,
      "d": 558.3333333333285,
      "v": 80
    },
    {
      "midi": 59,
      "hit": false,
      "t": 85000.00000000001,
      "d": 558.3333333333285,
      "v": 80
    },
    {
      "midi": 62,
      "hit": false,
      "t": 85000.00000000001,
      "d": 558.3333333333285,
      "v": 80
    },
    {
      "midi": 54,
      "hit": false,
      "t": 86000.00000000001,
      "d": 2000,
      "v": 80
    },
    {
      "midi": 59,
      "hit": false,
      "t": 86000.00000000001,
      "d": 2000,
      "v": 80
    },
    {
      "midi": 62,
      "hit": false,
      "t": 86000.00000000001,
      "d": 2000,
      "v": 80
    },
    {
      "midi": 55,
      "hit": false,
      "t": 88000.00000000001,
      "d": 2000,
      "v": 80
    },
    {
      "midi": 59,
      "hit": false,
      "t": 88000.00000000001,
      "d": 2000,
      "v": 80
    },
    {
      "midi": 62,
      "hit": false,
      "t": 88000.00000000001,
      "d": 2000,
      "v": 80
    },
    {
      "midi": 58,
      "hit": false,
      "t": 90000.00000000001,
      "d": 2000,
      "v": 80
    },
    {
      "midi": 61,
      "hit": false,
      "t": 90000.00000000001,
      "d": 2000,
      "v": 80
    },
    {
      "midi": 66,
      "hit": false,
      "t": 90000.00000000001,
      "d": 2000,
      "v": 80
    },
    {
      "midi": 59,
      "hit": false,
      "t": 92000.00000000001,
      "d": 1750,
      "v": 53
    },
    {
      "midi": 62,
      "hit": false,
      "t": 92000.00000000001,
      "d": 1750,
      "v": 58
    },
    {
      "midi": 35,
      "hit": false,
      "t": 92041.66666666669,
      "d": 1708.3333333333285,
      "v": 33
    },
    {
      "midi": 66,
      "hit": false,
      "t": 93700.00000000001,
      "d": 50,
      "v": 58
    },
    {
      "midi": 62,
      "hit": false,
      "t": 93750.00000000001,
      "d": 741.6666666666715,
      "v": 61
    },
    {
      "midi": 59,
      "hit": false,
      "t": 93841.66666666669,
      "d": 533.3333333333285,
      "v": 85
    },
    {
      "midi": 59,
      "hit": false,
      "t": 94491.66666666669,
      "d": 516.6666666666715,
      "v": 91
    },
    {
      "midi": 62,
      "hit": false,
      "t": 95008.33333333336,
      "d": 533.333333333343,
      "v": 70
    },
    {
      "midi": 66,
      "hit": false,
      "t": 95525.00000000003,
      "d": 216.66666666667152,
      "v": 68
    },
    {
      "midi": 56,
      "hit": false,
      "t": 96066.6666666667,
      "d": 3558.3333333333285,
      "v": 78
    },
    {
      "midi": 59,
      "hit": false,
      "t": 96066.6666666667,
      "d": 3558.3333333333285,
      "v": 78
    },
    {
      "midi": 64,
      "hit": false,
      "t": 96066.6666666667,
      "d": 3558.3333333333285,
      "v": 78
    },
    {
      "midi": 45,
      "hit": false,
      "t": 100000.00000000003,
      "d": 1633.3333333333285,
      "v": 54
    },
    {
      "midi": 59,
      "hit": false,
      "t": 100000.00000000003,
      "d": 2000,
      "v": 57
    },
    {
      "midi": 62,
      "hit": false,
      "t": 100000.00000000003,
      "d": 2041.6666666666715,
      "v": 56
    },
    {
      "midi": 55,
      "hit": false,
      "t": 100000.00000000003,
      "d": 2075,
      "v": 61
    },
    {
      "midi": 33,
      "hit": false,
      "t": 101500.00000000003,
      "d": 2133.3333333333285,
      "v": 49
    },
    {
      "midi": 45,
      "hit": false,
      "t": 102000.00000000003,
      "d": 1908.3333333333285,
      "v": 52
    },
    {
      "midi": 55,
      "hit": false,
      "t": 102500.00000000003,
      "d": 1358.3333333333285,
      "v": 76
    },
    {
      "midi": 59,
      "hit": false,
      "t": 103500.00000000003,
      "d": 316.66666666665697,
      "v": 87
    },
    {
      "midi": 57,
      "hit": false,
      "t": 104500.00000000003,
      "d": 1008.3333333333285,
      "v": 68
    },
    {
      "midi": 61,
      "hit": false,
      "t": 105000.00000000003,
      "d": 675,
      "v": 85
    },
    {
      "midi": 64,
      "hit": false,
      "t": 105500.00000000003,
      "d": 208.33333333332848,
      "v": 87
    },
    {
      "midi": 58,
      "hit": false,
      "t": 106000.00000000003,
      "d": 650,
      "v": 68
    },
    {
      "midi": 61,
      "hit": false,
      "t": 106000.00000000003,
      "d": 650,
      "v": 68
    },
    {
      "midi": 66,
      "hit": false,
      "t": 106000.00000000003,
      "d": 650,
      "v": 68
    },
    {
      "midi": 34,
      "hit": false,
      "t": 106500.00000000003,
      "d": 975,
      "v": 78
    },
    {
      "midi": 58,
      "hit": false,
      "t": 107000.00000000003,
      "d": 558.3333333333285,
      "v": 80
    },
    {
      "midi": 61,
      "hit": false,
      "t": 107000.00000000003,
      "d": 558.3333333333285,
      "v": 80
    },
    {
      "midi": 66,
      "hit": false,
      "t": 107000.00000000003,
      "d": 558.3333333333285,
      "v": 80
    },
    {
      "midi": 54,
      "hit": false,
      "t": 108025.00000000003,
      "d": 2883.3333333333285,
      "v": 87
    },
    {
      "midi": 59,
      "hit": false,
      "t": 108025.00000000003,
      "d": 2883.3333333333285,
      "v": 87
    },
    {
      "midi": 62,
      "hit": false,
      "t": 108025.00000000003,
      "d": 2883.3333333333285,
      "v": 87
    },
    {
      "midi": 66,
      "hit": false,
      "t": 110525.00000000003,
      "d": 600,
      "v": 68
    },
    {
      "midi": 62,
      "hit": false,
      "t": 111025.00000000003,
      "d": 583.333333333343,
      "v": 64
    },
    {
      "midi": 59,
      "hit": false,
      "t": 111541.6666666667,
      "d": 433.33333333334303,
      "v": 91
    },
    {
      "midi": 59,
      "hit": false,
      "t": 112000.00000000004,
      "d": 1750,
      "v": 53
    },
    {
      "midi": 62,
      "hit": false,
      "t": 112000.00000000004,
      "d": 1750,
      "v": 58
    },
    {
      "midi": 45,
      "hit": false,
      "t": 112041.66666666672,
      "d": 1708.3333333333285,
      "v": 33
    },
    {
      "midi": 66,
      "hit": false,
      "t": 113700.00000000004,
      "d": 50,
      "v": 58
    },
    {
      "midi": 62,
      "hit": false,
      "t": 113750.00000000004,
      "d": 741.6666666666715,
      "v": 61
    },
    {
      "midi": 59,
      "hit": false,
      "t": 113841.66666666672,
      "d": 533.3333333333285,
      "v": 85
    },
    {
      "midi": 59,
      "hit": false,
      "t": 114491.66666666672,
      "d": 516.6666666666715,
      "v": 91
    },
    {
      "midi": 62,
      "hit": false,
      "t": 115008.33333333339,
      "d": 533.333333333343,
      "v": 70
    },
    {
      "midi": 66,
      "hit": false,
      "t": 115525.00000000006,
      "d": 216.66666666667152,
      "v": 68
    },
    {
      "midi": 56,
      "hit": false,
      "t": 116025.00000000006,
      "d": 2883.3333333333285,
      "v": 87
    },
    {
      "midi": 59,
      "hit": false,
      "t": 116025.00000000006,
      "d": 2883.3333333333285,
      "v": 87
    },
    {
      "midi": 64,
      "hit": false,
      "t": 116025.00000000006,
      "d": 2883.3333333333285,
      "v": 87
    },
    {
      "midi": 71,
      "hit": false,
      "t": 118525.00000000006,
      "d": 600,
      "v": 68
    },
    {
      "midi": 68,
      "hit": false,
      "t": 119025.00000000006,
      "d": 583.333333333343,
      "v": 64
    },
    {
      "midi": 64,
      "hit": false,
      "t": 119541.66666666673,
      "d": 433.33333333334303,
      "v": 91
    },
    {
      "midi": 67,
      "hit": false,
      "t": 120000.00000000007,
      "d": 1750,
      "v": 53
    },
    {
      "midi": 71,
      "hit": false,
      "t": 120000.00000000007,
      "d": 1750,
      "v": 58
    },
    {
      "midi": 43,
      "hit": false,
      "t": 120041.66666666674,
      "d": 1708.3333333333285,
      "v": 33
    },
    {
      "midi": 74,
      "hit": false,
      "t": 121700.00000000007,
      "d": 50,
      "v": 58
    },
    {
      "midi": 71,
      "hit": false,
      "t": 121750.00000000007,
      "d": 741.6666666666715,
      "v": 61
    },
    {
      "midi": 67,
      "hit": false,
      "t": 121841.66666666674,
      "d": 533.3333333333285,
      "v": 85
    },
    {
      "midi": 67,
      "hit": false,
      "t": 122491.66666666674,
      "d": 516.6666666666715,
      "v": 91
    },
    {
      "midi": 71,
      "hit": false,
      "t": 123008.33333333342,
      "d": 533.333333333343,
      "v": 70
    },
    {
      "midi": 74,
      "hit": false,
      "t": 123525.00000000009,
      "d": 216.66666666667152,
      "v": 68
    },
    {
      "midi": 57,
      "hit": false,
      "t": 124000.00000000009,
      "d": 3283.3333333333285,
      "v": 72
    },
    {
      "midi": 66,
      "hit": false,
      "t": 124000.00000000009,
      "d": 3283.3333333333285,
      "v": 72
    },
    {
      "midi": 62,
      "hit": false,
      "t": 127033.33333333342,
      "d": 250,
      "v": 61
    },
    {
      "midi": 66,
      "hit": false,
      "t": 127291.66666666674,
      "d": 350,
      "v": 74
    },
    {
      "midi": 69,
      "hit": false,
      "t": 127541.66666666674,
      "d": 325,
      "v": 68
    },
    {
      "midi": 74,
      "hit": false,
      "t": 127800.00000000007,
      "d": 183.33333333334303,
      "v": 68
    },
    {
      "midi": 55,
      "hit": false,
      "t": 128016.66666666674,
      "d": 1675,
      "v": 72
    },
    {
      "midi": 59,
      "hit": false,
      "t": 128016.66666666674,
      "d": 1675,
      "v": 72
    },
    {
      "midi": 64,
      "hit": false,
      "t": 128016.66666666674,
      "d": 1675,
      "v": 72
    },
    {
      "midi": 67,
      "hit": false,
      "t": 129525.00000000007,
      "d": 275.00000000001455,
      "v": 66
    },
    {
      "midi": 71,
      "hit": false,
      "t": 129783.33333333342,
      "d": 216.66666666667152,
      "v": 70
    },
    {
      "midi": 57,
      "hit": false,
      "t": 130000.00000000009,
      "d": 2000,
      "v": 80
    },
    {
      "midi": 61,
      "hit": false,
      "t": 130000.00000000009,
      "d": 2000,
      "v": 80
    },
    {
      "midi": 64,
      "hit": false,
      "t": 130000.00000000009,
      "d": 2000,
      "v": 80
    },
    {
      "midi": 57,
      "hit": false,
      "t": 132033.33333333343,
      "d": 2275,
      "v": 74
    },
    {
      "midi": 62,
      "hit": false,
      "t": 132033.33333333343,
      "d": 2275,
      "v": 74
    },
    {
      "midi": 66,
      "hit": false,
      "t": 132033.33333333343,
      "d": 2275,
      "v": 74
    },
    {
      "midi": 50,
      "hit": false,
      "t": 134525.0000000001,
      "d": 566.666666666657,
      "v": 78
    },
    {
      "midi": 57,
      "hit": false,
      "t": 135016.66666666674,
      "d": 700,
      "v": 74
    },
    {
      "midi": 62,
      "hit": false,
      "t": 135016.66666666674,
      "d": 700,
      "v": 74
    },
    {
      "midi": 66,
      "hit": false,
      "t": 135016.66666666674,
      "d": 700,
      "v": 74
    },
    {
      "midi": 55,
      "hit": false,
      "t": 136500.0000000001,
      "d": 1008.333333333343,
      "v": 68
    },
    {
      "midi": 59,
      "hit": false,
      "t": 137000.0000000001,
      "d": 675,
      "v": 85
    },
    {
      "midi": 62,
      "hit": false,
      "t": 137500.0000000001,
      "d": 208.33333333334303,
      "v": 87
    },
    {
      "midi": 57,
      "hit": false,
      "t": 138033.33333333343,
      "d": 966.666666666657,
      "v": 80
    },
    {
      "midi": 61,
      "hit": false,
      "t": 138033.33333333343,
      "d": 966.666666666657,
      "v": 80
    },
    {
      "midi": 64,
      "hit": false,
      "t": 138033.33333333343,
      "d": 966.666666666657,
      "v": 80
    },
    {
      "midi": 57,
      "hit": false,
      "t": 140000.0000000001,
      "d": 650,
      "v": 68
    },
    {
      "midi": 62,
      "hit": false,
      "t": 140000.0000000001,
      "d": 650,
      "v": 68
    },
    {
      "midi": 66,
      "hit": false,
      "t": 140000.0000000001,
      "d": 650,
      "v": 68
    },
    {
      "midi": 50,
      "hit": false,
      "t": 140500.0000000001,
      "d": 975,
      "v": 78
    },
    {
      "midi": 57,
      "hit": false,
      "t": 141000.0000000001,
      "d": 558.333333333343,
      "v": 80
    },
    {
      "midi": 62,
      "hit": false,
      "t": 141000.0000000001,
      "d": 558.333333333343,
      "v": 80
    },
    {
      "midi": 66,
      "hit": false,
      "t": 141000.0000000001,
      "d": 558.333333333343,
      "v": 80
    },
    {
      "midi": 61,
      "hit": false,
      "t": 142000.0000000001,
      "d": 650,
      "v": 68
    },
    {
      "midi": 64,
      "hit": false,
      "t": 142000.0000000001,
      "d": 650,
      "v": 68
    },
    {
      "midi": 66,
      "hit": false,
      "t": 142000.0000000001,
      "d": 650,
      "v": 68
    },
    {
      "midi": 69,
      "hit": false,
      "t": 142000.0000000001,
      "d": 650,
      "v": 68
    },
    {
      "midi": 54,
      "hit": false,
      "t": 142500.0000000001,
      "d": 975,
      "v": 78
    },
    {
      "midi": 61,
      "hit": false,
      "t": 143000.0000000001,
      "d": 558.333333333343,
      "v": 80
    },
    {
      "midi": 64,
      "hit": false,
      "t": 143000.0000000001,
      "d": 558.333333333343,
      "v": 80
    },
    {
      "midi": 66,
      "hit": false,
      "t": 143000.0000000001,
      "d": 558.333333333343,
      "v": 80
    },
    {
      "midi": 69,
      "hit": false,
      "t": 143000.0000000001,
      "d": 558.333333333343,
      "v": 80
    },
    {
      "midi": 55,
      "hit": false,
      "t": 144000.0000000001,
      "d": 2000,
      "v": 80
    },
    {
      "midi": 59,
      "hit": false,
      "t": 144000.0000000001,
      "d": 2000,
      "v": 80
    },
    {
      "midi": 62,
      "hit": false,
      "t": 144000.0000000001,
      "d": 2000,
      "v": 80
    },
    {
      "midi": 57,
      "hit": false,
      "t": 146016.66666666674,
      "d": 1675,
      "v": 72
    },
    {
      "midi": 64,
      "hit": false,
      "t": 146016.66666666674,
      "d": 1675,
      "v": 72
    },
    {
      "midi": 61,
      "hit": false,
      "t": 147525.0000000001,
      "d": 166.66666666665697,
      "v": 66
    },
    {
      "midi": 64,
      "hit": false,
      "t": 148000.0000000001,
      "d": 4.166666666656965,
      "v": 70
    },
    {
      "midi": 54,
      "hit": false,
      "t": 148016.66666666674,
      "d": 1675,
      "v": 72
    },
    {
      "midi": 59,
      "hit": false,
      "t": 148016.66666666674,
      "d": 1675,
      "v": 72
    },
    {
      "midi": 62,
      "hit": false,
      "t": 149525.0000000001,
      "d": 166.66666666665697,
      "v": 66
    },
    {
      "midi": 66,
      "hit": false,
      "t": 149783.3333333334,
      "d": 216.66666666665697,
      "v": 70
    },
    {
      "midi": 54,
      "hit": false,
      "t": 150016.66666666672,
      "d": 1675,
      "v": 72
    },
    {
      "midi": 59,
      "hit": false,
      "t": 150016.66666666672,
      "d": 1675,
      "v": 72
    },
    {
      "midi": 62,
      "hit": false,
      "t": 151525.00000000006,
      "d": 166.66666666665697,
      "v": 66
    },
    {
      "midi": 66,
      "hit": false,
      "t": 152000.00000000006,
      "d": 4.166666666656965,
      "v": 70
    },
    {
      "midi": 55,
      "hit": false,
      "t": 152000.00000000006,
      "d": 2000,
      "v": 80
    },
    {
      "midi": 59,
      "hit": false,
      "t": 152000.00000000006,
      "d": 2000,
      "v": 80
    },
    {
      "midi": 62,
      "hit": false,
      "t": 152000.00000000006,
      "d": 2000,
      "v": 80
    },
    {
      "midi": 66,
      "hit": false,
      "t": 154000.00000000006,
      "d": 1708.333333333343,
      "v": 76
    },
    {
      "midi": 54,
      "hit": false,
      "t": 154500.00000000006,
      "d": 1008.333333333343,
      "v": 68
    },
    {
      "midi": 58,
      "hit": false,
      "t": 155000.00000000006,
      "d": 675,
      "v": 85
    },
    {
      "midi": 61,
      "hit": false,
      "t": 155500.00000000006,
      "d": 208.33333333334303,
      "v": 87
    },
    {
      "midi": 54,
      "hit": false,
      "t": 156066.66666666674,
      "d": 3558.333333333343,
      "v": 78
    },
    {
      "midi": 59,
      "hit": false,
      "t": 156066.66666666674,
      "d": 3558.333333333343,
      "v": 78
    },
    {
      "midi": 62,
      "hit": false,
      "t": 156066.66666666674,
      "d": 3558.333333333343,
      "v": 78
    },
    {
      "midi": 52,
      "hit": false,
      "t": 160000.0000000001,
      "d": 1633.333333333343,
      "v": 54
    },
    {
      "midi": 68,
      "hit": false,
      "t": 160000.0000000001,
      "d": 2000,
      "v": 57
    },
    {
      "midi": 71,
      "hit": false,
      "t": 160000.0000000001,
      "d": 2041.666666666657,
      "v": 56
    },
    {
      "midi": 64,
      "hit": false,
      "t": 160000.0000000001,
      "d": 2075,
      "v": 61
    },
    {
      "midi": 40,
      "hit": false,
      "t": 161500.0000000001,
      "d": 2133.333333333343,
      "v": 49
    },
    {
      "midi": 52,
      "hit": false,
      "t": 162000.0000000001,
      "d": 1908.333333333343,
      "v": 52
    },
    {
      "midi": 64,
      "hit": false,
      "t": 162500.0000000001,
      "d": 1358.333333333343,
      "v": 76
    },
    {
      "midi": 68,
      "hit": false,
      "t": 163500.0000000001,
      "d": 316.66666666668607,
      "v": 87
    },
    {
      "midi": 45,
      "hit": false,
      "t": 164000.0000000001,
      "d": 1633.333333333343,
      "v": 54
    },
    {
      "midi": 59,
      "hit": false,
      "t": 164000.0000000001,
      "d": 2000,
      "v": 57
    },
    {
      "midi": 62,
      "hit": false,
      "t": 164000.0000000001,
      "d": 2041.666666666657,
      "v": 56
    },
    {
      "midi": 55,
      "hit": false,
      "t": 164000.0000000001,
      "d": 2075,
      "v": 61
    },
    {
      "midi": 33,
      "hit": false,
      "t": 165500.0000000001,
      "d": 2133.333333333343,
      "v": 49
    },
    {
      "midi": 45,
      "hit": false,
      "t": 166000.0000000001,
      "d": 1908.333333333343,
      "v": 52
    },
    {
      "midi": 55,
      "hit": false,
      "t": 166500.0000000001,
      "d": 1358.333333333343,
      "v": 76
    },
    {
      "midi": 59,
      "hit": false,
      "t": 167500.0000000001,
      "d": 316.66666666668607,
      "v": 87
    },
    {
      "midi": 57,
      "hit": false,
      "t": 168500.0000000001,
      "d": 1008.333333333343,
      "v": 68
    },
    {
      "midi": 61,
      "hit": false,
      "t": 169000.0000000001,
      "d": 675,
      "v": 85
    },
    {
      "midi": 64,
      "hit": false,
      "t": 169500.0000000001,
      "d": 208.33333333334303,
      "v": 87
    },
    {
      "midi": 61,
      "hit": false,
      "t": 170016.66666666677,
      "d": 1675,
      "v": 72
    },
    {
      "midi": 66,
      "hit": false,
      "t": 170016.66666666677,
      "d": 1675,
      "v": 72
    },
    {
      "midi": 70,
      "hit": false,
      "t": 170016.66666666677,
      "d": 1675,
      "v": 72
    },
    {
      "midi": 58,
      "hit": false,
      "t": 171525.00000000012,
      "d": 275,
      "v": 66
    },
    {
      "midi": 61,
      "hit": false,
      "t": 172000.00000000012,
      "d": 4.166666666656965,
      "v": 70
    },
    {
      "midi": 54,
      "hit": false,
      "t": 172066.66666666677,
      "d": 3558.333333333343,
      "v": 78
    },
    {
      "midi": 59,
      "hit": false,
      "t": 172066.66666666677,
      "d": 3558.333333333343,
      "v": 78
    },
    {
      "midi": 62,
      "hit": false,
      "t": 172066.66666666677,
      "d": 3558.333333333343,
      "v": 78
    },
    {
      "midi": 54,
      "hit": false,
      "t": 176025.00000000012,
      "d": 2883.333333333343,
      "v": 87
    },
    {
      "midi": 59,
      "hit": false,
      "t": 176025.00000000012,
      "d": 2883.333333333343,
      "v": 87
    },
    {
      "midi": 62,
      "hit": false,
      "t": 176025.00000000012,
      "d": 2883.333333333343,
      "v": 87
    },
    {
      "midi": 66,
      "hit": false,
      "t": 178525.00000000012,
      "d": 600,
      "v": 68
    },
    {
      "midi": 62,
      "hit": false,
      "t": 179025.00000000012,
      "d": 583.3333333333139,
      "v": 64
    },
    {
      "midi": 59,
      "hit": false,
      "t": 179541.66666666677,
      "d": 433.33333333331393,
      "v": 91
    },
    {
      "midi": 56,
      "hit": false,
      "t": 180066.66666666674,
      "d": 3558.333333333343,
      "v": 78
    },
    {
      "midi": 59,
      "hit": false,
      "t": 180066.66666666674,
      "d": 3558.333333333343,
      "v": 78
    },
    {
      "midi": 64,
      "hit": false,
      "t": 180066.66666666674,
      "d": 3558.333333333343,
      "v": 78
    },
    {
      "midi": 55,
      "hit": false,
      "t": 184066.66666666674,
      "d": 3558.333333333343,
      "v": 78
    },
    {
      "midi": 59,
      "hit": false,
      "t": 184066.66666666674,
      "d": 3558.333333333343,
      "v": 78
    },
    {
      "midi": 62,
      "hit": false,
      "t": 184066.66666666674,
      "d": 3558.333333333343,
      "v": 78
    },
    {
      "midi": 57,
      "hit": false,
      "t": 188025.0000000001,
      "d": 1491.666666666686,
      "v": 82
    },
    {
      "midi": 62,
      "hit": false,
      "t": 188025.0000000001,
      "d": 1491.666666666686,
      "v": 82
    },
    {
      "midi": 66,
      "hit": false,
      "t": 188025.0000000001,
      "d": 1491.666666666686,
      "v": 82
    },
    {
      "midi": 45,
      "hit": false,
      "t": 189483.33333333343,
      "d": 2433.333333333372,
      "v": 63
    },
    {
      "midi": 62,
      "hit": false,
      "t": 190016.66666666677,
      "d": 1916.666666666686,
      "v": 66
    },
    {
      "midi": 66,
      "hit": false,
      "t": 190500.00000000012,
      "d": 1400.000000000029,
      "v": 68
    },
    {
      "midi": 69,
      "hit": false,
      "t": 191033.33333333346,
      "d": 850,
      "v": 82
    },
    {
      "midi": 74,
      "hit": false,
      "t": 191483.33333333346,
      "d": 400,
      "v": 59
    },
    {
      "midi": 55,
      "hit": false,
      "t": 192016.6666666668,
      "d": 1675,
      "v": 72
    },
    {
      "midi": 59,
      "hit": false,
      "t": 192016.6666666668,
      "d": 1675,
      "v": 72
    },
    {
      "midi": 64,
      "hit": false,
      "t": 192016.6666666668,
      "d": 1675,
      "v": 72
    },
    {
      "midi": 67,
      "hit": false,
      "t": 193525.00000000015,
      "d": 274.9999999999709,
      "v": 66
    },
    {
      "midi": 71,
      "hit": false,
      "t": 193783.33333333346,
      "d": 216.66666666665697,
      "v": 70
    },
    {
      "midi": 57,
      "hit": false,
      "t": 194000.00000000012,
      "d": 650,
      "v": 68
    },
    {
      "midi": 61,
      "hit": false,
      "t": 194000.00000000012,
      "d": 650,
      "v": 68
    },
    {
      "midi": 64,
      "hit": false,
      "t": 194000.00000000012,
      "d": 650,
      "v": 68
    },
    {
      "midi": 45,
      "hit": false,
      "t": 194500.00000000012,
      "d": 975,
      "v": 78
    },
    {
      "midi": 57,
      "hit": false,
      "t": 195000.00000000012,
      "d": 558.333333333343,
      "v": 80
    },
    {
      "midi": 61,
      "hit": false,
      "t": 195000.00000000012,
      "d": 558.333333333343,
      "v": 80
    },
    {
      "midi": 64,
      "hit": false,
      "t": 195000.00000000012,
      "d": 558.333333333343,
      "v": 80
    },
    {
      "midi": 57,
      "hit": false,
      "t": 196033.33333333346,
      "d": 2275,
      "v": 74
    },
    {
      "midi": 62,
      "hit": false,
      "t": 196033.33333333346,
      "d": 2275,
      "v": 74
    },
    {
      "midi": 66,
      "hit": false,
      "t": 196033.33333333346,
      "d": 2275,
      "v": 74
    },
    {
      "midi": 50,
      "hit": false,
      "t": 198525.00000000012,
      "d": 566.666666666657,
      "v": 78
    },
    {
      "midi": 57,
      "hit": false,
      "t": 199016.66666666677,
      "d": 700,
      "v": 74
    },
    {
      "midi": 62,
      "hit": false,
      "t": 199016.66666666677,
      "d": 700,
      "v": 74
    },
    {
      "midi": 66,
      "hit": false,
      "t": 199016.66666666677,
      "d": 700,
      "v": 74
    },
    {
      "midi": 55,
      "hit": false,
      "t": 200000.00000000012,
      "d": 650,
      "v": 68
    },
    {
      "midi": 59,
      "hit": false,
      "t": 200000.00000000012,
      "d": 650,
      "v": 68
    },
    {
      "midi": 62,
      "hit": false,
      "t": 200000.00000000012,
      "d": 650,
      "v": 68
    },
    {
      "midi": 45,
      "hit": false,
      "t": 200500.00000000012,
      "d": 975,
      "v": 78
    },
    {
      "midi": 55,
      "hit": false,
      "t": 201000.00000000012,
      "d": 558.333333333343,
      "v": 80
    },
    {
      "midi": 59,
      "hit": false,
      "t": 201000.00000000012,
      "d": 558.333333333343,
      "v": 80
    },
    {
      "midi": 62,
      "hit": false,
      "t": 201000.00000000012,
      "d": 558.333333333343,
      "v": 80
    },
    {
      "midi": 57,
      "hit": false,
      "t": 202033.33333333346,
      "d": 966.666666666657,
      "v": 80
    },
    {
      "midi": 61,
      "hit": false,
      "t": 202033.33333333346,
      "d": 966.666666666657,
      "v": 80
    },
    {
      "midi": 64,
      "hit": false,
      "t": 202033.33333333346,
      "d": 966.666666666657,
      "v": 80
    },
    {
      "midi": 57,
      "hit": false,
      "t": 204000.00000000012,
      "d": 1708.333333333343,
      "v": 76
    },
    {
      "midi": 62,
      "hit": false,
      "t": 204500.00000000012,
      "d": 1008.333333333343,
      "v": 68
    },
    {
      "midi": 66,
      "hit": false,
      "t": 205000.00000000012,
      "d": 675,
      "v": 85
    },
    {
      "midi": 69,
      "hit": false,
      "t": 205500.00000000012,
      "d": 283.33333333334303,
      "v": 87
    },
    {
      "midi": 61,
      "hit": false,
      "t": 206000.00000000012,
      "d": 2000,
      "v": 80
    },
    {
      "midi": 64,
      "hit": false,
      "t": 206000.00000000012,
      "d": 2000,
      "v": 80
    },
    {
      "midi": 66,
      "hit": false,
      "t": 206000.00000000012,
      "d": 2000,
      "v": 80
    },
    {
      "midi": 69,
      "hit": false,
      "t": 206000.00000000012,
      "d": 2000,
      "v": 80
    },
    {
      "midi": 55,
      "hit": false,
      "t": 208000.00000000012,
      "d": 650,
      "v": 68
    },
    {
      "midi": 59,
      "hit": false,
      "t": 208000.00000000012,
      "d": 650,
      "v": 68
    },
    {
      "midi": 62,
      "hit": false,
      "t": 208000.00000000012,
      "d": 650,
      "v": 68
    },
    {
      "midi": 43,
      "hit": false,
      "t": 208500.00000000012,
      "d": 975,
      "v": 78
    },
    {
      "midi": 55,
      "hit": false,
      "t": 209000.00000000012,
      "d": 558.333333333343,
      "v": 80
    },
    {
      "midi": 59,
      "hit": false,
      "t": 209000.00000000012,
      "d": 558.333333333343,
      "v": 80
    },
    {
      "midi": 62,
      "hit": false,
      "t": 209000.00000000012,
      "d": 558.333333333343,
      "v": 80
    },
    {
      "midi": 57,
      "hit": false,
      "t": 210500.00000000012,
      "d": 1008.333333333343,
      "v": 68
    },
    {
      "midi": 61,
      "hit": false,
      "t": 211000.00000000012,
      "d": 675,
      "v": 85
    },
    {
      "midi": 64,
      "hit": false,
      "t": 211500.00000000012,
      "d": 208.33333333334303,
      "v": 87
    },
    {
      "midi": 54,
      "hit": false,
      "t": 212016.6666666668,
      "d": 1675,
      "v": 72
    },
    {
      "midi": 59,
      "hit": false,
      "t": 212016.6666666668,
      "d": 1675,
      "v": 72
    },
    {
      "midi": 62,
      "hit": false,
      "t": 213525.00000000015,
      "d": 166.66666666665697,
      "v": 66
    },
    {
      "midi": 66,
      "hit": false,
      "t": 213783.33333333346,
      "d": 216.66666666665697,
      "v": 70
    },
    {
      "midi": 54,
      "hit": false,
      "t": 214000.00000000012,
      "d": 650,
      "v": 68
    },
    {
      "midi": 59,
      "hit": false,
      "t": 214000.00000000012,
      "d": 650,
      "v": 68
    },
    {
      "midi": 62,
      "hit": false,
      "t": 214000.00000000012,
      "d": 650,
      "v": 68
    },
    {
      "midi": 45,
      "hit": false,
      "t": 214500.00000000012,
      "d": 975,
      "v": 78
    },
    {
      "midi": 54,
      "hit": false,
      "t": 215000.00000000012,
      "d": 558.333333333343,
      "v": 80
    },
    {
      "midi": 59,
      "hit": false,
      "t": 215000.00000000012,
      "d": 558.333333333343,
      "v": 80
    },
    {
      "midi": 62,
      "hit": false,
      "t": 215000.00000000012,
      "d": 558.333333333343,
      "v": 80
    },
    {
      "midi": 55,
      "hit": false,
      "t": 216000.00000000012,
      "d": 2000,
      "v": 80
    },
    {
      "midi": 59,
      "hit": false,
      "t": 216000.00000000012,
      "d": 2000,
      "v": 80
    },
    {
      "midi": 62,
      "hit": false,
      "t": 216000.00000000012,
      "d": 2000,
      "v": 80
    },
    {
      "midi": 54,
      "hit": false,
      "t": 218000.00000000012,
      "d": 2000,
      "v": 80
    },
    {
      "midi": 58,
      "hit": false,
      "t": 218000.00000000012,
      "d": 2000,
      "v": 80
    },
    {
      "midi": 61,
      "hit": false,
      "t": 218000.00000000012,
      "d": 2000,
      "v": 80
    },
    {
      "midi": 54,
      "hit": false,
      "t": 220066.66666666677,
      "d": 3558.333333333343,
      "v": 78
    },
    {
      "midi": 59,
      "hit": false,
      "t": 220066.66666666677,
      "d": 3558.333333333343,
      "v": 78
    },
    {
      "midi": 62,
      "hit": false,
      "t": 220066.66666666677,
      "d": 3558.333333333343,
      "v": 78
    },
    {
      "midi": 64,
      "hit": false,
      "t": 224000.00000000012,
      "d": 1750,
      "v": 53
    },
    {
      "midi": 68,
      "hit": false,
      "t": 224000.00000000012,
      "d": 1750,
      "v": 58
    },
    {
      "midi": 40,
      "hit": false,
      "t": 224041.66666666677,
      "d": 1708.333333333343,
      "v": 33
    },
    {
      "midi": 71,
      "hit": false,
      "t": 225700.00000000012,
      "d": 50,
      "v": 58
    },
    {
      "midi": 68,
      "hit": false,
      "t": 225750.00000000012,
      "d": 741.666666666657,
      "v": 61
    },
    {
      "midi": 64,
      "hit": false,
      "t": 225841.66666666677,
      "d": 533.333333333343,
      "v": 85
    },
    {
      "midi": 64,
      "hit": false,
      "t": 226491.66666666677,
      "d": 516.666666666657,
      "v": 91
    },
    {
      "midi": 68,
      "hit": false,
      "t": 227008.33333333343,
      "d": 533.3333333333139,
      "v": 70
    },
    {
      "midi": 71,
      "hit": false,
      "t": 227525.0000000001,
      "d": 216.66666666665697,
      "v": 68
    },
    {
      "midi": 59,
      "hit": false,
      "t": 228000.0000000001,
      "d": 3283.333333333343,
      "v": 72
    },
    {
      "midi": 62,
      "hit": false,
      "t": 228000.0000000001,
      "d": 3283.333333333343,
      "v": 72
    },
    {
      "midi": 55,
      "hit": false,
      "t": 231033.33333333343,
      "d": 250,
      "v": 61
    },
    {
      "midi": 59,
      "hit": false,
      "t": 231291.66666666677,
      "d": 350,
      "v": 74
    },
    {
      "midi": 62,
      "hit": false,
      "t": 231541.66666666677,
      "d": 325,
      "v": 68
    },
    {
      "midi": 67,
      "hit": false,
      "t": 231800.00000000012,
      "d": 183.33333333331393,
      "v": 68
    },
    {
      "midi": 57,
      "hit": false,
      "t": 232016.66666666677,
      "d": 1675,
      "v": 72
    },
    {
      "midi": 64,
      "hit": false,
      "t": 232016.66666666677,
      "d": 1675,
      "v": 72
    },
    {
      "midi": 61,
      "hit": false,
      "t": 233525.00000000012,
      "d": 166.66666666665697,
      "v": 66
    },
    {
      "midi": 64,
      "hit": false,
      "t": 233783.33333333343,
      "d": 216.66666666665697,
      "v": 70
    },
    {
      "midi": 66,
      "hit": false,
      "t": 234000.0000000001,
      "d": 1708.333333333343,
      "v": 76
    },
    {
      "midi": 54,
      "hit": false,
      "t": 234500.0000000001,
      "d": 1008.333333333343,
      "v": 68
    },
    {
      "midi": 58,
      "hit": false,
      "t": 235000.0000000001,
      "d": 675,
      "v": 85
    },
    {
      "midi": 61,
      "hit": false,
      "t": 235500.0000000001,
      "d": 208.33333333334303,
      "v": 87
    },
    {
      "midi": 54,
      "hit": false,
      "t": 236033.33333333343,
      "d": 2275,
      "v": 74
    },
    {
      "midi": 59,
      "hit": false,
      "t": 236033.33333333343,
      "d": 2275,
      "v": 74
    },
    {
      "midi": 62,
      "hit": false,
      "t": 236033.33333333343,
      "d": 2275,
      "v": 74
    },
    {
      "midi": 47,
      "hit": false,
      "t": 238525.0000000001,
      "d": 566.666666666657,
      "v": 78
    },
    {
      "midi": 54,
      "hit": false,
      "t": 239016.66666666674,
      "d": 700,
      "v": 74
    },
    {
      "midi": 59,
      "hit": false,
      "t": 239016.66666666674,
      "d": 700,
      "v": 74
    },
    {
      "midi": 62,
      "hit": false,
      "t": 239016.66666666674,
      "d": 700,
      "v": 74
    },
    {
      "midi": 54,
      "hit": false,
      "t": 240033.3333333334,
      "d": 2275,
      "v": 74
    },
    {
      "midi": 59,
      "hit": false,
      "t": 240033.3333333334,
      "d": 2275,
      "v": 74
    },
    {
      "midi": 62,
      "hit": false,
      "t": 240033.3333333334,
      "d": 2275,
      "v": 74
    },
    {
      "midi": 45,
      "hit": false,
      "t": 242525.00000000006,
      "d": 566.666666666657,
      "v": 78
    },
    {
      "midi": 54,
      "hit": false,
      "t": 243016.66666666672,
      "d": 700,
      "v": 74
    },
    {
      "midi": 59,
      "hit": false,
      "t": 243016.66666666672,
      "d": 700,
      "v": 74
    },
    {
      "midi": 62,
      "hit": false,
      "t": 243016.66666666672,
      "d": 700,
      "v": 74
    },
    {
      "midi": 56,
      "hit": false,
      "t": 244066.66666666672,
      "d": 3558.333333333343,
      "v": 78
    },
    {
      "midi": 59,
      "hit": false,
      "t": 244066.66666666672,
      "d": 3558.333333333343,
      "v": 78
    },
    {
      "midi": 64,
      "hit": false,
      "t": 244066.66666666672,
      "d": 3558.333333333343,
      "v": 78
    },
    {
      "midi": 55,
      "hit": false,
      "t": 248066.66666666672,
      "d": 3558.333333333343,
      "v": 78
    },
    {
      "midi": 59,
      "hit": false,
      "t": 248066.66666666672,
      "d": 3558.333333333343,
      "v": 78
    },
    {
      "midi": 62,
      "hit": false,
      "t": 248066.66666666672,
      "d": 3558.333333333343,
      "v": 78
    },
    {
      "midi": 57,
      "hit": false,
      "t": 252033.3333333334,
      "d": 2275,
      "v": 74
    },
    {
      "midi": 62,
      "hit": false,
      "t": 252033.3333333334,
      "d": 2275,
      "v": 74
    },
    {
      "midi": 66,
      "hit": false,
      "t": 252033.3333333334,
      "d": 2275,
      "v": 74
    },
    {
      "midi": 45,
      "hit": false,
      "t": 254525.00000000006,
      "d": 566.666666666657,
      "v": 78
    },
    {
      "midi": 57,
      "hit": false,
      "t": 255016.66666666672,
      "d": 700,
      "v": 74
    },
    {
      "midi": 62,
      "hit": false,
      "t": 255016.66666666672,
      "d": 700,
      "v": 74
    },
    {
      "midi": 66,
      "hit": false,
      "t": 255016.66666666672,
      "d": 700,
      "v": 74
    },
    {
      "midi": 55,
      "hit": false,
      "t": 256016.66666666672,
      "d": 1675,
      "v": 72
    },
    {
      "midi": 59,
      "hit": false,
      "t": 256016.66666666672,
      "d": 1675,
      "v": 72
    },
    {
      "midi": 64,
      "hit": false,
      "t": 256016.66666666672,
      "d": 1675,
      "v": 72
    },
    {
      "midi": 67,
      "hit": false,
      "t": 257525.00000000006,
      "d": 274.9999999999709,
      "v": 66
    },
    {
      "midi": 71,
      "hit": false,
      "t": 257783.33333333337,
      "d": 216.66666666665697,
      "v": 70
    },
    {
      "midi": 57,
      "hit": false,
      "t": 258000.00000000003,
      "d": 2000,
      "v": 80
    },
    {
      "midi": 61,
      "hit": false,
      "t": 258000.00000000003,
      "d": 2000,
      "v": 80
    },
    {
      "midi": 64,
      "hit": false,
      "t": 258000.00000000003,
      "d": 2000,
      "v": 80
    },
    {
      "midi": 54,
      "hit": false,
      "t": 260000.00000000003,
      "d": 650,
      "v": 68
    },
    {
      "midi": 59,
      "hit": false,
      "t": 260000.00000000003,
      "d": 650,
      "v": 68
    },
    {
      "midi": 62,
      "hit": false,
      "t": 260000.00000000003,
      "d": 650,
      "v": 68
    },
    {
      "midi": 47,
      "hit": false,
      "t": 260500.00000000003,
      "d": 975,
      "v": 78
    },
    {
      "midi": 54,
      "hit": false,
      "t": 261000.00000000003,
      "d": 558.333333333343,
      "v": 80
    },
    {
      "midi": 59,
      "hit": false,
      "t": 261000.00000000003,
      "d": 558.333333333343,
      "v": 80
    },
    {
      "midi": 62,
      "hit": false,
      "t": 261000.00000000003,
      "d": 558.333333333343,
      "v": 80
    },
    {
      "midi": 54,
      "hit": false,
      "t": 262000.00000000003,
      "d": 1999.999999999971,
      "v": 80
    },
    {
      "midi": 59,
      "hit": false,
      "t": 262000.00000000003,
      "d": 1999.999999999971,
      "v": 80
    },
    {
      "midi": 62,
      "hit": false,
      "t": 262000.00000000003,
      "d": 1999.999999999971,
      "v": 80
    },
    {
      "midi": 56,
      "hit": false,
      "t": 264033.3333333333,
      "d": 966.6666666666861,
      "v": 80
    },
    {
      "midi": 59,
      "hit": false,
      "t": 264033.3333333333,
      "d": 966.6666666666861,
      "v": 80
    },
    {
      "midi": 64,
      "hit": false,
      "t": 264033.3333333333,
      "d": 966.6666666666861,
      "v": 80
    },
    {
      "midi": 56,
      "hit": false,
      "t": 265033.3333333333,
      "d": 966.6666666666861,
      "v": 80
    },
    {
      "midi": 59,
      "hit": false,
      "t": 265033.3333333333,
      "d": 966.6666666666861,
      "v": 80
    },
    {
      "midi": 64,
      "hit": false,
      "t": 265033.3333333333,
      "d": 966.6666666666861,
      "v": 80
    },
    {
      "midi": 55,
      "hit": false,
      "t": 266000,
      "d": 650,
      "v": 68
    },
    {
      "midi": 59,
      "hit": false,
      "t": 266000,
      "d": 650,
      "v": 68
    },
    {
      "midi": 62,
      "hit": false,
      "t": 266000,
      "d": 650,
      "v": 68
    },
    {
      "midi": 43,
      "hit": false,
      "t": 266500,
      "d": 975,
      "v": 78
    },
    {
      "midi": 55,
      "hit": false,
      "t": 267000,
      "d": 558.3333333333139,
      "v": 80
    },
    {
      "midi": 59,
      "hit": false,
      "t": 267000,
      "d": 558.3333333333139,
      "v": 80
    },
    {
      "midi": 62,
      "hit": false,
      "t": 267000,
      "d": 558.3333333333139,
      "v": 80
    },
    {
      "midi": 45,
      "hit": false,
      "t": 268000,
      "d": 1633.333333333314,
      "v": 54
    },
    {
      "midi": 66,
      "hit": false,
      "t": 268000,
      "d": 2000,
      "v": 57
    },
    {
      "midi": 69,
      "hit": false,
      "t": 268000,
      "d": 2041.666666666686,
      "v": 56
    },
    {
      "midi": 62,
      "hit": false,
      "t": 268000,
      "d": 2075,
      "v": 61
    },
    {
      "midi": 45,
      "hit": false,
      "t": 270000,
      "d": 1633.333333333314,
      "v": 52
    },
    {
      "midi": 62,
      "hit": false,
      "t": 270500,
      "d": 1358.333333333314,
      "v": 76
    },
    {
      "midi": 66,
      "hit": false,
      "t": 271500,
      "d": 316.66666666662786,
      "v": 87
    },
    {
      "midi": 55,
      "hit": false,
      "t": 272000,
      "d": 2000,
      "v": 80
    },
    {
      "midi": 59,
      "hit": false,
      "t": 272000,
      "d": 2000,
      "v": 80
    },
    {
      "midi": 64,
      "hit": false,
      "t": 272000,
      "d": 2000,
      "v": 80
    },
    {
      "midi": 57,
      "hit": false,
      "t": 274500,
      "d": 1008.3333333333139,
      "v": 68
    },
    {
      "midi": 61,
      "hit": false,
      "t": 275000,
      "d": 675,
      "v": 85
    },
    {
      "midi": 64,
      "hit": false,
      "t": 275500,
      "d": 208.33333333331393,
      "v": 87
    },
    {
      "midi": 59,
      "hit": false,
      "t": 276000,
      "d": 3283.333333333314,
      "v": 72
    },
    {
      "midi": 62,
      "hit": false,
      "t": 276000,
      "d": 3283.333333333314,
      "v": 72
    },
    {
      "midi": 55,
      "hit": false,
      "t": 279033.3333333333,
      "d": 250,
      "v": 61
    },
    {
      "midi": 59,
      "hit": false,
      "t": 279291.6666666666,
      "d": 350,
      "v": 74
    },
    {
      "midi": 62,
      "hit": false,
      "t": 279541.6666666666,
      "d": 325,
      "v": 68
    },
    {
      "midi": 67,
      "hit": false,
      "t": 279799.99999999994,
      "d": 183.33333333337214,
      "v": 68
    },
    {
      "midi": 57,
      "hit": false,
      "t": 280058.3333333333,
      "d": 5541.666666666686,
      "v": 78
    },
    {
      "midi": 62,
      "hit": false,
      "t": 280058.3333333333,
      "d": 5541.666666666686,
      "v": 78
    },
    {
      "midi": 66,
      "hit": false,
      "t": 280058.3333333333,
      "d": 5541.666666666686,
      "v": 78
    }
  ]
}