{
  "jsonPath": "Unknown/Tin Pan Alley/Milton Ager/happy-days-are-here-again.json",
  "path": "Unknown\\Tin Pan Alley\\Milton Ager\\Happy Days Are Here Again.mid",
  "name": "Happy Days Are Here Again",
  "difficulty": "Advanced",
  "bpm": 210.00021000021,
  "notes": [
    {
      "midi": 72,
      "hit": false,
      "t": 0,
      "d": 571.428,
      "v": 101
    },
    {
      "midi": 48,
      "hit": false,
      "t": 0,
      "d": 571.428,
      "v": 92
    },
    {
      "midi": 67,
      "hit": false,
      "t": 571.428,
      "d": 571.428,
      "v": 95
    },
    {
      "midi": 51,
      "hit": false,
      "t": 571.428,
      "d": 571.428,
      "v": 84
    },
    {
      "midi": 55,
      "hit": false,
      "t": 571.428,
      "d": 571.428,
      "v": 92
    },
    {
      "midi": 70,
      "hit": false,
      "t": 1142.856,
      "d": 285.71399999999994,
      "v": 77
    },
    {
      "midi": 46,
      "hit": false,
      "t": 1142.856,
      "d": 571.4280000000001,
      "v": 77
    },
    {
      "midi": 65,
      "hit": false,
      "t": 1428.57,
      "d": 857.142,
      "v": 89
    },
    {
      "midi": 50,
      "hit": false,
      "t": 1714.284,
      "d": 571.4279999999999,
      "v": 82
    },
    {
      "midi": 53,
      "hit": false,
      "t": 1714.284,
      "d": 571.4279999999999,
      "v": 74
    },
    {
      "midi": 68,
      "hit": false,
      "t": 2285.712,
      "d": 571.4279999999999,
      "v": 84
    },
    {
      "midi": 44,
      "hit": false,
      "t": 2285.712,
      "d": 571.4279999999999,
      "v": 84
    },
    {
      "midi": 63,
      "hit": false,
      "t": 2857.14,
      "d": 571.4279999999999,
      "v": 74
    },
    {
      "midi": 48,
      "hit": false,
      "t": 2857.14,
      "d": 571.4279999999999,
      "v": 95
    },
    {
      "midi": 51,
      "hit": false,
      "t": 2857.14,
      "d": 571.4279999999999,
      "v": 74
    },
    {
      "midi": 67,
      "hit": false,
      "t": 3428.5679999999998,
      "d": 285.71399999999994,
      "v": 101
    },
    {
      "midi": 43,
      "hit": false,
      "t": 3428.5679999999998,
      "d": 571.4279999999999,
      "v": 63
    },
    {
      "midi": 62,
      "hit": false,
      "t": 3714.2819999999997,
      "d": 857.1420000000003,
      "v": 84
    },
    {
      "midi": 47,
      "hit": false,
      "t": 3999.9959999999996,
      "d": 571.4280000000003,
      "v": 97
    },
    {
      "midi": 50,
      "hit": false,
      "t": 3999.9959999999996,
      "d": 571.4280000000003,
      "v": 84
    },
    {
      "midi": 60,
      "hit": false,
      "t": 4571.424,
      "d": 285.71399999999994,
      "v": 80
    },
    {
      "midi": 48,
      "hit": false,
      "t": 4571.424,
      "d": 571.4279999999999,
      "v": 97
    },
    {
      "midi": 62,
      "hit": false,
      "t": 4857.138,
      "d": 285.71399999999994,
      "v": 95
    },
    {
      "midi": 63,
      "hit": false,
      "t": 5142.852,
      "d": 285.71399999999994,
      "v": 84
    },
    {
      "midi": 51,
      "hit": false,
      "t": 5142.852,
      "d": 571.4279999999999,
      "v": 84
    },
    {
      "midi": 55,
      "hit": false,
      "t": 5142.852,
      "d": 571.4279999999999,
      "v": 84
    },
    {
      "midi": 65,
      "hit": false,
      "t": 5428.566,
      "d": 285.71399999999994,
      "v": 82
    },
    {
      "midi": 67,
      "hit": false,
      "t": 5714.28,
      "d": 571.4279999999999,
      "v": 95
    },
    {
      "midi": 43,
      "hit": false,
      "t": 5714.28,
      "d": 571.4279999999999,
      "v": 87
    },
    {
      "midi": 74,
      "hit": false,
      "t": 6285.708,
      "d": 571.4279999999999,
      "v": 104
    },
    {
      "midi": 47,
      "hit": false,
      "t": 6285.708,
      "d": 571.4279999999999,
      "v": 104
    },
    {
      "midi": 50,
      "hit": false,
      "t": 6285.708,
      "d": 571.4279999999999,
      "v": 80
    },
    {
      "midi": 72,
      "hit": false,
      "t": 6857.1359999999995,
      "d": 2285.7120000000004,
      "v": 95
    },
    {
      "midi": 48,
      "hit": false,
      "t": 6857.1359999999995,
      "d": 571.4279999999999,
      "v": 95
    },
    {
      "midi": 51,
      "hit": false,
      "t": 7428.563999999999,
      "d": 571.4279999999999,
      "v": 81
    },
    {
      "midi": 55,
      "hit": false,
      "t": 7428.563999999999,
      "d": 571.4279999999999,
      "v": 87
    },
    {
      "midi": 48,
      "hit": false,
      "t": 7999.991999999999,
      "d": 571.4280000000008,
      "v": 87
    },
    {
      "midi": 51,
      "hit": false,
      "t": 8571.42,
      "d": 571.4279999999999,
      "v": 81
    },
    {
      "midi": 55,
      "hit": false,
      "t": 8571.42,
      "d": 571.4279999999999,
      "v": 84
    },
    {
      "midi": 72,
      "hit": false,
      "t": 9142.848,
      "d": 571.4279999999999,
      "v": 97
    },
    {
      "midi": 48,
      "hit": false,
      "t": 9142.848,
      "d": 571.4279999999999,
      "v": 89
    },
    {
      "midi": 67,
      "hit": false,
      "t": 9714.276,
      "d": 571.4279999999999,
      "v": 108
    },
    {
      "midi": 51,
      "hit": false,
      "t": 9714.276,
      "d": 571.4279999999999,
      "v": 77
    },
    {
      "midi": 55,
      "hit": false,
      "t": 9714.276,
      "d": 571.4279999999999,
      "v": 84
    },
    {
      "midi": 70,
      "hit": false,
      "t": 10285.704,
      "d": 285.71399999999994,
      "v": 74
    },
    {
      "midi": 46,
      "hit": false,
      "t": 10285.704,
      "d": 571.4279999999999,
      "v": 81
    },
    {
      "midi": 65,
      "hit": false,
      "t": 10571.418,
      "d": 857.1419999999998,
      "v": 89
    },
    {
      "midi": 50,
      "hit": false,
      "t": 10857.132,
      "d": 571.4279999999999,
      "v": 84
    },
    {
      "midi": 53,
      "hit": false,
      "t": 10857.132,
      "d": 571.4279999999999,
      "v": 76
    },
    {
      "midi": 74,
      "hit": false,
      "t": 11428.56,
      "d": 571.4279999999999,
      "v": 101
    },
    {
      "midi": 50,
      "hit": false,
      "t": 11428.56,
      "d": 571.4279999999999,
      "v": 97
    },
    {
      "midi": 69,
      "hit": false,
      "t": 11999.988,
      "d": 571.4279999999999,
      "v": 92
    },
    {
      "midi": 54,
      "hit": false,
      "t": 11999.988,
      "d": 571.4279999999999,
      "v": 81
    },
    {
      "midi": 57,
      "hit": false,
      "t": 11999.988,
      "d": 571.4279999999999,
      "v": 95
    },
    {
      "midi": 71,
      "hit": false,
      "t": 12571.416,
      "d": 285.71399999999994,
      "v": 84
    },
    {
      "midi": 43,
      "hit": false,
      "t": 12571.416,
      "d": 571.4279999999999,
      "v": 82
    },
    {
      "midi": 67,
      "hit": false,
      "t": 12857.13,
      "d": 857.1419999999998,
      "v": 84
    },
    {
      "midi": 47,
      "hit": false,
      "t": 13142.844,
      "d": 571.4279999999999,
      "v": 108
    },
    {
      "midi": 50,
      "hit": false,
      "t": 13142.844,
      "d": 571.4279999999999,
      "v": 76
    },
    {
      "midi": 67,
      "hit": false,
      "t": 13714.271999999999,
      "d": 285.71399999999994,
      "v": 101
    },
    {
      "midi": 45,
      "hit": false,
      "t": 13714.271999999999,
      "d": 571.4279999999999,
      "v": 97
    },
    {
      "midi": 64,
      "hit": false,
      "t": 13999.985999999999,
      "d": 285.71399999999994,
      "v": 89
    },
    {
      "midi": 67,
      "hit": false,
      "t": 14285.699999999999,
      "d": 285.71399999999994,
      "v": 89
    },
    {
      "midi": 48,
      "hit": false,
      "t": 14285.699999999999,
      "d": 571.4279999999999,
      "v": 89
    },
    {
      "midi": 52,
      "hit": false,
      "t": 14285.699999999999,
      "d": 571.4279999999999,
      "v": 82
    },
    {
      "midi": 69,
      "hit": false,
      "t": 14571.413999999999,
      "d": 285.71399999999994,
      "v": 80
    },
    {
      "midi": 71,
      "hit": false,
      "t": 14857.127999999999,
      "d": 285.71399999999994,
      "v": 74
    },
    {
      "midi": 50,
      "hit": false,
      "t": 14857.127999999999,
      "d": 571.4279999999999,
      "v": 92
    },
    {
      "midi": 74,
      "hit": false,
      "t": 15142.841999999999,
      "d": 571.4279999999999,
      "v": 82
    },
    {
      "midi": 54,
      "hit": false,
      "t": 15428.555999999999,
      "d": 571.4279999999999,
      "v": 77
    },
    {
      "midi": 57,
      "hit": false,
      "t": 15428.555999999999,
      "d": 571.4279999999999,
      "v": 92
    },
    {
      "midi": 71,
      "hit": false,
      "t": 15714.269999999999,
      "d": 285.71399999999994,
      "v": 92
    },
    {
      "midi": 67,
      "hit": false,
      "t": 15999.983999999999,
      "d": 1714.2840000000015,
      "v": 97
    },
    {
      "midi": 50,
      "hit": false,
      "t": 15999.983999999999,
      "d": 571.4280000000017,
      "v": 101
    },
    {
      "midi": 53,
      "hit": false,
      "t": 16571.412,
      "d": 571.4279999999999,
      "v": 87
    },
    {
      "midi": 57,
      "hit": false,
      "t": 16571.412,
      "d": 571.4279999999999,
      "v": 82
    },
    {
      "midi": 43,
      "hit": false,
      "t": 17142.84,
      "d": 571.4279999999999,
      "v": 97
    },
    {
      "midi": 67,
      "hit": false,
      "t": 17714.268,
      "d": 571.4279999999999,
      "v": 97
    },
    {
      "midi": 47,
      "hit": false,
      "t": 17714.268,
      "d": 571.4279999999999,
      "v": 113
    },
    {
      "midi": 50,
      "hit": false,
      "t": 17714.268,
      "d": 571.4279999999999,
      "v": 78
    },
    {
      "midi": 60,
      "hit": false,
      "t": 18285.696,
      "d": 571.4279999999999,
      "v": 84
    },
    {
      "midi": 48,
      "hit": false,
      "t": 18285.696,
      "d": 571.4279999999999,
      "v": 89
    },
    {
      "midi": 64,
      "hit": false,
      "t": 18857.124,
      "d": 285.71399999999994,
      "v": 92
    },
    {
      "midi": 52,
      "hit": false,
      "t": 18857.124,
      "d": 571.4279999999999,
      "v": 89
    },
    {
      "midi": 55,
      "hit": false,
      "t": 18857.124,
      "d": 571.4279999999999,
      "v": 82
    },
    {
      "midi": 64,
      "hit": false,
      "t": 19142.838,
      "d": 571.4279999999999,
      "v": 95
    },
    {
      "midi": 43,
      "hit": false,
      "t": 19428.552,
      "d": 571.4279999999999,
      "v": 104
    },
    {
      "midi": 67,
      "hit": false,
      "t": 19714.266,
      "d": 857.1419999999998,
      "v": 97
    },
    {
      "midi": 47,
      "hit": false,
      "t": 19999.98,
      "d": 571.4279999999999,
      "v": 101
    },
    {
      "midi": 50,
      "hit": false,
      "t": 19999.98,
      "d": 571.4279999999999,
      "v": 82
    },
    {
      "midi": 67,
      "hit": false,
      "t": 20571.408,
      "d": 571.4279999999999,
      "v": 113
    },
    {
      "midi": 48,
      "hit": false,
      "t": 20571.408,
      "d": 571.4279999999999,
      "v": 95
    },
    {
      "midi": 72,
      "hit": false,
      "t": 21142.836,
      "d": 285.71399999999994,
      "v": 87
    },
    {
      "midi": 52,
      "hit": false,
      "t": 21142.836,
      "d": 571.4279999999999,
      "v": 97
    },
    {
      "midi": 55,
      "hit": false,
      "t": 21142.836,
      "d": 571.4279999999999,
      "v": 76
    },
    {
      "midi": 72,
      "hit": false,
      "t": 21428.55,
      "d": 571.4279999999999,
      "v": 89
    },
    {
      "midi": 48,
      "hit": false,
      "t": 21714.264,
      "d": 571.4279999999999,
      "v": 78
    },
    {
      "midi": 76,
      "hit": false,
      "t": 21999.978,
      "d": 857.1419999999998,
      "v": 104
    },
    {
      "midi": 52,
      "hit": false,
      "t": 22285.692,
      "d": 571.4279999999999,
      "v": 92
    },
    {
      "midi": 55,
      "hit": false,
      "t": 22285.692,
      "d": 571.4279999999999,
      "v": 74
    },
    {
      "midi": 76,
      "hit": false,
      "t": 22857.12,
      "d": 571.4279999999999,
      "v": 101
    },
    {
      "midi": 48,
      "hit": false,
      "t": 22857.12,
      "d": 571.4279999999999,
      "v": 76
    },
    {
      "midi": 72,
      "hit": false,
      "t": 23428.548,
      "d": 285.71399999999994,
      "v": 95
    },
    {
      "midi": 52,
      "hit": false,
      "t": 23428.548,
      "d": 571.4279999999999,
      "v": 80
    },
    {
      "midi": 55,
      "hit": false,
      "t": 23428.548,
      "d": 571.4279999999999,
      "v": 76
    },
    {
      "midi": 72,
      "hit": false,
      "t": 23714.262,
      "d": 571.4279999999999,
      "v": 95
    },
    {
      "midi": 43,
      "hit": false,
      "t": 23999.976,
      "d": 571.4279999999999,
      "v": 87
    },
    {
      "midi": 67,
      "hit": false,
      "t": 24285.69,
      "d": 857.1419999999998,
      "v": 87
    },
    {
      "midi": 47,
      "hit": false,
      "t": 24571.404,
      "d": 571.4279999999999,
      "v": 101
    },
    {
      "midi": 50,
      "hit": false,
      "t": 24571.404,
      "d": 571.4279999999999,
      "v": 82
    },
    {
      "midi": 67,
      "hit": false,
      "t": 25142.832,
      "d": 571.4279999999999,
      "v": 127
    },
    {
      "midi": 48,
      "hit": false,
      "t": 25142.832,
      "d": 571.4279999999999,
      "v": 92
    },
    {
      "midi": 64,
      "hit": false,
      "t": 25714.26,
      "d": 285.71399999999994,
      "v": 87
    },
    {
      "midi": 52,
      "hit": false,
      "t": 25714.26,
      "d": 571.4279999999999,
      "v": 89
    },
    {
      "midi": 55,
      "hit": false,
      "t": 25714.26,
      "d": 571.4279999999999,
      "v": 87
    },
    {
      "midi": 64,
      "hit": false,
      "t": 25999.974,
      "d": 571.4279999999999,
      "v": 97
    },
    {
      "midi": 48,
      "hit": false,
      "t": 26285.688,
      "d": 571.4279999999999,
      "v": 87
    },
    {
      "midi": 76,
      "hit": false,
      "t": 26571.402,
      "d": 571.4279999999999,
      "v": 101
    },
    {
      "midi": 52,
      "hit": false,
      "t": 26857.115999999998,
      "d": 571.4279999999999,
      "v": 87
    },
    {
      "midi": 55,
      "hit": false,
      "t": 26857.115999999998,
      "d": 571.4279999999999,
      "v": 82
    },
    {
      "midi": 75,
      "hit": false,
      "t": 27142.829999999998,
      "d": 285.71399999999994,
      "v": 77
    },
    {
      "midi": 74,
      "hit": false,
      "t": 27428.543999999998,
      "d": 571.4279999999999,
      "v": 101
    },
    {
      "midi": 43,
      "hit": false,
      "t": 27428.543999999998,
      "d": 571.4279999999999,
      "v": 92
    },
    {
      "midi": 71,
      "hit": false,
      "t": 27999.971999999998,
      "d": 285.71399999999994,
      "v": 89
    },
    {
      "midi": 47,
      "hit": false,
      "t": 27999.971999999998,
      "d": 571.4279999999999,
      "v": 101
    },
    {
      "midi": 50,
      "hit": false,
      "t": 27999.971999999998,
      "d": 571.4279999999999,
      "v": 72
    },
    {
      "midi": 71,
      "hit": false,
      "t": 28285.685999999998,
      "d": 571.4279999999999,
      "v": 89
    },
    {
      "midi": 43,
      "hit": false,
      "t": 28571.399999999998,
      "d": 571.4279999999999,
      "v": 78
    },
    {
      "midi": 67,
      "hit": false,
      "t": 28857.113999999998,
      "d": 857.1419999999998,
      "v": 80
    },
    {
      "midi": 47,
      "hit": false,
      "t": 29142.827999999998,
      "d": 571.4279999999999,
      "v": 97
    },
    {
      "midi": 50,
      "hit": false,
      "t": 29142.827999999998,
      "d": 571.4279999999999,
      "v": 87
    },
    {
      "midi": 67,
      "hit": false,
      "t": 29714.255999999998,
      "d": 571.4279999999999,
      "v": 101
    },
    {
      "midi": 43,
      "hit": false,
      "t": 29714.255999999998,
      "d": 571.4279999999999,
      "v": 84
    },
    {
      "midi": 65,
      "hit": false,
      "t": 30285.683999999997,
      "d": 285.71399999999994,
      "v": 87
    },
    {
      "midi": 47,
      "hit": false,
      "t": 30285.683999999997,
      "d": 571.4279999999999,
      "v": 104
    },
    {
      "midi": 50,
      "hit": false,
      "t": 30285.683999999997,
      "d": 571.4279999999999,
      "v": 80
    },
    {
      "midi": 65,
      "hit": false,
      "t": 30571.397999999997,
      "d": 571.4279999999999,
      "v": 82
    },
    {
      "midi": 43,
      "hit": false,
      "t": 30857.111999999997,
      "d": 571.4279999999999,
      "v": 80
    },
    {
      "midi": 74,
      "hit": false,
      "t": 31142.825999999997,
      "d": 571.4279999999999,
      "v": 97
    },
    {
      "midi": 47,
      "hit": false,
      "t": 31428.539999999997,
      "d": 571.4279999999999,
      "v": 95
    },
    {
      "midi": 50,
      "hit": false,
      "t": 31428.539999999997,
      "d": 571.4279999999999,
      "v": 82
    },
    {
      "midi": 76,
      "hit": false,
      "t": 31714.253999999997,
      "d": 285.71399999999994,
      "v": 97
    },
    {
      "midi": 72,
      "hit": false,
      "t": 31999.967999999997,
      "d": 571.4279999999999,
      "v": 92
    },
    {
      "midi": 48,
      "hit": false,
      "t": 31999.967999999997,
      "d": 571.4279999999999,
      "v": 84
    },
    {
      "midi": 72,
      "hit": false,
      "t": 32571.395999999997,
      "d": 571.4280000000035,
      "v": 117
    },
    {
      "midi": 52,
      "hit": false,
      "t": 32571.395999999997,
      "d": 571.4280000000035,
      "v": 80
    },
    {
      "midi": 55,
      "hit": false,
      "t": 32571.395999999997,
      "d": 571.4280000000035,
      "v": 89
    },
    {
      "midi": 72,
      "hit": false,
      "t": 33142.824,
      "d": 571.4279999999999,
      "v": 104
    },
    {
      "midi": 48,
      "hit": false,
      "t": 33142.824,
      "d": 571.4279999999999,
      "v": 92
    },
    {
      "midi": 53,
      "hit": false,
      "t": 33142.824,
      "d": 571.4279999999999,
      "v": 92
    },
    {
      "midi": 57,
      "hit": false,
      "t": 33142.824,
      "d": 571.4279999999999,
      "v": 80
    },
    {
      "midi": 72,
      "hit": false,
      "t": 33714.252,
      "d": 571.4279999999999,
      "v": 97
    },
    {
      "midi": 48,
      "hit": false,
      "t": 33714.252,
      "d": 571.4279999999999,
      "v": 104
    },
    {
      "midi": 53,
      "hit": false,
      "t": 33714.252,
      "d": 571.4279999999999,
      "v": 89
    },
    {
      "midi": 56,
      "hit": false,
      "t": 33714.252,
      "d": 571.4279999999999,
      "v": 61
    },
    {
      "midi": 72,
      "hit": false,
      "t": 34285.68,
      "d": 2285.7119999999995,
      "v": 113
    },
    {
      "midi": 48,
      "hit": false,
      "t": 34285.68,
      "d": 1142.8559999999998,
      "v": 87
    },
    {
      "midi": 52,
      "hit": false,
      "t": 34285.68,
      "d": 1142.8559999999998,
      "v": 92
    },
    {
      "midi": 55,
      "hit": false,
      "t": 34285.68,
      "d": 1142.8559999999998,
      "v": 69
    },
    {
      "midi": 43,
      "hit": false,
      "t": 35428.536,
      "d": 571.4279999999999,
      "v": 87
    },
    {
      "midi": 47,
      "hit": false,
      "t": 35999.964,
      "d": 571.4279999999999,
      "v": 87
    },
    {
      "midi": 50,
      "hit": false,
      "t": 35999.964,
      "d": 571.4279999999999,
      "v": 87
    },
    {
      "midi": 60,
      "hit": false,
      "t": 36571.392,
      "d": 571.4279999999999,
      "v": 117
    },
    {
      "midi": 48,
      "hit": false,
      "t": 36571.392,
      "d": 571.4279999999999,
      "v": 78
    },
    {
      "midi": 64,
      "hit": false,
      "t": 37142.82,
      "d": 285.71399999999994,
      "v": 101
    },
    {
      "midi": 52,
      "hit": false,
      "t": 37142.82,
      "d": 571.4279999999999,
      "v": 95
    },
    {
      "midi": 55,
      "hit": false,
      "t": 37142.82,
      "d": 571.4279999999999,
      "v": 84
    },
    {
      "midi": 64,
      "hit": false,
      "t": 37428.534,
      "d": 571.4279999999999,
      "v": 97
    },
    {
      "midi": 43,
      "hit": false,
      "t": 37714.248,
      "d": 571.4279999999999,
      "v": 92
    },
    {
      "midi": 67,
      "hit": false,
      "t": 37999.962,
      "d": 857.1419999999998,
      "v": 104
    },
    {
      "midi": 47,
      "hit": false,
      "t": 38285.676,
      "d": 571.4279999999999,
      "v": 108
    },
    {
      "midi": 50,
      "hit": false,
      "t": 38285.676,
      "d": 571.4279999999999,
      "v": 78
    },
    {
      "midi": 67,
      "hit": false,
      "t": 38857.104,
      "d": 571.4279999999999,
      "v": 97
    },
    {
      "midi": 48,
      "hit": false,
      "t": 38857.104,
      "d": 571.4279999999999,
      "v": 92
    },
    {
      "midi": 72,
      "hit": false,
      "t": 39428.532,
      "d": 285.71399999999994,
      "v": 87
    },
    {
      "midi": 52,
      "hit": false,
      "t": 39428.532,
      "d": 571.4279999999999,
      "v": 89
    },
    {
      "midi": 55,
      "hit": false,
      "t": 39428.532,
      "d": 571.4279999999999,
      "v": 87
    },
    {
      "midi": 72,
      "hit": false,
      "t": 39714.246,
      "d": 571.4279999999999,
      "v": 104
    },
    {
      "midi": 48,
      "hit": false,
      "t": 39999.96,
      "d": 571.4279999999999,
      "v": 82
    },
    {
      "midi": 76,
      "hit": false,
      "t": 40285.674,
      "d": 857.1419999999998,
      "v": 101
    },
    {
      "midi": 52,
      "hit": false,
      "t": 40571.388,
      "d": 571.4279999999999,
      "v": 92
    },
    {
      "midi": 55,
      "hit": false,
      "t": 40571.388,
      "d": 571.4279999999999,
      "v": 95
    },
    {
      "midi": 76,
      "hit": false,
      "t": 41142.816,
      "d": 571.4279999999999,
      "v": 113
    },
    {
      "midi": 48,
      "hit": false,
      "t": 41142.816,
      "d": 571.4279999999999,
      "v": 78
    },
    {
      "midi": 72,
      "hit": false,
      "t": 41714.244,
      "d": 285.71399999999994,
      "v": 82
    },
    {
      "midi": 52,
      "hit": false,
      "t": 41714.244,
      "d": 571.4279999999999,
      "v": 87
    },
    {
      "midi": 55,
      "hit": false,
      "t": 41714.244,
      "d": 571.4279999999999,
      "v": 76
    },
    {
      "midi": 72,
      "hit": false,
      "t": 41999.958,
      "d": 571.4279999999999,
      "v": 113
    },
    {
      "midi": 43,
      "hit": false,
      "t": 42285.672,
      "d": 571.4279999999999,
      "v": 92
    },
    {
      "midi": 67,
      "hit": false,
      "t": 42571.386,
      "d": 857.1419999999998,
      "v": 104
    },
    {
      "midi": 47,
      "hit": false,
      "t": 42857.1,
      "d": 571.4279999999999,
      "v": 101
    },
    {
      "midi": 50,
      "hit": false,
      "t": 42857.1,
      "d": 571.4279999999999,
      "v": 87
    },
    {
      "midi": 67,
      "hit": false,
      "t": 43428.528,
      "d": 571.4279999999999,
      "v": 117
    },
    {
      "midi": 48,
      "hit": false,
      "t": 43428.528,
      "d": 571.4279999999999,
      "v": 97
    },
    {
      "midi": 64,
      "hit": false,
      "t": 43999.956,
      "d": 285.71399999999994,
      "v": 92
    },
    {
      "midi": 52,
      "hit": false,
      "t": 43999.956,
      "d": 571.4279999999999,
      "v": 92
    },
    {
      "midi": 55,
      "hit": false,
      "t": 43999.956,
      "d": 571.4279999999999,
      "v": 82
    },
    {
      "midi": 64,
      "hit": false,
      "t": 44285.67,
      "d": 571.4279999999999,
      "v": 97
    },
    {
      "midi": 48,
      "hit": false,
      "t": 44571.384,
      "d": 571.4279999999999,
      "v": 89
    },
    {
      "midi": 76,
      "hit": false,
      "t": 44857.098,
      "d": 571.4279999999999,
      "v": 89
    },
    {
      "midi": 52,
      "hit": false,
      "t": 45142.812,
      "d": 571.4279999999999,
      "v": 78
    },
    {
      "midi": 55,
      "hit": false,
      "t": 45142.812,
      "d": 571.4279999999999,
      "v": 87
    },
    {
      "midi": 75,
      "hit": false,
      "t": 45428.526,
      "d": 285.71399999999994,
      "v": 74
    },
    {
      "midi": 74,
      "hit": false,
      "t": 45714.24,
      "d": 571.4279999999999,
      "v": 87
    },
    {
      "midi": 43,
      "hit": false,
      "t": 45714.24,
      "d": 571.4279999999999,
      "v": 95
    },
    {
      "midi": 71,
      "hit": false,
      "t": 46285.668,
      "d": 285.71399999999994,
      "v": 89
    },
    {
      "midi": 47,
      "hit": false,
      "t": 46285.668,
      "d": 571.4279999999999,
      "v": 92
    },
    {
      "midi": 50,
      "hit": false,
      "t": 46285.668,
      "d": 571.4279999999999,
      "v": 61
    },
    {
      "midi": 71,
      "hit": false,
      "t": 46571.382,
      "d": 571.4279999999999,
      "v": 101
    },
    {
      "midi": 43,
      "hit": false,
      "t": 46857.096,
      "d": 571.4279999999999,
      "v": 89
    },
    {
      "midi": 67,
      "hit": false,
      "t": 47142.81,
      "d": 857.1419999999998,
      "v": 92
    },
    {
      "midi": 47,
      "hit": false,
      "t": 47428.524,
      "d": 571.4279999999999,
      "v": 89
    },
    {
      "midi": 50,
      "hit": false,
      "t": 47428.524,
      "d": 571.4279999999999,
      "v": 84
    },
    {
      "midi": 67,
      "hit": false,
      "t": 47999.952,
      "d": 571.4279999999999,
      "v": 113
    },
    {
      "midi": 43,
      "hit": false,
      "t": 47999.952,
      "d": 571.4279999999999,
      "v": 87
    },
    {
      "midi": 65,
      "hit": false,
      "t": 48571.38,
      "d": 285.71399999999994,
      "v": 87
    },
    {
      "midi": 47,
      "hit": false,
      "t": 48571.38,
      "d": 571.4279999999999,
      "v": 97
    },
    {
      "midi": 50,
      "hit": false,
      "t": 48571.38,
      "d": 571.4279999999999,
      "v": 80
    },
    {
      "midi": 65,
      "hit": false,
      "t": 48857.094,
      "d": 571.4279999999999,
      "v": 95
    },
    {
      "midi": 43,
      "hit": false,
      "t": 49142.808,
      "d": 571.4279999999999,
      "v": 80
    },
    {
      "midi": 74,
      "hit": false,
      "t": 49428.522,
      "d": 571.4279999999999,
      "v": 101
    },
    {
      "midi": 47,
      "hit": false,
      "t": 49714.236,
      "d": 571.4279999999999,
      "v": 95
    },
    {
      "midi": 50,
      "hit": false,
      "t": 49714.236,
      "d": 571.4279999999999,
      "v": 84
    },
    {
      "midi": 76,
      "hit": false,
      "t": 49999.95,
      "d": 285.71399999999994,
      "v": 104
    },
    {
      "midi": 72,
      "hit": false,
      "t": 50285.664,
      "d": 571.4279999999999,
      "v": 92
    },
    {
      "midi": 48,
      "hit": false,
      "t": 50285.664,
      "d": 571.4279999999999,
      "v": 87
    },
    {
      "midi": 72,
      "hit": false,
      "t": 50857.092,
      "d": 571.4279999999999,
      "v": 101
    },
    {
      "midi": 52,
      "hit": false,
      "t": 50857.092,
      "d": 571.4279999999999,
      "v": 92
    },
    {
      "midi": 55,
      "hit": false,
      "t": 50857.092,
      "d": 571.4279999999999,
      "v": 89
    },
    {
      "midi": 72,
      "hit": false,
      "t": 51428.52,
      "d": 571.4279999999999,
      "v": 101
    },
    {
      "midi": 48,
      "hit": false,
      "t": 51428.52,
      "d": 571.4279999999999,
      "v": 97
    },
    {
      "midi": 53,
      "hit": false,
      "t": 51428.52,
      "d": 571.4279999999999,
      "v": 95
    },
    {
      "midi": 57,
      "hit": false,
      "t": 51428.52,
      "d": 571.4279999999999,
      "v": 80
    },
    {
      "midi": 72,
      "hit": false,
      "t": 51999.948,
      "d": 571.4279999999999,
      "v": 104
    },
    {
      "midi": 48,
      "hit": false,
      "t": 51999.948,
      "d": 571.4279999999999,
      "v": 101
    },
    {
      "midi": 53,
      "hit": false,
      "t": 51999.948,
      "d": 571.4279999999999,
      "v": 97
    },
    {
      "midi": 56,
      "hit": false,
      "t": 51999.948,
      "d": 571.4279999999999,
      "v": 36
    },
    {
      "midi": 72,
      "hit": false,
      "t": 52571.376,
      "d": 1714.2839999999997,
      "v": 92
    },
    {
      "midi": 48,
      "hit": false,
      "t": 52571.376,
      "d": 1142.8559999999998,
      "v": 87
    },
    {
      "midi": 52,
      "hit": false,
      "t": 52571.376,
      "d": 1142.8559999999998,
      "v": 92
    },
    {
      "midi": 55,
      "hit": false,
      "t": 52571.376,
      "d": 1142.8559999999998,
      "v": 72
    },
    {
      "midi": 48,
      "hit": false,
      "t": 53714.231999999996,
      "d": 571.4279999999999,
      "v": 87
    },
    {
      "midi": 72,
      "hit": false,
      "t": 54285.659999999996,
      "d": 571.4279999999999,
      "v": 108
    },
    {
      "midi": 52,
      "hit": false,
      "t": 54285.659999999996,
      "d": 571.4279999999999,
      "v": 87
    },
    {
      "midi": 55,
      "hit": false,
      "t": 54285.659999999996,
      "d": 571.4279999999999,
      "v": 87
    },
    {
      "midi": 71,
      "hit": false,
      "t": 54857.087999999996,
      "d": 571.4279999999999,
      "v": 122
    },
    {
      "midi": 52,
      "hit": false,
      "t": 54857.087999999996,
      "d": 571.4279999999999,
      "v": 104
    },
    {
      "midi": 64,
      "hit": false,
      "t": 55428.515999999996,
      "d": 571.4279999999999,
      "v": 92
    },
    {
      "midi": 56,
      "hit": false,
      "t": 55428.515999999996,
      "d": 571.4279999999999,
      "v": 61
    },
    {
      "midi": 59,
      "hit": false,
      "t": 55428.515999999996,
      "d": 571.4279999999999,
      "v": 82
    },
    {
      "midi": 66,
      "hit": false,
      "t": 55999.943999999996,
      "d": 285.71399999999994,
      "v": 104
    },
    {
      "midi": 47,
      "hit": false,
      "t": 55999.943999999996,
      "d": 571.4279999999999,
      "v": 122
    },
    {
      "midi": 68,
      "hit": false,
      "t": 56285.657999999996,
      "d": 571.4279999999999,
      "v": 81
    },
    {
      "midi": 51,
      "hit": false,
      "t": 56571.371999999996,
      "d": 571.4279999999999,
      "v": 92
    },
    {
      "midi": 54,
      "hit": false,
      "t": 56571.371999999996,
      "d": 571.4279999999999,
      "v": 88
    },
    {
      "midi": 69,
      "hit": false,
      "t": 56857.085999999996,
      "d": 285.71399999999994,
      "v": 92
    },
    {
      "midi": 71,
      "hit": false,
      "t": 57142.799999999996,
      "d": 1714.2839999999997,
      "v": 95
    },
    {
      "midi": 52,
      "hit": false,
      "t": 57142.799999999996,
      "d": 571.4279999999999,
      "v": 89
    },
    {
      "midi": 56,
      "hit": false,
      "t": 57714.227999999996,
      "d": 571.4279999999999,
      "v": 81
    },
    {
      "midi": 59,
      "hit": false,
      "t": 57714.227999999996,
      "d": 571.4279999999999,
      "v": 89
    },
    {
      "midi": 48,
      "hit": false,
      "t": 58285.655999999995,
      "d": 571.4279999999999,
      "v": 95
    },
    {
      "midi": 72,
      "hit": false,
      "t": 58857.083999999995,
      "d": 571.4279999999999,
      "v": 92
    },
    {
      "midi": 51,
      "hit": false,
      "t": 58857.083999999995,
      "d": 571.4279999999999,
      "v": 88
    },
    {
      "midi": 55,
      "hit": false,
      "t": 58857.083999999995,
      "d": 571.4279999999999,
      "v": 89
    },
    {
      "midi": 74,
      "hit": false,
      "t": 59428.511999999995,
      "d": 571.4279999999999,
      "v": 101
    },
    {
      "midi": 43,
      "hit": false,
      "t": 59428.511999999995,
      "d": 571.4279999999999,
      "v": 101
    },
    {
      "midi": 67,
      "hit": false,
      "t": 59999.939999999995,
      "d": 571.4279999999999,
      "v": 92
    },
    {
      "midi": 47,
      "hit": false,
      "t": 59999.939999999995,
      "d": 571.4279999999999,
      "v": 108
    },
    {
      "midi": 50,
      "hit": false,
      "t": 59999.939999999995,
      "d": 571.4279999999999,
      "v": 87
    },
    {
      "midi": 69,
      "hit": false,
      "t": 60571.367999999995,
      "d": 285.71399999999994,
      "v": 108
    },
    {
      "midi": 50,
      "hit": false,
      "t": 60571.367999999995,
      "d": 571.4279999999999,
      "v": 69
    },
    {
      "midi": 71,
      "hit": false,
      "t": 60857.081999999995,
      "d": 571.4279999999999,
      "v": 108
    },
    {
      "midi": 54,
      "hit": false,
      "t": 61142.795999999995,
      "d": 571.4279999999999,
      "v": 81
    },
    {
      "midi": 57,
      "hit": false,
      "t": 61142.795999999995,
      "d": 571.4279999999999,
      "v": 95
    },
    {
      "midi": 72,
      "hit": false,
      "t": 61428.509999999995,
      "d": 285.71399999999994,
      "v": 89
    },
    {
      "midi": 74,
      "hit": false,
      "t": 61714.223999999995,
      "d": 2285.7119999999995,
      "v": 97
    },
    {
      "midi": 50,
      "hit": false,
      "t": 61714.223999999995,
      "d": 571.4279999999999,
      "v": 92
    },
    {
      "midi": 53,
      "hit": false,
      "t": 62285.651999999995,
      "d": 571.4279999999999,
      "v": 89
    },
    {
      "midi": 57,
      "hit": false,
      "t": 62285.651999999995,
      "d": 571.4279999999999,
      "v": 84
    },
    {
      "midi": 43,
      "hit": false,
      "t": 62857.079999999994,
      "d": 571.4279999999999,
      "v": 95
    },
    {
      "midi": 47,
      "hit": false,
      "t": 63428.507999999994,
      "d": 571.4279999999999,
      "v": 97
    },
    {
      "midi": 50,
      "hit": false,
      "t": 63428.507999999994,
      "d": 571.4279999999999,
      "v": 84
    },
    {
      "midi": 60,
      "hit": false,
      "t": 63999.935999999994,
      "d": 571.4279999999999,
      "v": 97
    },
    {
      "midi": 48,
      "hit": false,
      "t": 63999.935999999994,
      "d": 571.4279999999999,
      "v": 95
    },
    {
      "midi": 64,
      "hit": false,
      "t": 64571.363999999994,
      "d": 285.71399999999994,
      "v": 97
    },
    {
      "midi": 52,
      "hit": false,
      "t": 64571.363999999994,
      "d": 571.4279999999999,
      "v": 92
    },
    {
      "midi": 55,
      "hit": false,
      "t": 64571.363999999994,
      "d": 571.4279999999999,
      "v": 74
    },
    {
      "midi": 64,
      "hit": false,
      "t": 64857.077999999994,
      "d": 571.4279999999999,
      "v": 82
    },
    {
      "midi": 43,
      "hit": false,
      "t": 65142.791999999994,
      "d": 571.4280000000072,
      "v": 97
    },
    {
      "midi": 67,
      "hit": false,
      "t": 65428.505999999994,
      "d": 857.1420000000071,
      "v": 113
    },
    {
      "midi": 47,
      "hit": false,
      "t": 65714.22,
      "d": 571.4279999999999,
      "v": 113
    },
    {
      "midi": 50,
      "hit": false,
      "t": 65714.22,
      "d": 571.4279999999999,
      "v": 87
    },
    {
      "midi": 67,
      "hit": false,
      "t": 66285.648,
      "d": 571.4279999999999,
      "v": 104
    },
    {
      "midi": 48,
      "hit": false,
      "t": 66285.648,
      "d": 571.4279999999999,
      "v": 97
    },
    {
      "midi": 72,
      "hit": false,
      "t": 66857.076,
      "d": 285.7140000000072,
      "v": 92
    },
    {
      "midi": 52,
      "hit": false,
      "t": 66857.076,
      "d": 571.4279999999999,
      "v": 95
    },
    {
      "midi": 55,
      "hit": false,
      "t": 66857.076,
      "d": 571.4279999999999,
      "v": 89
    },
    {
      "midi": 72,
      "hit": false,
      "t": 67142.79000000001,
      "d": 571.4279999999999,
      "v": 87
    },
    {
      "midi": 48,
      "hit": false,
      "t": 67428.504,
      "d": 571.4279999999999,
      "v": 87
    },
    {
      "midi": 76,
      "hit": false,
      "t": 67714.21800000001,
      "d": 857.1420000000071,
      "v": 101
    },
    {
      "midi": 52,
      "hit": false,
      "t": 67999.932,
      "d": 571.4279999999999,
      "v": 89
    },
    {
      "midi": 55,
      "hit": false,
      "t": 67999.932,
      "d": 571.4279999999999,
      "v": 89
    },
    {
      "midi": 48,
      "hit": false,
      "t": 68571.36,
      "d": 571.4279999999999,
      "v": 82
    },
    {
      "midi": 76,
      "hit": false,
      "t": 68571.36000000002,
      "d": 571.4279999999999,
      "v": 104
    },
    {
      "midi": 52,
      "hit": false,
      "t": 69142.788,
      "d": 571.4279999999999,
      "v": 95
    },
    {
      "midi": 55,
      "hit": false,
      "t": 69142.788,
      "d": 571.4279999999999,
      "v": 95
    },
    {
      "midi": 72,
      "hit": false,
      "t": 69142.78800000002,
      "d": 285.7140000000072,
      "v": 101
    },
    {
      "midi": 72,
      "hit": false,
      "t": 69428.50200000002,
      "d": 571.4279999999999,
      "v": 108
    },
    {
      "midi": 43,
      "hit": false,
      "t": 69714.216,
      "d": 571.4279999999999,
      "v": 108
    },
    {
      "midi": 67,
      "hit": false,
      "t": 69999.93000000002,
      "d": 857.1420000000071,
      "v": 108
    },
    {
      "midi": 47,
      "hit": false,
      "t": 70285.644,
      "d": 571.4279999999999,
      "v": 104
    },
    {
      "midi": 50,
      "hit": false,
      "t": 70285.644,
      "d": 571.4279999999999,
      "v": 89
    },
    {
      "midi": 48,
      "hit": false,
      "t": 70857.072,
      "d": 571.4279999999999,
      "v": 84
    },
    {
      "midi": 67,
      "hit": false,
      "t": 70857.07200000003,
      "d": 571.4279999999999,
      "v": 113
    },
    {
      "midi": 52,
      "hit": false,
      "t": 71428.5,
      "d": 571.4279999999999,
      "v": 92
    },
    {
      "midi": 55,
      "hit": false,
      "t": 71428.5,
      "d": 571.4279999999999,
      "v": 92
    },
    {
      "midi": 64,
      "hit": false,
      "t": 71428.50000000003,
      "d": 285.7140000000072,
      "v": 92
    },
    {
      "midi": 64,
      "hit": false,
      "t": 71714.21400000004,
      "d": 571.4279999999999,
      "v": 95
    },
    {
      "midi": 48,
      "hit": false,
      "t": 71999.928,
      "d": 571.4279999999999,
      "v": 95
    },
    {
      "midi": 76,
      "hit": false,
      "t": 72285.64200000004,
      "d": 571.4279999999999,
      "v": 104
    },
    {
      "midi": 52,
      "hit": false,
      "t": 72571.356,
      "d": 571.4279999999999,
      "v": 87
    },
    {
      "midi": 55,
      "hit": false,
      "t": 72571.356,
      "d": 571.4279999999999,
      "v": 89
    },
    {
      "midi": 75,
      "hit": false,
      "t": 72857.07000000004,
      "d": 285.7140000000072,
      "v": 77
    },
    {
      "midi": 43,
      "hit": false,
      "t": 73142.784,
      "d": 571.4279999999999,
      "v": 89
    },
    {
      "midi": 74,
      "hit": false,
      "t": 73142.78400000004,
      "d": 571.4279999999999,
      "v": 104
    },
    {
      "midi": 47,
      "hit": false,
      "t": 73714.212,
      "d": 571.4279999999999,
      "v": 108
    },
    {
      "midi": 50,
      "hit": false,
      "t": 73714.212,
      "d": 571.4279999999999,
      "v": 89
    },
    {
      "midi": 71,
      "hit": false,
      "t": 73714.21200000004,
      "d": 285.7140000000072,
      "v": 72
    },
    {
      "midi": 71,
      "hit": false,
      "t": 73999.92600000005,
      "d": 571.4279999999999,
      "v": 108
    },
    {
      "midi": 43,
      "hit": false,
      "t": 74285.64,
      "d": 571.4279999999999,
      "v": 89
    },
    {
      "midi": 67,
      "hit": false,
      "t": 74571.35400000005,
      "d": 857.1420000000071,
      "v": 95
    },
    {
      "midi": 47,
      "hit": false,
      "t": 74857.068,
      "d": 571.4279999999999,
      "v": 101
    },
    {
      "midi": 50,
      "hit": false,
      "t": 74857.068,
      "d": 571.4279999999999,
      "v": 84
    },
    {
      "midi": 43,
      "hit": false,
      "t": 75428.496,
      "d": 571.4279999999999,
      "v": 84
    },
    {
      "midi": 67,
      "hit": false,
      "t": 75428.49600000006,
      "d": 571.4279999999999,
      "v": 127
    },
    {
      "midi": 47,
      "hit": false,
      "t": 75999.924,
      "d": 571.4279999999999,
      "v": 97
    },
    {
      "midi": 50,
      "hit": false,
      "t": 75999.924,
      "d": 571.4279999999999,
      "v": 84
    },
    {
      "midi": 65,
      "hit": false,
      "t": 75999.92400000006,
      "d": 285.7140000000072,
      "v": 92
    },
    {
      "midi": 65,
      "hit": false,
      "t": 76285.63800000006,
      "d": 571.4279999999999,
      "v": 113
    },
    {
      "midi": 43,
      "hit": false,
      "t": 76571.352,
      "d": 571.4279999999999,
      "v": 82
    },
    {
      "midi": 74,
      "hit": false,
      "t": 76857.06600000006,
      "d": 571.4279999999999,
      "v": 97
    },
    {
      "midi": 47,
      "hit": false,
      "t": 77142.78,
      "d": 571.4279999999999,
      "v": 104
    },
    {
      "midi": 50,
      "hit": false,
      "t": 77142.78,
      "d": 571.4279999999999,
      "v": 89
    },
    {
      "midi": 76,
      "hit": false,
      "t": 77428.49400000006,
      "d": 285.7140000000072,
      "v": 95
    },
    {
      "midi": 48,
      "hit": false,
      "t": 77714.208,
      "d": 571.4279999999999,
      "v": 89
    },
    {
      "midi": 72,
      "hit": false,
      "t": 77714.20800000007,
      "d": 571.4279999999999,
      "v": 104
    },
    {
      "midi": 52,
      "hit": false,
      "t": 78285.636,
      "d": 571.4279999999999,
      "v": 80
    },
    {
      "midi": 55,
      "hit": false,
      "t": 78285.636,
      "d": 571.4279999999999,
      "v": 97
    },
    {
      "midi": 72,
      "hit": false,
      "t": 78285.63600000007,
      "d": 571.4279999999999,
      "v": 113
    },
    {
      "midi": 48,
      "hit": false,
      "t": 78857.064,
      "d": 571.4279999999999,
      "v": 97
    },
    {
      "midi": 53,
      "hit": false,
      "t": 78857.064,
      "d": 571.4279999999999,
      "v": 95
    },
    {
      "midi": 57,
      "hit": false,
      "t": 78857.064,
      "d": 571.4279999999999,
      "v": 92
    },
    {
      "midi": 72,
      "hit": false,
      "t": 78857.06400000007,
      "d": 571.4279999999999,
      "v": 97
    },
    {
      "midi": 48,
      "hit": false,
      "t": 79428.492,
      "d": 571.4279999999999,
      "v": 101
    },
    {
      "midi": 53,
      "hit": false,
      "t": 79428.492,
      "d": 571.4279999999999,
      "v": 101
    },
    {
      "midi": 56,
      "hit": false,
      "t": 79428.492,
      "d": 571.4279999999999,
      "v": 59
    },
    {
      "midi": 72,
      "hit": false,
      "t": 79428.49200000007,
      "d": 571.4279999999999,
      "v": 95
    },
    {
      "midi": 48,
      "hit": false,
      "t": 79999.92,
      "d": 2285.7119999999995,
      "v": 82
    },
    {
      "midi": 52,
      "hit": false,
      "t": 79999.92,
      "d": 2285.7119999999995,
      "v": 89
    },
    {
      "midi": 55,
      "hit": false,
      "t": 79999.92,
      "d": 2285.7119999999995,
      "v": 82
    },
    {
      "midi": 72,
      "hit": false,
      "t": 79999.92000000007,
      "d": 1714.2839999999997,
      "v": 101
    },
    {
      "midi": 84,
      "hit": false,
      "t": 81714.20400000007,
      "d": 571.4279999999999,
      "v": 80
    }
  ]
}