{
  "jsonPath": "Animes/One Piece MIDI Collection/memories.json",
  "path": "Animes\\One Piece MIDI Collection\\Memories.mid",
  "name": "Memories",
  "difficulty": "Advanced",
  "bpm": 142.0000710000355,
  "notes": [
    {
      "midi": 69,
      "hit": false,
      "t": 0,
      "d": 420.77443750000003,
      "v": 100
    },
    {
      "midi": 57,
      "hit": false,
      "t": 0,
      "d": 3378.5194375,
      "v": 100
    },
    {
      "midi": 62,
      "hit": false,
      "t": 0,
      "d": 3378.5194375,
      "v": 100
    },
    {
      "midi": 66,
      "hit": false,
      "t": 0,
      "d": 3378.5194375,
      "v": 100
    },
    {
      "midi": 74,
      "hit": false,
      "t": 422.535,
      "d": 420.77443750000003,
      "v": 100
    },
    {
      "midi": 78,
      "hit": false,
      "t": 845.07,
      "d": 420.7744375000001,
      "v": 100
    },
    {
      "midi": 74,
      "hit": false,
      "t": 1267.6050000000002,
      "d": 420.7744375,
      "v": 100
    },
    {
      "midi": 69,
      "hit": false,
      "t": 1690.1400000000003,
      "d": 420.7744375000002,
      "v": 100
    },
    {
      "midi": 74,
      "hit": false,
      "t": 2112.6750000000006,
      "d": 209.50693749999982,
      "v": 100
    },
    {
      "midi": 79,
      "hit": false,
      "t": 2323.9425000000006,
      "d": 420.7744375000002,
      "v": 100
    },
    {
      "midi": 77,
      "hit": false,
      "t": 2746.477500000001,
      "d": 209.50693749999982,
      "v": 100
    },
    {
      "midi": 74,
      "hit": false,
      "t": 2957.745000000001,
      "d": 420.7744375000002,
      "v": 100
    },
    {
      "midi": 57,
      "hit": false,
      "t": 3380.28,
      "d": 3378.5194374999996,
      "v": 100
    },
    {
      "midi": 62,
      "hit": false,
      "t": 3380.28,
      "d": 3378.5194374999996,
      "v": 100
    },
    {
      "midi": 66,
      "hit": false,
      "t": 3380.28,
      "d": 3378.5194374999996,
      "v": 100
    },
    {
      "midi": 69,
      "hit": false,
      "t": 3380.280000000001,
      "d": 420.7744375000002,
      "v": 100
    },
    {
      "midi": 74,
      "hit": false,
      "t": 3802.8150000000014,
      "d": 420.7744375000002,
      "v": 100
    },
    {
      "midi": 78,
      "hit": false,
      "t": 4225.350000000001,
      "d": 420.7744375000002,
      "v": 100
    },
    {
      "midi": 74,
      "hit": false,
      "t": 4647.885000000001,
      "d": 420.7744375000002,
      "v": 100
    },
    {
      "midi": 69,
      "hit": false,
      "t": 5070.420000000001,
      "d": 420.7744375000002,
      "v": 100
    },
    {
      "midi": 74,
      "hit": false,
      "t": 5492.955000000001,
      "d": 209.50693750000028,
      "v": 100
    },
    {
      "midi": 79,
      "hit": false,
      "t": 5704.222500000001,
      "d": 420.7744375000002,
      "v": 100
    },
    {
      "midi": 77,
      "hit": false,
      "t": 6126.757500000001,
      "d": 209.50693750000028,
      "v": 100
    },
    {
      "midi": 74,
      "hit": false,
      "t": 6338.025000000001,
      "d": 420.7744375000002,
      "v": 100
    },
    {
      "midi": 45,
      "hit": false,
      "t": 6760.5599999999995,
      "d": 209.50693750000028,
      "v": 100
    },
    {
      "midi": 69,
      "hit": false,
      "t": 6760.56,
      "d": 420.7744375000002,
      "v": 100
    },
    {
      "midi": 45,
      "hit": false,
      "t": 6971.827499999999,
      "d": 209.50693750000028,
      "v": 100
    },
    {
      "midi": 45,
      "hit": false,
      "t": 7183.094999999999,
      "d": 209.50693750000028,
      "v": 100
    },
    {
      "midi": 74,
      "hit": false,
      "t": 7183.095,
      "d": 420.7744375000002,
      "v": 100
    },
    {
      "midi": 45,
      "hit": false,
      "t": 7394.362499999999,
      "d": 209.50693750000028,
      "v": 100
    },
    {
      "midi": 45,
      "hit": false,
      "t": 7605.629999999999,
      "d": 209.50693750000028,
      "v": 100
    },
    {
      "midi": 78,
      "hit": false,
      "t": 7605.63,
      "d": 420.7744375000002,
      "v": 100
    },
    {
      "midi": 45,
      "hit": false,
      "t": 7816.897499999999,
      "d": 209.50693750000028,
      "v": 100
    },
    {
      "midi": 45,
      "hit": false,
      "t": 8028.164999999999,
      "d": 209.50693750000028,
      "v": 100
    },
    {
      "midi": 74,
      "hit": false,
      "t": 8028.165,
      "d": 420.7744374999993,
      "v": 100
    },
    {
      "midi": 45,
      "hit": false,
      "t": 8239.432499999999,
      "d": 209.50693750000028,
      "v": 100
    },
    {
      "midi": 69,
      "hit": false,
      "t": 8450.699999999999,
      "d": 420.7744375000002,
      "v": 100
    },
    {
      "midi": 47,
      "hit": false,
      "t": 8450.699999999999,
      "d": 209.50693750000028,
      "v": 100
    },
    {
      "midi": 47,
      "hit": false,
      "t": 8661.967499999999,
      "d": 209.50693750000028,
      "v": 100
    },
    {
      "midi": 74,
      "hit": false,
      "t": 8873.234999999999,
      "d": 209.50693750000028,
      "v": 100
    },
    {
      "midi": 47,
      "hit": false,
      "t": 8873.234999999999,
      "d": 209.50693750000028,
      "v": 100
    },
    {
      "midi": 79,
      "hit": false,
      "t": 9084.502499999999,
      "d": 420.7744375000002,
      "v": 100
    },
    {
      "midi": 47,
      "hit": false,
      "t": 9084.502499999999,
      "d": 209.50693750000028,
      "v": 100
    },
    {
      "midi": 47,
      "hit": false,
      "t": 9295.769999999999,
      "d": 209.50693750000028,
      "v": 100
    },
    {
      "midi": 77,
      "hit": false,
      "t": 9507.037499999999,
      "d": 209.50693750000028,
      "v": 100
    },
    {
      "midi": 47,
      "hit": false,
      "t": 9507.037499999999,
      "d": 209.50693750000028,
      "v": 100
    },
    {
      "midi": 74,
      "hit": false,
      "t": 9718.304999999998,
      "d": 420.7744375000002,
      "v": 100
    },
    {
      "midi": 47,
      "hit": false,
      "t": 9718.304999999998,
      "d": 209.50693750000028,
      "v": 100
    },
    {
      "midi": 47,
      "hit": false,
      "t": 9929.572499999998,
      "d": 209.50693750000028,
      "v": 100
    },
    {
      "midi": 69,
      "hit": false,
      "t": 10140.839999999998,
      "d": 420.7744375000002,
      "v": 100
    },
    {
      "midi": 43,
      "hit": false,
      "t": 10140.839999999998,
      "d": 209.50693750000028,
      "v": 100
    },
    {
      "midi": 43,
      "hit": false,
      "t": 10352.107499999998,
      "d": 209.50693750000028,
      "v": 100
    },
    {
      "midi": 74,
      "hit": false,
      "t": 10563.374999999998,
      "d": 420.7744375000002,
      "v": 100
    },
    {
      "midi": 43,
      "hit": false,
      "t": 10563.374999999998,
      "d": 209.50693750000028,
      "v": 100
    },
    {
      "midi": 43,
      "hit": false,
      "t": 10774.642499999998,
      "d": 209.50693750000028,
      "v": 100
    },
    {
      "midi": 78,
      "hit": false,
      "t": 10985.909999999998,
      "d": 420.7744375000002,
      "v": 100
    },
    {
      "midi": 43,
      "hit": false,
      "t": 10985.909999999998,
      "d": 209.50693750000028,
      "v": 100
    },
    {
      "midi": 43,
      "hit": false,
      "t": 11197.177499999998,
      "d": 209.50693750000028,
      "v": 100
    },
    {
      "midi": 74,
      "hit": false,
      "t": 11408.444999999998,
      "d": 420.7744375000002,
      "v": 100
    },
    {
      "midi": 43,
      "hit": false,
      "t": 11408.444999999998,
      "d": 209.50693750000028,
      "v": 100
    },
    {
      "midi": 43,
      "hit": false,
      "t": 11619.712499999998,
      "d": 209.50693750000028,
      "v": 100
    },
    {
      "midi": 69,
      "hit": false,
      "t": 11830.979999999998,
      "d": 420.7744375000002,
      "v": 100
    },
    {
      "midi": 43,
      "hit": false,
      "t": 11830.979999999998,
      "d": 209.50693750000028,
      "v": 100
    },
    {
      "midi": 43,
      "hit": false,
      "t": 12042.247499999998,
      "d": 209.50693750000028,
      "v": 100
    },
    {
      "midi": 74,
      "hit": false,
      "t": 12253.514999999998,
      "d": 209.50693750000028,
      "v": 100
    },
    {
      "midi": 43,
      "hit": false,
      "t": 12253.514999999998,
      "d": 209.50693750000028,
      "v": 100
    },
    {
      "midi": 79,
      "hit": false,
      "t": 12464.782499999998,
      "d": 420.7744375000002,
      "v": 100
    },
    {
      "midi": 43,
      "hit": false,
      "t": 12464.782499999998,
      "d": 209.50693750000028,
      "v": 100
    },
    {
      "midi": 43,
      "hit": false,
      "t": 12676.049999999997,
      "d": 209.50693750000028,
      "v": 100
    },
    {
      "midi": 77,
      "hit": false,
      "t": 12887.317499999997,
      "d": 209.50693750000028,
      "v": 100
    },
    {
      "midi": 43,
      "hit": false,
      "t": 12887.317499999997,
      "d": 209.50693750000028,
      "v": 100
    },
    {
      "midi": 74,
      "hit": false,
      "t": 13098.584999999997,
      "d": 420.7744375000002,
      "v": 100
    },
    {
      "midi": 43,
      "hit": false,
      "t": 13098.584999999997,
      "d": 209.50693750000028,
      "v": 100
    },
    {
      "midi": 43,
      "hit": false,
      "t": 13309.852499999997,
      "d": 209.50693750000028,
      "v": 100
    },
    {
      "midi": 69,
      "hit": false,
      "t": 13521.119999999997,
      "d": 420.7744375000002,
      "v": 100
    },
    {
      "midi": 50,
      "hit": false,
      "t": 13521.119999999997,
      "d": 209.50693750000028,
      "v": 100
    },
    {
      "midi": 57,
      "hit": false,
      "t": 13521.119999999997,
      "d": 209.50693750000028,
      "v": 100
    },
    {
      "midi": 50,
      "hit": false,
      "t": 13732.387499999997,
      "d": 209.50693750000028,
      "v": 100
    },
    {
      "midi": 74,
      "hit": false,
      "t": 13943.654999999997,
      "d": 420.7744375000002,
      "v": 100
    },
    {
      "midi": 50,
      "hit": false,
      "t": 13943.654999999997,
      "d": 209.50693750000028,
      "v": 100
    },
    {
      "midi": 50,
      "hit": false,
      "t": 14154.922499999997,
      "d": 209.50693750000028,
      "v": 100
    },
    {
      "midi": 78,
      "hit": false,
      "t": 14366.189999999997,
      "d": 420.7744375000002,
      "v": 100
    },
    {
      "midi": 50,
      "hit": false,
      "t": 14366.189999999997,
      "d": 209.50693750000028,
      "v": 100
    },
    {
      "midi": 50,
      "hit": false,
      "t": 14577.457499999997,
      "d": 209.50693750000028,
      "v": 100
    },
    {
      "midi": 74,
      "hit": false,
      "t": 14788.724999999997,
      "d": 420.7744375000002,
      "v": 100
    },
    {
      "midi": 50,
      "hit": false,
      "t": 14788.724999999997,
      "d": 209.50693750000028,
      "v": 100
    },
    {
      "midi": 50,
      "hit": false,
      "t": 14999.992499999997,
      "d": 209.50693750000028,
      "v": 100
    },
    {
      "midi": 69,
      "hit": false,
      "t": 15211.259999999997,
      "d": 420.7744375000002,
      "v": 100
    },
    {
      "midi": 50,
      "hit": false,
      "t": 15211.259999999997,
      "d": 209.50693750000028,
      "v": 100
    },
    {
      "midi": 50,
      "hit": false,
      "t": 15422.527499999997,
      "d": 209.50693750000028,
      "v": 100
    },
    {
      "midi": 74,
      "hit": false,
      "t": 15633.794999999996,
      "d": 209.50693750000028,
      "v": 100
    },
    {
      "midi": 50,
      "hit": false,
      "t": 15633.794999999996,
      "d": 209.50693750000028,
      "v": 100
    },
    {
      "midi": 79,
      "hit": false,
      "t": 15845.062499999996,
      "d": 420.7744375000002,
      "v": 100
    },
    {
      "midi": 50,
      "hit": false,
      "t": 15845.062499999996,
      "d": 209.50693750000028,
      "v": 100
    },
    {
      "midi": 50,
      "hit": false,
      "t": 16056.329999999996,
      "d": 209.50693750000028,
      "v": 100
    },
    {
      "midi": 77,
      "hit": false,
      "t": 16267.597499999996,
      "d": 209.50693749999846,
      "v": 100
    },
    {
      "midi": 50,
      "hit": false,
      "t": 16267.597499999996,
      "d": 209.50693749999846,
      "v": 100
    },
    {
      "midi": 74,
      "hit": false,
      "t": 16478.864999999994,
      "d": 420.7744375000002,
      "v": 100
    },
    {
      "midi": 50,
      "hit": false,
      "t": 16478.864999999994,
      "d": 209.50693749999846,
      "v": 100
    },
    {
      "midi": 45,
      "hit": false,
      "t": 16690.132499999992,
      "d": 209.50693749999846,
      "v": 100
    },
    {
      "midi": 50,
      "hit": false,
      "t": 16901.39999999999,
      "d": 209.50693749999846,
      "v": 100
    },
    {
      "midi": 57,
      "hit": false,
      "t": 16901.39999999999,
      "d": 209.50693749999846,
      "v": 100
    },
    {
      "midi": 69,
      "hit": false,
      "t": 16901.399999999994,
      "d": 420.7744375000002,
      "v": 100
    },
    {
      "midi": 50,
      "hit": false,
      "t": 17112.66749999999,
      "d": 209.50693749999846,
      "v": 100
    },
    {
      "midi": 50,
      "hit": false,
      "t": 17323.934999999987,
      "d": 209.50693749999846,
      "v": 100
    },
    {
      "midi": 74,
      "hit": false,
      "t": 17323.934999999994,
      "d": 420.7744375000002,
      "v": 100
    },
    {
      "midi": 50,
      "hit": false,
      "t": 17535.202499999985,
      "d": 209.50693749999846,
      "v": 100
    },
    {
      "midi": 50,
      "hit": false,
      "t": 17746.469999999983,
      "d": 209.50693749999846,
      "v": 100
    },
    {
      "midi": 78,
      "hit": false,
      "t": 17746.469999999994,
      "d": 420.7744375000002,
      "v": 100
    },
    {
      "midi": 50,
      "hit": false,
      "t": 17957.73749999998,
      "d": 209.50693749999846,
      "v": 100
    },
    {
      "midi": 50,
      "hit": false,
      "t": 18169.00499999998,
      "d": 209.50693749999846,
      "v": 100
    },
    {
      "midi": 74,
      "hit": false,
      "t": 18169.004999999994,
      "d": 420.7744375000002,
      "v": 100
    },
    {
      "midi": 50,
      "hit": false,
      "t": 18380.272499999977,
      "d": 209.50693749999846,
      "v": 100
    },
    {
      "midi": 50,
      "hit": false,
      "t": 18591.539999999975,
      "d": 209.50693749999846,
      "v": 100
    },
    {
      "midi": 69,
      "hit": false,
      "t": 18591.539999999994,
      "d": 420.7744375000002,
      "v": 100
    },
    {
      "midi": 50,
      "hit": false,
      "t": 18802.807499999974,
      "d": 209.50693749999846,
      "v": 100
    },
    {
      "midi": 50,
      "hit": false,
      "t": 19014.07499999997,
      "d": 209.50693749999846,
      "v": 100
    },
    {
      "midi": 74,
      "hit": false,
      "t": 19014.074999999993,
      "d": 209.50693749999846,
      "v": 100
    },
    {
      "midi": 50,
      "hit": false,
      "t": 19225.34249999997,
      "d": 209.50693749999846,
      "v": 100
    },
    {
      "midi": 79,
      "hit": false,
      "t": 19225.34249999999,
      "d": 420.7744375000002,
      "v": 100
    },
    {
      "midi": 50,
      "hit": false,
      "t": 19436.609999999968,
      "d": 209.50693749999846,
      "v": 100
    },
    {
      "midi": 50,
      "hit": false,
      "t": 19647.877499999966,
      "d": 209.50693749999846,
      "v": 100
    },
    {
      "midi": 77,
      "hit": false,
      "t": 19647.87749999999,
      "d": 209.50693749999846,
      "v": 100
    },
    {
      "midi": 50,
      "hit": false,
      "t": 19859.144999999964,
      "d": 209.50693749999846,
      "v": 100
    },
    {
      "midi": 74,
      "hit": false,
      "t": 19859.14499999999,
      "d": 420.7744375000002,
      "v": 100
    },
    {
      "midi": 50,
      "hit": false,
      "t": 20070.412499999962,
      "d": 209.50693749999846,
      "v": 100
    },
    {
      "midi": 50,
      "hit": false,
      "t": 20281.67999999996,
      "d": 209.50693749999846,
      "v": 100
    },
    {
      "midi": 66,
      "hit": false,
      "t": 20281.67999999999,
      "d": 420.7744375000002,
      "v": 100
    },
    {
      "midi": 57,
      "hit": false,
      "t": 20281.68,
      "d": 1265.8444375,
      "v": 100
    },
    {
      "midi": 62,
      "hit": false,
      "t": 20281.68,
      "d": 1265.8444375,
      "v": 100
    },
    {
      "midi": 50,
      "hit": false,
      "t": 20492.94749999996,
      "d": 209.50693749999846,
      "v": 100
    },
    {
      "midi": 50,
      "hit": false,
      "t": 20704.214999999956,
      "d": 209.50693749999846,
      "v": 100
    },
    {
      "midi": 67,
      "hit": false,
      "t": 20704.21499999999,
      "d": 209.50693749999846,
      "v": 100
    },
    {
      "midi": 50,
      "hit": false,
      "t": 20915.482499999955,
      "d": 209.50693749999846,
      "v": 100
    },
    {
      "midi": 66,
      "hit": false,
      "t": 20915.482499999987,
      "d": 632.0419374999983,
      "v": 100
    },
    {
      "midi": 50,
      "hit": false,
      "t": 21126.749999999953,
      "d": 209.50693749999846,
      "v": 100
    },
    {
      "midi": 50,
      "hit": false,
      "t": 21338.01749999995,
      "d": 209.50693749999846,
      "v": 100
    },
    {
      "midi": 50,
      "hit": false,
      "t": 21549.28499999995,
      "d": 209.50693749999846,
      "v": 100
    },
    {
      "midi": 50,
      "hit": false,
      "t": 21760.552499999947,
      "d": 209.50693749999846,
      "v": 100
    },
    {
      "midi": 48,
      "hit": false,
      "t": 21971.819999999945,
      "d": 209.50693749999846,
      "v": 100
    },
    {
      "midi": 66,
      "hit": false,
      "t": 21971.819999999985,
      "d": 209.50693749999846,
      "v": 100
    },
    {
      "midi": 57,
      "hit": false,
      "t": 21971.82,
      "d": 1265.8444375,
      "v": 100
    },
    {
      "midi": 62,
      "hit": false,
      "t": 21971.82,
      "d": 1265.8444375,
      "v": 100
    },
    {
      "midi": 48,
      "hit": false,
      "t": 22183.087499999943,
      "d": 209.50693749999846,
      "v": 100
    },
    {
      "midi": 66,
      "hit": false,
      "t": 22183.087499999983,
      "d": 209.50693749999846,
      "v": 100
    },
    {
      "midi": 48,
      "hit": false,
      "t": 22394.35499999994,
      "d": 209.50693749999846,
      "v": 100
    },
    {
      "midi": 67,
      "hit": false,
      "t": 22394.35499999998,
      "d": 209.50693749999846,
      "v": 100
    },
    {
      "midi": 48,
      "hit": false,
      "t": 22605.62249999994,
      "d": 209.50693749999846,
      "v": 100
    },
    {
      "midi": 66,
      "hit": false,
      "t": 22605.62249999998,
      "d": 632.0419374999983,
      "v": 100
    },
    {
      "midi": 48,
      "hit": false,
      "t": 22816.889999999938,
      "d": 209.50693749999846,
      "v": 100
    },
    {
      "midi": 48,
      "hit": false,
      "t": 23028.157499999936,
      "d": 209.50693749999846,
      "v": 100
    },
    {
      "midi": 48,
      "hit": false,
      "t": 23239.424999999934,
      "d": 209.50693749999846,
      "v": 100
    },
    {
      "midi": 48,
      "hit": false,
      "t": 23450.692499999932,
      "d": 209.50693749999846,
      "v": 100
    },
    {
      "midi": 47,
      "hit": false,
      "t": 23661.95999999993,
      "d": 209.50693749999846,
      "v": 100
    },
    {
      "midi": 66,
      "hit": false,
      "t": 23661.959999999977,
      "d": 420.7744375000002,
      "v": 100
    },
    {
      "midi": 62,
      "hit": false,
      "t": 23661.96,
      "d": 843.3094375000001,
      "v": 100
    },
    {
      "midi": 47,
      "hit": false,
      "t": 23873.227499999928,
      "d": 209.50693749999846,
      "v": 100
    },
    {
      "midi": 47,
      "hit": false,
      "t": 24084.494999999926,
      "d": 209.50693749999846,
      "v": 100
    },
    {
      "midi": 67,
      "hit": false,
      "t": 24084.494999999977,
      "d": 420.7744375000002,
      "v": 100
    },
    {
      "midi": 47,
      "hit": false,
      "t": 24295.762499999924,
      "d": 209.50693749999846,
      "v": 100
    },
    {
      "midi": 45,
      "hit": false,
      "t": 24507.029999999922,
      "d": 209.50693749999846,
      "v": 100
    },
    {
      "midi": 66,
      "hit": false,
      "t": 24507.029999999977,
      "d": 209.50693749999846,
      "v": 100
    },
    {
      "midi": 61,
      "hit": false,
      "t": 24507.03,
      "d": 843.3094375000001,
      "v": 100
    },
    {
      "midi": 45,
      "hit": false,
      "t": 24718.29749999992,
      "d": 209.50693749999846,
      "v": 100
    },
    {
      "midi": 64,
      "hit": false,
      "t": 24718.297499999975,
      "d": 209.50693749999846,
      "v": 100
    },
    {
      "midi": 45,
      "hit": false,
      "t": 24929.56499999992,
      "d": 209.50693749999846,
      "v": 100
    },
    {
      "midi": 62,
      "hit": false,
      "t": 24929.564999999973,
      "d": 209.50693749999846,
      "v": 100
    },
    {
      "midi": 45,
      "hit": false,
      "t": 25140.832499999917,
      "d": 209.50693749999846,
      "v": 100
    },
    {
      "midi": 64,
      "hit": false,
      "t": 25140.83249999997,
      "d": 209.50693749999846,
      "v": 100
    },
    {
      "midi": 43,
      "hit": false,
      "t": 25352.099999999915,
      "d": 209.50693749999846,
      "v": 100
    },
    {
      "midi": 62,
      "hit": false,
      "t": 25352.09999999997,
      "d": 209.50693749999846,
      "v": 100
    },
    {
      "midi": 59,
      "hit": false,
      "t": 25352.1,
      "d": 1265.8444375,
      "v": 100
    },
    {
      "midi": 43,
      "hit": false,
      "t": 25563.367499999913,
      "d": 209.50693749999846,
      "v": 100
    },
    {
      "midi": 62,
      "hit": false,
      "t": 25563.367499999968,
      "d": 1054.5769374999982,
      "v": 100
    },
    {
      "midi": 43,
      "hit": false,
      "t": 25774.63499999991,
      "d": 209.50693749999846,
      "v": 100
    },
    {
      "midi": 43,
      "hit": false,
      "t": 25985.90249999991,
      "d": 209.50693749999846,
      "v": 100
    },
    {
      "midi": 43,
      "hit": false,
      "t": 26197.169999999907,
      "d": 209.50693749999846,
      "v": 100
    },
    {
      "midi": 43,
      "hit": false,
      "t": 26408.437499999905,
      "d": 209.50693749999846,
      "v": 100
    },
    {
      "midi": 43,
      "hit": false,
      "t": 26619.704999999904,
      "d": 209.50693749999846,
      "v": 100
    },
    {
      "midi": 43,
      "hit": false,
      "t": 26830.9724999999,
      "d": 209.50693749999846,
      "v": 100
    },
    {
      "midi": 52,
      "hit": false,
      "t": 27042.2399999999,
      "d": 209.50693749999846,
      "v": 100
    },
    {
      "midi": 64,
      "hit": false,
      "t": 27042.239999999965,
      "d": 209.50693749999846,
      "v": 100
    },
    {
      "midi": 55,
      "hit": false,
      "t": 27042.239999999998,
      "d": 1265.8444375,
      "v": 100
    },
    {
      "midi": 59,
      "hit": false,
      "t": 27042.239999999998,
      "d": 1265.8444375,
      "v": 100
    },
    {
      "midi": 52,
      "hit": false,
      "t": 27253.507499999898,
      "d": 209.50693749999846,
      "v": 100
    },
    {
      "midi": 64,
      "hit": false,
      "t": 27253.507499999963,
      "d": 209.50693749999846,
      "v": 100
    },
    {
      "midi": 52,
      "hit": false,
      "t": 27464.774999999896,
      "d": 209.50693749999846,
      "v": 100
    },
    {
      "midi": 62,
      "hit": false,
      "t": 27464.77499999996,
      "d": 209.50693749999846,
      "v": 100
    },
    {
      "midi": 52,
      "hit": false,
      "t": 27676.042499999894,
      "d": 209.50693749999846,
      "v": 100
    },
    {
      "midi": 64,
      "hit": false,
      "t": 27676.04249999996,
      "d": 632.0419374999983,
      "v": 100
    },
    {
      "midi": 52,
      "hit": false,
      "t": 27887.309999999892,
      "d": 209.50693749999846,
      "v": 100
    },
    {
      "midi": 52,
      "hit": false,
      "t": 28098.57749999989,
      "d": 209.50693749999846,
      "v": 100
    },
    {
      "midi": 52,
      "hit": false,
      "t": 28309.84499999989,
      "d": 209.50693749999846,
      "v": 100
    },
    {
      "midi": 52,
      "hit": false,
      "t": 28521.112499999886,
      "d": 209.50693749999846,
      "v": 100
    },
    {
      "midi": 47,
      "hit": false,
      "t": 28732.379999999885,
      "d": 209.50693749999846,
      "v": 100
    },
    {
      "midi": 62,
      "hit": false,
      "t": 28732.379999999957,
      "d": 315.14068749999933,
      "v": 100
    },
    {
      "midi": 66,
      "hit": false,
      "t": 28732.379999999957,
      "d": 315.14068749999933,
      "v": 100
    },
    {
      "midi": 47,
      "hit": false,
      "t": 28943.647499999883,
      "d": 209.50693749999846,
      "v": 100
    },
    {
      "midi": 59,
      "hit": false,
      "t": 29049.281249999956,
      "d": 315.14068749999933,
      "v": 100
    },
    {
      "midi": 62,
      "hit": false,
      "t": 29049.281249999956,
      "d": 315.14068749999933,
      "v": 100
    },
    {
      "midi": 47,
      "hit": false,
      "t": 29154.91499999988,
      "d": 209.50693749999846,
      "v": 100
    },
    {
      "midi": 47,
      "hit": false,
      "t": 29366.18249999988,
      "d": 209.50693749999846,
      "v": 100
    },
    {
      "midi": 59,
      "hit": false,
      "t": 29366.182499999955,
      "d": 632.0419374999983,
      "v": 100
    },
    {
      "midi": 62,
      "hit": false,
      "t": 29366.182499999955,
      "d": 632.0419374999983,
      "v": 100
    },
    {
      "midi": 47,
      "hit": false,
      "t": 29577.449999999877,
      "d": 209.50693749999846,
      "v": 100
    },
    {
      "midi": 47,
      "hit": false,
      "t": 29788.717499999875,
      "d": 209.50693749999846,
      "v": 100
    },
    {
      "midi": 47,
      "hit": false,
      "t": 29999.984999999873,
      "d": 209.50693749999846,
      "v": 100
    },
    {
      "midi": 47,
      "hit": false,
      "t": 30211.25249999987,
      "d": 209.50693749999846,
      "v": 100
    },
    {
      "midi": 43,
      "hit": false,
      "t": 30422.51999999987,
      "d": 209.50693749999846,
      "v": 100
    },
    {
      "midi": 43,
      "hit": false,
      "t": 30633.787499999868,
      "d": 209.50693749999846,
      "v": 100
    },
    {
      "midi": 43,
      "hit": false,
      "t": 30845.054999999866,
      "d": 209.50693749999846,
      "v": 100
    },
    {
      "midi": 59,
      "hit": false,
      "t": 30845.054999999953,
      "d": 420.7744375000002,
      "v": 100
    },
    {
      "midi": 62,
      "hit": false,
      "t": 30845.054999999953,
      "d": 420.7744375000002,
      "v": 100
    },
    {
      "midi": 43,
      "hit": false,
      "t": 31056.322499999864,
      "d": 209.50693749999846,
      "v": 100
    },
    {
      "midi": 43,
      "hit": false,
      "t": 31267.589999999862,
      "d": 209.50693749999846,
      "v": 100
    },
    {
      "midi": 59,
      "hit": false,
      "t": 31267.589999999953,
      "d": 209.50693749999846,
      "v": 100
    },
    {
      "midi": 43,
      "hit": false,
      "t": 31478.85749999986,
      "d": 209.50693749999846,
      "v": 100
    },
    {
      "midi": 62,
      "hit": false,
      "t": 31478.85749999995,
      "d": 420.7744375000002,
      "v": 100
    },
    {
      "midi": 43,
      "hit": false,
      "t": 31690.124999999858,
      "d": 209.50693749999846,
      "v": 100
    },
    {
      "midi": 43,
      "hit": false,
      "t": 31901.392499999856,
      "d": 209.50693749999846,
      "v": 100
    },
    {
      "midi": 62,
      "hit": false,
      "t": 31901.39249999995,
      "d": 420.7744375000002,
      "v": 100
    },
    {
      "midi": 66,
      "hit": false,
      "t": 31901.39249999995,
      "d": 420.7744375000002,
      "v": 100
    },
    {
      "midi": 45,
      "hit": false,
      "t": 32112.659999999854,
      "d": 209.50693749999846,
      "v": 100
    },
    {
      "midi": 45,
      "hit": false,
      "t": 32323.927499999852,
      "d": 209.50693749999846,
      "v": 100
    },
    {
      "midi": 61,
      "hit": false,
      "t": 32323.92749999995,
      "d": 1054.5769374999982,
      "v": 100
    },
    {
      "midi": 64,
      "hit": false,
      "t": 32323.92749999995,
      "d": 1054.5769374999982,
      "v": 100
    },
    {
      "midi": 45,
      "hit": false,
      "t": 32535.19499999985,
      "d": 209.50693749999846,
      "v": 100
    },
    {
      "midi": 45,
      "hit": false,
      "t": 32746.46249999985,
      "d": 209.5069375000021,
      "v": 100
    },
    {
      "midi": 45,
      "hit": false,
      "t": 32957.72999999985,
      "d": 209.5069375000021,
      "v": 100
    },
    {
      "midi": 45,
      "hit": false,
      "t": 33168.99749999985,
      "d": 209.5069375000021,
      "v": 100
    },
    {
      "midi": 45,
      "hit": false,
      "t": 33380.264999999854,
      "d": 209.5069375000021,
      "v": 100
    },
    {
      "midi": 45,
      "hit": false,
      "t": 33591.532499999856,
      "d": 209.5069375000021,
      "v": 100
    },
    {
      "midi": 50,
      "hit": false,
      "t": 33802.79999999986,
      "d": 209.5069375000021,
      "v": 100
    },
    {
      "midi": 66,
      "hit": false,
      "t": 33802.79999999995,
      "d": 209.5069375000021,
      "v": 100
    },
    {
      "midi": 57,
      "hit": false,
      "t": 33802.799999999996,
      "d": 1265.8444375000036,
      "v": 100
    },
    {
      "midi": 62,
      "hit": false,
      "t": 33802.799999999996,
      "d": 1265.8444375000036,
      "v": 100
    },
    {
      "midi": 50,
      "hit": false,
      "t": 34014.06749999986,
      "d": 209.5069375000021,
      "v": 100
    },
    {
      "midi": 66,
      "hit": false,
      "t": 34014.067499999954,
      "d": 209.5069375000021,
      "v": 100
    },
    {
      "midi": 50,
      "hit": false,
      "t": 34225.33499999986,
      "d": 209.5069375000021,
      "v": 100
    },
    {
      "midi": 67,
      "hit": false,
      "t": 34225.334999999955,
      "d": 209.5069375000021,
      "v": 100
    },
    {
      "midi": 50,
      "hit": false,
      "t": 34436.60249999986,
      "d": 209.5069375000021,
      "v": 100
    },
    {
      "midi": 66,
      "hit": false,
      "t": 34436.60249999996,
      "d": 632.0419374999983,
      "v": 100
    },
    {
      "midi": 50,
      "hit": false,
      "t": 34647.869999999864,
      "d": 209.5069375000021,
      "v": 100
    },
    {
      "midi": 50,
      "hit": false,
      "t": 34859.137499999866,
      "d": 209.5069375000021,
      "v": 100
    },
    {
      "midi": 50,
      "hit": false,
      "t": 35070.40499999987,
      "d": 209.5069375000021,
      "v": 100
    },
    {
      "midi": 50,
      "hit": false,
      "t": 35281.67249999987,
      "d": 209.5069375000021,
      "v": 100
    },
    {
      "midi": 48,
      "hit": false,
      "t": 35492.93999999987,
      "d": 209.5069375000021,
      "v": 100
    },
    {
      "midi": 66,
      "hit": false,
      "t": 35492.93999999996,
      "d": 209.5069375000021,
      "v": 100
    },
    {
      "midi": 57,
      "hit": false,
      "t": 35492.94,
      "d": 1265.8444375000036,
      "v": 100
    },
    {
      "midi": 62,
      "hit": false,
      "t": 35492.94,
      "d": 1265.8444375000036,
      "v": 100
    },
    {
      "midi": 48,
      "hit": false,
      "t": 35704.20749999987,
      "d": 209.5069375000021,
      "v": 100
    },
    {
      "midi": 66,
      "hit": false,
      "t": 35704.20749999996,
      "d": 209.5069375000021,
      "v": 100
    },
    {
      "midi": 48,
      "hit": false,
      "t": 35915.474999999875,
      "d": 209.5069375000021,
      "v": 100
    },
    {
      "midi": 67,
      "hit": false,
      "t": 35915.47499999996,
      "d": 209.5069375000021,
      "v": 100
    },
    {
      "midi": 48,
      "hit": false,
      "t": 36126.74249999988,
      "d": 209.5069375000021,
      "v": 100
    },
    {
      "midi": 66,
      "hit": false,
      "t": 36126.742499999964,
      "d": 632.0419374999983,
      "v": 100
    },
    {
      "midi": 48,
      "hit": false,
      "t": 36338.00999999988,
      "d": 209.5069375000021,
      "v": 100
    },
    {
      "midi": 48,
      "hit": false,
      "t": 36549.27749999988,
      "d": 209.5069375000021,
      "v": 100
    },
    {
      "midi": 48,
      "hit": false,
      "t": 36760.54499999988,
      "d": 209.5069375000021,
      "v": 100
    },
    {
      "midi": 48,
      "hit": false,
      "t": 36971.81249999988,
      "d": 209.5069375000021,
      "v": 100
    },
    {
      "midi": 47,
      "hit": false,
      "t": 37183.079999999885,
      "d": 209.5069375000021,
      "v": 100
    },
    {
      "midi": 66,
      "hit": false,
      "t": 37183.079999999965,
      "d": 420.77443749999657,
      "v": 100
    },
    {
      "midi": 62,
      "hit": false,
      "t": 37183.08000000001,
      "d": 843.3094375000001,
      "v": 100
    },
    {
      "midi": 47,
      "hit": false,
      "t": 37394.34749999989,
      "d": 209.5069375000021,
      "v": 100
    },
    {
      "midi": 47,
      "hit": false,
      "t": 37605.61499999989,
      "d": 209.5069375000021,
      "v": 100
    },
    {
      "midi": 67,
      "hit": false,
      "t": 37605.61499999996,
      "d": 420.77443749999657,
      "v": 100
    },
    {
      "midi": 47,
      "hit": false,
      "t": 37816.88249999989,
      "d": 209.5069375000021,
      "v": 100
    },
    {
      "midi": 45,
      "hit": false,
      "t": 38028.14999999989,
      "d": 209.5069375000021,
      "v": 100
    },
    {
      "midi": 66,
      "hit": false,
      "t": 38028.14999999996,
      "d": 209.5069375000021,
      "v": 100
    },
    {
      "midi": 61,
      "hit": false,
      "t": 38028.15000000001,
      "d": 843.3094375000001,
      "v": 100
    },
    {
      "midi": 45,
      "hit": false,
      "t": 38239.417499999894,
      "d": 209.5069375000021,
      "v": 100
    },
    {
      "midi": 64,
      "hit": false,
      "t": 38239.41749999996,
      "d": 209.5069375000021,
      "v": 100
    },
    {
      "midi": 45,
      "hit": false,
      "t": 38450.684999999896,
      "d": 209.5069375000021,
      "v": 100
    },
    {
      "midi": 62,
      "hit": false,
      "t": 38450.68499999996,
      "d": 209.5069375000021,
      "v": 100
    },
    {
      "midi": 45,
      "hit": false,
      "t": 38661.9524999999,
      "d": 209.5069375000021,
      "v": 100
    },
    {
      "midi": 64,
      "hit": false,
      "t": 38661.95249999996,
      "d": 209.5069375000021,
      "v": 100
    },
    {
      "midi": 43,
      "hit": false,
      "t": 38873.2199999999,
      "d": 209.5069375000021,
      "v": 100
    },
    {
      "midi": 62,
      "hit": false,
      "t": 38873.219999999965,
      "d": 209.5069375000021,
      "v": 100
    },
    {
      "midi": 59,
      "hit": false,
      "t": 38873.22000000001,
      "d": 1265.8444375000036,
      "v": 100
    },
    {
      "midi": 43,
      "hit": false,
      "t": 39084.4874999999,
      "d": 209.5069375000021,
      "v": 100
    },
    {
      "midi": 62,
      "hit": false,
      "t": 39084.48749999997,
      "d": 1054.5769375000018,
      "v": 100
    },
    {
      "midi": 43,
      "hit": false,
      "t": 39295.7549999999,
      "d": 209.5069375000021,
      "v": 100
    },
    {
      "midi": 43,
      "hit": false,
      "t": 39507.022499999905,
      "d": 209.5069375000021,
      "v": 100
    },
    {
      "midi": 43,
      "hit": false,
      "t": 39718.289999999906,
      "d": 209.5069375000021,
      "v": 100
    },
    {
      "midi": 43,
      "hit": false,
      "t": 39929.55749999991,
      "d": 209.5069375000021,
      "v": 100
    },
    {
      "midi": 43,
      "hit": false,
      "t": 40140.82499999991,
      "d": 209.5069375000021,
      "v": 100
    },
    {
      "midi": 43,
      "hit": false,
      "t": 40352.09249999991,
      "d": 209.5069375000021,
      "v": 100
    },
    {
      "midi": 52,
      "hit": false,
      "t": 40563.35999999991,
      "d": 209.5069375000021,
      "v": 100
    },
    {
      "midi": 64,
      "hit": false,
      "t": 40563.35999999997,
      "d": 209.5069375000021,
      "v": 100
    },
    {
      "midi": 55,
      "hit": false,
      "t": 40563.360000000015,
      "d": 1265.8444375000036,
      "v": 100
    },
    {
      "midi": 59,
      "hit": false,
      "t": 40563.360000000015,
      "d": 1265.8444375000036,
      "v": 100
    },
    {
      "midi": 52,
      "hit": false,
      "t": 40774.627499999915,
      "d": 209.5069375000021,
      "v": 100
    },
    {
      "midi": 64,
      "hit": false,
      "t": 40774.62749999997,
      "d": 209.5069375000021,
      "v": 100
    },
    {
      "midi": 52,
      "hit": false,
      "t": 40985.89499999992,
      "d": 209.5069375000021,
      "v": 100
    },
    {
      "midi": 62,
      "hit": false,
      "t": 40985.894999999975,
      "d": 209.5069375000021,
      "v": 100
    },
    {
      "midi": 52,
      "hit": false,
      "t": 41197.16249999992,
      "d": 209.5069375000021,
      "v": 100
    },
    {
      "midi": 64,
      "hit": false,
      "t": 41197.16249999998,
      "d": 632.0419374999983,
      "v": 100
    },
    {
      "midi": 52,
      "hit": false,
      "t": 41408.42999999992,
      "d": 209.5069375000021,
      "v": 100
    },
    {
      "midi": 52,
      "hit": false,
      "t": 41619.69749999992,
      "d": 209.5069375000021,
      "v": 100
    },
    {
      "midi": 52,
      "hit": false,
      "t": 41830.964999999924,
      "d": 209.5069375000021,
      "v": 100
    },
    {
      "midi": 52,
      "hit": false,
      "t": 42042.232499999925,
      "d": 209.5069375000021,
      "v": 100
    },
    {
      "midi": 62,
      "hit": false,
      "t": 42042.23249999998,
      "d": 209.5069375000021,
      "v": 100
    },
    {
      "midi": 47,
      "hit": false,
      "t": 42253.49999999993,
      "d": 209.5069375000021,
      "v": 100
    },
    {
      "midi": 62,
      "hit": false,
      "t": 42253.49999999998,
      "d": 315.14068750000297,
      "v": 100
    },
    {
      "midi": 66,
      "hit": false,
      "t": 42253.49999999998,
      "d": 315.14068750000297,
      "v": 100
    },
    {
      "midi": 47,
      "hit": false,
      "t": 42464.76749999993,
      "d": 209.5069375000021,
      "v": 100
    },
    {
      "midi": 59,
      "hit": false,
      "t": 42570.40124999998,
      "d": 315.14068750000297,
      "v": 100
    },
    {
      "midi": 62,
      "hit": false,
      "t": 42570.40124999998,
      "d": 315.14068750000297,
      "v": 100
    },
    {
      "midi": 47,
      "hit": false,
      "t": 42676.03499999993,
      "d": 209.5069375000021,
      "v": 100
    },
    {
      "midi": 47,
      "hit": false,
      "t": 42887.30249999993,
      "d": 209.5069375000021,
      "v": 100
    },
    {
      "midi": 59,
      "hit": false,
      "t": 42887.30249999998,
      "d": 632.0419374999983,
      "v": 100
    },
    {
      "midi": 62,
      "hit": false,
      "t": 42887.30249999998,
      "d": 632.0419374999983,
      "v": 100
    },
    {
      "midi": 47,
      "hit": false,
      "t": 43098.569999999934,
      "d": 209.5069375000021,
      "v": 100
    },
    {
      "midi": 47,
      "hit": false,
      "t": 43309.837499999936,
      "d": 209.5069375000021,
      "v": 100
    },
    {
      "midi": 47,
      "hit": false,
      "t": 43521.10499999994,
      "d": 209.5069375000021,
      "v": 100
    },
    {
      "midi": 47,
      "hit": false,
      "t": 43732.37249999994,
      "d": 209.5069375000021,
      "v": 100
    },
    {
      "midi": 43,
      "hit": false,
      "t": 43943.63999999994,
      "d": 209.5069375000021,
      "v": 100
    },
    {
      "midi": 59,
      "hit": false,
      "t": 43943.639999999985,
      "d": 420.77443749999657,
      "v": 100
    },
    {
      "midi": 62,
      "hit": false,
      "t": 43943.639999999985,
      "d": 420.77443749999657,
      "v": 100
    },
    {
      "midi": 43,
      "hit": false,
      "t": 44154.90749999994,
      "d": 209.5069375000021,
      "v": 100
    },
    {
      "midi": 43,
      "hit": false,
      "t": 44366.174999999945,
      "d": 209.5069375000021,
      "v": 100
    },
    {
      "midi": 66,
      "hit": false,
      "t": 44366.17499999998,
      "d": 420.77443749999657,
      "v": 100
    },
    {
      "midi": 43,
      "hit": false,
      "t": 44577.44249999995,
      "d": 209.5069375000021,
      "v": 100
    },
    {
      "midi": 45,
      "hit": false,
      "t": 44788.70999999995,
      "d": 209.5069375000021,
      "v": 100
    },
    {
      "midi": 55,
      "hit": false,
      "t": 44788.70999999998,
      "d": 209.5069375000021,
      "v": 100
    },
    {
      "midi": 61,
      "hit": false,
      "t": 44788.70999999998,
      "d": 209.5069375000021,
      "v": 100
    },
    {
      "midi": 64,
      "hit": false,
      "t": 44788.70999999998,
      "d": 209.5069375000021,
      "v": 100
    },
    {
      "midi": 45,
      "hit": false,
      "t": 44999.97749999995,
      "d": 209.5069375000021,
      "v": 100
    },
    {
      "midi": 62,
      "hit": false,
      "t": 44999.97749999998,
      "d": 209.5069375000021,
      "v": 100
    },
    {
      "midi": 45,
      "hit": false,
      "t": 45211.24499999995,
      "d": 209.5069375000021,
      "v": 100
    },
    {
      "midi": 61,
      "hit": false,
      "t": 45211.24499999998,
      "d": 209.5069375000021,
      "v": 100
    },
    {
      "midi": 45,
      "hit": false,
      "t": 45422.51249999995,
      "d": 209.5069375000021,
      "v": 100
    },
    {
      "midi": 62,
      "hit": false,
      "t": 45422.51249999998,
      "d": 1477.111937499998,
      "v": 100
    },
    {
      "midi": 50,
      "hit": false,
      "t": 45633.779999999955,
      "d": 209.5069375000021,
      "v": 100
    },
    {
      "midi": 50,
      "hit": false,
      "t": 45845.04749999996,
      "d": 209.5069375000021,
      "v": 100
    },
    {
      "midi": 50,
      "hit": false,
      "t": 46056.31499999996,
      "d": 209.5069375000021,
      "v": 100
    },
    {
      "midi": 50,
      "hit": false,
      "t": 46267.58249999996,
      "d": 209.5069375000021,
      "v": 100
    },
    {
      "midi": 50,
      "hit": false,
      "t": 46478.84999999996,
      "d": 420.77443749999657,
      "v": 100
    },
    {
      "midi": 50,
      "hit": false,
      "t": 46901.38499999996,
      "d": 420.77443749999657,
      "v": 100
    },
    {
      "midi": 62,
      "hit": false,
      "t": 46901.38499999998,
      "d": 420.77443749999657,
      "v": 100
    },
    {
      "midi": 43,
      "hit": false,
      "t": 47323.919999999955,
      "d": 209.5069375000021,
      "v": 100
    },
    {
      "midi": 43,
      "hit": false,
      "t": 47535.187499999956,
      "d": 209.5069375000021,
      "v": 100
    },
    {
      "midi": 43,
      "hit": false,
      "t": 47746.45499999996,
      "d": 209.5069375000021,
      "v": 100
    },
    {
      "midi": 67,
      "hit": false,
      "t": 47746.45499999998,
      "d": 843.3094375000001,
      "v": 100
    },
    {
      "midi": 71,
      "hit": false,
      "t": 47746.45499999998,
      "d": 843.3094375000001,
      "v": 100
    },
    {
      "midi": 74,
      "hit": false,
      "t": 47746.45499999998,
      "d": 843.3094375000001,
      "v": 100
    },
    {
      "midi": 76,
      "hit": false,
      "t": 47746.45499999998,
      "d": 843.3094375000001,
      "v": 100
    },
    {
      "midi": 43,
      "hit": false,
      "t": 47957.72249999996,
      "d": 209.5069375000021,
      "v": 100
    },
    {
      "midi": 43,
      "hit": false,
      "t": 48168.98999999996,
      "d": 209.5069375000021,
      "v": 100
    },
    {
      "midi": 43,
      "hit": false,
      "t": 48380.25749999996,
      "d": 209.5069375000021,
      "v": 100
    },
    {
      "midi": 43,
      "hit": false,
      "t": 48591.524999999965,
      "d": 209.5069375000021,
      "v": 100
    },
    {
      "midi": 66,
      "hit": false,
      "t": 48591.52499999998,
      "d": 420.77443749999657,
      "v": 100
    },
    {
      "midi": 74,
      "hit": false,
      "t": 48591.52499999998,
      "d": 420.77443749999657,
      "v": 100
    },
    {
      "midi": 43,
      "hit": false,
      "t": 48802.79249999997,
      "d": 209.5069375000021,
      "v": 100
    },
    {
      "midi": 43,
      "hit": false,
      "t": 49014.05999999997,
      "d": 209.5069375000021,
      "v": 100
    },
    {
      "midi": 67,
      "hit": false,
      "t": 49014.059999999976,
      "d": 420.77443749999657,
      "v": 100
    },
    {
      "midi": 76,
      "hit": false,
      "t": 49014.059999999976,
      "d": 420.77443749999657,
      "v": 100
    },
    {
      "midi": 43,
      "hit": false,
      "t": 49225.32749999997,
      "d": 209.5069375000021,
      "v": 100
    },
    {
      "midi": 43,
      "hit": false,
      "t": 49436.59499999997,
      "d": 209.5069375000021,
      "v": 100
    },
    {
      "midi": 43,
      "hit": false,
      "t": 49647.862499999974,
      "d": 209.5069375000021,
      "v": 100
    },
    {
      "midi": 59,
      "hit": false,
      "t": 49859.129999999976,
      "d": 209.5069375000021,
      "v": 100
    },
    {
      "midi": 43,
      "hit": false,
      "t": 49859.129999999976,
      "d": 209.5069375000021,
      "v": 100
    },
    {
      "midi": 62,
      "hit": false,
      "t": 50070.39749999998,
      "d": 420.77443749999657,
      "v": 100
    },
    {
      "midi": 43,
      "hit": false,
      "t": 50070.39749999998,
      "d": 209.5069375000021,
      "v": 100
    },
    {
      "midi": 48,
      "hit": false,
      "t": 50281.66499999998,
      "d": 209.5069375000021,
      "v": 100
    },
    {
      "midi": 59,
      "hit": false,
      "t": 50492.93249999997,
      "d": 209.5069375000021,
      "v": 100
    },
    {
      "midi": 48,
      "hit": false,
      "t": 50492.93249999998,
      "d": 209.5069375000021,
      "v": 100
    },
    {
      "midi": 54,
      "hit": false,
      "t": 50704.199999999975,
      "d": 1265.8444375000036,
      "v": 100
    },
    {
      "midi": 57,
      "hit": false,
      "t": 50704.199999999975,
      "d": 1265.8444375000036,
      "v": 100
    },
    {
      "midi": 62,
      "hit": false,
      "t": 50704.199999999975,
      "d": 1265.8444375000036,
      "v": 100
    },
    {
      "midi": 50,
      "hit": false,
      "t": 50704.19999999998,
      "d": 209.5069375000021,
      "v": 100
    },
    {
      "midi": 50,
      "hit": false,
      "t": 50915.467499999984,
      "d": 209.5069375000021,
      "v": 100
    },
    {
      "midi": 50,
      "hit": false,
      "t": 51126.734999999986,
      "d": 209.5069375000021,
      "v": 100
    },
    {
      "midi": 50,
      "hit": false,
      "t": 51338.00249999999,
      "d": 209.5069375000021,
      "v": 100
    },
    {
      "midi": 50,
      "hit": false,
      "t": 51549.26999999999,
      "d": 209.5069375000021,
      "v": 100
    },
    {
      "midi": 50,
      "hit": false,
      "t": 51760.53749999999,
      "d": 209.5069375000021,
      "v": 100
    },
    {
      "midi": 66,
      "hit": false,
      "t": 51971.80499999998,
      "d": 420.77443749999657,
      "v": 100
    },
    {
      "midi": 74,
      "hit": false,
      "t": 51971.80499999998,
      "d": 420.77443749999657,
      "v": 100
    },
    {
      "midi": 50,
      "hit": false,
      "t": 51971.80499999999,
      "d": 209.5069375000021,
      "v": 100
    },
    {
      "midi": 50,
      "hit": false,
      "t": 52183.072499999995,
      "d": 209.5069375000021,
      "v": 100
    },
    {
      "midi": 67,
      "hit": false,
      "t": 52394.339999999975,
      "d": 420.77443749999657,
      "v": 100
    },
    {
      "midi": 76,
      "hit": false,
      "t": 52394.339999999975,
      "d": 420.77443749999657,
      "v": 100
    },
    {
      "midi": 50,
      "hit": false,
      "t": 52394.34,
      "d": 209.5069375000021,
      "v": 100
    },
    {
      "midi": 50,
      "hit": false,
      "t": 52605.6075,
      "d": 209.5069375000021,
      "v": 100
    },
    {
      "midi": 69,
      "hit": false,
      "t": 52816.87499999997,
      "d": 209.5069375000021,
      "v": 100
    },
    {
      "midi": 78,
      "hit": false,
      "t": 52816.87499999997,
      "d": 209.5069375000021,
      "v": 100
    },
    {
      "midi": 50,
      "hit": false,
      "t": 52816.875,
      "d": 209.5069375000021,
      "v": 100
    },
    {
      "midi": 66,
      "hit": false,
      "t": 53028.14249999997,
      "d": 632.0419374999983,
      "v": 100
    },
    {
      "midi": 74,
      "hit": false,
      "t": 53028.14249999997,
      "d": 632.0419374999983,
      "v": 100
    },
    {
      "midi": 50,
      "hit": false,
      "t": 53028.1425,
      "d": 209.5069375000021,
      "v": 100
    },
    {
      "midi": 50,
      "hit": false,
      "t": 53239.41,
      "d": 209.5069375000021,
      "v": 100
    },
    {
      "midi": 50,
      "hit": false,
      "t": 53450.677500000005,
      "d": 209.5069375000021,
      "v": 100
    },
    {
      "midi": 50,
      "hit": false,
      "t": 53661.94500000001,
      "d": 209.5069375000021,
      "v": 100
    },
    {
      "midi": 50,
      "hit": false,
      "t": 53873.21250000001,
      "d": 209.5069375000021,
      "v": 100
    },
    {
      "midi": 45,
      "hit": false,
      "t": 54084.48000000001,
      "d": 209.5069375000021,
      "v": 100
    },
    {
      "midi": 45,
      "hit": false,
      "t": 54295.74750000001,
      "d": 209.5069375000021,
      "v": 100
    },
    {
      "midi": 61,
      "hit": false,
      "t": 54507.01499999997,
      "d": 420.77443749999657,
      "v": 100
    },
    {
      "midi": 64,
      "hit": false,
      "t": 54507.01499999997,
      "d": 420.77443749999657,
      "v": 100
    },
    {
      "midi": 45,
      "hit": false,
      "t": 54507.015000000014,
      "d": 209.5069375000021,
      "v": 100
    },
    {
      "midi": 45,
      "hit": false,
      "t": 54718.282500000016,
      "d": 209.5069375000021,
      "v": 100
    },
    {
      "midi": 61,
      "hit": false,
      "t": 54929.54999999997,
      "d": 209.5069375000021,
      "v": 100
    },
    {
      "midi": 64,
      "hit": false,
      "t": 54929.54999999997,
      "d": 209.5069375000021,
      "v": 100
    },
    {
      "midi": 45,
      "hit": false,
      "t": 54929.55000000002,
      "d": 209.5069375000021,
      "v": 100
    },
    {
      "midi": 66,
      "hit": false,
      "t": 55140.81749999997,
      "d": 420.77443749999657,
      "v": 100
    },
    {
      "midi": 45,
      "hit": false,
      "t": 55140.81750000002,
      "d": 209.5069375000021,
      "v": 100
    },
    {
      "midi": 45,
      "hit": false,
      "t": 55352.08500000002,
      "d": 209.5069375000021,
      "v": 100
    },
    {
      "midi": 58,
      "hit": false,
      "t": 55563.352499999964,
      "d": 420.77443749999657,
      "v": 100
    },
    {
      "midi": 61,
      "hit": false,
      "t": 55563.352499999964,
      "d": 420.77443749999657,
      "v": 100
    },
    {
      "midi": 64,
      "hit": false,
      "t": 55563.352499999964,
      "d": 420.77443749999657,
      "v": 100
    },
    {
      "midi": 67,
      "hit": false,
      "t": 55563.352499999964,
      "d": 420.77443749999657,
      "v": 100
    },
    {
      "midi": 42,
      "hit": false,
      "t": 55563.35250000002,
      "d": 420.77443749999657,
      "v": 100
    },
    {
      "midi": 67,
      "hit": false,
      "t": 55985.88749999996,
      "d": 209.5069375000021,
      "v": 100
    },
    {
      "midi": 42,
      "hit": false,
      "t": 55985.88750000002,
      "d": 209.5069375000021,
      "v": 100
    },
    {
      "midi": 66,
      "hit": false,
      "t": 56197.15499999996,
      "d": 209.5069375000021,
      "v": 100
    },
    {
      "midi": 42,
      "hit": false,
      "t": 56197.15500000002,
      "d": 209.5069375000021,
      "v": 100
    },
    {
      "midi": 66,
      "hit": false,
      "t": 56408.422499999964,
      "d": 209.5069375000021,
      "v": 100
    },
    {
      "midi": 42,
      "hit": false,
      "t": 56408.42250000002,
      "d": 209.5069375000021,
      "v": 100
    },
    {
      "midi": 70,
      "hit": false,
      "t": 56619.689999999966,
      "d": 420.77443749999657,
      "v": 100
    },
    {
      "midi": 61,
      "hit": false,
      "t": 56619.689999999966,
      "d": 420.77443749999657,
      "v": 100
    },
    {
      "midi": 64,
      "hit": false,
      "t": 56619.689999999966,
      "d": 420.77443749999657,
      "v": 100
    },
    {
      "midi": 42,
      "hit": false,
      "t": 56619.690000000024,
      "d": 209.5069375000021,
      "v": 100
    },
    {
      "midi": 42,
      "hit": false,
      "t": 56830.957500000026,
      "d": 209.5069375000021,
      "v": 100
    },
    {
      "midi": 66,
      "hit": false,
      "t": 57042.22499999996,
      "d": 420.77443749999657,
      "v": 100
    },
    {
      "midi": 42,
      "hit": false,
      "t": 57042.22500000003,
      "d": 209.5069375000021,
      "v": 100
    },
    {
      "midi": 42,
      "hit": false,
      "t": 57253.49250000003,
      "d": 209.5069375000021,
      "v": 100
    },
    {
      "midi": 64,
      "hit": false,
      "t": 57464.75999999996,
      "d": 632.0419374999983,
      "v": 100
    },
    {
      "midi": 47,
      "hit": false,
      "t": 57464.76000000003,
      "d": 209.5069375000021,
      "v": 100
    },
    {
      "midi": 47,
      "hit": false,
      "t": 57676.02750000003,
      "d": 209.5069375000021,
      "v": 100
    },
    {
      "midi": 47,
      "hit": false,
      "t": 57887.295000000035,
      "d": 209.5069375000021,
      "v": 100
    },
    {
      "midi": 54,
      "hit": false,
      "t": 58098.562499999956,
      "d": 1054.5769375000018,
      "v": 100
    },
    {
      "midi": 59,
      "hit": false,
      "t": 58098.562499999956,
      "d": 1054.5769375000018,
      "v": 100
    },
    {
      "midi": 62,
      "hit": false,
      "t": 58098.562499999956,
      "d": 1054.5769375000018,
      "v": 100
    },
    {
      "midi": 47,
      "hit": false,
      "t": 58098.56250000004,
      "d": 209.5069375000021,
      "v": 100
    },
    {
      "midi": 47,
      "hit": false,
      "t": 58309.83000000004,
      "d": 209.5069375000021,
      "v": 100
    },
    {
      "midi": 47,
      "hit": false,
      "t": 58521.09750000004,
      "d": 209.5069375000021,
      "v": 100
    },
    {
      "midi": 47,
      "hit": false,
      "t": 58732.36500000004,
      "d": 209.5069375000021,
      "v": 100
    },
    {
      "midi": 47,
      "hit": false,
      "t": 58943.63250000004,
      "d": 209.5069375000021,
      "v": 100
    },
    {
      "midi": 62,
      "hit": false,
      "t": 59154.89999999996,
      "d": 420.77443749999657,
      "v": 100
    },
    {
      "midi": 47,
      "hit": false,
      "t": 59154.900000000045,
      "d": 209.5069375000021,
      "v": 100
    },
    {
      "midi": 47,
      "hit": false,
      "t": 59366.16750000005,
      "d": 209.5069375000021,
      "v": 100
    },
    {
      "midi": 64,
      "hit": false,
      "t": 59577.434999999954,
      "d": 420.77443749999657,
      "v": 100
    },
    {
      "midi": 47,
      "hit": false,
      "t": 59577.43500000005,
      "d": 209.5069375000021,
      "v": 100
    },
    {
      "midi": 47,
      "hit": false,
      "t": 59788.70250000005,
      "d": 209.5069375000021,
      "v": 100
    },
    {
      "midi": 61,
      "hit": false,
      "t": 59999.96999999995,
      "d": 420.77443749999657,
      "v": 100
    },
    {
      "midi": 66,
      "hit": false,
      "t": 59999.96999999995,
      "d": 420.77443749999657,
      "v": 100
    },
    {
      "midi": 45,
      "hit": false,
      "t": 59999.97000000005,
      "d": 209.5069375000021,
      "v": 100
    },
    {
      "midi": 45,
      "hit": false,
      "t": 60211.237500000054,
      "d": 209.5069375000021,
      "v": 100
    },
    {
      "midi": 69,
      "hit": false,
      "t": 60422.50499999995,
      "d": 420.77443749999657,
      "v": 100
    },
    {
      "midi": 45,
      "hit": false,
      "t": 60422.505000000056,
      "d": 209.5069375000021,
      "v": 100
    },
    {
      "midi": 45,
      "hit": false,
      "t": 60633.77250000006,
      "d": 209.5069375000021,
      "v": 100
    },
    {
      "midi": 62,
      "hit": false,
      "t": 60845.03999999994,
      "d": 420.77443749999657,
      "v": 100
    },
    {
      "midi": 43,
      "hit": false,
      "t": 60845.04000000006,
      "d": 209.5069375000021,
      "v": 100
    },
    {
      "midi": 43,
      "hit": false,
      "t": 61056.30750000006,
      "d": 209.5069375000021,
      "v": 100
    },
    {
      "midi": 67,
      "hit": false,
      "t": 61267.57499999994,
      "d": 843.3094375000001,
      "v": 100
    },
    {
      "midi": 76,
      "hit": false,
      "t": 61267.57499999994,
      "d": 843.3094375000001,
      "v": 100
    },
    {
      "midi": 43,
      "hit": false,
      "t": 61267.57500000006,
      "d": 209.5069375000021,
      "v": 100
    },
    {
      "midi": 43,
      "hit": false,
      "t": 61478.842500000064,
      "d": 209.5069375000021,
      "v": 100
    },
    {
      "midi": 43,
      "hit": false,
      "t": 61690.110000000066,
      "d": 209.5069375000021,
      "v": 100
    },
    {
      "midi": 43,
      "hit": false,
      "t": 61901.37750000007,
      "d": 209.5069375000021,
      "v": 100
    },
    {
      "midi": 66,
      "hit": false,
      "t": 62112.64499999994,
      "d": 420.77443749999657,
      "v": 100
    },
    {
      "midi": 74,
      "hit": false,
      "t": 62112.64499999994,
      "d": 420.77443749999657,
      "v": 100
    },
    {
      "midi": 43,
      "hit": false,
      "t": 62112.64500000007,
      "d": 209.5069375000021,
      "v": 100
    },
    {
      "midi": 50,
      "hit": false,
      "t": 62323.91250000007,
      "d": 209.5069375000021,
      "v": 100
    },
    {
      "midi": 67,
      "hit": false,
      "t": 62535.179999999935,
      "d": 420.77443749999657,
      "v": 100
    },
    {
      "midi": 76,
      "hit": false,
      "t": 62535.179999999935,
      "d": 420.77443749999657,
      "v": 100
    },
    {
      "midi": 55,
      "hit": false,
      "t": 62535.18000000007,
      "d": 209.5069375000021,
      "v": 100
    },
    {
      "midi": 55,
      "hit": false,
      "t": 62746.447500000075,
      "d": 209.5069375000021,
      "v": 100
    },
    {
      "midi": 55,
      "hit": false,
      "t": 62957.71500000008,
      "d": 209.5069375000021,
      "v": 100
    },
    {
      "midi": 55,
      "hit": false,
      "t": 63168.98250000008,
      "d": 209.5069375000021,
      "v": 100
    },
    {
      "midi": 59,
      "hit": false,
      "t": 63380.249999999935,
      "d": 209.5069375000021,
      "v": 100
    },
    {
      "midi": 55,
      "hit": false,
      "t": 63380.25000000008,
      "d": 209.5069375000021,
      "v": 100
    },
    {
      "midi": 62,
      "hit": false,
      "t": 63591.517499999936,
      "d": 420.77443749999657,
      "v": 100
    },
    {
      "midi": 55,
      "hit": false,
      "t": 63591.51750000008,
      "d": 209.5069375000021,
      "v": 100
    },
    {
      "midi": 55,
      "hit": false,
      "t": 63802.78500000008,
      "d": 209.5069375000021,
      "v": 100
    },
    {
      "midi": 59,
      "hit": false,
      "t": 64014.05249999993,
      "d": 209.5069375000021,
      "v": 100
    },
    {
      "midi": 55,
      "hit": false,
      "t": 64014.052500000085,
      "d": 209.5069375000021,
      "v": 100
    },
    {
      "midi": 54,
      "hit": false,
      "t": 64225.319999999934,
      "d": 1265.8444375000036,
      "v": 100
    },
    {
      "midi": 57,
      "hit": false,
      "t": 64225.319999999934,
      "d": 1265.8444375000036,
      "v": 100
    },
    {
      "midi": 62,
      "hit": false,
      "t": 64225.319999999934,
      "d": 1265.8444375000036,
      "v": 100
    },
    {
      "midi": 50,
      "hit": false,
      "t": 64225.32000000009,
      "d": 209.5069375000021,
      "v": 100
    },
    {
      "midi": 50,
      "hit": false,
      "t": 64436.58750000009,
      "d": 209.5069375000021,
      "v": 100
    },
    {
      "midi": 50,
      "hit": false,
      "t": 64647.85500000009,
      "d": 209.5069375000021,
      "v": 100
    },
    {
      "midi": 50,
      "hit": false,
      "t": 64859.12250000009,
      "d": 209.5069375000021,
      "v": 100
    },
    {
      "midi": 50,
      "hit": false,
      "t": 65070.390000000094,
      "d": 209.5069375000021,
      "v": 100
    },
    {
      "midi": 50,
      "hit": false,
      "t": 65281.657500000096,
      "d": 209.5069375000021,
      "v": 100
    },
    {
      "midi": 66,
      "hit": false,
      "t": 65492.92499999994,
      "d": 420.77443749999657,
      "v": 100
    },
    {
      "midi": 74,
      "hit": false,
      "t": 65492.92499999994,
      "d": 420.77443749999657,
      "v": 100
    },
    {
      "midi": 50,
      "hit": false,
      "t": 65492.9250000001,
      "d": 209.50693749999482,
      "v": 100
    },
    {
      "midi": 50,
      "hit": false,
      "t": 65704.19250000009,
      "d": 209.5069375000021,
      "v": 100
    },
    {
      "midi": 67,
      "hit": false,
      "t": 65915.45999999993,
      "d": 420.77443750000384,
      "v": 100
    },
    {
      "midi": 76,
      "hit": false,
      "t": 65915.45999999993,
      "d": 420.77443750000384,
      "v": 100
    },
    {
      "midi": 38,
      "hit": false,
      "t": 65915.4600000001,
      "d": 209.5069375000021,
      "v": 100
    },
    {
      "midi": 38,
      "hit": false,
      "t": 66126.7275000001,
      "d": 209.5069375000021,
      "v": 100
    },
    {
      "midi": 69,
      "hit": false,
      "t": 66337.99499999994,
      "d": 209.5069375000021,
      "v": 100
    },
    {
      "midi": 78,
      "hit": false,
      "t": 66337.99499999994,
      "d": 209.5069375000021,
      "v": 100
    },
    {
      "midi": 38,
      "hit": false,
      "t": 66337.9950000001,
      "d": 209.5069375000021,
      "v": 100
    },
    {
      "midi": 66,
      "hit": false,
      "t": 66549.26249999994,
      "d": 632.0419375000056,
      "v": 100
    },
    {
      "midi": 74,
      "hit": false,
      "t": 66549.26249999994,
      "d": 632.0419375000056,
      "v": 100
    },
    {
      "midi": 38,
      "hit": false,
      "t": 66549.2625000001,
      "d": 209.5069375000021,
      "v": 100
    },
    {
      "midi": 38,
      "hit": false,
      "t": 66760.5300000001,
      "d": 209.5069375000021,
      "v": 100
    },
    {
      "midi": 38,
      "hit": false,
      "t": 66971.7975000001,
      "d": 209.5069375000021,
      "v": 100
    },
    {
      "midi": 39,
      "hit": false,
      "t": 67183.0650000001,
      "d": 209.5069375000021,
      "v": 100
    },
    {
      "midi": 39,
      "hit": false,
      "t": 67394.3325000001,
      "d": 209.5069375000021,
      "v": 100
    },
    {
      "midi": 40,
      "hit": false,
      "t": 67605.60000000011,
      "d": 209.5069375000021,
      "v": 100
    },
    {
      "midi": 40,
      "hit": false,
      "t": 67816.86750000011,
      "d": 209.5069375000021,
      "v": 100
    },
    {
      "midi": 55,
      "hit": false,
      "t": 68028.13499999995,
      "d": 420.77443750000384,
      "v": 100
    },
    {
      "midi": 59,
      "hit": false,
      "t": 68028.13499999995,
      "d": 420.77443750000384,
      "v": 100
    },
    {
      "midi": 64,
      "hit": false,
      "t": 68028.13499999995,
      "d": 420.77443750000384,
      "v": 100
    },
    {
      "midi": 40,
      "hit": false,
      "t": 68028.13500000011,
      "d": 209.5069375000021,
      "v": 100
    },
    {
      "midi": 40,
      "hit": false,
      "t": 68239.40250000011,
      "d": 209.5069375000021,
      "v": 100
    },
    {
      "midi": 55,
      "hit": false,
      "t": 68450.66999999995,
      "d": 209.5069375000021,
      "v": 100
    },
    {
      "midi": 59,
      "hit": false,
      "t": 68450.66999999995,
      "d": 209.5069375000021,
      "v": 100
    },
    {
      "midi": 64,
      "hit": false,
      "t": 68450.66999999995,
      "d": 209.5069375000021,
      "v": 100
    },
    {
      "midi": 40,
      "hit": false,
      "t": 68450.67000000011,
      "d": 209.5069375000021,
      "v": 100
    },
    {
      "midi": 66,
      "hit": false,
      "t": 68661.93749999996,
      "d": 420.77443750000384,
      "v": 100
    },
    {
      "midi": 40,
      "hit": false,
      "t": 68661.93750000012,
      "d": 209.5069375000021,
      "v": 100
    },
    {
      "midi": 40,
      "hit": false,
      "t": 68873.20500000012,
      "d": 209.5069375000021,
      "v": 100
    },
    {
      "midi": 59,
      "hit": false,
      "t": 69084.47249999996,
      "d": 420.77443750000384,
      "v": 100
    },
    {
      "midi": 64,
      "hit": false,
      "t": 69084.47249999996,
      "d": 420.77443750000384,
      "v": 100
    },
    {
      "midi": 67,
      "hit": false,
      "t": 69084.47249999996,
      "d": 420.77443750000384,
      "v": 100
    },
    {
      "midi": 40,
      "hit": false,
      "t": 69084.47250000012,
      "d": 209.5069375000021,
      "v": 100
    },
    {
      "midi": 40,
      "hit": false,
      "t": 69295.74000000012,
      "d": 209.5069375000021,
      "v": 100
    },
    {
      "midi": 67,
      "hit": false,
      "t": 69507.00749999996,
      "d": 209.5069375000021,
      "v": 100
    },
    {
      "midi": 40,
      "hit": false,
      "t": 69507.00750000012,
      "d": 209.5069375000021,
      "v": 100
    },
    {
      "midi": 66,
      "hit": false,
      "t": 69718.27499999997,
      "d": 209.5069375000021,
      "v": 100
    },
    {
      "midi": 40,
      "hit": false,
      "t": 69718.27500000013,
      "d": 209.5069375000021,
      "v": 100
    },
    {
      "midi": 66,
      "hit": false,
      "t": 69929.54249999997,
      "d": 209.5069375000021,
      "v": 100
    },
    {
      "midi": 40,
      "hit": false,
      "t": 69929.54250000013,
      "d": 209.5069375000021,
      "v": 100
    },
    {
      "midi": 64,
      "hit": false,
      "t": 70140.80999999997,
      "d": 420.77443750000384,
      "v": 100
    },
    {
      "midi": 43,
      "hit": false,
      "t": 70140.81000000013,
      "d": 209.5069375000021,
      "v": 100
    },
    {
      "midi": 43,
      "hit": false,
      "t": 70352.07750000013,
      "d": 209.5069375000021,
      "v": 100
    },
    {
      "midi": 62,
      "hit": false,
      "t": 70563.34499999997,
      "d": 420.77443750000384,
      "v": 100
    },
    {
      "midi": 47,
      "hit": false,
      "t": 70563.34500000013,
      "d": 209.5069375000021,
      "v": 100
    },
    {
      "midi": 47,
      "hit": false,
      "t": 70774.61250000013,
      "d": 209.5069375000021,
      "v": 100
    },
    {
      "midi": 66,
      "hit": false,
      "t": 70985.87999999998,
      "d": 632.0419375000056,
      "v": 100
    },
    {
      "midi": 45,
      "hit": false,
      "t": 70985.88000000014,
      "d": 209.5069375000021,
      "v": 100
    },
    {
      "midi": 45,
      "hit": false,
      "t": 71197.14750000014,
      "d": 209.5069375000021,
      "v": 100
    },
    {
      "midi": 45,
      "hit": false,
      "t": 71408.41500000014,
      "d": 209.5069375000021,
      "v": 100
    },
    {
      "midi": 57,
      "hit": false,
      "t": 71619.68249999998,
      "d": 1054.5769374999945,
      "v": 100
    },
    {
      "midi": 61,
      "hit": false,
      "t": 71619.68249999998,
      "d": 1054.5769374999945,
      "v": 100
    },
    {
      "midi": 64,
      "hit": false,
      "t": 71619.68249999998,
      "d": 1054.5769374999945,
      "v": 100
    },
    {
      "midi": 45,
      "hit": false,
      "t": 71619.68250000014,
      "d": 209.5069375000021,
      "v": 100
    },
    {
      "midi": 45,
      "hit": false,
      "t": 71830.95000000014,
      "d": 209.5069375000021,
      "v": 100
    },
    {
      "midi": 45,
      "hit": false,
      "t": 72042.21750000014,
      "d": 209.5069375000021,
      "v": 100
    },
    {
      "midi": 45,
      "hit": false,
      "t": 72253.48500000015,
      "d": 209.5069375000021,
      "v": 100
    },
    {
      "midi": 45,
      "hit": false,
      "t": 72464.75250000015,
      "d": 209.5069375000021,
      "v": 100
    },
    {
      "midi": 59,
      "hit": false,
      "t": 72676.01999999997,
      "d": 420.77443750000384,
      "v": 100
    },
    {
      "midi": 62,
      "hit": false,
      "t": 72676.01999999997,
      "d": 420.77443750000384,
      "v": 100
    },
    {
      "midi": 67,
      "hit": false,
      "t": 72676.01999999997,
      "d": 420.77443750000384,
      "v": 100
    },
    {
      "midi": 43,
      "hit": false,
      "t": 72676.02000000015,
      "d": 209.5069375000021,
      "v": 100
    },
    {
      "midi": 43,
      "hit": false,
      "t": 72887.28750000015,
      "d": 209.5069375000021,
      "v": 100
    },
    {
      "midi": 43,
      "hit": false,
      "t": 73098.55500000015,
      "d": 209.5069375000021,
      "v": 100
    },
    {
      "midi": 43,
      "hit": false,
      "t": 73309.82250000015,
      "d": 209.5069375000021,
      "v": 100
    },
    {
      "midi": 61,
      "hit": false,
      "t": 73521.08999999998,
      "d": 843.3094375000073,
      "v": 100
    },
    {
      "midi": 64,
      "hit": false,
      "t": 73521.08999999998,
      "d": 843.3094375000073,
      "v": 100
    },
    {
      "midi": 69,
      "hit": false,
      "t": 73521.08999999998,
      "d": 843.3094375000073,
      "v": 100
    },
    {
      "midi": 45,
      "hit": false,
      "t": 73521.09000000016,
      "d": 209.5069375000021,
      "v": 100
    },
    {
      "midi": 45,
      "hit": false,
      "t": 73732.35750000016,
      "d": 209.5069375000021,
      "v": 100
    },
    {
      "midi": 45,
      "hit": false,
      "t": 73943.62500000016,
      "d": 209.5069375000021,
      "v": 100
    },
    {
      "midi": 45,
      "hit": false,
      "t": 74154.89250000016,
      "d": 209.5069375000021,
      "v": 100
    },
    {
      "midi": 66,
      "hit": false,
      "t": 74366.15999999999,
      "d": 1265.8444374999963,
      "v": 100
    },
    {
      "midi": 69,
      "hit": false,
      "t": 74366.15999999999,
      "d": 1265.8444374999963,
      "v": 100
    },
    {
      "midi": 50,
      "hit": false,
      "t": 74366.16000000016,
      "d": 209.5069375000021,
      "v": 100
    },
    {
      "midi": 50,
      "hit": false,
      "t": 74577.42750000017,
      "d": 209.5069375000021,
      "v": 100
    },
    {
      "midi": 50,
      "hit": false,
      "t": 74788.69500000017,
      "d": 209.5069375000021,
      "v": 100
    },
    {
      "midi": 50,
      "hit": false,
      "t": 74999.96250000017,
      "d": 209.5069375000021,
      "v": 100
    },
    {
      "midi": 50,
      "hit": false,
      "t": 75211.23000000017,
      "d": 209.5069375000021,
      "v": 100
    },
    {
      "midi": 50,
      "hit": false,
      "t": 75422.49750000017,
      "d": 209.5069375000021,
      "v": 100
    },
    {
      "midi": 62,
      "hit": false,
      "t": 75633.76499999998,
      "d": 209.5069375000021,
      "v": 100
    },
    {
      "midi": 66,
      "hit": false,
      "t": 75633.76499999998,
      "d": 209.5069375000021,
      "v": 100
    },
    {
      "midi": 50,
      "hit": false,
      "t": 75633.76500000017,
      "d": 209.5069375000021,
      "v": 100
    },
    {
      "midi": 64,
      "hit": false,
      "t": 75845.03249999999,
      "d": 209.5069375000021,
      "v": 100
    },
    {
      "midi": 67,
      "hit": false,
      "t": 75845.03249999999,
      "d": 209.5069375000021,
      "v": 100
    },
    {
      "midi": 50,
      "hit": false,
      "t": 75845.03250000018,
      "d": 209.5069375000021,
      "v": 100
    },
    {
      "midi": 66,
      "hit": false,
      "t": 76056.29999999999,
      "d": 420.77443750000384,
      "v": 100
    },
    {
      "midi": 69,
      "hit": false,
      "t": 76056.29999999999,
      "d": 420.77443750000384,
      "v": 100
    },
    {
      "midi": 50,
      "hit": false,
      "t": 76056.30000000018,
      "d": 209.5069375000021,
      "v": 100
    },
    {
      "midi": 50,
      "hit": false,
      "t": 76267.56750000018,
      "d": 209.5069375000021,
      "v": 100
    },
    {
      "midi": 62,
      "hit": false,
      "t": 76478.83499999999,
      "d": 209.5069375000021,
      "v": 100
    },
    {
      "midi": 66,
      "hit": false,
      "t": 76478.83499999999,
      "d": 209.5069375000021,
      "v": 100
    },
    {
      "midi": 42,
      "hit": false,
      "t": 76478.83500000018,
      "d": 209.5069375000021,
      "v": 100
    },
    {
      "midi": 64,
      "hit": false,
      "t": 76690.1025,
      "d": 209.5069375000021,
      "v": 100
    },
    {
      "midi": 67,
      "hit": false,
      "t": 76690.1025,
      "d": 209.5069375000021,
      "v": 100
    },
    {
      "midi": 42,
      "hit": false,
      "t": 76690.10250000018,
      "d": 209.5069375000021,
      "v": 100
    },
    {
      "midi": 66,
      "hit": false,
      "t": 76901.37,
      "d": 420.77443750000384,
      "v": 100
    },
    {
      "midi": 69,
      "hit": false,
      "t": 76901.37,
      "d": 420.77443750000384,
      "v": 100
    },
    {
      "midi": 45,
      "hit": false,
      "t": 76901.37000000018,
      "d": 209.5069375000021,
      "v": 100
    },
    {
      "midi": 45,
      "hit": false,
      "t": 77112.63750000019,
      "d": 209.5069375000021,
      "v": 100
    },
    {
      "midi": 61,
      "hit": false,
      "t": 77323.905,
      "d": 209.5069375000021,
      "v": 100
    },
    {
      "midi": 66,
      "hit": false,
      "t": 77323.905,
      "d": 209.5069375000021,
      "v": 100
    },
    {
      "midi": 69,
      "hit": false,
      "t": 77323.905,
      "d": 209.5069375000021,
      "v": 100
    },
    {
      "midi": 50,
      "hit": false,
      "t": 77323.90500000019,
      "d": 209.5069375000021,
      "v": 100
    },
    {
      "midi": 61,
      "hit": false,
      "t": 77535.1725,
      "d": 632.0419375000056,
      "v": 100
    },
    {
      "midi": 66,
      "hit": false,
      "t": 77535.1725,
      "d": 632.0419375000056,
      "v": 100
    },
    {
      "midi": 69,
      "hit": false,
      "t": 77535.1725,
      "d": 632.0419375000056,
      "v": 100
    },
    {
      "midi": 50,
      "hit": false,
      "t": 77535.17250000019,
      "d": 209.5069375000021,
      "v": 100
    },
    {
      "midi": 43,
      "hit": false,
      "t": 77746.44000000019,
      "d": 209.5069375000021,
      "v": 100
    },
    {
      "midi": 43,
      "hit": false,
      "t": 77957.7075000002,
      "d": 209.5069375000021,
      "v": 100
    },
    {
      "midi": 67,
      "hit": false,
      "t": 78168.975,
      "d": 209.5069375000021,
      "v": 100
    },
    {
      "midi": 71,
      "hit": false,
      "t": 78168.975,
      "d": 209.5069375000021,
      "v": 100
    },
    {
      "midi": 43,
      "hit": false,
      "t": 78168.9750000002,
      "d": 209.5069375000021,
      "v": 100
    },
    {
      "midi": 64,
      "hit": false,
      "t": 78380.24250000001,
      "d": 420.77443750000384,
      "v": 100
    },
    {
      "midi": 67,
      "hit": false,
      "t": 78380.24250000001,
      "d": 420.77443750000384,
      "v": 100
    },
    {
      "midi": 43,
      "hit": false,
      "t": 78380.2425000002,
      "d": 209.5069375000021,
      "v": 100
    },
    {
      "midi": 43,
      "hit": false,
      "t": 78591.5100000002,
      "d": 209.5069375000021,
      "v": 100
    },
    {
      "midi": 62,
      "hit": false,
      "t": 78802.77750000001,
      "d": 209.5069375000021,
      "v": 100
    },
    {
      "midi": 66,
      "hit": false,
      "t": 78802.77750000001,
      "d": 209.5069375000021,
      "v": 100
    },
    {
      "midi": 43,
      "hit": false,
      "t": 78802.7775000002,
      "d": 209.5069375000021,
      "v": 100
    },
    {
      "midi": 62,
      "hit": false,
      "t": 79014.04500000001,
      "d": 209.5069375000021,
      "v": 100
    },
    {
      "midi": 66,
      "hit": false,
      "t": 79014.04500000001,
      "d": 209.5069375000021,
      "v": 100
    },
    {
      "midi": 43,
      "hit": false,
      "t": 79014.0450000002,
      "d": 209.5069375000021,
      "v": 100
    },
    {
      "midi": 64,
      "hit": false,
      "t": 79225.31250000001,
      "d": 1054.5769374999945,
      "v": 100
    },
    {
      "midi": 67,
      "hit": false,
      "t": 79225.31250000001,
      "d": 1054.5769374999945,
      "v": 100
    },
    {
      "midi": 43,
      "hit": false,
      "t": 79225.3125000002,
      "d": 209.5069375000021,
      "v": 100
    },
    {
      "midi": 43,
      "hit": false,
      "t": 79436.5800000002,
      "d": 209.5069375000021,
      "v": 100
    },
    {
      "midi": 43,
      "hit": false,
      "t": 79647.8475000002,
      "d": 209.5069375000021,
      "v": 100
    },
    {
      "midi": 45,
      "hit": false,
      "t": 79859.11500000021,
      "d": 209.5069375000021,
      "v": 100
    },
    {
      "midi": 43,
      "hit": false,
      "t": 80070.38250000021,
      "d": 209.5069375000021,
      "v": 100
    },
    {
      "midi": 57,
      "hit": false,
      "t": 80281.65000000001,
      "d": 420.77443750000384,
      "v": 100
    },
    {
      "midi": 62,
      "hit": false,
      "t": 80281.65000000001,
      "d": 420.77443750000384,
      "v": 100
    },
    {
      "midi": 42,
      "hit": false,
      "t": 80281.65000000021,
      "d": 209.5069375000021,
      "v": 100
    },
    {
      "midi": 42,
      "hit": false,
      "t": 80492.91750000021,
      "d": 209.5069375000021,
      "v": 100
    },
    {
      "midi": 66,
      "hit": false,
      "t": 80704.18500000001,
      "d": 420.77443750000384,
      "v": 100
    },
    {
      "midi": 42,
      "hit": false,
      "t": 80704.18500000022,
      "d": 209.5069375000021,
      "v": 100
    },
    {
      "midi": 42,
      "hit": false,
      "t": 80915.45250000022,
      "d": 209.5069375000021,
      "v": 100
    },
    {
      "midi": 59,
      "hit": false,
      "t": 81126.72000000002,
      "d": 1265.8444374999963,
      "v": 100
    },
    {
      "midi": 64,
      "hit": false,
      "t": 81126.72000000002,
      "d": 1265.8444374999963,
      "v": 100
    },
    {
      "midi": 67,
      "hit": false,
      "t": 81126.72000000002,
      "d": 1265.8444374999963,
      "v": 100
    },
    {
      "midi": 40,
      "hit": false,
      "t": 81126.72000000022,
      "d": 209.5069375000021,
      "v": 100
    },
    {
      "midi": 40,
      "hit": false,
      "t": 81337.98750000022,
      "d": 209.5069375000021,
      "v": 100
    },
    {
      "midi": 40,
      "hit": false,
      "t": 81549.25500000022,
      "d": 209.5069375000021,
      "v": 100
    },
    {
      "midi": 40,
      "hit": false,
      "t": 81760.52250000022,
      "d": 209.5069375000021,
      "v": 100
    },
    {
      "midi": 40,
      "hit": false,
      "t": 81971.79000000023,
      "d": 209.5069375000021,
      "v": 100
    },
    {
      "midi": 40,
      "hit": false,
      "t": 82183.05750000023,
      "d": 209.5069375000021,
      "v": 100
    },
    {
      "midi": 59,
      "hit": false,
      "t": 82394.32500000001,
      "d": 209.5069375000021,
      "v": 100
    },
    {
      "midi": 64,
      "hit": false,
      "t": 82394.32500000001,
      "d": 209.5069375000021,
      "v": 100
    },
    {
      "midi": 40,
      "hit": false,
      "t": 82394.32500000023,
      "d": 209.5069375000021,
      "v": 100
    },
    {
      "midi": 62,
      "hit": false,
      "t": 82605.59250000001,
      "d": 209.5069375000021,
      "v": 100
    },
    {
      "midi": 66,
      "hit": false,
      "t": 82605.59250000001,
      "d": 209.5069375000021,
      "v": 100
    },
    {
      "midi": 40,
      "hit": false,
      "t": 82605.59250000023,
      "d": 209.5069375000021,
      "v": 100
    },
    {
      "midi": 59,
      "hit": false,
      "t": 82816.86000000002,
      "d": 420.77443750000384,
      "v": 100
    },
    {
      "midi": 64,
      "hit": false,
      "t": 82816.86000000002,
      "d": 420.77443750000384,
      "v": 100
    },
    {
      "midi": 67,
      "hit": false,
      "t": 82816.86000000002,
      "d": 420.77443750000384,
      "v": 100
    },
    {
      "midi": 40,
      "hit": false,
      "t": 82816.86000000023,
      "d": 209.5069375000021,
      "v": 100
    },
    {
      "midi": 40,
      "hit": false,
      "t": 83028.12750000024,
      "d": 209.5069375000021,
      "v": 100
    },
    {
      "midi": 59,
      "hit": false,
      "t": 83239.39500000002,
      "d": 209.5069375000021,
      "v": 100
    },
    {
      "midi": 64,
      "hit": false,
      "t": 83239.39500000002,
      "d": 209.5069375000021,
      "v": 100
    },
    {
      "midi": 40,
      "hit": false,
      "t": 83239.39500000024,
      "d": 209.5069375000021,
      "v": 100
    },
    {
      "midi": 62,
      "hit": false,
      "t": 83450.66250000002,
      "d": 209.5069375000021,
      "v": 100
    },
    {
      "midi": 66,
      "hit": false,
      "t": 83450.66250000002,
      "d": 209.5069375000021,
      "v": 100
    },
    {
      "midi": 40,
      "hit": false,
      "t": 83450.66250000024,
      "d": 209.5069375000021,
      "v": 100
    },
    {
      "midi": 64,
      "hit": false,
      "t": 83661.93000000002,
      "d": 420.77443750000384,
      "v": 100
    },
    {
      "midi": 67,
      "hit": false,
      "t": 83661.93000000002,
      "d": 420.77443750000384,
      "v": 100
    },
    {
      "midi": 40,
      "hit": false,
      "t": 83661.93000000024,
      "d": 209.5069375000021,
      "v": 100
    },
    {
      "midi": 40,
      "hit": false,
      "t": 83873.19750000024,
      "d": 209.5069375000021,
      "v": 100
    },
    {
      "midi": 64,
      "hit": false,
      "t": 84084.46500000003,
      "d": 209.5069375000021,
      "v": 100
    },
    {
      "midi": 67,
      "hit": false,
      "t": 84084.46500000003,
      "d": 209.5069375000021,
      "v": 100
    },
    {
      "midi": 40,
      "hit": false,
      "t": 84084.46500000024,
      "d": 209.5069375000021,
      "v": 100
    },
    {
      "midi": 64,
      "hit": false,
      "t": 84295.73250000003,
      "d": 209.5069375000021,
      "v": 100
    },
    {
      "midi": 67,
      "hit": false,
      "t": 84295.73250000003,
      "d": 209.5069375000021,
      "v": 100
    },
    {
      "midi": 40,
      "hit": false,
      "t": 84295.73250000025,
      "d": 209.5069375000021,
      "v": 100
    },
    {
      "midi": 64,
      "hit": false,
      "t": 84507.00000000003,
      "d": 420.77443750000384,
      "v": 100
    },
    {
      "midi": 67,
      "hit": false,
      "t": 84507.00000000003,
      "d": 420.77443750000384,
      "v": 100
    },
    {
      "midi": 38,
      "hit": false,
      "t": 84507.00000000025,
      "d": 209.5069375000021,
      "v": 100
    },
    {
      "midi": 38,
      "hit": false,
      "t": 84718.26750000025,
      "d": 209.5069375000021,
      "v": 100
    },
    {
      "midi": 66,
      "hit": false,
      "t": 84929.53500000003,
      "d": 209.5069375000021,
      "v": 100
    },
    {
      "midi": 69,
      "hit": false,
      "t": 84929.53500000003,
      "d": 209.5069375000021,
      "v": 100
    },
    {
      "midi": 38,
      "hit": false,
      "t": 84929.53500000025,
      "d": 209.5069375000021,
      "v": 100
    },
    {
      "midi": 62,
      "hit": false,
      "t": 85140.80250000003,
      "d": 420.77443750000384,
      "v": 100
    },
    {
      "midi": 66,
      "hit": false,
      "t": 85140.80250000003,
      "d": 420.77443750000384,
      "v": 100
    },
    {
      "midi": 38,
      "hit": false,
      "t": 85140.80250000025,
      "d": 209.5069375000021,
      "v": 100
    },
    {
      "midi": 38,
      "hit": false,
      "t": 85352.07000000025,
      "d": 209.5069375000021,
      "v": 100
    },
    {
      "midi": 61,
      "hit": false,
      "t": 85563.33750000004,
      "d": 209.5069375000021,
      "v": 100
    },
    {
      "midi": 64,
      "hit": false,
      "t": 85563.33750000004,
      "d": 209.5069375000021,
      "v": 100
    },
    {
      "midi": 38,
      "hit": false,
      "t": 85563.33750000026,
      "d": 209.5069375000021,
      "v": 100
    },
    {
      "midi": 61,
      "hit": false,
      "t": 85774.60500000004,
      "d": 209.5069375000021,
      "v": 100
    },
    {
      "midi": 64,
      "hit": false,
      "t": 85774.60500000004,
      "d": 209.5069375000021,
      "v": 100
    },
    {
      "midi": 38,
      "hit": false,
      "t": 85774.60500000026,
      "d": 209.5069375000021,
      "v": 100
    },
    {
      "midi": 62,
      "hit": false,
      "t": 85985.87250000004,
      "d": 1477.111937499998,
      "v": 100
    },
    {
      "midi": 66,
      "hit": false,
      "t": 85985.87250000004,
      "d": 1477.111937499998,
      "v": 100
    },
    {
      "midi": 38,
      "hit": false,
      "t": 85985.87250000026,
      "d": 209.5069375000021,
      "v": 100
    },
    {
      "midi": 38,
      "hit": false,
      "t": 86197.14000000026,
      "d": 209.5069375000021,
      "v": 100
    },
    {
      "midi": 38,
      "hit": false,
      "t": 86408.40750000026,
      "d": 209.5069375000021,
      "v": 100
    },
    {
      "midi": 50,
      "hit": false,
      "t": 86619.67500000026,
      "d": 209.5069375000021,
      "v": 100
    },
    {
      "midi": 50,
      "hit": false,
      "t": 86830.94250000027,
      "d": 209.5069375000021,
      "v": 100
    },
    {
      "midi": 49,
      "hit": false,
      "t": 87042.21000000027,
      "d": 209.5069375000021,
      "v": 100
    },
    {
      "midi": 49,
      "hit": false,
      "t": 87253.47750000027,
      "d": 209.5069375000021,
      "v": 100
    },
    {
      "midi": 49,
      "hit": false,
      "t": 87464.74500000027,
      "d": 209.5069375000021,
      "v": 100
    },
    {
      "midi": 49,
      "hit": false,
      "t": 87676.01250000027,
      "d": 209.5069375000021,
      "v": 100
    },
    {
      "midi": 62,
      "hit": false,
      "t": 87887.28000000004,
      "d": 420.77443750000384,
      "v": 100
    },
    {
      "midi": 47,
      "hit": false,
      "t": 87887.28000000028,
      "d": 209.5069375000021,
      "v": 100
    },
    {
      "midi": 47,
      "hit": false,
      "t": 88098.54750000028,
      "d": 209.5069375000021,
      "v": 100
    },
    {
      "midi": 64,
      "hit": false,
      "t": 88309.81500000005,
      "d": 420.77443750000384,
      "v": 100
    },
    {
      "midi": 47,
      "hit": false,
      "t": 88309.81500000028,
      "d": 209.5069375000021,
      "v": 100
    },
    {
      "midi": 47,
      "hit": false,
      "t": 88521.08250000028,
      "d": 209.5069375000021,
      "v": 100
    },
    {
      "midi": 62,
      "hit": false,
      "t": 88732.35000000005,
      "d": 420.77443750000384,
      "v": 100
    },
    {
      "midi": 66,
      "hit": false,
      "t": 88732.35000000005,
      "d": 420.77443750000384,
      "v": 100
    },
    {
      "midi": 47,
      "hit": false,
      "t": 88732.35000000028,
      "d": 209.5069375000021,
      "v": 100
    },
    {
      "midi": 47,
      "hit": false,
      "t": 88943.61750000028,
      "d": 209.5069375000021,
      "v": 100
    },
    {
      "midi": 66,
      "hit": false,
      "t": 89154.88500000005,
      "d": 420.77443750000384,
      "v": 100
    },
    {
      "midi": 71,
      "hit": false,
      "t": 89154.88500000005,
      "d": 420.77443750000384,
      "v": 100
    },
    {
      "midi": 74,
      "hit": false,
      "t": 89154.88500000005,
      "d": 420.77443750000384,
      "v": 100
    },
    {
      "midi": 47,
      "hit": false,
      "t": 89154.88500000029,
      "d": 209.5069375000021,
      "v": 100
    },
    {
      "midi": 47,
      "hit": false,
      "t": 89366.15250000029,
      "d": 209.5069375000021,
      "v": 100
    },
    {
      "midi": 64,
      "hit": false,
      "t": 89577.42000000006,
      "d": 632.0419375000056,
      "v": 100
    },
    {
      "midi": 69,
      "hit": false,
      "t": 89577.42000000006,
      "d": 632.0419375000056,
      "v": 100
    },
    {
      "midi": 73,
      "hit": false,
      "t": 89577.42000000006,
      "d": 632.0419375000056,
      "v": 100
    },
    {
      "midi": 42,
      "hit": false,
      "t": 89577.42000000029,
      "d": 209.5069375000021,
      "v": 100
    },
    {
      "midi": 42,
      "hit": false,
      "t": 89788.68750000029,
      "d": 209.5069375000021,
      "v": 100
    },
    {
      "midi": 42,
      "hit": false,
      "t": 89999.9550000003,
      "d": 209.5069375000021,
      "v": 100
    },
    {
      "midi": 64,
      "hit": false,
      "t": 90211.22250000006,
      "d": 209.5069375000021,
      "v": 100
    },
    {
      "midi": 69,
      "hit": false,
      "t": 90211.22250000006,
      "d": 209.5069375000021,
      "v": 100
    },
    {
      "midi": 42,
      "hit": false,
      "t": 90211.2225000003,
      "d": 209.5069375000021,
      "v": 100
    },
    {
      "midi": 64,
      "hit": false,
      "t": 90422.49000000006,
      "d": 420.77443750000384,
      "v": 100
    },
    {
      "midi": 69,
      "hit": false,
      "t": 90422.49000000006,
      "d": 420.77443750000384,
      "v": 100
    },
    {
      "midi": 42,
      "hit": false,
      "t": 90422.4900000003,
      "d": 209.5069375000021,
      "v": 100
    },
    {
      "midi": 42,
      "hit": false,
      "t": 90633.7575000003,
      "d": 209.5069375000021,
      "v": 100
    },
    {
      "midi": 42,
      "hit": false,
      "t": 90845.0250000003,
      "d": 209.5069375000021,
      "v": 100
    },
    {
      "midi": 42,
      "hit": false,
      "t": 91056.2925000003,
      "d": 209.5069375000021,
      "v": 100
    },
    {
      "midi": 62,
      "hit": false,
      "t": 91267.56000000007,
      "d": 420.77443750000384,
      "v": 100
    },
    {
      "midi": 67,
      "hit": false,
      "t": 91267.56000000007,
      "d": 420.77443750000384,
      "v": 100
    },
    {
      "midi": 71,
      "hit": false,
      "t": 91267.56000000007,
      "d": 420.77443750000384,
      "v": 100
    },
    {
      "midi": 43,
      "hit": false,
      "t": 91267.5600000003,
      "d": 209.5069375000021,
      "v": 100
    },
    {
      "midi": 43,
      "hit": false,
      "t": 91478.8275000003,
      "d": 209.5069375000021,
      "v": 100
    },
    {
      "midi": 69,
      "hit": false,
      "t": 91690.09500000007,
      "d": 420.77443750000384,
      "v": 100
    },
    {
      "midi": 43,
      "hit": false,
      "t": 91690.0950000003,
      "d": 209.5069375000021,
      "v": 100
    },
    {
      "midi": 43,
      "hit": false,
      "t": 91901.36250000031,
      "d": 209.5069375000021,
      "v": 100
    },
    {
      "midi": 67,
      "hit": false,
      "t": 92112.63000000008,
      "d": 420.77443750000384,
      "v": 100
    },
    {
      "midi": 43,
      "hit": false,
      "t": 92112.63000000031,
      "d": 209.5069375000021,
      "v": 100
    },
    {
      "midi": 43,
      "hit": false,
      "t": 92323.89750000031,
      "d": 209.5069375000021,
      "v": 100
    },
    {
      "midi": 71,
      "hit": false,
      "t": 92535.16500000008,
      "d": 209.5069375000021,
      "v": 100
    },
    {
      "midi": 47,
      "hit": false,
      "t": 92535.16500000031,
      "d": 209.5069375000021,
      "v": 100
    },
    {
      "midi": 62,
      "hit": false,
      "t": 92746.43250000008,
      "d": 1477.111937499998,
      "v": 100
    },
    {
      "midi": 66,
      "hit": false,
      "t": 92746.43250000008,
      "d": 1477.111937499998,
      "v": 100
    },
    {
      "midi": 69,
      "hit": false,
      "t": 92746.43250000008,
      "d": 1477.111937499998,
      "v": 100
    },
    {
      "midi": 50,
      "hit": false,
      "t": 92746.43250000032,
      "d": 420.77443750000384,
      "v": 100
    },
    {
      "midi": 50,
      "hit": false,
      "t": 93168.96750000032,
      "d": 209.5069375000021,
      "v": 100
    },
    {
      "midi": 50,
      "hit": false,
      "t": 93380.23500000032,
      "d": 209.5069375000021,
      "v": 100
    },
    {
      "midi": 50,
      "hit": false,
      "t": 93591.50250000032,
      "d": 209.5069375000021,
      "v": 100
    },
    {
      "midi": 50,
      "hit": false,
      "t": 93802.77000000032,
      "d": 209.5069375000021,
      "v": 100
    },
    {
      "midi": 50,
      "hit": false,
      "t": 94014.03750000033,
      "d": 209.5069375000021,
      "v": 100
    },
    {
      "midi": 50,
      "hit": false,
      "t": 94225.30500000033,
      "d": 209.5069375000021,
      "v": 100
    },
    {
      "midi": 50,
      "hit": false,
      "t": 94436.57250000033,
      "d": 209.5069375000021,
      "v": 100
    },
    {
      "midi": 59,
      "hit": false,
      "t": 94647.84000000003,
      "d": 1688.3794374999998,
      "v": 100
    },
    {
      "midi": 64,
      "hit": false,
      "t": 94647.84000000003,
      "d": 1688.3794374999998,
      "v": 100
    },
    {
      "midi": 67,
      "hit": false,
      "t": 94647.84000000008,
      "d": 420.77443750000384,
      "v": 100
    },
    {
      "midi": 52,
      "hit": false,
      "t": 94647.84000000033,
      "d": 209.5069375000021,
      "v": 100
    },
    {
      "midi": 52,
      "hit": false,
      "t": 94859.10750000033,
      "d": 209.5069375000021,
      "v": 100
    },
    {
      "midi": 67,
      "hit": false,
      "t": 95070.37500000009,
      "d": 420.77443750000384,
      "v": 100
    },
    {
      "midi": 52,
      "hit": false,
      "t": 95070.37500000033,
      "d": 209.5069375000021,
      "v": 100
    },
    {
      "midi": 52,
      "hit": false,
      "t": 95281.64250000034,
      "d": 209.5069375000021,
      "v": 100
    },
    {
      "midi": 67,
      "hit": false,
      "t": 95492.91000000009,
      "d": 420.77443750000384,
      "v": 100
    },
    {
      "midi": 52,
      "hit": false,
      "t": 95492.91000000034,
      "d": 209.5069375000021,
      "v": 100
    },
    {
      "midi": 52,
      "hit": false,
      "t": 95704.17750000034,
      "d": 209.5069375000021,
      "v": 100
    },
    {
      "midi": 67,
      "hit": false,
      "t": 95915.4450000001,
      "d": 420.77443750000384,
      "v": 100
    },
    {
      "midi": 52,
      "hit": false,
      "t": 95915.44500000034,
      "d": 209.5069375000021,
      "v": 100
    },
    {
      "midi": 52,
      "hit": false,
      "t": 96126.71250000034,
      "d": 209.5069375000021,
      "v": 100
    },
    {
      "midi": 57,
      "hit": false,
      "t": 96337.9800000001,
      "d": 843.3094374999928,
      "v": 100
    },
    {
      "midi": 62,
      "hit": false,
      "t": 96337.9800000001,
      "d": 843.3094374999928,
      "v": 100
    },
    {
      "midi": 66,
      "hit": false,
      "t": 96337.9800000001,
      "d": 843.3094374999928,
      "v": 100
    },
    {
      "midi": 45,
      "hit": false,
      "t": 96337.98000000035,
      "d": 209.5069375000021,
      "v": 100
    },
    {
      "midi": 45,
      "hit": false,
      "t": 96549.24750000035,
      "d": 209.5069375000021,
      "v": 100
    },
    {
      "midi": 45,
      "hit": false,
      "t": 96760.51500000035,
      "d": 209.5069375000021,
      "v": 100
    },
    {
      "midi": 45,
      "hit": false,
      "t": 96971.78250000035,
      "d": 209.5069375000021,
      "v": 100
    },
    {
      "midi": 57,
      "hit": false,
      "t": 97183.05000000003,
      "d": 843.3094375000073,
      "v": 100
    },
    {
      "midi": 61,
      "hit": false,
      "t": 97183.05000000003,
      "d": 843.3094375000073,
      "v": 100
    },
    {
      "midi": 64,
      "hit": false,
      "t": 97183.05000000009,
      "d": 632.0419375000056,
      "v": 100
    },
    {
      "midi": 33,
      "hit": false,
      "t": 97183.05000000035,
      "d": 209.5069375000021,
      "v": 100
    },
    {
      "midi": 45,
      "hit": false,
      "t": 97183.05000000035,
      "d": 209.5069375000021,
      "v": 100
    },
    {
      "midi": 33,
      "hit": false,
      "t": 97394.31750000035,
      "d": 209.5069375000021,
      "v": 100
    },
    {
      "midi": 45,
      "hit": false,
      "t": 97394.31750000035,
      "d": 209.5069375000021,
      "v": 100
    },
    {
      "midi": 33,
      "hit": false,
      "t": 97605.58500000036,
      "d": 209.5069375000021,
      "v": 100
    },
    {
      "midi": 45,
      "hit": false,
      "t": 97605.58500000036,
      "d": 209.5069375000021,
      "v": 100
    },
    {
      "midi": 62,
      "hit": false,
      "t": 97816.8525000001,
      "d": 209.5069375000021,
      "v": 100
    },
    {
      "midi": 33,
      "hit": false,
      "t": 97816.85250000036,
      "d": 209.5069375000021,
      "v": 100
    },
    {
      "midi": 45,
      "hit": false,
      "t": 97816.85250000036,
      "d": 209.5069375000021,
      "v": 100
    },
    {
      "midi": 62,
      "hit": false,
      "t": 98028.12000000004,
      "d": 843.3094375000073,
      "v": 100
    },
    {
      "midi": 69,
      "hit": false,
      "t": 98028.1200000001,
      "d": 420.77443750000384,
      "v": 100
    },
    {
      "midi": 50,
      "hit": false,
      "t": 98028.12000000036,
      "d": 209.5069375000021,
      "v": 100
    },
    {
      "midi": 50,
      "hit": false,
      "t": 98239.38750000036,
      "d": 209.5069375000021,
      "v": 100
    },
    {
      "midi": 74,
      "hit": false,
      "t": 98450.6550000001,
      "d": 420.77443750000384,
      "v": 100
    },
    {
      "midi": 50,
      "hit": false,
      "t": 98450.65500000036,
      "d": 209.5069375000021,
      "v": 100
    },
    {
      "midi": 50,
      "hit": false,
      "t": 98661.92250000036,
      "d": 209.5069375000021,
      "v": 100
    },
    {
      "midi": 78,
      "hit": false,
      "t": 98873.1900000001,
      "d": 420.77443750000384,
      "v": 100
    },
    {
      "midi": 50,
      "hit": false,
      "t": 98873.19000000037,
      "d": 209.5069375000021,
      "v": 100
    },
    {
      "midi": 50,
      "hit": false,
      "t": 99084.45750000037,
      "d": 209.5069375000021,
      "v": 100
    },
    {
      "midi": 74,
      "hit": false,
      "t": 99295.72500000011,
      "d": 420.77443750000384,
      "v": 100
    },
    {
      "midi": 50,
      "hit": false,
      "t": 99295.72500000037,
      "d": 209.5069375000021,
      "v": 100
    },
    {
      "midi": 50,
      "hit": false,
      "t": 99506.99250000037,
      "d": 209.5069375000021,
      "v": 100
    },
    {
      "midi": 69,
      "hit": false,
      "t": 99718.26000000011,
      "d": 420.77443750000384,
      "v": 100
    },
    {
      "midi": 50,
      "hit": false,
      "t": 99718.26000000037,
      "d": 209.5069375000021,
      "v": 100
    },
    {
      "midi": 50,
      "hit": false,
      "t": 99929.52750000037,
      "d": 209.5069375000021,
      "v": 100
    },
    {
      "midi": 74,
      "hit": false,
      "t": 100140.79500000011,
      "d": 209.5069375000021,
      "v": 100
    },
    {
      "midi": 50,
      "hit": false,
      "t": 100140.79500000038,
      "d": 209.5069375000021,
      "v": 100
    },
    {
      "midi": 79,
      "hit": false,
      "t": 100352.06250000012,
      "d": 420.77443750000384,
      "v": 100
    },
    {
      "midi": 50,
      "hit": false,
      "t": 100352.06250000038,
      "d": 209.5069375000021,
      "v": 100
    },
    {
      "midi": 50,
      "hit": false,
      "t": 100563.33000000038,
      "d": 209.5069375000021,
      "v": 100
    },
    {
      "midi": 78,
      "hit": false,
      "t": 100774.59750000012,
      "d": 209.5069375000021,
      "v": 100
    },
    {
      "midi": 50,
      "hit": false,
      "t": 100774.59750000038,
      "d": 209.5069375000021,
      "v": 100
    },
    {
      "midi": 74,
      "hit": false,
      "t": 100985.86500000012,
      "d": 420.77443750000384,
      "v": 100
    },
    {
      "midi": 50,
      "hit": false,
      "t": 100985.86500000038,
      "d": 209.5069375000021,
      "v": 100
    },
    {
      "midi": 50,
      "hit": false,
      "t": 101197.13250000039,
      "d": 209.5069375000021,
      "v": 100
    },
    {
      "midi": 69,
      "hit": false,
      "t": 101408.40000000013,
      "d": 420.77443750000384,
      "v": 100
    },
    {
      "midi": 50,
      "hit": false,
      "t": 101408.40000000039,
      "d": 209.5069375000021,
      "v": 100
    },
    {
      "midi": 50,
      "hit": false,
      "t": 101619.66750000039,
      "d": 209.5069375000021,
      "v": 100
    },
    {
      "midi": 74,
      "hit": false,
      "t": 101830.93500000013,
      "d": 420.77443750000384,
      "v": 100
    },
    {
      "midi": 50,
      "hit": false,
      "t": 101830.93500000039,
      "d": 209.5069375000021,
      "v": 100
    },
    {
      "midi": 50,
      "hit": false,
      "t": 102042.20250000039,
      "d": 209.5069375000021,
      "v": 100
    },
    {
      "midi": 78,
      "hit": false,
      "t": 102253.47000000013,
      "d": 420.77443750000384,
      "v": 100
    },
    {
      "midi": 50,
      "hit": false,
      "t": 102253.4700000004,
      "d": 209.5069375000021,
      "v": 100
    },
    {
      "midi": 50,
      "hit": false,
      "t": 102464.7375000004,
      "d": 209.5069375000021,
      "v": 100
    },
    {
      "midi": 74,
      "hit": false,
      "t": 102676.00500000014,
      "d": 420.77443750000384,
      "v": 100
    },
    {
      "midi": 50,
      "hit": false,
      "t": 102676.0050000004,
      "d": 209.5069375000021,
      "v": 100
    },
    {
      "midi": 50,
      "hit": false,
      "t": 102887.2725000004,
      "d": 209.5069375000021,
      "v": 100
    },
    {
      "midi": 69,
      "hit": false,
      "t": 103098.54000000014,
      "d": 420.77443750000384,
      "v": 100
    },
    {
      "midi": 50,
      "hit": false,
      "t": 103098.5400000004,
      "d": 209.5069375000021,
      "v": 100
    },
    {
      "midi": 50,
      "hit": false,
      "t": 103309.8075000004,
      "d": 209.5069375000021,
      "v": 100
    },
    {
      "midi": 74,
      "hit": false,
      "t": 103521.07500000014,
      "d": 209.5069375000021,
      "v": 100
    },
    {
      "midi": 50,
      "hit": false,
      "t": 103521.0750000004,
      "d": 209.5069375000021,
      "v": 100
    },
    {
      "midi": 79,
      "hit": false,
      "t": 103732.34250000014,
      "d": 420.77443750000384,
      "v": 100
    },
    {
      "midi": 50,
      "hit": false,
      "t": 103732.3425000004,
      "d": 209.5069375000021,
      "v": 100
    },
    {
      "midi": 50,
      "hit": false,
      "t": 103943.61000000041,
      "d": 209.5069375000021,
      "v": 100
    },
    {
      "midi": 78,
      "hit": false,
      "t": 104154.87750000015,
      "d": 209.5069375000021,
      "v": 100
    },
    {
      "midi": 50,
      "hit": false,
      "t": 104154.87750000041,
      "d": 209.5069375000021,
      "v": 100
    },
    {
      "midi": 74,
      "hit": false,
      "t": 104366.14500000015,
      "d": 420.77443750000384,
      "v": 100
    },
    {
      "midi": 50,
      "hit": false,
      "t": 104366.14500000041,
      "d": 420.77443750000384,
      "v": 100
    },
    {
      "midi": 57,
      "hit": false,
      "t": 104788.68000000005,
      "d": 1265.8444374999963,
      "v": 100
    },
    {
      "midi": 62,
      "hit": false,
      "t": 104788.68000000005,
      "d": 1265.8444374999963,
      "v": 100
    },
    {
      "midi": 66,
      "hit": false,
      "t": 104788.68000000015,
      "d": 420.77443750000384,
      "v": 100
    },
    {
      "midi": 50,
      "hit": false,
      "t": 104788.68000000042,
      "d": 209.5069375000021,
      "v": 100
    },
    {
      "midi": 50,
      "hit": false,
      "t": 104999.94750000042,
      "d": 209.5069375000021,
      "v": 100
    },
    {
      "midi": 67,
      "hit": false,
      "t": 105211.21500000016,
      "d": 209.5069375000021,
      "v": 100
    },
    {
      "midi": 50,
      "hit": false,
      "t": 105211.21500000042,
      "d": 209.5069375000021,
      "v": 100
    },
    {
      "midi": 66,
      "hit": false,
      "t": 105422.48250000016,
      "d": 632.0419375000056,
      "v": 100
    },
    {
      "midi": 50,
      "hit": false,
      "t": 105422.48250000042,
      "d": 209.5069375000021,
      "v": 100
    },
    {
      "midi": 50,
      "hit": false,
      "t": 105633.75000000042,
      "d": 209.5069375000021,
      "v": 100
    },
    {
      "midi": 50,
      "hit": false,
      "t": 105845.01750000042,
      "d": 209.5069375000021,
      "v": 100
    },
    {
      "midi": 50,
      "hit": false,
      "t": 106056.28500000043,
      "d": 209.5069375000021,
      "v": 100
    },
    {
      "midi": 50,
      "hit": false,
      "t": 106267.55250000043,
      "d": 209.5069375000021,
      "v": 100
    },
    {
      "midi": 57,
      "hit": false,
      "t": 106478.82000000005,
      "d": 1265.8444374999963,
      "v": 100
    },
    {
      "midi": 62,
      "hit": false,
      "t": 106478.82000000005,
      "d": 1265.8444374999963,
      "v": 100
    },
    {
      "midi": 66,
      "hit": false,
      "t": 106478.82000000017,
      "d": 209.5069375000021,
      "v": 100
    },
    {
      "midi": 48,
      "hit": false,
      "t": 106478.82000000043,
      "d": 209.5069375000021,
      "v": 100
    },
    {
      "midi": 66,
      "hit": false,
      "t": 106690.08750000017,
      "d": 209.5069375000021,
      "v": 100
    },
    {
      "midi": 48,
      "hit": false,
      "t": 106690.08750000043,
      "d": 209.5069375000021,
      "v": 100
    },
    {
      "midi": 67,
      "hit": false,
      "t": 106901.35500000017,
      "d": 209.5069375000021,
      "v": 100
    },
    {
      "midi": 48,
      "hit": false,
      "t": 106901.35500000043,
      "d": 209.5069375000021,
      "v": 100
    },
    {
      "midi": 66,
      "hit": false,
      "t": 107112.62250000017,
      "d": 632.0419375000056,
      "v": 100
    },
    {
      "midi": 48,
      "hit": false,
      "t": 107112.62250000043,
      "d": 209.5069375000021,
      "v": 100
    },
    {
      "midi": 48,
      "hit": false,
      "t": 107323.89000000044,
      "d": 209.5069375000021,
      "v": 100
    },
    {
      "midi": 48,
      "hit": false,
      "t": 107535.15750000044,
      "d": 209.5069375000021,
      "v": 100
    },
    {
      "midi": 48,
      "hit": false,
      "t": 107746.42500000044,
      "d": 209.5069375000021,
      "v": 100
    },
    {
      "midi": 48,
      "hit": false,
      "t": 107957.69250000044,
      "d": 209.5069375000021,
      "v": 100
    },
    {
      "midi": 62,
      "hit": false,
      "t": 108168.96000000005,
      "d": 843.3094374999928,
      "v": 100
    },
    {
      "midi": 66,
      "hit": false,
      "t": 108168.96000000018,
      "d": 420.77443750000384,
      "v": 100
    },
    {
      "midi": 47,
      "hit": false,
      "t": 108168.96000000044,
      "d": 209.5069375000021,
      "v": 100
    },
    {
      "midi": 47,
      "hit": false,
      "t": 108380.22750000044,
      "d": 209.5069375000021,
      "v": 100
    },
    {
      "midi": 67,
      "hit": false,
      "t": 108591.49500000018,
      "d": 420.77443750000384,
      "v": 100
    },
    {
      "midi": 47,
      "hit": false,
      "t": 108591.49500000045,
      "d": 209.5069375000021,
      "v": 100
    },
    {
      "midi": 47,
      "hit": false,
      "t": 108802.76250000045,
      "d": 209.5069375000021,
      "v": 100
    },
    {
      "midi": 61,
      "hit": false,
      "t": 109014.03000000004,
      "d": 843.3094375000073,
      "v": 100
    },
    {
      "midi": 66,
      "hit": false,
      "t": 109014.03000000019,
      "d": 209.5069375000021,
      "v": 100
    },
    {
      "midi": 45,
      "hit": false,
      "t": 109014.03000000045,
      "d": 209.5069375000021,
      "v": 100
    },
    {
      "midi": 64,
      "hit": false,
      "t": 109225.29750000019,
      "d": 209.5069375000021,
      "v": 100
    },
    {
      "midi": 45,
      "hit": false,
      "t": 109225.29750000045,
      "d": 209.5069375000021,
      "v": 100
    },
    {
      "midi": 62,
      "hit": false,
      "t": 109436.56500000019,
      "d": 209.5069375000021,
      "v": 100
    },
    {
      "midi": 45,
      "hit": false,
      "t": 109436.56500000045,
      "d": 209.5069375000021,
      "v": 100
    },
    {
      "midi": 64,
      "hit": false,
      "t": 109647.8325000002,
      "d": 209.5069375000021,
      "v": 100
    },
    {
      "midi": 45,
      "hit": false,
      "t": 109647.83250000046,
      "d": 209.5069375000021,
      "v": 100
    },
    {
      "midi": 59,
      "hit": false,
      "t": 109859.10000000005,
      "d": 1265.8444374999963,
      "v": 100
    },
    {
      "midi": 62,
      "hit": false,
      "t": 109859.1000000002,
      "d": 209.5069375000021,
      "v": 100
    },
    {
      "midi": 43,
      "hit": false,
      "t": 109859.10000000046,
      "d": 209.5069375000021,
      "v": 100
    },
    {
      "midi": 62,
      "hit": false,
      "t": 110070.3675000002,
      "d": 1054.5769374999945,
      "v": 100
    },
    {
      "midi": 43,
      "hit": false,
      "t": 110070.36750000046,
      "d": 209.5069375000021,
      "v": 100
    },
    {
      "midi": 43,
      "hit": false,
      "t": 110281.63500000046,
      "d": 209.5069375000021,
      "v": 100
    },
    {
      "midi": 43,
      "hit": false,
      "t": 110492.90250000046,
      "d": 209.5069375000021,
      "v": 100
    },
    {
      "midi": 43,
      "hit": false,
      "t": 110704.17000000046,
      "d": 209.5069375000021,
      "v": 100
    },
    {
      "midi": 43,
      "hit": false,
      "t": 110915.43750000047,
      "d": 209.5069375000021,
      "v": 100
    },
    {
      "midi": 43,
      "hit": false,
      "t": 111126.70500000047,
      "d": 209.5069375000021,
      "v": 100
    },
    {
      "midi": 43,
      "hit": false,
      "t": 111337.97250000047,
      "d": 209.5069375000021,
      "v": 100
    },
    {
      "midi": 55,
      "hit": false,
      "t": 111549.24000000005,
      "d": 1265.8444374999963,
      "v": 100
    },
    {
      "midi": 59,
      "hit": false,
      "t": 111549.24000000005,
      "d": 1265.8444374999963,
      "v": 100
    },
    {
      "midi": 64,
      "hit": false,
      "t": 111549.2400000002,
      "d": 209.5069375000021,
      "v": 100
    },
    {
      "midi": 52,
      "hit": false,
      "t": 111549.24000000047,
      "d": 209.5069375000021,
      "v": 100
    },
    {
      "midi": 64,
      "hit": false,
      "t": 111760.5075000002,
      "d": 209.5069375000021,
      "v": 100
    },
    {
      "midi": 52,
      "hit": false,
      "t": 111760.50750000047,
      "d": 209.5069375000021,
      "v": 100
    },
    {
      "midi": 62,
      "hit": false,
      "t": 111971.7750000002,
      "d": 209.5069375000021,
      "v": 100
    },
    {
      "midi": 52,
      "hit": false,
      "t": 111971.77500000047,
      "d": 209.5069375000021,
      "v": 100
    },
    {
      "midi": 64,
      "hit": false,
      "t": 112183.0425000002,
      "d": 632.0419375000056,
      "v": 100
    },
    {
      "midi": 52,
      "hit": false,
      "t": 112183.04250000048,
      "d": 209.5069375000021,
      "v": 100
    },
    {
      "midi": 52,
      "hit": false,
      "t": 112394.31000000048,
      "d": 209.5069375000021,
      "v": 100
    },
    {
      "midi": 52,
      "hit": false,
      "t": 112605.57750000048,
      "d": 209.5069375000021,
      "v": 100
    },
    {
      "midi": 52,
      "hit": false,
      "t": 112816.84500000048,
      "d": 209.5069375000021,
      "v": 100
    },
    {
      "midi": 52,
      "hit": false,
      "t": 113028.11250000048,
      "d": 209.5069375000021,
      "v": 100
    },
    {
      "midi": 62,
      "hit": false,
      "t": 113239.38000000021,
      "d": 315.1406874999957,
      "v": 100
    },
    {
      "midi": 66,
      "hit": false,
      "t": 113239.38000000021,
      "d": 315.1406874999957,
      "v": 100
    },
    {
      "midi": 47,
      "hit": false,
      "t": 113239.38000000048,
      "d": 209.5069375000021,
      "v": 100
    },
    {
      "midi": 47,
      "hit": false,
      "t": 113450.64750000049,
      "d": 209.5069375000021,
      "v": 100
    },
    {
      "midi": 59,
      "hit": false,
      "t": 113556.2812500002,
      "d": 315.1406874999957,
      "v": 100
    },
    {
      "midi": 62,
      "hit": false,
      "t": 113556.2812500002,
      "d": 315.1406874999957,
      "v": 100
    },
    {
      "midi": 47,
      "hit": false,
      "t": 113661.91500000049,
      "d": 209.5069375000021,
      "v": 100
    },
    {
      "midi": 59,
      "hit": false,
      "t": 113873.1825000002,
      "d": 632.0419375000056,
      "v": 100
    },
    {
      "midi": 62,
      "hit": false,
      "t": 113873.1825000002,
      "d": 632.0419375000056,
      "v": 100
    },
    {
      "midi": 47,
      "hit": false,
      "t": 113873.18250000049,
      "d": 209.5069375000021,
      "v": 100
    },
    {
      "midi": 47,
      "hit": false,
      "t": 114084.45000000049,
      "d": 209.5069375000021,
      "v": 100
    },
    {
      "midi": 47,
      "hit": false,
      "t": 114295.7175000005,
      "d": 209.5069375000021,
      "v": 100
    },
    {
      "midi": 47,
      "hit": false,
      "t": 114506.9850000005,
      "d": 209.5069375000021,
      "v": 100
    },
    {
      "midi": 47,
      "hit": false,
      "t": 114718.2525000005,
      "d": 209.5069375000021,
      "v": 100
    },
    {
      "midi": 43,
      "hit": false,
      "t": 114929.5200000005,
      "d": 209.5069375000021,
      "v": 100
    },
    {
      "midi": 43,
      "hit": false,
      "t": 115140.7875000005,
      "d": 209.5069375000021,
      "v": 100
    },
    {
      "midi": 59,
      "hit": false,
      "t": 115352.05500000021,
      "d": 420.77443750000384,
      "v": 100
    },
    {
      "midi": 62,
      "hit": false,
      "t": 115352.05500000021,
      "d": 420.77443750000384,
      "v": 100
    },
    {
      "midi": 43,
      "hit": false,
      "t": 115352.0550000005,
      "d": 209.5069375000021,
      "v": 100
    },
    {
      "midi": 43,
      "hit": false,
      "t": 115563.3225000005,
      "d": 209.5069375000021,
      "v": 100
    },
    {
      "midi": 59,
      "hit": false,
      "t": 115774.59000000021,
      "d": 209.5069375000021,
      "v": 100
    },
    {
      "midi": 43,
      "hit": false,
      "t": 115774.5900000005,
      "d": 209.5069375000021,
      "v": 100
    },
    {
      "midi": 62,
      "hit": false,
      "t": 115985.85750000022,
      "d": 420.77443750000384,
      "v": 100
    },
    {
      "midi": 43,
      "hit": false,
      "t": 115985.85750000051,
      "d": 209.5069375000021,
      "v": 100
    },
    {
      "midi": 43,
      "hit": false,
      "t": 116197.12500000051,
      "d": 209.5069375000021,
      "v": 100
    },
    {
      "midi": 62,
      "hit": false,
      "t": 116408.39250000022,
      "d": 420.77443750000384,
      "v": 100
    },
    {
      "midi": 66,
      "hit": false,
      "t": 116408.39250000022,
      "d": 420.77443750000384,
      "v": 100
    },
    {
      "midi": 43,
      "hit": false,
      "t": 116408.39250000051,
      "d": 209.5069375000021,
      "v": 100
    },
    {
      "midi": 45,
      "hit": false,
      "t": 116619.66000000051,
      "d": 209.5069375000021,
      "v": 100
    },
    {
      "midi": 61,
      "hit": false,
      "t": 116830.92750000022,
      "d": 1054.5769374999945,
      "v": 100
    },
    {
      "midi": 64,
      "hit": false,
      "t": 116830.92750000022,
      "d": 1054.5769374999945,
      "v": 100
    },
    {
      "midi": 45,
      "hit": false,
      "t": 116830.92750000051,
      "d": 209.5069375000021,
      "v": 100
    },
    {
      "midi": 45,
      "hit": false,
      "t": 117042.19500000052,
      "d": 209.5069375000021,
      "v": 100
    },
    {
      "midi": 45,
      "hit": false,
      "t": 117253.46250000052,
      "d": 209.5069375000021,
      "v": 100
    },
    {
      "midi": 45,
      "hit": false,
      "t": 117464.73000000052,
      "d": 209.5069375000021,
      "v": 100
    },
    {
      "midi": 45,
      "hit": false,
      "t": 117675.99750000052,
      "d": 209.5069375000021,
      "v": 100
    },
    {
      "midi": 45,
      "hit": false,
      "t": 117887.26500000052,
      "d": 209.5069375000021,
      "v": 100
    },
    {
      "midi": 45,
      "hit": false,
      "t": 118098.53250000053,
      "d": 209.5069375000021,
      "v": 100
    },
    {
      "midi": 57,
      "hit": false,
      "t": 118309.80000000005,
      "d": 1265.8444374999963,
      "v": 100
    },
    {
      "midi": 62,
      "hit": false,
      "t": 118309.80000000005,
      "d": 1265.8444374999963,
      "v": 100
    },
    {
      "midi": 66,
      "hit": false,
      "t": 118309.80000000022,
      "d": 209.5069375000021,
      "v": 100
    },
    {
      "midi": 50,
      "hit": false,
      "t": 118309.80000000053,
      "d": 209.5069375000021,
      "v": 100
    },
    {
      "midi": 66,
      "hit": false,
      "t": 118521.06750000022,
      "d": 209.5069375000021,
      "v": 100
    },
    {
      "midi": 50,
      "hit": false,
      "t": 118521.06750000053,
      "d": 209.5069375000021,
      "v": 100
    },
    {
      "midi": 67,
      "hit": false,
      "t": 118732.33500000022,
      "d": 209.5069375000021,
      "v": 100
    },
    {
      "midi": 50,
      "hit": false,
      "t": 118732.33500000053,
      "d": 209.5069375000021,
      "v": 100
    },
    {
      "midi": 66,
      "hit": false,
      "t": 118943.60250000023,
      "d": 632.0419375000056,
      "v": 100
    },
    {
      "midi": 50,
      "hit": false,
      "t": 118943.60250000053,
      "d": 209.5069375000021,
      "v": 100
    },
    {
      "midi": 50,
      "hit": false,
      "t": 119154.87000000053,
      "d": 209.5069375000021,
      "v": 100
    },
    {
      "midi": 50,
      "hit": false,
      "t": 119366.13750000054,
      "d": 209.5069375000021,
      "v": 100
    },
    {
      "midi": 50,
      "hit": false,
      "t": 119577.40500000054,
      "d": 209.5069375000021,
      "v": 100
    },
    {
      "midi": 50,
      "hit": false,
      "t": 119788.67250000054,
      "d": 209.5069375000021,
      "v": 100
    },
    {
      "midi": 57,
      "hit": false,
      "t": 119999.94000000005,
      "d": 1265.8444374999963,
      "v": 100
    },
    {
      "midi": 62,
      "hit": false,
      "t": 119999.94000000005,
      "d": 1265.8444374999963,
      "v": 100
    },
    {
      "midi": 66,
      "hit": false,
      "t": 119999.94000000024,
      "d": 209.5069375000021,
      "v": 100
    },
    {
      "midi": 48,
      "hit": false,
      "t": 119999.94000000054,
      "d": 209.5069375000021,
      "v": 100
    },
    {
      "midi": 66,
      "hit": false,
      "t": 120211.20750000024,
      "d": 209.5069375000021,
      "v": 100
    },
    {
      "midi": 48,
      "hit": false,
      "t": 120211.20750000054,
      "d": 209.5069375000021,
      "v": 100
    },
    {
      "midi": 67,
      "hit": false,
      "t": 120422.47500000024,
      "d": 209.5069375000021,
      "v": 100
    },
    {
      "midi": 48,
      "hit": false,
      "t": 120422.47500000054,
      "d": 209.5069375000021,
      "v": 100
    },
    {
      "midi": 66,
      "hit": false,
      "t": 120633.74250000024,
      "d": 632.0419375000056,
      "v": 100
    },
    {
      "midi": 48,
      "hit": false,
      "t": 120633.74250000055,
      "d": 209.5069375000021,
      "v": 100
    },
    {
      "midi": 48,
      "hit": false,
      "t": 120845.01000000055,
      "d": 209.5069375000021,
      "v": 100
    },
    {
      "midi": 48,
      "hit": false,
      "t": 121056.27750000055,
      "d": 209.5069375000021,
      "v": 100
    },
    {
      "midi": 48,
      "hit": false,
      "t": 121267.54500000055,
      "d": 209.5069375000021,
      "v": 100
    },
    {
      "midi": 48,
      "hit": false,
      "t": 121478.81250000055,
      "d": 209.5069375000021,
      "v": 100
    },
    {
      "midi": 62,
      "hit": false,
      "t": 121690.08000000005,
      "d": 843.3094374999928,
      "v": 100
    },
    {
      "midi": 66,
      "hit": false,
      "t": 121690.08000000025,
      "d": 420.77443750000384,
      "v": 100
    },
    {
      "midi": 47,
      "hit": false,
      "t": 121690.08000000055,
      "d": 209.5069375000021,
      "v": 100
    },
    {
      "midi": 47,
      "hit": false,
      "t": 121901.34750000056,
      "d": 209.5069375000021,
      "v": 100
    },
    {
      "midi": 67,
      "hit": false,
      "t": 122112.61500000025,
      "d": 420.77443750000384,
      "v": 100
    },
    {
      "midi": 47,
      "hit": false,
      "t": 122112.61500000056,
      "d": 209.5069375000021,
      "v": 100
    },
    {
      "midi": 47,
      "hit": false,
      "t": 122323.88250000056,
      "d": 209.5069375000021,
      "v": 100
    },
    {
      "midi": 61,
      "hit": false,
      "t": 122535.15000000004,
      "d": 843.3094375000073,
      "v": 100
    },
    {
      "midi": 66,
      "hit": false,
      "t": 122535.15000000026,
      "d": 209.5069375000021,
      "v": 100
    },
    {
      "midi": 45,
      "hit": false,
      "t": 122535.15000000056,
      "d": 209.5069375000021,
      "v": 100
    },
    {
      "midi": 64,
      "hit": false,
      "t": 122746.41750000026,
      "d": 209.5069375000021,
      "v": 100
    },
    {
      "midi": 45,
      "hit": false,
      "t": 122746.41750000056,
      "d": 209.5069375000021,
      "v": 100
    },
    {
      "midi": 62,
      "hit": false,
      "t": 122957.68500000026,
      "d": 209.5069375000021,
      "v": 100
    },
    {
      "midi": 45,
      "hit": false,
      "t": 122957.68500000057,
      "d": 209.5069375000021,
      "v": 100
    },
    {
      "midi": 64,
      "hit": false,
      "t": 123168.95250000026,
      "d": 209.5069375000021,
      "v": 100
    },
    {
      "midi": 45,
      "hit": false,
      "t": 123168.95250000057,
      "d": 209.5069375000021,
      "v": 100
    },
    {
      "midi": 59,
      "hit": false,
      "t": 123380.22000000004,
      "d": 1265.8444374999963,
      "v": 100
    },
    {
      "midi": 62,
      "hit": false,
      "t": 123380.22000000026,
      "d": 209.5069375000021,
      "v": 100
    },
    {
      "midi": 43,
      "hit": false,
      "t": 123380.22000000057,
      "d": 209.5069375000021,
      "v": 100
    },
    {
      "midi": 62,
      "hit": false,
      "t": 123591.48750000026,
      "d": 1054.5769374999945,
      "v": 100
    },
    {
      "midi": 43,
      "hit": false,
      "t": 123591.48750000057,
      "d": 209.5069375000021,
      "v": 100
    },
    {
      "midi": 43,
      "hit": false,
      "t": 123802.75500000057,
      "d": 209.5069375000021,
      "v": 100
    },
    {
      "midi": 43,
      "hit": false,
      "t": 124014.02250000057,
      "d": 209.5069375000021,
      "v": 100
    },
    {
      "midi": 43,
      "hit": false,
      "t": 124225.29000000058,
      "d": 209.5069375000021,
      "v": 100
    },
    {
      "midi": 43,
      "hit": false,
      "t": 124436.55750000058,
      "d": 209.5069375000021,
      "v": 100
    },
    {
      "midi": 43,
      "hit": false,
      "t": 124647.82500000058,
      "d": 209.5069375000021,
      "v": 100
    },
    {
      "midi": 43,
      "hit": false,
      "t": 124859.09250000058,
      "d": 209.5069375000021,
      "v": 100
    },
    {
      "midi": 55,
      "hit": false,
      "t": 125070.36000000004,
      "d": 1265.8444374999963,
      "v": 100
    },
    {
      "midi": 59,
      "hit": false,
      "t": 125070.36000000004,
      "d": 1265.8444374999963,
      "v": 100
    },
    {
      "midi": 64,
      "hit": false,
      "t": 125070.36000000026,
      "d": 209.5069375000021,
      "v": 100
    },
    {
      "midi": 52,
      "hit": false,
      "t": 125070.36000000058,
      "d": 209.5069375000021,
      "v": 100
    },
    {
      "midi": 64,
      "hit": false,
      "t": 125281.62750000026,
      "d": 209.5069375000021,
      "v": 100
    },
    {
      "midi": 52,
      "hit": false,
      "t": 125281.62750000058,
      "d": 209.5069375000021,
      "v": 100
    },
    {
      "midi": 62,
      "hit": false,
      "t": 125492.89500000027,
      "d": 209.5069375000021,
      "v": 100
    },
    {
      "midi": 52,
      "hit": false,
      "t": 125492.89500000059,
      "d": 209.5069375000021,
      "v": 100
    },
    {
      "midi": 64,
      "hit": false,
      "t": 125704.16250000027,
      "d": 632.0419375000056,
      "v": 100
    },
    {
      "midi": 52,
      "hit": false,
      "t": 125704.16250000059,
      "d": 209.5069375000021,
      "v": 100
    },
    {
      "midi": 52,
      "hit": false,
      "t": 125915.43000000059,
      "d": 209.5069375000021,
      "v": 100
    },
    {
      "midi": 52,
      "hit": false,
      "t": 126126.69750000059,
      "d": 209.5069375000021,
      "v": 100
    },
    {
      "midi": 52,
      "hit": false,
      "t": 126337.9650000006,
      "d": 209.5069375000021,
      "v": 100
    },
    {
      "midi": 62,
      "hit": false,
      "t": 126549.23250000027,
      "d": 209.5069375000021,
      "v": 100
    },
    {
      "midi": 52,
      "hit": false,
      "t": 126549.2325000006,
      "d": 209.5069375000021,
      "v": 100
    },
    {
      "midi": 62,
      "hit": false,
      "t": 126760.50000000028,
      "d": 315.1406874999957,
      "v": 100
    },
    {
      "midi": 66,
      "hit": false,
      "t": 126760.50000000028,
      "d": 315.1406874999957,
      "v": 100
    },
    {
      "midi": 47,
      "hit": false,
      "t": 126760.5000000006,
      "d": 209.5069375000021,
      "v": 100
    },
    {
      "midi": 47,
      "hit": false,
      "t": 126971.7675000006,
      "d": 209.5069375000021,
      "v": 100
    },
    {
      "midi": 59,
      "hit": false,
      "t": 127077.40125000027,
      "d": 315.1406874999957,
      "v": 100
    },
    {
      "midi": 62,
      "hit": false,
      "t": 127077.40125000027,
      "d": 315.1406874999957,
      "v": 100
    },
    {
      "midi": 47,
      "hit": false,
      "t": 127183.0350000006,
      "d": 209.5069375000021,
      "v": 100
    },
    {
      "midi": 59,
      "hit": false,
      "t": 127394.30250000027,
      "d": 632.0419375000056,
      "v": 100
    },
    {
      "midi": 62,
      "hit": false,
      "t": 127394.30250000027,
      "d": 632.0419375000056,
      "v": 100
    },
    {
      "midi": 47,
      "hit": false,
      "t": 127394.3025000006,
      "d": 209.5069375000021,
      "v": 100
    },
    {
      "midi": 47,
      "hit": false,
      "t": 127605.5700000006,
      "d": 209.5069375000021,
      "v": 100
    },
    {
      "midi": 47,
      "hit": false,
      "t": 127816.8375000006,
      "d": 209.5069375000021,
      "v": 100
    },
    {
      "midi": 47,
      "hit": false,
      "t": 128028.1050000006,
      "d": 209.5069375000021,
      "v": 100
    },
    {
      "midi": 47,
      "hit": false,
      "t": 128239.37250000061,
      "d": 209.5069375000021,
      "v": 100
    },
    {
      "midi": 59,
      "hit": false,
      "t": 128450.64000000028,
      "d": 420.77443750000384,
      "v": 100
    },
    {
      "midi": 62,
      "hit": false,
      "t": 128450.64000000028,
      "d": 420.77443750000384,
      "v": 100
    },
    {
      "midi": 43,
      "hit": false,
      "t": 128450.64000000061,
      "d": 209.5069375000021,
      "v": 100
    },
    {
      "midi": 43,
      "hit": false,
      "t": 128661.90750000061,
      "d": 209.5069375000021,
      "v": 100
    },
    {
      "midi": 66,
      "hit": false,
      "t": 128873.17500000028,
      "d": 420.77443750000384,
      "v": 100
    },
    {
      "midi": 43,
      "hit": false,
      "t": 128873.17500000061,
      "d": 209.5069375000021,
      "v": 100
    },
    {
      "midi": 43,
      "hit": false,
      "t": 129084.44250000062,
      "d": 209.5069375000021,
      "v": 100
    },
    {
      "midi": 55,
      "hit": false,
      "t": 129295.71000000028,
      "d": 209.5069375000021,
      "v": 100
    },
    {
      "midi": 61,
      "hit": false,
      "t": 129295.71000000028,
      "d": 209.5069375000021,
      "v": 100
    },
    {
      "midi": 64,
      "hit": false,
      "t": 129295.71000000028,
      "d": 209.5069375000021,
      "v": 100
    },
    {
      "midi": 45,
      "hit": false,
      "t": 129295.71000000062,
      "d": 209.5069375000021,
      "v": 100
    },
    {
      "midi": 62,
      "hit": false,
      "t": 129506.97750000028,
      "d": 209.5069375000021,
      "v": 100
    },
    {
      "midi": 45,
      "hit": false,
      "t": 129506.97750000062,
      "d": 209.5069375000021,
      "v": 100
    },
    {
      "midi": 61,
      "hit": false,
      "t": 129718.24500000029,
      "d": 209.5069375000021,
      "v": 100
    },
    {
      "midi": 45,
      "hit": false,
      "t": 129718.24500000062,
      "d": 209.5069375000021,
      "v": 100
    },
    {
      "midi": 62,
      "hit": false,
      "t": 129929.51250000029,
      "d": 1477.111937499998,
      "v": 100
    },
    {
      "midi": 45,
      "hit": false,
      "t": 129929.51250000062,
      "d": 209.5069375000021,
      "v": 100
    },
    {
      "midi": 50,
      "hit": false,
      "t": 130140.78000000062,
      "d": 209.5069375000021,
      "v": 100
    },
    {
      "midi": 50,
      "hit": false,
      "t": 130352.04750000063,
      "d": 209.5069375000021,
      "v": 100
    },
    {
      "midi": 50,
      "hit": false,
      "t": 130563.31500000063,
      "d": 209.5069375000021,
      "v": 100
    },
    {
      "midi": 50,
      "hit": false,
      "t": 130774.58250000063,
      "d": 209.5069375000021,
      "v": 100
    },
    {
      "midi": 50,
      "hit": false,
      "t": 130985.85000000063,
      "d": 420.77443750000384,
      "v": 100
    },
    {
      "midi": 62,
      "hit": false,
      "t": 131408.3850000003,
      "d": 420.7744374999893,
      "v": 100
    },
    {
      "midi": 50,
      "hit": false,
      "t": 131408.38500000065,
      "d": 420.7744374999893,
      "v": 100
    },
    {
      "midi": 43,
      "hit": false,
      "t": 131830.92000000065,
      "d": 209.5069375000021,
      "v": 100
    },
    {
      "midi": 43,
      "hit": false,
      "t": 132042.18750000067,
      "d": 209.5069375000021,
      "v": 100
    },
    {
      "midi": 67,
      "hit": false,
      "t": 132253.45500000028,
      "d": 843.3094374999928,
      "v": 100
    },
    {
      "midi": 71,
      "hit": false,
      "t": 132253.45500000028,
      "d": 843.3094374999928,
      "v": 100
    },
    {
      "midi": 74,
      "hit": false,
      "t": 132253.45500000028,
      "d": 843.3094374999928,
      "v": 100
    },
    {
      "midi": 76,
      "hit": false,
      "t": 132253.45500000028,
      "d": 843.3094374999928,
      "v": 100
    },
    {
      "midi": 43,
      "hit": false,
      "t": 132253.4550000007,
      "d": 209.5069375000021,
      "v": 100
    },
    {
      "midi": 43,
      "hit": false,
      "t": 132464.7225000007,
      "d": 209.5069375000021,
      "v": 100
    },
    {
      "midi": 43,
      "hit": false,
      "t": 132675.99000000072,
      "d": 209.5069375000021,
      "v": 100
    },
    {
      "midi": 43,
      "hit": false,
      "t": 132887.25750000073,
      "d": 209.5069375000021,
      "v": 100
    },
    {
      "midi": 66,
      "hit": false,
      "t": 133098.52500000029,
      "d": 420.7744374999893,
      "v": 100
    },
    {
      "midi": 74,
      "hit": false,
      "t": 133098.52500000029,
      "d": 420.7744374999893,
      "v": 100
    },
    {
      "midi": 43,
      "hit": false,
      "t": 133098.52500000075,
      "d": 209.5069375000021,
      "v": 100
    },
    {
      "midi": 43,
      "hit": false,
      "t": 133309.79250000077,
      "d": 209.5069375000021,
      "v": 100
    },
    {
      "midi": 67,
      "hit": false,
      "t": 133521.0600000003,
      "d": 420.7744374999893,
      "v": 100
    },
    {
      "midi": 76,
      "hit": false,
      "t": 133521.0600000003,
      "d": 420.7744374999893,
      "v": 100
    },
    {
      "midi": 43,
      "hit": false,
      "t": 133521.06000000078,
      "d": 209.5069375000021,
      "v": 100
    },
    {
      "midi": 43,
      "hit": false,
      "t": 133732.3275000008,
      "d": 209.5069375000021,
      "v": 100
    },
    {
      "midi": 43,
      "hit": false,
      "t": 133943.59500000082,
      "d": 209.5069375000021,
      "v": 100
    },
    {
      "midi": 43,
      "hit": false,
      "t": 134154.86250000083,
      "d": 209.5069375000021,
      "v": 100
    },
    {
      "midi": 59,
      "hit": false,
      "t": 134366.13000000027,
      "d": 209.5069375000021,
      "v": 100
    },
    {
      "midi": 43,
      "hit": false,
      "t": 134366.13000000085,
      "d": 209.5069375000021,
      "v": 100
    },
    {
      "midi": 62,
      "hit": false,
      "t": 134577.39750000028,
      "d": 420.7744374999893,
      "v": 100
    },
    {
      "midi": 43,
      "hit": false,
      "t": 134577.39750000086,
      "d": 209.5069375000021,
      "v": 100
    },
    {
      "midi": 48,
      "hit": false,
      "t": 134788.66500000088,
      "d": 209.5069375000021,
      "v": 100
    },
    {
      "midi": 59,
      "hit": false,
      "t": 134999.9325000003,
      "d": 209.5069375000021,
      "v": 100
    },
    {
      "midi": 48,
      "hit": false,
      "t": 134999.9325000009,
      "d": 209.5069375000021,
      "v": 100
    },
    {
      "midi": 54,
      "hit": false,
      "t": 135211.2000000003,
      "d": 1265.8444374999963,
      "v": 100
    },
    {
      "midi": 57,
      "hit": false,
      "t": 135211.2000000003,
      "d": 1265.8444374999963,
      "v": 100
    },
    {
      "midi": 62,
      "hit": false,
      "t": 135211.2000000003,
      "d": 1265.8444374999963,
      "v": 100
    },
    {
      "midi": 50,
      "hit": false,
      "t": 135211.2000000009,
      "d": 209.5069375000021,
      "v": 100
    },
    {
      "midi": 50,
      "hit": false,
      "t": 135422.46750000093,
      "d": 209.5069375000021,
      "v": 100
    },
    {
      "midi": 50,
      "hit": false,
      "t": 135633.73500000095,
      "d": 209.5069375000021,
      "v": 100
    },
    {
      "midi": 50,
      "hit": false,
      "t": 135845.00250000096,
      "d": 209.5069375000021,
      "v": 100
    },
    {
      "midi": 50,
      "hit": false,
      "t": 136056.27000000098,
      "d": 209.5069375000021,
      "v": 100
    },
    {
      "midi": 50,
      "hit": false,
      "t": 136267.537500001,
      "d": 209.5069375000021,
      "v": 100
    },
    {
      "midi": 66,
      "hit": false,
      "t": 136478.8050000003,
      "d": 420.7744374999893,
      "v": 100
    },
    {
      "midi": 74,
      "hit": false,
      "t": 136478.8050000003,
      "d": 420.7744374999893,
      "v": 100
    },
    {
      "midi": 50,
      "hit": false,
      "t": 136478.805000001,
      "d": 209.5069375000021,
      "v": 100
    },
    {
      "midi": 50,
      "hit": false,
      "t": 136690.07250000103,
      "d": 209.5069375000021,
      "v": 100
    },
    {
      "midi": 67,
      "hit": false,
      "t": 136901.34000000032,
      "d": 420.7744374999893,
      "v": 100
    },
    {
      "midi": 76,
      "hit": false,
      "t": 136901.34000000032,
      "d": 420.7744374999893,
      "v": 100
    },
    {
      "midi": 50,
      "hit": false,
      "t": 136901.34000000104,
      "d": 209.5069375000021,
      "v": 100
    },
    {
      "midi": 50,
      "hit": false,
      "t": 137112.60750000106,
      "d": 209.5069375000021,
      "v": 100
    },
    {
      "midi": 69,
      "hit": false,
      "t": 137323.87500000032,
      "d": 209.5069375000021,
      "v": 100
    },
    {
      "midi": 78,
      "hit": false,
      "t": 137323.87500000032,
      "d": 209.5069375000021,
      "v": 100
    },
    {
      "midi": 50,
      "hit": false,
      "t": 137323.87500000108,
      "d": 209.5069375000021,
      "v": 100
    },
    {
      "midi": 66,
      "hit": false,
      "t": 137535.14250000034,
      "d": 632.0419375000056,
      "v": 100
    },
    {
      "midi": 74,
      "hit": false,
      "t": 137535.14250000034,
      "d": 632.0419375000056,
      "v": 100
    },
    {
      "midi": 50,
      "hit": false,
      "t": 137535.1425000011,
      "d": 209.5069375000021,
      "v": 100
    },
    {
      "midi": 50,
      "hit": false,
      "t": 137746.4100000011,
      "d": 209.5069375000021,
      "v": 100
    },
    {
      "midi": 50,
      "hit": false,
      "t": 137957.67750000113,
      "d": 209.5069375000021,
      "v": 100
    },
    {
      "midi": 50,
      "hit": false,
      "t": 138168.94500000114,
      "d": 209.5069375000021,
      "v": 100
    },
    {
      "midi": 50,
      "hit": false,
      "t": 138380.21250000116,
      "d": 209.5069375000021,
      "v": 100
    },
    {
      "midi": 45,
      "hit": false,
      "t": 138591.48000000117,
      "d": 209.5069375000021,
      "v": 100
    },
    {
      "midi": 45,
      "hit": false,
      "t": 138802.7475000012,
      "d": 209.5069375000021,
      "v": 100
    },
    {
      "midi": 61,
      "hit": false,
      "t": 139014.01500000033,
      "d": 420.7744374999893,
      "v": 100
    },
    {
      "midi": 64,
      "hit": false,
      "t": 139014.01500000033,
      "d": 420.7744374999893,
      "v": 100
    },
    {
      "midi": 45,
      "hit": false,
      "t": 139014.0150000012,
      "d": 209.5069375000021,
      "v": 100
    },
    {
      "midi": 45,
      "hit": false,
      "t": 139225.28250000122,
      "d": 209.5069375000021,
      "v": 100
    },
    {
      "midi": 61,
      "hit": false,
      "t": 139436.55000000034,
      "d": 420.7744374999893,
      "v": 100
    },
    {
      "midi": 64,
      "hit": false,
      "t": 139436.55000000034,
      "d": 420.7744374999893,
      "v": 100
    },
    {
      "midi": 45,
      "hit": false,
      "t": 139436.55000000124,
      "d": 209.5069375000021,
      "v": 100
    },
    {
      "midi": 45,
      "hit": false,
      "t": 139647.81750000126,
      "d": 209.5069375000021,
      "v": 100
    },
    {
      "midi": 66,
      "hit": false,
      "t": 139859.08500000034,
      "d": 209.5069375000021,
      "v": 100
    },
    {
      "midi": 45,
      "hit": false,
      "t": 139859.08500000127,
      "d": 209.5069375000021,
      "v": 100
    },
    {
      "midi": 58,
      "hit": false,
      "t": 140070.35250000036,
      "d": 420.7744374999893,
      "v": 100
    },
    {
      "midi": 61,
      "hit": false,
      "t": 140070.35250000036,
      "d": 420.7744374999893,
      "v": 100
    },
    {
      "midi": 64,
      "hit": false,
      "t": 140070.35250000036,
      "d": 420.7744374999893,
      "v": 100
    },
    {
      "midi": 67,
      "hit": false,
      "t": 140070.35250000036,
      "d": 420.7744374999893,
      "v": 100
    },
    {
      "midi": 42,
      "hit": false,
      "t": 140070.3525000013,
      "d": 420.7744374999893,
      "v": 100
    },
    {
      "midi": 67,
      "hit": false,
      "t": 140492.88750000036,
      "d": 209.5069375000021,
      "v": 100
    },
    {
      "midi": 42,
      "hit": false,
      "t": 140492.8875000013,
      "d": 209.5069375000021,
      "v": 100
    },
    {
      "midi": 66,
      "hit": false,
      "t": 140704.15500000038,
      "d": 209.5069375000021,
      "v": 100
    },
    {
      "midi": 42,
      "hit": false,
      "t": 140704.1550000013,
      "d": 209.5069375000021,
      "v": 100
    },
    {
      "midi": 66,
      "hit": false,
      "t": 140915.4225000004,
      "d": 209.5069375000021,
      "v": 100
    },
    {
      "midi": 42,
      "hit": false,
      "t": 140915.42250000132,
      "d": 209.5069375000021,
      "v": 100
    },
    {
      "midi": 70,
      "hit": false,
      "t": 141126.6900000004,
      "d": 420.7744374999893,
      "v": 100
    },
    {
      "midi": 61,
      "hit": false,
      "t": 141126.6900000004,
      "d": 420.7744374999893,
      "v": 100
    },
    {
      "midi": 64,
      "hit": false,
      "t": 141126.6900000004,
      "d": 420.7744374999893,
      "v": 100
    },
    {
      "midi": 42,
      "hit": false,
      "t": 141126.69000000134,
      "d": 209.5069375000021,
      "v": 100
    },
    {
      "midi": 42,
      "hit": false,
      "t": 141337.95750000136,
      "d": 209.5069375000021,
      "v": 100
    },
    {
      "midi": 66,
      "hit": false,
      "t": 141549.2250000004,
      "d": 420.7744374999893,
      "v": 100
    },
    {
      "midi": 42,
      "hit": false,
      "t": 141549.22500000137,
      "d": 209.5069375000021,
      "v": 100
    },
    {
      "midi": 42,
      "hit": false,
      "t": 141760.4925000014,
      "d": 209.5069375000021,
      "v": 100
    },
    {
      "midi": 64,
      "hit": false,
      "t": 141971.76000000042,
      "d": 632.0419375000056,
      "v": 100
    },
    {
      "midi": 47,
      "hit": false,
      "t": 141971.7600000014,
      "d": 209.5069375000021,
      "v": 100
    },
    {
      "midi": 47,
      "hit": false,
      "t": 142183.02750000142,
      "d": 209.5069375000021,
      "v": 100
    },
    {
      "midi": 47,
      "hit": false,
      "t": 142394.29500000144,
      "d": 209.5069375000021,
      "v": 100
    },
    {
      "midi": 54,
      "hit": false,
      "t": 142605.56250000044,
      "d": 1054.576937500009,
      "v": 100
    },
    {
      "midi": 59,
      "hit": false,
      "t": 142605.56250000044,
      "d": 1054.576937500009,
      "v": 100
    },
    {
      "midi": 62,
      "hit": false,
      "t": 142605.56250000044,
      "d": 1054.576937500009,
      "v": 100
    },
    {
      "midi": 47,
      "hit": false,
      "t": 142605.56250000146,
      "d": 209.5069375000021,
      "v": 100
    },
    {
      "midi": 47,
      "hit": false,
      "t": 142816.83000000147,
      "d": 209.5069375000021,
      "v": 100
    },
    {
      "midi": 47,
      "hit": false,
      "t": 143028.0975000015,
      "d": 209.5069375000021,
      "v": 100
    },
    {
      "midi": 47,
      "hit": false,
      "t": 143239.3650000015,
      "d": 209.5069375000021,
      "v": 100
    },
    {
      "midi": 47,
      "hit": false,
      "t": 143450.63250000152,
      "d": 209.5069375000021,
      "v": 100
    },
    {
      "midi": 62,
      "hit": false,
      "t": 143661.90000000046,
      "d": 420.7744374999893,
      "v": 100
    },
    {
      "midi": 47,
      "hit": false,
      "t": 143661.90000000154,
      "d": 209.5069375000021,
      "v": 100
    },
    {
      "midi": 47,
      "hit": false,
      "t": 143873.16750000155,
      "d": 209.5069375000021,
      "v": 100
    },
    {
      "midi": 64,
      "hit": false,
      "t": 144084.43500000046,
      "d": 420.7744374999893,
      "v": 100
    },
    {
      "midi": 47,
      "hit": false,
      "t": 144084.43500000157,
      "d": 209.5069375000021,
      "v": 100
    },
    {
      "midi": 47,
      "hit": false,
      "t": 144295.7025000016,
      "d": 209.5069375000021,
      "v": 100
    },
    {
      "midi": 61,
      "hit": false,
      "t": 144506.97000000047,
      "d": 420.7744374999893,
      "v": 100
    },
    {
      "midi": 66,
      "hit": false,
      "t": 144506.97000000047,
      "d": 420.7744374999893,
      "v": 100
    },
    {
      "midi": 45,
      "hit": false,
      "t": 144506.9700000016,
      "d": 209.5069375000021,
      "v": 100
    },
    {
      "midi": 45,
      "hit": false,
      "t": 144718.23750000162,
      "d": 209.5069375000021,
      "v": 100
    },
    {
      "midi": 69,
      "hit": false,
      "t": 144929.50500000047,
      "d": 420.7744374999893,
      "v": 100
    },
    {
      "midi": 45,
      "hit": false,
      "t": 144929.50500000163,
      "d": 209.5069375000021,
      "v": 100
    },
    {
      "midi": 45,
      "hit": false,
      "t": 145140.77250000165,
      "d": 209.5069375000021,
      "v": 100
    },
    {
      "midi": 62,
      "hit": false,
      "t": 145352.04000000047,
      "d": 420.7744374999893,
      "v": 100
    },
    {
      "midi": 43,
      "hit": false,
      "t": 145352.04000000167,
      "d": 209.5069375000021,
      "v": 100
    },
    {
      "midi": 43,
      "hit": false,
      "t": 145563.30750000168,
      "d": 209.5069375000021,
      "v": 100
    },
    {
      "midi": 67,
      "hit": false,
      "t": 145774.57500000048,
      "d": 843.3094374999928,
      "v": 100
    },
    {
      "midi": 76,
      "hit": false,
      "t": 145774.57500000048,
      "d": 843.3094374999928,
      "v": 100
    },
    {
      "midi": 43,
      "hit": false,
      "t": 145774.5750000017,
      "d": 209.5069375000021,
      "v": 100
    },
    {
      "midi": 43,
      "hit": false,
      "t": 145985.84250000172,
      "d": 209.5069375000021,
      "v": 100
    },
    {
      "midi": 43,
      "hit": false,
      "t": 146197.11000000173,
      "d": 209.5069375000021,
      "v": 100
    },
    {
      "midi": 43,
      "hit": false,
      "t": 146408.37750000175,
      "d": 209.5069375000021,
      "v": 100
    },
    {
      "midi": 66,
      "hit": false,
      "t": 146619.64500000048,
      "d": 420.7744374999893,
      "v": 100
    },
    {
      "midi": 74,
      "hit": false,
      "t": 146619.64500000048,
      "d": 420.7744374999893,
      "v": 100
    },
    {
      "midi": 43,
      "hit": false,
      "t": 146619.64500000176,
      "d": 209.5069375000021,
      "v": 100
    },
    {
      "midi": 50,
      "hit": false,
      "t": 146830.91250000178,
      "d": 209.5069375000021,
      "v": 100
    },
    {
      "midi": 67,
      "hit": false,
      "t": 147042.1800000005,
      "d": 420.7744374999893,
      "v": 100
    },
    {
      "midi": 76,
      "hit": false,
      "t": 147042.1800000005,
      "d": 420.7744374999893,
      "v": 100
    },
    {
      "midi": 55,
      "hit": false,
      "t": 147042.1800000018,
      "d": 209.5069375000021,
      "v": 100
    },
    {
      "midi": 55,
      "hit": false,
      "t": 147253.4475000018,
      "d": 209.5069375000021,
      "v": 100
    },
    {
      "midi": 55,
      "hit": false,
      "t": 147464.71500000183,
      "d": 209.5069375000021,
      "v": 100
    },
    {
      "midi": 55,
      "hit": false,
      "t": 147675.98250000185,
      "d": 209.5069375000021,
      "v": 100
    },
    {
      "midi": 59,
      "hit": false,
      "t": 147887.25000000047,
      "d": 209.5069375000021,
      "v": 100
    },
    {
      "midi": 55,
      "hit": false,
      "t": 147887.25000000186,
      "d": 209.5069375000021,
      "v": 100
    },
    {
      "midi": 62,
      "hit": false,
      "t": 148098.51750000048,
      "d": 420.7744374999893,
      "v": 100
    },
    {
      "midi": 55,
      "hit": false,
      "t": 148098.51750000188,
      "d": 209.5069375000021,
      "v": 100
    },
    {
      "midi": 55,
      "hit": false,
      "t": 148309.7850000019,
      "d": 209.5069375000021,
      "v": 100
    },
    {
      "midi": 59,
      "hit": false,
      "t": 148521.0525000005,
      "d": 209.5069375000021,
      "v": 100
    },
    {
      "midi": 55,
      "hit": false,
      "t": 148521.0525000019,
      "d": 209.5069375000021,
      "v": 100
    },
    {
      "midi": 54,
      "hit": false,
      "t": 148732.3200000005,
      "d": 1265.8444374999963,
      "v": 100
    },
    {
      "midi": 57,
      "hit": false,
      "t": 148732.3200000005,
      "d": 1265.8444374999963,
      "v": 100
    },
    {
      "midi": 62,
      "hit": false,
      "t": 148732.3200000005,
      "d": 1265.8444374999963,
      "v": 100
    },
    {
      "midi": 50,
      "hit": false,
      "t": 148732.32000000193,
      "d": 209.5069375000021,
      "v": 100
    },
    {
      "midi": 50,
      "hit": false,
      "t": 148943.58750000194,
      "d": 209.5069375000021,
      "v": 100
    },
    {
      "midi": 50,
      "hit": false,
      "t": 149154.85500000196,
      "d": 209.5069375000021,
      "v": 100
    },
    {
      "midi": 50,
      "hit": false,
      "t": 149366.12250000198,
      "d": 209.5069375000021,
      "v": 100
    },
    {
      "midi": 50,
      "hit": false,
      "t": 149577.390000002,
      "d": 209.5069375000021,
      "v": 100
    },
    {
      "midi": 50,
      "hit": false,
      "t": 149788.657500002,
      "d": 209.5069375000021,
      "v": 100
    },
    {
      "midi": 66,
      "hit": false,
      "t": 149999.9250000005,
      "d": 420.7744374999893,
      "v": 100
    },
    {
      "midi": 74,
      "hit": false,
      "t": 149999.9250000005,
      "d": 420.7744374999893,
      "v": 100
    },
    {
      "midi": 50,
      "hit": false,
      "t": 149999.92500000203,
      "d": 209.5069375000021,
      "v": 100
    },
    {
      "midi": 50,
      "hit": false,
      "t": 150211.19250000204,
      "d": 209.5069375000021,
      "v": 100
    },
    {
      "midi": 67,
      "hit": false,
      "t": 150422.46000000052,
      "d": 420.7744374999893,
      "v": 100
    },
    {
      "midi": 76,
      "hit": false,
      "t": 150422.46000000052,
      "d": 420.7744374999893,
      "v": 100
    },
    {
      "midi": 38,
      "hit": false,
      "t": 150422.46000000206,
      "d": 209.5069375000021,
      "v": 100
    },
    {
      "midi": 38,
      "hit": false,
      "t": 150633.72750000207,
      "d": 209.5069375000021,
      "v": 100
    },
    {
      "midi": 69,
      "hit": false,
      "t": 150844.99500000052,
      "d": 209.5069375000021,
      "v": 100
    },
    {
      "midi": 78,
      "hit": false,
      "t": 150844.99500000052,
      "d": 209.5069375000021,
      "v": 100
    },
    {
      "midi": 38,
      "hit": false,
      "t": 150844.9950000021,
      "d": 209.5069375000021,
      "v": 100
    },
    {
      "midi": 66,
      "hit": false,
      "t": 151056.26250000054,
      "d": 632.0419375000056,
      "v": 100
    },
    {
      "midi": 74,
      "hit": false,
      "t": 151056.26250000054,
      "d": 632.0419375000056,
      "v": 100
    },
    {
      "midi": 38,
      "hit": false,
      "t": 151056.2625000021,
      "d": 209.5069375000021,
      "v": 100
    },
    {
      "midi": 38,
      "hit": false,
      "t": 151267.53000000212,
      "d": 209.5069375000021,
      "v": 100
    },
    {
      "midi": 38,
      "hit": false,
      "t": 151478.79750000214,
      "d": 209.5069375000021,
      "v": 100
    },
    {
      "midi": 39,
      "hit": false,
      "t": 151690.06500000216,
      "d": 209.5069375000021,
      "v": 100
    },
    {
      "midi": 39,
      "hit": false,
      "t": 151901.33250000217,
      "d": 209.5069375000021,
      "v": 100
    },
    {
      "midi": 40,
      "hit": false,
      "t": 152112.6000000022,
      "d": 209.5069375000021,
      "v": 100
    },
    {
      "midi": 40,
      "hit": false,
      "t": 152323.8675000022,
      "d": 209.5069375000021,
      "v": 100
    },
    {
      "midi": 55,
      "hit": false,
      "t": 152535.13500000053,
      "d": 420.7744374999893,
      "v": 100
    },
    {
      "midi": 59,
      "hit": false,
      "t": 152535.13500000053,
      "d": 420.7744374999893,
      "v": 100
    },
    {
      "midi": 64,
      "hit": false,
      "t": 152535.13500000053,
      "d": 420.7744374999893,
      "v": 100
    },
    {
      "midi": 40,
      "hit": false,
      "t": 152535.13500000222,
      "d": 209.5069375000021,
      "v": 100
    },
    {
      "midi": 40,
      "hit": false,
      "t": 152746.40250000224,
      "d": 209.5069375000021,
      "v": 100
    },
    {
      "midi": 55,
      "hit": false,
      "t": 152957.67000000054,
      "d": 420.7744374999893,
      "v": 100
    },
    {
      "midi": 59,
      "hit": false,
      "t": 152957.67000000054,
      "d": 420.7744374999893,
      "v": 100
    },
    {
      "midi": 64,
      "hit": false,
      "t": 152957.67000000054,
      "d": 420.7744374999893,
      "v": 100
    },
    {
      "midi": 40,
      "hit": false,
      "t": 152957.67000000225,
      "d": 209.5069375000021,
      "v": 100
    },
    {
      "midi": 40,
      "hit": false,
      "t": 153168.93750000227,
      "d": 209.5069375000021,
      "v": 100
    },
    {
      "midi": 66,
      "hit": false,
      "t": 153380.20500000054,
      "d": 209.5069375000021,
      "v": 100
    },
    {
      "midi": 40,
      "hit": false,
      "t": 153380.2050000023,
      "d": 209.5069375000021,
      "v": 100
    },
    {
      "midi": 59,
      "hit": false,
      "t": 153591.47250000056,
      "d": 420.7744374999893,
      "v": 100
    },
    {
      "midi": 64,
      "hit": false,
      "t": 153591.47250000056,
      "d": 420.7744374999893,
      "v": 100
    },
    {
      "midi": 67,
      "hit": false,
      "t": 153591.47250000056,
      "d": 420.7744374999893,
      "v": 100
    },
    {
      "midi": 40,
      "hit": false,
      "t": 153591.4725000023,
      "d": 209.5069375000021,
      "v": 100
    },
    {
      "midi": 40,
      "hit": false,
      "t": 153802.74000000232,
      "d": 209.5069375000021,
      "v": 100
    },
    {
      "midi": 67,
      "hit": false,
      "t": 154014.00750000056,
      "d": 209.5069375000021,
      "v": 100
    },
    {
      "midi": 40,
      "hit": false,
      "t": 154014.00750000234,
      "d": 209.5069375000021,
      "v": 100
    },
    {
      "midi": 66,
      "hit": false,
      "t": 154225.27500000058,
      "d": 209.5069375000021,
      "v": 100
    },
    {
      "midi": 40,
      "hit": false,
      "t": 154225.27500000235,
      "d": 209.5069375000021,
      "v": 100
    },
    {
      "midi": 66,
      "hit": false,
      "t": 154436.5425000006,
      "d": 209.5069375000021,
      "v": 100
    },
    {
      "midi": 40,
      "hit": false,
      "t": 154436.54250000237,
      "d": 209.5069375000021,
      "v": 100
    },
    {
      "midi": 64,
      "hit": false,
      "t": 154647.8100000006,
      "d": 420.7744374999893,
      "v": 100
    },
    {
      "midi": 43,
      "hit": false,
      "t": 154647.81000000238,
      "d": 209.5069375000021,
      "v": 100
    },
    {
      "midi": 43,
      "hit": false,
      "t": 154859.0775000024,
      "d": 209.5069375000021,
      "v": 100
    },
    {
      "midi": 62,
      "hit": false,
      "t": 155070.3450000006,
      "d": 420.7744374999893,
      "v": 100
    },
    {
      "midi": 47,
      "hit": false,
      "t": 155070.34500000242,
      "d": 209.5069375000021,
      "v": 100
    },
    {
      "midi": 47,
      "hit": false,
      "t": 155281.61250000243,
      "d": 209.5069375000021,
      "v": 100
    },
    {
      "midi": 66,
      "hit": false,
      "t": 155492.88000000062,
      "d": 632.0419375000056,
      "v": 100
    },
    {
      "midi": 45,
      "hit": false,
      "t": 155492.88000000245,
      "d": 209.5069375000021,
      "v": 100
    },
    {
      "midi": 45,
      "hit": false,
      "t": 155704.14750000247,
      "d": 209.5069375000021,
      "v": 100
    },
    {
      "midi": 45,
      "hit": false,
      "t": 155915.41500000248,
      "d": 209.5069375000021,
      "v": 100
    },
    {
      "midi": 57,
      "hit": false,
      "t": 156126.68250000064,
      "d": 1054.576937500009,
      "v": 100
    },
    {
      "midi": 61,
      "hit": false,
      "t": 156126.68250000064,
      "d": 1054.576937500009,
      "v": 100
    },
    {
      "midi": 64,
      "hit": false,
      "t": 156126.68250000064,
      "d": 1054.576937500009,
      "v": 100
    },
    {
      "midi": 45,
      "hit": false,
      "t": 156126.6825000025,
      "d": 209.5069375000021,
      "v": 100
    },
    {
      "midi": 45,
      "hit": false,
      "t": 156337.95000000251,
      "d": 209.5069375000021,
      "v": 100
    },
    {
      "midi": 45,
      "hit": false,
      "t": 156549.21750000253,
      "d": 209.5069375000021,
      "v": 100
    },
    {
      "midi": 45,
      "hit": false,
      "t": 156760.48500000255,
      "d": 209.5069375000021,
      "v": 100
    },
    {
      "midi": 45,
      "hit": false,
      "t": 156971.75250000256,
      "d": 209.5069375000021,
      "v": 100
    },
    {
      "midi": 59,
      "hit": false,
      "t": 157183.02000000066,
      "d": 420.7744374999893,
      "v": 100
    },
    {
      "midi": 62,
      "hit": false,
      "t": 157183.02000000066,
      "d": 420.7744374999893,
      "v": 100
    },
    {
      "midi": 67,
      "hit": false,
      "t": 157183.02000000066,
      "d": 420.7744374999893,
      "v": 100
    },
    {
      "midi": 43,
      "hit": false,
      "t": 157183.02000000258,
      "d": 209.5069375000021,
      "v": 100
    },
    {
      "midi": 43,
      "hit": false,
      "t": 157394.2875000026,
      "d": 209.5069375000021,
      "v": 100
    },
    {
      "midi": 43,
      "hit": false,
      "t": 157605.5550000026,
      "d": 209.5069375000021,
      "v": 100
    },
    {
      "midi": 43,
      "hit": false,
      "t": 157816.82250000263,
      "d": 209.5069375000021,
      "v": 100
    },
    {
      "midi": 61,
      "hit": false,
      "t": 158028.09000000064,
      "d": 843.3094374999928,
      "v": 100
    },
    {
      "midi": 64,
      "hit": false,
      "t": 158028.09000000064,
      "d": 843.3094374999928,
      "v": 100
    },
    {
      "midi": 69,
      "hit": false,
      "t": 158028.09000000064,
      "d": 843.3094374999928,
      "v": 100
    },
    {
      "midi": 45,
      "hit": false,
      "t": 158028.09000000264,
      "d": 209.5069375000021,
      "v": 100
    },
    {
      "midi": 45,
      "hit": false,
      "t": 158239.35750000266,
      "d": 209.5069375000021,
      "v": 100
    },
    {
      "midi": 45,
      "hit": false,
      "t": 158450.62500000268,
      "d": 209.5069375000021,
      "v": 100
    },
    {
      "midi": 45,
      "hit": false,
      "t": 158661.8925000027,
      "d": 209.5069375000021,
      "v": 100
    },
    {
      "midi": 66,
      "hit": false,
      "t": 158873.16000000064,
      "d": 1265.8444374999963,
      "v": 100
    },
    {
      "midi": 69,
      "hit": false,
      "t": 158873.16000000064,
      "d": 1265.8444374999963,
      "v": 100
    },
    {
      "midi": 50,
      "hit": false,
      "t": 158873.1600000027,
      "d": 209.5069375000021,
      "v": 100
    },
    {
      "midi": 50,
      "hit": false,
      "t": 159084.42750000273,
      "d": 209.5069375000021,
      "v": 100
    },
    {
      "midi": 50,
      "hit": false,
      "t": 159295.69500000274,
      "d": 209.5069375000021,
      "v": 100
    },
    {
      "midi": 50,
      "hit": false,
      "t": 159506.96250000276,
      "d": 209.5069375000021,
      "v": 100
    },
    {
      "midi": 50,
      "hit": false,
      "t": 159718.23000000278,
      "d": 209.5069375000021,
      "v": 100
    },
    {
      "midi": 50,
      "hit": false,
      "t": 159929.4975000028,
      "d": 209.5069375000021,
      "v": 100
    },
    {
      "midi": 62,
      "hit": false,
      "t": 160140.76500000065,
      "d": 209.5069375000021,
      "v": 100
    },
    {
      "midi": 66,
      "hit": false,
      "t": 160140.76500000065,
      "d": 209.5069375000021,
      "v": 100
    },
    {
      "midi": 50,
      "hit": false,
      "t": 160140.7650000028,
      "d": 209.5069375000021,
      "v": 100
    },
    {
      "midi": 64,
      "hit": false,
      "t": 160352.03250000067,
      "d": 209.5069375000021,
      "v": 100
    },
    {
      "midi": 67,
      "hit": false,
      "t": 160352.03250000067,
      "d": 209.5069375000021,
      "v": 100
    },
    {
      "midi": 50,
      "hit": false,
      "t": 160352.03250000282,
      "d": 209.5069375000021,
      "v": 100
    },
    {
      "midi": 66,
      "hit": false,
      "t": 160563.3000000007,
      "d": 420.7744374999893,
      "v": 100
    },
    {
      "midi": 69,
      "hit": false,
      "t": 160563.3000000007,
      "d": 420.7744374999893,
      "v": 100
    },
    {
      "midi": 50,
      "hit": false,
      "t": 160563.30000000284,
      "d": 209.5069375000021,
      "v": 100
    },
    {
      "midi": 50,
      "hit": false,
      "t": 160774.56750000286,
      "d": 209.5069375000021,
      "v": 100
    },
    {
      "midi": 62,
      "hit": false,
      "t": 160985.8350000007,
      "d": 209.5069375000021,
      "v": 100
    },
    {
      "midi": 66,
      "hit": false,
      "t": 160985.8350000007,
      "d": 209.5069375000021,
      "v": 100
    },
    {
      "midi": 42,
      "hit": false,
      "t": 160985.83500000287,
      "d": 209.5069375000021,
      "v": 100
    },
    {
      "midi": 64,
      "hit": false,
      "t": 161197.1025000007,
      "d": 209.5069375000021,
      "v": 100
    },
    {
      "midi": 67,
      "hit": false,
      "t": 161197.1025000007,
      "d": 209.5069375000021,
      "v": 100
    },
    {
      "midi": 42,
      "hit": false,
      "t": 161197.1025000029,
      "d": 209.5069375000021,
      "v": 100
    },
    {
      "midi": 66,
      "hit": false,
      "t": 161408.37000000072,
      "d": 420.7744374999893,
      "v": 100
    },
    {
      "midi": 69,
      "hit": false,
      "t": 161408.37000000072,
      "d": 420.7744374999893,
      "v": 100
    },
    {
      "midi": 45,
      "hit": false,
      "t": 161408.3700000029,
      "d": 209.5069375000021,
      "v": 100
    },
    {
      "midi": 45,
      "hit": false,
      "t": 161619.63750000292,
      "d": 209.5069375000021,
      "v": 100
    },
    {
      "midi": 61,
      "hit": false,
      "t": 161830.90500000073,
      "d": 209.5069375000021,
      "v": 100
    },
    {
      "midi": 66,
      "hit": false,
      "t": 161830.90500000073,
      "d": 209.5069375000021,
      "v": 100
    },
    {
      "midi": 69,
      "hit": false,
      "t": 161830.90500000073,
      "d": 209.5069375000021,
      "v": 100
    },
    {
      "midi": 50,
      "hit": false,
      "t": 161830.90500000294,
      "d": 209.5069375000021,
      "v": 100
    },
    {
      "midi": 61,
      "hit": false,
      "t": 162042.17250000074,
      "d": 632.0419375000056,
      "v": 100
    },
    {
      "midi": 66,
      "hit": false,
      "t": 162042.17250000074,
      "d": 632.0419375000056,
      "v": 100
    },
    {
      "midi": 69,
      "hit": false,
      "t": 162042.17250000074,
      "d": 632.0419375000056,
      "v": 100
    },
    {
      "midi": 50,
      "hit": false,
      "t": 162042.17250000295,
      "d": 209.5069375000021,
      "v": 100
    },
    {
      "midi": 43,
      "hit": false,
      "t": 162253.44000000297,
      "d": 209.5069375000021,
      "v": 100
    },
    {
      "midi": 43,
      "hit": false,
      "t": 162464.707500003,
      "d": 209.5069375000021,
      "v": 100
    },
    {
      "midi": 67,
      "hit": false,
      "t": 162675.97500000076,
      "d": 209.5069375000021,
      "v": 100
    },
    {
      "midi": 71,
      "hit": false,
      "t": 162675.97500000076,
      "d": 209.5069375000021,
      "v": 100
    },
    {
      "midi": 43,
      "hit": false,
      "t": 162675.975000003,
      "d": 209.5069375000021,
      "v": 100
    },
    {
      "midi": 64,
      "hit": false,
      "t": 162887.24250000078,
      "d": 420.7744374999893,
      "v": 100
    },
    {
      "midi": 67,
      "hit": false,
      "t": 162887.24250000078,
      "d": 420.7744374999893,
      "v": 100
    },
    {
      "midi": 43,
      "hit": false,
      "t": 162887.24250000302,
      "d": 209.5069375000021,
      "v": 100
    },
    {
      "midi": 43,
      "hit": false,
      "t": 163098.51000000304,
      "d": 209.5069375000021,
      "v": 100
    },
    {
      "midi": 62,
      "hit": false,
      "t": 163309.77750000078,
      "d": 209.5069375000021,
      "v": 100
    },
    {
      "midi": 66,
      "hit": false,
      "t": 163309.77750000078,
      "d": 209.5069375000021,
      "v": 100
    },
    {
      "midi": 43,
      "hit": false,
      "t": 163309.77750000305,
      "d": 209.5069375000021,
      "v": 100
    },
    {
      "midi": 62,
      "hit": false,
      "t": 163521.0450000008,
      "d": 209.5069375000021,
      "v": 100
    },
    {
      "midi": 66,
      "hit": false,
      "t": 163521.0450000008,
      "d": 209.5069375000021,
      "v": 100
    },
    {
      "midi": 43,
      "hit": false,
      "t": 163521.04500000307,
      "d": 209.5069375000021,
      "v": 100
    },
    {
      "midi": 64,
      "hit": false,
      "t": 163732.31250000081,
      "d": 1054.576937500009,
      "v": 100
    },
    {
      "midi": 67,
      "hit": false,
      "t": 163732.31250000081,
      "d": 1054.576937500009,
      "v": 100
    },
    {
      "midi": 43,
      "hit": false,
      "t": 163732.31250000309,
      "d": 209.5069375000021,
      "v": 100
    },
    {
      "midi": 43,
      "hit": false,
      "t": 163943.5800000031,
      "d": 209.5069375000021,
      "v": 100
    },
    {
      "midi": 43,
      "hit": false,
      "t": 164154.84750000312,
      "d": 209.5069375000021,
      "v": 100
    },
    {
      "midi": 45,
      "hit": false,
      "t": 164366.11500000313,
      "d": 209.5069375000021,
      "v": 100
    },
    {
      "midi": 43,
      "hit": false,
      "t": 164577.38250000315,
      "d": 209.5069375000021,
      "v": 100
    },
    {
      "midi": 57,
      "hit": false,
      "t": 164788.65000000084,
      "d": 420.7744374999893,
      "v": 100
    },
    {
      "midi": 62,
      "hit": false,
      "t": 164788.65000000084,
      "d": 420.7744374999893,
      "v": 100
    },
    {
      "midi": 42,
      "hit": false,
      "t": 164788.65000000317,
      "d": 209.5069375000021,
      "v": 100
    },
    {
      "midi": 42,
      "hit": false,
      "t": 164999.91750000318,
      "d": 209.5069375000021,
      "v": 100
    },
    {
      "midi": 66,
      "hit": false,
      "t": 165211.18500000084,
      "d": 420.7744374999893,
      "v": 100
    },
    {
      "midi": 42,
      "hit": false,
      "t": 165211.1850000032,
      "d": 209.5069375000021,
      "v": 100
    },
    {
      "midi": 42,
      "hit": false,
      "t": 165422.45250000322,
      "d": 209.5069375000021,
      "v": 100
    },
    {
      "midi": 59,
      "hit": false,
      "t": 165633.72000000085,
      "d": 1265.8444374999963,
      "v": 100
    },
    {
      "midi": 64,
      "hit": false,
      "t": 165633.72000000085,
      "d": 1265.8444374999963,
      "v": 100
    },
    {
      "midi": 67,
      "hit": false,
      "t": 165633.72000000085,
      "d": 1265.8444374999963,
      "v": 100
    },
    {
      "midi": 40,
      "hit": false,
      "t": 165633.72000000323,
      "d": 209.5069375000021,
      "v": 100
    },
    {
      "midi": 40,
      "hit": false,
      "t": 165844.98750000325,
      "d": 209.5069375000021,
      "v": 100
    },
    {
      "midi": 40,
      "hit": false,
      "t": 166056.25500000326,
      "d": 209.5069375000021,
      "v": 100
    },
    {
      "midi": 40,
      "hit": false,
      "t": 166267.52250000328,
      "d": 209.5069375000021,
      "v": 100
    },
    {
      "midi": 40,
      "hit": false,
      "t": 166478.7900000033,
      "d": 209.5069375000021,
      "v": 100
    },
    {
      "midi": 40,
      "hit": false,
      "t": 166690.0575000033,
      "d": 209.5069375000021,
      "v": 100
    },
    {
      "midi": 59,
      "hit": false,
      "t": 166901.32500000086,
      "d": 209.5069375000021,
      "v": 100
    },
    {
      "midi": 64,
      "hit": false,
      "t": 166901.32500000086,
      "d": 209.5069375000021,
      "v": 100
    },
    {
      "midi": 40,
      "hit": false,
      "t": 166901.32500000333,
      "d": 209.5069375000021,
      "v": 100
    },
    {
      "midi": 62,
      "hit": false,
      "t": 167112.59250000087,
      "d": 209.5069375000021,
      "v": 100
    },
    {
      "midi": 66,
      "hit": false,
      "t": 167112.59250000087,
      "d": 209.5069375000021,
      "v": 100
    },
    {
      "midi": 40,
      "hit": false,
      "t": 167112.59250000335,
      "d": 209.5069375000021,
      "v": 100
    },
    {
      "midi": 59,
      "hit": false,
      "t": 167323.8600000009,
      "d": 420.7744374999893,
      "v": 100
    },
    {
      "midi": 64,
      "hit": false,
      "t": 167323.8600000009,
      "d": 420.7744374999893,
      "v": 100
    },
    {
      "midi": 67,
      "hit": false,
      "t": 167323.8600000009,
      "d": 420.7744374999893,
      "v": 100
    },
    {
      "midi": 40,
      "hit": false,
      "t": 167323.86000000336,
      "d": 209.5069375000021,
      "v": 100
    },
    {
      "midi": 40,
      "hit": false,
      "t": 167535.12750000338,
      "d": 209.5069375000021,
      "v": 100
    },
    {
      "midi": 59,
      "hit": false,
      "t": 167746.3950000009,
      "d": 209.5069375000021,
      "v": 100
    },
    {
      "midi": 64,
      "hit": false,
      "t": 167746.3950000009,
      "d": 209.5069375000021,
      "v": 100
    },
    {
      "midi": 40,
      "hit": false,
      "t": 167746.3950000034,
      "d": 209.5069375000021,
      "v": 100
    },
    {
      "midi": 62,
      "hit": false,
      "t": 167957.6625000009,
      "d": 209.5069375000021,
      "v": 100
    },
    {
      "midi": 66,
      "hit": false,
      "t": 167957.6625000009,
      "d": 209.5069375000021,
      "v": 100
    },
    {
      "midi": 40,
      "hit": false,
      "t": 167957.6625000034,
      "d": 209.5069375000021,
      "v": 100
    },
    {
      "midi": 64,
      "hit": false,
      "t": 168168.93000000092,
      "d": 420.7744374999893,
      "v": 100
    },
    {
      "midi": 67,
      "hit": false,
      "t": 168168.93000000092,
      "d": 420.7744374999893,
      "v": 100
    },
    {
      "midi": 40,
      "hit": false,
      "t": 168168.93000000343,
      "d": 209.5069375000021,
      "v": 100
    },
    {
      "midi": 40,
      "hit": false,
      "t": 168380.19750000344,
      "d": 209.5069375000021,
      "v": 100
    },
    {
      "midi": 64,
      "hit": false,
      "t": 168591.46500000093,
      "d": 209.5069375000021,
      "v": 100
    },
    {
      "midi": 67,
      "hit": false,
      "t": 168591.46500000093,
      "d": 209.5069375000021,
      "v": 100
    },
    {
      "midi": 40,
      "hit": false,
      "t": 168591.46500000346,
      "d": 209.5069375000021,
      "v": 100
    },
    {
      "midi": 64,
      "hit": false,
      "t": 168802.73250000094,
      "d": 209.5069375000021,
      "v": 100
    },
    {
      "midi": 67,
      "hit": false,
      "t": 168802.73250000094,
      "d": 209.5069375000021,
      "v": 100
    },
    {
      "midi": 40,
      "hit": false,
      "t": 168802.73250000348,
      "d": 209.5069375000021,
      "v": 100
    },
    {
      "midi": 64,
      "hit": false,
      "t": 169014.00000000096,
      "d": 420.7744374999893,
      "v": 100
    },
    {
      "midi": 67,
      "hit": false,
      "t": 169014.00000000096,
      "d": 420.7744374999893,
      "v": 100
    },
    {
      "midi": 38,
      "hit": false,
      "t": 169014.0000000035,
      "d": 209.5069375000021,
      "v": 100
    },
    {
      "midi": 38,
      "hit": false,
      "t": 169225.2675000035,
      "d": 209.5069375000021,
      "v": 100
    },
    {
      "midi": 66,
      "hit": false,
      "t": 169436.53500000096,
      "d": 209.5069375000021,
      "v": 100
    },
    {
      "midi": 69,
      "hit": false,
      "t": 169436.53500000096,
      "d": 209.5069375000021,
      "v": 100
    },
    {
      "midi": 38,
      "hit": false,
      "t": 169436.53500000353,
      "d": 209.5069375000021,
      "v": 100
    },
    {
      "midi": 62,
      "hit": false,
      "t": 169647.80250000098,
      "d": 420.7744374999893,
      "v": 100
    },
    {
      "midi": 66,
      "hit": false,
      "t": 169647.80250000098,
      "d": 420.7744374999893,
      "v": 100
    },
    {
      "midi": 38,
      "hit": false,
      "t": 169647.80250000354,
      "d": 209.5069375000021,
      "v": 100
    },
    {
      "midi": 38,
      "hit": false,
      "t": 169859.07000000356,
      "d": 209.5069375000021,
      "v": 100
    },
    {
      "midi": 61,
      "hit": false,
      "t": 170070.33750000098,
      "d": 209.5069375000021,
      "v": 100
    },
    {
      "midi": 64,
      "hit": false,
      "t": 170070.33750000098,
      "d": 209.5069375000021,
      "v": 100
    },
    {
      "midi": 38,
      "hit": false,
      "t": 170070.33750000357,
      "d": 209.5069375000021,
      "v": 100
    },
    {
      "midi": 61,
      "hit": false,
      "t": 170281.605000001,
      "d": 209.5069375000021,
      "v": 100
    },
    {
      "midi": 64,
      "hit": false,
      "t": 170281.605000001,
      "d": 209.5069375000021,
      "v": 100
    },
    {
      "midi": 38,
      "hit": false,
      "t": 170281.6050000036,
      "d": 209.5069375000021,
      "v": 100
    },
    {
      "midi": 62,
      "hit": false,
      "t": 170492.87250000102,
      "d": 1477.1119375000126,
      "v": 100
    },
    {
      "midi": 66,
      "hit": false,
      "t": 170492.87250000102,
      "d": 1477.1119375000126,
      "v": 100
    },
    {
      "midi": 38,
      "hit": false,
      "t": 170492.8725000036,
      "d": 209.5069375000021,
      "v": 100
    },
    {
      "midi": 38,
      "hit": false,
      "t": 170704.14000000362,
      "d": 209.5069375000021,
      "v": 100
    },
    {
      "midi": 38,
      "hit": false,
      "t": 170915.40750000364,
      "d": 209.5069375000021,
      "v": 100
    },
    {
      "midi": 50,
      "hit": false,
      "t": 171126.67500000366,
      "d": 209.5069375000021,
      "v": 100
    },
    {
      "midi": 50,
      "hit": false,
      "t": 171337.94250000367,
      "d": 209.5069375000021,
      "v": 100
    },
    {
      "midi": 49,
      "hit": false,
      "t": 171549.2100000037,
      "d": 209.5069375000021,
      "v": 100
    },
    {
      "midi": 49,
      "hit": false,
      "t": 171760.4775000037,
      "d": 209.5069375000021,
      "v": 100
    },
    {
      "midi": 49,
      "hit": false,
      "t": 171971.74500000372,
      "d": 209.5069375000021,
      "v": 100
    },
    {
      "midi": 49,
      "hit": false,
      "t": 172183.01250000374,
      "d": 209.5069375000021,
      "v": 100
    },
    {
      "midi": 62,
      "hit": false,
      "t": 172394.28000000102,
      "d": 420.7744374999893,
      "v": 100
    },
    {
      "midi": 47,
      "hit": false,
      "t": 172394.28000000375,
      "d": 209.5069375000021,
      "v": 100
    },
    {
      "midi": 47,
      "hit": false,
      "t": 172605.54750000377,
      "d": 209.5069375000021,
      "v": 100
    },
    {
      "midi": 64,
      "hit": false,
      "t": 172816.81500000102,
      "d": 420.7744374999893,
      "v": 100
    },
    {
      "midi": 47,
      "hit": false,
      "t": 172816.8150000038,
      "d": 209.5069375000021,
      "v": 100
    },
    {
      "midi": 47,
      "hit": false,
      "t": 173028.0825000038,
      "d": 209.5069375000021,
      "v": 100
    },
    {
      "midi": 62,
      "hit": false,
      "t": 173239.35000000102,
      "d": 420.7744374999893,
      "v": 100
    },
    {
      "midi": 66,
      "hit": false,
      "t": 173239.35000000102,
      "d": 420.7744374999893,
      "v": 100
    },
    {
      "midi": 47,
      "hit": false,
      "t": 173239.35000000382,
      "d": 209.5069375000021,
      "v": 100
    },
    {
      "midi": 47,
      "hit": false,
      "t": 173450.61750000383,
      "d": 209.5069375000021,
      "v": 100
    },
    {
      "midi": 66,
      "hit": false,
      "t": 173661.88500000103,
      "d": 420.7744374999893,
      "v": 100
    },
    {
      "midi": 71,
      "hit": false,
      "t": 173661.88500000103,
      "d": 420.7744374999893,
      "v": 100
    },
    {
      "midi": 74,
      "hit": false,
      "t": 173661.88500000103,
      "d": 420.7744374999893,
      "v": 100
    },
    {
      "midi": 47,
      "hit": false,
      "t": 173661.88500000385,
      "d": 209.5069375000021,
      "v": 100
    },
    {
      "midi": 47,
      "hit": false,
      "t": 173873.15250000387,
      "d": 209.5069375000021,
      "v": 100
    },
    {
      "midi": 64,
      "hit": false,
      "t": 174084.42000000103,
      "d": 632.0419375000056,
      "v": 100
    },
    {
      "midi": 69,
      "hit": false,
      "t": 174084.42000000103,
      "d": 632.0419375000056,
      "v": 100
    },
    {
      "midi": 73,
      "hit": false,
      "t": 174084.42000000103,
      "d": 632.0419375000056,
      "v": 100
    },
    {
      "midi": 42,
      "hit": false,
      "t": 174084.42000000388,
      "d": 209.5069375000021,
      "v": 100
    },
    {
      "midi": 42,
      "hit": false,
      "t": 174295.6875000039,
      "d": 209.5069375000021,
      "v": 100
    },
    {
      "midi": 42,
      "hit": false,
      "t": 174506.95500000392,
      "d": 209.5069375000021,
      "v": 100
    },
    {
      "midi": 64,
      "hit": false,
      "t": 174718.22250000105,
      "d": 209.5069375000021,
      "v": 100
    },
    {
      "midi": 69,
      "hit": false,
      "t": 174718.22250000105,
      "d": 209.5069375000021,
      "v": 100
    },
    {
      "midi": 42,
      "hit": false,
      "t": 174718.22250000393,
      "d": 209.5069375000021,
      "v": 100
    },
    {
      "midi": 64,
      "hit": false,
      "t": 174929.49000000107,
      "d": 420.7744374999893,
      "v": 100
    },
    {
      "midi": 69,
      "hit": false,
      "t": 174929.49000000107,
      "d": 420.7744374999893,
      "v": 100
    },
    {
      "midi": 42,
      "hit": false,
      "t": 174929.49000000395,
      "d": 209.5069375000021,
      "v": 100
    },
    {
      "midi": 42,
      "hit": false,
      "t": 175140.75750000397,
      "d": 209.5069375000021,
      "v": 100
    },
    {
      "midi": 42,
      "hit": false,
      "t": 175352.02500000398,
      "d": 209.5069375000021,
      "v": 100
    },
    {
      "midi": 42,
      "hit": false,
      "t": 175563.292500004,
      "d": 209.5069375000021,
      "v": 100
    },
    {
      "midi": 62,
      "hit": false,
      "t": 175774.56000000105,
      "d": 420.7744374999893,
      "v": 100
    },
    {
      "midi": 67,
      "hit": false,
      "t": 175774.56000000105,
      "d": 420.7744374999893,
      "v": 100
    },
    {
      "midi": 71,
      "hit": false,
      "t": 175774.56000000105,
      "d": 420.7744374999893,
      "v": 100
    },
    {
      "midi": 43,
      "hit": false,
      "t": 175774.560000004,
      "d": 209.5069375000021,
      "v": 100
    },
    {
      "midi": 43,
      "hit": false,
      "t": 175985.82750000403,
      "d": 209.5069375000021,
      "v": 100
    },
    {
      "midi": 69,
      "hit": false,
      "t": 176197.09500000105,
      "d": 420.7744374999893,
      "v": 100
    },
    {
      "midi": 43,
      "hit": false,
      "t": 176197.09500000405,
      "d": 209.5069375000021,
      "v": 100
    },
    {
      "midi": 43,
      "hit": false,
      "t": 176408.36250000406,
      "d": 209.5069375000021,
      "v": 100
    },
    {
      "midi": 67,
      "hit": false,
      "t": 176619.63000000105,
      "d": 420.7744374999893,
      "v": 100
    },
    {
      "midi": 43,
      "hit": false,
      "t": 176619.63000000408,
      "d": 209.5069375000021,
      "v": 100
    },
    {
      "midi": 43,
      "hit": false,
      "t": 176830.8975000041,
      "d": 209.5069375000021,
      "v": 100
    },
    {
      "midi": 71,
      "hit": false,
      "t": 177042.16500000106,
      "d": 209.5069375000021,
      "v": 100
    },
    {
      "midi": 47,
      "hit": false,
      "t": 177042.1650000041,
      "d": 209.5069375000021,
      "v": 100
    },
    {
      "midi": 62,
      "hit": false,
      "t": 177253.43250000107,
      "d": 1477.1119375000126,
      "v": 100
    },
    {
      "midi": 66,
      "hit": false,
      "t": 177253.43250000107,
      "d": 1477.1119375000126,
      "v": 100
    },
    {
      "midi": 69,
      "hit": false,
      "t": 177253.43250000107,
      "d": 1477.1119375000126,
      "v": 100
    },
    {
      "midi": 50,
      "hit": false,
      "t": 177253.43250000413,
      "d": 420.7744374999893,
      "v": 100
    },
    {
      "midi": 50,
      "hit": false,
      "t": 177675.96750000413,
      "d": 209.5069375000021,
      "v": 100
    },
    {
      "midi": 50,
      "hit": false,
      "t": 177887.23500000415,
      "d": 209.5069375000021,
      "v": 100
    },
    {
      "midi": 50,
      "hit": false,
      "t": 178098.50250000416,
      "d": 209.5069375000021,
      "v": 100
    },
    {
      "midi": 50,
      "hit": false,
      "t": 178309.77000000418,
      "d": 209.5069375000021,
      "v": 100
    },
    {
      "midi": 50,
      "hit": false,
      "t": 178521.0375000042,
      "d": 209.5069375000021,
      "v": 100
    },
    {
      "midi": 50,
      "hit": false,
      "t": 178732.3050000042,
      "d": 209.5069375000021,
      "v": 100
    },
    {
      "midi": 50,
      "hit": false,
      "t": 178943.57250000423,
      "d": 209.5069375000021,
      "v": 100
    },
    {
      "midi": 59,
      "hit": false,
      "t": 179154.84000000003,
      "d": 1688.3794374999998,
      "v": 100
    },
    {
      "midi": 64,
      "hit": false,
      "t": 179154.84000000003,
      "d": 1688.3794374999998,
      "v": 100
    },
    {
      "midi": 67,
      "hit": false,
      "t": 179154.84000000107,
      "d": 420.7744374999893,
      "v": 100
    },
    {
      "midi": 52,
      "hit": false,
      "t": 179154.84000000425,
      "d": 209.5069375000021,
      "v": 100
    },
    {
      "midi": 52,
      "hit": false,
      "t": 179366.10750000426,
      "d": 209.5069375000021,
      "v": 100
    },
    {
      "midi": 67,
      "hit": false,
      "t": 179577.37500000108,
      "d": 420.7744374999893,
      "v": 100
    },
    {
      "midi": 52,
      "hit": false,
      "t": 179577.37500000428,
      "d": 209.5069375000021,
      "v": 100
    },
    {
      "midi": 52,
      "hit": false,
      "t": 179788.6425000043,
      "d": 209.5069375000021,
      "v": 100
    },
    {
      "midi": 67,
      "hit": false,
      "t": 179999.91000000108,
      "d": 420.7744374999893,
      "v": 100
    },
    {
      "midi": 52,
      "hit": false,
      "t": 179999.9100000043,
      "d": 209.5069375000021,
      "v": 100
    },
    {
      "midi": 52,
      "hit": false,
      "t": 180211.17750000433,
      "d": 209.5069375000021,
      "v": 100
    },
    {
      "midi": 67,
      "hit": false,
      "t": 180422.44500000108,
      "d": 420.7744374999893,
      "v": 100
    },
    {
      "midi": 52,
      "hit": false,
      "t": 180422.44500000434,
      "d": 209.5069375000021,
      "v": 100
    },
    {
      "midi": 52,
      "hit": false,
      "t": 180633.71250000436,
      "d": 209.5069375000021,
      "v": 100
    },
    {
      "midi": 57,
      "hit": false,
      "t": 180844.9800000011,
      "d": 843.3094374999928,
      "v": 100
    },
    {
      "midi": 62,
      "hit": false,
      "t": 180844.9800000011,
      "d": 843.3094374999928,
      "v": 100
    },
    {
      "midi": 66,
      "hit": false,
      "t": 180844.9800000011,
      "d": 843.3094374999928,
      "v": 100
    },
    {
      "midi": 45,
      "hit": false,
      "t": 180844.98000000438,
      "d": 209.5069375000021,
      "v": 100
    },
    {
      "midi": 45,
      "hit": false,
      "t": 181056.2475000044,
      "d": 209.5069375000021,
      "v": 100
    },
    {
      "midi": 45,
      "hit": false,
      "t": 181267.5150000044,
      "d": 209.5069375000021,
      "v": 100
    },
    {
      "midi": 45,
      "hit": false,
      "t": 181478.78250000442,
      "d": 209.5069375000021,
      "v": 100
    },
    {
      "midi": 57,
      "hit": false,
      "t": 181690.05000000002,
      "d": 843.3094374999928,
      "v": 100
    },
    {
      "midi": 61,
      "hit": false,
      "t": 181690.05000000002,
      "d": 843.3094374999928,
      "v": 100
    },
    {
      "midi": 64,
      "hit": false,
      "t": 181690.0500000011,
      "d": 632.0419375000056,
      "v": 100
    },
    {
      "midi": 45,
      "hit": false,
      "t": 181690.05000000444,
      "d": 209.5069375000021,
      "v": 100
    },
    {
      "midi": 45,
      "hit": false,
      "t": 181901.31750000446,
      "d": 209.5069375000021,
      "v": 100
    },
    {
      "midi": 45,
      "hit": false,
      "t": 182112.58500000447,
      "d": 209.5069375000021,
      "v": 100
    },
    {
      "midi": 62,
      "hit": false,
      "t": 182323.8525000011,
      "d": 209.5069375000021,
      "v": 100
    },
    {
      "midi": 45,
      "hit": false,
      "t": 182323.8525000045,
      "d": 209.5069375000021,
      "v": 100
    },
    {
      "midi": 66,
      "hit": false,
      "t": 182535.12000000113,
      "d": 1265.8444374999963,
      "v": 100
    },
    {
      "midi": 69,
      "hit": false,
      "t": 182535.12000000113,
      "d": 1265.8444374999963,
      "v": 100
    },
    {
      "midi": 50,
      "hit": false,
      "t": 182535.1200000045,
      "d": 209.5069375000021,
      "v": 100
    },
    {
      "midi": 50,
      "hit": false,
      "t": 182746.38750000452,
      "d": 209.5069375000021,
      "v": 100
    },
    {
      "midi": 50,
      "hit": false,
      "t": 182957.65500000454,
      "d": 209.5069375000021,
      "v": 100
    },
    {
      "midi": 50,
      "hit": false,
      "t": 183168.92250000456,
      "d": 209.5069375000021,
      "v": 100
    },
    {
      "midi": 50,
      "hit": false,
      "t": 183380.19000000457,
      "d": 209.5069375000021,
      "v": 100
    },
    {
      "midi": 50,
      "hit": false,
      "t": 183591.4575000046,
      "d": 209.5069375000021,
      "v": 100
    },
    {
      "midi": 62,
      "hit": false,
      "t": 183802.72500000114,
      "d": 209.5069375000021,
      "v": 100
    },
    {
      "midi": 66,
      "hit": false,
      "t": 183802.72500000114,
      "d": 209.5069375000021,
      "v": 100
    },
    {
      "midi": 50,
      "hit": false,
      "t": 183802.7250000046,
      "d": 209.5069375000021,
      "v": 100
    },
    {
      "midi": 64,
      "hit": false,
      "t": 184013.99250000116,
      "d": 209.5069375000021,
      "v": 100
    },
    {
      "midi": 67,
      "hit": false,
      "t": 184013.99250000116,
      "d": 209.5069375000021,
      "v": 100
    },
    {
      "midi": 50,
      "hit": false,
      "t": 184013.99250000462,
      "d": 209.5069375000021,
      "v": 100
    },
    {
      "midi": 66,
      "hit": false,
      "t": 184225.26000000117,
      "d": 420.7744374999893,
      "v": 100
    },
    {
      "midi": 69,
      "hit": false,
      "t": 184225.26000000117,
      "d": 420.7744374999893,
      "v": 100
    },
    {
      "midi": 50,
      "hit": false,
      "t": 184225.26000000464,
      "d": 209.5069375000021,
      "v": 100
    },
    {
      "midi": 50,
      "hit": false,
      "t": 184436.52750000465,
      "d": 209.5069375000021,
      "v": 100
    },
    {
      "midi": 62,
      "hit": false,
      "t": 184647.79500000118,
      "d": 209.5069375000021,
      "v": 100
    },
    {
      "midi": 66,
      "hit": false,
      "t": 184647.79500000118,
      "d": 209.5069375000021,
      "v": 100
    },
    {
      "midi": 42,
      "hit": false,
      "t": 184647.79500000467,
      "d": 209.5069375000021,
      "v": 100
    },
    {
      "midi": 64,
      "hit": false,
      "t": 184859.0625000012,
      "d": 209.5069375000021,
      "v": 100
    },
    {
      "midi": 67,
      "hit": false,
      "t": 184859.0625000012,
      "d": 209.5069375000021,
      "v": 100
    },
    {
      "midi": 42,
      "hit": false,
      "t": 184859.0625000047,
      "d": 209.5069375000021,
      "v": 100
    },
    {
      "midi": 66,
      "hit": false,
      "t": 185070.3300000012,
      "d": 420.7744374999893,
      "v": 100
    },
    {
      "midi": 69,
      "hit": false,
      "t": 185070.3300000012,
      "d": 420.7744374999893,
      "v": 100
    },
    {
      "midi": 45,
      "hit": false,
      "t": 185070.3300000047,
      "d": 209.5069375000021,
      "v": 100
    },
    {
      "midi": 45,
      "hit": false,
      "t": 185281.59750000472,
      "d": 209.5069375000021,
      "v": 100
    },
    {
      "midi": 61,
      "hit": false,
      "t": 185492.8650000012,
      "d": 209.5069375000021,
      "v": 100
    },
    {
      "midi": 66,
      "hit": false,
      "t": 185492.8650000012,
      "d": 209.5069375000021,
      "v": 100
    },
    {
      "midi": 69,
      "hit": false,
      "t": 185492.8650000012,
      "d": 209.5069375000021,
      "v": 100
    },
    {
      "midi": 50,
      "hit": false,
      "t": 185492.86500000473,
      "d": 209.5069375000021,
      "v": 100
    },
    {
      "midi": 61,
      "hit": false,
      "t": 185704.13250000123,
      "d": 632.0419375000056,
      "v": 100
    },
    {
      "midi": 66,
      "hit": false,
      "t": 185704.13250000123,
      "d": 632.0419375000056,
      "v": 100
    },
    {
      "midi": 69,
      "hit": false,
      "t": 185704.13250000123,
      "d": 632.0419375000056,
      "v": 100
    },
    {
      "midi": 50,
      "hit": false,
      "t": 185704.13250000475,
      "d": 209.5069375000021,
      "v": 100
    },
    {
      "midi": 43,
      "hit": false,
      "t": 185915.40000000477,
      "d": 209.5069375000021,
      "v": 100
    },
    {
      "midi": 43,
      "hit": false,
      "t": 186126.66750000478,
      "d": 209.5069375000021,
      "v": 100
    },
    {
      "midi": 67,
      "hit": false,
      "t": 186337.93500000125,
      "d": 209.5069375000021,
      "v": 100
    },
    {
      "midi": 71,
      "hit": false,
      "t": 186337.93500000125,
      "d": 209.5069375000021,
      "v": 100
    },
    {
      "midi": 43,
      "hit": false,
      "t": 186337.9350000048,
      "d": 209.5069375000021,
      "v": 100
    },
    {
      "midi": 64,
      "hit": false,
      "t": 186549.20250000127,
      "d": 420.7744374999893,
      "v": 100
    },
    {
      "midi": 67,
      "hit": false,
      "t": 186549.20250000127,
      "d": 420.7744374999893,
      "v": 100
    },
    {
      "midi": 43,
      "hit": false,
      "t": 186549.20250000482,
      "d": 209.5069375000021,
      "v": 100
    },
    {
      "midi": 43,
      "hit": false,
      "t": 186760.47000000483,
      "d": 209.5069375000021,
      "v": 100
    },
    {
      "midi": 62,
      "hit": false,
      "t": 186971.73750000127,
      "d": 209.5069375000021,
      "v": 100
    },
    {
      "midi": 66,
      "hit": false,
      "t": 186971.73750000127,
      "d": 209.5069375000021,
      "v": 100
    },
    {
      "midi": 43,
      "hit": false,
      "t": 186971.73750000485,
      "d": 209.5069375000021,
      "v": 100
    },
    {
      "midi": 62,
      "hit": false,
      "t": 187183.00500000129,
      "d": 209.5069375000021,
      "v": 100
    },
    {
      "midi": 66,
      "hit": false,
      "t": 187183.00500000129,
      "d": 209.5069375000021,
      "v": 100
    },
    {
      "midi": 43,
      "hit": false,
      "t": 187183.00500000486,
      "d": 209.5069375000021,
      "v": 100
    },
    {
      "midi": 64,
      "hit": false,
      "t": 187394.2725000013,
      "d": 1054.576937500009,
      "v": 100
    },
    {
      "midi": 67,
      "hit": false,
      "t": 187394.2725000013,
      "d": 1054.576937500009,
      "v": 100
    },
    {
      "midi": 43,
      "hit": false,
      "t": 187394.27250000488,
      "d": 209.5069375000021,
      "v": 100
    },
    {
      "midi": 43,
      "hit": false,
      "t": 187605.5400000049,
      "d": 209.5069375000021,
      "v": 100
    },
    {
      "midi": 43,
      "hit": false,
      "t": 187816.8075000049,
      "d": 209.5069375000021,
      "v": 100
    },
    {
      "midi": 45,
      "hit": false,
      "t": 188028.07500000493,
      "d": 209.5069375000021,
      "v": 100
    },
    {
      "midi": 43,
      "hit": false,
      "t": 188239.34250000495,
      "d": 209.5069375000021,
      "v": 100
    },
    {
      "midi": 57,
      "hit": false,
      "t": 188450.61000000132,
      "d": 420.7744374999893,
      "v": 100
    },
    {
      "midi": 62,
      "hit": false,
      "t": 188450.61000000132,
      "d": 420.7744374999893,
      "v": 100
    },
    {
      "midi": 42,
      "hit": false,
      "t": 188450.61000000496,
      "d": 209.5069375000021,
      "v": 100
    },
    {
      "midi": 42,
      "hit": false,
      "t": 188661.87750000498,
      "d": 209.5069375000021,
      "v": 100
    },
    {
      "midi": 66,
      "hit": false,
      "t": 188873.14500000133,
      "d": 420.7744374999893,
      "v": 100
    },
    {
      "midi": 42,
      "hit": false,
      "t": 188873.145000005,
      "d": 209.5069375000021,
      "v": 100
    },
    {
      "midi": 42,
      "hit": false,
      "t": 189084.412500005,
      "d": 209.5069375000021,
      "v": 100
    },
    {
      "midi": 59,
      "hit": false,
      "t": 189295.68000000133,
      "d": 1265.8444374999963,
      "v": 100
    },
    {
      "midi": 64,
      "hit": false,
      "t": 189295.68000000133,
      "d": 1265.8444374999963,
      "v": 100
    },
    {
      "midi": 67,
      "hit": false,
      "t": 189295.68000000133,
      "d": 1265.8444374999963,
      "v": 100
    },
    {
      "midi": 40,
      "hit": false,
      "t": 189295.68000000503,
      "d": 209.5069375000021,
      "v": 100
    },
    {
      "midi": 40,
      "hit": false,
      "t": 189506.94750000504,
      "d": 209.5069375000021,
      "v": 100
    },
    {
      "midi": 40,
      "hit": false,
      "t": 189718.21500000506,
      "d": 209.5069375000021,
      "v": 100
    },
    {
      "midi": 40,
      "hit": false,
      "t": 189929.48250000508,
      "d": 209.5069375000021,
      "v": 100
    },
    {
      "midi": 40,
      "hit": false,
      "t": 190140.7500000051,
      "d": 209.5069375000021,
      "v": 100
    },
    {
      "midi": 40,
      "hit": false,
      "t": 190352.0175000051,
      "d": 209.5069375000021,
      "v": 100
    },
    {
      "midi": 59,
      "hit": false,
      "t": 190563.28500000134,
      "d": 209.5069375000021,
      "v": 100
    },
    {
      "midi": 64,
      "hit": false,
      "t": 190563.28500000134,
      "d": 209.5069375000021,
      "v": 100
    },
    {
      "midi": 40,
      "hit": false,
      "t": 190563.28500000513,
      "d": 209.5069375000021,
      "v": 100
    },
    {
      "midi": 62,
      "hit": false,
      "t": 190774.55250000136,
      "d": 209.5069375000021,
      "v": 100
    },
    {
      "midi": 66,
      "hit": false,
      "t": 190774.55250000136,
      "d": 209.5069375000021,
      "v": 100
    },
    {
      "midi": 40,
      "hit": false,
      "t": 190774.55250000514,
      "d": 209.5069375000021,
      "v": 100
    },
    {
      "midi": 59,
      "hit": false,
      "t": 190985.82000000137,
      "d": 420.7744374999893,
      "v": 100
    },
    {
      "midi": 64,
      "hit": false,
      "t": 190985.82000000137,
      "d": 420.7744374999893,
      "v": 100
    },
    {
      "midi": 67,
      "hit": false,
      "t": 190985.82000000137,
      "d": 420.7744374999893,
      "v": 100
    },
    {
      "midi": 40,
      "hit": false,
      "t": 190985.82000000516,
      "d": 209.5069375000021,
      "v": 100
    },
    {
      "midi": 40,
      "hit": false,
      "t": 191197.08750000517,
      "d": 209.5069375000021,
      "v": 100
    },
    {
      "midi": 59,
      "hit": false,
      "t": 191408.35500000138,
      "d": 209.5069375000021,
      "v": 100
    },
    {
      "midi": 64,
      "hit": false,
      "t": 191408.35500000138,
      "d": 209.5069375000021,
      "v": 100
    },
    {
      "midi": 40,
      "hit": false,
      "t": 191408.3550000052,
      "d": 209.5069375000021,
      "v": 100
    },
    {
      "midi": 62,
      "hit": false,
      "t": 191619.6225000014,
      "d": 209.5069375000021,
      "v": 100
    },
    {
      "midi": 66,
      "hit": false,
      "t": 191619.6225000014,
      "d": 209.5069375000021,
      "v": 100
    },
    {
      "midi": 40,
      "hit": false,
      "t": 191619.6225000052,
      "d": 209.5069375000021,
      "v": 100
    },
    {
      "midi": 64,
      "hit": false,
      "t": 191830.8900000014,
      "d": 420.7744374999893,
      "v": 100
    },
    {
      "midi": 67,
      "hit": false,
      "t": 191830.8900000014,
      "d": 420.7744374999893,
      "v": 100
    },
    {
      "midi": 40,
      "hit": false,
      "t": 191830.89000000522,
      "d": 209.5069375000021,
      "v": 100
    },
    {
      "midi": 40,
      "hit": false,
      "t": 192042.15750000524,
      "d": 209.5069375000021,
      "v": 100
    },
    {
      "midi": 64,
      "hit": false,
      "t": 192253.4250000014,
      "d": 209.5069375000021,
      "v": 100
    },
    {
      "midi": 67,
      "hit": false,
      "t": 192253.4250000014,
      "d": 209.5069375000021,
      "v": 100
    },
    {
      "midi": 40,
      "hit": false,
      "t": 192253.42500000526,
      "d": 209.5069375000021,
      "v": 100
    },
    {
      "midi": 64,
      "hit": false,
      "t": 192464.69250000143,
      "d": 209.5069375000021,
      "v": 100
    },
    {
      "midi": 67,
      "hit": false,
      "t": 192464.69250000143,
      "d": 209.5069375000021,
      "v": 100
    },
    {
      "midi": 40,
      "hit": false,
      "t": 192464.69250000527,
      "d": 209.5069375000021,
      "v": 100
    },
    {
      "midi": 64,
      "hit": false,
      "t": 192675.96000000145,
      "d": 420.7744374999893,
      "v": 100
    },
    {
      "midi": 67,
      "hit": false,
      "t": 192675.96000000145,
      "d": 420.7744374999893,
      "v": 100
    },
    {
      "midi": 38,
      "hit": false,
      "t": 192675.9600000053,
      "d": 209.5069375000021,
      "v": 100
    },
    {
      "midi": 38,
      "hit": false,
      "t": 192887.2275000053,
      "d": 209.5069375000021,
      "v": 100
    },
    {
      "midi": 66,
      "hit": false,
      "t": 193098.49500000145,
      "d": 209.5069375000021,
      "v": 100
    },
    {
      "midi": 69,
      "hit": false,
      "t": 193098.49500000145,
      "d": 209.5069375000021,
      "v": 100
    },
    {
      "midi": 38,
      "hit": false,
      "t": 193098.49500000532,
      "d": 209.5069375000021,
      "v": 100
    },
    {
      "midi": 62,
      "hit": false,
      "t": 193309.76250000147,
      "d": 420.7744374999893,
      "v": 100
    },
    {
      "midi": 66,
      "hit": false,
      "t": 193309.76250000147,
      "d": 420.7744374999893,
      "v": 100
    },
    {
      "midi": 38,
      "hit": false,
      "t": 193309.76250000534,
      "d": 209.5069375000021,
      "v": 100
    },
    {
      "midi": 38,
      "hit": false,
      "t": 193521.03000000535,
      "d": 209.5069375000021,
      "v": 100
    },
    {
      "midi": 61,
      "hit": false,
      "t": 193732.29750000147,
      "d": 209.5069375000021,
      "v": 100
    },
    {
      "midi": 64,
      "hit": false,
      "t": 193732.29750000147,
      "d": 209.5069375000021,
      "v": 100
    },
    {
      "midi": 38,
      "hit": false,
      "t": 193732.29750000537,
      "d": 209.5069375000021,
      "v": 100
    },
    {
      "midi": 61,
      "hit": false,
      "t": 193943.5650000015,
      "d": 209.5069375000021,
      "v": 100
    },
    {
      "midi": 64,
      "hit": false,
      "t": 193943.5650000015,
      "d": 209.5069375000021,
      "v": 100
    },
    {
      "midi": 38,
      "hit": false,
      "t": 193943.5650000054,
      "d": 209.5069375000021,
      "v": 100
    },
    {
      "midi": 62,
      "hit": false,
      "t": 194154.8325000015,
      "d": 1477.1119375000126,
      "v": 100
    },
    {
      "midi": 66,
      "hit": false,
      "t": 194154.8325000015,
      "d": 1477.1119375000126,
      "v": 100
    },
    {
      "midi": 38,
      "hit": false,
      "t": 194154.8325000054,
      "d": 209.5069375000021,
      "v": 100
    },
    {
      "midi": 38,
      "hit": false,
      "t": 194366.10000000542,
      "d": 209.5069375000021,
      "v": 100
    },
    {
      "midi": 38,
      "hit": false,
      "t": 194577.36750000544,
      "d": 209.5069375000021,
      "v": 100
    },
    {
      "midi": 50,
      "hit": false,
      "t": 194788.63500000545,
      "d": 209.5069375000021,
      "v": 100
    },
    {
      "midi": 50,
      "hit": false,
      "t": 194999.90250000547,
      "d": 209.5069375000021,
      "v": 100
    },
    {
      "midi": 49,
      "hit": false,
      "t": 195211.17000000548,
      "d": 209.5069375000021,
      "v": 100
    },
    {
      "midi": 49,
      "hit": false,
      "t": 195422.4375000055,
      "d": 209.5069375000021,
      "v": 100
    },
    {
      "midi": 49,
      "hit": false,
      "t": 195633.70500000552,
      "d": 209.5069375000021,
      "v": 100
    },
    {
      "midi": 49,
      "hit": false,
      "t": 195844.97250000553,
      "d": 209.5069375000021,
      "v": 100
    },
    {
      "midi": 62,
      "hit": false,
      "t": 196056.2400000015,
      "d": 420.7744374999893,
      "v": 100
    },
    {
      "midi": 47,
      "hit": false,
      "t": 196056.24000000555,
      "d": 209.5069375000021,
      "v": 100
    },
    {
      "midi": 47,
      "hit": false,
      "t": 196267.50750000557,
      "d": 209.5069375000021,
      "v": 100
    },
    {
      "midi": 64,
      "hit": false,
      "t": 196478.7750000015,
      "d": 420.7744374999893,
      "v": 100
    },
    {
      "midi": 47,
      "hit": false,
      "t": 196478.77500000558,
      "d": 209.5069375000021,
      "v": 100
    },
    {
      "midi": 47,
      "hit": false,
      "t": 196690.0425000056,
      "d": 209.5069375000021,
      "v": 100
    },
    {
      "midi": 62,
      "hit": false,
      "t": 196901.3100000015,
      "d": 420.7744374999893,
      "v": 100
    },
    {
      "midi": 66,
      "hit": false,
      "t": 196901.3100000015,
      "d": 420.7744374999893,
      "v": 100
    },
    {
      "midi": 47,
      "hit": false,
      "t": 196901.31000000561,
      "d": 209.5069375000021,
      "v": 100
    },
    {
      "midi": 47,
      "hit": false,
      "t": 197112.57750000563,
      "d": 209.5069375000021,
      "v": 100
    },
    {
      "midi": 66,
      "hit": false,
      "t": 197323.84500000151,
      "d": 420.7744374999893,
      "v": 100
    },
    {
      "midi": 71,
      "hit": false,
      "t": 197323.84500000151,
      "d": 420.7744374999893,
      "v": 100
    },
    {
      "midi": 74,
      "hit": false,
      "t": 197323.84500000151,
      "d": 420.7744374999893,
      "v": 100
    },
    {
      "midi": 47,
      "hit": false,
      "t": 197323.84500000565,
      "d": 209.5069375000021,
      "v": 100
    },
    {
      "midi": 47,
      "hit": false,
      "t": 197535.11250000566,
      "d": 209.5069375000021,
      "v": 100
    },
    {
      "midi": 64,
      "hit": false,
      "t": 197746.38000000152,
      "d": 632.0419375000056,
      "v": 100
    },
    {
      "midi": 69,
      "hit": false,
      "t": 197746.38000000152,
      "d": 632.0419375000056,
      "v": 100
    },
    {
      "midi": 73,
      "hit": false,
      "t": 197746.38000000152,
      "d": 632.0419375000056,
      "v": 100
    },
    {
      "midi": 42,
      "hit": false,
      "t": 197746.38000000568,
      "d": 209.5069375000021,
      "v": 100
    },
    {
      "midi": 42,
      "hit": false,
      "t": 197957.6475000057,
      "d": 209.5069375000021,
      "v": 100
    },
    {
      "midi": 42,
      "hit": false,
      "t": 198168.9150000057,
      "d": 209.5069375000021,
      "v": 100
    },
    {
      "midi": 64,
      "hit": false,
      "t": 198380.18250000154,
      "d": 209.5069375000021,
      "v": 100
    },
    {
      "midi": 69,
      "hit": false,
      "t": 198380.18250000154,
      "d": 209.5069375000021,
      "v": 100
    },
    {
      "midi": 42,
      "hit": false,
      "t": 198380.18250000573,
      "d": 209.5069375000021,
      "v": 100
    },
    {
      "midi": 64,
      "hit": false,
      "t": 198591.45000000155,
      "d": 420.7744374999893,
      "v": 100
    },
    {
      "midi": 69,
      "hit": false,
      "t": 198591.45000000155,
      "d": 420.7744374999893,
      "v": 100
    },
    {
      "midi": 42,
      "hit": false,
      "t": 198591.45000000575,
      "d": 209.5069375000021,
      "v": 100
    },
    {
      "midi": 42,
      "hit": false,
      "t": 198802.71750000576,
      "d": 209.5069375000021,
      "v": 100
    },
    {
      "midi": 42,
      "hit": false,
      "t": 199013.98500000578,
      "d": 209.5069375000021,
      "v": 100
    },
    {
      "midi": 42,
      "hit": false,
      "t": 199225.2525000058,
      "d": 209.5069375000021,
      "v": 100
    },
    {
      "midi": 62,
      "hit": false,
      "t": 199436.52000000153,
      "d": 420.7744374999893,
      "v": 100
    },
    {
      "midi": 67,
      "hit": false,
      "t": 199436.52000000153,
      "d": 420.7744374999893,
      "v": 100
    },
    {
      "midi": 71,
      "hit": false,
      "t": 199436.52000000153,
      "d": 420.7744374999893,
      "v": 100
    },
    {
      "midi": 43,
      "hit": false,
      "t": 199436.5200000058,
      "d": 209.5069375000021,
      "v": 100
    },
    {
      "midi": 43,
      "hit": false,
      "t": 199647.78750000583,
      "d": 209.5069375000021,
      "v": 100
    },
    {
      "midi": 69,
      "hit": false,
      "t": 199859.05500000154,
      "d": 420.7744374999893,
      "v": 100
    },
    {
      "midi": 43,
      "hit": false,
      "t": 199859.05500000584,
      "d": 209.5069375000021,
      "v": 100
    },
    {
      "midi": 43,
      "hit": false,
      "t": 200070.32250000586,
      "d": 209.5069375000021,
      "v": 100
    },
    {
      "midi": 67,
      "hit": false,
      "t": 200281.59000000154,
      "d": 420.7744374999893,
      "v": 100
    },
    {
      "midi": 43,
      "hit": false,
      "t": 200281.59000000588,
      "d": 209.5069375000021,
      "v": 100
    },
    {
      "midi": 43,
      "hit": false,
      "t": 200492.8575000059,
      "d": 209.5069375000021,
      "v": 100
    },
    {
      "midi": 71,
      "hit": false,
      "t": 200704.12500000154,
      "d": 209.5069375000021,
      "v": 100
    },
    {
      "midi": 47,
      "hit": false,
      "t": 200704.1250000059,
      "d": 209.5069375000021,
      "v": 100
    },
    {
      "midi": 62,
      "hit": false,
      "t": 200915.39250000156,
      "d": 1477.1119375000126,
      "v": 100
    },
    {
      "midi": 66,
      "hit": false,
      "t": 200915.39250000156,
      "d": 1477.1119375000126,
      "v": 100
    },
    {
      "midi": 69,
      "hit": false,
      "t": 200915.39250000156,
      "d": 1477.1119375000126,
      "v": 100
    },
    {
      "midi": 50,
      "hit": false,
      "t": 200915.39250000592,
      "d": 420.7744374999893,
      "v": 100
    },
    {
      "midi": 50,
      "hit": false,
      "t": 201337.92750000593,
      "d": 209.5069375000021,
      "v": 100
    },
    {
      "midi": 50,
      "hit": false,
      "t": 201549.19500000594,
      "d": 209.5069375000021,
      "v": 100
    },
    {
      "midi": 50,
      "hit": false,
      "t": 201760.46250000596,
      "d": 209.5069375000021,
      "v": 100
    },
    {
      "midi": 50,
      "hit": false,
      "t": 201971.73000000598,
      "d": 209.5069375000021,
      "v": 100
    },
    {
      "midi": 50,
      "hit": false,
      "t": 202182.997500006,
      "d": 209.5069375000021,
      "v": 100
    },
    {
      "midi": 50,
      "hit": false,
      "t": 202394.265000006,
      "d": 209.5069375000021,
      "v": 100
    },
    {
      "midi": 50,
      "hit": false,
      "t": 202605.53250000603,
      "d": 209.5069375000021,
      "v": 100
    },
    {
      "midi": 59,
      "hit": false,
      "t": 202816.80000000002,
      "d": 1688.3794374999998,
      "v": 100
    },
    {
      "midi": 64,
      "hit": false,
      "t": 202816.80000000002,
      "d": 1688.3794374999998,
      "v": 100
    },
    {
      "midi": 67,
      "hit": false,
      "t": 202816.80000000156,
      "d": 420.7744374999893,
      "v": 100
    },
    {
      "midi": 52,
      "hit": false,
      "t": 202816.80000000604,
      "d": 209.5069375000021,
      "v": 100
    },
    {
      "midi": 52,
      "hit": false,
      "t": 203028.06750000606,
      "d": 209.5069375000021,
      "v": 100
    },
    {
      "midi": 67,
      "hit": false,
      "t": 203239.33500000156,
      "d": 420.7744374999893,
      "v": 100
    },
    {
      "midi": 52,
      "hit": false,
      "t": 203239.33500000607,
      "d": 209.5069375000021,
      "v": 100
    },
    {
      "midi": 52,
      "hit": false,
      "t": 203450.6025000061,
      "d": 209.5069375000021,
      "v": 100
    },
    {
      "midi": 67,
      "hit": false,
      "t": 203661.87000000157,
      "d": 420.7744374999893,
      "v": 100
    },
    {
      "midi": 52,
      "hit": false,
      "t": 203661.8700000061,
      "d": 209.5069375000021,
      "v": 100
    },
    {
      "midi": 52,
      "hit": false,
      "t": 203873.13750000612,
      "d": 209.5069375000021,
      "v": 100
    },
    {
      "midi": 67,
      "hit": false,
      "t": 204084.40500000157,
      "d": 420.7744374999893,
      "v": 100
    },
    {
      "midi": 52,
      "hit": false,
      "t": 204084.40500000614,
      "d": 209.5069375000021,
      "v": 100
    },
    {
      "midi": 52,
      "hit": false,
      "t": 204295.67250000616,
      "d": 209.5069375000021,
      "v": 100
    },
    {
      "midi": 57,
      "hit": false,
      "t": 204506.94000000157,
      "d": 843.3094374999928,
      "v": 100
    },
    {
      "midi": 62,
      "hit": false,
      "t": 204506.94000000157,
      "d": 843.3094374999928,
      "v": 100
    },
    {
      "midi": 66,
      "hit": false,
      "t": 204506.94000000157,
      "d": 843.3094374999928,
      "v": 100
    },
    {
      "midi": 45,
      "hit": false,
      "t": 204506.94000000617,
      "d": 209.5069375000021,
      "v": 100
    },
    {
      "midi": 45,
      "hit": false,
      "t": 204718.2075000062,
      "d": 209.5069375000021,
      "v": 100
    },
    {
      "midi": 45,
      "hit": false,
      "t": 204929.4750000062,
      "d": 209.5069375000021,
      "v": 100
    },
    {
      "midi": 45,
      "hit": false,
      "t": 205140.74250000622,
      "d": 209.5069375000021,
      "v": 100
    },
    {
      "midi": 57,
      "hit": false,
      "t": 205352.01,
      "d": 843.3094374999928,
      "v": 100
    },
    {
      "midi": 61,
      "hit": false,
      "t": 205352.01,
      "d": 843.3094374999928,
      "v": 100
    },
    {
      "midi": 64,
      "hit": false,
      "t": 205352.01000000158,
      "d": 632.0419375000056,
      "v": 100
    },
    {
      "midi": 45,
      "hit": false,
      "t": 205352.01000000624,
      "d": 209.5069375000021,
      "v": 100
    },
    {
      "midi": 45,
      "hit": false,
      "t": 205563.27750000625,
      "d": 209.5069375000021,
      "v": 100
    },
    {
      "midi": 45,
      "hit": false,
      "t": 205774.54500000627,
      "d": 209.5069375000021,
      "v": 100
    },
    {
      "midi": 62,
      "hit": false,
      "t": 205985.8125000016,
      "d": 209.5069375000021,
      "v": 100
    },
    {
      "midi": 45,
      "hit": false,
      "t": 205985.8125000063,
      "d": 209.5069375000021,
      "v": 100
    },
    {
      "midi": 62,
      "hit": false,
      "t": 206197.08000000002,
      "d": 1688.3794374999998,
      "v": 100
    },
    {
      "midi": 62,
      "hit": false,
      "t": 206197.08000000162,
      "d": 420.7744374999893,
      "v": 100
    },
    {
      "midi": 50,
      "hit": false,
      "t": 206197.0800000063,
      "d": 209.5069375000021,
      "v": 100
    },
    {
      "midi": 50,
      "hit": false,
      "t": 206408.34750000632,
      "d": 209.5069375000021,
      "v": 100
    },
    {
      "midi": 66,
      "hit": false,
      "t": 206619.61500000162,
      "d": 420.7744374999893,
      "v": 100
    },
    {
      "midi": 50,
      "hit": false,
      "t": 206619.61500000634,
      "d": 209.5069375000021,
      "v": 100
    },
    {
      "midi": 50,
      "hit": false,
      "t": 206830.88250000635,
      "d": 209.5069375000021,
      "v": 100
    },
    {
      "midi": 69,
      "hit": false,
      "t": 207042.15000000162,
      "d": 843.3094374999928,
      "v": 100
    },
    {
      "midi": 50,
      "hit": false,
      "t": 207042.15000000637,
      "d": 209.5069375000021,
      "v": 100
    },
    {
      "midi": 50,
      "hit": false,
      "t": 207253.41750000638,
      "d": 209.5069375000021,
      "v": 100
    },
    {
      "midi": 50,
      "hit": false,
      "t": 207464.6850000064,
      "d": 209.5069375000021,
      "v": 100
    },
    {
      "midi": 50,
      "hit": false,
      "t": 207675.95250000642,
      "d": 209.5069375000021,
      "v": 100
    },
    {
      "midi": 57,
      "hit": false,
      "t": 207887.22000000163,
      "d": 632.0419375000056,
      "v": 100
    },
    {
      "midi": 60,
      "hit": false,
      "t": 207887.22000000163,
      "d": 632.0419375000056,
      "v": 100
    },
    {
      "midi": 66,
      "hit": false,
      "t": 207887.22000000163,
      "d": 632.0419375000056,
      "v": 100
    },
    {
      "midi": 50,
      "hit": false,
      "t": 207887.22000000643,
      "d": 209.5069375000021,
      "v": 100
    },
    {
      "midi": 50,
      "hit": false,
      "t": 208098.48750000645,
      "d": 209.5069375000021,
      "v": 100
    },
    {
      "midi": 50,
      "hit": false,
      "t": 208309.75500000647,
      "d": 209.5069375000021,
      "v": 100
    },
    {
      "midi": 57,
      "hit": false,
      "t": 208521.02250000165,
      "d": 632.0419375000056,
      "v": 100
    },
    {
      "midi": 60,
      "hit": false,
      "t": 208521.02250000165,
      "d": 632.0419375000056,
      "v": 100
    },
    {
      "midi": 66,
      "hit": false,
      "t": 208521.02250000165,
      "d": 632.0419375000056,
      "v": 100
    },
    {
      "midi": 50,
      "hit": false,
      "t": 208521.02250000648,
      "d": 420.7744374999893,
      "v": 100
    },
    {
      "midi": 50,
      "hit": false,
      "t": 208943.5575000065,
      "d": 209.5069375000021,
      "v": 100
    },
    {
      "midi": 57,
      "hit": false,
      "t": 209154.82500000167,
      "d": 420.7744374999893,
      "v": 100
    },
    {
      "midi": 60,
      "hit": false,
      "t": 209154.82500000167,
      "d": 420.7744374999893,
      "v": 100
    },
    {
      "midi": 66,
      "hit": false,
      "t": 209154.82500000167,
      "d": 420.7744374999893,
      "v": 100
    },
    {
      "midi": 50,
      "hit": false,
      "t": 209154.8250000065,
      "d": 420.7744374999893,
      "v": 100
    },
    {
      "midi": 62,
      "hit": false,
      "t": 209577.36000000167,
      "d": 420.7744374999893,
      "v": 100
    },
    {
      "midi": 47,
      "hit": false,
      "t": 209577.3600000065,
      "d": 209.5069375000021,
      "v": 100
    },
    {
      "midi": 54,
      "hit": false,
      "t": 209577.3600000065,
      "d": 209.5069375000021,
      "v": 100
    },
    {
      "midi": 47,
      "hit": false,
      "t": 209788.62750000652,
      "d": 209.5069375000021,
      "v": 100
    },
    {
      "midi": 64,
      "hit": false,
      "t": 209999.89500000168,
      "d": 420.7744374999893,
      "v": 100
    },
    {
      "midi": 47,
      "hit": false,
      "t": 209999.89500000654,
      "d": 209.5069375000021,
      "v": 100
    },
    {
      "midi": 47,
      "hit": false,
      "t": 210211.16250000655,
      "d": 209.5069375000021,
      "v": 100
    },
    {
      "midi": 66,
      "hit": false,
      "t": 210422.43000000168,
      "d": 420.7744374999893,
      "v": 100
    },
    {
      "midi": 47,
      "hit": false,
      "t": 210422.43000000657,
      "d": 209.5069375000021,
      "v": 100
    },
    {
      "midi": 47,
      "hit": false,
      "t": 210633.6975000066,
      "d": 209.5069375000021,
      "v": 100
    },
    {
      "midi": 74,
      "hit": false,
      "t": 210844.96500000168,
      "d": 420.7744374999893,
      "v": 100
    },
    {
      "midi": 47,
      "hit": false,
      "t": 210844.9650000066,
      "d": 209.5069375000021,
      "v": 100
    },
    {
      "midi": 54,
      "hit": false,
      "t": 210844.9650000066,
      "d": 209.5069375000021,
      "v": 100
    },
    {
      "midi": 47,
      "hit": false,
      "t": 211056.23250000662,
      "d": 209.5069375000021,
      "v": 100
    },
    {
      "midi": 72,
      "hit": false,
      "t": 211267.5000000017,
      "d": 632.0419375000056,
      "v": 100
    },
    {
      "midi": 42,
      "hit": false,
      "t": 211267.50000000664,
      "d": 209.5069375000021,
      "v": 100
    },
    {
      "midi": 49,
      "hit": false,
      "t": 211267.50000000664,
      "d": 209.5069375000021,
      "v": 100
    },
    {
      "midi": 42,
      "hit": false,
      "t": 211478.76750000665,
      "d": 209.5069375000021,
      "v": 100
    },
    {
      "midi": 42,
      "hit": false,
      "t": 211690.03500000667,
      "d": 209.5069375000021,
      "v": 100
    },
    {
      "midi": 69,
      "hit": false,
      "t": 211901.3025000017,
      "d": 209.5069375000021,
      "v": 100
    },
    {
      "midi": 42,
      "hit": false,
      "t": 211901.30250000668,
      "d": 209.5069375000021,
      "v": 100
    },
    {
      "midi": 69,
      "hit": false,
      "t": 212112.57000000172,
      "d": 420.7744374999893,
      "v": 100
    },
    {
      "midi": 42,
      "hit": false,
      "t": 212112.5700000067,
      "d": 209.5069375000021,
      "v": 100
    },
    {
      "midi": 42,
      "hit": false,
      "t": 212323.83750000672,
      "d": 209.5069375000021,
      "v": 100
    },
    {
      "midi": 42,
      "hit": false,
      "t": 212535.10500000673,
      "d": 209.5069375000021,
      "v": 100
    },
    {
      "midi": 49,
      "hit": false,
      "t": 212535.10500000673,
      "d": 209.5069375000021,
      "v": 100
    },
    {
      "midi": 42,
      "hit": false,
      "t": 212746.37250000675,
      "d": 209.5069375000021,
      "v": 100
    },
    {
      "midi": 67,
      "hit": false,
      "t": 212957.6400000017,
      "d": 420.7744374999893,
      "v": 100
    },
    {
      "midi": 71,
      "hit": false,
      "t": 212957.6400000017,
      "d": 420.7744374999893,
      "v": 100
    },
    {
      "midi": 43,
      "hit": false,
      "t": 212957.64000000677,
      "d": 209.5069375000021,
      "v": 100
    },
    {
      "midi": 50,
      "hit": false,
      "t": 212957.64000000677,
      "d": 209.5069375000021,
      "v": 100
    },
    {
      "midi": 43,
      "hit": false,
      "t": 213168.90750000678,
      "d": 209.5069375000021,
      "v": 100
    },
    {
      "midi": 69,
      "hit": false,
      "t": 213380.1750000017,
      "d": 420.7744374999893,
      "v": 100
    },
    {
      "midi": 43,
      "hit": false,
      "t": 213380.1750000068,
      "d": 209.5069375000021,
      "v": 100
    },
    {
      "midi": 43,
      "hit": false,
      "t": 213591.44250000681,
      "d": 209.5069375000021,
      "v": 100
    },
    {
      "midi": 67,
      "hit": false,
      "t": 213802.7100000017,
      "d": 420.7744374999893,
      "v": 100
    },
    {
      "midi": 43,
      "hit": false,
      "t": 213802.71000000683,
      "d": 209.5069375000021,
      "v": 100
    },
    {
      "midi": 43,
      "hit": false,
      "t": 214013.97750000685,
      "d": 209.5069375000021,
      "v": 100
    },
    {
      "midi": 71,
      "hit": false,
      "t": 214225.2450000017,
      "d": 209.5069375000021,
      "v": 100
    },
    {
      "midi": 43,
      "hit": false,
      "t": 214225.24500000686,
      "d": 209.5069375000021,
      "v": 100
    },
    {
      "midi": 50,
      "hit": false,
      "t": 214225.24500000686,
      "d": 209.5069375000021,
      "v": 100
    },
    {
      "midi": 62,
      "hit": false,
      "t": 214436.51250000173,
      "d": 1477.1119375000126,
      "v": 100
    },
    {
      "midi": 66,
      "hit": false,
      "t": 214436.51250000173,
      "d": 1477.1119375000126,
      "v": 100
    },
    {
      "midi": 71,
      "hit": false,
      "t": 214436.51250000173,
      "d": 1477.1119375000126,
      "v": 100
    },
    {
      "midi": 50,
      "hit": false,
      "t": 214436.51250000688,
      "d": 420.7744374999893,
      "v": 100
    },
    {
      "midi": 57,
      "hit": false,
      "t": 214436.51250000688,
      "d": 420.7744374999893,
      "v": 100
    },
    {
      "midi": 50,
      "hit": false,
      "t": 214859.04750000688,
      "d": 209.5069375000021,
      "v": 100
    },
    {
      "midi": 50,
      "hit": false,
      "t": 215070.3150000069,
      "d": 209.5069375000021,
      "v": 100
    },
    {
      "midi": 50,
      "hit": false,
      "t": 215281.58250000692,
      "d": 209.5069375000021,
      "v": 100
    },
    {
      "midi": 50,
      "hit": false,
      "t": 215492.85000000693,
      "d": 209.5069375000021,
      "v": 100
    },
    {
      "midi": 50,
      "hit": false,
      "t": 215704.11750000695,
      "d": 209.5069375000021,
      "v": 100
    },
    {
      "midi": 50,
      "hit": false,
      "t": 215915.38500000697,
      "d": 209.5069375000021,
      "v": 100
    },
    {
      "midi": 57,
      "hit": false,
      "t": 215915.38500000697,
      "d": 209.5069375000021,
      "v": 100
    },
    {
      "midi": 50,
      "hit": false,
      "t": 216126.65250000698,
      "d": 209.5069375000021,
      "v": 100
    },
    {
      "midi": 52,
      "hit": false,
      "t": 216337.92,
      "d": 1688.3794374999998,
      "v": 100
    },
    {
      "midi": 67,
      "hit": false,
      "t": 216337.92000000173,
      "d": 420.7744374999893,
      "v": 100
    },
    {
      "midi": 52,
      "hit": false,
      "t": 216337.920000007,
      "d": 209.5069375000021,
      "v": 100
    },
    {
      "midi": 55,
      "hit": false,
      "t": 216549.187500007,
      "d": 209.5069375000021,
      "v": 100
    },
    {
      "midi": 67,
      "hit": false,
      "t": 216760.45500000173,
      "d": 420.7744374999893,
      "v": 100
    },
    {
      "midi": 59,
      "hit": false,
      "t": 216760.45500000703,
      "d": 209.5069375000021,
      "v": 100
    },
    {
      "midi": 64,
      "hit": false,
      "t": 216971.72250000705,
      "d": 420.7744374999893,
      "v": 100
    },
    {
      "midi": 67,
      "hit": false,
      "t": 217182.99000000174,
      "d": 420.7744374999893,
      "v": 100
    },
    {
      "midi": 59,
      "hit": false,
      "t": 217394.25750000705,
      "d": 209.5069375000021,
      "v": 100
    },
    {
      "midi": 67,
      "hit": false,
      "t": 217605.52500000174,
      "d": 420.7744374999893,
      "v": 100
    },
    {
      "midi": 55,
      "hit": false,
      "t": 217605.52500000707,
      "d": 420.7744374999893,
      "v": 100
    },
    {
      "midi": 45,
      "hit": false,
      "t": 218028.06000000003,
      "d": 1688.3794374999998,
      "v": 100
    },
    {
      "midi": 57,
      "hit": false,
      "t": 218028.06000000174,
      "d": 843.3094374999928,
      "v": 100
    },
    {
      "midi": 62,
      "hit": false,
      "t": 218028.06000000174,
      "d": 843.3094374999928,
      "v": 100
    },
    {
      "midi": 66,
      "hit": false,
      "t": 218028.06000000174,
      "d": 843.3094374999928,
      "v": 100
    },
    {
      "midi": 45,
      "hit": false,
      "t": 218028.06000000707,
      "d": 1688.3794374999998,
      "v": 100
    },
    {
      "midi": 61,
      "hit": false,
      "t": 218873.13000000175,
      "d": 632.0419375000056,
      "v": 100
    },
    {
      "midi": 64,
      "hit": false,
      "t": 218873.13000000175,
      "d": 632.0419375000056,
      "v": 100
    },
    {
      "midi": 62,
      "hit": false,
      "t": 219506.93250000177,
      "d": 209.5069375000021,
      "v": 100
    },
    {
      "midi": 62,
      "hit": false,
      "t": 219718.20000000004,
      "d": 1688.3794374999998,
      "v": 100
    },
    {
      "midi": 69,
      "hit": false,
      "t": 219718.2000000018,
      "d": 420.7744374999893,
      "v": 100
    },
    {
      "midi": 50,
      "hit": false,
      "t": 219718.20000000708,
      "d": 3378.5194375000137,
      "v": 100
    },
    {
      "midi": 57,
      "hit": false,
      "t": 219718.20000000708,
      "d": 3378.5194375000137,
      "v": 100
    },
    {
      "midi": 74,
      "hit": false,
      "t": 220140.7350000018,
      "d": 420.7744374999893,
      "v": 100
    },
    {
      "midi": 78,
      "hit": false,
      "t": 220563.2700000018,
      "d": 420.7744374999893,
      "v": 100
    },
    {
      "midi": 74,
      "hit": false,
      "t": 220985.8050000018,
      "d": 420.7744374999893,
      "v": 100
    },
    {
      "midi": 69,
      "hit": false,
      "t": 221408.3400000018,
      "d": 420.7744374999893,
      "v": 100
    },
    {
      "midi": 74,
      "hit": false,
      "t": 221830.8750000018,
      "d": 209.5069375000021,
      "v": 100
    },
    {
      "midi": 79,
      "hit": false,
      "t": 222042.14250000182,
      "d": 420.7744374999893,
      "v": 100
    },
    {
      "midi": 78,
      "hit": false,
      "t": 222464.67750000182,
      "d": 209.5069375000021,
      "v": 100
    },
    {
      "midi": 74,
      "hit": false,
      "t": 222675.94500000184,
      "d": 420.7744374999893,
      "v": 100
    },
    {
      "midi": 69,
      "hit": false,
      "t": 223098.48000000184,
      "d": 420.7744374999893,
      "v": 100
    },
    {
      "midi": 50,
      "hit": false,
      "t": 223098.4800000071,
      "d": 3378.5194375000137,
      "v": 100
    },
    {
      "midi": 57,
      "hit": false,
      "t": 223098.4800000071,
      "d": 3378.5194375000137,
      "v": 100
    },
    {
      "midi": 74,
      "hit": false,
      "t": 223521.01500000185,
      "d": 420.7744374999893,
      "v": 100
    },
    {
      "midi": 78,
      "hit": false,
      "t": 223943.55000000185,
      "d": 420.7744374999893,
      "v": 100
    },
    {
      "midi": 74,
      "hit": false,
      "t": 224366.08500000185,
      "d": 420.7744374999893,
      "v": 100
    },
    {
      "midi": 69,
      "hit": false,
      "t": 224788.62000000186,
      "d": 420.7744374999893,
      "v": 100
    },
    {
      "midi": 74,
      "hit": false,
      "t": 225211.15500000186,
      "d": 209.5069375000021,
      "v": 100
    },
    {
      "midi": 79,
      "hit": false,
      "t": 225422.42250000188,
      "d": 420.7744374999893,
      "v": 100
    },
    {
      "midi": 78,
      "hit": false,
      "t": 225844.95750000188,
      "d": 209.5069375000021,
      "v": 100
    },
    {
      "midi": 74,
      "hit": false,
      "t": 226056.2250000019,
      "d": 420.7744374999893,
      "v": 100
    },
    {
      "midi": 69,
      "hit": false,
      "t": 226478.7600000019,
      "d": 420.7744374999893,
      "v": 100
    },
    {
      "midi": 50,
      "hit": false,
      "t": 226478.76000000714,
      "d": 3378.5194375000137,
      "v": 100
    },
    {
      "midi": 57,
      "hit": false,
      "t": 226478.76000000714,
      "d": 3378.5194375000137,
      "v": 100
    },
    {
      "midi": 74,
      "hit": false,
      "t": 226901.2950000019,
      "d": 420.7744374999893,
      "v": 100
    },
    {
      "midi": 78,
      "hit": false,
      "t": 227323.8300000019,
      "d": 420.7744374999893,
      "v": 100
    },
    {
      "midi": 74,
      "hit": false,
      "t": 227746.3650000019,
      "d": 420.7744374999893,
      "v": 100
    },
    {
      "midi": 69,
      "hit": false,
      "t": 228168.90000000192,
      "d": 420.7744374999893,
      "v": 100
    },
    {
      "midi": 74,
      "hit": false,
      "t": 228591.43500000192,
      "d": 209.5069375000021,
      "v": 100
    },
    {
      "midi": 79,
      "hit": false,
      "t": 228802.70250000193,
      "d": 420.7744374999893,
      "v": 100
    },
    {
      "midi": 78,
      "hit": false,
      "t": 229225.23750000194,
      "d": 209.5069375000021,
      "v": 100
    },
    {
      "midi": 74,
      "hit": false,
      "t": 229436.50500000195,
      "d": 420.7744374999893,
      "v": 100
    },
    {
      "midi": 69,
      "hit": false,
      "t": 229859.04000000196,
      "d": 1688.3794374999998,
      "v": 100
    },
    {
      "midi": 74,
      "hit": false,
      "t": 229859.04000000196,
      "d": 1688.3794374999998,
      "v": 100
    },
    {
      "midi": 78,
      "hit": false,
      "t": 229859.04000000196,
      "d": 1688.3794374999998,
      "v": 100
    },
    {
      "midi": 38,
      "hit": false,
      "t": 229859.04000000717,
      "d": 1688.3794374999998,
      "v": 100
    },
    {
      "midi": 50,
      "hit": false,
      "t": 229859.04000000717,
      "d": 1688.3794374999998,
      "v": 100
    }
  ]
}