{
  "jsonPath": "World/Canadian Pop/Justin/ni-de-ming-zi-wo-de-xing-shi.json",
  "path": "World\\Canadian Pop\\Justin\\Ni De Ming Zi Wo De Xing Shi.mid",
  "name": "Ni De Ming Zi Wo De Xing Shi",
  "difficulty": "Advanced",
  "bpm": 80,
  "notes": [
    {
      "midi": 46,
      "hit": false,
      "t": 12.5,
      "d": 1487.5,
      "v": 52
    },
    {
      "midi": 94,
      "hit": false,
      "t": 1437.5,
      "d": 1487.5,
      "v": 86
    },
    {
      "midi": 82,
      "hit": false,
      "t": 1500,
      "d": 1487.5,
      "v": 86
    },
    {
      "midi": 53,
      "hit": false,
      "t": 1537.5,
      "d": 1487.5,
      "v": 72
    },
    {
      "midi": 93,
      "hit": false,
      "t": 2987.5,
      "d": 1487.5,
      "v": 86
    },
    {
      "midi": 81,
      "hit": false,
      "t": 3000,
      "d": 1487.5,
      "v": 86
    },
    {
      "midi": 58,
      "hit": false,
      "t": 3012.5,
      "d": 1487.5,
      "v": 48
    },
    {
      "midi": 89,
      "hit": false,
      "t": 4450,
      "d": 1487.5,
      "v": 82
    },
    {
      "midi": 60,
      "hit": false,
      "t": 4500,
      "d": 1487.5,
      "v": 56
    },
    {
      "midi": 77,
      "hit": false,
      "t": 4562.5,
      "d": 1487.5,
      "v": 82
    },
    {
      "midi": 62,
      "hit": false,
      "t": 5975,
      "d": 3000,
      "v": 60
    },
    {
      "midi": 86,
      "hit": false,
      "t": 6025,
      "d": 1487.5,
      "v": 75
    },
    {
      "midi": 74,
      "hit": false,
      "t": 6037.5,
      "d": 1487.5,
      "v": 75
    },
    {
      "midi": 82,
      "hit": false,
      "t": 7437.5,
      "d": 1487.5,
      "v": 73
    },
    {
      "midi": 70,
      "hit": false,
      "t": 7450,
      "d": 1487.5,
      "v": 73
    },
    {
      "midi": 81,
      "hit": false,
      "t": 8937.5,
      "d": 1487.5,
      "v": 70
    },
    {
      "midi": 69,
      "hit": false,
      "t": 9012.5,
      "d": 1487.5,
      "v": 70
    },
    {
      "midi": 65,
      "hit": false,
      "t": 10487.5,
      "d": 1487.5,
      "v": 67
    },
    {
      "midi": 77,
      "hit": false,
      "t": 10562.5,
      "d": 1487.5,
      "v": 67
    },
    {
      "midi": 74,
      "hit": false,
      "t": 11975,
      "d": 10500,
      "v": 67
    },
    {
      "midi": 46,
      "hit": false,
      "t": 12050,
      "d": 1487.5,
      "v": 64
    },
    {
      "midi": 53,
      "hit": false,
      "t": 13450,
      "d": 1487.5,
      "v": 72
    },
    {
      "midi": 58,
      "hit": false,
      "t": 15050,
      "d": 1487.5,
      "v": 48
    },
    {
      "midi": 62,
      "hit": false,
      "t": 16525,
      "d": 1487.5,
      "v": 60
    },
    {
      "midi": 65,
      "hit": false,
      "t": 18000,
      "d": 3000,
      "v": 60
    },
    {
      "midi": 62,
      "hit": false,
      "t": 20975,
      "d": 1487.5,
      "v": 72
    },
    {
      "midi": 44,
      "hit": false,
      "t": 23950,
      "d": 1487.5,
      "v": 72
    },
    {
      "midi": 51,
      "hit": false,
      "t": 25450,
      "d": 1487.5,
      "v": 64
    },
    {
      "midi": 92,
      "hit": false,
      "t": 25475,
      "d": 1487.5,
      "v": 94
    },
    {
      "midi": 80,
      "hit": false,
      "t": 25512.5,
      "d": 1487.5,
      "v": 94
    },
    {
      "midi": 56,
      "hit": false,
      "t": 26950,
      "d": 1487.5,
      "v": 33
    },
    {
      "midi": 79,
      "hit": false,
      "t": 27012.5,
      "d": 1487.5,
      "v": 93
    },
    {
      "midi": 91,
      "hit": false,
      "t": 27012.5,
      "d": 1487.5,
      "v": 93
    },
    {
      "midi": 75,
      "hit": false,
      "t": 28475,
      "d": 1487.5,
      "v": 83
    },
    {
      "midi": 87,
      "hit": false,
      "t": 28525,
      "d": 1487.5,
      "v": 83
    },
    {
      "midi": 58,
      "hit": false,
      "t": 28562.5,
      "d": 1487.5,
      "v": 32
    },
    {
      "midi": 72,
      "hit": false,
      "t": 29950,
      "d": 1487.5,
      "v": 75
    },
    {
      "midi": 60,
      "hit": false,
      "t": 29987.5,
      "d": 3000,
      "v": 68
    },
    {
      "midi": 84,
      "hit": false,
      "t": 30050,
      "d": 1487.5,
      "v": 75
    },
    {
      "midi": 68,
      "hit": false,
      "t": 31462.5,
      "d": 1487.5,
      "v": 73
    },
    {
      "midi": 80,
      "hit": false,
      "t": 31525,
      "d": 1487.5,
      "v": 73
    },
    {
      "midi": 67,
      "hit": false,
      "t": 32987.5,
      "d": 1487.5,
      "v": 71
    },
    {
      "midi": 79,
      "hit": false,
      "t": 33000,
      "d": 1487.5,
      "v": 71
    },
    {
      "midi": 75,
      "hit": false,
      "t": 34462.5,
      "d": 1487.5,
      "v": 69
    },
    {
      "midi": 63,
      "hit": false,
      "t": 34537.5,
      "d": 1487.5,
      "v": 69
    },
    {
      "midi": 44,
      "hit": false,
      "t": 35937.5,
      "d": 1487.5,
      "v": 68
    },
    {
      "midi": 72,
      "hit": false,
      "t": 36037.5,
      "d": 12000,
      "v": 67
    },
    {
      "midi": 51,
      "hit": false,
      "t": 37487.5,
      "d": 1487.5,
      "v": 64
    },
    {
      "midi": 56,
      "hit": false,
      "t": 39000,
      "d": 1487.5,
      "v": 27
    },
    {
      "midi": 60,
      "hit": false,
      "t": 40512.5,
      "d": 1487.5,
      "v": 52
    },
    {
      "midi": 63,
      "hit": false,
      "t": 42012.5,
      "d": 3000,
      "v": 48
    },
    {
      "midi": 60,
      "hit": false,
      "t": 45012.5,
      "d": 1487.5,
      "v": 39
    },
    {
      "midi": 46,
      "hit": false,
      "t": 48025,
      "d": 1487.5,
      "v": 26
    },
    {
      "midi": 53,
      "hit": false,
      "t": 49475,
      "d": 1487.5,
      "v": 68
    },
    {
      "midi": 82,
      "hit": false,
      "t": 49562.5,
      "d": 1487.5,
      "v": 86
    },
    {
      "midi": 94,
      "hit": false,
      "t": 49562.5,
      "d": 1487.5,
      "v": 86
    },
    {
      "midi": 58,
      "hit": false,
      "t": 50937.5,
      "d": 1487.5,
      "v": 45
    },
    {
      "midi": 93,
      "hit": false,
      "t": 51025,
      "d": 1487.5,
      "v": 86
    },
    {
      "midi": 81,
      "hit": false,
      "t": 51037.5,
      "d": 1487.5,
      "v": 86
    },
    {
      "midi": 89,
      "hit": false,
      "t": 52450,
      "d": 1487.5,
      "v": 85
    },
    {
      "midi": 77,
      "hit": false,
      "t": 52475,
      "d": 1487.5,
      "v": 85
    },
    {
      "midi": 60,
      "hit": false,
      "t": 52512.5,
      "d": 1487.5,
      "v": 64
    },
    {
      "midi": 74,
      "hit": false,
      "t": 53950,
      "d": 1487.5,
      "v": 82
    },
    {
      "midi": 62,
      "hit": false,
      "t": 54037.5,
      "d": 3000,
      "v": 60
    },
    {
      "midi": 86,
      "hit": false,
      "t": 54050,
      "d": 1487.5,
      "v": 82
    },
    {
      "midi": 70,
      "hit": false,
      "t": 55525,
      "d": 1487.5,
      "v": 79
    },
    {
      "midi": 82,
      "hit": false,
      "t": 55550,
      "d": 1487.5,
      "v": 79
    },
    {
      "midi": 69,
      "hit": false,
      "t": 57000,
      "d": 1487.5,
      "v": 77
    },
    {
      "midi": 81,
      "hit": false,
      "t": 57012.5,
      "d": 1487.5,
      "v": 77
    },
    {
      "midi": 65,
      "hit": false,
      "t": 58437.5,
      "d": 1487.5,
      "v": 77
    },
    {
      "midi": 77,
      "hit": false,
      "t": 58462.5,
      "d": 1487.5,
      "v": 77
    },
    {
      "midi": 74,
      "hit": false,
      "t": 59950,
      "d": 12000,
      "v": 77
    },
    {
      "midi": 46,
      "hit": false,
      "t": 59975,
      "d": 1487.5,
      "v": 64
    },
    {
      "midi": 53,
      "hit": false,
      "t": 61550,
      "d": 1487.5,
      "v": 80
    },
    {
      "midi": 58,
      "hit": false,
      "t": 63025,
      "d": 1487.5,
      "v": 52
    },
    {
      "midi": 62,
      "hit": false,
      "t": 64562.5,
      "d": 1487.5,
      "v": 60
    },
    {
      "midi": 65,
      "hit": false,
      "t": 66062.5,
      "d": 3000,
      "v": 68
    },
    {
      "midi": 62,
      "hit": false,
      "t": 69000,
      "d": 1487.5,
      "v": 72
    },
    {
      "midi": 44,
      "hit": false,
      "t": 72000,
      "d": 1487.5,
      "v": 60
    },
    {
      "midi": 80,
      "hit": false,
      "t": 73500,
      "d": 1487.5,
      "v": 81
    },
    {
      "midi": 92,
      "hit": false,
      "t": 73537.5,
      "d": 1487.5,
      "v": 81
    },
    {
      "midi": 51,
      "hit": false,
      "t": 73550,
      "d": 1487.5,
      "v": 48
    },
    {
      "midi": 79,
      "hit": false,
      "t": 74950,
      "d": 1487.5,
      "v": 80
    },
    {
      "midi": 56,
      "hit": false,
      "t": 74962.5,
      "d": 1487.5,
      "v": 34
    },
    {
      "midi": 91,
      "hit": false,
      "t": 75000,
      "d": 1487.5,
      "v": 80
    },
    {
      "midi": 87,
      "hit": false,
      "t": 76450,
      "d": 1487.5,
      "v": 75
    },
    {
      "midi": 60,
      "hit": false,
      "t": 76537.5,
      "d": 1487.5,
      "v": 64
    },
    {
      "midi": 75,
      "hit": false,
      "t": 76562.5,
      "d": 1487.5,
      "v": 75
    },
    {
      "midi": 70,
      "hit": false,
      "t": 77950,
      "d": 3000,
      "v": 74
    },
    {
      "midi": 82,
      "hit": false,
      "t": 78000,
      "d": 3000,
      "v": 74
    },
    {
      "midi": 63,
      "hit": false,
      "t": 78050,
      "d": 1487.5,
      "v": 39
    },
    {
      "midi": 84,
      "hit": false,
      "t": 81037.5,
      "d": 3000,
      "v": 72
    },
    {
      "midi": 72,
      "hit": false,
      "t": 81050,
      "d": 3000,
      "v": 72
    },
    {
      "midi": 54,
      "hit": false,
      "t": 83987.5,
      "d": 3000,
      "v": 59
    },
    {
      "midi": 42,
      "hit": false,
      "t": 84012.5,
      "d": 3000,
      "v": 59
    },
    {
      "midi": 73,
      "hit": false,
      "t": 84025,
      "d": 3000,
      "v": 59
    },
    {
      "midi": 78,
      "hit": false,
      "t": 84162.5,
      "d": 2325,
      "v": 65
    },
    {
      "midi": 81,
      "hit": false,
      "t": 84275,
      "d": 2075,
      "v": 75
    },
    {
      "midi": 85,
      "hit": false,
      "t": 84512.5,
      "d": 2300,
      "v": 85
    },
    {
      "midi": 75,
      "hit": false,
      "t": 86975,
      "d": 3000,
      "v": 70
    },
    {
      "midi": 81,
      "hit": false,
      "t": 87025,
      "d": 3000,
      "v": 80
    },
    {
      "midi": 87,
      "hit": false,
      "t": 87025,
      "d": 3000,
      "v": 70
    },
    {
      "midi": 78,
      "hit": false,
      "t": 87037.5,
      "d": 3000,
      "v": 80
    },
    {
      "midi": 47,
      "hit": false,
      "t": 89962.5,
      "d": 6000,
      "v": 48
    },
    {
      "midi": 59,
      "hit": false,
      "t": 89975,
      "d": 6000,
      "v": 60
    },
    {
      "midi": 76,
      "hit": false,
      "t": 89987.5,
      "d": 3000,
      "v": 68
    },
    {
      "midi": 78,
      "hit": false,
      "t": 90300,
      "d": 2200,
      "v": 71
    },
    {
      "midi": 83,
      "hit": false,
      "t": 90375,
      "d": 2000,
      "v": 79
    },
    {
      "midi": 88,
      "hit": false,
      "t": 90537.5,
      "d": 2250,
      "v": 83
    },
    {
      "midi": 78,
      "hit": false,
      "t": 92937.5,
      "d": 3000,
      "v": 54
    },
    {
      "midi": 83,
      "hit": false,
      "t": 92937.5,
      "d": 3000,
      "v": 80
    },
    {
      "midi": 90,
      "hit": false,
      "t": 93000,
      "d": 3000,
      "v": 54
    },
    {
      "midi": 87,
      "hit": false,
      "t": 93050,
      "d": 3000,
      "v": 80
    },
    {
      "midi": 40,
      "hit": false,
      "t": 95987.5,
      "d": 1462.5,
      "v": 72
    },
    {
      "midi": 47,
      "hit": false,
      "t": 97562.5,
      "d": 1500,
      "v": 46
    },
    {
      "midi": 59,
      "hit": false,
      "t": 97562.5,
      "d": 1500,
      "v": 46
    },
    {
      "midi": 64,
      "hit": false,
      "t": 98962.5,
      "d": 1500,
      "v": 61
    },
    {
      "midi": 52,
      "hit": false,
      "t": 99062.5,
      "d": 8250,
      "v": 61
    },
    {
      "midi": 66,
      "hit": false,
      "t": 100475,
      "d": 1500,
      "v": 55
    },
    {
      "midi": 68,
      "hit": false,
      "t": 101950,
      "d": 737.5,
      "v": 68
    },
    {
      "midi": 71,
      "hit": false,
      "t": 103562.5,
      "d": 1500,
      "v": 56
    },
    {
      "midi": 76,
      "hit": false,
      "t": 105000,
      "d": 1500,
      "v": 71
    },
    {
      "midi": 78,
      "hit": false,
      "t": 106562.5,
      "d": 1500,
      "v": 57
    },
    {
      "midi": 80,
      "hit": false,
      "t": 107950,
      "d": 4500,
      "v": 65
    },
    {
      "midi": 42,
      "hit": false,
      "t": 107975,
      "d": 1500,
      "v": 65
    },
    {
      "midi": 49,
      "hit": false,
      "t": 109487.5,
      "d": 1500,
      "v": 52
    },
    {
      "midi": 54,
      "hit": false,
      "t": 111050,
      "d": 1500,
      "v": 56
    },
    {
      "midi": 81,
      "hit": false,
      "t": 112512.5,
      "d": 737.5,
      "v": 72
    },
    {
      "midi": 80,
      "hit": false,
      "t": 113200,
      "d": 737.5,
      "v": 60
    },
    {
      "midi": 59,
      "hit": false,
      "t": 113975,
      "d": 1500,
      "v": 77
    },
    {
      "midi": 78,
      "hit": false,
      "t": 113987.5,
      "d": 2250,
      "v": 77
    },
    {
      "midi": 47,
      "hit": false,
      "t": 114000,
      "d": 3000,
      "v": 77
    },
    {
      "midi": 80,
      "hit": false,
      "t": 116937.5,
      "d": 1500,
      "v": 77
    },
    {
      "midi": 57,
      "hit": false,
      "t": 116975,
      "d": 1500,
      "v": 77
    },
    {
      "midi": 48,
      "hit": false,
      "t": 117037.5,
      "d": 1500,
      "v": 77
    },
    {
      "midi": 72,
      "hit": false,
      "t": 117062.5,
      "d": 1500,
      "v": 77
    },
    {
      "midi": 78,
      "hit": false,
      "t": 118550,
      "d": 737.5,
      "v": 76
    },
    {
      "midi": 76,
      "hit": false,
      "t": 119975,
      "d": 4500,
      "v": 76
    },
    {
      "midi": 49,
      "hit": false,
      "t": 120037.5,
      "d": 4500,
      "v": 76
    },
    {
      "midi": 56,
      "hit": false,
      "t": 120050,
      "d": 4500,
      "v": 76
    },
    {
      "midi": 73,
      "hit": false,
      "t": 124462.5,
      "d": 737.5,
      "v": 50
    },
    {
      "midi": 75,
      "hit": false,
      "t": 125287.5,
      "d": 737.5,
      "v": 56
    },
    {
      "midi": 76,
      "hit": false,
      "t": 125987.5,
      "d": 2250,
      "v": 80
    },
    {
      "midi": 45,
      "hit": false,
      "t": 126050,
      "d": 3000,
      "v": 68
    },
    {
      "midi": 52,
      "hit": false,
      "t": 127512.5,
      "d": 1500,
      "v": 60
    },
    {
      "midi": 57,
      "hit": false,
      "t": 128937.5,
      "d": 1500,
      "v": 47
    },
    {
      "midi": 76,
      "hit": false,
      "t": 129712.5,
      "d": 737.5,
      "v": 45
    },
    {
      "midi": 81,
      "hit": false,
      "t": 130512.5,
      "d": 737.5,
      "v": 66
    },
    {
      "midi": 85,
      "hit": false,
      "t": 131262.5,
      "d": 737.5,
      "v": 60
    },
    {
      "midi": 83,
      "hit": false,
      "t": 131987.5,
      "d": 3000,
      "v": 68
    },
    {
      "midi": 47,
      "hit": false,
      "t": 132000,
      "d": 1500,
      "v": 80
    },
    {
      "midi": 54,
      "hit": false,
      "t": 133512.5,
      "d": 1500,
      "v": 39
    },
    {
      "midi": 83,
      "hit": false,
      "t": 135000,
      "d": 2250,
      "v": 77
    },
    {
      "midi": 88,
      "hit": false,
      "t": 135012.5,
      "d": 1725,
      "v": 80
    },
    {
      "midi": 59,
      "hit": false,
      "t": 135025,
      "d": 1500,
      "v": 77
    },
    {
      "midi": 54,
      "hit": false,
      "t": 136462.5,
      "d": 1500,
      "v": 39
    },
    {
      "midi": 57,
      "hit": false,
      "t": 137950,
      "d": 3000,
      "v": 52
    },
    {
      "midi": 81,
      "hit": false,
      "t": 138012.5,
      "d": 2250,
      "v": 96
    },
    {
      "midi": 88,
      "hit": false,
      "t": 138050,
      "d": 1737.5,
      "v": 72
    },
    {
      "midi": 47,
      "hit": false,
      "t": 138050,
      "d": 3000,
      "v": 68
    },
    {
      "midi": 87,
      "hit": false,
      "t": 141012.5,
      "d": 1425,
      "v": 52
    },
    {
      "midi": 78,
      "hit": false,
      "t": 141050,
      "d": 2362.5,
      "v": 68
    },
    {
      "midi": 85,
      "hit": false,
      "t": 142525,
      "d": 937.5,
      "v": 64
    },
    {
      "midi": 40,
      "hit": false,
      "t": 143975,
      "d": 1500,
      "v": 62
    },
    {
      "midi": 83,
      "hit": false,
      "t": 144012.5,
      "d": 2125,
      "v": 62
    },
    {
      "midi": 47,
      "hit": false,
      "t": 145475,
      "d": 1500,
      "v": 34
    },
    {
      "midi": 52,
      "hit": false,
      "t": 146950,
      "d": 1500,
      "v": 64
    },
    {
      "midi": 92,
      "hit": false,
      "t": 146962.5,
      "d": 2175,
      "v": 64
    },
    {
      "midi": 95,
      "hit": false,
      "t": 146987.5,
      "d": 2175,
      "v": 64
    },
    {
      "midi": 56,
      "hit": false,
      "t": 148537.5,
      "d": 1500,
      "v": 42
    },
    {
      "midi": 88,
      "hit": false,
      "t": 150025,
      "d": 1300,
      "v": 66
    },
    {
      "midi": 92,
      "hit": false,
      "t": 150037.5,
      "d": 1150,
      "v": 66
    },
    {
      "midi": 59,
      "hit": false,
      "t": 150050,
      "d": 1500,
      "v": 66
    },
    {
      "midi": 88,
      "hit": false,
      "t": 152962.5,
      "d": 1787.5,
      "v": 54
    },
    {
      "midi": 83,
      "hit": false,
      "t": 153050,
      "d": 2075,
      "v": 54
    },
    {
      "midi": 85,
      "hit": false,
      "t": 155962.5,
      "d": 2587.5,
      "v": 64
    },
    {
      "midi": 42,
      "hit": false,
      "t": 156012.5,
      "d": 1500,
      "v": 64
    },
    {
      "midi": 49,
      "hit": false,
      "t": 157462.5,
      "d": 1500,
      "v": 48
    },
    {
      "midi": 54,
      "hit": false,
      "t": 158950,
      "d": 1500,
      "v": 65
    },
    {
      "midi": 88,
      "hit": false,
      "t": 159012.5,
      "d": 2237.5,
      "v": 65
    },
    {
      "midi": 81,
      "hit": false,
      "t": 159037.5,
      "d": 1600,
      "v": 65
    },
    {
      "midi": 47,
      "hit": false,
      "t": 161937.5,
      "d": 3000,
      "v": 65
    },
    {
      "midi": 83,
      "hit": false,
      "t": 161975,
      "d": 1225,
      "v": 72
    },
    {
      "midi": 87,
      "hit": false,
      "t": 162012.5,
      "d": 1237.5,
      "v": 68
    },
    {
      "midi": 59,
      "hit": false,
      "t": 162037.5,
      "d": 1500,
      "v": 65
    },
    {
      "midi": 48,
      "hit": false,
      "t": 164950,
      "d": 1500,
      "v": 86
    },
    {
      "midi": 84,
      "hit": false,
      "t": 164962.5,
      "d": 1687.5,
      "v": 86
    },
    {
      "midi": 92,
      "hit": false,
      "t": 165000,
      "d": 1125,
      "v": 86
    },
    {
      "midi": 57,
      "hit": false,
      "t": 165012.5,
      "d": 1500,
      "v": 86
    },
    {
      "midi": 90,
      "hit": false,
      "t": 166587.5,
      "d": 587.5,
      "v": 78
    },
    {
      "midi": 49,
      "hit": false,
      "t": 167950,
      "d": 4500,
      "v": 64
    },
    {
      "midi": 56,
      "hit": false,
      "t": 167987.5,
      "d": 3000,
      "v": 37
    },
    {
      "midi": 88,
      "hit": false,
      "t": 168025,
      "d": 3575,
      "v": 72
    },
    {
      "midi": 85,
      "hit": false,
      "t": 172512.5,
      "d": 650,
      "v": 44
    },
    {
      "midi": 87,
      "hit": false,
      "t": 173200,
      "d": 612.5,
      "v": 48
    },
    {
      "midi": 45,
      "hit": false,
      "t": 174000,
      "d": 1500,
      "v": 61
    },
    {
      "midi": 88,
      "hit": false,
      "t": 174075,
      "d": 2450,
      "v": 61
    },
    {
      "midi": 52,
      "hit": false,
      "t": 175462.5,
      "d": 1500,
      "v": 56
    },
    {
      "midi": 57,
      "hit": false,
      "t": 177025,
      "d": 1500,
      "v": 60
    },
    {
      "midi": 76,
      "hit": false,
      "t": 177700,
      "d": 862.5,
      "v": 41
    },
    {
      "midi": 81,
      "hit": false,
      "t": 178512.5,
      "d": 862.5,
      "v": 49
    },
    {
      "midi": 85,
      "hit": false,
      "t": 179300,
      "d": 762.5,
      "v": 56
    },
    {
      "midi": 47,
      "hit": false,
      "t": 179975,
      "d": 3000,
      "v": 68
    },
    {
      "midi": 83,
      "hit": false,
      "t": 180062.5,
      "d": 2700,
      "v": 80
    },
    {
      "midi": 54,
      "hit": false,
      "t": 181512.5,
      "d": 1500,
      "v": 28
    },
    {
      "midi": 59,
      "hit": false,
      "t": 183000,
      "d": 1500,
      "v": 64
    },
    {
      "midi": 76,
      "hit": false,
      "t": 183012.5,
      "d": 1987.5,
      "v": 60
    },
    {
      "midi": 80,
      "hit": false,
      "t": 183075,
      "d": 1475,
      "v": 60
    },
    {
      "midi": 54,
      "hit": false,
      "t": 184512.5,
      "d": 1500,
      "v": 56
    },
    {
      "midi": 78,
      "hit": false,
      "t": 185937.5,
      "d": 3000,
      "v": 64
    },
    {
      "midi": 47,
      "hit": false,
      "t": 185950,
      "d": 3000,
      "v": 64
    },
    {
      "midi": 57,
      "hit": false,
      "t": 186000,
      "d": 3000,
      "v": 64
    },
    {
      "midi": 75,
      "hit": false,
      "t": 186037.5,
      "d": 2212.5,
      "v": 64
    },
    {
      "midi": 72,
      "hit": false,
      "t": 188975,
      "d": 1500,
      "v": 59
    },
    {
      "midi": 80,
      "hit": false,
      "t": 189062.5,
      "d": 1500,
      "v": 59
    },
    {
      "midi": 44,
      "hit": false,
      "t": 189062.5,
      "d": 3000,
      "v": 59
    },
    {
      "midi": 49,
      "hit": false,
      "t": 191975,
      "d": 1500,
      "v": 64
    },
    {
      "midi": 80,
      "hit": false,
      "t": 191987.5,
      "d": 3750,
      "v": 68
    },
    {
      "midi": 85,
      "hit": false,
      "t": 192012.5,
      "d": 3750,
      "v": 80
    },
    {
      "midi": 56,
      "hit": false,
      "t": 193450,
      "d": 1500,
      "v": 52
    },
    {
      "midi": 61,
      "hit": false,
      "t": 194950,
      "d": 737.5,
      "v": 39
    },
    {
      "midi": 88,
      "hit": false,
      "t": 196437.5,
      "d": 1500,
      "v": 96
    },
    {
      "midi": 47,
      "hit": false,
      "t": 196550,
      "d": 737.5,
      "v": 56
    },
    {
      "midi": 87,
      "hit": false,
      "t": 198025,
      "d": 1500,
      "v": 72
    },
    {
      "midi": 45,
      "hit": false,
      "t": 198037.5,
      "d": 1500,
      "v": 42
    },
    {
      "midi": 85,
      "hit": false,
      "t": 199450,
      "d": 1500,
      "v": 80
    },
    {
      "midi": 52,
      "hit": false,
      "t": 199475,
      "d": 1500,
      "v": 68
    },
    {
      "midi": 57,
      "hit": false,
      "t": 200937.5,
      "d": 1500,
      "v": 64
    },
    {
      "midi": 83,
      "hit": false,
      "t": 201012.5,
      "d": 1500,
      "v": 88
    },
    {
      "midi": 52,
      "hit": false,
      "t": 202437.5,
      "d": 737.5,
      "v": 64
    },
    {
      "midi": 81,
      "hit": false,
      "t": 202550,
      "d": 1500,
      "v": 80
    },
    {
      "midi": 80,
      "hit": false,
      "t": 204000,
      "d": 2987.5,
      "v": 88
    },
    {
      "midi": 47,
      "hit": false,
      "t": 204050,
      "d": 1500,
      "v": 68
    },
    {
      "midi": 54,
      "hit": false,
      "t": 205487.5,
      "d": 1500,
      "v": 39
    },
    {
      "midi": 59,
      "hit": false,
      "t": 206987.5,
      "d": 1500,
      "v": 64
    },
    {
      "midi": 76,
      "hit": false,
      "t": 207787.5,
      "d": 737.5,
      "v": 58
    },
    {
      "midi": 54,
      "hit": false,
      "t": 208475,
      "d": 1500,
      "v": 57
    },
    {
      "midi": 80,
      "hit": false,
      "t": 208500,
      "d": 1500,
      "v": 57
    },
    {
      "midi": 83,
      "hit": false,
      "t": 209237.5,
      "d": 1500,
      "v": 56
    },
    {
      "midi": 57,
      "hit": false,
      "t": 210000,
      "d": 737.5,
      "v": 65
    },
    {
      "midi": 78,
      "hit": false,
      "t": 210037.5,
      "d": 2250,
      "v": 65
    },
    {
      "midi": 44,
      "hit": false,
      "t": 212950,
      "d": 1500,
      "v": 60
    },
    {
      "midi": 72,
      "hit": false,
      "t": 212975,
      "d": 737.5,
      "v": 64
    },
    {
      "midi": 56,
      "hit": false,
      "t": 212975,
      "d": 1500,
      "v": 48
    },
    {
      "midi": 80,
      "hit": false,
      "t": 213012.5,
      "d": 737.5,
      "v": 80
    },
    {
      "midi": 78,
      "hit": false,
      "t": 214562.5,
      "d": 1500,
      "v": 88
    },
    {
      "midi": 49,
      "hit": false,
      "t": 215975,
      "d": 1500,
      "v": 80
    },
    {
      "midi": 76,
      "hit": false,
      "t": 216012.5,
      "d": 3000,
      "v": 88
    },
    {
      "midi": 56,
      "hit": false,
      "t": 217550,
      "d": 1500,
      "v": 52
    },
    {
      "midi": 61,
      "hit": false,
      "t": 219025,
      "d": 737.5,
      "v": 42
    },
    {
      "midi": 88,
      "hit": false,
      "t": 220450,
      "d": 1500,
      "v": 96
    },
    {
      "midi": 47,
      "hit": false,
      "t": 220475,
      "d": 737.5,
      "v": 72
    },
    {
      "midi": 45,
      "hit": false,
      "t": 221950,
      "d": 1500,
      "v": 80
    },
    {
      "midi": 87,
      "hit": false,
      "t": 221987.5,
      "d": 1500,
      "v": 72
    },
    {
      "midi": 85,
      "hit": false,
      "t": 223450,
      "d": 1500,
      "v": 68
    },
    {
      "midi": 52,
      "hit": false,
      "t": 223537.5,
      "d": 1500,
      "v": 68
    },
    {
      "midi": 57,
      "hit": false,
      "t": 225000,
      "d": 1500,
      "v": 68
    },
    {
      "midi": 83,
      "hit": false,
      "t": 225037.5,
      "d": 1500,
      "v": 88
    },
    {
      "midi": 52,
      "hit": false,
      "t": 226512.5,
      "d": 737.5,
      "v": 68
    },
    {
      "midi": 81,
      "hit": false,
      "t": 226562.5,
      "d": 1500,
      "v": 80
    },
    {
      "midi": 80,
      "hit": false,
      "t": 228012.5,
      "d": 3750,
      "v": 80
    },
    {
      "midi": 47,
      "hit": false,
      "t": 228062.5,
      "d": 1500,
      "v": 88
    },
    {
      "midi": 54,
      "hit": false,
      "t": 229525,
      "d": 1500,
      "v": 65
    },
    {
      "midi": 59,
      "hit": false,
      "t": 230975,
      "d": 1500,
      "v": 80
    },
    {
      "midi": 76,
      "hit": false,
      "t": 231687.5,
      "d": 737.5,
      "v": 80
    },
    {
      "midi": 54,
      "hit": false,
      "t": 232450,
      "d": 1500,
      "v": 56
    },
    {
      "midi": 80,
      "hit": false,
      "t": 232475,
      "d": 737.5,
      "v": 88
    },
    {
      "midi": 83,
      "hit": false,
      "t": 233187.5,
      "d": 737.5,
      "v": 80
    },
    {
      "midi": 57,
      "hit": false,
      "t": 234000,
      "d": 3000,
      "v": 72
    },
    {
      "midi": 78,
      "hit": false,
      "t": 234025,
      "d": 1500,
      "v": 96
    },
    {
      "midi": 80,
      "hit": false,
      "t": 236950,
      "d": 1500,
      "v": 106
    },
    {
      "midi": 56,
      "hit": false,
      "t": 236962.5,
      "d": 737.5,
      "v": 106
    },
    {
      "midi": 72,
      "hit": false,
      "t": 237050,
      "d": 1500,
      "v": 106
    },
    {
      "midi": 78,
      "hit": false,
      "t": 238550,
      "d": 1500,
      "v": 89
    },
    {
      "midi": 49,
      "hit": false,
      "t": 240012.5,
      "d": 1500,
      "v": 105
    },
    {
      "midi": 76,
      "hit": false,
      "t": 240012.5,
      "d": 4500,
      "v": 105
    },
    {
      "midi": 56,
      "hit": false,
      "t": 241525,
      "d": 1500,
      "v": 73
    },
    {
      "midi": 61,
      "hit": false,
      "t": 242950,
      "d": 737.5,
      "v": 88
    },
    {
      "midi": 47,
      "hit": false,
      "t": 244500,
      "d": 737.5,
      "v": 80
    },
    {
      "midi": 88,
      "hit": false,
      "t": 244525,
      "d": 1500,
      "v": 80
    },
    {
      "midi": 45,
      "hit": false,
      "t": 246000,
      "d": 1500,
      "v": 103
    },
    {
      "midi": 87,
      "hit": false,
      "t": 246050,
      "d": 1487.5,
      "v": 103
    },
    {
      "midi": 85,
      "hit": false,
      "t": 247437.5,
      "d": 1500,
      "v": 70
    },
    {
      "midi": 52,
      "hit": false,
      "t": 247500,
      "d": 1500,
      "v": 70
    },
    {
      "midi": 83,
      "hit": false,
      "t": 248950,
      "d": 1487.5,
      "v": 96
    },
    {
      "midi": 57,
      "hit": false,
      "t": 248987.5,
      "d": 1500,
      "v": 96
    },
    {
      "midi": 52,
      "hit": false,
      "t": 250525,
      "d": 737.5,
      "v": 71
    },
    {
      "midi": 81,
      "hit": false,
      "t": 250525,
      "d": 1500,
      "v": 71
    },
    {
      "midi": 78,
      "hit": false,
      "t": 252012.5,
      "d": 737.5,
      "v": 98
    },
    {
      "midi": 44,
      "hit": false,
      "t": 252012.5,
      "d": 1500,
      "v": 98
    },
    {
      "midi": 68,
      "hit": false,
      "t": 252712.5,
      "d": 737.5,
      "v": 49
    },
    {
      "midi": 72,
      "hit": false,
      "t": 253437.5,
      "d": 737.5,
      "v": 48
    },
    {
      "midi": 78,
      "hit": false,
      "t": 254200,
      "d": 737.5,
      "v": 51
    },
    {
      "midi": 48,
      "hit": false,
      "t": 254962.5,
      "d": 1500,
      "v": 87
    },
    {
      "midi": 80,
      "hit": false,
      "t": 255012.5,
      "d": 737.5,
      "v": 87
    },
    {
      "midi": 75,
      "hit": false,
      "t": 255725,
      "d": 737.5,
      "v": 46
    },
    {
      "midi": 76,
      "hit": false,
      "t": 256475,
      "d": 737.5,
      "v": 46
    },
    {
      "midi": 78,
      "hit": false,
      "t": 257237.5,
      "d": 737.5,
      "v": 55
    },
    {
      "midi": 76,
      "hit": false,
      "t": 258025,
      "d": 737.5,
      "v": 95
    },
    {
      "midi": 49,
      "hit": false,
      "t": 258037.5,
      "d": 1500,
      "v": 95
    },
    {
      "midi": 68,
      "hit": false,
      "t": 258787.5,
      "d": 737.5,
      "v": 70
    },
    {
      "midi": 73,
      "hit": false,
      "t": 259537.5,
      "d": 737.5,
      "v": 55
    },
    {
      "midi": 76,
      "hit": false,
      "t": 260250,
      "d": 737.5,
      "v": 54
    },
    {
      "midi": 46,
      "hit": false,
      "t": 260950,
      "d": 1500,
      "v": 90
    },
    {
      "midi": 78,
      "hit": false,
      "t": 261012.5,
      "d": 737.5,
      "v": 90
    },
    {
      "midi": 70,
      "hit": false,
      "t": 261787.5,
      "d": 737.5,
      "v": 66
    },
    {
      "midi": 73,
      "hit": false,
      "t": 262550,
      "d": 737.5,
      "v": 62
    },
    {
      "midi": 76,
      "hit": false,
      "t": 263200,
      "d": 737.5,
      "v": 48
    },
    {
      "midi": 75,
      "hit": false,
      "t": 264012.5,
      "d": 737.5,
      "v": 103
    },
    {
      "midi": 47,
      "hit": false,
      "t": 264037.5,
      "d": 1500,
      "v": 103
    },
    {
      "midi": 66,
      "hit": false,
      "t": 264737.5,
      "d": 737.5,
      "v": 94
    },
    {
      "midi": 71,
      "hit": false,
      "t": 265462.5,
      "d": 737.5,
      "v": 82
    },
    {
      "midi": 54,
      "hit": false,
      "t": 265537.5,
      "d": 1500,
      "v": 82
    },
    {
      "midi": 75,
      "hit": false,
      "t": 266200,
      "d": 737.5,
      "v": 87
    },
    {
      "midi": 59,
      "hit": false,
      "t": 267037.5,
      "d": 1500,
      "v": 101
    },
    {
      "midi": 78,
      "hit": false,
      "t": 267050,
      "d": 737.5,
      "v": 101
    },
    {
      "midi": 76,
      "hit": false,
      "t": 267687.5,
      "d": 737.5,
      "v": 94
    },
    {
      "midi": 75,
      "hit": false,
      "t": 268487.5,
      "d": 737.5,
      "v": 90
    },
    {
      "midi": 73,
      "hit": false,
      "t": 269262.5,
      "d": 737.5,
      "v": 84
    },
    {
      "midi": 44,
      "hit": false,
      "t": 270012.5,
      "d": 3000,
      "v": 95
    },
    {
      "midi": 71,
      "hit": false,
      "t": 270012.5,
      "d": 3000,
      "v": 95
    },
    {
      "midi": 68,
      "hit": false,
      "t": 272962.5,
      "d": 2250,
      "v": 64
    },
    {
      "midi": 69,
      "hit": false,
      "t": 276025,
      "d": 4487.5,
      "v": 79
    },
    {
      "midi": 45,
      "hit": false,
      "t": 276050,
      "d": 1500,
      "v": 79
    },
    {
      "midi": 73,
      "hit": false,
      "t": 276062.5,
      "d": 5250,
      "v": 79
    },
    {
      "midi": 52,
      "hit": false,
      "t": 277462.5,
      "d": 1500,
      "v": 68
    },
    {
      "midi": 57,
      "hit": false,
      "t": 279000,
      "d": 1500,
      "v": 72
    },
    {
      "midi": 44,
      "hit": false,
      "t": 280562.5,
      "d": 1500,
      "v": 64
    },
    {
      "midi": 42,
      "hit": false,
      "t": 281937.5,
      "d": 1500,
      "v": 73
    },
    {
      "midi": 66,
      "hit": false,
      "t": 281987.5,
      "d": 4487.5,
      "v": 73
    },
    {
      "midi": 69,
      "hit": false,
      "t": 282050,
      "d": 4500,
      "v": 73
    },
    {
      "midi": 49,
      "hit": false,
      "t": 283487.5,
      "d": 1500,
      "v": 65
    },
    {
      "midi": 54,
      "hit": false,
      "t": 284950,
      "d": 1500,
      "v": 67
    },
    {
      "midi": 69,
      "hit": false,
      "t": 287937.5,
      "d": 1500,
      "v": 74
    },
    {
      "midi": 45,
      "hit": false,
      "t": 287962.5,
      "d": 1500,
      "v": 74
    },
    {
      "midi": 64,
      "hit": false,
      "t": 288062.5,
      "d": 2250,
      "v": 74
    },
    {
      "midi": 45,
      "hit": false,
      "t": 290950,
      "d": 1500,
      "v": 74
    },
    {
      "midi": 64,
      "hit": false,
      "t": 291012.5,
      "d": 2250,
      "v": 74
    },
    {
      "midi": 69,
      "hit": false,
      "t": 291012.5,
      "d": 2250,
      "v": 74
    },
    {
      "midi": 61,
      "hit": false,
      "t": 291037.5,
      "d": 2250,
      "v": 74
    },
    {
      "midi": 57,
      "hit": false,
      "t": 293937.5,
      "d": 1500,
      "v": 74
    },
    {
      "midi": 69,
      "hit": false,
      "t": 293950,
      "d": 1500,
      "v": 74
    },
    {
      "midi": 64,
      "hit": false,
      "t": 293962.5,
      "d": 1500,
      "v": 74
    },
    {
      "midi": 61,
      "hit": false,
      "t": 293987.5,
      "d": 1500,
      "v": 74
    },
    {
      "midi": 45,
      "hit": false,
      "t": 294062.5,
      "d": 1500,
      "v": 74
    },
    {
      "midi": 61,
      "hit": false,
      "t": 296937.5,
      "d": 737.5,
      "v": 74
    },
    {
      "midi": 69,
      "hit": false,
      "t": 296937.5,
      "d": 737.5,
      "v": 74
    },
    {
      "midi": 45,
      "hit": false,
      "t": 296937.5,
      "d": 1500,
      "v": 74
    },
    {
      "midi": 57,
      "hit": false,
      "t": 296975,
      "d": 1500,
      "v": 74
    },
    {
      "midi": 64,
      "hit": false,
      "t": 296987.5,
      "d": 737.5,
      "v": 74
    },
    {
      "midi": 63,
      "hit": false,
      "t": 299937.5,
      "d": 1500,
      "v": 74
    },
    {
      "midi": 44,
      "hit": false,
      "t": 299987.5,
      "d": 1500,
      "v": 74
    },
    {
      "midi": 56,
      "hit": false,
      "t": 299987.5,
      "d": 1500,
      "v": 74
    },
    {
      "midi": 68,
      "hit": false,
      "t": 300025,
      "d": 2250,
      "v": 74
    },
    {
      "midi": 60,
      "hit": false,
      "t": 300050,
      "d": 2250,
      "v": 74
    },
    {
      "midi": 56,
      "hit": false,
      "t": 303000,
      "d": 1500,
      "v": 74
    },
    {
      "midi": 60,
      "hit": false,
      "t": 303025,
      "d": 737.5,
      "v": 74
    },
    {
      "midi": 63,
      "hit": false,
      "t": 303025,
      "d": 737.5,
      "v": 74
    },
    {
      "midi": 68,
      "hit": false,
      "t": 303037.5,
      "d": 737.5,
      "v": 74
    },
    {
      "midi": 44,
      "hit": false,
      "t": 303050,
      "d": 1500,
      "v": 74
    },
    {
      "midi": 54,
      "hit": false,
      "t": 305987.5,
      "d": 1500,
      "v": 73
    },
    {
      "midi": 42,
      "hit": false,
      "t": 306025,
      "d": 1500,
      "v": 73
    },
    {
      "midi": 61,
      "hit": false,
      "t": 306212.5,
      "d": 737.5,
      "v": 73
    },
    {
      "midi": 66,
      "hit": false,
      "t": 306300,
      "d": 737.5,
      "v": 73
    },
    {
      "midi": 70,
      "hit": false,
      "t": 306450,
      "d": 1500,
      "v": 75
    },
    {
      "midi": 44,
      "hit": false,
      "t": 309000,
      "d": 1500,
      "v": 73
    },
    {
      "midi": 56,
      "hit": false,
      "t": 309062.5,
      "d": 1500,
      "v": 73
    },
    {
      "midi": 63,
      "hit": false,
      "t": 309275,
      "d": 737.5,
      "v": 87
    },
    {
      "midi": 68,
      "hit": false,
      "t": 309475,
      "d": 737.5,
      "v": 94
    },
    {
      "midi": 72,
      "hit": false,
      "t": 309537.5,
      "d": 1500,
      "v": 102
    },
    {
      "midi": 37,
      "hit": false,
      "t": 311937.5,
      "d": 1487.5,
      "v": 68
    },
    {
      "midi": 68,
      "hit": false,
      "t": 312025,
      "d": 1487.5,
      "v": 68
    },
    {
      "midi": 65,
      "hit": false,
      "t": 312037.5,
      "d": 1487.5,
      "v": 68
    },
    {
      "midi": 61,
      "hit": false,
      "t": 312050,
      "d": 1487.5,
      "v": 68
    },
    {
      "midi": 53,
      "hit": false,
      "t": 314937.5,
      "d": 3000,
      "v": 69
    },
    {
      "midi": 65,
      "hit": false,
      "t": 315062.5,
      "d": 3000,
      "v": 69
    },
    {
      "midi": 49,
      "hit": false,
      "t": 317937.5,
      "d": 4500,
      "v": 68
    },
    {
      "midi": 68,
      "hit": false,
      "t": 317950,
      "d": 3000,
      "v": 68
    },
    {
      "midi": 61,
      "hit": false,
      "t": 317975,
      "d": 37.5,
      "v": 68
    },
    {
      "midi": 65,
      "hit": false,
      "t": 318062.5,
      "d": 1487.5,
      "v": 68
    },
    {
      "midi": 68,
      "hit": false,
      "t": 320975,
      "d": 1487.5,
      "v": 67
    },
    {
      "midi": 61,
      "hit": false,
      "t": 321012.5,
      "d": 1487.5,
      "v": 67
    },
    {
      "midi": 65,
      "hit": false,
      "t": 321062.5,
      "d": 1487.5,
      "v": 67
    },
    {
      "midi": 70,
      "hit": false,
      "t": 323950,
      "d": 3000,
      "v": 66
    },
    {
      "midi": 66,
      "hit": false,
      "t": 323962.5,
      "d": 1487.5,
      "v": 66
    },
    {
      "midi": 42,
      "hit": false,
      "t": 323962.5,
      "d": 3000,
      "v": 66
    },
    {
      "midi": 61,
      "hit": false,
      "t": 324025,
      "d": 1487.5,
      "v": 66
    },
    {
      "midi": 66,
      "hit": false,
      "t": 326950,
      "d": 1487.5,
      "v": 65
    },
    {
      "midi": 54,
      "hit": false,
      "t": 327050,
      "d": 1487.5,
      "v": 65
    },
    {
      "midi": 61,
      "hit": false,
      "t": 327050,
      "d": 1487.5,
      "v": 65
    },
    {
      "midi": 66,
      "hit": false,
      "t": 329937.5,
      "d": 3000,
      "v": 65
    },
    {
      "midi": 54,
      "hit": false,
      "t": 329950,
      "d": 1487.5,
      "v": 65
    },
    {
      "midi": 70,
      "hit": false,
      "t": 329987.5,
      "d": 3000,
      "v": 65
    },
    {
      "midi": 61,
      "hit": false,
      "t": 330037.5,
      "d": 3000,
      "v": 65
    },
    {
      "midi": 65,
      "hit": false,
      "t": 332962.5,
      "d": 3000,
      "v": 65
    },
    {
      "midi": 53,
      "hit": false,
      "t": 333000,
      "d": 3000,
      "v": 65
    },
    {
      "midi": 61,
      "hit": false,
      "t": 333037.5,
      "d": 1487.5,
      "v": 65
    },
    {
      "midi": 51,
      "hit": false,
      "t": 335950,
      "d": 4500,
      "v": 66
    },
    {
      "midi": 70,
      "hit": false,
      "t": 335975,
      "d": 75,
      "v": 66
    },
    {
      "midi": 63,
      "hit": false,
      "t": 338962.5,
      "d": 25,
      "v": 66
    },
    {
      "midi": 66,
      "hit": false,
      "t": 338962.5,
      "d": 100,
      "v": 66
    },
    {
      "midi": 63,
      "hit": false,
      "t": 341950,
      "d": 1487.5,
      "v": 66
    },
    {
      "midi": 70,
      "hit": false,
      "t": 341962.5,
      "d": 1487.5,
      "v": 66
    },
    {
      "midi": 66,
      "hit": false,
      "t": 342012.5,
      "d": 1487.5,
      "v": 66
    },
    {
      "midi": 51,
      "hit": false,
      "t": 342050,
      "d": 3000,
      "v": 66
    },
    {
      "midi": 63,
      "hit": false,
      "t": 344962.5,
      "d": 1487.5,
      "v": 65
    },
    {
      "midi": 70,
      "hit": false,
      "t": 345037.5,
      "d": 1487.5,
      "v": 65
    },
    {
      "midi": 66,
      "hit": false,
      "t": 345062.5,
      "d": 1487.5,
      "v": 65
    },
    {
      "midi": 63,
      "hit": false,
      "t": 348000,
      "d": 1487.5,
      "v": 67
    },
    {
      "midi": 68,
      "hit": false,
      "t": 348025,
      "d": 1487.5,
      "v": 67
    },
    {
      "midi": 60,
      "hit": false,
      "t": 348062.5,
      "d": 1487.5,
      "v": 67
    },
    {
      "midi": 44,
      "hit": false,
      "t": 348062.5,
      "d": 3000,
      "v": 67
    },
    {
      "midi": 68,
      "hit": false,
      "t": 350950,
      "d": 1487.5,
      "v": 49
    },
    {
      "midi": 75,
      "hit": false,
      "t": 350987.5,
      "d": 1237.5,
      "v": 88
    },
    {
      "midi": 60,
      "hit": false,
      "t": 351012.5,
      "d": 1487.5,
      "v": 49
    },
    {
      "midi": 63,
      "hit": false,
      "t": 351012.5,
      "d": 1487.5,
      "v": 49
    },
    {
      "midi": 82,
      "hit": false,
      "t": 351062.5,
      "d": 1237.5,
      "v": 88
    },
    {
      "midi": 85,
      "hit": false,
      "t": 352475,
      "d": 1100,
      "v": 68
    },
    {
      "midi": 84,
      "hit": false,
      "t": 353975,
      "d": 1087.5,
      "v": 96
    },
    {
      "midi": 78,
      "hit": false,
      "t": 353987.5,
      "d": 2987.5,
      "v": 41
    },
    {
      "midi": 56,
      "hit": false,
      "t": 354062.5,
      "d": 3000,
      "v": 41
    },
    {
      "midi": 84,
      "hit": false,
      "t": 356962.5,
      "d": 662.5,
      "v": 104
    },
    {
      "midi": 78,
      "hit": false,
      "t": 357000,
      "d": 2987.5,
      "v": 41
    },
    {
      "midi": 54,
      "hit": false,
      "t": 357012.5,
      "d": 1487.5,
      "v": 41
    },
    {
      "midi": 66,
      "hit": false,
      "t": 357025,
      "d": 1087.5,
      "v": 96
    },
    {
      "midi": 85,
      "hit": false,
      "t": 358112.5,
      "d": 512.5,
      "v": 88
    },
    {
      "midi": 87,
      "hit": false,
      "t": 359187.5,
      "d": 412.5,
      "v": 102
    },
    {
      "midi": 77,
      "hit": false,
      "t": 359962.5,
      "d": 737.5,
      "v": 98
    },
    {
      "midi": 53,
      "hit": false,
      "t": 359987.5,
      "d": 6000,
      "v": 98
    },
    {
      "midi": 87,
      "hit": false,
      "t": 360200,
      "d": 412.5,
      "v": 98
    },
    {
      "midi": 77,
      "hit": false,
      "t": 361462.5,
      "d": 375,
      "v": 89
    },
    {
      "midi": 80,
      "hit": false,
      "t": 361525,
      "d": 375,
      "v": 89
    },
    {
      "midi": 77,
      "hit": false,
      "t": 362262.5,
      "d": 3550,
      "v": 81
    },
    {
      "midi": 80,
      "hit": false,
      "t": 362275,
      "d": 3475,
      "v": 81
    },
    {
      "midi": 60,
      "hit": false,
      "t": 365937.5,
      "d": 2987.5,
      "v": 62
    },
    {
      "midi": 56,
      "hit": false,
      "t": 365937.5,
      "d": 3000,
      "v": 62
    },
    {
      "midi": 65,
      "hit": false,
      "t": 365962.5,
      "d": 3000,
      "v": 62
    },
    {
      "midi": 60,
      "hit": false,
      "t": 368937.5,
      "d": 1487.5,
      "v": 62
    },
    {
      "midi": 68,
      "hit": false,
      "t": 368987.5,
      "d": 50,
      "v": 62
    },
    {
      "midi": 65,
      "hit": false,
      "t": 369012.5,
      "d": 1487.5,
      "v": 62
    },
    {
      "midi": 54,
      "hit": false,
      "t": 371950,
      "d": 4500,
      "v": 62
    },
    {
      "midi": 66,
      "hit": false,
      "t": 371987.5,
      "d": 3000,
      "v": 62
    },
    {
      "midi": 61,
      "hit": false,
      "t": 372025,
      "d": 3000,
      "v": 62
    },
    {
      "midi": 70,
      "hit": false,
      "t": 374987.5,
      "d": 25,
      "v": 62
    },
    {
      "midi": 66,
      "hit": false,
      "t": 374987.5,
      "d": 1487.5,
      "v": 62
    },
    {
      "midi": 61,
      "hit": false,
      "t": 375025,
      "d": 1487.5,
      "v": 62
    },
    {
      "midi": 61,
      "hit": false,
      "t": 377962.5,
      "d": 3000,
      "v": 63
    },
    {
      "midi": 70,
      "hit": false,
      "t": 378012.5,
      "d": 3000,
      "v": 63
    },
    {
      "midi": 54,
      "hit": false,
      "t": 378050,
      "d": 3000,
      "v": 63
    },
    {
      "midi": 66,
      "hit": false,
      "t": 378062.5,
      "d": 1487.5,
      "v": 63
    },
    {
      "midi": 65,
      "hit": false,
      "t": 380962.5,
      "d": 3000,
      "v": 63
    },
    {
      "midi": 53,
      "hit": false,
      "t": 380987.5,
      "d": 3000,
      "v": 63
    },
    {
      "midi": 61,
      "hit": false,
      "t": 381050,
      "d": 1487.5,
      "v": 63
    },
    {
      "midi": 63,
      "hit": false,
      "t": 383937.5,
      "d": 1487.5,
      "v": 63
    },
    {
      "midi": 70,
      "hit": false,
      "t": 383962.5,
      "d": 50,
      "v": 63
    },
    {
      "midi": 51,
      "hit": false,
      "t": 383975,
      "d": 3000,
      "v": 63
    },
    {
      "midi": 66,
      "hit": false,
      "t": 383987.5,
      "d": 1487.5,
      "v": 63
    },
    {
      "midi": 70,
      "hit": false,
      "t": 387025,
      "d": 1487.5,
      "v": 49
    },
    {
      "midi": 63,
      "hit": false,
      "t": 387037.5,
      "d": 1487.5,
      "v": 49
    },
    {
      "midi": 66,
      "hit": false,
      "t": 387050,
      "d": 1487.5,
      "v": 49
    },
    {
      "midi": 68,
      "hit": false,
      "t": 389975,
      "d": 3000,
      "v": 54
    },
    {
      "midi": 44,
      "hit": false,
      "t": 389987.5,
      "d": 3000,
      "v": 54
    },
    {
      "midi": 72,
      "hit": false,
      "t": 389987.5,
      "d": 3000,
      "v": 54
    },
    {
      "midi": 63,
      "hit": false,
      "t": 392975,
      "d": 75,
      "v": 64
    },
    {
      "midi": 56,
      "hit": false,
      "t": 393037.5,
      "d": 1487.5,
      "v": 64
    },
    {
      "midi": 66,
      "hit": false,
      "t": 393037.5,
      "d": 1487.5,
      "v": 64
    },
    {
      "midi": 72,
      "hit": false,
      "t": 393037.5,
      "d": 1487.5,
      "v": 64
    },
    {
      "midi": 61,
      "hit": false,
      "t": 395950,
      "d": 3000,
      "v": 64
    },
    {
      "midi": 49,
      "hit": false,
      "t": 395962.5,
      "d": 3000,
      "v": 64
    },
    {
      "midi": 65,
      "hit": false,
      "t": 395962.5,
      "d": 3000,
      "v": 64
    },
    {
      "midi": 68,
      "hit": false,
      "t": 396037.5,
      "d": 1487.5,
      "v": 64
    },
    {
      "midi": 61,
      "hit": false,
      "t": 398950,
      "d": 3000,
      "v": 61
    },
    {
      "midi": 49,
      "hit": false,
      "t": 398987.5,
      "d": 4500,
      "v": 61
    },
    {
      "midi": 68,
      "hit": false,
      "t": 399000,
      "d": 3000,
      "v": 61
    },
    {
      "midi": 61,
      "hit": false,
      "t": 401962.5,
      "d": 3000,
      "v": 61
    },
    {
      "midi": 68,
      "hit": false,
      "t": 402000,
      "d": 1487.5,
      "v": 61
    },
    {
      "midi": 65,
      "hit": false,
      "t": 402025,
      "d": 25,
      "v": 61
    },
    {
      "midi": 65,
      "hit": false,
      "t": 404937.5,
      "d": 87.5,
      "v": 61
    },
    {
      "midi": 49,
      "hit": false,
      "t": 404987.5,
      "d": 1487.5,
      "v": 61
    },
    {
      "midi": 61,
      "hit": false,
      "t": 405025,
      "d": 1487.5,
      "v": 61
    },
    {
      "midi": 65,
      "hit": false,
      "t": 407937.5,
      "d": 1487.5,
      "v": 55
    },
    {
      "midi": 68,
      "hit": false,
      "t": 407950,
      "d": 1487.5,
      "v": 55
    },
    {
      "midi": 37,
      "hit": false,
      "t": 408000,
      "d": 1487.5,
      "v": 55
    },
    {
      "midi": 61,
      "hit": false,
      "t": 408000,
      "d": 1487.5,
      "v": 55
    },
    {
      "midi": 65,
      "hit": false,
      "t": 411000,
      "d": 1487.5,
      "v": 67
    },
    {
      "midi": 61,
      "hit": false,
      "t": 411062.5,
      "d": 1487.5,
      "v": 67
    },
    {
      "midi": 49,
      "hit": false,
      "t": 411062.5,
      "d": 3000,
      "v": 67
    },
    {
      "midi": 68,
      "hit": false,
      "t": 414000,
      "d": 1487.5,
      "v": 67
    },
    {
      "midi": 61,
      "hit": false,
      "t": 414037.5,
      "d": 3000,
      "v": 67
    },
    {
      "midi": 65,
      "hit": false,
      "t": 416987.5,
      "d": 37.5,
      "v": 54
    },
    {
      "midi": 68,
      "hit": false,
      "t": 416987.5,
      "d": 1487.5,
      "v": 54
    },
    {
      "midi": 56,
      "hit": false,
      "t": 417025,
      "d": 1487.5,
      "v": 54
    },
    {
      "midi": 70,
      "hit": false,
      "t": 419937.5,
      "d": 1487.5,
      "v": 60
    },
    {
      "midi": 65,
      "hit": false,
      "t": 419950,
      "d": 1487.5,
      "v": 60
    },
    {
      "midi": 46,
      "hit": false,
      "t": 419975,
      "d": 7500,
      "v": 60
    },
    {
      "midi": 61,
      "hit": false,
      "t": 420037.5,
      "d": 1487.5,
      "v": 60
    },
    {
      "midi": 73,
      "hit": false,
      "t": 422962.5,
      "d": 1487.5,
      "v": 60
    },
    {
      "midi": 77,
      "hit": false,
      "t": 422975,
      "d": 1487.5,
      "v": 60
    },
    {
      "midi": 58,
      "hit": false,
      "t": 423000,
      "d": 1487.5,
      "v": 60
    },
    {
      "midi": 75,
      "hit": false,
      "t": 424437.5,
      "d": 1487.5,
      "v": 60
    },
    {
      "midi": 73,
      "hit": false,
      "t": 424487.5,
      "d": 1487.5,
      "v": 60
    },
    {
      "midi": 58,
      "hit": false,
      "t": 426000,
      "d": 1487.5,
      "v": 64
    },
    {
      "midi": 75,
      "hit": false,
      "t": 426037.5,
      "d": 1487.5,
      "v": 64
    },
    {
      "midi": 73,
      "hit": false,
      "t": 427487.5,
      "d": 12.5,
      "v": 68
    },
    {
      "midi": 82,
      "hit": false,
      "t": 427500,
      "d": 1487.5,
      "v": 68
    },
    {
      "midi": 82,
      "hit": false,
      "t": 429050,
      "d": 3000,
      "v": 67
    },
    {
      "midi": 73,
      "hit": false,
      "t": 429062.5,
      "d": 1625,
      "v": 67
    },
    {
      "midi": 65,
      "hit": false,
      "t": 431975,
      "d": 1487.5,
      "v": 79
    },
    {
      "midi": 68,
      "hit": false,
      "t": 431975,
      "d": 1487.5,
      "v": 79
    },
    {
      "midi": 61,
      "hit": false,
      "t": 431987.5,
      "d": 1487.5,
      "v": 79
    },
    {
      "midi": 37,
      "hit": false,
      "t": 432050,
      "d": 3000,
      "v": 79
    },
    {
      "midi": 73,
      "hit": false,
      "t": 434187.5,
      "d": 737.5,
      "v": 83
    },
    {
      "midi": 77,
      "hit": false,
      "t": 434262.5,
      "d": 737.5,
      "v": 83
    },
    {
      "midi": 80,
      "hit": false,
      "t": 434937.5,
      "d": 37.5,
      "v": 80
    },
    {
      "midi": 49,
      "hit": false,
      "t": 434937.5,
      "d": 1487.5,
      "v": 80
    },
    {
      "midi": 77,
      "hit": false,
      "t": 435000,
      "d": 1487.5,
      "v": 80
    },
    {
      "midi": 73,
      "hit": false,
      "t": 435050,
      "d": 1487.5,
      "v": 80
    },
    {
      "midi": 49,
      "hit": false,
      "t": 438062.5,
      "d": 3000,
      "v": 64
    },
    {
      "midi": 61,
      "hit": false,
      "t": 440987.5,
      "d": 1487.5,
      "v": 60
    },
    {
      "midi": 65,
      "hit": false,
      "t": 441012.5,
      "d": 1487.5,
      "v": 80
    },
    {
      "midi": 68,
      "hit": false,
      "t": 441037.5,
      "d": 1487.5,
      "v": 56
    },
    {
      "midi": 42,
      "hit": false,
      "t": 443937.5,
      "d": 3000,
      "v": 88
    },
    {
      "midi": 61,
      "hit": false,
      "t": 444012.5,
      "d": 12.5,
      "v": 68
    },
    {
      "midi": 70,
      "hit": false,
      "t": 444012.5,
      "d": 3000,
      "v": 72
    },
    {
      "midi": 66,
      "hit": false,
      "t": 444037.5,
      "d": 3000,
      "v": 80
    },
    {
      "midi": 54,
      "hit": false,
      "t": 447012.5,
      "d": 3000,
      "v": 52
    },
    {
      "midi": 42,
      "hit": false,
      "t": 450012.5,
      "d": 3000,
      "v": 58
    },
    {
      "midi": 66,
      "hit": false,
      "t": 450025,
      "d": 3000,
      "v": 58
    },
    {
      "midi": 61,
      "hit": false,
      "t": 452937.5,
      "d": 100,
      "v": 59
    },
    {
      "midi": 65,
      "hit": false,
      "t": 452962.5,
      "d": 1487.5,
      "v": 59
    },
    {
      "midi": 70,
      "hit": false,
      "t": 452975,
      "d": 37.5,
      "v": 59
    },
    {
      "midi": 54,
      "hit": false,
      "t": 452975,
      "d": 1487.5,
      "v": 59
    },
    {
      "midi": 68,
      "hit": false,
      "t": 455962.5,
      "d": 3000,
      "v": 63
    },
    {
      "midi": 65,
      "hit": false,
      "t": 455987.5,
      "d": 3000,
      "v": 63
    },
    {
      "midi": 72,
      "hit": false,
      "t": 456037.5,
      "d": 3000,
      "v": 63
    },
    {
      "midi": 41,
      "hit": false,
      "t": 456050,
      "d": 3000,
      "v": 63
    },
    {
      "midi": 65,
      "hit": false,
      "t": 461962.5,
      "d": 1487.5,
      "v": 68
    },
    {
      "midi": 72,
      "hit": false,
      "t": 462000,
      "d": 1487.5,
      "v": 68
    },
    {
      "midi": 53,
      "hit": false,
      "t": 462012.5,
      "d": 3000,
      "v": 68
    },
    {
      "midi": 68,
      "hit": false,
      "t": 462050,
      "d": 1487.5,
      "v": 68
    },
    {
      "midi": 68,
      "hit": false,
      "t": 465037.5,
      "d": 1487.5,
      "v": 64
    },
    {
      "midi": 65,
      "hit": false,
      "t": 465050,
      "d": 1487.5,
      "v": 72
    },
    {
      "midi": 65,
      "hit": false,
      "t": 466562.5,
      "d": 1487.5,
      "v": 72
    },
    {
      "midi": 54,
      "hit": false,
      "t": 468037.5,
      "d": 3000,
      "v": 57
    },
    {
      "midi": 61,
      "hit": false,
      "t": 468050,
      "d": 1487.5,
      "v": 57
    },
    {
      "midi": 69,
      "hit": false,
      "t": 468062.5,
      "d": 1487.5,
      "v": 57
    },
    {
      "midi": 61,
      "hit": false,
      "t": 470962.5,
      "d": 1487.5,
      "v": 62
    },
    {
      "midi": 66,
      "hit": false,
      "t": 471012.5,
      "d": 37.5,
      "v": 62
    },
    {
      "midi": 61,
      "hit": false,
      "t": 473962.5,
      "d": 3000,
      "v": 68
    },
    {
      "midi": 69,
      "hit": false,
      "t": 473962.5,
      "d": 3000,
      "v": 72
    },
    {
      "midi": 54,
      "hit": false,
      "t": 474012.5,
      "d": 3000,
      "v": 68
    },
    {
      "midi": 61,
      "hit": false,
      "t": 477037.5,
      "d": 1487.5,
      "v": 64
    },
    {
      "midi": 66,
      "hit": false,
      "t": 477037.5,
      "d": 1487.5,
      "v": 64
    },
    {
      "midi": 71,
      "hit": false,
      "t": 479937.5,
      "d": 3000,
      "v": 68
    },
    {
      "midi": 47,
      "hit": false,
      "t": 480025,
      "d": 9000,
      "v": 68
    },
    {
      "midi": 64,
      "hit": false,
      "t": 482950,
      "d": 50,
      "v": 66
    },
    {
      "midi": 71,
      "hit": false,
      "t": 482975,
      "d": 1487.5,
      "v": 66
    },
    {
      "midi": 54,
      "hit": false,
      "t": 483012.5,
      "d": 3000,
      "v": 66
    },
    {
      "midi": 66,
      "hit": false,
      "t": 483050,
      "d": 1487.5,
      "v": 66
    },
    {
      "midi": 66,
      "hit": false,
      "t": 485962.5,
      "d": 3000,
      "v": 61
    },
    {
      "midi": 63,
      "hit": false,
      "t": 486000,
      "d": 3000,
      "v": 61
    },
    {
      "midi": 59,
      "hit": false,
      "t": 486037.5,
      "d": 3000,
      "v": 61
    },
    {
      "midi": 71,
      "hit": false,
      "t": 486037.5,
      "d": 3000,
      "v": 61
    },
    {
      "midi": 40,
      "hit": false,
      "t": 492025,
      "d": 1500,
      "v": 30
    },
    {
      "midi": 47,
      "hit": false,
      "t": 493450,
      "d": 1500,
      "v": 29
    },
    {
      "midi": 59,
      "hit": false,
      "t": 493562.5,
      "d": 1500,
      "v": 44
    },
    {
      "midi": 52,
      "hit": false,
      "t": 494937.5,
      "d": 8250,
      "v": 27
    },
    {
      "midi": 64,
      "hit": false,
      "t": 495025,
      "d": 1500,
      "v": 56
    },
    {
      "midi": 66,
      "hit": false,
      "t": 496437.5,
      "d": 1500,
      "v": 42
    },
    {
      "midi": 68,
      "hit": false,
      "t": 498062.5,
      "d": 737.5,
      "v": 36
    },
    {
      "midi": 71,
      "hit": false,
      "t": 499525,
      "d": 1500,
      "v": 50
    },
    {
      "midi": 76,
      "hit": false,
      "t": 500987.5,
      "d": 1500,
      "v": 50
    },
    {
      "midi": 78,
      "hit": false,
      "t": 502437.5,
      "d": 1500,
      "v": 61
    },
    {
      "midi": 80,
      "hit": false,
      "t": 503962.5,
      "d": 4500,
      "v": 61
    },
    {
      "midi": 42,
      "hit": false,
      "t": 504025,
      "d": 1500,
      "v": 27
    },
    {
      "midi": 49,
      "hit": false,
      "t": 505512.5,
      "d": 1500,
      "v": 25
    },
    {
      "midi": 54,
      "hit": false,
      "t": 506987.5,
      "d": 1500,
      "v": 27
    },
    {
      "midi": 81,
      "hit": false,
      "t": 508487.5,
      "d": 737.5,
      "v": 50
    },
    {
      "midi": 80,
      "hit": false,
      "t": 509275,
      "d": 737.5,
      "v": 42
    },
    {
      "midi": 47,
      "hit": false,
      "t": 509962.5,
      "d": 3000,
      "v": 29
    },
    {
      "midi": 59,
      "hit": false,
      "t": 510037.5,
      "d": 1500,
      "v": 27
    },
    {
      "midi": 78,
      "hit": false,
      "t": 510037.5,
      "d": 2250,
      "v": 67
    },
    {
      "midi": 72,
      "hit": false,
      "t": 512937.5,
      "d": 1500,
      "v": 36
    },
    {
      "midi": 57,
      "hit": false,
      "t": 512962.5,
      "d": 1500,
      "v": 21
    },
    {
      "midi": 80,
      "hit": false,
      "t": 513050,
      "d": 1500,
      "v": 44
    },
    {
      "midi": 48,
      "hit": false,
      "t": 513062.5,
      "d": 1500,
      "v": 27
    },
    {
      "midi": 78,
      "hit": false,
      "t": 514450,
      "d": 737.5,
      "v": 56
    },
    {
      "midi": 56,
      "hit": false,
      "t": 515950,
      "d": 4500,
      "v": 23
    },
    {
      "midi": 76,
      "hit": false,
      "t": 516012.5,
      "d": 4500,
      "v": 47
    },
    {
      "midi": 49,
      "hit": false,
      "t": 516037.5,
      "d": 4500,
      "v": 23
    },
    {
      "midi": 73,
      "hit": false,
      "t": 520512.5,
      "d": 737.5,
      "v": 56
    },
    {
      "midi": 75,
      "hit": false,
      "t": 521312.5,
      "d": 737.5,
      "v": 42
    },
    {
      "midi": 45,
      "hit": false,
      "t": 521975,
      "d": 3000,
      "v": 32
    },
    {
      "midi": 76,
      "hit": false,
      "t": 522000,
      "d": 2250,
      "v": 56
    },
    {
      "midi": 52,
      "hit": false,
      "t": 523487.5,
      "d": 1500,
      "v": 29
    },
    {
      "midi": 57,
      "hit": false,
      "t": 524987.5,
      "d": 1500,
      "v": 32
    },
    {
      "midi": 76,
      "hit": false,
      "t": 525712.5,
      "d": 737.5,
      "v": 47
    },
    {
      "midi": 81,
      "hit": false,
      "t": 526475,
      "d": 737.5,
      "v": 56
    },
    {
      "midi": 85,
      "hit": false,
      "t": 527287.5,
      "d": 737.5,
      "v": 47
    },
    {
      "midi": 47,
      "hit": false,
      "t": 527937.5,
      "d": 1500,
      "v": 39
    },
    {
      "midi": 83,
      "hit": false,
      "t": 527975,
      "d": 3000,
      "v": 47
    },
    {
      "midi": 54,
      "hit": false,
      "t": 529475,
      "d": 1500,
      "v": 18
    },
    {
      "midi": 80,
      "hit": false,
      "t": 530950,
      "d": 1725,
      "v": 56
    },
    {
      "midi": 83,
      "hit": false,
      "t": 531000,
      "d": 2250,
      "v": 53
    },
    {
      "midi": 59,
      "hit": false,
      "t": 531025,
      "d": 1500,
      "v": 37
    },
    {
      "midi": 54,
      "hit": false,
      "t": 532550,
      "d": 1500,
      "v": 18
    },
    {
      "midi": 47,
      "hit": false,
      "t": 534000,
      "d": 3000,
      "v": 32
    },
    {
      "midi": 81,
      "hit": false,
      "t": 534012.5,
      "d": 2250,
      "v": 67
    },
    {
      "midi": 57,
      "hit": false,
      "t": 534012.5,
      "d": 3000,
      "v": 25
    },
    {
      "midi": 78,
      "hit": false,
      "t": 534062.5,
      "d": 1737.5,
      "v": 50
    },
    {
      "midi": 87,
      "hit": false,
      "t": 536950,
      "d": 1425,
      "v": 36
    },
    {
      "midi": 78,
      "hit": false,
      "t": 537037.5,
      "d": 2362.5,
      "v": 47
    },
    {
      "midi": 85,
      "hit": false,
      "t": 538500,
      "d": 937.5,
      "v": 44
    },
    {
      "midi": 40,
      "hit": false,
      "t": 539962.5,
      "d": 1500,
      "v": 42
    },
    {
      "midi": 83,
      "hit": false,
      "t": 540025,
      "d": 2125,
      "v": 47
    },
    {
      "midi": 47,
      "hit": false,
      "t": 541500,
      "d": 1500,
      "v": 16
    },
    {
      "midi": 52,
      "hit": false,
      "t": 542937.5,
      "d": 1500,
      "v": 32
    },
    {
      "midi": 88,
      "hit": false,
      "t": 543037.5,
      "d": 2175,
      "v": 61
    },
    {
      "midi": 92,
      "hit": false,
      "t": 543050,
      "d": 2175,
      "v": 36
    },
    {
      "midi": 56,
      "hit": false,
      "t": 544512.5,
      "d": 1500,
      "v": 20
    },
    {
      "midi": 83,
      "hit": false,
      "t": 546025,
      "d": 1150,
      "v": 61
    },
    {
      "midi": 88,
      "hit": false,
      "t": 546025,
      "d": 1300,
      "v": 50
    },
    {
      "midi": 59,
      "hit": false,
      "t": 546025,
      "d": 1500,
      "v": 30
    },
    {
      "midi": 80,
      "hit": false,
      "t": 549000,
      "d": 1787.5,
      "v": 47
    },
    {
      "midi": 83,
      "hit": false,
      "t": 549062.5,
      "d": 2075,
      "v": 50
    },
    {
      "midi": 42,
      "hit": false,
      "t": 552050,
      "d": 1500,
      "v": 30
    },
    {
      "midi": 85,
      "hit": false,
      "t": 552050,
      "d": 2587.5,
      "v": 44
    },
    {
      "midi": 49,
      "hit": false,
      "t": 553475,
      "d": 1500,
      "v": 23
    },
    {
      "midi": 81,
      "hit": false,
      "t": 554987.5,
      "d": 1600,
      "v": 50
    },
    {
      "midi": 88,
      "hit": false,
      "t": 555000,
      "d": 2237.5,
      "v": 61
    },
    {
      "midi": 54,
      "hit": false,
      "t": 555050,
      "d": 1500,
      "v": 20
    },
    {
      "midi": 47,
      "hit": false,
      "t": 558037.5,
      "d": 3000,
      "v": 27
    },
    {
      "midi": 59,
      "hit": false,
      "t": 558050,
      "d": 1500,
      "v": 23
    },
    {
      "midi": 87,
      "hit": false,
      "t": 558087.5,
      "d": 1237.5,
      "v": 47
    },
    {
      "midi": 83,
      "hit": false,
      "t": 558112.5,
      "d": 1225,
      "v": 50
    },
    {
      "midi": 92,
      "hit": false,
      "t": 560962.5,
      "d": 1125,
      "v": 42
    },
    {
      "midi": 84,
      "hit": false,
      "t": 561037.5,
      "d": 1687.5,
      "v": 50
    },
    {
      "midi": 48,
      "hit": false,
      "t": 561050,
      "d": 1500,
      "v": 29
    },
    {
      "midi": 57,
      "hit": false,
      "t": 561062.5,
      "d": 1500,
      "v": 27
    },
    {
      "midi": 90,
      "hit": false,
      "t": 562550,
      "d": 587.5,
      "v": 61
    },
    {
      "midi": 56,
      "hit": false,
      "t": 563950,
      "d": 3000,
      "v": 17
    },
    {
      "midi": 49,
      "hit": false,
      "t": 563987.5,
      "d": 4500,
      "v": 30
    },
    {
      "midi": 88,
      "hit": false,
      "t": 564075,
      "d": 3575,
      "v": 50
    },
    {
      "midi": 85,
      "hit": false,
      "t": 568525,
      "d": 650,
      "v": 56
    },
    {
      "midi": 87,
      "hit": false,
      "t": 569212.5,
      "d": 612.5,
      "v": 50
    },
    {
      "midi": 45,
      "hit": false,
      "t": 569987.5,
      "d": 1500,
      "v": 30
    },
    {
      "midi": 88,
      "hit": false,
      "t": 570050,
      "d": 2450,
      "v": 56
    },
    {
      "midi": 52,
      "hit": false,
      "t": 571525,
      "d": 1500,
      "v": 27
    },
    {
      "midi": 57,
      "hit": false,
      "t": 573037.5,
      "d": 1500,
      "v": 29
    },
    {
      "midi": 76,
      "hit": false,
      "t": 573737.5,
      "d": 862.5,
      "v": 39
    },
    {
      "midi": 81,
      "hit": false,
      "t": 574537.5,
      "d": 862.5,
      "v": 50
    },
    {
      "midi": 85,
      "hit": false,
      "t": 575287.5,
      "d": 762.5,
      "v": 50
    },
    {
      "midi": 47,
      "hit": false,
      "t": 575937.5,
      "d": 3000,
      "v": 32
    },
    {
      "midi": 83,
      "hit": false,
      "t": 576150,
      "d": 2700,
      "v": 56
    },
    {
      "midi": 54,
      "hit": false,
      "t": 577525,
      "d": 1500,
      "v": 13
    },
    {
      "midi": 80,
      "hit": false,
      "t": 579000,
      "d": 1475,
      "v": 42
    },
    {
      "midi": 59,
      "hit": false,
      "t": 579037.5,
      "d": 1500,
      "v": 30
    },
    {
      "midi": 76,
      "hit": false,
      "t": 579125,
      "d": 1987.5,
      "v": 42
    },
    {
      "midi": 54,
      "hit": false,
      "t": 580450,
      "d": 1500,
      "v": 27
    },
    {
      "midi": 57,
      "hit": false,
      "t": 581937.5,
      "d": 3000,
      "v": 29
    },
    {
      "midi": 47,
      "hit": false,
      "t": 581950,
      "d": 3000,
      "v": 39
    },
    {
      "midi": 75,
      "hit": false,
      "t": 582025,
      "d": 2212.5,
      "v": 29
    },
    {
      "midi": 78,
      "hit": false,
      "t": 582062.5,
      "d": 3000,
      "v": 29
    },
    {
      "midi": 44,
      "hit": false,
      "t": 584975,
      "d": 3000,
      "v": 34
    },
    {
      "midi": 72,
      "hit": false,
      "t": 585000,
      "d": 1500,
      "v": 49
    },
    {
      "midi": 80,
      "hit": false,
      "t": 585062.5,
      "d": 1500,
      "v": 49
    },
    {
      "midi": 49,
      "hit": false,
      "t": 587987.5,
      "d": 1500,
      "v": 64
    },
    {
      "midi": 80,
      "hit": false,
      "t": 588037.5,
      "d": 3750,
      "v": 47
    },
    {
      "midi": 85,
      "hit": false,
      "t": 588050,
      "d": 3750,
      "v": 56
    },
    {
      "midi": 56,
      "hit": false,
      "t": 589550,
      "d": 1500,
      "v": 52
    },
    {
      "midi": 61,
      "hit": false,
      "t": 591062.5,
      "d": 737.5,
      "v": 39
    },
    {
      "midi": 88,
      "hit": false,
      "t": 592437.5,
      "d": 1500,
      "v": 67
    },
    {
      "midi": 47,
      "hit": false,
      "t": 592462.5,
      "d": 737.5,
      "v": 56
    },
    {
      "midi": 45,
      "hit": false,
      "t": 593962.5,
      "d": 1500,
      "v": 42
    },
    {
      "midi": 87,
      "hit": false,
      "t": 593987.5,
      "d": 1500,
      "v": 50
    },
    {
      "midi": 52,
      "hit": false,
      "t": 595562.5,
      "d": 1500,
      "v": 68
    },
    {
      "midi": 85,
      "hit": false,
      "t": 595562.5,
      "d": 1500,
      "v": 56
    },
    {
      "midi": 83,
      "hit": false,
      "t": 596937.5,
      "d": 1500,
      "v": 61
    },
    {
      "midi": 57,
      "hit": false,
      "t": 597012.5,
      "d": 1500,
      "v": 64
    },
    {
      "midi": 52,
      "hit": false,
      "t": 598437.5,
      "d": 737.5,
      "v": 64
    },
    {
      "midi": 81,
      "hit": false,
      "t": 598450,
      "d": 1500,
      "v": 56
    },
    {
      "midi": 47,
      "hit": false,
      "t": 599937.5,
      "d": 1500,
      "v": 68
    },
    {
      "midi": 80,
      "hit": false,
      "t": 599962.5,
      "d": 2987.5,
      "v": 61
    },
    {
      "midi": 54,
      "hit": false,
      "t": 601500,
      "d": 1500,
      "v": 39
    },
    {
      "midi": 59,
      "hit": false,
      "t": 602987.5,
      "d": 1500,
      "v": 64
    },
    {
      "midi": 76,
      "hit": false,
      "t": 603700,
      "d": 737.5,
      "v": 40
    },
    {
      "midi": 54,
      "hit": false,
      "t": 604437.5,
      "d": 1500,
      "v": 57
    },
    {
      "midi": 80,
      "hit": false,
      "t": 604512.5,
      "d": 1500,
      "v": 39
    },
    {
      "midi": 83,
      "hit": false,
      "t": 605200,
      "d": 1500,
      "v": 39
    },
    {
      "midi": 78,
      "hit": false,
      "t": 606012.5,
      "d": 2250,
      "v": 45
    },
    {
      "midi": 57,
      "hit": false,
      "t": 606062.5,
      "d": 737.5,
      "v": 65
    },
    {
      "midi": 56,
      "hit": false,
      "t": 608937.5,
      "d": 1500,
      "v": 48
    },
    {
      "midi": 80,
      "hit": false,
      "t": 609012.5,
      "d": 737.5,
      "v": 56
    },
    {
      "midi": 44,
      "hit": false,
      "t": 609012.5,
      "d": 1500,
      "v": 60
    },
    {
      "midi": 72,
      "hit": false,
      "t": 609025,
      "d": 737.5,
      "v": 44
    },
    {
      "midi": 78,
      "hit": false,
      "t": 610537.5,
      "d": 1500,
      "v": 61
    },
    {
      "midi": 49,
      "hit": false,
      "t": 612025,
      "d": 1500,
      "v": 80
    },
    {
      "midi": 76,
      "hit": false,
      "t": 612062.5,
      "d": 3000,
      "v": 61
    },
    {
      "midi": 56,
      "hit": false,
      "t": 613525,
      "d": 1500,
      "v": 52
    },
    {
      "midi": 61,
      "hit": false,
      "t": 614987.5,
      "d": 737.5,
      "v": 42
    },
    {
      "midi": 47,
      "hit": false,
      "t": 616487.5,
      "d": 737.5,
      "v": 72
    },
    {
      "midi": 88,
      "hit": false,
      "t": 616525,
      "d": 1500,
      "v": 67
    },
    {
      "midi": 87,
      "hit": false,
      "t": 617975,
      "d": 1500,
      "v": 50
    },
    {
      "midi": 45,
      "hit": false,
      "t": 618025,
      "d": 1500,
      "v": 80
    },
    {
      "midi": 52,
      "hit": false,
      "t": 619500,
      "d": 1500,
      "v": 68
    },
    {
      "midi": 85,
      "hit": false,
      "t": 619537.5,
      "d": 1500,
      "v": 47
    },
    {
      "midi": 83,
      "hit": false,
      "t": 620987.5,
      "d": 1500,
      "v": 61
    },
    {
      "midi": 57,
      "hit": false,
      "t": 621000,
      "d": 1500,
      "v": 68
    },
    {
      "midi": 52,
      "hit": false,
      "t": 622537.5,
      "d": 737.5,
      "v": 68
    },
    {
      "midi": 81,
      "hit": false,
      "t": 622562.5,
      "d": 1500,
      "v": 56
    },
    {
      "midi": 47,
      "hit": false,
      "t": 623987.5,
      "d": 1500,
      "v": 88
    },
    {
      "midi": 80,
      "hit": false,
      "t": 624037.5,
      "d": 3750,
      "v": 56
    },
    {
      "midi": 54,
      "hit": false,
      "t": 625487.5,
      "d": 1500,
      "v": 52
    },
    {
      "midi": 59,
      "hit": false,
      "t": 626950,
      "d": 1500,
      "v": 80
    },
    {
      "midi": 76,
      "hit": false,
      "t": 627712.5,
      "d": 737.5,
      "v": 56
    },
    {
      "midi": 80,
      "hit": false,
      "t": 628450,
      "d": 737.5,
      "v": 61
    },
    {
      "midi": 54,
      "hit": false,
      "t": 628550,
      "d": 1500,
      "v": 56
    },
    {
      "midi": 83,
      "hit": false,
      "t": 629237.5,
      "d": 737.5,
      "v": 56
    },
    {
      "midi": 78,
      "hit": false,
      "t": 629950,
      "d": 1500,
      "v": 67
    },
    {
      "midi": 57,
      "hit": false,
      "t": 630037.5,
      "d": 3000,
      "v": 72
    },
    {
      "midi": 72,
      "hit": false,
      "t": 632962.5,
      "d": 1500,
      "v": 56
    },
    {
      "midi": 80,
      "hit": false,
      "t": 633012.5,
      "d": 1500,
      "v": 50
    },
    {
      "midi": 56,
      "hit": false,
      "t": 633050,
      "d": 737.5,
      "v": 64
    },
    {
      "midi": 78,
      "hit": false,
      "t": 634562.5,
      "d": 1500,
      "v": 61
    },
    {
      "midi": 76,
      "hit": false,
      "t": 635962.5,
      "d": 4500,
      "v": 61
    },
    {
      "midi": 49,
      "hit": false,
      "t": 636000,
      "d": 1500,
      "v": 64
    },
    {
      "midi": 56,
      "hit": false,
      "t": 637537.5,
      "d": 1500,
      "v": 48
    },
    {
      "midi": 61,
      "hit": false,
      "t": 639037.5,
      "d": 737.5,
      "v": 31
    },
    {
      "midi": 88,
      "hit": false,
      "t": 640487.5,
      "d": 1500,
      "v": 67
    },
    {
      "midi": 47,
      "hit": false,
      "t": 640562.5,
      "d": 737.5,
      "v": 68
    },
    {
      "midi": 87,
      "hit": false,
      "t": 641975,
      "d": 1487.5,
      "v": 50
    },
    {
      "midi": 45,
      "hit": false,
      "t": 641975,
      "d": 1500,
      "v": 72
    },
    {
      "midi": 85,
      "hit": false,
      "t": 643450,
      "d": 1500,
      "v": 56
    },
    {
      "midi": 52,
      "hit": false,
      "t": 643550,
      "d": 1500,
      "v": 68
    },
    {
      "midi": 83,
      "hit": false,
      "t": 644962.5,
      "d": 1487.5,
      "v": 56
    },
    {
      "midi": 57,
      "hit": false,
      "t": 645050,
      "d": 1500,
      "v": 72
    },
    {
      "midi": 81,
      "hit": false,
      "t": 646437.5,
      "d": 1500,
      "v": 61
    },
    {
      "midi": 52,
      "hit": false,
      "t": 646500,
      "d": 737.5,
      "v": 80
    },
    {
      "midi": 44,
      "hit": false,
      "t": 648012.5,
      "d": 1500,
      "v": 62
    },
    {
      "midi": 78,
      "hit": false,
      "t": 648037.5,
      "d": 737.5,
      "v": 62
    },
    {
      "midi": 68,
      "hit": false,
      "t": 648787.5,
      "d": 737.5,
      "v": 39
    },
    {
      "midi": 72,
      "hit": false,
      "t": 649550,
      "d": 737.5,
      "v": 38
    },
    {
      "midi": 78,
      "hit": false,
      "t": 650187.5,
      "d": 737.5,
      "v": 38
    },
    {
      "midi": 48,
      "hit": false,
      "t": 650937.5,
      "d": 1500,
      "v": 52
    },
    {
      "midi": 80,
      "hit": false,
      "t": 650987.5,
      "d": 737.5,
      "v": 52
    },
    {
      "midi": 75,
      "hit": false,
      "t": 651737.5,
      "d": 737.5,
      "v": 32
    },
    {
      "midi": 76,
      "hit": false,
      "t": 652537.5,
      "d": 737.5,
      "v": 38
    },
    {
      "midi": 78,
      "hit": false,
      "t": 653250,
      "d": 737.5,
      "v": 53
    },
    {
      "midi": 76,
      "hit": false,
      "t": 654000,
      "d": 737.5,
      "v": 57
    },
    {
      "midi": 49,
      "hit": false,
      "t": 654025,
      "d": 1500,
      "v": 57
    },
    {
      "midi": 68,
      "hit": false,
      "t": 654787.5,
      "d": 737.5,
      "v": 49
    },
    {
      "midi": 73,
      "hit": false,
      "t": 655462.5,
      "d": 737.5,
      "v": 34
    },
    {
      "midi": 76,
      "hit": false,
      "t": 656262.5,
      "d": 737.5,
      "v": 53
    },
    {
      "midi": 46,
      "hit": false,
      "t": 656937.5,
      "d": 1500,
      "v": 56
    },
    {
      "midi": 78,
      "hit": false,
      "t": 656950,
      "d": 737.5,
      "v": 56
    },
    {
      "midi": 70,
      "hit": false,
      "t": 657812.5,
      "d": 737.5,
      "v": 46
    },
    {
      "midi": 73,
      "hit": false,
      "t": 658550,
      "d": 737.5,
      "v": 37
    },
    {
      "midi": 76,
      "hit": false,
      "t": 659300,
      "d": 737.5,
      "v": 44
    },
    {
      "midi": 75,
      "hit": false,
      "t": 659937.5,
      "d": 737.5,
      "v": 50
    },
    {
      "midi": 47,
      "hit": false,
      "t": 660012.5,
      "d": 1500,
      "v": 61
    },
    {
      "midi": 66,
      "hit": false,
      "t": 660750,
      "d": 737.5,
      "v": 57
    },
    {
      "midi": 71,
      "hit": false,
      "t": 661512.5,
      "d": 737.5,
      "v": 50
    },
    {
      "midi": 54,
      "hit": false,
      "t": 661550,
      "d": 1500,
      "v": 42
    },
    {
      "midi": 75,
      "hit": false,
      "t": 662287.5,
      "d": 737.5,
      "v": 59
    },
    {
      "midi": 78,
      "hit": false,
      "t": 663037.5,
      "d": 737.5,
      "v": 50
    },
    {
      "midi": 59,
      "hit": false,
      "t": 663037.5,
      "d": 1500,
      "v": 61
    },
    {
      "midi": 76,
      "hit": false,
      "t": 663712.5,
      "d": 737.5,
      "v": 60
    },
    {
      "midi": 75,
      "hit": false,
      "t": 664562.5,
      "d": 737.5,
      "v": 57
    },
    {
      "midi": 73,
      "hit": false,
      "t": 665287.5,
      "d": 737.5,
      "v": 63
    },
    {
      "midi": 44,
      "hit": false,
      "t": 665975,
      "d": 3000,
      "v": 47
    },
    {
      "midi": 71,
      "hit": false,
      "t": 666050,
      "d": 3000,
      "v": 72
    },
    {
      "midi": 68,
      "hit": false,
      "t": 669050,
      "d": 2250,
      "v": 64
    },
    {
      "midi": 73,
      "hit": false,
      "t": 672012.5,
      "d": 5250,
      "v": 79
    },
    {
      "midi": 45,
      "hit": false,
      "t": 672025,
      "d": 1500,
      "v": 55
    },
    {
      "midi": 69,
      "hit": false,
      "t": 672050,
      "d": 4487.5,
      "v": 79
    },
    {
      "midi": 52,
      "hit": false,
      "t": 673537.5,
      "d": 1500,
      "v": 47
    },
    {
      "midi": 57,
      "hit": false,
      "t": 675037.5,
      "d": 1500,
      "v": 50
    },
    {
      "midi": 44,
      "hit": false,
      "t": 676462.5,
      "d": 1500,
      "v": 44
    },
    {
      "midi": 42,
      "hit": false,
      "t": 677937.5,
      "d": 1500,
      "v": 51
    },
    {
      "midi": 66,
      "hit": false,
      "t": 677937.5,
      "d": 4487.5,
      "v": 73
    },
    {
      "midi": 69,
      "hit": false,
      "t": 677950,
      "d": 4500,
      "v": 73
    },
    {
      "midi": 49,
      "hit": false,
      "t": 679437.5,
      "d": 1500,
      "v": 45
    },
    {
      "midi": 54,
      "hit": false,
      "t": 680975,
      "d": 1500,
      "v": 46
    },
    {
      "midi": 69,
      "hit": false,
      "t": 683962.5,
      "d": 1500,
      "v": 74
    },
    {
      "midi": 64,
      "hit": false,
      "t": 683975,
      "d": 2250,
      "v": 74
    },
    {
      "midi": 45,
      "hit": false,
      "t": 684025,
      "d": 1500,
      "v": 51
    },
    {
      "midi": 61,
      "hit": false,
      "t": 686962.5,
      "d": 2250,
      "v": 74
    },
    {
      "midi": 69,
      "hit": false,
      "t": 686987.5,
      "d": 2250,
      "v": 74
    },
    {
      "midi": 64,
      "hit": false,
      "t": 687050,
      "d": 2250,
      "v": 74
    },
    {
      "midi": 45,
      "hit": false,
      "t": 687062.5,
      "d": 1500,
      "v": 51
    },
    {
      "midi": 45,
      "hit": false,
      "t": 689975,
      "d": 1500,
      "v": 51
    },
    {
      "midi": 57,
      "hit": false,
      "t": 690000,
      "d": 1500,
      "v": 51
    },
    {
      "midi": 64,
      "hit": false,
      "t": 690012.5,
      "d": 1500,
      "v": 74
    },
    {
      "midi": 69,
      "hit": false,
      "t": 690012.5,
      "d": 1500,
      "v": 74
    },
    {
      "midi": 61,
      "hit": false,
      "t": 690062.5,
      "d": 1500,
      "v": 74
    },
    {
      "midi": 45,
      "hit": false,
      "t": 692937.5,
      "d": 1500,
      "v": 51
    },
    {
      "midi": 57,
      "hit": false,
      "t": 692950,
      "d": 1500,
      "v": 51
    },
    {
      "midi": 69,
      "hit": false,
      "t": 693000,
      "d": 737.5,
      "v": 74
    },
    {
      "midi": 64,
      "hit": false,
      "t": 693037.5,
      "d": 737.5,
      "v": 74
    },
    {
      "midi": 61,
      "hit": false,
      "t": 693062.5,
      "d": 737.5,
      "v": 74
    },
    {
      "midi": 44,
      "hit": false,
      "t": 695950,
      "d": 1500,
      "v": 51
    },
    {
      "midi": 63,
      "hit": false,
      "t": 696050,
      "d": 1500,
      "v": 74
    },
    {
      "midi": 60,
      "hit": false,
      "t": 696050,
      "d": 2250,
      "v": 74
    },
    {
      "midi": 56,
      "hit": false,
      "t": 696062.5,
      "d": 1500,
      "v": 51
    },
    {
      "midi": 68,
      "hit": false,
      "t": 696062.5,
      "d": 2250,
      "v": 74
    },
    {
      "midi": 68,
      "hit": false,
      "t": 698950,
      "d": 737.5,
      "v": 74
    },
    {
      "midi": 60,
      "hit": false,
      "t": 698975,
      "d": 737.5,
      "v": 74
    },
    {
      "midi": 63,
      "hit": false,
      "t": 698987.5,
      "d": 737.5,
      "v": 74
    },
    {
      "midi": 44,
      "hit": false,
      "t": 698987.5,
      "d": 1500,
      "v": 51
    },
    {
      "midi": 56,
      "hit": false,
      "t": 699037.5,
      "d": 1500,
      "v": 51
    },
    {
      "midi": 54,
      "hit": false,
      "t": 701962.5,
      "d": 1500,
      "v": 51
    },
    {
      "midi": 42,
      "hit": false,
      "t": 702037.5,
      "d": 1500,
      "v": 51
    },
    {
      "midi": 61,
      "hit": false,
      "t": 702125,
      "d": 737.5,
      "v": 73
    },
    {
      "midi": 66,
      "hit": false,
      "t": 702362.5,
      "d": 737.5,
      "v": 73
    },
    {
      "midi": 70,
      "hit": false,
      "t": 702462.5,
      "d": 1500,
      "v": 75
    },
    {
      "midi": 44,
      "hit": false,
      "t": 704962.5,
      "d": 1500,
      "v": 51
    },
    {
      "midi": 56,
      "hit": false,
      "t": 704962.5,
      "d": 1500,
      "v": 51
    },
    {
      "midi": 63,
      "hit": false,
      "t": 705350,
      "d": 737.5,
      "v": 87
    },
    {
      "midi": 68,
      "hit": false,
      "t": 705387.5,
      "d": 737.5,
      "v": 94
    },
    {
      "midi": 72,
      "hit": false,
      "t": 705525,
      "d": 1500,
      "v": 102
    },
    {
      "midi": 68,
      "hit": false,
      "t": 707950,
      "d": 1487.5,
      "v": 68
    },
    {
      "midi": 37,
      "hit": false,
      "t": 708037.5,
      "d": 1487.5,
      "v": 68
    },
    {
      "midi": 65,
      "hit": false,
      "t": 708037.5,
      "d": 1487.5,
      "v": 68
    },
    {
      "midi": 61,
      "hit": false,
      "t": 708050,
      "d": 1487.5,
      "v": 68
    },
    {
      "midi": 53,
      "hit": false,
      "t": 710987.5,
      "d": 3000,
      "v": 69
    },
    {
      "midi": 61,
      "hit": false,
      "t": 713937.5,
      "d": 87.5,
      "v": 68
    },
    {
      "midi": 65,
      "hit": false,
      "t": 713987.5,
      "d": 75,
      "v": 68
    },
    {
      "midi": 49,
      "hit": false,
      "t": 714050,
      "d": 4500,
      "v": 68
    },
    {
      "midi": 61,
      "hit": false,
      "t": 716937.5,
      "d": 1487.5,
      "v": 67
    },
    {
      "midi": 68,
      "hit": false,
      "t": 716962.5,
      "d": 75,
      "v": 67
    },
    {
      "midi": 65,
      "hit": false,
      "t": 716987.5,
      "d": 1487.5,
      "v": 67
    },
    {
      "midi": 70,
      "hit": false,
      "t": 719962.5,
      "d": 3000,
      "v": 66
    },
    {
      "midi": 42,
      "hit": false,
      "t": 720000,
      "d": 3000,
      "v": 66
    },
    {
      "midi": 66,
      "hit": false,
      "t": 720037.5,
      "d": 1487.5,
      "v": 66
    },
    {
      "midi": 61,
      "hit": false,
      "t": 720062.5,
      "d": 1487.5,
      "v": 66
    },
    {
      "midi": 66,
      "hit": false,
      "t": 722937.5,
      "d": 1487.5,
      "v": 65
    },
    {
      "midi": 61,
      "hit": false,
      "t": 722962.5,
      "d": 1487.5,
      "v": 65
    },
    {
      "midi": 54,
      "hit": false,
      "t": 723037.5,
      "d": 1487.5,
      "v": 65
    },
    {
      "midi": 70,
      "hit": false,
      "t": 725962.5,
      "d": 3000,
      "v": 65
    },
    {
      "midi": 66,
      "hit": false,
      "t": 726012.5,
      "d": 3000,
      "v": 65
    },
    {
      "midi": 54,
      "hit": false,
      "t": 726050,
      "d": 1487.5,
      "v": 65
    },
    {
      "midi": 61,
      "hit": false,
      "t": 729000,
      "d": 37.5,
      "v": 65
    },
    {
      "midi": 53,
      "hit": false,
      "t": 729025,
      "d": 3000,
      "v": 65
    },
    {
      "midi": 65,
      "hit": false,
      "t": 729050,
      "d": 3000,
      "v": 65
    },
    {
      "midi": 70,
      "hit": false,
      "t": 731937.5,
      "d": 125,
      "v": 66
    },
    {
      "midi": 51,
      "hit": false,
      "t": 731987.5,
      "d": 4500,
      "v": 66
    },
    {
      "midi": 63,
      "hit": false,
      "t": 734950,
      "d": 37.5,
      "v": 66
    },
    {
      "midi": 66,
      "hit": false,
      "t": 734975,
      "d": 37.5,
      "v": 66
    },
    {
      "midi": 51,
      "hit": false,
      "t": 737950,
      "d": 3000,
      "v": 66
    },
    {
      "midi": 63,
      "hit": false,
      "t": 737962.5,
      "d": 1487.5,
      "v": 66
    },
    {
      "midi": 70,
      "hit": false,
      "t": 738050,
      "d": 1487.5,
      "v": 66
    },
    {
      "midi": 66,
      "hit": false,
      "t": 738062.5,
      "d": 1487.5,
      "v": 66
    },
    {
      "midi": 70,
      "hit": false,
      "t": 740987.5,
      "d": 1487.5,
      "v": 65
    },
    {
      "midi": 63,
      "hit": false,
      "t": 741050,
      "d": 1487.5,
      "v": 65
    },
    {
      "midi": 66,
      "hit": false,
      "t": 741050,
      "d": 1487.5,
      "v": 65
    },
    {
      "midi": 60,
      "hit": false,
      "t": 743987.5,
      "d": 1487.5,
      "v": 67
    },
    {
      "midi": 63,
      "hit": false,
      "t": 744012.5,
      "d": 1487.5,
      "v": 67
    },
    {
      "midi": 68,
      "hit": false,
      "t": 744012.5,
      "d": 1487.5,
      "v": 67
    },
    {
      "midi": 44,
      "hit": false,
      "t": 744012.5,
      "d": 3000,
      "v": 67
    },
    {
      "midi": 63,
      "hit": false,
      "t": 746950,
      "d": 1487.5,
      "v": 49
    },
    {
      "midi": 60,
      "hit": false,
      "t": 746962.5,
      "d": 1487.5,
      "v": 49
    },
    {
      "midi": 75,
      "hit": false,
      "t": 747012.5,
      "d": 1237.5,
      "v": 88
    },
    {
      "midi": 68,
      "hit": false,
      "t": 747050,
      "d": 1487.5,
      "v": 49
    },
    {
      "midi": 82,
      "hit": false,
      "t": 747100,
      "d": 1237.5,
      "v": 88
    },
    {
      "midi": 85,
      "hit": false,
      "t": 748512.5,
      "d": 1100,
      "v": 68
    },
    {
      "midi": 78,
      "hit": false,
      "t": 749975,
      "d": 2987.5,
      "v": 41
    },
    {
      "midi": 56,
      "hit": false,
      "t": 750025,
      "d": 3000,
      "v": 41
    },
    {
      "midi": 84,
      "hit": false,
      "t": 750050,
      "d": 1087.5,
      "v": 96
    },
    {
      "midi": 66,
      "hit": false,
      "t": 752962.5,
      "d": 1087.5,
      "v": 96
    },
    {
      "midi": 84,
      "hit": false,
      "t": 752987.5,
      "d": 662.5,
      "v": 104
    },
    {
      "midi": 78,
      "hit": false,
      "t": 753012.5,
      "d": 2987.5,
      "v": 41
    },
    {
      "midi": 54,
      "hit": false,
      "t": 753062.5,
      "d": 1487.5,
      "v": 41
    },
    {
      "midi": 85,
      "hit": false,
      "t": 754150,
      "d": 512.5,
      "v": 88
    },
    {
      "midi": 87,
      "hit": false,
      "t": 755300,
      "d": 412.5,
      "v": 102
    },
    {
      "midi": 53,
      "hit": false,
      "t": 755987.5,
      "d": 6000,
      "v": 98
    },
    {
      "midi": 77,
      "hit": false,
      "t": 756037.5,
      "d": 737.5,
      "v": 98
    },
    {
      "midi": 87,
      "hit": false,
      "t": 756137.5,
      "d": 412.5,
      "v": 98
    },
    {
      "midi": 80,
      "hit": false,
      "t": 757462.5,
      "d": 375,
      "v": 89
    },
    {
      "midi": 77,
      "hit": false,
      "t": 757487.5,
      "d": 375,
      "v": 89
    },
    {
      "midi": 77,
      "hit": false,
      "t": 758262.5,
      "d": 3550,
      "v": 81
    },
    {
      "midi": 80,
      "hit": false,
      "t": 758300,
      "d": 3475,
      "v": 81
    },
    {
      "midi": 60,
      "hit": false,
      "t": 761937.5,
      "d": 2987.5,
      "v": 62
    },
    {
      "midi": 65,
      "hit": false,
      "t": 762000,
      "d": 3000,
      "v": 62
    },
    {
      "midi": 56,
      "hit": false,
      "t": 762037.5,
      "d": 3000,
      "v": 62
    },
    {
      "midi": 68,
      "hit": false,
      "t": 764937.5,
      "d": 12.5,
      "v": 62
    },
    {
      "midi": 60,
      "hit": false,
      "t": 764975,
      "d": 1487.5,
      "v": 62
    },
    {
      "midi": 65,
      "hit": false,
      "t": 765037.5,
      "d": 1487.5,
      "v": 62
    },
    {
      "midi": 66,
      "hit": false,
      "t": 767937.5,
      "d": 3000,
      "v": 62
    },
    {
      "midi": 54,
      "hit": false,
      "t": 768000,
      "d": 4500,
      "v": 62
    },
    {
      "midi": 70,
      "hit": false,
      "t": 768012.5,
      "d": 3000,
      "v": 62
    },
    {
      "midi": 61,
      "hit": false,
      "t": 768037.5,
      "d": 3000,
      "v": 62
    },
    {
      "midi": 66,
      "hit": false,
      "t": 771000,
      "d": 1487.5,
      "v": 62
    },
    {
      "midi": 70,
      "hit": false,
      "t": 771025,
      "d": 1487.5,
      "v": 62
    },
    {
      "midi": 61,
      "hit": false,
      "t": 771062.5,
      "d": 1487.5,
      "v": 62
    },
    {
      "midi": 70,
      "hit": false,
      "t": 773962.5,
      "d": 3000,
      "v": 63
    },
    {
      "midi": 66,
      "hit": false,
      "t": 774025,
      "d": 1487.5,
      "v": 63
    },
    {
      "midi": 54,
      "hit": false,
      "t": 774025,
      "d": 3000,
      "v": 63
    },
    {
      "midi": 53,
      "hit": false,
      "t": 776937.5,
      "d": 3000,
      "v": 63
    },
    {
      "midi": 65,
      "hit": false,
      "t": 777000,
      "d": 3000,
      "v": 63
    },
    {
      "midi": 61,
      "hit": false,
      "t": 777037.5,
      "d": 12.5,
      "v": 63
    },
    {
      "midi": 70,
      "hit": false,
      "t": 779937.5,
      "d": 37.5,
      "v": 63
    },
    {
      "midi": 66,
      "hit": false,
      "t": 779975,
      "d": 1487.5,
      "v": 63
    },
    {
      "midi": 63,
      "hit": false,
      "t": 779987.5,
      "d": 1487.5,
      "v": 63
    },
    {
      "midi": 51,
      "hit": false,
      "t": 779987.5,
      "d": 3000,
      "v": 63
    },
    {
      "midi": 63,
      "hit": false,
      "t": 782987.5,
      "d": 1487.5,
      "v": 49
    },
    {
      "midi": 70,
      "hit": false,
      "t": 783050,
      "d": 1487.5,
      "v": 49
    },
    {
      "midi": 66,
      "hit": false,
      "t": 783062.5,
      "d": 1487.5,
      "v": 49
    },
    {
      "midi": 63,
      "hit": false,
      "t": 785937.5,
      "d": 3000,
      "v": 54
    },
    {
      "midi": 72,
      "hit": false,
      "t": 785987.5,
      "d": 3000,
      "v": 54
    },
    {
      "midi": 44,
      "hit": false,
      "t": 786000,
      "d": 3000,
      "v": 54
    },
    {
      "midi": 68,
      "hit": false,
      "t": 786062.5,
      "d": 3000,
      "v": 54
    },
    {
      "midi": 56,
      "hit": false,
      "t": 788975,
      "d": 1487.5,
      "v": 64
    },
    {
      "midi": 72,
      "hit": false,
      "t": 789000,
      "d": 1487.5,
      "v": 64
    },
    {
      "midi": 66,
      "hit": false,
      "t": 789012.5,
      "d": 1487.5,
      "v": 64
    },
    {
      "midi": 63,
      "hit": false,
      "t": 789025,
      "d": 1487.5,
      "v": 64
    },
    {
      "midi": 61,
      "hit": false,
      "t": 791937.5,
      "d": 3000,
      "v": 64
    },
    {
      "midi": 49,
      "hit": false,
      "t": 791987.5,
      "d": 3000,
      "v": 64
    },
    {
      "midi": 68,
      "hit": false,
      "t": 792012.5,
      "d": 1487.5,
      "v": 64
    },
    {
      "midi": 65,
      "hit": false,
      "t": 794937.5,
      "d": 25,
      "v": 61
    },
    {
      "midi": 68,
      "hit": false,
      "t": 795012.5,
      "d": 3000,
      "v": 61
    },
    {
      "midi": 49,
      "hit": false,
      "t": 795062.5,
      "d": 2987.5,
      "v": 61
    },
    {
      "midi": 66,
      "hit": false,
      "t": 797937.5,
      "d": 3000,
      "v": 61
    },
    {
      "midi": 61,
      "hit": false,
      "t": 797975,
      "d": 37.5,
      "v": 61
    },
    {
      "midi": 42,
      "hit": false,
      "t": 797987.5,
      "d": 2987.5,
      "v": 61
    },
    {
      "midi": 70,
      "hit": false,
      "t": 798000,
      "d": 1487.5,
      "v": 61
    },
    {
      "midi": 44,
      "hit": false,
      "t": 800975,
      "d": 1487.5,
      "v": 61
    },
    {
      "midi": 60,
      "hit": false,
      "t": 801037.5,
      "d": 1487.5,
      "v": 61
    },
    {
      "midi": 68,
      "hit": false,
      "t": 801050,
      "d": 1487.5,
      "v": 61
    },
    {
      "midi": 63,
      "hit": false,
      "t": 801062.5,
      "d": 1487.5,
      "v": 61
    },
    {
      "midi": 61,
      "hit": false,
      "t": 803937.5,
      "d": 1487.5,
      "v": 68
    },
    {
      "midi": 65,
      "hit": false,
      "t": 803937.5,
      "d": 1487.5,
      "v": 68
    },
    {
      "midi": 68,
      "hit": false,
      "t": 804012.5,
      "d": 1487.5,
      "v": 68
    },
    {
      "midi": 37,
      "hit": false,
      "t": 804062.5,
      "d": 1487.5,
      "v": 68
    },
    {
      "midi": 53,
      "hit": false,
      "t": 806950,
      "d": 3000,
      "v": 69
    },
    {
      "midi": 61,
      "hit": false,
      "t": 806950,
      "d": 3000,
      "v": 69
    },
    {
      "midi": 65,
      "hit": false,
      "t": 809937.5,
      "d": 25,
      "v": 68
    },
    {
      "midi": 68,
      "hit": false,
      "t": 809937.5,
      "d": 3000,
      "v": 68
    },
    {
      "midi": 49,
      "hit": false,
      "t": 810000,
      "d": 4500,
      "v": 68
    },
    {
      "midi": 61,
      "hit": false,
      "t": 812975,
      "d": 87.5,
      "v": 67
    },
    {
      "midi": 68,
      "hit": false,
      "t": 812975,
      "d": 1487.5,
      "v": 67
    },
    {
      "midi": 65,
      "hit": false,
      "t": 813000,
      "d": 1487.5,
      "v": 67
    },
    {
      "midi": 66,
      "hit": false,
      "t": 815975,
      "d": 1487.5,
      "v": 66
    },
    {
      "midi": 61,
      "hit": false,
      "t": 815987.5,
      "d": 1487.5,
      "v": 66
    },
    {
      "midi": 70,
      "hit": false,
      "t": 816012.5,
      "d": 3000,
      "v": 66
    },
    {
      "midi": 42,
      "hit": false,
      "t": 816062.5,
      "d": 3000,
      "v": 66
    },
    {
      "midi": 61,
      "hit": false,
      "t": 818987.5,
      "d": 1487.5,
      "v": 65
    },
    {
      "midi": 54,
      "hit": false,
      "t": 819012.5,
      "d": 1487.5,
      "v": 65
    },
    {
      "midi": 66,
      "hit": false,
      "t": 819062.5,
      "d": 1487.5,
      "v": 65
    },
    {
      "midi": 54,
      "hit": false,
      "t": 822012.5,
      "d": 1487.5,
      "v": 65
    },
    {
      "midi": 66,
      "hit": false,
      "t": 822037.5,
      "d": 3000,
      "v": 65
    },
    {
      "midi": 70,
      "hit": false,
      "t": 822050,
      "d": 3000,
      "v": 65
    },
    {
      "midi": 65,
      "hit": false,
      "t": 824962.5,
      "d": 3000,
      "v": 65
    },
    {
      "midi": 61,
      "hit": false,
      "t": 824975,
      "d": 62.5,
      "v": 65
    },
    {
      "midi": 53,
      "hit": false,
      "t": 825062.5,
      "d": 3000,
      "v": 65
    },
    {
      "midi": 66,
      "hit": false,
      "t": 827937.5,
      "d": 3000,
      "v": 66
    },
    {
      "midi": 70,
      "hit": false,
      "t": 827950,
      "d": 112.5,
      "v": 66
    },
    {
      "midi": 63,
      "hit": false,
      "t": 828000,
      "d": 3000,
      "v": 66
    },
    {
      "midi": 51,
      "hit": false,
      "t": 828037.5,
      "d": 4500,
      "v": 66
    },
    {
      "midi": 63,
      "hit": false,
      "t": 831000,
      "d": 1487.5,
      "v": 66
    },
    {
      "midi": 66,
      "hit": false,
      "t": 831050,
      "d": 1487.5,
      "v": 66
    },
    {
      "midi": 63,
      "hit": false,
      "t": 833937.5,
      "d": 1487.5,
      "v": 66
    },
    {
      "midi": 70,
      "hit": false,
      "t": 833950,
      "d": 1487.5,
      "v": 66
    },
    {
      "midi": 66,
      "hit": false,
      "t": 833962.5,
      "d": 1487.5,
      "v": 66
    },
    {
      "midi": 51,
      "hit": false,
      "t": 834050,
      "d": 3000,
      "v": 66
    },
    {
      "midi": 70,
      "hit": false,
      "t": 837025,
      "d": 1487.5,
      "v": 65
    },
    {
      "midi": 63,
      "hit": false,
      "t": 837037.5,
      "d": 1487.5,
      "v": 65
    },
    {
      "midi": 66,
      "hit": false,
      "t": 837037.5,
      "d": 1487.5,
      "v": 65
    },
    {
      "midi": 60,
      "hit": false,
      "t": 839962.5,
      "d": 1487.5,
      "v": 67
    },
    {
      "midi": 68,
      "hit": false,
      "t": 840037.5,
      "d": 1487.5,
      "v": 67
    },
    {
      "midi": 63,
      "hit": false,
      "t": 840050,
      "d": 1487.5,
      "v": 67
    },
    {
      "midi": 44,
      "hit": false,
      "t": 840062.5,
      "d": 3000,
      "v": 67
    },
    {
      "midi": 60,
      "hit": false,
      "t": 842937.5,
      "d": 1487.5,
      "v": 49
    },
    {
      "midi": 63,
      "hit": false,
      "t": 842937.5,
      "d": 1487.5,
      "v": 49
    },
    {
      "midi": 68,
      "hit": false,
      "t": 842937.5,
      "d": 1487.5,
      "v": 49
    },
    {
      "midi": 75,
      "hit": false,
      "t": 843075,
      "d": 1237.5,
      "v": 88
    },
    {
      "midi": 82,
      "hit": false,
      "t": 843087.5,
      "d": 1237.5,
      "v": 88
    },
    {
      "midi": 85,
      "hit": false,
      "t": 844537.5,
      "d": 1100,
      "v": 68
    },
    {
      "midi": 84,
      "hit": false,
      "t": 845937.5,
      "d": 1087.5,
      "v": 96
    },
    {
      "midi": 78,
      "hit": false,
      "t": 845975,
      "d": 2987.5,
      "v": 41
    },
    {
      "midi": 56,
      "hit": false,
      "t": 846025,
      "d": 3000,
      "v": 41
    },
    {
      "midi": 54,
      "hit": false,
      "t": 848950,
      "d": 1487.5,
      "v": 41
    },
    {
      "midi": 78,
      "hit": false,
      "t": 848987.5,
      "d": 2987.5,
      "v": 41
    },
    {
      "midi": 66,
      "hit": false,
      "t": 849025,
      "d": 1087.5,
      "v": 96
    },
    {
      "midi": 84,
      "hit": false,
      "t": 849062.5,
      "d": 662.5,
      "v": 104
    },
    {
      "midi": 85,
      "hit": false,
      "t": 850100,
      "d": 512.5,
      "v": 88
    },
    {
      "midi": 87,
      "hit": false,
      "t": 851187.5,
      "d": 412.5,
      "v": 102
    },
    {
      "midi": 77,
      "hit": false,
      "t": 851962.5,
      "d": 737.5,
      "v": 98
    },
    {
      "midi": 53,
      "hit": false,
      "t": 852037.5,
      "d": 6000,
      "v": 98
    },
    {
      "midi": 87,
      "hit": false,
      "t": 852175,
      "d": 412.5,
      "v": 98
    },
    {
      "midi": 80,
      "hit": false,
      "t": 853437.5,
      "d": 375,
      "v": 89
    },
    {
      "midi": 77,
      "hit": false,
      "t": 853550,
      "d": 375,
      "v": 89
    },
    {
      "midi": 77,
      "hit": false,
      "t": 854250,
      "d": 3550,
      "v": 81
    },
    {
      "midi": 80,
      "hit": false,
      "t": 854262.5,
      "d": 3475,
      "v": 81
    },
    {
      "midi": 56,
      "hit": false,
      "t": 857937.5,
      "d": 3000,
      "v": 62
    },
    {
      "midi": 65,
      "hit": false,
      "t": 857975,
      "d": 3000,
      "v": 62
    },
    {
      "midi": 68,
      "hit": false,
      "t": 860950,
      "d": 50,
      "v": 62
    },
    {
      "midi": 60,
      "hit": false,
      "t": 860950,
      "d": 75,
      "v": 62
    },
    {
      "midi": 65,
      "hit": false,
      "t": 861050,
      "d": 1487.5,
      "v": 62
    },
    {
      "midi": 54,
      "hit": false,
      "t": 863950,
      "d": 4500,
      "v": 62
    },
    {
      "midi": 66,
      "hit": false,
      "t": 863962.5,
      "d": 3000,
      "v": 62
    },
    {
      "midi": 70,
      "hit": false,
      "t": 867000,
      "d": 12.5,
      "v": 62
    },
    {
      "midi": 61,
      "hit": false,
      "t": 867025,
      "d": 12.5,
      "v": 62
    },
    {
      "midi": 66,
      "hit": false,
      "t": 867050,
      "d": 1487.5,
      "v": 62
    },
    {
      "midi": 66,
      "hit": false,
      "t": 869950,
      "d": 1487.5,
      "v": 63
    },
    {
      "midi": 61,
      "hit": false,
      "t": 869950,
      "d": 3000,
      "v": 63
    },
    {
      "midi": 54,
      "hit": false,
      "t": 870062.5,
      "d": 3000,
      "v": 63
    },
    {
      "midi": 65,
      "hit": false,
      "t": 872937.5,
      "d": 3000,
      "v": 63
    },
    {
      "midi": 53,
      "hit": false,
      "t": 872987.5,
      "d": 3000,
      "v": 63
    },
    {
      "midi": 70,
      "hit": false,
      "t": 873050,
      "d": 12.5,
      "v": 63
    },
    {
      "midi": 61,
      "hit": false,
      "t": 873050,
      "d": 1487.5,
      "v": 63
    },
    {
      "midi": 51,
      "hit": false,
      "t": 875975,
      "d": 3000,
      "v": 63
    },
    {
      "midi": 63,
      "hit": false,
      "t": 875987.5,
      "d": 1487.5,
      "v": 63
    },
    {
      "midi": 66,
      "hit": false,
      "t": 876062.5,
      "d": 1487.5,
      "v": 63
    },
    {
      "midi": 70,
      "hit": false,
      "t": 876062.5,
      "d": 1487.5,
      "v": 63
    },
    {
      "midi": 66,
      "hit": false,
      "t": 878950,
      "d": 1487.5,
      "v": 49
    },
    {
      "midi": 63,
      "hit": false,
      "t": 878962.5,
      "d": 1487.5,
      "v": 49
    },
    {
      "midi": 70,
      "hit": false,
      "t": 879012.5,
      "d": 1487.5,
      "v": 49
    },
    {
      "midi": 72,
      "hit": false,
      "t": 881962.5,
      "d": 3000,
      "v": 54
    },
    {
      "midi": 68,
      "hit": false,
      "t": 881975,
      "d": 3000,
      "v": 54
    },
    {
      "midi": 63,
      "hit": false,
      "t": 882000,
      "d": 3000,
      "v": 54
    },
    {
      "midi": 44,
      "hit": false,
      "t": 882012.5,
      "d": 3000,
      "v": 54
    },
    {
      "midi": 63,
      "hit": false,
      "t": 885025,
      "d": 1487.5,
      "v": 64
    },
    {
      "midi": 66,
      "hit": false,
      "t": 885025,
      "d": 1487.5,
      "v": 64
    },
    {
      "midi": 56,
      "hit": false,
      "t": 885062.5,
      "d": 1487.5,
      "v": 64
    },
    {
      "midi": 72,
      "hit": false,
      "t": 885062.5,
      "d": 1487.5,
      "v": 64
    },
    {
      "midi": 68,
      "hit": false,
      "t": 887962.5,
      "d": 1487.5,
      "v": 64
    },
    {
      "midi": 49,
      "hit": false,
      "t": 887962.5,
      "d": 3000,
      "v": 64
    },
    {
      "midi": 61,
      "hit": false,
      "t": 890975,
      "d": 25,
      "v": 61
    },
    {
      "midi": 65,
      "hit": false,
      "t": 890975,
      "d": 75,
      "v": 61
    },
    {
      "midi": 49,
      "hit": false,
      "t": 891000,
      "d": 4500,
      "v": 61
    },
    {
      "midi": 61,
      "hit": false,
      "t": 893950,
      "d": 25,
      "v": 61
    },
    {
      "midi": 65,
      "hit": false,
      "t": 893962.5,
      "d": 12.5,
      "v": 61
    },
    {
      "midi": 68,
      "hit": false,
      "t": 893975,
      "d": 37.5,
      "v": 61
    },
    {
      "midi": 61,
      "hit": false,
      "t": 897037.5,
      "d": 1487.5,
      "v": 61
    },
    {
      "midi": 65,
      "hit": false,
      "t": 897037.5,
      "d": 1487.5,
      "v": 61
    },
    {
      "midi": 49,
      "hit": false,
      "t": 897062.5,
      "d": 1487.5,
      "v": 61
    },
    {
      "midi": 41,
      "hit": false,
      "t": 900012.5,
      "d": 2987.5,
      "v": 88
    },
    {
      "midi": 65,
      "hit": false,
      "t": 900037.5,
      "d": 612.5,
      "v": 56
    },
    {
      "midi": 68,
      "hit": false,
      "t": 900225,
      "d": 762.5,
      "v": 45
    },
    {
      "midi": 72,
      "hit": false,
      "t": 900275,
      "d": 1387.5,
      "v": 68
    },
    {
      "midi": 53,
      "hit": false,
      "t": 903037.5,
      "d": 6475,
      "v": 72
    },
    {
      "midi": 65,
      "hit": false,
      "t": 904550,
      "d": 775,
      "v": 45
    },
    {
      "midi": 72,
      "hit": false,
      "t": 905950,
      "d": 900,
      "v": 15
    },
    {
      "midi": 75,
      "hit": false,
      "t": 905987.5,
      "d": 1562.5,
      "v": 60
    },
    {
      "midi": 68,
      "hit": false,
      "t": 906037.5,
      "d": 1025,
      "v": 45
    },
    {
      "midi": 65,
      "hit": false,
      "t": 907437.5,
      "d": 1462.5,
      "v": 52
    },
    {
      "midi": 72,
      "hit": false,
      "t": 908937.5,
      "d": 1225,
      "v": 72
    },
    {
      "midi": 68,
      "hit": false,
      "t": 908987.5,
      "d": 1612.5,
      "v": 48
    },
    {
      "midi": 65,
      "hit": false,
      "t": 910500,
      "d": 337.5,
      "v": 35
    },
    {
      "midi": 61,
      "hit": false,
      "t": 911937.5,
      "d": 1712.5,
      "v": 56
    },
    {
      "midi": 66,
      "hit": false,
      "t": 911962.5,
      "d": 1450,
      "v": 64
    },
    {
      "midi": 42,
      "hit": false,
      "t": 912000,
      "d": 4925,
      "v": 68
    },
    {
      "midi": 70,
      "hit": false,
      "t": 912062.5,
      "d": 1562.5,
      "v": 60
    },
    {
      "midi": 54,
      "hit": false,
      "t": 914937.5,
      "d": 2087.5,
      "v": 42
    },
    {
      "midi": 61,
      "hit": false,
      "t": 916487.5,
      "d": 1175,
      "v": 52
    },
    {
      "midi": 70,
      "hit": false,
      "t": 917962.5,
      "d": 1350,
      "v": 68
    },
    {
      "midi": 66,
      "hit": false,
      "t": 917975,
      "d": 1300,
      "v": 64
    },
    {
      "midi": 42,
      "hit": false,
      "t": 917975,
      "d": 3287.5,
      "v": 80
    },
    {
      "midi": 61,
      "hit": false,
      "t": 918050,
      "d": 1312.5,
      "v": 60
    },
    {
      "midi": 61,
      "hit": false,
      "t": 921000,
      "d": 912.5,
      "v": 56
    },
    {
      "midi": 68,
      "hit": false,
      "t": 921025,
      "d": 1037.5,
      "v": 56
    },
    {
      "midi": 54,
      "hit": false,
      "t": 921062.5,
      "d": 687.5,
      "v": 45
    },
    {
      "midi": 65,
      "hit": false,
      "t": 921062.5,
      "d": 925,
      "v": 88
    },
    {
      "midi": 63,
      "hit": false,
      "t": 923975,
      "d": 4025,
      "v": 31
    },
    {
      "midi": 39,
      "hit": false,
      "t": 924025,
      "d": 3175,
      "v": 60
    },
    {
      "midi": 66,
      "hit": false,
      "t": 924100,
      "d": 3625,
      "v": 48
    },
    {
      "midi": 70,
      "hit": false,
      "t": 924362.5,
      "d": 3412.5,
      "v": 64
    },
    {
      "midi": 44,
      "hit": false,
      "t": 929962.5,
      "d": 4387.5,
      "v": 35
    },
    {
      "midi": 56,
      "hit": false,
      "t": 930087.5,
      "d": 4500,
      "v": 45
    },
    {
      "midi": 60,
      "hit": false,
      "t": 930262.5,
      "d": 5112.5,
      "v": 56
    },
    {
      "midi": 63,
      "hit": false,
      "t": 930350,
      "d": 4875,
      "v": 60
    },
    {
      "midi": 68,
      "hit": false,
      "t": 930700,
      "d": 4725,
      "v": 52
    },
    {
      "midi": 37,
      "hit": false,
      "t": 935937.5,
      "d": 1487.5,
      "v": 49
    },
    {
      "midi": 73,
      "hit": false,
      "t": 936062.5,
      "d": 4537.5,
      "v": 45
    },
    {
      "midi": 68,
      "hit": false,
      "t": 937512.5,
      "d": 587.5,
      "v": 39
    },
    {
      "midi": 44,
      "hit": false,
      "t": 937525,
      "d": 1487.5,
      "v": 33
    },
    {
      "midi": 65,
      "hit": false,
      "t": 939012.5,
      "d": 537.5,
      "v": 42
    },
    {
      "midi": 49,
      "hit": false,
      "t": 939050,
      "d": 1487.5,
      "v": 48
    },
    {
      "midi": 53,
      "hit": false,
      "t": 940512.5,
      "d": 1487.5,
      "v": 60
    },
    {
      "midi": 68,
      "hit": false,
      "t": 942012.5,
      "d": 1387.5,
      "v": 80
    },
    {
      "midi": 56,
      "hit": false,
      "t": 942050,
      "d": 2987.5,
      "v": 60
    },
    {
      "midi": 65,
      "hit": false,
      "t": 943512.5,
      "d": 387.5,
      "v": 56
    },
    {
      "midi": 61,
      "hit": false,
      "t": 944937.5,
      "d": 1487.5,
      "v": 80
    },
    {
      "midi": 61,
      "hit": false,
      "t": 947962.5,
      "d": 3762.5,
      "v": 15
    },
    {
      "midi": 37,
      "hit": false,
      "t": 948037.5,
      "d": 1487.5,
      "v": 64
    },
    {
      "midi": 65,
      "hit": false,
      "t": 948062.5,
      "d": 3687.5,
      "v": 64
    },
    {
      "midi": 68,
      "hit": false,
      "t": 948075,
      "d": 3487.5,
      "v": 48
    },
    {
      "midi": 44,
      "hit": false,
      "t": 949462.5,
      "d": 1487.5,
      "v": 52
    },
    {
      "midi": 49,
      "hit": false,
      "t": 951050,
      "d": 1487.5,
      "v": 56
    },
    {
      "midi": 53,
      "hit": false,
      "t": 952487.5,
      "d": 1487.5,
      "v": 28
    },
    {
      "midi": 61,
      "hit": false,
      "t": 953937.5,
      "d": 775,
      "v": 30
    },
    {
      "midi": 68,
      "hit": false,
      "t": 953962.5,
      "d": 3312.5,
      "v": 60
    },
    {
      "midi": 56,
      "hit": false,
      "t": 954037.5,
      "d": 3000,
      "v": 64
    },
    {
      "midi": 65,
      "hit": false,
      "t": 956962.5,
      "d": 1312.5,
      "v": 64
    },
    {
      "midi": 61,
      "hit": false,
      "t": 956962.5,
      "d": 1487.5,
      "v": 52
    },
    {
      "midi": 47,
      "hit": false,
      "t": 960012.5,
      "d": 1487.5,
      "v": 80
    },
    {
      "midi": 54,
      "hit": false,
      "t": 961475,
      "d": 1487.5,
      "v": 48
    },
    {
      "midi": 83,
      "hit": false,
      "t": 961475,
      "d": 1487.5,
      "v": 68
    },
    {
      "midi": 95,
      "hit": false,
      "t": 961550,
      "d": 1487.5,
      "v": 80
    },
    {
      "midi": 59,
      "hit": false,
      "t": 963025,
      "d": 1487.5,
      "v": 68
    },
    {
      "midi": 82,
      "hit": false,
      "t": 963025,
      "d": 1487.5,
      "v": 60
    },
    {
      "midi": 94,
      "hit": false,
      "t": 963062.5,
      "d": 1487.5,
      "v": 72
    },
    {
      "midi": 90,
      "hit": false,
      "t": 964462.5,
      "d": 1487.5,
      "v": 68
    },
    {
      "midi": 78,
      "hit": false,
      "t": 964475,
      "d": 1487.5,
      "v": 60
    },
    {
      "midi": 63,
      "hit": false,
      "t": 964562.5,
      "d": 1487.5,
      "v": 64
    },
    {
      "midi": 75,
      "hit": false,
      "t": 965975,
      "d": 1487.5,
      "v": 48
    },
    {
      "midi": 87,
      "hit": false,
      "t": 966000,
      "d": 1487.5,
      "v": 35
    },
    {
      "midi": 83,
      "hit": false,
      "t": 967462.5,
      "d": 1487.5,
      "v": 34
    },
    {
      "midi": 71,
      "hit": false,
      "t": 967475,
      "d": 1487.5,
      "v": 64
    },
    {
      "midi": 70,
      "hit": false,
      "t": 968950,
      "d": 1487.5,
      "v": 52
    },
    {
      "midi": 82,
      "hit": false,
      "t": 968950,
      "d": 1487.5,
      "v": 56
    },
    {
      "midi": 78,
      "hit": false,
      "t": 970525,
      "d": 1487.5,
      "v": 60
    },
    {
      "midi": 66,
      "hit": false,
      "t": 970550,
      "d": 1487.5,
      "v": 52
    },
    {
      "midi": 64,
      "hit": false,
      "t": 971800,
      "d": 2225,
      "v": 48
    },
    {
      "midi": 68,
      "hit": false,
      "t": 971975,
      "d": 2000,
      "v": 42
    },
    {
      "midi": 40,
      "hit": false,
      "t": 972050,
      "d": 6137.5,
      "v": 88
    },
    {
      "midi": 71,
      "hit": false,
      "t": 972150,
      "d": 1900,
      "v": 80
    },
    {
      "midi": 75,
      "hit": false,
      "t": 972425,
      "d": 1425,
      "v": 68
    },
    {
      "midi": 64,
      "hit": false,
      "t": 974975,
      "d": 1662.5,
      "v": 48
    },
    {
      "midi": 68,
      "hit": false,
      "t": 975237.5,
      "d": 1537.5,
      "v": 48
    },
    {
      "midi": 71,
      "hit": false,
      "t": 975450,
      "d": 1087.5,
      "v": 80
    },
    {
      "midi": 61,
      "hit": false,
      "t": 978000,
      "d": 1550,
      "v": 37
    },
    {
      "midi": 42,
      "hit": false,
      "t": 978000,
      "d": 5875,
      "v": 64
    },
    {
      "midi": 66,
      "hit": false,
      "t": 978237.5,
      "d": 1637.5,
      "v": 60
    },
    {
      "midi": 68,
      "hit": false,
      "t": 978287.5,
      "d": 1050,
      "v": 80
    },
    {
      "midi": 73,
      "hit": false,
      "t": 978525,
      "d": 1050,
      "v": 80
    },
    {
      "midi": 64,
      "hit": false,
      "t": 980912.5,
      "d": 3137.5,
      "v": 52
    },
    {
      "midi": 70,
      "hit": false,
      "t": 981187.5,
      "d": 2737.5,
      "v": 52
    },
    {
      "midi": 73,
      "hit": false,
      "t": 981450,
      "d": 2512.5,
      "v": 64
    },
    {
      "midi": 63,
      "hit": false,
      "t": 983975,
      "d": 1700,
      "v": 30
    },
    {
      "midi": 47,
      "hit": false,
      "t": 983975,
      "d": 10487.5,
      "v": 80
    },
    {
      "midi": 71,
      "hit": false,
      "t": 984075,
      "d": 1287.5,
      "v": 88
    },
    {
      "midi": 66,
      "hit": false,
      "t": 984137.5,
      "d": 50,
      "v": 48
    },
    {
      "midi": 70,
      "hit": false,
      "t": 986962.5,
      "d": 737.5,
      "v": 53
    },
    {
      "midi": 78,
      "hit": false,
      "t": 987550,
      "d": 500,
      "v": 41
    },
    {
      "midi": 82,
      "hit": false,
      "t": 988112.5,
      "d": 3575,
      "v": 55
    }
  ]
}