{
  "jsonPath": "Rock/Album Rock/Roxy Music/jealous-guy.json",
  "path": "Rock\\Album Rock\\Roxy Music\\Jealous Guy.mid",
  "name": "Jealous Guy",
  "difficulty": "Advanced",
  "bpm": 90.00009000009,
  "notes": [
    {
      "midi": 74,
      "hit": false,
      "t": 0,
      "d": 583.33275,
      "v": 112
    },
    {
      "midi": 55,
      "hit": false,
      "t": 0,
      "d": 916.66575,
      "v": 112
    },
    {
      "midi": 69,
      "hit": false,
      "t": 666.6659999999999,
      "d": 145.8331875,
      "v": 112
    },
    {
      "midi": 74,
      "hit": false,
      "t": 666.6659999999999,
      "d": 583.33275,
      "v": 112
    },
    {
      "midi": 71,
      "hit": false,
      "t": 833.3325,
      "d": 145.8331875,
      "v": 112
    },
    {
      "midi": 67,
      "hit": false,
      "t": 999.999,
      "d": 291.666375,
      "v": 112
    },
    {
      "midi": 54,
      "hit": false,
      "t": 999.999,
      "d": 291.666375,
      "v": 112
    },
    {
      "midi": 69,
      "hit": false,
      "t": 1333.332,
      "d": 145.83318750000012,
      "v": 112
    },
    {
      "midi": 76,
      "hit": false,
      "t": 1333.332,
      "d": 583.3327499999998,
      "v": 112
    },
    {
      "midi": 52,
      "hit": false,
      "t": 1333.332,
      "d": 1083.3322499999997,
      "v": 112
    },
    {
      "midi": 71,
      "hit": false,
      "t": 1499.9985000000001,
      "d": 145.8331874999999,
      "v": 112
    },
    {
      "midi": 67,
      "hit": false,
      "t": 1666.665,
      "d": 291.666375,
      "v": 112
    },
    {
      "midi": 76,
      "hit": false,
      "t": 1999.998,
      "d": 145.8331874999999,
      "v": 112
    },
    {
      "midi": 71,
      "hit": false,
      "t": 1999.998,
      "d": 291.6663749999998,
      "v": 112
    },
    {
      "midi": 78,
      "hit": false,
      "t": 2166.6645,
      "d": 145.8331874999999,
      "v": 112
    },
    {
      "midi": 76,
      "hit": false,
      "t": 2333.3309999999997,
      "d": 291.66637500000024,
      "v": 112
    },
    {
      "midi": 79,
      "hit": false,
      "t": 2333.3309999999997,
      "d": 291.66637500000024,
      "v": 112
    },
    {
      "midi": 59,
      "hit": false,
      "t": 2499.9975,
      "d": 145.8331874999999,
      "v": 112
    },
    {
      "midi": 74,
      "hit": false,
      "t": 2666.6639999999998,
      "d": 291.6663749999998,
      "v": 112
    },
    {
      "midi": 78,
      "hit": false,
      "t": 2666.6639999999998,
      "d": 583.3327499999996,
      "v": 112
    },
    {
      "midi": 50,
      "hit": false,
      "t": 2666.6639999999998,
      "d": 916.6657500000001,
      "v": 112
    },
    {
      "midi": 69,
      "hit": false,
      "t": 2999.9969999999994,
      "d": 291.6663749999998,
      "v": 112
    },
    {
      "midi": 74,
      "hit": false,
      "t": 3333.329999999999,
      "d": 291.6663749999998,
      "v": 112
    },
    {
      "midi": 78,
      "hit": false,
      "t": 3333.329999999999,
      "d": 583.3327499999996,
      "v": 112
    },
    {
      "midi": 69,
      "hit": false,
      "t": 3666.6629999999986,
      "d": 291.6663749999998,
      "v": 112
    },
    {
      "midi": 57,
      "hit": false,
      "t": 3666.663,
      "d": 291.66637500000024,
      "v": 112
    },
    {
      "midi": 64,
      "hit": false,
      "t": 3999.9959999999983,
      "d": 145.83318750000035,
      "v": 112
    },
    {
      "midi": 50,
      "hit": false,
      "t": 3999.996,
      "d": 916.6657500000001,
      "v": 112
    },
    {
      "midi": 66,
      "hit": false,
      "t": 4166.6624999999985,
      "d": 145.83318750000035,
      "v": 112
    },
    {
      "midi": 74,
      "hit": false,
      "t": 4333.328999999999,
      "d": 145.83318750000035,
      "v": 112
    },
    {
      "midi": 66,
      "hit": false,
      "t": 4499.995499999999,
      "d": 145.83318750000035,
      "v": 112
    },
    {
      "midi": 67,
      "hit": false,
      "t": 4666.661999999999,
      "d": 145.83318750000035,
      "v": 112
    },
    {
      "midi": 76,
      "hit": false,
      "t": 4833.3285,
      "d": 145.83318750000035,
      "v": 112
    },
    {
      "midi": 67,
      "hit": false,
      "t": 4999.995,
      "d": 145.83318750000035,
      "v": 112
    },
    {
      "midi": 57,
      "hit": false,
      "t": 4999.995,
      "d": 291.6663749999998,
      "v": 112
    },
    {
      "midi": 69,
      "hit": false,
      "t": 5166.6615,
      "d": 145.83318750000035,
      "v": 112
    },
    {
      "midi": 50,
      "hit": false,
      "t": 5333.3279999999995,
      "d": 583.3327499999996,
      "v": 112
    },
    {
      "midi": 72,
      "hit": false,
      "t": 5333.328,
      "d": 291.6663749999998,
      "v": 112
    },
    {
      "midi": 78,
      "hit": false,
      "t": 5333.328,
      "d": 291.6663749999998,
      "v": 112
    },
    {
      "midi": 74,
      "hit": false,
      "t": 5666.661,
      "d": 291.6663749999998,
      "v": 112
    },
    {
      "midi": 57,
      "hit": false,
      "t": 5999.993999999999,
      "d": 583.3327499999996,
      "v": 112
    },
    {
      "midi": 69,
      "hit": false,
      "t": 5999.994,
      "d": 291.6663749999998,
      "v": 112
    },
    {
      "midi": 69,
      "hit": false,
      "t": 6333.326999999999,
      "d": 145.83318750000035,
      "v": 112
    },
    {
      "midi": 78,
      "hit": false,
      "t": 6333.326999999999,
      "d": 145.83318750000035,
      "v": 112
    },
    {
      "midi": 71,
      "hit": false,
      "t": 6499.9935,
      "d": 145.83318750000035,
      "v": 112
    },
    {
      "midi": 79,
      "hit": false,
      "t": 6499.9935,
      "d": 145.83318750000035,
      "v": 112
    },
    {
      "midi": 50,
      "hit": false,
      "t": 6666.659999999998,
      "d": 916.6657500000001,
      "v": 112
    },
    {
      "midi": 72,
      "hit": false,
      "t": 6666.66,
      "d": 583.3327499999996,
      "v": 112
    },
    {
      "midi": 81,
      "hit": false,
      "t": 6666.66,
      "d": 583.3327499999996,
      "v": 112
    },
    {
      "midi": 83,
      "hit": false,
      "t": 7333.325999999999,
      "d": 145.83318750000035,
      "v": 112
    },
    {
      "midi": 74,
      "hit": false,
      "t": 7499.992499999999,
      "d": 145.83318750000035,
      "v": 112
    },
    {
      "midi": 50,
      "hit": false,
      "t": 7666.658999999998,
      "d": 291.6663749999998,
      "v": 112
    },
    {
      "midi": 81,
      "hit": false,
      "t": 7666.659,
      "d": 145.83318750000035,
      "v": 112
    },
    {
      "midi": 72,
      "hit": false,
      "t": 7833.3255,
      "d": 145.83318750000035,
      "v": 112
    },
    {
      "midi": 52,
      "hit": false,
      "t": 7999.9919999999975,
      "d": 2291.6643749999994,
      "v": 112
    },
    {
      "midi": 79,
      "hit": false,
      "t": 7999.992,
      "d": 291.6663750000007,
      "v": 112
    },
    {
      "midi": 76,
      "hit": false,
      "t": 8333.325,
      "d": 291.6663750000007,
      "v": 112
    },
    {
      "midi": 67,
      "hit": false,
      "t": 8666.658000000001,
      "d": 291.6663750000007,
      "v": 112
    },
    {
      "midi": 71,
      "hit": false,
      "t": 8999.991000000002,
      "d": 145.83318750000035,
      "v": 112
    },
    {
      "midi": 67,
      "hit": false,
      "t": 9166.657500000003,
      "d": 145.83318750000035,
      "v": 112
    },
    {
      "midi": 69,
      "hit": false,
      "t": 9333.324000000004,
      "d": 145.83318750000035,
      "v": 112
    },
    {
      "midi": 76,
      "hit": false,
      "t": 9333.324000000004,
      "d": 583.3327500000032,
      "v": 112
    },
    {
      "midi": 71,
      "hit": false,
      "t": 9499.990500000005,
      "d": 145.83318750000035,
      "v": 112
    },
    {
      "midi": 67,
      "hit": false,
      "t": 9666.657000000007,
      "d": 291.6663750000007,
      "v": 112
    },
    {
      "midi": 78,
      "hit": false,
      "t": 9999.990000000007,
      "d": 145.83318750000035,
      "v": 112
    },
    {
      "midi": 76,
      "hit": false,
      "t": 10166.656500000008,
      "d": 145.83318750000035,
      "v": 112
    },
    {
      "midi": 54,
      "hit": false,
      "t": 10333.322999999997,
      "d": 291.6663750000007,
      "v": 112
    },
    {
      "midi": 74,
      "hit": false,
      "t": 10333.32300000001,
      "d": 145.83318750000035,
      "v": 112
    },
    {
      "midi": 71,
      "hit": false,
      "t": 10499.98950000001,
      "d": 145.83318750000035,
      "v": 112
    },
    {
      "midi": 55,
      "hit": false,
      "t": 10666.655999999997,
      "d": 291.6663750000007,
      "v": 112
    },
    {
      "midi": 55,
      "hit": false,
      "t": 10666.655999999999,
      "d": 1166.6654999999992,
      "v": 75
    },
    {
      "midi": 59,
      "hit": false,
      "t": 10666.655999999999,
      "d": 1166.6654999999992,
      "v": 75
    },
    {
      "midi": 62,
      "hit": false,
      "t": 10666.655999999999,
      "d": 1166.6654999999992,
      "v": 75
    },
    {
      "midi": 67,
      "hit": false,
      "t": 10666.655999999999,
      "d": 1166.6654999999992,
      "v": 75
    },
    {
      "midi": 67,
      "hit": false,
      "t": 10666.656000000012,
      "d": 583.3327499999996,
      "v": 112
    },
    {
      "midi": 71,
      "hit": false,
      "t": 10666.656000000012,
      "d": 583.3327499999996,
      "v": 112
    },
    {
      "midi": 74,
      "hit": false,
      "t": 10666.656000000012,
      "d": 583.3327499999996,
      "v": 112
    },
    {
      "midi": 62,
      "hit": false,
      "t": 10999.988999999998,
      "d": 291.6663750000007,
      "v": 112
    },
    {
      "midi": 55,
      "hit": false,
      "t": 11333.321999999998,
      "d": 291.6663750000007,
      "v": 112
    },
    {
      "midi": 67,
      "hit": false,
      "t": 11333.322000000011,
      "d": 583.3327499999996,
      "v": 112
    },
    {
      "midi": 71,
      "hit": false,
      "t": 11333.322000000011,
      "d": 583.3327499999996,
      "v": 112
    },
    {
      "midi": 74,
      "hit": false,
      "t": 11333.322000000011,
      "d": 583.3327499999996,
      "v": 112
    },
    {
      "midi": 62,
      "hit": false,
      "t": 11666.654999999999,
      "d": 291.6663750000007,
      "v": 112
    },
    {
      "midi": 52,
      "hit": false,
      "t": 11999.987999999998,
      "d": 274.3052812499991,
      "v": 70
    },
    {
      "midi": 55,
      "hit": false,
      "t": 11999.987999999998,
      "d": 274.3052812499991,
      "v": 70
    },
    {
      "midi": 59,
      "hit": false,
      "t": 11999.987999999998,
      "d": 274.3052812499991,
      "v": 70
    },
    {
      "midi": 64,
      "hit": false,
      "t": 11999.987999999998,
      "d": 274.3052812499991,
      "v": 70
    },
    {
      "midi": 67,
      "hit": false,
      "t": 11999.987999999998,
      "d": 274.3052812499991,
      "v": 70
    },
    {
      "midi": 52,
      "hit": false,
      "t": 11999.988,
      "d": 291.6663750000007,
      "v": 112
    },
    {
      "midi": 67,
      "hit": false,
      "t": 11999.98800000001,
      "d": 583.3327499999996,
      "v": 112
    },
    {
      "midi": 71,
      "hit": false,
      "t": 11999.98800000001,
      "d": 583.3327499999996,
      "v": 112
    },
    {
      "midi": 76,
      "hit": false,
      "t": 11999.98800000001,
      "d": 583.3327499999996,
      "v": 112
    },
    {
      "midi": 64,
      "hit": false,
      "t": 12333.321,
      "d": 291.6663750000007,
      "v": 112
    },
    {
      "midi": 55,
      "hit": false,
      "t": 12666.653999999997,
      "d": 274.3052812500009,
      "v": 70
    },
    {
      "midi": 52,
      "hit": false,
      "t": 12666.654,
      "d": 291.6663750000007,
      "v": 112
    },
    {
      "midi": 67,
      "hit": false,
      "t": 12666.65400000001,
      "d": 583.3327499999996,
      "v": 112
    },
    {
      "midi": 71,
      "hit": false,
      "t": 12666.65400000001,
      "d": 583.3327499999996,
      "v": 112
    },
    {
      "midi": 76,
      "hit": false,
      "t": 12666.65400000001,
      "d": 583.3327499999996,
      "v": 112
    },
    {
      "midi": 59,
      "hit": false,
      "t": 12999.986999999997,
      "d": 274.3052812499991,
      "v": 60
    },
    {
      "midi": 64,
      "hit": false,
      "t": 12999.987000000001,
      "d": 291.6663750000007,
      "v": 112
    },
    {
      "midi": 57,
      "hit": false,
      "t": 13333.319999999996,
      "d": 1166.6654999999992,
      "v": 70
    },
    {
      "midi": 62,
      "hit": false,
      "t": 13333.319999999996,
      "d": 1166.6654999999992,
      "v": 70
    },
    {
      "midi": 66,
      "hit": false,
      "t": 13333.319999999996,
      "d": 1166.6654999999992,
      "v": 70
    },
    {
      "midi": 50,
      "hit": false,
      "t": 13333.320000000002,
      "d": 291.6663750000007,
      "v": 112
    },
    {
      "midi": 69,
      "hit": false,
      "t": 13333.320000000009,
      "d": 583.3327499999996,
      "v": 112
    },
    {
      "midi": 74,
      "hit": false,
      "t": 13333.320000000009,
      "d": 583.3327499999996,
      "v": 112
    },
    {
      "midi": 78,
      "hit": false,
      "t": 13333.320000000009,
      "d": 583.3327499999996,
      "v": 112
    },
    {
      "midi": 62,
      "hit": false,
      "t": 13666.653000000002,
      "d": 291.6663750000007,
      "v": 112
    },
    {
      "midi": 50,
      "hit": false,
      "t": 13999.986000000003,
      "d": 291.6663750000007,
      "v": 112
    },
    {
      "midi": 69,
      "hit": false,
      "t": 13999.986000000008,
      "d": 583.3327499999996,
      "v": 112
    },
    {
      "midi": 74,
      "hit": false,
      "t": 13999.986000000008,
      "d": 583.3327499999996,
      "v": 112
    },
    {
      "midi": 78,
      "hit": false,
      "t": 13999.986000000008,
      "d": 583.3327499999996,
      "v": 112
    },
    {
      "midi": 62,
      "hit": false,
      "t": 14333.319000000003,
      "d": 291.6663750000007,
      "v": 112
    },
    {
      "midi": 50,
      "hit": false,
      "t": 14666.652000000004,
      "d": 291.6663750000007,
      "v": 112
    },
    {
      "midi": 69,
      "hit": false,
      "t": 14666.652000000007,
      "d": 583.3327499999996,
      "v": 112
    },
    {
      "midi": 74,
      "hit": false,
      "t": 14666.652000000007,
      "d": 583.3327499999996,
      "v": 112
    },
    {
      "midi": 78,
      "hit": false,
      "t": 14666.652000000007,
      "d": 583.3327499999996,
      "v": 112
    },
    {
      "midi": 50,
      "hit": false,
      "t": 14999.984999999995,
      "d": 333.33300000000054,
      "v": 70
    },
    {
      "midi": 62,
      "hit": false,
      "t": 14999.985000000004,
      "d": 291.6663749999989,
      "v": 112
    },
    {
      "midi": 60,
      "hit": false,
      "t": 15166.651500000004,
      "d": 72.91659375000017,
      "v": 112
    },
    {
      "midi": 61,
      "hit": false,
      "t": 15249.984750000003,
      "d": 72.91659375000017,
      "v": 112
    },
    {
      "midi": 50,
      "hit": false,
      "t": 15333.317999999996,
      "d": 666.6659999999993,
      "v": 75
    },
    {
      "midi": 57,
      "hit": false,
      "t": 15333.317999999996,
      "d": 666.6659999999993,
      "v": 75
    },
    {
      "midi": 62,
      "hit": false,
      "t": 15333.317999999996,
      "d": 666.6659999999993,
      "v": 75
    },
    {
      "midi": 66,
      "hit": false,
      "t": 15333.317999999996,
      "d": 666.6659999999993,
      "v": 75
    },
    {
      "midi": 69,
      "hit": false,
      "t": 15333.317999999996,
      "d": 666.6659999999993,
      "v": 75
    },
    {
      "midi": 62,
      "hit": false,
      "t": 15333.318000000003,
      "d": 291.6663750000007,
      "v": 112
    },
    {
      "midi": 69,
      "hit": false,
      "t": 15333.318000000007,
      "d": 145.83318750000035,
      "v": 112
    },
    {
      "midi": 78,
      "hit": false,
      "t": 15333.318000000007,
      "d": 145.83318750000035,
      "v": 112
    },
    {
      "midi": 71,
      "hit": false,
      "t": 15499.984500000008,
      "d": 437.49956249999923,
      "v": 112
    },
    {
      "midi": 79,
      "hit": false,
      "t": 15499.984500000008,
      "d": 437.49956249999923,
      "v": 112
    },
    {
      "midi": 57,
      "hit": false,
      "t": 15666.651000000003,
      "d": 291.6663750000007,
      "v": 112
    },
    {
      "midi": 50,
      "hit": false,
      "t": 15999.983999999995,
      "d": 1166.665500000001,
      "v": 70
    },
    {
      "midi": 60,
      "hit": false,
      "t": 15999.983999999995,
      "d": 1166.665500000001,
      "v": 70
    },
    {
      "midi": 62,
      "hit": false,
      "t": 15999.983999999995,
      "d": 1166.665500000001,
      "v": 70
    },
    {
      "midi": 66,
      "hit": false,
      "t": 15999.983999999995,
      "d": 1166.665500000001,
      "v": 70
    },
    {
      "midi": 69,
      "hit": false,
      "t": 15999.983999999995,
      "d": 1166.665500000001,
      "v": 70
    },
    {
      "midi": 50,
      "hit": false,
      "t": 15999.984000000004,
      "d": 291.6663750000007,
      "v": 112
    },
    {
      "midi": 69,
      "hit": false,
      "t": 15999.984000000008,
      "d": 916.6657500000001,
      "v": 112
    },
    {
      "midi": 72,
      "hit": false,
      "t": 15999.984000000008,
      "d": 916.6657500000001,
      "v": 112
    },
    {
      "midi": 78,
      "hit": false,
      "t": 15999.984000000008,
      "d": 916.6657500000001,
      "v": 112
    },
    {
      "midi": 62,
      "hit": false,
      "t": 16333.317000000005,
      "d": 291.6663749999989,
      "v": 112
    },
    {
      "midi": 50,
      "hit": false,
      "t": 16666.650000000005,
      "d": 291.6663750000007,
      "v": 112
    },
    {
      "midi": 69,
      "hit": false,
      "t": 16999.983000000007,
      "d": 145.83318750000035,
      "v": 112
    },
    {
      "midi": 78,
      "hit": false,
      "t": 16999.983000000007,
      "d": 145.83318750000035,
      "v": 112
    },
    {
      "midi": 62,
      "hit": false,
      "t": 16999.983000000007,
      "d": 291.6663750000007,
      "v": 112
    },
    {
      "midi": 71,
      "hit": false,
      "t": 17166.649500000007,
      "d": 145.83318750000035,
      "v": 112
    },
    {
      "midi": 79,
      "hit": false,
      "t": 17166.649500000007,
      "d": 145.83318750000035,
      "v": 112
    },
    {
      "midi": 69,
      "hit": false,
      "t": 17333.316000000006,
      "d": 583.3327500000014,
      "v": 112
    },
    {
      "midi": 78,
      "hit": false,
      "t": 17333.316000000006,
      "d": 583.3327500000014,
      "v": 112
    },
    {
      "midi": 50,
      "hit": false,
      "t": 17333.31600000001,
      "d": 291.6663750000007,
      "v": 112
    },
    {
      "midi": 62,
      "hit": false,
      "t": 17666.649000000012,
      "d": 291.6663750000007,
      "v": 112
    },
    {
      "midi": 83,
      "hit": false,
      "t": 17999.982000000007,
      "d": 145.83318750000035,
      "v": 112
    },
    {
      "midi": 50,
      "hit": false,
      "t": 17999.982000000015,
      "d": 291.6663750000007,
      "v": 112
    },
    {
      "midi": 74,
      "hit": false,
      "t": 18166.648500000007,
      "d": 145.83318750000035,
      "v": 112
    },
    {
      "midi": 81,
      "hit": false,
      "t": 18333.315000000006,
      "d": 145.83318750000035,
      "v": 112
    },
    {
      "midi": 62,
      "hit": false,
      "t": 18333.315000000017,
      "d": 291.6663750000007,
      "v": 112
    },
    {
      "midi": 72,
      "hit": false,
      "t": 18499.981500000005,
      "d": 145.83318750000035,
      "v": 112
    },
    {
      "midi": 52,
      "hit": false,
      "t": 18666.647999999997,
      "d": 1166.6654999999992,
      "v": 70
    },
    {
      "midi": 55,
      "hit": false,
      "t": 18666.647999999997,
      "d": 1166.6654999999992,
      "v": 70
    },
    {
      "midi": 59,
      "hit": false,
      "t": 18666.647999999997,
      "d": 1166.6654999999992,
      "v": 70
    },
    {
      "midi": 64,
      "hit": false,
      "t": 18666.647999999997,
      "d": 1166.6654999999992,
      "v": 70
    },
    {
      "midi": 71,
      "hit": false,
      "t": 18666.648000000005,
      "d": 291.6663750000007,
      "v": 112
    },
    {
      "midi": 79,
      "hit": false,
      "t": 18666.648000000005,
      "d": 291.6663750000007,
      "v": 112
    },
    {
      "midi": 52,
      "hit": false,
      "t": 18666.64800000002,
      "d": 291.6663750000007,
      "v": 112
    },
    {
      "midi": 67,
      "hit": false,
      "t": 18999.981000000007,
      "d": 291.6663750000007,
      "v": 112
    },
    {
      "midi": 64,
      "hit": false,
      "t": 18999.98100000002,
      "d": 291.6663750000007,
      "v": 112
    },
    {
      "midi": 71,
      "hit": false,
      "t": 19333.31400000001,
      "d": 291.6663750000007,
      "v": 112
    },
    {
      "midi": 76,
      "hit": false,
      "t": 19333.31400000001,
      "d": 291.6663750000007,
      "v": 112
    },
    {
      "midi": 52,
      "hit": false,
      "t": 19333.314000000024,
      "d": 291.6663750000007,
      "v": 112
    },
    {
      "midi": 67,
      "hit": false,
      "t": 19666.64700000001,
      "d": 291.6663750000007,
      "v": 112
    },
    {
      "midi": 64,
      "hit": false,
      "t": 19666.647000000026,
      "d": 291.6663750000007,
      "v": 112
    },
    {
      "midi": 69,
      "hit": false,
      "t": 19999.980000000014,
      "d": 291.6663750000007,
      "v": 112
    },
    {
      "midi": 76,
      "hit": false,
      "t": 19999.980000000014,
      "d": 916.6657500000038,
      "v": 112
    },
    {
      "midi": 52,
      "hit": false,
      "t": 19999.98000000003,
      "d": 291.6663750000007,
      "v": 112
    },
    {
      "midi": 55,
      "hit": false,
      "t": 20333.313,
      "d": 333.3329999999987,
      "v": 60
    },
    {
      "midi": 67,
      "hit": false,
      "t": 20333.313000000016,
      "d": 583.3327500000014,
      "v": 112
    },
    {
      "midi": 64,
      "hit": false,
      "t": 20333.31300000003,
      "d": 291.6663750000007,
      "v": 112
    },
    {
      "midi": 59,
      "hit": false,
      "t": 20666.645999999997,
      "d": 333.3329999999987,
      "v": 65
    },
    {
      "midi": 52,
      "hit": false,
      "t": 20666.646000000033,
      "d": 291.6663750000007,
      "v": 112
    },
    {
      "midi": 64,
      "hit": false,
      "t": 20999.978999999996,
      "d": 333.3329999999987,
      "v": 70
    },
    {
      "midi": 71,
      "hit": false,
      "t": 20999.979000000018,
      "d": 145.83318750000035,
      "v": 112
    },
    {
      "midi": 76,
      "hit": false,
      "t": 20999.979000000018,
      "d": 291.6663750000007,
      "v": 112
    },
    {
      "midi": 64,
      "hit": false,
      "t": 20999.979000000036,
      "d": 291.6663750000007,
      "v": 112
    },
    {
      "midi": 72,
      "hit": false,
      "t": 21166.645500000017,
      "d": 145.83318750000035,
      "v": 112
    },
    {
      "midi": 59,
      "hit": false,
      "t": 21333.311999999994,
      "d": 1166.6654999999992,
      "v": 70
    },
    {
      "midi": 61,
      "hit": false,
      "t": 21333.311999999994,
      "d": 1166.6654999999992,
      "v": 70
    },
    {
      "midi": 64,
      "hit": false,
      "t": 21333.311999999994,
      "d": 1166.6654999999992,
      "v": 70
    },
    {
      "midi": 67,
      "hit": false,
      "t": 21333.311999999994,
      "d": 1166.6654999999992,
      "v": 70
    },
    {
      "midi": 71,
      "hit": false,
      "t": 21333.312000000016,
      "d": 583.3327500000014,
      "v": 112
    },
    {
      "midi": 73,
      "hit": false,
      "t": 21333.312000000016,
      "d": 583.3327500000014,
      "v": 112
    },
    {
      "midi": 76,
      "hit": false,
      "t": 21333.312000000016,
      "d": 583.3327500000014,
      "v": 112
    },
    {
      "midi": 52,
      "hit": false,
      "t": 21333.312000000038,
      "d": 291.6663750000007,
      "v": 112
    },
    {
      "midi": 67,
      "hit": false,
      "t": 21666.64500000004,
      "d": 291.6663750000007,
      "v": 112
    },
    {
      "midi": 71,
      "hit": false,
      "t": 21999.978000000017,
      "d": 583.3327500000014,
      "v": 112
    },
    {
      "midi": 73,
      "hit": false,
      "t": 21999.978000000017,
      "d": 583.3327500000014,
      "v": 112
    },
    {
      "midi": 76,
      "hit": false,
      "t": 21999.978000000017,
      "d": 583.3327500000014,
      "v": 112
    },
    {
      "midi": 52,
      "hit": false,
      "t": 21999.978000000043,
      "d": 291.6663750000007,
      "v": 112
    },
    {
      "midi": 67,
      "hit": false,
      "t": 22333.311000000045,
      "d": 291.6663750000007,
      "v": 112
    },
    {
      "midi": 79,
      "hit": false,
      "t": 22666.64400000002,
      "d": 145.83318750000035,
      "v": 112
    },
    {
      "midi": 52,
      "hit": false,
      "t": 22666.644000000048,
      "d": 291.6663750000007,
      "v": 112
    },
    {
      "midi": 73,
      "hit": false,
      "t": 22833.310500000018,
      "d": 437.49956250000105,
      "v": 112
    },
    {
      "midi": 59,
      "hit": false,
      "t": 22999.976999999995,
      "d": 333.3329999999987,
      "v": 60
    },
    {
      "midi": 67,
      "hit": false,
      "t": 22999.97700000005,
      "d": 291.6663750000007,
      "v": 112
    },
    {
      "midi": 61,
      "hit": false,
      "t": 23333.309999999994,
      "d": 333.3329999999987,
      "v": 65
    },
    {
      "midi": 71,
      "hit": false,
      "t": 23333.31000000002,
      "d": 145.83318750000035,
      "v": 112
    },
    {
      "midi": 52,
      "hit": false,
      "t": 23333.310000000052,
      "d": 291.6663750000007,
      "v": 112
    },
    {
      "midi": 73,
      "hit": false,
      "t": 23499.97650000002,
      "d": 437.49956250000105,
      "v": 112
    },
    {
      "midi": 64,
      "hit": false,
      "t": 23666.642999999993,
      "d": 333.3329999999987,
      "v": 70
    },
    {
      "midi": 67,
      "hit": false,
      "t": 23666.643000000055,
      "d": 291.6663750000007,
      "v": 112
    },
    {
      "midi": 50,
      "hit": false,
      "t": 23999.97599999999,
      "d": 1166.6654999999992,
      "v": 70
    },
    {
      "midi": 57,
      "hit": false,
      "t": 23999.97599999999,
      "d": 1166.6654999999992,
      "v": 70
    },
    {
      "midi": 62,
      "hit": false,
      "t": 23999.97599999999,
      "d": 1166.6654999999992,
      "v": 70
    },
    {
      "midi": 66,
      "hit": false,
      "t": 23999.97599999999,
      "d": 1166.6654999999992,
      "v": 70
    },
    {
      "midi": 69,
      "hit": false,
      "t": 23999.97600000002,
      "d": 583.3327500000014,
      "v": 112
    },
    {
      "midi": 74,
      "hit": false,
      "t": 23999.97600000002,
      "d": 583.3327500000014,
      "v": 112
    },
    {
      "midi": 78,
      "hit": false,
      "t": 23999.97600000002,
      "d": 583.3327500000014,
      "v": 112
    },
    {
      "midi": 50,
      "hit": false,
      "t": 23999.976000000057,
      "d": 291.6663750000007,
      "v": 112
    },
    {
      "midi": 62,
      "hit": false,
      "t": 24333.30900000006,
      "d": 291.6663750000007,
      "v": 112
    },
    {
      "midi": 69,
      "hit": false,
      "t": 24666.64200000002,
      "d": 583.3327500000014,
      "v": 112
    },
    {
      "midi": 74,
      "hit": false,
      "t": 24666.64200000002,
      "d": 583.3327500000014,
      "v": 112
    },
    {
      "midi": 78,
      "hit": false,
      "t": 24666.64200000002,
      "d": 583.3327500000014,
      "v": 112
    },
    {
      "midi": 50,
      "hit": false,
      "t": 24666.64200000006,
      "d": 291.6663750000007,
      "v": 112
    },
    {
      "midi": 62,
      "hit": false,
      "t": 24999.975000000064,
      "d": 291.6663750000007,
      "v": 112
    },
    {
      "midi": 66,
      "hit": false,
      "t": 25333.308000000023,
      "d": 583.3327500000014,
      "v": 112
    },
    {
      "midi": 74,
      "hit": false,
      "t": 25333.308000000023,
      "d": 583.3327500000014,
      "v": 112
    },
    {
      "midi": 50,
      "hit": false,
      "t": 25333.308000000066,
      "d": 291.6663750000007,
      "v": 112
    },
    {
      "midi": 50,
      "hit": false,
      "t": 25666.640999999992,
      "d": 333.3329999999987,
      "v": 70
    },
    {
      "midi": 62,
      "hit": false,
      "t": 25666.64100000007,
      "d": 291.6663750000007,
      "v": 112
    },
    {
      "midi": 57,
      "hit": false,
      "t": 25999.97399999999,
      "d": 666.6660000000011,
      "v": 75
    },
    {
      "midi": 62,
      "hit": false,
      "t": 25999.97399999999,
      "d": 666.6660000000011,
      "v": 75
    },
    {
      "midi": 66,
      "hit": false,
      "t": 25999.97399999999,
      "d": 666.6660000000011,
      "v": 75
    },
    {
      "midi": 66,
      "hit": false,
      "t": 25999.974000000024,
      "d": 145.83318750000035,
      "v": 112
    },
    {
      "midi": 74,
      "hit": false,
      "t": 25999.974000000024,
      "d": 583.3327499999978,
      "v": 112
    },
    {
      "midi": 57,
      "hit": false,
      "t": 25999.97400000007,
      "d": 145.83318750000035,
      "v": 112
    },
    {
      "midi": 50,
      "hit": false,
      "t": 25999.97400000007,
      "d": 583.3327499999978,
      "v": 112
    },
    {
      "midi": 67,
      "hit": false,
      "t": 26166.640500000023,
      "d": 145.83318750000035,
      "v": 112
    },
    {
      "midi": 59,
      "hit": false,
      "t": 26166.64050000007,
      "d": 145.83318750000035,
      "v": 112
    },
    {
      "midi": 66,
      "hit": false,
      "t": 26333.307000000023,
      "d": 145.83318750000035,
      "v": 112
    },
    {
      "midi": 57,
      "hit": false,
      "t": 26333.30700000007,
      "d": 145.83318750000035,
      "v": 112
    },
    {
      "midi": 67,
      "hit": false,
      "t": 26499.973500000022,
      "d": 145.83318750000035,
      "v": 112
    },
    {
      "midi": 59,
      "hit": false,
      "t": 26499.97350000007,
      "d": 145.83318750000035,
      "v": 112
    },
    {
      "midi": 55,
      "hit": false,
      "t": 26666.639999999992,
      "d": 1166.6654999999992,
      "v": 70
    },
    {
      "midi": 59,
      "hit": false,
      "t": 26666.639999999992,
      "d": 1166.6654999999992,
      "v": 70
    },
    {
      "midi": 64,
      "hit": false,
      "t": 26666.639999999992,
      "d": 1166.6654999999992,
      "v": 70
    },
    {
      "midi": 67,
      "hit": false,
      "t": 26666.64000000002,
      "d": 583.3327500000014,
      "v": 112
    },
    {
      "midi": 71,
      "hit": false,
      "t": 26666.64000000002,
      "d": 583.3327500000014,
      "v": 112
    },
    {
      "midi": 76,
      "hit": false,
      "t": 26666.64000000002,
      "d": 583.3327500000014,
      "v": 112
    },
    {
      "midi": 52,
      "hit": false,
      "t": 26666.64000000007,
      "d": 291.6663750000007,
      "v": 112
    },
    {
      "midi": 55,
      "hit": false,
      "t": 26999.97300000007,
      "d": 291.6663750000007,
      "v": 112
    },
    {
      "midi": 59,
      "hit": false,
      "t": 26999.97300000007,
      "d": 291.6663750000007,
      "v": 112
    },
    {
      "midi": 67,
      "hit": false,
      "t": 27333.306000000022,
      "d": 1104.1655624999985,
      "v": 112
    },
    {
      "midi": 71,
      "hit": false,
      "t": 27333.306000000022,
      "d": 1104.1655624999985,
      "v": 112
    },
    {
      "midi": 76,
      "hit": false,
      "t": 27333.306000000022,
      "d": 1104.1655624999985,
      "v": 112
    },
    {
      "midi": 52,
      "hit": false,
      "t": 27333.306000000073,
      "d": 291.6663750000007,
      "v": 112
    },
    {
      "midi": 55,
      "hit": false,
      "t": 27666.639000000076,
      "d": 291.6663750000007,
      "v": 112
    },
    {
      "midi": 59,
      "hit": false,
      "t": 27666.639000000076,
      "d": 291.6663750000007,
      "v": 112
    },
    {
      "midi": 52,
      "hit": false,
      "t": 27999.972000000078,
      "d": 291.6663750000007,
      "v": 112
    },
    {
      "midi": 55,
      "hit": false,
      "t": 28333.30500000008,
      "d": 291.6663750000007,
      "v": 112
    },
    {
      "midi": 59,
      "hit": false,
      "t": 28333.30500000008,
      "d": 291.6663750000007,
      "v": 112
    },
    {
      "midi": 67,
      "hit": false,
      "t": 28499.97150000002,
      "d": 145.83318750000035,
      "v": 112
    },
    {
      "midi": 78,
      "hit": false,
      "t": 28666.63800000002,
      "d": 145.83318750000035,
      "v": 112
    },
    {
      "midi": 52,
      "hit": false,
      "t": 28666.638000000083,
      "d": 291.6663750000007,
      "v": 112
    },
    {
      "midi": 76,
      "hit": false,
      "t": 28833.30450000002,
      "d": 145.83318750000035,
      "v": 112
    },
    {
      "midi": 71,
      "hit": false,
      "t": 28999.97100000002,
      "d": 145.83318750000035,
      "v": 112
    },
    {
      "midi": 55,
      "hit": false,
      "t": 28999.971000000085,
      "d": 291.6663750000007,
      "v": 112
    },
    {
      "midi": 59,
      "hit": false,
      "t": 28999.971000000085,
      "d": 291.6663750000007,
      "v": 112
    },
    {
      "midi": 67,
      "hit": false,
      "t": 29166.63750000002,
      "d": 145.83318750000035,
      "v": 112
    },
    {
      "midi": 55,
      "hit": false,
      "t": 29333.303999999993,
      "d": 1166.6654999999992,
      "v": 70
    },
    {
      "midi": 60,
      "hit": false,
      "t": 29333.303999999993,
      "d": 1166.6654999999992,
      "v": 70
    },
    {
      "midi": 64,
      "hit": false,
      "t": 29333.303999999993,
      "d": 1166.6654999999992,
      "v": 70
    },
    {
      "midi": 67,
      "hit": false,
      "t": 29333.303999999993,
      "d": 1166.6654999999992,
      "v": 70
    },
    {
      "midi": 67,
      "hit": false,
      "t": 29333.30400000002,
      "d": 583.3327500000014,
      "v": 112
    },
    {
      "midi": 72,
      "hit": false,
      "t": 29333.30400000002,
      "d": 583.3327500000014,
      "v": 112
    },
    {
      "midi": 76,
      "hit": false,
      "t": 29333.30400000002,
      "d": 583.3327500000014,
      "v": 112
    },
    {
      "midi": 48,
      "hit": false,
      "t": 29333.304000000087,
      "d": 291.6663750000007,
      "v": 112
    },
    {
      "midi": 60,
      "hit": false,
      "t": 29666.63700000009,
      "d": 291.6663750000007,
      "v": 112
    },
    {
      "midi": 67,
      "hit": false,
      "t": 29999.97000000002,
      "d": 437.49956250000105,
      "v": 112
    },
    {
      "midi": 72,
      "hit": false,
      "t": 29999.97000000002,
      "d": 437.49956250000105,
      "v": 112
    },
    {
      "midi": 76,
      "hit": false,
      "t": 29999.97000000002,
      "d": 437.49956250000105,
      "v": 112
    },
    {
      "midi": 48,
      "hit": false,
      "t": 29999.970000000092,
      "d": 291.6663750000007,
      "v": 112
    },
    {
      "midi": 60,
      "hit": false,
      "t": 30333.303000000094,
      "d": 291.6663750000007,
      "v": 112
    },
    {
      "midi": 72,
      "hit": false,
      "t": 30499.96950000002,
      "d": 145.83318750000035,
      "v": 112
    },
    {
      "midi": 76,
      "hit": false,
      "t": 30499.96950000002,
      "d": 145.83318750000035,
      "v": 112
    },
    {
      "midi": 79,
      "hit": false,
      "t": 30499.96950000002,
      "d": 145.83318750000035,
      "v": 112
    },
    {
      "midi": 72,
      "hit": false,
      "t": 30666.63600000002,
      "d": 437.49956250000105,
      "v": 112
    },
    {
      "midi": 76,
      "hit": false,
      "t": 30666.63600000002,
      "d": 437.49956250000105,
      "v": 112
    },
    {
      "midi": 79,
      "hit": false,
      "t": 30666.63600000002,
      "d": 437.49956250000105,
      "v": 112
    },
    {
      "midi": 48,
      "hit": false,
      "t": 30666.636000000097,
      "d": 291.6663750000007,
      "v": 112
    },
    {
      "midi": 48,
      "hit": false,
      "t": 30999.968999999994,
      "d": 333.3329999999987,
      "v": 70
    },
    {
      "midi": 60,
      "hit": false,
      "t": 30999.9690000001,
      "d": 291.6663750000007,
      "v": 112
    },
    {
      "midi": 79,
      "hit": false,
      "t": 31166.635500000022,
      "d": 145.83318750000035,
      "v": 112
    },
    {
      "midi": 84,
      "hit": false,
      "t": 31166.635500000022,
      "d": 145.83318750000035,
      "v": 112
    },
    {
      "midi": 88,
      "hit": false,
      "t": 31166.635500000022,
      "d": 145.83318750000035,
      "v": 112
    },
    {
      "midi": 91,
      "hit": false,
      "t": 31166.635500000022,
      "d": 145.83318750000035,
      "v": 112
    },
    {
      "midi": 48,
      "hit": false,
      "t": 31333.301999999992,
      "d": 666.6660000000011,
      "v": 75
    },
    {
      "midi": 55,
      "hit": false,
      "t": 31333.301999999992,
      "d": 666.6660000000011,
      "v": 75
    },
    {
      "midi": 60,
      "hit": false,
      "t": 31333.301999999992,
      "d": 666.6660000000011,
      "v": 75
    },
    {
      "midi": 64,
      "hit": false,
      "t": 31333.301999999992,
      "d": 666.6660000000011,
      "v": 75
    },
    {
      "midi": 67,
      "hit": false,
      "t": 31333.301999999992,
      "d": 666.6660000000011,
      "v": 75
    },
    {
      "midi": 79,
      "hit": false,
      "t": 31333.30200000002,
      "d": 583.3327500000014,
      "v": 112
    },
    {
      "midi": 84,
      "hit": false,
      "t": 31333.30200000002,
      "d": 583.3327500000014,
      "v": 112
    },
    {
      "midi": 88,
      "hit": false,
      "t": 31333.30200000002,
      "d": 583.3327500000014,
      "v": 112
    },
    {
      "midi": 91,
      "hit": false,
      "t": 31333.30200000002,
      "d": 583.3327500000014,
      "v": 112
    },
    {
      "midi": 48,
      "hit": false,
      "t": 31333.3020000001,
      "d": 291.6663750000007,
      "v": 112
    },
    {
      "midi": 48,
      "hit": false,
      "t": 31666.635000000104,
      "d": 291.6663750000007,
      "v": 112
    },
    {
      "midi": 55,
      "hit": false,
      "t": 31999.967999999993,
      "d": 274.3052812499991,
      "v": 70
    },
    {
      "midi": 59,
      "hit": false,
      "t": 31999.967999999993,
      "d": 274.3052812499991,
      "v": 70
    },
    {
      "midi": 62,
      "hit": false,
      "t": 31999.967999999993,
      "d": 274.3052812499991,
      "v": 70
    },
    {
      "midi": 67,
      "hit": false,
      "t": 31999.967999999993,
      "d": 274.3052812499991,
      "v": 70
    },
    {
      "midi": 67,
      "hit": false,
      "t": 31999.968000000023,
      "d": 583.3327500000014,
      "v": 112
    },
    {
      "midi": 71,
      "hit": false,
      "t": 31999.968000000023,
      "d": 583.3327500000014,
      "v": 112
    },
    {
      "midi": 74,
      "hit": false,
      "t": 31999.968000000023,
      "d": 583.3327500000014,
      "v": 112
    },
    {
      "midi": 43,
      "hit": false,
      "t": 31999.968000000106,
      "d": 1249.9987500000025,
      "v": 112
    },
    {
      "midi": 55,
      "hit": false,
      "t": 32333.300999999992,
      "d": 333.3329999999987,
      "v": 60
    },
    {
      "midi": 55,
      "hit": false,
      "t": 32666.63399999999,
      "d": 333.3329999999987,
      "v": 65
    },
    {
      "midi": 67,
      "hit": false,
      "t": 32666.634000000024,
      "d": 583.3327499999978,
      "v": 112
    },
    {
      "midi": 71,
      "hit": false,
      "t": 32666.634000000024,
      "d": 583.3327499999978,
      "v": 112
    },
    {
      "midi": 74,
      "hit": false,
      "t": 32666.634000000024,
      "d": 583.3327499999978,
      "v": 112
    },
    {
      "midi": 59,
      "hit": false,
      "t": 32999.96699999999,
      "d": 333.3329999999987,
      "v": 60
    },
    {
      "midi": 59,
      "hit": false,
      "t": 33333.29999999999,
      "d": 274.30528125000274,
      "v": 70
    },
    {
      "midi": 62,
      "hit": false,
      "t": 33333.29999999999,
      "d": 274.30528125000274,
      "v": 70
    },
    {
      "midi": 65,
      "hit": false,
      "t": 33333.29999999999,
      "d": 274.30528125000274,
      "v": 70
    },
    {
      "midi": 69,
      "hit": false,
      "t": 33333.29999999999,
      "d": 274.30528125000274,
      "v": 70
    },
    {
      "midi": 65,
      "hit": false,
      "t": 33333.300000000025,
      "d": 583.3327500000014,
      "v": 112
    },
    {
      "midi": 69,
      "hit": false,
      "t": 33333.300000000025,
      "d": 583.3327500000014,
      "v": 112
    },
    {
      "midi": 71,
      "hit": false,
      "t": 33333.300000000025,
      "d": 583.3327500000014,
      "v": 112
    },
    {
      "midi": 74,
      "hit": false,
      "t": 33333.300000000025,
      "d": 583.3327500000014,
      "v": 112
    },
    {
      "midi": 41,
      "hit": false,
      "t": 33333.30000000011,
      "d": 1249.9987499999988,
      "v": 112
    },
    {
      "midi": 53,
      "hit": false,
      "t": 33666.632999999994,
      "d": 333.3329999999987,
      "v": 70
    },
    {
      "midi": 59,
      "hit": false,
      "t": 33999.96599999999,
      "d": 333.3329999999987,
      "v": 60
    },
    {
      "midi": 65,
      "hit": false,
      "t": 33999.96600000003,
      "d": 583.3327500000014,
      "v": 112
    },
    {
      "midi": 69,
      "hit": false,
      "t": 33999.96600000003,
      "d": 583.3327500000014,
      "v": 112
    },
    {
      "midi": 71,
      "hit": false,
      "t": 33999.96600000003,
      "d": 583.3327500000014,
      "v": 112
    },
    {
      "midi": 74,
      "hit": false,
      "t": 33999.96600000003,
      "d": 583.3327500000014,
      "v": 112
    },
    {
      "midi": 59,
      "hit": false,
      "t": 34333.29899999999,
      "d": 274.30528125000274,
      "v": 65
    },
    {
      "midi": 62,
      "hit": false,
      "t": 34333.29899999999,
      "d": 274.30528125000274,
      "v": 65
    },
    {
      "midi": 65,
      "hit": false,
      "t": 34333.29899999999,
      "d": 274.30528125000274,
      "v": 65
    },
    {
      "midi": 69,
      "hit": false,
      "t": 34333.29899999999,
      "d": 274.30528125000274,
      "v": 65
    },
    {
      "midi": 48,
      "hit": false,
      "t": 34666.632,
      "d": 1166.6655000000028,
      "v": 70
    },
    {
      "midi": 55,
      "hit": false,
      "t": 34666.632,
      "d": 1166.6655000000028,
      "v": 70
    },
    {
      "midi": 60,
      "hit": false,
      "t": 34666.632,
      "d": 1166.6655000000028,
      "v": 70
    },
    {
      "midi": 64,
      "hit": false,
      "t": 34666.632,
      "d": 1166.6655000000028,
      "v": 70
    },
    {
      "midi": 64,
      "hit": false,
      "t": 34666.632000000034,
      "d": 583.3327500000014,
      "v": 112
    },
    {
      "midi": 67,
      "hit": false,
      "t": 34666.632000000034,
      "d": 583.3327500000014,
      "v": 112
    },
    {
      "midi": 74,
      "hit": false,
      "t": 34666.632000000034,
      "d": 583.3327500000014,
      "v": 112
    },
    {
      "midi": 36,
      "hit": false,
      "t": 34666.632000000114,
      "d": 1624.9983750000029,
      "v": 112
    },
    {
      "midi": 72,
      "hit": false,
      "t": 35333.29800000004,
      "d": 583.3327500000014,
      "v": 112
    },
    {
      "midi": 76,
      "hit": false,
      "t": 35333.29800000004,
      "d": 583.3327500000014,
      "v": 112
    },
    {
      "midi": 79,
      "hit": false,
      "t": 35333.29800000004,
      "d": 583.3327500000014,
      "v": 112
    },
    {
      "midi": 72,
      "hit": false,
      "t": 35999.96400000004,
      "d": 291.6663750000007,
      "v": 112
    },
    {
      "midi": 76,
      "hit": false,
      "t": 35999.96400000004,
      "d": 291.6663750000007,
      "v": 112
    },
    {
      "midi": 79,
      "hit": false,
      "t": 35999.96400000004,
      "d": 291.6663750000007,
      "v": 112
    },
    {
      "midi": 55,
      "hit": false,
      "t": 36333.297,
      "d": 333.3329999999987,
      "v": 60
    },
    {
      "midi": 72,
      "hit": false,
      "t": 36333.29700000004,
      "d": 291.6663750000007,
      "v": 112
    },
    {
      "midi": 76,
      "hit": false,
      "t": 36333.29700000004,
      "d": 291.6663750000007,
      "v": 112
    },
    {
      "midi": 79,
      "hit": false,
      "t": 36333.29700000004,
      "d": 291.6663750000007,
      "v": 112
    },
    {
      "midi": 38,
      "hit": false,
      "t": 36333.297000000115,
      "d": 291.6663750000007,
      "v": 112
    },
    {
      "midi": 60,
      "hit": false,
      "t": 36666.63,
      "d": 333.3329999999987,
      "v": 65
    },
    {
      "midi": 76,
      "hit": false,
      "t": 36666.63000000004,
      "d": 145.83318750000035,
      "v": 112
    },
    {
      "midi": 38,
      "hit": false,
      "t": 36666.630000000114,
      "d": 291.6663750000007,
      "v": 112
    },
    {
      "midi": 79,
      "hit": false,
      "t": 36833.29650000004,
      "d": 145.83318750000035,
      "v": 112
    },
    {
      "midi": 64,
      "hit": false,
      "t": 36999.962999999996,
      "d": 333.3329999999987,
      "v": 70
    },
    {
      "midi": 76,
      "hit": false,
      "t": 36999.96300000004,
      "d": 145.83318750000035,
      "v": 112
    },
    {
      "midi": 40,
      "hit": false,
      "t": 36999.96300000011,
      "d": 291.6663750000007,
      "v": 112
    },
    {
      "midi": 71,
      "hit": false,
      "t": 37166.62950000004,
      "d": 145.83318750000035,
      "v": 112
    },
    {
      "midi": 55,
      "hit": false,
      "t": 37333.295999999995,
      "d": 274.30528125000274,
      "v": 70
    },
    {
      "midi": 59,
      "hit": false,
      "t": 37333.295999999995,
      "d": 274.30528125000274,
      "v": 70
    },
    {
      "midi": 62,
      "hit": false,
      "t": 37333.295999999995,
      "d": 274.30528125000274,
      "v": 70
    },
    {
      "midi": 67,
      "hit": false,
      "t": 37333.29600000004,
      "d": 583.3327500000014,
      "v": 112
    },
    {
      "midi": 71,
      "hit": false,
      "t": 37333.29600000004,
      "d": 583.3327500000014,
      "v": 112
    },
    {
      "midi": 74,
      "hit": false,
      "t": 37333.29600000004,
      "d": 583.3327500000014,
      "v": 112
    },
    {
      "midi": 43,
      "hit": false,
      "t": 37333.29600000011,
      "d": 1249.9987499999988,
      "v": 112
    },
    {
      "midi": 55,
      "hit": false,
      "t": 37666.629,
      "d": 333.3329999999987,
      "v": 60
    },
    {
      "midi": 55,
      "hit": false,
      "t": 37999.962,
      "d": 333.3329999999987,
      "v": 65
    },
    {
      "midi": 67,
      "hit": false,
      "t": 37999.96200000004,
      "d": 583.3327500000014,
      "v": 112
    },
    {
      "midi": 71,
      "hit": false,
      "t": 37999.96200000004,
      "d": 583.3327500000014,
      "v": 112
    },
    {
      "midi": 74,
      "hit": false,
      "t": 37999.96200000004,
      "d": 583.3327500000014,
      "v": 112
    },
    {
      "midi": 59,
      "hit": false,
      "t": 38333.295,
      "d": 333.3329999999987,
      "v": 60
    },
    {
      "midi": 59,
      "hit": false,
      "t": 38666.628,
      "d": 274.30528125000274,
      "v": 70
    },
    {
      "midi": 62,
      "hit": false,
      "t": 38666.628,
      "d": 274.30528125000274,
      "v": 70
    },
    {
      "midi": 65,
      "hit": false,
      "t": 38666.628,
      "d": 274.30528125000274,
      "v": 70
    },
    {
      "midi": 69,
      "hit": false,
      "t": 38666.628,
      "d": 274.30528125000274,
      "v": 70
    },
    {
      "midi": 65,
      "hit": false,
      "t": 38666.62800000005,
      "d": 583.3327500000014,
      "v": 112
    },
    {
      "midi": 69,
      "hit": false,
      "t": 38666.62800000005,
      "d": 583.3327500000014,
      "v": 112
    },
    {
      "midi": 71,
      "hit": false,
      "t": 38666.62800000005,
      "d": 583.3327500000014,
      "v": 112
    },
    {
      "midi": 74,
      "hit": false,
      "t": 38666.62800000005,
      "d": 583.3327500000014,
      "v": 112
    },
    {
      "midi": 41,
      "hit": false,
      "t": 38666.62800000011,
      "d": 1249.9987499999988,
      "v": 112
    },
    {
      "midi": 53,
      "hit": false,
      "t": 38999.961,
      "d": 333.3329999999987,
      "v": 60
    },
    {
      "midi": 59,
      "hit": false,
      "t": 39333.294,
      "d": 333.3329999999987,
      "v": 65
    },
    {
      "midi": 65,
      "hit": false,
      "t": 39333.29400000005,
      "d": 583.3327500000014,
      "v": 112
    },
    {
      "midi": 69,
      "hit": false,
      "t": 39333.29400000005,
      "d": 583.3327500000014,
      "v": 112
    },
    {
      "midi": 71,
      "hit": false,
      "t": 39333.29400000005,
      "d": 583.3327500000014,
      "v": 112
    },
    {
      "midi": 74,
      "hit": false,
      "t": 39333.29400000005,
      "d": 583.3327500000014,
      "v": 112
    },
    {
      "midi": 62,
      "hit": false,
      "t": 39666.627,
      "d": 333.3329999999987,
      "v": 60
    },
    {
      "midi": 46,
      "hit": false,
      "t": 39999.96,
      "d": 274.30528125000274,
      "v": 70
    },
    {
      "midi": 58,
      "hit": false,
      "t": 39999.96,
      "d": 274.30528125000274,
      "v": 70
    },
    {
      "midi": 62,
      "hit": false,
      "t": 39999.96,
      "d": 274.30528125000274,
      "v": 70
    },
    {
      "midi": 65,
      "hit": false,
      "t": 39999.96,
      "d": 274.30528125000274,
      "v": 70
    },
    {
      "midi": 65,
      "hit": false,
      "t": 39999.96000000006,
      "d": 583.3327500000014,
      "v": 112
    },
    {
      "midi": 70,
      "hit": false,
      "t": 39999.96000000006,
      "d": 583.3327500000014,
      "v": 112
    },
    {
      "midi": 74,
      "hit": false,
      "t": 39999.96000000006,
      "d": 583.3327500000014,
      "v": 112
    },
    {
      "midi": 46,
      "hit": false,
      "t": 39999.960000000116,
      "d": 1916.6647500000036,
      "v": 112
    },
    {
      "midi": 46,
      "hit": false,
      "t": 40333.293000000005,
      "d": 333.3329999999987,
      "v": 70
    },
    {
      "midi": 58,
      "hit": false,
      "t": 40666.626000000004,
      "d": 333.3329999999987,
      "v": 60
    },
    {
      "midi": 72,
      "hit": false,
      "t": 40666.62600000006,
      "d": 145.83318750000035,
      "v": 112
    },
    {
      "midi": 77,
      "hit": false,
      "t": 40666.62600000006,
      "d": 583.3327500000014,
      "v": 112
    },
    {
      "midi": 74,
      "hit": false,
      "t": 40833.29250000006,
      "d": 145.83318750000035,
      "v": 112
    },
    {
      "midi": 58,
      "hit": false,
      "t": 40999.959,
      "d": 274.30528125000274,
      "v": 65
    },
    {
      "midi": 62,
      "hit": false,
      "t": 40999.959,
      "d": 274.30528125000274,
      "v": 65
    },
    {
      "midi": 65,
      "hit": false,
      "t": 40999.959,
      "d": 274.30528125000274,
      "v": 65
    },
    {
      "midi": 70,
      "hit": false,
      "t": 40999.959,
      "d": 274.30528125000274,
      "v": 65
    },
    {
      "midi": 70,
      "hit": false,
      "t": 40999.95900000006,
      "d": 291.6663750000007,
      "v": 112
    },
    {
      "midi": 58,
      "hit": false,
      "t": 41333.29200000001,
      "d": 552.0827812499992,
      "v": 70
    },
    {
      "midi": 62,
      "hit": false,
      "t": 41333.29200000001,
      "d": 552.0827812499992,
      "v": 70
    },
    {
      "midi": 65,
      "hit": false,
      "t": 41333.29200000001,
      "d": 552.0827812499992,
      "v": 70
    },
    {
      "midi": 72,
      "hit": false,
      "t": 41333.29200000006,
      "d": 145.83318750000035,
      "v": 112
    },
    {
      "midi": 77,
      "hit": false,
      "t": 41333.29200000006,
      "d": 583.3327500000014,
      "v": 112
    },
    {
      "midi": 74,
      "hit": false,
      "t": 41499.95850000006,
      "d": 145.83318750000035,
      "v": 112
    },
    {
      "midi": 70,
      "hit": false,
      "t": 41666.62500000006,
      "d": 291.6663750000007,
      "v": 112
    },
    {
      "midi": 57,
      "hit": false,
      "t": 41999.958000000006,
      "d": 107.63878125000338,
      "v": 70
    },
    {
      "midi": 60,
      "hit": false,
      "t": 41999.958000000006,
      "d": 107.63878125000338,
      "v": 70
    },
    {
      "midi": 65,
      "hit": false,
      "t": 41999.958000000006,
      "d": 107.63878125000338,
      "v": 70
    },
    {
      "midi": 72,
      "hit": false,
      "t": 41999.95800000006,
      "d": 145.83318750000035,
      "v": 112
    },
    {
      "midi": 77,
      "hit": false,
      "t": 41999.95800000006,
      "d": 583.3327500000014,
      "v": 112
    },
    {
      "midi": 45,
      "hit": false,
      "t": 41999.95800000012,
      "d": 583.3327500000014,
      "v": 112
    },
    {
      "midi": 65,
      "hit": false,
      "t": 42166.62450000001,
      "d": 166.66649999999936,
      "v": 80
    },
    {
      "midi": 74,
      "hit": false,
      "t": 42166.624500000056,
      "d": 145.83318750000035,
      "v": 112
    },
    {
      "midi": 60,
      "hit": false,
      "t": 42333.29100000001,
      "d": 166.66649999999936,
      "v": 70
    },
    {
      "midi": 70,
      "hit": false,
      "t": 42333.291000000056,
      "d": 291.6663750000007,
      "v": 112
    },
    {
      "midi": 57,
      "hit": false,
      "t": 42499.95750000001,
      "d": 166.66649999999936,
      "v": 70
    },
    {
      "midi": 55,
      "hit": false,
      "t": 42666.62400000001,
      "d": 274.30528125000274,
      "v": 70
    },
    {
      "midi": 59,
      "hit": false,
      "t": 42666.62400000001,
      "d": 274.30528125000274,
      "v": 70
    },
    {
      "midi": 62,
      "hit": false,
      "t": 42666.62400000001,
      "d": 274.30528125000274,
      "v": 70
    },
    {
      "midi": 71,
      "hit": false,
      "t": 42666.624000000054,
      "d": 583.3327500000014,
      "v": 112
    },
    {
      "midi": 74,
      "hit": false,
      "t": 42666.624000000054,
      "d": 583.3327500000014,
      "v": 112
    },
    {
      "midi": 79,
      "hit": false,
      "t": 42666.624000000054,
      "d": 583.3327500000014,
      "v": 112
    },
    {
      "midi": 43,
      "hit": false,
      "t": 42666.62400000013,
      "d": 1249.9987499999988,
      "v": 112
    },
    {
      "midi": 55,
      "hit": false,
      "t": 43333.290000000015,
      "d": 274.30528125000274,
      "v": 70
    },
    {
      "midi": 79,
      "hit": false,
      "t": 43333.29000000006,
      "d": 291.6663750000007,
      "v": 112
    },
    {
      "midi": 83,
      "hit": false,
      "t": 43333.29000000006,
      "d": 291.6663750000007,
      "v": 112
    },
    {
      "midi": 59,
      "hit": false,
      "t": 43666.62300000002,
      "d": 274.30528125000274,
      "v": 60
    },
    {
      "midi": 74,
      "hit": false,
      "t": 43666.62300000006,
      "d": 291.6663750000007,
      "v": 112
    },
    {
      "midi": 55,
      "hit": false,
      "t": 43999.95600000003,
      "d": 274.30528125000274,
      "v": 70
    },
    {
      "midi": 59,
      "hit": false,
      "t": 43999.95600000003,
      "d": 274.30528125000274,
      "v": 70
    },
    {
      "midi": 62,
      "hit": false,
      "t": 43999.95600000003,
      "d": 274.30528125000274,
      "v": 70
    },
    {
      "midi": 79,
      "hit": false,
      "t": 43999.95600000006,
      "d": 291.6663750000007,
      "v": 112
    },
    {
      "midi": 83,
      "hit": false,
      "t": 43999.95600000006,
      "d": 291.6663750000007,
      "v": 112
    },
    {
      "midi": 41,
      "hit": false,
      "t": 43999.95600000013,
      "d": 1249.9987499999988,
      "v": 112
    },
    {
      "midi": 74,
      "hit": false,
      "t": 44333.289000000055,
      "d": 291.6663750000007,
      "v": 112
    },
    {
      "midi": 55,
      "hit": false,
      "t": 44666.62200000003,
      "d": 274.30528125000274,
      "v": 70
    },
    {
      "midi": 79,
      "hit": false,
      "t": 44666.622000000054,
      "d": 291.6663750000007,
      "v": 112
    },
    {
      "midi": 83,
      "hit": false,
      "t": 44666.622000000054,
      "d": 291.6663750000007,
      "v": 112
    },
    {
      "midi": 59,
      "hit": false,
      "t": 44999.95500000004,
      "d": 274.30528125000274,
      "v": 60
    },
    {
      "midi": 74,
      "hit": false,
      "t": 44999.95500000005,
      "d": 291.6663750000007,
      "v": 112
    },
    {
      "midi": 55,
      "hit": false,
      "t": 45333.288000000044,
      "d": 1166.6655000000028,
      "v": 75
    },
    {
      "midi": 59,
      "hit": false,
      "t": 45333.288000000044,
      "d": 1166.6655000000028,
      "v": 75
    },
    {
      "midi": 64,
      "hit": false,
      "t": 45333.288000000044,
      "d": 1166.6655000000028,
      "v": 75
    },
    {
      "midi": 67,
      "hit": false,
      "t": 45333.288000000044,
      "d": 1166.6655000000028,
      "v": 75
    },
    {
      "midi": 79,
      "hit": false,
      "t": 45333.28800000005,
      "d": 583.3327500000014,
      "v": 112
    },
    {
      "midi": 83,
      "hit": false,
      "t": 45333.28800000005,
      "d": 583.3327500000014,
      "v": 112
    },
    {
      "midi": 88,
      "hit": false,
      "t": 45333.28800000005,
      "d": 583.3327500000014,
      "v": 112
    },
    {
      "midi": 40,
      "hit": false,
      "t": 45333.28800000013,
      "d": 1249.9987499999988,
      "v": 112
    },
    {
      "midi": 83,
      "hit": false,
      "t": 45999.954000000056,
      "d": 145.83318750000035,
      "v": 112
    },
    {
      "midi": 79,
      "hit": false,
      "t": 46166.620500000055,
      "d": 145.83318750000035,
      "v": 112
    },
    {
      "midi": 71,
      "hit": false,
      "t": 46333.287000000055,
      "d": 291.6663750000007,
      "v": 112
    },
    {
      "midi": 55,
      "hit": false,
      "t": 46666.620000000046,
      "d": 552.0827812499992,
      "v": 70
    },
    {
      "midi": 59,
      "hit": false,
      "t": 46666.620000000046,
      "d": 552.0827812499992,
      "v": 70
    },
    {
      "midi": 62,
      "hit": false,
      "t": 46666.620000000046,
      "d": 552.0827812499992,
      "v": 70
    },
    {
      "midi": 79,
      "hit": false,
      "t": 46666.62000000005,
      "d": 291.6663750000007,
      "v": 112
    },
    {
      "midi": 50,
      "hit": false,
      "t": 46666.62000000013,
      "d": 1249.9987499999988,
      "v": 112
    },
    {
      "midi": 74,
      "hit": false,
      "t": 46999.95300000005,
      "d": 291.6663750000007,
      "v": 112
    },
    {
      "midi": 57,
      "hit": false,
      "t": 47333.286000000044,
      "d": 552.0827812499992,
      "v": 70
    },
    {
      "midi": 60,
      "hit": false,
      "t": 47333.286000000044,
      "d": 552.0827812499992,
      "v": 70
    },
    {
      "midi": 65,
      "hit": false,
      "t": 47333.286000000044,
      "d": 552.0827812499992,
      "v": 70
    },
    {
      "midi": 74,
      "hit": false,
      "t": 47333.28600000005,
      "d": 145.83318750000035,
      "v": 112
    },
    {
      "midi": 77,
      "hit": false,
      "t": 47333.28600000005,
      "d": 145.83318750000035,
      "v": 112
    },
    {
      "midi": 83,
      "hit": false,
      "t": 47333.28600000005,
      "d": 145.83318750000035,
      "v": 112
    },
    {
      "midi": 72,
      "hit": false,
      "t": 47499.95250000005,
      "d": 437.49956250000105,
      "v": 112
    },
    {
      "midi": 77,
      "hit": false,
      "t": 47499.95250000005,
      "d": 437.49956250000105,
      "v": 112
    },
    {
      "midi": 81,
      "hit": false,
      "t": 47499.95250000005,
      "d": 437.49956250000105,
      "v": 112
    },
    {
      "midi": 48,
      "hit": false,
      "t": 47999.95200000004,
      "d": 1166.6655000000028,
      "v": 75
    },
    {
      "midi": 55,
      "hit": false,
      "t": 47999.95200000004,
      "d": 1166.6655000000028,
      "v": 75
    },
    {
      "midi": 60,
      "hit": false,
      "t": 47999.95200000004,
      "d": 1166.6655000000028,
      "v": 75
    },
    {
      "midi": 64,
      "hit": false,
      "t": 47999.95200000004,
      "d": 1166.6655000000028,
      "v": 75
    },
    {
      "midi": 67,
      "hit": false,
      "t": 47999.95200000004,
      "d": 1166.6655000000028,
      "v": 75
    },
    {
      "midi": 74,
      "hit": false,
      "t": 47999.95200000005,
      "d": 583.3327500000014,
      "v": 112
    },
    {
      "midi": 76,
      "hit": false,
      "t": 47999.95200000005,
      "d": 583.3327500000014,
      "v": 112
    },
    {
      "midi": 79,
      "hit": false,
      "t": 47999.95200000005,
      "d": 583.3327500000014,
      "v": 112
    },
    {
      "midi": 48,
      "hit": false,
      "t": 47999.952000000136,
      "d": 1249.9987499999988,
      "v": 112
    },
    {
      "midi": 67,
      "hit": false,
      "t": 48666.61800000005,
      "d": 583.3327500000014,
      "v": 112
    },
    {
      "midi": 69,
      "hit": false,
      "t": 48666.61800000005,
      "d": 583.3327500000014,
      "v": 112
    },
    {
      "midi": 72,
      "hit": false,
      "t": 48666.61800000005,
      "d": 583.3327500000014,
      "v": 112
    },
    {
      "midi": 55,
      "hit": false,
      "t": 49333.28400000004,
      "d": 1166.6655000000028,
      "v": 70
    },
    {
      "midi": 59,
      "hit": false,
      "t": 49333.28400000004,
      "d": 1166.6655000000028,
      "v": 70
    },
    {
      "midi": 62,
      "hit": false,
      "t": 49333.28400000004,
      "d": 1166.6655000000028,
      "v": 70
    },
    {
      "midi": 67,
      "hit": false,
      "t": 49333.28400000004,
      "d": 1166.6655000000028,
      "v": 70
    },
    {
      "midi": 67,
      "hit": false,
      "t": 49333.28400000006,
      "d": 583.3327500000014,
      "v": 112
    },
    {
      "midi": 71,
      "hit": false,
      "t": 49333.28400000006,
      "d": 583.3327500000014,
      "v": 112
    },
    {
      "midi": 74,
      "hit": false,
      "t": 49333.28400000006,
      "d": 583.3327500000014,
      "v": 112
    },
    {
      "midi": 43,
      "hit": false,
      "t": 49333.28400000014,
      "d": 916.6657500000001,
      "v": 112
    },
    {
      "midi": 67,
      "hit": false,
      "t": 49999.95000000006,
      "d": 583.3327500000014,
      "v": 112
    },
    {
      "midi": 71,
      "hit": false,
      "t": 49999.95000000006,
      "d": 583.3327500000014,
      "v": 112
    },
    {
      "midi": 74,
      "hit": false,
      "t": 49999.95000000006,
      "d": 583.3327500000014,
      "v": 112
    },
    {
      "midi": 43,
      "hit": false,
      "t": 50333.28300000014,
      "d": 291.6663750000007,
      "v": 112
    },
    {
      "midi": 69,
      "hit": false,
      "t": 50666.61600000007,
      "d": 145.83318750000035,
      "v": 112
    },
    {
      "midi": 43,
      "hit": false,
      "t": 50666.61600000014,
      "d": 1249.9987499999988,
      "v": 112
    },
    {
      "midi": 71,
      "hit": false,
      "t": 50833.28250000007,
      "d": 145.83318750000035,
      "v": 112
    },
    {
      "midi": 79,
      "hit": false,
      "t": 50999.949000000066,
      "d": 145.83318750000035,
      "v": 112
    },
    {
      "midi": 71,
      "hit": false,
      "t": 51166.615500000065,
      "d": 145.83318750000035,
      "v": 112
    },
    {
      "midi": 72,
      "hit": false,
      "t": 51333.282000000065,
      "d": 145.83318750000035,
      "v": 112
    },
    {
      "midi": 81,
      "hit": false,
      "t": 51499.948500000064,
      "d": 145.83318750000035,
      "v": 112
    },
    {
      "midi": 72,
      "hit": false,
      "t": 51666.61500000006,
      "d": 145.83318750000035,
      "v": 112
    },
    {
      "midi": 74,
      "hit": false,
      "t": 51833.28150000006,
      "d": 145.83318750000035,
      "v": 112
    },
    {
      "midi": 55,
      "hit": false,
      "t": 51999.94800000005,
      "d": 274.30528125000274,
      "v": 70
    },
    {
      "midi": 59,
      "hit": false,
      "t": 51999.94800000005,
      "d": 274.30528125000274,
      "v": 70
    },
    {
      "midi": 62,
      "hit": false,
      "t": 51999.94800000005,
      "d": 274.30528125000274,
      "v": 70
    },
    {
      "midi": 67,
      "hit": false,
      "t": 51999.94800000006,
      "d": 583.3327500000014,
      "v": 112
    },
    {
      "midi": 71,
      "hit": false,
      "t": 51999.94800000006,
      "d": 583.3327500000014,
      "v": 112
    },
    {
      "midi": 74,
      "hit": false,
      "t": 51999.94800000006,
      "d": 583.3327500000014,
      "v": 112
    },
    {
      "midi": 55,
      "hit": false,
      "t": 51999.94800000014,
      "d": 291.6663750000007,
      "v": 112
    },
    {
      "midi": 62,
      "hit": false,
      "t": 52333.28100000014,
      "d": 291.6663750000007,
      "v": 112
    },
    {
      "midi": 55,
      "hit": false,
      "t": 52666.61400000005,
      "d": 274.30528125000274,
      "v": 70
    },
    {
      "midi": 67,
      "hit": false,
      "t": 52666.61400000007,
      "d": 583.3327500000014,
      "v": 112
    },
    {
      "midi": 71,
      "hit": false,
      "t": 52666.61400000007,
      "d": 583.3327500000014,
      "v": 112
    },
    {
      "midi": 74,
      "hit": false,
      "t": 52666.61400000007,
      "d": 583.3327500000014,
      "v": 112
    },
    {
      "midi": 55,
      "hit": false,
      "t": 52666.61400000014,
      "d": 291.6663750000007,
      "v": 112
    },
    {
      "midi": 59,
      "hit": false,
      "t": 52999.94700000006,
      "d": 274.30528125000274,
      "v": 60
    },
    {
      "midi": 62,
      "hit": false,
      "t": 52999.94700000014,
      "d": 291.6663750000007,
      "v": 112
    },
    {
      "midi": 52,
      "hit": false,
      "t": 53333.280000000064,
      "d": 274.30528125000274,
      "v": 70
    },
    {
      "midi": 55,
      "hit": false,
      "t": 53333.280000000064,
      "d": 274.30528125000274,
      "v": 70
    },
    {
      "midi": 59,
      "hit": false,
      "t": 53333.280000000064,
      "d": 274.30528125000274,
      "v": 70
    },
    {
      "midi": 64,
      "hit": false,
      "t": 53333.280000000064,
      "d": 274.30528125000274,
      "v": 70
    },
    {
      "midi": 67,
      "hit": false,
      "t": 53333.28000000007,
      "d": 583.3327500000014,
      "v": 112
    },
    {
      "midi": 71,
      "hit": false,
      "t": 53333.28000000007,
      "d": 583.3327500000014,
      "v": 112
    },
    {
      "midi": 76,
      "hit": false,
      "t": 53333.28000000007,
      "d": 583.3327500000014,
      "v": 112
    },
    {
      "midi": 52,
      "hit": false,
      "t": 53333.28000000014,
      "d": 291.6663750000007,
      "v": 112
    },
    {
      "midi": 52,
      "hit": false,
      "t": 53666.61300000007,
      "d": 333.3329999999987,
      "v": 70
    },
    {
      "midi": 64,
      "hit": false,
      "t": 53666.613000000136,
      "d": 291.6663750000007,
      "v": 112
    },
    {
      "midi": 55,
      "hit": false,
      "t": 53999.94600000007,
      "d": 333.3329999999987,
      "v": 60
    },
    {
      "midi": 67,
      "hit": false,
      "t": 53999.946000000076,
      "d": 583.3327500000014,
      "v": 112
    },
    {
      "midi": 71,
      "hit": false,
      "t": 53999.946000000076,
      "d": 583.3327500000014,
      "v": 112
    },
    {
      "midi": 76,
      "hit": false,
      "t": 53999.946000000076,
      "d": 583.3327500000014,
      "v": 112
    },
    {
      "midi": 52,
      "hit": false,
      "t": 53999.946000000135,
      "d": 291.6663750000007,
      "v": 112
    },
    {
      "midi": 52,
      "hit": false,
      "t": 54333.27900000007,
      "d": 274.30528125000274,
      "v": 65
    },
    {
      "midi": 55,
      "hit": false,
      "t": 54333.27900000007,
      "d": 274.30528125000274,
      "v": 65
    },
    {
      "midi": 59,
      "hit": false,
      "t": 54333.27900000007,
      "d": 274.30528125000274,
      "v": 65
    },
    {
      "midi": 64,
      "hit": false,
      "t": 54333.27900000007,
      "d": 274.30528125000274,
      "v": 65
    },
    {
      "midi": 67,
      "hit": false,
      "t": 54333.27900000007,
      "d": 274.30528125000274,
      "v": 65
    },
    {
      "midi": 64,
      "hit": false,
      "t": 54333.27900000013,
      "d": 291.6663750000007,
      "v": 112
    },
    {
      "midi": 50,
      "hit": false,
      "t": 54666.612000000074,
      "d": 1166.6655000000028,
      "v": 70
    },
    {
      "midi": 57,
      "hit": false,
      "t": 54666.612000000074,
      "d": 1166.6655000000028,
      "v": 70
    },
    {
      "midi": 62,
      "hit": false,
      "t": 54666.612000000074,
      "d": 1166.6655000000028,
      "v": 70
    },
    {
      "midi": 66,
      "hit": false,
      "t": 54666.612000000074,
      "d": 1166.6655000000028,
      "v": 70
    },
    {
      "midi": 69,
      "hit": false,
      "t": 54666.61200000008,
      "d": 583.3327500000014,
      "v": 112
    },
    {
      "midi": 74,
      "hit": false,
      "t": 54666.61200000008,
      "d": 583.3327500000014,
      "v": 112
    },
    {
      "midi": 78,
      "hit": false,
      "t": 54666.61200000008,
      "d": 583.3327500000014,
      "v": 112
    },
    {
      "midi": 50,
      "hit": false,
      "t": 54666.61200000013,
      "d": 291.6663750000007,
      "v": 112
    },
    {
      "midi": 62,
      "hit": false,
      "t": 54999.94500000013,
      "d": 291.6663750000007,
      "v": 112
    },
    {
      "midi": 69,
      "hit": false,
      "t": 55333.278000000086,
      "d": 583.3327500000014,
      "v": 112
    },
    {
      "midi": 74,
      "hit": false,
      "t": 55333.278000000086,
      "d": 583.3327500000014,
      "v": 112
    },
    {
      "midi": 78,
      "hit": false,
      "t": 55333.278000000086,
      "d": 583.3327500000014,
      "v": 112
    },
    {
      "midi": 50,
      "hit": false,
      "t": 55333.27800000013,
      "d": 291.6663750000007,
      "v": 112
    },
    {
      "midi": 62,
      "hit": false,
      "t": 55666.61100000013,
      "d": 291.6663750000007,
      "v": 112
    },
    {
      "midi": 69,
      "hit": false,
      "t": 55999.94400000009,
      "d": 583.3327500000014,
      "v": 112
    },
    {
      "midi": 74,
      "hit": false,
      "t": 55999.94400000009,
      "d": 583.3327500000014,
      "v": 112
    },
    {
      "midi": 78,
      "hit": false,
      "t": 55999.94400000009,
      "d": 583.3327500000014,
      "v": 112
    },
    {
      "midi": 50,
      "hit": false,
      "t": 55999.94400000013,
      "d": 291.6663750000007,
      "v": 112
    },
    {
      "midi": 62,
      "hit": false,
      "t": 56333.277000000126,
      "d": 291.6663750000007,
      "v": 112
    },
    {
      "midi": 60,
      "hit": false,
      "t": 56499.943500000125,
      "d": 72.91659375000017,
      "v": 112
    },
    {
      "midi": 61,
      "hit": false,
      "t": 56583.27675000013,
      "d": 72.91659375000017,
      "v": 112
    },
    {
      "midi": 69,
      "hit": false,
      "t": 56666.610000000095,
      "d": 145.83318750000035,
      "v": 112
    },
    {
      "midi": 78,
      "hit": false,
      "t": 56666.610000000095,
      "d": 145.83318750000035,
      "v": 112
    },
    {
      "midi": 62,
      "hit": false,
      "t": 56666.61000000013,
      "d": 291.6663750000007,
      "v": 112
    },
    {
      "midi": 71,
      "hit": false,
      "t": 56833.276500000095,
      "d": 437.49956250000105,
      "v": 112
    },
    {
      "midi": 79,
      "hit": false,
      "t": 56833.276500000095,
      "d": 437.49956250000105,
      "v": 112
    },
    {
      "midi": 57,
      "hit": false,
      "t": 56999.94300000013,
      "d": 291.6663750000007,
      "v": 112
    },
    {
      "midi": 60,
      "hit": false,
      "t": 57333.27600000008,
      "d": 1166.6655000000028,
      "v": 70
    },
    {
      "midi": 62,
      "hit": false,
      "t": 57333.27600000008,
      "d": 1166.6655000000028,
      "v": 70
    },
    {
      "midi": 66,
      "hit": false,
      "t": 57333.27600000008,
      "d": 1166.6655000000028,
      "v": 70
    },
    {
      "midi": 69,
      "hit": false,
      "t": 57333.27600000008,
      "d": 1166.6655000000028,
      "v": 70
    },
    {
      "midi": 69,
      "hit": false,
      "t": 57333.27600000009,
      "d": 916.6657500000001,
      "v": 112
    },
    {
      "midi": 72,
      "hit": false,
      "t": 57333.27600000009,
      "d": 916.6657500000001,
      "v": 112
    },
    {
      "midi": 78,
      "hit": false,
      "t": 57333.27600000009,
      "d": 916.6657500000001,
      "v": 112
    },
    {
      "midi": 50,
      "hit": false,
      "t": 57333.27600000013,
      "d": 291.6663750000007,
      "v": 112
    },
    {
      "midi": 62,
      "hit": false,
      "t": 57666.60900000013,
      "d": 291.6663750000007,
      "v": 112
    },
    {
      "midi": 50,
      "hit": false,
      "t": 57999.94200000013,
      "d": 291.6663750000007,
      "v": 112
    },
    {
      "midi": 69,
      "hit": false,
      "t": 58333.275000000096,
      "d": 145.83318750000035,
      "v": 112
    },
    {
      "midi": 78,
      "hit": false,
      "t": 58333.275000000096,
      "d": 145.83318750000035,
      "v": 112
    },
    {
      "midi": 62,
      "hit": false,
      "t": 58333.275000000125,
      "d": 291.6663750000007,
      "v": 112
    },
    {
      "midi": 71,
      "hit": false,
      "t": 58499.941500000095,
      "d": 145.83318750000035,
      "v": 112
    },
    {
      "midi": 79,
      "hit": false,
      "t": 58499.941500000095,
      "d": 145.83318750000035,
      "v": 112
    },
    {
      "midi": 69,
      "hit": false,
      "t": 58666.608000000095,
      "d": 583.3327500000014,
      "v": 112
    },
    {
      "midi": 78,
      "hit": false,
      "t": 58666.608000000095,
      "d": 583.3327500000014,
      "v": 112
    },
    {
      "midi": 50,
      "hit": false,
      "t": 58666.608000000124,
      "d": 291.6663750000007,
      "v": 112
    },
    {
      "midi": 50,
      "hit": false,
      "t": 58999.94100000008,
      "d": 333.3329999999987,
      "v": 70
    },
    {
      "midi": 62,
      "hit": false,
      "t": 58999.94100000012,
      "d": 291.6663750000007,
      "v": 112
    },
    {
      "midi": 60,
      "hit": false,
      "t": 59333.27400000008,
      "d": 666.6659999999974,
      "v": 75
    },
    {
      "midi": 62,
      "hit": false,
      "t": 59333.27400000008,
      "d": 666.6659999999974,
      "v": 75
    },
    {
      "midi": 66,
      "hit": false,
      "t": 59333.27400000008,
      "d": 666.6659999999974,
      "v": 75
    },
    {
      "midi": 69,
      "hit": false,
      "t": 59333.27400000008,
      "d": 666.6659999999974,
      "v": 75
    },
    {
      "midi": 83,
      "hit": false,
      "t": 59333.2740000001,
      "d": 145.83318750000035,
      "v": 112
    },
    {
      "midi": 50,
      "hit": false,
      "t": 59333.27400000012,
      "d": 291.6663750000007,
      "v": 112
    },
    {
      "midi": 74,
      "hit": false,
      "t": 59499.9405000001,
      "d": 145.83318750000035,
      "v": 112
    },
    {
      "midi": 81,
      "hit": false,
      "t": 59666.6070000001,
      "d": 145.83318750000035,
      "v": 112
    },
    {
      "midi": 62,
      "hit": false,
      "t": 59666.60700000012,
      "d": 291.6663750000007,
      "v": 112
    },
    {
      "midi": 72,
      "hit": false,
      "t": 59833.2735000001,
      "d": 145.83318750000035,
      "v": 112
    },
    {
      "midi": 55,
      "hit": false,
      "t": 59999.940000000075,
      "d": 1166.6655000000028,
      "v": 70
    },
    {
      "midi": 59,
      "hit": false,
      "t": 59999.940000000075,
      "d": 1166.6655000000028,
      "v": 70
    },
    {
      "midi": 64,
      "hit": false,
      "t": 59999.940000000075,
      "d": 1166.6655000000028,
      "v": 70
    },
    {
      "midi": 67,
      "hit": false,
      "t": 59999.940000000075,
      "d": 1166.6655000000028,
      "v": 70
    },
    {
      "midi": 71,
      "hit": false,
      "t": 59999.9400000001,
      "d": 291.6663750000007,
      "v": 112
    },
    {
      "midi": 79,
      "hit": false,
      "t": 59999.9400000001,
      "d": 291.6663750000007,
      "v": 112
    },
    {
      "midi": 52,
      "hit": false,
      "t": 59999.94000000012,
      "d": 291.6663750000007,
      "v": 112
    },
    {
      "midi": 67,
      "hit": false,
      "t": 60333.273000000096,
      "d": 291.6663750000007,
      "v": 112
    },
    {
      "midi": 64,
      "hit": false,
      "t": 60333.27300000012,
      "d": 291.6663750000007,
      "v": 112
    },
    {
      "midi": 71,
      "hit": false,
      "t": 60666.606000000094,
      "d": 291.6663750000007,
      "v": 112
    },
    {
      "midi": 76,
      "hit": false,
      "t": 60666.606000000094,
      "d": 291.6663750000007,
      "v": 112
    },
    {
      "midi": 52,
      "hit": false,
      "t": 60666.606000000116,
      "d": 291.6663750000007,
      "v": 112
    },
    {
      "midi": 67,
      "hit": false,
      "t": 60999.93900000009,
      "d": 291.6663750000007,
      "v": 112
    },
    {
      "midi": 64,
      "hit": false,
      "t": 60999.939000000115,
      "d": 291.6663750000007,
      "v": 112
    },
    {
      "midi": 69,
      "hit": false,
      "t": 61333.27200000009,
      "d": 291.6663750000007,
      "v": 112
    },
    {
      "midi": 76,
      "hit": false,
      "t": 61333.27200000009,
      "d": 916.6657500000001,
      "v": 112
    },
    {
      "midi": 52,
      "hit": false,
      "t": 61333.27200000011,
      "d": 291.6663750000007,
      "v": 112
    },
    {
      "midi": 67,
      "hit": false,
      "t": 61666.60500000009,
      "d": 583.3327500000014,
      "v": 112
    },
    {
      "midi": 64,
      "hit": false,
      "t": 61666.60500000011,
      "d": 291.6663750000007,
      "v": 112
    },
    {
      "midi": 52,
      "hit": false,
      "t": 61999.93800000011,
      "d": 291.6663750000007,
      "v": 112
    },
    {
      "midi": 71,
      "hit": false,
      "t": 62333.271000000095,
      "d": 145.83318750000035,
      "v": 112
    },
    {
      "midi": 76,
      "hit": false,
      "t": 62333.271000000095,
      "d": 291.6663750000007,
      "v": 112
    },
    {
      "midi": 64,
      "hit": false,
      "t": 62333.27100000011,
      "d": 291.6663750000007,
      "v": 112
    },
    {
      "midi": 72,
      "hit": false,
      "t": 62499.937500000095,
      "d": 145.83318750000035,
      "v": 112
    },
    {
      "midi": 52,
      "hit": false,
      "t": 62666.60400000008,
      "d": 1166.6655000000028,
      "v": 70
    },
    {
      "midi": 59,
      "hit": false,
      "t": 62666.60400000008,
      "d": 1166.6655000000028,
      "v": 70
    },
    {
      "midi": 61,
      "hit": false,
      "t": 62666.60400000008,
      "d": 1166.6655000000028,
      "v": 70
    },
    {
      "midi": 64,
      "hit": false,
      "t": 62666.60400000008,
      "d": 1166.6655000000028,
      "v": 70
    },
    {
      "midi": 67,
      "hit": false,
      "t": 62666.60400000008,
      "d": 1166.6655000000028,
      "v": 70
    },
    {
      "midi": 71,
      "hit": false,
      "t": 62666.604000000094,
      "d": 583.3327500000014,
      "v": 112
    },
    {
      "midi": 73,
      "hit": false,
      "t": 62666.604000000094,
      "d": 583.3327500000014,
      "v": 112
    },
    {
      "midi": 76,
      "hit": false,
      "t": 62666.604000000094,
      "d": 583.3327500000014,
      "v": 112
    },
    {
      "midi": 52,
      "hit": false,
      "t": 62666.60400000011,
      "d": 291.6663750000007,
      "v": 112
    },
    {
      "midi": 67,
      "hit": false,
      "t": 62999.93700000011,
      "d": 291.6663750000007,
      "v": 112
    },
    {
      "midi": 71,
      "hit": false,
      "t": 63333.2700000001,
      "d": 583.3327500000014,
      "v": 112
    },
    {
      "midi": 73,
      "hit": false,
      "t": 63333.2700000001,
      "d": 583.3327500000014,
      "v": 112
    },
    {
      "midi": 76,
      "hit": false,
      "t": 63333.2700000001,
      "d": 583.3327500000014,
      "v": 112
    },
    {
      "midi": 52,
      "hit": false,
      "t": 63333.270000000106,
      "d": 291.6663750000007,
      "v": 112
    },
    {
      "midi": 67,
      "hit": false,
      "t": 63666.603000000105,
      "d": 291.6663750000007,
      "v": 112
    },
    {
      "midi": 79,
      "hit": false,
      "t": 63999.9360000001,
      "d": 145.83318750000035,
      "v": 112
    },
    {
      "midi": 52,
      "hit": false,
      "t": 63999.9360000001,
      "d": 291.6663750000007,
      "v": 112
    },
    {
      "midi": 73,
      "hit": false,
      "t": 64166.6025000001,
      "d": 437.49956250000105,
      "v": 112
    },
    {
      "midi": 52,
      "hit": false,
      "t": 64333.26900000008,
      "d": 333.3329999999987,
      "v": 70
    },
    {
      "midi": 67,
      "hit": false,
      "t": 64333.2690000001,
      "d": 291.6663750000007,
      "v": 112
    },
    {
      "midi": 59,
      "hit": false,
      "t": 64666.60200000008,
      "d": 666.6659999999974,
      "v": 75
    },
    {
      "midi": 61,
      "hit": false,
      "t": 64666.60200000008,
      "d": 666.6659999999974,
      "v": 75
    },
    {
      "midi": 64,
      "hit": false,
      "t": 64666.60200000008,
      "d": 666.6659999999974,
      "v": 75
    },
    {
      "midi": 67,
      "hit": false,
      "t": 64666.60200000008,
      "d": 666.6659999999974,
      "v": 75
    },
    {
      "midi": 71,
      "hit": false,
      "t": 64666.6020000001,
      "d": 145.83318750000035,
      "v": 112
    },
    {
      "midi": 52,
      "hit": false,
      "t": 64666.6020000001,
      "d": 291.6663750000007,
      "v": 112
    },
    {
      "midi": 73,
      "hit": false,
      "t": 64833.2685000001,
      "d": 437.49956250000105,
      "v": 112
    },
    {
      "midi": 67,
      "hit": false,
      "t": 64999.9350000001,
      "d": 291.6663750000007,
      "v": 112
    },
    {
      "midi": 57,
      "hit": false,
      "t": 65333.26800000008,
      "d": 1166.6654999999955,
      "v": 70
    },
    {
      "midi": 62,
      "hit": false,
      "t": 65333.26800000008,
      "d": 1166.6654999999955,
      "v": 70
    },
    {
      "midi": 66,
      "hit": false,
      "t": 65333.26800000008,
      "d": 1166.6654999999955,
      "v": 70
    },
    {
      "midi": 69,
      "hit": false,
      "t": 65333.2680000001,
      "d": 583.3327500000014,
      "v": 112
    },
    {
      "midi": 74,
      "hit": false,
      "t": 65333.2680000001,
      "d": 583.3327500000014,
      "v": 112
    },
    {
      "midi": 78,
      "hit": false,
      "t": 65333.2680000001,
      "d": 583.3327500000014,
      "v": 112
    },
    {
      "midi": 50,
      "hit": false,
      "t": 65333.2680000001,
      "d": 291.6663750000007,
      "v": 112
    },
    {
      "midi": 62,
      "hit": false,
      "t": 65666.6010000001,
      "d": 291.6663750000007,
      "v": 112
    },
    {
      "midi": 69,
      "hit": false,
      "t": 65999.9340000001,
      "d": 583.3327500000014,
      "v": 112
    },
    {
      "midi": 74,
      "hit": false,
      "t": 65999.9340000001,
      "d": 583.3327500000014,
      "v": 112
    },
    {
      "midi": 78,
      "hit": false,
      "t": 65999.9340000001,
      "d": 583.3327500000014,
      "v": 112
    },
    {
      "midi": 50,
      "hit": false,
      "t": 65999.9340000001,
      "d": 291.6663750000007,
      "v": 112
    },
    {
      "midi": 62,
      "hit": false,
      "t": 66333.2670000001,
      "d": 291.6663750000007,
      "v": 112
    },
    {
      "midi": 66,
      "hit": false,
      "t": 66666.6000000001,
      "d": 583.3327500000014,
      "v": 112
    },
    {
      "midi": 74,
      "hit": false,
      "t": 66666.6000000001,
      "d": 583.3327500000014,
      "v": 112
    },
    {
      "midi": 50,
      "hit": false,
      "t": 66666.6000000001,
      "d": 291.6663750000007,
      "v": 112
    },
    {
      "midi": 57,
      "hit": false,
      "t": 66999.93300000008,
      "d": 333.3329999999987,
      "v": 60
    },
    {
      "midi": 62,
      "hit": false,
      "t": 66999.93300000009,
      "d": 291.6663750000007,
      "v": 112
    },
    {
      "midi": 62,
      "hit": false,
      "t": 67333.26600000008,
      "d": 333.3329999999987,
      "v": 65
    },
    {
      "midi": 66,
      "hit": false,
      "t": 67333.26600000009,
      "d": 145.83318750000035,
      "v": 112
    },
    {
      "midi": 74,
      "hit": false,
      "t": 67333.26600000009,
      "d": 583.332750000016,
      "v": 112
    },
    {
      "midi": 57,
      "hit": false,
      "t": 67333.26600000009,
      "d": 145.83318750000035,
      "v": 112
    },
    {
      "midi": 50,
      "hit": false,
      "t": 67333.26600000009,
      "d": 583.332750000016,
      "v": 112
    },
    {
      "midi": 67,
      "hit": false,
      "t": 67499.9325000001,
      "d": 145.83318750000035,
      "v": 112
    },
    {
      "midi": 59,
      "hit": false,
      "t": 67499.9325000001,
      "d": 145.83318750000035,
      "v": 112
    },
    {
      "midi": 66,
      "hit": false,
      "t": 67666.59900000007,
      "d": 333.3329999999987,
      "v": 70
    },
    {
      "midi": 66,
      "hit": false,
      "t": 67666.5990000001,
      "d": 145.83318750000035,
      "v": 112
    },
    {
      "midi": 57,
      "hit": false,
      "t": 67666.5990000001,
      "d": 145.83318750000035,
      "v": 112
    },
    {
      "midi": 67,
      "hit": false,
      "t": 67833.26550000011,
      "d": 145.83318750000035,
      "v": 112
    },
    {
      "midi": 59,
      "hit": false,
      "t": 67833.26550000011,
      "d": 145.83318750000035,
      "v": 112
    },
    {
      "midi": 52,
      "hit": false,
      "t": 67999.93200000007,
      "d": 1166.6655000000028,
      "v": 70
    },
    {
      "midi": 55,
      "hit": false,
      "t": 67999.93200000007,
      "d": 1166.6655000000028,
      "v": 70
    },
    {
      "midi": 59,
      "hit": false,
      "t": 67999.93200000007,
      "d": 1166.6655000000028,
      "v": 70
    },
    {
      "midi": 64,
      "hit": false,
      "t": 67999.93200000007,
      "d": 1166.6655000000028,
      "v": 70
    },
    {
      "midi": 67,
      "hit": false,
      "t": 67999.93200000012,
      "d": 583.3327500000014,
      "v": 112
    },
    {
      "midi": 71,
      "hit": false,
      "t": 67999.93200000012,
      "d": 583.3327500000014,
      "v": 112
    },
    {
      "midi": 76,
      "hit": false,
      "t": 67999.93200000012,
      "d": 583.3327500000014,
      "v": 112
    },
    {
      "midi": 52,
      "hit": false,
      "t": 67999.93200000012,
      "d": 291.6663750000007,
      "v": 112
    },
    {
      "midi": 55,
      "hit": false,
      "t": 68333.26500000012,
      "d": 291.6663750000007,
      "v": 112
    },
    {
      "midi": 59,
      "hit": false,
      "t": 68333.26500000012,
      "d": 291.6663750000007,
      "v": 112
    },
    {
      "midi": 67,
      "hit": false,
      "t": 68666.59800000011,
      "d": 1104.1655624999985,
      "v": 112
    },
    {
      "midi": 71,
      "hit": false,
      "t": 68666.59800000011,
      "d": 1104.1655624999985,
      "v": 112
    },
    {
      "midi": 76,
      "hit": false,
      "t": 68666.59800000011,
      "d": 1104.1655624999985,
      "v": 112
    },
    {
      "midi": 52,
      "hit": false,
      "t": 68666.59800000011,
      "d": 291.6663750000007,
      "v": 112
    },
    {
      "midi": 55,
      "hit": false,
      "t": 68999.93100000011,
      "d": 291.6663750000007,
      "v": 112
    },
    {
      "midi": 59,
      "hit": false,
      "t": 68999.93100000011,
      "d": 291.6663750000007,
      "v": 112
    },
    {
      "midi": 52,
      "hit": false,
      "t": 69333.26400000011,
      "d": 291.6663750000007,
      "v": 112
    },
    {
      "midi": 55,
      "hit": false,
      "t": 69666.59700000008,
      "d": 333.3329999999987,
      "v": 60
    },
    {
      "midi": 55,
      "hit": false,
      "t": 69666.59700000011,
      "d": 291.6663750000007,
      "v": 112
    },
    {
      "midi": 59,
      "hit": false,
      "t": 69666.59700000011,
      "d": 291.6663750000007,
      "v": 112
    },
    {
      "midi": 67,
      "hit": false,
      "t": 69833.26350000012,
      "d": 145.83318750000035,
      "v": 112
    },
    {
      "midi": 59,
      "hit": false,
      "t": 69999.93000000008,
      "d": 333.3329999999987,
      "v": 65
    },
    {
      "midi": 52,
      "hit": false,
      "t": 69999.93000000011,
      "d": 291.6663750000007,
      "v": 112
    },
    {
      "midi": 78,
      "hit": false,
      "t": 69999.93000000012,
      "d": 145.83318750000035,
      "v": 112
    },
    {
      "midi": 76,
      "hit": false,
      "t": 70166.59650000013,
      "d": 145.83318750000035,
      "v": 112
    },
    {
      "midi": 64,
      "hit": false,
      "t": 70333.26300000008,
      "d": 333.3329999999987,
      "v": 70
    },
    {
      "midi": 55,
      "hit": false,
      "t": 70333.26300000011,
      "d": 291.6663750000007,
      "v": 112
    },
    {
      "midi": 59,
      "hit": false,
      "t": 70333.26300000011,
      "d": 291.6663750000007,
      "v": 112
    },
    {
      "midi": 71,
      "hit": false,
      "t": 70333.26300000014,
      "d": 145.83318750000035,
      "v": 112
    },
    {
      "midi": 67,
      "hit": false,
      "t": 70499.92950000014,
      "d": 145.83318750000035,
      "v": 112
    },
    {
      "midi": 48,
      "hit": false,
      "t": 70666.59600000008,
      "d": 1166.6655000000028,
      "v": 70
    },
    {
      "midi": 55,
      "hit": false,
      "t": 70666.59600000008,
      "d": 1166.6655000000028,
      "v": 70
    },
    {
      "midi": 60,
      "hit": false,
      "t": 70666.59600000008,
      "d": 1166.6655000000028,
      "v": 70
    },
    {
      "midi": 64,
      "hit": false,
      "t": 70666.59600000008,
      "d": 1166.6655000000028,
      "v": 70
    },
    {
      "midi": 48,
      "hit": false,
      "t": 70666.5960000001,
      "d": 291.6663750000007,
      "v": 112
    },
    {
      "midi": 67,
      "hit": false,
      "t": 70666.59600000015,
      "d": 583.3327500000014,
      "v": 112
    },
    {
      "midi": 72,
      "hit": false,
      "t": 70666.59600000015,
      "d": 583.3327500000014,
      "v": 112
    },
    {
      "midi": 76,
      "hit": false,
      "t": 70666.59600000015,
      "d": 583.3327500000014,
      "v": 112
    },
    {
      "midi": 60,
      "hit": false,
      "t": 70999.9290000001,
      "d": 291.6663750000007,
      "v": 112
    },
    {
      "midi": 48,
      "hit": false,
      "t": 71333.2620000001,
      "d": 291.6663750000007,
      "v": 112
    },
    {
      "midi": 67,
      "hit": false,
      "t": 71333.26200000015,
      "d": 437.49956250000105,
      "v": 112
    },
    {
      "midi": 72,
      "hit": false,
      "t": 71333.26200000015,
      "d": 437.49956250000105,
      "v": 112
    },
    {
      "midi": 76,
      "hit": false,
      "t": 71333.26200000015,
      "d": 437.49956250000105,
      "v": 112
    },
    {
      "midi": 60,
      "hit": false,
      "t": 71666.5950000001,
      "d": 291.6663750000007,
      "v": 112
    },
    {
      "midi": 72,
      "hit": false,
      "t": 71833.26150000015,
      "d": 145.83318750000035,
      "v": 112
    },
    {
      "midi": 76,
      "hit": false,
      "t": 71833.26150000015,
      "d": 145.83318750000035,
      "v": 112
    },
    {
      "midi": 79,
      "hit": false,
      "t": 71833.26150000015,
      "d": 145.83318750000035,
      "v": 112
    },
    {
      "midi": 48,
      "hit": false,
      "t": 71999.9280000001,
      "d": 291.6663750000007,
      "v": 112
    },
    {
      "midi": 72,
      "hit": false,
      "t": 71999.92800000016,
      "d": 437.49956250000105,
      "v": 112
    },
    {
      "midi": 76,
      "hit": false,
      "t": 71999.92800000016,
      "d": 437.49956250000105,
      "v": 112
    },
    {
      "midi": 79,
      "hit": false,
      "t": 71999.92800000016,
      "d": 437.49956250000105,
      "v": 112
    },
    {
      "midi": 55,
      "hit": false,
      "t": 72333.26100000009,
      "d": 333.3329999999987,
      "v": 60
    },
    {
      "midi": 60,
      "hit": false,
      "t": 72333.2610000001,
      "d": 291.6663750000007,
      "v": 112
    },
    {
      "midi": 79,
      "hit": false,
      "t": 72499.92750000017,
      "d": 145.83318750000035,
      "v": 112
    },
    {
      "midi": 84,
      "hit": false,
      "t": 72499.92750000017,
      "d": 145.83318750000035,
      "v": 112
    },
    {
      "midi": 88,
      "hit": false,
      "t": 72499.92750000017,
      "d": 145.83318750000035,
      "v": 112
    },
    {
      "midi": 91,
      "hit": false,
      "t": 72499.92750000017,
      "d": 145.83318750000035,
      "v": 112
    },
    {
      "midi": 60,
      "hit": false,
      "t": 72666.59400000008,
      "d": 333.3329999999987,
      "v": 65
    },
    {
      "midi": 48,
      "hit": false,
      "t": 72666.5940000001,
      "d": 291.6663750000007,
      "v": 112
    },
    {
      "midi": 79,
      "hit": false,
      "t": 72666.59400000017,
      "d": 583.3327500000014,
      "v": 112
    },
    {
      "midi": 84,
      "hit": false,
      "t": 72666.59400000017,
      "d": 583.3327500000014,
      "v": 112
    },
    {
      "midi": 88,
      "hit": false,
      "t": 72666.59400000017,
      "d": 583.3327500000014,
      "v": 112
    },
    {
      "midi": 91,
      "hit": false,
      "t": 72666.59400000017,
      "d": 583.3327500000014,
      "v": 112
    },
    {
      "midi": 64,
      "hit": false,
      "t": 72999.92700000008,
      "d": 333.3329999999987,
      "v": 70
    },
    {
      "midi": 48,
      "hit": false,
      "t": 72999.9270000001,
      "d": 291.6663750000007,
      "v": 112
    },
    {
      "midi": 55,
      "hit": false,
      "t": 73333.26000000008,
      "d": 274.30528124999546,
      "v": 70
    },
    {
      "midi": 59,
      "hit": false,
      "t": 73333.26000000008,
      "d": 274.30528124999546,
      "v": 70
    },
    {
      "midi": 62,
      "hit": false,
      "t": 73333.26000000008,
      "d": 274.30528124999546,
      "v": 70
    },
    {
      "midi": 67,
      "hit": false,
      "t": 73333.26000000008,
      "d": 274.30528124999546,
      "v": 70
    },
    {
      "midi": 43,
      "hit": false,
      "t": 73333.2600000001,
      "d": 1249.9987499999988,
      "v": 112
    },
    {
      "midi": 67,
      "hit": false,
      "t": 73333.26000000017,
      "d": 583.3327500000014,
      "v": 112
    },
    {
      "midi": 71,
      "hit": false,
      "t": 73333.26000000017,
      "d": 583.3327500000014,
      "v": 112
    },
    {
      "midi": 74,
      "hit": false,
      "t": 73333.26000000017,
      "d": 583.3327500000014,
      "v": 112
    },
    {
      "midi": 55,
      "hit": false,
      "t": 73666.59300000008,
      "d": 333.3329999999987,
      "v": 70
    },
    {
      "midi": 55,
      "hit": false,
      "t": 73999.92600000008,
      "d": 333.3329999999987,
      "v": 60
    },
    {
      "midi": 67,
      "hit": false,
      "t": 73999.92600000017,
      "d": 583.3327500000014,
      "v": 112
    },
    {
      "midi": 71,
      "hit": false,
      "t": 73999.92600000017,
      "d": 583.3327500000014,
      "v": 112
    },
    {
      "midi": 74,
      "hit": false,
      "t": 73999.92600000017,
      "d": 583.3327500000014,
      "v": 112
    },
    {
      "midi": 55,
      "hit": false,
      "t": 74333.25900000008,
      "d": 274.30528124999546,
      "v": 65
    },
    {
      "midi": 59,
      "hit": false,
      "t": 74333.25900000008,
      "d": 274.30528124999546,
      "v": 65
    },
    {
      "midi": 62,
      "hit": false,
      "t": 74333.25900000008,
      "d": 274.30528124999546,
      "v": 65
    },
    {
      "midi": 67,
      "hit": false,
      "t": 74333.25900000008,
      "d": 274.30528124999546,
      "v": 65
    },
    {
      "midi": 59,
      "hit": false,
      "t": 74666.59200000008,
      "d": 1166.6655000000028,
      "v": 75
    },
    {
      "midi": 62,
      "hit": false,
      "t": 74666.59200000008,
      "d": 1166.6655000000028,
      "v": 75
    },
    {
      "midi": 65,
      "hit": false,
      "t": 74666.59200000008,
      "d": 1166.6655000000028,
      "v": 75
    },
    {
      "midi": 69,
      "hit": false,
      "t": 74666.59200000008,
      "d": 1166.6655000000028,
      "v": 75
    },
    {
      "midi": 41,
      "hit": false,
      "t": 74666.59200000009,
      "d": 1249.9987499999988,
      "v": 112
    },
    {
      "midi": 65,
      "hit": false,
      "t": 74666.59200000016,
      "d": 583.3327500000014,
      "v": 112
    },
    {
      "midi": 69,
      "hit": false,
      "t": 74666.59200000016,
      "d": 583.3327500000014,
      "v": 112
    },
    {
      "midi": 71,
      "hit": false,
      "t": 74666.59200000016,
      "d": 583.3327500000014,
      "v": 112
    },
    {
      "midi": 74,
      "hit": false,
      "t": 74666.59200000016,
      "d": 583.3327500000014,
      "v": 112
    },
    {
      "midi": 65,
      "hit": false,
      "t": 75333.25800000016,
      "d": 583.3327500000014,
      "v": 112
    },
    {
      "midi": 69,
      "hit": false,
      "t": 75333.25800000016,
      "d": 583.3327500000014,
      "v": 112
    },
    {
      "midi": 71,
      "hit": false,
      "t": 75333.25800000016,
      "d": 583.3327500000014,
      "v": 112
    },
    {
      "midi": 74,
      "hit": false,
      "t": 75333.25800000016,
      "d": 583.3327500000014,
      "v": 112
    },
    {
      "midi": 36,
      "hit": false,
      "t": 75999.92400000009,
      "d": 1624.9983749999956,
      "v": 112
    },
    {
      "midi": 48,
      "hit": false,
      "t": 75999.92400000009,
      "d": 1166.6655000000028,
      "v": 70
    },
    {
      "midi": 55,
      "hit": false,
      "t": 75999.92400000009,
      "d": 1166.6655000000028,
      "v": 70
    },
    {
      "midi": 60,
      "hit": false,
      "t": 75999.92400000009,
      "d": 1166.6655000000028,
      "v": 70
    },
    {
      "midi": 64,
      "hit": false,
      "t": 75999.92400000009,
      "d": 1166.6655000000028,
      "v": 70
    },
    {
      "midi": 67,
      "hit": false,
      "t": 75999.92400000009,
      "d": 1166.6655000000028,
      "v": 70
    },
    {
      "midi": 64,
      "hit": false,
      "t": 75999.92400000016,
      "d": 583.3327500000014,
      "v": 112
    },
    {
      "midi": 67,
      "hit": false,
      "t": 75999.92400000016,
      "d": 583.3327500000014,
      "v": 112
    },
    {
      "midi": 74,
      "hit": false,
      "t": 75999.92400000016,
      "d": 583.3327500000014,
      "v": 112
    },
    {
      "midi": 72,
      "hit": false,
      "t": 76666.59000000016,
      "d": 583.3327500000014,
      "v": 112
    },
    {
      "midi": 76,
      "hit": false,
      "t": 76666.59000000016,
      "d": 583.3327500000014,
      "v": 112
    },
    {
      "midi": 79,
      "hit": false,
      "t": 76666.59000000016,
      "d": 583.3327500000014,
      "v": 112
    },
    {
      "midi": 72,
      "hit": false,
      "t": 77333.25600000015,
      "d": 291.6663750000007,
      "v": 112
    },
    {
      "midi": 76,
      "hit": false,
      "t": 77333.25600000015,
      "d": 291.6663750000007,
      "v": 112
    },
    {
      "midi": 79,
      "hit": false,
      "t": 77333.25600000015,
      "d": 291.6663750000007,
      "v": 112
    },
    {
      "midi": 38,
      "hit": false,
      "t": 77666.58900000008,
      "d": 291.6663750000007,
      "v": 112
    },
    {
      "midi": 55,
      "hit": false,
      "t": 77666.5890000001,
      "d": 333.3329999999987,
      "v": 60
    },
    {
      "midi": 72,
      "hit": false,
      "t": 77666.58900000015,
      "d": 291.6663750000007,
      "v": 112
    },
    {
      "midi": 76,
      "hit": false,
      "t": 77666.58900000015,
      "d": 291.6663750000007,
      "v": 112
    },
    {
      "midi": 79,
      "hit": false,
      "t": 77666.58900000015,
      "d": 291.6663750000007,
      "v": 112
    },
    {
      "midi": 38,
      "hit": false,
      "t": 77999.92200000008,
      "d": 291.6663750000007,
      "v": 112
    },
    {
      "midi": 60,
      "hit": false,
      "t": 77999.9220000001,
      "d": 333.3329999999987,
      "v": 65
    },
    {
      "midi": 76,
      "hit": false,
      "t": 77999.92200000015,
      "d": 145.83318750000035,
      "v": 112
    },
    {
      "midi": 79,
      "hit": false,
      "t": 78166.58850000016,
      "d": 145.83318750000035,
      "v": 112
    },
    {
      "midi": 40,
      "hit": false,
      "t": 78333.25500000008,
      "d": 291.6663750000007,
      "v": 112
    },
    {
      "midi": 64,
      "hit": false,
      "t": 78333.25500000009,
      "d": 333.3329999999987,
      "v": 70
    },
    {
      "midi": 76,
      "hit": false,
      "t": 78333.25500000016,
      "d": 145.83318750000035,
      "v": 112
    },
    {
      "midi": 71,
      "hit": false,
      "t": 78499.92150000017,
      "d": 145.83318750000035,
      "v": 112
    },
    {
      "midi": 43,
      "hit": false,
      "t": 78666.58800000008,
      "d": 1249.9987499999988,
      "v": 112
    },
    {
      "midi": 55,
      "hit": false,
      "t": 78666.58800000009,
      "d": 274.30528124999546,
      "v": 70
    },
    {
      "midi": 59,
      "hit": false,
      "t": 78666.58800000009,
      "d": 274.30528124999546,
      "v": 70
    },
    {
      "midi": 62,
      "hit": false,
      "t": 78666.58800000009,
      "d": 274.30528124999546,
      "v": 70
    },
    {
      "midi": 67,
      "hit": false,
      "t": 78666.58800000009,
      "d": 274.30528124999546,
      "v": 70
    },
    {
      "midi": 67,
      "hit": false,
      "t": 78666.58800000018,
      "d": 583.3327500000014,
      "v": 112
    },
    {
      "midi": 71,
      "hit": false,
      "t": 78666.58800000018,
      "d": 583.3327500000014,
      "v": 112
    },
    {
      "midi": 74,
      "hit": false,
      "t": 78666.58800000018,
      "d": 583.3327500000014,
      "v": 112
    },
    {
      "midi": 55,
      "hit": false,
      "t": 79333.25400000009,
      "d": 274.30528124999546,
      "v": 70
    },
    {
      "midi": 67,
      "hit": false,
      "t": 79333.25400000018,
      "d": 583.3327500000014,
      "v": 112
    },
    {
      "midi": 71,
      "hit": false,
      "t": 79333.25400000018,
      "d": 583.3327500000014,
      "v": 112
    },
    {
      "midi": 74,
      "hit": false,
      "t": 79333.25400000018,
      "d": 583.3327500000014,
      "v": 112
    },
    {
      "midi": 59,
      "hit": false,
      "t": 79666.58700000009,
      "d": 274.30528124999546,
      "v": 60
    },
    {
      "midi": 41,
      "hit": false,
      "t": 79999.92000000007,
      "d": 1249.9987499999988,
      "v": 112
    },
    {
      "midi": 59,
      "hit": false,
      "t": 79999.92000000009,
      "d": 274.30528124999546,
      "v": 70
    },
    {
      "midi": 62,
      "hit": false,
      "t": 79999.92000000009,
      "d": 274.30528124999546,
      "v": 70
    },
    {
      "midi": 65,
      "hit": false,
      "t": 79999.92000000009,
      "d": 274.30528124999546,
      "v": 70
    },
    {
      "midi": 69,
      "hit": false,
      "t": 79999.92000000009,
      "d": 274.30528124999546,
      "v": 70
    },
    {
      "midi": 65,
      "hit": false,
      "t": 79999.92000000017,
      "d": 583.3327500000014,
      "v": 112
    },
    {
      "midi": 69,
      "hit": false,
      "t": 79999.92000000017,
      "d": 583.3327500000014,
      "v": 112
    },
    {
      "midi": 71,
      "hit": false,
      "t": 79999.92000000017,
      "d": 583.3327500000014,
      "v": 112
    },
    {
      "midi": 74,
      "hit": false,
      "t": 79999.92000000017,
      "d": 583.3327500000014,
      "v": 112
    },
    {
      "midi": 53,
      "hit": false,
      "t": 80333.25300000008,
      "d": 333.3329999999987,
      "v": 60
    },
    {
      "midi": 59,
      "hit": false,
      "t": 80666.58600000008,
      "d": 333.3329999999987,
      "v": 65
    },
    {
      "midi": 65,
      "hit": false,
      "t": 80666.58600000017,
      "d": 583.3327500000014,
      "v": 112
    },
    {
      "midi": 69,
      "hit": false,
      "t": 80666.58600000017,
      "d": 583.3327500000014,
      "v": 112
    },
    {
      "midi": 71,
      "hit": false,
      "t": 80666.58600000017,
      "d": 583.3327500000014,
      "v": 112
    },
    {
      "midi": 74,
      "hit": false,
      "t": 80666.58600000017,
      "d": 583.3327500000014,
      "v": 112
    },
    {
      "midi": 62,
      "hit": false,
      "t": 80999.91900000008,
      "d": 333.3329999999987,
      "v": 60
    },
    {
      "midi": 46,
      "hit": false,
      "t": 81333.25200000007,
      "d": 1916.6647499999963,
      "v": 112
    },
    {
      "midi": 58,
      "hit": false,
      "t": 81333.25200000008,
      "d": 274.30528124999546,
      "v": 70
    },
    {
      "midi": 62,
      "hit": false,
      "t": 81333.25200000008,
      "d": 274.30528124999546,
      "v": 70
    },
    {
      "midi": 65,
      "hit": false,
      "t": 81333.25200000008,
      "d": 274.30528124999546,
      "v": 70
    },
    {
      "midi": 70,
      "hit": false,
      "t": 81333.25200000008,
      "d": 274.30528124999546,
      "v": 70
    },
    {
      "midi": 65,
      "hit": false,
      "t": 81333.25200000017,
      "d": 583.3327500000014,
      "v": 112
    },
    {
      "midi": 70,
      "hit": false,
      "t": 81333.25200000017,
      "d": 583.3327500000014,
      "v": 112
    },
    {
      "midi": 74,
      "hit": false,
      "t": 81333.25200000017,
      "d": 583.3327500000014,
      "v": 112
    },
    {
      "midi": 58,
      "hit": false,
      "t": 81999.91800000008,
      "d": 274.30528124999546,
      "v": 70
    },
    {
      "midi": 72,
      "hit": false,
      "t": 81999.91800000017,
      "d": 145.83318750000035,
      "v": 112
    },
    {
      "midi": 77,
      "hit": false,
      "t": 81999.91800000017,
      "d": 583.332750000016,
      "v": 112
    },
    {
      "midi": 74,
      "hit": false,
      "t": 82166.58450000017,
      "d": 145.83318750000035,
      "v": 112
    },
    {
      "midi": 62,
      "hit": false,
      "t": 82333.25100000008,
      "d": 274.30528124999546,
      "v": 60
    },
    {
      "midi": 70,
      "hit": false,
      "t": 82333.25100000018,
      "d": 291.6663750000007,
      "v": 112
    },
    {
      "midi": 46,
      "hit": false,
      "t": 82666.58400000008,
      "d": 107.63878125000338,
      "v": 70
    },
    {
      "midi": 58,
      "hit": false,
      "t": 82666.58400000008,
      "d": 107.63878125000338,
      "v": 70
    },
    {
      "midi": 62,
      "hit": false,
      "t": 82666.58400000008,
      "d": 107.63878125000338,
      "v": 70
    },
    {
      "midi": 65,
      "hit": false,
      "t": 82666.58400000008,
      "d": 107.63878125000338,
      "v": 70
    },
    {
      "midi": 72,
      "hit": false,
      "t": 82666.58400000018,
      "d": 145.83318750000035,
      "v": 112
    },
    {
      "midi": 77,
      "hit": false,
      "t": 82666.58400000018,
      "d": 583.332750000016,
      "v": 112
    },
    {
      "midi": 65,
      "hit": false,
      "t": 82833.25050000008,
      "d": 166.66650000000664,
      "v": 80
    },
    {
      "midi": 74,
      "hit": false,
      "t": 82833.25050000018,
      "d": 145.83318750000035,
      "v": 112
    },
    {
      "midi": 62,
      "hit": false,
      "t": 82999.91700000009,
      "d": 166.66650000000664,
      "v": 70
    },
    {
      "midi": 70,
      "hit": false,
      "t": 82999.91700000019,
      "d": 291.6663750000007,
      "v": 112
    },
    {
      "midi": 58,
      "hit": false,
      "t": 83166.5835000001,
      "d": 166.66650000000664,
      "v": 70
    },
    {
      "midi": 45,
      "hit": false,
      "t": 83333.25000000006,
      "d": 583.3327500000014,
      "v": 112
    },
    {
      "midi": 57,
      "hit": false,
      "t": 83333.2500000001,
      "d": 552.0827812500065,
      "v": 70
    },
    {
      "midi": 60,
      "hit": false,
      "t": 83333.2500000001,
      "d": 552.0827812500065,
      "v": 70
    },
    {
      "midi": 65,
      "hit": false,
      "t": 83333.2500000001,
      "d": 552.0827812500065,
      "v": 70
    },
    {
      "midi": 72,
      "hit": false,
      "t": 83333.25000000019,
      "d": 145.83318750000035,
      "v": 112
    },
    {
      "midi": 77,
      "hit": false,
      "t": 83333.25000000019,
      "d": 583.332750000016,
      "v": 112
    },
    {
      "midi": 74,
      "hit": false,
      "t": 83499.9165000002,
      "d": 145.83318750000035,
      "v": 112
    },
    {
      "midi": 70,
      "hit": false,
      "t": 83666.5830000002,
      "d": 291.6663750000007,
      "v": 112
    },
    {
      "midi": 43,
      "hit": false,
      "t": 83999.91600000006,
      "d": 1249.9987499999988,
      "v": 112
    },
    {
      "midi": 55,
      "hit": false,
      "t": 83999.91600000011,
      "d": 1166.6655000000028,
      "v": 75
    },
    {
      "midi": 59,
      "hit": false,
      "t": 83999.91600000011,
      "d": 1166.6655000000028,
      "v": 75
    },
    {
      "midi": 62,
      "hit": false,
      "t": 83999.91600000011,
      "d": 1166.6655000000028,
      "v": 75
    },
    {
      "midi": 67,
      "hit": false,
      "t": 83999.91600000011,
      "d": 1166.6655000000028,
      "v": 75
    },
    {
      "midi": 71,
      "hit": false,
      "t": 83999.9160000002,
      "d": 583.3327500000014,
      "v": 112
    },
    {
      "midi": 74,
      "hit": false,
      "t": 83999.9160000002,
      "d": 583.3327500000014,
      "v": 112
    },
    {
      "midi": 79,
      "hit": false,
      "t": 83999.9160000002,
      "d": 583.3327500000014,
      "v": 112
    },
    {
      "midi": 79,
      "hit": false,
      "t": 84666.5820000002,
      "d": 291.6663750000007,
      "v": 112
    },
    {
      "midi": 83,
      "hit": false,
      "t": 84666.5820000002,
      "d": 291.6663750000007,
      "v": 112
    },
    {
      "midi": 74,
      "hit": false,
      "t": 84999.9150000002,
      "d": 291.6663750000007,
      "v": 112
    },
    {
      "midi": 41,
      "hit": false,
      "t": 85333.24800000005,
      "d": 1249.9987499999988,
      "v": 112
    },
    {
      "midi": 55,
      "hit": false,
      "t": 85333.24800000012,
      "d": 274.30528124999546,
      "v": 70
    },
    {
      "midi": 59,
      "hit": false,
      "t": 85333.24800000012,
      "d": 274.30528124999546,
      "v": 70
    },
    {
      "midi": 62,
      "hit": false,
      "t": 85333.24800000012,
      "d": 274.30528124999546,
      "v": 70
    },
    {
      "midi": 67,
      "hit": false,
      "t": 85333.24800000012,
      "d": 274.30528124999546,
      "v": 70
    },
    {
      "midi": 79,
      "hit": false,
      "t": 85333.2480000002,
      "d": 291.6663750000007,
      "v": 112
    },
    {
      "midi": 83,
      "hit": false,
      "t": 85333.2480000002,
      "d": 291.6663750000007,
      "v": 112
    },
    {
      "midi": 53,
      "hit": false,
      "t": 85666.58100000012,
      "d": 333.3329999999987,
      "v": 60
    },
    {
      "midi": 74,
      "hit": false,
      "t": 85666.5810000002,
      "d": 291.6663750000007,
      "v": 112
    },
    {
      "midi": 55,
      "hit": false,
      "t": 85999.91400000012,
      "d": 333.3329999999987,
      "v": 65
    },
    {
      "midi": 79,
      "hit": false,
      "t": 85999.9140000002,
      "d": 291.6663750000007,
      "v": 112
    },
    {
      "midi": 83,
      "hit": false,
      "t": 85999.9140000002,
      "d": 291.6663750000007,
      "v": 112
    },
    {
      "midi": 59,
      "hit": false,
      "t": 86333.24700000012,
      "d": 333.3329999999987,
      "v": 60
    },
    {
      "midi": 74,
      "hit": false,
      "t": 86333.24700000019,
      "d": 291.6663750000007,
      "v": 112
    },
    {
      "midi": 40,
      "hit": false,
      "t": 86666.58000000005,
      "d": 1249.9987499999988,
      "v": 112
    },
    {
      "midi": 52,
      "hit": false,
      "t": 86666.58000000012,
      "d": 274.30528124999546,
      "v": 70
    },
    {
      "midi": 55,
      "hit": false,
      "t": 86666.58000000012,
      "d": 274.30528124999546,
      "v": 70
    },
    {
      "midi": 59,
      "hit": false,
      "t": 86666.58000000012,
      "d": 274.30528124999546,
      "v": 70
    },
    {
      "midi": 64,
      "hit": false,
      "t": 86666.58000000012,
      "d": 274.30528124999546,
      "v": 70
    },
    {
      "midi": 79,
      "hit": false,
      "t": 86666.58000000019,
      "d": 583.3327500000014,
      "v": 112
    },
    {
      "midi": 83,
      "hit": false,
      "t": 86666.58000000019,
      "d": 583.3327500000014,
      "v": 112
    },
    {
      "midi": 88,
      "hit": false,
      "t": 86666.58000000019,
      "d": 583.3327500000014,
      "v": 112
    },
    {
      "midi": 52,
      "hit": false,
      "t": 86999.91300000012,
      "d": 333.3329999999987,
      "v": 70
    },
    {
      "midi": 55,
      "hit": false,
      "t": 87333.24600000012,
      "d": 333.3329999999987,
      "v": 60
    },
    {
      "midi": 83,
      "hit": false,
      "t": 87333.24600000019,
      "d": 145.83318750000035,
      "v": 112
    },
    {
      "midi": 79,
      "hit": false,
      "t": 87499.9125000002,
      "d": 145.83318750000035,
      "v": 112
    },
    {
      "midi": 52,
      "hit": false,
      "t": 87666.57900000011,
      "d": 274.30528124999546,
      "v": 65
    },
    {
      "midi": 55,
      "hit": false,
      "t": 87666.57900000011,
      "d": 274.30528124999546,
      "v": 65
    },
    {
      "midi": 59,
      "hit": false,
      "t": 87666.57900000011,
      "d": 274.30528124999546,
      "v": 65
    },
    {
      "midi": 64,
      "hit": false,
      "t": 87666.57900000011,
      "d": 274.30528124999546,
      "v": 65
    },
    {
      "midi": 71,
      "hit": false,
      "t": 87666.5790000002,
      "d": 291.6663750000007,
      "v": 112
    },
    {
      "midi": 50,
      "hit": false,
      "t": 87999.91200000004,
      "d": 1249.9987499999988,
      "v": 112
    },
    {
      "midi": 55,
      "hit": false,
      "t": 87999.91200000011,
      "d": 552.0827812500065,
      "v": 70
    },
    {
      "midi": 59,
      "hit": false,
      "t": 87999.91200000011,
      "d": 552.0827812500065,
      "v": 70
    },
    {
      "midi": 62,
      "hit": false,
      "t": 87999.91200000011,
      "d": 552.0827812500065,
      "v": 70
    },
    {
      "midi": 67,
      "hit": false,
      "t": 87999.91200000011,
      "d": 552.0827812500065,
      "v": 70
    },
    {
      "midi": 79,
      "hit": false,
      "t": 87999.9120000002,
      "d": 291.6663750000007,
      "v": 112
    },
    {
      "midi": 74,
      "hit": false,
      "t": 88333.2450000002,
      "d": 291.6663750000007,
      "v": 112
    },
    {
      "midi": 57,
      "hit": false,
      "t": 88666.57800000013,
      "d": 107.63878125000338,
      "v": 70
    },
    {
      "midi": 60,
      "hit": false,
      "t": 88666.57800000013,
      "d": 107.63878125000338,
      "v": 70
    },
    {
      "midi": 65,
      "hit": false,
      "t": 88666.57800000013,
      "d": 107.63878125000338,
      "v": 70
    },
    {
      "midi": 74,
      "hit": false,
      "t": 88666.5780000002,
      "d": 145.83318750000035,
      "v": 112
    },
    {
      "midi": 77,
      "hit": false,
      "t": 88666.5780000002,
      "d": 145.83318750000035,
      "v": 112
    },
    {
      "midi": 83,
      "hit": false,
      "t": 88666.5780000002,
      "d": 145.83318750000035,
      "v": 112
    },
    {
      "midi": 65,
      "hit": false,
      "t": 88833.24450000013,
      "d": 166.66650000000664,
      "v": 80
    },
    {
      "midi": 72,
      "hit": false,
      "t": 88833.2445000002,
      "d": 437.49956250000105,
      "v": 112
    },
    {
      "midi": 77,
      "hit": false,
      "t": 88833.2445000002,
      "d": 437.49956250000105,
      "v": 112
    },
    {
      "midi": 81,
      "hit": false,
      "t": 88833.2445000002,
      "d": 437.49956250000105,
      "v": 112
    },
    {
      "midi": 60,
      "hit": false,
      "t": 88999.91100000014,
      "d": 166.66650000000664,
      "v": 70
    },
    {
      "midi": 57,
      "hit": false,
      "t": 89166.57750000014,
      "d": 166.66650000000664,
      "v": 70
    },
    {
      "midi": 48,
      "hit": false,
      "t": 89333.24400000004,
      "d": 1249.9987499999988,
      "v": 112
    },
    {
      "midi": 55,
      "hit": false,
      "t": 89333.24400000015,
      "d": 274.30528124999546,
      "v": 70
    },
    {
      "midi": 60,
      "hit": false,
      "t": 89333.24400000015,
      "d": 274.30528124999546,
      "v": 70
    },
    {
      "midi": 64,
      "hit": false,
      "t": 89333.24400000015,
      "d": 274.30528124999546,
      "v": 70
    },
    {
      "midi": 67,
      "hit": false,
      "t": 89333.24400000015,
      "d": 274.30528124999546,
      "v": 70
    },
    {
      "midi": 74,
      "hit": false,
      "t": 89333.24400000021,
      "d": 583.3327500000014,
      "v": 112
    },
    {
      "midi": 76,
      "hit": false,
      "t": 89333.24400000021,
      "d": 583.3327500000014,
      "v": 112
    },
    {
      "midi": 79,
      "hit": false,
      "t": 89333.24400000021,
      "d": 583.3327500000014,
      "v": 112
    },
    {
      "midi": 48,
      "hit": false,
      "t": 89666.57700000015,
      "d": 333.3329999999987,
      "v": 60
    },
    {
      "midi": 55,
      "hit": false,
      "t": 89999.91000000015,
      "d": 333.3329999999987,
      "v": 65
    },
    {
      "midi": 67,
      "hit": false,
      "t": 89999.9100000002,
      "d": 583.3327500000014,
      "v": 112
    },
    {
      "midi": 69,
      "hit": false,
      "t": 89999.9100000002,
      "d": 583.3327500000014,
      "v": 112
    },
    {
      "midi": 72,
      "hit": false,
      "t": 89999.9100000002,
      "d": 583.3327500000014,
      "v": 112
    },
    {
      "midi": 60,
      "hit": false,
      "t": 90333.24300000015,
      "d": 333.3329999999987,
      "v": 60
    },
    {
      "midi": 43,
      "hit": false,
      "t": 90666.57600000003,
      "d": 916.6657500000001,
      "v": 112
    },
    {
      "midi": 55,
      "hit": false,
      "t": 90666.57600000015,
      "d": 1166.6655000000028,
      "v": 70
    },
    {
      "midi": 59,
      "hit": false,
      "t": 90666.57600000015,
      "d": 1166.6655000000028,
      "v": 70
    },
    {
      "midi": 62,
      "hit": false,
      "t": 90666.57600000015,
      "d": 1166.6655000000028,
      "v": 70
    },
    {
      "midi": 67,
      "hit": false,
      "t": 90666.57600000015,
      "d": 1166.6655000000028,
      "v": 70
    },
    {
      "midi": 67,
      "hit": false,
      "t": 90666.5760000002,
      "d": 583.3327500000014,
      "v": 112
    },
    {
      "midi": 71,
      "hit": false,
      "t": 90666.5760000002,
      "d": 583.3327500000014,
      "v": 112
    },
    {
      "midi": 74,
      "hit": false,
      "t": 90666.5760000002,
      "d": 583.3327500000014,
      "v": 112
    },
    {
      "midi": 67,
      "hit": false,
      "t": 91333.2420000002,
      "d": 583.3327500000014,
      "v": 112
    },
    {
      "midi": 71,
      "hit": false,
      "t": 91333.2420000002,
      "d": 583.3327500000014,
      "v": 112
    },
    {
      "midi": 74,
      "hit": false,
      "t": 91333.2420000002,
      "d": 583.3327500000014,
      "v": 112
    },
    {
      "midi": 43,
      "hit": false,
      "t": 91666.57500000003,
      "d": 291.6663750000007,
      "v": 112
    },
    {
      "midi": 43,
      "hit": false,
      "t": 91999.90800000002,
      "d": 1249.9987499999988,
      "v": 112
    },
    {
      "midi": 69,
      "hit": false,
      "t": 91999.9080000002,
      "d": 145.83318750000035,
      "v": 112
    },
    {
      "midi": 71,
      "hit": false,
      "t": 92166.5745000002,
      "d": 145.83318750000035,
      "v": 112
    },
    {
      "midi": 79,
      "hit": false,
      "t": 92333.24100000021,
      "d": 145.83318750000035,
      "v": 112
    },
    {
      "midi": 71,
      "hit": false,
      "t": 92499.90750000022,
      "d": 145.83318750000035,
      "v": 112
    },
    {
      "midi": 72,
      "hit": false,
      "t": 92666.57400000023,
      "d": 145.83318750000035,
      "v": 112
    },
    {
      "midi": 81,
      "hit": false,
      "t": 92833.24050000023,
      "d": 145.83318750000035,
      "v": 112
    },
    {
      "midi": 72,
      "hit": false,
      "t": 92999.90700000024,
      "d": 145.83318750000035,
      "v": 112
    },
    {
      "midi": 74,
      "hit": false,
      "t": 93166.57350000025,
      "d": 145.83318750000035,
      "v": 112
    },
    {
      "midi": 55,
      "hit": false,
      "t": 93333.24000000002,
      "d": 291.6663750000007,
      "v": 112
    },
    {
      "midi": 55,
      "hit": false,
      "t": 93333.24000000015,
      "d": 274.30528124999546,
      "v": 70
    },
    {
      "midi": 59,
      "hit": false,
      "t": 93333.24000000015,
      "d": 274.30528124999546,
      "v": 70
    },
    {
      "midi": 62,
      "hit": false,
      "t": 93333.24000000015,
      "d": 274.30528124999546,
      "v": 70
    },
    {
      "midi": 67,
      "hit": false,
      "t": 93333.24000000015,
      "d": 274.30528124999546,
      "v": 70
    },
    {
      "midi": 67,
      "hit": false,
      "t": 93333.24000000025,
      "d": 583.3327500000014,
      "v": 112
    },
    {
      "midi": 71,
      "hit": false,
      "t": 93333.24000000025,
      "d": 583.3327500000014,
      "v": 112
    },
    {
      "midi": 74,
      "hit": false,
      "t": 93333.24000000025,
      "d": 583.3327500000014,
      "v": 112
    },
    {
      "midi": 62,
      "hit": false,
      "t": 93666.57300000002,
      "d": 291.6663750000007,
      "v": 112
    },
    {
      "midi": 55,
      "hit": false,
      "t": 93666.57300000015,
      "d": 333.3329999999987,
      "v": 60
    },
    {
      "midi": 55,
      "hit": false,
      "t": 93999.90600000002,
      "d": 291.6663750000007,
      "v": 112
    },
    {
      "midi": 55,
      "hit": false,
      "t": 93999.90600000015,
      "d": 333.3329999999987,
      "v": 65
    },
    {
      "midi": 67,
      "hit": false,
      "t": 93999.90600000025,
      "d": 583.3327500000014,
      "v": 112
    },
    {
      "midi": 71,
      "hit": false,
      "t": 93999.90600000025,
      "d": 583.3327500000014,
      "v": 112
    },
    {
      "midi": 74,
      "hit": false,
      "t": 93999.90600000025,
      "d": 583.3327500000014,
      "v": 112
    },
    {
      "midi": 62,
      "hit": false,
      "t": 94333.23900000002,
      "d": 291.6663750000007,
      "v": 112
    },
    {
      "midi": 59,
      "hit": false,
      "t": 94333.23900000015,
      "d": 333.3329999999987,
      "v": 60
    },
    {
      "midi": 52,
      "hit": false,
      "t": 94666.57200000001,
      "d": 291.6663750000007,
      "v": 112
    },
    {
      "midi": 55,
      "hit": false,
      "t": 94666.57200000015,
      "d": 274.30528124999546,
      "v": 70
    },
    {
      "midi": 59,
      "hit": false,
      "t": 94666.57200000015,
      "d": 274.30528124999546,
      "v": 70
    },
    {
      "midi": 64,
      "hit": false,
      "t": 94666.57200000015,
      "d": 274.30528124999546,
      "v": 70
    },
    {
      "midi": 67,
      "hit": false,
      "t": 94666.57200000025,
      "d": 583.3327500000014,
      "v": 112
    },
    {
      "midi": 71,
      "hit": false,
      "t": 94666.57200000025,
      "d": 583.3327500000014,
      "v": 112
    },
    {
      "midi": 76,
      "hit": false,
      "t": 94666.57200000025,
      "d": 583.3327500000014,
      "v": 112
    },
    {
      "midi": 64,
      "hit": false,
      "t": 94999.90500000001,
      "d": 291.6663750000007,
      "v": 112
    },
    {
      "midi": 52,
      "hit": false,
      "t": 94999.90500000014,
      "d": 333.3329999999987,
      "v": 70
    },
    {
      "midi": 52,
      "hit": false,
      "t": 95333.23800000001,
      "d": 291.6663750000007,
      "v": 112
    },
    {
      "midi": 55,
      "hit": false,
      "t": 95333.23800000014,
      "d": 333.3329999999987,
      "v": 60
    },
    {
      "midi": 67,
      "hit": false,
      "t": 95333.23800000024,
      "d": 583.3327500000014,
      "v": 112
    },
    {
      "midi": 71,
      "hit": false,
      "t": 95333.23800000024,
      "d": 583.3327500000014,
      "v": 112
    },
    {
      "midi": 76,
      "hit": false,
      "t": 95333.23800000024,
      "d": 583.3327500000014,
      "v": 112
    },
    {
      "midi": 64,
      "hit": false,
      "t": 95666.57100000001,
      "d": 291.6663750000007,
      "v": 112
    },
    {
      "midi": 55,
      "hit": false,
      "t": 95666.57100000014,
      "d": 274.30528124999546,
      "v": 65
    },
    {
      "midi": 59,
      "hit": false,
      "t": 95666.57100000014,
      "d": 274.30528124999546,
      "v": 65
    },
    {
      "midi": 64,
      "hit": false,
      "t": 95666.57100000014,
      "d": 274.30528124999546,
      "v": 65
    },
    {
      "midi": 50,
      "hit": false,
      "t": 95999.90400000001,
      "d": 291.6663750000007,
      "v": 112
    },
    {
      "midi": 50,
      "hit": false,
      "t": 95999.90400000014,
      "d": 1166.6655000000028,
      "v": 70
    },
    {
      "midi": 57,
      "hit": false,
      "t": 95999.90400000014,
      "d": 1166.6655000000028,
      "v": 70
    },
    {
      "midi": 62,
      "hit": false,
      "t": 95999.90400000014,
      "d": 1166.6655000000028,
      "v": 70
    },
    {
      "midi": 66,
      "hit": false,
      "t": 95999.90400000014,
      "d": 1166.6655000000028,
      "v": 70
    },
    {
      "midi": 69,
      "hit": false,
      "t": 95999.90400000024,
      "d": 583.3327500000014,
      "v": 112
    },
    {
      "midi": 74,
      "hit": false,
      "t": 95999.90400000024,
      "d": 583.3327500000014,
      "v": 112
    },
    {
      "midi": 78,
      "hit": false,
      "t": 95999.90400000024,
      "d": 583.3327500000014,
      "v": 112
    },
    {
      "midi": 62,
      "hit": false,
      "t": 96333.23700000001,
      "d": 291.6663750000007,
      "v": 112
    },
    {
      "midi": 50,
      "hit": false,
      "t": 96666.57,
      "d": 291.6663750000007,
      "v": 112
    },
    {
      "midi": 69,
      "hit": false,
      "t": 96666.57000000024,
      "d": 583.3327500000014,
      "v": 112
    },
    {
      "midi": 74,
      "hit": false,
      "t": 96666.57000000024,
      "d": 583.3327500000014,
      "v": 112
    },
    {
      "midi": 78,
      "hit": false,
      "t": 96666.57000000024,
      "d": 583.3327500000014,
      "v": 112
    },
    {
      "midi": 62,
      "hit": false,
      "t": 96999.903,
      "d": 291.6663750000007,
      "v": 112
    },
    {
      "midi": 50,
      "hit": false,
      "t": 97333.236,
      "d": 291.6663750000007,
      "v": 112
    },
    {
      "midi": 69,
      "hit": false,
      "t": 97333.23600000024,
      "d": 583.3327500000014,
      "v": 112
    },
    {
      "midi": 74,
      "hit": false,
      "t": 97333.23600000024,
      "d": 583.3327500000014,
      "v": 112
    },
    {
      "midi": 78,
      "hit": false,
      "t": 97333.23600000024,
      "d": 583.3327500000014,
      "v": 112
    },
    {
      "midi": 62,
      "hit": false,
      "t": 97666.569,
      "d": 291.6663750000007,
      "v": 112
    },
    {
      "midi": 60,
      "hit": false,
      "t": 97833.23550000001,
      "d": 72.9165937499929,
      "v": 112
    },
    {
      "midi": 61,
      "hit": false,
      "t": 97916.56875,
      "d": 72.9165937499929,
      "v": 112
    },
    {
      "midi": 62,
      "hit": false,
      "t": 97999.902,
      "d": 291.6663750000007,
      "v": 112
    },
    {
      "midi": 69,
      "hit": false,
      "t": 97999.90200000023,
      "d": 145.83318750000035,
      "v": 112
    },
    {
      "midi": 78,
      "hit": false,
      "t": 97999.90200000023,
      "d": 145.83318750000035,
      "v": 112
    },
    {
      "midi": 71,
      "hit": false,
      "t": 98166.56850000024,
      "d": 437.49956250000105,
      "v": 112
    },
    {
      "midi": 79,
      "hit": false,
      "t": 98166.56850000024,
      "d": 437.49956250000105,
      "v": 112
    },
    {
      "midi": 57,
      "hit": false,
      "t": 98333.235,
      "d": 291.6663750000007,
      "v": 112
    },
    {
      "midi": 50,
      "hit": false,
      "t": 98666.568,
      "d": 291.6663750000007,
      "v": 112
    },
    {
      "midi": 60,
      "hit": false,
      "t": 98666.56800000014,
      "d": 1166.6655000000028,
      "v": 70
    },
    {
      "midi": 62,
      "hit": false,
      "t": 98666.56800000014,
      "d": 1166.6655000000028,
      "v": 70
    },
    {
      "midi": 66,
      "hit": false,
      "t": 98666.56800000014,
      "d": 1166.6655000000028,
      "v": 70
    },
    {
      "midi": 69,
      "hit": false,
      "t": 98666.56800000014,
      "d": 1166.6655000000028,
      "v": 70
    },
    {
      "midi": 69,
      "hit": false,
      "t": 98666.56800000025,
      "d": 916.6657500000001,
      "v": 112
    },
    {
      "midi": 72,
      "hit": false,
      "t": 98666.56800000025,
      "d": 916.6657500000001,
      "v": 112
    },
    {
      "midi": 78,
      "hit": false,
      "t": 98666.56800000025,
      "d": 916.6657500000001,
      "v": 112
    },
    {
      "midi": 62,
      "hit": false,
      "t": 98999.901,
      "d": 291.6663750000007,
      "v": 112
    },
    {
      "midi": 50,
      "hit": false,
      "t": 99333.234,
      "d": 291.6663750000007,
      "v": 112
    },
    {
      "midi": 62,
      "hit": false,
      "t": 99666.567,
      "d": 291.6663750000007,
      "v": 112
    },
    {
      "midi": 69,
      "hit": false,
      "t": 99666.56700000024,
      "d": 145.83318750000035,
      "v": 112
    },
    {
      "midi": 78,
      "hit": false,
      "t": 99666.56700000024,
      "d": 145.83318750000035,
      "v": 112
    },
    {
      "midi": 71,
      "hit": false,
      "t": 99833.23350000025,
      "d": 145.83318750000035,
      "v": 112
    },
    {
      "midi": 79,
      "hit": false,
      "t": 99833.23350000025,
      "d": 145.83318750000035,
      "v": 112
    },
    {
      "midi": 50,
      "hit": false,
      "t": 99999.9,
      "d": 291.6663750000007,
      "v": 112
    },
    {
      "midi": 69,
      "hit": false,
      "t": 99999.90000000026,
      "d": 583.3327500000014,
      "v": 112
    },
    {
      "midi": 78,
      "hit": false,
      "t": 99999.90000000026,
      "d": 583.3327500000014,
      "v": 112
    },
    {
      "midi": 62,
      "hit": false,
      "t": 100333.233,
      "d": 291.6663750000007,
      "v": 112
    },
    {
      "midi": 50,
      "hit": false,
      "t": 100666.56599999999,
      "d": 291.6663750000007,
      "v": 112
    },
    {
      "midi": 83,
      "hit": false,
      "t": 100666.56600000025,
      "d": 145.83318750000035,
      "v": 112
    },
    {
      "midi": 74,
      "hit": false,
      "t": 100833.23250000026,
      "d": 145.83318750000035,
      "v": 112
    },
    {
      "midi": 62,
      "hit": false,
      "t": 100999.89899999999,
      "d": 291.6663750000007,
      "v": 112
    },
    {
      "midi": 81,
      "hit": false,
      "t": 100999.89900000027,
      "d": 145.83318750000035,
      "v": 112
    },
    {
      "midi": 72,
      "hit": false,
      "t": 101166.56550000027,
      "d": 145.83318750000035,
      "v": 112
    },
    {
      "midi": 52,
      "hit": false,
      "t": 101333.23199999999,
      "d": 291.6663750000007,
      "v": 112
    },
    {
      "midi": 55,
      "hit": false,
      "t": 101333.23200000015,
      "d": 1166.6655000000028,
      "v": 70
    },
    {
      "midi": 59,
      "hit": false,
      "t": 101333.23200000015,
      "d": 1166.6655000000028,
      "v": 70
    },
    {
      "midi": 64,
      "hit": false,
      "t": 101333.23200000015,
      "d": 1166.6655000000028,
      "v": 70
    },
    {
      "midi": 71,
      "hit": false,
      "t": 101333.23200000028,
      "d": 291.6663750000007,
      "v": 112
    },
    {
      "midi": 79,
      "hit": false,
      "t": 101333.23200000028,
      "d": 291.6663750000007,
      "v": 112
    },
    {
      "midi": 64,
      "hit": false,
      "t": 101666.56499999999,
      "d": 291.6663750000007,
      "v": 112
    },
    {
      "midi": 67,
      "hit": false,
      "t": 101666.56500000028,
      "d": 291.6663750000007,
      "v": 112
    },
    {
      "midi": 52,
      "hit": false,
      "t": 101999.89799999999,
      "d": 291.6663750000007,
      "v": 112
    },
    {
      "midi": 71,
      "hit": false,
      "t": 101999.89800000028,
      "d": 291.6663750000007,
      "v": 112
    },
    {
      "midi": 76,
      "hit": false,
      "t": 101999.89800000028,
      "d": 291.6663750000007,
      "v": 112
    },
    {
      "midi": 64,
      "hit": false,
      "t": 102333.23099999999,
      "d": 291.6663750000007,
      "v": 112
    },
    {
      "midi": 67,
      "hit": false,
      "t": 102333.23100000028,
      "d": 291.6663750000007,
      "v": 112
    },
    {
      "midi": 52,
      "hit": false,
      "t": 102666.56399999998,
      "d": 291.6663750000007,
      "v": 112
    },
    {
      "midi": 69,
      "hit": false,
      "t": 102666.56400000027,
      "d": 291.6663750000007,
      "v": 112
    },
    {
      "midi": 76,
      "hit": false,
      "t": 102666.56400000027,
      "d": 916.6657500000001,
      "v": 112
    },
    {
      "midi": 64,
      "hit": false,
      "t": 102999.89699999998,
      "d": 291.6663750000007,
      "v": 112
    },
    {
      "midi": 55,
      "hit": false,
      "t": 102999.89700000016,
      "d": 333.3329999999987,
      "v": 60
    },
    {
      "midi": 67,
      "hit": false,
      "t": 102999.89700000027,
      "d": 583.3327500000014,
      "v": 112
    },
    {
      "midi": 52,
      "hit": false,
      "t": 103333.22999999998,
      "d": 291.6663750000007,
      "v": 112
    },
    {
      "midi": 59,
      "hit": false,
      "t": 103333.23000000016,
      "d": 333.3329999999987,
      "v": 65
    },
    {
      "midi": 64,
      "hit": false,
      "t": 103666.56299999998,
      "d": 291.6663750000007,
      "v": 112
    },
    {
      "midi": 64,
      "hit": false,
      "t": 103666.56300000015,
      "d": 333.3329999999987,
      "v": 70
    },
    {
      "midi": 71,
      "hit": false,
      "t": 103666.56300000027,
      "d": 145.83318750000035,
      "v": 112
    },
    {
      "midi": 76,
      "hit": false,
      "t": 103666.56300000027,
      "d": 291.6663750000007,
      "v": 112
    },
    {
      "midi": 72,
      "hit": false,
      "t": 103833.22950000028,
      "d": 145.83318750000035,
      "v": 112
    },
    {
      "midi": 52,
      "hit": false,
      "t": 103999.89599999998,
      "d": 291.6663750000007,
      "v": 112
    },
    {
      "midi": 52,
      "hit": false,
      "t": 103999.89600000015,
      "d": 1166.6655000000028,
      "v": 70
    },
    {
      "midi": 59,
      "hit": false,
      "t": 103999.89600000015,
      "d": 1166.6655000000028,
      "v": 70
    },
    {
      "midi": 61,
      "hit": false,
      "t": 103999.89600000015,
      "d": 1166.6655000000028,
      "v": 70
    },
    {
      "midi": 64,
      "hit": false,
      "t": 103999.89600000015,
      "d": 1166.6655000000028,
      "v": 70
    },
    {
      "midi": 67,
      "hit": false,
      "t": 103999.89600000015,
      "d": 1166.6655000000028,
      "v": 70
    },
    {
      "midi": 71,
      "hit": false,
      "t": 103999.89600000028,
      "d": 583.3327500000014,
      "v": 112
    },
    {
      "midi": 73,
      "hit": false,
      "t": 103999.89600000028,
      "d": 583.3327500000014,
      "v": 112
    },
    {
      "midi": 76,
      "hit": false,
      "t": 103999.89600000028,
      "d": 583.3327500000014,
      "v": 112
    },
    {
      "midi": 67,
      "hit": false,
      "t": 104333.22899999998,
      "d": 291.6663750000007,
      "v": 112
    },
    {
      "midi": 52,
      "hit": false,
      "t": 104666.56199999998,
      "d": 291.6663750000007,
      "v": 112
    },
    {
      "midi": 71,
      "hit": false,
      "t": 104666.56200000028,
      "d": 583.3327500000014,
      "v": 112
    },
    {
      "midi": 73,
      "hit": false,
      "t": 104666.56200000028,
      "d": 583.3327500000014,
      "v": 112
    },
    {
      "midi": 76,
      "hit": false,
      "t": 104666.56200000028,
      "d": 583.3327500000014,
      "v": 112
    },
    {
      "midi": 67,
      "hit": false,
      "t": 104999.89499999997,
      "d": 291.6663750000007,
      "v": 112
    },
    {
      "midi": 52,
      "hit": false,
      "t": 105333.22799999997,
      "d": 291.6663750000007,
      "v": 112
    },
    {
      "midi": 79,
      "hit": false,
      "t": 105333.22800000028,
      "d": 145.83318750000035,
      "v": 112
    },
    {
      "midi": 73,
      "hit": false,
      "t": 105499.89450000029,
      "d": 437.49956250000105,
      "v": 112
    },
    {
      "midi": 67,
      "hit": false,
      "t": 105666.56099999997,
      "d": 291.6663750000007,
      "v": 112
    },
    {
      "midi": 59,
      "hit": false,
      "t": 105666.56100000016,
      "d": 333.3329999999987,
      "v": 60
    },
    {
      "midi": 52,
      "hit": false,
      "t": 105999.89399999997,
      "d": 291.6663750000007,
      "v": 112
    },
    {
      "midi": 61,
      "hit": false,
      "t": 105999.89400000016,
      "d": 333.3329999999987,
      "v": 65
    },
    {
      "midi": 71,
      "hit": false,
      "t": 105999.89400000029,
      "d": 145.83318750000035,
      "v": 112
    },
    {
      "midi": 73,
      "hit": false,
      "t": 106166.5605000003,
      "d": 437.49956250000105,
      "v": 112
    },
    {
      "midi": 67,
      "hit": false,
      "t": 106333.22699999997,
      "d": 291.6663750000007,
      "v": 112
    },
    {
      "midi": 64,
      "hit": false,
      "t": 106333.22700000016,
      "d": 333.3329999999987,
      "v": 70
    },
    {
      "midi": 50,
      "hit": false,
      "t": 106666.55999999997,
      "d": 291.6663750000007,
      "v": 112
    },
    {
      "midi": 50,
      "hit": false,
      "t": 106666.56000000016,
      "d": 1166.6655000000028,
      "v": 70
    },
    {
      "midi": 57,
      "hit": false,
      "t": 106666.56000000016,
      "d": 1166.6655000000028,
      "v": 70
    },
    {
      "midi": 62,
      "hit": false,
      "t": 106666.56000000016,
      "d": 1166.6655000000028,
      "v": 70
    },
    {
      "midi": 66,
      "hit": false,
      "t": 106666.56000000016,
      "d": 1166.6655000000028,
      "v": 70
    },
    {
      "midi": 69,
      "hit": false,
      "t": 106666.5600000003,
      "d": 583.3327500000014,
      "v": 112
    },
    {
      "midi": 74,
      "hit": false,
      "t": 106666.5600000003,
      "d": 583.3327500000014,
      "v": 112
    },
    {
      "midi": 78,
      "hit": false,
      "t": 106666.5600000003,
      "d": 583.3327500000014,
      "v": 112
    },
    {
      "midi": 62,
      "hit": false,
      "t": 106999.89299999997,
      "d": 291.6663750000007,
      "v": 112
    },
    {
      "midi": 50,
      "hit": false,
      "t": 107333.22599999997,
      "d": 291.6663750000007,
      "v": 112
    },
    {
      "midi": 69,
      "hit": false,
      "t": 107333.2260000003,
      "d": 583.3327500000014,
      "v": 112
    },
    {
      "midi": 74,
      "hit": false,
      "t": 107333.2260000003,
      "d": 583.3327500000014,
      "v": 112
    },
    {
      "midi": 78,
      "hit": false,
      "t": 107333.2260000003,
      "d": 583.3327500000014,
      "v": 112
    },
    {
      "midi": 62,
      "hit": false,
      "t": 107666.55899999996,
      "d": 291.6663750000007,
      "v": 112
    },
    {
      "midi": 50,
      "hit": false,
      "t": 107999.89199999996,
      "d": 291.6663750000007,
      "v": 112
    },
    {
      "midi": 66,
      "hit": false,
      "t": 107999.8920000003,
      "d": 583.3327500000014,
      "v": 112
    },
    {
      "midi": 74,
      "hit": false,
      "t": 107999.8920000003,
      "d": 583.3327500000014,
      "v": 112
    },
    {
      "midi": 62,
      "hit": false,
      "t": 108333.22499999996,
      "d": 291.6663750000007,
      "v": 112
    },
    {
      "midi": 57,
      "hit": false,
      "t": 108333.22500000017,
      "d": 333.3329999999987,
      "v": 60
    },
    {
      "midi": 57,
      "hit": false,
      "t": 108666.55799999996,
      "d": 145.83318750000035,
      "v": 112
    },
    {
      "midi": 50,
      "hit": false,
      "t": 108666.55799999996,
      "d": 583.332750000016,
      "v": 112
    },
    {
      "midi": 62,
      "hit": false,
      "t": 108666.55800000016,
      "d": 333.3329999999987,
      "v": 65
    },
    {
      "midi": 66,
      "hit": false,
      "t": 108666.5580000003,
      "d": 145.83318750000035,
      "v": 112
    },
    {
      "midi": 74,
      "hit": false,
      "t": 108666.5580000003,
      "d": 583.332750000016,
      "v": 112
    },
    {
      "midi": 59,
      "hit": false,
      "t": 108833.22449999997,
      "d": 145.83318750000035,
      "v": 112
    },
    {
      "midi": 67,
      "hit": false,
      "t": 108833.2245000003,
      "d": 145.83318750000035,
      "v": 112
    },
    {
      "midi": 57,
      "hit": false,
      "t": 108999.89099999997,
      "d": 145.83318750000035,
      "v": 112
    },
    {
      "midi": 66,
      "hit": false,
      "t": 108999.89100000016,
      "d": 333.3329999999987,
      "v": 70
    },
    {
      "midi": 66,
      "hit": false,
      "t": 108999.89100000031,
      "d": 145.83318750000035,
      "v": 112
    },
    {
      "midi": 59,
      "hit": false,
      "t": 109166.55749999998,
      "d": 145.83318750000035,
      "v": 112
    },
    {
      "midi": 67,
      "hit": false,
      "t": 109166.55750000032,
      "d": 145.83318750000035,
      "v": 112
    },
    {
      "midi": 52,
      "hit": false,
      "t": 109333.22399999999,
      "d": 291.6663750000007,
      "v": 112
    },
    {
      "midi": 55,
      "hit": false,
      "t": 109333.22400000016,
      "d": 1166.6655000000028,
      "v": 70
    },
    {
      "midi": 59,
      "hit": false,
      "t": 109333.22400000016,
      "d": 1166.6655000000028,
      "v": 70
    },
    {
      "midi": 64,
      "hit": false,
      "t": 109333.22400000016,
      "d": 1166.6655000000028,
      "v": 70
    },
    {
      "midi": 67,
      "hit": false,
      "t": 109333.22400000032,
      "d": 583.3327500000014,
      "v": 112
    },
    {
      "midi": 71,
      "hit": false,
      "t": 109333.22400000032,
      "d": 583.3327500000014,
      "v": 112
    },
    {
      "midi": 76,
      "hit": false,
      "t": 109333.22400000032,
      "d": 583.3327500000014,
      "v": 112
    },
    {
      "midi": 55,
      "hit": false,
      "t": 109666.55699999999,
      "d": 291.6663750000007,
      "v": 112
    },
    {
      "midi": 59,
      "hit": false,
      "t": 109666.55699999999,
      "d": 291.6663750000007,
      "v": 112
    },
    {
      "midi": 52,
      "hit": false,
      "t": 109999.88999999998,
      "d": 291.6663750000007,
      "v": 112
    },
    {
      "midi": 67,
      "hit": false,
      "t": 109999.89000000032,
      "d": 1104.1655624999985,
      "v": 112
    },
    {
      "midi": 71,
      "hit": false,
      "t": 109999.89000000032,
      "d": 1104.1655624999985,
      "v": 112
    },
    {
      "midi": 76,
      "hit": false,
      "t": 109999.89000000032,
      "d": 1104.1655624999985,
      "v": 112
    },
    {
      "midi": 55,
      "hit": false,
      "t": 110333.22299999998,
      "d": 291.6663750000007,
      "v": 112
    },
    {
      "midi": 59,
      "hit": false,
      "t": 110333.22299999998,
      "d": 291.6663750000007,
      "v": 112
    },
    {
      "midi": 52,
      "hit": false,
      "t": 110666.55599999998,
      "d": 291.6663750000007,
      "v": 112
    },
    {
      "midi": 55,
      "hit": false,
      "t": 110999.88899999998,
      "d": 291.6663750000007,
      "v": 112
    },
    {
      "midi": 59,
      "hit": false,
      "t": 110999.88899999998,
      "d": 291.6663750000007,
      "v": 112
    },
    {
      "midi": 67,
      "hit": false,
      "t": 111166.55550000032,
      "d": 145.83318750000035,
      "v": 112
    },
    {
      "midi": 52,
      "hit": false,
      "t": 111333.22199999998,
      "d": 291.6663750000007,
      "v": 112
    },
    {
      "midi": 78,
      "hit": false,
      "t": 111333.22200000033,
      "d": 145.83318750000035,
      "v": 112
    },
    {
      "midi": 76,
      "hit": false,
      "t": 111499.88850000034,
      "d": 145.83318750000035,
      "v": 112
    },
    {
      "midi": 55,
      "hit": false,
      "t": 111666.55499999998,
      "d": 291.6663750000007,
      "v": 112
    },
    {
      "midi": 59,
      "hit": false,
      "t": 111666.55499999998,
      "d": 291.6663750000007,
      "v": 112
    },
    {
      "midi": 71,
      "hit": false,
      "t": 111666.55500000034,
      "d": 145.83318750000035,
      "v": 112
    },
    {
      "midi": 67,
      "hit": false,
      "t": 111833.22150000035,
      "d": 145.83318750000035,
      "v": 112
    },
    {
      "midi": 48,
      "hit": false,
      "t": 111999.88799999998,
      "d": 291.6663750000007,
      "v": 112
    },
    {
      "midi": 48,
      "hit": false,
      "t": 111999.88800000017,
      "d": 1166.6655000000028,
      "v": 70
    },
    {
      "midi": 55,
      "hit": false,
      "t": 111999.88800000017,
      "d": 1166.6655000000028,
      "v": 70
    },
    {
      "midi": 60,
      "hit": false,
      "t": 111999.88800000017,
      "d": 1166.6655000000028,
      "v": 70
    },
    {
      "midi": 64,
      "hit": false,
      "t": 111999.88800000017,
      "d": 1166.6655000000028,
      "v": 70
    },
    {
      "midi": 67,
      "hit": false,
      "t": 111999.88800000017,
      "d": 1166.6655000000028,
      "v": 70
    },
    {
      "midi": 67,
      "hit": false,
      "t": 111999.88800000036,
      "d": 583.3327500000014,
      "v": 112
    },
    {
      "midi": 72,
      "hit": false,
      "t": 111999.88800000036,
      "d": 583.3327500000014,
      "v": 112
    },
    {
      "midi": 76,
      "hit": false,
      "t": 111999.88800000036,
      "d": 583.3327500000014,
      "v": 112
    },
    {
      "midi": 60,
      "hit": false,
      "t": 112333.22099999998,
      "d": 291.6663750000007,
      "v": 112
    },
    {
      "midi": 48,
      "hit": false,
      "t": 112666.55399999997,
      "d": 291.6663750000007,
      "v": 112
    },
    {
      "midi": 67,
      "hit": false,
      "t": 112666.55400000035,
      "d": 437.49956250000105,
      "v": 112
    },
    {
      "midi": 72,
      "hit": false,
      "t": 112666.55400000035,
      "d": 437.49956250000105,
      "v": 112
    },
    {
      "midi": 76,
      "hit": false,
      "t": 112666.55400000035,
      "d": 437.49956250000105,
      "v": 112
    },
    {
      "midi": 60,
      "hit": false,
      "t": 112999.88699999997,
      "d": 291.6663750000007,
      "v": 112
    },
    {
      "midi": 72,
      "hit": false,
      "t": 113166.55350000036,
      "d": 145.83318750000035,
      "v": 112
    },
    {
      "midi": 76,
      "hit": false,
      "t": 113166.55350000036,
      "d": 145.83318750000035,
      "v": 112
    },
    {
      "midi": 79,
      "hit": false,
      "t": 113166.55350000036,
      "d": 145.83318750000035,
      "v": 112
    },
    {
      "midi": 48,
      "hit": false,
      "t": 113333.21999999997,
      "d": 291.6663750000007,
      "v": 112
    },
    {
      "midi": 72,
      "hit": false,
      "t": 113333.22000000036,
      "d": 437.49956250000105,
      "v": 112
    },
    {
      "midi": 76,
      "hit": false,
      "t": 113333.22000000036,
      "d": 437.49956250000105,
      "v": 112
    },
    {
      "midi": 79,
      "hit": false,
      "t": 113333.22000000036,
      "d": 437.49956250000105,
      "v": 112
    },
    {
      "midi": 60,
      "hit": false,
      "t": 113666.55299999997,
      "d": 291.6663750000007,
      "v": 112
    },
    {
      "midi": 55,
      "hit": false,
      "t": 113666.55300000017,
      "d": 333.3329999999987,
      "v": 60
    },
    {
      "midi": 79,
      "hit": false,
      "t": 113833.21950000037,
      "d": 145.83318750000035,
      "v": 112
    },
    {
      "midi": 84,
      "hit": false,
      "t": 113833.21950000037,
      "d": 145.83318750000035,
      "v": 112
    },
    {
      "midi": 88,
      "hit": false,
      "t": 113833.21950000037,
      "d": 145.83318750000035,
      "v": 112
    },
    {
      "midi": 91,
      "hit": false,
      "t": 113833.21950000037,
      "d": 145.83318750000035,
      "v": 112
    },
    {
      "midi": 48,
      "hit": false,
      "t": 113999.88599999997,
      "d": 291.6663750000007,
      "v": 112
    },
    {
      "midi": 60,
      "hit": false,
      "t": 113999.88600000017,
      "d": 333.3329999999987,
      "v": 65
    },
    {
      "midi": 79,
      "hit": false,
      "t": 113999.88600000038,
      "d": 583.3327500000014,
      "v": 112
    },
    {
      "midi": 84,
      "hit": false,
      "t": 113999.88600000038,
      "d": 583.3327500000014,
      "v": 112
    },
    {
      "midi": 88,
      "hit": false,
      "t": 113999.88600000038,
      "d": 583.3327500000014,
      "v": 112
    },
    {
      "midi": 91,
      "hit": false,
      "t": 113999.88600000038,
      "d": 583.3327500000014,
      "v": 112
    },
    {
      "midi": 48,
      "hit": false,
      "t": 114333.21899999997,
      "d": 291.6663750000007,
      "v": 112
    },
    {
      "midi": 64,
      "hit": false,
      "t": 114333.21900000017,
      "d": 333.3329999999987,
      "v": 70
    },
    {
      "midi": 43,
      "hit": false,
      "t": 114666.55199999997,
      "d": 1249.9987499999988,
      "v": 112
    },
    {
      "midi": 55,
      "hit": false,
      "t": 114666.55200000017,
      "d": 1166.6655000000028,
      "v": 75
    },
    {
      "midi": 59,
      "hit": false,
      "t": 114666.55200000017,
      "d": 1166.6655000000028,
      "v": 75
    },
    {
      "midi": 62,
      "hit": false,
      "t": 114666.55200000017,
      "d": 1166.6655000000028,
      "v": 75
    },
    {
      "midi": 67,
      "hit": false,
      "t": 114666.55200000037,
      "d": 583.3327500000014,
      "v": 112
    },
    {
      "midi": 71,
      "hit": false,
      "t": 114666.55200000037,
      "d": 583.3327500000014,
      "v": 112
    },
    {
      "midi": 74,
      "hit": false,
      "t": 114666.55200000037,
      "d": 583.3327500000014,
      "v": 112
    },
    {
      "midi": 67,
      "hit": false,
      "t": 115333.21800000037,
      "d": 583.3327500000014,
      "v": 112
    },
    {
      "midi": 71,
      "hit": false,
      "t": 115333.21800000037,
      "d": 583.3327500000014,
      "v": 112
    },
    {
      "midi": 74,
      "hit": false,
      "t": 115333.21800000037,
      "d": 583.3327500000014,
      "v": 112
    },
    {
      "midi": 41,
      "hit": false,
      "t": 115999.88399999996,
      "d": 1249.9987499999988,
      "v": 112
    },
    {
      "midi": 53,
      "hit": false,
      "t": 115999.88400000018,
      "d": 274.30528124999546,
      "v": 70
    },
    {
      "midi": 59,
      "hit": false,
      "t": 115999.88400000018,
      "d": 274.30528124999546,
      "v": 70
    },
    {
      "midi": 62,
      "hit": false,
      "t": 115999.88400000018,
      "d": 274.30528124999546,
      "v": 70
    },
    {
      "midi": 65,
      "hit": false,
      "t": 115999.88400000018,
      "d": 274.30528124999546,
      "v": 70
    },
    {
      "midi": 69,
      "hit": false,
      "t": 115999.88400000018,
      "d": 274.30528124999546,
      "v": 70
    },
    {
      "midi": 65,
      "hit": false,
      "t": 115999.88400000037,
      "d": 583.3327500000014,
      "v": 112
    },
    {
      "midi": 69,
      "hit": false,
      "t": 115999.88400000037,
      "d": 583.3327500000014,
      "v": 112
    },
    {
      "midi": 71,
      "hit": false,
      "t": 115999.88400000037,
      "d": 583.3327500000014,
      "v": 112
    },
    {
      "midi": 74,
      "hit": false,
      "t": 115999.88400000037,
      "d": 583.3327500000014,
      "v": 112
    },
    {
      "midi": 59,
      "hit": false,
      "t": 116666.55000000018,
      "d": 274.30528124999546,
      "v": 70
    },
    {
      "midi": 65,
      "hit": false,
      "t": 116666.55000000037,
      "d": 583.3327500000014,
      "v": 112
    },
    {
      "midi": 69,
      "hit": false,
      "t": 116666.55000000037,
      "d": 583.3327500000014,
      "v": 112
    },
    {
      "midi": 71,
      "hit": false,
      "t": 116666.55000000037,
      "d": 583.3327500000014,
      "v": 112
    },
    {
      "midi": 74,
      "hit": false,
      "t": 116666.55000000037,
      "d": 583.3327500000014,
      "v": 112
    },
    {
      "midi": 62,
      "hit": false,
      "t": 116999.88300000018,
      "d": 274.30528124999546,
      "v": 60
    },
    {
      "midi": 36,
      "hit": false,
      "t": 117333.21599999996,
      "d": 1624.9983749999956,
      "v": 112
    },
    {
      "midi": 55,
      "hit": false,
      "t": 117333.21600000017,
      "d": 1166.6655000000028,
      "v": 70
    },
    {
      "midi": 60,
      "hit": false,
      "t": 117333.21600000017,
      "d": 1166.6655000000028,
      "v": 70
    },
    {
      "midi": 64,
      "hit": false,
      "t": 117333.21600000017,
      "d": 1166.6655000000028,
      "v": 70
    },
    {
      "midi": 67,
      "hit": false,
      "t": 117333.21600000017,
      "d": 1166.6655000000028,
      "v": 70
    },
    {
      "midi": 64,
      "hit": false,
      "t": 117333.21600000036,
      "d": 583.3327500000014,
      "v": 112
    },
    {
      "midi": 67,
      "hit": false,
      "t": 117333.21600000036,
      "d": 583.3327500000014,
      "v": 112
    },
    {
      "midi": 74,
      "hit": false,
      "t": 117333.21600000036,
      "d": 583.3327500000014,
      "v": 112
    },
    {
      "midi": 72,
      "hit": false,
      "t": 117999.88200000036,
      "d": 583.3327500000014,
      "v": 112
    },
    {
      "midi": 76,
      "hit": false,
      "t": 117999.88200000036,
      "d": 583.3327500000014,
      "v": 112
    },
    {
      "midi": 79,
      "hit": false,
      "t": 117999.88200000036,
      "d": 583.3327500000014,
      "v": 112
    },
    {
      "midi": 72,
      "hit": false,
      "t": 118666.54800000036,
      "d": 291.6663750000007,
      "v": 112
    },
    {
      "midi": 76,
      "hit": false,
      "t": 118666.54800000036,
      "d": 291.6663750000007,
      "v": 112
    },
    {
      "midi": 79,
      "hit": false,
      "t": 118666.54800000036,
      "d": 291.6663750000007,
      "v": 112
    },
    {
      "midi": 38,
      "hit": false,
      "t": 118999.88099999995,
      "d": 291.6663750000007,
      "v": 112
    },
    {
      "midi": 48,
      "hit": false,
      "t": 118999.88100000018,
      "d": 333.3329999999987,
      "v": 70
    },
    {
      "midi": 72,
      "hit": false,
      "t": 118999.88100000036,
      "d": 291.6663750000007,
      "v": 112
    },
    {
      "midi": 76,
      "hit": false,
      "t": 118999.88100000036,
      "d": 291.6663750000007,
      "v": 112
    },
    {
      "midi": 79,
      "hit": false,
      "t": 118999.88100000036,
      "d": 291.6663750000007,
      "v": 112
    },
    {
      "midi": 38,
      "hit": false,
      "t": 119333.21399999995,
      "d": 291.6663750000007,
      "v": 112
    },
    {
      "midi": 55,
      "hit": false,
      "t": 119333.21400000018,
      "d": 666.6659999999974,
      "v": 75
    },
    {
      "midi": 60,
      "hit": false,
      "t": 119333.21400000018,
      "d": 666.6659999999974,
      "v": 75
    },
    {
      "midi": 64,
      "hit": false,
      "t": 119333.21400000018,
      "d": 666.6659999999974,
      "v": 75
    },
    {
      "midi": 76,
      "hit": false,
      "t": 119333.21400000036,
      "d": 145.83318750000035,
      "v": 112
    },
    {
      "midi": 79,
      "hit": false,
      "t": 119499.88050000036,
      "d": 145.83318750000035,
      "v": 112
    },
    {
      "midi": 40,
      "hit": false,
      "t": 119666.54699999995,
      "d": 291.6663750000007,
      "v": 112
    },
    {
      "midi": 76,
      "hit": false,
      "t": 119666.54700000037,
      "d": 145.83318750000035,
      "v": 112
    },
    {
      "midi": 71,
      "hit": false,
      "t": 119833.21350000038,
      "d": 145.83318750000035,
      "v": 112
    },
    {
      "midi": 43,
      "hit": false,
      "t": 119999.87999999995,
      "d": 1249.9987499999988,
      "v": 112
    },
    {
      "midi": 55,
      "hit": false,
      "t": 119999.88000000018,
      "d": 274.30528124999546,
      "v": 70
    },
    {
      "midi": 59,
      "hit": false,
      "t": 119999.88000000018,
      "d": 274.30528124999546,
      "v": 70
    },
    {
      "midi": 62,
      "hit": false,
      "t": 119999.88000000018,
      "d": 274.30528124999546,
      "v": 70
    },
    {
      "midi": 67,
      "hit": false,
      "t": 119999.88000000018,
      "d": 274.30528124999546,
      "v": 70
    },
    {
      "midi": 67,
      "hit": false,
      "t": 119999.88000000038,
      "d": 583.3327500000014,
      "v": 112
    },
    {
      "midi": 71,
      "hit": false,
      "t": 119999.88000000038,
      "d": 583.3327500000014,
      "v": 112
    },
    {
      "midi": 74,
      "hit": false,
      "t": 119999.88000000038,
      "d": 583.3327500000014,
      "v": 112
    },
    {
      "midi": 55,
      "hit": false,
      "t": 120333.21300000018,
      "d": 333.3329999999987,
      "v": 70
    },
    {
      "midi": 55,
      "hit": false,
      "t": 120666.54600000018,
      "d": 333.3329999999987,
      "v": 60
    },
    {
      "midi": 67,
      "hit": false,
      "t": 120666.54600000038,
      "d": 583.3327500000014,
      "v": 112
    },
    {
      "midi": 71,
      "hit": false,
      "t": 120666.54600000038,
      "d": 583.3327500000014,
      "v": 112
    },
    {
      "midi": 74,
      "hit": false,
      "t": 120666.54600000038,
      "d": 583.3327500000014,
      "v": 112
    },
    {
      "midi": 55,
      "hit": false,
      "t": 120999.87900000018,
      "d": 274.30528124999546,
      "v": 65
    },
    {
      "midi": 59,
      "hit": false,
      "t": 120999.87900000018,
      "d": 274.30528124999546,
      "v": 65
    },
    {
      "midi": 62,
      "hit": false,
      "t": 120999.87900000018,
      "d": 274.30528124999546,
      "v": 65
    },
    {
      "midi": 41,
      "hit": false,
      "t": 121333.21199999994,
      "d": 1249.9987499999988,
      "v": 112
    },
    {
      "midi": 53,
      "hit": false,
      "t": 121333.21200000017,
      "d": 1166.6655000000028,
      "v": 75
    },
    {
      "midi": 59,
      "hit": false,
      "t": 121333.21200000017,
      "d": 1166.6655000000028,
      "v": 75
    },
    {
      "midi": 62,
      "hit": false,
      "t": 121333.21200000017,
      "d": 1166.6655000000028,
      "v": 75
    },
    {
      "midi": 65,
      "hit": false,
      "t": 121333.21200000017,
      "d": 1166.6655000000028,
      "v": 75
    },
    {
      "midi": 69,
      "hit": false,
      "t": 121333.21200000017,
      "d": 1166.6655000000028,
      "v": 75
    },
    {
      "midi": 65,
      "hit": false,
      "t": 121333.21200000038,
      "d": 583.3327500000014,
      "v": 112
    },
    {
      "midi": 69,
      "hit": false,
      "t": 121333.21200000038,
      "d": 583.3327500000014,
      "v": 112
    },
    {
      "midi": 71,
      "hit": false,
      "t": 121333.21200000038,
      "d": 583.3327500000014,
      "v": 112
    },
    {
      "midi": 74,
      "hit": false,
      "t": 121333.21200000038,
      "d": 583.3327500000014,
      "v": 112
    },
    {
      "midi": 65,
      "hit": false,
      "t": 121999.87800000038,
      "d": 583.3327500000014,
      "v": 112
    },
    {
      "midi": 69,
      "hit": false,
      "t": 121999.87800000038,
      "d": 583.3327500000014,
      "v": 112
    },
    {
      "midi": 71,
      "hit": false,
      "t": 121999.87800000038,
      "d": 583.3327500000014,
      "v": 112
    },
    {
      "midi": 74,
      "hit": false,
      "t": 121999.87800000038,
      "d": 583.3327500000014,
      "v": 112
    },
    {
      "midi": 46,
      "hit": false,
      "t": 122666.54399999994,
      "d": 1916.6647499999963,
      "v": 112
    },
    {
      "midi": 46,
      "hit": false,
      "t": 122666.54400000018,
      "d": 1166.6655000000028,
      "v": 75
    },
    {
      "midi": 58,
      "hit": false,
      "t": 122666.54400000018,
      "d": 1166.6655000000028,
      "v": 75
    },
    {
      "midi": 62,
      "hit": false,
      "t": 122666.54400000018,
      "d": 1166.6655000000028,
      "v": 75
    },
    {
      "midi": 65,
      "hit": false,
      "t": 122666.54400000018,
      "d": 1166.6655000000028,
      "v": 75
    },
    {
      "midi": 70,
      "hit": false,
      "t": 122666.54400000018,
      "d": 1166.6655000000028,
      "v": 75
    },
    {
      "midi": 65,
      "hit": false,
      "t": 122666.54400000037,
      "d": 583.3327500000014,
      "v": 112
    },
    {
      "midi": 70,
      "hit": false,
      "t": 122666.54400000037,
      "d": 583.3327500000014,
      "v": 112
    },
    {
      "midi": 74,
      "hit": false,
      "t": 122666.54400000037,
      "d": 583.3327500000014,
      "v": 112
    },
    {
      "midi": 72,
      "hit": false,
      "t": 123333.21000000037,
      "d": 145.83318750000035,
      "v": 112
    },
    {
      "midi": 77,
      "hit": false,
      "t": 123333.21000000037,
      "d": 583.332750000016,
      "v": 112
    },
    {
      "midi": 74,
      "hit": false,
      "t": 123499.87650000038,
      "d": 145.83318750000035,
      "v": 112
    },
    {
      "midi": 70,
      "hit": false,
      "t": 123666.54300000038,
      "d": 291.6663750000007,
      "v": 112
    },
    {
      "midi": 46,
      "hit": false,
      "t": 123999.8760000002,
      "d": 552.0827812500065,
      "v": 70
    },
    {
      "midi": 58,
      "hit": false,
      "t": 123999.8760000002,
      "d": 552.0827812500065,
      "v": 70
    },
    {
      "midi": 62,
      "hit": false,
      "t": 123999.8760000002,
      "d": 552.0827812500065,
      "v": 70
    },
    {
      "midi": 65,
      "hit": false,
      "t": 123999.8760000002,
      "d": 552.0827812500065,
      "v": 70
    },
    {
      "midi": 70,
      "hit": false,
      "t": 123999.8760000002,
      "d": 552.0827812500065,
      "v": 70
    },
    {
      "midi": 72,
      "hit": false,
      "t": 123999.87600000038,
      "d": 145.83318750000035,
      "v": 112
    },
    {
      "midi": 77,
      "hit": false,
      "t": 123999.87600000038,
      "d": 583.332750000016,
      "v": 112
    },
    {
      "midi": 74,
      "hit": false,
      "t": 124166.54250000039,
      "d": 145.83318750000035,
      "v": 112
    },
    {
      "midi": 70,
      "hit": false,
      "t": 124333.2090000004,
      "d": 291.6663750000007,
      "v": 112
    },
    {
      "midi": 45,
      "hit": false,
      "t": 124666.54199999993,
      "d": 583.3327500000014,
      "v": 112
    },
    {
      "midi": 57,
      "hit": false,
      "t": 124666.5420000002,
      "d": 552.0827812500065,
      "v": 70
    },
    {
      "midi": 60,
      "hit": false,
      "t": 124666.5420000002,
      "d": 552.0827812500065,
      "v": 70
    },
    {
      "midi": 65,
      "hit": false,
      "t": 124666.5420000002,
      "d": 552.0827812500065,
      "v": 70
    },
    {
      "midi": 72,
      "hit": false,
      "t": 124666.5420000004,
      "d": 145.83318750000035,
      "v": 112
    },
    {
      "midi": 77,
      "hit": false,
      "t": 124666.5420000004,
      "d": 583.332750000016,
      "v": 112
    },
    {
      "midi": 74,
      "hit": false,
      "t": 124833.2085000004,
      "d": 145.83318750000035,
      "v": 112
    },
    {
      "midi": 70,
      "hit": false,
      "t": 124999.87500000041,
      "d": 291.6663750000007,
      "v": 112
    },
    {
      "midi": 43,
      "hit": false,
      "t": 125333.20799999993,
      "d": 1249.9987499999988,
      "v": 112
    },
    {
      "midi": 55,
      "hit": false,
      "t": 125333.20800000022,
      "d": 274.30528124999546,
      "v": 70
    },
    {
      "midi": 59,
      "hit": false,
      "t": 125333.20800000022,
      "d": 274.30528124999546,
      "v": 70
    },
    {
      "midi": 62,
      "hit": false,
      "t": 125333.20800000022,
      "d": 274.30528124999546,
      "v": 70
    },
    {
      "midi": 71,
      "hit": false,
      "t": 125333.2080000004,
      "d": 583.3327500000014,
      "v": 112
    },
    {
      "midi": 74,
      "hit": false,
      "t": 125333.2080000004,
      "d": 583.3327500000014,
      "v": 112
    },
    {
      "midi": 79,
      "hit": false,
      "t": 125333.2080000004,
      "d": 583.3327500000014,
      "v": 112
    },
    {
      "midi": 55,
      "hit": false,
      "t": 125666.54100000022,
      "d": 333.3329999999987,
      "v": 60
    },
    {
      "midi": 55,
      "hit": false,
      "t": 125999.87400000021,
      "d": 333.3329999999987,
      "v": 65
    },
    {
      "midi": 79,
      "hit": false,
      "t": 125999.8740000004,
      "d": 291.6663750000007,
      "v": 112
    },
    {
      "midi": 83,
      "hit": false,
      "t": 125999.8740000004,
      "d": 291.6663750000007,
      "v": 112
    },
    {
      "midi": 59,
      "hit": false,
      "t": 126333.20700000021,
      "d": 333.3329999999987,
      "v": 60
    },
    {
      "midi": 74,
      "hit": false,
      "t": 126333.2070000004,
      "d": 291.6663750000007,
      "v": 112
    },
    {
      "midi": 41,
      "hit": false,
      "t": 126666.53999999992,
      "d": 1249.9987499999988,
      "v": 112
    },
    {
      "midi": 55,
      "hit": false,
      "t": 126666.54000000021,
      "d": 274.30528124999546,
      "v": 70
    },
    {
      "midi": 59,
      "hit": false,
      "t": 126666.54000000021,
      "d": 274.30528124999546,
      "v": 70
    },
    {
      "midi": 62,
      "hit": false,
      "t": 126666.54000000021,
      "d": 274.30528124999546,
      "v": 70
    },
    {
      "midi": 79,
      "hit": false,
      "t": 126666.5400000004,
      "d": 291.6663750000007,
      "v": 112
    },
    {
      "midi": 83,
      "hit": false,
      "t": 126666.5400000004,
      "d": 291.6663750000007,
      "v": 112
    },
    {
      "midi": 53,
      "hit": false,
      "t": 126999.87300000021,
      "d": 333.3329999999987,
      "v": 60
    },
    {
      "midi": 74,
      "hit": false,
      "t": 126999.8730000004,
      "d": 291.6663750000007,
      "v": 112
    },
    {
      "midi": 55,
      "hit": false,
      "t": 127333.20600000021,
      "d": 333.3329999999987,
      "v": 65
    },
    {
      "midi": 79,
      "hit": false,
      "t": 127333.2060000004,
      "d": 291.6663750000007,
      "v": 112
    },
    {
      "midi": 83,
      "hit": false,
      "t": 127333.2060000004,
      "d": 291.6663750000007,
      "v": 112
    },
    {
      "midi": 59,
      "hit": false,
      "t": 127666.53900000021,
      "d": 333.3329999999987,
      "v": 60
    },
    {
      "midi": 74,
      "hit": false,
      "t": 127666.5390000004,
      "d": 291.6663750000007,
      "v": 112
    },
    {
      "midi": 40,
      "hit": false,
      "t": 127999.87199999992,
      "d": 1249.9987499999988,
      "v": 112
    },
    {
      "midi": 55,
      "hit": false,
      "t": 127999.8720000002,
      "d": 274.30528124999546,
      "v": 70
    },
    {
      "midi": 59,
      "hit": false,
      "t": 127999.8720000002,
      "d": 274.30528124999546,
      "v": 70
    },
    {
      "midi": 64,
      "hit": false,
      "t": 127999.8720000002,
      "d": 274.30528124999546,
      "v": 70
    },
    {
      "midi": 67,
      "hit": false,
      "t": 127999.8720000002,
      "d": 274.30528124999546,
      "v": 70
    },
    {
      "midi": 79,
      "hit": false,
      "t": 127999.8720000004,
      "d": 583.3327500000014,
      "v": 112
    },
    {
      "midi": 83,
      "hit": false,
      "t": 127999.8720000004,
      "d": 583.3327500000014,
      "v": 112
    },
    {
      "midi": 88,
      "hit": false,
      "t": 127999.8720000004,
      "d": 583.3327500000014,
      "v": 112
    },
    {
      "midi": 55,
      "hit": false,
      "t": 128666.5380000002,
      "d": 274.30528124999546,
      "v": 70
    },
    {
      "midi": 83,
      "hit": false,
      "t": 128666.5380000004,
      "d": 145.83318750000035,
      "v": 112
    },
    {
      "midi": 79,
      "hit": false,
      "t": 128833.2045000004,
      "d": 145.83318750000035,
      "v": 112
    },
    {
      "midi": 59,
      "hit": false,
      "t": 128999.8710000002,
      "d": 274.30528124999546,
      "v": 60
    },
    {
      "midi": 71,
      "hit": false,
      "t": 128999.8710000004,
      "d": 291.6663750000007,
      "v": 112
    },
    {
      "midi": 50,
      "hit": false,
      "t": 129333.20399999991,
      "d": 1249.9987499999988,
      "v": 112
    },
    {
      "midi": 50,
      "hit": false,
      "t": 129333.2040000002,
      "d": 552.0827812500065,
      "v": 70
    },
    {
      "midi": 55,
      "hit": false,
      "t": 129333.2040000002,
      "d": 552.0827812500065,
      "v": 70
    },
    {
      "midi": 59,
      "hit": false,
      "t": 129333.2040000002,
      "d": 552.0827812500065,
      "v": 70
    },
    {
      "midi": 62,
      "hit": false,
      "t": 129333.2040000002,
      "d": 552.0827812500065,
      "v": 70
    },
    {
      "midi": 67,
      "hit": false,
      "t": 129333.2040000002,
      "d": 552.0827812500065,
      "v": 70
    },
    {
      "midi": 79,
      "hit": false,
      "t": 129333.2040000004,
      "d": 291.6663750000007,
      "v": 112
    },
    {
      "midi": 74,
      "hit": false,
      "t": 129666.5370000004,
      "d": 291.6663750000007,
      "v": 112
    },
    {
      "midi": 57,
      "hit": false,
      "t": 129999.87000000021,
      "d": 552.0827812500065,
      "v": 70
    },
    {
      "midi": 60,
      "hit": false,
      "t": 129999.87000000021,
      "d": 552.0827812500065,
      "v": 70
    },
    {
      "midi": 65,
      "hit": false,
      "t": 129999.87000000021,
      "d": 552.0827812500065,
      "v": 70
    },
    {
      "midi": 69,
      "hit": false,
      "t": 129999.87000000021,
      "d": 552.0827812500065,
      "v": 70
    },
    {
      "midi": 74,
      "hit": false,
      "t": 129999.8700000004,
      "d": 145.83318750000035,
      "v": 112
    },
    {
      "midi": 77,
      "hit": false,
      "t": 129999.8700000004,
      "d": 145.83318750000035,
      "v": 112
    },
    {
      "midi": 83,
      "hit": false,
      "t": 129999.8700000004,
      "d": 145.83318750000035,
      "v": 112
    },
    {
      "midi": 72,
      "hit": false,
      "t": 130166.53650000041,
      "d": 437.49956250000105,
      "v": 112
    },
    {
      "midi": 77,
      "hit": false,
      "t": 130166.53650000041,
      "d": 437.49956250000105,
      "v": 112
    },
    {
      "midi": 81,
      "hit": false,
      "t": 130166.53650000041,
      "d": 437.49956250000105,
      "v": 112
    },
    {
      "midi": 48,
      "hit": false,
      "t": 130666.5359999999,
      "d": 1249.9987499999988,
      "v": 112
    },
    {
      "midi": 55,
      "hit": false,
      "t": 130666.53600000023,
      "d": 1166.6655000000028,
      "v": 75
    },
    {
      "midi": 60,
      "hit": false,
      "t": 130666.53600000023,
      "d": 1166.6655000000028,
      "v": 75
    },
    {
      "midi": 64,
      "hit": false,
      "t": 130666.53600000023,
      "d": 1166.6655000000028,
      "v": 75
    },
    {
      "midi": 74,
      "hit": false,
      "t": 130666.53600000041,
      "d": 583.3327499999868,
      "v": 112
    },
    {
      "midi": 76,
      "hit": false,
      "t": 130666.53600000041,
      "d": 583.3327499999868,
      "v": 112
    },
    {
      "midi": 79,
      "hit": false,
      "t": 130666.53600000041,
      "d": 583.3327499999868,
      "v": 112
    },
    {
      "midi": 67,
      "hit": false,
      "t": 131333.2020000004,
      "d": 583.3327500000014,
      "v": 112
    },
    {
      "midi": 69,
      "hit": false,
      "t": 131333.2020000004,
      "d": 583.3327500000014,
      "v": 112
    },
    {
      "midi": 72,
      "hit": false,
      "t": 131333.2020000004,
      "d": 583.3327500000014,
      "v": 112
    },
    {
      "midi": 69,
      "hit": false,
      "t": 131916.5347500004,
      "d": 72.91659375000745,
      "v": 112
    },
    {
      "midi": 43,
      "hit": false,
      "t": 131999.8679999999,
      "d": 916.6657499999856,
      "v": 112
    },
    {
      "midi": 55,
      "hit": false,
      "t": 131999.86800000022,
      "d": 274.30528125001,
      "v": 70
    },
    {
      "midi": 59,
      "hit": false,
      "t": 131999.86800000022,
      "d": 274.30528125001,
      "v": 70
    },
    {
      "midi": 62,
      "hit": false,
      "t": 131999.86800000022,
      "d": 274.30528125001,
      "v": 70
    },
    {
      "midi": 67,
      "hit": false,
      "t": 131999.86800000022,
      "d": 274.30528125001,
      "v": 70
    },
    {
      "midi": 71,
      "hit": false,
      "t": 131999.8680000004,
      "d": 583.3327500000014,
      "v": 112
    },
    {
      "midi": 74,
      "hit": false,
      "t": 131999.8680000004,
      "d": 583.3327500000014,
      "v": 112
    },
    {
      "midi": 69,
      "hit": false,
      "t": 132583.2007500004,
      "d": 72.91659375000745,
      "v": 112
    },
    {
      "midi": 55,
      "hit": false,
      "t": 132666.53400000022,
      "d": 274.30528125001,
      "v": 70
    },
    {
      "midi": 71,
      "hit": false,
      "t": 132666.5340000004,
      "d": 583.3327500000014,
      "v": 112
    },
    {
      "midi": 74,
      "hit": false,
      "t": 132666.5340000004,
      "d": 583.3327500000014,
      "v": 112
    },
    {
      "midi": 47,
      "hit": false,
      "t": 132999.86699999988,
      "d": 291.6663750000007,
      "v": 112
    },
    {
      "midi": 59,
      "hit": false,
      "t": 132999.86700000023,
      "d": 274.30528125001,
      "v": 60
    },
    {
      "midi": 74,
      "hit": false,
      "t": 133249.8667500004,
      "d": 72.91659375000745,
      "v": 112
    },
    {
      "midi": 48,
      "hit": false,
      "t": 133333.1999999999,
      "d": 916.6657499999856,
      "v": 112
    },
    {
      "midi": 55,
      "hit": false,
      "t": 133333.20000000024,
      "d": 1166.6655000000028,
      "v": 75
    },
    {
      "midi": 60,
      "hit": false,
      "t": 133333.20000000024,
      "d": 1166.6655000000028,
      "v": 75
    },
    {
      "midi": 64,
      "hit": false,
      "t": 133333.20000000024,
      "d": 1166.6655000000028,
      "v": 75
    },
    {
      "midi": 67,
      "hit": false,
      "t": 133333.20000000024,
      "d": 1166.6655000000028,
      "v": 75
    },
    {
      "midi": 76,
      "hit": false,
      "t": 133333.2000000004,
      "d": 145.8331874999858,
      "v": 112
    },
    {
      "midi": 79,
      "hit": false,
      "t": 133333.2000000004,
      "d": 145.8331874999858,
      "v": 112
    },
    {
      "midi": 74,
      "hit": false,
      "t": 133499.86650000038,
      "d": 145.8331874999858,
      "v": 112
    },
    {
      "midi": 72,
      "hit": false,
      "t": 133666.53300000037,
      "d": 145.8331874999858,
      "v": 112
    },
    {
      "midi": 72,
      "hit": false,
      "t": 133833.19950000037,
      "d": 749.9992499999935,
      "v": 112
    },
    {
      "midi": 76,
      "hit": false,
      "t": 133833.19950000037,
      "d": 749.9992499999935,
      "v": 112
    },
    {
      "midi": 79,
      "hit": false,
      "t": 133833.19950000037,
      "d": 749.9992499999935,
      "v": 112
    },
    {
      "midi": 50,
      "hit": false,
      "t": 134333.19899999988,
      "d": 291.6663750000007,
      "v": 112
    },
    {
      "midi": 69,
      "hit": false,
      "t": 134583.19875000036,
      "d": 72.91659375000745,
      "v": 112
    },
    {
      "midi": 43,
      "hit": false,
      "t": 134666.5319999999,
      "d": 916.6657499999856,
      "v": 112
    },
    {
      "midi": 55,
      "hit": false,
      "t": 134666.53200000024,
      "d": 1166.6655000000028,
      "v": 75
    },
    {
      "midi": 59,
      "hit": false,
      "t": 134666.53200000024,
      "d": 1166.6655000000028,
      "v": 75
    },
    {
      "midi": 62,
      "hit": false,
      "t": 134666.53200000024,
      "d": 1166.6655000000028,
      "v": 75
    },
    {
      "midi": 71,
      "hit": false,
      "t": 134666.53200000036,
      "d": 583.3327500000014,
      "v": 112
    },
    {
      "midi": 74,
      "hit": false,
      "t": 134666.53200000036,
      "d": 583.3327500000014,
      "v": 112
    },
    {
      "midi": 69,
      "hit": false,
      "t": 135249.86475000036,
      "d": 72.91659375000745,
      "v": 112
    },
    {
      "midi": 71,
      "hit": false,
      "t": 135333.19800000035,
      "d": 583.3327500000014,
      "v": 112
    },
    {
      "midi": 74,
      "hit": false,
      "t": 135333.19800000035,
      "d": 583.3327500000014,
      "v": 112
    },
    {
      "midi": 47,
      "hit": false,
      "t": 135666.53099999987,
      "d": 291.6663750000007,
      "v": 112
    },
    {
      "midi": 74,
      "hit": false,
      "t": 135916.53075000035,
      "d": 72.91659375000745,
      "v": 112
    },
    {
      "midi": 48,
      "hit": false,
      "t": 135999.86399999988,
      "d": 583.3327500000014,
      "v": 112
    },
    {
      "midi": 55,
      "hit": false,
      "t": 135999.86400000023,
      "d": 274.30528125001,
      "v": 70
    },
    {
      "midi": 60,
      "hit": false,
      "t": 135999.86400000023,
      "d": 274.30528125001,
      "v": 70
    },
    {
      "midi": 64,
      "hit": false,
      "t": 135999.86400000023,
      "d": 274.30528125001,
      "v": 70
    },
    {
      "midi": 76,
      "hit": false,
      "t": 135999.86400000035,
      "d": 145.8331874999858,
      "v": 112
    },
    {
      "midi": 79,
      "hit": false,
      "t": 135999.86400000035,
      "d": 145.8331874999858,
      "v": 112
    },
    {
      "midi": 74,
      "hit": false,
      "t": 136166.53050000034,
      "d": 145.8331874999858,
      "v": 112
    },
    {
      "midi": 72,
      "hit": false,
      "t": 136333.19700000033,
      "d": 145.8331874999858,
      "v": 112
    },
    {
      "midi": 72,
      "hit": false,
      "t": 136499.86350000033,
      "d": 749.9992499999935,
      "v": 112
    },
    {
      "midi": 76,
      "hit": false,
      "t": 136499.86350000033,
      "d": 749.9992499999935,
      "v": 112
    },
    {
      "midi": 79,
      "hit": false,
      "t": 136499.86350000033,
      "d": 749.9992499999935,
      "v": 112
    },
    {
      "midi": 48,
      "hit": false,
      "t": 136666.52999999988,
      "d": 145.8331874999858,
      "v": 112
    },
    {
      "midi": 55,
      "hit": false,
      "t": 136666.53000000023,
      "d": 274.30528125001,
      "v": 70
    },
    {
      "midi": 47,
      "hit": false,
      "t": 136833.19649999987,
      "d": 145.8331874999858,
      "v": 112
    },
    {
      "midi": 45,
      "hit": false,
      "t": 136999.86299999987,
      "d": 291.6663750000007,
      "v": 112
    },
    {
      "midi": 60,
      "hit": false,
      "t": 136999.86300000024,
      "d": 274.30528125001,
      "v": 60
    },
    {
      "midi": 43,
      "hit": false,
      "t": 137333.19599999988,
      "d": 2583.3307499999937,
      "v": 112
    },
    {
      "midi": 55,
      "hit": false,
      "t": 137333.19599999988,
      "d": 2583.3307499999937,
      "v": 112
    },
    {
      "midi": 55,
      "hit": false,
      "t": 137333.19600000026,
      "d": 1166.6655000000028,
      "v": 70
    },
    {
      "midi": 59,
      "hit": false,
      "t": 137333.19600000026,
      "d": 1166.6655000000028,
      "v": 70
    },
    {
      "midi": 62,
      "hit": false,
      "t": 137333.19600000026,
      "d": 1166.6655000000028,
      "v": 70
    },
    {
      "midi": 71,
      "hit": false,
      "t": 137333.19600000032,
      "d": 2583.3307499999937,
      "v": 112
    },
    {
      "midi": 74,
      "hit": false,
      "t": 137333.19600000032,
      "d": 2583.3307499999937,
      "v": 112
    },
    {
      "midi": 79,
      "hit": false,
      "t": 137333.19600000032,
      "d": 2583.3307499999937,
      "v": 112
    },
    {
      "midi": 83,
      "hit": false,
      "t": 137333.19600000032,
      "d": 2583.3307499999937,
      "v": 112
    }
  ]
}