{
  "jsonPath": "Unknown/Unknown/Ivete Sangalo  Alejandro Sanz/corazon-partio.json",
  "path": "Unknown\\Unknown\\Ivete Sangalo  Alejandro Sanz\\Corazón Partío.mid",
  "name": "Corazón Partío",
  "difficulty": "Advanced",
  "bpm": 80,
  "notes": [
    {
      "midi": 60,
      "hit": false,
      "t": 6000,
      "d": 562.5,
      "v": 110
    },
    {
      "midi": 48,
      "hit": false,
      "t": 6000,
      "d": 1500,
      "v": 110
    },
    {
      "midi": 53,
      "hit": false,
      "t": 6000,
      "d": 1500,
      "v": 110
    },
    {
      "midi": 57,
      "hit": false,
      "t": 6000,
      "d": 1500,
      "v": 110
    },
    {
      "midi": 41,
      "hit": false,
      "t": 6000,
      "d": 2625,
      "v": 110
    },
    {
      "midi": 55,
      "hit": false,
      "t": 6012.5,
      "d": 1500,
      "v": 110
    },
    {
      "midi": 65,
      "hit": false,
      "t": 6562.5,
      "d": 1312.5,
      "v": 110
    },
    {
      "midi": 64,
      "hit": false,
      "t": 7875,
      "d": 562.5,
      "v": 110
    },
    {
      "midi": 60,
      "hit": false,
      "t": 8437.5,
      "d": 562.5,
      "v": 110
    },
    {
      "midi": 62,
      "hit": false,
      "t": 9000,
      "d": 2062.5,
      "v": 110
    },
    {
      "midi": 55,
      "hit": false,
      "t": 9000,
      "d": 2250,
      "v": 110
    },
    {
      "midi": 57,
      "hit": false,
      "t": 9000,
      "d": 2250,
      "v": 110
    },
    {
      "midi": 43,
      "hit": false,
      "t": 9000,
      "d": 2812.5,
      "v": 110
    },
    {
      "midi": 58,
      "hit": false,
      "t": 9012.5,
      "d": 681.25,
      "v": 110
    },
    {
      "midi": 55,
      "hit": false,
      "t": 12000,
      "d": 2250,
      "v": 99
    },
    {
      "midi": 60,
      "hit": false,
      "t": 12000,
      "d": 2250,
      "v": 95
    },
    {
      "midi": 48,
      "hit": false,
      "t": 12000,
      "d": 3000,
      "v": 110
    },
    {
      "midi": 58,
      "hit": false,
      "t": 12006.25,
      "d": 606.25,
      "v": 110
    },
    {
      "midi": 65,
      "hit": false,
      "t": 12562.5,
      "d": 562.5,
      "v": 110
    },
    {
      "midi": 64,
      "hit": false,
      "t": 13125,
      "d": 562.5,
      "v": 110
    },
    {
      "midi": 70,
      "hit": false,
      "t": 13875,
      "d": 562.5,
      "v": 110
    },
    {
      "midi": 72,
      "hit": false,
      "t": 14437.5,
      "d": 562.5,
      "v": 110
    },
    {
      "midi": 67,
      "hit": false,
      "t": 15000,
      "d": 187.5,
      "v": 100
    },
    {
      "midi": 48,
      "hit": false,
      "t": 15000,
      "d": 1500,
      "v": 110
    },
    {
      "midi": 53,
      "hit": false,
      "t": 15000,
      "d": 1500,
      "v": 110
    },
    {
      "midi": 55,
      "hit": false,
      "t": 15000,
      "d": 1500,
      "v": 110
    },
    {
      "midi": 57,
      "hit": false,
      "t": 15000,
      "d": 1500,
      "v": 110
    },
    {
      "midi": 41,
      "hit": false,
      "t": 15000,
      "d": 2437.5,
      "v": 110
    },
    {
      "midi": 69,
      "hit": false,
      "t": 15187.5,
      "d": 937.5,
      "v": 100
    },
    {
      "midi": 53,
      "hit": false,
      "t": 18000,
      "d": 1312.5,
      "v": 110
    },
    {
      "midi": 55,
      "hit": false,
      "t": 18000,
      "d": 1312.5,
      "v": 110
    },
    {
      "midi": 57,
      "hit": false,
      "t": 18000,
      "d": 1312.5,
      "v": 110
    },
    {
      "midi": 60,
      "hit": false,
      "t": 18000,
      "d": 1312.5,
      "v": 109
    },
    {
      "midi": 77,
      "hit": false,
      "t": 18000,
      "d": 1875,
      "v": 110
    },
    {
      "midi": 76,
      "hit": false,
      "t": 19875,
      "d": 562.5,
      "v": 110
    },
    {
      "midi": 72,
      "hit": false,
      "t": 20437.5,
      "d": 562.5,
      "v": 110
    },
    {
      "midi": 70,
      "hit": false,
      "t": 21000,
      "d": 750,
      "v": 110
    },
    {
      "midi": 55,
      "hit": false,
      "t": 21000,
      "d": 1312.5,
      "v": 97
    },
    {
      "midi": 57,
      "hit": false,
      "t": 21000,
      "d": 1312.5,
      "v": 110
    },
    {
      "midi": 58,
      "hit": false,
      "t": 21000,
      "d": 1312.5,
      "v": 110
    },
    {
      "midi": 62,
      "hit": false,
      "t": 21000,
      "d": 1312.5,
      "v": 110
    },
    {
      "midi": 77,
      "hit": false,
      "t": 21562.5,
      "d": 1687.5,
      "v": 105
    },
    {
      "midi": 70,
      "hit": false,
      "t": 24000,
      "d": 562.5,
      "v": 110
    },
    {
      "midi": 55,
      "hit": false,
      "t": 24000,
      "d": 937.5,
      "v": 110
    },
    {
      "midi": 58,
      "hit": false,
      "t": 24000,
      "d": 937.5,
      "v": 110
    },
    {
      "midi": 60,
      "hit": false,
      "t": 24000,
      "d": 937.5,
      "v": 110
    },
    {
      "midi": 62,
      "hit": false,
      "t": 24000,
      "d": 937.5,
      "v": 110
    },
    {
      "midi": 77,
      "hit": false,
      "t": 24562.5,
      "d": 562.5,
      "v": 110
    },
    {
      "midi": 76,
      "hit": false,
      "t": 25125,
      "d": 937.5,
      "v": 110
    },
    {
      "midi": 70,
      "hit": false,
      "t": 26062.5,
      "d": 375,
      "v": 110
    },
    {
      "midi": 72,
      "hit": false,
      "t": 26437.5,
      "d": 562.5,
      "v": 101
    },
    {
      "midi": 53,
      "hit": false,
      "t": 27000,
      "d": 750,
      "v": 107
    },
    {
      "midi": 55,
      "hit": false,
      "t": 27000,
      "d": 750,
      "v": 104
    },
    {
      "midi": 57,
      "hit": false,
      "t": 27000,
      "d": 750,
      "v": 110
    },
    {
      "midi": 60,
      "hit": false,
      "t": 27000,
      "d": 750,
      "v": 110
    },
    {
      "midi": 69,
      "hit": false,
      "t": 27000,
      "d": 1968.75,
      "v": 107
    },
    {
      "midi": 41,
      "hit": false,
      "t": 30000,
      "d": 1125,
      "v": 108
    },
    {
      "midi": 57,
      "hit": false,
      "t": 30000,
      "d": 1125,
      "v": 90
    },
    {
      "midi": 60,
      "hit": false,
      "t": 30000,
      "d": 1125,
      "v": 95
    },
    {
      "midi": 53,
      "hit": false,
      "t": 30000,
      "d": 2625,
      "v": 94
    },
    {
      "midi": 41,
      "hit": false,
      "t": 31500,
      "d": 1125,
      "v": 108
    },
    {
      "midi": 57,
      "hit": false,
      "t": 31500,
      "d": 1125,
      "v": 96
    },
    {
      "midi": 61,
      "hit": false,
      "t": 31500,
      "d": 1125,
      "v": 104
    },
    {
      "midi": 53,
      "hit": false,
      "t": 33000,
      "d": 750,
      "v": 59
    },
    {
      "midi": 57,
      "hit": false,
      "t": 33000,
      "d": 750,
      "v": 89
    },
    {
      "midi": 60,
      "hit": false,
      "t": 33000,
      "d": 750,
      "v": 92
    },
    {
      "midi": 62,
      "hit": false,
      "t": 33000,
      "d": 750,
      "v": 88
    },
    {
      "midi": 41,
      "hit": false,
      "t": 33000,
      "d": 1500,
      "v": 94
    },
    {
      "midi": 62,
      "hit": false,
      "t": 34500,
      "d": 1125,
      "v": 96
    },
    {
      "midi": 65,
      "hit": false,
      "t": 34500,
      "d": 1218.75,
      "v": 97
    },
    {
      "midi": 59,
      "hit": false,
      "t": 34500,
      "d": 1312.5,
      "v": 94
    },
    {
      "midi": 47,
      "hit": false,
      "t": 34500,
      "d": 1500,
      "v": 104
    },
    {
      "midi": 57,
      "hit": false,
      "t": 36000,
      "d": 2250,
      "v": 64
    },
    {
      "midi": 60,
      "hit": false,
      "t": 36000,
      "d": 2250,
      "v": 99
    },
    {
      "midi": 64,
      "hit": false,
      "t": 36000,
      "d": 2250,
      "v": 98
    },
    {
      "midi": 45,
      "hit": false,
      "t": 36000,
      "d": 3000,
      "v": 103
    },
    {
      "midi": 62,
      "hit": false,
      "t": 39000,
      "d": 1125,
      "v": 98
    },
    {
      "midi": 43,
      "hit": false,
      "t": 39000,
      "d": 1500,
      "v": 97
    },
    {
      "midi": 55,
      "hit": false,
      "t": 39000,
      "d": 1500,
      "v": 96
    },
    {
      "midi": 58,
      "hit": false,
      "t": 39000,
      "d": 1500,
      "v": 88
    },
    {
      "midi": 55,
      "hit": false,
      "t": 40500,
      "d": 1125,
      "v": 90
    },
    {
      "midi": 60,
      "hit": false,
      "t": 40500,
      "d": 1125,
      "v": 98
    },
    {
      "midi": 64,
      "hit": false,
      "t": 40500,
      "d": 1125,
      "v": 61
    },
    {
      "midi": 48,
      "hit": false,
      "t": 40500,
      "d": 1312.5,
      "v": 104
    },
    {
      "midi": 58,
      "hit": false,
      "t": 41250,
      "d": 375,
      "v": 101
    },
    {
      "midi": 60,
      "hit": false,
      "t": 42000,
      "d": 937.5,
      "v": 55
    },
    {
      "midi": 53,
      "hit": false,
      "t": 42000,
      "d": 1031.25,
      "v": 99
    },
    {
      "midi": 57,
      "hit": false,
      "t": 42000,
      "d": 1125,
      "v": 94
    },
    {
      "midi": 41,
      "hit": false,
      "t": 42000,
      "d": 1312.5,
      "v": 108
    },
    {
      "midi": 41,
      "hit": false,
      "t": 43500,
      "d": 1125,
      "v": 104
    },
    {
      "midi": 57,
      "hit": false,
      "t": 43500,
      "d": 1125,
      "v": 88
    },
    {
      "midi": 61,
      "hit": false,
      "t": 43500,
      "d": 1125,
      "v": 99
    },
    {
      "midi": 53,
      "hit": false,
      "t": 43500,
      "d": 1500,
      "v": 82
    },
    {
      "midi": 53,
      "hit": false,
      "t": 45000,
      "d": 750,
      "v": 88
    },
    {
      "midi": 57,
      "hit": false,
      "t": 45000,
      "d": 750,
      "v": 92
    },
    {
      "midi": 60,
      "hit": false,
      "t": 45000,
      "d": 750,
      "v": 88
    },
    {
      "midi": 62,
      "hit": false,
      "t": 45000,
      "d": 750,
      "v": 93
    },
    {
      "midi": 41,
      "hit": false,
      "t": 45000,
      "d": 1500,
      "v": 103
    },
    {
      "midi": 59,
      "hit": false,
      "t": 46500,
      "d": 1125,
      "v": 83
    },
    {
      "midi": 62,
      "hit": false,
      "t": 46500,
      "d": 1125,
      "v": 98
    },
    {
      "midi": 65,
      "hit": false,
      "t": 46500,
      "d": 1125,
      "v": 100
    },
    {
      "midi": 47,
      "hit": false,
      "t": 46500,
      "d": 1312.5,
      "v": 104
    },
    {
      "midi": 57,
      "hit": false,
      "t": 48000,
      "d": 2250,
      "v": 74
    },
    {
      "midi": 60,
      "hit": false,
      "t": 48000,
      "d": 2250,
      "v": 91
    },
    {
      "midi": 64,
      "hit": false,
      "t": 48000,
      "d": 2250,
      "v": 78
    },
    {
      "midi": 45,
      "hit": false,
      "t": 48000,
      "d": 2625,
      "v": 104
    },
    {
      "midi": 58,
      "hit": false,
      "t": 51000,
      "d": 1125,
      "v": 96
    },
    {
      "midi": 62,
      "hit": false,
      "t": 51000,
      "d": 1125,
      "v": 97
    },
    {
      "midi": 43,
      "hit": false,
      "t": 51000,
      "d": 1500,
      "v": 95
    },
    {
      "midi": 55,
      "hit": false,
      "t": 51000,
      "d": 2906.25,
      "v": 93
    },
    {
      "midi": 48,
      "hit": false,
      "t": 52500,
      "d": 750,
      "v": 88
    },
    {
      "midi": 60,
      "hit": false,
      "t": 52500,
      "d": 1406.25,
      "v": 87
    },
    {
      "midi": 64,
      "hit": false,
      "t": 52500,
      "d": 1406.25,
      "v": 90
    },
    {
      "midi": 46,
      "hit": false,
      "t": 53250,
      "d": 750,
      "v": 89
    },
    {
      "midi": 45,
      "hit": false,
      "t": 54000,
      "d": 750,
      "v": 102
    },
    {
      "midi": 52,
      "hit": false,
      "t": 54000,
      "d": 750,
      "v": 89
    },
    {
      "midi": 57,
      "hit": false,
      "t": 54000,
      "d": 1125,
      "v": 86
    },
    {
      "midi": 60,
      "hit": false,
      "t": 54000,
      "d": 1406.25,
      "v": 93
    },
    {
      "midi": 51,
      "hit": false,
      "t": 54750,
      "d": 750,
      "v": 89
    },
    {
      "midi": 55,
      "hit": false,
      "t": 55500,
      "d": 1500,
      "v": 90
    },
    {
      "midi": 50,
      "hit": false,
      "t": 55500,
      "d": 2250,
      "v": 110
    },
    {
      "midi": 60,
      "hit": false,
      "t": 55500,
      "d": 2250,
      "v": 87
    },
    {
      "midi": 54,
      "hit": false,
      "t": 57000,
      "d": 750,
      "v": 101
    },
    {
      "midi": 60,
      "hit": false,
      "t": 58500,
      "d": 187.5,
      "v": 120
    },
    {
      "midi": 62,
      "hit": false,
      "t": 58500,
      "d": 1125,
      "v": 88
    },
    {
      "midi": 58,
      "hit": false,
      "t": 58687.5,
      "d": 187.5,
      "v": 120
    },
    {
      "midi": 57,
      "hit": false,
      "t": 58875,
      "d": 187.5,
      "v": 120
    },
    {
      "midi": 65,
      "hit": false,
      "t": 59062.5,
      "d": 375,
      "v": 110
    },
    {
      "midi": 72,
      "hit": false,
      "t": 59437.5,
      "d": 187.5,
      "v": 120
    },
    {
      "midi": 70,
      "hit": false,
      "t": 59625,
      "d": 187.5,
      "v": 109
    },
    {
      "midi": 69,
      "hit": false,
      "t": 59812.5,
      "d": 187.5,
      "v": 100
    },
    {
      "midi": 77,
      "hit": false,
      "t": 60000,
      "d": 750,
      "v": 104
    },
    {
      "midi": 60,
      "hit": false,
      "t": 60000,
      "d": 1500,
      "v": 80
    },
    {
      "midi": 84,
      "hit": false,
      "t": 60187.5,
      "d": 187.5,
      "v": 101
    },
    {
      "midi": 82,
      "hit": false,
      "t": 60375,
      "d": 187.5,
      "v": 96
    },
    {
      "midi": 81,
      "hit": false,
      "t": 60562.5,
      "d": 187.5,
      "v": 89
    },
    {
      "midi": 89,
      "hit": false,
      "t": 60750,
      "d": 750,
      "v": 88
    },
    {
      "midi": 60,
      "hit": false,
      "t": 61500,
      "d": 937.5,
      "v": 103
    },
    {
      "midi": 57,
      "hit": false,
      "t": 61500,
      "d": 1125,
      "v": 93
    },
    {
      "midi": 53,
      "hit": false,
      "t": 61500,
      "d": 2625,
      "v": 102
    },
    {
      "midi": 61,
      "hit": false,
      "t": 63000,
      "d": 1125,
      "v": 109
    },
    {
      "midi": 53,
      "hit": false,
      "t": 64500,
      "d": 937.5,
      "v": 95
    },
    {
      "midi": 60,
      "hit": false,
      "t": 64500,
      "d": 937.5,
      "v": 95
    },
    {
      "midi": 62,
      "hit": false,
      "t": 64500,
      "d": 937.5,
      "v": 97
    },
    {
      "midi": 57,
      "hit": false,
      "t": 66000,
      "d": 937.5,
      "v": 83
    },
    {
      "midi": 59,
      "hit": false,
      "t": 66000,
      "d": 937.5,
      "v": 82
    },
    {
      "midi": 62,
      "hit": false,
      "t": 66000,
      "d": 937.5,
      "v": 95
    },
    {
      "midi": 65,
      "hit": false,
      "t": 66000,
      "d": 937.5,
      "v": 99
    },
    {
      "midi": 57,
      "hit": false,
      "t": 67500,
      "d": 2250,
      "v": 87
    },
    {
      "midi": 60,
      "hit": false,
      "t": 67500,
      "d": 2250,
      "v": 99
    },
    {
      "midi": 64,
      "hit": false,
      "t": 67500,
      "d": 2250,
      "v": 99
    },
    {
      "midi": 55,
      "hit": false,
      "t": 70500,
      "d": 1125,
      "v": 99
    },
    {
      "midi": 62,
      "hit": false,
      "t": 70500,
      "d": 1125,
      "v": 84
    },
    {
      "midi": 58,
      "hit": false,
      "t": 70500,
      "d": 2437.5,
      "v": 108
    },
    {
      "midi": 52,
      "hit": false,
      "t": 72000,
      "d": 937.5,
      "v": 116
    },
    {
      "midi": 60,
      "hit": false,
      "t": 72000,
      "d": 937.5,
      "v": 85
    },
    {
      "midi": 60,
      "hit": false,
      "t": 73500,
      "d": 1125,
      "v": 95
    },
    {
      "midi": 57,
      "hit": false,
      "t": 73500,
      "d": 1312.5,
      "v": 96
    },
    {
      "midi": 53,
      "hit": false,
      "t": 73500,
      "d": 2625,
      "v": 97
    },
    {
      "midi": 57,
      "hit": false,
      "t": 75000,
      "d": 937.5,
      "v": 70
    },
    {
      "midi": 61,
      "hit": false,
      "t": 75000,
      "d": 937.5,
      "v": 104
    },
    {
      "midi": 53,
      "hit": false,
      "t": 76500,
      "d": 750,
      "v": 88
    },
    {
      "midi": 57,
      "hit": false,
      "t": 76500,
      "d": 937.5,
      "v": 92
    },
    {
      "midi": 60,
      "hit": false,
      "t": 76500,
      "d": 937.5,
      "v": 93
    },
    {
      "midi": 62,
      "hit": false,
      "t": 76500,
      "d": 937.5,
      "v": 96
    },
    {
      "midi": 59,
      "hit": false,
      "t": 78000,
      "d": 937.5,
      "v": 77
    },
    {
      "midi": 62,
      "hit": false,
      "t": 78000,
      "d": 937.5,
      "v": 99
    },
    {
      "midi": 65,
      "hit": false,
      "t": 78000,
      "d": 937.5,
      "v": 117
    },
    {
      "midi": 64,
      "hit": false,
      "t": 79500,
      "d": 2250,
      "v": 94
    },
    {
      "midi": 57,
      "hit": false,
      "t": 79500,
      "d": 2437.5,
      "v": 99
    },
    {
      "midi": 60,
      "hit": false,
      "t": 79500,
      "d": 2437.5,
      "v": 104
    },
    {
      "midi": 55,
      "hit": false,
      "t": 82500,
      "d": 1125,
      "v": 108
    },
    {
      "midi": 58,
      "hit": false,
      "t": 82500,
      "d": 1125,
      "v": 103
    },
    {
      "midi": 62,
      "hit": false,
      "t": 82500,
      "d": 1125,
      "v": 108
    },
    {
      "midi": 55,
      "hit": false,
      "t": 84000,
      "d": 1125,
      "v": 76
    },
    {
      "midi": 60,
      "hit": false,
      "t": 84000,
      "d": 1312.5,
      "v": 97
    },
    {
      "midi": 64,
      "hit": false,
      "t": 84000,
      "d": 1312.5,
      "v": 88
    },
    {
      "midi": 57,
      "hit": false,
      "t": 85500,
      "d": 1125,
      "v": 108
    },
    {
      "midi": 60,
      "hit": false,
      "t": 85500,
      "d": 1125,
      "v": 91
    },
    {
      "midi": 64,
      "hit": false,
      "t": 85500,
      "d": 1125,
      "v": 76
    },
    {
      "midi": 55,
      "hit": false,
      "t": 87000,
      "d": 937.5,
      "v": 89
    },
    {
      "midi": 57,
      "hit": false,
      "t": 87000,
      "d": 937.5,
      "v": 90
    },
    {
      "midi": 62,
      "hit": false,
      "t": 87000,
      "d": 937.5,
      "v": 87
    },
    {
      "midi": 53,
      "hit": false,
      "t": 90000,
      "d": 1500,
      "v": 110
    },
    {
      "midi": 55,
      "hit": false,
      "t": 90000,
      "d": 1500,
      "v": 104
    },
    {
      "midi": 58,
      "hit": false,
      "t": 90000,
      "d": 1500,
      "v": 112
    },
    {
      "midi": 62,
      "hit": false,
      "t": 90000,
      "d": 1500,
      "v": 97
    },
    {
      "midi": 53,
      "hit": false,
      "t": 92250,
      "d": 750,
      "v": 83
    },
    {
      "midi": 55,
      "hit": false,
      "t": 92250,
      "d": 750,
      "v": 112
    },
    {
      "midi": 58,
      "hit": false,
      "t": 92250,
      "d": 750,
      "v": 110
    },
    {
      "midi": 62,
      "hit": false,
      "t": 92250,
      "d": 750,
      "v": 96
    },
    {
      "midi": 52,
      "hit": false,
      "t": 93000,
      "d": 750,
      "v": 110
    },
    {
      "midi": 55,
      "hit": false,
      "t": 93000,
      "d": 750,
      "v": 108
    },
    {
      "midi": 58,
      "hit": false,
      "t": 93000,
      "d": 750,
      "v": 100
    },
    {
      "midi": 60,
      "hit": false,
      "t": 93000,
      "d": 750,
      "v": 109
    },
    {
      "midi": 55,
      "hit": false,
      "t": 95250,
      "d": 750,
      "v": 89
    },
    {
      "midi": 58,
      "hit": false,
      "t": 95250,
      "d": 750,
      "v": 104
    },
    {
      "midi": 60,
      "hit": false,
      "t": 95250,
      "d": 750,
      "v": 101
    },
    {
      "midi": 64,
      "hit": false,
      "t": 95250,
      "d": 750,
      "v": 112
    },
    {
      "midi": 57,
      "hit": false,
      "t": 96000,
      "d": 1500,
      "v": 111
    },
    {
      "midi": 60,
      "hit": false,
      "t": 96000,
      "d": 1500,
      "v": 108
    },
    {
      "midi": 64,
      "hit": false,
      "t": 96000,
      "d": 1500,
      "v": 79
    },
    {
      "midi": 55,
      "hit": false,
      "t": 98250,
      "d": 750,
      "v": 101
    },
    {
      "midi": 57,
      "hit": false,
      "t": 98250,
      "d": 750,
      "v": 108
    },
    {
      "midi": 60,
      "hit": false,
      "t": 98250,
      "d": 750,
      "v": 91
    },
    {
      "midi": 64,
      "hit": false,
      "t": 98250,
      "d": 750,
      "v": 103
    },
    {
      "midi": 54,
      "hit": false,
      "t": 99000,
      "d": 1500,
      "v": 109
    },
    {
      "midi": 57,
      "hit": false,
      "t": 99000,
      "d": 1500,
      "v": 118
    },
    {
      "midi": 60,
      "hit": false,
      "t": 99000,
      "d": 1500,
      "v": 100
    },
    {
      "midi": 63,
      "hit": false,
      "t": 99000,
      "d": 1500,
      "v": 109
    },
    {
      "midi": 62,
      "hit": false,
      "t": 100687.5,
      "d": 187.5,
      "v": 73
    },
    {
      "midi": 67,
      "hit": false,
      "t": 100687.5,
      "d": 187.5,
      "v": 96
    },
    {
      "midi": 66,
      "hit": false,
      "t": 100875,
      "d": 187.5,
      "v": 86
    },
    {
      "midi": 62,
      "hit": false,
      "t": 101062.5,
      "d": 187.5,
      "v": 73
    },
    {
      "midi": 67,
      "hit": false,
      "t": 101062.5,
      "d": 187.5,
      "v": 84
    },
    {
      "midi": 66,
      "hit": false,
      "t": 101250,
      "d": 187.5,
      "v": 74
    },
    {
      "midi": 63,
      "hit": false,
      "t": 101437.5,
      "d": 187.5,
      "v": 71
    },
    {
      "midi": 60,
      "hit": false,
      "t": 101625,
      "d": 187.5,
      "v": 68
    },
    {
      "midi": 57,
      "hit": false,
      "t": 101812.5,
      "d": 187.5,
      "v": 68
    },
    {
      "midi": 53,
      "hit": false,
      "t": 102000,
      "d": 750,
      "v": 78
    },
    {
      "midi": 55,
      "hit": false,
      "t": 102000,
      "d": 1500,
      "v": 69
    },
    {
      "midi": 58,
      "hit": false,
      "t": 102000,
      "d": 1500,
      "v": 101
    },
    {
      "midi": 62,
      "hit": false,
      "t": 102000,
      "d": 1500,
      "v": 73
    },
    {
      "midi": 58,
      "hit": false,
      "t": 104250,
      "d": 750,
      "v": 110
    },
    {
      "midi": 62,
      "hit": false,
      "t": 104250,
      "d": 750,
      "v": 112
    },
    {
      "midi": 55,
      "hit": false,
      "t": 105000,
      "d": 2250,
      "v": 87
    },
    {
      "midi": 60,
      "hit": false,
      "t": 105000,
      "d": 2250,
      "v": 99
    },
    {
      "midi": 64,
      "hit": false,
      "t": 105000,
      "d": 2250,
      "v": 94
    },
    {
      "midi": 55,
      "hit": false,
      "t": 107250,
      "d": 750,
      "v": 95
    },
    {
      "midi": 58,
      "hit": false,
      "t": 107250,
      "d": 750,
      "v": 112
    },
    {
      "midi": 60,
      "hit": false,
      "t": 107250,
      "d": 750,
      "v": 102
    },
    {
      "midi": 52,
      "hit": false,
      "t": 108000,
      "d": 2250,
      "v": 67
    },
    {
      "midi": 55,
      "hit": false,
      "t": 108000,
      "d": 2250,
      "v": 102
    },
    {
      "midi": 57,
      "hit": false,
      "t": 108000,
      "d": 2250,
      "v": 104
    },
    {
      "midi": 60,
      "hit": false,
      "t": 108000,
      "d": 2250,
      "v": 100
    },
    {
      "midi": 55,
      "hit": false,
      "t": 110250,
      "d": 750,
      "v": 108
    },
    {
      "midi": 57,
      "hit": false,
      "t": 110250,
      "d": 750,
      "v": 111
    },
    {
      "midi": 60,
      "hit": false,
      "t": 110250,
      "d": 750,
      "v": 104
    },
    {
      "midi": 54,
      "hit": false,
      "t": 111000,
      "d": 2250,
      "v": 112
    },
    {
      "midi": 57,
      "hit": false,
      "t": 111000,
      "d": 2250,
      "v": 117
    },
    {
      "midi": 60,
      "hit": false,
      "t": 111000,
      "d": 2250,
      "v": 104
    },
    {
      "midi": 63,
      "hit": false,
      "t": 111000,
      "d": 2250,
      "v": 104
    },
    {
      "midi": 55,
      "hit": false,
      "t": 114000,
      "d": 2250,
      "v": 93
    },
    {
      "midi": 58,
      "hit": false,
      "t": 114000,
      "d": 2250,
      "v": 104
    },
    {
      "midi": 62,
      "hit": false,
      "t": 114000,
      "d": 2250,
      "v": 104
    },
    {
      "midi": 58,
      "hit": false,
      "t": 117000,
      "d": 750,
      "v": 104
    },
    {
      "midi": 62,
      "hit": false,
      "t": 117000,
      "d": 750,
      "v": 104
    },
    {
      "midi": 57,
      "hit": false,
      "t": 118312.5,
      "d": 1312.5,
      "v": 101
    },
    {
      "midi": 64,
      "hit": false,
      "t": 118312.5,
      "d": 1312.5,
      "v": 104
    },
    {
      "midi": 60,
      "hit": false,
      "t": 118312.5,
      "d": 1500,
      "v": 90
    },
    {
      "midi": 54,
      "hit": false,
      "t": 120000,
      "d": 2437.5,
      "v": 112
    },
    {
      "midi": 57,
      "hit": false,
      "t": 120000,
      "d": 2625,
      "v": 109
    },
    {
      "midi": 60,
      "hit": false,
      "t": 120000,
      "d": 2625,
      "v": 94
    },
    {
      "midi": 63,
      "hit": false,
      "t": 120000,
      "d": 2625,
      "v": 100
    },
    {
      "midi": 54,
      "hit": false,
      "t": 123000,
      "d": 750,
      "v": 89
    },
    {
      "midi": 57,
      "hit": false,
      "t": 123000,
      "d": 750,
      "v": 101
    },
    {
      "midi": 60,
      "hit": false,
      "t": 123000,
      "d": 750,
      "v": 98
    },
    {
      "midi": 63,
      "hit": false,
      "t": 123000,
      "d": 750,
      "v": 102
    },
    {
      "midi": 55,
      "hit": false,
      "t": 126000,
      "d": 937.5,
      "v": 91
    },
    {
      "midi": 58,
      "hit": false,
      "t": 126000,
      "d": 937.5,
      "v": 96
    },
    {
      "midi": 62,
      "hit": false,
      "t": 126000,
      "d": 937.5,
      "v": 95
    },
    {
      "midi": 70,
      "hit": false,
      "t": 126937.5,
      "d": 181.25,
      "v": 94
    },
    {
      "midi": 72,
      "hit": false,
      "t": 127125,
      "d": 187.5,
      "v": 87
    },
    {
      "midi": 70,
      "hit": false,
      "t": 127312.5,
      "d": 156.25,
      "v": 88
    },
    {
      "midi": 55,
      "hit": false,
      "t": 127312.5,
      "d": 187.5,
      "v": 84
    },
    {
      "midi": 58,
      "hit": false,
      "t": 127312.5,
      "d": 187.5,
      "v": 84
    },
    {
      "midi": 65,
      "hit": false,
      "t": 127312.5,
      "d": 187.5,
      "v": 88
    },
    {
      "midi": 77,
      "hit": false,
      "t": 127500,
      "d": 125,
      "v": 84
    },
    {
      "midi": 55,
      "hit": false,
      "t": 127687.5,
      "d": 937.5,
      "v": 89
    },
    {
      "midi": 60,
      "hit": false,
      "t": 127687.5,
      "d": 937.5,
      "v": 89
    },
    {
      "midi": 64,
      "hit": false,
      "t": 127687.5,
      "d": 937.5,
      "v": 89
    },
    {
      "midi": 53,
      "hit": false,
      "t": 129000,
      "d": 1312.5,
      "v": 95
    },
    {
      "midi": 55,
      "hit": false,
      "t": 129000,
      "d": 1312.5,
      "v": 100
    },
    {
      "midi": 57,
      "hit": false,
      "t": 129000,
      "d": 1312.5,
      "v": 101
    },
    {
      "midi": 60,
      "hit": false,
      "t": 129000,
      "d": 1312.5,
      "v": 94
    },
    {
      "midi": 77,
      "hit": false,
      "t": 129000,
      "d": 1875,
      "v": 110
    },
    {
      "midi": 76,
      "hit": false,
      "t": 130875,
      "d": 562.5,
      "v": 104
    },
    {
      "midi": 72,
      "hit": false,
      "t": 131437.5,
      "d": 562.5,
      "v": 119
    },
    {
      "midi": 70,
      "hit": false,
      "t": 132000,
      "d": 750,
      "v": 100
    },
    {
      "midi": 55,
      "hit": false,
      "t": 132000,
      "d": 1312.5,
      "v": 82
    },
    {
      "midi": 57,
      "hit": false,
      "t": 132000,
      "d": 1312.5,
      "v": 98
    },
    {
      "midi": 58,
      "hit": false,
      "t": 132000,
      "d": 1312.5,
      "v": 104
    },
    {
      "midi": 62,
      "hit": false,
      "t": 132000,
      "d": 1312.5,
      "v": 97
    },
    {
      "midi": 77,
      "hit": false,
      "t": 132562.5,
      "d": 1687.5,
      "v": 80
    },
    {
      "midi": 70,
      "hit": false,
      "t": 135000,
      "d": 562.5,
      "v": 104
    },
    {
      "midi": 55,
      "hit": false,
      "t": 135000,
      "d": 937.5,
      "v": 104
    },
    {
      "midi": 58,
      "hit": false,
      "t": 135000,
      "d": 937.5,
      "v": 100
    },
    {
      "midi": 60,
      "hit": false,
      "t": 135000,
      "d": 937.5,
      "v": 108
    },
    {
      "midi": 62,
      "hit": false,
      "t": 135000,
      "d": 937.5,
      "v": 104
    },
    {
      "midi": 77,
      "hit": false,
      "t": 135562.5,
      "d": 562.5,
      "v": 108
    },
    {
      "midi": 76,
      "hit": false,
      "t": 136125,
      "d": 937.5,
      "v": 120
    },
    {
      "midi": 70,
      "hit": false,
      "t": 137062.5,
      "d": 375,
      "v": 97
    },
    {
      "midi": 72,
      "hit": false,
      "t": 137437.5,
      "d": 562.5,
      "v": 86
    },
    {
      "midi": 53,
      "hit": false,
      "t": 138000,
      "d": 750,
      "v": 92
    },
    {
      "midi": 55,
      "hit": false,
      "t": 138000,
      "d": 750,
      "v": 89
    },
    {
      "midi": 57,
      "hit": false,
      "t": 138000,
      "d": 750,
      "v": 96
    },
    {
      "midi": 60,
      "hit": false,
      "t": 138000,
      "d": 750,
      "v": 95
    },
    {
      "midi": 69,
      "hit": false,
      "t": 138000,
      "d": 2062.5,
      "v": 92
    },
    {
      "midi": 53,
      "hit": false,
      "t": 141000,
      "d": 1312.5,
      "v": 93
    },
    {
      "midi": 55,
      "hit": false,
      "t": 141000,
      "d": 1312.5,
      "v": 93
    },
    {
      "midi": 57,
      "hit": false,
      "t": 141000,
      "d": 1312.5,
      "v": 93
    },
    {
      "midi": 60,
      "hit": false,
      "t": 141000,
      "d": 1312.5,
      "v": 100
    },
    {
      "midi": 61,
      "hit": false,
      "t": 142500,
      "d": 1125,
      "v": 109
    },
    {
      "midi": 53,
      "hit": false,
      "t": 144000,
      "d": 937.5,
      "v": 95
    },
    {
      "midi": 60,
      "hit": false,
      "t": 144000,
      "d": 937.5,
      "v": 95
    },
    {
      "midi": 62,
      "hit": false,
      "t": 144000,
      "d": 937.5,
      "v": 97
    },
    {
      "midi": 57,
      "hit": false,
      "t": 145500,
      "d": 937.5,
      "v": 83
    },
    {
      "midi": 59,
      "hit": false,
      "t": 145500,
      "d": 937.5,
      "v": 82
    },
    {
      "midi": 62,
      "hit": false,
      "t": 145500,
      "d": 937.5,
      "v": 95
    },
    {
      "midi": 65,
      "hit": false,
      "t": 145500,
      "d": 937.5,
      "v": 99
    },
    {
      "midi": 57,
      "hit": false,
      "t": 147000,
      "d": 2250,
      "v": 87
    },
    {
      "midi": 60,
      "hit": false,
      "t": 147000,
      "d": 2250,
      "v": 99
    },
    {
      "midi": 64,
      "hit": false,
      "t": 147000,
      "d": 2250,
      "v": 99
    },
    {
      "midi": 55,
      "hit": false,
      "t": 150000,
      "d": 1125,
      "v": 99
    },
    {
      "midi": 62,
      "hit": false,
      "t": 150000,
      "d": 1125,
      "v": 84
    },
    {
      "midi": 58,
      "hit": false,
      "t": 150000,
      "d": 2437.5,
      "v": 108
    },
    {
      "midi": 52,
      "hit": false,
      "t": 151500,
      "d": 937.5,
      "v": 116
    },
    {
      "midi": 60,
      "hit": false,
      "t": 151500,
      "d": 937.5,
      "v": 85
    },
    {
      "midi": 60,
      "hit": false,
      "t": 153000,
      "d": 1125,
      "v": 95
    },
    {
      "midi": 57,
      "hit": false,
      "t": 153000,
      "d": 1312.5,
      "v": 96
    },
    {
      "midi": 53,
      "hit": false,
      "t": 153000,
      "d": 2625,
      "v": 97
    },
    {
      "midi": 57,
      "hit": false,
      "t": 154500,
      "d": 937.5,
      "v": 70
    },
    {
      "midi": 61,
      "hit": false,
      "t": 154500,
      "d": 937.5,
      "v": 104
    },
    {
      "midi": 53,
      "hit": false,
      "t": 156000,
      "d": 750,
      "v": 88
    },
    {
      "midi": 57,
      "hit": false,
      "t": 156000,
      "d": 937.5,
      "v": 92
    },
    {
      "midi": 60,
      "hit": false,
      "t": 156000,
      "d": 937.5,
      "v": 93
    },
    {
      "midi": 62,
      "hit": false,
      "t": 156000,
      "d": 937.5,
      "v": 96
    },
    {
      "midi": 59,
      "hit": false,
      "t": 157500,
      "d": 937.5,
      "v": 77
    },
    {
      "midi": 62,
      "hit": false,
      "t": 157500,
      "d": 937.5,
      "v": 99
    },
    {
      "midi": 65,
      "hit": false,
      "t": 157500,
      "d": 937.5,
      "v": 117
    },
    {
      "midi": 64,
      "hit": false,
      "t": 159000,
      "d": 2250,
      "v": 94
    },
    {
      "midi": 57,
      "hit": false,
      "t": 159000,
      "d": 2437.5,
      "v": 99
    },
    {
      "midi": 60,
      "hit": false,
      "t": 159000,
      "d": 2437.5,
      "v": 104
    },
    {
      "midi": 55,
      "hit": false,
      "t": 162000,
      "d": 1125,
      "v": 108
    },
    {
      "midi": 58,
      "hit": false,
      "t": 162000,
      "d": 1125,
      "v": 103
    },
    {
      "midi": 62,
      "hit": false,
      "t": 162000,
      "d": 1125,
      "v": 108
    },
    {
      "midi": 55,
      "hit": false,
      "t": 163500,
      "d": 1125,
      "v": 76
    },
    {
      "midi": 60,
      "hit": false,
      "t": 163500,
      "d": 1312.5,
      "v": 97
    },
    {
      "midi": 64,
      "hit": false,
      "t": 163500,
      "d": 1312.5,
      "v": 88
    },
    {
      "midi": 57,
      "hit": false,
      "t": 165000,
      "d": 1125,
      "v": 108
    },
    {
      "midi": 60,
      "hit": false,
      "t": 165000,
      "d": 1125,
      "v": 91
    },
    {
      "midi": 64,
      "hit": false,
      "t": 165000,
      "d": 1125,
      "v": 76
    },
    {
      "midi": 55,
      "hit": false,
      "t": 166500,
      "d": 937.5,
      "v": 89
    },
    {
      "midi": 57,
      "hit": false,
      "t": 166500,
      "d": 937.5,
      "v": 90
    },
    {
      "midi": 62,
      "hit": false,
      "t": 166500,
      "d": 937.5,
      "v": 87
    },
    {
      "midi": 53,
      "hit": false,
      "t": 169500,
      "d": 1500,
      "v": 110
    },
    {
      "midi": 55,
      "hit": false,
      "t": 169500,
      "d": 1500,
      "v": 104
    },
    {
      "midi": 58,
      "hit": false,
      "t": 169500,
      "d": 1500,
      "v": 112
    },
    {
      "midi": 62,
      "hit": false,
      "t": 169500,
      "d": 1500,
      "v": 97
    },
    {
      "midi": 53,
      "hit": false,
      "t": 171750,
      "d": 750,
      "v": 83
    },
    {
      "midi": 55,
      "hit": false,
      "t": 171750,
      "d": 750,
      "v": 112
    },
    {
      "midi": 58,
      "hit": false,
      "t": 171750,
      "d": 750,
      "v": 110
    },
    {
      "midi": 62,
      "hit": false,
      "t": 171750,
      "d": 750,
      "v": 96
    },
    {
      "midi": 52,
      "hit": false,
      "t": 172500,
      "d": 750,
      "v": 110
    },
    {
      "midi": 55,
      "hit": false,
      "t": 172500,
      "d": 750,
      "v": 108
    },
    {
      "midi": 58,
      "hit": false,
      "t": 172500,
      "d": 750,
      "v": 100
    },
    {
      "midi": 60,
      "hit": false,
      "t": 172500,
      "d": 750,
      "v": 109
    },
    {
      "midi": 55,
      "hit": false,
      "t": 174750,
      "d": 750,
      "v": 89
    },
    {
      "midi": 58,
      "hit": false,
      "t": 174750,
      "d": 750,
      "v": 104
    },
    {
      "midi": 60,
      "hit": false,
      "t": 174750,
      "d": 750,
      "v": 101
    },
    {
      "midi": 64,
      "hit": false,
      "t": 174750,
      "d": 750,
      "v": 112
    },
    {
      "midi": 57,
      "hit": false,
      "t": 175500,
      "d": 1500,
      "v": 111
    },
    {
      "midi": 60,
      "hit": false,
      "t": 175500,
      "d": 1500,
      "v": 108
    },
    {
      "midi": 64,
      "hit": false,
      "t": 175500,
      "d": 1500,
      "v": 79
    },
    {
      "midi": 55,
      "hit": false,
      "t": 177750,
      "d": 750,
      "v": 101
    },
    {
      "midi": 57,
      "hit": false,
      "t": 177750,
      "d": 750,
      "v": 108
    },
    {
      "midi": 60,
      "hit": false,
      "t": 177750,
      "d": 750,
      "v": 91
    },
    {
      "midi": 64,
      "hit": false,
      "t": 177750,
      "d": 750,
      "v": 103
    },
    {
      "midi": 54,
      "hit": false,
      "t": 178500,
      "d": 1500,
      "v": 109
    },
    {
      "midi": 57,
      "hit": false,
      "t": 178500,
      "d": 1500,
      "v": 118
    },
    {
      "midi": 60,
      "hit": false,
      "t": 178500,
      "d": 1500,
      "v": 100
    },
    {
      "midi": 63,
      "hit": false,
      "t": 178500,
      "d": 1500,
      "v": 109
    },
    {
      "midi": 78,
      "hit": false,
      "t": 180187.5,
      "d": 187.5,
      "v": 81
    },
    {
      "midi": 81,
      "hit": false,
      "t": 180187.5,
      "d": 187.5,
      "v": 81
    },
    {
      "midi": 75,
      "hit": false,
      "t": 180375,
      "d": 187.5,
      "v": 79
    },
    {
      "midi": 78,
      "hit": false,
      "t": 180562.5,
      "d": 187.5,
      "v": 75
    },
    {
      "midi": 81,
      "hit": false,
      "t": 180562.5,
      "d": 187.5,
      "v": 75
    },
    {
      "midi": 75,
      "hit": false,
      "t": 180750,
      "d": 187.5,
      "v": 72
    },
    {
      "midi": 69,
      "hit": false,
      "t": 180937.5,
      "d": 187.5,
      "v": 70
    },
    {
      "midi": 62,
      "hit": false,
      "t": 181125,
      "d": 187.5,
      "v": 68
    },
    {
      "midi": 57,
      "hit": false,
      "t": 181312.5,
      "d": 187.5,
      "v": 65
    },
    {
      "midi": 65,
      "hit": false,
      "t": 181500,
      "d": 750,
      "v": 78
    },
    {
      "midi": 55,
      "hit": false,
      "t": 181500,
      "d": 1500,
      "v": 69
    },
    {
      "midi": 58,
      "hit": false,
      "t": 181500,
      "d": 1500,
      "v": 101
    },
    {
      "midi": 62,
      "hit": false,
      "t": 181500,
      "d": 1500,
      "v": 73
    },
    {
      "midi": 58,
      "hit": false,
      "t": 183750,
      "d": 750,
      "v": 110
    },
    {
      "midi": 62,
      "hit": false,
      "t": 183750,
      "d": 750,
      "v": 112
    },
    {
      "midi": 55,
      "hit": false,
      "t": 184500,
      "d": 2250,
      "v": 87
    },
    {
      "midi": 60,
      "hit": false,
      "t": 184500,
      "d": 2250,
      "v": 99
    },
    {
      "midi": 64,
      "hit": false,
      "t": 184500,
      "d": 2250,
      "v": 94
    },
    {
      "midi": 55,
      "hit": false,
      "t": 186750,
      "d": 750,
      "v": 95
    },
    {
      "midi": 58,
      "hit": false,
      "t": 186750,
      "d": 750,
      "v": 112
    },
    {
      "midi": 60,
      "hit": false,
      "t": 186750,
      "d": 750,
      "v": 102
    },
    {
      "midi": 52,
      "hit": false,
      "t": 187500,
      "d": 2250,
      "v": 67
    },
    {
      "midi": 55,
      "hit": false,
      "t": 187500,
      "d": 2250,
      "v": 102
    },
    {
      "midi": 57,
      "hit": false,
      "t": 187500,
      "d": 2250,
      "v": 104
    },
    {
      "midi": 60,
      "hit": false,
      "t": 187500,
      "d": 2250,
      "v": 100
    },
    {
      "midi": 55,
      "hit": false,
      "t": 189750,
      "d": 750,
      "v": 108
    },
    {
      "midi": 57,
      "hit": false,
      "t": 189750,
      "d": 750,
      "v": 111
    },
    {
      "midi": 60,
      "hit": false,
      "t": 189750,
      "d": 750,
      "v": 104
    },
    {
      "midi": 54,
      "hit": false,
      "t": 190500,
      "d": 2250,
      "v": 112
    },
    {
      "midi": 57,
      "hit": false,
      "t": 190500,
      "d": 2250,
      "v": 117
    },
    {
      "midi": 60,
      "hit": false,
      "t": 190500,
      "d": 2250,
      "v": 104
    },
    {
      "midi": 63,
      "hit": false,
      "t": 190500,
      "d": 2250,
      "v": 104
    },
    {
      "midi": 57,
      "hit": false,
      "t": 193500,
      "d": 2250,
      "v": 101
    },
    {
      "midi": 55,
      "hit": false,
      "t": 193500,
      "d": 2437.5,
      "v": 101
    },
    {
      "midi": 59,
      "hit": false,
      "t": 193500,
      "d": 2437.5,
      "v": 118
    },
    {
      "midi": 62,
      "hit": false,
      "t": 193500,
      "d": 2437.5,
      "v": 116
    },
    {
      "midi": 55,
      "hit": false,
      "t": 196500,
      "d": 937.5,
      "v": 72
    },
    {
      "midi": 57,
      "hit": false,
      "t": 196500,
      "d": 937.5,
      "v": 91
    },
    {
      "midi": 59,
      "hit": false,
      "t": 196500,
      "d": 937.5,
      "v": 99
    },
    {
      "midi": 62,
      "hit": false,
      "t": 196500,
      "d": 937.5,
      "v": 83
    },
    {
      "midi": 57,
      "hit": false,
      "t": 197812.5,
      "d": 187.5,
      "v": 120
    },
    {
      "midi": 59,
      "hit": false,
      "t": 197812.5,
      "d": 187.5,
      "v": 120
    },
    {
      "midi": 62,
      "hit": false,
      "t": 197812.5,
      "d": 187.5,
      "v": 103
    },
    {
      "midi": 53,
      "hit": false,
      "t": 198562.5,
      "d": 375,
      "v": 116
    },
    {
      "midi": 57,
      "hit": false,
      "t": 198562.5,
      "d": 375,
      "v": 112
    },
    {
      "midi": 60,
      "hit": false,
      "t": 198562.5,
      "d": 375,
      "v": 117
    },
    {
      "midi": 52,
      "hit": false,
      "t": 199500,
      "d": 1312.5,
      "v": 82
    },
    {
      "midi": 56,
      "hit": false,
      "t": 199500,
      "d": 1500,
      "v": 104
    },
    {
      "midi": 59,
      "hit": false,
      "t": 199500,
      "d": 1500,
      "v": 104
    },
    {
      "midi": 62,
      "hit": false,
      "t": 199500,
      "d": 1500,
      "v": 90
    },
    {
      "midi": 64,
      "hit": false,
      "t": 199500,
      "d": 1500,
      "v": 91
    },
    {
      "midi": 53,
      "hit": false,
      "t": 202500,
      "d": 750,
      "v": 104
    },
    {
      "midi": 62,
      "hit": false,
      "t": 202500,
      "d": 750,
      "v": 104
    },
    {
      "midi": 58,
      "hit": false,
      "t": 202500,
      "d": 937.5,
      "v": 104
    },
    {
      "midi": 52,
      "hit": false,
      "t": 203812.5,
      "d": 937.5,
      "v": 102
    },
    {
      "midi": 57,
      "hit": false,
      "t": 203812.5,
      "d": 937.5,
      "v": 101
    },
    {
      "midi": 60,
      "hit": false,
      "t": 203812.5,
      "d": 937.5,
      "v": 97
    },
    {
      "midi": 55,
      "hit": false,
      "t": 205500,
      "d": 1125,
      "v": 104
    },
    {
      "midi": 58,
      "hit": false,
      "t": 205500,
      "d": 1125,
      "v": 108
    },
    {
      "midi": 62,
      "hit": false,
      "t": 205500,
      "d": 1125,
      "v": 118
    },
    {
      "midi": 55,
      "hit": false,
      "t": 206812.5,
      "d": 1125,
      "v": 120
    },
    {
      "midi": 60,
      "hit": false,
      "t": 206812.5,
      "d": 1125,
      "v": 119
    },
    {
      "midi": 64,
      "hit": false,
      "t": 206812.5,
      "d": 1125,
      "v": 120
    },
    {
      "midi": 54,
      "hit": false,
      "t": 208500,
      "d": 375,
      "v": 96
    },
    {
      "midi": 57,
      "hit": false,
      "t": 208500,
      "d": 375,
      "v": 116
    },
    {
      "midi": 59,
      "hit": false,
      "t": 208500,
      "d": 375,
      "v": 117
    },
    {
      "midi": 63,
      "hit": false,
      "t": 208500,
      "d": 375,
      "v": 118
    },
    {
      "midi": 54,
      "hit": false,
      "t": 209062.5,
      "d": 187.5,
      "v": 104
    },
    {
      "midi": 57,
      "hit": false,
      "t": 209062.5,
      "d": 187.5,
      "v": 117
    },
    {
      "midi": 59,
      "hit": false,
      "t": 209062.5,
      "d": 187.5,
      "v": 118
    },
    {
      "midi": 63,
      "hit": false,
      "t": 209062.5,
      "d": 187.5,
      "v": 112
    },
    {
      "midi": 54,
      "hit": false,
      "t": 209625,
      "d": 750,
      "v": 104
    },
    {
      "midi": 57,
      "hit": false,
      "t": 209625,
      "d": 750,
      "v": 112
    },
    {
      "midi": 59,
      "hit": false,
      "t": 209625,
      "d": 750,
      "v": 120
    },
    {
      "midi": 63,
      "hit": false,
      "t": 209625,
      "d": 750,
      "v": 119
    },
    {
      "midi": 54,
      "hit": false,
      "t": 211500,
      "d": 350,
      "v": 94
    },
    {
      "midi": 57,
      "hit": false,
      "t": 211500,
      "d": 368.75,
      "v": 111
    },
    {
      "midi": 59,
      "hit": false,
      "t": 211500,
      "d": 368.75,
      "v": 112
    },
    {
      "midi": 63,
      "hit": false,
      "t": 211500,
      "d": 425,
      "v": 108
    },
    {
      "midi": 59,
      "hit": false,
      "t": 212062.5,
      "d": 106.25,
      "v": 108
    },
    {
      "midi": 54,
      "hit": false,
      "t": 212062.5,
      "d": 125,
      "v": 104
    },
    {
      "midi": 57,
      "hit": false,
      "t": 212062.5,
      "d": 125,
      "v": 112
    },
    {
      "midi": 63,
      "hit": false,
      "t": 212062.5,
      "d": 125,
      "v": 108
    },
    {
      "midi": 54,
      "hit": false,
      "t": 212625,
      "d": 62.5,
      "v": 98
    },
    {
      "midi": 57,
      "hit": false,
      "t": 212625,
      "d": 93.75,
      "v": 111
    },
    {
      "midi": 59,
      "hit": false,
      "t": 212625,
      "d": 100,
      "v": 117
    },
    {
      "midi": 63,
      "hit": false,
      "t": 212625,
      "d": 118.75,
      "v": 116
    },
    {
      "midi": 54,
      "hit": false,
      "t": 212812.5,
      "d": 81.25,
      "v": 108
    },
    {
      "midi": 57,
      "hit": false,
      "t": 212812.5,
      "d": 81.25,
      "v": 108
    },
    {
      "midi": 63,
      "hit": false,
      "t": 212812.5,
      "d": 81.25,
      "v": 112
    },
    {
      "midi": 59,
      "hit": false,
      "t": 212812.5,
      "d": 87.5,
      "v": 112
    },
    {
      "midi": 57,
      "hit": false,
      "t": 214500,
      "d": 2062.5,
      "v": 109
    },
    {
      "midi": 60,
      "hit": false,
      "t": 214500,
      "d": 2062.5,
      "v": 119
    },
    {
      "midi": 64,
      "hit": false,
      "t": 214500,
      "d": 2062.5,
      "v": 111
    },
    {
      "midi": 60,
      "hit": false,
      "t": 216750,
      "d": 187.5,
      "v": 108
    },
    {
      "midi": 64,
      "hit": false,
      "t": 216750,
      "d": 187.5,
      "v": 86
    },
    {
      "midi": 54,
      "hit": false,
      "t": 217500,
      "d": 1875,
      "v": 104
    },
    {
      "midi": 57,
      "hit": false,
      "t": 217500,
      "d": 1875,
      "v": 109
    },
    {
      "midi": 60,
      "hit": false,
      "t": 217500,
      "d": 1875,
      "v": 99
    },
    {
      "midi": 62,
      "hit": false,
      "t": 217500,
      "d": 2062.5,
      "v": 104
    },
    {
      "midi": 54,
      "hit": false,
      "t": 219750,
      "d": 187.5,
      "v": 97
    },
    {
      "midi": 57,
      "hit": false,
      "t": 219750,
      "d": 187.5,
      "v": 102
    },
    {
      "midi": 60,
      "hit": false,
      "t": 219750,
      "d": 187.5,
      "v": 104
    },
    {
      "midi": 62,
      "hit": false,
      "t": 219750,
      "d": 187.5,
      "v": 98
    },
    {
      "midi": 54,
      "hit": false,
      "t": 220500,
      "d": 1500,
      "v": 104
    },
    {
      "midi": 59,
      "hit": false,
      "t": 220500,
      "d": 1500,
      "v": 108
    },
    {
      "midi": 62,
      "hit": false,
      "t": 220500,
      "d": 1500,
      "v": 108
    },
    {
      "midi": 56,
      "hit": false,
      "t": 223500,
      "d": 2250,
      "v": 120
    },
    {
      "midi": 59,
      "hit": false,
      "t": 223500,
      "d": 2250,
      "v": 120
    },
    {
      "midi": 62,
      "hit": false,
      "t": 223500,
      "d": 2250,
      "v": 117
    },
    {
      "midi": 65,
      "hit": false,
      "t": 223500,
      "d": 2250,
      "v": 104
    },
    {
      "midi": 57,
      "hit": false,
      "t": 226500,
      "d": 2062.5,
      "v": 102
    },
    {
      "midi": 60,
      "hit": false,
      "t": 226500,
      "d": 2062.5,
      "v": 104
    },
    {
      "midi": 64,
      "hit": false,
      "t": 226500,
      "d": 2250,
      "v": 91
    },
    {
      "midi": 57,
      "hit": false,
      "t": 228750,
      "d": 187.5,
      "v": 108
    },
    {
      "midi": 60,
      "hit": false,
      "t": 228750,
      "d": 187.5,
      "v": 104
    },
    {
      "midi": 64,
      "hit": false,
      "t": 228750,
      "d": 187.5,
      "v": 55
    },
    {
      "midi": 54,
      "hit": false,
      "t": 229500,
      "d": 2062.5,
      "v": 104
    },
    {
      "midi": 60,
      "hit": false,
      "t": 229500,
      "d": 2062.5,
      "v": 98
    },
    {
      "midi": 57,
      "hit": false,
      "t": 229500,
      "d": 2250,
      "v": 104
    },
    {
      "midi": 62,
      "hit": false,
      "t": 229500,
      "d": 2250,
      "v": 112
    },
    {
      "midi": 54,
      "hit": false,
      "t": 231750,
      "d": 187.5,
      "v": 98
    },
    {
      "midi": 57,
      "hit": false,
      "t": 231750,
      "d": 187.5,
      "v": 85
    },
    {
      "midi": 60,
      "hit": false,
      "t": 231750,
      "d": 187.5,
      "v": 98
    },
    {
      "midi": 62,
      "hit": false,
      "t": 231750,
      "d": 187.5,
      "v": 88
    },
    {
      "midi": 54,
      "hit": false,
      "t": 232500,
      "d": 1500,
      "v": 87
    },
    {
      "midi": 59,
      "hit": false,
      "t": 232500,
      "d": 1500,
      "v": 118
    },
    {
      "midi": 62,
      "hit": false,
      "t": 232500,
      "d": 1500,
      "v": 104
    },
    {
      "midi": 56,
      "hit": false,
      "t": 235500,
      "d": 2062.5,
      "v": 104
    },
    {
      "midi": 59,
      "hit": false,
      "t": 235500,
      "d": 2062.5,
      "v": 118
    },
    {
      "midi": 65,
      "hit": false,
      "t": 235500,
      "d": 2062.5,
      "v": 101
    },
    {
      "midi": 88,
      "hit": false,
      "t": 237843.75,
      "d": 93.75,
      "v": 90
    },
    {
      "midi": 89,
      "hit": false,
      "t": 237937.5,
      "d": 93.75,
      "v": 90
    },
    {
      "midi": 90,
      "hit": false,
      "t": 238125,
      "d": 93.75,
      "v": 79
    },
    {
      "midi": 91,
      "hit": false,
      "t": 238312.5,
      "d": 93.75,
      "v": 57
    },
    {
      "midi": 57,
      "hit": false,
      "t": 238500,
      "d": 2062.5,
      "v": 112
    },
    {
      "midi": 60,
      "hit": false,
      "t": 238500,
      "d": 2062.5,
      "v": 108
    },
    {
      "midi": 64,
      "hit": false,
      "t": 238500,
      "d": 2062.5,
      "v": 104
    },
    {
      "midi": 91,
      "hit": false,
      "t": 238500,
      "d": 93.75,
      "v": 82
    },
    {
      "midi": 91,
      "hit": false,
      "t": 238687.5,
      "d": 93.75,
      "v": 90
    },
    {
      "midi": 84,
      "hit": false,
      "t": 238875,
      "d": 93.75,
      "v": 90
    },
    {
      "midi": 88,
      "hit": false,
      "t": 239062.5,
      "d": 93.75,
      "v": 78
    },
    {
      "midi": 91,
      "hit": false,
      "t": 239250,
      "d": 93.75,
      "v": 86
    },
    {
      "midi": 91,
      "hit": false,
      "t": 239437.5,
      "d": 93.75,
      "v": 86
    },
    {
      "midi": 84,
      "hit": false,
      "t": 239625,
      "d": 93.75,
      "v": 49
    },
    {
      "midi": 91,
      "hit": false,
      "t": 239812.5,
      "d": 93.75,
      "v": 87
    },
    {
      "midi": 91,
      "hit": false,
      "t": 240000,
      "d": 93.75,
      "v": 86
    },
    {
      "midi": 84,
      "hit": false,
      "t": 240187.5,
      "d": 93.75,
      "v": 90
    },
    {
      "midi": 88,
      "hit": false,
      "t": 240375,
      "d": 93.75,
      "v": 69
    },
    {
      "midi": 91,
      "hit": false,
      "t": 240562.5,
      "d": 93.75,
      "v": 89
    },
    {
      "midi": 57,
      "hit": false,
      "t": 240750,
      "d": 187.5,
      "v": 110
    },
    {
      "midi": 60,
      "hit": false,
      "t": 240750,
      "d": 187.5,
      "v": 112
    },
    {
      "midi": 64,
      "hit": false,
      "t": 240750,
      "d": 187.5,
      "v": 104
    },
    {
      "midi": 84,
      "hit": false,
      "t": 240750,
      "d": 93.75,
      "v": 78
    },
    {
      "midi": 88,
      "hit": false,
      "t": 240937.5,
      "d": 93.75,
      "v": 78
    },
    {
      "midi": 91,
      "hit": false,
      "t": 241218.75,
      "d": 93.75,
      "v": 33
    },
    {
      "midi": 91,
      "hit": false,
      "t": 241312.5,
      "d": 93.75,
      "v": 90
    },
    {
      "midi": 60,
      "hit": false,
      "t": 241500,
      "d": 2250,
      "v": 100
    },
    {
      "midi": 62,
      "hit": false,
      "t": 241500,
      "d": 2250,
      "v": 108
    },
    {
      "midi": 66,
      "hit": false,
      "t": 241500,
      "d": 2250,
      "v": 110
    },
    {
      "midi": 69,
      "hit": false,
      "t": 241500,
      "d": 2250,
      "v": 66
    },
    {
      "midi": 90,
      "hit": false,
      "t": 241500,
      "d": 93.75,
      "v": 66
    },
    {
      "midi": 90,
      "hit": false,
      "t": 241687.5,
      "d": 93.75,
      "v": 74
    },
    {
      "midi": 86,
      "hit": false,
      "t": 241875,
      "d": 93.75,
      "v": 86
    },
    {
      "midi": 90,
      "hit": false,
      "t": 242062.5,
      "d": 93.75,
      "v": 86
    },
    {
      "midi": 90,
      "hit": false,
      "t": 242250,
      "d": 93.75,
      "v": 61
    },
    {
      "midi": 86,
      "hit": false,
      "t": 242437.5,
      "d": 93.75,
      "v": 74
    },
    {
      "midi": 81,
      "hit": false,
      "t": 242625,
      "d": 93.75,
      "v": 74
    },
    {
      "midi": 90,
      "hit": false,
      "t": 242812.5,
      "d": 93.75,
      "v": 82
    },
    {
      "midi": 86,
      "hit": false,
      "t": 243000,
      "d": 93.75,
      "v": 82
    },
    {
      "midi": 90,
      "hit": false,
      "t": 243187.5,
      "d": 93.75,
      "v": 66
    },
    {
      "midi": 81,
      "hit": false,
      "t": 243468.75,
      "d": 93.75,
      "v": 25
    },
    {
      "midi": 86,
      "hit": false,
      "t": 243562.5,
      "d": 93.75,
      "v": 90
    },
    {
      "midi": 60,
      "hit": false,
      "t": 243750,
      "d": 187.5,
      "v": 88
    },
    {
      "midi": 66,
      "hit": false,
      "t": 243750,
      "d": 375,
      "v": 110
    },
    {
      "midi": 69,
      "hit": false,
      "t": 243750,
      "d": 375,
      "v": 94
    },
    {
      "midi": 90,
      "hit": false,
      "t": 243750,
      "d": 93.75,
      "v": 69
    },
    {
      "midi": 81,
      "hit": false,
      "t": 243937.5,
      "d": 93.75,
      "v": 78
    },
    {
      "midi": 86,
      "hit": false,
      "t": 244125,
      "d": 93.75,
      "v": 86
    },
    {
      "midi": 90,
      "hit": false,
      "t": 244312.5,
      "d": 93.75,
      "v": 72
    },
    {
      "midi": 66,
      "hit": false,
      "t": 244500,
      "d": 2062.5,
      "v": 111
    },
    {
      "midi": 69,
      "hit": false,
      "t": 244500,
      "d": 2062.5,
      "v": 104
    },
    {
      "midi": 59,
      "hit": false,
      "t": 244500,
      "d": 2250,
      "v": 100
    },
    {
      "midi": 62,
      "hit": false,
      "t": 244500,
      "d": 2250,
      "v": 98
    },
    {
      "midi": 83,
      "hit": false,
      "t": 244500,
      "d": 93.75,
      "v": 86
    },
    {
      "midi": 90,
      "hit": false,
      "t": 244875,
      "d": 93.75,
      "v": 78
    },
    {
      "midi": 90,
      "hit": false,
      "t": 245062.5,
      "d": 93.75,
      "v": 68
    },
    {
      "midi": 83,
      "hit": false,
      "t": 245250,
      "d": 93.75,
      "v": 78
    },
    {
      "midi": 90,
      "hit": false,
      "t": 245437.5,
      "d": 93.75,
      "v": 41
    },
    {
      "midi": 90,
      "hit": false,
      "t": 245625,
      "d": 93.75,
      "v": 69
    },
    {
      "midi": 83,
      "hit": false,
      "t": 245812.5,
      "d": 93.75,
      "v": 90
    },
    {
      "midi": 90,
      "hit": false,
      "t": 246187.5,
      "d": 93.75,
      "v": 89
    },
    {
      "midi": 83,
      "hit": false,
      "t": 246375,
      "d": 93.75,
      "v": 86
    },
    {
      "midi": 90,
      "hit": false,
      "t": 246562.5,
      "d": 93.75,
      "v": 80
    },
    {
      "midi": 62,
      "hit": false,
      "t": 246750,
      "d": 187.5,
      "v": 87
    },
    {
      "midi": 66,
      "hit": false,
      "t": 246750,
      "d": 187.5,
      "v": 112
    },
    {
      "midi": 69,
      "hit": false,
      "t": 246750,
      "d": 187.5,
      "v": 86
    },
    {
      "midi": 59,
      "hit": false,
      "t": 246750,
      "d": 2437.5,
      "v": 55
    },
    {
      "midi": 86,
      "hit": false,
      "t": 246750,
      "d": 93.75,
      "v": 54
    },
    {
      "midi": 83,
      "hit": false,
      "t": 247031.25,
      "d": 93.75,
      "v": 80
    },
    {
      "midi": 90,
      "hit": false,
      "t": 247125,
      "d": 93.75,
      "v": 66
    },
    {
      "midi": 90,
      "hit": false,
      "t": 247312.5,
      "d": 93.75,
      "v": 78
    },
    {
      "midi": 62,
      "hit": false,
      "t": 247500,
      "d": 1687.5,
      "v": 118
    },
    {
      "midi": 65,
      "hit": false,
      "t": 247500,
      "d": 1687.5,
      "v": 120
    },
    {
      "midi": 68,
      "hit": false,
      "t": 247500,
      "d": 1687.5,
      "v": 104
    },
    {
      "midi": 80,
      "hit": false,
      "t": 247500,
      "d": 93.75,
      "v": 90
    },
    {
      "midi": 86,
      "hit": false,
      "t": 247781.25,
      "d": 93.75,
      "v": 62
    },
    {
      "midi": 83,
      "hit": false,
      "t": 247875,
      "d": 93.75,
      "v": 89
    },
    {
      "midi": 89,
      "hit": false,
      "t": 248062.5,
      "d": 93.75,
      "v": 90
    },
    {
      "midi": 80,
      "hit": false,
      "t": 248250,
      "d": 187.5,
      "v": 69
    },
    {
      "midi": 83,
      "hit": false,
      "t": 248437.5,
      "d": 93.75,
      "v": 72
    },
    {
      "midi": 89,
      "hit": false,
      "t": 248625,
      "d": 93.75,
      "v": 78
    },
    {
      "midi": 89,
      "hit": false,
      "t": 248812.5,
      "d": 93.75,
      "v": 90
    },
    {
      "midi": 83,
      "hit": false,
      "t": 249000,
      "d": 93.75,
      "v": 78
    },
    {
      "midi": 86,
      "hit": false,
      "t": 249187.5,
      "d": 93.75,
      "v": 52
    },
    {
      "midi": 89,
      "hit": false,
      "t": 249562.5,
      "d": 93.75,
      "v": 56
    },
    {
      "midi": 83,
      "hit": false,
      "t": 249750,
      "d": 93.75,
      "v": 86
    },
    {
      "midi": 89,
      "hit": false,
      "t": 250125,
      "d": 93.75,
      "v": 56
    },
    {
      "midi": 60,
      "hit": false,
      "t": 250500,
      "d": 2062.5,
      "v": 103
    },
    {
      "midi": 57,
      "hit": false,
      "t": 250500,
      "d": 2250,
      "v": 104
    },
    {
      "midi": 64,
      "hit": false,
      "t": 250500,
      "d": 2250,
      "v": 104
    },
    {
      "midi": 84,
      "hit": false,
      "t": 250875,
      "d": 93.75,
      "v": 25
    },
    {
      "midi": 88,
      "hit": false,
      "t": 250875,
      "d": 93.75,
      "v": 78
    },
    {
      "midi": 84,
      "hit": false,
      "t": 251062.5,
      "d": 93.75,
      "v": 69
    },
    {
      "midi": 88,
      "hit": false,
      "t": 251062.5,
      "d": 93.75,
      "v": 67
    },
    {
      "midi": 81,
      "hit": false,
      "t": 251250,
      "d": 93.75,
      "v": 74
    },
    {
      "midi": 84,
      "hit": false,
      "t": 251437.5,
      "d": 93.75,
      "v": 67
    },
    {
      "midi": 84,
      "hit": false,
      "t": 251625,
      "d": 93.75,
      "v": 55
    },
    {
      "midi": 88,
      "hit": false,
      "t": 251812.5,
      "d": 93.75,
      "v": 72
    },
    {
      "midi": 81,
      "hit": false,
      "t": 252000,
      "d": 93.75,
      "v": 52
    },
    {
      "midi": 84,
      "hit": false,
      "t": 252187.5,
      "d": 93.75,
      "v": 38
    },
    {
      "midi": 88,
      "hit": false,
      "t": 252187.5,
      "d": 93.75,
      "v": 54
    },
    {
      "midi": 84,
      "hit": false,
      "t": 252375,
      "d": 93.75,
      "v": 62
    },
    {
      "midi": 88,
      "hit": false,
      "t": 252375,
      "d": 93.75,
      "v": 78
    },
    {
      "midi": 57,
      "hit": false,
      "t": 252750,
      "d": 187.5,
      "v": 108
    },
    {
      "midi": 60,
      "hit": false,
      "t": 252750,
      "d": 187.5,
      "v": 119
    },
    {
      "midi": 64,
      "hit": false,
      "t": 252750,
      "d": 187.5,
      "v": 83
    },
    {
      "midi": 81,
      "hit": false,
      "t": 252750,
      "d": 187.5,
      "v": 81
    },
    {
      "midi": 84,
      "hit": false,
      "t": 252937.5,
      "d": 93.75,
      "v": 80
    },
    {
      "midi": 88,
      "hit": false,
      "t": 252937.5,
      "d": 93.75,
      "v": 58
    },
    {
      "midi": 88,
      "hit": false,
      "t": 253125,
      "d": 93.75,
      "v": 72
    },
    {
      "midi": 84,
      "hit": false,
      "t": 253312.5,
      "d": 93.75,
      "v": 57
    },
    {
      "midi": 88,
      "hit": false,
      "t": 253312.5,
      "d": 93.75,
      "v": 90
    },
    {
      "midi": 57,
      "hit": false,
      "t": 253500,
      "d": 1875,
      "v": 99
    },
    {
      "midi": 60,
      "hit": false,
      "t": 253500,
      "d": 1875,
      "v": 84
    },
    {
      "midi": 62,
      "hit": false,
      "t": 253500,
      "d": 1875,
      "v": 109
    },
    {
      "midi": 66,
      "hit": false,
      "t": 253500,
      "d": 1875,
      "v": 99
    },
    {
      "midi": 86,
      "hit": false,
      "t": 253687.5,
      "d": 93.75,
      "v": 78
    },
    {
      "midi": 86,
      "hit": false,
      "t": 253875,
      "d": 93.75,
      "v": 48
    },
    {
      "midi": 81,
      "hit": false,
      "t": 254062.5,
      "d": 93.75,
      "v": 87
    },
    {
      "midi": 90,
      "hit": false,
      "t": 254250,
      "d": 93.75,
      "v": 25
    },
    {
      "midi": 90,
      "hit": false,
      "t": 254437.5,
      "d": 93.75,
      "v": 58
    },
    {
      "midi": 81,
      "hit": false,
      "t": 254625,
      "d": 93.75,
      "v": 52
    },
    {
      "midi": 90,
      "hit": false,
      "t": 254812.5,
      "d": 93.75,
      "v": 90
    },
    {
      "midi": 90,
      "hit": false,
      "t": 255000,
      "d": 93.75,
      "v": 61
    },
    {
      "midi": 81,
      "hit": false,
      "t": 255187.5,
      "d": 93.75,
      "v": 90
    },
    {
      "midi": 86,
      "hit": false,
      "t": 255375,
      "d": 93.75,
      "v": 72
    },
    {
      "midi": 90,
      "hit": false,
      "t": 255562.5,
      "d": 93.75,
      "v": 69
    },
    {
      "midi": 57,
      "hit": false,
      "t": 255750,
      "d": 187.5,
      "v": 81
    },
    {
      "midi": 60,
      "hit": false,
      "t": 255750,
      "d": 187.5,
      "v": 111
    },
    {
      "midi": 62,
      "hit": false,
      "t": 255750,
      "d": 187.5,
      "v": 108
    },
    {
      "midi": 81,
      "hit": false,
      "t": 255937.5,
      "d": 93.75,
      "v": 78
    },
    {
      "midi": 86,
      "hit": false,
      "t": 256218.75,
      "d": 93.75,
      "v": 25
    },
    {
      "midi": 62,
      "hit": false,
      "t": 256500,
      "d": 1875,
      "v": 119
    },
    {
      "midi": 66,
      "hit": false,
      "t": 256500,
      "d": 1875,
      "v": 101
    },
    {
      "midi": 69,
      "hit": false,
      "t": 256500,
      "d": 1875,
      "v": 80
    },
    {
      "midi": 90,
      "hit": false,
      "t": 256687.5,
      "d": 93.75,
      "v": 82
    },
    {
      "midi": 90,
      "hit": false,
      "t": 256875,
      "d": 93.75,
      "v": 67
    },
    {
      "midi": 83,
      "hit": false,
      "t": 257062.5,
      "d": 93.75,
      "v": 81
    },
    {
      "midi": 86,
      "hit": false,
      "t": 257250,
      "d": 93.75,
      "v": 78
    },
    {
      "midi": 90,
      "hit": false,
      "t": 257437.5,
      "d": 93.75,
      "v": 74
    },
    {
      "midi": 83,
      "hit": false,
      "t": 257625,
      "d": 93.75,
      "v": 86
    },
    {
      "midi": 90,
      "hit": false,
      "t": 257812.5,
      "d": 93.75,
      "v": 90
    },
    {
      "midi": 90,
      "hit": false,
      "t": 258000,
      "d": 93.75,
      "v": 82
    },
    {
      "midi": 83,
      "hit": false,
      "t": 258187.5,
      "d": 93.75,
      "v": 78
    },
    {
      "midi": 86,
      "hit": false,
      "t": 258375,
      "d": 93.75,
      "v": 72
    },
    {
      "midi": 90,
      "hit": false,
      "t": 258562.5,
      "d": 93.75,
      "v": 81
    },
    {
      "midi": 66,
      "hit": false,
      "t": 258750,
      "d": 187.5,
      "v": 112
    },
    {
      "midi": 69,
      "hit": false,
      "t": 258750,
      "d": 187.5,
      "v": 108
    },
    {
      "midi": 59,
      "hit": false,
      "t": 258750,
      "d": 562.5,
      "v": 104
    },
    {
      "midi": 83,
      "hit": false,
      "t": 258843.75,
      "d": 93.75,
      "v": 74
    },
    {
      "midi": 86,
      "hit": false,
      "t": 258937.5,
      "d": 93.75,
      "v": 74
    },
    {
      "midi": 90,
      "hit": false,
      "t": 259125,
      "d": 93.75,
      "v": 73
    },
    {
      "midi": 83,
      "hit": false,
      "t": 259312.5,
      "d": 93.75,
      "v": 90
    },
    {
      "midi": 59,
      "hit": false,
      "t": 259500,
      "d": 1875,
      "v": 66
    },
    {
      "midi": 62,
      "hit": false,
      "t": 259500,
      "d": 1875,
      "v": 108
    },
    {
      "midi": 65,
      "hit": false,
      "t": 259500,
      "d": 1875,
      "v": 112
    },
    {
      "midi": 68,
      "hit": false,
      "t": 259500,
      "d": 1875,
      "v": 104
    },
    {
      "midi": 88,
      "hit": false,
      "t": 259687.5,
      "d": 93.75,
      "v": 71
    },
    {
      "midi": 83,
      "hit": false,
      "t": 259875,
      "d": 93.75,
      "v": 78
    },
    {
      "midi": 83,
      "hit": false,
      "t": 260062.5,
      "d": 93.75,
      "v": 90
    },
    {
      "midi": 88,
      "hit": false,
      "t": 260250,
      "d": 93.75,
      "v": 90
    },
    {
      "midi": 80,
      "hit": false,
      "t": 260437.5,
      "d": 93.75,
      "v": 89
    },
    {
      "midi": 83,
      "hit": false,
      "t": 260625,
      "d": 93.75,
      "v": 90
    },
    {
      "midi": 88,
      "hit": false,
      "t": 260812.5,
      "d": 93.75,
      "v": 90
    },
    {
      "midi": 88,
      "hit": false,
      "t": 261187.5,
      "d": 93.75,
      "v": 90
    },
    {
      "midi": 83,
      "hit": false,
      "t": 261375,
      "d": 93.75,
      "v": 87
    },
    {
      "midi": 88,
      "hit": false,
      "t": 261562.5,
      "d": 93.75,
      "v": 78
    },
    {
      "midi": 83,
      "hit": false,
      "t": 261750,
      "d": 93.75,
      "v": 90
    },
    {
      "midi": 88,
      "hit": false,
      "t": 261937.5,
      "d": 93.75,
      "v": 90
    },
    {
      "midi": 89,
      "hit": false,
      "t": 262125,
      "d": 93.75,
      "v": 63
    },
    {
      "midi": 90,
      "hit": false,
      "t": 262312.5,
      "d": 93.75,
      "v": 66
    },
    {
      "midi": 57,
      "hit": false,
      "t": 262500,
      "d": 2062.5,
      "v": 104
    },
    {
      "midi": 60,
      "hit": false,
      "t": 262500,
      "d": 2062.5,
      "v": 112
    },
    {
      "midi": 64,
      "hit": false,
      "t": 262500,
      "d": 2062.5,
      "v": 99
    },
    {
      "midi": 91,
      "hit": false,
      "t": 262687.5,
      "d": 93.75,
      "v": 90
    },
    {
      "midi": 84,
      "hit": false,
      "t": 262875,
      "d": 93.75,
      "v": 86
    },
    {
      "midi": 91,
      "hit": false,
      "t": 263062.5,
      "d": 93.75,
      "v": 78
    },
    {
      "midi": 91,
      "hit": false,
      "t": 263250,
      "d": 93.75,
      "v": 90
    },
    {
      "midi": 88,
      "hit": false,
      "t": 263437.5,
      "d": 93.75,
      "v": 74
    },
    {
      "midi": 84,
      "hit": false,
      "t": 263625,
      "d": 93.75,
      "v": 62
    },
    {
      "midi": 89,
      "hit": false,
      "t": 263812.5,
      "d": 93.75,
      "v": 80
    },
    {
      "midi": 91,
      "hit": false,
      "t": 263812.5,
      "d": 93.75,
      "v": 80
    },
    {
      "midi": 91,
      "hit": false,
      "t": 264000,
      "d": 93.75,
      "v": 56
    },
    {
      "midi": 84,
      "hit": false,
      "t": 264187.5,
      "d": 93.75,
      "v": 90
    },
    {
      "midi": 88,
      "hit": false,
      "t": 264468.75,
      "d": 93.75,
      "v": 25
    },
    {
      "midi": 91,
      "hit": false,
      "t": 264562.5,
      "d": 93.75,
      "v": 90
    },
    {
      "midi": 57,
      "hit": false,
      "t": 264750,
      "d": 187.5,
      "v": 99
    },
    {
      "midi": 60,
      "hit": false,
      "t": 264750,
      "d": 187.5,
      "v": 110
    },
    {
      "midi": 64,
      "hit": false,
      "t": 264750,
      "d": 187.5,
      "v": 70
    },
    {
      "midi": 91,
      "hit": false,
      "t": 264750,
      "d": 93.75,
      "v": 53
    },
    {
      "midi": 84,
      "hit": false,
      "t": 264937.5,
      "d": 93.75,
      "v": 74
    },
    {
      "midi": 88,
      "hit": false,
      "t": 265125,
      "d": 93.75,
      "v": 90
    },
    {
      "midi": 91,
      "hit": false,
      "t": 265312.5,
      "d": 93.75,
      "v": 90
    },
    {
      "midi": 54,
      "hit": false,
      "t": 265500,
      "d": 2062.5,
      "v": 104
    },
    {
      "midi": 62,
      "hit": false,
      "t": 265500,
      "d": 2062.5,
      "v": 101
    },
    {
      "midi": 57,
      "hit": false,
      "t": 265500,
      "d": 2250,
      "v": 104
    },
    {
      "midi": 60,
      "hit": false,
      "t": 265500,
      "d": 2250,
      "v": 95
    },
    {
      "midi": 81,
      "hit": false,
      "t": 265500,
      "d": 93.75,
      "v": 78
    },
    {
      "midi": 90,
      "hit": false,
      "t": 265875,
      "d": 93.75,
      "v": 82
    },
    {
      "midi": 90,
      "hit": false,
      "t": 266062.5,
      "d": 93.75,
      "v": 82
    },
    {
      "midi": 81,
      "hit": false,
      "t": 266250,
      "d": 93.75,
      "v": 65
    },
    {
      "midi": 90,
      "hit": false,
      "t": 266437.5,
      "d": 93.75,
      "v": 86
    },
    {
      "midi": 90,
      "hit": false,
      "t": 266625,
      "d": 93.75,
      "v": 89
    },
    {
      "midi": 81,
      "hit": false,
      "t": 266812.5,
      "d": 93.75,
      "v": 44
    },
    {
      "midi": 86,
      "hit": false,
      "t": 267000,
      "d": 93.75,
      "v": 78
    },
    {
      "midi": 90,
      "hit": false,
      "t": 267187.5,
      "d": 93.75,
      "v": 90
    },
    {
      "midi": 81,
      "hit": false,
      "t": 267375,
      "d": 93.75,
      "v": 82
    },
    {
      "midi": 86,
      "hit": false,
      "t": 267562.5,
      "d": 93.75,
      "v": 69
    },
    {
      "midi": 54,
      "hit": false,
      "t": 267750,
      "d": 187.5,
      "v": 88
    },
    {
      "midi": 57,
      "hit": false,
      "t": 267750,
      "d": 187.5,
      "v": 94
    },
    {
      "midi": 62,
      "hit": false,
      "t": 267750,
      "d": 187.5,
      "v": 84
    },
    {
      "midi": 90,
      "hit": false,
      "t": 267750,
      "d": 93.75,
      "v": 71
    },
    {
      "midi": 90,
      "hit": false,
      "t": 267937.5,
      "d": 93.75,
      "v": 90
    },
    {
      "midi": 81,
      "hit": false,
      "t": 268125,
      "d": 93.75,
      "v": 89
    },
    {
      "midi": 90,
      "hit": false,
      "t": 268312.5,
      "d": 93.75,
      "v": 68
    },
    {
      "midi": 54,
      "hit": false,
      "t": 268500,
      "d": 2062.5,
      "v": 101
    },
    {
      "midi": 59,
      "hit": false,
      "t": 268500,
      "d": 2250,
      "v": 112
    },
    {
      "midi": 62,
      "hit": false,
      "t": 268500,
      "d": 2437.5,
      "v": 109
    },
    {
      "midi": 83,
      "hit": false,
      "t": 268500,
      "d": 93.75,
      "v": 90
    },
    {
      "midi": 90,
      "hit": false,
      "t": 268687.5,
      "d": 93.75,
      "v": 90
    },
    {
      "midi": 90,
      "hit": false,
      "t": 268875,
      "d": 93.75,
      "v": 90
    },
    {
      "midi": 83,
      "hit": false,
      "t": 269062.5,
      "d": 93.75,
      "v": 73
    },
    {
      "midi": 90,
      "hit": false,
      "t": 269250,
      "d": 93.75,
      "v": 90
    },
    {
      "midi": 90,
      "hit": false,
      "t": 269437.5,
      "d": 93.75,
      "v": 69
    },
    {
      "midi": 83,
      "hit": false,
      "t": 269625,
      "d": 93.75,
      "v": 89
    },
    {
      "midi": 90,
      "hit": false,
      "t": 269812.5,
      "d": 93.75,
      "v": 72
    },
    {
      "midi": 90,
      "hit": false,
      "t": 270000,
      "d": 93.75,
      "v": 86
    },
    {
      "midi": 83,
      "hit": false,
      "t": 270187.5,
      "d": 93.75,
      "v": 90
    },
    {
      "midi": 86,
      "hit": false,
      "t": 270375,
      "d": 93.75,
      "v": 64
    },
    {
      "midi": 90,
      "hit": false,
      "t": 270562.5,
      "d": 93.75,
      "v": 86
    },
    {
      "midi": 54,
      "hit": false,
      "t": 270750,
      "d": 187.5,
      "v": 104
    },
    {
      "midi": 59,
      "hit": false,
      "t": 270750,
      "d": 187.5,
      "v": 102
    },
    {
      "midi": 83,
      "hit": false,
      "t": 270750,
      "d": 93.75,
      "v": 89
    },
    {
      "midi": 86,
      "hit": false,
      "t": 270937.5,
      "d": 93.75,
      "v": 55
    },
    {
      "midi": 90,
      "hit": false,
      "t": 271125,
      "d": 93.75,
      "v": 86
    },
    {
      "midi": 90,
      "hit": false,
      "t": 271312.5,
      "d": 93.75,
      "v": 89
    },
    {
      "midi": 56,
      "hit": false,
      "t": 271500,
      "d": 1875,
      "v": 104
    },
    {
      "midi": 59,
      "hit": false,
      "t": 271500,
      "d": 1875,
      "v": 116
    },
    {
      "midi": 62,
      "hit": false,
      "t": 271500,
      "d": 1875,
      "v": 104
    },
    {
      "midi": 65,
      "hit": false,
      "t": 271500,
      "d": 1875,
      "v": 117
    },
    {
      "midi": 80,
      "hit": false,
      "t": 271500,
      "d": 93.75,
      "v": 81
    },
    {
      "midi": 89,
      "hit": false,
      "t": 271687.5,
      "d": 93.75,
      "v": 52
    },
    {
      "midi": 89,
      "hit": false,
      "t": 271875,
      "d": 93.75,
      "v": 90
    },
    {
      "midi": 83,
      "hit": false,
      "t": 272062.5,
      "d": 93.75,
      "v": 90
    },
    {
      "midi": 89,
      "hit": false,
      "t": 272250,
      "d": 93.75,
      "v": 86
    },
    {
      "midi": 89,
      "hit": false,
      "t": 272437.5,
      "d": 93.75,
      "v": 90
    },
    {
      "midi": 83,
      "hit": false,
      "t": 272812.5,
      "d": 93.75,
      "v": 82
    },
    {
      "midi": 89,
      "hit": false,
      "t": 272812.5,
      "d": 93.75,
      "v": 90
    },
    {
      "midi": 88,
      "hit": false,
      "t": 273000,
      "d": 93.75,
      "v": 87
    },
    {
      "midi": 83,
      "hit": false,
      "t": 273187.5,
      "d": 93.75,
      "v": 90
    },
    {
      "midi": 88,
      "hit": false,
      "t": 273375,
      "d": 93.75,
      "v": 90
    },
    {
      "midi": 80,
      "hit": false,
      "t": 273562.5,
      "d": 93.75,
      "v": 90
    },
    {
      "midi": 86,
      "hit": false,
      "t": 273750,
      "d": 93.75,
      "v": 78
    },
    {
      "midi": 83,
      "hit": false,
      "t": 273937.5,
      "d": 93.75,
      "v": 87
    },
    {
      "midi": 88,
      "hit": false,
      "t": 274125,
      "d": 93.75,
      "v": 90
    },
    {
      "midi": 89,
      "hit": false,
      "t": 274312.5,
      "d": 93.75,
      "v": 90
    }
  ]
}