{
  "jsonPath": "Rock/Country Rock/Highway 101/baby-im-missing-you-album-version.json",
  "path": "Rock\\Country Rock\\Highway 101\\Baby_ Im Missing You (Album Version).mid",
  "name": "Baby_ Im Missing You (Album Version)",
  "difficulty": "Advanced",
  "bpm": 146.98965192850423,
  "notes": [
    {
      "midi": 41,
      "hit": false,
      "t": 2606.476,
      "d": 4.251999999999953,
      "v": 113
    },
    {
      "midi": 41,
      "hit": false,
      "t": 2610.728,
      "d": 382.67999999999984,
      "v": 122
    },
    {
      "midi": 65,
      "hit": false,
      "t": 2614.98,
      "d": 306.1439999999998,
      "v": 84
    },
    {
      "midi": 57,
      "hit": false,
      "t": 2619.232,
      "d": 284.884,
      "v": 92
    },
    {
      "midi": 53,
      "hit": false,
      "t": 2619.232,
      "d": 391.18399999999974,
      "v": 97
    },
    {
      "midi": 72,
      "hit": false,
      "t": 2623.4840000000004,
      "d": 369.924,
      "v": 113
    },
    {
      "midi": 77,
      "hit": false,
      "t": 2627.7360000000003,
      "d": 318.9000000000001,
      "v": 97
    },
    {
      "midi": 69,
      "hit": false,
      "t": 2627.7360000000003,
      "d": 323.15200000000004,
      "v": 109
    },
    {
      "midi": 65,
      "hit": false,
      "t": 2631.9880000000003,
      "d": 408.192,
      "v": 109
    },
    {
      "midi": 42,
      "hit": false,
      "t": 3014.668,
      "d": 403.94000000000005,
      "v": 118
    },
    {
      "midi": 66,
      "hit": false,
      "t": 3018.9199999999996,
      "d": 348.6640000000002,
      "v": 86
    },
    {
      "midi": 58,
      "hit": false,
      "t": 3023.1719999999996,
      "d": 314.64800000000014,
      "v": 86
    },
    {
      "midi": 54,
      "hit": false,
      "t": 3027.4239999999995,
      "d": 386.93200000000024,
      "v": 64
    },
    {
      "midi": 70,
      "hit": false,
      "t": 3031.6760000000004,
      "d": 348.66399999999976,
      "v": 90
    },
    {
      "midi": 73,
      "hit": false,
      "t": 3031.6760000000004,
      "d": 374.1759999999995,
      "v": 100
    },
    {
      "midi": 78,
      "hit": false,
      "t": 3035.9280000000003,
      "d": 352.9159999999997,
      "v": 106
    },
    {
      "midi": 66,
      "hit": false,
      "t": 3035.9280000000003,
      "d": 412.4439999999995,
      "v": 95
    },
    {
      "midi": 43,
      "hit": false,
      "t": 3422.86,
      "d": 633.5480000000002,
      "v": 106
    },
    {
      "midi": 59,
      "hit": false,
      "t": 3427.1119999999996,
      "d": 667.5639999999999,
      "v": 88
    },
    {
      "midi": 67,
      "hit": false,
      "t": 3427.1119999999996,
      "d": 735.596,
      "v": 88
    },
    {
      "midi": 55,
      "hit": false,
      "t": 3431.3639999999996,
      "d": 625.0439999999999,
      "v": 68
    },
    {
      "midi": 67,
      "hit": false,
      "t": 3435.616,
      "d": 238.11199999999963,
      "v": 113
    },
    {
      "midi": 74,
      "hit": false,
      "t": 3439.868,
      "d": 216.85199999999986,
      "v": 100
    },
    {
      "midi": 71,
      "hit": false,
      "t": 3444.12,
      "d": 204.096,
      "v": 100
    },
    {
      "midi": 79,
      "hit": false,
      "t": 3448.372,
      "d": 216.85199999999986,
      "v": 103
    },
    {
      "midi": 67,
      "hit": false,
      "t": 4013.8880000000004,
      "d": 161.57599999999957,
      "v": 109
    },
    {
      "midi": 66,
      "hit": false,
      "t": 4149.952,
      "d": 97.79600000000028,
      "v": 118
    },
    {
      "midi": 67,
      "hit": false,
      "t": 4217.984,
      "d": 204.09600000000046,
      "v": 76
    },
    {
      "midi": 48,
      "hit": false,
      "t": 4239.244000000001,
      "d": 263.6239999999998,
      "v": 106
    },
    {
      "midi": 60,
      "hit": false,
      "t": 4243.495999999999,
      "d": 1139.5360000000019,
      "v": 79
    },
    {
      "midi": 64,
      "hit": false,
      "t": 4443.339999999999,
      "d": 93.54400000000078,
      "v": 69
    },
    {
      "midi": 72,
      "hit": false,
      "t": 4447.592,
      "d": 114.80400000000009,
      "v": 69
    },
    {
      "midi": 67,
      "hit": false,
      "t": 4447.592,
      "d": 119.0560000000005,
      "v": 68
    },
    {
      "midi": 64,
      "hit": false,
      "t": 4490.112000000001,
      "d": 80.78800000000047,
      "v": 122
    },
    {
      "midi": 43,
      "hit": false,
      "t": 4647.436000000001,
      "d": 276.3800000000001,
      "v": 92
    },
    {
      "midi": 66,
      "hit": false,
      "t": 4694.208000000001,
      "d": 12.756000000000313,
      "v": 51
    },
    {
      "midi": 67,
      "hit": false,
      "t": 4830.272000000002,
      "d": 85.03999999999996,
      "v": 117
    },
    {
      "midi": 67,
      "hit": false,
      "t": 4851.532,
      "d": 131.8120000000008,
      "v": 76
    },
    {
      "midi": 64,
      "hit": false,
      "t": 4855.784000000001,
      "d": 106.30000000000018,
      "v": 63
    },
    {
      "midi": 72,
      "hit": false,
      "t": 4855.784000000001,
      "d": 114.80400000000009,
      "v": 76
    },
    {
      "midi": 66,
      "hit": false,
      "t": 4966.336000000002,
      "d": 68.03200000000015,
      "v": 112
    },
    {
      "midi": 67,
      "hit": false,
      "t": 5034.368000000002,
      "d": 221.10399999999936,
      "v": 97
    },
    {
      "midi": 48,
      "hit": false,
      "t": 5055.628000000001,
      "d": 263.6239999999998,
      "v": 97
    },
    {
      "midi": 64,
      "hit": false,
      "t": 5238.464000000002,
      "d": 89.29199999999946,
      "v": 117
    },
    {
      "midi": 67,
      "hit": false,
      "t": 5259.724000000001,
      "d": 97.79600000000028,
      "v": 73
    },
    {
      "midi": 64,
      "hit": false,
      "t": 5263.9760000000015,
      "d": 72.28399999999965,
      "v": 65
    },
    {
      "midi": 72,
      "hit": false,
      "t": 5263.9760000000015,
      "d": 76.53600000000006,
      "v": 66
    },
    {
      "midi": 43,
      "hit": false,
      "t": 5463.820000000001,
      "d": 289.1360000000004,
      "v": 97
    },
    {
      "midi": 67,
      "hit": false,
      "t": 5646.656000000001,
      "d": 85.03999999999996,
      "v": 106
    },
    {
      "midi": 64,
      "hit": false,
      "t": 5667.916000000001,
      "d": 110.55200000000059,
      "v": 64
    },
    {
      "midi": 67,
      "hit": false,
      "t": 5672.1680000000015,
      "d": 102.04799999999977,
      "v": 68
    },
    {
      "midi": 72,
      "hit": false,
      "t": 5672.1680000000015,
      "d": 119.0560000000005,
      "v": 71
    },
    {
      "midi": 67,
      "hit": false,
      "t": 5850.752,
      "d": 80.78800000000047,
      "v": 97
    },
    {
      "midi": 48,
      "hit": false,
      "t": 5872.012000000001,
      "d": 357.16799999999967,
      "v": 109
    },
    {
      "midi": 71,
      "hit": false,
      "t": 6054.848000000001,
      "d": 148.8199999999997,
      "v": 109
    },
    {
      "midi": 72,
      "hit": false,
      "t": 6054.848000000001,
      "d": 170.07999999999993,
      "v": 117
    },
    {
      "midi": 67,
      "hit": false,
      "t": 6076.108000000002,
      "d": 161.57600000000093,
      "v": 72
    },
    {
      "midi": 64,
      "hit": false,
      "t": 6080.360000000002,
      "d": 153.07200000000012,
      "v": 64
    },
    {
      "midi": 72,
      "hit": false,
      "t": 6080.360000000002,
      "d": 161.57600000000093,
      "v": 74
    },
    {
      "midi": 74,
      "hit": false,
      "t": 6258.944,
      "d": 238.11200000000008,
      "v": 95
    },
    {
      "midi": 36,
      "hit": false,
      "t": 6280.204000000001,
      "d": 369.924,
      "v": 97
    },
    {
      "midi": 67,
      "hit": false,
      "t": 6484.300000000003,
      "d": 106.30000000000109,
      "v": 69
    },
    {
      "midi": 72,
      "hit": false,
      "t": 6488.552000000003,
      "d": 97.79600000000028,
      "v": 74
    },
    {
      "midi": 64,
      "hit": false,
      "t": 6488.552000000003,
      "d": 110.55200000000059,
      "v": 76
    },
    {
      "midi": 72,
      "hit": false,
      "t": 6531.072,
      "d": 89.29200000000037,
      "v": 82
    },
    {
      "midi": 72,
      "hit": false,
      "t": 6667.136,
      "d": 178.58399999999983,
      "v": 88
    },
    {
      "midi": 43,
      "hit": false,
      "t": 6688.396000000001,
      "d": 378.4279999999999,
      "v": 100
    },
    {
      "midi": 55,
      "hit": false,
      "t": 6688.396000000004,
      "d": 2793.5640000000076,
      "v": 63
    },
    {
      "midi": 59,
      "hit": false,
      "t": 6692.648000000005,
      "d": 582.5240000000003,
      "v": 52
    },
    {
      "midi": 71,
      "hit": false,
      "t": 6871.232,
      "d": 102.04799999999977,
      "v": 122
    },
    {
      "midi": 67,
      "hit": false,
      "t": 6892.492000000005,
      "d": 165.82800000000043,
      "v": 64
    },
    {
      "midi": 62,
      "hit": false,
      "t": 6896.744000000005,
      "d": 131.8119999999999,
      "v": 60
    },
    {
      "midi": 71,
      "hit": false,
      "t": 6896.744000000005,
      "d": 140.3159999999998,
      "v": 62
    },
    {
      "midi": 50,
      "hit": false,
      "t": 7096.588000000001,
      "d": 242.3640000000005,
      "v": 106
    },
    {
      "midi": 72,
      "hit": false,
      "t": 7279.424,
      "d": 170.07999999999993,
      "v": 106
    },
    {
      "midi": 67,
      "hit": false,
      "t": 7300.684000000005,
      "d": 80.78800000000047,
      "v": 80
    },
    {
      "midi": 62,
      "hit": false,
      "t": 7304.936000000005,
      "d": 63.779999999999745,
      "v": 71
    },
    {
      "midi": 71,
      "hit": false,
      "t": 7304.936000000005,
      "d": 93.54399999999987,
      "v": 82
    },
    {
      "midi": 74,
      "hit": false,
      "t": 7483.5199999999995,
      "d": 246.61599999999999,
      "v": 103
    },
    {
      "midi": 43,
      "hit": false,
      "t": 7504.780000000002,
      "d": 348.66399999999976,
      "v": 103
    },
    {
      "midi": 59,
      "hit": false,
      "t": 7504.780000000005,
      "d": 1364.8920000000044,
      "v": 52
    },
    {
      "midi": 71,
      "hit": false,
      "t": 7708.876000000006,
      "d": 161.57600000000093,
      "v": 67
    },
    {
      "midi": 67,
      "hit": false,
      "t": 7713.128000000006,
      "d": 114.80400000000009,
      "v": 70
    },
    {
      "midi": 62,
      "hit": false,
      "t": 7713.128000000006,
      "d": 119.0560000000005,
      "v": 63
    },
    {
      "midi": 72,
      "hit": false,
      "t": 7755.647999999999,
      "d": 127.5600000000004,
      "v": 86
    },
    {
      "midi": 74,
      "hit": false,
      "t": 7891.7119999999995,
      "d": 263.6239999999998,
      "v": 103
    },
    {
      "midi": 50,
      "hit": false,
      "t": 7912.972000000002,
      "d": 331.65600000000086,
      "v": 103
    },
    {
      "midi": 71,
      "hit": false,
      "t": 8117.068000000007,
      "d": 144.56800000000112,
      "v": 74
    },
    {
      "midi": 62,
      "hit": false,
      "t": 8121.320000000007,
      "d": 93.54399999999987,
      "v": 63
    },
    {
      "midi": 67,
      "hit": false,
      "t": 8121.320000000007,
      "d": 102.04800000000068,
      "v": 70
    },
    {
      "midi": 72,
      "hit": false,
      "t": 8163.839999999999,
      "d": 110.55200000000059,
      "v": 100
    },
    {
      "midi": 72,
      "hit": false,
      "t": 8299.904,
      "d": 195.59200000000055,
      "v": 106
    },
    {
      "midi": 43,
      "hit": false,
      "t": 8321.164000000002,
      "d": 386.9320000000007,
      "v": 109
    },
    {
      "midi": 71,
      "hit": false,
      "t": 8504.000000000002,
      "d": 102.04800000000068,
      "v": 117
    },
    {
      "midi": 62,
      "hit": false,
      "t": 8525.260000000007,
      "d": 165.82800000000134,
      "v": 59
    },
    {
      "midi": 67,
      "hit": false,
      "t": 8529.512000000008,
      "d": 157.32400000000052,
      "v": 65
    },
    {
      "midi": 71,
      "hit": false,
      "t": 8529.512000000008,
      "d": 161.57600000000093,
      "v": 68
    },
    {
      "midi": 71,
      "hit": false,
      "t": 8708.096000000003,
      "d": 46.772000000000844,
      "v": 103
    },
    {
      "midi": 50,
      "hit": false,
      "t": 8729.356000000003,
      "d": 318.89999999999964,
      "v": 97
    },
    {
      "midi": 71,
      "hit": false,
      "t": 8912.192000000005,
      "d": 110.55199999999968,
      "v": 113
    },
    {
      "midi": 67,
      "hit": false,
      "t": 8933.45200000001,
      "d": 110.55199999999968,
      "v": 71
    },
    {
      "midi": 71,
      "hit": false,
      "t": 8937.70400000001,
      "d": 131.8119999999999,
      "v": 73
    },
    {
      "midi": 62,
      "hit": false,
      "t": 8937.70400000001,
      "d": 140.3160000000007,
      "v": 66
    },
    {
      "midi": 70,
      "hit": false,
      "t": 9048.256000000005,
      "d": 114.80400000000009,
      "v": 61
    },
    {
      "midi": 43,
      "hit": false,
      "t": 9137.548000000003,
      "d": 344.41200000000026,
      "v": 100
    },
    {
      "midi": 59,
      "hit": false,
      "t": 9137.548000000012,
      "d": 391.1840000000011,
      "v": 60
    },
    {
      "midi": 71,
      "hit": false,
      "t": 9184.320000000005,
      "d": 195.59200000000055,
      "v": 100
    },
    {
      "midi": 71,
      "hit": false,
      "t": 9341.644000000011,
      "d": 187.08800000000156,
      "v": 71
    },
    {
      "midi": 62,
      "hit": false,
      "t": 9345.896000000012,
      "d": 161.57600000000093,
      "v": 57
    },
    {
      "midi": 65,
      "hit": false,
      "t": 9345.896000000012,
      "d": 170.08000000000175,
      "v": 69
    },
    {
      "midi": 69,
      "hit": false,
      "t": 9388.416000000007,
      "d": 97.79600000000028,
      "v": 122
    },
    {
      "midi": 47,
      "hit": false,
      "t": 9545.740000000003,
      "d": 386.9320000000007,
      "v": 97
    },
    {
      "midi": 69,
      "hit": false,
      "t": 9592.512000000006,
      "d": 34.01599999999962,
      "v": 60
    },
    {
      "midi": 69,
      "hit": false,
      "t": 9728.576000000006,
      "d": 102.04800000000068,
      "v": 103
    },
    {
      "midi": 65,
      "hit": false,
      "t": 9749.836000000012,
      "d": 106.30000000000109,
      "v": 71
    },
    {
      "midi": 62,
      "hit": false,
      "t": 9754.088000000012,
      "d": 76.53600000000006,
      "v": 67
    },
    {
      "midi": 71,
      "hit": false,
      "t": 9754.088000000012,
      "d": 131.8119999999999,
      "v": 70
    },
    {
      "midi": 69,
      "hit": false,
      "t": 9864.640000000007,
      "d": 272.1280000000006,
      "v": 82
    },
    {
      "midi": 48,
      "hit": false,
      "t": 9953.932000000004,
      "d": 365.6720000000005,
      "v": 113
    },
    {
      "midi": 60,
      "hit": false,
      "t": 9953.932000000012,
      "d": 625.0440000000035,
      "v": 56
    },
    {
      "midi": 55,
      "hit": false,
      "t": 9958.184000000012,
      "d": 595.2800000000007,
      "v": 55
    },
    {
      "midi": 52,
      "hit": false,
      "t": 9958.184000000012,
      "d": 599.5320000000011,
      "v": 56
    },
    {
      "midi": 67,
      "hit": false,
      "t": 10136.768000000007,
      "d": 89.29199999999946,
      "v": 113
    },
    {
      "midi": 72,
      "hit": false,
      "t": 10158.028000000011,
      "d": 174.33200000000033,
      "v": 79
    },
    {
      "midi": 67,
      "hit": false,
      "t": 10158.028000000011,
      "d": 182.83600000000115,
      "v": 67
    },
    {
      "midi": 64,
      "hit": false,
      "t": 10162.280000000012,
      "d": 114.80400000000009,
      "v": 66
    },
    {
      "midi": 43,
      "hit": false,
      "t": 10362.124000000005,
      "d": 314.64799999999923,
      "v": 103
    },
    {
      "midi": 67,
      "hit": false,
      "t": 10566.220000000014,
      "d": 127.56000000000131,
      "v": 66
    },
    {
      "midi": 64,
      "hit": false,
      "t": 10570.472000000014,
      "d": 127.56000000000131,
      "v": 62
    },
    {
      "midi": 72,
      "hit": false,
      "t": 10574.724000000015,
      "d": 119.0560000000005,
      "v": 69
    },
    {
      "midi": 67,
      "hit": false,
      "t": 10612.992000000007,
      "d": 374.1759999999995,
      "v": 117
    },
    {
      "midi": 48,
      "hit": false,
      "t": 10770.316000000004,
      "d": 369.9240000000009,
      "v": 106
    },
    {
      "midi": 55,
      "hit": false,
      "t": 10770.316000000015,
      "d": 1330.8760000000038,
      "v": 62
    },
    {
      "midi": 52,
      "hit": false,
      "t": 10774.568000000016,
      "d": 1318.1200000000026,
      "v": 61
    },
    {
      "midi": 60,
      "hit": false,
      "t": 10774.568000000016,
      "d": 1330.8760000000038,
      "v": 60
    },
    {
      "midi": 64,
      "hit": false,
      "t": 10953.152000000007,
      "d": 76.53600000000006,
      "v": 109
    },
    {
      "midi": 67,
      "hit": false,
      "t": 10974.412000000015,
      "d": 136.0640000000003,
      "v": 53
    },
    {
      "midi": 72,
      "hit": false,
      "t": 10974.412000000015,
      "d": 161.57600000000093,
      "v": 60
    },
    {
      "midi": 64,
      "hit": false,
      "t": 10978.664000000015,
      "d": 110.55199999999968,
      "v": 54
    },
    {
      "midi": 43,
      "hit": false,
      "t": 11178.508000000005,
      "d": 369.9240000000009,
      "v": 97
    },
    {
      "midi": 67,
      "hit": false,
      "t": 11361.344000000008,
      "d": 102.04800000000068,
      "v": 109
    },
    {
      "midi": 64,
      "hit": false,
      "t": 11382.604000000016,
      "d": 140.3160000000007,
      "v": 64
    },
    {
      "midi": 72,
      "hit": false,
      "t": 11382.604000000016,
      "d": 165.82800000000134,
      "v": 72
    },
    {
      "midi": 67,
      "hit": false,
      "t": 11386.856000000016,
      "d": 136.0640000000003,
      "v": 76
    },
    {
      "midi": 66,
      "hit": false,
      "t": 11497.408000000009,
      "d": 76.53600000000006,
      "v": 112
    },
    {
      "midi": 67,
      "hit": false,
      "t": 11565.440000000008,
      "d": 225.3560000000016,
      "v": 90
    },
    {
      "midi": 48,
      "hit": false,
      "t": 11586.700000000006,
      "d": 318.89999999999964,
      "v": 113
    },
    {
      "midi": 64,
      "hit": false,
      "t": 11769.53600000001,
      "d": 97.79600000000028,
      "v": 109
    },
    {
      "midi": 64,
      "hit": false,
      "t": 11790.796000000017,
      "d": 161.57600000000093,
      "v": 69
    },
    {
      "midi": 67,
      "hit": false,
      "t": 11790.796000000017,
      "d": 170.08000000000175,
      "v": 74
    },
    {
      "midi": 72,
      "hit": false,
      "t": 11795.048000000017,
      "d": 161.57600000000093,
      "v": 79
    },
    {
      "midi": 43,
      "hit": false,
      "t": 11994.892000000005,
      "d": 344.41200000000026,
      "v": 106
    },
    {
      "midi": 67,
      "hit": false,
      "t": 12177.72800000001,
      "d": 89.29199999999946,
      "v": 103
    },
    {
      "midi": 64,
      "hit": false,
      "t": 12198.98800000002,
      "d": 148.8199999999997,
      "v": 80
    },
    {
      "midi": 67,
      "hit": false,
      "t": 12203.24000000002,
      "d": 148.8199999999997,
      "v": 90
    },
    {
      "midi": 72,
      "hit": false,
      "t": 12203.24000000002,
      "d": 148.8199999999997,
      "v": 92
    },
    {
      "midi": 67,
      "hit": false,
      "t": 12381.82400000001,
      "d": 89.29199999999946,
      "v": 106
    },
    {
      "midi": 48,
      "hit": false,
      "t": 12403.084000000006,
      "d": 395.4359999999997,
      "v": 109
    },
    {
      "midi": 60,
      "hit": false,
      "t": 12403.084000000019,
      "d": 650.5560000000041,
      "v": 55
    },
    {
      "midi": 55,
      "hit": false,
      "t": 12407.33600000002,
      "d": 510.2400000000034,
      "v": 54
    },
    {
      "midi": 52,
      "hit": false,
      "t": 12411.58800000002,
      "d": 518.7440000000024,
      "v": 51
    },
    {
      "midi": 72,
      "hit": false,
      "t": 12585.92000000001,
      "d": 170.07999999999993,
      "v": 113
    },
    {
      "midi": 64,
      "hit": false,
      "t": 12607.18000000002,
      "d": 161.57600000000093,
      "v": 67
    },
    {
      "midi": 67,
      "hit": false,
      "t": 12607.18000000002,
      "d": 165.82800000000134,
      "v": 77
    },
    {
      "midi": 72,
      "hit": false,
      "t": 12611.43200000002,
      "d": 165.82800000000134,
      "v": 74
    },
    {
      "midi": 36,
      "hit": false,
      "t": 12811.276000000005,
      "d": 382.6800000000003,
      "v": 103
    },
    {
      "midi": 76,
      "hit": false,
      "t": 12858.04800000001,
      "d": 89.29199999999946,
      "v": 90
    },
    {
      "midi": 74,
      "hit": false,
      "t": 12858.04800000001,
      "d": 225.35599999999977,
      "v": 95
    },
    {
      "midi": 67,
      "hit": false,
      "t": 13015.372000000023,
      "d": 106.29999999999927,
      "v": 74
    },
    {
      "midi": 64,
      "hit": false,
      "t": 13019.624000000023,
      "d": 106.29999999999927,
      "v": 76
    },
    {
      "midi": 72,
      "hit": false,
      "t": 13019.624000000023,
      "d": 144.5679999999993,
      "v": 86
    },
    {
      "midi": 72,
      "hit": false,
      "t": 13130.17600000001,
      "d": 89.29199999999946,
      "v": 103
    },
    {
      "midi": 43,
      "hit": false,
      "t": 13219.468000000006,
      "d": 374.1759999999995,
      "v": 103
    },
    {
      "midi": 55,
      "hit": false,
      "t": 13219.468000000023,
      "d": 637.8000000000011,
      "v": 61
    },
    {
      "midi": 59,
      "hit": false,
      "t": 13223.720000000023,
      "d": 603.7839999999997,
      "v": 64
    },
    {
      "midi": 72,
      "hit": false,
      "t": 13266.24000000001,
      "d": 161.57600000000093,
      "v": 103
    },
    {
      "midi": 71,
      "hit": false,
      "t": 13402.304000000011,
      "d": 114.80400000000009,
      "v": 109
    },
    {
      "midi": 67,
      "hit": false,
      "t": 13423.564000000022,
      "d": 178.58400000000074,
      "v": 72
    },
    {
      "midi": 62,
      "hit": false,
      "t": 13427.816000000023,
      "d": 136.0640000000003,
      "v": 67
    },
    {
      "midi": 71,
      "hit": false,
      "t": 13427.816000000023,
      "d": 170.07999999999993,
      "v": 77
    },
    {
      "midi": 50,
      "hit": false,
      "t": 13627.660000000005,
      "d": 374.1759999999995,
      "v": 90
    },
    {
      "midi": 71,
      "hit": false,
      "t": 13674.432000000012,
      "d": 29.763999999999214,
      "v": 61
    },
    {
      "midi": 72,
      "hit": false,
      "t": 13810.49600000001,
      "d": 174.33200000000033,
      "v": 97
    },
    {
      "midi": 67,
      "hit": false,
      "t": 13836.008000000023,
      "d": 131.8119999999999,
      "v": 77
    },
    {
      "midi": 71,
      "hit": false,
      "t": 13836.008000000023,
      "d": 140.3160000000007,
      "v": 80
    },
    {
      "midi": 62,
      "hit": false,
      "t": 13840.260000000024,
      "d": 114.80400000000009,
      "v": 72
    },
    {
      "midi": 74,
      "hit": false,
      "t": 14014.59200000001,
      "d": 267.8760000000002,
      "v": 113
    },
    {
      "midi": 43,
      "hit": false,
      "t": 14035.852000000004,
      "d": 340.15999999999985,
      "v": 117
    },
    {
      "midi": 59,
      "hit": false,
      "t": 14035.852000000024,
      "d": 1135.2840000000015,
      "v": 68
    },
    {
      "midi": 55,
      "hit": false,
      "t": 14040.104000000025,
      "d": 1420.1679999999997,
      "v": 66
    },
    {
      "midi": 67,
      "hit": false,
      "t": 14239.948000000024,
      "d": 170.07999999999993,
      "v": 76
    },
    {
      "midi": 62,
      "hit": false,
      "t": 14244.200000000024,
      "d": 127.55999999999949,
      "v": 65
    },
    {
      "midi": 71,
      "hit": false,
      "t": 14244.200000000024,
      "d": 174.33200000000033,
      "v": 74
    },
    {
      "midi": 72,
      "hit": false,
      "t": 14354.75200000001,
      "d": 89.29199999999946,
      "v": 79
    },
    {
      "midi": 74,
      "hit": false,
      "t": 14354.75200000001,
      "d": 280.6319999999996,
      "v": 88
    },
    {
      "midi": 50,
      "hit": false,
      "t": 14444.044000000004,
      "d": 369.9240000000009,
      "v": 100
    },
    {
      "midi": 67,
      "hit": false,
      "t": 14648.140000000025,
      "d": 174.33200000000033,
      "v": 73
    },
    {
      "midi": 62,
      "hit": false,
      "t": 14652.392000000025,
      "d": 114.80400000000009,
      "v": 65
    },
    {
      "midi": 71,
      "hit": false,
      "t": 14652.392000000025,
      "d": 157.32400000000052,
      "v": 76
    },
    {
      "midi": 72,
      "hit": false,
      "t": 14694.91200000001,
      "d": 85.04000000000087,
      "v": 100
    },
    {
      "midi": 72,
      "hit": false,
      "t": 14830.97600000001,
      "d": 191.34000000000015,
      "v": 100
    },
    {
      "midi": 43,
      "hit": false,
      "t": 14852.236000000004,
      "d": 369.9240000000009,
      "v": 97
    },
    {
      "midi": 71,
      "hit": false,
      "t": 15035.07200000001,
      "d": 110.55199999999968,
      "v": 106
    },
    {
      "midi": 67,
      "hit": false,
      "t": 15056.332000000026,
      "d": 161.5759999999991,
      "v": 77
    },
    {
      "midi": 62,
      "hit": false,
      "t": 15060.584000000026,
      "d": 123.30799999999908,
      "v": 68
    },
    {
      "midi": 71,
      "hit": false,
      "t": 15060.584000000026,
      "d": 144.5679999999993,
      "v": 77
    },
    {
      "midi": 71,
      "hit": false,
      "t": 15239.168000000009,
      "d": 195.59200000000055,
      "v": 122
    },
    {
      "midi": 50,
      "hit": false,
      "t": 15260.428000000005,
      "d": 340.15999999999985,
      "v": 103
    },
    {
      "midi": 69,
      "hit": false,
      "t": 15443.26400000001,
      "d": 195.59200000000055,
      "v": 117
    },
    {
      "midi": 67,
      "hit": false,
      "t": 15464.524000000025,
      "d": 102.0480000000025,
      "v": 95
    },
    {
      "midi": 71,
      "hit": false,
      "t": 15468.776000000025,
      "d": 123.30800000000272,
      "v": 88
    },
    {
      "midi": 62,
      "hit": false,
      "t": 15473.028000000026,
      "d": 85.04000000000087,
      "v": 79
    },
    {
      "midi": 67,
      "hit": false,
      "t": 15647.360000000011,
      "d": 110.55199999999968,
      "v": 100
    },
    {
      "midi": 43,
      "hit": false,
      "t": 15668.620000000004,
      "d": 369.9240000000009,
      "v": 95
    },
    {
      "midi": 59,
      "hit": false,
      "t": 15668.620000000028,
      "d": 548.5080000000016,
      "v": 54
    },
    {
      "midi": 53,
      "hit": false,
      "t": 15672.872000000028,
      "d": 382.6800000000003,
      "v": 58
    },
    {
      "midi": 67,
      "hit": false,
      "t": 15851.456000000011,
      "d": 229.60800000000017,
      "v": 113
    },
    {
      "midi": 65,
      "hit": false,
      "t": 15872.716000000028,
      "d": 174.33200000000033,
      "v": 79
    },
    {
      "midi": 62,
      "hit": false,
      "t": 15876.968000000028,
      "d": 127.55999999999949,
      "v": 70
    },
    {
      "midi": 71,
      "hit": false,
      "t": 15876.968000000028,
      "d": 182.83600000000115,
      "v": 77
    },
    {
      "midi": 69,
      "hit": false,
      "t": 16055.55200000001,
      "d": 221.10400000000118,
      "v": 117
    },
    {
      "midi": 47,
      "hit": false,
      "t": 16076.812000000005,
      "d": 420.9480000000003,
      "v": 103
    },
    {
      "midi": 71,
      "hit": false,
      "t": 16259.648000000012,
      "d": 178.58399999999892,
      "v": 113
    },
    {
      "midi": 65,
      "hit": false,
      "t": 16280.90800000003,
      "d": 110.5520000000015,
      "v": 66
    },
    {
      "midi": 62,
      "hit": false,
      "t": 16285.16000000003,
      "d": 80.78800000000047,
      "v": 71
    },
    {
      "midi": 71,
      "hit": false,
      "t": 16285.16000000003,
      "d": 144.56800000000112,
      "v": 76
    },
    {
      "midi": 72,
      "hit": false,
      "t": 16463.74400000001,
      "d": 340.15999999999985,
      "v": 106
    },
    {
      "midi": 48,
      "hit": false,
      "t": 16485.004000000004,
      "d": 369.9240000000027,
      "v": 109
    },
    {
      "midi": 64,
      "hit": false,
      "t": 16489.25600000003,
      "d": 467.72000000000116,
      "v": 80
    },
    {
      "midi": 67,
      "hit": false,
      "t": 16489.25600000003,
      "d": 710.0839999999989,
      "v": 84
    },
    {
      "midi": 72,
      "hit": false,
      "t": 16493.50800000003,
      "d": 701.5799999999981,
      "v": 90
    },
    {
      "midi": 52,
      "hit": false,
      "t": 16689.10000000003,
      "d": 369.92399999999907,
      "v": 62
    },
    {
      "midi": 69,
      "hit": false,
      "t": 16871.93600000001,
      "d": 76.53600000000006,
      "v": 122
    },
    {
      "midi": 40,
      "hit": false,
      "t": 16893.196000000007,
      "d": 310.39600000000064,
      "v": 122
    },
    {
      "midi": 55,
      "hit": false,
      "t": 16893.196000000033,
      "d": 233.85999999999694,
      "v": 66
    },
    {
      "midi": 69,
      "hit": false,
      "t": 17076.03200000001,
      "d": 85.04000000000087,
      "v": 113
    },
    {
      "midi": 60,
      "hit": false,
      "t": 17097.29200000003,
      "d": 170.0799999999981,
      "v": 68
    },
    {
      "midi": 64,
      "hit": false,
      "t": 17101.54400000003,
      "d": 127.55999999999767,
      "v": 77
    },
    {
      "midi": 41,
      "hit": false,
      "t": 17301.388000000006,
      "d": 344.41200000000026,
      "v": 109
    },
    {
      "midi": 53,
      "hit": false,
      "t": 17301.388000000028,
      "d": 1458.436000000016,
      "v": 80
    },
    {
      "midi": 69,
      "hit": false,
      "t": 17348.16000000001,
      "d": 391.1840000000011,
      "v": 122
    },
    {
      "midi": 65,
      "hit": false,
      "t": 17505.48400000003,
      "d": 131.81200000000172,
      "v": 79
    },
    {
      "midi": 60,
      "hit": false,
      "t": 17509.73600000003,
      "d": 51.02400000000125,
      "v": 82
    },
    {
      "midi": 72,
      "hit": false,
      "t": 17509.73600000003,
      "d": 114.80400000000009,
      "v": 88
    },
    {
      "midi": 69,
      "hit": false,
      "t": 17509.73600000003,
      "d": 136.06400000000212,
      "v": 80
    },
    {
      "midi": 68,
      "hit": false,
      "t": 17688.32000000001,
      "d": 136.06400000000212,
      "v": 126
    },
    {
      "midi": 48,
      "hit": false,
      "t": 17709.580000000005,
      "d": 170.08000000000175,
      "v": 113
    },
    {
      "midi": 57,
      "hit": false,
      "t": 17709.58000000003,
      "d": 216.8520000000026,
      "v": 69
    },
    {
      "midi": 69,
      "hit": false,
      "t": 17892.416000000012,
      "d": 416.6959999999999,
      "v": 106
    },
    {
      "midi": 53,
      "hit": false,
      "t": 17913.676000000007,
      "d": 204.09600000000137,
      "v": 97
    },
    {
      "midi": 69,
      "hit": false,
      "t": 17913.676000000032,
      "d": 165.82800000000134,
      "v": 77
    },
    {
      "midi": 72,
      "hit": false,
      "t": 17917.928000000033,
      "d": 127.56000000000131,
      "v": 74
    },
    {
      "midi": 65,
      "hit": false,
      "t": 17917.928000000033,
      "d": 136.06400000000212,
      "v": 74
    },
    {
      "midi": 60,
      "hit": false,
      "t": 17922.180000000033,
      "d": 59.528000000002066,
      "v": 74
    },
    {
      "midi": 41,
      "hit": false,
      "t": 18117.772000000008,
      "d": 433.7039999999979,
      "v": 103
    },
    {
      "midi": 57,
      "hit": false,
      "t": 18122.024000000034,
      "d": 212.60000000000218,
      "v": 56
    },
    {
      "midi": 67,
      "hit": false,
      "t": 18300.60800000001,
      "d": 225.35599999999977,
      "v": 86
    },
    {
      "midi": 65,
      "hit": false,
      "t": 18321.868000000035,
      "d": 136.06400000000212,
      "v": 69
    },
    {
      "midi": 72,
      "hit": false,
      "t": 18326.120000000035,
      "d": 119.0560000000005,
      "v": 72
    },
    {
      "midi": 69,
      "hit": false,
      "t": 18326.120000000035,
      "d": 144.56800000000294,
      "v": 71
    },
    {
      "midi": 60,
      "hit": false,
      "t": 18330.372000000036,
      "d": 85.04000000000087,
      "v": 70
    },
    {
      "midi": 65,
      "hit": false,
      "t": 18504.704000000012,
      "d": 306.1439999999966,
      "v": 86
    },
    {
      "midi": 48,
      "hit": false,
      "t": 18525.964000000007,
      "d": 199.84399999999732,
      "v": 113
    },
    {
      "midi": 57,
      "hit": false,
      "t": 18525.96400000004,
      "d": 216.8520000000026,
      "v": 66
    },
    {
      "midi": 67,
      "hit": false,
      "t": 18708.80000000001,
      "d": 136.0639999999985,
      "v": 109
    },
    {
      "midi": 53,
      "hit": false,
      "t": 18730.060000000005,
      "d": 204.09600000000137,
      "v": 84
    },
    {
      "midi": 69,
      "hit": false,
      "t": 18730.06000000004,
      "d": 131.81200000000172,
      "v": 76
    },
    {
      "midi": 60,
      "hit": false,
      "t": 18734.31200000004,
      "d": 76.5360000000037,
      "v": 77
    },
    {
      "midi": 65,
      "hit": false,
      "t": 18734.31200000004,
      "d": 106.30000000000291,
      "v": 76
    },
    {
      "midi": 72,
      "hit": false,
      "t": 18738.564000000042,
      "d": 93.54400000000169,
      "v": 80
    },
    {
      "midi": 69,
      "hit": false,
      "t": 18912.896000000008,
      "d": 1173.5519999999997,
      "v": 117
    },
    {
      "midi": 41,
      "hit": false,
      "t": 18934.156000000006,
      "d": 403.9399999999987,
      "v": 100
    },
    {
      "midi": 53,
      "hit": false,
      "t": 18938.408000000043,
      "d": 1045.992000000002,
      "v": 72
    },
    {
      "midi": 65,
      "hit": false,
      "t": 19138.252000000044,
      "d": 165.8279999999977,
      "v": 77
    },
    {
      "midi": 69,
      "hit": false,
      "t": 19142.504000000044,
      "d": 161.5759999999973,
      "v": 77
    },
    {
      "midi": 72,
      "hit": false,
      "t": 19142.504000000044,
      "d": 161.5759999999973,
      "v": 79
    },
    {
      "midi": 60,
      "hit": false,
      "t": 19146.756000000045,
      "d": 136.0639999999985,
      "v": 77
    },
    {
      "midi": 65,
      "hit": false,
      "t": 19151.008,
      "d": 233.86000000000058,
      "v": 126
    },
    {
      "midi": 77,
      "hit": false,
      "t": 19151.008,
      "d": 233.86000000000058,
      "v": 127
    },
    {
      "midi": 48,
      "hit": false,
      "t": 19342.348000000005,
      "d": 204.09600000000137,
      "v": 106
    },
    {
      "midi": 76,
      "hit": false,
      "t": 19346.600000000002,
      "d": 221.10399999999936,
      "v": 100
    },
    {
      "midi": 64,
      "hit": false,
      "t": 19350.852000000003,
      "d": 221.10399999999936,
      "v": 97
    },
    {
      "midi": 53,
      "hit": false,
      "t": 19546.444000000007,
      "d": 178.58399999999892,
      "v": 100
    },
    {
      "midi": 65,
      "hit": false,
      "t": 19550.696000000044,
      "d": 144.5679999999993,
      "v": 80
    },
    {
      "midi": 69,
      "hit": false,
      "t": 19550.696000000044,
      "d": 161.57600000000093,
      "v": 74
    },
    {
      "midi": 60,
      "hit": false,
      "t": 19554.948000000044,
      "d": 114.80400000000009,
      "v": 72
    },
    {
      "midi": 72,
      "hit": false,
      "t": 19554.948000000044,
      "d": 140.3159999999989,
      "v": 79
    },
    {
      "midi": 74,
      "hit": false,
      "t": 19559.2,
      "d": 174.33200000000215,
      "v": 88
    },
    {
      "midi": 62,
      "hit": false,
      "t": 19563.452,
      "d": 174.33200000000215,
      "v": 103
    },
    {
      "midi": 41,
      "hit": false,
      "t": 19750.540000000005,
      "d": 442.2079999999987,
      "v": 95
    },
    {
      "midi": 57,
      "hit": false,
      "t": 19754.792000000005,
      "d": 705.8320000000022,
      "v": 106
    },
    {
      "midi": 69,
      "hit": false,
      "t": 19759.044000000005,
      "d": 688.8240000000005,
      "v": 103
    },
    {
      "midi": 81,
      "hit": false,
      "t": 19759.044000000005,
      "d": 705.8320000000022,
      "v": 97
    },
    {
      "midi": 69,
      "hit": false,
      "t": 19954.636000000046,
      "d": 148.8199999999997,
      "v": 71
    },
    {
      "midi": 60,
      "hit": false,
      "t": 19958.888000000046,
      "d": 97.79599999999846,
      "v": 63
    },
    {
      "midi": 65,
      "hit": false,
      "t": 19958.888000000046,
      "d": 123.30799999999726,
      "v": 73
    },
    {
      "midi": 72,
      "hit": false,
      "t": 19963.140000000047,
      "d": 123.30799999999726,
      "v": 69
    },
    {
      "midi": 67,
      "hit": false,
      "t": 20137.47200000001,
      "d": 89.29200000000128,
      "v": 103
    },
    {
      "midi": 48,
      "hit": false,
      "t": 20158.732000000004,
      "d": 182.83599999999933,
      "v": 97
    },
    {
      "midi": 67,
      "hit": false,
      "t": 20341.56800000001,
      "d": 89.29200000000128,
      "v": 92
    },
    {
      "midi": 53,
      "hit": false,
      "t": 20362.828,
      "d": 178.58399999999892,
      "v": 97
    },
    {
      "midi": 69,
      "hit": false,
      "t": 20362.828000000045,
      "d": 131.81199999999808,
      "v": 76
    },
    {
      "midi": 60,
      "hit": false,
      "t": 20367.080000000045,
      "d": 68.03199999999924,
      "v": 73
    },
    {
      "midi": 65,
      "hit": false,
      "t": 20367.080000000045,
      "d": 97.79599999999846,
      "v": 76
    },
    {
      "midi": 72,
      "hit": false,
      "t": 20371.332000000046,
      "d": 97.79599999999846,
      "v": 79
    },
    {
      "midi": 48,
      "hit": false,
      "t": 20566.924,
      "d": 416.6959999999999,
      "v": 117
    },
    {
      "midi": 52,
      "hit": false,
      "t": 20566.924000000043,
      "d": 1118.276000000009,
      "v": 61
    },
    {
      "midi": 60,
      "hit": false,
      "t": 20571.176000000043,
      "d": 1131.0320000000102,
      "v": 56
    },
    {
      "midi": 67,
      "hit": false,
      "t": 20613.69600000001,
      "d": 420.9480000000003,
      "v": 109
    },
    {
      "midi": 67,
      "hit": false,
      "t": 20771.020000000044,
      "d": 140.31600000000253,
      "v": 77
    },
    {
      "midi": 64,
      "hit": false,
      "t": 20775.272000000044,
      "d": 127.56000000000131,
      "v": 67
    },
    {
      "midi": 72,
      "hit": false,
      "t": 20775.272000000044,
      "d": 161.57600000000093,
      "v": 77
    },
    {
      "midi": 65,
      "hit": false,
      "t": 20953.85600000001,
      "d": 153.07200000000012,
      "v": 106
    },
    {
      "midi": 52,
      "hit": false,
      "t": 20975.115999999998,
      "d": 178.58400000000256,
      "v": 97
    },
    {
      "midi": 67,
      "hit": false,
      "t": 21157.952000000012,
      "d": 420.9480000000003,
      "v": 113
    },
    {
      "midi": 55,
      "hit": false,
      "t": 21179.212,
      "d": 233.86000000000058,
      "v": 90
    },
    {
      "midi": 64,
      "hit": false,
      "t": 21179.212000000047,
      "d": 123.3080000000009,
      "v": 56
    },
    {
      "midi": 67,
      "hit": false,
      "t": 21183.464000000047,
      "d": 119.0560000000005,
      "v": 69
    },
    {
      "midi": 72,
      "hit": false,
      "t": 21183.464000000047,
      "d": 131.81200000000172,
      "v": 71
    },
    {
      "midi": 48,
      "hit": false,
      "t": 21383.308,
      "d": 403.9399999999987,
      "v": 95
    },
    {
      "midi": 64,
      "hit": false,
      "t": 21587.40400000005,
      "d": 110.55200000000332,
      "v": 64
    },
    {
      "midi": 67,
      "hit": false,
      "t": 21591.65600000005,
      "d": 114.80400000000373,
      "v": 76
    },
    {
      "midi": 72,
      "hit": false,
      "t": 21591.65600000005,
      "d": 136.06400000000212,
      "v": 74
    },
    {
      "midi": 64,
      "hit": false,
      "t": 21634.176000000014,
      "d": 242.36399999999776,
      "v": 97
    },
    {
      "midi": 62,
      "hit": false,
      "t": 21770.240000000013,
      "d": 195.59200000000055,
      "v": 97
    },
    {
      "midi": 52,
      "hit": false,
      "t": 21791.5,
      "d": 182.83599999999933,
      "v": 106
    },
    {
      "midi": 62,
      "hit": false,
      "t": 21974.336000000014,
      "d": 148.8199999999997,
      "v": 97
    },
    {
      "midi": 55,
      "hit": false,
      "t": 21995.595999999998,
      "d": 178.58399999999892,
      "v": 90
    },
    {
      "midi": 67,
      "hit": false,
      "t": 21995.596000000052,
      "d": 85.04000000000087,
      "v": 80
    },
    {
      "midi": 64,
      "hit": false,
      "t": 21999.848000000053,
      "d": 85.04000000000087,
      "v": 67
    },
    {
      "midi": 72,
      "hit": false,
      "t": 21999.848000000053,
      "d": 119.0560000000005,
      "v": 82
    },
    {
      "midi": 67,
      "hit": false,
      "t": 22178.432000000015,
      "d": 1045.9919999999984,
      "v": 103
    },
    {
      "midi": 48,
      "hit": false,
      "t": 22199.691999999995,
      "d": 446.4599999999991,
      "v": 106
    },
    {
      "midi": 60,
      "hit": false,
      "t": 22203.944000000054,
      "d": 1479.6960000000108,
      "v": 56
    },
    {
      "midi": 52,
      "hit": false,
      "t": 22208.196000000054,
      "d": 1403.1600000000108,
      "v": 62
    },
    {
      "midi": 67,
      "hit": false,
      "t": 22403.788000000055,
      "d": 165.82800000000134,
      "v": 71
    },
    {
      "midi": 64,
      "hit": false,
      "t": 22408.040000000055,
      "d": 144.5679999999993,
      "v": 60
    },
    {
      "midi": 72,
      "hit": false,
      "t": 22408.040000000055,
      "d": 165.82800000000134,
      "v": 74
    },
    {
      "midi": 64,
      "hit": false,
      "t": 22412.29200000001,
      "d": 229.60800000000017,
      "v": 122
    },
    {
      "midi": 76,
      "hit": false,
      "t": 22416.54400000001,
      "d": 221.10399999999936,
      "v": 127
    },
    {
      "midi": 52,
      "hit": false,
      "t": 22607.883999999995,
      "d": 187.08799999999974,
      "v": 97
    },
    {
      "midi": 74,
      "hit": false,
      "t": 22612.13600000001,
      "d": 229.60800000000017,
      "v": 106
    },
    {
      "midi": 62,
      "hit": false,
      "t": 22616.38800000001,
      "d": 225.35599999999977,
      "v": 109
    },
    {
      "midi": 55,
      "hit": false,
      "t": 22799.223999999995,
      "d": 204.09600000000137,
      "v": 90
    },
    {
      "midi": 67,
      "hit": false,
      "t": 22803.476000000057,
      "d": 148.82000000000335,
      "v": 71
    },
    {
      "midi": 64,
      "hit": false,
      "t": 22807.728000000057,
      "d": 131.81200000000172,
      "v": 63
    },
    {
      "midi": 72,
      "hit": false,
      "t": 22811.980000000058,
      "d": 165.82800000000134,
      "v": 73
    },
    {
      "midi": 72,
      "hit": false,
      "t": 22820.484000000008,
      "d": 233.86000000000058,
      "v": 92
    },
    {
      "midi": 60,
      "hit": false,
      "t": 22824.736000000008,
      "d": 191.34000000000015,
      "v": 100
    },
    {
      "midi": 48,
      "hit": false,
      "t": 23016.075999999997,
      "d": 416.6959999999999,
      "v": 100
    },
    {
      "midi": 67,
      "hit": false,
      "t": 23024.58000000001,
      "d": 680.3199999999997,
      "v": 100
    },
    {
      "midi": 79,
      "hit": false,
      "t": 23024.58000000001,
      "d": 705.8319999999985,
      "v": 100
    },
    {
      "midi": 55,
      "hit": false,
      "t": 23028.83200000001,
      "d": 701.5799999999981,
      "v": 88
    },
    {
      "midi": 67,
      "hit": false,
      "t": 23220.17200000006,
      "d": 136.06400000000212,
      "v": 77
    },
    {
      "midi": 64,
      "hit": false,
      "t": 23224.42400000006,
      "d": 114.80400000000009,
      "v": 65
    },
    {
      "midi": 72,
      "hit": false,
      "t": 23224.42400000006,
      "d": 148.82000000000335,
      "v": 79
    },
    {
      "midi": 72,
      "hit": false,
      "t": 23266.944000000014,
      "d": 208.34800000000178,
      "v": 113
    },
    {
      "midi": 52,
      "hit": false,
      "t": 23424.267999999996,
      "d": 191.34000000000015,
      "v": 90
    },
    {
      "midi": 74,
      "hit": false,
      "t": 23471.040000000015,
      "d": 178.58399999999892,
      "v": 95
    },
    {
      "midi": 55,
      "hit": false,
      "t": 23628.363999999998,
      "d": 182.83599999999933,
      "v": 95
    },
    {
      "midi": 67,
      "hit": false,
      "t": 23632.616000000064,
      "d": 72.28399999999965,
      "v": 80
    },
    {
      "midi": 64,
      "hit": false,
      "t": 23632.616000000064,
      "d": 76.53600000000006,
      "v": 77
    },
    {
      "midi": 72,
      "hit": false,
      "t": 23636.868000000064,
      "d": 85.04000000000087,
      "v": 88
    },
    {
      "midi": 72,
      "hit": false,
      "t": 23675.136000000013,
      "d": 178.58399999999892,
      "v": 122
    },
    {
      "midi": 43,
      "hit": false,
      "t": 23832.459999999995,
      "d": 395.4360000000015,
      "v": 97
    },
    {
      "midi": 55,
      "hit": false,
      "t": 23832.460000000065,
      "d": 591.0280000000057,
      "v": 58
    },
    {
      "midi": 71,
      "hit": false,
      "t": 23879.23200000001,
      "d": 616.5400000000009,
      "v": 126
    },
    {
      "midi": 59,
      "hit": false,
      "t": 24036.556000000066,
      "d": 535.752000000004,
      "v": 67
    },
    {
      "midi": 62,
      "hit": false,
      "t": 24040.808000000066,
      "d": 501.7360000000044,
      "v": 73
    },
    {
      "midi": 50,
      "hit": false,
      "t": 24240.652,
      "d": 344.41200000000026,
      "v": 103
    },
    {
      "midi": 67,
      "hit": false,
      "t": 24240.652000000067,
      "d": 165.82800000000134,
      "v": 74
    },
    {
      "midi": 72,
      "hit": false,
      "t": 24423.488000000012,
      "d": 221.10399999999936,
      "v": 106
    },
    {
      "midi": 67,
      "hit": false,
      "t": 24444.74800000007,
      "d": 127.56000000000131,
      "v": 65
    },
    {
      "midi": 71,
      "hit": false,
      "t": 24449.00000000007,
      "d": 119.0560000000005,
      "v": 90
    },
    {
      "midi": 41,
      "hit": false,
      "t": 24648.843999999997,
      "d": 433.7039999999979,
      "v": 88
    },
    {
      "midi": 53,
      "hit": false,
      "t": 24648.84400000007,
      "d": 671.8159999999989,
      "v": 61
    },
    {
      "midi": 65,
      "hit": false,
      "t": 24653.09600000007,
      "d": 170.08000000000175,
      "v": 95
    },
    {
      "midi": 69,
      "hit": false,
      "t": 24653.09600000007,
      "d": 229.60800000000017,
      "v": 88
    },
    {
      "midi": 69,
      "hit": false,
      "t": 24695.616000000013,
      "d": 667.5640000000021,
      "v": 106
    },
    {
      "midi": 57,
      "hit": false,
      "t": 24852.94000000007,
      "d": 505.9880000000012,
      "v": 71
    },
    {
      "midi": 48,
      "hit": false,
      "t": 25057.035999999996,
      "d": 357.16799999999785,
      "v": 97
    },
    {
      "midi": 60,
      "hit": false,
      "t": 25057.03600000007,
      "d": 140.3159999999989,
      "v": 62
    },
    {
      "midi": 69,
      "hit": false,
      "t": 25261.132000000067,
      "d": 127.56000000000495,
      "v": 88
    },
    {
      "midi": 60,
      "hit": false,
      "t": 25265.384000000067,
      "d": 72.28400000000329,
      "v": 76
    },
    {
      "midi": 65,
      "hit": false,
      "t": 25265.384000000067,
      "d": 89.29200000000492,
      "v": 80
    },
    {
      "midi": 67,
      "hit": false,
      "t": 25307.904000000013,
      "d": 187.08800000000338,
      "v": 113
    },
    {
      "midi": 43,
      "hit": false,
      "t": 25465.227999999996,
      "d": 416.6959999999999,
      "v": 109
    },
    {
      "midi": 55,
      "hit": false,
      "t": 25465.228000000072,
      "d": 1343.6320000000014,
      "v": 80
    },
    {
      "midi": 71,
      "hit": false,
      "t": 25512.00000000002,
      "d": 986.4639999999999,
      "v": 117
    },
    {
      "midi": 62,
      "hit": false,
      "t": 25669.324000000073,
      "d": 446.46000000000276,
      "v": 82
    },
    {
      "midi": 50,
      "hit": false,
      "t": 25873.419999999995,
      "d": 165.82800000000134,
      "v": 106
    },
    {
      "midi": 67,
      "hit": false,
      "t": 25873.420000000075,
      "d": 280.6320000000014,
      "v": 74
    },
    {
      "midi": 55,
      "hit": false,
      "t": 26077.515999999996,
      "d": 229.60800000000017,
      "v": 90
    },
    {
      "midi": 74,
      "hit": false,
      "t": 26077.516000000076,
      "d": 144.5679999999993,
      "v": 95
    },
    {
      "midi": 43,
      "hit": false,
      "t": 26281.611999999997,
      "d": 420.9480000000003,
      "v": 100
    },
    {
      "midi": 67,
      "hit": false,
      "t": 26281.612000000074,
      "d": 178.58399999999892,
      "v": 76
    },
    {
      "midi": 62,
      "hit": false,
      "t": 26285.864000000074,
      "d": 144.5679999999993,
      "v": 57
    },
    {
      "midi": 71,
      "hit": false,
      "t": 26285.864000000074,
      "d": 178.58399999999892,
      "v": 77
    },
    {
      "midi": 72,
      "hit": false,
      "t": 26464.44800000002,
      "d": 204.09600000000137,
      "v": 103
    },
    {
      "midi": 59,
      "hit": false,
      "t": 26485.70800000007,
      "d": 450.7120000000032,
      "v": 80
    },
    {
      "midi": 74,
      "hit": false,
      "t": 26668.54400000002,
      "d": 255.12000000000262,
      "v": 92
    },
    {
      "midi": 50,
      "hit": false,
      "t": 26689.803999999996,
      "d": 216.8520000000026,
      "v": 100
    },
    {
      "midi": 62,
      "hit": false,
      "t": 26689.804000000073,
      "d": 161.57600000000093,
      "v": 54
    },
    {
      "midi": 72,
      "hit": false,
      "t": 26872.64000000002,
      "d": 246.6160000000018,
      "v": 117
    },
    {
      "midi": 55,
      "hit": false,
      "t": 26893.899999999998,
      "d": 199.84400000000096,
      "v": 95
    },
    {
      "midi": 67,
      "hit": false,
      "t": 26893.900000000074,
      "d": 114.80400000000009,
      "v": 82
    },
    {
      "midi": 62,
      "hit": false,
      "t": 26898.152000000075,
      "d": 102.04799999999886,
      "v": 69
    },
    {
      "midi": 71,
      "hit": false,
      "t": 26898.152000000075,
      "d": 131.81199999999808,
      "v": 80
    },
    {
      "midi": 71,
      "hit": false,
      "t": 27076.736000000023,
      "d": 433.7039999999979,
      "v": 122
    },
    {
      "midi": 43,
      "hit": false,
      "t": 27097.996,
      "d": 284.8839999999982,
      "v": 97
    },
    {
      "midi": 55,
      "hit": false,
      "t": 27097.996000000072,
      "d": 756.856000000007,
      "v": 67
    },
    {
      "midi": 62,
      "hit": false,
      "t": 27302.092000000073,
      "d": 463.4680000000044,
      "v": 79
    },
    {
      "midi": 72,
      "hit": false,
      "t": 27484.92800000002,
      "d": 408.1919999999991,
      "v": 109
    },
    {
      "midi": 43,
      "hit": false,
      "t": 27506.188,
      "d": 395.4360000000015,
      "v": 100
    },
    {
      "midi": 67,
      "hit": false,
      "t": 27506.188000000075,
      "d": 310.3960000000043,
      "v": 66
    },
    {
      "midi": 71,
      "hit": false,
      "t": 27710.284000000076,
      "d": 131.81200000000172,
      "v": 92
    },
    {
      "midi": 69,
      "hit": false,
      "t": 27893.12000000002,
      "d": 476.22399999999834,
      "v": 103
    },
    {
      "midi": 41,
      "hit": false,
      "t": 27914.38,
      "d": 297.6399999999994,
      "v": 97
    },
    {
      "midi": 65,
      "hit": false,
      "t": 27914.380000000077,
      "d": 191.34000000000015,
      "v": 80
    },
    {
      "midi": 60,
      "hit": false,
      "t": 27918.632000000078,
      "d": 148.8199999999997,
      "v": 79
    },
    {
      "midi": 69,
      "hit": false,
      "t": 27918.632000000078,
      "d": 161.57600000000093,
      "v": 79
    },
    {
      "midi": 57,
      "hit": false,
      "t": 28118.47600000008,
      "d": 408.19200000000274,
      "v": 67
    },
    {
      "midi": 68,
      "hit": false,
      "t": 28301.31200000002,
      "d": 433.7039999999979,
      "v": 127
    },
    {
      "midi": 41,
      "hit": false,
      "t": 28322.572,
      "d": 267.8760000000002,
      "v": 100
    },
    {
      "midi": 60,
      "hit": false,
      "t": 28322.57200000008,
      "d": 148.8199999999997,
      "v": 66
    },
    {
      "midi": 60,
      "hit": false,
      "t": 28526.66800000008,
      "d": 97.7960000000021,
      "v": 70
    },
    {
      "midi": 65,
      "hit": false,
      "t": 28530.920000000082,
      "d": 106.30000000000291,
      "v": 80
    },
    {
      "midi": 69,
      "hit": false,
      "t": 28535.172000000082,
      "d": 127.56000000000131,
      "v": 84
    },
    {
      "midi": 48,
      "hit": false,
      "t": 28730.764,
      "d": 378.4279999999999,
      "v": 103
    },
    {
      "midi": 52,
      "hit": false,
      "t": 28730.764000000083,
      "d": 1369.1440000000039,
      "v": 66
    },
    {
      "midi": 67,
      "hit": false,
      "t": 28777.53600000002,
      "d": 1122.5279999999984,
      "v": 122
    },
    {
      "midi": 60,
      "hit": false,
      "t": 28934.860000000084,
      "d": 301.8919999999998,
      "v": 82
    },
    {
      "midi": 52,
      "hit": false,
      "t": 29138.956,
      "d": 221.104000000003,
      "v": 90
    },
    {
      "midi": 64,
      "hit": false,
      "t": 29138.956000000086,
      "d": 331.65599999999904,
      "v": 76
    },
    {
      "midi": 55,
      "hit": false,
      "t": 29343.052,
      "d": 195.59200000000055,
      "v": 95
    },
    {
      "midi": 72,
      "hit": false,
      "t": 29343.052000000083,
      "d": 136.06400000000212,
      "v": 95
    },
    {
      "midi": 48,
      "hit": false,
      "t": 29547.148,
      "d": 416.6959999999999,
      "v": 103
    },
    {
      "midi": 64,
      "hit": false,
      "t": 29547.148000000085,
      "d": 773.8640000000014,
      "v": 69
    },
    {
      "midi": 67,
      "hit": false,
      "t": 29551.400000000085,
      "d": 761.1080000000002,
      "v": 88
    },
    {
      "midi": 55,
      "hit": false,
      "t": 29751.244000000086,
      "d": 425.2000000000007,
      "v": 64
    },
    {
      "midi": 67,
      "hit": false,
      "t": 29934.080000000016,
      "d": 102.04799999999886,
      "v": 113
    },
    {
      "midi": 52,
      "hit": false,
      "t": 29955.34,
      "d": 182.83599999999933,
      "v": 100
    },
    {
      "midi": 60,
      "hit": false,
      "t": 29955.340000000087,
      "d": 306.14400000000023,
      "v": 88
    },
    {
      "midi": 67,
      "hit": false,
      "t": 30138.176000000014,
      "d": 148.8199999999997,
      "v": 92
    },
    {
      "midi": 55,
      "hit": false,
      "t": 30159.435999999998,
      "d": 199.84400000000096,
      "v": 97
    },
    {
      "midi": 72,
      "hit": false,
      "t": 30159.436000000085,
      "d": 123.3080000000009,
      "v": 82
    },
    {
      "midi": 69,
      "hit": false,
      "t": 30342.272000000015,
      "d": 391.1840000000011,
      "v": 103
    },
    {
      "midi": 41,
      "hit": false,
      "t": 30363.532,
      "d": 412.4439999999995,
      "v": 106
    },
    {
      "midi": 65,
      "hit": false,
      "t": 30363.532000000087,
      "d": 165.82800000000134,
      "v": 88
    },
    {
      "midi": 69,
      "hit": false,
      "t": 30367.784000000087,
      "d": 157.32400000000052,
      "v": 84
    },
    {
      "midi": 60,
      "hit": false,
      "t": 30372.036000000087,
      "d": 136.0639999999985,
      "v": 73
    },
    {
      "midi": 57,
      "hit": false,
      "t": 30372.036000000087,
      "d": 1105.5200000000077,
      "v": 70
    },
    {
      "midi": 65,
      "hit": false,
      "t": 30567.628000000088,
      "d": 161.57600000000093,
      "v": 88
    },
    {
      "midi": 60,
      "hit": false,
      "t": 30571.88000000009,
      "d": 80.78800000000047,
      "v": 86
    },
    {
      "midi": 69,
      "hit": false,
      "t": 30576.13200000009,
      "d": 153.07200000000012,
      "v": 84
    },
    {
      "midi": 72,
      "hit": false,
      "t": 30576.13200000009,
      "d": 157.32400000000052,
      "v": 90
    },
    {
      "midi": 68,
      "hit": false,
      "t": 30750.464000000018,
      "d": 165.82800000000134,
      "v": 118
    },
    {
      "midi": 48,
      "hit": false,
      "t": 30771.724,
      "d": 280.6320000000014,
      "v": 109
    },
    {
      "midi": 69,
      "hit": false,
      "t": 30954.56000000002,
      "d": 450.71199999999953,
      "v": 113
    },
    {
      "midi": 65,
      "hit": false,
      "t": 30975.82000000009,
      "d": 110.55200000000332,
      "v": 70
    },
    {
      "midi": 60,
      "hit": false,
      "t": 30980.07200000009,
      "d": 93.54400000000169,
      "v": 73
    },
    {
      "midi": 72,
      "hit": false,
      "t": 30980.07200000009,
      "d": 97.7960000000021,
      "v": 73
    },
    {
      "midi": 69,
      "hit": false,
      "t": 30980.07200000009,
      "d": 127.56000000000131,
      "v": 76
    },
    {
      "midi": 41,
      "hit": false,
      "t": 31179.916,
      "d": 297.6399999999994,
      "v": 95
    },
    {
      "midi": 65,
      "hit": false,
      "t": 31362.75200000002,
      "d": 250.8680000000022,
      "v": 106
    },
    {
      "midi": 69,
      "hit": false,
      "t": 31384.012000000093,
      "d": 148.82000000000335,
      "v": 74
    },
    {
      "midi": 60,
      "hit": false,
      "t": 31388.264000000094,
      "d": 102.0480000000025,
      "v": 69
    },
    {
      "midi": 65,
      "hit": false,
      "t": 31388.264000000094,
      "d": 123.30800000000454,
      "v": 74
    },
    {
      "midi": 72,
      "hit": false,
      "t": 31392.516000000094,
      "d": 114.80400000000373,
      "v": 72
    },
    {
      "midi": 48,
      "hit": false,
      "t": 31588.108,
      "d": 301.8919999999998,
      "v": 97
    },
    {
      "midi": 64,
      "hit": false,
      "t": 31634.88000000002,
      "d": 238.11199999999735,
      "v": 100
    },
    {
      "midi": 62,
      "hit": false,
      "t": 31770.944000000018,
      "d": 127.55999999999767,
      "v": 117
    },
    {
      "midi": 65,
      "hit": false,
      "t": 31792.204000000096,
      "d": 114.80400000000009,
      "v": 73
    },
    {
      "midi": 60,
      "hit": false,
      "t": 31796.456000000097,
      "d": 102.04799999999886,
      "v": 71
    },
    {
      "midi": 69,
      "hit": false,
      "t": 31796.456000000097,
      "d": 140.3159999999989,
      "v": 73
    },
    {
      "midi": 72,
      "hit": false,
      "t": 31800.708000000097,
      "d": 106.29999999999927,
      "v": 76
    },
    {
      "midi": 69,
      "hit": false,
      "t": 31975.040000000015,
      "d": 1173.5520000000033,
      "v": 117
    },
    {
      "midi": 41,
      "hit": false,
      "t": 31996.3,
      "d": 369.92399999999907,
      "v": 97
    },
    {
      "midi": 57,
      "hit": false,
      "t": 31996.300000000094,
      "d": 1169.3000000000138,
      "v": 54
    },
    {
      "midi": 53,
      "hit": false,
      "t": 32000.552000000094,
      "d": 1182.056000000015,
      "v": 61
    },
    {
      "midi": 65,
      "hit": false,
      "t": 32200.396000000095,
      "d": 131.81200000000172,
      "v": 73
    },
    {
      "midi": 60,
      "hit": false,
      "t": 32204.648000000096,
      "d": 106.29999999999927,
      "v": 70
    },
    {
      "midi": 69,
      "hit": false,
      "t": 32204.648000000096,
      "d": 161.57600000000093,
      "v": 71
    },
    {
      "midi": 72,
      "hit": false,
      "t": 32208.900000000096,
      "d": 110.55199999999968,
      "v": 74
    },
    {
      "midi": 65,
      "hit": false,
      "t": 32213.15200000001,
      "d": 246.6160000000018,
      "v": 117
    },
    {
      "midi": 77,
      "hit": false,
      "t": 32213.15200000001,
      "d": 246.6160000000018,
      "v": 126
    },
    {
      "midi": 48,
      "hit": false,
      "t": 32404.492,
      "d": 178.58399999999892,
      "v": 109
    },
    {
      "midi": 76,
      "hit": false,
      "t": 32408.74400000001,
      "d": 161.57600000000093,
      "v": 122
    },
    {
      "midi": 64,
      "hit": false,
      "t": 32412.99600000001,
      "d": 212.60000000000218,
      "v": 103
    },
    {
      "midi": 53,
      "hit": false,
      "t": 32608.587999999996,
      "d": 204.09599999999773,
      "v": 86
    },
    {
      "midi": 65,
      "hit": false,
      "t": 32608.588000000098,
      "d": 114.80400000000373,
      "v": 76
    },
    {
      "midi": 60,
      "hit": false,
      "t": 32612.8400000001,
      "d": 93.54400000000169,
      "v": 74
    },
    {
      "midi": 69,
      "hit": false,
      "t": 32612.8400000001,
      "d": 119.05600000000413,
      "v": 73
    },
    {
      "midi": 72,
      "hit": false,
      "t": 32617.0920000001,
      "d": 106.30000000000291,
      "v": 77
    },
    {
      "midi": 62,
      "hit": false,
      "t": 32621.344000000012,
      "d": 178.58400000000256,
      "v": 106
    },
    {
      "midi": 74,
      "hit": false,
      "t": 32621.344000000012,
      "d": 182.83600000000297,
      "v": 90
    },
    {
      "midi": 41,
      "hit": false,
      "t": 32812.683999999994,
      "d": 391.1840000000011,
      "v": 106
    },
    {
      "midi": 69,
      "hit": false,
      "t": 32821.18800000002,
      "d": 663.3119999999981,
      "v": 90
    },
    {
      "midi": 81,
      "hit": false,
      "t": 32821.18800000002,
      "d": 688.8240000000005,
      "v": 97
    },
    {
      "midi": 57,
      "hit": false,
      "t": 32825.44000000002,
      "d": 659.0599999999977,
      "v": 86
    },
    {
      "midi": 65,
      "hit": false,
      "t": 33016.7800000001,
      "d": 136.06400000000576,
      "v": 66
    },
    {
      "midi": 60,
      "hit": false,
      "t": 33021.0320000001,
      "d": 110.55200000000332,
      "v": 66
    },
    {
      "midi": 69,
      "hit": false,
      "t": 33021.0320000001,
      "d": 144.56800000000658,
      "v": 72
    },
    {
      "midi": 72,
      "hit": false,
      "t": 33025.2840000001,
      "d": 97.7960000000021,
      "v": 72
    },
    {
      "midi": 53,
      "hit": false,
      "t": 33220.876,
      "d": 327.40400000000227,
      "v": 100
    },
    {
      "midi": 67,
      "hit": false,
      "t": 33267.648000000016,
      "d": 89.29200000000128,
      "v": 100
    },
    {
      "midi": 65,
      "hit": false,
      "t": 33424.97200000011,
      "d": 93.54400000000169,
      "v": 72
    },
    {
      "midi": 60,
      "hit": false,
      "t": 33429.22400000011,
      "d": 68.03199999999924,
      "v": 74
    },
    {
      "midi": 69,
      "hit": false,
      "t": 33429.22400000011,
      "d": 106.30000000000291,
      "v": 82
    },
    {
      "midi": 72,
      "hit": false,
      "t": 33433.47600000011,
      "d": 55.27599999999802,
      "v": 71
    },
    {
      "midi": 67,
      "hit": false,
      "t": 33471.74400000001,
      "d": 72.28399999999965,
      "v": 97
    },
    {
      "midi": 48,
      "hit": false,
      "t": 33629.068,
      "d": 369.92399999999907,
      "v": 109
    },
    {
      "midi": 55,
      "hit": false,
      "t": 33629.068000000116,
      "d": 1186.3080000000118,
      "v": 62
    },
    {
      "midi": 52,
      "hit": false,
      "t": 33633.320000000116,
      "d": 1182.0560000000114,
      "v": 57
    },
    {
      "midi": 60,
      "hit": false,
      "t": 33633.320000000116,
      "d": 1194.8120000000126,
      "v": 60
    },
    {
      "midi": 67,
      "hit": false,
      "t": 33675.84000000001,
      "d": 416.69600000000355,
      "v": 103
    },
    {
      "midi": 64,
      "hit": false,
      "t": 33833.16400000011,
      "d": 85.04000000000087,
      "v": 84
    },
    {
      "midi": 67,
      "hit": false,
      "t": 33833.16400000011,
      "d": 114.80400000000373,
      "v": 70
    },
    {
      "midi": 72,
      "hit": false,
      "t": 33837.416000000114,
      "d": 136.06400000000576,
      "v": 80
    },
    {
      "midi": 43,
      "hit": false,
      "t": 34037.259999999995,
      "d": 301.8919999999998,
      "v": 88
    },
    {
      "midi": 66,
      "hit": false,
      "t": 34084.032000000014,
      "d": 140.3159999999989,
      "v": 112
    },
    {
      "midi": 67,
      "hit": false,
      "t": 34220.09600000001,
      "d": 425.1999999999971,
      "v": 100
    },
    {
      "midi": 64,
      "hit": false,
      "t": 34241.356000000116,
      "d": 119.05599999999686,
      "v": 62
    },
    {
      "midi": 72,
      "hit": false,
      "t": 34241.356000000116,
      "d": 153.07200000000012,
      "v": 76
    },
    {
      "midi": 67,
      "hit": false,
      "t": 34245.60800000012,
      "d": 114.80399999999645,
      "v": 72
    },
    {
      "midi": 48,
      "hit": false,
      "t": 34445.452,
      "d": 348.66399999999703,
      "v": 100
    },
    {
      "midi": 64,
      "hit": false,
      "t": 34649.54800000012,
      "d": 114.80400000000373,
      "v": 65
    },
    {
      "midi": 67,
      "hit": false,
      "t": 34649.54800000012,
      "d": 127.56000000000495,
      "v": 74
    },
    {
      "midi": 72,
      "hit": false,
      "t": 34653.80000000012,
      "d": 144.56800000000658,
      "v": 74
    },
    {
      "midi": 64,
      "hit": false,
      "t": 34696.32000000001,
      "d": 221.10399999999936,
      "v": 106
    },
    {
      "midi": 43,
      "hit": false,
      "t": 34853.64399999999,
      "d": 352.91599999999744,
      "v": 97
    },
    {
      "midi": 62,
      "hit": false,
      "t": 34900.416000000005,
      "d": 272.127999999997,
      "v": 88
    },
    {
      "midi": 64,
      "hit": false,
      "t": 35036.48,
      "d": 165.82800000000134,
      "v": 100
    },
    {
      "midi": 67,
      "hit": false,
      "t": 35057.74000000013,
      "d": 106.30000000000291,
      "v": 70
    },
    {
      "midi": 64,
      "hit": false,
      "t": 35061.99200000013,
      "d": 97.7960000000021,
      "v": 62
    },
    {
      "midi": 72,
      "hit": false,
      "t": 35061.99200000013,
      "d": 114.80400000000373,
      "v": 72
    },
    {
      "midi": 67,
      "hit": false,
      "t": 35240.576,
      "d": 1037.4879999999976,
      "v": 109
    },
    {
      "midi": 48,
      "hit": false,
      "t": 35261.83599999999,
      "d": 382.6800000000003,
      "v": 113
    },
    {
      "midi": 55,
      "hit": false,
      "t": 35261.836000000134,
      "d": 1262.8440000000119,
      "v": 60
    },
    {
      "midi": 60,
      "hit": false,
      "t": 35266.088000000134,
      "d": 1343.6320000000123,
      "v": 54
    },
    {
      "midi": 52,
      "hit": false,
      "t": 35266.088000000134,
      "d": 1352.1360000000132,
      "v": 56
    },
    {
      "midi": 64,
      "hit": false,
      "t": 35465.93200000013,
      "d": 131.81199999999808,
      "v": 69
    },
    {
      "midi": 67,
      "hit": false,
      "t": 35465.93200000013,
      "d": 161.57600000000093,
      "v": 76
    },
    {
      "midi": 72,
      "hit": false,
      "t": 35470.18400000013,
      "d": 140.3159999999989,
      "v": 76
    },
    {
      "midi": 76,
      "hit": false,
      "t": 35474.436000000016,
      "d": 191.3399999999965,
      "v": 126
    },
    {
      "midi": 64,
      "hit": false,
      "t": 35474.436000000016,
      "d": 212.59999999999854,
      "v": 122
    },
    {
      "midi": 52,
      "hit": false,
      "t": 35670.02799999999,
      "d": 204.09599999999773,
      "v": 106
    },
    {
      "midi": 62,
      "hit": false,
      "t": 35674.28000000001,
      "d": 216.85200000000623,
      "v": 103
    },
    {
      "midi": 74,
      "hit": false,
      "t": 35678.532000000014,
      "d": 187.08800000000338,
      "v": 106
    },
    {
      "midi": 55,
      "hit": false,
      "t": 35874.12399999999,
      "d": 187.08800000000338,
      "v": 92
    },
    {
      "midi": 72,
      "hit": false,
      "t": 35878.376000000135,
      "d": 148.8199999999997,
      "v": 76
    },
    {
      "midi": 67,
      "hit": false,
      "t": 35878.376000000135,
      "d": 161.57600000000093,
      "v": 76
    },
    {
      "midi": 64,
      "hit": false,
      "t": 35882.628000000135,
      "d": 114.80399999999645,
      "v": 66
    },
    {
      "midi": 60,
      "hit": false,
      "t": 35886.88000000002,
      "d": 187.08800000000338,
      "v": 106
    },
    {
      "midi": 72,
      "hit": false,
      "t": 35886.88000000002,
      "d": 191.34000000000378,
      "v": 95
    },
    {
      "midi": 48,
      "hit": false,
      "t": 36078.219999999994,
      "d": 382.6800000000003,
      "v": 113
    },
    {
      "midi": 67,
      "hit": false,
      "t": 36086.724000000024,
      "d": 646.3040000000037,
      "v": 88
    },
    {
      "midi": 79,
      "hit": false,
      "t": 36086.724000000024,
      "d": 667.5640000000058,
      "v": 100
    },
    {
      "midi": 55,
      "hit": false,
      "t": 36090.976000000024,
      "d": 667.5640000000058,
      "v": 97
    },
    {
      "midi": 64,
      "hit": false,
      "t": 36282.31600000014,
      "d": 110.55200000000332,
      "v": 72
    },
    {
      "midi": 67,
      "hit": false,
      "t": 36282.31600000014,
      "d": 131.81200000000536,
      "v": 76
    },
    {
      "midi": 72,
      "hit": false,
      "t": 36286.56800000014,
      "d": 131.81200000000536,
      "v": 77
    },
    {
      "midi": 72,
      "hit": false,
      "t": 36329.087999999996,
      "d": 208.34799999999814,
      "v": 113
    },
    {
      "midi": 74,
      "hit": false,
      "t": 36465.151999999995,
      "d": 246.61599999999453,
      "v": 92
    },
    {
      "midi": 52,
      "hit": false,
      "t": 36486.412,
      "d": 199.84399999999732,
      "v": 97
    },
    {
      "midi": 72,
      "hit": false,
      "t": 36669.24799999999,
      "d": 204.09599999999773,
      "v": 122
    },
    {
      "midi": 55,
      "hit": false,
      "t": 36690.507999999994,
      "d": 170.08000000000175,
      "v": 97
    },
    {
      "midi": 67,
      "hit": false,
      "t": 36690.50800000015,
      "d": 93.54400000000169,
      "v": 79
    },
    {
      "midi": 64,
      "hit": false,
      "t": 36694.76000000015,
      "d": 123.30800000000454,
      "v": 84
    },
    {
      "midi": 72,
      "hit": false,
      "t": 36694.76000000015,
      "d": 136.06400000000576,
      "v": 77
    },
    {
      "midi": 71,
      "hit": false,
      "t": 36873.34399999999,
      "d": 659.0599999999977,
      "v": 126
    },
    {
      "midi": 43,
      "hit": false,
      "t": 36894.604,
      "d": 276.3799999999974,
      "v": 100
    },
    {
      "midi": 59,
      "hit": false,
      "t": 36898.85600000015,
      "d": 756.8559999999998,
      "v": 64
    },
    {
      "midi": 55,
      "hit": false,
      "t": 36898.85600000015,
      "d": 761.1080000000002,
      "v": 73
    },
    {
      "midi": 62,
      "hit": false,
      "t": 37098.70000000015,
      "d": 518.7439999999988,
      "v": 71
    },
    {
      "midi": 43,
      "hit": false,
      "t": 37302.795999999995,
      "d": 369.92399999999907,
      "v": 95
    },
    {
      "midi": 67,
      "hit": false,
      "t": 37302.79600000015,
      "d": 335.9080000000031,
      "v": 65
    },
    {
      "midi": 71,
      "hit": false,
      "t": 37506.892000000145,
      "d": 131.81200000000536,
      "v": 90
    },
    {
      "midi": 72,
      "hit": false,
      "t": 37553.66399999999,
      "d": 246.61599999999453,
      "v": 106
    },
    {
      "midi": 41,
      "hit": false,
      "t": 37710.98799999999,
      "d": 297.6399999999994,
      "v": 97
    },
    {
      "midi": 65,
      "hit": false,
      "t": 37710.98800000015,
      "d": 182.83600000000297,
      "v": 79
    },
    {
      "midi": 60,
      "hit": false,
      "t": 37715.24000000015,
      "d": 148.8199999999997,
      "v": 84
    },
    {
      "midi": 69,
      "hit": false,
      "t": 37715.24000000015,
      "d": 161.57600000000093,
      "v": 80
    },
    {
      "midi": 69,
      "hit": false,
      "t": 37757.75999999999,
      "d": 637.7999999999956,
      "v": 117
    },
    {
      "midi": 57,
      "hit": false,
      "t": 37915.084000000155,
      "d": 463.4679999999935,
      "v": 71
    },
    {
      "midi": 41,
      "hit": false,
      "t": 38119.17999999999,
      "d": 276.3799999999974,
      "v": 97
    },
    {
      "midi": 60,
      "hit": false,
      "t": 38119.18000000015,
      "d": 340.1599999999962,
      "v": 69
    },
    {
      "midi": 65,
      "hit": false,
      "t": 38323.27600000015,
      "d": 119.05599999999686,
      "v": 84
    },
    {
      "midi": 69,
      "hit": false,
      "t": 38327.52800000015,
      "d": 131.81199999999808,
      "v": 88
    },
    {
      "midi": 67,
      "hit": false,
      "t": 38370.04799999998,
      "d": 191.34000000000378,
      "v": 117
    },
    {
      "midi": 43,
      "hit": false,
      "t": 38527.37199999999,
      "d": 399.6880000000019,
      "v": 103
    },
    {
      "midi": 59,
      "hit": false,
      "t": 38527.37200000015,
      "d": 854.6519999999873,
      "v": 63
    },
    {
      "midi": 55,
      "hit": false,
      "t": 38531.62400000015,
      "d": 1398.9079999999885,
      "v": 73
    },
    {
      "midi": 71,
      "hit": false,
      "t": 38574.143999999986,
      "d": 1033.2359999999971,
      "v": 126
    },
    {
      "midi": 62,
      "hit": false,
      "t": 38731.468000000146,
      "d": 467.7199999999939,
      "v": 74
    },
    {
      "midi": 50,
      "hit": false,
      "t": 38935.56399999999,
      "d": 170.08000000000175,
      "v": 106
    },
    {
      "midi": 67,
      "hit": false,
      "t": 38935.564000000144,
      "d": 301.89199999999255,
      "v": 80
    },
    {
      "midi": 55,
      "hit": false,
      "t": 39139.659999999996,
      "d": 216.85199999999895,
      "v": 80
    },
    {
      "midi": 74,
      "hit": false,
      "t": 39139.66000000014,
      "d": 161.57599999999366,
      "v": 82
    },
    {
      "midi": 43,
      "hit": false,
      "t": 39343.755999999994,
      "d": 399.6880000000019,
      "v": 103
    },
    {
      "midi": 67,
      "hit": false,
      "t": 39343.75600000013,
      "d": 199.8440000000046,
      "v": 76
    },
    {
      "midi": 62,
      "hit": false,
      "t": 39348.00800000013,
      "d": 170.08000000000175,
      "v": 62
    },
    {
      "midi": 71,
      "hit": false,
      "t": 39348.00800000013,
      "d": 182.83600000000297,
      "v": 72
    },
    {
      "midi": 72,
      "hit": false,
      "t": 39526.59199999998,
      "d": 216.85199999999895,
      "v": 92
    },
    {
      "midi": 59,
      "hit": false,
      "t": 39547.85200000014,
      "d": 425.20000000000437,
      "v": 67
    },
    {
      "midi": 74,
      "hit": false,
      "t": 39730.68799999998,
      "d": 238.112000000001,
      "v": 97
    },
    {
      "midi": 50,
      "hit": false,
      "t": 39751.948,
      "d": 250.86799999999494,
      "v": 100
    },
    {
      "midi": 62,
      "hit": false,
      "t": 39751.948000000135,
      "d": 331.65600000000995,
      "v": 56
    },
    {
      "midi": 72,
      "hit": false,
      "t": 39934.78399999998,
      "d": 246.6160000000018,
      "v": 117
    },
    {
      "midi": 55,
      "hit": false,
      "t": 39956.043999999994,
      "d": 191.3399999999965,
      "v": 95
    },
    {
      "midi": 67,
      "hit": false,
      "t": 39956.04400000014,
      "d": 123.30800000000454,
      "v": 80
    },
    {
      "midi": 71,
      "hit": false,
      "t": 39960.29600000014,
      "d": 131.81200000000536,
      "v": 80
    },
    {
      "midi": 71,
      "hit": false,
      "t": 40138.87999999998,
      "d": 454.96399999999267,
      "v": 126
    },
    {
      "midi": 43,
      "hit": false,
      "t": 40160.13999999999,
      "d": 280.6319999999978,
      "v": 103
    },
    {
      "midi": 55,
      "hit": false,
      "t": 40160.140000000145,
      "d": 790.8719999999958,
      "v": 65
    },
    {
      "midi": 62,
      "hit": false,
      "t": 40364.23600000014,
      "d": 480.4759999999951,
      "v": 71
    },
    {
      "midi": 72,
      "hit": false,
      "t": 40547.07199999998,
      "d": 399.68799999999464,
      "v": 109
    },
    {
      "midi": 43,
      "hit": false,
      "t": 40568.33199999999,
      "d": 365.67199999999866,
      "v": 109
    },
    {
      "midi": 67,
      "hit": false,
      "t": 40568.33200000014,
      "d": 297.6399999999994,
      "v": 70
    },
    {
      "midi": 59,
      "hit": false,
      "t": 40572.58400000014,
      "d": 318.90000000000146,
      "v": 71
    },
    {
      "midi": 71,
      "hit": false,
      "t": 40772.42800000014,
      "d": 119.05600000000413,
      "v": 79
    },
    {
      "midi": 69,
      "hit": false,
      "t": 40955.263999999974,
      "d": 433.7040000000052,
      "v": 117
    },
    {
      "midi": 41,
      "hit": false,
      "t": 40976.52399999998,
      "d": 280.6319999999978,
      "v": 100
    },
    {
      "midi": 65,
      "hit": false,
      "t": 40985.028000000144,
      "d": 170.08000000000175,
      "v": 73
    },
    {
      "midi": 69,
      "hit": false,
      "t": 40985.028000000144,
      "d": 174.33200000000215,
      "v": 79
    },
    {
      "midi": 60,
      "hit": false,
      "t": 40989.280000000144,
      "d": 153.07200000000012,
      "v": 74
    },
    {
      "midi": 57,
      "hit": false,
      "t": 41180.62000000015,
      "d": 527.2479999999996,
      "v": 70
    },
    {
      "midi": 71,
      "hit": false,
      "t": 41363.45599999998,
      "d": 437.9560000000056,
      "v": 126
    },
    {
      "midi": 41,
      "hit": false,
      "t": 41384.71599999998,
      "d": 212.59999999999854,
      "v": 100
    },
    {
      "midi": 60,
      "hit": false,
      "t": 41384.716000000146,
      "d": 161.57600000000093,
      "v": 67
    },
    {
      "midi": 60,
      "hit": false,
      "t": 41588.81200000014,
      "d": 68.03199999999924,
      "v": 41
    },
    {
      "midi": 65,
      "hit": false,
      "t": 41593.064000000144,
      "d": 80.78800000000047,
      "v": 79
    },
    {
      "midi": 69,
      "hit": false,
      "t": 41593.064000000144,
      "d": 110.55200000000332,
      "v": 84
    },
    {
      "midi": 72,
      "hit": false,
      "t": 41771.64799999998,
      "d": 803.6280000000042,
      "v": 117
    },
    {
      "midi": 48,
      "hit": false,
      "t": 41792.907999999974,
      "d": 391.1840000000011,
      "v": 95
    },
    {
      "midi": 60,
      "hit": false,
      "t": 41792.90800000015,
      "d": 276.3799999999974,
      "v": 73
    },
    {
      "midi": 52,
      "hit": false,
      "t": 41797.16000000015,
      "d": 841.8959999999934,
      "v": 65
    },
    {
      "midi": 67,
      "hit": false,
      "t": 41997.004000000146,
      "d": 131.81199999999808,
      "v": 70
    },
    {
      "midi": 64,
      "hit": false,
      "t": 42001.25600000015,
      "d": 136.0639999999985,
      "v": 65
    },
    {
      "midi": 72,
      "hit": false,
      "t": 42001.25600000015,
      "d": 140.3159999999989,
      "v": 82
    },
    {
      "midi": 52,
      "hit": false,
      "t": 42201.09999999998,
      "d": 204.09599999999773,
      "v": 100
    },
    {
      "midi": 60,
      "hit": false,
      "t": 42201.100000000144,
      "d": 170.08000000000175,
      "v": 56
    },
    {
      "midi": 55,
      "hit": false,
      "t": 42405.195999999974,
      "d": 187.08800000000338,
      "v": 90
    },
    {
      "midi": 67,
      "hit": false,
      "t": 42409.44800000014,
      "d": 229.60800000000017,
      "v": 67
    },
    {
      "midi": 72,
      "hit": false,
      "t": 42409.44800000014,
      "d": 276.3799999999974,
      "v": 76
    },
    {
      "midi": 64,
      "hit": false,
      "t": 42413.70000000014,
      "d": 208.34799999999814,
      "v": 64
    },
    {
      "midi": 48,
      "hit": false,
      "t": 42609.29199999998,
      "d": 301.8919999999998,
      "v": 100
    },
    {
      "midi": 60,
      "hit": false,
      "t": 42609.29200000014,
      "d": 72.28399999999965,
      "v": 76
    },
    {
      "midi": 48,
      "hit": false,
      "t": 43017.48399999998,
      "d": 276.3799999999974,
      "v": 88
    },
    {
      "midi": 72,
      "hit": false,
      "t": 43021.73600000014,
      "d": 212.59999999999854,
      "v": 90
    },
    {
      "midi": 60,
      "hit": false,
      "t": 43021.73600000014,
      "d": 301.8919999999998,
      "v": 80
    },
    {
      "midi": 84,
      "hit": false,
      "t": 43030.240000000034,
      "d": 242.36399999999412,
      "v": 103
    },
    {
      "midi": 72,
      "hit": false,
      "t": 43030.240000000034,
      "d": 255.11999999999534,
      "v": 103
    },
    {
      "midi": 50,
      "hit": false,
      "t": 43221.57999999998,
      "d": 136.06400000000576,
      "v": 90
    },
    {
      "midi": 74,
      "hit": false,
      "t": 43225.83200000003,
      "d": 114.80399999999645,
      "v": 80
    },
    {
      "midi": 86,
      "hit": false,
      "t": 43225.83200000003,
      "d": 119.05599999999686,
      "v": 82
    },
    {
      "midi": 52,
      "hit": false,
      "t": 43323.62799999998,
      "d": 131.81200000000536,
      "v": 90
    },
    {
      "midi": 62,
      "hit": false,
      "t": 43327.88000000014,
      "d": 123.30800000000454,
      "v": 50
    },
    {
      "midi": 74,
      "hit": false,
      "t": 43327.88000000014,
      "d": 127.56000000000495,
      "v": 37
    },
    {
      "midi": 64,
      "hit": false,
      "t": 43332.13200000014,
      "d": 123.30800000000454,
      "v": 68
    },
    {
      "midi": 76,
      "hit": false,
      "t": 43336.38400000003,
      "d": 119.05600000000413,
      "v": 103
    },
    {
      "midi": 76,
      "hit": false,
      "t": 43336.384000000144,
      "d": 72.28399999999965,
      "v": 15
    },
    {
      "midi": 88,
      "hit": false,
      "t": 43340.63600000003,
      "d": 114.80400000000373,
      "v": 77
    },
    {
      "midi": 53,
      "hit": false,
      "t": 43425.675999999985,
      "d": 276.38000000000466,
      "v": 100
    },
    {
      "midi": 77,
      "hit": false,
      "t": 43425.676000000145,
      "d": 306.14400000000023,
      "v": 90
    },
    {
      "midi": 65,
      "hit": false,
      "t": 43429.928000000145,
      "d": 335.9080000000031,
      "v": 79
    },
    {
      "midi": 81,
      "hit": false,
      "t": 43438.43200000003,
      "d": 318.90000000000146,
      "v": 90
    },
    {
      "midi": 89,
      "hit": false,
      "t": 43442.68400000003,
      "d": 267.87600000000384,
      "v": 109
    },
    {
      "midi": 77,
      "hit": false,
      "t": 43446.93600000003,
      "d": 306.14400000000023,
      "v": 103
    },
    {
      "midi": 50,
      "hit": false,
      "t": 43833.86799999999,
      "d": 297.6399999999994,
      "v": 109
    },
    {
      "midi": 74,
      "hit": false,
      "t": 43833.86800000015,
      "d": 323.15200000000186,
      "v": 69
    },
    {
      "midi": 62,
      "hit": false,
      "t": 43838.12000000015,
      "d": 374.1759999999995,
      "v": 67
    },
    {
      "midi": 82,
      "hit": false,
      "t": 43846.62400000003,
      "d": 327.40400000000227,
      "v": 100
    },
    {
      "midi": 86,
      "hit": false,
      "t": 43846.62400000003,
      "d": 327.40400000000227,
      "v": 90
    },
    {
      "midi": 74,
      "hit": false,
      "t": 43850.87600000003,
      "d": 369.92399999999907,
      "v": 103
    },
    {
      "midi": 48,
      "hit": false,
      "t": 44242.05999999999,
      "d": 327.40400000000227,
      "v": 97
    },
    {
      "midi": 72,
      "hit": false,
      "t": 44242.06000000015,
      "d": 386.9320000000007,
      "v": 77
    },
    {
      "midi": 60,
      "hit": false,
      "t": 44246.31200000015,
      "d": 382.6800000000003,
      "v": 76
    },
    {
      "midi": 84,
      "hit": false,
      "t": 44254.816000000035,
      "d": 293.387999999999,
      "v": 77
    },
    {
      "midi": 72,
      "hit": false,
      "t": 44254.816000000035,
      "d": 357.16799999999785,
      "v": 95
    },
    {
      "midi": 81,
      "hit": false,
      "t": 44259.068000000036,
      "d": 293.387999999999,
      "v": 77
    },
    {
      "midi": 45,
      "hit": false,
      "t": 44650.25199999999,
      "d": 352.91599999999744,
      "v": 97
    },
    {
      "midi": 57,
      "hit": false,
      "t": 44650.25200000015,
      "d": 429.4520000000048,
      "v": 76
    },
    {
      "midi": 69,
      "hit": false,
      "t": 44654.50400000015,
      "d": 429.4520000000048,
      "v": 79
    },
    {
      "midi": 81,
      "hit": false,
      "t": 44663.00800000003,
      "d": 318.90000000000146,
      "v": 86
    },
    {
      "midi": 69,
      "hit": false,
      "t": 44663.00800000003,
      "d": 378.4279999999999,
      "v": 95
    },
    {
      "midi": 72,
      "hit": false,
      "t": 44667.26000000003,
      "d": 314.64800000000105,
      "v": 100
    },
    {
      "midi": 41,
      "hit": false,
      "t": 45058.44399999999,
      "d": 340.1600000000035,
      "v": 95
    },
    {
      "midi": 65,
      "hit": false,
      "t": 45058.444000000156,
      "d": 1194.8120000000126,
      "v": 74
    },
    {
      "midi": 53,
      "hit": false,
      "t": 45062.696000000156,
      "d": 429.4520000000048,
      "v": 71
    },
    {
      "midi": 77,
      "hit": false,
      "t": 45071.20000000003,
      "d": 331.6560000000027,
      "v": 90
    },
    {
      "midi": 69,
      "hit": false,
      "t": 45071.20000000003,
      "d": 357.1680000000051,
      "v": 95
    },
    {
      "midi": 65,
      "hit": false,
      "t": 45075.452000000034,
      "d": 352.9160000000047,
      "v": 88
    },
    {
      "midi": 50,
      "hit": false,
      "t": 45466.63599999999,
      "d": 391.1840000000011,
      "v": 100
    },
    {
      "midi": 62,
      "hit": false,
      "t": 45466.63600000016,
      "d": 327.40400000000227,
      "v": 72
    },
    {
      "midi": 74,
      "hit": false,
      "t": 45470.88800000016,
      "d": 306.14400000000023,
      "v": 69
    },
    {
      "midi": 70,
      "hit": false,
      "t": 45483.64400000004,
      "d": 306.14400000000023,
      "v": 100
    },
    {
      "midi": 74,
      "hit": false,
      "t": 45487.89600000004,
      "d": 280.6319999999978,
      "v": 100
    },
    {
      "midi": 62,
      "hit": false,
      "t": 45492.14800000004,
      "d": 378.4279999999999,
      "v": 97
    },
    {
      "midi": 48,
      "hit": false,
      "t": 45874.827999999994,
      "d": 365.67199999999866,
      "v": 92
    },
    {
      "midi": 60,
      "hit": false,
      "t": 45874.82800000016,
      "d": 391.1840000000084,
      "v": 80
    },
    {
      "midi": 72,
      "hit": false,
      "t": 45879.08000000016,
      "d": 340.1600000000035,
      "v": 88
    },
    {
      "midi": 69,
      "hit": false,
      "t": 45887.58400000004,
      "d": 318.90000000000146,
      "v": 97
    },
    {
      "midi": 72,
      "hit": false,
      "t": 45887.58400000004,
      "d": 340.1600000000035,
      "v": 100
    },
    {
      "midi": 60,
      "hit": false,
      "t": 45891.83600000004,
      "d": 412.44400000000314,
      "v": 92
    },
    {
      "midi": 45,
      "hit": false,
      "t": 46283.01999999999,
      "d": 365.67199999999866,
      "v": 92
    },
    {
      "midi": 69,
      "hit": false,
      "t": 46283.02000000017,
      "d": 352.91599999999744,
      "v": 76
    },
    {
      "midi": 69,
      "hit": false,
      "t": 46295.77600000004,
      "d": 293.3880000000063,
      "v": 90
    },
    {
      "midi": 57,
      "hit": false,
      "t": 46295.77600000004,
      "d": 314.6480000000083,
      "v": 86
    },
    {
      "midi": 65,
      "hit": false,
      "t": 46300.02800000004,
      "d": 267.87600000000384,
      "v": 73
    },
    {
      "midi": 41,
      "hit": false,
      "t": 46691.211999999985,
      "d": 408.19200000000274,
      "v": 95
    },
    {
      "midi": 65,
      "hit": false,
      "t": 46691.21200000017,
      "d": 148.8199999999997,
      "v": 66
    },
    {
      "midi": 53,
      "hit": false,
      "t": 46695.46400000017,
      "d": 4.2520000000004075,
      "v": 66
    },
    {
      "midi": 60,
      "hit": false,
      "t": 46695.46400000017,
      "d": 204.09599999999773,
      "v": 33
    },
    {
      "midi": 57,
      "hit": false,
      "t": 46699.71600000017,
      "d": 204.09599999999773,
      "v": 61
    },
    {
      "midi": 53,
      "hit": false,
      "t": 46699.71600000017,
      "d": 1356.3880000000063,
      "v": 60
    },
    {
      "midi": 72,
      "hit": false,
      "t": 46712.47200000005,
      "d": 493.2320000000036,
      "v": 88
    },
    {
      "midi": 69,
      "hit": false,
      "t": 46716.72400000005,
      "d": 514.4920000000056,
      "v": 92
    },
    {
      "midi": 60,
      "hit": false,
      "t": 46720.97600000005,
      "d": 544.2560000000085,
      "v": 100
    },
    {
      "midi": 65,
      "hit": false,
      "t": 46895.308000000165,
      "d": 110.55200000000332,
      "v": 73
    },
    {
      "midi": 72,
      "hit": false,
      "t": 46895.308000000165,
      "d": 165.82800000000861,
      "v": 74
    },
    {
      "midi": 60,
      "hit": false,
      "t": 46899.560000000165,
      "d": 93.54400000000169,
      "v": 71
    },
    {
      "midi": 69,
      "hit": false,
      "t": 46899.560000000165,
      "d": 136.06400000000576,
      "v": 77
    },
    {
      "midi": 48,
      "hit": false,
      "t": 47099.40399999999,
      "d": 344.4119999999966,
      "v": 88
    },
    {
      "midi": 57,
      "hit": false,
      "t": 47103.65600000017,
      "d": 165.82800000000134,
      "v": 60
    },
    {
      "midi": 65,
      "hit": false,
      "t": 47303.500000000175,
      "d": 136.0639999999985,
      "v": 74
    },
    {
      "midi": 60,
      "hit": false,
      "t": 47307.752000000175,
      "d": 119.05599999999686,
      "v": 72
    },
    {
      "midi": 69,
      "hit": false,
      "t": 47307.752000000175,
      "d": 148.8199999999997,
      "v": 74
    },
    {
      "midi": 72,
      "hit": false,
      "t": 47312.004000000175,
      "d": 140.3159999999989,
      "v": 76
    },
    {
      "midi": 68,
      "hit": false,
      "t": 47316.25600000006,
      "d": 136.0639999999985,
      "v": 106
    },
    {
      "midi": 71,
      "hit": false,
      "t": 47316.25600000006,
      "d": 148.8199999999997,
      "v": 92
    },
    {
      "midi": 59,
      "hit": false,
      "t": 47320.50800000006,
      "d": 165.82800000000134,
      "v": 95
    },
    {
      "midi": 69,
      "hit": false,
      "t": 47324.76000000006,
      "d": 4.2520000000004075,
      "v": 79
    },
    {
      "midi": 41,
      "hit": false,
      "t": 47507.59599999998,
      "d": 352.91599999999744,
      "v": 86
    },
    {
      "midi": 57,
      "hit": false,
      "t": 47507.59600000017,
      "d": 68.03199999999924,
      "v": 44
    },
    {
      "midi": 72,
      "hit": false,
      "t": 47516.100000000064,
      "d": 518.7439999999988,
      "v": 88
    },
    {
      "midi": 69,
      "hit": false,
      "t": 47516.100000000064,
      "d": 561.2639999999956,
      "v": 92
    },
    {
      "midi": 60,
      "hit": false,
      "t": 47520.352000000064,
      "d": 565.515999999996,
      "v": 103
    },
    {
      "midi": 65,
      "hit": false,
      "t": 47711.69200000017,
      "d": 97.7960000000021,
      "v": 79
    },
    {
      "midi": 60,
      "hit": false,
      "t": 47715.94400000017,
      "d": 63.779999999998836,
      "v": 73
    },
    {
      "midi": 69,
      "hit": false,
      "t": 47715.94400000017,
      "d": 114.80400000000373,
      "v": 77
    },
    {
      "midi": 72,
      "hit": false,
      "t": 47720.19600000017,
      "d": 89.29200000000128,
      "v": 79
    },
    {
      "midi": 48,
      "hit": false,
      "t": 47915.78799999998,
      "d": 327.40400000000227,
      "v": 100
    },
    {
      "midi": 69,
      "hit": false,
      "t": 48119.88400000017,
      "d": 165.82800000000134,
      "v": 70
    },
    {
      "midi": 65,
      "hit": false,
      "t": 48124.13600000017,
      "d": 127.55999999999767,
      "v": 76
    },
    {
      "midi": 72,
      "hit": false,
      "t": 48124.13600000017,
      "d": 136.0639999999985,
      "v": 73
    },
    {
      "midi": 60,
      "hit": false,
      "t": 48128.38800000017,
      "d": 76.53600000000006,
      "v": 70
    },
    {
      "midi": 71,
      "hit": false,
      "t": 48132.64000000006,
      "d": 148.8199999999997,
      "v": 90
    },
    {
      "midi": 59,
      "hit": false,
      "t": 48132.64000000006,
      "d": 208.34799999999814,
      "v": 97
    },
    {
      "midi": 68,
      "hit": false,
      "t": 48136.89200000006,
      "d": 131.81199999999808,
      "v": 95
    },
    {
      "midi": 69,
      "hit": false,
      "t": 48141.14400000006,
      "d": 4.2520000000004075,
      "v": 71
    },
    {
      "midi": 41,
      "hit": false,
      "t": 48323.97999999998,
      "d": 357.16799999999785,
      "v": 100
    },
    {
      "midi": 57,
      "hit": false,
      "t": 48323.98000000017,
      "d": 642.0520000000033,
      "v": 61
    },
    {
      "midi": 53,
      "hit": false,
      "t": 48328.23200000017,
      "d": 1305.3640000000014,
      "v": 62
    },
    {
      "midi": 69,
      "hit": false,
      "t": 48332.484000000055,
      "d": 157.32400000000052,
      "v": 77
    },
    {
      "midi": 72,
      "hit": false,
      "t": 48336.736000000055,
      "d": 153.07200000000012,
      "v": 86
    },
    {
      "midi": 60,
      "hit": false,
      "t": 48336.736000000055,
      "d": 182.83600000000297,
      "v": 95
    },
    {
      "midi": 65,
      "hit": false,
      "t": 48528.07600000017,
      "d": 119.05599999999686,
      "v": 77
    },
    {
      "midi": 72,
      "hit": false,
      "t": 48532.32800000017,
      "d": 127.55999999999767,
      "v": 80
    },
    {
      "midi": 69,
      "hit": false,
      "t": 48532.32800000017,
      "d": 153.07200000000012,
      "v": 79
    },
    {
      "midi": 60,
      "hit": false,
      "t": 48536.58000000017,
      "d": 59.52799999999843,
      "v": 76
    },
    {
      "midi": 74,
      "hit": false,
      "t": 48540.83200000006,
      "d": 1139.536,
      "v": 73
    },
    {
      "midi": 62,
      "hit": false,
      "t": 48540.83200000006,
      "d": 1148.0400000000009,
      "v": 95
    },
    {
      "midi": 70,
      "hit": false,
      "t": 48545.08400000006,
      "d": 1156.5440000000017,
      "v": 71
    },
    {
      "midi": 48,
      "hit": false,
      "t": 48732.17199999998,
      "d": 157.32400000000052,
      "v": 109
    },
    {
      "midi": 53,
      "hit": false,
      "t": 48936.267999999975,
      "d": 195.59199999999691,
      "v": 82
    },
    {
      "midi": 65,
      "hit": false,
      "t": 48936.26800000017,
      "d": 136.0639999999985,
      "v": 71
    },
    {
      "midi": 72,
      "hit": false,
      "t": 48940.52000000017,
      "d": 119.05599999999686,
      "v": 76
    },
    {
      "midi": 69,
      "hit": false,
      "t": 48940.52000000017,
      "d": 148.8199999999997,
      "v": 74
    },
    {
      "midi": 60,
      "hit": false,
      "t": 48944.77200000017,
      "d": 76.53600000000006,
      "v": 70
    },
    {
      "midi": 41,
      "hit": false,
      "t": 49140.36399999997,
      "d": 374.1759999999995,
      "v": 95
    },
    {
      "midi": 65,
      "hit": false,
      "t": 49344.460000000174,
      "d": 127.55999999999767,
      "v": 69
    },
    {
      "midi": 72,
      "hit": false,
      "t": 49348.712000000174,
      "d": 123.30799999999726,
      "v": 79
    },
    {
      "midi": 69,
      "hit": false,
      "t": 49348.712000000174,
      "d": 131.81199999999808,
      "v": 71
    },
    {
      "midi": 60,
      "hit": false,
      "t": 49352.964000000175,
      "d": 63.779999999998836,
      "v": 63
    },
    {
      "midi": 48,
      "hit": false,
      "t": 49548.555999999975,
      "d": 365.67199999999866,
      "v": 109
    },
    {
      "midi": 57,
      "hit": false,
      "t": 49548.55600000017,
      "d": 59.52799999999843,
      "v": 52
    },
    {
      "midi": 65,
      "hit": false,
      "t": 49752.65200000017,
      "d": 144.56800000000658,
      "v": 72
    },
    {
      "midi": 72,
      "hit": false,
      "t": 49756.90400000017,
      "d": 123.30800000000454,
      "v": 77
    },
    {
      "midi": 69,
      "hit": false,
      "t": 49756.90400000017,
      "d": 144.56800000000658,
      "v": 73
    },
    {
      "midi": 60,
      "hit": false,
      "t": 49761.15600000017,
      "d": 93.54400000000169,
      "v": 69
    },
    {
      "midi": 41,
      "hit": false,
      "t": 49956.74799999997,
      "d": 408.19200000000274,
      "v": 97
    },
    {
      "midi": 53,
      "hit": false,
      "t": 49956.748000000174,
      "d": 591.0280000000057,
      "v": 69
    },
    {
      "midi": 69,
      "hit": false,
      "t": 49965.252000000066,
      "d": 187.08800000000338,
      "v": 95
    },
    {
      "midi": 60,
      "hit": false,
      "t": 49965.252000000066,
      "d": 216.85200000000623,
      "v": 100
    },
    {
      "midi": 72,
      "hit": false,
      "t": 49969.504000000066,
      "d": 161.57600000000093,
      "v": 97
    },
    {
      "midi": 65,
      "hit": false,
      "t": 50160.84400000017,
      "d": 136.06400000000576,
      "v": 70
    },
    {
      "midi": 60,
      "hit": false,
      "t": 50165.09600000017,
      "d": 93.54400000000169,
      "v": 73
    },
    {
      "midi": 69,
      "hit": false,
      "t": 50165.09600000017,
      "d": 136.06400000000576,
      "v": 70
    },
    {
      "midi": 72,
      "hit": false,
      "t": 50169.34800000017,
      "d": 114.80400000000373,
      "v": 80
    },
    {
      "midi": 70,
      "hit": false,
      "t": 50173.60000000007,
      "d": 340.1599999999962,
      "v": 90
    },
    {
      "midi": 62,
      "hit": false,
      "t": 50173.60000000007,
      "d": 420.9479999999967,
      "v": 82
    },
    {
      "midi": 74,
      "hit": false,
      "t": 50177.85200000007,
      "d": 289.1359999999986,
      "v": 95
    },
    {
      "midi": 48,
      "hit": false,
      "t": 50364.93999999997,
      "d": 335.9080000000031,
      "v": 103
    },
    {
      "midi": 65,
      "hit": false,
      "t": 50569.03600000018,
      "d": 119.05600000000413,
      "v": 71
    },
    {
      "midi": 69,
      "hit": false,
      "t": 50573.28800000018,
      "d": 123.30800000000454,
      "v": 76
    },
    {
      "midi": 60,
      "hit": false,
      "t": 50577.54000000018,
      "d": 76.53600000000006,
      "v": 67
    },
    {
      "midi": 72,
      "hit": false,
      "t": 50577.54000000018,
      "d": 119.05600000000413,
      "v": 77
    },
    {
      "midi": 69,
      "hit": false,
      "t": 50581.79200000007,
      "d": 170.07999999999447,
      "v": 82
    },
    {
      "midi": 72,
      "hit": false,
      "t": 50586.04400000007,
      "d": 123.30799999999726,
      "v": 90
    },
    {
      "midi": 60,
      "hit": false,
      "t": 50590.29600000007,
      "d": 174.33199999999488,
      "v": 100
    },
    {
      "midi": 41,
      "hit": false,
      "t": 50773.131999999976,
      "d": 378.4279999999999,
      "v": 97
    },
    {
      "midi": 74,
      "hit": false,
      "t": 50777.384000000064,
      "d": 144.5679999999993,
      "v": 95
    },
    {
      "midi": 70,
      "hit": false,
      "t": 50781.636000000064,
      "d": 144.5679999999993,
      "v": 86
    },
    {
      "midi": 62,
      "hit": false,
      "t": 50781.636000000064,
      "d": 216.85199999999895,
      "v": 90
    },
    {
      "midi": 65,
      "hit": false,
      "t": 50977.228000000185,
      "d": 127.56000000000495,
      "v": 67
    },
    {
      "midi": 60,
      "hit": false,
      "t": 50981.480000000185,
      "d": 110.55200000000332,
      "v": 62
    },
    {
      "midi": 69,
      "hit": false,
      "t": 50981.480000000185,
      "d": 127.56000000000495,
      "v": 70
    },
    {
      "midi": 72,
      "hit": false,
      "t": 50981.480000000185,
      "d": 131.81200000000536,
      "v": 73
    },
    {
      "midi": 72,
      "hit": false,
      "t": 50989.98400000006,
      "d": 310.39600000000064,
      "v": 95
    },
    {
      "midi": 69,
      "hit": false,
      "t": 50989.98400000006,
      "d": 314.64800000000105,
      "v": 95
    },
    {
      "midi": 60,
      "hit": false,
      "t": 50994.23600000006,
      "d": 374.1759999999995,
      "v": 95
    },
    {
      "midi": 53,
      "hit": false,
      "t": 51181.32399999998,
      "d": 348.66399999999703,
      "v": 97
    },
    {
      "midi": 69,
      "hit": false,
      "t": 51385.42000000019,
      "d": 127.56000000000495,
      "v": 70
    },
    {
      "midi": 60,
      "hit": false,
      "t": 51389.67200000019,
      "d": 55.27599999999802,
      "v": 62
    },
    {
      "midi": 65,
      "hit": false,
      "t": 51389.67200000019,
      "d": 89.29200000000128,
      "v": 67
    },
    {
      "midi": 72,
      "hit": false,
      "t": 51393.92400000019,
      "d": 110.55200000000332,
      "v": 65
    },
    {
      "midi": 68,
      "hit": false,
      "t": 51398.176000000065,
      "d": 148.8199999999997,
      "v": 77
    },
    {
      "midi": 71,
      "hit": false,
      "t": 51398.176000000065,
      "d": 148.8199999999997,
      "v": 79
    },
    {
      "midi": 59,
      "hit": false,
      "t": 51402.428000000065,
      "d": 208.34799999999814,
      "v": 86
    },
    {
      "midi": 72,
      "hit": false,
      "t": 51406.680000000066,
      "d": 76.53600000000006,
      "v": 40
    },
    {
      "midi": 48,
      "hit": false,
      "t": 51589.515999999974,
      "d": 403.9400000000023,
      "v": 100
    },
    {
      "midi": 60,
      "hit": false,
      "t": 51589.51600000019,
      "d": 1011.9760000000097,
      "v": 57
    },
    {
      "midi": 58,
      "hit": false,
      "t": 51593.76800000019,
      "d": 297.6399999999994,
      "v": 42
    },
    {
      "midi": 55,
      "hit": false,
      "t": 51593.76800000019,
      "d": 1007.7240000000093,
      "v": 63
    },
    {
      "midi": 67,
      "hit": false,
      "t": 51602.27200000006,
      "d": 1449.9320000000007,
      "v": 90
    },
    {
      "midi": 70,
      "hit": false,
      "t": 51602.27200000006,
      "d": 1458.4360000000015,
      "v": 77
    },
    {
      "midi": 58,
      "hit": false,
      "t": 51606.52400000006,
      "d": 1437.1759999999995,
      "v": 86
    },
    {
      "midi": 64,
      "hit": false,
      "t": 51793.61200000019,
      "d": 93.54400000000169,
      "v": 68
    },
    {
      "midi": 67,
      "hit": false,
      "t": 51793.61200000019,
      "d": 114.80400000000373,
      "v": 74
    },
    {
      "midi": 72,
      "hit": false,
      "t": 51797.86400000019,
      "d": 157.32400000000052,
      "v": 79
    },
    {
      "midi": 43,
      "hit": false,
      "t": 51997.70799999998,
      "d": 344.4119999999966,
      "v": 86
    },
    {
      "midi": 67,
      "hit": false,
      "t": 52201.80400000019,
      "d": 140.31600000000617,
      "v": 73
    },
    {
      "midi": 64,
      "hit": false,
      "t": 52206.05600000019,
      "d": 106.30000000000291,
      "v": 62
    },
    {
      "midi": 72,
      "hit": false,
      "t": 52206.05600000019,
      "d": 144.56800000000658,
      "v": 74
    },
    {
      "midi": 48,
      "hit": false,
      "t": 52405.89999999997,
      "d": 365.67199999999866,
      "v": 95
    },
    {
      "midi": 67,
      "hit": false,
      "t": 52609.9960000002,
      "d": 97.7960000000021,
      "v": 73
    },
    {
      "midi": 64,
      "hit": false,
      "t": 52614.2480000002,
      "d": 72.28399999999965,
      "v": 66
    },
    {
      "midi": 72,
      "hit": false,
      "t": 52618.500000000204,
      "d": 89.29200000000128,
      "v": 77
    },
    {
      "midi": 43,
      "hit": false,
      "t": 52814.09199999997,
      "d": 331.6560000000027,
      "v": 95
    },
    {
      "midi": 67,
      "hit": false,
      "t": 53018.188000000206,
      "d": 80.78800000000047,
      "v": 82
    },
    {
      "midi": 64,
      "hit": false,
      "t": 53022.440000000206,
      "d": 63.779999999998836,
      "v": 73
    },
    {
      "midi": 72,
      "hit": false,
      "t": 53022.440000000206,
      "d": 102.0480000000025,
      "v": 86
    },
    {
      "midi": 48,
      "hit": false,
      "t": 53222.28399999997,
      "d": 352.91599999999744,
      "v": 100
    },
    {
      "midi": 55,
      "hit": false,
      "t": 53222.28400000021,
      "d": 846.1480000000083,
      "v": 66
    },
    {
      "midi": 74,
      "hit": false,
      "t": 53230.788000000066,
      "d": 540.0040000000008,
      "v": 90
    },
    {
      "midi": 62,
      "hit": false,
      "t": 53230.788000000066,
      "d": 620.7920000000013,
      "v": 103
    },
    {
      "midi": 70,
      "hit": false,
      "t": 53235.040000000066,
      "d": 569.7680000000037,
      "v": 100
    },
    {
      "midi": 67,
      "hit": false,
      "t": 53426.38000000021,
      "d": 102.0480000000025,
      "v": 71
    },
    {
      "midi": 64,
      "hit": false,
      "t": 53430.63200000021,
      "d": 89.29200000000128,
      "v": 67
    },
    {
      "midi": 72,
      "hit": false,
      "t": 53430.63200000021,
      "d": 110.55200000000332,
      "v": 76
    },
    {
      "midi": 43,
      "hit": false,
      "t": 53630.475999999966,
      "d": 301.8919999999998,
      "v": 82
    },
    {
      "midi": 67,
      "hit": false,
      "t": 53834.57200000021,
      "d": 119.05600000000413,
      "v": 74
    },
    {
      "midi": 64,
      "hit": false,
      "t": 53838.82400000021,
      "d": 93.54400000000169,
      "v": 69
    },
    {
      "midi": 72,
      "hit": false,
      "t": 53838.82400000021,
      "d": 131.81200000000536,
      "v": 76
    },
    {
      "midi": 73,
      "hit": false,
      "t": 53843.07600000007,
      "d": 144.5679999999993,
      "v": 63
    },
    {
      "midi": 69,
      "hit": false,
      "t": 53847.32800000007,
      "d": 153.07200000000012,
      "v": 73
    },
    {
      "midi": 61,
      "hit": false,
      "t": 53847.32800000007,
      "d": 204.09599999999773,
      "v": 95
    },
    {
      "midi": 48,
      "hit": false,
      "t": 54038.66799999997,
      "d": 348.66399999999703,
      "v": 88
    },
    {
      "midi": 74,
      "hit": false,
      "t": 54042.920000000064,
      "d": 484.7280000000028,
      "v": 88
    },
    {
      "midi": 70,
      "hit": false,
      "t": 54047.172000000064,
      "d": 505.98800000000483,
      "v": 80
    },
    {
      "midi": 62,
      "hit": false,
      "t": 54047.172000000064,
      "d": 591.0280000000057,
      "v": 95
    },
    {
      "midi": 72,
      "hit": false,
      "t": 54242.76400000022,
      "d": 131.81199999999808,
      "v": 82
    },
    {
      "midi": 64,
      "hit": false,
      "t": 54247.01600000022,
      "d": 80.78800000000047,
      "v": 69
    },
    {
      "midi": 67,
      "hit": false,
      "t": 54247.01600000022,
      "d": 89.29200000000128,
      "v": 77
    },
    {
      "midi": 43,
      "hit": false,
      "t": 54446.859999999964,
      "d": 318.90000000000146,
      "v": 84
    },
    {
      "midi": 72,
      "hit": false,
      "t": 54650.95600000022,
      "d": 140.3159999999989,
      "v": 80
    },
    {
      "midi": 64,
      "hit": false,
      "t": 54655.20800000022,
      "d": 80.78800000000047,
      "v": 71
    },
    {
      "midi": 67,
      "hit": false,
      "t": 54655.20800000022,
      "d": 93.54400000000169,
      "v": 80
    },
    {
      "midi": 73,
      "hit": false,
      "t": 54659.46000000007,
      "d": 157.32400000000052,
      "v": 80
    },
    {
      "midi": 69,
      "hit": false,
      "t": 54663.71200000007,
      "d": 165.82800000000134,
      "v": 79
    },
    {
      "midi": 61,
      "hit": false,
      "t": 54663.71200000007,
      "d": 208.34799999999814,
      "v": 118
    },
    {
      "midi": 48,
      "hit": false,
      "t": 54855.05199999997,
      "d": 340.1600000000035,
      "v": 92
    },
    {
      "midi": 60,
      "hit": false,
      "t": 54859.304000000215,
      "d": 1369.1440000000148,
      "v": 62
    },
    {
      "midi": 52,
      "hit": false,
      "t": 54863.556000000215,
      "d": 1364.8920000000144,
      "v": 71
    },
    {
      "midi": 74,
      "hit": false,
      "t": 54867.80800000007,
      "d": 153.07200000000012,
      "v": 74
    },
    {
      "midi": 70,
      "hit": false,
      "t": 54867.80800000007,
      "d": 165.82800000000134,
      "v": 65
    },
    {
      "midi": 62,
      "hit": false,
      "t": 54867.80800000007,
      "d": 208.3480000000054,
      "v": 92
    },
    {
      "midi": 67,
      "hit": false,
      "t": 55059.14800000021,
      "d": 127.56000000000495,
      "v": 74
    },
    {
      "midi": 64,
      "hit": false,
      "t": 55063.40000000021,
      "d": 106.30000000000291,
      "v": 67
    },
    {
      "midi": 72,
      "hit": false,
      "t": 55063.40000000021,
      "d": 140.31600000000617,
      "v": 74
    },
    {
      "midi": 76,
      "hit": false,
      "t": 55067.652000000075,
      "d": 1216.0720000000001,
      "v": 80
    },
    {
      "midi": 64,
      "hit": false,
      "t": 55071.904000000075,
      "d": 1190.5599999999977,
      "v": 92
    },
    {
      "midi": 72,
      "hit": false,
      "t": 55071.904000000075,
      "d": 1207.5679999999993,
      "v": 95
    },
    {
      "midi": 43,
      "hit": false,
      "t": 55263.24399999997,
      "d": 314.64800000000105,
      "v": 97
    },
    {
      "midi": 67,
      "hit": false,
      "t": 55467.34000000022,
      "d": 97.7960000000021,
      "v": 77
    },
    {
      "midi": 64,
      "hit": false,
      "t": 55471.59200000022,
      "d": 76.53600000000006,
      "v": 69
    },
    {
      "midi": 72,
      "hit": false,
      "t": 55471.59200000022,
      "d": 106.30000000000291,
      "v": 80
    },
    {
      "midi": 48,
      "hit": false,
      "t": 55671.43599999997,
      "d": 335.9080000000031,
      "v": 95
    },
    {
      "midi": 67,
      "hit": false,
      "t": 55875.532000000225,
      "d": 80.78800000000047,
      "v": 82
    },
    {
      "midi": 64,
      "hit": false,
      "t": 55879.784000000225,
      "d": 72.28399999999965,
      "v": 71
    },
    {
      "midi": 72,
      "hit": false,
      "t": 55879.784000000225,
      "d": 97.7960000000021,
      "v": 84
    },
    {
      "midi": 43,
      "hit": false,
      "t": 56079.627999999975,
      "d": 310.39600000000064,
      "v": 97
    },
    {
      "midi": 67,
      "hit": false,
      "t": 56283.72400000023,
      "d": 119.05600000000413,
      "v": 79
    },
    {
      "midi": 64,
      "hit": false,
      "t": 56287.97600000023,
      "d": 97.7960000000021,
      "v": 73
    },
    {
      "midi": 72,
      "hit": false,
      "t": 56287.97600000023,
      "d": 127.56000000000495,
      "v": 79
    },
    {
      "midi": 48,
      "hit": false,
      "t": 56487.81999999998,
      "d": 365.67199999999866,
      "v": 106
    },
    {
      "midi": 58,
      "hit": false,
      "t": 56487.82000000023,
      "d": 1403.1600000000108,
      "v": 69
    },
    {
      "midi": 55,
      "hit": false,
      "t": 56492.07200000023,
      "d": 1305.3640000000087,
      "v": 80
    },
    {
      "midi": 60,
      "hit": false,
      "t": 56492.07200000023,
      "d": 1339.380000000012,
      "v": 76
    },
    {
      "midi": 74,
      "hit": false,
      "t": 56500.576000000074,
      "d": 106.30000000000291,
      "v": 95
    },
    {
      "midi": 62,
      "hit": false,
      "t": 56500.576000000074,
      "d": 161.5760000000082,
      "v": 95
    },
    {
      "midi": 70,
      "hit": false,
      "t": 56504.828000000074,
      "d": 127.56000000000495,
      "v": 90
    },
    {
      "midi": 67,
      "hit": false,
      "t": 56691.91600000023,
      "d": 165.82800000000134,
      "v": 70
    },
    {
      "midi": 72,
      "hit": false,
      "t": 56691.91600000023,
      "d": 165.82800000000134,
      "v": 72
    },
    {
      "midi": 64,
      "hit": false,
      "t": 56696.16800000023,
      "d": 136.0639999999985,
      "v": 64
    },
    {
      "midi": 76,
      "hit": false,
      "t": 56700.42000000008,
      "d": 301.8919999999998,
      "v": 84
    },
    {
      "midi": 64,
      "hit": false,
      "t": 56700.42000000008,
      "d": 442.208000000006,
      "v": 80
    },
    {
      "midi": 72,
      "hit": false,
      "t": 56704.67200000008,
      "d": 331.6560000000027,
      "v": 92
    },
    {
      "midi": 43,
      "hit": false,
      "t": 56896.01199999997,
      "d": 340.1600000000035,
      "v": 100
    },
    {
      "midi": 67,
      "hit": false,
      "t": 57100.10800000023,
      "d": 136.06400000000576,
      "v": 71
    },
    {
      "midi": 72,
      "hit": false,
      "t": 57100.10800000023,
      "d": 153.0720000000074,
      "v": 77
    },
    {
      "midi": 64,
      "hit": false,
      "t": 57104.36000000023,
      "d": 110.55200000000332,
      "v": 63
    },
    {
      "midi": 74,
      "hit": false,
      "t": 57108.61200000008,
      "d": 123.30800000000454,
      "v": 77
    },
    {
      "midi": 62,
      "hit": false,
      "t": 57108.61200000008,
      "d": 191.34000000000378,
      "v": 109
    },
    {
      "midi": 70,
      "hit": false,
      "t": 57112.86400000008,
      "d": 136.06400000000576,
      "v": 77
    },
    {
      "midi": 48,
      "hit": false,
      "t": 57304.203999999976,
      "d": 369.92399999999907,
      "v": 103
    },
    {
      "midi": 72,
      "hit": false,
      "t": 57308.456000000086,
      "d": 161.57600000000093,
      "v": 82
    },
    {
      "midi": 76,
      "hit": false,
      "t": 57312.708000000086,
      "d": 153.07200000000012,
      "v": 72
    },
    {
      "midi": 64,
      "hit": false,
      "t": 57312.708000000086,
      "d": 208.34799999999814,
      "v": 88
    },
    {
      "midi": 67,
      "hit": false,
      "t": 57508.30000000024,
      "d": 97.7960000000021,
      "v": 79
    },
    {
      "midi": 72,
      "hit": false,
      "t": 57508.30000000024,
      "d": 161.57600000000093,
      "v": 86
    },
    {
      "midi": 64,
      "hit": false,
      "t": 57512.55200000024,
      "d": 80.78800000000047,
      "v": 70
    },
    {
      "midi": 70,
      "hit": false,
      "t": 57516.804000000084,
      "d": 314.64800000000105,
      "v": 80
    },
    {
      "midi": 74,
      "hit": false,
      "t": 57516.804000000084,
      "d": 318.90000000000146,
      "v": 80
    },
    {
      "midi": 62,
      "hit": false,
      "t": 57521.056000000084,
      "d": 412.44400000000314,
      "v": 103
    },
    {
      "midi": 50,
      "hit": false,
      "t": 57712.39599999997,
      "d": 204.09599999999773,
      "v": 95
    },
    {
      "midi": 52,
      "hit": false,
      "t": 57916.49199999997,
      "d": 191.3399999999965,
      "v": 86
    },
    {
      "midi": 67,
      "hit": false,
      "t": 57920.744000000246,
      "d": 119.05600000000413,
      "v": 69
    },
    {
      "midi": 72,
      "hit": false,
      "t": 57920.744000000246,
      "d": 127.56000000000495,
      "v": 70
    },
    {
      "midi": 64,
      "hit": false,
      "t": 57924.99600000025,
      "d": 89.29200000000128,
      "v": 65
    },
    {
      "midi": 73,
      "hit": false,
      "t": 57929.24800000009,
      "d": 208.34799999999814,
      "v": 71
    },
    {
      "midi": 61,
      "hit": false,
      "t": 57929.24800000009,
      "d": 267.87599999999657,
      "v": 95
    },
    {
      "midi": 53,
      "hit": false,
      "t": 58120.58799999997,
      "d": 403.9400000000023,
      "v": 103
    },
    {
      "midi": 53,
      "hit": false,
      "t": 58120.58800000025,
      "d": 1084.260000000002,
      "v": 61
    },
    {
      "midi": 57,
      "hit": false,
      "t": 58124.84000000025,
      "d": 1088.5120000000024,
      "v": 62
    },
    {
      "midi": 60,
      "hit": false,
      "t": 58124.84000000025,
      "d": 1109.7720000000045,
      "v": 67
    },
    {
      "midi": 60,
      "hit": false,
      "t": 58133.344000000085,
      "d": 153.07200000000012,
      "v": 64
    },
    {
      "midi": 72,
      "hit": false,
      "t": 58133.344000000085,
      "d": 153.07200000000012,
      "v": 77
    },
    {
      "midi": 65,
      "hit": false,
      "t": 58324.68400000025,
      "d": 110.55200000000332,
      "v": 70
    },
    {
      "midi": 69,
      "hit": false,
      "t": 58324.68400000025,
      "d": 110.55200000000332,
      "v": 76
    },
    {
      "midi": 72,
      "hit": false,
      "t": 58328.93600000025,
      "d": 110.55200000000332,
      "v": 74
    },
    {
      "midi": 77,
      "hit": false,
      "t": 58333.18800000008,
      "d": 153.07200000000012,
      "v": 82
    },
    {
      "midi": 69,
      "hit": false,
      "t": 58337.44000000008,
      "d": 170.08000000000175,
      "v": 95
    },
    {
      "midi": 65,
      "hit": false,
      "t": 58337.44000000008,
      "d": 191.34000000000378,
      "v": 103
    },
    {
      "midi": 52,
      "hit": false,
      "t": 58528.77999999997,
      "d": 233.86000000000058,
      "v": 103
    },
    {
      "midi": 76,
      "hit": false,
      "t": 58537.28400000009,
      "d": 174.33200000000215,
      "v": 80
    },
    {
      "midi": 64,
      "hit": false,
      "t": 58537.28400000009,
      "d": 263.62400000000343,
      "v": 103
    },
    {
      "midi": 50,
      "hit": false,
      "t": 58732.87599999997,
      "d": 187.08800000000338,
      "v": 92
    },
    {
      "midi": 69,
      "hit": false,
      "t": 58732.87600000025,
      "d": 123.30799999999726,
      "v": 73
    },
    {
      "midi": 65,
      "hit": false,
      "t": 58737.12800000025,
      "d": 127.55999999999767,
      "v": 67
    },
    {
      "midi": 72,
      "hit": false,
      "t": 58737.12800000025,
      "d": 140.3159999999989,
      "v": 73
    },
    {
      "midi": 74,
      "hit": false,
      "t": 58741.38000000009,
      "d": 187.08800000000338,
      "v": 92
    },
    {
      "midi": 62,
      "hit": false,
      "t": 58745.63200000009,
      "d": 161.57600000000093,
      "v": 77
    },
    {
      "midi": 48,
      "hit": false,
      "t": 58936.97199999997,
      "d": 221.10399999999936,
      "v": 86
    },
    {
      "midi": 60,
      "hit": false,
      "t": 58941.2240000001,
      "d": 225.35599999999977,
      "v": 90
    },
    {
      "midi": 72,
      "hit": false,
      "t": 58945.4760000001,
      "d": 157.32400000000052,
      "v": 86
    },
    {
      "midi": 46,
      "hit": false,
      "t": 59141.06799999997,
      "d": 204.096000000005,
      "v": 106
    },
    {
      "midi": 69,
      "hit": false,
      "t": 59141.068000000254,
      "d": 119.05600000000413,
      "v": 74
    },
    {
      "midi": 65,
      "hit": false,
      "t": 59145.320000000254,
      "d": 106.30000000000291,
      "v": 70
    },
    {
      "midi": 72,
      "hit": false,
      "t": 59145.320000000254,
      "d": 136.06400000000576,
      "v": 72
    },
    {
      "midi": 58,
      "hit": false,
      "t": 59153.824000000095,
      "d": 216.85200000000623,
      "v": 95
    },
    {
      "midi": 70,
      "hit": false,
      "t": 59153.824000000095,
      "d": 221.10400000000664,
      "v": 90
    },
    {
      "midi": 45,
      "hit": false,
      "t": 59332.407999999974,
      "d": 195.5920000000042,
      "v": 92
    },
    {
      "midi": 69,
      "hit": false,
      "t": 59345.1640000001,
      "d": 170.08000000000175,
      "v": 76
    },
    {
      "midi": 57,
      "hit": false,
      "t": 59345.1640000001,
      "d": 216.85199999999895,
      "v": 90
    },
    {
      "midi": 43,
      "hit": false,
      "t": 59549.25999999998,
      "d": 187.08800000000338,
      "v": 92
    },
    {
      "midi": 69,
      "hit": false,
      "t": 59549.26000000026,
      "d": 110.55200000000332,
      "v": 77
    },
    {
      "midi": 72,
      "hit": false,
      "t": 59553.51200000026,
      "d": 106.30000000000291,
      "v": 73
    },
    {
      "midi": 65,
      "hit": false,
      "t": 59553.51200000026,
      "d": 110.55200000000332,
      "v": 73
    },
    {
      "midi": 67,
      "hit": false,
      "t": 59557.7640000001,
      "d": 153.07200000000012,
      "v": 82
    },
    {
      "midi": 55,
      "hit": false,
      "t": 59562.0160000001,
      "d": 178.58400000000256,
      "v": 92
    },
    {
      "midi": 41,
      "hit": false,
      "t": 59753.355999999985,
      "d": 382.6800000000003,
      "v": 103
    },
    {
      "midi": 53,
      "hit": false,
      "t": 59753.35600000026,
      "d": 1369.1440000000075,
      "v": 63
    },
    {
      "midi": 60,
      "hit": false,
      "t": 59757.60800000026,
      "d": 1335.1280000000042,
      "v": 56
    },
    {
      "midi": 57,
      "hit": false,
      "t": 59757.60800000026,
      "d": 1352.1360000000059,
      "v": 68
    },
    {
      "midi": 69,
      "hit": false,
      "t": 59766.1120000001,
      "d": 565.515999999996,
      "v": 86
    },
    {
      "midi": 72,
      "hit": false,
      "t": 59770.3640000001,
      "d": 522.9959999999992,
      "v": 72
    },
    {
      "midi": 71,
      "hit": false,
      "t": 59774.616000000104,
      "d": 55.27599999999802,
      "v": 77
    },
    {
      "midi": 60,
      "hit": false,
      "t": 59778.868000000104,
      "d": 561.2639999999956,
      "v": 88
    },
    {
      "midi": 69,
      "hit": false,
      "t": 59957.45200000026,
      "d": 131.81199999999808,
      "v": 69
    },
    {
      "midi": 72,
      "hit": false,
      "t": 59957.45200000026,
      "d": 140.3159999999989,
      "v": 70
    },
    {
      "midi": 65,
      "hit": false,
      "t": 59961.70400000026,
      "d": 114.80399999999645,
      "v": 62
    },
    {
      "midi": 48,
      "hit": false,
      "t": 60161.54799999999,
      "d": 386.9320000000007,
      "v": 103
    },
    {
      "midi": 65,
      "hit": false,
      "t": 60365.644000000255,
      "d": 110.55200000000332,
      "v": 62
    },
    {
      "midi": 69,
      "hit": false,
      "t": 60365.644000000255,
      "d": 123.30800000000454,
      "v": 66
    },
    {
      "midi": 72,
      "hit": false,
      "t": 60369.896000000255,
      "d": 136.06400000000576,
      "v": 72
    },
    {
      "midi": 68,
      "hit": false,
      "t": 60374.1480000001,
      "d": 161.57600000000093,
      "v": 71
    },
    {
      "midi": 59,
      "hit": false,
      "t": 60374.1480000001,
      "d": 182.83600000000297,
      "v": 92
    },
    {
      "midi": 71,
      "hit": false,
      "t": 60378.4000000001,
      "d": 127.55999999999767,
      "v": 86
    },
    {
      "midi": 41,
      "hit": false,
      "t": 60569.73999999999,
      "d": 369.92399999999907,
      "v": 92
    },
    {
      "midi": 72,
      "hit": false,
      "t": 60573.99200000011,
      "d": 552.760000000002,
      "v": 88
    },
    {
      "midi": 69,
      "hit": false,
      "t": 60578.24400000011,
      "d": 578.2720000000045,
      "v": 86
    },
    {
      "midi": 60,
      "hit": false,
      "t": 60578.24400000011,
      "d": 654.8080000000045,
      "v": 88
    },
    {
      "midi": 69,
      "hit": false,
      "t": 60773.83600000026,
      "d": 106.30000000000291,
      "v": 74
    },
    {
      "midi": 72,
      "hit": false,
      "t": 60773.83600000026,
      "d": 140.31600000000617,
      "v": 79
    },
    {
      "midi": 65,
      "hit": false,
      "t": 60778.08800000026,
      "d": 89.29200000000128,
      "v": 69
    },
    {
      "midi": 48,
      "hit": false,
      "t": 60977.931999999986,
      "d": 369.92399999999907,
      "v": 109
    },
    {
      "midi": 69,
      "hit": false,
      "t": 61182.02800000027,
      "d": 110.55200000000332,
      "v": 86
    },
    {
      "midi": 65,
      "hit": false,
      "t": 61186.28000000027,
      "d": 80.78800000000047,
      "v": 79
    },
    {
      "midi": 72,
      "hit": false,
      "t": 61186.28000000027,
      "d": 119.05600000000413,
      "v": 82
    },
    {
      "midi": 68,
      "hit": false,
      "t": 61190.532000000116,
      "d": 144.5679999999993,
      "v": 77
    },
    {
      "midi": 71,
      "hit": false,
      "t": 61194.784000000116,
      "d": 119.05599999999686,
      "v": 88
    },
    {
      "midi": 59,
      "hit": false,
      "t": 61194.784000000116,
      "d": 174.33200000000215,
      "v": 109
    },
    {
      "midi": 41,
      "hit": false,
      "t": 61386.12399999998,
      "d": 365.67199999999866,
      "v": 97
    },
    {
      "midi": 57,
      "hit": false,
      "t": 61386.12400000027,
      "d": 1148.0400000000154,
      "v": 79
    },
    {
      "midi": 60,
      "hit": false,
      "t": 61390.37600000027,
      "d": 1114.0240000000122,
      "v": 68
    },
    {
      "midi": 53,
      "hit": false,
      "t": 61390.37600000027,
      "d": 1131.0320000000138,
      "v": 73
    },
    {
      "midi": 69,
      "hit": false,
      "t": 61398.88000000012,
      "d": 93.54400000000169,
      "v": 88
    },
    {
      "midi": 72,
      "hit": false,
      "t": 61398.88000000012,
      "d": 106.30000000000291,
      "v": 82
    },
    {
      "midi": 60,
      "hit": false,
      "t": 61403.13200000012,
      "d": 170.08000000000175,
      "v": 106
    },
    {
      "midi": 69,
      "hit": false,
      "t": 61590.22000000027,
      "d": 106.30000000000291,
      "v": 71
    },
    {
      "midi": 65,
      "hit": false,
      "t": 61590.22000000027,
      "d": 114.80400000000373,
      "v": 56
    },
    {
      "midi": 72,
      "hit": false,
      "t": 61594.47200000027,
      "d": 144.56800000000658,
      "v": 69
    },
    {
      "midi": 74,
      "hit": false,
      "t": 61598.724000000126,
      "d": 1156.5440000000017,
      "v": 92
    },
    {
      "midi": 70,
      "hit": false,
      "t": 61598.724000000126,
      "d": 1165.0480000000025,
      "v": 90
    },
    {
      "midi": 62,
      "hit": false,
      "t": 61602.976000000126,
      "d": 1135.2839999999997,
      "v": 95
    },
    {
      "midi": 48,
      "hit": false,
      "t": 61794.31599999998,
      "d": 374.1759999999995,
      "v": 109
    },
    {
      "midi": 65,
      "hit": false,
      "t": 61998.41200000028,
      "d": 85.04000000000087,
      "v": 66
    },
    {
      "midi": 69,
      "hit": false,
      "t": 61998.41200000028,
      "d": 89.29200000000128,
      "v": 77
    },
    {
      "midi": 72,
      "hit": false,
      "t": 62002.66400000028,
      "d": 93.54400000000169,
      "v": 68
    },
    {
      "midi": 41,
      "hit": false,
      "t": 62202.50799999998,
      "d": 357.16799999999785,
      "v": 95
    },
    {
      "midi": 65,
      "hit": false,
      "t": 62406.60400000028,
      "d": 97.7960000000021,
      "v": 70
    },
    {
      "midi": 69,
      "hit": false,
      "t": 62406.60400000028,
      "d": 97.7960000000021,
      "v": 76
    },
    {
      "midi": 72,
      "hit": false,
      "t": 62410.85600000028,
      "d": 102.0480000000025,
      "v": 71
    },
    {
      "midi": 48,
      "hit": false,
      "t": 62610.699999999975,
      "d": 429.4520000000048,
      "v": 106
    },
    {
      "midi": 69,
      "hit": false,
      "t": 62814.796000000286,
      "d": 85.04000000000087,
      "v": 72
    },
    {
      "midi": 65,
      "hit": false,
      "t": 62819.048000000286,
      "d": 68.03199999999924,
      "v": 69
    },
    {
      "midi": 72,
      "hit": false,
      "t": 62819.048000000286,
      "d": 72.28399999999965,
      "v": 69
    },
    {
      "midi": 41,
      "hit": false,
      "t": 63018.89199999998,
      "d": 374.1759999999995,
      "v": 97
    },
    {
      "midi": 57,
      "hit": false,
      "t": 63018.89200000028,
      "d": 574.0200000000041,
      "v": 73
    },
    {
      "midi": 60,
      "hit": false,
      "t": 63023.144000000284,
      "d": 633.5480000000025,
      "v": 71
    },
    {
      "midi": 53,
      "hit": false,
      "t": 63023.144000000284,
      "d": 1373.3959999999934,
      "v": 69
    },
    {
      "midi": 72,
      "hit": false,
      "t": 63031.648000000125,
      "d": 153.07200000000012,
      "v": 95
    },
    {
      "midi": 60,
      "hit": false,
      "t": 63031.648000000125,
      "d": 204.09599999999773,
      "v": 97
    },
    {
      "midi": 69,
      "hit": false,
      "t": 63035.900000000125,
      "d": 157.32400000000052,
      "v": 95
    },
    {
      "midi": 65,
      "hit": false,
      "t": 63222.98800000028,
      "d": 85.04000000000087,
      "v": 70
    },
    {
      "midi": 72,
      "hit": false,
      "t": 63222.98800000028,
      "d": 114.80400000000373,
      "v": 88
    },
    {
      "midi": 69,
      "hit": false,
      "t": 63227.24000000028,
      "d": 55.27599999999802,
      "v": 76
    },
    {
      "midi": 74,
      "hit": false,
      "t": 63231.49200000012,
      "d": 289.1359999999986,
      "v": 79
    },
    {
      "midi": 62,
      "hit": false,
      "t": 63231.49200000012,
      "d": 425.20000000000437,
      "v": 90
    },
    {
      "midi": 70,
      "hit": false,
      "t": 63235.74400000012,
      "d": 314.64800000000105,
      "v": 90
    },
    {
      "midi": 48,
      "hit": false,
      "t": 63427.08399999998,
      "d": 386.9320000000007,
      "v": 106
    },
    {
      "midi": 65,
      "hit": false,
      "t": 63631.180000000284,
      "d": 76.53600000000006,
      "v": 70
    },
    {
      "midi": 69,
      "hit": false,
      "t": 63635.432000000284,
      "d": 59.52799999999843,
      "v": 82
    },
    {
      "midi": 72,
      "hit": false,
      "t": 63635.432000000284,
      "d": 80.78800000000047,
      "v": 88
    },
    {
      "midi": 72,
      "hit": false,
      "t": 63639.684000000125,
      "d": 140.3159999999989,
      "v": 88
    },
    {
      "midi": 69,
      "hit": false,
      "t": 63643.936000000125,
      "d": 140.3159999999989,
      "v": 84
    },
    {
      "midi": 60,
      "hit": false,
      "t": 63643.936000000125,
      "d": 191.3399999999965,
      "v": 109
    },
    {
      "midi": 41,
      "hit": false,
      "t": 63835.27599999998,
      "d": 386.9320000000007,
      "v": 103
    },
    {
      "midi": 63,
      "hit": false,
      "t": 63839.52800000028,
      "d": 603.7839999999924,
      "v": 73
    },
    {
      "midi": 74,
      "hit": false,
      "t": 63843.78000000012,
      "d": 153.07200000000012,
      "v": 84
    },
    {
      "midi": 70,
      "hit": false,
      "t": 63848.03200000012,
      "d": 153.07200000000012,
      "v": 90
    },
    {
      "midi": 62,
      "hit": false,
      "t": 63848.03200000012,
      "d": 208.34799999999814,
      "v": 95
    },
    {
      "midi": 72,
      "hit": false,
      "t": 64039.37200000028,
      "d": 153.07200000000012,
      "v": 77
    },
    {
      "midi": 69,
      "hit": false,
      "t": 64043.62400000028,
      "d": 127.55999999999767,
      "v": 70
    },
    {
      "midi": 65,
      "hit": false,
      "t": 64043.62400000028,
      "d": 131.81199999999808,
      "v": 66
    },
    {
      "midi": 69,
      "hit": false,
      "t": 64047.87600000012,
      "d": 382.68000000000757,
      "v": 79
    },
    {
      "midi": 72,
      "hit": false,
      "t": 64052.12800000012,
      "d": 331.6560000000027,
      "v": 86
    },
    {
      "midi": 60,
      "hit": false,
      "t": 64052.12800000012,
      "d": 348.6640000000043,
      "v": 92
    },
    {
      "midi": 45,
      "hit": false,
      "t": 64243.467999999986,
      "d": 395.4360000000015,
      "v": 97
    },
    {
      "midi": 69,
      "hit": false,
      "t": 64451.816000000275,
      "d": 72.28399999999965,
      "v": 77
    },
    {
      "midi": 65,
      "hit": false,
      "t": 64451.816000000275,
      "d": 76.53600000000006,
      "v": 72
    },
    {
      "midi": 72,
      "hit": false,
      "t": 64456.068000000276,
      "d": 85.04000000000087,
      "v": 76
    },
    {
      "midi": 65,
      "hit": false,
      "t": 64460.32000000013,
      "d": 131.81199999999808,
      "v": 82
    },
    {
      "midi": 57,
      "hit": false,
      "t": 64460.32000000013,
      "d": 212.59999999999854,
      "v": 88
    },
    {
      "midi": 46,
      "hit": false,
      "t": 64651.65999999999,
      "d": 412.44400000000314,
      "v": 112
    },
    {
      "midi": 58,
      "hit": false,
      "t": 64651.66000000028,
      "d": 1228.827999999965,
      "v": 61
    },
    {
      "midi": 53,
      "hit": false,
      "t": 64655.91200000028,
      "d": 1182.055999999975,
      "v": 63
    },
    {
      "midi": 62,
      "hit": false,
      "t": 64655.91200000028,
      "d": 1203.3159999999698,
      "v": 69
    },
    {
      "midi": 74,
      "hit": false,
      "t": 64664.41600000013,
      "d": 1275.6000000000058,
      "v": 82
    },
    {
      "midi": 70,
      "hit": false,
      "t": 64664.41600000013,
      "d": 1309.6159999999945,
      "v": 69
    },
    {
      "midi": 62,
      "hit": false,
      "t": 64668.66800000013,
      "d": 1301.112000000001,
      "v": 92
    },
    {
      "midi": 70,
      "hit": false,
      "t": 64855.75600000028,
      "d": 106.30000000000291,
      "v": 60
    },
    {
      "midi": 74,
      "hit": false,
      "t": 64855.75600000028,
      "d": 131.81200000000536,
      "v": 71
    },
    {
      "midi": 65,
      "hit": false,
      "t": 64860.00800000028,
      "d": 89.29200000000128,
      "v": 71
    },
    {
      "midi": 50,
      "hit": false,
      "t": 65059.85199999999,
      "d": 416.69600000000355,
      "v": 103
    },
    {
      "midi": 70,
      "hit": false,
      "t": 65263.94800000028,
      "d": 140.3159999999989,
      "v": 61
    },
    {
      "midi": 74,
      "hit": false,
      "t": 65263.94800000028,
      "d": 140.3159999999989,
      "v": 69
    },
    {
      "midi": 65,
      "hit": false,
      "t": 65268.20000000028,
      "d": 93.54400000000169,
      "v": 69
    },
    {
      "midi": 53,
      "hit": false,
      "t": 65468.043999999994,
      "d": 378.4279999999999,
      "v": 95
    },
    {
      "midi": 70,
      "hit": false,
      "t": 65672.14000000028,
      "d": 123.30799999998999,
      "v": 65
    },
    {
      "midi": 74,
      "hit": false,
      "t": 65672.14000000028,
      "d": 127.55999999998312,
      "v": 73
    },
    {
      "midi": 65,
      "hit": false,
      "t": 65676.39200000027,
      "d": 97.7960000000021,
      "v": 70
    },
    {
      "midi": 50,
      "hit": false,
      "t": 65876.23599999999,
      "d": 340.1600000000035,
      "v": 100
    },
    {
      "midi": 74,
      "hit": false,
      "t": 66080.33200000024,
      "d": 110.55199999998149,
      "v": 73
    },
    {
      "midi": 65,
      "hit": false,
      "t": 66084.58400000024,
      "d": 72.28399999999965,
      "v": 72
    },
    {
      "midi": 70,
      "hit": false,
      "t": 66084.58400000024,
      "d": 93.54399999999441,
      "v": 67
    },
    {
      "midi": 46,
      "hit": false,
      "t": 66284.428,
      "d": 267.87600000000384,
      "v": 112
    },
    {
      "midi": 62,
      "hit": false,
      "t": 66284.42800000022,
      "d": 633.5479999999661,
      "v": 68
    },
    {
      "midi": 53,
      "hit": false,
      "t": 66288.68000000021,
      "d": 595.2799999999843,
      "v": 71
    },
    {
      "midi": 58,
      "hit": false,
      "t": 66288.68000000021,
      "d": 642.0519999999669,
      "v": 59
    },
    {
      "midi": 55,
      "hit": false,
      "t": 66297.18400000012,
      "d": 4.2519999999931315,
      "v": 80
    },
    {
      "midi": 67,
      "hit": false,
      "t": 66297.18400000012,
      "d": 8.503999999986263,
      "v": 95
    },
    {
      "midi": 55,
      "hit": false,
      "t": 66301.43600000012,
      "d": 280.6319999999978,
      "v": 84
    },
    {
      "midi": 67,
      "hit": false,
      "t": 66305.68800000011,
      "d": 216.85199999999895,
      "v": 106
    },
    {
      "midi": 70,
      "hit": false,
      "t": 66488.52400000021,
      "d": 123.30799999998999,
      "v": 71
    },
    {
      "midi": 74,
      "hit": false,
      "t": 66488.52400000021,
      "d": 144.56799999998475,
      "v": 72
    },
    {
      "midi": 65,
      "hit": false,
      "t": 66492.7760000002,
      "d": 106.30000000000291,
      "v": 68
    },
    {
      "midi": 57,
      "hit": false,
      "t": 66497.02800000011,
      "d": 212.60000000000582,
      "v": 84
    },
    {
      "midi": 69,
      "hit": false,
      "t": 66497.02800000011,
      "d": 225.35599999999977,
      "v": 106
    },
    {
      "midi": 46,
      "hit": false,
      "t": 66692.62000000001,
      "d": 340.1600000000035,
      "v": 112
    },
    {
      "midi": 58,
      "hit": false,
      "t": 66696.87200000012,
      "d": 216.8519999999844,
      "v": 90
    },
    {
      "midi": 70,
      "hit": false,
      "t": 66701.12400000011,
      "d": 157.32399999999325,
      "v": 90
    },
    {
      "midi": 70,
      "hit": false,
      "t": 66900.9680000002,
      "d": 102.04799999998068,
      "v": 71
    },
    {
      "midi": 74,
      "hit": false,
      "t": 66900.9680000002,
      "d": 110.55199999998149,
      "v": 74
    },
    {
      "midi": 65,
      "hit": false,
      "t": 66905.22000000019,
      "d": 76.53599999999278,
      "v": 72
    },
    {
      "midi": 60,
      "hit": false,
      "t": 66909.47200000011,
      "d": 191.3399999999965,
      "v": 100
    },
    {
      "midi": 72,
      "hit": false,
      "t": 66909.47200000011,
      "d": 191.3399999999965,
      "v": 92
    },
    {
      "midi": 47,
      "hit": false,
      "t": 67105.06400000001,
      "d": 272.127999999997,
      "v": 97
    },
    {
      "midi": 56,
      "hit": false,
      "t": 67105.06400000017,
      "d": 552.7599999999657,
      "v": 58
    },
    {
      "midi": 62,
      "hit": false,
      "t": 67109.31600000017,
      "d": 565.5159999999742,
      "v": 71
    },
    {
      "midi": 59,
      "hit": false,
      "t": 67109.31600000017,
      "d": 637.7999999999593,
      "v": 76
    },
    {
      "midi": 76,
      "hit": false,
      "t": 67117.82000000011,
      "d": 612.2879999999859,
      "v": 95
    },
    {
      "midi": 64,
      "hit": false,
      "t": 67122.0720000001,
      "d": 637.7999999999884,
      "v": 109
    },
    {
      "midi": 65,
      "hit": false,
      "t": 67304.90800000017,
      "d": 97.79599999998754,
      "v": 71
    },
    {
      "midi": 68,
      "hit": false,
      "t": 67304.90800000017,
      "d": 110.55199999998149,
      "v": 71
    },
    {
      "midi": 71,
      "hit": false,
      "t": 67309.16000000016,
      "d": 110.55199999998149,
      "v": 72
    },
    {
      "midi": 74,
      "hit": false,
      "t": 67309.16000000016,
      "d": 123.30799999997544,
      "v": 71
    },
    {
      "midi": 47,
      "hit": false,
      "t": 67509.00400000002,
      "d": 357.1680000000051,
      "v": 106
    },
    {
      "midi": 68,
      "hit": false,
      "t": 67713.10000000014,
      "d": 123.30799999998999,
      "v": 60
    },
    {
      "midi": 74,
      "hit": false,
      "t": 67717.35200000013,
      "d": 123.30799999998999,
      "v": 62
    },
    {
      "midi": 71,
      "hit": false,
      "t": 67717.35200000013,
      "d": 144.56799999998475,
      "v": 72
    },
    {
      "midi": 65,
      "hit": false,
      "t": 67721.60400000012,
      "d": 106.30000000000291,
      "v": 67
    },
    {
      "midi": 62,
      "hit": false,
      "t": 67725.8560000001,
      "d": 85.0399999999936,
      "v": 97
    },
    {
      "midi": 74,
      "hit": false,
      "t": 67725.8560000001,
      "d": 102.04799999999523,
      "v": 95
    },
    {
      "midi": 76,
      "hit": false,
      "t": 67730.1080000001,
      "d": 17.00800000000163,
      "v": 43
    },
    {
      "midi": 48,
      "hit": false,
      "t": 67917.19600000003,
      "d": 246.61599999999453,
      "v": 106
    },
    {
      "midi": 60,
      "hit": false,
      "t": 67917.19600000011,
      "d": 582.5239999999758,
      "v": 66
    },
    {
      "midi": 53,
      "hit": false,
      "t": 67921.4480000001,
      "d": 505.987999999983,
      "v": 59
    },
    {
      "midi": 57,
      "hit": false,
      "t": 67921.4480000001,
      "d": 531.4999999999854,
      "v": 62
    },
    {
      "midi": 74,
      "hit": false,
      "t": 67929.95200000009,
      "d": 187.08800000000338,
      "v": 95
    },
    {
      "midi": 62,
      "hit": false,
      "t": 67929.95200000009,
      "d": 204.09599999999045,
      "v": 109
    },
    {
      "midi": 65,
      "hit": false,
      "t": 68121.2920000001,
      "d": 97.79599999998754,
      "v": 72
    },
    {
      "midi": 69,
      "hit": false,
      "t": 68121.2920000001,
      "d": 114.80399999998917,
      "v": 80
    },
    {
      "midi": 72,
      "hit": false,
      "t": 68125.5440000001,
      "d": 136.0639999999985,
      "v": 80
    },
    {
      "midi": 60,
      "hit": false,
      "t": 68129.79600000009,
      "d": 935.4399999999878,
      "v": 109
    },
    {
      "midi": 72,
      "hit": false,
      "t": 68129.79600000009,
      "d": 939.6919999999809,
      "v": 95
    },
    {
      "midi": 48,
      "hit": false,
      "t": 68325.38800000002,
      "d": 357.1680000000051,
      "v": 103
    },
    {
      "midi": 65,
      "hit": false,
      "t": 68529.48400000008,
      "d": 106.29999999998836,
      "v": 72
    },
    {
      "midi": 69,
      "hit": false,
      "t": 68533.73600000008,
      "d": 97.7960000000021,
      "v": 82
    },
    {
      "midi": 72,
      "hit": false,
      "t": 68533.73600000008,
      "d": 127.55999999999767,
      "v": 79
    },
    {
      "midi": 50,
      "hit": false,
      "t": 68733.58000000003,
      "d": 259.372000000003,
      "v": 97
    },
    {
      "midi": 57,
      "hit": false,
      "t": 68733.58000000007,
      "d": 569.7679999999527,
      "v": 72
    },
    {
      "midi": 60,
      "hit": false,
      "t": 68737.83200000007,
      "d": 531.4999999999709,
      "v": 70
    },
    {
      "midi": 62,
      "hit": false,
      "t": 68737.83200000007,
      "d": 544.2559999999648,
      "v": 62
    },
    {
      "midi": 53,
      "hit": false,
      "t": 68742.08400000006,
      "d": 522.9959999999846,
      "v": 61
    },
    {
      "midi": 69,
      "hit": false,
      "t": 68937.67600000006,
      "d": 93.54399999997986,
      "v": 80
    },
    {
      "midi": 72,
      "hit": false,
      "t": 68937.67600000006,
      "d": 114.80399999997462,
      "v": 77
    },
    {
      "midi": 65,
      "hit": false,
      "t": 68941.92800000006,
      "d": 76.53599999999278,
      "v": 71
    },
    {
      "midi": 50,
      "hit": false,
      "t": 69141.77200000004,
      "d": 301.8920000000071,
      "v": 103
    },
    {
      "midi": 65,
      "hit": false,
      "t": 69146.02400000006,
      "d": 106.29999999998836,
      "v": 92
    },
    {
      "midi": 77,
      "hit": false,
      "t": 69150.27600000006,
      "d": 140.31599999999162,
      "v": 84
    },
    {
      "midi": 53,
      "hit": false,
      "t": 69150.27600000006,
      "d": 212.59999999997672,
      "v": 90
    },
    {
      "midi": 72,
      "hit": false,
      "t": 69345.86800000003,
      "d": 119.0559999999823,
      "v": 76
    },
    {
      "midi": 65,
      "hit": false,
      "t": 69350.12000000002,
      "d": 93.54399999999441,
      "v": 72
    },
    {
      "midi": 69,
      "hit": false,
      "t": 69350.12000000002,
      "d": 97.79599999998754,
      "v": 80
    },
    {
      "midi": 79,
      "hit": false,
      "t": 69354.37200000005,
      "d": 102.04799999999523,
      "v": 106
    },
    {
      "midi": 67,
      "hit": false,
      "t": 69358.62400000004,
      "d": 63.779999999998836,
      "v": 95
    },
    {
      "midi": 55,
      "hit": false,
      "t": 69358.62400000004,
      "d": 187.08800000000338,
      "v": 109
    },
    {
      "midi": 59,
      "hit": false,
      "t": 69549.964,
      "d": 535.751999999964,
      "v": 69
    },
    {
      "midi": 43,
      "hit": false,
      "t": 69549.96400000005,
      "d": 289.1359999999986,
      "v": 100
    },
    {
      "midi": 53,
      "hit": false,
      "t": 69554.216,
      "d": 561.2639999999665,
      "v": 58
    },
    {
      "midi": 62,
      "hit": false,
      "t": 69554.216,
      "d": 603.7839999999705,
      "v": 54
    },
    {
      "midi": 69,
      "hit": false,
      "t": 69562.72000000004,
      "d": 718.5879999999888,
      "v": 86
    },
    {
      "midi": 57,
      "hit": false,
      "t": 69562.72000000004,
      "d": 824.8879999999772,
      "v": 95
    },
    {
      "midi": 81,
      "hit": false,
      "t": 69566.97200000004,
      "d": 765.3600000000006,
      "v": 97
    },
    {
      "midi": 74,
      "hit": false,
      "t": 69754.06,
      "d": 127.55999999998312,
      "v": 74
    },
    {
      "midi": 71,
      "hit": false,
      "t": 69754.06,
      "d": 148.81999999997788,
      "v": 77
    },
    {
      "midi": 65,
      "hit": false,
      "t": 69758.31199999999,
      "d": 85.0399999999936,
      "v": 70
    },
    {
      "midi": 43,
      "hit": false,
      "t": 69958.15600000005,
      "d": 369.92399999999907,
      "v": 103
    },
    {
      "midi": 71,
      "hit": false,
      "t": 70162.25199999996,
      "d": 63.779999999984284,
      "v": 66
    },
    {
      "midi": 74,
      "hit": false,
      "t": 70166.50399999996,
      "d": 102.04799999998068,
      "v": 74
    },
    {
      "midi": 65,
      "hit": false,
      "t": 70170.75599999995,
      "d": 68.03199999999197,
      "v": 79
    },
    {
      "midi": 58,
      "hit": false,
      "t": 70366.34799999994,
      "d": 688.8239999999787,
      "v": 56
    },
    {
      "midi": 48,
      "hit": false,
      "t": 70366.34800000004,
      "d": 437.95599999999104,
      "v": 97
    },
    {
      "midi": 64,
      "hit": false,
      "t": 70370.59999999993,
      "d": 646.3039999999892,
      "v": 59
    },
    {
      "midi": 60,
      "hit": false,
      "t": 70370.59999999993,
      "d": 858.9039999999659,
      "v": 70
    },
    {
      "midi": 58,
      "hit": false,
      "t": 70379.10400000004,
      "d": 289.13599999998405,
      "v": 57
    },
    {
      "midi": 70,
      "hit": false,
      "t": 70379.10400000004,
      "d": 335.90799999998126,
      "v": 90
    },
    {
      "midi": 82,
      "hit": false,
      "t": 70383.35600000003,
      "d": 352.9159999999829,
      "v": 71
    },
    {
      "midi": 70,
      "hit": false,
      "t": 70570.44399999993,
      "d": 131.8119999999908,
      "v": 65
    },
    {
      "midi": 76,
      "hit": false,
      "t": 70570.44399999993,
      "d": 182.8359999999957,
      "v": 72
    },
    {
      "midi": 67,
      "hit": false,
      "t": 70574.69599999992,
      "d": 136.0639999999985,
      "v": 72
    },
    {
      "midi": 52,
      "hit": false,
      "t": 70774.54000000004,
      "d": 369.92399999999907,
      "v": 97
    },
    {
      "midi": 55,
      "hit": false,
      "t": 70783.04400000001,
      "d": 110.55199999998149,
      "v": 84
    },
    {
      "midi": 79,
      "hit": false,
      "t": 70783.04400000001,
      "d": 289.1359999999695,
      "v": 82
    },
    {
      "midi": 67,
      "hit": false,
      "t": 70787.296,
      "d": 102.04799999999523,
      "v": 88
    },
    {
      "midi": 70,
      "hit": false,
      "t": 70978.63599999993,
      "d": 127.55999999998312,
      "v": 55
    },
    {
      "midi": 76,
      "hit": false,
      "t": 70978.63599999993,
      "d": 136.06399999998393,
      "v": 69
    },
    {
      "midi": 67,
      "hit": false,
      "t": 70982.88799999992,
      "d": 93.54399999999441,
      "v": 63
    },
    {
      "midi": 69,
      "hit": false,
      "t": 70987.13999999998,
      "d": 85.0399999999936,
      "v": 86
    },
    {
      "midi": 81,
      "hit": false,
      "t": 70987.13999999998,
      "d": 182.8359999999957,
      "v": 88
    },
    {
      "midi": 57,
      "hit": false,
      "t": 70991.39199999998,
      "d": 97.7960000000021,
      "v": 80
    },
    {
      "midi": 77,
      "hit": false,
      "t": 71182.73199999992,
      "d": 165.82799999996496,
      "v": 65
    },
    {
      "midi": 41,
      "hit": false,
      "t": 71182.73200000003,
      "d": 369.92399999999907,
      "v": 100
    },
    {
      "midi": 53,
      "hit": false,
      "t": 71186.98399999991,
      "d": 136.06399999996938,
      "v": 69
    },
    {
      "midi": 65,
      "hit": false,
      "t": 71186.98399999991,
      "d": 153.071999999971,
      "v": 55
    },
    {
      "midi": 69,
      "hit": false,
      "t": 71191.2359999999,
      "d": 123.30799999998999,
      "v": 62
    },
    {
      "midi": 72,
      "hit": false,
      "t": 71191.2359999999,
      "d": 127.55999999998312,
      "v": 84
    },
    {
      "midi": 77,
      "hit": false,
      "t": 71203.99199999998,
      "d": 174.33199999999488,
      "v": 77
    },
    {
      "midi": 53,
      "hit": false,
      "t": 71208.24399999998,
      "d": 140.31600000000617,
      "v": 97
    },
    {
      "midi": 65,
      "hit": false,
      "t": 71208.24399999998,
      "d": 157.3240000000078,
      "v": 84
    },
    {
      "midi": 66,
      "hit": false,
      "t": 71590.92399999988,
      "d": 136.06399999998393,
      "v": 64
    },
    {
      "midi": 42,
      "hit": false,
      "t": 71590.92400000003,
      "d": 335.9079999999958,
      "v": 118
    },
    {
      "midi": 54,
      "hit": false,
      "t": 71595.17599999988,
      "d": 140.31599999999162,
      "v": 63
    },
    {
      "midi": 73,
      "hit": false,
      "t": 71595.17599999988,
      "d": 144.56799999998475,
      "v": 83
    },
    {
      "midi": 70,
      "hit": false,
      "t": 71599.42799999987,
      "d": 119.05599999999686,
      "v": 69
    },
    {
      "midi": 78,
      "hit": false,
      "t": 71599.42799999987,
      "d": 157.32399999999325,
      "v": 73
    },
    {
      "midi": 70,
      "hit": false,
      "t": 71612.18399999998,
      "d": 335.90799999998126,
      "v": 90
    },
    {
      "midi": 54,
      "hit": false,
      "t": 71616.43599999997,
      "d": 310.39599999999336,
      "v": 86
    },
    {
      "midi": 78,
      "hit": false,
      "t": 71616.43599999997,
      "d": 348.66399999998976,
      "v": 90
    },
    {
      "midi": 66,
      "hit": false,
      "t": 71620.68799999997,
      "d": 297.6399999999994,
      "v": 73
    },
    {
      "midi": 62,
      "hit": false,
      "t": 71999.11599999986,
      "d": 531.4999999999709,
      "v": 67
    },
    {
      "midi": 43,
      "hit": false,
      "t": 71999.11600000002,
      "d": 365.67200000000594,
      "v": 117
    },
    {
      "midi": 67,
      "hit": false,
      "t": 72003.36799999986,
      "d": 518.743999999977,
      "v": 66
    },
    {
      "midi": 55,
      "hit": false,
      "t": 72003.36799999986,
      "d": 548.5079999999725,
      "v": 71
    },
    {
      "midi": 74,
      "hit": false,
      "t": 72007.61999999985,
      "d": 522.9959999999846,
      "v": 76
    },
    {
      "midi": 79,
      "hit": false,
      "t": 72007.61999999985,
      "d": 540.0039999999863,
      "v": 73
    },
    {
      "midi": 71,
      "hit": false,
      "t": 72011.87199999984,
      "d": 505.98799999999756,
      "v": 67
    },
    {
      "midi": 79,
      "hit": false,
      "t": 72024.62799999997,
      "d": 153.07199999998556,
      "v": 88
    },
    {
      "midi": 71,
      "hit": false,
      "t": 72028.87999999996,
      "d": 123.30800000000454,
      "v": 88
    },
    {
      "midi": 55,
      "hit": false,
      "t": 72028.87999999996,
      "d": 131.81200000000536,
      "v": 86
    },
    {
      "midi": 67,
      "hit": false,
      "t": 72028.87999999996,
      "d": 136.0639999999985,
      "v": 90
    },
    {
      "midi": 67,
      "hit": false,
      "t": 72590.14399999999,
      "d": 395.43599999998696,
      "v": 106
    },
    {
      "midi": 66,
      "hit": false,
      "t": 72726.20799999998,
      "d": 102.04799999999523,
      "v": 118
    },
    {
      "midi": 60,
      "hit": false,
      "t": 72815.49999999983,
      "d": 1143.7879999999714,
      "v": 79
    },
    {
      "midi": 48,
      "hit": false,
      "t": 72815.50000000003,
      "d": 263.62399999999616,
      "v": 106
    },
    {
      "midi": 64,
      "hit": false,
      "t": 73019.59599999983,
      "d": 97.79599999998754,
      "v": 69
    },
    {
      "midi": 72,
      "hit": false,
      "t": 73023.84799999982,
      "d": 114.80399999998917,
      "v": 69
    },
    {
      "midi": 67,
      "hit": false,
      "t": 73023.84799999982,
      "d": 119.0559999999823,
      "v": 68
    },
    {
      "midi": 64,
      "hit": false,
      "t": 73066.36799999997,
      "d": 80.78800000000047,
      "v": 113
    },
    {
      "midi": 43,
      "hit": false,
      "t": 73223.69200000002,
      "d": 276.38000000000466,
      "v": 92
    },
    {
      "midi": 67,
      "hit": false,
      "t": 73406.52799999998,
      "d": 89.29200000000128,
      "v": 106
    },
    {
      "midi": 67,
      "hit": false,
      "t": 73427.78799999981,
      "d": 131.8119999999908,
      "v": 76
    },
    {
      "midi": 64,
      "hit": false,
      "t": 73432.0399999998,
      "d": 106.30000000000291,
      "v": 63
    },
    {
      "midi": 72,
      "hit": false,
      "t": 73432.0399999998,
      "d": 114.80400000000373,
      "v": 76
    },
    {
      "midi": 66,
      "hit": false,
      "t": 73542.59199999998,
      "d": 76.53600000000733,
      "v": 127
    },
    {
      "midi": 67,
      "hit": false,
      "t": 73610.62399999998,
      "d": 204.096000000005,
      "v": 86
    },
    {
      "midi": 48,
      "hit": false,
      "t": 73631.88400000003,
      "d": 263.62399999999616,
      "v": 97
    },
    {
      "midi": 64,
      "hit": false,
      "t": 73814.71999999999,
      "d": 89.29200000000128,
      "v": 117
    },
    {
      "midi": 67,
      "hit": false,
      "t": 73835.9799999998,
      "d": 97.79599999998754,
      "v": 73
    },
    {
      "midi": 64,
      "hit": false,
      "t": 73840.2319999998,
      "d": 72.28399999999965,
      "v": 65
    },
    {
      "midi": 72,
      "hit": false,
      "t": 73840.2319999998,
      "d": 76.53599999999278,
      "v": 66
    },
    {
      "midi": 67,
      "hit": false,
      "t": 74018.81599999999,
      "d": 51.02400000000489,
      "v": 88
    },
    {
      "midi": 43,
      "hit": false,
      "t": 74040.07600000003,
      "d": 289.1359999999986,
      "v": 97
    },
    {
      "midi": 67,
      "hit": false,
      "t": 74222.912,
      "d": 68.03200000000652,
      "v": 109
    },
    {
      "midi": 64,
      "hit": false,
      "t": 74244.1719999998,
      "d": 110.55199999998149,
      "v": 64
    },
    {
      "midi": 67,
      "hit": false,
      "t": 74248.4239999998,
      "d": 102.04799999999523,
      "v": 68
    },
    {
      "midi": 72,
      "hit": false,
      "t": 74248.4239999998,
      "d": 119.0559999999823,
      "v": 71
    },
    {
      "midi": 67,
      "hit": false,
      "t": 74427.008,
      "d": 80.78800000000047,
      "v": 100
    },
    {
      "midi": 48,
      "hit": false,
      "t": 74448.26800000003,
      "d": 357.1680000000051,
      "v": 109
    },
    {
      "midi": 72,
      "hit": false,
      "t": 74631.104,
      "d": 140.31600000000617,
      "v": 103
    },
    {
      "midi": 67,
      "hit": false,
      "t": 74652.36399999978,
      "d": 161.57599999998638,
      "v": 72
    },
    {
      "midi": 64,
      "hit": false,
      "t": 74656.61599999978,
      "d": 153.07200000000012,
      "v": 64
    },
    {
      "midi": 72,
      "hit": false,
      "t": 74656.61599999978,
      "d": 161.57599999998638,
      "v": 74
    },
    {
      "midi": 74,
      "hit": false,
      "t": 74835.20000000001,
      "d": 246.61599999999453,
      "v": 106
    },
    {
      "midi": 36,
      "hit": false,
      "t": 74856.46000000004,
      "d": 369.92399999999907,
      "v": 97
    },
    {
      "midi": 67,
      "hit": false,
      "t": 75060.55599999976,
      "d": 106.29999999998836,
      "v": 69
    },
    {
      "midi": 72,
      "hit": false,
      "t": 75064.80799999976,
      "d": 97.7960000000021,
      "v": 74
    },
    {
      "midi": 64,
      "hit": false,
      "t": 75064.80799999976,
      "d": 110.55199999999604,
      "v": 76
    },
    {
      "midi": 72,
      "hit": false,
      "t": 75107.32800000001,
      "d": 97.7960000000021,
      "v": 100
    },
    {
      "midi": 72,
      "hit": false,
      "t": 75243.392,
      "d": 182.8359999999957,
      "v": 74
    },
    {
      "midi": 55,
      "hit": false,
      "t": 75264.65199999975,
      "d": 2793.5639999999403,
      "v": 63
    },
    {
      "midi": 43,
      "hit": false,
      "t": 75264.65200000003,
      "d": 378.4279999999999,
      "v": 100
    },
    {
      "midi": 59,
      "hit": false,
      "t": 75268.90399999975,
      "d": 582.5239999999903,
      "v": 52
    },
    {
      "midi": 71,
      "hit": false,
      "t": 75447.488,
      "d": 102.04799999999523,
      "v": 113
    },
    {
      "midi": 67,
      "hit": false,
      "t": 75468.74799999974,
      "d": 165.82799999999406,
      "v": 64
    },
    {
      "midi": 62,
      "hit": false,
      "t": 75472.99999999974,
      "d": 131.81200000000536,
      "v": 60
    },
    {
      "midi": 71,
      "hit": false,
      "t": 75472.99999999974,
      "d": 140.31600000000617,
      "v": 62
    },
    {
      "midi": 50,
      "hit": false,
      "t": 75672.84400000003,
      "d": 242.3640000000014,
      "v": 106
    },
    {
      "midi": 72,
      "hit": false,
      "t": 75855.68,
      "d": 170.08000000000175,
      "v": 122
    },
    {
      "midi": 67,
      "hit": false,
      "t": 75876.93999999974,
      "d": 80.78800000000047,
      "v": 80
    },
    {
      "midi": 62,
      "hit": false,
      "t": 75885.44399999974,
      "d": 59.528000000005704,
      "v": 71
    },
    {
      "midi": 71,
      "hit": false,
      "t": 75885.44399999974,
      "d": 89.29200000000128,
      "v": 82
    },
    {
      "midi": 74,
      "hit": false,
      "t": 76059.776,
      "d": 255.11999999999534,
      "v": 100
    },
    {
      "midi": 59,
      "hit": false,
      "t": 76081.03599999975,
      "d": 1364.891999999949,
      "v": 52
    },
    {
      "midi": 43,
      "hit": false,
      "t": 76081.03600000002,
      "d": 348.6640000000043,
      "v": 103
    },
    {
      "midi": 71,
      "hit": false,
      "t": 76285.13199999975,
      "d": 161.57599999998638,
      "v": 67
    },
    {
      "midi": 67,
      "hit": false,
      "t": 76289.38399999974,
      "d": 114.80400000000373,
      "v": 70
    },
    {
      "midi": 62,
      "hit": false,
      "t": 76289.38399999974,
      "d": 119.05599999999686,
      "v": 63
    },
    {
      "midi": 72,
      "hit": false,
      "t": 76331.904,
      "d": 106.30000000000291,
      "v": 84
    },
    {
      "midi": 74,
      "hit": false,
      "t": 76467.968,
      "d": 267.87600000000384,
      "v": 106
    },
    {
      "midi": 50,
      "hit": false,
      "t": 76489.22800000003,
      "d": 331.6560000000027,
      "v": 103
    },
    {
      "midi": 71,
      "hit": false,
      "t": 76693.32399999973,
      "d": 144.56799999998475,
      "v": 74
    },
    {
      "midi": 62,
      "hit": false,
      "t": 76697.57599999972,
      "d": 93.54399999999441,
      "v": 63
    },
    {
      "midi": 67,
      "hit": false,
      "t": 76697.57599999972,
      "d": 102.04799999999523,
      "v": 70
    },
    {
      "midi": 72,
      "hit": false,
      "t": 76740.09599999999,
      "d": 102.04799999999523,
      "v": 100
    },
    {
      "midi": 72,
      "hit": false,
      "t": 76876.15999999999,
      "d": 229.60800000000745,
      "v": 100
    },
    {
      "midi": 43,
      "hit": false,
      "t": 76897.42000000003,
      "d": 386.9320000000007,
      "v": 109
    },
    {
      "midi": 71,
      "hit": false,
      "t": 77080.256,
      "d": 102.04799999999523,
      "v": 122
    },
    {
      "midi": 62,
      "hit": false,
      "t": 77101.51599999971,
      "d": 165.8279999999795,
      "v": 59
    },
    {
      "midi": 67,
      "hit": false,
      "t": 77105.7679999997,
      "d": 157.32399999999325,
      "v": 65
    },
    {
      "midi": 71,
      "hit": false,
      "t": 77105.7679999997,
      "d": 161.57599999998638,
      "v": 68
    },
    {
      "midi": 71,
      "hit": false,
      "t": 77284.35199999998,
      "d": 51.02400000000489,
      "v": 90
    },
    {
      "midi": 50,
      "hit": false,
      "t": 77305.61200000002,
      "d": 318.8999999999942,
      "v": 97
    },
    {
      "midi": 71,
      "hit": false,
      "t": 77488.44799999999,
      "d": 102.04799999999523,
      "v": 117
    },
    {
      "midi": 67,
      "hit": false,
      "t": 77509.7079999997,
      "d": 110.55199999999604,
      "v": 71
    },
    {
      "midi": 71,
      "hit": false,
      "t": 77513.95999999969,
      "d": 131.81200000000536,
      "v": 73
    },
    {
      "midi": 62,
      "hit": false,
      "t": 77513.95999999969,
      "d": 140.31600000000617,
      "v": 66
    },
    {
      "midi": 70,
      "hit": false,
      "t": 77624.51199999999,
      "d": 59.528000000005704,
      "v": 51
    },
    {
      "midi": 71,
      "hit": false,
      "t": 77692.544,
      "d": 204.096000000005,
      "v": 106
    },
    {
      "midi": 59,
      "hit": false,
      "t": 77713.8039999997,
      "d": 391.18399999999383,
      "v": 60
    },
    {
      "midi": 43,
      "hit": false,
      "t": 77713.80400000002,
      "d": 344.4119999999966,
      "v": 100
    },
    {
      "midi": 69,
      "hit": false,
      "t": 77896.64,
      "d": 102.04799999999523,
      "v": 109
    },
    {
      "midi": 71,
      "hit": false,
      "t": 77917.8999999997,
      "d": 187.08799999998882,
      "v": 71
    },
    {
      "midi": 62,
      "hit": false,
      "t": 77922.1519999997,
      "d": 161.57600000000093,
      "v": 57
    },
    {
      "midi": 65,
      "hit": false,
      "t": 77922.1519999997,
      "d": 170.08000000000175,
      "v": 69
    },
    {
      "midi": 47,
      "hit": false,
      "t": 78121.99600000001,
      "d": 386.9320000000007,
      "v": 97
    },
    {
      "midi": 69,
      "hit": false,
      "t": 78304.832,
      "d": 102.04799999999523,
      "v": 113
    },
    {
      "midi": 65,
      "hit": false,
      "t": 78326.0919999997,
      "d": 106.29999999998836,
      "v": 71
    },
    {
      "midi": 62,
      "hit": false,
      "t": 78330.34399999969,
      "d": 76.53599999999278,
      "v": 67
    },
    {
      "midi": 71,
      "hit": false,
      "t": 78330.34399999969,
      "d": 131.8119999999908,
      "v": 70
    },
    {
      "midi": 68,
      "hit": false,
      "t": 78440.896,
      "d": 68.03200000000652,
      "v": 118
    },
    {
      "midi": 69,
      "hit": false,
      "t": 78508.928,
      "d": 204.096000000005,
      "v": 88
    },
    {
      "midi": 60,
      "hit": false,
      "t": 78530.18799999969,
      "d": 625.0439999999653,
      "v": 56
    },
    {
      "midi": 48,
      "hit": false,
      "t": 78530.18800000001,
      "d": 365.67200000000594,
      "v": 113
    },
    {
      "midi": 55,
      "hit": false,
      "t": 78534.43999999968,
      "d": 595.2799999999988,
      "v": 55
    },
    {
      "midi": 52,
      "hit": false,
      "t": 78534.43999999968,
      "d": 599.531999999992,
      "v": 56
    },
    {
      "midi": 67,
      "hit": false,
      "t": 78713.024,
      "d": 89.29200000000128,
      "v": 106
    },
    {
      "midi": 72,
      "hit": false,
      "t": 78734.28399999968,
      "d": 174.33199999999488,
      "v": 79
    },
    {
      "midi": 67,
      "hit": false,
      "t": 78734.28399999968,
      "d": 182.8359999999957,
      "v": 67
    },
    {
      "midi": 64,
      "hit": false,
      "t": 78738.53599999967,
      "d": 114.80400000000373,
      "v": 66
    },
    {
      "midi": 43,
      "hit": false,
      "t": 78938.38000000002,
      "d": 314.64800000000105,
      "v": 103
    },
    {
      "midi": 67,
      "hit": false,
      "t": 79121.216,
      "d": 93.54399999999441,
      "v": 106
    },
    {
      "midi": 67,
      "hit": false,
      "t": 79146.72799999967,
      "d": 123.30799999998999,
      "v": 66
    },
    {
      "midi": 64,
      "hit": false,
      "t": 79146.72799999967,
      "d": 127.55999999998312,
      "v": 62
    },
    {
      "midi": 72,
      "hit": false,
      "t": 79150.97999999966,
      "d": 119.05599999999686,
      "v": 69
    },
    {
      "midi": 66,
      "hit": false,
      "t": 79257.28,
      "d": 63.779999999998836,
      "v": 71
    },
    {
      "midi": 67,
      "hit": false,
      "t": 79325.31199999999,
      "d": 208.34799999999814,
      "v": 92
    },
    {
      "midi": 55,
      "hit": false,
      "t": 79346.57199999965,
      "d": 1330.8759999999456,
      "v": 62
    },
    {
      "midi": 48,
      "hit": false,
      "t": 79346.57200000001,
      "d": 369.92399999999907,
      "v": 106
    },
    {
      "midi": 52,
      "hit": false,
      "t": 79350.82399999964,
      "d": 1318.1199999999517,
      "v": 61
    },
    {
      "midi": 60,
      "hit": false,
      "t": 79350.82399999964,
      "d": 1330.8759999999456,
      "v": 60
    },
    {
      "midi": 64,
      "hit": false,
      "t": 79529.408,
      "d": 93.54399999999441,
      "v": 113
    },
    {
      "midi": 67,
      "hit": false,
      "t": 79550.66799999964,
      "d": 136.06399999998393,
      "v": 53
    },
    {
      "midi": 72,
      "hit": false,
      "t": 79550.66799999964,
      "d": 161.57599999998638,
      "v": 60
    },
    {
      "midi": 64,
      "hit": false,
      "t": 79554.91999999963,
      "d": 110.55199999999604,
      "v": 54
    },
    {
      "midi": 43,
      "hit": false,
      "t": 79754.76400000001,
      "d": 369.92399999999907,
      "v": 97
    },
    {
      "midi": 67,
      "hit": false,
      "t": 79937.59999999999,
      "d": 85.0399999999936,
      "v": 106
    },
    {
      "midi": 64,
      "hit": false,
      "t": 79958.85999999962,
      "d": 140.31599999999162,
      "v": 64
    },
    {
      "midi": 72,
      "hit": false,
      "t": 79958.85999999962,
      "d": 165.82799999999406,
      "v": 72
    },
    {
      "midi": 67,
      "hit": false,
      "t": 79963.11199999962,
      "d": 136.0639999999985,
      "v": 76
    },
    {
      "midi": 67,
      "hit": false,
      "t": 80073.66399999999,
      "d": 246.61599999999453,
      "v": 88
    },
    {
      "midi": 48,
      "hit": false,
      "t": 80162.956,
      "d": 318.8999999999942,
      "v": 113
    },
    {
      "midi": 64,
      "hit": false,
      "t": 80345.79199999999,
      "d": 102.04799999999523,
      "v": 103
    },
    {
      "midi": 64,
      "hit": false,
      "t": 80367.05199999962,
      "d": 161.57599999998638,
      "v": 69
    },
    {
      "midi": 67,
      "hit": false,
      "t": 80367.05199999962,
      "d": 170.07999999997264,
      "v": 74
    },
    {
      "midi": 72,
      "hit": false,
      "t": 80371.30399999961,
      "d": 161.57599999998638,
      "v": 79
    },
    {
      "midi": 43,
      "hit": false,
      "t": 80571.148,
      "d": 357.1680000000051,
      "v": 106
    },
    {
      "midi": 67,
      "hit": false,
      "t": 80753.98399999998,
      "d": 85.0399999999936,
      "v": 109
    },
    {
      "midi": 64,
      "hit": false,
      "t": 80775.24399999958,
      "d": 161.57599999998638,
      "v": 80
    },
    {
      "midi": 67,
      "hit": false,
      "t": 80779.49599999958,
      "d": 157.32399999999325,
      "v": 90
    },
    {
      "midi": 72,
      "hit": false,
      "t": 80779.49599999958,
      "d": 161.57599999998638,
      "v": 92
    },
    {
      "midi": 67,
      "hit": false,
      "t": 80958.07999999997,
      "d": 72.28399999999965,
      "v": 103
    },
    {
      "midi": 60,
      "hit": false,
      "t": 80979.33999999956,
      "d": 650.5559999999532,
      "v": 55
    },
    {
      "midi": 48,
      "hit": false,
      "t": 80979.34000000001,
      "d": 395.4360000000015,
      "v": 109
    },
    {
      "midi": 55,
      "hit": false,
      "t": 80983.59199999955,
      "d": 510.23999999997613,
      "v": 54
    },
    {
      "midi": 52,
      "hit": false,
      "t": 80987.84399999955,
      "d": 518.743999999977,
      "v": 51
    },
    {
      "midi": 72,
      "hit": false,
      "t": 81162.17599999998,
      "d": 148.82000000000698,
      "v": 113
    },
    {
      "midi": 64,
      "hit": false,
      "t": 81183.43599999955,
      "d": 161.57599999998638,
      "v": 67
    },
    {
      "midi": 67,
      "hit": false,
      "t": 81183.43599999955,
      "d": 165.8279999999795,
      "v": 77
    },
    {
      "midi": 72,
      "hit": false,
      "t": 81187.68799999954,
      "d": 165.8279999999795,
      "v": 74
    },
    {
      "midi": 74,
      "hit": false,
      "t": 81366.27199999998,
      "d": 255.11999999999534,
      "v": 103
    },
    {
      "midi": 36,
      "hit": false,
      "t": 81387.532,
      "d": 382.679999999993,
      "v": 103
    },
    {
      "midi": 67,
      "hit": false,
      "t": 81591.62799999952,
      "d": 106.30000000000291,
      "v": 74
    },
    {
      "midi": 64,
      "hit": false,
      "t": 81595.87999999951,
      "d": 106.30000000000291,
      "v": 76
    },
    {
      "midi": 72,
      "hit": false,
      "t": 81595.87999999951,
      "d": 144.5679999999993,
      "v": 86
    },
    {
      "midi": 72,
      "hit": false,
      "t": 81706.43199999997,
      "d": 72.28399999999965,
      "v": 113
    },
    {
      "midi": 55,
      "hit": false,
      "t": 81795.7239999995,
      "d": 637.7999999999738,
      "v": 61
    },
    {
      "midi": 43,
      "hit": false,
      "t": 81795.724,
      "d": 374.17600000000675,
      "v": 103
    },
    {
      "midi": 59,
      "hit": false,
      "t": 81799.9759999995,
      "d": 603.7839999999851,
      "v": 64
    },
    {
      "midi": 72,
      "hit": false,
      "t": 81842.49599999997,
      "d": 161.57600000000093,
      "v": 95
    },
    {
      "midi": 71,
      "hit": false,
      "t": 81978.55999999997,
      "d": 110.55199999999604,
      "v": 106
    },
    {
      "midi": 67,
      "hit": false,
      "t": 81999.8199999995,
      "d": 178.583999999988,
      "v": 72
    },
    {
      "midi": 62,
      "hit": false,
      "t": 82004.07199999949,
      "d": 136.0639999999985,
      "v": 67
    },
    {
      "midi": 71,
      "hit": false,
      "t": 82004.07199999949,
      "d": 170.08000000000175,
      "v": 77
    },
    {
      "midi": 50,
      "hit": false,
      "t": 82203.91600000001,
      "d": 374.17600000000675,
      "v": 90
    },
    {
      "midi": 71,
      "hit": false,
      "t": 82250.68799999997,
      "d": 21.25999999999476,
      "v": 62
    },
    {
      "midi": 72,
      "hit": false,
      "t": 82386.75199999996,
      "d": 161.57600000000093,
      "v": 106
    },
    {
      "midi": 67,
      "hit": false,
      "t": 82412.26399999949,
      "d": 131.8119999999908,
      "v": 77
    },
    {
      "midi": 71,
      "hit": false,
      "t": 82412.26399999949,
      "d": 140.31599999999162,
      "v": 80
    },
    {
      "midi": 62,
      "hit": false,
      "t": 82416.51599999948,
      "d": 114.80400000000373,
      "v": 72
    },
    {
      "midi": 74,
      "hit": false,
      "t": 82590.84799999997,
      "d": 255.11999999999534,
      "v": 106
    },
    {
      "midi": 59,
      "hit": false,
      "t": 82612.10799999948,
      "d": 1135.283999999956,
      "v": 68
    },
    {
      "midi": 43,
      "hit": false,
      "t": 82612.10800000002,
      "d": 340.1600000000035,
      "v": 117
    },
    {
      "midi": 55,
      "hit": false,
      "t": 82616.35999999948,
      "d": 1420.167999999947,
      "v": 66
    },
    {
      "midi": 67,
      "hit": false,
      "t": 82816.20399999947,
      "d": 170.0799999999872,
      "v": 76
    },
    {
      "midi": 62,
      "hit": false,
      "t": 82820.45599999947,
      "d": 127.55999999999767,
      "v": 65
    },
    {
      "midi": 71,
      "hit": false,
      "t": 82820.45599999947,
      "d": 174.33199999999488,
      "v": 74
    },
    {
      "midi": 72,
      "hit": false,
      "t": 82862.97599999997,
      "d": 140.31599999999162,
      "v": 88
    },
    {
      "midi": 74,
      "hit": false,
      "t": 82999.03999999996,
      "d": 238.1119999999937,
      "v": 117
    },
    {
      "midi": 50,
      "hit": false,
      "t": 83020.30000000003,
      "d": 369.92399999999907,
      "v": 100
    },
    {
      "midi": 67,
      "hit": false,
      "t": 83224.39599999945,
      "d": 174.33199999999488,
      "v": 73
    },
    {
      "midi": 62,
      "hit": false,
      "t": 83228.64799999945,
      "d": 114.80400000000373,
      "v": 65
    },
    {
      "midi": 71,
      "hit": false,
      "t": 83228.64799999945,
      "d": 157.3240000000078,
      "v": 76
    },
    {
      "midi": 72,
      "hit": false,
      "t": 83271.16799999996,
      "d": 102.04799999999523,
      "v": 109
    },
    {
      "midi": 72,
      "hit": false,
      "t": 83407.23199999996,
      "d": 225.35599999999977,
      "v": 103
    },
    {
      "midi": 43,
      "hit": false,
      "t": 83428.49200000003,
      "d": 369.92399999999907,
      "v": 97
    },
    {
      "midi": 71,
      "hit": false,
      "t": 83611.32799999996,
      "d": 97.79599999998754,
      "v": 117
    },
    {
      "midi": 67,
      "hit": false,
      "t": 83632.58799999945,
      "d": 161.57599999997183,
      "v": 77
    },
    {
      "midi": 62,
      "hit": false,
      "t": 83636.83999999944,
      "d": 123.30799999998999,
      "v": 68
    },
    {
      "midi": 71,
      "hit": false,
      "t": 83636.83999999944,
      "d": 144.56799999998475,
      "v": 77
    },
    {
      "midi": 71,
      "hit": false,
      "t": 83815.42399999996,
      "d": 204.096000000005,
      "v": 117
    },
    {
      "midi": 50,
      "hit": false,
      "t": 83836.68400000002,
      "d": 340.1600000000035,
      "v": 103
    },
    {
      "midi": 69,
      "hit": false,
      "t": 84019.51999999996,
      "d": 170.08000000000175,
      "v": 109
    },
    {
      "midi": 67,
      "hit": false,
      "t": 84040.77999999942,
      "d": 102.04799999998068,
      "v": 95
    },
    {
      "midi": 71,
      "hit": false,
      "t": 84045.03199999941,
      "d": 123.30799999998999,
      "v": 88
    },
    {
      "midi": 62,
      "hit": false,
      "t": 84049.2839999994,
      "d": 85.0399999999936,
      "v": 79
    },
    {
      "midi": 67,
      "hit": false,
      "t": 84223.61599999997,
      "d": 102.04799999999523,
      "v": 100
    },
    {
      "midi": 59,
      "hit": false,
      "t": 84244.87599999939,
      "d": 548.5079999999725,
      "v": 54
    },
    {
      "midi": 43,
      "hit": false,
      "t": 84244.87600000003,
      "d": 369.92399999999907,
      "v": 95
    },
    {
      "midi": 53,
      "hit": false,
      "t": 84249.12799999939,
      "d": 382.679999999993,
      "v": 58
    },
    {
      "midi": 67,
      "hit": false,
      "t": 84427.71199999996,
      "d": 221.10400000000664,
      "v": 117
    },
    {
      "midi": 65,
      "hit": false,
      "t": 84448.97199999938,
      "d": 174.33199999999488,
      "v": 79
    },
    {
      "midi": 62,
      "hit": false,
      "t": 84453.22399999938,
      "d": 127.55999999999767,
      "v": 70
    },
    {
      "midi": 71,
      "hit": false,
      "t": 84453.22399999938,
      "d": 182.8359999999957,
      "v": 77
    },
    {
      "midi": 69,
      "hit": false,
      "t": 84631.80799999996,
      "d": 233.86000000000058,
      "v": 113
    },
    {
      "midi": 47,
      "hit": false,
      "t": 84653.06800000003,
      "d": 420.9479999999894,
      "v": 103
    },
    {
      "midi": 71,
      "hit": false,
      "t": 84835.90399999997,
      "d": 182.8359999999957,
      "v": 109
    },
    {
      "midi": 65,
      "hit": false,
      "t": 84857.16399999936,
      "d": 110.55199999999604,
      "v": 66
    },
    {
      "midi": 62,
      "hit": false,
      "t": 84861.41599999936,
      "d": 80.78800000000047,
      "v": 71
    },
    {
      "midi": 71,
      "hit": false,
      "t": 84861.41599999936,
      "d": 144.5679999999993,
      "v": 76
    },
    {
      "midi": 72,
      "hit": false,
      "t": 85039.99999999996,
      "d": 365.67200000000594,
      "v": 109
    },
    {
      "midi": 48,
      "hit": false,
      "t": 85061.26000000002,
      "d": 369.92399999999907,
      "v": 109
    },
    {
      "midi": 64,
      "hit": false,
      "t": 85065.51199999936,
      "d": 467.72000000000116,
      "v": 80
    },
    {
      "midi": 67,
      "hit": false,
      "t": 85065.51199999936,
      "d": 710.083999999988,
      "v": 84
    },
    {
      "midi": 72,
      "hit": false,
      "t": 85069.76399999936,
      "d": 701.5800000000017,
      "v": 90
    },
    {
      "midi": 52,
      "hit": false,
      "t": 85265.35599999936,
      "d": 369.92399999999907,
      "v": 62
    },
    {
      "midi": 67,
      "hit": false,
      "t": 85448.19199999997,
      "d": 97.7960000000021,
      "v": 117
    },
    {
      "midi": 55,
      "hit": false,
      "t": 85469.45199999936,
      "d": 233.85999999998603,
      "v": 66
    },
    {
      "midi": 40,
      "hit": false,
      "t": 85469.45200000002,
      "d": 310.39599999999336,
      "v": 122
    },
    {
      "midi": 67,
      "hit": false,
      "t": 85652.28799999997,
      "d": 140.31600000000617,
      "v": 113
    },
    {
      "midi": 60,
      "hit": false,
      "t": 85673.54799999935,
      "d": 170.0799999999872,
      "v": 68
    },
    {
      "midi": 64,
      "hit": false,
      "t": 85677.79999999935,
      "d": 127.55999999999767,
      "v": 77
    },
    {
      "midi": 69,
      "hit": false,
      "t": 85856.38399999998,
      "d": 408.19199999999546,
      "v": 122
    },
    {
      "midi": 53,
      "hit": false,
      "t": 85877.64399999935,
      "d": 1454.183999999921,
      "v": 80
    },
    {
      "midi": 41,
      "hit": false,
      "t": 85877.64400000001,
      "d": 344.4119999999966,
      "v": 109
    },
    {
      "midi": 65,
      "hit": false,
      "t": 86081.73999999935,
      "d": 131.8119999999908,
      "v": 79
    },
    {
      "midi": 60,
      "hit": false,
      "t": 86085.99199999934,
      "d": 63.779999999998836,
      "v": 82
    },
    {
      "midi": 69,
      "hit": false,
      "t": 86085.99199999934,
      "d": 136.0639999999985,
      "v": 80
    },
    {
      "midi": 72,
      "hit": false,
      "t": 86090.24399999934,
      "d": 110.5520000000106,
      "v": 88
    },
    {
      "midi": 68,
      "hit": false,
      "t": 86264.57599999997,
      "d": 123.30800000000454,
      "v": 126
    },
    {
      "midi": 57,
      "hit": false,
      "t": 86285.83599999934,
      "d": 216.8519999999844,
      "v": 69
    },
    {
      "midi": 48,
      "hit": false,
      "t": 86285.83600000001,
      "d": 170.08000000000175,
      "v": 113
    },
    {
      "midi": 69,
      "hit": false,
      "t": 86468.67199999998,
      "d": 429.4519999999902,
      "v": 106
    },
    {
      "midi": 69,
      "hit": false,
      "t": 86489.93199999935,
      "d": 165.8279999999795,
      "v": 77
    },
    {
      "midi": 53,
      "hit": false,
      "t": 86489.93200000002,
      "d": 204.096000000005,
      "v": 97
    },
    {
      "midi": 72,
      "hit": false,
      "t": 86494.18399999934,
      "d": 123.30799999998999,
      "v": 74
    },
    {
      "midi": 65,
      "hit": false,
      "t": 86494.18399999934,
      "d": 136.06399999998393,
      "v": 74
    },
    {
      "midi": 60,
      "hit": false,
      "t": 86498.43599999933,
      "d": 59.52799999999115,
      "v": 74
    },
    {
      "midi": 41,
      "hit": false,
      "t": 86694.02800000002,
      "d": 433.7039999999979,
      "v": 103
    },
    {
      "midi": 57,
      "hit": false,
      "t": 86698.27999999933,
      "d": 212.59999999997672,
      "v": 56
    },
    {
      "midi": 65,
      "hit": false,
      "t": 86876.86399999997,
      "d": 221.10399999999208,
      "v": 109
    },
    {
      "midi": 65,
      "hit": false,
      "t": 86898.12399999933,
      "d": 136.06399999996938,
      "v": 69
    },
    {
      "midi": 72,
      "hit": false,
      "t": 86902.37599999932,
      "d": 119.0559999999823,
      "v": 72
    },
    {
      "midi": 69,
      "hit": false,
      "t": 86902.37599999932,
      "d": 144.5679999999702,
      "v": 71
    },
    {
      "midi": 60,
      "hit": false,
      "t": 86906.62799999931,
      "d": 80.78799999998591,
      "v": 70
    },
    {
      "midi": 64,
      "hit": false,
      "t": 87080.95999999996,
      "d": 136.0639999999985,
      "v": 100
    },
    {
      "midi": 57,
      "hit": false,
      "t": 87102.21999999929,
      "d": 216.8519999999844,
      "v": 66
    },
    {
      "midi": 48,
      "hit": false,
      "t": 87102.22000000002,
      "d": 199.84399999999732,
      "v": 113
    },
    {
      "midi": 64,
      "hit": false,
      "t": 87285.05599999997,
      "d": 34.01600000000326,
      "v": 50
    },
    {
      "midi": 62,
      "hit": false,
      "t": 87285.05599999997,
      "d": 123.30800000000454,
      "v": 103
    },
    {
      "midi": 69,
      "hit": false,
      "t": 87306.3159999993,
      "d": 131.81199999997625,
      "v": 76
    },
    {
      "midi": 53,
      "hit": false,
      "t": 87306.316,
      "d": 204.096000000005,
      "v": 84
    },
    {
      "midi": 60,
      "hit": false,
      "t": 87310.56799999929,
      "d": 80.78799999998591,
      "v": 77
    },
    {
      "midi": 65,
      "hit": false,
      "t": 87310.56799999929,
      "d": 106.29999999998836,
      "v": 76
    },
    {
      "midi": 72,
      "hit": false,
      "t": 87314.81999999928,
      "d": 93.54399999999441,
      "v": 80
    },
    {
      "midi": 71,
      "hit": false,
      "t": 87489.15199999997,
      "d": 89.29200000000128,
      "v": 100
    },
    {
      "midi": 69,
      "hit": false,
      "t": 87489.15199999997,
      "d": 1156.5439999999944,
      "v": 103
    },
    {
      "midi": 41,
      "hit": false,
      "t": 87510.41200000001,
      "d": 403.9400000000023,
      "v": 100
    },
    {
      "midi": 53,
      "hit": false,
      "t": 87514.66399999926,
      "d": 1045.9919999999547,
      "v": 72
    },
    {
      "midi": 65,
      "hit": false,
      "t": 87714.50799999926,
      "d": 165.8279999999795,
      "v": 77
    },
    {
      "midi": 69,
      "hit": false,
      "t": 87718.75999999925,
      "d": 161.57599999998638,
      "v": 77
    },
    {
      "midi": 72,
      "hit": false,
      "t": 87718.75999999925,
      "d": 161.57599999998638,
      "v": 79
    },
    {
      "midi": 60,
      "hit": false,
      "t": 87723.01199999925,
      "d": 136.0639999999985,
      "v": 77
    },
    {
      "midi": 65,
      "hit": false,
      "t": 87727.26399999995,
      "d": 233.86000000000058,
      "v": 126
    },
    {
      "midi": 77,
      "hit": false,
      "t": 87727.26399999995,
      "d": 233.86000000000058,
      "v": 127
    },
    {
      "midi": 48,
      "hit": false,
      "t": 87918.604,
      "d": 204.096000000005,
      "v": 106
    },
    {
      "midi": 76,
      "hit": false,
      "t": 87922.85599999996,
      "d": 221.10399999997753,
      "v": 100
    },
    {
      "midi": 64,
      "hit": false,
      "t": 87927.10799999995,
      "d": 221.10399999997753,
      "v": 97
    },
    {
      "midi": 53,
      "hit": false,
      "t": 88122.70000000001,
      "d": 178.58400000000256,
      "v": 100
    },
    {
      "midi": 65,
      "hit": false,
      "t": 88126.95199999923,
      "d": 144.5679999999993,
      "v": 80
    },
    {
      "midi": 69,
      "hit": false,
      "t": 88126.95199999923,
      "d": 161.57600000000093,
      "v": 74
    },
    {
      "midi": 60,
      "hit": false,
      "t": 88131.20399999923,
      "d": 114.80400000000373,
      "v": 72
    },
    {
      "midi": 72,
      "hit": false,
      "t": 88131.20399999923,
      "d": 140.31600000000617,
      "v": 79
    },
    {
      "midi": 74,
      "hit": false,
      "t": 88135.45599999995,
      "d": 174.33199999998033,
      "v": 88
    },
    {
      "midi": 62,
      "hit": false,
      "t": 88139.70799999994,
      "d": 174.33199999998033,
      "v": 103
    },
    {
      "midi": 41,
      "hit": false,
      "t": 88326.79600000002,
      "d": 442.2079999999987,
      "v": 95
    },
    {
      "midi": 57,
      "hit": false,
      "t": 88331.04799999992,
      "d": 705.8319999999803,
      "v": 106
    },
    {
      "midi": 69,
      "hit": false,
      "t": 88335.29999999992,
      "d": 688.8239999999932,
      "v": 103
    },
    {
      "midi": 81,
      "hit": false,
      "t": 88335.29999999992,
      "d": 705.8319999999803,
      "v": 97
    },
    {
      "midi": 69,
      "hit": false,
      "t": 88530.89199999924,
      "d": 148.81999999997788,
      "v": 71
    },
    {
      "midi": 60,
      "hit": false,
      "t": 88535.14399999923,
      "d": 97.79599999998754,
      "v": 63
    },
    {
      "midi": 65,
      "hit": false,
      "t": 88535.14399999923,
      "d": 123.30799999998999,
      "v": 73
    },
    {
      "midi": 72,
      "hit": false,
      "t": 88539.39599999922,
      "d": 123.30799999998999,
      "v": 69
    },
    {
      "midi": 48,
      "hit": false,
      "t": 88734.98800000001,
      "d": 182.83600000001024,
      "v": 97
    },
    {
      "midi": 65,
      "hit": false,
      "t": 88781.75999999997,
      "d": 89.29200000000128,
      "v": 73
    },
    {
      "midi": 69,
      "hit": false,
      "t": 88939.08399999922,
      "d": 131.81199999997625,
      "v": 76
    },
    {
      "midi": 53,
      "hit": false,
      "t": 88939.08400000002,
      "d": 178.58400000000256,
      "v": 97
    },
    {
      "midi": 60,
      "hit": false,
      "t": 88943.33599999921,
      "d": 68.03199999999197,
      "v": 73
    },
    {
      "midi": 65,
      "hit": false,
      "t": 88943.33599999921,
      "d": 97.79599999998754,
      "v": 76
    },
    {
      "midi": 72,
      "hit": false,
      "t": 88947.5879999992,
      "d": 97.79599999998754,
      "v": 79
    },
    {
      "midi": 65,
      "hit": false,
      "t": 88985.85599999997,
      "d": 157.32399999999325,
      "v": 100
    },
    {
      "midi": 67,
      "hit": false,
      "t": 89121.91999999997,
      "d": 408.19199999999546,
      "v": 90
    },
    {
      "midi": 52,
      "hit": false,
      "t": 89143.17999999919,
      "d": 1118.2759999999544,
      "v": 61
    },
    {
      "midi": 48,
      "hit": false,
      "t": 89143.18000000002,
      "d": 416.6959999999963,
      "v": 117
    },
    {
      "midi": 60,
      "hit": false,
      "t": 89147.43199999919,
      "d": 1131.0319999999483,
      "v": 56
    },
    {
      "midi": 67,
      "hit": false,
      "t": 89347.27599999918,
      "d": 140.31599999999162,
      "v": 77
    },
    {
      "midi": 64,
      "hit": false,
      "t": 89351.52799999918,
      "d": 127.55999999999767,
      "v": 67
    },
    {
      "midi": 72,
      "hit": false,
      "t": 89351.52799999918,
      "d": 161.57600000000093,
      "v": 77
    },
    {
      "midi": 66,
      "hit": false,
      "t": 89530.11199999996,
      "d": 144.5679999999993,
      "v": 100
    },
    {
      "midi": 52,
      "hit": false,
      "t": 89551.37200000002,
      "d": 178.58400000000256,
      "v": 97
    },
    {
      "midi": 67,
      "hit": false,
      "t": 89734.20799999997,
      "d": 408.19199999999546,
      "v": 106
    },
    {
      "midi": 64,
      "hit": false,
      "t": 89755.46799999918,
      "d": 123.30799999998999,
      "v": 56
    },
    {
      "midi": 55,
      "hit": false,
      "t": 89755.46800000002,
      "d": 233.86000000000058,
      "v": 90
    },
    {
      "midi": 67,
      "hit": false,
      "t": 89759.71999999917,
      "d": 119.05599999999686,
      "v": 69
    },
    {
      "midi": 72,
      "hit": false,
      "t": 89759.71999999917,
      "d": 131.8119999999908,
      "v": 71
    },
    {
      "midi": 48,
      "hit": false,
      "t": 89959.56400000003,
      "d": 403.9400000000023,
      "v": 95
    },
    {
      "midi": 64,
      "hit": false,
      "t": 90142.39999999997,
      "d": 216.85199999999895,
      "v": 90
    },
    {
      "midi": 64,
      "hit": false,
      "t": 90163.65999999916,
      "d": 110.55199999998149,
      "v": 64
    },
    {
      "midi": 67,
      "hit": false,
      "t": 90167.91199999915,
      "d": 114.80399999997462,
      "v": 76
    },
    {
      "midi": 72,
      "hit": false,
      "t": 90167.91199999915,
      "d": 136.06399999996938,
      "v": 74
    },
    {
      "midi": 62,
      "hit": false,
      "t": 90346.49599999997,
      "d": 225.35599999998522,
      "v": 88
    },
    {
      "midi": 52,
      "hit": false,
      "t": 90367.75600000002,
      "d": 182.8359999999957,
      "v": 106
    },
    {
      "midi": 60,
      "hit": false,
      "t": 90550.59199999996,
      "d": 102.04799999999523,
      "v": 109
    },
    {
      "midi": 67,
      "hit": false,
      "t": 90571.85199999913,
      "d": 85.0399999999936,
      "v": 80
    },
    {
      "midi": 55,
      "hit": false,
      "t": 90571.85200000001,
      "d": 178.58400000000256,
      "v": 90
    },
    {
      "midi": 64,
      "hit": false,
      "t": 90576.10399999912,
      "d": 85.0399999999936,
      "v": 67
    },
    {
      "midi": 72,
      "hit": false,
      "t": 90576.10399999912,
      "d": 119.05599999999686,
      "v": 82
    },
    {
      "midi": 67,
      "hit": false,
      "t": 90754.68799999995,
      "d": 1028.9839999999967,
      "v": 86
    },
    {
      "midi": 60,
      "hit": false,
      "t": 90775.94799999912,
      "d": 1483.9479999999458,
      "v": 56
    },
    {
      "midi": 48,
      "hit": false,
      "t": 90775.94800000002,
      "d": 446.45999999999185,
      "v": 106
    },
    {
      "midi": 52,
      "hit": false,
      "t": 90780.19999999911,
      "d": 1407.4119999999675,
      "v": 62
    },
    {
      "midi": 67,
      "hit": false,
      "t": 90980.0439999991,
      "d": 165.82799999999406,
      "v": 71
    },
    {
      "midi": 64,
      "hit": false,
      "t": 90984.2959999991,
      "d": 144.5679999999993,
      "v": 60
    },
    {
      "midi": 72,
      "hit": false,
      "t": 90984.2959999991,
      "d": 165.82799999999406,
      "v": 74
    },
    {
      "midi": 64,
      "hit": false,
      "t": 90988.5479999999,
      "d": 229.60799999997835,
      "v": 122
    },
    {
      "midi": 76,
      "hit": false,
      "t": 90992.79999999989,
      "d": 221.10399999999208,
      "v": 127
    },
    {
      "midi": 52,
      "hit": false,
      "t": 91184.14000000001,
      "d": 195.59199999998964,
      "v": 97
    },
    {
      "midi": 74,
      "hit": false,
      "t": 91188.39199999989,
      "d": 229.60799999997835,
      "v": 106
    },
    {
      "midi": 62,
      "hit": false,
      "t": 91192.64399999988,
      "d": 225.35599999998522,
      "v": 109
    },
    {
      "midi": 67,
      "hit": false,
      "t": 91388.23599999909,
      "d": 140.31599999999162,
      "v": 71
    },
    {
      "midi": 55,
      "hit": false,
      "t": 91388.236,
      "d": 191.3399999999965,
      "v": 90
    },
    {
      "midi": 64,
      "hit": false,
      "t": 91392.48799999908,
      "d": 123.30800000000454,
      "v": 63
    },
    {
      "midi": 72,
      "hit": false,
      "t": 91392.48799999908,
      "d": 161.57600000000093,
      "v": 73
    },
    {
      "midi": 72,
      "hit": false,
      "t": 91396.73999999987,
      "d": 233.85999999998603,
      "v": 92
    },
    {
      "midi": 60,
      "hit": false,
      "t": 91400.99199999987,
      "d": 191.3399999999965,
      "v": 100
    },
    {
      "midi": 48,
      "hit": false,
      "t": 91592.332,
      "d": 420.9479999999894,
      "v": 100
    },
    {
      "midi": 67,
      "hit": false,
      "t": 91600.83599999986,
      "d": 680.3199999999924,
      "v": 100
    },
    {
      "midi": 79,
      "hit": false,
      "t": 91600.83599999986,
      "d": 705.8319999999949,
      "v": 100
    },
    {
      "midi": 55,
      "hit": false,
      "t": 91605.08799999986,
      "d": 701.5800000000017,
      "v": 88
    },
    {
      "midi": 72,
      "hit": false,
      "t": 91775.16799999995,
      "d": 204.096000000005,
      "v": 113
    },
    {
      "midi": 67,
      "hit": false,
      "t": 91796.42799999908,
      "d": 136.0639999999985,
      "v": 77
    },
    {
      "midi": 64,
      "hit": false,
      "t": 91800.67999999908,
      "d": 114.80400000000373,
      "v": 65
    },
    {
      "midi": 72,
      "hit": false,
      "t": 91800.67999999908,
      "d": 148.82000000000698,
      "v": 79
    },
    {
      "midi": 74,
      "hit": false,
      "t": 91979.26399999995,
      "d": 250.8680000000022,
      "v": 95
    },
    {
      "midi": 52,
      "hit": false,
      "t": 92000.52399999999,
      "d": 191.3399999999965,
      "v": 90
    },
    {
      "midi": 72,
      "hit": false,
      "t": 92183.35999999996,
      "d": 195.5920000000042,
      "v": 117
    },
    {
      "midi": 55,
      "hit": false,
      "t": 92204.61999999998,
      "d": 182.8359999999957,
      "v": 95
    },
    {
      "midi": 67,
      "hit": false,
      "t": 92208.87199999907,
      "d": 72.2839999999851,
      "v": 80
    },
    {
      "midi": 64,
      "hit": false,
      "t": 92208.87199999907,
      "d": 76.53599999997823,
      "v": 77
    },
    {
      "midi": 72,
      "hit": false,
      "t": 92213.12399999906,
      "d": 85.03999999997905,
      "v": 88
    },
    {
      "midi": 71,
      "hit": false,
      "t": 92387.45599999996,
      "d": 646.3040000000037,
      "v": 126
    },
    {
      "midi": 55,
      "hit": false,
      "t": 92408.71599999904,
      "d": 591.0279999999912,
      "v": 58
    },
    {
      "midi": 43,
      "hit": false,
      "t": 92408.71599999997,
      "d": 395.4360000000015,
      "v": 97
    },
    {
      "midi": 59,
      "hit": false,
      "t": 92612.81199999904,
      "d": 535.751999999964,
      "v": 67
    },
    {
      "midi": 62,
      "hit": false,
      "t": 92617.06399999904,
      "d": 501.7359999999753,
      "v": 73
    },
    {
      "midi": 67,
      "hit": false,
      "t": 92816.90799999904,
      "d": 165.82799999999406,
      "v": 74
    },
    {
      "midi": 50,
      "hit": false,
      "t": 92816.90799999997,
      "d": 344.4119999999966,
      "v": 103
    },
    {
      "midi": 72,
      "hit": false,
      "t": 92999.74399999996,
      "d": 204.096000000005,
      "v": 100
    },
    {
      "midi": 67,
      "hit": false,
      "t": 93021.00399999903,
      "d": 127.55999999998312,
      "v": 65
    },
    {
      "midi": 71,
      "hit": false,
      "t": 93025.25599999902,
      "d": 119.05599999999686,
      "v": 90
    },
    {
      "midi": 69,
      "hit": false,
      "t": 93203.83999999997,
      "d": 663.3120000000054,
      "v": 113
    },
    {
      "midi": 53,
      "hit": false,
      "t": 93225.099999999,
      "d": 671.8159999999771,
      "v": 61
    },
    {
      "midi": 41,
      "hit": false,
      "t": 93225.09999999996,
      "d": 433.7039999999979,
      "v": 88
    },
    {
      "midi": 65,
      "hit": false,
      "t": 93229.351999999,
      "d": 170.08000000000175,
      "v": 95
    },
    {
      "midi": 69,
      "hit": false,
      "t": 93229.351999999,
      "d": 229.6079999999929,
      "v": 88
    },
    {
      "midi": 57,
      "hit": false,
      "t": 93429.19599999899,
      "d": 505.987999999983,
      "v": 71
    },
    {
      "midi": 60,
      "hit": false,
      "t": 93633.29199999898,
      "d": 140.31600000000617,
      "v": 62
    },
    {
      "midi": 48,
      "hit": false,
      "t": 93633.29199999996,
      "d": 357.1680000000051,
      "v": 97
    },
    {
      "midi": 69,
      "hit": false,
      "t": 93837.38799999899,
      "d": 127.55999999998312,
      "v": 88
    },
    {
      "midi": 60,
      "hit": false,
      "t": 93841.63999999898,
      "d": 72.28399999999965,
      "v": 76
    },
    {
      "midi": 65,
      "hit": false,
      "t": 93841.63999999898,
      "d": 89.29200000000128,
      "v": 80
    },
    {
      "midi": 67,
      "hit": false,
      "t": 93884.15999999997,
      "d": 195.5920000000042,
      "v": 113
    },
    {
      "midi": 71,
      "hit": false,
      "t": 94020.22399999997,
      "d": 999.2200000000012,
      "v": 122
    },
    {
      "midi": 55,
      "hit": false,
      "t": 94041.48399999896,
      "d": 1343.6319999999978,
      "v": 80
    },
    {
      "midi": 43,
      "hit": false,
      "t": 94041.48399999997,
      "d": 416.6959999999963,
      "v": 109
    },
    {
      "midi": 62,
      "hit": false,
      "t": 94245.57999999897,
      "d": 446.4600000000064,
      "v": 82
    },
    {
      "midi": 67,
      "hit": false,
      "t": 94449.67599999897,
      "d": 280.6319999999978,
      "v": 74
    },
    {
      "midi": 50,
      "hit": false,
      "t": 94449.67599999996,
      "d": 165.82799999999406,
      "v": 106
    },
    {
      "midi": 74,
      "hit": false,
      "t": 94653.77199999898,
      "d": 144.5679999999993,
      "v": 95
    },
    {
      "midi": 55,
      "hit": false,
      "t": 94653.77199999995,
      "d": 229.60800000000745,
      "v": 90
    },
    {
      "midi": 67,
      "hit": false,
      "t": 94857.86799999898,
      "d": 178.583999999988,
      "v": 76
    },
    {
      "midi": 43,
      "hit": false,
      "t": 94857.86799999996,
      "d": 420.9479999999894,
      "v": 100
    },
    {
      "midi": 62,
      "hit": false,
      "t": 94862.11999999898,
      "d": 144.5679999999993,
      "v": 57
    },
    {
      "midi": 71,
      "hit": false,
      "t": 94862.11999999898,
      "d": 178.583999999988,
      "v": 77
    },
    {
      "midi": 72,
      "hit": false,
      "t": 95040.70399999997,
      "d": 182.8359999999957,
      "v": 106
    },
    {
      "midi": 59,
      "hit": false,
      "t": 95061.96399999896,
      "d": 450.71199999999953,
      "v": 80
    },
    {
      "midi": 74,
      "hit": false,
      "t": 95244.79999999996,
      "d": 242.3640000000014,
      "v": 95
    },
    {
      "midi": 62,
      "hit": false,
      "t": 95266.05999999896,
      "d": 161.57600000000093,
      "v": 54
    },
    {
      "midi": 50,
      "hit": false,
      "t": 95266.05999999995,
      "d": 216.8519999999844,
      "v": 100
    },
    {
      "midi": 72,
      "hit": false,
      "t": 95448.89599999996,
      "d": 229.6079999999929,
      "v": 113
    },
    {
      "midi": 67,
      "hit": false,
      "t": 95470.15599999897,
      "d": 114.80399999998917,
      "v": 82
    },
    {
      "midi": 55,
      "hit": false,
      "t": 95470.15599999994,
      "d": 199.84399999999732,
      "v": 95
    },
    {
      "midi": 62,
      "hit": false,
      "t": 95474.40799999896,
      "d": 102.04799999999523,
      "v": 69
    },
    {
      "midi": 71,
      "hit": false,
      "t": 95474.40799999896,
      "d": 131.8119999999908,
      "v": 80
    },
    {
      "midi": 71,
      "hit": false,
      "t": 95652.99199999995,
      "d": 429.4519999999902,
      "v": 122
    },
    {
      "midi": 55,
      "hit": false,
      "t": 95674.25199999896,
      "d": 756.8560000000143,
      "v": 67
    },
    {
      "midi": 43,
      "hit": false,
      "t": 95674.25199999993,
      "d": 284.88400000000547,
      "v": 97
    },
    {
      "midi": 62,
      "hit": false,
      "t": 95878.34799999896,
      "d": 463.46800000000803,
      "v": 79
    },
    {
      "midi": 72,
      "hit": false,
      "t": 96061.18399999995,
      "d": 378.4279999999999,
      "v": 113
    },
    {
      "midi": 67,
      "hit": false,
      "t": 96082.44399999897,
      "d": 310.3960000000079,
      "v": 66
    },
    {
      "midi": 43,
      "hit": false,
      "t": 96082.44399999994,
      "d": 395.4360000000015,
      "v": 100
    },
    {
      "midi": 71,
      "hit": false,
      "t": 96286.53999999897,
      "d": 131.81200000000536,
      "v": 92
    },
    {
      "midi": 69,
      "hit": false,
      "t": 96469.37599999995,
      "d": 476.224000000002,
      "v": 109
    },
    {
      "midi": 65,
      "hit": false,
      "t": 96490.63599999898,
      "d": 191.3399999999965,
      "v": 80
    },
    {
      "midi": 41,
      "hit": false,
      "t": 96490.63599999994,
      "d": 297.6399999999994,
      "v": 97
    },
    {
      "midi": 60,
      "hit": false,
      "t": 96494.88799999897,
      "d": 148.82000000000698,
      "v": 79
    },
    {
      "midi": 69,
      "hit": false,
      "t": 96494.88799999897,
      "d": 161.57600000000093,
      "v": 79
    },
    {
      "midi": 57,
      "hit": false,
      "t": 96694.73199999897,
      "d": 408.19200000001,
      "v": 67
    },
    {
      "midi": 68,
      "hit": false,
      "t": 96877.56799999994,
      "d": 403.9400000000023,
      "v": 127
    },
    {
      "midi": 60,
      "hit": false,
      "t": 96898.82799999898,
      "d": 148.82000000000698,
      "v": 66
    },
    {
      "midi": 41,
      "hit": false,
      "t": 96898.82799999994,
      "d": 263.62399999999616,
      "v": 100
    },
    {
      "midi": 60,
      "hit": false,
      "t": 97102.92399999898,
      "d": 97.79599999998754,
      "v": 70
    },
    {
      "midi": 65,
      "hit": false,
      "t": 97107.17599999897,
      "d": 106.29999999998836,
      "v": 80
    },
    {
      "midi": 69,
      "hit": false,
      "t": 97111.42799999897,
      "d": 127.55999999999767,
      "v": 84
    },
    {
      "midi": 67,
      "hit": false,
      "t": 97285.75999999994,
      "d": 1075.755999999994,
      "v": 117
    },
    {
      "midi": 52,
      "hit": false,
      "t": 97307.01999999897,
      "d": 1369.1440000000148,
      "v": 66
    },
    {
      "midi": 48,
      "hit": false,
      "t": 97307.01999999993,
      "d": 378.4279999999999,
      "v": 103
    },
    {
      "midi": 60,
      "hit": false,
      "t": 97511.11599999898,
      "d": 301.8920000000071,
      "v": 82
    },
    {
      "midi": 64,
      "hit": false,
      "t": 97715.21199999898,
      "d": 331.6560000000027,
      "v": 76
    },
    {
      "midi": 52,
      "hit": false,
      "t": 97715.21199999993,
      "d": 221.10400000000664,
      "v": 90
    },
    {
      "midi": 72,
      "hit": false,
      "t": 97919.30799999899,
      "d": 136.0639999999985,
      "v": 95
    },
    {
      "midi": 55,
      "hit": false,
      "t": 97919.30799999993,
      "d": 195.5920000000042,
      "v": 95
    },
    {
      "midi": 64,
      "hit": false,
      "t": 98123.40399999899,
      "d": 773.8639999999868,
      "v": 69
    },
    {
      "midi": 48,
      "hit": false,
      "t": 98123.40399999994,
      "d": 416.6959999999963,
      "v": 103
    },
    {
      "midi": 67,
      "hit": false,
      "t": 98127.65599999898,
      "d": 761.1079999999929,
      "v": 88
    },
    {
      "midi": 55,
      "hit": false,
      "t": 98327.49999999898,
      "d": 433.70400000001246,
      "v": 64
    },
    {
      "midi": 67,
      "hit": false,
      "t": 98510.33599999994,
      "d": 93.54399999999441,
      "v": 106
    },
    {
      "midi": 60,
      "hit": false,
      "t": 98531.59599999899,
      "d": 306.14400000000023,
      "v": 88
    },
    {
      "midi": 52,
      "hit": false,
      "t": 98531.59599999993,
      "d": 182.8359999999957,
      "v": 100
    },
    {
      "midi": 67,
      "hit": false,
      "t": 98714.43199999993,
      "d": 123.30800000000454,
      "v": 90
    },
    {
      "midi": 72,
      "hit": false,
      "t": 98735.69199999899,
      "d": 123.30799999998999,
      "v": 82
    },
    {
      "midi": 55,
      "hit": false,
      "t": 98735.69199999992,
      "d": 199.84399999999732,
      "v": 97
    },
    {
      "midi": 69,
      "hit": false,
      "t": 98918.52799999993,
      "d": 510.2399999999907,
      "v": 117
    },
    {
      "midi": 65,
      "hit": false,
      "t": 98939.78799999898,
      "d": 165.8279999999795,
      "v": 88
    },
    {
      "midi": 41,
      "hit": false,
      "t": 98939.78799999991,
      "d": 412.4439999999886,
      "v": 106
    },
    {
      "midi": 60,
      "hit": false,
      "t": 98944.03999999897,
      "d": 140.31599999999162,
      "v": 73
    },
    {
      "midi": 69,
      "hit": false,
      "t": 98944.03999999897,
      "d": 157.32399999999325,
      "v": 84
    },
    {
      "midi": 57,
      "hit": false,
      "t": 98948.29199999897,
      "d": 1105.5199999999168,
      "v": 70
    },
    {
      "midi": 65,
      "hit": false,
      "t": 99143.88399999896,
      "d": 161.57599999997183,
      "v": 88
    },
    {
      "midi": 60,
      "hit": false,
      "t": 99148.13599999895,
      "d": 80.78799999998591,
      "v": 86
    },
    {
      "midi": 69,
      "hit": false,
      "t": 99152.38799999894,
      "d": 153.07199999998556,
      "v": 84
    },
    {
      "midi": 72,
      "hit": false,
      "t": 99152.38799999894,
      "d": 157.3239999999787,
      "v": 90
    },
    {
      "midi": 67,
      "hit": false,
      "t": 99326.71999999993,
      "d": 170.08000000000175,
      "v": 86
    },
    {
      "midi": 48,
      "hit": false,
      "t": 99347.97999999991,
      "d": 280.6319999999978,
      "v": 109
    },
    {
      "midi": 69,
      "hit": false,
      "t": 99530.81599999993,
      "d": 425.1999999999971,
      "v": 113
    },
    {
      "midi": 65,
      "hit": false,
      "t": 99552.07599999892,
      "d": 110.55199999998149,
      "v": 70
    },
    {
      "midi": 60,
      "hit": false,
      "t": 99556.32799999892,
      "d": 93.54399999999441,
      "v": 73
    },
    {
      "midi": 72,
      "hit": false,
      "t": 99556.32799999892,
      "d": 97.79599999998754,
      "v": 73
    },
    {
      "midi": 69,
      "hit": false,
      "t": 99556.32799999892,
      "d": 127.55999999998312,
      "v": 76
    },
    {
      "midi": 41,
      "hit": false,
      "t": 99756.1719999999,
      "d": 297.6399999999994,
      "v": 95
    },
    {
      "midi": 69,
      "hit": false,
      "t": 99960.2679999989,
      "d": 148.81999999996333,
      "v": 74
    },
    {
      "midi": 60,
      "hit": false,
      "t": 99964.5199999989,
      "d": 102.04799999998068,
      "v": 69
    },
    {
      "midi": 65,
      "hit": false,
      "t": 99964.5199999989,
      "d": 123.30799999997544,
      "v": 74
    },
    {
      "midi": 72,
      "hit": false,
      "t": 99968.77199999889,
      "d": 114.80399999998917,
      "v": 72
    },
    {
      "midi": 65,
      "hit": false,
      "t": 100007.03999999994,
      "d": 178.58400000000256,
      "v": 100
    },
    {
      "midi": 64,
      "hit": false,
      "t": 100143.10399999993,
      "d": 144.5679999999993,
      "v": 84
    },
    {
      "midi": 62,
      "hit": false,
      "t": 100143.10399999993,
      "d": 170.08000000000175,
      "v": 86
    },
    {
      "midi": 48,
      "hit": false,
      "t": 100164.3639999999,
      "d": 301.8920000000071,
      "v": 97
    },
    {
      "midi": 65,
      "hit": false,
      "t": 100368.45999999887,
      "d": 114.80399999998917,
      "v": 73
    },
    {
      "midi": 60,
      "hit": false,
      "t": 100372.71199999886,
      "d": 102.04799999999523,
      "v": 71
    },
    {
      "midi": 69,
      "hit": false,
      "t": 100372.71199999886,
      "d": 140.31599999999162,
      "v": 73
    },
    {
      "midi": 72,
      "hit": false,
      "t": 100376.96399999886,
      "d": 106.30000000000291,
      "v": 76
    },
    {
      "midi": 62,
      "hit": false,
      "t": 100415.23199999993,
      "d": 136.0639999999985,
      "v": 100
    },
    {
      "midi": 57,
      "hit": false,
      "t": 100572.55599999886,
      "d": 1169.2999999999447,
      "v": 54
    },
    {
      "midi": 41,
      "hit": false,
      "t": 100572.55599999991,
      "d": 369.92399999999907,
      "v": 97
    },
    {
      "midi": 53,
      "hit": false,
      "t": 100576.80799999885,
      "d": 1182.0559999999532,
      "v": 61
    },
    {
      "midi": 69,
      "hit": false,
      "t": 100619.32799999994,
      "d": 1148.0399999999936,
      "v": 113
    },
    {
      "midi": 65,
      "hit": false,
      "t": 100776.65199999885,
      "d": 131.81199999997625,
      "v": 73
    },
    {
      "midi": 60,
      "hit": false,
      "t": 100780.90399999885,
      "d": 106.29999999998836,
      "v": 70
    },
    {
      "midi": 69,
      "hit": false,
      "t": 100780.90399999885,
      "d": 161.57599999998638,
      "v": 71
    },
    {
      "midi": 72,
      "hit": false,
      "t": 100785.15599999884,
      "d": 110.55199999999604,
      "v": 74
    },
    {
      "midi": 65,
      "hit": false,
      "t": 100789.40799999986,
      "d": 246.61599999999453,
      "v": 117
    },
    {
      "midi": 77,
      "hit": false,
      "t": 100789.40799999986,
      "d": 246.61599999999453,
      "v": 126
    },
    {
      "midi": 48,
      "hit": false,
      "t": 100980.7479999999,
      "d": 178.58400000000256,
      "v": 109
    },
    {
      "midi": 76,
      "hit": false,
      "t": 100984.99999999987,
      "d": 161.57599999998638,
      "v": 122
    },
    {
      "midi": 64,
      "hit": false,
      "t": 100989.25199999986,
      "d": 212.59999999999127,
      "v": 103
    },
    {
      "midi": 65,
      "hit": false,
      "t": 101184.84399999883,
      "d": 114.80399999998917,
      "v": 76
    },
    {
      "midi": 53,
      "hit": false,
      "t": 101184.84399999991,
      "d": 204.096000000005,
      "v": 86
    },
    {
      "midi": 60,
      "hit": false,
      "t": 101189.09599999883,
      "d": 93.54399999999441,
      "v": 74
    },
    {
      "midi": 69,
      "hit": false,
      "t": 101189.09599999883,
      "d": 119.05599999999686,
      "v": 73
    },
    {
      "midi": 72,
      "hit": false,
      "t": 101193.34799999882,
      "d": 106.30000000000291,
      "v": 77
    },
    {
      "midi": 62,
      "hit": false,
      "t": 101197.59999999986,
      "d": 178.583999999988,
      "v": 106
    },
    {
      "midi": 74,
      "hit": false,
      "t": 101197.59999999986,
      "d": 182.83599999998114,
      "v": 90
    },
    {
      "midi": 41,
      "hit": false,
      "t": 101388.93999999992,
      "d": 391.18399999999383,
      "v": 106
    },
    {
      "midi": 69,
      "hit": false,
      "t": 101397.44399999984,
      "d": 663.3119999999908,
      "v": 90
    },
    {
      "midi": 81,
      "hit": false,
      "t": 101397.44399999984,
      "d": 688.8239999999932,
      "v": 97
    },
    {
      "midi": 57,
      "hit": false,
      "t": 101401.69599999984,
      "d": 659.0599999999977,
      "v": 86
    },
    {
      "midi": 65,
      "hit": false,
      "t": 101593.03599999883,
      "d": 136.06399999998393,
      "v": 66
    },
    {
      "midi": 60,
      "hit": false,
      "t": 101597.28799999882,
      "d": 110.55199999999604,
      "v": 66
    },
    {
      "midi": 69,
      "hit": false,
      "t": 101597.28799999882,
      "d": 144.56799999998475,
      "v": 72
    },
    {
      "midi": 72,
      "hit": false,
      "t": 101601.53999999881,
      "d": 97.7960000000021,
      "v": 72
    },
    {
      "midi": 65,
      "hit": false,
      "t": 101775.87199999993,
      "d": 102.04799999999523,
      "v": 90
    },
    {
      "midi": 53,
      "hit": false,
      "t": 101797.13199999991,
      "d": 327.403999999995,
      "v": 100
    },
    {
      "midi": 65,
      "hit": false,
      "t": 101979.96799999992,
      "d": 123.30800000000454,
      "v": 100
    },
    {
      "midi": 65,
      "hit": false,
      "t": 102001.22799999881,
      "d": 93.54399999997986,
      "v": 72
    },
    {
      "midi": 60,
      "hit": false,
      "t": 102005.4799999988,
      "d": 68.03199999999197,
      "v": 74
    },
    {
      "midi": 69,
      "hit": false,
      "t": 102005.4799999988,
      "d": 106.29999999998836,
      "v": 82
    },
    {
      "midi": 72,
      "hit": false,
      "t": 102009.7319999988,
      "d": 55.27599999999802,
      "v": 71
    },
    {
      "midi": 67,
      "hit": false,
      "t": 102184.06399999993,
      "d": 433.7039999999979,
      "v": 97
    },
    {
      "midi": 55,
      "hit": false,
      "t": 102205.32399999879,
      "d": 1186.3079999999609,
      "v": 62
    },
    {
      "midi": 48,
      "hit": false,
      "t": 102205.3239999999,
      "d": 369.92399999999907,
      "v": 109
    },
    {
      "midi": 52,
      "hit": false,
      "t": 102209.57599999878,
      "d": 1182.0559999999678,
      "v": 57
    },
    {
      "midi": 60,
      "hit": false,
      "t": 102209.57599999878,
      "d": 1194.8119999999617,
      "v": 60
    },
    {
      "midi": 64,
      "hit": false,
      "t": 102409.41999999878,
      "d": 85.0399999999936,
      "v": 84
    },
    {
      "midi": 67,
      "hit": false,
      "t": 102409.41999999878,
      "d": 114.80399999998917,
      "v": 70
    },
    {
      "midi": 72,
      "hit": false,
      "t": 102413.67199999877,
      "d": 136.0639999999985,
      "v": 80
    },
    {
      "midi": 66,
      "hit": false,
      "t": 102592.25599999992,
      "d": 148.82000000000698,
      "v": 95
    },
    {
      "midi": 43,
      "hit": false,
      "t": 102613.5159999999,
      "d": 301.8920000000071,
      "v": 88
    },
    {
      "midi": 67,
      "hit": false,
      "t": 102796.35199999993,
      "d": 442.2079999999987,
      "v": 103
    },
    {
      "midi": 64,
      "hit": false,
      "t": 102817.61199999877,
      "d": 119.05599999999686,
      "v": 62
    },
    {
      "midi": 72,
      "hit": false,
      "t": 102817.61199999877,
      "d": 153.07200000000012,
      "v": 76
    },
    {
      "midi": 67,
      "hit": false,
      "t": 102821.86399999876,
      "d": 114.80400000000373,
      "v": 72
    },
    {
      "midi": 48,
      "hit": false,
      "t": 103021.70799999991,
      "d": 348.6640000000043,
      "v": 100
    },
    {
      "midi": 64,
      "hit": false,
      "t": 103225.80399999877,
      "d": 114.80399999998917,
      "v": 65
    },
    {
      "midi": 67,
      "hit": false,
      "t": 103225.80399999877,
      "d": 127.55999999998312,
      "v": 74
    },
    {
      "midi": 72,
      "hit": false,
      "t": 103230.05599999876,
      "d": 144.56799999998475,
      "v": 74
    },
    {
      "midi": 64,
      "hit": false,
      "t": 103272.57599999993,
      "d": 221.10400000000664,
      "v": 109
    },
    {
      "midi": 43,
      "hit": false,
      "t": 103429.89999999992,
      "d": 352.91599999999744,
      "v": 97
    },
    {
      "midi": 62,
      "hit": false,
      "t": 103476.67199999993,
      "d": 221.10399999999208,
      "v": 97
    },
    {
      "midi": 60,
      "hit": false,
      "t": 103612.73599999993,
      "d": 127.55999999999767,
      "v": 122
    },
    {
      "midi": 67,
      "hit": false,
      "t": 103633.99599999873,
      "d": 106.29999999998836,
      "v": 70
    },
    {
      "midi": 64,
      "hit": false,
      "t": 103638.24799999873,
      "d": 97.7960000000021,
      "v": 62
    },
    {
      "midi": 72,
      "hit": false,
      "t": 103638.24799999873,
      "d": 114.80399999998917,
      "v": 72
    },
    {
      "midi": 67,
      "hit": false,
      "t": 103816.83199999992,
      "d": 1045.9919999999984,
      "v": 113
    },
    {
      "midi": 55,
      "hit": false,
      "t": 103838.09199999871,
      "d": 1262.8439999999682,
      "v": 60
    },
    {
      "midi": 48,
      "hit": false,
      "t": 103838.09199999992,
      "d": 382.679999999993,
      "v": 113
    },
    {
      "midi": 60,
      "hit": false,
      "t": 103842.3439999987,
      "d": 1343.6319999999687,
      "v": 54
    },
    {
      "midi": 52,
      "hit": false,
      "t": 103842.3439999987,
      "d": 1352.1359999999695,
      "v": 56
    },
    {
      "midi": 64,
      "hit": false,
      "t": 104042.1879999987,
      "d": 131.8119999999908,
      "v": 69
    },
    {
      "midi": 67,
      "hit": false,
      "t": 104042.1879999987,
      "d": 161.57599999998638,
      "v": 76
    },
    {
      "midi": 72,
      "hit": false,
      "t": 104046.43999999869,
      "d": 140.31599999999162,
      "v": 76
    },
    {
      "midi": 76,
      "hit": false,
      "t": 104050.69199999984,
      "d": 191.3399999999965,
      "v": 126
    },
    {
      "midi": 64,
      "hit": false,
      "t": 104050.69199999984,
      "d": 212.59999999999127,
      "v": 122
    },
    {
      "midi": 52,
      "hit": false,
      "t": 104246.28399999991,
      "d": 204.096000000005,
      "v": 106
    },
    {
      "midi": 62,
      "hit": false,
      "t": 104250.53599999983,
      "d": 216.8519999999844,
      "v": 103
    },
    {
      "midi": 74,
      "hit": false,
      "t": 104254.78799999983,
      "d": 187.08800000000338,
      "v": 106
    },
    {
      "midi": 55,
      "hit": false,
      "t": 104450.37999999992,
      "d": 187.08800000000338,
      "v": 92
    },
    {
      "midi": 72,
      "hit": false,
      "t": 104454.63199999869,
      "d": 144.5679999999993,
      "v": 76
    },
    {
      "midi": 67,
      "hit": false,
      "t": 104454.63199999869,
      "d": 161.57600000000093,
      "v": 76
    },
    {
      "midi": 64,
      "hit": false,
      "t": 104458.88399999868,
      "d": 114.80400000000373,
      "v": 66
    },
    {
      "midi": 60,
      "hit": false,
      "t": 104463.13599999982,
      "d": 187.08799999998882,
      "v": 106
    },
    {
      "midi": 72,
      "hit": false,
      "t": 104463.13599999982,
      "d": 191.33999999998196,
      "v": 95
    },
    {
      "midi": 48,
      "hit": false,
      "t": 104654.47599999992,
      "d": 382.679999999993,
      "v": 113
    },
    {
      "midi": 67,
      "hit": false,
      "t": 104662.9799999998,
      "d": 646.3039999999892,
      "v": 88
    },
    {
      "midi": 79,
      "hit": false,
      "t": 104662.9799999998,
      "d": 667.5639999999839,
      "v": 100
    },
    {
      "midi": 55,
      "hit": false,
      "t": 104667.2319999998,
      "d": 667.5639999999839,
      "v": 97
    },
    {
      "midi": 72,
      "hit": false,
      "t": 104837.31199999992,
      "d": 178.58400000000256,
      "v": 109
    },
    {
      "midi": 64,
      "hit": false,
      "t": 104858.57199999869,
      "d": 110.55199999999604,
      "v": 72
    },
    {
      "midi": 67,
      "hit": false,
      "t": 104858.57199999869,
      "d": 131.8119999999908,
      "v": 76
    },
    {
      "midi": 72,
      "hit": false,
      "t": 104862.82399999868,
      "d": 131.8119999999908,
      "v": 77
    },
    {
      "midi": 74,
      "hit": false,
      "t": 105041.40799999992,
      "d": 191.3399999999965,
      "v": 122
    },
    {
      "midi": 52,
      "hit": false,
      "t": 105062.66799999992,
      "d": 199.84399999999732,
      "v": 97
    },
    {
      "midi": 72,
      "hit": false,
      "t": 105245.50399999991,
      "d": 178.58400000000256,
      "v": 100
    },
    {
      "midi": 67,
      "hit": false,
      "t": 105266.76399999867,
      "d": 93.54399999999441,
      "v": 79
    },
    {
      "midi": 55,
      "hit": false,
      "t": 105266.76399999991,
      "d": 170.08000000000175,
      "v": 97
    },
    {
      "midi": 64,
      "hit": false,
      "t": 105271.01599999866,
      "d": 123.30800000000454,
      "v": 84
    },
    {
      "midi": 72,
      "hit": false,
      "t": 105271.01599999866,
      "d": 136.0639999999985,
      "v": 77
    },
    {
      "midi": 71,
      "hit": false,
      "t": 105449.59999999992,
      "d": 659.0599999999977,
      "v": 109
    },
    {
      "midi": 59,
      "hit": false,
      "t": 105470.85999999866,
      "d": 761.1079999999929,
      "v": 64
    },
    {
      "midi": 43,
      "hit": false,
      "t": 105470.85999999991,
      "d": 276.38000000000466,
      "v": 100
    },
    {
      "midi": 55,
      "hit": false,
      "t": 105475.11199999865,
      "d": 761.1079999999929,
      "v": 73
    },
    {
      "midi": 62,
      "hit": false,
      "t": 105674.95599999865,
      "d": 518.744000000006,
      "v": 71
    },
    {
      "midi": 67,
      "hit": false,
      "t": 105879.05199999866,
      "d": 335.9079999999958,
      "v": 65
    },
    {
      "midi": 43,
      "hit": false,
      "t": 105879.05199999992,
      "d": 369.92399999999907,
      "v": 95
    },
    {
      "midi": 71,
      "hit": false,
      "t": 106083.14799999866,
      "d": 131.8119999999908,
      "v": 90
    },
    {
      "midi": 72,
      "hit": false,
      "t": 106129.91999999991,
      "d": 229.6079999999929,
      "v": 92
    },
    {
      "midi": 69,
      "hit": false,
      "t": 106265.98399999991,
      "d": 629.2960000000021,
      "v": 109
    },
    {
      "midi": 65,
      "hit": false,
      "t": 106287.24399999865,
      "d": 182.8359999999957,
      "v": 79
    },
    {
      "midi": 41,
      "hit": false,
      "t": 106287.24399999992,
      "d": 297.6399999999994,
      "v": 97
    },
    {
      "midi": 60,
      "hit": false,
      "t": 106291.49599999865,
      "d": 148.82000000000698,
      "v": 84
    },
    {
      "midi": 69,
      "hit": false,
      "t": 106291.49599999865,
      "d": 157.3240000000078,
      "v": 80
    },
    {
      "midi": 57,
      "hit": false,
      "t": 106491.33999999864,
      "d": 463.46800000000803,
      "v": 71
    },
    {
      "midi": 60,
      "hit": false,
      "t": 106695.43599999865,
      "d": 348.6640000000043,
      "v": 69
    },
    {
      "midi": 41,
      "hit": false,
      "t": 106695.43599999991,
      "d": 276.38000000000466,
      "v": 97
    },
    {
      "midi": 67,
      "hit": false,
      "t": 106878.27199999991,
      "d": 187.08800000000338,
      "v": 103
    },
    {
      "midi": 65,
      "hit": false,
      "t": 106899.53199999865,
      "d": 127.55999999999767,
      "v": 84
    },
    {
      "midi": 69,
      "hit": false,
      "t": 106903.78399999865,
      "d": 144.5679999999993,
      "v": 88
    },
    {
      "midi": 71,
      "hit": false,
      "t": 107082.36799999991,
      "d": 1007.724000000002,
      "v": 117
    },
    {
      "midi": 59,
      "hit": false,
      "t": 107103.62799999864,
      "d": 854.6520000000019,
      "v": 63
    },
    {
      "midi": 43,
      "hit": false,
      "t": 107103.62799999992,
      "d": 399.68799999999464,
      "v": 103
    },
    {
      "midi": 55,
      "hit": false,
      "t": 107107.87999999864,
      "d": 1398.9079999999958,
      "v": 73
    },
    {
      "midi": 62,
      "hit": false,
      "t": 107307.72399999863,
      "d": 467.7200000000157,
      "v": 74
    },
    {
      "midi": 67,
      "hit": false,
      "t": 107511.81999999864,
      "d": 301.8920000000071,
      "v": 80
    },
    {
      "midi": 50,
      "hit": false,
      "t": 107511.81999999992,
      "d": 170.08000000000175,
      "v": 106
    },
    {
      "midi": 74,
      "hit": false,
      "t": 107715.91599999864,
      "d": 161.57600000000093,
      "v": 82
    },
    {
      "midi": 55,
      "hit": false,
      "t": 107715.91599999992,
      "d": 216.85199999999895,
      "v": 80
    },
    {
      "midi": 67,
      "hit": false,
      "t": 107920.01199999865,
      "d": 199.84399999998277,
      "v": 76
    },
    {
      "midi": 43,
      "hit": false,
      "t": 107920.01199999993,
      "d": 399.68799999999464,
      "v": 103
    },
    {
      "midi": 62,
      "hit": false,
      "t": 107924.26399999864,
      "d": 170.08000000000175,
      "v": 62
    },
    {
      "midi": 71,
      "hit": false,
      "t": 107924.26399999864,
      "d": 182.8359999999957,
      "v": 72
    },
    {
      "midi": 71,
      "hit": false,
      "t": 108102.84799999991,
      "d": 63.779999999998836,
      "v": 55
    },
    {
      "midi": 72,
      "hit": false,
      "t": 108102.84799999991,
      "d": 174.33199999999488,
      "v": 95
    },
    {
      "midi": 59,
      "hit": false,
      "t": 108124.10799999863,
      "d": 425.1999999999971,
      "v": 67
    },
    {
      "midi": 74,
      "hit": false,
      "t": 108306.9439999999,
      "d": 233.86000000000058,
      "v": 109
    },
    {
      "midi": 62,
      "hit": false,
      "t": 108328.20399999863,
      "d": 331.6559999999881,
      "v": 56
    },
    {
      "midi": 50,
      "hit": false,
      "t": 108328.20399999993,
      "d": 250.8680000000022,
      "v": 100
    },
    {
      "midi": 72,
      "hit": false,
      "t": 108511.0399999999,
      "d": 195.59199999998964,
      "v": 86
    },
    {
      "midi": 67,
      "hit": false,
      "t": 108532.29999999864,
      "d": 123.30799999998999,
      "v": 80
    },
    {
      "midi": 55,
      "hit": false,
      "t": 108532.29999999993,
      "d": 191.3399999999965,
      "v": 95
    },
    {
      "midi": 71,
      "hit": false,
      "t": 108536.55199999863,
      "d": 131.8119999999908,
      "v": 80
    },
    {
      "midi": 71,
      "hit": false,
      "t": 108715.1359999999,
      "d": 412.4439999999886,
      "v": 109
    },
    {
      "midi": 55,
      "hit": false,
      "t": 108736.39599999863,
      "d": 790.872000000003,
      "v": 65
    },
    {
      "midi": 43,
      "hit": false,
      "t": 108736.39599999992,
      "d": 280.6319999999978,
      "v": 103
    },
    {
      "midi": 62,
      "hit": false,
      "t": 108940.49199999863,
      "d": 480.4759999999951,
      "v": 71
    },
    {
      "midi": 72,
      "hit": false,
      "t": 109123.32799999989,
      "d": 416.6959999999963,
      "v": 92
    },
    {
      "midi": 67,
      "hit": false,
      "t": 109144.58799999864,
      "d": 297.63999999998487,
      "v": 70
    },
    {
      "midi": 43,
      "hit": false,
      "t": 109144.58799999992,
      "d": 365.67200000000594,
      "v": 109
    },
    {
      "midi": 59,
      "hit": false,
      "t": 109148.83999999863,
      "d": 318.8999999999942,
      "v": 71
    },
    {
      "midi": 71,
      "hit": false,
      "t": 109348.68399999863,
      "d": 119.05599999999686,
      "v": 79
    },
    {
      "midi": 69,
      "hit": false,
      "t": 109531.51999999989,
      "d": 450.71199999999953,
      "v": 113
    },
    {
      "midi": 41,
      "hit": false,
      "t": 109552.77999999993,
      "d": 280.6319999999978,
      "v": 100
    },
    {
      "midi": 65,
      "hit": false,
      "t": 109557.03199999862,
      "d": 174.33199999998033,
      "v": 73
    },
    {
      "midi": 69,
      "hit": false,
      "t": 109557.03199999862,
      "d": 178.58399999997346,
      "v": 79
    },
    {
      "midi": 60,
      "hit": false,
      "t": 109561.28399999862,
      "d": 157.32399999999325,
      "v": 74
    },
    {
      "midi": 57,
      "hit": false,
      "t": 109756.87599999859,
      "d": 527.2479999999923,
      "v": 70
    },
    {
      "midi": 71,
      "hit": false,
      "t": 109939.71199999988,
      "d": 374.17600000000675,
      "v": 122
    },
    {
      "midi": 60,
      "hit": false,
      "t": 109960.9719999986,
      "d": 161.57600000000093,
      "v": 67
    },
    {
      "midi": 41,
      "hit": false,
      "t": 109960.97199999992,
      "d": 212.60000000000582,
      "v": 100
    },
    {
      "midi": 60,
      "hit": false,
      "t": 110165.0679999986,
      "d": 68.03199999999197,
      "v": 41
    },
    {
      "midi": 65,
      "hit": false,
      "t": 110169.3199999986,
      "d": 80.78800000000047,
      "v": 79
    },
    {
      "midi": 69,
      "hit": false,
      "t": 110169.3199999986,
      "d": 110.55199999999604,
      "v": 84
    },
    {
      "midi": 72,
      "hit": false,
      "t": 110347.9039999999,
      "d": 897.1720000000059,
      "v": 92
    },
    {
      "midi": 60,
      "hit": false,
      "t": 110369.16399999858,
      "d": 276.3799999999901,
      "v": 73
    },
    {
      "midi": 48,
      "hit": false,
      "t": 110369.16399999993,
      "d": 391.18399999999383,
      "v": 95
    },
    {
      "midi": 52,
      "hit": false,
      "t": 110373.41599999857,
      "d": 841.8959999999934,
      "v": 65
    },
    {
      "midi": 67,
      "hit": false,
      "t": 110573.25999999857,
      "d": 131.81200000000536,
      "v": 70
    },
    {
      "midi": 64,
      "hit": false,
      "t": 110577.51199999856,
      "d": 136.06400000001304,
      "v": 65
    },
    {
      "midi": 72,
      "hit": false,
      "t": 110577.51199999856,
      "d": 140.31600000000617,
      "v": 82
    },
    {
      "midi": 60,
      "hit": false,
      "t": 110777.35599999857,
      "d": 170.08000000000175,
      "v": 56
    },
    {
      "midi": 52,
      "hit": false,
      "t": 110777.35599999993,
      "d": 204.096000000005,
      "v": 100
    },
    {
      "midi": 55,
      "hit": false,
      "t": 110981.45199999993,
      "d": 187.08800000000338,
      "v": 90
    },
    {
      "midi": 67,
      "hit": false,
      "t": 110985.70399999857,
      "d": 229.6079999999929,
      "v": 67
    },
    {
      "midi": 72,
      "hit": false,
      "t": 110985.70399999857,
      "d": 276.3799999999901,
      "v": 76
    },
    {
      "midi": 64,
      "hit": false,
      "t": 110989.95599999856,
      "d": 208.34799999999814,
      "v": 64
    },
    {
      "midi": 60,
      "hit": false,
      "t": 111185.54799999857,
      "d": 72.28399999999965,
      "v": 76
    },
    {
      "midi": 48,
      "hit": false,
      "t": 111185.54799999994,
      "d": 301.8920000000071,
      "v": 100
    },
    {
      "midi": 48,
      "hit": false,
      "t": 111593.73999999995,
      "d": 276.38000000000466,
      "v": 88
    },
    {
      "midi": 72,
      "hit": false,
      "t": 111597.99199999856,
      "d": 212.60000000000582,
      "v": 90
    },
    {
      "midi": 60,
      "hit": false,
      "t": 111597.99199999856,
      "d": 301.8920000000071,
      "v": 80
    },
    {
      "midi": 84,
      "hit": false,
      "t": 111606.49599999978,
      "d": 242.3640000000014,
      "v": 103
    },
    {
      "midi": 72,
      "hit": false,
      "t": 111606.49599999978,
      "d": 255.11999999999534,
      "v": 103
    },
    {
      "midi": 50,
      "hit": false,
      "t": 111797.83599999995,
      "d": 136.0639999999985,
      "v": 90
    },
    {
      "midi": 74,
      "hit": false,
      "t": 111802.08799999979,
      "d": 114.80399999998917,
      "v": 80
    },
    {
      "midi": 86,
      "hit": false,
      "t": 111802.08799999979,
      "d": 119.0559999999823,
      "v": 82
    },
    {
      "midi": 52,
      "hit": false,
      "t": 111899.88399999995,
      "d": 131.81200000000536,
      "v": 90
    },
    {
      "midi": 62,
      "hit": false,
      "t": 111904.13599999856,
      "d": 123.30799999997544,
      "v": 50
    },
    {
      "midi": 74,
      "hit": false,
      "t": 111904.13599999856,
      "d": 131.8119999999617,
      "v": 37
    },
    {
      "midi": 64,
      "hit": false,
      "t": 111908.38799999855,
      "d": 123.30799999997544,
      "v": 68
    },
    {
      "midi": 76,
      "hit": false,
      "t": 111912.63999999854,
      "d": 72.28399999999965,
      "v": 15
    },
    {
      "midi": 76,
      "hit": false,
      "t": 111912.63999999978,
      "d": 119.05599999996775,
      "v": 103
    },
    {
      "midi": 88,
      "hit": false,
      "t": 111916.89199999977,
      "d": 114.80399999997462,
      "v": 77
    },
    {
      "midi": 77,
      "hit": false,
      "t": 112001.93199999855,
      "d": 306.14399999997113,
      "v": 90
    },
    {
      "midi": 53,
      "hit": false,
      "t": 112001.93199999996,
      "d": 276.3799999999901,
      "v": 100
    },
    {
      "midi": 65,
      "hit": false,
      "t": 112006.18399999854,
      "d": 335.90799999998126,
      "v": 79
    },
    {
      "midi": 81,
      "hit": false,
      "t": 112014.68799999976,
      "d": 318.8999999999796,
      "v": 90
    },
    {
      "midi": 89,
      "hit": false,
      "t": 112018.93999999975,
      "d": 267.8759999999893,
      "v": 109
    },
    {
      "midi": 77,
      "hit": false,
      "t": 112023.19199999975,
      "d": 306.14400000000023,
      "v": 103
    },
    {
      "midi": 74,
      "hit": false,
      "t": 112410.12399999853,
      "d": 323.1519999999873,
      "v": 69
    },
    {
      "midi": 50,
      "hit": false,
      "t": 112410.12399999995,
      "d": 297.6399999999994,
      "v": 109
    },
    {
      "midi": 62,
      "hit": false,
      "t": 112414.37599999852,
      "d": 374.1759999999922,
      "v": 67
    },
    {
      "midi": 82,
      "hit": false,
      "t": 112422.87999999974,
      "d": 327.403999999995,
      "v": 100
    },
    {
      "midi": 86,
      "hit": false,
      "t": 112422.87999999974,
      "d": 327.403999999995,
      "v": 90
    },
    {
      "midi": 74,
      "hit": false,
      "t": 112427.13199999974,
      "d": 369.92399999999907,
      "v": 103
    },
    {
      "midi": 72,
      "hit": false,
      "t": 112818.31599999851,
      "d": 386.93199999998615,
      "v": 77
    },
    {
      "midi": 48,
      "hit": false,
      "t": 112818.31599999995,
      "d": 327.403999999995,
      "v": 97
    },
    {
      "midi": 60,
      "hit": false,
      "t": 112822.5679999985,
      "d": 382.679999999993,
      "v": 76
    },
    {
      "midi": 84,
      "hit": false,
      "t": 112831.07199999974,
      "d": 293.38799999999173,
      "v": 77
    },
    {
      "midi": 72,
      "hit": false,
      "t": 112831.07199999974,
      "d": 357.16799999999057,
      "v": 95
    },
    {
      "midi": 81,
      "hit": false,
      "t": 112835.32399999973,
      "d": 293.38799999999173,
      "v": 77
    },
    {
      "midi": 57,
      "hit": false,
      "t": 113226.50799999849,
      "d": 429.4519999999902,
      "v": 76
    },
    {
      "midi": 45,
      "hit": false,
      "t": 113226.50799999994,
      "d": 352.91599999999744,
      "v": 97
    },
    {
      "midi": 69,
      "hit": false,
      "t": 113230.75999999848,
      "d": 429.4519999999902,
      "v": 79
    },
    {
      "midi": 81,
      "hit": false,
      "t": 113239.26399999973,
      "d": 318.8999999999942,
      "v": 86
    },
    {
      "midi": 69,
      "hit": false,
      "t": 113239.26399999973,
      "d": 378.4279999999999,
      "v": 95
    },
    {
      "midi": 72,
      "hit": false,
      "t": 113243.51599999973,
      "d": 314.64800000000105,
      "v": 100
    },
    {
      "midi": 65,
      "hit": false,
      "t": 113634.69999999848,
      "d": 1194.8119999999763,
      "v": 74
    },
    {
      "midi": 41,
      "hit": false,
      "t": 113634.69999999994,
      "d": 340.1600000000035,
      "v": 95
    },
    {
      "midi": 53,
      "hit": false,
      "t": 113638.95199999848,
      "d": 425.19999999998254,
      "v": 71
    },
    {
      "midi": 77,
      "hit": false,
      "t": 113647.45599999973,
      "d": 331.6559999999881,
      "v": 90
    },
    {
      "midi": 69,
      "hit": false,
      "t": 113647.45599999973,
      "d": 357.16799999999057,
      "v": 95
    },
    {
      "midi": 65,
      "hit": false,
      "t": 113651.70799999972,
      "d": 352.91599999999744,
      "v": 88
    },
    {
      "midi": 62,
      "hit": false,
      "t": 114042.89199999846,
      "d": 327.403999999995,
      "v": 72
    },
    {
      "midi": 50,
      "hit": false,
      "t": 114042.89199999995,
      "d": 391.18399999999383,
      "v": 100
    },
    {
      "midi": 74,
      "hit": false,
      "t": 114047.14399999846,
      "d": 306.14400000000023,
      "v": 69
    },
    {
      "midi": 74,
      "hit": false,
      "t": 114055.64799999972,
      "d": 289.1359999999986,
      "v": 100
    },
    {
      "midi": 70,
      "hit": false,
      "t": 114055.64799999972,
      "d": 310.39599999999336,
      "v": 100
    },
    {
      "midi": 62,
      "hit": false,
      "t": 114059.89999999972,
      "d": 386.9320000000007,
      "v": 97
    },
    {
      "midi": 60,
      "hit": false,
      "t": 114451.08399999846,
      "d": 391.18399999999383,
      "v": 80
    },
    {
      "midi": 48,
      "hit": false,
      "t": 114451.08399999994,
      "d": 365.67200000000594,
      "v": 92
    },
    {
      "midi": 72,
      "hit": false,
      "t": 114455.33599999845,
      "d": 340.1600000000035,
      "v": 88
    },
    {
      "midi": 69,
      "hit": false,
      "t": 114468.09199999971,
      "d": 314.6479999999865,
      "v": 97
    },
    {
      "midi": 72,
      "hit": false,
      "t": 114468.09199999971,
      "d": 335.90799999998126,
      "v": 100
    },
    {
      "midi": 60,
      "hit": false,
      "t": 114472.3439999997,
      "d": 408.1919999999809,
      "v": 92
    },
    {
      "midi": 69,
      "hit": false,
      "t": 114859.27599999846,
      "d": 352.91599999999744,
      "v": 76
    },
    {
      "midi": 45,
      "hit": false,
      "t": 114859.27599999995,
      "d": 369.92399999999907,
      "v": 92
    },
    {
      "midi": 69,
      "hit": false,
      "t": 114872.0319999997,
      "d": 293.3879999999772,
      "v": 90
    },
    {
      "midi": 57,
      "hit": false,
      "t": 114872.0319999997,
      "d": 314.64799999997194,
      "v": 86
    },
    {
      "midi": 65,
      "hit": false,
      "t": 114876.2839999997,
      "d": 267.8759999999893,
      "v": 73
    },
    {
      "midi": 65,
      "hit": false,
      "t": 115267.46799999845,
      "d": 148.81999999999243,
      "v": 66
    },
    {
      "midi": 41,
      "hit": false,
      "t": 115267.46799999995,
      "d": 408.19199999999546,
      "v": 95
    },
    {
      "midi": 53,
      "hit": false,
      "t": 115271.71999999844,
      "d": 4.2519999999931315,
      "v": 66
    },
    {
      "midi": 60,
      "hit": false,
      "t": 115271.71999999844,
      "d": 204.09599999999045,
      "v": 33
    },
    {
      "midi": 57,
      "hit": false,
      "t": 115275.97199999844,
      "d": 204.09599999999045,
      "v": 61
    },
    {
      "midi": 53,
      "hit": false,
      "t": 115275.97199999844,
      "d": 1356.387999999948,
      "v": 60
    },
    {
      "midi": 72,
      "hit": false,
      "t": 115288.72799999967,
      "d": 493.23199999998906,
      "v": 88
    },
    {
      "midi": 69,
      "hit": false,
      "t": 115292.97999999966,
      "d": 514.4919999999984,
      "v": 92
    },
    {
      "midi": 60,
      "hit": false,
      "t": 115292.97999999966,
      "d": 548.5080000000016,
      "v": 100
    },
    {
      "midi": 65,
      "hit": false,
      "t": 115471.56399999844,
      "d": 110.55199999998149,
      "v": 73
    },
    {
      "midi": 72,
      "hit": false,
      "t": 115471.56399999844,
      "d": 165.8279999999795,
      "v": 74
    },
    {
      "midi": 60,
      "hit": false,
      "t": 115475.81599999843,
      "d": 93.54399999999441,
      "v": 71
    },
    {
      "midi": 69,
      "hit": false,
      "t": 115475.81599999843,
      "d": 136.06399999998393,
      "v": 77
    },
    {
      "midi": 48,
      "hit": false,
      "t": 115675.65999999995,
      "d": 348.6640000000043,
      "v": 88
    },
    {
      "midi": 57,
      "hit": false,
      "t": 115679.91199999843,
      "d": 165.82799999999406,
      "v": 60
    },
    {
      "midi": 65,
      "hit": false,
      "t": 115879.75599999842,
      "d": 136.06399999998393,
      "v": 74
    },
    {
      "midi": 60,
      "hit": false,
      "t": 115884.00799999842,
      "d": 119.05599999999686,
      "v": 72
    },
    {
      "midi": 69,
      "hit": false,
      "t": 115884.00799999842,
      "d": 148.81999999997788,
      "v": 74
    },
    {
      "midi": 72,
      "hit": false,
      "t": 115888.25999999841,
      "d": 140.31599999999162,
      "v": 76
    },
    {
      "midi": 68,
      "hit": false,
      "t": 115892.51199999967,
      "d": 136.06399999998393,
      "v": 106
    },
    {
      "midi": 71,
      "hit": false,
      "t": 115892.51199999967,
      "d": 148.81999999997788,
      "v": 92
    },
    {
      "midi": 59,
      "hit": false,
      "t": 115896.76399999966,
      "d": 170.0799999999872,
      "v": 95
    },
    {
      "midi": 69,
      "hit": false,
      "t": 115901.01599999965,
      "d": 4.2519999999931315,
      "v": 79
    },
    {
      "midi": 57,
      "hit": false,
      "t": 116083.8519999984,
      "d": 68.03200000000652,
      "v": 44
    },
    {
      "midi": 41,
      "hit": false,
      "t": 116083.85199999996,
      "d": 352.91599999999744,
      "v": 86
    },
    {
      "midi": 72,
      "hit": false,
      "t": 116092.35599999965,
      "d": 518.7439999999915,
      "v": 88
    },
    {
      "midi": 69,
      "hit": false,
      "t": 116092.35599999965,
      "d": 561.2639999999956,
      "v": 92
    },
    {
      "midi": 60,
      "hit": false,
      "t": 116096.60799999964,
      "d": 565.5160000000033,
      "v": 103
    },
    {
      "midi": 65,
      "hit": false,
      "t": 116287.9479999984,
      "d": 97.79599999998754,
      "v": 79
    },
    {
      "midi": 60,
      "hit": false,
      "t": 116292.1999999984,
      "d": 63.779999999998836,
      "v": 73
    },
    {
      "midi": 69,
      "hit": false,
      "t": 116292.1999999984,
      "d": 114.80399999998917,
      "v": 77
    },
    {
      "midi": 72,
      "hit": false,
      "t": 116296.45199999839,
      "d": 89.29200000000128,
      "v": 79
    },
    {
      "midi": 48,
      "hit": false,
      "t": 116492.04399999995,
      "d": 327.403999999995,
      "v": 100
    },
    {
      "midi": 69,
      "hit": false,
      "t": 116696.13999999838,
      "d": 165.8279999999795,
      "v": 70
    },
    {
      "midi": 65,
      "hit": false,
      "t": 116700.39199999838,
      "d": 127.55999999998312,
      "v": 76
    },
    {
      "midi": 72,
      "hit": false,
      "t": 116700.39199999838,
      "d": 136.06399999998393,
      "v": 73
    },
    {
      "midi": 60,
      "hit": false,
      "t": 116704.64399999837,
      "d": 76.53599999999278,
      "v": 70
    },
    {
      "midi": 71,
      "hit": false,
      "t": 116708.89599999964,
      "d": 148.81999999997788,
      "v": 90
    },
    {
      "midi": 59,
      "hit": false,
      "t": 116708.89599999964,
      "d": 208.34799999996903,
      "v": 97
    },
    {
      "midi": 68,
      "hit": false,
      "t": 116713.14799999964,
      "d": 131.8119999999908,
      "v": 95
    },
    {
      "midi": 69,
      "hit": false,
      "t": 116717.39999999963,
      "d": 4.2519999999931315,
      "v": 71
    },
    {
      "midi": 57,
      "hit": false,
      "t": 116900.23599999836,
      "d": 642.0519999999524,
      "v": 61
    },
    {
      "midi": 41,
      "hit": false,
      "t": 116900.23599999995,
      "d": 357.1680000000051,
      "v": 100
    },
    {
      "midi": 53,
      "hit": false,
      "t": 116904.48799999835,
      "d": 1305.3639999999432,
      "v": 62
    },
    {
      "midi": 69,
      "hit": false,
      "t": 116908.73999999963,
      "d": 157.32399999999325,
      "v": 77
    },
    {
      "midi": 72,
      "hit": false,
      "t": 116912.99199999962,
      "d": 153.07200000000012,
      "v": 86
    },
    {
      "midi": 60,
      "hit": false,
      "t": 116912.99199999962,
      "d": 182.8359999999957,
      "v": 95
    },
    {
      "midi": 65,
      "hit": false,
      "t": 117104.33199999835,
      "d": 119.05599999999686,
      "v": 77
    },
    {
      "midi": 72,
      "hit": false,
      "t": 117108.58399999834,
      "d": 127.55999999999767,
      "v": 80
    },
    {
      "midi": 69,
      "hit": false,
      "t": 117108.58399999834,
      "d": 148.81999999999243,
      "v": 79
    },
    {
      "midi": 60,
      "hit": false,
      "t": 117112.83599999834,
      "d": 59.528000000005704,
      "v": 76
    },
    {
      "midi": 74,
      "hit": false,
      "t": 117117.08799999961,
      "d": 1139.5359999999928,
      "v": 73
    },
    {
      "midi": 62,
      "hit": false,
      "t": 117117.08799999961,
      "d": 1148.0399999999936,
      "v": 95
    },
    {
      "midi": 70,
      "hit": false,
      "t": 117121.3399999996,
      "d": 1156.5439999999944,
      "v": 71
    },
    {
      "midi": 48,
      "hit": false,
      "t": 117308.42799999996,
      "d": 165.82799999999406,
      "v": 109
    },
    {
      "midi": 65,
      "hit": false,
      "t": 117512.52399999833,
      "d": 136.06399999996938,
      "v": 71
    },
    {
      "midi": 53,
      "hit": false,
      "t": 117512.52399999995,
      "d": 195.5920000000042,
      "v": 82
    },
    {
      "midi": 72,
      "hit": false,
      "t": 117516.77599999832,
      "d": 119.0559999999823,
      "v": 76
    },
    {
      "midi": 69,
      "hit": false,
      "t": 117516.77599999832,
      "d": 148.81999999997788,
      "v": 74
    },
    {
      "midi": 60,
      "hit": false,
      "t": 117521.02799999832,
      "d": 76.53599999999278,
      "v": 70
    },
    {
      "midi": 41,
      "hit": false,
      "t": 117716.61999999995,
      "d": 374.17600000000675,
      "v": 95
    },
    {
      "midi": 65,
      "hit": false,
      "t": 117920.7159999983,
      "d": 127.55999999998312,
      "v": 69
    },
    {
      "midi": 72,
      "hit": false,
      "t": 117924.96799999829,
      "d": 123.30799999998999,
      "v": 79
    },
    {
      "midi": 69,
      "hit": false,
      "t": 117924.96799999829,
      "d": 131.8119999999908,
      "v": 71
    },
    {
      "midi": 60,
      "hit": false,
      "t": 117929.21999999828,
      "d": 63.779999999998836,
      "v": 63
    },
    {
      "midi": 57,
      "hit": false,
      "t": 118124.81199999829,
      "d": 59.528000000005704,
      "v": 52
    },
    {
      "midi": 48,
      "hit": false,
      "t": 118124.81199999996,
      "d": 365.67200000000594,
      "v": 109
    },
    {
      "midi": 65,
      "hit": false,
      "t": 118328.9079999983,
      "d": 144.56799999998475,
      "v": 72
    },
    {
      "midi": 72,
      "hit": false,
      "t": 118333.15999999829,
      "d": 123.30799999998999,
      "v": 77
    },
    {
      "midi": 69,
      "hit": false,
      "t": 118333.15999999829,
      "d": 144.56799999998475,
      "v": 73
    },
    {
      "midi": 60,
      "hit": false,
      "t": 118337.41199999828,
      "d": 93.54399999999441,
      "v": 69
    },
    {
      "midi": 53,
      "hit": false,
      "t": 118533.00399999827,
      "d": 591.0279999999766,
      "v": 69
    },
    {
      "midi": 41,
      "hit": false,
      "t": 118533.00399999997,
      "d": 408.19199999999546,
      "v": 97
    },
    {
      "midi": 69,
      "hit": false,
      "t": 118541.5079999996,
      "d": 187.08799999998882,
      "v": 95
    },
    {
      "midi": 60,
      "hit": false,
      "t": 118541.5079999996,
      "d": 212.59999999997672,
      "v": 100
    },
    {
      "midi": 72,
      "hit": false,
      "t": 118545.75999999959,
      "d": 161.57600000000093,
      "v": 97
    },
    {
      "midi": 65,
      "hit": false,
      "t": 118737.09999999827,
      "d": 136.06399999998393,
      "v": 70
    },
    {
      "midi": 60,
      "hit": false,
      "t": 118745.60399999827,
      "d": 89.29199999998673,
      "v": 73
    },
    {
      "midi": 69,
      "hit": false,
      "t": 118745.60399999827,
      "d": 131.81199999997625,
      "v": 70
    },
    {
      "midi": 72,
      "hit": false,
      "t": 118749.85599999827,
      "d": 110.55199999999604,
      "v": 80
    },
    {
      "midi": 70,
      "hit": false,
      "t": 118749.85599999958,
      "d": 340.15999999998894,
      "v": 90
    },
    {
      "midi": 62,
      "hit": false,
      "t": 118749.85599999958,
      "d": 412.4439999999886,
      "v": 82
    },
    {
      "midi": 74,
      "hit": false,
      "t": 118754.10799999957,
      "d": 289.1359999999986,
      "v": 95
    },
    {
      "midi": 48,
      "hit": false,
      "t": 118945.44799999996,
      "d": 331.6560000000027,
      "v": 103
    },
    {
      "midi": 65,
      "hit": false,
      "t": 119145.29199999824,
      "d": 119.0559999999823,
      "v": 71
    },
    {
      "midi": 69,
      "hit": false,
      "t": 119149.54399999823,
      "d": 123.30799999998999,
      "v": 76
    },
    {
      "midi": 72,
      "hit": false,
      "t": 119149.54399999823,
      "d": 123.30799999998999,
      "v": 77
    },
    {
      "midi": 60,
      "hit": false,
      "t": 119153.79599999823,
      "d": 76.53599999999278,
      "v": 67
    },
    {
      "midi": 72,
      "hit": false,
      "t": 119158.04799999957,
      "d": 127.55999999999767,
      "v": 90
    },
    {
      "midi": 69,
      "hit": false,
      "t": 119158.04799999957,
      "d": 170.08000000000175,
      "v": 82
    },
    {
      "midi": 60,
      "hit": false,
      "t": 119162.29999999957,
      "d": 174.33200000000943,
      "v": 100
    },
    {
      "midi": 41,
      "hit": false,
      "t": 119349.38799999996,
      "d": 378.4279999999999,
      "v": 97
    },
    {
      "midi": 74,
      "hit": false,
      "t": 119353.63999999958,
      "d": 144.5679999999993,
      "v": 95
    },
    {
      "midi": 70,
      "hit": false,
      "t": 119357.89199999957,
      "d": 144.5679999999993,
      "v": 86
    },
    {
      "midi": 62,
      "hit": false,
      "t": 119357.89199999957,
      "d": 216.8519999999844,
      "v": 90
    },
    {
      "midi": 65,
      "hit": false,
      "t": 119553.48399999822,
      "d": 127.55999999998312,
      "v": 67
    },
    {
      "midi": 69,
      "hit": false,
      "t": 119557.73599999821,
      "d": 127.55999999998312,
      "v": 70
    },
    {
      "midi": 72,
      "hit": false,
      "t": 119557.73599999821,
      "d": 131.81199999997625,
      "v": 73
    },
    {
      "midi": 60,
      "hit": false,
      "t": 119561.98799999821,
      "d": 106.30000000000291,
      "v": 62
    },
    {
      "midi": 72,
      "hit": false,
      "t": 119566.23999999957,
      "d": 310.39599999999336,
      "v": 95
    },
    {
      "midi": 69,
      "hit": false,
      "t": 119566.23999999957,
      "d": 314.6479999999865,
      "v": 95
    },
    {
      "midi": 60,
      "hit": false,
      "t": 119570.49199999956,
      "d": 374.1759999999922,
      "v": 95
    },
    {
      "midi": 53,
      "hit": false,
      "t": 119757.57999999996,
      "d": 348.6640000000043,
      "v": 97
    },
    {
      "midi": 69,
      "hit": false,
      "t": 119961.67599999819,
      "d": 127.55999999999767,
      "v": 70
    },
    {
      "midi": 60,
      "hit": false,
      "t": 119965.92799999818,
      "d": 55.27599999999802,
      "v": 62
    },
    {
      "midi": 65,
      "hit": false,
      "t": 119965.92799999818,
      "d": 89.29200000000128,
      "v": 67
    },
    {
      "midi": 72,
      "hit": false,
      "t": 119970.17999999817,
      "d": 110.5520000000106,
      "v": 65
    },
    {
      "midi": 68,
      "hit": false,
      "t": 119974.43199999955,
      "d": 148.81999999997788,
      "v": 77
    },
    {
      "midi": 71,
      "hit": false,
      "t": 119974.43199999955,
      "d": 148.81999999997788,
      "v": 79
    },
    {
      "midi": 59,
      "hit": false,
      "t": 119978.68399999954,
      "d": 208.34799999996903,
      "v": 86
    },
    {
      "midi": 72,
      "hit": false,
      "t": 119982.93599999954,
      "d": 76.53599999999278,
      "v": 40
    },
    {
      "midi": 60,
      "hit": false,
      "t": 120165.77199999818,
      "d": 1011.975999999966,
      "v": 57
    },
    {
      "midi": 48,
      "hit": false,
      "t": 120165.77199999997,
      "d": 403.9400000000023,
      "v": 100
    },
    {
      "midi": 58,
      "hit": false,
      "t": 120170.02399999817,
      "d": 297.63999999998487,
      "v": 42
    },
    {
      "midi": 55,
      "hit": false,
      "t": 120170.02399999817,
      "d": 1007.7239999999729,
      "v": 63
    },
    {
      "midi": 67,
      "hit": false,
      "t": 120178.52799999953,
      "d": 1449.9319999999861,
      "v": 90
    },
    {
      "midi": 70,
      "hit": false,
      "t": 120178.52799999953,
      "d": 1458.435999999987,
      "v": 77
    },
    {
      "midi": 58,
      "hit": false,
      "t": 120182.77999999952,
      "d": 1437.1759999999922,
      "v": 86
    },
    {
      "midi": 64,
      "hit": false,
      "t": 120369.86799999817,
      "d": 93.54399999999441,
      "v": 68
    },
    {
      "midi": 67,
      "hit": false,
      "t": 120369.86799999817,
      "d": 114.80399999998917,
      "v": 74
    },
    {
      "midi": 72,
      "hit": false,
      "t": 120374.11999999816,
      "d": 157.32399999999325,
      "v": 79
    },
    {
      "midi": 43,
      "hit": false,
      "t": 120573.96399999996,
      "d": 344.4119999999966,
      "v": 86
    },
    {
      "midi": 67,
      "hit": false,
      "t": 120778.05999999815,
      "d": 140.31599999999162,
      "v": 73
    },
    {
      "midi": 64,
      "hit": false,
      "t": 120782.31199999814,
      "d": 106.30000000000291,
      "v": 62
    },
    {
      "midi": 72,
      "hit": false,
      "t": 120782.31199999814,
      "d": 144.5679999999993,
      "v": 74
    },
    {
      "midi": 48,
      "hit": false,
      "t": 120982.15599999996,
      "d": 365.67200000000594,
      "v": 95
    },
    {
      "midi": 67,
      "hit": false,
      "t": 121186.25199999815,
      "d": 97.79599999998754,
      "v": 73
    },
    {
      "midi": 64,
      "hit": false,
      "t": 121190.50399999814,
      "d": 72.28399999999965,
      "v": 66
    },
    {
      "midi": 72,
      "hit": false,
      "t": 121194.75599999813,
      "d": 89.29200000000128,
      "v": 77
    },
    {
      "midi": 43,
      "hit": false,
      "t": 121390.34799999997,
      "d": 331.6560000000027,
      "v": 95
    },
    {
      "midi": 67,
      "hit": false,
      "t": 121594.44399999813,
      "d": 80.78799999998591,
      "v": 82
    },
    {
      "midi": 64,
      "hit": false,
      "t": 121598.69599999812,
      "d": 63.779999999998836,
      "v": 73
    },
    {
      "midi": 72,
      "hit": false,
      "t": 121598.69599999812,
      "d": 102.04799999999523,
      "v": 86
    },
    {
      "midi": 55,
      "hit": false,
      "t": 121798.53999999812,
      "d": 846.1479999999865,
      "v": 66
    },
    {
      "midi": 48,
      "hit": false,
      "t": 121798.53999999996,
      "d": 352.91599999999744,
      "v": 100
    },
    {
      "midi": 74,
      "hit": false,
      "t": 121807.04399999951,
      "d": 540.0039999999863,
      "v": 90
    },
    {
      "midi": 62,
      "hit": false,
      "t": 121807.04399999951,
      "d": 620.7919999999722,
      "v": 103
    },
    {
      "midi": 70,
      "hit": false,
      "t": 121811.29599999951,
      "d": 569.7679999999964,
      "v": 100
    },
    {
      "midi": 67,
      "hit": false,
      "t": 122002.63599999812,
      "d": 102.04799999999523,
      "v": 71
    },
    {
      "midi": 64,
      "hit": false,
      "t": 122006.88799999811,
      "d": 89.29200000000128,
      "v": 67
    },
    {
      "midi": 72,
      "hit": false,
      "t": 122006.88799999811,
      "d": 110.55199999999604,
      "v": 76
    },
    {
      "midi": 43,
      "hit": false,
      "t": 122206.73199999996,
      "d": 301.8920000000071,
      "v": 82
    },
    {
      "midi": 67,
      "hit": false,
      "t": 122410.82799999812,
      "d": 119.0559999999823,
      "v": 74
    },
    {
      "midi": 64,
      "hit": false,
      "t": 122415.07999999811,
      "d": 93.54399999999441,
      "v": 69
    },
    {
      "midi": 72,
      "hit": false,
      "t": 122415.07999999811,
      "d": 131.8119999999908,
      "v": 76
    },
    {
      "midi": 73,
      "hit": false,
      "t": 122419.3319999995,
      "d": 144.56799999998475,
      "v": 63
    },
    {
      "midi": 69,
      "hit": false,
      "t": 122423.5839999995,
      "d": 153.07199999998556,
      "v": 73
    },
    {
      "midi": 61,
      "hit": false,
      "t": 122423.5839999995,
      "d": 204.0959999999759,
      "v": 95
    },
    {
      "midi": 48,
      "hit": false,
      "t": 122614.92399999997,
      "d": 348.6640000000043,
      "v": 88
    },
    {
      "midi": 74,
      "hit": false,
      "t": 122619.17599999948,
      "d": 484.72799999998824,
      "v": 88
    },
    {
      "midi": 70,
      "hit": false,
      "t": 122623.42799999948,
      "d": 505.98799999999756,
      "v": 80
    },
    {
      "midi": 62,
      "hit": false,
      "t": 122623.42799999948,
      "d": 591.0279999999912,
      "v": 95
    },
    {
      "midi": 72,
      "hit": false,
      "t": 122819.0199999981,
      "d": 131.8119999999908,
      "v": 82
    },
    {
      "midi": 64,
      "hit": false,
      "t": 122823.27199999809,
      "d": 80.78800000000047,
      "v": 69
    },
    {
      "midi": 67,
      "hit": false,
      "t": 122823.27199999809,
      "d": 89.29200000000128,
      "v": 77
    },
    {
      "midi": 43,
      "hit": false,
      "t": 123023.11599999998,
      "d": 318.8999999999942,
      "v": 84
    },
    {
      "midi": 72,
      "hit": false,
      "t": 123227.2119999981,
      "d": 140.31599999999162,
      "v": 80
    },
    {
      "midi": 64,
      "hit": false,
      "t": 123231.46399999809,
      "d": 80.78800000000047,
      "v": 71
    },
    {
      "midi": 67,
      "hit": false,
      "t": 123231.46399999809,
      "d": 93.54399999999441,
      "v": 80
    },
    {
      "midi": 73,
      "hit": false,
      "t": 123235.71599999946,
      "d": 157.32399999999325,
      "v": 80
    },
    {
      "midi": 69,
      "hit": false,
      "t": 123239.96799999946,
      "d": 165.82799999999406,
      "v": 79
    },
    {
      "midi": 61,
      "hit": false,
      "t": 123239.96799999946,
      "d": 208.34799999998359,
      "v": 118
    },
    {
      "midi": 60,
      "hit": false,
      "t": 123431.30799999808,
      "d": 1373.3959999999352,
      "v": 62
    },
    {
      "midi": 48,
      "hit": false,
      "t": 123431.30799999998,
      "d": 340.1600000000035,
      "v": 92
    },
    {
      "midi": 52,
      "hit": false,
      "t": 123435.55999999808,
      "d": 1369.143999999942,
      "v": 71
    },
    {
      "midi": 70,
      "hit": false,
      "t": 123439.81199999945,
      "d": 170.0799999999872,
      "v": 65
    },
    {
      "midi": 74,
      "hit": false,
      "t": 123444.06399999945,
      "d": 153.07200000000012,
      "v": 74
    },
    {
      "midi": 62,
      "hit": false,
      "t": 123444.06399999945,
      "d": 208.34799999998359,
      "v": 92
    },
    {
      "midi": 67,
      "hit": false,
      "t": 123635.40399999807,
      "d": 127.55999999998312,
      "v": 74
    },
    {
      "midi": 64,
      "hit": false,
      "t": 123639.65599999807,
      "d": 110.55199999999604,
      "v": 67
    },
    {
      "midi": 72,
      "hit": false,
      "t": 123639.65599999807,
      "d": 140.31599999999162,
      "v": 74
    },
    {
      "midi": 76,
      "hit": false,
      "t": 123643.90799999944,
      "d": 1216.0719999999856,
      "v": 80
    },
    {
      "midi": 64,
      "hit": false,
      "t": 123648.15999999944,
      "d": 1190.5599999999977,
      "v": 92
    },
    {
      "midi": 72,
      "hit": false,
      "t": 123648.15999999944,
      "d": 1207.5679999999993,
      "v": 95
    },
    {
      "midi": 43,
      "hit": false,
      "t": 123839.49999999999,
      "d": 314.64800000000105,
      "v": 97
    },
    {
      "midi": 67,
      "hit": false,
      "t": 124043.59599999806,
      "d": 97.79599999998754,
      "v": 77
    },
    {
      "midi": 64,
      "hit": false,
      "t": 124047.84799999805,
      "d": 76.53599999999278,
      "v": 69
    },
    {
      "midi": 72,
      "hit": false,
      "t": 124047.84799999805,
      "d": 106.29999999998836,
      "v": 80
    },
    {
      "midi": 48,
      "hit": false,
      "t": 124247.69199999998,
      "d": 335.9079999999958,
      "v": 95
    },
    {
      "midi": 67,
      "hit": false,
      "t": 124451.78799999804,
      "d": 80.78799999998591,
      "v": 82
    },
    {
      "midi": 64,
      "hit": false,
      "t": 124456.03999999803,
      "d": 72.28399999999965,
      "v": 71
    },
    {
      "midi": 72,
      "hit": false,
      "t": 124456.03999999803,
      "d": 97.79599999998754,
      "v": 84
    },
    {
      "midi": 43,
      "hit": false,
      "t": 124655.88399999998,
      "d": 310.39599999999336,
      "v": 97
    },
    {
      "midi": 67,
      "hit": false,
      "t": 124859.97999999802,
      "d": 119.05599999999686,
      "v": 79
    },
    {
      "midi": 64,
      "hit": false,
      "t": 124864.23199999801,
      "d": 97.7960000000021,
      "v": 73
    },
    {
      "midi": 72,
      "hit": false,
      "t": 124864.23199999801,
      "d": 127.55999999999767,
      "v": 79
    },
    {
      "midi": 58,
      "hit": false,
      "t": 125064.07599999801,
      "d": 1403.1599999999598,
      "v": 69
    },
    {
      "midi": 48,
      "hit": false,
      "t": 125064.07599999997,
      "d": 365.67200000000594,
      "v": 106
    },
    {
      "midi": 55,
      "hit": false,
      "t": 125068.327999998,
      "d": 1305.3639999999577,
      "v": 80
    },
    {
      "midi": 60,
      "hit": false,
      "t": 125068.327999998,
      "d": 1339.379999999961,
      "v": 76
    },
    {
      "midi": 74,
      "hit": false,
      "t": 125076.83199999943,
      "d": 106.29999999998836,
      "v": 95
    },
    {
      "midi": 62,
      "hit": false,
      "t": 125076.83199999943,
      "d": 161.57599999998638,
      "v": 95
    },
    {
      "midi": 70,
      "hit": false,
      "t": 125081.08399999942,
      "d": 127.55999999999767,
      "v": 90
    },
    {
      "midi": 67,
      "hit": false,
      "t": 125268.171999998,
      "d": 165.82799999999406,
      "v": 70
    },
    {
      "midi": 72,
      "hit": false,
      "t": 125268.171999998,
      "d": 165.82799999999406,
      "v": 72
    },
    {
      "midi": 64,
      "hit": false,
      "t": 125272.42399999799,
      "d": 136.0639999999985,
      "v": 64
    },
    {
      "midi": 76,
      "hit": false,
      "t": 125276.67599999941,
      "d": 301.89199999999255,
      "v": 84
    },
    {
      "midi": 64,
      "hit": false,
      "t": 125276.67599999941,
      "d": 442.20799999998417,
      "v": 80
    },
    {
      "midi": 72,
      "hit": false,
      "t": 125280.9279999994,
      "d": 331.6560000000027,
      "v": 92
    },
    {
      "midi": 43,
      "hit": false,
      "t": 125472.26799999998,
      "d": 340.1600000000035,
      "v": 100
    },
    {
      "midi": 67,
      "hit": false,
      "t": 125676.363999998,
      "d": 136.06399999998393,
      "v": 71
    },
    {
      "midi": 72,
      "hit": false,
      "t": 125676.363999998,
      "d": 153.07199999998556,
      "v": 77
    },
    {
      "midi": 64,
      "hit": false,
      "t": 125680.61599999799,
      "d": 110.55199999999604,
      "v": 63
    },
    {
      "midi": 74,
      "hit": false,
      "t": 125684.8679999994,
      "d": 123.30799999998999,
      "v": 77
    },
    {
      "midi": 62,
      "hit": false,
      "t": 125684.8679999994,
      "d": 191.3399999999965,
      "v": 109
    },
    {
      "midi": 70,
      "hit": false,
      "t": 125689.1199999994,
      "d": 136.0639999999985,
      "v": 77
    },
    {
      "midi": 48,
      "hit": false,
      "t": 125880.45999999999,
      "d": 369.92399999999907,
      "v": 103
    },
    {
      "midi": 72,
      "hit": false,
      "t": 125884.7119999994,
      "d": 161.57599999998638,
      "v": 82
    },
    {
      "midi": 76,
      "hit": false,
      "t": 125888.9639999994,
      "d": 153.07200000000012,
      "v": 72
    },
    {
      "midi": 64,
      "hit": false,
      "t": 125888.9639999994,
      "d": 208.34799999998359,
      "v": 88
    },
    {
      "midi": 67,
      "hit": false,
      "t": 126084.55599999797,
      "d": 97.79599999998754,
      "v": 79
    },
    {
      "midi": 72,
      "hit": false,
      "t": 126084.55599999797,
      "d": 161.57599999998638,
      "v": 86
    },
    {
      "midi": 64,
      "hit": false,
      "t": 126088.80799999797,
      "d": 80.78800000000047,
      "v": 70
    },
    {
      "midi": 70,
      "hit": false,
      "t": 126093.05999999939,
      "d": 314.6479999999865,
      "v": 80
    },
    {
      "midi": 74,
      "hit": false,
      "t": 126093.05999999939,
      "d": 318.8999999999796,
      "v": 80
    },
    {
      "midi": 62,
      "hit": false,
      "t": 126097.31199999938,
      "d": 412.44399999997404,
      "v": 103
    },
    {
      "midi": 50,
      "hit": false,
      "t": 126288.65199999999,
      "d": 204.096000000005,
      "v": 95
    },
    {
      "midi": 52,
      "hit": false,
      "t": 126492.74799999999,
      "d": 191.3399999999965,
      "v": 86
    },
    {
      "midi": 67,
      "hit": false,
      "t": 126496.99999999796,
      "d": 123.30799999998999,
      "v": 69
    },
    {
      "midi": 72,
      "hit": false,
      "t": 126496.99999999796,
      "d": 127.55999999998312,
      "v": 70
    },
    {
      "midi": 64,
      "hit": false,
      "t": 126501.25199999796,
      "d": 89.29200000000128,
      "v": 65
    },
    {
      "midi": 73,
      "hit": false,
      "t": 126505.50399999936,
      "d": 208.34799999998359,
      "v": 71
    },
    {
      "midi": 61,
      "hit": false,
      "t": 126505.50399999936,
      "d": 267.8759999999893,
      "v": 95
    },
    {
      "midi": 53,
      "hit": false,
      "t": 126696.84399999795,
      "d": 1084.2599999999657,
      "v": 61
    },
    {
      "midi": 53,
      "hit": false,
      "t": 126696.84399999998,
      "d": 403.9400000000023,
      "v": 103
    },
    {
      "midi": 57,
      "hit": false,
      "t": 126701.09599999794,
      "d": 1088.5119999999733,
      "v": 62
    },
    {
      "midi": 60,
      "hit": false,
      "t": 126701.09599999794,
      "d": 1109.771999999968,
      "v": 67
    },
    {
      "midi": 60,
      "hit": false,
      "t": 126709.59999999935,
      "d": 153.07200000000012,
      "v": 64
    },
    {
      "midi": 72,
      "hit": false,
      "t": 126709.59999999935,
      "d": 153.07200000000012,
      "v": 77
    },
    {
      "midi": 65,
      "hit": false,
      "t": 126900.93999999794,
      "d": 110.55199999999604,
      "v": 70
    },
    {
      "midi": 69,
      "hit": false,
      "t": 126900.93999999794,
      "d": 110.55199999999604,
      "v": 76
    },
    {
      "midi": 72,
      "hit": false,
      "t": 126905.19199999793,
      "d": 110.55199999999604,
      "v": 74
    },
    {
      "midi": 77,
      "hit": false,
      "t": 126909.44399999935,
      "d": 153.07200000000012,
      "v": 82
    },
    {
      "midi": 69,
      "hit": false,
      "t": 126913.69599999934,
      "d": 170.08000000000175,
      "v": 95
    },
    {
      "midi": 65,
      "hit": false,
      "t": 126913.69599999934,
      "d": 191.3399999999965,
      "v": 103
    },
    {
      "midi": 52,
      "hit": false,
      "t": 127105.03599999998,
      "d": 233.86000000000058,
      "v": 103
    },
    {
      "midi": 76,
      "hit": false,
      "t": 127113.53999999934,
      "d": 174.33199999999488,
      "v": 80
    },
    {
      "midi": 64,
      "hit": false,
      "t": 127113.53999999934,
      "d": 263.6239999999816,
      "v": 103
    },
    {
      "midi": 69,
      "hit": false,
      "t": 127309.13199999793,
      "d": 123.30799999998999,
      "v": 73
    },
    {
      "midi": 50,
      "hit": false,
      "t": 127309.13199999998,
      "d": 187.08799999998882,
      "v": 92
    },
    {
      "midi": 65,
      "hit": false,
      "t": 127313.38399999792,
      "d": 127.55999999999767,
      "v": 67
    },
    {
      "midi": 72,
      "hit": false,
      "t": 127313.38399999792,
      "d": 140.31599999999162,
      "v": 73
    },
    {
      "midi": 74,
      "hit": false,
      "t": 127317.63599999933,
      "d": 187.08799999998882,
      "v": 92
    },
    {
      "midi": 62,
      "hit": false,
      "t": 127321.88799999932,
      "d": 161.57600000000093,
      "v": 77
    },
    {
      "midi": 48,
      "hit": false,
      "t": 127513.22799999997,
      "d": 221.10400000000664,
      "v": 86
    },
    {
      "midi": 60,
      "hit": false,
      "t": 127517.47999999931,
      "d": 225.35599999998522,
      "v": 90
    },
    {
      "midi": 72,
      "hit": false,
      "t": 127521.7319999993,
      "d": 157.32399999999325,
      "v": 86
    },
    {
      "midi": 69,
      "hit": false,
      "t": 127717.32399999791,
      "d": 119.05599999999686,
      "v": 74
    },
    {
      "midi": 46,
      "hit": false,
      "t": 127717.32399999998,
      "d": 216.85199999999895,
      "v": 106
    },
    {
      "midi": 65,
      "hit": false,
      "t": 127721.5759999979,
      "d": 106.30000000000291,
      "v": 70
    },
    {
      "midi": 72,
      "hit": false,
      "t": 127721.5759999979,
      "d": 136.0639999999985,
      "v": 72
    },
    {
      "midi": 58,
      "hit": false,
      "t": 127730.0799999993,
      "d": 216.8519999999844,
      "v": 95
    },
    {
      "midi": 70,
      "hit": false,
      "t": 127730.0799999993,
      "d": 221.10399999997753,
      "v": 90
    },
    {
      "midi": 45,
      "hit": false,
      "t": 127921.41999999998,
      "d": 182.8359999999957,
      "v": 92
    },
    {
      "midi": 69,
      "hit": false,
      "t": 127925.6719999993,
      "d": 165.82799999999406,
      "v": 76
    },
    {
      "midi": 57,
      "hit": false,
      "t": 127929.92399999929,
      "d": 208.34799999999814,
      "v": 90
    },
    {
      "midi": 69,
      "hit": false,
      "t": 128125.51599999791,
      "d": 110.55199999999604,
      "v": 77
    },
    {
      "midi": 43,
      "hit": false,
      "t": 128125.51599999997,
      "d": 187.08800000000338,
      "v": 92
    },
    {
      "midi": 72,
      "hit": false,
      "t": 128129.7679999979,
      "d": 106.30000000000291,
      "v": 73
    },
    {
      "midi": 65,
      "hit": false,
      "t": 128129.7679999979,
      "d": 110.55199999999604,
      "v": 73
    },
    {
      "midi": 67,
      "hit": false,
      "t": 128134.01999999929,
      "d": 153.07200000000012,
      "v": 82
    },
    {
      "midi": 55,
      "hit": false,
      "t": 128138.27199999928,
      "d": 178.58400000000256,
      "v": 92
    },
    {
      "midi": 53,
      "hit": false,
      "t": 128329.6119999979,
      "d": 1369.1439999999711,
      "v": 63
    },
    {
      "midi": 41,
      "hit": false,
      "t": 128329.61199999998,
      "d": 382.679999999993,
      "v": 103
    },
    {
      "midi": 60,
      "hit": false,
      "t": 128333.86399999789,
      "d": 1335.1279999999824,
      "v": 56
    },
    {
      "midi": 57,
      "hit": false,
      "t": 128333.86399999789,
      "d": 1352.135999999984,
      "v": 68
    },
    {
      "midi": 69,
      "hit": false,
      "t": 128342.36799999929,
      "d": 565.5159999999742,
      "v": 86
    },
    {
      "midi": 72,
      "hit": false,
      "t": 128346.61999999928,
      "d": 522.9959999999846,
      "v": 72
    },
    {
      "midi": 71,
      "hit": false,
      "t": 128350.87199999928,
      "d": 55.27599999999802,
      "v": 77
    },
    {
      "midi": 60,
      "hit": false,
      "t": 128355.12399999927,
      "d": 561.2639999999956,
      "v": 88
    },
    {
      "midi": 69,
      "hit": false,
      "t": 128533.70799999789,
      "d": 127.55999999999767,
      "v": 69
    },
    {
      "midi": 72,
      "hit": false,
      "t": 128533.70799999789,
      "d": 140.31599999999162,
      "v": 70
    },
    {
      "midi": 65,
      "hit": false,
      "t": 128537.95999999788,
      "d": 114.80400000000373,
      "v": 62
    },
    {
      "midi": 48,
      "hit": false,
      "t": 128737.80399999997,
      "d": 386.9320000000007,
      "v": 103
    },
    {
      "midi": 65,
      "hit": false,
      "t": 128941.89999999788,
      "d": 110.55199999999604,
      "v": 62
    },
    {
      "midi": 69,
      "hit": false,
      "t": 128941.89999999788,
      "d": 123.30799999998999,
      "v": 66
    },
    {
      "midi": 72,
      "hit": false,
      "t": 128946.15199999788,
      "d": 136.0639999999985,
      "v": 72
    },
    {
      "midi": 68,
      "hit": false,
      "t": 128950.40399999927,
      "d": 161.57599999998638,
      "v": 71
    },
    {
      "midi": 59,
      "hit": false,
      "t": 128950.40399999927,
      "d": 182.83599999998114,
      "v": 92
    },
    {
      "midi": 71,
      "hit": false,
      "t": 128954.65599999926,
      "d": 127.55999999999767,
      "v": 86
    },
    {
      "midi": 41,
      "hit": false,
      "t": 129145.99599999997,
      "d": 369.92399999999907,
      "v": 92
    },
    {
      "midi": 72,
      "hit": false,
      "t": 129150.24799999925,
      "d": 552.7599999999948,
      "v": 88
    },
    {
      "midi": 69,
      "hit": false,
      "t": 129154.49999999924,
      "d": 578.2719999999972,
      "v": 86
    },
    {
      "midi": 60,
      "hit": false,
      "t": 129154.49999999924,
      "d": 654.80799999999,
      "v": 88
    },
    {
      "midi": 69,
      "hit": false,
      "t": 129350.09199999788,
      "d": 106.29999999998836,
      "v": 74
    },
    {
      "midi": 72,
      "hit": false,
      "t": 129350.09199999788,
      "d": 140.31599999999162,
      "v": 79
    },
    {
      "midi": 65,
      "hit": false,
      "t": 129354.34399999787,
      "d": 89.29200000000128,
      "v": 69
    },
    {
      "midi": 48,
      "hit": false,
      "t": 129554.18799999997,
      "d": 369.92399999999907,
      "v": 109
    },
    {
      "midi": 69,
      "hit": false,
      "t": 129758.28399999788,
      "d": 110.55199999999604,
      "v": 86
    },
    {
      "midi": 65,
      "hit": false,
      "t": 129762.53599999787,
      "d": 80.78800000000047,
      "v": 79
    },
    {
      "midi": 72,
      "hit": false,
      "t": 129762.53599999787,
      "d": 119.05599999999686,
      "v": 82
    },
    {
      "midi": 68,
      "hit": false,
      "t": 129766.78799999924,
      "d": 144.56799999998475,
      "v": 77
    },
    {
      "midi": 71,
      "hit": false,
      "t": 129771.03999999924,
      "d": 119.05599999999686,
      "v": 88
    },
    {
      "midi": 59,
      "hit": false,
      "t": 129771.03999999924,
      "d": 174.33199999999488,
      "v": 109
    },
    {
      "midi": 57,
      "hit": false,
      "t": 129962.37999999787,
      "d": 1148.0399999999354,
      "v": 79
    },
    {
      "midi": 41,
      "hit": false,
      "t": 129962.37999999996,
      "d": 365.67200000000594,
      "v": 97
    },
    {
      "midi": 60,
      "hit": false,
      "t": 129966.63199999786,
      "d": 1114.0239999999758,
      "v": 68
    },
    {
      "midi": 53,
      "hit": false,
      "t": 129966.63199999786,
      "d": 1131.0319999999483,
      "v": 73
    },
    {
      "midi": 69,
      "hit": false,
      "t": 129975.13599999923,
      "d": 93.54399999999441,
      "v": 88
    },
    {
      "midi": 72,
      "hit": false,
      "t": 129975.13599999923,
      "d": 106.29999999998836,
      "v": 82
    },
    {
      "midi": 60,
      "hit": false,
      "t": 129979.38799999922,
      "d": 170.08000000000175,
      "v": 106
    },
    {
      "midi": 69,
      "hit": false,
      "t": 130166.47599999786,
      "d": 106.29999999998836,
      "v": 71
    },
    {
      "midi": 65,
      "hit": false,
      "t": 130166.47599999786,
      "d": 114.80399999998917,
      "v": 56
    },
    {
      "midi": 72,
      "hit": false,
      "t": 130170.72799999785,
      "d": 144.5679999999993,
      "v": 69
    },
    {
      "midi": 74,
      "hit": false,
      "t": 130174.97999999922,
      "d": 1156.5439999999944,
      "v": 92
    },
    {
      "midi": 70,
      "hit": false,
      "t": 130174.97999999922,
      "d": 1165.0479999999807,
      "v": 90
    },
    {
      "midi": 62,
      "hit": false,
      "t": 130179.23199999922,
      "d": 1135.2839999999997,
      "v": 95
    },
    {
      "midi": 48,
      "hit": false,
      "t": 130370.57199999997,
      "d": 374.17600000000675,
      "v": 109
    },
    {
      "midi": 65,
      "hit": false,
      "t": 130574.66799999785,
      "d": 85.0399999999936,
      "v": 66
    },
    {
      "midi": 69,
      "hit": false,
      "t": 130574.66799999785,
      "d": 89.29199999998673,
      "v": 77
    },
    {
      "midi": 72,
      "hit": false,
      "t": 130578.91999999784,
      "d": 93.54399999999441,
      "v": 68
    },
    {
      "midi": 41,
      "hit": false,
      "t": 130778.76399999998,
      "d": 357.16799999999057,
      "v": 95
    },
    {
      "midi": 65,
      "hit": false,
      "t": 130982.85999999783,
      "d": 97.7960000000021,
      "v": 70
    },
    {
      "midi": 69,
      "hit": false,
      "t": 130982.85999999783,
      "d": 97.7960000000021,
      "v": 76
    },
    {
      "midi": 72,
      "hit": false,
      "t": 130987.11199999783,
      "d": 102.04799999999523,
      "v": 71
    },
    {
      "midi": 48,
      "hit": false,
      "t": 131186.95599999998,
      "d": 429.4520000000193,
      "v": 106
    },
    {
      "midi": 69,
      "hit": false,
      "t": 131391.0519999978,
      "d": 85.04000000000815,
      "v": 72
    },
    {
      "midi": 65,
      "hit": false,
      "t": 131395.30399999782,
      "d": 68.03200000000652,
      "v": 69
    },
    {
      "midi": 72,
      "hit": false,
      "t": 131395.30399999782,
      "d": 72.2840000000142,
      "v": 69
    },
    {
      "midi": 57,
      "hit": false,
      "t": 131595.14799999783,
      "d": 574.0200000000186,
      "v": 73
    },
    {
      "midi": 41,
      "hit": false,
      "t": 131595.148,
      "d": 374.17600000000675,
      "v": 97
    },
    {
      "midi": 60,
      "hit": false,
      "t": 131599.39999999784,
      "d": 633.5480000000389,
      "v": 71
    },
    {
      "midi": 53,
      "hit": false,
      "t": 131599.39999999784,
      "d": 1373.396000000037,
      "v": 69
    },
    {
      "midi": 72,
      "hit": false,
      "t": 131607.9039999992,
      "d": 153.07200000001467,
      "v": 95
    },
    {
      "midi": 60,
      "hit": false,
      "t": 131607.9039999992,
      "d": 204.09600000001956,
      "v": 97
    },
    {
      "midi": 69,
      "hit": false,
      "t": 131612.1559999992,
      "d": 157.32399999999325,
      "v": 95
    },
    {
      "midi": 65,
      "hit": false,
      "t": 131799.24399999785,
      "d": 85.04000000000815,
      "v": 70
    },
    {
      "midi": 72,
      "hit": false,
      "t": 131799.24399999785,
      "d": 110.55199999999604,
      "v": 88
    },
    {
      "midi": 69,
      "hit": false,
      "t": 131803.49599999786,
      "d": 55.27600000001257,
      "v": 76
    },
    {
      "midi": 74,
      "hit": false,
      "t": 131807.7479999992,
      "d": 289.1359999999986,
      "v": 79
    },
    {
      "midi": 62,
      "hit": false,
      "t": 131807.7479999992,
      "d": 425.19999999998254,
      "v": 90
    },
    {
      "midi": 70,
      "hit": false,
      "t": 131811.9999999992,
      "d": 314.6479999999865,
      "v": 90
    },
    {
      "midi": 48,
      "hit": false,
      "t": 132003.34,
      "d": 386.9320000000007,
      "v": 106
    },
    {
      "midi": 65,
      "hit": false,
      "t": 132207.43599999786,
      "d": 76.53600000002189,
      "v": 70
    },
    {
      "midi": 69,
      "hit": false,
      "t": 132211.68799999787,
      "d": 59.528000000020256,
      "v": 82
    },
    {
      "midi": 72,
      "hit": false,
      "t": 132211.68799999787,
      "d": 80.78800000000047,
      "v": 88
    },
    {
      "midi": 72,
      "hit": false,
      "t": 132215.9399999992,
      "d": 140.31599999999162,
      "v": 88
    },
    {
      "midi": 69,
      "hit": false,
      "t": 132220.1919999992,
      "d": 140.31599999999162,
      "v": 84
    },
    {
      "midi": 60,
      "hit": false,
      "t": 132220.1919999992,
      "d": 191.3399999999965,
      "v": 109
    },
    {
      "midi": 41,
      "hit": false,
      "t": 132411.532,
      "d": 386.9320000000007,
      "v": 103
    },
    {
      "midi": 63,
      "hit": false,
      "t": 132415.78399999786,
      "d": 603.7840000000142,
      "v": 73
    },
    {
      "midi": 74,
      "hit": false,
      "t": 132420.03599999918,
      "d": 153.07200000001467,
      "v": 84
    },
    {
      "midi": 70,
      "hit": false,
      "t": 132424.2879999992,
      "d": 153.07200000001467,
      "v": 90
    },
    {
      "midi": 62,
      "hit": false,
      "t": 132424.2879999992,
      "d": 208.34800000002724,
      "v": 95
    },
    {
      "midi": 72,
      "hit": false,
      "t": 132615.62799999787,
      "d": 153.07200000001467,
      "v": 77
    },
    {
      "midi": 69,
      "hit": false,
      "t": 132619.87999999788,
      "d": 127.55999999999767,
      "v": 70
    },
    {
      "midi": 65,
      "hit": false,
      "t": 132619.87999999788,
      "d": 131.81200000000536,
      "v": 66
    },
    {
      "midi": 69,
      "hit": false,
      "t": 132624.1319999992,
      "d": 382.6800000000221,
      "v": 79
    },
    {
      "midi": 72,
      "hit": false,
      "t": 132628.3839999992,
      "d": 331.65600000001723,
      "v": 86
    },
    {
      "midi": 60,
      "hit": false,
      "t": 132628.3839999992,
      "d": 348.66400000001886,
      "v": 92
    },
    {
      "midi": 45,
      "hit": false,
      "t": 132819.72400000002,
      "d": 395.43599999998696,
      "v": 97
    },
    {
      "midi": 69,
      "hit": false,
      "t": 133028.07199999786,
      "d": 72.2840000000142,
      "v": 77
    },
    {
      "midi": 65,
      "hit": false,
      "t": 133028.07199999786,
      "d": 76.53600000002189,
      "v": 72
    },
    {
      "midi": 72,
      "hit": false,
      "t": 133032.32399999787,
      "d": 80.78800000000047,
      "v": 76
    },
    {
      "midi": 65,
      "hit": false,
      "t": 133036.57599999922,
      "d": 131.81200000000536,
      "v": 82
    },
    {
      "midi": 57,
      "hit": false,
      "t": 133036.57599999922,
      "d": 212.60000000003492,
      "v": 88
    },
    {
      "midi": 58,
      "hit": false,
      "t": 133227.91599999787,
      "d": 1228.8280000000377,
      "v": 61
    },
    {
      "midi": 46,
      "hit": false,
      "t": 133227.916,
      "d": 412.4440000000177,
      "v": 112
    },
    {
      "midi": 53,
      "hit": false,
      "t": 133232.16799999788,
      "d": 1182.0560000000114,
      "v": 63
    },
    {
      "midi": 62,
      "hit": false,
      "t": 133232.16799999788,
      "d": 1203.3160000000207,
      "v": 69
    },
    {
      "midi": 74,
      "hit": false,
      "t": 133240.67199999923,
      "d": 1275.6000000000058,
      "v": 82
    },
    {
      "midi": 70,
      "hit": false,
      "t": 133240.67199999923,
      "d": 1309.616000000009,
      "v": 69
    },
    {
      "midi": 62,
      "hit": false,
      "t": 133244.92399999924,
      "d": 1301.1119999999937,
      "v": 92
    },
    {
      "midi": 70,
      "hit": false,
      "t": 133432.0119999979,
      "d": 106.29999999998836,
      "v": 60
    },
    {
      "midi": 74,
      "hit": false,
      "t": 133432.0119999979,
      "d": 131.81199999997625,
      "v": 71
    },
    {
      "midi": 65,
      "hit": false,
      "t": 133436.2639999979,
      "d": 89.29199999998673,
      "v": 71
    },
    {
      "midi": 50,
      "hit": false,
      "t": 133636.108,
      "d": 416.6959999999963,
      "v": 103
    },
    {
      "midi": 70,
      "hit": false,
      "t": 133840.20399999787,
      "d": 140.31599999999162,
      "v": 61
    },
    {
      "midi": 74,
      "hit": false,
      "t": 133840.20399999787,
      "d": 140.31599999999162,
      "v": 69
    },
    {
      "midi": 65,
      "hit": false,
      "t": 133844.45599999788,
      "d": 93.54399999999441,
      "v": 69
    },
    {
      "midi": 53,
      "hit": false,
      "t": 134044.30000000002,
      "d": 378.42799999998533,
      "v": 95
    },
    {
      "midi": 70,
      "hit": false,
      "t": 134248.39599999785,
      "d": 123.30800000001909,
      "v": 65
    },
    {
      "midi": 74,
      "hit": false,
      "t": 134248.39599999785,
      "d": 127.56000000002678,
      "v": 73
    },
    {
      "midi": 65,
      "hit": false,
      "t": 134252.64799999786,
      "d": 97.7960000000021,
      "v": 70
    },
    {
      "midi": 50,
      "hit": false,
      "t": 134452.492,
      "d": 340.1600000000035,
      "v": 100
    },
    {
      "midi": 74,
      "hit": false,
      "t": 134656.58799999792,
      "d": 110.55200000002515,
      "v": 73
    },
    {
      "midi": 65,
      "hit": false,
      "t": 134660.83999999793,
      "d": 72.2840000000142,
      "v": 72
    },
    {
      "midi": 70,
      "hit": false,
      "t": 134660.83999999793,
      "d": 93.54400000002352,
      "v": 67
    },
    {
      "midi": 62,
      "hit": false,
      "t": 134860.68399999794,
      "d": 633.5480000000098,
      "v": 68
    },
    {
      "midi": 46,
      "hit": false,
      "t": 134860.684,
      "d": 267.8759999999893,
      "v": 112
    },
    {
      "midi": 53,
      "hit": false,
      "t": 134864.93599999795,
      "d": 595.2799999999988,
      "v": 71
    },
    {
      "midi": 58,
      "hit": false,
      "t": 134864.93599999795,
      "d": 642.051999999996,
      "v": 59
    },
    {
      "midi": 55,
      "hit": false,
      "t": 134873.43999999925,
      "d": 4.252000000007683,
      "v": 80
    },
    {
      "midi": 67,
      "hit": false,
      "t": 134873.43999999925,
      "d": 8.504000000015367,
      "v": 95
    },
    {
      "midi": 55,
      "hit": false,
      "t": 134877.69199999925,
      "d": 284.8839999999909,
      "v": 84
    },
    {
      "midi": 67,
      "hit": false,
      "t": 134881.94399999926,
      "d": 216.8519999999844,
      "v": 106
    },
    {
      "midi": 70,
      "hit": false,
      "t": 135064.77999999796,
      "d": 123.30799999998999,
      "v": 71
    },
    {
      "midi": 74,
      "hit": false,
      "t": 135064.77999999796,
      "d": 144.5679999999993,
      "v": 72
    },
    {
      "midi": 65,
      "hit": false,
      "t": 135069.03199999797,
      "d": 106.29999999998836,
      "v": 68
    },
    {
      "midi": 57,
      "hit": false,
      "t": 135073.28399999926,
      "d": 212.59999999997672,
      "v": 84
    },
    {
      "midi": 69,
      "hit": false,
      "t": 135073.28399999926,
      "d": 225.35599999997066,
      "v": 106
    },
    {
      "midi": 46,
      "hit": false,
      "t": 135268.876,
      "d": 340.1600000000035,
      "v": 112
    },
    {
      "midi": 58,
      "hit": false,
      "t": 135273.12799999924,
      "d": 216.8520000000135,
      "v": 90
    },
    {
      "midi": 70,
      "hit": false,
      "t": 135277.37999999925,
      "d": 157.32399999999325,
      "v": 90
    },
    {
      "midi": 70,
      "hit": false,
      "t": 135477.22399999795,
      "d": 102.04800000000978,
      "v": 71
    },
    {
      "midi": 74,
      "hit": false,
      "t": 135477.22399999795,
      "d": 110.55199999999604,
      "v": 74
    },
    {
      "midi": 65,
      "hit": false,
      "t": 135481.47599999796,
      "d": 76.53599999999278,
      "v": 72
    },
    {
      "midi": 60,
      "hit": false,
      "t": 135485.72799999925,
      "d": 191.3399999999965,
      "v": 100
    },
    {
      "midi": 72,
      "hit": false,
      "t": 135485.72799999925,
      "d": 191.3399999999965,
      "v": 92
    },
    {
      "midi": 56,
      "hit": false,
      "t": 135681.31999999794,
      "d": 552.7600000000093,
      "v": 58
    },
    {
      "midi": 47,
      "hit": false,
      "t": 135681.32,
      "d": 272.127999999997,
      "v": 97
    },
    {
      "midi": 62,
      "hit": false,
      "t": 135685.57199999795,
      "d": 565.5160000000033,
      "v": 71
    },
    {
      "midi": 59,
      "hit": false,
      "t": 135685.57199999795,
      "d": 637.8000000000175,
      "v": 76
    },
    {
      "midi": 76,
      "hit": false,
      "t": 135694.07599999924,
      "d": 612.2880000000005,
      "v": 95
    },
    {
      "midi": 64,
      "hit": false,
      "t": 135694.07599999924,
      "d": 642.051999999996,
      "v": 109
    },
    {
      "midi": 65,
      "hit": false,
      "t": 135881.16399999795,
      "d": 97.7960000000021,
      "v": 71
    },
    {
      "midi": 68,
      "hit": false,
      "t": 135881.16399999795,
      "d": 110.55199999999604,
      "v": 71
    },
    {
      "midi": 71,
      "hit": false,
      "t": 135885.41599999796,
      "d": 110.55199999999604,
      "v": 72
    },
    {
      "midi": 74,
      "hit": false,
      "t": 135885.41599999796,
      "d": 123.30799999998999,
      "v": 71
    },
    {
      "midi": 47,
      "hit": false,
      "t": 136085.26,
      "d": 357.1680000000051,
      "v": 106
    },
    {
      "midi": 68,
      "hit": false,
      "t": 136289.35599999796,
      "d": 123.30799999998999,
      "v": 60
    },
    {
      "midi": 74,
      "hit": false,
      "t": 136293.60799999797,
      "d": 123.30799999998999,
      "v": 62
    },
    {
      "midi": 71,
      "hit": false,
      "t": 136293.60799999797,
      "d": 144.5679999999993,
      "v": 72
    },
    {
      "midi": 65,
      "hit": false,
      "t": 136297.85999999798,
      "d": 106.29999999998836,
      "v": 67
    },
    {
      "midi": 62,
      "hit": false,
      "t": 136302.11199999924,
      "d": 85.04000000000815,
      "v": 97
    },
    {
      "midi": 74,
      "hit": false,
      "t": 136302.11199999924,
      "d": 102.04800000000978,
      "v": 95
    },
    {
      "midi": 76,
      "hit": false,
      "t": 136306.36399999924,
      "d": 17.00800000000163,
      "v": 43
    },
    {
      "midi": 60,
      "hit": false,
      "t": 136493.45199999798,
      "d": 582.5240000000049,
      "v": 66
    },
    {
      "midi": 48,
      "hit": false,
      "t": 136493.45200000002,
      "d": 246.61600000000908,
      "v": 106
    },
    {
      "midi": 53,
      "hit": false,
      "t": 136497.703999998,
      "d": 505.9880000000121,
      "v": 59
    },
    {
      "midi": 57,
      "hit": false,
      "t": 136497.703999998,
      "d": 531.5,
      "v": 62
    },
    {
      "midi": 74,
      "hit": false,
      "t": 136506.20799999926,
      "d": 187.08799999998882,
      "v": 95
    },
    {
      "midi": 62,
      "hit": false,
      "t": 136506.20799999926,
      "d": 204.09599999999045,
      "v": 109
    },
    {
      "midi": 65,
      "hit": false,
      "t": 136697.547999998,
      "d": 93.54399999999441,
      "v": 72
    },
    {
      "midi": 69,
      "hit": false,
      "t": 136697.547999998,
      "d": 114.80400000000373,
      "v": 80
    },
    {
      "midi": 72,
      "hit": false,
      "t": 136701.799999998,
      "d": 136.06399999998393,
      "v": 80
    },
    {
      "midi": 60,
      "hit": false,
      "t": 136706.05199999924,
      "d": 935.4400000000023,
      "v": 109
    },
    {
      "midi": 72,
      "hit": false,
      "t": 136706.05199999924,
      "d": 939.69200000001,
      "v": 95
    },
    {
      "midi": 48,
      "hit": false,
      "t": 136901.64400000003,
      "d": 357.1680000000051,
      "v": 103
    },
    {
      "midi": 65,
      "hit": false,
      "t": 137105.73999999798,
      "d": 106.30000000001746,
      "v": 72
    },
    {
      "midi": 69,
      "hit": false,
      "t": 137109.991999998,
      "d": 97.7960000000021,
      "v": 82
    },
    {
      "midi": 72,
      "hit": false,
      "t": 137109.991999998,
      "d": 127.55999999999767,
      "v": 79
    },
    {
      "midi": 57,
      "hit": false,
      "t": 137309.835999998,
      "d": 569.76800000004,
      "v": 72
    },
    {
      "midi": 50,
      "hit": false,
      "t": 137309.83600000004,
      "d": 259.372000000003,
      "v": 97
    },
    {
      "midi": 60,
      "hit": false,
      "t": 137314.087999998,
      "d": 531.5000000000291,
      "v": 70
    },
    {
      "midi": 62,
      "hit": false,
      "t": 137314.087999998,
      "d": 544.256000000023,
      "v": 62
    },
    {
      "midi": 53,
      "hit": false,
      "t": 137318.33999999802,
      "d": 522.9960000000137,
      "v": 61
    },
    {
      "midi": 69,
      "hit": false,
      "t": 137513.93199999802,
      "d": 97.7960000000021,
      "v": 80
    },
    {
      "midi": 72,
      "hit": false,
      "t": 137513.93199999802,
      "d": 114.80400000000373,
      "v": 77
    },
    {
      "midi": 65,
      "hit": false,
      "t": 137518.18399999803,
      "d": 76.53599999999278,
      "v": 71
    },
    {
      "midi": 50,
      "hit": false,
      "t": 137718.02800000005,
      "d": 301.89199999999255,
      "v": 103
    },
    {
      "midi": 59,
      "hit": false,
      "t": 137722.27999999924,
      "d": 233.86000000001513,
      "v": 113
    },
    {
      "midi": 71,
      "hit": false,
      "t": 137726.53199999925,
      "d": 157.32399999999325,
      "v": 117
    },
    {
      "midi": 72,
      "hit": false,
      "t": 137922.12399999803,
      "d": 119.05600000001141,
      "v": 76
    },
    {
      "midi": 65,
      "hit": false,
      "t": 137926.37599999804,
      "d": 93.54399999999441,
      "v": 72
    },
    {
      "midi": 69,
      "hit": false,
      "t": 137926.37599999804,
      "d": 97.7960000000021,
      "v": 80
    },
    {
      "midi": 72,
      "hit": false,
      "t": 137930.62799999924,
      "d": 191.3400000000256,
      "v": 106
    },
    {
      "midi": 60,
      "hit": false,
      "t": 137934.87999999925,
      "d": 212.60000000003492,
      "v": 122
    },
    {
      "midi": 59,
      "hit": false,
      "t": 138126.21999999805,
      "d": 535.7520000000368,
      "v": 69
    },
    {
      "midi": 43,
      "hit": false,
      "t": 138126.22000000003,
      "d": 416.6959999999963,
      "v": 106
    },
    {
      "midi": 53,
      "hit": false,
      "t": 138130.47199999806,
      "d": 561.2640000000247,
      "v": 58
    },
    {
      "midi": 62,
      "hit": false,
      "t": 138130.47199999806,
      "d": 603.7840000000142,
      "v": 54
    },
    {
      "midi": 74,
      "hit": false,
      "t": 138138.97599999927,
      "d": 739.8480000000272,
      "v": 109
    },
    {
      "midi": 62,
      "hit": false,
      "t": 138143.22799999928,
      "d": 786.6200000000244,
      "v": 113
    },
    {
      "midi": 74,
      "hit": false,
      "t": 138330.31599999807,
      "d": 127.55999999999767,
      "v": 74
    },
    {
      "midi": 71,
      "hit": false,
      "t": 138330.31599999807,
      "d": 148.82000000000698,
      "v": 77
    },
    {
      "midi": 65,
      "hit": false,
      "t": 138334.56799999808,
      "d": 80.78800000000047,
      "v": 70
    },
    {
      "midi": 55,
      "hit": false,
      "t": 138534.41200000004,
      "d": 378.42799999998533,
      "v": 103
    },
    {
      "midi": 71,
      "hit": false,
      "t": 138738.50799999808,
      "d": 63.78000000002794,
      "v": 66
    },
    {
      "midi": 74,
      "hit": false,
      "t": 138742.7599999981,
      "d": 102.04800000000978,
      "v": 74
    },
    {
      "midi": 65,
      "hit": false,
      "t": 138747.0119999981,
      "d": 68.03200000000652,
      "v": 79
    },
    {
      "midi": 58,
      "hit": false,
      "t": 138942.6039999981,
      "d": 688.8240000000224,
      "v": 56
    },
    {
      "midi": 48,
      "hit": false,
      "t": 138942.60400000002,
      "d": 369.92399999999907,
      "v": 113
    },
    {
      "midi": 64,
      "hit": false,
      "t": 138946.8559999981,
      "d": 646.3040000000037,
      "v": 59
    },
    {
      "midi": 60,
      "hit": false,
      "t": 138946.8559999981,
      "d": 858.9040000000678,
      "v": 70
    },
    {
      "midi": 67,
      "hit": false,
      "t": 138955.3599999993,
      "d": 680.320000000007,
      "v": 106
    },
    {
      "midi": 76,
      "hit": false,
      "t": 138955.3599999993,
      "d": 773.8640000000014,
      "v": 77
    },
    {
      "midi": 64,
      "hit": false,
      "t": 138959.6119999993,
      "d": 790.872000000003,
      "v": 109
    },
    {
      "midi": 70,
      "hit": false,
      "t": 139146.69999999812,
      "d": 131.81200000000536,
      "v": 65
    },
    {
      "midi": 76,
      "hit": false,
      "t": 139146.69999999812,
      "d": 182.83599999998114,
      "v": 72
    },
    {
      "midi": 67,
      "hit": false,
      "t": 139150.95199999813,
      "d": 136.06399999998393,
      "v": 72
    },
    {
      "midi": 52,
      "hit": false,
      "t": 139350.79600000003,
      "d": 374.17600000000675,
      "v": 109
    },
    {
      "midi": 70,
      "hit": false,
      "t": 139554.8919999981,
      "d": 131.81200000003446,
      "v": 55
    },
    {
      "midi": 76,
      "hit": false,
      "t": 139554.8919999981,
      "d": 136.06400000004214,
      "v": 69
    },
    {
      "midi": 67,
      "hit": false,
      "t": 139559.1439999981,
      "d": 89.29200000001583,
      "v": 63
    },
    {
      "midi": 53,
      "hit": false,
      "t": 139758.98800000004,
      "d": 4.252000000007683,
      "v": 103
    },
    {
      "midi": 53,
      "hit": false,
      "t": 139763.23999999816,
      "d": 68.03200000000652,
      "v": 80
    },
    {
      "midi": 53,
      "hit": false,
      "t": 139763.24000000005,
      "d": 199.84400000001187,
      "v": 117
    },
    {
      "midi": 65,
      "hit": false,
      "t": 139767.49199999816,
      "d": 51.02400000000489,
      "v": 80
    },
    {
      "midi": 77,
      "hit": false,
      "t": 139767.49199999816,
      "d": 76.53599999999278,
      "v": 79
    },
    {
      "midi": 65,
      "hit": false,
      "t": 139771.7439999993,
      "d": 93.54400000002352,
      "v": 122
    },
    {
      "midi": 77,
      "hit": false,
      "t": 139775.99599999932,
      "d": 89.29200000001583,
      "v": 86
    },
    {
      "midi": 69,
      "hit": false,
      "t": 139780.24799999932,
      "d": 85.04000000000815,
      "v": 113
    },
    {
      "midi": 50,
      "hit": false,
      "t": 139963.08400000006,
      "d": 191.3399999999965,
      "v": 126
    },
    {
      "midi": 74,
      "hit": false,
      "t": 139967.33599999815,
      "d": 131.81200000000536,
      "v": 106
    },
    {
      "midi": 62,
      "hit": false,
      "t": 139967.33599999815,
      "d": 216.8520000000135,
      "v": 100
    },
    {
      "midi": 74,
      "hit": false,
      "t": 139975.83999999933,
      "d": 136.06400000001304,
      "v": 113
    },
    {
      "midi": 62,
      "hit": false,
      "t": 139975.83999999933,
      "d": 216.8520000000135,
      "v": 109
    },
    {
      "midi": 60,
      "hit": false,
      "t": 140167.17999999816,
      "d": 216.8519999999844,
      "v": 77
    },
    {
      "midi": 48,
      "hit": false,
      "t": 140167.18000000005,
      "d": 165.82800000000861,
      "v": 113
    },
    {
      "midi": 72,
      "hit": false,
      "t": 140171.43199999817,
      "d": 216.8519999999844,
      "v": 92
    },
    {
      "midi": 72,
      "hit": false,
      "t": 140175.68399999934,
      "d": 178.58400000000256,
      "v": 109
    },
    {
      "midi": 59,
      "hit": false,
      "t": 140179.93599999935,
      "d": 110.55199999999604,
      "v": 82
    },
    {
      "midi": 60,
      "hit": false,
      "t": 140179.93599999935,
      "d": 153.07199999998556,
      "v": 86
    },
    {
      "midi": 57,
      "hit": false,
      "t": 140371.27599999815,
      "d": 250.86799999998766,
      "v": 69
    },
    {
      "midi": 45,
      "hit": false,
      "t": 140371.27600000007,
      "d": 221.10399999999208,
      "v": 113
    },
    {
      "midi": 69,
      "hit": false,
      "t": 140375.52799999816,
      "d": 233.85999999998603,
      "v": 79
    },
    {
      "midi": 57,
      "hit": false,
      "t": 140379.77999999933,
      "d": 182.83600000001024,
      "v": 90
    },
    {
      "midi": 69,
      "hit": false,
      "t": 140379.77999999933,
      "d": 221.1040000000212,
      "v": 109
    },
    {
      "midi": 65,
      "hit": false,
      "t": 140575.37199999814,
      "d": 136.06399999998393,
      "v": 90
    },
    {
      "midi": 41,
      "hit": false,
      "t": 140575.37200000006,
      "d": 153.07200000001467,
      "v": 127
    },
    {
      "midi": 53,
      "hit": false,
      "t": 140579.62399999815,
      "d": 102.04799999998068,
      "v": 77
    },
    {
      "midi": 53,
      "hit": false,
      "t": 140583.87599999935,
      "d": 89.29200000001583,
      "v": 109
    },
    {
      "midi": 55,
      "hit": false,
      "t": 140588.12799999936,
      "d": 8.503999999986263,
      "v": 106
    },
    {
      "midi": 65,
      "hit": false,
      "t": 140588.12799999936,
      "d": 148.82000000000698,
      "v": 117
    },
    {
      "midi": 53,
      "hit": false,
      "t": 140983.56399999812,
      "d": 131.81200000000536,
      "v": 84
    },
    {
      "midi": 41,
      "hit": false,
      "t": 140983.56400000007,
      "d": 212.60000000000582,
      "v": 127
    },
    {
      "midi": 65,
      "hit": false,
      "t": 140987.81599999813,
      "d": 127.55999999999767,
      "v": 95
    },
    {
      "midi": 69,
      "hit": false,
      "t": 140987.81599999813,
      "d": 131.81200000000536,
      "v": 100
    },
    {
      "midi": 77,
      "hit": false,
      "t": 140992.06799999814,
      "d": 131.81200000000536,
      "v": 100
    },
    {
      "midi": 53,
      "hit": false,
      "t": 140996.31999999937,
      "d": 170.0800000000163,
      "v": 86
    },
    {
      "midi": 65,
      "hit": false,
      "t": 141000.57199999937,
      "d": 174.33199999999488,
      "v": 100
    },
    {
      "midi": 69,
      "hit": false,
      "t": 141004.82399999938,
      "d": 178.58399999997346,
      "v": 106
    },
    {
      "midi": 62,
      "hit": false,
      "t": 141009.0759999994,
      "d": 144.5679999999993,
      "v": 92
    },
    {
      "midi": 77,
      "hit": false,
      "t": 141009.0759999994,
      "d": 178.58399999997346,
      "v": 106
    },
    {
      "midi": 72,
      "hit": false,
      "t": 141013.3279999994,
      "d": 17.00800000000163,
      "v": 97
    }
  ]
}