{
  "jsonPath": "Soundtracks/Video Game Music/The Sims 2/the-sims-2-simsation.json",
  "path": "Soundtracks\\Video Game Music\\The Sims 2\\The_Sims_2_Simsation.mid",
  "name": "The_Sims_2_Simsation",
  "difficulty": "Advanced",
  "bpm": 160,
  "notes": [
    {
      "midi": 62,
      "hit": false,
      "t": 0,
      "d": 367.1875,
      "v": 69
    },
    {
      "midi": 67,
      "hit": false,
      "t": 375,
      "d": 367.1875,
      "v": 85
    },
    {
      "midi": 74,
      "hit": false,
      "t": 750,
      "d": 179.6875,
      "v": 87
    },
    {
      "midi": 71,
      "hit": false,
      "t": 937.5,
      "d": 179.6875,
      "v": 67
    },
    {
      "midi": 67,
      "hit": false,
      "t": 1125,
      "d": 179.6875,
      "v": 69
    },
    {
      "midi": 66,
      "hit": false,
      "t": 1312.5,
      "d": 179.6875,
      "v": 74
    },
    {
      "midi": 66,
      "hit": false,
      "t": 1500,
      "d": 367.1875,
      "v": 74
    },
    {
      "midi": 78,
      "hit": false,
      "t": 1875,
      "d": 179.6875,
      "v": 92
    },
    {
      "midi": 74,
      "hit": false,
      "t": 2062.5,
      "d": 367.1875,
      "v": 71
    },
    {
      "midi": 67,
      "hit": false,
      "t": 2437.5,
      "d": 179.6875,
      "v": 61
    },
    {
      "midi": 71,
      "hit": false,
      "t": 2625,
      "d": 179.6875,
      "v": 82
    },
    {
      "midi": 74,
      "hit": false,
      "t": 2812.5,
      "d": 179.6875,
      "v": 86
    },
    {
      "midi": 74,
      "hit": false,
      "t": 3000,
      "d": 742.1875,
      "v": 75
    },
    {
      "midi": 43,
      "hit": false,
      "t": 3000,
      "d": 179.6875,
      "v": 71
    },
    {
      "midi": 47,
      "hit": false,
      "t": 3187.5,
      "d": 179.6875,
      "v": 81
    },
    {
      "midi": 50,
      "hit": false,
      "t": 3375,
      "d": 179.6875,
      "v": 82
    },
    {
      "midi": 55,
      "hit": false,
      "t": 3562.5,
      "d": 367.1875,
      "v": 80
    },
    {
      "midi": 71,
      "hit": false,
      "t": 3750,
      "d": 367.1875,
      "v": 66
    },
    {
      "midi": 50,
      "hit": false,
      "t": 3937.5,
      "d": 179.6875,
      "v": 73
    },
    {
      "midi": 67,
      "hit": false,
      "t": 4125,
      "d": 367.1875,
      "v": 65
    },
    {
      "midi": 47,
      "hit": false,
      "t": 4125,
      "d": 179.6875,
      "v": 69
    },
    {
      "midi": 43,
      "hit": false,
      "t": 4312.5,
      "d": 179.6875,
      "v": 71
    },
    {
      "midi": 69,
      "hit": false,
      "t": 4500,
      "d": 179.6875,
      "v": 76
    },
    {
      "midi": 42,
      "hit": false,
      "t": 4500,
      "d": 179.6875,
      "v": 70
    },
    {
      "midi": 74,
      "hit": false,
      "t": 4687.5,
      "d": 367.1875,
      "v": 87
    },
    {
      "midi": 45,
      "hit": false,
      "t": 4687.5,
      "d": 179.6875,
      "v": 83
    },
    {
      "midi": 50,
      "hit": false,
      "t": 4875,
      "d": 179.6875,
      "v": 82
    },
    {
      "midi": 71,
      "hit": false,
      "t": 5062.5,
      "d": 929.6875,
      "v": 73
    },
    {
      "midi": 67,
      "hit": false,
      "t": 5062.5,
      "d": 929.6875,
      "v": 73
    },
    {
      "midi": 55,
      "hit": false,
      "t": 5062.5,
      "d": 367.1875,
      "v": 82
    },
    {
      "midi": 50,
      "hit": false,
      "t": 5437.5,
      "d": 179.6875,
      "v": 75
    },
    {
      "midi": 47,
      "hit": false,
      "t": 5625,
      "d": 179.6875,
      "v": 76
    },
    {
      "midi": 43,
      "hit": false,
      "t": 5812.5,
      "d": 179.6875,
      "v": 77
    },
    {
      "midi": 40,
      "hit": false,
      "t": 6000,
      "d": 179.6875,
      "v": 69
    },
    {
      "midi": 43,
      "hit": false,
      "t": 6187.5,
      "d": 179.6875,
      "v": 71
    },
    {
      "midi": 47,
      "hit": false,
      "t": 6375,
      "d": 179.6875,
      "v": 82
    },
    {
      "midi": 52,
      "hit": false,
      "t": 6562.5,
      "d": 367.1875,
      "v": 81
    },
    {
      "midi": 47,
      "hit": false,
      "t": 6937.5,
      "d": 179.6875,
      "v": 74
    },
    {
      "midi": 43,
      "hit": false,
      "t": 7125,
      "d": 179.6875,
      "v": 70
    },
    {
      "midi": 40,
      "hit": false,
      "t": 7312.5,
      "d": 179.6875,
      "v": 72
    },
    {
      "midi": 66,
      "hit": false,
      "t": 7500,
      "d": 554.6875,
      "v": 68
    },
    {
      "midi": 42,
      "hit": false,
      "t": 7500,
      "d": 179.6875,
      "v": 76
    },
    {
      "midi": 45,
      "hit": false,
      "t": 7687.5,
      "d": 179.6875,
      "v": 75
    },
    {
      "midi": 50,
      "hit": false,
      "t": 7875,
      "d": 179.6875,
      "v": 78
    },
    {
      "midi": 67,
      "hit": false,
      "t": 8062.5,
      "d": 554.6875,
      "v": 78
    },
    {
      "midi": 43,
      "hit": false,
      "t": 8062.5,
      "d": 179.6875,
      "v": 70
    },
    {
      "midi": 47,
      "hit": false,
      "t": 8250,
      "d": 179.6875,
      "v": 76
    },
    {
      "midi": 50,
      "hit": false,
      "t": 8437.5,
      "d": 179.6875,
      "v": 82
    },
    {
      "midi": 69,
      "hit": false,
      "t": 8625,
      "d": 367.1875,
      "v": 82
    },
    {
      "midi": 45,
      "hit": false,
      "t": 8625,
      "d": 179.6875,
      "v": 75
    },
    {
      "midi": 50,
      "hit": false,
      "t": 8812.5,
      "d": 179.6875,
      "v": 80
    },
    {
      "midi": 74,
      "hit": false,
      "t": 9000,
      "d": 742.1875,
      "v": 87
    },
    {
      "midi": 43,
      "hit": false,
      "t": 9000,
      "d": 179.6875,
      "v": 70
    },
    {
      "midi": 47,
      "hit": false,
      "t": 9187.5,
      "d": 179.6875,
      "v": 77
    },
    {
      "midi": 50,
      "hit": false,
      "t": 9375,
      "d": 179.6875,
      "v": 78
    },
    {
      "midi": 55,
      "hit": false,
      "t": 9562.5,
      "d": 367.1875,
      "v": 82
    },
    {
      "midi": 71,
      "hit": false,
      "t": 9750,
      "d": 367.1875,
      "v": 68
    },
    {
      "midi": 50,
      "hit": false,
      "t": 9937.5,
      "d": 179.6875,
      "v": 69
    },
    {
      "midi": 67,
      "hit": false,
      "t": 10125,
      "d": 367.1875,
      "v": 68
    },
    {
      "midi": 47,
      "hit": false,
      "t": 10125,
      "d": 179.6875,
      "v": 71
    },
    {
      "midi": 43,
      "hit": false,
      "t": 10312.5,
      "d": 179.6875,
      "v": 70
    },
    {
      "midi": 69,
      "hit": false,
      "t": 10500,
      "d": 179.6875,
      "v": 82
    },
    {
      "midi": 42,
      "hit": false,
      "t": 10500,
      "d": 179.6875,
      "v": 72
    },
    {
      "midi": 74,
      "hit": false,
      "t": 10687.5,
      "d": 367.1875,
      "v": 83
    },
    {
      "midi": 45,
      "hit": false,
      "t": 10687.5,
      "d": 179.6875,
      "v": 79
    },
    {
      "midi": 50,
      "hit": false,
      "t": 10875,
      "d": 179.6875,
      "v": 78
    },
    {
      "midi": 71,
      "hit": false,
      "t": 11062.5,
      "d": 929.6875,
      "v": 71
    },
    {
      "midi": 67,
      "hit": false,
      "t": 11062.5,
      "d": 929.6875,
      "v": 71
    },
    {
      "midi": 55,
      "hit": false,
      "t": 11062.5,
      "d": 367.1875,
      "v": 82
    },
    {
      "midi": 50,
      "hit": false,
      "t": 11437.5,
      "d": 179.6875,
      "v": 70
    },
    {
      "midi": 47,
      "hit": false,
      "t": 11625,
      "d": 179.6875,
      "v": 76
    },
    {
      "midi": 43,
      "hit": false,
      "t": 11812.5,
      "d": 179.6875,
      "v": 74
    },
    {
      "midi": 40,
      "hit": false,
      "t": 12000,
      "d": 179.6875,
      "v": 75
    },
    {
      "midi": 43,
      "hit": false,
      "t": 12187.5,
      "d": 179.6875,
      "v": 78
    },
    {
      "midi": 47,
      "hit": false,
      "t": 12375,
      "d": 179.6875,
      "v": 83
    },
    {
      "midi": 52,
      "hit": false,
      "t": 12562.5,
      "d": 367.1875,
      "v": 82
    },
    {
      "midi": 47,
      "hit": false,
      "t": 12937.5,
      "d": 179.6875,
      "v": 71
    },
    {
      "midi": 43,
      "hit": false,
      "t": 13125,
      "d": 179.6875,
      "v": 70
    },
    {
      "midi": 40,
      "hit": false,
      "t": 13312.5,
      "d": 179.6875,
      "v": 71
    },
    {
      "midi": 71,
      "hit": false,
      "t": 13500,
      "d": 554.6875,
      "v": 72
    },
    {
      "midi": 66,
      "hit": false,
      "t": 13500,
      "d": 554.6875,
      "v": 72
    },
    {
      "midi": 42,
      "hit": false,
      "t": 13500,
      "d": 179.6875,
      "v": 79
    },
    {
      "midi": 45,
      "hit": false,
      "t": 13687.5,
      "d": 179.6875,
      "v": 78
    },
    {
      "midi": 50,
      "hit": false,
      "t": 13875,
      "d": 179.6875,
      "v": 85
    },
    {
      "midi": 71,
      "hit": false,
      "t": 14062.5,
      "d": 554.6875,
      "v": 78
    },
    {
      "midi": 67,
      "hit": false,
      "t": 14062.5,
      "d": 554.6875,
      "v": 78
    },
    {
      "midi": 43,
      "hit": false,
      "t": 14062.5,
      "d": 179.6875,
      "v": 66
    },
    {
      "midi": 47,
      "hit": false,
      "t": 14250,
      "d": 179.6875,
      "v": 84
    },
    {
      "midi": 50,
      "hit": false,
      "t": 14437.5,
      "d": 179.6875,
      "v": 84
    },
    {
      "midi": 71,
      "hit": false,
      "t": 14625,
      "d": 367.1875,
      "v": 72
    },
    {
      "midi": 69,
      "hit": false,
      "t": 14625,
      "d": 367.1875,
      "v": 72
    },
    {
      "midi": 45,
      "hit": false,
      "t": 14625,
      "d": 179.6875,
      "v": 67
    },
    {
      "midi": 50,
      "hit": false,
      "t": 14812.5,
      "d": 179.6875,
      "v": 81
    },
    {
      "midi": 62,
      "hit": false,
      "t": 15000,
      "d": 367.1875,
      "v": 57
    },
    {
      "midi": 43,
      "hit": false,
      "t": 15000,
      "d": 179.6875,
      "v": 70
    },
    {
      "midi": 47,
      "hit": false,
      "t": 15187.5,
      "d": 179.6875,
      "v": 81
    },
    {
      "midi": 67,
      "hit": false,
      "t": 15375,
      "d": 367.1875,
      "v": 82
    },
    {
      "midi": 50,
      "hit": false,
      "t": 15375,
      "d": 179.6875,
      "v": 78
    },
    {
      "midi": 55,
      "hit": false,
      "t": 15562.5,
      "d": 367.1875,
      "v": 78
    },
    {
      "midi": 74,
      "hit": false,
      "t": 15750,
      "d": 179.6875,
      "v": 84
    },
    {
      "midi": 71,
      "hit": false,
      "t": 15937.5,
      "d": 179.6875,
      "v": 72
    },
    {
      "midi": 50,
      "hit": false,
      "t": 15937.5,
      "d": 179.6875,
      "v": 77
    },
    {
      "midi": 67,
      "hit": false,
      "t": 16125,
      "d": 179.6875,
      "v": 67
    },
    {
      "midi": 47,
      "hit": false,
      "t": 16125,
      "d": 179.6875,
      "v": 74
    },
    {
      "midi": 66,
      "hit": false,
      "t": 16312.5,
      "d": 179.6875,
      "v": 66
    },
    {
      "midi": 43,
      "hit": false,
      "t": 16312.5,
      "d": 179.6875,
      "v": 72
    },
    {
      "midi": 66,
      "hit": false,
      "t": 16500,
      "d": 367.1875,
      "v": 76
    },
    {
      "midi": 42,
      "hit": false,
      "t": 16500,
      "d": 179.6875,
      "v": 75
    },
    {
      "midi": 45,
      "hit": false,
      "t": 16687.5,
      "d": 179.6875,
      "v": 83
    },
    {
      "midi": 78,
      "hit": false,
      "t": 16875,
      "d": 179.6875,
      "v": 96
    },
    {
      "midi": 50,
      "hit": false,
      "t": 16875,
      "d": 179.6875,
      "v": 81
    },
    {
      "midi": 74,
      "hit": false,
      "t": 17062.5,
      "d": 367.1875,
      "v": 74
    },
    {
      "midi": 55,
      "hit": false,
      "t": 17062.5,
      "d": 367.1875,
      "v": 86
    },
    {
      "midi": 71,
      "hit": false,
      "t": 17437.5,
      "d": 179.6875,
      "v": 70
    },
    {
      "midi": 50,
      "hit": false,
      "t": 17437.5,
      "d": 179.6875,
      "v": 69
    },
    {
      "midi": 74,
      "hit": false,
      "t": 17625,
      "d": 179.6875,
      "v": 81
    },
    {
      "midi": 47,
      "hit": false,
      "t": 17625,
      "d": 179.6875,
      "v": 75
    },
    {
      "midi": 66,
      "hit": false,
      "t": 17812.5,
      "d": 179.6875,
      "v": 63
    },
    {
      "midi": 43,
      "hit": false,
      "t": 17812.5,
      "d": 179.6875,
      "v": 73
    },
    {
      "midi": 62,
      "hit": false,
      "t": 18000,
      "d": 367.1875,
      "v": 63
    },
    {
      "midi": 40,
      "hit": false,
      "t": 18000,
      "d": 179.6875,
      "v": 72
    },
    {
      "midi": 43,
      "hit": false,
      "t": 18187.5,
      "d": 179.6875,
      "v": 77
    },
    {
      "midi": 67,
      "hit": false,
      "t": 18375,
      "d": 367.1875,
      "v": 91
    },
    {
      "midi": 47,
      "hit": false,
      "t": 18375,
      "d": 179.6875,
      "v": 79
    },
    {
      "midi": 52,
      "hit": false,
      "t": 18562.5,
      "d": 367.1875,
      "v": 81
    },
    {
      "midi": 74,
      "hit": false,
      "t": 18750,
      "d": 179.6875,
      "v": 91
    },
    {
      "midi": 71,
      "hit": false,
      "t": 18937.5,
      "d": 179.6875,
      "v": 74
    },
    {
      "midi": 47,
      "hit": false,
      "t": 18937.5,
      "d": 179.6875,
      "v": 71
    },
    {
      "midi": 67,
      "hit": false,
      "t": 19125,
      "d": 179.6875,
      "v": 69
    },
    {
      "midi": 43,
      "hit": false,
      "t": 19125,
      "d": 179.6875,
      "v": 72
    },
    {
      "midi": 66,
      "hit": false,
      "t": 19312.5,
      "d": 179.6875,
      "v": 77
    },
    {
      "midi": 40,
      "hit": false,
      "t": 19312.5,
      "d": 179.6875,
      "v": 74
    },
    {
      "midi": 66,
      "hit": false,
      "t": 19500,
      "d": 367.1875,
      "v": 78
    },
    {
      "midi": 42,
      "hit": false,
      "t": 19500,
      "d": 179.6875,
      "v": 83
    },
    {
      "midi": 45,
      "hit": false,
      "t": 19687.5,
      "d": 179.6875,
      "v": 76
    },
    {
      "midi": 78,
      "hit": false,
      "t": 19875,
      "d": 179.6875,
      "v": 97
    },
    {
      "midi": 50,
      "hit": false,
      "t": 19875,
      "d": 179.6875,
      "v": 81
    },
    {
      "midi": 74,
      "hit": false,
      "t": 20062.5,
      "d": 367.1875,
      "v": 68
    },
    {
      "midi": 43,
      "hit": false,
      "t": 20062.5,
      "d": 179.6875,
      "v": 71
    },
    {
      "midi": 47,
      "hit": false,
      "t": 20250,
      "d": 179.6875,
      "v": 83
    },
    {
      "midi": 71,
      "hit": false,
      "t": 20437.5,
      "d": 179.6875,
      "v": 71
    },
    {
      "midi": 50,
      "hit": false,
      "t": 20437.5,
      "d": 179.6875,
      "v": 82
    },
    {
      "midi": 74,
      "hit": false,
      "t": 20625,
      "d": 179.6875,
      "v": 84
    },
    {
      "midi": 45,
      "hit": false,
      "t": 20625,
      "d": 179.6875,
      "v": 77
    },
    {
      "midi": 66,
      "hit": false,
      "t": 20812.5,
      "d": 179.6875,
      "v": 61
    },
    {
      "midi": 50,
      "hit": false,
      "t": 20812.5,
      "d": 179.6875,
      "v": 79
    },
    {
      "midi": 62,
      "hit": false,
      "t": 21000,
      "d": 367.1875,
      "v": 64
    },
    {
      "midi": 43,
      "hit": false,
      "t": 21000,
      "d": 179.6875,
      "v": 73
    },
    {
      "midi": 47,
      "hit": false,
      "t": 21187.5,
      "d": 179.6875,
      "v": 84
    },
    {
      "midi": 67,
      "hit": false,
      "t": 21375,
      "d": 367.1875,
      "v": 84
    },
    {
      "midi": 50,
      "hit": false,
      "t": 21375,
      "d": 179.6875,
      "v": 81
    },
    {
      "midi": 55,
      "hit": false,
      "t": 21562.5,
      "d": 367.1875,
      "v": 83
    },
    {
      "midi": 74,
      "hit": false,
      "t": 21750,
      "d": 179.6875,
      "v": 90
    },
    {
      "midi": 71,
      "hit": false,
      "t": 21937.5,
      "d": 179.6875,
      "v": 70
    },
    {
      "midi": 50,
      "hit": false,
      "t": 21937.5,
      "d": 179.6875,
      "v": 73
    },
    {
      "midi": 67,
      "hit": false,
      "t": 22125,
      "d": 179.6875,
      "v": 65
    },
    {
      "midi": 47,
      "hit": false,
      "t": 22125,
      "d": 179.6875,
      "v": 72
    },
    {
      "midi": 66,
      "hit": false,
      "t": 22312.5,
      "d": 179.6875,
      "v": 79
    },
    {
      "midi": 43,
      "hit": false,
      "t": 22312.5,
      "d": 179.6875,
      "v": 72
    },
    {
      "midi": 66,
      "hit": false,
      "t": 22500,
      "d": 367.1875,
      "v": 76
    },
    {
      "midi": 42,
      "hit": false,
      "t": 22500,
      "d": 179.6875,
      "v": 76
    },
    {
      "midi": 45,
      "hit": false,
      "t": 22687.5,
      "d": 179.6875,
      "v": 81
    },
    {
      "midi": 78,
      "hit": false,
      "t": 22875,
      "d": 179.6875,
      "v": 94
    },
    {
      "midi": 50,
      "hit": false,
      "t": 22875,
      "d": 179.6875,
      "v": 84
    },
    {
      "midi": 74,
      "hit": false,
      "t": 23062.5,
      "d": 367.1875,
      "v": 68
    },
    {
      "midi": 55,
      "hit": false,
      "t": 23062.5,
      "d": 367.1875,
      "v": 82
    },
    {
      "midi": 71,
      "hit": false,
      "t": 23437.5,
      "d": 179.6875,
      "v": 69
    },
    {
      "midi": 50,
      "hit": false,
      "t": 23437.5,
      "d": 179.6875,
      "v": 70
    },
    {
      "midi": 74,
      "hit": false,
      "t": 23625,
      "d": 179.6875,
      "v": 82
    },
    {
      "midi": 47,
      "hit": false,
      "t": 23625,
      "d": 179.6875,
      "v": 75
    },
    {
      "midi": 66,
      "hit": false,
      "t": 23812.5,
      "d": 179.6875,
      "v": 58
    },
    {
      "midi": 43,
      "hit": false,
      "t": 23812.5,
      "d": 179.6875,
      "v": 70
    },
    {
      "midi": 62,
      "hit": false,
      "t": 24000,
      "d": 367.1875,
      "v": 65
    },
    {
      "midi": 40,
      "hit": false,
      "t": 24000,
      "d": 179.6875,
      "v": 72
    },
    {
      "midi": 43,
      "hit": false,
      "t": 24187.5,
      "d": 179.6875,
      "v": 77
    },
    {
      "midi": 67,
      "hit": false,
      "t": 24375,
      "d": 367.1875,
      "v": 82
    },
    {
      "midi": 47,
      "hit": false,
      "t": 24375,
      "d": 179.6875,
      "v": 85
    },
    {
      "midi": 52,
      "hit": false,
      "t": 24562.5,
      "d": 367.1875,
      "v": 82
    },
    {
      "midi": 74,
      "hit": false,
      "t": 24750,
      "d": 179.6875,
      "v": 89
    },
    {
      "midi": 71,
      "hit": false,
      "t": 24937.5,
      "d": 179.6875,
      "v": 75
    },
    {
      "midi": 47,
      "hit": false,
      "t": 24937.5,
      "d": 179.6875,
      "v": 75
    },
    {
      "midi": 67,
      "hit": false,
      "t": 25125,
      "d": 179.6875,
      "v": 65
    },
    {
      "midi": 43,
      "hit": false,
      "t": 25125,
      "d": 179.6875,
      "v": 72
    },
    {
      "midi": 66,
      "hit": false,
      "t": 25312.5,
      "d": 179.6875,
      "v": 71
    },
    {
      "midi": 40,
      "hit": false,
      "t": 25312.5,
      "d": 179.6875,
      "v": 72
    },
    {
      "midi": 66,
      "hit": false,
      "t": 25500,
      "d": 367.1875,
      "v": 76
    },
    {
      "midi": 42,
      "hit": false,
      "t": 25500,
      "d": 179.6875,
      "v": 81
    },
    {
      "midi": 45,
      "hit": false,
      "t": 25687.5,
      "d": 179.6875,
      "v": 78
    },
    {
      "midi": 78,
      "hit": false,
      "t": 25875,
      "d": 179.6875,
      "v": 98
    },
    {
      "midi": 50,
      "hit": false,
      "t": 25875,
      "d": 179.6875,
      "v": 81
    },
    {
      "midi": 74,
      "hit": false,
      "t": 26062.5,
      "d": 367.1875,
      "v": 72
    },
    {
      "midi": 43,
      "hit": false,
      "t": 26062.5,
      "d": 179.6875,
      "v": 73
    },
    {
      "midi": 47,
      "hit": false,
      "t": 26250,
      "d": 179.6875,
      "v": 79
    },
    {
      "midi": 71,
      "hit": false,
      "t": 26437.5,
      "d": 179.6875,
      "v": 68
    },
    {
      "midi": 50,
      "hit": false,
      "t": 26437.5,
      "d": 179.6875,
      "v": 83
    },
    {
      "midi": 74,
      "hit": false,
      "t": 26625,
      "d": 179.6875,
      "v": 81
    },
    {
      "midi": 45,
      "hit": false,
      "t": 26625,
      "d": 179.6875,
      "v": 72
    },
    {
      "midi": 66,
      "hit": false,
      "t": 26812.5,
      "d": 179.6875,
      "v": 63
    },
    {
      "midi": 50,
      "hit": false,
      "t": 26812.5,
      "d": 179.6875,
      "v": 82
    },
    {
      "midi": 62,
      "hit": false,
      "t": 27000,
      "d": 742.1875,
      "v": 67
    },
    {
      "midi": 43,
      "hit": false,
      "t": 27000,
      "d": 179.6875,
      "v": 70
    },
    {
      "midi": 47,
      "hit": false,
      "t": 27187.5,
      "d": 179.6875,
      "v": 80
    },
    {
      "midi": 50,
      "hit": false,
      "t": 27375,
      "d": 179.6875,
      "v": 76
    },
    {
      "midi": 55,
      "hit": false,
      "t": 27562.5,
      "d": 367.1875,
      "v": 80
    },
    {
      "midi": 59,
      "hit": false,
      "t": 27750,
      "d": 367.1875,
      "v": 77
    },
    {
      "midi": 50,
      "hit": false,
      "t": 27937.5,
      "d": 179.6875,
      "v": 71
    },
    {
      "midi": 55,
      "hit": false,
      "t": 28125,
      "d": 367.1875,
      "v": 71
    },
    {
      "midi": 47,
      "hit": false,
      "t": 28125,
      "d": 179.6875,
      "v": 72
    },
    {
      "midi": 43,
      "hit": false,
      "t": 28312.5,
      "d": 179.6875,
      "v": 72
    },
    {
      "midi": 57,
      "hit": false,
      "t": 28500,
      "d": 179.6875,
      "v": 75
    },
    {
      "midi": 42,
      "hit": false,
      "t": 28500,
      "d": 179.6875,
      "v": 74
    },
    {
      "midi": 62,
      "hit": false,
      "t": 28687.5,
      "d": 367.1875,
      "v": 82
    },
    {
      "midi": 45,
      "hit": false,
      "t": 28687.5,
      "d": 179.6875,
      "v": 81
    },
    {
      "midi": 50,
      "hit": false,
      "t": 28875,
      "d": 179.6875,
      "v": 81
    },
    {
      "midi": 59,
      "hit": false,
      "t": 29062.5,
      "d": 929.6875,
      "v": 73
    },
    {
      "midi": 55,
      "hit": false,
      "t": 29062.5,
      "d": 929.6875,
      "v": 73
    },
    {
      "midi": 55,
      "hit": false,
      "t": 29062.5,
      "d": 367.1875,
      "v": 79
    },
    {
      "midi": 50,
      "hit": false,
      "t": 29437.5,
      "d": 179.6875,
      "v": 72
    },
    {
      "midi": 47,
      "hit": false,
      "t": 29625,
      "d": 179.6875,
      "v": 70
    },
    {
      "midi": 43,
      "hit": false,
      "t": 29812.5,
      "d": 179.6875,
      "v": 72
    },
    {
      "midi": 59,
      "hit": false,
      "t": 30000,
      "d": 554.6875,
      "v": 78
    },
    {
      "midi": 55,
      "hit": false,
      "t": 30000,
      "d": 554.6875,
      "v": 78
    },
    {
      "midi": 40,
      "hit": false,
      "t": 30000,
      "d": 179.6875,
      "v": 69
    },
    {
      "midi": 43,
      "hit": false,
      "t": 30187.5,
      "d": 179.6875,
      "v": 77
    },
    {
      "midi": 47,
      "hit": false,
      "t": 30375,
      "d": 179.6875,
      "v": 80
    },
    {
      "midi": 59,
      "hit": false,
      "t": 30562.5,
      "d": 554.6875,
      "v": 79
    },
    {
      "midi": 55,
      "hit": false,
      "t": 30562.5,
      "d": 554.6875,
      "v": 79
    },
    {
      "midi": 52,
      "hit": false,
      "t": 30562.5,
      "d": 367.1875,
      "v": 81
    },
    {
      "midi": 47,
      "hit": false,
      "t": 30937.5,
      "d": 179.6875,
      "v": 75
    },
    {
      "midi": 59,
      "hit": false,
      "t": 31125,
      "d": 367.1875,
      "v": 81
    },
    {
      "midi": 55,
      "hit": false,
      "t": 31125,
      "d": 367.1875,
      "v": 81
    },
    {
      "midi": 43,
      "hit": false,
      "t": 31125,
      "d": 179.6875,
      "v": 73
    },
    {
      "midi": 40,
      "hit": false,
      "t": 31312.5,
      "d": 179.6875,
      "v": 77
    },
    {
      "midi": 54,
      "hit": false,
      "t": 31500,
      "d": 367.1875,
      "v": 74
    },
    {
      "midi": 42,
      "hit": false,
      "t": 31500,
      "d": 179.6875,
      "v": 72
    },
    {
      "midi": 45,
      "hit": false,
      "t": 31687.5,
      "d": 179.6875,
      "v": 76
    },
    {
      "midi": 50,
      "hit": false,
      "t": 31875,
      "d": 179.6875,
      "v": 79
    },
    {
      "midi": 59,
      "hit": false,
      "t": 32062.5,
      "d": 554.6875,
      "v": 71
    },
    {
      "midi": 55,
      "hit": false,
      "t": 32062.5,
      "d": 554.6875,
      "v": 71
    },
    {
      "midi": 43,
      "hit": false,
      "t": 32062.5,
      "d": 179.6875,
      "v": 70
    },
    {
      "midi": 47,
      "hit": false,
      "t": 32250,
      "d": 179.6875,
      "v": 77
    },
    {
      "midi": 50,
      "hit": false,
      "t": 32437.5,
      "d": 179.6875,
      "v": 75
    },
    {
      "midi": 59,
      "hit": false,
      "t": 32625,
      "d": 367.1875,
      "v": 74
    },
    {
      "midi": 57,
      "hit": false,
      "t": 32625,
      "d": 367.1875,
      "v": 74
    },
    {
      "midi": 45,
      "hit": false,
      "t": 32625,
      "d": 179.6875,
      "v": 70
    },
    {
      "midi": 50,
      "hit": false,
      "t": 32812.5,
      "d": 179.6875,
      "v": 79
    },
    {
      "midi": 62,
      "hit": false,
      "t": 33000,
      "d": 367.1875,
      "v": 79
    },
    {
      "midi": 43,
      "hit": false,
      "t": 33000,
      "d": 179.6875,
      "v": 64
    },
    {
      "midi": 47,
      "hit": false,
      "t": 33187.5,
      "d": 179.6875,
      "v": 76
    },
    {
      "midi": 62,
      "hit": false,
      "t": 33375,
      "d": 367.1875,
      "v": 77
    },
    {
      "midi": 50,
      "hit": false,
      "t": 33375,
      "d": 179.6875,
      "v": 79
    },
    {
      "midi": 55,
      "hit": false,
      "t": 33562.5,
      "d": 367.1875,
      "v": 81
    },
    {
      "midi": 59,
      "hit": false,
      "t": 33750,
      "d": 367.1875,
      "v": 75
    },
    {
      "midi": 50,
      "hit": false,
      "t": 33937.5,
      "d": 179.6875,
      "v": 75
    },
    {
      "midi": 55,
      "hit": false,
      "t": 34125,
      "d": 367.1875,
      "v": 66
    },
    {
      "midi": 47,
      "hit": false,
      "t": 34125,
      "d": 179.6875,
      "v": 80
    },
    {
      "midi": 43,
      "hit": false,
      "t": 34312.5,
      "d": 179.6875,
      "v": 73
    },
    {
      "midi": 57,
      "hit": false,
      "t": 34500,
      "d": 179.6875,
      "v": 77
    },
    {
      "midi": 42,
      "hit": false,
      "t": 34500,
      "d": 179.6875,
      "v": 73
    },
    {
      "midi": 62,
      "hit": false,
      "t": 34687.5,
      "d": 367.1875,
      "v": 85
    },
    {
      "midi": 45,
      "hit": false,
      "t": 34687.5,
      "d": 179.6875,
      "v": 81
    },
    {
      "midi": 50,
      "hit": false,
      "t": 34875,
      "d": 179.6875,
      "v": 81
    },
    {
      "midi": 59,
      "hit": false,
      "t": 35062.5,
      "d": 929.6875,
      "v": 72
    },
    {
      "midi": 55,
      "hit": false,
      "t": 35062.5,
      "d": 929.6875,
      "v": 72
    },
    {
      "midi": 55,
      "hit": false,
      "t": 35062.5,
      "d": 367.1875,
      "v": 83
    },
    {
      "midi": 50,
      "hit": false,
      "t": 35437.5,
      "d": 179.6875,
      "v": 70
    },
    {
      "midi": 47,
      "hit": false,
      "t": 35625,
      "d": 179.6875,
      "v": 71
    },
    {
      "midi": 43,
      "hit": false,
      "t": 35812.5,
      "d": 179.6875,
      "v": 70
    },
    {
      "midi": 59,
      "hit": false,
      "t": 36000,
      "d": 554.6875,
      "v": 70
    },
    {
      "midi": 55,
      "hit": false,
      "t": 36000,
      "d": 554.6875,
      "v": 70
    },
    {
      "midi": 40,
      "hit": false,
      "t": 36000,
      "d": 179.6875,
      "v": 74
    },
    {
      "midi": 43,
      "hit": false,
      "t": 36187.5,
      "d": 179.6875,
      "v": 76
    },
    {
      "midi": 47,
      "hit": false,
      "t": 36375,
      "d": 179.6875,
      "v": 76
    },
    {
      "midi": 59,
      "hit": false,
      "t": 36562.5,
      "d": 554.6875,
      "v": 81
    },
    {
      "midi": 55,
      "hit": false,
      "t": 36562.5,
      "d": 554.6875,
      "v": 81
    },
    {
      "midi": 52,
      "hit": false,
      "t": 36562.5,
      "d": 367.1875,
      "v": 85
    },
    {
      "midi": 47,
      "hit": false,
      "t": 36937.5,
      "d": 179.6875,
      "v": 68
    },
    {
      "midi": 59,
      "hit": false,
      "t": 37125,
      "d": 367.1875,
      "v": 75
    },
    {
      "midi": 55,
      "hit": false,
      "t": 37125,
      "d": 367.1875,
      "v": 75
    },
    {
      "midi": 43,
      "hit": false,
      "t": 37125,
      "d": 179.6875,
      "v": 74
    },
    {
      "midi": 40,
      "hit": false,
      "t": 37312.5,
      "d": 179.6875,
      "v": 74
    },
    {
      "midi": 57,
      "hit": false,
      "t": 37500,
      "d": 367.1875,
      "v": 72
    },
    {
      "midi": 54,
      "hit": false,
      "t": 37500,
      "d": 367.1875,
      "v": 72
    },
    {
      "midi": 42,
      "hit": false,
      "t": 37500,
      "d": 179.6875,
      "v": 80
    },
    {
      "midi": 45,
      "hit": false,
      "t": 37687.5,
      "d": 179.6875,
      "v": 79
    },
    {
      "midi": 50,
      "hit": false,
      "t": 37875,
      "d": 179.6875,
      "v": 84
    },
    {
      "midi": 59,
      "hit": false,
      "t": 38062.5,
      "d": 554.6875,
      "v": 69
    },
    {
      "midi": 55,
      "hit": false,
      "t": 38062.5,
      "d": 554.6875,
      "v": 69
    },
    {
      "midi": 43,
      "hit": false,
      "t": 38062.5,
      "d": 179.6875,
      "v": 74
    },
    {
      "midi": 47,
      "hit": false,
      "t": 38250,
      "d": 179.6875,
      "v": 79
    },
    {
      "midi": 50,
      "hit": false,
      "t": 38437.5,
      "d": 179.6875,
      "v": 79
    },
    {
      "midi": 59,
      "hit": false,
      "t": 38625,
      "d": 367.1875,
      "v": 75
    },
    {
      "midi": 57,
      "hit": false,
      "t": 38625,
      "d": 367.1875,
      "v": 75
    },
    {
      "midi": 45,
      "hit": false,
      "t": 38625,
      "d": 179.6875,
      "v": 71
    },
    {
      "midi": 50,
      "hit": false,
      "t": 38812.5,
      "d": 179.6875,
      "v": 83
    },
    {
      "midi": 43,
      "hit": false,
      "t": 39000,
      "d": 179.6875,
      "v": 69
    },
    {
      "midi": 59,
      "hit": false,
      "t": 39187.5,
      "d": 179.6875,
      "v": 70
    },
    {
      "midi": 47,
      "hit": false,
      "t": 39187.5,
      "d": 179.6875,
      "v": 81
    },
    {
      "midi": 64,
      "hit": false,
      "t": 39375,
      "d": 179.6875,
      "v": 83
    },
    {
      "midi": 50,
      "hit": false,
      "t": 39375,
      "d": 179.6875,
      "v": 80
    },
    {
      "midi": 66,
      "hit": false,
      "t": 39562.5,
      "d": 179.6875,
      "v": 78
    },
    {
      "midi": 55,
      "hit": false,
      "t": 39562.5,
      "d": 367.1875,
      "v": 86
    },
    {
      "midi": 67,
      "hit": false,
      "t": 39750,
      "d": 367.1875,
      "v": 76
    },
    {
      "midi": 50,
      "hit": false,
      "t": 39937.5,
      "d": 179.6875,
      "v": 72
    },
    {
      "midi": 66,
      "hit": false,
      "t": 40125,
      "d": 179.6875,
      "v": 73
    },
    {
      "midi": 47,
      "hit": false,
      "t": 40125,
      "d": 179.6875,
      "v": 69
    },
    {
      "midi": 64,
      "hit": false,
      "t": 40312.5,
      "d": 179.6875,
      "v": 68
    },
    {
      "midi": 43,
      "hit": false,
      "t": 40312.5,
      "d": 179.6875,
      "v": 72
    },
    {
      "midi": 62,
      "hit": false,
      "t": 40500,
      "d": 179.6875,
      "v": 73
    },
    {
      "midi": 42,
      "hit": false,
      "t": 40500,
      "d": 179.6875,
      "v": 71
    },
    {
      "midi": 64,
      "hit": false,
      "t": 40687.5,
      "d": 179.6875,
      "v": 82
    },
    {
      "midi": 45,
      "hit": false,
      "t": 40687.5,
      "d": 179.6875,
      "v": 81
    },
    {
      "midi": 66,
      "hit": false,
      "t": 40875,
      "d": 367.1875,
      "v": 82
    },
    {
      "midi": 50,
      "hit": false,
      "t": 40875,
      "d": 179.6875,
      "v": 81
    },
    {
      "midi": 55,
      "hit": false,
      "t": 41062.5,
      "d": 367.1875,
      "v": 87
    },
    {
      "midi": 67,
      "hit": false,
      "t": 41250,
      "d": 179.6875,
      "v": 81
    },
    {
      "midi": 69,
      "hit": false,
      "t": 41437.5,
      "d": 367.1875,
      "v": 85
    },
    {
      "midi": 50,
      "hit": false,
      "t": 41437.5,
      "d": 179.6875,
      "v": 71
    },
    {
      "midi": 47,
      "hit": false,
      "t": 41625,
      "d": 179.6875,
      "v": 71
    },
    {
      "midi": 69,
      "hit": false,
      "t": 41812.5,
      "d": 179.6875,
      "v": 77
    },
    {
      "midi": 43,
      "hit": false,
      "t": 41812.5,
      "d": 179.6875,
      "v": 66
    },
    {
      "midi": 69,
      "hit": false,
      "t": 42000,
      "d": 367.1875,
      "v": 77
    },
    {
      "midi": 40,
      "hit": false,
      "t": 42000,
      "d": 179.6875,
      "v": 70
    },
    {
      "midi": 43,
      "hit": false,
      "t": 42187.5,
      "d": 179.6875,
      "v": 82
    },
    {
      "midi": 71,
      "hit": false,
      "t": 42375,
      "d": 554.6875,
      "v": 80
    },
    {
      "midi": 67,
      "hit": false,
      "t": 42375,
      "d": 554.6875,
      "v": 80
    },
    {
      "midi": 47,
      "hit": false,
      "t": 42375,
      "d": 179.6875,
      "v": 79
    },
    {
      "midi": 52,
      "hit": false,
      "t": 42562.5,
      "d": 367.1875,
      "v": 86
    },
    {
      "midi": 71,
      "hit": false,
      "t": 42937.5,
      "d": 554.6875,
      "v": 74
    },
    {
      "midi": 67,
      "hit": false,
      "t": 42937.5,
      "d": 554.6875,
      "v": 74
    },
    {
      "midi": 47,
      "hit": false,
      "t": 42937.5,
      "d": 179.6875,
      "v": 76
    },
    {
      "midi": 43,
      "hit": false,
      "t": 43125,
      "d": 179.6875,
      "v": 71
    },
    {
      "midi": 40,
      "hit": false,
      "t": 43312.5,
      "d": 179.6875,
      "v": 69
    },
    {
      "midi": 71,
      "hit": false,
      "t": 43500,
      "d": 554.6875,
      "v": 76
    },
    {
      "midi": 67,
      "hit": false,
      "t": 43500,
      "d": 554.6875,
      "v": 76
    },
    {
      "midi": 42,
      "hit": false,
      "t": 43500,
      "d": 179.6875,
      "v": 77
    },
    {
      "midi": 45,
      "hit": false,
      "t": 43687.5,
      "d": 179.6875,
      "v": 76
    },
    {
      "midi": 50,
      "hit": false,
      "t": 43875,
      "d": 179.6875,
      "v": 79
    },
    {
      "midi": 71,
      "hit": false,
      "t": 44062.5,
      "d": 554.6875,
      "v": 71
    },
    {
      "midi": 67,
      "hit": false,
      "t": 44062.5,
      "d": 554.6875,
      "v": 71
    },
    {
      "midi": 43,
      "hit": false,
      "t": 44062.5,
      "d": 179.6875,
      "v": 75
    },
    {
      "midi": 47,
      "hit": false,
      "t": 44250,
      "d": 179.6875,
      "v": 82
    },
    {
      "midi": 50,
      "hit": false,
      "t": 44437.5,
      "d": 179.6875,
      "v": 79
    },
    {
      "midi": 71,
      "hit": false,
      "t": 44625,
      "d": 367.1875,
      "v": 73
    },
    {
      "midi": 67,
      "hit": false,
      "t": 44625,
      "d": 367.1875,
      "v": 73
    },
    {
      "midi": 45,
      "hit": false,
      "t": 44625,
      "d": 179.6875,
      "v": 72
    },
    {
      "midi": 50,
      "hit": false,
      "t": 44812.5,
      "d": 179.6875,
      "v": 82
    },
    {
      "midi": 43,
      "hit": false,
      "t": 45000,
      "d": 179.6875,
      "v": 74
    },
    {
      "midi": 59,
      "hit": false,
      "t": 45187.5,
      "d": 179.6875,
      "v": 70
    },
    {
      "midi": 47,
      "hit": false,
      "t": 45187.5,
      "d": 179.6875,
      "v": 78
    },
    {
      "midi": 64,
      "hit": false,
      "t": 45375,
      "d": 179.6875,
      "v": 83
    },
    {
      "midi": 50,
      "hit": false,
      "t": 45375,
      "d": 179.6875,
      "v": 77
    },
    {
      "midi": 66,
      "hit": false,
      "t": 45562.5,
      "d": 179.6875,
      "v": 85
    },
    {
      "midi": 55,
      "hit": false,
      "t": 45562.5,
      "d": 367.1875,
      "v": 82
    },
    {
      "midi": 67,
      "hit": false,
      "t": 45750,
      "d": 367.1875,
      "v": 85
    },
    {
      "midi": 50,
      "hit": false,
      "t": 45937.5,
      "d": 179.6875,
      "v": 72
    },
    {
      "midi": 66,
      "hit": false,
      "t": 46125,
      "d": 179.6875,
      "v": 72
    },
    {
      "midi": 47,
      "hit": false,
      "t": 46125,
      "d": 179.6875,
      "v": 75
    },
    {
      "midi": 64,
      "hit": false,
      "t": 46312.5,
      "d": 179.6875,
      "v": 65
    },
    {
      "midi": 43,
      "hit": false,
      "t": 46312.5,
      "d": 179.6875,
      "v": 71
    },
    {
      "midi": 62,
      "hit": false,
      "t": 46500,
      "d": 179.6875,
      "v": 77
    },
    {
      "midi": 42,
      "hit": false,
      "t": 46500,
      "d": 179.6875,
      "v": 68
    },
    {
      "midi": 64,
      "hit": false,
      "t": 46687.5,
      "d": 179.6875,
      "v": 81
    },
    {
      "midi": 45,
      "hit": false,
      "t": 46687.5,
      "d": 179.6875,
      "v": 81
    },
    {
      "midi": 66,
      "hit": false,
      "t": 46875,
      "d": 367.1875,
      "v": 84
    },
    {
      "midi": 50,
      "hit": false,
      "t": 46875,
      "d": 179.6875,
      "v": 78
    },
    {
      "midi": 55,
      "hit": false,
      "t": 47062.5,
      "d": 367.1875,
      "v": 78
    },
    {
      "midi": 67,
      "hit": false,
      "t": 47250,
      "d": 179.6875,
      "v": 79
    },
    {
      "midi": 69,
      "hit": false,
      "t": 47437.5,
      "d": 367.1875,
      "v": 77
    },
    {
      "midi": 50,
      "hit": false,
      "t": 47437.5,
      "d": 179.6875,
      "v": 72
    },
    {
      "midi": 47,
      "hit": false,
      "t": 47625,
      "d": 179.6875,
      "v": 74
    },
    {
      "midi": 69,
      "hit": false,
      "t": 47812.5,
      "d": 554.6875,
      "v": 81
    },
    {
      "midi": 43,
      "hit": false,
      "t": 47812.5,
      "d": 179.6875,
      "v": 73
    },
    {
      "midi": 40,
      "hit": false,
      "t": 48000,
      "d": 179.6875,
      "v": 69
    },
    {
      "midi": 43,
      "hit": false,
      "t": 48187.5,
      "d": 179.6875,
      "v": 77
    },
    {
      "midi": 71,
      "hit": false,
      "t": 48375,
      "d": 554.6875,
      "v": 77
    },
    {
      "midi": 67,
      "hit": false,
      "t": 48375,
      "d": 554.6875,
      "v": 77
    },
    {
      "midi": 47,
      "hit": false,
      "t": 48375,
      "d": 179.6875,
      "v": 79
    },
    {
      "midi": 52,
      "hit": false,
      "t": 48562.5,
      "d": 367.1875,
      "v": 80
    },
    {
      "midi": 71,
      "hit": false,
      "t": 48937.5,
      "d": 554.6875,
      "v": 73
    },
    {
      "midi": 67,
      "hit": false,
      "t": 48937.5,
      "d": 554.6875,
      "v": 73
    },
    {
      "midi": 47,
      "hit": false,
      "t": 48937.5,
      "d": 179.6875,
      "v": 73
    },
    {
      "midi": 43,
      "hit": false,
      "t": 49125,
      "d": 179.6875,
      "v": 72
    },
    {
      "midi": 40,
      "hit": false,
      "t": 49312.5,
      "d": 179.6875,
      "v": 77
    },
    {
      "midi": 71,
      "hit": false,
      "t": 49500,
      "d": 554.6875,
      "v": 77
    },
    {
      "midi": 67,
      "hit": false,
      "t": 49500,
      "d": 554.6875,
      "v": 77
    },
    {
      "midi": 42,
      "hit": false,
      "t": 49500,
      "d": 179.6875,
      "v": 79
    },
    {
      "midi": 45,
      "hit": false,
      "t": 49687.5,
      "d": 179.6875,
      "v": 77
    },
    {
      "midi": 50,
      "hit": false,
      "t": 49875,
      "d": 179.6875,
      "v": 82
    },
    {
      "midi": 71,
      "hit": false,
      "t": 50062.5,
      "d": 554.6875,
      "v": 79
    },
    {
      "midi": 67,
      "hit": false,
      "t": 50062.5,
      "d": 554.6875,
      "v": 79
    },
    {
      "midi": 43,
      "hit": false,
      "t": 50062.5,
      "d": 179.6875,
      "v": 72
    },
    {
      "midi": 47,
      "hit": false,
      "t": 50250,
      "d": 179.6875,
      "v": 74
    },
    {
      "midi": 50,
      "hit": false,
      "t": 50437.5,
      "d": 179.6875,
      "v": 78
    },
    {
      "midi": 71,
      "hit": false,
      "t": 50625,
      "d": 367.1875,
      "v": 76
    },
    {
      "midi": 67,
      "hit": false,
      "t": 50625,
      "d": 367.1875,
      "v": 76
    },
    {
      "midi": 45,
      "hit": false,
      "t": 50625,
      "d": 179.6875,
      "v": 70
    },
    {
      "midi": 50,
      "hit": false,
      "t": 50812.5,
      "d": 179.6875,
      "v": 80
    },
    {
      "midi": 72,
      "hit": false,
      "t": 51000,
      "d": 367.1875,
      "v": 81
    },
    {
      "midi": 48,
      "hit": false,
      "t": 51000,
      "d": 179.6875,
      "v": 78
    },
    {
      "midi": 52,
      "hit": false,
      "t": 51187.5,
      "d": 179.6875,
      "v": 85
    },
    {
      "midi": 72,
      "hit": false,
      "t": 51375,
      "d": 367.1875,
      "v": 77
    },
    {
      "midi": 55,
      "hit": false,
      "t": 51375,
      "d": 179.6875,
      "v": 81
    },
    {
      "midi": 60,
      "hit": false,
      "t": 51562.5,
      "d": 367.1875,
      "v": 84
    },
    {
      "midi": 72,
      "hit": false,
      "t": 51750,
      "d": 179.6875,
      "v": 76
    },
    {
      "midi": 71,
      "hit": false,
      "t": 51937.5,
      "d": 367.1875,
      "v": 72
    },
    {
      "midi": 55,
      "hit": false,
      "t": 51937.5,
      "d": 179.6875,
      "v": 69
    },
    {
      "midi": 52,
      "hit": false,
      "t": 52125,
      "d": 179.6875,
      "v": 70
    },
    {
      "midi": 71,
      "hit": false,
      "t": 52312.5,
      "d": 179.6875,
      "v": 73
    },
    {
      "midi": 48,
      "hit": false,
      "t": 52312.5,
      "d": 179.6875,
      "v": 70
    },
    {
      "midi": 69,
      "hit": false,
      "t": 52500,
      "d": 367.1875,
      "v": 70
    },
    {
      "midi": 47,
      "hit": false,
      "t": 52500,
      "d": 179.6875,
      "v": 73
    },
    {
      "midi": 50,
      "hit": false,
      "t": 52687.5,
      "d": 179.6875,
      "v": 79
    },
    {
      "midi": 69,
      "hit": false,
      "t": 52875,
      "d": 367.1875,
      "v": 72
    },
    {
      "midi": 55,
      "hit": false,
      "t": 52875,
      "d": 179.6875,
      "v": 81
    },
    {
      "midi": 60,
      "hit": false,
      "t": 53062.5,
      "d": 367.1875,
      "v": 88
    },
    {
      "midi": 67,
      "hit": false,
      "t": 53250,
      "d": 179.6875,
      "v": 69
    },
    {
      "midi": 69,
      "hit": false,
      "t": 53437.5,
      "d": 554.6875,
      "v": 78
    },
    {
      "midi": 55,
      "hit": false,
      "t": 53437.5,
      "d": 179.6875,
      "v": 75
    },
    {
      "midi": 52,
      "hit": false,
      "t": 53625,
      "d": 179.6875,
      "v": 69
    },
    {
      "midi": 48,
      "hit": false,
      "t": 53812.5,
      "d": 179.6875,
      "v": 74
    },
    {
      "midi": 67,
      "hit": false,
      "t": 54000,
      "d": 554.6875,
      "v": 77
    },
    {
      "midi": 45,
      "hit": false,
      "t": 54000,
      "d": 179.6875,
      "v": 74
    },
    {
      "midi": 48,
      "hit": false,
      "t": 54187.5,
      "d": 179.6875,
      "v": 79
    },
    {
      "midi": 52,
      "hit": false,
      "t": 54375,
      "d": 179.6875,
      "v": 82
    },
    {
      "midi": 64,
      "hit": false,
      "t": 54562.5,
      "d": 554.6875,
      "v": 69
    },
    {
      "midi": 57,
      "hit": false,
      "t": 54562.5,
      "d": 367.1875,
      "v": 84
    },
    {
      "midi": 52,
      "hit": false,
      "t": 54937.5,
      "d": 179.6875,
      "v": 67
    },
    {
      "midi": 60,
      "hit": false,
      "t": 55125,
      "d": 367.1875,
      "v": 65
    },
    {
      "midi": 48,
      "hit": false,
      "t": 55125,
      "d": 179.6875,
      "v": 68
    },
    {
      "midi": 45,
      "hit": false,
      "t": 55312.5,
      "d": 179.6875,
      "v": 75
    },
    {
      "midi": 62,
      "hit": false,
      "t": 55500,
      "d": 179.6875,
      "v": 78
    },
    {
      "midi": 47,
      "hit": false,
      "t": 55500,
      "d": 179.6875,
      "v": 78
    },
    {
      "midi": 67,
      "hit": false,
      "t": 55687.5,
      "d": 367.1875,
      "v": 83
    },
    {
      "midi": 50,
      "hit": false,
      "t": 55687.5,
      "d": 179.6875,
      "v": 83
    },
    {
      "midi": 55,
      "hit": false,
      "t": 55875,
      "d": 179.6875,
      "v": 85
    },
    {
      "midi": 64,
      "hit": false,
      "t": 56062.5,
      "d": 929.6875,
      "v": 67
    },
    {
      "midi": 48,
      "hit": false,
      "t": 56062.5,
      "d": 179.6875,
      "v": 70
    },
    {
      "midi": 52,
      "hit": false,
      "t": 56250,
      "d": 179.6875,
      "v": 80
    },
    {
      "midi": 55,
      "hit": false,
      "t": 56437.5,
      "d": 179.6875,
      "v": 78
    },
    {
      "midi": 50,
      "hit": false,
      "t": 56625,
      "d": 179.6875,
      "v": 73
    },
    {
      "midi": 55,
      "hit": false,
      "t": 56812.5,
      "d": 179.6875,
      "v": 80
    },
    {
      "midi": 48,
      "hit": false,
      "t": 57000,
      "d": 179.6875,
      "v": 70
    },
    {
      "midi": 69,
      "hit": false,
      "t": 57187.5,
      "d": 179.6875,
      "v": 70
    },
    {
      "midi": 52,
      "hit": false,
      "t": 57187.5,
      "d": 179.6875,
      "v": 79
    },
    {
      "midi": 71,
      "hit": false,
      "t": 57375,
      "d": 367.1875,
      "v": 79
    },
    {
      "midi": 55,
      "hit": false,
      "t": 57375,
      "d": 179.6875,
      "v": 81
    },
    {
      "midi": 60,
      "hit": false,
      "t": 57562.5,
      "d": 367.1875,
      "v": 83
    },
    {
      "midi": 72,
      "hit": false,
      "t": 57750,
      "d": 367.1875,
      "v": 86
    },
    {
      "midi": 55,
      "hit": false,
      "t": 57937.5,
      "d": 179.6875,
      "v": 71
    },
    {
      "midi": 71,
      "hit": false,
      "t": 58125,
      "d": 179.6875,
      "v": 76
    },
    {
      "midi": 52,
      "hit": false,
      "t": 58125,
      "d": 179.6875,
      "v": 74
    },
    {
      "midi": 69,
      "hit": false,
      "t": 58312.5,
      "d": 179.6875,
      "v": 76
    },
    {
      "midi": 48,
      "hit": false,
      "t": 58312.5,
      "d": 179.6875,
      "v": 74
    },
    {
      "midi": 67,
      "hit": false,
      "t": 58500,
      "d": 179.6875,
      "v": 69
    },
    {
      "midi": 47,
      "hit": false,
      "t": 58500,
      "d": 179.6875,
      "v": 76
    },
    {
      "midi": 69,
      "hit": false,
      "t": 58687.5,
      "d": 179.6875,
      "v": 79
    },
    {
      "midi": 50,
      "hit": false,
      "t": 58687.5,
      "d": 179.6875,
      "v": 81
    },
    {
      "midi": 71,
      "hit": false,
      "t": 58875,
      "d": 367.1875,
      "v": 79
    },
    {
      "midi": 55,
      "hit": false,
      "t": 58875,
      "d": 179.6875,
      "v": 79
    },
    {
      "midi": 60,
      "hit": false,
      "t": 59062.5,
      "d": 367.1875,
      "v": 86
    },
    {
      "midi": 72,
      "hit": false,
      "t": 59250,
      "d": 179.6875,
      "v": 80
    },
    {
      "midi": 74,
      "hit": false,
      "t": 59437.5,
      "d": 367.1875,
      "v": 77
    },
    {
      "midi": 55,
      "hit": false,
      "t": 59437.5,
      "d": 179.6875,
      "v": 73
    },
    {
      "midi": 52,
      "hit": false,
      "t": 59625,
      "d": 179.6875,
      "v": 73
    },
    {
      "midi": 74,
      "hit": false,
      "t": 59812.5,
      "d": 554.6875,
      "v": 79
    },
    {
      "midi": 48,
      "hit": false,
      "t": 59812.5,
      "d": 179.6875,
      "v": 74
    },
    {
      "midi": 45,
      "hit": false,
      "t": 60000,
      "d": 179.6875,
      "v": 70
    },
    {
      "midi": 48,
      "hit": false,
      "t": 60187.5,
      "d": 179.6875,
      "v": 74
    },
    {
      "midi": 76,
      "hit": false,
      "t": 60375,
      "d": 554.6875,
      "v": 81
    },
    {
      "midi": 72,
      "hit": false,
      "t": 60375,
      "d": 554.6875,
      "v": 81
    },
    {
      "midi": 52,
      "hit": false,
      "t": 60375,
      "d": 179.6875,
      "v": 81
    },
    {
      "midi": 57,
      "hit": false,
      "t": 60562.5,
      "d": 367.1875,
      "v": 83
    },
    {
      "midi": 76,
      "hit": false,
      "t": 60937.5,
      "d": 554.6875,
      "v": 84
    },
    {
      "midi": 72,
      "hit": false,
      "t": 60937.5,
      "d": 554.6875,
      "v": 84
    },
    {
      "midi": 52,
      "hit": false,
      "t": 60937.5,
      "d": 179.6875,
      "v": 70
    },
    {
      "midi": 48,
      "hit": false,
      "t": 61125,
      "d": 179.6875,
      "v": 68
    },
    {
      "midi": 45,
      "hit": false,
      "t": 61312.5,
      "d": 179.6875,
      "v": 72
    },
    {
      "midi": 76,
      "hit": false,
      "t": 61500,
      "d": 554.6875,
      "v": 79
    },
    {
      "midi": 72,
      "hit": false,
      "t": 61500,
      "d": 554.6875,
      "v": 79
    },
    {
      "midi": 47,
      "hit": false,
      "t": 61500,
      "d": 179.6875,
      "v": 80
    },
    {
      "midi": 50,
      "hit": false,
      "t": 61687.5,
      "d": 179.6875,
      "v": 79
    },
    {
      "midi": 55,
      "hit": false,
      "t": 61875,
      "d": 179.6875,
      "v": 78
    },
    {
      "midi": 76,
      "hit": false,
      "t": 62062.5,
      "d": 554.6875,
      "v": 75
    },
    {
      "midi": 72,
      "hit": false,
      "t": 62062.5,
      "d": 554.6875,
      "v": 75
    },
    {
      "midi": 48,
      "hit": false,
      "t": 62062.5,
      "d": 179.6875,
      "v": 71
    },
    {
      "midi": 52,
      "hit": false,
      "t": 62250,
      "d": 179.6875,
      "v": 82
    },
    {
      "midi": 55,
      "hit": false,
      "t": 62437.5,
      "d": 179.6875,
      "v": 77
    },
    {
      "midi": 76,
      "hit": false,
      "t": 62625,
      "d": 367.1875,
      "v": 76
    },
    {
      "midi": 72,
      "hit": false,
      "t": 62625,
      "d": 367.1875,
      "v": 76
    },
    {
      "midi": 50,
      "hit": false,
      "t": 62625,
      "d": 179.6875,
      "v": 75
    },
    {
      "midi": 55,
      "hit": false,
      "t": 62812.5,
      "d": 179.6875,
      "v": 83
    },
    {
      "midi": 74,
      "hit": false,
      "t": 63000,
      "d": 742.1875,
      "v": 74
    },
    {
      "midi": 43,
      "hit": false,
      "t": 63000,
      "d": 179.6875,
      "v": 68
    },
    {
      "midi": 47,
      "hit": false,
      "t": 63187.5,
      "d": 179.6875,
      "v": 80
    },
    {
      "midi": 50,
      "hit": false,
      "t": 63375,
      "d": 179.6875,
      "v": 83
    },
    {
      "midi": 55,
      "hit": false,
      "t": 63562.5,
      "d": 367.1875,
      "v": 79
    },
    {
      "midi": 71,
      "hit": false,
      "t": 63750,
      "d": 367.1875,
      "v": 72
    },
    {
      "midi": 50,
      "hit": false,
      "t": 63937.5,
      "d": 179.6875,
      "v": 74
    },
    {
      "midi": 67,
      "hit": false,
      "t": 64125,
      "d": 367.1875,
      "v": 68
    },
    {
      "midi": 47,
      "hit": false,
      "t": 64125,
      "d": 179.6875,
      "v": 73
    },
    {
      "midi": 43,
      "hit": false,
      "t": 64312.5,
      "d": 179.6875,
      "v": 68
    },
    {
      "midi": 69,
      "hit": false,
      "t": 64500,
      "d": 179.6875,
      "v": 75
    },
    {
      "midi": 42,
      "hit": false,
      "t": 64500,
      "d": 179.6875,
      "v": 76
    },
    {
      "midi": 74,
      "hit": false,
      "t": 64687.5,
      "d": 367.1875,
      "v": 89
    },
    {
      "midi": 45,
      "hit": false,
      "t": 64687.5,
      "d": 179.6875,
      "v": 81
    },
    {
      "midi": 50,
      "hit": false,
      "t": 64875,
      "d": 179.6875,
      "v": 83
    },
    {
      "midi": 71,
      "hit": false,
      "t": 65062.5,
      "d": 929.6875,
      "v": 74
    },
    {
      "midi": 67,
      "hit": false,
      "t": 65062.5,
      "d": 929.6875,
      "v": 74
    },
    {
      "midi": 55,
      "hit": false,
      "t": 65062.5,
      "d": 367.1875,
      "v": 79
    },
    {
      "midi": 50,
      "hit": false,
      "t": 65437.5,
      "d": 179.6875,
      "v": 72
    },
    {
      "midi": 47,
      "hit": false,
      "t": 65625,
      "d": 179.6875,
      "v": 69
    },
    {
      "midi": 43,
      "hit": false,
      "t": 65812.5,
      "d": 179.6875,
      "v": 74
    },
    {
      "midi": 71,
      "hit": false,
      "t": 66000,
      "d": 554.6875,
      "v": 71
    },
    {
      "midi": 67,
      "hit": false,
      "t": 66000,
      "d": 554.6875,
      "v": 71
    },
    {
      "midi": 40,
      "hit": false,
      "t": 66000,
      "d": 179.6875,
      "v": 71
    },
    {
      "midi": 43,
      "hit": false,
      "t": 66187.5,
      "d": 179.6875,
      "v": 76
    },
    {
      "midi": 47,
      "hit": false,
      "t": 66375,
      "d": 179.6875,
      "v": 82
    },
    {
      "midi": 71,
      "hit": false,
      "t": 66562.5,
      "d": 554.6875,
      "v": 75
    },
    {
      "midi": 67,
      "hit": false,
      "t": 66562.5,
      "d": 554.6875,
      "v": 75
    },
    {
      "midi": 52,
      "hit": false,
      "t": 66562.5,
      "d": 367.1875,
      "v": 83
    },
    {
      "midi": 47,
      "hit": false,
      "t": 66937.5,
      "d": 179.6875,
      "v": 73
    },
    {
      "midi": 71,
      "hit": false,
      "t": 67125,
      "d": 367.1875,
      "v": 77
    },
    {
      "midi": 67,
      "hit": false,
      "t": 67125,
      "d": 367.1875,
      "v": 77
    },
    {
      "midi": 43,
      "hit": false,
      "t": 67125,
      "d": 179.6875,
      "v": 68
    },
    {
      "midi": 40,
      "hit": false,
      "t": 67312.5,
      "d": 179.6875,
      "v": 72
    },
    {
      "midi": 71,
      "hit": false,
      "t": 67500,
      "d": 554.6875,
      "v": 80
    },
    {
      "midi": 66,
      "hit": false,
      "t": 67500,
      "d": 554.6875,
      "v": 80
    },
    {
      "midi": 42,
      "hit": false,
      "t": 67500,
      "d": 179.6875,
      "v": 79
    },
    {
      "midi": 45,
      "hit": false,
      "t": 67687.5,
      "d": 179.6875,
      "v": 78
    },
    {
      "midi": 50,
      "hit": false,
      "t": 67875,
      "d": 179.6875,
      "v": 76
    },
    {
      "midi": 71,
      "hit": false,
      "t": 68062.5,
      "d": 554.6875,
      "v": 76
    },
    {
      "midi": 67,
      "hit": false,
      "t": 68062.5,
      "d": 554.6875,
      "v": 76
    },
    {
      "midi": 43,
      "hit": false,
      "t": 68062.5,
      "d": 179.6875,
      "v": 71
    },
    {
      "midi": 47,
      "hit": false,
      "t": 68250,
      "d": 179.6875,
      "v": 83
    },
    {
      "midi": 50,
      "hit": false,
      "t": 68437.5,
      "d": 179.6875,
      "v": 82
    },
    {
      "midi": 71,
      "hit": false,
      "t": 68625,
      "d": 367.1875,
      "v": 74
    },
    {
      "midi": 69,
      "hit": false,
      "t": 68625,
      "d": 367.1875,
      "v": 74
    },
    {
      "midi": 45,
      "hit": false,
      "t": 68625,
      "d": 179.6875,
      "v": 71
    },
    {
      "midi": 50,
      "hit": false,
      "t": 68812.5,
      "d": 179.6875,
      "v": 81
    },
    {
      "midi": 74,
      "hit": false,
      "t": 69000,
      "d": 367.1875,
      "v": 83
    },
    {
      "midi": 43,
      "hit": false,
      "t": 69000,
      "d": 179.6875,
      "v": 67
    },
    {
      "midi": 47,
      "hit": false,
      "t": 69187.5,
      "d": 179.6875,
      "v": 80
    },
    {
      "midi": 74,
      "hit": false,
      "t": 69375,
      "d": 367.1875,
      "v": 77
    },
    {
      "midi": 50,
      "hit": false,
      "t": 69375,
      "d": 179.6875,
      "v": 80
    },
    {
      "midi": 55,
      "hit": false,
      "t": 69562.5,
      "d": 367.1875,
      "v": 83
    },
    {
      "midi": 71,
      "hit": false,
      "t": 69750,
      "d": 367.1875,
      "v": 72
    },
    {
      "midi": 50,
      "hit": false,
      "t": 69937.5,
      "d": 179.6875,
      "v": 73
    },
    {
      "midi": 67,
      "hit": false,
      "t": 70125,
      "d": 367.1875,
      "v": 66
    },
    {
      "midi": 47,
      "hit": false,
      "t": 70125,
      "d": 179.6875,
      "v": 69
    },
    {
      "midi": 43,
      "hit": false,
      "t": 70312.5,
      "d": 179.6875,
      "v": 72
    },
    {
      "midi": 69,
      "hit": false,
      "t": 70500,
      "d": 179.6875,
      "v": 79
    },
    {
      "midi": 42,
      "hit": false,
      "t": 70500,
      "d": 179.6875,
      "v": 73
    },
    {
      "midi": 74,
      "hit": false,
      "t": 70687.5,
      "d": 367.1875,
      "v": 87
    },
    {
      "midi": 45,
      "hit": false,
      "t": 70687.5,
      "d": 179.6875,
      "v": 82
    },
    {
      "midi": 50,
      "hit": false,
      "t": 70875,
      "d": 179.6875,
      "v": 84
    },
    {
      "midi": 71,
      "hit": false,
      "t": 71062.5,
      "d": 929.6875,
      "v": 73
    },
    {
      "midi": 67,
      "hit": false,
      "t": 71062.5,
      "d": 929.6875,
      "v": 73
    },
    {
      "midi": 55,
      "hit": false,
      "t": 71062.5,
      "d": 367.1875,
      "v": 80
    },
    {
      "midi": 50,
      "hit": false,
      "t": 71437.5,
      "d": 179.6875,
      "v": 71
    },
    {
      "midi": 47,
      "hit": false,
      "t": 71625,
      "d": 179.6875,
      "v": 69
    },
    {
      "midi": 43,
      "hit": false,
      "t": 71812.5,
      "d": 179.6875,
      "v": 70
    },
    {
      "midi": 71,
      "hit": false,
      "t": 72000,
      "d": 554.6875,
      "v": 74
    },
    {
      "midi": 67,
      "hit": false,
      "t": 72000,
      "d": 554.6875,
      "v": 74
    },
    {
      "midi": 40,
      "hit": false,
      "t": 72000,
      "d": 179.6875,
      "v": 71
    },
    {
      "midi": 43,
      "hit": false,
      "t": 72187.5,
      "d": 179.6875,
      "v": 77
    },
    {
      "midi": 47,
      "hit": false,
      "t": 72375,
      "d": 179.6875,
      "v": 76
    },
    {
      "midi": 71,
      "hit": false,
      "t": 72562.5,
      "d": 554.6875,
      "v": 82
    },
    {
      "midi": 67,
      "hit": false,
      "t": 72562.5,
      "d": 554.6875,
      "v": 82
    },
    {
      "midi": 52,
      "hit": false,
      "t": 72562.5,
      "d": 367.1875,
      "v": 80
    },
    {
      "midi": 47,
      "hit": false,
      "t": 72937.5,
      "d": 179.6875,
      "v": 70
    },
    {
      "midi": 71,
      "hit": false,
      "t": 73125,
      "d": 367.1875,
      "v": 80
    },
    {
      "midi": 67,
      "hit": false,
      "t": 73125,
      "d": 367.1875,
      "v": 80
    },
    {
      "midi": 43,
      "hit": false,
      "t": 73125,
      "d": 179.6875,
      "v": 73
    },
    {
      "midi": 40,
      "hit": false,
      "t": 73312.5,
      "d": 179.6875,
      "v": 76
    },
    {
      "midi": 71,
      "hit": false,
      "t": 73500,
      "d": 554.6875,
      "v": 80
    },
    {
      "midi": 66,
      "hit": false,
      "t": 73500,
      "d": 554.6875,
      "v": 80
    },
    {
      "midi": 42,
      "hit": false,
      "t": 73500,
      "d": 179.6875,
      "v": 76
    },
    {
      "midi": 45,
      "hit": false,
      "t": 73687.5,
      "d": 179.6875,
      "v": 76
    },
    {
      "midi": 50,
      "hit": false,
      "t": 73875,
      "d": 179.6875,
      "v": 81
    },
    {
      "midi": 71,
      "hit": false,
      "t": 74062.5,
      "d": 554.6875,
      "v": 73
    },
    {
      "midi": 67,
      "hit": false,
      "t": 74062.5,
      "d": 554.6875,
      "v": 73
    },
    {
      "midi": 43,
      "hit": false,
      "t": 74062.5,
      "d": 179.6875,
      "v": 72
    },
    {
      "midi": 47,
      "hit": false,
      "t": 74250,
      "d": 179.6875,
      "v": 86
    },
    {
      "midi": 50,
      "hit": false,
      "t": 74437.5,
      "d": 179.6875,
      "v": 80
    },
    {
      "midi": 71,
      "hit": false,
      "t": 74625,
      "d": 367.1875,
      "v": 75
    },
    {
      "midi": 69,
      "hit": false,
      "t": 74625,
      "d": 367.1875,
      "v": 75
    },
    {
      "midi": 45,
      "hit": false,
      "t": 74625,
      "d": 179.6875,
      "v": 72
    },
    {
      "midi": 50,
      "hit": false,
      "t": 74812.5,
      "d": 179.6875,
      "v": 77
    },
    {
      "midi": 62,
      "hit": false,
      "t": 75000,
      "d": 742.1875,
      "v": 62
    },
    {
      "midi": 43,
      "hit": false,
      "t": 75000,
      "d": 179.6875,
      "v": 69
    },
    {
      "midi": 47,
      "hit": false,
      "t": 75187.5,
      "d": 179.6875,
      "v": 77
    },
    {
      "midi": 50,
      "hit": false,
      "t": 75375,
      "d": 179.6875,
      "v": 78
    },
    {
      "midi": 55,
      "hit": false,
      "t": 75562.5,
      "d": 367.1875,
      "v": 84
    },
    {
      "midi": 59,
      "hit": false,
      "t": 75750,
      "d": 367.1875,
      "v": 70
    },
    {
      "midi": 50,
      "hit": false,
      "t": 75937.5,
      "d": 179.6875,
      "v": 69
    },
    {
      "midi": 55,
      "hit": false,
      "t": 76125,
      "d": 367.1875,
      "v": 70
    },
    {
      "midi": 47,
      "hit": false,
      "t": 76125,
      "d": 179.6875,
      "v": 73
    },
    {
      "midi": 43,
      "hit": false,
      "t": 76312.5,
      "d": 179.6875,
      "v": 72
    },
    {
      "midi": 57,
      "hit": false,
      "t": 76500,
      "d": 179.6875,
      "v": 79
    },
    {
      "midi": 42,
      "hit": false,
      "t": 76500,
      "d": 179.6875,
      "v": 73
    },
    {
      "midi": 62,
      "hit": false,
      "t": 76687.5,
      "d": 367.1875,
      "v": 92
    },
    {
      "midi": 45,
      "hit": false,
      "t": 76687.5,
      "d": 179.6875,
      "v": 76
    },
    {
      "midi": 50,
      "hit": false,
      "t": 76875,
      "d": 179.6875,
      "v": 80
    },
    {
      "midi": 59,
      "hit": false,
      "t": 77062.5,
      "d": 929.6875,
      "v": 71
    },
    {
      "midi": 55,
      "hit": false,
      "t": 77062.5,
      "d": 929.6875,
      "v": 71
    },
    {
      "midi": 55,
      "hit": false,
      "t": 77062.5,
      "d": 367.1875,
      "v": 79
    },
    {
      "midi": 50,
      "hit": false,
      "t": 77437.5,
      "d": 179.6875,
      "v": 72
    },
    {
      "midi": 47,
      "hit": false,
      "t": 77625,
      "d": 179.6875,
      "v": 75
    },
    {
      "midi": 43,
      "hit": false,
      "t": 77812.5,
      "d": 179.6875,
      "v": 70
    },
    {
      "midi": 59,
      "hit": false,
      "t": 78000,
      "d": 554.6875,
      "v": 75
    },
    {
      "midi": 55,
      "hit": false,
      "t": 78000,
      "d": 554.6875,
      "v": 75
    },
    {
      "midi": 40,
      "hit": false,
      "t": 78000,
      "d": 179.6875,
      "v": 75
    },
    {
      "midi": 43,
      "hit": false,
      "t": 78187.5,
      "d": 179.6875,
      "v": 80
    },
    {
      "midi": 47,
      "hit": false,
      "t": 78375,
      "d": 179.6875,
      "v": 83
    },
    {
      "midi": 59,
      "hit": false,
      "t": 78562.5,
      "d": 554.6875,
      "v": 79
    },
    {
      "midi": 55,
      "hit": false,
      "t": 78562.5,
      "d": 554.6875,
      "v": 79
    },
    {
      "midi": 52,
      "hit": false,
      "t": 78562.5,
      "d": 367.1875,
      "v": 84
    },
    {
      "midi": 47,
      "hit": false,
      "t": 78937.5,
      "d": 179.6875,
      "v": 70
    },
    {
      "midi": 59,
      "hit": false,
      "t": 79125,
      "d": 367.1875,
      "v": 72
    },
    {
      "midi": 55,
      "hit": false,
      "t": 79125,
      "d": 367.1875,
      "v": 72
    },
    {
      "midi": 43,
      "hit": false,
      "t": 79125,
      "d": 179.6875,
      "v": 75
    },
    {
      "midi": 40,
      "hit": false,
      "t": 79312.5,
      "d": 179.6875,
      "v": 74
    },
    {
      "midi": 59,
      "hit": false,
      "t": 79500,
      "d": 554.6875,
      "v": 75
    },
    {
      "midi": 54,
      "hit": false,
      "t": 79500,
      "d": 554.6875,
      "v": 75
    },
    {
      "midi": 42,
      "hit": false,
      "t": 79500,
      "d": 179.6875,
      "v": 76
    },
    {
      "midi": 45,
      "hit": false,
      "t": 79687.5,
      "d": 179.6875,
      "v": 77
    },
    {
      "midi": 50,
      "hit": false,
      "t": 79875,
      "d": 179.6875,
      "v": 81
    },
    {
      "midi": 59,
      "hit": false,
      "t": 80062.5,
      "d": 554.6875,
      "v": 77
    },
    {
      "midi": 55,
      "hit": false,
      "t": 80062.5,
      "d": 554.6875,
      "v": 77
    },
    {
      "midi": 43,
      "hit": false,
      "t": 80062.5,
      "d": 179.6875,
      "v": 65
    },
    {
      "midi": 47,
      "hit": false,
      "t": 80250,
      "d": 179.6875,
      "v": 80
    },
    {
      "midi": 50,
      "hit": false,
      "t": 80437.5,
      "d": 179.6875,
      "v": 81
    },
    {
      "midi": 59,
      "hit": false,
      "t": 80625,
      "d": 367.1875,
      "v": 76
    },
    {
      "midi": 57,
      "hit": false,
      "t": 80625,
      "d": 367.1875,
      "v": 76
    },
    {
      "midi": 45,
      "hit": false,
      "t": 80625,
      "d": 179.6875,
      "v": 74
    },
    {
      "midi": 50,
      "hit": false,
      "t": 80812.5,
      "d": 179.6875,
      "v": 78
    },
    {
      "midi": 62,
      "hit": false,
      "t": 81000,
      "d": 367.1875,
      "v": 81
    },
    {
      "midi": 43,
      "hit": false,
      "t": 81000,
      "d": 179.6875,
      "v": 69
    },
    {
      "midi": 47,
      "hit": false,
      "t": 81187.5,
      "d": 179.6875,
      "v": 82
    },
    {
      "midi": 62,
      "hit": false,
      "t": 81375,
      "d": 367.1875,
      "v": 83
    },
    {
      "midi": 50,
      "hit": false,
      "t": 81375,
      "d": 179.6875,
      "v": 77
    },
    {
      "midi": 55,
      "hit": false,
      "t": 81562.5,
      "d": 367.1875,
      "v": 84
    },
    {
      "midi": 59,
      "hit": false,
      "t": 81750,
      "d": 367.1875,
      "v": 72
    },
    {
      "midi": 50,
      "hit": false,
      "t": 81937.5,
      "d": 179.6875,
      "v": 74
    },
    {
      "midi": 55,
      "hit": false,
      "t": 82125,
      "d": 367.1875,
      "v": 76
    },
    {
      "midi": 47,
      "hit": false,
      "t": 82125,
      "d": 179.6875,
      "v": 72
    },
    {
      "midi": 43,
      "hit": false,
      "t": 82312.5,
      "d": 179.6875,
      "v": 72
    },
    {
      "midi": 57,
      "hit": false,
      "t": 82500,
      "d": 179.6875,
      "v": 75
    },
    {
      "midi": 42,
      "hit": false,
      "t": 82500,
      "d": 179.6875,
      "v": 79
    },
    {
      "midi": 62,
      "hit": false,
      "t": 82687.5,
      "d": 367.1875,
      "v": 89
    },
    {
      "midi": 45,
      "hit": false,
      "t": 82687.5,
      "d": 179.6875,
      "v": 81
    },
    {
      "midi": 50,
      "hit": false,
      "t": 82875,
      "d": 179.6875,
      "v": 79
    },
    {
      "midi": 59,
      "hit": false,
      "t": 83062.5,
      "d": 929.6875,
      "v": 74
    },
    {
      "midi": 55,
      "hit": false,
      "t": 83062.5,
      "d": 929.6875,
      "v": 74
    },
    {
      "midi": 55,
      "hit": false,
      "t": 83062.5,
      "d": 367.1875,
      "v": 79
    },
    {
      "midi": 50,
      "hit": false,
      "t": 83437.5,
      "d": 179.6875,
      "v": 71
    },
    {
      "midi": 47,
      "hit": false,
      "t": 83625,
      "d": 179.6875,
      "v": 71
    },
    {
      "midi": 43,
      "hit": false,
      "t": 83812.5,
      "d": 179.6875,
      "v": 66
    },
    {
      "midi": 59,
      "hit": false,
      "t": 84000,
      "d": 554.6875,
      "v": 76
    },
    {
      "midi": 55,
      "hit": false,
      "t": 84000,
      "d": 554.6875,
      "v": 76
    },
    {
      "midi": 40,
      "hit": false,
      "t": 84000,
      "d": 179.6875,
      "v": 74
    },
    {
      "midi": 43,
      "hit": false,
      "t": 84187.5,
      "d": 179.6875,
      "v": 78
    },
    {
      "midi": 47,
      "hit": false,
      "t": 84375,
      "d": 179.6875,
      "v": 83
    },
    {
      "midi": 59,
      "hit": false,
      "t": 84562.5,
      "d": 554.6875,
      "v": 75
    },
    {
      "midi": 55,
      "hit": false,
      "t": 84562.5,
      "d": 554.6875,
      "v": 75
    },
    {
      "midi": 52,
      "hit": false,
      "t": 84562.5,
      "d": 367.1875,
      "v": 81
    },
    {
      "midi": 47,
      "hit": false,
      "t": 84937.5,
      "d": 179.6875,
      "v": 75
    },
    {
      "midi": 59,
      "hit": false,
      "t": 85125,
      "d": 367.1875,
      "v": 73
    },
    {
      "midi": 55,
      "hit": false,
      "t": 85125,
      "d": 367.1875,
      "v": 73
    },
    {
      "midi": 43,
      "hit": false,
      "t": 85125,
      "d": 179.6875,
      "v": 72
    },
    {
      "midi": 40,
      "hit": false,
      "t": 85312.5,
      "d": 179.6875,
      "v": 73
    },
    {
      "midi": 59,
      "hit": false,
      "t": 85500,
      "d": 554.6875,
      "v": 76
    },
    {
      "midi": 54,
      "hit": false,
      "t": 85500,
      "d": 554.6875,
      "v": 76
    },
    {
      "midi": 42,
      "hit": false,
      "t": 85500,
      "d": 179.6875,
      "v": 80
    },
    {
      "midi": 45,
      "hit": false,
      "t": 85687.5,
      "d": 179.6875,
      "v": 79
    },
    {
      "midi": 50,
      "hit": false,
      "t": 85875,
      "d": 179.6875,
      "v": 79
    },
    {
      "midi": 59,
      "hit": false,
      "t": 86062.5,
      "d": 554.6875,
      "v": 76
    },
    {
      "midi": 55,
      "hit": false,
      "t": 86062.5,
      "d": 554.6875,
      "v": 76
    },
    {
      "midi": 43,
      "hit": false,
      "t": 86062.5,
      "d": 179.6875,
      "v": 76
    },
    {
      "midi": 47,
      "hit": false,
      "t": 86250,
      "d": 179.6875,
      "v": 77
    },
    {
      "midi": 50,
      "hit": false,
      "t": 86437.5,
      "d": 179.6875,
      "v": 80
    },
    {
      "midi": 59,
      "hit": false,
      "t": 86625,
      "d": 367.1875,
      "v": 77
    },
    {
      "midi": 57,
      "hit": false,
      "t": 86625,
      "d": 367.1875,
      "v": 77
    },
    {
      "midi": 45,
      "hit": false,
      "t": 86625,
      "d": 179.6875,
      "v": 72
    },
    {
      "midi": 50,
      "hit": false,
      "t": 86812.5,
      "d": 179.6875,
      "v": 80
    },
    {
      "midi": 62,
      "hit": false,
      "t": 87000,
      "d": 367.1875,
      "v": 83
    },
    {
      "midi": 43,
      "hit": false,
      "t": 87000,
      "d": 179.6875,
      "v": 73
    },
    {
      "midi": 47,
      "hit": false,
      "t": 87187.5,
      "d": 179.6875,
      "v": 83
    },
    {
      "midi": 67,
      "hit": false,
      "t": 87375,
      "d": 367.1875,
      "v": 88
    },
    {
      "midi": 50,
      "hit": false,
      "t": 87375,
      "d": 179.6875,
      "v": 78
    },
    {
      "midi": 55,
      "hit": false,
      "t": 87562.5,
      "d": 367.1875,
      "v": 83
    },
    {
      "midi": 74,
      "hit": false,
      "t": 87750,
      "d": 179.6875,
      "v": 89
    },
    {
      "midi": 71,
      "hit": false,
      "t": 87937.5,
      "d": 179.6875,
      "v": 69
    },
    {
      "midi": 50,
      "hit": false,
      "t": 87937.5,
      "d": 179.6875,
      "v": 69
    },
    {
      "midi": 67,
      "hit": false,
      "t": 88125,
      "d": 179.6875,
      "v": 66
    },
    {
      "midi": 47,
      "hit": false,
      "t": 88125,
      "d": 179.6875,
      "v": 73
    },
    {
      "midi": 66,
      "hit": false,
      "t": 88312.5,
      "d": 179.6875,
      "v": 72
    },
    {
      "midi": 43,
      "hit": false,
      "t": 88312.5,
      "d": 179.6875,
      "v": 73
    },
    {
      "midi": 66,
      "hit": false,
      "t": 88500,
      "d": 367.1875,
      "v": 77
    },
    {
      "midi": 42,
      "hit": false,
      "t": 88500,
      "d": 179.6875,
      "v": 75
    },
    {
      "midi": 45,
      "hit": false,
      "t": 88687.5,
      "d": 179.6875,
      "v": 77
    },
    {
      "midi": 78,
      "hit": false,
      "t": 88875,
      "d": 179.6875,
      "v": 96
    },
    {
      "midi": 50,
      "hit": false,
      "t": 88875,
      "d": 179.6875,
      "v": 82
    },
    {
      "midi": 74,
      "hit": false,
      "t": 89062.5,
      "d": 367.1875,
      "v": 71
    },
    {
      "midi": 55,
      "hit": false,
      "t": 89062.5,
      "d": 367.1875,
      "v": 81
    },
    {
      "midi": 71,
      "hit": false,
      "t": 89437.5,
      "d": 179.6875,
      "v": 73
    },
    {
      "midi": 50,
      "hit": false,
      "t": 89437.5,
      "d": 179.6875,
      "v": 72
    },
    {
      "midi": 74,
      "hit": false,
      "t": 89625,
      "d": 179.6875,
      "v": 81
    },
    {
      "midi": 47,
      "hit": false,
      "t": 89625,
      "d": 179.6875,
      "v": 75
    },
    {
      "midi": 66,
      "hit": false,
      "t": 89812.5,
      "d": 179.6875,
      "v": 68
    },
    {
      "midi": 43,
      "hit": false,
      "t": 89812.5,
      "d": 179.6875,
      "v": 67
    },
    {
      "midi": 62,
      "hit": false,
      "t": 90000,
      "d": 367.1875,
      "v": 64
    },
    {
      "midi": 40,
      "hit": false,
      "t": 90000,
      "d": 179.6875,
      "v": 73
    },
    {
      "midi": 43,
      "hit": false,
      "t": 90187.5,
      "d": 179.6875,
      "v": 79
    },
    {
      "midi": 67,
      "hit": false,
      "t": 90375,
      "d": 367.1875,
      "v": 78
    },
    {
      "midi": 47,
      "hit": false,
      "t": 90375,
      "d": 179.6875,
      "v": 76
    },
    {
      "midi": 52,
      "hit": false,
      "t": 90562.5,
      "d": 367.1875,
      "v": 83
    },
    {
      "midi": 74,
      "hit": false,
      "t": 90750,
      "d": 179.6875,
      "v": 91
    },
    {
      "midi": 71,
      "hit": false,
      "t": 90937.5,
      "d": 179.6875,
      "v": 70
    },
    {
      "midi": 47,
      "hit": false,
      "t": 90937.5,
      "d": 179.6875,
      "v": 70
    },
    {
      "midi": 67,
      "hit": false,
      "t": 91125,
      "d": 179.6875,
      "v": 66
    },
    {
      "midi": 43,
      "hit": false,
      "t": 91125,
      "d": 179.6875,
      "v": 73
    },
    {
      "midi": 66,
      "hit": false,
      "t": 91312.5,
      "d": 179.6875,
      "v": 74
    },
    {
      "midi": 40,
      "hit": false,
      "t": 91312.5,
      "d": 179.6875,
      "v": 73
    },
    {
      "midi": 66,
      "hit": false,
      "t": 91500,
      "d": 367.1875,
      "v": 72
    },
    {
      "midi": 42,
      "hit": false,
      "t": 91500,
      "d": 179.6875,
      "v": 75
    },
    {
      "midi": 45,
      "hit": false,
      "t": 91687.5,
      "d": 179.6875,
      "v": 76
    },
    {
      "midi": 78,
      "hit": false,
      "t": 91875,
      "d": 179.6875,
      "v": 100
    },
    {
      "midi": 50,
      "hit": false,
      "t": 91875,
      "d": 179.6875,
      "v": 82
    },
    {
      "midi": 74,
      "hit": false,
      "t": 92062.5,
      "d": 367.1875,
      "v": 71
    },
    {
      "midi": 43,
      "hit": false,
      "t": 92062.5,
      "d": 179.6875,
      "v": 70
    },
    {
      "midi": 47,
      "hit": false,
      "t": 92250,
      "d": 179.6875,
      "v": 84
    },
    {
      "midi": 71,
      "hit": false,
      "t": 92437.5,
      "d": 179.6875,
      "v": 72
    },
    {
      "midi": 50,
      "hit": false,
      "t": 92437.5,
      "d": 179.6875,
      "v": 77
    },
    {
      "midi": 74,
      "hit": false,
      "t": 92625,
      "d": 179.6875,
      "v": 77
    },
    {
      "midi": 45,
      "hit": false,
      "t": 92625,
      "d": 179.6875,
      "v": 69
    },
    {
      "midi": 66,
      "hit": false,
      "t": 92812.5,
      "d": 179.6875,
      "v": 65
    },
    {
      "midi": 50,
      "hit": false,
      "t": 92812.5,
      "d": 179.6875,
      "v": 78
    },
    {
      "midi": 62,
      "hit": false,
      "t": 93000,
      "d": 367.1875,
      "v": 67
    },
    {
      "midi": 43,
      "hit": false,
      "t": 93000,
      "d": 179.6875,
      "v": 68
    },
    {
      "midi": 47,
      "hit": false,
      "t": 93187.5,
      "d": 179.6875,
      "v": 81
    },
    {
      "midi": 67,
      "hit": false,
      "t": 93375,
      "d": 367.1875,
      "v": 90
    },
    {
      "midi": 50,
      "hit": false,
      "t": 93375,
      "d": 179.6875,
      "v": 77
    },
    {
      "midi": 55,
      "hit": false,
      "t": 93562.5,
      "d": 367.1875,
      "v": 82
    },
    {
      "midi": 74,
      "hit": false,
      "t": 93750,
      "d": 179.6875,
      "v": 87
    },
    {
      "midi": 71,
      "hit": false,
      "t": 93937.5,
      "d": 179.6875,
      "v": 68
    },
    {
      "midi": 50,
      "hit": false,
      "t": 93937.5,
      "d": 179.6875,
      "v": 70
    },
    {
      "midi": 67,
      "hit": false,
      "t": 94125,
      "d": 179.6875,
      "v": 67
    },
    {
      "midi": 47,
      "hit": false,
      "t": 94125,
      "d": 179.6875,
      "v": 70
    },
    {
      "midi": 66,
      "hit": false,
      "t": 94312.5,
      "d": 179.6875,
      "v": 75
    },
    {
      "midi": 43,
      "hit": false,
      "t": 94312.5,
      "d": 179.6875,
      "v": 68
    },
    {
      "midi": 66,
      "hit": false,
      "t": 94500,
      "d": 367.1875,
      "v": 76
    },
    {
      "midi": 42,
      "hit": false,
      "t": 94500,
      "d": 179.6875,
      "v": 78
    },
    {
      "midi": 45,
      "hit": false,
      "t": 94687.5,
      "d": 179.6875,
      "v": 83
    },
    {
      "midi": 78,
      "hit": false,
      "t": 94875,
      "d": 179.6875,
      "v": 100
    },
    {
      "midi": 50,
      "hit": false,
      "t": 94875,
      "d": 179.6875,
      "v": 84
    },
    {
      "midi": 74,
      "hit": false,
      "t": 95062.5,
      "d": 367.1875,
      "v": 65
    },
    {
      "midi": 55,
      "hit": false,
      "t": 95062.5,
      "d": 367.1875,
      "v": 82
    },
    {
      "midi": 71,
      "hit": false,
      "t": 95437.5,
      "d": 179.6875,
      "v": 72
    },
    {
      "midi": 50,
      "hit": false,
      "t": 95437.5,
      "d": 179.6875,
      "v": 72
    },
    {
      "midi": 74,
      "hit": false,
      "t": 95625,
      "d": 179.6875,
      "v": 84
    },
    {
      "midi": 47,
      "hit": false,
      "t": 95625,
      "d": 179.6875,
      "v": 73
    },
    {
      "midi": 66,
      "hit": false,
      "t": 95812.5,
      "d": 179.6875,
      "v": 62
    },
    {
      "midi": 43,
      "hit": false,
      "t": 95812.5,
      "d": 179.6875,
      "v": 70
    },
    {
      "midi": 62,
      "hit": false,
      "t": 96000,
      "d": 367.1875,
      "v": 66
    },
    {
      "midi": 40,
      "hit": false,
      "t": 96000,
      "d": 179.6875,
      "v": 71
    },
    {
      "midi": 43,
      "hit": false,
      "t": 96187.5,
      "d": 179.6875,
      "v": 77
    },
    {
      "midi": 67,
      "hit": false,
      "t": 96375,
      "d": 367.1875,
      "v": 83
    },
    {
      "midi": 47,
      "hit": false,
      "t": 96375,
      "d": 179.6875,
      "v": 80
    },
    {
      "midi": 52,
      "hit": false,
      "t": 96562.5,
      "d": 367.1875,
      "v": 90
    },
    {
      "midi": 74,
      "hit": false,
      "t": 96750,
      "d": 179.6875,
      "v": 90
    },
    {
      "midi": 71,
      "hit": false,
      "t": 96937.5,
      "d": 179.6875,
      "v": 73
    },
    {
      "midi": 47,
      "hit": false,
      "t": 96937.5,
      "d": 179.6875,
      "v": 74
    },
    {
      "midi": 67,
      "hit": false,
      "t": 97125,
      "d": 179.6875,
      "v": 67
    },
    {
      "midi": 43,
      "hit": false,
      "t": 97125,
      "d": 179.6875,
      "v": 71
    },
    {
      "midi": 66,
      "hit": false,
      "t": 97312.5,
      "d": 179.6875,
      "v": 74
    },
    {
      "midi": 40,
      "hit": false,
      "t": 97312.5,
      "d": 179.6875,
      "v": 74
    },
    {
      "midi": 66,
      "hit": false,
      "t": 97500,
      "d": 367.1875,
      "v": 78
    },
    {
      "midi": 42,
      "hit": false,
      "t": 97500,
      "d": 179.6875,
      "v": 76
    },
    {
      "midi": 45,
      "hit": false,
      "t": 97687.5,
      "d": 179.6875,
      "v": 81
    },
    {
      "midi": 78,
      "hit": false,
      "t": 97875,
      "d": 179.6875,
      "v": 100
    },
    {
      "midi": 50,
      "hit": false,
      "t": 97875,
      "d": 179.6875,
      "v": 82
    },
    {
      "midi": 74,
      "hit": false,
      "t": 98062.5,
      "d": 367.1875,
      "v": 71
    },
    {
      "midi": 43,
      "hit": false,
      "t": 98062.5,
      "d": 179.6875,
      "v": 73
    },
    {
      "midi": 47,
      "hit": false,
      "t": 98250,
      "d": 179.6875,
      "v": 83
    },
    {
      "midi": 71,
      "hit": false,
      "t": 98437.5,
      "d": 179.6875,
      "v": 69
    },
    {
      "midi": 50,
      "hit": false,
      "t": 98437.5,
      "d": 179.6875,
      "v": 78
    },
    {
      "midi": 74,
      "hit": false,
      "t": 98625,
      "d": 179.6875,
      "v": 81
    },
    {
      "midi": 45,
      "hit": false,
      "t": 98625,
      "d": 179.6875,
      "v": 72
    },
    {
      "midi": 66,
      "hit": false,
      "t": 98812.5,
      "d": 179.6875,
      "v": 61
    },
    {
      "midi": 50,
      "hit": false,
      "t": 98812.5,
      "d": 179.6875,
      "v": 79
    },
    {
      "midi": 62,
      "hit": false,
      "t": 99000,
      "d": 367.1875,
      "v": 65
    },
    {
      "midi": 43,
      "hit": false,
      "t": 99000,
      "d": 179.6875,
      "v": 68
    },
    {
      "midi": 47,
      "hit": false,
      "t": 99187.5,
      "d": 179.6875,
      "v": 81
    },
    {
      "midi": 67,
      "hit": false,
      "t": 99375,
      "d": 367.1875,
      "v": 84
    },
    {
      "midi": 50,
      "hit": false,
      "t": 99375,
      "d": 179.6875,
      "v": 80
    },
    {
      "midi": 55,
      "hit": false,
      "t": 99562.5,
      "d": 367.1875,
      "v": 81
    },
    {
      "midi": 74,
      "hit": false,
      "t": 99750,
      "d": 179.6875,
      "v": 95
    },
    {
      "midi": 71,
      "hit": false,
      "t": 99937.5,
      "d": 179.6875,
      "v": 73
    },
    {
      "midi": 50,
      "hit": false,
      "t": 99937.5,
      "d": 179.6875,
      "v": 72
    },
    {
      "midi": 67,
      "hit": false,
      "t": 100125,
      "d": 179.6875,
      "v": 68
    },
    {
      "midi": 47,
      "hit": false,
      "t": 100125,
      "d": 179.6875,
      "v": 74
    },
    {
      "midi": 66,
      "hit": false,
      "t": 100312.5,
      "d": 179.6875,
      "v": 71
    },
    {
      "midi": 43,
      "hit": false,
      "t": 100312.5,
      "d": 179.6875,
      "v": 74
    },
    {
      "midi": 66,
      "hit": false,
      "t": 100500,
      "d": 367.1875,
      "v": 77
    },
    {
      "midi": 42,
      "hit": false,
      "t": 100500,
      "d": 179.6875,
      "v": 70
    },
    {
      "midi": 45,
      "hit": false,
      "t": 100687.5,
      "d": 179.6875,
      "v": 83
    },
    {
      "midi": 78,
      "hit": false,
      "t": 100875,
      "d": 179.6875,
      "v": 100
    },
    {
      "midi": 50,
      "hit": false,
      "t": 100875,
      "d": 179.6875,
      "v": 82
    },
    {
      "midi": 74,
      "hit": false,
      "t": 101062.5,
      "d": 367.1875,
      "v": 70
    },
    {
      "midi": 55,
      "hit": false,
      "t": 101062.5,
      "d": 367.1875,
      "v": 82
    },
    {
      "midi": 71,
      "hit": false,
      "t": 101437.5,
      "d": 179.6875,
      "v": 68
    },
    {
      "midi": 50,
      "hit": false,
      "t": 101437.5,
      "d": 179.6875,
      "v": 74
    },
    {
      "midi": 74,
      "hit": false,
      "t": 101625,
      "d": 179.6875,
      "v": 82
    },
    {
      "midi": 47,
      "hit": false,
      "t": 101625,
      "d": 179.6875,
      "v": 72
    },
    {
      "midi": 66,
      "hit": false,
      "t": 101812.5,
      "d": 179.6875,
      "v": 64
    },
    {
      "midi": 43,
      "hit": false,
      "t": 101812.5,
      "d": 179.6875,
      "v": 73
    },
    {
      "midi": 62,
      "hit": false,
      "t": 102000,
      "d": 367.1875,
      "v": 64
    },
    {
      "midi": 40,
      "hit": false,
      "t": 102000,
      "d": 179.6875,
      "v": 74
    },
    {
      "midi": 43,
      "hit": false,
      "t": 102187.5,
      "d": 179.6875,
      "v": 78
    },
    {
      "midi": 67,
      "hit": false,
      "t": 102375,
      "d": 367.1875,
      "v": 83
    },
    {
      "midi": 47,
      "hit": false,
      "t": 102375,
      "d": 179.6875,
      "v": 81
    },
    {
      "midi": 52,
      "hit": false,
      "t": 102562.5,
      "d": 367.1875,
      "v": 82
    },
    {
      "midi": 74,
      "hit": false,
      "t": 102750,
      "d": 179.6875,
      "v": 91
    },
    {
      "midi": 71,
      "hit": false,
      "t": 102937.5,
      "d": 179.6875,
      "v": 73
    },
    {
      "midi": 47,
      "hit": false,
      "t": 102937.5,
      "d": 179.6875,
      "v": 70
    },
    {
      "midi": 67,
      "hit": false,
      "t": 103125,
      "d": 179.6875,
      "v": 66
    },
    {
      "midi": 43,
      "hit": false,
      "t": 103125,
      "d": 179.6875,
      "v": 72
    },
    {
      "midi": 66,
      "hit": false,
      "t": 103312.5,
      "d": 179.6875,
      "v": 72
    },
    {
      "midi": 40,
      "hit": false,
      "t": 103312.5,
      "d": 179.6875,
      "v": 69
    },
    {
      "midi": 66,
      "hit": false,
      "t": 103500,
      "d": 367.1875,
      "v": 74
    },
    {
      "midi": 42,
      "hit": false,
      "t": 103500,
      "d": 179.6875,
      "v": 76
    },
    {
      "midi": 45,
      "hit": false,
      "t": 103687.5,
      "d": 179.6875,
      "v": 80
    },
    {
      "midi": 78,
      "hit": false,
      "t": 103875,
      "d": 179.6875,
      "v": 102
    },
    {
      "midi": 50,
      "hit": false,
      "t": 103875,
      "d": 179.6875,
      "v": 78
    },
    {
      "midi": 74,
      "hit": false,
      "t": 104062.5,
      "d": 367.1875,
      "v": 75
    },
    {
      "midi": 43,
      "hit": false,
      "t": 104062.5,
      "d": 179.6875,
      "v": 67
    },
    {
      "midi": 47,
      "hit": false,
      "t": 104250,
      "d": 179.6875,
      "v": 77
    },
    {
      "midi": 71,
      "hit": false,
      "t": 104437.5,
      "d": 179.6875,
      "v": 64
    },
    {
      "midi": 50,
      "hit": false,
      "t": 104437.5,
      "d": 179.6875,
      "v": 79
    },
    {
      "midi": 74,
      "hit": false,
      "t": 104625,
      "d": 179.6875,
      "v": 81
    },
    {
      "midi": 45,
      "hit": false,
      "t": 104625,
      "d": 179.6875,
      "v": 67
    },
    {
      "midi": 66,
      "hit": false,
      "t": 104812.5,
      "d": 179.6875,
      "v": 64
    },
    {
      "midi": 50,
      "hit": false,
      "t": 104812.5,
      "d": 179.6875,
      "v": 78
    },
    {
      "midi": 62,
      "hit": false,
      "t": 105000,
      "d": 367.1875,
      "v": 67
    },
    {
      "midi": 43,
      "hit": false,
      "t": 105000,
      "d": 179.6875,
      "v": 69
    },
    {
      "midi": 47,
      "hit": false,
      "t": 105187.5,
      "d": 179.6875,
      "v": 81
    },
    {
      "midi": 67,
      "hit": false,
      "t": 105375,
      "d": 367.1875,
      "v": 86
    },
    {
      "midi": 50,
      "hit": false,
      "t": 105375,
      "d": 179.6875,
      "v": 75
    },
    {
      "midi": 55,
      "hit": false,
      "t": 105562.5,
      "d": 367.1875,
      "v": 82
    },
    {
      "midi": 74,
      "hit": false,
      "t": 105750,
      "d": 179.6875,
      "v": 91
    },
    {
      "midi": 71,
      "hit": false,
      "t": 105937.5,
      "d": 179.6875,
      "v": 75
    },
    {
      "midi": 50,
      "hit": false,
      "t": 105937.5,
      "d": 179.6875,
      "v": 75
    },
    {
      "midi": 67,
      "hit": false,
      "t": 106125,
      "d": 179.6875,
      "v": 68
    },
    {
      "midi": 47,
      "hit": false,
      "t": 106125,
      "d": 179.6875,
      "v": 75
    },
    {
      "midi": 66,
      "hit": false,
      "t": 106312.5,
      "d": 179.6875,
      "v": 71
    },
    {
      "midi": 43,
      "hit": false,
      "t": 106312.5,
      "d": 179.6875,
      "v": 74
    },
    {
      "midi": 66,
      "hit": false,
      "t": 106500,
      "d": 367.1875,
      "v": 78
    },
    {
      "midi": 42,
      "hit": false,
      "t": 106500,
      "d": 179.6875,
      "v": 81
    },
    {
      "midi": 45,
      "hit": false,
      "t": 106687.5,
      "d": 179.6875,
      "v": 85
    },
    {
      "midi": 78,
      "hit": false,
      "t": 106875,
      "d": 179.6875,
      "v": 98
    },
    {
      "midi": 50,
      "hit": false,
      "t": 106875,
      "d": 179.6875,
      "v": 79
    },
    {
      "midi": 74,
      "hit": false,
      "t": 107062.5,
      "d": 367.1875,
      "v": 74
    },
    {
      "midi": 55,
      "hit": false,
      "t": 107062.5,
      "d": 367.1875,
      "v": 79
    },
    {
      "midi": 71,
      "hit": false,
      "t": 107437.5,
      "d": 179.6875,
      "v": 70
    },
    {
      "midi": 50,
      "hit": false,
      "t": 107437.5,
      "d": 179.6875,
      "v": 77
    },
    {
      "midi": 74,
      "hit": false,
      "t": 107625,
      "d": 179.6875,
      "v": 83
    },
    {
      "midi": 47,
      "hit": false,
      "t": 107625,
      "d": 179.6875,
      "v": 76
    },
    {
      "midi": 66,
      "hit": false,
      "t": 107812.5,
      "d": 179.6875,
      "v": 65
    },
    {
      "midi": 43,
      "hit": false,
      "t": 107812.5,
      "d": 179.6875,
      "v": 78
    },
    {
      "midi": 62,
      "hit": false,
      "t": 108000,
      "d": 367.1875,
      "v": 69
    },
    {
      "midi": 40,
      "hit": false,
      "t": 108000,
      "d": 179.6875,
      "v": 71
    },
    {
      "midi": 43,
      "hit": false,
      "t": 108187.5,
      "d": 179.6875,
      "v": 76
    },
    {
      "midi": 67,
      "hit": false,
      "t": 108375,
      "d": 367.1875,
      "v": 82
    },
    {
      "midi": 47,
      "hit": false,
      "t": 108375,
      "d": 179.6875,
      "v": 80
    },
    {
      "midi": 52,
      "hit": false,
      "t": 108562.5,
      "d": 367.1875,
      "v": 77
    },
    {
      "midi": 74,
      "hit": false,
      "t": 108750,
      "d": 179.6875,
      "v": 93
    },
    {
      "midi": 71,
      "hit": false,
      "t": 108937.5,
      "d": 179.6875,
      "v": 70
    },
    {
      "midi": 47,
      "hit": false,
      "t": 108937.5,
      "d": 179.6875,
      "v": 74
    },
    {
      "midi": 67,
      "hit": false,
      "t": 109125,
      "d": 179.6875,
      "v": 66
    },
    {
      "midi": 43,
      "hit": false,
      "t": 109125,
      "d": 179.6875,
      "v": 74
    },
    {
      "midi": 66,
      "hit": false,
      "t": 109312.5,
      "d": 554.6875,
      "v": 79
    },
    {
      "midi": 40,
      "hit": false,
      "t": 109312.5,
      "d": 179.6875,
      "v": 73
    },
    {
      "midi": 42,
      "hit": false,
      "t": 109500,
      "d": 179.6875,
      "v": 85
    },
    {
      "midi": 45,
      "hit": false,
      "t": 109687.5,
      "d": 179.6875,
      "v": 75
    },
    {
      "midi": 78,
      "hit": false,
      "t": 109875,
      "d": 179.6875,
      "v": 95
    },
    {
      "midi": 50,
      "hit": false,
      "t": 109875,
      "d": 179.6875,
      "v": 80
    },
    {
      "midi": 74,
      "hit": false,
      "t": 110062.5,
      "d": 367.1875,
      "v": 70
    },
    {
      "midi": 43,
      "hit": false,
      "t": 110062.5,
      "d": 179.6875,
      "v": 71
    },
    {
      "midi": 47,
      "hit": false,
      "t": 110250,
      "d": 179.6875,
      "v": 78
    },
    {
      "midi": 71,
      "hit": false,
      "t": 110437.5,
      "d": 179.6875,
      "v": 72
    },
    {
      "midi": 50,
      "hit": false,
      "t": 110437.5,
      "d": 179.6875,
      "v": 81
    },
    {
      "midi": 74,
      "hit": false,
      "t": 110625,
      "d": 179.6875,
      "v": 82
    },
    {
      "midi": 45,
      "hit": false,
      "t": 110625,
      "d": 179.6875,
      "v": 71
    },
    {
      "midi": 66,
      "hit": false,
      "t": 110812.5,
      "d": 554.6875,
      "v": 62
    },
    {
      "midi": 50,
      "hit": false,
      "t": 110812.5,
      "d": 179.6875,
      "v": 80
    },
    {
      "midi": 42,
      "hit": false,
      "t": 111000,
      "d": 179.6875,
      "v": 69
    },
    {
      "midi": 45,
      "hit": false,
      "t": 111187.5,
      "d": 179.6875,
      "v": 77
    },
    {
      "midi": 78,
      "hit": false,
      "t": 111375,
      "d": 179.6875,
      "v": 98
    },
    {
      "midi": 50,
      "hit": false,
      "t": 111375,
      "d": 179.6875,
      "v": 86
    },
    {
      "midi": 74,
      "hit": false,
      "t": 111562.5,
      "d": 367.1875,
      "v": 69
    },
    {
      "midi": 43,
      "hit": false,
      "t": 111562.5,
      "d": 179.6875,
      "v": 68
    },
    {
      "midi": 47,
      "hit": false,
      "t": 111750,
      "d": 179.6875,
      "v": 77
    },
    {
      "midi": 71,
      "hit": false,
      "t": 111937.5,
      "d": 179.6875,
      "v": 68
    },
    {
      "midi": 50,
      "hit": false,
      "t": 111937.5,
      "d": 179.6875,
      "v": 79
    },
    {
      "midi": 74,
      "hit": false,
      "t": 112125,
      "d": 179.6875,
      "v": 83
    },
    {
      "midi": 45,
      "hit": false,
      "t": 112125,
      "d": 179.6875,
      "v": 71
    },
    {
      "midi": 66,
      "hit": false,
      "t": 112312.5,
      "d": 554.6875,
      "v": 61
    },
    {
      "midi": 50,
      "hit": false,
      "t": 112312.5,
      "d": 179.6875,
      "v": 82
    },
    {
      "midi": 42,
      "hit": false,
      "t": 112500,
      "d": 179.6875,
      "v": 66
    },
    {
      "midi": 45,
      "hit": false,
      "t": 112687.5,
      "d": 179.6875,
      "v": 78
    },
    {
      "midi": 78,
      "hit": false,
      "t": 112875,
      "d": 179.6875,
      "v": 97
    },
    {
      "midi": 50,
      "hit": false,
      "t": 112875,
      "d": 179.6875,
      "v": 83
    },
    {
      "midi": 74,
      "hit": false,
      "t": 113062.5,
      "d": 367.1875,
      "v": 69
    },
    {
      "midi": 43,
      "hit": false,
      "t": 113062.5,
      "d": 179.6875,
      "v": 72
    },
    {
      "midi": 47,
      "hit": false,
      "t": 113250,
      "d": 179.6875,
      "v": 83
    },
    {
      "midi": 71,
      "hit": false,
      "t": 113437.5,
      "d": 179.6875,
      "v": 67
    },
    {
      "midi": 50,
      "hit": false,
      "t": 113437.5,
      "d": 179.6875,
      "v": 80
    },
    {
      "midi": 74,
      "hit": false,
      "t": 113625,
      "d": 179.6875,
      "v": 80
    },
    {
      "midi": 45,
      "hit": false,
      "t": 113625,
      "d": 179.6875,
      "v": 70
    },
    {
      "midi": 66,
      "hit": false,
      "t": 113812.5,
      "d": 179.6875,
      "v": 63
    },
    {
      "midi": 50,
      "hit": false,
      "t": 113812.5,
      "d": 179.6875,
      "v": 82
    },
    {
      "midi": 62,
      "hit": false,
      "t": 114000,
      "d": 2992.1875,
      "v": 77
    },
    {
      "midi": 67,
      "hit": false,
      "t": 114000,
      "d": 2992.1875,
      "v": 77
    },
    {
      "midi": 43,
      "hit": false,
      "t": 114000,
      "d": 2992.1875,
      "v": 82
    },
    {
      "midi": 50,
      "hit": false,
      "t": 114000,
      "d": 2992.1875,
      "v": 82
    },
    {
      "midi": 55,
      "hit": false,
      "t": 114000,
      "d": 2992.1875,
      "v": 82
    }
  ]
}