{
  "jsonPath": "Pop/Deep Adult Standards/Ronnie Dove/to-each-his-own.json",
  "path": "Pop\\Deep Adult Standards\\Ronnie Dove\\To Each His Own.mid",
  "name": "To Each His Own",
  "difficulty": "Advanced",
  "bpm": 69.99998833333528,
  "notes": [
    {
      "midi": 57,
      "hit": false,
      "t": 3428.5719999999997,
      "d": 1714.2859999999996,
      "v": 85
    },
    {
      "midi": 60,
      "hit": false,
      "t": 3428.5719999999997,
      "d": 1714.2859999999996,
      "v": 85
    },
    {
      "midi": 65,
      "hit": false,
      "t": 3428.5719999999997,
      "d": 1714.2859999999996,
      "v": 85
    },
    {
      "midi": 60,
      "hit": false,
      "t": 5142.857999999999,
      "d": 1714.286,
      "v": 85
    },
    {
      "midi": 63,
      "hit": false,
      "t": 5142.857999999999,
      "d": 1714.286,
      "v": 85
    },
    {
      "midi": 66,
      "hit": false,
      "t": 5142.857999999999,
      "d": 1714.286,
      "v": 85
    },
    {
      "midi": 69,
      "hit": false,
      "t": 5142.857999999999,
      "d": 1714.286,
      "v": 85
    },
    {
      "midi": 62,
      "hit": false,
      "t": 6857.143999999999,
      "d": 1714.2859999999991,
      "v": 85
    },
    {
      "midi": 67,
      "hit": false,
      "t": 6857.143999999999,
      "d": 1714.2859999999991,
      "v": 85
    },
    {
      "midi": 70,
      "hit": false,
      "t": 6857.143999999999,
      "d": 1714.2859999999991,
      "v": 85
    },
    {
      "midi": 58,
      "hit": false,
      "t": 8571.429999999998,
      "d": 1714.286,
      "v": 85
    },
    {
      "midi": 60,
      "hit": false,
      "t": 8571.429999999998,
      "d": 1714.286,
      "v": 85
    },
    {
      "midi": 64,
      "hit": false,
      "t": 8571.429999999998,
      "d": 1714.286,
      "v": 85
    },
    {
      "midi": 67,
      "hit": false,
      "t": 8571.429999999998,
      "d": 1714.286,
      "v": 85
    },
    {
      "midi": 57,
      "hit": false,
      "t": 10285.715999999999,
      "d": 1714.286,
      "v": 85
    },
    {
      "midi": 60,
      "hit": false,
      "t": 10285.715999999999,
      "d": 1714.286,
      "v": 85
    },
    {
      "midi": 65,
      "hit": false,
      "t": 10285.715999999999,
      "d": 1714.286,
      "v": 85
    },
    {
      "midi": 57,
      "hit": false,
      "t": 12000.001999999999,
      "d": 1714.286,
      "v": 85
    },
    {
      "midi": 62,
      "hit": false,
      "t": 12000.001999999999,
      "d": 1714.286,
      "v": 85
    },
    {
      "midi": 65,
      "hit": false,
      "t": 12000.001999999999,
      "d": 1714.286,
      "v": 85
    },
    {
      "midi": 57,
      "hit": false,
      "t": 13714.287999999999,
      "d": 1714.286,
      "v": 85
    },
    {
      "midi": 60,
      "hit": false,
      "t": 13714.287999999999,
      "d": 1714.286,
      "v": 85
    },
    {
      "midi": 65,
      "hit": false,
      "t": 13714.287999999999,
      "d": 1714.286,
      "v": 85
    },
    {
      "midi": 57,
      "hit": false,
      "t": 15428.573999999999,
      "d": 1714.2859999999982,
      "v": 85
    },
    {
      "midi": 62,
      "hit": false,
      "t": 15428.573999999999,
      "d": 1714.2859999999982,
      "v": 85
    },
    {
      "midi": 65,
      "hit": false,
      "t": 15428.573999999999,
      "d": 1714.2859999999982,
      "v": 85
    },
    {
      "midi": 57,
      "hit": false,
      "t": 17142.859999999997,
      "d": 3428.572,
      "v": 85
    },
    {
      "midi": 60,
      "hit": false,
      "t": 17142.859999999997,
      "d": 3428.572,
      "v": 85
    },
    {
      "midi": 65,
      "hit": false,
      "t": 17142.859999999997,
      "d": 3428.572,
      "v": 85
    },
    {
      "midi": 52,
      "hit": false,
      "t": 20571.431999999997,
      "d": 892.8572916666672,
      "v": 86
    },
    {
      "midi": 58,
      "hit": false,
      "t": 20571.431999999997,
      "d": 892.8572916666672,
      "v": 86
    },
    {
      "midi": 62,
      "hit": false,
      "t": 20571.431999999997,
      "d": 892.8572916666672,
      "v": 86
    },
    {
      "midi": 69,
      "hit": false,
      "t": 20571.431999999997,
      "d": 892.8572916666672,
      "v": 86
    },
    {
      "midi": 58,
      "hit": false,
      "t": 21714.28933333333,
      "d": 407.1429250000001,
      "v": 82
    },
    {
      "midi": 60,
      "hit": false,
      "t": 21714.28933333333,
      "d": 407.1429250000001,
      "v": 82
    },
    {
      "midi": 64,
      "hit": false,
      "t": 21714.28933333333,
      "d": 407.1429250000001,
      "v": 82
    },
    {
      "midi": 67,
      "hit": false,
      "t": 21714.28933333333,
      "d": 407.1429250000001,
      "v": 82
    },
    {
      "midi": 52,
      "hit": false,
      "t": 22285.717999999997,
      "d": 1521.428824999999,
      "v": 89
    },
    {
      "midi": 58,
      "hit": false,
      "t": 22285.717999999997,
      "d": 1521.428824999999,
      "v": 89
    },
    {
      "midi": 62,
      "hit": false,
      "t": 22285.717999999997,
      "d": 1521.428824999999,
      "v": 89
    },
    {
      "midi": 69,
      "hit": false,
      "t": 22285.717999999997,
      "d": 1521.428824999999,
      "v": 89
    },
    {
      "midi": 58,
      "hit": false,
      "t": 24000.003999999997,
      "d": 3407.143425000002,
      "v": 93
    },
    {
      "midi": 60,
      "hit": false,
      "t": 24000.003999999997,
      "d": 3407.143425000002,
      "v": 93
    },
    {
      "midi": 64,
      "hit": false,
      "t": 24000.003999999997,
      "d": 3407.143425000002,
      "v": 93
    },
    {
      "midi": 72,
      "hit": false,
      "t": 26285.718666666664,
      "d": 378.5714916666657,
      "v": 90
    },
    {
      "midi": 76,
      "hit": false,
      "t": 26571.432999999997,
      "d": 407.1429250000001,
      "v": 86
    },
    {
      "midi": 72,
      "hit": false,
      "t": 26857.14733333333,
      "d": 357.1429166666676,
      "v": 79
    },
    {
      "midi": 67,
      "hit": false,
      "t": 27142.861666666664,
      "d": 264.28575833333525,
      "v": 86
    },
    {
      "midi": 67,
      "hit": false,
      "t": 27428.576,
      "d": 135.71430833333216,
      "v": 88
    },
    {
      "midi": 58,
      "hit": false,
      "t": 27428.576,
      "d": 3428.572,
      "v": 88
    },
    {
      "midi": 60,
      "hit": false,
      "t": 27428.576,
      "d": 3428.572,
      "v": 88
    },
    {
      "midi": 64,
      "hit": false,
      "t": 27428.576,
      "d": 3428.572,
      "v": 88
    },
    {
      "midi": 72,
      "hit": false,
      "t": 29714.290666666668,
      "d": 371.428633333333,
      "v": 90
    },
    {
      "midi": 76,
      "hit": false,
      "t": 30000.005,
      "d": 392.8572083333347,
      "v": 84
    },
    {
      "midi": 72,
      "hit": false,
      "t": 30285.719333333334,
      "d": 371.428633333333,
      "v": 78
    },
    {
      "midi": 67,
      "hit": false,
      "t": 30571.433666666668,
      "d": 285.71433333333334,
      "v": 85
    },
    {
      "midi": 52,
      "hit": false,
      "t": 30857.148,
      "d": 892.8572916666672,
      "v": 86
    },
    {
      "midi": 55,
      "hit": false,
      "t": 30857.148,
      "d": 892.8572916666672,
      "v": 86
    },
    {
      "midi": 58,
      "hit": false,
      "t": 30857.148,
      "d": 892.8572916666672,
      "v": 86
    },
    {
      "midi": 60,
      "hit": false,
      "t": 30857.148,
      "d": 892.8572916666672,
      "v": 86
    },
    {
      "midi": 58,
      "hit": false,
      "t": 32000.005333333334,
      "d": 407.1429250000001,
      "v": 82
    },
    {
      "midi": 60,
      "hit": false,
      "t": 32000.005333333334,
      "d": 407.1429250000001,
      "v": 82
    },
    {
      "midi": 64,
      "hit": false,
      "t": 32000.005333333334,
      "d": 407.1429250000001,
      "v": 82
    },
    {
      "midi": 67,
      "hit": false,
      "t": 32000.005333333334,
      "d": 407.1429250000001,
      "v": 82
    },
    {
      "midi": 52,
      "hit": false,
      "t": 32571.434,
      "d": 1521.4288250000027,
      "v": 89
    },
    {
      "midi": 55,
      "hit": false,
      "t": 32571.434,
      "d": 1521.4288250000027,
      "v": 89
    },
    {
      "midi": 58,
      "hit": false,
      "t": 32571.434,
      "d": 1521.4288250000027,
      "v": 89
    },
    {
      "midi": 60,
      "hit": false,
      "t": 32571.434,
      "d": 1521.4288250000027,
      "v": 89
    },
    {
      "midi": 57,
      "hit": false,
      "t": 34285.72,
      "d": 1714.286,
      "v": 85
    },
    {
      "midi": 60,
      "hit": false,
      "t": 34285.72,
      "d": 1714.286,
      "v": 85
    },
    {
      "midi": 65,
      "hit": false,
      "t": 34285.72,
      "d": 1714.286,
      "v": 85
    },
    {
      "midi": 62,
      "hit": false,
      "t": 36000.006,
      "d": 857.1429999999964,
      "v": 85
    },
    {
      "midi": 67,
      "hit": false,
      "t": 36000.006,
      "d": 857.1429999999964,
      "v": 85
    },
    {
      "midi": 70,
      "hit": false,
      "t": 36000.006,
      "d": 857.1429999999964,
      "v": 85
    },
    {
      "midi": 58,
      "hit": false,
      "t": 36857.149,
      "d": 857.1429999999964,
      "v": 85
    },
    {
      "midi": 60,
      "hit": false,
      "t": 36857.149,
      "d": 857.1429999999964,
      "v": 85
    },
    {
      "midi": 64,
      "hit": false,
      "t": 36857.149,
      "d": 857.1429999999964,
      "v": 85
    },
    {
      "midi": 67,
      "hit": false,
      "t": 36857.149,
      "d": 857.1429999999964,
      "v": 85
    },
    {
      "midi": 57,
      "hit": false,
      "t": 37714.291999999994,
      "d": 1714.286,
      "v": 85
    },
    {
      "midi": 60,
      "hit": false,
      "t": 37714.291999999994,
      "d": 1714.286,
      "v": 85
    },
    {
      "midi": 65,
      "hit": false,
      "t": 37714.291999999994,
      "d": 1714.286,
      "v": 85
    },
    {
      "midi": 57,
      "hit": false,
      "t": 39428.577999999994,
      "d": 1714.286,
      "v": 85
    },
    {
      "midi": 62,
      "hit": false,
      "t": 39428.577999999994,
      "d": 1714.286,
      "v": 85
    },
    {
      "midi": 65,
      "hit": false,
      "t": 39428.577999999994,
      "d": 1714.286,
      "v": 85
    },
    {
      "midi": 57,
      "hit": false,
      "t": 41142.863999999994,
      "d": 1714.286,
      "v": 85
    },
    {
      "midi": 60,
      "hit": false,
      "t": 41142.863999999994,
      "d": 1714.286,
      "v": 85
    },
    {
      "midi": 65,
      "hit": false,
      "t": 41142.863999999994,
      "d": 1714.286,
      "v": 85
    },
    {
      "midi": 57,
      "hit": false,
      "t": 42857.149999999994,
      "d": 1714.286,
      "v": 85
    },
    {
      "midi": 62,
      "hit": false,
      "t": 42857.149999999994,
      "d": 1714.286,
      "v": 85
    },
    {
      "midi": 65,
      "hit": false,
      "t": 42857.149999999994,
      "d": 1714.286,
      "v": 85
    },
    {
      "midi": 57,
      "hit": false,
      "t": 44571.435999999994,
      "d": 3428.572,
      "v": 85
    },
    {
      "midi": 60,
      "hit": false,
      "t": 44571.435999999994,
      "d": 3428.572,
      "v": 85
    },
    {
      "midi": 65,
      "hit": false,
      "t": 44571.435999999994,
      "d": 3428.572,
      "v": 85
    },
    {
      "midi": 58,
      "hit": false,
      "t": 48000.007999999994,
      "d": 892.8572916666672,
      "v": 86
    },
    {
      "midi": 60,
      "hit": false,
      "t": 48000.007999999994,
      "d": 892.8572916666672,
      "v": 86
    },
    {
      "midi": 64,
      "hit": false,
      "t": 48000.007999999994,
      "d": 892.8572916666672,
      "v": 86
    },
    {
      "midi": 67,
      "hit": false,
      "t": 48000.007999999994,
      "d": 892.8572916666672,
      "v": 86
    },
    {
      "midi": 58,
      "hit": false,
      "t": 49142.86533333333,
      "d": 407.1429250000001,
      "v": 82
    },
    {
      "midi": 60,
      "hit": false,
      "t": 49142.86533333333,
      "d": 407.1429250000001,
      "v": 82
    },
    {
      "midi": 64,
      "hit": false,
      "t": 49142.86533333333,
      "d": 407.1429250000001,
      "v": 82
    },
    {
      "midi": 67,
      "hit": false,
      "t": 49142.86533333333,
      "d": 407.1429250000001,
      "v": 82
    },
    {
      "midi": 58,
      "hit": false,
      "t": 49714.293999999994,
      "d": 1521.4288250000027,
      "v": 89
    },
    {
      "midi": 60,
      "hit": false,
      "t": 49714.293999999994,
      "d": 1521.4288250000027,
      "v": 89
    },
    {
      "midi": 64,
      "hit": false,
      "t": 49714.293999999994,
      "d": 1521.4288250000027,
      "v": 89
    },
    {
      "midi": 67,
      "hit": false,
      "t": 49714.293999999994,
      "d": 1521.4288250000027,
      "v": 89
    },
    {
      "midi": 58,
      "hit": false,
      "t": 51428.579999999994,
      "d": 3407.1434249999875,
      "v": 93
    },
    {
      "midi": 60,
      "hit": false,
      "t": 51428.579999999994,
      "d": 3407.1434249999875,
      "v": 93
    },
    {
      "midi": 64,
      "hit": false,
      "t": 51428.579999999994,
      "d": 3407.1434249999875,
      "v": 93
    },
    {
      "midi": 72,
      "hit": false,
      "t": 53714.29466666666,
      "d": 378.57149166666204,
      "v": 90
    },
    {
      "midi": 76,
      "hit": false,
      "t": 54000.00899999999,
      "d": 407.14292499999283,
      "v": 86
    },
    {
      "midi": 72,
      "hit": false,
      "t": 54285.72333333332,
      "d": 357.14291666666395,
      "v": 79
    },
    {
      "midi": 67,
      "hit": false,
      "t": 54571.43766666665,
      "d": 264.2857583333316,
      "v": 86
    },
    {
      "midi": 67,
      "hit": false,
      "t": 54857.15199999998,
      "d": 135.7143083333358,
      "v": 88
    },
    {
      "midi": 58,
      "hit": false,
      "t": 54857.15199999998,
      "d": 3428.5719999999856,
      "v": 88
    },
    {
      "midi": 60,
      "hit": false,
      "t": 54857.15199999998,
      "d": 3428.5719999999856,
      "v": 88
    },
    {
      "midi": 64,
      "hit": false,
      "t": 54857.15199999998,
      "d": 3428.5719999999856,
      "v": 88
    },
    {
      "midi": 72,
      "hit": false,
      "t": 57142.86666666665,
      "d": 371.42863333332934,
      "v": 90
    },
    {
      "midi": 76,
      "hit": false,
      "t": 57428.58099999998,
      "d": 392.85720833332743,
      "v": 84
    },
    {
      "midi": 72,
      "hit": false,
      "t": 57714.295333333306,
      "d": 371.42863333332934,
      "v": 78
    },
    {
      "midi": 67,
      "hit": false,
      "t": 58000.009666666636,
      "d": 285.7143333333297,
      "v": 85
    },
    {
      "midi": 58,
      "hit": false,
      "t": 58285.723999999966,
      "d": 3428.572,
      "v": 85
    },
    {
      "midi": 60,
      "hit": false,
      "t": 58285.723999999966,
      "d": 3428.572,
      "v": 85
    },
    {
      "midi": 64,
      "hit": false,
      "t": 58285.723999999966,
      "d": 3428.572,
      "v": 85
    },
    {
      "midi": 67,
      "hit": false,
      "t": 58285.723999999966,
      "d": 3428.572,
      "v": 85
    },
    {
      "midi": 57,
      "hit": false,
      "t": 61714.295999999966,
      "d": 3428.572,
      "v": 85
    },
    {
      "midi": 60,
      "hit": false,
      "t": 61714.295999999966,
      "d": 3428.572,
      "v": 85
    },
    {
      "midi": 65,
      "hit": false,
      "t": 61714.295999999966,
      "d": 3428.572,
      "v": 85
    },
    {
      "midi": 58,
      "hit": false,
      "t": 65142.867999999966,
      "d": 3407.1434249999947,
      "v": 93
    },
    {
      "midi": 62,
      "hit": false,
      "t": 65142.867999999966,
      "d": 3407.1434249999947,
      "v": 93
    },
    {
      "midi": 74,
      "hit": false,
      "t": 67428.58266666663,
      "d": 378.5714916666766,
      "v": 90
    },
    {
      "midi": 77,
      "hit": false,
      "t": 67714.29699999996,
      "d": 407.1429250000074,
      "v": 86
    },
    {
      "midi": 74,
      "hit": false,
      "t": 68000.0113333333,
      "d": 357.14291666666395,
      "v": 79
    },
    {
      "midi": 65,
      "hit": false,
      "t": 68285.72566666664,
      "d": 264.28575833332434,
      "v": 86
    },
    {
      "midi": 65,
      "hit": false,
      "t": 68571.43999999996,
      "d": 135.7143083333358,
      "v": 88
    },
    {
      "midi": 58,
      "hit": false,
      "t": 68571.43999999996,
      "d": 3428.5720000000147,
      "v": 88
    },
    {
      "midi": 62,
      "hit": false,
      "t": 68571.43999999996,
      "d": 3428.5720000000147,
      "v": 88
    },
    {
      "midi": 74,
      "hit": false,
      "t": 70857.15466666663,
      "d": 371.4286333333439,
      "v": 90
    },
    {
      "midi": 77,
      "hit": false,
      "t": 71142.86899999996,
      "d": 392.857208333342,
      "v": 84
    },
    {
      "midi": 74,
      "hit": false,
      "t": 71428.5833333333,
      "d": 371.4286333333439,
      "v": 78
    },
    {
      "midi": 65,
      "hit": false,
      "t": 71714.29766666664,
      "d": 285.714333333337,
      "v": 85
    },
    {
      "midi": 55,
      "hit": false,
      "t": 72000.01199999997,
      "d": 892.8572916666599,
      "v": 86
    },
    {
      "midi": 57,
      "hit": false,
      "t": 72000.01199999997,
      "d": 892.8572916666599,
      "v": 86
    },
    {
      "midi": 60,
      "hit": false,
      "t": 72000.01199999997,
      "d": 892.8572916666599,
      "v": 86
    },
    {
      "midi": 64,
      "hit": false,
      "t": 72000.01199999997,
      "d": 892.8572916666599,
      "v": 86
    },
    {
      "midi": 60,
      "hit": false,
      "t": 73142.8693333333,
      "d": 407.14292499999283,
      "v": 82
    },
    {
      "midi": 64,
      "hit": false,
      "t": 73142.8693333333,
      "d": 407.14292499999283,
      "v": 82
    },
    {
      "midi": 67,
      "hit": false,
      "t": 73142.8693333333,
      "d": 407.14292499999283,
      "v": 82
    },
    {
      "midi": 69,
      "hit": false,
      "t": 73142.8693333333,
      "d": 407.14292499999283,
      "v": 82
    },
    {
      "midi": 55,
      "hit": false,
      "t": 73714.29799999997,
      "d": 1521.4288249999954,
      "v": 89
    },
    {
      "midi": 57,
      "hit": false,
      "t": 73714.29799999997,
      "d": 1521.4288249999954,
      "v": 89
    },
    {
      "midi": 60,
      "hit": false,
      "t": 73714.29799999997,
      "d": 1521.4288249999954,
      "v": 89
    },
    {
      "midi": 64,
      "hit": false,
      "t": 73714.29799999997,
      "d": 1521.4288249999954,
      "v": 89
    },
    {
      "midi": 54,
      "hit": false,
      "t": 75428.58399999996,
      "d": 892.8572916666599,
      "v": 86
    },
    {
      "midi": 60,
      "hit": false,
      "t": 75428.58399999996,
      "d": 892.8572916666599,
      "v": 86
    },
    {
      "midi": 63,
      "hit": false,
      "t": 75428.58399999996,
      "d": 892.8572916666599,
      "v": 86
    },
    {
      "midi": 70,
      "hit": false,
      "t": 75428.58399999996,
      "d": 892.8572916666599,
      "v": 86
    },
    {
      "midi": 60,
      "hit": false,
      "t": 76571.44133333329,
      "d": 407.14292499999283,
      "v": 82
    },
    {
      "midi": 62,
      "hit": false,
      "t": 76571.44133333329,
      "d": 407.14292499999283,
      "v": 82
    },
    {
      "midi": 66,
      "hit": false,
      "t": 76571.44133333329,
      "d": 407.14292499999283,
      "v": 82
    },
    {
      "midi": 69,
      "hit": false,
      "t": 76571.44133333329,
      "d": 407.14292499999283,
      "v": 82
    },
    {
      "midi": 54,
      "hit": false,
      "t": 77142.86999999995,
      "d": 1521.4288249999954,
      "v": 89
    },
    {
      "midi": 60,
      "hit": false,
      "t": 77142.86999999995,
      "d": 1521.4288249999954,
      "v": 89
    },
    {
      "midi": 63,
      "hit": false,
      "t": 77142.86999999995,
      "d": 1521.4288249999954,
      "v": 89
    },
    {
      "midi": 70,
      "hit": false,
      "t": 77142.86999999995,
      "d": 1521.4288249999954,
      "v": 89
    },
    {
      "midi": 55,
      "hit": false,
      "t": 78857.15599999994,
      "d": 3407.143425000002,
      "v": 93
    },
    {
      "midi": 59,
      "hit": false,
      "t": 78857.15599999994,
      "d": 3407.143425000002,
      "v": 93
    },
    {
      "midi": 62,
      "hit": false,
      "t": 78857.15599999994,
      "d": 3407.143425000002,
      "v": 93
    },
    {
      "midi": 79,
      "hit": false,
      "t": 81142.87066666661,
      "d": 378.5714916666766,
      "v": 90
    },
    {
      "midi": 83,
      "hit": false,
      "t": 81428.58499999995,
      "d": 407.1429250000074,
      "v": 86
    },
    {
      "midi": 79,
      "hit": false,
      "t": 81714.29933333329,
      "d": 357.14291666666395,
      "v": 79
    },
    {
      "midi": 71,
      "hit": false,
      "t": 82000.01366666662,
      "d": 421.4286416666582,
      "v": 86
    },
    {
      "midi": 55,
      "hit": false,
      "t": 82285.72799999994,
      "d": 3428.5720000000147,
      "v": 88
    },
    {
      "midi": 59,
      "hit": false,
      "t": 82285.72799999994,
      "d": 3428.5720000000147,
      "v": 88
    },
    {
      "midi": 62,
      "hit": false,
      "t": 82285.72799999994,
      "d": 3428.5720000000147,
      "v": 88
    },
    {
      "midi": 79,
      "hit": false,
      "t": 84571.44266666661,
      "d": 371.4286333333439,
      "v": 90
    },
    {
      "midi": 83,
      "hit": false,
      "t": 84857.15699999995,
      "d": 392.857208333342,
      "v": 84
    },
    {
      "midi": 79,
      "hit": false,
      "t": 85142.87133333329,
      "d": 371.4286333333439,
      "v": 78
    },
    {
      "midi": 71,
      "hit": false,
      "t": 85428.58566666662,
      "d": 285.714333333337,
      "v": 85
    },
    {
      "midi": 55,
      "hit": false,
      "t": 85714.29999999996,
      "d": 1714.2859999999928,
      "v": 85
    },
    {
      "midi": 59,
      "hit": false,
      "t": 85714.29999999996,
      "d": 1714.2859999999928,
      "v": 85
    },
    {
      "midi": 62,
      "hit": false,
      "t": 85714.29999999996,
      "d": 1714.2859999999928,
      "v": 85
    },
    {
      "midi": 59,
      "hit": false,
      "t": 87428.58599999995,
      "d": 1714.2859999999928,
      "v": 85
    },
    {
      "midi": 62,
      "hit": false,
      "t": 87428.58599999995,
      "d": 1714.2859999999928,
      "v": 85
    },
    {
      "midi": 65,
      "hit": false,
      "t": 87428.58599999995,
      "d": 1714.2859999999928,
      "v": 85
    },
    {
      "midi": 67,
      "hit": false,
      "t": 87428.58599999995,
      "d": 1714.2859999999928,
      "v": 85
    },
    {
      "midi": 52,
      "hit": false,
      "t": 89142.87199999994,
      "d": 892.8572916666599,
      "v": 86
    },
    {
      "midi": 58,
      "hit": false,
      "t": 89142.87199999994,
      "d": 892.8572916666599,
      "v": 86
    },
    {
      "midi": 61,
      "hit": false,
      "t": 89142.87199999994,
      "d": 892.8572916666599,
      "v": 86
    },
    {
      "midi": 67,
      "hit": false,
      "t": 89142.87199999994,
      "d": 892.8572916666599,
      "v": 86
    },
    {
      "midi": 58,
      "hit": false,
      "t": 90285.72933333328,
      "d": 407.14292499999283,
      "v": 82
    },
    {
      "midi": 60,
      "hit": false,
      "t": 90285.72933333328,
      "d": 407.14292499999283,
      "v": 82
    },
    {
      "midi": 64,
      "hit": false,
      "t": 90285.72933333328,
      "d": 407.14292499999283,
      "v": 82
    },
    {
      "midi": 67,
      "hit": false,
      "t": 90285.72933333328,
      "d": 407.14292499999283,
      "v": 82
    },
    {
      "midi": 52,
      "hit": false,
      "t": 90857.15799999994,
      "d": 1521.4288249999954,
      "v": 89
    },
    {
      "midi": 58,
      "hit": false,
      "t": 90857.15799999994,
      "d": 1521.4288249999954,
      "v": 89
    },
    {
      "midi": 61,
      "hit": false,
      "t": 90857.15799999994,
      "d": 1521.4288249999954,
      "v": 89
    },
    {
      "midi": 67,
      "hit": false,
      "t": 90857.15799999994,
      "d": 1521.4288249999954,
      "v": 89
    },
    {
      "midi": 57,
      "hit": false,
      "t": 92571.44399999993,
      "d": 1714.2859999999928,
      "v": 90
    },
    {
      "midi": 60,
      "hit": false,
      "t": 92571.44399999993,
      "d": 1714.2859999999928,
      "v": 90
    },
    {
      "midi": 65,
      "hit": false,
      "t": 92571.44399999993,
      "d": 1714.2859999999928,
      "v": 90
    },
    {
      "midi": 57,
      "hit": false,
      "t": 94285.72999999992,
      "d": 457.14293333333626,
      "v": 91
    },
    {
      "midi": 62,
      "hit": false,
      "t": 94285.72999999992,
      "d": 457.14293333333626,
      "v": 91
    },
    {
      "midi": 65,
      "hit": false,
      "t": 94285.72999999992,
      "d": 457.14293333333626,
      "v": 91
    },
    {
      "midi": 57,
      "hit": false,
      "t": 94857.1586666666,
      "d": 1142.857333333348,
      "v": 103
    },
    {
      "midi": 62,
      "hit": false,
      "t": 94857.1586666666,
      "d": 1142.857333333348,
      "v": 103
    },
    {
      "midi": 65,
      "hit": false,
      "t": 94857.1586666666,
      "d": 1142.857333333348,
      "v": 103
    },
    {
      "midi": 74,
      "hit": false,
      "t": 95428.58733333327,
      "d": 571.428666666674,
      "v": 81
    },
    {
      "midi": 69,
      "hit": false,
      "t": 95714.30166666661,
      "d": 285.714333333337,
      "v": 88
    },
    {
      "midi": 57,
      "hit": false,
      "t": 96000.01599999995,
      "d": 1714.2859999999928,
      "v": 90
    },
    {
      "midi": 60,
      "hit": false,
      "t": 96000.01599999995,
      "d": 1714.2859999999928,
      "v": 90
    },
    {
      "midi": 65,
      "hit": false,
      "t": 96000.01599999995,
      "d": 1714.2859999999928,
      "v": 90
    },
    {
      "midi": 57,
      "hit": false,
      "t": 97714.30199999994,
      "d": 457.14293333333626,
      "v": 91
    },
    {
      "midi": 62,
      "hit": false,
      "t": 97714.30199999994,
      "d": 457.14293333333626,
      "v": 91
    },
    {
      "midi": 65,
      "hit": false,
      "t": 97714.30199999994,
      "d": 457.14293333333626,
      "v": 91
    },
    {
      "midi": 57,
      "hit": false,
      "t": 98285.73066666661,
      "d": 1142.857333333348,
      "v": 103
    },
    {
      "midi": 62,
      "hit": false,
      "t": 98285.73066666661,
      "d": 1142.857333333348,
      "v": 103
    },
    {
      "midi": 65,
      "hit": false,
      "t": 98285.73066666661,
      "d": 1142.857333333348,
      "v": 103
    },
    {
      "midi": 74,
      "hit": false,
      "t": 98857.15933333329,
      "d": 571.428666666674,
      "v": 81
    },
    {
      "midi": 69,
      "hit": false,
      "t": 99142.87366666662,
      "d": 285.714333333337,
      "v": 88
    },
    {
      "midi": 57,
      "hit": false,
      "t": 99428.58799999996,
      "d": 3285.7148333333316,
      "v": 103
    },
    {
      "midi": 60,
      "hit": false,
      "t": 99428.58799999996,
      "d": 3285.7148333333316,
      "v": 103
    },
    {
      "midi": 65,
      "hit": false,
      "t": 99428.58799999996,
      "d": 3285.7148333333316,
      "v": 103
    },
    {
      "midi": 69,
      "hit": false,
      "t": 101428.58833333329,
      "d": 307.1429083333351,
      "v": 92
    },
    {
      "midi": 72,
      "hit": false,
      "t": 101714.30266666663,
      "d": 335.71434166666586,
      "v": 86
    },
    {
      "midi": 77,
      "hit": false,
      "t": 102000.01699999996,
      "d": 400.00006666666013,
      "v": 84
    },
    {
      "midi": 72,
      "hit": false,
      "t": 102285.73133333329,
      "d": 314.28576666666777,
      "v": 87
    },
    {
      "midi": 69,
      "hit": false,
      "t": 102571.44566666662,
      "d": 285.714333333337,
      "v": 93
    },
    {
      "midi": 58,
      "hit": false,
      "t": 102857.15999999996,
      "d": 3285.7148333333316,
      "v": 103
    },
    {
      "midi": 60,
      "hit": false,
      "t": 102857.15999999996,
      "d": 3285.7148333333316,
      "v": 103
    },
    {
      "midi": 64,
      "hit": false,
      "t": 104857.16033333329,
      "d": 307.1429083333351,
      "v": 92
    },
    {
      "midi": 67,
      "hit": false,
      "t": 105142.87466666663,
      "d": 335.71434166666586,
      "v": 86
    },
    {
      "midi": 72,
      "hit": false,
      "t": 105428.58899999996,
      "d": 400.00006666666013,
      "v": 84
    },
    {
      "midi": 67,
      "hit": false,
      "t": 105714.30333333329,
      "d": 314.28576666666777,
      "v": 87
    },
    {
      "midi": 64,
      "hit": false,
      "t": 106000.01766666662,
      "d": 142.8571666666685,
      "v": 93
    },
    {
      "midi": 48,
      "hit": false,
      "t": 106285.73199999996,
      "d": 3235.714825000032,
      "v": 90
    },
    {
      "midi": 55,
      "hit": false,
      "t": 106571.4463333333,
      "d": 3000.0005000000237,
      "v": 83
    },
    {
      "midi": 58,
      "hit": false,
      "t": 106857.16066666663,
      "d": 764.2858416666713,
      "v": 91
    },
    {
      "midi": 60,
      "hit": false,
      "t": 106857.16066666663,
      "d": 764.2858416666713,
      "v": 91
    },
    {
      "midi": 64,
      "hit": false,
      "t": 106857.16066666663,
      "d": 764.2858416666713,
      "v": 91
    },
    {
      "midi": 67,
      "hit": false,
      "t": 106857.16066666663,
      "d": 764.2858416666713,
      "v": 91
    },
    {
      "midi": 58,
      "hit": false,
      "t": 107714.30366666664,
      "d": 200.00003333333007,
      "v": 95
    },
    {
      "midi": 60,
      "hit": false,
      "t": 107714.30366666664,
      "d": 200.00003333333007,
      "v": 95
    },
    {
      "midi": 64,
      "hit": false,
      "t": 107714.30366666664,
      "d": 200.00003333333007,
      "v": 95
    },
    {
      "midi": 67,
      "hit": false,
      "t": 107714.30366666664,
      "d": 200.00003333333007,
      "v": 95
    },
    {
      "midi": 58,
      "hit": false,
      "t": 108000.01799999998,
      "d": 392.85720833332743,
      "v": 91
    },
    {
      "midi": 60,
      "hit": false,
      "t": 108000.01799999998,
      "d": 392.85720833332743,
      "v": 91
    },
    {
      "midi": 64,
      "hit": false,
      "t": 108000.01799999998,
      "d": 392.85720833332743,
      "v": 91
    },
    {
      "midi": 67,
      "hit": false,
      "t": 108000.01799999998,
      "d": 392.85720833332743,
      "v": 91
    },
    {
      "midi": 58,
      "hit": false,
      "t": 108571.44666666664,
      "d": 435.71435833333817,
      "v": 85
    },
    {
      "midi": 60,
      "hit": false,
      "t": 108571.44666666664,
      "d": 435.71435833333817,
      "v": 85
    },
    {
      "midi": 64,
      "hit": false,
      "t": 108571.44666666664,
      "d": 435.71435833333817,
      "v": 85
    },
    {
      "midi": 67,
      "hit": false,
      "t": 108571.44666666664,
      "d": 435.71435833333817,
      "v": 85
    },
    {
      "midi": 58,
      "hit": false,
      "t": 109142.87533333332,
      "d": 135.7143083333358,
      "v": 92
    },
    {
      "midi": 60,
      "hit": false,
      "t": 109142.87533333332,
      "d": 135.7143083333358,
      "v": 92
    },
    {
      "midi": 64,
      "hit": false,
      "t": 109142.87533333332,
      "d": 135.7143083333358,
      "v": 92
    },
    {
      "midi": 67,
      "hit": false,
      "t": 109142.87533333332,
      "d": 135.7143083333358,
      "v": 92
    },
    {
      "midi": 58,
      "hit": false,
      "t": 109428.58966666665,
      "d": 585.7143833333394,
      "v": 84
    },
    {
      "midi": 60,
      "hit": false,
      "t": 109428.58966666665,
      "d": 585.7143833333394,
      "v": 84
    },
    {
      "midi": 64,
      "hit": false,
      "t": 109428.58966666665,
      "d": 585.7143833333394,
      "v": 84
    },
    {
      "midi": 67,
      "hit": false,
      "t": 109428.58966666665,
      "d": 585.7143833333394,
      "v": 84
    },
    {
      "midi": 48,
      "hit": false,
      "t": 109714.30399999999,
      "d": 2207.1432250000216,
      "v": 79
    },
    {
      "midi": 55,
      "hit": false,
      "t": 110000.01833333333,
      "d": 1978.5717583333462,
      "v": 87
    },
    {
      "midi": 58,
      "hit": false,
      "t": 110285.73266666666,
      "d": 592.857241666672,
      "v": 93
    },
    {
      "midi": 60,
      "hit": false,
      "t": 110285.73266666666,
      "d": 592.857241666672,
      "v": 93
    },
    {
      "midi": 64,
      "hit": false,
      "t": 110285.73266666666,
      "d": 592.857241666672,
      "v": 93
    },
    {
      "midi": 67,
      "hit": false,
      "t": 110285.73266666666,
      "d": 592.857241666672,
      "v": 93
    },
    {
      "midi": 58,
      "hit": false,
      "t": 111142.87566666667,
      "d": 185.71431666666467,
      "v": 95
    },
    {
      "midi": 60,
      "hit": false,
      "t": 111142.87566666667,
      "d": 185.71431666666467,
      "v": 95
    },
    {
      "midi": 64,
      "hit": false,
      "t": 111142.87566666667,
      "d": 185.71431666666467,
      "v": 95
    },
    {
      "midi": 67,
      "hit": false,
      "t": 111142.87566666667,
      "d": 185.71431666666467,
      "v": 95
    },
    {
      "midi": 58,
      "hit": false,
      "t": 111428.59000000001,
      "d": 1700.000283333342,
      "v": 96
    },
    {
      "midi": 60,
      "hit": false,
      "t": 111428.59000000001,
      "d": 1700.000283333342,
      "v": 96
    },
    {
      "midi": 67,
      "hit": false,
      "t": 112571.44733333334,
      "d": 400.0000666666747,
      "v": 90
    },
    {
      "midi": 64,
      "hit": false,
      "t": 112857.16166666668,
      "d": 264.2857583333389,
      "v": 99
    },
    {
      "midi": 48,
      "hit": false,
      "t": 113142.87600000002,
      "d": 3385.714849999975,
      "v": 96
    },
    {
      "midi": 55,
      "hit": false,
      "t": 113428.59033333336,
      "d": 3142.857666666634,
      "v": 82
    },
    {
      "midi": 58,
      "hit": false,
      "t": 113714.30466666669,
      "d": 792.8572750000021,
      "v": 88
    },
    {
      "midi": 60,
      "hit": false,
      "t": 113714.30466666669,
      "d": 792.8572750000021,
      "v": 88
    },
    {
      "midi": 64,
      "hit": false,
      "t": 113714.30466666669,
      "d": 792.8572750000021,
      "v": 88
    },
    {
      "midi": 67,
      "hit": false,
      "t": 113714.30466666669,
      "d": 792.8572750000021,
      "v": 88
    },
    {
      "midi": 58,
      "hit": false,
      "t": 114571.44766666669,
      "d": 214.28574999999546,
      "v": 95
    },
    {
      "midi": 60,
      "hit": false,
      "t": 114571.44766666669,
      "d": 214.28574999999546,
      "v": 95
    },
    {
      "midi": 64,
      "hit": false,
      "t": 114571.44766666669,
      "d": 214.28574999999546,
      "v": 95
    },
    {
      "midi": 67,
      "hit": false,
      "t": 114571.44766666669,
      "d": 214.28574999999546,
      "v": 95
    },
    {
      "midi": 58,
      "hit": false,
      "t": 114857.16200000001,
      "d": 392.85720833332743,
      "v": 82
    },
    {
      "midi": 60,
      "hit": false,
      "t": 114857.16200000001,
      "d": 392.85720833332743,
      "v": 82
    },
    {
      "midi": 64,
      "hit": false,
      "t": 114857.16200000001,
      "d": 392.85720833332743,
      "v": 82
    },
    {
      "midi": 67,
      "hit": false,
      "t": 114857.16200000001,
      "d": 392.85720833332743,
      "v": 82
    },
    {
      "midi": 58,
      "hit": false,
      "t": 115428.59066666667,
      "d": 514.2857999999978,
      "v": 94
    },
    {
      "midi": 60,
      "hit": false,
      "t": 115428.59066666667,
      "d": 514.2857999999978,
      "v": 94
    },
    {
      "midi": 64,
      "hit": false,
      "t": 115428.59066666667,
      "d": 514.2857999999978,
      "v": 94
    },
    {
      "midi": 67,
      "hit": false,
      "t": 115428.59066666667,
      "d": 514.2857999999978,
      "v": 94
    },
    {
      "midi": 58,
      "hit": false,
      "t": 116000.01933333333,
      "d": 478.57150833333435,
      "v": 99
    },
    {
      "midi": 64,
      "hit": false,
      "t": 116000.01933333333,
      "d": 478.57150833333435,
      "v": 99
    },
    {
      "midi": 67,
      "hit": false,
      "t": 116000.01933333333,
      "d": 478.57150833333435,
      "v": 99
    },
    {
      "midi": 57,
      "hit": false,
      "t": 116571.44799999999,
      "d": 3285.7148333333316,
      "v": 103
    },
    {
      "midi": 60,
      "hit": false,
      "t": 116571.44799999999,
      "d": 3285.7148333333316,
      "v": 103
    },
    {
      "midi": 65,
      "hit": false,
      "t": 116571.44799999999,
      "d": 3285.7148333333316,
      "v": 103
    },
    {
      "midi": 69,
      "hit": false,
      "t": 118571.44833333332,
      "d": 307.1429083333351,
      "v": 92
    },
    {
      "midi": 72,
      "hit": false,
      "t": 118857.16266666666,
      "d": 335.71434166666586,
      "v": 86
    },
    {
      "midi": 77,
      "hit": false,
      "t": 119142.877,
      "d": 400.00006666666013,
      "v": 84
    },
    {
      "midi": 72,
      "hit": false,
      "t": 119428.59133333332,
      "d": 314.28576666666777,
      "v": 87
    },
    {
      "midi": 69,
      "hit": false,
      "t": 119714.30566666665,
      "d": 285.714333333337,
      "v": 93
    },
    {
      "midi": 57,
      "hit": false,
      "t": 120000.01999999999,
      "d": 1714.2859999999928,
      "v": 84
    },
    {
      "midi": 60,
      "hit": false,
      "t": 120000.01999999999,
      "d": 1714.2859999999928,
      "v": 84
    },
    {
      "midi": 65,
      "hit": false,
      "t": 120000.01999999999,
      "d": 1714.2859999999928,
      "v": 84
    },
    {
      "midi": 60,
      "hit": false,
      "t": 121714.30599999998,
      "d": 1714.2859999999928,
      "v": 84
    },
    {
      "midi": 63,
      "hit": false,
      "t": 121714.30599999998,
      "d": 1714.2859999999928,
      "v": 84
    },
    {
      "midi": 66,
      "hit": false,
      "t": 121714.30599999998,
      "d": 1714.2859999999928,
      "v": 84
    },
    {
      "midi": 69,
      "hit": false,
      "t": 121714.30599999998,
      "d": 1714.2859999999928,
      "v": 84
    },
    {
      "midi": 55,
      "hit": false,
      "t": 123428.59199999998,
      "d": 1714.2859999999928,
      "v": 84
    },
    {
      "midi": 58,
      "hit": false,
      "t": 123428.59199999998,
      "d": 1714.2859999999928,
      "v": 84
    },
    {
      "midi": 62,
      "hit": false,
      "t": 123428.59199999998,
      "d": 1714.2859999999928,
      "v": 84
    },
    {
      "midi": 58,
      "hit": false,
      "t": 125142.87799999997,
      "d": 1714.2859999999928,
      "v": 84
    },
    {
      "midi": 60,
      "hit": false,
      "t": 125142.87799999997,
      "d": 1714.2859999999928,
      "v": 84
    },
    {
      "midi": 64,
      "hit": false,
      "t": 125142.87799999997,
      "d": 1714.2859999999928,
      "v": 84
    },
    {
      "midi": 67,
      "hit": false,
      "t": 125142.87799999997,
      "d": 1714.2859999999928,
      "v": 84
    },
    {
      "midi": 57,
      "hit": false,
      "t": 126857.16399999996,
      "d": 1714.2859999999928,
      "v": 84
    },
    {
      "midi": 60,
      "hit": false,
      "t": 126857.16399999996,
      "d": 1714.2859999999928,
      "v": 84
    },
    {
      "midi": 65,
      "hit": false,
      "t": 126857.16399999996,
      "d": 1714.2859999999928,
      "v": 84
    },
    {
      "midi": 57,
      "hit": false,
      "t": 128571.44999999995,
      "d": 1714.2859999999928,
      "v": 84
    },
    {
      "midi": 62,
      "hit": false,
      "t": 128571.44999999995,
      "d": 1714.2859999999928,
      "v": 84
    },
    {
      "midi": 65,
      "hit": false,
      "t": 128571.44999999995,
      "d": 1714.2859999999928,
      "v": 84
    },
    {
      "midi": 57,
      "hit": false,
      "t": 130285.73599999995,
      "d": 1714.2859999999928,
      "v": 84
    },
    {
      "midi": 60,
      "hit": false,
      "t": 130285.73599999995,
      "d": 1714.2859999999928,
      "v": 84
    },
    {
      "midi": 65,
      "hit": false,
      "t": 130285.73599999995,
      "d": 1714.2859999999928,
      "v": 84
    },
    {
      "midi": 57,
      "hit": false,
      "t": 132000.02199999994,
      "d": 1714.2859999999928,
      "v": 84
    },
    {
      "midi": 62,
      "hit": false,
      "t": 132000.02199999994,
      "d": 1714.2859999999928,
      "v": 84
    },
    {
      "midi": 65,
      "hit": false,
      "t": 132000.02199999994,
      "d": 1714.2859999999928,
      "v": 84
    },
    {
      "midi": 57,
      "hit": false,
      "t": 133714.30799999993,
      "d": 3428.5719999999856,
      "v": 84
    },
    {
      "midi": 60,
      "hit": false,
      "t": 133714.30799999993,
      "d": 3428.5719999999856,
      "v": 84
    },
    {
      "midi": 65,
      "hit": false,
      "t": 133714.30799999993,
      "d": 3428.5719999999856,
      "v": 84
    },
    {
      "midi": 58,
      "hit": false,
      "t": 137142.87999999992,
      "d": 3428.5719999999856,
      "v": 84
    },
    {
      "midi": 60,
      "hit": false,
      "t": 137142.87999999992,
      "d": 3428.5719999999856,
      "v": 84
    },
    {
      "midi": 64,
      "hit": false,
      "t": 137142.87999999992,
      "d": 3428.5719999999856,
      "v": 84
    },
    {
      "midi": 67,
      "hit": false,
      "t": 137142.87999999992,
      "d": 3428.5719999999856,
      "v": 84
    },
    {
      "midi": 58,
      "hit": false,
      "t": 140571.4519999999,
      "d": 5092.857991666679,
      "v": 84
    },
    {
      "midi": 60,
      "hit": false,
      "t": 140571.4519999999,
      "d": 5092.857991666679,
      "v": 84
    },
    {
      "midi": 64,
      "hit": false,
      "t": 140571.4519999999,
      "d": 5092.857991666679,
      "v": 84
    },
    {
      "midi": 67,
      "hit": false,
      "t": 140571.4519999999,
      "d": 5092.857991666679,
      "v": 84
    },
    {
      "midi": 58,
      "hit": false,
      "t": 147428.5959999999,
      "d": 3428.5719999999856,
      "v": 84
    },
    {
      "midi": 60,
      "hit": false,
      "t": 147428.5959999999,
      "d": 3428.5719999999856,
      "v": 84
    },
    {
      "midi": 64,
      "hit": false,
      "t": 147428.5959999999,
      "d": 3428.5719999999856,
      "v": 84
    },
    {
      "midi": 67,
      "hit": false,
      "t": 147428.5959999999,
      "d": 3428.5719999999856,
      "v": 84
    },
    {
      "midi": 57,
      "hit": false,
      "t": 150857.1679999999,
      "d": 1714.2859999999928,
      "v": 84
    },
    {
      "midi": 60,
      "hit": false,
      "t": 150857.1679999999,
      "d": 1714.2859999999928,
      "v": 84
    },
    {
      "midi": 65,
      "hit": false,
      "t": 150857.1679999999,
      "d": 1714.2859999999928,
      "v": 84
    },
    {
      "midi": 58,
      "hit": false,
      "t": 152571.45399999988,
      "d": 857.1430000000109,
      "v": 84
    },
    {
      "midi": 62,
      "hit": false,
      "t": 152571.45399999988,
      "d": 857.1430000000109,
      "v": 84
    },
    {
      "midi": 67,
      "hit": false,
      "t": 152571.45399999988,
      "d": 857.1430000000109,
      "v": 84
    },
    {
      "midi": 58,
      "hit": false,
      "t": 153428.5969999999,
      "d": 857.1430000000109,
      "v": 84
    },
    {
      "midi": 60,
      "hit": false,
      "t": 153428.5969999999,
      "d": 857.1430000000109,
      "v": 84
    },
    {
      "midi": 64,
      "hit": false,
      "t": 153428.5969999999,
      "d": 857.1430000000109,
      "v": 84
    },
    {
      "midi": 67,
      "hit": false,
      "t": 153428.5969999999,
      "d": 857.1430000000109,
      "v": 84
    },
    {
      "midi": 57,
      "hit": false,
      "t": 154285.7399999999,
      "d": 1714.2859999999928,
      "v": 84
    },
    {
      "midi": 60,
      "hit": false,
      "t": 154285.7399999999,
      "d": 1714.2859999999928,
      "v": 84
    },
    {
      "midi": 65,
      "hit": false,
      "t": 154285.7399999999,
      "d": 1714.2859999999928,
      "v": 84
    },
    {
      "midi": 57,
      "hit": false,
      "t": 156000.0259999999,
      "d": 1714.2859999999928,
      "v": 84
    },
    {
      "midi": 62,
      "hit": false,
      "t": 156000.0259999999,
      "d": 1714.2859999999928,
      "v": 84
    },
    {
      "midi": 65,
      "hit": false,
      "t": 156000.0259999999,
      "d": 1714.2859999999928,
      "v": 84
    },
    {
      "midi": 57,
      "hit": false,
      "t": 157714.3119999999,
      "d": 1714.2859999999928,
      "v": 84
    },
    {
      "midi": 60,
      "hit": false,
      "t": 157714.3119999999,
      "d": 1714.2859999999928,
      "v": 84
    },
    {
      "midi": 65,
      "hit": false,
      "t": 157714.3119999999,
      "d": 1714.2859999999928,
      "v": 84
    },
    {
      "midi": 57,
      "hit": false,
      "t": 159428.59799999988,
      "d": 1714.2859999999928,
      "v": 84
    },
    {
      "midi": 62,
      "hit": false,
      "t": 159428.59799999988,
      "d": 1714.2859999999928,
      "v": 84
    },
    {
      "midi": 65,
      "hit": false,
      "t": 159428.59799999988,
      "d": 1714.2859999999928,
      "v": 84
    },
    {
      "midi": 57,
      "hit": false,
      "t": 161142.88399999987,
      "d": 3428.5719999999856,
      "v": 84
    },
    {
      "midi": 60,
      "hit": false,
      "t": 161142.88399999987,
      "d": 3428.5719999999856,
      "v": 84
    },
    {
      "midi": 65,
      "hit": false,
      "t": 161142.88399999987,
      "d": 3428.5719999999856,
      "v": 84
    },
    {
      "midi": 58,
      "hit": false,
      "t": 164571.45599999986,
      "d": 3428.5719999999856,
      "v": 84
    },
    {
      "midi": 60,
      "hit": false,
      "t": 164571.45599999986,
      "d": 3428.5719999999856,
      "v": 84
    },
    {
      "midi": 64,
      "hit": false,
      "t": 164571.45599999986,
      "d": 3428.5719999999856,
      "v": 84
    },
    {
      "midi": 67,
      "hit": false,
      "t": 164571.45599999986,
      "d": 3428.5719999999856,
      "v": 84
    },
    {
      "midi": 58,
      "hit": false,
      "t": 168000.02799999985,
      "d": 5092.857991666679,
      "v": 84
    },
    {
      "midi": 60,
      "hit": false,
      "t": 168000.02799999985,
      "d": 5092.857991666679,
      "v": 84
    },
    {
      "midi": 64,
      "hit": false,
      "t": 168000.02799999985,
      "d": 5092.857991666679,
      "v": 84
    },
    {
      "midi": 67,
      "hit": false,
      "t": 168000.02799999985,
      "d": 5092.857991666679,
      "v": 84
    },
    {
      "midi": 58,
      "hit": false,
      "t": 174857.17199999985,
      "d": 3428.5719999999856,
      "v": 84
    },
    {
      "midi": 60,
      "hit": false,
      "t": 174857.17199999985,
      "d": 3428.5719999999856,
      "v": 84
    },
    {
      "midi": 64,
      "hit": false,
      "t": 174857.17199999985,
      "d": 3428.5719999999856,
      "v": 84
    },
    {
      "midi": 67,
      "hit": false,
      "t": 174857.17199999985,
      "d": 3428.5719999999856,
      "v": 84
    },
    {
      "midi": 57,
      "hit": false,
      "t": 178285.74399999983,
      "d": 3428.5719999999856,
      "v": 84
    },
    {
      "midi": 60,
      "hit": false,
      "t": 178285.74399999983,
      "d": 3428.5719999999856,
      "v": 84
    },
    {
      "midi": 65,
      "hit": false,
      "t": 178285.74399999983,
      "d": 3428.5719999999856,
      "v": 84
    },
    {
      "midi": 53,
      "hit": false,
      "t": 181714.31599999982,
      "d": 5092.857991666679,
      "v": 84
    },
    {
      "midi": 58,
      "hit": false,
      "t": 181714.31599999982,
      "d": 5092.857991666679,
      "v": 84
    },
    {
      "midi": 62,
      "hit": false,
      "t": 181714.31599999982,
      "d": 5092.857991666679,
      "v": 84
    },
    {
      "midi": 60,
      "hit": false,
      "t": 188571.45999999982,
      "d": 3428.5719999999856,
      "v": 84
    },
    {
      "midi": 64,
      "hit": false,
      "t": 188571.45999999982,
      "d": 3428.5719999999856,
      "v": 84
    },
    {
      "midi": 67,
      "hit": false,
      "t": 188571.45999999982,
      "d": 3428.5719999999856,
      "v": 84
    },
    {
      "midi": 69,
      "hit": false,
      "t": 188571.45999999982,
      "d": 3428.5719999999856,
      "v": 84
    },
    {
      "midi": 60,
      "hit": false,
      "t": 192000.0319999998,
      "d": 3428.5719999999856,
      "v": 84
    },
    {
      "midi": 62,
      "hit": false,
      "t": 192000.0319999998,
      "d": 3428.5719999999856,
      "v": 84
    },
    {
      "midi": 66,
      "hit": false,
      "t": 192000.0319999998,
      "d": 3428.5719999999856,
      "v": 84
    },
    {
      "midi": 69,
      "hit": false,
      "t": 192000.0319999998,
      "d": 3428.5719999999856,
      "v": 84
    },
    {
      "midi": 55,
      "hit": false,
      "t": 195428.6039999998,
      "d": 5092.857991666679,
      "v": 84
    },
    {
      "midi": 59,
      "hit": false,
      "t": 195428.6039999998,
      "d": 5092.857991666679,
      "v": 84
    },
    {
      "midi": 62,
      "hit": false,
      "t": 195428.6039999998,
      "d": 5092.857991666679,
      "v": 84
    },
    {
      "midi": 55,
      "hit": false,
      "t": 202285.7479999998,
      "d": 1714.2859999999928,
      "v": 84
    },
    {
      "midi": 59,
      "hit": false,
      "t": 202285.7479999998,
      "d": 1714.2859999999928,
      "v": 84
    },
    {
      "midi": 62,
      "hit": false,
      "t": 202285.7479999998,
      "d": 1714.2859999999928,
      "v": 84
    },
    {
      "midi": 59,
      "hit": false,
      "t": 204000.03399999978,
      "d": 1714.2859999999928,
      "v": 84
    },
    {
      "midi": 62,
      "hit": false,
      "t": 204000.03399999978,
      "d": 1714.2859999999928,
      "v": 84
    },
    {
      "midi": 65,
      "hit": false,
      "t": 204000.03399999978,
      "d": 1714.2859999999928,
      "v": 84
    },
    {
      "midi": 67,
      "hit": false,
      "t": 204000.03399999978,
      "d": 1714.2859999999928,
      "v": 84
    },
    {
      "midi": 58,
      "hit": false,
      "t": 205714.31999999977,
      "d": 3428.5719999999856,
      "v": 84
    },
    {
      "midi": 60,
      "hit": false,
      "t": 205714.31999999977,
      "d": 3428.5719999999856,
      "v": 84
    },
    {
      "midi": 64,
      "hit": false,
      "t": 205714.31999999977,
      "d": 3428.5719999999856,
      "v": 84
    },
    {
      "midi": 67,
      "hit": false,
      "t": 205714.31999999977,
      "d": 3428.5719999999856,
      "v": 84
    },
    {
      "midi": 57,
      "hit": false,
      "t": 209142.89199999976,
      "d": 1714.2859999999928,
      "v": 84
    },
    {
      "midi": 60,
      "hit": false,
      "t": 209142.89199999976,
      "d": 1714.2859999999928,
      "v": 84
    },
    {
      "midi": 65,
      "hit": false,
      "t": 209142.89199999976,
      "d": 1714.2859999999928,
      "v": 84
    },
    {
      "midi": 57,
      "hit": false,
      "t": 210857.17799999975,
      "d": 1714.2859999999928,
      "v": 84
    },
    {
      "midi": 62,
      "hit": false,
      "t": 210857.17799999975,
      "d": 1714.2859999999928,
      "v": 84
    },
    {
      "midi": 65,
      "hit": false,
      "t": 210857.17799999975,
      "d": 1714.2859999999928,
      "v": 84
    },
    {
      "midi": 57,
      "hit": false,
      "t": 212571.46399999975,
      "d": 1714.2859999999928,
      "v": 84
    },
    {
      "midi": 60,
      "hit": false,
      "t": 212571.46399999975,
      "d": 1714.2859999999928,
      "v": 84
    },
    {
      "midi": 65,
      "hit": false,
      "t": 212571.46399999975,
      "d": 1714.2859999999928,
      "v": 84
    },
    {
      "midi": 57,
      "hit": false,
      "t": 214285.74999999974,
      "d": 1714.2859999999928,
      "v": 84
    },
    {
      "midi": 62,
      "hit": false,
      "t": 214285.74999999974,
      "d": 1714.2859999999928,
      "v": 84
    },
    {
      "midi": 65,
      "hit": false,
      "t": 214285.74999999974,
      "d": 1714.2859999999928,
      "v": 84
    },
    {
      "midi": 57,
      "hit": false,
      "t": 216000.03599999973,
      "d": 3428.5719999999856,
      "v": 84
    },
    {
      "midi": 60,
      "hit": false,
      "t": 216000.03599999973,
      "d": 3428.5719999999856,
      "v": 84
    },
    {
      "midi": 65,
      "hit": false,
      "t": 216000.03599999973,
      "d": 3428.5719999999856,
      "v": 84
    },
    {
      "midi": 58,
      "hit": false,
      "t": 219428.60799999972,
      "d": 3428.5719999999856,
      "v": 84
    },
    {
      "midi": 60,
      "hit": false,
      "t": 219428.60799999972,
      "d": 3428.5719999999856,
      "v": 84
    },
    {
      "midi": 64,
      "hit": false,
      "t": 219428.60799999972,
      "d": 3428.5719999999856,
      "v": 84
    },
    {
      "midi": 67,
      "hit": false,
      "t": 219428.60799999972,
      "d": 3428.5719999999856,
      "v": 84
    },
    {
      "midi": 58,
      "hit": false,
      "t": 222857.1799999997,
      "d": 5092.857991666679,
      "v": 84
    },
    {
      "midi": 60,
      "hit": false,
      "t": 222857.1799999997,
      "d": 5092.857991666679,
      "v": 84
    },
    {
      "midi": 64,
      "hit": false,
      "t": 222857.1799999997,
      "d": 5092.857991666679,
      "v": 84
    },
    {
      "midi": 67,
      "hit": false,
      "t": 222857.1799999997,
      "d": 5092.857991666679,
      "v": 84
    },
    {
      "midi": 58,
      "hit": false,
      "t": 229714.3239999997,
      "d": 3428.5719999999856,
      "v": 84
    },
    {
      "midi": 60,
      "hit": false,
      "t": 229714.3239999997,
      "d": 3428.5719999999856,
      "v": 84
    },
    {
      "midi": 64,
      "hit": false,
      "t": 229714.3239999997,
      "d": 3428.5719999999856,
      "v": 84
    },
    {
      "midi": 67,
      "hit": false,
      "t": 229714.3239999997,
      "d": 3428.5719999999856,
      "v": 84
    },
    {
      "midi": 57,
      "hit": false,
      "t": 233142.8959999997,
      "d": 3428.5719999999856,
      "v": 84
    },
    {
      "midi": 60,
      "hit": false,
      "t": 233142.8959999997,
      "d": 3428.5719999999856,
      "v": 84
    },
    {
      "midi": 65,
      "hit": false,
      "t": 233142.8959999997,
      "d": 3428.5719999999856,
      "v": 84
    },
    {
      "midi": 57,
      "hit": false,
      "t": 236785.75374999968,
      "d": 3864.2863583333674,
      "v": 101
    },
    {
      "midi": 65,
      "hit": false,
      "t": 237000.0394999997,
      "d": 3785.7149166666786,
      "v": 61
    },
    {
      "midi": 69,
      "hit": false,
      "t": 237214.3252499997,
      "d": 3621.4291749999975,
      "v": 85
    },
    {
      "midi": 72,
      "hit": false,
      "t": 237428.6109999997,
      "d": 3407.1434249999875,
      "v": 79
    },
    {
      "midi": 41,
      "hit": false,
      "t": 241500.0402499997,
      "d": 214.28575000001,
      "v": 45
    },
    {
      "midi": 57,
      "hit": false,
      "t": 241714.3259999997,
      "d": 1714.2859999999928,
      "v": 81
    },
    {
      "midi": 65,
      "hit": false,
      "t": 241714.3259999997,
      "d": 1714.2859999999928,
      "v": 76
    },
    {
      "midi": 69,
      "hit": false,
      "t": 241714.3259999997,
      "d": 1714.2859999999928,
      "v": 88
    },
    {
      "midi": 72,
      "hit": false,
      "t": 241714.3259999997,
      "d": 1714.2859999999928,
      "v": 72
    }
  ]
}