{
  "jsonPath": "Latin/Spanish Pop/Joan Manuel Serrat/la-saeta.json",
  "path": "Latin\\Spanish Pop\\Joan Manuel Serrat\\La Saeta.mid",
  "name": "La Saeta",
  "difficulty": "Advanced",
  "bpm": 60,
  "notes": [
    {
      "midi": 61,
      "hit": false,
      "t": 13100.5859375,
      "d": 43.9453125,
      "v": 102
    },
    {
      "midi": 63,
      "hit": false,
      "t": 13100.5859375,
      "d": 43.9453125,
      "v": 116
    },
    {
      "midi": 68,
      "hit": false,
      "t": 13100.5859375,
      "d": 43.9453125,
      "v": 110
    },
    {
      "midi": 73,
      "hit": false,
      "t": 13100.5859375,
      "d": 43.9453125,
      "v": 114
    },
    {
      "midi": 69,
      "hit": false,
      "t": 13125,
      "d": 53.7109375,
      "v": 107
    },
    {
      "midi": 42,
      "hit": false,
      "t": 14956.0546875,
      "d": 122.0703125,
      "v": 102
    },
    {
      "midi": 54,
      "hit": false,
      "t": 14956.0546875,
      "d": 161.1328125,
      "v": 108
    },
    {
      "midi": 44,
      "hit": false,
      "t": 15078.125,
      "d": 3217.7734375,
      "v": 100
    },
    {
      "midi": 56,
      "hit": false,
      "t": 15078.125,
      "d": 3237.3046875,
      "v": 82
    },
    {
      "midi": 45,
      "hit": false,
      "t": 18515.625,
      "d": 68.359375,
      "v": 87
    },
    {
      "midi": 57,
      "hit": false,
      "t": 18525.390625,
      "d": 78.125,
      "v": 89
    },
    {
      "midi": 47,
      "hit": false,
      "t": 18579.1015625,
      "d": 90.33203125,
      "v": 82
    },
    {
      "midi": 59,
      "hit": false,
      "t": 18601.07421875,
      "d": 87.890625,
      "v": 85
    },
    {
      "midi": 45,
      "hit": false,
      "t": 18654.78515625,
      "d": 80.56640625,
      "v": 91
    },
    {
      "midi": 57,
      "hit": false,
      "t": 18669.43359375,
      "d": 78.125,
      "v": 91
    },
    {
      "midi": 44,
      "hit": false,
      "t": 18723.14453125,
      "d": 529.78515625,
      "v": 95
    },
    {
      "midi": 56,
      "hit": false,
      "t": 18742.67578125,
      "d": 478.515625,
      "v": 95
    },
    {
      "midi": 48,
      "hit": false,
      "t": 19257.8125,
      "d": 463.8671875,
      "v": 84
    },
    {
      "midi": 60,
      "hit": false,
      "t": 19257.8125,
      "d": 522.4609375,
      "v": 84
    },
    {
      "midi": 57,
      "hit": false,
      "t": 19687.5,
      "d": 1499.0234375,
      "v": 68
    },
    {
      "midi": 69,
      "hit": false,
      "t": 19721.6796875,
      "d": 1489.2578125,
      "v": 68
    },
    {
      "midi": 73,
      "hit": false,
      "t": 21093.75,
      "d": 507.8125,
      "v": 80
    },
    {
      "midi": 61,
      "hit": false,
      "t": 21113.28125,
      "d": 502.9296875,
      "v": 80
    },
    {
      "midi": 72,
      "hit": false,
      "t": 21582.03125,
      "d": 488.28125,
      "v": 80
    },
    {
      "midi": 60,
      "hit": false,
      "t": 21621.09375,
      "d": 488.28125,
      "v": 80
    },
    {
      "midi": 69,
      "hit": false,
      "t": 22050.78125,
      "d": 522.4609375,
      "v": 82
    },
    {
      "midi": 57,
      "hit": false,
      "t": 22089.84375,
      "d": 483.3984375,
      "v": 82
    },
    {
      "midi": 63,
      "hit": false,
      "t": 22558.59375,
      "d": 1342.7734375,
      "v": 64
    },
    {
      "midi": 51,
      "hit": false,
      "t": 22573.2421875,
      "d": 1328.125,
      "v": 64
    },
    {
      "midi": 54,
      "hit": false,
      "t": 23901.3671875,
      "d": 493.1640625,
      "v": 68
    },
    {
      "midi": 66,
      "hit": false,
      "t": 23925.78125,
      "d": 507.8125,
      "v": 62
    },
    {
      "midi": 52,
      "hit": false,
      "t": 24394.53125,
      "d": 917.96875,
      "v": 50
    },
    {
      "midi": 64,
      "hit": false,
      "t": 24414.0625,
      "d": 917.96875,
      "v": 62
    },
    {
      "midi": 45,
      "hit": false,
      "t": 25332.03125,
      "d": 898.4375,
      "v": 50
    },
    {
      "midi": 57,
      "hit": false,
      "t": 25351.5625,
      "d": 878.90625,
      "v": 48
    },
    {
      "midi": 37,
      "hit": false,
      "t": 26254.8828125,
      "d": 3745.1171875,
      "v": 47
    },
    {
      "midi": 56,
      "hit": false,
      "t": 26254.8828125,
      "d": 3745.1171875,
      "v": 67
    },
    {
      "midi": 37,
      "hit": false,
      "t": 30000,
      "d": 2988.28125,
      "v": 54
    },
    {
      "midi": 56,
      "hit": false,
      "t": 30468.75,
      "d": 3105.46875,
      "v": 84
    },
    {
      "midi": 61,
      "hit": false,
      "t": 30937.5,
      "d": 2773.4375,
      "v": 80
    },
    {
      "midi": 63,
      "hit": false,
      "t": 31425.78125,
      "d": 312.5,
      "v": 76
    },
    {
      "midi": 63,
      "hit": false,
      "t": 31875,
      "d": 97.65625,
      "v": 74
    },
    {
      "midi": 64,
      "hit": false,
      "t": 31914.0625,
      "d": 1796.875,
      "v": 70
    },
    {
      "midi": 68,
      "hit": false,
      "t": 32792.96875,
      "d": 878.90625,
      "v": 72
    },
    {
      "midi": 68,
      "hit": false,
      "t": 33671.875,
      "d": 39.0625,
      "v": 60
    },
    {
      "midi": 71,
      "hit": false,
      "t": 33691.40625,
      "d": 1914.0625,
      "v": 70
    },
    {
      "midi": 75,
      "hit": false,
      "t": 33730.46875,
      "d": 1875,
      "v": 80
    },
    {
      "midi": 82,
      "hit": false,
      "t": 33754.8828125,
      "d": 932.6171875,
      "v": 84
    },
    {
      "midi": 80,
      "hit": false,
      "t": 34648.4375,
      "d": 502.9296875,
      "v": 74
    },
    {
      "midi": 78,
      "hit": false,
      "t": 35156.25,
      "d": 468.75,
      "v": 68
    },
    {
      "midi": 65,
      "hit": false,
      "t": 35605.46875,
      "d": 1015.625,
      "v": 68
    },
    {
      "midi": 77,
      "hit": false,
      "t": 35625,
      "d": 898.4375,
      "v": 62
    },
    {
      "midi": 78,
      "hit": false,
      "t": 36503.90625,
      "d": 756.8359375,
      "v": 66
    },
    {
      "midi": 66,
      "hit": false,
      "t": 36562.5,
      "d": 722.65625,
      "v": 54
    },
    {
      "midi": 57,
      "hit": false,
      "t": 37500,
      "d": 1875,
      "v": 84
    },
    {
      "midi": 63,
      "hit": false,
      "t": 37500,
      "d": 1875,
      "v": 86
    },
    {
      "midi": 68,
      "hit": false,
      "t": 37500,
      "d": 1875,
      "v": 84
    },
    {
      "midi": 76,
      "hit": false,
      "t": 38945.3125,
      "d": 131.8359375,
      "v": 64
    },
    {
      "midi": 73,
      "hit": false,
      "t": 39016.11328125,
      "d": 114.74609375,
      "v": 66
    },
    {
      "midi": 71,
      "hit": false,
      "t": 39079.58984375,
      "d": 87.890625,
      "v": 68
    },
    {
      "midi": 69,
      "hit": false,
      "t": 39147.94921875,
      "d": 36.62109375,
      "v": 76
    },
    {
      "midi": 61,
      "hit": false,
      "t": 39208.984375,
      "d": 104.98046875,
      "v": 58
    },
    {
      "midi": 59,
      "hit": false,
      "t": 39287.109375,
      "d": 485.83984375,
      "v": 64
    },
    {
      "midi": 47,
      "hit": false,
      "t": 39375,
      "d": 1875,
      "v": 86
    },
    {
      "midi": 57,
      "hit": false,
      "t": 39843.75,
      "d": 1171.875,
      "v": 58
    },
    {
      "midi": 63,
      "hit": false,
      "t": 39858.3984375,
      "d": 1176.7578125,
      "v": 74
    },
    {
      "midi": 66,
      "hit": false,
      "t": 39863.28125,
      "d": 1171.875,
      "v": 86
    },
    {
      "midi": 40,
      "hit": false,
      "t": 41254.8828125,
      "d": 1870.1171875,
      "v": 84
    },
    {
      "midi": 71,
      "hit": false,
      "t": 41718.75,
      "d": 507.8125,
      "v": 74
    },
    {
      "midi": 52,
      "hit": false,
      "t": 41718.75,
      "d": 1323.2421875,
      "v": 78
    },
    {
      "midi": 69,
      "hit": false,
      "t": 42192.3828125,
      "d": 1420.8984375,
      "v": 82
    },
    {
      "midi": 44,
      "hit": false,
      "t": 43125,
      "d": 1875,
      "v": 62
    },
    {
      "midi": 68,
      "hit": false,
      "t": 43593.75,
      "d": 195.3125,
      "v": 82
    },
    {
      "midi": 71,
      "hit": false,
      "t": 43730.46875,
      "d": 214.84375,
      "v": 82
    },
    {
      "midi": 69,
      "hit": false,
      "t": 43886.71875,
      "d": 214.84375,
      "v": 78
    },
    {
      "midi": 68,
      "hit": false,
      "t": 44042.96875,
      "d": 893.5546875,
      "v": 76
    },
    {
      "midi": 49,
      "hit": false,
      "t": 45000,
      "d": 3745.1171875,
      "v": 74
    },
    {
      "midi": 56,
      "hit": false,
      "t": 45468.75,
      "d": 3183.59375,
      "v": 62
    },
    {
      "midi": 61,
      "hit": false,
      "t": 45937.5,
      "d": 2714.84375,
      "v": 56
    },
    {
      "midi": 68,
      "hit": false,
      "t": 46406.25,
      "d": 2265.625,
      "v": 50
    },
    {
      "midi": 64,
      "hit": false,
      "t": 46875,
      "d": 1757.8125,
      "v": 44
    },
    {
      "midi": 44,
      "hit": false,
      "t": 48750,
      "d": 3745.1171875,
      "v": 74
    },
    {
      "midi": 51,
      "hit": false,
      "t": 49218.75,
      "d": 3203.125,
      "v": 64
    },
    {
      "midi": 59,
      "hit": false,
      "t": 49687.5,
      "d": 2714.84375,
      "v": 58
    },
    {
      "midi": 61,
      "hit": false,
      "t": 50156.25,
      "d": 2246.09375,
      "v": 48
    },
    {
      "midi": 63,
      "hit": false,
      "t": 50625,
      "d": 1791.9921875,
      "v": 36
    },
    {
      "midi": 45,
      "hit": false,
      "t": 52504.8828125,
      "d": 1870.1171875,
      "v": 74
    },
    {
      "midi": 52,
      "hit": false,
      "t": 52949.21875,
      "d": 1347.65625,
      "v": 68
    },
    {
      "midi": 59,
      "hit": false,
      "t": 52968.75,
      "d": 1367.1875,
      "v": 80
    },
    {
      "midi": 61,
      "hit": false,
      "t": 53422.8515625,
      "d": 888.671875,
      "v": 60
    },
    {
      "midi": 64,
      "hit": false,
      "t": 53867.1875,
      "d": 483.3984375,
      "v": 64
    },
    {
      "midi": 63,
      "hit": false,
      "t": 54355.46875,
      "d": 1850.5859375,
      "v": 58
    },
    {
      "midi": 47,
      "hit": false,
      "t": 54375,
      "d": 1875,
      "v": 74
    },
    {
      "midi": 51,
      "hit": false,
      "t": 54804.6875,
      "d": 1425.78125,
      "v": 54
    },
    {
      "midi": 57,
      "hit": false,
      "t": 55292.96875,
      "d": 913.0859375,
      "v": 56
    },
    {
      "midi": 40,
      "hit": false,
      "t": 56250,
      "d": 1870.1171875,
      "v": 74
    },
    {
      "midi": 52,
      "hit": false,
      "t": 56718.75,
      "d": 1445.3125,
      "v": 90
    },
    {
      "midi": 59,
      "hit": false,
      "t": 57187.5,
      "d": 917.96875,
      "v": 80
    },
    {
      "midi": 64,
      "hit": false,
      "t": 57656.25,
      "d": 507.8125,
      "v": 76
    },
    {
      "midi": 63,
      "hit": false,
      "t": 58125,
      "d": 483.3984375,
      "v": 72
    },
    {
      "midi": 44,
      "hit": false,
      "t": 58125,
      "d": 1870.1171875,
      "v": 74
    },
    {
      "midi": 51,
      "hit": false,
      "t": 58593.75,
      "d": 1386.71875,
      "v": 60
    },
    {
      "midi": 56,
      "hit": false,
      "t": 59062.5,
      "d": 893.5546875,
      "v": 48
    },
    {
      "midi": 63,
      "hit": false,
      "t": 59531.25,
      "d": 444.3359375,
      "v": 56
    },
    {
      "midi": 49,
      "hit": false,
      "t": 60000,
      "d": 3745.1171875,
      "v": 74
    },
    {
      "midi": 56,
      "hit": false,
      "t": 60468.75,
      "d": 3159.1796875,
      "v": 76
    },
    {
      "midi": 63,
      "hit": false,
      "t": 60468.75,
      "d": 3261.71875,
      "v": 96
    },
    {
      "midi": 66,
      "hit": false,
      "t": 60937.5,
      "d": 483.3984375,
      "v": 96
    },
    {
      "midi": 61,
      "hit": false,
      "t": 60937.5,
      "d": 2753.90625,
      "v": 98
    },
    {
      "midi": 64,
      "hit": false,
      "t": 61406.25,
      "d": 2324.21875,
      "v": 68
    },
    {
      "midi": 73,
      "hit": false,
      "t": 61875,
      "d": 1914.0625,
      "v": 100
    },
    {
      "midi": 78,
      "hit": false,
      "t": 62343.75,
      "d": 1464.84375,
      "v": 82
    },
    {
      "midi": 83,
      "hit": false,
      "t": 62812.5,
      "d": 976.5625,
      "v": 88
    },
    {
      "midi": 81,
      "hit": false,
      "t": 63281.25,
      "d": 541.9921875,
      "v": 80
    },
    {
      "midi": 80,
      "hit": false,
      "t": 63750,
      "d": 1440.4296875,
      "v": 86
    },
    {
      "midi": 44,
      "hit": false,
      "t": 63750,
      "d": 3740.234375,
      "v": 74
    },
    {
      "midi": 51,
      "hit": false,
      "t": 64218.75,
      "d": 3203.125,
      "v": 74
    },
    {
      "midi": 56,
      "hit": false,
      "t": 64687.5,
      "d": 2753.90625,
      "v": 76
    },
    {
      "midi": 78,
      "hit": false,
      "t": 65097.65625,
      "d": 273.4375,
      "v": 64
    },
    {
      "midi": 59,
      "hit": false,
      "t": 65117.1875,
      "d": 2285.15625,
      "v": 74
    },
    {
      "midi": 78,
      "hit": false,
      "t": 65527.34375,
      "d": 78.125,
      "v": 88
    },
    {
      "midi": 76,
      "hit": false,
      "t": 65566.40625,
      "d": 957.03125,
      "v": 82
    },
    {
      "midi": 75,
      "hit": false,
      "t": 66523.4375,
      "d": 957.03125,
      "v": 66
    },
    {
      "midi": 68,
      "hit": false,
      "t": 66523.4375,
      "d": 976.5625,
      "v": 62
    },
    {
      "midi": 45,
      "hit": false,
      "t": 67495.1171875,
      "d": 1870.1171875,
      "v": 74
    },
    {
      "midi": 52,
      "hit": false,
      "t": 67500,
      "d": 1870.1171875,
      "v": 74
    },
    {
      "midi": 59,
      "hit": false,
      "t": 67504.8828125,
      "d": 1870.1171875,
      "v": 74
    },
    {
      "midi": 61,
      "hit": false,
      "t": 67509.765625,
      "d": 1870.1171875,
      "v": 74
    },
    {
      "midi": 47,
      "hit": false,
      "t": 69375,
      "d": 117.1875,
      "v": 84
    },
    {
      "midi": 54,
      "hit": false,
      "t": 69375,
      "d": 117.1875,
      "v": 84
    },
    {
      "midi": 57,
      "hit": false,
      "t": 69375,
      "d": 117.1875,
      "v": 84
    },
    {
      "midi": 68,
      "hit": false,
      "t": 71250,
      "d": 1640.625,
      "v": 114
    },
    {
      "midi": 80,
      "hit": false,
      "t": 71250,
      "d": 1640.625,
      "v": 114
    },
    {
      "midi": 44,
      "hit": false,
      "t": 71250,
      "d": 1875,
      "v": 94
    },
    {
      "midi": 51,
      "hit": false,
      "t": 71250,
      "d": 1875,
      "v": 94
    },
    {
      "midi": 56,
      "hit": false,
      "t": 71250,
      "d": 1875,
      "v": 94
    },
    {
      "midi": 68,
      "hit": false,
      "t": 72890.625,
      "d": 78.125,
      "v": 114
    },
    {
      "midi": 80,
      "hit": false,
      "t": 72890.625,
      "d": 78.125,
      "v": 114
    },
    {
      "midi": 68,
      "hit": false,
      "t": 73007.8125,
      "d": 73.2421875,
      "v": 114
    },
    {
      "midi": 80,
      "hit": false,
      "t": 73007.8125,
      "d": 73.2421875,
      "v": 114
    },
    {
      "midi": 44,
      "hit": false,
      "t": 73125,
      "d": 1875,
      "v": 94
    },
    {
      "midi": 51,
      "hit": false,
      "t": 73125,
      "d": 1875,
      "v": 94
    },
    {
      "midi": 56,
      "hit": false,
      "t": 73125,
      "d": 1875,
      "v": 94
    },
    {
      "midi": 68,
      "hit": false,
      "t": 73125,
      "d": 1875,
      "v": 114
    },
    {
      "midi": 80,
      "hit": false,
      "t": 73125,
      "d": 1875,
      "v": 114
    },
    {
      "midi": 68,
      "hit": false,
      "t": 75000,
      "d": 1718.75,
      "v": 114
    },
    {
      "midi": 80,
      "hit": false,
      "t": 75000,
      "d": 1718.75,
      "v": 114
    },
    {
      "midi": 49,
      "hit": false,
      "t": 75000,
      "d": 1875,
      "v": 94
    },
    {
      "midi": 56,
      "hit": false,
      "t": 75000,
      "d": 1875,
      "v": 94
    },
    {
      "midi": 61,
      "hit": false,
      "t": 75000,
      "d": 1875,
      "v": 94
    },
    {
      "midi": 68,
      "hit": false,
      "t": 76757.8125,
      "d": 78.125,
      "v": 114
    },
    {
      "midi": 80,
      "hit": false,
      "t": 76757.8125,
      "d": 78.125,
      "v": 114
    },
    {
      "midi": 68,
      "hit": false,
      "t": 76879.8828125,
      "d": 1474.609375,
      "v": 114
    },
    {
      "midi": 61,
      "hit": false,
      "t": 76889.6484375,
      "d": 922.8515625,
      "v": 94
    },
    {
      "midi": 80,
      "hit": false,
      "t": 76889.6484375,
      "d": 1464.84375,
      "v": 114
    },
    {
      "midi": 49,
      "hit": false,
      "t": 76889.6484375,
      "d": 1860.3515625,
      "v": 94
    },
    {
      "midi": 56,
      "hit": false,
      "t": 76889.6484375,
      "d": 1860.3515625,
      "v": 94
    },
    {
      "midi": 61,
      "hit": false,
      "t": 77812.5,
      "d": 937.5,
      "v": 94
    },
    {
      "midi": 73,
      "hit": false,
      "t": 77812.5,
      "d": 937.5,
      "v": 94
    },
    {
      "midi": 68,
      "hit": false,
      "t": 78759.765625,
      "d": 1474.609375,
      "v": 102
    },
    {
      "midi": 44,
      "hit": false,
      "t": 78759.765625,
      "d": 1865.234375,
      "v": 94
    },
    {
      "midi": 51,
      "hit": false,
      "t": 78759.765625,
      "d": 1865.234375,
      "v": 94
    },
    {
      "midi": 56,
      "hit": false,
      "t": 78759.765625,
      "d": 1865.234375,
      "v": 94
    },
    {
      "midi": 68,
      "hit": false,
      "t": 80507.8125,
      "d": 78.125,
      "v": 114
    },
    {
      "midi": 44,
      "hit": false,
      "t": 80625,
      "d": 1870.1171875,
      "v": 94
    },
    {
      "midi": 51,
      "hit": false,
      "t": 80625,
      "d": 1870.1171875,
      "v": 94
    },
    {
      "midi": 56,
      "hit": false,
      "t": 80625,
      "d": 1870.1171875,
      "v": 94
    },
    {
      "midi": 68,
      "hit": false,
      "t": 80625,
      "d": 1870.1171875,
      "v": 114
    },
    {
      "midi": 75,
      "hit": false,
      "t": 81542.96875,
      "d": 898.4375,
      "v": 82
    },
    {
      "midi": 45,
      "hit": false,
      "t": 82504.8828125,
      "d": 1870.1171875,
      "v": 94
    },
    {
      "midi": 52,
      "hit": false,
      "t": 82504.8828125,
      "d": 1870.1171875,
      "v": 94
    },
    {
      "midi": 59,
      "hit": false,
      "t": 82504.8828125,
      "d": 1870.1171875,
      "v": 94
    },
    {
      "midi": 61,
      "hit": false,
      "t": 82504.8828125,
      "d": 1870.1171875,
      "v": 94
    },
    {
      "midi": 71,
      "hit": false,
      "t": 83784.1796875,
      "d": 73.2421875,
      "v": 87
    },
    {
      "midi": 73,
      "hit": false,
      "t": 83906.25,
      "d": 83.0078125,
      "v": 91
    },
    {
      "midi": 75,
      "hit": false,
      "t": 84023.4375,
      "d": 83.0078125,
      "v": 100
    },
    {
      "midi": 76,
      "hit": false,
      "t": 84167.48046875,
      "d": 90.33203125,
      "v": 100
    },
    {
      "midi": 76,
      "hit": false,
      "t": 84326.171875,
      "d": 131.8359375,
      "v": 100
    },
    {
      "midi": 47,
      "hit": false,
      "t": 84375,
      "d": 1875,
      "v": 94
    },
    {
      "midi": 54,
      "hit": false,
      "t": 84375,
      "d": 1875,
      "v": 94
    },
    {
      "midi": 57,
      "hit": false,
      "t": 84375,
      "d": 1875,
      "v": 94
    },
    {
      "midi": 61,
      "hit": false,
      "t": 84375,
      "d": 1875,
      "v": 94
    },
    {
      "midi": 75,
      "hit": false,
      "t": 84482.421875,
      "d": 144.04296875,
      "v": 91
    },
    {
      "midi": 73,
      "hit": false,
      "t": 84609.375,
      "d": 109.86328125,
      "v": 72
    },
    {
      "midi": 75,
      "hit": false,
      "t": 84785.15625,
      "d": 732.421875,
      "v": 102
    },
    {
      "midi": 59,
      "hit": false,
      "t": 84843.75,
      "d": 1113.28125,
      "v": 114
    },
    {
      "midi": 40,
      "hit": false,
      "t": 86259.765625,
      "d": 1865.234375,
      "v": 94
    },
    {
      "midi": 52,
      "hit": false,
      "t": 86259.765625,
      "d": 1865.234375,
      "v": 94
    },
    {
      "midi": 59,
      "hit": false,
      "t": 86259.765625,
      "d": 1865.234375,
      "v": 94
    },
    {
      "midi": 64,
      "hit": false,
      "t": 86259.765625,
      "d": 1865.234375,
      "v": 94
    },
    {
      "midi": 76,
      "hit": false,
      "t": 86953.125,
      "d": 117.1875,
      "v": 94
    },
    {
      "midi": 78,
      "hit": false,
      "t": 87070.3125,
      "d": 117.1875,
      "v": 94
    },
    {
      "midi": 81,
      "hit": false,
      "t": 87197.265625,
      "d": 146.484375,
      "v": 94
    },
    {
      "midi": 80,
      "hit": false,
      "t": 87343.75,
      "d": 151.3671875,
      "v": 94
    },
    {
      "midi": 78,
      "hit": false,
      "t": 87500,
      "d": 156.25,
      "v": 94
    },
    {
      "midi": 83,
      "hit": false,
      "t": 87656.25,
      "d": 156.25,
      "v": 94
    },
    {
      "midi": 81,
      "hit": false,
      "t": 87812.5,
      "d": 156.25,
      "v": 94
    },
    {
      "midi": 80,
      "hit": false,
      "t": 87968.75,
      "d": 156.25,
      "v": 94
    },
    {
      "midi": 56,
      "hit": false,
      "t": 88125,
      "d": 820.3125,
      "v": 94
    },
    {
      "midi": 68,
      "hit": false,
      "t": 88125,
      "d": 820.3125,
      "v": 114
    },
    {
      "midi": 44,
      "hit": false,
      "t": 88125,
      "d": 1875,
      "v": 94
    },
    {
      "midi": 51,
      "hit": false,
      "t": 88125,
      "d": 1875,
      "v": 94
    },
    {
      "midi": 56,
      "hit": false,
      "t": 88945.3125,
      "d": 78.125,
      "v": 94
    },
    {
      "midi": 68,
      "hit": false,
      "t": 88945.3125,
      "d": 78.125,
      "v": 94
    },
    {
      "midi": 56,
      "hit": false,
      "t": 89062.5,
      "d": 937.5,
      "v": 114
    },
    {
      "midi": 68,
      "hit": false,
      "t": 89062.5,
      "d": 937.5,
      "v": 114
    },
    {
      "midi": 68,
      "hit": false,
      "t": 90000,
      "d": 1718.75,
      "v": 114
    },
    {
      "midi": 80,
      "hit": false,
      "t": 90000,
      "d": 1718.75,
      "v": 114
    },
    {
      "midi": 49,
      "hit": false,
      "t": 90000,
      "d": 1875,
      "v": 94
    },
    {
      "midi": 56,
      "hit": false,
      "t": 90000,
      "d": 1875,
      "v": 94
    },
    {
      "midi": 61,
      "hit": false,
      "t": 90000,
      "d": 1875,
      "v": 94
    },
    {
      "midi": 68,
      "hit": false,
      "t": 91757.8125,
      "d": 78.125,
      "v": 114
    },
    {
      "midi": 80,
      "hit": false,
      "t": 91757.8125,
      "d": 78.125,
      "v": 114
    },
    {
      "midi": 68,
      "hit": false,
      "t": 91879.8828125,
      "d": 1474.609375,
      "v": 114
    },
    {
      "midi": 61,
      "hit": false,
      "t": 91889.6484375,
      "d": 922.8515625,
      "v": 94
    },
    {
      "midi": 80,
      "hit": false,
      "t": 91889.6484375,
      "d": 1464.84375,
      "v": 114
    },
    {
      "midi": 49,
      "hit": false,
      "t": 91889.6484375,
      "d": 1860.3515625,
      "v": 94
    },
    {
      "midi": 56,
      "hit": false,
      "t": 91889.6484375,
      "d": 1860.3515625,
      "v": 94
    },
    {
      "midi": 61,
      "hit": false,
      "t": 92812.5,
      "d": 937.5,
      "v": 94
    },
    {
      "midi": 73,
      "hit": false,
      "t": 92812.5,
      "d": 937.5,
      "v": 94
    },
    {
      "midi": 68,
      "hit": false,
      "t": 93759.765625,
      "d": 1474.609375,
      "v": 102
    },
    {
      "midi": 44,
      "hit": false,
      "t": 93759.765625,
      "d": 1865.234375,
      "v": 94
    },
    {
      "midi": 51,
      "hit": false,
      "t": 93759.765625,
      "d": 1865.234375,
      "v": 94
    },
    {
      "midi": 56,
      "hit": false,
      "t": 93759.765625,
      "d": 1865.234375,
      "v": 94
    },
    {
      "midi": 68,
      "hit": false,
      "t": 95507.8125,
      "d": 78.125,
      "v": 114
    },
    {
      "midi": 44,
      "hit": false,
      "t": 95625,
      "d": 1870.1171875,
      "v": 94
    },
    {
      "midi": 51,
      "hit": false,
      "t": 95625,
      "d": 1870.1171875,
      "v": 94
    },
    {
      "midi": 56,
      "hit": false,
      "t": 95625,
      "d": 1870.1171875,
      "v": 94
    },
    {
      "midi": 68,
      "hit": false,
      "t": 95625,
      "d": 1870.1171875,
      "v": 114
    },
    {
      "midi": 75,
      "hit": false,
      "t": 96542.96875,
      "d": 898.4375,
      "v": 82
    },
    {
      "midi": 45,
      "hit": false,
      "t": 97504.8828125,
      "d": 1870.1171875,
      "v": 94
    },
    {
      "midi": 52,
      "hit": false,
      "t": 97504.8828125,
      "d": 1870.1171875,
      "v": 94
    },
    {
      "midi": 59,
      "hit": false,
      "t": 97504.8828125,
      "d": 1870.1171875,
      "v": 94
    },
    {
      "midi": 61,
      "hit": false,
      "t": 97504.8828125,
      "d": 1870.1171875,
      "v": 94
    },
    {
      "midi": 71,
      "hit": false,
      "t": 98789.0625,
      "d": 73.2421875,
      "v": 87
    },
    {
      "midi": 73,
      "hit": false,
      "t": 98911.1328125,
      "d": 83.0078125,
      "v": 91
    },
    {
      "midi": 75,
      "hit": false,
      "t": 99028.3203125,
      "d": 83.0078125,
      "v": 100
    },
    {
      "midi": 76,
      "hit": false,
      "t": 99172.36328125,
      "d": 90.33203125,
      "v": 100
    },
    {
      "midi": 76,
      "hit": false,
      "t": 99331.0546875,
      "d": 131.8359375,
      "v": 100
    },
    {
      "midi": 47,
      "hit": false,
      "t": 99375,
      "d": 1875,
      "v": 94
    },
    {
      "midi": 54,
      "hit": false,
      "t": 99375,
      "d": 1875,
      "v": 94
    },
    {
      "midi": 57,
      "hit": false,
      "t": 99375,
      "d": 1875,
      "v": 94
    },
    {
      "midi": 61,
      "hit": false,
      "t": 99375,
      "d": 1875,
      "v": 94
    },
    {
      "midi": 75,
      "hit": false,
      "t": 99487.3046875,
      "d": 144.04296875,
      "v": 91
    },
    {
      "midi": 73,
      "hit": false,
      "t": 99614.2578125,
      "d": 109.86328125,
      "v": 72
    },
    {
      "midi": 75,
      "hit": false,
      "t": 99790.0390625,
      "d": 732.421875,
      "v": 102
    },
    {
      "midi": 59,
      "hit": false,
      "t": 99843.75,
      "d": 1113.28125,
      "v": 114
    },
    {
      "midi": 40,
      "hit": false,
      "t": 101259.765625,
      "d": 1865.234375,
      "v": 94
    },
    {
      "midi": 52,
      "hit": false,
      "t": 101259.765625,
      "d": 1865.234375,
      "v": 94
    },
    {
      "midi": 59,
      "hit": false,
      "t": 101259.765625,
      "d": 1865.234375,
      "v": 94
    },
    {
      "midi": 64,
      "hit": false,
      "t": 101259.765625,
      "d": 1865.234375,
      "v": 94
    },
    {
      "midi": 76,
      "hit": false,
      "t": 101953.125,
      "d": 117.1875,
      "v": 94
    },
    {
      "midi": 78,
      "hit": false,
      "t": 102070.3125,
      "d": 117.1875,
      "v": 94
    },
    {
      "midi": 81,
      "hit": false,
      "t": 102197.265625,
      "d": 146.484375,
      "v": 94
    },
    {
      "midi": 80,
      "hit": false,
      "t": 102343.75,
      "d": 151.3671875,
      "v": 94
    },
    {
      "midi": 78,
      "hit": false,
      "t": 102500,
      "d": 156.25,
      "v": 94
    },
    {
      "midi": 83,
      "hit": false,
      "t": 102656.25,
      "d": 156.25,
      "v": 94
    },
    {
      "midi": 81,
      "hit": false,
      "t": 102812.5,
      "d": 156.25,
      "v": 94
    },
    {
      "midi": 80,
      "hit": false,
      "t": 102968.75,
      "d": 156.25,
      "v": 94
    },
    {
      "midi": 44,
      "hit": false,
      "t": 103125,
      "d": 1875,
      "v": 94
    },
    {
      "midi": 51,
      "hit": false,
      "t": 103125,
      "d": 1875,
      "v": 94
    },
    {
      "midi": 68,
      "hit": false,
      "t": 103388.671875,
      "d": 48.828125,
      "v": 91
    },
    {
      "midi": 68,
      "hit": false,
      "t": 103598.6328125,
      "d": 58.59375,
      "v": 100
    },
    {
      "midi": 68,
      "hit": false,
      "t": 103835.44921875,
      "d": 68.359375,
      "v": 100
    },
    {
      "midi": 56,
      "hit": false,
      "t": 103940.4296875,
      "d": 4.8828125,
      "v": 94
    },
    {
      "midi": 68,
      "hit": false,
      "t": 103950.1953125,
      "d": 78.125,
      "v": 94
    },
    {
      "midi": 56,
      "hit": false,
      "t": 104062.5,
      "d": 937.5,
      "v": 114
    },
    {
      "midi": 68,
      "hit": false,
      "t": 104082.03125,
      "d": 371.09375,
      "v": 107
    },
    {
      "midi": 73,
      "hit": false,
      "t": 104531.25,
      "d": 92.7734375,
      "v": 107
    },
    {
      "midi": 75,
      "hit": false,
      "t": 104760.7421875,
      "d": 112.3046875,
      "v": 102
    },
    {
      "midi": 68,
      "hit": false,
      "t": 105000,
      "d": 1718.75,
      "v": 114
    },
    {
      "midi": 80,
      "hit": false,
      "t": 105000,
      "d": 1718.75,
      "v": 114
    },
    {
      "midi": 49,
      "hit": false,
      "t": 105000,
      "d": 1875,
      "v": 94
    },
    {
      "midi": 56,
      "hit": false,
      "t": 105000,
      "d": 1875,
      "v": 94
    },
    {
      "midi": 61,
      "hit": false,
      "t": 105000,
      "d": 1875,
      "v": 94
    },
    {
      "midi": 76,
      "hit": false,
      "t": 105009.765625,
      "d": 703.125,
      "v": 107
    },
    {
      "midi": 75,
      "hit": false,
      "t": 106118.1640625,
      "d": 95.21484375,
      "v": 74
    },
    {
      "midi": 73,
      "hit": false,
      "t": 106250,
      "d": 95.21484375,
      "v": 68
    },
    {
      "midi": 71,
      "hit": false,
      "t": 106391.6015625,
      "d": 358.88671875,
      "v": 95
    },
    {
      "midi": 69,
      "hit": false,
      "t": 106721.19140625,
      "d": 102.5390625,
      "v": 82
    },
    {
      "midi": 68,
      "hit": false,
      "t": 106757.8125,
      "d": 78.125,
      "v": 114
    },
    {
      "midi": 80,
      "hit": false,
      "t": 106757.8125,
      "d": 78.125,
      "v": 114
    },
    {
      "midi": 68,
      "hit": false,
      "t": 106879.8828125,
      "d": 527.34375,
      "v": 114
    },
    {
      "midi": 61,
      "hit": false,
      "t": 106889.6484375,
      "d": 922.8515625,
      "v": 94
    },
    {
      "midi": 80,
      "hit": false,
      "t": 106889.6484375,
      "d": 1464.84375,
      "v": 114
    },
    {
      "midi": 49,
      "hit": false,
      "t": 106889.6484375,
      "d": 1860.3515625,
      "v": 94
    },
    {
      "midi": 56,
      "hit": false,
      "t": 106889.6484375,
      "d": 1860.3515625,
      "v": 94
    },
    {
      "midi": 61,
      "hit": false,
      "t": 107812.5,
      "d": 937.5,
      "v": 94
    },
    {
      "midi": 73,
      "hit": false,
      "t": 107812.5,
      "d": 937.5,
      "v": 94
    },
    {
      "midi": 68,
      "hit": false,
      "t": 108759.765625,
      "d": 1474.609375,
      "v": 102
    },
    {
      "midi": 44,
      "hit": false,
      "t": 108759.765625,
      "d": 1865.234375,
      "v": 94
    },
    {
      "midi": 51,
      "hit": false,
      "t": 108759.765625,
      "d": 1865.234375,
      "v": 94
    },
    {
      "midi": 56,
      "hit": false,
      "t": 108759.765625,
      "d": 1865.234375,
      "v": 94
    },
    {
      "midi": 68,
      "hit": false,
      "t": 110507.8125,
      "d": 78.125,
      "v": 114
    },
    {
      "midi": 44,
      "hit": false,
      "t": 110625,
      "d": 1870.1171875,
      "v": 94
    },
    {
      "midi": 51,
      "hit": false,
      "t": 110625,
      "d": 1870.1171875,
      "v": 94
    },
    {
      "midi": 56,
      "hit": false,
      "t": 110625,
      "d": 1870.1171875,
      "v": 94
    },
    {
      "midi": 68,
      "hit": false,
      "t": 110625,
      "d": 1870.1171875,
      "v": 114
    },
    {
      "midi": 75,
      "hit": false,
      "t": 111542.96875,
      "d": 898.4375,
      "v": 82
    },
    {
      "midi": 45,
      "hit": false,
      "t": 112504.8828125,
      "d": 1870.1171875,
      "v": 94
    },
    {
      "midi": 52,
      "hit": false,
      "t": 112504.8828125,
      "d": 1870.1171875,
      "v": 94
    },
    {
      "midi": 59,
      "hit": false,
      "t": 112504.8828125,
      "d": 1870.1171875,
      "v": 94
    },
    {
      "midi": 61,
      "hit": false,
      "t": 112504.8828125,
      "d": 1870.1171875,
      "v": 94
    },
    {
      "midi": 71,
      "hit": false,
      "t": 113789.0625,
      "d": 73.2421875,
      "v": 87
    },
    {
      "midi": 73,
      "hit": false,
      "t": 113911.1328125,
      "d": 83.0078125,
      "v": 91
    },
    {
      "midi": 75,
      "hit": false,
      "t": 114028.3203125,
      "d": 83.0078125,
      "v": 100
    },
    {
      "midi": 76,
      "hit": false,
      "t": 114172.36328125,
      "d": 90.33203125,
      "v": 100
    },
    {
      "midi": 76,
      "hit": false,
      "t": 114331.0546875,
      "d": 131.8359375,
      "v": 100
    },
    {
      "midi": 47,
      "hit": false,
      "t": 114375,
      "d": 1875,
      "v": 94
    },
    {
      "midi": 54,
      "hit": false,
      "t": 114375,
      "d": 1875,
      "v": 94
    },
    {
      "midi": 57,
      "hit": false,
      "t": 114375,
      "d": 1875,
      "v": 94
    },
    {
      "midi": 61,
      "hit": false,
      "t": 114375,
      "d": 1875,
      "v": 94
    },
    {
      "midi": 75,
      "hit": false,
      "t": 114487.3046875,
      "d": 144.04296875,
      "v": 91
    },
    {
      "midi": 73,
      "hit": false,
      "t": 114614.2578125,
      "d": 109.86328125,
      "v": 72
    },
    {
      "midi": 75,
      "hit": false,
      "t": 114790.0390625,
      "d": 732.421875,
      "v": 102
    },
    {
      "midi": 59,
      "hit": false,
      "t": 114843.75,
      "d": 1113.28125,
      "v": 114
    },
    {
      "midi": 40,
      "hit": false,
      "t": 116259.765625,
      "d": 1865.234375,
      "v": 94
    },
    {
      "midi": 52,
      "hit": false,
      "t": 116259.765625,
      "d": 1865.234375,
      "v": 94
    },
    {
      "midi": 59,
      "hit": false,
      "t": 116259.765625,
      "d": 1865.234375,
      "v": 94
    },
    {
      "midi": 64,
      "hit": false,
      "t": 116259.765625,
      "d": 1865.234375,
      "v": 94
    },
    {
      "midi": 76,
      "hit": false,
      "t": 116953.125,
      "d": 117.1875,
      "v": 94
    },
    {
      "midi": 78,
      "hit": false,
      "t": 117070.3125,
      "d": 117.1875,
      "v": 94
    },
    {
      "midi": 81,
      "hit": false,
      "t": 117197.265625,
      "d": 146.484375,
      "v": 94
    },
    {
      "midi": 80,
      "hit": false,
      "t": 117343.75,
      "d": 151.3671875,
      "v": 94
    },
    {
      "midi": 78,
      "hit": false,
      "t": 117500,
      "d": 156.25,
      "v": 94
    },
    {
      "midi": 83,
      "hit": false,
      "t": 117656.25,
      "d": 156.25,
      "v": 94
    },
    {
      "midi": 81,
      "hit": false,
      "t": 117812.5,
      "d": 156.25,
      "v": 94
    },
    {
      "midi": 80,
      "hit": false,
      "t": 117968.75,
      "d": 156.25,
      "v": 94
    },
    {
      "midi": 44,
      "hit": false,
      "t": 118125,
      "d": 1875,
      "v": 94
    },
    {
      "midi": 51,
      "hit": false,
      "t": 118125,
      "d": 1875,
      "v": 94
    },
    {
      "midi": 68,
      "hit": false,
      "t": 118386.23046875,
      "d": 56.15234375,
      "v": 100
    },
    {
      "midi": 68,
      "hit": false,
      "t": 118598.6328125,
      "d": 83.0078125,
      "v": 105
    },
    {
      "midi": 68,
      "hit": false,
      "t": 118830.56640625,
      "d": 75.68359375,
      "v": 102
    },
    {
      "midi": 56,
      "hit": false,
      "t": 118937.98828125,
      "d": 7.32421875,
      "v": 94
    },
    {
      "midi": 68,
      "hit": false,
      "t": 118950.1953125,
      "d": 78.125,
      "v": 94
    },
    {
      "midi": 56,
      "hit": false,
      "t": 119062.5,
      "d": 937.5,
      "v": 114
    },
    {
      "midi": 68,
      "hit": false,
      "t": 119067.3828125,
      "d": 393.06640625,
      "v": 110
    },
    {
      "midi": 73,
      "hit": false,
      "t": 119519.04296875,
      "d": 97.65625,
      "v": 105
    },
    {
      "midi": 75,
      "hit": false,
      "t": 119755.859375,
      "d": 100.09765625,
      "v": 110
    },
    {
      "midi": 68,
      "hit": false,
      "t": 120000,
      "d": 1718.75,
      "v": 114
    },
    {
      "midi": 80,
      "hit": false,
      "t": 120000,
      "d": 1718.75,
      "v": 114
    },
    {
      "midi": 49,
      "hit": false,
      "t": 120000,
      "d": 1875,
      "v": 94
    },
    {
      "midi": 56,
      "hit": false,
      "t": 120000,
      "d": 1875,
      "v": 94
    },
    {
      "midi": 61,
      "hit": false,
      "t": 120000,
      "d": 1875,
      "v": 94
    },
    {
      "midi": 76,
      "hit": false,
      "t": 120002.44140625,
      "d": 881.34765625,
      "v": 113
    },
    {
      "midi": 75,
      "hit": false,
      "t": 121130.37109375,
      "d": 100.09765625,
      "v": 82
    },
    {
      "midi": 73,
      "hit": false,
      "t": 121274.4140625,
      "d": 63.4765625,
      "v": 72
    },
    {
      "midi": 73,
      "hit": false,
      "t": 121408.69140625,
      "d": 36.62109375,
      "v": 68
    },
    {
      "midi": 71,
      "hit": false,
      "t": 121420.8984375,
      "d": 327.1484375,
      "v": 105
    },
    {
      "midi": 69,
      "hit": false,
      "t": 121713.8671875,
      "d": 80.56640625,
      "v": 98
    },
    {
      "midi": 68,
      "hit": false,
      "t": 121757.8125,
      "d": 78.125,
      "v": 114
    },
    {
      "midi": 80,
      "hit": false,
      "t": 121757.8125,
      "d": 78.125,
      "v": 114
    },
    {
      "midi": 68,
      "hit": false,
      "t": 121879.8828125,
      "d": 524.90234375,
      "v": 114
    },
    {
      "midi": 61,
      "hit": false,
      "t": 121889.6484375,
      "d": 922.8515625,
      "v": 94
    },
    {
      "midi": 80,
      "hit": false,
      "t": 121889.6484375,
      "d": 1464.84375,
      "v": 114
    },
    {
      "midi": 49,
      "hit": false,
      "t": 121889.6484375,
      "d": 1860.3515625,
      "v": 94
    },
    {
      "midi": 56,
      "hit": false,
      "t": 121889.6484375,
      "d": 1860.3515625,
      "v": 94
    },
    {
      "midi": 61,
      "hit": false,
      "t": 122812.5,
      "d": 937.5,
      "v": 94
    },
    {
      "midi": 73,
      "hit": false,
      "t": 122812.5,
      "d": 937.5,
      "v": 94
    },
    {
      "midi": 68,
      "hit": false,
      "t": 123759.765625,
      "d": 1474.609375,
      "v": 102
    },
    {
      "midi": 44,
      "hit": false,
      "t": 123759.765625,
      "d": 1865.234375,
      "v": 94
    },
    {
      "midi": 51,
      "hit": false,
      "t": 123759.765625,
      "d": 1865.234375,
      "v": 94
    },
    {
      "midi": 56,
      "hit": false,
      "t": 123759.765625,
      "d": 1865.234375,
      "v": 94
    },
    {
      "midi": 68,
      "hit": false,
      "t": 125507.8125,
      "d": 78.125,
      "v": 114
    },
    {
      "midi": 44,
      "hit": false,
      "t": 125625,
      "d": 1870.1171875,
      "v": 94
    },
    {
      "midi": 51,
      "hit": false,
      "t": 125625,
      "d": 1870.1171875,
      "v": 94
    },
    {
      "midi": 56,
      "hit": false,
      "t": 125625,
      "d": 1870.1171875,
      "v": 94
    },
    {
      "midi": 68,
      "hit": false,
      "t": 125625,
      "d": 1870.1171875,
      "v": 114
    },
    {
      "midi": 75,
      "hit": false,
      "t": 126542.96875,
      "d": 898.4375,
      "v": 82
    },
    {
      "midi": 45,
      "hit": false,
      "t": 127504.8828125,
      "d": 1870.1171875,
      "v": 94
    },
    {
      "midi": 52,
      "hit": false,
      "t": 127504.8828125,
      "d": 1870.1171875,
      "v": 94
    },
    {
      "midi": 59,
      "hit": false,
      "t": 127504.8828125,
      "d": 1870.1171875,
      "v": 94
    },
    {
      "midi": 61,
      "hit": false,
      "t": 127504.8828125,
      "d": 1870.1171875,
      "v": 94
    },
    {
      "midi": 71,
      "hit": false,
      "t": 128789.0625,
      "d": 73.2421875,
      "v": 87
    },
    {
      "midi": 73,
      "hit": false,
      "t": 128911.1328125,
      "d": 83.0078125,
      "v": 91
    },
    {
      "midi": 75,
      "hit": false,
      "t": 129028.3203125,
      "d": 83.0078125,
      "v": 100
    },
    {
      "midi": 76,
      "hit": false,
      "t": 129172.36328125,
      "d": 90.33203125,
      "v": 100
    },
    {
      "midi": 76,
      "hit": false,
      "t": 129331.0546875,
      "d": 131.8359375,
      "v": 100
    },
    {
      "midi": 47,
      "hit": false,
      "t": 129375,
      "d": 1875,
      "v": 94
    },
    {
      "midi": 54,
      "hit": false,
      "t": 129375,
      "d": 1875,
      "v": 94
    },
    {
      "midi": 57,
      "hit": false,
      "t": 129375,
      "d": 1875,
      "v": 94
    },
    {
      "midi": 61,
      "hit": false,
      "t": 129375,
      "d": 1875,
      "v": 94
    },
    {
      "midi": 75,
      "hit": false,
      "t": 129487.3046875,
      "d": 144.04296875,
      "v": 91
    },
    {
      "midi": 73,
      "hit": false,
      "t": 129614.2578125,
      "d": 109.86328125,
      "v": 72
    },
    {
      "midi": 75,
      "hit": false,
      "t": 129790.0390625,
      "d": 732.421875,
      "v": 102
    },
    {
      "midi": 59,
      "hit": false,
      "t": 129843.75,
      "d": 1113.28125,
      "v": 114
    },
    {
      "midi": 71,
      "hit": false,
      "t": 131259.765625,
      "d": 458.984375,
      "v": 94
    },
    {
      "midi": 40,
      "hit": false,
      "t": 131264.6484375,
      "d": 922.8515625,
      "v": 114
    },
    {
      "midi": 47,
      "hit": false,
      "t": 131264.6484375,
      "d": 922.8515625,
      "v": 114
    },
    {
      "midi": 52,
      "hit": false,
      "t": 131264.6484375,
      "d": 922.8515625,
      "v": 114
    },
    {
      "midi": 73,
      "hit": false,
      "t": 131718.75,
      "d": 468.75,
      "v": 94
    },
    {
      "midi": 75,
      "hit": false,
      "t": 132187.5,
      "d": 468.75,
      "v": 94
    },
    {
      "midi": 44,
      "hit": false,
      "t": 132187.5,
      "d": 937.5,
      "v": 94
    },
    {
      "midi": 51,
      "hit": false,
      "t": 132187.5,
      "d": 937.5,
      "v": 94
    },
    {
      "midi": 56,
      "hit": false,
      "t": 132187.5,
      "d": 937.5,
      "v": 94
    },
    {
      "midi": 80,
      "hit": false,
      "t": 132656.25,
      "d": 468.75,
      "v": 94
    },
    {
      "midi": 37,
      "hit": false,
      "t": 133125,
      "d": 117.1875,
      "v": 94
    },
    {
      "midi": 44,
      "hit": false,
      "t": 133125,
      "d": 117.1875,
      "v": 94
    },
    {
      "midi": 49,
      "hit": false,
      "t": 133125,
      "d": 117.1875,
      "v": 94
    },
    {
      "midi": 85,
      "hit": false,
      "t": 133125,
      "d": 117.1875,
      "v": 94
    }
  ]
}