{
  "jsonPath": "World/Chanson/France Gall/monopolis.json",
  "path": "World\\Chanson\\France Gall\\Monopolis.mid",
  "name": "Monopolis",
  "difficulty": "Advanced",
  "bpm": 120.01008084679113,
  "notes": [
    {
      "midi": 60,
      "hit": false,
      "t": 5328.592000000001,
      "d": 999.1109999999999,
      "v": 76
    },
    {
      "midi": 67,
      "hit": false,
      "t": 5328.592000000001,
      "d": 999.1109999999999,
      "v": 64
    },
    {
      "midi": 64,
      "hit": false,
      "t": 5328.592000000001,
      "d": 1010.2122333333336,
      "v": 80
    },
    {
      "midi": 48,
      "hit": false,
      "t": 5328.592000000001,
      "d": 5284.187066666667,
      "v": 92
    },
    {
      "midi": 55,
      "hit": false,
      "t": 5972.4635333333335,
      "d": 1021.3134666666674,
      "v": 64
    },
    {
      "midi": 60,
      "hit": false,
      "t": 6638.537533333334,
      "d": 1076.8196333333335,
      "v": 53
    },
    {
      "midi": 64,
      "hit": false,
      "t": 6638.537533333334,
      "d": 1076.8196333333335,
      "v": 58
    },
    {
      "midi": 67,
      "hit": false,
      "t": 6638.537533333334,
      "d": 1076.8196333333335,
      "v": 55
    },
    {
      "midi": 55,
      "hit": false,
      "t": 7304.611533333335,
      "d": 921.4023666666671,
      "v": 72
    },
    {
      "midi": 59,
      "hit": false,
      "t": 7970.685533333334,
      "d": 999.1110000000017,
      "v": 80
    },
    {
      "midi": 64,
      "hit": false,
      "t": 7970.685533333334,
      "d": 999.1110000000017,
      "v": 76
    },
    {
      "midi": 67,
      "hit": false,
      "t": 7970.685533333334,
      "d": 999.1110000000017,
      "v": 61
    },
    {
      "midi": 55,
      "hit": false,
      "t": 8636.759533333336,
      "d": 854.7949666666664,
      "v": 53
    },
    {
      "midi": 64,
      "hit": false,
      "t": 9302.833533333336,
      "d": 899.1998999999996,
      "v": 55
    },
    {
      "midi": 67,
      "hit": false,
      "t": 9302.833533333336,
      "d": 899.1998999999996,
      "v": 50
    },
    {
      "midi": 59,
      "hit": false,
      "t": 9302.833533333336,
      "d": 910.3011333333325,
      "v": 58
    },
    {
      "midi": 55,
      "hit": false,
      "t": 9968.907533333335,
      "d": 666.0740000000005,
      "v": 46
    },
    {
      "midi": 60,
      "hit": false,
      "t": 10634.981533333335,
      "d": 1010.2122333333336,
      "v": 76
    },
    {
      "midi": 67,
      "hit": false,
      "t": 10634.981533333335,
      "d": 1010.2122333333336,
      "v": 64
    },
    {
      "midi": 64,
      "hit": false,
      "t": 10634.981533333335,
      "d": 1021.3134666666665,
      "v": 80
    },
    {
      "midi": 48,
      "hit": false,
      "t": 10634.981533333335,
      "d": 5295.288299999998,
      "v": 92
    },
    {
      "midi": 55,
      "hit": false,
      "t": 11301.055533333336,
      "d": 1021.3134666666647,
      "v": 64
    },
    {
      "midi": 60,
      "hit": false,
      "t": 11967.129533333335,
      "d": 1076.8196333333326,
      "v": 53
    },
    {
      "midi": 64,
      "hit": false,
      "t": 11967.129533333335,
      "d": 1076.8196333333326,
      "v": 58
    },
    {
      "midi": 67,
      "hit": false,
      "t": 11967.129533333335,
      "d": 1076.8196333333326,
      "v": 55
    },
    {
      "midi": 55,
      "hit": false,
      "t": 12633.203533333333,
      "d": 921.4023666666671,
      "v": 72
    },
    {
      "midi": 59,
      "hit": false,
      "t": 13299.277533333334,
      "d": 999.1110000000008,
      "v": 80
    },
    {
      "midi": 64,
      "hit": false,
      "t": 13299.277533333334,
      "d": 999.1110000000008,
      "v": 76
    },
    {
      "midi": 67,
      "hit": false,
      "t": 13299.277533333334,
      "d": 999.1110000000008,
      "v": 61
    },
    {
      "midi": 55,
      "hit": false,
      "t": 13965.351533333334,
      "d": 854.7949666666664,
      "v": 53
    },
    {
      "midi": 64,
      "hit": false,
      "t": 14631.425533333335,
      "d": 899.1998999999996,
      "v": 55
    },
    {
      "midi": 67,
      "hit": false,
      "t": 14631.425533333335,
      "d": 899.1998999999996,
      "v": 50
    },
    {
      "midi": 59,
      "hit": false,
      "t": 14631.425533333335,
      "d": 910.3011333333325,
      "v": 58
    },
    {
      "midi": 55,
      "hit": false,
      "t": 15297.499533333334,
      "d": 666.0740000000005,
      "v": 46
    },
    {
      "midi": 45,
      "hit": false,
      "t": 15963.573533333334,
      "d": 4995.555000000009,
      "v": 64
    },
    {
      "midi": 69,
      "hit": false,
      "t": 16007.978466666667,
      "d": 1021.3134666666665,
      "v": 61
    },
    {
      "midi": 64,
      "hit": false,
      "t": 16019.0797,
      "d": 999.110999999999,
      "v": 66
    },
    {
      "midi": 60,
      "hit": false,
      "t": 16041.282166666668,
      "d": 1032.4147000000012,
      "v": 61
    },
    {
      "midi": 57,
      "hit": false,
      "t": 16629.647533333333,
      "d": 1065.7184000000052,
      "v": 52
    },
    {
      "midi": 64,
      "hit": false,
      "t": 17295.721533333337,
      "d": 1121.2245666666677,
      "v": 69
    },
    {
      "midi": 69,
      "hit": false,
      "t": 17295.721533333337,
      "d": 1143.4270333333334,
      "v": 53
    },
    {
      "midi": 60,
      "hit": false,
      "t": 17295.721533333337,
      "d": 1176.7307333333338,
      "v": 57
    },
    {
      "midi": 57,
      "hit": false,
      "t": 17961.795533333338,
      "d": 1132.3258000000023,
      "v": 53
    },
    {
      "midi": 64,
      "hit": false,
      "t": 18627.869533333338,
      "d": 1176.7307333333338,
      "v": 69
    },
    {
      "midi": 60,
      "hit": false,
      "t": 18627.869533333338,
      "d": 1187.8319666666684,
      "v": 66
    },
    {
      "midi": 67,
      "hit": false,
      "t": 18627.869533333338,
      "d": 1198.9332000000031,
      "v": 55
    },
    {
      "midi": 57,
      "hit": false,
      "t": 19293.94353333334,
      "d": 1054.6171666666705,
      "v": 49
    },
    {
      "midi": 64,
      "hit": false,
      "t": 19960.017533333343,
      "d": 1054.617166666667,
      "v": 61
    },
    {
      "midi": 60,
      "hit": false,
      "t": 19960.017533333343,
      "d": 1065.7184000000016,
      "v": 53
    },
    {
      "midi": 67,
      "hit": false,
      "t": 19960.017533333343,
      "d": 1076.8196333333362,
      "v": 49
    },
    {
      "midi": 57,
      "hit": false,
      "t": 20626.091533333343,
      "d": 666.0740000000042,
      "v": 40
    },
    {
      "midi": 45,
      "hit": false,
      "t": 20959.128533333344,
      "d": 255.32836666666844,
      "v": 87
    },
    {
      "midi": 50,
      "hit": false,
      "t": 21292.165533333347,
      "d": 5217.579666666665,
      "v": 82
    },
    {
      "midi": 69,
      "hit": false,
      "t": 21325.469233333348,
      "d": 921.4023666666617,
      "v": 68
    },
    {
      "midi": 65,
      "hit": false,
      "t": 21347.671700000014,
      "d": 921.4023666666617,
      "v": 68
    },
    {
      "midi": 62,
      "hit": false,
      "t": 21369.87416666668,
      "d": 899.199899999996,
      "v": 72
    },
    {
      "midi": 57,
      "hit": false,
      "t": 21958.239533333344,
      "d": 1032.4146999999975,
      "v": 46
    },
    {
      "midi": 62,
      "hit": false,
      "t": 22624.31353333334,
      "d": 865.8961999999992,
      "v": 53
    },
    {
      "midi": 65,
      "hit": false,
      "t": 22624.31353333334,
      "d": 943.604833333331,
      "v": 53
    },
    {
      "midi": 69,
      "hit": false,
      "t": 22624.31353333334,
      "d": 965.8072999999968,
      "v": 50
    },
    {
      "midi": 57,
      "hit": false,
      "t": 23290.38753333334,
      "d": 699.3776999999973,
      "v": 46
    },
    {
      "midi": 60,
      "hit": false,
      "t": 23956.46153333334,
      "d": 921.402366666669,
      "v": 61
    },
    {
      "midi": 65,
      "hit": false,
      "t": 23956.46153333334,
      "d": 976.9085333333351,
      "v": 61
    },
    {
      "midi": 69,
      "hit": false,
      "t": 23956.46153333334,
      "d": 976.9085333333351,
      "v": 50
    },
    {
      "midi": 57,
      "hit": false,
      "t": 24622.53553333334,
      "d": 754.883866666667,
      "v": 48
    },
    {
      "midi": 60,
      "hit": false,
      "t": 25288.60953333334,
      "d": 921.402366666669,
      "v": 55
    },
    {
      "midi": 65,
      "hit": false,
      "t": 25288.60953333334,
      "d": 954.7060666666694,
      "v": 53
    },
    {
      "midi": 69,
      "hit": false,
      "t": 25288.60953333334,
      "d": 965.807300000004,
      "v": 44
    },
    {
      "midi": 57,
      "hit": false,
      "t": 25954.68353333334,
      "d": 666.0740000000078,
      "v": 48
    },
    {
      "midi": 43,
      "hit": false,
      "t": 26620.757533333348,
      "d": 2253.5503666666664,
      "v": 62
    },
    {
      "midi": 65,
      "hit": false,
      "t": 26642.960000000014,
      "d": 943.6048333333347,
      "v": 67
    },
    {
      "midi": 60,
      "hit": false,
      "t": 26665.16246666668,
      "d": 965.807300000004,
      "v": 74
    },
    {
      "midi": 62,
      "hit": false,
      "t": 26676.263700000014,
      "d": 954.7060666666694,
      "v": 74
    },
    {
      "midi": 55,
      "hit": false,
      "t": 27286.83153333335,
      "d": 954.7060666666657,
      "v": 61
    },
    {
      "midi": 65,
      "hit": false,
      "t": 27952.90553333335,
      "d": 1276.6418333333313,
      "v": 54
    },
    {
      "midi": 60,
      "hit": false,
      "t": 27952.90553333335,
      "d": 1298.844299999997,
      "v": 54
    },
    {
      "midi": 62,
      "hit": false,
      "t": 27952.90553333335,
      "d": 1298.844299999997,
      "v": 61
    },
    {
      "midi": 55,
      "hit": false,
      "t": 28929.81406666668,
      "d": 333.03700000000026,
      "v": 86
    },
    {
      "midi": 43,
      "hit": false,
      "t": 29285.053533333346,
      "d": 2619.8910666666707,
      "v": 92
    },
    {
      "midi": 62,
      "hit": false,
      "t": 29307.256000000012,
      "d": 1087.9208666666673,
      "v": 61
    },
    {
      "midi": 59,
      "hit": false,
      "t": 29318.357233333347,
      "d": 1087.9208666666673,
      "v": 82
    },
    {
      "midi": 65,
      "hit": false,
      "t": 29362.762166666682,
      "d": 1076.8196333333326,
      "v": 46
    },
    {
      "midi": 55,
      "hit": false,
      "t": 29951.127533333347,
      "d": 921.402366666669,
      "v": 54
    },
    {
      "midi": 59,
      "hit": false,
      "t": 30617.201533333347,
      "d": 1332.1480000000047,
      "v": 42
    },
    {
      "midi": 62,
      "hit": false,
      "t": 30617.201533333347,
      "d": 1332.1480000000047,
      "v": 50
    },
    {
      "midi": 65,
      "hit": false,
      "t": 30617.201533333347,
      "d": 1332.1480000000047,
      "v": 42
    },
    {
      "midi": 55,
      "hit": false,
      "t": 31283.275533333348,
      "d": 666.0740000000042,
      "v": 73
    },
    {
      "midi": 57,
      "hit": false,
      "t": 31949.349533333352,
      "d": 976.9085333333314,
      "v": 64
    },
    {
      "midi": 65,
      "hit": false,
      "t": 31949.349533333352,
      "d": 1010.2122333333282,
      "v": 58
    },
    {
      "midi": 62,
      "hit": false,
      "t": 31949.349533333352,
      "d": 1021.3134666666629,
      "v": 61
    },
    {
      "midi": 43,
      "hit": false,
      "t": 31949.349533333352,
      "d": 2575.4861333333356,
      "v": 68
    },
    {
      "midi": 50,
      "hit": false,
      "t": 32615.423533333353,
      "d": 1076.819633333329,
      "v": 53
    },
    {
      "midi": 59,
      "hit": false,
      "t": 33281.49753333335,
      "d": 954.7060666666657,
      "v": 46
    },
    {
      "midi": 65,
      "hit": false,
      "t": 33281.49753333335,
      "d": 976.9085333333351,
      "v": 59
    },
    {
      "midi": 62,
      "hit": false,
      "t": 33281.49753333335,
      "d": 999.1110000000044,
      "v": 55
    },
    {
      "midi": 50,
      "hit": false,
      "t": 33947.57153333335,
      "d": 566.162900000003,
      "v": 59
    },
    {
      "midi": 60,
      "hit": false,
      "t": 34613.64553333336,
      "d": 1010.2122333333391,
      "v": 76
    },
    {
      "midi": 67,
      "hit": false,
      "t": 34613.64553333336,
      "d": 1010.2122333333391,
      "v": 64
    },
    {
      "midi": 48,
      "hit": false,
      "t": 34613.64553333336,
      "d": 5295.288300000007,
      "v": 92
    },
    {
      "midi": 64,
      "hit": false,
      "t": 34635.84800000003,
      "d": 1010.2122333333391,
      "v": 80
    },
    {
      "midi": 55,
      "hit": false,
      "t": 35279.719533333366,
      "d": 1021.3134666666665,
      "v": 64
    },
    {
      "midi": 60,
      "hit": false,
      "t": 35945.793533333366,
      "d": 1076.8196333333326,
      "v": 53
    },
    {
      "midi": 64,
      "hit": false,
      "t": 35945.793533333366,
      "d": 1076.8196333333326,
      "v": 58
    },
    {
      "midi": 67,
      "hit": false,
      "t": 35945.793533333366,
      "d": 1076.8196333333326,
      "v": 55
    },
    {
      "midi": 55,
      "hit": false,
      "t": 36611.86753333337,
      "d": 921.402366666669,
      "v": 72
    },
    {
      "midi": 59,
      "hit": false,
      "t": 37277.94153333337,
      "d": 999.1109999999971,
      "v": 80
    },
    {
      "midi": 64,
      "hit": false,
      "t": 37277.94153333337,
      "d": 999.1109999999971,
      "v": 76
    },
    {
      "midi": 67,
      "hit": false,
      "t": 37277.94153333337,
      "d": 999.1109999999971,
      "v": 61
    },
    {
      "midi": 55,
      "hit": false,
      "t": 37944.01553333337,
      "d": 854.7949666666609,
      "v": 53
    },
    {
      "midi": 64,
      "hit": false,
      "t": 38610.08953333336,
      "d": 899.1998999999996,
      "v": 55
    },
    {
      "midi": 67,
      "hit": false,
      "t": 38610.08953333336,
      "d": 899.1998999999996,
      "v": 50
    },
    {
      "midi": 59,
      "hit": false,
      "t": 38610.08953333336,
      "d": 910.3011333333343,
      "v": 58
    },
    {
      "midi": 55,
      "hit": false,
      "t": 39276.16353333336,
      "d": 666.0740000000005,
      "v": 46
    },
    {
      "midi": 45,
      "hit": false,
      "t": 39942.23753333336,
      "d": 4995.555000000008,
      "v": 64
    },
    {
      "midi": 69,
      "hit": false,
      "t": 39986.64246666669,
      "d": 1021.3134666666738,
      "v": 61
    },
    {
      "midi": 64,
      "hit": false,
      "t": 39997.74370000003,
      "d": 999.1110000000044,
      "v": 66
    },
    {
      "midi": 60,
      "hit": false,
      "t": 40019.9461666667,
      "d": 1032.4147000000012,
      "v": 61
    },
    {
      "midi": 57,
      "hit": false,
      "t": 40608.31153333336,
      "d": 1065.718399999998,
      "v": 52
    },
    {
      "midi": 64,
      "hit": false,
      "t": 41274.38553333336,
      "d": 1121.224566666664,
      "v": 69
    },
    {
      "midi": 69,
      "hit": false,
      "t": 41274.38553333336,
      "d": 1143.4270333333334,
      "v": 53
    },
    {
      "midi": 60,
      "hit": false,
      "t": 41274.38553333336,
      "d": 1176.7307333333301,
      "v": 57
    },
    {
      "midi": 57,
      "hit": false,
      "t": 41940.459533333364,
      "d": 1132.3257999999914,
      "v": 53
    },
    {
      "midi": 64,
      "hit": false,
      "t": 42606.53353333336,
      "d": 1176.7307333333374,
      "v": 69
    },
    {
      "midi": 60,
      "hit": false,
      "t": 42606.53353333336,
      "d": 1187.831966666672,
      "v": 66
    },
    {
      "midi": 67,
      "hit": false,
      "t": 42606.53353333336,
      "d": 1198.9332000000068,
      "v": 55
    },
    {
      "midi": 57,
      "hit": false,
      "t": 43272.60753333336,
      "d": 1054.6171666666778,
      "v": 49
    },
    {
      "midi": 64,
      "hit": false,
      "t": 43938.681533333365,
      "d": 1054.6171666666705,
      "v": 61
    },
    {
      "midi": 60,
      "hit": false,
      "t": 43938.681533333365,
      "d": 1065.7184000000052,
      "v": 53
    },
    {
      "midi": 67,
      "hit": false,
      "t": 43938.681533333365,
      "d": 1076.8196333333399,
      "v": 49
    },
    {
      "midi": 57,
      "hit": false,
      "t": 44604.755533333366,
      "d": 666.0740000000078,
      "v": 40
    },
    {
      "midi": 45,
      "hit": false,
      "t": 44937.79253333337,
      "d": 255.32836666666844,
      "v": 87
    },
    {
      "midi": 50,
      "hit": false,
      "t": 45270.82953333337,
      "d": 5217.5796666666865,
      "v": 82
    },
    {
      "midi": 69,
      "hit": false,
      "t": 45304.13323333337,
      "d": 921.402366666669,
      "v": 68
    },
    {
      "midi": 65,
      "hit": false,
      "t": 45326.33570000004,
      "d": 910.3011333333343,
      "v": 68
    },
    {
      "midi": 62,
      "hit": false,
      "t": 45348.53816666671,
      "d": 888.0986666666649,
      "v": 72
    },
    {
      "midi": 57,
      "hit": false,
      "t": 45936.903533333374,
      "d": 1032.4147000000012,
      "v": 46
    },
    {
      "midi": 62,
      "hit": false,
      "t": 46602.977533333375,
      "d": 865.8962000000029,
      "v": 53
    },
    {
      "midi": 65,
      "hit": false,
      "t": 46602.977533333375,
      "d": 943.6048333333383,
      "v": 53
    },
    {
      "midi": 69,
      "hit": false,
      "t": 46602.977533333375,
      "d": 965.8073000000077,
      "v": 50
    },
    {
      "midi": 57,
      "hit": false,
      "t": 47269.051533333375,
      "d": 688.2764666666772,
      "v": 46
    },
    {
      "midi": 60,
      "hit": false,
      "t": 47935.12553333338,
      "d": 921.402366666669,
      "v": 61
    },
    {
      "midi": 65,
      "hit": false,
      "t": 47935.12553333338,
      "d": 976.9085333333351,
      "v": 61
    },
    {
      "midi": 69,
      "hit": false,
      "t": 47935.12553333338,
      "d": 976.9085333333351,
      "v": 50
    },
    {
      "midi": 57,
      "hit": false,
      "t": 48601.19953333338,
      "d": 754.8838666666707,
      "v": 48
    },
    {
      "midi": 60,
      "hit": false,
      "t": 49267.273533333384,
      "d": 921.402366666669,
      "v": 55
    },
    {
      "midi": 65,
      "hit": false,
      "t": 49267.273533333384,
      "d": 954.706066666673,
      "v": 53
    },
    {
      "midi": 69,
      "hit": false,
      "t": 49267.273533333384,
      "d": 965.8073000000077,
      "v": 44
    },
    {
      "midi": 57,
      "hit": false,
      "t": 49933.347533333384,
      "d": 666.0740000000078,
      "v": 48
    },
    {
      "midi": 43,
      "hit": false,
      "t": 50599.42153333339,
      "d": 2253.55036666667,
      "v": 62
    },
    {
      "midi": 65,
      "hit": false,
      "t": 50621.62400000006,
      "d": 943.6048333333383,
      "v": 67
    },
    {
      "midi": 60,
      "hit": false,
      "t": 50643.82646666673,
      "d": 965.8073000000004,
      "v": 74
    },
    {
      "midi": 62,
      "hit": false,
      "t": 50654.927700000066,
      "d": 954.7060666666657,
      "v": 74
    },
    {
      "midi": 55,
      "hit": false,
      "t": 51265.4955333334,
      "d": 954.7060666666657,
      "v": 61
    },
    {
      "midi": 65,
      "hit": false,
      "t": 51931.5695333334,
      "d": 1276.6418333333277,
      "v": 54
    },
    {
      "midi": 60,
      "hit": false,
      "t": 51931.5695333334,
      "d": 1298.844299999997,
      "v": 54
    },
    {
      "midi": 62,
      "hit": false,
      "t": 51931.5695333334,
      "d": 1298.844299999997,
      "v": 61
    },
    {
      "midi": 55,
      "hit": false,
      "t": 52908.47806666673,
      "d": 333.0370000000039,
      "v": 86
    },
    {
      "midi": 43,
      "hit": false,
      "t": 53263.7175333334,
      "d": 2619.8910666666707,
      "v": 92
    },
    {
      "midi": 62,
      "hit": false,
      "t": 53285.92000000007,
      "d": 1087.9208666666673,
      "v": 61
    },
    {
      "midi": 59,
      "hit": false,
      "t": 53297.021233333406,
      "d": 1087.9208666666673,
      "v": 82
    },
    {
      "midi": 65,
      "hit": false,
      "t": 53352.52740000007,
      "d": 1065.718399999998,
      "v": 46
    },
    {
      "midi": 55,
      "hit": false,
      "t": 53929.7915333334,
      "d": 921.402366666669,
      "v": 54
    },
    {
      "midi": 59,
      "hit": false,
      "t": 54595.8655333334,
      "d": 1332.148000000001,
      "v": 42
    },
    {
      "midi": 62,
      "hit": false,
      "t": 54595.8655333334,
      "d": 1332.148000000001,
      "v": 50
    },
    {
      "midi": 65,
      "hit": false,
      "t": 54595.8655333334,
      "d": 1332.148000000001,
      "v": 42
    },
    {
      "midi": 55,
      "hit": false,
      "t": 55261.9395333334,
      "d": 666.0740000000005,
      "v": 73
    },
    {
      "midi": 65,
      "hit": false,
      "t": 55928.013533333404,
      "d": 1010.2122333333391,
      "v": 58
    },
    {
      "midi": 62,
      "hit": false,
      "t": 55928.013533333404,
      "d": 1021.3134666666738,
      "v": 61
    },
    {
      "midi": 43,
      "hit": false,
      "t": 55928.013533333404,
      "d": 2575.4861333333465,
      "v": 68
    },
    {
      "midi": 57,
      "hit": false,
      "t": 55950.21600000007,
      "d": 965.8073000000004,
      "v": 64
    },
    {
      "midi": 50,
      "hit": false,
      "t": 56594.087533333404,
      "d": 1076.8196333333399,
      "v": 53
    },
    {
      "midi": 59,
      "hit": false,
      "t": 57260.16153333341,
      "d": 954.7060666666657,
      "v": 46
    },
    {
      "midi": 65,
      "hit": false,
      "t": 57260.16153333341,
      "d": 976.9085333333351,
      "v": 59
    },
    {
      "midi": 62,
      "hit": false,
      "t": 57260.16153333341,
      "d": 999.1110000000044,
      "v": 55
    },
    {
      "midi": 50,
      "hit": false,
      "t": 57926.23553333341,
      "d": 566.162900000003,
      "v": 59
    },
    {
      "midi": 60,
      "hit": false,
      "t": 58592.30953333341,
      "d": 1065.718399999998,
      "v": 55
    },
    {
      "midi": 64,
      "hit": false,
      "t": 58592.30953333341,
      "d": 1065.718399999998,
      "v": 55
    },
    {
      "midi": 67,
      "hit": false,
      "t": 58592.30953333341,
      "d": 1065.718399999998,
      "v": 38
    },
    {
      "midi": 48,
      "hit": false,
      "t": 58592.30953333341,
      "d": 1942.7158333333355,
      "v": 96
    },
    {
      "midi": 55,
      "hit": false,
      "t": 59591.42053333341,
      "d": 1021.3134666666738,
      "v": 61
    },
    {
      "midi": 60,
      "hit": false,
      "t": 59924.457533333414,
      "d": 910.3011333333416,
      "v": 50
    },
    {
      "midi": 67,
      "hit": false,
      "t": 59924.457533333414,
      "d": 965.8073000000077,
      "v": 58
    },
    {
      "midi": 64,
      "hit": false,
      "t": 59924.457533333414,
      "d": 976.9085333333423,
      "v": 84
    },
    {
      "midi": 50,
      "hit": false,
      "t": 60590.531533333415,
      "d": 666.0740000000078,
      "v": 61
    },
    {
      "midi": 69,
      "hit": false,
      "t": 61256.60553333342,
      "d": 999.1109999999971,
      "v": 68
    },
    {
      "midi": 64,
      "hit": false,
      "t": 61256.60553333342,
      "d": 1010.2122333333318,
      "v": 64
    },
    {
      "midi": 71,
      "hit": false,
      "t": 61256.60553333342,
      "d": 1021.3134666666665,
      "v": 58
    },
    {
      "midi": 52,
      "hit": false,
      "t": 61256.60553333342,
      "d": 2453.3725666666724,
      "v": 68
    },
    {
      "midi": 59,
      "hit": false,
      "t": 62255.71653333342,
      "d": 1631.8813000000082,
      "v": 48
    },
    {
      "midi": 62,
      "hit": false,
      "t": 62588.75353333342,
      "d": 1110.1233333333366,
      "v": 58
    },
    {
      "midi": 68,
      "hit": false,
      "t": 62588.75353333342,
      "d": 1110.1233333333366,
      "v": 80
    },
    {
      "midi": 71,
      "hit": false,
      "t": 62588.75353333342,
      "d": 1110.1233333333366,
      "v": 50
    },
    {
      "midi": 64,
      "hit": false,
      "t": 63920.901533333425,
      "d": 699.3776999999973,
      "v": 64
    },
    {
      "midi": 69,
      "hit": false,
      "t": 63920.901533333425,
      "d": 699.3776999999973,
      "v": 53
    },
    {
      "midi": 57,
      "hit": false,
      "t": 63920.901533333425,
      "d": 2664.2959999999875,
      "v": 88
    },
    {
      "midi": 60,
      "hit": false,
      "t": 64586.975533333425,
      "d": 976.9085333333278,
      "v": 49
    },
    {
      "midi": 64,
      "hit": false,
      "t": 65253.04953333342,
      "d": 888.0986666666649,
      "v": 64
    },
    {
      "midi": 69,
      "hit": false,
      "t": 65253.04953333342,
      "d": 888.0986666666649,
      "v": 53
    },
    {
      "midi": 60,
      "hit": false,
      "t": 65919.12353333342,
      "d": 666.0739999999932,
      "v": 42
    },
    {
      "midi": 67,
      "hit": false,
      "t": 66585.19753333341,
      "d": 899.1998999999923,
      "v": 64
    },
    {
      "midi": 69,
      "hit": false,
      "t": 66585.19753333341,
      "d": 943.604833333331,
      "v": 64
    },
    {
      "midi": 62,
      "hit": false,
      "t": 66585.19753333341,
      "d": 976.9085333333351,
      "v": 84
    },
    {
      "midi": 50,
      "hit": false,
      "t": 66585.19753333341,
      "d": 2664.296000000002,
      "v": 72
    },
    {
      "midi": 57,
      "hit": false,
      "t": 67251.2715333334,
      "d": 1087.9208666666673,
      "v": 64
    },
    {
      "midi": 66,
      "hit": false,
      "t": 67917.34553333341,
      "d": 965.8073000000004,
      "v": 76
    },
    {
      "midi": 69,
      "hit": false,
      "t": 67917.34553333341,
      "d": 1010.2122333333391,
      "v": 88
    },
    {
      "midi": 62,
      "hit": false,
      "t": 67917.34553333341,
      "d": 1021.3134666666738,
      "v": 55
    },
    {
      "midi": 57,
      "hit": false,
      "t": 68583.4195333334,
      "d": 666.0740000000078,
      "v": 88
    },
    {
      "midi": 71,
      "hit": false,
      "t": 69249.49353333341,
      "d": 754.8838666666561,
      "v": 76
    },
    {
      "midi": 67,
      "hit": false,
      "t": 69249.49353333341,
      "d": 788.1875666666601,
      "v": 84
    },
    {
      "midi": 55,
      "hit": false,
      "t": 69249.49353333341,
      "d": 2519.979966666666,
      "v": 85
    },
    {
      "midi": 62,
      "hit": false,
      "t": 69915.56753333341,
      "d": 1021.3134666666592,
      "v": 70
    },
    {
      "midi": 71,
      "hit": false,
      "t": 70581.6415333334,
      "d": 899.1999000000069,
      "v": 79
    },
    {
      "midi": 67,
      "hit": false,
      "t": 70581.6415333334,
      "d": 910.3011333333416,
      "v": 81
    },
    {
      "midi": 62,
      "hit": false,
      "t": 71247.71553333341,
      "d": 632.7703000000038,
      "v": 71
    },
    {
      "midi": 68,
      "hit": false,
      "t": 71913.78953333342,
      "d": 843.6937333333335,
      "v": 63
    },
    {
      "midi": 64,
      "hit": false,
      "t": 71913.78953333342,
      "d": 865.8962000000029,
      "v": 64
    },
    {
      "midi": 71,
      "hit": false,
      "t": 71913.78953333342,
      "d": 899.1999000000069,
      "v": 64
    },
    {
      "midi": 52,
      "hit": false,
      "t": 71913.78953333342,
      "d": 2608.789833333314,
      "v": 73
    },
    {
      "midi": 59,
      "hit": false,
      "t": 72579.86353333341,
      "d": 1021.3134666666738,
      "v": 64
    },
    {
      "midi": 64,
      "hit": false,
      "t": 73245.93753333342,
      "d": 1087.9208666666527,
      "v": 64
    },
    {
      "midi": 68,
      "hit": false,
      "t": 73245.93753333342,
      "d": 1087.9208666666527,
      "v": 61
    },
    {
      "midi": 71,
      "hit": false,
      "t": 73245.93753333342,
      "d": 1087.9208666666527,
      "v": 55
    },
    {
      "midi": 59,
      "hit": false,
      "t": 73912.01153333341,
      "d": 666.0739999999932,
      "v": 84
    },
    {
      "midi": 69,
      "hit": false,
      "t": 74578.0855333334,
      "d": 999.1109999999899,
      "v": 80
    },
    {
      "midi": 72,
      "hit": false,
      "t": 74578.0855333334,
      "d": 1021.3134666666592,
      "v": 80
    },
    {
      "midi": 57,
      "hit": false,
      "t": 74578.0855333334,
      "d": 2586.5873666666594,
      "v": 76
    },
    {
      "midi": 64,
      "hit": false,
      "t": 75244.1595333334,
      "d": 1065.718399999998,
      "v": 72
    },
    {
      "midi": 69,
      "hit": false,
      "t": 75910.23353333339,
      "d": 1232.2369000000035,
      "v": 68
    },
    {
      "midi": 72,
      "hit": false,
      "t": 75910.23353333339,
      "d": 1232.2369000000035,
      "v": 72
    },
    {
      "midi": 64,
      "hit": false,
      "t": 76576.3075333334,
      "d": 666.0740000000078,
      "v": 68
    },
    {
      "midi": 50,
      "hit": false,
      "t": 77242.3815333334,
      "d": 3996.4440000000177,
      "v": 50
    },
    {
      "midi": 67,
      "hit": false,
      "t": 77275.68523333341,
      "d": 1087.9208666666818,
      "v": 84
    },
    {
      "midi": 69,
      "hit": false,
      "t": 77286.78646666674,
      "d": 1076.8196333333472,
      "v": 76
    },
    {
      "midi": 62,
      "hit": false,
      "t": 77320.09016666675,
      "d": 1054.6171666666778,
      "v": 76
    },
    {
      "midi": 57,
      "hit": false,
      "t": 78219.29006666676,
      "d": 1032.4147000000085,
      "v": 68
    },
    {
      "midi": 67,
      "hit": false,
      "t": 78563.42830000009,
      "d": 1065.718399999998,
      "v": 68
    },
    {
      "midi": 69,
      "hit": false,
      "t": 78607.83323333343,
      "d": 1076.8196333333326,
      "v": 46
    },
    {
      "midi": 62,
      "hit": false,
      "t": 78652.23816666676,
      "d": 1054.6171666666633,
      "v": 38
    },
    {
      "midi": 57,
      "hit": false,
      "t": 79562.53930000009,
      "d": 954.7060666666657,
      "v": 84
    },
    {
      "midi": 66,
      "hit": false,
      "t": 79906.67753333342,
      "d": 1076.8196333333326,
      "v": 58
    },
    {
      "midi": 62,
      "hit": false,
      "t": 79906.67753333342,
      "d": 1087.9208666666673,
      "v": 50
    },
    {
      "midi": 69,
      "hit": false,
      "t": 79906.67753333342,
      "d": 1110.1233333333366,
      "v": 80
    },
    {
      "midi": 57,
      "hit": false,
      "t": 80883.58606666676,
      "d": 1021.3134666666592,
      "v": 92
    },
    {
      "midi": 50,
      "hit": false,
      "t": 81238.82553333342,
      "d": 333.0369999999966,
      "v": 64
    },
    {
      "midi": 62,
      "hit": false,
      "t": 81238.82553333342,
      "d": 333.0369999999966,
      "v": 64
    },
    {
      "midi": 69,
      "hit": false,
      "t": 81238.82553333342,
      "d": 333.0369999999966,
      "v": 64
    },
    {
      "midi": 66,
      "hit": false,
      "t": 81238.82553333342,
      "d": 1221.1356666666688,
      "v": 71
    },
    {
      "midi": 69,
      "hit": false,
      "t": 81571.86253333342,
      "d": 899.1999000000069,
      "v": 66
    },
    {
      "midi": 62,
      "hit": false,
      "t": 81938.20323333342,
      "d": 632.7703000000038,
      "v": 70
    },
    {
      "midi": 50,
      "hit": false,
      "t": 82237.93653333343,
      "d": 255.32836666666844,
      "v": 75
    },
    {
      "midi": 71,
      "hit": false,
      "t": 82570.97353333342,
      "d": 754.8838666666707,
      "v": 76
    },
    {
      "midi": 67,
      "hit": false,
      "t": 82570.97353333342,
      "d": 788.1875666666747,
      "v": 84
    },
    {
      "midi": 55,
      "hit": false,
      "t": 82570.97353333342,
      "d": 2519.9799666666804,
      "v": 85
    },
    {
      "midi": 62,
      "hit": false,
      "t": 83237.04753333343,
      "d": 1021.3134666666592,
      "v": 70
    },
    {
      "midi": 71,
      "hit": false,
      "t": 83903.12153333343,
      "d": 899.1999000000069,
      "v": 79
    },
    {
      "midi": 67,
      "hit": false,
      "t": 83903.12153333343,
      "d": 910.3011333333416,
      "v": 81
    },
    {
      "midi": 62,
      "hit": false,
      "t": 84569.19553333343,
      "d": 632.7703000000038,
      "v": 71
    },
    {
      "midi": 68,
      "hit": false,
      "t": 85235.26953333344,
      "d": 843.6937333333481,
      "v": 63
    },
    {
      "midi": 64,
      "hit": false,
      "t": 85235.26953333344,
      "d": 865.8962000000174,
      "v": 64
    },
    {
      "midi": 71,
      "hit": false,
      "t": 85235.26953333344,
      "d": 899.1999000000214,
      "v": 64
    },
    {
      "midi": 52,
      "hit": false,
      "t": 85235.26953333344,
      "d": 2608.7898333333433,
      "v": 73
    },
    {
      "midi": 59,
      "hit": false,
      "t": 85901.34353333345,
      "d": 1021.3134666666738,
      "v": 64
    },
    {
      "midi": 64,
      "hit": false,
      "t": 86567.41753333346,
      "d": 1087.9208666666673,
      "v": 64
    },
    {
      "midi": 68,
      "hit": false,
      "t": 86567.41753333346,
      "d": 1087.9208666666673,
      "v": 61
    },
    {
      "midi": 71,
      "hit": false,
      "t": 86567.41753333346,
      "d": 1087.9208666666673,
      "v": 55
    },
    {
      "midi": 59,
      "hit": false,
      "t": 87233.49153333346,
      "d": 666.0739999999932,
      "v": 84
    },
    {
      "midi": 69,
      "hit": false,
      "t": 87899.56553333346,
      "d": 999.1109999999899,
      "v": 80
    },
    {
      "midi": 72,
      "hit": false,
      "t": 87899.56553333346,
      "d": 1021.3134666666592,
      "v": 80
    },
    {
      "midi": 57,
      "hit": false,
      "t": 87899.56553333346,
      "d": 2586.5873666666594,
      "v": 76
    },
    {
      "midi": 64,
      "hit": false,
      "t": 88565.63953333345,
      "d": 1065.718399999998,
      "v": 72
    },
    {
      "midi": 69,
      "hit": false,
      "t": 89231.71353333344,
      "d": 1232.2369000000035,
      "v": 68
    },
    {
      "midi": 72,
      "hit": false,
      "t": 89231.71353333344,
      "d": 1232.2369000000035,
      "v": 72
    },
    {
      "midi": 64,
      "hit": false,
      "t": 89897.78753333345,
      "d": 666.0740000000078,
      "v": 68
    },
    {
      "midi": 50,
      "hit": false,
      "t": 90563.86153333346,
      "d": 3996.4440000000322,
      "v": 50
    },
    {
      "midi": 67,
      "hit": false,
      "t": 90597.16523333346,
      "d": 1087.9208666666673,
      "v": 84
    },
    {
      "midi": 69,
      "hit": false,
      "t": 90608.2664666668,
      "d": 1076.8196333333326,
      "v": 76
    },
    {
      "midi": 62,
      "hit": false,
      "t": 90641.5701666668,
      "d": 1054.6171666666633,
      "v": 76
    },
    {
      "midi": 57,
      "hit": false,
      "t": 91229.93553333347,
      "d": 1032.4147000000085,
      "v": 68
    },
    {
      "midi": 67,
      "hit": false,
      "t": 91896.00953333346,
      "d": 1054.6171666666924,
      "v": 68
    },
    {
      "midi": 69,
      "hit": false,
      "t": 91929.31323333347,
      "d": 1076.8196333333617,
      "v": 46
    },
    {
      "midi": 62,
      "hit": false,
      "t": 91973.7181666668,
      "d": 1054.6171666666924,
      "v": 38
    },
    {
      "midi": 57,
      "hit": false,
      "t": 92595.38723333349,
      "d": 954.7060666666803,
      "v": 84
    },
    {
      "midi": 66,
      "hit": false,
      "t": 93228.15753333349,
      "d": 1076.8196333333326,
      "v": 58
    },
    {
      "midi": 62,
      "hit": false,
      "t": 93228.15753333349,
      "d": 1087.9208666666673,
      "v": 50
    },
    {
      "midi": 69,
      "hit": false,
      "t": 93228.15753333349,
      "d": 1110.1233333333366,
      "v": 80
    },
    {
      "midi": 57,
      "hit": false,
      "t": 93883.13030000016,
      "d": 1021.3134666666592,
      "v": 92
    },
    {
      "midi": 66,
      "hit": false,
      "t": 94560.30553333349,
      "d": 1221.1356666666688,
      "v": 71
    },
    {
      "midi": 62,
      "hit": false,
      "t": 94560.30553333349,
      "d": 1298.844299999997,
      "v": 64
    },
    {
      "midi": 69,
      "hit": false,
      "t": 94560.30553333349,
      "d": 1298.844299999997,
      "v": 64
    },
    {
      "midi": 50,
      "hit": false,
      "t": 94582.50800000016,
      "d": 310.8345333333273,
      "v": 64
    },
    {
      "midi": 59,
      "hit": false,
      "t": 95892.4535333335,
      "d": 1065.718399999998,
      "v": 67
    },
    {
      "midi": 67,
      "hit": false,
      "t": 95892.4535333335,
      "d": 1076.8196333333326,
      "v": 64
    },
    {
      "midi": 62,
      "hit": false,
      "t": 95892.4535333335,
      "d": 1087.9208666666673,
      "v": 68
    },
    {
      "midi": 55,
      "hit": false,
      "t": 95892.4535333335,
      "d": 2586.5873666666594,
      "v": 70
    },
    {
      "midi": 67,
      "hit": false,
      "t": 97224.6015333335,
      "d": 965.8073000000004,
      "v": 65
    },
    {
      "midi": 62,
      "hit": false,
      "t": 97224.6015333335,
      "d": 1032.414699999994,
      "v": 64
    },
    {
      "midi": 59,
      "hit": false,
      "t": 97224.6015333335,
      "d": 1121.2245666666568,
      "v": 63
    },
    {
      "midi": 59,
      "hit": false,
      "t": 98534.54706666683,
      "d": 1110.1233333333366,
      "v": 68
    },
    {
      "midi": 62,
      "hit": false,
      "t": 98545.64830000016,
      "d": 1087.9208666666673,
      "v": 69
    },
    {
      "midi": 65,
      "hit": false,
      "t": 98578.95200000016,
      "d": 1076.8196333333326,
      "v": 63
    },
    {
      "midi": 55,
      "hit": false,
      "t": 98590.0532333335,
      "d": 2553.28366666667,
      "v": 81
    },
    {
      "midi": 62,
      "hit": false,
      "t": 99888.8975333335,
      "d": 1065.718399999998,
      "v": 62
    },
    {
      "midi": 65,
      "hit": false,
      "t": 99888.8975333335,
      "d": 1087.9208666666673,
      "v": 61
    },
    {
      "midi": 59,
      "hit": false,
      "t": 99888.8975333335,
      "d": 1121.2245666666713,
      "v": 65
    },
    {
      "midi": 60,
      "hit": false,
      "t": 101221.0455333335,
      "d": 1010.2122333333245,
      "v": 76
    },
    {
      "midi": 67,
      "hit": false,
      "t": 101221.0455333335,
      "d": 1010.2122333333245,
      "v": 64
    },
    {
      "midi": 64,
      "hit": false,
      "t": 101221.0455333335,
      "d": 1021.3134666666592,
      "v": 80
    },
    {
      "midi": 48,
      "hit": false,
      "t": 101221.0455333335,
      "d": 5295.288299999986,
      "v": 92
    },
    {
      "midi": 55,
      "hit": false,
      "t": 101887.11953333349,
      "d": 1021.3134666666592,
      "v": 64
    },
    {
      "midi": 60,
      "hit": false,
      "t": 102553.19353333348,
      "d": 1076.8196333333326,
      "v": 53
    },
    {
      "midi": 64,
      "hit": false,
      "t": 102553.19353333348,
      "d": 1076.8196333333326,
      "v": 58
    },
    {
      "midi": 67,
      "hit": false,
      "t": 102553.19353333348,
      "d": 1076.8196333333326,
      "v": 55
    },
    {
      "midi": 55,
      "hit": false,
      "t": 103219.26753333348,
      "d": 921.4023666666762,
      "v": 72
    },
    {
      "midi": 59,
      "hit": false,
      "t": 103885.34153333349,
      "d": 999.1110000000044,
      "v": 80
    },
    {
      "midi": 64,
      "hit": false,
      "t": 103885.34153333349,
      "d": 999.1110000000044,
      "v": 76
    },
    {
      "midi": 67,
      "hit": false,
      "t": 103885.34153333349,
      "d": 999.1110000000044,
      "v": 61
    },
    {
      "midi": 55,
      "hit": false,
      "t": 104551.4155333335,
      "d": 854.7949666666536,
      "v": 53
    },
    {
      "midi": 64,
      "hit": false,
      "t": 105217.48953333349,
      "d": 899.1998999999923,
      "v": 55
    },
    {
      "midi": 67,
      "hit": false,
      "t": 105217.48953333349,
      "d": 899.1998999999923,
      "v": 50
    },
    {
      "midi": 59,
      "hit": false,
      "t": 105217.48953333349,
      "d": 910.301133333327,
      "v": 58
    },
    {
      "midi": 55,
      "hit": false,
      "t": 105883.56353333348,
      "d": 666.0740000000078,
      "v": 46
    },
    {
      "midi": 45,
      "hit": false,
      "t": 106549.63753333349,
      "d": 4995.555000000037,
      "v": 64
    },
    {
      "midi": 69,
      "hit": false,
      "t": 106594.04246666683,
      "d": 1021.3134666666738,
      "v": 61
    },
    {
      "midi": 64,
      "hit": false,
      "t": 106605.14370000016,
      "d": 999.1110000000044,
      "v": 66
    },
    {
      "midi": 60,
      "hit": false,
      "t": 106627.34616666683,
      "d": 1032.4147000000085,
      "v": 61
    },
    {
      "midi": 57,
      "hit": false,
      "t": 107215.7115333335,
      "d": 1065.7184000000125,
      "v": 52
    },
    {
      "midi": 64,
      "hit": false,
      "t": 107881.7855333335,
      "d": 1121.2245666666713,
      "v": 69
    },
    {
      "midi": 69,
      "hit": false,
      "t": 107881.7855333335,
      "d": 1143.4270333333407,
      "v": 53
    },
    {
      "midi": 60,
      "hit": false,
      "t": 107881.7855333335,
      "d": 1176.7307333333447,
      "v": 57
    },
    {
      "midi": 57,
      "hit": false,
      "t": 108547.85953333351,
      "d": 1132.325800000006,
      "v": 53
    },
    {
      "midi": 64,
      "hit": false,
      "t": 109213.93353333352,
      "d": 1176.7307333333301,
      "v": 69
    },
    {
      "midi": 60,
      "hit": false,
      "t": 109213.93353333352,
      "d": 1187.8319666666648,
      "v": 66
    },
    {
      "midi": 67,
      "hit": false,
      "t": 109213.93353333352,
      "d": 1198.9331999999995,
      "v": 55
    },
    {
      "midi": 57,
      "hit": false,
      "t": 109880.00753333351,
      "d": 1054.6171666666778,
      "v": 49
    },
    {
      "midi": 64,
      "hit": false,
      "t": 110546.08153333352,
      "d": 1054.6171666666778,
      "v": 61
    },
    {
      "midi": 60,
      "hit": false,
      "t": 110546.08153333352,
      "d": 1065.7184000000125,
      "v": 53
    },
    {
      "midi": 67,
      "hit": false,
      "t": 110546.08153333352,
      "d": 1076.8196333333472,
      "v": 49
    },
    {
      "midi": 57,
      "hit": false,
      "t": 111212.15553333353,
      "d": 666.0740000000224,
      "v": 40
    },
    {
      "midi": 45,
      "hit": false,
      "t": 111545.19253333352,
      "d": 255.328366666683,
      "v": 87
    },
    {
      "midi": 50,
      "hit": false,
      "t": 111878.22953333355,
      "d": 5217.579666666701,
      "v": 82
    },
    {
      "midi": 69,
      "hit": false,
      "t": 111911.53323333355,
      "d": 921.4023666666762,
      "v": 68
    },
    {
      "midi": 65,
      "hit": false,
      "t": 111933.73570000022,
      "d": 921.4023666666762,
      "v": 68
    },
    {
      "midi": 62,
      "hit": false,
      "t": 111955.93816666689,
      "d": 899.1999000000069,
      "v": 72
    },
    {
      "midi": 57,
      "hit": false,
      "t": 112544.30353333356,
      "d": 1032.4147000000085,
      "v": 46
    },
    {
      "midi": 62,
      "hit": false,
      "t": 113210.37753333357,
      "d": 865.8962000000029,
      "v": 53
    },
    {
      "midi": 65,
      "hit": false,
      "t": 113210.37753333357,
      "d": 943.604833333331,
      "v": 53
    },
    {
      "midi": 69,
      "hit": false,
      "t": 113210.37753333357,
      "d": 965.8073000000004,
      "v": 50
    },
    {
      "midi": 57,
      "hit": false,
      "t": 113876.45153333357,
      "d": 699.3776999999973,
      "v": 46
    },
    {
      "midi": 60,
      "hit": false,
      "t": 114542.52553333357,
      "d": 921.4023666666762,
      "v": 61
    },
    {
      "midi": 65,
      "hit": false,
      "t": 114542.52553333357,
      "d": 976.9085333333496,
      "v": 61
    },
    {
      "midi": 69,
      "hit": false,
      "t": 114542.52553333357,
      "d": 976.9085333333496,
      "v": 50
    },
    {
      "midi": 57,
      "hit": false,
      "t": 115208.59953333357,
      "d": 754.8838666666707,
      "v": 48
    },
    {
      "midi": 60,
      "hit": false,
      "t": 115874.67353333358,
      "d": 921.4023666666617,
      "v": 55
    },
    {
      "midi": 65,
      "hit": false,
      "t": 115874.67353333358,
      "d": 954.7060666666657,
      "v": 53
    },
    {
      "midi": 69,
      "hit": false,
      "t": 115874.67353333358,
      "d": 965.8073000000004,
      "v": 44
    },
    {
      "midi": 57,
      "hit": false,
      "t": 116540.74753333358,
      "d": 666.0740000000078,
      "v": 48
    },
    {
      "midi": 43,
      "hit": false,
      "t": 117206.82153333358,
      "d": 2253.550366666692,
      "v": 62
    },
    {
      "midi": 65,
      "hit": false,
      "t": 117240.12523333359,
      "d": 921.4023666666762,
      "v": 67
    },
    {
      "midi": 60,
      "hit": false,
      "t": 117262.32770000026,
      "d": 954.7060666666803,
      "v": 74
    },
    {
      "midi": 62,
      "hit": false,
      "t": 117262.32770000026,
      "d": 954.7060666666803,
      "v": 74
    },
    {
      "midi": 55,
      "hit": false,
      "t": 117872.89553333359,
      "d": 954.7060666666803,
      "v": 61
    },
    {
      "midi": 65,
      "hit": false,
      "t": 118538.9695333336,
      "d": 1276.6418333333422,
      "v": 54
    },
    {
      "midi": 60,
      "hit": false,
      "t": 118538.9695333336,
      "d": 1298.8443000000116,
      "v": 54
    },
    {
      "midi": 62,
      "hit": false,
      "t": 118538.9695333336,
      "d": 1298.8443000000116,
      "v": 61
    },
    {
      "midi": 55,
      "hit": false,
      "t": 119526.97930000027,
      "d": 310.8345333333418,
      "v": 86
    },
    {
      "midi": 43,
      "hit": false,
      "t": 119871.11753333361,
      "d": 2619.8910666666925,
      "v": 92
    },
    {
      "midi": 62,
      "hit": false,
      "t": 119893.32000000028,
      "d": 1087.9208666666673,
      "v": 61
    },
    {
      "midi": 59,
      "hit": false,
      "t": 119904.42123333362,
      "d": 1087.9208666666673,
      "v": 82
    },
    {
      "midi": 65,
      "hit": false,
      "t": 119959.92740000029,
      "d": 1065.718399999998,
      "v": 46
    },
    {
      "midi": 55,
      "hit": false,
      "t": 120537.19153333362,
      "d": 921.4023666666762,
      "v": 54
    },
    {
      "midi": 59,
      "hit": false,
      "t": 121203.26553333363,
      "d": 1332.1480000000156,
      "v": 42
    },
    {
      "midi": 62,
      "hit": false,
      "t": 121203.26553333363,
      "d": 1332.1480000000156,
      "v": 50
    },
    {
      "midi": 65,
      "hit": false,
      "t": 121203.26553333363,
      "d": 1332.1480000000156,
      "v": 42
    },
    {
      "midi": 55,
      "hit": false,
      "t": 121869.33953333364,
      "d": 666.0740000000078,
      "v": 73
    },
    {
      "midi": 57,
      "hit": false,
      "t": 122535.41353333365,
      "d": 976.9085333333205,
      "v": 64
    },
    {
      "midi": 65,
      "hit": false,
      "t": 122535.41353333365,
      "d": 1010.2122333333245,
      "v": 58
    },
    {
      "midi": 62,
      "hit": false,
      "t": 122535.41353333365,
      "d": 1021.3134666666592,
      "v": 61
    },
    {
      "midi": 43,
      "hit": false,
      "t": 122535.41353333365,
      "d": 2575.4861333333392,
      "v": 68
    },
    {
      "midi": 50,
      "hit": false,
      "t": 123201.48753333364,
      "d": 1076.8196333333326,
      "v": 53
    },
    {
      "midi": 59,
      "hit": false,
      "t": 123867.56153333363,
      "d": 954.7060666666803,
      "v": 46
    },
    {
      "midi": 65,
      "hit": false,
      "t": 123867.56153333363,
      "d": 976.9085333333496,
      "v": 59
    },
    {
      "midi": 62,
      "hit": false,
      "t": 123867.56153333363,
      "d": 999.111000000019,
      "v": 55
    },
    {
      "midi": 50,
      "hit": false,
      "t": 124533.63553333364,
      "d": 566.1629000000103,
      "v": 59
    },
    {
      "midi": 60,
      "hit": false,
      "t": 125199.70953333365,
      "d": 1010.2122333333391,
      "v": 76
    },
    {
      "midi": 67,
      "hit": false,
      "t": 125199.70953333365,
      "d": 1010.2122333333391,
      "v": 64
    },
    {
      "midi": 64,
      "hit": false,
      "t": 125199.70953333365,
      "d": 1021.3134666666738,
      "v": 80
    },
    {
      "midi": 48,
      "hit": false,
      "t": 125199.70953333365,
      "d": 5295.2883,
      "v": 92
    },
    {
      "midi": 55,
      "hit": false,
      "t": 125865.78353333366,
      "d": 1021.3134666666592,
      "v": 64
    },
    {
      "midi": 60,
      "hit": false,
      "t": 126531.85753333365,
      "d": 1076.8196333333326,
      "v": 53
    },
    {
      "midi": 64,
      "hit": false,
      "t": 126531.85753333365,
      "d": 1076.8196333333326,
      "v": 58
    },
    {
      "midi": 67,
      "hit": false,
      "t": 126531.85753333365,
      "d": 1076.8196333333326,
      "v": 55
    },
    {
      "midi": 55,
      "hit": false,
      "t": 127197.93153333364,
      "d": 921.4023666666762,
      "v": 72
    },
    {
      "midi": 59,
      "hit": false,
      "t": 127864.00553333365,
      "d": 999.1110000000044,
      "v": 80
    },
    {
      "midi": 64,
      "hit": false,
      "t": 127864.00553333365,
      "d": 999.1110000000044,
      "v": 76
    },
    {
      "midi": 67,
      "hit": false,
      "t": 127864.00553333365,
      "d": 999.1110000000044,
      "v": 61
    },
    {
      "midi": 55,
      "hit": false,
      "t": 128530.07953333366,
      "d": 854.7949666666536,
      "v": 53
    },
    {
      "midi": 64,
      "hit": false,
      "t": 129196.15353333365,
      "d": 899.1998999999923,
      "v": 55
    },
    {
      "midi": 67,
      "hit": false,
      "t": 129196.15353333365,
      "d": 899.1998999999923,
      "v": 50
    },
    {
      "midi": 59,
      "hit": false,
      "t": 129196.15353333365,
      "d": 910.301133333327,
      "v": 58
    },
    {
      "midi": 55,
      "hit": false,
      "t": 129862.22753333364,
      "d": 666.0740000000078,
      "v": 46
    },
    {
      "midi": 45,
      "hit": false,
      "t": 130528.30153333365,
      "d": 4995.554999999949,
      "v": 64
    },
    {
      "midi": 69,
      "hit": false,
      "t": 130572.70646666699,
      "d": 1021.3134666666592,
      "v": 61
    },
    {
      "midi": 64,
      "hit": false,
      "t": 130583.80770000032,
      "d": 999.1110000000044,
      "v": 66
    },
    {
      "midi": 60,
      "hit": false,
      "t": 130606.010166667,
      "d": 1032.414699999994,
      "v": 61
    },
    {
      "midi": 57,
      "hit": false,
      "t": 131194.37553333366,
      "d": 1065.7183999999834,
      "v": 52
    },
    {
      "midi": 64,
      "hit": false,
      "t": 131860.44953333365,
      "d": 1121.2245666666713,
      "v": 69
    },
    {
      "midi": 69,
      "hit": false,
      "t": 131860.44953333365,
      "d": 1143.4270333333407,
      "v": 53
    },
    {
      "midi": 60,
      "hit": false,
      "t": 131860.44953333365,
      "d": 1176.7307333333301,
      "v": 57
    },
    {
      "midi": 57,
      "hit": false,
      "t": 132526.52353333365,
      "d": 1132.3257999999914,
      "v": 53
    },
    {
      "midi": 64,
      "hit": false,
      "t": 133192.59753333364,
      "d": 1176.7307333333301,
      "v": 69
    },
    {
      "midi": 60,
      "hit": false,
      "t": 133192.59753333364,
      "d": 1187.8319666666503,
      "v": 66
    },
    {
      "midi": 67,
      "hit": false,
      "t": 133192.59753333364,
      "d": 1198.9331999999704,
      "v": 55
    },
    {
      "midi": 57,
      "hit": false,
      "t": 133858.67153333363,
      "d": 1054.6171666666341,
      "v": 49
    },
    {
      "midi": 64,
      "hit": false,
      "t": 134524.7455333336,
      "d": 1054.6171666666633,
      "v": 61
    },
    {
      "midi": 60,
      "hit": false,
      "t": 134524.7455333336,
      "d": 1065.7183999999834,
      "v": 53
    },
    {
      "midi": 67,
      "hit": false,
      "t": 134524.7455333336,
      "d": 1076.8196333333035,
      "v": 49
    },
    {
      "midi": 57,
      "hit": false,
      "t": 135190.8195333336,
      "d": 666.0739999999641,
      "v": 40
    },
    {
      "midi": 45,
      "hit": false,
      "t": 135523.8565333336,
      "d": 255.3283666666248,
      "v": 87
    },
    {
      "midi": 50,
      "hit": false,
      "t": 135856.89353333355,
      "d": 5217.579666666628,
      "v": 82
    },
    {
      "midi": 69,
      "hit": false,
      "t": 135890.19723333354,
      "d": 921.4023666666762,
      "v": 68
    },
    {
      "midi": 65,
      "hit": false,
      "t": 135912.3997000002,
      "d": 921.4023666666762,
      "v": 68
    },
    {
      "midi": 62,
      "hit": false,
      "t": 135934.60216666688,
      "d": 899.1999000000069,
      "v": 72
    },
    {
      "midi": 57,
      "hit": false,
      "t": 136522.96753333355,
      "d": 1032.414700000023,
      "v": 46
    },
    {
      "midi": 62,
      "hit": false,
      "t": 137189.04153333357,
      "d": 865.8961999999883,
      "v": 53
    },
    {
      "midi": 65,
      "hit": false,
      "t": 137189.04153333357,
      "d": 943.6048333333165,
      "v": 53
    },
    {
      "midi": 69,
      "hit": false,
      "t": 137189.04153333357,
      "d": 965.8072999999858,
      "v": 50
    },
    {
      "midi": 57,
      "hit": false,
      "t": 137855.11553333356,
      "d": 699.3776999999827,
      "v": 46
    },
    {
      "midi": 60,
      "hit": false,
      "t": 138521.18953333356,
      "d": 921.4023666666471,
      "v": 61
    },
    {
      "midi": 65,
      "hit": false,
      "t": 138521.18953333356,
      "d": 976.908533333306,
      "v": 61
    },
    {
      "midi": 69,
      "hit": false,
      "t": 138521.18953333356,
      "d": 976.908533333306,
      "v": 50
    },
    {
      "midi": 57,
      "hit": false,
      "t": 139187.26353333355,
      "d": 754.8838666666707,
      "v": 48
    },
    {
      "midi": 60,
      "hit": false,
      "t": 139853.33753333354,
      "d": 921.4023666666762,
      "v": 55
    },
    {
      "midi": 65,
      "hit": false,
      "t": 139853.33753333354,
      "d": 954.7060666666657,
      "v": 53
    },
    {
      "midi": 69,
      "hit": false,
      "t": 139853.33753333354,
      "d": 965.8072999999858,
      "v": 44
    },
    {
      "midi": 57,
      "hit": false,
      "t": 140519.41153333356,
      "d": 666.0739999999641,
      "v": 48
    },
    {
      "midi": 43,
      "hit": false,
      "t": 141185.48553333353,
      "d": 2253.5503666666627,
      "v": 62
    },
    {
      "midi": 65,
      "hit": false,
      "t": 141207.6880000002,
      "d": 943.6048333333165,
      "v": 67
    },
    {
      "midi": 60,
      "hit": false,
      "t": 141229.89046666687,
      "d": 965.8072999999858,
      "v": 74
    },
    {
      "midi": 62,
      "hit": false,
      "t": 141240.9917000002,
      "d": 954.7060666666657,
      "v": 74
    },
    {
      "midi": 55,
      "hit": false,
      "t": 141851.55953333352,
      "d": 954.7060666666657,
      "v": 61
    },
    {
      "midi": 65,
      "hit": false,
      "t": 142517.63353333352,
      "d": 1276.6418333333277,
      "v": 54
    },
    {
      "midi": 60,
      "hit": false,
      "t": 142517.63353333352,
      "d": 1298.844299999997,
      "v": 54
    },
    {
      "midi": 62,
      "hit": false,
      "t": 142517.63353333352,
      "d": 1298.844299999997,
      "v": 61
    },
    {
      "midi": 55,
      "hit": false,
      "t": 143494.54206666685,
      "d": 333.0369999999821,
      "v": 86
    },
    {
      "midi": 43,
      "hit": false,
      "t": 143849.7815333335,
      "d": 2619.891066666605,
      "v": 92
    },
    {
      "midi": 62,
      "hit": false,
      "t": 143871.98400000017,
      "d": 1087.9208666666527,
      "v": 61
    },
    {
      "midi": 59,
      "hit": false,
      "t": 143883.0852333335,
      "d": 1087.9208666666527,
      "v": 82
    },
    {
      "midi": 65,
      "hit": false,
      "t": 143938.59140000015,
      "d": 1065.7183999999834,
      "v": 46
    },
    {
      "midi": 55,
      "hit": false,
      "t": 144515.8555333335,
      "d": 921.402366666618,
      "v": 54
    },
    {
      "midi": 59,
      "hit": false,
      "t": 145181.92953333346,
      "d": 1332.1479999999574,
      "v": 42
    },
    {
      "midi": 62,
      "hit": false,
      "t": 145181.92953333346,
      "d": 1332.1479999999574,
      "v": 50
    },
    {
      "midi": 65,
      "hit": false,
      "t": 145181.92953333346,
      "d": 1332.1479999999574,
      "v": 42
    },
    {
      "midi": 55,
      "hit": false,
      "t": 145848.00353333345,
      "d": 666.0739999999641,
      "v": 73
    },
    {
      "midi": 57,
      "hit": false,
      "t": 146514.07753333342,
      "d": 976.9085333333351,
      "v": 64
    },
    {
      "midi": 65,
      "hit": false,
      "t": 146514.07753333342,
      "d": 1010.2122333333245,
      "v": 58
    },
    {
      "midi": 62,
      "hit": false,
      "t": 146514.07753333342,
      "d": 1021.3134666666447,
      "v": 61
    },
    {
      "midi": 43,
      "hit": false,
      "t": 146514.07753333342,
      "d": 2575.4861333333247,
      "v": 68
    },
    {
      "midi": 50,
      "hit": false,
      "t": 147180.1515333334,
      "d": 1076.8196333333326,
      "v": 53
    },
    {
      "midi": 59,
      "hit": false,
      "t": 147846.2255333334,
      "d": 954.7060666666657,
      "v": 46
    },
    {
      "midi": 65,
      "hit": false,
      "t": 147846.2255333334,
      "d": 976.9085333333351,
      "v": 59
    },
    {
      "midi": 62,
      "hit": false,
      "t": 147846.2255333334,
      "d": 999.1110000000044,
      "v": 55
    },
    {
      "midi": 50,
      "hit": false,
      "t": 148512.2995333334,
      "d": 566.1629000000248,
      "v": 59
    },
    {
      "midi": 60,
      "hit": false,
      "t": 149178.3735333334,
      "d": 1065.7184000000125,
      "v": 55
    },
    {
      "midi": 64,
      "hit": false,
      "t": 149178.3735333334,
      "d": 1065.7184000000125,
      "v": 55
    },
    {
      "midi": 67,
      "hit": false,
      "t": 149178.3735333334,
      "d": 1065.7184000000125,
      "v": 38
    },
    {
      "midi": 48,
      "hit": false,
      "t": 149178.3735333334,
      "d": 1942.71583333335,
      "v": 96
    },
    {
      "midi": 55,
      "hit": false,
      "t": 150177.4845333334,
      "d": 1021.3134666666738,
      "v": 61
    },
    {
      "midi": 60,
      "hit": false,
      "t": 150510.5215333334,
      "d": 910.301133333327,
      "v": 50
    },
    {
      "midi": 67,
      "hit": false,
      "t": 150510.5215333334,
      "d": 965.8072999999858,
      "v": 58
    },
    {
      "midi": 64,
      "hit": false,
      "t": 150510.5215333334,
      "d": 976.908533333306,
      "v": 84
    },
    {
      "midi": 50,
      "hit": false,
      "t": 151176.5955333334,
      "d": 666.0739999999641,
      "v": 61
    },
    {
      "midi": 69,
      "hit": false,
      "t": 151842.66953333336,
      "d": 999.1110000000044,
      "v": 68
    },
    {
      "midi": 64,
      "hit": false,
      "t": 151842.66953333336,
      "d": 1010.2122333333245,
      "v": 64
    },
    {
      "midi": 71,
      "hit": false,
      "t": 151842.66953333336,
      "d": 1021.3134666666447,
      "v": 58
    },
    {
      "midi": 52,
      "hit": false,
      "t": 151842.66953333336,
      "d": 2453.372566666658,
      "v": 68
    },
    {
      "midi": 59,
      "hit": false,
      "t": 152841.78053333337,
      "d": 1631.881299999979,
      "v": 48
    },
    {
      "midi": 62,
      "hit": false,
      "t": 153174.81753333335,
      "d": 1110.1233333333512,
      "v": 58
    },
    {
      "midi": 68,
      "hit": false,
      "t": 153174.81753333335,
      "d": 1110.1233333333512,
      "v": 80
    },
    {
      "midi": 71,
      "hit": false,
      "t": 153174.81753333335,
      "d": 1110.1233333333512,
      "v": 50
    },
    {
      "midi": 64,
      "hit": false,
      "t": 154506.96553333334,
      "d": 699.3776999999827,
      "v": 64
    },
    {
      "midi": 69,
      "hit": false,
      "t": 154506.96553333334,
      "d": 699.3776999999827,
      "v": 53
    },
    {
      "midi": 57,
      "hit": false,
      "t": 154506.96553333334,
      "d": 2664.296000000031,
      "v": 88
    },
    {
      "midi": 60,
      "hit": false,
      "t": 155173.03953333333,
      "d": 976.9085333333351,
      "v": 49
    },
    {
      "midi": 64,
      "hit": false,
      "t": 155839.11353333332,
      "d": 888.0986666666868,
      "v": 64
    },
    {
      "midi": 69,
      "hit": false,
      "t": 155839.11353333332,
      "d": 888.0986666666868,
      "v": 53
    },
    {
      "midi": 60,
      "hit": false,
      "t": 156505.18753333334,
      "d": 666.0740000000224,
      "v": 42
    },
    {
      "midi": 67,
      "hit": false,
      "t": 157171.26153333337,
      "d": 899.1999000000069,
      "v": 64
    },
    {
      "midi": 69,
      "hit": false,
      "t": 157171.26153333337,
      "d": 943.6048333333456,
      "v": 64
    },
    {
      "midi": 62,
      "hit": false,
      "t": 157171.26153333337,
      "d": 976.9085333333351,
      "v": 84
    },
    {
      "midi": 50,
      "hit": false,
      "t": 157171.26153333337,
      "d": 2664.296000000002,
      "v": 72
    },
    {
      "midi": 57,
      "hit": false,
      "t": 157837.33553333336,
      "d": 1087.9208666666818,
      "v": 64
    },
    {
      "midi": 66,
      "hit": false,
      "t": 158503.40953333338,
      "d": 965.8072999999858,
      "v": 76
    },
    {
      "midi": 69,
      "hit": false,
      "t": 158503.40953333338,
      "d": 1010.2122333333245,
      "v": 88
    },
    {
      "midi": 62,
      "hit": false,
      "t": 158503.40953333338,
      "d": 1021.3134666666447,
      "v": 55
    },
    {
      "midi": 57,
      "hit": false,
      "t": 159169.48353333338,
      "d": 666.0739999999932,
      "v": 88
    },
    {
      "midi": 71,
      "hit": false,
      "t": 159835.55753333337,
      "d": 754.8838666666707,
      "v": 76
    },
    {
      "midi": 67,
      "hit": false,
      "t": 159835.55753333337,
      "d": 788.1875666666601,
      "v": 84
    },
    {
      "midi": 55,
      "hit": false,
      "t": 159835.55753333337,
      "d": 2519.9799666666368,
      "v": 85
    },
    {
      "midi": 62,
      "hit": false,
      "t": 160501.63153333336,
      "d": 1021.3134666666738,
      "v": 70
    },
    {
      "midi": 71,
      "hit": false,
      "t": 161167.70553333336,
      "d": 899.1999000000069,
      "v": 79
    },
    {
      "midi": 67,
      "hit": false,
      "t": 161167.70553333336,
      "d": 910.301133333327,
      "v": 81
    },
    {
      "midi": 62,
      "hit": false,
      "t": 161833.77953333335,
      "d": 632.7703000000038,
      "v": 71
    },
    {
      "midi": 68,
      "hit": false,
      "t": 162499.85353333334,
      "d": 843.693733333319,
      "v": 63
    },
    {
      "midi": 64,
      "hit": false,
      "t": 162499.85353333334,
      "d": 865.8961999999883,
      "v": 64
    },
    {
      "midi": 71,
      "hit": false,
      "t": 162499.85353333334,
      "d": 899.1998999999778,
      "v": 64
    },
    {
      "midi": 52,
      "hit": false,
      "t": 162499.85353333334,
      "d": 2608.7898333333433,
      "v": 73
    },
    {
      "midi": 59,
      "hit": false,
      "t": 163165.92753333334,
      "d": 1021.3134666666738,
      "v": 64
    },
    {
      "midi": 64,
      "hit": false,
      "t": 163832.00153333333,
      "d": 1087.9208666666818,
      "v": 64
    },
    {
      "midi": 68,
      "hit": false,
      "t": 163832.00153333333,
      "d": 1087.9208666666818,
      "v": 61
    },
    {
      "midi": 71,
      "hit": false,
      "t": 163832.00153333333,
      "d": 1087.9208666666818,
      "v": 55
    },
    {
      "midi": 59,
      "hit": false,
      "t": 164498.07553333335,
      "d": 666.0739999999932,
      "v": 84
    },
    {
      "midi": 69,
      "hit": false,
      "t": 165164.14953333334,
      "d": 999.1110000000044,
      "v": 80
    },
    {
      "midi": 72,
      "hit": false,
      "t": 165164.14953333334,
      "d": 1021.3134666666738,
      "v": 80
    },
    {
      "midi": 57,
      "hit": false,
      "t": 165164.14953333334,
      "d": 2586.587366666674,
      "v": 76
    },
    {
      "midi": 64,
      "hit": false,
      "t": 165830.22353333334,
      "d": 1065.7184000000125,
      "v": 72
    },
    {
      "midi": 69,
      "hit": false,
      "t": 166496.29753333336,
      "d": 1232.236899999989,
      "v": 68
    },
    {
      "midi": 72,
      "hit": false,
      "t": 166496.29753333336,
      "d": 1232.236899999989,
      "v": 72
    },
    {
      "midi": 64,
      "hit": false,
      "t": 167162.37153333335,
      "d": 666.0739999999932,
      "v": 68
    },
    {
      "midi": 50,
      "hit": false,
      "t": 167828.44553333335,
      "d": 3996.4440000000177,
      "v": 50
    },
    {
      "midi": 67,
      "hit": false,
      "t": 167872.85046666668,
      "d": 1076.8196333333326,
      "v": 84
    },
    {
      "midi": 69,
      "hit": false,
      "t": 167883.9517,
      "d": 1065.7184000000125,
      "v": 76
    },
    {
      "midi": 62,
      "hit": false,
      "t": 167906.15416666667,
      "d": 1054.6171666666633,
      "v": 76
    },
    {
      "midi": 57,
      "hit": false,
      "t": 168805.35406666668,
      "d": 1032.414700000023,
      "v": 68
    },
    {
      "midi": 67,
      "hit": false,
      "t": 169149.4923,
      "d": 1065.7184000000416,
      "v": 68
    },
    {
      "midi": 69,
      "hit": false,
      "t": 169193.89723333335,
      "d": 1076.8196333333617,
      "v": 46
    },
    {
      "midi": 62,
      "hit": false,
      "t": 169238.3021666667,
      "d": 1054.6171666666924,
      "v": 38
    },
    {
      "midi": 57,
      "hit": false,
      "t": 170148.60330000005,
      "d": 954.7060666666657,
      "v": 84
    },
    {
      "midi": 66,
      "hit": false,
      "t": 170492.74153333338,
      "d": 1076.8196333333326,
      "v": 58
    },
    {
      "midi": 62,
      "hit": false,
      "t": 170492.74153333338,
      "d": 1087.9208666666527,
      "v": 50
    },
    {
      "midi": 69,
      "hit": false,
      "t": 170492.74153333338,
      "d": 1110.123333333322,
      "v": 80
    },
    {
      "midi": 57,
      "hit": false,
      "t": 171469.6500666667,
      "d": 1021.3134666666738,
      "v": 92
    },
    {
      "midi": 50,
      "hit": false,
      "t": 171824.88953333336,
      "d": 333.0370000000112,
      "v": 64
    },
    {
      "midi": 62,
      "hit": false,
      "t": 171824.88953333336,
      "d": 333.0370000000112,
      "v": 64
    },
    {
      "midi": 69,
      "hit": false,
      "t": 171824.88953333336,
      "d": 333.0370000000112,
      "v": 64
    },
    {
      "midi": 66,
      "hit": false,
      "t": 171824.88953333336,
      "d": 1221.135666666698,
      "v": 71
    },
    {
      "midi": 69,
      "hit": false,
      "t": 172157.92653333338,
      "d": 899.1999000000069,
      "v": 66
    },
    {
      "midi": 62,
      "hit": false,
      "t": 172513.16600000006,
      "d": 643.8715333333239,
      "v": 70
    },
    {
      "midi": 50,
      "hit": false,
      "t": 172824.0005333334,
      "d": 255.3283666666539,
      "v": 75
    },
    {
      "midi": 71,
      "hit": false,
      "t": 173157.03753333338,
      "d": 754.8838666666707,
      "v": 76
    },
    {
      "midi": 67,
      "hit": false,
      "t": 173157.03753333338,
      "d": 788.1875666666601,
      "v": 84
    },
    {
      "midi": 55,
      "hit": false,
      "t": 173157.03753333338,
      "d": 2519.9799666666368,
      "v": 85
    },
    {
      "midi": 62,
      "hit": false,
      "t": 173823.11153333337,
      "d": 1021.3134666666738,
      "v": 70
    },
    {
      "midi": 71,
      "hit": false,
      "t": 174489.18553333337,
      "d": 899.1999000000069,
      "v": 79
    },
    {
      "midi": 67,
      "hit": false,
      "t": 174489.18553333337,
      "d": 910.301133333327,
      "v": 81
    },
    {
      "midi": 62,
      "hit": false,
      "t": 175155.25953333336,
      "d": 632.7703000000038,
      "v": 71
    },
    {
      "midi": 68,
      "hit": false,
      "t": 175821.33353333335,
      "d": 843.693733333319,
      "v": 63
    },
    {
      "midi": 64,
      "hit": false,
      "t": 175821.33353333335,
      "d": 865.8961999999883,
      "v": 64
    },
    {
      "midi": 71,
      "hit": false,
      "t": 175821.33353333335,
      "d": 899.1998999999778,
      "v": 64
    },
    {
      "midi": 52,
      "hit": false,
      "t": 175821.33353333335,
      "d": 2608.7898333333433,
      "v": 73
    },
    {
      "midi": 59,
      "hit": false,
      "t": 176487.40753333335,
      "d": 1021.3134666666738,
      "v": 64
    },
    {
      "midi": 64,
      "hit": false,
      "t": 177153.48153333334,
      "d": 1087.9208666666818,
      "v": 64
    },
    {
      "midi": 68,
      "hit": false,
      "t": 177153.48153333334,
      "d": 1087.9208666666818,
      "v": 61
    },
    {
      "midi": 71,
      "hit": false,
      "t": 177153.48153333334,
      "d": 1087.9208666666818,
      "v": 55
    },
    {
      "midi": 59,
      "hit": false,
      "t": 177819.55553333336,
      "d": 666.0739999999932,
      "v": 84
    },
    {
      "midi": 69,
      "hit": false,
      "t": 178485.62953333335,
      "d": 999.1110000000044,
      "v": 80
    },
    {
      "midi": 72,
      "hit": false,
      "t": 178485.62953333335,
      "d": 1021.3134666666738,
      "v": 80
    },
    {
      "midi": 57,
      "hit": false,
      "t": 178485.62953333335,
      "d": 2586.587366666674,
      "v": 76
    },
    {
      "midi": 64,
      "hit": false,
      "t": 179151.70353333335,
      "d": 1065.7184000000125,
      "v": 72
    },
    {
      "midi": 69,
      "hit": false,
      "t": 179817.77753333337,
      "d": 1232.236899999989,
      "v": 68
    },
    {
      "midi": 72,
      "hit": false,
      "t": 179817.77753333337,
      "d": 1232.236899999989,
      "v": 72
    },
    {
      "midi": 64,
      "hit": false,
      "t": 180483.85153333336,
      "d": 666.0739999999932,
      "v": 68
    },
    {
      "midi": 50,
      "hit": false,
      "t": 181149.92553333336,
      "d": 3996.4439999999595,
      "v": 50
    },
    {
      "midi": 67,
      "hit": false,
      "t": 181183.22923333335,
      "d": 1087.9208666666527,
      "v": 84
    },
    {
      "midi": 69,
      "hit": false,
      "t": 181194.33046666667,
      "d": 1076.8196333333326,
      "v": 76
    },
    {
      "midi": 62,
      "hit": false,
      "t": 181227.63416666666,
      "d": 1054.6171666666633,
      "v": 76
    },
    {
      "midi": 57,
      "hit": false,
      "t": 181815.99953333332,
      "d": 1032.414700000023,
      "v": 68
    },
    {
      "midi": 67,
      "hit": false,
      "t": 182470.9723,
      "d": 1065.7184000000125,
      "v": 68
    },
    {
      "midi": 69,
      "hit": false,
      "t": 182515.37723333333,
      "d": 1076.8196333333326,
      "v": 46
    },
    {
      "midi": 62,
      "hit": false,
      "t": 182559.78216666667,
      "d": 1054.6171666666633,
      "v": 38
    },
    {
      "midi": 57,
      "hit": false,
      "t": 183181.45123333333,
      "d": 954.7060666666657,
      "v": 84
    },
    {
      "midi": 66,
      "hit": false,
      "t": 183814.22153333333,
      "d": 1076.8196333333326,
      "v": 58
    },
    {
      "midi": 62,
      "hit": false,
      "t": 183814.22153333333,
      "d": 1087.9208666666527,
      "v": 50
    },
    {
      "midi": 69,
      "hit": false,
      "t": 183814.22153333333,
      "d": 1110.123333333322,
      "v": 80
    },
    {
      "midi": 57,
      "hit": false,
      "t": 184469.1943,
      "d": 1021.3134666666447,
      "v": 92
    },
    {
      "midi": 66,
      "hit": false,
      "t": 185146.36953333332,
      "d": 1221.1356666666688,
      "v": 71
    },
    {
      "midi": 62,
      "hit": false,
      "t": 185146.36953333332,
      "d": 1298.844299999997,
      "v": 64
    },
    {
      "midi": 69,
      "hit": false,
      "t": 185146.36953333332,
      "d": 1298.844299999997,
      "v": 64
    },
    {
      "midi": 50,
      "hit": false,
      "t": 185168.572,
      "d": 310.8345333333418,
      "v": 64
    },
    {
      "midi": 55,
      "hit": false,
      "t": 186478.5175333333,
      "d": 5250.883366666676,
      "v": 85
    },
    {
      "midi": 62,
      "hit": false,
      "t": 186500.71999999997,
      "d": 5228.680900000007,
      "v": 70
    },
    {
      "midi": 67,
      "hit": false,
      "t": 186522.92246666664,
      "d": 5217.579666666657,
      "v": 84
    },
    {
      "midi": 71,
      "hit": false,
      "t": 186567.32739999995,
      "d": 5195.377200000017,
      "v": 76
    },
    {
      "midi": 48,
      "hit": false,
      "t": 194471.4055333333,
      "d": 2553.2836666666844,
      "v": 78
    },
    {
      "midi": 60,
      "hit": false,
      "t": 194471.4055333333,
      "d": 2664.296000000031,
      "v": 80
    },
    {
      "midi": 67,
      "hit": false,
      "t": 194493.60799999998,
      "d": 466.2517999999982,
      "v": 72
    },
    {
      "midi": 72,
      "hit": false,
      "t": 194504.7092333333,
      "d": 499.55550000001676,
      "v": 84
    },
    {
      "midi": 64,
      "hit": false,
      "t": 194526.91169999997,
      "d": 111.01233333334676,
      "v": 84
    },
    {
      "midi": 64,
      "hit": false,
      "t": 194804.44253333332,
      "d": 1143.4270333333407,
      "v": 64
    },
    {
      "midi": 67,
      "hit": false,
      "t": 195137.4795333333,
      "d": 421.8468666666886,
      "v": 84
    },
    {
      "midi": 72,
      "hit": false,
      "t": 195470.5165333333,
      "d": 133.2148000000161,
      "v": 80
    },
    {
      "midi": 72,
      "hit": false,
      "t": 195803.55353333332,
      "d": 721.5801666666812,
      "v": 55
    },
    {
      "midi": 64,
      "hit": false,
      "t": 196136.59053333334,
      "d": 999.1110000000044,
      "v": 92
    },
    {
      "midi": 67,
      "hit": false,
      "t": 196469.62753333335,
      "d": 466.2517999999691,
      "v": 55
    },
    {
      "midi": 72,
      "hit": false,
      "t": 196802.66453333333,
      "d": 333.0370000000112,
      "v": 88
    },
    {
      "midi": 47,
      "hit": false,
      "t": 197135.70153333334,
      "d": 2553.2836666666844,
      "v": 78
    },
    {
      "midi": 59,
      "hit": false,
      "t": 197135.70153333334,
      "d": 2664.296000000031,
      "v": 80
    },
    {
      "midi": 67,
      "hit": false,
      "t": 197157.904,
      "d": 466.2517999999982,
      "v": 72
    },
    {
      "midi": 71,
      "hit": false,
      "t": 197169.00523333333,
      "d": 499.55550000001676,
      "v": 84
    },
    {
      "midi": 64,
      "hit": false,
      "t": 197191.2077,
      "d": 111.01233333334676,
      "v": 84
    },
    {
      "midi": 64,
      "hit": false,
      "t": 197468.73853333335,
      "d": 1143.4270333333407,
      "v": 64
    },
    {
      "midi": 67,
      "hit": false,
      "t": 197801.77553333333,
      "d": 421.8468666666886,
      "v": 84
    },
    {
      "midi": 72,
      "hit": false,
      "t": 198134.81253333334,
      "d": 133.2148000000161,
      "v": 80
    },
    {
      "midi": 72,
      "hit": false,
      "t": 198467.84953333336,
      "d": 721.5801666666812,
      "v": 55
    },
    {
      "midi": 64,
      "hit": false,
      "t": 198800.88653333337,
      "d": 999.1110000000044,
      "v": 92
    },
    {
      "midi": 67,
      "hit": false,
      "t": 199133.92353333338,
      "d": 466.2517999999691,
      "v": 55
    },
    {
      "midi": 71,
      "hit": false,
      "t": 199466.96053333336,
      "d": 333.0370000000112,
      "v": 88
    },
    {
      "midi": 45,
      "hit": false,
      "t": 199799.99753333337,
      "d": 2553.2836666666844,
      "v": 78
    },
    {
      "midi": 57,
      "hit": false,
      "t": 199799.99753333337,
      "d": 2664.296000000031,
      "v": 80
    },
    {
      "midi": 60,
      "hit": false,
      "t": 199822.20000000004,
      "d": 310.8345333333418,
      "v": 72
    },
    {
      "midi": 64,
      "hit": false,
      "t": 199833.30123333336,
      "d": 499.55550000001676,
      "v": 84
    },
    {
      "midi": 69,
      "hit": false,
      "t": 199855.50370000003,
      "d": 111.01233333334676,
      "v": 84
    },
    {
      "midi": 60,
      "hit": false,
      "t": 200133.03453333338,
      "d": 144.31603333333624,
      "v": 64
    },
    {
      "midi": 64,
      "hit": false,
      "t": 200466.07153333336,
      "d": 421.8468666666886,
      "v": 84
    },
    {
      "midi": 69,
      "hit": false,
      "t": 200799.10853333338,
      "d": 133.2148000000161,
      "v": 80
    },
    {
      "midi": 69,
      "hit": false,
      "t": 201132.1455333334,
      "d": 721.5801666666812,
      "v": 55
    },
    {
      "midi": 60,
      "hit": false,
      "t": 201465.1825333334,
      "d": 999.1110000000044,
      "v": 92
    },
    {
      "midi": 64,
      "hit": false,
      "t": 201798.2195333334,
      "d": 466.2517999999691,
      "v": 55
    },
    {
      "midi": 69,
      "hit": false,
      "t": 202131.2565333334,
      "d": 333.0370000000112,
      "v": 88
    },
    {
      "midi": 45,
      "hit": false,
      "t": 202464.2935333334,
      "d": 2553.2836666666844,
      "v": 78
    },
    {
      "midi": 57,
      "hit": false,
      "t": 202464.2935333334,
      "d": 2664.296000000031,
      "v": 80
    },
    {
      "midi": 60,
      "hit": false,
      "t": 202486.49600000007,
      "d": 310.8345333333418,
      "v": 72
    },
    {
      "midi": 64,
      "hit": false,
      "t": 202497.5972333334,
      "d": 499.55550000001676,
      "v": 84
    },
    {
      "midi": 68,
      "hit": false,
      "t": 202519.79970000006,
      "d": 111.01233333334676,
      "v": 84
    },
    {
      "midi": 60,
      "hit": false,
      "t": 202797.3305333334,
      "d": 144.31603333333624,
      "v": 64
    },
    {
      "midi": 64,
      "hit": false,
      "t": 203130.3675333334,
      "d": 421.8468666666886,
      "v": 84
    },
    {
      "midi": 68,
      "hit": false,
      "t": 203463.4045333334,
      "d": 133.2148000000161,
      "v": 80
    },
    {
      "midi": 68,
      "hit": false,
      "t": 203796.44153333342,
      "d": 721.5801666666812,
      "v": 55
    },
    {
      "midi": 60,
      "hit": false,
      "t": 204129.47853333343,
      "d": 999.1110000000044,
      "v": 92
    },
    {
      "midi": 64,
      "hit": false,
      "t": 204462.51553333344,
      "d": 466.2517999999691,
      "v": 55
    },
    {
      "midi": 68,
      "hit": false,
      "t": 204795.55253333342,
      "d": 333.0370000000112,
      "v": 88
    },
    {
      "midi": 48,
      "hit": false,
      "t": 205128.58953333343,
      "d": 2553.2836666666844,
      "v": 78
    },
    {
      "midi": 60,
      "hit": false,
      "t": 205128.58953333343,
      "d": 2664.296000000031,
      "v": 80
    },
    {
      "midi": 67,
      "hit": false,
      "t": 205150.7920000001,
      "d": 466.2517999999982,
      "v": 72
    },
    {
      "midi": 72,
      "hit": false,
      "t": 205161.89323333342,
      "d": 499.55550000001676,
      "v": 84
    },
    {
      "midi": 64,
      "hit": false,
      "t": 205184.0957000001,
      "d": 111.01233333334676,
      "v": 84
    },
    {
      "midi": 64,
      "hit": false,
      "t": 205461.62653333344,
      "d": 1143.4270333333407,
      "v": 64
    },
    {
      "midi": 67,
      "hit": false,
      "t": 205794.66353333343,
      "d": 421.8468666666886,
      "v": 84
    },
    {
      "midi": 72,
      "hit": false,
      "t": 206127.70053333344,
      "d": 133.2148000000161,
      "v": 80
    },
    {
      "midi": 72,
      "hit": false,
      "t": 206460.73753333345,
      "d": 721.5801666666812,
      "v": 55
    },
    {
      "midi": 64,
      "hit": false,
      "t": 206793.77453333346,
      "d": 999.1110000000044,
      "v": 92
    },
    {
      "midi": 67,
      "hit": false,
      "t": 207126.81153333347,
      "d": 466.2517999999691,
      "v": 55
    },
    {
      "midi": 72,
      "hit": false,
      "t": 207459.84853333345,
      "d": 333.0370000000112,
      "v": 88
    },
    {
      "midi": 48,
      "hit": false,
      "t": 207792.88553333346,
      "d": 2553.2836666666844,
      "v": 78
    },
    {
      "midi": 60,
      "hit": false,
      "t": 207792.88553333346,
      "d": 2664.296000000031,
      "v": 80
    },
    {
      "midi": 67,
      "hit": false,
      "t": 207815.08800000013,
      "d": 466.2517999999982,
      "v": 72
    },
    {
      "midi": 71,
      "hit": false,
      "t": 207826.18923333345,
      "d": 499.55550000001676,
      "v": 84
    },
    {
      "midi": 64,
      "hit": false,
      "t": 207848.39170000012,
      "d": 111.01233333334676,
      "v": 84
    },
    {
      "midi": 64,
      "hit": false,
      "t": 208125.92253333348,
      "d": 1143.4270333333407,
      "v": 64
    },
    {
      "midi": 67,
      "hit": false,
      "t": 208458.95953333346,
      "d": 421.8468666666886,
      "v": 84
    },
    {
      "midi": 72,
      "hit": false,
      "t": 208791.99653333347,
      "d": 133.2148000000161,
      "v": 80
    },
    {
      "midi": 72,
      "hit": false,
      "t": 209125.03353333348,
      "d": 721.5801666666812,
      "v": 55
    },
    {
      "midi": 64,
      "hit": false,
      "t": 209458.0705333335,
      "d": 999.1110000000044,
      "v": 92
    },
    {
      "midi": 67,
      "hit": false,
      "t": 209791.1075333335,
      "d": 466.2517999999691,
      "v": 55
    },
    {
      "midi": 71,
      "hit": false,
      "t": 210124.14453333349,
      "d": 333.0370000000112,
      "v": 88
    },
    {
      "midi": 45,
      "hit": false,
      "t": 210457.1815333335,
      "d": 2553.2836666666844,
      "v": 78
    },
    {
      "midi": 57,
      "hit": false,
      "t": 210457.1815333335,
      "d": 2664.296000000031,
      "v": 80
    },
    {
      "midi": 60,
      "hit": false,
      "t": 210479.38400000017,
      "d": 310.8345333333418,
      "v": 72
    },
    {
      "midi": 64,
      "hit": false,
      "t": 210490.4852333335,
      "d": 499.55550000001676,
      "v": 84
    },
    {
      "midi": 69,
      "hit": false,
      "t": 210512.68770000016,
      "d": 111.01233333334676,
      "v": 84
    },
    {
      "midi": 60,
      "hit": false,
      "t": 210790.2185333335,
      "d": 144.31603333333624,
      "v": 64
    },
    {
      "midi": 64,
      "hit": false,
      "t": 211123.2555333335,
      "d": 421.8468666666886,
      "v": 84
    },
    {
      "midi": 69,
      "hit": false,
      "t": 211456.2925333335,
      "d": 133.2148000000161,
      "v": 80
    },
    {
      "midi": 69,
      "hit": false,
      "t": 211789.3295333335,
      "d": 721.5801666666812,
      "v": 55
    },
    {
      "midi": 60,
      "hit": false,
      "t": 212122.36653333352,
      "d": 999.1110000000044,
      "v": 92
    },
    {
      "midi": 64,
      "hit": false,
      "t": 212455.40353333353,
      "d": 466.2517999999691,
      "v": 55
    },
    {
      "midi": 69,
      "hit": false,
      "t": 212788.44053333352,
      "d": 333.0370000000112,
      "v": 88
    },
    {
      "midi": 45,
      "hit": false,
      "t": 213121.47753333353,
      "d": 2553.2836666666844,
      "v": 78
    },
    {
      "midi": 57,
      "hit": false,
      "t": 213121.47753333353,
      "d": 2664.296000000031,
      "v": 80
    },
    {
      "midi": 60,
      "hit": false,
      "t": 213143.6800000002,
      "d": 310.8345333333418,
      "v": 72
    },
    {
      "midi": 64,
      "hit": false,
      "t": 213154.78123333352,
      "d": 499.55550000001676,
      "v": 84
    },
    {
      "midi": 68,
      "hit": false,
      "t": 213176.9837000002,
      "d": 111.01233333334676,
      "v": 84
    },
    {
      "midi": 60,
      "hit": false,
      "t": 213454.51453333354,
      "d": 144.31603333333624,
      "v": 64
    },
    {
      "midi": 64,
      "hit": false,
      "t": 213787.55153333352,
      "d": 421.8468666666886,
      "v": 84
    },
    {
      "midi": 68,
      "hit": false,
      "t": 214120.58853333353,
      "d": 133.2148000000161,
      "v": 80
    },
    {
      "midi": 68,
      "hit": false,
      "t": 214453.62553333354,
      "d": 721.5801666666812,
      "v": 55
    },
    {
      "midi": 60,
      "hit": false,
      "t": 214786.66253333355,
      "d": 999.1110000000044,
      "v": 92
    },
    {
      "midi": 64,
      "hit": false,
      "t": 215119.69953333357,
      "d": 466.2517999999691,
      "v": 55
    },
    {
      "midi": 68,
      "hit": false,
      "t": 215452.73653333355,
      "d": 333.0370000000112,
      "v": 88
    },
    {
      "midi": 48,
      "hit": false,
      "t": 215785.77353333356,
      "d": 2553.2836666666844,
      "v": 78
    },
    {
      "midi": 60,
      "hit": false,
      "t": 215785.77353333356,
      "d": 2664.296000000031,
      "v": 80
    },
    {
      "midi": 67,
      "hit": false,
      "t": 215807.97600000023,
      "d": 466.2517999999982,
      "v": 72
    },
    {
      "midi": 72,
      "hit": false,
      "t": 215819.07723333355,
      "d": 499.55550000001676,
      "v": 84
    },
    {
      "midi": 64,
      "hit": false,
      "t": 215841.27970000022,
      "d": 111.01233333334676,
      "v": 84
    },
    {
      "midi": 64,
      "hit": false,
      "t": 216118.81053333357,
      "d": 1143.4270333333407,
      "v": 64
    },
    {
      "midi": 67,
      "hit": false,
      "t": 216451.84753333355,
      "d": 421.8468666666886,
      "v": 84
    },
    {
      "midi": 72,
      "hit": false,
      "t": 216784.88453333356,
      "d": 133.2148000000161,
      "v": 80
    },
    {
      "midi": 72,
      "hit": false,
      "t": 217117.92153333357,
      "d": 721.5801666666812,
      "v": 55
    },
    {
      "midi": 64,
      "hit": false,
      "t": 217450.95853333359,
      "d": 999.1110000000044,
      "v": 92
    },
    {
      "midi": 67,
      "hit": false,
      "t": 217783.9955333336,
      "d": 466.2517999999691,
      "v": 55
    },
    {
      "midi": 72,
      "hit": false,
      "t": 218117.03253333358,
      "d": 333.0370000000112,
      "v": 88
    },
    {
      "midi": 48,
      "hit": false,
      "t": 218450.0695333336,
      "d": 2553.2836666666844,
      "v": 78
    },
    {
      "midi": 60,
      "hit": false,
      "t": 218450.0695333336,
      "d": 2664.296000000031,
      "v": 80
    },
    {
      "midi": 67,
      "hit": false,
      "t": 218472.27200000026,
      "d": 466.2517999999982,
      "v": 72
    },
    {
      "midi": 71,
      "hit": false,
      "t": 218483.37323333358,
      "d": 499.55550000001676,
      "v": 84
    },
    {
      "midi": 64,
      "hit": false,
      "t": 218505.57570000025,
      "d": 111.01233333334676,
      "v": 84
    },
    {
      "midi": 64,
      "hit": false,
      "t": 218783.1065333336,
      "d": 1143.4270333333407,
      "v": 64
    },
    {
      "midi": 67,
      "hit": false,
      "t": 219116.14353333358,
      "d": 421.8468666666886,
      "v": 84
    },
    {
      "midi": 72,
      "hit": false,
      "t": 219449.1805333336,
      "d": 133.2148000000161,
      "v": 80
    },
    {
      "midi": 72,
      "hit": false,
      "t": 219782.2175333336,
      "d": 721.5801666666812,
      "v": 55
    },
    {
      "midi": 64,
      "hit": false,
      "t": 220115.25453333362,
      "d": 999.1110000000044,
      "v": 92
    },
    {
      "midi": 67,
      "hit": false,
      "t": 220448.29153333363,
      "d": 466.2517999999691,
      "v": 55
    },
    {
      "midi": 71,
      "hit": false,
      "t": 220781.3285333336,
      "d": 333.0370000000112,
      "v": 88
    },
    {
      "midi": 45,
      "hit": false,
      "t": 221114.36553333362,
      "d": 2553.2836666666844,
      "v": 78
    },
    {
      "midi": 57,
      "hit": false,
      "t": 221114.36553333362,
      "d": 2664.296000000031,
      "v": 80
    },
    {
      "midi": 60,
      "hit": false,
      "t": 221136.5680000003,
      "d": 310.8345333333418,
      "v": 72
    },
    {
      "midi": 64,
      "hit": false,
      "t": 221147.6692333336,
      "d": 499.55550000001676,
      "v": 84
    },
    {
      "midi": 69,
      "hit": false,
      "t": 221169.87170000028,
      "d": 111.01233333334676,
      "v": 84
    },
    {
      "midi": 60,
      "hit": false,
      "t": 221447.40253333363,
      "d": 144.31603333333624,
      "v": 64
    },
    {
      "midi": 64,
      "hit": false,
      "t": 221780.4395333336,
      "d": 421.8468666666886,
      "v": 84
    },
    {
      "midi": 69,
      "hit": false,
      "t": 222113.47653333363,
      "d": 133.2148000000161,
      "v": 80
    },
    {
      "midi": 69,
      "hit": false,
      "t": 222446.51353333364,
      "d": 721.5801666666812,
      "v": 55
    },
    {
      "midi": 60,
      "hit": false,
      "t": 222779.55053333365,
      "d": 999.1110000000044,
      "v": 92
    },
    {
      "midi": 64,
      "hit": false,
      "t": 223112.58753333366,
      "d": 466.2517999999691,
      "v": 55
    },
    {
      "midi": 69,
      "hit": false,
      "t": 223445.62453333364,
      "d": 333.0370000000112,
      "v": 88
    },
    {
      "midi": 44,
      "hit": false,
      "t": 223778.66153333365,
      "d": 1920.5133666666807,
      "v": 78
    },
    {
      "midi": 56,
      "hit": false,
      "t": 223778.66153333365,
      "d": 2664.296000000002,
      "v": 80
    },
    {
      "midi": 60,
      "hit": false,
      "t": 223800.86400000032,
      "d": 310.8345333333418,
      "v": 72
    },
    {
      "midi": 64,
      "hit": false,
      "t": 223811.96523333364,
      "d": 499.55550000001676,
      "v": 84
    },
    {
      "midi": 68,
      "hit": false,
      "t": 223834.1677000003,
      "d": 111.01233333334676,
      "v": 84
    },
    {
      "midi": 60,
      "hit": false,
      "t": 224111.69853333366,
      "d": 144.31603333333624,
      "v": 64
    },
    {
      "midi": 64,
      "hit": false,
      "t": 224444.73553333365,
      "d": 421.8468666666886,
      "v": 84
    },
    {
      "midi": 68,
      "hit": false,
      "t": 224777.77253333366,
      "d": 133.2148000000161,
      "v": 80
    },
    {
      "midi": 68,
      "hit": false,
      "t": 225110.80953333367,
      "d": 721.5801666666521,
      "v": 55
    },
    {
      "midi": 60,
      "hit": false,
      "t": 225443.84653333368,
      "d": 999.1109999999753,
      "v": 92
    },
    {
      "midi": 43,
      "hit": false,
      "t": 225776.88353333366,
      "d": 643.8715333333239,
      "v": 80
    },
    {
      "midi": 64,
      "hit": false,
      "t": 225776.88353333366,
      "d": 643.8715333333239,
      "v": 55
    },
    {
      "midi": 67,
      "hit": false,
      "t": 225776.88353333366,
      "d": 666.0739999999932,
      "v": 88
    },
    {
      "midi": 57,
      "hit": false,
      "t": 226442.95753333365,
      "d": 255.328366666683,
      "v": 66
    },
    {
      "midi": 60,
      "hit": false,
      "t": 226442.95753333365,
      "d": 255.328366666683,
      "v": 63
    },
    {
      "midi": 65,
      "hit": false,
      "t": 226442.95753333365,
      "d": 510.656733333366,
      "v": 66
    },
    {
      "midi": 69,
      "hit": false,
      "t": 226442.95753333365,
      "d": 555.0616666667047,
      "v": 66
    },
    {
      "midi": 53,
      "hit": false,
      "t": 226465.16000000032,
      "d": 421.8468666666886,
      "v": 74
    },
    {
      "midi": 57,
      "hit": false,
      "t": 226775.99453333367,
      "d": 421.8468666667177,
      "v": 64
    },
    {
      "midi": 60,
      "hit": false,
      "t": 227109.0315333337,
      "d": 421.8468666666886,
      "v": 87
    },
    {
      "midi": 65,
      "hit": false,
      "t": 227442.06853333372,
      "d": 510.6567333333369,
      "v": 74
    },
    {
      "midi": 60,
      "hit": false,
      "t": 227775.10553333373,
      "d": 344.1382333333022,
      "v": 77
    },
    {
      "midi": 57,
      "hit": false,
      "t": 228108.1425333337,
      "d": 410.74563333331025,
      "v": 72
    },
    {
      "midi": 60,
      "hit": false,
      "t": 228441.1795333337,
      "d": 455.15056666664896,
      "v": 88
    },
    {
      "midi": 57,
      "hit": false,
      "t": 228774.21653333367,
      "d": 222.02466666666442,
      "v": 88
    },
    {
      "midi": 43,
      "hit": false,
      "t": 229107.2535333337,
      "d": 2553.2836666666844,
      "v": 78
    },
    {
      "midi": 55,
      "hit": false,
      "t": 229107.2535333337,
      "d": 2664.296000000031,
      "v": 80
    },
    {
      "midi": 60,
      "hit": false,
      "t": 229129.45600000035,
      "d": 310.8345333333418,
      "v": 72
    },
    {
      "midi": 62,
      "hit": false,
      "t": 229140.55723333367,
      "d": 499.55550000001676,
      "v": 84
    },
    {
      "midi": 65,
      "hit": false,
      "t": 229162.75970000034,
      "d": 111.01233333334676,
      "v": 84
    },
    {
      "midi": 60,
      "hit": false,
      "t": 229440.2905333337,
      "d": 144.31603333333624,
      "v": 64
    },
    {
      "midi": 62,
      "hit": false,
      "t": 229773.32753333368,
      "d": 421.8468666666886,
      "v": 84
    },
    {
      "midi": 65,
      "hit": false,
      "t": 230106.3645333337,
      "d": 133.2148000000161,
      "v": 80
    },
    {
      "midi": 65,
      "hit": false,
      "t": 230439.4015333337,
      "d": 721.5801666666812,
      "v": 55
    },
    {
      "midi": 60,
      "hit": false,
      "t": 230772.4385333337,
      "d": 999.1110000000044,
      "v": 92
    },
    {
      "midi": 62,
      "hit": false,
      "t": 231105.47553333372,
      "d": 466.2517999999691,
      "v": 55
    },
    {
      "midi": 65,
      "hit": false,
      "t": 231438.5125333337,
      "d": 333.0370000000112,
      "v": 88
    },
    {
      "midi": 43,
      "hit": false,
      "t": 231771.54953333372,
      "d": 1909.4121333333605,
      "v": 78
    },
    {
      "midi": 55,
      "hit": false,
      "t": 231771.54953333372,
      "d": 2664.296000000002,
      "v": 80
    },
    {
      "midi": 59,
      "hit": false,
      "t": 231793.7520000004,
      "d": 310.8345333333418,
      "v": 72
    },
    {
      "midi": 62,
      "hit": false,
      "t": 231804.8532333337,
      "d": 499.55550000001676,
      "v": 84
    },
    {
      "midi": 65,
      "hit": false,
      "t": 231827.05570000038,
      "d": 111.01233333334676,
      "v": 84
    },
    {
      "midi": 59,
      "hit": false,
      "t": 232104.58653333373,
      "d": 144.31603333333624,
      "v": 64
    },
    {
      "midi": 62,
      "hit": false,
      "t": 232437.6235333337,
      "d": 421.8468666666886,
      "v": 84
    },
    {
      "midi": 65,
      "hit": false,
      "t": 232770.66053333372,
      "d": 133.2148000000161,
      "v": 80
    },
    {
      "midi": 59,
      "hit": false,
      "t": 233103.69753333373,
      "d": 144.31603333333624,
      "v": 92
    },
    {
      "midi": 65,
      "hit": false,
      "t": 233103.69753333373,
      "d": 333.0370000000112,
      "v": 55
    },
    {
      "midi": 62,
      "hit": false,
      "t": 233103.69753333373,
      "d": 466.2517999999982,
      "v": 55
    },
    {
      "midi": 65,
      "hit": false,
      "t": 233769.77153333375,
      "d": 55.50616666665883,
      "v": 64
    },
    {
      "midi": 59,
      "hit": false,
      "t": 233769.77153333375,
      "d": 333.0369999999821,
      "v": 64
    },
    {
      "midi": 43,
      "hit": false,
      "t": 233769.77153333375,
      "d": 632.7702999999747,
      "v": 81
    },
    {
      "midi": 62,
      "hit": false,
      "t": 233769.77153333375,
      "d": 666.0739999999641,
      "v": 64
    },
    {
      "midi": 48,
      "hit": false,
      "t": 234435.84553333372,
      "d": 2553.2836666666844,
      "v": 78
    },
    {
      "midi": 60,
      "hit": false,
      "t": 234435.84553333372,
      "d": 2664.296000000031,
      "v": 80
    },
    {
      "midi": 67,
      "hit": false,
      "t": 234458.0480000004,
      "d": 466.2517999999982,
      "v": 72
    },
    {
      "midi": 72,
      "hit": false,
      "t": 234469.1492333337,
      "d": 499.55550000001676,
      "v": 84
    },
    {
      "midi": 64,
      "hit": false,
      "t": 234491.35170000038,
      "d": 111.01233333334676,
      "v": 84
    },
    {
      "midi": 64,
      "hit": false,
      "t": 234768.88253333373,
      "d": 1143.4270333333407,
      "v": 64
    },
    {
      "midi": 67,
      "hit": false,
      "t": 235101.9195333337,
      "d": 421.8468666666886,
      "v": 84
    },
    {
      "midi": 72,
      "hit": false,
      "t": 235434.95653333372,
      "d": 133.2148000000161,
      "v": 80
    },
    {
      "midi": 72,
      "hit": false,
      "t": 235767.99353333373,
      "d": 721.5801666666812,
      "v": 55
    },
    {
      "midi": 64,
      "hit": false,
      "t": 236101.03053333375,
      "d": 999.1110000000044,
      "v": 92
    },
    {
      "midi": 67,
      "hit": false,
      "t": 236434.06753333376,
      "d": 466.2517999999691,
      "v": 55
    },
    {
      "midi": 72,
      "hit": false,
      "t": 236767.10453333374,
      "d": 333.0370000000112,
      "v": 88
    },
    {
      "midi": 48,
      "hit": false,
      "t": 237100.14153333375,
      "d": 2553.2836666666844,
      "v": 78
    },
    {
      "midi": 60,
      "hit": false,
      "t": 237100.14153333375,
      "d": 2664.296000000031,
      "v": 80
    },
    {
      "midi": 67,
      "hit": false,
      "t": 237122.34400000042,
      "d": 466.2517999999982,
      "v": 72
    },
    {
      "midi": 71,
      "hit": false,
      "t": 237133.44523333374,
      "d": 499.55550000001676,
      "v": 84
    },
    {
      "midi": 64,
      "hit": false,
      "t": 237155.6477000004,
      "d": 111.01233333334676,
      "v": 84
    },
    {
      "midi": 64,
      "hit": false,
      "t": 237433.17853333376,
      "d": 1143.4270333333407,
      "v": 64
    },
    {
      "midi": 67,
      "hit": false,
      "t": 237766.21553333374,
      "d": 421.8468666666886,
      "v": 84
    },
    {
      "midi": 72,
      "hit": false,
      "t": 238099.25253333375,
      "d": 133.2148000000161,
      "v": 80
    },
    {
      "midi": 72,
      "hit": false,
      "t": 238432.28953333377,
      "d": 721.5801666666812,
      "v": 55
    },
    {
      "midi": 64,
      "hit": false,
      "t": 238765.32653333378,
      "d": 999.1110000000044,
      "v": 92
    },
    {
      "midi": 67,
      "hit": false,
      "t": 239098.3635333338,
      "d": 466.2517999999691,
      "v": 55
    },
    {
      "midi": 71,
      "hit": false,
      "t": 239431.40053333377,
      "d": 333.0370000000112,
      "v": 88
    },
    {
      "midi": 45,
      "hit": false,
      "t": 239764.43753333378,
      "d": 2553.2836666666844,
      "v": 78
    },
    {
      "midi": 57,
      "hit": false,
      "t": 239764.43753333378,
      "d": 2664.296000000002,
      "v": 80
    },
    {
      "midi": 60,
      "hit": false,
      "t": 239786.64000000045,
      "d": 310.8345333333418,
      "v": 72
    },
    {
      "midi": 64,
      "hit": false,
      "t": 239797.74123333377,
      "d": 499.55550000001676,
      "v": 84
    },
    {
      "midi": 69,
      "hit": false,
      "t": 239819.94370000044,
      "d": 111.01233333334676,
      "v": 84
    },
    {
      "midi": 60,
      "hit": false,
      "t": 240097.4745333338,
      "d": 144.31603333333624,
      "v": 64
    },
    {
      "midi": 64,
      "hit": false,
      "t": 240430.51153333377,
      "d": 421.8468666666886,
      "v": 84
    },
    {
      "midi": 69,
      "hit": false,
      "t": 240763.5485333338,
      "d": 133.2148000000161,
      "v": 80
    },
    {
      "midi": 69,
      "hit": false,
      "t": 241096.5855333338,
      "d": 721.5801666666812,
      "v": 55
    },
    {
      "midi": 60,
      "hit": false,
      "t": 241429.6225333338,
      "d": 999.1109999999753,
      "v": 92
    },
    {
      "midi": 64,
      "hit": false,
      "t": 241762.65953333382,
      "d": 466.2517999999691,
      "v": 55
    },
    {
      "midi": 69,
      "hit": false,
      "t": 242095.6965333338,
      "d": 333.0369999999821,
      "v": 88
    },
    {
      "midi": 45,
      "hit": false,
      "t": 242428.73353333378,
      "d": 2553.2836666666844,
      "v": 78
    },
    {
      "midi": 57,
      "hit": false,
      "t": 242428.73353333378,
      "d": 2664.296000000031,
      "v": 80
    },
    {
      "midi": 60,
      "hit": false,
      "t": 242450.93600000045,
      "d": 310.8345333333418,
      "v": 72
    },
    {
      "midi": 64,
      "hit": false,
      "t": 242462.03723333377,
      "d": 499.55550000001676,
      "v": 84
    },
    {
      "midi": 68,
      "hit": false,
      "t": 242484.23970000044,
      "d": 111.01233333334676,
      "v": 84
    },
    {
      "midi": 60,
      "hit": false,
      "t": 242761.7705333338,
      "d": 144.31603333333624,
      "v": 64
    },
    {
      "midi": 64,
      "hit": false,
      "t": 243094.80753333378,
      "d": 421.8468666666886,
      "v": 84
    },
    {
      "midi": 68,
      "hit": false,
      "t": 243427.8445333338,
      "d": 133.2148000000161,
      "v": 80
    },
    {
      "midi": 68,
      "hit": false,
      "t": 243760.8815333338,
      "d": 721.5801666666812,
      "v": 55
    },
    {
      "midi": 60,
      "hit": false,
      "t": 244093.9185333338,
      "d": 999.1110000000044,
      "v": 92
    },
    {
      "midi": 64,
      "hit": false,
      "t": 244426.95553333382,
      "d": 466.2517999999691,
      "v": 55
    },
    {
      "midi": 68,
      "hit": false,
      "t": 244759.9925333338,
      "d": 333.0370000000112,
      "v": 88
    },
    {
      "midi": 48,
      "hit": false,
      "t": 245093.0295333338,
      "d": 2553.2836666666844,
      "v": 78
    },
    {
      "midi": 60,
      "hit": false,
      "t": 245093.0295333338,
      "d": 2664.296000000031,
      "v": 80
    },
    {
      "midi": 67,
      "hit": false,
      "t": 245115.23200000048,
      "d": 466.2517999999982,
      "v": 72
    },
    {
      "midi": 72,
      "hit": false,
      "t": 245126.3332333338,
      "d": 499.55550000001676,
      "v": 84
    },
    {
      "midi": 64,
      "hit": false,
      "t": 245148.53570000047,
      "d": 111.01233333334676,
      "v": 84
    },
    {
      "midi": 64,
      "hit": false,
      "t": 245426.06653333383,
      "d": 1143.4270333333407,
      "v": 64
    },
    {
      "midi": 67,
      "hit": false,
      "t": 245759.1035333338,
      "d": 421.8468666666886,
      "v": 84
    },
    {
      "midi": 72,
      "hit": false,
      "t": 246092.14053333382,
      "d": 133.2148000000161,
      "v": 80
    },
    {
      "midi": 72,
      "hit": false,
      "t": 246425.17753333383,
      "d": 721.5801666666812,
      "v": 55
    },
    {
      "midi": 64,
      "hit": false,
      "t": 246758.21453333384,
      "d": 999.1110000000044,
      "v": 92
    },
    {
      "midi": 67,
      "hit": false,
      "t": 247091.25153333385,
      "d": 466.2517999999691,
      "v": 55
    },
    {
      "midi": 72,
      "hit": false,
      "t": 247424.28853333383,
      "d": 333.0370000000112,
      "v": 88
    },
    {
      "midi": 48,
      "hit": false,
      "t": 247757.32553333385,
      "d": 2553.2836666666844,
      "v": 78
    },
    {
      "midi": 60,
      "hit": false,
      "t": 247757.32553333385,
      "d": 2664.296000000031,
      "v": 80
    },
    {
      "midi": 67,
      "hit": false,
      "t": 247779.52800000052,
      "d": 466.2517999999982,
      "v": 72
    },
    {
      "midi": 71,
      "hit": false,
      "t": 247790.62923333384,
      "d": 499.55550000001676,
      "v": 84
    },
    {
      "midi": 64,
      "hit": false,
      "t": 247812.8317000005,
      "d": 111.01233333334676,
      "v": 84
    },
    {
      "midi": 64,
      "hit": false,
      "t": 248090.36253333386,
      "d": 1143.4270333333407,
      "v": 64
    },
    {
      "midi": 67,
      "hit": false,
      "t": 248423.39953333384,
      "d": 421.8468666666886,
      "v": 84
    },
    {
      "midi": 72,
      "hit": false,
      "t": 248756.43653333385,
      "d": 133.2148000000161,
      "v": 80
    },
    {
      "midi": 72,
      "hit": false,
      "t": 249089.47353333386,
      "d": 721.5801666666812,
      "v": 55
    },
    {
      "midi": 64,
      "hit": false,
      "t": 249422.51053333387,
      "d": 999.1110000000044,
      "v": 92
    },
    {
      "midi": 67,
      "hit": false,
      "t": 249755.54753333388,
      "d": 466.2517999999691,
      "v": 55
    },
    {
      "midi": 71,
      "hit": false,
      "t": 250088.58453333387,
      "d": 333.0370000000112,
      "v": 88
    },
    {
      "midi": 45,
      "hit": false,
      "t": 250421.62153333388,
      "d": 2553.2836666666844,
      "v": 78
    },
    {
      "midi": 57,
      "hit": false,
      "t": 250421.62153333388,
      "d": 2664.296000000031,
      "v": 80
    },
    {
      "midi": 60,
      "hit": false,
      "t": 250443.82400000055,
      "d": 310.8345333333418,
      "v": 72
    },
    {
      "midi": 64,
      "hit": false,
      "t": 250454.92523333387,
      "d": 499.55550000001676,
      "v": 84
    },
    {
      "midi": 69,
      "hit": false,
      "t": 250477.12770000054,
      "d": 111.01233333334676,
      "v": 84
    },
    {
      "midi": 60,
      "hit": false,
      "t": 250754.6585333339,
      "d": 144.31603333333624,
      "v": 64
    },
    {
      "midi": 64,
      "hit": false,
      "t": 251087.69553333387,
      "d": 421.8468666666886,
      "v": 84
    },
    {
      "midi": 69,
      "hit": false,
      "t": 251420.73253333388,
      "d": 133.2148000000161,
      "v": 80
    },
    {
      "midi": 69,
      "hit": false,
      "t": 251753.7695333339,
      "d": 721.5801666666812,
      "v": 55
    },
    {
      "midi": 60,
      "hit": false,
      "t": 252086.8065333339,
      "d": 999.1110000000044,
      "v": 92
    },
    {
      "midi": 64,
      "hit": false,
      "t": 252419.84353333391,
      "d": 466.2517999999691,
      "v": 55
    },
    {
      "midi": 69,
      "hit": false,
      "t": 252752.8805333339,
      "d": 333.0370000000112,
      "v": 88
    },
    {
      "midi": 44,
      "hit": false,
      "t": 253085.9175333339,
      "d": 1920.5133666667098,
      "v": 78
    },
    {
      "midi": 56,
      "hit": false,
      "t": 253085.9175333339,
      "d": 2664.296000000031,
      "v": 80
    },
    {
      "midi": 60,
      "hit": false,
      "t": 253108.12000000058,
      "d": 310.8345333333418,
      "v": 72
    },
    {
      "midi": 64,
      "hit": false,
      "t": 253130.32246666725,
      "d": 477.3530333333474,
      "v": 84
    },
    {
      "midi": 68,
      "hit": false,
      "t": 253141.42370000057,
      "d": 111.01233333334676,
      "v": 84
    },
    {
      "midi": 60,
      "hit": false,
      "t": 253418.95453333392,
      "d": 144.31603333333624,
      "v": 64
    },
    {
      "midi": 64,
      "hit": false,
      "t": 253751.99153333393,
      "d": 421.8468666666886,
      "v": 84
    },
    {
      "midi": 68,
      "hit": false,
      "t": 254085.02853333394,
      "d": 133.2148000000161,
      "v": 80
    },
    {
      "midi": 68,
      "hit": false,
      "t": 254418.06553333395,
      "d": 721.5801666666521,
      "v": 55
    },
    {
      "midi": 60,
      "hit": false,
      "t": 254751.10253333396,
      "d": 999.1109999999753,
      "v": 92
    },
    {
      "midi": 43,
      "hit": false,
      "t": 255084.13953333395,
      "d": 643.8715333333239,
      "v": 80
    },
    {
      "midi": 64,
      "hit": false,
      "t": 255084.13953333395,
      "d": 643.8715333333239,
      "v": 55
    },
    {
      "midi": 67,
      "hit": false,
      "t": 255084.13953333395,
      "d": 666.0739999999932,
      "v": 88
    },
    {
      "midi": 60,
      "hit": false,
      "t": 255750.21353333394,
      "d": 255.328366666683,
      "v": 63
    },
    {
      "midi": 65,
      "hit": false,
      "t": 255750.21353333394,
      "d": 510.656733333366,
      "v": 66
    },
    {
      "midi": 69,
      "hit": false,
      "t": 255750.21353333394,
      "d": 555.0616666667047,
      "v": 66
    },
    {
      "midi": 57,
      "hit": false,
      "t": 255772.4160000006,
      "d": 244.22713333333377,
      "v": 66
    },
    {
      "midi": 53,
      "hit": false,
      "t": 255772.4160000006,
      "d": 421.8468666666886,
      "v": 74
    },
    {
      "midi": 57,
      "hit": false,
      "t": 256083.25053333395,
      "d": 421.8468666667177,
      "v": 64
    },
    {
      "midi": 60,
      "hit": false,
      "t": 256416.287533334,
      "d": 421.8468666666886,
      "v": 87
    },
    {
      "midi": 65,
      "hit": false,
      "t": 256749.324533334,
      "d": 510.6567333333369,
      "v": 74
    },
    {
      "midi": 60,
      "hit": false,
      "t": 257082.361533334,
      "d": 344.1382333333022,
      "v": 77
    },
    {
      "midi": 57,
      "hit": false,
      "t": 257415.398533334,
      "d": 410.74563333331025,
      "v": 72
    },
    {
      "midi": 60,
      "hit": false,
      "t": 257748.43553333398,
      "d": 455.15056666664896,
      "v": 88
    },
    {
      "midi": 57,
      "hit": false,
      "t": 258081.47253333396,
      "d": 222.02466666666442,
      "v": 88
    },
    {
      "midi": 43,
      "hit": false,
      "t": 258414.50953333397,
      "d": 2553.2836666666844,
      "v": 78
    },
    {
      "midi": 55,
      "hit": false,
      "t": 258414.50953333397,
      "d": 2664.296000000002,
      "v": 80
    },
    {
      "midi": 60,
      "hit": false,
      "t": 258436.71200000064,
      "d": 310.8345333333418,
      "v": 72
    },
    {
      "midi": 62,
      "hit": false,
      "t": 258447.81323333396,
      "d": 499.55550000001676,
      "v": 84
    },
    {
      "midi": 65,
      "hit": false,
      "t": 258470.01570000063,
      "d": 111.01233333334676,
      "v": 84
    },
    {
      "midi": 60,
      "hit": false,
      "t": 258747.54653333398,
      "d": 144.31603333333624,
      "v": 64
    },
    {
      "midi": 62,
      "hit": false,
      "t": 259080.58353333396,
      "d": 421.8468666666886,
      "v": 84
    },
    {
      "midi": 65,
      "hit": false,
      "t": 259413.62053333397,
      "d": 133.2148000000161,
      "v": 80
    },
    {
      "midi": 65,
      "hit": false,
      "t": 259746.657533334,
      "d": 721.5801666666812,
      "v": 55
    },
    {
      "midi": 60,
      "hit": false,
      "t": 260079.694533334,
      "d": 999.1109999999753,
      "v": 92
    },
    {
      "midi": 62,
      "hit": false,
      "t": 260412.731533334,
      "d": 466.2517999999691,
      "v": 55
    },
    {
      "midi": 65,
      "hit": false,
      "t": 260745.768533334,
      "d": 333.0369999999821,
      "v": 88
    },
    {
      "midi": 43,
      "hit": false,
      "t": 261078.80553333397,
      "d": 1909.4121333332732,
      "v": 78
    },
    {
      "midi": 55,
      "hit": false,
      "t": 261078.80553333397,
      "d": 2664.295999999973,
      "v": 80
    },
    {
      "midi": 59,
      "hit": false,
      "t": 261101.00800000064,
      "d": 310.8345333333418,
      "v": 72
    },
    {
      "midi": 62,
      "hit": false,
      "t": 261112.10923333396,
      "d": 499.55550000001676,
      "v": 84
    },
    {
      "midi": 65,
      "hit": false,
      "t": 261134.31170000063,
      "d": 111.01233333334676,
      "v": 84
    },
    {
      "midi": 59,
      "hit": false,
      "t": 261411.84253333398,
      "d": 144.31603333333624,
      "v": 64
    },
    {
      "midi": 62,
      "hit": false,
      "t": 261744.87953333397,
      "d": 421.8468666666595,
      "v": 84
    },
    {
      "midi": 65,
      "hit": false,
      "t": 262077.91653333398,
      "d": 133.214799999987,
      "v": 80
    },
    {
      "midi": 59,
      "hit": false,
      "t": 262410.95353333396,
      "d": 144.31603333330713,
      "v": 92
    },
    {
      "midi": 65,
      "hit": false,
      "t": 262410.95353333396,
      "d": 333.03699999995297,
      "v": 55
    },
    {
      "midi": 62,
      "hit": false,
      "t": 262410.95353333396,
      "d": 466.2517999999691,
      "v": 55
    },
    {
      "midi": 65,
      "hit": false,
      "t": 263077.0275333339,
      "d": 55.50616666668793,
      "v": 64
    },
    {
      "midi": 59,
      "hit": false,
      "t": 263077.0275333339,
      "d": 333.0370000000112,
      "v": 64
    },
    {
      "midi": 43,
      "hit": false,
      "t": 263077.0275333339,
      "d": 632.7703000000329,
      "v": 81
    },
    {
      "midi": 62,
      "hit": false,
      "t": 263077.0275333339,
      "d": 666.0740000000224,
      "v": 64
    },
    {
      "midi": 48,
      "hit": false,
      "t": 263743.10153333395,
      "d": 2553.2836666666553,
      "v": 78
    },
    {
      "midi": 60,
      "hit": false,
      "t": 263743.10153333395,
      "d": 2664.295999999973,
      "v": 80
    },
    {
      "midi": 67,
      "hit": false,
      "t": 263765.3040000006,
      "d": 466.2517999999691,
      "v": 72
    },
    {
      "midi": 72,
      "hit": false,
      "t": 263776.40523333394,
      "d": 499.55549999995856,
      "v": 84
    },
    {
      "midi": 64,
      "hit": false,
      "t": 263798.6077000006,
      "d": 111.01233333331766,
      "v": 84
    },
    {
      "midi": 64,
      "hit": false,
      "t": 264076.1385333339,
      "d": 1143.4270333333407,
      "v": 64
    },
    {
      "midi": 67,
      "hit": false,
      "t": 264409.1755333339,
      "d": 421.8468666666886,
      "v": 84
    },
    {
      "midi": 72,
      "hit": false,
      "t": 264742.2125333339,
      "d": 133.2148000000161,
      "v": 80
    },
    {
      "midi": 72,
      "hit": false,
      "t": 265075.24953333393,
      "d": 721.5801666666521,
      "v": 55
    },
    {
      "midi": 64,
      "hit": false,
      "t": 265408.2865333339,
      "d": 999.1110000000335,
      "v": 92
    },
    {
      "midi": 67,
      "hit": false,
      "t": 265741.3235333339,
      "d": 466.2518000000273,
      "v": 55
    },
    {
      "midi": 72,
      "hit": false,
      "t": 266074.3605333339,
      "d": 333.0370000000112,
      "v": 88
    },
    {
      "midi": 48,
      "hit": false,
      "t": 266407.3975333339,
      "d": 2553.2836666666553,
      "v": 78
    },
    {
      "midi": 60,
      "hit": false,
      "t": 266407.3975333339,
      "d": 2664.295999999973,
      "v": 80
    },
    {
      "midi": 67,
      "hit": false,
      "t": 266429.60000000056,
      "d": 466.2517999999691,
      "v": 72
    },
    {
      "midi": 71,
      "hit": false,
      "t": 266440.7012333339,
      "d": 499.55549999995856,
      "v": 84
    },
    {
      "midi": 64,
      "hit": false,
      "t": 266462.90370000055,
      "d": 111.01233333331766,
      "v": 84
    },
    {
      "midi": 64,
      "hit": false,
      "t": 266740.4345333339,
      "d": 1143.4270333333407,
      "v": 64
    },
    {
      "midi": 67,
      "hit": false,
      "t": 267073.4715333339,
      "d": 421.8468666666886,
      "v": 84
    },
    {
      "midi": 72,
      "hit": false,
      "t": 267406.5085333339,
      "d": 133.2148000000161,
      "v": 80
    },
    {
      "midi": 72,
      "hit": false,
      "t": 267739.5455333339,
      "d": 721.5801666666521,
      "v": 55
    },
    {
      "midi": 64,
      "hit": false,
      "t": 268072.58253333386,
      "d": 999.1110000000335,
      "v": 92
    },
    {
      "midi": 67,
      "hit": false,
      "t": 268405.61953333387,
      "d": 466.2518000000273,
      "v": 55
    },
    {
      "midi": 71,
      "hit": false,
      "t": 268738.6565333339,
      "d": 333.0370000000112,
      "v": 88
    },
    {
      "midi": 45,
      "hit": false,
      "t": 269071.6935333339,
      "d": 2553.2836666667135,
      "v": 78
    },
    {
      "midi": 57,
      "hit": false,
      "t": 269071.6935333339,
      "d": 2664.296000000031,
      "v": 80
    },
    {
      "midi": 60,
      "hit": false,
      "t": 269093.89600000053,
      "d": 310.8345333333127,
      "v": 72
    },
    {
      "midi": 64,
      "hit": false,
      "t": 269104.9972333339,
      "d": 499.55549999995856,
      "v": 84
    },
    {
      "midi": 69,
      "hit": false,
      "t": 269127.1997000005,
      "d": 111.01233333331766,
      "v": 84
    },
    {
      "midi": 60,
      "hit": false,
      "t": 269404.73053333384,
      "d": 144.31603333330713,
      "v": 64
    },
    {
      "midi": 64,
      "hit": false,
      "t": 269737.76753333386,
      "d": 421.8468666666886,
      "v": 84
    },
    {
      "midi": 69,
      "hit": false,
      "t": 270070.80453333387,
      "d": 133.2148000000161,
      "v": 80
    },
    {
      "midi": 69,
      "hit": false,
      "t": 270403.8415333339,
      "d": 721.5801666667103,
      "v": 55
    },
    {
      "midi": 60,
      "hit": false,
      "t": 270736.8785333339,
      "d": 999.1110000000335,
      "v": 92
    },
    {
      "midi": 64,
      "hit": false,
      "t": 271069.9155333339,
      "d": 466.2518000000273,
      "v": 55
    },
    {
      "midi": 69,
      "hit": false,
      "t": 271402.9525333339,
      "d": 333.0370000000112,
      "v": 88
    },
    {
      "midi": 45,
      "hit": false,
      "t": 271735.9895333339,
      "d": 2553.2836666667135,
      "v": 78
    },
    {
      "midi": 57,
      "hit": false,
      "t": 271735.9895333339,
      "d": 2664.296000000031,
      "v": 80
    },
    {
      "midi": 60,
      "hit": false,
      "t": 271758.19200000056,
      "d": 310.8345333333127,
      "v": 72
    },
    {
      "midi": 64,
      "hit": false,
      "t": 271769.2932333339,
      "d": 499.55549999995856,
      "v": 84
    },
    {
      "midi": 68,
      "hit": false,
      "t": 271791.49570000055,
      "d": 111.01233333331766,
      "v": 84
    },
    {
      "midi": 60,
      "hit": false,
      "t": 272069.0265333339,
      "d": 144.31603333330713,
      "v": 64
    },
    {
      "midi": 64,
      "hit": false,
      "t": 272402.0635333339,
      "d": 421.8468666666886,
      "v": 84
    },
    {
      "midi": 68,
      "hit": false,
      "t": 272735.1005333339,
      "d": 133.2148000000161,
      "v": 80
    },
    {
      "midi": 68,
      "hit": false,
      "t": 273068.1375333339,
      "d": 721.5801666667103,
      "v": 55
    },
    {
      "midi": 60,
      "hit": false,
      "t": 273401.1745333339,
      "d": 999.1110000000335,
      "v": 92
    },
    {
      "midi": 64,
      "hit": false,
      "t": 273734.21153333393,
      "d": 466.2518000000273,
      "v": 55
    },
    {
      "midi": 68,
      "hit": false,
      "t": 274067.24853333394,
      "d": 333.0370000000112,
      "v": 88
    },
    {
      "midi": 48,
      "hit": false,
      "t": 274400.28553333395,
      "d": 2553.2836666666553,
      "v": 78
    },
    {
      "midi": 60,
      "hit": false,
      "t": 274400.28553333395,
      "d": 2664.295999999973,
      "v": 80
    },
    {
      "midi": 67,
      "hit": false,
      "t": 274422.4880000006,
      "d": 466.2517999999691,
      "v": 72
    },
    {
      "midi": 72,
      "hit": false,
      "t": 274433.58923333394,
      "d": 499.55549999995856,
      "v": 84
    },
    {
      "midi": 64,
      "hit": false,
      "t": 274455.7917000006,
      "d": 111.01233333331766,
      "v": 84
    },
    {
      "midi": 64,
      "hit": false,
      "t": 274733.3225333339,
      "d": 1143.4270333333407,
      "v": 64
    },
    {
      "midi": 67,
      "hit": false,
      "t": 275066.3595333339,
      "d": 421.8468666666886,
      "v": 84
    },
    {
      "midi": 72,
      "hit": false,
      "t": 275399.39653333393,
      "d": 133.2148000000161,
      "v": 80
    },
    {
      "midi": 72,
      "hit": false,
      "t": 275732.43353333394,
      "d": 721.5801666666521,
      "v": 55
    },
    {
      "midi": 64,
      "hit": false,
      "t": 276065.4705333339,
      "d": 999.1110000000335,
      "v": 92
    },
    {
      "midi": 67,
      "hit": false,
      "t": 276398.5075333339,
      "d": 466.2518000000273,
      "v": 55
    },
    {
      "midi": 72,
      "hit": false,
      "t": 276731.5445333339,
      "d": 333.0370000000112,
      "v": 88
    },
    {
      "midi": 48,
      "hit": false,
      "t": 277064.5815333339,
      "d": 2553.2836666666553,
      "v": 78
    },
    {
      "midi": 60,
      "hit": false,
      "t": 277064.5815333339,
      "d": 2664.295999999973,
      "v": 80
    },
    {
      "midi": 67,
      "hit": false,
      "t": 277086.78400000057,
      "d": 466.2517999999691,
      "v": 72
    },
    {
      "midi": 71,
      "hit": false,
      "t": 277097.8852333339,
      "d": 499.55549999995856,
      "v": 84
    },
    {
      "midi": 64,
      "hit": false,
      "t": 277120.08770000056,
      "d": 111.01233333331766,
      "v": 84
    },
    {
      "midi": 64,
      "hit": false,
      "t": 277397.6185333339,
      "d": 1143.4270333333407,
      "v": 64
    },
    {
      "midi": 67,
      "hit": false,
      "t": 277730.6555333339,
      "d": 421.8468666666886,
      "v": 84
    },
    {
      "midi": 72,
      "hit": false,
      "t": 278063.6925333339,
      "d": 133.2148000000161,
      "v": 80
    },
    {
      "midi": 72,
      "hit": false,
      "t": 278396.7295333339,
      "d": 721.5801666666521,
      "v": 55
    },
    {
      "midi": 64,
      "hit": false,
      "t": 278729.76653333387,
      "d": 999.1110000000335,
      "v": 92
    },
    {
      "midi": 67,
      "hit": false,
      "t": 279062.8035333339,
      "d": 466.2518000000273,
      "v": 55
    },
    {
      "midi": 71,
      "hit": false,
      "t": 279395.8405333339,
      "d": 333.0370000000112,
      "v": 88
    },
    {
      "midi": 45,
      "hit": false,
      "t": 279728.8775333339,
      "d": 2553.2836666667135,
      "v": 78
    },
    {
      "midi": 57,
      "hit": false,
      "t": 279728.8775333339,
      "d": 2664.296000000031,
      "v": 80
    },
    {
      "midi": 60,
      "hit": false,
      "t": 279751.08000000054,
      "d": 310.8345333333127,
      "v": 72
    },
    {
      "midi": 64,
      "hit": false,
      "t": 279762.1812333339,
      "d": 499.55549999995856,
      "v": 84
    },
    {
      "midi": 69,
      "hit": false,
      "t": 279784.38370000053,
      "d": 111.01233333331766,
      "v": 84
    },
    {
      "midi": 60,
      "hit": false,
      "t": 280061.91453333385,
      "d": 144.31603333330713,
      "v": 64
    },
    {
      "midi": 64,
      "hit": false,
      "t": 280394.95153333386,
      "d": 421.8468666666886,
      "v": 84
    },
    {
      "midi": 69,
      "hit": false,
      "t": 280727.9885333339,
      "d": 133.2148000000161,
      "v": 80
    },
    {
      "midi": 69,
      "hit": false,
      "t": 281061.0255333339,
      "d": 721.5801666667103,
      "v": 55
    },
    {
      "midi": 60,
      "hit": false,
      "t": 281394.0625333339,
      "d": 999.1110000000335,
      "v": 92
    },
    {
      "midi": 64,
      "hit": false,
      "t": 281727.0995333339,
      "d": 466.2518000000273,
      "v": 55
    },
    {
      "midi": 69,
      "hit": false,
      "t": 282060.1365333339,
      "d": 333.0370000000112,
      "v": 88
    },
    {
      "midi": 44,
      "hit": false,
      "t": 282393.17353333393,
      "d": 1920.5133666666807,
      "v": 78
    },
    {
      "midi": 56,
      "hit": false,
      "t": 282393.17353333393,
      "d": 2664.296000000031,
      "v": 80
    },
    {
      "midi": 60,
      "hit": false,
      "t": 282415.3760000006,
      "d": 310.8345333333127,
      "v": 72
    },
    {
      "midi": 64,
      "hit": false,
      "t": 282426.4772333339,
      "d": 499.55549999995856,
      "v": 84
    },
    {
      "midi": 68,
      "hit": false,
      "t": 282448.67970000056,
      "d": 111.01233333331766,
      "v": 84
    },
    {
      "midi": 60,
      "hit": false,
      "t": 282726.2105333339,
      "d": 144.31603333330713,
      "v": 64
    },
    {
      "midi": 64,
      "hit": false,
      "t": 283059.2475333339,
      "d": 421.8468666666886,
      "v": 84
    },
    {
      "midi": 68,
      "hit": false,
      "t": 283392.2845333339,
      "d": 133.2148000000161,
      "v": 80
    },
    {
      "midi": 68,
      "hit": false,
      "t": 283725.3215333339,
      "d": 721.5801666667103,
      "v": 55
    },
    {
      "midi": 60,
      "hit": false,
      "t": 284058.3585333339,
      "d": 999.1110000000335,
      "v": 92
    },
    {
      "midi": 43,
      "hit": false,
      "t": 284391.39553333394,
      "d": 643.8715333333821,
      "v": 80
    },
    {
      "midi": 64,
      "hit": false,
      "t": 284391.39553333394,
      "d": 643.8715333333821,
      "v": 55
    },
    {
      "midi": 67,
      "hit": false,
      "t": 284391.39553333394,
      "d": 666.0740000000224,
      "v": 88
    },
    {
      "midi": 57,
      "hit": false,
      "t": 285057.46953333396,
      "d": 255.3283666666248,
      "v": 66
    },
    {
      "midi": 60,
      "hit": false,
      "t": 285057.46953333396,
      "d": 255.3283666666248,
      "v": 63
    },
    {
      "midi": 53,
      "hit": false,
      "t": 285057.46953333396,
      "d": 444.0493333332706,
      "v": 74
    },
    {
      "midi": 65,
      "hit": false,
      "t": 285057.46953333396,
      "d": 510.6567333332496,
      "v": 66
    },
    {
      "midi": 69,
      "hit": false,
      "t": 285057.46953333396,
      "d": 555.0616666665883,
      "v": 66
    },
    {
      "midi": 57,
      "hit": false,
      "t": 285390.5065333339,
      "d": 421.8468666666304,
      "v": 64
    },
    {
      "midi": 60,
      "hit": false,
      "t": 285723.54353333387,
      "d": 421.8468666666886,
      "v": 87
    },
    {
      "midi": 65,
      "hit": false,
      "t": 286056.5805333339,
      "d": 510.656733333366,
      "v": 74
    },
    {
      "midi": 60,
      "hit": false,
      "t": 286389.6175333339,
      "d": 344.1382333333604,
      "v": 77
    },
    {
      "midi": 57,
      "hit": false,
      "t": 286722.6545333339,
      "d": 410.74563333333936,
      "v": 72
    },
    {
      "midi": 60,
      "hit": false,
      "t": 287055.6915333339,
      "d": 455.15056666667806,
      "v": 88
    },
    {
      "midi": 57,
      "hit": false,
      "t": 287388.7285333339,
      "d": 222.02466666669352,
      "v": 88
    },
    {
      "midi": 43,
      "hit": false,
      "t": 287721.76553333394,
      "d": 2553.2836666667135,
      "v": 78
    },
    {
      "midi": 55,
      "hit": false,
      "t": 287721.76553333394,
      "d": 2664.296000000031,
      "v": 80
    },
    {
      "midi": 60,
      "hit": false,
      "t": 287743.9680000006,
      "d": 310.8345333333127,
      "v": 72
    },
    {
      "midi": 62,
      "hit": false,
      "t": 287755.0692333339,
      "d": 499.55549999995856,
      "v": 84
    },
    {
      "midi": 65,
      "hit": false,
      "t": 287777.27170000057,
      "d": 111.01233333331766,
      "v": 84
    },
    {
      "midi": 60,
      "hit": false,
      "t": 288054.8025333339,
      "d": 144.31603333330713,
      "v": 64
    },
    {
      "midi": 62,
      "hit": false,
      "t": 288387.8395333339,
      "d": 421.8468666666886,
      "v": 84
    },
    {
      "midi": 65,
      "hit": false,
      "t": 288720.8765333339,
      "d": 133.2148000000161,
      "v": 80
    },
    {
      "midi": 65,
      "hit": false,
      "t": 289053.9135333339,
      "d": 721.5801666667103,
      "v": 55
    },
    {
      "midi": 60,
      "hit": false,
      "t": 289386.95053333393,
      "d": 999.1110000000335,
      "v": 92
    },
    {
      "midi": 62,
      "hit": false,
      "t": 289719.98753333394,
      "d": 466.2518000000273,
      "v": 55
    },
    {
      "midi": 65,
      "hit": false,
      "t": 290053.02453333396,
      "d": 333.0370000000112,
      "v": 88
    },
    {
      "midi": 43,
      "hit": false,
      "t": 290386.06153333397,
      "d": 1909.4121333332732,
      "v": 78
    },
    {
      "midi": 55,
      "hit": false,
      "t": 290386.06153333397,
      "d": 2664.295999999973,
      "v": 80
    },
    {
      "midi": 59,
      "hit": false,
      "t": 290408.2640000006,
      "d": 310.8345333333127,
      "v": 72
    },
    {
      "midi": 62,
      "hit": false,
      "t": 290419.36523333396,
      "d": 499.55549999995856,
      "v": 84
    },
    {
      "midi": 65,
      "hit": false,
      "t": 290441.5677000006,
      "d": 111.01233333331766,
      "v": 84
    },
    {
      "midi": 59,
      "hit": false,
      "t": 290719.0985333339,
      "d": 144.31603333330713,
      "v": 64
    },
    {
      "midi": 62,
      "hit": false,
      "t": 291052.13553333393,
      "d": 421.8468666666886,
      "v": 84
    },
    {
      "midi": 65,
      "hit": false,
      "t": 291385.17253333394,
      "d": 133.2148000000161,
      "v": 80
    },
    {
      "midi": 59,
      "hit": false,
      "t": 291718.20953333395,
      "d": 144.31603333330713,
      "v": 92
    },
    {
      "midi": 65,
      "hit": false,
      "t": 291718.20953333395,
      "d": 333.03699999995297,
      "v": 55
    },
    {
      "midi": 62,
      "hit": false,
      "t": 291718.20953333395,
      "d": 466.2517999999691,
      "v": 55
    },
    {
      "midi": 65,
      "hit": false,
      "t": 292384.2835333339,
      "d": 55.50616666668793,
      "v": 64
    },
    {
      "midi": 59,
      "hit": false,
      "t": 292384.2835333339,
      "d": 333.0370000000112,
      "v": 64
    },
    {
      "midi": 43,
      "hit": false,
      "t": 292384.2835333339,
      "d": 632.7703000000329,
      "v": 81
    },
    {
      "midi": 62,
      "hit": false,
      "t": 292384.2835333339,
      "d": 666.0740000000224,
      "v": 64
    },
    {
      "midi": 48,
      "hit": false,
      "t": 293050.35753333394,
      "d": 2553.2836666666553,
      "v": 78
    },
    {
      "midi": 60,
      "hit": false,
      "t": 293050.35753333394,
      "d": 2664.295999999973,
      "v": 80
    },
    {
      "midi": 67,
      "hit": false,
      "t": 293072.5600000006,
      "d": 466.2517999999691,
      "v": 72
    },
    {
      "midi": 72,
      "hit": false,
      "t": 293083.6612333339,
      "d": 499.55549999995856,
      "v": 84
    },
    {
      "midi": 64,
      "hit": false,
      "t": 293105.86370000057,
      "d": 111.01233333331766,
      "v": 84
    },
    {
      "midi": 64,
      "hit": false,
      "t": 293383.3945333339,
      "d": 1143.4270333333407,
      "v": 64
    },
    {
      "midi": 67,
      "hit": false,
      "t": 293716.4315333339,
      "d": 421.8468666666886,
      "v": 84
    },
    {
      "midi": 72,
      "hit": false,
      "t": 294049.4685333339,
      "d": 133.2148000000161,
      "v": 80
    },
    {
      "midi": 72,
      "hit": false,
      "t": 294382.5055333339,
      "d": 721.5801666666521,
      "v": 55
    },
    {
      "midi": 64,
      "hit": false,
      "t": 294715.5425333339,
      "d": 999.1110000000335,
      "v": 92
    },
    {
      "midi": 67,
      "hit": false,
      "t": 295048.5795333339,
      "d": 466.2518000000273,
      "v": 55
    },
    {
      "midi": 72,
      "hit": false,
      "t": 295381.6165333339,
      "d": 333.0370000000112,
      "v": 88
    },
    {
      "midi": 48,
      "hit": false,
      "t": 295714.6535333339,
      "d": 2553.2836666666553,
      "v": 78
    },
    {
      "midi": 60,
      "hit": false,
      "t": 295714.6535333339,
      "d": 2664.295999999973,
      "v": 80
    },
    {
      "midi": 67,
      "hit": false,
      "t": 295736.85600000055,
      "d": 466.2517999999691,
      "v": 72
    },
    {
      "midi": 71,
      "hit": false,
      "t": 295747.9572333339,
      "d": 499.55549999995856,
      "v": 84
    },
    {
      "midi": 64,
      "hit": false,
      "t": 295770.15970000054,
      "d": 111.01233333331766,
      "v": 84
    },
    {
      "midi": 64,
      "hit": false,
      "t": 296047.69053333387,
      "d": 1143.4270333333407,
      "v": 64
    },
    {
      "midi": 67,
      "hit": false,
      "t": 296380.7275333339,
      "d": 421.8468666666886,
      "v": 84
    },
    {
      "midi": 72,
      "hit": false,
      "t": 296713.7645333339,
      "d": 133.2148000000161,
      "v": 80
    },
    {
      "midi": 72,
      "hit": false,
      "t": 297046.8015333339,
      "d": 721.5801666666521,
      "v": 55
    },
    {
      "midi": 64,
      "hit": false,
      "t": 297379.83853333385,
      "d": 999.1110000000335,
      "v": 92
    },
    {
      "midi": 67,
      "hit": false,
      "t": 297712.87553333386,
      "d": 466.2518000000273,
      "v": 55
    },
    {
      "midi": 71,
      "hit": false,
      "t": 298045.9125333339,
      "d": 333.0370000000112,
      "v": 88
    },
    {
      "midi": 45,
      "hit": false,
      "t": 298378.9495333339,
      "d": 2553.2836666667135,
      "v": 78
    },
    {
      "midi": 57,
      "hit": false,
      "t": 298378.9495333339,
      "d": 2664.296000000031,
      "v": 80
    },
    {
      "midi": 60,
      "hit": false,
      "t": 298401.1520000005,
      "d": 310.8345333333127,
      "v": 72
    },
    {
      "midi": 64,
      "hit": false,
      "t": 298412.2532333339,
      "d": 499.55549999995856,
      "v": 84
    },
    {
      "midi": 69,
      "hit": false,
      "t": 298434.4557000005,
      "d": 111.01233333331766,
      "v": 84
    },
    {
      "midi": 60,
      "hit": false,
      "t": 298711.98653333384,
      "d": 144.31603333330713,
      "v": 64
    },
    {
      "midi": 64,
      "hit": false,
      "t": 299045.02353333385,
      "d": 421.8468666666886,
      "v": 84
    },
    {
      "midi": 69,
      "hit": false,
      "t": 299378.06053333386,
      "d": 133.2148000000161,
      "v": 80
    },
    {
      "midi": 69,
      "hit": false,
      "t": 299711.0975333339,
      "d": 721.5801666667103,
      "v": 55
    },
    {
      "midi": 60,
      "hit": false,
      "t": 300044.1345333339,
      "d": 999.1110000000335,
      "v": 92
    },
    {
      "midi": 64,
      "hit": false,
      "t": 300377.1715333339,
      "d": 466.2518000000273,
      "v": 55
    },
    {
      "midi": 69,
      "hit": false,
      "t": 300710.2085333339,
      "d": 333.0370000000112,
      "v": 88
    },
    {
      "midi": 45,
      "hit": false,
      "t": 301043.2455333339,
      "d": 2553.2836666667135,
      "v": 78
    },
    {
      "midi": 57,
      "hit": false,
      "t": 301043.2455333339,
      "d": 2664.296000000031,
      "v": 80
    },
    {
      "midi": 60,
      "hit": false,
      "t": 301065.44800000056,
      "d": 310.8345333333127,
      "v": 72
    },
    {
      "midi": 64,
      "hit": false,
      "t": 301076.5492333339,
      "d": 499.55549999995856,
      "v": 84
    },
    {
      "midi": 68,
      "hit": false,
      "t": 301098.75170000055,
      "d": 111.01233333331766,
      "v": 84
    },
    {
      "midi": 60,
      "hit": false,
      "t": 301376.28253333387,
      "d": 144.31603333330713,
      "v": 64
    },
    {
      "midi": 64,
      "hit": false,
      "t": 301709.3195333339,
      "d": 421.8468666666886,
      "v": 84
    },
    {
      "midi": 68,
      "hit": false,
      "t": 302042.3565333339,
      "d": 133.2148000000161,
      "v": 80
    },
    {
      "midi": 68,
      "hit": false,
      "t": 302375.3935333339,
      "d": 721.5801666667103,
      "v": 55
    },
    {
      "midi": 60,
      "hit": false,
      "t": 302708.4305333339,
      "d": 999.1110000000335,
      "v": 92
    },
    {
      "midi": 64,
      "hit": false,
      "t": 303041.4675333339,
      "d": 466.2518000000273,
      "v": 55
    },
    {
      "midi": 68,
      "hit": false,
      "t": 303374.50453333394,
      "d": 333.0370000000112,
      "v": 88
    },
    {
      "midi": 48,
      "hit": false,
      "t": 303707.54153333395,
      "d": 2553.2836666666553,
      "v": 78
    },
    {
      "midi": 60,
      "hit": false,
      "t": 303707.54153333395,
      "d": 2664.295999999973,
      "v": 80
    },
    {
      "midi": 67,
      "hit": false,
      "t": 303729.7440000006,
      "d": 466.2517999999691,
      "v": 72
    },
    {
      "midi": 72,
      "hit": false,
      "t": 303740.84523333394,
      "d": 499.55549999995856,
      "v": 84
    },
    {
      "midi": 64,
      "hit": false,
      "t": 303763.0477000006,
      "d": 111.01233333331766,
      "v": 84
    },
    {
      "midi": 64,
      "hit": false,
      "t": 304040.5785333339,
      "d": 1143.4270333333407,
      "v": 64
    },
    {
      "midi": 67,
      "hit": false,
      "t": 304373.6155333339,
      "d": 421.8468666666886,
      "v": 84
    },
    {
      "midi": 72,
      "hit": false,
      "t": 304706.6525333339,
      "d": 133.2148000000161,
      "v": 80
    },
    {
      "midi": 72,
      "hit": false,
      "t": 305039.68953333393,
      "d": 721.5801666666521,
      "v": 55
    },
    {
      "midi": 64,
      "hit": false,
      "t": 305372.7265333339,
      "d": 999.1110000000335,
      "v": 92
    },
    {
      "midi": 67,
      "hit": false,
      "t": 305705.7635333339,
      "d": 466.2518000000273,
      "v": 55
    },
    {
      "midi": 72,
      "hit": false,
      "t": 306038.8005333339,
      "d": 333.0370000000112,
      "v": 88
    },
    {
      "midi": 48,
      "hit": false,
      "t": 306371.8375333339,
      "d": 2553.2836666666553,
      "v": 78
    },
    {
      "midi": 60,
      "hit": false,
      "t": 306371.8375333339,
      "d": 2664.295999999973,
      "v": 80
    },
    {
      "midi": 67,
      "hit": false,
      "t": 306394.04000000056,
      "d": 466.2517999999691,
      "v": 72
    },
    {
      "midi": 71,
      "hit": false,
      "t": 306405.1412333339,
      "d": 499.55549999995856,
      "v": 84
    },
    {
      "midi": 64,
      "hit": false,
      "t": 306427.34370000055,
      "d": 111.01233333331766,
      "v": 84
    },
    {
      "midi": 64,
      "hit": false,
      "t": 306704.8745333339,
      "d": 1143.4270333333407,
      "v": 64
    },
    {
      "midi": 67,
      "hit": false,
      "t": 307037.9115333339,
      "d": 421.8468666666886,
      "v": 84
    },
    {
      "midi": 72,
      "hit": false,
      "t": 307370.9485333339,
      "d": 133.2148000000161,
      "v": 80
    },
    {
      "midi": 72,
      "hit": false,
      "t": 307703.9855333339,
      "d": 721.5801666666521,
      "v": 55
    },
    {
      "midi": 64,
      "hit": false,
      "t": 308037.02253333386,
      "d": 999.1110000000335,
      "v": 92
    },
    {
      "midi": 67,
      "hit": false,
      "t": 308370.0595333339,
      "d": 466.2518000000273,
      "v": 55
    },
    {
      "midi": 71,
      "hit": false,
      "t": 308703.0965333339,
      "d": 333.0370000000112,
      "v": 88
    },
    {
      "midi": 45,
      "hit": false,
      "t": 309036.1335333339,
      "d": 2553.2836666667135,
      "v": 78
    },
    {
      "midi": 57,
      "hit": false,
      "t": 309036.1335333339,
      "d": 2664.296000000031,
      "v": 80
    },
    {
      "midi": 60,
      "hit": false,
      "t": 309058.33600000053,
      "d": 310.8345333333127,
      "v": 72
    },
    {
      "midi": 64,
      "hit": false,
      "t": 309069.4372333339,
      "d": 499.55549999995856,
      "v": 84
    },
    {
      "midi": 69,
      "hit": false,
      "t": 309091.6397000005,
      "d": 111.01233333331766,
      "v": 84
    },
    {
      "midi": 60,
      "hit": false,
      "t": 309369.17053333385,
      "d": 144.31603333330713,
      "v": 64
    },
    {
      "midi": 64,
      "hit": false,
      "t": 309702.20753333386,
      "d": 421.8468666666886,
      "v": 84
    },
    {
      "midi": 69,
      "hit": false,
      "t": 310035.24453333387,
      "d": 133.2148000000161,
      "v": 80
    },
    {
      "midi": 69,
      "hit": false,
      "t": 310368.2815333339,
      "d": 721.5801666667103,
      "v": 55
    },
    {
      "midi": 60,
      "hit": false,
      "t": 310701.3185333339,
      "d": 999.1110000000335,
      "v": 92
    },
    {
      "midi": 64,
      "hit": false,
      "t": 311034.3555333339,
      "d": 466.2518000000273,
      "v": 55
    },
    {
      "midi": 69,
      "hit": false,
      "t": 311367.3925333339,
      "d": 333.0370000000112,
      "v": 88
    },
    {
      "midi": 45,
      "hit": false,
      "t": 311700.4295333339,
      "d": 2553.2836666667135,
      "v": 78
    },
    {
      "midi": 57,
      "hit": false,
      "t": 311700.4295333339,
      "d": 2664.296000000031,
      "v": 80
    },
    {
      "midi": 60,
      "hit": false,
      "t": 311722.63200000057,
      "d": 310.8345333333127,
      "v": 72
    },
    {
      "midi": 64,
      "hit": false,
      "t": 311733.7332333339,
      "d": 499.55549999995856,
      "v": 84
    },
    {
      "midi": 68,
      "hit": false,
      "t": 311755.93570000055,
      "d": 111.01233333331766,
      "v": 84
    },
    {
      "midi": 60,
      "hit": false,
      "t": 312033.4665333339,
      "d": 144.31603333330713,
      "v": 64
    },
    {
      "midi": 64,
      "hit": false,
      "t": 312366.5035333339,
      "d": 421.8468666666886,
      "v": 84
    },
    {
      "midi": 68,
      "hit": false,
      "t": 312699.5405333339,
      "d": 133.2148000000161,
      "v": 80
    },
    {
      "midi": 68,
      "hit": false,
      "t": 313032.5775333339,
      "d": 721.5801666667103,
      "v": 55
    },
    {
      "midi": 60,
      "hit": false,
      "t": 313365.6145333339,
      "d": 999.1110000000335,
      "v": 92
    },
    {
      "midi": 64,
      "hit": false,
      "t": 313698.65153333393,
      "d": 466.2518000000273,
      "v": 55
    },
    {
      "midi": 68,
      "hit": false,
      "t": 314031.68853333395,
      "d": 333.0370000000112,
      "v": 88
    },
    {
      "midi": 48,
      "hit": false,
      "t": 314364.72553333396,
      "d": 2553.2836666666553,
      "v": 78
    },
    {
      "midi": 60,
      "hit": false,
      "t": 314364.72553333396,
      "d": 2664.295999999973,
      "v": 80
    },
    {
      "midi": 67,
      "hit": false,
      "t": 314386.9280000006,
      "d": 466.2517999999691,
      "v": 72
    },
    {
      "midi": 72,
      "hit": false,
      "t": 314398.02923333395,
      "d": 499.55549999995856,
      "v": 84
    },
    {
      "midi": 64,
      "hit": false,
      "t": 314420.2317000006,
      "d": 111.01233333331766,
      "v": 84
    },
    {
      "midi": 64,
      "hit": false,
      "t": 314697.7625333339,
      "d": 1143.4270333333407,
      "v": 64
    },
    {
      "midi": 67,
      "hit": false,
      "t": 315030.7995333339,
      "d": 421.8468666666886,
      "v": 84
    },
    {
      "midi": 72,
      "hit": false,
      "t": 315363.83653333393,
      "d": 133.2148000000161,
      "v": 80
    },
    {
      "midi": 72,
      "hit": false,
      "t": 315696.87353333394,
      "d": 721.5801666666521,
      "v": 55
    },
    {
      "midi": 64,
      "hit": false,
      "t": 316029.9105333339,
      "d": 999.1110000000335,
      "v": 92
    },
    {
      "midi": 67,
      "hit": false,
      "t": 316362.9475333339,
      "d": 466.2518000000273,
      "v": 55
    },
    {
      "midi": 72,
      "hit": false,
      "t": 316695.9845333339,
      "d": 333.0370000000112,
      "v": 88
    },
    {
      "midi": 48,
      "hit": false,
      "t": 317029.02153333393,
      "d": 2553.2836666666553,
      "v": 78
    },
    {
      "midi": 60,
      "hit": false,
      "t": 317029.02153333393,
      "d": 2664.295999999973,
      "v": 80
    },
    {
      "midi": 67,
      "hit": false,
      "t": 317051.22400000057,
      "d": 466.2517999999691,
      "v": 72
    },
    {
      "midi": 71,
      "hit": false,
      "t": 317062.3252333339,
      "d": 499.55549999995856,
      "v": 84
    },
    {
      "midi": 64,
      "hit": false,
      "t": 317084.52770000056,
      "d": 111.01233333331766,
      "v": 84
    },
    {
      "midi": 64,
      "hit": false,
      "t": 317362.0585333339,
      "d": 1143.4270333333407,
      "v": 64
    },
    {
      "midi": 67,
      "hit": false,
      "t": 317695.0955333339,
      "d": 421.8468666666886,
      "v": 84
    },
    {
      "midi": 72,
      "hit": false,
      "t": 318028.1325333339,
      "d": 133.2148000000161,
      "v": 80
    },
    {
      "midi": 72,
      "hit": false,
      "t": 318361.1695333339,
      "d": 721.5801666666521,
      "v": 55
    },
    {
      "midi": 64,
      "hit": false,
      "t": 318694.20653333387,
      "d": 999.1110000000335,
      "v": 92
    },
    {
      "midi": 67,
      "hit": false,
      "t": 319027.2435333339,
      "d": 466.2518000000273,
      "v": 55
    },
    {
      "midi": 71,
      "hit": false,
      "t": 319360.2805333339,
      "d": 333.0370000000112,
      "v": 88
    },
    {
      "midi": 45,
      "hit": false,
      "t": 319693.3175333339,
      "d": 2553.2836666667135,
      "v": 78
    },
    {
      "midi": 57,
      "hit": false,
      "t": 319693.3175333339,
      "d": 2664.296000000031,
      "v": 80
    },
    {
      "midi": 60,
      "hit": false,
      "t": 319715.52000000054,
      "d": 310.8345333333127,
      "v": 72
    },
    {
      "midi": 64,
      "hit": false,
      "t": 319726.6212333339,
      "d": 499.55549999995856,
      "v": 84
    },
    {
      "midi": 69,
      "hit": false,
      "t": 319748.82370000053,
      "d": 111.01233333331766,
      "v": 84
    },
    {
      "midi": 60,
      "hit": false,
      "t": 320026.35453333386,
      "d": 144.31603333330713,
      "v": 64
    },
    {
      "midi": 64,
      "hit": false,
      "t": 320359.39153333387,
      "d": 421.8468666666886,
      "v": 84
    },
    {
      "midi": 69,
      "hit": false,
      "t": 320692.4285333339,
      "d": 133.2148000000161,
      "v": 80
    },
    {
      "midi": 69,
      "hit": false,
      "t": 321025.4655333339,
      "d": 721.5801666667103,
      "v": 55
    },
    {
      "midi": 60,
      "hit": false,
      "t": 321358.5025333339,
      "d": 999.1110000000335,
      "v": 92
    },
    {
      "midi": 64,
      "hit": false,
      "t": 321691.5395333339,
      "d": 466.2518000000273,
      "v": 55
    },
    {
      "midi": 69,
      "hit": false,
      "t": 322024.5765333339,
      "d": 333.0370000000112,
      "v": 88
    },
    {
      "midi": 44,
      "hit": false,
      "t": 322357.61353333393,
      "d": 1920.5133666666807,
      "v": 78
    },
    {
      "midi": 56,
      "hit": false,
      "t": 322357.61353333393,
      "d": 2664.296000000031,
      "v": 80
    },
    {
      "midi": 60,
      "hit": false,
      "t": 322390.9172333339,
      "d": 299.7333000000217,
      "v": 72
    },
    {
      "midi": 64,
      "hit": false,
      "t": 322402.0184666673,
      "d": 477.3530333333183,
      "v": 84
    },
    {
      "midi": 68,
      "hit": false,
      "t": 322413.1197000006,
      "d": 111.01233333331766,
      "v": 84
    },
    {
      "midi": 60,
      "hit": false,
      "t": 322690.65053333394,
      "d": 144.31603333330713,
      "v": 64
    },
    {
      "midi": 64,
      "hit": false,
      "t": 323023.6875333339,
      "d": 421.8468666666886,
      "v": 84
    },
    {
      "midi": 68,
      "hit": false,
      "t": 323356.7245333339,
      "d": 133.2148000000161,
      "v": 80
    },
    {
      "midi": 68,
      "hit": false,
      "t": 323689.7615333339,
      "d": 721.5801666667103,
      "v": 55
    },
    {
      "midi": 60,
      "hit": false,
      "t": 324022.79853333393,
      "d": 999.1110000000335,
      "v": 92
    },
    {
      "midi": 43,
      "hit": false,
      "t": 324355.83553333394,
      "d": 643.8715333333821,
      "v": 80
    },
    {
      "midi": 64,
      "hit": false,
      "t": 324355.83553333394,
      "d": 643.8715333333821,
      "v": 55
    },
    {
      "midi": 67,
      "hit": false,
      "t": 324355.83553333394,
      "d": 666.0740000000224,
      "v": 88
    },
    {
      "midi": 57,
      "hit": false,
      "t": 325021.90953333396,
      "d": 255.3283666666248,
      "v": 66
    },
    {
      "midi": 60,
      "hit": false,
      "t": 325021.90953333396,
      "d": 255.3283666666248,
      "v": 63
    },
    {
      "midi": 53,
      "hit": false,
      "t": 325021.90953333396,
      "d": 444.0493333332706,
      "v": 74
    },
    {
      "midi": 65,
      "hit": false,
      "t": 325021.90953333396,
      "d": 510.6567333332496,
      "v": 66
    },
    {
      "midi": 69,
      "hit": false,
      "t": 325021.90953333396,
      "d": 555.0616666665883,
      "v": 66
    },
    {
      "midi": 57,
      "hit": false,
      "t": 325354.9465333339,
      "d": 421.8468666666304,
      "v": 64
    },
    {
      "midi": 60,
      "hit": false,
      "t": 325687.98353333387,
      "d": 421.8468666666886,
      "v": 87
    },
    {
      "midi": 65,
      "hit": false,
      "t": 326021.0205333339,
      "d": 510.656733333366,
      "v": 74
    },
    {
      "midi": 60,
      "hit": false,
      "t": 326354.0575333339,
      "d": 344.1382333333604,
      "v": 77
    },
    {
      "midi": 57,
      "hit": false,
      "t": 326687.0945333339,
      "d": 410.74563333333936,
      "v": 72
    },
    {
      "midi": 60,
      "hit": false,
      "t": 327020.1315333339,
      "d": 455.15056666667806,
      "v": 88
    },
    {
      "midi": 57,
      "hit": false,
      "t": 327353.1685333339,
      "d": 222.02466666669352,
      "v": 88
    },
    {
      "midi": 43,
      "hit": false,
      "t": 327686.20553333394,
      "d": 2553.2836666667135,
      "v": 78
    },
    {
      "midi": 55,
      "hit": false,
      "t": 327686.20553333394,
      "d": 2664.296000000031,
      "v": 80
    },
    {
      "midi": 60,
      "hit": false,
      "t": 327708.4080000006,
      "d": 310.8345333333127,
      "v": 72
    },
    {
      "midi": 62,
      "hit": false,
      "t": 327719.5092333339,
      "d": 499.55549999995856,
      "v": 84
    },
    {
      "midi": 65,
      "hit": false,
      "t": 327741.71170000057,
      "d": 111.01233333331766,
      "v": 84
    },
    {
      "midi": 60,
      "hit": false,
      "t": 328019.2425333339,
      "d": 144.31603333330713,
      "v": 64
    },
    {
      "midi": 62,
      "hit": false,
      "t": 328352.2795333339,
      "d": 421.8468666666886,
      "v": 84
    },
    {
      "midi": 65,
      "hit": false,
      "t": 328685.3165333339,
      "d": 133.2148000000161,
      "v": 80
    },
    {
      "midi": 65,
      "hit": false,
      "t": 329018.3535333339,
      "d": 721.5801666667103,
      "v": 55
    },
    {
      "midi": 60,
      "hit": false,
      "t": 329351.39053333394,
      "d": 999.1110000000335,
      "v": 92
    },
    {
      "midi": 62,
      "hit": false,
      "t": 329684.42753333395,
      "d": 466.2518000000273,
      "v": 55
    },
    {
      "midi": 65,
      "hit": false,
      "t": 330017.46453333396,
      "d": 333.0370000000112,
      "v": 88
    },
    {
      "midi": 43,
      "hit": false,
      "t": 330350.50153333397,
      "d": 1909.4121333332732,
      "v": 78
    },
    {
      "midi": 55,
      "hit": false,
      "t": 330350.50153333397,
      "d": 2664.295999999973,
      "v": 80
    },
    {
      "midi": 59,
      "hit": false,
      "t": 330372.7040000006,
      "d": 310.8345333333127,
      "v": 72
    },
    {
      "midi": 62,
      "hit": false,
      "t": 330383.80523333396,
      "d": 499.55549999995856,
      "v": 84
    },
    {
      "midi": 65,
      "hit": false,
      "t": 330406.0077000006,
      "d": 111.01233333331766,
      "v": 84
    },
    {
      "midi": 59,
      "hit": false,
      "t": 330683.5385333339,
      "d": 144.31603333330713,
      "v": 64
    },
    {
      "midi": 62,
      "hit": false,
      "t": 331016.57553333393,
      "d": 421.8468666666886,
      "v": 84
    },
    {
      "midi": 65,
      "hit": false,
      "t": 331349.61253333394,
      "d": 133.2148000000161,
      "v": 80
    },
    {
      "midi": 59,
      "hit": false,
      "t": 331682.64953333396,
      "d": 144.31603333330713,
      "v": 92
    },
    {
      "midi": 65,
      "hit": false,
      "t": 331682.64953333396,
      "d": 333.03699999995297,
      "v": 55
    },
    {
      "midi": 62,
      "hit": false,
      "t": 331682.64953333396,
      "d": 466.2517999999691,
      "v": 55
    },
    {
      "midi": 65,
      "hit": false,
      "t": 332348.7235333339,
      "d": 55.50616666668793,
      "v": 64
    },
    {
      "midi": 59,
      "hit": false,
      "t": 332348.7235333339,
      "d": 333.0370000000112,
      "v": 64
    },
    {
      "midi": 43,
      "hit": false,
      "t": 332348.7235333339,
      "d": 632.7703000000329,
      "v": 81
    },
    {
      "midi": 62,
      "hit": false,
      "t": 332348.7235333339,
      "d": 666.0740000000224,
      "v": 64
    },
    {
      "midi": 60,
      "hit": false,
      "t": 333014.79753333394,
      "d": 5295.2882999999565,
      "v": 80
    },
    {
      "midi": 48,
      "hit": false,
      "t": 333014.79753333394,
      "d": 5328.591999999946,
      "v": 78
    },
    {
      "midi": 67,
      "hit": false,
      "t": 333037.0000000006,
      "d": 5184.275966666639,
      "v": 72
    },
    {
      "midi": 72,
      "hit": false,
      "t": 333048.10123333393,
      "d": 5217.579666666628,
      "v": 84
    },
    {
      "midi": 64,
      "hit": false,
      "t": 333070.3037000006,
      "d": 5228.680899999978,
      "v": 84
    }
  ]
}