{
  "jsonPath": "Soundtracks/Video Game Music/Monkey Island 2/monkey-island-2-lechucks-revenge-stan-by-w3sp.json",
  "path": "Soundtracks\\Video Game Music\\Monkey Island 2\\Monkey_Island_2_-_LeChucks_Revenge_-_Stan_by_w3sp.mid",
  "name": "Monkey_Island_2_-_LeChucks_Revenge_-_Stan_by_w3sp",
  "difficulty": "Advanced",
  "bpm": 140.00014000014,
  "notes": [
    {
      "midi": 62,
      "hit": false,
      "t": 3.5714250000000005,
      "d": 861.6062812500002,
      "v": 67
    },
    {
      "midi": 57,
      "hit": false,
      "t": 3.5714250000000005,
      "d": 861.6062812500002,
      "v": 72
    },
    {
      "midi": 54,
      "hit": false,
      "t": 3.5714250000000005,
      "d": 861.6062812500002,
      "v": 61
    },
    {
      "midi": 50,
      "hit": false,
      "t": 3.5714250000000005,
      "d": 861.6062812500002,
      "v": 61
    },
    {
      "midi": 62,
      "hit": false,
      "t": 865.1777062500001,
      "d": 635.71365,
      "v": 65
    },
    {
      "midi": 58,
      "hit": false,
      "t": 865.1777062500001,
      "d": 635.71365,
      "v": 70
    },
    {
      "midi": 54,
      "hit": false,
      "t": 865.1777062500001,
      "d": 635.71365,
      "v": 59
    },
    {
      "midi": 50,
      "hit": false,
      "t": 865.1777062500001,
      "d": 635.71365,
      "v": 59
    },
    {
      "midi": 62,
      "hit": false,
      "t": 1501.7842125000002,
      "d": 199.10694375000003,
      "v": 64
    },
    {
      "midi": 57,
      "hit": false,
      "t": 1715.1768562500001,
      "d": 864.28485,
      "v": 72
    },
    {
      "midi": 54,
      "hit": false,
      "t": 1715.1768562500001,
      "d": 1712.4982875000005,
      "v": 61
    },
    {
      "midi": 50,
      "hit": false,
      "t": 1715.1768562500001,
      "d": 1712.4982875000005,
      "v": 61
    },
    {
      "midi": 58,
      "hit": false,
      "t": 2579.46170625,
      "d": 848.2134375000005,
      "v": 70
    },
    {
      "midi": 62,
      "hit": false,
      "t": 2785.7115000000003,
      "d": 507.1423500000001,
      "v": 57
    },
    {
      "midi": 66,
      "hit": false,
      "t": 2848.2114375000006,
      "d": 444.64241249999986,
      "v": 57
    },
    {
      "midi": 69,
      "hit": false,
      "t": 2911.6042312500003,
      "d": 381.2496187500001,
      "v": 57
    },
    {
      "midi": 74,
      "hit": false,
      "t": 2974.9970250000006,
      "d": 317.85682499999984,
      "v": 71
    },
    {
      "midi": 62,
      "hit": false,
      "t": 3429.4608562500007,
      "d": 864.28485,
      "v": 67
    },
    {
      "midi": 57,
      "hit": false,
      "t": 3429.4608562500007,
      "d": 864.28485,
      "v": 72
    },
    {
      "midi": 54,
      "hit": false,
      "t": 3429.4608562500007,
      "d": 864.28485,
      "v": 61
    },
    {
      "midi": 50,
      "hit": false,
      "t": 3429.4608562500007,
      "d": 864.28485,
      "v": 61
    },
    {
      "midi": 62,
      "hit": false,
      "t": 4293.745706250001,
      "d": 635.7136499999997,
      "v": 65
    },
    {
      "midi": 58,
      "hit": false,
      "t": 4293.745706250001,
      "d": 635.7136499999997,
      "v": 70
    },
    {
      "midi": 54,
      "hit": false,
      "t": 4293.745706250001,
      "d": 635.7136499999997,
      "v": 59
    },
    {
      "midi": 50,
      "hit": false,
      "t": 4293.745706250001,
      "d": 635.7136499999997,
      "v": 59
    },
    {
      "midi": 62,
      "hit": false,
      "t": 4930.3522125,
      "d": 199.10694375000003,
      "v": 64
    },
    {
      "midi": 57,
      "hit": false,
      "t": 5143.74485625,
      "d": 864.28485,
      "v": 72
    },
    {
      "midi": 54,
      "hit": false,
      "t": 5143.74485625,
      "d": 1712.4982875000005,
      "v": 61
    },
    {
      "midi": 50,
      "hit": false,
      "t": 5143.74485625,
      "d": 1712.4982875000005,
      "v": 61
    },
    {
      "midi": 69,
      "hit": false,
      "t": 5370.530343750001,
      "d": 199.9997999999996,
      "v": 66
    },
    {
      "midi": 66,
      "hit": false,
      "t": 5370.530343750001,
      "d": 199.9997999999996,
      "v": 56
    },
    {
      "midi": 62,
      "hit": false,
      "t": 5370.530343750001,
      "d": 199.9997999999996,
      "v": 56
    },
    {
      "midi": 69,
      "hit": false,
      "t": 5794.6370625,
      "d": 200.89265625000007,
      "v": 66
    },
    {
      "midi": 66,
      "hit": false,
      "t": 5794.6370625,
      "d": 200.89265625000007,
      "v": 56
    },
    {
      "midi": 62,
      "hit": false,
      "t": 5794.6370625,
      "d": 200.89265625000007,
      "v": 56
    },
    {
      "midi": 58,
      "hit": false,
      "t": 6008.02970625,
      "d": 848.2134375000005,
      "v": 70
    },
    {
      "midi": 69,
      "hit": false,
      "t": 6221.422350000001,
      "d": 199.10694375000003,
      "v": 66
    },
    {
      "midi": 66,
      "hit": false,
      "t": 6221.422350000001,
      "d": 199.10694375000003,
      "v": 56
    },
    {
      "midi": 62,
      "hit": false,
      "t": 6221.422350000001,
      "d": 199.10694375000003,
      "v": 56
    },
    {
      "midi": 69,
      "hit": false,
      "t": 6644.6362125000005,
      "d": 199.10694375000003,
      "v": 66
    },
    {
      "midi": 66,
      "hit": false,
      "t": 6644.6362125000005,
      "d": 199.10694375000003,
      "v": 56
    },
    {
      "midi": 62,
      "hit": false,
      "t": 6644.6362125000005,
      "d": 199.10694375000003,
      "v": 56
    },
    {
      "midi": 50,
      "hit": false,
      "t": 6858.028856250001,
      "d": 213.3926437500004,
      "v": 69
    },
    {
      "midi": 62,
      "hit": false,
      "t": 7084.814343750001,
      "d": 199.9997999999996,
      "v": 66
    },
    {
      "midi": 57,
      "hit": false,
      "t": 7084.814343750001,
      "d": 199.9997999999996,
      "v": 56
    },
    {
      "midi": 54,
      "hit": false,
      "t": 7084.814343750001,
      "d": 199.9997999999996,
      "v": 56
    },
    {
      "midi": 66,
      "hit": false,
      "t": 7084.814343750001,
      "d": 199.9997999999996,
      "v": 64
    },
    {
      "midi": 66,
      "hit": false,
      "t": 7298.206987500001,
      "d": 198.21408750000046,
      "v": 65
    },
    {
      "midi": 62,
      "hit": false,
      "t": 7508.921062500001,
      "d": 200.89265625000007,
      "v": 70
    },
    {
      "midi": 57,
      "hit": false,
      "t": 7508.921062500001,
      "d": 200.89265625000007,
      "v": 56
    },
    {
      "midi": 54,
      "hit": false,
      "t": 7508.921062500001,
      "d": 200.89265625000007,
      "v": 56
    },
    {
      "midi": 64,
      "hit": false,
      "t": 7508.921062500001,
      "d": 200.89265625000007,
      "v": 64
    },
    {
      "midi": 62,
      "hit": false,
      "t": 7722.313706250002,
      "d": 424.99957500000073,
      "v": 67
    },
    {
      "midi": 57,
      "hit": false,
      "t": 7935.706350000002,
      "d": 199.10694375000003,
      "v": 70
    },
    {
      "midi": 54,
      "hit": false,
      "t": 7935.706350000002,
      "d": 199.10694375000003,
      "v": 56
    },
    {
      "midi": 62,
      "hit": false,
      "t": 8147.313281250003,
      "d": 423.21386249999887,
      "v": 65
    },
    {
      "midi": 57,
      "hit": false,
      "t": 8358.920212500003,
      "d": 199.10694374999912,
      "v": 66
    },
    {
      "midi": 54,
      "hit": false,
      "t": 8358.920212500003,
      "d": 199.10694374999912,
      "v": 56
    },
    {
      "midi": 45,
      "hit": false,
      "t": 8572.31285625,
      "d": 213.39264374999948,
      "v": 68
    },
    {
      "midi": 57,
      "hit": false,
      "t": 8799.09834375,
      "d": 199.9997999999996,
      "v": 66
    },
    {
      "midi": 52,
      "hit": false,
      "t": 8799.09834375,
      "d": 199.9997999999996,
      "v": 56
    },
    {
      "midi": 49,
      "hit": false,
      "t": 8799.09834375,
      "d": 199.9997999999996,
      "v": 56
    },
    {
      "midi": 64,
      "hit": false,
      "t": 8799.09834375,
      "d": 199.9997999999996,
      "v": 64
    },
    {
      "midi": 64,
      "hit": false,
      "t": 9012.4909875,
      "d": 198.21408750000046,
      "v": 65
    },
    {
      "midi": 57,
      "hit": false,
      "t": 9223.2050625,
      "d": 200.89265625000007,
      "v": 66
    },
    {
      "midi": 52,
      "hit": false,
      "t": 9223.2050625,
      "d": 200.89265625000007,
      "v": 56
    },
    {
      "midi": 49,
      "hit": false,
      "t": 9223.2050625,
      "d": 200.89265625000007,
      "v": 56
    },
    {
      "midi": 67,
      "hit": false,
      "t": 9223.2050625,
      "d": 200.89265625000007,
      "v": 64
    },
    {
      "midi": 50,
      "hit": false,
      "t": 9436.597706249999,
      "d": 200.89265625000007,
      "v": 67
    },
    {
      "midi": 66,
      "hit": false,
      "t": 9436.597706249999,
      "d": 200.89265625000007,
      "v": 67
    },
    {
      "midi": 57,
      "hit": false,
      "t": 9649.990349999998,
      "d": 199.10694374999912,
      "v": 66
    },
    {
      "midi": 54,
      "hit": false,
      "t": 9649.990349999998,
      "d": 199.10694374999912,
      "v": 56
    },
    {
      "midi": 64,
      "hit": false,
      "t": 9649.990349999998,
      "d": 199.10694374999912,
      "v": 64
    },
    {
      "midi": 62,
      "hit": false,
      "t": 9861.597281249997,
      "d": 423.2138625000007,
      "v": 65
    },
    {
      "midi": 57,
      "hit": false,
      "t": 10073.204212499997,
      "d": 199.10694375000094,
      "v": 66
    },
    {
      "midi": 54,
      "hit": false,
      "t": 10073.204212499997,
      "d": 199.10694375000094,
      "v": 56
    },
    {
      "midi": 50,
      "hit": false,
      "t": 10286.596856249997,
      "d": 213.39264374999948,
      "v": 69
    },
    {
      "midi": 62,
      "hit": false,
      "t": 10513.382343749996,
      "d": 199.9997999999996,
      "v": 66
    },
    {
      "midi": 57,
      "hit": false,
      "t": 10513.382343749996,
      "d": 199.9997999999996,
      "v": 56
    },
    {
      "midi": 54,
      "hit": false,
      "t": 10513.382343749996,
      "d": 199.9997999999996,
      "v": 56
    },
    {
      "midi": 69,
      "hit": false,
      "t": 10513.382343749996,
      "d": 199.9997999999996,
      "v": 64
    },
    {
      "midi": 69,
      "hit": false,
      "t": 10726.774987499995,
      "d": 314.28540000000066,
      "v": 65
    },
    {
      "midi": 62,
      "hit": false,
      "t": 10937.489062499995,
      "d": 200.8926562500019,
      "v": 66
    },
    {
      "midi": 57,
      "hit": false,
      "t": 10937.489062499995,
      "d": 200.8926562500019,
      "v": 56
    },
    {
      "midi": 54,
      "hit": false,
      "t": 10937.489062499995,
      "d": 200.8926562500019,
      "v": 56
    },
    {
      "midi": 67,
      "hit": false,
      "t": 11041.953243749997,
      "d": 101.78561249999984,
      "v": 64
    },
    {
      "midi": 66,
      "hit": false,
      "t": 11150.881706249997,
      "d": 424.9995749999998,
      "v": 67
    },
    {
      "midi": 62,
      "hit": false,
      "t": 11364.274349999996,
      "d": 199.10694375000094,
      "v": 66
    },
    {
      "midi": 57,
      "hit": false,
      "t": 11364.274349999996,
      "d": 199.10694375000094,
      "v": 56
    },
    {
      "midi": 54,
      "hit": false,
      "t": 11364.274349999996,
      "d": 199.10694375000094,
      "v": 56
    },
    {
      "midi": 66,
      "hit": false,
      "t": 11575.881281249996,
      "d": 315.17825625000114,
      "v": 65
    },
    {
      "midi": 62,
      "hit": false,
      "t": 11787.488212499997,
      "d": 199.10694375000094,
      "v": 66
    },
    {
      "midi": 57,
      "hit": false,
      "t": 11787.488212499997,
      "d": 199.10694375000094,
      "v": 56
    },
    {
      "midi": 54,
      "hit": false,
      "t": 11787.488212499997,
      "d": 199.10694375000094,
      "v": 56
    },
    {
      "midi": 66,
      "hit": false,
      "t": 11891.059537499998,
      "d": 101.78561249999984,
      "v": 64
    },
    {
      "midi": 45,
      "hit": false,
      "t": 12000.880856249998,
      "d": 213.39264374999948,
      "v": 68
    },
    {
      "midi": 64,
      "hit": false,
      "t": 12000.880856249998,
      "d": 213.39264374999948,
      "v": 69
    },
    {
      "midi": 57,
      "hit": false,
      "t": 12227.666343749997,
      "d": 199.9997999999996,
      "v": 66
    },
    {
      "midi": 52,
      "hit": false,
      "t": 12227.666343749997,
      "d": 199.9997999999996,
      "v": 56
    },
    {
      "midi": 49,
      "hit": false,
      "t": 12227.666343749997,
      "d": 199.9997999999996,
      "v": 56
    },
    {
      "midi": 62,
      "hit": false,
      "t": 12227.666343749997,
      "d": 199.9997999999996,
      "v": 64
    },
    {
      "midi": 64,
      "hit": false,
      "t": 12441.058987499997,
      "d": 198.21408750000046,
      "v": 65
    },
    {
      "midi": 57,
      "hit": false,
      "t": 12651.773062499997,
      "d": 200.89265625000007,
      "v": 66
    },
    {
      "midi": 52,
      "hit": false,
      "t": 12651.773062499997,
      "d": 200.89265625000007,
      "v": 56
    },
    {
      "midi": 49,
      "hit": false,
      "t": 12651.773062499997,
      "d": 200.89265625000007,
      "v": 56
    },
    {
      "midi": 66,
      "hit": false,
      "t": 12651.773062499997,
      "d": 200.89265625000007,
      "v": 64
    },
    {
      "midi": 50,
      "hit": false,
      "t": 12865.165706249996,
      "d": 200.89265625000007,
      "v": 67
    },
    {
      "midi": 62,
      "hit": false,
      "t": 12865.165706249996,
      "d": 848.2134375000005,
      "v": 67
    },
    {
      "midi": 57,
      "hit": false,
      "t": 13078.558349999996,
      "d": 199.10694375000094,
      "v": 66
    },
    {
      "midi": 54,
      "hit": false,
      "t": 13078.558349999996,
      "d": 199.10694375000094,
      "v": 56
    },
    {
      "midi": 57,
      "hit": false,
      "t": 13501.772212499996,
      "d": 199.10694375000094,
      "v": 66
    },
    {
      "midi": 54,
      "hit": false,
      "t": 13501.772212499996,
      "d": 199.10694375000094,
      "v": 56
    },
    {
      "midi": 50,
      "hit": false,
      "t": 13715.164856249996,
      "d": 213.39264374999948,
      "v": 69
    },
    {
      "midi": 74,
      "hit": false,
      "t": 13715.164856249996,
      "d": 864.2848499999982,
      "v": 69
    },
    {
      "midi": 62,
      "hit": false,
      "t": 13941.950343749995,
      "d": 199.9997999999996,
      "v": 66
    },
    {
      "midi": 57,
      "hit": false,
      "t": 13941.950343749995,
      "d": 199.9997999999996,
      "v": 56
    },
    {
      "midi": 54,
      "hit": false,
      "t": 13941.950343749995,
      "d": 199.9997999999996,
      "v": 56
    },
    {
      "midi": 66,
      "hit": false,
      "t": 13941.950343749995,
      "d": 199.9997999999996,
      "v": 64
    },
    {
      "midi": 66,
      "hit": false,
      "t": 14155.342987499995,
      "d": 198.21408750000046,
      "v": 65
    },
    {
      "midi": 62,
      "hit": false,
      "t": 14366.057062499995,
      "d": 200.89265625000007,
      "v": 66
    },
    {
      "midi": 57,
      "hit": false,
      "t": 14366.057062499995,
      "d": 200.89265625000007,
      "v": 56
    },
    {
      "midi": 54,
      "hit": false,
      "t": 14366.057062499995,
      "d": 200.89265625000007,
      "v": 56
    },
    {
      "midi": 64,
      "hit": false,
      "t": 14366.057062499995,
      "d": 200.89265625000007,
      "v": 64
    },
    {
      "midi": 73,
      "hit": false,
      "t": 14579.449706249994,
      "d": 848.2134374999987,
      "v": 67
    },
    {
      "midi": 57,
      "hit": false,
      "t": 14792.842349999994,
      "d": 199.10694374999912,
      "v": 56
    },
    {
      "midi": 54,
      "hit": false,
      "t": 14792.842349999994,
      "d": 199.10694374999912,
      "v": 56
    },
    {
      "midi": 62,
      "hit": false,
      "t": 14792.842349999994,
      "d": 199.10694374999912,
      "v": 66
    },
    {
      "midi": 57,
      "hit": false,
      "t": 15216.056212499992,
      "d": 199.10694375000094,
      "v": 56
    },
    {
      "midi": 54,
      "hit": false,
      "t": 15216.056212499992,
      "d": 199.10694375000094,
      "v": 56
    },
    {
      "midi": 62,
      "hit": false,
      "t": 15216.056212499992,
      "d": 199.10694375000094,
      "v": 66
    },
    {
      "midi": 45,
      "hit": false,
      "t": 15429.448856249992,
      "d": 213.39264374999948,
      "v": 68
    },
    {
      "midi": 72,
      "hit": false,
      "t": 15429.448856249992,
      "d": 864.28485,
      "v": 69
    },
    {
      "midi": 57,
      "hit": false,
      "t": 15656.234343749991,
      "d": 199.9997999999996,
      "v": 66
    },
    {
      "midi": 52,
      "hit": false,
      "t": 15656.234343749991,
      "d": 199.9997999999996,
      "v": 56
    },
    {
      "midi": 49,
      "hit": false,
      "t": 15656.234343749991,
      "d": 199.9997999999996,
      "v": 56
    },
    {
      "midi": 64,
      "hit": false,
      "t": 15656.234343749991,
      "d": 199.9997999999996,
      "v": 64
    },
    {
      "midi": 64,
      "hit": false,
      "t": 15869.62698749999,
      "d": 314.28540000000066,
      "v": 65
    },
    {
      "midi": 57,
      "hit": false,
      "t": 16080.34106249999,
      "d": 200.8926562500019,
      "v": 66
    },
    {
      "midi": 52,
      "hit": false,
      "t": 16080.34106249999,
      "d": 200.8926562500019,
      "v": 56
    },
    {
      "midi": 49,
      "hit": false,
      "t": 16080.34106249999,
      "d": 200.8926562500019,
      "v": 56
    },
    {
      "midi": 67,
      "hit": false,
      "t": 16184.805243749992,
      "d": 101.78561249999984,
      "v": 64
    },
    {
      "midi": 50,
      "hit": false,
      "t": 16293.733706249992,
      "d": 200.89265625000007,
      "v": 67
    },
    {
      "midi": 66,
      "hit": false,
      "t": 16293.733706249992,
      "d": 200.89265625000007,
      "v": 67
    },
    {
      "midi": 73,
      "hit": false,
      "t": 16293.733706249992,
      "d": 848.2134375000005,
      "v": 67
    },
    {
      "midi": 62,
      "hit": false,
      "t": 16507.12634999999,
      "d": 199.10694375000094,
      "v": 66
    },
    {
      "midi": 57,
      "hit": false,
      "t": 16507.12634999999,
      "d": 199.10694375000094,
      "v": 56
    },
    {
      "midi": 54,
      "hit": false,
      "t": 16507.12634999999,
      "d": 199.10694375000094,
      "v": 56
    },
    {
      "midi": 64,
      "hit": false,
      "t": 16507.12634999999,
      "d": 199.10694375000094,
      "v": 64
    },
    {
      "midi": 57,
      "hit": false,
      "t": 16930.340212499992,
      "d": 199.10694375000094,
      "v": 56
    },
    {
      "midi": 54,
      "hit": false,
      "t": 16930.340212499992,
      "d": 199.10694375000094,
      "v": 56
    },
    {
      "midi": 62,
      "hit": false,
      "t": 16930.340212499992,
      "d": 199.10694375000094,
      "v": 66
    },
    {
      "midi": 50,
      "hit": false,
      "t": 17143.732856249993,
      "d": 213.3926437500013,
      "v": 69
    },
    {
      "midi": 69,
      "hit": false,
      "t": 17143.732856249993,
      "d": 439.285275000002,
      "v": 69
    },
    {
      "midi": 74,
      "hit": false,
      "t": 17143.732856249993,
      "d": 864.2848500000036,
      "v": 69
    },
    {
      "midi": 62,
      "hit": false,
      "t": 17370.518343749995,
      "d": 199.99980000000141,
      "v": 66
    },
    {
      "midi": 57,
      "hit": false,
      "t": 17370.518343749995,
      "d": 199.99980000000141,
      "v": 56
    },
    {
      "midi": 54,
      "hit": false,
      "t": 17370.518343749995,
      "d": 199.99980000000141,
      "v": 56
    },
    {
      "midi": 69,
      "hit": false,
      "t": 17583.910987499996,
      "d": 314.28540000000066,
      "v": 65
    },
    {
      "midi": 62,
      "hit": false,
      "t": 17794.625062499996,
      "d": 200.8926562500019,
      "v": 66
    },
    {
      "midi": 57,
      "hit": false,
      "t": 17794.625062499996,
      "d": 200.8926562500019,
      "v": 56
    },
    {
      "midi": 54,
      "hit": false,
      "t": 17794.625062499996,
      "d": 200.8926562500019,
      "v": 56
    },
    {
      "midi": 67,
      "hit": false,
      "t": 17899.089243749997,
      "d": 101.78561249999984,
      "v": 64
    },
    {
      "midi": 66,
      "hit": false,
      "t": 18008.017706249997,
      "d": 424.99957500000164,
      "v": 67
    },
    {
      "midi": 73,
      "hit": false,
      "t": 18008.017706249997,
      "d": 848.2134375000023,
      "v": 67
    },
    {
      "midi": 62,
      "hit": false,
      "t": 18221.41035,
      "d": 199.10694375000094,
      "v": 66
    },
    {
      "midi": 57,
      "hit": false,
      "t": 18221.41035,
      "d": 199.10694375000094,
      "v": 56
    },
    {
      "midi": 54,
      "hit": false,
      "t": 18221.41035,
      "d": 199.10694375000094,
      "v": 56
    },
    {
      "midi": 66,
      "hit": false,
      "t": 18433.01728125,
      "d": 315.17825625000114,
      "v": 65
    },
    {
      "midi": 62,
      "hit": false,
      "t": 18644.6242125,
      "d": 199.10694375000094,
      "v": 66
    },
    {
      "midi": 57,
      "hit": false,
      "t": 18644.6242125,
      "d": 199.10694375000094,
      "v": 56
    },
    {
      "midi": 54,
      "hit": false,
      "t": 18644.6242125,
      "d": 199.10694375000094,
      "v": 56
    },
    {
      "midi": 66,
      "hit": false,
      "t": 18748.1955375,
      "d": 101.78561249999984,
      "v": 64
    },
    {
      "midi": 45,
      "hit": false,
      "t": 18858.01685625,
      "d": 213.3926437500013,
      "v": 68
    },
    {
      "midi": 64,
      "hit": false,
      "t": 18858.01685625,
      "d": 213.3926437500013,
      "v": 69
    },
    {
      "midi": 72,
      "hit": false,
      "t": 18858.01685625,
      "d": 439.285275000002,
      "v": 69
    },
    {
      "midi": 57,
      "hit": false,
      "t": 19084.80234375,
      "d": 199.99980000000141,
      "v": 66
    },
    {
      "midi": 52,
      "hit": false,
      "t": 19084.80234375,
      "d": 199.99980000000141,
      "v": 56
    },
    {
      "midi": 49,
      "hit": false,
      "t": 19084.80234375,
      "d": 199.99980000000141,
      "v": 56
    },
    {
      "midi": 62,
      "hit": false,
      "t": 19084.80234375,
      "d": 199.99980000000141,
      "v": 64
    },
    {
      "midi": 64,
      "hit": false,
      "t": 19298.194987500003,
      "d": 198.21408750000046,
      "v": 65
    },
    {
      "midi": 73,
      "hit": false,
      "t": 19298.194987500003,
      "d": 424.1067187499975,
      "v": 65
    },
    {
      "midi": 57,
      "hit": false,
      "t": 19508.909062500003,
      "d": 200.89265624999825,
      "v": 66
    },
    {
      "midi": 52,
      "hit": false,
      "t": 19508.909062500003,
      "d": 200.89265624999825,
      "v": 56
    },
    {
      "midi": 49,
      "hit": false,
      "t": 19508.909062500003,
      "d": 200.89265624999825,
      "v": 56
    },
    {
      "midi": 66,
      "hit": false,
      "t": 19508.909062500003,
      "d": 200.89265624999825,
      "v": 64
    },
    {
      "midi": 50,
      "hit": false,
      "t": 19722.30170625,
      "d": 200.89265624999825,
      "v": 67
    },
    {
      "midi": 74,
      "hit": false,
      "t": 19722.30170625,
      "d": 848.2134374999987,
      "v": 67
    },
    {
      "midi": 57,
      "hit": false,
      "t": 19935.694349999998,
      "d": 199.10694375000094,
      "v": 56
    },
    {
      "midi": 54,
      "hit": false,
      "t": 19935.694349999998,
      "d": 199.10694375000094,
      "v": 56
    },
    {
      "midi": 62,
      "hit": false,
      "t": 19935.694349999998,
      "d": 199.10694375000094,
      "v": 66
    },
    {
      "midi": 57,
      "hit": false,
      "t": 20358.9082125,
      "d": 199.10694375000094,
      "v": 56
    },
    {
      "midi": 54,
      "hit": false,
      "t": 20358.9082125,
      "d": 199.10694375000094,
      "v": 56
    },
    {
      "midi": 62,
      "hit": false,
      "t": 20358.9082125,
      "d": 199.10694375000094,
      "v": 66
    },
    {
      "midi": 55,
      "hit": false,
      "t": 20572.30085625,
      "d": 213.3926437500013,
      "v": 69
    },
    {
      "midi": 74,
      "hit": false,
      "t": 20572.30085625,
      "d": 1712.4982875000023,
      "v": 64
    },
    {
      "midi": 67,
      "hit": false,
      "t": 20799.08634375,
      "d": 199.99980000000141,
      "v": 66
    },
    {
      "midi": 62,
      "hit": false,
      "t": 20799.08634375,
      "d": 199.99980000000141,
      "v": 56
    },
    {
      "midi": 59,
      "hit": false,
      "t": 20799.08634375,
      "d": 199.99980000000141,
      "v": 56
    },
    {
      "midi": 67,
      "hit": false,
      "t": 21223.193062500002,
      "d": 200.89265624999825,
      "v": 66
    },
    {
      "midi": 62,
      "hit": false,
      "t": 21223.193062500002,
      "d": 200.89265624999825,
      "v": 56
    },
    {
      "midi": 59,
      "hit": false,
      "t": 21223.193062500002,
      "d": 200.89265624999825,
      "v": 56
    },
    {
      "midi": 67,
      "hit": false,
      "t": 21649.97835,
      "d": 199.10694375000094,
      "v": 66
    },
    {
      "midi": 62,
      "hit": false,
      "t": 21649.97835,
      "d": 199.10694375000094,
      "v": 56
    },
    {
      "midi": 59,
      "hit": false,
      "t": 21649.97835,
      "d": 199.10694375000094,
      "v": 56
    },
    {
      "midi": 67,
      "hit": false,
      "t": 22073.192212500002,
      "d": 199.10694375000094,
      "v": 70
    },
    {
      "midi": 62,
      "hit": false,
      "t": 22073.192212500002,
      "d": 199.10694375000094,
      "v": 56
    },
    {
      "midi": 59,
      "hit": false,
      "t": 22073.192212500002,
      "d": 199.10694375000094,
      "v": 56
    },
    {
      "midi": 76,
      "hit": false,
      "t": 22178.549250000004,
      "d": 53.571374999999534,
      "v": 64
    },
    {
      "midi": 78,
      "hit": false,
      "t": 22232.120625000003,
      "d": 53.571374999999534,
      "v": 64
    },
    {
      "midi": 79,
      "hit": false,
      "t": 22286.584856250003,
      "d": 650.8922062500023,
      "v": 69
    },
    {
      "midi": 66,
      "hit": false,
      "t": 22513.370343750004,
      "d": 199.99980000000141,
      "v": 70
    },
    {
      "midi": 63,
      "hit": false,
      "t": 22513.370343750004,
      "d": 199.99980000000141,
      "v": 56
    },
    {
      "midi": 59,
      "hit": false,
      "t": 22513.370343750004,
      "d": 199.99980000000141,
      "v": 56
    },
    {
      "midi": 66,
      "hit": false,
      "t": 22937.477062500006,
      "d": 200.89265624999825,
      "v": 70
    },
    {
      "midi": 63,
      "hit": false,
      "t": 22937.477062500006,
      "d": 200.89265624999825,
      "v": 56
    },
    {
      "midi": 59,
      "hit": false,
      "t": 22937.477062500006,
      "d": 200.89265624999825,
      "v": 56
    },
    {
      "midi": 79,
      "hit": false,
      "t": 22937.477062500006,
      "d": 200.89265624999825,
      "v": 64
    },
    {
      "midi": 79,
      "hit": false,
      "t": 23150.869706250003,
      "d": 848.2134375000023,
      "v": 67
    },
    {
      "midi": 67,
      "hit": false,
      "t": 23364.262350000005,
      "d": 199.10694375000094,
      "v": 70
    },
    {
      "midi": 64,
      "hit": false,
      "t": 23364.262350000005,
      "d": 199.10694375000094,
      "v": 56
    },
    {
      "midi": 59,
      "hit": false,
      "t": 23364.262350000005,
      "d": 199.10694375000094,
      "v": 56
    },
    {
      "midi": 67,
      "hit": false,
      "t": 23787.476212500005,
      "d": 199.10694375000094,
      "v": 62
    },
    {
      "midi": 64,
      "hit": false,
      "t": 23787.476212500005,
      "d": 199.10694375000094,
      "v": 67
    },
    {
      "midi": 59,
      "hit": false,
      "t": 23787.476212500005,
      "d": 199.10694375000094,
      "v": 56
    },
    {
      "midi": 74,
      "hit": false,
      "t": 24000.868856250007,
      "d": 1712.4982875000023,
      "v": 64
    },
    {
      "midi": 67,
      "hit": false,
      "t": 24227.654343750008,
      "d": 199.99980000000141,
      "v": 62
    },
    {
      "midi": 62,
      "hit": false,
      "t": 24227.654343750008,
      "d": 199.99980000000141,
      "v": 67
    },
    {
      "midi": 59,
      "hit": false,
      "t": 24227.654343750008,
      "d": 199.99980000000141,
      "v": 56
    },
    {
      "midi": 67,
      "hit": false,
      "t": 24651.76106250001,
      "d": 200.89265624999825,
      "v": 66
    },
    {
      "midi": 62,
      "hit": false,
      "t": 24651.76106250001,
      "d": 200.89265624999825,
      "v": 56
    },
    {
      "midi": 59,
      "hit": false,
      "t": 24651.76106250001,
      "d": 200.89265624999825,
      "v": 56
    },
    {
      "midi": 67,
      "hit": false,
      "t": 25078.546350000008,
      "d": 199.10694375000094,
      "v": 66
    },
    {
      "midi": 62,
      "hit": false,
      "t": 25078.546350000008,
      "d": 199.10694375000094,
      "v": 56
    },
    {
      "midi": 59,
      "hit": false,
      "t": 25078.546350000008,
      "d": 199.10694375000094,
      "v": 56
    },
    {
      "midi": 67,
      "hit": false,
      "t": 25501.76021250001,
      "d": 199.10694375000094,
      "v": 70
    },
    {
      "midi": 62,
      "hit": false,
      "t": 25501.76021250001,
      "d": 199.10694375000094,
      "v": 56
    },
    {
      "midi": 59,
      "hit": false,
      "t": 25501.76021250001,
      "d": 199.10694375000094,
      "v": 56
    },
    {
      "midi": 76,
      "hit": false,
      "t": 25607.11725000001,
      "d": 53.571374999999534,
      "v": 64
    },
    {
      "midi": 78,
      "hit": false,
      "t": 25660.68862500001,
      "d": 53.571374999999534,
      "v": 64
    },
    {
      "midi": 81,
      "hit": false,
      "t": 25715.15285625001,
      "d": 650.8922062500023,
      "v": 69
    },
    {
      "midi": 66,
      "hit": false,
      "t": 25941.93834375001,
      "d": 199.99980000000141,
      "v": 70
    },
    {
      "midi": 63,
      "hit": false,
      "t": 25941.93834375001,
      "d": 199.99980000000141,
      "v": 56
    },
    {
      "midi": 59,
      "hit": false,
      "t": 25941.93834375001,
      "d": 199.99980000000141,
      "v": 56
    },
    {
      "midi": 66,
      "hit": false,
      "t": 26366.045062500012,
      "d": 200.89265624999825,
      "v": 70
    },
    {
      "midi": 63,
      "hit": false,
      "t": 26366.045062500012,
      "d": 200.89265624999825,
      "v": 56
    },
    {
      "midi": 59,
      "hit": false,
      "t": 26366.045062500012,
      "d": 200.89265624999825,
      "v": 56
    },
    {
      "midi": 78,
      "hit": false,
      "t": 26366.045062500012,
      "d": 200.89265624999825,
      "v": 64
    },
    {
      "midi": 79,
      "hit": false,
      "t": 26579.43770625001,
      "d": 848.2134375000023,
      "v": 67
    },
    {
      "midi": 67,
      "hit": false,
      "t": 26792.83035000001,
      "d": 199.10694375000094,
      "v": 70
    },
    {
      "midi": 64,
      "hit": false,
      "t": 26792.83035000001,
      "d": 199.10694375000094,
      "v": 56
    },
    {
      "midi": 59,
      "hit": false,
      "t": 26792.83035000001,
      "d": 199.10694375000094,
      "v": 56
    },
    {
      "midi": 67,
      "hit": false,
      "t": 27216.04421250001,
      "d": 199.10694375000094,
      "v": 70
    },
    {
      "midi": 64,
      "hit": false,
      "t": 27216.04421250001,
      "d": 199.10694375000094,
      "v": 56
    },
    {
      "midi": 59,
      "hit": false,
      "t": 27216.04421250001,
      "d": 199.10694375000094,
      "v": 56
    },
    {
      "midi": 72,
      "hit": false,
      "t": 27656.22234375001,
      "d": 199.99980000000141,
      "v": 70
    },
    {
      "midi": 67,
      "hit": false,
      "t": 27656.22234375001,
      "d": 199.99980000000141,
      "v": 56
    },
    {
      "midi": 64,
      "hit": false,
      "t": 27656.22234375001,
      "d": 199.99980000000141,
      "v": 56
    },
    {
      "midi": 88,
      "hit": false,
      "t": 27656.22234375001,
      "d": 199.99980000000141,
      "v": 66
    },
    {
      "midi": 76,
      "hit": false,
      "t": 27656.22234375001,
      "d": 199.99980000000141,
      "v": 56
    },
    {
      "midi": 88,
      "hit": false,
      "t": 27869.614987500012,
      "d": 198.21408750000046,
      "v": 71
    },
    {
      "midi": 76,
      "hit": false,
      "t": 27869.614987500012,
      "d": 198.21408750000046,
      "v": 57
    },
    {
      "midi": 72,
      "hit": false,
      "t": 28080.32906250001,
      "d": 200.89265624999825,
      "v": 66
    },
    {
      "midi": 67,
      "hit": false,
      "t": 28080.32906250001,
      "d": 200.89265624999825,
      "v": 56
    },
    {
      "midi": 64,
      "hit": false,
      "t": 28080.32906250001,
      "d": 200.89265624999825,
      "v": 56
    },
    {
      "midi": 86,
      "hit": false,
      "t": 28080.32906250001,
      "d": 200.89265624999825,
      "v": 70
    },
    {
      "midi": 74,
      "hit": false,
      "t": 28080.32906250001,
      "d": 200.89265624999825,
      "v": 56
    },
    {
      "midi": 84,
      "hit": false,
      "t": 28293.72170625001,
      "d": 424.99957500000164,
      "v": 73
    },
    {
      "midi": 67,
      "hit": false,
      "t": 28507.11435000001,
      "d": 199.10694375000094,
      "v": 56
    },
    {
      "midi": 64,
      "hit": false,
      "t": 28507.11435000001,
      "d": 199.10694375000094,
      "v": 56
    },
    {
      "midi": 72,
      "hit": false,
      "t": 28507.11435000001,
      "d": 199.10694375000094,
      "v": 66
    },
    {
      "midi": 84,
      "hit": false,
      "t": 28718.72128125001,
      "d": 423.2138625000007,
      "v": 71
    },
    {
      "midi": 67,
      "hit": false,
      "t": 28930.32821250001,
      "d": 199.10694375000094,
      "v": 56
    },
    {
      "midi": 64,
      "hit": false,
      "t": 28930.32821250001,
      "d": 199.10694375000094,
      "v": 56
    },
    {
      "midi": 72,
      "hit": false,
      "t": 28930.32821250001,
      "d": 199.10694375000094,
      "v": 70
    },
    {
      "midi": 86,
      "hit": false,
      "t": 29143.720856250013,
      "d": 439.285275000002,
      "v": 75
    },
    {
      "midi": 74,
      "hit": false,
      "t": 29143.720856250013,
      "d": 439.285275000002,
      "v": 61
    },
    {
      "midi": 71,
      "hit": false,
      "t": 29370.506343750014,
      "d": 199.99980000000141,
      "v": 70
    },
    {
      "midi": 68,
      "hit": false,
      "t": 29370.506343750014,
      "d": 199.99980000000141,
      "v": 56
    },
    {
      "midi": 64,
      "hit": false,
      "t": 29370.506343750014,
      "d": 199.99980000000141,
      "v": 56
    },
    {
      "midi": 86,
      "hit": false,
      "t": 29583.898987500015,
      "d": 198.21408750000046,
      "v": 71
    },
    {
      "midi": 74,
      "hit": false,
      "t": 29583.898987500015,
      "d": 198.21408750000046,
      "v": 57
    },
    {
      "midi": 71,
      "hit": false,
      "t": 29794.613062500015,
      "d": 200.89265624999825,
      "v": 70
    },
    {
      "midi": 68,
      "hit": false,
      "t": 29794.613062500015,
      "d": 200.89265624999825,
      "v": 56
    },
    {
      "midi": 64,
      "hit": false,
      "t": 29794.613062500015,
      "d": 200.89265624999825,
      "v": 56
    },
    {
      "midi": 89,
      "hit": false,
      "t": 29794.613062500015,
      "d": 200.89265624999825,
      "v": 70
    },
    {
      "midi": 77,
      "hit": false,
      "t": 29794.613062500015,
      "d": 200.89265624999825,
      "v": 56
    },
    {
      "midi": 88,
      "hit": false,
      "t": 30008.005706250013,
      "d": 200.89265624999825,
      "v": 73
    },
    {
      "midi": 76,
      "hit": false,
      "t": 30008.005706250013,
      "d": 200.89265624999825,
      "v": 59
    },
    {
      "midi": 69,
      "hit": false,
      "t": 30221.39835000001,
      "d": 199.10694375000094,
      "v": 70
    },
    {
      "midi": 64,
      "hit": false,
      "t": 30221.39835000001,
      "d": 199.10694375000094,
      "v": 56
    },
    {
      "midi": 60,
      "hit": false,
      "t": 30221.39835000001,
      "d": 199.10694375000094,
      "v": 56
    },
    {
      "midi": 86,
      "hit": false,
      "t": 30221.39835000001,
      "d": 199.10694375000094,
      "v": 70
    },
    {
      "midi": 74,
      "hit": false,
      "t": 30221.39835000001,
      "d": 199.10694375000094,
      "v": 56
    },
    {
      "midi": 84,
      "hit": false,
      "t": 30433.00528125001,
      "d": 423.2138625000007,
      "v": 71
    },
    {
      "midi": 72,
      "hit": false,
      "t": 30433.00528125001,
      "d": 423.2138625000007,
      "v": 57
    },
    {
      "midi": 69,
      "hit": false,
      "t": 30644.61221250001,
      "d": 199.10694375000094,
      "v": 70
    },
    {
      "midi": 64,
      "hit": false,
      "t": 30644.61221250001,
      "d": 199.10694375000094,
      "v": 56
    },
    {
      "midi": 60,
      "hit": false,
      "t": 30644.61221250001,
      "d": 199.10694375000094,
      "v": 56
    },
    {
      "midi": 67,
      "hit": false,
      "t": 31084.79034375001,
      "d": 199.99980000000141,
      "v": 70
    },
    {
      "midi": 64,
      "hit": false,
      "t": 31084.79034375001,
      "d": 199.99980000000141,
      "v": 56
    },
    {
      "midi": 59,
      "hit": false,
      "t": 31084.79034375001,
      "d": 199.99980000000141,
      "v": 56
    },
    {
      "midi": 83,
      "hit": false,
      "t": 31084.79034375001,
      "d": 199.99980000000141,
      "v": 70
    },
    {
      "midi": 71,
      "hit": false,
      "t": 31084.79034375001,
      "d": 199.99980000000141,
      "v": 56
    },
    {
      "midi": 83,
      "hit": false,
      "t": 31298.18298750001,
      "d": 198.21408750000046,
      "v": 71
    },
    {
      "midi": 71,
      "hit": false,
      "t": 31298.18298750001,
      "d": 198.21408750000046,
      "v": 57
    },
    {
      "midi": 67,
      "hit": false,
      "t": 31508.89706250001,
      "d": 200.89265624999825,
      "v": 70
    },
    {
      "midi": 64,
      "hit": false,
      "t": 31508.89706250001,
      "d": 200.89265624999825,
      "v": 56
    },
    {
      "midi": 59,
      "hit": false,
      "t": 31508.89706250001,
      "d": 200.89265624999825,
      "v": 56
    },
    {
      "midi": 86,
      "hit": false,
      "t": 31508.89706250001,
      "d": 200.89265624999825,
      "v": 70
    },
    {
      "midi": 74,
      "hit": false,
      "t": 31508.89706250001,
      "d": 200.89265624999825,
      "v": 56
    },
    {
      "midi": 84,
      "hit": false,
      "t": 31722.28970625001,
      "d": 200.89265624999825,
      "v": 73
    },
    {
      "midi": 72,
      "hit": false,
      "t": 31722.28970625001,
      "d": 200.89265624999825,
      "v": 59
    },
    {
      "midi": 69,
      "hit": false,
      "t": 31935.682350000006,
      "d": 199.10694375000094,
      "v": 70
    },
    {
      "midi": 65,
      "hit": false,
      "t": 31935.682350000006,
      "d": 199.10694375000094,
      "v": 56
    },
    {
      "midi": 60,
      "hit": false,
      "t": 31935.682350000006,
      "d": 199.10694375000094,
      "v": 56
    },
    {
      "midi": 83,
      "hit": false,
      "t": 31935.682350000006,
      "d": 199.10694375000094,
      "v": 70
    },
    {
      "midi": 71,
      "hit": false,
      "t": 31935.682350000006,
      "d": 199.10694375000094,
      "v": 56
    },
    {
      "midi": 81,
      "hit": false,
      "t": 32147.289281250007,
      "d": 423.2138625000007,
      "v": 71
    },
    {
      "midi": 65,
      "hit": false,
      "t": 32358.896212500007,
      "d": 199.10694375000094,
      "v": 67
    },
    {
      "midi": 60,
      "hit": false,
      "t": 32358.896212500007,
      "d": 199.10694375000094,
      "v": 67
    },
    {
      "midi": 69,
      "hit": false,
      "t": 32358.896212500007,
      "d": 199.10694375000094,
      "v": 62
    },
    {
      "midi": 69,
      "hit": false,
      "t": 32799.074343750006,
      "d": 199.99979999999778,
      "v": 62
    },
    {
      "midi": 64,
      "hit": false,
      "t": 32799.074343750006,
      "d": 199.99979999999778,
      "v": 67
    },
    {
      "midi": 61,
      "hit": false,
      "t": 32799.074343750006,
      "d": 199.99979999999778,
      "v": 67
    },
    {
      "midi": 57,
      "hit": false,
      "t": 32799.074343750006,
      "d": 199.99979999999778,
      "v": 67
    },
    {
      "midi": 79,
      "hit": false,
      "t": 32799.074343750006,
      "d": 199.99979999999778,
      "v": 70
    },
    {
      "midi": 67,
      "hit": false,
      "t": 32799.074343750006,
      "d": 199.99979999999778,
      "v": 56
    },
    {
      "midi": 79,
      "hit": false,
      "t": 33012.4669875,
      "d": 198.21408749999682,
      "v": 71
    },
    {
      "midi": 67,
      "hit": false,
      "t": 33012.4669875,
      "d": 198.21408749999682,
      "v": 57
    },
    {
      "midi": 69,
      "hit": false,
      "t": 33223.1810625,
      "d": 200.89265624999825,
      "v": 70
    },
    {
      "midi": 64,
      "hit": false,
      "t": 33223.1810625,
      "d": 200.89265624999825,
      "v": 56
    },
    {
      "midi": 61,
      "hit": false,
      "t": 33223.1810625,
      "d": 200.89265624999825,
      "v": 56
    },
    {
      "midi": 57,
      "hit": false,
      "t": 33223.1810625,
      "d": 200.89265624999825,
      "v": 56
    },
    {
      "midi": 83,
      "hit": false,
      "t": 33223.1810625,
      "d": 200.89265624999825,
      "v": 70
    },
    {
      "midi": 71,
      "hit": false,
      "t": 33223.1810625,
      "d": 200.89265624999825,
      "v": 56
    },
    {
      "midi": 81,
      "hit": false,
      "t": 33436.57370625,
      "d": 424.99957499999437,
      "v": 73
    },
    {
      "midi": 69,
      "hit": false,
      "t": 33436.57370625,
      "d": 424.99957499999437,
      "v": 59
    },
    {
      "midi": 65,
      "hit": false,
      "t": 33649.966349999995,
      "d": 199.1069437499973,
      "v": 70
    },
    {
      "midi": 62,
      "hit": false,
      "t": 33649.966349999995,
      "d": 199.1069437499973,
      "v": 56
    },
    {
      "midi": 57,
      "hit": false,
      "t": 33649.966349999995,
      "d": 199.1069437499973,
      "v": 56
    },
    {
      "midi": 67,
      "hit": false,
      "t": 33861.57328124999,
      "d": 0,
      "v": 57
    }
  ]
}