{
  "jsonPath": "Rock/Rock-And-Roll/Elvis Presley/you-gave-me-a-mountain.json",
  "path": "Rock\\Rock-And-Roll\\Elvis Presley\\You Gave Me A Mountain.mid",
  "name": "You Gave Me A Mountain",
  "difficulty": "Advanced",
  "bpm": 120,
  "notes": [
    {
      "midi": 55,
      "hit": false,
      "t": 10000.001,
      "d": 250.00002499999937,
      "v": 46
    },
    {
      "midi": 57,
      "hit": false,
      "t": 10303.031333333332,
      "d": 287.87881666666726,
      "v": 60
    },
    {
      "midi": 59,
      "hit": false,
      "t": 10606.061666666666,
      "d": 303.03033333333406,
      "v": 43
    },
    {
      "midi": 67,
      "hit": false,
      "t": 10909.092,
      "d": 454.5455000000002,
      "v": 43
    },
    {
      "midi": 64,
      "hit": false,
      "t": 10909.092,
      "d": 757.5758333333324,
      "v": 39
    },
    {
      "midi": 60,
      "hit": false,
      "t": 10931.819275,
      "d": 765.1515916666667,
      "v": 63
    },
    {
      "midi": 67,
      "hit": false,
      "t": 11515.152666666667,
      "d": 257.5757833333337,
      "v": 53
    },
    {
      "midi": 72,
      "hit": false,
      "t": 11818.183,
      "d": 719.6970416666663,
      "v": 80
    },
    {
      "midi": 67,
      "hit": false,
      "t": 11840.910275,
      "d": 742.4243166666674,
      "v": 53
    },
    {
      "midi": 67,
      "hit": false,
      "t": 12727.274000000001,
      "d": 886.3637249999992,
      "v": 61
    },
    {
      "midi": 59,
      "hit": false,
      "t": 12727.274000000001,
      "d": 901.515241666666,
      "v": 63
    },
    {
      "midi": 74,
      "hit": false,
      "t": 13636.365,
      "d": 454.5455000000002,
      "v": 70
    },
    {
      "midi": 79,
      "hit": false,
      "t": 13636.365,
      "d": 500.00005000000056,
      "v": 62
    },
    {
      "midi": 57,
      "hit": false,
      "t": 14545.456,
      "d": 1045.4546499999997,
      "v": 53
    },
    {
      "midi": 60,
      "hit": false,
      "t": 14545.456,
      "d": 1083.3334416666657,
      "v": 52
    },
    {
      "midi": 72,
      "hit": false,
      "t": 14848.486333333334,
      "d": 272.72730000000047,
      "v": 53
    },
    {
      "midi": 64,
      "hit": false,
      "t": 15151.516666666668,
      "d": 234.84850833333257,
      "v": 43
    },
    {
      "midi": 69,
      "hit": false,
      "t": 15454.547,
      "d": 257.57578333333186,
      "v": 65
    },
    {
      "midi": 72,
      "hit": false,
      "t": 15454.547,
      "d": 446.96974166666587,
      "v": 64
    },
    {
      "midi": 69,
      "hit": false,
      "t": 15787.880366666666,
      "d": 356.0606416666669,
      "v": 37
    },
    {
      "midi": 64,
      "hit": false,
      "t": 16060.607666666667,
      "d": 363.6363999999994,
      "v": 47
    },
    {
      "midi": 69,
      "hit": false,
      "t": 16363.637999999999,
      "d": 363.6363999999994,
      "v": 57
    },
    {
      "midi": 57,
      "hit": false,
      "t": 16363.637999999999,
      "d": 1553.030458333331,
      "v": 64
    },
    {
      "midi": 60,
      "hit": false,
      "t": 16363.637999999999,
      "d": 1560.6062166666634,
      "v": 41
    },
    {
      "midi": 72,
      "hit": false,
      "t": 16666.66833333333,
      "d": 333.3333666666658,
      "v": 59
    },
    {
      "midi": 76,
      "hit": false,
      "t": 16969.698666666663,
      "d": 356.0606416666669,
      "v": 72
    },
    {
      "midi": 72,
      "hit": false,
      "t": 17272.728999999996,
      "d": 318.18185000000085,
      "v": 58
    },
    {
      "midi": 69,
      "hit": false,
      "t": 17575.75933333333,
      "d": 265.15154166666616,
      "v": 53
    },
    {
      "midi": 64,
      "hit": false,
      "t": 17878.789666666664,
      "d": 250.00002499999755,
      "v": 55
    },
    {
      "midi": 57,
      "hit": false,
      "t": 18181.819999999996,
      "d": 583.333391666667,
      "v": 26
    },
    {
      "midi": 60,
      "hit": false,
      "t": 18181.819999999996,
      "d": 643.9394583333342,
      "v": 32
    },
    {
      "midi": 65,
      "hit": false,
      "t": 18181.819999999996,
      "d": 681.8182500000003,
      "v": 50
    },
    {
      "midi": 74,
      "hit": false,
      "t": 18787.880666666664,
      "d": 303.03033333333224,
      "v": 53
    },
    {
      "midi": 81,
      "hit": false,
      "t": 19090.910999999996,
      "d": 371.2121583333319,
      "v": 58
    },
    {
      "midi": 60,
      "hit": false,
      "t": 19090.910999999996,
      "d": 689.3940083333291,
      "v": 34
    },
    {
      "midi": 77,
      "hit": false,
      "t": 19393.94133333333,
      "d": 310.6060916666647,
      "v": 51
    },
    {
      "midi": 72,
      "hit": false,
      "t": 19696.97166666666,
      "d": 212.12123333333147,
      "v": 64
    },
    {
      "midi": 72,
      "hit": false,
      "t": 20000.001999999993,
      "d": 204.545474999999,
      "v": 61
    },
    {
      "midi": 65,
      "hit": false,
      "t": 20000.001999999993,
      "d": 659.0909749999992,
      "v": 36
    },
    {
      "midi": 57,
      "hit": false,
      "t": 20000.001999999993,
      "d": 681.8182500000003,
      "v": 56
    },
    {
      "midi": 60,
      "hit": false,
      "t": 20000.001999999993,
      "d": 734.848558333335,
      "v": 30
    },
    {
      "midi": 69,
      "hit": false,
      "t": 20303.032333333325,
      "d": 272.72729999999865,
      "v": 53
    },
    {
      "midi": 72,
      "hit": false,
      "t": 20606.062666666658,
      "d": 325.757608333337,
      "v": 53
    },
    {
      "midi": 81,
      "hit": false,
      "t": 20909.092999999993,
      "d": 340.90912500000195,
      "v": 60
    },
    {
      "midi": 60,
      "hit": false,
      "t": 20909.092999999993,
      "d": 757.575833333336,
      "v": 49
    },
    {
      "midi": 77,
      "hit": false,
      "t": 21212.12333333333,
      "d": 234.84850833333257,
      "v": 45
    },
    {
      "midi": 72,
      "hit": false,
      "t": 21515.15366666666,
      "d": 204.54547500000263,
      "v": 57
    },
    {
      "midi": 72,
      "hit": false,
      "t": 21818.183999999997,
      "d": 340.9091249999983,
      "v": 75
    },
    {
      "midi": 56,
      "hit": false,
      "t": 21818.183999999997,
      "d": 643.9394583333305,
      "v": 50
    },
    {
      "midi": 60,
      "hit": false,
      "t": 21818.183999999997,
      "d": 651.515216666663,
      "v": 44
    },
    {
      "midi": 68,
      "hit": false,
      "t": 22121.21433333333,
      "d": 325.75760833333334,
      "v": 65
    },
    {
      "midi": 63,
      "hit": false,
      "t": 22424.244666666662,
      "d": 303.03033333333224,
      "v": 50
    },
    {
      "midi": 72,
      "hit": false,
      "t": 22727.274999999994,
      "d": 310.6060916666647,
      "v": 72
    },
    {
      "midi": 60,
      "hit": false,
      "t": 22727.274999999994,
      "d": 704.5455249999977,
      "v": 40
    },
    {
      "midi": 56,
      "hit": false,
      "t": 22727.274999999994,
      "d": 727.2727999999988,
      "v": 51
    },
    {
      "midi": 63,
      "hit": false,
      "t": 23030.305333333326,
      "d": 310.6060916666647,
      "v": 51
    },
    {
      "midi": 72,
      "hit": false,
      "t": 23333.33566666666,
      "d": 272.7273000000023,
      "v": 62
    },
    {
      "midi": 71,
      "hit": false,
      "t": 23636.365999999995,
      "d": 393.939433333333,
      "v": 74
    },
    {
      "midi": 55,
      "hit": false,
      "t": 23636.365999999995,
      "d": 674.2424916666678,
      "v": 51
    },
    {
      "midi": 59,
      "hit": false,
      "t": 23636.365999999995,
      "d": 681.8182500000003,
      "v": 51
    },
    {
      "midi": 67,
      "hit": false,
      "t": 23939.396333333327,
      "d": 386.3636750000005,
      "v": 67
    },
    {
      "midi": 62,
      "hit": false,
      "t": 24242.426666666663,
      "d": 272.72729999999865,
      "v": 48
    },
    {
      "midi": 74,
      "hit": false,
      "t": 24545.456999999995,
      "d": 340.9091249999983,
      "v": 63
    },
    {
      "midi": 55,
      "hit": false,
      "t": 24545.456999999995,
      "d": 651.515216666663,
      "v": 51
    },
    {
      "midi": 59,
      "hit": false,
      "t": 24545.456999999995,
      "d": 681.8182499999966,
      "v": 51
    },
    {
      "midi": 71,
      "hit": false,
      "t": 24848.487333333327,
      "d": 287.87881666666726,
      "v": 60
    },
    {
      "midi": 67,
      "hit": false,
      "t": 25151.51766666666,
      "d": 310.6060916666647,
      "v": 45
    },
    {
      "midi": 64,
      "hit": false,
      "t": 25454.54799999999,
      "d": 386.3636750000005,
      "v": 53
    },
    {
      "midi": 48,
      "hit": false,
      "t": 25454.54799999999,
      "d": 757.575833333336,
      "v": 47
    },
    {
      "midi": 52,
      "hit": false,
      "t": 25454.54799999999,
      "d": 1477.2728750000024,
      "v": 50
    },
    {
      "midi": 55,
      "hit": false,
      "t": 25454.54799999999,
      "d": 1477.2728750000024,
      "v": 49
    },
    {
      "midi": 67,
      "hit": false,
      "t": 25757.578333333324,
      "d": 583.3333916666707,
      "v": 49
    },
    {
      "midi": 72,
      "hit": false,
      "t": 26060.60866666666,
      "d": 378.787916666668,
      "v": 49
    },
    {
      "midi": 76,
      "hit": false,
      "t": 26363.638999999996,
      "d": 310.6060916666647,
      "v": 55
    },
    {
      "midi": 48,
      "hit": false,
      "t": 26363.638999999996,
      "d": 757.5758333333324,
      "v": 47
    },
    {
      "midi": 72,
      "hit": false,
      "t": 26666.669333333328,
      "d": 371.2121583333319,
      "v": 51
    },
    {
      "midi": 67,
      "hit": false,
      "t": 26969.69966666666,
      "d": 318.18185000000085,
      "v": 57
    },
    {
      "midi": 64,
      "hit": false,
      "t": 27272.729999999996,
      "d": 409.090949999998,
      "v": 52
    },
    {
      "midi": 52,
      "hit": false,
      "t": 27272.729999999996,
      "d": 795.4546249999985,
      "v": 39
    },
    {
      "midi": 48,
      "hit": false,
      "t": 27272.729999999996,
      "d": 1598.4850083333295,
      "v": 45
    },
    {
      "midi": 55,
      "hit": false,
      "t": 27272.729999999996,
      "d": 1696.9698666666627,
      "v": 40
    },
    {
      "midi": 67,
      "hit": false,
      "t": 27575.760333333328,
      "d": 439.39398333333156,
      "v": 51
    },
    {
      "midi": 72,
      "hit": false,
      "t": 27878.79066666666,
      "d": 378.7879166666644,
      "v": 55
    },
    {
      "midi": 76,
      "hit": false,
      "t": 28181.820999999993,
      "d": 333.3333666666658,
      "v": 56
    },
    {
      "midi": 52,
      "hit": false,
      "t": 28181.820999999993,
      "d": 795.4546249999985,
      "v": 39
    },
    {
      "midi": 72,
      "hit": false,
      "t": 28484.851333333325,
      "d": 333.3333666666658,
      "v": 63
    },
    {
      "midi": 67,
      "hit": false,
      "t": 28787.881666666657,
      "d": 280.3030583333348,
      "v": 49
    },
    {
      "midi": 64,
      "hit": false,
      "t": 29090.911999999993,
      "d": 386.3636750000005,
      "v": 53
    },
    {
      "midi": 48,
      "hit": false,
      "t": 29090.911999999993,
      "d": 757.575833333336,
      "v": 47
    },
    {
      "midi": 52,
      "hit": false,
      "t": 29090.911999999993,
      "d": 1477.2728750000024,
      "v": 50
    },
    {
      "midi": 57,
      "hit": false,
      "t": 29090.911999999993,
      "d": 1477.2728750000024,
      "v": 49
    },
    {
      "midi": 69,
      "hit": false,
      "t": 29393.942333333325,
      "d": 583.3333916666707,
      "v": 49
    },
    {
      "midi": 72,
      "hit": false,
      "t": 29696.97266666666,
      "d": 378.787916666668,
      "v": 49
    },
    {
      "midi": 76,
      "hit": false,
      "t": 30000.002999999997,
      "d": 310.6060916666647,
      "v": 55
    },
    {
      "midi": 48,
      "hit": false,
      "t": 30000.002999999997,
      "d": 757.5758333333324,
      "v": 47
    },
    {
      "midi": 72,
      "hit": false,
      "t": 30303.03333333333,
      "d": 371.2121583333319,
      "v": 51
    },
    {
      "midi": 67,
      "hit": false,
      "t": 30606.06366666666,
      "d": 318.18185000000085,
      "v": 57
    },
    {
      "midi": 64,
      "hit": false,
      "t": 30909.093999999997,
      "d": 409.090949999998,
      "v": 52
    },
    {
      "midi": 52,
      "hit": false,
      "t": 30909.093999999997,
      "d": 795.4546249999985,
      "v": 39
    },
    {
      "midi": 48,
      "hit": false,
      "t": 30909.093999999997,
      "d": 1598.4850083333295,
      "v": 45
    },
    {
      "midi": 57,
      "hit": false,
      "t": 30909.093999999997,
      "d": 1696.9698666666627,
      "v": 40
    },
    {
      "midi": 69,
      "hit": false,
      "t": 31212.12433333333,
      "d": 439.39398333333156,
      "v": 51
    },
    {
      "midi": 72,
      "hit": false,
      "t": 31515.15466666666,
      "d": 378.7879166666644,
      "v": 55
    },
    {
      "midi": 76,
      "hit": false,
      "t": 31818.184999999994,
      "d": 333.3333666666658,
      "v": 56
    },
    {
      "midi": 52,
      "hit": false,
      "t": 31818.184999999994,
      "d": 795.4546249999985,
      "v": 39
    },
    {
      "midi": 72,
      "hit": false,
      "t": 32121.215333333326,
      "d": 333.3333666666658,
      "v": 63
    },
    {
      "midi": 69,
      "hit": false,
      "t": 32424.24566666666,
      "d": 280.3030583333348,
      "v": 49
    },
    {
      "midi": 65,
      "hit": false,
      "t": 32727.275999999994,
      "d": 386.3636749999969,
      "v": 53
    },
    {
      "midi": 50,
      "hit": false,
      "t": 32727.275999999994,
      "d": 757.5758333333251,
      "v": 47
    },
    {
      "midi": 53,
      "hit": false,
      "t": 32727.275999999994,
      "d": 1477.2728749999842,
      "v": 50
    },
    {
      "midi": 57,
      "hit": false,
      "t": 32727.275999999994,
      "d": 1477.2728749999842,
      "v": 49
    },
    {
      "midi": 69,
      "hit": false,
      "t": 33030.30633333333,
      "d": 583.3333916666597,
      "v": 49
    },
    {
      "midi": 74,
      "hit": false,
      "t": 33333.336666666655,
      "d": 378.78791666666075,
      "v": 49
    },
    {
      "midi": 77,
      "hit": false,
      "t": 33636.366999999984,
      "d": 310.6060916666611,
      "v": 55
    },
    {
      "midi": 50,
      "hit": false,
      "t": 33636.366999999984,
      "d": 757.5758333333288,
      "v": 47
    },
    {
      "midi": 74,
      "hit": false,
      "t": 33939.39733333331,
      "d": 371.21215833333554,
      "v": 51
    },
    {
      "midi": 69,
      "hit": false,
      "t": 34242.42766666665,
      "d": 318.1818499999936,
      "v": 57
    },
    {
      "midi": 65,
      "hit": false,
      "t": 34545.45799999998,
      "d": 409.090949999998,
      "v": 52
    },
    {
      "midi": 53,
      "hit": false,
      "t": 34545.45799999998,
      "d": 795.4546249999985,
      "v": 39
    },
    {
      "midi": 50,
      "hit": false,
      "t": 34545.45799999998,
      "d": 1598.4850083333222,
      "v": 45
    },
    {
      "midi": 57,
      "hit": false,
      "t": 34545.45799999998,
      "d": 1696.969866666659,
      "v": 40
    },
    {
      "midi": 69,
      "hit": false,
      "t": 34848.488333333305,
      "d": 439.3939833333352,
      "v": 51
    },
    {
      "midi": 74,
      "hit": false,
      "t": 35151.51866666664,
      "d": 378.787916666668,
      "v": 55
    },
    {
      "midi": 77,
      "hit": false,
      "t": 35454.54899999998,
      "d": 333.33336666665855,
      "v": 56
    },
    {
      "midi": 53,
      "hit": false,
      "t": 35454.54899999998,
      "d": 795.4546249999912,
      "v": 39
    },
    {
      "midi": 74,
      "hit": false,
      "t": 35757.579333333306,
      "d": 333.33336666665855,
      "v": 63
    },
    {
      "midi": 69,
      "hit": false,
      "t": 36060.609666666634,
      "d": 280.30305833333114,
      "v": 49
    },
    {
      "midi": 62,
      "hit": false,
      "t": 36363.63999999996,
      "d": 386.3636750000005,
      "v": 53
    },
    {
      "midi": 47,
      "hit": false,
      "t": 36363.63999999996,
      "d": 757.5758333333288,
      "v": 47
    },
    {
      "midi": 50,
      "hit": false,
      "t": 36363.63999999996,
      "d": 1477.2728749999878,
      "v": 50
    },
    {
      "midi": 55,
      "hit": false,
      "t": 36363.63999999996,
      "d": 1477.2728749999878,
      "v": 49
    },
    {
      "midi": 67,
      "hit": false,
      "t": 36666.6703333333,
      "d": 583.3333916666597,
      "v": 49
    },
    {
      "midi": 71,
      "hit": false,
      "t": 36969.70066666663,
      "d": 378.78791666666075,
      "v": 49
    },
    {
      "midi": 74,
      "hit": false,
      "t": 37272.730999999956,
      "d": 310.6060916666611,
      "v": 55
    },
    {
      "midi": 47,
      "hit": false,
      "t": 37272.730999999956,
      "d": 757.5758333333288,
      "v": 47
    },
    {
      "midi": 71,
      "hit": false,
      "t": 37575.761333333285,
      "d": 371.21215833333554,
      "v": 51
    },
    {
      "midi": 67,
      "hit": false,
      "t": 37878.79166666662,
      "d": 318.1818499999936,
      "v": 57
    },
    {
      "midi": 62,
      "hit": false,
      "t": 38181.82199999995,
      "d": 409.090949999998,
      "v": 52
    },
    {
      "midi": 50,
      "hit": false,
      "t": 38181.82199999995,
      "d": 795.4546249999985,
      "v": 39
    },
    {
      "midi": 47,
      "hit": false,
      "t": 38181.82199999995,
      "d": 1598.4850083333222,
      "v": 45
    },
    {
      "midi": 55,
      "hit": false,
      "t": 38181.82199999995,
      "d": 1696.969866666659,
      "v": 40
    },
    {
      "midi": 67,
      "hit": false,
      "t": 38484.85233333328,
      "d": 439.3939833333352,
      "v": 51
    },
    {
      "midi": 71,
      "hit": false,
      "t": 38787.882666666614,
      "d": 378.787916666668,
      "v": 55
    },
    {
      "midi": 74,
      "hit": false,
      "t": 39090.91299999995,
      "d": 333.33336666665855,
      "v": 56
    },
    {
      "midi": 50,
      "hit": false,
      "t": 39090.91299999995,
      "d": 795.4546249999912,
      "v": 39
    },
    {
      "midi": 71,
      "hit": false,
      "t": 39393.94333333328,
      "d": 333.33336666665855,
      "v": 63
    },
    {
      "midi": 67,
      "hit": false,
      "t": 39696.97366666661,
      "d": 280.30305833333114,
      "v": 49
    },
    {
      "midi": 64,
      "hit": false,
      "t": 40000.003999999935,
      "d": 386.3636750000005,
      "v": 53
    },
    {
      "midi": 48,
      "hit": false,
      "t": 40000.003999999935,
      "d": 757.5758333333288,
      "v": 47
    },
    {
      "midi": 52,
      "hit": false,
      "t": 40000.003999999935,
      "d": 1477.2728749999878,
      "v": 50
    },
    {
      "midi": 55,
      "hit": false,
      "t": 40000.003999999935,
      "d": 1477.2728749999878,
      "v": 49
    },
    {
      "midi": 67,
      "hit": false,
      "t": 40303.03433333327,
      "d": 583.3333916666597,
      "v": 49
    },
    {
      "midi": 72,
      "hit": false,
      "t": 40606.0646666666,
      "d": 378.78791666666075,
      "v": 49
    },
    {
      "midi": 76,
      "hit": false,
      "t": 40909.09499999993,
      "d": 310.6060916666611,
      "v": 55
    },
    {
      "midi": 48,
      "hit": false,
      "t": 40909.09499999993,
      "d": 757.5758333333288,
      "v": 47
    },
    {
      "midi": 72,
      "hit": false,
      "t": 41212.12533333326,
      "d": 371.21215833333554,
      "v": 51
    },
    {
      "midi": 67,
      "hit": false,
      "t": 41515.15566666659,
      "d": 318.1818499999936,
      "v": 57
    },
    {
      "midi": 64,
      "hit": false,
      "t": 41818.18599999992,
      "d": 409.090949999998,
      "v": 52
    },
    {
      "midi": 52,
      "hit": false,
      "t": 41818.18599999992,
      "d": 795.4546249999985,
      "v": 39
    },
    {
      "midi": 48,
      "hit": false,
      "t": 41818.18599999992,
      "d": 1598.4850083333222,
      "v": 45
    },
    {
      "midi": 55,
      "hit": false,
      "t": 41818.18599999992,
      "d": 1696.969866666659,
      "v": 40
    },
    {
      "midi": 67,
      "hit": false,
      "t": 42121.21633333325,
      "d": 439.3939833333352,
      "v": 51
    },
    {
      "midi": 72,
      "hit": false,
      "t": 42424.246666666586,
      "d": 378.787916666668,
      "v": 55
    },
    {
      "midi": 76,
      "hit": false,
      "t": 42727.27699999992,
      "d": 333.33336666665855,
      "v": 56
    },
    {
      "midi": 52,
      "hit": false,
      "t": 42727.27699999992,
      "d": 795.4546249999912,
      "v": 39
    },
    {
      "midi": 72,
      "hit": false,
      "t": 43030.30733333325,
      "d": 333.33336666665855,
      "v": 63
    },
    {
      "midi": 67,
      "hit": false,
      "t": 43333.33766666658,
      "d": 280.30305833333114,
      "v": 49
    },
    {
      "midi": 64,
      "hit": false,
      "t": 43636.36799999991,
      "d": 386.3636750000005,
      "v": 53
    },
    {
      "midi": 48,
      "hit": false,
      "t": 43636.36799999991,
      "d": 757.5758333333288,
      "v": 47
    },
    {
      "midi": 52,
      "hit": false,
      "t": 43636.36799999991,
      "d": 1477.2728749999878,
      "v": 50
    },
    {
      "midi": 57,
      "hit": false,
      "t": 43636.36799999991,
      "d": 1477.2728749999878,
      "v": 49
    },
    {
      "midi": 69,
      "hit": false,
      "t": 43939.39833333324,
      "d": 583.3333916666597,
      "v": 49
    },
    {
      "midi": 72,
      "hit": false,
      "t": 44242.42866666657,
      "d": 378.78791666666075,
      "v": 49
    },
    {
      "midi": 76,
      "hit": false,
      "t": 44545.4589999999,
      "d": 310.6060916666611,
      "v": 55
    },
    {
      "midi": 48,
      "hit": false,
      "t": 44545.4589999999,
      "d": 757.5758333333288,
      "v": 47
    },
    {
      "midi": 72,
      "hit": false,
      "t": 44848.48933333323,
      "d": 371.21215833333554,
      "v": 51
    },
    {
      "midi": 67,
      "hit": false,
      "t": 45151.519666666565,
      "d": 318.1818499999936,
      "v": 57
    },
    {
      "midi": 64,
      "hit": false,
      "t": 45454.549999999894,
      "d": 409.090949999998,
      "v": 52
    },
    {
      "midi": 52,
      "hit": false,
      "t": 45454.549999999894,
      "d": 795.4546249999985,
      "v": 39
    },
    {
      "midi": 48,
      "hit": false,
      "t": 45454.549999999894,
      "d": 1598.4850083333295,
      "v": 45
    },
    {
      "midi": 57,
      "hit": false,
      "t": 45454.549999999894,
      "d": 1696.9698666666663,
      "v": 40
    },
    {
      "midi": 69,
      "hit": false,
      "t": 45757.58033333322,
      "d": 439.3939833333352,
      "v": 51
    },
    {
      "midi": 72,
      "hit": false,
      "t": 46060.61066666656,
      "d": 378.787916666668,
      "v": 55
    },
    {
      "midi": 76,
      "hit": false,
      "t": 46363.640999999894,
      "d": 333.33336666665855,
      "v": 56
    },
    {
      "midi": 52,
      "hit": false,
      "t": 46363.640999999894,
      "d": 795.4546249999985,
      "v": 39
    },
    {
      "midi": 83,
      "hit": false,
      "t": 46666.67133333322,
      "d": 265.15154166666616,
      "v": 67
    },
    {
      "midi": 72,
      "hit": false,
      "t": 46666.67133333322,
      "d": 333.3333666666658,
      "v": 63
    },
    {
      "midi": 69,
      "hit": false,
      "t": 46969.70166666656,
      "d": 280.30305833333114,
      "v": 49
    },
    {
      "midi": 84,
      "hit": false,
      "t": 46969.70166666656,
      "d": 280.30305833333114,
      "v": 66
    },
    {
      "midi": 65,
      "hit": false,
      "t": 47272.73199999989,
      "d": 386.3636750000005,
      "v": 53
    },
    {
      "midi": 81,
      "hit": false,
      "t": 47272.73199999989,
      "d": 462.12125833333266,
      "v": 53
    },
    {
      "midi": 50,
      "hit": false,
      "t": 47272.73199999989,
      "d": 757.5758333333288,
      "v": 47
    },
    {
      "midi": 53,
      "hit": false,
      "t": 47272.73199999989,
      "d": 1477.2728749999878,
      "v": 50
    },
    {
      "midi": 57,
      "hit": false,
      "t": 47272.73199999989,
      "d": 1477.2728749999878,
      "v": 49
    },
    {
      "midi": 69,
      "hit": false,
      "t": 47575.76233333322,
      "d": 583.3333916666597,
      "v": 49
    },
    {
      "midi": 74,
      "hit": false,
      "t": 47878.79266666655,
      "d": 378.78791666666075,
      "v": 49
    },
    {
      "midi": 77,
      "hit": false,
      "t": 48181.82299999988,
      "d": 310.6060916666611,
      "v": 55
    },
    {
      "midi": 50,
      "hit": false,
      "t": 48181.82299999988,
      "d": 757.5758333333288,
      "v": 47
    },
    {
      "midi": 74,
      "hit": false,
      "t": 48484.85333333321,
      "d": 371.21215833333554,
      "v": 51
    },
    {
      "midi": 69,
      "hit": false,
      "t": 48787.883666666545,
      "d": 318.1818499999936,
      "v": 57
    },
    {
      "midi": 65,
      "hit": false,
      "t": 49090.91399999987,
      "d": 409.090949999998,
      "v": 52
    },
    {
      "midi": 53,
      "hit": false,
      "t": 49090.91399999987,
      "d": 795.4546249999985,
      "v": 39
    },
    {
      "midi": 50,
      "hit": false,
      "t": 49090.91399999987,
      "d": 1598.4850083333222,
      "v": 45
    },
    {
      "midi": 57,
      "hit": false,
      "t": 49090.91399999987,
      "d": 1696.969866666659,
      "v": 40
    },
    {
      "midi": 69,
      "hit": false,
      "t": 49393.9443333332,
      "d": 439.3939833333352,
      "v": 51
    },
    {
      "midi": 74,
      "hit": false,
      "t": 49696.97466666654,
      "d": 378.787916666668,
      "v": 55
    },
    {
      "midi": 77,
      "hit": false,
      "t": 50000.004999999874,
      "d": 333.33336666665855,
      "v": 56
    },
    {
      "midi": 53,
      "hit": false,
      "t": 50000.004999999874,
      "d": 795.4546249999912,
      "v": 39
    },
    {
      "midi": 74,
      "hit": false,
      "t": 50303.0353333332,
      "d": 333.33336666665855,
      "v": 63
    },
    {
      "midi": 69,
      "hit": false,
      "t": 50606.06566666653,
      "d": 280.30305833333114,
      "v": 49
    },
    {
      "midi": 62,
      "hit": false,
      "t": 50909.09599999986,
      "d": 386.3636750000005,
      "v": 53
    },
    {
      "midi": 47,
      "hit": false,
      "t": 50909.09599999986,
      "d": 757.5758333333288,
      "v": 47
    },
    {
      "midi": 50,
      "hit": false,
      "t": 50909.09599999986,
      "d": 1477.2728749999878,
      "v": 50
    },
    {
      "midi": 55,
      "hit": false,
      "t": 50909.09599999986,
      "d": 1477.2728749999878,
      "v": 49
    },
    {
      "midi": 67,
      "hit": false,
      "t": 51212.126333333195,
      "d": 583.3333916666597,
      "v": 49
    },
    {
      "midi": 71,
      "hit": false,
      "t": 51515.156666666524,
      "d": 378.78791666666075,
      "v": 49
    },
    {
      "midi": 74,
      "hit": false,
      "t": 51818.18699999985,
      "d": 310.6060916666611,
      "v": 55
    },
    {
      "midi": 47,
      "hit": false,
      "t": 51818.18699999985,
      "d": 757.5758333333288,
      "v": 47
    },
    {
      "midi": 71,
      "hit": false,
      "t": 52121.21733333318,
      "d": 371.21215833333554,
      "v": 51
    },
    {
      "midi": 67,
      "hit": false,
      "t": 52424.24766666652,
      "d": 318.1818499999936,
      "v": 57
    },
    {
      "midi": 62,
      "hit": false,
      "t": 52727.277999999846,
      "d": 409.090949999998,
      "v": 52
    },
    {
      "midi": 50,
      "hit": false,
      "t": 52727.277999999846,
      "d": 795.4546249999985,
      "v": 39
    },
    {
      "midi": 47,
      "hit": false,
      "t": 52727.277999999846,
      "d": 1598.4850083333222,
      "v": 45
    },
    {
      "midi": 55,
      "hit": false,
      "t": 52727.277999999846,
      "d": 1696.969866666659,
      "v": 40
    },
    {
      "midi": 67,
      "hit": false,
      "t": 53030.308333333174,
      "d": 439.3939833333352,
      "v": 51
    },
    {
      "midi": 71,
      "hit": false,
      "t": 53333.33866666651,
      "d": 378.787916666668,
      "v": 55
    },
    {
      "midi": 74,
      "hit": false,
      "t": 53636.368999999846,
      "d": 333.33336666665855,
      "v": 56
    },
    {
      "midi": 50,
      "hit": false,
      "t": 53636.368999999846,
      "d": 795.4546249999912,
      "v": 39
    },
    {
      "midi": 79,
      "hit": false,
      "t": 53939.399333333175,
      "d": 280.30305833333114,
      "v": 64
    },
    {
      "midi": 71,
      "hit": false,
      "t": 53939.399333333175,
      "d": 333.33336666665855,
      "v": 63
    },
    {
      "midi": 77,
      "hit": false,
      "t": 54242.4296666665,
      "d": 234.8485083333362,
      "v": 48
    },
    {
      "midi": 67,
      "hit": false,
      "t": 54242.4296666665,
      "d": 280.3030583333384,
      "v": 49
    },
    {
      "midi": 76,
      "hit": false,
      "t": 54545.45999999984,
      "d": 477.2727750000049,
      "v": 57
    },
    {
      "midi": 48,
      "hit": false,
      "t": 54545.45999999984,
      "d": 757.575833333336,
      "v": 47
    },
    {
      "midi": 52,
      "hit": false,
      "t": 54545.45999999984,
      "d": 1477.272874999995,
      "v": 50
    },
    {
      "midi": 55,
      "hit": false,
      "t": 54545.45999999984,
      "d": 1477.272874999995,
      "v": 49
    },
    {
      "midi": 79,
      "hit": false,
      "t": 54848.490333333175,
      "d": 583.333391666667,
      "v": 49
    },
    {
      "midi": 84,
      "hit": false,
      "t": 55151.52066666651,
      "d": 378.78791666666075,
      "v": 49
    },
    {
      "midi": 88,
      "hit": false,
      "t": 55454.55099999984,
      "d": 310.6060916666611,
      "v": 55
    },
    {
      "midi": 48,
      "hit": false,
      "t": 55454.55099999984,
      "d": 757.5758333333288,
      "v": 47
    },
    {
      "midi": 84,
      "hit": false,
      "t": 55757.58133333317,
      "d": 371.21215833333554,
      "v": 51
    },
    {
      "midi": 79,
      "hit": false,
      "t": 56060.611666666504,
      "d": 318.1818499999936,
      "v": 57
    },
    {
      "midi": 76,
      "hit": false,
      "t": 56363.64199999983,
      "d": 409.090949999998,
      "v": 52
    },
    {
      "midi": 52,
      "hit": false,
      "t": 56363.64199999983,
      "d": 795.4546249999985,
      "v": 39
    },
    {
      "midi": 48,
      "hit": false,
      "t": 56363.64199999983,
      "d": 1598.4850083333222,
      "v": 45
    },
    {
      "midi": 55,
      "hit": false,
      "t": 56363.64199999983,
      "d": 1696.969866666659,
      "v": 40
    },
    {
      "midi": 79,
      "hit": false,
      "t": 56666.67233333316,
      "d": 439.3939833333352,
      "v": 51
    },
    {
      "midi": 84,
      "hit": false,
      "t": 56969.7026666665,
      "d": 378.787916666668,
      "v": 55
    },
    {
      "midi": 88,
      "hit": false,
      "t": 57272.73299999983,
      "d": 333.33336666665855,
      "v": 56
    },
    {
      "midi": 52,
      "hit": false,
      "t": 57272.73299999983,
      "d": 795.4546249999912,
      "v": 39
    },
    {
      "midi": 84,
      "hit": false,
      "t": 57575.76333333316,
      "d": 333.33336666665855,
      "v": 63
    },
    {
      "midi": 79,
      "hit": false,
      "t": 57878.79366666649,
      "d": 280.30305833333114,
      "v": 49
    },
    {
      "midi": 76,
      "hit": false,
      "t": 58181.82399999982,
      "d": 386.3636750000005,
      "v": 53
    },
    {
      "midi": 48,
      "hit": false,
      "t": 58181.82399999982,
      "d": 757.5758333333288,
      "v": 47
    },
    {
      "midi": 52,
      "hit": false,
      "t": 58181.82399999982,
      "d": 1477.2728749999878,
      "v": 50
    },
    {
      "midi": 57,
      "hit": false,
      "t": 58181.82399999982,
      "d": 1477.2728749999878,
      "v": 49
    },
    {
      "midi": 81,
      "hit": false,
      "t": 58484.854333333154,
      "d": 583.3333916666597,
      "v": 49
    },
    {
      "midi": 84,
      "hit": false,
      "t": 58787.88466666648,
      "d": 378.78791666666075,
      "v": 49
    },
    {
      "midi": 88,
      "hit": false,
      "t": 59090.91499999981,
      "d": 310.6060916666611,
      "v": 55
    },
    {
      "midi": 48,
      "hit": false,
      "t": 59090.91499999981,
      "d": 757.5758333333288,
      "v": 47
    },
    {
      "midi": 84,
      "hit": false,
      "t": 59393.94533333314,
      "d": 371.21215833333554,
      "v": 51
    },
    {
      "midi": 79,
      "hit": false,
      "t": 59696.975666666476,
      "d": 318.1818499999936,
      "v": 57
    },
    {
      "midi": 76,
      "hit": false,
      "t": 60000.005999999805,
      "d": 409.090949999998,
      "v": 52
    },
    {
      "midi": 52,
      "hit": false,
      "t": 60000.005999999805,
      "d": 795.4546249999985,
      "v": 39
    },
    {
      "midi": 48,
      "hit": false,
      "t": 60000.005999999805,
      "d": 1598.4850083333222,
      "v": 45
    },
    {
      "midi": 57,
      "hit": false,
      "t": 60000.005999999805,
      "d": 1696.969866666659,
      "v": 40
    },
    {
      "midi": 81,
      "hit": false,
      "t": 60303.03633333313,
      "d": 439.3939833333352,
      "v": 51
    },
    {
      "midi": 84,
      "hit": false,
      "t": 60606.06666666647,
      "d": 378.787916666668,
      "v": 55
    },
    {
      "midi": 88,
      "hit": false,
      "t": 60909.096999999805,
      "d": 333.33336666665855,
      "v": 56
    },
    {
      "midi": 52,
      "hit": false,
      "t": 60909.096999999805,
      "d": 795.4546249999912,
      "v": 39
    },
    {
      "midi": 84,
      "hit": false,
      "t": 61212.127333333134,
      "d": 333.33336666665855,
      "v": 63
    },
    {
      "midi": 81,
      "hit": false,
      "t": 61515.15766666646,
      "d": 280.30305833333114,
      "v": 49
    },
    {
      "midi": 77,
      "hit": false,
      "t": 61818.18799999979,
      "d": 386.3636750000005,
      "v": 53
    },
    {
      "midi": 50,
      "hit": false,
      "t": 61818.18799999979,
      "d": 757.5758333333288,
      "v": 47
    },
    {
      "midi": 53,
      "hit": false,
      "t": 61818.18799999979,
      "d": 1477.2728749999878,
      "v": 50
    },
    {
      "midi": 57,
      "hit": false,
      "t": 61818.18799999979,
      "d": 1477.2728749999878,
      "v": 49
    },
    {
      "midi": 81,
      "hit": false,
      "t": 62121.21833333313,
      "d": 583.3333916666597,
      "v": 49
    },
    {
      "midi": 86,
      "hit": false,
      "t": 62424.248666666455,
      "d": 378.78791666666075,
      "v": 49
    },
    {
      "midi": 89,
      "hit": false,
      "t": 62727.278999999784,
      "d": 310.6060916666611,
      "v": 55
    },
    {
      "midi": 50,
      "hit": false,
      "t": 62727.278999999784,
      "d": 757.5758333333288,
      "v": 47
    },
    {
      "midi": 86,
      "hit": false,
      "t": 63030.30933333311,
      "d": 371.21215833333554,
      "v": 51
    },
    {
      "midi": 81,
      "hit": false,
      "t": 63333.33966666645,
      "d": 318.1818499999936,
      "v": 57
    },
    {
      "midi": 77,
      "hit": false,
      "t": 63636.36999999978,
      "d": 409.090949999998,
      "v": 52
    },
    {
      "midi": 53,
      "hit": false,
      "t": 63636.36999999978,
      "d": 795.4546249999985,
      "v": 39
    },
    {
      "midi": 50,
      "hit": false,
      "t": 63636.36999999978,
      "d": 1598.4850083333222,
      "v": 45
    },
    {
      "midi": 57,
      "hit": false,
      "t": 63636.36999999978,
      "d": 1696.969866666659,
      "v": 40
    },
    {
      "midi": 81,
      "hit": false,
      "t": 63939.400333333106,
      "d": 439.3939833333352,
      "v": 51
    },
    {
      "midi": 86,
      "hit": false,
      "t": 64242.43066666644,
      "d": 378.787916666668,
      "v": 55
    },
    {
      "midi": 89,
      "hit": false,
      "t": 64545.46099999978,
      "d": 333.33336666665855,
      "v": 56
    },
    {
      "midi": 53,
      "hit": false,
      "t": 64545.46099999978,
      "d": 795.4546249999912,
      "v": 39
    },
    {
      "midi": 86,
      "hit": false,
      "t": 64848.491333333106,
      "d": 333.33336666665855,
      "v": 63
    },
    {
      "midi": 81,
      "hit": false,
      "t": 65151.521666666435,
      "d": 280.30305833333114,
      "v": 49
    },
    {
      "midi": 74,
      "hit": false,
      "t": 65454.55199999976,
      "d": 386.3636750000005,
      "v": 53
    },
    {
      "midi": 47,
      "hit": false,
      "t": 65454.55199999976,
      "d": 757.575833333336,
      "v": 47
    },
    {
      "midi": 50,
      "hit": false,
      "t": 65454.55199999976,
      "d": 1477.2728750000097,
      "v": 50
    },
    {
      "midi": 55,
      "hit": false,
      "t": 65454.55199999976,
      "d": 1477.2728750000097,
      "v": 49
    },
    {
      "midi": 79,
      "hit": false,
      "t": 65757.58233333309,
      "d": 583.3333916666743,
      "v": 49
    },
    {
      "midi": 83,
      "hit": false,
      "t": 66060.61266666643,
      "d": 378.787916666668,
      "v": 49
    },
    {
      "midi": 86,
      "hit": false,
      "t": 66363.64299999976,
      "d": 310.60609166667564,
      "v": 55
    },
    {
      "midi": 47,
      "hit": false,
      "t": 66363.64299999976,
      "d": 757.5758333333506,
      "v": 47
    },
    {
      "midi": 83,
      "hit": false,
      "t": 66666.6733333331,
      "d": 371.21215833333554,
      "v": 51
    },
    {
      "midi": 79,
      "hit": false,
      "t": 66969.70366666644,
      "d": 318.1818500000081,
      "v": 57
    },
    {
      "midi": 74,
      "hit": false,
      "t": 67272.73399999978,
      "d": 409.090949999998,
      "v": 52
    },
    {
      "midi": 50,
      "hit": false,
      "t": 67272.73399999978,
      "d": 795.4546249999985,
      "v": 39
    },
    {
      "midi": 47,
      "hit": false,
      "t": 67272.73399999978,
      "d": 1598.4850083333295,
      "v": 45
    },
    {
      "midi": 55,
      "hit": false,
      "t": 67272.73399999978,
      "d": 1696.9698666666663,
      "v": 40
    },
    {
      "midi": 79,
      "hit": false,
      "t": 67575.7643333331,
      "d": 439.3939833333425,
      "v": 51
    },
    {
      "midi": 83,
      "hit": false,
      "t": 67878.79466666645,
      "d": 378.787916666668,
      "v": 55
    },
    {
      "midi": 86,
      "hit": false,
      "t": 68181.82499999978,
      "d": 333.3333666666731,
      "v": 56
    },
    {
      "midi": 50,
      "hit": false,
      "t": 68181.82499999978,
      "d": 795.4546249999985,
      "v": 39
    },
    {
      "midi": 83,
      "hit": false,
      "t": 68484.85533333312,
      "d": 333.33336666665855,
      "v": 63
    },
    {
      "midi": 79,
      "hit": false,
      "t": 68787.88566666645,
      "d": 280.30305833333114,
      "v": 49
    },
    {
      "midi": 76,
      "hit": false,
      "t": 69090.91599999978,
      "d": 477.27277499999036,
      "v": 57
    },
    {
      "midi": 48,
      "hit": false,
      "t": 69090.91599999978,
      "d": 757.5758333333215,
      "v": 47
    },
    {
      "midi": 52,
      "hit": false,
      "t": 69090.91599999978,
      "d": 1477.272874999995,
      "v": 50
    },
    {
      "midi": 55,
      "hit": false,
      "t": 69090.91599999978,
      "d": 1477.272874999995,
      "v": 49
    },
    {
      "midi": 79,
      "hit": false,
      "t": 69393.94633333311,
      "d": 583.3333916666597,
      "v": 49
    },
    {
      "midi": 84,
      "hit": false,
      "t": 69696.97666666644,
      "d": 378.787916666668,
      "v": 49
    },
    {
      "midi": 88,
      "hit": false,
      "t": 70000.00699999976,
      "d": 310.60609166667564,
      "v": 55
    },
    {
      "midi": 48,
      "hit": false,
      "t": 70000.00699999976,
      "d": 757.5758333333506,
      "v": 47
    },
    {
      "midi": 84,
      "hit": false,
      "t": 70303.03733333311,
      "d": 371.21215833333554,
      "v": 51
    },
    {
      "midi": 79,
      "hit": false,
      "t": 70606.06766666644,
      "d": 318.1818500000081,
      "v": 57
    },
    {
      "midi": 76,
      "hit": false,
      "t": 70909.09799999978,
      "d": 409.090949999998,
      "v": 52
    },
    {
      "midi": 52,
      "hit": false,
      "t": 70909.09799999978,
      "d": 795.4546249999985,
      "v": 39
    },
    {
      "midi": 48,
      "hit": false,
      "t": 70909.09799999978,
      "d": 1598.4850083333295,
      "v": 45
    },
    {
      "midi": 55,
      "hit": false,
      "t": 70909.09799999978,
      "d": 1696.9698666666663,
      "v": 40
    },
    {
      "midi": 79,
      "hit": false,
      "t": 71212.12833333311,
      "d": 439.3939833333425,
      "v": 51
    },
    {
      "midi": 84,
      "hit": false,
      "t": 71515.15866666645,
      "d": 378.787916666668,
      "v": 55
    },
    {
      "midi": 88,
      "hit": false,
      "t": 71818.18899999978,
      "d": 333.3333666666731,
      "v": 56
    },
    {
      "midi": 52,
      "hit": false,
      "t": 71818.18899999978,
      "d": 795.4546249999985,
      "v": 39
    },
    {
      "midi": 84,
      "hit": false,
      "t": 72121.21933333312,
      "d": 333.33336666665855,
      "v": 63
    },
    {
      "midi": 79,
      "hit": false,
      "t": 72424.24966666645,
      "d": 280.30305833333114,
      "v": 49
    },
    {
      "midi": 76,
      "hit": false,
      "t": 72727.27999999978,
      "d": 386.3636750000005,
      "v": 53
    },
    {
      "midi": 47,
      "hit": false,
      "t": 72727.27999999978,
      "d": 757.575833333336,
      "v": 47
    },
    {
      "midi": 52,
      "hit": false,
      "t": 72727.27999999978,
      "d": 1477.2728750000097,
      "v": 50
    },
    {
      "midi": 55,
      "hit": false,
      "t": 72727.27999999978,
      "d": 1477.2728750000097,
      "v": 49
    },
    {
      "midi": 79,
      "hit": false,
      "t": 73030.31033333311,
      "d": 462.12125833333994,
      "v": 49
    },
    {
      "midi": 83,
      "hit": false,
      "t": 73333.34066666645,
      "d": 378.787916666668,
      "v": 49
    },
    {
      "midi": 88,
      "hit": false,
      "t": 73636.37099999978,
      "d": 310.60609166667564,
      "v": 55
    },
    {
      "midi": 47,
      "hit": false,
      "t": 73636.37099999978,
      "d": 757.5758333333506,
      "v": 47
    },
    {
      "midi": 83,
      "hit": false,
      "t": 73939.40133333312,
      "d": 371.21215833333554,
      "v": 51
    },
    {
      "midi": 79,
      "hit": false,
      "t": 74242.43166666645,
      "d": 318.1818500000081,
      "v": 57
    },
    {
      "midi": 76,
      "hit": false,
      "t": 74545.4619999998,
      "d": 409.090949999998,
      "v": 52
    },
    {
      "midi": 52,
      "hit": false,
      "t": 74545.4619999998,
      "d": 795.4546249999985,
      "v": 39
    },
    {
      "midi": 47,
      "hit": false,
      "t": 74545.4619999998,
      "d": 1598.4850083333295,
      "v": 45
    },
    {
      "midi": 55,
      "hit": false,
      "t": 74545.4619999998,
      "d": 1696.9698666666663,
      "v": 40
    },
    {
      "midi": 79,
      "hit": false,
      "t": 74848.49233333312,
      "d": 439.3939833333425,
      "v": 51
    },
    {
      "midi": 83,
      "hit": false,
      "t": 75151.52266666647,
      "d": 378.787916666668,
      "v": 55
    },
    {
      "midi": 88,
      "hit": false,
      "t": 75454.5529999998,
      "d": 333.3333666666731,
      "v": 56
    },
    {
      "midi": 52,
      "hit": false,
      "t": 75454.5529999998,
      "d": 795.4546249999985,
      "v": 39
    },
    {
      "midi": 83,
      "hit": false,
      "t": 75757.58333333314,
      "d": 333.33336666665855,
      "v": 63
    },
    {
      "midi": 79,
      "hit": false,
      "t": 76060.61366666647,
      "d": 280.30305833333114,
      "v": 49
    },
    {
      "midi": 77,
      "hit": false,
      "t": 76363.6439999998,
      "d": 386.3636750000005,
      "v": 53
    },
    {
      "midi": 48,
      "hit": false,
      "t": 76363.6439999998,
      "d": 757.575833333336,
      "v": 47
    },
    {
      "midi": 53,
      "hit": false,
      "t": 76363.6439999998,
      "d": 1477.2728750000097,
      "v": 50
    },
    {
      "midi": 57,
      "hit": false,
      "t": 76363.6439999998,
      "d": 1477.2728750000097,
      "v": 49
    },
    {
      "midi": 81,
      "hit": false,
      "t": 76666.67433333313,
      "d": 583.3333916666743,
      "v": 49
    },
    {
      "midi": 84,
      "hit": false,
      "t": 76969.70466666647,
      "d": 378.787916666668,
      "v": 49
    },
    {
      "midi": 89,
      "hit": false,
      "t": 77272.7349999998,
      "d": 310.60609166667564,
      "v": 55
    },
    {
      "midi": 48,
      "hit": false,
      "t": 77272.7349999998,
      "d": 757.5758333333506,
      "v": 47
    },
    {
      "midi": 84,
      "hit": false,
      "t": 77575.76533333314,
      "d": 371.21215833333554,
      "v": 51
    },
    {
      "midi": 81,
      "hit": false,
      "t": 77878.79566666647,
      "d": 318.1818500000081,
      "v": 57
    },
    {
      "midi": 77,
      "hit": false,
      "t": 78181.82599999981,
      "d": 409.090949999998,
      "v": 52
    },
    {
      "midi": 53,
      "hit": false,
      "t": 78181.82599999981,
      "d": 795.4546249999985,
      "v": 39
    },
    {
      "midi": 48,
      "hit": false,
      "t": 78181.82599999981,
      "d": 1598.4850083333295,
      "v": 45
    },
    {
      "midi": 57,
      "hit": false,
      "t": 78181.82599999981,
      "d": 1696.9698666666663,
      "v": 40
    },
    {
      "midi": 81,
      "hit": false,
      "t": 78484.85633333314,
      "d": 439.3939833333425,
      "v": 51
    },
    {
      "midi": 84,
      "hit": false,
      "t": 78787.88666666648,
      "d": 378.787916666668,
      "v": 55
    },
    {
      "midi": 89,
      "hit": false,
      "t": 79090.91699999981,
      "d": 333.3333666666731,
      "v": 56
    },
    {
      "midi": 53,
      "hit": false,
      "t": 79090.91699999981,
      "d": 795.4546249999985,
      "v": 39
    },
    {
      "midi": 84,
      "hit": false,
      "t": 79393.94733333316,
      "d": 333.33336666665855,
      "v": 63
    },
    {
      "midi": 81,
      "hit": false,
      "t": 79696.97766666648,
      "d": 280.30305833333114,
      "v": 49
    },
    {
      "midi": 74,
      "hit": false,
      "t": 80000.00799999981,
      "d": 287.8788166666636,
      "v": 53
    },
    {
      "midi": 62,
      "hit": false,
      "t": 80000.00799999981,
      "d": 446.9697416666604,
      "v": 71
    },
    {
      "midi": 67,
      "hit": false,
      "t": 80000.00799999981,
      "d": 477.27277499999036,
      "v": 51
    },
    {
      "midi": 50,
      "hit": false,
      "t": 80000.00799999981,
      "d": 742.4243166666565,
      "v": 50
    },
    {
      "midi": 55,
      "hit": false,
      "t": 80000.00799999981,
      "d": 742.4243166666565,
      "v": 49
    },
    {
      "midi": 47,
      "hit": false,
      "t": 80000.00799999981,
      "d": 757.5758333333215,
      "v": 47
    },
    {
      "midi": 79,
      "hit": false,
      "t": 80303.03833333314,
      "d": 295.4545749999961,
      "v": 49
    },
    {
      "midi": 62,
      "hit": false,
      "t": 80606.06866666647,
      "d": 234.8485083333362,
      "v": 64
    },
    {
      "midi": 67,
      "hit": false,
      "t": 80606.06866666647,
      "d": 257.5757833333337,
      "v": 43
    },
    {
      "midi": 83,
      "hit": false,
      "t": 80606.06866666647,
      "d": 378.787916666668,
      "v": 49
    },
    {
      "midi": 79,
      "hit": false,
      "t": 80909.0989999998,
      "d": 310.60609166667564,
      "v": 55
    },
    {
      "midi": 62,
      "hit": false,
      "t": 80909.0989999998,
      "d": 462.12125833333994,
      "v": 69
    },
    {
      "midi": 67,
      "hit": false,
      "t": 80909.0989999998,
      "d": 515.1515666666673,
      "v": 67
    },
    {
      "midi": 50,
      "hit": false,
      "t": 80909.0989999998,
      "d": 742.4243166666856,
      "v": 50
    },
    {
      "midi": 55,
      "hit": false,
      "t": 80909.0989999998,
      "d": 742.4243166666856,
      "v": 49
    },
    {
      "midi": 47,
      "hit": false,
      "t": 80909.0989999998,
      "d": 757.5758333333506,
      "v": 47
    },
    {
      "midi": 83,
      "hit": false,
      "t": 81212.12933333314,
      "d": 371.21215833333554,
      "v": 51
    },
    {
      "midi": 67,
      "hit": false,
      "t": 81515.15966666647,
      "d": 234.84850833335076,
      "v": 60
    },
    {
      "midi": 62,
      "hit": false,
      "t": 81515.15966666647,
      "d": 257.5757833333482,
      "v": 55
    },
    {
      "midi": 79,
      "hit": false,
      "t": 81515.15966666647,
      "d": 318.1818500000081,
      "v": 57
    },
    {
      "midi": 74,
      "hit": false,
      "t": 81818.18999999981,
      "d": 409.090949999998,
      "v": 52
    },
    {
      "midi": 62,
      "hit": false,
      "t": 81818.18999999981,
      "d": 446.9697416666604,
      "v": 69
    },
    {
      "midi": 67,
      "hit": false,
      "t": 81818.18999999981,
      "d": 484.84853333332285,
      "v": 75
    },
    {
      "midi": 47,
      "hit": false,
      "t": 81818.18999999981,
      "d": 765.151591666654,
      "v": 45
    },
    {
      "midi": 55,
      "hit": false,
      "t": 81818.18999999981,
      "d": 765.151591666654,
      "v": 40
    },
    {
      "midi": 50,
      "hit": false,
      "t": 81818.18999999981,
      "d": 795.4546249999839,
      "v": 39
    },
    {
      "midi": 79,
      "hit": false,
      "t": 82121.22033333314,
      "d": 492.42429166665534,
      "v": 51
    },
    {
      "midi": 83,
      "hit": false,
      "t": 82424.25066666647,
      "d": 234.84850833332166,
      "v": 55
    },
    {
      "midi": 62,
      "hit": false,
      "t": 82424.25066666647,
      "d": 257.5757833333191,
      "v": 54
    },
    {
      "midi": 67,
      "hit": false,
      "t": 82424.25066666647,
      "d": 257.5757833333191,
      "v": 67
    },
    {
      "midi": 55,
      "hit": false,
      "t": 82704.55372499979,
      "d": 765.151591666654,
      "v": 40
    },
    {
      "midi": 67,
      "hit": false,
      "t": 82727.28099999978,
      "d": 181.81819999999425,
      "v": 69
    },
    {
      "midi": 62,
      "hit": false,
      "t": 82727.28099999978,
      "d": 219.6969916666567,
      "v": 78
    },
    {
      "midi": 83,
      "hit": false,
      "t": 82727.28099999978,
      "d": 219.6969916666567,
      "v": 56
    },
    {
      "midi": 47,
      "hit": false,
      "t": 82727.28099999978,
      "d": 765.151591666654,
      "v": 45
    },
    {
      "midi": 50,
      "hit": false,
      "t": 82727.28099999978,
      "d": 795.4546249999839,
      "v": 39
    },
    {
      "midi": 62,
      "hit": false,
      "t": 83030.31133333311,
      "d": 227.27275000000373,
      "v": 59
    },
    {
      "midi": 79,
      "hit": false,
      "t": 83030.31133333311,
      "d": 227.27275000000373,
      "v": 63
    },
    {
      "midi": 67,
      "hit": false,
      "t": 83030.31133333311,
      "d": 272.72729999999865,
      "v": 72
    },
    {
      "midi": 62,
      "hit": false,
      "t": 83333.34166666644,
      "d": 212.1212333333242,
      "v": 73
    },
    {
      "midi": 67,
      "hit": false,
      "t": 83333.34166666644,
      "d": 234.84850833332166,
      "v": 73
    },
    {
      "midi": 79,
      "hit": false,
      "t": 83333.34166666644,
      "d": 280.3030583333166,
      "v": 49
    },
    {
      "midi": 55,
      "hit": false,
      "t": 83636.37199999976,
      "d": 628.7879416666692,
      "v": 62
    },
    {
      "midi": 60,
      "hit": false,
      "t": 83636.37199999976,
      "d": 628.7879416666692,
      "v": 69
    },
    {
      "midi": 52,
      "hit": false,
      "t": 83636.37199999976,
      "d": 636.3637000000017,
      "v": 43
    },
    {
      "midi": 76,
      "hit": false,
      "t": 83636.37199999976,
      "d": 893.9394833333354,
      "v": 44
    },
    {
      "midi": 79,
      "hit": false,
      "t": 83636.37199999976,
      "d": 893.9394833333354,
      "v": 59
    },
    {
      "midi": 60,
      "hit": false,
      "t": 84545.46299999976,
      "d": 704.5455249999941,
      "v": 68
    },
    {
      "midi": 67,
      "hit": false,
      "t": 84545.46299999976,
      "d": 704.5455249999941,
      "v": 58
    },
    {
      "midi": 55,
      "hit": false,
      "t": 84545.46299999976,
      "d": 719.6970416666591,
      "v": 57
    },
    {
      "midi": 52,
      "hit": false,
      "t": 84545.46299999976,
      "d": 727.2727999999915,
      "v": 46
    },
    {
      "midi": 72,
      "hit": false,
      "t": 84545.46299999976,
      "d": 727.2727999999915,
      "v": 65
    },
    {
      "midi": 67,
      "hit": false,
      "t": 85454.55399999974,
      "d": 424.24246666666295,
      "v": 64
    },
    {
      "midi": 72,
      "hit": false,
      "t": 85454.55399999974,
      "d": 454.5454999999929,
      "v": 70
    },
    {
      "midi": 60,
      "hit": false,
      "t": 85454.55399999974,
      "d": 727.2727999999915,
      "v": 79
    },
    {
      "midi": 52,
      "hit": false,
      "t": 85454.55399999974,
      "d": 750.000074999989,
      "v": 43
    },
    {
      "midi": 55,
      "hit": false,
      "t": 85454.55399999974,
      "d": 750.000074999989,
      "v": 64
    },
    {
      "midi": 76,
      "hit": false,
      "t": 85454.55399999974,
      "d": 765.151591666654,
      "v": 48
    },
    {
      "midi": 79,
      "hit": false,
      "t": 85454.55399999974,
      "d": 765.151591666654,
      "v": 52
    },
    {
      "midi": 67,
      "hit": false,
      "t": 86060.6146666664,
      "d": 712.1212833333266,
      "v": 64
    },
    {
      "midi": 72,
      "hit": false,
      "t": 86060.6146666664,
      "d": 719.6970416666591,
      "v": 70
    },
    {
      "midi": 52,
      "hit": false,
      "t": 86363.64499999973,
      "d": 750.0000750000036,
      "v": 46
    },
    {
      "midi": 55,
      "hit": false,
      "t": 86363.64499999973,
      "d": 757.575833333336,
      "v": 60
    },
    {
      "midi": 60,
      "hit": false,
      "t": 86363.64499999973,
      "d": 810.6061416666635,
      "v": 69
    },
    {
      "midi": 69,
      "hit": false,
      "t": 87272.73599999973,
      "d": 530.3030833333323,
      "v": 71
    },
    {
      "midi": 72,
      "hit": false,
      "t": 87272.73599999973,
      "d": 530.3030833333323,
      "v": 59
    },
    {
      "midi": 53,
      "hit": false,
      "t": 87272.73599999973,
      "d": 666.6667333333316,
      "v": 59
    },
    {
      "midi": 60,
      "hit": false,
      "t": 87272.73599999973,
      "d": 674.2424916666641,
      "v": 53
    },
    {
      "midi": 57,
      "hit": false,
      "t": 87272.73599999973,
      "d": 681.8182499999966,
      "v": 64
    },
    {
      "midi": 53,
      "hit": false,
      "t": 88181.82699999973,
      "d": 704.5455249999941,
      "v": 51
    },
    {
      "midi": 57,
      "hit": false,
      "t": 88181.82699999973,
      "d": 712.1212833333266,
      "v": 63
    },
    {
      "midi": 60,
      "hit": false,
      "t": 88181.82699999973,
      "d": 712.1212833333266,
      "v": 56
    },
    {
      "midi": 69,
      "hit": false,
      "t": 88181.82699999973,
      "d": 780.3031083333335,
      "v": 67
    },
    {
      "midi": 72,
      "hit": false,
      "t": 88181.82699999973,
      "d": 803.030383333331,
      "v": 60
    },
    {
      "midi": 77,
      "hit": false,
      "t": 89090.91799999973,
      "d": 545.4545999999973,
      "v": 75
    },
    {
      "midi": 81,
      "hit": false,
      "t": 89090.91799999973,
      "d": 590.9091499999922,
      "v": 71
    },
    {
      "midi": 69,
      "hit": false,
      "t": 89090.91799999973,
      "d": 681.8182499999966,
      "v": 63
    },
    {
      "midi": 72,
      "hit": false,
      "t": 89090.91799999973,
      "d": 696.9697666666616,
      "v": 67
    },
    {
      "midi": 53,
      "hit": false,
      "t": 89090.91799999973,
      "d": 704.5455249999941,
      "v": 62
    },
    {
      "midi": 60,
      "hit": false,
      "t": 89090.91799999973,
      "d": 719.6970416666591,
      "v": 52
    },
    {
      "midi": 57,
      "hit": false,
      "t": 89090.91799999973,
      "d": 727.2727999999915,
      "v": 57
    },
    {
      "midi": 84,
      "hit": false,
      "t": 90000.00899999971,
      "d": 590.9091500000068,
      "v": 76
    },
    {
      "midi": 81,
      "hit": false,
      "t": 90000.00899999971,
      "d": 598.4849083333393,
      "v": 75
    },
    {
      "midi": 72,
      "hit": false,
      "t": 90000.00899999971,
      "d": 712.1212833333411,
      "v": 46
    },
    {
      "midi": 60,
      "hit": false,
      "t": 90000.00899999971,
      "d": 719.6970416666736,
      "v": 60
    },
    {
      "midi": 69,
      "hit": false,
      "t": 90000.00899999971,
      "d": 727.2728000000061,
      "v": 60
    },
    {
      "midi": 53,
      "hit": false,
      "t": 90000.00899999971,
      "d": 848.4849333333405,
      "v": 67
    },
    {
      "midi": 57,
      "hit": false,
      "t": 90000.00899999971,
      "d": 856.0606916666729,
      "v": 64
    },
    {
      "midi": 72,
      "hit": false,
      "t": 90909.09999999971,
      "d": 553.0303583333298,
      "v": 42
    },
    {
      "midi": 55,
      "hit": false,
      "t": 90909.09999999971,
      "d": 628.7879416666692,
      "v": 62
    },
    {
      "midi": 60,
      "hit": false,
      "t": 90909.09999999971,
      "d": 628.7879416666692,
      "v": 69
    },
    {
      "midi": 52,
      "hit": false,
      "t": 90909.09999999971,
      "d": 636.3637000000017,
      "v": 43
    },
    {
      "midi": 67,
      "hit": false,
      "t": 90909.09999999971,
      "d": 878.7879666666704,
      "v": 36
    },
    {
      "midi": 76,
      "hit": false,
      "t": 90909.09999999971,
      "d": 886.3637250000029,
      "v": 39
    },
    {
      "midi": 72,
      "hit": false,
      "t": 91818.19099999972,
      "d": 477.2727750000049,
      "v": 42
    },
    {
      "midi": 60,
      "hit": false,
      "t": 91818.19099999972,
      "d": 704.5455250000086,
      "v": 68
    },
    {
      "midi": 55,
      "hit": false,
      "t": 91818.19099999972,
      "d": 719.6970416666736,
      "v": 57
    },
    {
      "midi": 52,
      "hit": false,
      "t": 91818.19099999972,
      "d": 727.2728000000061,
      "v": 46
    },
    {
      "midi": 72,
      "hit": false,
      "t": 92424.25166666639,
      "d": 666.6667333333316,
      "v": 68
    },
    {
      "midi": 76,
      "hit": false,
      "t": 92424.25166666639,
      "d": 825.7576583333284,
      "v": 58
    },
    {
      "midi": 67,
      "hit": false,
      "t": 92424.25166666639,
      "d": 840.9091749999934,
      "v": 63
    },
    {
      "midi": 60,
      "hit": false,
      "t": 92727.28199999972,
      "d": 727.2728000000061,
      "v": 79
    },
    {
      "midi": 52,
      "hit": false,
      "t": 92727.28199999972,
      "d": 750.0000750000036,
      "v": 43
    },
    {
      "midi": 55,
      "hit": false,
      "t": 92727.28199999972,
      "d": 750.0000750000036,
      "v": 64
    },
    {
      "midi": 76,
      "hit": false,
      "t": 93333.34266666639,
      "d": 719.6970416666591,
      "v": 57
    },
    {
      "midi": 72,
      "hit": false,
      "t": 93636.37299999972,
      "d": 696.9697666666616,
      "v": 38
    },
    {
      "midi": 67,
      "hit": false,
      "t": 93636.37299999972,
      "d": 719.6970416666591,
      "v": 62
    },
    {
      "midi": 52,
      "hit": false,
      "t": 93636.37299999972,
      "d": 750.000074999989,
      "v": 46
    },
    {
      "midi": 55,
      "hit": false,
      "t": 93636.37299999972,
      "d": 757.5758333333215,
      "v": 60
    },
    {
      "midi": 60,
      "hit": false,
      "t": 93636.37299999972,
      "d": 810.6061416666489,
      "v": 69
    },
    {
      "midi": 79,
      "hit": false,
      "t": 94545.4639999997,
      "d": 560.6061166666623,
      "v": 68
    },
    {
      "midi": 84,
      "hit": false,
      "t": 94545.4639999997,
      "d": 583.3333916666597,
      "v": 79
    },
    {
      "midi": 55,
      "hit": false,
      "t": 94545.4639999997,
      "d": 628.7879416666547,
      "v": 62
    },
    {
      "midi": 60,
      "hit": false,
      "t": 94545.4639999997,
      "d": 628.7879416666547,
      "v": 69
    },
    {
      "midi": 52,
      "hit": false,
      "t": 94545.4639999997,
      "d": 636.3636999999871,
      "v": 43
    },
    {
      "midi": 72,
      "hit": false,
      "t": 95151.52466666636,
      "d": 719.6970416666591,
      "v": 57
    },
    {
      "midi": 60,
      "hit": false,
      "t": 95454.55499999969,
      "d": 704.5455249999941,
      "v": 68
    },
    {
      "midi": 55,
      "hit": false,
      "t": 95454.55499999969,
      "d": 719.6970416666591,
      "v": 57
    },
    {
      "midi": 52,
      "hit": false,
      "t": 95454.55499999969,
      "d": 727.2727999999915,
      "v": 46
    },
    {
      "midi": 79,
      "hit": false,
      "t": 95454.55499999969,
      "d": 787.8788666666514,
      "v": 63
    },
    {
      "midi": 84,
      "hit": false,
      "t": 95454.55499999969,
      "d": 818.1818999999814,
      "v": 75
    },
    {
      "midi": 72,
      "hit": false,
      "t": 96060.61566666634,
      "d": 719.6970416666736,
      "v": 57
    },
    {
      "midi": 84,
      "hit": false,
      "t": 96363.64599999967,
      "d": 204.54547500000626,
      "v": 63
    },
    {
      "midi": 79,
      "hit": false,
      "t": 96363.64599999967,
      "d": 227.27275000000373,
      "v": 58
    },
    {
      "midi": 55,
      "hit": false,
      "t": 96363.64599999967,
      "d": 681.8182500000257,
      "v": 64
    },
    {
      "midi": 52,
      "hit": false,
      "t": 96363.64599999967,
      "d": 727.2728000000207,
      "v": 43
    },
    {
      "midi": 60,
      "hit": false,
      "t": 96363.64599999967,
      "d": 772.7273500000156,
      "v": 79
    },
    {
      "midi": 79,
      "hit": false,
      "t": 96666.67633333302,
      "d": 189.3939583333413,
      "v": 72
    },
    {
      "midi": 84,
      "hit": false,
      "t": 96666.67633333302,
      "d": 212.12123333333875,
      "v": 81
    },
    {
      "midi": 79,
      "hit": false,
      "t": 96969.70666666636,
      "d": 196.96971666665922,
      "v": 68
    },
    {
      "midi": 84,
      "hit": false,
      "t": 96969.70666666636,
      "d": 212.1212333333242,
      "v": 78
    },
    {
      "midi": 79,
      "hit": false,
      "t": 97272.73699999969,
      "d": 189.39395833332674,
      "v": 69
    },
    {
      "midi": 84,
      "hit": false,
      "t": 97272.73699999969,
      "d": 219.6969916666567,
      "v": 79
    },
    {
      "midi": 55,
      "hit": false,
      "t": 97272.73699999969,
      "d": 795.4546249999985,
      "v": 60
    },
    {
      "midi": 60,
      "hit": false,
      "t": 97272.73699999969,
      "d": 825.7576583333284,
      "v": 69
    },
    {
      "midi": 52,
      "hit": false,
      "t": 97272.73699999969,
      "d": 848.4849333333259,
      "v": 46
    },
    {
      "midi": 72,
      "hit": false,
      "t": 97280.31275833302,
      "d": 719.6970416666591,
      "v": 57
    },
    {
      "midi": 79,
      "hit": false,
      "t": 97575.76733333302,
      "d": 219.69699166667124,
      "v": 64
    },
    {
      "midi": 84,
      "hit": false,
      "t": 97575.76733333302,
      "d": 265.15154166666616,
      "v": 77
    },
    {
      "midi": 79,
      "hit": false,
      "t": 97878.79766666635,
      "d": 189.3939583333413,
      "v": 60
    },
    {
      "midi": 84,
      "hit": false,
      "t": 97878.79766666635,
      "d": 196.96971666667378,
      "v": 76
    },
    {
      "midi": 55,
      "hit": false,
      "t": 98181.82799999967,
      "d": 628.7879416666692,
      "v": 62
    },
    {
      "midi": 60,
      "hit": false,
      "t": 98181.82799999967,
      "d": 628.7879416666692,
      "v": 69
    },
    {
      "midi": 52,
      "hit": false,
      "t": 98181.82799999967,
      "d": 636.3637000000017,
      "v": 43
    },
    {
      "midi": 76,
      "hit": false,
      "t": 98181.82799999967,
      "d": 893.9394833333354,
      "v": 44
    },
    {
      "midi": 79,
      "hit": false,
      "t": 98181.82799999967,
      "d": 893.9394833333354,
      "v": 59
    },
    {
      "midi": 60,
      "hit": false,
      "t": 99090.91899999967,
      "d": 704.5455250000086,
      "v": 68
    },
    {
      "midi": 67,
      "hit": false,
      "t": 99090.91899999967,
      "d": 704.5455250000086,
      "v": 58
    },
    {
      "midi": 55,
      "hit": false,
      "t": 99090.91899999967,
      "d": 719.6970416666736,
      "v": 57
    },
    {
      "midi": 52,
      "hit": false,
      "t": 99090.91899999967,
      "d": 727.2728000000061,
      "v": 46
    },
    {
      "midi": 72,
      "hit": false,
      "t": 99090.91899999967,
      "d": 727.2728000000061,
      "v": 65
    },
    {
      "midi": 69,
      "hit": false,
      "t": 99696.97966666635,
      "d": 424.24246666666295,
      "v": 72
    },
    {
      "midi": 67,
      "hit": false,
      "t": 100000.00999999967,
      "d": 424.24246666666295,
      "v": 64
    },
    {
      "midi": 72,
      "hit": false,
      "t": 100000.00999999967,
      "d": 454.5454999999929,
      "v": 70
    },
    {
      "midi": 60,
      "hit": false,
      "t": 100000.00999999967,
      "d": 727.2727999999915,
      "v": 79
    },
    {
      "midi": 52,
      "hit": false,
      "t": 100000.00999999967,
      "d": 750.000074999989,
      "v": 43
    },
    {
      "midi": 55,
      "hit": false,
      "t": 100000.00999999967,
      "d": 750.000074999989,
      "v": 64
    },
    {
      "midi": 76,
      "hit": false,
      "t": 100000.00999999967,
      "d": 765.151591666654,
      "v": 48
    },
    {
      "midi": 79,
      "hit": false,
      "t": 100000.00999999967,
      "d": 765.151591666654,
      "v": 52
    },
    {
      "midi": 67,
      "hit": false,
      "t": 100606.07066666633,
      "d": 712.1212833333266,
      "v": 64
    },
    {
      "midi": 72,
      "hit": false,
      "t": 100606.07066666633,
      "d": 719.6970416666591,
      "v": 70
    },
    {
      "midi": 52,
      "hit": false,
      "t": 100909.10099999966,
      "d": 750.000074999989,
      "v": 46
    },
    {
      "midi": 55,
      "hit": false,
      "t": 100909.10099999966,
      "d": 757.5758333333215,
      "v": 60
    },
    {
      "midi": 60,
      "hit": false,
      "t": 100909.10099999966,
      "d": 810.6061416666489,
      "v": 69
    },
    {
      "midi": 79,
      "hit": false,
      "t": 100916.676758333,
      "d": 765.151591666654,
      "v": 52
    },
    {
      "midi": 76,
      "hit": false,
      "t": 101515.16166666632,
      "d": 356.060641666656,
      "v": 59
    },
    {
      "midi": 69,
      "hit": false,
      "t": 101818.19199999965,
      "d": 530.3030833333323,
      "v": 71
    },
    {
      "midi": 72,
      "hit": false,
      "t": 101818.19199999965,
      "d": 530.3030833333323,
      "v": 59
    },
    {
      "midi": 84,
      "hit": false,
      "t": 101818.19199999965,
      "d": 590.9091499999922,
      "v": 76
    },
    {
      "midi": 53,
      "hit": false,
      "t": 101818.19199999965,
      "d": 666.6667333333316,
      "v": 59
    },
    {
      "midi": 60,
      "hit": false,
      "t": 101818.19199999965,
      "d": 674.2424916666641,
      "v": 53
    },
    {
      "midi": 57,
      "hit": false,
      "t": 101818.19199999965,
      "d": 681.8182499999966,
      "v": 64
    },
    {
      "midi": 77,
      "hit": false,
      "t": 102727.28299999965,
      "d": 545.4545999999973,
      "v": 75
    },
    {
      "midi": 53,
      "hit": false,
      "t": 102727.28299999965,
      "d": 704.5455249999941,
      "v": 51
    },
    {
      "midi": 57,
      "hit": false,
      "t": 102727.28299999965,
      "d": 712.1212833333266,
      "v": 63
    },
    {
      "midi": 60,
      "hit": false,
      "t": 102727.28299999965,
      "d": 712.1212833333266,
      "v": 56
    },
    {
      "midi": 69,
      "hit": false,
      "t": 102727.28299999965,
      "d": 780.3031083333335,
      "v": 67
    },
    {
      "midi": 72,
      "hit": false,
      "t": 102727.28299999965,
      "d": 803.030383333331,
      "v": 60
    },
    {
      "midi": 81,
      "hit": false,
      "t": 103636.37399999965,
      "d": 590.9091500000068,
      "v": 71
    },
    {
      "midi": 69,
      "hit": false,
      "t": 103636.37399999965,
      "d": 681.8182500000112,
      "v": 63
    },
    {
      "midi": 72,
      "hit": false,
      "t": 103636.37399999965,
      "d": 696.9697666666762,
      "v": 67
    },
    {
      "midi": 53,
      "hit": false,
      "t": 103636.37399999965,
      "d": 704.5455250000086,
      "v": 62
    },
    {
      "midi": 60,
      "hit": false,
      "t": 103636.37399999965,
      "d": 719.6970416666736,
      "v": 52
    },
    {
      "midi": 57,
      "hit": false,
      "t": 103636.37399999965,
      "d": 727.2728000000061,
      "v": 57
    },
    {
      "midi": 81,
      "hit": false,
      "t": 104545.46499999965,
      "d": 598.4849083333393,
      "v": 75
    },
    {
      "midi": 72,
      "hit": false,
      "t": 104545.46499999965,
      "d": 712.1212833333411,
      "v": 46
    },
    {
      "midi": 60,
      "hit": false,
      "t": 104545.46499999965,
      "d": 719.6970416666736,
      "v": 60
    },
    {
      "midi": 69,
      "hit": false,
      "t": 104545.46499999965,
      "d": 727.2728000000061,
      "v": 60
    },
    {
      "midi": 53,
      "hit": false,
      "t": 104545.46499999965,
      "d": 848.4849333333405,
      "v": 67
    },
    {
      "midi": 57,
      "hit": false,
      "t": 104545.46499999965,
      "d": 856.0606916666729,
      "v": 64
    },
    {
      "midi": 72,
      "hit": false,
      "t": 105454.55599999965,
      "d": 553.0303583333298,
      "v": 62
    },
    {
      "midi": 55,
      "hit": false,
      "t": 105454.55599999965,
      "d": 628.7879416666692,
      "v": 62
    },
    {
      "midi": 60,
      "hit": false,
      "t": 105454.55599999965,
      "d": 628.7879416666692,
      "v": 69
    },
    {
      "midi": 52,
      "hit": false,
      "t": 105454.55599999965,
      "d": 636.3637000000017,
      "v": 43
    },
    {
      "midi": 67,
      "hit": false,
      "t": 105454.55599999965,
      "d": 878.7879666666704,
      "v": 56
    },
    {
      "midi": 76,
      "hit": false,
      "t": 105454.55599999965,
      "d": 886.3637250000029,
      "v": 55
    },
    {
      "midi": 72,
      "hit": false,
      "t": 106363.64699999965,
      "d": 477.2727750000049,
      "v": 62
    },
    {
      "midi": 60,
      "hit": false,
      "t": 106363.64699999965,
      "d": 704.5455250000086,
      "v": 68
    },
    {
      "midi": 55,
      "hit": false,
      "t": 106363.64699999965,
      "d": 719.6970416666736,
      "v": 57
    },
    {
      "midi": 52,
      "hit": false,
      "t": 106363.64699999965,
      "d": 727.2728000000061,
      "v": 46
    },
    {
      "midi": 72,
      "hit": false,
      "t": 106969.70766666632,
      "d": 257.5757833333337,
      "v": 68
    },
    {
      "midi": 76,
      "hit": false,
      "t": 106969.70766666632,
      "d": 310.6060916666611,
      "v": 58
    },
    {
      "midi": 70,
      "hit": false,
      "t": 107272.73799999965,
      "d": 712.1212833333266,
      "v": 68
    },
    {
      "midi": 74,
      "hit": false,
      "t": 107272.73799999965,
      "d": 712.1212833333266,
      "v": 68
    },
    {
      "midi": 58,
      "hit": false,
      "t": 107272.73799999965,
      "d": 727.2727999999915,
      "v": 79
    },
    {
      "midi": 50,
      "hit": false,
      "t": 107272.73799999965,
      "d": 750.000074999989,
      "v": 43
    },
    {
      "midi": 53,
      "hit": false,
      "t": 107272.73799999965,
      "d": 750.000074999989,
      "v": 64
    },
    {
      "midi": 65,
      "hit": false,
      "t": 107272.73799999965,
      "d": 840.9091749999934,
      "v": 63
    },
    {
      "midi": 72,
      "hit": false,
      "t": 108181.82899999965,
      "d": 696.9697666666616,
      "v": 38
    },
    {
      "midi": 69,
      "hit": false,
      "t": 108181.82899999965,
      "d": 719.6970416666591,
      "v": 62
    },
    {
      "midi": 77,
      "hit": false,
      "t": 108181.82899999965,
      "d": 719.6970416666591,
      "v": 57
    },
    {
      "midi": 53,
      "hit": false,
      "t": 108181.82899999965,
      "d": 750.000074999989,
      "v": 46
    },
    {
      "midi": 57,
      "hit": false,
      "t": 108181.82899999965,
      "d": 757.5758333333215,
      "v": 60
    },
    {
      "midi": 60,
      "hit": false,
      "t": 108181.82899999965,
      "d": 810.6061416666489,
      "v": 69
    },
    {
      "midi": 79,
      "hit": false,
      "t": 109090.91999999963,
      "d": 560.6061166666623,
      "v": 68
    },
    {
      "midi": 84,
      "hit": false,
      "t": 109090.91999999963,
      "d": 583.3333916666597,
      "v": 69
    },
    {
      "midi": 55,
      "hit": false,
      "t": 109090.91999999963,
      "d": 628.7879416666547,
      "v": 62
    },
    {
      "midi": 60,
      "hit": false,
      "t": 109090.91999999963,
      "d": 628.7879416666547,
      "v": 69
    },
    {
      "midi": 52,
      "hit": false,
      "t": 109090.91999999963,
      "d": 636.3636999999871,
      "v": 43
    },
    {
      "midi": 72,
      "hit": false,
      "t": 109696.98066666629,
      "d": 719.6970416666445,
      "v": 57
    },
    {
      "midi": 67,
      "hit": false,
      "t": 110000.01099999962,
      "d": 356.060641666656,
      "v": 68
    },
    {
      "midi": 60,
      "hit": false,
      "t": 110000.01099999962,
      "d": 704.5455249999795,
      "v": 68
    },
    {
      "midi": 55,
      "hit": false,
      "t": 110000.01099999962,
      "d": 719.6970416666445,
      "v": 57
    },
    {
      "midi": 52,
      "hit": false,
      "t": 110000.01099999962,
      "d": 727.272799999977,
      "v": 46
    },
    {
      "midi": 79,
      "hit": false,
      "t": 110000.01099999962,
      "d": 787.8788666666369,
      "v": 63
    },
    {
      "midi": 69,
      "hit": false,
      "t": 110303.04133333295,
      "d": 265.1515416666516,
      "v": 75
    },
    {
      "midi": 71,
      "hit": false,
      "t": 110606.07166666626,
      "d": 356.060641666656,
      "v": 78
    },
    {
      "midi": 72,
      "hit": false,
      "t": 110909.10199999959,
      "d": 356.060641666656,
      "v": 69
    },
    {
      "midi": 55,
      "hit": false,
      "t": 110909.10199999959,
      "d": 681.8182499999821,
      "v": 64
    },
    {
      "midi": 52,
      "hit": false,
      "t": 110909.10199999959,
      "d": 727.272799999977,
      "v": 43
    },
    {
      "midi": 60,
      "hit": false,
      "t": 110909.10199999959,
      "d": 772.7273499999719,
      "v": 79
    },
    {
      "midi": 74,
      "hit": false,
      "t": 111212.13233333292,
      "d": 356.060641666656,
      "v": 69
    },
    {
      "midi": 76,
      "hit": false,
      "t": 111515.16266666625,
      "d": 356.06064166664146,
      "v": 77
    },
    {
      "midi": 77,
      "hit": false,
      "t": 111818.19299999956,
      "d": 356.060641666656,
      "v": 69
    },
    {
      "midi": 55,
      "hit": false,
      "t": 111818.19299999956,
      "d": 795.4546249999839,
      "v": 60
    },
    {
      "midi": 60,
      "hit": false,
      "t": 111818.19299999956,
      "d": 825.7576583333139,
      "v": 69
    },
    {
      "midi": 52,
      "hit": false,
      "t": 111818.19299999956,
      "d": 848.4849333333113,
      "v": 46
    },
    {
      "midi": 79,
      "hit": false,
      "t": 112121.22333333289,
      "d": 356.060641666656,
      "v": 77
    },
    {
      "midi": 81,
      "hit": false,
      "t": 112424.25366666622,
      "d": 356.06064166664146,
      "v": 69
    },
    {
      "midi": 55,
      "hit": false,
      "t": 112727.28399999953,
      "d": 628.7879416666547,
      "v": 62
    },
    {
      "midi": 60,
      "hit": false,
      "t": 112727.28399999953,
      "d": 628.7879416666547,
      "v": 69
    },
    {
      "midi": 52,
      "hit": false,
      "t": 112727.28399999953,
      "d": 636.3636999999871,
      "v": 43
    },
    {
      "midi": 76,
      "hit": false,
      "t": 112727.28399999953,
      "d": 893.9394833333208,
      "v": 44
    },
    {
      "midi": 79,
      "hit": false,
      "t": 112727.28399999953,
      "d": 893.9394833333208,
      "v": 59
    },
    {
      "midi": 60,
      "hit": false,
      "t": 113636.37499999952,
      "d": 704.5455249999941,
      "v": 68
    },
    {
      "midi": 67,
      "hit": false,
      "t": 113636.37499999952,
      "d": 704.5455249999941,
      "v": 58
    },
    {
      "midi": 55,
      "hit": false,
      "t": 113636.37499999952,
      "d": 719.6970416666591,
      "v": 57
    },
    {
      "midi": 52,
      "hit": false,
      "t": 113636.37499999952,
      "d": 727.2727999999915,
      "v": 46
    },
    {
      "midi": 72,
      "hit": false,
      "t": 113636.37499999952,
      "d": 727.2727999999915,
      "v": 65
    },
    {
      "midi": 67,
      "hit": false,
      "t": 114545.4659999995,
      "d": 424.24246666666295,
      "v": 64
    },
    {
      "midi": 72,
      "hit": false,
      "t": 114545.4659999995,
      "d": 454.5454999999929,
      "v": 70
    },
    {
      "midi": 60,
      "hit": false,
      "t": 114545.4659999995,
      "d": 727.2727999999915,
      "v": 79
    },
    {
      "midi": 52,
      "hit": false,
      "t": 114545.4659999995,
      "d": 750.000074999989,
      "v": 43
    },
    {
      "midi": 55,
      "hit": false,
      "t": 114545.4659999995,
      "d": 750.000074999989,
      "v": 64
    },
    {
      "midi": 76,
      "hit": false,
      "t": 114545.4659999995,
      "d": 765.151591666654,
      "v": 48
    },
    {
      "midi": 79,
      "hit": false,
      "t": 114545.4659999995,
      "d": 765.151591666654,
      "v": 52
    },
    {
      "midi": 67,
      "hit": false,
      "t": 115151.52666666616,
      "d": 257.5757833333337,
      "v": 64
    },
    {
      "midi": 72,
      "hit": false,
      "t": 115151.52666666616,
      "d": 719.6970416666591,
      "v": 70
    },
    {
      "midi": 52,
      "hit": false,
      "t": 115454.55699999949,
      "d": 750.0000750000036,
      "v": 46
    },
    {
      "midi": 55,
      "hit": false,
      "t": 115454.55699999949,
      "d": 757.575833333336,
      "v": 60
    },
    {
      "midi": 67,
      "hit": false,
      "t": 115454.55699999949,
      "d": 795.4546249999985,
      "v": 64
    },
    {
      "midi": 60,
      "hit": false,
      "t": 115454.55699999949,
      "d": 810.6061416666635,
      "v": 69
    },
    {
      "midi": 69,
      "hit": false,
      "t": 116363.64799999949,
      "d": 530.3030833333323,
      "v": 71
    },
    {
      "midi": 72,
      "hit": false,
      "t": 116363.64799999949,
      "d": 530.3030833333323,
      "v": 59
    },
    {
      "midi": 53,
      "hit": false,
      "t": 116363.64799999949,
      "d": 666.6667333333316,
      "v": 59
    },
    {
      "midi": 60,
      "hit": false,
      "t": 116363.64799999949,
      "d": 674.2424916666641,
      "v": 53
    },
    {
      "midi": 57,
      "hit": false,
      "t": 116363.64799999949,
      "d": 681.8182499999966,
      "v": 64
    },
    {
      "midi": 53,
      "hit": false,
      "t": 117272.73899999949,
      "d": 704.5455250000086,
      "v": 51
    },
    {
      "midi": 57,
      "hit": false,
      "t": 117272.73899999949,
      "d": 712.1212833333411,
      "v": 63
    },
    {
      "midi": 60,
      "hit": false,
      "t": 117272.73899999949,
      "d": 712.1212833333411,
      "v": 56
    },
    {
      "midi": 69,
      "hit": false,
      "t": 117272.73899999949,
      "d": 780.3031083333481,
      "v": 67
    },
    {
      "midi": 72,
      "hit": false,
      "t": 117272.73899999949,
      "d": 803.0303833333455,
      "v": 60
    },
    {
      "midi": 81,
      "hit": false,
      "t": 117878.79966666616,
      "d": 590.9091500000068,
      "v": 61
    },
    {
      "midi": 77,
      "hit": false,
      "t": 118181.8299999995,
      "d": 545.4545999999973,
      "v": 75
    },
    {
      "midi": 69,
      "hit": false,
      "t": 118181.8299999995,
      "d": 681.8182499999966,
      "v": 63
    },
    {
      "midi": 72,
      "hit": false,
      "t": 118181.8299999995,
      "d": 696.9697666666616,
      "v": 67
    },
    {
      "midi": 53,
      "hit": false,
      "t": 118181.8299999995,
      "d": 704.5455249999941,
      "v": 62
    },
    {
      "midi": 60,
      "hit": false,
      "t": 118181.8299999995,
      "d": 719.6970416666591,
      "v": 52
    },
    {
      "midi": 57,
      "hit": false,
      "t": 118181.8299999995,
      "d": 727.2727999999915,
      "v": 57
    },
    {
      "midi": 81,
      "hit": false,
      "t": 118787.89066666616,
      "d": 598.4849083333247,
      "v": 75
    },
    {
      "midi": 72,
      "hit": false,
      "t": 119090.9209999995,
      "d": 500.0000500000024,
      "v": 46
    },
    {
      "midi": 84,
      "hit": false,
      "t": 119090.9209999995,
      "d": 590.9091500000068,
      "v": 66
    },
    {
      "midi": 60,
      "hit": false,
      "t": 119090.9209999995,
      "d": 719.6970416666736,
      "v": 60
    },
    {
      "midi": 69,
      "hit": false,
      "t": 119090.9209999995,
      "d": 727.2728000000061,
      "v": 60
    },
    {
      "midi": 53,
      "hit": false,
      "t": 119090.9209999995,
      "d": 848.4849333333405,
      "v": 67
    },
    {
      "midi": 57,
      "hit": false,
      "t": 119090.9209999995,
      "d": 856.0606916666729,
      "v": 64
    },
    {
      "midi": 72,
      "hit": false,
      "t": 119696.98166666616,
      "d": 280.30305833333114,
      "v": 59
    },
    {
      "midi": 72,
      "hit": false,
      "t": 120000.0119999995,
      "d": 553.0303583333298,
      "v": 42
    },
    {
      "midi": 55,
      "hit": false,
      "t": 120000.0119999995,
      "d": 628.7879416666692,
      "v": 62
    },
    {
      "midi": 60,
      "hit": false,
      "t": 120000.0119999995,
      "d": 628.7879416666692,
      "v": 69
    },
    {
      "midi": 52,
      "hit": false,
      "t": 120000.0119999995,
      "d": 636.3637000000017,
      "v": 43
    },
    {
      "midi": 67,
      "hit": false,
      "t": 120000.0119999995,
      "d": 878.7879666666704,
      "v": 36
    },
    {
      "midi": 76,
      "hit": false,
      "t": 120000.0119999995,
      "d": 886.3637250000029,
      "v": 39
    },
    {
      "midi": 72,
      "hit": false,
      "t": 120909.1029999995,
      "d": 477.2727750000049,
      "v": 42
    },
    {
      "midi": 60,
      "hit": false,
      "t": 120909.1029999995,
      "d": 704.5455250000086,
      "v": 68
    },
    {
      "midi": 55,
      "hit": false,
      "t": 120909.1029999995,
      "d": 719.6970416666736,
      "v": 57
    },
    {
      "midi": 52,
      "hit": false,
      "t": 120909.1029999995,
      "d": 727.2728000000061,
      "v": 46
    },
    {
      "midi": 72,
      "hit": false,
      "t": 121515.16366666617,
      "d": 666.6667333333316,
      "v": 68
    },
    {
      "midi": 76,
      "hit": false,
      "t": 121515.16366666617,
      "d": 825.7576583333284,
      "v": 58
    },
    {
      "midi": 67,
      "hit": false,
      "t": 121515.16366666617,
      "d": 840.9091749999934,
      "v": 63
    },
    {
      "midi": 60,
      "hit": false,
      "t": 121818.1939999995,
      "d": 727.2728000000061,
      "v": 79
    },
    {
      "midi": 52,
      "hit": false,
      "t": 121818.1939999995,
      "d": 750.0000750000036,
      "v": 43
    },
    {
      "midi": 55,
      "hit": false,
      "t": 121818.1939999995,
      "d": 750.0000750000036,
      "v": 64
    },
    {
      "midi": 76,
      "hit": false,
      "t": 122424.25466666617,
      "d": 719.6970416666591,
      "v": 57
    },
    {
      "midi": 72,
      "hit": false,
      "t": 122727.2849999995,
      "d": 696.9697666666616,
      "v": 38
    },
    {
      "midi": 67,
      "hit": false,
      "t": 122727.2849999995,
      "d": 719.6970416666591,
      "v": 62
    },
    {
      "midi": 52,
      "hit": false,
      "t": 122727.2849999995,
      "d": 750.000074999989,
      "v": 46
    },
    {
      "midi": 55,
      "hit": false,
      "t": 122727.2849999995,
      "d": 757.5758333333215,
      "v": 60
    },
    {
      "midi": 60,
      "hit": false,
      "t": 122727.2849999995,
      "d": 810.6061416666489,
      "v": 69
    },
    {
      "midi": 79,
      "hit": false,
      "t": 123636.37599999948,
      "d": 560.6061166666623,
      "v": 68
    },
    {
      "midi": 84,
      "hit": false,
      "t": 123636.37599999948,
      "d": 583.3333916666597,
      "v": 72
    },
    {
      "midi": 55,
      "hit": false,
      "t": 123636.37599999948,
      "d": 628.7879416666547,
      "v": 62
    },
    {
      "midi": 60,
      "hit": false,
      "t": 123636.37599999948,
      "d": 628.7879416666547,
      "v": 69
    },
    {
      "midi": 52,
      "hit": false,
      "t": 123636.37599999948,
      "d": 636.3636999999871,
      "v": 43
    },
    {
      "midi": 72,
      "hit": false,
      "t": 124242.43666666614,
      "d": 719.6970416666591,
      "v": 57
    },
    {
      "midi": 60,
      "hit": false,
      "t": 124545.46699999947,
      "d": 704.5455249999941,
      "v": 68
    },
    {
      "midi": 55,
      "hit": false,
      "t": 124545.46699999947,
      "d": 719.6970416666591,
      "v": 57
    },
    {
      "midi": 52,
      "hit": false,
      "t": 124545.46699999947,
      "d": 727.2727999999915,
      "v": 46
    },
    {
      "midi": 79,
      "hit": false,
      "t": 124545.46699999947,
      "d": 787.8788666666514,
      "v": 63
    },
    {
      "midi": 72,
      "hit": false,
      "t": 125151.52766666612,
      "d": 719.6970416666736,
      "v": 57
    },
    {
      "midi": 84,
      "hit": false,
      "t": 125454.55799999945,
      "d": 204.54547500000626,
      "v": 63
    },
    {
      "midi": 79,
      "hit": false,
      "t": 125454.55799999945,
      "d": 227.27275000000373,
      "v": 58
    },
    {
      "midi": 55,
      "hit": false,
      "t": 125454.55799999945,
      "d": 681.8182500000257,
      "v": 64
    },
    {
      "midi": 52,
      "hit": false,
      "t": 125454.55799999945,
      "d": 727.2728000000207,
      "v": 43
    },
    {
      "midi": 60,
      "hit": false,
      "t": 125454.55799999945,
      "d": 772.7273500000156,
      "v": 79
    },
    {
      "midi": 79,
      "hit": false,
      "t": 125757.5883333328,
      "d": 189.3939583333413,
      "v": 72
    },
    {
      "midi": 84,
      "hit": false,
      "t": 125757.5883333328,
      "d": 212.12123333333875,
      "v": 71
    },
    {
      "midi": 79,
      "hit": false,
      "t": 126060.61866666614,
      "d": 196.96971666665922,
      "v": 61
    },
    {
      "midi": 84,
      "hit": false,
      "t": 126060.61866666614,
      "d": 212.1212333333242,
      "v": 70
    },
    {
      "midi": 79,
      "hit": false,
      "t": 126363.64899999947,
      "d": 189.39395833332674,
      "v": 62
    },
    {
      "midi": 84,
      "hit": false,
      "t": 126363.64899999947,
      "d": 219.6969916666567,
      "v": 71
    },
    {
      "midi": 55,
      "hit": false,
      "t": 126363.64899999947,
      "d": 795.4546249999985,
      "v": 60
    },
    {
      "midi": 60,
      "hit": false,
      "t": 126363.64899999947,
      "d": 825.7576583333284,
      "v": 69
    },
    {
      "midi": 52,
      "hit": false,
      "t": 126363.64899999947,
      "d": 848.4849333333259,
      "v": 46
    },
    {
      "midi": 72,
      "hit": false,
      "t": 126371.2247583328,
      "d": 719.6970416666591,
      "v": 57
    },
    {
      "midi": 79,
      "hit": false,
      "t": 126666.6793333328,
      "d": 219.69699166667124,
      "v": 58
    },
    {
      "midi": 84,
      "hit": false,
      "t": 126666.6793333328,
      "d": 265.15154166666616,
      "v": 69
    },
    {
      "midi": 79,
      "hit": false,
      "t": 126969.70966666612,
      "d": 189.3939583333413,
      "v": 60
    },
    {
      "midi": 84,
      "hit": false,
      "t": 126969.70966666612,
      "d": 196.96971666667378,
      "v": 76
    },
    {
      "midi": 55,
      "hit": false,
      "t": 127272.73999999945,
      "d": 628.7879416666692,
      "v": 62
    },
    {
      "midi": 60,
      "hit": false,
      "t": 127272.73999999945,
      "d": 628.7879416666692,
      "v": 69
    },
    {
      "midi": 52,
      "hit": false,
      "t": 127272.73999999945,
      "d": 636.3637000000017,
      "v": 43
    },
    {
      "midi": 76,
      "hit": false,
      "t": 127272.73999999945,
      "d": 893.9394833333354,
      "v": 44
    },
    {
      "midi": 79,
      "hit": false,
      "t": 127272.73999999945,
      "d": 893.9394833333354,
      "v": 59
    },
    {
      "midi": 60,
      "hit": false,
      "t": 128181.83099999945,
      "d": 704.5455250000086,
      "v": 68
    },
    {
      "midi": 67,
      "hit": false,
      "t": 128181.83099999945,
      "d": 704.5455250000086,
      "v": 58
    },
    {
      "midi": 55,
      "hit": false,
      "t": 128181.83099999945,
      "d": 719.6970416666736,
      "v": 57
    },
    {
      "midi": 52,
      "hit": false,
      "t": 128181.83099999945,
      "d": 727.2728000000061,
      "v": 46
    },
    {
      "midi": 72,
      "hit": false,
      "t": 128181.83099999945,
      "d": 727.2728000000061,
      "v": 65
    },
    {
      "midi": 69,
      "hit": false,
      "t": 128787.89166666612,
      "d": 424.24246666666295,
      "v": 72
    },
    {
      "midi": 67,
      "hit": false,
      "t": 129090.92199999945,
      "d": 424.24246666666295,
      "v": 64
    },
    {
      "midi": 72,
      "hit": false,
      "t": 129090.92199999945,
      "d": 454.5454999999929,
      "v": 70
    },
    {
      "midi": 60,
      "hit": false,
      "t": 129090.92199999945,
      "d": 727.2727999999915,
      "v": 79
    },
    {
      "midi": 52,
      "hit": false,
      "t": 129090.92199999945,
      "d": 750.000074999989,
      "v": 43
    },
    {
      "midi": 55,
      "hit": false,
      "t": 129090.92199999945,
      "d": 750.000074999989,
      "v": 64
    },
    {
      "midi": 76,
      "hit": false,
      "t": 129090.92199999945,
      "d": 765.151591666654,
      "v": 48
    },
    {
      "midi": 79,
      "hit": false,
      "t": 129090.92199999945,
      "d": 765.151591666654,
      "v": 52
    },
    {
      "midi": 67,
      "hit": false,
      "t": 129696.98266666611,
      "d": 712.1212833333266,
      "v": 64
    },
    {
      "midi": 72,
      "hit": false,
      "t": 129696.98266666611,
      "d": 719.6970416666591,
      "v": 70
    },
    {
      "midi": 52,
      "hit": false,
      "t": 130000.01299999944,
      "d": 750.000074999989,
      "v": 46
    },
    {
      "midi": 55,
      "hit": false,
      "t": 130000.01299999944,
      "d": 757.5758333333215,
      "v": 60
    },
    {
      "midi": 60,
      "hit": false,
      "t": 130000.01299999944,
      "d": 810.6061416666489,
      "v": 69
    },
    {
      "midi": 79,
      "hit": false,
      "t": 130007.58875833277,
      "d": 765.151591666654,
      "v": 52
    },
    {
      "midi": 76,
      "hit": false,
      "t": 130606.0736666661,
      "d": 356.060641666656,
      "v": 59
    },
    {
      "midi": 69,
      "hit": false,
      "t": 130909.10399999942,
      "d": 530.3030833333178,
      "v": 71
    },
    {
      "midi": 72,
      "hit": false,
      "t": 130909.10399999942,
      "d": 530.3030833333178,
      "v": 59
    },
    {
      "midi": 84,
      "hit": false,
      "t": 130909.10399999942,
      "d": 590.9091499999777,
      "v": 66
    },
    {
      "midi": 53,
      "hit": false,
      "t": 130909.10399999942,
      "d": 666.6667333333025,
      "v": 59
    },
    {
      "midi": 60,
      "hit": false,
      "t": 130909.10399999942,
      "d": 674.2424916666496,
      "v": 53
    },
    {
      "midi": 57,
      "hit": false,
      "t": 130909.10399999942,
      "d": 681.8182499999966,
      "v": 64
    },
    {
      "midi": 77,
      "hit": false,
      "t": 131818.19499999942,
      "d": 545.4545999999973,
      "v": 75
    },
    {
      "midi": 53,
      "hit": false,
      "t": 131818.19499999942,
      "d": 704.5455249999941,
      "v": 51
    },
    {
      "midi": 57,
      "hit": false,
      "t": 131818.19499999942,
      "d": 712.1212833333411,
      "v": 63
    },
    {
      "midi": 60,
      "hit": false,
      "t": 131818.19499999942,
      "d": 712.1212833333411,
      "v": 56
    },
    {
      "midi": 69,
      "hit": false,
      "t": 131818.19499999942,
      "d": 780.3031083333481,
      "v": 67
    },
    {
      "midi": 72,
      "hit": false,
      "t": 131818.19499999942,
      "d": 803.0303833333601,
      "v": 60
    },
    {
      "midi": 81,
      "hit": false,
      "t": 132727.28599999944,
      "d": 590.9091499999922,
      "v": 71
    },
    {
      "midi": 69,
      "hit": false,
      "t": 132727.28599999944,
      "d": 681.8182499999821,
      "v": 63
    },
    {
      "midi": 72,
      "hit": false,
      "t": 132727.28599999944,
      "d": 696.969766666647,
      "v": 67
    },
    {
      "midi": 53,
      "hit": false,
      "t": 132727.28599999944,
      "d": 704.5455249999941,
      "v": 62
    },
    {
      "midi": 60,
      "hit": false,
      "t": 132727.28599999944,
      "d": 719.6970416666591,
      "v": 52
    },
    {
      "midi": 57,
      "hit": false,
      "t": 132727.28599999944,
      "d": 727.2728000000061,
      "v": 57
    },
    {
      "midi": 81,
      "hit": false,
      "t": 133636.37699999945,
      "d": 598.4849083333393,
      "v": 75
    },
    {
      "midi": 72,
      "hit": false,
      "t": 133636.37699999945,
      "d": 712.1212833333411,
      "v": 46
    },
    {
      "midi": 60,
      "hit": false,
      "t": 133636.37699999945,
      "d": 719.6970416666882,
      "v": 60
    },
    {
      "midi": 69,
      "hit": false,
      "t": 133636.37699999945,
      "d": 727.2728000000352,
      "v": 60
    },
    {
      "midi": 53,
      "hit": false,
      "t": 133636.37699999945,
      "d": 848.484933333355,
      "v": 67
    },
    {
      "midi": 57,
      "hit": false,
      "t": 133636.37699999945,
      "d": 856.060691666702,
      "v": 64
    },
    {
      "midi": 79,
      "hit": false,
      "t": 134545.4679999995,
      "d": 560.6061166666623,
      "v": 68
    },
    {
      "midi": 55,
      "hit": false,
      "t": 134545.4679999995,
      "d": 628.7879416666692,
      "v": 62
    },
    {
      "midi": 60,
      "hit": false,
      "t": 134545.4679999995,
      "d": 628.7879416666692,
      "v": 69
    },
    {
      "midi": 52,
      "hit": false,
      "t": 134545.4679999995,
      "d": 636.3637000000163,
      "v": 43
    },
    {
      "midi": 72,
      "hit": false,
      "t": 135151.52866666616,
      "d": 719.6970416666882,
      "v": 57
    },
    {
      "midi": 60,
      "hit": false,
      "t": 135454.5589999995,
      "d": 704.5455249999941,
      "v": 68
    },
    {
      "midi": 55,
      "hit": false,
      "t": 135454.5589999995,
      "d": 719.6970416666591,
      "v": 57
    },
    {
      "midi": 52,
      "hit": false,
      "t": 135454.5589999995,
      "d": 727.2728000000061,
      "v": 46
    },
    {
      "midi": 79,
      "hit": false,
      "t": 135454.5589999995,
      "d": 787.878866666666,
      "v": 63
    },
    {
      "midi": 76,
      "hit": false,
      "t": 136060.61966666617,
      "d": 583.3333916666743,
      "v": 69
    },
    {
      "midi": 55,
      "hit": false,
      "t": 136363.6499999995,
      "d": 681.8182500000112,
      "v": 64
    },
    {
      "midi": 52,
      "hit": false,
      "t": 136363.6499999995,
      "d": 727.2728000000061,
      "v": 43
    },
    {
      "midi": 60,
      "hit": false,
      "t": 136363.6499999995,
      "d": 772.727350000001,
      "v": 79
    },
    {
      "midi": 76,
      "hit": false,
      "t": 136969.7106666662,
      "d": 583.3333916666743,
      "v": 55
    },
    {
      "midi": 55,
      "hit": false,
      "t": 137272.7409999995,
      "d": 795.454625000013,
      "v": 60
    },
    {
      "midi": 60,
      "hit": false,
      "t": 137272.7409999995,
      "d": 825.757658333343,
      "v": 69
    },
    {
      "midi": 52,
      "hit": false,
      "t": 137272.7409999995,
      "d": 848.484933333355,
      "v": 46
    },
    {
      "midi": 72,
      "hit": false,
      "t": 138181.83199999953,
      "d": 553.0303583333443,
      "v": 56
    },
    {
      "midi": 55,
      "hit": false,
      "t": 138181.83199999953,
      "d": 628.7879416666692,
      "v": 56
    },
    {
      "midi": 60,
      "hit": false,
      "t": 138181.83199999953,
      "d": 628.7879416666692,
      "v": 52
    },
    {
      "midi": 52,
      "hit": false,
      "t": 138181.83199999953,
      "d": 636.3637000000163,
      "v": 39
    },
    {
      "midi": 67,
      "hit": false,
      "t": 138181.83199999953,
      "d": 878.787966666685,
      "v": 50
    },
    {
      "midi": 60,
      "hit": false,
      "t": 139090.92299999954,
      "d": 704.5455249999941,
      "v": 51
    },
    {
      "midi": 55,
      "hit": false,
      "t": 139090.92299999954,
      "d": 719.6970416666591,
      "v": 51
    },
    {
      "midi": 52,
      "hit": false,
      "t": 139090.92299999954,
      "d": 727.2728000000061,
      "v": 41
    },
    {
      "midi": 72,
      "hit": false,
      "t": 139090.92299999954,
      "d": 750.0000750000181,
      "v": 56
    },
    {
      "midi": 70,
      "hit": false,
      "t": 140000.01399999956,
      "d": 712.1212833333411,
      "v": 61
    },
    {
      "midi": 74,
      "hit": false,
      "t": 140000.01399999956,
      "d": 712.1212833333411,
      "v": 61
    },
    {
      "midi": 58,
      "hit": false,
      "t": 140000.01399999956,
      "d": 727.2728000000061,
      "v": 61
    },
    {
      "midi": 50,
      "hit": false,
      "t": 140000.01399999956,
      "d": 750.0000750000181,
      "v": 39
    },
    {
      "midi": 53,
      "hit": false,
      "t": 140000.01399999956,
      "d": 750.0000750000181,
      "v": 58
    },
    {
      "midi": 65,
      "hit": false,
      "t": 140000.01399999956,
      "d": 840.909175000008,
      "v": 57
    },
    {
      "midi": 72,
      "hit": false,
      "t": 140909.10499999957,
      "d": 696.9697666666762,
      "v": 34
    },
    {
      "midi": 69,
      "hit": false,
      "t": 140909.10499999957,
      "d": 719.6970416666882,
      "v": 56
    },
    {
      "midi": 77,
      "hit": false,
      "t": 140909.10499999957,
      "d": 719.6970416666882,
      "v": 51
    },
    {
      "midi": 53,
      "hit": false,
      "t": 140909.10499999957,
      "d": 750.0000750000181,
      "v": 41
    },
    {
      "midi": 57,
      "hit": false,
      "t": 140909.10499999957,
      "d": 757.5758333333652,
      "v": 54
    },
    {
      "midi": 60,
      "hit": false,
      "t": 140909.10499999957,
      "d": 810.6061416667071,
      "v": 52
    },
    {
      "midi": 48,
      "hit": false,
      "t": 141818.19599999962,
      "d": 757.5758333333652,
      "v": 50
    },
    {
      "midi": 52,
      "hit": false,
      "t": 141818.19599999962,
      "d": 1477.2728750000533,
      "v": 50
    },
    {
      "midi": 55,
      "hit": false,
      "t": 141818.19599999962,
      "d": 1477.2728750000533,
      "v": 50
    },
    {
      "midi": 64,
      "hit": false,
      "t": 141840.92327499963,
      "d": 386.3636750000005,
      "v": 29
    },
    {
      "midi": 67,
      "hit": false,
      "t": 142121.22633333298,
      "d": 583.3333916666743,
      "v": 27
    },
    {
      "midi": 72,
      "hit": false,
      "t": 142424.2566666663,
      "d": 378.7879166666826,
      "v": 27
    },
    {
      "midi": 76,
      "hit": false,
      "t": 142727.28699999966,
      "d": 310.60609166667564,
      "v": 31
    },
    {
      "midi": 48,
      "hit": false,
      "t": 142727.28699999966,
      "d": 757.5758333333652,
      "v": 26
    },
    {
      "midi": 72,
      "hit": false,
      "t": 143030.317333333,
      "d": 371.21215833336464,
      "v": 29
    },
    {
      "midi": 67,
      "hit": false,
      "t": 143333.34766666635,
      "d": 318.1818500000227,
      "v": 33
    },
    {
      "midi": 64,
      "hit": false,
      "t": 143636.3779999997,
      "d": 409.0909499999834,
      "v": 30
    },
    {
      "midi": 52,
      "hit": false,
      "t": 143636.3779999997,
      "d": 795.454625000013,
      "v": 23
    },
    {
      "midi": 48,
      "hit": false,
      "t": 143636.3779999997,
      "d": 1598.485008333344,
      "v": 27
    },
    {
      "midi": 55,
      "hit": false,
      "t": 143636.3779999997,
      "d": 1696.969866666681,
      "v": 24
    },
    {
      "midi": 67,
      "hit": false,
      "t": 143939.40833333303,
      "d": 439.3939833333425,
      "v": 30
    },
    {
      "midi": 72,
      "hit": false,
      "t": 144242.43866666636,
      "d": 378.7879166666826,
      "v": 33
    },
    {
      "midi": 76,
      "hit": false,
      "t": 144545.46899999972,
      "d": 333.33336666665855,
      "v": 34
    },
    {
      "midi": 52,
      "hit": false,
      "t": 144545.46899999972,
      "d": 795.454625000013,
      "v": 24
    },
    {
      "midi": 72,
      "hit": false,
      "t": 144848.49933333305,
      "d": 333.33336666665855,
      "v": 38
    },
    {
      "midi": 67,
      "hit": false,
      "t": 145151.52966666638,
      "d": 280.3030583333457,
      "v": 30
    },
    {
      "midi": 64,
      "hit": false,
      "t": 145454.55999999974,
      "d": 386.3636750000005,
      "v": 33
    },
    {
      "midi": 48,
      "hit": false,
      "t": 145454.55999999974,
      "d": 757.575833333336,
      "v": 30
    },
    {
      "midi": 52,
      "hit": false,
      "t": 145454.55999999974,
      "d": 1477.2728750000242,
      "v": 32
    },
    {
      "midi": 57,
      "hit": false,
      "t": 145454.55999999974,
      "d": 1477.2728750000242,
      "v": 31
    },
    {
      "midi": 69,
      "hit": false,
      "t": 145757.59033333306,
      "d": 583.3333916666743,
      "v": 31
    },
    {
      "midi": 72,
      "hit": false,
      "t": 146060.6206666664,
      "d": 378.7879166666826,
      "v": 32
    },
    {
      "midi": 76,
      "hit": false,
      "t": 146363.65099999975,
      "d": 310.60609166667564,
      "v": 36
    },
    {
      "midi": 48,
      "hit": false,
      "t": 146363.65099999975,
      "d": 757.5758333333652,
      "v": 31
    },
    {
      "midi": 72,
      "hit": false,
      "t": 146666.68133333308,
      "d": 371.21215833336464,
      "v": 33
    },
    {
      "midi": 67,
      "hit": false,
      "t": 146969.71166666644,
      "d": 318.1818500000227,
      "v": 38
    },
    {
      "midi": 64,
      "hit": false,
      "t": 147272.7419999998,
      "d": 409.0909499999834,
      "v": 35
    },
    {
      "midi": 52,
      "hit": false,
      "t": 147272.7419999998,
      "d": 795.454625000013,
      "v": 27
    },
    {
      "midi": 48,
      "hit": false,
      "t": 147272.7419999998,
      "d": 1598.485008333344,
      "v": 31
    },
    {
      "midi": 57,
      "hit": false,
      "t": 147272.7419999998,
      "d": 1696.969866666681,
      "v": 27
    },
    {
      "midi": 69,
      "hit": false,
      "t": 147575.77233333312,
      "d": 439.3939833333425,
      "v": 35
    },
    {
      "midi": 72,
      "hit": false,
      "t": 147878.80266666645,
      "d": 378.7879166666826,
      "v": 38
    },
    {
      "midi": 76,
      "hit": false,
      "t": 148181.8329999998,
      "d": 333.33336666665855,
      "v": 39
    },
    {
      "midi": 52,
      "hit": false,
      "t": 148181.8329999998,
      "d": 795.454625000013,
      "v": 27
    },
    {
      "midi": 72,
      "hit": false,
      "t": 148484.86333333314,
      "d": 333.33336666665855,
      "v": 44
    },
    {
      "midi": 69,
      "hit": false,
      "t": 148787.89366666647,
      "d": 280.3030583333457,
      "v": 35
    },
    {
      "midi": 65,
      "hit": false,
      "t": 149090.92399999982,
      "d": 386.3636750000005,
      "v": 38
    },
    {
      "midi": 50,
      "hit": false,
      "t": 149090.92399999982,
      "d": 757.575833333336,
      "v": 34
    },
    {
      "midi": 53,
      "hit": false,
      "t": 149090.92399999982,
      "d": 1477.2728750000242,
      "v": 36
    },
    {
      "midi": 57,
      "hit": false,
      "t": 149090.92399999982,
      "d": 1477.2728750000242,
      "v": 35
    },
    {
      "midi": 69,
      "hit": false,
      "t": 149393.95433333315,
      "d": 583.3333916666743,
      "v": 36
    },
    {
      "midi": 74,
      "hit": false,
      "t": 149696.98466666648,
      "d": 378.7879166666826,
      "v": 36
    },
    {
      "midi": 77,
      "hit": false,
      "t": 150000.01499999984,
      "d": 310.60609166667564,
      "v": 41
    },
    {
      "midi": 50,
      "hit": false,
      "t": 150000.01499999984,
      "d": 757.5758333333652,
      "v": 35
    },
    {
      "midi": 74,
      "hit": false,
      "t": 150303.04533333317,
      "d": 371.21215833336464,
      "v": 38
    },
    {
      "midi": 69,
      "hit": false,
      "t": 150606.07566666653,
      "d": 318.1818500000227,
      "v": 43
    },
    {
      "midi": 65,
      "hit": false,
      "t": 150909.10599999988,
      "d": 409.0909499999834,
      "v": 40
    },
    {
      "midi": 53,
      "hit": false,
      "t": 150909.10599999988,
      "d": 795.454625000013,
      "v": 30
    },
    {
      "midi": 50,
      "hit": false,
      "t": 150909.10599999988,
      "d": 1598.485008333344,
      "v": 35
    },
    {
      "midi": 57,
      "hit": false,
      "t": 150909.10599999988,
      "d": 1696.969866666681,
      "v": 31
    },
    {
      "midi": 69,
      "hit": false,
      "t": 151212.1363333332,
      "d": 439.3939833333425,
      "v": 39
    },
    {
      "midi": 74,
      "hit": false,
      "t": 151515.16666666654,
      "d": 378.7879166666826,
      "v": 43
    },
    {
      "midi": 77,
      "hit": false,
      "t": 151818.1969999999,
      "d": 333.33336666665855,
      "v": 44
    },
    {
      "midi": 53,
      "hit": false,
      "t": 151818.1969999999,
      "d": 795.454625000013,
      "v": 31
    },
    {
      "midi": 74,
      "hit": false,
      "t": 152121.22733333323,
      "d": 333.33336666665855,
      "v": 50
    },
    {
      "midi": 69,
      "hit": false,
      "t": 152424.25766666656,
      "d": 280.3030583333457,
      "v": 39
    },
    {
      "midi": 62,
      "hit": false,
      "t": 152727.2879999999,
      "d": 386.3636750000005,
      "v": 43
    },
    {
      "midi": 47,
      "hit": false,
      "t": 152727.2879999999,
      "d": 757.575833333336,
      "v": 38
    },
    {
      "midi": 50,
      "hit": false,
      "t": 152727.2879999999,
      "d": 1477.2728750000242,
      "v": 41
    },
    {
      "midi": 55,
      "hit": false,
      "t": 152727.2879999999,
      "d": 1477.2728750000242,
      "v": 40
    },
    {
      "midi": 67,
      "hit": false,
      "t": 153030.31833333324,
      "d": 583.3333916666743,
      "v": 40
    },
    {
      "midi": 71,
      "hit": false,
      "t": 153333.34866666657,
      "d": 378.7879166666826,
      "v": 40
    },
    {
      "midi": 74,
      "hit": false,
      "t": 153636.37899999993,
      "d": 310.60609166667564,
      "v": 46
    },
    {
      "midi": 47,
      "hit": false,
      "t": 153636.37899999993,
      "d": 757.5758333333652,
      "v": 39
    },
    {
      "midi": 71,
      "hit": false,
      "t": 153939.40933333326,
      "d": 371.21215833336464,
      "v": 43
    },
    {
      "midi": 67,
      "hit": false,
      "t": 154242.4396666666,
      "d": 318.1818500000227,
      "v": 48
    },
    {
      "midi": 62,
      "hit": false,
      "t": 154545.46999999997,
      "d": 409.0909499999834,
      "v": 44
    },
    {
      "midi": 50,
      "hit": false,
      "t": 154545.46999999997,
      "d": 795.454625000013,
      "v": 33
    },
    {
      "midi": 47,
      "hit": false,
      "t": 154545.46999999997,
      "d": 1598.485008333344,
      "v": 39
    },
    {
      "midi": 55,
      "hit": false,
      "t": 154545.46999999997,
      "d": 1696.969866666681,
      "v": 34
    },
    {
      "midi": 67,
      "hit": false,
      "t": 154848.5003333333,
      "d": 439.3939833333425,
      "v": 44
    },
    {
      "midi": 71,
      "hit": false,
      "t": 155151.53066666663,
      "d": 378.7879166666826,
      "v": 48
    },
    {
      "midi": 74,
      "hit": false,
      "t": 155454.561,
      "d": 333.33336666665855,
      "v": 49
    },
    {
      "midi": 50,
      "hit": false,
      "t": 155454.561,
      "d": 795.454625000013,
      "v": 34
    },
    {
      "midi": 71,
      "hit": false,
      "t": 155757.59133333332,
      "d": 333.33336666665855,
      "v": 56
    },
    {
      "midi": 67,
      "hit": false,
      "t": 156060.62166666664,
      "d": 280.3030583333457,
      "v": 44
    },
    {
      "midi": 64,
      "hit": false,
      "t": 156363.652,
      "d": 386.3636750000005,
      "v": 48
    },
    {
      "midi": 48,
      "hit": false,
      "t": 156363.652,
      "d": 757.575833333336,
      "v": 42
    },
    {
      "midi": 52,
      "hit": false,
      "t": 156363.652,
      "d": 1477.2728750000242,
      "v": 45
    },
    {
      "midi": 55,
      "hit": false,
      "t": 156363.652,
      "d": 1477.2728750000242,
      "v": 44
    },
    {
      "midi": 67,
      "hit": false,
      "t": 156666.68233333333,
      "d": 583.3333916666743,
      "v": 45
    },
    {
      "midi": 72,
      "hit": false,
      "t": 156969.71266666666,
      "d": 378.7879166666826,
      "v": 45
    },
    {
      "midi": 76,
      "hit": false,
      "t": 157272.74300000002,
      "d": 310.60609166667564,
      "v": 51
    },
    {
      "midi": 48,
      "hit": false,
      "t": 157272.74300000002,
      "d": 757.5758333333652,
      "v": 43
    },
    {
      "midi": 72,
      "hit": false,
      "t": 157575.77333333335,
      "d": 371.21215833336464,
      "v": 47
    },
    {
      "midi": 67,
      "hit": false,
      "t": 157878.8036666667,
      "d": 318.1818500000227,
      "v": 53
    },
    {
      "midi": 64,
      "hit": false,
      "t": 158181.83400000006,
      "d": 409.0909499999834,
      "v": 49
    },
    {
      "midi": 52,
      "hit": false,
      "t": 158181.83400000006,
      "d": 795.454625000013,
      "v": 37
    },
    {
      "midi": 48,
      "hit": false,
      "t": 158181.83400000006,
      "d": 1598.485008333344,
      "v": 43
    },
    {
      "midi": 55,
      "hit": false,
      "t": 158181.83400000006,
      "d": 1696.969866666681,
      "v": 38
    },
    {
      "midi": 67,
      "hit": false,
      "t": 158484.8643333334,
      "d": 439.3939833333425,
      "v": 49
    },
    {
      "midi": 72,
      "hit": false,
      "t": 158787.89466666672,
      "d": 378.7879166666826,
      "v": 53
    },
    {
      "midi": 76,
      "hit": false,
      "t": 159090.92500000008,
      "d": 333.33336666665855,
      "v": 54
    },
    {
      "midi": 52,
      "hit": false,
      "t": 159090.92500000008,
      "d": 795.454625000013,
      "v": 37
    },
    {
      "midi": 72,
      "hit": false,
      "t": 159393.9553333334,
      "d": 333.33336666665855,
      "v": 61
    },
    {
      "midi": 67,
      "hit": false,
      "t": 159696.98566666673,
      "d": 280.3030583333457,
      "v": 48
    },
    {
      "midi": 64,
      "hit": false,
      "t": 160000.0160000001,
      "d": 386.3636750000005,
      "v": 53
    },
    {
      "midi": 48,
      "hit": false,
      "t": 160000.0160000001,
      "d": 757.575833333336,
      "v": 47
    },
    {
      "midi": 52,
      "hit": false,
      "t": 160000.0160000001,
      "d": 1477.2728750000242,
      "v": 50
    },
    {
      "midi": 57,
      "hit": false,
      "t": 160000.0160000001,
      "d": 1477.2728750000242,
      "v": 49
    },
    {
      "midi": 69,
      "hit": false,
      "t": 160303.04633333342,
      "d": 583.3333916666743,
      "v": 49
    },
    {
      "midi": 72,
      "hit": false,
      "t": 160606.07666666675,
      "d": 378.7879166666826,
      "v": 49
    },
    {
      "midi": 76,
      "hit": false,
      "t": 160909.1070000001,
      "d": 310.60609166667564,
      "v": 55
    },
    {
      "midi": 48,
      "hit": false,
      "t": 160909.1070000001,
      "d": 757.5758333333652,
      "v": 47
    },
    {
      "midi": 72,
      "hit": false,
      "t": 161212.13733333343,
      "d": 371.21215833336464,
      "v": 51
    },
    {
      "midi": 67,
      "hit": false,
      "t": 161515.1676666668,
      "d": 318.1818500000227,
      "v": 57
    },
    {
      "midi": 64,
      "hit": false,
      "t": 161818.19800000015,
      "d": 409.0909499999834,
      "v": 52
    },
    {
      "midi": 52,
      "hit": false,
      "t": 161818.19800000015,
      "d": 795.454625000013,
      "v": 39
    },
    {
      "midi": 48,
      "hit": false,
      "t": 161818.19800000015,
      "d": 1598.485008333344,
      "v": 45
    },
    {
      "midi": 57,
      "hit": false,
      "t": 161818.19800000015,
      "d": 1696.969866666681,
      "v": 40
    },
    {
      "midi": 69,
      "hit": false,
      "t": 162121.22833333348,
      "d": 439.3939833333425,
      "v": 51
    },
    {
      "midi": 72,
      "hit": false,
      "t": 162424.2586666668,
      "d": 378.7879166666826,
      "v": 55
    },
    {
      "midi": 76,
      "hit": false,
      "t": 162727.28900000016,
      "d": 333.33336666665855,
      "v": 56
    },
    {
      "midi": 52,
      "hit": false,
      "t": 162727.28900000016,
      "d": 795.454625000013,
      "v": 39
    },
    {
      "midi": 72,
      "hit": false,
      "t": 163030.3193333335,
      "d": 333.33336666665855,
      "v": 63
    },
    {
      "midi": 69,
      "hit": false,
      "t": 163333.34966666682,
      "d": 280.3030583333457,
      "v": 49
    },
    {
      "midi": 65,
      "hit": false,
      "t": 163636.38000000018,
      "d": 386.3636750000005,
      "v": 53
    },
    {
      "midi": 50,
      "hit": false,
      "t": 163636.38000000018,
      "d": 757.575833333336,
      "v": 47
    },
    {
      "midi": 53,
      "hit": false,
      "t": 163636.38000000018,
      "d": 1477.2728750000242,
      "v": 50
    },
    {
      "midi": 57,
      "hit": false,
      "t": 163636.38000000018,
      "d": 1477.2728750000242,
      "v": 49
    },
    {
      "midi": 69,
      "hit": false,
      "t": 163939.4103333335,
      "d": 583.3333916666743,
      "v": 49
    },
    {
      "midi": 74,
      "hit": false,
      "t": 164242.44066666684,
      "d": 378.7879166666826,
      "v": 49
    },
    {
      "midi": 77,
      "hit": false,
      "t": 164545.4710000002,
      "d": 310.60609166667564,
      "v": 55
    },
    {
      "midi": 50,
      "hit": false,
      "t": 164545.4710000002,
      "d": 757.5758333333652,
      "v": 47
    },
    {
      "midi": 74,
      "hit": false,
      "t": 164848.50133333352,
      "d": 371.21215833336464,
      "v": 51
    },
    {
      "midi": 69,
      "hit": false,
      "t": 165151.53166666688,
      "d": 318.1818500000227,
      "v": 57
    },
    {
      "midi": 65,
      "hit": false,
      "t": 165454.56200000024,
      "d": 409.0909499999834,
      "v": 52
    },
    {
      "midi": 53,
      "hit": false,
      "t": 165454.56200000024,
      "d": 795.454625000013,
      "v": 39
    },
    {
      "midi": 50,
      "hit": false,
      "t": 165454.56200000024,
      "d": 1598.485008333344,
      "v": 45
    },
    {
      "midi": 57,
      "hit": false,
      "t": 165454.56200000024,
      "d": 1696.969866666681,
      "v": 40
    },
    {
      "midi": 69,
      "hit": false,
      "t": 165757.59233333357,
      "d": 439.3939833333425,
      "v": 51
    },
    {
      "midi": 74,
      "hit": false,
      "t": 166060.6226666669,
      "d": 378.7879166666826,
      "v": 55
    },
    {
      "midi": 77,
      "hit": false,
      "t": 166363.65300000025,
      "d": 333.33336666665855,
      "v": 56
    },
    {
      "midi": 53,
      "hit": false,
      "t": 166363.65300000025,
      "d": 795.454625000013,
      "v": 39
    },
    {
      "midi": 74,
      "hit": false,
      "t": 166666.68333333358,
      "d": 333.33336666665855,
      "v": 63
    },
    {
      "midi": 69,
      "hit": false,
      "t": 166969.7136666669,
      "d": 280.3030583333457,
      "v": 49
    },
    {
      "midi": 62,
      "hit": false,
      "t": 167272.74400000027,
      "d": 386.3636750000005,
      "v": 53
    },
    {
      "midi": 47,
      "hit": false,
      "t": 167272.74400000027,
      "d": 757.575833333336,
      "v": 47
    },
    {
      "midi": 50,
      "hit": false,
      "t": 167272.74400000027,
      "d": 1477.2728750000242,
      "v": 50
    },
    {
      "midi": 55,
      "hit": false,
      "t": 167272.74400000027,
      "d": 1477.2728750000242,
      "v": 49
    },
    {
      "midi": 67,
      "hit": false,
      "t": 167575.7743333336,
      "d": 583.3333916666743,
      "v": 49
    },
    {
      "midi": 71,
      "hit": false,
      "t": 167878.80466666693,
      "d": 378.7879166666826,
      "v": 49
    },
    {
      "midi": 74,
      "hit": false,
      "t": 168181.83500000028,
      "d": 310.60609166667564,
      "v": 55
    },
    {
      "midi": 47,
      "hit": false,
      "t": 168181.83500000028,
      "d": 757.5758333333652,
      "v": 47
    },
    {
      "midi": 71,
      "hit": false,
      "t": 168484.8653333336,
      "d": 371.21215833336464,
      "v": 51
    },
    {
      "midi": 67,
      "hit": false,
      "t": 168787.89566666697,
      "d": 318.1818500000227,
      "v": 57
    },
    {
      "midi": 62,
      "hit": false,
      "t": 169090.92600000033,
      "d": 409.0909499999834,
      "v": 52
    },
    {
      "midi": 50,
      "hit": false,
      "t": 169090.92600000033,
      "d": 795.454625000013,
      "v": 39
    },
    {
      "midi": 47,
      "hit": false,
      "t": 169090.92600000033,
      "d": 1598.485008333344,
      "v": 45
    },
    {
      "midi": 55,
      "hit": false,
      "t": 169090.92600000033,
      "d": 1696.969866666681,
      "v": 40
    },
    {
      "midi": 67,
      "hit": false,
      "t": 169393.95633333366,
      "d": 439.3939833333425,
      "v": 51
    },
    {
      "midi": 71,
      "hit": false,
      "t": 169696.98666666698,
      "d": 378.7879166666826,
      "v": 55
    },
    {
      "midi": 74,
      "hit": false,
      "t": 170000.01700000034,
      "d": 333.33336666665855,
      "v": 56
    },
    {
      "midi": 50,
      "hit": false,
      "t": 170000.01700000034,
      "d": 795.454625000013,
      "v": 39
    },
    {
      "midi": 79,
      "hit": false,
      "t": 170303.04733333367,
      "d": 280.3030583333166,
      "v": 64
    },
    {
      "midi": 71,
      "hit": false,
      "t": 170303.04733333367,
      "d": 333.33336666665855,
      "v": 63
    },
    {
      "midi": 77,
      "hit": false,
      "t": 170606.077666667,
      "d": 234.84850833335076,
      "v": 48
    },
    {
      "midi": 67,
      "hit": false,
      "t": 170606.077666667,
      "d": 280.3030583333457,
      "v": 49
    },
    {
      "midi": 76,
      "hit": false,
      "t": 170909.10800000036,
      "d": 477.27277499999036,
      "v": 57
    },
    {
      "midi": 48,
      "hit": false,
      "t": 170909.10800000036,
      "d": 757.575833333336,
      "v": 47
    },
    {
      "midi": 52,
      "hit": false,
      "t": 170909.10800000036,
      "d": 1477.2728750000242,
      "v": 50
    },
    {
      "midi": 55,
      "hit": false,
      "t": 170909.10800000036,
      "d": 1477.2728750000242,
      "v": 49
    },
    {
      "midi": 79,
      "hit": false,
      "t": 171212.13833333369,
      "d": 583.3333916666743,
      "v": 49
    },
    {
      "midi": 84,
      "hit": false,
      "t": 171515.168666667,
      "d": 378.7879166666826,
      "v": 49
    },
    {
      "midi": 88,
      "hit": false,
      "t": 171818.19900000037,
      "d": 310.60609166667564,
      "v": 55
    },
    {
      "midi": 48,
      "hit": false,
      "t": 171818.19900000037,
      "d": 757.5758333333652,
      "v": 47
    },
    {
      "midi": 84,
      "hit": false,
      "t": 172121.2293333337,
      "d": 371.21215833336464,
      "v": 51
    },
    {
      "midi": 79,
      "hit": false,
      "t": 172424.25966666706,
      "d": 318.1818500000227,
      "v": 57
    },
    {
      "midi": 76,
      "hit": false,
      "t": 172727.29000000042,
      "d": 409.0909499999834,
      "v": 52
    },
    {
      "midi": 52,
      "hit": false,
      "t": 172727.29000000042,
      "d": 795.454625000013,
      "v": 39
    },
    {
      "midi": 48,
      "hit": false,
      "t": 172727.29000000042,
      "d": 1598.485008333344,
      "v": 45
    },
    {
      "midi": 55,
      "hit": false,
      "t": 172727.29000000042,
      "d": 1696.969866666681,
      "v": 40
    },
    {
      "midi": 79,
      "hit": false,
      "t": 173030.32033333374,
      "d": 439.3939833333425,
      "v": 51
    },
    {
      "midi": 84,
      "hit": false,
      "t": 173333.35066666707,
      "d": 378.7879166666826,
      "v": 55
    },
    {
      "midi": 88,
      "hit": false,
      "t": 173636.38100000043,
      "d": 333.33336666665855,
      "v": 56
    },
    {
      "midi": 52,
      "hit": false,
      "t": 173636.38100000043,
      "d": 795.454625000013,
      "v": 39
    },
    {
      "midi": 84,
      "hit": false,
      "t": 173939.41133333376,
      "d": 333.33336666665855,
      "v": 63
    },
    {
      "midi": 79,
      "hit": false,
      "t": 174242.4416666671,
      "d": 280.3030583333457,
      "v": 49
    },
    {
      "midi": 76,
      "hit": false,
      "t": 174545.47200000045,
      "d": 386.3636750000005,
      "v": 53
    },
    {
      "midi": 48,
      "hit": false,
      "t": 174545.47200000045,
      "d": 757.575833333336,
      "v": 47
    },
    {
      "midi": 52,
      "hit": false,
      "t": 174545.47200000045,
      "d": 1477.2728750000242,
      "v": 50
    },
    {
      "midi": 57,
      "hit": false,
      "t": 174545.47200000045,
      "d": 1477.2728750000242,
      "v": 49
    },
    {
      "midi": 81,
      "hit": false,
      "t": 174848.50233333377,
      "d": 583.3333916666743,
      "v": 49
    },
    {
      "midi": 84,
      "hit": false,
      "t": 175151.5326666671,
      "d": 378.7879166666826,
      "v": 49
    },
    {
      "midi": 88,
      "hit": false,
      "t": 175454.56300000046,
      "d": 310.60609166667564,
      "v": 55
    },
    {
      "midi": 48,
      "hit": false,
      "t": 175454.56300000046,
      "d": 757.5758333333652,
      "v": 47
    },
    {
      "midi": 84,
      "hit": false,
      "t": 175757.5933333338,
      "d": 371.21215833336464,
      "v": 51
    },
    {
      "midi": 79,
      "hit": false,
      "t": 176060.62366666715,
      "d": 318.1818500000227,
      "v": 57
    },
    {
      "midi": 76,
      "hit": false,
      "t": 176363.6540000005,
      "d": 409.0909499999834,
      "v": 52
    },
    {
      "midi": 52,
      "hit": false,
      "t": 176363.6540000005,
      "d": 795.454625000013,
      "v": 39
    },
    {
      "midi": 48,
      "hit": false,
      "t": 176363.6540000005,
      "d": 1598.485008333344,
      "v": 45
    },
    {
      "midi": 57,
      "hit": false,
      "t": 176363.6540000005,
      "d": 1696.969866666681,
      "v": 40
    },
    {
      "midi": 81,
      "hit": false,
      "t": 176666.68433333383,
      "d": 439.3939833333425,
      "v": 51
    },
    {
      "midi": 84,
      "hit": false,
      "t": 176969.71466666716,
      "d": 378.7879166666826,
      "v": 55
    },
    {
      "midi": 88,
      "hit": false,
      "t": 177272.74500000052,
      "d": 333.33336666665855,
      "v": 56
    },
    {
      "midi": 52,
      "hit": false,
      "t": 177272.74500000052,
      "d": 795.454625000013,
      "v": 39
    },
    {
      "midi": 84,
      "hit": false,
      "t": 177575.77533333385,
      "d": 333.33336666665855,
      "v": 63
    },
    {
      "midi": 81,
      "hit": false,
      "t": 177878.80566666718,
      "d": 280.3030583333457,
      "v": 49
    },
    {
      "midi": 77,
      "hit": false,
      "t": 178181.83600000053,
      "d": 386.3636750000005,
      "v": 53
    },
    {
      "midi": 50,
      "hit": false,
      "t": 178181.83600000053,
      "d": 757.575833333336,
      "v": 47
    },
    {
      "midi": 53,
      "hit": false,
      "t": 178181.83600000053,
      "d": 1477.2728750000242,
      "v": 50
    },
    {
      "midi": 57,
      "hit": false,
      "t": 178181.83600000053,
      "d": 1477.2728750000242,
      "v": 49
    },
    {
      "midi": 81,
      "hit": false,
      "t": 178484.86633333386,
      "d": 583.3333916666743,
      "v": 49
    },
    {
      "midi": 86,
      "hit": false,
      "t": 178787.8966666672,
      "d": 378.7879166666826,
      "v": 49
    },
    {
      "midi": 89,
      "hit": false,
      "t": 179090.92700000055,
      "d": 310.60609166667564,
      "v": 55
    },
    {
      "midi": 50,
      "hit": false,
      "t": 179090.92700000055,
      "d": 757.5758333333652,
      "v": 47
    },
    {
      "midi": 86,
      "hit": false,
      "t": 179393.95733333388,
      "d": 371.21215833336464,
      "v": 51
    },
    {
      "midi": 81,
      "hit": false,
      "t": 179696.98766666724,
      "d": 318.1818500000227,
      "v": 57
    },
    {
      "midi": 77,
      "hit": false,
      "t": 180000.0180000006,
      "d": 409.0909499999834,
      "v": 52
    },
    {
      "midi": 53,
      "hit": false,
      "t": 180000.0180000006,
      "d": 795.454625000013,
      "v": 39
    },
    {
      "midi": 50,
      "hit": false,
      "t": 180000.0180000006,
      "d": 1598.485008333344,
      "v": 45
    },
    {
      "midi": 57,
      "hit": false,
      "t": 180000.0180000006,
      "d": 1696.969866666681,
      "v": 40
    },
    {
      "midi": 81,
      "hit": false,
      "t": 180303.04833333392,
      "d": 439.3939833333425,
      "v": 51
    },
    {
      "midi": 86,
      "hit": false,
      "t": 180606.07866666725,
      "d": 378.7879166666826,
      "v": 55
    },
    {
      "midi": 89,
      "hit": false,
      "t": 180909.1090000006,
      "d": 333.33336666665855,
      "v": 56
    },
    {
      "midi": 53,
      "hit": false,
      "t": 180909.1090000006,
      "d": 795.454625000013,
      "v": 39
    },
    {
      "midi": 86,
      "hit": false,
      "t": 181212.13933333394,
      "d": 333.33336666665855,
      "v": 63
    },
    {
      "midi": 81,
      "hit": false,
      "t": 181515.16966666727,
      "d": 280.3030583333457,
      "v": 49
    },
    {
      "midi": 74,
      "hit": false,
      "t": 181818.20000000062,
      "d": 386.3636750000005,
      "v": 53
    },
    {
      "midi": 47,
      "hit": false,
      "t": 181818.20000000062,
      "d": 757.575833333336,
      "v": 47
    },
    {
      "midi": 50,
      "hit": false,
      "t": 181818.20000000062,
      "d": 1477.2728750000242,
      "v": 50
    },
    {
      "midi": 55,
      "hit": false,
      "t": 181818.20000000062,
      "d": 1477.2728750000242,
      "v": 49
    },
    {
      "midi": 79,
      "hit": false,
      "t": 182121.23033333395,
      "d": 583.3333916666743,
      "v": 49
    },
    {
      "midi": 83,
      "hit": false,
      "t": 182424.26066666728,
      "d": 378.7879166666826,
      "v": 49
    },
    {
      "midi": 86,
      "hit": false,
      "t": 182727.29100000064,
      "d": 310.60609166667564,
      "v": 55
    },
    {
      "midi": 47,
      "hit": false,
      "t": 182727.29100000064,
      "d": 757.5758333333652,
      "v": 47
    },
    {
      "midi": 83,
      "hit": false,
      "t": 183030.32133333397,
      "d": 371.21215833336464,
      "v": 51
    },
    {
      "midi": 79,
      "hit": false,
      "t": 183333.35166666732,
      "d": 318.1818500000227,
      "v": 57
    },
    {
      "midi": 74,
      "hit": false,
      "t": 183636.38200000068,
      "d": 409.0909499999834,
      "v": 52
    },
    {
      "midi": 55,
      "hit": false,
      "t": 183636.38200000068,
      "d": 424.2424666666484,
      "v": 40
    },
    {
      "midi": 50,
      "hit": false,
      "t": 183636.38200000068,
      "d": 795.454625000013,
      "v": 39
    },
    {
      "midi": 47,
      "hit": false,
      "t": 183636.38200000068,
      "d": 1598.485008333344,
      "v": 45
    },
    {
      "midi": 79,
      "hit": false,
      "t": 183939.412333334,
      "d": 439.3939833333425,
      "v": 51
    },
    {
      "midi": 83,
      "hit": false,
      "t": 184242.44266666734,
      "d": 378.7879166666826,
      "v": 55
    },
    {
      "midi": 55,
      "hit": false,
      "t": 184242.44266666734,
      "d": 780.3031083333481,
      "v": 69
    },
    {
      "midi": 86,
      "hit": false,
      "t": 184545.4730000007,
      "d": 333.33336666665855,
      "v": 56
    },
    {
      "midi": 50,
      "hit": false,
      "t": 184545.4730000007,
      "d": 795.4546249999839,
      "v": 39
    },
    {
      "midi": 83,
      "hit": false,
      "t": 184848.50333333403,
      "d": 333.33336666665855,
      "v": 63
    },
    {
      "midi": 79,
      "hit": false,
      "t": 185151.53366666735,
      "d": 280.3030583333457,
      "v": 49
    },
    {
      "midi": 55,
      "hit": false,
      "t": 185166.68518333402,
      "d": 212.12123333333875,
      "v": 69
    },
    {
      "midi": 76,
      "hit": false,
      "t": 185454.5640000007,
      "d": 477.27277499999036,
      "v": 57
    },
    {
      "midi": 48,
      "hit": false,
      "t": 185454.5640000007,
      "d": 757.575833333336,
      "v": 47
    },
    {
      "midi": 60,
      "hit": false,
      "t": 185454.5640000007,
      "d": 1265.1516416666855,
      "v": 69
    },
    {
      "midi": 52,
      "hit": false,
      "t": 185454.5640000007,
      "d": 1477.2728750000242,
      "v": 50
    },
    {
      "midi": 55,
      "hit": false,
      "t": 185454.5640000007,
      "d": 1477.2728750000242,
      "v": 49
    },
    {
      "midi": 79,
      "hit": false,
      "t": 185757.59433333404,
      "d": 583.3333916666743,
      "v": 49
    },
    {
      "midi": 84,
      "hit": false,
      "t": 186060.62466666737,
      "d": 378.7879166666826,
      "v": 49
    },
    {
      "midi": 88,
      "hit": false,
      "t": 186363.65500000073,
      "d": 310.60609166667564,
      "v": 55
    },
    {
      "midi": 48,
      "hit": false,
      "t": 186363.65500000073,
      "d": 757.5758333333652,
      "v": 47
    },
    {
      "midi": 84,
      "hit": false,
      "t": 186666.68533333406,
      "d": 371.21215833336464,
      "v": 51
    },
    {
      "midi": 79,
      "hit": false,
      "t": 186969.7156666674,
      "d": 318.1818500000227,
      "v": 57
    },
    {
      "midi": 76,
      "hit": false,
      "t": 187272.74600000077,
      "d": 409.0909499999834,
      "v": 52
    },
    {
      "midi": 52,
      "hit": false,
      "t": 187272.74600000077,
      "d": 795.454625000013,
      "v": 39
    },
    {
      "midi": 48,
      "hit": false,
      "t": 187272.74600000077,
      "d": 1598.485008333344,
      "v": 45
    },
    {
      "midi": 55,
      "hit": false,
      "t": 187272.74600000077,
      "d": 1696.969866666681,
      "v": 40
    },
    {
      "midi": 79,
      "hit": false,
      "t": 187575.7763333341,
      "d": 439.3939833333425,
      "v": 51
    },
    {
      "midi": 84,
      "hit": false,
      "t": 187878.80666666743,
      "d": 378.7879166666826,
      "v": 55
    },
    {
      "midi": 88,
      "hit": false,
      "t": 188181.83700000079,
      "d": 333.33336666665855,
      "v": 56
    },
    {
      "midi": 52,
      "hit": false,
      "t": 188181.83700000079,
      "d": 795.454625000013,
      "v": 39
    },
    {
      "midi": 84,
      "hit": false,
      "t": 188484.8673333341,
      "d": 333.33336666665855,
      "v": 63
    },
    {
      "midi": 79,
      "hit": false,
      "t": 188787.89766666744,
      "d": 280.3030583333457,
      "v": 49
    },
    {
      "midi": 76,
      "hit": false,
      "t": 189090.9280000008,
      "d": 386.3636750000005,
      "v": 53
    },
    {
      "midi": 47,
      "hit": false,
      "t": 189090.9280000008,
      "d": 757.575833333336,
      "v": 47
    },
    {
      "midi": 52,
      "hit": false,
      "t": 189090.9280000008,
      "d": 1477.2728750000242,
      "v": 50
    },
    {
      "midi": 55,
      "hit": false,
      "t": 189090.9280000008,
      "d": 1477.2728750000242,
      "v": 49
    },
    {
      "midi": 79,
      "hit": false,
      "t": 189393.95833333413,
      "d": 462.1212583333545,
      "v": 49
    },
    {
      "midi": 83,
      "hit": false,
      "t": 189696.98866666746,
      "d": 378.7879166666826,
      "v": 49
    },
    {
      "midi": 88,
      "hit": false,
      "t": 190000.01900000082,
      "d": 310.60609166667564,
      "v": 55
    },
    {
      "midi": 47,
      "hit": false,
      "t": 190000.01900000082,
      "d": 757.5758333333652,
      "v": 47
    },
    {
      "midi": 83,
      "hit": false,
      "t": 190303.04933333414,
      "d": 371.21215833336464,
      "v": 51
    },
    {
      "midi": 79,
      "hit": false,
      "t": 190606.0796666675,
      "d": 318.1818500000227,
      "v": 57
    },
    {
      "midi": 76,
      "hit": false,
      "t": 190909.11000000086,
      "d": 409.0909499999834,
      "v": 52
    },
    {
      "midi": 52,
      "hit": false,
      "t": 190909.11000000086,
      "d": 795.454625000013,
      "v": 39
    },
    {
      "midi": 47,
      "hit": false,
      "t": 190909.11000000086,
      "d": 1598.485008333344,
      "v": 45
    },
    {
      "midi": 55,
      "hit": false,
      "t": 190909.11000000086,
      "d": 1696.969866666681,
      "v": 40
    },
    {
      "midi": 79,
      "hit": false,
      "t": 191212.1403333342,
      "d": 439.3939833333425,
      "v": 51
    },
    {
      "midi": 83,
      "hit": false,
      "t": 191515.17066666752,
      "d": 378.7879166666826,
      "v": 55
    },
    {
      "midi": 88,
      "hit": false,
      "t": 191818.20100000087,
      "d": 333.33336666665855,
      "v": 56
    },
    {
      "midi": 52,
      "hit": false,
      "t": 191818.20100000087,
      "d": 795.454625000013,
      "v": 39
    },
    {
      "midi": 83,
      "hit": false,
      "t": 192121.2313333342,
      "d": 333.33336666665855,
      "v": 63
    },
    {
      "midi": 79,
      "hit": false,
      "t": 192424.26166666753,
      "d": 280.3030583333457,
      "v": 49
    },
    {
      "midi": 77,
      "hit": false,
      "t": 192727.2920000009,
      "d": 386.3636750000005,
      "v": 53
    },
    {
      "midi": 48,
      "hit": false,
      "t": 192727.2920000009,
      "d": 757.575833333336,
      "v": 47
    },
    {
      "midi": 53,
      "hit": false,
      "t": 192727.2920000009,
      "d": 1477.2728750000242,
      "v": 50
    },
    {
      "midi": 57,
      "hit": false,
      "t": 192727.2920000009,
      "d": 1477.2728750000242,
      "v": 49
    },
    {
      "midi": 81,
      "hit": false,
      "t": 193030.32233333422,
      "d": 583.3333916666743,
      "v": 49
    },
    {
      "midi": 84,
      "hit": false,
      "t": 193333.35266666755,
      "d": 378.7879166666826,
      "v": 49
    },
    {
      "midi": 89,
      "hit": false,
      "t": 193636.3830000009,
      "d": 310.60609166667564,
      "v": 55
    },
    {
      "midi": 48,
      "hit": false,
      "t": 193636.3830000009,
      "d": 757.5758333333652,
      "v": 47
    },
    {
      "midi": 84,
      "hit": false,
      "t": 193939.41333333423,
      "d": 371.21215833336464,
      "v": 51
    },
    {
      "midi": 81,
      "hit": false,
      "t": 194242.4436666676,
      "d": 318.1818500000227,
      "v": 57
    },
    {
      "midi": 77,
      "hit": false,
      "t": 194545.47400000095,
      "d": 409.0909499999834,
      "v": 52
    },
    {
      "midi": 53,
      "hit": false,
      "t": 194545.47400000095,
      "d": 795.454625000013,
      "v": 39
    },
    {
      "midi": 48,
      "hit": false,
      "t": 194545.47400000095,
      "d": 1598.485008333344,
      "v": 45
    },
    {
      "midi": 57,
      "hit": false,
      "t": 194545.47400000095,
      "d": 1696.969866666681,
      "v": 40
    },
    {
      "midi": 81,
      "hit": false,
      "t": 194848.50433333428,
      "d": 439.3939833333425,
      "v": 51
    },
    {
      "midi": 84,
      "hit": false,
      "t": 195151.5346666676,
      "d": 378.7879166666826,
      "v": 55
    },
    {
      "midi": 89,
      "hit": false,
      "t": 195454.56500000096,
      "d": 333.33336666665855,
      "v": 56
    },
    {
      "midi": 53,
      "hit": false,
      "t": 195454.56500000096,
      "d": 795.454625000013,
      "v": 39
    },
    {
      "midi": 84,
      "hit": false,
      "t": 195757.5953333343,
      "d": 333.33336666665855,
      "v": 63
    },
    {
      "midi": 81,
      "hit": false,
      "t": 196060.62566666762,
      "d": 280.3030583333457,
      "v": 49
    },
    {
      "midi": 74,
      "hit": false,
      "t": 196363.65600000098,
      "d": 287.8788166666636,
      "v": 53
    },
    {
      "midi": 50,
      "hit": false,
      "t": 196363.65600000098,
      "d": 742.4243166666711,
      "v": 50
    },
    {
      "midi": 55,
      "hit": false,
      "t": 196363.65600000098,
      "d": 742.4243166666711,
      "v": 66
    },
    {
      "midi": 47,
      "hit": false,
      "t": 196363.65600000098,
      "d": 757.575833333336,
      "v": 47
    },
    {
      "midi": 79,
      "hit": false,
      "t": 196666.6863333343,
      "d": 295.45457500001066,
      "v": 49
    },
    {
      "midi": 67,
      "hit": false,
      "t": 197272.747000001,
      "d": 287.8788166666636,
      "v": 81
    },
    {
      "midi": 50,
      "hit": false,
      "t": 197272.747000001,
      "d": 742.424316666642,
      "v": 50
    },
    {
      "midi": 55,
      "hit": false,
      "t": 197272.747000001,
      "d": 742.424316666642,
      "v": 59
    },
    {
      "midi": 47,
      "hit": false,
      "t": 197272.747000001,
      "d": 757.575833333307,
      "v": 47
    },
    {
      "midi": 69,
      "hit": false,
      "t": 197575.77733333432,
      "d": 318.1818499999936,
      "v": 81
    },
    {
      "midi": 79,
      "hit": false,
      "t": 197878.80766666765,
      "d": 318.1818499999936,
      "v": 57
    },
    {
      "midi": 71,
      "hit": false,
      "t": 197878.80766666765,
      "d": 333.33336666665855,
      "v": 69
    },
    {
      "midi": 72,
      "hit": false,
      "t": 198181.83800000098,
      "d": 333.33336666665855,
      "v": 83
    },
    {
      "midi": 47,
      "hit": false,
      "t": 198181.83800000098,
      "d": 765.151591666654,
      "v": 45
    },
    {
      "midi": 55,
      "hit": false,
      "t": 198181.83800000098,
      "d": 765.151591666654,
      "v": 50
    },
    {
      "midi": 50,
      "hit": false,
      "t": 198181.83800000098,
      "d": 795.4546249999839,
      "v": 39
    },
    {
      "midi": 74,
      "hit": false,
      "t": 198484.8683333343,
      "d": 340.9091250000056,
      "v": 78
    },
    {
      "midi": 76,
      "hit": false,
      "t": 198787.89866666764,
      "d": 318.1818499999936,
      "v": 79
    },
    {
      "midi": 77,
      "hit": false,
      "t": 199090.92900000096,
      "d": 333.33336666665855,
      "v": 76
    },
    {
      "midi": 47,
      "hit": false,
      "t": 199090.92900000096,
      "d": 765.151591666654,
      "v": 45
    },
    {
      "midi": 55,
      "hit": false,
      "t": 199090.92900000096,
      "d": 765.151591666654,
      "v": 50
    },
    {
      "midi": 50,
      "hit": false,
      "t": 199090.92900000096,
      "d": 795.4546249999839,
      "v": 39
    },
    {
      "midi": 79,
      "hit": false,
      "t": 199393.9593333343,
      "d": 340.9091250000056,
      "v": 78
    },
    {
      "midi": 81,
      "hit": false,
      "t": 199696.98966666762,
      "d": 348.4848833333235,
      "v": 88
    },
    {
      "midi": 55,
      "hit": false,
      "t": 200000.02000000095,
      "d": 628.7879416666692,
      "v": 62
    },
    {
      "midi": 60,
      "hit": false,
      "t": 200000.02000000095,
      "d": 628.7879416666692,
      "v": 69
    },
    {
      "midi": 52,
      "hit": false,
      "t": 200000.02000000095,
      "d": 636.3637000000163,
      "v": 43
    },
    {
      "midi": 79,
      "hit": false,
      "t": 200000.02000000095,
      "d": 696.9697666666762,
      "v": 77
    },
    {
      "midi": 76,
      "hit": false,
      "t": 200000.02000000095,
      "d": 893.9394833333499,
      "v": 44
    },
    {
      "midi": 60,
      "hit": false,
      "t": 200909.11100000096,
      "d": 704.5455249999941,
      "v": 68
    },
    {
      "midi": 67,
      "hit": false,
      "t": 200909.11100000096,
      "d": 704.5455249999941,
      "v": 58
    },
    {
      "midi": 55,
      "hit": false,
      "t": 200909.11100000096,
      "d": 719.6970416666591,
      "v": 57
    },
    {
      "midi": 52,
      "hit": false,
      "t": 200909.11100000096,
      "d": 727.2728000000061,
      "v": 46
    },
    {
      "midi": 72,
      "hit": false,
      "t": 200909.11100000096,
      "d": 727.2728000000061,
      "v": 65
    },
    {
      "midi": 69,
      "hit": false,
      "t": 201515.17166666762,
      "d": 250.00002500001574,
      "v": 64
    },
    {
      "midi": 67,
      "hit": false,
      "t": 201818.20200000098,
      "d": 424.2424666666775,
      "v": 64
    },
    {
      "midi": 72,
      "hit": false,
      "t": 201818.20200000098,
      "d": 454.54550000000745,
      "v": 70
    },
    {
      "midi": 60,
      "hit": false,
      "t": 201818.20200000098,
      "d": 727.2728000000061,
      "v": 79
    },
    {
      "midi": 52,
      "hit": false,
      "t": 201818.20200000098,
      "d": 750.0000750000181,
      "v": 43
    },
    {
      "midi": 55,
      "hit": false,
      "t": 201818.20200000098,
      "d": 750.0000750000181,
      "v": 64
    },
    {
      "midi": 76,
      "hit": false,
      "t": 201818.20200000098,
      "d": 765.1515916666831,
      "v": 48
    },
    {
      "midi": 79,
      "hit": false,
      "t": 201818.20200000098,
      "d": 765.1515916666831,
      "v": 52
    },
    {
      "midi": 72,
      "hit": false,
      "t": 202424.26266666767,
      "d": 234.84850833332166,
      "v": 70
    },
    {
      "midi": 67,
      "hit": false,
      "t": 202424.26266666767,
      "d": 712.1212833333411,
      "v": 64
    },
    {
      "midi": 52,
      "hit": false,
      "t": 202727.293000001,
      "d": 750.0000750000181,
      "v": 46
    },
    {
      "midi": 55,
      "hit": false,
      "t": 202727.293000001,
      "d": 757.5758333333652,
      "v": 60
    },
    {
      "midi": 72,
      "hit": false,
      "t": 202727.293000001,
      "d": 765.1515916667122,
      "v": 70
    },
    {
      "midi": 60,
      "hit": false,
      "t": 202727.293000001,
      "d": 810.6061416667071,
      "v": 69
    },
    {
      "midi": 69,
      "hit": false,
      "t": 203636.38400000104,
      "d": 530.3030833333323,
      "v": 71
    },
    {
      "midi": 72,
      "hit": false,
      "t": 203636.38400000104,
      "d": 530.3030833333323,
      "v": 59
    },
    {
      "midi": 53,
      "hit": false,
      "t": 203636.38400000104,
      "d": 666.6667333333171,
      "v": 59
    },
    {
      "midi": 60,
      "hit": false,
      "t": 203636.38400000104,
      "d": 674.2424916666641,
      "v": 53
    },
    {
      "midi": 57,
      "hit": false,
      "t": 203636.38400000104,
      "d": 681.8182500000112,
      "v": 64
    },
    {
      "midi": 74,
      "hit": false,
      "t": 204242.4446666677,
      "d": 280.3030583333457,
      "v": 77
    },
    {
      "midi": 53,
      "hit": false,
      "t": 204545.47500000105,
      "d": 704.5455249999941,
      "v": 51
    },
    {
      "midi": 57,
      "hit": false,
      "t": 204545.47500000105,
      "d": 712.1212833333411,
      "v": 63
    },
    {
      "midi": 60,
      "hit": false,
      "t": 204545.47500000105,
      "d": 712.1212833333411,
      "v": 56
    },
    {
      "midi": 69,
      "hit": false,
      "t": 204545.47500000105,
      "d": 780.3031083333481,
      "v": 67
    },
    {
      "midi": 72,
      "hit": false,
      "t": 204545.47500000105,
      "d": 803.0303833333601,
      "v": 60
    },
    {
      "midi": 62,
      "hit": false,
      "t": 205151.5356666677,
      "d": 242.4242666666978,
      "v": 80
    },
    {
      "midi": 77,
      "hit": false,
      "t": 205454.56600000107,
      "d": 545.4545999999973,
      "v": 75
    },
    {
      "midi": 81,
      "hit": false,
      "t": 205454.56600000107,
      "d": 590.9091499999922,
      "v": 71
    },
    {
      "midi": 69,
      "hit": false,
      "t": 205454.56600000107,
      "d": 681.8182499999821,
      "v": 63
    },
    {
      "midi": 72,
      "hit": false,
      "t": 205454.56600000107,
      "d": 696.969766666647,
      "v": 67
    },
    {
      "midi": 53,
      "hit": false,
      "t": 205454.56600000107,
      "d": 704.5455249999941,
      "v": 62
    },
    {
      "midi": 60,
      "hit": false,
      "t": 205454.56600000107,
      "d": 719.6970416666591,
      "v": 52
    },
    {
      "midi": 57,
      "hit": false,
      "t": 205454.56600000107,
      "d": 727.2728000000061,
      "v": 57
    },
    {
      "midi": 84,
      "hit": false,
      "t": 206363.65700000108,
      "d": 590.9091499999922,
      "v": 76
    },
    {
      "midi": 81,
      "hit": false,
      "t": 206363.65700000108,
      "d": 598.4849083333393,
      "v": 75
    },
    {
      "midi": 72,
      "hit": false,
      "t": 206363.65700000108,
      "d": 712.1212833333411,
      "v": 46
    },
    {
      "midi": 60,
      "hit": false,
      "t": 206363.65700000108,
      "d": 719.6970416666882,
      "v": 60
    },
    {
      "midi": 69,
      "hit": false,
      "t": 206363.65700000108,
      "d": 727.2728000000352,
      "v": 60
    },
    {
      "midi": 53,
      "hit": false,
      "t": 206363.65700000108,
      "d": 848.484933333355,
      "v": 67
    },
    {
      "midi": 57,
      "hit": false,
      "t": 206363.65700000108,
      "d": 856.060691666702,
      "v": 64
    },
    {
      "midi": 72,
      "hit": false,
      "t": 207272.74800000113,
      "d": 553.0303583333443,
      "v": 42
    },
    {
      "midi": 55,
      "hit": false,
      "t": 207272.74800000113,
      "d": 628.7879416666692,
      "v": 62
    },
    {
      "midi": 60,
      "hit": false,
      "t": 207272.74800000113,
      "d": 628.7879416666692,
      "v": 69
    },
    {
      "midi": 52,
      "hit": false,
      "t": 207272.74800000113,
      "d": 636.3637000000163,
      "v": 43
    },
    {
      "midi": 67,
      "hit": false,
      "t": 207272.74800000113,
      "d": 878.787966666685,
      "v": 36
    },
    {
      "midi": 76,
      "hit": false,
      "t": 207272.74800000113,
      "d": 886.363725000032,
      "v": 39
    },
    {
      "midi": 72,
      "hit": false,
      "t": 208181.83900000117,
      "d": 477.27277499999036,
      "v": 42
    },
    {
      "midi": 60,
      "hit": false,
      "t": 208181.83900000117,
      "d": 704.5455249999941,
      "v": 68
    },
    {
      "midi": 55,
      "hit": false,
      "t": 208181.83900000117,
      "d": 719.6970416666591,
      "v": 57
    },
    {
      "midi": 52,
      "hit": false,
      "t": 208181.83900000117,
      "d": 727.2728000000061,
      "v": 46
    },
    {
      "midi": 72,
      "hit": false,
      "t": 208787.89966666783,
      "d": 666.6667333333462,
      "v": 68
    },
    {
      "midi": 76,
      "hit": false,
      "t": 208787.89966666783,
      "d": 825.757658333343,
      "v": 58
    },
    {
      "midi": 67,
      "hit": false,
      "t": 208787.89966666783,
      "d": 840.909175000008,
      "v": 63
    },
    {
      "midi": 60,
      "hit": false,
      "t": 209090.9300000012,
      "d": 727.272799999977,
      "v": 79
    },
    {
      "midi": 52,
      "hit": false,
      "t": 209090.9300000012,
      "d": 750.000074999989,
      "v": 43
    },
    {
      "midi": 55,
      "hit": false,
      "t": 209090.9300000012,
      "d": 750.000074999989,
      "v": 64
    },
    {
      "midi": 76,
      "hit": false,
      "t": 209696.99066666784,
      "d": 719.6970416666591,
      "v": 57
    },
    {
      "midi": 72,
      "hit": false,
      "t": 210000.02100000117,
      "d": 696.9697666666762,
      "v": 38
    },
    {
      "midi": 67,
      "hit": false,
      "t": 210000.02100000117,
      "d": 719.6970416666882,
      "v": 62
    },
    {
      "midi": 52,
      "hit": false,
      "t": 210000.02100000117,
      "d": 750.0000750000181,
      "v": 46
    },
    {
      "midi": 55,
      "hit": false,
      "t": 210000.02100000117,
      "d": 757.5758333333652,
      "v": 60
    },
    {
      "midi": 60,
      "hit": false,
      "t": 210000.02100000117,
      "d": 810.6061416667071,
      "v": 69
    },
    {
      "midi": 79,
      "hit": false,
      "t": 210909.11200000122,
      "d": 560.6061166666623,
      "v": 68
    },
    {
      "midi": 84,
      "hit": false,
      "t": 210909.11200000122,
      "d": 583.3333916666743,
      "v": 79
    },
    {
      "midi": 55,
      "hit": false,
      "t": 210909.11200000122,
      "d": 628.7879416666983,
      "v": 62
    },
    {
      "midi": 60,
      "hit": false,
      "t": 210909.11200000122,
      "d": 628.7879416666983,
      "v": 69
    },
    {
      "midi": 52,
      "hit": false,
      "t": 210909.11200000122,
      "d": 636.3637000000454,
      "v": 43
    },
    {
      "midi": 72,
      "hit": false,
      "t": 211515.1726666679,
      "d": 719.6970416666882,
      "v": 57
    },
    {
      "midi": 60,
      "hit": false,
      "t": 211818.20300000126,
      "d": 704.5455249999941,
      "v": 68
    },
    {
      "midi": 55,
      "hit": false,
      "t": 211818.20300000126,
      "d": 719.6970416666591,
      "v": 57
    },
    {
      "midi": 52,
      "hit": false,
      "t": 211818.20300000126,
      "d": 727.2728000000061,
      "v": 46
    },
    {
      "midi": 79,
      "hit": false,
      "t": 211818.20300000126,
      "d": 787.878866666666,
      "v": 63
    },
    {
      "midi": 84,
      "hit": false,
      "t": 211818.20300000126,
      "d": 818.181899999996,
      "v": 75
    },
    {
      "midi": 72,
      "hit": false,
      "t": 212424.26366666792,
      "d": 719.6970416666591,
      "v": 57
    },
    {
      "midi": 84,
      "hit": false,
      "t": 212727.29400000125,
      "d": 204.5454749999917,
      "v": 63
    },
    {
      "midi": 79,
      "hit": false,
      "t": 212727.29400000125,
      "d": 227.27275000000373,
      "v": 58
    },
    {
      "midi": 55,
      "hit": false,
      "t": 212727.29400000125,
      "d": 681.8182499999821,
      "v": 64
    },
    {
      "midi": 52,
      "hit": false,
      "t": 212727.29400000125,
      "d": 727.272799999977,
      "v": 43
    },
    {
      "midi": 60,
      "hit": false,
      "t": 212727.29400000125,
      "d": 772.7273499999719,
      "v": 79
    },
    {
      "midi": 79,
      "hit": false,
      "t": 213030.32433333457,
      "d": 189.39395833332674,
      "v": 72
    },
    {
      "midi": 84,
      "hit": false,
      "t": 213030.32433333457,
      "d": 212.12123333333875,
      "v": 81
    },
    {
      "midi": 79,
      "hit": false,
      "t": 213333.3546666679,
      "d": 196.96971666664467,
      "v": 68
    },
    {
      "midi": 84,
      "hit": false,
      "t": 213333.3546666679,
      "d": 212.12123333330965,
      "v": 78
    },
    {
      "midi": 79,
      "hit": false,
      "t": 213636.3850000012,
      "d": 189.39395833335584,
      "v": 69
    },
    {
      "midi": 84,
      "hit": false,
      "t": 213636.3850000012,
      "d": 219.6969916666858,
      "v": 79
    },
    {
      "midi": 55,
      "hit": false,
      "t": 213636.3850000012,
      "d": 795.454625000013,
      "v": 60
    },
    {
      "midi": 60,
      "hit": false,
      "t": 213636.3850000012,
      "d": 825.7576583333721,
      "v": 69
    },
    {
      "midi": 52,
      "hit": false,
      "t": 213636.3850000012,
      "d": 848.4849333333841,
      "v": 46
    },
    {
      "midi": 72,
      "hit": false,
      "t": 213643.96075833455,
      "d": 719.6970416666591,
      "v": 57
    },
    {
      "midi": 79,
      "hit": false,
      "t": 213939.41533333456,
      "d": 219.6969916666567,
      "v": 64
    },
    {
      "midi": 84,
      "hit": false,
      "t": 213939.41533333456,
      "d": 265.1515416666516,
      "v": 77
    },
    {
      "midi": 79,
      "hit": false,
      "t": 214242.4456666679,
      "d": 189.39395833332674,
      "v": 60
    },
    {
      "midi": 84,
      "hit": false,
      "t": 214242.4456666679,
      "d": 196.96971666667378,
      "v": 76
    },
    {
      "midi": 55,
      "hit": false,
      "t": 214545.47600000125,
      "d": 628.7879416666692,
      "v": 62
    },
    {
      "midi": 60,
      "hit": false,
      "t": 214545.47600000125,
      "d": 628.7879416666692,
      "v": 69
    },
    {
      "midi": 52,
      "hit": false,
      "t": 214545.47600000125,
      "d": 636.3637000000163,
      "v": 43
    },
    {
      "midi": 76,
      "hit": false,
      "t": 214545.47600000125,
      "d": 893.9394833333499,
      "v": 44
    },
    {
      "midi": 79,
      "hit": false,
      "t": 214545.47600000125,
      "d": 893.9394833333499,
      "v": 59
    },
    {
      "midi": 60,
      "hit": false,
      "t": 215454.56700000126,
      "d": 704.5455249999941,
      "v": 68
    },
    {
      "midi": 67,
      "hit": false,
      "t": 215454.56700000126,
      "d": 704.5455249999941,
      "v": 58
    },
    {
      "midi": 55,
      "hit": false,
      "t": 215454.56700000126,
      "d": 719.6970416666591,
      "v": 57
    },
    {
      "midi": 52,
      "hit": false,
      "t": 215454.56700000126,
      "d": 727.2728000000061,
      "v": 46
    },
    {
      "midi": 72,
      "hit": false,
      "t": 215454.56700000126,
      "d": 727.2728000000061,
      "v": 65
    },
    {
      "midi": 69,
      "hit": false,
      "t": 216060.62766666792,
      "d": 424.2424666666775,
      "v": 72
    },
    {
      "midi": 67,
      "hit": false,
      "t": 216363.65800000128,
      "d": 424.2424666666484,
      "v": 64
    },
    {
      "midi": 72,
      "hit": false,
      "t": 216363.65800000128,
      "d": 454.54549999997835,
      "v": 70
    },
    {
      "midi": 60,
      "hit": false,
      "t": 216363.65800000128,
      "d": 727.272799999977,
      "v": 79
    },
    {
      "midi": 52,
      "hit": false,
      "t": 216363.65800000128,
      "d": 750.000074999989,
      "v": 43
    },
    {
      "midi": 55,
      "hit": false,
      "t": 216363.65800000128,
      "d": 750.000074999989,
      "v": 64
    },
    {
      "midi": 76,
      "hit": false,
      "t": 216363.65800000128,
      "d": 765.151591666654,
      "v": 48
    },
    {
      "midi": 79,
      "hit": false,
      "t": 216363.65800000128,
      "d": 765.151591666654,
      "v": 52
    },
    {
      "midi": 67,
      "hit": false,
      "t": 216969.71866666793,
      "d": 712.1212833333411,
      "v": 64
    },
    {
      "midi": 72,
      "hit": false,
      "t": 216969.71866666793,
      "d": 719.6970416666882,
      "v": 70
    },
    {
      "midi": 52,
      "hit": false,
      "t": 217272.74900000126,
      "d": 750.0000750000181,
      "v": 46
    },
    {
      "midi": 55,
      "hit": false,
      "t": 217272.74900000126,
      "d": 757.5758333333652,
      "v": 60
    },
    {
      "midi": 60,
      "hit": false,
      "t": 217272.74900000126,
      "d": 810.6061416667071,
      "v": 69
    },
    {
      "midi": 79,
      "hit": false,
      "t": 217280.3247583346,
      "d": 765.1515916666831,
      "v": 52
    },
    {
      "midi": 76,
      "hit": false,
      "t": 217878.80966666795,
      "d": 356.06064166669967,
      "v": 59
    },
    {
      "midi": 69,
      "hit": false,
      "t": 218181.8400000013,
      "d": 530.3030833333323,
      "v": 71
    },
    {
      "midi": 72,
      "hit": false,
      "t": 218181.8400000013,
      "d": 530.3030833333323,
      "v": 59
    },
    {
      "midi": 84,
      "hit": false,
      "t": 218181.8400000013,
      "d": 590.9091499999922,
      "v": 76
    },
    {
      "midi": 53,
      "hit": false,
      "t": 218181.8400000013,
      "d": 666.6667333333171,
      "v": 59
    },
    {
      "midi": 60,
      "hit": false,
      "t": 218181.8400000013,
      "d": 674.2424916666641,
      "v": 53
    },
    {
      "midi": 57,
      "hit": false,
      "t": 218181.8400000013,
      "d": 681.8182500000112,
      "v": 64
    },
    {
      "midi": 53,
      "hit": false,
      "t": 219090.93100000132,
      "d": 704.5455250000232,
      "v": 51
    },
    {
      "midi": 57,
      "hit": false,
      "t": 219090.93100000132,
      "d": 712.1212833333702,
      "v": 63
    },
    {
      "midi": 60,
      "hit": false,
      "t": 219090.93100000132,
      "d": 712.1212833333702,
      "v": 56
    },
    {
      "midi": 69,
      "hit": false,
      "t": 219090.93100000132,
      "d": 780.3031083333772,
      "v": 67
    },
    {
      "midi": 72,
      "hit": false,
      "t": 219090.93100000132,
      "d": 803.0303833333892,
      "v": 60
    },
    {
      "midi": 75,
      "hit": false,
      "t": 219098.50675833467,
      "d": 545.4545999999973,
      "v": 76
    },
    {
      "midi": 74,
      "hit": false,
      "t": 219696.991666668,
      "d": 280.3030583333748,
      "v": 79
    },
    {
      "midi": 81,
      "hit": false,
      "t": 220000.0220000014,
      "d": 590.9091499999922,
      "v": 71
    },
    {
      "midi": 69,
      "hit": false,
      "t": 220000.0220000014,
      "d": 681.8182499999821,
      "v": 63
    },
    {
      "midi": 72,
      "hit": false,
      "t": 220000.0220000014,
      "d": 696.969766666647,
      "v": 67
    },
    {
      "midi": 53,
      "hit": false,
      "t": 220000.0220000014,
      "d": 704.5455249999941,
      "v": 62
    },
    {
      "midi": 60,
      "hit": false,
      "t": 220000.0220000014,
      "d": 719.6970416666591,
      "v": 52
    },
    {
      "midi": 57,
      "hit": false,
      "t": 220000.0220000014,
      "d": 727.2728000000061,
      "v": 57
    },
    {
      "midi": 81,
      "hit": false,
      "t": 220909.1130000014,
      "d": 598.4849083333393,
      "v": 75
    },
    {
      "midi": 72,
      "hit": false,
      "t": 220909.1130000014,
      "d": 712.1212833333411,
      "v": 46
    },
    {
      "midi": 60,
      "hit": false,
      "t": 220909.1130000014,
      "d": 719.6970416666882,
      "v": 60
    },
    {
      "midi": 69,
      "hit": false,
      "t": 220909.1130000014,
      "d": 727.2728000000352,
      "v": 60
    },
    {
      "midi": 53,
      "hit": false,
      "t": 220909.1130000014,
      "d": 848.484933333355,
      "v": 67
    },
    {
      "midi": 57,
      "hit": false,
      "t": 220909.1130000014,
      "d": 856.060691666702,
      "v": 64
    },
    {
      "midi": 72,
      "hit": false,
      "t": 221818.20400000145,
      "d": 553.0303583333443,
      "v": 62
    },
    {
      "midi": 55,
      "hit": false,
      "t": 221818.20400000145,
      "d": 628.7879416666692,
      "v": 62
    },
    {
      "midi": 60,
      "hit": false,
      "t": 221818.20400000145,
      "d": 628.7879416666692,
      "v": 69
    },
    {
      "midi": 52,
      "hit": false,
      "t": 221818.20400000145,
      "d": 636.3637000000163,
      "v": 43
    },
    {
      "midi": 67,
      "hit": false,
      "t": 221818.20400000145,
      "d": 878.787966666685,
      "v": 56
    },
    {
      "midi": 76,
      "hit": false,
      "t": 221818.20400000145,
      "d": 886.363725000032,
      "v": 55
    },
    {
      "midi": 72,
      "hit": false,
      "t": 222727.2950000015,
      "d": 477.27277499999036,
      "v": 62
    },
    {
      "midi": 60,
      "hit": false,
      "t": 222727.2950000015,
      "d": 704.5455249999941,
      "v": 68
    },
    {
      "midi": 55,
      "hit": false,
      "t": 222727.2950000015,
      "d": 719.6970416666591,
      "v": 57
    },
    {
      "midi": 52,
      "hit": false,
      "t": 222727.2950000015,
      "d": 727.2728000000061,
      "v": 46
    },
    {
      "midi": 72,
      "hit": false,
      "t": 223333.35566666815,
      "d": 257.5757833333628,
      "v": 68
    },
    {
      "midi": 76,
      "hit": false,
      "t": 223333.35566666815,
      "d": 310.60609166670474,
      "v": 58
    },
    {
      "midi": 70,
      "hit": false,
      "t": 223636.3860000015,
      "d": 712.1212833333411,
      "v": 68
    },
    {
      "midi": 74,
      "hit": false,
      "t": 223636.3860000015,
      "d": 712.1212833333411,
      "v": 68
    },
    {
      "midi": 58,
      "hit": false,
      "t": 223636.3860000015,
      "d": 727.2728000000061,
      "v": 79
    },
    {
      "midi": 50,
      "hit": false,
      "t": 223636.3860000015,
      "d": 750.0000750000181,
      "v": 43
    },
    {
      "midi": 53,
      "hit": false,
      "t": 223636.3860000015,
      "d": 750.0000750000181,
      "v": 64
    },
    {
      "midi": 65,
      "hit": false,
      "t": 223636.3860000015,
      "d": 840.909175000008,
      "v": 63
    },
    {
      "midi": 72,
      "hit": false,
      "t": 224545.47700000153,
      "d": 696.9697666666762,
      "v": 38
    },
    {
      "midi": 69,
      "hit": false,
      "t": 224545.47700000153,
      "d": 719.6970416666882,
      "v": 62
    },
    {
      "midi": 77,
      "hit": false,
      "t": 224545.47700000153,
      "d": 719.6970416666882,
      "v": 57
    },
    {
      "midi": 53,
      "hit": false,
      "t": 224545.47700000153,
      "d": 750.0000750000181,
      "v": 46
    },
    {
      "midi": 57,
      "hit": false,
      "t": 224545.47700000153,
      "d": 757.5758333333652,
      "v": 60
    },
    {
      "midi": 60,
      "hit": false,
      "t": 224545.47700000153,
      "d": 810.6061416667071,
      "v": 69
    },
    {
      "midi": 79,
      "hit": false,
      "t": 225454.56800000157,
      "d": 560.6061166666623,
      "v": 68
    },
    {
      "midi": 84,
      "hit": false,
      "t": 225454.56800000157,
      "d": 583.3333916666743,
      "v": 69
    },
    {
      "midi": 55,
      "hit": false,
      "t": 225454.56800000157,
      "d": 628.7879416666983,
      "v": 62
    },
    {
      "midi": 60,
      "hit": false,
      "t": 225454.56800000157,
      "d": 628.7879416666983,
      "v": 69
    },
    {
      "midi": 52,
      "hit": false,
      "t": 225454.56800000157,
      "d": 636.3637000000454,
      "v": 43
    },
    {
      "midi": 72,
      "hit": false,
      "t": 226060.62866666826,
      "d": 719.6970416666882,
      "v": 57
    },
    {
      "midi": 67,
      "hit": false,
      "t": 226363.65900000161,
      "d": 356.06064166667056,
      "v": 68
    },
    {
      "midi": 60,
      "hit": false,
      "t": 226363.65900000161,
      "d": 704.5455250000232,
      "v": 68
    },
    {
      "midi": 55,
      "hit": false,
      "t": 226363.65900000161,
      "d": 719.6970416666882,
      "v": 57
    },
    {
      "midi": 52,
      "hit": false,
      "t": 226363.65900000161,
      "d": 727.2728000000352,
      "v": 46
    },
    {
      "midi": 79,
      "hit": false,
      "t": 226363.65900000161,
      "d": 787.8788666666951,
      "v": 63
    },
    {
      "midi": 69,
      "hit": false,
      "t": 226666.68933333494,
      "d": 265.1515416666807,
      "v": 75
    },
    {
      "midi": 71,
      "hit": false,
      "t": 226969.7196666683,
      "d": 356.06064166667056,
      "v": 78
    },
    {
      "midi": 72,
      "hit": false,
      "t": 227272.75000000163,
      "d": 356.06064166667056,
      "v": 69
    },
    {
      "midi": 55,
      "hit": false,
      "t": 227272.75000000163,
      "d": 681.8182500000112,
      "v": 64
    },
    {
      "midi": 52,
      "hit": false,
      "t": 227272.75000000163,
      "d": 727.2728000000061,
      "v": 43
    },
    {
      "midi": 60,
      "hit": false,
      "t": 227272.75000000163,
      "d": 772.727350000001,
      "v": 79
    },
    {
      "midi": 74,
      "hit": false,
      "t": 227575.78033333496,
      "d": 356.06064166667056,
      "v": 69
    },
    {
      "midi": 76,
      "hit": false,
      "t": 227878.8106666683,
      "d": 356.06064166669967,
      "v": 77
    },
    {
      "midi": 77,
      "hit": false,
      "t": 228181.84100000164,
      "d": 356.06064166667056,
      "v": 69
    },
    {
      "midi": 55,
      "hit": false,
      "t": 228181.84100000164,
      "d": 795.454625000013,
      "v": 60
    },
    {
      "midi": 60,
      "hit": false,
      "t": 228181.84100000164,
      "d": 825.757658333343,
      "v": 69
    },
    {
      "midi": 52,
      "hit": false,
      "t": 228181.84100000164,
      "d": 848.484933333355,
      "v": 46
    },
    {
      "midi": 79,
      "hit": false,
      "t": 228484.87133333497,
      "d": 356.06064166667056,
      "v": 77
    },
    {
      "midi": 81,
      "hit": false,
      "t": 228787.9016666683,
      "d": 356.06064166669967,
      "v": 69
    },
    {
      "midi": 55,
      "hit": false,
      "t": 229090.93200000166,
      "d": 628.7879416666692,
      "v": 62
    },
    {
      "midi": 60,
      "hit": false,
      "t": 229090.93200000166,
      "d": 628.7879416666692,
      "v": 69
    },
    {
      "midi": 52,
      "hit": false,
      "t": 229090.93200000166,
      "d": 636.3637000000163,
      "v": 43
    },
    {
      "midi": 76,
      "hit": false,
      "t": 229090.93200000166,
      "d": 893.9394833333499,
      "v": 44
    },
    {
      "midi": 79,
      "hit": false,
      "t": 229090.93200000166,
      "d": 893.9394833333499,
      "v": 59
    },
    {
      "midi": 60,
      "hit": false,
      "t": 230000.02300000167,
      "d": 704.5455249999941,
      "v": 68
    },
    {
      "midi": 67,
      "hit": false,
      "t": 230000.02300000167,
      "d": 704.5455249999941,
      "v": 58
    },
    {
      "midi": 55,
      "hit": false,
      "t": 230000.02300000167,
      "d": 719.6970416666591,
      "v": 57
    },
    {
      "midi": 52,
      "hit": false,
      "t": 230000.02300000167,
      "d": 727.2728000000061,
      "v": 46
    },
    {
      "midi": 72,
      "hit": false,
      "t": 230000.02300000167,
      "d": 727.2728000000061,
      "v": 65
    },
    {
      "midi": 67,
      "hit": false,
      "t": 230909.1140000017,
      "d": 424.2424666666775,
      "v": 64
    },
    {
      "midi": 72,
      "hit": false,
      "t": 230909.1140000017,
      "d": 454.54550000000745,
      "v": 70
    },
    {
      "midi": 60,
      "hit": false,
      "t": 230909.1140000017,
      "d": 727.2728000000061,
      "v": 79
    },
    {
      "midi": 52,
      "hit": false,
      "t": 230909.1140000017,
      "d": 750.0000750000181,
      "v": 43
    },
    {
      "midi": 55,
      "hit": false,
      "t": 230909.1140000017,
      "d": 750.0000750000181,
      "v": 64
    },
    {
      "midi": 76,
      "hit": false,
      "t": 230909.1140000017,
      "d": 765.1515916666831,
      "v": 48
    },
    {
      "midi": 79,
      "hit": false,
      "t": 230909.1140000017,
      "d": 765.1515916666831,
      "v": 52
    },
    {
      "midi": 67,
      "hit": false,
      "t": 231515.17466666838,
      "d": 257.5757833333337,
      "v": 64
    },
    {
      "midi": 72,
      "hit": false,
      "t": 231515.17466666838,
      "d": 719.6970416666591,
      "v": 70
    },
    {
      "midi": 52,
      "hit": false,
      "t": 231818.2050000017,
      "d": 750.000074999989,
      "v": 46
    },
    {
      "midi": 55,
      "hit": false,
      "t": 231818.2050000017,
      "d": 757.575833333336,
      "v": 60
    },
    {
      "midi": 67,
      "hit": false,
      "t": 231818.2050000017,
      "d": 795.454625000013,
      "v": 64
    },
    {
      "midi": 60,
      "hit": false,
      "t": 231818.2050000017,
      "d": 810.606141666678,
      "v": 69
    },
    {
      "midi": 69,
      "hit": false,
      "t": 232727.29600000172,
      "d": 530.3030833333323,
      "v": 71
    },
    {
      "midi": 72,
      "hit": false,
      "t": 232727.29600000172,
      "d": 530.3030833333323,
      "v": 59
    },
    {
      "midi": 53,
      "hit": false,
      "t": 232727.29600000172,
      "d": 666.6667333333462,
      "v": 59
    },
    {
      "midi": 60,
      "hit": false,
      "t": 232727.29600000172,
      "d": 674.2424916666932,
      "v": 53
    },
    {
      "midi": 57,
      "hit": false,
      "t": 232727.29600000172,
      "d": 681.8182500000403,
      "v": 64
    },
    {
      "midi": 53,
      "hit": false,
      "t": 233636.38700000176,
      "d": 704.5455249999941,
      "v": 51
    },
    {
      "midi": 57,
      "hit": false,
      "t": 233636.38700000176,
      "d": 712.1212833333411,
      "v": 63
    },
    {
      "midi": 60,
      "hit": false,
      "t": 233636.38700000176,
      "d": 712.1212833333411,
      "v": 56
    },
    {
      "midi": 69,
      "hit": false,
      "t": 233636.38700000176,
      "d": 780.3031083333481,
      "v": 67
    },
    {
      "midi": 72,
      "hit": false,
      "t": 233636.38700000176,
      "d": 803.0303833333601,
      "v": 60
    },
    {
      "midi": 81,
      "hit": false,
      "t": 234242.44766666842,
      "d": 590.9091500000213,
      "v": 61
    },
    {
      "midi": 77,
      "hit": false,
      "t": 234545.47800000178,
      "d": 545.4545999999973,
      "v": 75
    },
    {
      "midi": 69,
      "hit": false,
      "t": 234545.47800000178,
      "d": 681.8182499999821,
      "v": 63
    },
    {
      "midi": 72,
      "hit": false,
      "t": 234545.47800000178,
      "d": 696.969766666647,
      "v": 67
    },
    {
      "midi": 53,
      "hit": false,
      "t": 234545.47800000178,
      "d": 704.5455249999941,
      "v": 62
    },
    {
      "midi": 60,
      "hit": false,
      "t": 234545.47800000178,
      "d": 719.6970416666591,
      "v": 52
    },
    {
      "midi": 57,
      "hit": false,
      "t": 234545.47800000178,
      "d": 727.2728000000061,
      "v": 57
    },
    {
      "midi": 81,
      "hit": false,
      "t": 235151.53866666844,
      "d": 598.4849083333684,
      "v": 75
    },
    {
      "midi": 72,
      "hit": false,
      "t": 235454.5690000018,
      "d": 500.0000500000024,
      "v": 46
    },
    {
      "midi": 84,
      "hit": false,
      "t": 235454.5690000018,
      "d": 590.9091499999922,
      "v": 66
    },
    {
      "midi": 60,
      "hit": false,
      "t": 235454.5690000018,
      "d": 719.6970416666591,
      "v": 60
    },
    {
      "midi": 69,
      "hit": false,
      "t": 235454.5690000018,
      "d": 727.2728000000061,
      "v": 60
    },
    {
      "midi": 53,
      "hit": false,
      "t": 235454.5690000018,
      "d": 848.4849333333259,
      "v": 67
    },
    {
      "midi": 57,
      "hit": false,
      "t": 235454.5690000018,
      "d": 856.0606916666729,
      "v": 64
    },
    {
      "midi": 72,
      "hit": false,
      "t": 236060.62966666845,
      "d": 280.3030583333457,
      "v": 59
    },
    {
      "midi": 72,
      "hit": false,
      "t": 236363.6600000018,
      "d": 553.0303583333443,
      "v": 42
    },
    {
      "midi": 55,
      "hit": false,
      "t": 236363.6600000018,
      "d": 628.7879416666692,
      "v": 62
    },
    {
      "midi": 60,
      "hit": false,
      "t": 236363.6600000018,
      "d": 628.7879416666692,
      "v": 69
    },
    {
      "midi": 52,
      "hit": false,
      "t": 236363.6600000018,
      "d": 636.3637000000163,
      "v": 43
    },
    {
      "midi": 67,
      "hit": false,
      "t": 236363.6600000018,
      "d": 878.787966666685,
      "v": 36
    },
    {
      "midi": 76,
      "hit": false,
      "t": 236363.6600000018,
      "d": 886.363725000032,
      "v": 39
    },
    {
      "midi": 72,
      "hit": false,
      "t": 237272.75100000185,
      "d": 477.27277499999036,
      "v": 42
    },
    {
      "midi": 60,
      "hit": false,
      "t": 237272.75100000185,
      "d": 704.5455249999941,
      "v": 68
    },
    {
      "midi": 55,
      "hit": false,
      "t": 237272.75100000185,
      "d": 719.6970416666591,
      "v": 57
    },
    {
      "midi": 52,
      "hit": false,
      "t": 237272.75100000185,
      "d": 727.2728000000061,
      "v": 46
    },
    {
      "midi": 72,
      "hit": false,
      "t": 237878.8116666685,
      "d": 666.6667333333462,
      "v": 68
    },
    {
      "midi": 76,
      "hit": false,
      "t": 237878.8116666685,
      "d": 825.757658333343,
      "v": 58
    },
    {
      "midi": 67,
      "hit": false,
      "t": 237878.8116666685,
      "d": 840.909175000008,
      "v": 63
    },
    {
      "midi": 60,
      "hit": false,
      "t": 238181.84200000187,
      "d": 727.272799999977,
      "v": 79
    },
    {
      "midi": 52,
      "hit": false,
      "t": 238181.84200000187,
      "d": 750.000074999989,
      "v": 43
    },
    {
      "midi": 55,
      "hit": false,
      "t": 238181.84200000187,
      "d": 750.000074999989,
      "v": 64
    },
    {
      "midi": 76,
      "hit": false,
      "t": 238787.90266666852,
      "d": 719.6970416666591,
      "v": 57
    },
    {
      "midi": 72,
      "hit": false,
      "t": 239090.93300000185,
      "d": 696.9697666666762,
      "v": 38
    },
    {
      "midi": 67,
      "hit": false,
      "t": 239090.93300000185,
      "d": 719.6970416666882,
      "v": 62
    },
    {
      "midi": 52,
      "hit": false,
      "t": 239090.93300000185,
      "d": 750.0000750000181,
      "v": 46
    },
    {
      "midi": 55,
      "hit": false,
      "t": 239090.93300000185,
      "d": 757.5758333333652,
      "v": 60
    },
    {
      "midi": 60,
      "hit": false,
      "t": 239090.93300000185,
      "d": 810.6061416667071,
      "v": 69
    },
    {
      "midi": 79,
      "hit": false,
      "t": 240000.0240000019,
      "d": 196.96971666667378,
      "v": 62
    },
    {
      "midi": 84,
      "hit": false,
      "t": 240000.0240000019,
      "d": 196.96971666667378,
      "v": 80
    },
    {
      "midi": 55,
      "hit": false,
      "t": 240000.0240000019,
      "d": 628.7879416666983,
      "v": 62
    },
    {
      "midi": 60,
      "hit": false,
      "t": 240000.0240000019,
      "d": 628.7879416666983,
      "v": 69
    },
    {
      "midi": 52,
      "hit": false,
      "t": 240000.0240000019,
      "d": 636.3637000000454,
      "v": 43
    },
    {
      "midi": 79,
      "hit": false,
      "t": 240303.05433333523,
      "d": 151.51516666667885,
      "v": 54
    },
    {
      "midi": 84,
      "hit": false,
      "t": 240303.05433333523,
      "d": 204.54547500002082,
      "v": 74
    },
    {
      "midi": 84,
      "hit": false,
      "t": 240606.08466666858,
      "d": 143.93940833336092,
      "v": 65
    },
    {
      "midi": 79,
      "hit": false,
      "t": 240606.08466666858,
      "d": 212.12123333336785,
      "v": 51
    },
    {
      "midi": 72,
      "hit": false,
      "t": 240606.08466666858,
      "d": 719.6970416666882,
      "v": 57
    },
    {
      "midi": 84,
      "hit": false,
      "t": 240909.11500000194,
      "d": 159.0909249999968,
      "v": 70
    },
    {
      "midi": 79,
      "hit": false,
      "t": 240909.11500000194,
      "d": 174.24244166666176,
      "v": 56
    },
    {
      "midi": 60,
      "hit": false,
      "t": 240909.11500000194,
      "d": 704.5455250000232,
      "v": 68
    },
    {
      "midi": 55,
      "hit": false,
      "t": 240909.11500000194,
      "d": 719.6970416666882,
      "v": 57
    },
    {
      "midi": 52,
      "hit": false,
      "t": 240909.11500000194,
      "d": 727.2728000000352,
      "v": 46
    },
    {
      "midi": 84,
      "hit": false,
      "t": 241212.14533333527,
      "d": 181.8182000000088,
      "v": 75
    },
    {
      "midi": 79,
      "hit": false,
      "t": 241212.14533333527,
      "d": 250.00002500001574,
      "v": 56
    },
    {
      "midi": 84,
      "hit": false,
      "t": 241515.17566666863,
      "d": 166.66668333334383,
      "v": 74
    },
    {
      "midi": 79,
      "hit": false,
      "t": 241515.17566666863,
      "d": 189.39395833335584,
      "v": 59
    },
    {
      "midi": 72,
      "hit": false,
      "t": 241515.17566666863,
      "d": 719.6970416666882,
      "v": 57
    },
    {
      "midi": 84,
      "hit": false,
      "t": 241818.20600000198,
      "d": 204.5454749999917,
      "v": 63
    },
    {
      "midi": 79,
      "hit": false,
      "t": 241818.20600000198,
      "d": 227.27275000000373,
      "v": 58
    },
    {
      "midi": 55,
      "hit": false,
      "t": 241818.20600000198,
      "d": 681.8182499999821,
      "v": 64
    },
    {
      "midi": 52,
      "hit": false,
      "t": 241818.20600000198,
      "d": 727.272799999977,
      "v": 43
    },
    {
      "midi": 60,
      "hit": false,
      "t": 241818.20600000198,
      "d": 772.7273499999719,
      "v": 79
    },
    {
      "midi": 79,
      "hit": false,
      "t": 242121.2363333353,
      "d": 189.39395833332674,
      "v": 72
    },
    {
      "midi": 84,
      "hit": false,
      "t": 242121.2363333353,
      "d": 212.12123333333875,
      "v": 71
    },
    {
      "midi": 79,
      "hit": false,
      "t": 242424.26666666864,
      "d": 196.96971666664467,
      "v": 61
    },
    {
      "midi": 84,
      "hit": false,
      "t": 242424.26666666864,
      "d": 212.12123333330965,
      "v": 70
    },
    {
      "midi": 79,
      "hit": false,
      "t": 242727.29700000194,
      "d": 189.39395833332674,
      "v": 62
    },
    {
      "midi": 84,
      "hit": false,
      "t": 242727.29700000194,
      "d": 219.6969916666567,
      "v": 71
    },
    {
      "midi": 72,
      "hit": false,
      "t": 242727.29700000194,
      "d": 719.6970416666591,
      "v": 57
    },
    {
      "midi": 55,
      "hit": false,
      "t": 242727.29700000194,
      "d": 795.4546249999839,
      "v": 60
    },
    {
      "midi": 60,
      "hit": false,
      "t": 242727.29700000194,
      "d": 825.757658333343,
      "v": 69
    },
    {
      "midi": 52,
      "hit": false,
      "t": 242727.29700000194,
      "d": 848.484933333355,
      "v": 46
    },
    {
      "midi": 79,
      "hit": false,
      "t": 243030.32733333527,
      "d": 219.6969916666567,
      "v": 58
    },
    {
      "midi": 84,
      "hit": false,
      "t": 243030.32733333527,
      "d": 265.1515416666516,
      "v": 69
    },
    {
      "midi": 79,
      "hit": false,
      "t": 243333.3576666686,
      "d": 189.39395833332674,
      "v": 60
    },
    {
      "midi": 84,
      "hit": false,
      "t": 243333.3576666686,
      "d": 196.96971666667378,
      "v": 76
    },
    {
      "midi": 55,
      "hit": false,
      "t": 243636.38800000196,
      "d": 628.7879416666692,
      "v": 62
    },
    {
      "midi": 60,
      "hit": false,
      "t": 243636.38800000196,
      "d": 628.7879416666692,
      "v": 69
    },
    {
      "midi": 52,
      "hit": false,
      "t": 243636.38800000196,
      "d": 636.3637000000163,
      "v": 43
    },
    {
      "midi": 76,
      "hit": false,
      "t": 243636.38800000196,
      "d": 893.9394833333499,
      "v": 44
    },
    {
      "midi": 79,
      "hit": false,
      "t": 243636.38800000196,
      "d": 893.9394833333499,
      "v": 59
    },
    {
      "midi": 60,
      "hit": false,
      "t": 244545.47900000197,
      "d": 704.5455249999941,
      "v": 68
    },
    {
      "midi": 67,
      "hit": false,
      "t": 244545.47900000197,
      "d": 704.5455249999941,
      "v": 58
    },
    {
      "midi": 55,
      "hit": false,
      "t": 244545.47900000197,
      "d": 719.6970416666591,
      "v": 57
    },
    {
      "midi": 52,
      "hit": false,
      "t": 244545.47900000197,
      "d": 727.2728000000061,
      "v": 46
    },
    {
      "midi": 72,
      "hit": false,
      "t": 244545.47900000197,
      "d": 727.2728000000061,
      "v": 65
    },
    {
      "midi": 69,
      "hit": false,
      "t": 245151.53966666863,
      "d": 424.2424666666775,
      "v": 72
    },
    {
      "midi": 67,
      "hit": false,
      "t": 245454.570000002,
      "d": 424.2424666666484,
      "v": 64
    },
    {
      "midi": 72,
      "hit": false,
      "t": 245454.570000002,
      "d": 454.54549999997835,
      "v": 70
    },
    {
      "midi": 60,
      "hit": false,
      "t": 245454.570000002,
      "d": 727.272799999977,
      "v": 79
    },
    {
      "midi": 52,
      "hit": false,
      "t": 245454.570000002,
      "d": 750.000074999989,
      "v": 43
    },
    {
      "midi": 55,
      "hit": false,
      "t": 245454.570000002,
      "d": 750.000074999989,
      "v": 64
    },
    {
      "midi": 76,
      "hit": false,
      "t": 245454.570000002,
      "d": 765.151591666654,
      "v": 48
    },
    {
      "midi": 79,
      "hit": false,
      "t": 245454.570000002,
      "d": 765.151591666654,
      "v": 52
    },
    {
      "midi": 67,
      "hit": false,
      "t": 246060.63066666864,
      "d": 712.1212833333411,
      "v": 64
    },
    {
      "midi": 72,
      "hit": false,
      "t": 246060.63066666864,
      "d": 719.6970416666882,
      "v": 70
    },
    {
      "midi": 52,
      "hit": false,
      "t": 246363.66100000197,
      "d": 750.0000750000181,
      "v": 46
    },
    {
      "midi": 55,
      "hit": false,
      "t": 246363.66100000197,
      "d": 757.5758333333652,
      "v": 60
    },
    {
      "midi": 60,
      "hit": false,
      "t": 246363.66100000197,
      "d": 810.6061416667071,
      "v": 69
    },
    {
      "midi": 79,
      "hit": false,
      "t": 246371.23675833532,
      "d": 765.1515916666831,
      "v": 52
    },
    {
      "midi": 76,
      "hit": false,
      "t": 246969.72166666866,
      "d": 356.06064166669967,
      "v": 59
    },
    {
      "midi": 69,
      "hit": false,
      "t": 247272.75200000202,
      "d": 530.3030833333323,
      "v": 71
    },
    {
      "midi": 72,
      "hit": false,
      "t": 247272.75200000202,
      "d": 530.3030833333323,
      "v": 59
    },
    {
      "midi": 84,
      "hit": false,
      "t": 247272.75200000202,
      "d": 590.9091499999922,
      "v": 66
    },
    {
      "midi": 53,
      "hit": false,
      "t": 247272.75200000202,
      "d": 666.6667333333171,
      "v": 59
    },
    {
      "midi": 60,
      "hit": false,
      "t": 247272.75200000202,
      "d": 674.2424916666641,
      "v": 53
    },
    {
      "midi": 57,
      "hit": false,
      "t": 247272.75200000202,
      "d": 681.8182500000112,
      "v": 64
    },
    {
      "midi": 77,
      "hit": false,
      "t": 248181.84300000203,
      "d": 545.4545999999973,
      "v": 75
    },
    {
      "midi": 53,
      "hit": false,
      "t": 248181.84300000203,
      "d": 704.5455249999941,
      "v": 51
    },
    {
      "midi": 57,
      "hit": false,
      "t": 248181.84300000203,
      "d": 712.1212833333411,
      "v": 63
    },
    {
      "midi": 60,
      "hit": false,
      "t": 248181.84300000203,
      "d": 712.1212833333411,
      "v": 56
    },
    {
      "midi": 69,
      "hit": false,
      "t": 248181.84300000203,
      "d": 780.3031083333481,
      "v": 67
    },
    {
      "midi": 72,
      "hit": false,
      "t": 248181.84300000203,
      "d": 803.0303833333601,
      "v": 60
    },
    {
      "midi": 81,
      "hit": false,
      "t": 249090.93400000205,
      "d": 590.9091499999922,
      "v": 71
    },
    {
      "midi": 69,
      "hit": false,
      "t": 249090.93400000205,
      "d": 681.8182499999821,
      "v": 63
    },
    {
      "midi": 72,
      "hit": false,
      "t": 249090.93400000205,
      "d": 696.969766666647,
      "v": 67
    },
    {
      "midi": 53,
      "hit": false,
      "t": 249090.93400000205,
      "d": 704.5455249999941,
      "v": 62
    },
    {
      "midi": 60,
      "hit": false,
      "t": 249090.93400000205,
      "d": 719.6970416666591,
      "v": 52
    },
    {
      "midi": 57,
      "hit": false,
      "t": 249090.93400000205,
      "d": 727.2728000000061,
      "v": 57
    },
    {
      "midi": 81,
      "hit": false,
      "t": 250000.02500000206,
      "d": 598.4849083333393,
      "v": 75
    },
    {
      "midi": 72,
      "hit": false,
      "t": 250000.02500000206,
      "d": 712.1212833333411,
      "v": 46
    },
    {
      "midi": 60,
      "hit": false,
      "t": 250000.02500000206,
      "d": 719.6970416666882,
      "v": 60
    },
    {
      "midi": 69,
      "hit": false,
      "t": 250000.02500000206,
      "d": 727.2728000000352,
      "v": 60
    },
    {
      "midi": 53,
      "hit": false,
      "t": 250000.02500000206,
      "d": 848.484933333355,
      "v": 67
    },
    {
      "midi": 57,
      "hit": false,
      "t": 250000.02500000206,
      "d": 856.060691666702,
      "v": 64
    },
    {
      "midi": 67,
      "hit": false,
      "t": 250909.1160000021,
      "d": 522.7273250000144,
      "v": 59
    },
    {
      "midi": 79,
      "hit": false,
      "t": 250909.1160000021,
      "d": 560.6061166666914,
      "v": 68
    },
    {
      "midi": 55,
      "hit": false,
      "t": 250909.1160000021,
      "d": 628.7879416666983,
      "v": 62
    },
    {
      "midi": 60,
      "hit": false,
      "t": 250909.1160000021,
      "d": 628.7879416666983,
      "v": 69
    },
    {
      "midi": 52,
      "hit": false,
      "t": 250909.1160000021,
      "d": 636.3637000000454,
      "v": 43
    },
    {
      "midi": 72,
      "hit": false,
      "t": 251515.1766666688,
      "d": 719.6970416666882,
      "v": 75
    },
    {
      "midi": 67,
      "hit": false,
      "t": 251818.20700000215,
      "d": 522.7273249999853,
      "v": 59
    },
    {
      "midi": 60,
      "hit": false,
      "t": 251818.20700000215,
      "d": 704.5455249999941,
      "v": 68
    },
    {
      "midi": 55,
      "hit": false,
      "t": 251818.20700000215,
      "d": 719.6970416666591,
      "v": 57
    },
    {
      "midi": 52,
      "hit": false,
      "t": 251818.20700000215,
      "d": 727.2728000000061,
      "v": 46
    },
    {
      "midi": 79,
      "hit": false,
      "t": 251818.20700000215,
      "d": 787.878866666666,
      "v": 63
    },
    {
      "midi": 76,
      "hit": false,
      "t": 252424.2676666688,
      "d": 583.3333916666743,
      "v": 69
    },
    {
      "midi": 72,
      "hit": false,
      "t": 252727.29800000213,
      "d": 553.0303583333443,
      "v": 75
    },
    {
      "midi": 67,
      "hit": false,
      "t": 252727.29800000213,
      "d": 606.0606666666863,
      "v": 57
    },
    {
      "midi": 55,
      "hit": false,
      "t": 252727.29800000213,
      "d": 681.8182500000112,
      "v": 64
    },
    {
      "midi": 52,
      "hit": false,
      "t": 252727.29800000213,
      "d": 727.2728000000061,
      "v": 43
    },
    {
      "midi": 60,
      "hit": false,
      "t": 252727.29800000213,
      "d": 772.727350000001,
      "v": 79
    },
    {
      "midi": 76,
      "hit": false,
      "t": 253333.35866666882,
      "d": 416.66670833333046,
      "v": 55
    },
    {
      "midi": 67,
      "hit": false,
      "t": 253636.38900000215,
      "d": 628.7879416666692,
      "v": 57
    },
    {
      "midi": 72,
      "hit": false,
      "t": 253636.38900000215,
      "d": 704.5455249999941,
      "v": 75
    },
    {
      "midi": 55,
      "hit": false,
      "t": 253636.38900000215,
      "d": 795.4546249999839,
      "v": 60
    },
    {
      "midi": 60,
      "hit": false,
      "t": 253636.38900000215,
      "d": 825.7576583333139,
      "v": 69
    },
    {
      "midi": 52,
      "hit": false,
      "t": 253636.38900000215,
      "d": 848.4849333333259,
      "v": 46
    },
    {
      "midi": 76,
      "hit": false,
      "t": 253939.41933333548,
      "d": 416.66670833333046,
      "v": 55
    },
    {
      "midi": 79,
      "hit": false,
      "t": 254545.48000000214,
      "d": 7.575758333347039,
      "v": 68
    },
    {
      "midi": 64,
      "hit": false,
      "t": 254545.48000000214,
      "d": 310.60609166670474,
      "v": 79
    },
    {
      "midi": 84,
      "hit": false,
      "t": 254545.48000000214,
      "d": 583.3333916667034,
      "v": 69
    },
    {
      "midi": 55,
      "hit": false,
      "t": 254545.48000000214,
      "d": 628.7879416667274,
      "v": 62
    },
    {
      "midi": 60,
      "hit": false,
      "t": 254545.48000000214,
      "d": 628.7879416667274,
      "v": 69
    },
    {
      "midi": 52,
      "hit": false,
      "t": 254545.48000000214,
      "d": 636.3637000000745,
      "v": 43
    },
    {
      "midi": 65,
      "hit": false,
      "t": 254848.5103333355,
      "d": 250.00002500001574,
      "v": 79
    },
    {
      "midi": 66,
      "hit": false,
      "t": 255151.54066666885,
      "d": 250.00002500001574,
      "v": 79
    },
    {
      "midi": 72,
      "hit": false,
      "t": 255151.54066666885,
      "d": 719.6970416666882,
      "v": 57
    },
    {
      "midi": 67,
      "hit": false,
      "t": 255454.5710000022,
      "d": 356.06064166667056,
      "v": 68
    },
    {
      "midi": 60,
      "hit": false,
      "t": 255454.5710000022,
      "d": 704.5455250000232,
      "v": 68
    },
    {
      "midi": 55,
      "hit": false,
      "t": 255454.5710000022,
      "d": 719.6970416666882,
      "v": 57
    },
    {
      "midi": 52,
      "hit": false,
      "t": 255454.5710000022,
      "d": 727.2728000000352,
      "v": 46
    },
    {
      "midi": 79,
      "hit": false,
      "t": 255454.5710000022,
      "d": 787.8788666666951,
      "v": 63
    },
    {
      "midi": 69,
      "hit": false,
      "t": 255757.60133333554,
      "d": 265.1515416666807,
      "v": 75
    },
    {
      "midi": 71,
      "hit": false,
      "t": 256060.6316666689,
      "d": 356.06064166667056,
      "v": 78
    },
    {
      "midi": 72,
      "hit": false,
      "t": 256363.66200000222,
      "d": 356.06064166667056,
      "v": 69
    },
    {
      "midi": 55,
      "hit": false,
      "t": 256363.66200000222,
      "d": 681.8182500000112,
      "v": 64
    },
    {
      "midi": 52,
      "hit": false,
      "t": 256363.66200000222,
      "d": 727.2728000000061,
      "v": 43
    },
    {
      "midi": 60,
      "hit": false,
      "t": 256363.66200000222,
      "d": 772.727350000001,
      "v": 79
    },
    {
      "midi": 74,
      "hit": false,
      "t": 256666.69233333555,
      "d": 356.06064166667056,
      "v": 69
    },
    {
      "midi": 76,
      "hit": false,
      "t": 256969.72266666888,
      "d": 356.06064166669967,
      "v": 77
    },
    {
      "midi": 77,
      "hit": false,
      "t": 257272.75300000224,
      "d": 356.06064166667056,
      "v": 69
    },
    {
      "midi": 55,
      "hit": false,
      "t": 257272.75300000224,
      "d": 795.454625000013,
      "v": 60
    },
    {
      "midi": 60,
      "hit": false,
      "t": 257272.75300000224,
      "d": 825.757658333343,
      "v": 69
    },
    {
      "midi": 52,
      "hit": false,
      "t": 257272.75300000224,
      "d": 848.484933333355,
      "v": 46
    },
    {
      "midi": 79,
      "hit": false,
      "t": 257575.78333333557,
      "d": 356.06064166667056,
      "v": 77
    },
    {
      "midi": 81,
      "hit": false,
      "t": 257878.8136666689,
      "d": 356.06064166669967,
      "v": 69
    },
    {
      "midi": 55,
      "hit": false,
      "t": 258181.84400000225,
      "d": 628.7879416666692,
      "v": 62
    },
    {
      "midi": 60,
      "hit": false,
      "t": 258181.84400000225,
      "d": 628.7879416666692,
      "v": 69
    },
    {
      "midi": 52,
      "hit": false,
      "t": 258181.84400000225,
      "d": 636.3637000000163,
      "v": 43
    },
    {
      "midi": 76,
      "hit": false,
      "t": 258181.84400000225,
      "d": 893.9394833333499,
      "v": 44
    },
    {
      "midi": 79,
      "hit": false,
      "t": 258181.84400000225,
      "d": 893.9394833333499,
      "v": 67
    },
    {
      "midi": 60,
      "hit": false,
      "t": 259090.93500000227,
      "d": 704.5455250000232,
      "v": 68
    },
    {
      "midi": 55,
      "hit": false,
      "t": 259090.93500000227,
      "d": 719.6970416666882,
      "v": 57
    },
    {
      "midi": 52,
      "hit": false,
      "t": 259090.93500000227,
      "d": 727.2728000000352,
      "v": 46
    },
    {
      "midi": 72,
      "hit": false,
      "t": 259090.93500000227,
      "d": 727.2728000000352,
      "v": 65
    },
    {
      "midi": 67,
      "hit": false,
      "t": 259401.54109166894,
      "d": 363.6364000000176,
      "v": 71
    },
    {
      "midi": 69,
      "hit": false,
      "t": 259696.99566666895,
      "d": 424.2424666666775,
      "v": 72
    },
    {
      "midi": 67,
      "hit": false,
      "t": 260000.0260000023,
      "d": 424.2424666666484,
      "v": 64
    },
    {
      "midi": 72,
      "hit": false,
      "t": 260000.0260000023,
      "d": 454.54549999997835,
      "v": 70
    },
    {
      "midi": 60,
      "hit": false,
      "t": 260000.0260000023,
      "d": 727.272799999977,
      "v": 79
    },
    {
      "midi": 52,
      "hit": false,
      "t": 260000.0260000023,
      "d": 750.000074999989,
      "v": 43
    },
    {
      "midi": 55,
      "hit": false,
      "t": 260000.0260000023,
      "d": 750.000074999989,
      "v": 64
    },
    {
      "midi": 76,
      "hit": false,
      "t": 260000.0260000023,
      "d": 765.151591666654,
      "v": 48
    },
    {
      "midi": 79,
      "hit": false,
      "t": 260000.0260000023,
      "d": 765.151591666654,
      "v": 52
    },
    {
      "midi": 67,
      "hit": false,
      "t": 260606.08666666897,
      "d": 712.1212833333411,
      "v": 64
    },
    {
      "midi": 72,
      "hit": false,
      "t": 260606.08666666897,
      "d": 719.6970416666882,
      "v": 70
    },
    {
      "midi": 52,
      "hit": false,
      "t": 260909.1170000023,
      "d": 750.0000750000181,
      "v": 46
    },
    {
      "midi": 55,
      "hit": false,
      "t": 260909.1170000023,
      "d": 757.5758333333652,
      "v": 60
    },
    {
      "midi": 60,
      "hit": false,
      "t": 260909.1170000023,
      "d": 810.6061416667071,
      "v": 69
    },
    {
      "midi": 79,
      "hit": false,
      "t": 260916.69275833564,
      "d": 765.1515916666831,
      "v": 52
    },
    {
      "midi": 69,
      "hit": false,
      "t": 261818.20800000234,
      "d": 939.3940333333157,
      "v": 68
    },
    {
      "midi": 60,
      "hit": false,
      "t": 261818.20800000234,
      "d": 962.1213083333278,
      "v": 74
    },
    {
      "midi": 65,
      "hit": false,
      "t": 261818.20800000234,
      "d": 984.8485833333398,
      "v": 74
    },
    {
      "midi": 48,
      "hit": false,
      "t": 261818.20800000234,
      "d": 1037.8788916666817,
      "v": 74
    },
    {
      "midi": 53,
      "hit": false,
      "t": 261818.20800000234,
      "d": 1053.0304083333758,
      "v": 50
    },
    {
      "midi": 65,
      "hit": false,
      "t": 263181.8445000024,
      "d": 8628.788741666649,
      "v": 73
    },
    {
      "midi": 69,
      "hit": false,
      "t": 263181.8445000024,
      "d": 8643.940258333343,
      "v": 72
    },
    {
      "midi": 60,
      "hit": false,
      "t": 263181.8445000024,
      "d": 8666.667533333355,
      "v": 70
    },
    {
      "midi": 48,
      "hit": false,
      "t": 263181.8445000024,
      "d": 8977.27362500003,
      "v": 64
    },
    {
      "midi": 53,
      "hit": false,
      "t": 263181.8445000024,
      "d": 9000.000900000043,
      "v": 55
    },
    {
      "midi": 60,
      "hit": false,
      "t": 280000.02800000244,
      "d": 477.27277500001946,
      "v": 69
    },
    {
      "midi": 55,
      "hit": false,
      "t": 280000.02800000244,
      "d": 628.7879416666692,
      "v": 62
    },
    {
      "midi": 52,
      "hit": false,
      "t": 280000.02800000244,
      "d": 636.3636999999871,
      "v": 43
    },
    {
      "midi": 76,
      "hit": false,
      "t": 280000.02800000244,
      "d": 893.9394833333208,
      "v": 44
    },
    {
      "midi": 79,
      "hit": false,
      "t": 280000.02800000244,
      "d": 893.9394833333208,
      "v": 59
    },
    {
      "midi": 60,
      "hit": false,
      "t": 280598.5129083358,
      "d": 1007.5758583333227,
      "v": 68
    },
    {
      "midi": 67,
      "hit": false,
      "t": 280909.11900000245,
      "d": 704.545524999965,
      "v": 58
    },
    {
      "midi": 55,
      "hit": false,
      "t": 280909.11900000245,
      "d": 719.6970416666591,
      "v": 57
    },
    {
      "midi": 52,
      "hit": false,
      "t": 280909.11900000245,
      "d": 727.272799999977,
      "v": 46
    },
    {
      "midi": 72,
      "hit": false,
      "t": 280909.11900000245,
      "d": 727.272799999977,
      "v": 65
    },
    {
      "midi": 69,
      "hit": false,
      "t": 281515.1796666691,
      "d": 424.2424666666193,
      "v": 81
    },
    {
      "midi": 67,
      "hit": false,
      "t": 281818.2100000024,
      "d": 424.2424666666775,
      "v": 64
    },
    {
      "midi": 72,
      "hit": false,
      "t": 281818.2100000024,
      "d": 454.54550000000745,
      "v": 70
    },
    {
      "midi": 60,
      "hit": false,
      "t": 281818.2100000024,
      "d": 727.272799999977,
      "v": 79
    },
    {
      "midi": 52,
      "hit": false,
      "t": 281818.2100000024,
      "d": 750.000074999989,
      "v": 43
    },
    {
      "midi": 55,
      "hit": false,
      "t": 281818.2100000024,
      "d": 750.000074999989,
      "v": 64
    },
    {
      "midi": 76,
      "hit": false,
      "t": 281818.2100000024,
      "d": 765.1515916666831,
      "v": 48
    },
    {
      "midi": 79,
      "hit": false,
      "t": 281818.2100000024,
      "d": 765.1515916666831,
      "v": 52
    },
    {
      "midi": 67,
      "hit": false,
      "t": 282424.27066666906,
      "d": 712.1212833333411,
      "v": 64
    },
    {
      "midi": 72,
      "hit": false,
      "t": 282424.27066666906,
      "d": 719.6970416666591,
      "v": 70
    },
    {
      "midi": 52,
      "hit": false,
      "t": 282727.3010000024,
      "d": 750.000074999989,
      "v": 46
    },
    {
      "midi": 55,
      "hit": false,
      "t": 282727.3010000024,
      "d": 757.575833333307,
      "v": 60
    },
    {
      "midi": 60,
      "hit": false,
      "t": 282727.3010000024,
      "d": 810.6061416666489,
      "v": 69
    },
    {
      "midi": 79,
      "hit": false,
      "t": 282734.87675833574,
      "d": 765.1515916666831,
      "v": 52
    },
    {
      "midi": 72,
      "hit": false,
      "t": 283333.3616666691,
      "d": 234.84850833332166,
      "v": 59
    },
    {
      "midi": 60,
      "hit": false,
      "t": 283636.3920000024,
      "d": 507.5758083333494,
      "v": 69
    },
    {
      "midi": 72,
      "hit": false,
      "t": 283636.3920000024,
      "d": 553.0303583333734,
      "v": 62
    },
    {
      "midi": 57,
      "hit": false,
      "t": 283636.3920000024,
      "d": 628.7879416667274,
      "v": 62
    },
    {
      "midi": 53,
      "hit": false,
      "t": 283636.3920000024,
      "d": 636.3637000000454,
      "v": 43
    },
    {
      "midi": 69,
      "hit": false,
      "t": 283636.3920000024,
      "d": 878.787966666685,
      "v": 56
    },
    {
      "midi": 77,
      "hit": false,
      "t": 283636.3920000024,
      "d": 886.3637250000029,
      "v": 55
    },
    {
      "midi": 60,
      "hit": false,
      "t": 284242.4526666691,
      "d": 1121.2122333332663,
      "v": 68
    },
    {
      "midi": 72,
      "hit": false,
      "t": 284545.4830000024,
      "d": 477.27277500001946,
      "v": 62
    },
    {
      "midi": 57,
      "hit": false,
      "t": 284545.4830000024,
      "d": 719.6970416666591,
      "v": 57
    },
    {
      "midi": 53,
      "hit": false,
      "t": 284545.4830000024,
      "d": 727.272799999977,
      "v": 46
    },
    {
      "midi": 72,
      "hit": false,
      "t": 285151.54366666905,
      "d": 257.5757833333337,
      "v": 68
    },
    {
      "midi": 77,
      "hit": false,
      "t": 285151.54366666905,
      "d": 310.60609166667564,
      "v": 58
    },
    {
      "midi": 72,
      "hit": false,
      "t": 285454.5740000024,
      "d": 712.1212833333411,
      "v": 68
    },
    {
      "midi": 75,
      "hit": false,
      "t": 285454.5740000024,
      "d": 712.1212833333411,
      "v": 68
    },
    {
      "midi": 60,
      "hit": false,
      "t": 285454.5740000024,
      "d": 727.2728000000352,
      "v": 79
    },
    {
      "midi": 51,
      "hit": false,
      "t": 285454.5740000024,
      "d": 750.0000750000472,
      "v": 59
    },
    {
      "midi": 56,
      "hit": false,
      "t": 285454.5740000024,
      "d": 750.0000750000472,
      "v": 64
    },
    {
      "midi": 68,
      "hit": false,
      "t": 285454.5740000024,
      "d": 840.9091750000371,
      "v": 63
    },
    {
      "midi": 74,
      "hit": false,
      "t": 286363.6650000024,
      "d": 696.969766666647,
      "v": 64
    },
    {
      "midi": 70,
      "hit": false,
      "t": 286363.6650000024,
      "d": 719.6970416666591,
      "v": 72
    },
    {
      "midi": 77,
      "hit": false,
      "t": 286363.6650000024,
      "d": 719.6970416666591,
      "v": 57
    },
    {
      "midi": 53,
      "hit": false,
      "t": 286363.6650000024,
      "d": 750.000074999989,
      "v": 56
    },
    {
      "midi": 58,
      "hit": false,
      "t": 286363.6650000024,
      "d": 757.575833333307,
      "v": 60
    },
    {
      "midi": 62,
      "hit": false,
      "t": 286363.6650000024,
      "d": 810.6061416666489,
      "v": 69
    },
    {
      "midi": 55,
      "hit": false,
      "t": 287272.7560000024,
      "d": 628.7879416666692,
      "v": 62
    },
    {
      "midi": 52,
      "hit": false,
      "t": 287272.7560000024,
      "d": 636.3636999999871,
      "v": 43
    },
    {
      "midi": 72,
      "hit": false,
      "t": 287272.7560000024,
      "d": 674.242491666635,
      "v": 62
    },
    {
      "midi": 60,
      "hit": false,
      "t": 287272.7560000024,
      "d": 795.4546249999548,
      "v": 69
    },
    {
      "midi": 67,
      "hit": false,
      "t": 287272.7560000024,
      "d": 878.7879666666267,
      "v": 56
    },
    {
      "midi": 76,
      "hit": false,
      "t": 287272.7560000024,
      "d": 886.3637249999447,
      "v": 55
    },
    {
      "midi": 55,
      "hit": false,
      "t": 288181.84700000234,
      "d": 719.6970416666591,
      "v": 57
    },
    {
      "midi": 52,
      "hit": false,
      "t": 288181.84700000234,
      "d": 727.272799999977,
      "v": 46
    },
    {
      "midi": 72,
      "hit": false,
      "t": 288181.84700000234,
      "d": 742.4243166666711,
      "v": 62
    },
    {
      "midi": 60,
      "hit": false,
      "t": 288189.42275833566,
      "d": 712.1212833333411,
      "v": 68
    },
    {
      "midi": 70,
      "hit": false,
      "t": 289090.93800000235,
      "d": 712.1212833333411,
      "v": 68
    },
    {
      "midi": 74,
      "hit": false,
      "t": 289090.93800000235,
      "d": 712.1212833333411,
      "v": 68
    },
    {
      "midi": 62,
      "hit": false,
      "t": 289090.93800000235,
      "d": 727.2728000000352,
      "v": 79
    },
    {
      "midi": 53,
      "hit": false,
      "t": 289090.93800000235,
      "d": 750.0000750000472,
      "v": 59
    },
    {
      "midi": 58,
      "hit": false,
      "t": 289090.93800000235,
      "d": 750.0000750000472,
      "v": 64
    },
    {
      "midi": 65,
      "hit": false,
      "t": 289090.93800000235,
      "d": 840.9091750000371,
      "v": 63
    },
    {
      "midi": 72,
      "hit": false,
      "t": 290000.02900000237,
      "d": 696.969766666647,
      "v": 64
    },
    {
      "midi": 69,
      "hit": false,
      "t": 290000.02900000237,
      "d": 719.6970416666591,
      "v": 72
    },
    {
      "midi": 77,
      "hit": false,
      "t": 290000.02900000237,
      "d": 719.6970416666591,
      "v": 57
    },
    {
      "midi": 53,
      "hit": false,
      "t": 290000.02900000237,
      "d": 750.000074999989,
      "v": 56
    },
    {
      "midi": 57,
      "hit": false,
      "t": 290000.02900000237,
      "d": 757.575833333307,
      "v": 60
    },
    {
      "midi": 60,
      "hit": false,
      "t": 290000.02900000237,
      "d": 810.6061416666489,
      "v": 69
    },
    {
      "midi": 48,
      "hit": false,
      "t": 290909.1200000023,
      "d": 5416.667208333965,
      "v": 78
    },
    {
      "midi": 52,
      "hit": false,
      "t": 290909.1200000023,
      "d": 5424.242966667283,
      "v": 77
    },
    {
      "midi": 55,
      "hit": false,
      "t": 290909.1200000023,
      "d": 5424.242966667283,
      "v": 76
    },
    {
      "midi": 79,
      "hit": false,
      "t": 291007.6048583357,
      "d": 53.030308333341964,
      "v": 58
    },
    {
      "midi": 72,
      "hit": false,
      "t": 291053.0594083357,
      "d": 53.030308333341964,
      "v": 53
    },
    {
      "midi": 79,
      "hit": false,
      "t": 291143.9685083357,
      "d": 53.030308333341964,
      "v": 58
    },
    {
      "midi": 72,
      "hit": false,
      "t": 291189.4230583357,
      "d": 53.030308333341964,
      "v": 53
    },
    {
      "midi": 79,
      "hit": false,
      "t": 291280.3321583357,
      "d": 53.030308333341964,
      "v": 57
    },
    {
      "midi": 72,
      "hit": false,
      "t": 291325.78670833574,
      "d": 53.030308333341964,
      "v": 51
    },
    {
      "midi": 79,
      "hit": false,
      "t": 291416.69580833573,
      "d": 53.030308333341964,
      "v": 56
    },
    {
      "midi": 72,
      "hit": false,
      "t": 291462.15035833576,
      "d": 53.030308333341964,
      "v": 51
    },
    {
      "midi": 79,
      "hit": false,
      "t": 291553.05945833575,
      "d": 53.030308333341964,
      "v": 56
    },
    {
      "midi": 72,
      "hit": false,
      "t": 291598.51400833577,
      "d": 53.030308333341964,
      "v": 50
    },
    {
      "midi": 79,
      "hit": false,
      "t": 291689.42310833576,
      "d": 53.030308333341964,
      "v": 55
    },
    {
      "midi": 72,
      "hit": false,
      "t": 291734.8776583358,
      "d": 53.030308333341964,
      "v": 49
    },
    {
      "midi": 79,
      "hit": false,
      "t": 291825.7867583358,
      "d": 53.030308333341964,
      "v": 54
    },
    {
      "midi": 72,
      "hit": false,
      "t": 291871.2413083358,
      "d": 53.030308333341964,
      "v": 49
    },
    {
      "midi": 79,
      "hit": false,
      "t": 291962.1504083358,
      "d": 53.030308333341964,
      "v": 54
    },
    {
      "midi": 72,
      "hit": false,
      "t": 292007.6049583358,
      "d": 53.030308333341964,
      "v": 47
    },
    {
      "midi": 79,
      "hit": false,
      "t": 292098.5140583358,
      "d": 53.030308333341964,
      "v": 53
    },
    {
      "midi": 72,
      "hit": false,
      "t": 292143.9686083358,
      "d": 53.030308333341964,
      "v": 47
    },
    {
      "midi": 79,
      "hit": false,
      "t": 292234.8777083358,
      "d": 53.030308333341964,
      "v": 52
    },
    {
      "midi": 72,
      "hit": false,
      "t": 292280.33225833584,
      "d": 53.030308333341964,
      "v": 45
    },
    {
      "midi": 79,
      "hit": false,
      "t": 292371.2413583358,
      "d": 53.030308333341964,
      "v": 52
    },
    {
      "midi": 72,
      "hit": false,
      "t": 292416.69590833585,
      "d": 53.030308333341964,
      "v": 45
    },
    {
      "midi": 79,
      "hit": false,
      "t": 292507.60500833584,
      "d": 53.030308333341964,
      "v": 51
    },
    {
      "midi": 72,
      "hit": false,
      "t": 292553.05955833587,
      "d": 53.030308333341964,
      "v": 44
    },
    {
      "midi": 79,
      "hit": false,
      "t": 292643.96865833586,
      "d": 53.030308333341964,
      "v": 50
    },
    {
      "midi": 72,
      "hit": false,
      "t": 292689.4232083359,
      "d": 53.030308333341964,
      "v": 42
    },
    {
      "midi": 79,
      "hit": false,
      "t": 292780.33230833587,
      "d": 53.030308333341964,
      "v": 50
    },
    {
      "midi": 72,
      "hit": false,
      "t": 292825.7868583359,
      "d": 53.030308333341964,
      "v": 42
    },
    {
      "midi": 79,
      "hit": false,
      "t": 292916.6959583359,
      "d": 53.030308333341964,
      "v": 49
    },
    {
      "midi": 72,
      "hit": false,
      "t": 292962.1505083359,
      "d": 53.030308333341964,
      "v": 41
    },
    {
      "midi": 79,
      "hit": false,
      "t": 293053.0596083359,
      "d": 53.030308333341964,
      "v": 48
    },
    {
      "midi": 72,
      "hit": false,
      "t": 293098.5141583359,
      "d": 53.030308333341964,
      "v": 41
    },
    {
      "midi": 79,
      "hit": false,
      "t": 293189.4232583359,
      "d": 53.030308333341964,
      "v": 48
    },
    {
      "midi": 72,
      "hit": false,
      "t": 293234.87780833594,
      "d": 53.030308333341964,
      "v": 39
    },
    {
      "midi": 79,
      "hit": false,
      "t": 293325.7869083359,
      "d": 53.030308333341964,
      "v": 47
    },
    {
      "midi": 72,
      "hit": false,
      "t": 293371.24145833595,
      "d": 53.030308333341964,
      "v": 39
    },
    {
      "midi": 79,
      "hit": false,
      "t": 293462.15055833594,
      "d": 53.030308333341964,
      "v": 46
    },
    {
      "midi": 72,
      "hit": false,
      "t": 293507.60510833596,
      "d": 53.030308333341964,
      "v": 38
    },
    {
      "midi": 79,
      "hit": false,
      "t": 293598.51420833595,
      "d": 53.030308333341964,
      "v": 46
    },
    {
      "midi": 72,
      "hit": false,
      "t": 293643.968758336,
      "d": 53.030308333341964,
      "v": 36
    },
    {
      "midi": 79,
      "hit": false,
      "t": 293734.87785833597,
      "d": 53.030308333341964,
      "v": 45
    },
    {
      "midi": 72,
      "hit": false,
      "t": 293780.332408336,
      "d": 53.030308333341964,
      "v": 36
    },
    {
      "midi": 79,
      "hit": false,
      "t": 293871.241508336,
      "d": 53.030308333341964,
      "v": 44
    },
    {
      "midi": 72,
      "hit": false,
      "t": 293916.696058336,
      "d": 53.030308333341964,
      "v": 35
    },
    {
      "midi": 79,
      "hit": false,
      "t": 294007.605158336,
      "d": 53.030308333341964,
      "v": 44
    },
    {
      "midi": 72,
      "hit": false,
      "t": 294053.059708336,
      "d": 53.030308333341964,
      "v": 35
    },
    {
      "midi": 79,
      "hit": false,
      "t": 294143.968808336,
      "d": 53.030308333341964,
      "v": 43
    },
    {
      "midi": 72,
      "hit": false,
      "t": 294189.42335833603,
      "d": 53.030308333341964,
      "v": 34
    },
    {
      "midi": 79,
      "hit": false,
      "t": 294280.332458336,
      "d": 53.030308333341964,
      "v": 42
    },
    {
      "midi": 72,
      "hit": false,
      "t": 294325.78700833605,
      "d": 53.030308333341964,
      "v": 34
    },
    {
      "midi": 79,
      "hit": false,
      "t": 294416.69610833604,
      "d": 53.030308333341964,
      "v": 42
    },
    {
      "midi": 72,
      "hit": false,
      "t": 294462.15065833606,
      "d": 53.030308333341964,
      "v": 33
    },
    {
      "midi": 79,
      "hit": false,
      "t": 294553.05975833605,
      "d": 53.030308333341964,
      "v": 41
    },
    {
      "midi": 72,
      "hit": false,
      "t": 294598.5143083361,
      "d": 53.030308333341964,
      "v": 31
    },
    {
      "midi": 79,
      "hit": false,
      "t": 294689.42340833606,
      "d": 53.030308333341964,
      "v": 40
    },
    {
      "midi": 72,
      "hit": false,
      "t": 294734.8779583361,
      "d": 53.030308333341964,
      "v": 31
    },
    {
      "midi": 79,
      "hit": false,
      "t": 294825.7870583361,
      "d": 53.030308333341964,
      "v": 40
    },
    {
      "midi": 72,
      "hit": false,
      "t": 294871.2416083361,
      "d": 53.030308333341964,
      "v": 29
    },
    {
      "midi": 79,
      "hit": false,
      "t": 294962.1507083361,
      "d": 53.030308333341964,
      "v": 39
    },
    {
      "midi": 72,
      "hit": false,
      "t": 295007.6052583361,
      "d": 53.030308333341964,
      "v": 29
    },
    {
      "midi": 79,
      "hit": false,
      "t": 295098.5143583361,
      "d": 53.030308333341964,
      "v": 38
    },
    {
      "midi": 72,
      "hit": false,
      "t": 295143.96890833613,
      "d": 53.030308333341964,
      "v": 27
    },
    {
      "midi": 79,
      "hit": false,
      "t": 295234.8780083361,
      "d": 53.030308333341964,
      "v": 38
    },
    {
      "midi": 72,
      "hit": false,
      "t": 295280.33255833614,
      "d": 53.030308333341964,
      "v": 27
    },
    {
      "midi": 79,
      "hit": false,
      "t": 295371.24165833613,
      "d": 53.030308333341964,
      "v": 37
    },
    {
      "midi": 72,
      "hit": false,
      "t": 295416.69620833616,
      "d": 53.030308333341964,
      "v": 25
    },
    {
      "midi": 88,
      "hit": false,
      "t": 295719.7265416695,
      "d": 121.2121333333198,
      "v": 51
    },
    {
      "midi": 86,
      "hit": false,
      "t": 295803.0598833362,
      "d": 83.33334166667191,
      "v": 43
    },
    {
      "midi": 84,
      "hit": false,
      "t": 295871.24170833617,
      "d": 37.87879166670609,
      "v": 69
    },
    {
      "midi": 83,
      "hit": false,
      "t": 295931.8477750029,
      "d": 37.87879166670609,
      "v": 78
    },
    {
      "midi": 81,
      "hit": false,
      "t": 295954.5750500029,
      "d": 30.30303333332995,
      "v": 76
    },
    {
      "midi": 79,
      "hit": false,
      "t": 295977.3023250029,
      "d": 30.30303333332995,
      "v": 76
    },
    {
      "midi": 77,
      "hit": false,
      "t": 296000.0296000029,
      "d": 37.878791666647885,
      "v": 64
    },
    {
      "midi": 76,
      "hit": false,
      "t": 296030.33263333625,
      "d": 30.30303333332995,
      "v": 62
    },
    {
      "midi": 74,
      "hit": false,
      "t": 296045.4841500029,
      "d": 37.87879166670609,
      "v": 62
    },
    {
      "midi": 72,
      "hit": false,
      "t": 296075.7871833363,
      "d": 30.30303333332995,
      "v": 62
    }
  ]
}