{
  "jsonPath": "Soundtracks/Video Game Music/Mother 3/mother-beinfriends.json",
  "path": "Soundtracks\\Video Game Music\\Mother 3\\Mother_BeinFriends.mid",
  "name": "Mother_BeinFriends",
  "difficulty": "Advanced",
  "bpm": 130.00013000013,
  "notes": [
    {
      "midi": 72,
      "hit": false,
      "t": 0,
      "d": 225.96131249999996,
      "v": 110
    },
    {
      "midi": 81,
      "hit": false,
      "t": 0,
      "d": 225.96131249999996,
      "v": 110
    },
    {
      "midi": 72,
      "hit": false,
      "t": 230.76899999999995,
      "d": 225.96131249999996,
      "v": 110
    },
    {
      "midi": 81,
      "hit": false,
      "t": 230.76899999999995,
      "d": 225.96131249999996,
      "v": 110
    },
    {
      "midi": 38,
      "hit": false,
      "t": 461.53799999999995,
      "d": 384.61499999999995,
      "v": 110
    },
    {
      "midi": 50,
      "hit": false,
      "t": 461.53799999999995,
      "d": 384.61499999999995,
      "v": 110
    },
    {
      "midi": 74,
      "hit": false,
      "t": 692.3069999999999,
      "d": 225.96131249999996,
      "v": 110
    },
    {
      "midi": 82,
      "hit": false,
      "t": 692.3069999999999,
      "d": 225.96131249999996,
      "v": 110
    },
    {
      "midi": 74,
      "hit": false,
      "t": 1153.8449999999998,
      "d": 615.384,
      "v": 110
    },
    {
      "midi": 82,
      "hit": false,
      "t": 1153.8449999999998,
      "d": 615.384,
      "v": 110
    },
    {
      "midi": 38,
      "hit": false,
      "t": 1384.6139999999998,
      "d": 384.615,
      "v": 110
    },
    {
      "midi": 50,
      "hit": false,
      "t": 1384.6139999999998,
      "d": 384.615,
      "v": 110
    },
    {
      "midi": 70,
      "hit": false,
      "t": 1846.1519999999998,
      "d": 225.96131249999985,
      "v": 110
    },
    {
      "midi": 79,
      "hit": false,
      "t": 1846.1519999999998,
      "d": 225.96131249999985,
      "v": 110
    },
    {
      "midi": 70,
      "hit": false,
      "t": 2076.921,
      "d": 225.96131250000008,
      "v": 110
    },
    {
      "midi": 79,
      "hit": false,
      "t": 2076.921,
      "d": 225.96131250000008,
      "v": 110
    },
    {
      "midi": 38,
      "hit": false,
      "t": 2307.6899999999996,
      "d": 384.6149999999998,
      "v": 110
    },
    {
      "midi": 50,
      "hit": false,
      "t": 2307.6899999999996,
      "d": 384.6149999999998,
      "v": 110
    },
    {
      "midi": 72,
      "hit": false,
      "t": 2538.459,
      "d": 225.96131250000008,
      "v": 110
    },
    {
      "midi": 81,
      "hit": false,
      "t": 2538.459,
      "d": 225.96131250000008,
      "v": 110
    },
    {
      "midi": 72,
      "hit": false,
      "t": 2999.997,
      "d": 615.384,
      "v": 110
    },
    {
      "midi": 81,
      "hit": false,
      "t": 2999.997,
      "d": 615.384,
      "v": 110
    },
    {
      "midi": 38,
      "hit": false,
      "t": 3230.765999999999,
      "d": 384.6149999999998,
      "v": 110
    },
    {
      "midi": 50,
      "hit": false,
      "t": 3230.765999999999,
      "d": 384.6149999999998,
      "v": 110
    },
    {
      "midi": 69,
      "hit": false,
      "t": 3692.3039999999996,
      "d": 225.96131250000008,
      "v": 110
    },
    {
      "midi": 77,
      "hit": false,
      "t": 3692.3039999999996,
      "d": 225.96131250000008,
      "v": 110
    },
    {
      "midi": 69,
      "hit": false,
      "t": 3923.073,
      "d": 225.96131250000008,
      "v": 110
    },
    {
      "midi": 77,
      "hit": false,
      "t": 3923.073,
      "d": 225.96131250000008,
      "v": 110
    },
    {
      "midi": 38,
      "hit": false,
      "t": 4153.841999999999,
      "d": 384.6149999999998,
      "v": 110
    },
    {
      "midi": 50,
      "hit": false,
      "t": 4153.841999999999,
      "d": 384.6149999999998,
      "v": 110
    },
    {
      "midi": 70,
      "hit": false,
      "t": 4384.611,
      "d": 225.96131249999962,
      "v": 110
    },
    {
      "midi": 79,
      "hit": false,
      "t": 4384.611,
      "d": 225.96131249999962,
      "v": 110
    },
    {
      "midi": 70,
      "hit": false,
      "t": 4846.148999999999,
      "d": 615.384,
      "v": 110
    },
    {
      "midi": 79,
      "hit": false,
      "t": 4846.148999999999,
      "d": 615.384,
      "v": 110
    },
    {
      "midi": 38,
      "hit": false,
      "t": 5076.917999999999,
      "d": 384.6149999999998,
      "v": 110
    },
    {
      "midi": 50,
      "hit": false,
      "t": 5076.917999999999,
      "d": 384.6149999999998,
      "v": 110
    },
    {
      "midi": 67,
      "hit": false,
      "t": 5538.455999999999,
      "d": 225.96131249999962,
      "v": 110
    },
    {
      "midi": 76,
      "hit": false,
      "t": 5538.455999999999,
      "d": 225.96131249999962,
      "v": 110
    },
    {
      "midi": 67,
      "hit": false,
      "t": 5769.2249999999985,
      "d": 225.96131249999962,
      "v": 110
    },
    {
      "midi": 76,
      "hit": false,
      "t": 5769.2249999999985,
      "d": 225.96131249999962,
      "v": 110
    },
    {
      "midi": 38,
      "hit": false,
      "t": 5999.993999999999,
      "d": 384.6149999999998,
      "v": 110
    },
    {
      "midi": 50,
      "hit": false,
      "t": 5999.993999999999,
      "d": 384.6149999999998,
      "v": 110
    },
    {
      "midi": 69,
      "hit": false,
      "t": 6230.762999999998,
      "d": 1038.4605000000001,
      "v": 110
    },
    {
      "midi": 77,
      "hit": false,
      "t": 6230.762999999998,
      "d": 1038.4605000000001,
      "v": 110
    },
    {
      "midi": 50,
      "hit": false,
      "t": 6692.300999999999,
      "d": 225.96131249999962,
      "v": 110
    },
    {
      "midi": 62,
      "hit": false,
      "t": 6692.300999999999,
      "d": 225.96131249999962,
      "v": 110
    },
    {
      "midi": 46,
      "hit": false,
      "t": 6923.069999999998,
      "d": 225.96131249999962,
      "v": 110
    },
    {
      "midi": 58,
      "hit": false,
      "t": 6923.069999999998,
      "d": 225.96131249999962,
      "v": 110
    },
    {
      "midi": 43,
      "hit": false,
      "t": 7153.838999999997,
      "d": 225.96131249999962,
      "v": 110
    },
    {
      "midi": 55,
      "hit": false,
      "t": 7153.838999999997,
      "d": 225.96131249999962,
      "v": 110
    },
    {
      "midi": 41,
      "hit": false,
      "t": 7384.6079999999965,
      "d": 341.34581249999974,
      "v": 110
    },
    {
      "midi": 53,
      "hit": false,
      "t": 7384.6079999999965,
      "d": 341.34581249999974,
      "v": 110
    },
    {
      "midi": 69,
      "hit": false,
      "t": 7384.607999999998,
      "d": 225.96131249999962,
      "v": 110
    },
    {
      "midi": 65,
      "hit": false,
      "t": 7615.376999999998,
      "d": 225.96131249999962,
      "v": 110
    },
    {
      "midi": 41,
      "hit": false,
      "t": 7730.761499999996,
      "d": 110.57681250000041,
      "v": 110
    },
    {
      "midi": 53,
      "hit": false,
      "t": 7730.761499999996,
      "d": 110.57681250000041,
      "v": 110
    },
    {
      "midi": 45,
      "hit": false,
      "t": 7846.145999999996,
      "d": 225.96131249999962,
      "v": 110
    },
    {
      "midi": 57,
      "hit": false,
      "t": 7846.145999999996,
      "d": 225.96131249999962,
      "v": 110
    },
    {
      "midi": 69,
      "hit": false,
      "t": 7846.145999999997,
      "d": 225.96131249999962,
      "v": 110
    },
    {
      "midi": 41,
      "hit": false,
      "t": 8076.914999999995,
      "d": 225.96131249999962,
      "v": 110
    },
    {
      "midi": 53,
      "hit": false,
      "t": 8076.914999999995,
      "d": 225.96131249999962,
      "v": 110
    },
    {
      "midi": 60,
      "hit": false,
      "t": 8076.914999999996,
      "d": 225.96131250000053,
      "v": 110
    },
    {
      "midi": 70,
      "hit": false,
      "t": 8076.914999999996,
      "d": 225.96131250000053,
      "v": 110
    },
    {
      "midi": 46,
      "hit": false,
      "t": 8307.683999999996,
      "d": 341.34581249999974,
      "v": 110
    },
    {
      "midi": 58,
      "hit": false,
      "t": 8307.683999999996,
      "d": 341.34581249999974,
      "v": 110
    },
    {
      "midi": 62,
      "hit": false,
      "t": 8538.452999999998,
      "d": 225.96131249999962,
      "v": 110
    },
    {
      "midi": 70,
      "hit": false,
      "t": 8538.452999999998,
      "d": 225.96131249999962,
      "v": 110
    },
    {
      "midi": 46,
      "hit": false,
      "t": 8653.837499999996,
      "d": 110.5768124999995,
      "v": 110
    },
    {
      "midi": 58,
      "hit": false,
      "t": 8653.837499999996,
      "d": 110.5768124999995,
      "v": 110
    },
    {
      "midi": 50,
      "hit": false,
      "t": 8769.221999999996,
      "d": 225.96131249999962,
      "v": 110
    },
    {
      "midi": 62,
      "hit": false,
      "t": 8769.221999999996,
      "d": 225.96131249999962,
      "v": 110
    },
    {
      "midi": 65,
      "hit": false,
      "t": 8769.221999999998,
      "d": 225.96131249999962,
      "v": 110
    },
    {
      "midi": 46,
      "hit": false,
      "t": 8999.990999999996,
      "d": 225.96131249999962,
      "v": 110
    },
    {
      "midi": 58,
      "hit": false,
      "t": 8999.990999999996,
      "d": 225.96131249999962,
      "v": 110
    },
    {
      "midi": 70,
      "hit": false,
      "t": 8999.990999999998,
      "d": 225.96131249999962,
      "v": 110
    },
    {
      "midi": 48,
      "hit": false,
      "t": 9230.759999999997,
      "d": 341.34581249999974,
      "v": 110
    },
    {
      "midi": 60,
      "hit": false,
      "t": 9230.759999999997,
      "d": 341.34581249999974,
      "v": 110
    },
    {
      "midi": 72,
      "hit": false,
      "t": 9230.759999999998,
      "d": 225.96131249999962,
      "v": 110
    },
    {
      "midi": 64,
      "hit": false,
      "t": 9461.528999999999,
      "d": 225.96131249999962,
      "v": 110
    },
    {
      "midi": 67,
      "hit": false,
      "t": 9461.528999999999,
      "d": 225.96131249999962,
      "v": 110
    },
    {
      "midi": 48,
      "hit": false,
      "t": 9576.913499999997,
      "d": 110.5768124999995,
      "v": 110
    },
    {
      "midi": 60,
      "hit": false,
      "t": 9576.913499999997,
      "d": 110.5768124999995,
      "v": 110
    },
    {
      "midi": 52,
      "hit": false,
      "t": 9692.297999999997,
      "d": 225.96131249999962,
      "v": 110
    },
    {
      "midi": 64,
      "hit": false,
      "t": 9692.297999999997,
      "d": 225.96131249999962,
      "v": 110
    },
    {
      "midi": 60,
      "hit": false,
      "t": 9692.297999999999,
      "d": 225.96131249999962,
      "v": 110
    },
    {
      "midi": 70,
      "hit": false,
      "t": 9692.297999999999,
      "d": 225.96131249999962,
      "v": 110
    },
    {
      "midi": 48,
      "hit": false,
      "t": 9923.066999999997,
      "d": 225.96131249999962,
      "v": 110
    },
    {
      "midi": 60,
      "hit": false,
      "t": 9923.066999999997,
      "d": 225.96131249999962,
      "v": 110
    },
    {
      "midi": 69,
      "hit": false,
      "t": 9923.067,
      "d": 456.73031249999985,
      "v": 110
    },
    {
      "midi": 41,
      "hit": false,
      "t": 10153.835999999998,
      "d": 341.34581249999974,
      "v": 110
    },
    {
      "midi": 53,
      "hit": false,
      "t": 10153.835999999998,
      "d": 341.34581249999974,
      "v": 110
    },
    {
      "midi": 65,
      "hit": false,
      "t": 10384.605,
      "d": 225.96131249999962,
      "v": 110
    },
    {
      "midi": 41,
      "hit": false,
      "t": 10499.989499999998,
      "d": 110.5768124999995,
      "v": 110
    },
    {
      "midi": 53,
      "hit": false,
      "t": 10499.989499999998,
      "d": 110.5768124999995,
      "v": 110
    },
    {
      "midi": 45,
      "hit": false,
      "t": 10615.373999999998,
      "d": 225.96131249999962,
      "v": 110
    },
    {
      "midi": 57,
      "hit": false,
      "t": 10615.373999999998,
      "d": 225.96131249999962,
      "v": 110
    },
    {
      "midi": 69,
      "hit": false,
      "t": 10615.374,
      "d": 225.96131249999962,
      "v": 110
    },
    {
      "midi": 41,
      "hit": false,
      "t": 10846.142999999998,
      "d": 225.96131249999962,
      "v": 110
    },
    {
      "midi": 53,
      "hit": false,
      "t": 10846.142999999998,
      "d": 225.96131249999962,
      "v": 110
    },
    {
      "midi": 72,
      "hit": false,
      "t": 10846.143,
      "d": 225.96131249999962,
      "v": 110
    },
    {
      "midi": 46,
      "hit": false,
      "t": 11076.911999999998,
      "d": 341.34581249999974,
      "v": 110
    },
    {
      "midi": 58,
      "hit": false,
      "t": 11076.911999999998,
      "d": 341.34581249999974,
      "v": 110
    },
    {
      "midi": 70,
      "hit": false,
      "t": 11076.912,
      "d": 225.96131249999962,
      "v": 110
    },
    {
      "midi": 72,
      "hit": false,
      "t": 11307.681,
      "d": 225.96131249999962,
      "v": 110
    },
    {
      "midi": 74,
      "hit": false,
      "t": 11307.681,
      "d": 225.96131249999962,
      "v": 110
    },
    {
      "midi": 46,
      "hit": false,
      "t": 11423.065499999999,
      "d": 110.5768124999995,
      "v": 110
    },
    {
      "midi": 58,
      "hit": false,
      "t": 11423.065499999999,
      "d": 110.5768124999995,
      "v": 110
    },
    {
      "midi": 53,
      "hit": false,
      "t": 11538.449999999999,
      "d": 225.96131249999962,
      "v": 110
    },
    {
      "midi": 65,
      "hit": false,
      "t": 11538.449999999999,
      "d": 225.96131249999962,
      "v": 110
    },
    {
      "midi": 70,
      "hit": false,
      "t": 11538.45,
      "d": 225.96131249999962,
      "v": 110
    },
    {
      "midi": 41,
      "hit": false,
      "t": 11769.219,
      "d": 225.96131249999962,
      "v": 110
    },
    {
      "midi": 53,
      "hit": false,
      "t": 11769.219,
      "d": 225.96131249999962,
      "v": 110
    },
    {
      "midi": 69,
      "hit": false,
      "t": 11769.219000000001,
      "d": 225.96131249999962,
      "v": 110
    },
    {
      "midi": 43,
      "hit": false,
      "t": 11999.988,
      "d": 341.34581249999974,
      "v": 110
    },
    {
      "midi": 55,
      "hit": false,
      "t": 11999.988,
      "d": 341.34581249999974,
      "v": 110
    },
    {
      "midi": 62,
      "hit": false,
      "t": 12230.757000000001,
      "d": 225.96131249999962,
      "v": 110
    },
    {
      "midi": 67,
      "hit": false,
      "t": 12230.757000000001,
      "d": 225.96131249999962,
      "v": 110
    },
    {
      "midi": 43,
      "hit": false,
      "t": 12346.1415,
      "d": 110.5768124999995,
      "v": 110
    },
    {
      "midi": 55,
      "hit": false,
      "t": 12346.1415,
      "d": 110.5768124999995,
      "v": 110
    },
    {
      "midi": 50,
      "hit": false,
      "t": 12461.526,
      "d": 225.96131249999962,
      "v": 110
    },
    {
      "midi": 62,
      "hit": false,
      "t": 12461.526,
      "d": 225.96131249999962,
      "v": 110
    },
    {
      "midi": 67,
      "hit": false,
      "t": 12461.526000000002,
      "d": 225.96131249999962,
      "v": 110
    },
    {
      "midi": 43,
      "hit": false,
      "t": 12692.295,
      "d": 225.96131249999962,
      "v": 110
    },
    {
      "midi": 55,
      "hit": false,
      "t": 12692.295,
      "d": 225.96131249999962,
      "v": 110
    },
    {
      "midi": 70,
      "hit": false,
      "t": 12692.295000000002,
      "d": 225.96131249999962,
      "v": 110
    },
    {
      "midi": 45,
      "hit": false,
      "t": 12923.064,
      "d": 341.34581249999974,
      "v": 110
    },
    {
      "midi": 57,
      "hit": false,
      "t": 12923.064,
      "d": 341.34581249999974,
      "v": 110
    },
    {
      "midi": 69,
      "hit": false,
      "t": 12923.064000000002,
      "d": 225.96131249999962,
      "v": 110
    },
    {
      "midi": 64,
      "hit": false,
      "t": 13153.833000000002,
      "d": 225.96131249999962,
      "v": 110
    },
    {
      "midi": 45,
      "hit": false,
      "t": 13269.2175,
      "d": 110.5768124999995,
      "v": 110
    },
    {
      "midi": 57,
      "hit": false,
      "t": 13269.2175,
      "d": 110.5768124999995,
      "v": 110
    },
    {
      "midi": 40,
      "hit": false,
      "t": 13384.602,
      "d": 225.96131249999962,
      "v": 110
    },
    {
      "midi": 52,
      "hit": false,
      "t": 13384.602,
      "d": 225.96131249999962,
      "v": 110
    },
    {
      "midi": 67,
      "hit": false,
      "t": 13384.602000000003,
      "d": 225.96131249999962,
      "v": 110
    },
    {
      "midi": 69,
      "hit": false,
      "t": 13384.602000000003,
      "d": 225.96131249999962,
      "v": 110
    },
    {
      "midi": 45,
      "hit": false,
      "t": 13615.371000000001,
      "d": 225.96131249999962,
      "v": 110
    },
    {
      "midi": 57,
      "hit": false,
      "t": 13615.371000000001,
      "d": 225.96131249999962,
      "v": 110
    },
    {
      "midi": 62,
      "hit": false,
      "t": 13615.371000000003,
      "d": 225.96131249999962,
      "v": 110
    },
    {
      "midi": 65,
      "hit": false,
      "t": 13615.371000000003,
      "d": 225.96131249999962,
      "v": 110
    },
    {
      "midi": 50,
      "hit": false,
      "t": 13846.140000000001,
      "d": 341.34581249999974,
      "v": 110
    },
    {
      "midi": 62,
      "hit": false,
      "t": 13846.140000000001,
      "d": 341.34581249999974,
      "v": 110
    },
    {
      "midi": 65,
      "hit": false,
      "t": 14076.909000000003,
      "d": 225.96131249999962,
      "v": 110
    },
    {
      "midi": 50,
      "hit": false,
      "t": 14192.293500000002,
      "d": 110.5768124999995,
      "v": 110
    },
    {
      "midi": 62,
      "hit": false,
      "t": 14192.293500000002,
      "d": 110.5768124999995,
      "v": 110
    },
    {
      "midi": 45,
      "hit": false,
      "t": 14307.678000000002,
      "d": 225.96131249999962,
      "v": 110
    },
    {
      "midi": 57,
      "hit": false,
      "t": 14307.678000000002,
      "d": 225.96131249999962,
      "v": 110
    },
    {
      "midi": 69,
      "hit": false,
      "t": 14307.678000000004,
      "d": 225.96131249999962,
      "v": 110
    },
    {
      "midi": 50,
      "hit": false,
      "t": 14538.447000000002,
      "d": 225.96131249999962,
      "v": 110
    },
    {
      "midi": 62,
      "hit": false,
      "t": 14538.447000000002,
      "d": 225.96131249999962,
      "v": 110
    },
    {
      "midi": 74,
      "hit": false,
      "t": 14538.447000000004,
      "d": 225.96131249999962,
      "v": 110
    },
    {
      "midi": 41,
      "hit": false,
      "t": 14769.216000000002,
      "d": 341.34581249999974,
      "v": 110
    },
    {
      "midi": 53,
      "hit": false,
      "t": 14769.216000000002,
      "d": 341.34581249999974,
      "v": 110
    },
    {
      "midi": 69,
      "hit": false,
      "t": 14769.216000000004,
      "d": 225.96131249999962,
      "v": 110
    },
    {
      "midi": 65,
      "hit": false,
      "t": 14999.985000000004,
      "d": 225.96131249999962,
      "v": 110
    },
    {
      "midi": 41,
      "hit": false,
      "t": 15115.369500000003,
      "d": 110.5768124999995,
      "v": 110
    },
    {
      "midi": 53,
      "hit": false,
      "t": 15115.369500000003,
      "d": 110.5768124999995,
      "v": 110
    },
    {
      "midi": 45,
      "hit": false,
      "t": 15230.754000000003,
      "d": 225.96131249999962,
      "v": 110
    },
    {
      "midi": 57,
      "hit": false,
      "t": 15230.754000000003,
      "d": 225.96131249999962,
      "v": 110
    },
    {
      "midi": 69,
      "hit": false,
      "t": 15230.754000000004,
      "d": 225.96131249999962,
      "v": 110
    },
    {
      "midi": 41,
      "hit": false,
      "t": 15461.523000000003,
      "d": 225.96131249999962,
      "v": 110
    },
    {
      "midi": 53,
      "hit": false,
      "t": 15461.523000000003,
      "d": 225.96131249999962,
      "v": 110
    },
    {
      "midi": 60,
      "hit": false,
      "t": 15461.523000000005,
      "d": 225.96131249999962,
      "v": 110
    },
    {
      "midi": 70,
      "hit": false,
      "t": 15461.523000000005,
      "d": 225.96131249999962,
      "v": 110
    },
    {
      "midi": 46,
      "hit": false,
      "t": 15692.292000000003,
      "d": 341.34581249999974,
      "v": 110
    },
    {
      "midi": 58,
      "hit": false,
      "t": 15692.292000000003,
      "d": 341.34581249999974,
      "v": 110
    },
    {
      "midi": 62,
      "hit": false,
      "t": 15923.061000000005,
      "d": 225.96131249999962,
      "v": 110
    },
    {
      "midi": 70,
      "hit": false,
      "t": 15923.061000000005,
      "d": 225.96131249999962,
      "v": 110
    },
    {
      "midi": 46,
      "hit": false,
      "t": 16038.445500000003,
      "d": 110.5768124999995,
      "v": 110
    },
    {
      "midi": 58,
      "hit": false,
      "t": 16038.445500000003,
      "d": 110.5768124999995,
      "v": 110
    },
    {
      "midi": 50,
      "hit": false,
      "t": 16153.830000000004,
      "d": 225.96131249999962,
      "v": 110
    },
    {
      "midi": 62,
      "hit": false,
      "t": 16153.830000000004,
      "d": 225.96131249999962,
      "v": 110
    },
    {
      "midi": 65,
      "hit": false,
      "t": 16153.830000000005,
      "d": 225.96131249999962,
      "v": 110
    },
    {
      "midi": 46,
      "hit": false,
      "t": 16384.599000000002,
      "d": 225.96131249999962,
      "v": 110
    },
    {
      "midi": 58,
      "hit": false,
      "t": 16384.599000000002,
      "d": 225.96131249999962,
      "v": 110
    },
    {
      "midi": 70,
      "hit": false,
      "t": 16384.599000000006,
      "d": 225.96131249999962,
      "v": 110
    },
    {
      "midi": 48,
      "hit": false,
      "t": 16615.368000000002,
      "d": 341.34581249999974,
      "v": 110
    },
    {
      "midi": 60,
      "hit": false,
      "t": 16615.368000000002,
      "d": 341.34581249999974,
      "v": 110
    },
    {
      "midi": 72,
      "hit": false,
      "t": 16615.368000000006,
      "d": 225.96131249999962,
      "v": 110
    },
    {
      "midi": 64,
      "hit": false,
      "t": 16846.137000000006,
      "d": 225.96131249999962,
      "v": 110
    },
    {
      "midi": 67,
      "hit": false,
      "t": 16846.137000000006,
      "d": 225.96131249999962,
      "v": 110
    },
    {
      "midi": 48,
      "hit": false,
      "t": 16961.521500000003,
      "d": 110.5768124999995,
      "v": 110
    },
    {
      "midi": 60,
      "hit": false,
      "t": 16961.521500000003,
      "d": 110.5768124999995,
      "v": 110
    },
    {
      "midi": 52,
      "hit": false,
      "t": 17076.906000000003,
      "d": 225.96131249999962,
      "v": 110
    },
    {
      "midi": 64,
      "hit": false,
      "t": 17076.906000000003,
      "d": 225.96131249999962,
      "v": 110
    },
    {
      "midi": 60,
      "hit": false,
      "t": 17076.906000000006,
      "d": 225.96131249999962,
      "v": 110
    },
    {
      "midi": 70,
      "hit": false,
      "t": 17076.906000000006,
      "d": 225.96131249999962,
      "v": 110
    },
    {
      "midi": 48,
      "hit": false,
      "t": 17307.675000000003,
      "d": 225.96131249999962,
      "v": 110
    },
    {
      "midi": 60,
      "hit": false,
      "t": 17307.675000000003,
      "d": 225.96131249999962,
      "v": 110
    },
    {
      "midi": 69,
      "hit": false,
      "t": 17307.675000000007,
      "d": 456.73031249999985,
      "v": 110
    },
    {
      "midi": 41,
      "hit": false,
      "t": 17538.444000000003,
      "d": 341.34581249999974,
      "v": 110
    },
    {
      "midi": 53,
      "hit": false,
      "t": 17538.444000000003,
      "d": 341.34581249999974,
      "v": 110
    },
    {
      "midi": 65,
      "hit": false,
      "t": 17769.213000000007,
      "d": 225.96131249999962,
      "v": 110
    },
    {
      "midi": 41,
      "hit": false,
      "t": 17884.597500000003,
      "d": 110.5768124999995,
      "v": 110
    },
    {
      "midi": 53,
      "hit": false,
      "t": 17884.597500000003,
      "d": 110.5768124999995,
      "v": 110
    },
    {
      "midi": 45,
      "hit": false,
      "t": 17999.982000000004,
      "d": 225.96131249999962,
      "v": 110
    },
    {
      "midi": 57,
      "hit": false,
      "t": 17999.982000000004,
      "d": 225.96131249999962,
      "v": 110
    },
    {
      "midi": 69,
      "hit": false,
      "t": 17999.982000000007,
      "d": 225.96131249999962,
      "v": 110
    },
    {
      "midi": 41,
      "hit": false,
      "t": 18230.751000000004,
      "d": 225.96131249999962,
      "v": 110
    },
    {
      "midi": 53,
      "hit": false,
      "t": 18230.751000000004,
      "d": 225.96131249999962,
      "v": 110
    },
    {
      "midi": 72,
      "hit": false,
      "t": 18230.751000000007,
      "d": 225.96131249999962,
      "v": 110
    },
    {
      "midi": 46,
      "hit": false,
      "t": 18461.520000000004,
      "d": 341.34581249999974,
      "v": 110
    },
    {
      "midi": 58,
      "hit": false,
      "t": 18461.520000000004,
      "d": 341.34581249999974,
      "v": 110
    },
    {
      "midi": 70,
      "hit": false,
      "t": 18461.520000000008,
      "d": 225.96131249999962,
      "v": 110
    },
    {
      "midi": 72,
      "hit": false,
      "t": 18692.289000000008,
      "d": 225.96131249999962,
      "v": 110
    },
    {
      "midi": 74,
      "hit": false,
      "t": 18692.289000000008,
      "d": 225.96131249999962,
      "v": 110
    },
    {
      "midi": 46,
      "hit": false,
      "t": 18807.673500000004,
      "d": 110.5768124999995,
      "v": 110
    },
    {
      "midi": 58,
      "hit": false,
      "t": 18807.673500000004,
      "d": 110.5768124999995,
      "v": 110
    },
    {
      "midi": 53,
      "hit": false,
      "t": 18923.058000000005,
      "d": 225.96131249999962,
      "v": 110
    },
    {
      "midi": 65,
      "hit": false,
      "t": 18923.058000000005,
      "d": 225.96131249999962,
      "v": 110
    },
    {
      "midi": 70,
      "hit": false,
      "t": 18923.058000000008,
      "d": 225.96131249999962,
      "v": 110
    },
    {
      "midi": 41,
      "hit": false,
      "t": 19153.827000000005,
      "d": 225.96131249999962,
      "v": 110
    },
    {
      "midi": 53,
      "hit": false,
      "t": 19153.827000000005,
      "d": 225.96131249999962,
      "v": 110
    },
    {
      "midi": 69,
      "hit": false,
      "t": 19153.82700000001,
      "d": 225.96131249999962,
      "v": 110
    },
    {
      "midi": 43,
      "hit": false,
      "t": 19384.596000000005,
      "d": 341.34581249999974,
      "v": 110
    },
    {
      "midi": 55,
      "hit": false,
      "t": 19384.596000000005,
      "d": 341.34581249999974,
      "v": 110
    },
    {
      "midi": 62,
      "hit": false,
      "t": 19615.36500000001,
      "d": 225.96131249999962,
      "v": 110
    },
    {
      "midi": 67,
      "hit": false,
      "t": 19615.36500000001,
      "d": 225.96131249999962,
      "v": 110
    },
    {
      "midi": 43,
      "hit": false,
      "t": 19730.749500000005,
      "d": 110.5768124999995,
      "v": 110
    },
    {
      "midi": 55,
      "hit": false,
      "t": 19730.749500000005,
      "d": 110.5768124999995,
      "v": 110
    },
    {
      "midi": 50,
      "hit": false,
      "t": 19846.134000000005,
      "d": 225.96131249999962,
      "v": 110
    },
    {
      "midi": 62,
      "hit": false,
      "t": 19846.134000000005,
      "d": 225.96131249999962,
      "v": 110
    },
    {
      "midi": 67,
      "hit": false,
      "t": 19846.13400000001,
      "d": 225.96131249999962,
      "v": 110
    },
    {
      "midi": 43,
      "hit": false,
      "t": 20076.903000000006,
      "d": 225.96131249999962,
      "v": 110
    },
    {
      "midi": 55,
      "hit": false,
      "t": 20076.903000000006,
      "d": 225.96131249999962,
      "v": 110
    },
    {
      "midi": 70,
      "hit": false,
      "t": 20076.90300000001,
      "d": 225.96131249999962,
      "v": 110
    },
    {
      "midi": 45,
      "hit": false,
      "t": 20307.672000000006,
      "d": 341.34581249999974,
      "v": 110
    },
    {
      "midi": 57,
      "hit": false,
      "t": 20307.672000000006,
      "d": 341.34581249999974,
      "v": 110
    },
    {
      "midi": 69,
      "hit": false,
      "t": 20307.67200000001,
      "d": 225.96131249999962,
      "v": 110
    },
    {
      "midi": 64,
      "hit": false,
      "t": 20538.44100000001,
      "d": 225.96131249999962,
      "v": 110
    },
    {
      "midi": 45,
      "hit": false,
      "t": 20653.825500000006,
      "d": 110.5768124999995,
      "v": 110
    },
    {
      "midi": 57,
      "hit": false,
      "t": 20653.825500000006,
      "d": 110.5768124999995,
      "v": 110
    },
    {
      "midi": 40,
      "hit": false,
      "t": 20769.210000000006,
      "d": 225.96131249999962,
      "v": 110
    },
    {
      "midi": 52,
      "hit": false,
      "t": 20769.210000000006,
      "d": 225.96131249999962,
      "v": 110
    },
    {
      "midi": 67,
      "hit": false,
      "t": 20769.21000000001,
      "d": 225.96131249999962,
      "v": 110
    },
    {
      "midi": 69,
      "hit": false,
      "t": 20769.21000000001,
      "d": 225.96131249999962,
      "v": 110
    },
    {
      "midi": 45,
      "hit": false,
      "t": 20999.979000000007,
      "d": 225.96131249999962,
      "v": 110
    },
    {
      "midi": 57,
      "hit": false,
      "t": 20999.979000000007,
      "d": 225.96131249999962,
      "v": 110
    },
    {
      "midi": 62,
      "hit": false,
      "t": 20999.97900000001,
      "d": 225.96131249999962,
      "v": 110
    },
    {
      "midi": 65,
      "hit": false,
      "t": 20999.97900000001,
      "d": 225.96131249999962,
      "v": 110
    },
    {
      "midi": 50,
      "hit": false,
      "t": 21230.748000000007,
      "d": 341.34581249999974,
      "v": 110
    },
    {
      "midi": 62,
      "hit": false,
      "t": 21230.748000000007,
      "d": 341.34581249999974,
      "v": 110
    },
    {
      "midi": 65,
      "hit": false,
      "t": 21461.51700000001,
      "d": 225.96131249999962,
      "v": 110
    },
    {
      "midi": 50,
      "hit": false,
      "t": 21576.901500000007,
      "d": 110.5768124999995,
      "v": 110
    },
    {
      "midi": 62,
      "hit": false,
      "t": 21576.901500000007,
      "d": 110.5768124999995,
      "v": 110
    },
    {
      "midi": 45,
      "hit": false,
      "t": 21692.286000000007,
      "d": 225.96131249999962,
      "v": 110
    },
    {
      "midi": 57,
      "hit": false,
      "t": 21692.286000000007,
      "d": 225.96131249999962,
      "v": 110
    },
    {
      "midi": 69,
      "hit": false,
      "t": 21692.28600000001,
      "d": 225.96131249999962,
      "v": 110
    },
    {
      "midi": 50,
      "hit": false,
      "t": 21923.055000000008,
      "d": 225.96131249999962,
      "v": 110
    },
    {
      "midi": 62,
      "hit": false,
      "t": 21923.055000000008,
      "d": 225.96131249999962,
      "v": 110
    },
    {
      "midi": 74,
      "hit": false,
      "t": 21923.05500000001,
      "d": 225.96131249999962,
      "v": 110
    },
    {
      "midi": 41,
      "hit": false,
      "t": 22153.824000000008,
      "d": 225.96131249999962,
      "v": 110
    },
    {
      "midi": 53,
      "hit": false,
      "t": 22153.824000000008,
      "d": 225.96131249999962,
      "v": 110
    },
    {
      "midi": 41,
      "hit": false,
      "t": 22384.593000000008,
      "d": 225.96131249999962,
      "v": 110
    },
    {
      "midi": 53,
      "hit": false,
      "t": 22384.593000000008,
      "d": 225.96131249999962,
      "v": 110
    },
    {
      "midi": 41,
      "hit": false,
      "t": 22615.36200000001,
      "d": 225.96131249999962,
      "v": 110
    },
    {
      "midi": 53,
      "hit": false,
      "t": 22615.36200000001,
      "d": 225.96131249999962,
      "v": 110
    },
    {
      "midi": 65,
      "hit": false,
      "t": 22615.362000000012,
      "d": 225.96131249999962,
      "v": 110
    },
    {
      "midi": 41,
      "hit": false,
      "t": 22846.13100000001,
      "d": 110.5768124999995,
      "v": 110
    },
    {
      "midi": 53,
      "hit": false,
      "t": 22846.13100000001,
      "d": 110.5768124999995,
      "v": 110
    },
    {
      "midi": 65,
      "hit": false,
      "t": 22846.131000000012,
      "d": 225.96131249999962,
      "v": 110
    },
    {
      "midi": 41,
      "hit": false,
      "t": 22961.51550000001,
      "d": 110.5768124999995,
      "v": 110
    },
    {
      "midi": 53,
      "hit": false,
      "t": 22961.51550000001,
      "d": 110.5768124999995,
      "v": 110
    },
    {
      "midi": 43,
      "hit": false,
      "t": 23076.90000000001,
      "d": 225.96131249999962,
      "v": 110
    },
    {
      "midi": 55,
      "hit": false,
      "t": 23076.90000000001,
      "d": 225.96131249999962,
      "v": 110
    },
    {
      "midi": 60,
      "hit": false,
      "t": 23076.900000000012,
      "d": 225.96131249999962,
      "v": 110
    },
    {
      "midi": 69,
      "hit": false,
      "t": 23076.900000000012,
      "d": 225.96131249999962,
      "v": 110
    },
    {
      "midi": 43,
      "hit": false,
      "t": 23307.66900000001,
      "d": 225.96131249999962,
      "v": 110
    },
    {
      "midi": 55,
      "hit": false,
      "t": 23307.66900000001,
      "d": 225.96131249999962,
      "v": 110
    },
    {
      "midi": 65,
      "hit": false,
      "t": 23307.669000000013,
      "d": 225.96131249999962,
      "v": 110
    },
    {
      "midi": 72,
      "hit": false,
      "t": 23307.669000000013,
      "d": 225.96131249999962,
      "v": 110
    },
    {
      "midi": 43,
      "hit": false,
      "t": 23538.43800000001,
      "d": 225.96131249999962,
      "v": 110
    },
    {
      "midi": 55,
      "hit": false,
      "t": 23538.43800000001,
      "d": 225.96131249999962,
      "v": 110
    },
    {
      "midi": 70,
      "hit": false,
      "t": 23538.438000000013,
      "d": 225.96131249999962,
      "v": 110
    },
    {
      "midi": 72,
      "hit": false,
      "t": 23538.438000000013,
      "d": 225.96131249999962,
      "v": 110
    },
    {
      "midi": 43,
      "hit": false,
      "t": 23769.20700000001,
      "d": 110.5768124999995,
      "v": 110
    },
    {
      "midi": 55,
      "hit": false,
      "t": 23769.20700000001,
      "d": 110.5768124999995,
      "v": 110
    },
    {
      "midi": 72,
      "hit": false,
      "t": 23769.207000000013,
      "d": 225.96131249999962,
      "v": 110
    },
    {
      "midi": 43,
      "hit": false,
      "t": 23884.59150000001,
      "d": 110.5768124999995,
      "v": 110
    },
    {
      "midi": 55,
      "hit": false,
      "t": 23884.59150000001,
      "d": 110.5768124999995,
      "v": 110
    },
    {
      "midi": 45,
      "hit": false,
      "t": 23999.97600000001,
      "d": 225.96131249999962,
      "v": 110
    },
    {
      "midi": 57,
      "hit": false,
      "t": 23999.97600000001,
      "d": 225.96131249999962,
      "v": 110
    },
    {
      "midi": 69,
      "hit": false,
      "t": 23999.976000000013,
      "d": 225.96131249999962,
      "v": 110
    },
    {
      "midi": 77,
      "hit": false,
      "t": 23999.976000000013,
      "d": 225.96131249999962,
      "v": 110
    },
    {
      "midi": 45,
      "hit": false,
      "t": 24230.74500000001,
      "d": 225.96131249999962,
      "v": 110
    },
    {
      "midi": 57,
      "hit": false,
      "t": 24230.74500000001,
      "d": 225.96131249999962,
      "v": 110
    },
    {
      "midi": 72,
      "hit": false,
      "t": 24230.745000000014,
      "d": 225.96131249999962,
      "v": 110
    },
    {
      "midi": 45,
      "hit": false,
      "t": 24461.51400000001,
      "d": 225.96131249999962,
      "v": 110
    },
    {
      "midi": 57,
      "hit": false,
      "t": 24461.51400000001,
      "d": 225.96131249999962,
      "v": 110
    },
    {
      "midi": 76,
      "hit": false,
      "t": 24461.514000000014,
      "d": 225.96131249999962,
      "v": 110
    },
    {
      "midi": 45,
      "hit": false,
      "t": 24692.28300000001,
      "d": 110.5768124999995,
      "v": 110
    },
    {
      "midi": 57,
      "hit": false,
      "t": 24692.28300000001,
      "d": 110.5768124999995,
      "v": 110
    },
    {
      "midi": 69,
      "hit": false,
      "t": 24692.283000000014,
      "d": 225.96131249999962,
      "v": 110
    },
    {
      "midi": 45,
      "hit": false,
      "t": 24807.66750000001,
      "d": 110.5768124999995,
      "v": 110
    },
    {
      "midi": 57,
      "hit": false,
      "t": 24807.66750000001,
      "d": 110.5768124999995,
      "v": 110
    },
    {
      "midi": 46,
      "hit": false,
      "t": 24923.05200000001,
      "d": 225.96131249999962,
      "v": 110
    },
    {
      "midi": 58,
      "hit": false,
      "t": 24923.05200000001,
      "d": 225.96131249999962,
      "v": 110
    },
    {
      "midi": 72,
      "hit": false,
      "t": 24923.052000000014,
      "d": 225.96131249999962,
      "v": 110
    },
    {
      "midi": 74,
      "hit": false,
      "t": 24923.052000000014,
      "d": 225.96131249999962,
      "v": 110
    },
    {
      "midi": 46,
      "hit": false,
      "t": 25153.82100000001,
      "d": 225.96131249999962,
      "v": 110
    },
    {
      "midi": 58,
      "hit": false,
      "t": 25153.82100000001,
      "d": 225.96131249999962,
      "v": 110
    },
    {
      "midi": 70,
      "hit": false,
      "t": 25153.821000000014,
      "d": 225.96131249999962,
      "v": 110
    },
    {
      "midi": 46,
      "hit": false,
      "t": 25384.59000000001,
      "d": 225.96131249999962,
      "v": 110
    },
    {
      "midi": 58,
      "hit": false,
      "t": 25384.59000000001,
      "d": 225.96131249999962,
      "v": 110
    },
    {
      "midi": 76,
      "hit": false,
      "t": 25384.590000000015,
      "d": 225.96131249999962,
      "v": 110
    },
    {
      "midi": 46,
      "hit": false,
      "t": 25615.35900000001,
      "d": 110.5768124999995,
      "v": 110
    },
    {
      "midi": 58,
      "hit": false,
      "t": 25615.35900000001,
      "d": 110.5768124999995,
      "v": 110
    },
    {
      "midi": 72,
      "hit": false,
      "t": 25615.359000000015,
      "d": 225.96131249999962,
      "v": 110
    },
    {
      "midi": 46,
      "hit": false,
      "t": 25730.74350000001,
      "d": 110.5768124999995,
      "v": 110
    },
    {
      "midi": 58,
      "hit": false,
      "t": 25730.74350000001,
      "d": 110.5768124999995,
      "v": 110
    },
    {
      "midi": 41,
      "hit": false,
      "t": 25846.12800000001,
      "d": 225.96131249999962,
      "v": 110
    },
    {
      "midi": 53,
      "hit": false,
      "t": 25846.12800000001,
      "d": 225.96131249999962,
      "v": 110
    },
    {
      "midi": 65,
      "hit": false,
      "t": 25846.128000000015,
      "d": 225.96131249999962,
      "v": 110
    },
    {
      "midi": 74,
      "hit": false,
      "t": 25846.128000000015,
      "d": 225.96131249999962,
      "v": 110
    },
    {
      "midi": 41,
      "hit": false,
      "t": 26076.89700000001,
      "d": 225.96131249999962,
      "v": 110
    },
    {
      "midi": 53,
      "hit": false,
      "t": 26076.89700000001,
      "d": 225.96131249999962,
      "v": 110
    },
    {
      "midi": 72,
      "hit": false,
      "t": 26076.897000000015,
      "d": 110.5768124999995,
      "v": 110
    },
    {
      "midi": 76,
      "hit": false,
      "t": 26076.897000000015,
      "d": 110.5768124999995,
      "v": 110
    },
    {
      "midi": 74,
      "hit": false,
      "t": 26192.281500000016,
      "d": 110.5768124999995,
      "v": 110
    },
    {
      "midi": 41,
      "hit": false,
      "t": 26307.666000000012,
      "d": 225.96131249999962,
      "v": 110
    },
    {
      "midi": 53,
      "hit": false,
      "t": 26307.666000000012,
      "d": 225.96131249999962,
      "v": 110
    },
    {
      "midi": 65,
      "hit": false,
      "t": 26307.666000000016,
      "d": 225.96131249999962,
      "v": 110
    },
    {
      "midi": 72,
      "hit": false,
      "t": 26307.666000000016,
      "d": 225.96131249999962,
      "v": 110
    },
    {
      "midi": 41,
      "hit": false,
      "t": 26538.435000000012,
      "d": 110.5768124999995,
      "v": 110
    },
    {
      "midi": 53,
      "hit": false,
      "t": 26538.435000000012,
      "d": 110.5768124999995,
      "v": 110
    },
    {
      "midi": 69,
      "hit": false,
      "t": 26538.435000000016,
      "d": 225.96131249999962,
      "v": 110
    },
    {
      "midi": 41,
      "hit": false,
      "t": 26653.819500000012,
      "d": 110.5768124999995,
      "v": 110
    },
    {
      "midi": 53,
      "hit": false,
      "t": 26653.819500000012,
      "d": 110.5768124999995,
      "v": 110
    },
    {
      "midi": 43,
      "hit": false,
      "t": 26769.204000000012,
      "d": 225.96131249999962,
      "v": 110
    },
    {
      "midi": 55,
      "hit": false,
      "t": 26769.204000000012,
      "d": 225.96131249999962,
      "v": 110
    },
    {
      "midi": 72,
      "hit": false,
      "t": 26769.204000000016,
      "d": 225.96131249999962,
      "v": 110
    },
    {
      "midi": 43,
      "hit": false,
      "t": 26999.973000000013,
      "d": 225.96131249999962,
      "v": 110
    },
    {
      "midi": 55,
      "hit": false,
      "t": 26999.973000000013,
      "d": 225.96131249999962,
      "v": 110
    },
    {
      "midi": 77,
      "hit": false,
      "t": 26999.973000000016,
      "d": 225.96131249999962,
      "v": 110
    },
    {
      "midi": 43,
      "hit": false,
      "t": 27230.742000000013,
      "d": 225.96131249999962,
      "v": 110
    },
    {
      "midi": 55,
      "hit": false,
      "t": 27230.742000000013,
      "d": 225.96131249999962,
      "v": 110
    },
    {
      "midi": 70,
      "hit": false,
      "t": 27230.742000000017,
      "d": 225.96131249999962,
      "v": 110
    },
    {
      "midi": 43,
      "hit": false,
      "t": 27461.511000000013,
      "d": 110.5768124999995,
      "v": 110
    },
    {
      "midi": 55,
      "hit": false,
      "t": 27461.511000000013,
      "d": 110.5768124999995,
      "v": 110
    },
    {
      "midi": 72,
      "hit": false,
      "t": 27461.511000000017,
      "d": 225.96131249999962,
      "v": 110
    },
    {
      "midi": 43,
      "hit": false,
      "t": 27576.895500000013,
      "d": 110.5768124999995,
      "v": 110
    },
    {
      "midi": 55,
      "hit": false,
      "t": 27576.895500000013,
      "d": 110.5768124999995,
      "v": 110
    },
    {
      "midi": 45,
      "hit": false,
      "t": 27692.280000000013,
      "d": 225.96131249999962,
      "v": 110
    },
    {
      "midi": 57,
      "hit": false,
      "t": 27692.280000000013,
      "d": 225.96131249999962,
      "v": 110
    },
    {
      "midi": 77,
      "hit": false,
      "t": 27692.280000000017,
      "d": 225.96131249999962,
      "v": 110
    },
    {
      "midi": 86,
      "hit": false,
      "t": 27692.280000000017,
      "d": 225.96131249999962,
      "v": 110
    },
    {
      "midi": 45,
      "hit": false,
      "t": 27923.049000000014,
      "d": 225.96131249999962,
      "v": 110
    },
    {
      "midi": 57,
      "hit": false,
      "t": 27923.049000000014,
      "d": 225.96131249999962,
      "v": 110
    },
    {
      "midi": 76,
      "hit": false,
      "t": 27923.049000000017,
      "d": 225.96131249999962,
      "v": 110
    },
    {
      "midi": 84,
      "hit": false,
      "t": 27923.049000000017,
      "d": 225.96131249999962,
      "v": 110
    },
    {
      "midi": 45,
      "hit": false,
      "t": 28153.818000000014,
      "d": 225.96131249999962,
      "v": 110
    },
    {
      "midi": 57,
      "hit": false,
      "t": 28153.818000000014,
      "d": 225.96131249999962,
      "v": 110
    },
    {
      "midi": 76,
      "hit": false,
      "t": 28153.818000000017,
      "d": 225.96131249999962,
      "v": 110
    },
    {
      "midi": 84,
      "hit": false,
      "t": 28153.818000000017,
      "d": 225.96131249999962,
      "v": 110
    },
    {
      "midi": 45,
      "hit": false,
      "t": 28384.587000000014,
      "d": 110.5768124999995,
      "v": 110
    },
    {
      "midi": 57,
      "hit": false,
      "t": 28384.587000000014,
      "d": 110.5768124999995,
      "v": 110
    },
    {
      "midi": 72,
      "hit": false,
      "t": 28384.587000000018,
      "d": 225.96131249999962,
      "v": 110
    },
    {
      "midi": 81,
      "hit": false,
      "t": 28384.587000000018,
      "d": 225.96131249999962,
      "v": 110
    },
    {
      "midi": 45,
      "hit": false,
      "t": 28499.971500000014,
      "d": 110.5768124999995,
      "v": 110
    },
    {
      "midi": 57,
      "hit": false,
      "t": 28499.971500000014,
      "d": 110.5768124999995,
      "v": 110
    },
    {
      "midi": 46,
      "hit": false,
      "t": 28615.356000000014,
      "d": 225.96131249999962,
      "v": 110
    },
    {
      "midi": 58,
      "hit": false,
      "t": 28615.356000000014,
      "d": 225.96131249999962,
      "v": 110
    },
    {
      "midi": 77,
      "hit": false,
      "t": 28615.356000000018,
      "d": 384.6150000000016,
      "v": 110
    },
    {
      "midi": 86,
      "hit": false,
      "t": 28615.356000000018,
      "d": 384.6150000000016,
      "v": 110
    },
    {
      "midi": 46,
      "hit": false,
      "t": 28846.125000000015,
      "d": 225.96131249999962,
      "v": 110
    },
    {
      "midi": 58,
      "hit": false,
      "t": 28846.125000000015,
      "d": 225.96131249999962,
      "v": 110
    },
    {
      "midi": 46,
      "hit": false,
      "t": 29076.894000000015,
      "d": 225.96131249999962,
      "v": 110
    },
    {
      "midi": 58,
      "hit": false,
      "t": 29076.894000000015,
      "d": 225.96131249999962,
      "v": 110
    },
    {
      "midi": 77,
      "hit": false,
      "t": 29076.89400000002,
      "d": 384.6150000000016,
      "v": 110
    },
    {
      "midi": 84,
      "hit": false,
      "t": 29076.89400000002,
      "d": 384.6150000000016,
      "v": 110
    },
    {
      "midi": 46,
      "hit": false,
      "t": 29307.663000000015,
      "d": 110.5768124999995,
      "v": 110
    },
    {
      "midi": 58,
      "hit": false,
      "t": 29307.663000000015,
      "d": 110.5768124999995,
      "v": 110
    },
    {
      "midi": 46,
      "hit": false,
      "t": 29423.047500000015,
      "d": 110.5768124999995,
      "v": 110
    },
    {
      "midi": 58,
      "hit": false,
      "t": 29423.047500000015,
      "d": 110.5768124999995,
      "v": 110
    },
    {
      "midi": 41,
      "hit": false,
      "t": 29538.432000000015,
      "d": 225.96131249999962,
      "v": 110
    },
    {
      "midi": 53,
      "hit": false,
      "t": 29538.432000000015,
      "d": 225.96131249999962,
      "v": 110
    },
    {
      "midi": 41,
      "hit": false,
      "t": 29769.201000000015,
      "d": 225.96131249999962,
      "v": 110
    },
    {
      "midi": 53,
      "hit": false,
      "t": 29769.201000000015,
      "d": 225.96131249999962,
      "v": 110
    },
    {
      "midi": 41,
      "hit": false,
      "t": 29999.970000000016,
      "d": 225.96131249999962,
      "v": 110
    },
    {
      "midi": 53,
      "hit": false,
      "t": 29999.970000000016,
      "d": 225.96131249999962,
      "v": 110
    },
    {
      "midi": 65,
      "hit": false,
      "t": 29999.97000000002,
      "d": 225.96131249999962,
      "v": 110
    },
    {
      "midi": 41,
      "hit": false,
      "t": 30230.739000000016,
      "d": 110.5768124999995,
      "v": 110
    },
    {
      "midi": 53,
      "hit": false,
      "t": 30230.739000000016,
      "d": 110.5768124999995,
      "v": 110
    },
    {
      "midi": 65,
      "hit": false,
      "t": 30230.73900000002,
      "d": 225.96131249999962,
      "v": 110
    },
    {
      "midi": 41,
      "hit": false,
      "t": 30346.123500000016,
      "d": 110.5768124999995,
      "v": 110
    },
    {
      "midi": 53,
      "hit": false,
      "t": 30346.123500000016,
      "d": 110.5768124999995,
      "v": 110
    },
    {
      "midi": 43,
      "hit": false,
      "t": 30461.508000000016,
      "d": 225.96131249999962,
      "v": 110
    },
    {
      "midi": 55,
      "hit": false,
      "t": 30461.508000000016,
      "d": 225.96131249999962,
      "v": 110
    },
    {
      "midi": 60,
      "hit": false,
      "t": 30461.50800000002,
      "d": 225.96131249999962,
      "v": 110
    },
    {
      "midi": 69,
      "hit": false,
      "t": 30461.50800000002,
      "d": 225.96131249999962,
      "v": 110
    },
    {
      "midi": 43,
      "hit": false,
      "t": 30692.277000000016,
      "d": 225.96131249999962,
      "v": 110
    },
    {
      "midi": 55,
      "hit": false,
      "t": 30692.277000000016,
      "d": 225.96131249999962,
      "v": 110
    },
    {
      "midi": 65,
      "hit": false,
      "t": 30692.27700000002,
      "d": 225.96131249999962,
      "v": 110
    },
    {
      "midi": 72,
      "hit": false,
      "t": 30692.27700000002,
      "d": 225.96131249999962,
      "v": 110
    },
    {
      "midi": 43,
      "hit": false,
      "t": 30923.046000000017,
      "d": 225.96131249999962,
      "v": 110
    },
    {
      "midi": 55,
      "hit": false,
      "t": 30923.046000000017,
      "d": 225.96131249999962,
      "v": 110
    },
    {
      "midi": 70,
      "hit": false,
      "t": 30923.04600000002,
      "d": 225.96131249999962,
      "v": 110
    },
    {
      "midi": 72,
      "hit": false,
      "t": 30923.04600000002,
      "d": 225.96131249999962,
      "v": 110
    },
    {
      "midi": 43,
      "hit": false,
      "t": 31153.815000000017,
      "d": 110.5768124999995,
      "v": 110
    },
    {
      "midi": 55,
      "hit": false,
      "t": 31153.815000000017,
      "d": 110.5768124999995,
      "v": 110
    },
    {
      "midi": 72,
      "hit": false,
      "t": 31153.81500000002,
      "d": 225.96131249999962,
      "v": 110
    },
    {
      "midi": 43,
      "hit": false,
      "t": 31269.199500000017,
      "d": 110.5768124999995,
      "v": 110
    },
    {
      "midi": 55,
      "hit": false,
      "t": 31269.199500000017,
      "d": 110.5768124999995,
      "v": 110
    },
    {
      "midi": 45,
      "hit": false,
      "t": 31384.584000000017,
      "d": 225.96131249999962,
      "v": 110
    },
    {
      "midi": 57,
      "hit": false,
      "t": 31384.584000000017,
      "d": 225.96131249999962,
      "v": 110
    },
    {
      "midi": 69,
      "hit": false,
      "t": 31384.58400000002,
      "d": 225.96131249999962,
      "v": 110
    },
    {
      "midi": 77,
      "hit": false,
      "t": 31384.58400000002,
      "d": 225.96131249999962,
      "v": 110
    },
    {
      "midi": 45,
      "hit": false,
      "t": 31615.353000000017,
      "d": 225.96131249999962,
      "v": 110
    },
    {
      "midi": 57,
      "hit": false,
      "t": 31615.353000000017,
      "d": 225.96131249999962,
      "v": 110
    },
    {
      "midi": 72,
      "hit": false,
      "t": 31615.35300000002,
      "d": 225.96131249999962,
      "v": 110
    },
    {
      "midi": 45,
      "hit": false,
      "t": 31846.122000000018,
      "d": 225.96131249999962,
      "v": 110
    },
    {
      "midi": 57,
      "hit": false,
      "t": 31846.122000000018,
      "d": 225.96131249999962,
      "v": 110
    },
    {
      "midi": 76,
      "hit": false,
      "t": 31846.12200000002,
      "d": 225.96131249999962,
      "v": 110
    },
    {
      "midi": 45,
      "hit": false,
      "t": 32076.891000000018,
      "d": 110.5768124999995,
      "v": 110
    },
    {
      "midi": 57,
      "hit": false,
      "t": 32076.891000000018,
      "d": 110.5768124999995,
      "v": 110
    },
    {
      "midi": 69,
      "hit": false,
      "t": 32076.89100000002,
      "d": 225.96131249999962,
      "v": 110
    },
    {
      "midi": 45,
      "hit": false,
      "t": 32192.275500000018,
      "d": 110.5768124999995,
      "v": 110
    },
    {
      "midi": 57,
      "hit": false,
      "t": 32192.275500000018,
      "d": 110.5768124999995,
      "v": 110
    },
    {
      "midi": 46,
      "hit": false,
      "t": 32307.660000000018,
      "d": 225.96131249999962,
      "v": 110
    },
    {
      "midi": 58,
      "hit": false,
      "t": 32307.660000000018,
      "d": 225.96131249999962,
      "v": 110
    },
    {
      "midi": 72,
      "hit": false,
      "t": 32307.66000000002,
      "d": 225.96131249999962,
      "v": 110
    },
    {
      "midi": 74,
      "hit": false,
      "t": 32307.66000000002,
      "d": 225.96131249999962,
      "v": 110
    },
    {
      "midi": 46,
      "hit": false,
      "t": 32538.42900000002,
      "d": 225.96131249999962,
      "v": 110
    },
    {
      "midi": 58,
      "hit": false,
      "t": 32538.42900000002,
      "d": 225.96131249999962,
      "v": 110
    },
    {
      "midi": 70,
      "hit": false,
      "t": 32538.429000000022,
      "d": 225.96131249999962,
      "v": 110
    },
    {
      "midi": 76,
      "hit": false,
      "t": 32769.19800000002,
      "d": 225.96131250000326,
      "v": 110
    },
    {
      "midi": 46,
      "hit": false,
      "t": 32769.19800000002,
      "d": 225.96131250000326,
      "v": 110
    },
    {
      "midi": 58,
      "hit": false,
      "t": 32769.19800000002,
      "d": 225.96131250000326,
      "v": 110
    },
    {
      "midi": 72,
      "hit": false,
      "t": 32999.96700000002,
      "d": 225.96131250000326,
      "v": 110
    },
    {
      "midi": 46,
      "hit": false,
      "t": 32999.96700000002,
      "d": 110.57681250000314,
      "v": 110
    },
    {
      "midi": 58,
      "hit": false,
      "t": 32999.96700000002,
      "d": 110.57681250000314,
      "v": 110
    },
    {
      "midi": 46,
      "hit": false,
      "t": 33115.35150000002,
      "d": 110.57681250000314,
      "v": 110
    },
    {
      "midi": 58,
      "hit": false,
      "t": 33115.35150000002,
      "d": 110.57681250000314,
      "v": 110
    },
    {
      "midi": 74,
      "hit": false,
      "t": 33230.73600000002,
      "d": 225.96131250000326,
      "v": 110
    },
    {
      "midi": 45,
      "hit": false,
      "t": 33230.73600000002,
      "d": 225.96131250000326,
      "v": 110
    },
    {
      "midi": 57,
      "hit": false,
      "t": 33230.73600000002,
      "d": 225.96131250000326,
      "v": 110
    },
    {
      "midi": 72,
      "hit": false,
      "t": 33461.50500000002,
      "d": 110.57681250000314,
      "v": 110
    },
    {
      "midi": 76,
      "hit": false,
      "t": 33461.50500000002,
      "d": 110.57681250000314,
      "v": 110
    },
    {
      "midi": 45,
      "hit": false,
      "t": 33461.50500000002,
      "d": 225.96131250000326,
      "v": 110
    },
    {
      "midi": 57,
      "hit": false,
      "t": 33461.50500000002,
      "d": 225.96131250000326,
      "v": 110
    },
    {
      "midi": 74,
      "hit": false,
      "t": 33576.88950000002,
      "d": 110.57681250000314,
      "v": 110
    },
    {
      "midi": 72,
      "hit": false,
      "t": 33692.27400000002,
      "d": 225.96131250000326,
      "v": 110
    },
    {
      "midi": 45,
      "hit": false,
      "t": 33692.27400000002,
      "d": 225.96131250000326,
      "v": 110
    },
    {
      "midi": 57,
      "hit": false,
      "t": 33692.27400000002,
      "d": 225.96131250000326,
      "v": 110
    },
    {
      "midi": 69,
      "hit": false,
      "t": 33923.04300000002,
      "d": 225.96131250000326,
      "v": 110
    },
    {
      "midi": 45,
      "hit": false,
      "t": 33923.04300000002,
      "d": 110.57681250000314,
      "v": 110
    },
    {
      "midi": 57,
      "hit": false,
      "t": 33923.04300000002,
      "d": 110.57681250000314,
      "v": 110
    },
    {
      "midi": 45,
      "hit": false,
      "t": 34038.42750000002,
      "d": 110.57681250000314,
      "v": 110
    },
    {
      "midi": 57,
      "hit": false,
      "t": 34038.42750000002,
      "d": 110.57681250000314,
      "v": 110
    },
    {
      "midi": 72,
      "hit": false,
      "t": 34153.81200000002,
      "d": 225.96131250000326,
      "v": 110
    },
    {
      "midi": 45,
      "hit": false,
      "t": 34153.81200000002,
      "d": 225.96131250000326,
      "v": 110
    },
    {
      "midi": 57,
      "hit": false,
      "t": 34153.81200000002,
      "d": 225.96131250000326,
      "v": 110
    },
    {
      "midi": 76,
      "hit": false,
      "t": 34384.58100000002,
      "d": 225.96131250000326,
      "v": 110
    },
    {
      "midi": 45,
      "hit": false,
      "t": 34384.58100000002,
      "d": 225.96131250000326,
      "v": 110
    },
    {
      "midi": 57,
      "hit": false,
      "t": 34384.58100000002,
      "d": 225.96131250000326,
      "v": 110
    },
    {
      "midi": 69,
      "hit": false,
      "t": 34615.35000000002,
      "d": 225.96131250000326,
      "v": 110
    },
    {
      "midi": 45,
      "hit": false,
      "t": 34615.35000000002,
      "d": 225.96131250000326,
      "v": 110
    },
    {
      "midi": 57,
      "hit": false,
      "t": 34615.35000000002,
      "d": 225.96131250000326,
      "v": 110
    },
    {
      "midi": 72,
      "hit": false,
      "t": 34846.11900000002,
      "d": 225.96131250000326,
      "v": 110
    },
    {
      "midi": 45,
      "hit": false,
      "t": 34846.11900000002,
      "d": 110.57681250000314,
      "v": 110
    },
    {
      "midi": 57,
      "hit": false,
      "t": 34846.11900000002,
      "d": 110.57681250000314,
      "v": 110
    },
    {
      "midi": 45,
      "hit": false,
      "t": 34961.50350000002,
      "d": 110.57681250000314,
      "v": 110
    },
    {
      "midi": 57,
      "hit": false,
      "t": 34961.50350000002,
      "d": 110.57681250000314,
      "v": 110
    },
    {
      "midi": 77,
      "hit": false,
      "t": 35076.88800000002,
      "d": 225.96131250000326,
      "v": 110
    },
    {
      "midi": 86,
      "hit": false,
      "t": 35076.88800000002,
      "d": 225.96131250000326,
      "v": 110
    },
    {
      "midi": 45,
      "hit": false,
      "t": 35076.88800000002,
      "d": 225.96131250000326,
      "v": 110
    },
    {
      "midi": 57,
      "hit": false,
      "t": 35076.88800000002,
      "d": 225.96131250000326,
      "v": 110
    },
    {
      "midi": 76,
      "hit": false,
      "t": 35307.65700000002,
      "d": 225.96131250000326,
      "v": 110
    },
    {
      "midi": 84,
      "hit": false,
      "t": 35307.65700000002,
      "d": 225.96131250000326,
      "v": 110
    },
    {
      "midi": 45,
      "hit": false,
      "t": 35307.65700000002,
      "d": 225.96131250000326,
      "v": 110
    },
    {
      "midi": 57,
      "hit": false,
      "t": 35307.65700000002,
      "d": 225.96131250000326,
      "v": 110
    },
    {
      "midi": 76,
      "hit": false,
      "t": 35538.42600000002,
      "d": 225.96131250000326,
      "v": 110
    },
    {
      "midi": 84,
      "hit": false,
      "t": 35538.42600000002,
      "d": 225.96131250000326,
      "v": 110
    },
    {
      "midi": 45,
      "hit": false,
      "t": 35538.42600000002,
      "d": 225.96131250000326,
      "v": 110
    },
    {
      "midi": 57,
      "hit": false,
      "t": 35538.42600000002,
      "d": 225.96131250000326,
      "v": 110
    },
    {
      "midi": 72,
      "hit": false,
      "t": 35769.19500000002,
      "d": 225.96131250000326,
      "v": 110
    },
    {
      "midi": 81,
      "hit": false,
      "t": 35769.19500000002,
      "d": 225.96131250000326,
      "v": 110
    },
    {
      "midi": 45,
      "hit": false,
      "t": 35769.19500000002,
      "d": 110.57681250000314,
      "v": 110
    },
    {
      "midi": 57,
      "hit": false,
      "t": 35769.19500000002,
      "d": 110.57681250000314,
      "v": 110
    },
    {
      "midi": 45,
      "hit": false,
      "t": 35884.57950000002,
      "d": 110.57681250000314,
      "v": 110
    },
    {
      "midi": 57,
      "hit": false,
      "t": 35884.57950000002,
      "d": 110.57681250000314,
      "v": 110
    },
    {
      "midi": 77,
      "hit": false,
      "t": 35999.96400000002,
      "d": 384.61499999999796,
      "v": 110
    },
    {
      "midi": 86,
      "hit": false,
      "t": 35999.96400000002,
      "d": 384.61499999999796,
      "v": 110
    },
    {
      "midi": 45,
      "hit": false,
      "t": 35999.96400000002,
      "d": 225.96131250000326,
      "v": 110
    },
    {
      "midi": 57,
      "hit": false,
      "t": 35999.96400000002,
      "d": 225.96131250000326,
      "v": 110
    },
    {
      "midi": 45,
      "hit": false,
      "t": 36230.73300000002,
      "d": 225.96131250000326,
      "v": 110
    },
    {
      "midi": 57,
      "hit": false,
      "t": 36230.73300000002,
      "d": 225.96131250000326,
      "v": 110
    },
    {
      "midi": 76,
      "hit": false,
      "t": 36461.50200000002,
      "d": 384.61499999999796,
      "v": 110
    },
    {
      "midi": 84,
      "hit": false,
      "t": 36461.50200000002,
      "d": 384.61499999999796,
      "v": 110
    },
    {
      "midi": 45,
      "hit": false,
      "t": 36461.50200000002,
      "d": 225.96131250000326,
      "v": 110
    },
    {
      "midi": 57,
      "hit": false,
      "t": 36461.50200000002,
      "d": 225.96131250000326,
      "v": 110
    },
    {
      "midi": 45,
      "hit": false,
      "t": 36692.27100000002,
      "d": 110.57681250000314,
      "v": 110
    },
    {
      "midi": 57,
      "hit": false,
      "t": 36692.27100000002,
      "d": 110.57681250000314,
      "v": 110
    },
    {
      "midi": 45,
      "hit": false,
      "t": 36807.65550000002,
      "d": 110.57681250000314,
      "v": 110
    },
    {
      "midi": 57,
      "hit": false,
      "t": 36807.65550000002,
      "d": 110.57681250000314,
      "v": 110
    },
    {
      "midi": 65,
      "hit": false,
      "t": 36923.04000000002,
      "d": 384.61499999999796,
      "v": 110
    },
    {
      "midi": 74,
      "hit": false,
      "t": 36923.04000000002,
      "d": 384.61499999999796,
      "v": 110
    },
    {
      "midi": 46,
      "hit": false,
      "t": 36923.04000000002,
      "d": 384.61499999999796,
      "v": 110
    },
    {
      "midi": 58,
      "hit": false,
      "t": 36923.04000000002,
      "d": 384.61499999999796,
      "v": 110
    },
    {
      "midi": 62,
      "hit": false,
      "t": 37384.57800000002,
      "d": 384.61499999999796,
      "v": 110
    },
    {
      "midi": 65,
      "hit": false,
      "t": 37384.57800000002,
      "d": 384.61499999999796,
      "v": 110
    },
    {
      "midi": 50,
      "hit": false,
      "t": 37384.57800000002,
      "d": 225.96131250000326,
      "v": 110
    },
    {
      "midi": 62,
      "hit": false,
      "t": 37384.57800000002,
      "d": 225.96131250000326,
      "v": 110
    },
    {
      "midi": 46,
      "hit": false,
      "t": 37615.34700000002,
      "d": 225.96131250000326,
      "v": 110
    },
    {
      "midi": 58,
      "hit": false,
      "t": 37615.34700000002,
      "d": 225.96131250000326,
      "v": 110
    },
    {
      "midi": 64,
      "hit": false,
      "t": 37846.11600000002,
      "d": 384.61499999999796,
      "v": 110
    },
    {
      "midi": 67,
      "hit": false,
      "t": 37846.11600000002,
      "d": 384.61499999999796,
      "v": 110
    },
    {
      "midi": 48,
      "hit": false,
      "t": 37846.11600000002,
      "d": 384.61499999999796,
      "v": 110
    },
    {
      "midi": 60,
      "hit": false,
      "t": 37846.11600000002,
      "d": 384.61499999999796,
      "v": 110
    },
    {
      "midi": 64,
      "hit": false,
      "t": 38307.654000000024,
      "d": 225.96131250000326,
      "v": 110
    },
    {
      "midi": 72,
      "hit": false,
      "t": 38307.654000000024,
      "d": 225.96131250000326,
      "v": 110
    },
    {
      "midi": 40,
      "hit": false,
      "t": 38307.654000000024,
      "d": 225.96131250000326,
      "v": 110
    },
    {
      "midi": 52,
      "hit": false,
      "t": 38307.654000000024,
      "d": 225.96131250000326,
      "v": 110
    },
    {
      "midi": 64,
      "hit": false,
      "t": 38538.423000000024,
      "d": 225.96131250000326,
      "v": 110
    },
    {
      "midi": 70,
      "hit": false,
      "t": 38538.423000000024,
      "d": 225.96131250000326,
      "v": 110
    },
    {
      "midi": 43,
      "hit": false,
      "t": 38538.423000000024,
      "d": 225.96131250000326,
      "v": 110
    },
    {
      "midi": 65,
      "hit": false,
      "t": 38769.192000000025,
      "d": 384.61499999999796,
      "v": 110
    },
    {
      "midi": 69,
      "hit": false,
      "t": 38769.192000000025,
      "d": 384.61499999999796,
      "v": 110
    },
    {
      "midi": 41,
      "hit": false,
      "t": 38769.192000000025,
      "d": 615.3839999999982,
      "v": 110
    },
    {
      "midi": 53,
      "hit": false,
      "t": 38769.192000000025,
      "d": 615.3839999999982,
      "v": 110
    },
    {
      "midi": 60,
      "hit": false,
      "t": 39230.730000000025,
      "d": 384.61499999999796,
      "v": 110
    },
    {
      "midi": 65,
      "hit": false,
      "t": 39230.730000000025,
      "d": 384.61499999999796,
      "v": 110
    },
    {
      "midi": 41,
      "hit": false,
      "t": 39461.499000000025,
      "d": 225.96131250000326,
      "v": 110
    },
    {
      "midi": 53,
      "hit": false,
      "t": 39461.499000000025,
      "d": 225.96131250000326,
      "v": 110
    },
    {
      "midi": 57,
      "hit": false,
      "t": 39692.268000000025,
      "d": 807.6915000000008,
      "v": 110
    },
    {
      "midi": 60,
      "hit": false,
      "t": 39692.268000000025,
      "d": 807.6915000000008,
      "v": 110
    },
    {
      "midi": 41,
      "hit": false,
      "t": 39692.268000000025,
      "d": 225.96131250000326,
      "v": 110
    },
    {
      "midi": 53,
      "hit": false,
      "t": 39692.268000000025,
      "d": 225.96131250000326,
      "v": 110
    },
    {
      "midi": 41,
      "hit": false,
      "t": 39923.037000000026,
      "d": 225.96131250000326,
      "v": 110
    },
    {
      "midi": 53,
      "hit": false,
      "t": 39923.037000000026,
      "d": 225.96131250000326,
      "v": 110
    },
    {
      "midi": 44,
      "hit": false,
      "t": 40153.806000000026,
      "d": 225.96131250000326,
      "v": 110
    },
    {
      "midi": 56,
      "hit": false,
      "t": 40153.806000000026,
      "d": 225.96131250000326,
      "v": 110
    },
    {
      "midi": 45,
      "hit": false,
      "t": 40384.575000000026,
      "d": 225.96131250000326,
      "v": 110
    },
    {
      "midi": 57,
      "hit": false,
      "t": 40384.575000000026,
      "d": 225.96131250000326,
      "v": 110
    },
    {
      "midi": 65,
      "hit": false,
      "t": 40615.34400000003,
      "d": 225.96131250000326,
      "v": 110
    },
    {
      "midi": 74,
      "hit": false,
      "t": 40615.34400000003,
      "d": 225.96131250000326,
      "v": 110
    },
    {
      "midi": 46,
      "hit": false,
      "t": 40615.34400000003,
      "d": 384.61499999999796,
      "v": 110
    },
    {
      "midi": 58,
      "hit": false,
      "t": 40615.34400000003,
      "d": 384.61499999999796,
      "v": 110
    },
    {
      "midi": 64,
      "hit": false,
      "t": 40846.11300000003,
      "d": 225.96131250000326,
      "v": 110
    },
    {
      "midi": 72,
      "hit": false,
      "t": 40846.11300000003,
      "d": 225.96131250000326,
      "v": 110
    },
    {
      "midi": 62,
      "hit": false,
      "t": 41076.88200000003,
      "d": 225.96131250000326,
      "v": 110
    },
    {
      "midi": 70,
      "hit": false,
      "t": 41076.88200000003,
      "d": 225.96131250000326,
      "v": 110
    },
    {
      "midi": 50,
      "hit": false,
      "t": 41076.88200000003,
      "d": 225.96131250000326,
      "v": 110
    },
    {
      "midi": 62,
      "hit": false,
      "t": 41076.88200000003,
      "d": 225.96131250000326,
      "v": 110
    },
    {
      "midi": 60,
      "hit": false,
      "t": 41307.65100000003,
      "d": 225.96131250000326,
      "v": 110
    },
    {
      "midi": 69,
      "hit": false,
      "t": 41307.65100000003,
      "d": 225.96131250000326,
      "v": 110
    },
    {
      "midi": 46,
      "hit": false,
      "t": 41307.65100000003,
      "d": 225.96131250000326,
      "v": 110
    },
    {
      "midi": 58,
      "hit": false,
      "t": 41307.65100000003,
      "d": 225.96131250000326,
      "v": 110
    },
    {
      "midi": 64,
      "hit": false,
      "t": 41538.42000000003,
      "d": 384.61499999999796,
      "v": 110
    },
    {
      "midi": 67,
      "hit": false,
      "t": 41538.42000000003,
      "d": 384.61499999999796,
      "v": 110
    },
    {
      "midi": 48,
      "hit": false,
      "t": 41538.42000000003,
      "d": 384.61499999999796,
      "v": 110
    },
    {
      "midi": 60,
      "hit": false,
      "t": 41538.42000000003,
      "d": 384.61499999999796,
      "v": 110
    },
    {
      "midi": 55,
      "hit": false,
      "t": 41999.95800000003,
      "d": 225.96131250000326,
      "v": 110
    },
    {
      "midi": 65,
      "hit": false,
      "t": 41999.95800000003,
      "d": 225.96131250000326,
      "v": 110
    },
    {
      "midi": 43,
      "hit": false,
      "t": 41999.95800000003,
      "d": 225.96131250000326,
      "v": 110
    },
    {
      "midi": 55,
      "hit": false,
      "t": 41999.95800000003,
      "d": 225.96131250000326,
      "v": 110
    },
    {
      "midi": 55,
      "hit": false,
      "t": 42230.72700000003,
      "d": 225.96131250000326,
      "v": 110
    },
    {
      "midi": 64,
      "hit": false,
      "t": 42230.72700000003,
      "d": 225.96131250000326,
      "v": 110
    },
    {
      "midi": 36,
      "hit": false,
      "t": 42230.72700000003,
      "d": 225.96131250000326,
      "v": 110
    },
    {
      "midi": 48,
      "hit": false,
      "t": 42230.72700000003,
      "d": 225.96131250000326,
      "v": 110
    },
    {
      "midi": 57,
      "hit": false,
      "t": 42461.49600000003,
      "d": 1269.2295000000013,
      "v": 110
    },
    {
      "midi": 65,
      "hit": false,
      "t": 42461.49600000003,
      "d": 1269.2295000000013,
      "v": 110
    },
    {
      "midi": 41,
      "hit": false,
      "t": 42461.49600000003,
      "d": 1269.2295000000013,
      "v": 110
    },
    {
      "midi": 53,
      "hit": false,
      "t": 42461.49600000003,
      "d": 1269.2295000000013,
      "v": 110
    },
    {
      "midi": 72,
      "hit": false,
      "t": 44307.64800000003,
      "d": 225.96131250000326,
      "v": 110
    },
    {
      "midi": 81,
      "hit": false,
      "t": 44307.64800000003,
      "d": 225.96131250000326,
      "v": 110
    },
    {
      "midi": 72,
      "hit": false,
      "t": 44538.41700000003,
      "d": 225.96131250000326,
      "v": 110
    },
    {
      "midi": 81,
      "hit": false,
      "t": 44538.41700000003,
      "d": 225.96131250000326,
      "v": 110
    },
    {
      "midi": 38,
      "hit": false,
      "t": 44769.18600000003,
      "d": 384.61499999999796,
      "v": 110
    },
    {
      "midi": 50,
      "hit": false,
      "t": 44769.18600000003,
      "d": 384.61499999999796,
      "v": 110
    },
    {
      "midi": 74,
      "hit": false,
      "t": 44999.95500000003,
      "d": 225.96131250000326,
      "v": 110
    },
    {
      "midi": 82,
      "hit": false,
      "t": 44999.95500000003,
      "d": 225.96131250000326,
      "v": 110
    },
    {
      "midi": 74,
      "hit": false,
      "t": 45461.49300000003,
      "d": 615.3839999999982,
      "v": 110
    },
    {
      "midi": 82,
      "hit": false,
      "t": 45461.49300000003,
      "d": 615.3839999999982,
      "v": 110
    },
    {
      "midi": 38,
      "hit": false,
      "t": 45692.26200000003,
      "d": 384.61499999999796,
      "v": 110
    },
    {
      "midi": 50,
      "hit": false,
      "t": 45692.26200000003,
      "d": 384.61499999999796,
      "v": 110
    },
    {
      "midi": 70,
      "hit": false,
      "t": 46153.80000000003,
      "d": 225.96131250000326,
      "v": 110
    },
    {
      "midi": 79,
      "hit": false,
      "t": 46153.80000000003,
      "d": 225.96131250000326,
      "v": 110
    },
    {
      "midi": 70,
      "hit": false,
      "t": 46384.56900000003,
      "d": 225.96131250000326,
      "v": 110
    },
    {
      "midi": 79,
      "hit": false,
      "t": 46384.56900000003,
      "d": 225.96131250000326,
      "v": 110
    },
    {
      "midi": 38,
      "hit": false,
      "t": 46615.33800000003,
      "d": 384.61499999999796,
      "v": 110
    },
    {
      "midi": 50,
      "hit": false,
      "t": 46615.33800000003,
      "d": 384.61499999999796,
      "v": 110
    },
    {
      "midi": 72,
      "hit": false,
      "t": 46846.10700000003,
      "d": 225.96131250000326,
      "v": 110
    },
    {
      "midi": 81,
      "hit": false,
      "t": 46846.10700000003,
      "d": 225.96131250000326,
      "v": 110
    },
    {
      "midi": 72,
      "hit": false,
      "t": 47307.64500000003,
      "d": 615.3839999999982,
      "v": 110
    },
    {
      "midi": 81,
      "hit": false,
      "t": 47307.64500000003,
      "d": 615.3839999999982,
      "v": 110
    },
    {
      "midi": 38,
      "hit": false,
      "t": 47538.41400000003,
      "d": 384.61499999999796,
      "v": 110
    },
    {
      "midi": 50,
      "hit": false,
      "t": 47538.41400000003,
      "d": 384.61499999999796,
      "v": 110
    },
    {
      "midi": 69,
      "hit": false,
      "t": 47999.952000000034,
      "d": 225.96131250000326,
      "v": 110
    },
    {
      "midi": 77,
      "hit": false,
      "t": 47999.952000000034,
      "d": 225.96131250000326,
      "v": 110
    },
    {
      "midi": 69,
      "hit": false,
      "t": 48230.721000000034,
      "d": 225.96131250000326,
      "v": 110
    },
    {
      "midi": 77,
      "hit": false,
      "t": 48230.721000000034,
      "d": 225.96131250000326,
      "v": 110
    },
    {
      "midi": 38,
      "hit": false,
      "t": 48461.490000000034,
      "d": 384.61499999999796,
      "v": 110
    },
    {
      "midi": 50,
      "hit": false,
      "t": 48461.490000000034,
      "d": 384.61499999999796,
      "v": 110
    },
    {
      "midi": 70,
      "hit": false,
      "t": 48692.259000000035,
      "d": 225.96131250000326,
      "v": 110
    },
    {
      "midi": 79,
      "hit": false,
      "t": 48692.259000000035,
      "d": 225.96131250000326,
      "v": 110
    },
    {
      "midi": 70,
      "hit": false,
      "t": 49153.797000000035,
      "d": 615.3839999999982,
      "v": 110
    },
    {
      "midi": 79,
      "hit": false,
      "t": 49153.797000000035,
      "d": 615.3839999999982,
      "v": 110
    },
    {
      "midi": 38,
      "hit": false,
      "t": 49384.566000000035,
      "d": 384.61499999999796,
      "v": 110
    },
    {
      "midi": 50,
      "hit": false,
      "t": 49384.566000000035,
      "d": 384.61499999999796,
      "v": 110
    },
    {
      "midi": 67,
      "hit": false,
      "t": 49846.104000000036,
      "d": 225.96131250000326,
      "v": 110
    },
    {
      "midi": 76,
      "hit": false,
      "t": 49846.104000000036,
      "d": 225.96131250000326,
      "v": 110
    },
    {
      "midi": 67,
      "hit": false,
      "t": 50076.873000000036,
      "d": 225.96131250000326,
      "v": 110
    },
    {
      "midi": 76,
      "hit": false,
      "t": 50076.873000000036,
      "d": 225.96131250000326,
      "v": 110
    },
    {
      "midi": 38,
      "hit": false,
      "t": 50307.642000000036,
      "d": 384.61499999999796,
      "v": 110
    },
    {
      "midi": 50,
      "hit": false,
      "t": 50307.642000000036,
      "d": 384.61499999999796,
      "v": 110
    },
    {
      "midi": 69,
      "hit": false,
      "t": 50538.41100000004,
      "d": 1038.460500000001,
      "v": 110
    },
    {
      "midi": 77,
      "hit": false,
      "t": 50538.41100000004,
      "d": 1038.460500000001,
      "v": 110
    },
    {
      "midi": 50,
      "hit": false,
      "t": 50999.94900000004,
      "d": 225.96131250000326,
      "v": 110
    },
    {
      "midi": 62,
      "hit": false,
      "t": 50999.94900000004,
      "d": 225.96131250000326,
      "v": 110
    },
    {
      "midi": 46,
      "hit": false,
      "t": 51230.71800000004,
      "d": 225.96131250000326,
      "v": 110
    },
    {
      "midi": 58,
      "hit": false,
      "t": 51230.71800000004,
      "d": 225.96131250000326,
      "v": 110
    },
    {
      "midi": 43,
      "hit": false,
      "t": 51461.48700000004,
      "d": 225.96131250000326,
      "v": 110
    },
    {
      "midi": 55,
      "hit": false,
      "t": 51461.48700000004,
      "d": 225.96131250000326,
      "v": 110
    },
    {
      "midi": 69,
      "hit": false,
      "t": 51692.25600000004,
      "d": 225.96131250000326,
      "v": 110
    },
    {
      "midi": 41,
      "hit": false,
      "t": 51692.25600000004,
      "d": 341.3458125000034,
      "v": 110
    },
    {
      "midi": 53,
      "hit": false,
      "t": 51692.25600000004,
      "d": 341.3458125000034,
      "v": 110
    },
    {
      "midi": 65,
      "hit": false,
      "t": 51923.02500000004,
      "d": 225.96131250000326,
      "v": 110
    },
    {
      "midi": 41,
      "hit": false,
      "t": 52038.40950000004,
      "d": 110.57681250000314,
      "v": 110
    },
    {
      "midi": 53,
      "hit": false,
      "t": 52038.40950000004,
      "d": 110.57681250000314,
      "v": 110
    },
    {
      "midi": 69,
      "hit": false,
      "t": 52153.79400000004,
      "d": 225.96131250000326,
      "v": 110
    },
    {
      "midi": 45,
      "hit": false,
      "t": 52153.79400000004,
      "d": 225.96131250000326,
      "v": 110
    },
    {
      "midi": 57,
      "hit": false,
      "t": 52153.79400000004,
      "d": 225.96131250000326,
      "v": 110
    },
    {
      "midi": 60,
      "hit": false,
      "t": 52384.56300000004,
      "d": 225.96131250000326,
      "v": 110
    },
    {
      "midi": 70,
      "hit": false,
      "t": 52384.56300000004,
      "d": 225.96131250000326,
      "v": 110
    },
    {
      "midi": 41,
      "hit": false,
      "t": 52384.56300000004,
      "d": 225.96131250000326,
      "v": 110
    },
    {
      "midi": 53,
      "hit": false,
      "t": 52384.56300000004,
      "d": 225.96131250000326,
      "v": 110
    },
    {
      "midi": 46,
      "hit": false,
      "t": 52615.33200000004,
      "d": 341.3458125000034,
      "v": 110
    },
    {
      "midi": 58,
      "hit": false,
      "t": 52615.33200000004,
      "d": 341.3458125000034,
      "v": 110
    },
    {
      "midi": 62,
      "hit": false,
      "t": 52846.10100000004,
      "d": 225.96131250000326,
      "v": 110
    },
    {
      "midi": 70,
      "hit": false,
      "t": 52846.10100000004,
      "d": 225.96131250000326,
      "v": 110
    },
    {
      "midi": 46,
      "hit": false,
      "t": 52961.48550000004,
      "d": 110.57681250000314,
      "v": 110
    },
    {
      "midi": 58,
      "hit": false,
      "t": 52961.48550000004,
      "d": 110.57681250000314,
      "v": 110
    },
    {
      "midi": 65,
      "hit": false,
      "t": 53076.87000000004,
      "d": 225.96131250000326,
      "v": 110
    },
    {
      "midi": 50,
      "hit": false,
      "t": 53076.87000000004,
      "d": 225.96131250000326,
      "v": 110
    },
    {
      "midi": 62,
      "hit": false,
      "t": 53076.87000000004,
      "d": 225.96131250000326,
      "v": 110
    },
    {
      "midi": 70,
      "hit": false,
      "t": 53307.63900000004,
      "d": 225.96131250000326,
      "v": 110
    },
    {
      "midi": 46,
      "hit": false,
      "t": 53307.63900000004,
      "d": 225.96131250000326,
      "v": 110
    },
    {
      "midi": 58,
      "hit": false,
      "t": 53307.63900000004,
      "d": 225.96131250000326,
      "v": 110
    },
    {
      "midi": 72,
      "hit": false,
      "t": 53538.40800000004,
      "d": 225.96131250000326,
      "v": 110
    },
    {
      "midi": 48,
      "hit": false,
      "t": 53538.40800000004,
      "d": 341.3458125000034,
      "v": 110
    },
    {
      "midi": 60,
      "hit": false,
      "t": 53538.40800000004,
      "d": 341.3458125000034,
      "v": 110
    },
    {
      "midi": 64,
      "hit": false,
      "t": 53769.17700000004,
      "d": 225.96131250000326,
      "v": 110
    },
    {
      "midi": 67,
      "hit": false,
      "t": 53769.17700000004,
      "d": 225.96131250000326,
      "v": 110
    },
    {
      "midi": 48,
      "hit": false,
      "t": 53884.56150000004,
      "d": 110.57681250000314,
      "v": 110
    },
    {
      "midi": 60,
      "hit": false,
      "t": 53884.56150000004,
      "d": 110.57681250000314,
      "v": 110
    },
    {
      "midi": 60,
      "hit": false,
      "t": 53999.94600000004,
      "d": 225.96131250000326,
      "v": 110
    },
    {
      "midi": 70,
      "hit": false,
      "t": 53999.94600000004,
      "d": 225.96131250000326,
      "v": 110
    },
    {
      "midi": 52,
      "hit": false,
      "t": 53999.94600000004,
      "d": 225.96131250000326,
      "v": 110
    },
    {
      "midi": 64,
      "hit": false,
      "t": 53999.94600000004,
      "d": 225.96131250000326,
      "v": 110
    },
    {
      "midi": 69,
      "hit": false,
      "t": 54230.71500000004,
      "d": 456.7303125000035,
      "v": 110
    },
    {
      "midi": 48,
      "hit": false,
      "t": 54230.71500000004,
      "d": 225.96131250000326,
      "v": 110
    },
    {
      "midi": 60,
      "hit": false,
      "t": 54230.71500000004,
      "d": 225.96131250000326,
      "v": 110
    },
    {
      "midi": 41,
      "hit": false,
      "t": 54461.48400000004,
      "d": 341.3458125000034,
      "v": 110
    },
    {
      "midi": 53,
      "hit": false,
      "t": 54461.48400000004,
      "d": 341.3458125000034,
      "v": 110
    },
    {
      "midi": 65,
      "hit": false,
      "t": 54692.25300000004,
      "d": 225.96131250000326,
      "v": 110
    },
    {
      "midi": 41,
      "hit": false,
      "t": 54807.63750000004,
      "d": 110.57681250000314,
      "v": 110
    },
    {
      "midi": 53,
      "hit": false,
      "t": 54807.63750000004,
      "d": 110.57681250000314,
      "v": 110
    },
    {
      "midi": 69,
      "hit": false,
      "t": 54923.02200000004,
      "d": 225.96131250000326,
      "v": 110
    },
    {
      "midi": 45,
      "hit": false,
      "t": 54923.02200000004,
      "d": 225.96131250000326,
      "v": 110
    },
    {
      "midi": 57,
      "hit": false,
      "t": 54923.02200000004,
      "d": 225.96131250000326,
      "v": 110
    },
    {
      "midi": 72,
      "hit": false,
      "t": 55153.79100000004,
      "d": 225.96131250000326,
      "v": 110
    },
    {
      "midi": 41,
      "hit": false,
      "t": 55153.79100000004,
      "d": 225.96131250000326,
      "v": 110
    },
    {
      "midi": 53,
      "hit": false,
      "t": 55153.79100000004,
      "d": 225.96131250000326,
      "v": 110
    },
    {
      "midi": 70,
      "hit": false,
      "t": 55384.56000000004,
      "d": 225.96131250000326,
      "v": 110
    },
    {
      "midi": 46,
      "hit": false,
      "t": 55384.56000000004,
      "d": 341.3458125000034,
      "v": 110
    },
    {
      "midi": 58,
      "hit": false,
      "t": 55384.56000000004,
      "d": 341.3458125000034,
      "v": 110
    },
    {
      "midi": 72,
      "hit": false,
      "t": 55615.32900000004,
      "d": 225.96131250000326,
      "v": 110
    },
    {
      "midi": 74,
      "hit": false,
      "t": 55615.32900000004,
      "d": 225.96131250000326,
      "v": 110
    },
    {
      "midi": 46,
      "hit": false,
      "t": 55730.71350000004,
      "d": 110.57681250000314,
      "v": 110
    },
    {
      "midi": 58,
      "hit": false,
      "t": 55730.71350000004,
      "d": 110.57681250000314,
      "v": 110
    },
    {
      "midi": 70,
      "hit": false,
      "t": 55846.09800000004,
      "d": 225.96131250000326,
      "v": 110
    },
    {
      "midi": 53,
      "hit": false,
      "t": 55846.09800000004,
      "d": 225.96131250000326,
      "v": 110
    },
    {
      "midi": 65,
      "hit": false,
      "t": 55846.09800000004,
      "d": 225.96131250000326,
      "v": 110
    },
    {
      "midi": 69,
      "hit": false,
      "t": 56076.86700000004,
      "d": 225.96131250000326,
      "v": 110
    },
    {
      "midi": 41,
      "hit": false,
      "t": 56076.86700000004,
      "d": 225.96131250000326,
      "v": 110
    },
    {
      "midi": 53,
      "hit": false,
      "t": 56076.86700000004,
      "d": 225.96131250000326,
      "v": 110
    },
    {
      "midi": 43,
      "hit": false,
      "t": 56307.63600000004,
      "d": 341.3458125000034,
      "v": 110
    },
    {
      "midi": 55,
      "hit": false,
      "t": 56307.63600000004,
      "d": 341.3458125000034,
      "v": 110
    },
    {
      "midi": 62,
      "hit": false,
      "t": 56538.40500000004,
      "d": 225.96131250000326,
      "v": 110
    },
    {
      "midi": 67,
      "hit": false,
      "t": 56538.40500000004,
      "d": 225.96131250000326,
      "v": 110
    },
    {
      "midi": 43,
      "hit": false,
      "t": 56653.78950000004,
      "d": 110.57681250000314,
      "v": 110
    },
    {
      "midi": 55,
      "hit": false,
      "t": 56653.78950000004,
      "d": 110.57681250000314,
      "v": 110
    },
    {
      "midi": 67,
      "hit": false,
      "t": 56769.17400000004,
      "d": 225.96131250000326,
      "v": 110
    },
    {
      "midi": 50,
      "hit": false,
      "t": 56769.17400000004,
      "d": 225.96131250000326,
      "v": 110
    },
    {
      "midi": 62,
      "hit": false,
      "t": 56769.17400000004,
      "d": 225.96131250000326,
      "v": 110
    },
    {
      "midi": 70,
      "hit": false,
      "t": 56999.94300000004,
      "d": 225.96131250000326,
      "v": 110
    },
    {
      "midi": 43,
      "hit": false,
      "t": 56999.94300000004,
      "d": 225.96131250000326,
      "v": 110
    },
    {
      "midi": 55,
      "hit": false,
      "t": 56999.94300000004,
      "d": 225.96131250000326,
      "v": 110
    },
    {
      "midi": 69,
      "hit": false,
      "t": 57230.71200000004,
      "d": 225.96131250000326,
      "v": 110
    },
    {
      "midi": 45,
      "hit": false,
      "t": 57230.71200000004,
      "d": 341.3458125000034,
      "v": 110
    },
    {
      "midi": 57,
      "hit": false,
      "t": 57230.71200000004,
      "d": 341.3458125000034,
      "v": 110
    },
    {
      "midi": 64,
      "hit": false,
      "t": 57461.48100000004,
      "d": 225.96131250000326,
      "v": 110
    },
    {
      "midi": 45,
      "hit": false,
      "t": 57576.86550000004,
      "d": 110.57681250000314,
      "v": 110
    },
    {
      "midi": 57,
      "hit": false,
      "t": 57576.86550000004,
      "d": 110.57681250000314,
      "v": 110
    },
    {
      "midi": 67,
      "hit": false,
      "t": 57692.250000000044,
      "d": 225.96131250000326,
      "v": 110
    },
    {
      "midi": 69,
      "hit": false,
      "t": 57692.250000000044,
      "d": 225.96131250000326,
      "v": 110
    },
    {
      "midi": 40,
      "hit": false,
      "t": 57692.250000000044,
      "d": 225.96131250000326,
      "v": 110
    },
    {
      "midi": 52,
      "hit": false,
      "t": 57692.250000000044,
      "d": 225.96131250000326,
      "v": 110
    },
    {
      "midi": 62,
      "hit": false,
      "t": 57923.019000000044,
      "d": 225.96131250000326,
      "v": 110
    },
    {
      "midi": 65,
      "hit": false,
      "t": 57923.019000000044,
      "d": 225.96131250000326,
      "v": 110
    },
    {
      "midi": 45,
      "hit": false,
      "t": 57923.019000000044,
      "d": 225.96131250000326,
      "v": 110
    },
    {
      "midi": 57,
      "hit": false,
      "t": 57923.019000000044,
      "d": 225.96131250000326,
      "v": 110
    },
    {
      "midi": 50,
      "hit": false,
      "t": 58153.788000000044,
      "d": 341.3458125000034,
      "v": 110
    },
    {
      "midi": 62,
      "hit": false,
      "t": 58153.788000000044,
      "d": 341.3458125000034,
      "v": 110
    },
    {
      "midi": 65,
      "hit": false,
      "t": 58384.557000000044,
      "d": 225.96131250000326,
      "v": 110
    },
    {
      "midi": 50,
      "hit": false,
      "t": 58499.941500000044,
      "d": 110.57681250000314,
      "v": 110
    },
    {
      "midi": 62,
      "hit": false,
      "t": 58499.941500000044,
      "d": 110.57681250000314,
      "v": 110
    },
    {
      "midi": 69,
      "hit": false,
      "t": 58615.326000000045,
      "d": 225.96131250000326,
      "v": 110
    },
    {
      "midi": 45,
      "hit": false,
      "t": 58615.326000000045,
      "d": 225.96131250000326,
      "v": 110
    },
    {
      "midi": 57,
      "hit": false,
      "t": 58615.326000000045,
      "d": 225.96131250000326,
      "v": 110
    },
    {
      "midi": 74,
      "hit": false,
      "t": 58846.095000000045,
      "d": 225.96131250000326,
      "v": 110
    },
    {
      "midi": 50,
      "hit": false,
      "t": 58846.095000000045,
      "d": 225.96131250000326,
      "v": 110
    },
    {
      "midi": 62,
      "hit": false,
      "t": 58846.095000000045,
      "d": 225.96131250000326,
      "v": 110
    },
    {
      "midi": 69,
      "hit": false,
      "t": 59076.864000000045,
      "d": 225.96131250000326,
      "v": 110
    },
    {
      "midi": 41,
      "hit": false,
      "t": 59076.864000000045,
      "d": 341.3458125000034,
      "v": 110
    },
    {
      "midi": 53,
      "hit": false,
      "t": 59076.864000000045,
      "d": 341.3458125000034,
      "v": 110
    },
    {
      "midi": 65,
      "hit": false,
      "t": 59307.633000000045,
      "d": 225.96131250000326,
      "v": 110
    },
    {
      "midi": 41,
      "hit": false,
      "t": 59423.017500000045,
      "d": 110.57681250000314,
      "v": 110
    },
    {
      "midi": 53,
      "hit": false,
      "t": 59423.017500000045,
      "d": 110.57681250000314,
      "v": 110
    },
    {
      "midi": 69,
      "hit": false,
      "t": 59538.402000000046,
      "d": 225.96131250000326,
      "v": 110
    },
    {
      "midi": 45,
      "hit": false,
      "t": 59538.402000000046,
      "d": 225.96131250000326,
      "v": 110
    },
    {
      "midi": 57,
      "hit": false,
      "t": 59538.402000000046,
      "d": 225.96131250000326,
      "v": 110
    },
    {
      "midi": 60,
      "hit": false,
      "t": 59769.171000000046,
      "d": 225.96131250000326,
      "v": 110
    },
    {
      "midi": 70,
      "hit": false,
      "t": 59769.171000000046,
      "d": 225.96131250000326,
      "v": 110
    },
    {
      "midi": 41,
      "hit": false,
      "t": 59769.171000000046,
      "d": 225.96131250000326,
      "v": 110
    },
    {
      "midi": 53,
      "hit": false,
      "t": 59769.171000000046,
      "d": 225.96131250000326,
      "v": 110
    },
    {
      "midi": 46,
      "hit": false,
      "t": 59999.940000000046,
      "d": 341.3458125000034,
      "v": 110
    },
    {
      "midi": 58,
      "hit": false,
      "t": 59999.940000000046,
      "d": 341.3458125000034,
      "v": 110
    },
    {
      "midi": 62,
      "hit": false,
      "t": 60230.709000000046,
      "d": 225.96131250000326,
      "v": 110
    },
    {
      "midi": 70,
      "hit": false,
      "t": 60230.709000000046,
      "d": 225.96131250000326,
      "v": 110
    },
    {
      "midi": 46,
      "hit": false,
      "t": 60346.093500000046,
      "d": 110.57681250000314,
      "v": 110
    },
    {
      "midi": 58,
      "hit": false,
      "t": 60346.093500000046,
      "d": 110.57681250000314,
      "v": 110
    },
    {
      "midi": 65,
      "hit": false,
      "t": 60461.47800000005,
      "d": 225.96131250000326,
      "v": 110
    },
    {
      "midi": 50,
      "hit": false,
      "t": 60461.47800000005,
      "d": 225.96131250000326,
      "v": 110
    },
    {
      "midi": 62,
      "hit": false,
      "t": 60461.47800000005,
      "d": 225.96131250000326,
      "v": 110
    },
    {
      "midi": 70,
      "hit": false,
      "t": 60692.24700000005,
      "d": 225.96131250000326,
      "v": 110
    },
    {
      "midi": 46,
      "hit": false,
      "t": 60692.24700000005,
      "d": 225.96131250000326,
      "v": 110
    },
    {
      "midi": 58,
      "hit": false,
      "t": 60692.24700000005,
      "d": 225.96131250000326,
      "v": 110
    },
    {
      "midi": 72,
      "hit": false,
      "t": 60923.01600000005,
      "d": 225.96131250000326,
      "v": 110
    },
    {
      "midi": 48,
      "hit": false,
      "t": 60923.01600000005,
      "d": 341.3458125000034,
      "v": 110
    },
    {
      "midi": 60,
      "hit": false,
      "t": 60923.01600000005,
      "d": 341.3458125000034,
      "v": 110
    },
    {
      "midi": 64,
      "hit": false,
      "t": 61153.78500000005,
      "d": 225.96131250000326,
      "v": 110
    },
    {
      "midi": 67,
      "hit": false,
      "t": 61153.78500000005,
      "d": 225.96131250000326,
      "v": 110
    },
    {
      "midi": 48,
      "hit": false,
      "t": 61269.16950000005,
      "d": 110.57681250000314,
      "v": 110
    },
    {
      "midi": 60,
      "hit": false,
      "t": 61269.16950000005,
      "d": 110.57681250000314,
      "v": 110
    },
    {
      "midi": 60,
      "hit": false,
      "t": 61384.55400000005,
      "d": 225.96131250000326,
      "v": 110
    },
    {
      "midi": 70,
      "hit": false,
      "t": 61384.55400000005,
      "d": 225.96131250000326,
      "v": 110
    },
    {
      "midi": 52,
      "hit": false,
      "t": 61384.55400000005,
      "d": 225.96131250000326,
      "v": 110
    },
    {
      "midi": 64,
      "hit": false,
      "t": 61384.55400000005,
      "d": 225.96131250000326,
      "v": 110
    },
    {
      "midi": 69,
      "hit": false,
      "t": 61615.32300000005,
      "d": 456.7303125000035,
      "v": 110
    },
    {
      "midi": 48,
      "hit": false,
      "t": 61615.32300000005,
      "d": 225.96131250000326,
      "v": 110
    },
    {
      "midi": 60,
      "hit": false,
      "t": 61615.32300000005,
      "d": 225.96131250000326,
      "v": 110
    },
    {
      "midi": 41,
      "hit": false,
      "t": 61846.09200000005,
      "d": 341.3458125000034,
      "v": 110
    },
    {
      "midi": 53,
      "hit": false,
      "t": 61846.09200000005,
      "d": 341.3458125000034,
      "v": 110
    },
    {
      "midi": 65,
      "hit": false,
      "t": 62076.86100000005,
      "d": 225.96131250000326,
      "v": 110
    },
    {
      "midi": 41,
      "hit": false,
      "t": 62192.24550000005,
      "d": 110.57681250000314,
      "v": 110
    },
    {
      "midi": 53,
      "hit": false,
      "t": 62192.24550000005,
      "d": 110.57681250000314,
      "v": 110
    },
    {
      "midi": 69,
      "hit": false,
      "t": 62307.63000000005,
      "d": 225.96131250000326,
      "v": 110
    },
    {
      "midi": 45,
      "hit": false,
      "t": 62307.63000000005,
      "d": 225.96131250000326,
      "v": 110
    },
    {
      "midi": 57,
      "hit": false,
      "t": 62307.63000000005,
      "d": 225.96131250000326,
      "v": 110
    },
    {
      "midi": 72,
      "hit": false,
      "t": 62538.39900000005,
      "d": 225.96131250000326,
      "v": 110
    },
    {
      "midi": 41,
      "hit": false,
      "t": 62538.39900000005,
      "d": 225.96131250000326,
      "v": 110
    },
    {
      "midi": 53,
      "hit": false,
      "t": 62538.39900000005,
      "d": 225.96131250000326,
      "v": 110
    },
    {
      "midi": 70,
      "hit": false,
      "t": 62769.16800000005,
      "d": 225.96131250000326,
      "v": 110
    },
    {
      "midi": 46,
      "hit": false,
      "t": 62769.16800000005,
      "d": 341.3458125000034,
      "v": 110
    },
    {
      "midi": 58,
      "hit": false,
      "t": 62769.16800000005,
      "d": 341.3458125000034,
      "v": 110
    },
    {
      "midi": 72,
      "hit": false,
      "t": 62999.93700000005,
      "d": 225.96131250000326,
      "v": 110
    },
    {
      "midi": 74,
      "hit": false,
      "t": 62999.93700000005,
      "d": 225.96131250000326,
      "v": 110
    },
    {
      "midi": 46,
      "hit": false,
      "t": 63115.32150000005,
      "d": 110.57681250000314,
      "v": 110
    },
    {
      "midi": 58,
      "hit": false,
      "t": 63115.32150000005,
      "d": 110.57681250000314,
      "v": 110
    },
    {
      "midi": 70,
      "hit": false,
      "t": 63230.70600000005,
      "d": 225.96131250000326,
      "v": 110
    },
    {
      "midi": 53,
      "hit": false,
      "t": 63230.70600000005,
      "d": 225.96131250000326,
      "v": 110
    },
    {
      "midi": 65,
      "hit": false,
      "t": 63230.70600000005,
      "d": 225.96131250000326,
      "v": 110
    },
    {
      "midi": 69,
      "hit": false,
      "t": 63461.47500000005,
      "d": 225.96131250000326,
      "v": 110
    },
    {
      "midi": 41,
      "hit": false,
      "t": 63461.47500000005,
      "d": 225.96131250000326,
      "v": 110
    },
    {
      "midi": 53,
      "hit": false,
      "t": 63461.47500000005,
      "d": 225.96131250000326,
      "v": 110
    },
    {
      "midi": 43,
      "hit": false,
      "t": 63692.24400000005,
      "d": 341.3458125000034,
      "v": 110
    },
    {
      "midi": 55,
      "hit": false,
      "t": 63692.24400000005,
      "d": 341.3458125000034,
      "v": 110
    },
    {
      "midi": 62,
      "hit": false,
      "t": 63923.01300000005,
      "d": 225.96131250000326,
      "v": 110
    },
    {
      "midi": 67,
      "hit": false,
      "t": 63923.01300000005,
      "d": 225.96131250000326,
      "v": 110
    },
    {
      "midi": 43,
      "hit": false,
      "t": 64038.39750000005,
      "d": 110.57681250000314,
      "v": 110
    },
    {
      "midi": 55,
      "hit": false,
      "t": 64038.39750000005,
      "d": 110.57681250000314,
      "v": 110
    },
    {
      "midi": 67,
      "hit": false,
      "t": 64153.78200000005,
      "d": 225.96131250000326,
      "v": 110
    },
    {
      "midi": 50,
      "hit": false,
      "t": 64153.78200000005,
      "d": 225.96131250000326,
      "v": 110
    },
    {
      "midi": 62,
      "hit": false,
      "t": 64153.78200000005,
      "d": 225.96131250000326,
      "v": 110
    },
    {
      "midi": 70,
      "hit": false,
      "t": 64384.55100000005,
      "d": 225.96131250000326,
      "v": 110
    },
    {
      "midi": 43,
      "hit": false,
      "t": 64384.55100000005,
      "d": 225.96131250000326,
      "v": 110
    },
    {
      "midi": 55,
      "hit": false,
      "t": 64384.55100000005,
      "d": 225.96131250000326,
      "v": 110
    },
    {
      "midi": 69,
      "hit": false,
      "t": 64615.32000000005,
      "d": 225.96131250000326,
      "v": 110
    },
    {
      "midi": 45,
      "hit": false,
      "t": 64615.32000000005,
      "d": 341.3458125000034,
      "v": 110
    },
    {
      "midi": 57,
      "hit": false,
      "t": 64615.32000000005,
      "d": 341.3458125000034,
      "v": 110
    },
    {
      "midi": 64,
      "hit": false,
      "t": 64846.08900000005,
      "d": 225.96131250000326,
      "v": 110
    },
    {
      "midi": 45,
      "hit": false,
      "t": 64961.47350000005,
      "d": 110.57681250000314,
      "v": 110
    },
    {
      "midi": 57,
      "hit": false,
      "t": 64961.47350000005,
      "d": 110.57681250000314,
      "v": 110
    },
    {
      "midi": 67,
      "hit": false,
      "t": 65076.85800000005,
      "d": 225.96131250000326,
      "v": 110
    },
    {
      "midi": 69,
      "hit": false,
      "t": 65076.85800000005,
      "d": 225.96131250000326,
      "v": 110
    },
    {
      "midi": 40,
      "hit": false,
      "t": 65076.85800000005,
      "d": 225.96131250000326,
      "v": 110
    },
    {
      "midi": 52,
      "hit": false,
      "t": 65076.85800000005,
      "d": 225.96131250000326,
      "v": 110
    },
    {
      "midi": 62,
      "hit": false,
      "t": 65307.62700000005,
      "d": 225.96131250000326,
      "v": 110
    },
    {
      "midi": 65,
      "hit": false,
      "t": 65307.62700000005,
      "d": 225.96131250000326,
      "v": 110
    },
    {
      "midi": 45,
      "hit": false,
      "t": 65307.62700000005,
      "d": 225.96131250000326,
      "v": 110
    },
    {
      "midi": 57,
      "hit": false,
      "t": 65307.62700000005,
      "d": 225.96131250000326,
      "v": 110
    },
    {
      "midi": 50,
      "hit": false,
      "t": 65538.39600000005,
      "d": 341.3458125000034,
      "v": 110
    },
    {
      "midi": 62,
      "hit": false,
      "t": 65538.39600000005,
      "d": 341.3458125000034,
      "v": 110
    },
    {
      "midi": 65,
      "hit": false,
      "t": 65769.16500000005,
      "d": 225.96131250000326,
      "v": 110
    },
    {
      "midi": 50,
      "hit": false,
      "t": 65884.54950000005,
      "d": 110.57681250000314,
      "v": 110
    },
    {
      "midi": 62,
      "hit": false,
      "t": 65884.54950000005,
      "d": 110.57681250000314,
      "v": 110
    },
    {
      "midi": 69,
      "hit": false,
      "t": 65999.93400000005,
      "d": 225.96131250000326,
      "v": 110
    },
    {
      "midi": 45,
      "hit": false,
      "t": 65999.93400000005,
      "d": 225.96131250000326,
      "v": 110
    },
    {
      "midi": 57,
      "hit": false,
      "t": 65999.93400000005,
      "d": 225.96131250000326,
      "v": 110
    },
    {
      "midi": 74,
      "hit": false,
      "t": 66230.70300000005,
      "d": 225.96131250000326,
      "v": 110
    },
    {
      "midi": 50,
      "hit": false,
      "t": 66230.70300000005,
      "d": 225.96131250000326,
      "v": 110
    },
    {
      "midi": 62,
      "hit": false,
      "t": 66230.70300000005,
      "d": 225.96131250000326,
      "v": 110
    },
    {
      "midi": 41,
      "hit": false,
      "t": 66461.47200000005,
      "d": 225.96131250000326,
      "v": 110
    },
    {
      "midi": 53,
      "hit": false,
      "t": 66461.47200000005,
      "d": 225.96131250000326,
      "v": 110
    },
    {
      "midi": 41,
      "hit": false,
      "t": 66692.24100000005,
      "d": 225.96131250000326,
      "v": 110
    },
    {
      "midi": 53,
      "hit": false,
      "t": 66692.24100000005,
      "d": 225.96131250000326,
      "v": 110
    },
    {
      "midi": 65,
      "hit": false,
      "t": 66923.01000000005,
      "d": 225.96131250000326,
      "v": 110
    },
    {
      "midi": 41,
      "hit": false,
      "t": 66923.01000000005,
      "d": 225.96131250000326,
      "v": 110
    },
    {
      "midi": 53,
      "hit": false,
      "t": 66923.01000000005,
      "d": 225.96131250000326,
      "v": 110
    },
    {
      "midi": 65,
      "hit": false,
      "t": 67153.77900000005,
      "d": 225.96131250000326,
      "v": 110
    },
    {
      "midi": 41,
      "hit": false,
      "t": 67153.77900000005,
      "d": 110.57681250000314,
      "v": 110
    },
    {
      "midi": 53,
      "hit": false,
      "t": 67153.77900000005,
      "d": 110.57681250000314,
      "v": 110
    },
    {
      "midi": 41,
      "hit": false,
      "t": 67269.16350000005,
      "d": 110.57681250000314,
      "v": 110
    },
    {
      "midi": 53,
      "hit": false,
      "t": 67269.16350000005,
      "d": 110.57681250000314,
      "v": 110
    },
    {
      "midi": 60,
      "hit": false,
      "t": 67384.54800000005,
      "d": 225.96131250000326,
      "v": 110
    },
    {
      "midi": 69,
      "hit": false,
      "t": 67384.54800000005,
      "d": 225.96131250000326,
      "v": 110
    },
    {
      "midi": 43,
      "hit": false,
      "t": 67384.54800000005,
      "d": 225.96131250000326,
      "v": 110
    },
    {
      "midi": 55,
      "hit": false,
      "t": 67384.54800000005,
      "d": 225.96131250000326,
      "v": 110
    },
    {
      "midi": 65,
      "hit": false,
      "t": 67615.31700000005,
      "d": 225.96131250000326,
      "v": 110
    },
    {
      "midi": 72,
      "hit": false,
      "t": 67615.31700000005,
      "d": 225.96131250000326,
      "v": 110
    },
    {
      "midi": 43,
      "hit": false,
      "t": 67615.31700000005,
      "d": 225.96131250000326,
      "v": 110
    },
    {
      "midi": 55,
      "hit": false,
      "t": 67615.31700000005,
      "d": 225.96131250000326,
      "v": 110
    },
    {
      "midi": 70,
      "hit": false,
      "t": 67846.08600000005,
      "d": 225.96131250000326,
      "v": 110
    },
    {
      "midi": 72,
      "hit": false,
      "t": 67846.08600000005,
      "d": 225.96131250000326,
      "v": 110
    },
    {
      "midi": 43,
      "hit": false,
      "t": 67846.08600000005,
      "d": 225.96131250000326,
      "v": 110
    },
    {
      "midi": 55,
      "hit": false,
      "t": 67846.08600000005,
      "d": 225.96131250000326,
      "v": 110
    },
    {
      "midi": 72,
      "hit": false,
      "t": 68076.85500000005,
      "d": 225.96131250000326,
      "v": 110
    },
    {
      "midi": 43,
      "hit": false,
      "t": 68076.85500000005,
      "d": 110.57681250000314,
      "v": 110
    },
    {
      "midi": 55,
      "hit": false,
      "t": 68076.85500000005,
      "d": 110.57681250000314,
      "v": 110
    },
    {
      "midi": 43,
      "hit": false,
      "t": 68192.23950000005,
      "d": 110.57681250000314,
      "v": 110
    },
    {
      "midi": 55,
      "hit": false,
      "t": 68192.23950000005,
      "d": 110.57681250000314,
      "v": 110
    },
    {
      "midi": 69,
      "hit": false,
      "t": 68307.62400000005,
      "d": 225.96131250000326,
      "v": 110
    },
    {
      "midi": 77,
      "hit": false,
      "t": 68307.62400000005,
      "d": 225.96131250000326,
      "v": 110
    },
    {
      "midi": 45,
      "hit": false,
      "t": 68307.62400000005,
      "d": 225.96131250000326,
      "v": 110
    },
    {
      "midi": 57,
      "hit": false,
      "t": 68307.62400000005,
      "d": 225.96131250000326,
      "v": 110
    },
    {
      "midi": 72,
      "hit": false,
      "t": 68538.39300000005,
      "d": 225.96131250000326,
      "v": 110
    },
    {
      "midi": 45,
      "hit": false,
      "t": 68538.39300000005,
      "d": 225.96131250000326,
      "v": 110
    },
    {
      "midi": 57,
      "hit": false,
      "t": 68538.39300000005,
      "d": 225.96131250000326,
      "v": 110
    },
    {
      "midi": 76,
      "hit": false,
      "t": 68769.16200000005,
      "d": 225.96131250000326,
      "v": 110
    },
    {
      "midi": 45,
      "hit": false,
      "t": 68769.16200000005,
      "d": 225.96131250000326,
      "v": 110
    },
    {
      "midi": 57,
      "hit": false,
      "t": 68769.16200000005,
      "d": 225.96131250000326,
      "v": 110
    },
    {
      "midi": 69,
      "hit": false,
      "t": 68999.93100000006,
      "d": 225.96131250000326,
      "v": 110
    },
    {
      "midi": 45,
      "hit": false,
      "t": 68999.93100000006,
      "d": 110.57681250000314,
      "v": 110
    },
    {
      "midi": 57,
      "hit": false,
      "t": 68999.93100000006,
      "d": 110.57681250000314,
      "v": 110
    },
    {
      "midi": 45,
      "hit": false,
      "t": 69115.31550000006,
      "d": 110.57681250000314,
      "v": 110
    },
    {
      "midi": 57,
      "hit": false,
      "t": 69115.31550000006,
      "d": 110.57681250000314,
      "v": 110
    },
    {
      "midi": 72,
      "hit": false,
      "t": 69230.70000000006,
      "d": 225.96131250000326,
      "v": 110
    },
    {
      "midi": 74,
      "hit": false,
      "t": 69230.70000000006,
      "d": 225.96131250000326,
      "v": 110
    },
    {
      "midi": 46,
      "hit": false,
      "t": 69230.70000000006,
      "d": 225.96131250000326,
      "v": 110
    },
    {
      "midi": 58,
      "hit": false,
      "t": 69230.70000000006,
      "d": 225.96131250000326,
      "v": 110
    },
    {
      "midi": 70,
      "hit": false,
      "t": 69461.46900000006,
      "d": 225.96131250000326,
      "v": 110
    },
    {
      "midi": 46,
      "hit": false,
      "t": 69461.46900000006,
      "d": 225.96131250000326,
      "v": 110
    },
    {
      "midi": 58,
      "hit": false,
      "t": 69461.46900000006,
      "d": 225.96131250000326,
      "v": 110
    },
    {
      "midi": 76,
      "hit": false,
      "t": 69692.23800000006,
      "d": 225.96131250000326,
      "v": 110
    },
    {
      "midi": 46,
      "hit": false,
      "t": 69692.23800000006,
      "d": 225.96131250000326,
      "v": 110
    },
    {
      "midi": 58,
      "hit": false,
      "t": 69692.23800000006,
      "d": 225.96131250000326,
      "v": 110
    },
    {
      "midi": 72,
      "hit": false,
      "t": 69923.00700000006,
      "d": 225.96131250000326,
      "v": 110
    },
    {
      "midi": 46,
      "hit": false,
      "t": 69923.00700000006,
      "d": 110.57681250000314,
      "v": 110
    },
    {
      "midi": 58,
      "hit": false,
      "t": 69923.00700000006,
      "d": 110.57681250000314,
      "v": 110
    },
    {
      "midi": 46,
      "hit": false,
      "t": 70038.39150000006,
      "d": 110.57681250000314,
      "v": 110
    },
    {
      "midi": 58,
      "hit": false,
      "t": 70038.39150000006,
      "d": 110.57681250000314,
      "v": 110
    },
    {
      "midi": 65,
      "hit": false,
      "t": 70153.77600000006,
      "d": 225.96131250000326,
      "v": 110
    },
    {
      "midi": 74,
      "hit": false,
      "t": 70153.77600000006,
      "d": 225.96131250000326,
      "v": 110
    },
    {
      "midi": 41,
      "hit": false,
      "t": 70153.77600000006,
      "d": 225.96131250000326,
      "v": 110
    },
    {
      "midi": 53,
      "hit": false,
      "t": 70153.77600000006,
      "d": 225.96131250000326,
      "v": 110
    },
    {
      "midi": 72,
      "hit": false,
      "t": 70384.54500000006,
      "d": 110.57681250000314,
      "v": 110
    },
    {
      "midi": 76,
      "hit": false,
      "t": 70384.54500000006,
      "d": 110.57681250000314,
      "v": 110
    },
    {
      "midi": 41,
      "hit": false,
      "t": 70384.54500000006,
      "d": 225.96131250000326,
      "v": 110
    },
    {
      "midi": 53,
      "hit": false,
      "t": 70384.54500000006,
      "d": 225.96131250000326,
      "v": 110
    },
    {
      "midi": 74,
      "hit": false,
      "t": 70499.92950000006,
      "d": 110.57681250000314,
      "v": 110
    },
    {
      "midi": 65,
      "hit": false,
      "t": 70615.31400000006,
      "d": 225.96131250000326,
      "v": 110
    },
    {
      "midi": 72,
      "hit": false,
      "t": 70615.31400000006,
      "d": 225.96131250000326,
      "v": 110
    },
    {
      "midi": 41,
      "hit": false,
      "t": 70615.31400000006,
      "d": 225.96131250000326,
      "v": 110
    },
    {
      "midi": 53,
      "hit": false,
      "t": 70615.31400000006,
      "d": 225.96131250000326,
      "v": 110
    },
    {
      "midi": 69,
      "hit": false,
      "t": 70846.08300000006,
      "d": 225.96131250000326,
      "v": 110
    },
    {
      "midi": 41,
      "hit": false,
      "t": 70846.08300000006,
      "d": 110.57681250000314,
      "v": 110
    },
    {
      "midi": 53,
      "hit": false,
      "t": 70846.08300000006,
      "d": 110.57681250000314,
      "v": 110
    },
    {
      "midi": 41,
      "hit": false,
      "t": 70961.46750000006,
      "d": 110.57681250000314,
      "v": 110
    },
    {
      "midi": 53,
      "hit": false,
      "t": 70961.46750000006,
      "d": 110.57681250000314,
      "v": 110
    },
    {
      "midi": 72,
      "hit": false,
      "t": 71076.85200000006,
      "d": 225.96131250000326,
      "v": 110
    },
    {
      "midi": 43,
      "hit": false,
      "t": 71076.85200000006,
      "d": 225.96131250000326,
      "v": 110
    },
    {
      "midi": 55,
      "hit": false,
      "t": 71076.85200000006,
      "d": 225.96131250000326,
      "v": 110
    },
    {
      "midi": 77,
      "hit": false,
      "t": 71307.62100000006,
      "d": 225.96131250000326,
      "v": 110
    },
    {
      "midi": 43,
      "hit": false,
      "t": 71307.62100000006,
      "d": 225.96131250000326,
      "v": 110
    },
    {
      "midi": 55,
      "hit": false,
      "t": 71307.62100000006,
      "d": 225.96131250000326,
      "v": 110
    },
    {
      "midi": 70,
      "hit": false,
      "t": 71538.39000000006,
      "d": 225.96131250000326,
      "v": 110
    },
    {
      "midi": 43,
      "hit": false,
      "t": 71538.39000000006,
      "d": 225.96131250000326,
      "v": 110
    },
    {
      "midi": 55,
      "hit": false,
      "t": 71538.39000000006,
      "d": 225.96131250000326,
      "v": 110
    },
    {
      "midi": 72,
      "hit": false,
      "t": 71769.15900000006,
      "d": 225.96131250000326,
      "v": 110
    },
    {
      "midi": 43,
      "hit": false,
      "t": 71769.15900000006,
      "d": 110.57681250000314,
      "v": 110
    },
    {
      "midi": 55,
      "hit": false,
      "t": 71769.15900000006,
      "d": 110.57681250000314,
      "v": 110
    },
    {
      "midi": 43,
      "hit": false,
      "t": 71884.54350000006,
      "d": 110.57681250000314,
      "v": 110
    },
    {
      "midi": 55,
      "hit": false,
      "t": 71884.54350000006,
      "d": 110.57681250000314,
      "v": 110
    },
    {
      "midi": 77,
      "hit": false,
      "t": 71999.92800000006,
      "d": 225.96131250000326,
      "v": 110
    },
    {
      "midi": 86,
      "hit": false,
      "t": 71999.92800000006,
      "d": 225.96131250000326,
      "v": 110
    },
    {
      "midi": 45,
      "hit": false,
      "t": 71999.92800000006,
      "d": 225.96131250000326,
      "v": 110
    },
    {
      "midi": 57,
      "hit": false,
      "t": 71999.92800000006,
      "d": 225.96131250000326,
      "v": 110
    },
    {
      "midi": 76,
      "hit": false,
      "t": 72230.69700000006,
      "d": 225.96131250000326,
      "v": 110
    },
    {
      "midi": 84,
      "hit": false,
      "t": 72230.69700000006,
      "d": 225.96131250000326,
      "v": 110
    },
    {
      "midi": 45,
      "hit": false,
      "t": 72230.69700000006,
      "d": 225.96131250000326,
      "v": 110
    },
    {
      "midi": 57,
      "hit": false,
      "t": 72230.69700000006,
      "d": 225.96131250000326,
      "v": 110
    },
    {
      "midi": 76,
      "hit": false,
      "t": 72461.46600000006,
      "d": 225.96131250000326,
      "v": 110
    },
    {
      "midi": 84,
      "hit": false,
      "t": 72461.46600000006,
      "d": 225.96131250000326,
      "v": 110
    },
    {
      "midi": 45,
      "hit": false,
      "t": 72461.46600000006,
      "d": 225.96131250000326,
      "v": 110
    },
    {
      "midi": 57,
      "hit": false,
      "t": 72461.46600000006,
      "d": 225.96131250000326,
      "v": 110
    },
    {
      "midi": 72,
      "hit": false,
      "t": 72692.23500000006,
      "d": 225.96131250000326,
      "v": 110
    },
    {
      "midi": 81,
      "hit": false,
      "t": 72692.23500000006,
      "d": 225.96131250000326,
      "v": 110
    },
    {
      "midi": 45,
      "hit": false,
      "t": 72692.23500000006,
      "d": 110.57681250000314,
      "v": 110
    },
    {
      "midi": 57,
      "hit": false,
      "t": 72692.23500000006,
      "d": 110.57681250000314,
      "v": 110
    },
    {
      "midi": 45,
      "hit": false,
      "t": 72807.61950000006,
      "d": 110.57681250000314,
      "v": 110
    },
    {
      "midi": 57,
      "hit": false,
      "t": 72807.61950000006,
      "d": 110.57681250000314,
      "v": 110
    },
    {
      "midi": 77,
      "hit": false,
      "t": 72923.00400000006,
      "d": 384.61500000000524,
      "v": 110
    },
    {
      "midi": 86,
      "hit": false,
      "t": 72923.00400000006,
      "d": 384.61500000000524,
      "v": 110
    },
    {
      "midi": 46,
      "hit": false,
      "t": 72923.00400000006,
      "d": 225.96131250000326,
      "v": 110
    },
    {
      "midi": 58,
      "hit": false,
      "t": 72923.00400000006,
      "d": 225.96131250000326,
      "v": 110
    },
    {
      "midi": 46,
      "hit": false,
      "t": 73153.77300000006,
      "d": 225.96131250000326,
      "v": 110
    },
    {
      "midi": 58,
      "hit": false,
      "t": 73153.77300000006,
      "d": 225.96131250000326,
      "v": 110
    },
    {
      "midi": 77,
      "hit": false,
      "t": 73384.54200000006,
      "d": 384.61500000000524,
      "v": 110
    },
    {
      "midi": 84,
      "hit": false,
      "t": 73384.54200000006,
      "d": 384.61500000000524,
      "v": 110
    },
    {
      "midi": 46,
      "hit": false,
      "t": 73384.54200000006,
      "d": 225.96131250000326,
      "v": 110
    },
    {
      "midi": 58,
      "hit": false,
      "t": 73384.54200000006,
      "d": 225.96131250000326,
      "v": 110
    },
    {
      "midi": 46,
      "hit": false,
      "t": 73615.31100000006,
      "d": 110.57681250000314,
      "v": 110
    },
    {
      "midi": 58,
      "hit": false,
      "t": 73615.31100000006,
      "d": 110.57681250000314,
      "v": 110
    },
    {
      "midi": 46,
      "hit": false,
      "t": 73730.69550000006,
      "d": 110.57681250000314,
      "v": 110
    },
    {
      "midi": 58,
      "hit": false,
      "t": 73730.69550000006,
      "d": 110.57681250000314,
      "v": 110
    },
    {
      "midi": 41,
      "hit": false,
      "t": 73846.08000000006,
      "d": 225.96131250000326,
      "v": 110
    },
    {
      "midi": 53,
      "hit": false,
      "t": 73846.08000000006,
      "d": 225.96131250000326,
      "v": 110
    },
    {
      "midi": 41,
      "hit": false,
      "t": 74076.84900000006,
      "d": 225.96131250000326,
      "v": 110
    },
    {
      "midi": 53,
      "hit": false,
      "t": 74076.84900000006,
      "d": 225.96131250000326,
      "v": 110
    },
    {
      "midi": 65,
      "hit": false,
      "t": 74307.61800000006,
      "d": 225.96131250000326,
      "v": 110
    },
    {
      "midi": 41,
      "hit": false,
      "t": 74307.61800000006,
      "d": 225.96131250000326,
      "v": 110
    },
    {
      "midi": 53,
      "hit": false,
      "t": 74307.61800000006,
      "d": 225.96131250000326,
      "v": 110
    },
    {
      "midi": 65,
      "hit": false,
      "t": 74538.38700000006,
      "d": 225.96131250000326,
      "v": 110
    },
    {
      "midi": 41,
      "hit": false,
      "t": 74538.38700000006,
      "d": 110.57681250000314,
      "v": 110
    },
    {
      "midi": 53,
      "hit": false,
      "t": 74538.38700000006,
      "d": 110.57681250000314,
      "v": 110
    },
    {
      "midi": 41,
      "hit": false,
      "t": 74653.77150000006,
      "d": 110.57681250000314,
      "v": 110
    },
    {
      "midi": 53,
      "hit": false,
      "t": 74653.77150000006,
      "d": 110.57681250000314,
      "v": 110
    },
    {
      "midi": 60,
      "hit": false,
      "t": 74769.15600000006,
      "d": 225.96131250000326,
      "v": 110
    },
    {
      "midi": 69,
      "hit": false,
      "t": 74769.15600000006,
      "d": 225.96131250000326,
      "v": 110
    },
    {
      "midi": 43,
      "hit": false,
      "t": 74769.15600000006,
      "d": 225.96131250000326,
      "v": 110
    },
    {
      "midi": 55,
      "hit": false,
      "t": 74769.15600000006,
      "d": 225.96131250000326,
      "v": 110
    },
    {
      "midi": 65,
      "hit": false,
      "t": 74999.92500000006,
      "d": 225.96131250000326,
      "v": 110
    },
    {
      "midi": 72,
      "hit": false,
      "t": 74999.92500000006,
      "d": 225.96131250000326,
      "v": 110
    },
    {
      "midi": 43,
      "hit": false,
      "t": 74999.92500000006,
      "d": 225.96131250000326,
      "v": 110
    },
    {
      "midi": 55,
      "hit": false,
      "t": 74999.92500000006,
      "d": 225.96131250000326,
      "v": 110
    },
    {
      "midi": 70,
      "hit": false,
      "t": 75230.69400000006,
      "d": 225.96131250000326,
      "v": 110
    },
    {
      "midi": 72,
      "hit": false,
      "t": 75230.69400000006,
      "d": 225.96131250000326,
      "v": 110
    },
    {
      "midi": 43,
      "hit": false,
      "t": 75230.69400000006,
      "d": 225.96131250000326,
      "v": 110
    },
    {
      "midi": 55,
      "hit": false,
      "t": 75230.69400000006,
      "d": 225.96131250000326,
      "v": 110
    },
    {
      "midi": 72,
      "hit": false,
      "t": 75461.46300000006,
      "d": 225.96131250000326,
      "v": 110
    },
    {
      "midi": 43,
      "hit": false,
      "t": 75461.46300000006,
      "d": 110.57681250000314,
      "v": 110
    },
    {
      "midi": 55,
      "hit": false,
      "t": 75461.46300000006,
      "d": 110.57681250000314,
      "v": 110
    },
    {
      "midi": 43,
      "hit": false,
      "t": 75576.84750000006,
      "d": 110.57681250000314,
      "v": 110
    },
    {
      "midi": 55,
      "hit": false,
      "t": 75576.84750000006,
      "d": 110.57681250000314,
      "v": 110
    },
    {
      "midi": 69,
      "hit": false,
      "t": 75692.23200000006,
      "d": 225.96131250000326,
      "v": 110
    },
    {
      "midi": 77,
      "hit": false,
      "t": 75692.23200000006,
      "d": 225.96131250000326,
      "v": 110
    },
    {
      "midi": 45,
      "hit": false,
      "t": 75692.23200000006,
      "d": 225.96131250000326,
      "v": 110
    },
    {
      "midi": 57,
      "hit": false,
      "t": 75692.23200000006,
      "d": 225.96131250000326,
      "v": 110
    },
    {
      "midi": 72,
      "hit": false,
      "t": 75923.00100000006,
      "d": 225.96131250000326,
      "v": 110
    },
    {
      "midi": 45,
      "hit": false,
      "t": 75923.00100000006,
      "d": 225.96131250000326,
      "v": 110
    },
    {
      "midi": 57,
      "hit": false,
      "t": 75923.00100000006,
      "d": 225.96131250000326,
      "v": 110
    },
    {
      "midi": 76,
      "hit": false,
      "t": 76153.77000000006,
      "d": 225.96131250000326,
      "v": 110
    },
    {
      "midi": 45,
      "hit": false,
      "t": 76153.77000000006,
      "d": 225.96131250000326,
      "v": 110
    },
    {
      "midi": 57,
      "hit": false,
      "t": 76153.77000000006,
      "d": 225.96131250000326,
      "v": 110
    },
    {
      "midi": 69,
      "hit": false,
      "t": 76384.53900000006,
      "d": 225.96131250000326,
      "v": 110
    },
    {
      "midi": 45,
      "hit": false,
      "t": 76384.53900000006,
      "d": 110.57681250000314,
      "v": 110
    },
    {
      "midi": 57,
      "hit": false,
      "t": 76384.53900000006,
      "d": 110.57681250000314,
      "v": 110
    },
    {
      "midi": 45,
      "hit": false,
      "t": 76499.92350000006,
      "d": 110.57681250000314,
      "v": 110
    },
    {
      "midi": 57,
      "hit": false,
      "t": 76499.92350000006,
      "d": 110.57681250000314,
      "v": 110
    },
    {
      "midi": 72,
      "hit": false,
      "t": 76615.30800000006,
      "d": 225.96131250000326,
      "v": 110
    },
    {
      "midi": 74,
      "hit": false,
      "t": 76615.30800000006,
      "d": 225.96131250000326,
      "v": 110
    },
    {
      "midi": 46,
      "hit": false,
      "t": 76615.30800000006,
      "d": 225.96131250000326,
      "v": 110
    },
    {
      "midi": 58,
      "hit": false,
      "t": 76615.30800000006,
      "d": 225.96131250000326,
      "v": 110
    },
    {
      "midi": 70,
      "hit": false,
      "t": 76846.07700000006,
      "d": 225.96131250000326,
      "v": 110
    },
    {
      "midi": 46,
      "hit": false,
      "t": 76846.07700000006,
      "d": 225.96131250000326,
      "v": 110
    },
    {
      "midi": 58,
      "hit": false,
      "t": 76846.07700000006,
      "d": 225.96131250000326,
      "v": 110
    },
    {
      "midi": 76,
      "hit": false,
      "t": 77076.84600000006,
      "d": 225.96131250000326,
      "v": 110
    },
    {
      "midi": 46,
      "hit": false,
      "t": 77076.84600000006,
      "d": 225.96131250000326,
      "v": 110
    },
    {
      "midi": 58,
      "hit": false,
      "t": 77076.84600000006,
      "d": 225.96131250000326,
      "v": 110
    },
    {
      "midi": 72,
      "hit": false,
      "t": 77307.61500000006,
      "d": 225.96131250000326,
      "v": 110
    },
    {
      "midi": 46,
      "hit": false,
      "t": 77307.61500000006,
      "d": 110.57681250000314,
      "v": 110
    },
    {
      "midi": 58,
      "hit": false,
      "t": 77307.61500000006,
      "d": 110.57681250000314,
      "v": 110
    },
    {
      "midi": 46,
      "hit": false,
      "t": 77422.99950000006,
      "d": 110.57681250000314,
      "v": 110
    },
    {
      "midi": 58,
      "hit": false,
      "t": 77422.99950000006,
      "d": 110.57681250000314,
      "v": 110
    },
    {
      "midi": 74,
      "hit": false,
      "t": 77538.38400000006,
      "d": 225.96131250000326,
      "v": 110
    },
    {
      "midi": 45,
      "hit": false,
      "t": 77538.38400000006,
      "d": 225.96131250000326,
      "v": 110
    },
    {
      "midi": 57,
      "hit": false,
      "t": 77538.38400000006,
      "d": 225.96131250000326,
      "v": 110
    },
    {
      "midi": 72,
      "hit": false,
      "t": 77769.15300000006,
      "d": 110.57681250000314,
      "v": 110
    },
    {
      "midi": 76,
      "hit": false,
      "t": 77769.15300000006,
      "d": 110.57681250000314,
      "v": 110
    },
    {
      "midi": 45,
      "hit": false,
      "t": 77769.15300000006,
      "d": 225.96131250000326,
      "v": 110
    },
    {
      "midi": 57,
      "hit": false,
      "t": 77769.15300000006,
      "d": 225.96131250000326,
      "v": 110
    },
    {
      "midi": 74,
      "hit": false,
      "t": 77884.53750000006,
      "d": 110.57681250000314,
      "v": 110
    },
    {
      "midi": 72,
      "hit": false,
      "t": 77999.92200000006,
      "d": 225.96131250000326,
      "v": 110
    },
    {
      "midi": 45,
      "hit": false,
      "t": 77999.92200000006,
      "d": 225.96131250000326,
      "v": 110
    },
    {
      "midi": 57,
      "hit": false,
      "t": 77999.92200000006,
      "d": 225.96131250000326,
      "v": 110
    },
    {
      "midi": 69,
      "hit": false,
      "t": 78230.69100000006,
      "d": 225.96131250000326,
      "v": 110
    },
    {
      "midi": 45,
      "hit": false,
      "t": 78230.69100000006,
      "d": 110.57681250000314,
      "v": 110
    },
    {
      "midi": 57,
      "hit": false,
      "t": 78230.69100000006,
      "d": 110.57681250000314,
      "v": 110
    },
    {
      "midi": 45,
      "hit": false,
      "t": 78346.07550000006,
      "d": 110.57681250000314,
      "v": 110
    },
    {
      "midi": 57,
      "hit": false,
      "t": 78346.07550000006,
      "d": 110.57681250000314,
      "v": 110
    },
    {
      "midi": 72,
      "hit": false,
      "t": 78461.46000000006,
      "d": 225.96131250000326,
      "v": 110
    },
    {
      "midi": 45,
      "hit": false,
      "t": 78461.46000000006,
      "d": 225.96131250000326,
      "v": 110
    },
    {
      "midi": 57,
      "hit": false,
      "t": 78461.46000000006,
      "d": 225.96131250000326,
      "v": 110
    },
    {
      "midi": 76,
      "hit": false,
      "t": 78692.22900000006,
      "d": 225.96131250000326,
      "v": 110
    },
    {
      "midi": 45,
      "hit": false,
      "t": 78692.22900000006,
      "d": 225.96131250000326,
      "v": 110
    },
    {
      "midi": 57,
      "hit": false,
      "t": 78692.22900000006,
      "d": 225.96131250000326,
      "v": 110
    },
    {
      "midi": 69,
      "hit": false,
      "t": 78922.99800000007,
      "d": 225.96131250000326,
      "v": 110
    },
    {
      "midi": 45,
      "hit": false,
      "t": 78922.99800000007,
      "d": 225.96131250000326,
      "v": 110
    },
    {
      "midi": 57,
      "hit": false,
      "t": 78922.99800000007,
      "d": 225.96131250000326,
      "v": 110
    },
    {
      "midi": 72,
      "hit": false,
      "t": 79153.76700000007,
      "d": 225.96131250000326,
      "v": 110
    },
    {
      "midi": 45,
      "hit": false,
      "t": 79153.76700000007,
      "d": 110.57681250000314,
      "v": 110
    },
    {
      "midi": 57,
      "hit": false,
      "t": 79153.76700000007,
      "d": 110.57681250000314,
      "v": 110
    },
    {
      "midi": 45,
      "hit": false,
      "t": 79269.15150000007,
      "d": 110.57681250000314,
      "v": 110
    },
    {
      "midi": 57,
      "hit": false,
      "t": 79269.15150000007,
      "d": 110.57681250000314,
      "v": 110
    },
    {
      "midi": 77,
      "hit": false,
      "t": 79384.53600000007,
      "d": 225.96131250000326,
      "v": 110
    },
    {
      "midi": 86,
      "hit": false,
      "t": 79384.53600000007,
      "d": 225.96131250000326,
      "v": 110
    },
    {
      "midi": 45,
      "hit": false,
      "t": 79384.53600000007,
      "d": 225.96131250000326,
      "v": 110
    },
    {
      "midi": 57,
      "hit": false,
      "t": 79384.53600000007,
      "d": 225.96131250000326,
      "v": 110
    },
    {
      "midi": 76,
      "hit": false,
      "t": 79615.30500000007,
      "d": 225.96131250000326,
      "v": 110
    },
    {
      "midi": 84,
      "hit": false,
      "t": 79615.30500000007,
      "d": 225.96131250000326,
      "v": 110
    },
    {
      "midi": 45,
      "hit": false,
      "t": 79615.30500000007,
      "d": 225.96131250000326,
      "v": 110
    },
    {
      "midi": 57,
      "hit": false,
      "t": 79615.30500000007,
      "d": 225.96131250000326,
      "v": 110
    },
    {
      "midi": 76,
      "hit": false,
      "t": 79846.07400000007,
      "d": 225.96131250000326,
      "v": 110
    },
    {
      "midi": 84,
      "hit": false,
      "t": 79846.07400000007,
      "d": 225.96131250000326,
      "v": 110
    },
    {
      "midi": 45,
      "hit": false,
      "t": 79846.07400000007,
      "d": 225.96131250000326,
      "v": 110
    },
    {
      "midi": 57,
      "hit": false,
      "t": 79846.07400000007,
      "d": 225.96131250000326,
      "v": 110
    },
    {
      "midi": 72,
      "hit": false,
      "t": 80076.84300000007,
      "d": 225.96131250000326,
      "v": 110
    },
    {
      "midi": 81,
      "hit": false,
      "t": 80076.84300000007,
      "d": 225.96131250000326,
      "v": 110
    },
    {
      "midi": 45,
      "hit": false,
      "t": 80076.84300000007,
      "d": 110.57681250000314,
      "v": 110
    },
    {
      "midi": 57,
      "hit": false,
      "t": 80076.84300000007,
      "d": 110.57681250000314,
      "v": 110
    },
    {
      "midi": 45,
      "hit": false,
      "t": 80192.22750000007,
      "d": 110.57681250000314,
      "v": 110
    },
    {
      "midi": 57,
      "hit": false,
      "t": 80192.22750000007,
      "d": 110.57681250000314,
      "v": 110
    },
    {
      "midi": 77,
      "hit": false,
      "t": 80307.61200000007,
      "d": 384.61500000000524,
      "v": 110
    },
    {
      "midi": 86,
      "hit": false,
      "t": 80307.61200000007,
      "d": 384.61500000000524,
      "v": 110
    },
    {
      "midi": 45,
      "hit": false,
      "t": 80307.61200000007,
      "d": 225.96131250000326,
      "v": 110
    },
    {
      "midi": 57,
      "hit": false,
      "t": 80307.61200000007,
      "d": 225.96131250000326,
      "v": 110
    },
    {
      "midi": 45,
      "hit": false,
      "t": 80538.38100000007,
      "d": 225.96131250000326,
      "v": 110
    },
    {
      "midi": 57,
      "hit": false,
      "t": 80538.38100000007,
      "d": 225.96131250000326,
      "v": 110
    },
    {
      "midi": 76,
      "hit": false,
      "t": 80769.15000000007,
      "d": 384.61500000000524,
      "v": 110
    },
    {
      "midi": 84,
      "hit": false,
      "t": 80769.15000000007,
      "d": 384.61500000000524,
      "v": 110
    },
    {
      "midi": 45,
      "hit": false,
      "t": 80769.15000000007,
      "d": 225.96131250000326,
      "v": 110
    },
    {
      "midi": 57,
      "hit": false,
      "t": 80769.15000000007,
      "d": 225.96131250000326,
      "v": 110
    },
    {
      "midi": 45,
      "hit": false,
      "t": 80999.91900000007,
      "d": 110.57681250000314,
      "v": 110
    },
    {
      "midi": 57,
      "hit": false,
      "t": 80999.91900000007,
      "d": 110.57681250000314,
      "v": 110
    },
    {
      "midi": 45,
      "hit": false,
      "t": 81115.30350000007,
      "d": 110.57681250000314,
      "v": 110
    },
    {
      "midi": 57,
      "hit": false,
      "t": 81115.30350000007,
      "d": 110.57681250000314,
      "v": 110
    },
    {
      "midi": 65,
      "hit": false,
      "t": 81230.68800000007,
      "d": 384.61500000000524,
      "v": 110
    },
    {
      "midi": 74,
      "hit": false,
      "t": 81230.68800000007,
      "d": 384.61500000000524,
      "v": 110
    },
    {
      "midi": 46,
      "hit": false,
      "t": 81230.68800000007,
      "d": 384.61500000000524,
      "v": 110
    },
    {
      "midi": 58,
      "hit": false,
      "t": 81230.68800000007,
      "d": 384.61500000000524,
      "v": 110
    },
    {
      "midi": 62,
      "hit": false,
      "t": 81692.22600000007,
      "d": 384.61500000000524,
      "v": 110
    },
    {
      "midi": 65,
      "hit": false,
      "t": 81692.22600000007,
      "d": 384.61500000000524,
      "v": 110
    },
    {
      "midi": 50,
      "hit": false,
      "t": 81692.22600000007,
      "d": 225.96131250000326,
      "v": 110
    },
    {
      "midi": 62,
      "hit": false,
      "t": 81692.22600000007,
      "d": 225.96131250000326,
      "v": 110
    },
    {
      "midi": 46,
      "hit": false,
      "t": 81922.99500000007,
      "d": 225.96131250000326,
      "v": 110
    },
    {
      "midi": 58,
      "hit": false,
      "t": 81922.99500000007,
      "d": 225.96131250000326,
      "v": 110
    },
    {
      "midi": 64,
      "hit": false,
      "t": 82153.76400000007,
      "d": 384.61500000000524,
      "v": 110
    },
    {
      "midi": 67,
      "hit": false,
      "t": 82153.76400000007,
      "d": 384.61500000000524,
      "v": 110
    },
    {
      "midi": 48,
      "hit": false,
      "t": 82153.76400000007,
      "d": 384.61500000000524,
      "v": 110
    },
    {
      "midi": 60,
      "hit": false,
      "t": 82153.76400000007,
      "d": 384.61500000000524,
      "v": 110
    },
    {
      "midi": 64,
      "hit": false,
      "t": 82615.30200000007,
      "d": 225.96131250000326,
      "v": 110
    },
    {
      "midi": 72,
      "hit": false,
      "t": 82615.30200000007,
      "d": 225.96131250000326,
      "v": 110
    },
    {
      "midi": 40,
      "hit": false,
      "t": 82615.30200000007,
      "d": 225.96131250000326,
      "v": 110
    },
    {
      "midi": 52,
      "hit": false,
      "t": 82615.30200000007,
      "d": 225.96131250000326,
      "v": 110
    },
    {
      "midi": 64,
      "hit": false,
      "t": 82846.07100000007,
      "d": 225.96131250000326,
      "v": 110
    },
    {
      "midi": 70,
      "hit": false,
      "t": 82846.07100000007,
      "d": 225.96131250000326,
      "v": 110
    },
    {
      "midi": 43,
      "hit": false,
      "t": 82846.07100000007,
      "d": 225.96131250000326,
      "v": 110
    },
    {
      "midi": 65,
      "hit": false,
      "t": 83076.84000000007,
      "d": 384.61500000000524,
      "v": 110
    },
    {
      "midi": 69,
      "hit": false,
      "t": 83076.84000000007,
      "d": 384.61500000000524,
      "v": 110
    },
    {
      "midi": 41,
      "hit": false,
      "t": 83076.84000000007,
      "d": 615.3840000000055,
      "v": 110
    },
    {
      "midi": 53,
      "hit": false,
      "t": 83076.84000000007,
      "d": 615.3840000000055,
      "v": 110
    },
    {
      "midi": 60,
      "hit": false,
      "t": 83538.37800000007,
      "d": 384.61500000000524,
      "v": 110
    },
    {
      "midi": 65,
      "hit": false,
      "t": 83538.37800000007,
      "d": 384.61500000000524,
      "v": 110
    },
    {
      "midi": 41,
      "hit": false,
      "t": 83769.14700000007,
      "d": 225.96131250000326,
      "v": 110
    },
    {
      "midi": 53,
      "hit": false,
      "t": 83769.14700000007,
      "d": 225.96131250000326,
      "v": 110
    },
    {
      "midi": 57,
      "hit": false,
      "t": 83999.91600000007,
      "d": 807.6915000000008,
      "v": 110
    },
    {
      "midi": 60,
      "hit": false,
      "t": 83999.91600000007,
      "d": 807.6915000000008,
      "v": 110
    },
    {
      "midi": 41,
      "hit": false,
      "t": 83999.91600000007,
      "d": 225.96131250000326,
      "v": 110
    },
    {
      "midi": 53,
      "hit": false,
      "t": 83999.91600000007,
      "d": 225.96131250000326,
      "v": 110
    },
    {
      "midi": 41,
      "hit": false,
      "t": 84230.68500000007,
      "d": 225.96131250000326,
      "v": 110
    },
    {
      "midi": 53,
      "hit": false,
      "t": 84230.68500000007,
      "d": 225.96131250000326,
      "v": 110
    },
    {
      "midi": 44,
      "hit": false,
      "t": 84461.45400000007,
      "d": 225.96131250000326,
      "v": 110
    },
    {
      "midi": 56,
      "hit": false,
      "t": 84461.45400000007,
      "d": 225.96131250000326,
      "v": 110
    },
    {
      "midi": 45,
      "hit": false,
      "t": 84692.22300000007,
      "d": 225.96131250000326,
      "v": 110
    },
    {
      "midi": 57,
      "hit": false,
      "t": 84692.22300000007,
      "d": 225.96131250000326,
      "v": 110
    },
    {
      "midi": 65,
      "hit": false,
      "t": 84922.99200000007,
      "d": 225.96131250000326,
      "v": 110
    },
    {
      "midi": 74,
      "hit": false,
      "t": 84922.99200000007,
      "d": 225.96131250000326,
      "v": 110
    },
    {
      "midi": 46,
      "hit": false,
      "t": 84922.99200000007,
      "d": 384.61500000000524,
      "v": 110
    },
    {
      "midi": 58,
      "hit": false,
      "t": 84922.99200000007,
      "d": 384.61500000000524,
      "v": 110
    },
    {
      "midi": 64,
      "hit": false,
      "t": 85153.76100000007,
      "d": 225.96131250000326,
      "v": 110
    },
    {
      "midi": 72,
      "hit": false,
      "t": 85153.76100000007,
      "d": 225.96131250000326,
      "v": 110
    },
    {
      "midi": 62,
      "hit": false,
      "t": 85384.53000000007,
      "d": 225.96131250000326,
      "v": 110
    },
    {
      "midi": 70,
      "hit": false,
      "t": 85384.53000000007,
      "d": 225.96131250000326,
      "v": 110
    },
    {
      "midi": 50,
      "hit": false,
      "t": 85384.53000000007,
      "d": 225.96131250000326,
      "v": 110
    },
    {
      "midi": 62,
      "hit": false,
      "t": 85384.53000000007,
      "d": 225.96131250000326,
      "v": 110
    },
    {
      "midi": 60,
      "hit": false,
      "t": 85615.29900000007,
      "d": 225.96131250000326,
      "v": 110
    },
    {
      "midi": 69,
      "hit": false,
      "t": 85615.29900000007,
      "d": 225.96131250000326,
      "v": 110
    },
    {
      "midi": 46,
      "hit": false,
      "t": 85615.29900000007,
      "d": 225.96131250000326,
      "v": 110
    },
    {
      "midi": 58,
      "hit": false,
      "t": 85615.29900000007,
      "d": 225.96131250000326,
      "v": 110
    },
    {
      "midi": 64,
      "hit": false,
      "t": 85846.06800000007,
      "d": 384.61500000000524,
      "v": 110
    },
    {
      "midi": 67,
      "hit": false,
      "t": 85846.06800000007,
      "d": 384.61500000000524,
      "v": 110
    },
    {
      "midi": 48,
      "hit": false,
      "t": 85846.06800000007,
      "d": 384.61500000000524,
      "v": 110
    },
    {
      "midi": 60,
      "hit": false,
      "t": 85846.06800000007,
      "d": 384.61500000000524,
      "v": 110
    },
    {
      "midi": 55,
      "hit": false,
      "t": 86307.60600000007,
      "d": 225.96131250000326,
      "v": 110
    },
    {
      "midi": 65,
      "hit": false,
      "t": 86307.60600000007,
      "d": 225.96131250000326,
      "v": 110
    },
    {
      "midi": 43,
      "hit": false,
      "t": 86307.60600000007,
      "d": 225.96131250000326,
      "v": 110
    },
    {
      "midi": 55,
      "hit": false,
      "t": 86307.60600000007,
      "d": 225.96131250000326,
      "v": 110
    },
    {
      "midi": 55,
      "hit": false,
      "t": 86538.37500000007,
      "d": 225.96131250000326,
      "v": 110
    },
    {
      "midi": 64,
      "hit": false,
      "t": 86538.37500000007,
      "d": 225.96131250000326,
      "v": 110
    },
    {
      "midi": 36,
      "hit": false,
      "t": 86538.37500000007,
      "d": 225.96131250000326,
      "v": 110
    },
    {
      "midi": 48,
      "hit": false,
      "t": 86538.37500000007,
      "d": 225.96131250000326,
      "v": 110
    },
    {
      "midi": 57,
      "hit": false,
      "t": 86769.14400000007,
      "d": 1269.2295000000013,
      "v": 110
    },
    {
      "midi": 65,
      "hit": false,
      "t": 86769.14400000007,
      "d": 1269.2295000000013,
      "v": 110
    },
    {
      "midi": 41,
      "hit": false,
      "t": 86769.14400000007,
      "d": 1269.2295000000013,
      "v": 110
    },
    {
      "midi": 53,
      "hit": false,
      "t": 86769.14400000007,
      "d": 1269.2295000000013,
      "v": 110
    }
  ]
}