{
  "jsonPath": "Soundtracks/Video Game Music/Mother 3/mother-youngtown.json",
  "path": "Soundtracks\\Video Game Music\\Mother 3\\Mother_Youngtown.mid",
  "name": "Mother_Youngtown",
  "difficulty": "Advanced",
  "bpm": 120,
  "notes": [
    {
      "midi": 73,
      "hit": false,
      "t": 0,
      "d": 83.33333333333333,
      "v": 110
    },
    {
      "midi": 80,
      "hit": false,
      "t": 0,
      "d": 83.33333333333333,
      "v": 110
    },
    {
      "midi": 85,
      "hit": false,
      "t": 250,
      "d": 83.33333333333331,
      "v": 110
    },
    {
      "midi": 73,
      "hit": false,
      "t": 500,
      "d": 83.33333333333337,
      "v": 110
    },
    {
      "midi": 75,
      "hit": false,
      "t": 500,
      "d": 83.33333333333337,
      "v": 110
    },
    {
      "midi": 83,
      "hit": false,
      "t": 500,
      "d": 83.33333333333337,
      "v": 110
    },
    {
      "midi": 76,
      "hit": false,
      "t": 750,
      "d": 83.33333333333337,
      "v": 110
    },
    {
      "midi": 85,
      "hit": false,
      "t": 750,
      "d": 83.33333333333337,
      "v": 110
    },
    {
      "midi": 74,
      "hit": false,
      "t": 1000,
      "d": 83.33333333333326,
      "v": 110
    },
    {
      "midi": 78,
      "hit": false,
      "t": 1000,
      "d": 83.33333333333326,
      "v": 110
    },
    {
      "midi": 81,
      "hit": false,
      "t": 1000,
      "d": 83.33333333333326,
      "v": 110
    },
    {
      "midi": 83,
      "hit": false,
      "t": 1250,
      "d": 83.33333333333326,
      "v": 110
    },
    {
      "midi": 71,
      "hit": false,
      "t": 1500,
      "d": 83.33333333333326,
      "v": 110
    },
    {
      "midi": 78,
      "hit": false,
      "t": 1500,
      "d": 83.33333333333326,
      "v": 110
    },
    {
      "midi": 83,
      "hit": false,
      "t": 1750,
      "d": 83.33333333333326,
      "v": 110
    },
    {
      "midi": 69,
      "hit": false,
      "t": 2000,
      "d": 83.33333333333348,
      "v": 110
    },
    {
      "midi": 76,
      "hit": false,
      "t": 2000,
      "d": 83.33333333333348,
      "v": 110
    },
    {
      "midi": 81,
      "hit": false,
      "t": 2250,
      "d": 83.33333333333348,
      "v": 110
    },
    {
      "midi": 71,
      "hit": false,
      "t": 2500,
      "d": 83.33333333333348,
      "v": 110
    },
    {
      "midi": 78,
      "hit": false,
      "t": 2500,
      "d": 83.33333333333348,
      "v": 110
    },
    {
      "midi": 72,
      "hit": false,
      "t": 2750,
      "d": 83.33333333333348,
      "v": 110
    },
    {
      "midi": 79,
      "hit": false,
      "t": 2750,
      "d": 83.33333333333348,
      "v": 110
    },
    {
      "midi": 71,
      "hit": false,
      "t": 3000,
      "d": 83.33333333333348,
      "v": 110
    },
    {
      "midi": 75,
      "hit": false,
      "t": 3000,
      "d": 83.33333333333348,
      "v": 110
    },
    {
      "midi": 78,
      "hit": false,
      "t": 3000,
      "d": 83.33333333333348,
      "v": 110
    },
    {
      "midi": 80,
      "hit": false,
      "t": 3250,
      "d": 83.33333333333348,
      "v": 110
    },
    {
      "midi": 68,
      "hit": false,
      "t": 3500,
      "d": 125,
      "v": 110
    },
    {
      "midi": 75,
      "hit": false,
      "t": 3500,
      "d": 125,
      "v": 110
    },
    {
      "midi": 73,
      "hit": false,
      "t": 4000,
      "d": 83.33333333333348,
      "v": 110
    },
    {
      "midi": 80,
      "hit": false,
      "t": 4000,
      "d": 83.33333333333348,
      "v": 110
    },
    {
      "midi": 85,
      "hit": false,
      "t": 4250,
      "d": 83.33333333333303,
      "v": 110
    },
    {
      "midi": 73,
      "hit": false,
      "t": 4500,
      "d": 83.33333333333303,
      "v": 110
    },
    {
      "midi": 75,
      "hit": false,
      "t": 4500,
      "d": 83.33333333333303,
      "v": 110
    },
    {
      "midi": 83,
      "hit": false,
      "t": 4500,
      "d": 83.33333333333303,
      "v": 110
    },
    {
      "midi": 76,
      "hit": false,
      "t": 4750,
      "d": 83.33333333333303,
      "v": 110
    },
    {
      "midi": 85,
      "hit": false,
      "t": 4750,
      "d": 83.33333333333303,
      "v": 110
    },
    {
      "midi": 74,
      "hit": false,
      "t": 5000,
      "d": 83.33333333333303,
      "v": 110
    },
    {
      "midi": 78,
      "hit": false,
      "t": 5000,
      "d": 83.33333333333303,
      "v": 110
    },
    {
      "midi": 81,
      "hit": false,
      "t": 5000,
      "d": 83.33333333333303,
      "v": 110
    },
    {
      "midi": 83,
      "hit": false,
      "t": 5250,
      "d": 83.33333333333303,
      "v": 110
    },
    {
      "midi": 71,
      "hit": false,
      "t": 5500,
      "d": 83.33333333333303,
      "v": 110
    },
    {
      "midi": 78,
      "hit": false,
      "t": 5500,
      "d": 83.33333333333303,
      "v": 110
    },
    {
      "midi": 83,
      "hit": false,
      "t": 5750,
      "d": 83.33333333333303,
      "v": 110
    },
    {
      "midi": 69,
      "hit": false,
      "t": 6000,
      "d": 83.33333333333303,
      "v": 110
    },
    {
      "midi": 76,
      "hit": false,
      "t": 6000,
      "d": 83.33333333333303,
      "v": 110
    },
    {
      "midi": 81,
      "hit": false,
      "t": 6250,
      "d": 83.33333333333303,
      "v": 110
    },
    {
      "midi": 71,
      "hit": false,
      "t": 6500,
      "d": 83.33333333333303,
      "v": 110
    },
    {
      "midi": 78,
      "hit": false,
      "t": 6500,
      "d": 83.33333333333303,
      "v": 110
    },
    {
      "midi": 72,
      "hit": false,
      "t": 6750,
      "d": 83.33333333333303,
      "v": 110
    },
    {
      "midi": 79,
      "hit": false,
      "t": 6750,
      "d": 83.33333333333303,
      "v": 110
    },
    {
      "midi": 71,
      "hit": false,
      "t": 7000,
      "d": 83.33333333333303,
      "v": 110
    },
    {
      "midi": 75,
      "hit": false,
      "t": 7000,
      "d": 83.33333333333303,
      "v": 110
    },
    {
      "midi": 78,
      "hit": false,
      "t": 7000,
      "d": 83.33333333333303,
      "v": 110
    },
    {
      "midi": 80,
      "hit": false,
      "t": 7250,
      "d": 83.33333333333303,
      "v": 110
    },
    {
      "midi": 68,
      "hit": false,
      "t": 7500,
      "d": 125,
      "v": 110
    },
    {
      "midi": 75,
      "hit": false,
      "t": 7500,
      "d": 125,
      "v": 110
    },
    {
      "midi": 71,
      "hit": false,
      "t": 8000,
      "d": 119.79166666666697,
      "v": 110
    },
    {
      "midi": 49,
      "hit": false,
      "t": 8000,
      "d": 244.79166666666606,
      "v": 110
    },
    {
      "midi": 61,
      "hit": false,
      "t": 8000,
      "d": 244.79166666666606,
      "v": 110
    },
    {
      "midi": 88,
      "hit": false,
      "t": 8125,
      "d": 119.79166666666606,
      "v": 110
    },
    {
      "midi": 73,
      "hit": false,
      "t": 8250,
      "d": 119.79166666666606,
      "v": 110
    },
    {
      "midi": 47,
      "hit": false,
      "t": 8250,
      "d": 416.66666666666606,
      "v": 110
    },
    {
      "midi": 59,
      "hit": false,
      "t": 8250,
      "d": 416.66666666666606,
      "v": 110
    },
    {
      "midi": 88,
      "hit": false,
      "t": 8375,
      "d": 119.79166666666606,
      "v": 110
    },
    {
      "midi": 76,
      "hit": false,
      "t": 8500,
      "d": 119.79166666666606,
      "v": 110
    },
    {
      "midi": 78,
      "hit": false,
      "t": 8625,
      "d": 119.79166666666606,
      "v": 110
    },
    {
      "midi": 88,
      "hit": false,
      "t": 8750,
      "d": 119.79166666666606,
      "v": 110
    },
    {
      "midi": 47,
      "hit": false,
      "t": 8750,
      "d": 244.79166666666606,
      "v": 110
    },
    {
      "midi": 59,
      "hit": false,
      "t": 8750,
      "d": 244.79166666666606,
      "v": 110
    },
    {
      "midi": 88,
      "hit": false,
      "t": 8875,
      "d": 119.79166666666606,
      "v": 110
    },
    {
      "midi": 80,
      "hit": false,
      "t": 9000,
      "d": 119.79166666666606,
      "v": 110
    },
    {
      "midi": 47,
      "hit": false,
      "t": 9000,
      "d": 244.79166666666606,
      "v": 110
    },
    {
      "midi": 59,
      "hit": false,
      "t": 9000,
      "d": 244.79166666666606,
      "v": 110
    },
    {
      "midi": 88,
      "hit": false,
      "t": 9125,
      "d": 119.79166666666606,
      "v": 110
    },
    {
      "midi": 76,
      "hit": false,
      "t": 9250,
      "d": 119.79166666666606,
      "v": 110
    },
    {
      "midi": 45,
      "hit": false,
      "t": 9250,
      "d": 416.66666666666606,
      "v": 110
    },
    {
      "midi": 57,
      "hit": false,
      "t": 9250,
      "d": 416.66666666666606,
      "v": 110
    },
    {
      "midi": 88,
      "hit": false,
      "t": 9375,
      "d": 119.79166666666606,
      "v": 110
    },
    {
      "midi": 73,
      "hit": false,
      "t": 9500,
      "d": 119.79166666666606,
      "v": 110
    },
    {
      "midi": 76,
      "hit": false,
      "t": 9625,
      "d": 119.79166666666606,
      "v": 110
    },
    {
      "midi": 88,
      "hit": false,
      "t": 9750,
      "d": 119.79166666666606,
      "v": 110
    },
    {
      "midi": 45,
      "hit": false,
      "t": 9750,
      "d": 244.79166666666606,
      "v": 110
    },
    {
      "midi": 57,
      "hit": false,
      "t": 9750,
      "d": 244.79166666666606,
      "v": 110
    },
    {
      "midi": 88,
      "hit": false,
      "t": 9875,
      "d": 119.79166666666606,
      "v": 110
    },
    {
      "midi": 83,
      "hit": false,
      "t": 10000,
      "d": 119.79166666666606,
      "v": 110
    },
    {
      "midi": 45,
      "hit": false,
      "t": 10000,
      "d": 244.79166666666606,
      "v": 110
    },
    {
      "midi": 57,
      "hit": false,
      "t": 10000,
      "d": 244.79166666666606,
      "v": 110
    },
    {
      "midi": 88,
      "hit": false,
      "t": 10125,
      "d": 119.79166666666606,
      "v": 110
    },
    {
      "midi": 78,
      "hit": false,
      "t": 10250,
      "d": 119.79166666666606,
      "v": 110
    },
    {
      "midi": 43,
      "hit": false,
      "t": 10250,
      "d": 416.66666666666606,
      "v": 110
    },
    {
      "midi": 55,
      "hit": false,
      "t": 10250,
      "d": 416.66666666666606,
      "v": 110
    },
    {
      "midi": 88,
      "hit": false,
      "t": 10375,
      "d": 119.79166666666606,
      "v": 110
    },
    {
      "midi": 76,
      "hit": false,
      "t": 10500,
      "d": 119.79166666666606,
      "v": 110
    },
    {
      "midi": 74,
      "hit": false,
      "t": 10625,
      "d": 119.79166666666606,
      "v": 110
    },
    {
      "midi": 76,
      "hit": false,
      "t": 10750,
      "d": 119.79166666666606,
      "v": 110
    },
    {
      "midi": 43,
      "hit": false,
      "t": 10750,
      "d": 244.79166666666606,
      "v": 110
    },
    {
      "midi": 55,
      "hit": false,
      "t": 10750,
      "d": 244.79166666666606,
      "v": 110
    },
    {
      "midi": 88,
      "hit": false,
      "t": 10875,
      "d": 119.79166666666606,
      "v": 110
    },
    {
      "midi": 76,
      "hit": false,
      "t": 11000,
      "d": 119.79166666666606,
      "v": 110
    },
    {
      "midi": 43,
      "hit": false,
      "t": 11000,
      "d": 244.79166666666606,
      "v": 110
    },
    {
      "midi": 55,
      "hit": false,
      "t": 11000,
      "d": 244.79166666666606,
      "v": 110
    },
    {
      "midi": 88,
      "hit": false,
      "t": 11125,
      "d": 119.79166666666606,
      "v": 110
    },
    {
      "midi": 88,
      "hit": false,
      "t": 11250,
      "d": 119.79166666666606,
      "v": 110
    },
    {
      "midi": 40,
      "hit": false,
      "t": 11250,
      "d": 416.66666666666606,
      "v": 110
    },
    {
      "midi": 52,
      "hit": false,
      "t": 11250,
      "d": 416.66666666666606,
      "v": 110
    },
    {
      "midi": 88,
      "hit": false,
      "t": 11375,
      "d": 119.79166666666606,
      "v": 110
    },
    {
      "midi": 76,
      "hit": false,
      "t": 11500,
      "d": 119.79166666666606,
      "v": 110
    },
    {
      "midi": 88,
      "hit": false,
      "t": 11625,
      "d": 119.79166666666606,
      "v": 110
    },
    {
      "midi": 88,
      "hit": false,
      "t": 11750,
      "d": 119.79166666666606,
      "v": 110
    },
    {
      "midi": 40,
      "hit": false,
      "t": 11750,
      "d": 244.79166666666606,
      "v": 110
    },
    {
      "midi": 52,
      "hit": false,
      "t": 11750,
      "d": 244.79166666666606,
      "v": 110
    },
    {
      "midi": 88,
      "hit": false,
      "t": 11875,
      "d": 119.79166666666606,
      "v": 110
    },
    {
      "midi": 71,
      "hit": false,
      "t": 12000,
      "d": 119.79166666666606,
      "v": 110
    },
    {
      "midi": 49,
      "hit": false,
      "t": 12000,
      "d": 244.79166666666606,
      "v": 110
    },
    {
      "midi": 61,
      "hit": false,
      "t": 12000,
      "d": 244.79166666666606,
      "v": 110
    },
    {
      "midi": 88,
      "hit": false,
      "t": 12125,
      "d": 119.79166666666606,
      "v": 110
    },
    {
      "midi": 73,
      "hit": false,
      "t": 12250,
      "d": 119.79166666666606,
      "v": 110
    },
    {
      "midi": 47,
      "hit": false,
      "t": 12250,
      "d": 416.66666666666606,
      "v": 110
    },
    {
      "midi": 59,
      "hit": false,
      "t": 12250,
      "d": 416.66666666666606,
      "v": 110
    },
    {
      "midi": 88,
      "hit": false,
      "t": 12375,
      "d": 119.79166666666606,
      "v": 110
    },
    {
      "midi": 76,
      "hit": false,
      "t": 12500,
      "d": 119.79166666666606,
      "v": 110
    },
    {
      "midi": 78,
      "hit": false,
      "t": 12625,
      "d": 119.79166666666606,
      "v": 110
    },
    {
      "midi": 88,
      "hit": false,
      "t": 12750,
      "d": 119.79166666666606,
      "v": 110
    },
    {
      "midi": 47,
      "hit": false,
      "t": 12750,
      "d": 244.79166666666606,
      "v": 110
    },
    {
      "midi": 59,
      "hit": false,
      "t": 12750,
      "d": 244.79166666666606,
      "v": 110
    },
    {
      "midi": 88,
      "hit": false,
      "t": 12875,
      "d": 119.79166666666606,
      "v": 110
    },
    {
      "midi": 80,
      "hit": false,
      "t": 13000,
      "d": 119.79166666666606,
      "v": 110
    },
    {
      "midi": 47,
      "hit": false,
      "t": 13000,
      "d": 244.79166666666606,
      "v": 110
    },
    {
      "midi": 59,
      "hit": false,
      "t": 13000,
      "d": 244.79166666666606,
      "v": 110
    },
    {
      "midi": 88,
      "hit": false,
      "t": 13125,
      "d": 119.79166666666606,
      "v": 110
    },
    {
      "midi": 76,
      "hit": false,
      "t": 13250,
      "d": 119.79166666666606,
      "v": 110
    },
    {
      "midi": 45,
      "hit": false,
      "t": 13250,
      "d": 416.66666666666606,
      "v": 110
    },
    {
      "midi": 57,
      "hit": false,
      "t": 13250,
      "d": 416.66666666666606,
      "v": 110
    },
    {
      "midi": 88,
      "hit": false,
      "t": 13375,
      "d": 119.79166666666606,
      "v": 110
    },
    {
      "midi": 73,
      "hit": false,
      "t": 13500,
      "d": 119.79166666666606,
      "v": 110
    },
    {
      "midi": 76,
      "hit": false,
      "t": 13625,
      "d": 119.79166666666606,
      "v": 110
    },
    {
      "midi": 88,
      "hit": false,
      "t": 13750,
      "d": 119.79166666666606,
      "v": 110
    },
    {
      "midi": 45,
      "hit": false,
      "t": 13750,
      "d": 244.79166666666606,
      "v": 110
    },
    {
      "midi": 57,
      "hit": false,
      "t": 13750,
      "d": 244.79166666666606,
      "v": 110
    },
    {
      "midi": 88,
      "hit": false,
      "t": 13875,
      "d": 119.79166666666606,
      "v": 110
    },
    {
      "midi": 83,
      "hit": false,
      "t": 14000,
      "d": 119.79166666666606,
      "v": 110
    },
    {
      "midi": 45,
      "hit": false,
      "t": 14000,
      "d": 244.79166666666606,
      "v": 110
    },
    {
      "midi": 57,
      "hit": false,
      "t": 14000,
      "d": 244.79166666666606,
      "v": 110
    },
    {
      "midi": 88,
      "hit": false,
      "t": 14125,
      "d": 119.79166666666606,
      "v": 110
    },
    {
      "midi": 78,
      "hit": false,
      "t": 14250,
      "d": 119.79166666666606,
      "v": 110
    },
    {
      "midi": 43,
      "hit": false,
      "t": 14250,
      "d": 416.66666666666606,
      "v": 110
    },
    {
      "midi": 55,
      "hit": false,
      "t": 14250,
      "d": 416.66666666666606,
      "v": 110
    },
    {
      "midi": 88,
      "hit": false,
      "t": 14375,
      "d": 119.79166666666606,
      "v": 110
    },
    {
      "midi": 76,
      "hit": false,
      "t": 14500,
      "d": 119.79166666666606,
      "v": 110
    },
    {
      "midi": 74,
      "hit": false,
      "t": 14625,
      "d": 119.79166666666606,
      "v": 110
    },
    {
      "midi": 76,
      "hit": false,
      "t": 14750,
      "d": 119.79166666666606,
      "v": 110
    },
    {
      "midi": 43,
      "hit": false,
      "t": 14750,
      "d": 244.79166666666606,
      "v": 110
    },
    {
      "midi": 55,
      "hit": false,
      "t": 14750,
      "d": 244.79166666666606,
      "v": 110
    },
    {
      "midi": 88,
      "hit": false,
      "t": 14875,
      "d": 119.79166666666606,
      "v": 110
    },
    {
      "midi": 76,
      "hit": false,
      "t": 15000,
      "d": 119.79166666666606,
      "v": 110
    },
    {
      "midi": 43,
      "hit": false,
      "t": 15000,
      "d": 244.79166666666606,
      "v": 110
    },
    {
      "midi": 55,
      "hit": false,
      "t": 15000,
      "d": 244.79166666666606,
      "v": 110
    },
    {
      "midi": 88,
      "hit": false,
      "t": 15125,
      "d": 119.79166666666606,
      "v": 110
    },
    {
      "midi": 88,
      "hit": false,
      "t": 15250,
      "d": 119.79166666666606,
      "v": 110
    },
    {
      "midi": 40,
      "hit": false,
      "t": 15250,
      "d": 416.66666666666606,
      "v": 110
    },
    {
      "midi": 52,
      "hit": false,
      "t": 15250,
      "d": 416.66666666666606,
      "v": 110
    },
    {
      "midi": 88,
      "hit": false,
      "t": 15375,
      "d": 119.79166666666606,
      "v": 110
    },
    {
      "midi": 76,
      "hit": false,
      "t": 15500,
      "d": 119.79166666666606,
      "v": 110
    },
    {
      "midi": 88,
      "hit": false,
      "t": 15625,
      "d": 119.79166666666606,
      "v": 110
    },
    {
      "midi": 88,
      "hit": false,
      "t": 15750,
      "d": 119.79166666666606,
      "v": 110
    },
    {
      "midi": 40,
      "hit": false,
      "t": 15750,
      "d": 244.79166666666606,
      "v": 110
    },
    {
      "midi": 52,
      "hit": false,
      "t": 15750,
      "d": 244.79166666666606,
      "v": 110
    },
    {
      "midi": 88,
      "hit": false,
      "t": 15875,
      "d": 119.79166666666606,
      "v": 110
    },
    {
      "midi": 73,
      "hit": false,
      "t": 16000,
      "d": 83.33333333333394,
      "v": 110
    },
    {
      "midi": 80,
      "hit": false,
      "t": 16000,
      "d": 83.33333333333394,
      "v": 110
    },
    {
      "midi": 85,
      "hit": false,
      "t": 16250,
      "d": 83.33333333333394,
      "v": 110
    },
    {
      "midi": 73,
      "hit": false,
      "t": 16500,
      "d": 83.33333333333212,
      "v": 110
    },
    {
      "midi": 75,
      "hit": false,
      "t": 16500,
      "d": 83.33333333333212,
      "v": 110
    },
    {
      "midi": 83,
      "hit": false,
      "t": 16500,
      "d": 83.33333333333212,
      "v": 110
    },
    {
      "midi": 76,
      "hit": false,
      "t": 16750,
      "d": 83.33333333333212,
      "v": 110
    },
    {
      "midi": 85,
      "hit": false,
      "t": 16750,
      "d": 83.33333333333212,
      "v": 110
    },
    {
      "midi": 74,
      "hit": false,
      "t": 17000,
      "d": 83.33333333333212,
      "v": 110
    },
    {
      "midi": 78,
      "hit": false,
      "t": 17000,
      "d": 83.33333333333212,
      "v": 110
    },
    {
      "midi": 81,
      "hit": false,
      "t": 17000,
      "d": 83.33333333333212,
      "v": 110
    },
    {
      "midi": 83,
      "hit": false,
      "t": 17250,
      "d": 83.33333333333212,
      "v": 110
    },
    {
      "midi": 71,
      "hit": false,
      "t": 17500,
      "d": 83.33333333333212,
      "v": 110
    },
    {
      "midi": 78,
      "hit": false,
      "t": 17500,
      "d": 83.33333333333212,
      "v": 110
    },
    {
      "midi": 83,
      "hit": false,
      "t": 17750,
      "d": 83.33333333333212,
      "v": 110
    },
    {
      "midi": 69,
      "hit": false,
      "t": 18000,
      "d": 83.33333333333212,
      "v": 110
    },
    {
      "midi": 76,
      "hit": false,
      "t": 18000,
      "d": 83.33333333333212,
      "v": 110
    },
    {
      "midi": 81,
      "hit": false,
      "t": 18250,
      "d": 83.33333333333212,
      "v": 110
    },
    {
      "midi": 71,
      "hit": false,
      "t": 18500,
      "d": 83.33333333333212,
      "v": 110
    },
    {
      "midi": 78,
      "hit": false,
      "t": 18500,
      "d": 83.33333333333212,
      "v": 110
    },
    {
      "midi": 72,
      "hit": false,
      "t": 18750,
      "d": 83.33333333333212,
      "v": 110
    },
    {
      "midi": 79,
      "hit": false,
      "t": 18750,
      "d": 83.33333333333212,
      "v": 110
    },
    {
      "midi": 71,
      "hit": false,
      "t": 19000,
      "d": 83.33333333333212,
      "v": 110
    },
    {
      "midi": 75,
      "hit": false,
      "t": 19000,
      "d": 83.33333333333212,
      "v": 110
    },
    {
      "midi": 78,
      "hit": false,
      "t": 19000,
      "d": 83.33333333333212,
      "v": 110
    },
    {
      "midi": 80,
      "hit": false,
      "t": 19250,
      "d": 83.33333333333212,
      "v": 110
    },
    {
      "midi": 68,
      "hit": false,
      "t": 19500,
      "d": 125,
      "v": 110
    },
    {
      "midi": 75,
      "hit": false,
      "t": 19500,
      "d": 125,
      "v": 110
    },
    {
      "midi": 73,
      "hit": false,
      "t": 20000,
      "d": 83.33333333333212,
      "v": 110
    },
    {
      "midi": 80,
      "hit": false,
      "t": 20000,
      "d": 83.33333333333212,
      "v": 110
    },
    {
      "midi": 85,
      "hit": false,
      "t": 20250,
      "d": 83.33333333333212,
      "v": 110
    },
    {
      "midi": 73,
      "hit": false,
      "t": 20500,
      "d": 83.33333333333212,
      "v": 110
    },
    {
      "midi": 75,
      "hit": false,
      "t": 20500,
      "d": 83.33333333333212,
      "v": 110
    },
    {
      "midi": 83,
      "hit": false,
      "t": 20500,
      "d": 83.33333333333212,
      "v": 110
    },
    {
      "midi": 76,
      "hit": false,
      "t": 20750,
      "d": 83.33333333333212,
      "v": 110
    },
    {
      "midi": 85,
      "hit": false,
      "t": 20750,
      "d": 83.33333333333212,
      "v": 110
    },
    {
      "midi": 74,
      "hit": false,
      "t": 21000,
      "d": 83.33333333333212,
      "v": 110
    },
    {
      "midi": 78,
      "hit": false,
      "t": 21000,
      "d": 83.33333333333212,
      "v": 110
    },
    {
      "midi": 81,
      "hit": false,
      "t": 21000,
      "d": 83.33333333333212,
      "v": 110
    },
    {
      "midi": 83,
      "hit": false,
      "t": 21250,
      "d": 83.33333333333212,
      "v": 110
    },
    {
      "midi": 71,
      "hit": false,
      "t": 21500,
      "d": 83.33333333333212,
      "v": 110
    },
    {
      "midi": 78,
      "hit": false,
      "t": 21500,
      "d": 83.33333333333212,
      "v": 110
    },
    {
      "midi": 83,
      "hit": false,
      "t": 21750,
      "d": 83.33333333333212,
      "v": 110
    },
    {
      "midi": 69,
      "hit": false,
      "t": 22000,
      "d": 83.33333333333212,
      "v": 110
    },
    {
      "midi": 76,
      "hit": false,
      "t": 22000,
      "d": 83.33333333333212,
      "v": 110
    },
    {
      "midi": 81,
      "hit": false,
      "t": 22250,
      "d": 83.33333333333212,
      "v": 110
    },
    {
      "midi": 71,
      "hit": false,
      "t": 22500,
      "d": 83.33333333333212,
      "v": 110
    },
    {
      "midi": 78,
      "hit": false,
      "t": 22500,
      "d": 83.33333333333212,
      "v": 110
    },
    {
      "midi": 72,
      "hit": false,
      "t": 22750,
      "d": 83.33333333333212,
      "v": 110
    },
    {
      "midi": 79,
      "hit": false,
      "t": 22750,
      "d": 83.33333333333212,
      "v": 110
    },
    {
      "midi": 71,
      "hit": false,
      "t": 23000,
      "d": 83.33333333333212,
      "v": 110
    },
    {
      "midi": 75,
      "hit": false,
      "t": 23000,
      "d": 83.33333333333212,
      "v": 110
    },
    {
      "midi": 78,
      "hit": false,
      "t": 23000,
      "d": 83.33333333333212,
      "v": 110
    },
    {
      "midi": 80,
      "hit": false,
      "t": 23250,
      "d": 83.33333333333212,
      "v": 110
    },
    {
      "midi": 68,
      "hit": false,
      "t": 23500,
      "d": 125,
      "v": 110
    },
    {
      "midi": 75,
      "hit": false,
      "t": 23500,
      "d": 125,
      "v": 110
    },
    {
      "midi": 71,
      "hit": false,
      "t": 24000,
      "d": 119.79166666666788,
      "v": 110
    },
    {
      "midi": 49,
      "hit": false,
      "t": 24000,
      "d": 244.79166666666788,
      "v": 110
    },
    {
      "midi": 61,
      "hit": false,
      "t": 24000,
      "d": 244.79166666666788,
      "v": 110
    },
    {
      "midi": 88,
      "hit": false,
      "t": 24125,
      "d": 119.79166666666788,
      "v": 110
    },
    {
      "midi": 73,
      "hit": false,
      "t": 24250,
      "d": 119.79166666666788,
      "v": 110
    },
    {
      "midi": 47,
      "hit": false,
      "t": 24250,
      "d": 416.6666666666679,
      "v": 110
    },
    {
      "midi": 59,
      "hit": false,
      "t": 24250,
      "d": 416.6666666666679,
      "v": 110
    },
    {
      "midi": 88,
      "hit": false,
      "t": 24375,
      "d": 119.79166666666788,
      "v": 110
    },
    {
      "midi": 76,
      "hit": false,
      "t": 24500,
      "d": 119.79166666666788,
      "v": 110
    },
    {
      "midi": 78,
      "hit": false,
      "t": 24625,
      "d": 119.79166666666788,
      "v": 110
    },
    {
      "midi": 88,
      "hit": false,
      "t": 24750,
      "d": 119.79166666666788,
      "v": 110
    },
    {
      "midi": 47,
      "hit": false,
      "t": 24750,
      "d": 244.79166666666788,
      "v": 110
    },
    {
      "midi": 59,
      "hit": false,
      "t": 24750,
      "d": 244.79166666666788,
      "v": 110
    },
    {
      "midi": 88,
      "hit": false,
      "t": 24875,
      "d": 119.79166666666788,
      "v": 110
    },
    {
      "midi": 80,
      "hit": false,
      "t": 25000,
      "d": 119.79166666666788,
      "v": 110
    },
    {
      "midi": 47,
      "hit": false,
      "t": 25000,
      "d": 244.79166666666788,
      "v": 110
    },
    {
      "midi": 59,
      "hit": false,
      "t": 25000,
      "d": 244.79166666666788,
      "v": 110
    },
    {
      "midi": 88,
      "hit": false,
      "t": 25125,
      "d": 119.79166666666788,
      "v": 110
    },
    {
      "midi": 76,
      "hit": false,
      "t": 25250,
      "d": 119.79166666666788,
      "v": 110
    },
    {
      "midi": 45,
      "hit": false,
      "t": 25250,
      "d": 416.6666666666679,
      "v": 110
    },
    {
      "midi": 57,
      "hit": false,
      "t": 25250,
      "d": 416.6666666666679,
      "v": 110
    },
    {
      "midi": 88,
      "hit": false,
      "t": 25375,
      "d": 119.79166666666788,
      "v": 110
    },
    {
      "midi": 73,
      "hit": false,
      "t": 25500,
      "d": 119.79166666666788,
      "v": 110
    },
    {
      "midi": 76,
      "hit": false,
      "t": 25625,
      "d": 119.79166666666788,
      "v": 110
    },
    {
      "midi": 88,
      "hit": false,
      "t": 25750,
      "d": 119.79166666666788,
      "v": 110
    },
    {
      "midi": 45,
      "hit": false,
      "t": 25750,
      "d": 244.79166666666788,
      "v": 110
    },
    {
      "midi": 57,
      "hit": false,
      "t": 25750,
      "d": 244.79166666666788,
      "v": 110
    },
    {
      "midi": 88,
      "hit": false,
      "t": 25875,
      "d": 119.79166666666788,
      "v": 110
    },
    {
      "midi": 83,
      "hit": false,
      "t": 26000,
      "d": 119.79166666666788,
      "v": 110
    },
    {
      "midi": 45,
      "hit": false,
      "t": 26000,
      "d": 244.79166666666788,
      "v": 110
    },
    {
      "midi": 57,
      "hit": false,
      "t": 26000,
      "d": 244.79166666666788,
      "v": 110
    },
    {
      "midi": 88,
      "hit": false,
      "t": 26125,
      "d": 119.79166666666788,
      "v": 110
    },
    {
      "midi": 78,
      "hit": false,
      "t": 26250,
      "d": 119.79166666666788,
      "v": 110
    },
    {
      "midi": 43,
      "hit": false,
      "t": 26250,
      "d": 416.6666666666679,
      "v": 110
    },
    {
      "midi": 55,
      "hit": false,
      "t": 26250,
      "d": 416.6666666666679,
      "v": 110
    },
    {
      "midi": 88,
      "hit": false,
      "t": 26375,
      "d": 119.79166666666788,
      "v": 110
    },
    {
      "midi": 76,
      "hit": false,
      "t": 26500,
      "d": 119.79166666666788,
      "v": 110
    },
    {
      "midi": 74,
      "hit": false,
      "t": 26625,
      "d": 119.79166666666788,
      "v": 110
    },
    {
      "midi": 76,
      "hit": false,
      "t": 26750,
      "d": 119.79166666666788,
      "v": 110
    },
    {
      "midi": 43,
      "hit": false,
      "t": 26750,
      "d": 244.79166666666788,
      "v": 110
    },
    {
      "midi": 55,
      "hit": false,
      "t": 26750,
      "d": 244.79166666666788,
      "v": 110
    },
    {
      "midi": 88,
      "hit": false,
      "t": 26875,
      "d": 119.79166666666788,
      "v": 110
    },
    {
      "midi": 76,
      "hit": false,
      "t": 27000,
      "d": 119.79166666666788,
      "v": 110
    },
    {
      "midi": 43,
      "hit": false,
      "t": 27000,
      "d": 244.79166666666788,
      "v": 110
    },
    {
      "midi": 55,
      "hit": false,
      "t": 27000,
      "d": 244.79166666666788,
      "v": 110
    },
    {
      "midi": 88,
      "hit": false,
      "t": 27125,
      "d": 119.79166666666788,
      "v": 110
    },
    {
      "midi": 88,
      "hit": false,
      "t": 27250,
      "d": 119.79166666666788,
      "v": 110
    },
    {
      "midi": 40,
      "hit": false,
      "t": 27250,
      "d": 416.6666666666679,
      "v": 110
    },
    {
      "midi": 52,
      "hit": false,
      "t": 27250,
      "d": 416.6666666666679,
      "v": 110
    },
    {
      "midi": 88,
      "hit": false,
      "t": 27375,
      "d": 119.79166666666788,
      "v": 110
    },
    {
      "midi": 76,
      "hit": false,
      "t": 27500,
      "d": 119.79166666666788,
      "v": 110
    },
    {
      "midi": 88,
      "hit": false,
      "t": 27625,
      "d": 119.79166666666788,
      "v": 110
    },
    {
      "midi": 88,
      "hit": false,
      "t": 27750,
      "d": 119.79166666666788,
      "v": 110
    },
    {
      "midi": 40,
      "hit": false,
      "t": 27750,
      "d": 244.79166666666788,
      "v": 110
    },
    {
      "midi": 52,
      "hit": false,
      "t": 27750,
      "d": 244.79166666666788,
      "v": 110
    },
    {
      "midi": 88,
      "hit": false,
      "t": 27875,
      "d": 119.79166666666788,
      "v": 110
    },
    {
      "midi": 71,
      "hit": false,
      "t": 28000,
      "d": 119.79166666666788,
      "v": 110
    },
    {
      "midi": 49,
      "hit": false,
      "t": 28000,
      "d": 244.79166666666788,
      "v": 110
    },
    {
      "midi": 61,
      "hit": false,
      "t": 28000,
      "d": 244.79166666666788,
      "v": 110
    },
    {
      "midi": 88,
      "hit": false,
      "t": 28125,
      "d": 119.79166666666788,
      "v": 110
    },
    {
      "midi": 73,
      "hit": false,
      "t": 28250,
      "d": 119.79166666666788,
      "v": 110
    },
    {
      "midi": 47,
      "hit": false,
      "t": 28250,
      "d": 416.6666666666679,
      "v": 110
    },
    {
      "midi": 59,
      "hit": false,
      "t": 28250,
      "d": 416.6666666666679,
      "v": 110
    },
    {
      "midi": 88,
      "hit": false,
      "t": 28375,
      "d": 119.79166666666788,
      "v": 110
    },
    {
      "midi": 76,
      "hit": false,
      "t": 28500,
      "d": 119.79166666666788,
      "v": 110
    },
    {
      "midi": 78,
      "hit": false,
      "t": 28625,
      "d": 119.79166666666788,
      "v": 110
    },
    {
      "midi": 88,
      "hit": false,
      "t": 28750,
      "d": 119.79166666666788,
      "v": 110
    },
    {
      "midi": 47,
      "hit": false,
      "t": 28750,
      "d": 244.79166666666788,
      "v": 110
    },
    {
      "midi": 59,
      "hit": false,
      "t": 28750,
      "d": 244.79166666666788,
      "v": 110
    },
    {
      "midi": 88,
      "hit": false,
      "t": 28875,
      "d": 119.79166666666788,
      "v": 110
    },
    {
      "midi": 80,
      "hit": false,
      "t": 29000,
      "d": 119.79166666666788,
      "v": 110
    },
    {
      "midi": 47,
      "hit": false,
      "t": 29000,
      "d": 244.79166666666788,
      "v": 110
    },
    {
      "midi": 59,
      "hit": false,
      "t": 29000,
      "d": 244.79166666666788,
      "v": 110
    },
    {
      "midi": 88,
      "hit": false,
      "t": 29125,
      "d": 119.79166666666788,
      "v": 110
    },
    {
      "midi": 76,
      "hit": false,
      "t": 29250,
      "d": 119.79166666666788,
      "v": 110
    },
    {
      "midi": 45,
      "hit": false,
      "t": 29250,
      "d": 416.6666666666679,
      "v": 110
    },
    {
      "midi": 57,
      "hit": false,
      "t": 29250,
      "d": 416.6666666666679,
      "v": 110
    },
    {
      "midi": 88,
      "hit": false,
      "t": 29375,
      "d": 119.79166666666788,
      "v": 110
    },
    {
      "midi": 73,
      "hit": false,
      "t": 29500,
      "d": 119.79166666666788,
      "v": 110
    },
    {
      "midi": 76,
      "hit": false,
      "t": 29625,
      "d": 119.79166666666788,
      "v": 110
    },
    {
      "midi": 88,
      "hit": false,
      "t": 29750,
      "d": 119.79166666666788,
      "v": 110
    },
    {
      "midi": 45,
      "hit": false,
      "t": 29750,
      "d": 244.79166666666788,
      "v": 110
    },
    {
      "midi": 57,
      "hit": false,
      "t": 29750,
      "d": 244.79166666666788,
      "v": 110
    },
    {
      "midi": 88,
      "hit": false,
      "t": 29875,
      "d": 119.79166666666788,
      "v": 110
    },
    {
      "midi": 83,
      "hit": false,
      "t": 30000,
      "d": 119.79166666666788,
      "v": 110
    },
    {
      "midi": 45,
      "hit": false,
      "t": 30000,
      "d": 244.79166666666788,
      "v": 110
    },
    {
      "midi": 57,
      "hit": false,
      "t": 30000,
      "d": 244.79166666666788,
      "v": 110
    },
    {
      "midi": 88,
      "hit": false,
      "t": 30125,
      "d": 119.79166666666788,
      "v": 110
    },
    {
      "midi": 78,
      "hit": false,
      "t": 30250,
      "d": 119.79166666666788,
      "v": 110
    },
    {
      "midi": 43,
      "hit": false,
      "t": 30250,
      "d": 416.6666666666679,
      "v": 110
    },
    {
      "midi": 55,
      "hit": false,
      "t": 30250,
      "d": 416.6666666666679,
      "v": 110
    },
    {
      "midi": 88,
      "hit": false,
      "t": 30375,
      "d": 119.79166666666788,
      "v": 110
    },
    {
      "midi": 76,
      "hit": false,
      "t": 30500,
      "d": 119.79166666666788,
      "v": 110
    },
    {
      "midi": 74,
      "hit": false,
      "t": 30625,
      "d": 119.79166666666788,
      "v": 110
    },
    {
      "midi": 76,
      "hit": false,
      "t": 30750,
      "d": 119.79166666666788,
      "v": 110
    },
    {
      "midi": 43,
      "hit": false,
      "t": 30750,
      "d": 244.79166666666788,
      "v": 110
    },
    {
      "midi": 55,
      "hit": false,
      "t": 30750,
      "d": 244.79166666666788,
      "v": 110
    },
    {
      "midi": 88,
      "hit": false,
      "t": 30875,
      "d": 119.79166666666788,
      "v": 110
    },
    {
      "midi": 76,
      "hit": false,
      "t": 31000,
      "d": 119.79166666666788,
      "v": 110
    },
    {
      "midi": 43,
      "hit": false,
      "t": 31000,
      "d": 244.79166666666788,
      "v": 110
    },
    {
      "midi": 55,
      "hit": false,
      "t": 31000,
      "d": 244.79166666666788,
      "v": 110
    },
    {
      "midi": 88,
      "hit": false,
      "t": 31125,
      "d": 119.79166666666788,
      "v": 110
    },
    {
      "midi": 88,
      "hit": false,
      "t": 31250,
      "d": 119.79166666666788,
      "v": 110
    },
    {
      "midi": 40,
      "hit": false,
      "t": 31250,
      "d": 416.6666666666679,
      "v": 110
    },
    {
      "midi": 52,
      "hit": false,
      "t": 31250,
      "d": 416.6666666666679,
      "v": 110
    },
    {
      "midi": 88,
      "hit": false,
      "t": 31375,
      "d": 119.79166666666788,
      "v": 110
    },
    {
      "midi": 76,
      "hit": false,
      "t": 31500,
      "d": 119.79166666666788,
      "v": 110
    },
    {
      "midi": 88,
      "hit": false,
      "t": 31625,
      "d": 119.79166666666788,
      "v": 110
    },
    {
      "midi": 88,
      "hit": false,
      "t": 31750,
      "d": 119.79166666666788,
      "v": 110
    },
    {
      "midi": 40,
      "hit": false,
      "t": 31750,
      "d": 244.79166666666788,
      "v": 110
    },
    {
      "midi": 52,
      "hit": false,
      "t": 31750,
      "d": 244.79166666666788,
      "v": 110
    },
    {
      "midi": 88,
      "hit": false,
      "t": 31875,
      "d": 119.79166666666788,
      "v": 110
    }
  ]
}