{
  "jsonPath": "Latin/Rumba/Robert Michaels/jingle-bells.json",
  "path": "Latin\\Rumba\\Robert Michaels\\Jingle Bells.mid",
  "name": "Jingle Bells",
  "difficulty": "Advanced",
  "bpm": 105.00028875079407,
  "notes": [
    {
      "midi": 43,
      "hit": false,
      "t": 0,
      "d": 285.7135,
      "v": 55
    },
    {
      "midi": 62,
      "hit": false,
      "t": 0,
      "d": 285.7135,
      "v": 64
    },
    {
      "midi": 59,
      "hit": false,
      "t": 0,
      "d": 1142.854,
      "v": 56
    },
    {
      "midi": 50,
      "hit": false,
      "t": 285.7135,
      "d": 285.7135,
      "v": 63
    },
    {
      "midi": 71,
      "hit": false,
      "t": 285.7135,
      "d": 285.7135,
      "v": 75
    },
    {
      "midi": 55,
      "hit": false,
      "t": 571.427,
      "d": 285.71349999999995,
      "v": 62
    },
    {
      "midi": 69,
      "hit": false,
      "t": 571.427,
      "d": 285.71349999999995,
      "v": 70
    },
    {
      "midi": 50,
      "hit": false,
      "t": 857.1405,
      "d": 285.71350000000007,
      "v": 59
    },
    {
      "midi": 67,
      "hit": false,
      "t": 857.1405,
      "d": 285.71350000000007,
      "v": 68
    },
    {
      "midi": 43,
      "hit": false,
      "t": 1142.854,
      "d": 285.71350000000007,
      "v": 58
    },
    {
      "midi": 62,
      "hit": false,
      "t": 1142.854,
      "d": 857.1405000000002,
      "v": 66
    },
    {
      "midi": 59,
      "hit": false,
      "t": 1142.854,
      "d": 1142.854,
      "v": 58
    },
    {
      "midi": 50,
      "hit": false,
      "t": 1428.5675,
      "d": 285.71350000000007,
      "v": 63
    },
    {
      "midi": 55,
      "hit": false,
      "t": 1714.2810000000002,
      "d": 285.71350000000007,
      "v": 63
    },
    {
      "midi": 62,
      "hit": false,
      "t": 1999.9945000000002,
      "d": 142.85674999999992,
      "v": 70
    },
    {
      "midi": 50,
      "hit": false,
      "t": 1999.9945000000002,
      "d": 285.71349999999984,
      "v": 59
    },
    {
      "midi": 62,
      "hit": false,
      "t": 2142.85125,
      "d": 142.85674999999992,
      "v": 73
    },
    {
      "midi": 43,
      "hit": false,
      "t": 2285.708,
      "d": 285.71349999999984,
      "v": 56
    },
    {
      "midi": 62,
      "hit": false,
      "t": 2285.708,
      "d": 285.71349999999984,
      "v": 70
    },
    {
      "midi": 59,
      "hit": false,
      "t": 2285.708,
      "d": 1142.8539999999994,
      "v": 60
    },
    {
      "midi": 50,
      "hit": false,
      "t": 2571.4215,
      "d": 285.71349999999984,
      "v": 63
    },
    {
      "midi": 71,
      "hit": false,
      "t": 2571.4215,
      "d": 285.71349999999984,
      "v": 79
    },
    {
      "midi": 55,
      "hit": false,
      "t": 2857.1349999999998,
      "d": 285.71349999999984,
      "v": 64
    },
    {
      "midi": 69,
      "hit": false,
      "t": 2857.1349999999998,
      "d": 285.71349999999984,
      "v": 70
    },
    {
      "midi": 50,
      "hit": false,
      "t": 3142.8484999999996,
      "d": 285.71349999999984,
      "v": 58
    },
    {
      "midi": 67,
      "hit": false,
      "t": 3142.8484999999996,
      "d": 285.71349999999984,
      "v": 69
    },
    {
      "midi": 48,
      "hit": false,
      "t": 3428.5619999999994,
      "d": 285.71349999999984,
      "v": 61
    },
    {
      "midi": 60,
      "hit": false,
      "t": 3428.5619999999994,
      "d": 1142.8539999999998,
      "v": 63
    },
    {
      "midi": 64,
      "hit": false,
      "t": 3428.5619999999994,
      "d": 1142.8539999999998,
      "v": 68
    },
    {
      "midi": 52,
      "hit": false,
      "t": 3714.2754999999993,
      "d": 285.71349999999984,
      "v": 60
    },
    {
      "midi": 55,
      "hit": false,
      "t": 3999.988999999999,
      "d": 285.7135000000003,
      "v": 62
    },
    {
      "midi": 52,
      "hit": false,
      "t": 4285.702499999999,
      "d": 285.71349999999984,
      "v": 63
    },
    {
      "midi": 45,
      "hit": false,
      "t": 4571.415999999999,
      "d": 285.71349999999984,
      "v": 59
    },
    {
      "midi": 64,
      "hit": false,
      "t": 4571.415999999999,
      "d": 285.71349999999984,
      "v": 71
    },
    {
      "midi": 60,
      "hit": false,
      "t": 4571.415999999999,
      "d": 1142.8539999999994,
      "v": 58
    },
    {
      "midi": 52,
      "hit": false,
      "t": 4857.129499999999,
      "d": 285.71349999999984,
      "v": 61
    },
    {
      "midi": 72,
      "hit": false,
      "t": 4857.129499999999,
      "d": 285.71349999999984,
      "v": 78
    },
    {
      "midi": 57,
      "hit": false,
      "t": 5142.842999999999,
      "d": 285.71349999999984,
      "v": 63
    },
    {
      "midi": 71,
      "hit": false,
      "t": 5142.842999999999,
      "d": 285.71349999999984,
      "v": 70
    },
    {
      "midi": 52,
      "hit": false,
      "t": 5428.556499999999,
      "d": 285.71349999999984,
      "v": 57
    },
    {
      "midi": 69,
      "hit": false,
      "t": 5428.556499999999,
      "d": 285.71349999999984,
      "v": 68
    },
    {
      "midi": 50,
      "hit": false,
      "t": 5714.269999999999,
      "d": 285.71349999999984,
      "v": 60
    },
    {
      "midi": 62,
      "hit": false,
      "t": 5714.269999999999,
      "d": 1142.8539999999994,
      "v": 62
    },
    {
      "midi": 66,
      "hit": false,
      "t": 5714.269999999999,
      "d": 1142.8539999999994,
      "v": 67
    },
    {
      "midi": 54,
      "hit": false,
      "t": 5999.9834999999985,
      "d": 285.71349999999984,
      "v": 62
    },
    {
      "midi": 57,
      "hit": false,
      "t": 6285.696999999998,
      "d": 285.71349999999984,
      "v": 60
    },
    {
      "midi": 54,
      "hit": false,
      "t": 6571.410499999998,
      "d": 285.71349999999984,
      "v": 60
    },
    {
      "midi": 50,
      "hit": false,
      "t": 6857.123999999998,
      "d": 285.71349999999984,
      "v": 61
    },
    {
      "midi": 74,
      "hit": false,
      "t": 6857.123999999998,
      "d": 285.71349999999984,
      "v": 77
    },
    {
      "midi": 66,
      "hit": false,
      "t": 6857.123999999998,
      "d": 571.4269999999997,
      "v": 64
    },
    {
      "midi": 54,
      "hit": false,
      "t": 7142.837499999998,
      "d": 285.71349999999984,
      "v": 61
    },
    {
      "midi": 74,
      "hit": false,
      "t": 7142.837499999998,
      "d": 285.71349999999984,
      "v": 73
    },
    {
      "midi": 57,
      "hit": false,
      "t": 7428.550999999998,
      "d": 285.71349999999984,
      "v": 60
    },
    {
      "midi": 72,
      "hit": false,
      "t": 7428.550999999998,
      "d": 285.71349999999984,
      "v": 68
    },
    {
      "midi": 66,
      "hit": false,
      "t": 7428.550999999998,
      "d": 571.4269999999997,
      "v": 60
    },
    {
      "midi": 50,
      "hit": false,
      "t": 7714.2644999999975,
      "d": 285.71349999999984,
      "v": 60
    },
    {
      "midi": 69,
      "hit": false,
      "t": 7714.2644999999975,
      "d": 285.71349999999984,
      "v": 68
    },
    {
      "midi": 43,
      "hit": false,
      "t": 7999.977999999997,
      "d": 285.71349999999984,
      "v": 59
    },
    {
      "midi": 67,
      "hit": false,
      "t": 7999.977999999997,
      "d": 1142.8539999999994,
      "v": 64
    },
    {
      "midi": 71,
      "hit": false,
      "t": 7999.977999999997,
      "d": 1142.8539999999994,
      "v": 72
    },
    {
      "midi": 50,
      "hit": false,
      "t": 8285.691499999997,
      "d": 285.71349999999984,
      "v": 65
    },
    {
      "midi": 55,
      "hit": false,
      "t": 8571.404999999997,
      "d": 285.71349999999984,
      "v": 63
    },
    {
      "midi": 50,
      "hit": false,
      "t": 8857.118499999997,
      "d": 285.71349999999984,
      "v": 59
    },
    {
      "midi": 43,
      "hit": false,
      "t": 9142.831999999997,
      "d": 285.71349999999984,
      "v": 57
    },
    {
      "midi": 62,
      "hit": false,
      "t": 9142.831999999997,
      "d": 285.71349999999984,
      "v": 64
    },
    {
      "midi": 59,
      "hit": false,
      "t": 9142.831999999997,
      "d": 1142.8539999999994,
      "v": 59
    },
    {
      "midi": 50,
      "hit": false,
      "t": 9428.545499999997,
      "d": 285.71349999999984,
      "v": 62
    },
    {
      "midi": 71,
      "hit": false,
      "t": 9428.545499999997,
      "d": 285.71349999999984,
      "v": 78
    },
    {
      "midi": 55,
      "hit": false,
      "t": 9714.258999999996,
      "d": 285.71349999999984,
      "v": 63
    },
    {
      "midi": 69,
      "hit": false,
      "t": 9714.258999999996,
      "d": 285.71349999999984,
      "v": 68
    },
    {
      "midi": 50,
      "hit": false,
      "t": 9999.972499999996,
      "d": 285.71349999999984,
      "v": 59
    },
    {
      "midi": 67,
      "hit": false,
      "t": 9999.972499999996,
      "d": 285.71349999999984,
      "v": 70
    },
    {
      "midi": 43,
      "hit": false,
      "t": 10285.685999999996,
      "d": 285.71349999999984,
      "v": 61
    },
    {
      "midi": 62,
      "hit": false,
      "t": 10285.685999999996,
      "d": 857.1404999999995,
      "v": 67
    },
    {
      "midi": 59,
      "hit": false,
      "t": 10285.685999999996,
      "d": 1142.8540000000012,
      "v": 61
    },
    {
      "midi": 50,
      "hit": false,
      "t": 10571.399499999996,
      "d": 285.71349999999984,
      "v": 63
    },
    {
      "midi": 55,
      "hit": false,
      "t": 10857.112999999996,
      "d": 285.71349999999984,
      "v": 60
    },
    {
      "midi": 62,
      "hit": false,
      "t": 11142.826499999996,
      "d": 142.85675000000083,
      "v": 72
    },
    {
      "midi": 50,
      "hit": false,
      "t": 11142.826499999996,
      "d": 285.71350000000166,
      "v": 60
    },
    {
      "midi": 62,
      "hit": false,
      "t": 11285.683249999996,
      "d": 142.85675000000083,
      "v": 73
    },
    {
      "midi": 43,
      "hit": false,
      "t": 11428.539999999997,
      "d": 285.71349999999984,
      "v": 58
    },
    {
      "midi": 62,
      "hit": false,
      "t": 11428.539999999997,
      "d": 285.71349999999984,
      "v": 70
    },
    {
      "midi": 59,
      "hit": false,
      "t": 11428.539999999997,
      "d": 1142.8539999999994,
      "v": 61
    },
    {
      "midi": 50,
      "hit": false,
      "t": 11714.253499999997,
      "d": 285.71349999999984,
      "v": 63
    },
    {
      "midi": 71,
      "hit": false,
      "t": 11714.253499999997,
      "d": 285.71349999999984,
      "v": 79
    },
    {
      "midi": 55,
      "hit": false,
      "t": 11999.966999999997,
      "d": 285.71349999999984,
      "v": 61
    },
    {
      "midi": 69,
      "hit": false,
      "t": 11999.966999999997,
      "d": 285.71349999999984,
      "v": 70
    },
    {
      "midi": 50,
      "hit": false,
      "t": 12285.680499999997,
      "d": 285.71349999999984,
      "v": 59
    },
    {
      "midi": 67,
      "hit": false,
      "t": 12285.680499999997,
      "d": 285.71349999999984,
      "v": 68
    },
    {
      "midi": 48,
      "hit": false,
      "t": 12571.393999999997,
      "d": 285.71349999999984,
      "v": 60
    },
    {
      "midi": 60,
      "hit": false,
      "t": 12571.393999999997,
      "d": 1142.8539999999994,
      "v": 63
    },
    {
      "midi": 64,
      "hit": false,
      "t": 12571.393999999997,
      "d": 1142.8539999999994,
      "v": 69
    },
    {
      "midi": 52,
      "hit": false,
      "t": 12857.107499999996,
      "d": 285.71349999999984,
      "v": 63
    },
    {
      "midi": 55,
      "hit": false,
      "t": 13142.820999999996,
      "d": 285.71349999999984,
      "v": 62
    },
    {
      "midi": 52,
      "hit": false,
      "t": 13428.534499999996,
      "d": 285.71349999999984,
      "v": 58
    },
    {
      "midi": 45,
      "hit": false,
      "t": 13714.247999999996,
      "d": 285.71349999999984,
      "v": 60
    },
    {
      "midi": 64,
      "hit": false,
      "t": 13714.247999999996,
      "d": 285.71349999999984,
      "v": 72
    },
    {
      "midi": 60,
      "hit": false,
      "t": 13714.247999999996,
      "d": 1142.8539999999994,
      "v": 62
    },
    {
      "midi": 52,
      "hit": false,
      "t": 13999.961499999996,
      "d": 285.71349999999984,
      "v": 62
    },
    {
      "midi": 72,
      "hit": false,
      "t": 13999.961499999996,
      "d": 285.71349999999984,
      "v": 77
    },
    {
      "midi": 57,
      "hit": false,
      "t": 14285.674999999996,
      "d": 285.71349999999984,
      "v": 63
    },
    {
      "midi": 71,
      "hit": false,
      "t": 14285.674999999996,
      "d": 285.71349999999984,
      "v": 71
    },
    {
      "midi": 52,
      "hit": false,
      "t": 14571.388499999995,
      "d": 285.71349999999984,
      "v": 59
    },
    {
      "midi": 69,
      "hit": false,
      "t": 14571.388499999995,
      "d": 285.71349999999984,
      "v": 71
    },
    {
      "midi": 47,
      "hit": false,
      "t": 14857.101999999995,
      "d": 285.71349999999984,
      "v": 60
    },
    {
      "midi": 74,
      "hit": false,
      "t": 14857.101999999995,
      "d": 285.71349999999984,
      "v": 75
    },
    {
      "midi": 67,
      "hit": false,
      "t": 14857.101999999995,
      "d": 571.4269999999997,
      "v": 67
    },
    {
      "midi": 50,
      "hit": false,
      "t": 15142.815499999995,
      "d": 285.71349999999984,
      "v": 62
    },
    {
      "midi": 74,
      "hit": false,
      "t": 15142.815499999995,
      "d": 285.71349999999984,
      "v": 73
    },
    {
      "midi": 55,
      "hit": false,
      "t": 15428.528999999995,
      "d": 285.71349999999984,
      "v": 61
    },
    {
      "midi": 74,
      "hit": false,
      "t": 15428.528999999995,
      "d": 285.71349999999984,
      "v": 72
    },
    {
      "midi": 67,
      "hit": false,
      "t": 15428.528999999995,
      "d": 571.4269999999997,
      "v": 62
    },
    {
      "midi": 50,
      "hit": false,
      "t": 15714.242499999995,
      "d": 285.71349999999984,
      "v": 60
    },
    {
      "midi": 74,
      "hit": false,
      "t": 15714.242499999995,
      "d": 285.71349999999984,
      "v": 70
    },
    {
      "midi": 45,
      "hit": false,
      "t": 15999.955999999995,
      "d": 285.71349999999984,
      "v": 57
    },
    {
      "midi": 76,
      "hit": false,
      "t": 15999.955999999995,
      "d": 285.71349999999984,
      "v": 73
    },
    {
      "midi": 66,
      "hit": false,
      "t": 15999.955999999995,
      "d": 571.4269999999997,
      "v": 61
    },
    {
      "midi": 50,
      "hit": false,
      "t": 16285.669499999995,
      "d": 285.71349999999984,
      "v": 62
    },
    {
      "midi": 74,
      "hit": false,
      "t": 16285.669499999995,
      "d": 285.71349999999984,
      "v": 69
    },
    {
      "midi": 54,
      "hit": false,
      "t": 16571.382999999994,
      "d": 285.71350000000166,
      "v": 62
    },
    {
      "midi": 72,
      "hit": false,
      "t": 16571.382999999994,
      "d": 285.71350000000166,
      "v": 69
    },
    {
      "midi": 66,
      "hit": false,
      "t": 16571.382999999994,
      "d": 571.4270000000033,
      "v": 63
    },
    {
      "midi": 50,
      "hit": false,
      "t": 16857.096499999996,
      "d": 285.71350000000166,
      "v": 59
    },
    {
      "midi": 69,
      "hit": false,
      "t": 16857.096499999996,
      "d": 285.71350000000166,
      "v": 69
    },
    {
      "midi": 43,
      "hit": false,
      "t": 17142.809999999998,
      "d": 285.71350000000166,
      "v": 59
    },
    {
      "midi": 62,
      "hit": false,
      "t": 17142.809999999998,
      "d": 571.4270000000033,
      "v": 58
    },
    {
      "midi": 67,
      "hit": false,
      "t": 17142.809999999998,
      "d": 571.4270000000033,
      "v": 70
    },
    {
      "midi": 50,
      "hit": false,
      "t": 17428.5235,
      "d": 285.71350000000166,
      "v": 62
    },
    {
      "midi": 55,
      "hit": false,
      "t": 17714.237,
      "d": 571.4269999999997,
      "v": 63
    },
    {
      "midi": 67,
      "hit": false,
      "t": 17714.237,
      "d": 571.4269999999997,
      "v": 65
    },
    {
      "midi": 74,
      "hit": false,
      "t": 17714.237,
      "d": 571.4269999999997,
      "v": 77
    },
    {
      "midi": 67,
      "hit": false,
      "t": 18285.664,
      "d": 285.71350000000166,
      "v": 69
    },
    {
      "midi": 71,
      "hit": false,
      "t": 18285.664,
      "d": 285.71350000000166,
      "v": 69
    },
    {
      "midi": 43,
      "hit": false,
      "t": 18285.664,
      "d": 857.140500000005,
      "v": 55
    },
    {
      "midi": 67,
      "hit": false,
      "t": 18571.377500000002,
      "d": 285.71350000000166,
      "v": 74
    },
    {
      "midi": 71,
      "hit": false,
      "t": 18571.377500000002,
      "d": 285.71350000000166,
      "v": 74
    },
    {
      "midi": 67,
      "hit": false,
      "t": 18857.091000000004,
      "d": 571.4270000000033,
      "v": 70
    },
    {
      "midi": 71,
      "hit": false,
      "t": 18857.091000000004,
      "d": 571.4270000000033,
      "v": 70
    },
    {
      "midi": 50,
      "hit": false,
      "t": 19142.804500000006,
      "d": 285.71350000000166,
      "v": 64
    },
    {
      "midi": 67,
      "hit": false,
      "t": 19428.518000000007,
      "d": 285.71350000000166,
      "v": 72
    },
    {
      "midi": 71,
      "hit": false,
      "t": 19428.518000000007,
      "d": 285.71350000000166,
      "v": 72
    },
    {
      "midi": 55,
      "hit": false,
      "t": 19428.518000000007,
      "d": 857.140500000005,
      "v": 64
    },
    {
      "midi": 67,
      "hit": false,
      "t": 19714.23150000001,
      "d": 285.71350000000166,
      "v": 70
    },
    {
      "midi": 71,
      "hit": false,
      "t": 19714.23150000001,
      "d": 285.71350000000166,
      "v": 70
    },
    {
      "midi": 67,
      "hit": false,
      "t": 19999.94500000001,
      "d": 571.4270000000033,
      "v": 72
    },
    {
      "midi": 71,
      "hit": false,
      "t": 19999.94500000001,
      "d": 571.4270000000033,
      "v": 72
    },
    {
      "midi": 50,
      "hit": false,
      "t": 20285.658500000012,
      "d": 285.71350000000166,
      "v": 58
    },
    {
      "midi": 43,
      "hit": false,
      "t": 20571.372000000014,
      "d": 285.71350000000166,
      "v": 57
    },
    {
      "midi": 71,
      "hit": false,
      "t": 20571.372000000014,
      "d": 285.71350000000166,
      "v": 70
    },
    {
      "midi": 67,
      "hit": false,
      "t": 20571.372000000014,
      "d": 571.4270000000033,
      "v": 62
    },
    {
      "midi": 50,
      "hit": false,
      "t": 20857.085500000016,
      "d": 285.71350000000166,
      "v": 64
    },
    {
      "midi": 74,
      "hit": false,
      "t": 20857.085500000016,
      "d": 285.71350000000166,
      "v": 73
    },
    {
      "midi": 67,
      "hit": false,
      "t": 21142.799000000017,
      "d": 428.57025000000067,
      "v": 64
    },
    {
      "midi": 48,
      "hit": false,
      "t": 21142.799000000017,
      "d": 571.4269999999997,
      "v": 62
    },
    {
      "midi": 52,
      "hit": false,
      "t": 21142.799000000017,
      "d": 571.4269999999997,
      "v": 62
    },
    {
      "midi": 64,
      "hit": false,
      "t": 21142.799000000017,
      "d": 571.4269999999997,
      "v": 59
    },
    {
      "midi": 69,
      "hit": false,
      "t": 21571.369250000018,
      "d": 142.856749999999,
      "v": 73
    },
    {
      "midi": 43,
      "hit": false,
      "t": 21714.226000000017,
      "d": 285.71350000000166,
      "v": 56
    },
    {
      "midi": 62,
      "hit": false,
      "t": 21714.226000000017,
      "d": 1142.854000000003,
      "v": 60
    },
    {
      "midi": 71,
      "hit": false,
      "t": 21714.226000000017,
      "d": 1142.854000000003,
      "v": 75
    },
    {
      "midi": 50,
      "hit": false,
      "t": 21999.93950000002,
      "d": 285.71350000000166,
      "v": 64
    },
    {
      "midi": 55,
      "hit": false,
      "t": 22285.65300000002,
      "d": 571.4269999999997,
      "v": 62
    },
    {
      "midi": 48,
      "hit": false,
      "t": 22857.08000000002,
      "d": 285.71350000000166,
      "v": 60
    },
    {
      "midi": 64,
      "hit": false,
      "t": 22857.08000000002,
      "d": 285.71350000000166,
      "v": 64
    },
    {
      "midi": 72,
      "hit": false,
      "t": 22857.08000000002,
      "d": 285.71350000000166,
      "v": 73
    },
    {
      "midi": 52,
      "hit": false,
      "t": 23142.79350000002,
      "d": 285.71350000000166,
      "v": 64
    },
    {
      "midi": 64,
      "hit": false,
      "t": 23142.79350000002,
      "d": 285.71350000000166,
      "v": 61
    },
    {
      "midi": 72,
      "hit": false,
      "t": 23142.79350000002,
      "d": 285.71350000000166,
      "v": 72
    },
    {
      "midi": 55,
      "hit": false,
      "t": 23428.507000000023,
      "d": 285.71350000000166,
      "v": 61
    },
    {
      "midi": 72,
      "hit": false,
      "t": 23428.507000000023,
      "d": 428.57025000000067,
      "v": 72
    },
    {
      "midi": 64,
      "hit": false,
      "t": 23428.507000000023,
      "d": 571.4269999999997,
      "v": 62
    },
    {
      "midi": 52,
      "hit": false,
      "t": 23714.220500000025,
      "d": 285.713499999998,
      "v": 60
    },
    {
      "midi": 72,
      "hit": false,
      "t": 23857.077250000024,
      "d": 142.856749999999,
      "v": 71
    },
    {
      "midi": 47,
      "hit": false,
      "t": 23999.934000000023,
      "d": 285.71350000000166,
      "v": 58
    },
    {
      "midi": 72,
      "hit": false,
      "t": 23999.934000000023,
      "d": 285.71350000000166,
      "v": 73
    },
    {
      "midi": 62,
      "hit": false,
      "t": 23999.934000000023,
      "d": 571.4270000000033,
      "v": 58
    },
    {
      "midi": 50,
      "hit": false,
      "t": 24285.647500000025,
      "d": 285.71350000000166,
      "v": 61
    },
    {
      "midi": 71,
      "hit": false,
      "t": 24285.647500000025,
      "d": 285.71350000000166,
      "v": 70
    },
    {
      "midi": 55,
      "hit": false,
      "t": 24571.361000000026,
      "d": 285.71350000000166,
      "v": 60
    },
    {
      "midi": 71,
      "hit": false,
      "t": 24571.361000000026,
      "d": 285.71350000000166,
      "v": 72
    },
    {
      "midi": 62,
      "hit": false,
      "t": 24571.361000000026,
      "d": 571.4269999999997,
      "v": 61
    },
    {
      "midi": 71,
      "hit": false,
      "t": 24857.074500000028,
      "d": 142.856749999999,
      "v": 70
    },
    {
      "midi": 50,
      "hit": false,
      "t": 24857.074500000028,
      "d": 285.713499999998,
      "v": 58
    },
    {
      "midi": 71,
      "hit": false,
      "t": 24999.931250000027,
      "d": 142.856749999999,
      "v": 71
    },
    {
      "midi": 45,
      "hit": false,
      "t": 25142.788000000026,
      "d": 285.71350000000166,
      "v": 59
    },
    {
      "midi": 71,
      "hit": false,
      "t": 25142.788000000026,
      "d": 285.71350000000166,
      "v": 70
    },
    {
      "midi": 61,
      "hit": false,
      "t": 25142.788000000026,
      "d": 571.4270000000033,
      "v": 59
    },
    {
      "midi": 52,
      "hit": false,
      "t": 25428.501500000028,
      "d": 285.71350000000166,
      "v": 61
    },
    {
      "midi": 69,
      "hit": false,
      "t": 25428.501500000028,
      "d": 285.71350000000166,
      "v": 67
    },
    {
      "midi": 57,
      "hit": false,
      "t": 25714.21500000003,
      "d": 285.71350000000166,
      "v": 62
    },
    {
      "midi": 69,
      "hit": false,
      "t": 25714.21500000003,
      "d": 285.71350000000166,
      "v": 71
    },
    {
      "midi": 61,
      "hit": false,
      "t": 25714.21500000003,
      "d": 571.4270000000033,
      "v": 61
    },
    {
      "midi": 52,
      "hit": false,
      "t": 25999.92850000003,
      "d": 285.71350000000166,
      "v": 60
    },
    {
      "midi": 71,
      "hit": false,
      "t": 25999.92850000003,
      "d": 285.71350000000166,
      "v": 73
    },
    {
      "midi": 50,
      "hit": false,
      "t": 26285.642000000033,
      "d": 285.71350000000166,
      "v": 61
    },
    {
      "midi": 62,
      "hit": false,
      "t": 26285.642000000033,
      "d": 571.4270000000033,
      "v": 63
    },
    {
      "midi": 69,
      "hit": false,
      "t": 26285.642000000033,
      "d": 571.4270000000033,
      "v": 71
    },
    {
      "midi": 54,
      "hit": false,
      "t": 26571.355500000034,
      "d": 285.71350000000166,
      "v": 62
    },
    {
      "midi": 57,
      "hit": false,
      "t": 26857.069000000036,
      "d": 285.71350000000166,
      "v": 64
    },
    {
      "midi": 66,
      "hit": false,
      "t": 26857.069000000036,
      "d": 571.4270000000033,
      "v": 64
    },
    {
      "midi": 74,
      "hit": false,
      "t": 26857.069000000036,
      "d": 571.4270000000033,
      "v": 74
    },
    {
      "midi": 54,
      "hit": false,
      "t": 27142.782500000038,
      "d": 285.71350000000166,
      "v": 58
    },
    {
      "midi": 67,
      "hit": false,
      "t": 27428.49600000004,
      "d": 285.71350000000166,
      "v": 68
    },
    {
      "midi": 71,
      "hit": false,
      "t": 27428.49600000004,
      "d": 285.71350000000166,
      "v": 68
    },
    {
      "midi": 43,
      "hit": false,
      "t": 27428.49600000004,
      "d": 857.140500000005,
      "v": 57
    },
    {
      "midi": 67,
      "hit": false,
      "t": 27714.20950000004,
      "d": 285.71350000000166,
      "v": 71
    },
    {
      "midi": 71,
      "hit": false,
      "t": 27714.20950000004,
      "d": 285.71350000000166,
      "v": 71
    },
    {
      "midi": 67,
      "hit": false,
      "t": 27999.923000000043,
      "d": 571.4270000000033,
      "v": 71
    },
    {
      "midi": 71,
      "hit": false,
      "t": 27999.923000000043,
      "d": 571.4270000000033,
      "v": 71
    },
    {
      "midi": 50,
      "hit": false,
      "t": 28285.636500000044,
      "d": 285.71350000000166,
      "v": 63
    },
    {
      "midi": 67,
      "hit": false,
      "t": 28571.350000000046,
      "d": 285.71350000000166,
      "v": 71
    },
    {
      "midi": 71,
      "hit": false,
      "t": 28571.350000000046,
      "d": 285.71350000000166,
      "v": 71
    },
    {
      "midi": 55,
      "hit": false,
      "t": 28571.350000000046,
      "d": 857.140500000005,
      "v": 62
    },
    {
      "midi": 67,
      "hit": false,
      "t": 28857.063500000047,
      "d": 285.71350000000166,
      "v": 71
    },
    {
      "midi": 71,
      "hit": false,
      "t": 28857.063500000047,
      "d": 285.71350000000166,
      "v": 71
    },
    {
      "midi": 67,
      "hit": false,
      "t": 29142.77700000005,
      "d": 571.4270000000033,
      "v": 71
    },
    {
      "midi": 71,
      "hit": false,
      "t": 29142.77700000005,
      "d": 571.4270000000033,
      "v": 71
    },
    {
      "midi": 50,
      "hit": false,
      "t": 29428.49050000005,
      "d": 285.71350000000166,
      "v": 58
    },
    {
      "midi": 43,
      "hit": false,
      "t": 29714.204000000052,
      "d": 285.71350000000166,
      "v": 60
    },
    {
      "midi": 71,
      "hit": false,
      "t": 29714.204000000052,
      "d": 285.71350000000166,
      "v": 71
    },
    {
      "midi": 67,
      "hit": false,
      "t": 29714.204000000052,
      "d": 571.4270000000033,
      "v": 61
    },
    {
      "midi": 50,
      "hit": false,
      "t": 29999.917500000054,
      "d": 285.71350000000166,
      "v": 62
    },
    {
      "midi": 74,
      "hit": false,
      "t": 29999.917500000054,
      "d": 285.71350000000166,
      "v": 73
    },
    {
      "midi": 67,
      "hit": false,
      "t": 30285.631000000056,
      "d": 428.57025000000067,
      "v": 62
    },
    {
      "midi": 48,
      "hit": false,
      "t": 30285.631000000056,
      "d": 571.4269999999997,
      "v": 61
    },
    {
      "midi": 52,
      "hit": false,
      "t": 30285.631000000056,
      "d": 571.4269999999997,
      "v": 61
    },
    {
      "midi": 64,
      "hit": false,
      "t": 30285.631000000056,
      "d": 571.4269999999997,
      "v": 58
    },
    {
      "midi": 69,
      "hit": false,
      "t": 30714.201250000056,
      "d": 142.856749999999,
      "v": 74
    },
    {
      "midi": 43,
      "hit": false,
      "t": 30857.058000000055,
      "d": 285.71350000000166,
      "v": 56
    },
    {
      "midi": 62,
      "hit": false,
      "t": 30857.058000000055,
      "d": 1142.854000000003,
      "v": 58
    },
    {
      "midi": 71,
      "hit": false,
      "t": 30857.058000000055,
      "d": 1142.854000000003,
      "v": 73
    },
    {
      "midi": 50,
      "hit": false,
      "t": 31142.771500000057,
      "d": 285.71350000000166,
      "v": 66
    },
    {
      "midi": 55,
      "hit": false,
      "t": 31428.48500000006,
      "d": 571.4269999999997,
      "v": 65
    },
    {
      "midi": 48,
      "hit": false,
      "t": 31999.91200000006,
      "d": 285.71350000000166,
      "v": 57
    },
    {
      "midi": 64,
      "hit": false,
      "t": 31999.91200000006,
      "d": 285.71350000000166,
      "v": 64
    },
    {
      "midi": 72,
      "hit": false,
      "t": 31999.91200000006,
      "d": 285.71350000000166,
      "v": 73
    },
    {
      "midi": 52,
      "hit": false,
      "t": 32285.62550000006,
      "d": 285.71350000000166,
      "v": 64
    },
    {
      "midi": 64,
      "hit": false,
      "t": 32285.62550000006,
      "d": 285.71350000000166,
      "v": 62
    },
    {
      "midi": 72,
      "hit": false,
      "t": 32285.62550000006,
      "d": 285.71350000000166,
      "v": 69
    },
    {
      "midi": 55,
      "hit": false,
      "t": 32571.33900000006,
      "d": 285.71350000000166,
      "v": 62
    },
    {
      "midi": 72,
      "hit": false,
      "t": 32571.33900000006,
      "d": 428.57025000000067,
      "v": 73
    },
    {
      "midi": 64,
      "hit": false,
      "t": 32571.33900000006,
      "d": 571.4269999999997,
      "v": 62
    },
    {
      "midi": 52,
      "hit": false,
      "t": 32857.05250000006,
      "d": 285.713499999998,
      "v": 60
    },
    {
      "midi": 72,
      "hit": false,
      "t": 32999.90925000006,
      "d": 142.856749999999,
      "v": 72
    },
    {
      "midi": 47,
      "hit": false,
      "t": 33142.76600000006,
      "d": 285.713499999998,
      "v": 60
    },
    {
      "midi": 72,
      "hit": false,
      "t": 33142.76600000006,
      "d": 285.713499999998,
      "v": 72
    },
    {
      "midi": 62,
      "hit": false,
      "t": 33142.76600000006,
      "d": 571.426999999996,
      "v": 59
    },
    {
      "midi": 50,
      "hit": false,
      "t": 33428.47950000006,
      "d": 285.713499999998,
      "v": 62
    },
    {
      "midi": 71,
      "hit": false,
      "t": 33428.47950000006,
      "d": 285.713499999998,
      "v": 69
    },
    {
      "midi": 55,
      "hit": false,
      "t": 33714.19300000006,
      "d": 285.713499999998,
      "v": 64
    },
    {
      "midi": 71,
      "hit": false,
      "t": 33714.19300000006,
      "d": 285.713499999998,
      "v": 71
    },
    {
      "midi": 62,
      "hit": false,
      "t": 33714.19300000006,
      "d": 571.426999999996,
      "v": 61
    },
    {
      "midi": 71,
      "hit": false,
      "t": 33999.906500000056,
      "d": 142.856749999999,
      "v": 73
    },
    {
      "midi": 50,
      "hit": false,
      "t": 33999.906500000056,
      "d": 285.713499999998,
      "v": 58
    },
    {
      "midi": 71,
      "hit": false,
      "t": 34142.763250000055,
      "d": 142.856749999999,
      "v": 72
    },
    {
      "midi": 45,
      "hit": false,
      "t": 34285.62000000005,
      "d": 285.713499999998,
      "v": 58
    },
    {
      "midi": 74,
      "hit": false,
      "t": 34285.62000000005,
      "d": 285.713499999998,
      "v": 74
    },
    {
      "midi": 66,
      "hit": false,
      "t": 34285.62000000005,
      "d": 571.426999999996,
      "v": 66
    },
    {
      "midi": 50,
      "hit": false,
      "t": 34571.33350000005,
      "d": 285.713499999998,
      "v": 61
    },
    {
      "midi": 74,
      "hit": false,
      "t": 34571.33350000005,
      "d": 285.713499999998,
      "v": 72
    },
    {
      "midi": 54,
      "hit": false,
      "t": 34857.04700000005,
      "d": 285.713499999998,
      "v": 61
    },
    {
      "midi": 72,
      "hit": false,
      "t": 34857.04700000005,
      "d": 285.713499999998,
      "v": 67
    },
    {
      "midi": 62,
      "hit": false,
      "t": 34857.04700000005,
      "d": 571.426999999996,
      "v": 56
    },
    {
      "midi": 50,
      "hit": false,
      "t": 35142.76050000005,
      "d": 285.713499999998,
      "v": 62
    },
    {
      "midi": 69,
      "hit": false,
      "t": 35142.76050000005,
      "d": 285.713499999998,
      "v": 69
    },
    {
      "midi": 43,
      "hit": false,
      "t": 35428.474000000046,
      "d": 285.713499999998,
      "v": 58
    },
    {
      "midi": 59,
      "hit": false,
      "t": 35428.474000000046,
      "d": 1142.8539999999994,
      "v": 60
    },
    {
      "midi": 67,
      "hit": false,
      "t": 35428.474000000046,
      "d": 1142.8539999999994,
      "v": 69
    },
    {
      "midi": 50,
      "hit": false,
      "t": 35714.187500000044,
      "d": 285.713499999998,
      "v": 61
    },
    {
      "midi": 55,
      "hit": false,
      "t": 35999.90100000004,
      "d": 571.4270000000033,
      "v": 63
    },
    {
      "midi": 43,
      "hit": false,
      "t": 36571.328000000045,
      "d": 285.713499999998,
      "v": 55
    },
    {
      "midi": 62,
      "hit": false,
      "t": 36571.328000000045,
      "d": 285.713499999998,
      "v": 65
    },
    {
      "midi": 59,
      "hit": false,
      "t": 36571.328000000045,
      "d": 1142.853999999992,
      "v": 59
    },
    {
      "midi": 50,
      "hit": false,
      "t": 36857.04150000004,
      "d": 285.713499999998,
      "v": 63
    },
    {
      "midi": 71,
      "hit": false,
      "t": 36857.04150000004,
      "d": 285.713499999998,
      "v": 78
    },
    {
      "midi": 55,
      "hit": false,
      "t": 37142.75500000004,
      "d": 285.713499999998,
      "v": 64
    },
    {
      "midi": 69,
      "hit": false,
      "t": 37142.75500000004,
      "d": 285.713499999998,
      "v": 70
    },
    {
      "midi": 50,
      "hit": false,
      "t": 37428.46850000004,
      "d": 285.713499999998,
      "v": 57
    },
    {
      "midi": 67,
      "hit": false,
      "t": 37428.46850000004,
      "d": 285.713499999998,
      "v": 70
    },
    {
      "midi": 43,
      "hit": false,
      "t": 37714.18200000004,
      "d": 285.713499999998,
      "v": 59
    },
    {
      "midi": 62,
      "hit": false,
      "t": 37714.18200000004,
      "d": 857.1404999999941,
      "v": 65
    },
    {
      "midi": 59,
      "hit": false,
      "t": 37714.18200000004,
      "d": 1142.853999999992,
      "v": 61
    },
    {
      "midi": 50,
      "hit": false,
      "t": 37999.895500000035,
      "d": 285.713499999998,
      "v": 63
    },
    {
      "midi": 55,
      "hit": false,
      "t": 38285.60900000003,
      "d": 285.713499999998,
      "v": 65
    },
    {
      "midi": 62,
      "hit": false,
      "t": 38571.32250000003,
      "d": 142.856749999999,
      "v": 70
    },
    {
      "midi": 50,
      "hit": false,
      "t": 38571.32250000003,
      "d": 285.713499999998,
      "v": 59
    },
    {
      "midi": 62,
      "hit": false,
      "t": 38714.17925000003,
      "d": 142.856749999999,
      "v": 70
    },
    {
      "midi": 43,
      "hit": false,
      "t": 38857.03600000003,
      "d": 285.713499999998,
      "v": 59
    },
    {
      "midi": 62,
      "hit": false,
      "t": 38857.03600000003,
      "d": 285.713499999998,
      "v": 71
    },
    {
      "midi": 59,
      "hit": false,
      "t": 38857.03600000003,
      "d": 1142.853999999992,
      "v": 62
    },
    {
      "midi": 50,
      "hit": false,
      "t": 39142.74950000003,
      "d": 285.713499999998,
      "v": 62
    },
    {
      "midi": 71,
      "hit": false,
      "t": 39142.74950000003,
      "d": 285.713499999998,
      "v": 80
    },
    {
      "midi": 55,
      "hit": false,
      "t": 39428.463000000025,
      "d": 285.713499999998,
      "v": 63
    },
    {
      "midi": 69,
      "hit": false,
      "t": 39428.463000000025,
      "d": 285.713499999998,
      "v": 70
    },
    {
      "midi": 50,
      "hit": false,
      "t": 39714.17650000002,
      "d": 285.713499999998,
      "v": 60
    },
    {
      "midi": 67,
      "hit": false,
      "t": 39714.17650000002,
      "d": 285.713499999998,
      "v": 68
    },
    {
      "midi": 48,
      "hit": false,
      "t": 39999.89000000002,
      "d": 285.713499999998,
      "v": 60
    },
    {
      "midi": 60,
      "hit": false,
      "t": 39999.89000000002,
      "d": 1142.853999999992,
      "v": 64
    },
    {
      "midi": 64,
      "hit": false,
      "t": 39999.89000000002,
      "d": 1142.853999999992,
      "v": 69
    },
    {
      "midi": 52,
      "hit": false,
      "t": 40285.60350000002,
      "d": 285.713499999998,
      "v": 64
    },
    {
      "midi": 55,
      "hit": false,
      "t": 40571.31700000002,
      "d": 285.713499999998,
      "v": 61
    },
    {
      "midi": 52,
      "hit": false,
      "t": 40857.030500000015,
      "d": 285.713499999998,
      "v": 59
    },
    {
      "midi": 45,
      "hit": false,
      "t": 41142.74400000001,
      "d": 285.713499999998,
      "v": 59
    },
    {
      "midi": 64,
      "hit": false,
      "t": 41142.74400000001,
      "d": 285.713499999998,
      "v": 69
    },
    {
      "midi": 60,
      "hit": false,
      "t": 41142.74400000001,
      "d": 1142.853999999992,
      "v": 62
    },
    {
      "midi": 52,
      "hit": false,
      "t": 41428.45750000001,
      "d": 285.713499999998,
      "v": 64
    },
    {
      "midi": 72,
      "hit": false,
      "t": 41428.45750000001,
      "d": 285.713499999998,
      "v": 78
    },
    {
      "midi": 57,
      "hit": false,
      "t": 41714.17100000001,
      "d": 285.713499999998,
      "v": 62
    },
    {
      "midi": 71,
      "hit": false,
      "t": 41714.17100000001,
      "d": 285.713499999998,
      "v": 71
    },
    {
      "midi": 52,
      "hit": false,
      "t": 41999.88450000001,
      "d": 285.713499999998,
      "v": 59
    },
    {
      "midi": 69,
      "hit": false,
      "t": 41999.88450000001,
      "d": 285.713499999998,
      "v": 66
    },
    {
      "midi": 50,
      "hit": false,
      "t": 42285.598000000005,
      "d": 285.713499999998,
      "v": 59
    },
    {
      "midi": 62,
      "hit": false,
      "t": 42285.598000000005,
      "d": 1142.853999999992,
      "v": 62
    },
    {
      "midi": 66,
      "hit": false,
      "t": 42285.598000000005,
      "d": 1142.853999999992,
      "v": 68
    },
    {
      "midi": 54,
      "hit": false,
      "t": 42571.3115,
      "d": 285.713499999998,
      "v": 65
    },
    {
      "midi": 57,
      "hit": false,
      "t": 42857.025,
      "d": 285.713499999998,
      "v": 61
    },
    {
      "midi": 54,
      "hit": false,
      "t": 43142.7385,
      "d": 285.713499999998,
      "v": 65
    },
    {
      "midi": 50,
      "hit": false,
      "t": 43428.452,
      "d": 285.713499999998,
      "v": 61
    },
    {
      "midi": 74,
      "hit": false,
      "t": 43428.452,
      "d": 285.713499999998,
      "v": 78
    },
    {
      "midi": 66,
      "hit": false,
      "t": 43428.452,
      "d": 571.426999999996,
      "v": 64
    },
    {
      "midi": 54,
      "hit": false,
      "t": 43714.165499999996,
      "d": 285.713499999998,
      "v": 62
    },
    {
      "midi": 74,
      "hit": false,
      "t": 43714.165499999996,
      "d": 285.713499999998,
      "v": 71
    },
    {
      "midi": 57,
      "hit": false,
      "t": 43999.87899999999,
      "d": 285.713499999998,
      "v": 61
    },
    {
      "midi": 72,
      "hit": false,
      "t": 43999.87899999999,
      "d": 285.713499999998,
      "v": 72
    },
    {
      "midi": 66,
      "hit": false,
      "t": 43999.87899999999,
      "d": 571.426999999996,
      "v": 60
    },
    {
      "midi": 50,
      "hit": false,
      "t": 44285.59249999999,
      "d": 285.713499999998,
      "v": 59
    },
    {
      "midi": 69,
      "hit": false,
      "t": 44285.59249999999,
      "d": 285.713499999998,
      "v": 67
    },
    {
      "midi": 43,
      "hit": false,
      "t": 44571.30599999999,
      "d": 285.713499999998,
      "v": 62
    },
    {
      "midi": 67,
      "hit": false,
      "t": 44571.30599999999,
      "d": 1142.853999999992,
      "v": 62
    },
    {
      "midi": 71,
      "hit": false,
      "t": 44571.30599999999,
      "d": 1142.853999999992,
      "v": 74
    },
    {
      "midi": 50,
      "hit": false,
      "t": 44857.01949999999,
      "d": 285.713499999998,
      "v": 63
    },
    {
      "midi": 55,
      "hit": false,
      "t": 45142.732999999986,
      "d": 285.713499999998,
      "v": 64
    },
    {
      "midi": 50,
      "hit": false,
      "t": 45428.446499999984,
      "d": 285.713499999998,
      "v": 61
    },
    {
      "midi": 43,
      "hit": false,
      "t": 45714.15999999998,
      "d": 285.713499999998,
      "v": 57
    },
    {
      "midi": 62,
      "hit": false,
      "t": 45714.15999999998,
      "d": 285.713499999998,
      "v": 61
    },
    {
      "midi": 59,
      "hit": false,
      "t": 45714.15999999998,
      "d": 1142.853999999992,
      "v": 59
    },
    {
      "midi": 50,
      "hit": false,
      "t": 45999.87349999998,
      "d": 285.713499999998,
      "v": 63
    },
    {
      "midi": 71,
      "hit": false,
      "t": 45999.87349999998,
      "d": 285.713499999998,
      "v": 80
    },
    {
      "midi": 55,
      "hit": false,
      "t": 46285.58699999998,
      "d": 285.713499999998,
      "v": 63
    },
    {
      "midi": 69,
      "hit": false,
      "t": 46285.58699999998,
      "d": 285.713499999998,
      "v": 69
    },
    {
      "midi": 50,
      "hit": false,
      "t": 46571.300499999976,
      "d": 285.713499999998,
      "v": 59
    },
    {
      "midi": 67,
      "hit": false,
      "t": 46571.300499999976,
      "d": 285.713499999998,
      "v": 69
    },
    {
      "midi": 43,
      "hit": false,
      "t": 46857.013999999974,
      "d": 285.713499999998,
      "v": 61
    },
    {
      "midi": 62,
      "hit": false,
      "t": 46857.013999999974,
      "d": 857.1404999999941,
      "v": 66
    },
    {
      "midi": 59,
      "hit": false,
      "t": 46857.013999999974,
      "d": 1142.853999999992,
      "v": 61
    },
    {
      "midi": 50,
      "hit": false,
      "t": 47142.72749999997,
      "d": 285.713499999998,
      "v": 61
    },
    {
      "midi": 55,
      "hit": false,
      "t": 47428.44099999997,
      "d": 285.713499999998,
      "v": 63
    },
    {
      "midi": 62,
      "hit": false,
      "t": 47714.15449999997,
      "d": 142.856749999999,
      "v": 72
    },
    {
      "midi": 50,
      "hit": false,
      "t": 47714.15449999997,
      "d": 285.713499999998,
      "v": 59
    },
    {
      "midi": 62,
      "hit": false,
      "t": 47857.01124999997,
      "d": 142.856749999999,
      "v": 72
    },
    {
      "midi": 43,
      "hit": false,
      "t": 47999.867999999966,
      "d": 285.713499999998,
      "v": 59
    },
    {
      "midi": 62,
      "hit": false,
      "t": 47999.867999999966,
      "d": 285.713499999998,
      "v": 73
    },
    {
      "midi": 59,
      "hit": false,
      "t": 47999.867999999966,
      "d": 1142.853999999992,
      "v": 58
    },
    {
      "midi": 50,
      "hit": false,
      "t": 48285.581499999964,
      "d": 285.713499999998,
      "v": 66
    },
    {
      "midi": 71,
      "hit": false,
      "t": 48285.581499999964,
      "d": 285.713499999998,
      "v": 77
    },
    {
      "midi": 55,
      "hit": false,
      "t": 48571.29499999996,
      "d": 285.713499999998,
      "v": 64
    },
    {
      "midi": 69,
      "hit": false,
      "t": 48571.29499999996,
      "d": 285.713499999998,
      "v": 69
    },
    {
      "midi": 50,
      "hit": false,
      "t": 48857.00849999996,
      "d": 285.713499999998,
      "v": 57
    },
    {
      "midi": 67,
      "hit": false,
      "t": 48857.00849999996,
      "d": 285.713499999998,
      "v": 69
    },
    {
      "midi": 48,
      "hit": false,
      "t": 49142.72199999996,
      "d": 285.713499999998,
      "v": 62
    },
    {
      "midi": 60,
      "hit": false,
      "t": 49142.72199999996,
      "d": 1142.853999999992,
      "v": 62
    },
    {
      "midi": 64,
      "hit": false,
      "t": 49142.72199999996,
      "d": 1142.853999999992,
      "v": 68
    },
    {
      "midi": 52,
      "hit": false,
      "t": 49428.435499999956,
      "d": 285.713499999998,
      "v": 61
    },
    {
      "midi": 55,
      "hit": false,
      "t": 49714.148999999954,
      "d": 285.713499999998,
      "v": 63
    },
    {
      "midi": 52,
      "hit": false,
      "t": 49999.86249999995,
      "d": 285.713499999998,
      "v": 58
    },
    {
      "midi": 45,
      "hit": false,
      "t": 50285.57599999995,
      "d": 285.713499999998,
      "v": 59
    },
    {
      "midi": 64,
      "hit": false,
      "t": 50285.57599999995,
      "d": 285.713499999998,
      "v": 73
    },
    {
      "midi": 60,
      "hit": false,
      "t": 50285.57599999995,
      "d": 1142.853999999992,
      "v": 63
    },
    {
      "midi": 52,
      "hit": false,
      "t": 50571.28949999995,
      "d": 285.713499999998,
      "v": 62
    },
    {
      "midi": 72,
      "hit": false,
      "t": 50571.28949999995,
      "d": 285.713499999998,
      "v": 77
    },
    {
      "midi": 57,
      "hit": false,
      "t": 50857.002999999946,
      "d": 285.713499999998,
      "v": 61
    },
    {
      "midi": 71,
      "hit": false,
      "t": 50857.002999999946,
      "d": 285.713499999998,
      "v": 73
    },
    {
      "midi": 52,
      "hit": false,
      "t": 51142.716499999944,
      "d": 285.713499999998,
      "v": 56
    },
    {
      "midi": 69,
      "hit": false,
      "t": 51142.716499999944,
      "d": 285.713499999998,
      "v": 68
    },
    {
      "midi": 47,
      "hit": false,
      "t": 51428.42999999994,
      "d": 285.713499999998,
      "v": 58
    },
    {
      "midi": 74,
      "hit": false,
      "t": 51428.42999999994,
      "d": 285.713499999998,
      "v": 77
    },
    {
      "midi": 67,
      "hit": false,
      "t": 51428.42999999994,
      "d": 571.426999999996,
      "v": 65
    },
    {
      "midi": 50,
      "hit": false,
      "t": 51714.14349999994,
      "d": 285.713499999998,
      "v": 61
    },
    {
      "midi": 74,
      "hit": false,
      "t": 51714.14349999994,
      "d": 285.713499999998,
      "v": 74
    },
    {
      "midi": 55,
      "hit": false,
      "t": 51999.85699999994,
      "d": 285.713499999998,
      "v": 63
    },
    {
      "midi": 74,
      "hit": false,
      "t": 51999.85699999994,
      "d": 285.713499999998,
      "v": 74
    },
    {
      "midi": 67,
      "hit": false,
      "t": 51999.85699999994,
      "d": 571.426999999996,
      "v": 62
    },
    {
      "midi": 50,
      "hit": false,
      "t": 52285.570499999936,
      "d": 285.713499999998,
      "v": 61
    },
    {
      "midi": 74,
      "hit": false,
      "t": 52285.570499999936,
      "d": 285.713499999998,
      "v": 71
    },
    {
      "midi": 45,
      "hit": false,
      "t": 52571.283999999934,
      "d": 285.713499999998,
      "v": 59
    },
    {
      "midi": 76,
      "hit": false,
      "t": 52571.283999999934,
      "d": 285.713499999998,
      "v": 74
    },
    {
      "midi": 66,
      "hit": false,
      "t": 52571.283999999934,
      "d": 571.426999999996,
      "v": 57
    },
    {
      "midi": 50,
      "hit": false,
      "t": 52856.99749999993,
      "d": 285.713499999998,
      "v": 62
    },
    {
      "midi": 74,
      "hit": false,
      "t": 52856.99749999993,
      "d": 285.713499999998,
      "v": 70
    },
    {
      "midi": 54,
      "hit": false,
      "t": 53142.71099999993,
      "d": 285.713499999998,
      "v": 64
    },
    {
      "midi": 72,
      "hit": false,
      "t": 53142.71099999993,
      "d": 285.713499999998,
      "v": 69
    },
    {
      "midi": 66,
      "hit": false,
      "t": 53142.71099999993,
      "d": 571.426999999996,
      "v": 60
    },
    {
      "midi": 50,
      "hit": false,
      "t": 53428.42449999993,
      "d": 285.713499999998,
      "v": 58
    },
    {
      "midi": 69,
      "hit": false,
      "t": 53428.42449999993,
      "d": 285.713499999998,
      "v": 69
    },
    {
      "midi": 43,
      "hit": false,
      "t": 53714.137999999926,
      "d": 285.713499999998,
      "v": 59
    },
    {
      "midi": 62,
      "hit": false,
      "t": 53714.137999999926,
      "d": 571.426999999996,
      "v": 56
    },
    {
      "midi": 67,
      "hit": false,
      "t": 53714.137999999926,
      "d": 571.426999999996,
      "v": 69
    },
    {
      "midi": 50,
      "hit": false,
      "t": 53999.851499999924,
      "d": 285.713499999998,
      "v": 64
    },
    {
      "midi": 55,
      "hit": false,
      "t": 54285.56499999992,
      "d": 571.4270000000033,
      "v": 65
    },
    {
      "midi": 67,
      "hit": false,
      "t": 54285.56499999992,
      "d": 571.4270000000033,
      "v": 64
    },
    {
      "midi": 74,
      "hit": false,
      "t": 54285.56499999992,
      "d": 571.4270000000033,
      "v": 76
    },
    {
      "midi": 67,
      "hit": false,
      "t": 54856.991999999926,
      "d": 285.713499999998,
      "v": 69
    },
    {
      "midi": 71,
      "hit": false,
      "t": 54856.991999999926,
      "d": 285.713499999998,
      "v": 69
    },
    {
      "midi": 43,
      "hit": false,
      "t": 54856.991999999926,
      "d": 857.1404999999941,
      "v": 60
    },
    {
      "midi": 67,
      "hit": false,
      "t": 55142.70549999992,
      "d": 285.713499999998,
      "v": 72
    },
    {
      "midi": 71,
      "hit": false,
      "t": 55142.70549999992,
      "d": 285.713499999998,
      "v": 72
    },
    {
      "midi": 67,
      "hit": false,
      "t": 55428.41899999992,
      "d": 571.426999999996,
      "v": 70
    },
    {
      "midi": 71,
      "hit": false,
      "t": 55428.41899999992,
      "d": 571.426999999996,
      "v": 70
    },
    {
      "midi": 50,
      "hit": false,
      "t": 55714.13249999992,
      "d": 285.713499999998,
      "v": 65
    },
    {
      "midi": 67,
      "hit": false,
      "t": 55999.84599999992,
      "d": 285.713499999998,
      "v": 70
    },
    {
      "midi": 71,
      "hit": false,
      "t": 55999.84599999992,
      "d": 285.713499999998,
      "v": 70
    },
    {
      "midi": 55,
      "hit": false,
      "t": 55999.84599999992,
      "d": 857.1404999999941,
      "v": 63
    },
    {
      "midi": 67,
      "hit": false,
      "t": 56285.559499999916,
      "d": 285.713499999998,
      "v": 71
    },
    {
      "midi": 71,
      "hit": false,
      "t": 56285.559499999916,
      "d": 285.713499999998,
      "v": 71
    },
    {
      "midi": 67,
      "hit": false,
      "t": 56571.272999999914,
      "d": 571.426999999996,
      "v": 72
    },
    {
      "midi": 71,
      "hit": false,
      "t": 56571.272999999914,
      "d": 571.426999999996,
      "v": 72
    },
    {
      "midi": 50,
      "hit": false,
      "t": 56856.98649999991,
      "d": 285.713499999998,
      "v": 60
    },
    {
      "midi": 43,
      "hit": false,
      "t": 57142.69999999991,
      "d": 285.713499999998,
      "v": 55
    },
    {
      "midi": 71,
      "hit": false,
      "t": 57142.69999999991,
      "d": 285.713499999998,
      "v": 71
    },
    {
      "midi": 67,
      "hit": false,
      "t": 57142.69999999991,
      "d": 571.426999999996,
      "v": 63
    },
    {
      "midi": 50,
      "hit": false,
      "t": 57428.41349999991,
      "d": 285.713499999998,
      "v": 63
    },
    {
      "midi": 74,
      "hit": false,
      "t": 57428.41349999991,
      "d": 285.713499999998,
      "v": 73
    },
    {
      "midi": 67,
      "hit": false,
      "t": 57714.126999999906,
      "d": 428.57024999999703,
      "v": 65
    },
    {
      "midi": 48,
      "hit": false,
      "t": 57714.126999999906,
      "d": 571.426999999996,
      "v": 64
    },
    {
      "midi": 52,
      "hit": false,
      "t": 57714.126999999906,
      "d": 571.426999999996,
      "v": 64
    },
    {
      "midi": 64,
      "hit": false,
      "t": 57714.126999999906,
      "d": 571.426999999996,
      "v": 59
    },
    {
      "midi": 69,
      "hit": false,
      "t": 58142.6972499999,
      "d": 142.856749999999,
      "v": 72
    },
    {
      "midi": 43,
      "hit": false,
      "t": 58285.5539999999,
      "d": 285.713499999998,
      "v": 59
    },
    {
      "midi": 62,
      "hit": false,
      "t": 58285.5539999999,
      "d": 1142.8539999999994,
      "v": 58
    },
    {
      "midi": 71,
      "hit": false,
      "t": 58285.5539999999,
      "d": 1142.8539999999994,
      "v": 74
    },
    {
      "midi": 50,
      "hit": false,
      "t": 58571.2674999999,
      "d": 285.713499999998,
      "v": 63
    },
    {
      "midi": 55,
      "hit": false,
      "t": 58856.9809999999,
      "d": 571.4270000000033,
      "v": 62
    },
    {
      "midi": 48,
      "hit": false,
      "t": 59428.4079999999,
      "d": 285.713499999998,
      "v": 59
    },
    {
      "midi": 64,
      "hit": false,
      "t": 59428.4079999999,
      "d": 285.713499999998,
      "v": 64
    },
    {
      "midi": 72,
      "hit": false,
      "t": 59428.4079999999,
      "d": 285.713499999998,
      "v": 72
    },
    {
      "midi": 52,
      "hit": false,
      "t": 59714.1214999999,
      "d": 285.713499999998,
      "v": 62
    },
    {
      "midi": 64,
      "hit": false,
      "t": 59714.1214999999,
      "d": 285.713499999998,
      "v": 60
    },
    {
      "midi": 72,
      "hit": false,
      "t": 59714.1214999999,
      "d": 285.713499999998,
      "v": 72
    },
    {
      "midi": 55,
      "hit": false,
      "t": 59999.8349999999,
      "d": 285.713499999998,
      "v": 64
    },
    {
      "midi": 72,
      "hit": false,
      "t": 59999.8349999999,
      "d": 428.57024999999703,
      "v": 73
    },
    {
      "midi": 64,
      "hit": false,
      "t": 59999.8349999999,
      "d": 571.426999999996,
      "v": 61
    },
    {
      "midi": 52,
      "hit": false,
      "t": 60285.548499999895,
      "d": 285.713499999998,
      "v": 60
    },
    {
      "midi": 72,
      "hit": false,
      "t": 60428.405249999894,
      "d": 142.856749999999,
      "v": 71
    },
    {
      "midi": 47,
      "hit": false,
      "t": 60571.26199999989,
      "d": 285.713499999998,
      "v": 59
    },
    {
      "midi": 72,
      "hit": false,
      "t": 60571.26199999989,
      "d": 285.713499999998,
      "v": 71
    },
    {
      "midi": 62,
      "hit": false,
      "t": 60571.26199999989,
      "d": 571.426999999996,
      "v": 58
    },
    {
      "midi": 50,
      "hit": false,
      "t": 60856.97549999989,
      "d": 285.713499999998,
      "v": 62
    },
    {
      "midi": 71,
      "hit": false,
      "t": 60856.97549999989,
      "d": 285.713499999998,
      "v": 71
    },
    {
      "midi": 55,
      "hit": false,
      "t": 61142.68899999989,
      "d": 285.713499999998,
      "v": 66
    },
    {
      "midi": 71,
      "hit": false,
      "t": 61142.68899999989,
      "d": 285.713499999998,
      "v": 75
    },
    {
      "midi": 62,
      "hit": false,
      "t": 61142.68899999989,
      "d": 571.426999999996,
      "v": 60
    },
    {
      "midi": 71,
      "hit": false,
      "t": 61428.40249999989,
      "d": 142.856749999999,
      "v": 72
    },
    {
      "midi": 50,
      "hit": false,
      "t": 61428.40249999989,
      "d": 285.713499999998,
      "v": 58
    },
    {
      "midi": 71,
      "hit": false,
      "t": 61571.25924999989,
      "d": 142.856749999999,
      "v": 71
    },
    {
      "midi": 45,
      "hit": false,
      "t": 61714.115999999885,
      "d": 285.713499999998,
      "v": 57
    },
    {
      "midi": 71,
      "hit": false,
      "t": 61714.115999999885,
      "d": 285.713499999998,
      "v": 71
    },
    {
      "midi": 61,
      "hit": false,
      "t": 61714.115999999885,
      "d": 571.426999999996,
      "v": 58
    },
    {
      "midi": 52,
      "hit": false,
      "t": 61999.82949999988,
      "d": 285.713499999998,
      "v": 65
    },
    {
      "midi": 69,
      "hit": false,
      "t": 61999.82949999988,
      "d": 285.713499999998,
      "v": 70
    },
    {
      "midi": 57,
      "hit": false,
      "t": 62285.54299999988,
      "d": 285.713499999998,
      "v": 60
    },
    {
      "midi": 69,
      "hit": false,
      "t": 62285.54299999988,
      "d": 285.713499999998,
      "v": 69
    },
    {
      "midi": 61,
      "hit": false,
      "t": 62285.54299999988,
      "d": 571.426999999996,
      "v": 61
    },
    {
      "midi": 52,
      "hit": false,
      "t": 62571.25649999988,
      "d": 285.713499999998,
      "v": 59
    },
    {
      "midi": 71,
      "hit": false,
      "t": 62571.25649999988,
      "d": 285.713499999998,
      "v": 74
    },
    {
      "midi": 50,
      "hit": false,
      "t": 62856.96999999988,
      "d": 285.713499999998,
      "v": 60
    },
    {
      "midi": 62,
      "hit": false,
      "t": 62856.96999999988,
      "d": 571.426999999996,
      "v": 62
    },
    {
      "midi": 69,
      "hit": false,
      "t": 62856.96999999988,
      "d": 571.426999999996,
      "v": 69
    },
    {
      "midi": 54,
      "hit": false,
      "t": 63142.683499999875,
      "d": 285.713499999998,
      "v": 62
    },
    {
      "midi": 57,
      "hit": false,
      "t": 63428.39699999987,
      "d": 285.713499999998,
      "v": 64
    },
    {
      "midi": 66,
      "hit": false,
      "t": 63428.39699999987,
      "d": 571.426999999996,
      "v": 65
    },
    {
      "midi": 74,
      "hit": false,
      "t": 63428.39699999987,
      "d": 571.426999999996,
      "v": 76
    },
    {
      "midi": 54,
      "hit": false,
      "t": 63714.11049999987,
      "d": 285.713499999998,
      "v": 57
    },
    {
      "midi": 67,
      "hit": false,
      "t": 63999.82399999987,
      "d": 285.713499999998,
      "v": 70
    },
    {
      "midi": 71,
      "hit": false,
      "t": 63999.82399999987,
      "d": 285.713499999998,
      "v": 70
    },
    {
      "midi": 43,
      "hit": false,
      "t": 63999.82399999987,
      "d": 857.1404999999941,
      "v": 59
    },
    {
      "midi": 67,
      "hit": false,
      "t": 64285.53749999987,
      "d": 285.713499999998,
      "v": 69
    },
    {
      "midi": 71,
      "hit": false,
      "t": 64285.53749999987,
      "d": 285.713499999998,
      "v": 69
    },
    {
      "midi": 67,
      "hit": false,
      "t": 64571.250999999866,
      "d": 571.426999999996,
      "v": 71
    },
    {
      "midi": 71,
      "hit": false,
      "t": 64571.250999999866,
      "d": 571.426999999996,
      "v": 71
    },
    {
      "midi": 50,
      "hit": false,
      "t": 64856.96449999986,
      "d": 285.713499999998,
      "v": 64
    },
    {
      "midi": 67,
      "hit": false,
      "t": 65142.67799999986,
      "d": 285.713499999998,
      "v": 73
    },
    {
      "midi": 71,
      "hit": false,
      "t": 65142.67799999986,
      "d": 285.713499999998,
      "v": 73
    },
    {
      "midi": 55,
      "hit": false,
      "t": 65142.67799999986,
      "d": 857.1405000000013,
      "v": 63
    },
    {
      "midi": 67,
      "hit": false,
      "t": 65428.39149999986,
      "d": 285.7135000000053,
      "v": 71
    },
    {
      "midi": 71,
      "hit": false,
      "t": 65428.39149999986,
      "d": 285.7135000000053,
      "v": 71
    },
    {
      "midi": 67,
      "hit": false,
      "t": 65714.10499999986,
      "d": 571.426999999996,
      "v": 72
    },
    {
      "midi": 71,
      "hit": false,
      "t": 65714.10499999986,
      "d": 571.426999999996,
      "v": 72
    },
    {
      "midi": 50,
      "hit": false,
      "t": 65999.81849999986,
      "d": 285.713499999998,
      "v": 58
    },
    {
      "midi": 43,
      "hit": false,
      "t": 66285.53199999986,
      "d": 285.713499999998,
      "v": 56
    },
    {
      "midi": 71,
      "hit": false,
      "t": 66285.53199999986,
      "d": 285.713499999998,
      "v": 70
    },
    {
      "midi": 67,
      "hit": false,
      "t": 66285.53199999986,
      "d": 571.426999999996,
      "v": 65
    },
    {
      "midi": 50,
      "hit": false,
      "t": 66571.24549999986,
      "d": 285.713499999998,
      "v": 64
    },
    {
      "midi": 74,
      "hit": false,
      "t": 66571.24549999986,
      "d": 285.713499999998,
      "v": 74
    },
    {
      "midi": 67,
      "hit": false,
      "t": 66856.95899999986,
      "d": 428.5702500000043,
      "v": 64
    },
    {
      "midi": 48,
      "hit": false,
      "t": 66856.95899999986,
      "d": 571.4270000000106,
      "v": 62
    },
    {
      "midi": 52,
      "hit": false,
      "t": 66856.95899999986,
      "d": 571.4270000000106,
      "v": 62
    },
    {
      "midi": 64,
      "hit": false,
      "t": 66856.95899999986,
      "d": 571.4270000000106,
      "v": 59
    },
    {
      "midi": 69,
      "hit": false,
      "t": 67285.52924999986,
      "d": 142.8567500000063,
      "v": 74
    },
    {
      "midi": 43,
      "hit": false,
      "t": 67428.38599999987,
      "d": 285.713499999998,
      "v": 58
    },
    {
      "midi": 62,
      "hit": false,
      "t": 67428.38599999987,
      "d": 1142.853999999992,
      "v": 59
    },
    {
      "midi": 71,
      "hit": false,
      "t": 67428.38599999987,
      "d": 1142.853999999992,
      "v": 71
    },
    {
      "midi": 50,
      "hit": false,
      "t": 67714.09949999987,
      "d": 285.713499999998,
      "v": 63
    },
    {
      "midi": 55,
      "hit": false,
      "t": 67999.81299999986,
      "d": 571.426999999996,
      "v": 61
    },
    {
      "midi": 48,
      "hit": false,
      "t": 68571.23999999986,
      "d": 285.713499999998,
      "v": 57
    },
    {
      "midi": 64,
      "hit": false,
      "t": 68571.23999999986,
      "d": 285.713499999998,
      "v": 63
    },
    {
      "midi": 72,
      "hit": false,
      "t": 68571.23999999986,
      "d": 285.713499999998,
      "v": 74
    },
    {
      "midi": 52,
      "hit": false,
      "t": 68856.95349999986,
      "d": 285.713499999998,
      "v": 64
    },
    {
      "midi": 64,
      "hit": false,
      "t": 68856.95349999986,
      "d": 285.713499999998,
      "v": 62
    },
    {
      "midi": 72,
      "hit": false,
      "t": 68856.95349999986,
      "d": 285.713499999998,
      "v": 69
    },
    {
      "midi": 55,
      "hit": false,
      "t": 69142.66699999986,
      "d": 285.713499999998,
      "v": 59
    },
    {
      "midi": 72,
      "hit": false,
      "t": 69142.66699999986,
      "d": 428.5702500000043,
      "v": 71
    },
    {
      "midi": 64,
      "hit": false,
      "t": 69142.66699999986,
      "d": 571.4270000000106,
      "v": 59
    },
    {
      "midi": 52,
      "hit": false,
      "t": 69428.38049999985,
      "d": 285.7135000000126,
      "v": 62
    },
    {
      "midi": 72,
      "hit": false,
      "t": 69571.23724999986,
      "d": 142.8567500000063,
      "v": 70
    },
    {
      "midi": 47,
      "hit": false,
      "t": 69714.09399999987,
      "d": 285.713499999998,
      "v": 58
    },
    {
      "midi": 72,
      "hit": false,
      "t": 69714.09399999987,
      "d": 285.713499999998,
      "v": 72
    },
    {
      "midi": 62,
      "hit": false,
      "t": 69714.09399999987,
      "d": 571.426999999996,
      "v": 59
    },
    {
      "midi": 50,
      "hit": false,
      "t": 69999.80749999986,
      "d": 285.713499999998,
      "v": 62
    },
    {
      "midi": 71,
      "hit": false,
      "t": 69999.80749999986,
      "d": 285.713499999998,
      "v": 69
    },
    {
      "midi": 55,
      "hit": false,
      "t": 70285.52099999986,
      "d": 285.713499999998,
      "v": 60
    },
    {
      "midi": 71,
      "hit": false,
      "t": 70285.52099999986,
      "d": 285.713499999998,
      "v": 69
    },
    {
      "midi": 62,
      "hit": false,
      "t": 70285.52099999986,
      "d": 571.4270000000106,
      "v": 60
    },
    {
      "midi": 71,
      "hit": false,
      "t": 70571.23449999986,
      "d": 142.8567500000063,
      "v": 71
    },
    {
      "midi": 50,
      "hit": false,
      "t": 70571.23449999986,
      "d": 285.7135000000126,
      "v": 59
    },
    {
      "midi": 71,
      "hit": false,
      "t": 70714.09124999987,
      "d": 142.8567500000063,
      "v": 70
    },
    {
      "midi": 45,
      "hit": false,
      "t": 70856.94799999987,
      "d": 285.713499999998,
      "v": 59
    },
    {
      "midi": 74,
      "hit": false,
      "t": 70856.94799999987,
      "d": 285.713499999998,
      "v": 72
    },
    {
      "midi": 66,
      "hit": false,
      "t": 70856.94799999987,
      "d": 571.426999999996,
      "v": 65
    },
    {
      "midi": 50,
      "hit": false,
      "t": 71142.66149999987,
      "d": 285.713499999998,
      "v": 65
    },
    {
      "midi": 74,
      "hit": false,
      "t": 71142.66149999987,
      "d": 285.713499999998,
      "v": 70
    },
    {
      "midi": 54,
      "hit": false,
      "t": 71428.37499999987,
      "d": 285.713499999998,
      "v": 63
    },
    {
      "midi": 72,
      "hit": false,
      "t": 71428.37499999987,
      "d": 285.713499999998,
      "v": 69
    },
    {
      "midi": 62,
      "hit": false,
      "t": 71428.37499999987,
      "d": 571.426999999996,
      "v": 59
    },
    {
      "midi": 50,
      "hit": false,
      "t": 71714.08849999987,
      "d": 285.713499999998,
      "v": 60
    },
    {
      "midi": 69,
      "hit": false,
      "t": 71714.08849999987,
      "d": 285.713499999998,
      "v": 67
    },
    {
      "midi": 43,
      "hit": false,
      "t": 71999.80199999987,
      "d": 285.713499999998,
      "v": 60
    },
    {
      "midi": 59,
      "hit": false,
      "t": 71999.80199999987,
      "d": 1142.853999999992,
      "v": 63
    },
    {
      "midi": 67,
      "hit": false,
      "t": 71999.80199999987,
      "d": 1142.853999999992,
      "v": 69
    },
    {
      "midi": 50,
      "hit": false,
      "t": 72285.51549999986,
      "d": 285.713499999998,
      "v": 61
    },
    {
      "midi": 55,
      "hit": false,
      "t": 72571.22899999986,
      "d": 571.426999999996,
      "v": 63
    }
  ]
}