{
  "jsonPath": "Rock/Kingston On Indie/Hugh Dillon/surface-of-the-sun.json",
  "path": "Rock\\Kingston On Indie\\Hugh Dillon\\Surface Of The Sun.mid",
  "name": "Surface Of The Sun",
  "difficulty": "Advanced",
  "bpm": 72.00002880001152,
  "notes": [
    {
      "midi": 41,
      "hit": false,
      "t": 0,
      "d": 979.1662749999999,
      "v": 77
    },
    {
      "midi": 57,
      "hit": false,
      "t": 0,
      "d": 1423.6105416666667,
      "v": 80
    },
    {
      "midi": 60,
      "hit": false,
      "t": 0,
      "d": 1423.6105416666667,
      "v": 80
    },
    {
      "midi": 65,
      "hit": false,
      "t": 416.6665,
      "d": 409.72205833333334,
      "v": 92
    },
    {
      "midi": 65,
      "hit": false,
      "t": 416.6665,
      "d": 840.2774416666666,
      "v": 72
    },
    {
      "midi": 65,
      "hit": false,
      "t": 833.333,
      "d": 201.38880833333326,
      "v": 99
    },
    {
      "midi": 69,
      "hit": false,
      "t": 833.333,
      "d": 562.4997750000001,
      "v": 89
    },
    {
      "midi": 67,
      "hit": false,
      "t": 1041.66625,
      "d": 201.38880833333337,
      "v": 94
    },
    {
      "midi": 41,
      "hit": false,
      "t": 1236.1106166666666,
      "d": 236.11101666666673,
      "v": 80
    },
    {
      "midi": 72,
      "hit": false,
      "t": 1249.9995,
      "d": 236.11101666666673,
      "v": 91
    },
    {
      "midi": 69,
      "hit": false,
      "t": 1249.9995000000001,
      "d": 826.3885583333333,
      "v": 99
    },
    {
      "midi": 40,
      "hit": false,
      "t": 1666.666,
      "d": 979.1662749999998,
      "v": 77
    },
    {
      "midi": 56,
      "hit": false,
      "t": 1666.666,
      "d": 1666.666,
      "v": 84
    },
    {
      "midi": 59,
      "hit": false,
      "t": 1666.666,
      "d": 1666.666,
      "v": 84
    },
    {
      "midi": 64,
      "hit": false,
      "t": 1666.666,
      "d": 1666.666,
      "v": 84
    },
    {
      "midi": 68,
      "hit": false,
      "t": 2083.3325,
      "d": 409.7220583333333,
      "v": 105
    },
    {
      "midi": 68,
      "hit": false,
      "t": 2499.999,
      "d": 201.38880833333315,
      "v": 100
    },
    {
      "midi": 69,
      "hit": false,
      "t": 2708.3322499999995,
      "d": 201.38880833333315,
      "v": 97
    },
    {
      "midi": 40,
      "hit": false,
      "t": 2902.7766166666665,
      "d": 236.11101666666673,
      "v": 80
    },
    {
      "midi": 71,
      "hit": false,
      "t": 2916.665499999999,
      "d": 409.7220583333333,
      "v": 94
    },
    {
      "midi": 69,
      "hit": false,
      "t": 3333.331999999999,
      "d": 826.3885583333335,
      "v": 105
    },
    {
      "midi": 33,
      "hit": false,
      "t": 3333.332,
      "d": 833.3330000000001,
      "v": 77
    },
    {
      "midi": 57,
      "hit": false,
      "t": 3361.1097666666665,
      "d": 805.5552333333335,
      "v": 84
    },
    {
      "midi": 60,
      "hit": false,
      "t": 3361.1097666666665,
      "d": 805.5552333333335,
      "v": 84
    },
    {
      "midi": 64,
      "hit": false,
      "t": 3361.1097666666665,
      "d": 805.5552333333335,
      "v": 84
    },
    {
      "midi": 71,
      "hit": false,
      "t": 4166.664999999999,
      "d": 826.3885583333331,
      "v": 112
    },
    {
      "midi": 35,
      "hit": false,
      "t": 4166.665,
      "d": 833.3329999999996,
      "v": 77
    },
    {
      "midi": 55,
      "hit": false,
      "t": 4194.442766666667,
      "d": 805.5552333333335,
      "v": 84
    },
    {
      "midi": 59,
      "hit": false,
      "t": 4194.442766666667,
      "d": 805.5552333333335,
      "v": 84
    },
    {
      "midi": 62,
      "hit": false,
      "t": 4194.442766666667,
      "d": 805.5552333333335,
      "v": 84
    },
    {
      "midi": 72,
      "hit": false,
      "t": 4999.997999999999,
      "d": 1659.7215583333336,
      "v": 110
    },
    {
      "midi": 40,
      "hit": false,
      "t": 4999.998,
      "d": 979.1662749999996,
      "v": 77
    },
    {
      "midi": 55,
      "hit": false,
      "t": 4999.9980000000005,
      "d": 541.6664500000006,
      "v": 72
    },
    {
      "midi": 60,
      "hit": false,
      "t": 4999.9980000000005,
      "d": 541.6664500000006,
      "v": 72
    },
    {
      "midi": 64,
      "hit": false,
      "t": 4999.9980000000005,
      "d": 541.6664500000006,
      "v": 72
    },
    {
      "midi": 52,
      "hit": false,
      "t": 5416.664500000001,
      "d": 812.499675,
      "v": 82
    },
    {
      "midi": 55,
      "hit": false,
      "t": 5833.331000000001,
      "d": 465.277591666666,
      "v": 84
    },
    {
      "midi": 60,
      "hit": false,
      "t": 5833.331000000001,
      "d": 465.277591666666,
      "v": 84
    },
    {
      "midi": 64,
      "hit": false,
      "t": 5833.331000000001,
      "d": 465.277591666666,
      "v": 84
    },
    {
      "midi": 40,
      "hit": false,
      "t": 6236.1086166666655,
      "d": 236.11101666666673,
      "v": 80
    },
    {
      "midi": 41,
      "hit": false,
      "t": 6666.663999999999,
      "d": 979.1662749999996,
      "v": 77
    },
    {
      "midi": 57,
      "hit": false,
      "t": 6680.552883333334,
      "d": 1395.8327749999999,
      "v": 76
    },
    {
      "midi": 60,
      "hit": false,
      "t": 6680.552883333334,
      "d": 1395.8327749999999,
      "v": 76
    },
    {
      "midi": 65,
      "hit": false,
      "t": 6680.552883333334,
      "d": 1395.8327749999999,
      "v": 76
    },
    {
      "midi": 65,
      "hit": false,
      "t": 7083.330499999999,
      "d": 409.72205833333373,
      "v": 107
    },
    {
      "midi": 65,
      "hit": false,
      "t": 7499.996999999999,
      "d": 201.38880833333315,
      "v": 110
    },
    {
      "midi": 67,
      "hit": false,
      "t": 7708.330249999999,
      "d": 201.38880833333315,
      "v": 107
    },
    {
      "midi": 41,
      "hit": false,
      "t": 7902.774616666665,
      "d": 236.11101666666673,
      "v": 80
    },
    {
      "midi": 69,
      "hit": false,
      "t": 7916.663499999999,
      "d": 201.38880833333315,
      "v": 107
    },
    {
      "midi": 69,
      "hit": false,
      "t": 7937.496825,
      "d": 229.1665750000002,
      "v": 70
    },
    {
      "midi": 72,
      "hit": false,
      "t": 8152.774516666667,
      "d": 180.55548333333263,
      "v": 74
    },
    {
      "midi": 56,
      "hit": false,
      "t": 8333.33,
      "d": 1666.6659999999993,
      "v": 84
    },
    {
      "midi": 59,
      "hit": false,
      "t": 8333.33,
      "d": 1666.6659999999993,
      "v": 84
    },
    {
      "midi": 64,
      "hit": false,
      "t": 8333.33,
      "d": 1666.6659999999993,
      "v": 84
    },
    {
      "midi": 40,
      "hit": false,
      "t": 8340.274441666665,
      "d": 1013.8884833333341,
      "v": 67
    },
    {
      "midi": 68,
      "hit": false,
      "t": 8749.9965,
      "d": 409.7220583333328,
      "v": 108
    },
    {
      "midi": 68,
      "hit": false,
      "t": 9166.662999999999,
      "d": 201.38880833333315,
      "v": 100
    },
    {
      "midi": 69,
      "hit": false,
      "t": 9374.996249999998,
      "d": 201.38880833333315,
      "v": 88
    },
    {
      "midi": 71,
      "hit": false,
      "t": 9583.329499999998,
      "d": 409.7220583333328,
      "v": 96
    },
    {
      "midi": 40,
      "hit": false,
      "t": 9611.107266666666,
      "d": 222.22213333333275,
      "v": 69
    },
    {
      "midi": 69,
      "hit": false,
      "t": 9999.995999999997,
      "d": 826.388558333334,
      "v": 88
    },
    {
      "midi": 33,
      "hit": false,
      "t": 9999.996,
      "d": 833.3330000000005,
      "v": 77
    },
    {
      "midi": 57,
      "hit": false,
      "t": 10027.773766666665,
      "d": 805.5552333333326,
      "v": 84
    },
    {
      "midi": 60,
      "hit": false,
      "t": 10027.773766666665,
      "d": 805.5552333333326,
      "v": 84
    },
    {
      "midi": 64,
      "hit": false,
      "t": 10027.773766666665,
      "d": 805.5552333333326,
      "v": 84
    },
    {
      "midi": 71,
      "hit": false,
      "t": 10833.328999999998,
      "d": 2493.0545583333333,
      "v": 99
    },
    {
      "midi": 35,
      "hit": false,
      "t": 10833.329,
      "d": 833.3330000000005,
      "v": 77
    },
    {
      "midi": 55,
      "hit": false,
      "t": 10861.106766666664,
      "d": 805.5552333333326,
      "v": 84
    },
    {
      "midi": 59,
      "hit": false,
      "t": 10861.106766666664,
      "d": 805.5552333333326,
      "v": 84
    },
    {
      "midi": 62,
      "hit": false,
      "t": 10861.106766666664,
      "d": 805.5552333333326,
      "v": 84
    },
    {
      "midi": 35,
      "hit": false,
      "t": 11666.662,
      "d": 979.1662749999996,
      "v": 77
    },
    {
      "midi": 55,
      "hit": false,
      "t": 12083.328499999996,
      "d": 840.2774416666653,
      "v": 72
    },
    {
      "midi": 59,
      "hit": false,
      "t": 12499.994999999995,
      "d": 562.4997749999984,
      "v": 89
    },
    {
      "midi": 35,
      "hit": false,
      "t": 12902.772616666667,
      "d": 236.11101666666582,
      "v": 80
    },
    {
      "midi": 62,
      "hit": false,
      "t": 12916.661499999995,
      "d": 173.6110416666652,
      "v": 91
    },
    {
      "midi": 57,
      "hit": false,
      "t": 13333.327999999994,
      "d": 541.6664499999988,
      "v": 72
    },
    {
      "midi": 60,
      "hit": false,
      "t": 13333.327999999994,
      "d": 541.6664499999988,
      "v": 72
    },
    {
      "midi": 65,
      "hit": false,
      "t": 13333.327999999994,
      "d": 541.6664499999988,
      "v": 72
    },
    {
      "midi": 41,
      "hit": false,
      "t": 13333.328,
      "d": 979.1662749999996,
      "v": 77
    },
    {
      "midi": 53,
      "hit": false,
      "t": 13749.994499999993,
      "d": 812.4996749999991,
      "v": 82
    },
    {
      "midi": 65,
      "hit": false,
      "t": 13749.994499999997,
      "d": 409.7220583333328,
      "v": 80
    },
    {
      "midi": 57,
      "hit": false,
      "t": 14166.660999999993,
      "d": 465.2775916666669,
      "v": 84
    },
    {
      "midi": 60,
      "hit": false,
      "t": 14166.660999999993,
      "d": 465.2775916666669,
      "v": 84
    },
    {
      "midi": 65,
      "hit": false,
      "t": 14166.660999999993,
      "d": 465.2775916666669,
      "v": 84
    },
    {
      "midi": 65,
      "hit": false,
      "t": 14166.660999999996,
      "d": 201.38880833333315,
      "v": 78
    },
    {
      "midi": 67,
      "hit": false,
      "t": 14374.994249999996,
      "d": 201.38880833333315,
      "v": 85
    },
    {
      "midi": 41,
      "hit": false,
      "t": 14569.438616666666,
      "d": 236.11101666666582,
      "v": 80
    },
    {
      "midi": 69,
      "hit": false,
      "t": 14583.327499999996,
      "d": 826.388558333334,
      "v": 85
    },
    {
      "midi": 56,
      "hit": false,
      "t": 14999.993999999993,
      "d": 1423.6105416666633,
      "v": 80
    },
    {
      "midi": 59,
      "hit": false,
      "t": 14999.993999999993,
      "d": 1423.6105416666633,
      "v": 80
    },
    {
      "midi": 40,
      "hit": false,
      "t": 14999.993999999999,
      "d": 979.1662749999996,
      "v": 77
    },
    {
      "midi": 64,
      "hit": false,
      "t": 15416.660499999993,
      "d": 840.2774416666653,
      "v": 72
    },
    {
      "midi": 68,
      "hit": false,
      "t": 15416.660499999996,
      "d": 409.7220583333328,
      "v": 96
    },
    {
      "midi": 68,
      "hit": false,
      "t": 15833.326999999992,
      "d": 562.4997749999984,
      "v": 89
    },
    {
      "midi": 68,
      "hit": false,
      "t": 15833.326999999996,
      "d": 201.38880833333315,
      "v": 75
    },
    {
      "midi": 69,
      "hit": false,
      "t": 16041.660249999995,
      "d": 201.38880833333315,
      "v": 86
    },
    {
      "midi": 40,
      "hit": false,
      "t": 16236.104616666666,
      "d": 236.11101666666764,
      "v": 80
    },
    {
      "midi": 71,
      "hit": false,
      "t": 16249.993499999991,
      "d": 236.111016666664,
      "v": 91
    },
    {
      "midi": 71,
      "hit": false,
      "t": 16249.993499999995,
      "d": 409.72205833333464,
      "v": 94
    },
    {
      "midi": 69,
      "hit": false,
      "t": 16666.659999999996,
      "d": 826.3885583333322,
      "v": 94
    },
    {
      "midi": 33,
      "hit": false,
      "t": 16666.66,
      "d": 833.3329999999987,
      "v": 77
    },
    {
      "midi": 57,
      "hit": false,
      "t": 16694.437766666655,
      "d": 805.5552333333326,
      "v": 84
    },
    {
      "midi": 60,
      "hit": false,
      "t": 16694.437766666655,
      "d": 805.5552333333326,
      "v": 84
    },
    {
      "midi": 64,
      "hit": false,
      "t": 16694.437766666655,
      "d": 805.5552333333326,
      "v": 84
    },
    {
      "midi": 71,
      "hit": false,
      "t": 17499.992999999995,
      "d": 826.3885583333322,
      "v": 97
    },
    {
      "midi": 35,
      "hit": false,
      "t": 17499.993,
      "d": 833.3329999999987,
      "v": 77
    },
    {
      "midi": 55,
      "hit": false,
      "t": 17527.770766666654,
      "d": 805.5552333333326,
      "v": 84
    },
    {
      "midi": 59,
      "hit": false,
      "t": 17527.770766666654,
      "d": 805.5552333333326,
      "v": 84
    },
    {
      "midi": 62,
      "hit": false,
      "t": 17527.770766666654,
      "d": 805.5552333333326,
      "v": 84
    },
    {
      "midi": 55,
      "hit": false,
      "t": 18333.325999999986,
      "d": 1666.666000000001,
      "v": 84
    },
    {
      "midi": 60,
      "hit": false,
      "t": 18333.325999999986,
      "d": 1666.666000000001,
      "v": 84
    },
    {
      "midi": 64,
      "hit": false,
      "t": 18333.325999999986,
      "d": 1666.666000000001,
      "v": 84
    },
    {
      "midi": 72,
      "hit": false,
      "t": 18333.325999999994,
      "d": 1659.7215583333345,
      "v": 110
    },
    {
      "midi": 40,
      "hit": false,
      "t": 18340.270441666664,
      "d": 1013.8884833333323,
      "v": 67
    },
    {
      "midi": 40,
      "hit": false,
      "t": 19611.10326666666,
      "d": 222.22213333333275,
      "v": 69
    },
    {
      "midi": 57,
      "hit": false,
      "t": 19999.991999999987,
      "d": 1666.666000000001,
      "v": 84
    },
    {
      "midi": 60,
      "hit": false,
      "t": 19999.991999999987,
      "d": 1666.666000000001,
      "v": 84
    },
    {
      "midi": 65,
      "hit": false,
      "t": 19999.991999999987,
      "d": 1666.666000000001,
      "v": 84
    },
    {
      "midi": 41,
      "hit": false,
      "t": 19999.991999999995,
      "d": 979.1662749999996,
      "v": 77
    },
    {
      "midi": 65,
      "hit": false,
      "t": 20416.658499999994,
      "d": 409.7220583333328,
      "v": 84
    },
    {
      "midi": 65,
      "hit": false,
      "t": 20833.324999999993,
      "d": 201.38880833333315,
      "v": 80
    },
    {
      "midi": 67,
      "hit": false,
      "t": 21041.658249999993,
      "d": 201.38880833333315,
      "v": 91
    },
    {
      "midi": 41,
      "hit": false,
      "t": 21236.10261666666,
      "d": 236.11101666666582,
      "v": 80
    },
    {
      "midi": 69,
      "hit": false,
      "t": 21249.991499999993,
      "d": 826.3885583333322,
      "v": 101
    },
    {
      "midi": 56,
      "hit": false,
      "t": 21666.65799999999,
      "d": 541.6664500000006,
      "v": 72
    },
    {
      "midi": 59,
      "hit": false,
      "t": 21666.65799999999,
      "d": 541.6664500000006,
      "v": 72
    },
    {
      "midi": 64,
      "hit": false,
      "t": 21666.65799999999,
      "d": 541.6664500000006,
      "v": 72
    },
    {
      "midi": 40,
      "hit": false,
      "t": 21666.657999999992,
      "d": 979.1662749999996,
      "v": 77
    },
    {
      "midi": 52,
      "hit": false,
      "t": 22083.324499999988,
      "d": 812.4996750000028,
      "v": 82
    },
    {
      "midi": 68,
      "hit": false,
      "t": 22083.32449999999,
      "d": 409.7220583333328,
      "v": 98
    },
    {
      "midi": 68,
      "hit": false,
      "t": 22499.99099999999,
      "d": 201.38880833333315,
      "v": 88
    },
    {
      "midi": 56,
      "hit": false,
      "t": 22499.99099999999,
      "d": 465.2775916666651,
      "v": 84
    },
    {
      "midi": 59,
      "hit": false,
      "t": 22499.99099999999,
      "d": 465.2775916666651,
      "v": 84
    },
    {
      "midi": 64,
      "hit": false,
      "t": 22499.99099999999,
      "d": 465.2775916666651,
      "v": 84
    },
    {
      "midi": 69,
      "hit": false,
      "t": 22708.32424999999,
      "d": 201.38880833333315,
      "v": 79
    },
    {
      "midi": 40,
      "hit": false,
      "t": 22902.768616666657,
      "d": 236.11101666666582,
      "v": 80
    },
    {
      "midi": 71,
      "hit": false,
      "t": 22916.65749999999,
      "d": 409.7220583333328,
      "v": 97
    },
    {
      "midi": 69,
      "hit": false,
      "t": 23333.32399999999,
      "d": 3326.387558333332,
      "v": 103
    },
    {
      "midi": 61,
      "hit": false,
      "t": 23333.32399999999,
      "d": 2736.1100166666656,
      "v": 76
    },
    {
      "midi": 64,
      "hit": false,
      "t": 23333.32399999999,
      "d": 2736.1100166666656,
      "v": 76
    },
    {
      "midi": 33,
      "hit": false,
      "t": 23374.99064999999,
      "d": 916.6663000000008,
      "v": 58
    },
    {
      "midi": 33,
      "hit": false,
      "t": 24604.15682499999,
      "d": 111.1110666666682,
      "v": 59
    },
    {
      "midi": 33,
      "hit": false,
      "t": 25027.76776666666,
      "d": 1111.1106666666674,
      "v": 73
    },
    {
      "midi": 57,
      "hit": false,
      "t": 25861.100766666656,
      "d": 208.33324999999968,
      "v": 65
    },
    {
      "midi": 61,
      "hit": false,
      "t": 26076.37845833332,
      "d": 291.6665499999981,
      "v": 78
    },
    {
      "midi": 64,
      "hit": false,
      "t": 26284.71170833332,
      "d": 270.8332249999985,
      "v": 72
    },
    {
      "midi": 33,
      "hit": false,
      "t": 26291.656149999995,
      "d": 124.99995000000126,
      "v": 82
    },
    {
      "midi": 69,
      "hit": false,
      "t": 26499.989399999988,
      "d": 152.7777166666674,
      "v": 72
    },
    {
      "midi": 57,
      "hit": false,
      "t": 26666.655999999988,
      "d": 1423.610541666665,
      "v": 80
    },
    {
      "midi": 60,
      "hit": false,
      "t": 26666.655999999988,
      "d": 1423.610541666665,
      "v": 80
    },
    {
      "midi": 41,
      "hit": false,
      "t": 26673.600441666662,
      "d": 1013.8884833333323,
      "v": 67
    },
    {
      "midi": 53,
      "hit": false,
      "t": 26673.600441666666,
      "d": 1013.8884833333323,
      "v": 67
    },
    {
      "midi": 65,
      "hit": false,
      "t": 27083.322499999987,
      "d": 840.2774416666653,
      "v": 72
    },
    {
      "midi": 69,
      "hit": false,
      "t": 27499.988999999987,
      "d": 409.7220583333328,
      "v": 103
    },
    {
      "midi": 69,
      "hit": false,
      "t": 27499.988999999987,
      "d": 562.4997750000002,
      "v": 89
    },
    {
      "midi": 72,
      "hit": false,
      "t": 27916.655499999986,
      "d": 201.38880833333315,
      "v": 86
    },
    {
      "midi": 72,
      "hit": false,
      "t": 27916.655499999986,
      "d": 236.11101666666582,
      "v": 91
    },
    {
      "midi": 41,
      "hit": false,
      "t": 27944.43326666666,
      "d": 222.22213333333275,
      "v": 69
    },
    {
      "midi": 53,
      "hit": false,
      "t": 27944.433266666663,
      "d": 222.22213333333275,
      "v": 69
    },
    {
      "midi": 72,
      "hit": false,
      "t": 28124.988749999986,
      "d": 409.7220583333328,
      "v": 86
    },
    {
      "midi": 40,
      "hit": false,
      "t": 28340.26644166666,
      "d": 1013.8884833333323,
      "v": 67
    },
    {
      "midi": 52,
      "hit": false,
      "t": 28340.266441666663,
      "d": 1013.8884833333323,
      "v": 67
    },
    {
      "midi": 56,
      "hit": false,
      "t": 28347.21088333332,
      "d": 1395.8327750000026,
      "v": 76
    },
    {
      "midi": 59,
      "hit": false,
      "t": 28347.21088333332,
      "d": 1395.8327750000026,
      "v": 76
    },
    {
      "midi": 64,
      "hit": false,
      "t": 28347.21088333332,
      "d": 1395.8327750000026,
      "v": 76
    },
    {
      "midi": 71,
      "hit": false,
      "t": 28541.655249999985,
      "d": 1034.7218083333319,
      "v": 86
    },
    {
      "midi": 69,
      "hit": false,
      "t": 29583.321499999984,
      "d": 409.7220583333328,
      "v": 81
    },
    {
      "midi": 68,
      "hit": false,
      "t": 29604.154824999987,
      "d": 229.16657499999928,
      "v": 70
    },
    {
      "midi": 40,
      "hit": false,
      "t": 29611.099266666657,
      "d": 222.22213333333275,
      "v": 69
    },
    {
      "midi": 52,
      "hit": false,
      "t": 29611.09926666666,
      "d": 222.22213333333275,
      "v": 69
    },
    {
      "midi": 71,
      "hit": false,
      "t": 29819.432516666653,
      "d": 180.55548333333354,
      "v": 74
    },
    {
      "midi": 76,
      "hit": false,
      "t": 29999.987999999983,
      "d": 409.7220583333328,
      "v": 89
    },
    {
      "midi": 33,
      "hit": false,
      "t": 29999.98799999999,
      "d": 833.3329999999987,
      "v": 77
    },
    {
      "midi": 45,
      "hit": false,
      "t": 29999.987999999994,
      "d": 833.3329999999987,
      "v": 77
    },
    {
      "midi": 57,
      "hit": false,
      "t": 30027.765766666653,
      "d": 805.5552333333326,
      "v": 84
    },
    {
      "midi": 60,
      "hit": false,
      "t": 30027.765766666653,
      "d": 805.5552333333326,
      "v": 84
    },
    {
      "midi": 64,
      "hit": false,
      "t": 30027.765766666653,
      "d": 805.5552333333326,
      "v": 84
    },
    {
      "midi": 74,
      "hit": false,
      "t": 30416.654499999982,
      "d": 201.38880833333315,
      "v": 79
    },
    {
      "midi": 72,
      "hit": false,
      "t": 30624.987749999982,
      "d": 201.38880833333315,
      "v": 89
    },
    {
      "midi": 74,
      "hit": false,
      "t": 30833.32099999998,
      "d": 201.38880833333315,
      "v": 79
    },
    {
      "midi": 35,
      "hit": false,
      "t": 30833.32099999999,
      "d": 833.3329999999987,
      "v": 77
    },
    {
      "midi": 47,
      "hit": false,
      "t": 30833.320999999993,
      "d": 833.3329999999987,
      "v": 77
    },
    {
      "midi": 55,
      "hit": false,
      "t": 30861.09876666665,
      "d": 805.5552333333326,
      "v": 84
    },
    {
      "midi": 59,
      "hit": false,
      "t": 30861.09876666665,
      "d": 805.5552333333326,
      "v": 84
    },
    {
      "midi": 62,
      "hit": false,
      "t": 30861.09876666665,
      "d": 805.5552333333326,
      "v": 84
    },
    {
      "midi": 72,
      "hit": false,
      "t": 31041.65424999998,
      "d": 201.38880833333315,
      "v": 67
    },
    {
      "midi": 72,
      "hit": false,
      "t": 31249.98749999998,
      "d": 201.38880833333315,
      "v": 78
    },
    {
      "midi": 72,
      "hit": false,
      "t": 31458.32074999998,
      "d": 1868.0548083333306,
      "v": 88
    },
    {
      "midi": 55,
      "hit": false,
      "t": 31666.653999999984,
      "d": 541.6664500000006,
      "v": 72
    },
    {
      "midi": 60,
      "hit": false,
      "t": 31666.653999999984,
      "d": 541.6664500000006,
      "v": 72
    },
    {
      "midi": 64,
      "hit": false,
      "t": 31666.653999999984,
      "d": 541.6664500000006,
      "v": 72
    },
    {
      "midi": 36,
      "hit": false,
      "t": 31666.653999999988,
      "d": 979.1662749999996,
      "v": 77
    },
    {
      "midi": 48,
      "hit": false,
      "t": 31666.65399999999,
      "d": 979.1662749999996,
      "v": 77
    },
    {
      "midi": 48,
      "hit": false,
      "t": 32083.320499999983,
      "d": 812.4996750000028,
      "v": 82
    },
    {
      "midi": 55,
      "hit": false,
      "t": 32499.986999999986,
      "d": 465.2775916666651,
      "v": 84
    },
    {
      "midi": 60,
      "hit": false,
      "t": 32499.986999999986,
      "d": 465.2775916666651,
      "v": 84
    },
    {
      "midi": 64,
      "hit": false,
      "t": 32499.986999999986,
      "d": 465.2775916666651,
      "v": 84
    },
    {
      "midi": 36,
      "hit": false,
      "t": 32902.76461666665,
      "d": 236.11101666666946,
      "v": 80
    },
    {
      "midi": 48,
      "hit": false,
      "t": 32902.76461666666,
      "d": 236.11101666666946,
      "v": 80
    },
    {
      "midi": 57,
      "hit": false,
      "t": 33333.319999999985,
      "d": 1666.6659999999974,
      "v": 84
    },
    {
      "midi": 60,
      "hit": false,
      "t": 33333.319999999985,
      "d": 1666.6659999999974,
      "v": 84
    },
    {
      "midi": 65,
      "hit": false,
      "t": 33333.319999999985,
      "d": 1666.6659999999974,
      "v": 84
    },
    {
      "midi": 41,
      "hit": false,
      "t": 33340.26444166666,
      "d": 1013.8884833333359,
      "v": 67
    },
    {
      "midi": 53,
      "hit": false,
      "t": 33340.264441666666,
      "d": 1013.8884833333359,
      "v": 67
    },
    {
      "midi": 69,
      "hit": false,
      "t": 34166.65299999998,
      "d": 201.38880833333678,
      "v": 94
    },
    {
      "midi": 72,
      "hit": false,
      "t": 34374.98624999998,
      "d": 618.0553083333361,
      "v": 92
    },
    {
      "midi": 41,
      "hit": false,
      "t": 34611.097266666664,
      "d": 222.2221333333364,
      "v": 69
    },
    {
      "midi": 53,
      "hit": false,
      "t": 34611.09726666667,
      "d": 222.2221333333364,
      "v": 69
    },
    {
      "midi": 72,
      "hit": false,
      "t": 34999.98599999998,
      "d": 409.7220583333328,
      "v": 99
    },
    {
      "midi": 56,
      "hit": false,
      "t": 34999.98599999998,
      "d": 1423.6105416666614,
      "v": 80
    },
    {
      "midi": 59,
      "hit": false,
      "t": 34999.98599999998,
      "d": 1423.6105416666614,
      "v": 80
    },
    {
      "midi": 40,
      "hit": false,
      "t": 35006.930441666664,
      "d": 1013.8884833333359,
      "v": 67
    },
    {
      "midi": 52,
      "hit": false,
      "t": 35006.93044166667,
      "d": 1013.8884833333359,
      "v": 67
    },
    {
      "midi": 71,
      "hit": false,
      "t": 35416.65249999998,
      "d": 826.3885583333322,
      "v": 105
    },
    {
      "midi": 64,
      "hit": false,
      "t": 35416.65249999998,
      "d": 840.2774416666653,
      "v": 72
    },
    {
      "midi": 68,
      "hit": false,
      "t": 35833.31899999998,
      "d": 562.4997749999966,
      "v": 89
    },
    {
      "midi": 69,
      "hit": false,
      "t": 36249.98549999998,
      "d": 826.3885583333322,
      "v": 84
    },
    {
      "midi": 71,
      "hit": false,
      "t": 36249.98549999998,
      "d": 236.11101666666218,
      "v": 91
    },
    {
      "midi": 40,
      "hit": false,
      "t": 36277.76326666667,
      "d": 222.2221333333364,
      "v": 69
    },
    {
      "midi": 52,
      "hit": false,
      "t": 36277.763266666676,
      "d": 222.2221333333364,
      "v": 69
    },
    {
      "midi": 57,
      "hit": false,
      "t": 36666.65199999997,
      "d": 1666.6659999999974,
      "v": 84
    },
    {
      "midi": 61,
      "hit": false,
      "t": 36666.65199999997,
      "d": 1666.6659999999974,
      "v": 84
    },
    {
      "midi": 64,
      "hit": false,
      "t": 36666.65199999997,
      "d": 1666.6659999999974,
      "v": 84
    },
    {
      "midi": 33,
      "hit": false,
      "t": 36673.59644166667,
      "d": 1013.8884833333359,
      "v": 67
    },
    {
      "midi": 45,
      "hit": false,
      "t": 36673.596441666676,
      "d": 1013.8884833333359,
      "v": 67
    },
    {
      "midi": 64,
      "hit": false,
      "t": 37083.31849999998,
      "d": 2909.7210583333363,
      "v": 80
    },
    {
      "midi": 33,
      "hit": false,
      "t": 37944.42926666667,
      "d": 222.2221333333364,
      "v": 69
    },
    {
      "midi": 45,
      "hit": false,
      "t": 37944.42926666668,
      "d": 222.2221333333364,
      "v": 69
    },
    {
      "midi": 35,
      "hit": false,
      "t": 38333.31800000001,
      "d": 979.1662750000032,
      "v": 77
    },
    {
      "midi": 47,
      "hit": false,
      "t": 38333.318000000014,
      "d": 979.1662750000032,
      "v": 77
    },
    {
      "midi": 55,
      "hit": false,
      "t": 38749.98449999997,
      "d": 840.2774416666653,
      "v": 72
    },
    {
      "midi": 59,
      "hit": false,
      "t": 39166.65099999997,
      "d": 562.4997749999966,
      "v": 89
    },
    {
      "midi": 35,
      "hit": false,
      "t": 39569.42861666668,
      "d": 236.11101666666946,
      "v": 80
    },
    {
      "midi": 47,
      "hit": false,
      "t": 39569.428616666686,
      "d": 236.11101666666946,
      "v": 80
    },
    {
      "midi": 62,
      "hit": false,
      "t": 39583.31749999997,
      "d": 173.61104166666337,
      "v": 91
    },
    {
      "midi": 57,
      "hit": false,
      "t": 39999.98399999997,
      "d": 1666.6659999999974,
      "v": 84
    },
    {
      "midi": 60,
      "hit": false,
      "t": 39999.98399999997,
      "d": 1666.6659999999974,
      "v": 84
    },
    {
      "midi": 65,
      "hit": false,
      "t": 39999.98399999997,
      "d": 1666.6659999999974,
      "v": 84
    },
    {
      "midi": 41,
      "hit": false,
      "t": 39999.98400000002,
      "d": 979.1662750000032,
      "v": 77
    },
    {
      "midi": 53,
      "hit": false,
      "t": 39999.984000000026,
      "d": 979.1662750000032,
      "v": 77
    },
    {
      "midi": 69,
      "hit": false,
      "t": 40833.31699999998,
      "d": 201.38880833333678,
      "v": 103
    },
    {
      "midi": 72,
      "hit": false,
      "t": 41041.650249999984,
      "d": 409.7220583333328,
      "v": 85
    },
    {
      "midi": 41,
      "hit": false,
      "t": 41236.09461666669,
      "d": 236.11101666666946,
      "v": 80
    },
    {
      "midi": 53,
      "hit": false,
      "t": 41236.0946166667,
      "d": 236.11101666666946,
      "v": 80
    },
    {
      "midi": 72,
      "hit": false,
      "t": 41458.31674999998,
      "d": 409.7220583333328,
      "v": 96
    },
    {
      "midi": 56,
      "hit": false,
      "t": 41666.649999999965,
      "d": 1423.6105416666614,
      "v": 80
    },
    {
      "midi": 59,
      "hit": false,
      "t": 41666.649999999965,
      "d": 1423.6105416666614,
      "v": 80
    },
    {
      "midi": 40,
      "hit": false,
      "t": 41673.5944416667,
      "d": 1013.8884833333359,
      "v": 67
    },
    {
      "midi": 52,
      "hit": false,
      "t": 41673.594441666704,
      "d": 1013.8884833333359,
      "v": 67
    },
    {
      "midi": 71,
      "hit": false,
      "t": 41874.98324999998,
      "d": 1034.7218083333355,
      "v": 80
    },
    {
      "midi": 64,
      "hit": false,
      "t": 42083.316499999964,
      "d": 840.2774416666653,
      "v": 72
    },
    {
      "midi": 68,
      "hit": false,
      "t": 42499.982999999964,
      "d": 562.4997749999966,
      "v": 89
    },
    {
      "midi": 71,
      "hit": false,
      "t": 42916.64949999996,
      "d": 236.11101666666218,
      "v": 91
    },
    {
      "midi": 69,
      "hit": false,
      "t": 42916.649499999985,
      "d": 409.7220583333328,
      "v": 86
    },
    {
      "midi": 40,
      "hit": false,
      "t": 42944.4272666667,
      "d": 222.2221333333364,
      "v": 69
    },
    {
      "midi": 52,
      "hit": false,
      "t": 42944.42726666671,
      "d": 222.2221333333364,
      "v": 69
    },
    {
      "midi": 76,
      "hit": false,
      "t": 43333.315999999984,
      "d": 409.7220583333328,
      "v": 85
    },
    {
      "midi": 33,
      "hit": false,
      "t": 43333.316000000035,
      "d": 833.3329999999987,
      "v": 77
    },
    {
      "midi": 45,
      "hit": false,
      "t": 43333.31600000004,
      "d": 833.3329999999987,
      "v": 77
    },
    {
      "midi": 57,
      "hit": false,
      "t": 43361.09376666663,
      "d": 805.5552333333326,
      "v": 84
    },
    {
      "midi": 60,
      "hit": false,
      "t": 43361.09376666663,
      "d": 805.5552333333326,
      "v": 84
    },
    {
      "midi": 64,
      "hit": false,
      "t": 43361.09376666663,
      "d": 805.5552333333326,
      "v": 84
    },
    {
      "midi": 74,
      "hit": false,
      "t": 43749.982499999984,
      "d": 201.38880833333678,
      "v": 101
    },
    {
      "midi": 72,
      "hit": false,
      "t": 43958.31574999999,
      "d": 201.38880833333678,
      "v": 91
    },
    {
      "midi": 74,
      "hit": false,
      "t": 44166.64899999999,
      "d": 201.38880833333678,
      "v": 94
    },
    {
      "midi": 35,
      "hit": false,
      "t": 44166.649000000034,
      "d": 833.3329999999987,
      "v": 77
    },
    {
      "midi": 47,
      "hit": false,
      "t": 44166.64900000004,
      "d": 833.3329999999987,
      "v": 77
    },
    {
      "midi": 55,
      "hit": false,
      "t": 44194.42676666663,
      "d": 805.5552333333326,
      "v": 84
    },
    {
      "midi": 59,
      "hit": false,
      "t": 44194.42676666663,
      "d": 805.5552333333326,
      "v": 84
    },
    {
      "midi": 62,
      "hit": false,
      "t": 44194.42676666663,
      "d": 805.5552333333326,
      "v": 84
    },
    {
      "midi": 72,
      "hit": false,
      "t": 44374.982249999994,
      "d": 201.38880833333678,
      "v": 91
    },
    {
      "midi": 72,
      "hit": false,
      "t": 44583.3155,
      "d": 201.38880833333678,
      "v": 84
    },
    {
      "midi": 72,
      "hit": false,
      "t": 44791.64875,
      "d": 1868.0548083333342,
      "v": 96
    },
    {
      "midi": 36,
      "hit": false,
      "t": 45006.9264416667,
      "d": 1013.8884833333359,
      "v": 67
    },
    {
      "midi": 48,
      "hit": false,
      "t": 45006.92644166671,
      "d": 1013.8884833333359,
      "v": 67
    },
    {
      "midi": 55,
      "hit": false,
      "t": 45013.87088333329,
      "d": 1395.8327749999953,
      "v": 76
    },
    {
      "midi": 60,
      "hit": false,
      "t": 45013.87088333329,
      "d": 1395.8327749999953,
      "v": 76
    },
    {
      "midi": 64,
      "hit": false,
      "t": 46270.81482499996,
      "d": 138.8888333333307,
      "v": 70
    },
    {
      "midi": 36,
      "hit": false,
      "t": 46277.759266666704,
      "d": 222.2221333333364,
      "v": 69
    },
    {
      "midi": 48,
      "hit": false,
      "t": 46277.75926666671,
      "d": 222.2221333333364,
      "v": 69
    },
    {
      "midi": 67,
      "hit": false,
      "t": 46486.09251666662,
      "d": 180.5554833333299,
      "v": 74
    },
    {
      "midi": 57,
      "hit": false,
      "t": 46666.64799999995,
      "d": 1666.6659999999974,
      "v": 84
    },
    {
      "midi": 60,
      "hit": false,
      "t": 46666.64799999995,
      "d": 1666.6659999999974,
      "v": 84
    },
    {
      "midi": 65,
      "hit": false,
      "t": 46666.64799999995,
      "d": 1666.6659999999974,
      "v": 84
    },
    {
      "midi": 41,
      "hit": false,
      "t": 46673.592441666704,
      "d": 1013.8884833333359,
      "v": 67
    },
    {
      "midi": 53,
      "hit": false,
      "t": 46673.59244166671,
      "d": 1013.8884833333359,
      "v": 67
    },
    {
      "midi": 69,
      "hit": false,
      "t": 47499.981,
      "d": 201.38880833333678,
      "v": 84
    },
    {
      "midi": 72,
      "hit": false,
      "t": 47708.31425,
      "d": 409.7220583333328,
      "v": 96
    },
    {
      "midi": 41,
      "hit": false,
      "t": 47944.42526666671,
      "d": 222.2221333333364,
      "v": 69
    },
    {
      "midi": 53,
      "hit": false,
      "t": 47944.425266666716,
      "d": 222.2221333333364,
      "v": 69
    },
    {
      "midi": 72,
      "hit": false,
      "t": 48124.98075,
      "d": 618.0553083333361,
      "v": 107
    },
    {
      "midi": 56,
      "hit": false,
      "t": 48333.31399999995,
      "d": 1666.6659999999974,
      "v": 84
    },
    {
      "midi": 59,
      "hit": false,
      "t": 48333.31399999995,
      "d": 1666.6659999999974,
      "v": 84
    },
    {
      "midi": 64,
      "hit": false,
      "t": 48333.31399999995,
      "d": 1666.6659999999974,
      "v": 84
    },
    {
      "midi": 40,
      "hit": false,
      "t": 48333.31400000004,
      "d": 979.1662750000032,
      "v": 77
    },
    {
      "midi": 52,
      "hit": false,
      "t": 48333.31400000005,
      "d": 979.1662750000032,
      "v": 77
    },
    {
      "midi": 71,
      "hit": false,
      "t": 48749.980500000005,
      "d": 826.3885583333322,
      "v": 89
    },
    {
      "midi": 40,
      "hit": false,
      "t": 49569.424616666714,
      "d": 236.11101666666946,
      "v": 80
    },
    {
      "midi": 52,
      "hit": false,
      "t": 49569.42461666672,
      "d": 236.11101666666946,
      "v": 80
    },
    {
      "midi": 64,
      "hit": false,
      "t": 49583.313500000004,
      "d": 409.7220583333401,
      "v": 73
    },
    {
      "midi": 71,
      "hit": false,
      "t": 49791.64675000001,
      "d": 618.0553083333361,
      "v": 71
    },
    {
      "midi": 64,
      "hit": false,
      "t": 49999.979999999945,
      "d": 1027.777366666669,
      "v": 59
    },
    {
      "midi": 61,
      "hit": false,
      "t": 49999.979999999945,
      "d": 1069.4440166666682,
      "v": 62
    },
    {
      "midi": 57,
      "hit": false,
      "t": 49999.979999999945,
      "d": 1118.055108333334,
      "v": 57
    },
    {
      "midi": 45,
      "hit": false,
      "t": 50034.70220833328,
      "d": 2888.8877333333294,
      "v": 37
    },
    {
      "midi": 33,
      "hit": false,
      "t": 50041.64665000005,
      "d": 916.6662999999971,
      "v": 58
    },
    {
      "midi": 45,
      "hit": false,
      "t": 50041.64665000006,
      "d": 916.6662999999971,
      "v": 58
    },
    {
      "midi": 69,
      "hit": false,
      "t": 50416.64650000001,
      "d": 1243.0550583333315,
      "v": 107
    },
    {
      "midi": 33,
      "hit": false,
      "t": 51270.81282500005,
      "d": 111.11106666666456,
      "v": 59
    },
    {
      "midi": 45,
      "hit": false,
      "t": 51270.81282500006,
      "d": 111.11106666666456,
      "v": 59
    },
    {
      "midi": 64,
      "hit": false,
      "t": 51416.64609999995,
      "d": 652.7775166666615,
      "v": 62
    },
    {
      "midi": 61,
      "hit": false,
      "t": 51458.31274999995,
      "d": 618.0553083333289,
      "v": 65
    },
    {
      "midi": 57,
      "hit": false,
      "t": 51534.70160833328,
      "d": 437.49982499999896,
      "v": 89
    },
    {
      "midi": 33,
      "hit": false,
      "t": 51694.42376666672,
      "d": 1111.1106666666674,
      "v": 73
    },
    {
      "midi": 45,
      "hit": false,
      "t": 51694.423766666725,
      "d": 1111.1106666666674,
      "v": 73
    },
    {
      "midi": 57,
      "hit": false,
      "t": 52076.368058333275,
      "d": 430.55538333333243,
      "v": 95
    },
    {
      "midi": 76,
      "hit": false,
      "t": 52083.31250000001,
      "d": 409.7220583333328,
      "v": 107
    },
    {
      "midi": 76,
      "hit": false,
      "t": 52499.97900000001,
      "d": 409.7220583333328,
      "v": 103
    },
    {
      "midi": 61,
      "hit": false,
      "t": 52506.92344166661,
      "d": 444.4442666666655,
      "v": 74
    },
    {
      "midi": 74,
      "hit": false,
      "t": 52916.645500000006,
      "d": 409.7220583333328,
      "v": 105
    },
    {
      "midi": 64,
      "hit": false,
      "t": 52937.47882499994,
      "d": 180.5554833333299,
      "v": 72
    },
    {
      "midi": 33,
      "hit": false,
      "t": 52958.31215000005,
      "d": 124.99994999999763,
      "v": 82
    },
    {
      "midi": 45,
      "hit": false,
      "t": 52958.312150000056,
      "d": 124.99994999999763,
      "v": 82
    },
    {
      "midi": 57,
      "hit": false,
      "t": 53333.31199999994,
      "d": 1423.6105416666614,
      "v": 80
    },
    {
      "midi": 81,
      "hit": false,
      "t": 53333.312,
      "d": 1666.6659999999974,
      "v": 21
    },
    {
      "midi": 89,
      "hit": false,
      "t": 53333.312,
      "d": 1666.6659999999974,
      "v": 30
    },
    {
      "midi": 72,
      "hit": false,
      "t": 53333.312000000005,
      "d": 1451.3883083333349,
      "v": 105
    },
    {
      "midi": 38,
      "hit": false,
      "t": 53333.31200000005,
      "d": 1291.6661499999973,
      "v": 80
    },
    {
      "midi": 50,
      "hit": false,
      "t": 53333.312000000056,
      "d": 1291.6661499999973,
      "v": 80
    },
    {
      "midi": 62,
      "hit": false,
      "t": 53749.97849999994,
      "d": 840.2774416666653,
      "v": 72
    },
    {
      "midi": 65,
      "hit": false,
      "t": 54166.64499999994,
      "d": 562.4997749999966,
      "v": 89
    },
    {
      "midi": 69,
      "hit": false,
      "t": 54583.31149999994,
      "d": 236.11101666666218,
      "v": 91
    },
    {
      "midi": 74,
      "hit": false,
      "t": 54791.64475000001,
      "d": 1868.0548083333342,
      "v": 103
    },
    {
      "midi": 38,
      "hit": false,
      "t": 54791.64475000004,
      "d": 104.16662499999802,
      "v": 77
    },
    {
      "midi": 50,
      "hit": false,
      "t": 54791.64475000005,
      "d": 104.16662499999802,
      "v": 77
    },
    {
      "midi": 55,
      "hit": false,
      "t": 54999.97799999993,
      "d": 541.666449999997,
      "v": 72
    },
    {
      "midi": 59,
      "hit": false,
      "t": 54999.97799999993,
      "d": 541.666449999997,
      "v": 72
    },
    {
      "midi": 62,
      "hit": false,
      "t": 54999.97799999993,
      "d": 541.666449999997,
      "v": 72
    },
    {
      "midi": 83,
      "hit": false,
      "t": 54999.977999999996,
      "d": 1666.6659999999974,
      "v": 21
    },
    {
      "midi": 91,
      "hit": false,
      "t": 54999.977999999996,
      "d": 1666.6659999999974,
      "v": 30
    },
    {
      "midi": 43,
      "hit": false,
      "t": 54999.97800000004,
      "d": 1145.832875,
      "v": 77
    },
    {
      "midi": 55,
      "hit": false,
      "t": 54999.97800000005,
      "d": 1145.832875,
      "v": 77
    },
    {
      "midi": 43,
      "hit": false,
      "t": 55416.64449999993,
      "d": 812.4996749999991,
      "v": 82
    },
    {
      "midi": 55,
      "hit": false,
      "t": 55833.31099999993,
      "d": 465.2775916666651,
      "v": 84
    },
    {
      "midi": 59,
      "hit": false,
      "t": 55833.31099999993,
      "d": 465.2775916666651,
      "v": 84
    },
    {
      "midi": 62,
      "hit": false,
      "t": 55833.31099999993,
      "d": 465.2775916666651,
      "v": 84
    },
    {
      "midi": 67,
      "hit": false,
      "t": 56249.97750000001,
      "d": 409.7220583333328,
      "v": 70
    },
    {
      "midi": 31,
      "hit": false,
      "t": 56249.97750000004,
      "d": 118.05550833333109,
      "v": 84
    },
    {
      "midi": 43,
      "hit": false,
      "t": 56249.977500000045,
      "d": 118.05550833333109,
      "v": 84
    },
    {
      "midi": 43,
      "hit": false,
      "t": 56458.31075000003,
      "d": 90.27774166666495,
      "v": 84
    },
    {
      "midi": 55,
      "hit": false,
      "t": 56458.31075000004,
      "d": 90.27774166666495,
      "v": 84
    },
    {
      "midi": 55,
      "hit": false,
      "t": 56666.64399999993,
      "d": 2736.110016666673,
      "v": 76
    },
    {
      "midi": 64,
      "hit": false,
      "t": 56666.64399999993,
      "d": 2736.110016666673,
      "v": 76
    },
    {
      "midi": 88,
      "hit": false,
      "t": 56666.64399999999,
      "d": 3187.4987249999976,
      "v": 26
    },
    {
      "midi": 96,
      "hit": false,
      "t": 56666.64399999999,
      "d": 3194.443166666664,
      "v": 24
    },
    {
      "midi": 77,
      "hit": false,
      "t": 56666.64400000001,
      "d": 409.7220583333328,
      "v": 89
    },
    {
      "midi": 36,
      "hit": false,
      "t": 56666.64400000003,
      "d": 1333.3327999999965,
      "v": 69
    },
    {
      "midi": 48,
      "hit": false,
      "t": 56666.64400000004,
      "d": 1333.3327999999965,
      "v": 69
    },
    {
      "midi": 77,
      "hit": false,
      "t": 57083.31050000001,
      "d": 201.38880833333678,
      "v": 94
    },
    {
      "midi": 77,
      "hit": false,
      "t": 57291.64375000001,
      "d": 409.7220583333328,
      "v": 103
    },
    {
      "midi": 77,
      "hit": false,
      "t": 57916.64350000001,
      "d": 201.38880833333678,
      "v": 99
    },
    {
      "midi": 76,
      "hit": false,
      "t": 58124.976750000016,
      "d": 409.7220583333328,
      "v": 107
    },
    {
      "midi": 36,
      "hit": false,
      "t": 58124.97675000002,
      "d": 104.16662499999802,
      "v": 65
    },
    {
      "midi": 48,
      "hit": false,
      "t": 58124.97675000003,
      "d": 104.16662499999802,
      "v": 65
    },
    {
      "midi": 36,
      "hit": false,
      "t": 58333.31000000002,
      "d": 1138.8884333333335,
      "v": 61
    },
    {
      "midi": 48,
      "hit": false,
      "t": 58333.31000000003,
      "d": 1138.8884333333335,
      "v": 61
    },
    {
      "midi": 74,
      "hit": false,
      "t": 58541.643250000016,
      "d": 201.38880833333678,
      "v": 88
    },
    {
      "midi": 72,
      "hit": false,
      "t": 58749.97650000002,
      "d": 1243.0550583333315,
      "v": 101
    },
    {
      "midi": 60,
      "hit": false,
      "t": 59194.4207666666,
      "d": 208.33325000000332,
      "v": 65
    },
    {
      "midi": 64,
      "hit": false,
      "t": 59409.69845833327,
      "d": 291.66655000000173,
      "v": 78
    },
    {
      "midi": 41,
      "hit": false,
      "t": 59583.30950000002,
      "d": 97.22218333333149,
      "v": 77
    },
    {
      "midi": 53,
      "hit": false,
      "t": 59583.309500000025,
      "d": 97.22218333333149,
      "v": 77
    },
    {
      "midi": 67,
      "hit": false,
      "t": 59618.03170833327,
      "d": 270.83322499999485,
      "v": 72
    },
    {
      "midi": 40,
      "hit": false,
      "t": 59791.64275000001,
      "d": 111.11106666666456,
      "v": 82
    },
    {
      "midi": 52,
      "hit": false,
      "t": 59791.64275000002,
      "d": 111.11106666666456,
      "v": 82
    },
    {
      "midi": 72,
      "hit": false,
      "t": 59833.30939999993,
      "d": 152.77771666666376,
      "v": 72
    },
    {
      "midi": 57,
      "hit": false,
      "t": 59999.97599999993,
      "d": 541.666449999997,
      "v": 72
    },
    {
      "midi": 62,
      "hit": false,
      "t": 59999.97599999993,
      "d": 541.666449999997,
      "v": 72
    },
    {
      "midi": 65,
      "hit": false,
      "t": 59999.97599999993,
      "d": 541.666449999997,
      "v": 72
    },
    {
      "midi": 86,
      "hit": false,
      "t": 59999.97599999999,
      "d": 1666.6659999999974,
      "v": 34
    },
    {
      "midi": 89,
      "hit": false,
      "t": 59999.97599999999,
      "d": 1666.6659999999974,
      "v": 16
    },
    {
      "midi": 38,
      "hit": false,
      "t": 59999.97600000001,
      "d": 1291.6661499999973,
      "v": 80
    },
    {
      "midi": 50,
      "hit": false,
      "t": 59999.97600000002,
      "d": 1291.6661499999973,
      "v": 80
    },
    {
      "midi": 50,
      "hit": false,
      "t": 60416.64249999993,
      "d": 812.4996749999991,
      "v": 82
    },
    {
      "midi": 57,
      "hit": false,
      "t": 60833.30899999993,
      "d": 465.2775916666651,
      "v": 84
    },
    {
      "midi": 62,
      "hit": false,
      "t": 60833.30899999993,
      "d": 465.2775916666651,
      "v": 84
    },
    {
      "midi": 65,
      "hit": false,
      "t": 60833.30899999993,
      "d": 465.2775916666651,
      "v": 84
    },
    {
      "midi": 72,
      "hit": false,
      "t": 60833.309000000016,
      "d": 201.38880833333678,
      "v": 97
    },
    {
      "midi": 72,
      "hit": false,
      "t": 61041.64225000002,
      "d": 201.38880833333678,
      "v": 91
    },
    {
      "midi": 72,
      "hit": false,
      "t": 61249.97550000002,
      "d": 201.38880833333678,
      "v": 85
    },
    {
      "midi": 40,
      "hit": false,
      "t": 61458.308750000004,
      "d": 104.16662499999802,
      "v": 77
    },
    {
      "midi": 52,
      "hit": false,
      "t": 61458.30875000001,
      "d": 104.16662499999802,
      "v": 77
    },
    {
      "midi": 71,
      "hit": false,
      "t": 61458.308750000026,
      "d": 618.0553083333361,
      "v": 94
    },
    {
      "midi": 91,
      "hit": false,
      "t": 61666.641999999985,
      "d": 1666.6659999999974,
      "v": 32
    },
    {
      "midi": 95,
      "hit": false,
      "t": 61666.641999999985,
      "d": 1666.6659999999974,
      "v": 19
    },
    {
      "midi": 43,
      "hit": false,
      "t": 61666.642,
      "d": 1145.832875,
      "v": 77
    },
    {
      "midi": 55,
      "hit": false,
      "t": 61666.64200000001,
      "d": 1145.832875,
      "v": 77
    },
    {
      "midi": 55,
      "hit": false,
      "t": 62083.30849999993,
      "d": 840.2774416666653,
      "v": 72
    },
    {
      "midi": 72,
      "hit": false,
      "t": 62083.30850000003,
      "d": 409.7220583333328,
      "v": 91
    },
    {
      "midi": 59,
      "hit": false,
      "t": 62499.974999999926,
      "d": 562.4997749999966,
      "v": 89
    },
    {
      "midi": 74,
      "hit": false,
      "t": 62499.97500000003,
      "d": 409.7220583333328,
      "v": 94
    },
    {
      "midi": 62,
      "hit": false,
      "t": 62916.641499999925,
      "d": 173.61104166666337,
      "v": 91
    },
    {
      "midi": 35,
      "hit": false,
      "t": 62916.6415,
      "d": 118.05550833333109,
      "v": 84
    },
    {
      "midi": 47,
      "hit": false,
      "t": 62916.641500000005,
      "d": 118.05550833333109,
      "v": 84
    },
    {
      "midi": 74,
      "hit": false,
      "t": 62916.64150000003,
      "d": 201.38880833333678,
      "v": 96
    },
    {
      "midi": 43,
      "hit": false,
      "t": 63124.974749999994,
      "d": 90.27774166666495,
      "v": 84
    },
    {
      "midi": 55,
      "hit": false,
      "t": 63124.97475,
      "d": 90.27774166666495,
      "v": 84
    },
    {
      "midi": 72,
      "hit": false,
      "t": 63124.97475000003,
      "d": 618.0553083333361,
      "v": 85
    },
    {
      "midi": 84,
      "hit": false,
      "t": 63333.30799999998,
      "d": 1666.6659999999974,
      "v": 32
    },
    {
      "midi": 88,
      "hit": false,
      "t": 63333.30799999998,
      "d": 1666.6659999999974,
      "v": 19
    },
    {
      "midi": 33,
      "hit": false,
      "t": 63333.30799999999,
      "d": 1354.1661250000034,
      "v": 71
    },
    {
      "midi": 45,
      "hit": false,
      "t": 63333.308,
      "d": 1354.1661250000034,
      "v": 71
    },
    {
      "midi": 57,
      "hit": false,
      "t": 63347.19688333326,
      "d": 1395.8327749999953,
      "v": 76
    },
    {
      "midi": 64,
      "hit": false,
      "t": 63347.19688333326,
      "d": 1395.8327749999953,
      "v": 76
    },
    {
      "midi": 69,
      "hit": false,
      "t": 63749.97450000003,
      "d": 1659.721558333331,
      "v": 77
    },
    {
      "midi": 60,
      "hit": false,
      "t": 64604.14082499992,
      "d": 138.8888333333307,
      "v": 70
    },
    {
      "midi": 33,
      "hit": false,
      "t": 64791.64074999999,
      "d": 97.22218333333149,
      "v": 82
    },
    {
      "midi": 45,
      "hit": false,
      "t": 64791.64075,
      "d": 97.22218333333149,
      "v": 82
    },
    {
      "midi": 64,
      "hit": false,
      "t": 64819.418516666585,
      "d": 180.5554833333299,
      "v": 74
    },
    {
      "midi": 55,
      "hit": false,
      "t": 64999.973999999915,
      "d": 541.6664500000043,
      "v": 72
    },
    {
      "midi": 59,
      "hit": false,
      "t": 64999.973999999915,
      "d": 541.6664500000043,
      "v": 72
    },
    {
      "midi": 62,
      "hit": false,
      "t": 64999.973999999915,
      "d": 541.6664500000043,
      "v": 72
    },
    {
      "midi": 91,
      "hit": false,
      "t": 64999.97399999998,
      "d": 1666.6660000000047,
      "v": 28
    },
    {
      "midi": 98,
      "hit": false,
      "t": 64999.97399999998,
      "d": 1666.6660000000047,
      "v": 23
    },
    {
      "midi": 43,
      "hit": false,
      "t": 64999.97399999999,
      "d": 1145.8328749999928,
      "v": 77
    },
    {
      "midi": 55,
      "hit": false,
      "t": 64999.973999999995,
      "d": 1145.832875,
      "v": 77
    },
    {
      "midi": 43,
      "hit": false,
      "t": 65416.640499999914,
      "d": 812.4996750000064,
      "v": 82
    },
    {
      "midi": 76,
      "hit": false,
      "t": 65416.64050000003,
      "d": 409.7220583333328,
      "v": 96
    },
    {
      "midi": 55,
      "hit": false,
      "t": 65833.30699999991,
      "d": 465.2775916666724,
      "v": 84
    },
    {
      "midi": 59,
      "hit": false,
      "t": 65833.30699999991,
      "d": 465.2775916666724,
      "v": 84
    },
    {
      "midi": 62,
      "hit": false,
      "t": 65833.30699999991,
      "d": 465.2775916666724,
      "v": 84
    },
    {
      "midi": 76,
      "hit": false,
      "t": 65833.30700000003,
      "d": 409.7220583333401,
      "v": 91
    },
    {
      "midi": 43,
      "hit": false,
      "t": 66249.97349999998,
      "d": 118.05550833333109,
      "v": 84
    },
    {
      "midi": 55,
      "hit": false,
      "t": 66249.9735,
      "d": 118.05550833333109,
      "v": 84
    },
    {
      "midi": 74,
      "hit": false,
      "t": 66249.97350000004,
      "d": 409.7220583333401,
      "v": 88
    },
    {
      "midi": 43,
      "hit": false,
      "t": 66458.30674999997,
      "d": 90.27774166666495,
      "v": 84
    },
    {
      "midi": 55,
      "hit": false,
      "t": 66458.30674999999,
      "d": 90.27774166666495,
      "v": 84
    },
    {
      "midi": 57,
      "hit": false,
      "t": 66666.63999999991,
      "d": 1666.6659999999974,
      "v": 84
    },
    {
      "midi": 62,
      "hit": false,
      "t": 66666.63999999991,
      "d": 1666.6659999999974,
      "v": 84
    },
    {
      "midi": 65,
      "hit": false,
      "t": 66666.63999999991,
      "d": 1666.6659999999974,
      "v": 84
    },
    {
      "midi": 38,
      "hit": false,
      "t": 66666.63999999997,
      "d": 1354.1661250000034,
      "v": 71
    },
    {
      "midi": 81,
      "hit": false,
      "t": 66666.63999999998,
      "d": 1666.6659999999974,
      "v": 21
    },
    {
      "midi": 89,
      "hit": false,
      "t": 66666.63999999998,
      "d": 1666.6659999999974,
      "v": 30
    },
    {
      "midi": 50,
      "hit": false,
      "t": 66666.63999999998,
      "d": 1354.1661250000034,
      "v": 71
    },
    {
      "midi": 72,
      "hit": false,
      "t": 66666.64000000004,
      "d": 1451.3883083333349,
      "v": 91
    },
    {
      "midi": 38,
      "hit": false,
      "t": 68124.97274999997,
      "d": 97.22218333333149,
      "v": 82
    },
    {
      "midi": 50,
      "hit": false,
      "t": 68124.97274999999,
      "d": 97.22218333333149,
      "v": 82
    },
    {
      "midi": 74,
      "hit": false,
      "t": 68124.97275000004,
      "d": 1659.721558333331,
      "v": 103
    },
    {
      "midi": 55,
      "hit": false,
      "t": 68333.30599999991,
      "d": 1666.6659999999974,
      "v": 84
    },
    {
      "midi": 59,
      "hit": false,
      "t": 68333.30599999991,
      "d": 1666.6659999999974,
      "v": 84
    },
    {
      "midi": 62,
      "hit": false,
      "t": 68333.30599999991,
      "d": 1666.6659999999974,
      "v": 84
    },
    {
      "midi": 43,
      "hit": false,
      "t": 68333.30599999997,
      "d": 1145.8328750000073,
      "v": 77
    },
    {
      "midi": 86,
      "hit": false,
      "t": 68333.30599999998,
      "d": 1666.6659999999974,
      "v": 34
    },
    {
      "midi": 91,
      "hit": false,
      "t": 68333.30599999998,
      "d": 1666.6659999999974,
      "v": 16
    },
    {
      "midi": 55,
      "hit": false,
      "t": 68333.30599999998,
      "d": 1145.8328749999928,
      "v": 77
    },
    {
      "midi": 43,
      "hit": false,
      "t": 69583.30549999997,
      "d": 118.05550833333109,
      "v": 84
    },
    {
      "midi": 55,
      "hit": false,
      "t": 69583.30549999997,
      "d": 118.05550833333109,
      "v": 84
    },
    {
      "midi": 43,
      "hit": false,
      "t": 69791.63874999997,
      "d": 90.27774166666495,
      "v": 84
    },
    {
      "midi": 55,
      "hit": false,
      "t": 69791.63874999997,
      "d": 90.27774166666495,
      "v": 84
    },
    {
      "midi": 67,
      "hit": false,
      "t": 69791.63875000004,
      "d": 201.3888083333295,
      "v": 79
    },
    {
      "midi": 48,
      "hit": false,
      "t": 69999.9719999999,
      "d": 1361.1105666666554,
      "v": 58
    },
    {
      "midi": 64,
      "hit": false,
      "t": 69999.9719999999,
      "d": 1666.665999999983,
      "v": 61
    },
    {
      "midi": 67,
      "hit": false,
      "t": 69999.9719999999,
      "d": 1701.3882083333156,
      "v": 60
    },
    {
      "midi": 60,
      "hit": false,
      "t": 69999.9719999999,
      "d": 1729.1659749999817,
      "v": 65
    },
    {
      "midi": 79,
      "hit": false,
      "t": 69999.97199999998,
      "d": 1729.1659749999963,
      "v": 25
    },
    {
      "midi": 91,
      "hit": false,
      "t": 69999.97199999998,
      "d": 3333.331999999995,
      "v": 24
    },
    {
      "midi": 77,
      "hit": false,
      "t": 69999.97200000004,
      "d": 409.7220583333401,
      "v": 86
    },
    {
      "midi": 36,
      "hit": false,
      "t": 70020.80532499996,
      "d": 1097.221783333327,
      "v": 69
    },
    {
      "midi": 48,
      "hit": false,
      "t": 70020.80532499996,
      "d": 1097.221783333327,
      "v": 69
    },
    {
      "midi": 77,
      "hit": false,
      "t": 70416.63850000004,
      "d": 201.3888083333295,
      "v": 92
    },
    {
      "midi": 77,
      "hit": false,
      "t": 70624.97175000004,
      "d": 618.0553083333361,
      "v": 97
    },
    {
      "midi": 36,
      "hit": false,
      "t": 71249.9714999999,
      "d": 1777.7770666666474,
      "v": 53
    },
    {
      "midi": 79,
      "hit": false,
      "t": 71249.97150000004,
      "d": 201.3888083333295,
      "v": 103
    },
    {
      "midi": 76,
      "hit": false,
      "t": 71458.30475000004,
      "d": 409.7220583333401,
      "v": 107
    },
    {
      "midi": 31,
      "hit": false,
      "t": 71472.19363333329,
      "d": 159.7221583333303,
      "v": 47
    },
    {
      "midi": 43,
      "hit": false,
      "t": 71472.19363333329,
      "d": 159.7221583333303,
      "v": 47
    },
    {
      "midi": 36,
      "hit": false,
      "t": 71659.69355833328,
      "d": 1312.4994750000042,
      "v": 80
    },
    {
      "midi": 48,
      "hit": false,
      "t": 71659.69355833328,
      "d": 1312.4994750000042,
      "v": 80
    },
    {
      "midi": 48,
      "hit": false,
      "t": 71666.63799999989,
      "d": 1590.277141666651,
      "v": 56
    },
    {
      "midi": 84,
      "hit": false,
      "t": 71666.63799999998,
      "d": 1666.6659999999974,
      "v": 27
    },
    {
      "midi": 74,
      "hit": false,
      "t": 71874.97125000005,
      "d": 201.3888083333295,
      "v": 99
    },
    {
      "midi": 60,
      "hit": false,
      "t": 72083.30449999988,
      "d": 1131.9439916666597,
      "v": 80
    },
    {
      "midi": 72,
      "hit": false,
      "t": 72083.30450000004,
      "d": 1243.0550583333388,
      "v": 96
    },
    {
      "midi": 64,
      "hit": false,
      "t": 72916.63749999988,
      "d": 263.8887833333283,
      "v": 91
    },
    {
      "midi": 36,
      "hit": false,
      "t": 73097.19298333328,
      "d": 83.33329999999842,
      "v": 82
    },
    {
      "midi": 48,
      "hit": false,
      "t": 73097.19298333328,
      "d": 83.33329999999842,
      "v": 82
    },
    {
      "midi": 57,
      "hit": false,
      "t": 73333.30399999987,
      "d": 541.6664500000043,
      "v": 72
    },
    {
      "midi": 62,
      "hit": false,
      "t": 73333.30399999987,
      "d": 541.6664500000043,
      "v": 72
    },
    {
      "midi": 65,
      "hit": false,
      "t": 73333.30399999987,
      "d": 541.6664500000043,
      "v": 72
    },
    {
      "midi": 38,
      "hit": false,
      "t": 73333.30399999995,
      "d": 1354.1661250000034,
      "v": 71
    },
    {
      "midi": 50,
      "hit": false,
      "t": 73333.30399999995,
      "d": 1354.1661250000034,
      "v": 71
    },
    {
      "midi": 89,
      "hit": false,
      "t": 73333.30399999997,
      "d": 1666.6659999999974,
      "v": 28
    },
    {
      "midi": 98,
      "hit": false,
      "t": 73333.30399999997,
      "d": 1666.6659999999974,
      "v": 23
    },
    {
      "midi": 50,
      "hit": false,
      "t": 73749.97049999988,
      "d": 812.4996749999991,
      "v": 82
    },
    {
      "midi": 57,
      "hit": false,
      "t": 74166.63699999987,
      "d": 465.2775916666724,
      "v": 84
    },
    {
      "midi": 62,
      "hit": false,
      "t": 74166.63699999987,
      "d": 465.2775916666724,
      "v": 84
    },
    {
      "midi": 65,
      "hit": false,
      "t": 74166.63699999987,
      "d": 465.2775916666724,
      "v": 84
    },
    {
      "midi": 72,
      "hit": false,
      "t": 74166.63700000005,
      "d": 201.3888083333295,
      "v": 99
    },
    {
      "midi": 72,
      "hit": false,
      "t": 74374.97025000004,
      "d": 201.3888083333295,
      "v": 91
    },
    {
      "midi": 72,
      "hit": false,
      "t": 74583.30350000004,
      "d": 201.3888083333295,
      "v": 81
    },
    {
      "midi": 38,
      "hit": false,
      "t": 74791.63674999995,
      "d": 97.22218333333149,
      "v": 82
    },
    {
      "midi": 50,
      "hit": false,
      "t": 74791.63674999995,
      "d": 97.22218333333149,
      "v": 82
    },
    {
      "midi": 71,
      "hit": false,
      "t": 74791.63675000003,
      "d": 618.0553083333361,
      "v": 97
    },
    {
      "midi": 83,
      "hit": false,
      "t": 74999.96999999997,
      "d": 833.3329999999987,
      "v": 21
    },
    {
      "midi": 91,
      "hit": false,
      "t": 74999.96999999997,
      "d": 833.3329999999987,
      "v": 30
    },
    {
      "midi": 43,
      "hit": false,
      "t": 75020.80332499994,
      "d": 722.2219333333342,
      "v": 84
    },
    {
      "midi": 55,
      "hit": false,
      "t": 75020.80332499994,
      "d": 722.2219333333342,
      "v": 84
    },
    {
      "midi": 55,
      "hit": false,
      "t": 75027.74776666655,
      "d": 805.5552333333326,
      "v": 84
    },
    {
      "midi": 59,
      "hit": false,
      "t": 75027.74776666655,
      "d": 805.5552333333326,
      "v": 84
    },
    {
      "midi": 62,
      "hit": false,
      "t": 75027.74776666655,
      "d": 805.5552333333326,
      "v": 84
    },
    {
      "midi": 72,
      "hit": false,
      "t": 75416.63650000004,
      "d": 409.7220583333401,
      "v": 107
    },
    {
      "midi": 80,
      "hit": false,
      "t": 75833.30299999997,
      "d": 833.3329999999987,
      "v": 21
    },
    {
      "midi": 88,
      "hit": false,
      "t": 75833.30299999997,
      "d": 833.3329999999987,
      "v": 30
    },
    {
      "midi": 71,
      "hit": false,
      "t": 75833.30300000004,
      "d": 409.7220583333401,
      "v": 89
    },
    {
      "midi": 40,
      "hit": false,
      "t": 75854.13632499994,
      "d": 722.2219333333342,
      "v": 84
    },
    {
      "midi": 52,
      "hit": false,
      "t": 75854.13632499994,
      "d": 722.2219333333342,
      "v": 84
    },
    {
      "midi": 56,
      "hit": false,
      "t": 75861.08076666655,
      "d": 805.5552333333326,
      "v": 84
    },
    {
      "midi": 59,
      "hit": false,
      "t": 75861.08076666655,
      "d": 805.5552333333326,
      "v": 84
    },
    {
      "midi": 64,
      "hit": false,
      "t": 75861.08076666655,
      "d": 805.5552333333326,
      "v": 84
    },
    {
      "midi": 64,
      "hit": false,
      "t": 76249.96950000005,
      "d": 409.7220583333401,
      "v": 79
    },
    {
      "midi": 61,
      "hit": false,
      "t": 76666.63599999988,
      "d": 2736.1100166666583,
      "v": 76
    },
    {
      "midi": 64,
      "hit": false,
      "t": 76666.63599999988,
      "d": 2736.1100166666583,
      "v": 76
    },
    {
      "midi": 33,
      "hit": false,
      "t": 76666.63599999994,
      "d": 1333.3328000000038,
      "v": 69
    },
    {
      "midi": 45,
      "hit": false,
      "t": 76666.63599999994,
      "d": 1333.3328000000038,
      "v": 69
    },
    {
      "midi": 85,
      "hit": false,
      "t": 76666.63599999997,
      "d": 3333.331999999995,
      "v": 26
    },
    {
      "midi": 88,
      "hit": false,
      "t": 76666.63599999997,
      "d": 3333.331999999995,
      "v": 33
    },
    {
      "midi": 71,
      "hit": false,
      "t": 76666.63600000006,
      "d": 409.7220583333401,
      "v": 76
    },
    {
      "midi": 69,
      "hit": false,
      "t": 77083.30250000006,
      "d": 2909.7210583333363,
      "v": 99
    },
    {
      "midi": 33,
      "hit": false,
      "t": 78124.96874999994,
      "d": 104.16662499999802,
      "v": 65
    },
    {
      "midi": 45,
      "hit": false,
      "t": 78124.96874999994,
      "d": 104.16662499999802,
      "v": 65
    },
    {
      "midi": 33,
      "hit": false,
      "t": 78333.30199999994,
      "d": 1138.8884333333262,
      "v": 61
    },
    {
      "midi": 45,
      "hit": false,
      "t": 78333.30199999994,
      "d": 1138.8884333333262,
      "v": 61
    },
    {
      "midi": 81,
      "hit": false,
      "t": 78333.30199999997,
      "d": 1666.6659999999974,
      "v": 17
    },
    {
      "midi": 57,
      "hit": false,
      "t": 79194.41276666654,
      "d": 208.33324999999604,
      "v": 65
    },
    {
      "midi": 61,
      "hit": false,
      "t": 79409.6904583332,
      "d": 291.66654999999446,
      "v": 78
    },
    {
      "midi": 33,
      "hit": false,
      "t": 79583.30149999993,
      "d": 97.22218333333149,
      "v": 77
    },
    {
      "midi": 45,
      "hit": false,
      "t": 79583.30149999993,
      "d": 97.22218333333149,
      "v": 77
    },
    {
      "midi": 64,
      "hit": false,
      "t": 79618.0237083332,
      "d": 270.83322499999485,
      "v": 72
    },
    {
      "midi": 33,
      "hit": false,
      "t": 79791.63474999992,
      "d": 111.11106666666456,
      "v": 82
    },
    {
      "midi": 45,
      "hit": false,
      "t": 79791.63474999992,
      "d": 111.11106666666456,
      "v": 82
    },
    {
      "midi": 69,
      "hit": false,
      "t": 79833.30139999987,
      "d": 152.77771666666376,
      "v": 72
    },
    {
      "midi": 41,
      "hit": false,
      "t": 80006.91244166659,
      "d": 1013.8884833333286,
      "v": 67
    },
    {
      "midi": 53,
      "hit": false,
      "t": 80006.91244166659,
      "d": 1013.8884833333286,
      "v": 67
    },
    {
      "midi": 57,
      "hit": false,
      "t": 80013.8568833332,
      "d": 1395.8327750000026,
      "v": 76
    },
    {
      "midi": 60,
      "hit": false,
      "t": 80013.8568833332,
      "d": 1395.8327750000026,
      "v": 76
    },
    {
      "midi": 65,
      "hit": false,
      "t": 80013.8568833332,
      "d": 1395.8327750000026,
      "v": 76
    },
    {
      "midi": 69,
      "hit": false,
      "t": 80833.30100000006,
      "d": 201.3888083333295,
      "v": 92
    },
    {
      "midi": 72,
      "hit": false,
      "t": 81041.63425000006,
      "d": 409.7220583333401,
      "v": 88
    },
    {
      "midi": 69,
      "hit": false,
      "t": 81270.80082499987,
      "d": 229.16657499999565,
      "v": 70
    },
    {
      "midi": 41,
      "hit": false,
      "t": 81277.74526666658,
      "d": 222.2221333333291,
      "v": 69
    },
    {
      "midi": 53,
      "hit": false,
      "t": 81277.74526666658,
      "d": 222.2221333333291,
      "v": 69
    },
    {
      "midi": 72,
      "hit": false,
      "t": 81458.30075000007,
      "d": 618.0553083333361,
      "v": 101
    },
    {
      "midi": 72,
      "hit": false,
      "t": 81486.07851666653,
      "d": 180.5554833333299,
      "v": 74
    },
    {
      "midi": 56,
      "hit": false,
      "t": 81666.63399999986,
      "d": 1666.6659999999974,
      "v": 84
    },
    {
      "midi": 59,
      "hit": false,
      "t": 81666.63399999986,
      "d": 1666.6659999999974,
      "v": 84
    },
    {
      "midi": 64,
      "hit": false,
      "t": 81666.63399999986,
      "d": 1666.6659999999974,
      "v": 84
    },
    {
      "midi": 40,
      "hit": false,
      "t": 81673.57844166657,
      "d": 1013.8884833333286,
      "v": 67
    },
    {
      "midi": 52,
      "hit": false,
      "t": 81673.57844166657,
      "d": 1013.8884833333286,
      "v": 67
    },
    {
      "midi": 71,
      "hit": false,
      "t": 82083.30050000007,
      "d": 826.3885583333322,
      "v": 101
    },
    {
      "midi": 69,
      "hit": false,
      "t": 82916.63350000007,
      "d": 409.7220583333401,
      "v": 94
    },
    {
      "midi": 40,
      "hit": false,
      "t": 82944.41126666656,
      "d": 222.2221333333291,
      "v": 69
    },
    {
      "midi": 52,
      "hit": false,
      "t": 82944.41126666656,
      "d": 222.2221333333291,
      "v": 69
    },
    {
      "midi": 33,
      "hit": false,
      "t": 83333.29999999989,
      "d": 833.3329999999987,
      "v": 77
    },
    {
      "midi": 45,
      "hit": false,
      "t": 83333.29999999989,
      "d": 833.3329999999987,
      "v": 77
    },
    {
      "midi": 76,
      "hit": false,
      "t": 83333.30000000008,
      "d": 409.7220583333401,
      "v": 97
    },
    {
      "midi": 57,
      "hit": false,
      "t": 83361.07776666652,
      "d": 805.5552333333326,
      "v": 84
    },
    {
      "midi": 60,
      "hit": false,
      "t": 83361.07776666652,
      "d": 805.5552333333326,
      "v": 84
    },
    {
      "midi": 64,
      "hit": false,
      "t": 83361.07776666652,
      "d": 805.5552333333326,
      "v": 84
    },
    {
      "midi": 74,
      "hit": false,
      "t": 83749.96650000008,
      "d": 201.3888083333295,
      "v": 99
    },
    {
      "midi": 72,
      "hit": false,
      "t": 83958.29975000008,
      "d": 201.3888083333295,
      "v": 92
    },
    {
      "midi": 35,
      "hit": false,
      "t": 84166.63299999989,
      "d": 833.3329999999987,
      "v": 77
    },
    {
      "midi": 47,
      "hit": false,
      "t": 84166.63299999989,
      "d": 833.3329999999987,
      "v": 77
    },
    {
      "midi": 74,
      "hit": false,
      "t": 84166.63300000007,
      "d": 201.3888083333295,
      "v": 103
    },
    {
      "midi": 55,
      "hit": false,
      "t": 84194.41076666652,
      "d": 805.5552333333326,
      "v": 84
    },
    {
      "midi": 59,
      "hit": false,
      "t": 84194.41076666652,
      "d": 805.5552333333326,
      "v": 84
    },
    {
      "midi": 62,
      "hit": false,
      "t": 84194.41076666652,
      "d": 805.5552333333326,
      "v": 84
    },
    {
      "midi": 72,
      "hit": false,
      "t": 84374.96625000007,
      "d": 201.3888083333295,
      "v": 96
    },
    {
      "midi": 74,
      "hit": false,
      "t": 84583.29950000007,
      "d": 201.3888083333295,
      "v": 107
    },
    {
      "midi": 72,
      "hit": false,
      "t": 84791.63275000006,
      "d": 1868.054808333327,
      "v": 103
    },
    {
      "midi": 36,
      "hit": false,
      "t": 85006.91044166655,
      "d": 1013.8884833333286,
      "v": 67
    },
    {
      "midi": 48,
      "hit": false,
      "t": 85006.91044166655,
      "d": 1013.8884833333286,
      "v": 67
    },
    {
      "midi": 55,
      "hit": false,
      "t": 85013.85488333319,
      "d": 1395.8327750000026,
      "v": 76
    },
    {
      "midi": 60,
      "hit": false,
      "t": 85013.85488333319,
      "d": 1395.8327750000026,
      "v": 76
    },
    {
      "midi": 64,
      "hit": false,
      "t": 86270.79882499986,
      "d": 138.8888333333307,
      "v": 70
    },
    {
      "midi": 36,
      "hit": false,
      "t": 86277.74326666654,
      "d": 222.2221333333291,
      "v": 69
    },
    {
      "midi": 48,
      "hit": false,
      "t": 86277.74326666654,
      "d": 222.2221333333291,
      "v": 69
    },
    {
      "midi": 67,
      "hit": false,
      "t": 86486.07651666652,
      "d": 180.5554833333299,
      "v": 74
    },
    {
      "midi": 41,
      "hit": false,
      "t": 86666.63199999987,
      "d": 979.166274999996,
      "v": 77
    },
    {
      "midi": 53,
      "hit": false,
      "t": 86666.63199999987,
      "d": 979.166274999996,
      "v": 77
    },
    {
      "midi": 57,
      "hit": false,
      "t": 86680.52088333319,
      "d": 1395.8327750000026,
      "v": 76
    },
    {
      "midi": 60,
      "hit": false,
      "t": 86680.52088333319,
      "d": 1395.8327750000026,
      "v": 76
    },
    {
      "midi": 65,
      "hit": false,
      "t": 86680.52088333319,
      "d": 1395.8327750000026,
      "v": 76
    },
    {
      "midi": 69,
      "hit": false,
      "t": 87499.96500000005,
      "d": 201.3888083333295,
      "v": 103
    },
    {
      "midi": 72,
      "hit": false,
      "t": 87708.29825000005,
      "d": 409.7220583333401,
      "v": 99
    },
    {
      "midi": 41,
      "hit": false,
      "t": 87902.74261666652,
      "d": 236.11101666666218,
      "v": 80
    },
    {
      "midi": 53,
      "hit": false,
      "t": 87902.74261666652,
      "d": 236.11101666666218,
      "v": 80
    },
    {
      "midi": 69,
      "hit": false,
      "t": 87937.46482499986,
      "d": 229.16657499999565,
      "v": 70
    },
    {
      "midi": 72,
      "hit": false,
      "t": 88124.96475000006,
      "d": 618.0553083333361,
      "v": 101
    },
    {
      "midi": 72,
      "hit": false,
      "t": 88152.74251666652,
      "d": 180.5554833333299,
      "v": 74
    },
    {
      "midi": 40,
      "hit": false,
      "t": 88340.24244166652,
      "d": 1013.8884833333286,
      "v": 67
    },
    {
      "midi": 52,
      "hit": false,
      "t": 88340.24244166652,
      "d": 1013.8884833333286,
      "v": 67
    },
    {
      "midi": 56,
      "hit": false,
      "t": 88347.18688333318,
      "d": 1395.8327750000026,
      "v": 76
    },
    {
      "midi": 59,
      "hit": false,
      "t": 88347.18688333318,
      "d": 1395.8327750000026,
      "v": 76
    },
    {
      "midi": 64,
      "hit": false,
      "t": 88347.18688333318,
      "d": 1395.8327750000026,
      "v": 76
    },
    {
      "midi": 71,
      "hit": false,
      "t": 88749.96450000006,
      "d": 826.3885583333322,
      "v": 103
    },
    {
      "midi": 69,
      "hit": false,
      "t": 89583.29750000006,
      "d": 409.7220583333401,
      "v": 96
    },
    {
      "midi": 68,
      "hit": false,
      "t": 89604.13082499985,
      "d": 229.16657499999565,
      "v": 70
    },
    {
      "midi": 40,
      "hit": false,
      "t": 89611.0752666665,
      "d": 222.2221333333291,
      "v": 69
    },
    {
      "midi": 52,
      "hit": false,
      "t": 89611.0752666665,
      "d": 222.2221333333291,
      "v": 69
    },
    {
      "midi": 71,
      "hit": false,
      "t": 89819.40851666652,
      "d": 180.5554833333299,
      "v": 74
    },
    {
      "midi": 64,
      "hit": false,
      "t": 89999.96399999985,
      "d": 1027.7773666666617,
      "v": 59
    },
    {
      "midi": 61,
      "hit": false,
      "t": 89999.96399999985,
      "d": 1069.444016666661,
      "v": 62
    },
    {
      "midi": 57,
      "hit": false,
      "t": 89999.96399999985,
      "d": 1118.0551083333266,
      "v": 57
    },
    {
      "midi": 64,
      "hit": false,
      "t": 89999.96400000007,
      "d": 3326.3875583333283,
      "v": 103
    },
    {
      "midi": 45,
      "hit": false,
      "t": 90034.68620833318,
      "d": 2888.887733333322,
      "v": 37
    },
    {
      "midi": 33,
      "hit": false,
      "t": 90041.63064999983,
      "d": 916.6662999999971,
      "v": 58
    },
    {
      "midi": 45,
      "hit": false,
      "t": 90041.63064999983,
      "d": 916.6662999999971,
      "v": 58
    },
    {
      "midi": 33,
      "hit": false,
      "t": 91270.79682499982,
      "d": 111.11106666666456,
      "v": 59
    },
    {
      "midi": 45,
      "hit": false,
      "t": 91270.79682499982,
      "d": 111.11106666666456,
      "v": 59
    },
    {
      "midi": 64,
      "hit": false,
      "t": 91416.63009999983,
      "d": 652.7775166666543,
      "v": 62
    },
    {
      "midi": 61,
      "hit": false,
      "t": 91458.29674999983,
      "d": 618.0553083333216,
      "v": 65
    },
    {
      "midi": 57,
      "hit": false,
      "t": 91534.68560833317,
      "d": 437.4998249999917,
      "v": 89
    },
    {
      "midi": 33,
      "hit": false,
      "t": 91694.40776666648,
      "d": 1111.11066666666,
      "v": 73
    },
    {
      "midi": 45,
      "hit": false,
      "t": 91694.40776666648,
      "d": 1111.11066666666,
      "v": 73
    },
    {
      "midi": 57,
      "hit": false,
      "t": 92076.35205833316,
      "d": 430.5553833333397,
      "v": 95
    },
    {
      "midi": 61,
      "hit": false,
      "t": 92506.9074416665,
      "d": 444.4442666666728,
      "v": 74
    },
    {
      "midi": 64,
      "hit": false,
      "t": 92937.46282499983,
      "d": 180.5554833333299,
      "v": 72
    },
    {
      "midi": 33,
      "hit": false,
      "t": 92958.2961499998,
      "d": 124.99994999999763,
      "v": 82
    },
    {
      "midi": 45,
      "hit": false,
      "t": 92958.2961499998,
      "d": 124.99994999999763,
      "v": 82
    },
    {
      "midi": 41,
      "hit": false,
      "t": 93333.2959999998,
      "d": 979.166274999996,
      "v": 77
    },
    {
      "midi": 53,
      "hit": false,
      "t": 93333.2959999998,
      "d": 979.166274999996,
      "v": 77
    },
    {
      "midi": 57,
      "hit": false,
      "t": 93333.29599999983,
      "d": 1666.6659999999974,
      "v": 84
    },
    {
      "midi": 60,
      "hit": false,
      "t": 93333.29599999983,
      "d": 1666.6659999999974,
      "v": 84
    },
    {
      "midi": 65,
      "hit": false,
      "t": 93333.29599999983,
      "d": 1666.6659999999974,
      "v": 84
    },
    {
      "midi": 69,
      "hit": false,
      "t": 94166.62900000006,
      "d": 201.3888083333295,
      "v": 97
    },
    {
      "midi": 72,
      "hit": false,
      "t": 94374.96225000006,
      "d": 409.7220583333401,
      "v": 80
    },
    {
      "midi": 41,
      "hit": false,
      "t": 94569.40661666646,
      "d": 236.11101666666218,
      "v": 80
    },
    {
      "midi": 53,
      "hit": false,
      "t": 94569.40661666646,
      "d": 236.11101666666218,
      "v": 80
    },
    {
      "midi": 72,
      "hit": false,
      "t": 94791.62875000006,
      "d": 409.7220583333401,
      "v": 91
    },
    {
      "midi": 56,
      "hit": false,
      "t": 94999.96199999982,
      "d": 541.6664500000043,
      "v": 72
    },
    {
      "midi": 59,
      "hit": false,
      "t": 94999.96199999982,
      "d": 541.6664500000043,
      "v": 72
    },
    {
      "midi": 64,
      "hit": false,
      "t": 94999.96199999982,
      "d": 541.6664500000043,
      "v": 72
    },
    {
      "midi": 40,
      "hit": false,
      "t": 95006.90644166645,
      "d": 1013.8884833333286,
      "v": 67
    },
    {
      "midi": 52,
      "hit": false,
      "t": 95006.90644166645,
      "d": 1013.8884833333286,
      "v": 67
    },
    {
      "midi": 71,
      "hit": false,
      "t": 95208.29525000007,
      "d": 1034.7218083333282,
      "v": 92
    },
    {
      "midi": 52,
      "hit": false,
      "t": 95416.62849999983,
      "d": 812.4996749999991,
      "v": 82
    },
    {
      "midi": 56,
      "hit": false,
      "t": 95833.29499999982,
      "d": 465.2775916666724,
      "v": 84
    },
    {
      "midi": 59,
      "hit": false,
      "t": 95833.29499999982,
      "d": 465.2775916666724,
      "v": 84
    },
    {
      "midi": 64,
      "hit": false,
      "t": 95833.29499999982,
      "d": 465.2775916666724,
      "v": 84
    },
    {
      "midi": 40,
      "hit": false,
      "t": 96277.73926666644,
      "d": 222.2221333333291,
      "v": 69
    },
    {
      "midi": 52,
      "hit": false,
      "t": 96277.73926666644,
      "d": 222.2221333333291,
      "v": 69
    },
    {
      "midi": 69,
      "hit": false,
      "t": 96458.29475000006,
      "d": 201.3888083333295,
      "v": 70
    },
    {
      "midi": 33,
      "hit": false,
      "t": 96666.62799999976,
      "d": 833.3329999999987,
      "v": 77
    },
    {
      "midi": 45,
      "hit": false,
      "t": 96666.62799999976,
      "d": 833.3329999999987,
      "v": 77
    },
    {
      "midi": 76,
      "hit": false,
      "t": 96666.62800000006,
      "d": 618.0553083333361,
      "v": 77
    },
    {
      "midi": 57,
      "hit": false,
      "t": 96694.4057666665,
      "d": 805.5552333333326,
      "v": 84
    },
    {
      "midi": 60,
      "hit": false,
      "t": 96694.4057666665,
      "d": 805.5552333333326,
      "v": 84
    },
    {
      "midi": 64,
      "hit": false,
      "t": 96694.4057666665,
      "d": 805.5552333333326,
      "v": 84
    },
    {
      "midi": 74,
      "hit": false,
      "t": 97083.29450000006,
      "d": 201.3888083333295,
      "v": 88
    },
    {
      "midi": 72,
      "hit": false,
      "t": 97291.62775000006,
      "d": 201.3888083333295,
      "v": 84
    },
    {
      "midi": 35,
      "hit": false,
      "t": 97499.96099999976,
      "d": 833.3329999999987,
      "v": 77
    },
    {
      "midi": 47,
      "hit": false,
      "t": 97499.96099999976,
      "d": 833.3329999999987,
      "v": 77
    },
    {
      "midi": 74,
      "hit": false,
      "t": 97499.96100000005,
      "d": 201.3888083333295,
      "v": 99
    },
    {
      "midi": 55,
      "hit": false,
      "t": 97527.7387666665,
      "d": 805.5552333333326,
      "v": 84
    },
    {
      "midi": 59,
      "hit": false,
      "t": 97527.7387666665,
      "d": 805.5552333333326,
      "v": 84
    },
    {
      "midi": 62,
      "hit": false,
      "t": 97527.7387666665,
      "d": 805.5552333333326,
      "v": 84
    },
    {
      "midi": 72,
      "hit": false,
      "t": 97708.29425000005,
      "d": 201.3888083333295,
      "v": 96
    },
    {
      "midi": 72,
      "hit": false,
      "t": 97916.62750000005,
      "d": 201.3888083333295,
      "v": 99
    },
    {
      "midi": 72,
      "hit": false,
      "t": 98124.96075000004,
      "d": 1868.054808333327,
      "v": 101
    },
    {
      "midi": 36,
      "hit": false,
      "t": 98333.29399999976,
      "d": 979.166274999996,
      "v": 77
    },
    {
      "midi": 48,
      "hit": false,
      "t": 98333.29399999976,
      "d": 979.166274999996,
      "v": 77
    },
    {
      "midi": 55,
      "hit": false,
      "t": 98333.29399999983,
      "d": 1423.6105416666833,
      "v": 80
    },
    {
      "midi": 60,
      "hit": false,
      "t": 98749.96049999984,
      "d": 840.2774416666798,
      "v": 72
    },
    {
      "midi": 64,
      "hit": false,
      "t": 99166.62699999985,
      "d": 562.4997750000039,
      "v": 89
    },
    {
      "midi": 36,
      "hit": false,
      "t": 99569.40461666642,
      "d": 236.11101666666218,
      "v": 80
    },
    {
      "midi": 48,
      "hit": false,
      "t": 99569.40461666642,
      "d": 236.11101666666218,
      "v": 80
    },
    {
      "midi": 67,
      "hit": false,
      "t": 99583.29349999985,
      "d": 236.11101666666218,
      "v": 91
    },
    {
      "midi": 41,
      "hit": false,
      "t": 99999.95999999974,
      "d": 979.166274999996,
      "v": 77
    },
    {
      "midi": 53,
      "hit": false,
      "t": 99999.95999999974,
      "d": 979.166274999996,
      "v": 77
    },
    {
      "midi": 57,
      "hit": false,
      "t": 99999.95999999985,
      "d": 1423.6105416666833,
      "v": 80
    },
    {
      "midi": 60,
      "hit": false,
      "t": 99999.95999999985,
      "d": 1423.6105416666833,
      "v": 80
    },
    {
      "midi": 65,
      "hit": false,
      "t": 100416.62649999985,
      "d": 840.2774416666798,
      "v": 72
    },
    {
      "midi": 69,
      "hit": false,
      "t": 100833.29299999986,
      "d": 562.4997750000039,
      "v": 89
    },
    {
      "midi": 69,
      "hit": false,
      "t": 100833.29300000003,
      "d": 201.3888083333295,
      "v": 65
    },
    {
      "midi": 72,
      "hit": false,
      "t": 101041.62625000003,
      "d": 409.7220583333401,
      "v": 81
    },
    {
      "midi": 41,
      "hit": false,
      "t": 101236.0706166664,
      "d": 236.11101666666218,
      "v": 80
    },
    {
      "midi": 53,
      "hit": false,
      "t": 101236.0706166664,
      "d": 236.11101666666218,
      "v": 80
    },
    {
      "midi": 72,
      "hit": false,
      "t": 101249.95949999987,
      "d": 236.11101666666218,
      "v": 91
    },
    {
      "midi": 72,
      "hit": false,
      "t": 101458.29275000004,
      "d": 618.0553083333361,
      "v": 97
    },
    {
      "midi": 40,
      "hit": false,
      "t": 101673.5704416664,
      "d": 1013.8884833333286,
      "v": 67
    },
    {
      "midi": 52,
      "hit": false,
      "t": 101673.5704416664,
      "d": 1013.8884833333286,
      "v": 67
    },
    {
      "midi": 56,
      "hit": false,
      "t": 101680.51488333319,
      "d": 1395.8327750000026,
      "v": 76
    },
    {
      "midi": 59,
      "hit": false,
      "t": 101680.51488333319,
      "d": 1395.8327750000026,
      "v": 76
    },
    {
      "midi": 64,
      "hit": false,
      "t": 101680.51488333319,
      "d": 1395.8327750000026,
      "v": 76
    },
    {
      "midi": 71,
      "hit": false,
      "t": 102083.29250000004,
      "d": 826.3885583333322,
      "v": 88
    },
    {
      "midi": 64,
      "hit": false,
      "t": 102916.62550000004,
      "d": 409.72205833332555,
      "v": 79
    },
    {
      "midi": 68,
      "hit": false,
      "t": 102937.45882499986,
      "d": 229.16657499999565,
      "v": 70
    },
    {
      "midi": 40,
      "hit": false,
      "t": 102944.40326666638,
      "d": 222.2221333333291,
      "v": 69
    },
    {
      "midi": 52,
      "hit": false,
      "t": 102944.40326666638,
      "d": 222.2221333333291,
      "v": 69
    },
    {
      "midi": 71,
      "hit": false,
      "t": 103124.95875000003,
      "d": 618.0553083333361,
      "v": 91
    },
    {
      "midi": 71,
      "hit": false,
      "t": 103152.73651666653,
      "d": 180.5554833333299,
      "v": 74
    },
    {
      "midi": 33,
      "hit": false,
      "t": 103333.29199999971,
      "d": 1187.4995250000065,
      "v": 75
    },
    {
      "midi": 45,
      "hit": false,
      "t": 103333.29199999971,
      "d": 1187.4995250000065,
      "v": 75
    },
    {
      "midi": 61,
      "hit": false,
      "t": 103333.29199999986,
      "d": 2736.1100166666583,
      "v": 76
    },
    {
      "midi": 64,
      "hit": false,
      "t": 103333.29199999986,
      "d": 2736.1100166666583,
      "v": 76
    },
    {
      "midi": 69,
      "hit": false,
      "t": 103749.95850000004,
      "d": 1659.721558333331,
      "v": 103
    },
    {
      "midi": 28,
      "hit": false,
      "t": 104590.23594166638,
      "d": 416.66650000000664,
      "v": 53
    },
    {
      "midi": 40,
      "hit": false,
      "t": 104590.23594166638,
      "d": 416.66650000000664,
      "v": 53
    },
    {
      "midi": 33,
      "hit": false,
      "t": 105006.90244166639,
      "d": 138.8888333333307,
      "v": 63
    },
    {
      "midi": 45,
      "hit": false,
      "t": 105006.90244166639,
      "d": 138.8888333333307,
      "v": 63
    },
    {
      "midi": 76,
      "hit": false,
      "t": 105416.62450000003,
      "d": 409.7220583333401,
      "v": 86
    },
    {
      "midi": 33,
      "hit": false,
      "t": 105430.51338333305,
      "d": 472.2220333333389,
      "v": 69
    },
    {
      "midi": 45,
      "hit": false,
      "t": 105430.51338333305,
      "d": 472.2220333333389,
      "v": 69
    },
    {
      "midi": 76,
      "hit": false,
      "t": 105833.29100000004,
      "d": 409.7220583333401,
      "v": 86
    },
    {
      "midi": 57,
      "hit": false,
      "t": 105861.06876666652,
      "d": 208.33324999999604,
      "v": 65
    },
    {
      "midi": 61,
      "hit": false,
      "t": 106076.34645833318,
      "d": 291.66654999999446,
      "v": 78
    },
    {
      "midi": 33,
      "hit": false,
      "t": 106243.01305833305,
      "d": 194.44436666666297,
      "v": 71
    },
    {
      "midi": 45,
      "hit": false,
      "t": 106243.01305833305,
      "d": 194.44436666666297,
      "v": 71
    },
    {
      "midi": 74,
      "hit": false,
      "t": 106249.95750000005,
      "d": 409.7220583333401,
      "v": 94
    },
    {
      "midi": 64,
      "hit": false,
      "t": 106284.67970833318,
      "d": 270.83322499999485,
      "v": 72
    },
    {
      "midi": 69,
      "hit": false,
      "t": 106499.95739999984,
      "d": 152.77771666666376,
      "v": 72
    },
    {
      "midi": 38,
      "hit": false,
      "t": 106666.6239999997,
      "d": 1291.6661500000046,
      "v": 80
    },
    {
      "midi": 50,
      "hit": false,
      "t": 106666.6239999997,
      "d": 1291.6661500000046,
      "v": 80
    },
    {
      "midi": 89,
      "hit": false,
      "t": 106666.62399999997,
      "d": 1666.6659999999974,
      "v": 32
    },
    {
      "midi": 93,
      "hit": false,
      "t": 106666.62399999997,
      "d": 1666.6659999999974,
      "v": 19
    },
    {
      "midi": 72,
      "hit": false,
      "t": 106666.62400000005,
      "d": 1451.3883083333349,
      "v": 99
    },
    {
      "midi": 57,
      "hit": false,
      "t": 106680.51288333317,
      "d": 1395.8327750000026,
      "v": 76
    },
    {
      "midi": 62,
      "hit": false,
      "t": 106680.51288333317,
      "d": 1395.8327750000026,
      "v": 76
    },
    {
      "midi": 65,
      "hit": false,
      "t": 107937.45682499984,
      "d": 138.8888333333307,
      "v": 70
    },
    {
      "midi": 38,
      "hit": false,
      "t": 108124.9567499997,
      "d": 104.16662499999802,
      "v": 77
    },
    {
      "midi": 50,
      "hit": false,
      "t": 108124.9567499997,
      "d": 104.16662499999802,
      "v": 77
    },
    {
      "midi": 74,
      "hit": false,
      "t": 108124.95675000006,
      "d": 1451.3883083333349,
      "v": 112
    },
    {
      "midi": 69,
      "hit": false,
      "t": 108152.7345166665,
      "d": 180.5554833333299,
      "v": 74
    },
    {
      "midi": 43,
      "hit": false,
      "t": 108333.2899999997,
      "d": 1145.8328750000073,
      "v": 77
    },
    {
      "midi": 55,
      "hit": false,
      "t": 108333.2899999997,
      "d": 1145.8328750000073,
      "v": 77
    },
    {
      "midi": 55,
      "hit": false,
      "t": 108333.28999999983,
      "d": 541.6664500000043,
      "v": 72
    },
    {
      "midi": 59,
      "hit": false,
      "t": 108333.28999999983,
      "d": 541.6664500000043,
      "v": 72
    },
    {
      "midi": 62,
      "hit": false,
      "t": 108333.28999999983,
      "d": 541.6664500000043,
      "v": 72
    },
    {
      "midi": 86,
      "hit": false,
      "t": 108333.28999999996,
      "d": 1666.6659999999974,
      "v": 34
    },
    {
      "midi": 91,
      "hit": false,
      "t": 108333.28999999996,
      "d": 1666.6659999999974,
      "v": 16
    },
    {
      "midi": 43,
      "hit": false,
      "t": 108749.95649999984,
      "d": 812.4996749999991,
      "v": 82
    },
    {
      "midi": 55,
      "hit": false,
      "t": 109166.62299999983,
      "d": 465.2775916666724,
      "v": 84
    },
    {
      "midi": 59,
      "hit": false,
      "t": 109166.62299999983,
      "d": 465.2775916666724,
      "v": 84
    },
    {
      "midi": 62,
      "hit": false,
      "t": 109166.62299999983,
      "d": 465.2775916666724,
      "v": 84
    },
    {
      "midi": 31,
      "hit": false,
      "t": 109583.28949999971,
      "d": 118.05550833333109,
      "v": 84
    },
    {
      "midi": 43,
      "hit": false,
      "t": 109583.28949999971,
      "d": 118.05550833333109,
      "v": 84
    },
    {
      "midi": 67,
      "hit": false,
      "t": 109583.28950000006,
      "d": 409.7220583333401,
      "v": 92
    },
    {
      "midi": 43,
      "hit": false,
      "t": 109791.6227499997,
      "d": 90.27774166666495,
      "v": 84
    },
    {
      "midi": 55,
      "hit": false,
      "t": 109791.6227499997,
      "d": 90.27774166666495,
      "v": 84
    },
    {
      "midi": 88,
      "hit": false,
      "t": 109999.95599999996,
      "d": 3333.331999999995,
      "v": 27
    },
    {
      "midi": 91,
      "hit": false,
      "t": 109999.95599999996,
      "d": 3333.331999999995,
      "v": 23
    },
    {
      "midi": 77,
      "hit": false,
      "t": 109999.95600000006,
      "d": 409.7220583333401,
      "v": 79
    },
    {
      "midi": 36,
      "hit": false,
      "t": 110020.7893249997,
      "d": 1097.221783333327,
      "v": 69
    },
    {
      "midi": 48,
      "hit": false,
      "t": 110020.7893249997,
      "d": 1097.221783333327,
      "v": 69
    },
    {
      "midi": 55,
      "hit": false,
      "t": 110027.73376666651,
      "d": 1895.832574999993,
      "v": 78
    },
    {
      "midi": 60,
      "hit": false,
      "t": 110027.73376666651,
      "d": 1895.832574999993,
      "v": 78
    },
    {
      "midi": 64,
      "hit": false,
      "t": 110027.73376666651,
      "d": 1895.832574999993,
      "v": 78
    },
    {
      "midi": 77,
      "hit": false,
      "t": 110416.62250000007,
      "d": 201.3888083333295,
      "v": 99
    },
    {
      "midi": 77,
      "hit": false,
      "t": 110624.95575000007,
      "d": 618.0553083333361,
      "v": 101
    },
    {
      "midi": 77,
      "hit": false,
      "t": 111249.95550000007,
      "d": 201.3888083333295,
      "v": 96
    },
    {
      "midi": 76,
      "hit": false,
      "t": 111458.28875000007,
      "d": 409.7220583333401,
      "v": 107
    },
    {
      "midi": 31,
      "hit": false,
      "t": 111472.17763333302,
      "d": 159.7221583333303,
      "v": 47
    },
    {
      "midi": 43,
      "hit": false,
      "t": 111472.17763333302,
      "d": 159.7221583333303,
      "v": 47
    },
    {
      "midi": 36,
      "hit": false,
      "t": 111659.67755833302,
      "d": 1312.4994750000042,
      "v": 80
    },
    {
      "midi": 48,
      "hit": false,
      "t": 111659.67755833302,
      "d": 1312.4994750000042,
      "v": 80
    },
    {
      "midi": 74,
      "hit": false,
      "t": 111874.95525000007,
      "d": 201.3888083333295,
      "v": 83
    },
    {
      "midi": 72,
      "hit": false,
      "t": 112083.28850000007,
      "d": 1243.0550583333388,
      "v": 103
    },
    {
      "midi": 48,
      "hit": false,
      "t": 112104.12182499983,
      "d": 472.2220333333389,
      "v": 82
    },
    {
      "midi": 55,
      "hit": false,
      "t": 112513.84388333317,
      "d": 583.3331000000035,
      "v": 78
    },
    {
      "midi": 60,
      "hit": false,
      "t": 112513.84388333317,
      "d": 583.3331000000035,
      "v": 78
    },
    {
      "midi": 64,
      "hit": false,
      "t": 112513.84388333317,
      "d": 583.3331000000035,
      "v": 78
    },
    {
      "midi": 36,
      "hit": false,
      "t": 113097.17698333302,
      "d": 83.33329999999842,
      "v": 82
    },
    {
      "midi": 48,
      "hit": false,
      "t": 113097.17698333302,
      "d": 83.33329999999842,
      "v": 82
    },
    {
      "midi": 38,
      "hit": false,
      "t": 113333.28799999968,
      "d": 1354.1661250000034,
      "v": 71
    },
    {
      "midi": 50,
      "hit": false,
      "t": 113333.28799999968,
      "d": 1354.1661250000034,
      "v": 71
    },
    {
      "midi": 57,
      "hit": false,
      "t": 113333.28799999984,
      "d": 1666.6659999999974,
      "v": 84
    },
    {
      "midi": 62,
      "hit": false,
      "t": 113333.28799999984,
      "d": 1666.6659999999974,
      "v": 84
    },
    {
      "midi": 65,
      "hit": false,
      "t": 113333.28799999984,
      "d": 1666.6659999999974,
      "v": 84
    },
    {
      "midi": 81,
      "hit": false,
      "t": 113333.28799999996,
      "d": 1666.6659999999974,
      "v": 21
    },
    {
      "midi": 89,
      "hit": false,
      "t": 113333.28799999996,
      "d": 1666.6659999999974,
      "v": 30
    },
    {
      "midi": 72,
      "hit": false,
      "t": 114166.62100000007,
      "d": 201.3888083333295,
      "v": 99
    },
    {
      "midi": 72,
      "hit": false,
      "t": 114374.95425000007,
      "d": 201.3888083333295,
      "v": 83
    },
    {
      "midi": 72,
      "hit": false,
      "t": 114583.28750000006,
      "d": 201.3888083333295,
      "v": 101
    },
    {
      "midi": 38,
      "hit": false,
      "t": 114791.62074999968,
      "d": 97.22218333333149,
      "v": 82
    },
    {
      "midi": 50,
      "hit": false,
      "t": 114791.62074999968,
      "d": 97.22218333333149,
      "v": 82
    },
    {
      "midi": 71,
      "hit": false,
      "t": 114791.62075000006,
      "d": 618.0553083333361,
      "v": 101
    },
    {
      "midi": 43,
      "hit": false,
      "t": 114999.95399999968,
      "d": 1145.8328749999928,
      "v": 77
    },
    {
      "midi": 55,
      "hit": false,
      "t": 114999.95399999968,
      "d": 1145.8328749999928,
      "v": 77
    },
    {
      "midi": 83,
      "hit": false,
      "t": 114999.95399999995,
      "d": 1666.6659999999974,
      "v": 21
    },
    {
      "midi": 91,
      "hit": false,
      "t": 114999.95399999995,
      "d": 1666.6659999999974,
      "v": 30
    },
    {
      "midi": 55,
      "hit": false,
      "t": 115013.84288333317,
      "d": 1395.8327750000026,
      "v": 76
    },
    {
      "midi": 62,
      "hit": false,
      "t": 115013.84288333317,
      "d": 1395.8327750000026,
      "v": 76
    },
    {
      "midi": 72,
      "hit": false,
      "t": 115416.62050000006,
      "d": 201.3888083333295,
      "v": 97
    },
    {
      "midi": 74,
      "hit": false,
      "t": 115624.95375000006,
      "d": 409.7220583333401,
      "v": 84
    },
    {
      "midi": 43,
      "hit": false,
      "t": 116249.95349999967,
      "d": 118.05550833333109,
      "v": 84
    },
    {
      "midi": 55,
      "hit": false,
      "t": 116249.95349999967,
      "d": 118.05550833333109,
      "v": 84
    },
    {
      "midi": 74,
      "hit": false,
      "t": 116249.95350000006,
      "d": 409.7220583333401,
      "v": 91
    },
    {
      "midi": 59,
      "hit": false,
      "t": 116270.78682499984,
      "d": 138.8888333333307,
      "v": 70
    },
    {
      "midi": 43,
      "hit": false,
      "t": 116458.28674999966,
      "d": 90.27774166666495,
      "v": 84
    },
    {
      "midi": 55,
      "hit": false,
      "t": 116458.28674999966,
      "d": 90.27774166666495,
      "v": 84
    },
    {
      "midi": 62,
      "hit": false,
      "t": 116486.0645166665,
      "d": 180.5554833333299,
      "v": 74
    },
    {
      "midi": 33,
      "hit": false,
      "t": 116666.61999999966,
      "d": 1291.6661500000046,
      "v": 80
    },
    {
      "midi": 45,
      "hit": false,
      "t": 116666.61999999966,
      "d": 1291.6661500000046,
      "v": 80
    },
    {
      "midi": 57,
      "hit": false,
      "t": 116666.61999999984,
      "d": 541.6664500000043,
      "v": 72
    },
    {
      "midi": 60,
      "hit": false,
      "t": 116666.61999999984,
      "d": 541.6664500000043,
      "v": 72
    },
    {
      "midi": 64,
      "hit": false,
      "t": 116666.61999999984,
      "d": 541.6664500000043,
      "v": 72
    },
    {
      "midi": 81,
      "hit": false,
      "t": 116666.61999999995,
      "d": 1666.6659999999974,
      "v": 34
    },
    {
      "midi": 84,
      "hit": false,
      "t": 116666.61999999995,
      "d": 1666.6659999999974,
      "v": 16
    },
    {
      "midi": 76,
      "hit": false,
      "t": 116666.62000000007,
      "d": 409.72205833332555,
      "v": 103
    },
    {
      "midi": 74,
      "hit": false,
      "t": 116874.95325000006,
      "d": 201.3888083333295,
      "v": 91
    },
    {
      "midi": 45,
      "hit": false,
      "t": 117083.28649999984,
      "d": 812.4996749999991,
      "v": 82
    },
    {
      "midi": 72,
      "hit": false,
      "t": 117083.28650000006,
      "d": 1659.721558333331,
      "v": 84
    },
    {
      "midi": 57,
      "hit": false,
      "t": 117499.95299999983,
      "d": 465.2775916666724,
      "v": 84
    },
    {
      "midi": 60,
      "hit": false,
      "t": 117499.95299999983,
      "d": 465.2775916666724,
      "v": 84
    },
    {
      "midi": 64,
      "hit": false,
      "t": 117499.95299999983,
      "d": 465.2775916666724,
      "v": 84
    },
    {
      "midi": 40,
      "hit": false,
      "t": 118124.95274999966,
      "d": 104.16662499999802,
      "v": 77
    },
    {
      "midi": 52,
      "hit": false,
      "t": 118124.95274999966,
      "d": 104.16662499999802,
      "v": 77
    },
    {
      "midi": 43,
      "hit": false,
      "t": 118333.28599999966,
      "d": 1145.8328750000073,
      "v": 77
    },
    {
      "midi": 55,
      "hit": false,
      "t": 118333.28599999966,
      "d": 1145.8328750000073,
      "v": 77
    },
    {
      "midi": 55,
      "hit": false,
      "t": 118333.28599999983,
      "d": 1666.6659999999974,
      "v": 84
    },
    {
      "midi": 59,
      "hit": false,
      "t": 118333.28599999983,
      "d": 1666.6659999999974,
      "v": 84
    },
    {
      "midi": 62,
      "hit": false,
      "t": 118333.28599999983,
      "d": 1666.6659999999974,
      "v": 84
    },
    {
      "midi": 83,
      "hit": false,
      "t": 118333.28599999995,
      "d": 1666.6659999999974,
      "v": 21
    },
    {
      "midi": 91,
      "hit": false,
      "t": 118333.28599999995,
      "d": 1666.6659999999974,
      "v": 30
    },
    {
      "midi": 76,
      "hit": false,
      "t": 118749.95250000006,
      "d": 409.7220583333401,
      "v": 105
    },
    {
      "midi": 76,
      "hit": false,
      "t": 119166.61900000006,
      "d": 409.7220583333401,
      "v": 103
    },
    {
      "midi": 31,
      "hit": false,
      "t": 119583.28549999966,
      "d": 118.05550833333109,
      "v": 84
    },
    {
      "midi": 43,
      "hit": false,
      "t": 119583.28549999966,
      "d": 118.05550833333109,
      "v": 84
    },
    {
      "midi": 74,
      "hit": false,
      "t": 119583.28550000007,
      "d": 409.7220583333401,
      "v": 103
    },
    {
      "midi": 43,
      "hit": false,
      "t": 119791.61874999966,
      "d": 90.27774166666495,
      "v": 84
    },
    {
      "midi": 55,
      "hit": false,
      "t": 119791.61874999966,
      "d": 90.27774166666495,
      "v": 84
    },
    {
      "midi": 38,
      "hit": false,
      "t": 119999.95199999966,
      "d": 1354.1661250000034,
      "v": 71
    },
    {
      "midi": 50,
      "hit": false,
      "t": 119999.95199999966,
      "d": 1354.1661250000034,
      "v": 71
    },
    {
      "midi": 57,
      "hit": false,
      "t": 119999.95199999983,
      "d": 541.6664500000043,
      "v": 72
    },
    {
      "midi": 62,
      "hit": false,
      "t": 119999.95199999983,
      "d": 541.6664500000043,
      "v": 72
    },
    {
      "midi": 65,
      "hit": false,
      "t": 119999.95199999983,
      "d": 541.6664500000043,
      "v": 72
    },
    {
      "midi": 86,
      "hit": false,
      "t": 119999.95199999995,
      "d": 1666.6659999999974,
      "v": 34
    },
    {
      "midi": 89,
      "hit": false,
      "t": 119999.95199999995,
      "d": 1666.6659999999974,
      "v": 16
    },
    {
      "midi": 72,
      "hit": false,
      "t": 119999.95200000008,
      "d": 1451.3883083333349,
      "v": 89
    },
    {
      "midi": 50,
      "hit": false,
      "t": 120416.61849999984,
      "d": 812.4996749999991,
      "v": 82
    },
    {
      "midi": 57,
      "hit": false,
      "t": 120833.28499999983,
      "d": 465.2775916666724,
      "v": 84
    },
    {
      "midi": 62,
      "hit": false,
      "t": 120833.28499999983,
      "d": 465.2775916666724,
      "v": 84
    },
    {
      "midi": 65,
      "hit": false,
      "t": 120833.28499999983,
      "d": 465.2775916666724,
      "v": 84
    },
    {
      "midi": 38,
      "hit": false,
      "t": 121458.28474999966,
      "d": 97.22218333333149,
      "v": 82
    },
    {
      "midi": 50,
      "hit": false,
      "t": 121458.28474999966,
      "d": 97.22218333333149,
      "v": 82
    },
    {
      "midi": 74,
      "hit": false,
      "t": 121458.28475000008,
      "d": 1659.721558333331,
      "v": 103
    },
    {
      "midi": 43,
      "hit": false,
      "t": 121666.61799999965,
      "d": 1145.8328750000073,
      "v": 77
    },
    {
      "midi": 55,
      "hit": false,
      "t": 121666.61799999965,
      "d": 1145.8328750000073,
      "v": 77
    },
    {
      "midi": 55,
      "hit": false,
      "t": 121666.61799999983,
      "d": 1666.6659999999974,
      "v": 84
    },
    {
      "midi": 59,
      "hit": false,
      "t": 121666.61799999983,
      "d": 1666.6659999999974,
      "v": 84
    },
    {
      "midi": 62,
      "hit": false,
      "t": 121666.61799999983,
      "d": 1666.6659999999974,
      "v": 84
    },
    {
      "midi": 91,
      "hit": false,
      "t": 121666.61799999994,
      "d": 1666.6659999999974,
      "v": 32
    },
    {
      "midi": 95,
      "hit": false,
      "t": 121666.61799999994,
      "d": 1666.6659999999974,
      "v": 19
    },
    {
      "midi": 43,
      "hit": false,
      "t": 122916.61749999966,
      "d": 118.05550833333109,
      "v": 84
    },
    {
      "midi": 55,
      "hit": false,
      "t": 122916.61749999966,
      "d": 118.05550833333109,
      "v": 84
    },
    {
      "midi": 43,
      "hit": false,
      "t": 123124.95074999965,
      "d": 90.27774166666495,
      "v": 84
    },
    {
      "midi": 55,
      "hit": false,
      "t": 123124.95074999965,
      "d": 90.27774166666495,
      "v": 84
    },
    {
      "midi": 67,
      "hit": false,
      "t": 123124.95075000008,
      "d": 201.3888083333295,
      "v": 91
    },
    {
      "midi": 36,
      "hit": false,
      "t": 123333.28399999965,
      "d": 916.6662999999971,
      "v": 77
    },
    {
      "midi": 48,
      "hit": false,
      "t": 123333.28399999965,
      "d": 916.6662999999971,
      "v": 77
    },
    {
      "midi": 67,
      "hit": false,
      "t": 123333.28399999983,
      "d": 1027.7773666666617,
      "v": 59
    },
    {
      "midi": 64,
      "hit": false,
      "t": 123333.28399999983,
      "d": 1069.444016666661,
      "v": 62
    },
    {
      "midi": 60,
      "hit": false,
      "t": 123333.28399999983,
      "d": 1118.0551083333266,
      "v": 57
    },
    {
      "midi": 88,
      "hit": false,
      "t": 123333.28399999994,
      "d": 3333.331999999995,
      "v": 27
    },
    {
      "midi": 91,
      "hit": false,
      "t": 123333.28399999994,
      "d": 3333.331999999995,
      "v": 23
    },
    {
      "midi": 77,
      "hit": false,
      "t": 123333.28400000007,
      "d": 409.7220583333401,
      "v": 94
    },
    {
      "midi": 36,
      "hit": false,
      "t": 123368.00620833316,
      "d": 2888.887733333322,
      "v": 37
    },
    {
      "midi": 77,
      "hit": false,
      "t": 123749.95050000008,
      "d": 201.3888083333295,
      "v": 94
    },
    {
      "midi": 77,
      "hit": false,
      "t": 123958.28375000008,
      "d": 618.0553083333361,
      "v": 99
    },
    {
      "midi": 79,
      "hit": false,
      "t": 124583.28350000008,
      "d": 201.3888083333295,
      "v": 91
    },
    {
      "midi": 67,
      "hit": false,
      "t": 124749.95009999981,
      "d": 652.7775166666543,
      "v": 62
    },
    {
      "midi": 36,
      "hit": false,
      "t": 124791.61674999965,
      "d": 76.38885833333188,
      "v": 67
    },
    {
      "midi": 48,
      "hit": false,
      "t": 124791.61674999965,
      "d": 76.38885833333188,
      "v": 67
    },
    {
      "midi": 64,
      "hit": false,
      "t": 124791.61674999981,
      "d": 618.0553083333216,
      "v": 65
    },
    {
      "midi": 76,
      "hit": false,
      "t": 124791.61675000007,
      "d": 409.7220583333401,
      "v": 94
    },
    {
      "midi": 60,
      "hit": false,
      "t": 124868.00560833314,
      "d": 437.4998249999917,
      "v": 89
    },
    {
      "midi": 36,
      "hit": false,
      "t": 124999.94999999965,
      "d": 1124.9995499999932,
      "v": 77
    },
    {
      "midi": 48,
      "hit": false,
      "t": 124999.94999999965,
      "d": 1124.9995499999932,
      "v": 77
    },
    {
      "midi": 74,
      "hit": false,
      "t": 125208.28325000008,
      "d": 201.3888083333295,
      "v": 88
    },
    {
      "midi": 60,
      "hit": false,
      "t": 125409.67205833313,
      "d": 430.5553833333397,
      "v": 95
    },
    {
      "midi": 72,
      "hit": false,
      "t": 125416.61650000008,
      "d": 1243.0550583333388,
      "v": 99
    },
    {
      "midi": 64,
      "hit": false,
      "t": 125840.22744166647,
      "d": 444.4442666666728,
      "v": 74
    },
    {
      "midi": 67,
      "hit": false,
      "t": 126270.78282499981,
      "d": 180.5554833333299,
      "v": 72
    },
    {
      "midi": 36,
      "hit": false,
      "t": 126458.28274999963,
      "d": 97.22218333333149,
      "v": 97
    },
    {
      "midi": 48,
      "hit": false,
      "t": 126458.28274999963,
      "d": 97.22218333333149,
      "v": 97
    },
    {
      "midi": 38,
      "hit": false,
      "t": 126666.61599999963,
      "d": 1291.6661500000046,
      "v": 80
    },
    {
      "midi": 50,
      "hit": false,
      "t": 126666.61599999963,
      "d": 1291.6661500000046,
      "v": 80
    },
    {
      "midi": 57,
      "hit": false,
      "t": 126666.6159999998,
      "d": 1423.6105416666833,
      "v": 80
    },
    {
      "midi": 81,
      "hit": false,
      "t": 126666.61599999994,
      "d": 1666.6659999999974,
      "v": 21
    },
    {
      "midi": 89,
      "hit": false,
      "t": 126666.61599999994,
      "d": 1666.6659999999974,
      "v": 30
    },
    {
      "midi": 62,
      "hit": false,
      "t": 127083.28249999981,
      "d": 840.2774416666798,
      "v": 72
    },
    {
      "midi": 65,
      "hit": false,
      "t": 127499.94899999982,
      "d": 562.4997750000039,
      "v": 89
    },
    {
      "midi": 72,
      "hit": false,
      "t": 127499.94900000008,
      "d": 201.3888083333295,
      "v": 94
    },
    {
      "midi": 72,
      "hit": false,
      "t": 127708.28225000008,
      "d": 201.3888083333295,
      "v": 94
    },
    {
      "midi": 69,
      "hit": false,
      "t": 127916.61549999983,
      "d": 236.11101666666218,
      "v": 91
    },
    {
      "midi": 72,
      "hit": false,
      "t": 127916.61550000007,
      "d": 201.3888083333295,
      "v": 97
    },
    {
      "midi": 41,
      "hit": false,
      "t": 128124.94874999963,
      "d": 104.16662499999802,
      "v": 77
    },
    {
      "midi": 53,
      "hit": false,
      "t": 128124.94874999963,
      "d": 104.16662499999802,
      "v": 77
    },
    {
      "midi": 71,
      "hit": false,
      "t": 128124.94875000007,
      "d": 618.0553083333361,
      "v": 103
    },
    {
      "midi": 83,
      "hit": false,
      "t": 128333.28199999993,
      "d": 833.3329999999987,
      "v": 21
    },
    {
      "midi": 91,
      "hit": false,
      "t": 128333.28199999993,
      "d": 833.3329999999987,
      "v": 30
    },
    {
      "midi": 43,
      "hit": false,
      "t": 128354.11532499963,
      "d": 722.2219333333342,
      "v": 84
    },
    {
      "midi": 55,
      "hit": false,
      "t": 128354.11532499963,
      "d": 722.2219333333342,
      "v": 84
    },
    {
      "midi": 55,
      "hit": false,
      "t": 128361.05976666648,
      "d": 805.5552333333326,
      "v": 84
    },
    {
      "midi": 59,
      "hit": false,
      "t": 128361.05976666648,
      "d": 805.5552333333326,
      "v": 84
    },
    {
      "midi": 62,
      "hit": false,
      "t": 128361.05976666648,
      "d": 805.5552333333326,
      "v": 84
    },
    {
      "midi": 72,
      "hit": false,
      "t": 128749.94850000007,
      "d": 409.7220583333401,
      "v": 84
    },
    {
      "midi": 80,
      "hit": false,
      "t": 129166.61499999993,
      "d": 833.3329999999987,
      "v": 21
    },
    {
      "midi": 88,
      "hit": false,
      "t": 129166.61499999993,
      "d": 833.3329999999987,
      "v": 30
    },
    {
      "midi": 71,
      "hit": false,
      "t": 129166.61500000008,
      "d": 409.7220583333401,
      "v": 81
    },
    {
      "midi": 40,
      "hit": false,
      "t": 129187.44832499963,
      "d": 722.2219333333342,
      "v": 84
    },
    {
      "midi": 52,
      "hit": false,
      "t": 129187.44832499963,
      "d": 722.2219333333342,
      "v": 84
    },
    {
      "midi": 56,
      "hit": false,
      "t": 129194.39276666648,
      "d": 805.5552333333326,
      "v": 84
    },
    {
      "midi": 59,
      "hit": false,
      "t": 129194.39276666648,
      "d": 805.5552333333326,
      "v": 84
    },
    {
      "midi": 64,
      "hit": false,
      "t": 129194.39276666648,
      "d": 805.5552333333326,
      "v": 84
    },
    {
      "midi": 64,
      "hit": false,
      "t": 129583.28150000008,
      "d": 201.3888083333295,
      "v": 76
    },
    {
      "midi": 71,
      "hit": false,
      "t": 129791.61475000008,
      "d": 618.0553083333361,
      "v": 80
    },
    {
      "midi": 33,
      "hit": false,
      "t": 129999.94799999963,
      "d": 916.6662999999971,
      "v": 77
    },
    {
      "midi": 45,
      "hit": false,
      "t": 129999.94799999963,
      "d": 916.6662999999971,
      "v": 77
    },
    {
      "midi": 76,
      "hit": false,
      "t": 129999.94799999993,
      "d": 1729.1659750000254,
      "v": 25
    },
    {
      "midi": 88,
      "hit": false,
      "t": 129999.94799999993,
      "d": 3333.3320000000385,
      "v": 24
    },
    {
      "midi": 57,
      "hit": false,
      "t": 130020.78132499981,
      "d": 2402.77681666665,
      "v": 91
    },
    {
      "midi": 61,
      "hit": false,
      "t": 130020.78132499981,
      "d": 2402.77681666665,
      "v": 91
    },
    {
      "midi": 69,
      "hit": false,
      "t": 130416.61450000008,
      "d": 1659.7215583333455,
      "v": 101
    },
    {
      "midi": 33,
      "hit": false,
      "t": 131458.28074999963,
      "d": 76.38885833334643,
      "v": 67
    },
    {
      "midi": 45,
      "hit": false,
      "t": 131458.28074999963,
      "d": 76.38885833334643,
      "v": 67
    },
    {
      "midi": 33,
      "hit": false,
      "t": 131666.61399999965,
      "d": 1124.9995500000077,
      "v": 77
    },
    {
      "midi": 45,
      "hit": false,
      "t": 131666.61399999965,
      "d": 1124.9995500000077,
      "v": 77
    },
    {
      "midi": 81,
      "hit": false,
      "t": 131666.61399999994,
      "d": 1666.6660000000265,
      "v": 27
    },
    {
      "midi": 64,
      "hit": false,
      "t": 132104.1138249998,
      "d": 319.4443166666606,
      "v": 72
    },
    {
      "midi": 61,
      "hit": false,
      "t": 132520.7803249998,
      "d": 486.11091666665743,
      "v": 68
    },
    {
      "midi": 57,
      "hit": false,
      "t": 132951.33570833312,
      "d": 361.1109666666598,
      "v": 95
    },
    {
      "midi": 33,
      "hit": false,
      "t": 133124.94674999965,
      "d": 97.22218333333149,
      "v": 97
    },
    {
      "midi": 45,
      "hit": false,
      "t": 133124.94674999965,
      "d": 97.22218333333149,
      "v": 97
    },
    {
      "midi": 57,
      "hit": false,
      "t": 133333.2799999998,
      "d": 1666.6659999999974,
      "v": 84
    },
    {
      "midi": 60,
      "hit": false,
      "t": 133333.2799999998,
      "d": 1666.6659999999974,
      "v": 84
    },
    {
      "midi": 65,
      "hit": false,
      "t": 133333.2799999998,
      "d": 1666.6659999999974,
      "v": 84
    },
    {
      "midi": 41,
      "hit": false,
      "t": 133340.22444166633,
      "d": 1013.8884833333432,
      "v": 67
    },
    {
      "midi": 65,
      "hit": false,
      "t": 133749.9465000001,
      "d": 409.7220583333401,
      "v": 97
    },
    {
      "midi": 65,
      "hit": false,
      "t": 134166.61300000013,
      "d": 201.38880833334406,
      "v": 99
    },
    {
      "midi": 67,
      "hit": false,
      "t": 134374.94625000015,
      "d": 201.38880833334406,
      "v": 92
    },
    {
      "midi": 69,
      "hit": false,
      "t": 134583.27950000018,
      "d": 826.3885583333322,
      "v": 105
    },
    {
      "midi": 41,
      "hit": false,
      "t": 134611.05726666635,
      "d": 222.2221333333291,
      "v": 69
    },
    {
      "midi": 40,
      "hit": false,
      "t": 134999.94599999968,
      "d": 979.166274999996,
      "v": 77
    },
    {
      "midi": 56,
      "hit": false,
      "t": 135013.83488333313,
      "d": 1395.832774999988,
      "v": 76
    },
    {
      "midi": 59,
      "hit": false,
      "t": 135013.83488333313,
      "d": 1395.832774999988,
      "v": 76
    },
    {
      "midi": 64,
      "hit": false,
      "t": 135013.83488333313,
      "d": 1395.832774999988,
      "v": 76
    },
    {
      "midi": 68,
      "hit": false,
      "t": 135416.6125000002,
      "d": 409.7220583333401,
      "v": 82
    },
    {
      "midi": 68,
      "hit": false,
      "t": 135833.2790000002,
      "d": 201.38880833334406,
      "v": 90
    },
    {
      "midi": 69,
      "hit": false,
      "t": 136041.61225000024,
      "d": 201.38880833334406,
      "v": 88
    },
    {
      "midi": 40,
      "hit": false,
      "t": 136236.05661666635,
      "d": 236.11101666666218,
      "v": 80
    },
    {
      "midi": 71,
      "hit": false,
      "t": 136249.94550000026,
      "d": 409.7220583333401,
      "v": 89
    },
    {
      "midi": 68,
      "hit": false,
      "t": 136270.77882499978,
      "d": 229.1665750000102,
      "v": 70
    },
    {
      "midi": 71,
      "hit": false,
      "t": 136486.05651666646,
      "d": 180.5554833333299,
      "v": 74
    },
    {
      "midi": 33,
      "hit": false,
      "t": 136666.61199999967,
      "d": 833.3330000000133,
      "v": 77
    },
    {
      "midi": 69,
      "hit": false,
      "t": 136666.61200000028,
      "d": 826.3885583333322,
      "v": 75
    },
    {
      "midi": 57,
      "hit": false,
      "t": 136694.38976666646,
      "d": 805.5552333333471,
      "v": 84
    },
    {
      "midi": 60,
      "hit": false,
      "t": 136694.38976666646,
      "d": 805.5552333333471,
      "v": 84
    },
    {
      "midi": 64,
      "hit": false,
      "t": 136694.38976666646,
      "d": 805.5552333333471,
      "v": 84
    },
    {
      "midi": 35,
      "hit": false,
      "t": 137499.9449999997,
      "d": 833.3330000000133,
      "v": 77
    },
    {
      "midi": 71,
      "hit": false,
      "t": 137499.9450000003,
      "d": 826.3885583333322,
      "v": 96
    },
    {
      "midi": 55,
      "hit": false,
      "t": 137527.72276666647,
      "d": 805.5552333333471,
      "v": 84
    },
    {
      "midi": 59,
      "hit": false,
      "t": 137527.72276666647,
      "d": 805.5552333333471,
      "v": 84
    },
    {
      "midi": 62,
      "hit": false,
      "t": 137527.72276666647,
      "d": 805.5552333333471,
      "v": 84
    },
    {
      "midi": 55,
      "hit": false,
      "t": 138333.27799999982,
      "d": 541.6664499999897,
      "v": 72
    },
    {
      "midi": 60,
      "hit": false,
      "t": 138333.27799999982,
      "d": 541.6664499999897,
      "v": 72
    },
    {
      "midi": 64,
      "hit": false,
      "t": 138333.27799999982,
      "d": 541.6664499999897,
      "v": 72
    },
    {
      "midi": 72,
      "hit": false,
      "t": 138333.2780000003,
      "d": 1659.7215583333455,
      "v": 96
    },
    {
      "midi": 36,
      "hit": false,
      "t": 138340.22244166638,
      "d": 1013.8884833333432,
      "v": 67
    },
    {
      "midi": 48,
      "hit": false,
      "t": 138749.9444999998,
      "d": 812.4996749999991,
      "v": 82
    },
    {
      "midi": 55,
      "hit": false,
      "t": 139166.6109999998,
      "d": 465.2775916666724,
      "v": 84
    },
    {
      "midi": 60,
      "hit": false,
      "t": 139166.6109999998,
      "d": 465.2775916666724,
      "v": 84
    },
    {
      "midi": 64,
      "hit": false,
      "t": 139166.6109999998,
      "d": 465.2775916666724,
      "v": 84
    },
    {
      "midi": 36,
      "hit": false,
      "t": 139611.0552666664,
      "d": 222.2221333333291,
      "v": 69
    },
    {
      "midi": 57,
      "hit": false,
      "t": 139999.9439999998,
      "d": 1423.6105416666542,
      "v": 80
    },
    {
      "midi": 60,
      "hit": false,
      "t": 139999.9439999998,
      "d": 1423.6105416666542,
      "v": 80
    },
    {
      "midi": 41,
      "hit": false,
      "t": 140006.8884416664,
      "d": 1013.8884833333432,
      "v": 67
    },
    {
      "midi": 65,
      "hit": false,
      "t": 140416.6104999998,
      "d": 840.2774416666653,
      "v": 72
    },
    {
      "midi": 65,
      "hit": false,
      "t": 140416.61050000033,
      "d": 409.7220583333401,
      "v": 85
    },
    {
      "midi": 69,
      "hit": false,
      "t": 140833.2769999998,
      "d": 562.4997750000039,
      "v": 89
    },
    {
      "midi": 65,
      "hit": false,
      "t": 140833.27700000035,
      "d": 201.38880833334406,
      "v": 80
    },
    {
      "midi": 67,
      "hit": false,
      "t": 141041.61025000038,
      "d": 201.38880833334406,
      "v": 81
    },
    {
      "midi": 72,
      "hit": false,
      "t": 141249.9434999998,
      "d": 236.11101666669128,
      "v": 91
    },
    {
      "midi": 69,
      "hit": false,
      "t": 141249.9435000004,
      "d": 826.3885583333322,
      "v": 92
    },
    {
      "midi": 41,
      "hit": false,
      "t": 141277.72126666643,
      "d": 222.2221333333291,
      "v": 69
    },
    {
      "midi": 56,
      "hit": false,
      "t": 141666.6099999998,
      "d": 1666.6659999999974,
      "v": 84
    },
    {
      "midi": 59,
      "hit": false,
      "t": 141666.6099999998,
      "d": 1666.6659999999974,
      "v": 84
    },
    {
      "midi": 64,
      "hit": false,
      "t": 141666.6099999998,
      "d": 1666.6659999999974,
      "v": 84
    },
    {
      "midi": 40,
      "hit": false,
      "t": 141673.55444166643,
      "d": 1013.8884833333432,
      "v": 67
    },
    {
      "midi": 68,
      "hit": false,
      "t": 142083.27650000041,
      "d": 409.7220583333401,
      "v": 82
    },
    {
      "midi": 68,
      "hit": false,
      "t": 142499.94300000044,
      "d": 201.38880833334406,
      "v": 68
    },
    {
      "midi": 69,
      "hit": false,
      "t": 142708.27625000046,
      "d": 201.38880833334406,
      "v": 76
    },
    {
      "midi": 71,
      "hit": false,
      "t": 142916.6095000005,
      "d": 409.7220583333401,
      "v": 73
    },
    {
      "midi": 40,
      "hit": false,
      "t": 142944.38726666645,
      "d": 222.2221333333291,
      "v": 69
    },
    {
      "midi": 33,
      "hit": false,
      "t": 143333.27599999978,
      "d": 1201.388408333325,
      "v": 67
    },
    {
      "midi": 69,
      "hit": false,
      "t": 143333.2760000005,
      "d": 2076.3880583333375,
      "v": 88
    },
    {
      "midi": 57,
      "hit": false,
      "t": 143388.83153333314,
      "d": 2999.998800000001,
      "v": 82
    },
    {
      "midi": 61,
      "hit": false,
      "t": 143388.83153333314,
      "d": 2999.998800000001,
      "v": 82
    },
    {
      "midi": 64,
      "hit": false,
      "t": 143388.83153333314,
      "d": 2999.998800000001,
      "v": 82
    },
    {
      "midi": 33,
      "hit": false,
      "t": 144583.27549999979,
      "d": 104.16662500001257,
      "v": 77
    },
    {
      "midi": 33,
      "hit": false,
      "t": 144999.9419999998,
      "d": 131.9443916666787,
      "v": 80
    },
    {
      "midi": 33,
      "hit": false,
      "t": 145416.60849999983,
      "d": 541.6664499999897,
      "v": 77
    },
    {
      "midi": 76,
      "hit": false,
      "t": 145416.60850000053,
      "d": 409.7220583333401,
      "v": 89
    },
    {
      "midi": 76,
      "hit": false,
      "t": 145833.27500000055,
      "d": 409.7220583333401,
      "v": 107
    },
    {
      "midi": 33,
      "hit": false,
      "t": 146249.9414999998,
      "d": 180.5554833333299,
      "v": 82
    },
    {
      "midi": 74,
      "hit": false,
      "t": 146249.94150000057,
      "d": 409.7220583333401,
      "v": 101
    },
    {
      "midi": 72,
      "hit": false,
      "t": 146666.60799999966,
      "d": 1451.3883083333203,
      "v": 99
    },
    {
      "midi": 38,
      "hit": false,
      "t": 146666.6079999998,
      "d": 1291.6661500000046,
      "v": 80
    },
    {
      "midi": 57,
      "hit": false,
      "t": 146666.6079999998,
      "d": 1666.6659999999974,
      "v": 84
    },
    {
      "midi": 62,
      "hit": false,
      "t": 146666.6079999998,
      "d": 1666.6659999999974,
      "v": 84
    },
    {
      "midi": 65,
      "hit": false,
      "t": 146666.6079999998,
      "d": 1666.6659999999974,
      "v": 84
    },
    {
      "midi": 81,
      "hit": false,
      "t": 146666.60799999998,
      "d": 1666.6659999999974,
      "v": 21
    },
    {
      "midi": 89,
      "hit": false,
      "t": 146666.60799999998,
      "d": 1666.6659999999974,
      "v": 30
    },
    {
      "midi": 72,
      "hit": false,
      "t": 146666.6080000006,
      "d": 1451.3883083333203,
      "v": 99
    },
    {
      "midi": 74,
      "hit": false,
      "t": 148124.94074999966,
      "d": 1659.7215583333455,
      "v": 99
    },
    {
      "midi": 38,
      "hit": false,
      "t": 148124.9407499998,
      "d": 104.16662500001257,
      "v": 77
    },
    {
      "midi": 74,
      "hit": false,
      "t": 148124.9407500006,
      "d": 1659.7215583333455,
      "v": 99
    },
    {
      "midi": 55,
      "hit": false,
      "t": 148333.2739999998,
      "d": 1666.6659999999974,
      "v": 84
    },
    {
      "midi": 59,
      "hit": false,
      "t": 148333.2739999998,
      "d": 1666.6659999999974,
      "v": 84
    },
    {
      "midi": 62,
      "hit": false,
      "t": 148333.2739999998,
      "d": 1666.6659999999974,
      "v": 84
    },
    {
      "midi": 43,
      "hit": false,
      "t": 148333.27399999983,
      "d": 1145.8328749999928,
      "v": 77
    },
    {
      "midi": 83,
      "hit": false,
      "t": 148333.27399999998,
      "d": 1666.6659999999974,
      "v": 21
    },
    {
      "midi": 91,
      "hit": false,
      "t": 148333.27399999998,
      "d": 1666.6659999999974,
      "v": 30
    },
    {
      "midi": 38,
      "hit": false,
      "t": 149583.27349999984,
      "d": 118.05550833334564,
      "v": 84
    },
    {
      "midi": 67,
      "hit": false,
      "t": 149791.6067499997,
      "d": 201.38880833334406,
      "v": 70
    },
    {
      "midi": 43,
      "hit": false,
      "t": 149791.60674999986,
      "d": 90.2777416666795,
      "v": 84
    },
    {
      "midi": 67,
      "hit": false,
      "t": 149791.60675000062,
      "d": 201.38880833334406,
      "v": 70
    },
    {
      "midi": 77,
      "hit": false,
      "t": 149999.9399999997,
      "d": 409.7220583333401,
      "v": 92
    },
    {
      "midi": 88,
      "hit": false,
      "t": 149999.93999999997,
      "d": 3187.498725000012,
      "v": 26
    },
    {
      "midi": 96,
      "hit": false,
      "t": 149999.93999999997,
      "d": 3194.4431666666933,
      "v": 24
    },
    {
      "midi": 77,
      "hit": false,
      "t": 149999.94000000064,
      "d": 409.7220583333401,
      "v": 92
    },
    {
      "midi": 55,
      "hit": false,
      "t": 150020.7733249998,
      "d": 1243.0550583333243,
      "v": 86
    },
    {
      "midi": 60,
      "hit": false,
      "t": 150020.7733249998,
      "d": 1243.0550583333243,
      "v": 86
    },
    {
      "midi": 64,
      "hit": false,
      "t": 150020.7733249998,
      "d": 1243.0550583333243,
      "v": 86
    },
    {
      "midi": 36,
      "hit": false,
      "t": 150020.77332499987,
      "d": 1097.2217833333416,
      "v": 69
    },
    {
      "midi": 77,
      "hit": false,
      "t": 150416.60649999973,
      "d": 201.38880833334406,
      "v": 96
    },
    {
      "midi": 77,
      "hit": false,
      "t": 150416.60650000066,
      "d": 201.38880833334406,
      "v": 96
    },
    {
      "midi": 77,
      "hit": false,
      "t": 150624.93974999976,
      "d": 618.0553083333361,
      "v": 94
    },
    {
      "midi": 77,
      "hit": false,
      "t": 150624.9397500007,
      "d": 618.0553083333361,
      "v": 94
    },
    {
      "midi": 48,
      "hit": false,
      "t": 151236.05061666647,
      "d": 2027.7769666666863,
      "v": 67
    },
    {
      "midi": 77,
      "hit": false,
      "t": 151249.93949999977,
      "d": 201.38880833334406,
      "v": 86
    },
    {
      "midi": 77,
      "hit": false,
      "t": 151249.9395000007,
      "d": 201.38880833334406,
      "v": 86
    },
    {
      "midi": 76,
      "hit": false,
      "t": 151458.2727499998,
      "d": 409.7220583333401,
      "v": 97
    },
    {
      "midi": 76,
      "hit": false,
      "t": 151458.27275000073,
      "d": 409.7220583333401,
      "v": 97
    },
    {
      "midi": 31,
      "hit": false,
      "t": 151472.16163333322,
      "d": 159.72215833334485,
      "v": 47
    },
    {
      "midi": 36,
      "hit": false,
      "t": 151659.66155833323,
      "d": 1312.4994749999896,
      "v": 80
    },
    {
      "midi": 60,
      "hit": false,
      "t": 151680.49488333313,
      "d": 1597.2215833333612,
      "v": 70
    },
    {
      "midi": 74,
      "hit": false,
      "t": 151874.93924999982,
      "d": 201.38880833334406,
      "v": 91
    },
    {
      "midi": 74,
      "hit": false,
      "t": 151874.93925000075,
      "d": 201.38880833334406,
      "v": 91
    },
    {
      "midi": 64,
      "hit": false,
      "t": 152083.2724999998,
      "d": 1166.666200000036,
      "v": 72
    },
    {
      "midi": 72,
      "hit": false,
      "t": 152083.27249999985,
      "d": 1243.0550583333243,
      "v": 85
    },
    {
      "midi": 72,
      "hit": false,
      "t": 152083.27250000078,
      "d": 1243.0550583333243,
      "v": 85
    },
    {
      "midi": 67,
      "hit": false,
      "t": 152527.71676666648,
      "d": 708.3330499999865,
      "v": 86
    },
    {
      "midi": 72,
      "hit": false,
      "t": 152902.71661666647,
      "d": 333.33319999999367,
      "v": 63
    },
    {
      "midi": 36,
      "hit": false,
      "t": 153097.16098333322,
      "d": 83.33329999999842,
      "v": 82
    },
    {
      "midi": 38,
      "hit": false,
      "t": 153333.27199999988,
      "d": 1291.6661500000046,
      "v": 80
    },
    {
      "midi": 81,
      "hit": false,
      "t": 153333.272,
      "d": 1666.6659999999974,
      "v": 21
    },
    {
      "midi": 89,
      "hit": false,
      "t": 153333.272,
      "d": 1666.6659999999974,
      "v": 30
    },
    {
      "midi": 57,
      "hit": false,
      "t": 153347.16088333316,
      "d": 1395.832774999988,
      "v": 76
    },
    {
      "midi": 62,
      "hit": false,
      "t": 153347.16088333316,
      "d": 1395.832774999988,
      "v": 76
    },
    {
      "midi": 72,
      "hit": false,
      "t": 154166.60499999984,
      "d": 201.38880833334406,
      "v": 96
    },
    {
      "midi": 72,
      "hit": false,
      "t": 154166.60500000077,
      "d": 201.38880833334406,
      "v": 96
    },
    {
      "midi": 72,
      "hit": false,
      "t": 154374.93824999986,
      "d": 201.38880833334406,
      "v": 89
    },
    {
      "midi": 72,
      "hit": false,
      "t": 154374.9382500008,
      "d": 201.38880833334406,
      "v": 89
    },
    {
      "midi": 72,
      "hit": false,
      "t": 154583.2714999999,
      "d": 201.38880833334406,
      "v": 97
    },
    {
      "midi": 72,
      "hit": false,
      "t": 154583.27150000082,
      "d": 201.38880833334406,
      "v": 97
    },
    {
      "midi": 65,
      "hit": false,
      "t": 154604.1048249998,
      "d": 138.8888333333307,
      "v": 70
    },
    {
      "midi": 41,
      "hit": false,
      "t": 154791.60474999988,
      "d": 104.16662500001257,
      "v": 77
    },
    {
      "midi": 71,
      "hit": false,
      "t": 154791.6047499999,
      "d": 826.3885583333322,
      "v": 96
    },
    {
      "midi": 71,
      "hit": false,
      "t": 154791.60475000084,
      "d": 826.3885583333322,
      "v": 96
    },
    {
      "midi": 69,
      "hit": false,
      "t": 154819.3825166665,
      "d": 180.5554833333299,
      "v": 74
    },
    {
      "midi": 43,
      "hit": false,
      "t": 154999.9379999999,
      "d": 1145.8328749999928,
      "v": 77
    },
    {
      "midi": 91,
      "hit": false,
      "t": 154999.938,
      "d": 1666.6659999999974,
      "v": 32
    },
    {
      "midi": 95,
      "hit": false,
      "t": 154999.938,
      "d": 1666.6659999999974,
      "v": 19
    },
    {
      "midi": 55,
      "hit": false,
      "t": 155013.82688333315,
      "d": 1395.832774999988,
      "v": 76
    },
    {
      "midi": 62,
      "hit": false,
      "t": 155013.82688333315,
      "d": 1395.832774999988,
      "v": 76
    },
    {
      "midi": 72,
      "hit": false,
      "t": 155416.6044999999,
      "d": 409.7220583333401,
      "v": 89
    },
    {
      "midi": 72,
      "hit": false,
      "t": 155416.60450000083,
      "d": 409.7220583333401,
      "v": 89
    },
    {
      "midi": 74,
      "hit": false,
      "t": 155833.27099999992,
      "d": 409.7220583333401,
      "v": 91
    },
    {
      "midi": 74,
      "hit": false,
      "t": 155833.27100000085,
      "d": 409.7220583333401,
      "v": 91
    },
    {
      "midi": 34,
      "hit": false,
      "t": 156249.9374999999,
      "d": 118.05550833334564,
      "v": 84
    },
    {
      "midi": 74,
      "hit": false,
      "t": 156249.93749999994,
      "d": 409.7220583333401,
      "v": 94
    },
    {
      "midi": 74,
      "hit": false,
      "t": 156249.93750000087,
      "d": 409.7220583333401,
      "v": 94
    },
    {
      "midi": 59,
      "hit": false,
      "t": 156270.7708249998,
      "d": 138.8888333333307,
      "v": 70
    },
    {
      "midi": 43,
      "hit": false,
      "t": 156458.27074999994,
      "d": 90.2777416666795,
      "v": 84
    },
    {
      "midi": 62,
      "hit": false,
      "t": 156486.0485166665,
      "d": 180.5554833333299,
      "v": 74
    },
    {
      "midi": 33,
      "hit": false,
      "t": 156666.60399999996,
      "d": 1291.6661500000046,
      "v": 80
    },
    {
      "midi": 72,
      "hit": false,
      "t": 156666.60399999996,
      "d": 409.7220583333401,
      "v": 84
    },
    {
      "midi": 76,
      "hit": false,
      "t": 156666.604,
      "d": 1666.6659999999974,
      "v": 21
    },
    {
      "midi": 84,
      "hit": false,
      "t": 156666.604,
      "d": 1666.6659999999974,
      "v": 30
    },
    {
      "midi": 72,
      "hit": false,
      "t": 156666.6040000009,
      "d": 409.7220583333401,
      "v": 84
    },
    {
      "midi": 57,
      "hit": false,
      "t": 156680.49288333315,
      "d": 1395.832774999988,
      "v": 76
    },
    {
      "midi": 64,
      "hit": false,
      "t": 156680.49288333315,
      "d": 1395.832774999988,
      "v": 76
    },
    {
      "midi": 69,
      "hit": false,
      "t": 157083.27049999998,
      "d": 826.3885583333322,
      "v": 74
    },
    {
      "midi": 69,
      "hit": false,
      "t": 157083.27050000092,
      "d": 826.3885583333322,
      "v": 74
    },
    {
      "midi": 60,
      "hit": false,
      "t": 157937.4368249998,
      "d": 138.8888333333307,
      "v": 70
    },
    {
      "midi": 40,
      "hit": false,
      "t": 158124.93674999996,
      "d": 104.16662500001257,
      "v": 77
    },
    {
      "midi": 64,
      "hit": false,
      "t": 158152.71451666648,
      "d": 180.5554833333299,
      "v": 74
    },
    {
      "midi": 43,
      "hit": false,
      "t": 158333.27,
      "d": 1145.8328749999928,
      "v": 77
    },
    {
      "midi": 83,
      "hit": false,
      "t": 158333.27,
      "d": 1666.6659999999974,
      "v": 21
    },
    {
      "midi": 91,
      "hit": false,
      "t": 158333.27,
      "d": 1666.6659999999974,
      "v": 30
    },
    {
      "midi": 55,
      "hit": false,
      "t": 158749.9364999998,
      "d": 840.2774416666653,
      "v": 72
    },
    {
      "midi": 76,
      "hit": false,
      "t": 158749.93649999998,
      "d": 409.7220583333401,
      "v": 101
    },
    {
      "midi": 76,
      "hit": false,
      "t": 158749.9365000009,
      "d": 409.7220583333401,
      "v": 101
    },
    {
      "midi": 59,
      "hit": false,
      "t": 159166.6029999998,
      "d": 562.4997750000039,
      "v": 89
    },
    {
      "midi": 76,
      "hit": false,
      "t": 159166.603,
      "d": 409.7220583333401,
      "v": 94
    },
    {
      "midi": 76,
      "hit": false,
      "t": 159166.60300000093,
      "d": 409.7220583333401,
      "v": 94
    },
    {
      "midi": 62,
      "hit": false,
      "t": 159583.2694999998,
      "d": 173.61104166667792,
      "v": 91
    },
    {
      "midi": 40,
      "hit": false,
      "t": 159583.2695,
      "d": 118.05550833334564,
      "v": 84
    },
    {
      "midi": 74,
      "hit": false,
      "t": 159583.26950000002,
      "d": 409.7220583333401,
      "v": 97
    },
    {
      "midi": 74,
      "hit": false,
      "t": 159583.26950000096,
      "d": 409.7220583333401,
      "v": 97
    },
    {
      "midi": 43,
      "hit": false,
      "t": 159791.60275000002,
      "d": 90.2777416666795,
      "v": 84
    },
    {
      "midi": 57,
      "hit": false,
      "t": 159999.9359999998,
      "d": 1423.6105416666542,
      "v": 80
    },
    {
      "midi": 89,
      "hit": false,
      "t": 159999.936,
      "d": 1666.6659999999974,
      "v": 32
    },
    {
      "midi": 93,
      "hit": false,
      "t": 159999.936,
      "d": 1666.6659999999974,
      "v": 19
    },
    {
      "midi": 38,
      "hit": false,
      "t": 159999.93600000005,
      "d": 1354.1661249999888,
      "v": 71
    },
    {
      "midi": 72,
      "hit": false,
      "t": 159999.93600000005,
      "d": 1451.3883083333203,
      "v": 99
    },
    {
      "midi": 72,
      "hit": false,
      "t": 159999.93600000098,
      "d": 1451.3883083333203,
      "v": 99
    },
    {
      "midi": 62,
      "hit": false,
      "t": 160416.6024999998,
      "d": 840.2774416666653,
      "v": 72
    },
    {
      "midi": 65,
      "hit": false,
      "t": 160833.2689999998,
      "d": 562.4997750000039,
      "v": 89
    },
    {
      "midi": 69,
      "hit": false,
      "t": 161249.9354999998,
      "d": 236.11101666669128,
      "v": 91
    },
    {
      "midi": 38,
      "hit": false,
      "t": 161458.26875000005,
      "d": 97.22218333333149,
      "v": 82
    },
    {
      "midi": 74,
      "hit": false,
      "t": 161458.26875000005,
      "d": 1659.7215583333455,
      "v": 97
    },
    {
      "midi": 74,
      "hit": false,
      "t": 161458.26875000098,
      "d": 1659.7215583333455,
      "v": 97
    },
    {
      "midi": 86,
      "hit": false,
      "t": 161666.60199999998,
      "d": 1666.6659999999974,
      "v": 34
    },
    {
      "midi": 91,
      "hit": false,
      "t": 161666.60199999998,
      "d": 1666.6659999999974,
      "v": 16
    },
    {
      "midi": 43,
      "hit": false,
      "t": 161666.60200000004,
      "d": 1145.8328749999928,
      "v": 77
    },
    {
      "midi": 55,
      "hit": false,
      "t": 162083.2684999998,
      "d": 840.2774416666653,
      "v": 72
    },
    {
      "midi": 59,
      "hit": false,
      "t": 162499.9349999998,
      "d": 562.4997750000039,
      "v": 89
    },
    {
      "midi": 62,
      "hit": false,
      "t": 162916.6014999998,
      "d": 173.61104166667792,
      "v": 91
    },
    {
      "midi": 43,
      "hit": false,
      "t": 162916.60150000005,
      "d": 118.05550833334564,
      "v": 84
    },
    {
      "midi": 43,
      "hit": false,
      "t": 163124.93475000007,
      "d": 90.2777416666795,
      "v": 84
    },
    {
      "midi": 67,
      "hit": false,
      "t": 163124.93475000007,
      "d": 201.38880833334406,
      "v": 65
    },
    {
      "midi": 67,
      "hit": false,
      "t": 163124.934750001,
      "d": 201.38880833334406,
      "v": 65
    },
    {
      "midi": 79,
      "hit": false,
      "t": 163333.26799999998,
      "d": 3333.331999999995,
      "v": 33
    },
    {
      "midi": 88,
      "hit": false,
      "t": 163333.26799999998,
      "d": 3333.331999999995,
      "v": 17
    },
    {
      "midi": 36,
      "hit": false,
      "t": 163333.2680000001,
      "d": 916.6663000000117,
      "v": 77
    },
    {
      "midi": 77,
      "hit": false,
      "t": 163333.2680000001,
      "d": 409.7220583333401,
      "v": 85
    },
    {
      "midi": 77,
      "hit": false,
      "t": 163333.26800000103,
      "d": 409.7220583333401,
      "v": 85
    },
    {
      "midi": 55,
      "hit": false,
      "t": 163354.1013249998,
      "d": 1243.0550583333243,
      "v": 86
    },
    {
      "midi": 60,
      "hit": false,
      "t": 163354.1013249998,
      "d": 1243.0550583333243,
      "v": 86
    },
    {
      "midi": 64,
      "hit": false,
      "t": 163354.1013249998,
      "d": 1243.0550583333243,
      "v": 86
    },
    {
      "midi": 77,
      "hit": false,
      "t": 163958.26775000012,
      "d": 618.0553083333361,
      "v": 92
    },
    {
      "midi": 77,
      "hit": false,
      "t": 163958.26775000105,
      "d": 618.0553083333361,
      "v": 92
    },
    {
      "midi": 48,
      "hit": false,
      "t": 164569.37861666645,
      "d": 2027.7769666666863,
      "v": 67
    },
    {
      "midi": 79,
      "hit": false,
      "t": 164583.26750000013,
      "d": 201.38880833334406,
      "v": 89
    },
    {
      "midi": 79,
      "hit": false,
      "t": 164583.26750000106,
      "d": 201.38880833334406,
      "v": 89
    },
    {
      "midi": 36,
      "hit": false,
      "t": 164791.6007500001,
      "d": 76.38885833334643,
      "v": 67
    },
    {
      "midi": 76,
      "hit": false,
      "t": 164791.60075000016,
      "d": 618.0553083333361,
      "v": 79
    },
    {
      "midi": 76,
      "hit": false,
      "t": 164791.6007500011,
      "d": 618.0553083333361,
      "v": 79
    },
    {
      "midi": 36,
      "hit": false,
      "t": 164999.93400000012,
      "d": 1124.9995500000077,
      "v": 77
    },
    {
      "midi": 60,
      "hit": false,
      "t": 165013.8228833331,
      "d": 1597.2215833333612,
      "v": 70
    },
    {
      "midi": 74,
      "hit": false,
      "t": 165208.26725000015,
      "d": 201.38880833334406,
      "v": 91
    },
    {
      "midi": 74,
      "hit": false,
      "t": 165208.26725000108,
      "d": 201.38880833334406,
      "v": 91
    },
    {
      "midi": 64,
      "hit": false,
      "t": 165416.60049999977,
      "d": 1166.666200000036,
      "v": 72
    },
    {
      "midi": 72,
      "hit": false,
      "t": 165416.60050000018,
      "d": 1243.0550583333243,
      "v": 91
    },
    {
      "midi": 72,
      "hit": false,
      "t": 165416.6005000011,
      "d": 1243.0550583333243,
      "v": 91
    },
    {
      "midi": 67,
      "hit": false,
      "t": 165861.04476666645,
      "d": 708.3330499999865,
      "v": 86
    },
    {
      "midi": 72,
      "hit": false,
      "t": 166236.04461666645,
      "d": 333.33319999999367,
      "v": 63
    },
    {
      "midi": 36,
      "hit": false,
      "t": 166458.26675000013,
      "d": 97.22218333333149,
      "v": 97
    },
    {
      "midi": 57,
      "hit": false,
      "t": 166666.5999999998,
      "d": 1423.6105416666542,
      "v": 80
    },
    {
      "midi": 89,
      "hit": false,
      "t": 166666.59999999998,
      "d": 1666.6659999999974,
      "v": 28
    },
    {
      "midi": 98,
      "hit": false,
      "t": 166666.59999999998,
      "d": 1666.6659999999974,
      "v": 23
    },
    {
      "midi": 38,
      "hit": false,
      "t": 166666.60000000012,
      "d": 1291.6661500000046,
      "v": 80
    },
    {
      "midi": 62,
      "hit": false,
      "t": 167083.2664999998,
      "d": 840.2774416666653,
      "v": 72
    },
    {
      "midi": 65,
      "hit": false,
      "t": 167499.9329999998,
      "d": 562.4997750000039,
      "v": 89
    },
    {
      "midi": 72,
      "hit": false,
      "t": 167499.93300000016,
      "d": 201.38880833334406,
      "v": 96
    },
    {
      "midi": 72,
      "hit": false,
      "t": 167499.9330000011,
      "d": 201.38880833334406,
      "v": 96
    },
    {
      "midi": 72,
      "hit": false,
      "t": 167708.2662500002,
      "d": 201.38880833334406,
      "v": 88
    },
    {
      "midi": 72,
      "hit": false,
      "t": 167708.26625000112,
      "d": 201.38880833334406,
      "v": 88
    },
    {
      "midi": 69,
      "hit": false,
      "t": 167916.59949999978,
      "d": 236.11101666669128,
      "v": 91
    },
    {
      "midi": 72,
      "hit": false,
      "t": 167916.59950000021,
      "d": 201.38880833334406,
      "v": 97
    },
    {
      "midi": 72,
      "hit": false,
      "t": 167916.59950000115,
      "d": 201.38880833334406,
      "v": 97
    },
    {
      "midi": 41,
      "hit": false,
      "t": 168124.93275000012,
      "d": 104.16662500001257,
      "v": 77
    },
    {
      "midi": 71,
      "hit": false,
      "t": 168124.93275000024,
      "d": 618.0553083333361,
      "v": 91
    },
    {
      "midi": 71,
      "hit": false,
      "t": 168124.93275000117,
      "d": 618.0553083333361,
      "v": 91
    },
    {
      "midi": 83,
      "hit": false,
      "t": 168333.26599999997,
      "d": 833.3330000000133,
      "v": 21
    },
    {
      "midi": 91,
      "hit": false,
      "t": 168333.26599999997,
      "d": 833.3330000000133,
      "v": 30
    },
    {
      "midi": 43,
      "hit": false,
      "t": 168354.09932500013,
      "d": 722.2219333333196,
      "v": 84
    },
    {
      "midi": 55,
      "hit": false,
      "t": 168361.04376666647,
      "d": 805.5552333333471,
      "v": 84
    },
    {
      "midi": 59,
      "hit": false,
      "t": 168361.04376666647,
      "d": 805.5552333333471,
      "v": 84
    },
    {
      "midi": 62,
      "hit": false,
      "t": 168361.04376666647,
      "d": 805.5552333333471,
      "v": 84
    },
    {
      "midi": 72,
      "hit": false,
      "t": 168749.93250000026,
      "d": 409.7220583333401,
      "v": 94
    },
    {
      "midi": 72,
      "hit": false,
      "t": 168749.9325000012,
      "d": 409.7220583333401,
      "v": 94
    },
    {
      "midi": 80,
      "hit": false,
      "t": 169166.599,
      "d": 833.3330000000133,
      "v": 21
    },
    {
      "midi": 88,
      "hit": false,
      "t": 169166.599,
      "d": 833.3330000000133,
      "v": 30
    },
    {
      "midi": 71,
      "hit": false,
      "t": 169166.59900000028,
      "d": 409.7220583333401,
      "v": 91
    },
    {
      "midi": 71,
      "hit": false,
      "t": 169166.5990000012,
      "d": 409.7220583333401,
      "v": 91
    },
    {
      "midi": 40,
      "hit": false,
      "t": 169187.43232500012,
      "d": 722.2219333333196,
      "v": 84
    },
    {
      "midi": 56,
      "hit": false,
      "t": 169194.37676666648,
      "d": 805.5552333333471,
      "v": 84
    },
    {
      "midi": 59,
      "hit": false,
      "t": 169194.37676666648,
      "d": 805.5552333333471,
      "v": 84
    },
    {
      "midi": 64,
      "hit": false,
      "t": 169194.37676666648,
      "d": 805.5552333333471,
      "v": 84
    },
    {
      "midi": 64,
      "hit": false,
      "t": 169583.2655000003,
      "d": 201.38880833334406,
      "v": 60
    },
    {
      "midi": 64,
      "hit": false,
      "t": 169583.26550000123,
      "d": 201.38880833334406,
      "v": 60
    },
    {
      "midi": 71,
      "hit": false,
      "t": 169791.59875000032,
      "d": 618.0553083333361,
      "v": 85
    },
    {
      "midi": 71,
      "hit": false,
      "t": 169791.59875000126,
      "d": 618.0553083333361,
      "v": 85
    },
    {
      "midi": 76,
      "hit": false,
      "t": 169999.932,
      "d": 3333.331999999995,
      "v": 33
    },
    {
      "midi": 85,
      "hit": false,
      "t": 169999.932,
      "d": 3333.331999999995,
      "v": 17
    },
    {
      "midi": 33,
      "hit": false,
      "t": 169999.93200000012,
      "d": 1333.3328000000038,
      "v": 69
    },
    {
      "midi": 57,
      "hit": false,
      "t": 170020.76532499984,
      "d": 2402.77681666665,
      "v": 91
    },
    {
      "midi": 61,
      "hit": false,
      "t": 170020.76532499984,
      "d": 2402.77681666665,
      "v": 91
    },
    {
      "midi": 69,
      "hit": false,
      "t": 170416.59850000034,
      "d": 2909.7210583333217,
      "v": 91
    },
    {
      "midi": 69,
      "hit": false,
      "t": 170416.59850000127,
      "d": 2909.7210583333217,
      "v": 91
    },
    {
      "midi": 33,
      "hit": false,
      "t": 171458.26475000012,
      "d": 104.16662500001257,
      "v": 65
    },
    {
      "midi": 33,
      "hit": false,
      "t": 171666.59800000014,
      "d": 1138.8884333333408,
      "v": 61
    },
    {
      "midi": 64,
      "hit": false,
      "t": 172104.09782499983,
      "d": 319.4443166666606,
      "v": 72
    },
    {
      "midi": 61,
      "hit": false,
      "t": 172520.76432499982,
      "d": 486.11091666665743,
      "v": 68
    },
    {
      "midi": 33,
      "hit": false,
      "t": 172916.59750000015,
      "d": 97.22218333333149,
      "v": 77
    },
    {
      "midi": 57,
      "hit": false,
      "t": 172951.31970833315,
      "d": 361.1109666666598,
      "v": 95
    },
    {
      "midi": 33,
      "hit": false,
      "t": 173124.93075000015,
      "d": 111.11106666666456,
      "v": 82
    },
    {
      "midi": 57,
      "hit": false,
      "t": 173333.26399999982,
      "d": 541.6664499999897,
      "v": 72
    },
    {
      "midi": 62,
      "hit": false,
      "t": 173333.26399999982,
      "d": 541.6664499999897,
      "v": 72
    },
    {
      "midi": 65,
      "hit": false,
      "t": 173333.26399999982,
      "d": 541.6664499999897,
      "v": 72
    },
    {
      "midi": 81,
      "hit": false,
      "t": 173333.264,
      "d": 1666.6659999999974,
      "v": 21
    },
    {
      "midi": 89,
      "hit": false,
      "t": 173333.264,
      "d": 1666.6659999999974,
      "v": 30
    },
    {
      "midi": 38,
      "hit": false,
      "t": 173333.26400000014,
      "d": 1354.1661249999888,
      "v": 71
    },
    {
      "midi": 50,
      "hit": false,
      "t": 173749.9304999998,
      "d": 812.4996749999991,
      "v": 82
    },
    {
      "midi": 57,
      "hit": false,
      "t": 174166.5969999998,
      "d": 465.2775916666724,
      "v": 84
    },
    {
      "midi": 62,
      "hit": false,
      "t": 174166.5969999998,
      "d": 465.2775916666724,
      "v": 84
    },
    {
      "midi": 65,
      "hit": false,
      "t": 174166.5969999998,
      "d": 465.2775916666724,
      "v": 84
    },
    {
      "midi": 72,
      "hit": false,
      "t": 174166.59700000033,
      "d": 201.38880833334406,
      "v": 86
    },
    {
      "midi": 72,
      "hit": false,
      "t": 174166.59700000126,
      "d": 201.38880833334406,
      "v": 86
    },
    {
      "midi": 72,
      "hit": false,
      "t": 174374.93025000035,
      "d": 201.38880833334406,
      "v": 86
    },
    {
      "midi": 72,
      "hit": false,
      "t": 174374.9302500013,
      "d": 201.38880833334406,
      "v": 86
    },
    {
      "midi": 72,
      "hit": false,
      "t": 174583.26350000038,
      "d": 201.38880833334406,
      "v": 92
    },
    {
      "midi": 72,
      "hit": false,
      "t": 174583.2635000013,
      "d": 201.38880833334406,
      "v": 92
    },
    {
      "midi": 38,
      "hit": false,
      "t": 174791.59675000014,
      "d": 97.22218333333149,
      "v": 82
    },
    {
      "midi": 71,
      "hit": false,
      "t": 174791.5967500004,
      "d": 618.0553083333361,
      "v": 101
    },
    {
      "midi": 71,
      "hit": false,
      "t": 174791.59675000134,
      "d": 618.0553083333361,
      "v": 101
    },
    {
      "midi": 83,
      "hit": false,
      "t": 174999.93,
      "d": 833.3330000000133,
      "v": 21
    },
    {
      "midi": 91,
      "hit": false,
      "t": 174999.93,
      "d": 833.3330000000133,
      "v": 30
    },
    {
      "midi": 43,
      "hit": false,
      "t": 175020.76332500015,
      "d": 722.2219333333196,
      "v": 84
    },
    {
      "midi": 55,
      "hit": false,
      "t": 175027.70776666648,
      "d": 805.5552333333471,
      "v": 84
    },
    {
      "midi": 59,
      "hit": false,
      "t": 175027.70776666648,
      "d": 805.5552333333471,
      "v": 84
    },
    {
      "midi": 62,
      "hit": false,
      "t": 175027.70776666648,
      "d": 805.5552333333471,
      "v": 84
    },
    {
      "midi": 72,
      "hit": false,
      "t": 175416.59650000042,
      "d": 409.7220583333401,
      "v": 107
    },
    {
      "midi": 72,
      "hit": false,
      "t": 175416.59650000135,
      "d": 409.7220583333401,
      "v": 107
    },
    {
      "midi": 80,
      "hit": false,
      "t": 175833.263,
      "d": 833.3330000000133,
      "v": 21
    },
    {
      "midi": 88,
      "hit": false,
      "t": 175833.263,
      "d": 833.3330000000133,
      "v": 30
    },
    {
      "midi": 71,
      "hit": false,
      "t": 175833.26300000044,
      "d": 409.7220583333401,
      "v": 92
    },
    {
      "midi": 71,
      "hit": false,
      "t": 175833.26300000137,
      "d": 409.7220583333401,
      "v": 92
    },
    {
      "midi": 40,
      "hit": false,
      "t": 175854.09632500014,
      "d": 722.2219333333196,
      "v": 84
    },
    {
      "midi": 56,
      "hit": false,
      "t": 175861.0407666665,
      "d": 805.5552333333471,
      "v": 84
    },
    {
      "midi": 59,
      "hit": false,
      "t": 175861.0407666665,
      "d": 805.5552333333471,
      "v": 84
    },
    {
      "midi": 64,
      "hit": false,
      "t": 175861.0407666665,
      "d": 805.5552333333471,
      "v": 84
    },
    {
      "midi": 64,
      "hit": false,
      "t": 176249.92950000046,
      "d": 201.38880833334406,
      "v": 80
    },
    {
      "midi": 64,
      "hit": false,
      "t": 176249.9295000014,
      "d": 201.38880833334406,
      "v": 80
    },
    {
      "midi": 71,
      "hit": false,
      "t": 176458.2627500005,
      "d": 618.0553083333361,
      "v": 85
    },
    {
      "midi": 71,
      "hit": false,
      "t": 176458.26275000142,
      "d": 618.0553083333361,
      "v": 85
    },
    {
      "midi": 76,
      "hit": false,
      "t": 176666.59600000002,
      "d": 3333.331999999995,
      "v": 33
    },
    {
      "midi": 85,
      "hit": false,
      "t": 176666.59600000002,
      "d": 3333.331999999995,
      "v": 17
    },
    {
      "midi": 33,
      "hit": false,
      "t": 176666.59600000014,
      "d": 916.6663000000117,
      "v": 77
    },
    {
      "midi": 57,
      "hit": false,
      "t": 176687.42932499986,
      "d": 1243.0550583333243,
      "v": 86
    },
    {
      "midi": 61,
      "hit": false,
      "t": 176687.42932499986,
      "d": 1243.0550583333243,
      "v": 86
    },
    {
      "midi": 64,
      "hit": false,
      "t": 176687.42932499986,
      "d": 1243.0550583333243,
      "v": 86
    },
    {
      "midi": 69,
      "hit": false,
      "t": 177083.2625000005,
      "d": 2701.3878083333257,
      "v": 105
    },
    {
      "midi": 69,
      "hit": false,
      "t": 177083.26250000144,
      "d": 2701.3878083333257,
      "v": 105
    },
    {
      "midi": 45,
      "hit": false,
      "t": 177902.70661666652,
      "d": 2027.7769666666863,
      "v": 67
    },
    {
      "midi": 33,
      "hit": false,
      "t": 178124.92875000014,
      "d": 76.38885833334643,
      "v": 67
    },
    {
      "midi": 33,
      "hit": false,
      "t": 178333.26200000016,
      "d": 1124.9995500000077,
      "v": 77
    },
    {
      "midi": 57,
      "hit": false,
      "t": 178347.15088333318,
      "d": 1597.2215833333612,
      "v": 70
    },
    {
      "midi": 61,
      "hit": false,
      "t": 178749.92849999983,
      "d": 1166.666200000036,
      "v": 72
    },
    {
      "midi": 64,
      "hit": false,
      "t": 179194.37276666652,
      "d": 708.3330499999865,
      "v": 86
    },
    {
      "midi": 69,
      "hit": false,
      "t": 179569.37261666651,
      "d": 333.33319999999367,
      "v": 63
    },
    {
      "midi": 33,
      "hit": false,
      "t": 179791.59475000016,
      "d": 97.22218333333149,
      "v": 97
    },
    {
      "midi": 57,
      "hit": false,
      "t": 179999.92799999987,
      "d": 541.6664499999897,
      "v": 72
    },
    {
      "midi": 60,
      "hit": false,
      "t": 179999.92799999987,
      "d": 541.6664499999897,
      "v": 72
    },
    {
      "midi": 65,
      "hit": false,
      "t": 179999.92799999987,
      "d": 541.6664499999897,
      "v": 72
    },
    {
      "midi": 41,
      "hit": false,
      "t": 179999.92800000016,
      "d": 979.166274999996,
      "v": 77
    },
    {
      "midi": 53,
      "hit": false,
      "t": 180416.59449999986,
      "d": 812.4996749999991,
      "v": 82
    },
    {
      "midi": 65,
      "hit": false,
      "t": 180416.59450000143,
      "d": 409.7220583333401,
      "v": 89
    },
    {
      "midi": 57,
      "hit": false,
      "t": 180833.26099999985,
      "d": 465.2775916666724,
      "v": 84
    },
    {
      "midi": 60,
      "hit": false,
      "t": 180833.26099999985,
      "d": 465.2775916666724,
      "v": 84
    },
    {
      "midi": 65,
      "hit": false,
      "t": 180833.26099999985,
      "d": 465.2775916666724,
      "v": 84
    },
    {
      "midi": 65,
      "hit": false,
      "t": 180833.26100000145,
      "d": 201.38880833334406,
      "v": 89
    },
    {
      "midi": 67,
      "hit": false,
      "t": 181041.59425000148,
      "d": 201.38880833334406,
      "v": 81
    },
    {
      "midi": 41,
      "hit": false,
      "t": 181236.03861666683,
      "d": 236.11101666666218,
      "v": 80
    },
    {
      "midi": 69,
      "hit": false,
      "t": 181249.9275000015,
      "d": 618.0553083333361,
      "v": 89
    },
    {
      "midi": 56,
      "hit": false,
      "t": 181666.59399999987,
      "d": 1666.6659999999974,
      "v": 84
    },
    {
      "midi": 59,
      "hit": false,
      "t": 181666.59399999987,
      "d": 1666.6659999999974,
      "v": 84
    },
    {
      "midi": 64,
      "hit": false,
      "t": 181666.59399999987,
      "d": 1666.6659999999974,
      "v": 84
    },
    {
      "midi": 40,
      "hit": false,
      "t": 181666.59400000016,
      "d": 979.166274999996,
      "v": 77
    },
    {
      "midi": 68,
      "hit": false,
      "t": 182083.26050000152,
      "d": 409.7220583333401,
      "v": 103
    },
    {
      "midi": 68,
      "hit": false,
      "t": 182499.92700000154,
      "d": 201.38880833334406,
      "v": 90
    },
    {
      "midi": 69,
      "hit": false,
      "t": 182708.26025000156,
      "d": 201.38880833334406,
      "v": 77
    },
    {
      "midi": 40,
      "hit": false,
      "t": 182902.70461666683,
      "d": 236.11101666666218,
      "v": 80
    },
    {
      "midi": 71,
      "hit": false,
      "t": 182916.5935000016,
      "d": 409.7220583333401,
      "v": 96
    },
    {
      "midi": 33,
      "hit": false,
      "t": 183333.26000000015,
      "d": 833.3330000000133,
      "v": 77
    },
    {
      "midi": 69,
      "hit": false,
      "t": 183333.2600000016,
      "d": 826.3885583333322,
      "v": 105
    },
    {
      "midi": 57,
      "hit": false,
      "t": 183361.03776666653,
      "d": 805.5552333333471,
      "v": 84
    },
    {
      "midi": 60,
      "hit": false,
      "t": 183361.03776666653,
      "d": 805.5552333333471,
      "v": 84
    },
    {
      "midi": 64,
      "hit": false,
      "t": 183361.03776666653,
      "d": 805.5552333333471,
      "v": 84
    },
    {
      "midi": 35,
      "hit": false,
      "t": 184166.59300000017,
      "d": 833.3330000000133,
      "v": 77
    },
    {
      "midi": 71,
      "hit": false,
      "t": 184166.59300000162,
      "d": 826.3885583333322,
      "v": 97
    },
    {
      "midi": 55,
      "hit": false,
      "t": 184194.37076666654,
      "d": 805.5552333333471,
      "v": 84
    },
    {
      "midi": 59,
      "hit": false,
      "t": 184194.37076666654,
      "d": 805.5552333333471,
      "v": 84
    },
    {
      "midi": 62,
      "hit": false,
      "t": 184194.37076666654,
      "d": 805.5552333333471,
      "v": 84
    },
    {
      "midi": 40,
      "hit": false,
      "t": 184999.92600000018,
      "d": 979.166274999996,
      "v": 77
    },
    {
      "midi": 72,
      "hit": false,
      "t": 184999.92600000164,
      "d": 1659.7215583333455,
      "v": 107
    },
    {
      "midi": 55,
      "hit": false,
      "t": 185013.81488333322,
      "d": 1395.832774999988,
      "v": 76
    },
    {
      "midi": 60,
      "hit": false,
      "t": 185013.81488333322,
      "d": 1395.832774999988,
      "v": 76
    },
    {
      "midi": 40,
      "hit": false,
      "t": 186236.03661666685,
      "d": 236.11101666666218,
      "v": 80
    },
    {
      "midi": 64,
      "hit": false,
      "t": 186270.75882499988,
      "d": 138.8888333333307,
      "v": 70
    },
    {
      "midi": 67,
      "hit": false,
      "t": 186486.03651666656,
      "d": 180.5554833333299,
      "v": 74
    },
    {
      "midi": 57,
      "hit": false,
      "t": 186666.5919999999,
      "d": 1423.6105416666542,
      "v": 80
    },
    {
      "midi": 60,
      "hit": false,
      "t": 186666.5919999999,
      "d": 1423.6105416666542,
      "v": 80
    },
    {
      "midi": 41,
      "hit": false,
      "t": 186666.59200000018,
      "d": 979.166274999996,
      "v": 77
    },
    {
      "midi": 65,
      "hit": false,
      "t": 187083.25849999988,
      "d": 840.2774416666653,
      "v": 72
    },
    {
      "midi": 65,
      "hit": false,
      "t": 187083.25850000166,
      "d": 409.7220583333401,
      "v": 85
    },
    {
      "midi": 69,
      "hit": false,
      "t": 187499.92499999987,
      "d": 562.4997750000039,
      "v": 89
    },
    {
      "midi": 65,
      "hit": false,
      "t": 187499.92500000168,
      "d": 201.38880833334406,
      "v": 86
    },
    {
      "midi": 67,
      "hit": false,
      "t": 187708.2582500017,
      "d": 201.38880833334406,
      "v": 86
    },
    {
      "midi": 41,
      "hit": false,
      "t": 187902.70261666685,
      "d": 236.11101666666218,
      "v": 80
    },
    {
      "midi": 72,
      "hit": false,
      "t": 187916.59149999986,
      "d": 236.11101666669128,
      "v": 91
    },
    {
      "midi": 69,
      "hit": false,
      "t": 187916.59150000173,
      "d": 826.3885583333322,
      "v": 91
    },
    {
      "midi": 40,
      "hit": false,
      "t": 188340.20244166686,
      "d": 1013.8884833333432,
      "v": 67
    },
    {
      "midi": 56,
      "hit": false,
      "t": 188347.14688333322,
      "d": 1395.832774999988,
      "v": 76
    },
    {
      "midi": 59,
      "hit": false,
      "t": 188347.14688333322,
      "d": 1395.832774999988,
      "v": 76
    },
    {
      "midi": 64,
      "hit": false,
      "t": 188347.14688333322,
      "d": 1395.832774999988,
      "v": 76
    },
    {
      "midi": 68,
      "hit": false,
      "t": 188749.92450000174,
      "d": 409.7220583333401,
      "v": 98
    },
    {
      "midi": 68,
      "hit": false,
      "t": 189166.59100000176,
      "d": 201.38880833334406,
      "v": 87
    },
    {
      "midi": 69,
      "hit": false,
      "t": 189374.9242500018,
      "d": 201.38880833334406,
      "v": 83
    },
    {
      "midi": 71,
      "hit": false,
      "t": 189583.2575000018,
      "d": 409.7220583333401,
      "v": 83
    },
    {
      "midi": 68,
      "hit": false,
      "t": 189604.09082499988,
      "d": 229.1665750000102,
      "v": 70
    },
    {
      "midi": 40,
      "hit": false,
      "t": 189611.03526666688,
      "d": 222.2221333333291,
      "v": 69
    },
    {
      "midi": 71,
      "hit": false,
      "t": 189819.36851666655,
      "d": 180.5554833333299,
      "v": 74
    },
    {
      "midi": 33,
      "hit": false,
      "t": 189999.9240000002,
      "d": 833.3330000000133,
      "v": 77
    },
    {
      "midi": 69,
      "hit": false,
      "t": 189999.92400000183,
      "d": 826.3885583333322,
      "v": 103
    },
    {
      "midi": 57,
      "hit": false,
      "t": 190027.70176666655,
      "d": 805.5552333333471,
      "v": 84
    },
    {
      "midi": 60,
      "hit": false,
      "t": 190027.70176666655,
      "d": 805.5552333333471,
      "v": 84
    },
    {
      "midi": 64,
      "hit": false,
      "t": 190027.70176666655,
      "d": 805.5552333333471,
      "v": 84
    },
    {
      "midi": 35,
      "hit": false,
      "t": 190833.25700000022,
      "d": 833.3330000000133,
      "v": 77
    },
    {
      "midi": 71,
      "hit": false,
      "t": 190833.25700000185,
      "d": 2493.0545583333296,
      "v": 77
    },
    {
      "midi": 55,
      "hit": false,
      "t": 190861.03476666656,
      "d": 805.5552333333471,
      "v": 84
    },
    {
      "midi": 59,
      "hit": false,
      "t": 190861.03476666656,
      "d": 805.5552333333471,
      "v": 84
    },
    {
      "midi": 62,
      "hit": false,
      "t": 190861.03476666656,
      "d": 805.5552333333471,
      "v": 84
    },
    {
      "midi": 35,
      "hit": false,
      "t": 191666.59000000023,
      "d": 979.166274999996,
      "v": 77
    },
    {
      "midi": 55,
      "hit": false,
      "t": 192083.2564999999,
      "d": 840.2774416666653,
      "v": 72
    },
    {
      "midi": 59,
      "hit": false,
      "t": 192499.9229999999,
      "d": 562.4997750000039,
      "v": 89
    },
    {
      "midi": 35,
      "hit": false,
      "t": 192902.7006166669,
      "d": 236.11101666666218,
      "v": 80
    },
    {
      "midi": 62,
      "hit": false,
      "t": 192916.58949999989,
      "d": 173.61104166667792,
      "v": 91
    },
    {
      "midi": 57,
      "hit": false,
      "t": 193333.2559999999,
      "d": 541.6664499999897,
      "v": 72
    },
    {
      "midi": 60,
      "hit": false,
      "t": 193333.2559999999,
      "d": 541.6664499999897,
      "v": 72
    },
    {
      "midi": 65,
      "hit": false,
      "t": 193333.2559999999,
      "d": 541.6664499999897,
      "v": 72
    },
    {
      "midi": 41,
      "hit": false,
      "t": 193340.2004416669,
      "d": 1013.8884833333432,
      "v": 67
    },
    {
      "midi": 53,
      "hit": false,
      "t": 193749.9224999999,
      "d": 812.4996749999991,
      "v": 82
    },
    {
      "midi": 65,
      "hit": false,
      "t": 193749.92250000185,
      "d": 409.7220583333401,
      "v": 92
    },
    {
      "midi": 57,
      "hit": false,
      "t": 194166.5889999999,
      "d": 465.2775916666724,
      "v": 84
    },
    {
      "midi": 60,
      "hit": false,
      "t": 194166.5889999999,
      "d": 465.2775916666724,
      "v": 84
    },
    {
      "midi": 65,
      "hit": false,
      "t": 194166.5889999999,
      "d": 465.2775916666724,
      "v": 84
    },
    {
      "midi": 65,
      "hit": false,
      "t": 194166.58900000187,
      "d": 201.38880833334406,
      "v": 86
    },
    {
      "midi": 67,
      "hit": false,
      "t": 194374.9222500019,
      "d": 201.38880833334406,
      "v": 83
    },
    {
      "midi": 69,
      "hit": false,
      "t": 194583.25550000192,
      "d": 826.3885583333322,
      "v": 89
    },
    {
      "midi": 41,
      "hit": false,
      "t": 194611.03326666693,
      "d": 222.2221333333291,
      "v": 69
    },
    {
      "midi": 56,
      "hit": false,
      "t": 194999.9219999999,
      "d": 1423.6105416666542,
      "v": 80
    },
    {
      "midi": 59,
      "hit": false,
      "t": 194999.9219999999,
      "d": 1423.6105416666542,
      "v": 80
    },
    {
      "midi": 40,
      "hit": false,
      "t": 195006.86644166693,
      "d": 1013.8884833333432,
      "v": 67
    },
    {
      "midi": 64,
      "hit": false,
      "t": 195416.5884999999,
      "d": 840.2774416666653,
      "v": 72
    },
    {
      "midi": 68,
      "hit": false,
      "t": 195416.58850000193,
      "d": 409.7220583333401,
      "v": 94
    },
    {
      "midi": 68,
      "hit": false,
      "t": 195833.2549999999,
      "d": 562.4997750000039,
      "v": 89
    },
    {
      "midi": 68,
      "hit": false,
      "t": 195833.25500000195,
      "d": 201.38880833334406,
      "v": 94
    },
    {
      "midi": 69,
      "hit": false,
      "t": 196041.58825000198,
      "d": 201.38880833334406,
      "v": 78
    },
    {
      "midi": 71,
      "hit": false,
      "t": 196249.92149999988,
      "d": 236.11101666669128,
      "v": 91
    },
    {
      "midi": 71,
      "hit": false,
      "t": 196249.921500002,
      "d": 409.7220583333401,
      "v": 88
    },
    {
      "midi": 40,
      "hit": false,
      "t": 196277.69926666695,
      "d": 222.2221333333291,
      "v": 69
    },
    {
      "midi": 33,
      "hit": false,
      "t": 196666.58800000028,
      "d": 833.3330000000133,
      "v": 77
    },
    {
      "midi": 69,
      "hit": false,
      "t": 196666.58800000203,
      "d": 826.3885583333322,
      "v": 91
    },
    {
      "midi": 57,
      "hit": false,
      "t": 196694.36576666657,
      "d": 805.5552333333471,
      "v": 84
    },
    {
      "midi": 60,
      "hit": false,
      "t": 196694.36576666657,
      "d": 805.5552333333471,
      "v": 84
    },
    {
      "midi": 64,
      "hit": false,
      "t": 196694.36576666657,
      "d": 805.5552333333471,
      "v": 84
    },
    {
      "midi": 35,
      "hit": false,
      "t": 197499.9210000003,
      "d": 833.3330000000133,
      "v": 77
    },
    {
      "midi": 71,
      "hit": false,
      "t": 197499.92100000204,
      "d": 826.3885583333322,
      "v": 99
    },
    {
      "midi": 55,
      "hit": false,
      "t": 197527.69876666658,
      "d": 805.5552333333471,
      "v": 84
    },
    {
      "midi": 59,
      "hit": false,
      "t": 197527.69876666658,
      "d": 805.5552333333471,
      "v": 84
    },
    {
      "midi": 62,
      "hit": false,
      "t": 197527.69876666658,
      "d": 805.5552333333471,
      "v": 84
    },
    {
      "midi": 55,
      "hit": false,
      "t": 198333.25399999993,
      "d": 1666.6659999999974,
      "v": 84
    },
    {
      "midi": 60,
      "hit": false,
      "t": 198333.25399999993,
      "d": 1666.6659999999974,
      "v": 84
    },
    {
      "midi": 64,
      "hit": false,
      "t": 198333.25399999993,
      "d": 1666.6659999999974,
      "v": 84
    },
    {
      "midi": 40,
      "hit": false,
      "t": 198333.2540000003,
      "d": 979.166274999996,
      "v": 77
    },
    {
      "midi": 72,
      "hit": false,
      "t": 198333.25400000205,
      "d": 1659.7215583333455,
      "v": 96
    },
    {
      "midi": 40,
      "hit": false,
      "t": 199569.36461666698,
      "d": 236.11101666666218,
      "v": 80
    },
    {
      "midi": 57,
      "hit": false,
      "t": 199999.91999999993,
      "d": 1423.6105416666542,
      "v": 80
    },
    {
      "midi": 60,
      "hit": false,
      "t": 199999.91999999993,
      "d": 1423.6105416666542,
      "v": 80
    },
    {
      "midi": 41,
      "hit": false,
      "t": 199999.9200000003,
      "d": 979.166274999996,
      "v": 77
    },
    {
      "midi": 65,
      "hit": false,
      "t": 200416.58649999992,
      "d": 840.2774416666653,
      "v": 72
    },
    {
      "midi": 65,
      "hit": false,
      "t": 200416.58650000207,
      "d": 409.7220583333401,
      "v": 86
    },
    {
      "midi": 69,
      "hit": false,
      "t": 200833.2529999999,
      "d": 562.4997750000039,
      "v": 89
    },
    {
      "midi": 65,
      "hit": false,
      "t": 200833.2530000021,
      "d": 201.38880833334406,
      "v": 76
    },
    {
      "midi": 67,
      "hit": false,
      "t": 201041.58625000212,
      "d": 201.38880833334406,
      "v": 81
    },
    {
      "midi": 41,
      "hit": false,
      "t": 201236.03061666698,
      "d": 236.11101666666218,
      "v": 80
    },
    {
      "midi": 72,
      "hit": false,
      "t": 201249.9194999999,
      "d": 236.11101666669128,
      "v": 91
    },
    {
      "midi": 69,
      "hit": false,
      "t": 201249.91950000214,
      "d": 826.3885583333322,
      "v": 72
    },
    {
      "midi": 56,
      "hit": false,
      "t": 201666.58599999992,
      "d": 1666.6659999999974,
      "v": 84
    },
    {
      "midi": 59,
      "hit": false,
      "t": 201666.58599999992,
      "d": 1666.6659999999974,
      "v": 84
    },
    {
      "midi": 64,
      "hit": false,
      "t": 201666.58599999992,
      "d": 1666.6659999999974,
      "v": 84
    },
    {
      "midi": 40,
      "hit": false,
      "t": 201673.53044166698,
      "d": 1013.8884833333432,
      "v": 67
    },
    {
      "midi": 68,
      "hit": false,
      "t": 202083.25250000216,
      "d": 409.7220583333401,
      "v": 98
    },
    {
      "midi": 68,
      "hit": false,
      "t": 202499.91900000218,
      "d": 201.38880833334406,
      "v": 85
    },
    {
      "midi": 69,
      "hit": false,
      "t": 202708.2522500022,
      "d": 201.38880833334406,
      "v": 86
    },
    {
      "midi": 71,
      "hit": false,
      "t": 202916.58550000223,
      "d": 409.7220583333401,
      "v": 88
    },
    {
      "midi": 40,
      "hit": false,
      "t": 202944.363266667,
      "d": 222.2221333333291,
      "v": 69
    },
    {
      "midi": 69,
      "hit": false,
      "t": 203333.25200000225,
      "d": 3326.387558333343,
      "v": 112
    },
    {
      "midi": 33,
      "hit": false,
      "t": 203388.80753333366,
      "d": 944.4440666666778,
      "v": 77
    },
    {
      "midi": 45,
      "hit": false,
      "t": 204583.25149999993,
      "d": 444.4442666666582,
      "v": 63
    },
    {
      "midi": 33,
      "hit": false,
      "t": 204597.14038333367,
      "d": 236.11101666666218,
      "v": 84
    },
    {
      "midi": 57,
      "hit": false,
      "t": 204999.91799999992,
      "d": 826.3885583333322,
      "v": 72
    },
    {
      "midi": 61,
      "hit": false,
      "t": 204999.91799999992,
      "d": 826.3885583333322,
      "v": 72
    },
    {
      "midi": 64,
      "hit": false,
      "t": 204999.91799999992,
      "d": 826.3885583333322,
      "v": 72
    },
    {
      "midi": 33,
      "hit": false,
      "t": 205048.529091667,
      "d": 1562.499375000014,
      "v": 82
    }
  ]
}