{
  "jsonPath": "Rock/Alternative Rock/Nirvana/polly.json",
  "path": "Rock\\Alternative Rock\\Nirvana\\Polly.mid",
  "name": "Polly",
  "difficulty": "Advanced",
  "bpm": 120,
  "notes": [
    {
      "midi": 40,
      "hit": false,
      "t": 500,
      "d": 333.33333333333326,
      "v": 127
    },
    {
      "midi": 47,
      "hit": false,
      "t": 999.9999999999999,
      "d": 166.66666666666663,
      "v": 127
    },
    {
      "midi": 52,
      "hit": false,
      "t": 999.9999999999999,
      "d": 166.66666666666663,
      "v": 127
    },
    {
      "midi": 40,
      "hit": false,
      "t": 1249.9999999999998,
      "d": 166.66666666666674,
      "v": 127
    },
    {
      "midi": 47,
      "hit": false,
      "t": 1249.9999999999998,
      "d": 166.66666666666674,
      "v": 127
    },
    {
      "midi": 43,
      "hit": false,
      "t": 1499.9999999999998,
      "d": 166.66666666666674,
      "v": 127
    },
    {
      "midi": 50,
      "hit": false,
      "t": 1499.9999999999998,
      "d": 166.66666666666674,
      "v": 127
    },
    {
      "midi": 50,
      "hit": false,
      "t": 1749.9999999999998,
      "d": 166.66666666666674,
      "v": 127
    },
    {
      "midi": 55,
      "hit": false,
      "t": 1749.9999999999998,
      "d": 166.66666666666674,
      "v": 127
    },
    {
      "midi": 50,
      "hit": false,
      "t": 1999.9999999999998,
      "d": 166.66666666666674,
      "v": 127
    },
    {
      "midi": 43,
      "hit": false,
      "t": 2250,
      "d": 166.66666666666652,
      "v": 127
    },
    {
      "midi": 50,
      "hit": false,
      "t": 2500,
      "d": 166.66666666666652,
      "v": 127
    },
    {
      "midi": 57,
      "hit": false,
      "t": 2500,
      "d": 166.66666666666652,
      "v": 127
    },
    {
      "midi": 57,
      "hit": false,
      "t": 2750,
      "d": 166.66666666666652,
      "v": 127
    },
    {
      "midi": 62,
      "hit": false,
      "t": 2750,
      "d": 166.66666666666652,
      "v": 127
    },
    {
      "midi": 57,
      "hit": false,
      "t": 3000,
      "d": 166.66666666666652,
      "v": 127
    },
    {
      "midi": 48,
      "hit": false,
      "t": 3250,
      "d": 333.3333333333335,
      "v": 127
    },
    {
      "midi": 55,
      "hit": false,
      "t": 3250,
      "d": 333.3333333333335,
      "v": 127
    },
    {
      "midi": 60,
      "hit": false,
      "t": 3250,
      "d": 333.3333333333335,
      "v": 127
    },
    {
      "midi": 48,
      "hit": false,
      "t": 3750,
      "d": 166.66666666666652,
      "v": 127
    },
    {
      "midi": 55,
      "hit": false,
      "t": 3750,
      "d": 166.66666666666652,
      "v": 127
    },
    {
      "midi": 60,
      "hit": false,
      "t": 3750,
      "d": 166.66666666666652,
      "v": 127
    },
    {
      "midi": 48,
      "hit": false,
      "t": 4000,
      "d": 166.66666666666697,
      "v": 127
    },
    {
      "midi": 64,
      "hit": false,
      "t": 4000,
      "d": 166.66666666666697,
      "v": 127
    },
    {
      "midi": 45,
      "hit": false,
      "t": 4250,
      "d": 166.66666666666697,
      "v": 127
    },
    {
      "midi": 52,
      "hit": false,
      "t": 4250,
      "d": 166.66666666666697,
      "v": 127
    },
    {
      "midi": 40,
      "hit": false,
      "t": 4500,
      "d": 333.33333333333303,
      "v": 127
    },
    {
      "midi": 47,
      "hit": false,
      "t": 4500,
      "d": 333.33333333333303,
      "v": 127
    },
    {
      "midi": 47,
      "hit": false,
      "t": 5000,
      "d": 166.66666666666697,
      "v": 127
    },
    {
      "midi": 52,
      "hit": false,
      "t": 5000,
      "d": 166.66666666666697,
      "v": 127
    },
    {
      "midi": 40,
      "hit": false,
      "t": 5250,
      "d": 166.66666666666697,
      "v": 127
    },
    {
      "midi": 47,
      "hit": false,
      "t": 5250,
      "d": 166.66666666666697,
      "v": 127
    },
    {
      "midi": 43,
      "hit": false,
      "t": 5500,
      "d": 166.66666666666697,
      "v": 127
    },
    {
      "midi": 50,
      "hit": false,
      "t": 5500,
      "d": 166.66666666666697,
      "v": 127
    },
    {
      "midi": 50,
      "hit": false,
      "t": 5750,
      "d": 166.66666666666697,
      "v": 127
    },
    {
      "midi": 55,
      "hit": false,
      "t": 5750,
      "d": 166.66666666666697,
      "v": 127
    },
    {
      "midi": 50,
      "hit": false,
      "t": 6000,
      "d": 166.66666666666697,
      "v": 127
    },
    {
      "midi": 43,
      "hit": false,
      "t": 6250,
      "d": 166.66666666666697,
      "v": 127
    },
    {
      "midi": 50,
      "hit": false,
      "t": 6500,
      "d": 166.66666666666697,
      "v": 127
    },
    {
      "midi": 57,
      "hit": false,
      "t": 6500,
      "d": 166.66666666666697,
      "v": 127
    },
    {
      "midi": 57,
      "hit": false,
      "t": 6750,
      "d": 166.66666666666697,
      "v": 127
    },
    {
      "midi": 62,
      "hit": false,
      "t": 6750,
      "d": 166.66666666666697,
      "v": 127
    },
    {
      "midi": 57,
      "hit": false,
      "t": 7000,
      "d": 166.66666666666697,
      "v": 127
    },
    {
      "midi": 62,
      "hit": false,
      "t": 7000,
      "d": 166.66666666666697,
      "v": 127
    },
    {
      "midi": 48,
      "hit": false,
      "t": 7250,
      "d": 333.33333333333303,
      "v": 127
    },
    {
      "midi": 55,
      "hit": false,
      "t": 7250,
      "d": 333.33333333333303,
      "v": 127
    },
    {
      "midi": 60,
      "hit": false,
      "t": 7250,
      "d": 333.33333333333303,
      "v": 127
    },
    {
      "midi": 48,
      "hit": false,
      "t": 7750,
      "d": 166.66666666666697,
      "v": 127
    },
    {
      "midi": 55,
      "hit": false,
      "t": 7750,
      "d": 166.66666666666697,
      "v": 127
    },
    {
      "midi": 60,
      "hit": false,
      "t": 7750,
      "d": 166.66666666666697,
      "v": 127
    },
    {
      "midi": 48,
      "hit": false,
      "t": 8000,
      "d": 166.66666666666697,
      "v": 127
    },
    {
      "midi": 55,
      "hit": false,
      "t": 8000,
      "d": 166.66666666666697,
      "v": 127
    },
    {
      "midi": 64,
      "hit": false,
      "t": 8000,
      "d": 166.66666666666697,
      "v": 127
    },
    {
      "midi": 45,
      "hit": false,
      "t": 8250,
      "d": 166.66666666666606,
      "v": 127
    },
    {
      "midi": 52,
      "hit": false,
      "t": 8250,
      "d": 166.66666666666606,
      "v": 127
    },
    {
      "midi": 40,
      "hit": false,
      "t": 8500,
      "d": 333.33333333333394,
      "v": 127
    },
    {
      "midi": 47,
      "hit": false,
      "t": 8500,
      "d": 333.33333333333394,
      "v": 127
    },
    {
      "midi": 47,
      "hit": false,
      "t": 9000,
      "d": 166.66666666666606,
      "v": 127
    },
    {
      "midi": 52,
      "hit": false,
      "t": 9000,
      "d": 166.66666666666606,
      "v": 127
    },
    {
      "midi": 40,
      "hit": false,
      "t": 9250,
      "d": 166.66666666666606,
      "v": 127
    },
    {
      "midi": 47,
      "hit": false,
      "t": 9250,
      "d": 166.66666666666606,
      "v": 127
    },
    {
      "midi": 43,
      "hit": false,
      "t": 9500,
      "d": 166.66666666666606,
      "v": 127
    },
    {
      "midi": 50,
      "hit": false,
      "t": 9500,
      "d": 166.66666666666606,
      "v": 127
    },
    {
      "midi": 50,
      "hit": false,
      "t": 9750,
      "d": 166.66666666666606,
      "v": 127
    },
    {
      "midi": 55,
      "hit": false,
      "t": 9750,
      "d": 166.66666666666606,
      "v": 127
    },
    {
      "midi": 50,
      "hit": false,
      "t": 10000,
      "d": 166.66666666666606,
      "v": 127
    },
    {
      "midi": 43,
      "hit": false,
      "t": 10250,
      "d": 166.66666666666606,
      "v": 127
    },
    {
      "midi": 50,
      "hit": false,
      "t": 10500,
      "d": 166.66666666666606,
      "v": 127
    },
    {
      "midi": 57,
      "hit": false,
      "t": 10500,
      "d": 166.66666666666606,
      "v": 127
    },
    {
      "midi": 57,
      "hit": false,
      "t": 10750,
      "d": 166.66666666666606,
      "v": 127
    },
    {
      "midi": 62,
      "hit": false,
      "t": 10750,
      "d": 166.66666666666606,
      "v": 127
    },
    {
      "midi": 57,
      "hit": false,
      "t": 11000,
      "d": 166.66666666666606,
      "v": 127
    },
    {
      "midi": 48,
      "hit": false,
      "t": 11250,
      "d": 333.33333333333394,
      "v": 127
    },
    {
      "midi": 55,
      "hit": false,
      "t": 11250,
      "d": 333.33333333333394,
      "v": 127
    },
    {
      "midi": 60,
      "hit": false,
      "t": 11250,
      "d": 333.33333333333394,
      "v": 127
    },
    {
      "midi": 48,
      "hit": false,
      "t": 11750,
      "d": 166.66666666666606,
      "v": 127
    },
    {
      "midi": 55,
      "hit": false,
      "t": 11750,
      "d": 166.66666666666606,
      "v": 127
    },
    {
      "midi": 60,
      "hit": false,
      "t": 11750,
      "d": 166.66666666666606,
      "v": 127
    },
    {
      "midi": 48,
      "hit": false,
      "t": 12000,
      "d": 166.66666666666606,
      "v": 127
    },
    {
      "midi": 64,
      "hit": false,
      "t": 12000,
      "d": 166.66666666666606,
      "v": 127
    },
    {
      "midi": 45,
      "hit": false,
      "t": 12250,
      "d": 166.66666666666606,
      "v": 127
    },
    {
      "midi": 52,
      "hit": false,
      "t": 12250,
      "d": 166.66666666666606,
      "v": 127
    },
    {
      "midi": 40,
      "hit": false,
      "t": 12500,
      "d": 333.33333333333394,
      "v": 127
    },
    {
      "midi": 47,
      "hit": false,
      "t": 12500,
      "d": 333.33333333333394,
      "v": 127
    },
    {
      "midi": 47,
      "hit": false,
      "t": 13000,
      "d": 166.66666666666606,
      "v": 127
    },
    {
      "midi": 52,
      "hit": false,
      "t": 13000,
      "d": 166.66666666666606,
      "v": 127
    },
    {
      "midi": 40,
      "hit": false,
      "t": 13250,
      "d": 166.66666666666606,
      "v": 127
    },
    {
      "midi": 47,
      "hit": false,
      "t": 13250,
      "d": 166.66666666666606,
      "v": 127
    },
    {
      "midi": 43,
      "hit": false,
      "t": 13500,
      "d": 166.66666666666606,
      "v": 127
    },
    {
      "midi": 50,
      "hit": false,
      "t": 13500,
      "d": 166.66666666666606,
      "v": 127
    },
    {
      "midi": 50,
      "hit": false,
      "t": 13750,
      "d": 166.66666666666606,
      "v": 127
    },
    {
      "midi": 55,
      "hit": false,
      "t": 13750,
      "d": 166.66666666666606,
      "v": 127
    },
    {
      "midi": 50,
      "hit": false,
      "t": 14000,
      "d": 166.66666666666606,
      "v": 127
    },
    {
      "midi": 43,
      "hit": false,
      "t": 14250,
      "d": 166.66666666666606,
      "v": 127
    },
    {
      "midi": 50,
      "hit": false,
      "t": 14500,
      "d": 166.66666666666606,
      "v": 127
    },
    {
      "midi": 57,
      "hit": false,
      "t": 14500,
      "d": 166.66666666666606,
      "v": 127
    },
    {
      "midi": 57,
      "hit": false,
      "t": 14750,
      "d": 166.66666666666606,
      "v": 127
    },
    {
      "midi": 62,
      "hit": false,
      "t": 14750,
      "d": 166.66666666666606,
      "v": 127
    },
    {
      "midi": 57,
      "hit": false,
      "t": 15000,
      "d": 166.66666666666606,
      "v": 127
    },
    {
      "midi": 62,
      "hit": false,
      "t": 15000,
      "d": 166.66666666666606,
      "v": 127
    },
    {
      "midi": 48,
      "hit": false,
      "t": 15250,
      "d": 333.33333333333394,
      "v": 127
    },
    {
      "midi": 55,
      "hit": false,
      "t": 15250,
      "d": 333.33333333333394,
      "v": 127
    },
    {
      "midi": 60,
      "hit": false,
      "t": 15250,
      "d": 333.33333333333394,
      "v": 127
    },
    {
      "midi": 48,
      "hit": false,
      "t": 15750,
      "d": 166.66666666666606,
      "v": 127
    },
    {
      "midi": 55,
      "hit": false,
      "t": 15750,
      "d": 166.66666666666606,
      "v": 127
    },
    {
      "midi": 60,
      "hit": false,
      "t": 15750,
      "d": 166.66666666666606,
      "v": 127
    },
    {
      "midi": 48,
      "hit": false,
      "t": 16000,
      "d": 166.66666666666606,
      "v": 127
    },
    {
      "midi": 55,
      "hit": false,
      "t": 16000,
      "d": 166.66666666666606,
      "v": 127
    },
    {
      "midi": 64,
      "hit": false,
      "t": 16000,
      "d": 166.66666666666606,
      "v": 127
    },
    {
      "midi": 45,
      "hit": false,
      "t": 16250,
      "d": 166.66666666666788,
      "v": 127
    },
    {
      "midi": 52,
      "hit": false,
      "t": 16250,
      "d": 166.66666666666788,
      "v": 127
    },
    {
      "midi": 40,
      "hit": false,
      "t": 16500,
      "d": 333.3333333333321,
      "v": 127
    },
    {
      "midi": 47,
      "hit": false,
      "t": 16500,
      "d": 333.3333333333321,
      "v": 127
    },
    {
      "midi": 47,
      "hit": false,
      "t": 17000,
      "d": 166.66666666666788,
      "v": 127
    },
    {
      "midi": 52,
      "hit": false,
      "t": 17000,
      "d": 166.66666666666788,
      "v": 127
    },
    {
      "midi": 40,
      "hit": false,
      "t": 17250,
      "d": 166.66666666666788,
      "v": 127
    },
    {
      "midi": 47,
      "hit": false,
      "t": 17250,
      "d": 166.66666666666788,
      "v": 127
    },
    {
      "midi": 43,
      "hit": false,
      "t": 17500,
      "d": 166.66666666666788,
      "v": 127
    },
    {
      "midi": 50,
      "hit": false,
      "t": 17500,
      "d": 166.66666666666788,
      "v": 127
    },
    {
      "midi": 50,
      "hit": false,
      "t": 17750,
      "d": 166.66666666666788,
      "v": 127
    },
    {
      "midi": 55,
      "hit": false,
      "t": 17750,
      "d": 166.66666666666788,
      "v": 127
    },
    {
      "midi": 50,
      "hit": false,
      "t": 18000,
      "d": 166.66666666666788,
      "v": 127
    },
    {
      "midi": 43,
      "hit": false,
      "t": 18250,
      "d": 166.66666666666788,
      "v": 127
    },
    {
      "midi": 50,
      "hit": false,
      "t": 18500,
      "d": 166.66666666666788,
      "v": 127
    },
    {
      "midi": 57,
      "hit": false,
      "t": 18500,
      "d": 166.66666666666788,
      "v": 127
    },
    {
      "midi": 57,
      "hit": false,
      "t": 18750,
      "d": 166.66666666666788,
      "v": 127
    },
    {
      "midi": 62,
      "hit": false,
      "t": 18750,
      "d": 166.66666666666788,
      "v": 127
    },
    {
      "midi": 57,
      "hit": false,
      "t": 19000,
      "d": 166.66666666666788,
      "v": 127
    },
    {
      "midi": 48,
      "hit": false,
      "t": 19250,
      "d": 333.3333333333321,
      "v": 127
    },
    {
      "midi": 55,
      "hit": false,
      "t": 19250,
      "d": 333.3333333333321,
      "v": 127
    },
    {
      "midi": 60,
      "hit": false,
      "t": 19250,
      "d": 333.3333333333321,
      "v": 127
    },
    {
      "midi": 48,
      "hit": false,
      "t": 19750,
      "d": 166.66666666666788,
      "v": 127
    },
    {
      "midi": 55,
      "hit": false,
      "t": 19750,
      "d": 166.66666666666788,
      "v": 127
    },
    {
      "midi": 60,
      "hit": false,
      "t": 19750,
      "d": 166.66666666666788,
      "v": 127
    },
    {
      "midi": 48,
      "hit": false,
      "t": 20000,
      "d": 166.66666666666788,
      "v": 127
    },
    {
      "midi": 64,
      "hit": false,
      "t": 20000,
      "d": 166.66666666666788,
      "v": 127
    },
    {
      "midi": 45,
      "hit": false,
      "t": 20250,
      "d": 166.66666666666788,
      "v": 127
    },
    {
      "midi": 52,
      "hit": false,
      "t": 20250,
      "d": 166.66666666666788,
      "v": 127
    },
    {
      "midi": 40,
      "hit": false,
      "t": 20500,
      "d": 333.3333333333321,
      "v": 127
    },
    {
      "midi": 47,
      "hit": false,
      "t": 20500,
      "d": 333.3333333333321,
      "v": 127
    },
    {
      "midi": 47,
      "hit": false,
      "t": 21000,
      "d": 166.66666666666788,
      "v": 127
    },
    {
      "midi": 52,
      "hit": false,
      "t": 21000,
      "d": 166.66666666666788,
      "v": 127
    },
    {
      "midi": 40,
      "hit": false,
      "t": 21250,
      "d": 166.66666666666788,
      "v": 127
    },
    {
      "midi": 47,
      "hit": false,
      "t": 21250,
      "d": 166.66666666666788,
      "v": 127
    },
    {
      "midi": 43,
      "hit": false,
      "t": 21500,
      "d": 166.66666666666788,
      "v": 127
    },
    {
      "midi": 50,
      "hit": false,
      "t": 21500,
      "d": 166.66666666666788,
      "v": 127
    },
    {
      "midi": 50,
      "hit": false,
      "t": 21750,
      "d": 166.66666666666788,
      "v": 127
    },
    {
      "midi": 55,
      "hit": false,
      "t": 21750,
      "d": 166.66666666666788,
      "v": 127
    },
    {
      "midi": 50,
      "hit": false,
      "t": 22000,
      "d": 166.66666666666788,
      "v": 127
    },
    {
      "midi": 43,
      "hit": false,
      "t": 22250,
      "d": 166.66666666666788,
      "v": 127
    },
    {
      "midi": 50,
      "hit": false,
      "t": 22500,
      "d": 166.66666666666788,
      "v": 127
    },
    {
      "midi": 57,
      "hit": false,
      "t": 22500,
      "d": 166.66666666666788,
      "v": 127
    },
    {
      "midi": 57,
      "hit": false,
      "t": 22750,
      "d": 166.66666666666788,
      "v": 127
    },
    {
      "midi": 62,
      "hit": false,
      "t": 22750,
      "d": 166.66666666666788,
      "v": 127
    },
    {
      "midi": 57,
      "hit": false,
      "t": 23000,
      "d": 166.66666666666788,
      "v": 127
    },
    {
      "midi": 48,
      "hit": false,
      "t": 23250,
      "d": 333.3333333333321,
      "v": 127
    },
    {
      "midi": 55,
      "hit": false,
      "t": 23250,
      "d": 333.3333333333321,
      "v": 127
    },
    {
      "midi": 60,
      "hit": false,
      "t": 23250,
      "d": 333.3333333333321,
      "v": 127
    },
    {
      "midi": 48,
      "hit": false,
      "t": 23750,
      "d": 166.66666666666788,
      "v": 127
    },
    {
      "midi": 55,
      "hit": false,
      "t": 23750,
      "d": 166.66666666666788,
      "v": 127
    },
    {
      "midi": 60,
      "hit": false,
      "t": 23750,
      "d": 166.66666666666788,
      "v": 127
    },
    {
      "midi": 48,
      "hit": false,
      "t": 24000,
      "d": 166.66666666666788,
      "v": 127
    },
    {
      "midi": 64,
      "hit": false,
      "t": 24000,
      "d": 166.66666666666788,
      "v": 127
    },
    {
      "midi": 45,
      "hit": false,
      "t": 24250,
      "d": 166.66666666666788,
      "v": 127
    },
    {
      "midi": 52,
      "hit": false,
      "t": 24250,
      "d": 166.66666666666788,
      "v": 127
    },
    {
      "midi": 40,
      "hit": false,
      "t": 24500,
      "d": 333.3333333333321,
      "v": 127
    },
    {
      "midi": 47,
      "hit": false,
      "t": 24500,
      "d": 333.3333333333321,
      "v": 127
    },
    {
      "midi": 47,
      "hit": false,
      "t": 25000,
      "d": 166.66666666666788,
      "v": 127
    },
    {
      "midi": 52,
      "hit": false,
      "t": 25000,
      "d": 166.66666666666788,
      "v": 127
    },
    {
      "midi": 40,
      "hit": false,
      "t": 25250,
      "d": 166.66666666666788,
      "v": 127
    },
    {
      "midi": 47,
      "hit": false,
      "t": 25250,
      "d": 166.66666666666788,
      "v": 127
    },
    {
      "midi": 43,
      "hit": false,
      "t": 25500,
      "d": 166.66666666666788,
      "v": 127
    },
    {
      "midi": 50,
      "hit": false,
      "t": 25500,
      "d": 166.66666666666788,
      "v": 127
    },
    {
      "midi": 50,
      "hit": false,
      "t": 25750,
      "d": 166.66666666666788,
      "v": 127
    },
    {
      "midi": 55,
      "hit": false,
      "t": 25750,
      "d": 166.66666666666788,
      "v": 127
    },
    {
      "midi": 50,
      "hit": false,
      "t": 26000,
      "d": 166.66666666666788,
      "v": 127
    },
    {
      "midi": 43,
      "hit": false,
      "t": 26250,
      "d": 166.66666666666788,
      "v": 127
    },
    {
      "midi": 50,
      "hit": false,
      "t": 26500,
      "d": 166.66666666666788,
      "v": 127
    },
    {
      "midi": 57,
      "hit": false,
      "t": 26500,
      "d": 166.66666666666788,
      "v": 127
    },
    {
      "midi": 57,
      "hit": false,
      "t": 26750,
      "d": 166.66666666666788,
      "v": 127
    },
    {
      "midi": 62,
      "hit": false,
      "t": 26750,
      "d": 166.66666666666788,
      "v": 127
    },
    {
      "midi": 57,
      "hit": false,
      "t": 27000,
      "d": 166.66666666666788,
      "v": 127
    },
    {
      "midi": 48,
      "hit": false,
      "t": 27250,
      "d": 333.3333333333321,
      "v": 127
    },
    {
      "midi": 55,
      "hit": false,
      "t": 27250,
      "d": 333.3333333333321,
      "v": 127
    },
    {
      "midi": 60,
      "hit": false,
      "t": 27250,
      "d": 333.3333333333321,
      "v": 127
    },
    {
      "midi": 48,
      "hit": false,
      "t": 27750,
      "d": 166.66666666666788,
      "v": 127
    },
    {
      "midi": 55,
      "hit": false,
      "t": 27750,
      "d": 166.66666666666788,
      "v": 127
    },
    {
      "midi": 60,
      "hit": false,
      "t": 27750,
      "d": 166.66666666666788,
      "v": 127
    },
    {
      "midi": 48,
      "hit": false,
      "t": 28000,
      "d": 166.66666666666788,
      "v": 127
    },
    {
      "midi": 64,
      "hit": false,
      "t": 28000,
      "d": 166.66666666666788,
      "v": 127
    },
    {
      "midi": 45,
      "hit": false,
      "t": 28250,
      "d": 166.66666666666788,
      "v": 127
    },
    {
      "midi": 52,
      "hit": false,
      "t": 28250,
      "d": 166.66666666666788,
      "v": 127
    },
    {
      "midi": 40,
      "hit": false,
      "t": 28500,
      "d": 333.3333333333321,
      "v": 127
    },
    {
      "midi": 47,
      "hit": false,
      "t": 28500,
      "d": 333.3333333333321,
      "v": 127
    },
    {
      "midi": 47,
      "hit": false,
      "t": 29000,
      "d": 166.66666666666788,
      "v": 127
    },
    {
      "midi": 52,
      "hit": false,
      "t": 29000,
      "d": 166.66666666666788,
      "v": 127
    },
    {
      "midi": 40,
      "hit": false,
      "t": 29250,
      "d": 166.66666666666788,
      "v": 127
    },
    {
      "midi": 47,
      "hit": false,
      "t": 29250,
      "d": 166.66666666666788,
      "v": 127
    },
    {
      "midi": 43,
      "hit": false,
      "t": 29500,
      "d": 166.66666666666788,
      "v": 127
    },
    {
      "midi": 50,
      "hit": false,
      "t": 29500,
      "d": 166.66666666666788,
      "v": 127
    },
    {
      "midi": 50,
      "hit": false,
      "t": 29750,
      "d": 166.66666666666788,
      "v": 127
    },
    {
      "midi": 55,
      "hit": false,
      "t": 29750,
      "d": 166.66666666666788,
      "v": 127
    },
    {
      "midi": 50,
      "hit": false,
      "t": 30000,
      "d": 166.66666666666788,
      "v": 127
    },
    {
      "midi": 43,
      "hit": false,
      "t": 30250,
      "d": 166.66666666666788,
      "v": 127
    },
    {
      "midi": 50,
      "hit": false,
      "t": 30500,
      "d": 166.66666666666788,
      "v": 127
    },
    {
      "midi": 57,
      "hit": false,
      "t": 30500,
      "d": 166.66666666666788,
      "v": 127
    },
    {
      "midi": 57,
      "hit": false,
      "t": 30750,
      "d": 166.66666666666788,
      "v": 127
    },
    {
      "midi": 62,
      "hit": false,
      "t": 30750,
      "d": 166.66666666666788,
      "v": 127
    },
    {
      "midi": 57,
      "hit": false,
      "t": 31000,
      "d": 166.66666666666788,
      "v": 127
    },
    {
      "midi": 48,
      "hit": false,
      "t": 31250,
      "d": 333.3333333333321,
      "v": 127
    },
    {
      "midi": 55,
      "hit": false,
      "t": 31250,
      "d": 333.3333333333321,
      "v": 127
    },
    {
      "midi": 60,
      "hit": false,
      "t": 31250,
      "d": 333.3333333333321,
      "v": 127
    },
    {
      "midi": 48,
      "hit": false,
      "t": 31750,
      "d": 166.66666666666788,
      "v": 127
    },
    {
      "midi": 55,
      "hit": false,
      "t": 31750,
      "d": 166.66666666666788,
      "v": 127
    },
    {
      "midi": 60,
      "hit": false,
      "t": 31750,
      "d": 166.66666666666788,
      "v": 127
    },
    {
      "midi": 48,
      "hit": false,
      "t": 32000,
      "d": 166.66666666666788,
      "v": 127
    },
    {
      "midi": 64,
      "hit": false,
      "t": 32000,
      "d": 166.66666666666788,
      "v": 127
    },
    {
      "midi": 45,
      "hit": false,
      "t": 32250,
      "d": 166.66666666666788,
      "v": 127
    },
    {
      "midi": 52,
      "hit": false,
      "t": 32250,
      "d": 166.66666666666788,
      "v": 127
    },
    {
      "midi": 57,
      "hit": false,
      "t": 32500,
      "d": 500,
      "v": 127
    },
    {
      "midi": 62,
      "hit": false,
      "t": 32500,
      "d": 500,
      "v": 127
    },
    {
      "midi": 50,
      "hit": false,
      "t": 32500,
      "d": 666.6666666666642,
      "v": 127
    },
    {
      "midi": 48,
      "hit": false,
      "t": 33250,
      "d": 333.33333333333576,
      "v": 127
    },
    {
      "midi": 55,
      "hit": false,
      "t": 33250,
      "d": 333.33333333333576,
      "v": 127
    },
    {
      "midi": 60,
      "hit": false,
      "t": 33250,
      "d": 333.33333333333576,
      "v": 127
    },
    {
      "midi": 48,
      "hit": false,
      "t": 33750,
      "d": 166.66666666666424,
      "v": 127
    },
    {
      "midi": 55,
      "hit": false,
      "t": 33750,
      "d": 166.66666666666424,
      "v": 127
    },
    {
      "midi": 60,
      "hit": false,
      "t": 33750,
      "d": 166.66666666666424,
      "v": 127
    },
    {
      "midi": 48,
      "hit": false,
      "t": 34000,
      "d": 166.66666666666424,
      "v": 127
    },
    {
      "midi": 55,
      "hit": false,
      "t": 34000,
      "d": 166.66666666666424,
      "v": 127
    },
    {
      "midi": 60,
      "hit": false,
      "t": 34000,
      "d": 166.66666666666424,
      "v": 127
    },
    {
      "midi": 47,
      "hit": false,
      "t": 34250,
      "d": 166.66666666666424,
      "v": 127
    },
    {
      "midi": 54,
      "hit": false,
      "t": 34250,
      "d": 166.66666666666424,
      "v": 127
    },
    {
      "midi": 59,
      "hit": false,
      "t": 34250,
      "d": 166.66666666666424,
      "v": 127
    },
    {
      "midi": 50,
      "hit": false,
      "t": 34500,
      "d": 333.33333333333576,
      "v": 127
    },
    {
      "midi": 55,
      "hit": false,
      "t": 34500,
      "d": 333.33333333333576,
      "v": 127
    },
    {
      "midi": 43,
      "hit": false,
      "t": 34500,
      "d": 666.6666666666715,
      "v": 127
    },
    {
      "midi": 46,
      "hit": false,
      "t": 35250.00000000001,
      "d": 333.33333333333576,
      "v": 127
    },
    {
      "midi": 53,
      "hit": false,
      "t": 35250.00000000001,
      "d": 333.33333333333576,
      "v": 127
    },
    {
      "midi": 58,
      "hit": false,
      "t": 35250.00000000001,
      "d": 333.33333333333576,
      "v": 127
    },
    {
      "midi": 46,
      "hit": false,
      "t": 35750.00000000001,
      "d": 166.66666666666424,
      "v": 127
    },
    {
      "midi": 53,
      "hit": false,
      "t": 35750.00000000001,
      "d": 166.66666666666424,
      "v": 127
    },
    {
      "midi": 58,
      "hit": false,
      "t": 35750.00000000001,
      "d": 166.66666666666424,
      "v": 127
    },
    {
      "midi": 46,
      "hit": false,
      "t": 36000.00000000001,
      "d": 166.66666666666424,
      "v": 127
    },
    {
      "midi": 53,
      "hit": false,
      "t": 36000.00000000001,
      "d": 166.66666666666424,
      "v": 127
    },
    {
      "midi": 58,
      "hit": false,
      "t": 36000.00000000001,
      "d": 166.66666666666424,
      "v": 127
    },
    {
      "midi": 45,
      "hit": false,
      "t": 36250.00000000001,
      "d": 166.66666666666424,
      "v": 127
    },
    {
      "midi": 52,
      "hit": false,
      "t": 36250.00000000001,
      "d": 166.66666666666424,
      "v": 127
    },
    {
      "midi": 57,
      "hit": false,
      "t": 36250.00000000001,
      "d": 166.66666666666424,
      "v": 127
    },
    {
      "midi": 50,
      "hit": false,
      "t": 36750.00000000001,
      "d": 83.33333333333576,
      "v": 127
    },
    {
      "midi": 57,
      "hit": false,
      "t": 36750.00000000001,
      "d": 83.33333333333576,
      "v": 127
    },
    {
      "midi": 62,
      "hit": false,
      "t": 36750.00000000001,
      "d": 83.33333333333576,
      "v": 127
    },
    {
      "midi": 48,
      "hit": false,
      "t": 37250.00000000001,
      "d": 333.33333333333576,
      "v": 127
    },
    {
      "midi": 55,
      "hit": false,
      "t": 37250.00000000001,
      "d": 333.33333333333576,
      "v": 127
    },
    {
      "midi": 60,
      "hit": false,
      "t": 37250.00000000001,
      "d": 333.33333333333576,
      "v": 127
    },
    {
      "midi": 48,
      "hit": false,
      "t": 38000.00000000001,
      "d": 83.33333333333576,
      "v": 127
    },
    {
      "midi": 55,
      "hit": false,
      "t": 38000.00000000001,
      "d": 83.33333333333576,
      "v": 127
    },
    {
      "midi": 60,
      "hit": false,
      "t": 38000.00000000001,
      "d": 83.33333333333576,
      "v": 127
    },
    {
      "midi": 47,
      "hit": false,
      "t": 38250.00000000001,
      "d": 166.66666666666424,
      "v": 127
    },
    {
      "midi": 54,
      "hit": false,
      "t": 38250.00000000001,
      "d": 166.66666666666424,
      "v": 127
    },
    {
      "midi": 59,
      "hit": false,
      "t": 38250.00000000001,
      "d": 166.66666666666424,
      "v": 127
    },
    {
      "midi": 50,
      "hit": false,
      "t": 38500.00000000001,
      "d": 333.33333333333576,
      "v": 127
    },
    {
      "midi": 55,
      "hit": false,
      "t": 38500.00000000001,
      "d": 333.33333333333576,
      "v": 127
    },
    {
      "midi": 43,
      "hit": false,
      "t": 38500.00000000001,
      "d": 666.6666666666715,
      "v": 127
    },
    {
      "midi": 46,
      "hit": false,
      "t": 39250.000000000015,
      "d": 333.33333333333576,
      "v": 127
    },
    {
      "midi": 53,
      "hit": false,
      "t": 39250.000000000015,
      "d": 333.33333333333576,
      "v": 127
    },
    {
      "midi": 58,
      "hit": false,
      "t": 39250.000000000015,
      "d": 333.33333333333576,
      "v": 127
    },
    {
      "midi": 46,
      "hit": false,
      "t": 39750.000000000015,
      "d": 166.66666666666424,
      "v": 127
    },
    {
      "midi": 53,
      "hit": false,
      "t": 39750.000000000015,
      "d": 166.66666666666424,
      "v": 127
    },
    {
      "midi": 58,
      "hit": false,
      "t": 39750.000000000015,
      "d": 166.66666666666424,
      "v": 127
    },
    {
      "midi": 46,
      "hit": false,
      "t": 40000.000000000015,
      "d": 166.66666666666424,
      "v": 127
    },
    {
      "midi": 53,
      "hit": false,
      "t": 40000.000000000015,
      "d": 166.66666666666424,
      "v": 127
    },
    {
      "midi": 58,
      "hit": false,
      "t": 40000.000000000015,
      "d": 166.66666666666424,
      "v": 127
    },
    {
      "midi": 45,
      "hit": false,
      "t": 40250.000000000015,
      "d": 166.66666666666424,
      "v": 127
    },
    {
      "midi": 52,
      "hit": false,
      "t": 40250.000000000015,
      "d": 166.66666666666424,
      "v": 127
    },
    {
      "midi": 57,
      "hit": false,
      "t": 40250.000000000015,
      "d": 166.66666666666424,
      "v": 127
    },
    {
      "midi": 50,
      "hit": false,
      "t": 40750.000000000015,
      "d": 83.33333333333576,
      "v": 127
    },
    {
      "midi": 57,
      "hit": false,
      "t": 40750.000000000015,
      "d": 83.33333333333576,
      "v": 127
    },
    {
      "midi": 62,
      "hit": false,
      "t": 40750.000000000015,
      "d": 83.33333333333576,
      "v": 127
    },
    {
      "midi": 48,
      "hit": false,
      "t": 41250.000000000015,
      "d": 333.33333333333576,
      "v": 127
    },
    {
      "midi": 55,
      "hit": false,
      "t": 41250.000000000015,
      "d": 333.33333333333576,
      "v": 127
    },
    {
      "midi": 60,
      "hit": false,
      "t": 41250.000000000015,
      "d": 333.33333333333576,
      "v": 127
    },
    {
      "midi": 48,
      "hit": false,
      "t": 42000.000000000015,
      "d": 83.33333333333576,
      "v": 127
    },
    {
      "midi": 55,
      "hit": false,
      "t": 42000.000000000015,
      "d": 83.33333333333576,
      "v": 127
    },
    {
      "midi": 60,
      "hit": false,
      "t": 42000.000000000015,
      "d": 83.33333333333576,
      "v": 127
    },
    {
      "midi": 47,
      "hit": false,
      "t": 42250.000000000015,
      "d": 166.66666666666424,
      "v": 127
    },
    {
      "midi": 54,
      "hit": false,
      "t": 42250.000000000015,
      "d": 166.66666666666424,
      "v": 127
    },
    {
      "midi": 59,
      "hit": false,
      "t": 42250.000000000015,
      "d": 166.66666666666424,
      "v": 127
    },
    {
      "midi": 50,
      "hit": false,
      "t": 42500.000000000015,
      "d": 333.33333333333576,
      "v": 127
    },
    {
      "midi": 55,
      "hit": false,
      "t": 42500.000000000015,
      "d": 333.33333333333576,
      "v": 127
    },
    {
      "midi": 43,
      "hit": false,
      "t": 42500.000000000015,
      "d": 666.6666666666715,
      "v": 127
    },
    {
      "midi": 46,
      "hit": false,
      "t": 43250.00000000002,
      "d": 333.33333333333576,
      "v": 127
    },
    {
      "midi": 53,
      "hit": false,
      "t": 43250.00000000002,
      "d": 333.33333333333576,
      "v": 127
    },
    {
      "midi": 58,
      "hit": false,
      "t": 43250.00000000002,
      "d": 333.33333333333576,
      "v": 127
    },
    {
      "midi": 46,
      "hit": false,
      "t": 43750.00000000002,
      "d": 166.66666666666424,
      "v": 127
    },
    {
      "midi": 53,
      "hit": false,
      "t": 43750.00000000002,
      "d": 166.66666666666424,
      "v": 127
    },
    {
      "midi": 58,
      "hit": false,
      "t": 43750.00000000002,
      "d": 166.66666666666424,
      "v": 127
    },
    {
      "midi": 46,
      "hit": false,
      "t": 44000.00000000002,
      "d": 166.66666666666424,
      "v": 127
    },
    {
      "midi": 53,
      "hit": false,
      "t": 44000.00000000002,
      "d": 166.66666666666424,
      "v": 127
    },
    {
      "midi": 58,
      "hit": false,
      "t": 44000.00000000002,
      "d": 166.66666666666424,
      "v": 127
    },
    {
      "midi": 45,
      "hit": false,
      "t": 44250.00000000002,
      "d": 166.66666666666424,
      "v": 127
    },
    {
      "midi": 52,
      "hit": false,
      "t": 44250.00000000002,
      "d": 166.66666666666424,
      "v": 127
    },
    {
      "midi": 57,
      "hit": false,
      "t": 44250.00000000002,
      "d": 166.66666666666424,
      "v": 127
    },
    {
      "midi": 50,
      "hit": false,
      "t": 44750.00000000002,
      "d": 83.33333333333576,
      "v": 127
    },
    {
      "midi": 57,
      "hit": false,
      "t": 44750.00000000002,
      "d": 83.33333333333576,
      "v": 127
    },
    {
      "midi": 62,
      "hit": false,
      "t": 44750.00000000002,
      "d": 83.33333333333576,
      "v": 127
    },
    {
      "midi": 48,
      "hit": false,
      "t": 45250.00000000002,
      "d": 333.33333333333576,
      "v": 127
    },
    {
      "midi": 55,
      "hit": false,
      "t": 45250.00000000002,
      "d": 333.33333333333576,
      "v": 127
    },
    {
      "midi": 60,
      "hit": false,
      "t": 45250.00000000002,
      "d": 333.33333333333576,
      "v": 127
    },
    {
      "midi": 48,
      "hit": false,
      "t": 46000.00000000002,
      "d": 83.33333333333576,
      "v": 127
    },
    {
      "midi": 55,
      "hit": false,
      "t": 46000.00000000002,
      "d": 83.33333333333576,
      "v": 127
    },
    {
      "midi": 60,
      "hit": false,
      "t": 46000.00000000002,
      "d": 83.33333333333576,
      "v": 127
    },
    {
      "midi": 47,
      "hit": false,
      "t": 46250.00000000002,
      "d": 166.66666666666424,
      "v": 127
    },
    {
      "midi": 54,
      "hit": false,
      "t": 46250.00000000002,
      "d": 166.66666666666424,
      "v": 127
    },
    {
      "midi": 59,
      "hit": false,
      "t": 46250.00000000002,
      "d": 166.66666666666424,
      "v": 127
    },
    {
      "midi": 50,
      "hit": false,
      "t": 46500.00000000002,
      "d": 333.33333333333576,
      "v": 127
    },
    {
      "midi": 55,
      "hit": false,
      "t": 46500.00000000002,
      "d": 333.33333333333576,
      "v": 127
    },
    {
      "midi": 43,
      "hit": false,
      "t": 46500.00000000002,
      "d": 666.6666666666715,
      "v": 127
    },
    {
      "midi": 46,
      "hit": false,
      "t": 47250.00000000003,
      "d": 333.33333333333576,
      "v": 127
    },
    {
      "midi": 53,
      "hit": false,
      "t": 47250.00000000003,
      "d": 333.33333333333576,
      "v": 127
    },
    {
      "midi": 58,
      "hit": false,
      "t": 47250.00000000003,
      "d": 333.33333333333576,
      "v": 127
    },
    {
      "midi": 46,
      "hit": false,
      "t": 47750.00000000003,
      "d": 166.66666666666424,
      "v": 127
    },
    {
      "midi": 53,
      "hit": false,
      "t": 47750.00000000003,
      "d": 166.66666666666424,
      "v": 127
    },
    {
      "midi": 58,
      "hit": false,
      "t": 47750.00000000003,
      "d": 166.66666666666424,
      "v": 127
    },
    {
      "midi": 46,
      "hit": false,
      "t": 48000.00000000003,
      "d": 166.66666666666424,
      "v": 127
    },
    {
      "midi": 53,
      "hit": false,
      "t": 48000.00000000003,
      "d": 166.66666666666424,
      "v": 127
    },
    {
      "midi": 58,
      "hit": false,
      "t": 48000.00000000003,
      "d": 166.66666666666424,
      "v": 127
    },
    {
      "midi": 45,
      "hit": false,
      "t": 48250.00000000003,
      "d": 166.66666666666424,
      "v": 127
    },
    {
      "midi": 52,
      "hit": false,
      "t": 48250.00000000003,
      "d": 166.66666666666424,
      "v": 127
    },
    {
      "midi": 57,
      "hit": false,
      "t": 48250.00000000003,
      "d": 166.66666666666424,
      "v": 127
    },
    {
      "midi": 50,
      "hit": false,
      "t": 48750.00000000003,
      "d": 83.33333333333576,
      "v": 127
    },
    {
      "midi": 57,
      "hit": false,
      "t": 48750.00000000003,
      "d": 83.33333333333576,
      "v": 127
    },
    {
      "midi": 62,
      "hit": false,
      "t": 48750.00000000003,
      "d": 83.33333333333576,
      "v": 127
    },
    {
      "midi": 48,
      "hit": false,
      "t": 49250.00000000003,
      "d": 333.33333333333576,
      "v": 127
    },
    {
      "midi": 55,
      "hit": false,
      "t": 49250.00000000003,
      "d": 333.33333333333576,
      "v": 127
    },
    {
      "midi": 60,
      "hit": false,
      "t": 49250.00000000003,
      "d": 333.33333333333576,
      "v": 127
    },
    {
      "midi": 48,
      "hit": false,
      "t": 50000.00000000003,
      "d": 83.33333333333576,
      "v": 127
    },
    {
      "midi": 55,
      "hit": false,
      "t": 50000.00000000003,
      "d": 83.33333333333576,
      "v": 127
    },
    {
      "midi": 60,
      "hit": false,
      "t": 50000.00000000003,
      "d": 83.33333333333576,
      "v": 127
    },
    {
      "midi": 47,
      "hit": false,
      "t": 50250.00000000003,
      "d": 166.66666666666424,
      "v": 127
    },
    {
      "midi": 54,
      "hit": false,
      "t": 50250.00000000003,
      "d": 166.66666666666424,
      "v": 127
    },
    {
      "midi": 59,
      "hit": false,
      "t": 50250.00000000003,
      "d": 166.66666666666424,
      "v": 127
    },
    {
      "midi": 50,
      "hit": false,
      "t": 50500.00000000003,
      "d": 333.33333333333576,
      "v": 127
    },
    {
      "midi": 55,
      "hit": false,
      "t": 50500.00000000003,
      "d": 333.33333333333576,
      "v": 127
    },
    {
      "midi": 43,
      "hit": false,
      "t": 50500.00000000003,
      "d": 666.6666666666715,
      "v": 127
    },
    {
      "midi": 46,
      "hit": false,
      "t": 51250.00000000004,
      "d": 333.33333333333576,
      "v": 127
    },
    {
      "midi": 53,
      "hit": false,
      "t": 51250.00000000004,
      "d": 333.33333333333576,
      "v": 127
    },
    {
      "midi": 58,
      "hit": false,
      "t": 51250.00000000004,
      "d": 333.33333333333576,
      "v": 127
    },
    {
      "midi": 46,
      "hit": false,
      "t": 51750.00000000004,
      "d": 166.66666666666424,
      "v": 127
    },
    {
      "midi": 53,
      "hit": false,
      "t": 51750.00000000004,
      "d": 166.66666666666424,
      "v": 127
    },
    {
      "midi": 58,
      "hit": false,
      "t": 51750.00000000004,
      "d": 166.66666666666424,
      "v": 127
    },
    {
      "midi": 46,
      "hit": false,
      "t": 52000.00000000004,
      "d": 166.66666666666424,
      "v": 127
    },
    {
      "midi": 53,
      "hit": false,
      "t": 52000.00000000004,
      "d": 166.66666666666424,
      "v": 127
    },
    {
      "midi": 58,
      "hit": false,
      "t": 52000.00000000004,
      "d": 166.66666666666424,
      "v": 127
    },
    {
      "midi": 45,
      "hit": false,
      "t": 52250.00000000004,
      "d": 166.66666666666424,
      "v": 127
    },
    {
      "midi": 52,
      "hit": false,
      "t": 52250.00000000004,
      "d": 166.66666666666424,
      "v": 127
    },
    {
      "midi": 57,
      "hit": false,
      "t": 52250.00000000004,
      "d": 166.66666666666424,
      "v": 127
    },
    {
      "midi": 50,
      "hit": false,
      "t": 52750.00000000004,
      "d": 83.33333333333576,
      "v": 127
    },
    {
      "midi": 57,
      "hit": false,
      "t": 52750.00000000004,
      "d": 83.33333333333576,
      "v": 127
    },
    {
      "midi": 62,
      "hit": false,
      "t": 52750.00000000004,
      "d": 83.33333333333576,
      "v": 127
    },
    {
      "midi": 48,
      "hit": false,
      "t": 53250.00000000004,
      "d": 333.33333333333576,
      "v": 127
    },
    {
      "midi": 55,
      "hit": false,
      "t": 53250.00000000004,
      "d": 333.33333333333576,
      "v": 127
    },
    {
      "midi": 60,
      "hit": false,
      "t": 53250.00000000004,
      "d": 333.33333333333576,
      "v": 127
    },
    {
      "midi": 48,
      "hit": false,
      "t": 54000.00000000004,
      "d": 83.33333333333576,
      "v": 127
    },
    {
      "midi": 55,
      "hit": false,
      "t": 54000.00000000004,
      "d": 83.33333333333576,
      "v": 127
    },
    {
      "midi": 60,
      "hit": false,
      "t": 54000.00000000004,
      "d": 83.33333333333576,
      "v": 127
    },
    {
      "midi": 47,
      "hit": false,
      "t": 54250.00000000004,
      "d": 166.66666666666424,
      "v": 127
    },
    {
      "midi": 54,
      "hit": false,
      "t": 54250.00000000004,
      "d": 166.66666666666424,
      "v": 127
    },
    {
      "midi": 59,
      "hit": false,
      "t": 54250.00000000004,
      "d": 166.66666666666424,
      "v": 127
    },
    {
      "midi": 50,
      "hit": false,
      "t": 54500.00000000004,
      "d": 333.33333333333576,
      "v": 127
    },
    {
      "midi": 55,
      "hit": false,
      "t": 54500.00000000004,
      "d": 333.33333333333576,
      "v": 127
    },
    {
      "midi": 43,
      "hit": false,
      "t": 54500.00000000004,
      "d": 666.6666666666715,
      "v": 127
    },
    {
      "midi": 46,
      "hit": false,
      "t": 55250.000000000044,
      "d": 333.33333333333576,
      "v": 127
    },
    {
      "midi": 53,
      "hit": false,
      "t": 55250.000000000044,
      "d": 333.33333333333576,
      "v": 127
    },
    {
      "midi": 58,
      "hit": false,
      "t": 55250.000000000044,
      "d": 333.33333333333576,
      "v": 127
    },
    {
      "midi": 46,
      "hit": false,
      "t": 55750.000000000044,
      "d": 166.66666666666424,
      "v": 127
    },
    {
      "midi": 53,
      "hit": false,
      "t": 55750.000000000044,
      "d": 166.66666666666424,
      "v": 127
    },
    {
      "midi": 58,
      "hit": false,
      "t": 55750.000000000044,
      "d": 166.66666666666424,
      "v": 127
    },
    {
      "midi": 46,
      "hit": false,
      "t": 56000.000000000044,
      "d": 166.66666666666424,
      "v": 127
    },
    {
      "midi": 53,
      "hit": false,
      "t": 56000.000000000044,
      "d": 166.66666666666424,
      "v": 127
    },
    {
      "midi": 58,
      "hit": false,
      "t": 56000.000000000044,
      "d": 166.66666666666424,
      "v": 127
    },
    {
      "midi": 45,
      "hit": false,
      "t": 56250.000000000044,
      "d": 166.66666666666424,
      "v": 127
    },
    {
      "midi": 52,
      "hit": false,
      "t": 56250.000000000044,
      "d": 166.66666666666424,
      "v": 127
    },
    {
      "midi": 57,
      "hit": false,
      "t": 56250.000000000044,
      "d": 166.66666666666424,
      "v": 127
    },
    {
      "midi": 50,
      "hit": false,
      "t": 56750.000000000044,
      "d": 83.33333333333576,
      "v": 127
    },
    {
      "midi": 57,
      "hit": false,
      "t": 56750.000000000044,
      "d": 83.33333333333576,
      "v": 127
    },
    {
      "midi": 62,
      "hit": false,
      "t": 56750.000000000044,
      "d": 83.33333333333576,
      "v": 127
    },
    {
      "midi": 48,
      "hit": false,
      "t": 57250.000000000044,
      "d": 333.33333333333576,
      "v": 127
    },
    {
      "midi": 55,
      "hit": false,
      "t": 57250.000000000044,
      "d": 333.33333333333576,
      "v": 127
    },
    {
      "midi": 60,
      "hit": false,
      "t": 57250.000000000044,
      "d": 333.33333333333576,
      "v": 127
    },
    {
      "midi": 48,
      "hit": false,
      "t": 58000.000000000044,
      "d": 83.33333333333576,
      "v": 127
    },
    {
      "midi": 55,
      "hit": false,
      "t": 58000.000000000044,
      "d": 83.33333333333576,
      "v": 127
    },
    {
      "midi": 60,
      "hit": false,
      "t": 58000.000000000044,
      "d": 83.33333333333576,
      "v": 127
    },
    {
      "midi": 47,
      "hit": false,
      "t": 58250.000000000044,
      "d": 166.66666666666424,
      "v": 127
    },
    {
      "midi": 54,
      "hit": false,
      "t": 58250.000000000044,
      "d": 166.66666666666424,
      "v": 127
    },
    {
      "midi": 59,
      "hit": false,
      "t": 58250.000000000044,
      "d": 166.66666666666424,
      "v": 127
    },
    {
      "midi": 50,
      "hit": false,
      "t": 58500.000000000044,
      "d": 333.33333333333576,
      "v": 127
    },
    {
      "midi": 55,
      "hit": false,
      "t": 58500.000000000044,
      "d": 333.33333333333576,
      "v": 127
    },
    {
      "midi": 43,
      "hit": false,
      "t": 58500.000000000044,
      "d": 666.6666666666715,
      "v": 127
    },
    {
      "midi": 46,
      "hit": false,
      "t": 59250.00000000005,
      "d": 333.33333333333576,
      "v": 127
    },
    {
      "midi": 53,
      "hit": false,
      "t": 59250.00000000005,
      "d": 333.33333333333576,
      "v": 127
    },
    {
      "midi": 58,
      "hit": false,
      "t": 59250.00000000005,
      "d": 333.33333333333576,
      "v": 127
    },
    {
      "midi": 46,
      "hit": false,
      "t": 59750.00000000005,
      "d": 166.66666666666424,
      "v": 127
    },
    {
      "midi": 53,
      "hit": false,
      "t": 59750.00000000005,
      "d": 166.66666666666424,
      "v": 127
    },
    {
      "midi": 58,
      "hit": false,
      "t": 59750.00000000005,
      "d": 166.66666666666424,
      "v": 127
    },
    {
      "midi": 46,
      "hit": false,
      "t": 60000.00000000005,
      "d": 166.66666666666424,
      "v": 127
    },
    {
      "midi": 53,
      "hit": false,
      "t": 60000.00000000005,
      "d": 166.66666666666424,
      "v": 127
    },
    {
      "midi": 58,
      "hit": false,
      "t": 60000.00000000005,
      "d": 166.66666666666424,
      "v": 127
    },
    {
      "midi": 45,
      "hit": false,
      "t": 60250.00000000005,
      "d": 166.66666666666424,
      "v": 127
    },
    {
      "midi": 52,
      "hit": false,
      "t": 60250.00000000005,
      "d": 166.66666666666424,
      "v": 127
    },
    {
      "midi": 57,
      "hit": false,
      "t": 60250.00000000005,
      "d": 166.66666666666424,
      "v": 127
    },
    {
      "midi": 50,
      "hit": false,
      "t": 60750.00000000005,
      "d": 83.33333333333576,
      "v": 127
    },
    {
      "midi": 57,
      "hit": false,
      "t": 60750.00000000005,
      "d": 83.33333333333576,
      "v": 127
    },
    {
      "midi": 62,
      "hit": false,
      "t": 60750.00000000005,
      "d": 83.33333333333576,
      "v": 127
    },
    {
      "midi": 48,
      "hit": false,
      "t": 61250.00000000005,
      "d": 333.33333333333576,
      "v": 127
    },
    {
      "midi": 55,
      "hit": false,
      "t": 61250.00000000005,
      "d": 333.33333333333576,
      "v": 127
    },
    {
      "midi": 60,
      "hit": false,
      "t": 61250.00000000005,
      "d": 333.33333333333576,
      "v": 127
    },
    {
      "midi": 48,
      "hit": false,
      "t": 62000.00000000005,
      "d": 83.33333333333576,
      "v": 127
    },
    {
      "midi": 55,
      "hit": false,
      "t": 62000.00000000005,
      "d": 83.33333333333576,
      "v": 127
    },
    {
      "midi": 60,
      "hit": false,
      "t": 62000.00000000005,
      "d": 83.33333333333576,
      "v": 127
    },
    {
      "midi": 47,
      "hit": false,
      "t": 62250.00000000005,
      "d": 166.66666666666424,
      "v": 127
    },
    {
      "midi": 54,
      "hit": false,
      "t": 62250.00000000005,
      "d": 166.66666666666424,
      "v": 127
    },
    {
      "midi": 59,
      "hit": false,
      "t": 62250.00000000005,
      "d": 166.66666666666424,
      "v": 127
    },
    {
      "midi": 50,
      "hit": false,
      "t": 62500.00000000005,
      "d": 333.33333333333576,
      "v": 127
    },
    {
      "midi": 55,
      "hit": false,
      "t": 62500.00000000005,
      "d": 333.33333333333576,
      "v": 127
    },
    {
      "midi": 43,
      "hit": false,
      "t": 62500.00000000005,
      "d": 666.6666666666715,
      "v": 127
    },
    {
      "midi": 46,
      "hit": false,
      "t": 63250.00000000006,
      "d": 333.33333333333576,
      "v": 127
    },
    {
      "midi": 53,
      "hit": false,
      "t": 63250.00000000006,
      "d": 333.33333333333576,
      "v": 127
    },
    {
      "midi": 58,
      "hit": false,
      "t": 63250.00000000006,
      "d": 333.33333333333576,
      "v": 127
    },
    {
      "midi": 46,
      "hit": false,
      "t": 63750.00000000006,
      "d": 166.66666666666424,
      "v": 127
    },
    {
      "midi": 53,
      "hit": false,
      "t": 63750.00000000006,
      "d": 166.66666666666424,
      "v": 127
    },
    {
      "midi": 58,
      "hit": false,
      "t": 63750.00000000006,
      "d": 166.66666666666424,
      "v": 127
    },
    {
      "midi": 46,
      "hit": false,
      "t": 64000.00000000006,
      "d": 166.66666666666424,
      "v": 127
    },
    {
      "midi": 53,
      "hit": false,
      "t": 64000.00000000006,
      "d": 166.66666666666424,
      "v": 127
    },
    {
      "midi": 58,
      "hit": false,
      "t": 64000.00000000006,
      "d": 166.66666666666424,
      "v": 127
    },
    {
      "midi": 45,
      "hit": false,
      "t": 64250.00000000006,
      "d": 166.66666666666424,
      "v": 127
    },
    {
      "midi": 52,
      "hit": false,
      "t": 64250.00000000006,
      "d": 166.66666666666424,
      "v": 127
    },
    {
      "midi": 57,
      "hit": false,
      "t": 64250.00000000006,
      "d": 166.66666666666424,
      "v": 127
    },
    {
      "midi": 40,
      "hit": false,
      "t": 64500.00000000006,
      "d": 333.33333333333576,
      "v": 127
    },
    {
      "midi": 47,
      "hit": false,
      "t": 64500.00000000006,
      "d": 333.33333333333576,
      "v": 127
    },
    {
      "midi": 47,
      "hit": false,
      "t": 65000.00000000006,
      "d": 166.66666666666424,
      "v": 127
    },
    {
      "midi": 52,
      "hit": false,
      "t": 65000.00000000006,
      "d": 166.66666666666424,
      "v": 127
    },
    {
      "midi": 40,
      "hit": false,
      "t": 65250.00000000006,
      "d": 166.66666666666424,
      "v": 127
    },
    {
      "midi": 47,
      "hit": false,
      "t": 65250.00000000006,
      "d": 166.66666666666424,
      "v": 127
    },
    {
      "midi": 43,
      "hit": false,
      "t": 65500.00000000006,
      "d": 166.66666666667152,
      "v": 127
    },
    {
      "midi": 50,
      "hit": false,
      "t": 65500.00000000006,
      "d": 166.66666666667152,
      "v": 127
    },
    {
      "midi": 50,
      "hit": false,
      "t": 65750.00000000006,
      "d": 166.66666666667152,
      "v": 127
    },
    {
      "midi": 55,
      "hit": false,
      "t": 65750.00000000006,
      "d": 166.66666666667152,
      "v": 127
    },
    {
      "midi": 50,
      "hit": false,
      "t": 66000.00000000006,
      "d": 166.66666666667152,
      "v": 127
    },
    {
      "midi": 43,
      "hit": false,
      "t": 66250.00000000006,
      "d": 166.66666666667152,
      "v": 127
    },
    {
      "midi": 50,
      "hit": false,
      "t": 66500.00000000006,
      "d": 166.66666666667152,
      "v": 127
    },
    {
      "midi": 57,
      "hit": false,
      "t": 66500.00000000006,
      "d": 166.66666666667152,
      "v": 127
    },
    {
      "midi": 57,
      "hit": false,
      "t": 66750.00000000006,
      "d": 166.66666666667152,
      "v": 127
    },
    {
      "midi": 62,
      "hit": false,
      "t": 66750.00000000006,
      "d": 166.66666666667152,
      "v": 127
    },
    {
      "midi": 57,
      "hit": false,
      "t": 67000.00000000006,
      "d": 166.66666666667152,
      "v": 127
    },
    {
      "midi": 48,
      "hit": false,
      "t": 67250.00000000006,
      "d": 333.3333333333285,
      "v": 127
    },
    {
      "midi": 55,
      "hit": false,
      "t": 67250.00000000006,
      "d": 333.3333333333285,
      "v": 127
    },
    {
      "midi": 60,
      "hit": false,
      "t": 67250.00000000006,
      "d": 333.3333333333285,
      "v": 127
    },
    {
      "midi": 48,
      "hit": false,
      "t": 67750.00000000006,
      "d": 166.66666666667152,
      "v": 127
    },
    {
      "midi": 55,
      "hit": false,
      "t": 67750.00000000006,
      "d": 166.66666666667152,
      "v": 127
    },
    {
      "midi": 60,
      "hit": false,
      "t": 67750.00000000006,
      "d": 166.66666666667152,
      "v": 127
    },
    {
      "midi": 48,
      "hit": false,
      "t": 68000.00000000006,
      "d": 166.66666666667152,
      "v": 127
    },
    {
      "midi": 64,
      "hit": false,
      "t": 68000.00000000006,
      "d": 166.66666666667152,
      "v": 127
    },
    {
      "midi": 45,
      "hit": false,
      "t": 68250.00000000006,
      "d": 166.66666666667152,
      "v": 127
    },
    {
      "midi": 52,
      "hit": false,
      "t": 68250.00000000006,
      "d": 166.66666666667152,
      "v": 127
    },
    {
      "midi": 40,
      "hit": false,
      "t": 68500.00000000006,
      "d": 333.3333333333285,
      "v": 127
    },
    {
      "midi": 47,
      "hit": false,
      "t": 68500.00000000006,
      "d": 333.3333333333285,
      "v": 127
    },
    {
      "midi": 47,
      "hit": false,
      "t": 69000.00000000006,
      "d": 166.66666666667152,
      "v": 127
    },
    {
      "midi": 52,
      "hit": false,
      "t": 69000.00000000006,
      "d": 166.66666666667152,
      "v": 127
    },
    {
      "midi": 40,
      "hit": false,
      "t": 69250.00000000006,
      "d": 166.66666666667152,
      "v": 127
    },
    {
      "midi": 47,
      "hit": false,
      "t": 69250.00000000006,
      "d": 166.66666666667152,
      "v": 127
    },
    {
      "midi": 43,
      "hit": false,
      "t": 69500.00000000006,
      "d": 166.66666666667152,
      "v": 127
    },
    {
      "midi": 50,
      "hit": false,
      "t": 69500.00000000006,
      "d": 166.66666666667152,
      "v": 127
    },
    {
      "midi": 50,
      "hit": false,
      "t": 69750.00000000006,
      "d": 166.66666666667152,
      "v": 127
    },
    {
      "midi": 55,
      "hit": false,
      "t": 69750.00000000006,
      "d": 166.66666666667152,
      "v": 127
    },
    {
      "midi": 50,
      "hit": false,
      "t": 70000.00000000006,
      "d": 166.66666666667152,
      "v": 127
    },
    {
      "midi": 43,
      "hit": false,
      "t": 70250.00000000006,
      "d": 166.66666666667152,
      "v": 127
    },
    {
      "midi": 50,
      "hit": false,
      "t": 70500.00000000006,
      "d": 166.66666666667152,
      "v": 127
    },
    {
      "midi": 57,
      "hit": false,
      "t": 70500.00000000006,
      "d": 166.66666666667152,
      "v": 127
    },
    {
      "midi": 57,
      "hit": false,
      "t": 70750.00000000006,
      "d": 166.66666666667152,
      "v": 127
    },
    {
      "midi": 62,
      "hit": false,
      "t": 70750.00000000006,
      "d": 166.66666666667152,
      "v": 127
    },
    {
      "midi": 57,
      "hit": false,
      "t": 71000.00000000006,
      "d": 166.66666666667152,
      "v": 127
    },
    {
      "midi": 48,
      "hit": false,
      "t": 71250.00000000006,
      "d": 333.3333333333285,
      "v": 127
    },
    {
      "midi": 55,
      "hit": false,
      "t": 71250.00000000006,
      "d": 333.3333333333285,
      "v": 127
    },
    {
      "midi": 60,
      "hit": false,
      "t": 71250.00000000006,
      "d": 333.3333333333285,
      "v": 127
    },
    {
      "midi": 48,
      "hit": false,
      "t": 71750.00000000006,
      "d": 166.66666666667152,
      "v": 127
    },
    {
      "midi": 55,
      "hit": false,
      "t": 71750.00000000006,
      "d": 166.66666666667152,
      "v": 127
    },
    {
      "midi": 60,
      "hit": false,
      "t": 71750.00000000006,
      "d": 166.66666666667152,
      "v": 127
    },
    {
      "midi": 48,
      "hit": false,
      "t": 72000.00000000006,
      "d": 166.66666666667152,
      "v": 127
    },
    {
      "midi": 64,
      "hit": false,
      "t": 72000.00000000006,
      "d": 166.66666666667152,
      "v": 127
    },
    {
      "midi": 45,
      "hit": false,
      "t": 72250.00000000006,
      "d": 166.66666666667152,
      "v": 127
    },
    {
      "midi": 52,
      "hit": false,
      "t": 72250.00000000006,
      "d": 166.66666666667152,
      "v": 127
    },
    {
      "midi": 40,
      "hit": false,
      "t": 72500.00000000006,
      "d": 333.3333333333285,
      "v": 127
    },
    {
      "midi": 47,
      "hit": false,
      "t": 72500.00000000006,
      "d": 333.3333333333285,
      "v": 127
    },
    {
      "midi": 47,
      "hit": false,
      "t": 73000.00000000006,
      "d": 166.66666666667152,
      "v": 127
    },
    {
      "midi": 52,
      "hit": false,
      "t": 73000.00000000006,
      "d": 166.66666666667152,
      "v": 127
    },
    {
      "midi": 40,
      "hit": false,
      "t": 73250.00000000006,
      "d": 166.66666666667152,
      "v": 127
    },
    {
      "midi": 47,
      "hit": false,
      "t": 73250.00000000006,
      "d": 166.66666666667152,
      "v": 127
    },
    {
      "midi": 43,
      "hit": false,
      "t": 73500.00000000006,
      "d": 166.66666666667152,
      "v": 127
    },
    {
      "midi": 50,
      "hit": false,
      "t": 73500.00000000006,
      "d": 166.66666666667152,
      "v": 127
    },
    {
      "midi": 50,
      "hit": false,
      "t": 73750.00000000006,
      "d": 166.66666666667152,
      "v": 127
    },
    {
      "midi": 55,
      "hit": false,
      "t": 73750.00000000006,
      "d": 166.66666666667152,
      "v": 127
    },
    {
      "midi": 50,
      "hit": false,
      "t": 74000.00000000006,
      "d": 166.66666666667152,
      "v": 127
    },
    {
      "midi": 43,
      "hit": false,
      "t": 74250.00000000006,
      "d": 166.66666666667152,
      "v": 127
    },
    {
      "midi": 50,
      "hit": false,
      "t": 74500.00000000006,
      "d": 166.66666666667152,
      "v": 127
    },
    {
      "midi": 57,
      "hit": false,
      "t": 74500.00000000006,
      "d": 166.66666666667152,
      "v": 127
    },
    {
      "midi": 57,
      "hit": false,
      "t": 74750.00000000006,
      "d": 166.66666666667152,
      "v": 127
    },
    {
      "midi": 62,
      "hit": false,
      "t": 74750.00000000006,
      "d": 166.66666666667152,
      "v": 127
    },
    {
      "midi": 57,
      "hit": false,
      "t": 75000.00000000006,
      "d": 166.66666666667152,
      "v": 127
    },
    {
      "midi": 48,
      "hit": false,
      "t": 75250.00000000006,
      "d": 333.3333333333285,
      "v": 127
    },
    {
      "midi": 55,
      "hit": false,
      "t": 75250.00000000006,
      "d": 333.3333333333285,
      "v": 127
    },
    {
      "midi": 60,
      "hit": false,
      "t": 75250.00000000006,
      "d": 333.3333333333285,
      "v": 127
    },
    {
      "midi": 48,
      "hit": false,
      "t": 75750.00000000006,
      "d": 166.66666666667152,
      "v": 127
    },
    {
      "midi": 55,
      "hit": false,
      "t": 75750.00000000006,
      "d": 166.66666666667152,
      "v": 127
    },
    {
      "midi": 60,
      "hit": false,
      "t": 75750.00000000006,
      "d": 166.66666666667152,
      "v": 127
    },
    {
      "midi": 48,
      "hit": false,
      "t": 76000.00000000006,
      "d": 166.66666666667152,
      "v": 127
    },
    {
      "midi": 64,
      "hit": false,
      "t": 76000.00000000006,
      "d": 166.66666666667152,
      "v": 127
    },
    {
      "midi": 45,
      "hit": false,
      "t": 76250.00000000006,
      "d": 166.66666666667152,
      "v": 127
    },
    {
      "midi": 52,
      "hit": false,
      "t": 76250.00000000006,
      "d": 166.66666666667152,
      "v": 127
    },
    {
      "midi": 40,
      "hit": false,
      "t": 76500.00000000006,
      "d": 333.3333333333285,
      "v": 127
    },
    {
      "midi": 47,
      "hit": false,
      "t": 76500.00000000006,
      "d": 333.3333333333285,
      "v": 127
    },
    {
      "midi": 47,
      "hit": false,
      "t": 77000.00000000006,
      "d": 166.66666666667152,
      "v": 127
    },
    {
      "midi": 52,
      "hit": false,
      "t": 77000.00000000006,
      "d": 166.66666666667152,
      "v": 127
    },
    {
      "midi": 40,
      "hit": false,
      "t": 77250.00000000006,
      "d": 166.66666666667152,
      "v": 127
    },
    {
      "midi": 47,
      "hit": false,
      "t": 77250.00000000006,
      "d": 166.66666666667152,
      "v": 127
    },
    {
      "midi": 43,
      "hit": false,
      "t": 77500.00000000006,
      "d": 166.66666666667152,
      "v": 127
    },
    {
      "midi": 50,
      "hit": false,
      "t": 77500.00000000006,
      "d": 166.66666666667152,
      "v": 127
    },
    {
      "midi": 50,
      "hit": false,
      "t": 77750.00000000006,
      "d": 166.66666666667152,
      "v": 127
    },
    {
      "midi": 55,
      "hit": false,
      "t": 77750.00000000006,
      "d": 166.66666666667152,
      "v": 127
    },
    {
      "midi": 50,
      "hit": false,
      "t": 78000.00000000006,
      "d": 166.66666666667152,
      "v": 127
    },
    {
      "midi": 43,
      "hit": false,
      "t": 78250.00000000006,
      "d": 166.66666666667152,
      "v": 127
    },
    {
      "midi": 50,
      "hit": false,
      "t": 78500.00000000006,
      "d": 166.66666666667152,
      "v": 127
    },
    {
      "midi": 57,
      "hit": false,
      "t": 78500.00000000006,
      "d": 166.66666666667152,
      "v": 127
    },
    {
      "midi": 57,
      "hit": false,
      "t": 78750.00000000006,
      "d": 166.66666666667152,
      "v": 127
    },
    {
      "midi": 62,
      "hit": false,
      "t": 78750.00000000006,
      "d": 166.66666666667152,
      "v": 127
    },
    {
      "midi": 57,
      "hit": false,
      "t": 79000.00000000006,
      "d": 166.66666666667152,
      "v": 127
    },
    {
      "midi": 48,
      "hit": false,
      "t": 79250.00000000006,
      "d": 333.3333333333285,
      "v": 127
    },
    {
      "midi": 55,
      "hit": false,
      "t": 79250.00000000006,
      "d": 333.3333333333285,
      "v": 127
    },
    {
      "midi": 60,
      "hit": false,
      "t": 79250.00000000006,
      "d": 333.3333333333285,
      "v": 127
    },
    {
      "midi": 48,
      "hit": false,
      "t": 79750.00000000006,
      "d": 166.66666666667152,
      "v": 127
    },
    {
      "midi": 55,
      "hit": false,
      "t": 79750.00000000006,
      "d": 166.66666666667152,
      "v": 127
    },
    {
      "midi": 60,
      "hit": false,
      "t": 79750.00000000006,
      "d": 166.66666666667152,
      "v": 127
    },
    {
      "midi": 48,
      "hit": false,
      "t": 80000.00000000006,
      "d": 166.66666666667152,
      "v": 127
    },
    {
      "midi": 64,
      "hit": false,
      "t": 80000.00000000006,
      "d": 166.66666666667152,
      "v": 127
    },
    {
      "midi": 45,
      "hit": false,
      "t": 80250.00000000006,
      "d": 166.66666666667152,
      "v": 127
    },
    {
      "midi": 52,
      "hit": false,
      "t": 80250.00000000006,
      "d": 166.66666666667152,
      "v": 127
    },
    {
      "midi": 40,
      "hit": false,
      "t": 80500.00000000006,
      "d": 333.3333333333285,
      "v": 127
    },
    {
      "midi": 47,
      "hit": false,
      "t": 80500.00000000006,
      "d": 333.3333333333285,
      "v": 127
    },
    {
      "midi": 47,
      "hit": false,
      "t": 81000.00000000006,
      "d": 166.66666666667152,
      "v": 127
    },
    {
      "midi": 52,
      "hit": false,
      "t": 81000.00000000006,
      "d": 166.66666666667152,
      "v": 127
    },
    {
      "midi": 40,
      "hit": false,
      "t": 81250.00000000006,
      "d": 166.66666666667152,
      "v": 127
    },
    {
      "midi": 47,
      "hit": false,
      "t": 81250.00000000006,
      "d": 166.66666666667152,
      "v": 127
    },
    {
      "midi": 43,
      "hit": false,
      "t": 81500.00000000006,
      "d": 166.66666666667152,
      "v": 127
    },
    {
      "midi": 50,
      "hit": false,
      "t": 81500.00000000006,
      "d": 166.66666666667152,
      "v": 127
    },
    {
      "midi": 50,
      "hit": false,
      "t": 81750.00000000006,
      "d": 166.66666666667152,
      "v": 127
    },
    {
      "midi": 55,
      "hit": false,
      "t": 81750.00000000006,
      "d": 166.66666666667152,
      "v": 127
    },
    {
      "midi": 50,
      "hit": false,
      "t": 82000.00000000006,
      "d": 166.66666666667152,
      "v": 127
    },
    {
      "midi": 43,
      "hit": false,
      "t": 82250.00000000006,
      "d": 166.66666666667152,
      "v": 127
    },
    {
      "midi": 50,
      "hit": false,
      "t": 82500.00000000006,
      "d": 166.66666666667152,
      "v": 127
    },
    {
      "midi": 57,
      "hit": false,
      "t": 82500.00000000006,
      "d": 166.66666666667152,
      "v": 127
    },
    {
      "midi": 57,
      "hit": false,
      "t": 82750.00000000006,
      "d": 166.66666666667152,
      "v": 127
    },
    {
      "midi": 62,
      "hit": false,
      "t": 82750.00000000006,
      "d": 166.66666666667152,
      "v": 127
    },
    {
      "midi": 57,
      "hit": false,
      "t": 83000.00000000006,
      "d": 166.66666666667152,
      "v": 127
    },
    {
      "midi": 48,
      "hit": false,
      "t": 83250.00000000006,
      "d": 333.3333333333285,
      "v": 127
    },
    {
      "midi": 55,
      "hit": false,
      "t": 83250.00000000006,
      "d": 333.3333333333285,
      "v": 127
    },
    {
      "midi": 60,
      "hit": false,
      "t": 83250.00000000006,
      "d": 333.3333333333285,
      "v": 127
    },
    {
      "midi": 48,
      "hit": false,
      "t": 83750.00000000006,
      "d": 166.66666666667152,
      "v": 127
    },
    {
      "midi": 55,
      "hit": false,
      "t": 83750.00000000006,
      "d": 166.66666666667152,
      "v": 127
    },
    {
      "midi": 60,
      "hit": false,
      "t": 83750.00000000006,
      "d": 166.66666666667152,
      "v": 127
    },
    {
      "midi": 48,
      "hit": false,
      "t": 84000.00000000006,
      "d": 166.66666666667152,
      "v": 127
    },
    {
      "midi": 64,
      "hit": false,
      "t": 84000.00000000006,
      "d": 166.66666666667152,
      "v": 127
    },
    {
      "midi": 45,
      "hit": false,
      "t": 84250.00000000006,
      "d": 166.66666666667152,
      "v": 127
    },
    {
      "midi": 52,
      "hit": false,
      "t": 84250.00000000006,
      "d": 166.66666666667152,
      "v": 127
    },
    {
      "midi": 40,
      "hit": false,
      "t": 84500.00000000006,
      "d": 333.3333333333285,
      "v": 127
    },
    {
      "midi": 47,
      "hit": false,
      "t": 84500.00000000006,
      "d": 333.3333333333285,
      "v": 127
    },
    {
      "midi": 47,
      "hit": false,
      "t": 85000.00000000006,
      "d": 166.66666666667152,
      "v": 127
    },
    {
      "midi": 52,
      "hit": false,
      "t": 85000.00000000006,
      "d": 166.66666666667152,
      "v": 127
    },
    {
      "midi": 40,
      "hit": false,
      "t": 85250.00000000006,
      "d": 166.66666666667152,
      "v": 127
    },
    {
      "midi": 47,
      "hit": false,
      "t": 85250.00000000006,
      "d": 166.66666666667152,
      "v": 127
    },
    {
      "midi": 43,
      "hit": false,
      "t": 85500.00000000006,
      "d": 166.66666666667152,
      "v": 127
    },
    {
      "midi": 50,
      "hit": false,
      "t": 85500.00000000006,
      "d": 166.66666666667152,
      "v": 127
    },
    {
      "midi": 50,
      "hit": false,
      "t": 85750.00000000006,
      "d": 166.66666666667152,
      "v": 127
    },
    {
      "midi": 55,
      "hit": false,
      "t": 85750.00000000006,
      "d": 166.66666666667152,
      "v": 127
    },
    {
      "midi": 50,
      "hit": false,
      "t": 86000.00000000006,
      "d": 166.66666666667152,
      "v": 127
    },
    {
      "midi": 43,
      "hit": false,
      "t": 86250.00000000006,
      "d": 166.66666666667152,
      "v": 127
    },
    {
      "midi": 50,
      "hit": false,
      "t": 86500.00000000006,
      "d": 166.66666666667152,
      "v": 127
    },
    {
      "midi": 57,
      "hit": false,
      "t": 86500.00000000006,
      "d": 166.66666666667152,
      "v": 127
    },
    {
      "midi": 57,
      "hit": false,
      "t": 86750.00000000006,
      "d": 166.66666666667152,
      "v": 127
    },
    {
      "midi": 62,
      "hit": false,
      "t": 86750.00000000006,
      "d": 166.66666666667152,
      "v": 127
    },
    {
      "midi": 57,
      "hit": false,
      "t": 87000.00000000006,
      "d": 166.66666666667152,
      "v": 127
    },
    {
      "midi": 48,
      "hit": false,
      "t": 87250.00000000006,
      "d": 333.3333333333285,
      "v": 127
    },
    {
      "midi": 55,
      "hit": false,
      "t": 87250.00000000006,
      "d": 333.3333333333285,
      "v": 127
    },
    {
      "midi": 60,
      "hit": false,
      "t": 87250.00000000006,
      "d": 333.3333333333285,
      "v": 127
    },
    {
      "midi": 48,
      "hit": false,
      "t": 87750.00000000006,
      "d": 166.66666666667152,
      "v": 127
    },
    {
      "midi": 55,
      "hit": false,
      "t": 87750.00000000006,
      "d": 166.66666666667152,
      "v": 127
    },
    {
      "midi": 60,
      "hit": false,
      "t": 87750.00000000006,
      "d": 166.66666666667152,
      "v": 127
    },
    {
      "midi": 48,
      "hit": false,
      "t": 88000.00000000006,
      "d": 166.66666666667152,
      "v": 127
    },
    {
      "midi": 64,
      "hit": false,
      "t": 88000.00000000006,
      "d": 166.66666666667152,
      "v": 127
    },
    {
      "midi": 45,
      "hit": false,
      "t": 88250.00000000006,
      "d": 166.66666666667152,
      "v": 127
    },
    {
      "midi": 52,
      "hit": false,
      "t": 88250.00000000006,
      "d": 166.66666666667152,
      "v": 127
    },
    {
      "midi": 57,
      "hit": false,
      "t": 88500.00000000006,
      "d": 500,
      "v": 127
    },
    {
      "midi": 62,
      "hit": false,
      "t": 88500.00000000006,
      "d": 500,
      "v": 127
    },
    {
      "midi": 50,
      "hit": false,
      "t": 88500.00000000006,
      "d": 666.6666666666715,
      "v": 127
    },
    {
      "midi": 48,
      "hit": false,
      "t": 89250.00000000006,
      "d": 333.3333333333285,
      "v": 127
    },
    {
      "midi": 55,
      "hit": false,
      "t": 89250.00000000006,
      "d": 333.3333333333285,
      "v": 127
    },
    {
      "midi": 60,
      "hit": false,
      "t": 89250.00000000006,
      "d": 333.3333333333285,
      "v": 127
    },
    {
      "midi": 48,
      "hit": false,
      "t": 89750.00000000006,
      "d": 166.66666666667152,
      "v": 127
    },
    {
      "midi": 55,
      "hit": false,
      "t": 89750.00000000006,
      "d": 166.66666666667152,
      "v": 127
    },
    {
      "midi": 60,
      "hit": false,
      "t": 89750.00000000006,
      "d": 166.66666666667152,
      "v": 127
    },
    {
      "midi": 48,
      "hit": false,
      "t": 90000.00000000006,
      "d": 166.66666666667152,
      "v": 127
    },
    {
      "midi": 55,
      "hit": false,
      "t": 90000.00000000006,
      "d": 166.66666666667152,
      "v": 127
    },
    {
      "midi": 60,
      "hit": false,
      "t": 90000.00000000006,
      "d": 166.66666666667152,
      "v": 127
    },
    {
      "midi": 47,
      "hit": false,
      "t": 90250.00000000006,
      "d": 166.66666666667152,
      "v": 127
    },
    {
      "midi": 54,
      "hit": false,
      "t": 90250.00000000006,
      "d": 166.66666666667152,
      "v": 127
    },
    {
      "midi": 59,
      "hit": false,
      "t": 90250.00000000006,
      "d": 166.66666666667152,
      "v": 127
    },
    {
      "midi": 50,
      "hit": false,
      "t": 90500.00000000006,
      "d": 333.3333333333285,
      "v": 127
    },
    {
      "midi": 55,
      "hit": false,
      "t": 90500.00000000006,
      "d": 333.3333333333285,
      "v": 127
    },
    {
      "midi": 43,
      "hit": false,
      "t": 90500.00000000006,
      "d": 666.666666666657,
      "v": 127
    },
    {
      "midi": 46,
      "hit": false,
      "t": 91250.00000000004,
      "d": 333.3333333333285,
      "v": 127
    },
    {
      "midi": 53,
      "hit": false,
      "t": 91250.00000000004,
      "d": 333.3333333333285,
      "v": 127
    },
    {
      "midi": 58,
      "hit": false,
      "t": 91250.00000000004,
      "d": 333.3333333333285,
      "v": 127
    },
    {
      "midi": 46,
      "hit": false,
      "t": 91750.00000000004,
      "d": 166.66666666667152,
      "v": 127
    },
    {
      "midi": 53,
      "hit": false,
      "t": 91750.00000000004,
      "d": 166.66666666667152,
      "v": 127
    },
    {
      "midi": 58,
      "hit": false,
      "t": 91750.00000000004,
      "d": 166.66666666667152,
      "v": 127
    },
    {
      "midi": 46,
      "hit": false,
      "t": 92000.00000000004,
      "d": 166.66666666667152,
      "v": 127
    },
    {
      "midi": 53,
      "hit": false,
      "t": 92000.00000000004,
      "d": 166.66666666667152,
      "v": 127
    },
    {
      "midi": 58,
      "hit": false,
      "t": 92000.00000000004,
      "d": 166.66666666667152,
      "v": 127
    },
    {
      "midi": 45,
      "hit": false,
      "t": 92250.00000000004,
      "d": 166.66666666667152,
      "v": 127
    },
    {
      "midi": 52,
      "hit": false,
      "t": 92250.00000000004,
      "d": 166.66666666667152,
      "v": 127
    },
    {
      "midi": 57,
      "hit": false,
      "t": 92250.00000000004,
      "d": 166.66666666667152,
      "v": 127
    },
    {
      "midi": 50,
      "hit": false,
      "t": 92750.00000000004,
      "d": 83.33333333332848,
      "v": 127
    },
    {
      "midi": 57,
      "hit": false,
      "t": 92750.00000000004,
      "d": 83.33333333332848,
      "v": 127
    },
    {
      "midi": 62,
      "hit": false,
      "t": 92750.00000000004,
      "d": 83.33333333332848,
      "v": 127
    },
    {
      "midi": 48,
      "hit": false,
      "t": 93250.00000000004,
      "d": 333.3333333333285,
      "v": 127
    },
    {
      "midi": 55,
      "hit": false,
      "t": 93250.00000000004,
      "d": 333.3333333333285,
      "v": 127
    },
    {
      "midi": 60,
      "hit": false,
      "t": 93250.00000000004,
      "d": 333.3333333333285,
      "v": 127
    },
    {
      "midi": 48,
      "hit": false,
      "t": 94000.00000000004,
      "d": 83.33333333332848,
      "v": 127
    },
    {
      "midi": 55,
      "hit": false,
      "t": 94000.00000000004,
      "d": 83.33333333332848,
      "v": 127
    },
    {
      "midi": 60,
      "hit": false,
      "t": 94000.00000000004,
      "d": 83.33333333332848,
      "v": 127
    },
    {
      "midi": 47,
      "hit": false,
      "t": 94250.00000000004,
      "d": 166.66666666667152,
      "v": 127
    },
    {
      "midi": 54,
      "hit": false,
      "t": 94250.00000000004,
      "d": 166.66666666667152,
      "v": 127
    },
    {
      "midi": 59,
      "hit": false,
      "t": 94250.00000000004,
      "d": 166.66666666667152,
      "v": 127
    },
    {
      "midi": 50,
      "hit": false,
      "t": 94500.00000000004,
      "d": 333.3333333333285,
      "v": 127
    },
    {
      "midi": 55,
      "hit": false,
      "t": 94500.00000000004,
      "d": 333.3333333333285,
      "v": 127
    },
    {
      "midi": 43,
      "hit": false,
      "t": 94500.00000000004,
      "d": 666.666666666657,
      "v": 127
    },
    {
      "midi": 46,
      "hit": false,
      "t": 95250.00000000003,
      "d": 333.3333333333285,
      "v": 127
    },
    {
      "midi": 53,
      "hit": false,
      "t": 95250.00000000003,
      "d": 333.3333333333285,
      "v": 127
    },
    {
      "midi": 58,
      "hit": false,
      "t": 95250.00000000003,
      "d": 333.3333333333285,
      "v": 127
    },
    {
      "midi": 46,
      "hit": false,
      "t": 95750.00000000003,
      "d": 166.66666666667152,
      "v": 127
    },
    {
      "midi": 53,
      "hit": false,
      "t": 95750.00000000003,
      "d": 166.66666666667152,
      "v": 127
    },
    {
      "midi": 58,
      "hit": false,
      "t": 95750.00000000003,
      "d": 166.66666666667152,
      "v": 127
    },
    {
      "midi": 46,
      "hit": false,
      "t": 96000.00000000003,
      "d": 166.66666666667152,
      "v": 127
    },
    {
      "midi": 53,
      "hit": false,
      "t": 96000.00000000003,
      "d": 166.66666666667152,
      "v": 127
    },
    {
      "midi": 58,
      "hit": false,
      "t": 96000.00000000003,
      "d": 166.66666666667152,
      "v": 127
    },
    {
      "midi": 45,
      "hit": false,
      "t": 96250.00000000003,
      "d": 166.66666666667152,
      "v": 127
    },
    {
      "midi": 52,
      "hit": false,
      "t": 96250.00000000003,
      "d": 166.66666666667152,
      "v": 127
    },
    {
      "midi": 57,
      "hit": false,
      "t": 96250.00000000003,
      "d": 166.66666666667152,
      "v": 127
    },
    {
      "midi": 50,
      "hit": false,
      "t": 96750.00000000003,
      "d": 83.33333333332848,
      "v": 127
    },
    {
      "midi": 57,
      "hit": false,
      "t": 96750.00000000003,
      "d": 83.33333333332848,
      "v": 127
    },
    {
      "midi": 62,
      "hit": false,
      "t": 96750.00000000003,
      "d": 83.33333333332848,
      "v": 127
    },
    {
      "midi": 48,
      "hit": false,
      "t": 97250.00000000003,
      "d": 333.3333333333285,
      "v": 127
    },
    {
      "midi": 55,
      "hit": false,
      "t": 97250.00000000003,
      "d": 333.3333333333285,
      "v": 127
    },
    {
      "midi": 60,
      "hit": false,
      "t": 97250.00000000003,
      "d": 333.3333333333285,
      "v": 127
    },
    {
      "midi": 48,
      "hit": false,
      "t": 98000.00000000003,
      "d": 83.33333333332848,
      "v": 127
    },
    {
      "midi": 55,
      "hit": false,
      "t": 98000.00000000003,
      "d": 83.33333333332848,
      "v": 127
    },
    {
      "midi": 60,
      "hit": false,
      "t": 98000.00000000003,
      "d": 83.33333333332848,
      "v": 127
    },
    {
      "midi": 47,
      "hit": false,
      "t": 98250.00000000003,
      "d": 166.66666666667152,
      "v": 127
    },
    {
      "midi": 54,
      "hit": false,
      "t": 98250.00000000003,
      "d": 166.66666666667152,
      "v": 127
    },
    {
      "midi": 59,
      "hit": false,
      "t": 98250.00000000003,
      "d": 166.66666666667152,
      "v": 127
    },
    {
      "midi": 50,
      "hit": false,
      "t": 98500.00000000003,
      "d": 333.3333333333285,
      "v": 127
    },
    {
      "midi": 55,
      "hit": false,
      "t": 98500.00000000003,
      "d": 333.3333333333285,
      "v": 127
    },
    {
      "midi": 43,
      "hit": false,
      "t": 98500.00000000003,
      "d": 666.666666666657,
      "v": 127
    },
    {
      "midi": 46,
      "hit": false,
      "t": 99250.00000000001,
      "d": 333.3333333333285,
      "v": 127
    },
    {
      "midi": 53,
      "hit": false,
      "t": 99250.00000000001,
      "d": 333.3333333333285,
      "v": 127
    },
    {
      "midi": 58,
      "hit": false,
      "t": 99250.00000000001,
      "d": 333.3333333333285,
      "v": 127
    },
    {
      "midi": 46,
      "hit": false,
      "t": 99750.00000000001,
      "d": 166.66666666667152,
      "v": 127
    },
    {
      "midi": 53,
      "hit": false,
      "t": 99750.00000000001,
      "d": 166.66666666667152,
      "v": 127
    },
    {
      "midi": 58,
      "hit": false,
      "t": 99750.00000000001,
      "d": 166.66666666667152,
      "v": 127
    },
    {
      "midi": 46,
      "hit": false,
      "t": 100000.00000000001,
      "d": 166.66666666667152,
      "v": 127
    },
    {
      "midi": 53,
      "hit": false,
      "t": 100000.00000000001,
      "d": 166.66666666667152,
      "v": 127
    },
    {
      "midi": 58,
      "hit": false,
      "t": 100000.00000000001,
      "d": 166.66666666667152,
      "v": 127
    },
    {
      "midi": 45,
      "hit": false,
      "t": 100250.00000000001,
      "d": 166.66666666667152,
      "v": 127
    },
    {
      "midi": 52,
      "hit": false,
      "t": 100250.00000000001,
      "d": 166.66666666667152,
      "v": 127
    },
    {
      "midi": 57,
      "hit": false,
      "t": 100250.00000000001,
      "d": 166.66666666667152,
      "v": 127
    },
    {
      "midi": 50,
      "hit": false,
      "t": 100750.00000000001,
      "d": 83.33333333332848,
      "v": 127
    },
    {
      "midi": 57,
      "hit": false,
      "t": 100750.00000000001,
      "d": 83.33333333332848,
      "v": 127
    },
    {
      "midi": 62,
      "hit": false,
      "t": 100750.00000000001,
      "d": 83.33333333332848,
      "v": 127
    },
    {
      "midi": 48,
      "hit": false,
      "t": 101250.00000000001,
      "d": 333.3333333333285,
      "v": 127
    },
    {
      "midi": 55,
      "hit": false,
      "t": 101250.00000000001,
      "d": 333.3333333333285,
      "v": 127
    },
    {
      "midi": 60,
      "hit": false,
      "t": 101250.00000000001,
      "d": 333.3333333333285,
      "v": 127
    },
    {
      "midi": 48,
      "hit": false,
      "t": 102000.00000000001,
      "d": 83.33333333332848,
      "v": 127
    },
    {
      "midi": 55,
      "hit": false,
      "t": 102000.00000000001,
      "d": 83.33333333332848,
      "v": 127
    },
    {
      "midi": 60,
      "hit": false,
      "t": 102000.00000000001,
      "d": 83.33333333332848,
      "v": 127
    },
    {
      "midi": 47,
      "hit": false,
      "t": 102250.00000000001,
      "d": 166.66666666667152,
      "v": 127
    },
    {
      "midi": 54,
      "hit": false,
      "t": 102250.00000000001,
      "d": 166.66666666667152,
      "v": 127
    },
    {
      "midi": 59,
      "hit": false,
      "t": 102250.00000000001,
      "d": 166.66666666667152,
      "v": 127
    },
    {
      "midi": 50,
      "hit": false,
      "t": 102500.00000000001,
      "d": 333.3333333333285,
      "v": 127
    },
    {
      "midi": 55,
      "hit": false,
      "t": 102500.00000000001,
      "d": 333.3333333333285,
      "v": 127
    },
    {
      "midi": 43,
      "hit": false,
      "t": 102500.00000000001,
      "d": 666.666666666657,
      "v": 127
    },
    {
      "midi": 46,
      "hit": false,
      "t": 103250,
      "d": 333.3333333333285,
      "v": 127
    },
    {
      "midi": 53,
      "hit": false,
      "t": 103250,
      "d": 333.3333333333285,
      "v": 127
    },
    {
      "midi": 58,
      "hit": false,
      "t": 103250,
      "d": 333.3333333333285,
      "v": 127
    },
    {
      "midi": 46,
      "hit": false,
      "t": 103750,
      "d": 166.66666666667152,
      "v": 127
    },
    {
      "midi": 53,
      "hit": false,
      "t": 103750,
      "d": 166.66666666667152,
      "v": 127
    },
    {
      "midi": 58,
      "hit": false,
      "t": 103750,
      "d": 166.66666666667152,
      "v": 127
    },
    {
      "midi": 46,
      "hit": false,
      "t": 104000,
      "d": 166.66666666667152,
      "v": 127
    },
    {
      "midi": 53,
      "hit": false,
      "t": 104000,
      "d": 166.66666666667152,
      "v": 127
    },
    {
      "midi": 58,
      "hit": false,
      "t": 104000,
      "d": 166.66666666667152,
      "v": 127
    },
    {
      "midi": 45,
      "hit": false,
      "t": 104250,
      "d": 166.66666666667152,
      "v": 127
    },
    {
      "midi": 52,
      "hit": false,
      "t": 104250,
      "d": 166.66666666667152,
      "v": 127
    },
    {
      "midi": 57,
      "hit": false,
      "t": 104250,
      "d": 166.66666666667152,
      "v": 127
    },
    {
      "midi": 50,
      "hit": false,
      "t": 104750,
      "d": 83.33333333332848,
      "v": 127
    },
    {
      "midi": 57,
      "hit": false,
      "t": 104750,
      "d": 83.33333333332848,
      "v": 127
    },
    {
      "midi": 62,
      "hit": false,
      "t": 104750,
      "d": 83.33333333332848,
      "v": 127
    },
    {
      "midi": 48,
      "hit": false,
      "t": 105250,
      "d": 333.3333333333285,
      "v": 127
    },
    {
      "midi": 55,
      "hit": false,
      "t": 105250,
      "d": 333.3333333333285,
      "v": 127
    },
    {
      "midi": 60,
      "hit": false,
      "t": 105250,
      "d": 333.3333333333285,
      "v": 127
    },
    {
      "midi": 48,
      "hit": false,
      "t": 106000,
      "d": 83.33333333332848,
      "v": 127
    },
    {
      "midi": 55,
      "hit": false,
      "t": 106000,
      "d": 83.33333333332848,
      "v": 127
    },
    {
      "midi": 60,
      "hit": false,
      "t": 106000,
      "d": 83.33333333332848,
      "v": 127
    },
    {
      "midi": 47,
      "hit": false,
      "t": 106250,
      "d": 166.66666666667152,
      "v": 127
    },
    {
      "midi": 54,
      "hit": false,
      "t": 106250,
      "d": 166.66666666667152,
      "v": 127
    },
    {
      "midi": 59,
      "hit": false,
      "t": 106250,
      "d": 166.66666666667152,
      "v": 127
    },
    {
      "midi": 50,
      "hit": false,
      "t": 106500,
      "d": 333.3333333333285,
      "v": 127
    },
    {
      "midi": 55,
      "hit": false,
      "t": 106500,
      "d": 333.3333333333285,
      "v": 127
    },
    {
      "midi": 43,
      "hit": false,
      "t": 106500,
      "d": 666.666666666657,
      "v": 127
    },
    {
      "midi": 46,
      "hit": false,
      "t": 107249.99999999999,
      "d": 333.3333333333285,
      "v": 127
    },
    {
      "midi": 53,
      "hit": false,
      "t": 107249.99999999999,
      "d": 333.3333333333285,
      "v": 127
    },
    {
      "midi": 58,
      "hit": false,
      "t": 107249.99999999999,
      "d": 333.3333333333285,
      "v": 127
    },
    {
      "midi": 46,
      "hit": false,
      "t": 107749.99999999999,
      "d": 166.66666666667152,
      "v": 127
    },
    {
      "midi": 53,
      "hit": false,
      "t": 107749.99999999999,
      "d": 166.66666666667152,
      "v": 127
    },
    {
      "midi": 58,
      "hit": false,
      "t": 107749.99999999999,
      "d": 166.66666666667152,
      "v": 127
    },
    {
      "midi": 46,
      "hit": false,
      "t": 107999.99999999999,
      "d": 166.66666666667152,
      "v": 127
    },
    {
      "midi": 53,
      "hit": false,
      "t": 107999.99999999999,
      "d": 166.66666666667152,
      "v": 127
    },
    {
      "midi": 58,
      "hit": false,
      "t": 107999.99999999999,
      "d": 166.66666666667152,
      "v": 127
    },
    {
      "midi": 45,
      "hit": false,
      "t": 108249.99999999999,
      "d": 166.66666666667152,
      "v": 127
    },
    {
      "midi": 52,
      "hit": false,
      "t": 108249.99999999999,
      "d": 166.66666666667152,
      "v": 127
    },
    {
      "midi": 57,
      "hit": false,
      "t": 108249.99999999999,
      "d": 166.66666666667152,
      "v": 127
    },
    {
      "midi": 50,
      "hit": false,
      "t": 108749.99999999999,
      "d": 83.33333333332848,
      "v": 127
    },
    {
      "midi": 57,
      "hit": false,
      "t": 108749.99999999999,
      "d": 83.33333333332848,
      "v": 127
    },
    {
      "midi": 62,
      "hit": false,
      "t": 108749.99999999999,
      "d": 83.33333333332848,
      "v": 127
    },
    {
      "midi": 48,
      "hit": false,
      "t": 109249.99999999999,
      "d": 333.3333333333285,
      "v": 127
    },
    {
      "midi": 55,
      "hit": false,
      "t": 109249.99999999999,
      "d": 333.3333333333285,
      "v": 127
    },
    {
      "midi": 60,
      "hit": false,
      "t": 109249.99999999999,
      "d": 333.3333333333285,
      "v": 127
    },
    {
      "midi": 48,
      "hit": false,
      "t": 109999.99999999999,
      "d": 83.33333333332848,
      "v": 127
    },
    {
      "midi": 55,
      "hit": false,
      "t": 109999.99999999999,
      "d": 83.33333333332848,
      "v": 127
    },
    {
      "midi": 60,
      "hit": false,
      "t": 109999.99999999999,
      "d": 83.33333333332848,
      "v": 127
    },
    {
      "midi": 47,
      "hit": false,
      "t": 110249.99999999999,
      "d": 166.66666666667152,
      "v": 127
    },
    {
      "midi": 54,
      "hit": false,
      "t": 110249.99999999999,
      "d": 166.66666666667152,
      "v": 127
    },
    {
      "midi": 59,
      "hit": false,
      "t": 110249.99999999999,
      "d": 166.66666666667152,
      "v": 127
    },
    {
      "midi": 50,
      "hit": false,
      "t": 110499.99999999999,
      "d": 333.3333333333285,
      "v": 127
    },
    {
      "midi": 55,
      "hit": false,
      "t": 110499.99999999999,
      "d": 333.3333333333285,
      "v": 127
    },
    {
      "midi": 43,
      "hit": false,
      "t": 110499.99999999999,
      "d": 666.666666666657,
      "v": 127
    },
    {
      "midi": 46,
      "hit": false,
      "t": 111249.99999999997,
      "d": 333.3333333333285,
      "v": 127
    },
    {
      "midi": 53,
      "hit": false,
      "t": 111249.99999999997,
      "d": 333.3333333333285,
      "v": 127
    },
    {
      "midi": 58,
      "hit": false,
      "t": 111249.99999999997,
      "d": 333.3333333333285,
      "v": 127
    },
    {
      "midi": 46,
      "hit": false,
      "t": 111749.99999999997,
      "d": 166.66666666667152,
      "v": 127
    },
    {
      "midi": 53,
      "hit": false,
      "t": 111749.99999999997,
      "d": 166.66666666667152,
      "v": 127
    },
    {
      "midi": 58,
      "hit": false,
      "t": 111749.99999999997,
      "d": 166.66666666667152,
      "v": 127
    },
    {
      "midi": 46,
      "hit": false,
      "t": 111999.99999999997,
      "d": 166.66666666667152,
      "v": 127
    },
    {
      "midi": 53,
      "hit": false,
      "t": 111999.99999999997,
      "d": 166.66666666667152,
      "v": 127
    },
    {
      "midi": 58,
      "hit": false,
      "t": 111999.99999999997,
      "d": 166.66666666667152,
      "v": 127
    },
    {
      "midi": 45,
      "hit": false,
      "t": 112249.99999999997,
      "d": 166.66666666667152,
      "v": 127
    },
    {
      "midi": 52,
      "hit": false,
      "t": 112249.99999999997,
      "d": 166.66666666667152,
      "v": 127
    },
    {
      "midi": 57,
      "hit": false,
      "t": 112249.99999999997,
      "d": 166.66666666667152,
      "v": 127
    },
    {
      "midi": 50,
      "hit": false,
      "t": 112749.99999999997,
      "d": 83.33333333332848,
      "v": 127
    },
    {
      "midi": 57,
      "hit": false,
      "t": 112749.99999999997,
      "d": 83.33333333332848,
      "v": 127
    },
    {
      "midi": 62,
      "hit": false,
      "t": 112749.99999999997,
      "d": 83.33333333332848,
      "v": 127
    },
    {
      "midi": 48,
      "hit": false,
      "t": 113249.99999999997,
      "d": 333.3333333333285,
      "v": 127
    },
    {
      "midi": 55,
      "hit": false,
      "t": 113249.99999999997,
      "d": 333.3333333333285,
      "v": 127
    },
    {
      "midi": 60,
      "hit": false,
      "t": 113249.99999999997,
      "d": 333.3333333333285,
      "v": 127
    },
    {
      "midi": 48,
      "hit": false,
      "t": 113999.99999999997,
      "d": 83.33333333332848,
      "v": 127
    },
    {
      "midi": 55,
      "hit": false,
      "t": 113999.99999999997,
      "d": 83.33333333332848,
      "v": 127
    },
    {
      "midi": 60,
      "hit": false,
      "t": 113999.99999999997,
      "d": 83.33333333332848,
      "v": 127
    },
    {
      "midi": 47,
      "hit": false,
      "t": 114249.99999999997,
      "d": 166.66666666667152,
      "v": 127
    },
    {
      "midi": 54,
      "hit": false,
      "t": 114249.99999999997,
      "d": 166.66666666667152,
      "v": 127
    },
    {
      "midi": 59,
      "hit": false,
      "t": 114249.99999999997,
      "d": 166.66666666667152,
      "v": 127
    },
    {
      "midi": 50,
      "hit": false,
      "t": 114499.99999999997,
      "d": 333.3333333333285,
      "v": 127
    },
    {
      "midi": 55,
      "hit": false,
      "t": 114499.99999999997,
      "d": 333.3333333333285,
      "v": 127
    },
    {
      "midi": 43,
      "hit": false,
      "t": 114499.99999999997,
      "d": 666.666666666657,
      "v": 127
    },
    {
      "midi": 46,
      "hit": false,
      "t": 115249.99999999996,
      "d": 333.3333333333285,
      "v": 127
    },
    {
      "midi": 53,
      "hit": false,
      "t": 115249.99999999996,
      "d": 333.3333333333285,
      "v": 127
    },
    {
      "midi": 58,
      "hit": false,
      "t": 115249.99999999996,
      "d": 333.3333333333285,
      "v": 127
    },
    {
      "midi": 46,
      "hit": false,
      "t": 115749.99999999996,
      "d": 166.66666666667152,
      "v": 127
    },
    {
      "midi": 53,
      "hit": false,
      "t": 115749.99999999996,
      "d": 166.66666666667152,
      "v": 127
    },
    {
      "midi": 58,
      "hit": false,
      "t": 115749.99999999996,
      "d": 166.66666666667152,
      "v": 127
    },
    {
      "midi": 46,
      "hit": false,
      "t": 115999.99999999996,
      "d": 166.66666666667152,
      "v": 127
    },
    {
      "midi": 53,
      "hit": false,
      "t": 115999.99999999996,
      "d": 166.66666666667152,
      "v": 127
    },
    {
      "midi": 58,
      "hit": false,
      "t": 115999.99999999996,
      "d": 166.66666666667152,
      "v": 127
    },
    {
      "midi": 45,
      "hit": false,
      "t": 116249.99999999996,
      "d": 166.66666666667152,
      "v": 127
    },
    {
      "midi": 52,
      "hit": false,
      "t": 116249.99999999996,
      "d": 166.66666666667152,
      "v": 127
    },
    {
      "midi": 57,
      "hit": false,
      "t": 116249.99999999996,
      "d": 166.66666666667152,
      "v": 127
    },
    {
      "midi": 50,
      "hit": false,
      "t": 116749.99999999996,
      "d": 83.33333333332848,
      "v": 127
    },
    {
      "midi": 57,
      "hit": false,
      "t": 116749.99999999996,
      "d": 83.33333333332848,
      "v": 127
    },
    {
      "midi": 62,
      "hit": false,
      "t": 116749.99999999996,
      "d": 83.33333333332848,
      "v": 127
    },
    {
      "midi": 48,
      "hit": false,
      "t": 117249.99999999996,
      "d": 333.3333333333285,
      "v": 127
    },
    {
      "midi": 55,
      "hit": false,
      "t": 117249.99999999996,
      "d": 333.3333333333285,
      "v": 127
    },
    {
      "midi": 60,
      "hit": false,
      "t": 117249.99999999996,
      "d": 333.3333333333285,
      "v": 127
    },
    {
      "midi": 48,
      "hit": false,
      "t": 117999.99999999996,
      "d": 83.33333333332848,
      "v": 127
    },
    {
      "midi": 55,
      "hit": false,
      "t": 117999.99999999996,
      "d": 83.33333333332848,
      "v": 127
    },
    {
      "midi": 60,
      "hit": false,
      "t": 117999.99999999996,
      "d": 83.33333333332848,
      "v": 127
    },
    {
      "midi": 47,
      "hit": false,
      "t": 118249.99999999996,
      "d": 166.66666666667152,
      "v": 127
    },
    {
      "midi": 54,
      "hit": false,
      "t": 118249.99999999996,
      "d": 166.66666666667152,
      "v": 127
    },
    {
      "midi": 59,
      "hit": false,
      "t": 118249.99999999996,
      "d": 166.66666666667152,
      "v": 127
    },
    {
      "midi": 50,
      "hit": false,
      "t": 118499.99999999996,
      "d": 333.3333333333285,
      "v": 127
    },
    {
      "midi": 55,
      "hit": false,
      "t": 118499.99999999996,
      "d": 333.3333333333285,
      "v": 127
    },
    {
      "midi": 43,
      "hit": false,
      "t": 118499.99999999996,
      "d": 666.666666666657,
      "v": 127
    },
    {
      "midi": 46,
      "hit": false,
      "t": 119249.99999999994,
      "d": 333.3333333333285,
      "v": 127
    },
    {
      "midi": 53,
      "hit": false,
      "t": 119249.99999999994,
      "d": 333.3333333333285,
      "v": 127
    },
    {
      "midi": 58,
      "hit": false,
      "t": 119249.99999999994,
      "d": 333.3333333333285,
      "v": 127
    },
    {
      "midi": 46,
      "hit": false,
      "t": 119749.99999999994,
      "d": 166.66666666667152,
      "v": 127
    },
    {
      "midi": 53,
      "hit": false,
      "t": 119749.99999999994,
      "d": 166.66666666667152,
      "v": 127
    },
    {
      "midi": 58,
      "hit": false,
      "t": 119749.99999999994,
      "d": 166.66666666667152,
      "v": 127
    },
    {
      "midi": 46,
      "hit": false,
      "t": 119999.99999999994,
      "d": 166.66666666667152,
      "v": 127
    },
    {
      "midi": 53,
      "hit": false,
      "t": 119999.99999999994,
      "d": 166.66666666667152,
      "v": 127
    },
    {
      "midi": 58,
      "hit": false,
      "t": 119999.99999999994,
      "d": 166.66666666667152,
      "v": 127
    },
    {
      "midi": 45,
      "hit": false,
      "t": 120249.99999999994,
      "d": 166.66666666667152,
      "v": 127
    },
    {
      "midi": 52,
      "hit": false,
      "t": 120249.99999999994,
      "d": 166.66666666667152,
      "v": 127
    },
    {
      "midi": 57,
      "hit": false,
      "t": 120249.99999999994,
      "d": 166.66666666667152,
      "v": 127
    },
    {
      "midi": 40,
      "hit": false,
      "t": 120499.99999999994,
      "d": 333.3333333333285,
      "v": 127
    },
    {
      "midi": 40,
      "hit": false,
      "t": 121249.99999999994,
      "d": 166.66666666667152,
      "v": 127
    },
    {
      "midi": 43,
      "hit": false,
      "t": 121499.99999999994,
      "d": 166.66666666667152,
      "v": 127
    },
    {
      "midi": 43,
      "hit": false,
      "t": 121749.99999999994,
      "d": 166.66666666667152,
      "v": 127
    },
    {
      "midi": 43,
      "hit": false,
      "t": 122249.99999999994,
      "d": 166.66666666667152,
      "v": 127
    },
    {
      "midi": 50,
      "hit": false,
      "t": 122499.99999999994,
      "d": 166.66666666667152,
      "v": 127
    },
    {
      "midi": 50,
      "hit": false,
      "t": 122749.99999999994,
      "d": 166.66666666667152,
      "v": 127
    },
    {
      "midi": 48,
      "hit": false,
      "t": 123249.99999999994,
      "d": 166.66666666667152,
      "v": 127
    },
    {
      "midi": 48,
      "hit": false,
      "t": 123749.99999999994,
      "d": 166.66666666667152,
      "v": 127
    },
    {
      "midi": 48,
      "hit": false,
      "t": 123999.99999999994,
      "d": 166.66666666667152,
      "v": 127
    },
    {
      "midi": 47,
      "hit": false,
      "t": 124249.99999999994,
      "d": 166.66666666667152,
      "v": 127
    },
    {
      "midi": 40,
      "hit": false,
      "t": 124499.99999999994,
      "d": 333.3333333333285,
      "v": 127
    },
    {
      "midi": 40,
      "hit": false,
      "t": 125249.99999999994,
      "d": 166.66666666667152,
      "v": 127
    },
    {
      "midi": 43,
      "hit": false,
      "t": 125499.99999999994,
      "d": 166.66666666667152,
      "v": 127
    },
    {
      "midi": 43,
      "hit": false,
      "t": 125749.99999999994,
      "d": 166.66666666667152,
      "v": 127
    },
    {
      "midi": 43,
      "hit": false,
      "t": 126249.99999999994,
      "d": 166.66666666667152,
      "v": 127
    },
    {
      "midi": 50,
      "hit": false,
      "t": 126499.99999999994,
      "d": 166.66666666667152,
      "v": 127
    },
    {
      "midi": 50,
      "hit": false,
      "t": 126749.99999999994,
      "d": 166.66666666667152,
      "v": 127
    },
    {
      "midi": 48,
      "hit": false,
      "t": 127249.99999999994,
      "d": 166.66666666667152,
      "v": 127
    },
    {
      "midi": 48,
      "hit": false,
      "t": 127749.99999999994,
      "d": 166.66666666667152,
      "v": 127
    },
    {
      "midi": 48,
      "hit": false,
      "t": 127999.99999999994,
      "d": 166.66666666667152,
      "v": 127
    },
    {
      "midi": 47,
      "hit": false,
      "t": 128249.99999999994,
      "d": 166.66666666667152,
      "v": 127
    },
    {
      "midi": 40,
      "hit": false,
      "t": 128499.99999999994,
      "d": 333.3333333333285,
      "v": 127
    },
    {
      "midi": 47,
      "hit": false,
      "t": 128499.99999999994,
      "d": 333.3333333333285,
      "v": 127
    },
    {
      "midi": 47,
      "hit": false,
      "t": 128999.99999999994,
      "d": 166.66666666667152,
      "v": 127
    },
    {
      "midi": 52,
      "hit": false,
      "t": 128999.99999999994,
      "d": 166.66666666667152,
      "v": 127
    },
    {
      "midi": 40,
      "hit": false,
      "t": 129249.99999999994,
      "d": 166.66666666667152,
      "v": 127
    },
    {
      "midi": 47,
      "hit": false,
      "t": 129249.99999999994,
      "d": 166.66666666667152,
      "v": 127
    },
    {
      "midi": 43,
      "hit": false,
      "t": 129499.99999999994,
      "d": 166.66666666667152,
      "v": 127
    },
    {
      "midi": 50,
      "hit": false,
      "t": 129499.99999999994,
      "d": 166.66666666667152,
      "v": 127
    },
    {
      "midi": 50,
      "hit": false,
      "t": 129749.99999999994,
      "d": 166.66666666667152,
      "v": 127
    },
    {
      "midi": 55,
      "hit": false,
      "t": 129749.99999999994,
      "d": 166.66666666667152,
      "v": 127
    },
    {
      "midi": 50,
      "hit": false,
      "t": 129999.99999999994,
      "d": 166.66666666667152,
      "v": 127
    },
    {
      "midi": 43,
      "hit": false,
      "t": 130249.99999999994,
      "d": 166.66666666667152,
      "v": 127
    },
    {
      "midi": 50,
      "hit": false,
      "t": 130499.99999999994,
      "d": 166.66666666667152,
      "v": 127
    },
    {
      "midi": 57,
      "hit": false,
      "t": 130499.99999999994,
      "d": 166.66666666667152,
      "v": 127
    },
    {
      "midi": 57,
      "hit": false,
      "t": 130749.99999999994,
      "d": 166.66666666667152,
      "v": 127
    },
    {
      "midi": 62,
      "hit": false,
      "t": 130749.99999999994,
      "d": 166.66666666667152,
      "v": 127
    },
    {
      "midi": 57,
      "hit": false,
      "t": 130999.99999999994,
      "d": 166.66666666665697,
      "v": 127
    },
    {
      "midi": 48,
      "hit": false,
      "t": 131249.99999999994,
      "d": 333.33333333334303,
      "v": 127
    },
    {
      "midi": 55,
      "hit": false,
      "t": 131249.99999999994,
      "d": 333.33333333334303,
      "v": 127
    },
    {
      "midi": 60,
      "hit": false,
      "t": 131249.99999999994,
      "d": 333.33333333334303,
      "v": 127
    },
    {
      "midi": 48,
      "hit": false,
      "t": 131749.99999999994,
      "d": 166.66666666665697,
      "v": 127
    },
    {
      "midi": 55,
      "hit": false,
      "t": 131749.99999999994,
      "d": 166.66666666665697,
      "v": 127
    },
    {
      "midi": 60,
      "hit": false,
      "t": 131749.99999999994,
      "d": 166.66666666665697,
      "v": 127
    },
    {
      "midi": 48,
      "hit": false,
      "t": 131999.99999999994,
      "d": 166.66666666665697,
      "v": 127
    },
    {
      "midi": 64,
      "hit": false,
      "t": 131999.99999999994,
      "d": 166.66666666665697,
      "v": 127
    },
    {
      "midi": 45,
      "hit": false,
      "t": 132249.99999999994,
      "d": 166.66666666665697,
      "v": 127
    },
    {
      "midi": 52,
      "hit": false,
      "t": 132249.99999999994,
      "d": 166.66666666665697,
      "v": 127
    },
    {
      "midi": 40,
      "hit": false,
      "t": 132499.99999999994,
      "d": 333.33333333334303,
      "v": 127
    },
    {
      "midi": 47,
      "hit": false,
      "t": 132499.99999999994,
      "d": 333.33333333334303,
      "v": 127
    },
    {
      "midi": 47,
      "hit": false,
      "t": 132999.99999999994,
      "d": 166.66666666665697,
      "v": 127
    },
    {
      "midi": 52,
      "hit": false,
      "t": 132999.99999999994,
      "d": 166.66666666665697,
      "v": 127
    },
    {
      "midi": 40,
      "hit": false,
      "t": 133249.99999999994,
      "d": 166.66666666665697,
      "v": 127
    },
    {
      "midi": 47,
      "hit": false,
      "t": 133249.99999999994,
      "d": 166.66666666665697,
      "v": 127
    },
    {
      "midi": 43,
      "hit": false,
      "t": 133499.99999999994,
      "d": 166.66666666665697,
      "v": 127
    },
    {
      "midi": 50,
      "hit": false,
      "t": 133499.99999999994,
      "d": 166.66666666665697,
      "v": 127
    },
    {
      "midi": 50,
      "hit": false,
      "t": 133749.99999999994,
      "d": 166.66666666665697,
      "v": 127
    },
    {
      "midi": 55,
      "hit": false,
      "t": 133749.99999999994,
      "d": 166.66666666665697,
      "v": 127
    },
    {
      "midi": 50,
      "hit": false,
      "t": 133999.99999999994,
      "d": 166.66666666665697,
      "v": 127
    },
    {
      "midi": 43,
      "hit": false,
      "t": 134249.99999999994,
      "d": 166.66666666665697,
      "v": 127
    },
    {
      "midi": 50,
      "hit": false,
      "t": 134499.99999999994,
      "d": 166.66666666665697,
      "v": 127
    },
    {
      "midi": 57,
      "hit": false,
      "t": 134499.99999999994,
      "d": 166.66666666665697,
      "v": 127
    },
    {
      "midi": 57,
      "hit": false,
      "t": 134749.99999999994,
      "d": 166.66666666665697,
      "v": 127
    },
    {
      "midi": 62,
      "hit": false,
      "t": 134749.99999999994,
      "d": 166.66666666665697,
      "v": 127
    },
    {
      "midi": 57,
      "hit": false,
      "t": 134999.99999999994,
      "d": 166.66666666665697,
      "v": 127
    },
    {
      "midi": 48,
      "hit": false,
      "t": 135249.99999999994,
      "d": 333.33333333334303,
      "v": 127
    },
    {
      "midi": 55,
      "hit": false,
      "t": 135249.99999999994,
      "d": 333.33333333334303,
      "v": 127
    },
    {
      "midi": 60,
      "hit": false,
      "t": 135249.99999999994,
      "d": 333.33333333334303,
      "v": 127
    },
    {
      "midi": 48,
      "hit": false,
      "t": 135749.99999999994,
      "d": 166.66666666665697,
      "v": 127
    },
    {
      "midi": 55,
      "hit": false,
      "t": 135749.99999999994,
      "d": 166.66666666665697,
      "v": 127
    },
    {
      "midi": 60,
      "hit": false,
      "t": 135749.99999999994,
      "d": 166.66666666665697,
      "v": 127
    },
    {
      "midi": 48,
      "hit": false,
      "t": 135999.99999999994,
      "d": 166.66666666665697,
      "v": 127
    },
    {
      "midi": 64,
      "hit": false,
      "t": 135999.99999999994,
      "d": 166.66666666665697,
      "v": 127
    },
    {
      "midi": 45,
      "hit": false,
      "t": 136249.99999999994,
      "d": 166.66666666665697,
      "v": 127
    },
    {
      "midi": 52,
      "hit": false,
      "t": 136249.99999999994,
      "d": 166.66666666665697,
      "v": 127
    },
    {
      "midi": 40,
      "hit": false,
      "t": 136499.99999999994,
      "d": 333.33333333334303,
      "v": 127
    },
    {
      "midi": 47,
      "hit": false,
      "t": 136499.99999999994,
      "d": 333.33333333334303,
      "v": 127
    },
    {
      "midi": 47,
      "hit": false,
      "t": 136999.99999999994,
      "d": 166.66666666665697,
      "v": 127
    },
    {
      "midi": 52,
      "hit": false,
      "t": 136999.99999999994,
      "d": 166.66666666665697,
      "v": 127
    },
    {
      "midi": 40,
      "hit": false,
      "t": 137249.99999999994,
      "d": 166.66666666665697,
      "v": 127
    },
    {
      "midi": 47,
      "hit": false,
      "t": 137249.99999999994,
      "d": 166.66666666665697,
      "v": 127
    },
    {
      "midi": 43,
      "hit": false,
      "t": 137499.99999999994,
      "d": 166.66666666665697,
      "v": 127
    },
    {
      "midi": 50,
      "hit": false,
      "t": 137499.99999999994,
      "d": 166.66666666665697,
      "v": 127
    },
    {
      "midi": 50,
      "hit": false,
      "t": 137749.99999999994,
      "d": 166.66666666665697,
      "v": 127
    },
    {
      "midi": 55,
      "hit": false,
      "t": 137749.99999999994,
      "d": 166.66666666665697,
      "v": 127
    },
    {
      "midi": 50,
      "hit": false,
      "t": 137999.99999999994,
      "d": 166.66666666665697,
      "v": 127
    },
    {
      "midi": 43,
      "hit": false,
      "t": 138249.99999999994,
      "d": 166.66666666665697,
      "v": 127
    },
    {
      "midi": 50,
      "hit": false,
      "t": 138499.99999999994,
      "d": 166.66666666665697,
      "v": 127
    },
    {
      "midi": 57,
      "hit": false,
      "t": 138499.99999999994,
      "d": 166.66666666665697,
      "v": 127
    },
    {
      "midi": 57,
      "hit": false,
      "t": 138749.99999999994,
      "d": 166.66666666665697,
      "v": 127
    },
    {
      "midi": 62,
      "hit": false,
      "t": 138749.99999999994,
      "d": 166.66666666665697,
      "v": 127
    },
    {
      "midi": 57,
      "hit": false,
      "t": 138999.99999999994,
      "d": 166.66666666665697,
      "v": 127
    },
    {
      "midi": 48,
      "hit": false,
      "t": 139249.99999999994,
      "d": 333.33333333334303,
      "v": 127
    },
    {
      "midi": 55,
      "hit": false,
      "t": 139249.99999999994,
      "d": 333.33333333334303,
      "v": 127
    },
    {
      "midi": 60,
      "hit": false,
      "t": 139249.99999999994,
      "d": 333.33333333334303,
      "v": 127
    },
    {
      "midi": 48,
      "hit": false,
      "t": 139749.99999999994,
      "d": 166.66666666665697,
      "v": 127
    },
    {
      "midi": 55,
      "hit": false,
      "t": 139749.99999999994,
      "d": 166.66666666665697,
      "v": 127
    },
    {
      "midi": 60,
      "hit": false,
      "t": 139749.99999999994,
      "d": 166.66666666665697,
      "v": 127
    },
    {
      "midi": 48,
      "hit": false,
      "t": 139999.99999999994,
      "d": 166.66666666665697,
      "v": 127
    },
    {
      "midi": 64,
      "hit": false,
      "t": 139999.99999999994,
      "d": 166.66666666665697,
      "v": 127
    },
    {
      "midi": 45,
      "hit": false,
      "t": 140249.99999999994,
      "d": 166.66666666665697,
      "v": 127
    },
    {
      "midi": 52,
      "hit": false,
      "t": 140249.99999999994,
      "d": 166.66666666665697,
      "v": 127
    },
    {
      "midi": 40,
      "hit": false,
      "t": 140499.99999999994,
      "d": 333.33333333334303,
      "v": 127
    },
    {
      "midi": 47,
      "hit": false,
      "t": 140499.99999999994,
      "d": 333.33333333334303,
      "v": 127
    },
    {
      "midi": 47,
      "hit": false,
      "t": 140999.99999999994,
      "d": 166.66666666665697,
      "v": 127
    },
    {
      "midi": 52,
      "hit": false,
      "t": 140999.99999999994,
      "d": 166.66666666665697,
      "v": 127
    },
    {
      "midi": 40,
      "hit": false,
      "t": 141249.99999999994,
      "d": 166.66666666665697,
      "v": 127
    },
    {
      "midi": 47,
      "hit": false,
      "t": 141249.99999999994,
      "d": 166.66666666665697,
      "v": 127
    },
    {
      "midi": 43,
      "hit": false,
      "t": 141499.99999999994,
      "d": 166.66666666665697,
      "v": 127
    },
    {
      "midi": 50,
      "hit": false,
      "t": 141499.99999999994,
      "d": 166.66666666665697,
      "v": 127
    },
    {
      "midi": 50,
      "hit": false,
      "t": 141749.99999999994,
      "d": 166.66666666665697,
      "v": 127
    },
    {
      "midi": 55,
      "hit": false,
      "t": 141749.99999999994,
      "d": 166.66666666665697,
      "v": 127
    },
    {
      "midi": 50,
      "hit": false,
      "t": 141999.99999999994,
      "d": 166.66666666665697,
      "v": 127
    },
    {
      "midi": 43,
      "hit": false,
      "t": 142249.99999999994,
      "d": 166.66666666665697,
      "v": 127
    },
    {
      "midi": 50,
      "hit": false,
      "t": 142499.99999999994,
      "d": 166.66666666665697,
      "v": 127
    },
    {
      "midi": 57,
      "hit": false,
      "t": 142499.99999999994,
      "d": 166.66666666665697,
      "v": 127
    },
    {
      "midi": 57,
      "hit": false,
      "t": 142749.99999999994,
      "d": 166.66666666665697,
      "v": 127
    },
    {
      "midi": 62,
      "hit": false,
      "t": 142749.99999999994,
      "d": 166.66666666665697,
      "v": 127
    },
    {
      "midi": 57,
      "hit": false,
      "t": 142999.99999999994,
      "d": 166.66666666665697,
      "v": 127
    },
    {
      "midi": 48,
      "hit": false,
      "t": 143249.99999999994,
      "d": 333.33333333334303,
      "v": 127
    },
    {
      "midi": 55,
      "hit": false,
      "t": 143249.99999999994,
      "d": 333.33333333334303,
      "v": 127
    },
    {
      "midi": 60,
      "hit": false,
      "t": 143249.99999999994,
      "d": 333.33333333334303,
      "v": 127
    },
    {
      "midi": 48,
      "hit": false,
      "t": 143749.99999999994,
      "d": 166.66666666665697,
      "v": 127
    },
    {
      "midi": 55,
      "hit": false,
      "t": 143749.99999999994,
      "d": 166.66666666665697,
      "v": 127
    },
    {
      "midi": 60,
      "hit": false,
      "t": 143749.99999999994,
      "d": 166.66666666665697,
      "v": 127
    },
    {
      "midi": 48,
      "hit": false,
      "t": 143999.99999999994,
      "d": 166.66666666665697,
      "v": 127
    },
    {
      "midi": 64,
      "hit": false,
      "t": 143999.99999999994,
      "d": 166.66666666665697,
      "v": 127
    },
    {
      "midi": 45,
      "hit": false,
      "t": 144249.99999999994,
      "d": 166.66666666665697,
      "v": 127
    },
    {
      "midi": 52,
      "hit": false,
      "t": 144249.99999999994,
      "d": 166.66666666665697,
      "v": 127
    },
    {
      "midi": 57,
      "hit": false,
      "t": 144499.99999999994,
      "d": 500,
      "v": 127
    },
    {
      "midi": 62,
      "hit": false,
      "t": 144499.99999999994,
      "d": 500,
      "v": 127
    },
    {
      "midi": 50,
      "hit": false,
      "t": 144499.99999999994,
      "d": 666.666666666657,
      "v": 127
    },
    {
      "midi": 48,
      "hit": false,
      "t": 145249.99999999994,
      "d": 333.33333333334303,
      "v": 127
    },
    {
      "midi": 55,
      "hit": false,
      "t": 145249.99999999994,
      "d": 333.33333333334303,
      "v": 127
    },
    {
      "midi": 60,
      "hit": false,
      "t": 145249.99999999994,
      "d": 333.33333333334303,
      "v": 127
    },
    {
      "midi": 48,
      "hit": false,
      "t": 145749.99999999994,
      "d": 166.66666666665697,
      "v": 127
    },
    {
      "midi": 55,
      "hit": false,
      "t": 145749.99999999994,
      "d": 166.66666666665697,
      "v": 127
    },
    {
      "midi": 60,
      "hit": false,
      "t": 145749.99999999994,
      "d": 166.66666666665697,
      "v": 127
    },
    {
      "midi": 48,
      "hit": false,
      "t": 145999.99999999994,
      "d": 166.66666666665697,
      "v": 127
    },
    {
      "midi": 55,
      "hit": false,
      "t": 145999.99999999994,
      "d": 166.66666666665697,
      "v": 127
    },
    {
      "midi": 60,
      "hit": false,
      "t": 145999.99999999994,
      "d": 166.66666666665697,
      "v": 127
    },
    {
      "midi": 47,
      "hit": false,
      "t": 146249.99999999994,
      "d": 166.66666666665697,
      "v": 127
    },
    {
      "midi": 54,
      "hit": false,
      "t": 146249.99999999994,
      "d": 166.66666666665697,
      "v": 127
    },
    {
      "midi": 59,
      "hit": false,
      "t": 146249.99999999994,
      "d": 166.66666666665697,
      "v": 127
    },
    {
      "midi": 50,
      "hit": false,
      "t": 146499.99999999994,
      "d": 333.33333333334303,
      "v": 127
    },
    {
      "midi": 55,
      "hit": false,
      "t": 146499.99999999994,
      "d": 333.33333333334303,
      "v": 127
    },
    {
      "midi": 43,
      "hit": false,
      "t": 146499.99999999994,
      "d": 666.6666666666861,
      "v": 127
    },
    {
      "midi": 46,
      "hit": false,
      "t": 147249.99999999997,
      "d": 333.33333333334303,
      "v": 127
    },
    {
      "midi": 53,
      "hit": false,
      "t": 147249.99999999997,
      "d": 333.33333333334303,
      "v": 127
    },
    {
      "midi": 58,
      "hit": false,
      "t": 147249.99999999997,
      "d": 333.33333333334303,
      "v": 127
    },
    {
      "midi": 46,
      "hit": false,
      "t": 147749.99999999997,
      "d": 166.66666666665697,
      "v": 127
    },
    {
      "midi": 53,
      "hit": false,
      "t": 147749.99999999997,
      "d": 166.66666666665697,
      "v": 127
    },
    {
      "midi": 58,
      "hit": false,
      "t": 147749.99999999997,
      "d": 166.66666666665697,
      "v": 127
    },
    {
      "midi": 46,
      "hit": false,
      "t": 147999.99999999997,
      "d": 166.66666666665697,
      "v": 127
    },
    {
      "midi": 53,
      "hit": false,
      "t": 147999.99999999997,
      "d": 166.66666666665697,
      "v": 127
    },
    {
      "midi": 58,
      "hit": false,
      "t": 147999.99999999997,
      "d": 166.66666666665697,
      "v": 127
    },
    {
      "midi": 45,
      "hit": false,
      "t": 148249.99999999997,
      "d": 166.66666666665697,
      "v": 127
    },
    {
      "midi": 52,
      "hit": false,
      "t": 148249.99999999997,
      "d": 166.66666666665697,
      "v": 127
    },
    {
      "midi": 57,
      "hit": false,
      "t": 148249.99999999997,
      "d": 166.66666666665697,
      "v": 127
    },
    {
      "midi": 50,
      "hit": false,
      "t": 148749.99999999997,
      "d": 83.33333333334303,
      "v": 127
    },
    {
      "midi": 57,
      "hit": false,
      "t": 148749.99999999997,
      "d": 83.33333333334303,
      "v": 127
    },
    {
      "midi": 62,
      "hit": false,
      "t": 148749.99999999997,
      "d": 83.33333333334303,
      "v": 127
    },
    {
      "midi": 48,
      "hit": false,
      "t": 149249.99999999997,
      "d": 333.33333333334303,
      "v": 127
    },
    {
      "midi": 55,
      "hit": false,
      "t": 149249.99999999997,
      "d": 333.33333333334303,
      "v": 127
    },
    {
      "midi": 60,
      "hit": false,
      "t": 149249.99999999997,
      "d": 333.33333333334303,
      "v": 127
    },
    {
      "midi": 48,
      "hit": false,
      "t": 149999.99999999997,
      "d": 83.33333333334303,
      "v": 127
    },
    {
      "midi": 55,
      "hit": false,
      "t": 149999.99999999997,
      "d": 83.33333333334303,
      "v": 127
    },
    {
      "midi": 60,
      "hit": false,
      "t": 149999.99999999997,
      "d": 83.33333333334303,
      "v": 127
    },
    {
      "midi": 47,
      "hit": false,
      "t": 150249.99999999997,
      "d": 166.66666666665697,
      "v": 127
    },
    {
      "midi": 54,
      "hit": false,
      "t": 150249.99999999997,
      "d": 166.66666666665697,
      "v": 127
    },
    {
      "midi": 59,
      "hit": false,
      "t": 150249.99999999997,
      "d": 166.66666666665697,
      "v": 127
    },
    {
      "midi": 50,
      "hit": false,
      "t": 150499.99999999997,
      "d": 333.33333333334303,
      "v": 127
    },
    {
      "midi": 55,
      "hit": false,
      "t": 150499.99999999997,
      "d": 333.33333333334303,
      "v": 127
    },
    {
      "midi": 43,
      "hit": false,
      "t": 150499.99999999997,
      "d": 666.6666666666861,
      "v": 127
    },
    {
      "midi": 46,
      "hit": false,
      "t": 151250,
      "d": 333.33333333334303,
      "v": 127
    },
    {
      "midi": 53,
      "hit": false,
      "t": 151250,
      "d": 333.33333333334303,
      "v": 127
    },
    {
      "midi": 58,
      "hit": false,
      "t": 151250,
      "d": 333.33333333334303,
      "v": 127
    },
    {
      "midi": 46,
      "hit": false,
      "t": 151750,
      "d": 166.66666666665697,
      "v": 127
    },
    {
      "midi": 53,
      "hit": false,
      "t": 151750,
      "d": 166.66666666665697,
      "v": 127
    },
    {
      "midi": 58,
      "hit": false,
      "t": 151750,
      "d": 166.66666666665697,
      "v": 127
    },
    {
      "midi": 46,
      "hit": false,
      "t": 152000,
      "d": 166.66666666665697,
      "v": 127
    },
    {
      "midi": 53,
      "hit": false,
      "t": 152000,
      "d": 166.66666666665697,
      "v": 127
    },
    {
      "midi": 58,
      "hit": false,
      "t": 152000,
      "d": 166.66666666665697,
      "v": 127
    },
    {
      "midi": 45,
      "hit": false,
      "t": 152250,
      "d": 166.66666666665697,
      "v": 127
    },
    {
      "midi": 52,
      "hit": false,
      "t": 152250,
      "d": 166.66666666665697,
      "v": 127
    },
    {
      "midi": 57,
      "hit": false,
      "t": 152250,
      "d": 166.66666666665697,
      "v": 127
    },
    {
      "midi": 50,
      "hit": false,
      "t": 152750,
      "d": 83.33333333334303,
      "v": 127
    },
    {
      "midi": 57,
      "hit": false,
      "t": 152750,
      "d": 83.33333333334303,
      "v": 127
    },
    {
      "midi": 62,
      "hit": false,
      "t": 152750,
      "d": 83.33333333334303,
      "v": 127
    },
    {
      "midi": 48,
      "hit": false,
      "t": 153250,
      "d": 333.33333333334303,
      "v": 127
    },
    {
      "midi": 55,
      "hit": false,
      "t": 153250,
      "d": 333.33333333334303,
      "v": 127
    },
    {
      "midi": 60,
      "hit": false,
      "t": 153250,
      "d": 333.33333333334303,
      "v": 127
    },
    {
      "midi": 48,
      "hit": false,
      "t": 154000,
      "d": 83.33333333334303,
      "v": 127
    },
    {
      "midi": 55,
      "hit": false,
      "t": 154000,
      "d": 83.33333333334303,
      "v": 127
    },
    {
      "midi": 60,
      "hit": false,
      "t": 154000,
      "d": 83.33333333334303,
      "v": 127
    },
    {
      "midi": 47,
      "hit": false,
      "t": 154250,
      "d": 166.66666666665697,
      "v": 127
    },
    {
      "midi": 54,
      "hit": false,
      "t": 154250,
      "d": 166.66666666665697,
      "v": 127
    },
    {
      "midi": 59,
      "hit": false,
      "t": 154250,
      "d": 166.66666666665697,
      "v": 127
    },
    {
      "midi": 50,
      "hit": false,
      "t": 154500,
      "d": 333.33333333334303,
      "v": 127
    },
    {
      "midi": 55,
      "hit": false,
      "t": 154500,
      "d": 333.33333333334303,
      "v": 127
    },
    {
      "midi": 43,
      "hit": false,
      "t": 154500,
      "d": 666.6666666666861,
      "v": 127
    },
    {
      "midi": 46,
      "hit": false,
      "t": 155250.00000000003,
      "d": 333.33333333334303,
      "v": 127
    },
    {
      "midi": 53,
      "hit": false,
      "t": 155250.00000000003,
      "d": 333.33333333334303,
      "v": 127
    },
    {
      "midi": 58,
      "hit": false,
      "t": 155250.00000000003,
      "d": 333.33333333334303,
      "v": 127
    },
    {
      "midi": 46,
      "hit": false,
      "t": 155750.00000000003,
      "d": 166.66666666665697,
      "v": 127
    },
    {
      "midi": 53,
      "hit": false,
      "t": 155750.00000000003,
      "d": 166.66666666665697,
      "v": 127
    },
    {
      "midi": 58,
      "hit": false,
      "t": 155750.00000000003,
      "d": 166.66666666665697,
      "v": 127
    },
    {
      "midi": 46,
      "hit": false,
      "t": 156000.00000000003,
      "d": 166.66666666665697,
      "v": 127
    },
    {
      "midi": 53,
      "hit": false,
      "t": 156000.00000000003,
      "d": 166.66666666665697,
      "v": 127
    },
    {
      "midi": 58,
      "hit": false,
      "t": 156000.00000000003,
      "d": 166.66666666665697,
      "v": 127
    },
    {
      "midi": 45,
      "hit": false,
      "t": 156250.00000000003,
      "d": 166.66666666665697,
      "v": 127
    },
    {
      "midi": 52,
      "hit": false,
      "t": 156250.00000000003,
      "d": 166.66666666665697,
      "v": 127
    },
    {
      "midi": 57,
      "hit": false,
      "t": 156250.00000000003,
      "d": 166.66666666665697,
      "v": 127
    },
    {
      "midi": 50,
      "hit": false,
      "t": 156750.00000000003,
      "d": 83.33333333334303,
      "v": 127
    },
    {
      "midi": 57,
      "hit": false,
      "t": 156750.00000000003,
      "d": 83.33333333334303,
      "v": 127
    },
    {
      "midi": 62,
      "hit": false,
      "t": 156750.00000000003,
      "d": 83.33333333334303,
      "v": 127
    },
    {
      "midi": 48,
      "hit": false,
      "t": 157250.00000000003,
      "d": 333.33333333334303,
      "v": 127
    },
    {
      "midi": 55,
      "hit": false,
      "t": 157250.00000000003,
      "d": 333.33333333334303,
      "v": 127
    },
    {
      "midi": 60,
      "hit": false,
      "t": 157250.00000000003,
      "d": 333.33333333334303,
      "v": 127
    },
    {
      "midi": 48,
      "hit": false,
      "t": 158000.00000000003,
      "d": 83.33333333334303,
      "v": 127
    },
    {
      "midi": 55,
      "hit": false,
      "t": 158000.00000000003,
      "d": 83.33333333334303,
      "v": 127
    },
    {
      "midi": 60,
      "hit": false,
      "t": 158000.00000000003,
      "d": 83.33333333334303,
      "v": 127
    },
    {
      "midi": 47,
      "hit": false,
      "t": 158250.00000000003,
      "d": 166.66666666665697,
      "v": 127
    },
    {
      "midi": 54,
      "hit": false,
      "t": 158250.00000000003,
      "d": 166.66666666665697,
      "v": 127
    },
    {
      "midi": 59,
      "hit": false,
      "t": 158250.00000000003,
      "d": 166.66666666665697,
      "v": 127
    },
    {
      "midi": 50,
      "hit": false,
      "t": 158500.00000000003,
      "d": 333.33333333334303,
      "v": 127
    },
    {
      "midi": 55,
      "hit": false,
      "t": 158500.00000000003,
      "d": 333.33333333334303,
      "v": 127
    },
    {
      "midi": 43,
      "hit": false,
      "t": 158500.00000000003,
      "d": 666.6666666666861,
      "v": 127
    },
    {
      "midi": 46,
      "hit": false,
      "t": 159250.00000000006,
      "d": 333.33333333334303,
      "v": 127
    },
    {
      "midi": 53,
      "hit": false,
      "t": 159250.00000000006,
      "d": 333.33333333334303,
      "v": 127
    },
    {
      "midi": 58,
      "hit": false,
      "t": 159250.00000000006,
      "d": 333.33333333334303,
      "v": 127
    },
    {
      "midi": 46,
      "hit": false,
      "t": 159750.00000000006,
      "d": 166.66666666665697,
      "v": 127
    },
    {
      "midi": 53,
      "hit": false,
      "t": 159750.00000000006,
      "d": 166.66666666665697,
      "v": 127
    },
    {
      "midi": 58,
      "hit": false,
      "t": 159750.00000000006,
      "d": 166.66666666665697,
      "v": 127
    },
    {
      "midi": 46,
      "hit": false,
      "t": 160000.00000000006,
      "d": 166.66666666665697,
      "v": 127
    },
    {
      "midi": 53,
      "hit": false,
      "t": 160000.00000000006,
      "d": 166.66666666665697,
      "v": 127
    },
    {
      "midi": 58,
      "hit": false,
      "t": 160000.00000000006,
      "d": 166.66666666665697,
      "v": 127
    },
    {
      "midi": 45,
      "hit": false,
      "t": 160250.00000000006,
      "d": 166.66666666665697,
      "v": 127
    },
    {
      "midi": 52,
      "hit": false,
      "t": 160250.00000000006,
      "d": 166.66666666665697,
      "v": 127
    },
    {
      "midi": 57,
      "hit": false,
      "t": 160250.00000000006,
      "d": 166.66666666665697,
      "v": 127
    },
    {
      "midi": 50,
      "hit": false,
      "t": 160750.00000000006,
      "d": 83.33333333334303,
      "v": 127
    },
    {
      "midi": 57,
      "hit": false,
      "t": 160750.00000000006,
      "d": 83.33333333334303,
      "v": 127
    },
    {
      "midi": 62,
      "hit": false,
      "t": 160750.00000000006,
      "d": 83.33333333334303,
      "v": 127
    },
    {
      "midi": 48,
      "hit": false,
      "t": 161250.00000000006,
      "d": 333.33333333334303,
      "v": 127
    },
    {
      "midi": 55,
      "hit": false,
      "t": 161250.00000000006,
      "d": 333.33333333334303,
      "v": 127
    },
    {
      "midi": 60,
      "hit": false,
      "t": 161250.00000000006,
      "d": 333.33333333334303,
      "v": 127
    },
    {
      "midi": 48,
      "hit": false,
      "t": 162000.00000000006,
      "d": 83.33333333334303,
      "v": 127
    },
    {
      "midi": 55,
      "hit": false,
      "t": 162000.00000000006,
      "d": 83.33333333334303,
      "v": 127
    },
    {
      "midi": 60,
      "hit": false,
      "t": 162000.00000000006,
      "d": 83.33333333334303,
      "v": 127
    },
    {
      "midi": 47,
      "hit": false,
      "t": 162250.00000000006,
      "d": 166.66666666665697,
      "v": 127
    },
    {
      "midi": 54,
      "hit": false,
      "t": 162250.00000000006,
      "d": 166.66666666665697,
      "v": 127
    },
    {
      "midi": 59,
      "hit": false,
      "t": 162250.00000000006,
      "d": 166.66666666665697,
      "v": 127
    },
    {
      "midi": 50,
      "hit": false,
      "t": 162500.00000000006,
      "d": 333.33333333334303,
      "v": 127
    },
    {
      "midi": 55,
      "hit": false,
      "t": 162500.00000000006,
      "d": 333.33333333334303,
      "v": 127
    },
    {
      "midi": 43,
      "hit": false,
      "t": 162500.00000000006,
      "d": 666.6666666666861,
      "v": 127
    },
    {
      "midi": 46,
      "hit": false,
      "t": 163250.0000000001,
      "d": 333.33333333334303,
      "v": 127
    },
    {
      "midi": 53,
      "hit": false,
      "t": 163250.0000000001,
      "d": 333.33333333334303,
      "v": 127
    },
    {
      "midi": 58,
      "hit": false,
      "t": 163250.0000000001,
      "d": 333.33333333334303,
      "v": 127
    },
    {
      "midi": 46,
      "hit": false,
      "t": 163750.0000000001,
      "d": 166.66666666665697,
      "v": 127
    },
    {
      "midi": 53,
      "hit": false,
      "t": 163750.0000000001,
      "d": 166.66666666665697,
      "v": 127
    },
    {
      "midi": 58,
      "hit": false,
      "t": 163750.0000000001,
      "d": 166.66666666665697,
      "v": 127
    },
    {
      "midi": 46,
      "hit": false,
      "t": 164000.0000000001,
      "d": 166.66666666665697,
      "v": 127
    },
    {
      "midi": 53,
      "hit": false,
      "t": 164000.0000000001,
      "d": 166.66666666665697,
      "v": 127
    },
    {
      "midi": 58,
      "hit": false,
      "t": 164000.0000000001,
      "d": 166.66666666665697,
      "v": 127
    },
    {
      "midi": 45,
      "hit": false,
      "t": 164250.0000000001,
      "d": 166.66666666665697,
      "v": 127
    },
    {
      "midi": 52,
      "hit": false,
      "t": 164250.0000000001,
      "d": 166.66666666665697,
      "v": 127
    },
    {
      "midi": 57,
      "hit": false,
      "t": 164250.0000000001,
      "d": 166.66666666665697,
      "v": 127
    },
    {
      "midi": 50,
      "hit": false,
      "t": 164750.0000000001,
      "d": 83.33333333334303,
      "v": 127
    },
    {
      "midi": 57,
      "hit": false,
      "t": 164750.0000000001,
      "d": 83.33333333334303,
      "v": 127
    },
    {
      "midi": 62,
      "hit": false,
      "t": 164750.0000000001,
      "d": 83.33333333334303,
      "v": 127
    },
    {
      "midi": 48,
      "hit": false,
      "t": 165250.0000000001,
      "d": 333.33333333334303,
      "v": 127
    },
    {
      "midi": 55,
      "hit": false,
      "t": 165250.0000000001,
      "d": 333.33333333334303,
      "v": 127
    },
    {
      "midi": 60,
      "hit": false,
      "t": 165250.0000000001,
      "d": 333.33333333334303,
      "v": 127
    },
    {
      "midi": 48,
      "hit": false,
      "t": 166000.0000000001,
      "d": 83.33333333334303,
      "v": 127
    },
    {
      "midi": 55,
      "hit": false,
      "t": 166000.0000000001,
      "d": 83.33333333334303,
      "v": 127
    },
    {
      "midi": 60,
      "hit": false,
      "t": 166000.0000000001,
      "d": 83.33333333334303,
      "v": 127
    },
    {
      "midi": 47,
      "hit": false,
      "t": 166250.0000000001,
      "d": 166.66666666665697,
      "v": 127
    },
    {
      "midi": 54,
      "hit": false,
      "t": 166250.0000000001,
      "d": 166.66666666665697,
      "v": 127
    },
    {
      "midi": 59,
      "hit": false,
      "t": 166250.0000000001,
      "d": 166.66666666665697,
      "v": 127
    },
    {
      "midi": 50,
      "hit": false,
      "t": 166500.0000000001,
      "d": 333.33333333334303,
      "v": 127
    },
    {
      "midi": 55,
      "hit": false,
      "t": 166500.0000000001,
      "d": 333.33333333334303,
      "v": 127
    },
    {
      "midi": 43,
      "hit": false,
      "t": 166500.0000000001,
      "d": 666.6666666666861,
      "v": 127
    },
    {
      "midi": 46,
      "hit": false,
      "t": 167250.00000000012,
      "d": 333.33333333334303,
      "v": 127
    },
    {
      "midi": 53,
      "hit": false,
      "t": 167250.00000000012,
      "d": 333.33333333334303,
      "v": 127
    },
    {
      "midi": 58,
      "hit": false,
      "t": 167250.00000000012,
      "d": 333.33333333334303,
      "v": 127
    },
    {
      "midi": 46,
      "hit": false,
      "t": 167750.00000000012,
      "d": 166.66666666665697,
      "v": 127
    },
    {
      "midi": 53,
      "hit": false,
      "t": 167750.00000000012,
      "d": 166.66666666665697,
      "v": 127
    },
    {
      "midi": 58,
      "hit": false,
      "t": 167750.00000000012,
      "d": 166.66666666665697,
      "v": 127
    },
    {
      "midi": 46,
      "hit": false,
      "t": 168000.00000000012,
      "d": 166.66666666665697,
      "v": 127
    },
    {
      "midi": 53,
      "hit": false,
      "t": 168000.00000000012,
      "d": 166.66666666665697,
      "v": 127
    },
    {
      "midi": 58,
      "hit": false,
      "t": 168000.00000000012,
      "d": 166.66666666665697,
      "v": 127
    },
    {
      "midi": 45,
      "hit": false,
      "t": 168250.00000000012,
      "d": 166.66666666665697,
      "v": 127
    },
    {
      "midi": 52,
      "hit": false,
      "t": 168250.00000000012,
      "d": 166.66666666665697,
      "v": 127
    },
    {
      "midi": 57,
      "hit": false,
      "t": 168250.00000000012,
      "d": 166.66666666665697,
      "v": 127
    },
    {
      "midi": 50,
      "hit": false,
      "t": 168750.00000000012,
      "d": 83.33333333334303,
      "v": 127
    },
    {
      "midi": 57,
      "hit": false,
      "t": 168750.00000000012,
      "d": 83.33333333334303,
      "v": 127
    },
    {
      "midi": 62,
      "hit": false,
      "t": 168750.00000000012,
      "d": 83.33333333334303,
      "v": 127
    },
    {
      "midi": 48,
      "hit": false,
      "t": 169250.00000000012,
      "d": 333.33333333334303,
      "v": 127
    },
    {
      "midi": 55,
      "hit": false,
      "t": 169250.00000000012,
      "d": 333.33333333334303,
      "v": 127
    },
    {
      "midi": 60,
      "hit": false,
      "t": 169250.00000000012,
      "d": 333.33333333334303,
      "v": 127
    },
    {
      "midi": 48,
      "hit": false,
      "t": 170000.00000000012,
      "d": 83.33333333334303,
      "v": 127
    },
    {
      "midi": 55,
      "hit": false,
      "t": 170000.00000000012,
      "d": 83.33333333334303,
      "v": 127
    },
    {
      "midi": 60,
      "hit": false,
      "t": 170000.00000000012,
      "d": 83.33333333334303,
      "v": 127
    },
    {
      "midi": 47,
      "hit": false,
      "t": 170250.00000000012,
      "d": 166.66666666665697,
      "v": 127
    },
    {
      "midi": 54,
      "hit": false,
      "t": 170250.00000000012,
      "d": 166.66666666665697,
      "v": 127
    },
    {
      "midi": 59,
      "hit": false,
      "t": 170250.00000000012,
      "d": 166.66666666665697,
      "v": 127
    },
    {
      "midi": 50,
      "hit": false,
      "t": 170500.00000000012,
      "d": 333.33333333334303,
      "v": 127
    },
    {
      "midi": 55,
      "hit": false,
      "t": 170500.00000000012,
      "d": 333.33333333334303,
      "v": 127
    },
    {
      "midi": 43,
      "hit": false,
      "t": 170500.00000000012,
      "d": 666.6666666666861,
      "v": 127
    },
    {
      "midi": 46,
      "hit": false,
      "t": 171250.00000000015,
      "d": 333.33333333334303,
      "v": 127
    },
    {
      "midi": 53,
      "hit": false,
      "t": 171250.00000000015,
      "d": 333.33333333334303,
      "v": 127
    },
    {
      "midi": 58,
      "hit": false,
      "t": 171250.00000000015,
      "d": 333.33333333334303,
      "v": 127
    },
    {
      "midi": 46,
      "hit": false,
      "t": 171750.00000000015,
      "d": 166.66666666665697,
      "v": 127
    },
    {
      "midi": 53,
      "hit": false,
      "t": 171750.00000000015,
      "d": 166.66666666665697,
      "v": 127
    },
    {
      "midi": 58,
      "hit": false,
      "t": 171750.00000000015,
      "d": 166.66666666665697,
      "v": 127
    },
    {
      "midi": 46,
      "hit": false,
      "t": 172000.00000000015,
      "d": 166.66666666665697,
      "v": 127
    },
    {
      "midi": 53,
      "hit": false,
      "t": 172000.00000000015,
      "d": 166.66666666665697,
      "v": 127
    },
    {
      "midi": 58,
      "hit": false,
      "t": 172000.00000000015,
      "d": 166.66666666665697,
      "v": 127
    },
    {
      "midi": 45,
      "hit": false,
      "t": 172250.00000000015,
      "d": 166.66666666665697,
      "v": 127
    },
    {
      "midi": 52,
      "hit": false,
      "t": 172250.00000000015,
      "d": 166.66666666665697,
      "v": 127
    },
    {
      "midi": 57,
      "hit": false,
      "t": 172250.00000000015,
      "d": 166.66666666665697,
      "v": 127
    },
    {
      "midi": 50,
      "hit": false,
      "t": 172750.00000000015,
      "d": 83.33333333334303,
      "v": 127
    },
    {
      "midi": 57,
      "hit": false,
      "t": 172750.00000000015,
      "d": 83.33333333334303,
      "v": 127
    },
    {
      "midi": 62,
      "hit": false,
      "t": 172750.00000000015,
      "d": 83.33333333334303,
      "v": 127
    },
    {
      "midi": 48,
      "hit": false,
      "t": 173250.00000000015,
      "d": 333.33333333334303,
      "v": 127
    },
    {
      "midi": 55,
      "hit": false,
      "t": 173250.00000000015,
      "d": 333.33333333334303,
      "v": 127
    },
    {
      "midi": 60,
      "hit": false,
      "t": 173250.00000000015,
      "d": 333.33333333334303,
      "v": 127
    },
    {
      "midi": 48,
      "hit": false,
      "t": 174000.00000000015,
      "d": 83.33333333334303,
      "v": 127
    },
    {
      "midi": 55,
      "hit": false,
      "t": 174000.00000000015,
      "d": 83.33333333334303,
      "v": 127
    },
    {
      "midi": 60,
      "hit": false,
      "t": 174000.00000000015,
      "d": 83.33333333334303,
      "v": 127
    },
    {
      "midi": 47,
      "hit": false,
      "t": 174250.00000000015,
      "d": 166.66666666665697,
      "v": 127
    },
    {
      "midi": 54,
      "hit": false,
      "t": 174250.00000000015,
      "d": 166.66666666665697,
      "v": 127
    },
    {
      "midi": 59,
      "hit": false,
      "t": 174250.00000000015,
      "d": 166.66666666665697,
      "v": 127
    },
    {
      "midi": 50,
      "hit": false,
      "t": 174500.00000000015,
      "d": 333.33333333334303,
      "v": 127
    },
    {
      "midi": 55,
      "hit": false,
      "t": 174500.00000000015,
      "d": 333.33333333334303,
      "v": 127
    },
    {
      "midi": 43,
      "hit": false,
      "t": 174500.00000000015,
      "d": 666.6666666666861,
      "v": 127
    },
    {
      "midi": 46,
      "hit": false,
      "t": 175250.00000000017,
      "d": 333.33333333334303,
      "v": 127
    },
    {
      "midi": 53,
      "hit": false,
      "t": 175250.00000000017,
      "d": 333.33333333334303,
      "v": 127
    },
    {
      "midi": 58,
      "hit": false,
      "t": 175250.00000000017,
      "d": 333.33333333334303,
      "v": 127
    },
    {
      "midi": 46,
      "hit": false,
      "t": 175750.00000000017,
      "d": 166.66666666665697,
      "v": 127
    },
    {
      "midi": 53,
      "hit": false,
      "t": 175750.00000000017,
      "d": 166.66666666665697,
      "v": 127
    },
    {
      "midi": 58,
      "hit": false,
      "t": 175750.00000000017,
      "d": 166.66666666665697,
      "v": 127
    },
    {
      "midi": 46,
      "hit": false,
      "t": 176000.00000000017,
      "d": 166.66666666665697,
      "v": 127
    },
    {
      "midi": 53,
      "hit": false,
      "t": 176000.00000000017,
      "d": 166.66666666665697,
      "v": 127
    },
    {
      "midi": 58,
      "hit": false,
      "t": 176000.00000000017,
      "d": 166.66666666665697,
      "v": 127
    },
    {
      "midi": 45,
      "hit": false,
      "t": 176250.00000000017,
      "d": 166.66666666665697,
      "v": 127
    },
    {
      "midi": 52,
      "hit": false,
      "t": 176250.00000000017,
      "d": 166.66666666665697,
      "v": 127
    },
    {
      "midi": 57,
      "hit": false,
      "t": 176250.00000000017,
      "d": 166.66666666665697,
      "v": 127
    }
  ]
}