{
  "jsonPath": "Pop/Dance Pop/Miley Cyrus/the-climb.json",
  "path": "Pop\\Dance Pop\\Miley Cyrus\\The Climb.mid",
  "name": "The Climb",
  "difficulty": "Intermediate",
  "bpm": 80.49995840835483,
  "notes": [
    {
      "midi": 64,
      "hit": false,
      "t": 2981.368,
      "d": 745.3420000000001,
      "v": 100
    },
    {
      "midi": 68,
      "hit": false,
      "t": 2981.368,
      "d": 745.3420000000001,
      "v": 100
    },
    {
      "midi": 71,
      "hit": false,
      "t": 2981.368,
      "d": 745.3420000000001,
      "v": 100
    },
    {
      "midi": 64,
      "hit": false,
      "t": 3726.71,
      "d": 745.3419999999996,
      "v": 64
    },
    {
      "midi": 68,
      "hit": false,
      "t": 3726.71,
      "d": 745.3419999999996,
      "v": 64
    },
    {
      "midi": 71,
      "hit": false,
      "t": 3726.71,
      "d": 745.3419999999996,
      "v": 64
    },
    {
      "midi": 64,
      "hit": false,
      "t": 4472.052,
      "d": 745.3419999999996,
      "v": 75
    },
    {
      "midi": 68,
      "hit": false,
      "t": 4472.052,
      "d": 745.3419999999996,
      "v": 75
    },
    {
      "midi": 71,
      "hit": false,
      "t": 4472.052,
      "d": 745.3419999999996,
      "v": 75
    },
    {
      "midi": 64,
      "hit": false,
      "t": 5217.393999999999,
      "d": 745.3419999999996,
      "v": 64
    },
    {
      "midi": 68,
      "hit": false,
      "t": 5217.393999999999,
      "d": 745.3419999999996,
      "v": 64
    },
    {
      "midi": 71,
      "hit": false,
      "t": 5217.393999999999,
      "d": 745.3419999999996,
      "v": 64
    },
    {
      "midi": 64,
      "hit": false,
      "t": 5962.735999999999,
      "d": 745.3419999999996,
      "v": 100
    },
    {
      "midi": 68,
      "hit": false,
      "t": 5962.735999999999,
      "d": 745.3419999999996,
      "v": 100
    },
    {
      "midi": 71,
      "hit": false,
      "t": 5962.735999999999,
      "d": 745.3419999999996,
      "v": 100
    },
    {
      "midi": 64,
      "hit": false,
      "t": 6708.077999999999,
      "d": 745.3419999999996,
      "v": 64
    },
    {
      "midi": 68,
      "hit": false,
      "t": 6708.077999999999,
      "d": 745.3419999999996,
      "v": 64
    },
    {
      "midi": 71,
      "hit": false,
      "t": 6708.077999999999,
      "d": 745.3419999999996,
      "v": 64
    },
    {
      "midi": 64,
      "hit": false,
      "t": 7453.419999999998,
      "d": 745.3420000000006,
      "v": 75
    },
    {
      "midi": 68,
      "hit": false,
      "t": 7453.419999999998,
      "d": 745.3420000000006,
      "v": 75
    },
    {
      "midi": 71,
      "hit": false,
      "t": 7453.419999999998,
      "d": 745.3420000000006,
      "v": 75
    },
    {
      "midi": 64,
      "hit": false,
      "t": 8198.761999999999,
      "d": 745.3420000000006,
      "v": 64
    },
    {
      "midi": 68,
      "hit": false,
      "t": 8198.761999999999,
      "d": 745.3420000000006,
      "v": 64
    },
    {
      "midi": 71,
      "hit": false,
      "t": 8198.761999999999,
      "d": 745.3420000000006,
      "v": 64
    },
    {
      "midi": 64,
      "hit": false,
      "t": 8944.104,
      "d": 2981.3680000000004,
      "v": 80
    },
    {
      "midi": 68,
      "hit": false,
      "t": 8944.104,
      "d": 2981.3680000000004,
      "v": 80
    },
    {
      "midi": 71,
      "hit": false,
      "t": 8944.104,
      "d": 2981.3680000000004,
      "v": 80
    },
    {
      "midi": 64,
      "hit": false,
      "t": 11925.472,
      "d": 745.3420000000006,
      "v": 40
    },
    {
      "midi": 68,
      "hit": false,
      "t": 11925.472,
      "d": 745.3420000000006,
      "v": 40
    },
    {
      "midi": 71,
      "hit": false,
      "t": 11925.472,
      "d": 745.3420000000006,
      "v": 40
    },
    {
      "midi": 64,
      "hit": false,
      "t": 12670.814,
      "d": 745.3420000000006,
      "v": 49
    },
    {
      "midi": 68,
      "hit": false,
      "t": 12670.814,
      "d": 745.3420000000006,
      "v": 49
    },
    {
      "midi": 71,
      "hit": false,
      "t": 12670.814,
      "d": 745.3420000000006,
      "v": 49
    },
    {
      "midi": 64,
      "hit": false,
      "t": 13416.156,
      "d": 745.3420000000006,
      "v": 60
    },
    {
      "midi": 68,
      "hit": false,
      "t": 13416.156,
      "d": 745.3420000000006,
      "v": 60
    },
    {
      "midi": 71,
      "hit": false,
      "t": 13416.156,
      "d": 745.3420000000006,
      "v": 60
    },
    {
      "midi": 64,
      "hit": false,
      "t": 14161.498000000001,
      "d": 745.3420000000006,
      "v": 69
    },
    {
      "midi": 68,
      "hit": false,
      "t": 14161.498000000001,
      "d": 745.3420000000006,
      "v": 69
    },
    {
      "midi": 71,
      "hit": false,
      "t": 14161.498000000001,
      "d": 745.3420000000006,
      "v": 69
    },
    {
      "midi": 57,
      "hit": false,
      "t": 14906.840000000002,
      "d": 1490.6839999999993,
      "v": 80
    },
    {
      "midi": 61,
      "hit": false,
      "t": 14906.840000000002,
      "d": 1490.6839999999993,
      "v": 80
    },
    {
      "midi": 64,
      "hit": false,
      "t": 14906.840000000002,
      "d": 1490.6839999999993,
      "v": 80
    },
    {
      "midi": 57,
      "hit": false,
      "t": 16397.524,
      "d": 745.3420000000006,
      "v": 64
    },
    {
      "midi": 61,
      "hit": false,
      "t": 16397.524,
      "d": 745.3420000000006,
      "v": 64
    },
    {
      "midi": 64,
      "hit": false,
      "t": 16397.524,
      "d": 745.3420000000006,
      "v": 64
    },
    {
      "midi": 57,
      "hit": false,
      "t": 17142.866,
      "d": 745.3420000000006,
      "v": 64
    },
    {
      "midi": 61,
      "hit": false,
      "t": 17142.866,
      "d": 745.3420000000006,
      "v": 64
    },
    {
      "midi": 64,
      "hit": false,
      "t": 17142.866,
      "d": 745.3420000000006,
      "v": 64
    },
    {
      "midi": 54,
      "hit": false,
      "t": 17888.208000000002,
      "d": 2981.3679999999986,
      "v": 80
    },
    {
      "midi": 57,
      "hit": false,
      "t": 17888.208000000002,
      "d": 2981.3679999999986,
      "v": 80
    },
    {
      "midi": 61,
      "hit": false,
      "t": 17888.208000000002,
      "d": 2981.3679999999986,
      "v": 80
    },
    {
      "midi": 52,
      "hit": false,
      "t": 20869.576,
      "d": 2981.3679999999986,
      "v": 80
    },
    {
      "midi": 64,
      "hit": false,
      "t": 20869.576,
      "d": 2981.3679999999986,
      "v": 80
    },
    {
      "midi": 68,
      "hit": false,
      "t": 20869.576,
      "d": 2981.3679999999986,
      "v": 80
    },
    {
      "midi": 71,
      "hit": false,
      "t": 20869.576,
      "d": 2981.3679999999986,
      "v": 80
    },
    {
      "midi": 64,
      "hit": false,
      "t": 23850.944,
      "d": 745.3420000000006,
      "v": 40
    },
    {
      "midi": 68,
      "hit": false,
      "t": 23850.944,
      "d": 745.3420000000006,
      "v": 40
    },
    {
      "midi": 71,
      "hit": false,
      "t": 23850.944,
      "d": 745.3420000000006,
      "v": 40
    },
    {
      "midi": 64,
      "hit": false,
      "t": 24596.286,
      "d": 2236.025999999998,
      "v": 49
    },
    {
      "midi": 68,
      "hit": false,
      "t": 24596.286,
      "d": 2236.025999999998,
      "v": 49
    },
    {
      "midi": 71,
      "hit": false,
      "t": 24596.286,
      "d": 2236.025999999998,
      "v": 49
    },
    {
      "midi": 57,
      "hit": false,
      "t": 26832.311999999998,
      "d": 2236.025999999998,
      "v": 80
    },
    {
      "midi": 61,
      "hit": false,
      "t": 26832.311999999998,
      "d": 2236.025999999998,
      "v": 80
    },
    {
      "midi": 64,
      "hit": false,
      "t": 26832.311999999998,
      "d": 2236.025999999998,
      "v": 80
    },
    {
      "midi": 59,
      "hit": false,
      "t": 29068.337999999996,
      "d": 372.67099999999846,
      "v": 80
    },
    {
      "midi": 61,
      "hit": false,
      "t": 29441.008999999995,
      "d": 372.67099999999846,
      "v": 80
    },
    {
      "midi": 54,
      "hit": false,
      "t": 29813.679999999993,
      "d": 1863.3549999999996,
      "v": 70
    },
    {
      "midi": 57,
      "hit": false,
      "t": 29813.679999999993,
      "d": 2236.025999999998,
      "v": 70
    },
    {
      "midi": 61,
      "hit": false,
      "t": 29813.679999999993,
      "d": 2236.025999999998,
      "v": 70
    },
    {
      "midi": 64,
      "hit": false,
      "t": 29813.679999999993,
      "d": 2236.025999999998,
      "v": 80
    },
    {
      "midi": 49,
      "hit": false,
      "t": 31677.034999999993,
      "d": 1118.0129999999954,
      "v": 30
    },
    {
      "midi": 61,
      "hit": false,
      "t": 32049.70599999999,
      "d": 745.3419999999969,
      "v": 80
    },
    {
      "midi": 64,
      "hit": false,
      "t": 32049.70599999999,
      "d": 745.3419999999969,
      "v": 80
    },
    {
      "midi": 68,
      "hit": false,
      "t": 32422.37699999999,
      "d": 372.67099999999846,
      "v": 80
    },
    {
      "midi": 49,
      "hit": false,
      "t": 32795.04799999999,
      "d": 1490.684000000001,
      "v": 80
    },
    {
      "midi": 64,
      "hit": false,
      "t": 32795.04799999999,
      "d": 1490.684000000001,
      "v": 80
    },
    {
      "midi": 68,
      "hit": false,
      "t": 32795.04799999999,
      "d": 1490.684000000001,
      "v": 80
    },
    {
      "midi": 73,
      "hit": false,
      "t": 32795.04799999999,
      "d": 1490.684000000001,
      "v": 80
    },
    {
      "midi": 56,
      "hit": false,
      "t": 34285.73199999999,
      "d": 1490.684000000001,
      "v": 64
    },
    {
      "midi": 61,
      "hit": false,
      "t": 34285.73199999999,
      "d": 1490.684000000001,
      "v": 64
    },
    {
      "midi": 64,
      "hit": false,
      "t": 34285.73199999999,
      "d": 1490.684000000001,
      "v": 64
    },
    {
      "midi": 49,
      "hit": false,
      "t": 35031.073999999986,
      "d": 372.6710000000021,
      "v": 64
    },
    {
      "midi": 51,
      "hit": false,
      "t": 35403.74499999999,
      "d": 372.6710000000021,
      "v": 64
    },
    {
      "midi": 59,
      "hit": false,
      "t": 35776.41599999999,
      "d": 2236.025999999998,
      "v": 80
    },
    {
      "midi": 63,
      "hit": false,
      "t": 35776.41599999999,
      "d": 2236.025999999998,
      "v": 80
    },
    {
      "midi": 44,
      "hit": false,
      "t": 35776.41599999999,
      "d": 2981.367999999995,
      "v": 80
    },
    {
      "midi": 56,
      "hit": false,
      "t": 35776.41599999999,
      "d": 2981.367999999995,
      "v": 80
    },
    {
      "midi": 59,
      "hit": false,
      "t": 38012.44199999999,
      "d": 745.3419999999969,
      "v": 80
    },
    {
      "midi": 63,
      "hit": false,
      "t": 38012.44199999999,
      "d": 745.3419999999969,
      "v": 80
    },
    {
      "midi": 45,
      "hit": false,
      "t": 38757.783999999985,
      "d": 2981.3679999999877,
      "v": 50
    },
    {
      "midi": 57,
      "hit": false,
      "t": 38757.783999999985,
      "d": 2981.3679999999877,
      "v": 80
    },
    {
      "midi": 61,
      "hit": false,
      "t": 39503.12599999998,
      "d": 745.3419999999969,
      "v": 64
    },
    {
      "midi": 64,
      "hit": false,
      "t": 39503.12599999998,
      "d": 745.3419999999969,
      "v": 64
    },
    {
      "midi": 61,
      "hit": false,
      "t": 40248.46799999998,
      "d": 745.3419999999969,
      "v": 80
    },
    {
      "midi": 64,
      "hit": false,
      "t": 40248.46799999998,
      "d": 745.3419999999969,
      "v": 80
    },
    {
      "midi": 61,
      "hit": false,
      "t": 40993.809999999976,
      "d": 745.3419999999969,
      "v": 64
    },
    {
      "midi": 64,
      "hit": false,
      "t": 40993.809999999976,
      "d": 745.3419999999969,
      "v": 64
    },
    {
      "midi": 57,
      "hit": false,
      "t": 41739.15199999997,
      "d": 1490.684000000001,
      "v": 64
    },
    {
      "midi": 61,
      "hit": false,
      "t": 41739.15199999997,
      "d": 1490.684000000001,
      "v": 64
    },
    {
      "midi": 54,
      "hit": false,
      "t": 41739.15199999997,
      "d": 2981.367999999995,
      "v": 64
    },
    {
      "midi": 57,
      "hit": false,
      "t": 43229.835999999974,
      "d": 745.3419999999969,
      "v": 80
    },
    {
      "midi": 61,
      "hit": false,
      "t": 43229.835999999974,
      "d": 745.3419999999969,
      "v": 80
    },
    {
      "midi": 66,
      "hit": false,
      "t": 43229.835999999974,
      "d": 745.3419999999969,
      "v": 80
    },
    {
      "midi": 57,
      "hit": false,
      "t": 43975.17799999997,
      "d": 745.3419999999969,
      "v": 80
    },
    {
      "midi": 61,
      "hit": false,
      "t": 43975.17799999997,
      "d": 745.3419999999969,
      "v": 80
    },
    {
      "midi": 66,
      "hit": false,
      "t": 43975.17799999997,
      "d": 745.3419999999969,
      "v": 80
    },
    {
      "midi": 56,
      "hit": false,
      "t": 44720.51999999997,
      "d": 745.3419999999969,
      "v": 80
    },
    {
      "midi": 59,
      "hit": false,
      "t": 44720.51999999997,
      "d": 745.3419999999969,
      "v": 80
    },
    {
      "midi": 64,
      "hit": false,
      "t": 44720.51999999997,
      "d": 745.3419999999969,
      "v": 80
    },
    {
      "midi": 56,
      "hit": false,
      "t": 45465.861999999965,
      "d": 745.3419999999969,
      "v": 64
    },
    {
      "midi": 59,
      "hit": false,
      "t": 45465.861999999965,
      "d": 745.3419999999969,
      "v": 64
    },
    {
      "midi": 64,
      "hit": false,
      "t": 45465.861999999965,
      "d": 745.3419999999969,
      "v": 64
    },
    {
      "midi": 56,
      "hit": false,
      "t": 46211.20399999996,
      "d": 745.3419999999969,
      "v": 80
    },
    {
      "midi": 59,
      "hit": false,
      "t": 46211.20399999996,
      "d": 745.3419999999969,
      "v": 80
    },
    {
      "midi": 64,
      "hit": false,
      "t": 46211.20399999996,
      "d": 745.3419999999969,
      "v": 80
    },
    {
      "midi": 56,
      "hit": false,
      "t": 46956.54599999996,
      "d": 745.3419999999969,
      "v": 64
    },
    {
      "midi": 59,
      "hit": false,
      "t": 46956.54599999996,
      "d": 745.3419999999969,
      "v": 64
    },
    {
      "midi": 64,
      "hit": false,
      "t": 46956.54599999996,
      "d": 745.3419999999969,
      "v": 64
    },
    {
      "midi": 56,
      "hit": false,
      "t": 47701.887999999955,
      "d": 745.3419999999969,
      "v": 80
    },
    {
      "midi": 59,
      "hit": false,
      "t": 47701.887999999955,
      "d": 745.3419999999969,
      "v": 80
    },
    {
      "midi": 64,
      "hit": false,
      "t": 47701.887999999955,
      "d": 745.3419999999969,
      "v": 80
    },
    {
      "midi": 56,
      "hit": false,
      "t": 48447.22999999995,
      "d": 745.3419999999969,
      "v": 64
    },
    {
      "midi": 59,
      "hit": false,
      "t": 48447.22999999995,
      "d": 745.3419999999969,
      "v": 64
    },
    {
      "midi": 64,
      "hit": false,
      "t": 48447.22999999995,
      "d": 745.3419999999969,
      "v": 64
    },
    {
      "midi": 56,
      "hit": false,
      "t": 49192.57199999995,
      "d": 745.3419999999969,
      "v": 80
    },
    {
      "midi": 59,
      "hit": false,
      "t": 49192.57199999995,
      "d": 745.3419999999969,
      "v": 80
    },
    {
      "midi": 64,
      "hit": false,
      "t": 49192.57199999995,
      "d": 745.3419999999969,
      "v": 80
    },
    {
      "midi": 63,
      "hit": false,
      "t": 49937.913999999946,
      "d": 372.6710000000021,
      "v": 80
    },
    {
      "midi": 56,
      "hit": false,
      "t": 49937.913999999946,
      "d": 745.3420000000042,
      "v": 80
    },
    {
      "midi": 59,
      "hit": false,
      "t": 49937.913999999946,
      "d": 745.3420000000042,
      "v": 80
    },
    {
      "midi": 64,
      "hit": false,
      "t": 50310.58499999995,
      "d": 372.6710000000021,
      "v": 80
    },
    {
      "midi": 57,
      "hit": false,
      "t": 50683.25599999995,
      "d": 745.3419999999969,
      "v": 80
    },
    {
      "midi": 61,
      "hit": false,
      "t": 50683.25599999995,
      "d": 745.3419999999969,
      "v": 80
    },
    {
      "midi": 64,
      "hit": false,
      "t": 50683.25599999995,
      "d": 745.3419999999969,
      "v": 80
    },
    {
      "midi": 57,
      "hit": false,
      "t": 51428.59799999995,
      "d": 745.3419999999969,
      "v": 64
    },
    {
      "midi": 61,
      "hit": false,
      "t": 51428.59799999995,
      "d": 745.3419999999969,
      "v": 64
    },
    {
      "midi": 64,
      "hit": false,
      "t": 51428.59799999995,
      "d": 745.3419999999969,
      "v": 64
    },
    {
      "midi": 57,
      "hit": false,
      "t": 52173.939999999944,
      "d": 745.3419999999969,
      "v": 80
    },
    {
      "midi": 61,
      "hit": false,
      "t": 52173.939999999944,
      "d": 745.3419999999969,
      "v": 80
    },
    {
      "midi": 64,
      "hit": false,
      "t": 52173.939999999944,
      "d": 745.3419999999969,
      "v": 80
    },
    {
      "midi": 57,
      "hit": false,
      "t": 52919.28199999994,
      "d": 745.3419999999969,
      "v": 64
    },
    {
      "midi": 61,
      "hit": false,
      "t": 52919.28199999994,
      "d": 745.3419999999969,
      "v": 64
    },
    {
      "midi": 64,
      "hit": false,
      "t": 52919.28199999994,
      "d": 745.3419999999969,
      "v": 64
    },
    {
      "midi": 54,
      "hit": false,
      "t": 53664.62399999994,
      "d": 745.3419999999969,
      "v": 80
    },
    {
      "midi": 57,
      "hit": false,
      "t": 53664.62399999994,
      "d": 745.3419999999969,
      "v": 80
    },
    {
      "midi": 61,
      "hit": false,
      "t": 53664.62399999994,
      "d": 745.3419999999969,
      "v": 80
    },
    {
      "midi": 54,
      "hit": false,
      "t": 54409.965999999935,
      "d": 745.3419999999969,
      "v": 64
    },
    {
      "midi": 57,
      "hit": false,
      "t": 54409.965999999935,
      "d": 745.3419999999969,
      "v": 64
    },
    {
      "midi": 61,
      "hit": false,
      "t": 54409.965999999935,
      "d": 745.3419999999969,
      "v": 64
    },
    {
      "midi": 54,
      "hit": false,
      "t": 55155.30799999993,
      "d": 745.3419999999969,
      "v": 80
    },
    {
      "midi": 59,
      "hit": false,
      "t": 55155.30799999993,
      "d": 745.3419999999969,
      "v": 80
    },
    {
      "midi": 63,
      "hit": false,
      "t": 55155.30799999993,
      "d": 745.3419999999969,
      "v": 80
    },
    {
      "midi": 54,
      "hit": false,
      "t": 55900.64999999993,
      "d": 745.3419999999969,
      "v": 64
    },
    {
      "midi": 59,
      "hit": false,
      "t": 55900.64999999993,
      "d": 745.3419999999969,
      "v": 64
    },
    {
      "midi": 63,
      "hit": false,
      "t": 55900.64999999993,
      "d": 745.3419999999969,
      "v": 64
    },
    {
      "midi": 56,
      "hit": false,
      "t": 56645.991999999926,
      "d": 745.3419999999969,
      "v": 80
    },
    {
      "midi": 59,
      "hit": false,
      "t": 56645.991999999926,
      "d": 745.3419999999969,
      "v": 80
    },
    {
      "midi": 64,
      "hit": false,
      "t": 56645.991999999926,
      "d": 745.3419999999969,
      "v": 80
    },
    {
      "midi": 56,
      "hit": false,
      "t": 57391.33399999992,
      "d": 745.3419999999969,
      "v": 64
    },
    {
      "midi": 59,
      "hit": false,
      "t": 57391.33399999992,
      "d": 745.3419999999969,
      "v": 64
    },
    {
      "midi": 64,
      "hit": false,
      "t": 57391.33399999992,
      "d": 745.3419999999969,
      "v": 64
    },
    {
      "midi": 56,
      "hit": false,
      "t": 58136.67599999992,
      "d": 745.3419999999969,
      "v": 80
    },
    {
      "midi": 59,
      "hit": false,
      "t": 58136.67599999992,
      "d": 745.3419999999969,
      "v": 80
    },
    {
      "midi": 64,
      "hit": false,
      "t": 58136.67599999992,
      "d": 745.3419999999969,
      "v": 80
    },
    {
      "midi": 56,
      "hit": false,
      "t": 58882.017999999916,
      "d": 745.3419999999969,
      "v": 64
    },
    {
      "midi": 59,
      "hit": false,
      "t": 58882.017999999916,
      "d": 745.3419999999969,
      "v": 64
    },
    {
      "midi": 64,
      "hit": false,
      "t": 58882.017999999916,
      "d": 745.3419999999969,
      "v": 64
    },
    {
      "midi": 56,
      "hit": false,
      "t": 59627.35999999991,
      "d": 745.3419999999969,
      "v": 80
    },
    {
      "midi": 59,
      "hit": false,
      "t": 59627.35999999991,
      "d": 745.3419999999969,
      "v": 80
    },
    {
      "midi": 64,
      "hit": false,
      "t": 59627.35999999991,
      "d": 745.3419999999969,
      "v": 80
    },
    {
      "midi": 56,
      "hit": false,
      "t": 60372.70199999991,
      "d": 745.3419999999969,
      "v": 64
    },
    {
      "midi": 59,
      "hit": false,
      "t": 60372.70199999991,
      "d": 745.3419999999969,
      "v": 64
    },
    {
      "midi": 64,
      "hit": false,
      "t": 60372.70199999991,
      "d": 745.3419999999969,
      "v": 64
    },
    {
      "midi": 56,
      "hit": false,
      "t": 61118.04399999991,
      "d": 745.3419999999969,
      "v": 80
    },
    {
      "midi": 59,
      "hit": false,
      "t": 61118.04399999991,
      "d": 745.3419999999969,
      "v": 80
    },
    {
      "midi": 64,
      "hit": false,
      "t": 61118.04399999991,
      "d": 745.3419999999969,
      "v": 80
    },
    {
      "midi": 63,
      "hit": false,
      "t": 61863.385999999904,
      "d": 372.6710000000021,
      "v": 80
    },
    {
      "midi": 56,
      "hit": false,
      "t": 61863.385999999904,
      "d": 745.3420000000042,
      "v": 80
    },
    {
      "midi": 59,
      "hit": false,
      "t": 61863.385999999904,
      "d": 745.3420000000042,
      "v": 80
    },
    {
      "midi": 64,
      "hit": false,
      "t": 62236.056999999906,
      "d": 372.6710000000021,
      "v": 80
    },
    {
      "midi": 61,
      "hit": false,
      "t": 62608.72799999991,
      "d": 745.3419999999969,
      "v": 80
    },
    {
      "midi": 64,
      "hit": false,
      "t": 62608.72799999991,
      "d": 745.3419999999969,
      "v": 80
    },
    {
      "midi": 68,
      "hit": false,
      "t": 62608.72799999991,
      "d": 745.3419999999969,
      "v": 80
    },
    {
      "midi": 61,
      "hit": false,
      "t": 63354.069999999905,
      "d": 745.3419999999969,
      "v": 64
    },
    {
      "midi": 64,
      "hit": false,
      "t": 63354.069999999905,
      "d": 745.3419999999969,
      "v": 64
    },
    {
      "midi": 68,
      "hit": false,
      "t": 63354.069999999905,
      "d": 745.3419999999969,
      "v": 64
    },
    {
      "midi": 59,
      "hit": false,
      "t": 64099.4119999999,
      "d": 745.3419999999969,
      "v": 80
    },
    {
      "midi": 63,
      "hit": false,
      "t": 64099.4119999999,
      "d": 745.3419999999969,
      "v": 80
    },
    {
      "midi": 66,
      "hit": false,
      "t": 64099.4119999999,
      "d": 745.3419999999969,
      "v": 80
    },
    {
      "midi": 59,
      "hit": false,
      "t": 64844.7539999999,
      "d": 745.3420000000042,
      "v": 64
    },
    {
      "midi": 63,
      "hit": false,
      "t": 64844.7539999999,
      "d": 745.3420000000042,
      "v": 64
    },
    {
      "midi": 66,
      "hit": false,
      "t": 64844.7539999999,
      "d": 745.3420000000042,
      "v": 64
    },
    {
      "midi": 45,
      "hit": false,
      "t": 65590.0959999999,
      "d": 745.3420000000042,
      "v": 80
    },
    {
      "midi": 61,
      "hit": false,
      "t": 65962.7669999999,
      "d": 372.6710000000021,
      "v": 80
    },
    {
      "midi": 57,
      "hit": false,
      "t": 66335.43799999991,
      "d": 745.3420000000042,
      "v": 80
    },
    {
      "midi": 61,
      "hit": false,
      "t": 66335.43799999991,
      "d": 745.3420000000042,
      "v": 80
    },
    {
      "midi": 64,
      "hit": false,
      "t": 66335.43799999991,
      "d": 745.3420000000042,
      "v": 80
    },
    {
      "midi": 45,
      "hit": false,
      "t": 66708.10899999991,
      "d": 372.6710000000021,
      "v": 80
    },
    {
      "midi": 57,
      "hit": false,
      "t": 67080.77999999991,
      "d": 1490.6839999999938,
      "v": 80
    },
    {
      "midi": 61,
      "hit": false,
      "t": 67080.77999999991,
      "d": 1490.6839999999938,
      "v": 80
    },
    {
      "midi": 64,
      "hit": false,
      "t": 67080.77999999991,
      "d": 1490.6839999999938,
      "v": 80
    },
    {
      "midi": 64,
      "hit": false,
      "t": 68571.4639999999,
      "d": 2981.368000000002,
      "v": 100
    },
    {
      "midi": 68,
      "hit": false,
      "t": 68571.4639999999,
      "d": 2981.368000000002,
      "v": 100
    },
    {
      "midi": 71,
      "hit": false,
      "t": 68571.4639999999,
      "d": 2981.368000000002,
      "v": 100
    },
    {
      "midi": 64,
      "hit": false,
      "t": 71552.83199999991,
      "d": 2981.368000000002,
      "v": 100
    },
    {
      "midi": 68,
      "hit": false,
      "t": 71552.83199999991,
      "d": 2981.368000000002,
      "v": 100
    },
    {
      "midi": 71,
      "hit": false,
      "t": 71552.83199999991,
      "d": 2981.368000000002,
      "v": 100
    },
    {
      "midi": 59,
      "hit": false,
      "t": 74534.19999999991,
      "d": 2981.368000000002,
      "v": 100
    },
    {
      "midi": 64,
      "hit": false,
      "t": 74534.19999999991,
      "d": 2981.368000000002,
      "v": 100
    },
    {
      "midi": 68,
      "hit": false,
      "t": 74534.19999999991,
      "d": 2981.368000000002,
      "v": 100
    },
    {
      "midi": 59,
      "hit": false,
      "t": 77515.56799999991,
      "d": 2981.368000000002,
      "v": 100
    },
    {
      "midi": 64,
      "hit": false,
      "t": 77515.56799999991,
      "d": 2981.368000000002,
      "v": 100
    },
    {
      "midi": 68,
      "hit": false,
      "t": 77515.56799999991,
      "d": 2981.368000000002,
      "v": 100
    },
    {
      "midi": 61,
      "hit": false,
      "t": 80496.93599999991,
      "d": 2981.368000000002,
      "v": 100
    },
    {
      "midi": 64,
      "hit": false,
      "t": 80496.93599999991,
      "d": 2981.368000000002,
      "v": 100
    },
    {
      "midi": 69,
      "hit": false,
      "t": 80496.93599999991,
      "d": 2981.368000000002,
      "v": 100
    },
    {
      "midi": 61,
      "hit": false,
      "t": 83478.30399999992,
      "d": 2981.368000000002,
      "v": 100
    },
    {
      "midi": 66,
      "hit": false,
      "t": 83478.30399999992,
      "d": 2981.368000000002,
      "v": 100
    },
    {
      "midi": 69,
      "hit": false,
      "t": 83478.30399999992,
      "d": 2981.368000000002,
      "v": 100
    },
    {
      "midi": 59,
      "hit": false,
      "t": 86459.67199999992,
      "d": 2981.368000000002,
      "v": 100
    },
    {
      "midi": 64,
      "hit": false,
      "t": 86459.67199999992,
      "d": 2981.368000000002,
      "v": 100
    },
    {
      "midi": 68,
      "hit": false,
      "t": 86459.67199999992,
      "d": 2981.368000000002,
      "v": 100
    },
    {
      "midi": 59,
      "hit": false,
      "t": 89441.03999999992,
      "d": 2981.368000000002,
      "v": 100
    },
    {
      "midi": 64,
      "hit": false,
      "t": 89441.03999999992,
      "d": 2981.368000000002,
      "v": 100
    },
    {
      "midi": 68,
      "hit": false,
      "t": 89441.03999999992,
      "d": 2981.368000000002,
      "v": 100
    },
    {
      "midi": 61,
      "hit": false,
      "t": 92422.40799999992,
      "d": 2981.368000000002,
      "v": 100
    },
    {
      "midi": 64,
      "hit": false,
      "t": 92422.40799999992,
      "d": 2981.368000000002,
      "v": 100
    },
    {
      "midi": 69,
      "hit": false,
      "t": 92422.40799999992,
      "d": 2981.368000000002,
      "v": 100
    },
    {
      "midi": 61,
      "hit": false,
      "t": 95403.77599999993,
      "d": 2981.368000000002,
      "v": 100
    },
    {
      "midi": 66,
      "hit": false,
      "t": 95403.77599999993,
      "d": 2981.368000000002,
      "v": 100
    },
    {
      "midi": 69,
      "hit": false,
      "t": 95403.77599999993,
      "d": 2981.368000000002,
      "v": 100
    },
    {
      "midi": 61,
      "hit": false,
      "t": 98385.14399999993,
      "d": 2981.368000000002,
      "v": 100
    },
    {
      "midi": 64,
      "hit": false,
      "t": 98385.14399999993,
      "d": 2981.368000000002,
      "v": 100
    },
    {
      "midi": 68,
      "hit": false,
      "t": 98385.14399999993,
      "d": 2981.368000000002,
      "v": 100
    },
    {
      "midi": 63,
      "hit": false,
      "t": 101366.51199999993,
      "d": 2981.368000000002,
      "v": 100
    },
    {
      "midi": 68,
      "hit": false,
      "t": 101366.51199999993,
      "d": 2981.368000000002,
      "v": 100
    },
    {
      "midi": 71,
      "hit": false,
      "t": 101366.51199999993,
      "d": 2981.368000000002,
      "v": 100
    },
    {
      "midi": 61,
      "hit": false,
      "t": 104347.87999999993,
      "d": 2608.697,
      "v": 100
    },
    {
      "midi": 64,
      "hit": false,
      "t": 104347.87999999993,
      "d": 2608.697,
      "v": 100
    },
    {
      "midi": 69,
      "hit": false,
      "t": 104347.87999999993,
      "d": 2608.697,
      "v": 100
    },
    {
      "midi": 61,
      "hit": false,
      "t": 106956.57699999993,
      "d": 3354.0390000000043,
      "v": 100
    },
    {
      "midi": 66,
      "hit": false,
      "t": 106956.57699999993,
      "d": 3354.0390000000043,
      "v": 100
    },
    {
      "midi": 69,
      "hit": false,
      "t": 106956.57699999993,
      "d": 3354.0390000000043,
      "v": 100
    },
    {
      "midi": 59,
      "hit": false,
      "t": 110310.61599999994,
      "d": 2981.368000000002,
      "v": 100
    },
    {
      "midi": 64,
      "hit": false,
      "t": 110310.61599999994,
      "d": 2981.368000000002,
      "v": 100
    },
    {
      "midi": 68,
      "hit": false,
      "t": 110310.61599999994,
      "d": 2981.368000000002,
      "v": 100
    },
    {
      "midi": 59,
      "hit": false,
      "t": 113291.98399999994,
      "d": 2981.368000000002,
      "v": 100
    },
    {
      "midi": 64,
      "hit": false,
      "t": 113291.98399999994,
      "d": 2981.368000000002,
      "v": 100
    },
    {
      "midi": 68,
      "hit": false,
      "t": 113291.98399999994,
      "d": 2981.368000000002,
      "v": 100
    },
    {
      "midi": 61,
      "hit": false,
      "t": 116273.35199999994,
      "d": 2981.368000000002,
      "v": 100
    },
    {
      "midi": 64,
      "hit": false,
      "t": 116273.35199999994,
      "d": 2981.368000000002,
      "v": 100
    },
    {
      "midi": 69,
      "hit": false,
      "t": 116273.35199999994,
      "d": 2981.368000000002,
      "v": 100
    },
    {
      "midi": 61,
      "hit": false,
      "t": 119254.71999999994,
      "d": 1490.6839999999938,
      "v": 100
    },
    {
      "midi": 66,
      "hit": false,
      "t": 119254.71999999994,
      "d": 1490.6839999999938,
      "v": 100
    },
    {
      "midi": 69,
      "hit": false,
      "t": 119254.71999999994,
      "d": 1490.6839999999938,
      "v": 100
    },
    {
      "midi": 63,
      "hit": false,
      "t": 120745.40399999994,
      "d": 1490.6839999999938,
      "v": 100
    },
    {
      "midi": 66,
      "hit": false,
      "t": 120745.40399999994,
      "d": 1490.6839999999938,
      "v": 100
    },
    {
      "midi": 71,
      "hit": false,
      "t": 120745.40399999994,
      "d": 1490.6839999999938,
      "v": 100
    },
    {
      "midi": 59,
      "hit": false,
      "t": 122236.08799999993,
      "d": 2981.368000000002,
      "v": 100
    },
    {
      "midi": 64,
      "hit": false,
      "t": 122236.08799999993,
      "d": 2981.368000000002,
      "v": 100
    },
    {
      "midi": 68,
      "hit": false,
      "t": 122236.08799999993,
      "d": 2981.368000000002,
      "v": 100
    },
    {
      "midi": 59,
      "hit": false,
      "t": 125217.45599999993,
      "d": 2981.368000000002,
      "v": 100
    },
    {
      "midi": 64,
      "hit": false,
      "t": 125217.45599999993,
      "d": 2981.368000000002,
      "v": 100
    },
    {
      "midi": 68,
      "hit": false,
      "t": 125217.45599999993,
      "d": 2981.368000000002,
      "v": 100
    },
    {
      "midi": 61,
      "hit": false,
      "t": 128198.82399999994,
      "d": 1490.6839999999938,
      "v": 100
    },
    {
      "midi": 64,
      "hit": false,
      "t": 128198.82399999994,
      "d": 1490.6839999999938,
      "v": 100
    },
    {
      "midi": 68,
      "hit": false,
      "t": 128198.82399999994,
      "d": 1490.6839999999938,
      "v": 100
    },
    {
      "midi": 63,
      "hit": false,
      "t": 129689.50799999993,
      "d": 1490.6839999999938,
      "v": 100
    },
    {
      "midi": 66,
      "hit": false,
      "t": 129689.50799999993,
      "d": 1490.6839999999938,
      "v": 100
    },
    {
      "midi": 71,
      "hit": false,
      "t": 129689.50799999993,
      "d": 1490.6839999999938,
      "v": 100
    },
    {
      "midi": 61,
      "hit": false,
      "t": 131180.19199999992,
      "d": 1490.6840000000084,
      "v": 100
    },
    {
      "midi": 64,
      "hit": false,
      "t": 131180.19199999992,
      "d": 1490.6840000000084,
      "v": 100
    },
    {
      "midi": 69,
      "hit": false,
      "t": 131180.19199999992,
      "d": 1490.6840000000084,
      "v": 100
    },
    {
      "midi": 61,
      "hit": false,
      "t": 132670.87599999993,
      "d": 1490.6840000000084,
      "v": 100
    },
    {
      "midi": 64,
      "hit": false,
      "t": 132670.87599999993,
      "d": 1490.6840000000084,
      "v": 100
    },
    {
      "midi": 69,
      "hit": false,
      "t": 132670.87599999993,
      "d": 1490.6840000000084,
      "v": 100
    },
    {
      "midi": 59,
      "hit": false,
      "t": 134161.55999999994,
      "d": 2981.3679999999877,
      "v": 100
    },
    {
      "midi": 64,
      "hit": false,
      "t": 134161.55999999994,
      "d": 2981.3679999999877,
      "v": 100
    },
    {
      "midi": 68,
      "hit": false,
      "t": 134161.55999999994,
      "d": 2981.3679999999877,
      "v": 100
    },
    {
      "midi": 59,
      "hit": false,
      "t": 137142.92799999993,
      "d": 2981.3679999999877,
      "v": 100
    },
    {
      "midi": 64,
      "hit": false,
      "t": 137142.92799999993,
      "d": 2981.3679999999877,
      "v": 100
    },
    {
      "midi": 68,
      "hit": false,
      "t": 137142.92799999993,
      "d": 2981.3679999999877,
      "v": 100
    },
    {
      "midi": 61,
      "hit": false,
      "t": 140124.29599999991,
      "d": 2981.3679999999877,
      "v": 100
    },
    {
      "midi": 64,
      "hit": false,
      "t": 140124.29599999991,
      "d": 2981.3679999999877,
      "v": 100
    },
    {
      "midi": 69,
      "hit": false,
      "t": 140124.29599999991,
      "d": 2981.3679999999877,
      "v": 100
    },
    {
      "midi": 61,
      "hit": false,
      "t": 143105.6639999999,
      "d": 2981.3679999999877,
      "v": 100
    },
    {
      "midi": 64,
      "hit": false,
      "t": 143105.6639999999,
      "d": 2981.3679999999877,
      "v": 100
    },
    {
      "midi": 69,
      "hit": false,
      "t": 143105.6639999999,
      "d": 2981.3679999999877,
      "v": 100
    },
    {
      "midi": 61,
      "hit": false,
      "t": 146087.0319999999,
      "d": 2981.3679999999877,
      "v": 100
    },
    {
      "midi": 66,
      "hit": false,
      "t": 146087.0319999999,
      "d": 2981.3679999999877,
      "v": 100
    },
    {
      "midi": 69,
      "hit": false,
      "t": 146087.0319999999,
      "d": 2981.3679999999877,
      "v": 100
    },
    {
      "midi": 63,
      "hit": false,
      "t": 149068.39999999988,
      "d": 2981.3679999999877,
      "v": 100
    },
    {
      "midi": 68,
      "hit": false,
      "t": 149068.39999999988,
      "d": 2981.3679999999877,
      "v": 100
    },
    {
      "midi": 71,
      "hit": false,
      "t": 149068.39999999988,
      "d": 2981.3679999999877,
      "v": 100
    },
    {
      "midi": 61,
      "hit": false,
      "t": 152049.76799999987,
      "d": 2981.3679999999877,
      "v": 100
    },
    {
      "midi": 64,
      "hit": false,
      "t": 152049.76799999987,
      "d": 2981.3679999999877,
      "v": 100
    },
    {
      "midi": 69,
      "hit": false,
      "t": 152049.76799999987,
      "d": 2981.3679999999877,
      "v": 100
    },
    {
      "midi": 63,
      "hit": false,
      "t": 155031.13599999985,
      "d": 2981.3679999999877,
      "v": 100
    },
    {
      "midi": 66,
      "hit": false,
      "t": 155031.13599999985,
      "d": 2981.3679999999877,
      "v": 100
    },
    {
      "midi": 71,
      "hit": false,
      "t": 155031.13599999985,
      "d": 2981.3679999999877,
      "v": 100
    },
    {
      "midi": 59,
      "hit": false,
      "t": 158012.50399999984,
      "d": 2981.3679999999877,
      "v": 100
    },
    {
      "midi": 64,
      "hit": false,
      "t": 158012.50399999984,
      "d": 2981.3679999999877,
      "v": 100
    },
    {
      "midi": 68,
      "hit": false,
      "t": 158012.50399999984,
      "d": 2981.3679999999877,
      "v": 100
    },
    {
      "midi": 61,
      "hit": false,
      "t": 163975.23999999982,
      "d": 745.3420000000042,
      "v": 100
    },
    {
      "midi": 64,
      "hit": false,
      "t": 163975.23999999982,
      "d": 745.3420000000042,
      "v": 100
    },
    {
      "midi": 69,
      "hit": false,
      "t": 163975.23999999982,
      "d": 745.3420000000042,
      "v": 100
    },
    {
      "midi": 61,
      "hit": false,
      "t": 164720.58199999982,
      "d": 745.3420000000042,
      "v": 100
    },
    {
      "midi": 64,
      "hit": false,
      "t": 164720.58199999982,
      "d": 745.3420000000042,
      "v": 100
    },
    {
      "midi": 69,
      "hit": false,
      "t": 164720.58199999982,
      "d": 745.3420000000042,
      "v": 100
    },
    {
      "midi": 61,
      "hit": false,
      "t": 165465.92399999982,
      "d": 745.3420000000042,
      "v": 100
    },
    {
      "midi": 64,
      "hit": false,
      "t": 165465.92399999982,
      "d": 745.3420000000042,
      "v": 100
    },
    {
      "midi": 69,
      "hit": false,
      "t": 165465.92399999982,
      "d": 745.3420000000042,
      "v": 100
    },
    {
      "midi": 61,
      "hit": false,
      "t": 166211.26599999983,
      "d": 745.3420000000042,
      "v": 100
    },
    {
      "midi": 64,
      "hit": false,
      "t": 166211.26599999983,
      "d": 745.3420000000042,
      "v": 100
    },
    {
      "midi": 69,
      "hit": false,
      "t": 166211.26599999983,
      "d": 745.3420000000042,
      "v": 100
    },
    {
      "midi": 40,
      "hit": false,
      "t": 166956.60799999983,
      "d": 559.0064999999886,
      "v": 100
    },
    {
      "midi": 52,
      "hit": false,
      "t": 166956.60799999983,
      "d": 559.0064999999886,
      "v": 100
    },
    {
      "midi": 42,
      "hit": false,
      "t": 167515.61449999982,
      "d": 559.0064999999886,
      "v": 100
    },
    {
      "midi": 54,
      "hit": false,
      "t": 167515.61449999982,
      "d": 559.0064999999886,
      "v": 100
    },
    {
      "midi": 44,
      "hit": false,
      "t": 168074.6209999998,
      "d": 559.0064999999886,
      "v": 100
    },
    {
      "midi": 56,
      "hit": false,
      "t": 168074.6209999998,
      "d": 559.0064999999886,
      "v": 100
    },
    {
      "midi": 45,
      "hit": false,
      "t": 168633.6274999998,
      "d": 559.0064999999886,
      "v": 100
    },
    {
      "midi": 57,
      "hit": false,
      "t": 168633.6274999998,
      "d": 559.0064999999886,
      "v": 100
    },
    {
      "midi": 47,
      "hit": false,
      "t": 169192.6339999998,
      "d": 372.6710000000021,
      "v": 100
    },
    {
      "midi": 59,
      "hit": false,
      "t": 169192.6339999998,
      "d": 372.6710000000021,
      "v": 100
    },
    {
      "midi": 49,
      "hit": false,
      "t": 169565.3049999998,
      "d": 372.6710000000021,
      "v": 100
    },
    {
      "midi": 61,
      "hit": false,
      "t": 169565.3049999998,
      "d": 372.6710000000021,
      "v": 100
    },
    {
      "midi": 59,
      "hit": false,
      "t": 169937.9759999998,
      "d": 2981.3679999999877,
      "v": 100
    },
    {
      "midi": 64,
      "hit": false,
      "t": 169937.9759999998,
      "d": 2981.3679999999877,
      "v": 100
    },
    {
      "midi": 68,
      "hit": false,
      "t": 169937.9759999998,
      "d": 2981.3679999999877,
      "v": 100
    },
    {
      "midi": 59,
      "hit": false,
      "t": 172919.34399999978,
      "d": 2981.3679999999877,
      "v": 100
    },
    {
      "midi": 64,
      "hit": false,
      "t": 172919.34399999978,
      "d": 2981.3679999999877,
      "v": 100
    },
    {
      "midi": 68,
      "hit": false,
      "t": 172919.34399999978,
      "d": 2981.3679999999877,
      "v": 100
    },
    {
      "midi": 61,
      "hit": false,
      "t": 175900.71199999977,
      "d": 1490.6840000000084,
      "v": 100
    },
    {
      "midi": 64,
      "hit": false,
      "t": 175900.71199999977,
      "d": 1490.6840000000084,
      "v": 100
    },
    {
      "midi": 68,
      "hit": false,
      "t": 175900.71199999977,
      "d": 1490.6840000000084,
      "v": 100
    },
    {
      "midi": 63,
      "hit": false,
      "t": 177391.39599999978,
      "d": 1490.6840000000084,
      "v": 100
    },
    {
      "midi": 66,
      "hit": false,
      "t": 177391.39599999978,
      "d": 1490.6840000000084,
      "v": 100
    },
    {
      "midi": 71,
      "hit": false,
      "t": 177391.39599999978,
      "d": 1490.6840000000084,
      "v": 100
    },
    {
      "midi": 61,
      "hit": false,
      "t": 178882.07999999978,
      "d": 1490.6840000000084,
      "v": 100
    },
    {
      "midi": 64,
      "hit": false,
      "t": 178882.07999999978,
      "d": 1490.6840000000084,
      "v": 100
    },
    {
      "midi": 69,
      "hit": false,
      "t": 178882.07999999978,
      "d": 1490.6840000000084,
      "v": 100
    },
    {
      "midi": 61,
      "hit": false,
      "t": 180372.7639999998,
      "d": 1490.6840000000084,
      "v": 100
    },
    {
      "midi": 64,
      "hit": false,
      "t": 180372.7639999998,
      "d": 1490.6840000000084,
      "v": 100
    },
    {
      "midi": 69,
      "hit": false,
      "t": 180372.7639999998,
      "d": 1490.6840000000084,
      "v": 100
    },
    {
      "midi": 59,
      "hit": false,
      "t": 181863.4479999998,
      "d": 2981.3679999999877,
      "v": 100
    },
    {
      "midi": 64,
      "hit": false,
      "t": 181863.4479999998,
      "d": 2981.3679999999877,
      "v": 100
    },
    {
      "midi": 68,
      "hit": false,
      "t": 181863.4479999998,
      "d": 2981.3679999999877,
      "v": 100
    },
    {
      "midi": 59,
      "hit": false,
      "t": 184844.8159999998,
      "d": 2981.3679999999877,
      "v": 100
    },
    {
      "midi": 64,
      "hit": false,
      "t": 184844.8159999998,
      "d": 2981.3679999999877,
      "v": 100
    },
    {
      "midi": 68,
      "hit": false,
      "t": 184844.8159999998,
      "d": 2981.3679999999877,
      "v": 100
    },
    {
      "midi": 61,
      "hit": false,
      "t": 187826.18399999978,
      "d": 2981.3679999999877,
      "v": 100
    },
    {
      "midi": 64,
      "hit": false,
      "t": 187826.18399999978,
      "d": 2981.3679999999877,
      "v": 100
    },
    {
      "midi": 69,
      "hit": false,
      "t": 187826.18399999978,
      "d": 2981.3679999999877,
      "v": 100
    },
    {
      "midi": 61,
      "hit": false,
      "t": 190807.55199999976,
      "d": 2981.3679999999877,
      "v": 100
    },
    {
      "midi": 64,
      "hit": false,
      "t": 190807.55199999976,
      "d": 2981.3679999999877,
      "v": 100
    },
    {
      "midi": 69,
      "hit": false,
      "t": 190807.55199999976,
      "d": 2981.3679999999877,
      "v": 100
    },
    {
      "midi": 59,
      "hit": false,
      "t": 193788.91999999975,
      "d": 2981.3679999999877,
      "v": 100
    },
    {
      "midi": 64,
      "hit": false,
      "t": 193788.91999999975,
      "d": 2981.3679999999877,
      "v": 100
    },
    {
      "midi": 68,
      "hit": false,
      "t": 193788.91999999975,
      "d": 2981.3679999999877,
      "v": 100
    },
    {
      "midi": 59,
      "hit": false,
      "t": 196770.28799999974,
      "d": 2981.3679999999877,
      "v": 100
    },
    {
      "midi": 64,
      "hit": false,
      "t": 196770.28799999974,
      "d": 2981.3679999999877,
      "v": 100
    },
    {
      "midi": 68,
      "hit": false,
      "t": 196770.28799999974,
      "d": 2981.3679999999877,
      "v": 100
    },
    {
      "midi": 61,
      "hit": false,
      "t": 199751.65599999973,
      "d": 2981.3679999999877,
      "v": 100
    },
    {
      "midi": 64,
      "hit": false,
      "t": 199751.65599999973,
      "d": 2981.3679999999877,
      "v": 100
    },
    {
      "midi": 69,
      "hit": false,
      "t": 199751.65599999973,
      "d": 2981.3679999999877,
      "v": 100
    },
    {
      "midi": 61,
      "hit": false,
      "t": 202733.0239999997,
      "d": 2981.3679999999877,
      "v": 100
    },
    {
      "midi": 64,
      "hit": false,
      "t": 202733.0239999997,
      "d": 2981.3679999999877,
      "v": 100
    },
    {
      "midi": 69,
      "hit": false,
      "t": 202733.0239999997,
      "d": 2981.3679999999877,
      "v": 100
    },
    {
      "midi": 59,
      "hit": false,
      "t": 205714.3919999997,
      "d": 2981.3679999999877,
      "v": 100
    },
    {
      "midi": 64,
      "hit": false,
      "t": 205714.3919999997,
      "d": 2981.3679999999877,
      "v": 100
    },
    {
      "midi": 68,
      "hit": false,
      "t": 205714.3919999997,
      "d": 2981.3679999999877,
      "v": 100
    },
    {
      "midi": 59,
      "hit": false,
      "t": 208695.7599999997,
      "d": 2981.3679999999877,
      "v": 100
    },
    {
      "midi": 64,
      "hit": false,
      "t": 208695.7599999997,
      "d": 2981.3679999999877,
      "v": 100
    },
    {
      "midi": 68,
      "hit": false,
      "t": 208695.7599999997,
      "d": 2981.3679999999877,
      "v": 100
    },
    {
      "midi": 61,
      "hit": false,
      "t": 211677.12799999968,
      "d": 2981.3679999999877,
      "v": 100
    },
    {
      "midi": 64,
      "hit": false,
      "t": 211677.12799999968,
      "d": 2981.3679999999877,
      "v": 100
    },
    {
      "midi": 69,
      "hit": false,
      "t": 211677.12799999968,
      "d": 2981.3679999999877,
      "v": 100
    },
    {
      "midi": 61,
      "hit": false,
      "t": 214658.49599999966,
      "d": 2981.3679999999877,
      "v": 100
    },
    {
      "midi": 64,
      "hit": false,
      "t": 214658.49599999966,
      "d": 2981.3679999999877,
      "v": 100
    },
    {
      "midi": 69,
      "hit": false,
      "t": 214658.49599999966,
      "d": 2981.3679999999877,
      "v": 100
    },
    {
      "midi": 52,
      "hit": false,
      "t": 217639.86399999965,
      "d": 8944.103999999992,
      "v": 100
    },
    {
      "midi": 56,
      "hit": false,
      "t": 217639.86399999965,
      "d": 8944.103999999992,
      "v": 100
    },
    {
      "midi": 59,
      "hit": false,
      "t": 217639.86399999965,
      "d": 8944.103999999992,
      "v": 100
    },
    {
      "midi": 64,
      "hit": false,
      "t": 217639.86399999965,
      "d": 8944.103999999992,
      "v": 100
    }
  ]
}