{
  "jsonPath": "Rock/Classic Garage Rock/The Mysterians/just-like-a-rose.json",
  "path": "Rock\\Classic Garage Rock\\The Mysterians\\Just Like A Rose.mid",
  "name": "Just Like A Rose",
  "difficulty": "Advanced",
  "bpm": 120,
  "notes": [
    {
      "midi": 60,
      "hit": false,
      "t": 1000,
      "d": 141.66666666666674,
      "v": 80
    },
    {
      "midi": 62,
      "hit": false,
      "t": 1125,
      "d": 120.83333333333348,
      "v": 80
    },
    {
      "midi": 65,
      "hit": false,
      "t": 1250.0000000000002,
      "d": 129.16666666666674,
      "v": 62
    },
    {
      "midi": 69,
      "hit": false,
      "t": 1375.0000000000002,
      "d": 170.83333333333326,
      "v": 68
    },
    {
      "midi": 72,
      "hit": false,
      "t": 1500.0000000000002,
      "d": 329.1666666666665,
      "v": 89
    },
    {
      "midi": 69,
      "hit": false,
      "t": 1833.3333333333335,
      "d": 95.83333333333326,
      "v": 72
    },
    {
      "midi": 72,
      "hit": false,
      "t": 2000,
      "d": 725,
      "v": 89
    },
    {
      "midi": 41,
      "hit": false,
      "t": 2000,
      "d": 316.6666666666665,
      "v": 63
    },
    {
      "midi": 96,
      "hit": false,
      "t": 2500,
      "d": 220.83333333333348,
      "v": 89
    },
    {
      "midi": 93,
      "hit": false,
      "t": 2500,
      "d": 254.16666666666652,
      "v": 80
    },
    {
      "midi": 53,
      "hit": false,
      "t": 2500,
      "d": 112.5,
      "v": 63
    },
    {
      "midi": 57,
      "hit": false,
      "t": 2500,
      "d": 125,
      "v": 63
    },
    {
      "midi": 60,
      "hit": false,
      "t": 2500,
      "d": 150,
      "v": 63
    },
    {
      "midi": 89,
      "hit": false,
      "t": 3000,
      "d": 133.33333333333348,
      "v": 80
    },
    {
      "midi": 93,
      "hit": false,
      "t": 3000,
      "d": 154.16666666666697,
      "v": 72
    },
    {
      "midi": 38,
      "hit": false,
      "t": 3000,
      "d": 212.5,
      "v": 61
    },
    {
      "midi": 96,
      "hit": false,
      "t": 3333.3333333333335,
      "d": 304.1666666666665,
      "v": 80
    },
    {
      "midi": 93,
      "hit": false,
      "t": 3333.3333333333335,
      "d": 312.5,
      "v": 76
    },
    {
      "midi": 53,
      "hit": false,
      "t": 3500,
      "d": 108.33333333333348,
      "v": 60
    },
    {
      "midi": 57,
      "hit": false,
      "t": 3500,
      "d": 120.83333333333348,
      "v": 60
    },
    {
      "midi": 60,
      "hit": false,
      "t": 3500,
      "d": 175,
      "v": 60
    },
    {
      "midi": 43,
      "hit": false,
      "t": 4000,
      "d": 187.5,
      "v": 60
    },
    {
      "midi": 70,
      "hit": false,
      "t": 4500,
      "d": 208.33333333333394,
      "v": 89
    },
    {
      "midi": 55,
      "hit": false,
      "t": 4500,
      "d": 116.66666666666697,
      "v": 60
    },
    {
      "midi": 62,
      "hit": false,
      "t": 4500,
      "d": 120.83333333333394,
      "v": 60
    },
    {
      "midi": 58,
      "hit": false,
      "t": 4500,
      "d": 133.33333333333394,
      "v": 60
    },
    {
      "midi": 72,
      "hit": false,
      "t": 4666.666666666667,
      "d": 145.83333333333394,
      "v": 80
    },
    {
      "midi": 74,
      "hit": false,
      "t": 4833.333333333334,
      "d": 104.16666666666697,
      "v": 76
    },
    {
      "midi": 72,
      "hit": false,
      "t": 5000.000000000001,
      "d": 370.83333333333303,
      "v": 89
    },
    {
      "midi": 36,
      "hit": false,
      "t": 5000.000000000001,
      "d": 191.66666666666697,
      "v": 60
    },
    {
      "midi": 70,
      "hit": false,
      "t": 5500.000000000001,
      "d": 345.83333333333303,
      "v": 98
    },
    {
      "midi": 55,
      "hit": false,
      "t": 5500.000000000001,
      "d": 116.66666666666697,
      "v": 59
    },
    {
      "midi": 52,
      "hit": false,
      "t": 5500.000000000001,
      "d": 129.16666666666697,
      "v": 59
    },
    {
      "midi": 58,
      "hit": false,
      "t": 5500.000000000001,
      "d": 187.5,
      "v": 59
    },
    {
      "midi": 71,
      "hit": false,
      "t": 5833.333333333334,
      "d": 179.16666666666697,
      "v": 76
    },
    {
      "midi": 72,
      "hit": false,
      "t": 6000.000000000001,
      "d": 375,
      "v": 93
    },
    {
      "midi": 41,
      "hit": false,
      "t": 6000.000000000001,
      "d": 187.5,
      "v": 59
    },
    {
      "midi": 68,
      "hit": false,
      "t": 6333.333333333334,
      "d": 195.83333333333394,
      "v": 69
    },
    {
      "midi": 69,
      "hit": false,
      "t": 6500.000000000001,
      "d": 354.16666666666697,
      "v": 72
    },
    {
      "midi": 53,
      "hit": false,
      "t": 6500.000000000001,
      "d": 116.66666666666697,
      "v": 58
    },
    {
      "midi": 57,
      "hit": false,
      "t": 6500.000000000001,
      "d": 120.83333333333394,
      "v": 58
    },
    {
      "midi": 60,
      "hit": false,
      "t": 6500.000000000001,
      "d": 145.83333333333394,
      "v": 58
    },
    {
      "midi": 64,
      "hit": false,
      "t": 6833.333333333335,
      "d": 208.33333333333303,
      "v": 74
    },
    {
      "midi": 65,
      "hit": false,
      "t": 7000.000000000001,
      "d": 191.66666666666697,
      "v": 85
    },
    {
      "midi": 38,
      "hit": false,
      "t": 7000.000000000002,
      "d": 179.16666666666697,
      "v": 57
    },
    {
      "midi": 69,
      "hit": false,
      "t": 7333.333333333335,
      "d": 400,
      "v": 76
    },
    {
      "midi": 53,
      "hit": false,
      "t": 7500.000000000002,
      "d": 87.5,
      "v": 56
    },
    {
      "midi": 57,
      "hit": false,
      "t": 7500.000000000002,
      "d": 129.16666666666697,
      "v": 56
    },
    {
      "midi": 60,
      "hit": false,
      "t": 7500.000000000002,
      "d": 154.16666666666697,
      "v": 56
    },
    {
      "midi": 43,
      "hit": false,
      "t": 8000.000000000002,
      "d": 150,
      "v": 56
    },
    {
      "midi": 67,
      "hit": false,
      "t": 8500.000000000002,
      "d": 195.83333333333212,
      "v": 85
    },
    {
      "midi": 55,
      "hit": false,
      "t": 8500.000000000002,
      "d": 133.33333333333394,
      "v": 56
    },
    {
      "midi": 58,
      "hit": false,
      "t": 8500.000000000002,
      "d": 166.66666666666788,
      "v": 56
    },
    {
      "midi": 69,
      "hit": false,
      "t": 8666.666666666668,
      "d": 166.66666666666606,
      "v": 72
    },
    {
      "midi": 70,
      "hit": false,
      "t": 8833.333333333334,
      "d": 183.33333333333212,
      "v": 72
    },
    {
      "midi": 69,
      "hit": false,
      "t": 9000,
      "d": 495.8333333333321,
      "v": 76
    },
    {
      "midi": 36,
      "hit": false,
      "t": 9000.000000000004,
      "d": 141.66666666666606,
      "v": 57
    },
    {
      "midi": 67,
      "hit": false,
      "t": 9499.999999999998,
      "d": 387.5,
      "v": 85
    },
    {
      "midi": 60,
      "hit": false,
      "t": 9500.000000000004,
      "d": 129.16666666666606,
      "v": 57
    },
    {
      "midi": 52,
      "hit": false,
      "t": 9500.000000000004,
      "d": 137.5,
      "v": 57
    },
    {
      "midi": 58,
      "hit": false,
      "t": 9500.000000000004,
      "d": 158.33333333333394,
      "v": 57
    },
    {
      "midi": 68,
      "hit": false,
      "t": 9833.333333333332,
      "d": 175,
      "v": 80
    },
    {
      "midi": 69,
      "hit": false,
      "t": 9999.999999999998,
      "d": 370.83333333333394,
      "v": 89
    },
    {
      "midi": 41,
      "hit": false,
      "t": 10000.000000000004,
      "d": 187.5,
      "v": 56
    },
    {
      "midi": 93,
      "hit": false,
      "t": 10499.999999999998,
      "d": 133.33333333333394,
      "v": 80
    },
    {
      "midi": 96,
      "hit": false,
      "t": 10499.999999999998,
      "d": 133.33333333333394,
      "v": 85
    },
    {
      "midi": 53,
      "hit": false,
      "t": 10500.000000000004,
      "d": 108.33333333333394,
      "v": 55
    },
    {
      "midi": 57,
      "hit": false,
      "t": 10500.000000000004,
      "d": 120.83333333333394,
      "v": 55
    },
    {
      "midi": 60,
      "hit": false,
      "t": 10500.000000000004,
      "d": 150,
      "v": 55
    },
    {
      "midi": 89,
      "hit": false,
      "t": 10999.999999999998,
      "d": 95.83333333333394,
      "v": 80
    },
    {
      "midi": 93,
      "hit": false,
      "t": 10999.999999999998,
      "d": 104.16666666666788,
      "v": 76
    },
    {
      "midi": 38,
      "hit": false,
      "t": 11000.000000000004,
      "d": 166.66666666666606,
      "v": 55
    },
    {
      "midi": 86,
      "hit": false,
      "t": 11333.333333333332,
      "d": 112.5,
      "v": 93
    },
    {
      "midi": 89,
      "hit": false,
      "t": 11333.333333333332,
      "d": 120.83333333333394,
      "v": 85
    },
    {
      "midi": 53,
      "hit": false,
      "t": 11500.000000000004,
      "d": 137.5,
      "v": 60
    },
    {
      "midi": 57,
      "hit": false,
      "t": 11500.000000000004,
      "d": 150,
      "v": 60
    },
    {
      "midi": 60,
      "hit": false,
      "t": 11500.000000000004,
      "d": 154.16666666666606,
      "v": 60
    },
    {
      "midi": 86,
      "hit": false,
      "t": 11833.333333333332,
      "d": 154.16666666666606,
      "v": 68
    },
    {
      "midi": 82,
      "hit": false,
      "t": 11833.333333333332,
      "d": 200,
      "v": 64
    },
    {
      "midi": 43,
      "hit": false,
      "t": 12000.000000000004,
      "d": 150,
      "v": 61
    },
    {
      "midi": 77,
      "hit": false,
      "t": 12166.666666666666,
      "d": 308.33333333333394,
      "v": 89
    },
    {
      "midi": 55,
      "hit": false,
      "t": 12500.000000000004,
      "d": 120.83333333333394,
      "v": 59
    },
    {
      "midi": 50,
      "hit": false,
      "t": 12500.000000000004,
      "d": 137.5,
      "v": 59
    },
    {
      "midi": 58,
      "hit": false,
      "t": 12500.000000000004,
      "d": 187.5,
      "v": 59
    },
    {
      "midi": 79,
      "hit": false,
      "t": 12666.666666666666,
      "d": 162.5,
      "v": 85
    },
    {
      "midi": 81,
      "hit": false,
      "t": 12833.333333333332,
      "d": 129.16666666666606,
      "v": 76
    },
    {
      "midi": 77,
      "hit": false,
      "t": 12999.999999999998,
      "d": 166.66666666666606,
      "v": 89
    },
    {
      "midi": 36,
      "hit": false,
      "t": 13000.000000000004,
      "d": 166.66666666666606,
      "v": 59
    },
    {
      "midi": 79,
      "hit": false,
      "t": 13333.33333333333,
      "d": 375,
      "v": 89
    },
    {
      "midi": 52,
      "hit": false,
      "t": 13500.000000000004,
      "d": 116.66666666666606,
      "v": 57
    },
    {
      "midi": 55,
      "hit": false,
      "t": 13500.000000000004,
      "d": 116.66666666666606,
      "v": 57
    },
    {
      "midi": 58,
      "hit": false,
      "t": 13500.000000000004,
      "d": 162.5,
      "v": 57
    },
    {
      "midi": 77,
      "hit": false,
      "t": 13833.33333333333,
      "d": 337.5,
      "v": 85
    },
    {
      "midi": 41,
      "hit": false,
      "t": 14000.000000000004,
      "d": 200,
      "v": 57
    },
    {
      "midi": 60,
      "hit": false,
      "t": 14499.999999999996,
      "d": 112.5,
      "v": 85
    },
    {
      "midi": 53,
      "hit": false,
      "t": 14500.000000000004,
      "d": 87.5,
      "v": 56
    },
    {
      "midi": 57,
      "hit": false,
      "t": 14500.000000000004,
      "d": 120.83333333333394,
      "v": 56
    },
    {
      "midi": 60,
      "hit": false,
      "t": 14500.000000000004,
      "d": 120.83333333333394,
      "v": 56
    },
    {
      "midi": 62,
      "hit": false,
      "t": 14624.999999999996,
      "d": 112.5,
      "v": 72
    },
    {
      "midi": 65,
      "hit": false,
      "t": 14749.999999999996,
      "d": 145.83333333333394,
      "v": 66
    },
    {
      "midi": 69,
      "hit": false,
      "t": 14874.999999999996,
      "d": 54.16666666666788,
      "v": 64
    },
    {
      "midi": 72,
      "hit": false,
      "t": 14999.999999999998,
      "d": 125,
      "v": 93
    },
    {
      "midi": 38,
      "hit": false,
      "t": 15000.000000000004,
      "d": 166.66666666666606,
      "v": 56
    },
    {
      "midi": 74,
      "hit": false,
      "t": 15124.999999999998,
      "d": 150,
      "v": 85
    },
    {
      "midi": 77,
      "hit": false,
      "t": 15249.999999999998,
      "d": 141.66666666666606,
      "v": 72
    },
    {
      "midi": 81,
      "hit": false,
      "t": 15374.999999999998,
      "d": 62.5,
      "v": 68
    },
    {
      "midi": 84,
      "hit": false,
      "t": 15499.999999999998,
      "d": 125,
      "v": 89
    },
    {
      "midi": 53,
      "hit": false,
      "t": 15500.000000000004,
      "d": 100,
      "v": 56
    },
    {
      "midi": 57,
      "hit": false,
      "t": 15500.000000000004,
      "d": 108.33333333333394,
      "v": 56
    },
    {
      "midi": 62,
      "hit": false,
      "t": 15500.000000000004,
      "d": 133.33333333333394,
      "v": 56
    },
    {
      "midi": 86,
      "hit": false,
      "t": 15624.999999999998,
      "d": 166.66666666666606,
      "v": 68
    },
    {
      "midi": 89,
      "hit": false,
      "t": 15749.999999999998,
      "d": 150,
      "v": 85
    },
    {
      "midi": 93,
      "hit": false,
      "t": 15874.999999999998,
      "d": 129.16666666666606,
      "v": 80
    },
    {
      "midi": 91,
      "hit": false,
      "t": 15999.999999999998,
      "d": 166.66666666666606,
      "v": 80
    },
    {
      "midi": 43,
      "hit": false,
      "t": 16000.000000000004,
      "d": 137.5,
      "v": 56
    },
    {
      "midi": 89,
      "hit": false,
      "t": 16124.999999999998,
      "d": 112.5,
      "v": 62
    },
    {
      "midi": 86,
      "hit": false,
      "t": 16249.999999999998,
      "d": 116.66666666666606,
      "v": 62
    },
    {
      "midi": 82,
      "hit": false,
      "t": 16374.999999999998,
      "d": 54.16666666666606,
      "v": 72
    },
    {
      "midi": 79,
      "hit": false,
      "t": 16499.999999999996,
      "d": 100,
      "v": 80
    },
    {
      "midi": 50,
      "hit": false,
      "t": 16500.000000000004,
      "d": 54.16666666666788,
      "v": 58
    },
    {
      "midi": 55,
      "hit": false,
      "t": 16500.000000000004,
      "d": 100,
      "v": 58
    },
    {
      "midi": 58,
      "hit": false,
      "t": 16500.000000000004,
      "d": 175,
      "v": 58
    },
    {
      "midi": 77,
      "hit": false,
      "t": 16624.999999999996,
      "d": 141.66666666666788,
      "v": 89
    },
    {
      "midi": 74,
      "hit": false,
      "t": 16749.999999999996,
      "d": 133.33333333333212,
      "v": 63
    },
    {
      "midi": 75,
      "hit": false,
      "t": 16874.999999999996,
      "d": 95.83333333333212,
      "v": 80
    },
    {
      "midi": 76,
      "hit": false,
      "t": 16999.999999999996,
      "d": 108.33333333333212,
      "v": 89
    },
    {
      "midi": 64,
      "hit": false,
      "t": 17000.000000000004,
      "d": 650,
      "v": 58
    },
    {
      "midi": 55,
      "hit": false,
      "t": 17000.000000000004,
      "d": 654.1666666666679,
      "v": 58
    },
    {
      "midi": 58,
      "hit": false,
      "t": 17000.000000000004,
      "d": 729.1666666666679,
      "v": 58
    },
    {
      "midi": 72,
      "hit": false,
      "t": 17499.999999999996,
      "d": 325,
      "v": 85
    },
    {
      "midi": 69,
      "hit": false,
      "t": 17833.33333333333,
      "d": 183.33333333333576,
      "v": 72
    },
    {
      "midi": 77,
      "hit": false,
      "t": 17999.999999999996,
      "d": 295.83333333333576,
      "v": 89
    },
    {
      "midi": 41,
      "hit": false,
      "t": 18000.000000000004,
      "d": 170.83333333333212,
      "v": 59
    },
    {
      "midi": 72,
      "hit": false,
      "t": 18333.333333333332,
      "d": 175,
      "v": 72
    },
    {
      "midi": 74,
      "hit": false,
      "t": 18500,
      "d": 341.66666666666424,
      "v": 80
    },
    {
      "midi": 53,
      "hit": false,
      "t": 18500.000000000004,
      "d": 79.16666666666788,
      "v": 59
    },
    {
      "midi": 57,
      "hit": false,
      "t": 18500.000000000004,
      "d": 83.33333333333576,
      "v": 59
    },
    {
      "midi": 60,
      "hit": false,
      "t": 18500.000000000004,
      "d": 108.33333333333576,
      "v": 59
    },
    {
      "midi": 69,
      "hit": false,
      "t": 18833.333333333332,
      "d": 224.99999999999636,
      "v": 72
    },
    {
      "midi": 72,
      "hit": false,
      "t": 18999.999999999996,
      "d": 337.5,
      "v": 89
    },
    {
      "midi": 38,
      "hit": false,
      "t": 19000.000000000007,
      "d": 154.16666666666788,
      "v": 59
    },
    {
      "midi": 74,
      "hit": false,
      "t": 19333.33333333333,
      "d": 433.33333333333576,
      "v": 80
    },
    {
      "midi": 53,
      "hit": false,
      "t": 19500.000000000007,
      "d": 91.66666666666788,
      "v": 60
    },
    {
      "midi": 57,
      "hit": false,
      "t": 19500.000000000007,
      "d": 120.83333333333576,
      "v": 60
    },
    {
      "midi": 62,
      "hit": false,
      "t": 19500.000000000007,
      "d": 150.00000000000364,
      "v": 60
    },
    {
      "midi": 43,
      "hit": false,
      "t": 20000.00000000001,
      "d": 129.16666666666788,
      "v": 60
    },
    {
      "midi": 70,
      "hit": false,
      "t": 20499.999999999996,
      "d": 166.66666666666788,
      "v": 89
    },
    {
      "midi": 62,
      "hit": false,
      "t": 20500.00000000001,
      "d": 79.16666666666788,
      "v": 58
    },
    {
      "midi": 55,
      "hit": false,
      "t": 20500.00000000001,
      "d": 87.5,
      "v": 58
    },
    {
      "midi": 58,
      "hit": false,
      "t": 20500.00000000001,
      "d": 120.83333333333212,
      "v": 58
    },
    {
      "midi": 72,
      "hit": false,
      "t": 20666.666666666664,
      "d": 183.33333333333576,
      "v": 76
    },
    {
      "midi": 73,
      "hit": false,
      "t": 20833.333333333332,
      "d": 179.16666666666788,
      "v": 72
    },
    {
      "midi": 72,
      "hit": false,
      "t": 21000,
      "d": 379.16666666666424,
      "v": 89
    },
    {
      "midi": 36,
      "hit": false,
      "t": 21000.00000000001,
      "d": 145.83333333333212,
      "v": 58
    },
    {
      "midi": 70,
      "hit": false,
      "t": 21333.333333333332,
      "d": 279.16666666666424,
      "v": 80
    },
    {
      "midi": 55,
      "hit": false,
      "t": 21500.00000000001,
      "d": 125,
      "v": 57
    },
    {
      "midi": 58,
      "hit": false,
      "t": 21500.00000000001,
      "d": 141.66666666666788,
      "v": 57
    },
    {
      "midi": 61,
      "hit": false,
      "t": 21500.00000000001,
      "d": 141.66666666666788,
      "v": 57
    },
    {
      "midi": 71,
      "hit": false,
      "t": 21666.666666666664,
      "d": 129.16666666666788,
      "v": 70
    },
    {
      "midi": 72,
      "hit": false,
      "t": 21833.333333333332,
      "d": 208.33333333333576,
      "v": 72
    },
    {
      "midi": 77,
      "hit": false,
      "t": 22000,
      "d": 387.50000000000364,
      "v": 98
    },
    {
      "midi": 41,
      "hit": false,
      "t": 22000.00000000001,
      "d": 133.33333333333212,
      "v": 57
    },
    {
      "midi": 72,
      "hit": false,
      "t": 22333.333333333336,
      "d": 187.5,
      "v": 68
    },
    {
      "midi": 74,
      "hit": false,
      "t": 22500.000000000004,
      "d": 370.8333333333321,
      "v": 85
    },
    {
      "midi": 53,
      "hit": false,
      "t": 22500.00000000001,
      "d": 112.5,
      "v": 56
    },
    {
      "midi": 57,
      "hit": false,
      "t": 22500.00000000001,
      "d": 112.5,
      "v": 56
    },
    {
      "midi": 60,
      "hit": false,
      "t": 22500.00000000001,
      "d": 158.33333333333212,
      "v": 56
    },
    {
      "midi": 69,
      "hit": false,
      "t": 22833.333333333336,
      "d": 241.66666666666788,
      "v": 72
    },
    {
      "midi": 72,
      "hit": false,
      "t": 23000.000000000004,
      "d": 845.8333333333321,
      "v": 85
    },
    {
      "midi": 38,
      "hit": false,
      "t": 23000.00000000001,
      "d": 133.33333333333212,
      "v": 55
    },
    {
      "midi": 74,
      "hit": false,
      "t": 23333.333333333336,
      "d": 333.3333333333321,
      "v": 93
    },
    {
      "midi": 53,
      "hit": false,
      "t": 23500.00000000001,
      "d": 104.16666666666788,
      "v": 60
    },
    {
      "midi": 57,
      "hit": false,
      "t": 23500.00000000001,
      "d": 120.83333333333576,
      "v": 64
    },
    {
      "midi": 60,
      "hit": false,
      "t": 23500.00000000001,
      "d": 158.33333333333576,
      "v": 62
    },
    {
      "midi": 43,
      "hit": false,
      "t": 24000.000000000015,
      "d": 108.33333333333212,
      "v": 59
    },
    {
      "midi": 67,
      "hit": false,
      "t": 24500.000000000004,
      "d": 158.33333333333212,
      "v": 76
    },
    {
      "midi": 55,
      "hit": false,
      "t": 24500.000000000015,
      "d": 125,
      "v": 59
    },
    {
      "midi": 58,
      "hit": false,
      "t": 24500.000000000015,
      "d": 137.5,
      "v": 59
    },
    {
      "midi": 62,
      "hit": false,
      "t": 24500.000000000015,
      "d": 150,
      "v": 59
    },
    {
      "midi": 69,
      "hit": false,
      "t": 24666.666666666668,
      "d": 170.83333333333576,
      "v": 72
    },
    {
      "midi": 70,
      "hit": false,
      "t": 24833.333333333336,
      "d": 154.16666666666788,
      "v": 89
    },
    {
      "midi": 69,
      "hit": false,
      "t": 25000.000000000004,
      "d": 212.5,
      "v": 85
    },
    {
      "midi": 36,
      "hit": false,
      "t": 25000.000000000015,
      "d": 108.33333333333212,
      "v": 60
    },
    {
      "midi": 70,
      "hit": false,
      "t": 25166.66666666667,
      "d": 166.66666666666424,
      "v": 76
    },
    {
      "midi": 72,
      "hit": false,
      "t": 25333.333333333336,
      "d": 158.33333333333212,
      "v": 68
    },
    {
      "midi": 70,
      "hit": false,
      "t": 25500,
      "d": 191.66666666666788,
      "v": 93
    },
    {
      "midi": 55,
      "hit": false,
      "t": 25500.000000000015,
      "d": 141.66666666666788,
      "v": 60
    },
    {
      "midi": 58,
      "hit": false,
      "t": 25500.000000000015,
      "d": 183.33333333333576,
      "v": 60
    },
    {
      "midi": 61,
      "hit": false,
      "t": 25500.000000000015,
      "d": 183.33333333333576,
      "v": 60
    },
    {
      "midi": 72,
      "hit": false,
      "t": 25666.666666666668,
      "d": 158.33333333333212,
      "v": 93
    },
    {
      "midi": 74,
      "hit": false,
      "t": 25833.333333333332,
      "d": 129.16666666666788,
      "v": 80
    },
    {
      "midi": 77,
      "hit": false,
      "t": 26000,
      "d": 112.5,
      "v": 107
    },
    {
      "midi": 41,
      "hit": false,
      "t": 26000.00000000002,
      "d": 137.5,
      "v": 60
    },
    {
      "midi": 77,
      "hit": false,
      "t": 26500,
      "d": 141.66666666666788,
      "v": 89
    },
    {
      "midi": 53,
      "hit": false,
      "t": 26500.00000000002,
      "d": 129.16666666666788,
      "v": 60
    },
    {
      "midi": 57,
      "hit": false,
      "t": 26500.00000000002,
      "d": 129.16666666666788,
      "v": 60
    },
    {
      "midi": 60,
      "hit": false,
      "t": 26500.00000000002,
      "d": 158.33333333333576,
      "v": 60
    },
    {
      "midi": 79,
      "hit": false,
      "t": 26625,
      "d": 170.83333333333212,
      "v": 80
    },
    {
      "midi": 81,
      "hit": false,
      "t": 26750,
      "d": 125,
      "v": 66
    },
    {
      "midi": 84,
      "hit": false,
      "t": 26875,
      "d": 83.33333333333212,
      "v": 70
    },
    {
      "midi": 89,
      "hit": false,
      "t": 27000,
      "d": 154.16666666666788,
      "v": 102
    },
    {
      "midi": 38,
      "hit": false,
      "t": 27000.000000000022,
      "d": 150,
      "v": 59
    },
    {
      "midi": 86,
      "hit": false,
      "t": 27125,
      "d": 162.5,
      "v": 85
    },
    {
      "midi": 84,
      "hit": false,
      "t": 27250,
      "d": 100,
      "v": 76
    },
    {
      "midi": 81,
      "hit": false,
      "t": 27375,
      "d": 70.83333333333212,
      "v": 85
    },
    {
      "midi": 77,
      "hit": false,
      "t": 27500,
      "d": 166.66666666666788,
      "v": 98
    },
    {
      "midi": 53,
      "hit": false,
      "t": 27500.000000000022,
      "d": 112.5,
      "v": 59
    },
    {
      "midi": 57,
      "hit": false,
      "t": 27500.000000000022,
      "d": 129.16666666666788,
      "v": 59
    },
    {
      "midi": 74,
      "hit": false,
      "t": 27625,
      "d": 112.5,
      "v": 69
    },
    {
      "midi": 72,
      "hit": false,
      "t": 27750,
      "d": 104.16666666666788,
      "v": 89
    },
    {
      "midi": 69,
      "hit": false,
      "t": 27875,
      "d": 116.66666666666788,
      "v": 93
    },
    {
      "midi": 67,
      "hit": false,
      "t": 28000,
      "d": 66.66666666666788,
      "v": 98
    },
    {
      "midi": 43,
      "hit": false,
      "t": 28000.000000000022,
      "d": 120.83333333333212,
      "v": 58
    },
    {
      "midi": 65,
      "hit": false,
      "t": 28333.333333333336,
      "d": 62.5,
      "v": 72
    },
    {
      "midi": 74,
      "hit": false,
      "t": 28333.333333333336,
      "d": 87.5,
      "v": 76
    },
    {
      "midi": 77,
      "hit": false,
      "t": 28333.333333333336,
      "d": 87.5,
      "v": 80
    },
    {
      "midi": 70,
      "hit": false,
      "t": 28333.333333333336,
      "d": 100,
      "v": 68
    },
    {
      "midi": 79,
      "hit": false,
      "t": 28500.000000000004,
      "d": 62.5,
      "v": 56
    },
    {
      "midi": 67,
      "hit": false,
      "t": 28500.000000000004,
      "d": 91.66666666666788,
      "v": 72
    },
    {
      "midi": 55,
      "hit": false,
      "t": 28500.000000000022,
      "d": 129.16666666666788,
      "v": 58
    },
    {
      "midi": 58,
      "hit": false,
      "t": 28500.000000000022,
      "d": 145.83333333333576,
      "v": 58
    },
    {
      "midi": 81,
      "hit": false,
      "t": 28833.33333333334,
      "d": 54.16666666666788,
      "v": 62
    },
    {
      "midi": 69,
      "hit": false,
      "t": 28833.33333333334,
      "d": 66.66666666666788,
      "v": 72
    },
    {
      "midi": 65,
      "hit": false,
      "t": 29000.000000000007,
      "d": 66.66666666666788,
      "v": 80
    },
    {
      "midi": 77,
      "hit": false,
      "t": 29000.000000000007,
      "d": 66.66666666666788,
      "v": 89
    },
    {
      "midi": 36,
      "hit": false,
      "t": 29000.000000000025,
      "d": 108.33333333333212,
      "v": 58
    },
    {
      "midi": 70,
      "hit": false,
      "t": 29333.333333333343,
      "d": 325,
      "v": 76
    },
    {
      "midi": 73,
      "hit": false,
      "t": 29333.333333333343,
      "d": 333.3333333333321,
      "v": 62
    },
    {
      "midi": 79,
      "hit": false,
      "t": 29333.333333333343,
      "d": 333.3333333333321,
      "v": 62
    },
    {
      "midi": 67,
      "hit": false,
      "t": 29333.333333333343,
      "d": 366.66666666666424,
      "v": 80
    },
    {
      "midi": 36,
      "hit": false,
      "t": 29333.333333333358,
      "d": 54.16666666666788,
      "v": 58
    },
    {
      "midi": 55,
      "hit": false,
      "t": 29333.333333333358,
      "d": 533.3333333333358,
      "v": 58
    },
    {
      "midi": 58,
      "hit": false,
      "t": 29333.333333333358,
      "d": 545.8333333333358,
      "v": 58
    },
    {
      "midi": 61,
      "hit": false,
      "t": 29333.333333333358,
      "d": 587.5000000000036,
      "v": 58
    },
    {
      "midi": 72,
      "hit": false,
      "t": 29833.33333333334,
      "d": 212.5,
      "v": 80
    },
    {
      "midi": 69,
      "hit": false,
      "t": 29833.33333333334,
      "d": 220.83333333333212,
      "v": 64
    },
    {
      "midi": 77,
      "hit": false,
      "t": 29833.33333333334,
      "d": 220.83333333333212,
      "v": 76
    },
    {
      "midi": 65,
      "hit": false,
      "t": 29833.33333333334,
      "d": 229.16666666666424,
      "v": 53
    },
    {
      "midi": 41,
      "hit": false,
      "t": 30000.00000000003,
      "d": 125,
      "v": 57
    },
    {
      "midi": 77,
      "hit": false,
      "t": 30500.000000000004,
      "d": 170.83333333333212,
      "v": 98
    },
    {
      "midi": 53,
      "hit": false,
      "t": 30500.00000000003,
      "d": 108.33333333333212,
      "v": 57
    },
    {
      "midi": 57,
      "hit": false,
      "t": 30500.00000000003,
      "d": 129.16666666666424,
      "v": 57
    },
    {
      "midi": 60,
      "hit": false,
      "t": 30500.00000000003,
      "d": 141.66666666666424,
      "v": 57
    },
    {
      "midi": 81,
      "hit": false,
      "t": 30625.000000000004,
      "d": 220.83333333333212,
      "v": 72
    },
    {
      "midi": 84,
      "hit": false,
      "t": 30750.000000000004,
      "d": 158.33333333333212,
      "v": 76
    },
    {
      "midi": 86,
      "hit": false,
      "t": 30875.000000000004,
      "d": 150,
      "v": 72
    },
    {
      "midi": 89,
      "hit": false,
      "t": 31000.000000000004,
      "d": 175,
      "v": 102
    },
    {
      "midi": 46,
      "hit": false,
      "t": 31000.000000000025,
      "d": 100,
      "v": 65
    },
    {
      "midi": 86,
      "hit": false,
      "t": 31125.000000000004,
      "d": 154.16666666666788,
      "v": 76
    },
    {
      "midi": 82,
      "hit": false,
      "t": 31250.000000000004,
      "d": 158.33333333333212,
      "v": 66
    },
    {
      "midi": 77,
      "hit": false,
      "t": 31375.000000000004,
      "d": 133.33333333333212,
      "v": 76
    },
    {
      "midi": 89,
      "hit": false,
      "t": 31500.000000000004,
      "d": 162.5,
      "v": 102
    },
    {
      "midi": 53,
      "hit": false,
      "t": 31500.000000000025,
      "d": 79.16666666666788,
      "v": 64
    },
    {
      "midi": 62,
      "hit": false,
      "t": 31500.000000000025,
      "d": 95.83333333333576,
      "v": 65
    },
    {
      "midi": 58,
      "hit": false,
      "t": 31500.000000000025,
      "d": 150.00000000000364,
      "v": 65
    },
    {
      "midi": 85,
      "hit": false,
      "t": 31625.000000000004,
      "d": 166.66666666666788,
      "v": 93
    },
    {
      "midi": 82,
      "hit": false,
      "t": 31750.000000000004,
      "d": 150,
      "v": 68
    },
    {
      "midi": 77,
      "hit": false,
      "t": 31875.000000000004,
      "d": 191.66666666666788,
      "v": 69
    },
    {
      "midi": 84,
      "hit": false,
      "t": 32000.000000000004,
      "d": 91.66666666666788,
      "v": 89
    },
    {
      "midi": 41,
      "hit": false,
      "t": 32000.00000000003,
      "d": 116.66666666666788,
      "v": 62
    },
    {
      "midi": 81,
      "hit": false,
      "t": 32333.33333333334,
      "d": 466.6666666666679,
      "v": 89
    },
    {
      "midi": 53,
      "hit": false,
      "t": 32500.00000000003,
      "d": 87.5,
      "v": 60
    },
    {
      "midi": 57,
      "hit": false,
      "t": 32500.00000000003,
      "d": 100,
      "v": 60
    },
    {
      "midi": 60,
      "hit": false,
      "t": 32500.00000000003,
      "d": 112.5,
      "v": 60
    },
    {
      "midi": 78,
      "hit": false,
      "t": 33000.00000000001,
      "d": 79.16666666666424,
      "v": 34
    },
    {
      "midi": 81,
      "hit": false,
      "t": 33000.00000000001,
      "d": 79.16666666666424,
      "v": 80
    },
    {
      "midi": 72,
      "hit": false,
      "t": 33000.00000000001,
      "d": 87.5,
      "v": 89
    },
    {
      "midi": 75,
      "hit": false,
      "t": 33000.00000000001,
      "d": 91.66666666666424,
      "v": 62
    },
    {
      "midi": 72,
      "hit": false,
      "t": 33333.333333333336,
      "d": 166.66666666666424,
      "v": 57
    },
    {
      "midi": 69,
      "hit": false,
      "t": 33333.333333333336,
      "d": 183.33333333332848,
      "v": 76
    },
    {
      "midi": 75,
      "hit": false,
      "t": 33333.333333333336,
      "d": 229.16666666666424,
      "v": 76
    },
    {
      "midi": 78,
      "hit": false,
      "t": 33333.333333333336,
      "d": 412.5,
      "v": 60
    },
    {
      "midi": 42,
      "hit": false,
      "t": 33500.00000000003,
      "d": 154.16666666666424,
      "v": 59
    },
    {
      "midi": 54,
      "hit": false,
      "t": 33500.00000000003,
      "d": 162.5,
      "v": 59
    },
    {
      "midi": 57,
      "hit": false,
      "t": 33500.00000000003,
      "d": 191.66666666666424,
      "v": 59
    },
    {
      "midi": 60,
      "hit": false,
      "t": 33500.00000000003,
      "d": 220.83333333332848,
      "v": 59
    },
    {
      "midi": 74,
      "hit": false,
      "t": 33833.333333333336,
      "d": 104.16666666666424,
      "v": 89
    },
    {
      "midi": 70,
      "hit": false,
      "t": 33833.333333333336,
      "d": 120.83333333332848,
      "v": 80
    },
    {
      "midi": 77,
      "hit": false,
      "t": 33833.333333333336,
      "d": 133.33333333332848,
      "v": 89
    },
    {
      "midi": 67,
      "hit": false,
      "t": 33833.333333333336,
      "d": 249.99999999999272,
      "v": 98
    },
    {
      "midi": 53,
      "hit": false,
      "t": 34000.00000000002,
      "d": 200,
      "v": 62
    },
    {
      "midi": 50,
      "hit": false,
      "t": 34000.00000000002,
      "d": 212.5,
      "v": 62
    },
    {
      "midi": 55,
      "hit": false,
      "t": 34000.00000000002,
      "d": 233.33333333333576,
      "v": 62
    },
    {
      "midi": 58,
      "hit": false,
      "t": 34000.00000000002,
      "d": 254.16666666667152,
      "v": 62
    },
    {
      "midi": 67,
      "hit": false,
      "t": 34499.99999999999,
      "d": 416.6666666666715,
      "v": 85
    },
    {
      "midi": 68,
      "hit": false,
      "t": 34833.33333333333,
      "d": 87.5,
      "v": 64
    },
    {
      "midi": 69,
      "hit": false,
      "t": 34999.99999999999,
      "d": 329.16666666666424,
      "v": 93
    },
    {
      "midi": 55,
      "hit": false,
      "t": 35000.00000000003,
      "d": 220.83333333333576,
      "v": 64
    },
    {
      "midi": 52,
      "hit": false,
      "t": 35000.00000000003,
      "d": 229.16666666667152,
      "v": 60
    },
    {
      "midi": 58,
      "hit": false,
      "t": 35000.00000000003,
      "d": 229.16666666667152,
      "v": 57
    },
    {
      "midi": 60,
      "hit": false,
      "t": 35000.00000000003,
      "d": 250.00000000000728,
      "v": 55
    },
    {
      "midi": 72,
      "hit": false,
      "t": 35333.33333333332,
      "d": 208.33333333332848,
      "v": 80
    },
    {
      "midi": 69,
      "hit": false,
      "t": 35499.999999999985,
      "d": 358.3333333333285,
      "v": 93
    },
    {
      "midi": 67,
      "hit": false,
      "t": 35999.99999999998,
      "d": 362.5,
      "v": 98
    },
    {
      "midi": 53,
      "hit": false,
      "t": 36000.00000000004,
      "d": 170.83333333333576,
      "v": 62
    },
    {
      "midi": 57,
      "hit": false,
      "t": 36000.00000000004,
      "d": 200,
      "v": 62
    },
    {
      "midi": 60,
      "hit": false,
      "t": 36000.00000000004,
      "d": 204.16666666666424,
      "v": 62
    },
    {
      "midi": 65,
      "hit": false,
      "t": 36333.333333333314,
      "d": 475,
      "v": 85
    },
    {
      "midi": 72,
      "hit": false,
      "t": 36499.99999999998,
      "d": 150,
      "v": 89
    },
    {
      "midi": 76,
      "hit": false,
      "t": 36624.99999999998,
      "d": 104.16666666666424,
      "v": 68
    },
    {
      "midi": 79,
      "hit": false,
      "t": 36749.99999999998,
      "d": 141.66666666666424,
      "v": 62
    },
    {
      "midi": 76,
      "hit": false,
      "t": 36874.99999999998,
      "d": 75,
      "v": 69
    },
    {
      "midi": 77,
      "hit": false,
      "t": 36999.99999999998,
      "d": 150,
      "v": 71
    },
    {
      "midi": 81,
      "hit": false,
      "t": 37124.99999999998,
      "d": 129.16666666666424,
      "v": 68
    },
    {
      "midi": 86,
      "hit": false,
      "t": 37249.99999999998,
      "d": 120.83333333332848,
      "v": 80
    },
    {
      "midi": 81,
      "hit": false,
      "t": 37374.99999999997,
      "d": 66.66666666666424,
      "v": 67
    },
    {
      "midi": 84,
      "hit": false,
      "t": 37499.99999999997,
      "d": 104.16666666666424,
      "v": 91
    },
    {
      "midi": 67,
      "hit": false,
      "t": 37999.99999999997,
      "d": 179.16666666666424,
      "v": 107
    },
    {
      "midi": 50,
      "hit": false,
      "t": 38000.00000000004,
      "d": 237.5,
      "v": 58
    },
    {
      "midi": 53,
      "hit": false,
      "t": 38000.00000000004,
      "d": 241.66666666666424,
      "v": 58
    },
    {
      "midi": 55,
      "hit": false,
      "t": 38000.00000000004,
      "d": 258.3333333333285,
      "v": 58
    },
    {
      "midi": 58,
      "hit": false,
      "t": 38000.00000000004,
      "d": 504.16666666666424,
      "v": 58
    },
    {
      "midi": 67,
      "hit": false,
      "t": 38499.99999999997,
      "d": 391.6666666666715,
      "v": 80
    },
    {
      "midi": 68,
      "hit": false,
      "t": 38833.33333333331,
      "d": 58.33333333333576,
      "v": 60
    },
    {
      "midi": 69,
      "hit": false,
      "t": 38999.99999999998,
      "d": 345.83333333333576,
      "v": 89
    },
    {
      "midi": 52,
      "hit": false,
      "t": 39000.00000000004,
      "d": 195.83333333333576,
      "v": 64
    },
    {
      "midi": 55,
      "hit": false,
      "t": 39000.00000000004,
      "d": 195.83333333333576,
      "v": 64
    },
    {
      "midi": 60,
      "hit": false,
      "t": 39000.00000000004,
      "d": 225,
      "v": 64
    },
    {
      "midi": 58,
      "hit": false,
      "t": 39000.00000000004,
      "d": 229.16666666666424,
      "v": 64
    },
    {
      "midi": 72,
      "hit": false,
      "t": 39333.333333333314,
      "d": 220.83333333332848,
      "v": 85
    },
    {
      "midi": 69,
      "hit": false,
      "t": 39499.99999999998,
      "d": 316.66666666666424,
      "v": 89
    },
    {
      "midi": 64,
      "hit": false,
      "t": 39833.33333333331,
      "d": 175,
      "v": 76
    },
    {
      "midi": 67,
      "hit": false,
      "t": 39999.99999999997,
      "d": 350,
      "v": 93
    },
    {
      "midi": 53,
      "hit": false,
      "t": 40000.00000000004,
      "d": 250,
      "v": 58
    },
    {
      "midi": 60,
      "hit": false,
      "t": 40000.00000000004,
      "d": 250,
      "v": 58
    },
    {
      "midi": 57,
      "hit": false,
      "t": 40000.00000000004,
      "d": 266.66666666666424,
      "v": 58
    },
    {
      "midi": 65,
      "hit": false,
      "t": 40333.33333333331,
      "d": 333.3333333333285,
      "v": 89
    },
    {
      "midi": 93,
      "hit": false,
      "t": 40499.99999999997,
      "d": 112.5,
      "v": 102
    },
    {
      "midi": 91,
      "hit": false,
      "t": 40624.99999999997,
      "d": 162.5,
      "v": 72
    },
    {
      "midi": 89,
      "hit": false,
      "t": 40749.99999999997,
      "d": 170.83333333333576,
      "v": 72
    },
    {
      "midi": 86,
      "hit": false,
      "t": 40874.99999999997,
      "d": 112.5,
      "v": 64
    },
    {
      "midi": 84,
      "hit": false,
      "t": 40999.99999999997,
      "d": 70.83333333333576,
      "v": 85
    },
    {
      "midi": 81,
      "hit": false,
      "t": 41124.99999999997,
      "d": 137.5,
      "v": 76
    },
    {
      "midi": 79,
      "hit": false,
      "t": 41249.99999999997,
      "d": 166.66666666666424,
      "v": 76
    },
    {
      "midi": 77,
      "hit": false,
      "t": 41374.99999999997,
      "d": 125,
      "v": 76
    },
    {
      "midi": 74,
      "hit": false,
      "t": 41499.99999999997,
      "d": 108.33333333333576,
      "v": 72
    },
    {
      "midi": 72,
      "hit": false,
      "t": 41624.99999999997,
      "d": 183.33333333333576,
      "v": 76
    },
    {
      "midi": 69,
      "hit": false,
      "t": 41749.99999999997,
      "d": 120.83333333333576,
      "v": 85
    },
    {
      "midi": 65,
      "hit": false,
      "t": 41874.99999999997,
      "d": 54.16666666666424,
      "v": 65
    },
    {
      "midi": 77,
      "hit": false,
      "t": 41999.99999999997,
      "d": 304.16666666666424,
      "v": 93
    },
    {
      "midi": 53,
      "hit": false,
      "t": 42000.00000000004,
      "d": 187.5,
      "v": 64
    },
    {
      "midi": 56,
      "hit": false,
      "t": 42000.00000000004,
      "d": 204.16666666666424,
      "v": 64
    },
    {
      "midi": 49,
      "hit": false,
      "t": 42000.00000000004,
      "d": 229.16666666666424,
      "v": 64
    },
    {
      "midi": 73,
      "hit": false,
      "t": 42333.3333333333,
      "d": 183.33333333332848,
      "v": 72
    },
    {
      "midi": 77,
      "hit": false,
      "t": 42499.99999999996,
      "d": 150,
      "v": 76
    },
    {
      "midi": 78,
      "hit": false,
      "t": 42833.3333333333,
      "d": 79.16666666666424,
      "v": 68
    },
    {
      "midi": 79,
      "hit": false,
      "t": 42999.99999999996,
      "d": 325,
      "v": 98
    },
    {
      "midi": 51,
      "hit": false,
      "t": 43000.00000000004,
      "d": 150,
      "v": 60
    },
    {
      "midi": 55,
      "hit": false,
      "t": 43000.00000000004,
      "d": 150,
      "v": 60
    },
    {
      "midi": 58,
      "hit": false,
      "t": 43000.00000000004,
      "d": 187.5,
      "v": 60
    },
    {
      "midi": 75,
      "hit": false,
      "t": 43333.3333333333,
      "d": 175,
      "v": 64
    },
    {
      "midi": 79,
      "hit": false,
      "t": 43499.99999999996,
      "d": 133.33333333333576,
      "v": 93
    },
    {
      "midi": 75,
      "hit": false,
      "t": 43999.99999999996,
      "d": 312.5,
      "v": 93
    },
    {
      "midi": 51,
      "hit": false,
      "t": 44000.00000000004,
      "d": 179.16666666666424,
      "v": 59
    },
    {
      "midi": 56,
      "hit": false,
      "t": 44000.00000000004,
      "d": 187.5,
      "v": 59
    },
    {
      "midi": 60,
      "hit": false,
      "t": 44000.00000000004,
      "d": 225,
      "v": 62
    },
    {
      "midi": 77,
      "hit": false,
      "t": 44333.3333333333,
      "d": 179.16666666666424,
      "v": 76
    },
    {
      "midi": 80,
      "hit": false,
      "t": 44499.99999999996,
      "d": 108.33333333333576,
      "v": 93
    },
    {
      "midi": 84,
      "hit": false,
      "t": 44833.3333333333,
      "d": 100,
      "v": 85
    },
    {
      "midi": 87,
      "hit": false,
      "t": 44999.99999999996,
      "d": 87.5,
      "v": 107
    },
    {
      "midi": 87,
      "hit": false,
      "t": 45499.99999999996,
      "d": 62.5,
      "v": 107
    },
    {
      "midi": 87,
      "hit": false,
      "t": 45958.3333333333,
      "d": 83.33333333332848,
      "v": 93
    },
    {
      "midi": 88,
      "hit": false,
      "t": 45999.99999999996,
      "d": 179.16666666666424,
      "v": 89
    },
    {
      "midi": 52,
      "hit": false,
      "t": 46000.00000000004,
      "d": 216.66666666666424,
      "v": 65
    },
    {
      "midi": 55,
      "hit": false,
      "t": 46000.00000000004,
      "d": 220.83333333332848,
      "v": 65
    },
    {
      "midi": 60,
      "hit": false,
      "t": 46000.00000000004,
      "d": 258.3333333333285,
      "v": 65
    },
    {
      "midi": 88,
      "hit": false,
      "t": 46333.33333333329,
      "d": 345.83333333333576,
      "v": 60
    },
    {
      "midi": 84,
      "hit": false,
      "t": 46333.33333333329,
      "d": 429.1666666666715,
      "v": 72
    },
    {
      "midi": 91,
      "hit": false,
      "t": 46333.33333333329,
      "d": 479.1666666666715,
      "v": 89
    },
    {
      "midi": 91,
      "hit": false,
      "t": 46999.99999999996,
      "d": 129.16666666666424,
      "v": 102
    },
    {
      "midi": 53,
      "hit": false,
      "t": 47000.00000000003,
      "d": 183.33333333333576,
      "v": 62
    },
    {
      "midi": 55,
      "hit": false,
      "t": 47000.00000000003,
      "d": 187.5,
      "v": 62
    },
    {
      "midi": 50,
      "hit": false,
      "t": 47000.00000000003,
      "d": 200,
      "v": 62
    },
    {
      "midi": 59,
      "hit": false,
      "t": 47000.00000000003,
      "d": 200,
      "v": 62
    },
    {
      "midi": 86,
      "hit": false,
      "t": 47333.33333333329,
      "d": 375,
      "v": 89
    },
    {
      "midi": 89,
      "hit": false,
      "t": 47333.33333333329,
      "d": 395.83333333333576,
      "v": 85
    },
    {
      "midi": 95,
      "hit": false,
      "t": 47333.33333333329,
      "d": 433.33333333333576,
      "v": 89
    },
    {
      "midi": 96,
      "hit": false,
      "t": 47999.99999999996,
      "d": 545.8333333333358,
      "v": 107
    },
    {
      "midi": 60,
      "hit": false,
      "t": 48000.00000000003,
      "d": 454.16666666666424,
      "v": 64
    },
    {
      "midi": 55,
      "hit": false,
      "t": 48000.00000000003,
      "d": 458.3333333333285,
      "v": 64
    },
    {
      "midi": 52,
      "hit": false,
      "t": 48000.00000000003,
      "d": 483.3333333333285,
      "v": 64
    },
    {
      "midi": 48,
      "hit": false,
      "t": 48000.00000000003,
      "d": 512.4999999999927,
      "v": 64
    },
    {
      "midi": 96,
      "hit": false,
      "t": 48687.49999999996,
      "d": 62.5,
      "v": 78
    },
    {
      "midi": 95,
      "hit": false,
      "t": 48741.66666666663,
      "d": 50,
      "v": 78
    },
    {
      "midi": 93,
      "hit": false,
      "t": 48787.49999999996,
      "d": 41.66666666666424,
      "v": 76
    },
    {
      "midi": 91,
      "hit": false,
      "t": 48820.83333333329,
      "d": 45.83333333333576,
      "v": 77
    },
    {
      "midi": 89,
      "hit": false,
      "t": 48849.99999999996,
      "d": 45.83333333333576,
      "v": 78
    },
    {
      "midi": 88,
      "hit": false,
      "t": 48887.49999999996,
      "d": 29.166666666671517,
      "v": 76
    },
    {
      "midi": 86,
      "hit": false,
      "t": 48924.99999999997,
      "d": 25,
      "v": 78
    },
    {
      "midi": 84,
      "hit": false,
      "t": 48954.166666666635,
      "d": 29.16666666666424,
      "v": 77
    },
    {
      "midi": 83,
      "hit": false,
      "t": 48987.49999999996,
      "d": 25,
      "v": 77
    },
    {
      "midi": 81,
      "hit": false,
      "t": 49016.66666666663,
      "d": 29.16666666666424,
      "v": 75
    },
    {
      "midi": 79,
      "hit": false,
      "t": 49049.999999999956,
      "d": 33.33333333333576,
      "v": 75
    },
    {
      "midi": 77,
      "hit": false,
      "t": 49083.33333333329,
      "d": 33.33333333332848,
      "v": 75
    },
    {
      "midi": 76,
      "hit": false,
      "t": 49112.499999999956,
      "d": 20.833333333328483,
      "v": 77
    },
    {
      "midi": 74,
      "hit": false,
      "t": 49145.833333333285,
      "d": 20.83333333333576,
      "v": 77
    },
    {
      "midi": 72,
      "hit": false,
      "t": 49179.16666666662,
      "d": 20.83333333333576,
      "v": 77
    },
    {
      "midi": 71,
      "hit": false,
      "t": 49212.499999999956,
      "d": 20.83333333333576,
      "v": 77
    },
    {
      "midi": 69,
      "hit": false,
      "t": 49233.33333333329,
      "d": 25,
      "v": 85
    },
    {
      "midi": 67,
      "hit": false,
      "t": 49258.33333333329,
      "d": 25,
      "v": 85
    },
    {
      "midi": 65,
      "hit": false,
      "t": 49279.16666666663,
      "d": 37.5,
      "v": 93
    },
    {
      "midi": 64,
      "hit": false,
      "t": 49308.33333333329,
      "d": 37.5,
      "v": 85
    },
    {
      "midi": 62,
      "hit": false,
      "t": 49341.66666666663,
      "d": 33.33333333333576,
      "v": 79
    },
    {
      "midi": 60,
      "hit": false,
      "t": 49366.66666666663,
      "d": 33.33333333333576,
      "v": 85
    },
    {
      "midi": 59,
      "hit": false,
      "t": 49391.66666666663,
      "d": 29.16666666666424,
      "v": 85
    },
    {
      "midi": 57,
      "hit": false,
      "t": 49416.66666666663,
      "d": 20.833333333328483,
      "v": 89
    },
    {
      "midi": 36,
      "hit": false,
      "t": 49500.00000000002,
      "d": 87.5,
      "v": 64
    },
    {
      "midi": 69,
      "hit": false,
      "t": 49999.999999999956,
      "d": 412.5,
      "v": 72
    },
    {
      "midi": 41,
      "hit": false,
      "t": 50000.00000000002,
      "d": 187.5,
      "v": 64
    },
    {
      "midi": 72,
      "hit": false,
      "t": 50333.33333333329,
      "d": 158.33333333332848,
      "v": 80
    },
    {
      "midi": 74,
      "hit": false,
      "t": 50499.999999999956,
      "d": 200,
      "v": 89
    },
    {
      "midi": 53,
      "hit": false,
      "t": 50500.00000000002,
      "d": 87.5,
      "v": 64
    },
    {
      "midi": 57,
      "hit": false,
      "t": 50500.00000000002,
      "d": 120.83333333333576,
      "v": 64
    },
    {
      "midi": 60,
      "hit": false,
      "t": 50500.00000000002,
      "d": 129.16666666667152,
      "v": 64
    },
    {
      "midi": 77,
      "hit": false,
      "t": 50833.33333333329,
      "d": 870.8333333333358,
      "v": 93
    },
    {
      "midi": 38,
      "hit": false,
      "t": 51000.00000000003,
      "d": 162.5,
      "v": 64
    },
    {
      "midi": 53,
      "hit": false,
      "t": 51500.00000000003,
      "d": 75,
      "v": 63
    },
    {
      "midi": 57,
      "hit": false,
      "t": 51500.00000000003,
      "d": 108.33333333333576,
      "v": 63
    },
    {
      "midi": 62,
      "hit": false,
      "t": 51500.00000000003,
      "d": 120.83333333333576,
      "v": 63
    },
    {
      "midi": 43,
      "hit": false,
      "t": 52000.00000000003,
      "d": 129.16666666666424,
      "v": 63
    },
    {
      "midi": 77,
      "hit": false,
      "t": 52499.99999999996,
      "d": 520.8333333333358,
      "v": 93
    },
    {
      "midi": 55,
      "hit": false,
      "t": 52500.00000000003,
      "d": 104.16666666666424,
      "v": 60
    },
    {
      "midi": 62,
      "hit": false,
      "t": 52500.00000000003,
      "d": 112.5,
      "v": 60
    },
    {
      "midi": 58,
      "hit": false,
      "t": 52500.00000000003,
      "d": 120.83333333333576,
      "v": 60
    },
    {
      "midi": 73,
      "hit": false,
      "t": 52937.49999999996,
      "d": 70.83333333333576,
      "v": 69
    },
    {
      "midi": 74,
      "hit": false,
      "t": 52999.99999999996,
      "d": 300,
      "v": 89
    },
    {
      "midi": 36,
      "hit": false,
      "t": 53000.00000000003,
      "d": 145.83333333333576,
      "v": 60
    },
    {
      "midi": 77,
      "hit": false,
      "t": 53333.3333333333,
      "d": 195.83333333332848,
      "v": 76
    },
    {
      "midi": 74,
      "hit": false,
      "t": 53499.99999999996,
      "d": 129.16666666666424,
      "v": 85
    },
    {
      "midi": 64,
      "hit": false,
      "t": 53500.00000000003,
      "d": 91.66666666666424,
      "v": 60
    },
    {
      "midi": 55,
      "hit": false,
      "t": 53500.00000000003,
      "d": 95.83333333332848,
      "v": 60
    },
    {
      "midi": 58,
      "hit": false,
      "t": 53500.00000000003,
      "d": 112.49999999999272,
      "v": 60
    },
    {
      "midi": 60,
      "hit": false,
      "t": 53500.00000000003,
      "d": 116.66666666665697,
      "v": 60
    },
    {
      "midi": 70,
      "hit": false,
      "t": 53833.33333333329,
      "d": 100,
      "v": 76
    },
    {
      "midi": 69,
      "hit": false,
      "t": 53999.999999999956,
      "d": 379.1666666666715,
      "v": 93
    },
    {
      "midi": 41,
      "hit": false,
      "t": 54000.00000000002,
      "d": 125,
      "v": 60
    },
    {
      "midi": 72,
      "hit": false,
      "t": 54333.33333333329,
      "d": 179.16666666667152,
      "v": 85
    },
    {
      "midi": 74,
      "hit": false,
      "t": 54499.99999999996,
      "d": 308.33333333333576,
      "v": 93
    },
    {
      "midi": 53,
      "hit": false,
      "t": 54500.00000000002,
      "d": 104.16666666666424,
      "v": 60
    },
    {
      "midi": 57,
      "hit": false,
      "t": 54500.00000000002,
      "d": 108.33333333332848,
      "v": 60
    },
    {
      "midi": 60,
      "hit": false,
      "t": 54500.00000000002,
      "d": 133.33333333332848,
      "v": 60
    },
    {
      "midi": 72,
      "hit": false,
      "t": 54833.3333333333,
      "d": 120.83333333333576,
      "v": 74
    },
    {
      "midi": 77,
      "hit": false,
      "t": 54999.99999999997,
      "d": 141.66666666666424,
      "v": 89
    },
    {
      "midi": 38,
      "hit": false,
      "t": 55000.000000000015,
      "d": 145.83333333333576,
      "v": 60
    },
    {
      "midi": 81,
      "hit": false,
      "t": 55333.3333333333,
      "d": 562.5,
      "v": 89
    },
    {
      "midi": 53,
      "hit": false,
      "t": 55500.000000000015,
      "d": 125,
      "v": 60
    },
    {
      "midi": 62,
      "hit": false,
      "t": 55500.000000000015,
      "d": 129.16666666666424,
      "v": 60
    },
    {
      "midi": 57,
      "hit": false,
      "t": 55500.000000000015,
      "d": 137.5,
      "v": 60
    },
    {
      "midi": 43,
      "hit": false,
      "t": 56000.000000000015,
      "d": 129.16666666666424,
      "v": 60
    },
    {
      "midi": 77,
      "hit": false,
      "t": 56499.99999999996,
      "d": 216.66666666666424,
      "v": 89
    },
    {
      "midi": 55,
      "hit": false,
      "t": 56500.000000000015,
      "d": 108.33333333333576,
      "v": 60
    },
    {
      "midi": 62,
      "hit": false,
      "t": 56500.000000000015,
      "d": 125,
      "v": 60
    },
    {
      "midi": 58,
      "hit": false,
      "t": 56500.000000000015,
      "d": 208.33333333333576,
      "v": 60
    },
    {
      "midi": 74,
      "hit": false,
      "t": 56666.66666666663,
      "d": 220.83333333332848,
      "v": 72
    },
    {
      "midi": 75,
      "hit": false,
      "t": 56833.33333333329,
      "d": 170.83333333332848,
      "v": 65
    },
    {
      "midi": 76,
      "hit": false,
      "t": 56999.999999999956,
      "d": 141.66666666666424,
      "v": 76
    },
    {
      "midi": 36,
      "hit": false,
      "t": 57000.000000000015,
      "d": 158.33333333333576,
      "v": 60
    },
    {
      "midi": 72,
      "hit": false,
      "t": 57333.333333333285,
      "d": 479.16666666666424,
      "v": 98
    },
    {
      "midi": 74,
      "hit": false,
      "t": 57499.99999999995,
      "d": 429.16666666666424,
      "v": 93
    },
    {
      "midi": 52,
      "hit": false,
      "t": 57500.000000000015,
      "d": 120.83333333333576,
      "v": 60
    },
    {
      "midi": 55,
      "hit": false,
      "t": 57500.000000000015,
      "d": 129.16666666667152,
      "v": 60
    },
    {
      "midi": 60,
      "hit": false,
      "t": 57500.000000000015,
      "d": 137.50000000000728,
      "v": 60
    },
    {
      "midi": 77,
      "hit": false,
      "t": 57999.99999999995,
      "d": 391.6666666666715,
      "v": 102
    },
    {
      "midi": 41,
      "hit": false,
      "t": 58000.00000000002,
      "d": 133.33333333333576,
      "v": 60
    },
    {
      "midi": 81,
      "hit": false,
      "t": 58333.333333333285,
      "d": 212.50000000000728,
      "v": 85
    },
    {
      "midi": 77,
      "hit": false,
      "t": 58499.999999999956,
      "d": 183.33333333333576,
      "v": 85
    },
    {
      "midi": 53,
      "hit": false,
      "t": 58500.00000000002,
      "d": 100,
      "v": 60
    },
    {
      "midi": 57,
      "hit": false,
      "t": 58500.00000000002,
      "d": 145.83333333333576,
      "v": 60
    },
    {
      "midi": 60,
      "hit": false,
      "t": 58500.00000000002,
      "d": 154.16666666667152,
      "v": 60
    },
    {
      "midi": 72,
      "hit": false,
      "t": 58833.33333333329,
      "d": 125,
      "v": 68
    },
    {
      "midi": 74,
      "hit": false,
      "t": 58999.999999999956,
      "d": 441.66666666666424,
      "v": 93
    },
    {
      "midi": 38,
      "hit": false,
      "t": 59000.00000000003,
      "d": 141.66666666666424,
      "v": 59
    },
    {
      "midi": 69,
      "hit": false,
      "t": 59499.999999999956,
      "d": 350,
      "v": 89
    },
    {
      "midi": 53,
      "hit": false,
      "t": 59500.00000000003,
      "d": 108.33333333333576,
      "v": 59
    },
    {
      "midi": 57,
      "hit": false,
      "t": 59500.00000000003,
      "d": 145.83333333333576,
      "v": 58
    },
    {
      "midi": 60,
      "hit": false,
      "t": 59500.00000000003,
      "d": 145.83333333333576,
      "v": 58
    },
    {
      "midi": 43,
      "hit": false,
      "t": 60000.00000000003,
      "d": 112.5,
      "v": 60
    },
    {
      "midi": 67,
      "hit": false,
      "t": 60499.999999999956,
      "d": 170.83333333332848,
      "v": 93
    },
    {
      "midi": 55,
      "hit": false,
      "t": 60500.00000000003,
      "d": 112.5,
      "v": 59
    },
    {
      "midi": 58,
      "hit": false,
      "t": 60500.00000000003,
      "d": 170.83333333333576,
      "v": 59
    },
    {
      "midi": 62,
      "hit": false,
      "t": 60500.00000000003,
      "d": 183.33333333333576,
      "v": 59
    },
    {
      "midi": 69,
      "hit": false,
      "t": 60666.66666666662,
      "d": 170.83333333332848,
      "v": 69
    },
    {
      "midi": 70,
      "hit": false,
      "t": 60833.333333333285,
      "d": 104.16666666666424,
      "v": 72
    },
    {
      "midi": 73,
      "hit": false,
      "t": 60999.99999999995,
      "d": 208.33333333333576,
      "v": 98
    },
    {
      "midi": 36,
      "hit": false,
      "t": 61000.00000000003,
      "d": 137.5,
      "v": 59
    },
    {
      "midi": 72,
      "hit": false,
      "t": 61333.333333333285,
      "d": 170.83333333332848,
      "v": 72
    },
    {
      "midi": 70,
      "hit": false,
      "t": 61499.99999999995,
      "d": 141.66666666666424,
      "v": 76
    },
    {
      "midi": 55,
      "hit": false,
      "t": 61500.00000000003,
      "d": 120.83333333333576,
      "v": 60
    },
    {
      "midi": 61,
      "hit": false,
      "t": 61500.00000000003,
      "d": 129.16666666667152,
      "v": 60
    },
    {
      "midi": 58,
      "hit": false,
      "t": 61500.00000000003,
      "d": 145.83333333333576,
      "v": 60
    },
    {
      "midi": 68,
      "hit": false,
      "t": 61833.33333333328,
      "d": 83.33333333333576,
      "v": 72
    },
    {
      "midi": 69,
      "hit": false,
      "t": 61999.99999999995,
      "d": 366.6666666666715,
      "v": 93
    },
    {
      "midi": 41,
      "hit": false,
      "t": 62000.00000000003,
      "d": 120.83333333333576,
      "v": 60
    },
    {
      "midi": 65,
      "hit": false,
      "t": 62333.333333333285,
      "d": 187.50000000000728,
      "v": 67
    },
    {
      "midi": 60,
      "hit": false,
      "t": 62499.999999999956,
      "d": 362.5,
      "v": 72
    },
    {
      "midi": 53,
      "hit": false,
      "t": 62500.00000000003,
      "d": 129.16666666666424,
      "v": 61
    },
    {
      "midi": 57,
      "hit": false,
      "t": 62500.00000000003,
      "d": 129.16666666666424,
      "v": 61
    },
    {
      "midi": 60,
      "hit": false,
      "t": 62500.00000000003,
      "d": 137.5,
      "v": 61
    },
    {
      "midi": 65,
      "hit": false,
      "t": 62833.33333333329,
      "d": 212.5,
      "v": 85
    },
    {
      "midi": 62,
      "hit": false,
      "t": 62999.999999999956,
      "d": 325,
      "v": 76
    },
    {
      "midi": 53,
      "hit": false,
      "t": 63000.00000000003,
      "d": 116.66666666666424,
      "v": 62
    },
    {
      "midi": 62,
      "hit": false,
      "t": 63000.00000000003,
      "d": 125,
      "v": 62
    },
    {
      "midi": 58,
      "hit": false,
      "t": 63000.00000000003,
      "d": 158.33333333333576,
      "v": 62
    },
    {
      "midi": 65,
      "hit": false,
      "t": 63333.33333333329,
      "d": 95.83333333333576,
      "v": 76
    },
    {
      "midi": 60,
      "hit": false,
      "t": 63333.333333333365,
      "d": 100,
      "v": 63
    },
    {
      "midi": 53,
      "hit": false,
      "t": 63333.333333333365,
      "d": 412.5,
      "v": 63
    },
    {
      "midi": 58,
      "hit": false,
      "t": 63333.333333333365,
      "d": 541.6666666666642,
      "v": 63
    },
    {
      "midi": 69,
      "hit": false,
      "t": 63499.99999999996,
      "d": 95.83333333333576,
      "v": 89
    },
    {
      "midi": 70,
      "hit": false,
      "t": 63833.3333333333,
      "d": 91.66666666666424,
      "v": 98
    },
    {
      "midi": 69,
      "hit": false,
      "t": 63999.99999999996,
      "d": 283.33333333333576,
      "v": 93
    },
    {
      "midi": 53,
      "hit": false,
      "t": 64000.00000000003,
      "d": 304.16666666666424,
      "v": 64
    },
    {
      "midi": 57,
      "hit": false,
      "t": 64000.00000000003,
      "d": 329.16666666666424,
      "v": 64
    },
    {
      "midi": 60,
      "hit": false,
      "t": 64000.00000000003,
      "d": 350,
      "v": 64
    },
    {
      "midi": 65,
      "hit": false,
      "t": 64333.3333333333,
      "d": 308.33333333333576,
      "v": 93
    },
    {
      "midi": 53,
      "hit": false,
      "t": 64500.00000000003,
      "d": 279.16666666666424,
      "v": 64
    },
    {
      "midi": 57,
      "hit": false,
      "t": 64500.00000000003,
      "d": 295.8333333333285,
      "v": 64
    },
    {
      "midi": 60,
      "hit": false,
      "t": 64500.00000000003,
      "d": 295.8333333333285,
      "v": 64
    },
    {
      "midi": 67,
      "hit": false,
      "t": 64999.99999999997,
      "d": 145.83333333333576,
      "v": 65
    },
    {
      "midi": 70,
      "hit": false,
      "t": 65124.99999999997,
      "d": 116.66666666667152,
      "v": 66
    },
    {
      "midi": 73,
      "hit": false,
      "t": 65249.99999999998,
      "d": 120.83333333333576,
      "v": 68
    },
    {
      "midi": 79,
      "hit": false,
      "t": 65374.99999999998,
      "d": 133.33333333333576,
      "v": 89
    },
    {
      "midi": 82,
      "hit": false,
      "t": 65499.99999999998,
      "d": 162.50000000000728,
      "v": 68
    },
    {
      "midi": 85,
      "hit": false,
      "t": 65624.99999999999,
      "d": 125,
      "v": 80
    },
    {
      "midi": 88,
      "hit": false,
      "t": 65749.99999999999,
      "d": 129.16666666667152,
      "v": 55
    },
    {
      "midi": 91,
      "hit": false,
      "t": 65874.99999999999,
      "d": 66.66666666667152,
      "v": 107
    },
    {
      "midi": 53,
      "hit": false,
      "t": 66000.00000000003,
      "d": 108.33333333332848,
      "v": 62
    },
    {
      "midi": 60,
      "hit": false,
      "t": 66000.00000000003,
      "d": 129.16666666665697,
      "v": 62
    },
    {
      "midi": 57,
      "hit": false,
      "t": 66000.00000000003,
      "d": 141.66666666665697,
      "v": 62
    },
    {
      "midi": 81,
      "hit": false,
      "t": 66008.33333333333,
      "d": 91.66666666667152,
      "v": 72
    },
    {
      "midi": 84,
      "hit": false,
      "t": 66016.66666666666,
      "d": 66.66666666667152,
      "v": 89
    },
    {
      "midi": 77,
      "hit": false,
      "t": 66020.83333333333,
      "d": 91.66666666667152,
      "v": 57
    },
    {
      "midi": 72,
      "hit": false,
      "t": 66112.5,
      "d": 75,
      "v": 48
    },
    {
      "midi": 81,
      "hit": false,
      "t": 66179.16666666667,
      "d": 91.66666666665697,
      "v": 76
    },
    {
      "midi": 77,
      "hit": false,
      "t": 66187.5,
      "d": 87.5,
      "v": 62
    },
    {
      "midi": 84,
      "hit": false,
      "t": 66195.83333333333,
      "d": 50,
      "v": 85
    },
    {
      "midi": 72,
      "hit": false,
      "t": 66270.83333333333,
      "d": 79.16666666667152,
      "v": 60
    },
    {
      "midi": 77,
      "hit": false,
      "t": 66345.83333333333,
      "d": 79.16666666668607,
      "v": 60
    },
    {
      "midi": 84,
      "hit": false,
      "t": 66354.16666666667,
      "d": 37.5,
      "v": 72
    },
    {
      "midi": 81,
      "hit": false,
      "t": 66354.16666666667,
      "d": 54.16666666667152,
      "v": 56
    },
    {
      "midi": 72,
      "hit": false,
      "t": 66429.16666666669,
      "d": 58.33333333332848,
      "v": 51
    },
    {
      "midi": 84,
      "hit": false,
      "t": 66491.66666666669,
      "d": 45.83333333332848,
      "v": 72
    },
    {
      "midi": 77,
      "hit": false,
      "t": 66491.66666666669,
      "d": 70.83333333332848,
      "v": 59
    },
    {
      "midi": 81,
      "hit": false,
      "t": 66500.00000000001,
      "d": 54.16666666667152,
      "v": 52
    },
    {
      "midi": 72,
      "hit": false,
      "t": 66575.00000000001,
      "d": 50,
      "v": 49
    },
    {
      "midi": 77,
      "hit": false,
      "t": 66625.00000000001,
      "d": 70.83333333334303,
      "v": 51
    },
    {
      "midi": 81,
      "hit": false,
      "t": 66629.16666666669,
      "d": 54.16666666667152,
      "v": 62
    },
    {
      "midi": 84,
      "hit": false,
      "t": 66645.83333333336,
      "d": 20.833333333328483,
      "v": 57
    },
    {
      "midi": 72,
      "hit": false,
      "t": 66687.50000000003,
      "d": 75,
      "v": 59
    },
    {
      "midi": 81,
      "hit": false,
      "t": 66762.50000000003,
      "d": 54.16666666667152,
      "v": 57
    },
    {
      "midi": 84,
      "hit": false,
      "t": 66770.83333333336,
      "d": 29.166666666671517,
      "v": 64
    },
    {
      "midi": 77,
      "hit": false,
      "t": 66770.83333333336,
      "d": 50.00000000001455,
      "v": 51
    },
    {
      "midi": 72,
      "hit": false,
      "t": 66833.33333333337,
      "d": 62.5,
      "v": 50
    },
    {
      "midi": 81,
      "hit": false,
      "t": 66895.83333333337,
      "d": 54.16666666667152,
      "v": 57
    },
    {
      "midi": 77,
      "hit": false,
      "t": 66900.00000000004,
      "d": 54.16666666667152,
      "v": 49
    },
    {
      "midi": 84,
      "hit": false,
      "t": 66908.33333333337,
      "d": 29.166666666671517,
      "v": 62
    },
    {
      "midi": 72,
      "hit": false,
      "t": 66966.66666666672,
      "d": 70.83333333332848,
      "v": 55
    },
    {
      "midi": 53,
      "hit": false,
      "t": 67000.00000000001,
      "d": 108.33333333332848,
      "v": 63
    },
    {
      "midi": 57,
      "hit": false,
      "t": 67000.00000000001,
      "d": 116.66666666665697,
      "v": 63
    },
    {
      "midi": 50,
      "hit": false,
      "t": 67000.00000000001,
      "d": 124.99999999998545,
      "v": 63
    },
    {
      "midi": 81,
      "hit": false,
      "t": 67041.66666666672,
      "d": 58.333333333343035,
      "v": 56
    },
    {
      "midi": 84,
      "hit": false,
      "t": 67050.00000000004,
      "d": 33.333333333343035,
      "v": 56
    },
    {
      "midi": 77,
      "hit": false,
      "t": 67054.16666666672,
      "d": 54.16666666668607,
      "v": 40
    },
    {
      "midi": 72,
      "hit": false,
      "t": 67104.16666666673,
      "d": 66.66666666667152,
      "v": 59
    },
    {
      "midi": 84,
      "hit": false,
      "t": 67183.3333333334,
      "d": 29.166666666671517,
      "v": 55
    },
    {
      "midi": 81,
      "hit": false,
      "t": 67195.8333333334,
      "d": 33.333333333343035,
      "v": 40
    },
    {
      "midi": 72,
      "hit": false,
      "t": 67245.83333333342,
      "d": 75,
      "v": 56
    },
    {
      "midi": 81,
      "hit": false,
      "t": 67316.66666666674,
      "d": 70.83333333334303,
      "v": 64
    },
    {
      "midi": 77,
      "hit": false,
      "t": 67316.66666666674,
      "d": 75.00000000001455,
      "v": 55
    },
    {
      "midi": 84,
      "hit": false,
      "t": 67325.00000000009,
      "d": 41.66666666667152,
      "v": 60
    },
    {
      "midi": 72,
      "hit": false,
      "t": 67391.66666666676,
      "d": 75,
      "v": 64
    },
    {
      "midi": 81,
      "hit": false,
      "t": 67462.50000000009,
      "d": 54.16666666667152,
      "v": 59
    },
    {
      "midi": 77,
      "hit": false,
      "t": 67466.66666666676,
      "d": 66.66666666665697,
      "v": 55
    },
    {
      "midi": 84,
      "hit": false,
      "t": 67470.83333333343,
      "d": 33.33333333332848,
      "v": 62
    },
    {
      "midi": 72,
      "hit": false,
      "t": 67525.00000000009,
      "d": 70.83333333332848,
      "v": 60
    },
    {
      "midi": 77,
      "hit": false,
      "t": 67600.00000000009,
      "d": 112.49999999998545,
      "v": 56
    },
    {
      "midi": 84,
      "hit": false,
      "t": 67604.16666666676,
      "d": 33.33333333332848,
      "v": 62
    },
    {
      "midi": 81,
      "hit": false,
      "t": 67604.16666666676,
      "d": 62.49999999998545,
      "v": 49
    },
    {
      "midi": 72,
      "hit": false,
      "t": 67658.33333333342,
      "d": 70.83333333332848,
      "v": 62
    },
    {
      "midi": 72,
      "hit": false,
      "t": 67758.33333333342,
      "d": 58.33333333332848,
      "v": 68
    },
    {
      "midi": 77,
      "hit": false,
      "t": 67775.00000000009,
      "d": 79.16666666665697,
      "v": 9
    },
    {
      "midi": 81,
      "hit": false,
      "t": 67787.50000000009,
      "d": 74.99999999998545,
      "v": 9
    },
    {
      "midi": 84,
      "hit": false,
      "t": 67795.83333333342,
      "d": 66.66666666665697,
      "v": 53
    },
    {
      "midi": 53,
      "hit": false,
      "t": 68333.33333333333,
      "d": 204.16666666667152,
      "v": 63
    },
    {
      "midi": 55,
      "hit": false,
      "t": 68333.33333333333,
      "d": 233.33333333334303,
      "v": 63
    },
    {
      "midi": 62,
      "hit": false,
      "t": 68333.33333333333,
      "d": 262.50000000001455,
      "v": 63
    },
    {
      "midi": 58,
      "hit": false,
      "t": 68333.33333333333,
      "d": 337.50000000001455,
      "v": 63
    },
    {
      "midi": 82,
      "hit": false,
      "t": 68500.00000000007,
      "d": 200,
      "v": 85
    },
    {
      "midi": 84,
      "hit": false,
      "t": 68666.66666666674,
      "d": 141.66666666665697,
      "v": 55
    },
    {
      "midi": 85,
      "hit": false,
      "t": 68833.3333333334,
      "d": 112.5,
      "v": 76
    },
    {
      "midi": 52,
      "hit": false,
      "t": 69000.00000000001,
      "d": 120.83333333332848,
      "v": 64
    },
    {
      "midi": 55,
      "hit": false,
      "t": 69000.00000000001,
      "d": 137.5,
      "v": 64
    },
    {
      "midi": 60,
      "hit": false,
      "t": 69000.00000000001,
      "d": 141.66666666667152,
      "v": 64
    },
    {
      "midi": 58,
      "hit": false,
      "t": 69000.00000000001,
      "d": 166.66666666667152,
      "v": 64
    },
    {
      "midi": 84,
      "hit": false,
      "t": 69000.00000000007,
      "d": 325,
      "v": 98
    },
    {
      "midi": 82,
      "hit": false,
      "t": 69500.00000000007,
      "d": 262.5,
      "v": 98
    },
    {
      "midi": 80,
      "hit": false,
      "t": 69833.3333333334,
      "d": 75,
      "v": 93
    },
    {
      "midi": 53,
      "hit": false,
      "t": 70000.00000000001,
      "d": 220.83333333332848,
      "v": 64
    },
    {
      "midi": 57,
      "hit": false,
      "t": 70000.00000000001,
      "d": 229.16666666665697,
      "v": 64
    },
    {
      "midi": 60,
      "hit": false,
      "t": 70000.00000000001,
      "d": 233.33333333332848,
      "v": 64
    },
    {
      "midi": 81,
      "hit": false,
      "t": 70037.50000000007,
      "d": 100,
      "v": 68
    },
    {
      "midi": 84,
      "hit": false,
      "t": 70041.66666666674,
      "d": 75,
      "v": 93
    },
    {
      "midi": 77,
      "hit": false,
      "t": 70041.66666666674,
      "d": 112.5,
      "v": 62
    },
    {
      "midi": 72,
      "hit": false,
      "t": 70154.16666666674,
      "d": 70.83333333334303,
      "v": 48
    },
    {
      "midi": 81,
      "hit": false,
      "t": 70216.66666666674,
      "d": 83.33333333334303,
      "v": 72
    },
    {
      "midi": 77,
      "hit": false,
      "t": 70220.83333333342,
      "d": 95.83333333332848,
      "v": 59
    },
    {
      "midi": 84,
      "hit": false,
      "t": 70229.16666666676,
      "d": 50,
      "v": 76
    },
    {
      "midi": 72,
      "hit": false,
      "t": 70308.33333333342,
      "d": 83.33333333332848,
      "v": 56
    },
    {
      "midi": 77,
      "hit": false,
      "t": 70379.16666666674,
      "d": 79.16666666665697,
      "v": 60
    },
    {
      "midi": 81,
      "hit": false,
      "t": 70391.66666666674,
      "d": 54.166666666656965,
      "v": 56
    },
    {
      "midi": 84,
      "hit": false,
      "t": 70400.00000000007,
      "d": 33.33333333332848,
      "v": 55
    },
    {
      "midi": 72,
      "hit": false,
      "t": 70462.50000000007,
      "d": 70.83333333332848,
      "v": 56
    },
    {
      "midi": 81,
      "hit": false,
      "t": 70533.3333333334,
      "d": 62.5,
      "v": 62
    },
    {
      "midi": 77,
      "hit": false,
      "t": 70541.66666666673,
      "d": 58.333333333343035,
      "v": 49
    },
    {
      "midi": 84,
      "hit": false,
      "t": 70545.8333333334,
      "d": 37.5,
      "v": 72
    },
    {
      "midi": 72,
      "hit": false,
      "t": 70612.50000000007,
      "d": 62.50000000001455,
      "v": 53
    },
    {
      "midi": 81,
      "hit": false,
      "t": 70666.66666666674,
      "d": 62.5,
      "v": 57
    },
    {
      "midi": 77,
      "hit": false,
      "t": 70670.83333333342,
      "d": 75,
      "v": 50
    },
    {
      "midi": 84,
      "hit": false,
      "t": 70675.00000000009,
      "d": 33.33333333332848,
      "v": 72
    },
    {
      "midi": 72,
      "hit": false,
      "t": 70741.66666666674,
      "d": 79.16666666667152,
      "v": 50
    },
    {
      "midi": 77,
      "hit": false,
      "t": 70816.66666666674,
      "d": 75.00000000001455,
      "v": 53
    },
    {
      "midi": 81,
      "hit": false,
      "t": 70820.83333333342,
      "d": 54.16666666667152,
      "v": 57
    },
    {
      "midi": 84,
      "hit": false,
      "t": 70825.00000000009,
      "d": 37.5,
      "v": 64
    },
    {
      "midi": 72,
      "hit": false,
      "t": 70879.16666666676,
      "d": 75,
      "v": 60
    },
    {
      "midi": 84,
      "hit": false,
      "t": 70950.00000000009,
      "d": 37.5,
      "v": 72
    },
    {
      "midi": 81,
      "hit": false,
      "t": 70950.00000000009,
      "d": 54.16666666667152,
      "v": 60
    },
    {
      "midi": 72,
      "hit": false,
      "t": 71020.83333333343,
      "d": 66.66666666667152,
      "v": 47
    },
    {
      "midi": 81,
      "hit": false,
      "t": 71087.5000000001,
      "d": 62.5,
      "v": 55
    },
    {
      "midi": 84,
      "hit": false,
      "t": 71100.0000000001,
      "d": 33.33333333332848,
      "v": 62
    },
    {
      "midi": 77,
      "hit": false,
      "t": 71112.5000000001,
      "d": 195.83333333332848,
      "v": 36
    },
    {
      "midi": 72,
      "hit": false,
      "t": 71154.16666666677,
      "d": 83.33333333332848,
      "v": 57
    },
    {
      "midi": 81,
      "hit": false,
      "t": 71229.16666666677,
      "d": 66.66666666665697,
      "v": 60
    },
    {
      "midi": 84,
      "hit": false,
      "t": 71241.66666666677,
      "d": 33.33333333332848,
      "v": 68
    },
    {
      "midi": 72,
      "hit": false,
      "t": 71312.5000000001,
      "d": 70.83333333334303,
      "v": 55
    },
    {
      "midi": 53,
      "hit": false,
      "t": 71333.33333333334,
      "d": 516.6666666666715,
      "v": 66
    },
    {
      "midi": 62,
      "hit": false,
      "t": 71333.33333333334,
      "d": 583.333333333343,
      "v": 66
    },
    {
      "midi": 57,
      "hit": false,
      "t": 71333.33333333334,
      "d": 591.6666666666715,
      "v": 66
    },
    {
      "midi": 81,
      "hit": false,
      "t": 71379.16666666677,
      "d": 50.00000000001455,
      "v": 60
    },
    {
      "midi": 84,
      "hit": false,
      "t": 71383.33333333344,
      "d": 41.66666666667152,
      "v": 64
    },
    {
      "midi": 77,
      "hit": false,
      "t": 71383.33333333344,
      "d": 70.83333333334303,
      "v": 56
    },
    {
      "midi": 72,
      "hit": false,
      "t": 71450.00000000012,
      "d": 79.16666666667152,
      "v": 53
    },
    {
      "midi": 84,
      "hit": false,
      "t": 71529.16666666679,
      "d": 50,
      "v": 64
    },
    {
      "midi": 81,
      "hit": false,
      "t": 71529.16666666679,
      "d": 62.5,
      "v": 56
    },
    {
      "midi": 72,
      "hit": false,
      "t": 71612.50000000012,
      "d": 58.33333333332848,
      "v": 48
    },
    {
      "midi": 81,
      "hit": false,
      "t": 71658.33333333344,
      "d": 58.333333333343035,
      "v": 68
    },
    {
      "midi": 77,
      "hit": false,
      "t": 71662.50000000012,
      "d": 287.50000000001455,
      "v": 55
    },
    {
      "midi": 84,
      "hit": false,
      "t": 71670.83333333344,
      "d": 29.166666666671517,
      "v": 72
    },
    {
      "midi": 72,
      "hit": false,
      "t": 71729.16666666679,
      "d": 70.83333333332848,
      "v": 52
    },
    {
      "midi": 81,
      "hit": false,
      "t": 71787.50000000012,
      "d": 62.5,
      "v": 64
    },
    {
      "midi": 84,
      "hit": false,
      "t": 71800.00000000012,
      "d": 25,
      "v": 76
    },
    {
      "midi": 72,
      "hit": false,
      "t": 71841.66666666679,
      "d": 75,
      "v": 76
    },
    {
      "midi": 84,
      "hit": false,
      "t": 71904.16666666679,
      "d": 41.66666666667152,
      "v": 64
    },
    {
      "midi": 58,
      "hit": false,
      "t": 72000.00000000001,
      "d": 91.66666666667152,
      "v": 66
    },
    {
      "midi": 62,
      "hit": false,
      "t": 72000.00000000001,
      "d": 104.16666666667152,
      "v": 66
    },
    {
      "midi": 55,
      "hit": false,
      "t": 72000.00000000001,
      "d": 112.5,
      "v": 66
    },
    {
      "midi": 70,
      "hit": false,
      "t": 72500.00000000013,
      "d": 154.16666666667152,
      "v": 93
    },
    {
      "midi": 67,
      "hit": false,
      "t": 72500.00000000013,
      "d": 166.66666666667152,
      "v": 89
    },
    {
      "midi": 72,
      "hit": false,
      "t": 72666.6666666668,
      "d": 158.33333333332848,
      "v": 76
    },
    {
      "midi": 69,
      "hit": false,
      "t": 72666.6666666668,
      "d": 170.83333333332848,
      "v": 68
    },
    {
      "midi": 70,
      "hit": false,
      "t": 72833.33333333346,
      "d": 108.33333333334303,
      "v": 68
    },
    {
      "midi": 73,
      "hit": false,
      "t": 72833.33333333346,
      "d": 212.5,
      "v": 72
    },
    {
      "midi": 72,
      "hit": false,
      "t": 73000.00000000013,
      "d": 220.83333333332848,
      "v": 96
    },
    {
      "midi": 69,
      "hit": false,
      "t": 73000.00000000013,
      "d": 345.8333333333285,
      "v": 96
    },
    {
      "midi": 70,
      "hit": false,
      "t": 73333.33333333346,
      "d": 79.16666666667152,
      "v": 70
    },
    {
      "midi": 55,
      "hit": false,
      "t": 73500.00000000001,
      "d": 141.66666666667152,
      "v": 63
    },
    {
      "midi": 52,
      "hit": false,
      "t": 73500.00000000001,
      "d": 150,
      "v": 63
    },
    {
      "midi": 60,
      "hit": false,
      "t": 73500.00000000001,
      "d": 175,
      "v": 63
    },
    {
      "midi": 72,
      "hit": false,
      "t": 73500.00000000013,
      "d": 154.16666666667152,
      "v": 93
    },
    {
      "midi": 74,
      "hit": false,
      "t": 73833.33333333347,
      "d": 66.66666666667152,
      "v": 72
    },
    {
      "midi": 53,
      "hit": false,
      "t": 74000.00000000001,
      "d": 116.66666666667152,
      "v": 61
    },
    {
      "midi": 57,
      "hit": false,
      "t": 74000.00000000001,
      "d": 129.16666666667152,
      "v": 61
    },
    {
      "midi": 60,
      "hit": false,
      "t": 74000.00000000001,
      "d": 154.16666666667152,
      "v": 61
    },
    {
      "midi": 76,
      "hit": false,
      "t": 74000.00000000015,
      "d": 191.66666666667152,
      "v": 102
    },
    {
      "midi": 77,
      "hit": false,
      "t": 74333.33333333349,
      "d": 237.5,
      "v": 93
    },
    {
      "midi": 53,
      "hit": false,
      "t": 74500.00000000001,
      "d": 91.66666666667152,
      "v": 60
    },
    {
      "midi": 57,
      "hit": false,
      "t": 74500.00000000001,
      "d": 108.33333333334303,
      "v": 60
    },
    {
      "midi": 74,
      "hit": false,
      "t": 74500.00000000016,
      "d": 120.83333333332848,
      "v": 80
    },
    {
      "midi": 76,
      "hit": false,
      "t": 74833.33333333349,
      "d": 204.16666666667152,
      "v": 93
    },
    {
      "midi": 53,
      "hit": false,
      "t": 75000.00000000003,
      "d": 141.66666666667152,
      "v": 60
    },
    {
      "midi": 57,
      "hit": false,
      "t": 75000.00000000003,
      "d": 170.83333333334303,
      "v": 60
    },
    {
      "midi": 62,
      "hit": false,
      "t": 75000.00000000003,
      "d": 179.16666666667152,
      "v": 60
    },
    {
      "midi": 72,
      "hit": false,
      "t": 75000.00000000016,
      "d": 895.8333333333285,
      "v": 76
    },
    {
      "midi": 57,
      "hit": false,
      "t": 75833.33333333337,
      "d": 75,
      "v": 65
    },
    {
      "midi": 53,
      "hit": false,
      "t": 75833.33333333337,
      "d": 83.33333333332848,
      "v": 65
    },
    {
      "midi": 62,
      "hit": false,
      "t": 75833.33333333337,
      "d": 104.16666666665697,
      "v": 65
    },
    {
      "midi": 62,
      "hit": false,
      "t": 76000.00000000003,
      "d": 116.66666666667152,
      "v": 66
    },
    {
      "midi": 55,
      "hit": false,
      "t": 76000.00000000003,
      "d": 125,
      "v": 66
    },
    {
      "midi": 58,
      "hit": false,
      "t": 76000.00000000003,
      "d": 170.83333333332848,
      "v": 66
    },
    {
      "midi": 74,
      "hit": false,
      "t": 76500.00000000016,
      "d": 233.33333333334303,
      "v": 96
    },
    {
      "midi": 77,
      "hit": false,
      "t": 76666.66666666683,
      "d": 162.5,
      "v": 74
    },
    {
      "midi": 81,
      "hit": false,
      "t": 76833.3333333335,
      "d": 195.83333333334303,
      "v": 72
    },
    {
      "midi": 84,
      "hit": false,
      "t": 77000.00000000017,
      "d": 141.66666666667152,
      "v": 98
    },
    {
      "midi": 55,
      "hit": false,
      "t": 77500.00000000003,
      "d": 100,
      "v": 64
    },
    {
      "midi": 52,
      "hit": false,
      "t": 77500.00000000003,
      "d": 108.33333333332848,
      "v": 64
    },
    {
      "midi": 58,
      "hit": false,
      "t": 77500.00000000003,
      "d": 120.83333333332848,
      "v": 64
    },
    {
      "midi": 84,
      "hit": false,
      "t": 77500.00000000017,
      "d": 125,
      "v": 98
    },
    {
      "midi": 53,
      "hit": false,
      "t": 78333.33333333336,
      "d": 125,
      "v": 64
    },
    {
      "midi": 57,
      "hit": false,
      "t": 78333.33333333336,
      "d": 133.33333333332848,
      "v": 64
    },
    {
      "midi": 60,
      "hit": false,
      "t": 78333.33333333336,
      "d": 158.33333333332848,
      "v": 64
    },
    {
      "midi": 69,
      "hit": false,
      "t": 78333.3333333335,
      "d": 104.16666666667152,
      "v": 97
    },
    {
      "midi": 77,
      "hit": false,
      "t": 78333.3333333335,
      "d": 104.16666666667152,
      "v": 97
    },
    {
      "midi": 72,
      "hit": false,
      "t": 78333.3333333335,
      "d": 133.33333333334303,
      "v": 97
    },
    {
      "midi": 65,
      "hit": false,
      "t": 78833.33333333352,
      "d": 220.83333333334303,
      "v": 85
    },
    {
      "midi": 53,
      "hit": false,
      "t": 79000.00000000001,
      "d": 162.5,
      "v": 64
    },
    {
      "midi": 57,
      "hit": false,
      "t": 79000.00000000001,
      "d": 166.66666666667152,
      "v": 64
    },
    {
      "midi": 50,
      "hit": false,
      "t": 79000.00000000001,
      "d": 191.66666666667152,
      "v": 64
    },
    {
      "midi": 69,
      "hit": false,
      "t": 79000.00000000019,
      "d": 87.5,
      "v": 93
    },
    {
      "midi": 74,
      "hit": false,
      "t": 79000.00000000019,
      "d": 100,
      "v": 98
    },
    {
      "midi": 62,
      "hit": false,
      "t": 80333.33333333336,
      "d": 200,
      "v": 62
    },
    {
      "midi": 55,
      "hit": false,
      "t": 80333.33333333336,
      "d": 220.83333333332848,
      "v": 62
    },
    {
      "midi": 58,
      "hit": false,
      "t": 80333.33333333336,
      "d": 254.16666666665697,
      "v": 62
    },
    {
      "midi": 79,
      "hit": false,
      "t": 80333.33333333352,
      "d": 233.33333333334303,
      "v": 97
    },
    {
      "midi": 74,
      "hit": false,
      "t": 80500.00000000019,
      "d": 195.83333333334303,
      "v": 70
    },
    {
      "midi": 70,
      "hit": false,
      "t": 80666.66666666686,
      "d": 133.33333333334303,
      "v": 70
    },
    {
      "midi": 67,
      "hit": false,
      "t": 80833.33333333353,
      "d": 116.66666666667152,
      "v": 76
    },
    {
      "midi": 72,
      "hit": false,
      "t": 81000.0000000002,
      "d": 37.5,
      "v": 68
    },
    {
      "midi": 52,
      "hit": false,
      "t": 81333.33333333334,
      "d": 125,
      "v": 61
    },
    {
      "midi": 55,
      "hit": false,
      "t": 81333.33333333334,
      "d": 125,
      "v": 61
    },
    {
      "midi": 60,
      "hit": false,
      "t": 81333.33333333334,
      "d": 133.33333333332848,
      "v": 61
    },
    {
      "midi": 76,
      "hit": false,
      "t": 81333.33333333353,
      "d": 204.16666666667152,
      "v": 98
    },
    {
      "midi": 72,
      "hit": false,
      "t": 81500.0000000002,
      "d": 166.66666666667152,
      "v": 85
    },
    {
      "midi": 67,
      "hit": false,
      "t": 81666.66666666688,
      "d": 141.66666666667152,
      "v": 72
    },
    {
      "midi": 64,
      "hit": false,
      "t": 81833.33333333355,
      "d": 87.5,
      "v": 80
    },
    {
      "midi": 53,
      "hit": false,
      "t": 82000,
      "d": 112.5,
      "v": 59
    },
    {
      "midi": 57,
      "hit": false,
      "t": 82000,
      "d": 133.33333333332848,
      "v": 60
    },
    {
      "midi": 60,
      "hit": false,
      "t": 82000,
      "d": 158.33333333332848,
      "v": 59
    },
    {
      "midi": 69,
      "hit": false,
      "t": 82000.00000000022,
      "d": 95.83333333332848,
      "v": 89
    },
    {
      "midi": 65,
      "hit": false,
      "t": 82000.00000000022,
      "d": 112.5,
      "v": 80
    },
    {
      "midi": 69,
      "hit": false,
      "t": 82500.00000000022,
      "d": 87.5,
      "v": 102
    },
    {
      "midi": 72,
      "hit": false,
      "t": 82500.00000000022,
      "d": 108.33333333332848,
      "v": 93
    },
    {
      "midi": 53,
      "hit": false,
      "t": 83000,
      "d": 133.33333333332848,
      "v": 63
    },
    {
      "midi": 57,
      "hit": false,
      "t": 83000,
      "d": 133.33333333332848,
      "v": 63
    },
    {
      "midi": 62,
      "hit": false,
      "t": 83000,
      "d": 150,
      "v": 63
    },
    {
      "midi": 69,
      "hit": false,
      "t": 83000.00000000022,
      "d": 70.83333333332848,
      "v": 76
    },
    {
      "midi": 72,
      "hit": false,
      "t": 83000.00000000022,
      "d": 83.33333333332848,
      "v": 85
    },
    {
      "midi": 74,
      "hit": false,
      "t": 83000.00000000022,
      "d": 100,
      "v": 98
    },
    {
      "midi": 53,
      "hit": false,
      "t": 83333.33333333333,
      "d": 445.8333333333285,
      "v": 64
    },
    {
      "midi": 62,
      "hit": false,
      "t": 83333.33333333333,
      "d": 470.8333333333285,
      "v": 64
    },
    {
      "midi": 57,
      "hit": false,
      "t": 83333.33333333333,
      "d": 491.66666666665697,
      "v": 64
    },
    {
      "midi": 77,
      "hit": false,
      "t": 83333.33333333355,
      "d": 429.1666666666715,
      "v": 93
    },
    {
      "midi": 72,
      "hit": false,
      "t": 83333.33333333355,
      "d": 437.5,
      "v": 89
    },
    {
      "midi": 74,
      "hit": false,
      "t": 83333.33333333355,
      "d": 466.6666666666715,
      "v": 89
    },
    {
      "midi": 55,
      "hit": false,
      "t": 83999.99999999999,
      "d": 116.66666666667152,
      "v": 63
    },
    {
      "midi": 58,
      "hit": false,
      "t": 83999.99999999999,
      "d": 141.66666666667152,
      "v": 63
    },
    {
      "midi": 70,
      "hit": false,
      "t": 84000.00000000022,
      "d": 116.66666666667152,
      "v": 76
    },
    {
      "midi": 74,
      "hit": false,
      "t": 84000.00000000022,
      "d": 141.66666666667152,
      "v": 89
    },
    {
      "midi": 74,
      "hit": false,
      "t": 84500.00000000022,
      "d": 87.5,
      "v": 93
    },
    {
      "midi": 77,
      "hit": false,
      "t": 84500.00000000022,
      "d": 141.66666666667152,
      "v": 93
    },
    {
      "midi": 55,
      "hit": false,
      "t": 84999.99999999999,
      "d": 87.5,
      "v": 61
    },
    {
      "midi": 52,
      "hit": false,
      "t": 84999.99999999999,
      "d": 100,
      "v": 61
    },
    {
      "midi": 60,
      "hit": false,
      "t": 84999.99999999999,
      "d": 125,
      "v": 61
    },
    {
      "midi": 74,
      "hit": false,
      "t": 85000.00000000022,
      "d": 83.33333333332848,
      "v": 80
    },
    {
      "midi": 77,
      "hit": false,
      "t": 85000.00000000022,
      "d": 120.83333333332848,
      "v": 89
    },
    {
      "midi": 81,
      "hit": false,
      "t": 85000.00000000022,
      "d": 150,
      "v": 89
    },
    {
      "midi": 52,
      "hit": false,
      "t": 85333.33333333331,
      "d": 479.1666666666715,
      "v": 64
    },
    {
      "midi": 55,
      "hit": false,
      "t": 85333.33333333331,
      "d": 504.1666666666715,
      "v": 63
    },
    {
      "midi": 60,
      "hit": false,
      "t": 85333.33333333331,
      "d": 525,
      "v": 63
    },
    {
      "midi": 84,
      "hit": false,
      "t": 85333.33333333355,
      "d": 504.1666666666715,
      "v": 93
    },
    {
      "midi": 77,
      "hit": false,
      "t": 85333.33333333355,
      "d": 525,
      "v": 80
    },
    {
      "midi": 81,
      "hit": false,
      "t": 85333.33333333355,
      "d": 529.1666666666715,
      "v": 76
    },
    {
      "midi": 53,
      "hit": false,
      "t": 85999.99999999999,
      "d": 79.16666666667152,
      "v": 65
    },
    {
      "midi": 57,
      "hit": false,
      "t": 85999.99999999999,
      "d": 83.33333333334303,
      "v": 65
    },
    {
      "midi": 60,
      "hit": false,
      "t": 85999.99999999999,
      "d": 100.00000000001455,
      "v": 65
    },
    {
      "midi": 84,
      "hit": false,
      "t": 86000.00000000022,
      "d": 195.83333333332848,
      "v": 98
    },
    {
      "midi": 81,
      "hit": false,
      "t": 86000.00000000022,
      "d": 316.66666666665697,
      "v": 93
    },
    {
      "midi": 77,
      "hit": false,
      "t": 86000.00000000022,
      "d": 329.16666666665697,
      "v": 89
    },
    {
      "midi": 72,
      "hit": false,
      "t": 86333.33333333355,
      "d": 208.33333333334303,
      "v": 73
    },
    {
      "midi": 84,
      "hit": false,
      "t": 86500.00000000022,
      "d": 183.33333333334303,
      "v": 93
    },
    {
      "midi": 81,
      "hit": false,
      "t": 86500.00000000022,
      "d": 300.00000000001455,
      "v": 85
    },
    {
      "midi": 77,
      "hit": false,
      "t": 86500.00000000022,
      "d": 337.50000000001455,
      "v": 89
    },
    {
      "midi": 72,
      "hit": false,
      "t": 86833.33333333356,
      "d": 95.83333333334303,
      "v": 77
    },
    {
      "midi": 53,
      "hit": false,
      "t": 87000,
      "d": 87.5,
      "v": 63
    },
    {
      "midi": 57,
      "hit": false,
      "t": 87000,
      "d": 91.66666666667152,
      "v": 63
    },
    {
      "midi": 62,
      "hit": false,
      "t": 87000,
      "d": 112.5,
      "v": 63
    },
    {
      "midi": 74,
      "hit": false,
      "t": 87000.00000000023,
      "d": 120.83333333332848,
      "v": 55
    },
    {
      "midi": 81,
      "hit": false,
      "t": 87000.00000000023,
      "d": 141.66666666665697,
      "v": 62
    },
    {
      "midi": 77,
      "hit": false,
      "t": 87000.00000000023,
      "d": 145.83333333332848,
      "v": 89
    },
    {
      "midi": 53,
      "hit": false,
      "t": 87333.33333333333,
      "d": 520.8333333333285,
      "v": 63
    },
    {
      "midi": 62,
      "hit": false,
      "t": 87333.33333333333,
      "d": 650,
      "v": 63
    },
    {
      "midi": 57,
      "hit": false,
      "t": 87333.33333333333,
      "d": 675,
      "v": 63
    },
    {
      "midi": 69,
      "hit": false,
      "t": 87333.33333333356,
      "d": 333.3333333333285,
      "v": 60
    },
    {
      "midi": 74,
      "hit": false,
      "t": 87333.33333333356,
      "d": 362.5,
      "v": 93
    },
    {
      "midi": 77,
      "hit": false,
      "t": 87333.33333333356,
      "d": 404.1666666666715,
      "v": 89
    },
    {
      "midi": 55,
      "hit": false,
      "t": 88000,
      "d": 145.83333333332848,
      "v": 63
    },
    {
      "midi": 58,
      "hit": false,
      "t": 88000,
      "d": 158.33333333332848,
      "v": 63
    },
    {
      "midi": 77,
      "hit": false,
      "t": 88000.00000000023,
      "d": 354.16666666665697,
      "v": 89
    },
    {
      "midi": 79,
      "hit": false,
      "t": 88000.00000000023,
      "d": 370.8333333333285,
      "v": 80
    },
    {
      "midi": 82,
      "hit": false,
      "t": 88000.00000000023,
      "d": 391.66666666665697,
      "v": 80
    },
    {
      "midi": 74,
      "hit": false,
      "t": 88333.33333333356,
      "d": 274.99999999998545,
      "v": 74
    },
    {
      "midi": 77,
      "hit": false,
      "t": 88500.00000000022,
      "d": 116.66666666665697,
      "v": 76
    },
    {
      "midi": 79,
      "hit": false,
      "t": 88500.00000000022,
      "d": 129.16666666665697,
      "v": 85
    },
    {
      "midi": 75,
      "hit": false,
      "t": 88833.33333333355,
      "d": 79.16666666667152,
      "v": 72
    },
    {
      "midi": 60,
      "hit": false,
      "t": 89000,
      "d": 75,
      "v": 61
    },
    {
      "midi": 52,
      "hit": false,
      "t": 89000,
      "d": 83.33333333332848,
      "v": 61
    },
    {
      "midi": 55,
      "hit": false,
      "t": 89000,
      "d": 87.5,
      "v": 61
    },
    {
      "midi": 76,
      "hit": false,
      "t": 89000.00000000022,
      "d": 216.66666666667152,
      "v": 98
    },
    {
      "midi": 81,
      "hit": false,
      "t": 89000.00000000022,
      "d": 225,
      "v": 85
    },
    {
      "midi": 55,
      "hit": false,
      "t": 89333.33333333333,
      "d": 495.8333333333285,
      "v": 60
    },
    {
      "midi": 52,
      "hit": false,
      "t": 89333.33333333333,
      "d": 508.3333333333285,
      "v": 60
    },
    {
      "midi": 60,
      "hit": false,
      "t": 89333.33333333333,
      "d": 558.3333333333285,
      "v": 60
    },
    {
      "midi": 72,
      "hit": false,
      "t": 89333.33333333355,
      "d": 575,
      "v": 85
    },
    {
      "midi": 76,
      "hit": false,
      "t": 89333.33333333355,
      "d": 600,
      "v": 98
    },
    {
      "midi": 84,
      "hit": false,
      "t": 89333.33333333355,
      "d": 633.3333333333285,
      "v": 107
    },
    {
      "midi": 53,
      "hit": false,
      "t": 89999.99999999999,
      "d": 108.33333333332848,
      "v": 65
    },
    {
      "midi": 60,
      "hit": false,
      "t": 89999.99999999999,
      "d": 108.33333333332848,
      "v": 65
    },
    {
      "midi": 57,
      "hit": false,
      "t": 89999.99999999999,
      "d": 116.66666666665697,
      "v": 65
    },
    {
      "midi": 84,
      "hit": false,
      "t": 90333.33333333355,
      "d": 95.83333333332848,
      "v": 89
    },
    {
      "midi": 81,
      "hit": false,
      "t": 90333.33333333355,
      "d": 104.16666666665697,
      "v": 93
    },
    {
      "midi": 89,
      "hit": false,
      "t": 90333.33333333355,
      "d": 112.49999999998545,
      "v": 102
    },
    {
      "midi": 84,
      "hit": false,
      "t": 90500.0000000002,
      "d": 158.33333333332848,
      "v": 85
    },
    {
      "midi": 77,
      "hit": false,
      "t": 90500.0000000002,
      "d": 162.5,
      "v": 64
    },
    {
      "midi": 81,
      "hit": false,
      "t": 90500.0000000002,
      "d": 179.16666666667152,
      "v": 89
    },
    {
      "midi": 77,
      "hit": false,
      "t": 90833.33333333355,
      "d": 50,
      "v": 60
    },
    {
      "midi": 85,
      "hit": false,
      "t": 90833.33333333355,
      "d": 95.83333333332848,
      "v": 85
    },
    {
      "midi": 57,
      "hit": false,
      "t": 90999.99999999997,
      "d": 83.33333333332848,
      "v": 63
    },
    {
      "midi": 53,
      "hit": false,
      "t": 90999.99999999997,
      "d": 108.33333333332848,
      "v": 63
    },
    {
      "midi": 62,
      "hit": false,
      "t": 90999.99999999997,
      "d": 125,
      "v": 63
    },
    {
      "midi": 86,
      "hit": false,
      "t": 91000.0000000002,
      "d": 195.83333333332848,
      "v": 102
    },
    {
      "midi": 53,
      "hit": false,
      "t": 91333.3333333333,
      "d": 400,
      "v": 63
    },
    {
      "midi": 57,
      "hit": false,
      "t": 91333.3333333333,
      "d": 441.6666666666715,
      "v": 63
    },
    {
      "midi": 50,
      "hit": false,
      "t": 91333.3333333333,
      "d": 445.83333333334303,
      "v": 63
    },
    {
      "midi": 74,
      "hit": false,
      "t": 91333.33333333353,
      "d": 579.1666666666715,
      "v": 80
    },
    {
      "midi": 77,
      "hit": false,
      "t": 91333.33333333353,
      "d": 595.833333333343,
      "v": 76
    },
    {
      "midi": 81,
      "hit": false,
      "t": 91333.33333333353,
      "d": 625.0000000000146,
      "v": 72
    },
    {
      "midi": 62,
      "hit": false,
      "t": 91999.99999999997,
      "d": 120.83333333332848,
      "v": 60
    },
    {
      "midi": 55,
      "hit": false,
      "t": 91999.99999999997,
      "d": 129.16666666665697,
      "v": 60
    },
    {
      "midi": 58,
      "hit": false,
      "t": 91999.99999999997,
      "d": 145.83333333332848,
      "v": 60
    },
    {
      "midi": 82,
      "hit": false,
      "t": 92533.33333333355,
      "d": 91.66666666667152,
      "v": 72
    },
    {
      "midi": 84,
      "hit": false,
      "t": 92637.50000000022,
      "d": 91.66666666667152,
      "v": 68
    },
    {
      "midi": 82,
      "hit": false,
      "t": 92687.50000000022,
      "d": 91.66666666667152,
      "v": 70
    },
    {
      "midi": 79,
      "hit": false,
      "t": 92766.66666666689,
      "d": 120.83333333332848,
      "v": 72
    },
    {
      "midi": 80,
      "hit": false,
      "t": 92862.50000000022,
      "d": 75,
      "v": 89
    },
    {
      "midi": 55,
      "hit": false,
      "t": 92999.99999999997,
      "d": 100,
      "v": 62
    },
    {
      "midi": 52,
      "hit": false,
      "t": 92999.99999999997,
      "d": 104.16666666667152,
      "v": 62
    },
    {
      "midi": 60,
      "hit": false,
      "t": 92999.99999999997,
      "d": 116.66666666667152,
      "v": 62
    },
    {
      "midi": 81,
      "hit": false,
      "t": 93000.00000000022,
      "d": 141.66666666665697,
      "v": 85
    },
    {
      "midi": 76,
      "hit": false,
      "t": 93108.33333333355,
      "d": 116.66666666665697,
      "v": 67
    },
    {
      "midi": 72,
      "hit": false,
      "t": 93225.0000000002,
      "d": 162.5,
      "v": 68
    },
    {
      "midi": 70,
      "hit": false,
      "t": 93350.0000000002,
      "d": 129.16666666667152,
      "v": 85
    },
    {
      "midi": 67,
      "hit": false,
      "t": 93508.33333333355,
      "d": 120.83333333334303,
      "v": 72
    },
    {
      "midi": 70,
      "hit": false,
      "t": 93600.00000000022,
      "d": 133.33333333334303,
      "v": 85
    },
    {
      "midi": 73,
      "hit": false,
      "t": 93704.16666666689,
      "d": 129.16666666667152,
      "v": 85
    },
    {
      "midi": 76,
      "hit": false,
      "t": 93812.50000000023,
      "d": 124.99999999998545,
      "v": 69
    },
    {
      "midi": 79,
      "hit": false,
      "t": 93879.16666666689,
      "d": 95.83333333332848,
      "v": 72
    },
    {
      "midi": 53,
      "hit": false,
      "t": 93999.99999999997,
      "d": 79.16666666667152,
      "v": 60
    },
    {
      "midi": 57,
      "hit": false,
      "t": 93999.99999999997,
      "d": 91.66666666667152,
      "v": 60
    },
    {
      "midi": 60,
      "hit": false,
      "t": 93999.99999999997,
      "d": 104.16666666667152,
      "v": 60
    },
    {
      "midi": 77,
      "hit": false,
      "t": 94000.00000000022,
      "d": 341.66666666665697,
      "v": 93
    },
    {
      "midi": 72,
      "hit": false,
      "t": 94333.33333333355,
      "d": 104.16666666665697,
      "v": 70
    },
    {
      "midi": 53,
      "hit": false,
      "t": 94499.99999999997,
      "d": 83.33333333332848,
      "v": 59
    },
    {
      "midi": 57,
      "hit": false,
      "t": 94499.99999999997,
      "d": 83.33333333332848,
      "v": 59
    },
    {
      "midi": 60,
      "hit": false,
      "t": 94499.99999999997,
      "d": 104.16666666665697,
      "v": 59
    },
    {
      "midi": 74,
      "hit": false,
      "t": 94500.0000000002,
      "d": 512.5,
      "v": 93
    },
    {
      "midi": 53,
      "hit": false,
      "t": 94999.99999999996,
      "d": 112.5,
      "v": 58
    },
    {
      "midi": 58,
      "hit": false,
      "t": 94999.99999999996,
      "d": 145.83333333332848,
      "v": 59
    },
    {
      "midi": 72,
      "hit": false,
      "t": 95000.0000000002,
      "d": 120.83333333332848,
      "v": 93
    },
    {
      "midi": 70,
      "hit": false,
      "t": 95333.33333333353,
      "d": 91.66666666667152,
      "v": 89
    },
    {
      "midi": 53,
      "hit": false,
      "t": 95499.99999999996,
      "d": 83.33333333332848,
      "v": 60
    },
    {
      "midi": 61,
      "hit": false,
      "t": 95499.99999999996,
      "d": 100,
      "v": 60
    },
    {
      "midi": 58,
      "hit": false,
      "t": 95499.99999999996,
      "d": 108.33333333332848,
      "v": 60
    },
    {
      "midi": 67,
      "hit": false,
      "t": 95500.0000000002,
      "d": 175,
      "v": 80
    },
    {
      "midi": 69,
      "hit": false,
      "t": 95833.33333333353,
      "d": 133.33333333332848,
      "v": 75
    },
    {
      "midi": 53,
      "hit": false,
      "t": 95999.99999999996,
      "d": 308.3333333333285,
      "v": 61
    },
    {
      "midi": 57,
      "hit": false,
      "t": 95999.99999999996,
      "d": 333.3333333333285,
      "v": 61
    },
    {
      "midi": 60,
      "hit": false,
      "t": 95999.99999999996,
      "d": 337.5,
      "v": 61
    },
    {
      "midi": 65,
      "hit": false,
      "t": 96000.00000000019,
      "d": 254.16666666667152,
      "v": 93
    },
    {
      "midi": 77,
      "hit": false,
      "t": 96833.33333333353,
      "d": 87.5,
      "v": 76
    },
    {
      "midi": 72,
      "hit": false,
      "t": 96833.33333333353,
      "d": 104.16666666667152,
      "v": 93
    },
    {
      "midi": 60,
      "hit": false,
      "t": 96999.99999999996,
      "d": 141.66666666667152,
      "v": 59
    },
    {
      "midi": 57,
      "hit": false,
      "t": 96999.99999999996,
      "d": 154.16666666667152,
      "v": 59
    },
    {
      "midi": 77,
      "hit": false,
      "t": 97500.0000000002,
      "d": 379.16666666665697,
      "v": 93
    },
    {
      "midi": 78,
      "hit": false,
      "t": 97833.33333333353,
      "d": 166.66666666665697,
      "v": 68
    },
    {
      "midi": 43,
      "hit": false,
      "t": 97999.99999999996,
      "d": 129.16666666667152,
      "v": 62
    },
    {
      "midi": 79,
      "hit": false,
      "t": 98000.00000000019,
      "d": 170.83333333332848,
      "v": 72
    },
    {
      "midi": 77,
      "hit": false,
      "t": 98125.00000000019,
      "d": 137.5,
      "v": 68
    },
    {
      "midi": 74,
      "hit": false,
      "t": 98250.00000000019,
      "d": 112.5,
      "v": 89
    },
    {
      "midi": 70,
      "hit": false,
      "t": 98375.00000000019,
      "d": 108.33333333332848,
      "v": 72
    },
    {
      "midi": 55,
      "hit": false,
      "t": 98499.99999999996,
      "d": 116.66666666667152,
      "v": 57
    },
    {
      "midi": 67,
      "hit": false,
      "t": 98499.99999999996,
      "d": 137.5,
      "v": 57
    },
    {
      "midi": 62,
      "hit": false,
      "t": 98499.99999999996,
      "d": 158.33333333332848,
      "v": 57
    },
    {
      "midi": 65,
      "hit": false,
      "t": 98499.99999999996,
      "d": 175,
      "v": 57
    },
    {
      "midi": 58,
      "hit": false,
      "t": 98499.99999999996,
      "d": 191.66666666667152,
      "v": 57
    },
    {
      "midi": 36,
      "hit": false,
      "t": 98999.99999999996,
      "d": 162.5,
      "v": 58
    },
    {
      "midi": 81,
      "hit": false,
      "t": 99000.00000000019,
      "d": 141.66666666667152,
      "v": 93
    },
    {
      "midi": 76,
      "hit": false,
      "t": 99125.00000000019,
      "d": 83.33333333334303,
      "v": 68
    },
    {
      "midi": 72,
      "hit": false,
      "t": 99250.0000000002,
      "d": 137.5,
      "v": 76
    },
    {
      "midi": 70,
      "hit": false,
      "t": 99375.0000000002,
      "d": 95.83333333332848,
      "v": 89
    },
    {
      "midi": 69,
      "hit": false,
      "t": 99499.99999999996,
      "d": 116.66666666667152,
      "v": 61
    },
    {
      "midi": 67,
      "hit": false,
      "t": 99499.99999999996,
      "d": 129.16666666667152,
      "v": 61
    },
    {
      "midi": 58,
      "hit": false,
      "t": 99499.99999999996,
      "d": 133.33333333334303,
      "v": 61
    },
    {
      "midi": 64,
      "hit": false,
      "t": 99499.99999999996,
      "d": 137.50000000001455,
      "v": 61
    },
    {
      "midi": 60,
      "hit": false,
      "t": 100499.99999999997,
      "d": 100,
      "v": 60
    },
    {
      "midi": 57,
      "hit": false,
      "t": 100499.99999999997,
      "d": 112.5,
      "v": 60
    },
    {
      "midi": 65,
      "hit": false,
      "t": 100499.99999999997,
      "d": 116.66666666667152,
      "v": 60
    },
    {
      "midi": 72,
      "hit": false,
      "t": 100500.0000000002,
      "d": 83.33333333332848,
      "v": 62
    },
    {
      "midi": 77,
      "hit": false,
      "t": 100500.0000000002,
      "d": 116.66666666665697,
      "v": 98
    },
    {
      "midi": 81,
      "hit": false,
      "t": 100500.0000000002,
      "d": 170.83333333332848,
      "v": 93
    },
    {
      "midi": 65,
      "hit": false,
      "t": 100833.33333333331,
      "d": 116.66666666667152,
      "v": 61
    },
    {
      "midi": 60,
      "hit": false,
      "t": 100833.33333333331,
      "d": 145.83333333334303,
      "v": 61
    },
    {
      "midi": 69,
      "hit": false,
      "t": 100833.33333333331,
      "d": 175.00000000001455,
      "v": 61
    },
    {
      "midi": 77,
      "hit": false,
      "t": 100833.33333333353,
      "d": 162.5,
      "v": 89
    },
    {
      "midi": 81,
      "hit": false,
      "t": 100833.33333333353,
      "d": 204.16666666667152,
      "v": 89
    },
    {
      "midi": 84,
      "hit": false,
      "t": 100833.33333333353,
      "d": 245.83333333334303,
      "v": 98
    },
    {
      "midi": 65,
      "hit": false,
      "t": 101333.33333333333,
      "d": 258.3333333333285,
      "v": 58
    },
    {
      "midi": 69,
      "hit": false,
      "t": 101333.33333333333,
      "d": 283.3333333333285,
      "v": 58
    },
    {
      "midi": 72,
      "hit": false,
      "t": 101333.33333333333,
      "d": 291.66666666665697,
      "v": 58
    },
    {
      "midi": 89,
      "hit": false,
      "t": 101333.33333333355,
      "d": 295.8333333333285,
      "v": 98
    },
    {
      "midi": 84,
      "hit": false,
      "t": 101333.33333333355,
      "d": 337.5,
      "v": 93
    },
    {
      "midi": 81,
      "hit": false,
      "t": 101333.33333333355,
      "d": 379.1666666666715,
      "v": 93
    },
    {
      "midi": 43,
      "hit": false,
      "t": 101999.99999999999,
      "d": 108.33333333332848,
      "v": 59
    },
    {
      "midi": 79,
      "hit": false,
      "t": 102000.00000000022,
      "d": 87.5,
      "v": 89
    },
    {
      "midi": 82,
      "hit": false,
      "t": 102100.00000000022,
      "d": 166.66666666667152,
      "v": 71
    },
    {
      "midi": 79,
      "hit": false,
      "t": 102200.00000000022,
      "d": 75,
      "v": 64
    },
    {
      "midi": 74,
      "hit": false,
      "t": 102300.00000000022,
      "d": 125,
      "v": 64
    },
    {
      "midi": 79,
      "hit": false,
      "t": 102400.00000000022,
      "d": 108.33333333332848,
      "v": 85
    },
    {
      "midi": 67,
      "hit": false,
      "t": 102499.99999999999,
      "d": 129.16666666667152,
      "v": 62
    },
    {
      "midi": 62,
      "hit": false,
      "t": 102499.99999999999,
      "d": 137.5,
      "v": 62
    },
    {
      "midi": 58,
      "hit": false,
      "t": 102499.99999999999,
      "d": 154.16666666667152,
      "v": 62
    },
    {
      "midi": 65,
      "hit": false,
      "t": 102499.99999999999,
      "d": 154.16666666667152,
      "v": 62
    },
    {
      "midi": 36,
      "hit": false,
      "t": 102999.99999999999,
      "d": 166.66666666667152,
      "v": 56
    },
    {
      "midi": 81,
      "hit": false,
      "t": 103000.00000000022,
      "d": 87.5,
      "v": 89
    },
    {
      "midi": 84,
      "hit": false,
      "t": 103100.00000000022,
      "d": 112.5,
      "v": 62
    },
    {
      "midi": 81,
      "hit": false,
      "t": 103200.00000000022,
      "d": 100,
      "v": 62
    },
    {
      "midi": 76,
      "hit": false,
      "t": 103300.00000000022,
      "d": 133.33333333332848,
      "v": 64
    },
    {
      "midi": 81,
      "hit": false,
      "t": 103400.00000000022,
      "d": 95.83333333332848,
      "v": 89
    },
    {
      "midi": 69,
      "hit": false,
      "t": 103499.99999999999,
      "d": 120.83333333332848,
      "v": 58
    },
    {
      "midi": 64,
      "hit": false,
      "t": 103499.99999999999,
      "d": 137.5,
      "v": 58
    },
    {
      "midi": 58,
      "hit": false,
      "t": 103499.99999999999,
      "d": 141.66666666667152,
      "v": 58
    },
    {
      "midi": 67,
      "hit": false,
      "t": 103499.99999999999,
      "d": 150,
      "v": 58
    },
    {
      "midi": 41,
      "hit": false,
      "t": 103999.99999999999,
      "d": 258.3333333333285,
      "v": 58
    },
    {
      "midi": 69,
      "hit": false,
      "t": 104000.00000000022,
      "d": 237.5,
      "v": 72
    },
    {
      "midi": 72,
      "hit": false,
      "t": 104333.33333333355,
      "d": 145.83333333332848,
      "v": 60
    },
    {
      "midi": 53,
      "hit": false,
      "t": 104499.99999999999,
      "d": 66.66666666667152,
      "v": 58
    },
    {
      "midi": 60,
      "hit": false,
      "t": 104499.99999999999,
      "d": 87.5,
      "v": 58
    },
    {
      "midi": 57,
      "hit": false,
      "t": 104499.99999999999,
      "d": 100,
      "v": 58
    },
    {
      "midi": 65,
      "hit": false,
      "t": 104500.0000000002,
      "d": 166.66666666667152,
      "v": 89
    },
    {
      "midi": 69,
      "hit": false,
      "t": 104833.33333333355,
      "d": 225,
      "v": 80
    },
    {
      "midi": 41,
      "hit": false,
      "t": 104999.99999999999,
      "d": 266.6666666666715,
      "v": 55
    },
    {
      "midi": 62,
      "hit": false,
      "t": 105000.00000000022,
      "d": 158.33333333332848,
      "v": 76
    },
    {
      "midi": 65,
      "hit": false,
      "t": 105333.33333333355,
      "d": 87.5,
      "v": 93
    },
    {
      "midi": 53,
      "hit": false,
      "t": 105499.99999999999,
      "d": 91.66666666667152,
      "v": 57
    },
    {
      "midi": 60,
      "hit": false,
      "t": 105499.99999999999,
      "d": 108.33333333334303,
      "v": 57
    },
    {
      "midi": 57,
      "hit": false,
      "t": 105499.99999999999,
      "d": 116.66666666667152,
      "v": 57
    },
    {
      "midi": 69,
      "hit": false,
      "t": 105500.00000000022,
      "d": 70.83333333332848,
      "v": 64
    },
    {
      "midi": 72,
      "hit": false,
      "t": 105833.33333333355,
      "d": 79.16666666667152,
      "v": 102
    },
    {
      "midi": 37,
      "hit": false,
      "t": 105999.99999999999,
      "d": 291.6666666666715,
      "v": 57
    },
    {
      "midi": 53,
      "hit": false,
      "t": 105999.99999999999,
      "d": 312.5,
      "v": 57
    },
    {
      "midi": 73,
      "hit": false,
      "t": 106000.00000000022,
      "d": 70.83333333332848,
      "v": 89
    },
    {
      "midi": 75,
      "hit": false,
      "t": 106083.33333333355,
      "d": 75,
      "v": 68
    },
    {
      "midi": 77,
      "hit": false,
      "t": 106166.66666666688,
      "d": 100,
      "v": 64
    },
    {
      "midi": 78,
      "hit": false,
      "t": 106250.0000000002,
      "d": 83.33333333334303,
      "v": 64
    },
    {
      "midi": 80,
      "hit": false,
      "t": 106333.33333333355,
      "d": 83.33333333332848,
      "v": 64
    },
    {
      "midi": 82,
      "hit": false,
      "t": 106416.66666666688,
      "d": 54.16666666667152,
      "v": 68
    },
    {
      "midi": 53,
      "hit": false,
      "t": 106499.99999999999,
      "d": 108.33333333332848,
      "v": 57
    },
    {
      "midi": 56,
      "hit": false,
      "t": 106499.99999999999,
      "d": 116.66666666665697,
      "v": 57
    },
    {
      "midi": 61,
      "hit": false,
      "t": 106499.99999999999,
      "d": 145.83333333332848,
      "v": 57
    },
    {
      "midi": 85,
      "hit": false,
      "t": 106500.00000000022,
      "d": 95.83333333332848,
      "v": 89
    },
    {
      "midi": 89,
      "hit": false,
      "t": 106583.33333333355,
      "d": 75,
      "v": 89
    },
    {
      "midi": 39,
      "hit": false,
      "t": 106999.99999999999,
      "d": 166.66666666667152,
      "v": 58
    },
    {
      "midi": 55,
      "hit": false,
      "t": 106999.99999999999,
      "d": 300,
      "v": 58
    },
    {
      "midi": 75,
      "hit": false,
      "t": 107000.00000000022,
      "d": 75,
      "v": 72
    },
    {
      "midi": 77,
      "hit": false,
      "t": 107083.33333333355,
      "d": 175,
      "v": 85
    },
    {
      "midi": 79,
      "hit": false,
      "t": 107166.66666666688,
      "d": 54.16666666667152,
      "v": 65
    },
    {
      "midi": 80,
      "hit": false,
      "t": 107250.00000000022,
      "d": 104.16666666665697,
      "v": 66
    },
    {
      "midi": 82,
      "hit": false,
      "t": 107333.33333333355,
      "d": 66.66666666665697,
      "v": 89
    },
    {
      "midi": 84,
      "hit": false,
      "t": 107416.66666666688,
      "d": 95.83333333332848,
      "v": 85
    },
    {
      "midi": 55,
      "hit": false,
      "t": 107499.99999999999,
      "d": 125,
      "v": 58
    },
    {
      "midi": 63,
      "hit": false,
      "t": 107499.99999999999,
      "d": 141.66666666667152,
      "v": 58
    },
    {
      "midi": 58,
      "hit": false,
      "t": 107499.99999999999,
      "d": 183.33333333334303,
      "v": 58
    },
    {
      "midi": 85,
      "hit": false,
      "t": 107500.0000000002,
      "d": 91.66666666665697,
      "v": 80
    },
    {
      "midi": 91,
      "hit": false,
      "t": 107583.33333333353,
      "d": 87.5,
      "v": 93
    },
    {
      "midi": 44,
      "hit": false,
      "t": 108000,
      "d": 166.66666666667152,
      "v": 59
    },
    {
      "midi": 74,
      "hit": false,
      "t": 108000.0000000002,
      "d": 70.83333333332848,
      "v": 98
    },
    {
      "midi": 75,
      "hit": false,
      "t": 108333.33333333353,
      "d": 212.5,
      "v": 89
    },
    {
      "midi": 56,
      "hit": false,
      "t": 108500,
      "d": 175,
      "v": 62
    },
    {
      "midi": 60,
      "hit": false,
      "t": 108500,
      "d": 175,
      "v": 62
    },
    {
      "midi": 63,
      "hit": false,
      "t": 108500,
      "d": 191.66666666667152,
      "v": 62
    },
    {
      "midi": 72,
      "hit": false,
      "t": 108500.0000000002,
      "d": 308.3333333333285,
      "v": 76
    },
    {
      "midi": 68,
      "hit": false,
      "t": 108833.33333333353,
      "d": 262.5,
      "v": 80
    },
    {
      "midi": 72,
      "hit": false,
      "t": 109333.33333333353,
      "d": 237.5,
      "v": 80
    },
    {
      "midi": 60,
      "hit": false,
      "t": 109500,
      "d": 129.16666666667152,
      "v": 60
    },
    {
      "midi": 56,
      "hit": false,
      "t": 109500,
      "d": 137.5,
      "v": 60
    },
    {
      "midi": 63,
      "hit": false,
      "t": 109500,
      "d": 158.33333333332848,
      "v": 60
    },
    {
      "midi": 75,
      "hit": false,
      "t": 109500.0000000002,
      "d": 225,
      "v": 89
    },
    {
      "midi": 36,
      "hit": false,
      "t": 110000,
      "d": 58.33333333332848,
      "v": 61
    },
    {
      "midi": 52,
      "hit": false,
      "t": 110000,
      "d": 58.33333333332848,
      "v": 61
    },
    {
      "midi": 76,
      "hit": false,
      "t": 110000.0000000002,
      "d": 158.33333333332848,
      "v": 85
    },
    {
      "midi": 74,
      "hit": false,
      "t": 110125.0000000002,
      "d": 175,
      "v": 72
    },
    {
      "midi": 72,
      "hit": false,
      "t": 110250.0000000002,
      "d": 191.66666666667152,
      "v": 70
    },
    {
      "midi": 69,
      "hit": false,
      "t": 110375.0000000002,
      "d": 100,
      "v": 68
    },
    {
      "midi": 52,
      "hit": false,
      "t": 110500,
      "d": 116.66666666667152,
      "v": 61
    },
    {
      "midi": 55,
      "hit": false,
      "t": 110500,
      "d": 125,
      "v": 61
    },
    {
      "midi": 60,
      "hit": false,
      "t": 110500,
      "d": 137.5,
      "v": 61
    },
    {
      "midi": 67,
      "hit": false,
      "t": 110500.0000000002,
      "d": 183.33333333332848,
      "v": 76
    },
    {
      "midi": 69,
      "hit": false,
      "t": 110625.0000000002,
      "d": 154.16666666667152,
      "v": 64
    },
    {
      "midi": 72,
      "hit": false,
      "t": 110750.0000000002,
      "d": 141.66666666667152,
      "v": 72
    },
    {
      "midi": 76,
      "hit": false,
      "t": 110875.0000000002,
      "d": 79.16666666667152,
      "v": 70
    },
    {
      "midi": 43,
      "hit": false,
      "t": 111000,
      "d": 112.5,
      "v": 61
    },
    {
      "midi": 79,
      "hit": false,
      "t": 111000.0000000002,
      "d": 170.83333333332848,
      "v": 89
    },
    {
      "midi": 77,
      "hit": false,
      "t": 111125.0000000002,
      "d": 166.66666666667152,
      "v": 89
    },
    {
      "midi": 74,
      "hit": false,
      "t": 111250.0000000002,
      "d": 112.5,
      "v": 80
    },
    {
      "midi": 71,
      "hit": false,
      "t": 111375.0000000002,
      "d": 158.33333333332848,
      "v": 89
    },
    {
      "midi": 53,
      "hit": false,
      "t": 111500,
      "d": 108.33333333332848,
      "v": 59
    },
    {
      "midi": 62,
      "hit": false,
      "t": 111500,
      "d": 120.83333333332848,
      "v": 59
    },
    {
      "midi": 59,
      "hit": false,
      "t": 111500,
      "d": 129.16666666665697,
      "v": 59
    },
    {
      "midi": 55,
      "hit": false,
      "t": 111500,
      "d": 133.33333333332848,
      "v": 59
    },
    {
      "midi": 74,
      "hit": false,
      "t": 111500.0000000002,
      "d": 158.33333333332848,
      "v": 85
    },
    {
      "midi": 77,
      "hit": false,
      "t": 111625.0000000002,
      "d": 141.66666666667152,
      "v": 85
    },
    {
      "midi": 79,
      "hit": false,
      "t": 111750.0000000002,
      "d": 145.83333333332848,
      "v": 68
    },
    {
      "midi": 83,
      "hit": false,
      "t": 111875.0000000002,
      "d": 75,
      "v": 98
    },
    {
      "midi": 52,
      "hit": false,
      "t": 112000,
      "d": 641.6666666666715,
      "v": 63
    },
    {
      "midi": 60,
      "hit": false,
      "t": 112000,
      "d": 645.833333333343,
      "v": 63
    },
    {
      "midi": 48,
      "hit": false,
      "t": 112000,
      "d": 650.0000000000146,
      "v": 63
    },
    {
      "midi": 55,
      "hit": false,
      "t": 112000,
      "d": 662.5000000000146,
      "v": 63
    },
    {
      "midi": 84,
      "hit": false,
      "t": 112000.0000000002,
      "d": 100,
      "v": 98
    },
    {
      "midi": 60,
      "hit": false,
      "t": 112500.0000000002,
      "d": 162.5,
      "v": 89
    },
    {
      "midi": 62,
      "hit": false,
      "t": 112625.0000000002,
      "d": 166.66666666667152,
      "v": 68
    },
    {
      "midi": 64,
      "hit": false,
      "t": 112750.0000000002,
      "d": 125,
      "v": 76
    },
    {
      "midi": 68,
      "hit": false,
      "t": 112875.0000000002,
      "d": 75,
      "v": 62
    },
    {
      "midi": 72,
      "hit": false,
      "t": 113000.0000000002,
      "d": 141.66666666667152,
      "v": 89
    },
    {
      "midi": 76,
      "hit": false,
      "t": 113166.66666666688,
      "d": 175,
      "v": 89
    },
    {
      "midi": 80,
      "hit": false,
      "t": 113333.33333333355,
      "d": 91.66666666665697,
      "v": 85
    },
    {
      "midi": 84,
      "hit": false,
      "t": 113500.0000000002,
      "d": 137.5,
      "v": 93
    },
    {
      "midi": 81,
      "hit": false,
      "t": 113833.33333333353,
      "d": 91.66666666667152,
      "v": 102
    },
    {
      "midi": 53,
      "hit": false,
      "t": 114000.00000000001,
      "d": 100,
      "v": 61
    },
    {
      "midi": 60,
      "hit": false,
      "t": 114000.00000000001,
      "d": 120.83333333332848,
      "v": 61
    },
    {
      "midi": 57,
      "hit": false,
      "t": 114000.00000000001,
      "d": 125,
      "v": 61
    },
    {
      "midi": 84,
      "hit": false,
      "t": 114000.0000000002,
      "d": 208.33333333332848,
      "v": 107
    },
    {
      "midi": 93,
      "hit": false,
      "t": 114504.16666666686,
      "d": 91.66666666665697,
      "v": 89
    },
    {
      "midi": 91,
      "hit": false,
      "t": 114575.00000000019,
      "d": 145.83333333332848,
      "v": 69
    },
    {
      "midi": 89,
      "hit": false,
      "t": 114666.66666666685,
      "d": 120.83333333334303,
      "v": 72
    },
    {
      "midi": 86,
      "hit": false,
      "t": 114745.83333333352,
      "d": 75,
      "v": 68
    },
    {
      "midi": 84,
      "hit": false,
      "t": 114829.16666666685,
      "d": 50,
      "v": 68
    },
    {
      "midi": 81,
      "hit": false,
      "t": 114925.00000000017,
      "d": 129.16666666667152,
      "v": 85
    },
    {
      "midi": 79,
      "hit": false,
      "t": 115012.50000000017,
      "d": 104.16666666667152,
      "v": 70
    },
    {
      "midi": 77,
      "hit": false,
      "t": 115070.83333333352,
      "d": 79.16666666665697,
      "v": 76
    },
    {
      "midi": 74,
      "hit": false,
      "t": 115158.3333333335,
      "d": 104.16666666667152,
      "v": 73
    },
    {
      "midi": 69,
      "hit": false,
      "t": 115245.8333333335,
      "d": 62.5,
      "v": 93
    },
    {
      "midi": 53,
      "hit": false,
      "t": 115500.00000000001,
      "d": 104.16666666667152,
      "v": 63
    },
    {
      "midi": 57,
      "hit": false,
      "t": 115500.00000000001,
      "d": 116.66666666667152,
      "v": 63
    },
    {
      "midi": 50,
      "hit": false,
      "t": 115500.00000000001,
      "d": 133.33333333334303,
      "v": 63
    },
    {
      "midi": 69,
      "hit": false,
      "t": 115500.00000000017,
      "d": 112.5,
      "v": 89
    },
    {
      "midi": 72,
      "hit": false,
      "t": 115625.00000000017,
      "d": 133.33333333332848,
      "v": 68
    },
    {
      "midi": 74,
      "hit": false,
      "t": 115750.00000000017,
      "d": 133.33333333332848,
      "v": 64
    },
    {
      "midi": 77,
      "hit": false,
      "t": 115875.00000000017,
      "d": 108.33333333332848,
      "v": 76
    },
    {
      "midi": 50,
      "hit": false,
      "t": 116000.00000000003,
      "d": 245.83333333332848,
      "v": 65
    },
    {
      "midi": 53,
      "hit": false,
      "t": 116000.00000000003,
      "d": 254.16666666665697,
      "v": 65
    },
    {
      "midi": 58,
      "hit": false,
      "t": 116000.00000000003,
      "d": 262.49999999998545,
      "v": 65
    },
    {
      "midi": 55,
      "hit": false,
      "t": 116000.00000000003,
      "d": 279.16666666665697,
      "v": 65
    },
    {
      "midi": 74,
      "hit": false,
      "t": 116000.00000000017,
      "d": 166.66666666667152,
      "v": 72
    },
    {
      "midi": 79,
      "hit": false,
      "t": 116000.00000000017,
      "d": 175,
      "v": 76
    },
    {
      "midi": 77,
      "hit": false,
      "t": 116000.00000000017,
      "d": 191.66666666667152,
      "v": 64
    },
    {
      "midi": 70,
      "hit": false,
      "t": 116000.00000000017,
      "d": 195.83333333334303,
      "v": 76
    },
    {
      "midi": 70,
      "hit": false,
      "t": 116500.00000000019,
      "d": 125,
      "v": 62
    },
    {
      "midi": 82,
      "hit": false,
      "t": 116500.00000000019,
      "d": 145.83333333332848,
      "v": 72
    },
    {
      "midi": 84,
      "hit": false,
      "t": 116750.00000000019,
      "d": 120.83333333332848,
      "v": 93
    },
    {
      "midi": 72,
      "hit": false,
      "t": 116750.00000000019,
      "d": 133.33333333332848,
      "v": 76
    },
    {
      "midi": 73,
      "hit": false,
      "t": 117000.00000000019,
      "d": 137.5,
      "v": 80
    },
    {
      "midi": 85,
      "hit": false,
      "t": 117000.00000000019,
      "d": 154.16666666667152,
      "v": 93
    },
    {
      "midi": 72,
      "hit": false,
      "t": 117250.00000000019,
      "d": 104.16666666667152,
      "v": 89
    },
    {
      "midi": 84,
      "hit": false,
      "t": 117250.00000000019,
      "d": 104.16666666667152,
      "v": 89
    },
    {
      "midi": 48,
      "hit": false,
      "t": 117500.00000000001,
      "d": 116.66666666667152,
      "v": 65
    },
    {
      "midi": 52,
      "hit": false,
      "t": 117500.00000000001,
      "d": 129.16666666667152,
      "v": 65
    },
    {
      "midi": 55,
      "hit": false,
      "t": 117500.00000000001,
      "d": 133.33333333334303,
      "v": 65
    },
    {
      "midi": 70,
      "hit": false,
      "t": 117500.00000000019,
      "d": 108.33333333332848,
      "v": 60
    },
    {
      "midi": 82,
      "hit": false,
      "t": 117500.00000000019,
      "d": 129.16666666665697,
      "v": 72
    },
    {
      "midi": 71,
      "hit": false,
      "t": 117750.00000000017,
      "d": 87.5,
      "v": 72
    },
    {
      "midi": 83,
      "hit": false,
      "t": 117750.00000000017,
      "d": 112.5,
      "v": 85
    },
    {
      "midi": 53,
      "hit": false,
      "t": 118000.00000000003,
      "d": 183.33333333332848,
      "v": 66
    },
    {
      "midi": 60,
      "hit": false,
      "t": 118000.00000000003,
      "d": 212.5,
      "v": 66
    },
    {
      "midi": 57,
      "hit": false,
      "t": 118000.00000000003,
      "d": 241.66666666667152,
      "v": 66
    },
    {
      "midi": 72,
      "hit": false,
      "t": 118000.00000000017,
      "d": 100,
      "v": 76
    },
    {
      "midi": 84,
      "hit": false,
      "t": 118000.00000000017,
      "d": 100,
      "v": 89
    },
    {
      "midi": 93,
      "hit": false,
      "t": 118500.00000000017,
      "d": 100,
      "v": 93
    },
    {
      "midi": 91,
      "hit": false,
      "t": 118600.00000000017,
      "d": 133.33333333332848,
      "v": 75
    },
    {
      "midi": 89,
      "hit": false,
      "t": 118700.00000000017,
      "d": 133.33333333332848,
      "v": 76
    },
    {
      "midi": 86,
      "hit": false,
      "t": 118800.00000000017,
      "d": 95.83333333332848,
      "v": 64
    },
    {
      "midi": 84,
      "hit": false,
      "t": 118900.00000000017,
      "d": 45.83333333332848,
      "v": 72
    },
    {
      "midi": 81,
      "hit": false,
      "t": 119000.00000000017,
      "d": 87.5,
      "v": 76
    },
    {
      "midi": 79,
      "hit": false,
      "t": 119100.00000000017,
      "d": 137.5,
      "v": 68
    },
    {
      "midi": 77,
      "hit": false,
      "t": 119200.00000000017,
      "d": 133.33333333332848,
      "v": 64
    },
    {
      "midi": 74,
      "hit": false,
      "t": 119300.00000000017,
      "d": 108.33333333332848,
      "v": 62
    },
    {
      "midi": 72,
      "hit": false,
      "t": 119400.00000000017,
      "d": 83.33333333332848,
      "v": 80
    },
    {
      "midi": 74,
      "hit": false,
      "t": 119500.00000000017,
      "d": 129.16666666667152,
      "v": 85
    },
    {
      "midi": 77,
      "hit": false,
      "t": 119666.66666666685,
      "d": 133.33333333332848,
      "v": 80
    },
    {
      "midi": 81,
      "hit": false,
      "t": 119833.3333333335,
      "d": 75,
      "v": 74
    },
    {
      "midi": 58,
      "hit": false,
      "t": 120000.00000000003,
      "d": 133.33333333332848,
      "v": 64
    },
    {
      "midi": 55,
      "hit": false,
      "t": 120125.00000000003,
      "d": 116.66666666665697,
      "v": 63
    },
    {
      "midi": 53,
      "hit": false,
      "t": 120250.00000000001,
      "d": 137.5,
      "v": 63
    },
    {
      "midi": 50,
      "hit": false,
      "t": 120375.00000000001,
      "d": 116.66666666667152,
      "v": 62
    },
    {
      "midi": 67,
      "hit": false,
      "t": 120500.00000000017,
      "d": 79.16666666667152,
      "v": 85
    },
    {
      "midi": 79,
      "hit": false,
      "t": 120500.00000000017,
      "d": 79.16666666667152,
      "v": 89
    },
    {
      "midi": 81,
      "hit": false,
      "t": 120750.00000000017,
      "d": 75,
      "v": 72
    },
    {
      "midi": 69,
      "hit": false,
      "t": 120750.00000000017,
      "d": 79.16666666667152,
      "v": 72
    },
    {
      "midi": 82,
      "hit": false,
      "t": 121000.00000000017,
      "d": 95.83333333332848,
      "v": 72
    },
    {
      "midi": 70,
      "hit": false,
      "t": 121000.00000000017,
      "d": 120.83333333332848,
      "v": 89
    },
    {
      "midi": 76,
      "hit": false,
      "t": 121000.00000000017,
      "d": 179.16666666665697,
      "v": 85
    },
    {
      "midi": 73,
      "hit": false,
      "t": 121000.00000000017,
      "d": 187.49999999998545,
      "v": 72
    },
    {
      "midi": 79,
      "hit": false,
      "t": 121000.00000000017,
      "d": 212.49999999998545,
      "v": 72
    },
    {
      "midi": 69,
      "hit": false,
      "t": 121250.00000000016,
      "d": 79.16666666667152,
      "v": 76
    },
    {
      "midi": 81,
      "hit": false,
      "t": 121250.00000000016,
      "d": 83.33333333334303,
      "v": 89
    },
    {
      "midi": 79,
      "hit": false,
      "t": 121500.00000000017,
      "d": 79.16666666667152,
      "v": 76
    },
    {
      "midi": 67,
      "hit": false,
      "t": 121500.00000000017,
      "d": 100,
      "v": 76
    },
    {
      "midi": 80,
      "hit": false,
      "t": 121750.00000000017,
      "d": 87.5,
      "v": 60
    },
    {
      "midi": 68,
      "hit": false,
      "t": 121750.00000000017,
      "d": 100,
      "v": 76
    },
    {
      "midi": 53,
      "hit": false,
      "t": 122000.00000000001,
      "d": 220.83333333332848,
      "v": 65
    },
    {
      "midi": 57,
      "hit": false,
      "t": 122000.00000000001,
      "d": 233.33333333332848,
      "v": 65
    },
    {
      "midi": 81,
      "hit": false,
      "t": 122000.00000000017,
      "d": 112.5,
      "v": 98
    },
    {
      "midi": 74,
      "hit": false,
      "t": 122000.00000000017,
      "d": 129.16666666667152,
      "v": 64
    },
    {
      "midi": 77,
      "hit": false,
      "t": 122000.00000000017,
      "d": 145.83333333334303,
      "v": 53
    },
    {
      "midi": 72,
      "hit": false,
      "t": 122000.00000000017,
      "d": 158.33333333334303,
      "v": 76
    },
    {
      "midi": 69,
      "hit": false,
      "t": 122000.00000000017,
      "d": 170.83333333334303,
      "v": 80
    },
    {
      "midi": 81,
      "hit": false,
      "t": 122166.66666666685,
      "d": 162.5,
      "v": 89
    },
    {
      "midi": 76,
      "hit": false,
      "t": 122333.33333333352,
      "d": 116.66666666667152,
      "v": 73
    },
    {
      "midi": 74,
      "hit": false,
      "t": 122500.00000000019,
      "d": 108.33333333332848,
      "v": 89
    },
    {
      "midi": 76,
      "hit": false,
      "t": 122833.33333333352,
      "d": 108.33333333332848,
      "v": 80
    },
    {
      "midi": 53,
      "hit": false,
      "t": 123000.00000000001,
      "d": 108.33333333332848,
      "v": 63
    },
    {
      "midi": 50,
      "hit": false,
      "t": 123000.00000000001,
      "d": 133.33333333332848,
      "v": 63
    },
    {
      "midi": 57,
      "hit": false,
      "t": 123000.00000000001,
      "d": 137.5,
      "v": 63
    },
    {
      "midi": 74,
      "hit": false,
      "t": 123000.00000000017,
      "d": 154.16666666667152,
      "v": 93
    },
    {
      "midi": 77,
      "hit": false,
      "t": 123166.66666666685,
      "d": 187.5,
      "v": 80
    },
    {
      "midi": 74,
      "hit": false,
      "t": 123333.33333333352,
      "d": 137.5,
      "v": 68
    },
    {
      "midi": 70,
      "hit": false,
      "t": 123500.00000000019,
      "d": 25,
      "v": 72
    },
    {
      "midi": 74,
      "hit": false,
      "t": 123833.33333333352,
      "d": 83.33333333332848,
      "v": 72
    },
    {
      "midi": 53,
      "hit": false,
      "t": 124000.00000000001,
      "d": 137.5,
      "v": 60
    },
    {
      "midi": 62,
      "hit": false,
      "t": 124000.00000000001,
      "d": 204.16666666667152,
      "v": 60
    },
    {
      "midi": 55,
      "hit": false,
      "t": 124000.00000000001,
      "d": 208.33333333334303,
      "v": 60
    },
    {
      "midi": 58,
      "hit": false,
      "t": 124000.00000000001,
      "d": 275.00000000001455,
      "v": 60
    },
    {
      "midi": 70,
      "hit": false,
      "t": 124000.00000000017,
      "d": 320.8333333333285,
      "v": 89
    },
    {
      "midi": 74,
      "hit": false,
      "t": 124333.3333333335,
      "d": 91.66666666667152,
      "v": 72
    },
    {
      "midi": 75,
      "hit": false,
      "t": 124500.00000000017,
      "d": 133.33333333332848,
      "v": 93
    },
    {
      "midi": 76,
      "hit": false,
      "t": 124833.3333333335,
      "d": 129.16666666667152,
      "v": 89
    },
    {
      "midi": 55,
      "hit": false,
      "t": 125000.00000000003,
      "d": 225,
      "v": 61
    },
    {
      "midi": 48,
      "hit": false,
      "t": 125000.00000000003,
      "d": 229.16666666667152,
      "v": 61
    },
    {
      "midi": 52,
      "hit": false,
      "t": 125000.00000000003,
      "d": 241.66666666667152,
      "v": 61
    },
    {
      "midi": 81,
      "hit": false,
      "t": 125000.00000000017,
      "d": 320.8333333333285,
      "v": 98
    },
    {
      "midi": 76,
      "hit": false,
      "t": 125333.3333333335,
      "d": 112.5,
      "v": 76
    },
    {
      "midi": 81,
      "hit": false,
      "t": 125500.00000000017,
      "d": 270.8333333333285,
      "v": 98
    },
    {
      "midi": 76,
      "hit": false,
      "t": 125833.3333333335,
      "d": 95.83333333332848,
      "v": 89
    },
    {
      "midi": 79,
      "hit": false,
      "t": 126000.00000000016,
      "d": 358.3333333333285,
      "v": 89
    },
    {
      "midi": 77,
      "hit": false,
      "t": 126333.33333333349,
      "d": 312.5,
      "v": 89
    },
    {
      "midi": 57,
      "hit": false,
      "t": 126500.00000000003,
      "d": 270.83333333334303,
      "v": 62
    },
    {
      "midi": 60,
      "hit": false,
      "t": 126666.6666666667,
      "d": 216.66666666667152,
      "v": 61
    },
    {
      "midi": 65,
      "hit": false,
      "t": 126833.33333333337,
      "d": 116.66666666667152,
      "v": 63
    },
    {
      "midi": 73,
      "hit": false,
      "t": 127000.00000000016,
      "d": 58.33333333332848,
      "v": 72
    },
    {
      "midi": 75,
      "hit": false,
      "t": 127083.33333333349,
      "d": 95.83333333332848,
      "v": 71
    },
    {
      "midi": 73,
      "hit": false,
      "t": 127166.66666666682,
      "d": 66.66666666667152,
      "v": 69
    },
    {
      "midi": 72,
      "hit": false,
      "t": 127250.00000000016,
      "d": 100,
      "v": 72
    },
    {
      "midi": 70,
      "hit": false,
      "t": 127333.33333333349,
      "d": 87.50000000001455,
      "v": 76
    },
    {
      "midi": 71,
      "hit": false,
      "t": 127416.66666666683,
      "d": 137.50000000001455,
      "v": 76
    },
    {
      "midi": 72,
      "hit": false,
      "t": 127500.00000000017,
      "d": 112.5,
      "v": 80
    },
    {
      "midi": 73,
      "hit": false,
      "t": 127833.3333333335,
      "d": 87.5,
      "v": 76
    },
    {
      "midi": 57,
      "hit": false,
      "t": 128000.00000000004,
      "d": 125,
      "v": 62
    },
    {
      "midi": 65,
      "hit": false,
      "t": 128000.00000000004,
      "d": 137.5,
      "v": 62
    },
    {
      "midi": 62,
      "hit": false,
      "t": 128000.00000000004,
      "d": 150,
      "v": 62
    },
    {
      "midi": 60,
      "hit": false,
      "t": 128000.00000000004,
      "d": 162.5,
      "v": 62
    },
    {
      "midi": 72,
      "hit": false,
      "t": 128000.00000000017,
      "d": 379.16666666665697,
      "v": 89
    },
    {
      "midi": 69,
      "hit": false,
      "t": 128333.3333333335,
      "d": 212.49999999998545,
      "v": 64
    },
    {
      "midi": 67,
      "hit": false,
      "t": 128500.00000000016,
      "d": 287.5,
      "v": 72
    },
    {
      "midi": 65,
      "hit": false,
      "t": 128833.33333333349,
      "d": 116.66666666667152,
      "v": 76
    },
    {
      "midi": 70,
      "hit": false,
      "t": 129000.00000000016,
      "d": 95.83333333332848,
      "v": 89
    },
    {
      "midi": 72,
      "hit": false,
      "t": 129083.33333333349,
      "d": 145.83333333332848,
      "v": 68
    },
    {
      "midi": 70,
      "hit": false,
      "t": 129250.00000000015,
      "d": 108.33333333332848,
      "v": 71
    },
    {
      "midi": 67,
      "hit": false,
      "t": 129333.33333333347,
      "d": 154.16666666665697,
      "v": 72
    },
    {
      "midi": 68,
      "hit": false,
      "t": 129416.6666666668,
      "d": 100,
      "v": 89
    },
    {
      "midi": 55,
      "hit": false,
      "t": 129500.00000000004,
      "d": 129.16666666667152,
      "v": 65
    },
    {
      "midi": 52,
      "hit": false,
      "t": 129500.00000000004,
      "d": 133.33333333334303,
      "v": 65
    },
    {
      "midi": 61,
      "hit": false,
      "t": 129500.00000000004,
      "d": 170.83333333334303,
      "v": 65
    },
    {
      "midi": 58,
      "hit": false,
      "t": 129500.00000000004,
      "d": 208.33333333334303,
      "v": 65
    },
    {
      "midi": 69,
      "hit": false,
      "t": 129500.00000000013,
      "d": 129.16666666667152,
      "v": 72
    },
    {
      "midi": 64,
      "hit": false,
      "t": 129666.6666666668,
      "d": 108.33333333332848,
      "v": 72
    },
    {
      "midi": 60,
      "hit": false,
      "t": 129833.33333333346,
      "d": 87.5,
      "v": 59
    },
    {
      "midi": 60,
      "hit": false,
      "t": 130000.00000000006,
      "d": 970.8333333333285,
      "v": 67
    },
    {
      "midi": 65,
      "hit": false,
      "t": 130000.00000000013,
      "d": 900,
      "v": 64
    },
    {
      "midi": 72,
      "hit": false,
      "t": 130000.00000000013,
      "d": 908.3333333333285,
      "v": 76
    },
    {
      "midi": 69,
      "hit": false,
      "t": 130000.00000000013,
      "d": 912.5,
      "v": 64
    },
    {
      "midi": 62,
      "hit": false,
      "t": 131000.00000000006,
      "d": 566.666666666657,
      "v": 63
    },
    {
      "midi": 65,
      "hit": false,
      "t": 131000.00000000013,
      "d": 783.3333333333285,
      "v": 72
    },
    {
      "midi": 69,
      "hit": false,
      "t": 131000.00000000013,
      "d": 808.3333333333285,
      "v": 68
    },
    {
      "midi": 72,
      "hit": false,
      "t": 131000.00000000013,
      "d": 862.4999999999854,
      "v": 80
    },
    {
      "midi": 58,
      "hit": false,
      "t": 132000.00000000006,
      "d": 366.66666666665697,
      "v": 65
    },
    {
      "midi": 43,
      "hit": false,
      "t": 132000.00000000006,
      "d": 462.5,
      "v": 65
    },
    {
      "midi": 70,
      "hit": false,
      "t": 132333.33333333346,
      "d": 100,
      "v": 59
    },
    {
      "midi": 74,
      "hit": false,
      "t": 132333.33333333346,
      "d": 104.16666666665697,
      "v": 68
    },
    {
      "midi": 65,
      "hit": false,
      "t": 132500.00000000006,
      "d": 341.66666666665697,
      "v": 59
    },
    {
      "midi": 62,
      "hit": false,
      "t": 132500.00000000006,
      "d": 358.33333333331393,
      "v": 59
    },
    {
      "midi": 58,
      "hit": false,
      "t": 132500.00000000006,
      "d": 504.16666666662786,
      "v": 59
    },
    {
      "midi": 77,
      "hit": false,
      "t": 132500.00000000012,
      "d": 166.66666666665697,
      "v": 89
    },
    {
      "midi": 74,
      "hit": false,
      "t": 132500.00000000012,
      "d": 200,
      "v": 93
    },
    {
      "midi": 76,
      "hit": false,
      "t": 132833.33333333346,
      "d": 116.66666666665697,
      "v": 72
    },
    {
      "midi": 72,
      "hit": false,
      "t": 132833.33333333346,
      "d": 137.5,
      "v": 72
    },
    {
      "midi": 52,
      "hit": false,
      "t": 133000.00000000003,
      "d": 387.5,
      "v": 64
    },
    {
      "midi": 36,
      "hit": false,
      "t": 133000.00000000003,
      "d": 591.666666666657,
      "v": 64
    },
    {
      "midi": 70,
      "hit": false,
      "t": 133000.00000000012,
      "d": 137.5,
      "v": 64
    },
    {
      "midi": 74,
      "hit": false,
      "t": 133000.00000000012,
      "d": 150,
      "v": 64
    },
    {
      "midi": 70,
      "hit": false,
      "t": 133333.33333333346,
      "d": 108.33333333334303,
      "v": 64
    },
    {
      "midi": 72,
      "hit": false,
      "t": 133333.33333333346,
      "d": 116.66666666668607,
      "v": 80
    },
    {
      "midi": 76,
      "hit": false,
      "t": 133333.33333333346,
      "d": 162.5000000000291,
      "v": 80
    },
    {
      "midi": 55,
      "hit": false,
      "t": 133500.00000000003,
      "d": 295.83333333331393,
      "v": 59
    },
    {
      "midi": 58,
      "hit": false,
      "t": 133500.00000000003,
      "d": 312.4999999999709,
      "v": 59
    },
    {
      "midi": 64,
      "hit": false,
      "t": 133500.00000000003,
      "d": 404.16666666662786,
      "v": 59
    },
    {
      "midi": 89,
      "hit": false,
      "t": 133833.3333333335,
      "d": 758.333333333343,
      "v": 80
    },
    {
      "midi": 93,
      "hit": false,
      "t": 133833.3333333335,
      "d": 758.333333333343,
      "v": 85
    },
    {
      "midi": 96,
      "hit": false,
      "t": 133833.3333333335,
      "d": 787.5,
      "v": 85
    },
    {
      "midi": 84,
      "hit": false,
      "t": 133833.3333333335,
      "d": 804.166666666657,
      "v": 80
    },
    {
      "midi": 60,
      "hit": false,
      "t": 134000,
      "d": 412.5,
      "v": 66
    },
    {
      "midi": 45,
      "hit": false,
      "t": 134000,
      "d": 575,
      "v": 66
    },
    {
      "midi": 69,
      "hit": false,
      "t": 134500,
      "d": 237.5,
      "v": 59
    },
    {
      "midi": 60,
      "hit": false,
      "t": 134500,
      "d": 254.16666666665697,
      "v": 59
    },
    {
      "midi": 65,
      "hit": false,
      "t": 134500,
      "d": 295.83333333331393,
      "v": 59
    },
    {
      "midi": 96,
      "hit": false,
      "t": 134833.3333333335,
      "d": 675,
      "v": 72
    },
    {
      "midi": 93,
      "hit": false,
      "t": 134833.3333333335,
      "d": 720.833333333343,
      "v": 80
    },
    {
      "midi": 89,
      "hit": false,
      "t": 134833.3333333335,
      "d": 741.6666666666861,
      "v": 76
    },
    {
      "midi": 84,
      "hit": false,
      "t": 134833.3333333335,
      "d": 770.833333333343,
      "v": 64
    },
    {
      "midi": 53,
      "hit": false,
      "t": 134999.99999999997,
      "d": 408.33333333334303,
      "v": 66
    },
    {
      "midi": 38,
      "hit": false,
      "t": 134999.99999999997,
      "d": 550,
      "v": 66
    },
    {
      "midi": 65,
      "hit": false,
      "t": 135499.99999999997,
      "d": 262.5,
      "v": 59
    },
    {
      "midi": 62,
      "hit": false,
      "t": 135499.99999999997,
      "d": 325,
      "v": 59
    },
    {
      "midi": 60,
      "hit": false,
      "t": 135499.99999999997,
      "d": 333.33333333334303,
      "v": 59
    },
    {
      "midi": 57,
      "hit": false,
      "t": 135499.99999999997,
      "d": 370.83333333334303,
      "v": 59
    },
    {
      "midi": 43,
      "hit": false,
      "t": 135999.99999999997,
      "d": 487.5,
      "v": 66
    },
    {
      "midi": 53,
      "hit": false,
      "t": 135999.99999999997,
      "d": 500,
      "v": 66
    },
    {
      "midi": 58,
      "hit": false,
      "t": 136000.00000000017,
      "d": 345.83333333334303,
      "v": 85
    },
    {
      "midi": 67,
      "hit": false,
      "t": 136333.33333333352,
      "d": 241.66666666665697,
      "v": 76
    },
    {
      "midi": 69,
      "hit": false,
      "t": 136500.00000000017,
      "d": 133.33333333334303,
      "v": 89
    },
    {
      "midi": 70,
      "hit": false,
      "t": 136666.66666666686,
      "d": 120.83333333334303,
      "v": 71
    },
    {
      "midi": 72,
      "hit": false,
      "t": 136833.33333333355,
      "d": 129.16666666668607,
      "v": 68
    },
    {
      "midi": 70,
      "hit": false,
      "t": 136916.6666666669,
      "d": 79.16666666668607,
      "v": 72
    },
    {
      "midi": 48,
      "hit": false,
      "t": 136999.99999999997,
      "d": 412.5,
      "v": 60
    },
    {
      "midi": 58,
      "hit": false,
      "t": 136999.99999999997,
      "d": 458.33333333334303,
      "v": 60
    },
    {
      "midi": 68,
      "hit": false,
      "t": 137000.00000000023,
      "d": 108.33333333334303,
      "v": 55
    },
    {
      "midi": 69,
      "hit": false,
      "t": 137000.00000000023,
      "d": 237.5,
      "v": 76
    },
    {
      "midi": 64,
      "hit": false,
      "t": 137000.00000000023,
      "d": 341.66666666668607,
      "v": 60
    },
    {
      "midi": 62,
      "hit": false,
      "t": 137000.00000000023,
      "d": 350.0000000000291,
      "v": 80
    },
    {
      "midi": 67,
      "hit": false,
      "t": 137333.33333333358,
      "d": 91.66666666668607,
      "v": 72
    },
    {
      "midi": 46,
      "hit": false,
      "t": 137499.99999999997,
      "d": 345.83333333334303,
      "v": 56
    },
    {
      "midi": 62,
      "hit": false,
      "t": 137499.99999999997,
      "d": 391.66666666668607,
      "v": 56
    },
    {
      "midi": 81,
      "hit": false,
      "t": 137833.3333333336,
      "d": 516.666666666657,
      "v": 80
    },
    {
      "midi": 69,
      "hit": false,
      "t": 137833.3333333336,
      "d": 520.8333333333139,
      "v": 47
    },
    {
      "midi": 73,
      "hit": false,
      "t": 137833.3333333336,
      "d": 520.8333333333139,
      "v": 60
    },
    {
      "midi": 77,
      "hit": false,
      "t": 137833.3333333336,
      "d": 537.4999999999709,
      "v": 60
    },
    {
      "midi": 61,
      "hit": false,
      "t": 138000,
      "d": 295.83333333334303,
      "v": 66
    },
    {
      "midi": 45,
      "hit": false,
      "t": 138000,
      "d": 312.5,
      "v": 66
    },
    {
      "midi": 81,
      "hit": false,
      "t": 138500.00000000023,
      "d": 166.66666666665697,
      "v": 80
    },
    {
      "midi": 83,
      "hit": false,
      "t": 138625.00000000023,
      "d": 179.16666666665697,
      "v": 76
    },
    {
      "midi": 78,
      "hit": false,
      "t": 138750.00000000023,
      "d": 116.66666666665697,
      "v": 72
    },
    {
      "midi": 76,
      "hit": false,
      "t": 138875.00000000023,
      "d": 45.833333333343035,
      "v": 72
    },
    {
      "midi": 54,
      "hit": false,
      "t": 139000,
      "d": 233.33333333334303,
      "v": 61
    },
    {
      "midi": 38,
      "hit": false,
      "t": 139000,
      "d": 291.66666666668607,
      "v": 61
    },
    {
      "midi": 72,
      "hit": false,
      "t": 139000.00000000023,
      "d": 137.5,
      "v": 76
    },
    {
      "midi": 71,
      "hit": false,
      "t": 139125.00000000023,
      "d": 162.5,
      "v": 64
    },
    {
      "midi": 66,
      "hit": false,
      "t": 139250.00000000023,
      "d": 104.16666666665697,
      "v": 64
    },
    {
      "midi": 64,
      "hit": false,
      "t": 139375.00000000023,
      "d": 54.166666666656965,
      "v": 72
    },
    {
      "midi": 60,
      "hit": false,
      "t": 139500.00000000023,
      "d": 141.66666666665697,
      "v": 68
    },
    {
      "midi": 59,
      "hit": false,
      "t": 139625.00000000023,
      "d": 112.5,
      "v": 69
    },
    {
      "midi": 54,
      "hit": false,
      "t": 139750.00000000023,
      "d": 116.66666666665697,
      "v": 72
    },
    {
      "midi": 51,
      "hit": false,
      "t": 139875.00000000023,
      "d": 62.5,
      "v": 89
    },
    {
      "midi": 37,
      "hit": false,
      "t": 140000.00000000003,
      "d": 754.166666666657,
      "v": 67
    },
    {
      "midi": 53,
      "hit": false,
      "t": 140000.00000000003,
      "d": 754.166666666657,
      "v": 67
    },
    {
      "midi": 53,
      "hit": false,
      "t": 140000.00000000023,
      "d": 329.16666666665697,
      "v": 85
    },
    {
      "midi": 59,
      "hit": false,
      "t": 140333.33333333355,
      "d": 70.83333333334303,
      "v": 80
    },
    {
      "midi": 65,
      "hit": false,
      "t": 140333.33333333355,
      "d": 79.16666666668607,
      "v": 68
    },
    {
      "midi": 67,
      "hit": false,
      "t": 140500.00000000023,
      "d": 291.66666666665697,
      "v": 93
    },
    {
      "midi": 63,
      "hit": false,
      "t": 140500.00000000023,
      "d": 354.16666666665697,
      "v": 72
    },
    {
      "midi": 69,
      "hit": false,
      "t": 140833.33333333355,
      "d": 108.33333333334303,
      "v": 68
    },
    {
      "midi": 65,
      "hit": false,
      "t": 140833.33333333355,
      "d": 129.16666666668607,
      "v": 76
    },
    {
      "midi": 36,
      "hit": false,
      "t": 141000.00000000003,
      "d": 641.666666666657,
      "v": 67
    },
    {
      "midi": 52,
      "hit": false,
      "t": 141000.00000000003,
      "d": 704.166666666657,
      "v": 67
    },
    {
      "midi": 62,
      "hit": false,
      "t": 141000.00000000023,
      "d": 66.66666666665697,
      "v": 76
    },
    {
      "midi": 65,
      "hit": false,
      "t": 141000.00000000023,
      "d": 70.83333333331393,
      "v": 56
    },
    {
      "midi": 59,
      "hit": false,
      "t": 141000.00000000023,
      "d": 87.4999999999709,
      "v": 76
    },
    {
      "midi": 58,
      "hit": false,
      "t": 141333.33333333355,
      "d": 366.66666666665697,
      "v": 76
    },
    {
      "midi": 67,
      "hit": false,
      "t": 141333.33333333355,
      "d": 370.83333333331393,
      "v": 80
    },
    {
      "midi": 61,
      "hit": false,
      "t": 141333.33333333355,
      "d": 379.16666666665697,
      "v": 93
    },
    {
      "midi": 64,
      "hit": false,
      "t": 141333.33333333355,
      "d": 379.16666666665697,
      "v": 80
    },
    {
      "midi": 41,
      "hit": false,
      "t": 141833.33333333334,
      "d": 712.5,
      "v": 64
    },
    {
      "midi": 48,
      "hit": false,
      "t": 141833.33333333334,
      "d": 720.833333333343,
      "v": 64
    },
    {
      "midi": 57,
      "hit": false,
      "t": 141833.33333333355,
      "d": 383.33333333334303,
      "v": 72
    },
    {
      "midi": 60,
      "hit": false,
      "t": 141833.33333333355,
      "d": 445.83333333334303,
      "v": 72
    },
    {
      "midi": 65,
      "hit": false,
      "t": 141833.33333333355,
      "d": 495.83333333334303,
      "v": 72
    },
    {
      "midi": 60,
      "hit": false,
      "t": 142500.00000000023,
      "d": 175,
      "v": 85
    },
    {
      "midi": 65,
      "hit": false,
      "t": 142625.00000000023,
      "d": 154.16666666665697,
      "v": 74
    },
    {
      "midi": 69,
      "hit": false,
      "t": 142750.00000000023,
      "d": 125,
      "v": 69
    },
    {
      "midi": 72,
      "hit": false,
      "t": 142875.00000000023,
      "d": 83.33333333334303,
      "v": 66
    },
    {
      "midi": 44,
      "hit": false,
      "t": 143000.00000000003,
      "d": 575,
      "v": 66
    },
    {
      "midi": 51,
      "hit": false,
      "t": 143000.00000000003,
      "d": 583.333333333343,
      "v": 66
    },
    {
      "midi": 70,
      "hit": false,
      "t": 143000.00000000023,
      "d": 120.83333333334303,
      "v": 67
    },
    {
      "midi": 66,
      "hit": false,
      "t": 143125.00000000023,
      "d": 120.83333333334303,
      "v": 71
    },
    {
      "midi": 63,
      "hit": false,
      "t": 143250.00000000023,
      "d": 116.66666666665697,
      "v": 85
    },
    {
      "midi": 66,
      "hit": false,
      "t": 143375.00000000023,
      "d": 45.833333333343035,
      "v": 73
    },
    {
      "midi": 70,
      "hit": false,
      "t": 143500.00000000023,
      "d": 200,
      "v": 89
    },
    {
      "midi": 72,
      "hit": false,
      "t": 143666.6666666669,
      "d": 179.16666666668607,
      "v": 80
    },
    {
      "midi": 75,
      "hit": false,
      "t": 143833.33333333358,
      "d": 87.5,
      "v": 68
    },
    {
      "midi": 65,
      "hit": false,
      "t": 144000.00000000003,
      "d": 429.16666666665697,
      "v": 69
    },
    {
      "midi": 49,
      "hit": false,
      "t": 144000.00000000003,
      "d": 454.16666666665697,
      "v": 69
    },
    {
      "midi": 77,
      "hit": false,
      "t": 144000.00000000023,
      "d": 162.5,
      "v": 93
    },
    {
      "midi": 73,
      "hit": false,
      "t": 144125.00000000023,
      "d": 145.83333333334303,
      "v": 60
    },
    {
      "midi": 72,
      "hit": false,
      "t": 144250.00000000023,
      "d": 137.5,
      "v": 72
    },
    {
      "midi": 75,
      "hit": false,
      "t": 144375.00000000023,
      "d": 79.16666666665697,
      "v": 59
    },
    {
      "midi": 73,
      "hit": false,
      "t": 144500.00000000023,
      "d": 141.66666666665697,
      "v": 80
    },
    {
      "midi": 70,
      "hit": false,
      "t": 144625.00000000023,
      "d": 112.5,
      "v": 62
    },
    {
      "midi": 72,
      "hit": false,
      "t": 144750.00000000023,
      "d": 141.66666666665697,
      "v": 76
    },
    {
      "midi": 73,
      "hit": false,
      "t": 144875.00000000023,
      "d": 70.83333333331393,
      "v": 72
    },
    {
      "midi": 64,
      "hit": false,
      "t": 145000.00000000003,
      "d": 408.33333333334303,
      "v": 65
    },
    {
      "midi": 48,
      "hit": false,
      "t": 145000.00000000003,
      "d": 441.66666666668607,
      "v": 65
    },
    {
      "midi": 76,
      "hit": false,
      "t": 145000.0000000002,
      "d": 175,
      "v": 89
    },
    {
      "midi": 81,
      "hit": false,
      "t": 145125.0000000002,
      "d": 150,
      "v": 85
    },
    {
      "midi": 82,
      "hit": false,
      "t": 145250.0000000002,
      "d": 145.83333333334303,
      "v": 76
    },
    {
      "midi": 84,
      "hit": false,
      "t": 145375.0000000002,
      "d": 150,
      "v": 76
    },
    {
      "midi": 80,
      "hit": false,
      "t": 145500.0000000002,
      "d": 187.5,
      "v": 72
    },
    {
      "midi": 76,
      "hit": false,
      "t": 145625.0000000002,
      "d": 120.83333333334303,
      "v": 72
    },
    {
      "midi": 73,
      "hit": false,
      "t": 145750.0000000002,
      "d": 45.833333333343035,
      "v": 72
    },
    {
      "midi": 70,
      "hit": false,
      "t": 145875.0000000002,
      "d": 45.833333333343035,
      "v": 74
    },
    {
      "midi": 48,
      "hit": false,
      "t": 146000.00000000006,
      "d": 237.5,
      "v": 60
    },
    {
      "midi": 57,
      "hit": false,
      "t": 146000.00000000006,
      "d": 266.66666666665697,
      "v": 60
    },
    {
      "midi": 65,
      "hit": false,
      "t": 146000.0000000002,
      "d": 141.66666666665697,
      "v": 98
    },
    {
      "midi": 72,
      "hit": false,
      "t": 146000.0000000002,
      "d": 191.66666666665697,
      "v": 93
    },
    {
      "midi": 57,
      "hit": false,
      "t": 146500.00000000006,
      "d": 125,
      "v": 63
    },
    {
      "midi": 65,
      "hit": false,
      "t": 146500.00000000006,
      "d": 137.5,
      "v": 63
    },
    {
      "midi": 62,
      "hit": false,
      "t": 146500.00000000006,
      "d": 145.83333333334303,
      "v": 63
    },
    {
      "midi": 60,
      "hit": false,
      "t": 146500.00000000006,
      "d": 154.16666666668607,
      "v": 63
    },
    {
      "midi": 96,
      "hit": false,
      "t": 146833.33333333352,
      "d": 812.5,
      "v": 89
    },
    {
      "midi": 89,
      "hit": false,
      "t": 146833.33333333352,
      "d": 858.333333333343,
      "v": 85
    },
    {
      "midi": 93,
      "hit": false,
      "t": 146833.33333333352,
      "d": 866.6666666666861,
      "v": 89
    },
    {
      "midi": 84,
      "hit": false,
      "t": 146833.33333333352,
      "d": 891.6666666666861,
      "v": 76
    },
    {
      "midi": 53,
      "hit": false,
      "t": 147000.0000000001,
      "d": 270.83333333334303,
      "v": 58
    },
    {
      "midi": 38,
      "hit": false,
      "t": 147000.0000000001,
      "d": 304.16666666668607,
      "v": 58
    },
    {
      "midi": 65,
      "hit": false,
      "t": 147500.00000000012,
      "d": 216.66666666665697,
      "v": 56
    },
    {
      "midi": 62,
      "hit": false,
      "t": 147500.00000000012,
      "d": 245.83333333331393,
      "v": 56
    },
    {
      "midi": 57,
      "hit": false,
      "t": 147500.00000000012,
      "d": 266.66666666665697,
      "v": 56
    },
    {
      "midi": 60,
      "hit": false,
      "t": 147500.00000000012,
      "d": 266.66666666665697,
      "v": 56
    },
    {
      "midi": 31,
      "hit": false,
      "t": 148000.00000000012,
      "d": 487.5,
      "v": 61
    },
    {
      "midi": 70,
      "hit": false,
      "t": 148333.33333333355,
      "d": 137.5,
      "v": 72
    },
    {
      "midi": 65,
      "hit": false,
      "t": 148500.00000000012,
      "d": 75,
      "v": 58
    },
    {
      "midi": 61,
      "hit": false,
      "t": 148500.00000000012,
      "d": 100,
      "v": 58
    },
    {
      "midi": 55,
      "hit": false,
      "t": 148500.00000000012,
      "d": 112.5,
      "v": 58
    },
    {
      "midi": 58,
      "hit": false,
      "t": 148500.00000000012,
      "d": 112.5,
      "v": 58
    },
    {
      "midi": 72,
      "hit": false,
      "t": 148500.0000000002,
      "d": 166.66666666665697,
      "v": 85
    },
    {
      "midi": 73,
      "hit": false,
      "t": 148791.66666666686,
      "d": 33.333333333343035,
      "v": 64
    },
    {
      "midi": 51,
      "hit": false,
      "t": 148833.33333333346,
      "d": 116.66666666665697,
      "v": 57
    },
    {
      "midi": 75,
      "hit": false,
      "t": 148833.33333333355,
      "d": 33.333333333343035,
      "v": 67
    },
    {
      "midi": 73,
      "hit": false,
      "t": 148875.00000000023,
      "d": 50,
      "v": 67
    },
    {
      "midi": 75,
      "hit": false,
      "t": 148916.6666666669,
      "d": 141.66666666668607,
      "v": 62
    },
    {
      "midi": 73,
      "hit": false,
      "t": 148958.33333333358,
      "d": 133.33333333334303,
      "v": 72
    },
    {
      "midi": 52,
      "hit": false,
      "t": 149000.00000000012,
      "d": 212.5,
      "v": 59
    },
    {
      "midi": 36,
      "hit": false,
      "t": 149000.00000000012,
      "d": 412.5,
      "v": 59
    },
    {
      "midi": 72,
      "hit": false,
      "t": 149000.00000000023,
      "d": 320.83333333334303,
      "v": 80
    },
    {
      "midi": 70,
      "hit": false,
      "t": 149333.33333333358,
      "d": 191.66666666665697,
      "v": 76
    },
    {
      "midi": 64,
      "hit": false,
      "t": 149500.00000000012,
      "d": 150,
      "v": 59
    },
    {
      "midi": 58,
      "hit": false,
      "t": 149500.00000000012,
      "d": 283.33333333334303,
      "v": 59
    },
    {
      "midi": 56,
      "hit": false,
      "t": 149500.00000000012,
      "d": 337.5,
      "v": 59
    },
    {
      "midi": 72,
      "hit": false,
      "t": 149750.00000000023,
      "d": 133.33333333334303,
      "v": 76
    },
    {
      "midi": 73,
      "hit": false,
      "t": 149875.00000000023,
      "d": 141.66666666665697,
      "v": 64
    },
    {
      "midi": 65,
      "hit": false,
      "t": 150000.00000000012,
      "d": 375,
      "v": 61
    },
    {
      "midi": 60,
      "hit": false,
      "t": 150000.00000000012,
      "d": 383.33333333334303,
      "v": 61
    },
    {
      "midi": 57,
      "hit": false,
      "t": 150000.00000000012,
      "d": 395.83333333334303,
      "v": 61
    },
    {
      "midi": 72,
      "hit": false,
      "t": 150000.00000000023,
      "d": 129.16666666665697,
      "v": 93
    },
    {
      "midi": 53,
      "hit": false,
      "t": 150500.00000000012,
      "d": 333.33333333334303,
      "v": 59
    },
    {
      "midi": 46,
      "hit": false,
      "t": 150500.00000000012,
      "d": 337.5,
      "v": 59
    },
    {
      "midi": 39,
      "hit": false,
      "t": 150500.00000000012,
      "d": 345.83333333334303,
      "v": 59
    },
    {
      "midi": 55,
      "hit": false,
      "t": 150500.00000000023,
      "d": 145.83333333334303,
      "v": 76
    },
    {
      "midi": 61,
      "hit": false,
      "t": 150500.00000000023,
      "d": 183.33333333334303,
      "v": 89
    },
    {
      "midi": 65,
      "hit": false,
      "t": 150500.00000000023,
      "d": 191.66666666668607,
      "v": 80
    },
    {
      "midi": 54,
      "hit": false,
      "t": 151000.00000000012,
      "d": 191.66666666665697,
      "v": 62
    },
    {
      "midi": 38,
      "hit": false,
      "t": 151000.00000000012,
      "d": 225,
      "v": 62
    },
    {
      "midi": 45,
      "hit": false,
      "t": 151000.00000000012,
      "d": 283.33333333334303,
      "v": 62
    },
    {
      "midi": 66,
      "hit": false,
      "t": 151000.00000000026,
      "d": 125,
      "v": 72
    },
    {
      "midi": 69,
      "hit": false,
      "t": 151000.00000000026,
      "d": 133.33333333334303,
      "v": 85
    },
    {
      "midi": 72,
      "hit": false,
      "t": 151000.00000000026,
      "d": 137.5,
      "v": 80
    },
    {
      "midi": 63,
      "hit": false,
      "t": 151000.00000000026,
      "d": 175,
      "v": 72
    },
    {
      "midi": 60,
      "hit": false,
      "t": 151000.00000000026,
      "d": 183.33333333334303,
      "v": 68
    },
    {
      "midi": 70,
      "hit": false,
      "t": 151500.00000000026,
      "d": 420.83333333334303,
      "v": 76
    },
    {
      "midi": 65,
      "hit": false,
      "t": 151500.00000000026,
      "d": 445.83333333334303,
      "v": 76
    },
    {
      "midi": 63,
      "hit": false,
      "t": 151500.00000000026,
      "d": 504.16666666668607,
      "v": 80
    },
    {
      "midi": 59,
      "hit": false,
      "t": 151500.00000000026,
      "d": 525.0000000000291,
      "v": 68
    },
    {
      "midi": 44,
      "hit": false,
      "t": 151833.33333333346,
      "d": 312.5,
      "v": 60
    },
    {
      "midi": 37,
      "hit": false,
      "t": 151833.33333333346,
      "d": 366.66666666665697,
      "v": 60
    },
    {
      "midi": 53,
      "hit": false,
      "t": 151833.33333333346,
      "d": 395.83333333331393,
      "v": 60
    },
    {
      "midi": 37,
      "hit": false,
      "t": 152500.00000000012,
      "d": 566.666666666657,
      "v": 63
    },
    {
      "midi": 53,
      "hit": false,
      "t": 152500.00000000012,
      "d": 654.166666666657,
      "v": 63
    },
    {
      "midi": 59,
      "hit": false,
      "t": 152500.0000000003,
      "d": 175,
      "v": 76
    },
    {
      "midi": 63,
      "hit": false,
      "t": 152500.0000000003,
      "d": 275,
      "v": 76
    },
    {
      "midi": 67,
      "hit": false,
      "t": 152500.0000000003,
      "d": 295.83333333334303,
      "v": 89
    },
    {
      "midi": 69,
      "hit": false,
      "t": 152666.66666666695,
      "d": 162.5000000000291,
      "v": 72
    },
    {
      "midi": 70,
      "hit": false,
      "t": 152833.33333333363,
      "d": 58.333333333343035,
      "v": 64
    },
    {
      "midi": 52,
      "hit": false,
      "t": 153000.00000000012,
      "d": 429.16666666665697,
      "v": 63
    },
    {
      "midi": 36,
      "hit": false,
      "t": 153000.00000000012,
      "d": 562.5,
      "v": 63
    },
    {
      "midi": 66,
      "hit": false,
      "t": 153000.00000000032,
      "d": 83.33333333334303,
      "v": 68
    },
    {
      "midi": 64,
      "hit": false,
      "t": 153000.00000000032,
      "d": 316.66666666668607,
      "v": 68
    },
    {
      "midi": 62,
      "hit": false,
      "t": 153000.00000000032,
      "d": 320.83333333334303,
      "v": 76
    },
    {
      "midi": 69,
      "hit": false,
      "t": 153000.00000000032,
      "d": 341.66666666668607,
      "v": 76
    },
    {
      "midi": 67,
      "hit": false,
      "t": 153500.00000000035,
      "d": 104.16666666665697,
      "v": 89
    },
    {
      "midi": 55,
      "hit": false,
      "t": 153833.33333333346,
      "d": 545.833333333343,
      "v": 65
    },
    {
      "midi": 45,
      "hit": false,
      "t": 153833.33333333346,
      "d": 558.333333333343,
      "v": 65
    },
    {
      "midi": 69,
      "hit": false,
      "t": 153833.33333333366,
      "d": 591.666666666657,
      "v": 85
    },
    {
      "midi": 65,
      "hit": false,
      "t": 153833.33333333366,
      "d": 620.8333333333139,
      "v": 89
    },
    {
      "midi": 61,
      "hit": false,
      "t": 153833.33333333366,
      "d": 629.166666666657,
      "v": 80
    },
    {
      "midi": 75,
      "hit": false,
      "t": 154500.00000000032,
      "d": 170.83333333334303,
      "v": 76
    },
    {
      "midi": 77,
      "hit": false,
      "t": 154625.00000000032,
      "d": 129.16666666665697,
      "v": 67
    },
    {
      "midi": 73,
      "hit": false,
      "t": 154750.00000000032,
      "d": 116.66666666665697,
      "v": 61
    },
    {
      "midi": 70,
      "hit": false,
      "t": 154875.00000000032,
      "d": 62.5,
      "v": 65
    },
    {
      "midi": 53,
      "hit": false,
      "t": 155000.00000000015,
      "d": 325,
      "v": 63
    },
    {
      "midi": 46,
      "hit": false,
      "t": 155000.00000000015,
      "d": 375,
      "v": 63
    },
    {
      "midi": 61,
      "hit": false,
      "t": 155000.00000000015,
      "d": 375,
      "v": 63
    },
    {
      "midi": 69,
      "hit": false,
      "t": 155000.00000000032,
      "d": 266.66666666665697,
      "v": 76
    },
    {
      "midi": 67,
      "hit": false,
      "t": 155250.00000000032,
      "d": 133.33333333334303,
      "v": 80
    },
    {
      "midi": 68,
      "hit": false,
      "t": 155375.00000000032,
      "d": 70.83333333334303,
      "v": 71
    },
    {
      "midi": 45,
      "hit": false,
      "t": 155500.00000000015,
      "d": 379.16666666665697,
      "v": 68
    },
    {
      "midi": 60,
      "hit": false,
      "t": 155500.00000000015,
      "d": 379.16666666665697,
      "v": 68
    },
    {
      "midi": 54,
      "hit": false,
      "t": 155500.00000000015,
      "d": 416.66666666665697,
      "v": 68
    },
    {
      "midi": 74,
      "hit": false,
      "t": 155500.00000000032,
      "d": 225,
      "v": 89
    },
    {
      "midi": 66,
      "hit": false,
      "t": 155750.00000000032,
      "d": 120.83333333334303,
      "v": 76
    },
    {
      "midi": 65,
      "hit": false,
      "t": 155875.00000000032,
      "d": 154.16666666665697,
      "v": 71
    },
    {
      "midi": 49,
      "hit": false,
      "t": 156000.00000000015,
      "d": 45.833333333343035,
      "v": 65
    },
    {
      "midi": 59,
      "hit": false,
      "t": 156000.00000000015,
      "d": 275,
      "v": 65
    },
    {
      "midi": 44,
      "hit": false,
      "t": 156000.00000000015,
      "d": 483.33333333334303,
      "v": 65
    },
    {
      "midi": 66,
      "hit": false,
      "t": 156000.00000000032,
      "d": 116.66666666665697,
      "v": 93
    },
    {
      "midi": 65,
      "hit": false,
      "t": 156125.00000000032,
      "d": 120.83333333334303,
      "v": 76
    },
    {
      "midi": 73,
      "hit": false,
      "t": 156250.00000000032,
      "d": 145.83333333334303,
      "v": 72
    },
    {
      "midi": 66,
      "hit": false,
      "t": 156375.00000000032,
      "d": 137.5,
      "v": 68
    },
    {
      "midi": 65,
      "hit": false,
      "t": 156500.00000000032,
      "d": 279.16666666665697,
      "v": 89
    },
    {
      "midi": 66,
      "hit": false,
      "t": 156750.00000000032,
      "d": 133.33333333334303,
      "v": 68
    },
    {
      "midi": 65,
      "hit": false,
      "t": 156875.00000000032,
      "d": 45.833333333343035,
      "v": 62
    },
    {
      "midi": 58,
      "hit": false,
      "t": 157000.00000000015,
      "d": 516.666666666657,
      "v": 62
    },
    {
      "midi": 48,
      "hit": false,
      "t": 157000.00000000015,
      "d": 520.8333333333139,
      "v": 62
    },
    {
      "midi": 64,
      "hit": false,
      "t": 157000.00000000032,
      "d": 325,
      "v": 72
    },
    {
      "midi": 72,
      "hit": false,
      "t": 157333.33333333366,
      "d": 258.33333333331393,
      "v": 89
    },
    {
      "midi": 61,
      "hit": false,
      "t": 157500.00000000032,
      "d": 270.83333333331393,
      "v": 64
    },
    {
      "midi": 69,
      "hit": false,
      "t": 157833.33333333363,
      "d": 100,
      "v": 80
    },
    {
      "midi": 57,
      "hit": false,
      "t": 158000.00000000012,
      "d": 716.666666666657,
      "v": 67
    },
    {
      "midi": 41,
      "hit": false,
      "t": 158000.00000000012,
      "d": 725,
      "v": 67
    },
    {
      "midi": 65,
      "hit": false,
      "t": 158000.0000000003,
      "d": 300,
      "v": 60
    },
    {
      "midi": 60,
      "hit": false,
      "t": 158000.0000000003,
      "d": 316.66666666665697,
      "v": 80
    },
    {
      "midi": 62,
      "hit": false,
      "t": 158500.0000000003,
      "d": 283.33333333331393,
      "v": 76
    },
    {
      "midi": 65,
      "hit": false,
      "t": 158666.66666666695,
      "d": 158.33333333331393,
      "v": 68
    },
    {
      "midi": 70,
      "hit": false,
      "t": 158833.3333333336,
      "d": 95.83333333334303,
      "v": 70
    },
    {
      "midi": 46,
      "hit": false,
      "t": 159000.00000000012,
      "d": 358.33333333334303,
      "v": 68
    },
    {
      "midi": 53,
      "hit": false,
      "t": 159000.00000000012,
      "d": 379.16666666668607,
      "v": 68
    },
    {
      "midi": 74,
      "hit": false,
      "t": 159000.0000000003,
      "d": 295.83333333334303,
      "v": 78
    },
    {
      "midi": 70,
      "hit": false,
      "t": 159166.66666666695,
      "d": 83.33333333334303,
      "v": 71
    },
    {
      "midi": 67,
      "hit": false,
      "t": 159333.33333333363,
      "d": 70.83333333334303,
      "v": 85
    },
    {
      "midi": 55,
      "hit": false,
      "t": 159500.00000000015,
      "d": 387.5,
      "v": 70
    },
    {
      "midi": 64,
      "hit": false,
      "t": 159500.00000000015,
      "d": 416.66666666665697,
      "v": 70
    },
    {
      "midi": 69,
      "hit": false,
      "t": 159500.00000000032,
      "d": 245.83333333331393,
      "v": 76
    },
    {
      "midi": 72,
      "hit": false,
      "t": 159666.66666666698,
      "d": 99.9999999999709,
      "v": 68
    },
    {
      "midi": 76,
      "hit": false,
      "t": 159750.0000000003,
      "d": 104.16666666665697,
      "v": 76
    },
    {
      "midi": 81,
      "hit": false,
      "t": 159833.3333333336,
      "d": 75,
      "v": 89
    },
    {
      "midi": 60,
      "hit": false,
      "t": 160000.00000000015,
      "d": 470.83333333334303,
      "v": 68
    },
    {
      "midi": 57,
      "hit": false,
      "t": 160000.00000000015,
      "d": 483.33333333334303,
      "v": 68
    },
    {
      "midi": 48,
      "hit": false,
      "t": 160000.00000000015,
      "d": 508.33333333334303,
      "v": 68
    },
    {
      "midi": 77,
      "hit": false,
      "t": 160000.00000000026,
      "d": 620.833333333343,
      "v": 76
    },
    {
      "midi": 69,
      "hit": false,
      "t": 160000.00000000026,
      "d": 675,
      "v": 72
    },
    {
      "midi": 53,
      "hit": false,
      "t": 160500.00000000015,
      "d": 816.6666666666861,
      "v": 68
    },
    {
      "midi": 41,
      "hit": false,
      "t": 160500.00000000015,
      "d": 854.1666666666861,
      "v": 68
    },
    {
      "midi": 65,
      "hit": false,
      "t": 161500.00000000026,
      "d": 91.66666666665697,
      "v": 85
    },
    {
      "midi": 65,
      "hit": false,
      "t": 161833.33333333358,
      "d": 79.16666666665697,
      "v": 72
    },
    {
      "midi": 51,
      "hit": false,
      "t": 162000.00000000017,
      "d": 145.83333333334303,
      "v": 59
    },
    {
      "midi": 55,
      "hit": false,
      "t": 162000.00000000017,
      "d": 145.83333333334303,
      "v": 59
    },
    {
      "midi": 46,
      "hit": false,
      "t": 162000.00000000017,
      "d": 162.5,
      "v": 59
    },
    {
      "midi": 61,
      "hit": false,
      "t": 162000.00000000023,
      "d": 729.166666666657,
      "v": 60
    },
    {
      "midi": 67,
      "hit": false,
      "t": 162000.00000000023,
      "d": 750,
      "v": 76
    },
    {
      "midi": 58,
      "hit": false,
      "t": 162000.00000000023,
      "d": 779.166666666657,
      "v": 85
    },
    {
      "midi": 39,
      "hit": false,
      "t": 162250.00000000017,
      "d": 125,
      "v": 59
    },
    {
      "midi": 51,
      "hit": false,
      "t": 162500.00000000017,
      "d": 95.83333333334303,
      "v": 60
    },
    {
      "midi": 55,
      "hit": false,
      "t": 162500.00000000017,
      "d": 95.83333333334303,
      "v": 60
    },
    {
      "midi": 46,
      "hit": false,
      "t": 162500.00000000017,
      "d": 100,
      "v": 60
    },
    {
      "midi": 51,
      "hit": false,
      "t": 162750.00000000017,
      "d": 95.83333333334303,
      "v": 57
    },
    {
      "midi": 55,
      "hit": false,
      "t": 162750.00000000017,
      "d": 108.33333333334303,
      "v": 57
    },
    {
      "midi": 46,
      "hit": false,
      "t": 162750.00000000017,
      "d": 112.5,
      "v": 57
    },
    {
      "midi": 45,
      "hit": false,
      "t": 163000.00000000017,
      "d": 79.16666666665697,
      "v": 60
    },
    {
      "midi": 50,
      "hit": false,
      "t": 163000.00000000017,
      "d": 166.66666666665697,
      "v": 60
    },
    {
      "midi": 54,
      "hit": false,
      "t": 163000.00000000017,
      "d": 170.83333333331393,
      "v": 60
    },
    {
      "midi": 69,
      "hit": false,
      "t": 163000.00000000023,
      "d": 604.166666666657,
      "v": 89
    },
    {
      "midi": 64,
      "hit": false,
      "t": 163000.00000000023,
      "d": 616.666666666657,
      "v": 89
    },
    {
      "midi": 60,
      "hit": false,
      "t": 163000.00000000023,
      "d": 629.166666666657,
      "v": 80
    },
    {
      "midi": 38,
      "hit": false,
      "t": 163250.00000000015,
      "d": 133.33333333334303,
      "v": 63
    },
    {
      "midi": 47,
      "hit": false,
      "t": 163500.00000000015,
      "d": 50,
      "v": 62
    },
    {
      "midi": 52,
      "hit": false,
      "t": 163500.00000000015,
      "d": 79.16666666665697,
      "v": 62
    },
    {
      "midi": 56,
      "hit": false,
      "t": 163500.00000000015,
      "d": 108.33333333331393,
      "v": 62
    },
    {
      "midi": 50,
      "hit": false,
      "t": 163750.00000000012,
      "d": 75,
      "v": 64
    },
    {
      "midi": 45,
      "hit": false,
      "t": 163750.00000000012,
      "d": 95.83333333334303,
      "v": 64
    },
    {
      "midi": 54,
      "hit": false,
      "t": 163750.00000000012,
      "d": 100,
      "v": 64
    },
    {
      "midi": 44,
      "hit": false,
      "t": 164000.00000000012,
      "d": 112.5,
      "v": 63
    },
    {
      "midi": 49,
      "hit": false,
      "t": 164000.00000000012,
      "d": 129.16666666665697,
      "v": 63
    },
    {
      "midi": 53,
      "hit": false,
      "t": 164000.00000000012,
      "d": 145.83333333331393,
      "v": 63
    },
    {
      "midi": 37,
      "hit": false,
      "t": 164250.0000000001,
      "d": 100,
      "v": 61
    },
    {
      "midi": 43,
      "hit": false,
      "t": 164500.0000000001,
      "d": 116.66666666665697,
      "v": 61
    },
    {
      "midi": 52,
      "hit": false,
      "t": 164500.0000000001,
      "d": 125,
      "v": 61
    },
    {
      "midi": 48,
      "hit": false,
      "t": 164500.0000000001,
      "d": 133.33333333334303,
      "v": 61
    },
    {
      "midi": 59,
      "hit": false,
      "t": 164500.00000000023,
      "d": 333.33333333334303,
      "v": 72
    },
    {
      "midi": 62,
      "hit": false,
      "t": 164500.00000000023,
      "d": 337.5,
      "v": 76
    },
    {
      "midi": 69,
      "hit": false,
      "t": 164500.00000000023,
      "d": 337.5,
      "v": 80
    },
    {
      "midi": 36,
      "hit": false,
      "t": 164750.0000000001,
      "d": 129.16666666665697,
      "v": 61
    },
    {
      "midi": 41,
      "hit": false,
      "t": 165000.0000000001,
      "d": 200,
      "v": 62
    },
    {
      "midi": 65,
      "hit": false,
      "t": 165000.00000000023,
      "d": 166.66666666665697,
      "v": 79
    },
    {
      "midi": 67,
      "hit": false,
      "t": 165166.6666666669,
      "d": 166.66666666665697,
      "v": 80
    },
    {
      "midi": 51,
      "hit": false,
      "t": 165250.0000000001,
      "d": 150,
      "v": 62
    },
    {
      "midi": 65,
      "hit": false,
      "t": 165333.33333333355,
      "d": 579.166666666657,
      "v": 89
    },
    {
      "midi": 57,
      "hit": false,
      "t": 165333.33333333355,
      "d": 587.5,
      "v": 52
    },
    {
      "midi": 50,
      "hit": false,
      "t": 165500.0000000001,
      "d": 266.66666666665697,
      "v": 61
    },
    {
      "midi": 48,
      "hit": false,
      "t": 165750.0000000001,
      "d": 129.16666666665697,
      "v": 60
    },
    {
      "midi": 51,
      "hit": false,
      "t": 166000.0000000001,
      "d": 291.66666666665697,
      "v": 61
    },
    {
      "midi": 55,
      "hit": false,
      "t": 166000.0000000002,
      "d": 654.166666666657,
      "v": 80
    },
    {
      "midi": 67,
      "hit": false,
      "t": 166000.0000000002,
      "d": 708.3333333333139,
      "v": 76
    },
    {
      "midi": 61,
      "hit": false,
      "t": 166000.0000000002,
      "d": 724.9999999999709,
      "v": 68
    },
    {
      "midi": 39,
      "hit": false,
      "t": 166250.0000000001,
      "d": 291.66666666665697,
      "v": 62
    },
    {
      "midi": 45,
      "hit": false,
      "t": 166500.0000000001,
      "d": 250,
      "v": 61
    },
    {
      "midi": 51,
      "hit": false,
      "t": 166750.0000000001,
      "d": 241.66666666665697,
      "v": 61
    },
    {
      "midi": 50,
      "hit": false,
      "t": 167000.0000000001,
      "d": 279.16666666665697,
      "v": 61
    },
    {
      "midi": 60,
      "hit": false,
      "t": 167000.00000000017,
      "d": 170.83333333334303,
      "v": 76
    },
    {
      "midi": 64,
      "hit": false,
      "t": 167000.00000000017,
      "d": 266.66666666668607,
      "v": 57
    },
    {
      "midi": 69,
      "hit": false,
      "t": 167000.00000000017,
      "d": 337.5,
      "v": 47
    },
    {
      "midi": 49,
      "hit": false,
      "t": 167250.0000000001,
      "d": 287.5,
      "v": 61
    },
    {
      "midi": 59,
      "hit": false,
      "t": 167333.33333333352,
      "d": 66.66666666665697,
      "v": 68
    },
    {
      "midi": 63,
      "hit": false,
      "t": 167333.33333333352,
      "d": 70.83333333331393,
      "v": 68
    },
    {
      "midi": 48,
      "hit": false,
      "t": 167500.0000000001,
      "d": 354.16666666665697,
      "v": 61
    },
    {
      "midi": 58,
      "hit": false,
      "t": 167500.00000000017,
      "d": 183.33333333334303,
      "v": 72
    },
    {
      "midi": 64,
      "hit": false,
      "t": 167500.00000000017,
      "d": 225,
      "v": 72
    },
    {
      "midi": 62,
      "hit": false,
      "t": 167500.00000000017,
      "d": 258.33333333334303,
      "v": 85
    },
    {
      "midi": 69,
      "hit": false,
      "t": 167833.33333333352,
      "d": 104.16666666665697,
      "v": 76
    },
    {
      "midi": 41,
      "hit": false,
      "t": 168000.0000000001,
      "d": 220.83333333334303,
      "v": 59
    },
    {
      "midi": 48,
      "hit": false,
      "t": 168000.0000000001,
      "d": 408.33333333334303,
      "v": 59
    },
    {
      "midi": 57,
      "hit": false,
      "t": 168000.00000000017,
      "d": 75,
      "v": 76
    },
    {
      "midi": 65,
      "hit": false,
      "t": 168000.00000000017,
      "d": 112.5,
      "v": 89
    },
    {
      "midi": 52,
      "hit": false,
      "t": 168500.0000000001,
      "d": 375,
      "v": 58
    },
    {
      "midi": 37,
      "hit": false,
      "t": 168500.0000000001,
      "d": 383.33333333334303,
      "v": 58
    },
    {
      "midi": 46,
      "hit": false,
      "t": 168500.0000000001,
      "d": 466.66666666668607,
      "v": 58
    },
    {
      "midi": 65,
      "hit": false,
      "t": 168833.33333333352,
      "d": 191.66666666665697,
      "v": 80
    },
    {
      "midi": 69,
      "hit": false,
      "t": 168833.33333333352,
      "d": 241.66666666665697,
      "v": 72
    },
    {
      "midi": 72,
      "hit": false,
      "t": 168833.33333333352,
      "d": 262.5,
      "v": 76
    },
    {
      "midi": 77,
      "hit": false,
      "t": 168833.33333333352,
      "d": 295.83333333334303,
      "v": 80
    },
    {
      "midi": 45,
      "hit": false,
      "t": 169000.00000000012,
      "d": 375,
      "v": 57
    },
    {
      "midi": 36,
      "hit": false,
      "t": 169000.00000000012,
      "d": 379.16666666665697,
      "v": 57
    },
    {
      "midi": 51,
      "hit": false,
      "t": 169000.00000000012,
      "d": 420.83333333331393,
      "v": 57
    },
    {
      "midi": 74,
      "hit": false,
      "t": 169333.33333333352,
      "d": 137.5,
      "v": 85
    },
    {
      "midi": 77,
      "hit": false,
      "t": 169333.33333333352,
      "d": 308.33333333334303,
      "v": 72
    },
    {
      "midi": 69,
      "hit": false,
      "t": 169333.33333333352,
      "d": 320.83333333334303,
      "v": 85
    },
    {
      "midi": 35,
      "hit": false,
      "t": 169500.0000000001,
      "d": 387.5,
      "v": 61
    },
    {
      "midi": 50,
      "hit": false,
      "t": 169500.0000000001,
      "d": 425,
      "v": 61
    },
    {
      "midi": 75,
      "hit": false,
      "t": 169833.33333333352,
      "d": 104.16666666665697,
      "v": 89
    },
    {
      "midi": 49,
      "hit": false,
      "t": 170000.0000000001,
      "d": 175,
      "v": 55
    },
    {
      "midi": 34,
      "hit": false,
      "t": 170000.0000000001,
      "d": 312.5,
      "v": 55
    },
    {
      "midi": 68,
      "hit": false,
      "t": 170000.00000000017,
      "d": 91.66666666665697,
      "v": 68
    },
    {
      "midi": 77,
      "hit": false,
      "t": 170000.00000000017,
      "d": 154.16666666665697,
      "v": 80
    },
    {
      "midi": 73,
      "hit": false,
      "t": 170000.00000000017,
      "d": 220.83333333331393,
      "v": 85
    },
    {
      "midi": 65,
      "hit": false,
      "t": 170333.3333333335,
      "d": 204.16666666665697,
      "v": 80
    },
    {
      "midi": 53,
      "hit": false,
      "t": 170500.0000000001,
      "d": 366.66666666665697,
      "v": 57
    },
    {
      "midi": 56,
      "hit": false,
      "t": 170500.0000000001,
      "d": 379.16666666665697,
      "v": 57
    },
    {
      "midi": 61,
      "hit": false,
      "t": 170500.0000000001,
      "d": 387.5,
      "v": 57
    },
    {
      "midi": 58,
      "hit": false,
      "t": 170500.0000000001,
      "d": 425,
      "v": 57
    },
    {
      "midi": 68,
      "hit": false,
      "t": 170500.00000000015,
      "d": 291.66666666665697,
      "v": 76
    },
    {
      "midi": 77,
      "hit": false,
      "t": 170833.33333333346,
      "d": 45.833333333343035,
      "v": 78
    },
    {
      "midi": 73,
      "hit": false,
      "t": 170833.33333333346,
      "d": 95.83333333334303,
      "v": 76
    },
    {
      "midi": 39,
      "hit": false,
      "t": 171000.0000000001,
      "d": 366.66666666665697,
      "v": 59
    },
    {
      "midi": 79,
      "hit": false,
      "t": 171000.00000000015,
      "d": 170.83333333334303,
      "v": 76
    },
    {
      "midi": 75,
      "hit": false,
      "t": 171000.00000000015,
      "d": 183.33333333334303,
      "v": 72
    },
    {
      "midi": 71,
      "hit": false,
      "t": 171333.3333333335,
      "d": 237.5,
      "v": 76
    },
    {
      "midi": 79,
      "hit": false,
      "t": 171333.3333333335,
      "d": 279.16666666665697,
      "v": 80
    },
    {
      "midi": 49,
      "hit": false,
      "t": 171500.0000000001,
      "d": 291.66666666665697,
      "v": 56
    },
    {
      "midi": 55,
      "hit": false,
      "t": 171500.0000000001,
      "d": 300,
      "v": 56
    },
    {
      "midi": 51,
      "hit": false,
      "t": 171500.0000000001,
      "d": 308.33333333334303,
      "v": 56
    },
    {
      "midi": 59,
      "hit": false,
      "t": 171500.0000000001,
      "d": 312.5,
      "v": 56
    },
    {
      "midi": 72,
      "hit": false,
      "t": 171833.3333333335,
      "d": 283.33333333334303,
      "v": 72
    },
    {
      "midi": 68,
      "hit": false,
      "t": 171833.3333333335,
      "d": 300,
      "v": 68
    },
    {
      "midi": 75,
      "hit": false,
      "t": 171833.3333333335,
      "d": 312.5,
      "v": 76
    },
    {
      "midi": 51,
      "hit": false,
      "t": 172000.0000000001,
      "d": 229.16666666665697,
      "v": 57
    },
    {
      "midi": 60,
      "hit": false,
      "t": 172000.0000000001,
      "d": 300,
      "v": 57
    },
    {
      "midi": 44,
      "hit": false,
      "t": 172000.0000000001,
      "d": 354.16666666665697,
      "v": 57
    },
    {
      "midi": 61,
      "hit": false,
      "t": 172500.0000000001,
      "d": 362.5,
      "v": 58
    },
    {
      "midi": 46,
      "hit": false,
      "t": 172500.0000000001,
      "d": 375,
      "v": 58
    },
    {
      "midi": 55,
      "hit": false,
      "t": 172500.0000000001,
      "d": 379.16666666665697,
      "v": 58
    },
    {
      "midi": 99,
      "hit": false,
      "t": 172583.3333333335,
      "d": 58.333333333343035,
      "v": 89
    },
    {
      "midi": 101,
      "hit": false,
      "t": 172666.66666666683,
      "d": 100,
      "v": 72
    },
    {
      "midi": 99,
      "hit": false,
      "t": 172750.00000000017,
      "d": 79.16666666665697,
      "v": 62
    },
    {
      "midi": 96,
      "hit": false,
      "t": 172833.3333333335,
      "d": 108.33333333334303,
      "v": 72
    },
    {
      "midi": 94,
      "hit": false,
      "t": 172916.66666666683,
      "d": 58.333333333343035,
      "v": 85
    },
    {
      "midi": 63,
      "hit": false,
      "t": 173000.0000000001,
      "d": 466.66666666665697,
      "v": 64
    },
    {
      "midi": 56,
      "hit": false,
      "t": 173000.0000000001,
      "d": 516.666666666657,
      "v": 64
    },
    {
      "midi": 48,
      "hit": false,
      "t": 173000.0000000001,
      "d": 533.3333333333139,
      "v": 64
    },
    {
      "midi": 92,
      "hit": false,
      "t": 173000.00000000017,
      "d": 125,
      "v": 89
    },
    {
      "midi": 89,
      "hit": false,
      "t": 173083.33333333352,
      "d": 87.4999999999709,
      "v": 72
    },
    {
      "midi": 87,
      "hit": false,
      "t": 173166.66666666683,
      "d": 70.83333333331393,
      "v": 68
    },
    {
      "midi": 84,
      "hit": false,
      "t": 173250.00000000015,
      "d": 116.66666666668607,
      "v": 89
    },
    {
      "midi": 83,
      "hit": false,
      "t": 173333.3333333335,
      "d": 70.83333333334303,
      "v": 80
    },
    {
      "midi": 82,
      "hit": false,
      "t": 173416.66666666683,
      "d": 70.83333333334303,
      "v": 64
    },
    {
      "midi": 80,
      "hit": false,
      "t": 173500.00000000017,
      "d": 70.83333333334303,
      "v": 89
    },
    {
      "midi": 77,
      "hit": false,
      "t": 173583.33333333352,
      "d": 104.16666666668607,
      "v": 76
    },
    {
      "midi": 75,
      "hit": false,
      "t": 173666.66666666686,
      "d": 70.83333333334303,
      "v": 71
    },
    {
      "midi": 72,
      "hit": false,
      "t": 173750.0000000002,
      "d": 116.66666666668607,
      "v": 72
    },
    {
      "midi": 70,
      "hit": false,
      "t": 173833.33333333355,
      "d": 87.5,
      "v": 74
    },
    {
      "midi": 68,
      "hit": false,
      "t": 173916.6666666669,
      "d": 62.5,
      "v": 89
    },
    {
      "midi": 55,
      "hit": false,
      "t": 174000.00000000006,
      "d": 358.33333333334303,
      "v": 60
    },
    {
      "midi": 40,
      "hit": false,
      "t": 174000.00000000006,
      "d": 450,
      "v": 60
    },
    {
      "midi": 67,
      "hit": false,
      "t": 174000.00000000023,
      "d": 266.66666666665697,
      "v": 89
    },
    {
      "midi": 64,
      "hit": false,
      "t": 174333.33333333355,
      "d": 87.5,
      "v": 72
    },
    {
      "midi": 60,
      "hit": false,
      "t": 174500.00000000006,
      "d": 404.16666666665697,
      "v": 61
    },
    {
      "midi": 67,
      "hit": false,
      "t": 174500.0000000002,
      "d": 62.5,
      "v": 64
    },
    {
      "midi": 69,
      "hit": false,
      "t": 174600.0000000002,
      "d": 100,
      "v": 64
    },
    {
      "midi": 72,
      "hit": false,
      "t": 174700.0000000002,
      "d": 95.83333333334303,
      "v": 66
    },
    {
      "midi": 76,
      "hit": false,
      "t": 174800.0000000002,
      "d": 91.66666666665697,
      "v": 60
    },
    {
      "midi": 79,
      "hit": false,
      "t": 174900.0000000002,
      "d": 58.333333333343035,
      "v": 72
    },
    {
      "midi": 31,
      "hit": false,
      "t": 175000.00000000006,
      "d": 166.66666666665697,
      "v": 62
    },
    {
      "midi": 78,
      "hit": false,
      "t": 175000.0000000002,
      "d": 87.5,
      "v": 93
    },
    {
      "midi": 77,
      "hit": false,
      "t": 175083.33333333355,
      "d": 58.33333333331393,
      "v": 72
    },
    {
      "midi": 76,
      "hit": false,
      "t": 175166.66666666686,
      "d": 58.333333333343035,
      "v": 72
    },
    {
      "midi": 75,
      "hit": false,
      "t": 175250.0000000002,
      "d": 54.166666666656965,
      "v": 60
    },
    {
      "midi": 71,
      "hit": false,
      "t": 175333.33333333352,
      "d": 75,
      "v": 89
    },
    {
      "midi": 68,
      "hit": false,
      "t": 175416.66666666686,
      "d": 45.833333333343035,
      "v": 98
    },
    {
      "midi": 37,
      "hit": false,
      "t": 175500.00000000006,
      "d": 275,
      "v": 59
    },
    {
      "midi": 53,
      "hit": false,
      "t": 175500.00000000006,
      "d": 487.5,
      "v": 59
    },
    {
      "midi": 65,
      "hit": false,
      "t": 175500.0000000002,
      "d": 100,
      "v": 93
    },
    {
      "midi": 63,
      "hit": false,
      "t": 175600.0000000002,
      "d": 66.66666666665697,
      "v": 72
    },
    {
      "midi": 59,
      "hit": false,
      "t": 175700.0000000002,
      "d": 79.16666666665697,
      "v": 89
    },
    {
      "midi": 56,
      "hit": false,
      "t": 175800.0000000002,
      "d": 66.66666666665697,
      "v": 66
    },
    {
      "midi": 55,
      "hit": false,
      "t": 175900.0000000002,
      "d": 70.83333333334303,
      "v": 89
    },
    {
      "midi": 52,
      "hit": false,
      "t": 176000.00000000006,
      "d": 362.5,
      "v": 59
    },
    {
      "midi": 36,
      "hit": false,
      "t": 176000.00000000006,
      "d": 366.66666666665697,
      "v": 59
    },
    {
      "midi": 40,
      "hit": false,
      "t": 176500.00000000006,
      "d": 350,
      "v": 66
    },
    {
      "midi": 49,
      "hit": false,
      "t": 176500.00000000006,
      "d": 416.66666666665697,
      "v": 66
    },
    {
      "midi": 56,
      "hit": false,
      "t": 176500.0000000002,
      "d": 58.333333333343035,
      "v": 72
    },
    {
      "midi": 84,
      "hit": false,
      "t": 176833.33333333355,
      "d": 100,
      "v": 98
    },
    {
      "midi": 72,
      "hit": false,
      "t": 176833.33333333355,
      "d": 125,
      "v": 76
    },
    {
      "midi": 40,
      "hit": false,
      "t": 177000.00000000006,
      "d": 41.666666666656965,
      "v": 64
    },
    {
      "midi": 48,
      "hit": false,
      "t": 177000.00000000006,
      "d": 166.66666666665697,
      "v": 64
    },
    {
      "midi": 84,
      "hit": false,
      "t": 177333.33333333355,
      "d": 154.16666666665697,
      "v": 93
    },
    {
      "midi": 72,
      "hit": false,
      "t": 177333.33333333355,
      "d": 245.83333333331393,
      "v": 76
    },
    {
      "midi": 46,
      "hit": false,
      "t": 177500.00000000006,
      "d": 325,
      "v": 65
    },
    {
      "midi": 52,
      "hit": false,
      "t": 177500.00000000006,
      "d": 379.16666666665697,
      "v": 65
    },
    {
      "midi": 61,
      "hit": false,
      "t": 177500.00000000006,
      "d": 433.33333333331393,
      "v": 65
    },
    {
      "midi": 60,
      "hit": false,
      "t": 177833.33333333352,
      "d": 70.83333333334303,
      "v": 72
    },
    {
      "midi": 60,
      "hit": false,
      "t": 178000.00000000003,
      "d": 179.16666666665697,
      "v": 60
    },
    {
      "midi": 53,
      "hit": false,
      "t": 178000.00000000003,
      "d": 229.16666666665697,
      "v": 60
    },
    {
      "midi": 45,
      "hit": false,
      "t": 178000.00000000003,
      "d": 437.5,
      "v": 60
    },
    {
      "midi": 65,
      "hit": false,
      "t": 178000.0000000002,
      "d": 212.5,
      "v": 93
    },
    {
      "midi": 69,
      "hit": false,
      "t": 178166.66666666686,
      "d": 191.66666666668607,
      "v": 76
    },
    {
      "midi": 74,
      "hit": false,
      "t": 178333.33333333355,
      "d": 175,
      "v": 93
    },
    {
      "midi": 65,
      "hit": false,
      "t": 178500.00000000003,
      "d": 125,
      "v": 61
    },
    {
      "midi": 60,
      "hit": false,
      "t": 178500.00000000003,
      "d": 166.66666666665697,
      "v": 61
    },
    {
      "midi": 62,
      "hit": false,
      "t": 178500.00000000003,
      "d": 175,
      "v": 61
    },
    {
      "midi": 57,
      "hit": false,
      "t": 178500.00000000003,
      "d": 220.83333333334303,
      "v": 61
    },
    {
      "midi": 72,
      "hit": false,
      "t": 178500.0000000002,
      "d": 179.16666666668607,
      "v": 89
    },
    {
      "midi": 69,
      "hit": false,
      "t": 178666.6666666669,
      "d": 162.5,
      "v": 72
    },
    {
      "midi": 65,
      "hit": false,
      "t": 178833.33333333355,
      "d": 162.5,
      "v": 68
    },
    {
      "midi": 57,
      "hit": false,
      "t": 179000.00000000003,
      "d": 870.833333333343,
      "v": 60
    },
    {
      "midi": 51,
      "hit": false,
      "t": 179000.00000000003,
      "d": 908.333333333343,
      "v": 60
    },
    {
      "midi": 42,
      "hit": false,
      "t": 179000.00000000003,
      "d": 912.5,
      "v": 60
    },
    {
      "midi": 69,
      "hit": false,
      "t": 179000.0000000002,
      "d": 112.5,
      "v": 89
    },
    {
      "midi": 69,
      "hit": false,
      "t": 179333.33333333355,
      "d": 154.16666666665697,
      "v": 72
    },
    {
      "midi": 60,
      "hit": false,
      "t": 179500.0000000002,
      "d": 195.83333333331393,
      "v": 89
    },
    {
      "midi": 61,
      "hit": false,
      "t": 179666.66666666686,
      "d": 112.5,
      "v": 64
    },
    {
      "midi": 60,
      "hit": false,
      "t": 179833.33333333352,
      "d": 195.83333333331393,
      "v": 85
    },
    {
      "midi": 43,
      "hit": false,
      "t": 180000.00000000003,
      "d": 1050,
      "v": 67
    },
    {
      "midi": 52,
      "hit": false,
      "t": 180000.00000000003,
      "d": 1566.666666666657,
      "v": 67
    },
    {
      "midi": 58,
      "hit": false,
      "t": 180000.00000000003,
      "d": 1587.5,
      "v": 67
    },
    {
      "midi": 61,
      "hit": false,
      "t": 180000.00000000017,
      "d": 170.83333333331393,
      "v": 76
    },
    {
      "midi": 60,
      "hit": false,
      "t": 180166.66666666683,
      "d": 191.66666666665697,
      "v": 76
    },
    {
      "midi": 61,
      "hit": false,
      "t": 180333.3333333335,
      "d": 150,
      "v": 64
    },
    {
      "midi": 60,
      "hit": false,
      "t": 180500.00000000015,
      "d": 75,
      "v": 76
    },
    {
      "midi": 73,
      "hit": false,
      "t": 180666.6666666668,
      "d": 83.33333333334303,
      "v": 66
    },
    {
      "midi": 72,
      "hit": false,
      "t": 180833.3333333335,
      "d": 141.66666666665697,
      "v": 76
    },
    {
      "midi": 42,
      "hit": false,
      "t": 181000.00000000003,
      "d": 854.166666666657,
      "v": 65
    },
    {
      "midi": 70,
      "hit": false,
      "t": 181000.00000000015,
      "d": 195.83333333331393,
      "v": 72
    },
    {
      "midi": 68,
      "hit": false,
      "t": 181166.6666666668,
      "d": 154.16666666665697,
      "v": 76
    },
    {
      "midi": 64,
      "hit": false,
      "t": 181333.33333333346,
      "d": 75,
      "v": 69
    },
    {
      "midi": 61,
      "hit": false,
      "t": 181500.00000000012,
      "d": 179.16666666665697,
      "v": 72
    },
    {
      "midi": 58,
      "hit": false,
      "t": 181666.66666666677,
      "d": 187.5,
      "v": 72
    },
    {
      "midi": 61,
      "hit": false,
      "t": 181833.33333333343,
      "d": 183.33333333334303,
      "v": 72
    },
    {
      "midi": 41,
      "hit": false,
      "t": 182000.00000000003,
      "d": 350,
      "v": 60
    },
    {
      "midi": 48,
      "hit": false,
      "t": 182000.00000000003,
      "d": 366.66666666665697,
      "v": 60
    },
    {
      "midi": 60,
      "hit": false,
      "t": 182000.00000000012,
      "d": 116.66666666665697,
      "v": 72
    },
    {
      "midi": 60,
      "hit": false,
      "t": 182500.00000000003,
      "d": 204.16666666665697,
      "v": 63
    },
    {
      "midi": 69,
      "hit": false,
      "t": 182500.00000000003,
      "d": 270.83333333331393,
      "v": 63
    },
    {
      "midi": 65,
      "hit": false,
      "t": 182500.00000000003,
      "d": 274.9999999999709,
      "v": 63
    },
    {
      "midi": 62,
      "hit": false,
      "t": 182500.00000000003,
      "d": 383.33333333331393,
      "v": 63
    },
    {
      "midi": 81,
      "hit": false,
      "t": 182833.33333333343,
      "d": 545.833333333343,
      "v": 76
    },
    {
      "midi": 77,
      "hit": false,
      "t": 182833.33333333343,
      "d": 570.833333333343,
      "v": 72
    },
    {
      "midi": 74,
      "hit": false,
      "t": 182833.33333333343,
      "d": 591.6666666666861,
      "v": 85
    },
    {
      "midi": 72,
      "hit": false,
      "t": 182833.33333333343,
      "d": 608.333333333343,
      "v": 76
    },
    {
      "midi": 84,
      "hit": false,
      "t": 182833.33333333343,
      "d": 608.333333333343,
      "v": 76
    },
    {
      "midi": 60,
      "hit": false,
      "t": 183000,
      "d": 170.83333333334303,
      "v": 60
    },
    {
      "midi": 45,
      "hit": false,
      "t": 183000,
      "d": 220.83333333334303,
      "v": 60
    },
    {
      "midi": 53,
      "hit": false,
      "t": 183000,
      "d": 220.83333333334303,
      "v": 60
    },
    {
      "midi": 44,
      "hit": false,
      "t": 183500,
      "d": 200,
      "v": 58
    },
    {
      "midi": 49,
      "hit": false,
      "t": 183500,
      "d": 200,
      "v": 58
    },
    {
      "midi": 53,
      "hit": false,
      "t": 183500,
      "d": 320.83333333334303,
      "v": 58
    },
    {
      "midi": 60,
      "hit": false,
      "t": 183500.00000000012,
      "d": 175,
      "v": 76
    },
    {
      "midi": 53,
      "hit": false,
      "t": 184000,
      "d": 350,
      "v": 61
    },
    {
      "midi": 49,
      "hit": false,
      "t": 184000,
      "d": 375,
      "v": 61
    },
    {
      "midi": 43,
      "hit": false,
      "t": 184000,
      "d": 504.16666666665697,
      "v": 61
    },
    {
      "midi": 59,
      "hit": false,
      "t": 184000.00000000012,
      "d": 237.5,
      "v": 80
    },
    {
      "midi": 67,
      "hit": false,
      "t": 184333.33333333346,
      "d": 116.66666666668607,
      "v": 64
    },
    {
      "midi": 68,
      "hit": false,
      "t": 184416.6666666668,
      "d": 95.83333333334303,
      "v": 72
    },
    {
      "midi": 51,
      "hit": false,
      "t": 184500,
      "d": 408.33333333331393,
      "v": 60
    },
    {
      "midi": 69,
      "hit": false,
      "t": 184500.00000000015,
      "d": 158.33333333334303,
      "v": 89
    },
    {
      "midi": 65,
      "hit": false,
      "t": 184500.00000000015,
      "d": 300,
      "v": 76
    },
    {
      "midi": 60,
      "hit": false,
      "t": 184500.00000000015,
      "d": 358.33333333334303,
      "v": 64
    },
    {
      "midi": 70,
      "hit": false,
      "t": 184833.3333333335,
      "d": 66.66666666665697,
      "v": 73
    },
    {
      "midi": 50,
      "hit": false,
      "t": 184999.99999999997,
      "d": 350,
      "v": 63
    },
    {
      "midi": 36,
      "hit": false,
      "t": 184999.99999999997,
      "d": 775,
      "v": 63
    },
    {
      "midi": 64,
      "hit": false,
      "t": 185000.00000000015,
      "d": 191.66666666665697,
      "v": 62
    },
    {
      "midi": 69,
      "hit": false,
      "t": 185000.00000000015,
      "d": 208.33333333331393,
      "v": 72
    },
    {
      "midi": 62,
      "hit": false,
      "t": 185000.00000000015,
      "d": 216.66666666665697,
      "v": 85
    },
    {
      "midi": 58,
      "hit": false,
      "t": 185000.00000000015,
      "d": 237.5,
      "v": 62
    },
    {
      "midi": 52,
      "hit": false,
      "t": 185499.99999999997,
      "d": 108.33333333334303,
      "v": 65
    },
    {
      "midi": 64,
      "hit": false,
      "t": 185500.00000000015,
      "d": 204.16666666665697,
      "v": 85
    },
    {
      "midi": 67,
      "hit": false,
      "t": 185500.00000000015,
      "d": 233.33333333331393,
      "v": 89
    },
    {
      "midi": 55,
      "hit": false,
      "t": 185999.99999999997,
      "d": 187.5,
      "v": 59
    },
    {
      "midi": 45,
      "hit": false,
      "t": 185999.99999999997,
      "d": 320.83333333334303,
      "v": 59
    },
    {
      "midi": 61,
      "hit": false,
      "t": 186000.00000000012,
      "d": 129.16666666665697,
      "v": 80
    },
    {
      "midi": 65,
      "hit": false,
      "t": 186000.00000000012,
      "d": 141.66666666665697,
      "v": 85
    },
    {
      "midi": 69,
      "hit": false,
      "t": 186000.00000000012,
      "d": 195.83333333331393,
      "v": 76
    },
    {
      "midi": 67,
      "hit": false,
      "t": 186499.99999999997,
      "d": 108.33333333334303,
      "v": 61
    },
    {
      "midi": 63,
      "hit": false,
      "t": 186499.99999999997,
      "d": 175,
      "v": 61
    },
    {
      "midi": 81,
      "hit": false,
      "t": 186500.0000000001,
      "d": 191.66666666665697,
      "v": 76
    },
    {
      "midi": 77,
      "hit": false,
      "t": 186500.0000000001,
      "d": 195.83333333331393,
      "v": 72
    },
    {
      "midi": 79,
      "hit": false,
      "t": 186500.0000000001,
      "d": 195.83333333331393,
      "v": 72
    },
    {
      "midi": 73,
      "hit": false,
      "t": 186500.0000000001,
      "d": 212.4999999999709,
      "v": 72
    },
    {
      "midi": 69,
      "hit": false,
      "t": 186500.0000000001,
      "d": 241.66666666662786,
      "v": 60
    },
    {
      "midi": 44,
      "hit": false,
      "t": 186999.99999999997,
      "d": 195.83333333334303,
      "v": 63
    },
    {
      "midi": 54,
      "hit": false,
      "t": 186999.99999999997,
      "d": 320.83333333334303,
      "v": 63
    },
    {
      "midi": 58,
      "hit": false,
      "t": 186999.99999999997,
      "d": 366.66666666668607,
      "v": 63
    },
    {
      "midi": 60,
      "hit": false,
      "t": 187000.00000000006,
      "d": 145.83333333334303,
      "v": 85
    },
    {
      "midi": 66,
      "hit": false,
      "t": 187000.00000000006,
      "d": 187.5,
      "v": 72
    },
    {
      "midi": 70,
      "hit": false,
      "t": 187000.00000000006,
      "d": 233.33333333334303,
      "v": 76
    },
    {
      "midi": 32,
      "hit": false,
      "t": 187500,
      "d": 325,
      "v": 64
    },
    {
      "midi": 87,
      "hit": false,
      "t": 187500.00000000006,
      "d": 50,
      "v": 85
    },
    {
      "midi": 75,
      "hit": false,
      "t": 187500.00000000006,
      "d": 91.66666666665697,
      "v": 89
    },
    {
      "midi": 31,
      "hit": false,
      "t": 188000,
      "d": 320.83333333334303,
      "v": 59
    },
    {
      "midi": 57,
      "hit": false,
      "t": 188000.00000000006,
      "d": 129.16666666665697,
      "v": 80
    },
    {
      "midi": 69,
      "hit": false,
      "t": 188000.00000000006,
      "d": 129.16666666665697,
      "v": 85
    },
    {
      "midi": 55,
      "hit": false,
      "t": 188591.66666666672,
      "d": 116.66666666665697,
      "v": 72
    },
    {
      "midi": 57,
      "hit": false,
      "t": 188679.16666666672,
      "d": 104.16666666665697,
      "v": 66
    },
    {
      "midi": 58,
      "hit": false,
      "t": 188770.83333333337,
      "d": 87.5,
      "v": 67
    },
    {
      "midi": 60,
      "hit": false,
      "t": 188837.50000000003,
      "d": 70.83333333334303,
      "v": 62
    },
    {
      "midi": 61,
      "hit": false,
      "t": 188887.50000000003,
      "d": 66.66666666668607,
      "v": 80
    },
    {
      "midi": 64,
      "hit": false,
      "t": 188933.33333333337,
      "d": 54.16666666668607,
      "v": 72
    },
    {
      "midi": 67,
      "hit": false,
      "t": 188975.00000000006,
      "d": 45.833333333343035,
      "v": 64
    },
    {
      "midi": 69,
      "hit": false,
      "t": 189012.50000000006,
      "d": 33.333333333343035,
      "v": 72
    },
    {
      "midi": 70,
      "hit": false,
      "t": 189054.16666666674,
      "d": 29.166666666656965,
      "v": 64
    },
    {
      "midi": 72,
      "hit": false,
      "t": 189083.3333333334,
      "d": 33.33333333331393,
      "v": 76
    },
    {
      "midi": 73,
      "hit": false,
      "t": 189112.50000000006,
      "d": 37.5,
      "v": 85
    },
    {
      "midi": 76,
      "hit": false,
      "t": 189162.50000000006,
      "d": 16.666666666656965,
      "v": 64
    },
    {
      "midi": 79,
      "hit": false,
      "t": 189183.33333333337,
      "d": 33.33333333331393,
      "v": 89
    },
    {
      "midi": 81,
      "hit": false,
      "t": 189212.50000000003,
      "d": 33.33333333331393,
      "v": 89
    },
    {
      "midi": 82,
      "hit": false,
      "t": 189266.6666666667,
      "d": 25,
      "v": 72
    },
    {
      "midi": 84,
      "hit": false,
      "t": 189291.6666666667,
      "d": 25,
      "v": 76
    },
    {
      "midi": 85,
      "hit": false,
      "t": 189316.6666666667,
      "d": 29.166666666656965,
      "v": 89
    },
    {
      "midi": 88,
      "hit": false,
      "t": 189345.83333333334,
      "d": 37.5,
      "v": 93
    },
    {
      "midi": 91,
      "hit": false,
      "t": 189383.33333333334,
      "d": 33.333333333343035,
      "v": 76
    },
    {
      "midi": 93,
      "hit": false,
      "t": 189420.83333333334,
      "d": 33.333333333343035,
      "v": 89
    },
    {
      "midi": 94,
      "hit": false,
      "t": 189458.33333333334,
      "d": 37.5,
      "v": 85
    },
    {
      "midi": 96,
      "hit": false,
      "t": 189504.1666666667,
      "d": 37.5,
      "v": 72
    },
    {
      "midi": 100,
      "hit": false,
      "t": 189537.50000000003,
      "d": 41.666666666656965,
      "v": 80
    },
    {
      "midi": 103,
      "hit": false,
      "t": 189575.00000000003,
      "d": 45.833333333343035,
      "v": 76
    },
    {
      "midi": 105,
      "hit": false,
      "t": 189612.50000000003,
      "d": 500,
      "v": 80
    },
    {
      "midi": 65,
      "hit": false,
      "t": 191500.00000000003,
      "d": 233.33333333331393,
      "v": 68
    },
    {
      "midi": 67,
      "hit": false,
      "t": 191666.6666666667,
      "d": 162.5,
      "v": 72
    },
    {
      "midi": 69,
      "hit": false,
      "t": 191833.33333333334,
      "d": 116.66666666665697,
      "v": 72
    },
    {
      "midi": 61,
      "hit": false,
      "t": 192000,
      "d": 162.5,
      "v": 85
    },
    {
      "midi": 65,
      "hit": false,
      "t": 192000,
      "d": 183.33333333334303,
      "v": 72
    },
    {
      "midi": 58,
      "hit": false,
      "t": 192000,
      "d": 208.33333333334303,
      "v": 76
    },
    {
      "midi": 46,
      "hit": false,
      "t": 192000,
      "d": 362.5,
      "v": 59
    },
    {
      "midi": 55,
      "hit": false,
      "t": 192000,
      "d": 395.83333333334303,
      "v": 59
    },
    {
      "midi": 60,
      "hit": false,
      "t": 192500,
      "d": 83.33333333334303,
      "v": 68
    },
    {
      "midi": 63,
      "hit": false,
      "t": 192500,
      "d": 112.5,
      "v": 85
    },
    {
      "midi": 68,
      "hit": false,
      "t": 192500,
      "d": 141.66666666665697,
      "v": 80
    },
    {
      "midi": 54,
      "hit": false,
      "t": 192500,
      "d": 216.66666666665697,
      "v": 60
    },
    {
      "midi": 48,
      "hit": false,
      "t": 192500,
      "d": 283.33333333331393,
      "v": 60
    },
    {
      "midi": 58,
      "hit": false,
      "t": 192500,
      "d": 312.4999999999709,
      "v": 60
    },
    {
      "midi": 70,
      "hit": false,
      "t": 192833.3333333333,
      "d": 175,
      "v": 68
    },
    {
      "midi": 73,
      "hit": false,
      "t": 192833.3333333333,
      "d": 179.16666666665697,
      "v": 85
    },
    {
      "midi": 66,
      "hit": false,
      "t": 192833.3333333333,
      "d": 204.16666666665697,
      "v": 76
    },
    {
      "midi": 56,
      "hit": false,
      "t": 192833.3333333333,
      "d": 179.16666666665697,
      "v": 65
    },
    {
      "midi": 51,
      "hit": false,
      "t": 192833.3333333333,
      "d": 216.66666666665697,
      "v": 65
    },
    {
      "midi": 61,
      "hit": false,
      "t": 192833.3333333333,
      "d": 241.66666666665697,
      "v": 65
    },
    {
      "midi": 48,
      "hit": false,
      "t": 192999.99999999997,
      "d": 100,
      "v": 64
    },
    {
      "midi": 75,
      "hit": false,
      "t": 193333.3333333333,
      "d": 112.5,
      "v": 60
    },
    {
      "midi": 78,
      "hit": false,
      "t": 193333.3333333333,
      "d": 116.66666666665697,
      "v": 76
    },
    {
      "midi": 80,
      "hit": false,
      "t": 193333.3333333333,
      "d": 116.66666666665697,
      "v": 76
    },
    {
      "midi": 85,
      "hit": false,
      "t": 193333.3333333333,
      "d": 145.83333333331393,
      "v": 80
    },
    {
      "midi": 87,
      "hit": false,
      "t": 193499.99999999997,
      "d": 312.5,
      "v": 80
    },
    {
      "midi": 82,
      "hit": false,
      "t": 193499.99999999997,
      "d": 325,
      "v": 93
    },
    {
      "midi": 76,
      "hit": false,
      "t": 193499.99999999997,
      "d": 362.5,
      "v": 98
    },
    {
      "midi": 80,
      "hit": false,
      "t": 193499.99999999997,
      "d": 950,
      "v": 89
    },
    {
      "midi": 64,
      "hit": false,
      "t": 193499.99999999997,
      "d": 162.5,
      "v": 60
    },
    {
      "midi": 68,
      "hit": false,
      "t": 193499.99999999997,
      "d": 229.16666666665697,
      "v": 60
    },
    {
      "midi": 58,
      "hit": false,
      "t": 193499.99999999997,
      "d": 316.66666666665697,
      "v": 60
    },
    {
      "midi": 60,
      "hit": false,
      "t": 193833.33333333328,
      "d": 66.66666666665697,
      "v": 60
    },
    {
      "midi": 70,
      "hit": false,
      "t": 193833.33333333328,
      "d": 79.16666666665697,
      "v": 60
    },
    {
      "midi": 66,
      "hit": false,
      "t": 193833.33333333328,
      "d": 83.33333333331393,
      "v": 60
    },
    {
      "midi": 41,
      "hit": false,
      "t": 193999.99999999994,
      "d": 933.333333333343,
      "v": 59
    },
    {
      "midi": 61,
      "hit": false,
      "t": 194999.99999999994,
      "d": 808.333333333343,
      "v": 66
    },
    {
      "midi": 66,
      "hit": false,
      "t": 194999.99999999994,
      "d": 829.1666666666861,
      "v": 66
    },
    {
      "midi": 69,
      "hit": false,
      "t": 194999.99999999997,
      "d": 775,
      "v": 72
    },
    {
      "midi": 73,
      "hit": false,
      "t": 194999.99999999997,
      "d": 779.166666666657,
      "v": 85
    },
    {
      "midi": 78,
      "hit": false,
      "t": 194999.99999999997,
      "d": 908.3333333333139,
      "v": 77
    },
    {
      "midi": 74,
      "hit": false,
      "t": 195999.99999999994,
      "d": 675,
      "v": 89
    },
    {
      "midi": 79,
      "hit": false,
      "t": 195999.99999999994,
      "d": 758.333333333343,
      "v": 85
    },
    {
      "midi": 68,
      "hit": false,
      "t": 195999.99999999994,
      "d": 783.333333333343,
      "v": 64
    },
    {
      "midi": 69,
      "hit": false,
      "t": 195999.99999999997,
      "d": 695.833333333343,
      "v": 63
    },
    {
      "midi": 67,
      "hit": false,
      "t": 195999.99999999997,
      "d": 700,
      "v": 63
    },
    {
      "midi": 60,
      "hit": false,
      "t": 195999.99999999997,
      "d": 904.166666666657,
      "v": 63
    },
    {
      "midi": 72,
      "hit": false,
      "t": 196999.99999999994,
      "d": 587.5,
      "v": 96
    },
    {
      "midi": 70,
      "hit": false,
      "t": 196999.99999999994,
      "d": 600,
      "v": 96
    },
    {
      "midi": 75,
      "hit": false,
      "t": 196999.99999999994,
      "d": 625,
      "v": 96
    },
    {
      "midi": 80,
      "hit": false,
      "t": 196999.99999999994,
      "d": 879.166666666657,
      "v": 96
    },
    {
      "midi": 60,
      "hit": false,
      "t": 196999.99999999997,
      "d": 620.833333333343,
      "v": 65
    },
    {
      "midi": 68,
      "hit": false,
      "t": 196999.99999999997,
      "d": 637.5,
      "v": 65
    },
    {
      "midi": 58,
      "hit": false,
      "t": 196999.99999999997,
      "d": 641.666666666657,
      "v": 65
    },
    {
      "midi": 64,
      "hit": false,
      "t": 196999.99999999997,
      "d": 662.5,
      "v": 65
    },
    {
      "midi": 53,
      "hit": false,
      "t": 197999.99999999997,
      "d": 1029.166666666657,
      "v": 61
    },
    {
      "midi": 41,
      "hit": false,
      "t": 197999.99999999997,
      "d": 1037.5,
      "v": 61
    },
    {
      "midi": 81,
      "hit": false,
      "t": 198999.99999999994,
      "d": 875,
      "v": 89
    },
    {
      "midi": 74,
      "hit": false,
      "t": 198999.99999999994,
      "d": 912.5,
      "v": 85
    },
    {
      "midi": 77,
      "hit": false,
      "t": 198999.99999999994,
      "d": 916.666666666657,
      "v": 76
    },
    {
      "midi": 72,
      "hit": false,
      "t": 198999.99999999994,
      "d": 929.166666666657,
      "v": 76
    },
    {
      "midi": 62,
      "hit": false,
      "t": 198999.99999999997,
      "d": 808.333333333343,
      "v": 60
    },
    {
      "midi": 69,
      "hit": false,
      "t": 198999.99999999997,
      "d": 816.6666666666861,
      "v": 60
    },
    {
      "midi": 65,
      "hit": false,
      "t": 198999.99999999997,
      "d": 829.1666666666861,
      "v": 60
    },
    {
      "midi": 29,
      "hit": false,
      "t": 200000,
      "d": 1054.166666666657,
      "v": 57
    }
  ]
}