{
  "jsonPath": "Rock/Album Rock/Gary Moore/cold-day-in-hell-2002-digital-remaster.json",
  "path": "Rock\\Album Rock\\Gary Moore\\Cold Day In Hell (2002 Digital Remaster).mid",
  "name": "Cold Day In Hell (2002 Digital Remaster)",
  "difficulty": "Advanced",
  "bpm": 100,
  "notes": [
    {
      "midi": 59,
      "hit": false,
      "t": 4806.25,
      "d": 331.25,
      "v": 77
    },
    {
      "midi": 56,
      "hit": false,
      "t": 4806.25,
      "d": 337.5,
      "v": 94
    },
    {
      "midi": 64,
      "hit": false,
      "t": 4806.25,
      "d": 337.5,
      "v": 72
    },
    {
      "midi": 49,
      "hit": false,
      "t": 4806.25,
      "d": 356.25,
      "v": 111
    },
    {
      "midi": 61,
      "hit": false,
      "t": 4806.25,
      "d": 356.25,
      "v": 70
    },
    {
      "midi": 61,
      "hit": false,
      "t": 7206.25,
      "d": 2856.25,
      "v": 94
    },
    {
      "midi": 64,
      "hit": false,
      "t": 7206.25,
      "d": 2893.75,
      "v": 82
    },
    {
      "midi": 57,
      "hit": false,
      "t": 7206.25,
      "d": 2912.5,
      "v": 77
    },
    {
      "midi": 45,
      "hit": false,
      "t": 7206.25,
      "d": 3075,
      "v": 85
    },
    {
      "midi": 64,
      "hit": false,
      "t": 10806.25,
      "d": 762.5,
      "v": 80
    },
    {
      "midi": 69,
      "hit": false,
      "t": 10806.25,
      "d": 762.5,
      "v": 87
    },
    {
      "midi": 45,
      "hit": false,
      "t": 10806.25,
      "d": 825,
      "v": 85
    },
    {
      "midi": 57,
      "hit": false,
      "t": 10806.25,
      "d": 837.5,
      "v": 77
    },
    {
      "midi": 56,
      "hit": false,
      "t": 12006.25,
      "d": 2806.25,
      "v": 98
    },
    {
      "midi": 59,
      "hit": false,
      "t": 12006.25,
      "d": 2831.25,
      "v": 78
    },
    {
      "midi": 61,
      "hit": false,
      "t": 12006.25,
      "d": 2850,
      "v": 77
    },
    {
      "midi": 64,
      "hit": false,
      "t": 12006.25,
      "d": 2868.75,
      "v": 77
    },
    {
      "midi": 49,
      "hit": false,
      "t": 12006.25,
      "d": 3281.25,
      "v": 119
    },
    {
      "midi": 59,
      "hit": false,
      "t": 15006.25,
      "d": 175,
      "v": 67
    },
    {
      "midi": 61,
      "hit": false,
      "t": 15006.25,
      "d": 206.25,
      "v": 70
    },
    {
      "midi": 64,
      "hit": false,
      "t": 15006.25,
      "d": 206.25,
      "v": 68
    },
    {
      "midi": 59,
      "hit": false,
      "t": 15306.25,
      "d": 450,
      "v": 82
    },
    {
      "midi": 61,
      "hit": false,
      "t": 15306.25,
      "d": 450,
      "v": 83
    },
    {
      "midi": 64,
      "hit": false,
      "t": 15306.25,
      "d": 456.25,
      "v": 70
    },
    {
      "midi": 59,
      "hit": false,
      "t": 15906.25,
      "d": 412.5,
      "v": 87
    },
    {
      "midi": 61,
      "hit": false,
      "t": 15906.25,
      "d": 443.75,
      "v": 98
    },
    {
      "midi": 64,
      "hit": false,
      "t": 15906.25,
      "d": 443.75,
      "v": 75
    },
    {
      "midi": 69,
      "hit": false,
      "t": 16806.25,
      "d": 1643.75,
      "v": 98
    },
    {
      "midi": 57,
      "hit": false,
      "t": 16806.25,
      "d": 1662.5,
      "v": 87
    },
    {
      "midi": 64,
      "hit": false,
      "t": 16806.25,
      "d": 1700,
      "v": 90
    },
    {
      "midi": 45,
      "hit": false,
      "t": 16806.25,
      "d": 1837.5,
      "v": 90
    },
    {
      "midi": 68,
      "hit": false,
      "t": 19206.25,
      "d": 1837.5,
      "v": 94
    },
    {
      "midi": 63,
      "hit": false,
      "t": 19206.25,
      "d": 1850,
      "v": 77
    },
    {
      "midi": 44,
      "hit": false,
      "t": 19206.25,
      "d": 1862.5,
      "v": 94
    },
    {
      "midi": 60,
      "hit": false,
      "t": 19206.25,
      "d": 1887.5,
      "v": 87
    },
    {
      "midi": 56,
      "hit": false,
      "t": 19206.25,
      "d": 1925,
      "v": 94
    },
    {
      "midi": 56,
      "hit": false,
      "t": 21606.25,
      "d": 1550,
      "v": 94
    },
    {
      "midi": 59,
      "hit": false,
      "t": 21606.25,
      "d": 1637.5,
      "v": 72
    },
    {
      "midi": 61,
      "hit": false,
      "t": 21606.25,
      "d": 1668.75,
      "v": 73
    },
    {
      "midi": 64,
      "hit": false,
      "t": 21606.25,
      "d": 1668.75,
      "v": 70
    },
    {
      "midi": 49,
      "hit": false,
      "t": 21606.25,
      "d": 1818.75,
      "v": 98
    },
    {
      "midi": 56,
      "hit": false,
      "t": 24006.25,
      "d": 118.75,
      "v": 94
    },
    {
      "midi": 59,
      "hit": false,
      "t": 24006.25,
      "d": 118.75,
      "v": 77
    },
    {
      "midi": 49,
      "hit": false,
      "t": 24006.25,
      "d": 137.5,
      "v": 127
    },
    {
      "midi": 61,
      "hit": false,
      "t": 24006.25,
      "d": 137.5,
      "v": 73
    },
    {
      "midi": 64,
      "hit": false,
      "t": 24006.25,
      "d": 162.5,
      "v": 73
    },
    {
      "midi": 71,
      "hit": false,
      "t": 24606.25,
      "d": 1312.5,
      "v": 98
    },
    {
      "midi": 44,
      "hit": false,
      "t": 24606.25,
      "d": 1325,
      "v": 119
    },
    {
      "midi": 66,
      "hit": false,
      "t": 24606.25,
      "d": 1343.75,
      "v": 98
    },
    {
      "midi": 59,
      "hit": false,
      "t": 24606.25,
      "d": 1375,
      "v": 94
    },
    {
      "midi": 49,
      "hit": false,
      "t": 26406.25,
      "d": 868.75,
      "v": 104
    },
    {
      "midi": 61,
      "hit": false,
      "t": 26406.25,
      "d": 2331.25,
      "v": 74
    },
    {
      "midi": 64,
      "hit": false,
      "t": 26406.25,
      "d": 2331.25,
      "v": 73
    },
    {
      "midi": 59,
      "hit": false,
      "t": 26406.25,
      "d": 2337.5,
      "v": 78
    },
    {
      "midi": 56,
      "hit": false,
      "t": 26406.25,
      "d": 2350,
      "v": 90
    },
    {
      "midi": 58,
      "hit": false,
      "t": 28806.25,
      "d": 1818.75,
      "v": 64
    },
    {
      "midi": 54,
      "hit": false,
      "t": 28806.25,
      "d": 1900,
      "v": 62
    },
    {
      "midi": 61,
      "hit": false,
      "t": 28806.25,
      "d": 1987.5,
      "v": 60
    },
    {
      "midi": 61,
      "hit": false,
      "t": 31206.25,
      "d": 3281.25,
      "v": 59
    },
    {
      "midi": 56,
      "hit": false,
      "t": 31206.25,
      "d": 3300,
      "v": 60
    },
    {
      "midi": 59,
      "hit": false,
      "t": 31206.25,
      "d": 3306.25,
      "v": 60
    },
    {
      "midi": 64,
      "hit": false,
      "t": 31206.25,
      "d": 3356.25,
      "v": 62
    },
    {
      "midi": 49,
      "hit": false,
      "t": 31206.25,
      "d": 3456.25,
      "v": 70
    },
    {
      "midi": 61,
      "hit": false,
      "t": 35406.25,
      "d": 100,
      "v": 75
    },
    {
      "midi": 56,
      "hit": false,
      "t": 35406.25,
      "d": 118.75,
      "v": 75
    },
    {
      "midi": 59,
      "hit": false,
      "t": 35406.25,
      "d": 118.75,
      "v": 71
    },
    {
      "midi": 49,
      "hit": false,
      "t": 35550,
      "d": 100,
      "v": 75
    },
    {
      "midi": 61,
      "hit": false,
      "t": 35706.25,
      "d": 100,
      "v": 66
    },
    {
      "midi": 56,
      "hit": false,
      "t": 35706.25,
      "d": 118.75,
      "v": 67
    },
    {
      "midi": 59,
      "hit": false,
      "t": 35706.25,
      "d": 118.75,
      "v": 62
    },
    {
      "midi": 49,
      "hit": false,
      "t": 35850,
      "d": 2262.5,
      "v": 79
    },
    {
      "midi": 61,
      "hit": false,
      "t": 36006.25,
      "d": 1918.75,
      "v": 62
    },
    {
      "midi": 64,
      "hit": false,
      "t": 36006.25,
      "d": 1975,
      "v": 65
    },
    {
      "midi": 56,
      "hit": false,
      "t": 36006.25,
      "d": 2000,
      "v": 73
    },
    {
      "midi": 59,
      "hit": false,
      "t": 36006.25,
      "d": 2000,
      "v": 63
    },
    {
      "midi": 61,
      "hit": false,
      "t": 38406.25,
      "d": 1850,
      "v": 64
    },
    {
      "midi": 66,
      "hit": false,
      "t": 38406.25,
      "d": 1868.75,
      "v": 76
    },
    {
      "midi": 58,
      "hit": false,
      "t": 38406.25,
      "d": 1900,
      "v": 69
    },
    {
      "midi": 54,
      "hit": false,
      "t": 38406.25,
      "d": 1918.75,
      "v": 70
    },
    {
      "midi": 49,
      "hit": false,
      "t": 40806.25,
      "d": 2193.75,
      "v": 75
    },
    {
      "midi": 61,
      "hit": false,
      "t": 40806.25,
      "d": 2343.75,
      "v": 58
    },
    {
      "midi": 59,
      "hit": false,
      "t": 40806.25,
      "d": 2368.75,
      "v": 58
    },
    {
      "midi": 56,
      "hit": false,
      "t": 40806.25,
      "d": 2387.5,
      "v": 63
    },
    {
      "midi": 64,
      "hit": false,
      "t": 40806.25,
      "d": 2412.5,
      "v": 61
    },
    {
      "midi": 49,
      "hit": false,
      "t": 43206.25,
      "d": 75,
      "v": 58
    },
    {
      "midi": 59,
      "hit": false,
      "t": 43500,
      "d": 87.5,
      "v": 63
    },
    {
      "midi": 61,
      "hit": false,
      "t": 43500,
      "d": 87.5,
      "v": 65
    },
    {
      "midi": 56,
      "hit": false,
      "t": 43500,
      "d": 93.75,
      "v": 70
    },
    {
      "midi": 64,
      "hit": false,
      "t": 43506.25,
      "d": 81.25,
      "v": 63
    },
    {
      "midi": 49,
      "hit": false,
      "t": 43800,
      "d": 50,
      "v": 73
    },
    {
      "midi": 61,
      "hit": false,
      "t": 43950,
      "d": 56.25,
      "v": 67
    },
    {
      "midi": 56,
      "hit": false,
      "t": 43950,
      "d": 106.25,
      "v": 73
    },
    {
      "midi": 59,
      "hit": false,
      "t": 43950,
      "d": 106.25,
      "v": 70
    },
    {
      "midi": 64,
      "hit": false,
      "t": 43950,
      "d": 118.75,
      "v": 69
    },
    {
      "midi": 49,
      "hit": false,
      "t": 44250,
      "d": 62.5,
      "v": 71
    },
    {
      "midi": 61,
      "hit": false,
      "t": 44406.25,
      "d": 93.75,
      "v": 75
    },
    {
      "midi": 56,
      "hit": false,
      "t": 44406.25,
      "d": 762.5,
      "v": 77
    },
    {
      "midi": 59,
      "hit": false,
      "t": 44406.25,
      "d": 825,
      "v": 80
    },
    {
      "midi": 64,
      "hit": false,
      "t": 44406.25,
      "d": 906.25,
      "v": 78
    },
    {
      "midi": 61,
      "hit": false,
      "t": 44550,
      "d": 700,
      "v": 22
    },
    {
      "midi": 56,
      "hit": false,
      "t": 45306.25,
      "d": 100,
      "v": 69
    },
    {
      "midi": 52,
      "hit": false,
      "t": 45606.25,
      "d": 1725,
      "v": 90
    },
    {
      "midi": 56,
      "hit": false,
      "t": 45606.25,
      "d": 1775,
      "v": 104
    },
    {
      "midi": 59,
      "hit": false,
      "t": 45606.25,
      "d": 1793.75,
      "v": 82
    },
    {
      "midi": 64,
      "hit": false,
      "t": 45606.25,
      "d": 1793.75,
      "v": 77
    },
    {
      "midi": 61,
      "hit": false,
      "t": 48006.25,
      "d": 1731.25,
      "v": 94
    },
    {
      "midi": 66,
      "hit": false,
      "t": 48006.25,
      "d": 1762.5,
      "v": 81
    },
    {
      "midi": 54,
      "hit": false,
      "t": 48006.25,
      "d": 1843.75,
      "v": 104
    },
    {
      "midi": 58,
      "hit": false,
      "t": 48006.25,
      "d": 1875,
      "v": 90
    },
    {
      "midi": 60,
      "hit": false,
      "t": 50406.25,
      "d": 1831.25,
      "v": 78
    },
    {
      "midi": 68,
      "hit": false,
      "t": 50406.25,
      "d": 1831.25,
      "v": 81
    },
    {
      "midi": 56,
      "hit": false,
      "t": 50406.25,
      "d": 1931.25,
      "v": 86
    },
    {
      "midi": 63,
      "hit": false,
      "t": 50406.25,
      "d": 1956.25,
      "v": 69
    },
    {
      "midi": 61,
      "hit": false,
      "t": 52806.25,
      "d": 1275,
      "v": 90
    },
    {
      "midi": 66,
      "hit": false,
      "t": 52806.25,
      "d": 1287.5,
      "v": 75
    },
    {
      "midi": 58,
      "hit": false,
      "t": 52806.25,
      "d": 1306.25,
      "v": 77
    },
    {
      "midi": 54,
      "hit": false,
      "t": 52806.25,
      "d": 1587.5,
      "v": 81
    },
    {
      "midi": 61,
      "hit": false,
      "t": 54306.25,
      "d": 68.75,
      "v": 83
    },
    {
      "midi": 58,
      "hit": false,
      "t": 54306.25,
      "d": 81.25,
      "v": 76
    },
    {
      "midi": 66,
      "hit": false,
      "t": 54306.25,
      "d": 100,
      "v": 75
    },
    {
      "midi": 56,
      "hit": false,
      "t": 55206.25,
      "d": 743.75,
      "v": 83
    },
    {
      "midi": 59,
      "hit": false,
      "t": 55206.25,
      "d": 1275,
      "v": 75
    },
    {
      "midi": 64,
      "hit": false,
      "t": 55206.25,
      "d": 1318.75,
      "v": 75
    },
    {
      "midi": 52,
      "hit": false,
      "t": 55206.25,
      "d": 1987.5,
      "v": 94
    },
    {
      "midi": 56,
      "hit": false,
      "t": 56106.25,
      "d": 393.75,
      "v": 26
    },
    {
      "midi": 56,
      "hit": false,
      "t": 56706.25,
      "d": 400,
      "v": 73
    },
    {
      "midi": 64,
      "hit": false,
      "t": 56706.25,
      "d": 556.25,
      "v": 69
    },
    {
      "midi": 59,
      "hit": false,
      "t": 56706.25,
      "d": 593.75,
      "v": 70
    },
    {
      "midi": 56,
      "hit": false,
      "t": 57306.25,
      "d": 100,
      "v": 54
    },
    {
      "midi": 66,
      "hit": false,
      "t": 57606.25,
      "d": 856.25,
      "v": 79
    },
    {
      "midi": 54,
      "hit": false,
      "t": 57606.25,
      "d": 868.75,
      "v": 90
    },
    {
      "midi": 61,
      "hit": false,
      "t": 57606.25,
      "d": 868.75,
      "v": 81
    },
    {
      "midi": 58,
      "hit": false,
      "t": 57606.25,
      "d": 887.5,
      "v": 83
    },
    {
      "midi": 57,
      "hit": false,
      "t": 58806.25,
      "d": 618.75,
      "v": 80
    },
    {
      "midi": 64,
      "hit": false,
      "t": 58806.25,
      "d": 625,
      "v": 78
    },
    {
      "midi": 69,
      "hit": false,
      "t": 58806.25,
      "d": 631.25,
      "v": 72
    },
    {
      "midi": 61,
      "hit": false,
      "t": 58806.25,
      "d": 650,
      "v": 83
    },
    {
      "midi": 61,
      "hit": false,
      "t": 60006.25,
      "d": 1975,
      "v": 69
    },
    {
      "midi": 49,
      "hit": false,
      "t": 60006.25,
      "d": 2012.5,
      "v": 90
    },
    {
      "midi": 56,
      "hit": false,
      "t": 60006.25,
      "d": 2062.5,
      "v": 86
    },
    {
      "midi": 64,
      "hit": false,
      "t": 60006.25,
      "d": 2081.25,
      "v": 72
    },
    {
      "midi": 59,
      "hit": false,
      "t": 60006.25,
      "d": 2093.75,
      "v": 72
    },
    {
      "midi": 56,
      "hit": false,
      "t": 62406.25,
      "d": 75,
      "v": 94
    },
    {
      "midi": 59,
      "hit": false,
      "t": 62406.25,
      "d": 75,
      "v": 73
    },
    {
      "midi": 61,
      "hit": false,
      "t": 62406.25,
      "d": 81.25,
      "v": 71
    },
    {
      "midi": 49,
      "hit": false,
      "t": 62406.25,
      "d": 93.75,
      "v": 104
    },
    {
      "midi": 64,
      "hit": false,
      "t": 62406.25,
      "d": 118.75,
      "v": 73
    },
    {
      "midi": 59,
      "hit": false,
      "t": 63006.25,
      "d": 1281.25,
      "v": 87
    },
    {
      "midi": 71,
      "hit": false,
      "t": 63006.25,
      "d": 1287.5,
      "v": 98
    },
    {
      "midi": 66,
      "hit": false,
      "t": 63006.25,
      "d": 1312.5,
      "v": 94
    },
    {
      "midi": 44,
      "hit": false,
      "t": 63006.25,
      "d": 1325,
      "v": 94
    },
    {
      "midi": 64,
      "hit": false,
      "t": 64806.25,
      "d": 106.25,
      "v": 82
    },
    {
      "midi": 68,
      "hit": false,
      "t": 64806.25,
      "d": 112.5,
      "v": 75
    },
    {
      "midi": 61,
      "hit": false,
      "t": 64806.25,
      "d": 131.25,
      "v": 86
    },
    {
      "midi": 61,
      "hit": false,
      "t": 65100,
      "d": 106.25,
      "v": 48
    },
    {
      "midi": 64,
      "hit": false,
      "t": 65100,
      "d": 106.25,
      "v": 45
    },
    {
      "midi": 68,
      "hit": false,
      "t": 65100,
      "d": 106.25,
      "v": 43
    },
    {
      "midi": 68,
      "hit": false,
      "t": 65400,
      "d": 137.5,
      "v": 75
    },
    {
      "midi": 61,
      "hit": false,
      "t": 65406.25,
      "d": 131.25,
      "v": 90
    },
    {
      "midi": 64,
      "hit": false,
      "t": 65406.25,
      "d": 131.25,
      "v": 85
    },
    {
      "midi": 61,
      "hit": false,
      "t": 65706.25,
      "d": 100,
      "v": 49
    },
    {
      "midi": 68,
      "hit": false,
      "t": 65706.25,
      "d": 100,
      "v": 47
    },
    {
      "midi": 64,
      "hit": false,
      "t": 65706.25,
      "d": 118.75,
      "v": 49
    },
    {
      "midi": 64,
      "hit": false,
      "t": 66006.25,
      "d": 125,
      "v": 78
    },
    {
      "midi": 61,
      "hit": false,
      "t": 66006.25,
      "d": 143.75,
      "v": 86
    },
    {
      "midi": 68,
      "hit": false,
      "t": 66006.25,
      "d": 143.75,
      "v": 74
    },
    {
      "midi": 61,
      "hit": false,
      "t": 66306.25,
      "d": 81.25,
      "v": 56
    },
    {
      "midi": 64,
      "hit": false,
      "t": 66306.25,
      "d": 87.5,
      "v": 61
    },
    {
      "midi": 68,
      "hit": false,
      "t": 66306.25,
      "d": 93.75,
      "v": 60
    },
    {
      "midi": 61,
      "hit": false,
      "t": 66606.25,
      "d": 143.75,
      "v": 90
    },
    {
      "midi": 64,
      "hit": false,
      "t": 66606.25,
      "d": 143.75,
      "v": 85
    },
    {
      "midi": 68,
      "hit": false,
      "t": 66606.25,
      "d": 143.75,
      "v": 75
    },
    {
      "midi": 64,
      "hit": false,
      "t": 66906.25,
      "d": 100,
      "v": 53
    },
    {
      "midi": 68,
      "hit": false,
      "t": 66906.25,
      "d": 100,
      "v": 49
    },
    {
      "midi": 61,
      "hit": false,
      "t": 66906.25,
      "d": 118.75,
      "v": 45
    },
    {
      "midi": 61,
      "hit": false,
      "t": 67206.25,
      "d": 81.25,
      "v": 79
    },
    {
      "midi": 58,
      "hit": false,
      "t": 67206.25,
      "d": 112.5,
      "v": 83
    },
    {
      "midi": 66,
      "hit": false,
      "t": 67206.25,
      "d": 131.25,
      "v": 75
    },
    {
      "midi": 58,
      "hit": false,
      "t": 67500,
      "d": 100,
      "v": 54
    },
    {
      "midi": 66,
      "hit": false,
      "t": 67500,
      "d": 100,
      "v": 56
    },
    {
      "midi": 61,
      "hit": false,
      "t": 67506.25,
      "d": 68.75,
      "v": 61
    },
    {
      "midi": 66,
      "hit": false,
      "t": 67800,
      "d": 175,
      "v": 77
    },
    {
      "midi": 61,
      "hit": false,
      "t": 67806.25,
      "d": 100,
      "v": 81
    },
    {
      "midi": 58,
      "hit": false,
      "t": 67806.25,
      "d": 137.5,
      "v": 83
    },
    {
      "midi": 61,
      "hit": false,
      "t": 68106.25,
      "d": 62.5,
      "v": 61
    },
    {
      "midi": 58,
      "hit": false,
      "t": 68106.25,
      "d": 93.75,
      "v": 56
    },
    {
      "midi": 66,
      "hit": false,
      "t": 68106.25,
      "d": 93.75,
      "v": 58
    },
    {
      "midi": 61,
      "hit": false,
      "t": 68406.25,
      "d": 81.25,
      "v": 77
    },
    {
      "midi": 58,
      "hit": false,
      "t": 68406.25,
      "d": 118.75,
      "v": 81
    },
    {
      "midi": 66,
      "hit": false,
      "t": 68406.25,
      "d": 131.25,
      "v": 74
    },
    {
      "midi": 61,
      "hit": false,
      "t": 68706.25,
      "d": 81.25,
      "v": 61
    },
    {
      "midi": 58,
      "hit": false,
      "t": 68706.25,
      "d": 87.5,
      "v": 56
    },
    {
      "midi": 66,
      "hit": false,
      "t": 68706.25,
      "d": 106.25,
      "v": 65
    },
    {
      "midi": 58,
      "hit": false,
      "t": 69006.25,
      "d": 131.25,
      "v": 81
    },
    {
      "midi": 61,
      "hit": false,
      "t": 69006.25,
      "d": 131.25,
      "v": 79
    },
    {
      "midi": 66,
      "hit": false,
      "t": 69006.25,
      "d": 175,
      "v": 74
    },
    {
      "midi": 58,
      "hit": false,
      "t": 69306.25,
      "d": 118.75,
      "v": 56
    },
    {
      "midi": 61,
      "hit": false,
      "t": 69306.25,
      "d": 118.75,
      "v": 60
    },
    {
      "midi": 66,
      "hit": false,
      "t": 69306.25,
      "d": 250,
      "v": 49
    },
    {
      "midi": 61,
      "hit": false,
      "t": 69606.25,
      "d": 106.25,
      "v": 74
    },
    {
      "midi": 64,
      "hit": false,
      "t": 69606.25,
      "d": 106.25,
      "v": 67
    },
    {
      "midi": 68,
      "hit": false,
      "t": 69606.25,
      "d": 125,
      "v": 74
    },
    {
      "midi": 61,
      "hit": false,
      "t": 69900,
      "d": 106.25,
      "v": 55
    },
    {
      "midi": 64,
      "hit": false,
      "t": 69906.25,
      "d": 81.25,
      "v": 56
    },
    {
      "midi": 68,
      "hit": false,
      "t": 69906.25,
      "d": 81.25,
      "v": 54
    },
    {
      "midi": 61,
      "hit": false,
      "t": 70206.25,
      "d": 118.75,
      "v": 75
    },
    {
      "midi": 64,
      "hit": false,
      "t": 70206.25,
      "d": 118.75,
      "v": 71
    },
    {
      "midi": 68,
      "hit": false,
      "t": 70206.25,
      "d": 118.75,
      "v": 76
    },
    {
      "midi": 68,
      "hit": false,
      "t": 70506.25,
      "d": 87.5,
      "v": 52
    },
    {
      "midi": 61,
      "hit": false,
      "t": 70506.25,
      "d": 106.25,
      "v": 54
    },
    {
      "midi": 64,
      "hit": false,
      "t": 70506.25,
      "d": 106.25,
      "v": 55
    },
    {
      "midi": 64,
      "hit": false,
      "t": 70800,
      "d": 143.75,
      "v": 66
    },
    {
      "midi": 61,
      "hit": false,
      "t": 70806.25,
      "d": 93.75,
      "v": 73
    },
    {
      "midi": 68,
      "hit": false,
      "t": 70806.25,
      "d": 112.5,
      "v": 66
    },
    {
      "midi": 61,
      "hit": false,
      "t": 71106.25,
      "d": 87.5,
      "v": 58
    },
    {
      "midi": 64,
      "hit": false,
      "t": 71106.25,
      "d": 87.5,
      "v": 57
    },
    {
      "midi": 68,
      "hit": false,
      "t": 71106.25,
      "d": 87.5,
      "v": 62
    },
    {
      "midi": 61,
      "hit": false,
      "t": 71400,
      "d": 125,
      "v": 75
    },
    {
      "midi": 64,
      "hit": false,
      "t": 71406.25,
      "d": 118.75,
      "v": 71
    },
    {
      "midi": 68,
      "hit": false,
      "t": 71406.25,
      "d": 118.75,
      "v": 74
    },
    {
      "midi": 61,
      "hit": false,
      "t": 71706.25,
      "d": 106.25,
      "v": 54
    },
    {
      "midi": 68,
      "hit": false,
      "t": 71706.25,
      "d": 106.25,
      "v": 53
    },
    {
      "midi": 64,
      "hit": false,
      "t": 71706.25,
      "d": 112.5,
      "v": 54
    },
    {
      "midi": 61,
      "hit": false,
      "t": 72006.25,
      "d": 131.25,
      "v": 77
    },
    {
      "midi": 64,
      "hit": false,
      "t": 72006.25,
      "d": 143.75,
      "v": 75
    },
    {
      "midi": 68,
      "hit": false,
      "t": 72006.25,
      "d": 143.75,
      "v": 79
    },
    {
      "midi": 61,
      "hit": false,
      "t": 72300,
      "d": 106.25,
      "v": 52
    },
    {
      "midi": 68,
      "hit": false,
      "t": 72300,
      "d": 106.25,
      "v": 51
    },
    {
      "midi": 64,
      "hit": false,
      "t": 72306.25,
      "d": 81.25,
      "v": 58
    },
    {
      "midi": 68,
      "hit": false,
      "t": 72600,
      "d": 143.75,
      "v": 76
    },
    {
      "midi": 61,
      "hit": false,
      "t": 72606.25,
      "d": 100,
      "v": 77
    },
    {
      "midi": 64,
      "hit": false,
      "t": 72606.25,
      "d": 118.75,
      "v": 71
    },
    {
      "midi": 61,
      "hit": false,
      "t": 72906.25,
      "d": 68.75,
      "v": 61
    },
    {
      "midi": 64,
      "hit": false,
      "t": 72906.25,
      "d": 87.5,
      "v": 56
    },
    {
      "midi": 68,
      "hit": false,
      "t": 72906.25,
      "d": 106.25,
      "v": 60
    },
    {
      "midi": 61,
      "hit": false,
      "t": 73206.25,
      "d": 75,
      "v": 79
    },
    {
      "midi": 64,
      "hit": false,
      "t": 73206.25,
      "d": 100,
      "v": 64
    },
    {
      "midi": 68,
      "hit": false,
      "t": 73206.25,
      "d": 137.5,
      "v": 65
    },
    {
      "midi": 61,
      "hit": false,
      "t": 73506.25,
      "d": 75,
      "v": 64
    },
    {
      "midi": 64,
      "hit": false,
      "t": 73506.25,
      "d": 93.75,
      "v": 56
    },
    {
      "midi": 68,
      "hit": false,
      "t": 73506.25,
      "d": 93.75,
      "v": 63
    },
    {
      "midi": 61,
      "hit": false,
      "t": 73806.25,
      "d": 100,
      "v": 76
    },
    {
      "midi": 64,
      "hit": false,
      "t": 73806.25,
      "d": 100,
      "v": 77
    },
    {
      "midi": 68,
      "hit": false,
      "t": 73806.25,
      "d": 118.75,
      "v": 74
    },
    {
      "midi": 61,
      "hit": false,
      "t": 74106.25,
      "d": 87.5,
      "v": 61
    },
    {
      "midi": 68,
      "hit": false,
      "t": 74106.25,
      "d": 87.5,
      "v": 62
    },
    {
      "midi": 64,
      "hit": false,
      "t": 74106.25,
      "d": 93.75,
      "v": 59
    },
    {
      "midi": 61,
      "hit": false,
      "t": 74406.25,
      "d": 100,
      "v": 86
    },
    {
      "midi": 64,
      "hit": false,
      "t": 74406.25,
      "d": 100,
      "v": 80
    },
    {
      "midi": 68,
      "hit": false,
      "t": 74406.25,
      "d": 118.75,
      "v": 75
    },
    {
      "midi": 61,
      "hit": false,
      "t": 74700,
      "d": 93.75,
      "v": 62
    },
    {
      "midi": 68,
      "hit": false,
      "t": 74700,
      "d": 112.5,
      "v": 62
    },
    {
      "midi": 64,
      "hit": false,
      "t": 74706.25,
      "d": 87.5,
      "v": 60
    },
    {
      "midi": 68,
      "hit": false,
      "t": 75000,
      "d": 125,
      "v": 74
    },
    {
      "midi": 64,
      "hit": false,
      "t": 75006.25,
      "d": 87.5,
      "v": 82
    },
    {
      "midi": 61,
      "hit": false,
      "t": 75006.25,
      "d": 106.25,
      "v": 83
    },
    {
      "midi": 61,
      "hit": false,
      "t": 75300,
      "d": 87.5,
      "v": 65
    },
    {
      "midi": 64,
      "hit": false,
      "t": 75306.25,
      "d": 81.25,
      "v": 60
    },
    {
      "midi": 68,
      "hit": false,
      "t": 75306.25,
      "d": 81.25,
      "v": 61
    },
    {
      "midi": 64,
      "hit": false,
      "t": 75600,
      "d": 106.25,
      "v": 82
    },
    {
      "midi": 61,
      "hit": false,
      "t": 75606.25,
      "d": 100,
      "v": 81
    },
    {
      "midi": 68,
      "hit": false,
      "t": 75606.25,
      "d": 118.75,
      "v": 74
    },
    {
      "midi": 61,
      "hit": false,
      "t": 75906.25,
      "d": 93.75,
      "v": 57
    },
    {
      "midi": 64,
      "hit": false,
      "t": 75906.25,
      "d": 93.75,
      "v": 57
    },
    {
      "midi": 68,
      "hit": false,
      "t": 75906.25,
      "d": 93.75,
      "v": 62
    },
    {
      "midi": 64,
      "hit": false,
      "t": 76206.25,
      "d": 112.5,
      "v": 85
    },
    {
      "midi": 61,
      "hit": false,
      "t": 76206.25,
      "d": 131.25,
      "v": 83
    },
    {
      "midi": 68,
      "hit": false,
      "t": 76206.25,
      "d": 131.25,
      "v": 76
    },
    {
      "midi": 61,
      "hit": false,
      "t": 76506.25,
      "d": 100,
      "v": 63
    },
    {
      "midi": 64,
      "hit": false,
      "t": 76506.25,
      "d": 100,
      "v": 57
    },
    {
      "midi": 68,
      "hit": false,
      "t": 76506.25,
      "d": 100,
      "v": 63
    },
    {
      "midi": 58,
      "hit": false,
      "t": 76806.25,
      "d": 112.5,
      "v": 86
    },
    {
      "midi": 61,
      "hit": false,
      "t": 76806.25,
      "d": 112.5,
      "v": 83
    },
    {
      "midi": 66,
      "hit": false,
      "t": 76806.25,
      "d": 131.25,
      "v": 74
    },
    {
      "midi": 58,
      "hit": false,
      "t": 77100,
      "d": 87.5,
      "v": 45
    },
    {
      "midi": 66,
      "hit": false,
      "t": 77100,
      "d": 106.25,
      "v": 49
    },
    {
      "midi": 61,
      "hit": false,
      "t": 77106.25,
      "d": 81.25,
      "v": 57
    },
    {
      "midi": 58,
      "hit": false,
      "t": 77400,
      "d": 125,
      "v": 81
    },
    {
      "midi": 61,
      "hit": false,
      "t": 77406.25,
      "d": 87.5,
      "v": 81
    },
    {
      "midi": 66,
      "hit": false,
      "t": 77406.25,
      "d": 118.75,
      "v": 76
    },
    {
      "midi": 61,
      "hit": false,
      "t": 77706.25,
      "d": 62.5,
      "v": 58
    },
    {
      "midi": 66,
      "hit": false,
      "t": 77706.25,
      "d": 68.75,
      "v": 53
    },
    {
      "midi": 58,
      "hit": false,
      "t": 77706.25,
      "d": 93.75,
      "v": 51
    },
    {
      "midi": 58,
      "hit": false,
      "t": 78006.25,
      "d": 100,
      "v": 74
    },
    {
      "midi": 61,
      "hit": false,
      "t": 78006.25,
      "d": 100,
      "v": 73
    },
    {
      "midi": 66,
      "hit": false,
      "t": 78006.25,
      "d": 118.75,
      "v": 62
    },
    {
      "midi": 61,
      "hit": false,
      "t": 78306.25,
      "d": 68.75,
      "v": 52
    },
    {
      "midi": 66,
      "hit": false,
      "t": 78306.25,
      "d": 75,
      "v": 51
    },
    {
      "midi": 58,
      "hit": false,
      "t": 78306.25,
      "d": 93.75,
      "v": 47
    },
    {
      "midi": 58,
      "hit": false,
      "t": 78606.25,
      "d": 131.25,
      "v": 79
    },
    {
      "midi": 61,
      "hit": false,
      "t": 78606.25,
      "d": 131.25,
      "v": 83
    },
    {
      "midi": 66,
      "hit": false,
      "t": 78606.25,
      "d": 162.5,
      "v": 73
    },
    {
      "midi": 61,
      "hit": false,
      "t": 78906.25,
      "d": 68.75,
      "v": 58
    },
    {
      "midi": 58,
      "hit": false,
      "t": 78906.25,
      "d": 106.25,
      "v": 53
    },
    {
      "midi": 66,
      "hit": false,
      "t": 78906.25,
      "d": 106.25,
      "v": 55
    },
    {
      "midi": 64,
      "hit": false,
      "t": 79206.25,
      "d": 75,
      "v": 68
    },
    {
      "midi": 61,
      "hit": false,
      "t": 79206.25,
      "d": 131.25,
      "v": 71
    },
    {
      "midi": 68,
      "hit": false,
      "t": 79206.25,
      "d": 150,
      "v": 68
    },
    {
      "midi": 64,
      "hit": false,
      "t": 79500,
      "d": 87.5,
      "v": 52
    },
    {
      "midi": 68,
      "hit": false,
      "t": 79500,
      "d": 87.5,
      "v": 47
    },
    {
      "midi": 61,
      "hit": false,
      "t": 79500,
      "d": 125,
      "v": 46
    },
    {
      "midi": 68,
      "hit": false,
      "t": 79800,
      "d": 150,
      "v": 71
    },
    {
      "midi": 61,
      "hit": false,
      "t": 79806.25,
      "d": 125,
      "v": 83
    },
    {
      "midi": 64,
      "hit": false,
      "t": 79806.25,
      "d": 143.75,
      "v": 69
    },
    {
      "midi": 68,
      "hit": false,
      "t": 80106.25,
      "d": 62.5,
      "v": 57
    },
    {
      "midi": 61,
      "hit": false,
      "t": 80106.25,
      "d": 93.75,
      "v": 55
    },
    {
      "midi": 64,
      "hit": false,
      "t": 80106.25,
      "d": 106.25,
      "v": 57
    },
    {
      "midi": 61,
      "hit": false,
      "t": 80406.25,
      "d": 118.75,
      "v": 79
    },
    {
      "midi": 64,
      "hit": false,
      "t": 80406.25,
      "d": 118.75,
      "v": 78
    },
    {
      "midi": 68,
      "hit": false,
      "t": 80406.25,
      "d": 118.75,
      "v": 73
    },
    {
      "midi": 61,
      "hit": false,
      "t": 80706.25,
      "d": 87.5,
      "v": 53
    },
    {
      "midi": 64,
      "hit": false,
      "t": 80706.25,
      "d": 87.5,
      "v": 58
    },
    {
      "midi": 68,
      "hit": false,
      "t": 80706.25,
      "d": 87.5,
      "v": 56
    },
    {
      "midi": 61,
      "hit": false,
      "t": 81006.25,
      "d": 112.5,
      "v": 79
    },
    {
      "midi": 64,
      "hit": false,
      "t": 81006.25,
      "d": 112.5,
      "v": 73
    },
    {
      "midi": 68,
      "hit": false,
      "t": 81006.25,
      "d": 131.25,
      "v": 69
    },
    {
      "midi": 61,
      "hit": false,
      "t": 81306.25,
      "d": 81.25,
      "v": 46
    },
    {
      "midi": 64,
      "hit": false,
      "t": 81306.25,
      "d": 81.25,
      "v": 52
    },
    {
      "midi": 68,
      "hit": false,
      "t": 81306.25,
      "d": 87.5,
      "v": 51
    },
    {
      "midi": 61,
      "hit": false,
      "t": 81606.25,
      "d": 100,
      "v": 81
    },
    {
      "midi": 64,
      "hit": false,
      "t": 81606.25,
      "d": 100,
      "v": 80
    },
    {
      "midi": 68,
      "hit": false,
      "t": 81606.25,
      "d": 118.75,
      "v": 74
    },
    {
      "midi": 64,
      "hit": false,
      "t": 81900,
      "d": 62.5,
      "v": 52
    },
    {
      "midi": 61,
      "hit": false,
      "t": 81900,
      "d": 100,
      "v": 47
    },
    {
      "midi": 68,
      "hit": false,
      "t": 81900,
      "d": 118.75,
      "v": 50
    },
    {
      "midi": 68,
      "hit": false,
      "t": 82200,
      "d": 150,
      "v": 68
    },
    {
      "midi": 61,
      "hit": false,
      "t": 82206.25,
      "d": 100,
      "v": 77
    },
    {
      "midi": 64,
      "hit": false,
      "t": 82206.25,
      "d": 118.75,
      "v": 67
    },
    {
      "midi": 68,
      "hit": false,
      "t": 82506.25,
      "d": 75,
      "v": 53
    },
    {
      "midi": 61,
      "hit": false,
      "t": 82506.25,
      "d": 100,
      "v": 55
    },
    {
      "midi": 64,
      "hit": false,
      "t": 82506.25,
      "d": 100,
      "v": 57
    },
    {
      "midi": 64,
      "hit": false,
      "t": 82806.25,
      "d": 118.75,
      "v": 68
    },
    {
      "midi": 61,
      "hit": false,
      "t": 82806.25,
      "d": 131.25,
      "v": 75
    },
    {
      "midi": 68,
      "hit": false,
      "t": 82806.25,
      "d": 131.25,
      "v": 69
    },
    {
      "midi": 61,
      "hit": false,
      "t": 83100,
      "d": 106.25,
      "v": 54
    },
    {
      "midi": 64,
      "hit": false,
      "t": 83106.25,
      "d": 106.25,
      "v": 59
    },
    {
      "midi": 68,
      "hit": false,
      "t": 83106.25,
      "d": 118.75,
      "v": 51
    },
    {
      "midi": 68,
      "hit": false,
      "t": 83400,
      "d": 137.5,
      "v": 68
    },
    {
      "midi": 61,
      "hit": false,
      "t": 83406.25,
      "d": 112.5,
      "v": 77
    },
    {
      "midi": 64,
      "hit": false,
      "t": 83406.25,
      "d": 112.5,
      "v": 66
    },
    {
      "midi": 68,
      "hit": false,
      "t": 83706.25,
      "d": 106.25,
      "v": 61
    },
    {
      "midi": 64,
      "hit": false,
      "t": 83706.25,
      "d": 112.5,
      "v": 57
    },
    {
      "midi": 61,
      "hit": false,
      "t": 83706.25,
      "d": 131.25,
      "v": 55
    },
    {
      "midi": 52,
      "hit": false,
      "t": 84006.25,
      "d": 687.5,
      "v": 72
    },
    {
      "midi": 56,
      "hit": false,
      "t": 84006.25,
      "d": 987.5,
      "v": 86
    },
    {
      "midi": 59,
      "hit": false,
      "t": 84006.25,
      "d": 1337.5,
      "v": 98
    },
    {
      "midi": 64,
      "hit": false,
      "t": 84006.25,
      "d": 1600,
      "v": 71
    },
    {
      "midi": 68,
      "hit": false,
      "t": 84006.25,
      "d": 2156.25,
      "v": 77
    },
    {
      "midi": 52,
      "hit": false,
      "t": 84900,
      "d": 1181.25,
      "v": 65
    },
    {
      "midi": 56,
      "hit": false,
      "t": 85206.25,
      "d": 843.75,
      "v": 81
    },
    {
      "midi": 59,
      "hit": false,
      "t": 85506.25,
      "d": 425,
      "v": 80
    },
    {
      "midi": 64,
      "hit": false,
      "t": 85806.25,
      "d": 350,
      "v": 66
    },
    {
      "midi": 59,
      "hit": false,
      "t": 86106.25,
      "d": 106.25,
      "v": 66
    },
    {
      "midi": 54,
      "hit": false,
      "t": 86406.25,
      "d": 762.5,
      "v": 73
    },
    {
      "midi": 61,
      "hit": false,
      "t": 86406.25,
      "d": 968.75,
      "v": 83
    },
    {
      "midi": 58,
      "hit": false,
      "t": 86406.25,
      "d": 1000,
      "v": 90
    },
    {
      "midi": 66,
      "hit": false,
      "t": 86406.25,
      "d": 1018.75,
      "v": 74
    },
    {
      "midi": 54,
      "hit": false,
      "t": 87300,
      "d": 1050,
      "v": 77
    },
    {
      "midi": 61,
      "hit": false,
      "t": 87606.25,
      "d": 737.5,
      "v": 86
    },
    {
      "midi": 66,
      "hit": false,
      "t": 87606.25,
      "d": 743.75,
      "v": 79
    },
    {
      "midi": 54,
      "hit": false,
      "t": 88506.25,
      "d": 118.75,
      "v": 58
    },
    {
      "midi": 56,
      "hit": false,
      "t": 88806.25,
      "d": 487.5,
      "v": 76
    },
    {
      "midi": 63,
      "hit": false,
      "t": 88806.25,
      "d": 643.75,
      "v": 71
    },
    {
      "midi": 60,
      "hit": false,
      "t": 88806.25,
      "d": 656.25,
      "v": 72
    },
    {
      "midi": 68,
      "hit": false,
      "t": 88806.25,
      "d": 1343.75,
      "v": 75
    },
    {
      "midi": 56,
      "hit": false,
      "t": 89406.25,
      "d": 743.75,
      "v": 58
    },
    {
      "midi": 56,
      "hit": false,
      "t": 90306.25,
      "d": 406.25,
      "v": 86
    },
    {
      "midi": 60,
      "hit": false,
      "t": 90306.25,
      "d": 450,
      "v": 77
    },
    {
      "midi": 63,
      "hit": false,
      "t": 90306.25,
      "d": 506.25,
      "v": 74
    },
    {
      "midi": 68,
      "hit": false,
      "t": 90306.25,
      "d": 562.5,
      "v": 81
    },
    {
      "midi": 56,
      "hit": false,
      "t": 90906.25,
      "d": 125,
      "v": 65
    },
    {
      "midi": 58,
      "hit": false,
      "t": 91206.25,
      "d": 512.5,
      "v": 81
    },
    {
      "midi": 61,
      "hit": false,
      "t": 91206.25,
      "d": 750,
      "v": 83
    },
    {
      "midi": 54,
      "hit": false,
      "t": 91206.25,
      "d": 781.25,
      "v": 81
    },
    {
      "midi": 66,
      "hit": false,
      "t": 91206.25,
      "d": 1018.75,
      "v": 75
    },
    {
      "midi": 58,
      "hit": false,
      "t": 91806.25,
      "d": 87.5,
      "v": 47
    },
    {
      "midi": 58,
      "hit": false,
      "t": 92100,
      "d": 118.75,
      "v": 43
    },
    {
      "midi": 61,
      "hit": false,
      "t": 92106.25,
      "d": 62.5,
      "v": 34
    },
    {
      "midi": 54,
      "hit": false,
      "t": 92106.25,
      "d": 106.25,
      "v": 51
    },
    {
      "midi": 54,
      "hit": false,
      "t": 92406.25,
      "d": 87.5,
      "v": 68
    },
    {
      "midi": 61,
      "hit": false,
      "t": 92406.25,
      "d": 87.5,
      "v": 66
    },
    {
      "midi": 58,
      "hit": false,
      "t": 92406.25,
      "d": 106.25,
      "v": 64
    },
    {
      "midi": 66,
      "hit": false,
      "t": 92406.25,
      "d": 106.25,
      "v": 62
    },
    {
      "midi": 58,
      "hit": false,
      "t": 92706.25,
      "d": 375,
      "v": 79
    },
    {
      "midi": 61,
      "hit": false,
      "t": 92706.25,
      "d": 462.5,
      "v": 83
    },
    {
      "midi": 54,
      "hit": false,
      "t": 92706.25,
      "d": 493.75,
      "v": 75
    },
    {
      "midi": 66,
      "hit": false,
      "t": 92706.25,
      "d": 518.75,
      "v": 76
    },
    {
      "midi": 58,
      "hit": false,
      "t": 93306.25,
      "d": 93.75,
      "v": 40
    },
    {
      "midi": 56,
      "hit": false,
      "t": 93606.25,
      "d": 450,
      "v": 86
    },
    {
      "midi": 59,
      "hit": false,
      "t": 93606.25,
      "d": 462.5,
      "v": 72
    },
    {
      "midi": 64,
      "hit": false,
      "t": 93606.25,
      "d": 481.25,
      "v": 71
    },
    {
      "midi": 52,
      "hit": false,
      "t": 93606.25,
      "d": 1262.5,
      "v": 98
    },
    {
      "midi": 56,
      "hit": false,
      "t": 94206.25,
      "d": 431.25,
      "v": 79
    },
    {
      "midi": 59,
      "hit": false,
      "t": 94206.25,
      "d": 987.5,
      "v": 72
    },
    {
      "midi": 64,
      "hit": false,
      "t": 94206.25,
      "d": 987.5,
      "v": 69
    },
    {
      "midi": 56,
      "hit": false,
      "t": 94800,
      "d": 387.5,
      "v": 54
    },
    {
      "midi": 52,
      "hit": false,
      "t": 95106.25,
      "d": 506.25,
      "v": 66
    },
    {
      "midi": 56,
      "hit": false,
      "t": 95406.25,
      "d": 212.5,
      "v": 81
    },
    {
      "midi": 64,
      "hit": false,
      "t": 95406.25,
      "d": 306.25,
      "v": 69
    },
    {
      "midi": 59,
      "hit": false,
      "t": 95406.25,
      "d": 375,
      "v": 75
    },
    {
      "midi": 56,
      "hit": false,
      "t": 95706.25,
      "d": 112.5,
      "v": 60
    },
    {
      "midi": 58,
      "hit": false,
      "t": 96006.25,
      "d": 506.25,
      "v": 98
    },
    {
      "midi": 66,
      "hit": false,
      "t": 96006.25,
      "d": 625,
      "v": 77
    },
    {
      "midi": 61,
      "hit": false,
      "t": 96006.25,
      "d": 668.75,
      "v": 86
    },
    {
      "midi": 54,
      "hit": false,
      "t": 96006.25,
      "d": 687.5,
      "v": 94
    },
    {
      "midi": 58,
      "hit": false,
      "t": 96600,
      "d": 112.5,
      "v": 62
    },
    {
      "midi": 52,
      "hit": false,
      "t": 97206.25,
      "d": 600,
      "v": 77
    },
    {
      "midi": 61,
      "hit": false,
      "t": 97206.25,
      "d": 600,
      "v": 94
    },
    {
      "midi": 57,
      "hit": false,
      "t": 97206.25,
      "d": 606.25,
      "v": 75
    },
    {
      "midi": 64,
      "hit": false,
      "t": 97206.25,
      "d": 625,
      "v": 77
    },
    {
      "midi": 56,
      "hit": false,
      "t": 98406.25,
      "d": 1.5625,
      "v": 94
    },
    {
      "midi": 61,
      "hit": false,
      "t": 98406.25,
      "d": 6.25,
      "v": 83
    },
    {
      "midi": 68,
      "hit": false,
      "t": 98406.25,
      "d": 325,
      "v": 68
    },
    {
      "midi": 64,
      "hit": false,
      "t": 98406.25,
      "d": 350,
      "v": 73
    },
    {
      "midi": 59,
      "hit": false,
      "t": 98406.25,
      "d": 393.75,
      "v": 70
    },
    {
      "midi": 49,
      "hit": false,
      "t": 98406.25,
      "d": 1912.5,
      "v": 111
    },
    {
      "midi": 61,
      "hit": false,
      "t": 98412.5,
      "d": 343.75,
      "v": 71
    },
    {
      "midi": 56,
      "hit": false,
      "t": 98700,
      "d": 87.5,
      "v": 75
    },
    {
      "midi": 66,
      "hit": false,
      "t": 99000,
      "d": 443.75,
      "v": 94
    },
    {
      "midi": 61,
      "hit": false,
      "t": 99006.25,
      "d": 412.5,
      "v": 98
    },
    {
      "midi": 70,
      "hit": false,
      "t": 99006.25,
      "d": 437.5,
      "v": 86
    },
    {
      "midi": 56,
      "hit": false,
      "t": 99450,
      "d": 81.25,
      "v": 77
    },
    {
      "midi": 61,
      "hit": false,
      "t": 99606.25,
      "d": 750,
      "v": 83
    },
    {
      "midi": 68,
      "hit": false,
      "t": 99606.25,
      "d": 1218.75,
      "v": 70
    },
    {
      "midi": 64,
      "hit": false,
      "t": 99606.25,
      "d": 1237.5,
      "v": 80
    },
    {
      "midi": 61,
      "hit": false,
      "t": 100506.25,
      "d": 331.25,
      "v": 65
    },
    {
      "midi": 56,
      "hit": false,
      "t": 100806.25,
      "d": 106.25,
      "v": 86
    },
    {
      "midi": 56,
      "hit": false,
      "t": 101106.25,
      "d": 93.75,
      "v": 98
    },
    {
      "midi": 70,
      "hit": false,
      "t": 101400,
      "d": 450,
      "v": 77
    },
    {
      "midi": 66,
      "hit": false,
      "t": 101406.25,
      "d": 181.25,
      "v": 83
    },
    {
      "midi": 61,
      "hit": false,
      "t": 101406.25,
      "d": 406.25,
      "v": 94
    },
    {
      "midi": 66,
      "hit": false,
      "t": 101706.25,
      "d": 137.5,
      "v": 49
    },
    {
      "midi": 56,
      "hit": false,
      "t": 101850,
      "d": 75,
      "v": 94
    },
    {
      "midi": 61,
      "hit": false,
      "t": 102006.25,
      "d": 731.25,
      "v": 86
    },
    {
      "midi": 64,
      "hit": false,
      "t": 102006.25,
      "d": 743.75,
      "v": 75
    },
    {
      "midi": 68,
      "hit": false,
      "t": 102006.25,
      "d": 743.75,
      "v": 71
    },
    {
      "midi": 59,
      "hit": false,
      "t": 103206.25,
      "d": 768.75,
      "v": 80
    },
    {
      "midi": 57,
      "hit": false,
      "t": 103206.25,
      "d": 1656.25,
      "v": 82
    },
    {
      "midi": 64,
      "hit": false,
      "t": 103206.25,
      "d": 1681.25,
      "v": 78
    },
    {
      "midi": 61,
      "hit": false,
      "t": 103206.25,
      "d": 1731.25,
      "v": 90
    },
    {
      "midi": 57,
      "hit": false,
      "t": 105306.25,
      "d": 437.5,
      "v": 34
    },
    {
      "midi": 57,
      "hit": false,
      "t": 105906.25,
      "d": 487.5,
      "v": 75
    },
    {
      "midi": 64,
      "hit": false,
      "t": 105906.25,
      "d": 500,
      "v": 72
    },
    {
      "midi": 69,
      "hit": false,
      "t": 105906.25,
      "d": 512.5,
      "v": 80
    },
    {
      "midi": 69,
      "hit": false,
      "t": 106506.25,
      "d": 62.5,
      "v": 25
    },
    {
      "midi": 57,
      "hit": false,
      "t": 106506.25,
      "d": 81.25,
      "v": 38
    },
    {
      "midi": 64,
      "hit": false,
      "t": 106506.25,
      "d": 81.25,
      "v": 26
    },
    {
      "midi": 69,
      "hit": false,
      "t": 106806.25,
      "d": 643.75,
      "v": 78
    },
    {
      "midi": 64,
      "hit": false,
      "t": 106806.25,
      "d": 681.25,
      "v": 75
    },
    {
      "midi": 57,
      "hit": false,
      "t": 106806.25,
      "d": 712.5,
      "v": 73
    },
    {
      "midi": 56,
      "hit": false,
      "t": 108006.25,
      "d": 68.75,
      "v": 79
    },
    {
      "midi": 68,
      "hit": false,
      "t": 108006.25,
      "d": 156.25,
      "v": 59
    },
    {
      "midi": 64,
      "hit": false,
      "t": 108006.25,
      "d": 168.75,
      "v": 53
    },
    {
      "midi": 61,
      "hit": false,
      "t": 108006.25,
      "d": 337.5,
      "v": 49
    },
    {
      "midi": 56,
      "hit": false,
      "t": 108306.25,
      "d": 268.75,
      "v": 76
    },
    {
      "midi": 66,
      "hit": false,
      "t": 108600,
      "d": 475,
      "v": 81
    },
    {
      "midi": 61,
      "hit": false,
      "t": 108606.25,
      "d": 425,
      "v": 90
    },
    {
      "midi": 70,
      "hit": false,
      "t": 108606.25,
      "d": 456.25,
      "v": 76
    },
    {
      "midi": 61,
      "hit": false,
      "t": 109206.25,
      "d": 468.75,
      "v": 79
    },
    {
      "midi": 64,
      "hit": false,
      "t": 109206.25,
      "d": 481.25,
      "v": 72
    },
    {
      "midi": 68,
      "hit": false,
      "t": 109206.25,
      "d": 781.25,
      "v": 69
    },
    {
      "midi": 61,
      "hit": false,
      "t": 109806.25,
      "d": 125,
      "v": 54
    },
    {
      "midi": 64,
      "hit": false,
      "t": 109806.25,
      "d": 143.75,
      "v": 34
    },
    {
      "midi": 61,
      "hit": false,
      "t": 110106.25,
      "d": 87.5,
      "v": 48
    },
    {
      "midi": 64,
      "hit": false,
      "t": 110106.25,
      "d": 87.5,
      "v": 38
    },
    {
      "midi": 68,
      "hit": false,
      "t": 110106.25,
      "d": 87.5,
      "v": 29
    },
    {
      "midi": 56,
      "hit": false,
      "t": 110250,
      "d": 112.5,
      "v": 67
    },
    {
      "midi": 64,
      "hit": false,
      "t": 110406.25,
      "d": 106.25,
      "v": 70
    },
    {
      "midi": 61,
      "hit": false,
      "t": 110406.25,
      "d": 118.75,
      "v": 75
    },
    {
      "midi": 68,
      "hit": false,
      "t": 110406.25,
      "d": 137.5,
      "v": 65
    },
    {
      "midi": 68,
      "hit": false,
      "t": 110700,
      "d": 156.25,
      "v": 70
    },
    {
      "midi": 61,
      "hit": false,
      "t": 110706.25,
      "d": 106.25,
      "v": 76
    },
    {
      "midi": 64,
      "hit": false,
      "t": 110706.25,
      "d": 106.25,
      "v": 77
    },
    {
      "midi": 61,
      "hit": false,
      "t": 111000,
      "d": 300,
      "v": 94
    },
    {
      "midi": 66,
      "hit": false,
      "t": 111006.25,
      "d": 456.25,
      "v": 79
    },
    {
      "midi": 70,
      "hit": false,
      "t": 111006.25,
      "d": 462.5,
      "v": 77
    },
    {
      "midi": 61,
      "hit": false,
      "t": 111306.25,
      "d": 75,
      "v": 27
    },
    {
      "midi": 56,
      "hit": false,
      "t": 111450,
      "d": 75,
      "v": 76
    },
    {
      "midi": 61,
      "hit": false,
      "t": 111606.25,
      "d": 450,
      "v": 90
    },
    {
      "midi": 68,
      "hit": false,
      "t": 111606.25,
      "d": 837.5,
      "v": 70
    },
    {
      "midi": 64,
      "hit": false,
      "t": 111606.25,
      "d": 881.25,
      "v": 80
    },
    {
      "midi": 56,
      "hit": false,
      "t": 111906.25,
      "d": 356.25,
      "v": 77
    },
    {
      "midi": 61,
      "hit": false,
      "t": 112206.25,
      "d": 262.5,
      "v": 74
    },
    {
      "midi": 56,
      "hit": false,
      "t": 112506.25,
      "d": 193.75,
      "v": 75
    },
    {
      "midi": 64,
      "hit": false,
      "t": 112806.25,
      "d": 487.5,
      "v": 80
    },
    {
      "midi": 69,
      "hit": false,
      "t": 112806.25,
      "d": 537.5,
      "v": 82
    },
    {
      "midi": 57,
      "hit": false,
      "t": 112806.25,
      "d": 700,
      "v": 94
    },
    {
      "midi": 69,
      "hit": false,
      "t": 113406.25,
      "d": 75,
      "v": 41
    },
    {
      "midi": 64,
      "hit": false,
      "t": 113406.25,
      "d": 100,
      "v": 51
    },
    {
      "midi": 57,
      "hit": false,
      "t": 113706.25,
      "d": 518.75,
      "v": 82
    },
    {
      "midi": 64,
      "hit": false,
      "t": 113706.25,
      "d": 1618.75,
      "v": 78
    },
    {
      "midi": 69,
      "hit": false,
      "t": 113706.25,
      "d": 1618.75,
      "v": 75
    },
    {
      "midi": 57,
      "hit": false,
      "t": 114306.25,
      "d": 712.5,
      "v": 56
    },
    {
      "midi": 61,
      "hit": false,
      "t": 114906.25,
      "d": 350,
      "v": 62
    },
    {
      "midi": 57,
      "hit": false,
      "t": 115206.25,
      "d": 175,
      "v": 72
    },
    {
      "midi": 61,
      "hit": false,
      "t": 115500,
      "d": 750,
      "v": 81
    },
    {
      "midi": 69,
      "hit": false,
      "t": 115500,
      "d": 793.75,
      "v": 80
    },
    {
      "midi": 57,
      "hit": false,
      "t": 115506.25,
      "d": 425,
      "v": 87
    },
    {
      "midi": 66,
      "hit": false,
      "t": 115506.25,
      "d": 768.75,
      "v": 75
    },
    {
      "midi": 64,
      "hit": false,
      "t": 115506.25,
      "d": 793.75,
      "v": 73
    },
    {
      "midi": 57,
      "hit": false,
      "t": 116106.25,
      "d": 431.25,
      "v": 77
    },
    {
      "midi": 61,
      "hit": false,
      "t": 116406.25,
      "d": 418.75,
      "v": 75
    },
    {
      "midi": 69,
      "hit": false,
      "t": 116406.25,
      "d": 750,
      "v": 71
    },
    {
      "midi": 64,
      "hit": false,
      "t": 116406.25,
      "d": 762.5,
      "v": 70
    },
    {
      "midi": 66,
      "hit": false,
      "t": 116406.25,
      "d": 762.5,
      "v": 75
    },
    {
      "midi": 57,
      "hit": false,
      "t": 116706.25,
      "d": 368.75,
      "v": 73
    },
    {
      "midi": 61,
      "hit": false,
      "t": 117000,
      "d": 262.5,
      "v": 83
    },
    {
      "midi": 57,
      "hit": false,
      "t": 117306.25,
      "d": 200,
      "v": 77
    },
    {
      "midi": 58,
      "hit": false,
      "t": 117606.25,
      "d": 43.75,
      "v": 90
    },
    {
      "midi": 59,
      "hit": false,
      "t": 117606.25,
      "d": 68.75,
      "v": 67
    },
    {
      "midi": 63,
      "hit": false,
      "t": 117606.25,
      "d": 231.25,
      "v": 83
    },
    {
      "midi": 61,
      "hit": false,
      "t": 117606.25,
      "d": 775,
      "v": 98
    },
    {
      "midi": 66,
      "hit": false,
      "t": 117606.25,
      "d": 775,
      "v": 90
    },
    {
      "midi": 63,
      "hit": false,
      "t": 117906.25,
      "d": 443.75,
      "v": 29
    },
    {
      "midi": 58,
      "hit": false,
      "t": 117906.25,
      "d": 456.25,
      "v": 81
    },
    {
      "midi": 63,
      "hit": false,
      "t": 118506.25,
      "d": 425,
      "v": 81
    },
    {
      "midi": 58,
      "hit": false,
      "t": 118506.25,
      "d": 431.25,
      "v": 83
    },
    {
      "midi": 61,
      "hit": false,
      "t": 118506.25,
      "d": 450,
      "v": 86
    },
    {
      "midi": 66,
      "hit": false,
      "t": 118506.25,
      "d": 468.75,
      "v": 83
    },
    {
      "midi": 63,
      "hit": false,
      "t": 119106.25,
      "d": 593.75,
      "v": 76
    },
    {
      "midi": 61,
      "hit": false,
      "t": 119106.25,
      "d": 643.75,
      "v": 86
    },
    {
      "midi": 66,
      "hit": false,
      "t": 119106.25,
      "d": 643.75,
      "v": 83
    },
    {
      "midi": 58,
      "hit": false,
      "t": 119106.25,
      "d": 662.5,
      "v": 83
    },
    {
      "midi": 50,
      "hit": false,
      "t": 120306.25,
      "d": 393.75,
      "v": 108
    },
    {
      "midi": 67,
      "hit": false,
      "t": 120306.25,
      "d": 412.5,
      "v": 94
    },
    {
      "midi": 57,
      "hit": false,
      "t": 120306.25,
      "d": 418.75,
      "v": 90
    },
    {
      "midi": 60,
      "hit": false,
      "t": 120306.25,
      "d": 437.5,
      "v": 87
    },
    {
      "midi": 64,
      "hit": false,
      "t": 120306.25,
      "d": 456.25,
      "v": 80
    },
    {
      "midi": 50,
      "hit": false,
      "t": 120906.25,
      "d": 406.25,
      "v": 98
    },
    {
      "midi": 67,
      "hit": false,
      "t": 120906.25,
      "d": 425,
      "v": 94
    },
    {
      "midi": 57,
      "hit": false,
      "t": 120906.25,
      "d": 431.25,
      "v": 87
    },
    {
      "midi": 60,
      "hit": false,
      "t": 120906.25,
      "d": 450,
      "v": 80
    },
    {
      "midi": 64,
      "hit": false,
      "t": 120906.25,
      "d": 450,
      "v": 77
    },
    {
      "midi": 50,
      "hit": false,
      "t": 121506.25,
      "d": 362.5,
      "v": 94
    },
    {
      "midi": 57,
      "hit": false,
      "t": 121506.25,
      "d": 412.5,
      "v": 82
    },
    {
      "midi": 67,
      "hit": false,
      "t": 121506.25,
      "d": 443.75,
      "v": 94
    },
    {
      "midi": 60,
      "hit": false,
      "t": 121506.25,
      "d": 456.25,
      "v": 85
    },
    {
      "midi": 64,
      "hit": false,
      "t": 121506.25,
      "d": 487.5,
      "v": 80
    },
    {
      "midi": 67,
      "hit": false,
      "t": 122106.25,
      "d": 162.5,
      "v": 85
    },
    {
      "midi": 64,
      "hit": false,
      "t": 122106.25,
      "d": 193.75,
      "v": 67
    },
    {
      "midi": 57,
      "hit": false,
      "t": 122106.25,
      "d": 206.25,
      "v": 73
    },
    {
      "midi": 60,
      "hit": false,
      "t": 122106.25,
      "d": 212.5,
      "v": 72
    },
    {
      "midi": 50,
      "hit": false,
      "t": 122106.25,
      "d": 225,
      "v": 94
    },
    {
      "midi": 64,
      "hit": false,
      "t": 122406.25,
      "d": 93.75,
      "v": 80
    },
    {
      "midi": 68,
      "hit": false,
      "t": 122406.25,
      "d": 93.75,
      "v": 76
    },
    {
      "midi": 61,
      "hit": false,
      "t": 122406.25,
      "d": 112.5,
      "v": 81
    },
    {
      "midi": 49,
      "hit": false,
      "t": 122406.25,
      "d": 937.5,
      "v": 98
    },
    {
      "midi": 64,
      "hit": false,
      "t": 122700,
      "d": 87.5,
      "v": 65
    },
    {
      "midi": 68,
      "hit": false,
      "t": 122700,
      "d": 87.5,
      "v": 58
    },
    {
      "midi": 61,
      "hit": false,
      "t": 122706.25,
      "d": 87.5,
      "v": 55
    },
    {
      "midi": 70,
      "hit": false,
      "t": 123000,
      "d": 181.25,
      "v": 77
    },
    {
      "midi": 66,
      "hit": false,
      "t": 123006.25,
      "d": 156.25,
      "v": 94
    },
    {
      "midi": 61,
      "hit": false,
      "t": 123006.25,
      "d": 175,
      "v": 98
    },
    {
      "midi": 61,
      "hit": false,
      "t": 123306.25,
      "d": 87.5,
      "v": 58
    },
    {
      "midi": 66,
      "hit": false,
      "t": 123306.25,
      "d": 100,
      "v": 56
    },
    {
      "midi": 70,
      "hit": false,
      "t": 123306.25,
      "d": 106.25,
      "v": 51
    },
    {
      "midi": 61,
      "hit": false,
      "t": 123606.25,
      "d": 87.5,
      "v": 71
    },
    {
      "midi": 64,
      "hit": false,
      "t": 123606.25,
      "d": 100,
      "v": 68
    },
    {
      "midi": 68,
      "hit": false,
      "t": 123606.25,
      "d": 100,
      "v": 65
    },
    {
      "midi": 64,
      "hit": false,
      "t": 123906.25,
      "d": 100,
      "v": 50
    },
    {
      "midi": 68,
      "hit": false,
      "t": 123906.25,
      "d": 100,
      "v": 50
    },
    {
      "midi": 61,
      "hit": false,
      "t": 123906.25,
      "d": 106.25,
      "v": 49
    },
    {
      "midi": 61,
      "hit": false,
      "t": 124206.25,
      "d": 100,
      "v": 73
    },
    {
      "midi": 64,
      "hit": false,
      "t": 124206.25,
      "d": 100,
      "v": 70
    },
    {
      "midi": 68,
      "hit": false,
      "t": 124206.25,
      "d": 100,
      "v": 66
    },
    {
      "midi": 64,
      "hit": false,
      "t": 124506.25,
      "d": 68.75,
      "v": 48
    },
    {
      "midi": 68,
      "hit": false,
      "t": 124506.25,
      "d": 68.75,
      "v": 44
    },
    {
      "midi": 61,
      "hit": false,
      "t": 124506.25,
      "d": 93.75,
      "v": 57
    },
    {
      "midi": 58,
      "hit": false,
      "t": 124806.25,
      "d": 87.5,
      "v": 81
    },
    {
      "midi": 61,
      "hit": false,
      "t": 124806.25,
      "d": 87.5,
      "v": 81
    },
    {
      "midi": 66,
      "hit": false,
      "t": 124806.25,
      "d": 106.25,
      "v": 76
    },
    {
      "midi": 58,
      "hit": false,
      "t": 125100,
      "d": 81.25,
      "v": 54
    },
    {
      "midi": 61,
      "hit": false,
      "t": 125100,
      "d": 81.25,
      "v": 59
    },
    {
      "midi": 66,
      "hit": false,
      "t": 125100,
      "d": 81.25,
      "v": 53
    },
    {
      "midi": 61,
      "hit": false,
      "t": 125400,
      "d": 118.75,
      "v": 86
    },
    {
      "midi": 66,
      "hit": false,
      "t": 125400,
      "d": 150,
      "v": 76
    },
    {
      "midi": 58,
      "hit": false,
      "t": 125406.25,
      "d": 93.75,
      "v": 86
    },
    {
      "midi": 58,
      "hit": false,
      "t": 125706.25,
      "d": 75,
      "v": 51
    },
    {
      "midi": 61,
      "hit": false,
      "t": 125706.25,
      "d": 75,
      "v": 53
    },
    {
      "midi": 66,
      "hit": false,
      "t": 125706.25,
      "d": 75,
      "v": 51
    },
    {
      "midi": 61,
      "hit": false,
      "t": 126006.25,
      "d": 75,
      "v": 75
    },
    {
      "midi": 66,
      "hit": false,
      "t": 126006.25,
      "d": 87.5,
      "v": 71
    },
    {
      "midi": 58,
      "hit": false,
      "t": 126006.25,
      "d": 93.75,
      "v": 75
    },
    {
      "midi": 58,
      "hit": false,
      "t": 126306.25,
      "d": 75,
      "v": 53
    },
    {
      "midi": 61,
      "hit": false,
      "t": 126306.25,
      "d": 75,
      "v": 58
    },
    {
      "midi": 66,
      "hit": false,
      "t": 126306.25,
      "d": 75,
      "v": 58
    },
    {
      "midi": 58,
      "hit": false,
      "t": 126606.25,
      "d": 87.5,
      "v": 77
    },
    {
      "midi": 61,
      "hit": false,
      "t": 126606.25,
      "d": 87.5,
      "v": 79
    },
    {
      "midi": 66,
      "hit": false,
      "t": 126606.25,
      "d": 106.25,
      "v": 75
    },
    {
      "midi": 66,
      "hit": false,
      "t": 126906.25,
      "d": 43.75,
      "v": 51
    },
    {
      "midi": 58,
      "hit": false,
      "t": 126906.25,
      "d": 75,
      "v": 44
    },
    {
      "midi": 61,
      "hit": false,
      "t": 126906.25,
      "d": 75,
      "v": 44
    },
    {
      "midi": 61,
      "hit": false,
      "t": 127206.25,
      "d": 100,
      "v": 59
    },
    {
      "midi": 64,
      "hit": false,
      "t": 127206.25,
      "d": 100,
      "v": 65
    },
    {
      "midi": 68,
      "hit": false,
      "t": 127206.25,
      "d": 100,
      "v": 62
    },
    {
      "midi": 61,
      "hit": false,
      "t": 127500,
      "d": 93.75,
      "v": 52
    },
    {
      "midi": 68,
      "hit": false,
      "t": 127500,
      "d": 93.75,
      "v": 44
    },
    {
      "midi": 64,
      "hit": false,
      "t": 127506.25,
      "d": 56.25,
      "v": 55
    },
    {
      "midi": 70,
      "hit": false,
      "t": 127800,
      "d": 487.5,
      "v": 76
    },
    {
      "midi": 61,
      "hit": false,
      "t": 127806.25,
      "d": 437.5,
      "v": 90
    },
    {
      "midi": 66,
      "hit": false,
      "t": 127806.25,
      "d": 518.75,
      "v": 86
    },
    {
      "midi": 61,
      "hit": false,
      "t": 128406.25,
      "d": 81.25,
      "v": 69
    },
    {
      "midi": 64,
      "hit": false,
      "t": 128406.25,
      "d": 81.25,
      "v": 61
    },
    {
      "midi": 68,
      "hit": false,
      "t": 128406.25,
      "d": 81.25,
      "v": 58
    },
    {
      "midi": 68,
      "hit": false,
      "t": 128706.25,
      "d": 62.5,
      "v": 50
    },
    {
      "midi": 61,
      "hit": false,
      "t": 128706.25,
      "d": 68.75,
      "v": 51
    },
    {
      "midi": 64,
      "hit": false,
      "t": 128706.25,
      "d": 87.5,
      "v": 55
    },
    {
      "midi": 64,
      "hit": false,
      "t": 129006.25,
      "d": 81.25,
      "v": 68
    },
    {
      "midi": 61,
      "hit": false,
      "t": 129006.25,
      "d": 100,
      "v": 76
    },
    {
      "midi": 68,
      "hit": false,
      "t": 129006.25,
      "d": 100,
      "v": 64
    },
    {
      "midi": 61,
      "hit": false,
      "t": 129306.25,
      "d": 87.5,
      "v": 47
    },
    {
      "midi": 64,
      "hit": false,
      "t": 129306.25,
      "d": 87.5,
      "v": 50
    },
    {
      "midi": 68,
      "hit": false,
      "t": 129306.25,
      "d": 87.5,
      "v": 52
    },
    {
      "midi": 64,
      "hit": false,
      "t": 129606.25,
      "d": 75,
      "v": 70
    },
    {
      "midi": 61,
      "hit": false,
      "t": 129606.25,
      "d": 93.75,
      "v": 73
    },
    {
      "midi": 68,
      "hit": false,
      "t": 129606.25,
      "d": 93.75,
      "v": 64
    },
    {
      "midi": 61,
      "hit": false,
      "t": 129900,
      "d": 81.25,
      "v": 62
    },
    {
      "midi": 68,
      "hit": false,
      "t": 129900,
      "d": 100,
      "v": 56
    },
    {
      "midi": 64,
      "hit": false,
      "t": 129906.25,
      "d": 75,
      "v": 61
    },
    {
      "midi": 66,
      "hit": false,
      "t": 130200,
      "d": 212.5,
      "v": 74
    },
    {
      "midi": 61,
      "hit": false,
      "t": 130206.25,
      "d": 100,
      "v": 76
    },
    {
      "midi": 70,
      "hit": false,
      "t": 130206.25,
      "d": 193.75,
      "v": 68
    },
    {
      "midi": 61,
      "hit": false,
      "t": 130506.25,
      "d": 75,
      "v": 56
    },
    {
      "midi": 66,
      "hit": false,
      "t": 130506.25,
      "d": 93.75,
      "v": 64
    },
    {
      "midi": 70,
      "hit": false,
      "t": 130506.25,
      "d": 106.25,
      "v": 47
    },
    {
      "midi": 61,
      "hit": false,
      "t": 130806.25,
      "d": 87.5,
      "v": 66
    },
    {
      "midi": 64,
      "hit": false,
      "t": 130806.25,
      "d": 87.5,
      "v": 63
    },
    {
      "midi": 68,
      "hit": false,
      "t": 130806.25,
      "d": 87.5,
      "v": 65
    },
    {
      "midi": 61,
      "hit": false,
      "t": 131106.25,
      "d": 87.5,
      "v": 51
    },
    {
      "midi": 64,
      "hit": false,
      "t": 131106.25,
      "d": 87.5,
      "v": 54
    },
    {
      "midi": 68,
      "hit": false,
      "t": 131106.25,
      "d": 87.5,
      "v": 54
    },
    {
      "midi": 64,
      "hit": false,
      "t": 131406.25,
      "d": 87.5,
      "v": 72
    },
    {
      "midi": 68,
      "hit": false,
      "t": 131406.25,
      "d": 87.5,
      "v": 70
    },
    {
      "midi": 61,
      "hit": false,
      "t": 131406.25,
      "d": 93.75,
      "v": 75
    },
    {
      "midi": 68,
      "hit": false,
      "t": 131706.25,
      "d": 37.5,
      "v": 50
    },
    {
      "midi": 64,
      "hit": false,
      "t": 131706.25,
      "d": 68.75,
      "v": 56
    },
    {
      "midi": 61,
      "hit": false,
      "t": 131706.25,
      "d": 93.75,
      "v": 52
    },
    {
      "midi": 61,
      "hit": false,
      "t": 132006.25,
      "d": 93.75,
      "v": 75
    },
    {
      "midi": 64,
      "hit": false,
      "t": 132006.25,
      "d": 93.75,
      "v": 72
    },
    {
      "midi": 68,
      "hit": false,
      "t": 132006.25,
      "d": 93.75,
      "v": 69
    },
    {
      "midi": 64,
      "hit": false,
      "t": 132300,
      "d": 81.25,
      "v": 55
    },
    {
      "midi": 68,
      "hit": false,
      "t": 132300,
      "d": 81.25,
      "v": 51
    },
    {
      "midi": 61,
      "hit": false,
      "t": 132306.25,
      "d": 75,
      "v": 53
    },
    {
      "midi": 61,
      "hit": false,
      "t": 132600,
      "d": 87.5,
      "v": 79
    },
    {
      "midi": 66,
      "hit": false,
      "t": 132606.25,
      "d": 68.75,
      "v": 73
    },
    {
      "midi": 70,
      "hit": false,
      "t": 132606.25,
      "d": 100,
      "v": 74
    },
    {
      "midi": 61,
      "hit": false,
      "t": 132906.25,
      "d": 93.75,
      "v": 50
    },
    {
      "midi": 66,
      "hit": false,
      "t": 132906.25,
      "d": 93.75,
      "v": 58
    },
    {
      "midi": 70,
      "hit": false,
      "t": 132906.25,
      "d": 93.75,
      "v": 47
    },
    {
      "midi": 61,
      "hit": false,
      "t": 133206.25,
      "d": 93.75,
      "v": 62
    },
    {
      "midi": 64,
      "hit": false,
      "t": 133206.25,
      "d": 93.75,
      "v": 63
    },
    {
      "midi": 68,
      "hit": false,
      "t": 133206.25,
      "d": 100,
      "v": 60
    },
    {
      "midi": 68,
      "hit": false,
      "t": 133506.25,
      "d": 56.25,
      "v": 51
    },
    {
      "midi": 64,
      "hit": false,
      "t": 133506.25,
      "d": 87.5,
      "v": 52
    },
    {
      "midi": 61,
      "hit": false,
      "t": 133506.25,
      "d": 93.75,
      "v": 47
    },
    {
      "midi": 64,
      "hit": false,
      "t": 133806.25,
      "d": 81.25,
      "v": 73
    },
    {
      "midi": 61,
      "hit": false,
      "t": 133806.25,
      "d": 118.75,
      "v": 74
    },
    {
      "midi": 68,
      "hit": false,
      "t": 133806.25,
      "d": 118.75,
      "v": 71
    },
    {
      "midi": 64,
      "hit": false,
      "t": 134106.25,
      "d": 68.75,
      "v": 56
    },
    {
      "midi": 68,
      "hit": false,
      "t": 134106.25,
      "d": 75,
      "v": 58
    },
    {
      "midi": 61,
      "hit": false,
      "t": 134106.25,
      "d": 93.75,
      "v": 56
    },
    {
      "midi": 61,
      "hit": false,
      "t": 134406.25,
      "d": 87.5,
      "v": 81
    },
    {
      "midi": 58,
      "hit": false,
      "t": 134406.25,
      "d": 106.25,
      "v": 77
    },
    {
      "midi": 66,
      "hit": false,
      "t": 134406.25,
      "d": 112.5,
      "v": 73
    },
    {
      "midi": 58,
      "hit": false,
      "t": 134700,
      "d": 93.75,
      "v": 54
    },
    {
      "midi": 66,
      "hit": false,
      "t": 134700,
      "d": 93.75,
      "v": 58
    },
    {
      "midi": 61,
      "hit": false,
      "t": 134706.25,
      "d": 56.25,
      "v": 60
    },
    {
      "midi": 58,
      "hit": false,
      "t": 135000,
      "d": 100,
      "v": 81
    },
    {
      "midi": 61,
      "hit": false,
      "t": 135006.25,
      "d": 75,
      "v": 86
    },
    {
      "midi": 66,
      "hit": false,
      "t": 135006.25,
      "d": 106.25,
      "v": 76
    },
    {
      "midi": 66,
      "hit": false,
      "t": 135306.25,
      "d": 62.5,
      "v": 53
    },
    {
      "midi": 58,
      "hit": false,
      "t": 135306.25,
      "d": 87.5,
      "v": 52
    },
    {
      "midi": 61,
      "hit": false,
      "t": 135306.25,
      "d": 93.75,
      "v": 54
    },
    {
      "midi": 61,
      "hit": false,
      "t": 135606.25,
      "d": 75,
      "v": 75
    },
    {
      "midi": 58,
      "hit": false,
      "t": 135606.25,
      "d": 87.5,
      "v": 74
    },
    {
      "midi": 66,
      "hit": false,
      "t": 135606.25,
      "d": 93.75,
      "v": 71
    },
    {
      "midi": 61,
      "hit": false,
      "t": 135906.25,
      "d": 75,
      "v": 58
    },
    {
      "midi": 66,
      "hit": false,
      "t": 135906.25,
      "d": 75,
      "v": 53
    },
    {
      "midi": 58,
      "hit": false,
      "t": 135906.25,
      "d": 81.25,
      "v": 55
    },
    {
      "midi": 58,
      "hit": false,
      "t": 136206.25,
      "d": 125,
      "v": 76
    },
    {
      "midi": 61,
      "hit": false,
      "t": 136206.25,
      "d": 131.25,
      "v": 83
    },
    {
      "midi": 66,
      "hit": false,
      "t": 136206.25,
      "d": 143.75,
      "v": 75
    },
    {
      "midi": 61,
      "hit": false,
      "t": 136506.25,
      "d": 93.75,
      "v": 50
    },
    {
      "midi": 58,
      "hit": false,
      "t": 136506.25,
      "d": 150,
      "v": 54
    },
    {
      "midi": 66,
      "hit": false,
      "t": 136506.25,
      "d": 193.75,
      "v": 51
    },
    {
      "midi": 56,
      "hit": false,
      "t": 136806.25,
      "d": 87.5,
      "v": 76
    },
    {
      "midi": 61,
      "hit": false,
      "t": 136806.25,
      "d": 87.5,
      "v": 68
    },
    {
      "midi": 64,
      "hit": false,
      "t": 136806.25,
      "d": 87.5,
      "v": 61
    },
    {
      "midi": 68,
      "hit": false,
      "t": 136806.25,
      "d": 112.5,
      "v": 49
    },
    {
      "midi": 61,
      "hit": false,
      "t": 137100,
      "d": 56.25,
      "v": 68
    },
    {
      "midi": 56,
      "hit": false,
      "t": 137100,
      "d": 75,
      "v": 68
    },
    {
      "midi": 68,
      "hit": false,
      "t": 137100,
      "d": 93.75,
      "v": 61
    },
    {
      "midi": 64,
      "hit": false,
      "t": 137106.25,
      "d": 50,
      "v": 57
    },
    {
      "midi": 61,
      "hit": false,
      "t": 137400,
      "d": 431.25,
      "v": 83
    },
    {
      "midi": 70,
      "hit": false,
      "t": 137406.25,
      "d": 481.25,
      "v": 74
    },
    {
      "midi": 66,
      "hit": false,
      "t": 137406.25,
      "d": 487.5,
      "v": 73
    },
    {
      "midi": 61,
      "hit": false,
      "t": 138006.25,
      "d": 81.25,
      "v": 65
    },
    {
      "midi": 64,
      "hit": false,
      "t": 138006.25,
      "d": 100,
      "v": 66
    },
    {
      "midi": 68,
      "hit": false,
      "t": 138006.25,
      "d": 112.5,
      "v": 63
    },
    {
      "midi": 68,
      "hit": false,
      "t": 138306.25,
      "d": 62.5,
      "v": 51
    },
    {
      "midi": 61,
      "hit": false,
      "t": 138306.25,
      "d": 87.5,
      "v": 58
    },
    {
      "midi": 64,
      "hit": false,
      "t": 138306.25,
      "d": 93.75,
      "v": 52
    },
    {
      "midi": 64,
      "hit": false,
      "t": 138606.25,
      "d": 93.75,
      "v": 72
    },
    {
      "midi": 61,
      "hit": false,
      "t": 138606.25,
      "d": 112.5,
      "v": 73
    },
    {
      "midi": 68,
      "hit": false,
      "t": 138606.25,
      "d": 112.5,
      "v": 65
    },
    {
      "midi": 61,
      "hit": false,
      "t": 138906.25,
      "d": 81.25,
      "v": 57
    },
    {
      "midi": 64,
      "hit": false,
      "t": 138906.25,
      "d": 100,
      "v": 53
    },
    {
      "midi": 68,
      "hit": false,
      "t": 138906.25,
      "d": 100,
      "v": 53
    },
    {
      "midi": 61,
      "hit": false,
      "t": 139206.25,
      "d": 87.5,
      "v": 70
    },
    {
      "midi": 64,
      "hit": false,
      "t": 139206.25,
      "d": 87.5,
      "v": 68
    },
    {
      "midi": 68,
      "hit": false,
      "t": 139206.25,
      "d": 87.5,
      "v": 65
    },
    {
      "midi": 61,
      "hit": false,
      "t": 139500,
      "d": 93.75,
      "v": 58
    },
    {
      "midi": 64,
      "hit": false,
      "t": 139500,
      "d": 93.75,
      "v": 64
    },
    {
      "midi": 68,
      "hit": false,
      "t": 139506.25,
      "d": 56.25,
      "v": 58
    },
    {
      "midi": 61,
      "hit": false,
      "t": 139806.25,
      "d": 418.75,
      "v": 81
    },
    {
      "midi": 70,
      "hit": false,
      "t": 139806.25,
      "d": 462.5,
      "v": 76
    },
    {
      "midi": 66,
      "hit": false,
      "t": 139806.25,
      "d": 487.5,
      "v": 77
    },
    {
      "midi": 61,
      "hit": false,
      "t": 140406.25,
      "d": 81.25,
      "v": 68
    },
    {
      "midi": 64,
      "hit": false,
      "t": 140406.25,
      "d": 100,
      "v": 63
    },
    {
      "midi": 68,
      "hit": false,
      "t": 140406.25,
      "d": 112.5,
      "v": 62
    },
    {
      "midi": 61,
      "hit": false,
      "t": 140700,
      "d": 81.25,
      "v": 62
    },
    {
      "midi": 64,
      "hit": false,
      "t": 140706.25,
      "d": 93.75,
      "v": 61
    },
    {
      "midi": 68,
      "hit": false,
      "t": 140706.25,
      "d": 93.75,
      "v": 63
    },
    {
      "midi": 61,
      "hit": false,
      "t": 141006.25,
      "d": 100,
      "v": 69
    },
    {
      "midi": 68,
      "hit": false,
      "t": 141006.25,
      "d": 112.5,
      "v": 65
    },
    {
      "midi": 64,
      "hit": false,
      "t": 141006.25,
      "d": 118.75,
      "v": 65
    },
    {
      "midi": 68,
      "hit": false,
      "t": 141306.25,
      "d": 81.25,
      "v": 51
    },
    {
      "midi": 64,
      "hit": false,
      "t": 141306.25,
      "d": 93.75,
      "v": 48
    },
    {
      "midi": 61,
      "hit": false,
      "t": 141306.25,
      "d": 137.5,
      "v": 53
    },
    {
      "midi": 52,
      "hit": false,
      "t": 141606.25,
      "d": 481.25,
      "v": 69
    },
    {
      "midi": 59,
      "hit": false,
      "t": 141606.25,
      "d": 518.75,
      "v": 80
    },
    {
      "midi": 56,
      "hit": false,
      "t": 141606.25,
      "d": 750,
      "v": 81
    },
    {
      "midi": 68,
      "hit": false,
      "t": 141606.25,
      "d": 931.25,
      "v": 76
    },
    {
      "midi": 64,
      "hit": false,
      "t": 141606.25,
      "d": 1006.25,
      "v": 75
    },
    {
      "midi": 59,
      "hit": false,
      "t": 142206.25,
      "d": 418.75,
      "v": 70
    },
    {
      "midi": 52,
      "hit": false,
      "t": 142206.25,
      "d": 1381.25,
      "v": 65
    },
    {
      "midi": 56,
      "hit": false,
      "t": 142506.25,
      "d": 993.75,
      "v": 77
    },
    {
      "midi": 59,
      "hit": false,
      "t": 142806.25,
      "d": 581.25,
      "v": 80
    },
    {
      "midi": 64,
      "hit": false,
      "t": 143106.25,
      "d": 562.5,
      "v": 73
    },
    {
      "midi": 59,
      "hit": false,
      "t": 143406.25,
      "d": 300,
      "v": 62
    },
    {
      "midi": 56,
      "hit": false,
      "t": 143706.25,
      "d": 262.5,
      "v": 86
    },
    {
      "midi": 58,
      "hit": false,
      "t": 144006.25,
      "d": 193.75,
      "v": 77
    },
    {
      "midi": 54,
      "hit": false,
      "t": 144006.25,
      "d": 400,
      "v": 81
    },
    {
      "midi": 61,
      "hit": false,
      "t": 144006.25,
      "d": 712.5,
      "v": 79
    },
    {
      "midi": 66,
      "hit": false,
      "t": 144006.25,
      "d": 762.5,
      "v": 71
    },
    {
      "midi": 58,
      "hit": false,
      "t": 144306.25,
      "d": 468.75,
      "v": 28
    },
    {
      "midi": 54,
      "hit": false,
      "t": 144606.25,
      "d": 962.5,
      "v": 81
    },
    {
      "midi": 58,
      "hit": false,
      "t": 144900,
      "d": 443.75,
      "v": 83
    },
    {
      "midi": 66,
      "hit": false,
      "t": 144906.25,
      "d": 1118.75,
      "v": 74
    },
    {
      "midi": 61,
      "hit": false,
      "t": 144906.25,
      "d": 1281.25,
      "v": 83
    },
    {
      "midi": 58,
      "hit": false,
      "t": 145506.25,
      "d": 393.75,
      "v": 81
    },
    {
      "midi": 54,
      "hit": false,
      "t": 145806.25,
      "d": 543.75,
      "v": 86
    },
    {
      "midi": 58,
      "hit": false,
      "t": 146106.25,
      "d": 93.75,
      "v": 66
    },
    {
      "midi": 56,
      "hit": false,
      "t": 146406.25,
      "d": 356.25,
      "v": 119
    },
    {
      "midi": 63,
      "hit": false,
      "t": 146406.25,
      "d": 800,
      "v": 86
    },
    {
      "midi": 68,
      "hit": false,
      "t": 146406.25,
      "d": 800,
      "v": 79
    },
    {
      "midi": 60,
      "hit": false,
      "t": 146700,
      "d": 493.75,
      "v": 87
    },
    {
      "midi": 56,
      "hit": false,
      "t": 147006.25,
      "d": 731.25,
      "v": 94
    },
    {
      "midi": 63,
      "hit": false,
      "t": 147300,
      "d": 700,
      "v": 81
    },
    {
      "midi": 68,
      "hit": false,
      "t": 147306.25,
      "d": 693.75,
      "v": 79
    },
    {
      "midi": 56,
      "hit": false,
      "t": 147906.25,
      "d": 343.75,
      "v": 83
    },
    {
      "midi": 63,
      "hit": false,
      "t": 148206.25,
      "d": 256.25,
      "v": 90
    },
    {
      "midi": 68,
      "hit": false,
      "t": 148206.25,
      "d": 362.5,
      "v": 76
    },
    {
      "midi": 56,
      "hit": false,
      "t": 148506.25,
      "d": 93.75,
      "v": 77
    },
    {
      "midi": 54,
      "hit": false,
      "t": 148806.25,
      "d": 87.5,
      "v": 77
    },
    {
      "midi": 61,
      "hit": false,
      "t": 148806.25,
      "d": 87.5,
      "v": 73
    },
    {
      "midi": 66,
      "hit": false,
      "t": 148806.25,
      "d": 87.5,
      "v": 65
    },
    {
      "midi": 58,
      "hit": false,
      "t": 148806.25,
      "d": 93.75,
      "v": 74
    },
    {
      "midi": 54,
      "hit": false,
      "t": 149106.25,
      "d": 368.75,
      "v": 81
    },
    {
      "midi": 58,
      "hit": false,
      "t": 149106.25,
      "d": 687.5,
      "v": 79
    },
    {
      "midi": 61,
      "hit": false,
      "t": 149106.25,
      "d": 906.25,
      "v": 77
    },
    {
      "midi": 66,
      "hit": false,
      "t": 149106.25,
      "d": 1181.25,
      "v": 71
    },
    {
      "midi": 54,
      "hit": false,
      "t": 149706.25,
      "d": 1268.75,
      "v": 76
    },
    {
      "midi": 58,
      "hit": false,
      "t": 150006.25,
      "d": 775,
      "v": 75
    },
    {
      "midi": 61,
      "hit": false,
      "t": 150306.25,
      "d": 512.5,
      "v": 58
    },
    {
      "midi": 66,
      "hit": false,
      "t": 150600,
      "d": 212.5,
      "v": 75
    },
    {
      "midi": 58,
      "hit": false,
      "t": 150906.25,
      "d": 112.5,
      "v": 45
    },
    {
      "midi": 59,
      "hit": false,
      "t": 151206.25,
      "d": 306.25,
      "v": 72
    },
    {
      "midi": 56,
      "hit": false,
      "t": 151206.25,
      "d": 312.5,
      "v": 90
    },
    {
      "midi": 64,
      "hit": false,
      "t": 151206.25,
      "d": 343.75,
      "v": 69
    },
    {
      "midi": 52,
      "hit": false,
      "t": 151206.25,
      "d": 918.75,
      "v": 90
    },
    {
      "midi": 56,
      "hit": false,
      "t": 151806.25,
      "d": 443.75,
      "v": 90
    },
    {
      "midi": 64,
      "hit": false,
      "t": 151806.25,
      "d": 456.25,
      "v": 71
    },
    {
      "midi": 59,
      "hit": false,
      "t": 151806.25,
      "d": 475,
      "v": 75
    },
    {
      "midi": 52,
      "hit": false,
      "t": 152250,
      "d": 1175,
      "v": 80
    },
    {
      "midi": 64,
      "hit": false,
      "t": 152400,
      "d": 131.25,
      "v": 67
    },
    {
      "midi": 59,
      "hit": false,
      "t": 152400,
      "d": 150,
      "v": 68
    },
    {
      "midi": 56,
      "hit": false,
      "t": 152406.25,
      "d": 125,
      "v": 73
    },
    {
      "midi": 56,
      "hit": false,
      "t": 152706.25,
      "d": 362.5,
      "v": 79
    },
    {
      "midi": 64,
      "hit": false,
      "t": 152706.25,
      "d": 593.75,
      "v": 72
    },
    {
      "midi": 59,
      "hit": false,
      "t": 152706.25,
      "d": 743.75,
      "v": 73
    },
    {
      "midi": 56,
      "hit": false,
      "t": 153306.25,
      "d": 112.5,
      "v": 74
    },
    {
      "midi": 58,
      "hit": false,
      "t": 153606.25,
      "d": 425,
      "v": 86
    },
    {
      "midi": 66,
      "hit": false,
      "t": 153606.25,
      "d": 700,
      "v": 76
    },
    {
      "midi": 61,
      "hit": false,
      "t": 153606.25,
      "d": 743.75,
      "v": 75
    },
    {
      "midi": 54,
      "hit": false,
      "t": 153606.25,
      "d": 862.5,
      "v": 94
    },
    {
      "midi": 58,
      "hit": false,
      "t": 154200,
      "d": 206.25,
      "v": 83
    },
    {
      "midi": 52,
      "hit": false,
      "t": 154806.25,
      "d": 662.5,
      "v": 90
    },
    {
      "midi": 57,
      "hit": false,
      "t": 154806.25,
      "d": 675,
      "v": 80
    },
    {
      "midi": 61,
      "hit": false,
      "t": 154806.25,
      "d": 675,
      "v": 79
    },
    {
      "midi": 64,
      "hit": false,
      "t": 154806.25,
      "d": 700,
      "v": 69
    },
    {
      "midi": 61,
      "hit": false,
      "t": 156006.25,
      "d": 256.25,
      "v": 69
    },
    {
      "midi": 56,
      "hit": false,
      "t": 156006.25,
      "d": 312.5,
      "v": 86
    },
    {
      "midi": 59,
      "hit": false,
      "t": 156006.25,
      "d": 331.25,
      "v": 69
    },
    {
      "midi": 64,
      "hit": false,
      "t": 156006.25,
      "d": 337.5,
      "v": 70
    },
    {
      "midi": 49,
      "hit": false,
      "t": 156006.25,
      "d": 687.5,
      "v": 90
    },
    {
      "midi": 56,
      "hit": false,
      "t": 156600,
      "d": 400,
      "v": 94
    },
    {
      "midi": 64,
      "hit": false,
      "t": 156600,
      "d": 412.5,
      "v": 80
    },
    {
      "midi": 61,
      "hit": false,
      "t": 156606.25,
      "d": 212.5,
      "v": 71
    },
    {
      "midi": 59,
      "hit": false,
      "t": 156606.25,
      "d": 425,
      "v": 85
    },
    {
      "midi": 49,
      "hit": false,
      "t": 157050,
      "d": 137.5,
      "v": 90
    },
    {
      "midi": 59,
      "hit": false,
      "t": 157206.25,
      "d": 50,
      "v": 50
    },
    {
      "midi": 61,
      "hit": false,
      "t": 157206.25,
      "d": 50,
      "v": 48
    },
    {
      "midi": 56,
      "hit": false,
      "t": 157206.25,
      "d": 75,
      "v": 58
    },
    {
      "midi": 64,
      "hit": false,
      "t": 157206.25,
      "d": 93.75,
      "v": 54
    },
    {
      "midi": 49,
      "hit": false,
      "t": 157506.25,
      "d": 81.25,
      "v": 77
    },
    {
      "midi": 66,
      "hit": false,
      "t": 157806.25,
      "d": 312.5,
      "v": 76
    },
    {
      "midi": 58,
      "hit": false,
      "t": 157806.25,
      "d": 387.5,
      "v": 81
    },
    {
      "midi": 61,
      "hit": false,
      "t": 157806.25,
      "d": 406.25,
      "v": 79
    },
    {
      "midi": 49,
      "hit": false,
      "t": 158406.25,
      "d": 1.5625,
      "v": 119
    },
    {
      "midi": 56,
      "hit": false,
      "t": 158406.25,
      "d": 1.5625,
      "v": 94
    },
    {
      "midi": 59,
      "hit": false,
      "t": 158406.25,
      "d": 1.5625,
      "v": 71
    },
    {
      "midi": 61,
      "hit": false,
      "t": 158406.25,
      "d": 131.25,
      "v": 70
    },
    {
      "midi": 64,
      "hit": false,
      "t": 158406.25,
      "d": 168.75,
      "v": 71
    },
    {
      "midi": 71,
      "hit": false,
      "t": 159006.25,
      "d": 1312.5,
      "v": 98
    },
    {
      "midi": 59,
      "hit": false,
      "t": 159006.25,
      "d": 1387.5,
      "v": 90
    },
    {
      "midi": 66,
      "hit": false,
      "t": 159006.25,
      "d": 1406.25,
      "v": 98
    },
    {
      "midi": 44,
      "hit": false,
      "t": 159006.25,
      "d": 1762.5,
      "v": 104
    },
    {
      "midi": 61,
      "hit": false,
      "t": 160806.25,
      "d": 1.5625,
      "v": 77
    },
    {
      "midi": 64,
      "hit": false,
      "t": 160806.25,
      "d": 1.5625,
      "v": 72
    },
    {
      "midi": 68,
      "hit": false,
      "t": 160806.25,
      "d": 1.5625,
      "v": 75
    },
    {
      "midi": 61,
      "hit": false,
      "t": 161100,
      "d": 75,
      "v": 54
    },
    {
      "midi": 64,
      "hit": false,
      "t": 161100,
      "d": 75,
      "v": 56
    },
    {
      "midi": 68,
      "hit": false,
      "t": 161100,
      "d": 81.25,
      "v": 49
    },
    {
      "midi": 70,
      "hit": false,
      "t": 161400,
      "d": 443.75,
      "v": 75
    },
    {
      "midi": 66,
      "hit": false,
      "t": 161400,
      "d": 512.5,
      "v": 86
    },
    {
      "midi": 61,
      "hit": false,
      "t": 161406.25,
      "d": 387.5,
      "v": 90
    },
    {
      "midi": 61,
      "hit": false,
      "t": 162006.25,
      "d": 81.25,
      "v": 70
    },
    {
      "midi": 64,
      "hit": false,
      "t": 162006.25,
      "d": 100,
      "v": 63
    },
    {
      "midi": 68,
      "hit": false,
      "t": 162006.25,
      "d": 100,
      "v": 63
    },
    {
      "midi": 61,
      "hit": false,
      "t": 162306.25,
      "d": 75,
      "v": 62
    },
    {
      "midi": 64,
      "hit": false,
      "t": 162306.25,
      "d": 75,
      "v": 59
    },
    {
      "midi": 68,
      "hit": false,
      "t": 162306.25,
      "d": 75,
      "v": 56
    },
    {
      "midi": 61,
      "hit": false,
      "t": 162606.25,
      "d": 100,
      "v": 79
    },
    {
      "midi": 64,
      "hit": false,
      "t": 162606.25,
      "d": 100,
      "v": 78
    },
    {
      "midi": 68,
      "hit": false,
      "t": 162606.25,
      "d": 100,
      "v": 75
    },
    {
      "midi": 68,
      "hit": false,
      "t": 162906.25,
      "d": 75,
      "v": 45
    },
    {
      "midi": 61,
      "hit": false,
      "t": 162906.25,
      "d": 93.75,
      "v": 58
    },
    {
      "midi": 64,
      "hit": false,
      "t": 162906.25,
      "d": 93.75,
      "v": 48
    },
    {
      "midi": 58,
      "hit": false,
      "t": 163206.25,
      "d": 87.5,
      "v": 77
    },
    {
      "midi": 61,
      "hit": false,
      "t": 163206.25,
      "d": 87.5,
      "v": 75
    },
    {
      "midi": 66,
      "hit": false,
      "t": 163206.25,
      "d": 87.5,
      "v": 69
    },
    {
      "midi": 58,
      "hit": false,
      "t": 163500,
      "d": 75,
      "v": 62
    },
    {
      "midi": 61,
      "hit": false,
      "t": 163500,
      "d": 75,
      "v": 65
    },
    {
      "midi": 66,
      "hit": false,
      "t": 163506.25,
      "d": 37.5,
      "v": 62
    },
    {
      "midi": 66,
      "hit": false,
      "t": 163800,
      "d": 112.5,
      "v": 76
    },
    {
      "midi": 58,
      "hit": false,
      "t": 163806.25,
      "d": 81.25,
      "v": 86
    },
    {
      "midi": 61,
      "hit": false,
      "t": 163806.25,
      "d": 87.5,
      "v": 83
    },
    {
      "midi": 61,
      "hit": false,
      "t": 164106.25,
      "d": 75,
      "v": 64
    },
    {
      "midi": 58,
      "hit": false,
      "t": 164106.25,
      "d": 81.25,
      "v": 62
    },
    {
      "midi": 66,
      "hit": false,
      "t": 164106.25,
      "d": 81.25,
      "v": 65
    },
    {
      "midi": 66,
      "hit": false,
      "t": 164400,
      "d": 81.25,
      "v": 75
    },
    {
      "midi": 58,
      "hit": false,
      "t": 164406.25,
      "d": 75,
      "v": 79
    },
    {
      "midi": 61,
      "hit": false,
      "t": 164406.25,
      "d": 75,
      "v": 81
    },
    {
      "midi": 58,
      "hit": false,
      "t": 164706.25,
      "d": 75,
      "v": 63
    },
    {
      "midi": 61,
      "hit": false,
      "t": 164706.25,
      "d": 75,
      "v": 67
    },
    {
      "midi": 66,
      "hit": false,
      "t": 164706.25,
      "d": 75,
      "v": 63
    },
    {
      "midi": 58,
      "hit": false,
      "t": 165006.25,
      "d": 93.75,
      "v": 79
    },
    {
      "midi": 61,
      "hit": false,
      "t": 165006.25,
      "d": 106.25,
      "v": 83
    },
    {
      "midi": 66,
      "hit": false,
      "t": 165006.25,
      "d": 106.25,
      "v": 77
    },
    {
      "midi": 66,
      "hit": false,
      "t": 165306.25,
      "d": 106.25,
      "v": 50
    },
    {
      "midi": 58,
      "hit": false,
      "t": 165306.25,
      "d": 125,
      "v": 53
    },
    {
      "midi": 61,
      "hit": false,
      "t": 165306.25,
      "d": 218.75,
      "v": 52
    },
    {
      "midi": 61,
      "hit": false,
      "t": 165606.25,
      "d": 68.75,
      "v": 79
    },
    {
      "midi": 64,
      "hit": false,
      "t": 165606.25,
      "d": 68.75,
      "v": 65
    },
    {
      "midi": 68,
      "hit": false,
      "t": 165606.25,
      "d": 112.5,
      "v": 65
    },
    {
      "midi": 61,
      "hit": false,
      "t": 165900,
      "d": 81.25,
      "v": 58
    },
    {
      "midi": 64,
      "hit": false,
      "t": 165900,
      "d": 87.5,
      "v": 58
    },
    {
      "midi": 68,
      "hit": false,
      "t": 165906.25,
      "d": 81.25,
      "v": 56
    },
    {
      "midi": 70,
      "hit": false,
      "t": 166200,
      "d": 187.5,
      "v": 71
    },
    {
      "midi": 61,
      "hit": false,
      "t": 166206.25,
      "d": 168.75,
      "v": 76
    },
    {
      "midi": 66,
      "hit": false,
      "t": 166206.25,
      "d": 175,
      "v": 74
    },
    {
      "midi": 61,
      "hit": false,
      "t": 166506.25,
      "d": 81.25,
      "v": 51
    },
    {
      "midi": 66,
      "hit": false,
      "t": 166506.25,
      "d": 87.5,
      "v": 37
    },
    {
      "midi": 70,
      "hit": false,
      "t": 166506.25,
      "d": 131.25,
      "v": 51
    },
    {
      "midi": 61,
      "hit": false,
      "t": 166806.25,
      "d": 87.5,
      "v": 63
    },
    {
      "midi": 64,
      "hit": false,
      "t": 166806.25,
      "d": 87.5,
      "v": 65
    },
    {
      "midi": 68,
      "hit": false,
      "t": 166806.25,
      "d": 106.25,
      "v": 59
    },
    {
      "midi": 61,
      "hit": false,
      "t": 167106.25,
      "d": 75,
      "v": 42
    },
    {
      "midi": 68,
      "hit": false,
      "t": 167106.25,
      "d": 75,
      "v": 44
    },
    {
      "midi": 64,
      "hit": false,
      "t": 167106.25,
      "d": 100,
      "v": 46
    },
    {
      "midi": 61,
      "hit": false,
      "t": 167406.25,
      "d": 87.5,
      "v": 64
    },
    {
      "midi": 64,
      "hit": false,
      "t": 167406.25,
      "d": 87.5,
      "v": 65
    },
    {
      "midi": 68,
      "hit": false,
      "t": 167406.25,
      "d": 87.5,
      "v": 62
    },
    {
      "midi": 61,
      "hit": false,
      "t": 167706.25,
      "d": 75,
      "v": 52
    },
    {
      "midi": 64,
      "hit": false,
      "t": 167706.25,
      "d": 75,
      "v": 57
    },
    {
      "midi": 68,
      "hit": false,
      "t": 167706.25,
      "d": 75,
      "v": 56
    },
    {
      "midi": 61,
      "hit": false,
      "t": 168006.25,
      "d": 75,
      "v": 75
    },
    {
      "midi": 64,
      "hit": false,
      "t": 168006.25,
      "d": 75,
      "v": 75
    },
    {
      "midi": 68,
      "hit": false,
      "t": 168006.25,
      "d": 75,
      "v": 69
    },
    {
      "midi": 68,
      "hit": false,
      "t": 168300,
      "d": 43.75,
      "v": 51
    },
    {
      "midi": 64,
      "hit": false,
      "t": 168300,
      "d": 68.75,
      "v": 62
    },
    {
      "midi": 61,
      "hit": false,
      "t": 168300,
      "d": 93.75,
      "v": 64
    },
    {
      "midi": 61,
      "hit": false,
      "t": 168600,
      "d": 412.5,
      "v": 86
    },
    {
      "midi": 66,
      "hit": false,
      "t": 168606.25,
      "d": 250,
      "v": 79
    },
    {
      "midi": 70,
      "hit": false,
      "t": 168606.25,
      "d": 443.75,
      "v": 74
    },
    {
      "midi": 66,
      "hit": false,
      "t": 168906.25,
      "d": 218.75,
      "v": 25
    },
    {
      "midi": 61,
      "hit": false,
      "t": 169206.25,
      "d": 75,
      "v": 62
    },
    {
      "midi": 64,
      "hit": false,
      "t": 169206.25,
      "d": 75,
      "v": 64
    },
    {
      "midi": 68,
      "hit": false,
      "t": 169206.25,
      "d": 106.25,
      "v": 61
    },
    {
      "midi": 61,
      "hit": false,
      "t": 169506.25,
      "d": 68.75,
      "v": 59
    },
    {
      "midi": 64,
      "hit": false,
      "t": 169506.25,
      "d": 68.75,
      "v": 55
    },
    {
      "midi": 68,
      "hit": false,
      "t": 169506.25,
      "d": 87.5,
      "v": 51
    },
    {
      "midi": 61,
      "hit": false,
      "t": 169806.25,
      "d": 68.75,
      "v": 70
    },
    {
      "midi": 64,
      "hit": false,
      "t": 169806.25,
      "d": 75,
      "v": 65
    },
    {
      "midi": 68,
      "hit": false,
      "t": 169806.25,
      "d": 75,
      "v": 62
    },
    {
      "midi": 61,
      "hit": false,
      "t": 170106.25,
      "d": 37.5,
      "v": 56
    },
    {
      "midi": 64,
      "hit": false,
      "t": 170106.25,
      "d": 62.5,
      "v": 55
    },
    {
      "midi": 68,
      "hit": false,
      "t": 170106.25,
      "d": 68.75,
      "v": 53
    },
    {
      "midi": 64,
      "hit": false,
      "t": 170406.25,
      "d": 75,
      "v": 71
    },
    {
      "midi": 61,
      "hit": false,
      "t": 170406.25,
      "d": 87.5,
      "v": 76
    },
    {
      "midi": 68,
      "hit": false,
      "t": 170406.25,
      "d": 87.5,
      "v": 71
    },
    {
      "midi": 61,
      "hit": false,
      "t": 170700,
      "d": 81.25,
      "v": 65
    },
    {
      "midi": 64,
      "hit": false,
      "t": 170700,
      "d": 81.25,
      "v": 62
    },
    {
      "midi": 68,
      "hit": false,
      "t": 170700,
      "d": 81.25,
      "v": 54
    },
    {
      "midi": 66,
      "hit": false,
      "t": 171006.25,
      "d": 275,
      "v": 76
    },
    {
      "midi": 61,
      "hit": false,
      "t": 171006.25,
      "d": 387.5,
      "v": 76
    },
    {
      "midi": 70,
      "hit": false,
      "t": 171006.25,
      "d": 400,
      "v": 70
    },
    {
      "midi": 61,
      "hit": false,
      "t": 171606.25,
      "d": 68.75,
      "v": 60
    },
    {
      "midi": 64,
      "hit": false,
      "t": 171606.25,
      "d": 81.25,
      "v": 56
    },
    {
      "midi": 68,
      "hit": false,
      "t": 171606.25,
      "d": 100,
      "v": 56
    },
    {
      "midi": 64,
      "hit": false,
      "t": 171906.25,
      "d": 81.25,
      "v": 55
    },
    {
      "midi": 61,
      "hit": false,
      "t": 171906.25,
      "d": 87.5,
      "v": 62
    },
    {
      "midi": 68,
      "hit": false,
      "t": 171906.25,
      "d": 87.5,
      "v": 54
    },
    {
      "midi": 61,
      "hit": false,
      "t": 172206.25,
      "d": 100,
      "v": 76
    },
    {
      "midi": 64,
      "hit": false,
      "t": 172206.25,
      "d": 100,
      "v": 70
    },
    {
      "midi": 68,
      "hit": false,
      "t": 172206.25,
      "d": 137.5,
      "v": 73
    },
    {
      "midi": 61,
      "hit": false,
      "t": 172506.25,
      "d": 81.25,
      "v": 51
    },
    {
      "midi": 64,
      "hit": false,
      "t": 172506.25,
      "d": 81.25,
      "v": 46
    },
    {
      "midi": 68,
      "hit": false,
      "t": 172506.25,
      "d": 81.25,
      "v": 50
    },
    {
      "midi": 58,
      "hit": false,
      "t": 172806.25,
      "d": 75,
      "v": 76
    },
    {
      "midi": 61,
      "hit": false,
      "t": 172806.25,
      "d": 75,
      "v": 77
    },
    {
      "midi": 66,
      "hit": false,
      "t": 172806.25,
      "d": 93.75,
      "v": 74
    },
    {
      "midi": 58,
      "hit": false,
      "t": 173100,
      "d": 81.25,
      "v": 48
    },
    {
      "midi": 61,
      "hit": false,
      "t": 173100,
      "d": 81.25,
      "v": 47
    },
    {
      "midi": 66,
      "hit": false,
      "t": 173100,
      "d": 81.25,
      "v": 51
    },
    {
      "midi": 61,
      "hit": false,
      "t": 173400,
      "d": 106.25,
      "v": 86
    },
    {
      "midi": 66,
      "hit": false,
      "t": 173400,
      "d": 125,
      "v": 75
    },
    {
      "midi": 58,
      "hit": false,
      "t": 173406.25,
      "d": 100,
      "v": 81
    },
    {
      "midi": 58,
      "hit": false,
      "t": 173706.25,
      "d": 75,
      "v": 54
    },
    {
      "midi": 61,
      "hit": false,
      "t": 173706.25,
      "d": 75,
      "v": 55
    },
    {
      "midi": 66,
      "hit": false,
      "t": 173706.25,
      "d": 75,
      "v": 52
    },
    {
      "midi": 58,
      "hit": false,
      "t": 174006.25,
      "d": 87.5,
      "v": 77
    },
    {
      "midi": 61,
      "hit": false,
      "t": 174006.25,
      "d": 87.5,
      "v": 81
    },
    {
      "midi": 66,
      "hit": false,
      "t": 174006.25,
      "d": 106.25,
      "v": 73
    },
    {
      "midi": 58,
      "hit": false,
      "t": 174306.25,
      "d": 75,
      "v": 50
    },
    {
      "midi": 61,
      "hit": false,
      "t": 174306.25,
      "d": 93.75,
      "v": 50
    },
    {
      "midi": 66,
      "hit": false,
      "t": 174306.25,
      "d": 93.75,
      "v": 48
    },
    {
      "midi": 58,
      "hit": false,
      "t": 174606.25,
      "d": 100,
      "v": 77
    },
    {
      "midi": 61,
      "hit": false,
      "t": 174606.25,
      "d": 131.25,
      "v": 81
    },
    {
      "midi": 66,
      "hit": false,
      "t": 174606.25,
      "d": 175,
      "v": 74
    },
    {
      "midi": 58,
      "hit": false,
      "t": 174906.25,
      "d": 87.5,
      "v": 60
    },
    {
      "midi": 61,
      "hit": false,
      "t": 174906.25,
      "d": 93.75,
      "v": 53
    },
    {
      "midi": 66,
      "hit": false,
      "t": 174906.25,
      "d": 112.5,
      "v": 26
    },
    {
      "midi": 64,
      "hit": false,
      "t": 175206.25,
      "d": 81.25,
      "v": 65
    },
    {
      "midi": 61,
      "hit": false,
      "t": 175206.25,
      "d": 93.75,
      "v": 71
    },
    {
      "midi": 68,
      "hit": false,
      "t": 175206.25,
      "d": 106.25,
      "v": 64
    },
    {
      "midi": 61,
      "hit": false,
      "t": 175500,
      "d": 81.25,
      "v": 52
    },
    {
      "midi": 68,
      "hit": false,
      "t": 175500,
      "d": 100,
      "v": 58
    },
    {
      "midi": 64,
      "hit": false,
      "t": 175506.25,
      "d": 81.25,
      "v": 54
    },
    {
      "midi": 61,
      "hit": false,
      "t": 175800,
      "d": 400,
      "v": 81
    },
    {
      "midi": 70,
      "hit": false,
      "t": 175800,
      "d": 443.75,
      "v": 71
    },
    {
      "midi": 66,
      "hit": false,
      "t": 175806.25,
      "d": 468.75,
      "v": 79
    },
    {
      "midi": 61,
      "hit": false,
      "t": 176406.25,
      "d": 81.25,
      "v": 71
    },
    {
      "midi": 64,
      "hit": false,
      "t": 176406.25,
      "d": 81.25,
      "v": 67
    },
    {
      "midi": 68,
      "hit": false,
      "t": 176406.25,
      "d": 100,
      "v": 67
    },
    {
      "midi": 61,
      "hit": false,
      "t": 176706.25,
      "d": 75,
      "v": 53
    },
    {
      "midi": 68,
      "hit": false,
      "t": 176706.25,
      "d": 75,
      "v": 45
    },
    {
      "midi": 64,
      "hit": false,
      "t": 176706.25,
      "d": 81.25,
      "v": 54
    },
    {
      "midi": 61,
      "hit": false,
      "t": 177006.25,
      "d": 62.5,
      "v": 73
    },
    {
      "midi": 68,
      "hit": false,
      "t": 177006.25,
      "d": 62.5,
      "v": 63
    },
    {
      "midi": 64,
      "hit": false,
      "t": 177006.25,
      "d": 87.5,
      "v": 71
    },
    {
      "midi": 68,
      "hit": false,
      "t": 177306.25,
      "d": 68.75,
      "v": 56
    },
    {
      "midi": 61,
      "hit": false,
      "t": 177306.25,
      "d": 75,
      "v": 61
    },
    {
      "midi": 64,
      "hit": false,
      "t": 177306.25,
      "d": 75,
      "v": 59
    },
    {
      "midi": 64,
      "hit": false,
      "t": 177606.25,
      "d": 68.75,
      "v": 73
    },
    {
      "midi": 61,
      "hit": false,
      "t": 177606.25,
      "d": 75,
      "v": 76
    },
    {
      "midi": 68,
      "hit": false,
      "t": 177606.25,
      "d": 81.25,
      "v": 69
    },
    {
      "midi": 61,
      "hit": false,
      "t": 177900,
      "d": 75,
      "v": 62
    },
    {
      "midi": 64,
      "hit": false,
      "t": 177900,
      "d": 75,
      "v": 61
    },
    {
      "midi": 68,
      "hit": false,
      "t": 177900,
      "d": 75,
      "v": 61
    },
    {
      "midi": 61,
      "hit": false,
      "t": 178200,
      "d": 406.25,
      "v": 81
    },
    {
      "midi": 66,
      "hit": false,
      "t": 178200,
      "d": 518.75,
      "v": 81
    },
    {
      "midi": 70,
      "hit": false,
      "t": 178206.25,
      "d": 431.25,
      "v": 77
    },
    {
      "midi": 61,
      "hit": false,
      "t": 178806.25,
      "d": 68.75,
      "v": 69
    },
    {
      "midi": 64,
      "hit": false,
      "t": 178806.25,
      "d": 87.5,
      "v": 68
    },
    {
      "midi": 68,
      "hit": false,
      "t": 178806.25,
      "d": 100,
      "v": 65
    },
    {
      "midi": 61,
      "hit": false,
      "t": 179106.25,
      "d": 68.75,
      "v": 58
    },
    {
      "midi": 64,
      "hit": false,
      "t": 179106.25,
      "d": 68.75,
      "v": 56
    },
    {
      "midi": 68,
      "hit": false,
      "t": 179106.25,
      "d": 93.75,
      "v": 50
    },
    {
      "midi": 61,
      "hit": false,
      "t": 179406.25,
      "d": 112.5,
      "v": 64
    },
    {
      "midi": 64,
      "hit": false,
      "t": 179406.25,
      "d": 131.25,
      "v": 60
    },
    {
      "midi": 68,
      "hit": false,
      "t": 179406.25,
      "d": 131.25,
      "v": 61
    },
    {
      "midi": 64,
      "hit": false,
      "t": 179706.25,
      "d": 87.5,
      "v": 55
    },
    {
      "midi": 68,
      "hit": false,
      "t": 179706.25,
      "d": 87.5,
      "v": 54
    },
    {
      "midi": 61,
      "hit": false,
      "t": 179706.25,
      "d": 112.5,
      "v": 60
    },
    {
      "midi": 52,
      "hit": false,
      "t": 180006.25,
      "d": 487.5,
      "v": 65
    },
    {
      "midi": 56,
      "hit": false,
      "t": 180006.25,
      "d": 681.25,
      "v": 70
    },
    {
      "midi": 59,
      "hit": false,
      "t": 180006.25,
      "d": 937.5,
      "v": 98
    },
    {
      "midi": 64,
      "hit": false,
      "t": 180006.25,
      "d": 1312.5,
      "v": 78
    },
    {
      "midi": 68,
      "hit": false,
      "t": 180006.25,
      "d": 2068.75,
      "v": 75
    },
    {
      "midi": 52,
      "hit": false,
      "t": 180606.25,
      "d": 1381.25,
      "v": 65
    },
    {
      "midi": 56,
      "hit": false,
      "t": 180906.25,
      "d": 1018.75,
      "v": 83
    },
    {
      "midi": 59,
      "hit": false,
      "t": 181206.25,
      "d": 712.5,
      "v": 87
    },
    {
      "midi": 64,
      "hit": false,
      "t": 181506.25,
      "d": 568.75,
      "v": 70
    },
    {
      "midi": 59,
      "hit": false,
      "t": 182106.25,
      "d": 175,
      "v": 72
    },
    {
      "midi": 56,
      "hit": false,
      "t": 182106.25,
      "d": 243.75,
      "v": 75
    },
    {
      "midi": 54,
      "hit": false,
      "t": 182406.25,
      "d": 375,
      "v": 76
    },
    {
      "midi": 61,
      "hit": false,
      "t": 182406.25,
      "d": 712.5,
      "v": 83
    },
    {
      "midi": 66,
      "hit": false,
      "t": 182406.25,
      "d": 756.25,
      "v": 74
    },
    {
      "midi": 58,
      "hit": false,
      "t": 182706.25,
      "d": 412.5,
      "v": 77
    },
    {
      "midi": 54,
      "hit": false,
      "t": 183006.25,
      "d": 743.75,
      "v": 83
    },
    {
      "midi": 66,
      "hit": false,
      "t": 183306.25,
      "d": 656.25,
      "v": 79
    },
    {
      "midi": 61,
      "hit": false,
      "t": 183306.25,
      "d": 675,
      "v": 79
    },
    {
      "midi": 58,
      "hit": false,
      "t": 183306.25,
      "d": 681.25,
      "v": 76
    },
    {
      "midi": 54,
      "hit": false,
      "t": 183906.25,
      "d": 375,
      "v": 76
    },
    {
      "midi": 66,
      "hit": false,
      "t": 184206.25,
      "d": 187.5,
      "v": 75
    },
    {
      "midi": 58,
      "hit": false,
      "t": 184206.25,
      "d": 356.25,
      "v": 81
    },
    {
      "midi": 61,
      "hit": false,
      "t": 184206.25,
      "d": 375,
      "v": 86
    },
    {
      "midi": 54,
      "hit": false,
      "t": 184650,
      "d": 125,
      "v": 68
    },
    {
      "midi": 68,
      "hit": false,
      "t": 184806.25,
      "d": 443.75,
      "v": 79
    },
    {
      "midi": 63,
      "hit": false,
      "t": 184806.25,
      "d": 456.25,
      "v": 81
    },
    {
      "midi": 56,
      "hit": false,
      "t": 184806.25,
      "d": 662.5,
      "v": 94
    },
    {
      "midi": 68,
      "hit": false,
      "t": 185406.25,
      "d": 431.25,
      "v": 79
    },
    {
      "midi": 63,
      "hit": false,
      "t": 185406.25,
      "d": 450,
      "v": 90
    },
    {
      "midi": 56,
      "hit": false,
      "t": 185700,
      "d": 325,
      "v": 90
    },
    {
      "midi": 63,
      "hit": false,
      "t": 186006.25,
      "d": 56.25,
      "v": 65
    },
    {
      "midi": 60,
      "hit": false,
      "t": 186006.25,
      "d": 87.5,
      "v": 69
    },
    {
      "midi": 68,
      "hit": false,
      "t": 186006.25,
      "d": 112.5,
      "v": 73
    },
    {
      "midi": 56,
      "hit": false,
      "t": 186306.25,
      "d": 412.5,
      "v": 94
    },
    {
      "midi": 60,
      "hit": false,
      "t": 186306.25,
      "d": 593.75,
      "v": 85
    },
    {
      "midi": 68,
      "hit": false,
      "t": 186306.25,
      "d": 637.5,
      "v": 73
    },
    {
      "midi": 63,
      "hit": false,
      "t": 186306.25,
      "d": 656.25,
      "v": 81
    },
    {
      "midi": 56,
      "hit": false,
      "t": 186906.25,
      "d": 131.25,
      "v": 74
    },
    {
      "midi": 54,
      "hit": false,
      "t": 187206.25,
      "d": 87.5,
      "v": 83
    },
    {
      "midi": 58,
      "hit": false,
      "t": 187206.25,
      "d": 87.5,
      "v": 74
    },
    {
      "midi": 61,
      "hit": false,
      "t": 187206.25,
      "d": 87.5,
      "v": 76
    },
    {
      "midi": 66,
      "hit": false,
      "t": 187206.25,
      "d": 87.5,
      "v": 73
    },
    {
      "midi": 54,
      "hit": false,
      "t": 187506.25,
      "d": 418.75,
      "v": 83
    },
    {
      "midi": 58,
      "hit": false,
      "t": 187506.25,
      "d": 625,
      "v": 79
    },
    {
      "midi": 66,
      "hit": false,
      "t": 187506.25,
      "d": 643.75,
      "v": 73
    },
    {
      "midi": 61,
      "hit": false,
      "t": 187506.25,
      "d": 656.25,
      "v": 81
    },
    {
      "midi": 54,
      "hit": false,
      "t": 188100,
      "d": 375,
      "v": 75
    },
    {
      "midi": 58,
      "hit": false,
      "t": 188406.25,
      "d": 406.25,
      "v": 77
    },
    {
      "midi": 61,
      "hit": false,
      "t": 188406.25,
      "d": 418.75,
      "v": 83
    },
    {
      "midi": 66,
      "hit": false,
      "t": 188406.25,
      "d": 418.75,
      "v": 77
    },
    {
      "midi": 54,
      "hit": false,
      "t": 188850,
      "d": 281.25,
      "v": 83
    },
    {
      "midi": 58,
      "hit": false,
      "t": 189000,
      "d": 343.75,
      "v": 81
    },
    {
      "midi": 61,
      "hit": false,
      "t": 189006.25,
      "d": 250,
      "v": 90
    },
    {
      "midi": 66,
      "hit": false,
      "t": 189006.25,
      "d": 256.25,
      "v": 77
    },
    {
      "midi": 54,
      "hit": false,
      "t": 189306.25,
      "d": 137.5,
      "v": 77
    },
    {
      "midi": 59,
      "hit": false,
      "t": 189606.25,
      "d": 325,
      "v": 75
    },
    {
      "midi": 64,
      "hit": false,
      "t": 189606.25,
      "d": 343.75,
      "v": 72
    },
    {
      "midi": 56,
      "hit": false,
      "t": 189606.25,
      "d": 350,
      "v": 79
    },
    {
      "midi": 52,
      "hit": false,
      "t": 189606.25,
      "d": 1043.75,
      "v": 90
    },
    {
      "midi": 64,
      "hit": false,
      "t": 190200,
      "d": 418.75,
      "v": 72
    },
    {
      "midi": 56,
      "hit": false,
      "t": 190206.25,
      "d": 400,
      "v": 98
    },
    {
      "midi": 59,
      "hit": false,
      "t": 190206.25,
      "d": 412.5,
      "v": 73
    },
    {
      "midi": 52,
      "hit": false,
      "t": 190650,
      "d": 150,
      "v": 87
    },
    {
      "midi": 56,
      "hit": false,
      "t": 190800,
      "d": 93.75,
      "v": 74
    },
    {
      "midi": 59,
      "hit": false,
      "t": 190806.25,
      "d": 93.75,
      "v": 66
    },
    {
      "midi": 64,
      "hit": false,
      "t": 190806.25,
      "d": 112.5,
      "v": 68
    },
    {
      "midi": 52,
      "hit": false,
      "t": 191106.25,
      "d": 418.75,
      "v": 78
    },
    {
      "midi": 56,
      "hit": false,
      "t": 191106.25,
      "d": 450,
      "v": 79
    },
    {
      "midi": 59,
      "hit": false,
      "t": 191106.25,
      "d": 612.5,
      "v": 73
    },
    {
      "midi": 64,
      "hit": false,
      "t": 191106.25,
      "d": 618.75,
      "v": 71
    },
    {
      "midi": 56,
      "hit": false,
      "t": 191706.25,
      "d": 162.5,
      "v": 63
    },
    {
      "midi": 52,
      "hit": false,
      "t": 191706.25,
      "d": 243.75,
      "v": 57
    },
    {
      "midi": 66,
      "hit": false,
      "t": 192006.25,
      "d": 450,
      "v": 77
    },
    {
      "midi": 58,
      "hit": false,
      "t": 192006.25,
      "d": 456.25,
      "v": 76
    },
    {
      "midi": 61,
      "hit": false,
      "t": 192006.25,
      "d": 487.5,
      "v": 77
    },
    {
      "midi": 54,
      "hit": false,
      "t": 192006.25,
      "d": 650,
      "v": 86
    },
    {
      "midi": 66,
      "hit": false,
      "t": 192600,
      "d": 193.75,
      "v": 77
    },
    {
      "midi": 61,
      "hit": false,
      "t": 192606.25,
      "d": 212.5,
      "v": 77
    },
    {
      "midi": 58,
      "hit": false,
      "t": 192606.25,
      "d": 225,
      "v": 86
    },
    {
      "midi": 54,
      "hit": false,
      "t": 192906.25,
      "d": 137.5,
      "v": 70
    },
    {
      "midi": 52,
      "hit": false,
      "t": 193206.25,
      "d": 650,
      "v": 69
    },
    {
      "midi": 57,
      "hit": false,
      "t": 193206.25,
      "d": 768.75,
      "v": 82
    },
    {
      "midi": 61,
      "hit": false,
      "t": 193206.25,
      "d": 787.5,
      "v": 104
    },
    {
      "midi": 64,
      "hit": false,
      "t": 193206.25,
      "d": 812.5,
      "v": 80
    },
    {
      "midi": 59,
      "hit": false,
      "t": 194406.25,
      "d": 181.25,
      "v": 69
    },
    {
      "midi": 61,
      "hit": false,
      "t": 194406.25,
      "d": 181.25,
      "v": 66
    },
    {
      "midi": 64,
      "hit": false,
      "t": 194406.25,
      "d": 225,
      "v": 69
    },
    {
      "midi": 56,
      "hit": false,
      "t": 194406.25,
      "d": 237.5,
      "v": 75
    },
    {
      "midi": 49,
      "hit": false,
      "t": 194406.25,
      "d": 650,
      "v": 94
    },
    {
      "midi": 61,
      "hit": false,
      "t": 195006.25,
      "d": 206.25,
      "v": 69
    },
    {
      "midi": 56,
      "hit": false,
      "t": 195006.25,
      "d": 287.5,
      "v": 98
    },
    {
      "midi": 64,
      "hit": false,
      "t": 195006.25,
      "d": 331.25,
      "v": 78
    },
    {
      "midi": 59,
      "hit": false,
      "t": 195006.25,
      "d": 443.75,
      "v": 78
    },
    {
      "midi": 56,
      "hit": false,
      "t": 195306.25,
      "d": 56.25,
      "v": 26
    },
    {
      "midi": 49,
      "hit": false,
      "t": 195456.25,
      "d": 62.5,
      "v": 79
    },
    {
      "midi": 49,
      "hit": false,
      "t": 195906.25,
      "d": 50,
      "v": 79
    },
    {
      "midi": 58,
      "hit": false,
      "t": 196200,
      "d": 93.75,
      "v": 75
    },
    {
      "midi": 66,
      "hit": false,
      "t": 196206.25,
      "d": 56.25,
      "v": 68
    },
    {
      "midi": 61,
      "hit": false,
      "t": 196206.25,
      "d": 81.25,
      "v": 74
    },
    {
      "midi": 49,
      "hit": false,
      "t": 196506.25,
      "d": 56.25,
      "v": 75
    },
    {
      "midi": 61,
      "hit": false,
      "t": 196806.25,
      "d": 137.5,
      "v": 58
    },
    {
      "midi": 56,
      "hit": false,
      "t": 196806.25,
      "d": 287.5,
      "v": 90
    },
    {
      "midi": 59,
      "hit": false,
      "t": 196806.25,
      "d": 287.5,
      "v": 68
    },
    {
      "midi": 64,
      "hit": false,
      "t": 196806.25,
      "d": 306.25,
      "v": 70
    },
    {
      "midi": 49,
      "hit": false,
      "t": 197100,
      "d": 50,
      "v": 86
    },
    {
      "midi": 61,
      "hit": false,
      "t": 197400,
      "d": 93.75,
      "v": 74
    },
    {
      "midi": 56,
      "hit": false,
      "t": 197406.25,
      "d": 87.5,
      "v": 90
    },
    {
      "midi": 59,
      "hit": false,
      "t": 197406.25,
      "d": 87.5,
      "v": 80
    },
    {
      "midi": 64,
      "hit": false,
      "t": 197406.25,
      "d": 112.5,
      "v": 78
    },
    {
      "midi": 49,
      "hit": false,
      "t": 197550,
      "d": 62.5,
      "v": 69
    },
    {
      "midi": 59,
      "hit": false,
      "t": 197850,
      "d": 56.25,
      "v": 78
    },
    {
      "midi": 56,
      "hit": false,
      "t": 197850,
      "d": 62.5,
      "v": 79
    },
    {
      "midi": 61,
      "hit": false,
      "t": 197850,
      "d": 62.5,
      "v": 75
    },
    {
      "midi": 64,
      "hit": false,
      "t": 197856.25,
      "d": 100,
      "v": 75
    },
    {
      "midi": 59,
      "hit": false,
      "t": 198150,
      "d": 100,
      "v": 73
    },
    {
      "midi": 56,
      "hit": false,
      "t": 198150,
      "d": 106.25,
      "v": 81
    },
    {
      "midi": 64,
      "hit": false,
      "t": 198150,
      "d": 112.5,
      "v": 73
    },
    {
      "midi": 61,
      "hit": false,
      "t": 198156.25,
      "d": 93.75,
      "v": 67
    },
    {
      "midi": 49,
      "hit": false,
      "t": 198306.25,
      "d": 87.5,
      "v": 79
    },
    {
      "midi": 56,
      "hit": false,
      "t": 198606.25,
      "d": 137.5,
      "v": 90
    },
    {
      "midi": 59,
      "hit": false,
      "t": 198606.25,
      "d": 137.5,
      "v": 85
    },
    {
      "midi": 61,
      "hit": false,
      "t": 198606.25,
      "d": 137.5,
      "v": 76
    },
    {
      "midi": 64,
      "hit": false,
      "t": 198606.25,
      "d": 156.25,
      "v": 85
    },
    {
      "midi": 49,
      "hit": false,
      "t": 198750,
      "d": 393.75,
      "v": 83
    },
    {
      "midi": 61,
      "hit": false,
      "t": 198906.25,
      "d": 81.25,
      "v": 58
    },
    {
      "midi": 59,
      "hit": false,
      "t": 198906.25,
      "d": 87.5,
      "v": 50
    },
    {
      "midi": 56,
      "hit": false,
      "t": 198906.25,
      "d": 106.25,
      "v": 49
    },
    {
      "midi": 64,
      "hit": false,
      "t": 198906.25,
      "d": 118.75,
      "v": 55
    },
    {
      "midi": 59,
      "hit": false,
      "t": 199206.25,
      "d": 337.5,
      "v": 73
    },
    {
      "midi": 56,
      "hit": false,
      "t": 199206.25,
      "d": 343.75,
      "v": 79
    },
    {
      "midi": 64,
      "hit": false,
      "t": 199206.25,
      "d": 387.5,
      "v": 69
    },
    {
      "midi": 52,
      "hit": false,
      "t": 199206.25,
      "d": 1287.5,
      "v": 103
    },
    {
      "midi": 56,
      "hit": false,
      "t": 199800,
      "d": 418.75,
      "v": 94
    },
    {
      "midi": 59,
      "hit": false,
      "t": 199800,
      "d": 462.5,
      "v": 94
    },
    {
      "midi": 64,
      "hit": false,
      "t": 199806.25,
      "d": 456.25,
      "v": 85
    },
    {
      "midi": 56,
      "hit": false,
      "t": 200400,
      "d": 75,
      "v": 68
    },
    {
      "midi": 59,
      "hit": false,
      "t": 200400,
      "d": 75,
      "v": 71
    },
    {
      "midi": 64,
      "hit": false,
      "t": 200406.25,
      "d": 68.75,
      "v": 65
    },
    {
      "midi": 56,
      "hit": false,
      "t": 200706.25,
      "d": 387.5,
      "v": 75
    },
    {
      "midi": 52,
      "hit": false,
      "t": 200706.25,
      "d": 431.25,
      "v": 87
    },
    {
      "midi": 64,
      "hit": false,
      "t": 200706.25,
      "d": 512.5,
      "v": 71
    },
    {
      "midi": 59,
      "hit": false,
      "t": 200706.25,
      "d": 568.75,
      "v": 77
    },
    {
      "midi": 56,
      "hit": false,
      "t": 201306.25,
      "d": 118.75,
      "v": 73
    },
    {
      "midi": 52,
      "hit": false,
      "t": 201306.25,
      "d": 187.5,
      "v": 61
    },
    {
      "midi": 58,
      "hit": false,
      "t": 201606.25,
      "d": 406.25,
      "v": 81
    },
    {
      "midi": 61,
      "hit": false,
      "t": 201606.25,
      "d": 475,
      "v": 79
    },
    {
      "midi": 54,
      "hit": false,
      "t": 201606.25,
      "d": 656.25,
      "v": 94
    },
    {
      "midi": 66,
      "hit": false,
      "t": 201606.25,
      "d": 762.5,
      "v": 77
    },
    {
      "midi": 61,
      "hit": false,
      "t": 202206.25,
      "d": 168.75,
      "v": 28
    },
    {
      "midi": 58,
      "hit": false,
      "t": 202206.25,
      "d": 300,
      "v": 86
    },
    {
      "midi": 54,
      "hit": false,
      "t": 202506.25,
      "d": 137.5,
      "v": 79
    },
    {
      "midi": 57,
      "hit": false,
      "t": 202806.25,
      "d": 550,
      "v": 85
    },
    {
      "midi": 52,
      "hit": false,
      "t": 202806.25,
      "d": 687.5,
      "v": 82
    },
    {
      "midi": 64,
      "hit": false,
      "t": 202806.25,
      "d": 868.75,
      "v": 73
    },
    {
      "midi": 61,
      "hit": false,
      "t": 202806.25,
      "d": 900,
      "v": 86
    },
    {
      "midi": 57,
      "hit": false,
      "t": 203400,
      "d": 181.25,
      "v": 61
    },
    {
      "midi": 52,
      "hit": false,
      "t": 203700,
      "d": 281.25,
      "v": 72
    },
    {
      "midi": 61,
      "hit": false,
      "t": 204006.25,
      "d": 212.5,
      "v": 70
    },
    {
      "midi": 56,
      "hit": false,
      "t": 204006.25,
      "d": 331.25,
      "v": 83
    },
    {
      "midi": 59,
      "hit": false,
      "t": 204006.25,
      "d": 343.75,
      "v": 73
    },
    {
      "midi": 64,
      "hit": false,
      "t": 204006.25,
      "d": 368.75,
      "v": 68
    },
    {
      "midi": 49,
      "hit": false,
      "t": 204006.25,
      "d": 612.5,
      "v": 77
    },
    {
      "midi": 66,
      "hit": false,
      "t": 204600,
      "d": 237.5,
      "v": 76
    },
    {
      "midi": 61,
      "hit": false,
      "t": 204606.25,
      "d": 375,
      "v": 76
    },
    {
      "midi": 58,
      "hit": false,
      "t": 204606.25,
      "d": 418.75,
      "v": 86
    },
    {
      "midi": 49,
      "hit": false,
      "t": 205050,
      "d": 75,
      "v": 86
    },
    {
      "midi": 61,
      "hit": false,
      "t": 205206.25,
      "d": 1.5625,
      "v": 62
    },
    {
      "midi": 56,
      "hit": false,
      "t": 205206.25,
      "d": 81.25,
      "v": 77
    },
    {
      "midi": 59,
      "hit": false,
      "t": 205206.25,
      "d": 81.25,
      "v": 68
    },
    {
      "midi": 64,
      "hit": false,
      "t": 205206.25,
      "d": 87.5,
      "v": 65
    },
    {
      "midi": 56,
      "hit": false,
      "t": 205506.25,
      "d": 306.25,
      "v": 79
    },
    {
      "midi": 61,
      "hit": false,
      "t": 205506.25,
      "d": 306.25,
      "v": 68
    },
    {
      "midi": 64,
      "hit": false,
      "t": 205506.25,
      "d": 331.25,
      "v": 72
    },
    {
      "midi": 59,
      "hit": false,
      "t": 205506.25,
      "d": 337.5,
      "v": 71
    },
    {
      "midi": 49,
      "hit": false,
      "t": 205806.25,
      "d": 87.5,
      "v": 90
    },
    {
      "midi": 56,
      "hit": false,
      "t": 205950,
      "d": 162.5,
      "v": 81
    },
    {
      "midi": 61,
      "hit": false,
      "t": 205950,
      "d": 162.5,
      "v": 69
    },
    {
      "midi": 64,
      "hit": false,
      "t": 205950,
      "d": 187.5,
      "v": 72
    },
    {
      "midi": 59,
      "hit": false,
      "t": 205956.25,
      "d": 150,
      "v": 71
    },
    {
      "midi": 49,
      "hit": false,
      "t": 206106.25,
      "d": 300,
      "v": 83
    },
    {
      "midi": 49,
      "hit": false,
      "t": 206406.25,
      "d": 6.25,
      "v": 94
    },
    {
      "midi": 61,
      "hit": false,
      "t": 206406.25,
      "d": 306.25,
      "v": 62
    },
    {
      "midi": 64,
      "hit": false,
      "t": 206406.25,
      "d": 306.25,
      "v": 68
    },
    {
      "midi": 59,
      "hit": false,
      "t": 206406.25,
      "d": 312.5,
      "v": 61
    },
    {
      "midi": 56,
      "hit": false,
      "t": 206406.25,
      "d": 375,
      "v": 67
    },
    {
      "midi": 49,
      "hit": false,
      "t": 206700,
      "d": 262.5,
      "v": 86
    },
    {
      "midi": 61,
      "hit": false,
      "t": 207000,
      "d": 231.25,
      "v": 86
    },
    {
      "midi": 66,
      "hit": false,
      "t": 207000,
      "d": 250,
      "v": 76
    },
    {
      "midi": 58,
      "hit": false,
      "t": 207006.25,
      "d": 350,
      "v": 94
    },
    {
      "midi": 49,
      "hit": false,
      "t": 207450,
      "d": 50,
      "v": 74
    },
    {
      "midi": 56,
      "hit": false,
      "t": 207606.25,
      "d": 462.5,
      "v": 83
    },
    {
      "midi": 59,
      "hit": false,
      "t": 207606.25,
      "d": 662.5,
      "v": 69
    },
    {
      "midi": 61,
      "hit": false,
      "t": 207606.25,
      "d": 800,
      "v": 69
    },
    {
      "midi": 64,
      "hit": false,
      "t": 207606.25,
      "d": 937.5,
      "v": 69
    },
    {
      "midi": 56,
      "hit": false,
      "t": 208206.25,
      "d": 437.5,
      "v": 79
    },
    {
      "midi": 52,
      "hit": false,
      "t": 208806.25,
      "d": 393.75,
      "v": 94
    },
    {
      "midi": 56,
      "hit": false,
      "t": 208806.25,
      "d": 456.25,
      "v": 86
    },
    {
      "midi": 64,
      "hit": false,
      "t": 208806.25,
      "d": 468.75,
      "v": 70
    },
    {
      "midi": 59,
      "hit": false,
      "t": 208806.25,
      "d": 475,
      "v": 68
    },
    {
      "midi": 56,
      "hit": false,
      "t": 209406.25,
      "d": 362.5,
      "v": 94
    },
    {
      "midi": 59,
      "hit": false,
      "t": 209406.25,
      "d": 406.25,
      "v": 80
    },
    {
      "midi": 64,
      "hit": false,
      "t": 209406.25,
      "d": 406.25,
      "v": 73
    },
    {
      "midi": 52,
      "hit": false,
      "t": 209706.25,
      "d": 962.5,
      "v": 70
    },
    {
      "midi": 56,
      "hit": false,
      "t": 210306.25,
      "d": 431.25,
      "v": 83
    },
    {
      "midi": 64,
      "hit": false,
      "t": 210306.25,
      "d": 575,
      "v": 71
    },
    {
      "midi": 59,
      "hit": false,
      "t": 210306.25,
      "d": 718.75,
      "v": 71
    },
    {
      "midi": 56,
      "hit": false,
      "t": 210906.25,
      "d": 100,
      "v": 64
    },
    {
      "midi": 52,
      "hit": false,
      "t": 210906.25,
      "d": 131.25,
      "v": 60
    },
    {
      "midi": 58,
      "hit": false,
      "t": 211206.25,
      "d": 706.25,
      "v": 98
    },
    {
      "midi": 54,
      "hit": false,
      "t": 211206.25,
      "d": 731.25,
      "v": 119
    },
    {
      "midi": 61,
      "hit": false,
      "t": 211206.25,
      "d": 737.5,
      "v": 94
    },
    {
      "midi": 66,
      "hit": false,
      "t": 211206.25,
      "d": 756.25,
      "v": 83
    },
    {
      "midi": 56,
      "hit": false,
      "t": 212406.25,
      "d": 300,
      "v": 127
    },
    {
      "midi": 60,
      "hit": false,
      "t": 212406.25,
      "d": 306.25,
      "v": 108
    },
    {
      "midi": 63,
      "hit": false,
      "t": 212406.25,
      "d": 306.25,
      "v": 111
    },
    {
      "midi": 68,
      "hit": false,
      "t": 212406.25,
      "d": 331.25,
      "v": 90
    },
    {
      "midi": 63,
      "hit": false,
      "t": 213006.25,
      "d": 362.5,
      "v": 119
    },
    {
      "midi": 59,
      "hit": false,
      "t": 213006.25,
      "d": 381.25,
      "v": 98
    },
    {
      "midi": 66,
      "hit": false,
      "t": 213006.25,
      "d": 381.25,
      "v": 111
    },
    {
      "midi": 71,
      "hit": false,
      "t": 213006.25,
      "d": 393.75,
      "v": 103
    },
    {
      "midi": 49,
      "hit": false,
      "t": 213606.25,
      "d": 606.25,
      "v": 94
    },
    {
      "midi": 61,
      "hit": false,
      "t": 214206.25,
      "d": 356.25,
      "v": 75
    },
    {
      "midi": 56,
      "hit": false,
      "t": 214206.25,
      "d": 400,
      "v": 98
    },
    {
      "midi": 64,
      "hit": false,
      "t": 214206.25,
      "d": 406.25,
      "v": 77
    },
    {
      "midi": 59,
      "hit": false,
      "t": 214206.25,
      "d": 431.25,
      "v": 77
    },
    {
      "midi": 49,
      "hit": false,
      "t": 214650,
      "d": 62.5,
      "v": 77
    },
    {
      "midi": 49,
      "hit": false,
      "t": 215106.25,
      "d": 93.75,
      "v": 86
    },
    {
      "midi": 49,
      "hit": false,
      "t": 215250,
      "d": 100,
      "v": 30
    },
    {
      "midi": 61,
      "hit": false,
      "t": 215406.25,
      "d": 68.75,
      "v": 47
    },
    {
      "midi": 64,
      "hit": false,
      "t": 215406.25,
      "d": 112.5,
      "v": 63
    },
    {
      "midi": 59,
      "hit": false,
      "t": 215406.25,
      "d": 250,
      "v": 49
    },
    {
      "midi": 56,
      "hit": false,
      "t": 215406.25,
      "d": 287.5,
      "v": 60
    },
    {
      "midi": 64,
      "hit": false,
      "t": 215706.25,
      "d": 118.75,
      "v": 33
    },
    {
      "midi": 49,
      "hit": false,
      "t": 215706.25,
      "d": 306.25,
      "v": 83
    },
    {
      "midi": 61,
      "hit": false,
      "t": 216156.25,
      "d": 462.5,
      "v": 98
    },
    {
      "midi": 49,
      "hit": false,
      "t": 216156.25,
      "d": 481.25,
      "v": 94
    },
    {
      "midi": 52,
      "hit": false,
      "t": 216600,
      "d": 387.5,
      "v": 73
    },
    {
      "midi": 64,
      "hit": false,
      "t": 216606.25,
      "d": 412.5,
      "v": 73
    },
    {
      "midi": 61,
      "hit": false,
      "t": 217056.25,
      "d": 250,
      "v": 77
    },
    {
      "midi": 49,
      "hit": false,
      "t": 217056.25,
      "d": 268.75,
      "v": 81
    },
    {
      "midi": 47,
      "hit": false,
      "t": 217506.25,
      "d": 381.25,
      "v": 69
    },
    {
      "midi": 59,
      "hit": false,
      "t": 217800,
      "d": 387.5,
      "v": 90
    },
    {
      "midi": 61,
      "hit": false,
      "t": 217800,
      "d": 400,
      "v": 90
    },
    {
      "midi": 47,
      "hit": false,
      "t": 218106.25,
      "d": 137.5,
      "v": 71
    },
    {
      "midi": 52,
      "hit": false,
      "t": 218406.25,
      "d": 56.25,
      "v": 80
    },
    {
      "midi": 49,
      "hit": false,
      "t": 218700,
      "d": 293.75,
      "v": 94
    },
    {
      "midi": 56,
      "hit": false,
      "t": 219000,
      "d": 400,
      "v": 86
    },
    {
      "midi": 64,
      "hit": false,
      "t": 219006.25,
      "d": 412.5,
      "v": 72
    },
    {
      "midi": 59,
      "hit": false,
      "t": 219006.25,
      "d": 425,
      "v": 72
    },
    {
      "midi": 61,
      "hit": false,
      "t": 219006.25,
      "d": 425,
      "v": 73
    },
    {
      "midi": 49,
      "hit": false,
      "t": 219450,
      "d": 87.5,
      "v": 86
    },
    {
      "midi": 61,
      "hit": false,
      "t": 219606.25,
      "d": 37.5,
      "v": 54
    },
    {
      "midi": 66,
      "hit": false,
      "t": 219606.25,
      "d": 37.5,
      "v": 56
    },
    {
      "midi": 58,
      "hit": false,
      "t": 219606.25,
      "d": 56.25,
      "v": 54
    },
    {
      "midi": 49,
      "hit": false,
      "t": 219906.25,
      "d": 306.25,
      "v": 81
    },
    {
      "midi": 61,
      "hit": false,
      "t": 220206.25,
      "d": 162.5,
      "v": 64
    },
    {
      "midi": 64,
      "hit": false,
      "t": 220206.25,
      "d": 212.5,
      "v": 67
    },
    {
      "midi": 59,
      "hit": false,
      "t": 220206.25,
      "d": 293.75,
      "v": 62
    },
    {
      "midi": 56,
      "hit": false,
      "t": 220206.25,
      "d": 300,
      "v": 69
    },
    {
      "midi": 49,
      "hit": false,
      "t": 220506.25,
      "d": 181.25,
      "v": 71
    },
    {
      "midi": 58,
      "hit": false,
      "t": 220806.25,
      "d": 112.5,
      "v": 73
    },
    {
      "midi": 61,
      "hit": false,
      "t": 220806.25,
      "d": 112.5,
      "v": 74
    },
    {
      "midi": 66,
      "hit": false,
      "t": 220806.25,
      "d": 131.25,
      "v": 73
    },
    {
      "midi": 58,
      "hit": false,
      "t": 221100,
      "d": 87.5,
      "v": 33
    },
    {
      "midi": 61,
      "hit": false,
      "t": 221100,
      "d": 87.5,
      "v": 28
    },
    {
      "midi": 66,
      "hit": false,
      "t": 221100,
      "d": 87.5,
      "v": 45
    },
    {
      "midi": 58,
      "hit": false,
      "t": 221406.25,
      "d": 150,
      "v": 81
    },
    {
      "midi": 61,
      "hit": false,
      "t": 221406.25,
      "d": 156.25,
      "v": 81
    },
    {
      "midi": 66,
      "hit": false,
      "t": 221406.25,
      "d": 175,
      "v": 76
    },
    {
      "midi": 58,
      "hit": false,
      "t": 221706.25,
      "d": 93.75,
      "v": 37
    },
    {
      "midi": 66,
      "hit": false,
      "t": 221706.25,
      "d": 106.25,
      "v": 54
    },
    {
      "midi": 61,
      "hit": false,
      "t": 221706.25,
      "d": 112.5,
      "v": 42
    },
    {
      "midi": 58,
      "hit": false,
      "t": 222006.25,
      "d": 62.5,
      "v": 64
    },
    {
      "midi": 66,
      "hit": false,
      "t": 222006.25,
      "d": 81.25,
      "v": 70
    },
    {
      "midi": 61,
      "hit": false,
      "t": 222006.25,
      "d": 87.5,
      "v": 63
    },
    {
      "midi": 58,
      "hit": false,
      "t": 222306.25,
      "d": 43.75,
      "v": 40
    },
    {
      "midi": 61,
      "hit": false,
      "t": 222306.25,
      "d": 68.75,
      "v": 36
    },
    {
      "midi": 66,
      "hit": false,
      "t": 222306.25,
      "d": 68.75,
      "v": 50
    },
    {
      "midi": 61,
      "hit": false,
      "t": 222606.25,
      "d": 225,
      "v": 77
    },
    {
      "midi": 66,
      "hit": false,
      "t": 222606.25,
      "d": 256.25,
      "v": 75
    },
    {
      "midi": 58,
      "hit": false,
      "t": 222606.25,
      "d": 400,
      "v": 77
    },
    {
      "midi": 56,
      "hit": false,
      "t": 223206.25,
      "d": 87.5,
      "v": 69
    },
    {
      "midi": 59,
      "hit": false,
      "t": 223206.25,
      "d": 87.5,
      "v": 59
    },
    {
      "midi": 61,
      "hit": false,
      "t": 223206.25,
      "d": 87.5,
      "v": 64
    },
    {
      "midi": 64,
      "hit": false,
      "t": 223206.25,
      "d": 93.75,
      "v": 64
    },
    {
      "midi": 64,
      "hit": false,
      "t": 223500,
      "d": 56.25,
      "v": 43
    },
    {
      "midi": 59,
      "hit": false,
      "t": 223500,
      "d": 87.5,
      "v": 49
    },
    {
      "midi": 56,
      "hit": false,
      "t": 223500,
      "d": 93.75,
      "v": 48
    },
    {
      "midi": 61,
      "hit": false,
      "t": 223506.25,
      "d": 50,
      "v": 47
    },
    {
      "midi": 58,
      "hit": false,
      "t": 223800,
      "d": 418.75,
      "v": 83
    },
    {
      "midi": 66,
      "hit": false,
      "t": 223806.25,
      "d": 406.25,
      "v": 76
    },
    {
      "midi": 61,
      "hit": false,
      "t": 223806.25,
      "d": 481.25,
      "v": 83
    },
    {
      "midi": 61,
      "hit": false,
      "t": 224406.25,
      "d": 43.75,
      "v": 57
    },
    {
      "midi": 59,
      "hit": false,
      "t": 224406.25,
      "d": 75,
      "v": 61
    },
    {
      "midi": 56,
      "hit": false,
      "t": 224406.25,
      "d": 106.25,
      "v": 67
    },
    {
      "midi": 64,
      "hit": false,
      "t": 224406.25,
      "d": 106.25,
      "v": 64
    },
    {
      "midi": 56,
      "hit": false,
      "t": 224706.25,
      "d": 87.5,
      "v": 58
    },
    {
      "midi": 59,
      "hit": false,
      "t": 224706.25,
      "d": 87.5,
      "v": 55
    },
    {
      "midi": 61,
      "hit": false,
      "t": 224706.25,
      "d": 87.5,
      "v": 57
    },
    {
      "midi": 64,
      "hit": false,
      "t": 224706.25,
      "d": 112.5,
      "v": 51
    },
    {
      "midi": 56,
      "hit": false,
      "t": 225150,
      "d": 100,
      "v": 62
    },
    {
      "midi": 59,
      "hit": false,
      "t": 225150,
      "d": 100,
      "v": 56
    },
    {
      "midi": 64,
      "hit": false,
      "t": 225150,
      "d": 106.25,
      "v": 58
    },
    {
      "midi": 61,
      "hit": false,
      "t": 225156.25,
      "d": 93.75,
      "v": 58
    },
    {
      "midi": 61,
      "hit": false,
      "t": 225450,
      "d": 100,
      "v": 66
    },
    {
      "midi": 56,
      "hit": false,
      "t": 225450,
      "d": 106.25,
      "v": 57
    },
    {
      "midi": 64,
      "hit": false,
      "t": 225450,
      "d": 112.5,
      "v": 54
    },
    {
      "midi": 59,
      "hit": false,
      "t": 225456.25,
      "d": 100,
      "v": 62
    },
    {
      "midi": 59,
      "hit": false,
      "t": 225900,
      "d": 100,
      "v": 56
    },
    {
      "midi": 64,
      "hit": false,
      "t": 225900,
      "d": 106.25,
      "v": 61
    },
    {
      "midi": 56,
      "hit": false,
      "t": 225906.25,
      "d": 93.75,
      "v": 66
    },
    {
      "midi": 61,
      "hit": false,
      "t": 225906.25,
      "d": 93.75,
      "v": 55
    },
    {
      "midi": 58,
      "hit": false,
      "t": 226200,
      "d": 437.5,
      "v": 86
    },
    {
      "midi": 66,
      "hit": false,
      "t": 226200,
      "d": 437.5,
      "v": 77
    },
    {
      "midi": 61,
      "hit": false,
      "t": 226206.25,
      "d": 543.75,
      "v": 81
    },
    {
      "midi": 56,
      "hit": false,
      "t": 226806.25,
      "d": 87.5,
      "v": 71
    },
    {
      "midi": 59,
      "hit": false,
      "t": 226806.25,
      "d": 87.5,
      "v": 58
    },
    {
      "midi": 61,
      "hit": false,
      "t": 226806.25,
      "d": 87.5,
      "v": 28
    },
    {
      "midi": 64,
      "hit": false,
      "t": 226806.25,
      "d": 87.5,
      "v": 64
    },
    {
      "midi": 59,
      "hit": false,
      "t": 227106.25,
      "d": 43.75,
      "v": 53
    },
    {
      "midi": 61,
      "hit": false,
      "t": 227106.25,
      "d": 87.5,
      "v": 56
    },
    {
      "midi": 56,
      "hit": false,
      "t": 227106.25,
      "d": 93.75,
      "v": 70
    },
    {
      "midi": 64,
      "hit": false,
      "t": 227106.25,
      "d": 100,
      "v": 66
    },
    {
      "midi": 56,
      "hit": false,
      "t": 227550,
      "d": 93.75,
      "v": 70
    },
    {
      "midi": 59,
      "hit": false,
      "t": 227556.25,
      "d": 87.5,
      "v": 62
    },
    {
      "midi": 61,
      "hit": false,
      "t": 227556.25,
      "d": 87.5,
      "v": 62
    },
    {
      "midi": 64,
      "hit": false,
      "t": 227556.25,
      "d": 112.5,
      "v": 67
    },
    {
      "midi": 59,
      "hit": false,
      "t": 227850,
      "d": 275,
      "v": 65
    },
    {
      "midi": 56,
      "hit": false,
      "t": 227850,
      "d": 287.5,
      "v": 69
    },
    {
      "midi": 61,
      "hit": false,
      "t": 227856.25,
      "d": 218.75,
      "v": 69
    },
    {
      "midi": 64,
      "hit": false,
      "t": 227856.25,
      "d": 275,
      "v": 67
    },
    {
      "midi": 59,
      "hit": false,
      "t": 228300,
      "d": 100,
      "v": 77
    },
    {
      "midi": 56,
      "hit": false,
      "t": 228300,
      "d": 118.75,
      "v": 81
    },
    {
      "midi": 61,
      "hit": false,
      "t": 228306.25,
      "d": 100,
      "v": 76
    },
    {
      "midi": 64,
      "hit": false,
      "t": 228306.25,
      "d": 125,
      "v": 77
    },
    {
      "midi": 59,
      "hit": false,
      "t": 228906.25,
      "d": 87.5,
      "v": 70
    },
    {
      "midi": 61,
      "hit": false,
      "t": 228906.25,
      "d": 87.5,
      "v": 73
    },
    {
      "midi": 64,
      "hit": false,
      "t": 228906.25,
      "d": 87.5,
      "v": 72
    },
    {
      "midi": 56,
      "hit": false,
      "t": 228906.25,
      "d": 93.75,
      "v": 79
    },
    {
      "midi": 59,
      "hit": false,
      "t": 229206.25,
      "d": 93.75,
      "v": 54
    },
    {
      "midi": 61,
      "hit": false,
      "t": 229206.25,
      "d": 93.75,
      "v": 53
    },
    {
      "midi": 56,
      "hit": false,
      "t": 229206.25,
      "d": 100,
      "v": 58
    },
    {
      "midi": 64,
      "hit": false,
      "t": 229206.25,
      "d": 100,
      "v": 58
    },
    {
      "midi": 56,
      "hit": false,
      "t": 229506.25,
      "d": 100,
      "v": 74
    },
    {
      "midi": 59,
      "hit": false,
      "t": 229506.25,
      "d": 100,
      "v": 66
    },
    {
      "midi": 61,
      "hit": false,
      "t": 229506.25,
      "d": 100,
      "v": 65
    },
    {
      "midi": 64,
      "hit": false,
      "t": 229506.25,
      "d": 118.75,
      "v": 68
    },
    {
      "midi": 56,
      "hit": false,
      "t": 229806.25,
      "d": 93.75,
      "v": 47
    },
    {
      "midi": 59,
      "hit": false,
      "t": 229806.25,
      "d": 93.75,
      "v": 45
    },
    {
      "midi": 61,
      "hit": false,
      "t": 229806.25,
      "d": 93.75,
      "v": 37
    },
    {
      "midi": 64,
      "hit": false,
      "t": 229806.25,
      "d": 100,
      "v": 47
    },
    {
      "midi": 56,
      "hit": false,
      "t": 230106.25,
      "d": 143.75,
      "v": 75
    },
    {
      "midi": 59,
      "hit": false,
      "t": 230106.25,
      "d": 156.25,
      "v": 68
    },
    {
      "midi": 64,
      "hit": false,
      "t": 230106.25,
      "d": 156.25,
      "v": 72
    },
    {
      "midi": 61,
      "hit": false,
      "t": 230106.25,
      "d": 193.75,
      "v": 67
    },
    {
      "midi": 61,
      "hit": false,
      "t": 230406.25,
      "d": 37.5,
      "v": 69
    },
    {
      "midi": 58,
      "hit": false,
      "t": 230406.25,
      "d": 75,
      "v": 70
    },
    {
      "midi": 66,
      "hit": false,
      "t": 230406.25,
      "d": 100,
      "v": 70
    },
    {
      "midi": 58,
      "hit": false,
      "t": 230700,
      "d": 81.25,
      "v": 64
    },
    {
      "midi": 66,
      "hit": false,
      "t": 230700,
      "d": 81.25,
      "v": 67
    },
    {
      "midi": 61,
      "hit": false,
      "t": 230706.25,
      "d": 75,
      "v": 62
    },
    {
      "midi": 61,
      "hit": false,
      "t": 231000,
      "d": 93.75,
      "v": 75
    },
    {
      "midi": 66,
      "hit": false,
      "t": 231006.25,
      "d": 62.5,
      "v": 69
    },
    {
      "midi": 58,
      "hit": false,
      "t": 231006.25,
      "d": 81.25,
      "v": 75
    },
    {
      "midi": 58,
      "hit": false,
      "t": 231450,
      "d": 75,
      "v": 64
    },
    {
      "midi": 61,
      "hit": false,
      "t": 231450,
      "d": 81.25,
      "v": 66
    },
    {
      "midi": 66,
      "hit": false,
      "t": 231450,
      "d": 81.25,
      "v": 67
    },
    {
      "midi": 58,
      "hit": false,
      "t": 231750,
      "d": 81.25,
      "v": 65
    },
    {
      "midi": 61,
      "hit": false,
      "t": 231750,
      "d": 81.25,
      "v": 65
    },
    {
      "midi": 66,
      "hit": false,
      "t": 231750,
      "d": 81.25,
      "v": 67
    },
    {
      "midi": 66,
      "hit": false,
      "t": 232206.25,
      "d": 268.75,
      "v": 74
    },
    {
      "midi": 61,
      "hit": false,
      "t": 232206.25,
      "d": 300,
      "v": 75
    },
    {
      "midi": 58,
      "hit": false,
      "t": 232206.25,
      "d": 368.75,
      "v": 77
    },
    {
      "midi": 59,
      "hit": false,
      "t": 232806.25,
      "d": 43.75,
      "v": 66
    },
    {
      "midi": 61,
      "hit": false,
      "t": 232806.25,
      "d": 43.75,
      "v": 63
    },
    {
      "midi": 56,
      "hit": false,
      "t": 232806.25,
      "d": 75,
      "v": 73
    },
    {
      "midi": 64,
      "hit": false,
      "t": 232806.25,
      "d": 75,
      "v": 60
    },
    {
      "midi": 61,
      "hit": false,
      "t": 233100,
      "d": 56.25,
      "v": 65
    },
    {
      "midi": 59,
      "hit": false,
      "t": 233106.25,
      "d": 50,
      "v": 60
    },
    {
      "midi": 56,
      "hit": false,
      "t": 233106.25,
      "d": 56.25,
      "v": 71
    },
    {
      "midi": 64,
      "hit": false,
      "t": 233106.25,
      "d": 56.25,
      "v": 62
    },
    {
      "midi": 66,
      "hit": false,
      "t": 233400,
      "d": 312.5,
      "v": 77
    },
    {
      "midi": 58,
      "hit": false,
      "t": 233406.25,
      "d": 400,
      "v": 86
    },
    {
      "midi": 61,
      "hit": false,
      "t": 233406.25,
      "d": 506.25,
      "v": 79
    },
    {
      "midi": 56,
      "hit": false,
      "t": 234000,
      "d": 93.75,
      "v": 70
    },
    {
      "midi": 61,
      "hit": false,
      "t": 234006.25,
      "d": 81.25,
      "v": 68
    },
    {
      "midi": 59,
      "hit": false,
      "t": 234006.25,
      "d": 87.5,
      "v": 67
    },
    {
      "midi": 64,
      "hit": false,
      "t": 234006.25,
      "d": 87.5,
      "v": 64
    },
    {
      "midi": 56,
      "hit": false,
      "t": 234306.25,
      "d": 100,
      "v": 66
    },
    {
      "midi": 59,
      "hit": false,
      "t": 234306.25,
      "d": 100,
      "v": 62
    },
    {
      "midi": 61,
      "hit": false,
      "t": 234306.25,
      "d": 100,
      "v": 66
    },
    {
      "midi": 64,
      "hit": false,
      "t": 234306.25,
      "d": 100,
      "v": 60
    },
    {
      "midi": 64,
      "hit": false,
      "t": 234606.25,
      "d": 50,
      "v": 56
    },
    {
      "midi": 59,
      "hit": false,
      "t": 234606.25,
      "d": 87.5,
      "v": 57
    },
    {
      "midi": 61,
      "hit": false,
      "t": 234606.25,
      "d": 87.5,
      "v": 62
    },
    {
      "midi": 56,
      "hit": false,
      "t": 234606.25,
      "d": 93.75,
      "v": 68
    },
    {
      "midi": 56,
      "hit": false,
      "t": 234906.25,
      "d": 93.75,
      "v": 65
    },
    {
      "midi": 59,
      "hit": false,
      "t": 234906.25,
      "d": 93.75,
      "v": 57
    },
    {
      "midi": 61,
      "hit": false,
      "t": 234906.25,
      "d": 93.75,
      "v": 58
    },
    {
      "midi": 64,
      "hit": false,
      "t": 234906.25,
      "d": 93.75,
      "v": 61
    },
    {
      "midi": 61,
      "hit": false,
      "t": 235206.25,
      "d": 50,
      "v": 41
    },
    {
      "midi": 56,
      "hit": false,
      "t": 235206.25,
      "d": 100,
      "v": 44
    },
    {
      "midi": 59,
      "hit": false,
      "t": 235206.25,
      "d": 100,
      "v": 47
    },
    {
      "midi": 64,
      "hit": false,
      "t": 235206.25,
      "d": 100,
      "v": 49
    },
    {
      "midi": 64,
      "hit": false,
      "t": 235500,
      "d": 81.25,
      "v": 51
    },
    {
      "midi": 61,
      "hit": false,
      "t": 235506.25,
      "d": 43.75,
      "v": 45
    },
    {
      "midi": 56,
      "hit": false,
      "t": 235506.25,
      "d": 50,
      "v": 48
    },
    {
      "midi": 59,
      "hit": false,
      "t": 235506.25,
      "d": 56.25,
      "v": 47
    },
    {
      "midi": 58,
      "hit": false,
      "t": 235800,
      "d": 350,
      "v": 81
    },
    {
      "midi": 66,
      "hit": false,
      "t": 235806.25,
      "d": 218.75,
      "v": 76
    },
    {
      "midi": 61,
      "hit": false,
      "t": 235806.25,
      "d": 418.75,
      "v": 77
    },
    {
      "midi": 61,
      "hit": false,
      "t": 236406.25,
      "d": 43.75,
      "v": 62
    },
    {
      "midi": 59,
      "hit": false,
      "t": 236406.25,
      "d": 75,
      "v": 60
    },
    {
      "midi": 56,
      "hit": false,
      "t": 236406.25,
      "d": 81.25,
      "v": 69
    },
    {
      "midi": 64,
      "hit": false,
      "t": 236406.25,
      "d": 81.25,
      "v": 63
    },
    {
      "midi": 61,
      "hit": false,
      "t": 236706.25,
      "d": 312.5,
      "v": 65
    },
    {
      "midi": 56,
      "hit": false,
      "t": 236706.25,
      "d": 368.75,
      "v": 66
    },
    {
      "midi": 59,
      "hit": false,
      "t": 236706.25,
      "d": 387.5,
      "v": 61
    },
    {
      "midi": 64,
      "hit": false,
      "t": 236706.25,
      "d": 406.25,
      "v": 63
    },
    {
      "midi": 61,
      "hit": false,
      "t": 237306.25,
      "d": 43.75,
      "v": 53
    },
    {
      "midi": 56,
      "hit": false,
      "t": 237306.25,
      "d": 87.5,
      "v": 50
    },
    {
      "midi": 59,
      "hit": false,
      "t": 237306.25,
      "d": 93.75,
      "v": 47
    },
    {
      "midi": 64,
      "hit": false,
      "t": 237306.25,
      "d": 118.75,
      "v": 51
    },
    {
      "midi": 56,
      "hit": false,
      "t": 237606.25,
      "d": 100,
      "v": 90
    },
    {
      "midi": 59,
      "hit": false,
      "t": 237606.25,
      "d": 100,
      "v": 71
    },
    {
      "midi": 61,
      "hit": false,
      "t": 237606.25,
      "d": 100,
      "v": 71
    },
    {
      "midi": 64,
      "hit": false,
      "t": 237606.25,
      "d": 112.5,
      "v": 70
    },
    {
      "midi": 44,
      "hit": false,
      "t": 238206.25,
      "d": 3031.25,
      "v": 119
    },
    {
      "midi": 59,
      "hit": false,
      "t": 238206.25,
      "d": 3431.25,
      "v": 98
    },
    {
      "midi": 71,
      "hit": false,
      "t": 238206.25,
      "d": 3443.75,
      "v": 98
    },
    {
      "midi": 66,
      "hit": false,
      "t": 238206.25,
      "d": 3550,
      "v": 98
    },
    {
      "midi": 44,
      "hit": false,
      "t": 241506.25,
      "d": 293.75,
      "v": 51
    },
    {
      "midi": 47,
      "hit": false,
      "t": 241800,
      "d": 306.25,
      "v": 78
    },
    {
      "midi": 44,
      "hit": false,
      "t": 242100,
      "d": 87.5,
      "v": 62
    },
    {
      "midi": 49,
      "hit": false,
      "t": 242406.25,
      "d": 768.75,
      "v": 94
    },
    {
      "midi": 64,
      "hit": false,
      "t": 242406.25,
      "d": 1037.5,
      "v": 71
    },
    {
      "midi": 61,
      "hit": false,
      "t": 242406.25,
      "d": 1056.25,
      "v": 71
    },
    {
      "midi": 59,
      "hit": false,
      "t": 242406.25,
      "d": 1112.5,
      "v": 73
    },
    {
      "midi": 56,
      "hit": false,
      "t": 242406.25,
      "d": 1118.75,
      "v": 94
    },
    {
      "midi": 37,
      "hit": false,
      "t": 242406.25,
      "d": 1131.25,
      "v": 86
    }
  ]
}