{
  "jsonPath": "Unknown/Unknown/Frankie YankovicWalter Ostanek/walters-medley.json",
  "path": "Unknown\\Unknown\\Frankie YankovicWalter Ostanek\\Walters Medley.mid",
  "name": "Walters Medley",
  "difficulty": "Advanced",
  "bpm": 120,
  "notes": [
    {
      "midi": 67,
      "hit": false,
      "t": 2000,
      "d": 130.20833333333348,
      "v": 77
    },
    {
      "midi": 70,
      "hit": false,
      "t": 2000,
      "d": 130.20833333333348,
      "v": 83
    },
    {
      "midi": 75,
      "hit": false,
      "t": 2000,
      "d": 140.625,
      "v": 89
    },
    {
      "midi": 68,
      "hit": false,
      "t": 2875,
      "d": 914.0625,
      "v": 86
    },
    {
      "midi": 72,
      "hit": false,
      "t": 2875,
      "d": 914.0625,
      "v": 86
    },
    {
      "midi": 75,
      "hit": false,
      "t": 2875,
      "d": 947.9166666666665,
      "v": 77
    },
    {
      "midi": 65,
      "hit": false,
      "t": 4000,
      "d": 109.375,
      "v": 83
    },
    {
      "midi": 70,
      "hit": false,
      "t": 4000,
      "d": 114.58333333333303,
      "v": 83
    },
    {
      "midi": 74,
      "hit": false,
      "t": 4000,
      "d": 130.20833333333303,
      "v": 89
    },
    {
      "midi": 65,
      "hit": false,
      "t": 4500,
      "d": 408.85416666666697,
      "v": 86
    },
    {
      "midi": 74,
      "hit": false,
      "t": 4500,
      "d": 421.875,
      "v": 86
    },
    {
      "midi": 70,
      "hit": false,
      "t": 4500,
      "d": 424.47916666666697,
      "v": 83
    },
    {
      "midi": 70,
      "hit": false,
      "t": 5000,
      "d": 98.95833333333303,
      "v": 71
    },
    {
      "midi": 67,
      "hit": false,
      "t": 5000,
      "d": 114.58333333333303,
      "v": 77
    },
    {
      "midi": 75,
      "hit": false,
      "t": 5000,
      "d": 119.79166666666606,
      "v": 95
    },
    {
      "midi": 53,
      "hit": false,
      "t": 18000,
      "d": 838.5416666666679,
      "v": 71
    },
    {
      "midi": 60,
      "hit": false,
      "t": 18000,
      "d": 856.7708333333358,
      "v": 83
    },
    {
      "midi": 57,
      "hit": false,
      "t": 18000,
      "d": 875.0000000000036,
      "v": 74
    },
    {
      "midi": 53,
      "hit": false,
      "t": 19000.000000000004,
      "d": 697.9166666666679,
      "v": 74
    },
    {
      "midi": 62,
      "hit": false,
      "t": 19000.000000000004,
      "d": 713.5416666666679,
      "v": 86
    },
    {
      "midi": 58,
      "hit": false,
      "t": 19000.000000000004,
      "d": 750,
      "v": 77
    },
    {
      "midi": 57,
      "hit": false,
      "t": 20000.000000000004,
      "d": 328.125,
      "v": 86
    },
    {
      "midi": 60,
      "hit": false,
      "t": 20000.000000000004,
      "d": 328.125,
      "v": 86
    },
    {
      "midi": 53,
      "hit": false,
      "t": 20000.000000000004,
      "d": 335.9375,
      "v": 74
    },
    {
      "midi": 60,
      "hit": false,
      "t": 20500.000000000004,
      "d": 338.5416666666679,
      "v": 86
    },
    {
      "midi": 53,
      "hit": false,
      "t": 20500.000000000004,
      "d": 343.75,
      "v": 71
    },
    {
      "midi": 57,
      "hit": false,
      "t": 20500.000000000004,
      "d": 364.5833333333321,
      "v": 89
    },
    {
      "midi": 58,
      "hit": false,
      "t": 21000.000000000004,
      "d": 179.6875,
      "v": 86
    },
    {
      "midi": 53,
      "hit": false,
      "t": 21000.000000000004,
      "d": 190.10416666666788,
      "v": 86
    },
    {
      "midi": 62,
      "hit": false,
      "t": 21000.000000000004,
      "d": 200.52083333333576,
      "v": 92
    },
    {
      "midi": 53,
      "hit": false,
      "t": 34000.00000000001,
      "d": 809.8958333333358,
      "v": 74
    },
    {
      "midi": 57,
      "hit": false,
      "t": 34000.00000000001,
      "d": 856.7708333333358,
      "v": 80
    },
    {
      "midi": 60,
      "hit": false,
      "t": 34000.00000000001,
      "d": 856.7708333333358,
      "v": 83
    },
    {
      "midi": 62,
      "hit": false,
      "t": 35000.00000000001,
      "d": 747.3958333333358,
      "v": 89
    },
    {
      "midi": 53,
      "hit": false,
      "t": 35000.00000000001,
      "d": 750,
      "v": 83
    },
    {
      "midi": 58,
      "hit": false,
      "t": 35000.00000000001,
      "d": 802.0833333333358,
      "v": 80
    },
    {
      "midi": 60,
      "hit": false,
      "t": 36000.00000000001,
      "d": 257.8125,
      "v": 89
    },
    {
      "midi": 57,
      "hit": false,
      "t": 36000.00000000001,
      "d": 289.0625,
      "v": 89
    },
    {
      "midi": 53,
      "hit": false,
      "t": 36000.00000000001,
      "d": 304.6875,
      "v": 83
    },
    {
      "midi": 60,
      "hit": false,
      "t": 36500.00000000001,
      "d": 239.58333333333576,
      "v": 89
    },
    {
      "midi": 53,
      "hit": false,
      "t": 36500.00000000001,
      "d": 270.83333333333576,
      "v": 86
    },
    {
      "midi": 57,
      "hit": false,
      "t": 36500.00000000001,
      "d": 281.25,
      "v": 89
    },
    {
      "midi": 53,
      "hit": false,
      "t": 37000.00000000001,
      "d": 88.54166666666424,
      "v": 86
    },
    {
      "midi": 58,
      "hit": false,
      "t": 37000.00000000001,
      "d": 91.14583333332848,
      "v": 86
    },
    {
      "midi": 62,
      "hit": false,
      "t": 37000.00000000001,
      "d": 91.14583333332848,
      "v": 89
    },
    {
      "midi": 62,
      "hit": false,
      "t": 37250,
      "d": 78.125,
      "v": 89
    },
    {
      "midi": 58,
      "hit": false,
      "t": 37250,
      "d": 85.9375,
      "v": 86
    },
    {
      "midi": 53,
      "hit": false,
      "t": 37250,
      "d": 96.35416666666424,
      "v": 86
    },
    {
      "midi": 53,
      "hit": false,
      "t": 37500,
      "d": 62.5,
      "v": 92
    },
    {
      "midi": 58,
      "hit": false,
      "t": 37500,
      "d": 122.39583333333576,
      "v": 89
    },
    {
      "midi": 62,
      "hit": false,
      "t": 37500,
      "d": 130.20833333333576,
      "v": 89
    },
    {
      "midi": 67,
      "hit": false,
      "t": 38000,
      "d": 1851.5625,
      "v": 52
    },
    {
      "midi": 75,
      "hit": false,
      "t": 38000,
      "d": 1908.8541666666642,
      "v": 58
    },
    {
      "midi": 70,
      "hit": false,
      "t": 38000,
      "d": 1927.0833333333285,
      "v": 56
    },
    {
      "midi": 65,
      "hit": false,
      "t": 39999.99999999999,
      "d": 1888.0208333333358,
      "v": 64
    },
    {
      "midi": 74,
      "hit": false,
      "t": 39999.99999999999,
      "d": 1895.8333333333358,
      "v": 62
    },
    {
      "midi": 70,
      "hit": false,
      "t": 39999.99999999999,
      "d": 1903.6458333333358,
      "v": 58
    },
    {
      "midi": 65,
      "hit": false,
      "t": 41999.99999999999,
      "d": 1846.3541666666642,
      "v": 62
    },
    {
      "midi": 70,
      "hit": false,
      "t": 41999.99999999999,
      "d": 1885.4166666666642,
      "v": 66
    },
    {
      "midi": 74,
      "hit": false,
      "t": 41999.99999999999,
      "d": 1885.4166666666642,
      "v": 68
    },
    {
      "midi": 70,
      "hit": false,
      "t": 43999.99999999999,
      "d": 1906.25,
      "v": 56
    },
    {
      "midi": 75,
      "hit": false,
      "t": 43999.99999999999,
      "d": 1914.0625,
      "v": 74
    },
    {
      "midi": 67,
      "hit": false,
      "t": 43999.99999999999,
      "d": 1924.4791666666642,
      "v": 60
    },
    {
      "midi": 67,
      "hit": false,
      "t": 45999.99999999999,
      "d": 898.4375,
      "v": 58
    },
    {
      "midi": 70,
      "hit": false,
      "t": 45999.99999999999,
      "d": 903.6458333333358,
      "v": 60
    },
    {
      "midi": 75,
      "hit": false,
      "t": 45999.99999999999,
      "d": 924.4791666666715,
      "v": 68
    },
    {
      "midi": 73,
      "hit": false,
      "t": 47000,
      "d": 718.75,
      "v": 71
    },
    {
      "midi": 70,
      "hit": false,
      "t": 47000,
      "d": 760.4166666666642,
      "v": 68
    },
    {
      "midi": 67,
      "hit": false,
      "t": 47000,
      "d": 861.9791666666642,
      "v": 64
    },
    {
      "midi": 72,
      "hit": false,
      "t": 48000,
      "d": 807.2916666666642,
      "v": 71
    },
    {
      "midi": 68,
      "hit": false,
      "t": 48000,
      "d": 812.5,
      "v": 62
    },
    {
      "midi": 63,
      "hit": false,
      "t": 48000,
      "d": 888.0208333333358,
      "v": 60
    },
    {
      "midi": 63,
      "hit": false,
      "t": 49000,
      "d": 802.0833333333358,
      "v": 74
    },
    {
      "midi": 72,
      "hit": false,
      "t": 49000,
      "d": 807.2916666666715,
      "v": 80
    },
    {
      "midi": 66,
      "hit": false,
      "t": 49000,
      "d": 809.8958333333358,
      "v": 74
    },
    {
      "midi": 70,
      "hit": false,
      "t": 50000,
      "d": 130.20833333333576,
      "v": 83
    },
    {
      "midi": 75,
      "hit": false,
      "t": 50000,
      "d": 135.41666666667152,
      "v": 83
    },
    {
      "midi": 67,
      "hit": false,
      "t": 50000,
      "d": 145.83333333333576,
      "v": 74
    },
    {
      "midi": 63,
      "hit": false,
      "t": 52000,
      "d": 101.5625,
      "v": 66
    },
    {
      "midi": 72,
      "hit": false,
      "t": 52000,
      "d": 111.97916666666424,
      "v": 74
    },
    {
      "midi": 68,
      "hit": false,
      "t": 52000,
      "d": 127.60416666666424,
      "v": 71
    },
    {
      "midi": 65,
      "hit": false,
      "t": 52500,
      "d": 96.35416666666424,
      "v": 83
    },
    {
      "midi": 70,
      "hit": false,
      "t": 52500,
      "d": 111.97916666666424,
      "v": 86
    },
    {
      "midi": 74,
      "hit": false,
      "t": 52500,
      "d": 119.79166666666424,
      "v": 77
    },
    {
      "midi": 70,
      "hit": false,
      "t": 53000,
      "d": 72.91666666666424,
      "v": 71
    },
    {
      "midi": 67,
      "hit": false,
      "t": 53000,
      "d": 93.75,
      "v": 80
    },
    {
      "midi": 75,
      "hit": false,
      "t": 53000,
      "d": 96.35416666666424,
      "v": 83
    },
    {
      "midi": 67,
      "hit": false,
      "t": 54000,
      "d": 1851.5625,
      "v": 52
    },
    {
      "midi": 75,
      "hit": false,
      "t": 54000,
      "d": 1908.8541666666642,
      "v": 58
    },
    {
      "midi": 70,
      "hit": false,
      "t": 54000,
      "d": 1927.0833333333285,
      "v": 56
    },
    {
      "midi": 65,
      "hit": false,
      "t": 55999.99999999999,
      "d": 1888.0208333333358,
      "v": 64
    },
    {
      "midi": 74,
      "hit": false,
      "t": 55999.99999999999,
      "d": 1895.8333333333358,
      "v": 62
    },
    {
      "midi": 70,
      "hit": false,
      "t": 55999.99999999999,
      "d": 1903.6458333333358,
      "v": 58
    },
    {
      "midi": 65,
      "hit": false,
      "t": 57999.99999999999,
      "d": 1846.3541666666642,
      "v": 62
    },
    {
      "midi": 70,
      "hit": false,
      "t": 57999.99999999999,
      "d": 1885.4166666666642,
      "v": 66
    },
    {
      "midi": 74,
      "hit": false,
      "t": 57999.99999999999,
      "d": 1885.4166666666642,
      "v": 68
    },
    {
      "midi": 70,
      "hit": false,
      "t": 59999.99999999999,
      "d": 1906.25,
      "v": 56
    },
    {
      "midi": 75,
      "hit": false,
      "t": 59999.99999999999,
      "d": 1914.0625,
      "v": 74
    },
    {
      "midi": 67,
      "hit": false,
      "t": 59999.99999999999,
      "d": 1924.4791666666642,
      "v": 60
    },
    {
      "midi": 67,
      "hit": false,
      "t": 61999.99999999999,
      "d": 898.4375,
      "v": 58
    },
    {
      "midi": 70,
      "hit": false,
      "t": 61999.99999999999,
      "d": 903.6458333333358,
      "v": 60
    },
    {
      "midi": 75,
      "hit": false,
      "t": 61999.99999999999,
      "d": 924.4791666666715,
      "v": 68
    },
    {
      "midi": 73,
      "hit": false,
      "t": 63000,
      "d": 718.75,
      "v": 71
    },
    {
      "midi": 70,
      "hit": false,
      "t": 63000,
      "d": 760.4166666666642,
      "v": 68
    },
    {
      "midi": 67,
      "hit": false,
      "t": 63000,
      "d": 861.9791666666642,
      "v": 64
    },
    {
      "midi": 72,
      "hit": false,
      "t": 64000,
      "d": 807.2916666666642,
      "v": 71
    },
    {
      "midi": 68,
      "hit": false,
      "t": 64000,
      "d": 812.5,
      "v": 62
    },
    {
      "midi": 63,
      "hit": false,
      "t": 64000,
      "d": 888.0208333333358,
      "v": 60
    },
    {
      "midi": 63,
      "hit": false,
      "t": 65000,
      "d": 802.0833333333285,
      "v": 74
    },
    {
      "midi": 72,
      "hit": false,
      "t": 65000,
      "d": 807.291666666657,
      "v": 80
    },
    {
      "midi": 66,
      "hit": false,
      "t": 65000,
      "d": 809.8958333333285,
      "v": 74
    },
    {
      "midi": 70,
      "hit": false,
      "t": 66000,
      "d": 130.20833333332848,
      "v": 83
    },
    {
      "midi": 75,
      "hit": false,
      "t": 66000,
      "d": 135.41666666665697,
      "v": 83
    },
    {
      "midi": 67,
      "hit": false,
      "t": 66000,
      "d": 145.83333333332848,
      "v": 74
    },
    {
      "midi": 63,
      "hit": false,
      "t": 68000,
      "d": 101.5625,
      "v": 66
    },
    {
      "midi": 72,
      "hit": false,
      "t": 68000,
      "d": 111.97916666667152,
      "v": 74
    },
    {
      "midi": 68,
      "hit": false,
      "t": 68000,
      "d": 127.60416666667152,
      "v": 71
    },
    {
      "midi": 65,
      "hit": false,
      "t": 68500,
      "d": 96.35416666667152,
      "v": 83
    },
    {
      "midi": 70,
      "hit": false,
      "t": 68500,
      "d": 111.97916666667152,
      "v": 86
    },
    {
      "midi": 74,
      "hit": false,
      "t": 68500,
      "d": 119.79166666667152,
      "v": 77
    },
    {
      "midi": 70,
      "hit": false,
      "t": 69000,
      "d": 72.91666666667152,
      "v": 71
    },
    {
      "midi": 67,
      "hit": false,
      "t": 69000,
      "d": 93.75,
      "v": 80
    },
    {
      "midi": 75,
      "hit": false,
      "t": 69000,
      "d": 96.35416666667152,
      "v": 83
    },
    {
      "midi": 72,
      "hit": false,
      "t": 72000,
      "d": 299.4791666666715,
      "v": 100
    },
    {
      "midi": 75,
      "hit": false,
      "t": 72000,
      "d": 528.6458333333285,
      "v": 111
    },
    {
      "midi": 63,
      "hit": false,
      "t": 72250,
      "d": 320.3125,
      "v": 88
    },
    {
      "midi": 80,
      "hit": false,
      "t": 72500,
      "d": 302.0833333333285,
      "v": 108
    },
    {
      "midi": 68,
      "hit": false,
      "t": 72500,
      "d": 520.8333333333285,
      "v": 100
    },
    {
      "midi": 75,
      "hit": false,
      "t": 72750,
      "d": 231.77083333332848,
      "v": 108
    },
    {
      "midi": 63,
      "hit": false,
      "t": 72750,
      "d": 294.2708333333285,
      "v": 88
    },
    {
      "midi": 72,
      "hit": false,
      "t": 73000,
      "d": 361.9791666666715,
      "v": 96
    },
    {
      "midi": 77,
      "hit": false,
      "t": 73000,
      "d": 549.4791666666715,
      "v": 98
    },
    {
      "midi": 63,
      "hit": false,
      "t": 73250,
      "d": 307.2916666666715,
      "v": 90
    },
    {
      "midi": 68,
      "hit": false,
      "t": 73500,
      "d": 291.6666666666715,
      "v": 92
    },
    {
      "midi": 80,
      "hit": false,
      "t": 73500,
      "d": 463.5416666666715,
      "v": 108
    },
    {
      "midi": 63,
      "hit": false,
      "t": 73750,
      "d": 317.7083333333285,
      "v": 100
    },
    {
      "midi": 70,
      "hit": false,
      "t": 74000,
      "d": 489.5833333333285,
      "v": 92
    },
    {
      "midi": 79,
      "hit": false,
      "t": 74000,
      "d": 1054.6875,
      "v": 114
    },
    {
      "midi": 63,
      "hit": false,
      "t": 74250,
      "d": 281.25,
      "v": 96
    },
    {
      "midi": 67,
      "hit": false,
      "t": 74500,
      "d": 375,
      "v": 100
    },
    {
      "midi": 63,
      "hit": false,
      "t": 74750,
      "d": 281.25,
      "v": 96
    },
    {
      "midi": 70,
      "hit": false,
      "t": 75000,
      "d": 375,
      "v": 104
    },
    {
      "midi": 85,
      "hit": false,
      "t": 75000,
      "d": 854.1666666666715,
      "v": 111
    },
    {
      "midi": 63,
      "hit": false,
      "t": 75250,
      "d": 265.625,
      "v": 80
    },
    {
      "midi": 67,
      "hit": false,
      "t": 75500,
      "d": 330.7291666666715,
      "v": 102
    },
    {
      "midi": 63,
      "hit": false,
      "t": 75750,
      "d": 289.0625,
      "v": 100
    },
    {
      "midi": 70,
      "hit": false,
      "t": 76000,
      "d": 346.3541666666715,
      "v": 104
    },
    {
      "midi": 75,
      "hit": false,
      "t": 76000,
      "d": 575.5208333333285,
      "v": 100
    },
    {
      "midi": 63,
      "hit": false,
      "t": 76250,
      "d": 273.4375,
      "v": 88
    },
    {
      "midi": 79,
      "hit": false,
      "t": 76500,
      "d": 260.4166666666715,
      "v": 100
    },
    {
      "midi": 67,
      "hit": false,
      "t": 76500,
      "d": 333.33333333334303,
      "v": 104
    },
    {
      "midi": 75,
      "hit": false,
      "t": 76750,
      "d": 244.79166666667152,
      "v": 90
    },
    {
      "midi": 63,
      "hit": false,
      "t": 76750,
      "d": 278.6458333333285,
      "v": 100
    },
    {
      "midi": 70,
      "hit": false,
      "t": 77000,
      "d": 309.8958333333285,
      "v": 102
    },
    {
      "midi": 77,
      "hit": false,
      "t": 77000,
      "d": 528.6458333333285,
      "v": 104
    },
    {
      "midi": 63,
      "hit": false,
      "t": 77250,
      "d": 286.4583333333285,
      "v": 98
    },
    {
      "midi": 67,
      "hit": false,
      "t": 77500,
      "d": 330.7291666666715,
      "v": 100
    },
    {
      "midi": 79,
      "hit": false,
      "t": 77500,
      "d": 500,
      "v": 108
    },
    {
      "midi": 63,
      "hit": false,
      "t": 77750,
      "d": 281.25,
      "v": 98
    },
    {
      "midi": 72,
      "hit": false,
      "t": 78000,
      "d": 414.0625,
      "v": 98
    },
    {
      "midi": 75,
      "hit": false,
      "t": 78000,
      "d": 875,
      "v": 106
    },
    {
      "midi": 63,
      "hit": false,
      "t": 78250,
      "d": 302.0833333333285,
      "v": 88
    },
    {
      "midi": 68,
      "hit": false,
      "t": 78500,
      "d": 330.7291666666715,
      "v": 92
    },
    {
      "midi": 63,
      "hit": false,
      "t": 78750,
      "d": 286.4583333333285,
      "v": 96
    },
    {
      "midi": 72,
      "hit": false,
      "t": 79000,
      "d": 317.7083333333285,
      "v": 100
    },
    {
      "midi": 84,
      "hit": false,
      "t": 79000,
      "d": 812.5,
      "v": 111
    },
    {
      "midi": 63,
      "hit": false,
      "t": 79250,
      "d": 309.8958333333285,
      "v": 90
    },
    {
      "midi": 68,
      "hit": false,
      "t": 79500,
      "d": 315.1041666666715,
      "v": 90
    },
    {
      "midi": 63,
      "hit": false,
      "t": 79750,
      "d": 276.0416666666715,
      "v": 92
    },
    {
      "midi": 80,
      "hit": false,
      "t": 80000,
      "d": 88.54166666667152,
      "v": 117
    },
    {
      "midi": 72,
      "hit": false,
      "t": 80000,
      "d": 419.2708333333285,
      "v": 100
    },
    {
      "midi": 63,
      "hit": false,
      "t": 80250,
      "d": 281.25,
      "v": 86
    },
    {
      "midi": 79,
      "hit": false,
      "t": 80500,
      "d": 72.91666666667152,
      "v": 100
    },
    {
      "midi": 68,
      "hit": false,
      "t": 80500,
      "d": 335.9375,
      "v": 96
    },
    {
      "midi": 77,
      "hit": false,
      "t": 80750,
      "d": 93.75,
      "v": 108
    },
    {
      "midi": 63,
      "hit": false,
      "t": 80750,
      "d": 289.0625,
      "v": 92
    },
    {
      "midi": 76,
      "hit": false,
      "t": 81000,
      "d": 111.97916666667152,
      "v": 114
    },
    {
      "midi": 72,
      "hit": false,
      "t": 81000,
      "d": 494.7916666666715,
      "v": 98
    },
    {
      "midi": 63,
      "hit": false,
      "t": 81250,
      "d": 291.6666666666715,
      "v": 90
    },
    {
      "midi": 77,
      "hit": false,
      "t": 81500,
      "d": 93.75,
      "v": 108
    },
    {
      "midi": 68,
      "hit": false,
      "t": 81500,
      "d": 304.6875,
      "v": 98
    },
    {
      "midi": 80,
      "hit": false,
      "t": 81750,
      "d": 85.9375,
      "v": 108
    },
    {
      "midi": 63,
      "hit": false,
      "t": 81750,
      "d": 281.25,
      "v": 98
    },
    {
      "midi": 79,
      "hit": false,
      "t": 82000,
      "d": 281.25,
      "v": 111
    },
    {
      "midi": 70,
      "hit": false,
      "t": 82000,
      "d": 359.375,
      "v": 98
    },
    {
      "midi": 63,
      "hit": false,
      "t": 82250,
      "d": 265.625,
      "v": 90
    },
    {
      "midi": 76,
      "hit": false,
      "t": 82500,
      "d": 270.8333333333285,
      "v": 117
    },
    {
      "midi": 67,
      "hit": false,
      "t": 82500,
      "d": 390.625,
      "v": 96
    },
    {
      "midi": 63,
      "hit": false,
      "t": 82750,
      "d": 304.6875,
      "v": 96
    },
    {
      "midi": 77,
      "hit": false,
      "t": 82875,
      "d": 57.29166666667152,
      "v": 114
    },
    {
      "midi": 70,
      "hit": false,
      "t": 83000,
      "d": 348.9583333333285,
      "v": 100
    },
    {
      "midi": 77,
      "hit": false,
      "t": 83000,
      "d": 960.9375,
      "v": 117
    },
    {
      "midi": 63,
      "hit": false,
      "t": 83250,
      "d": 312.5,
      "v": 86
    },
    {
      "midi": 67,
      "hit": false,
      "t": 83500,
      "d": 328.125,
      "v": 102
    },
    {
      "midi": 63,
      "hit": false,
      "t": 83750,
      "d": 307.2916666666715,
      "v": 90
    },
    {
      "midi": 79,
      "hit": false,
      "t": 84000,
      "d": 291.6666666666715,
      "v": 117
    },
    {
      "midi": 70,
      "hit": false,
      "t": 84000,
      "d": 343.75,
      "v": 102
    },
    {
      "midi": 63,
      "hit": false,
      "t": 84250,
      "d": 294.2708333333285,
      "v": 92
    },
    {
      "midi": 76,
      "hit": false,
      "t": 84500,
      "d": 317.7083333333285,
      "v": 120
    },
    {
      "midi": 67,
      "hit": false,
      "t": 84500,
      "d": 328.125,
      "v": 96
    },
    {
      "midi": 63,
      "hit": false,
      "t": 84750,
      "d": 250,
      "v": 96
    },
    {
      "midi": 77,
      "hit": false,
      "t": 84875,
      "d": 54.6875,
      "v": 111
    },
    {
      "midi": 70,
      "hit": false,
      "t": 85000,
      "d": 335.9375,
      "v": 98
    },
    {
      "midi": 77,
      "hit": false,
      "t": 85000,
      "d": 833.3333333333285,
      "v": 123
    },
    {
      "midi": 63,
      "hit": false,
      "t": 85250,
      "d": 294.2708333333285,
      "v": 96
    },
    {
      "midi": 67,
      "hit": false,
      "t": 85500,
      "d": 403.6458333333285,
      "v": 96
    },
    {
      "midi": 63,
      "hit": false,
      "t": 85750,
      "d": 281.25,
      "v": 90
    },
    {
      "midi": 77,
      "hit": false,
      "t": 86000,
      "d": 361.9791666666715,
      "v": 117
    },
    {
      "midi": 72,
      "hit": false,
      "t": 86000,
      "d": 466.14583333334303,
      "v": 98
    },
    {
      "midi": 63,
      "hit": false,
      "t": 86250,
      "d": 294.27083333334303,
      "v": 84
    },
    {
      "midi": 74,
      "hit": false,
      "t": 86500.00000000001,
      "d": 286.4583333333285,
      "v": 114
    },
    {
      "midi": 68,
      "hit": false,
      "t": 86500.00000000001,
      "d": 333.3333333333285,
      "v": 90
    },
    {
      "midi": 63,
      "hit": false,
      "t": 86750.00000000001,
      "d": 263.0208333333285,
      "v": 90
    },
    {
      "midi": 75,
      "hit": false,
      "t": 86875.00000000001,
      "d": 59.89583333332848,
      "v": 108
    },
    {
      "midi": 72,
      "hit": false,
      "t": 87000.00000000001,
      "d": 356.7708333333285,
      "v": 100
    },
    {
      "midi": 75,
      "hit": false,
      "t": 87000.00000000001,
      "d": 804.6875,
      "v": 106
    },
    {
      "midi": 63,
      "hit": false,
      "t": 87250.00000000001,
      "d": 299.4791666666715,
      "v": 94
    },
    {
      "midi": 68,
      "hit": false,
      "t": 87500.00000000001,
      "d": 294.2708333333285,
      "v": 90
    },
    {
      "midi": 63,
      "hit": false,
      "t": 87750.00000000001,
      "d": 278.6458333333285,
      "v": 100
    },
    {
      "midi": 72,
      "hit": false,
      "t": 88000.00000000001,
      "d": 494.7916666666715,
      "v": 100
    },
    {
      "midi": 75,
      "hit": false,
      "t": 88000.00000000001,
      "d": 541.6666666666715,
      "v": 100
    },
    {
      "midi": 63,
      "hit": false,
      "t": 88250.00000000001,
      "d": 296.875,
      "v": 90
    },
    {
      "midi": 80,
      "hit": false,
      "t": 88500.00000000001,
      "d": 273.4375,
      "v": 106
    },
    {
      "midi": 68,
      "hit": false,
      "t": 88500.00000000001,
      "d": 304.6875,
      "v": 94
    },
    {
      "midi": 75,
      "hit": false,
      "t": 88750.00000000001,
      "d": 252.60416666667152,
      "v": 100
    },
    {
      "midi": 63,
      "hit": false,
      "t": 88750.00000000001,
      "d": 294.27083333334303,
      "v": 98
    },
    {
      "midi": 72,
      "hit": false,
      "t": 89000.00000000001,
      "d": 513.020833333343,
      "v": 100
    },
    {
      "midi": 77,
      "hit": false,
      "t": 89000.00000000001,
      "d": 515.6250000000146,
      "v": 106
    },
    {
      "midi": 63,
      "hit": false,
      "t": 89250.00000000003,
      "d": 294.2708333333285,
      "v": 86
    },
    {
      "midi": 68,
      "hit": false,
      "t": 89500.00000000003,
      "d": 286.4583333333285,
      "v": 94
    },
    {
      "midi": 80,
      "hit": false,
      "t": 89500.00000000003,
      "d": 497.3958333333285,
      "v": 111
    },
    {
      "midi": 63,
      "hit": false,
      "t": 89750.00000000003,
      "d": 294.2708333333285,
      "v": 98
    },
    {
      "midi": 70,
      "hit": false,
      "t": 90000.00000000003,
      "d": 421.875,
      "v": 96
    },
    {
      "midi": 79,
      "hit": false,
      "t": 90000.00000000003,
      "d": 1033.8541666666715,
      "v": 111
    },
    {
      "midi": 63,
      "hit": false,
      "t": 90250.00000000003,
      "d": 307.2916666666715,
      "v": 84
    },
    {
      "midi": 67,
      "hit": false,
      "t": 90500.00000000003,
      "d": 317.7083333333285,
      "v": 90
    },
    {
      "midi": 63,
      "hit": false,
      "t": 90750.00000000003,
      "d": 299.4791666666715,
      "v": 92
    },
    {
      "midi": 70,
      "hit": false,
      "t": 91000.00000000003,
      "d": 390.625,
      "v": 100
    },
    {
      "midi": 85,
      "hit": false,
      "t": 91000.00000000003,
      "d": 768.2291666666715,
      "v": 106
    },
    {
      "midi": 63,
      "hit": false,
      "t": 91250.00000000003,
      "d": 294.2708333333285,
      "v": 88
    },
    {
      "midi": 67,
      "hit": false,
      "t": 91500.00000000003,
      "d": 333.33333333334303,
      "v": 96
    },
    {
      "midi": 63,
      "hit": false,
      "t": 91750.00000000003,
      "d": 309.89583333334303,
      "v": 96
    },
    {
      "midi": 70,
      "hit": false,
      "t": 92000.00000000004,
      "d": 317.7083333333285,
      "v": 106
    },
    {
      "midi": 75,
      "hit": false,
      "t": 92000.00000000004,
      "d": 526.0416666666715,
      "v": 98
    },
    {
      "midi": 63,
      "hit": false,
      "t": 92250.00000000004,
      "d": 302.08333333334303,
      "v": 94
    },
    {
      "midi": 79,
      "hit": false,
      "t": 92500.00000000004,
      "d": 278.64583333334303,
      "v": 104
    },
    {
      "midi": 67,
      "hit": false,
      "t": 92500.00000000004,
      "d": 320.31250000001455,
      "v": 96
    },
    {
      "midi": 75,
      "hit": false,
      "t": 92750.00000000006,
      "d": 263.0208333333285,
      "v": 86
    },
    {
      "midi": 63,
      "hit": false,
      "t": 92750.00000000006,
      "d": 270.8333333333285,
      "v": 94
    },
    {
      "midi": 70,
      "hit": false,
      "t": 93000.00000000006,
      "d": 286.4583333333285,
      "v": 96
    },
    {
      "midi": 77,
      "hit": false,
      "t": 93000.00000000006,
      "d": 570.3125,
      "v": 102
    },
    {
      "midi": 63,
      "hit": false,
      "t": 93250.00000000006,
      "d": 291.6666666666715,
      "v": 96
    },
    {
      "midi": 67,
      "hit": false,
      "t": 93500.00000000006,
      "d": 330.7291666666715,
      "v": 104
    },
    {
      "midi": 79,
      "hit": false,
      "t": 93500.00000000006,
      "d": 492.1875,
      "v": 104
    },
    {
      "midi": 63,
      "hit": false,
      "t": 93750.00000000006,
      "d": 289.0625,
      "v": 102
    },
    {
      "midi": 72,
      "hit": false,
      "t": 94000.00000000006,
      "d": 294.2708333333285,
      "v": 92
    },
    {
      "midi": 75,
      "hit": false,
      "t": 94000.00000000006,
      "d": 1041.6666666666715,
      "v": 100
    },
    {
      "midi": 63,
      "hit": false,
      "t": 94250.00000000006,
      "d": 320.3125,
      "v": 96
    },
    {
      "midi": 68,
      "hit": false,
      "t": 94500.00000000006,
      "d": 302.0833333333285,
      "v": 100
    },
    {
      "midi": 63,
      "hit": false,
      "t": 94750.00000000006,
      "d": 291.6666666666715,
      "v": 102
    },
    {
      "midi": 72,
      "hit": false,
      "t": 95000.00000000006,
      "d": 283.8541666666715,
      "v": 102
    },
    {
      "midi": 84,
      "hit": false,
      "t": 95000.00000000006,
      "d": 752.6041666666715,
      "v": 100
    },
    {
      "midi": 63,
      "hit": false,
      "t": 95250.00000000006,
      "d": 299.4791666666715,
      "v": 90
    },
    {
      "midi": 68,
      "hit": false,
      "t": 95500.00000000006,
      "d": 317.70833333334303,
      "v": 94
    },
    {
      "midi": 63,
      "hit": false,
      "t": 95750.00000000006,
      "d": 276.04166666668607,
      "v": 102
    },
    {
      "midi": 75,
      "hit": false,
      "t": 96000.00000000007,
      "d": 156.25,
      "v": 100
    },
    {
      "midi": 84,
      "hit": false,
      "t": 96000.00000000007,
      "d": 187.5,
      "v": 106
    },
    {
      "midi": 72,
      "hit": false,
      "t": 96000.00000000007,
      "d": 289.0625,
      "v": 102
    },
    {
      "midi": 63,
      "hit": false,
      "t": 96250.00000000007,
      "d": 346.3541666666715,
      "v": 106
    },
    {
      "midi": 84,
      "hit": false,
      "t": 96500.00000000007,
      "d": 109.375,
      "v": 84
    },
    {
      "midi": 75,
      "hit": false,
      "t": 96500.00000000007,
      "d": 151.04166666667152,
      "v": 88
    },
    {
      "midi": 68,
      "hit": false,
      "t": 96500.00000000007,
      "d": 497.3958333333285,
      "v": 88
    },
    {
      "midi": 63,
      "hit": false,
      "t": 96750.00000000007,
      "d": 223.95833333332848,
      "v": 90
    },
    {
      "midi": 84,
      "hit": false,
      "t": 96875.00000000007,
      "d": 80.72916666667152,
      "v": 102
    },
    {
      "midi": 75,
      "hit": false,
      "t": 96875.00000000007,
      "d": 93.75,
      "v": 88
    },
    {
      "midi": 72,
      "hit": false,
      "t": 97000.00000000007,
      "d": 289.0625,
      "v": 92
    },
    {
      "midi": 84,
      "hit": false,
      "t": 97000.00000000007,
      "d": 359.375,
      "v": 100
    },
    {
      "midi": 75,
      "hit": false,
      "t": 97000.00000000007,
      "d": 364.5833333333285,
      "v": 108
    },
    {
      "midi": 63,
      "hit": false,
      "t": 97250.00000000007,
      "d": 281.25,
      "v": 94
    },
    {
      "midi": 75,
      "hit": false,
      "t": 97500.00000000007,
      "d": 96.35416666667152,
      "v": 96
    },
    {
      "midi": 84,
      "hit": false,
      "t": 97500.00000000007,
      "d": 96.35416666667152,
      "v": 96
    },
    {
      "midi": 68,
      "hit": false,
      "t": 97500.00000000007,
      "d": 510.41666666665697,
      "v": 100
    },
    {
      "midi": 75,
      "hit": false,
      "t": 97750.00000000007,
      "d": 80.72916666667152,
      "v": 90
    },
    {
      "midi": 84,
      "hit": false,
      "t": 97750.00000000007,
      "d": 96.35416666667152,
      "v": 98
    },
    {
      "midi": 63,
      "hit": false,
      "t": 97750.00000000007,
      "d": 255.20833333332848,
      "v": 88
    },
    {
      "midi": 73,
      "hit": false,
      "t": 98000.00000000007,
      "d": 325.52083333331393,
      "v": 102
    },
    {
      "midi": 79,
      "hit": false,
      "t": 98000.00000000007,
      "d": 632.8124999999854,
      "v": 104
    },
    {
      "midi": 87,
      "hit": false,
      "t": 98000.00000000007,
      "d": 653.6458333333139,
      "v": 111
    },
    {
      "midi": 65,
      "hit": false,
      "t": 98250.00000000006,
      "d": 283.8541666666715,
      "v": 94
    },
    {
      "midi": 68,
      "hit": false,
      "t": 98500.00000000006,
      "d": 335.9375,
      "v": 111
    },
    {
      "midi": 78,
      "hit": false,
      "t": 98750.00000000006,
      "d": 101.5625,
      "v": 100
    },
    {
      "midi": 86,
      "hit": false,
      "t": 98750.00000000006,
      "d": 125,
      "v": 111
    },
    {
      "midi": 65,
      "hit": false,
      "t": 98750.00000000006,
      "d": 278.6458333333285,
      "v": 102
    },
    {
      "midi": 73,
      "hit": false,
      "t": 99000.00000000006,
      "d": 294.2708333333285,
      "v": 108
    },
    {
      "midi": 77,
      "hit": false,
      "t": 99000.00000000006,
      "d": 645.833333333343,
      "v": 94
    },
    {
      "midi": 85,
      "hit": false,
      "t": 99000.00000000006,
      "d": 671.8750000000146,
      "v": 104
    },
    {
      "midi": 65,
      "hit": false,
      "t": 99250.00000000006,
      "d": 283.8541666666715,
      "v": 102
    },
    {
      "midi": 68,
      "hit": false,
      "t": 99500.00000000006,
      "d": 515.6250000000146,
      "v": 114
    },
    {
      "midi": 85,
      "hit": false,
      "t": 99750.00000000007,
      "d": 96.35416666667152,
      "v": 108
    },
    {
      "midi": 77,
      "hit": false,
      "t": 99750.00000000007,
      "d": 104.16666666667152,
      "v": 100
    },
    {
      "midi": 65,
      "hit": false,
      "t": 99750.00000000007,
      "d": 244.79166666667152,
      "v": 94
    },
    {
      "midi": 72,
      "hit": false,
      "t": 100000.00000000007,
      "d": 263.0208333333285,
      "v": 102
    },
    {
      "midi": 75,
      "hit": false,
      "t": 100000.00000000007,
      "d": 500,
      "v": 120
    },
    {
      "midi": 84,
      "hit": false,
      "t": 100000.00000000007,
      "d": 614.583333333343,
      "v": 108
    },
    {
      "midi": 63,
      "hit": false,
      "t": 100250.00000000007,
      "d": 291.6666666666715,
      "v": 102
    },
    {
      "midi": 68,
      "hit": false,
      "t": 100500.00000000007,
      "d": 286.45833333334303,
      "v": 100
    },
    {
      "midi": 72,
      "hit": false,
      "t": 100750.00000000009,
      "d": 96.35416666665697,
      "v": 111
    },
    {
      "midi": 80,
      "hit": false,
      "t": 100750.00000000009,
      "d": 148.43749999998545,
      "v": 117
    },
    {
      "midi": 63,
      "hit": false,
      "t": 100750.00000000009,
      "d": 283.85416666665697,
      "v": 106
    },
    {
      "midi": 70,
      "hit": false,
      "t": 101000.00000000007,
      "d": 299.4791666666715,
      "v": 106
    },
    {
      "midi": 73,
      "hit": false,
      "t": 101000.00000000007,
      "d": 476.5625,
      "v": 108
    },
    {
      "midi": 82,
      "hit": false,
      "t": 101000.00000000007,
      "d": 604.1666666666715,
      "v": 108
    },
    {
      "midi": 63,
      "hit": false,
      "t": 101250.00000000007,
      "d": 299.4791666666715,
      "v": 100
    },
    {
      "midi": 67,
      "hit": false,
      "t": 101500.00000000007,
      "d": 398.4375,
      "v": 106
    },
    {
      "midi": 70,
      "hit": false,
      "t": 101750.00000000007,
      "d": 119.79166666667152,
      "v": 104
    },
    {
      "midi": 79,
      "hit": false,
      "t": 101750.00000000007,
      "d": 135.41666666667152,
      "v": 104
    },
    {
      "midi": 63,
      "hit": false,
      "t": 101750.00000000007,
      "d": 265.625,
      "v": 98
    },
    {
      "midi": 72,
      "hit": false,
      "t": 102000.00000000007,
      "d": 434.8958333333285,
      "v": 100
    },
    {
      "midi": 80,
      "hit": false,
      "t": 102000.00000000007,
      "d": 1177.0833333333285,
      "v": 114
    },
    {
      "midi": 63,
      "hit": false,
      "t": 102250.00000000007,
      "d": 296.875,
      "v": 88
    },
    {
      "midi": 68,
      "hit": false,
      "t": 102500.00000000007,
      "d": 484.375,
      "v": 102
    },
    {
      "midi": 63,
      "hit": false,
      "t": 102750.00000000007,
      "d": 421.875,
      "v": 102
    },
    {
      "midi": 72,
      "hit": false,
      "t": 103000.00000000007,
      "d": 130.20833333332848,
      "v": 106
    },
    {
      "midi": 72,
      "hit": false,
      "t": 104000,
      "d": 299.4791666666715,
      "v": 60
    },
    {
      "midi": 75,
      "hit": false,
      "t": 104000,
      "d": 528.6458333333285,
      "v": 71
    },
    {
      "midi": 72,
      "hit": false,
      "t": 104000.00000000007,
      "d": 299.4791666666715,
      "v": 79
    },
    {
      "midi": 75,
      "hit": false,
      "t": 104000.00000000007,
      "d": 528.6458333333285,
      "v": 90
    },
    {
      "midi": 63,
      "hit": false,
      "t": 104250,
      "d": 320.3125,
      "v": 48
    },
    {
      "midi": 63,
      "hit": false,
      "t": 104250.00000000007,
      "d": 320.3125,
      "v": 67
    },
    {
      "midi": 80,
      "hit": false,
      "t": 104500,
      "d": 302.0833333333285,
      "v": 68
    },
    {
      "midi": 68,
      "hit": false,
      "t": 104500,
      "d": 520.8333333333285,
      "v": 60
    },
    {
      "midi": 80,
      "hit": false,
      "t": 104500.00000000007,
      "d": 302.0833333333285,
      "v": 87
    },
    {
      "midi": 68,
      "hit": false,
      "t": 104500.00000000007,
      "d": 520.8333333333285,
      "v": 79
    },
    {
      "midi": 75,
      "hit": false,
      "t": 104750,
      "d": 231.77083333332848,
      "v": 68
    },
    {
      "midi": 63,
      "hit": false,
      "t": 104750,
      "d": 294.2708333333285,
      "v": 48
    },
    {
      "midi": 75,
      "hit": false,
      "t": 104750.00000000007,
      "d": 231.77083333332848,
      "v": 87
    },
    {
      "midi": 63,
      "hit": false,
      "t": 104750.00000000007,
      "d": 294.2708333333285,
      "v": 67
    },
    {
      "midi": 72,
      "hit": false,
      "t": 105000,
      "d": 361.9791666666715,
      "v": 56
    },
    {
      "midi": 77,
      "hit": false,
      "t": 105000,
      "d": 549.4791666666715,
      "v": 58
    },
    {
      "midi": 72,
      "hit": false,
      "t": 105000.00000000007,
      "d": 361.9791666666715,
      "v": 75
    },
    {
      "midi": 77,
      "hit": false,
      "t": 105000.00000000007,
      "d": 549.4791666666715,
      "v": 77
    },
    {
      "midi": 63,
      "hit": false,
      "t": 105250,
      "d": 307.2916666666715,
      "v": 50
    },
    {
      "midi": 63,
      "hit": false,
      "t": 105250.00000000007,
      "d": 307.2916666666715,
      "v": 69
    },
    {
      "midi": 68,
      "hit": false,
      "t": 105500,
      "d": 291.6666666666715,
      "v": 52
    },
    {
      "midi": 80,
      "hit": false,
      "t": 105500,
      "d": 463.5416666666715,
      "v": 68
    },
    {
      "midi": 68,
      "hit": false,
      "t": 105500.00000000007,
      "d": 291.6666666666715,
      "v": 71
    },
    {
      "midi": 80,
      "hit": false,
      "t": 105500.00000000007,
      "d": 463.5416666666715,
      "v": 87
    },
    {
      "midi": 63,
      "hit": false,
      "t": 105750,
      "d": 317.7083333333285,
      "v": 60
    },
    {
      "midi": 63,
      "hit": false,
      "t": 105750.00000000007,
      "d": 317.7083333333285,
      "v": 79
    },
    {
      "midi": 70,
      "hit": false,
      "t": 106000,
      "d": 489.5833333333285,
      "v": 52
    },
    {
      "midi": 79,
      "hit": false,
      "t": 106000,
      "d": 1054.6875,
      "v": 74
    },
    {
      "midi": 70,
      "hit": false,
      "t": 106000.00000000007,
      "d": 489.5833333333285,
      "v": 71
    },
    {
      "midi": 79,
      "hit": false,
      "t": 106000.00000000007,
      "d": 1054.6875,
      "v": 93
    },
    {
      "midi": 63,
      "hit": false,
      "t": 106250,
      "d": 281.25,
      "v": 56
    },
    {
      "midi": 63,
      "hit": false,
      "t": 106250.00000000007,
      "d": 281.25,
      "v": 75
    },
    {
      "midi": 67,
      "hit": false,
      "t": 106500,
      "d": 375,
      "v": 60
    },
    {
      "midi": 67,
      "hit": false,
      "t": 106500.00000000007,
      "d": 375,
      "v": 79
    },
    {
      "midi": 63,
      "hit": false,
      "t": 106750,
      "d": 281.25,
      "v": 56
    },
    {
      "midi": 63,
      "hit": false,
      "t": 106750.00000000007,
      "d": 281.25,
      "v": 75
    },
    {
      "midi": 70,
      "hit": false,
      "t": 107000,
      "d": 375,
      "v": 64
    },
    {
      "midi": 85,
      "hit": false,
      "t": 107000,
      "d": 854.1666666666715,
      "v": 71
    },
    {
      "midi": 70,
      "hit": false,
      "t": 107000.00000000007,
      "d": 375,
      "v": 83
    },
    {
      "midi": 85,
      "hit": false,
      "t": 107000.00000000007,
      "d": 854.1666666666715,
      "v": 90
    },
    {
      "midi": 63,
      "hit": false,
      "t": 107250,
      "d": 265.625,
      "v": 40
    },
    {
      "midi": 63,
      "hit": false,
      "t": 107250.00000000007,
      "d": 265.625,
      "v": 59
    },
    {
      "midi": 67,
      "hit": false,
      "t": 107500,
      "d": 330.7291666666715,
      "v": 62
    },
    {
      "midi": 67,
      "hit": false,
      "t": 107500.00000000007,
      "d": 330.7291666666715,
      "v": 81
    },
    {
      "midi": 63,
      "hit": false,
      "t": 107750,
      "d": 289.0625,
      "v": 60
    },
    {
      "midi": 63,
      "hit": false,
      "t": 107750.00000000007,
      "d": 289.0625,
      "v": 79
    },
    {
      "midi": 70,
      "hit": false,
      "t": 108000,
      "d": 346.3541666666715,
      "v": 64
    },
    {
      "midi": 75,
      "hit": false,
      "t": 108000,
      "d": 575.5208333333285,
      "v": 60
    },
    {
      "midi": 70,
      "hit": false,
      "t": 108000.00000000007,
      "d": 346.3541666666715,
      "v": 83
    },
    {
      "midi": 75,
      "hit": false,
      "t": 108000.00000000007,
      "d": 575.5208333333285,
      "v": 79
    },
    {
      "midi": 63,
      "hit": false,
      "t": 108250,
      "d": 273.4375,
      "v": 48
    },
    {
      "midi": 63,
      "hit": false,
      "t": 108250.00000000007,
      "d": 273.4375,
      "v": 67
    },
    {
      "midi": 79,
      "hit": false,
      "t": 108500,
      "d": 260.4166666666715,
      "v": 60
    },
    {
      "midi": 67,
      "hit": false,
      "t": 108500,
      "d": 333.33333333334303,
      "v": 64
    },
    {
      "midi": 79,
      "hit": false,
      "t": 108500.00000000007,
      "d": 260.4166666666715,
      "v": 79
    },
    {
      "midi": 67,
      "hit": false,
      "t": 108500.00000000007,
      "d": 333.33333333334303,
      "v": 83
    },
    {
      "midi": 75,
      "hit": false,
      "t": 108750,
      "d": 244.79166666667152,
      "v": 50
    },
    {
      "midi": 63,
      "hit": false,
      "t": 108750,
      "d": 278.6458333333285,
      "v": 60
    },
    {
      "midi": 75,
      "hit": false,
      "t": 108750.00000000007,
      "d": 244.79166666667152,
      "v": 69
    },
    {
      "midi": 63,
      "hit": false,
      "t": 108750.00000000007,
      "d": 278.6458333333285,
      "v": 79
    },
    {
      "midi": 70,
      "hit": false,
      "t": 109000,
      "d": 309.8958333333285,
      "v": 62
    },
    {
      "midi": 77,
      "hit": false,
      "t": 109000,
      "d": 528.6458333333285,
      "v": 64
    },
    {
      "midi": 70,
      "hit": false,
      "t": 109000.00000000007,
      "d": 309.8958333333285,
      "v": 81
    },
    {
      "midi": 77,
      "hit": false,
      "t": 109000.00000000007,
      "d": 528.6458333333285,
      "v": 83
    },
    {
      "midi": 63,
      "hit": false,
      "t": 109250,
      "d": 286.4583333333285,
      "v": 58
    },
    {
      "midi": 63,
      "hit": false,
      "t": 109250.00000000007,
      "d": 286.4583333333285,
      "v": 77
    },
    {
      "midi": 67,
      "hit": false,
      "t": 109500,
      "d": 330.7291666666715,
      "v": 60
    },
    {
      "midi": 79,
      "hit": false,
      "t": 109500,
      "d": 500,
      "v": 68
    },
    {
      "midi": 67,
      "hit": false,
      "t": 109500.00000000007,
      "d": 330.7291666666715,
      "v": 79
    },
    {
      "midi": 79,
      "hit": false,
      "t": 109500.00000000007,
      "d": 500,
      "v": 87
    },
    {
      "midi": 63,
      "hit": false,
      "t": 109750,
      "d": 281.25,
      "v": 58
    },
    {
      "midi": 63,
      "hit": false,
      "t": 109750.00000000007,
      "d": 281.25,
      "v": 77
    },
    {
      "midi": 72,
      "hit": false,
      "t": 110000,
      "d": 414.0625,
      "v": 58
    },
    {
      "midi": 75,
      "hit": false,
      "t": 110000,
      "d": 875,
      "v": 66
    },
    {
      "midi": 72,
      "hit": false,
      "t": 110000.00000000007,
      "d": 414.0625,
      "v": 77
    },
    {
      "midi": 75,
      "hit": false,
      "t": 110000.00000000007,
      "d": 875,
      "v": 85
    },
    {
      "midi": 63,
      "hit": false,
      "t": 110250,
      "d": 302.0833333333285,
      "v": 48
    },
    {
      "midi": 63,
      "hit": false,
      "t": 110250.00000000007,
      "d": 302.0833333333285,
      "v": 67
    },
    {
      "midi": 68,
      "hit": false,
      "t": 110500,
      "d": 330.7291666666715,
      "v": 52
    },
    {
      "midi": 68,
      "hit": false,
      "t": 110500.00000000007,
      "d": 330.7291666666715,
      "v": 71
    },
    {
      "midi": 63,
      "hit": false,
      "t": 110750,
      "d": 286.4583333333285,
      "v": 56
    },
    {
      "midi": 63,
      "hit": false,
      "t": 110750.00000000007,
      "d": 286.4583333333285,
      "v": 75
    },
    {
      "midi": 72,
      "hit": false,
      "t": 111000,
      "d": 317.7083333333285,
      "v": 60
    },
    {
      "midi": 84,
      "hit": false,
      "t": 111000,
      "d": 812.5,
      "v": 71
    },
    {
      "midi": 72,
      "hit": false,
      "t": 111000.00000000007,
      "d": 317.7083333333285,
      "v": 79
    },
    {
      "midi": 84,
      "hit": false,
      "t": 111000.00000000007,
      "d": 812.5,
      "v": 90
    },
    {
      "midi": 63,
      "hit": false,
      "t": 111250,
      "d": 309.8958333333285,
      "v": 50
    },
    {
      "midi": 63,
      "hit": false,
      "t": 111250.00000000007,
      "d": 309.8958333333285,
      "v": 69
    },
    {
      "midi": 68,
      "hit": false,
      "t": 111500,
      "d": 315.1041666666715,
      "v": 50
    },
    {
      "midi": 68,
      "hit": false,
      "t": 111500.00000000007,
      "d": 315.1041666666715,
      "v": 69
    },
    {
      "midi": 63,
      "hit": false,
      "t": 111750,
      "d": 276.0416666666715,
      "v": 52
    },
    {
      "midi": 63,
      "hit": false,
      "t": 111750.00000000007,
      "d": 276.0416666666715,
      "v": 71
    },
    {
      "midi": 80,
      "hit": false,
      "t": 112000,
      "d": 88.54166666667152,
      "v": 77
    },
    {
      "midi": 72,
      "hit": false,
      "t": 112000,
      "d": 419.2708333333285,
      "v": 60
    },
    {
      "midi": 80,
      "hit": false,
      "t": 112000.00000000007,
      "d": 88.54166666667152,
      "v": 96
    },
    {
      "midi": 72,
      "hit": false,
      "t": 112000.00000000007,
      "d": 419.2708333333285,
      "v": 79
    },
    {
      "midi": 63,
      "hit": false,
      "t": 112250,
      "d": 281.25,
      "v": 46
    },
    {
      "midi": 63,
      "hit": false,
      "t": 112250.00000000007,
      "d": 281.25,
      "v": 65
    },
    {
      "midi": 79,
      "hit": false,
      "t": 112500,
      "d": 72.91666666667152,
      "v": 60
    },
    {
      "midi": 68,
      "hit": false,
      "t": 112500,
      "d": 335.9375,
      "v": 56
    },
    {
      "midi": 79,
      "hit": false,
      "t": 112500.00000000007,
      "d": 72.91666666667152,
      "v": 79
    },
    {
      "midi": 68,
      "hit": false,
      "t": 112500.00000000007,
      "d": 335.9375,
      "v": 75
    },
    {
      "midi": 77,
      "hit": false,
      "t": 112750,
      "d": 93.75,
      "v": 68
    },
    {
      "midi": 63,
      "hit": false,
      "t": 112750,
      "d": 289.0625,
      "v": 52
    },
    {
      "midi": 77,
      "hit": false,
      "t": 112750.00000000007,
      "d": 93.75,
      "v": 87
    },
    {
      "midi": 63,
      "hit": false,
      "t": 112750.00000000007,
      "d": 289.0625,
      "v": 71
    },
    {
      "midi": 76,
      "hit": false,
      "t": 113000,
      "d": 111.97916666667152,
      "v": 74
    },
    {
      "midi": 72,
      "hit": false,
      "t": 113000,
      "d": 494.7916666666715,
      "v": 58
    },
    {
      "midi": 76,
      "hit": false,
      "t": 113000.00000000007,
      "d": 111.97916666667152,
      "v": 93
    },
    {
      "midi": 72,
      "hit": false,
      "t": 113000.00000000007,
      "d": 494.7916666666715,
      "v": 77
    },
    {
      "midi": 63,
      "hit": false,
      "t": 113250,
      "d": 291.6666666666715,
      "v": 50
    },
    {
      "midi": 63,
      "hit": false,
      "t": 113250.00000000007,
      "d": 291.6666666666715,
      "v": 69
    },
    {
      "midi": 77,
      "hit": false,
      "t": 113500,
      "d": 93.75,
      "v": 68
    },
    {
      "midi": 68,
      "hit": false,
      "t": 113500,
      "d": 304.6875,
      "v": 58
    },
    {
      "midi": 77,
      "hit": false,
      "t": 113500.00000000007,
      "d": 93.75,
      "v": 87
    },
    {
      "midi": 68,
      "hit": false,
      "t": 113500.00000000007,
      "d": 304.6875,
      "v": 77
    },
    {
      "midi": 80,
      "hit": false,
      "t": 113750,
      "d": 85.9375,
      "v": 68
    },
    {
      "midi": 63,
      "hit": false,
      "t": 113750,
      "d": 281.25,
      "v": 58
    },
    {
      "midi": 80,
      "hit": false,
      "t": 113750.00000000007,
      "d": 85.9375,
      "v": 87
    },
    {
      "midi": 63,
      "hit": false,
      "t": 113750.00000000007,
      "d": 281.25,
      "v": 77
    },
    {
      "midi": 79,
      "hit": false,
      "t": 114000,
      "d": 281.25,
      "v": 71
    },
    {
      "midi": 70,
      "hit": false,
      "t": 114000,
      "d": 359.375,
      "v": 58
    },
    {
      "midi": 79,
      "hit": false,
      "t": 114000.00000000007,
      "d": 281.25,
      "v": 90
    },
    {
      "midi": 70,
      "hit": false,
      "t": 114000.00000000007,
      "d": 359.375,
      "v": 77
    },
    {
      "midi": 63,
      "hit": false,
      "t": 114250,
      "d": 265.625,
      "v": 50
    },
    {
      "midi": 63,
      "hit": false,
      "t": 114250.00000000007,
      "d": 265.625,
      "v": 69
    },
    {
      "midi": 76,
      "hit": false,
      "t": 114500,
      "d": 270.8333333333285,
      "v": 77
    },
    {
      "midi": 67,
      "hit": false,
      "t": 114500,
      "d": 390.625,
      "v": 56
    },
    {
      "midi": 76,
      "hit": false,
      "t": 114500.00000000007,
      "d": 270.8333333333285,
      "v": 96
    },
    {
      "midi": 67,
      "hit": false,
      "t": 114500.00000000007,
      "d": 390.625,
      "v": 75
    },
    {
      "midi": 63,
      "hit": false,
      "t": 114750,
      "d": 304.6875,
      "v": 56
    },
    {
      "midi": 63,
      "hit": false,
      "t": 114750.00000000007,
      "d": 304.6875,
      "v": 75
    },
    {
      "midi": 77,
      "hit": false,
      "t": 114875,
      "d": 57.29166666667152,
      "v": 74
    },
    {
      "midi": 77,
      "hit": false,
      "t": 114875.00000000007,
      "d": 57.29166666667152,
      "v": 93
    },
    {
      "midi": 70,
      "hit": false,
      "t": 115000,
      "d": 348.9583333333285,
      "v": 60
    },
    {
      "midi": 77,
      "hit": false,
      "t": 115000,
      "d": 960.9375,
      "v": 77
    },
    {
      "midi": 70,
      "hit": false,
      "t": 115000.00000000007,
      "d": 348.9583333333285,
      "v": 79
    },
    {
      "midi": 77,
      "hit": false,
      "t": 115000.00000000007,
      "d": 960.9375,
      "v": 96
    },
    {
      "midi": 63,
      "hit": false,
      "t": 115250,
      "d": 312.5,
      "v": 46
    },
    {
      "midi": 63,
      "hit": false,
      "t": 115250.00000000007,
      "d": 312.5,
      "v": 65
    },
    {
      "midi": 67,
      "hit": false,
      "t": 115500,
      "d": 328.125,
      "v": 62
    },
    {
      "midi": 67,
      "hit": false,
      "t": 115500.00000000007,
      "d": 328.125,
      "v": 81
    },
    {
      "midi": 63,
      "hit": false,
      "t": 115750,
      "d": 307.2916666666715,
      "v": 50
    },
    {
      "midi": 63,
      "hit": false,
      "t": 115750.00000000007,
      "d": 307.2916666666715,
      "v": 69
    },
    {
      "midi": 79,
      "hit": false,
      "t": 116000,
      "d": 291.6666666666715,
      "v": 77
    },
    {
      "midi": 70,
      "hit": false,
      "t": 116000,
      "d": 343.75,
      "v": 62
    },
    {
      "midi": 79,
      "hit": false,
      "t": 116000.00000000007,
      "d": 291.6666666666715,
      "v": 96
    },
    {
      "midi": 70,
      "hit": false,
      "t": 116000.00000000007,
      "d": 343.75,
      "v": 81
    },
    {
      "midi": 63,
      "hit": false,
      "t": 116250,
      "d": 294.2708333333285,
      "v": 52
    },
    {
      "midi": 63,
      "hit": false,
      "t": 116250.00000000007,
      "d": 294.2708333333285,
      "v": 71
    },
    {
      "midi": 76,
      "hit": false,
      "t": 116500,
      "d": 317.7083333333285,
      "v": 80
    },
    {
      "midi": 67,
      "hit": false,
      "t": 116500,
      "d": 328.125,
      "v": 56
    },
    {
      "midi": 76,
      "hit": false,
      "t": 116500.00000000007,
      "d": 317.7083333333285,
      "v": 99
    },
    {
      "midi": 67,
      "hit": false,
      "t": 116500.00000000007,
      "d": 328.125,
      "v": 75
    },
    {
      "midi": 63,
      "hit": false,
      "t": 116750,
      "d": 250,
      "v": 56
    },
    {
      "midi": 63,
      "hit": false,
      "t": 116750.00000000007,
      "d": 250,
      "v": 75
    },
    {
      "midi": 77,
      "hit": false,
      "t": 116875,
      "d": 54.6875,
      "v": 71
    },
    {
      "midi": 77,
      "hit": false,
      "t": 116875.00000000007,
      "d": 54.6875,
      "v": 90
    },
    {
      "midi": 70,
      "hit": false,
      "t": 117000,
      "d": 335.9375,
      "v": 58
    },
    {
      "midi": 77,
      "hit": false,
      "t": 117000,
      "d": 833.3333333333285,
      "v": 83
    },
    {
      "midi": 70,
      "hit": false,
      "t": 117000.00000000007,
      "d": 335.9375,
      "v": 77
    },
    {
      "midi": 77,
      "hit": false,
      "t": 117000.00000000007,
      "d": 833.3333333333285,
      "v": 102
    },
    {
      "midi": 63,
      "hit": false,
      "t": 117250,
      "d": 294.2708333333285,
      "v": 56
    },
    {
      "midi": 63,
      "hit": false,
      "t": 117250.00000000007,
      "d": 294.2708333333285,
      "v": 75
    },
    {
      "midi": 67,
      "hit": false,
      "t": 117500,
      "d": 403.6458333333285,
      "v": 56
    },
    {
      "midi": 67,
      "hit": false,
      "t": 117500.00000000007,
      "d": 403.6458333333285,
      "v": 75
    },
    {
      "midi": 63,
      "hit": false,
      "t": 117750,
      "d": 281.25,
      "v": 50
    },
    {
      "midi": 63,
      "hit": false,
      "t": 117750.00000000007,
      "d": 281.25,
      "v": 69
    },
    {
      "midi": 77,
      "hit": false,
      "t": 118000,
      "d": 361.9791666666715,
      "v": 77
    },
    {
      "midi": 72,
      "hit": false,
      "t": 118000,
      "d": 466.14583333334303,
      "v": 58
    },
    {
      "midi": 77,
      "hit": false,
      "t": 118000.00000000007,
      "d": 361.9791666666715,
      "v": 96
    },
    {
      "midi": 72,
      "hit": false,
      "t": 118000.00000000007,
      "d": 466.14583333334303,
      "v": 77
    },
    {
      "midi": 63,
      "hit": false,
      "t": 118250,
      "d": 294.27083333334303,
      "v": 44
    },
    {
      "midi": 63,
      "hit": false,
      "t": 118250.00000000007,
      "d": 294.27083333334303,
      "v": 63
    },
    {
      "midi": 74,
      "hit": false,
      "t": 118500.00000000001,
      "d": 286.4583333333285,
      "v": 74
    },
    {
      "midi": 68,
      "hit": false,
      "t": 118500.00000000001,
      "d": 333.3333333333285,
      "v": 50
    },
    {
      "midi": 74,
      "hit": false,
      "t": 118500.00000000009,
      "d": 286.4583333333285,
      "v": 93
    },
    {
      "midi": 68,
      "hit": false,
      "t": 118500.00000000009,
      "d": 333.3333333333285,
      "v": 69
    },
    {
      "midi": 63,
      "hit": false,
      "t": 118750.00000000001,
      "d": 263.0208333333285,
      "v": 50
    },
    {
      "midi": 63,
      "hit": false,
      "t": 118750.00000000009,
      "d": 263.0208333333285,
      "v": 69
    },
    {
      "midi": 75,
      "hit": false,
      "t": 118875.00000000001,
      "d": 59.89583333332848,
      "v": 68
    },
    {
      "midi": 75,
      "hit": false,
      "t": 118875.00000000009,
      "d": 59.89583333332848,
      "v": 87
    },
    {
      "midi": 72,
      "hit": false,
      "t": 119000.00000000001,
      "d": 356.7708333333285,
      "v": 60
    },
    {
      "midi": 75,
      "hit": false,
      "t": 119000.00000000001,
      "d": 804.6875,
      "v": 66
    },
    {
      "midi": 72,
      "hit": false,
      "t": 119000.00000000009,
      "d": 356.7708333333285,
      "v": 79
    },
    {
      "midi": 75,
      "hit": false,
      "t": 119000.00000000009,
      "d": 804.6875,
      "v": 85
    },
    {
      "midi": 63,
      "hit": false,
      "t": 119250.00000000001,
      "d": 299.4791666666715,
      "v": 54
    },
    {
      "midi": 63,
      "hit": false,
      "t": 119250.00000000009,
      "d": 299.4791666666715,
      "v": 73
    },
    {
      "midi": 68,
      "hit": false,
      "t": 119500.00000000001,
      "d": 294.2708333333285,
      "v": 50
    },
    {
      "midi": 68,
      "hit": false,
      "t": 119500.00000000009,
      "d": 294.2708333333285,
      "v": 69
    },
    {
      "midi": 63,
      "hit": false,
      "t": 119750.00000000001,
      "d": 278.6458333333285,
      "v": 60
    },
    {
      "midi": 63,
      "hit": false,
      "t": 119750.00000000009,
      "d": 278.6458333333285,
      "v": 79
    },
    {
      "midi": 72,
      "hit": false,
      "t": 120000.00000000001,
      "d": 494.7916666666715,
      "v": 60
    },
    {
      "midi": 75,
      "hit": false,
      "t": 120000.00000000001,
      "d": 541.6666666666715,
      "v": 60
    },
    {
      "midi": 72,
      "hit": false,
      "t": 120000.00000000009,
      "d": 494.7916666666715,
      "v": 79
    },
    {
      "midi": 75,
      "hit": false,
      "t": 120000.00000000009,
      "d": 541.6666666666715,
      "v": 79
    },
    {
      "midi": 63,
      "hit": false,
      "t": 120250.00000000001,
      "d": 296.875,
      "v": 50
    },
    {
      "midi": 63,
      "hit": false,
      "t": 120250.00000000009,
      "d": 296.875,
      "v": 69
    },
    {
      "midi": 80,
      "hit": false,
      "t": 120500.00000000001,
      "d": 273.4375,
      "v": 66
    },
    {
      "midi": 68,
      "hit": false,
      "t": 120500.00000000001,
      "d": 304.6875,
      "v": 54
    },
    {
      "midi": 80,
      "hit": false,
      "t": 120500.00000000009,
      "d": 273.4375,
      "v": 85
    },
    {
      "midi": 68,
      "hit": false,
      "t": 120500.00000000009,
      "d": 304.6875,
      "v": 73
    },
    {
      "midi": 75,
      "hit": false,
      "t": 120750.00000000001,
      "d": 252.60416666667152,
      "v": 60
    },
    {
      "midi": 63,
      "hit": false,
      "t": 120750.00000000001,
      "d": 294.27083333334303,
      "v": 58
    },
    {
      "midi": 75,
      "hit": false,
      "t": 120750.00000000009,
      "d": 252.60416666667152,
      "v": 79
    },
    {
      "midi": 63,
      "hit": false,
      "t": 120750.00000000009,
      "d": 294.27083333334303,
      "v": 77
    },
    {
      "midi": 72,
      "hit": false,
      "t": 121000.00000000001,
      "d": 513.020833333343,
      "v": 60
    },
    {
      "midi": 77,
      "hit": false,
      "t": 121000.00000000001,
      "d": 515.6250000000146,
      "v": 66
    },
    {
      "midi": 72,
      "hit": false,
      "t": 121000.00000000009,
      "d": 513.020833333343,
      "v": 79
    },
    {
      "midi": 77,
      "hit": false,
      "t": 121000.00000000009,
      "d": 515.6250000000146,
      "v": 85
    },
    {
      "midi": 63,
      "hit": false,
      "t": 121250.00000000003,
      "d": 294.2708333333285,
      "v": 46
    },
    {
      "midi": 63,
      "hit": false,
      "t": 121250.0000000001,
      "d": 294.2708333333285,
      "v": 65
    },
    {
      "midi": 68,
      "hit": false,
      "t": 121500.00000000003,
      "d": 286.4583333333285,
      "v": 54
    },
    {
      "midi": 80,
      "hit": false,
      "t": 121500.00000000003,
      "d": 497.3958333333285,
      "v": 71
    },
    {
      "midi": 68,
      "hit": false,
      "t": 121500.0000000001,
      "d": 286.4583333333285,
      "v": 73
    },
    {
      "midi": 80,
      "hit": false,
      "t": 121500.0000000001,
      "d": 497.3958333333285,
      "v": 90
    },
    {
      "midi": 63,
      "hit": false,
      "t": 121750.00000000003,
      "d": 294.2708333333285,
      "v": 58
    },
    {
      "midi": 63,
      "hit": false,
      "t": 121750.0000000001,
      "d": 294.2708333333285,
      "v": 77
    },
    {
      "midi": 70,
      "hit": false,
      "t": 122000.00000000003,
      "d": 421.875,
      "v": 56
    },
    {
      "midi": 79,
      "hit": false,
      "t": 122000.00000000003,
      "d": 1033.8541666666715,
      "v": 71
    },
    {
      "midi": 70,
      "hit": false,
      "t": 122000.0000000001,
      "d": 421.875,
      "v": 75
    },
    {
      "midi": 79,
      "hit": false,
      "t": 122000.0000000001,
      "d": 1033.8541666666715,
      "v": 90
    },
    {
      "midi": 63,
      "hit": false,
      "t": 122250.00000000003,
      "d": 307.2916666666715,
      "v": 44
    },
    {
      "midi": 63,
      "hit": false,
      "t": 122250.0000000001,
      "d": 307.2916666666715,
      "v": 63
    },
    {
      "midi": 67,
      "hit": false,
      "t": 122500.00000000003,
      "d": 317.7083333333285,
      "v": 50
    },
    {
      "midi": 67,
      "hit": false,
      "t": 122500.0000000001,
      "d": 317.7083333333285,
      "v": 69
    },
    {
      "midi": 63,
      "hit": false,
      "t": 122750.00000000003,
      "d": 299.4791666666715,
      "v": 52
    },
    {
      "midi": 63,
      "hit": false,
      "t": 122750.0000000001,
      "d": 299.4791666666715,
      "v": 71
    },
    {
      "midi": 70,
      "hit": false,
      "t": 123000.00000000003,
      "d": 390.625,
      "v": 60
    },
    {
      "midi": 85,
      "hit": false,
      "t": 123000.00000000003,
      "d": 768.2291666666715,
      "v": 66
    },
    {
      "midi": 70,
      "hit": false,
      "t": 123000.0000000001,
      "d": 390.625,
      "v": 79
    },
    {
      "midi": 85,
      "hit": false,
      "t": 123000.0000000001,
      "d": 768.2291666666715,
      "v": 85
    },
    {
      "midi": 63,
      "hit": false,
      "t": 123250.00000000003,
      "d": 294.2708333333285,
      "v": 48
    },
    {
      "midi": 63,
      "hit": false,
      "t": 123250.0000000001,
      "d": 294.2708333333285,
      "v": 67
    },
    {
      "midi": 67,
      "hit": false,
      "t": 123500.00000000003,
      "d": 333.33333333334303,
      "v": 56
    },
    {
      "midi": 67,
      "hit": false,
      "t": 123500.0000000001,
      "d": 333.33333333334303,
      "v": 75
    },
    {
      "midi": 63,
      "hit": false,
      "t": 123750.00000000003,
      "d": 309.89583333334303,
      "v": 56
    },
    {
      "midi": 63,
      "hit": false,
      "t": 123750.0000000001,
      "d": 309.89583333334303,
      "v": 75
    },
    {
      "midi": 70,
      "hit": false,
      "t": 124000.00000000004,
      "d": 317.7083333333285,
      "v": 66
    },
    {
      "midi": 75,
      "hit": false,
      "t": 124000.00000000004,
      "d": 526.0416666666715,
      "v": 58
    },
    {
      "midi": 70,
      "hit": false,
      "t": 124000.00000000012,
      "d": 317.7083333333285,
      "v": 85
    },
    {
      "midi": 75,
      "hit": false,
      "t": 124000.00000000012,
      "d": 526.0416666666715,
      "v": 77
    },
    {
      "midi": 63,
      "hit": false,
      "t": 124250.00000000004,
      "d": 302.08333333334303,
      "v": 54
    },
    {
      "midi": 63,
      "hit": false,
      "t": 124250.00000000012,
      "d": 302.08333333334303,
      "v": 73
    },
    {
      "midi": 79,
      "hit": false,
      "t": 124500.00000000004,
      "d": 278.64583333334303,
      "v": 64
    },
    {
      "midi": 67,
      "hit": false,
      "t": 124500.00000000004,
      "d": 320.31250000001455,
      "v": 56
    },
    {
      "midi": 79,
      "hit": false,
      "t": 124500.00000000012,
      "d": 278.64583333334303,
      "v": 83
    },
    {
      "midi": 67,
      "hit": false,
      "t": 124500.00000000012,
      "d": 320.31250000001455,
      "v": 75
    },
    {
      "midi": 75,
      "hit": false,
      "t": 124750.00000000006,
      "d": 263.0208333333285,
      "v": 46
    },
    {
      "midi": 63,
      "hit": false,
      "t": 124750.00000000006,
      "d": 270.8333333333285,
      "v": 54
    },
    {
      "midi": 75,
      "hit": false,
      "t": 124750.00000000013,
      "d": 263.0208333333285,
      "v": 65
    },
    {
      "midi": 63,
      "hit": false,
      "t": 124750.00000000013,
      "d": 270.8333333333285,
      "v": 73
    },
    {
      "midi": 70,
      "hit": false,
      "t": 125000.00000000006,
      "d": 286.4583333333285,
      "v": 56
    },
    {
      "midi": 77,
      "hit": false,
      "t": 125000.00000000006,
      "d": 570.3125,
      "v": 62
    },
    {
      "midi": 70,
      "hit": false,
      "t": 125000.00000000013,
      "d": 286.4583333333285,
      "v": 75
    },
    {
      "midi": 77,
      "hit": false,
      "t": 125000.00000000013,
      "d": 570.3125,
      "v": 81
    },
    {
      "midi": 63,
      "hit": false,
      "t": 125250.00000000006,
      "d": 291.6666666666715,
      "v": 56
    },
    {
      "midi": 63,
      "hit": false,
      "t": 125250.00000000013,
      "d": 291.6666666666715,
      "v": 75
    },
    {
      "midi": 67,
      "hit": false,
      "t": 125500.00000000006,
      "d": 330.7291666666715,
      "v": 64
    },
    {
      "midi": 79,
      "hit": false,
      "t": 125500.00000000006,
      "d": 492.1875,
      "v": 64
    },
    {
      "midi": 67,
      "hit": false,
      "t": 125500.00000000013,
      "d": 330.7291666666715,
      "v": 83
    },
    {
      "midi": 79,
      "hit": false,
      "t": 125500.00000000013,
      "d": 492.1875,
      "v": 83
    },
    {
      "midi": 63,
      "hit": false,
      "t": 125750.00000000006,
      "d": 289.0625,
      "v": 62
    },
    {
      "midi": 63,
      "hit": false,
      "t": 125750.00000000013,
      "d": 289.0625,
      "v": 81
    },
    {
      "midi": 72,
      "hit": false,
      "t": 126000.00000000006,
      "d": 294.2708333333285,
      "v": 52
    },
    {
      "midi": 75,
      "hit": false,
      "t": 126000.00000000006,
      "d": 1041.6666666666715,
      "v": 60
    },
    {
      "midi": 72,
      "hit": false,
      "t": 126000.00000000013,
      "d": 294.2708333333285,
      "v": 71
    },
    {
      "midi": 75,
      "hit": false,
      "t": 126000.00000000013,
      "d": 1041.6666666666715,
      "v": 79
    },
    {
      "midi": 63,
      "hit": false,
      "t": 126250.00000000006,
      "d": 320.3125,
      "v": 56
    },
    {
      "midi": 63,
      "hit": false,
      "t": 126250.00000000013,
      "d": 320.3125,
      "v": 75
    },
    {
      "midi": 68,
      "hit": false,
      "t": 126500.00000000006,
      "d": 302.0833333333285,
      "v": 60
    },
    {
      "midi": 68,
      "hit": false,
      "t": 126500.00000000013,
      "d": 302.0833333333285,
      "v": 79
    },
    {
      "midi": 63,
      "hit": false,
      "t": 126750.00000000006,
      "d": 291.6666666666715,
      "v": 62
    },
    {
      "midi": 63,
      "hit": false,
      "t": 126750.00000000013,
      "d": 291.6666666666715,
      "v": 81
    },
    {
      "midi": 72,
      "hit": false,
      "t": 127000.00000000006,
      "d": 283.8541666666715,
      "v": 62
    },
    {
      "midi": 84,
      "hit": false,
      "t": 127000.00000000006,
      "d": 752.6041666666715,
      "v": 60
    },
    {
      "midi": 72,
      "hit": false,
      "t": 127000.00000000013,
      "d": 283.8541666666715,
      "v": 81
    },
    {
      "midi": 84,
      "hit": false,
      "t": 127000.00000000013,
      "d": 752.6041666666715,
      "v": 79
    },
    {
      "midi": 63,
      "hit": false,
      "t": 127250.00000000006,
      "d": 299.4791666666715,
      "v": 50
    },
    {
      "midi": 63,
      "hit": false,
      "t": 127250.00000000013,
      "d": 299.4791666666715,
      "v": 69
    },
    {
      "midi": 68,
      "hit": false,
      "t": 127500.00000000006,
      "d": 317.70833333334303,
      "v": 54
    },
    {
      "midi": 68,
      "hit": false,
      "t": 127500.00000000013,
      "d": 317.70833333334303,
      "v": 73
    },
    {
      "midi": 63,
      "hit": false,
      "t": 127750.00000000006,
      "d": 276.04166666668607,
      "v": 62
    },
    {
      "midi": 63,
      "hit": false,
      "t": 127750.00000000013,
      "d": 276.04166666668607,
      "v": 81
    },
    {
      "midi": 75,
      "hit": false,
      "t": 128000.00000000007,
      "d": 156.25,
      "v": 60
    },
    {
      "midi": 84,
      "hit": false,
      "t": 128000.00000000007,
      "d": 187.5,
      "v": 66
    },
    {
      "midi": 72,
      "hit": false,
      "t": 128000.00000000007,
      "d": 289.0625,
      "v": 62
    },
    {
      "midi": 75,
      "hit": false,
      "t": 128000.00000000015,
      "d": 156.25,
      "v": 79
    },
    {
      "midi": 84,
      "hit": false,
      "t": 128000.00000000015,
      "d": 187.5,
      "v": 85
    },
    {
      "midi": 72,
      "hit": false,
      "t": 128000.00000000015,
      "d": 289.0625,
      "v": 81
    },
    {
      "midi": 63,
      "hit": false,
      "t": 128250.00000000007,
      "d": 346.3541666666715,
      "v": 66
    },
    {
      "midi": 63,
      "hit": false,
      "t": 128250.00000000015,
      "d": 346.3541666666715,
      "v": 85
    },
    {
      "midi": 84,
      "hit": false,
      "t": 128500.00000000007,
      "d": 109.375,
      "v": 44
    },
    {
      "midi": 75,
      "hit": false,
      "t": 128500.00000000007,
      "d": 151.04166666667152,
      "v": 48
    },
    {
      "midi": 68,
      "hit": false,
      "t": 128500.00000000007,
      "d": 497.3958333333285,
      "v": 48
    },
    {
      "midi": 84,
      "hit": false,
      "t": 128500.00000000015,
      "d": 109.375,
      "v": 63
    },
    {
      "midi": 75,
      "hit": false,
      "t": 128500.00000000015,
      "d": 151.04166666667152,
      "v": 67
    },
    {
      "midi": 68,
      "hit": false,
      "t": 128500.00000000015,
      "d": 497.3958333333285,
      "v": 67
    },
    {
      "midi": 63,
      "hit": false,
      "t": 128750.00000000007,
      "d": 223.95833333332848,
      "v": 50
    },
    {
      "midi": 63,
      "hit": false,
      "t": 128750.00000000015,
      "d": 223.95833333332848,
      "v": 69
    },
    {
      "midi": 84,
      "hit": false,
      "t": 128875.00000000007,
      "d": 80.72916666667152,
      "v": 62
    },
    {
      "midi": 75,
      "hit": false,
      "t": 128875.00000000007,
      "d": 93.75,
      "v": 48
    },
    {
      "midi": 84,
      "hit": false,
      "t": 128875.00000000015,
      "d": 80.72916666667152,
      "v": 81
    },
    {
      "midi": 75,
      "hit": false,
      "t": 128875.00000000015,
      "d": 93.75,
      "v": 67
    },
    {
      "midi": 72,
      "hit": false,
      "t": 129000.00000000007,
      "d": 289.0625,
      "v": 52
    },
    {
      "midi": 84,
      "hit": false,
      "t": 129000.00000000007,
      "d": 359.375,
      "v": 60
    },
    {
      "midi": 75,
      "hit": false,
      "t": 129000.00000000007,
      "d": 364.5833333333285,
      "v": 68
    },
    {
      "midi": 72,
      "hit": false,
      "t": 129000.00000000015,
      "d": 289.0625,
      "v": 71
    },
    {
      "midi": 84,
      "hit": false,
      "t": 129000.00000000015,
      "d": 359.375,
      "v": 79
    },
    {
      "midi": 75,
      "hit": false,
      "t": 129000.00000000015,
      "d": 364.5833333333285,
      "v": 87
    },
    {
      "midi": 63,
      "hit": false,
      "t": 129250.00000000007,
      "d": 281.25,
      "v": 54
    },
    {
      "midi": 63,
      "hit": false,
      "t": 129250.00000000015,
      "d": 281.25,
      "v": 73
    },
    {
      "midi": 75,
      "hit": false,
      "t": 129500.00000000007,
      "d": 96.35416666667152,
      "v": 56
    },
    {
      "midi": 84,
      "hit": false,
      "t": 129500.00000000007,
      "d": 96.35416666667152,
      "v": 56
    },
    {
      "midi": 68,
      "hit": false,
      "t": 129500.00000000007,
      "d": 510.41666666665697,
      "v": 60
    },
    {
      "midi": 75,
      "hit": false,
      "t": 129500.00000000015,
      "d": 96.35416666667152,
      "v": 75
    },
    {
      "midi": 84,
      "hit": false,
      "t": 129500.00000000015,
      "d": 96.35416666667152,
      "v": 75
    },
    {
      "midi": 68,
      "hit": false,
      "t": 129500.00000000015,
      "d": 510.41666666665697,
      "v": 79
    },
    {
      "midi": 75,
      "hit": false,
      "t": 129750.00000000007,
      "d": 80.72916666667152,
      "v": 50
    },
    {
      "midi": 84,
      "hit": false,
      "t": 129750.00000000007,
      "d": 96.35416666667152,
      "v": 58
    },
    {
      "midi": 63,
      "hit": false,
      "t": 129750.00000000007,
      "d": 255.20833333332848,
      "v": 48
    },
    {
      "midi": 75,
      "hit": false,
      "t": 129750.00000000015,
      "d": 80.72916666667152,
      "v": 69
    },
    {
      "midi": 84,
      "hit": false,
      "t": 129750.00000000015,
      "d": 96.35416666667152,
      "v": 77
    },
    {
      "midi": 63,
      "hit": false,
      "t": 129750.00000000015,
      "d": 255.20833333332848,
      "v": 67
    },
    {
      "midi": 73,
      "hit": false,
      "t": 130000.00000000007,
      "d": 325.52083333331393,
      "v": 62
    },
    {
      "midi": 79,
      "hit": false,
      "t": 130000.00000000007,
      "d": 632.8124999999854,
      "v": 64
    },
    {
      "midi": 87,
      "hit": false,
      "t": 130000.00000000007,
      "d": 653.6458333333139,
      "v": 71
    },
    {
      "midi": 73,
      "hit": false,
      "t": 130000.00000000015,
      "d": 325.52083333331393,
      "v": 81
    },
    {
      "midi": 79,
      "hit": false,
      "t": 130000.00000000015,
      "d": 632.8124999999854,
      "v": 83
    },
    {
      "midi": 87,
      "hit": false,
      "t": 130000.00000000015,
      "d": 653.6458333333139,
      "v": 90
    },
    {
      "midi": 65,
      "hit": false,
      "t": 130250.00000000006,
      "d": 283.8541666666715,
      "v": 54
    },
    {
      "midi": 65,
      "hit": false,
      "t": 130250.00000000013,
      "d": 283.8541666666715,
      "v": 73
    },
    {
      "midi": 68,
      "hit": false,
      "t": 130500.00000000006,
      "d": 335.9375,
      "v": 71
    },
    {
      "midi": 68,
      "hit": false,
      "t": 130500.00000000013,
      "d": 335.9375,
      "v": 90
    },
    {
      "midi": 78,
      "hit": false,
      "t": 130750.00000000006,
      "d": 101.5625,
      "v": 60
    },
    {
      "midi": 86,
      "hit": false,
      "t": 130750.00000000006,
      "d": 125,
      "v": 71
    },
    {
      "midi": 65,
      "hit": false,
      "t": 130750.00000000006,
      "d": 278.6458333333285,
      "v": 62
    },
    {
      "midi": 78,
      "hit": false,
      "t": 130750.00000000013,
      "d": 101.5625,
      "v": 79
    },
    {
      "midi": 86,
      "hit": false,
      "t": 130750.00000000013,
      "d": 125,
      "v": 90
    },
    {
      "midi": 65,
      "hit": false,
      "t": 130750.00000000013,
      "d": 278.6458333333285,
      "v": 81
    },
    {
      "midi": 73,
      "hit": false,
      "t": 131000.00000000006,
      "d": 294.27083333334303,
      "v": 68
    },
    {
      "midi": 77,
      "hit": false,
      "t": 131000.00000000006,
      "d": 645.8333333333139,
      "v": 54
    },
    {
      "midi": 85,
      "hit": false,
      "t": 131000.00000000006,
      "d": 671.8749999999709,
      "v": 64
    },
    {
      "midi": 73,
      "hit": false,
      "t": 131000.00000000013,
      "d": 294.2708333333285,
      "v": 87
    },
    {
      "midi": 77,
      "hit": false,
      "t": 131000.00000000013,
      "d": 645.8333333332994,
      "v": 73
    },
    {
      "midi": 85,
      "hit": false,
      "t": 131000.00000000013,
      "d": 671.8749999999563,
      "v": 83
    },
    {
      "midi": 65,
      "hit": false,
      "t": 131250.00000000006,
      "d": 283.85416666665697,
      "v": 62
    },
    {
      "midi": 65,
      "hit": false,
      "t": 131250.00000000012,
      "d": 283.85416666665697,
      "v": 81
    },
    {
      "midi": 68,
      "hit": false,
      "t": 131500.00000000006,
      "d": 515.6249999999709,
      "v": 74
    },
    {
      "midi": 68,
      "hit": false,
      "t": 131500.00000000012,
      "d": 515.6249999999709,
      "v": 93
    },
    {
      "midi": 85,
      "hit": false,
      "t": 131750.00000000003,
      "d": 96.35416666665697,
      "v": 68
    },
    {
      "midi": 77,
      "hit": false,
      "t": 131750.00000000003,
      "d": 104.16666666665697,
      "v": 60
    },
    {
      "midi": 65,
      "hit": false,
      "t": 131750.00000000003,
      "d": 244.79166666665697,
      "v": 54
    },
    {
      "midi": 85,
      "hit": false,
      "t": 131750.0000000001,
      "d": 96.35416666665697,
      "v": 87
    },
    {
      "midi": 77,
      "hit": false,
      "t": 131750.0000000001,
      "d": 104.16666666665697,
      "v": 79
    },
    {
      "midi": 65,
      "hit": false,
      "t": 131750.0000000001,
      "d": 244.79166666665697,
      "v": 73
    },
    {
      "midi": 72,
      "hit": false,
      "t": 132000.00000000003,
      "d": 263.02083333334303,
      "v": 62
    },
    {
      "midi": 75,
      "hit": false,
      "t": 132000.00000000003,
      "d": 500,
      "v": 80
    },
    {
      "midi": 84,
      "hit": false,
      "t": 132000.00000000003,
      "d": 614.5833333333139,
      "v": 68
    },
    {
      "midi": 72,
      "hit": false,
      "t": 132000.0000000001,
      "d": 263.02083333334303,
      "v": 81
    },
    {
      "midi": 75,
      "hit": false,
      "t": 132000.0000000001,
      "d": 500,
      "v": 99
    },
    {
      "midi": 84,
      "hit": false,
      "t": 132000.0000000001,
      "d": 614.5833333333139,
      "v": 87
    },
    {
      "midi": 63,
      "hit": false,
      "t": 132250.00000000003,
      "d": 291.66666666665697,
      "v": 62
    },
    {
      "midi": 63,
      "hit": false,
      "t": 132250.0000000001,
      "d": 291.66666666665697,
      "v": 81
    },
    {
      "midi": 68,
      "hit": false,
      "t": 132500.00000000003,
      "d": 286.45833333331393,
      "v": 60
    },
    {
      "midi": 68,
      "hit": false,
      "t": 132500.0000000001,
      "d": 286.45833333331393,
      "v": 79
    },
    {
      "midi": 72,
      "hit": false,
      "t": 132750,
      "d": 96.35416666668607,
      "v": 71
    },
    {
      "midi": 80,
      "hit": false,
      "t": 132750,
      "d": 148.4375000000291,
      "v": 77
    },
    {
      "midi": 63,
      "hit": false,
      "t": 132750,
      "d": 283.85416666668607,
      "v": 66
    },
    {
      "midi": 72,
      "hit": false,
      "t": 132750.00000000006,
      "d": 96.35416666668607,
      "v": 90
    },
    {
      "midi": 80,
      "hit": false,
      "t": 132750.00000000006,
      "d": 148.4375000000291,
      "v": 96
    },
    {
      "midi": 63,
      "hit": false,
      "t": 132750.00000000006,
      "d": 283.85416666668607,
      "v": 85
    },
    {
      "midi": 70,
      "hit": false,
      "t": 133000.00000000003,
      "d": 299.47916666665697,
      "v": 66
    },
    {
      "midi": 73,
      "hit": false,
      "t": 133000.00000000003,
      "d": 476.5625,
      "v": 68
    },
    {
      "midi": 82,
      "hit": false,
      "t": 133000.00000000003,
      "d": 604.166666666657,
      "v": 68
    },
    {
      "midi": 70,
      "hit": false,
      "t": 133000.0000000001,
      "d": 299.47916666665697,
      "v": 85
    },
    {
      "midi": 73,
      "hit": false,
      "t": 133000.0000000001,
      "d": 476.5625,
      "v": 87
    },
    {
      "midi": 82,
      "hit": false,
      "t": 133000.0000000001,
      "d": 604.166666666657,
      "v": 87
    },
    {
      "midi": 63,
      "hit": false,
      "t": 133250.00000000003,
      "d": 299.47916666665697,
      "v": 60
    },
    {
      "midi": 63,
      "hit": false,
      "t": 133250.0000000001,
      "d": 299.47916666665697,
      "v": 79
    },
    {
      "midi": 67,
      "hit": false,
      "t": 133500.00000000003,
      "d": 398.4375,
      "v": 66
    },
    {
      "midi": 67,
      "hit": false,
      "t": 133500.0000000001,
      "d": 398.4375,
      "v": 85
    },
    {
      "midi": 70,
      "hit": false,
      "t": 133750.00000000003,
      "d": 119.79166666665697,
      "v": 64
    },
    {
      "midi": 79,
      "hit": false,
      "t": 133750.00000000003,
      "d": 135.41666666665697,
      "v": 64
    },
    {
      "midi": 63,
      "hit": false,
      "t": 133750.00000000003,
      "d": 265.625,
      "v": 58
    },
    {
      "midi": 70,
      "hit": false,
      "t": 133750.0000000001,
      "d": 119.79166666665697,
      "v": 83
    },
    {
      "midi": 79,
      "hit": false,
      "t": 133750.0000000001,
      "d": 135.41666666665697,
      "v": 83
    },
    {
      "midi": 63,
      "hit": false,
      "t": 133750.0000000001,
      "d": 265.625,
      "v": 77
    },
    {
      "midi": 72,
      "hit": false,
      "t": 134000.00000000003,
      "d": 434.89583333334303,
      "v": 60
    },
    {
      "midi": 80,
      "hit": false,
      "t": 134000.00000000003,
      "d": 1177.083333333343,
      "v": 74
    },
    {
      "midi": 72,
      "hit": false,
      "t": 134000.0000000001,
      "d": 434.89583333334303,
      "v": 79
    },
    {
      "midi": 80,
      "hit": false,
      "t": 134000.0000000001,
      "d": 1177.083333333343,
      "v": 93
    },
    {
      "midi": 63,
      "hit": false,
      "t": 134250.00000000003,
      "d": 296.875,
      "v": 48
    },
    {
      "midi": 63,
      "hit": false,
      "t": 134250.0000000001,
      "d": 296.875,
      "v": 67
    },
    {
      "midi": 68,
      "hit": false,
      "t": 134500.00000000003,
      "d": 484.375,
      "v": 62
    },
    {
      "midi": 68,
      "hit": false,
      "t": 134500.0000000001,
      "d": 484.375,
      "v": 81
    },
    {
      "midi": 63,
      "hit": false,
      "t": 134750.00000000003,
      "d": 421.875,
      "v": 62
    },
    {
      "midi": 63,
      "hit": false,
      "t": 134750.0000000001,
      "d": 421.875,
      "v": 81
    },
    {
      "midi": 72,
      "hit": false,
      "t": 135000.00000000003,
      "d": 130.20833333334303,
      "v": 66
    },
    {
      "midi": 72,
      "hit": false,
      "t": 135000.0000000001,
      "d": 130.20833333334303,
      "v": 85
    },
    {
      "midi": 67,
      "hit": false,
      "t": 136000.00000000003,
      "d": 130.20833333334303,
      "v": 77
    },
    {
      "midi": 70,
      "hit": false,
      "t": 136000.00000000003,
      "d": 130.20833333334303,
      "v": 83
    },
    {
      "midi": 75,
      "hit": false,
      "t": 136000.00000000003,
      "d": 140.625,
      "v": 89
    },
    {
      "midi": 68,
      "hit": false,
      "t": 136875.00000000003,
      "d": 914.0625,
      "v": 86
    },
    {
      "midi": 72,
      "hit": false,
      "t": 136875.00000000003,
      "d": 914.0625,
      "v": 86
    },
    {
      "midi": 75,
      "hit": false,
      "t": 136875.00000000003,
      "d": 947.916666666657,
      "v": 77
    },
    {
      "midi": 65,
      "hit": false,
      "t": 138000.00000000003,
      "d": 109.375,
      "v": 83
    },
    {
      "midi": 70,
      "hit": false,
      "t": 138000.00000000003,
      "d": 114.58333333334303,
      "v": 83
    },
    {
      "midi": 74,
      "hit": false,
      "t": 138000.00000000003,
      "d": 130.20833333334303,
      "v": 89
    },
    {
      "midi": 65,
      "hit": false,
      "t": 138500.00000000003,
      "d": 408.85416666665697,
      "v": 86
    },
    {
      "midi": 74,
      "hit": false,
      "t": 138500.00000000003,
      "d": 421.875,
      "v": 86
    },
    {
      "midi": 70,
      "hit": false,
      "t": 138500.00000000003,
      "d": 424.47916666665697,
      "v": 83
    },
    {
      "midi": 70,
      "hit": false,
      "t": 139000.00000000003,
      "d": 98.95833333334303,
      "v": 71
    },
    {
      "midi": 67,
      "hit": false,
      "t": 139000.00000000003,
      "d": 114.58333333334303,
      "v": 77
    },
    {
      "midi": 75,
      "hit": false,
      "t": 139000.00000000003,
      "d": 119.79166666668607,
      "v": 95
    },
    {
      "midi": 53,
      "hit": false,
      "t": 152000.00000000006,
      "d": 809.895833333343,
      "v": 74
    },
    {
      "midi": 57,
      "hit": false,
      "t": 152000.00000000006,
      "d": 856.770833333343,
      "v": 80
    },
    {
      "midi": 60,
      "hit": false,
      "t": 152000.00000000006,
      "d": 856.770833333343,
      "v": 83
    },
    {
      "midi": 62,
      "hit": false,
      "t": 153000.00000000006,
      "d": 747.395833333343,
      "v": 89
    },
    {
      "midi": 53,
      "hit": false,
      "t": 153000.00000000006,
      "d": 750,
      "v": 83
    },
    {
      "midi": 58,
      "hit": false,
      "t": 153000.00000000006,
      "d": 802.083333333343,
      "v": 80
    },
    {
      "midi": 60,
      "hit": false,
      "t": 154000.00000000006,
      "d": 257.8125,
      "v": 89
    },
    {
      "midi": 57,
      "hit": false,
      "t": 154000.00000000006,
      "d": 289.0625,
      "v": 89
    },
    {
      "midi": 53,
      "hit": false,
      "t": 154000.00000000006,
      "d": 304.6875,
      "v": 83
    },
    {
      "midi": 60,
      "hit": false,
      "t": 154500.00000000006,
      "d": 239.58333333334303,
      "v": 89
    },
    {
      "midi": 53,
      "hit": false,
      "t": 154500.00000000006,
      "d": 270.83333333334303,
      "v": 86
    },
    {
      "midi": 57,
      "hit": false,
      "t": 154500.00000000006,
      "d": 281.25,
      "v": 89
    },
    {
      "midi": 53,
      "hit": false,
      "t": 155000.00000000006,
      "d": 88.54166666665697,
      "v": 86
    },
    {
      "midi": 58,
      "hit": false,
      "t": 155000.00000000006,
      "d": 91.14583333331393,
      "v": 86
    },
    {
      "midi": 62,
      "hit": false,
      "t": 155000.00000000006,
      "d": 91.14583333331393,
      "v": 89
    },
    {
      "midi": 62,
      "hit": false,
      "t": 155250.00000000003,
      "d": 78.125,
      "v": 89
    },
    {
      "midi": 58,
      "hit": false,
      "t": 155250.00000000003,
      "d": 85.9375,
      "v": 86
    },
    {
      "midi": 53,
      "hit": false,
      "t": 155250.00000000003,
      "d": 96.35416666665697,
      "v": 86
    },
    {
      "midi": 53,
      "hit": false,
      "t": 155500.00000000003,
      "d": 62.5,
      "v": 92
    },
    {
      "midi": 58,
      "hit": false,
      "t": 155500.00000000003,
      "d": 122.39583333334303,
      "v": 89
    },
    {
      "midi": 62,
      "hit": false,
      "t": 155500.00000000003,
      "d": 130.20833333334303,
      "v": 89
    },
    {
      "midi": 67,
      "hit": false,
      "t": 156000.00000000003,
      "d": 1851.5625,
      "v": 52
    },
    {
      "midi": 75,
      "hit": false,
      "t": 156000.00000000003,
      "d": 1908.854166666657,
      "v": 58
    },
    {
      "midi": 70,
      "hit": false,
      "t": 156000.00000000003,
      "d": 1927.083333333314,
      "v": 56
    },
    {
      "midi": 65,
      "hit": false,
      "t": 158000,
      "d": 1888.020833333343,
      "v": 64
    },
    {
      "midi": 74,
      "hit": false,
      "t": 158000,
      "d": 1895.833333333343,
      "v": 62
    },
    {
      "midi": 70,
      "hit": false,
      "t": 158000,
      "d": 1903.645833333343,
      "v": 58
    },
    {
      "midi": 65,
      "hit": false,
      "t": 160000,
      "d": 1846.354166666657,
      "v": 62
    },
    {
      "midi": 70,
      "hit": false,
      "t": 160000,
      "d": 1885.416666666657,
      "v": 66
    },
    {
      "midi": 74,
      "hit": false,
      "t": 160000,
      "d": 1885.416666666657,
      "v": 68
    },
    {
      "midi": 70,
      "hit": false,
      "t": 162000,
      "d": 1906.25,
      "v": 56
    },
    {
      "midi": 75,
      "hit": false,
      "t": 162000,
      "d": 1914.0625,
      "v": 74
    },
    {
      "midi": 67,
      "hit": false,
      "t": 162000,
      "d": 1924.479166666657,
      "v": 60
    },
    {
      "midi": 67,
      "hit": false,
      "t": 164000,
      "d": 898.4375,
      "v": 58
    },
    {
      "midi": 70,
      "hit": false,
      "t": 164000,
      "d": 903.645833333343,
      "v": 60
    },
    {
      "midi": 75,
      "hit": false,
      "t": 164000,
      "d": 924.4791666666861,
      "v": 68
    },
    {
      "midi": 73,
      "hit": false,
      "t": 165000.00000000003,
      "d": 718.75,
      "v": 71
    },
    {
      "midi": 70,
      "hit": false,
      "t": 165000.00000000003,
      "d": 760.416666666657,
      "v": 68
    },
    {
      "midi": 67,
      "hit": false,
      "t": 165000.00000000003,
      "d": 861.979166666657,
      "v": 64
    },
    {
      "midi": 72,
      "hit": false,
      "t": 166000.00000000003,
      "d": 807.291666666657,
      "v": 71
    },
    {
      "midi": 68,
      "hit": false,
      "t": 166000.00000000003,
      "d": 812.5,
      "v": 62
    },
    {
      "midi": 63,
      "hit": false,
      "t": 166000.00000000003,
      "d": 888.020833333343,
      "v": 60
    },
    {
      "midi": 63,
      "hit": false,
      "t": 167000.00000000003,
      "d": 802.083333333343,
      "v": 74
    },
    {
      "midi": 72,
      "hit": false,
      "t": 167000.00000000003,
      "d": 807.2916666666861,
      "v": 80
    },
    {
      "midi": 66,
      "hit": false,
      "t": 167000.00000000003,
      "d": 809.895833333343,
      "v": 74
    },
    {
      "midi": 70,
      "hit": false,
      "t": 168000.00000000003,
      "d": 130.20833333334303,
      "v": 83
    },
    {
      "midi": 75,
      "hit": false,
      "t": 168000.00000000003,
      "d": 135.41666666668607,
      "v": 83
    },
    {
      "midi": 67,
      "hit": false,
      "t": 168000.00000000003,
      "d": 145.83333333334303,
      "v": 74
    },
    {
      "midi": 63,
      "hit": false,
      "t": 170000.00000000003,
      "d": 101.5625,
      "v": 66
    },
    {
      "midi": 72,
      "hit": false,
      "t": 170000.00000000003,
      "d": 111.97916666665697,
      "v": 74
    },
    {
      "midi": 68,
      "hit": false,
      "t": 170000.00000000003,
      "d": 127.60416666665697,
      "v": 71
    },
    {
      "midi": 65,
      "hit": false,
      "t": 170500.00000000003,
      "d": 96.35416666665697,
      "v": 83
    },
    {
      "midi": 70,
      "hit": false,
      "t": 170500.00000000003,
      "d": 111.97916666665697,
      "v": 86
    },
    {
      "midi": 74,
      "hit": false,
      "t": 170500.00000000003,
      "d": 119.79166666665697,
      "v": 77
    },
    {
      "midi": 70,
      "hit": false,
      "t": 171000.00000000003,
      "d": 72.91666666665697,
      "v": 71
    },
    {
      "midi": 67,
      "hit": false,
      "t": 171000.00000000003,
      "d": 93.75,
      "v": 80
    },
    {
      "midi": 75,
      "hit": false,
      "t": 171000.00000000003,
      "d": 96.35416666665697,
      "v": 83
    }
  ]
}