{
  "jsonPath": "Pop/Italian Arena Pop/Max Gazzè/non-era-previsto.json",
  "path": "Pop\\Italian Arena Pop\\Max Gazzè\\Non Era Previsto.mid",
  "name": "Non Era Previsto",
  "difficulty": "Advanced",
  "bpm": 133.00230537329313,
  "notes": [
    {
      "midi": 48,
      "hit": false,
      "t": 34285.12,
      "d": 657.8833333333314,
      "v": 97
    },
    {
      "midi": 67,
      "hit": false,
      "t": 34285.12,
      "d": 676.6800000000003,
      "v": 72
    },
    {
      "midi": 60,
      "hit": false,
      "t": 34966.49916666667,
      "d": 432.3233333333337,
      "v": 97
    },
    {
      "midi": 72,
      "hit": false,
      "t": 34971.198333333334,
      "d": 413.5266666666648,
      "v": 89
    },
    {
      "midi": 62,
      "hit": false,
      "t": 35411.98016666667,
      "d": 441.72166666666453,
      "v": 106
    },
    {
      "midi": 74,
      "hit": false,
      "t": 35416.67933333333,
      "d": 408.8274999999994,
      "v": 99
    },
    {
      "midi": 63,
      "hit": false,
      "t": 35869.679,
      "d": 441.72166666666453,
      "v": 100
    },
    {
      "midi": 75,
      "hit": false,
      "t": 35874.37816666666,
      "d": 413.5266666666648,
      "v": 92
    },
    {
      "midi": 65,
      "hit": false,
      "t": 36316.09983333333,
      "d": 455.819166666668,
      "v": 105
    },
    {
      "midi": 77,
      "hit": false,
      "t": 36320.79899999999,
      "d": 436.08266666666896,
      "v": 97
    },
    {
      "midi": 67,
      "hit": false,
      "t": 36775.67833333333,
      "d": 446.42083333332994,
      "v": 96
    },
    {
      "midi": 79,
      "hit": false,
      "t": 36780.377499999995,
      "d": 465.21749999999884,
      "v": 88
    },
    {
      "midi": 63,
      "hit": false,
      "t": 37226.798333333325,
      "d": 432.3233333333337,
      "v": 113
    },
    {
      "midi": 75,
      "hit": false,
      "t": 37231.49749999999,
      "d": 425.7445000000007,
      "v": 105
    },
    {
      "midi": 62,
      "hit": false,
      "t": 37676.03866666666,
      "d": 2001.8450000000012,
      "v": 104
    },
    {
      "midi": 74,
      "hit": false,
      "t": 37680.737833333325,
      "d": 2706.720000000001,
      "v": 96
    },
    {
      "midi": 48,
      "hit": false,
      "t": 41503.03999999999,
      "d": 657.8833333333314,
      "v": 89
    },
    {
      "midi": 60,
      "hit": false,
      "t": 42184.41916666666,
      "d": 432.3233333333337,
      "v": 96
    },
    {
      "midi": 72,
      "hit": false,
      "t": 42189.118333333325,
      "d": 413.5266666666648,
      "v": 89
    },
    {
      "midi": 62,
      "hit": false,
      "t": 42629.90016666666,
      "d": 441.72166666666453,
      "v": 107
    },
    {
      "midi": 74,
      "hit": false,
      "t": 42634.599333333324,
      "d": 408.8274999999994,
      "v": 98
    },
    {
      "midi": 63,
      "hit": false,
      "t": 43087.59899999999,
      "d": 441.72166666666453,
      "v": 101
    },
    {
      "midi": 75,
      "hit": false,
      "t": 43092.29816666665,
      "d": 413.5266666666648,
      "v": 92
    },
    {
      "midi": 65,
      "hit": false,
      "t": 43534.01983333332,
      "d": 455.819166666668,
      "v": 104
    },
    {
      "midi": 77,
      "hit": false,
      "t": 43538.71899999998,
      "d": 436.08266666666896,
      "v": 97
    },
    {
      "midi": 67,
      "hit": false,
      "t": 43993.59833333332,
      "d": 446.42083333332994,
      "v": 97
    },
    {
      "midi": 79,
      "hit": false,
      "t": 43998.297499999986,
      "d": 465.21749999999884,
      "v": 88
    },
    {
      "midi": 63,
      "hit": false,
      "t": 44444.718333333316,
      "d": 432.3233333333337,
      "v": 112
    },
    {
      "midi": 75,
      "hit": false,
      "t": 44449.41749999998,
      "d": 425.7445000000007,
      "v": 105
    },
    {
      "midi": 62,
      "hit": false,
      "t": 44893.95866666665,
      "d": 2001.8450000000012,
      "v": 105
    },
    {
      "midi": 74,
      "hit": false,
      "t": 44898.65783333332,
      "d": 2706.720000000001,
      "v": 96
    },
    {
      "midi": 41,
      "hit": false,
      "t": 48720.959999999985,
      "d": 657.8833333333314,
      "v": 88
    },
    {
      "midi": 53,
      "hit": false,
      "t": 49402.33916666665,
      "d": 432.3233333333337,
      "v": 97
    },
    {
      "midi": 65,
      "hit": false,
      "t": 49407.038333333316,
      "d": 413.5266666666648,
      "v": 88
    },
    {
      "midi": 55,
      "hit": false,
      "t": 49847.82016666665,
      "d": 441.72166666666453,
      "v": 107
    },
    {
      "midi": 67,
      "hit": false,
      "t": 49852.519333333315,
      "d": 408.8274999999994,
      "v": 99
    },
    {
      "midi": 56,
      "hit": false,
      "t": 50305.51899999998,
      "d": 441.72166666666453,
      "v": 100
    },
    {
      "midi": 68,
      "hit": false,
      "t": 50310.218166666644,
      "d": 413.5266666666648,
      "v": 93
    },
    {
      "midi": 58,
      "hit": false,
      "t": 50751.93983333331,
      "d": 455.819166666668,
      "v": 104
    },
    {
      "midi": 70,
      "hit": false,
      "t": 50756.638999999974,
      "d": 436.08266666666896,
      "v": 96
    },
    {
      "midi": 60,
      "hit": false,
      "t": 51211.51833333331,
      "d": 446.42083333332994,
      "v": 97
    },
    {
      "midi": 72,
      "hit": false,
      "t": 51216.21749999998,
      "d": 446.42083333332994,
      "v": 89
    },
    {
      "midi": 63,
      "hit": false,
      "t": 51667.33749999997,
      "d": 432.3233333333337,
      "v": 112
    },
    {
      "midi": 75,
      "hit": false,
      "t": 51672.03666666664,
      "d": 425.7445000000007,
      "v": 104
    },
    {
      "midi": 63,
      "hit": false,
      "t": 52116.57783333331,
      "d": 2001.8450000000012,
      "v": 105
    },
    {
      "midi": 75,
      "hit": false,
      "t": 52121.27699999997,
      "d": 2706.720000000001,
      "v": 103
    },
    {
      "midi": 41,
      "hit": false,
      "t": 55938.879999999976,
      "d": 657.8833333333314,
      "v": 88
    },
    {
      "midi": 53,
      "hit": false,
      "t": 56620.25916666664,
      "d": 432.3233333333337,
      "v": 96
    },
    {
      "midi": 65,
      "hit": false,
      "t": 56624.95833333331,
      "d": 413.5266666666648,
      "v": 89
    },
    {
      "midi": 55,
      "hit": false,
      "t": 57065.74016666664,
      "d": 441.72166666666453,
      "v": 106
    },
    {
      "midi": 67,
      "hit": false,
      "t": 57070.43933333331,
      "d": 408.8274999999994,
      "v": 99
    },
    {
      "midi": 56,
      "hit": false,
      "t": 57523.43899999997,
      "d": 441.72166666666453,
      "v": 101
    },
    {
      "midi": 68,
      "hit": false,
      "t": 57528.138166666635,
      "d": 413.5266666666648,
      "v": 92
    },
    {
      "midi": 58,
      "hit": false,
      "t": 57969.8598333333,
      "d": 455.819166666668,
      "v": 105
    },
    {
      "midi": 70,
      "hit": false,
      "t": 57974.558999999965,
      "d": 436.08266666666896,
      "v": 96
    },
    {
      "midi": 60,
      "hit": false,
      "t": 58429.4383333333,
      "d": 446.42083333332994,
      "v": 96
    },
    {
      "midi": 72,
      "hit": false,
      "t": 58434.13749999997,
      "d": 446.42083333332994,
      "v": 89
    },
    {
      "midi": 63,
      "hit": false,
      "t": 58885.25749999996,
      "d": 432.3233333333337,
      "v": 113
    },
    {
      "midi": 75,
      "hit": false,
      "t": 58889.95666666663,
      "d": 425.7445000000007,
      "v": 104
    },
    {
      "midi": 63,
      "hit": false,
      "t": 59334.4978333333,
      "d": 2001.8450000000012,
      "v": 104
    },
    {
      "midi": 75,
      "hit": false,
      "t": 59339.196999999964,
      "d": 2706.720000000001,
      "v": 103
    },
    {
      "midi": 62,
      "hit": false,
      "t": 63156.79999999997,
      "d": 563.9000000000015,
      "v": 68
    },
    {
      "midi": 43,
      "hit": false,
      "t": 63156.79999999997,
      "d": 657.8833333333314,
      "v": 91
    },
    {
      "midi": 55,
      "hit": false,
      "t": 63847.57749999996,
      "d": 432.3233333333337,
      "v": 96
    },
    {
      "midi": 67,
      "hit": false,
      "t": 63852.27666666663,
      "d": 413.5266666666648,
      "v": 89
    },
    {
      "midi": 57,
      "hit": false,
      "t": 64293.05849999996,
      "d": 441.72166666666453,
      "v": 106
    },
    {
      "midi": 69,
      "hit": false,
      "t": 64297.75766666663,
      "d": 408.8274999999994,
      "v": 99
    },
    {
      "midi": 58,
      "hit": false,
      "t": 64750.75733333329,
      "d": 441.72166666666453,
      "v": 101
    },
    {
      "midi": 70,
      "hit": false,
      "t": 64755.45649999996,
      "d": 413.5266666666648,
      "v": 92
    },
    {
      "midi": 60,
      "hit": false,
      "t": 65197.17816666662,
      "d": 455.8191666666535,
      "v": 105
    },
    {
      "midi": 72,
      "hit": false,
      "t": 65201.87733333329,
      "d": 436.0826666666617,
      "v": 96
    },
    {
      "midi": 62,
      "hit": false,
      "t": 65656.75666666661,
      "d": 446.4208333333372,
      "v": 96
    },
    {
      "midi": 74,
      "hit": false,
      "t": 65661.45583333328,
      "d": 465.2175000000134,
      "v": 89
    },
    {
      "midi": 58,
      "hit": false,
      "t": 66107.87666666662,
      "d": 432.3233333333337,
      "v": 113
    },
    {
      "midi": 70,
      "hit": false,
      "t": 66112.57583333329,
      "d": 425.7445000000007,
      "v": 104
    },
    {
      "midi": 57,
      "hit": false,
      "t": 66557.11699999995,
      "d": 2001.8450000000012,
      "v": 104
    },
    {
      "midi": 69,
      "hit": false,
      "t": 66561.81616666663,
      "d": 2706.720000000001,
      "v": 97
    },
    {
      "midi": 43,
      "hit": false,
      "t": 70384.11833333329,
      "d": 657.8833333333314,
      "v": 89
    },
    {
      "midi": 62,
      "hit": false,
      "t": 70384.11833333329,
      "d": 657.8833333333314,
      "v": 74
    },
    {
      "midi": 55,
      "hit": false,
      "t": 71065.49749999995,
      "d": 432.3233333333483,
      "v": 96
    },
    {
      "midi": 67,
      "hit": false,
      "t": 71070.19666666663,
      "d": 413.5266666666721,
      "v": 89
    },
    {
      "midi": 57,
      "hit": false,
      "t": 71510.97849999997,
      "d": 441.7216666666791,
      "v": 106
    },
    {
      "midi": 69,
      "hit": false,
      "t": 71515.67766666664,
      "d": 408.8274999999994,
      "v": 99
    },
    {
      "midi": 58,
      "hit": false,
      "t": 71968.67733333331,
      "d": 441.7216666666791,
      "v": 101
    },
    {
      "midi": 70,
      "hit": false,
      "t": 71973.37649999998,
      "d": 413.5266666666721,
      "v": 92
    },
    {
      "midi": 60,
      "hit": false,
      "t": 72415.09816666666,
      "d": 455.819166666668,
      "v": 105
    },
    {
      "midi": 72,
      "hit": false,
      "t": 72419.79733333334,
      "d": 436.08266666666896,
      "v": 96
    },
    {
      "midi": 62,
      "hit": false,
      "t": 72874.67666666667,
      "d": 446.4208333333372,
      "v": 96
    },
    {
      "midi": 74,
      "hit": false,
      "t": 72879.37583333334,
      "d": 465.2175000000134,
      "v": 89
    },
    {
      "midi": 58,
      "hit": false,
      "t": 73325.79666666668,
      "d": 432.3233333333337,
      "v": 113
    },
    {
      "midi": 70,
      "hit": false,
      "t": 73330.49583333335,
      "d": 425.7445000000007,
      "v": 104
    },
    {
      "midi": 57,
      "hit": false,
      "t": 73775.03700000001,
      "d": 2001.8450000000012,
      "v": 104
    },
    {
      "midi": 69,
      "hit": false,
      "t": 73779.73616666668,
      "d": 2706.720000000001,
      "v": 97
    },
    {
      "midi": 48,
      "hit": false,
      "t": 77592.64000000001,
      "d": 657.8833333333314,
      "v": 91
    },
    {
      "midi": 67,
      "hit": false,
      "t": 77592.64000000001,
      "d": 676.679999999993,
      "v": 72
    },
    {
      "midi": 60,
      "hit": false,
      "t": 78274.01916666668,
      "d": 432.3233333333483,
      "v": 96
    },
    {
      "midi": 72,
      "hit": false,
      "t": 78278.71833333335,
      "d": 413.5266666666721,
      "v": 89
    },
    {
      "midi": 62,
      "hit": false,
      "t": 78719.5001666667,
      "d": 441.7216666666791,
      "v": 106
    },
    {
      "midi": 74,
      "hit": false,
      "t": 78724.19933333337,
      "d": 408.8274999999994,
      "v": 99
    },
    {
      "midi": 63,
      "hit": false,
      "t": 79177.19900000004,
      "d": 441.7216666666791,
      "v": 101
    },
    {
      "midi": 75,
      "hit": false,
      "t": 79181.89816666671,
      "d": 413.5266666666721,
      "v": 92
    },
    {
      "midi": 65,
      "hit": false,
      "t": 79623.61983333339,
      "d": 455.819166666668,
      "v": 105
    },
    {
      "midi": 77,
      "hit": false,
      "t": 79628.31900000006,
      "d": 436.08266666666896,
      "v": 96
    },
    {
      "midi": 67,
      "hit": false,
      "t": 80083.19833333339,
      "d": 446.4208333333372,
      "v": 96
    },
    {
      "midi": 79,
      "hit": false,
      "t": 80087.89750000006,
      "d": 465.2175000000134,
      "v": 89
    },
    {
      "midi": 63,
      "hit": false,
      "t": 80534.3183333334,
      "d": 432.3233333333337,
      "v": 113
    },
    {
      "midi": 75,
      "hit": false,
      "t": 80539.01750000007,
      "d": 425.7445000000007,
      "v": 104
    },
    {
      "midi": 62,
      "hit": false,
      "t": 80983.55866666674,
      "d": 2001.8450000000012,
      "v": 104
    },
    {
      "midi": 74,
      "hit": false,
      "t": 80988.25783333341,
      "d": 2706.720000000001,
      "v": 97
    },
    {
      "midi": 48,
      "hit": false,
      "t": 84810.56000000007,
      "d": 657.8833333333314,
      "v": 89
    },
    {
      "midi": 60,
      "hit": false,
      "t": 85491.93916666674,
      "d": 432.3233333333483,
      "v": 96
    },
    {
      "midi": 72,
      "hit": false,
      "t": 85496.63833333341,
      "d": 413.5266666666721,
      "v": 88
    },
    {
      "midi": 62,
      "hit": false,
      "t": 85937.42016666675,
      "d": 441.7216666666791,
      "v": 107
    },
    {
      "midi": 74,
      "hit": false,
      "t": 85942.11933333342,
      "d": 408.8274999999994,
      "v": 98
    },
    {
      "midi": 63,
      "hit": false,
      "t": 86395.1190000001,
      "d": 441.7216666666791,
      "v": 101
    },
    {
      "midi": 75,
      "hit": false,
      "t": 86399.81816666677,
      "d": 413.5266666666721,
      "v": 93
    },
    {
      "midi": 65,
      "hit": false,
      "t": 86841.53983333345,
      "d": 455.819166666668,
      "v": 104
    },
    {
      "midi": 77,
      "hit": false,
      "t": 86846.23900000012,
      "d": 436.08266666666896,
      "v": 97
    },
    {
      "midi": 67,
      "hit": false,
      "t": 87301.11833333345,
      "d": 446.4208333333372,
      "v": 96
    },
    {
      "midi": 79,
      "hit": false,
      "t": 87305.81750000012,
      "d": 465.2175000000134,
      "v": 88
    },
    {
      "midi": 63,
      "hit": false,
      "t": 87752.23833333346,
      "d": 432.3233333333337,
      "v": 113
    },
    {
      "midi": 75,
      "hit": false,
      "t": 87756.93750000013,
      "d": 425.7445000000007,
      "v": 105
    },
    {
      "midi": 62,
      "hit": false,
      "t": 88201.4786666668,
      "d": 2001.8450000000012,
      "v": 104
    },
    {
      "midi": 74,
      "hit": false,
      "t": 88206.17783333347,
      "d": 2706.720000000001,
      "v": 96
    },
    {
      "midi": 41,
      "hit": false,
      "t": 92028.48000000013,
      "d": 657.8833333333314,
      "v": 89
    },
    {
      "midi": 53,
      "hit": false,
      "t": 92709.85916666679,
      "d": 432.3233333333483,
      "v": 97
    },
    {
      "midi": 65,
      "hit": false,
      "t": 92714.55833333347,
      "d": 413.5266666666721,
      "v": 88
    },
    {
      "midi": 55,
      "hit": false,
      "t": 93155.3401666668,
      "d": 441.7216666666791,
      "v": 106
    },
    {
      "midi": 67,
      "hit": false,
      "t": 93160.03933333348,
      "d": 408.8274999999994,
      "v": 99
    },
    {
      "midi": 56,
      "hit": false,
      "t": 93613.03900000015,
      "d": 441.7216666666791,
      "v": 100
    },
    {
      "midi": 68,
      "hit": false,
      "t": 93617.73816666682,
      "d": 413.5266666666721,
      "v": 93
    },
    {
      "midi": 58,
      "hit": false,
      "t": 94059.4598333335,
      "d": 455.819166666668,
      "v": 105
    },
    {
      "midi": 70,
      "hit": false,
      "t": 94064.15900000017,
      "d": 436.08266666666896,
      "v": 96
    },
    {
      "midi": 60,
      "hit": false,
      "t": 94519.0383333335,
      "d": 446.4208333333372,
      "v": 97
    },
    {
      "midi": 72,
      "hit": false,
      "t": 94523.73750000018,
      "d": 446.4208333333372,
      "v": 88
    },
    {
      "midi": 63,
      "hit": false,
      "t": 94974.85750000019,
      "d": 432.3233333333337,
      "v": 112
    },
    {
      "midi": 75,
      "hit": false,
      "t": 94979.55666666686,
      "d": 425.7445000000007,
      "v": 105
    },
    {
      "midi": 63,
      "hit": false,
      "t": 95424.09783333352,
      "d": 2001.8450000000012,
      "v": 105
    },
    {
      "midi": 75,
      "hit": false,
      "t": 95428.7970000002,
      "d": 2706.720000000001,
      "v": 102
    },
    {
      "midi": 41,
      "hit": false,
      "t": 99246.4000000002,
      "d": 657.8833333333314,
      "v": 88
    },
    {
      "midi": 53,
      "hit": false,
      "t": 99927.77916666686,
      "d": 432.3233333333483,
      "v": 97
    },
    {
      "midi": 65,
      "hit": false,
      "t": 99932.47833333354,
      "d": 413.5266666666721,
      "v": 89
    },
    {
      "midi": 55,
      "hit": false,
      "t": 100373.26016666688,
      "d": 441.7216666666791,
      "v": 106
    },
    {
      "midi": 67,
      "hit": false,
      "t": 100377.95933333355,
      "d": 408.8274999999994,
      "v": 98
    },
    {
      "midi": 56,
      "hit": false,
      "t": 100830.95900000022,
      "d": 441.7216666666791,
      "v": 101
    },
    {
      "midi": 68,
      "hit": false,
      "t": 100835.6581666669,
      "d": 413.5266666666721,
      "v": 92
    },
    {
      "midi": 58,
      "hit": false,
      "t": 101277.37983333357,
      "d": 455.819166666668,
      "v": 105
    },
    {
      "midi": 70,
      "hit": false,
      "t": 101282.07900000025,
      "d": 436.08266666666896,
      "v": 97
    },
    {
      "midi": 60,
      "hit": false,
      "t": 101736.95833333358,
      "d": 446.4208333333372,
      "v": 96
    },
    {
      "midi": 72,
      "hit": false,
      "t": 101741.65750000025,
      "d": 446.4208333333372,
      "v": 89
    },
    {
      "midi": 63,
      "hit": false,
      "t": 102192.77750000026,
      "d": 432.3233333333337,
      "v": 112
    },
    {
      "midi": 75,
      "hit": false,
      "t": 102197.47666666693,
      "d": 425.7445000000007,
      "v": 104
    },
    {
      "midi": 63,
      "hit": false,
      "t": 102642.0178333336,
      "d": 2001.8450000000012,
      "v": 105
    },
    {
      "midi": 75,
      "hit": false,
      "t": 102646.71700000027,
      "d": 2706.720000000001,
      "v": 103
    },
    {
      "midi": 62,
      "hit": false,
      "t": 106464.32000000027,
      "d": 563.8999999999942,
      "v": 68
    },
    {
      "midi": 43,
      "hit": false,
      "t": 106464.32000000027,
      "d": 657.8833333333314,
      "v": 90
    },
    {
      "midi": 55,
      "hit": false,
      "t": 107155.09750000027,
      "d": 432.3233333333483,
      "v": 97
    },
    {
      "midi": 67,
      "hit": false,
      "t": 107159.79666666694,
      "d": 413.5266666666721,
      "v": 89
    },
    {
      "midi": 57,
      "hit": false,
      "t": 107600.57850000028,
      "d": 441.7216666666791,
      "v": 106
    },
    {
      "midi": 69,
      "hit": false,
      "t": 107605.27766666695,
      "d": 408.8274999999994,
      "v": 98
    },
    {
      "midi": 58,
      "hit": false,
      "t": 108058.27733333362,
      "d": 441.7216666666791,
      "v": 101
    },
    {
      "midi": 70,
      "hit": false,
      "t": 108062.9765000003,
      "d": 413.5266666666721,
      "v": 92
    },
    {
      "midi": 60,
      "hit": false,
      "t": 108504.69816666697,
      "d": 455.819166666668,
      "v": 105
    },
    {
      "midi": 72,
      "hit": false,
      "t": 108509.39733333365,
      "d": 436.08266666666896,
      "v": 97
    },
    {
      "midi": 62,
      "hit": false,
      "t": 108964.27666666698,
      "d": 446.4208333333372,
      "v": 96
    },
    {
      "midi": 74,
      "hit": false,
      "t": 108968.97583333365,
      "d": 465.2175000000134,
      "v": 89
    },
    {
      "midi": 58,
      "hit": false,
      "t": 109415.39666666699,
      "d": 432.3233333333337,
      "v": 112
    },
    {
      "midi": 70,
      "hit": false,
      "t": 109420.09583333366,
      "d": 425.7445000000007,
      "v": 104
    },
    {
      "midi": 57,
      "hit": false,
      "t": 109864.63700000032,
      "d": 2001.8450000000012,
      "v": 105
    },
    {
      "midi": 69,
      "hit": false,
      "t": 109869.336166667,
      "d": 2706.720000000001,
      "v": 97
    },
    {
      "midi": 43,
      "hit": false,
      "t": 113691.63833333366,
      "d": 657.8833333333314,
      "v": 88
    },
    {
      "midi": 62,
      "hit": false,
      "t": 113691.63833333366,
      "d": 657.8833333333314,
      "v": 74
    },
    {
      "midi": 55,
      "hit": false,
      "t": 114373.01750000032,
      "d": 432.3233333333483,
      "v": 97
    },
    {
      "midi": 67,
      "hit": false,
      "t": 114377.716666667,
      "d": 413.5266666666721,
      "v": 89
    },
    {
      "midi": 57,
      "hit": false,
      "t": 114818.49850000034,
      "d": 441.7216666666791,
      "v": 106
    },
    {
      "midi": 69,
      "hit": false,
      "t": 114823.19766666701,
      "d": 408.8274999999994,
      "v": 98
    },
    {
      "midi": 58,
      "hit": false,
      "t": 115276.19733333368,
      "d": 441.7216666666791,
      "v": 101
    },
    {
      "midi": 70,
      "hit": false,
      "t": 115280.89650000035,
      "d": 413.5266666666721,
      "v": 92
    },
    {
      "midi": 60,
      "hit": false,
      "t": 115722.61816666703,
      "d": 455.819166666668,
      "v": 105
    },
    {
      "midi": 72,
      "hit": false,
      "t": 115727.3173333337,
      "d": 436.08266666666896,
      "v": 97
    },
    {
      "midi": 62,
      "hit": false,
      "t": 116182.19666666703,
      "d": 446.4208333333372,
      "v": 96
    },
    {
      "midi": 74,
      "hit": false,
      "t": 116186.8958333337,
      "d": 465.2175000000134,
      "v": 89
    },
    {
      "midi": 58,
      "hit": false,
      "t": 116633.31666666704,
      "d": 432.3233333333337,
      "v": 112
    },
    {
      "midi": 70,
      "hit": false,
      "t": 116638.01583333372,
      "d": 425.7445000000007,
      "v": 104
    },
    {
      "midi": 57,
      "hit": false,
      "t": 117082.55700000038,
      "d": 2001.8450000000012,
      "v": 105
    },
    {
      "midi": 69,
      "hit": false,
      "t": 117087.25616666705,
      "d": 2706.720000000001,
      "v": 97
    },
    {
      "midi": 48,
      "hit": false,
      "t": 164207.6800000004,
      "d": 657.8833333333314,
      "v": 90
    },
    {
      "midi": 67,
      "hit": false,
      "t": 164207.6800000004,
      "d": 676.679999999993,
      "v": 72
    },
    {
      "midi": 60,
      "hit": false,
      "t": 164889.05916666705,
      "d": 432.3233333333337,
      "v": 97
    },
    {
      "midi": 72,
      "hit": false,
      "t": 164893.7583333337,
      "d": 413.5266666666721,
      "v": 89
    },
    {
      "midi": 62,
      "hit": false,
      "t": 165334.54016666705,
      "d": 441.7216666666791,
      "v": 106
    },
    {
      "midi": 74,
      "hit": false,
      "t": 165339.2393333337,
      "d": 408.82750000001397,
      "v": 98
    },
    {
      "midi": 63,
      "hit": false,
      "t": 165792.2390000004,
      "d": 441.72166666665,
      "v": 101
    },
    {
      "midi": 75,
      "hit": false,
      "t": 165796.93816666707,
      "d": 413.5266666666721,
      "v": 92
    },
    {
      "midi": 65,
      "hit": false,
      "t": 166238.65983333372,
      "d": 455.8191666666535,
      "v": 105
    },
    {
      "midi": 77,
      "hit": false,
      "t": 166243.35900000038,
      "d": 436.0826666666544,
      "v": 97
    },
    {
      "midi": 67,
      "hit": false,
      "t": 166698.2383333337,
      "d": 446.4208333333372,
      "v": 96
    },
    {
      "midi": 79,
      "hit": false,
      "t": 166702.93750000035,
      "d": 465.21749999999884,
      "v": 89
    },
    {
      "midi": 63,
      "hit": false,
      "t": 167149.3583333337,
      "d": 432.3233333333337,
      "v": 112
    },
    {
      "midi": 75,
      "hit": false,
      "t": 167154.05750000034,
      "d": 425.7445000000007,
      "v": 104
    },
    {
      "midi": 62,
      "hit": false,
      "t": 167598.598666667,
      "d": 2001.8450000000012,
      "v": 105
    },
    {
      "midi": 74,
      "hit": false,
      "t": 167603.29783333367,
      "d": 2706.720000000001,
      "v": 97
    },
    {
      "midi": 48,
      "hit": false,
      "t": 171425.60000000033,
      "d": 657.8833333333314,
      "v": 88
    },
    {
      "midi": 60,
      "hit": false,
      "t": 172106.97916666698,
      "d": 432.3233333333337,
      "v": 96
    },
    {
      "midi": 72,
      "hit": false,
      "t": 172111.67833333364,
      "d": 413.5266666666721,
      "v": 89
    },
    {
      "midi": 62,
      "hit": false,
      "t": 172552.46016666698,
      "d": 441.7216666666791,
      "v": 107
    },
    {
      "midi": 74,
      "hit": false,
      "t": 172557.15933333364,
      "d": 408.82750000001397,
      "v": 98
    },
    {
      "midi": 63,
      "hit": false,
      "t": 173010.15900000033,
      "d": 441.72166666665,
      "v": 100
    },
    {
      "midi": 75,
      "hit": false,
      "t": 173014.858166667,
      "d": 413.5266666666721,
      "v": 93
    },
    {
      "midi": 65,
      "hit": false,
      "t": 173456.57983333364,
      "d": 455.8191666666535,
      "v": 104
    },
    {
      "midi": 77,
      "hit": false,
      "t": 173461.2790000003,
      "d": 436.0826666666544,
      "v": 97
    },
    {
      "midi": 67,
      "hit": false,
      "t": 173916.15833333362,
      "d": 446.4208333333372,
      "v": 97
    },
    {
      "midi": 79,
      "hit": false,
      "t": 173920.85750000027,
      "d": 465.21749999999884,
      "v": 88
    },
    {
      "midi": 63,
      "hit": false,
      "t": 174367.2783333336,
      "d": 432.3233333333337,
      "v": 113
    },
    {
      "midi": 75,
      "hit": false,
      "t": 174371.97750000027,
      "d": 425.7445000000007,
      "v": 104
    },
    {
      "midi": 62,
      "hit": false,
      "t": 174816.51866666693,
      "d": 2001.8450000000012,
      "v": 104
    },
    {
      "midi": 74,
      "hit": false,
      "t": 174821.2178333336,
      "d": 2706.720000000001,
      "v": 97
    },
    {
      "midi": 41,
      "hit": false,
      "t": 178643.52000000025,
      "d": 657.8833333333314,
      "v": 89
    },
    {
      "midi": 53,
      "hit": false,
      "t": 179324.8991666669,
      "d": 432.3233333333337,
      "v": 96
    },
    {
      "midi": 65,
      "hit": false,
      "t": 179329.59833333356,
      "d": 413.5266666666721,
      "v": 88
    },
    {
      "midi": 55,
      "hit": false,
      "t": 179770.3801666669,
      "d": 441.7216666666791,
      "v": 107
    },
    {
      "midi": 67,
      "hit": false,
      "t": 179775.07933333356,
      "d": 408.82750000001397,
      "v": 99
    },
    {
      "midi": 56,
      "hit": false,
      "t": 180228.07900000026,
      "d": 441.72166666665,
      "v": 100
    },
    {
      "midi": 68,
      "hit": false,
      "t": 180232.77816666692,
      "d": 413.5266666666721,
      "v": 92
    },
    {
      "midi": 58,
      "hit": false,
      "t": 180674.49983333357,
      "d": 455.8191666666535,
      "v": 105
    },
    {
      "midi": 70,
      "hit": false,
      "t": 180679.19900000023,
      "d": 436.0826666666544,
      "v": 96
    },
    {
      "midi": 60,
      "hit": false,
      "t": 181134.07833333354,
      "d": 446.4208333333372,
      "v": 97
    },
    {
      "midi": 72,
      "hit": false,
      "t": 181138.7775000002,
      "d": 446.4208333333372,
      "v": 89
    },
    {
      "midi": 63,
      "hit": false,
      "t": 181589.8975000002,
      "d": 432.3233333333337,
      "v": 112
    },
    {
      "midi": 75,
      "hit": false,
      "t": 181594.59666666685,
      "d": 425.7445000000007,
      "v": 105
    },
    {
      "midi": 63,
      "hit": false,
      "t": 182039.13783333352,
      "d": 2001.8450000000012,
      "v": 104
    },
    {
      "midi": 75,
      "hit": false,
      "t": 182043.83700000017,
      "d": 2706.720000000001,
      "v": 102
    },
    {
      "midi": 41,
      "hit": false,
      "t": 185861.44000000018,
      "d": 657.8833333333314,
      "v": 89
    },
    {
      "midi": 53,
      "hit": false,
      "t": 186542.81916666683,
      "d": 432.3233333333337,
      "v": 97
    },
    {
      "midi": 65,
      "hit": false,
      "t": 186547.5183333335,
      "d": 413.5266666666721,
      "v": 88
    },
    {
      "midi": 55,
      "hit": false,
      "t": 186988.30016666683,
      "d": 441.7216666666791,
      "v": 106
    },
    {
      "midi": 67,
      "hit": false,
      "t": 186992.9993333335,
      "d": 408.82750000001397,
      "v": 99
    },
    {
      "midi": 56,
      "hit": false,
      "t": 187445.99900000019,
      "d": 441.72166666665,
      "v": 101
    },
    {
      "midi": 68,
      "hit": false,
      "t": 187450.69816666684,
      "d": 413.5266666666721,
      "v": 92
    },
    {
      "midi": 58,
      "hit": false,
      "t": 187892.4198333335,
      "d": 455.8191666666535,
      "v": 104
    },
    {
      "midi": 70,
      "hit": false,
      "t": 187897.11900000015,
      "d": 436.0826666666544,
      "v": 97
    },
    {
      "midi": 60,
      "hit": false,
      "t": 188351.99833333347,
      "d": 446.4208333333372,
      "v": 96
    },
    {
      "midi": 72,
      "hit": false,
      "t": 188356.69750000013,
      "d": 446.4208333333372,
      "v": 89
    },
    {
      "midi": 63,
      "hit": false,
      "t": 188807.81750000012,
      "d": 432.3233333333337,
      "v": 113
    },
    {
      "midi": 75,
      "hit": false,
      "t": 188812.51666666678,
      "d": 425.7445000000007,
      "v": 104
    },
    {
      "midi": 63,
      "hit": false,
      "t": 189257.05783333344,
      "d": 1578.9199999999837,
      "v": 105
    },
    {
      "midi": 75,
      "hit": false,
      "t": 189261.7570000001,
      "d": 2706.720000000001,
      "v": 102
    },
    {
      "midi": 51,
      "hit": false,
      "t": 191049.3200000001,
      "d": 301.6865000000107,
      "v": 110
    },
    {
      "midi": 51,
      "hit": false,
      "t": 191500.44000000012,
      "d": 273.4915000000037,
      "v": 111
    },
    {
      "midi": 46,
      "hit": false,
      "t": 191951.5600000001,
      "d": 203.00399999998626,
      "v": 103
    },
    {
      "midi": 48,
      "hit": false,
      "t": 192177.1200000001,
      "d": 226.49983333333512,
      "v": 102
    },
    {
      "midi": 51,
      "hit": false,
      "t": 192402.6800000001,
      "d": 225.55999999999767,
      "v": 110
    },
    {
      "midi": 50,
      "hit": false,
      "t": 192628.2400000001,
      "d": 225.55999999999767,
      "v": 99
    },
    {
      "midi": 53,
      "hit": false,
      "t": 192853.8000000001,
      "d": 225.55999999999767,
      "v": 111
    },
    {
      "midi": 55,
      "hit": false,
      "t": 193079.3600000001,
      "d": 563.8999999999942,
      "v": 80
    },
    {
      "midi": 43,
      "hit": false,
      "t": 193079.3600000001,
      "d": 657.8833333333314,
      "v": 90
    },
    {
      "midi": 55,
      "hit": false,
      "t": 193770.1375000001,
      "d": 432.3233333333337,
      "v": 97
    },
    {
      "midi": 67,
      "hit": false,
      "t": 193774.83666666676,
      "d": 413.5266666666721,
      "v": 88
    },
    {
      "midi": 57,
      "hit": false,
      "t": 194215.6185000001,
      "d": 441.7216666666791,
      "v": 107
    },
    {
      "midi": 69,
      "hit": false,
      "t": 194220.31766666676,
      "d": 408.82750000001397,
      "v": 99
    },
    {
      "midi": 58,
      "hit": false,
      "t": 194673.31733333346,
      "d": 441.72166666665,
      "v": 100
    },
    {
      "midi": 70,
      "hit": false,
      "t": 194678.0165000001,
      "d": 413.5266666666721,
      "v": 93
    },
    {
      "midi": 60,
      "hit": false,
      "t": 195119.73816666676,
      "d": 455.8191666666535,
      "v": 104
    },
    {
      "midi": 72,
      "hit": false,
      "t": 195124.43733333342,
      "d": 436.0826666666544,
      "v": 96
    },
    {
      "midi": 62,
      "hit": false,
      "t": 195579.31666666674,
      "d": 446.4208333333372,
      "v": 97
    },
    {
      "midi": 74,
      "hit": false,
      "t": 195584.0158333334,
      "d": 465.21749999999884,
      "v": 89
    },
    {
      "midi": 58,
      "hit": false,
      "t": 196030.43666666673,
      "d": 432.3233333333337,
      "v": 112
    },
    {
      "midi": 70,
      "hit": false,
      "t": 196035.1358333334,
      "d": 425.7445000000007,
      "v": 104
    },
    {
      "midi": 57,
      "hit": false,
      "t": 196479.67700000005,
      "d": 2001.8450000000012,
      "v": 105
    },
    {
      "midi": 69,
      "hit": false,
      "t": 196484.3761666667,
      "d": 2706.720000000001,
      "v": 97
    },
    {
      "midi": 43,
      "hit": false,
      "t": 200306.67833333337,
      "d": 657.8833333333314,
      "v": 88
    },
    {
      "midi": 62,
      "hit": false,
      "t": 200306.67833333337,
      "d": 657.8833333333314,
      "v": 74
    },
    {
      "midi": 55,
      "hit": false,
      "t": 200988.05750000002,
      "d": 432.3233333333337,
      "v": 97
    },
    {
      "midi": 67,
      "hit": false,
      "t": 200992.75666666668,
      "d": 413.5266666666721,
      "v": 88
    },
    {
      "midi": 57,
      "hit": false,
      "t": 201433.53850000002,
      "d": 441.7216666666791,
      "v": 107
    },
    {
      "midi": 69,
      "hit": false,
      "t": 201438.23766666668,
      "d": 408.82750000001397,
      "v": 99
    },
    {
      "midi": 58,
      "hit": false,
      "t": 201891.23733333338,
      "d": 441.72166666665,
      "v": 100
    },
    {
      "midi": 70,
      "hit": false,
      "t": 201895.93650000004,
      "d": 413.5266666666721,
      "v": 93
    },
    {
      "midi": 60,
      "hit": false,
      "t": 202337.6581666667,
      "d": 455.8191666666535,
      "v": 104
    },
    {
      "midi": 72,
      "hit": false,
      "t": 202342.35733333335,
      "d": 436.0826666666544,
      "v": 96
    },
    {
      "midi": 62,
      "hit": false,
      "t": 202797.23666666666,
      "d": 446.4208333333372,
      "v": 97
    },
    {
      "midi": 74,
      "hit": false,
      "t": 202801.93583333332,
      "d": 465.21749999999884,
      "v": 89
    },
    {
      "midi": 58,
      "hit": false,
      "t": 203248.35666666666,
      "d": 432.3233333333337,
      "v": 112
    },
    {
      "midi": 70,
      "hit": false,
      "t": 203253.05583333332,
      "d": 425.7445000000007,
      "v": 104
    },
    {
      "midi": 57,
      "hit": false,
      "t": 203697.59699999998,
      "d": 441.72166666665,
      "v": 105
    },
    {
      "midi": 69,
      "hit": false,
      "t": 203702.29616666664,
      "d": 2706.719999999972,
      "v": 97
    },
    {
      "midi": 50,
      "hit": false,
      "t": 204131.79999999996,
      "d": 178.56833333332906,
      "v": 94
    },
    {
      "midi": 62,
      "hit": false,
      "t": 204357.35999999996,
      "d": 165.41066666666302,
      "v": 104
    },
    {
      "midi": 50,
      "hit": false,
      "t": 204582.91999999995,
      "d": 113.71983333333628,
      "v": 73
    },
    {
      "midi": 50,
      "hit": false,
      "t": 204808.47999999995,
      "d": 186.08699999999953,
      "v": 102
    },
    {
      "midi": 52,
      "hit": false,
      "t": 205034.03999999995,
      "d": 182.32766666667885,
      "v": 105
    },
    {
      "midi": 50,
      "hit": false,
      "t": 205259.59999999995,
      "d": 158.83183333333,
      "v": 105
    },
    {
      "midi": 53,
      "hit": false,
      "t": 205485.15999999995,
      "d": 164.47083333332557,
      "v": 106
    },
    {
      "midi": 50,
      "hit": false,
      "t": 205710.71999999994,
      "d": 148.4936666666763,
      "v": 39
    },
    {
      "midi": 53,
      "hit": false,
      "t": 205936.27999999994,
      "d": 190.78616666665766,
      "v": 112
    },
    {
      "midi": 50,
      "hit": false,
      "t": 206161.83999999994,
      "d": 115.59950000001118,
      "v": 74
    },
    {
      "midi": 53,
      "hit": false,
      "t": 206387.39999999994,
      "d": 144.7343333333265,
      "v": 75
    },
    {
      "midi": 50,
      "hit": false,
      "t": 206612.95999999993,
      "d": 183.2674999999872,
      "v": 59
    },
    {
      "midi": 53,
      "hit": false,
      "t": 206838.51999999993,
      "d": 192.66583333333256,
      "v": 54
    },
    {
      "midi": 60,
      "hit": false,
      "t": 207515.19999999992,
      "d": 653.1841666666733,
      "v": 84
    },
    {
      "midi": 62,
      "hit": false,
      "t": 207515.19999999992,
      "d": 653.1841666666733,
      "v": 85
    },
    {
      "midi": 65,
      "hit": false,
      "t": 207515.19999999992,
      "d": 653.1841666666733,
      "v": 87
    },
    {
      "midi": 67,
      "hit": false,
      "t": 207515.19999999992,
      "d": 653.1841666666733,
      "v": 88
    },
    {
      "midi": 60,
      "hit": false,
      "t": 208191.87999999992,
      "d": 427.6241666666756,
      "v": 76
    },
    {
      "midi": 62,
      "hit": false,
      "t": 208191.87999999992,
      "d": 427.6241666666756,
      "v": 69
    },
    {
      "midi": 65,
      "hit": false,
      "t": 208191.87999999992,
      "d": 427.6241666666756,
      "v": 74
    },
    {
      "midi": 67,
      "hit": false,
      "t": 208191.87999999992,
      "d": 427.6241666666756,
      "v": 69
    },
    {
      "midi": 60,
      "hit": false,
      "t": 208642.9999999999,
      "d": 427.6241666666756,
      "v": 87
    },
    {
      "midi": 62,
      "hit": false,
      "t": 208642.9999999999,
      "d": 427.6241666666756,
      "v": 84
    },
    {
      "midi": 65,
      "hit": false,
      "t": 208642.9999999999,
      "d": 427.6241666666756,
      "v": 83
    },
    {
      "midi": 67,
      "hit": false,
      "t": 208642.9999999999,
      "d": 427.6241666666756,
      "v": 74
    },
    {
      "midi": 60,
      "hit": false,
      "t": 209094.1199999999,
      "d": 427.6241666666756,
      "v": 78
    },
    {
      "midi": 62,
      "hit": false,
      "t": 209094.1199999999,
      "d": 427.6241666666756,
      "v": 83
    },
    {
      "midi": 65,
      "hit": false,
      "t": 209094.1199999999,
      "d": 427.6241666666756,
      "v": 89
    },
    {
      "midi": 67,
      "hit": false,
      "t": 209094.1199999999,
      "d": 427.6241666666756,
      "v": 76
    },
    {
      "midi": 60,
      "hit": false,
      "t": 209545.2399999999,
      "d": 427.6241666666756,
      "v": 82
    },
    {
      "midi": 62,
      "hit": false,
      "t": 209545.2399999999,
      "d": 427.6241666666756,
      "v": 87
    },
    {
      "midi": 65,
      "hit": false,
      "t": 209545.2399999999,
      "d": 427.6241666666756,
      "v": 91
    },
    {
      "midi": 67,
      "hit": false,
      "t": 209545.2399999999,
      "d": 427.6241666666756,
      "v": 78
    },
    {
      "midi": 60,
      "hit": false,
      "t": 209996.3599999999,
      "d": 427.6241666666756,
      "v": 68
    },
    {
      "midi": 62,
      "hit": false,
      "t": 209996.3599999999,
      "d": 427.6241666666756,
      "v": 81
    },
    {
      "midi": 65,
      "hit": false,
      "t": 209996.3599999999,
      "d": 427.6241666666756,
      "v": 84
    },
    {
      "midi": 67,
      "hit": false,
      "t": 209996.3599999999,
      "d": 427.6241666666756,
      "v": 71
    },
    {
      "midi": 60,
      "hit": false,
      "t": 210447.4799999999,
      "d": 653.1841666666733,
      "v": 83
    },
    {
      "midi": 62,
      "hit": false,
      "t": 210447.4799999999,
      "d": 653.1841666666733,
      "v": 82
    },
    {
      "midi": 65,
      "hit": false,
      "t": 210447.4799999999,
      "d": 653.1841666666733,
      "v": 89
    },
    {
      "midi": 67,
      "hit": false,
      "t": 210447.4799999999,
      "d": 653.1841666666733,
      "v": 72
    },
    {
      "midi": 60,
      "hit": false,
      "t": 211124.1599999999,
      "d": 653.1841666666733,
      "v": 88
    },
    {
      "midi": 62,
      "hit": false,
      "t": 211124.1599999999,
      "d": 653.1841666666733,
      "v": 89
    },
    {
      "midi": 65,
      "hit": false,
      "t": 211124.1599999999,
      "d": 653.1841666666733,
      "v": 91
    },
    {
      "midi": 67,
      "hit": false,
      "t": 211124.1599999999,
      "d": 653.1841666666733,
      "v": 84
    },
    {
      "midi": 60,
      "hit": false,
      "t": 211800.83999999988,
      "d": 427.6241666666756,
      "v": 82
    },
    {
      "midi": 62,
      "hit": false,
      "t": 211800.83999999988,
      "d": 427.6241666666756,
      "v": 87
    },
    {
      "midi": 65,
      "hit": false,
      "t": 211800.83999999988,
      "d": 427.6241666666756,
      "v": 83
    },
    {
      "midi": 67,
      "hit": false,
      "t": 211800.83999999988,
      "d": 427.6241666666756,
      "v": 78
    },
    {
      "midi": 60,
      "hit": false,
      "t": 212251.95999999988,
      "d": 427.6241666666756,
      "v": 90
    },
    {
      "midi": 62,
      "hit": false,
      "t": 212251.95999999988,
      "d": 427.6241666666756,
      "v": 93
    },
    {
      "midi": 65,
      "hit": false,
      "t": 212251.95999999988,
      "d": 427.6241666666756,
      "v": 94
    },
    {
      "midi": 67,
      "hit": false,
      "t": 212251.95999999988,
      "d": 427.6241666666756,
      "v": 85
    },
    {
      "midi": 60,
      "hit": false,
      "t": 212703.07999999987,
      "d": 427.6241666666756,
      "v": 83
    },
    {
      "midi": 62,
      "hit": false,
      "t": 212703.07999999987,
      "d": 427.6241666666756,
      "v": 82
    },
    {
      "midi": 65,
      "hit": false,
      "t": 212703.07999999987,
      "d": 427.6241666666756,
      "v": 87
    },
    {
      "midi": 67,
      "hit": false,
      "t": 212703.07999999987,
      "d": 427.6241666666756,
      "v": 76
    },
    {
      "midi": 60,
      "hit": false,
      "t": 213154.19999999987,
      "d": 427.6241666666756,
      "v": 84
    },
    {
      "midi": 62,
      "hit": false,
      "t": 213154.19999999987,
      "d": 427.6241666666756,
      "v": 87
    },
    {
      "midi": 65,
      "hit": false,
      "t": 213154.19999999987,
      "d": 427.6241666666756,
      "v": 83
    },
    {
      "midi": 67,
      "hit": false,
      "t": 213154.19999999987,
      "d": 427.6241666666756,
      "v": 74
    },
    {
      "midi": 60,
      "hit": false,
      "t": 213605.31999999986,
      "d": 427.6241666666756,
      "v": 86
    },
    {
      "midi": 62,
      "hit": false,
      "t": 213605.31999999986,
      "d": 427.6241666666756,
      "v": 83
    },
    {
      "midi": 65,
      "hit": false,
      "t": 213605.31999999986,
      "d": 427.6241666666756,
      "v": 79
    },
    {
      "midi": 67,
      "hit": false,
      "t": 213605.31999999986,
      "d": 427.6241666666756,
      "v": 82
    },
    {
      "midi": 60,
      "hit": false,
      "t": 214056.43999999986,
      "d": 653.1841666666733,
      "v": 86
    },
    {
      "midi": 62,
      "hit": false,
      "t": 214056.43999999986,
      "d": 653.1841666666733,
      "v": 87
    },
    {
      "midi": 65,
      "hit": false,
      "t": 214056.43999999986,
      "d": 653.1841666666733,
      "v": 84
    },
    {
      "midi": 67,
      "hit": false,
      "t": 214056.43999999986,
      "d": 653.1841666666733,
      "v": 85
    },
    {
      "midi": 60,
      "hit": false,
      "t": 214733.11999999985,
      "d": 653.1841666666733,
      "v": 85
    },
    {
      "midi": 62,
      "hit": false,
      "t": 214733.11999999985,
      "d": 653.1841666666733,
      "v": 84
    },
    {
      "midi": 65,
      "hit": false,
      "t": 214733.11999999985,
      "d": 653.1841666666733,
      "v": 87
    },
    {
      "midi": 67,
      "hit": false,
      "t": 214733.11999999985,
      "d": 653.1841666666733,
      "v": 88
    },
    {
      "midi": 60,
      "hit": false,
      "t": 215409.79999999984,
      "d": 427.6241666666756,
      "v": 76
    },
    {
      "midi": 62,
      "hit": false,
      "t": 215409.79999999984,
      "d": 427.6241666666756,
      "v": 69
    },
    {
      "midi": 65,
      "hit": false,
      "t": 215409.79999999984,
      "d": 427.6241666666756,
      "v": 75
    },
    {
      "midi": 67,
      "hit": false,
      "t": 215409.79999999984,
      "d": 427.6241666666756,
      "v": 68
    },
    {
      "midi": 60,
      "hit": false,
      "t": 215860.91999999984,
      "d": 427.6241666666756,
      "v": 86
    },
    {
      "midi": 62,
      "hit": false,
      "t": 215860.91999999984,
      "d": 427.6241666666756,
      "v": 85
    },
    {
      "midi": 65,
      "hit": false,
      "t": 215860.91999999984,
      "d": 427.6241666666756,
      "v": 83
    },
    {
      "midi": 67,
      "hit": false,
      "t": 215860.91999999984,
      "d": 427.6241666666756,
      "v": 74
    },
    {
      "midi": 60,
      "hit": false,
      "t": 216312.03999999983,
      "d": 427.6241666666756,
      "v": 78
    },
    {
      "midi": 62,
      "hit": false,
      "t": 216312.03999999983,
      "d": 427.6241666666756,
      "v": 83
    },
    {
      "midi": 65,
      "hit": false,
      "t": 216312.03999999983,
      "d": 427.6241666666756,
      "v": 88
    },
    {
      "midi": 67,
      "hit": false,
      "t": 216312.03999999983,
      "d": 427.6241666666756,
      "v": 77
    },
    {
      "midi": 60,
      "hit": false,
      "t": 216763.15999999983,
      "d": 427.6241666666756,
      "v": 83
    },
    {
      "midi": 62,
      "hit": false,
      "t": 216763.15999999983,
      "d": 427.6241666666756,
      "v": 86
    },
    {
      "midi": 65,
      "hit": false,
      "t": 216763.15999999983,
      "d": 427.6241666666756,
      "v": 91
    },
    {
      "midi": 67,
      "hit": false,
      "t": 216763.15999999983,
      "d": 427.6241666666756,
      "v": 78
    },
    {
      "midi": 60,
      "hit": false,
      "t": 217214.27999999982,
      "d": 427.6241666666756,
      "v": 68
    },
    {
      "midi": 62,
      "hit": false,
      "t": 217214.27999999982,
      "d": 427.6241666666756,
      "v": 81
    },
    {
      "midi": 65,
      "hit": false,
      "t": 217214.27999999982,
      "d": 427.6241666666756,
      "v": 85
    },
    {
      "midi": 67,
      "hit": false,
      "t": 217214.27999999982,
      "d": 427.6241666666756,
      "v": 70
    },
    {
      "midi": 60,
      "hit": false,
      "t": 217665.39999999982,
      "d": 653.1841666666733,
      "v": 82
    },
    {
      "midi": 62,
      "hit": false,
      "t": 217665.39999999982,
      "d": 653.1841666666733,
      "v": 83
    },
    {
      "midi": 65,
      "hit": false,
      "t": 217665.39999999982,
      "d": 653.1841666666733,
      "v": 89
    },
    {
      "midi": 67,
      "hit": false,
      "t": 217665.39999999982,
      "d": 653.1841666666733,
      "v": 72
    },
    {
      "midi": 60,
      "hit": false,
      "t": 218342.0799999998,
      "d": 653.1841666666733,
      "v": 88
    },
    {
      "midi": 62,
      "hit": false,
      "t": 218342.0799999998,
      "d": 653.1841666666733,
      "v": 89
    },
    {
      "midi": 65,
      "hit": false,
      "t": 218342.0799999998,
      "d": 653.1841666666733,
      "v": 90
    },
    {
      "midi": 67,
      "hit": false,
      "t": 218342.0799999998,
      "d": 653.1841666666733,
      "v": 85
    },
    {
      "midi": 60,
      "hit": false,
      "t": 219018.7599999998,
      "d": 427.6241666666756,
      "v": 83
    },
    {
      "midi": 62,
      "hit": false,
      "t": 219018.7599999998,
      "d": 427.6241666666756,
      "v": 86
    },
    {
      "midi": 65,
      "hit": false,
      "t": 219018.7599999998,
      "d": 427.6241666666756,
      "v": 83
    },
    {
      "midi": 67,
      "hit": false,
      "t": 219018.7599999998,
      "d": 427.6241666666756,
      "v": 78
    },
    {
      "midi": 60,
      "hit": false,
      "t": 219469.8799999998,
      "d": 427.6241666666756,
      "v": 90
    },
    {
      "midi": 62,
      "hit": false,
      "t": 219469.8799999998,
      "d": 427.6241666666756,
      "v": 93
    },
    {
      "midi": 65,
      "hit": false,
      "t": 219469.8799999998,
      "d": 427.6241666666756,
      "v": 95
    },
    {
      "midi": 67,
      "hit": false,
      "t": 219469.8799999998,
      "d": 427.6241666666756,
      "v": 84
    },
    {
      "midi": 60,
      "hit": false,
      "t": 219920.9999999998,
      "d": 427.6241666666756,
      "v": 82
    },
    {
      "midi": 62,
      "hit": false,
      "t": 219920.9999999998,
      "d": 427.6241666666756,
      "v": 83
    },
    {
      "midi": 65,
      "hit": false,
      "t": 219920.9999999998,
      "d": 427.6241666666756,
      "v": 87
    },
    {
      "midi": 67,
      "hit": false,
      "t": 219920.9999999998,
      "d": 427.6241666666756,
      "v": 76
    },
    {
      "midi": 60,
      "hit": false,
      "t": 220372.1199999998,
      "d": 427.6241666666756,
      "v": 84
    },
    {
      "midi": 62,
      "hit": false,
      "t": 220372.1199999998,
      "d": 427.6241666666756,
      "v": 87
    },
    {
      "midi": 65,
      "hit": false,
      "t": 220372.1199999998,
      "d": 427.6241666666756,
      "v": 82
    },
    {
      "midi": 67,
      "hit": false,
      "t": 220372.1199999998,
      "d": 427.6241666666756,
      "v": 75
    },
    {
      "midi": 60,
      "hit": false,
      "t": 220823.2399999998,
      "d": 427.6241666666756,
      "v": 87
    },
    {
      "midi": 62,
      "hit": false,
      "t": 220823.2399999998,
      "d": 427.6241666666756,
      "v": 82
    },
    {
      "midi": 65,
      "hit": false,
      "t": 220823.2399999998,
      "d": 427.6241666666756,
      "v": 79
    },
    {
      "midi": 67,
      "hit": false,
      "t": 220823.2399999998,
      "d": 427.6241666666756,
      "v": 82
    },
    {
      "midi": 60,
      "hit": false,
      "t": 221274.35999999978,
      "d": 653.1841666666733,
      "v": 86
    },
    {
      "midi": 62,
      "hit": false,
      "t": 221274.35999999978,
      "d": 653.1841666666733,
      "v": 87
    },
    {
      "midi": 65,
      "hit": false,
      "t": 221274.35999999978,
      "d": 653.1841666666733,
      "v": 85
    },
    {
      "midi": 67,
      "hit": false,
      "t": 221274.35999999978,
      "d": 653.1841666666733,
      "v": 84
    }
  ]
}