{
  "jsonPath": "Rock/Comedy Rock/Weird Al Yankovic/ode-to-a-superhero-parody-of-piano-man-by-billy-joel.json",
  "path": "Rock\\Comedy Rock\\Weird Al Yankovic\\Ode To A Superhero (Parody of Piano Man by Billy Joel).mid",
  "name": "Ode To A Superhero (Parody of Piano Man by Billy Joel)",
  "difficulty": "Advanced",
  "bpm": 83.00017983372297,
  "notes": [
    {
      "midi": 50,
      "hit": false,
      "t": 2921.680416666667,
      "d": 3529.736328125,
      "v": 101
    },
    {
      "midi": 57,
      "hit": false,
      "t": 2921.680416666667,
      "d": 3533.501380208333,
      "v": 116
    },
    {
      "midi": 60,
      "hit": false,
      "t": 2925.4454687500006,
      "d": 3518.4411718749993,
      "v": 102
    },
    {
      "midi": 53,
      "hit": false,
      "t": 2929.210520833334,
      "d": 3525.971276041666,
      "v": 116
    },
    {
      "midi": 68,
      "hit": false,
      "t": 3490.203281250001,
      "d": 47.063151041666515,
      "v": 124
    },
    {
      "midi": 69,
      "hit": false,
      "t": 3584.329583333334,
      "d": 80.94861979166672,
      "v": 85
    },
    {
      "midi": 72,
      "hit": false,
      "t": 3670.925781250001,
      "d": 77.18356770833316,
      "v": 108
    },
    {
      "midi": 76,
      "hit": false,
      "t": 3772.5821875000006,
      "d": 58.35830729166673,
      "v": 110
    },
    {
      "midi": 79,
      "hit": false,
      "t": 3911.889114583334,
      "d": 73.41851562500005,
      "v": 127
    },
    {
      "midi": 78,
      "hit": false,
      "t": 4077.5514062500006,
      "d": 54.593255208333176,
      "v": 127
    },
    {
      "midi": 77,
      "hit": false,
      "t": 4246.97875,
      "d": 62.12335937500029,
      "v": 123
    },
    {
      "midi": 76,
      "hit": false,
      "t": 4393.81578125,
      "d": 77.18356770833361,
      "v": 101
    },
    {
      "midi": 75,
      "hit": false,
      "t": 4574.53828125,
      "d": 65.8884114583334,
      "v": 115
    },
    {
      "midi": 74,
      "hit": false,
      "t": 4740.200572916667,
      "d": 84.71367187499982,
      "v": 85
    },
    {
      "midi": 73,
      "hit": false,
      "t": 4939.748333333333,
      "d": 80.94861979166672,
      "v": 107
    },
    {
      "midi": 72,
      "hit": false,
      "t": 5207.06703125,
      "d": 1609.5597656250002,
      "v": 88
    },
    {
      "midi": 56,
      "hit": false,
      "t": 6716.852916666667,
      "d": 4316.632213541667,
      "v": 94
    },
    {
      "midi": 59,
      "hit": false,
      "t": 6724.383020833334,
      "d": 4309.102109375,
      "v": 71
    },
    {
      "midi": 53,
      "hit": false,
      "t": 6724.383020833334,
      "d": 4316.632213541666,
      "v": 90
    },
    {
      "midi": 50,
      "hit": false,
      "t": 6728.148072916667,
      "d": 4316.632213541667,
      "v": 65
    },
    {
      "midi": 70,
      "hit": false,
      "t": 7507.5138541666665,
      "d": 84.71367187499982,
      "v": 115
    },
    {
      "midi": 71,
      "hit": false,
      "t": 7616.700364583333,
      "d": 99.77388020833314,
      "v": 72
    },
    {
      "midi": 72,
      "hit": false,
      "t": 7722.121822916666,
      "d": 92.24377604166693,
      "v": 85
    },
    {
      "midi": 70,
      "hit": false,
      "t": 7831.308333333333,
      "d": 96.00882812500004,
      "v": 109
    },
    {
      "midi": 71,
      "hit": false,
      "t": 7929.1996875,
      "d": 111.06903645833336,
      "v": 67
    },
    {
      "midi": 72,
      "hit": false,
      "t": 8038.386197916667,
      "d": 103.53893229166715,
      "v": 92
    },
    {
      "midi": 70,
      "hit": false,
      "t": 8151.337760416667,
      "d": 111.06903645833336,
      "v": 107
    },
    {
      "midi": 71,
      "hit": false,
      "t": 8268.054375,
      "d": 231.55070312499993,
      "v": 60
    },
    {
      "midi": 67,
      "hit": false,
      "t": 8505.252656249999,
      "d": 122.36419270833358,
      "v": 61
    },
    {
      "midi": 68,
      "hit": false,
      "t": 8618.20421875,
      "d": 99.77388020833314,
      "v": 86
    },
    {
      "midi": 69,
      "hit": false,
      "t": 8712.330520833333,
      "d": 152.4846093749984,
      "v": 118
    },
    {
      "midi": 67,
      "hit": false,
      "t": 8938.233645833332,
      "d": 175.07492187500065,
      "v": 51
    },
    {
      "midi": 62,
      "hit": false,
      "t": 9182.96203125,
      "d": 99.77388020833314,
      "v": 60
    },
    {
      "midi": 63,
      "hit": false,
      "t": 9262.028124999999,
      "d": 92.24377604166693,
      "v": 43
    },
    {
      "midi": 64,
      "hit": false,
      "t": 9352.389374999999,
      "d": 152.48460937500022,
      "v": 55
    },
    {
      "midi": 67,
      "hit": false,
      "t": 9627.238177083333,
      "d": 1402.4819010416668,
      "v": 55
    },
    {
      "midi": 48,
      "hit": false,
      "t": 10843.349999999999,
      "d": 1041.036901041667,
      "v": 116
    },
    {
      "midi": 67,
      "hit": false,
      "t": 11204.795,
      "d": 227.78565104166591,
      "v": 62
    },
    {
      "midi": 60,
      "hit": false,
      "t": 11204.795,
      "d": 235.31575520833212,
      "v": 60
    },
    {
      "midi": 64,
      "hit": false,
      "t": 11204.795,
      "d": 235.31575520833212,
      "v": 67
    },
    {
      "midi": 67,
      "hit": false,
      "t": 11566.239999999998,
      "d": 314.38184895833365,
      "v": 73
    },
    {
      "midi": 60,
      "hit": false,
      "t": 11566.239999999998,
      "d": 344.5022656250003,
      "v": 71
    },
    {
      "midi": 64,
      "hit": false,
      "t": 11566.239999999998,
      "d": 367.0925781249989,
      "v": 84
    },
    {
      "midi": 47,
      "hit": false,
      "t": 11927.684999999998,
      "d": 472.51403645833307,
      "v": 113
    },
    {
      "midi": 67,
      "hit": false,
      "t": 12289.129999999997,
      "d": 310.61679687499964,
      "v": 72
    },
    {
      "midi": 62,
      "hit": false,
      "t": 12289.129999999997,
      "d": 374.62268229166693,
      "v": 94
    },
    {
      "midi": 59,
      "hit": false,
      "t": 12289.129999999997,
      "d": 389.68289062500116,
      "v": 75
    },
    {
      "midi": 47,
      "hit": false,
      "t": 12650.574999999997,
      "d": 303.08669270833525,
      "v": 97
    },
    {
      "midi": 45,
      "hit": false,
      "t": 13012.019999999999,
      "d": 502.6344531249997,
      "v": 110
    },
    {
      "midi": 65,
      "hit": false,
      "t": 13373.464999999998,
      "d": 393.44794270833336,
      "v": 72
    },
    {
      "midi": 57,
      "hit": false,
      "t": 13373.464999999998,
      "d": 408.5081510416676,
      "v": 61
    },
    {
      "midi": 60,
      "hit": false,
      "t": 13373.464999999998,
      "d": 427.333411458334,
      "v": 71
    },
    {
      "midi": 45,
      "hit": false,
      "t": 13734.909999999998,
      "d": 272.9662760416668,
      "v": 77
    },
    {
      "midi": 43,
      "hit": false,
      "t": 14096.354999999998,
      "d": 867.8445052083334,
      "v": 110
    },
    {
      "midi": 60,
      "hit": false,
      "t": 14457.799999999997,
      "d": 261.67111979166657,
      "v": 72
    },
    {
      "midi": 64,
      "hit": false,
      "t": 14457.799999999997,
      "d": 261.67111979166657,
      "v": 67
    },
    {
      "midi": 64,
      "hit": false,
      "t": 14819.244999999997,
      "d": 175.07492187500065,
      "v": 90
    },
    {
      "midi": 60,
      "hit": false,
      "t": 14819.244999999997,
      "d": 182.60502604166686,
      "v": 99
    },
    {
      "midi": 53,
      "hit": false,
      "t": 15180.689999999997,
      "d": 946.9105989583331,
      "v": 81
    },
    {
      "midi": 57,
      "hit": false,
      "t": 15180.689999999997,
      "d": 950.6756510416672,
      "v": 102
    },
    {
      "midi": 41,
      "hit": false,
      "t": 15180.689999999997,
      "d": 961.9708072916674,
      "v": 79
    },
    {
      "midi": 64,
      "hit": false,
      "t": 15542.134999999997,
      "d": 208.9603906249995,
      "v": 78
    },
    {
      "midi": 60,
      "hit": false,
      "t": 15542.134999999997,
      "d": 224.02059895833372,
      "v": 68
    },
    {
      "midi": 64,
      "hit": false,
      "t": 15903.579999999996,
      "d": 276.7313281250008,
      "v": 94
    },
    {
      "midi": 60,
      "hit": false,
      "t": 15903.579999999996,
      "d": 284.261432291667,
      "v": 82
    },
    {
      "midi": 55,
      "hit": false,
      "t": 16265.024999999996,
      "d": 449.92372395833627,
      "v": 99
    },
    {
      "midi": 40,
      "hit": false,
      "t": 16265.024999999996,
      "d": 596.7607552083373,
      "v": 79
    },
    {
      "midi": 52,
      "hit": false,
      "t": 16265.024999999996,
      "d": 608.0559114583357,
      "v": 85
    },
    {
      "midi": 60,
      "hit": false,
      "t": 16626.469999999998,
      "d": 438.6285677083324,
      "v": 101
    },
    {
      "midi": 64,
      "hit": false,
      "t": 16626.469999999998,
      "d": 551.5801302083346,
      "v": 101
    },
    {
      "midi": 52,
      "hit": false,
      "t": 16987.914999999997,
      "d": 182.60502604166686,
      "v": 78
    },
    {
      "midi": 40,
      "hit": false,
      "t": 16987.914999999997,
      "d": 193.9001822916689,
      "v": 67
    },
    {
      "midi": 55,
      "hit": false,
      "t": 16987.914999999997,
      "d": 220.25554687500335,
      "v": 81
    },
    {
      "midi": 54,
      "hit": false,
      "t": 17349.36,
      "d": 611.8209635416642,
      "v": 54
    },
    {
      "midi": 50,
      "hit": false,
      "t": 17349.36,
      "d": 935.6154427083275,
      "v": 80
    },
    {
      "midi": 38,
      "hit": false,
      "t": 17349.36,
      "d": 946.9105989583259,
      "v": 79
    },
    {
      "midi": 60,
      "hit": false,
      "t": 17710.805,
      "d": 178.83997395833285,
      "v": 75
    },
    {
      "midi": 57,
      "hit": false,
      "t": 17710.805,
      "d": 197.66523437499927,
      "v": 78
    },
    {
      "midi": 57,
      "hit": false,
      "t": 18072.249999999996,
      "d": 325.67700520833023,
      "v": 84
    },
    {
      "midi": 54,
      "hit": false,
      "t": 18072.249999999996,
      "d": 333.20710937499825,
      "v": 58
    },
    {
      "midi": 60,
      "hit": false,
      "t": 18072.249999999996,
      "d": 340.7372135416663,
      "v": 71
    },
    {
      "midi": 43,
      "hit": false,
      "t": 18433.694999999996,
      "d": 1131.398151041667,
      "v": 127
    },
    {
      "midi": 55,
      "hit": false,
      "t": 18795.139999999996,
      "d": 340.7372135416663,
      "v": 120
    },
    {
      "midi": 59,
      "hit": false,
      "t": 18795.139999999996,
      "d": 340.7372135416663,
      "v": 120
    },
    {
      "midi": 62,
      "hit": false,
      "t": 18795.139999999996,
      "d": 340.7372135416663,
      "v": 115
    },
    {
      "midi": 48,
      "hit": false,
      "t": 19518.029999999995,
      "d": 1041.036901041669,
      "v": 116
    },
    {
      "midi": 67,
      "hit": false,
      "t": 19879.474999999995,
      "d": 227.78565104166773,
      "v": 62
    },
    {
      "midi": 60,
      "hit": false,
      "t": 19879.474999999995,
      "d": 235.31575520833576,
      "v": 60
    },
    {
      "midi": 64,
      "hit": false,
      "t": 19879.474999999995,
      "d": 235.31575520833576,
      "v": 67
    },
    {
      "midi": 67,
      "hit": false,
      "t": 20240.92,
      "d": 314.38184895833183,
      "v": 73
    },
    {
      "midi": 60,
      "hit": false,
      "t": 20240.92,
      "d": 344.5022656250003,
      "v": 71
    },
    {
      "midi": 64,
      "hit": false,
      "t": 20240.92,
      "d": 367.0925781250007,
      "v": 84
    },
    {
      "midi": 47,
      "hit": false,
      "t": 20602.364999999998,
      "d": 472.51403645833125,
      "v": 113
    },
    {
      "midi": 67,
      "hit": false,
      "t": 20963.809999999998,
      "d": 310.6167968749978,
      "v": 72
    },
    {
      "midi": 62,
      "hit": false,
      "t": 20963.809999999998,
      "d": 374.6226822916615,
      "v": 94
    },
    {
      "midi": 59,
      "hit": false,
      "t": 20963.809999999998,
      "d": 389.6828906249939,
      "v": 75
    },
    {
      "midi": 47,
      "hit": false,
      "t": 21325.254999999994,
      "d": 303.0866927083298,
      "v": 97
    },
    {
      "midi": 45,
      "hit": false,
      "t": 21686.69999999999,
      "d": 502.6344531249997,
      "v": 110
    },
    {
      "midi": 65,
      "hit": false,
      "t": 22048.14499999999,
      "d": 393.44794270833154,
      "v": 72
    },
    {
      "midi": 57,
      "hit": false,
      "t": 22048.14499999999,
      "d": 408.50815104166395,
      "v": 61
    },
    {
      "midi": 60,
      "hit": false,
      "t": 22048.14499999999,
      "d": 427.3334114583304,
      "v": 71
    },
    {
      "midi": 45,
      "hit": false,
      "t": 22409.58999999999,
      "d": 272.96627604166497,
      "v": 77
    },
    {
      "midi": 43,
      "hit": false,
      "t": 22771.03499999999,
      "d": 867.8445052083334,
      "v": 110
    },
    {
      "midi": 60,
      "hit": false,
      "t": 23132.47999999999,
      "d": 261.67111979166657,
      "v": 72
    },
    {
      "midi": 64,
      "hit": false,
      "t": 23132.47999999999,
      "d": 261.67111979166657,
      "v": 67
    },
    {
      "midi": 64,
      "hit": false,
      "t": 23493.92499999999,
      "d": 175.07492187500247,
      "v": 90
    },
    {
      "midi": 60,
      "hit": false,
      "t": 23493.92499999999,
      "d": 182.6050260416705,
      "v": 99
    },
    {
      "midi": 53,
      "hit": false,
      "t": 23855.36999999999,
      "d": 931.8503906249971,
      "v": 112
    },
    {
      "midi": 41,
      "hit": false,
      "t": 23855.36999999999,
      "d": 958.2057552083315,
      "v": 106
    },
    {
      "midi": 60,
      "hit": false,
      "t": 24216.81499999999,
      "d": 224.02059895833372,
      "v": 77
    },
    {
      "midi": 65,
      "hit": false,
      "t": 24216.81499999999,
      "d": 239.08080729166613,
      "v": 68
    },
    {
      "midi": 57,
      "hit": false,
      "t": 24216.81499999999,
      "d": 250.37596354166453,
      "v": 72
    },
    {
      "midi": 60,
      "hit": false,
      "t": 24578.259999999987,
      "d": 306.85174479166744,
      "v": 97
    },
    {
      "midi": 65,
      "hit": false,
      "t": 24578.259999999987,
      "d": 310.61679687500146,
      "v": 88
    },
    {
      "midi": 57,
      "hit": false,
      "t": 24578.259999999987,
      "d": 321.91195312499985,
      "v": 78
    },
    {
      "midi": 43,
      "hit": false,
      "t": 24939.704999999987,
      "d": 521.4597135416661,
      "v": 109
    },
    {
      "midi": 60,
      "hit": false,
      "t": 25301.149999999987,
      "d": 574.1704427083314,
      "v": 84
    },
    {
      "midi": 53,
      "hit": false,
      "t": 25301.149999999987,
      "d": 589.2306510416638,
      "v": 72
    },
    {
      "midi": 57,
      "hit": false,
      "t": 25301.149999999987,
      "d": 592.9957031249978,
      "v": 81
    },
    {
      "midi": 65,
      "hit": false,
      "t": 25301.149999999987,
      "d": 596.7607552083318,
      "v": 92
    },
    {
      "midi": 43,
      "hit": false,
      "t": 25662.594999999987,
      "d": 291.7915364583314,
      "v": 71
    },
    {
      "midi": 55,
      "hit": false,
      "t": 26024.039999999986,
      "d": 114.83408854166555,
      "v": 118
    },
    {
      "midi": 64,
      "hit": false,
      "t": 26024.039999999986,
      "d": 126.12924479166395,
      "v": 125
    },
    {
      "midi": 60,
      "hit": false,
      "t": 26024.039999999986,
      "d": 137.42440104166235,
      "v": 125
    },
    {
      "midi": 67,
      "hit": false,
      "t": 26024.039999999986,
      "d": 141.18945312499636,
      "v": 110
    },
    {
      "midi": 36,
      "hit": false,
      "t": 26024.039999999986,
      "d": 528.9898177083305,
      "v": 95
    },
    {
      "midi": 48,
      "hit": false,
      "t": 26024.039999999986,
      "d": 574.1704427083278,
      "v": 118
    },
    {
      "midi": 60,
      "hit": false,
      "t": 26385.484999999982,
      "d": 434.8635156249984,
      "v": 95
    },
    {
      "midi": 64,
      "hit": false,
      "t": 26566.207499999982,
      "d": 363.3275260416631,
      "v": 98
    },
    {
      "midi": 67,
      "hit": false,
      "t": 26746.929999999982,
      "d": 144.95450520833037,
      "v": 95
    },
    {
      "midi": 72,
      "hit": false,
      "t": 26927.65249999998,
      "d": 88.47872395833474,
      "v": 101
    },
    {
      "midi": 60,
      "hit": false,
      "t": 27108.374999999978,
      "d": 163.77976562500044,
      "v": 118
    },
    {
      "midi": 69,
      "hit": false,
      "t": 27108.374999999978,
      "d": 216.4904947916657,
      "v": 125
    },
    {
      "midi": 65,
      "hit": false,
      "t": 27108.374999999978,
      "d": 280.496380208333,
      "v": 125
    },
    {
      "midi": 48,
      "hit": false,
      "t": 27108.374999999978,
      "d": 833.959036458331,
      "v": 95
    },
    {
      "midi": 57,
      "hit": false,
      "t": 27108.374999999978,
      "d": 849.019244791667,
      "v": 110
    },
    {
      "midi": 60,
      "hit": false,
      "t": 27469.819999999978,
      "d": 310.61679687500146,
      "v": 85
    },
    {
      "midi": 65,
      "hit": false,
      "t": 27650.542499999978,
      "d": 299.3216406249994,
      "v": 110
    },
    {
      "midi": 72,
      "hit": false,
      "t": 27831.264999999978,
      "d": 156.24966145833605,
      "v": 110
    },
    {
      "midi": 60,
      "hit": false,
      "t": 28011.98749999998,
      "d": 65.8884114583343,
      "v": 98
    },
    {
      "midi": 60,
      "hit": false,
      "t": 28192.70999999998,
      "d": 197.66523437499927,
      "v": 125
    },
    {
      "midi": 67,
      "hit": false,
      "t": 28192.70999999998,
      "d": 325.67700520833387,
      "v": 125
    },
    {
      "midi": 72,
      "hit": false,
      "t": 28192.70999999998,
      "d": 348.2673177083343,
      "v": 125
    },
    {
      "midi": 71,
      "hit": false,
      "t": 28192.70999999998,
      "d": 355.7974218750023,
      "v": 118
    },
    {
      "midi": 59,
      "hit": false,
      "t": 28192.70999999998,
      "d": 675.8268489583352,
      "v": 118
    },
    {
      "midi": 48,
      "hit": false,
      "t": 28192.70999999998,
      "d": 698.4171614583356,
      "v": 92
    },
    {
      "midi": 60,
      "hit": false,
      "t": 28554.154999999984,
      "d": 212.72544270833168,
      "v": 92
    },
    {
      "midi": 67,
      "hit": false,
      "t": 28734.877499999984,
      "d": 182.60502604166686,
      "v": 98
    },
    {
      "midi": 72,
      "hit": false,
      "t": 28915.599999999984,
      "d": 114.83408854166555,
      "v": 118
    },
    {
      "midi": 60,
      "hit": false,
      "t": 29096.322499999984,
      "d": 73.41851562499869,
      "v": 90
    },
    {
      "midi": 53,
      "hit": false,
      "t": 29277.04499999998,
      "d": 205.1953385416673,
      "v": 125
    },
    {
      "midi": 69,
      "hit": false,
      "t": 29277.04499999998,
      "d": 212.72544270833532,
      "v": 125
    },
    {
      "midi": 65,
      "hit": false,
      "t": 29277.04499999998,
      "d": 216.49049479166933,
      "v": 125
    },
    {
      "midi": 41,
      "hit": false,
      "t": 29277.04499999998,
      "d": 224.02059895833736,
      "v": 98
    },
    {
      "midi": 60,
      "hit": false,
      "t": 29277.04499999998,
      "d": 224.02059895833736,
      "v": 118
    },
    {
      "midi": 52,
      "hit": false,
      "t": 29638.489999999983,
      "d": 205.1953385416673,
      "v": 110
    },
    {
      "midi": 67,
      "hit": false,
      "t": 29638.489999999983,
      "d": 216.4904947916657,
      "v": 125
    },
    {
      "midi": 40,
      "hit": false,
      "t": 29638.489999999983,
      "d": 220.2555468749997,
      "v": 118
    },
    {
      "midi": 64,
      "hit": false,
      "t": 29638.489999999983,
      "d": 227.78565104166773,
      "v": 125
    },
    {
      "midi": 60,
      "hit": false,
      "t": 29638.489999999983,
      "d": 239.08080729166613,
      "v": 125
    },
    {
      "midi": 50,
      "hit": false,
      "t": 29999.934999999983,
      "d": 84.71367187500073,
      "v": 101
    },
    {
      "midi": 65,
      "hit": false,
      "t": 29999.934999999983,
      "d": 92.24377604166875,
      "v": 125
    },
    {
      "midi": 60,
      "hit": false,
      "t": 29999.934999999983,
      "d": 96.00882812500276,
      "v": 118
    },
    {
      "midi": 62,
      "hit": false,
      "t": 29999.934999999983,
      "d": 99.77388020833678,
      "v": 125
    },
    {
      "midi": 38,
      "hit": false,
      "t": 29999.934999999983,
      "d": 111.06903645833518,
      "v": 98
    },
    {
      "midi": 55,
      "hit": false,
      "t": 30361.379999999986,
      "d": 103.53893229166715,
      "v": 125
    },
    {
      "midi": 67,
      "hit": false,
      "t": 30361.379999999986,
      "d": 107.30398437500116,
      "v": 98
    },
    {
      "midi": 64,
      "hit": false,
      "t": 30361.379999999986,
      "d": 141.189453125,
      "v": 118
    },
    {
      "midi": 60,
      "hit": false,
      "t": 30361.379999999986,
      "d": 144.954505208334,
      "v": 125
    },
    {
      "midi": 36,
      "hit": false,
      "t": 30361.379999999986,
      "d": 276.731328124999,
      "v": 98
    },
    {
      "midi": 48,
      "hit": false,
      "t": 30361.379999999986,
      "d": 318.14690104166584,
      "v": 125
    },
    {
      "midi": 60,
      "hit": false,
      "t": 30722.824999999986,
      "d": 434.86351562500204,
      "v": 118
    },
    {
      "midi": 64,
      "hit": false,
      "t": 30903.547499999986,
      "d": 325.6770052083375,
      "v": 118
    },
    {
      "midi": 67,
      "hit": false,
      "t": 31084.269999999986,
      "d": 137.42440104166963,
      "v": 95
    },
    {
      "midi": 72,
      "hit": false,
      "t": 31264.99249999999,
      "d": 92.24377604166511,
      "v": 90
    },
    {
      "midi": 67,
      "hit": false,
      "t": 31445.71499999999,
      "d": 1.8825260416670062,
      "v": 118
    },
    {
      "midi": 60,
      "hit": false,
      "t": 31445.71499999999,
      "d": 190.13513020833125,
      "v": 118
    },
    {
      "midi": 65,
      "hit": false,
      "t": 31445.71499999999,
      "d": 291.7915364583314,
      "v": 118
    },
    {
      "midi": 69,
      "hit": false,
      "t": 31445.71499999999,
      "d": 314.38184895833183,
      "v": 125
    },
    {
      "midi": 48,
      "hit": false,
      "t": 31445.71499999999,
      "d": 818.8988281249985,
      "v": 98
    },
    {
      "midi": 57,
      "hit": false,
      "t": 31445.71499999999,
      "d": 841.489140624999,
      "v": 118
    },
    {
      "midi": 60,
      "hit": false,
      "t": 31807.15999999999,
      "d": 246.61091145833416,
      "v": 85
    },
    {
      "midi": 65,
      "hit": false,
      "t": 31987.88249999999,
      "d": 284.261432291667,
      "v": 98
    },
    {
      "midi": 72,
      "hit": false,
      "t": 32168.60499999999,
      "d": 77.1835677083327,
      "v": 88
    },
    {
      "midi": 60,
      "hit": false,
      "t": 32349.32749999999,
      "d": 62.12335937500029,
      "v": 92
    },
    {
      "midi": 60,
      "hit": false,
      "t": 32530.04999999999,
      "d": 197.6652343750029,
      "v": 125
    },
    {
      "midi": 72,
      "hit": false,
      "t": 32530.04999999999,
      "d": 306.85174479166744,
      "v": 118
    },
    {
      "midi": 71,
      "hit": false,
      "t": 32530.04999999999,
      "d": 325.6770052083375,
      "v": 118
    },
    {
      "midi": 67,
      "hit": false,
      "t": 32530.04999999999,
      "d": 389.68289062500844,
      "v": 125
    },
    {
      "midi": 59,
      "hit": false,
      "t": 32530.04999999999,
      "d": 717.2424218750093,
      "v": 125
    },
    {
      "midi": 48,
      "hit": false,
      "t": 32530.04999999999,
      "d": 732.3026302083381,
      "v": 98
    },
    {
      "midi": 60,
      "hit": false,
      "t": 32891.494999999995,
      "d": 291.79153645833867,
      "v": 90
    },
    {
      "midi": 67,
      "hit": false,
      "t": 33072.2175,
      "d": 212.7254427083244,
      "v": 101
    },
    {
      "midi": 72,
      "hit": false,
      "t": 33252.939999999995,
      "d": 201.43028645832965,
      "v": 110
    },
    {
      "midi": 60,
      "hit": false,
      "t": 33433.66249999999,
      "d": 73.41851562500233,
      "v": 98
    },
    {
      "midi": 60,
      "hit": false,
      "t": 33614.384999999995,
      "d": 160.01471354167006,
      "v": 125
    },
    {
      "midi": 72,
      "hit": false,
      "t": 33614.384999999995,
      "d": 186.37007812500087,
      "v": 118
    },
    {
      "midi": 65,
      "hit": false,
      "t": 33614.384999999995,
      "d": 193.9001822916689,
      "v": 125
    },
    {
      "midi": 53,
      "hit": false,
      "t": 33614.384999999995,
      "d": 197.6652343750029,
      "v": 125
    },
    {
      "midi": 41,
      "hit": false,
      "t": 33614.384999999995,
      "d": 216.49049479167297,
      "v": 95
    },
    {
      "midi": 69,
      "hit": false,
      "t": 33614.384999999995,
      "d": 246.6109114583378,
      "v": 125
    },
    {
      "midi": 72,
      "hit": false,
      "t": 33975.83,
      "d": 167.5448177083308,
      "v": 110
    },
    {
      "midi": 52,
      "hit": false,
      "t": 33975.83,
      "d": 197.66523437499563,
      "v": 110
    },
    {
      "midi": 67,
      "hit": false,
      "t": 33975.83,
      "d": 197.66523437499563,
      "v": 125
    },
    {
      "midi": 64,
      "hit": false,
      "t": 33975.83,
      "d": 201.43028645832965,
      "v": 110
    },
    {
      "midi": 40,
      "hit": false,
      "t": 33975.83,
      "d": 212.72544270833168,
      "v": 90
    },
    {
      "midi": 72,
      "hit": false,
      "t": 34337.275,
      "d": 114.83408854166919,
      "v": 118
    },
    {
      "midi": 62,
      "hit": false,
      "t": 34337.275,
      "d": 122.36419270833721,
      "v": 125
    },
    {
      "midi": 65,
      "hit": false,
      "t": 34337.275,
      "d": 126.12924479167123,
      "v": 125
    },
    {
      "midi": 38,
      "hit": false,
      "t": 34337.275,
      "d": 133.65934895833925,
      "v": 98
    },
    {
      "midi": 50,
      "hit": false,
      "t": 34337.275,
      "d": 137.42440104167326,
      "v": 125
    },
    {
      "midi": 48,
      "hit": false,
      "t": 34698.72000000001,
      "d": 1041.036901041669,
      "v": 116
    },
    {
      "midi": 67,
      "hit": false,
      "t": 35060.16500000001,
      "d": 227.78565104166773,
      "v": 62
    },
    {
      "midi": 60,
      "hit": false,
      "t": 35060.16500000001,
      "d": 235.31575520833576,
      "v": 60
    },
    {
      "midi": 64,
      "hit": false,
      "t": 35060.16500000001,
      "d": 235.31575520833576,
      "v": 67
    },
    {
      "midi": 67,
      "hit": false,
      "t": 35421.61000000001,
      "d": 314.38184895833547,
      "v": 73
    },
    {
      "midi": 60,
      "hit": false,
      "t": 35421.61000000001,
      "d": 344.5022656250003,
      "v": 71
    },
    {
      "midi": 64,
      "hit": false,
      "t": 35421.61000000001,
      "d": 367.0925781249971,
      "v": 84
    },
    {
      "midi": 47,
      "hit": false,
      "t": 35783.05500000001,
      "d": 472.5140364583349,
      "v": 113
    },
    {
      "midi": 67,
      "hit": false,
      "t": 36144.50000000001,
      "d": 310.61679687500146,
      "v": 72
    },
    {
      "midi": 62,
      "hit": false,
      "t": 36144.50000000001,
      "d": 374.6226822916651,
      "v": 94
    },
    {
      "midi": 59,
      "hit": false,
      "t": 36144.50000000001,
      "d": 389.68289062500116,
      "v": 75
    },
    {
      "midi": 47,
      "hit": false,
      "t": 36505.94500000001,
      "d": 303.08669270833343,
      "v": 97
    },
    {
      "midi": 45,
      "hit": false,
      "t": 36867.39000000001,
      "d": 502.6344531249997,
      "v": 110
    },
    {
      "midi": 65,
      "hit": false,
      "t": 37228.83500000001,
      "d": 393.4479427083352,
      "v": 72
    },
    {
      "midi": 57,
      "hit": false,
      "t": 37228.83500000001,
      "d": 408.5081510416712,
      "v": 61
    },
    {
      "midi": 60,
      "hit": false,
      "t": 37228.83500000001,
      "d": 427.3334114583413,
      "v": 71
    },
    {
      "midi": 45,
      "hit": false,
      "t": 37590.280000000006,
      "d": 272.9662760416759,
      "v": 77
    },
    {
      "midi": 43,
      "hit": false,
      "t": 37951.72500000001,
      "d": 867.8445052083334,
      "v": 110
    },
    {
      "midi": 60,
      "hit": false,
      "t": 38313.17000000001,
      "d": 261.67111979166657,
      "v": 72
    },
    {
      "midi": 64,
      "hit": false,
      "t": 38313.17000000001,
      "d": 261.67111979166657,
      "v": 67
    },
    {
      "midi": 64,
      "hit": false,
      "t": 38674.61500000001,
      "d": 175.07492187499884,
      "v": 90
    },
    {
      "midi": 60,
      "hit": false,
      "t": 38674.61500000001,
      "d": 182.60502604166686,
      "v": 99
    },
    {
      "midi": 53,
      "hit": false,
      "t": 39036.06000000001,
      "d": 946.9105989583331,
      "v": 81
    },
    {
      "midi": 57,
      "hit": false,
      "t": 39036.06000000001,
      "d": 950.6756510416672,
      "v": 102
    },
    {
      "midi": 41,
      "hit": false,
      "t": 39036.06000000001,
      "d": 961.9708072916692,
      "v": 79
    },
    {
      "midi": 64,
      "hit": false,
      "t": 39397.50500000001,
      "d": 208.96039062499767,
      "v": 78
    },
    {
      "midi": 60,
      "hit": false,
      "t": 39397.50500000001,
      "d": 224.02059895833372,
      "v": 68
    },
    {
      "midi": 64,
      "hit": false,
      "t": 39758.95000000001,
      "d": 276.7313281250026,
      "v": 94
    },
    {
      "midi": 60,
      "hit": false,
      "t": 39758.95000000001,
      "d": 284.26143229167064,
      "v": 82
    },
    {
      "midi": 55,
      "hit": false,
      "t": 40120.39500000002,
      "d": 449.9237239583308,
      "v": 99
    },
    {
      "midi": 40,
      "hit": false,
      "t": 40120.39500000002,
      "d": 596.7607552083282,
      "v": 79
    },
    {
      "midi": 52,
      "hit": false,
      "t": 40120.39500000002,
      "d": 608.0559114583302,
      "v": 85
    },
    {
      "midi": 60,
      "hit": false,
      "t": 40481.84000000002,
      "d": 438.62856770833605,
      "v": 101
    },
    {
      "midi": 64,
      "hit": false,
      "t": 40481.84000000002,
      "d": 551.5801302083346,
      "v": 101
    },
    {
      "midi": 52,
      "hit": false,
      "t": 40843.28500000002,
      "d": 182.60502604166686,
      "v": 78
    },
    {
      "midi": 40,
      "hit": false,
      "t": 40843.28500000002,
      "d": 193.9001822916689,
      "v": 67
    },
    {
      "midi": 55,
      "hit": false,
      "t": 40843.28500000002,
      "d": 220.2555468749997,
      "v": 81
    },
    {
      "midi": 38,
      "hit": false,
      "t": 41189.66979166668,
      "d": 751.1278906250009,
      "v": 96
    },
    {
      "midi": 50,
      "hit": false,
      "t": 41189.66979166668,
      "d": 769.9531510416709,
      "v": 123
    },
    {
      "midi": 62,
      "hit": false,
      "t": 41558.64489583335,
      "d": 58.35830729166628,
      "v": 99
    },
    {
      "midi": 69,
      "hit": false,
      "t": 41562.40994791668,
      "d": 137.424401041666,
      "v": 116
    },
    {
      "midi": 64,
      "hit": false,
      "t": 41637.71098958335,
      "d": 99.77388020833314,
      "v": 77
    },
    {
      "midi": 62,
      "hit": false,
      "t": 41897.49958333335,
      "d": 65.8884114583343,
      "v": 123
    },
    {
      "midi": 69,
      "hit": false,
      "t": 41897.49958333335,
      "d": 374.6226822916651,
      "v": 123
    },
    {
      "midi": 64,
      "hit": false,
      "t": 41984.09578125002,
      "d": 265.4361718750006,
      "v": 88
    },
    {
      "midi": 43,
      "hit": false,
      "t": 42281.53489583335,
      "d": 875.3746093750015,
      "v": 99
    },
    {
      "midi": 55,
      "hit": false,
      "t": 42285.29994791668,
      "d": 879.1396614583355,
      "v": 123
    },
    {
      "midi": 71,
      "hit": false,
      "t": 42526.263281250016,
      "d": 73.41851562500233,
      "v": 116
    },
    {
      "midi": 67,
      "hit": false,
      "t": 42627.91968750002,
      "d": 532.7548697916645,
      "v": 116
    },
    {
      "midi": 71,
      "hit": false,
      "t": 42654.27505208335,
      "d": 506.3995052083337,
      "v": 51
    },
    {
      "midi": 62,
      "hit": false,
      "t": 42989.36468750002,
      "d": 178.83997395833285,
      "v": 108
    },
    {
      "midi": 48,
      "hit": false,
      "t": 43373.400000000016,
      "d": 1041.036901041669,
      "v": 116
    },
    {
      "midi": 67,
      "hit": false,
      "t": 43734.845000000016,
      "d": 227.78565104166773,
      "v": 62
    },
    {
      "midi": 60,
      "hit": false,
      "t": 43734.845000000016,
      "d": 235.31575520833576,
      "v": 60
    },
    {
      "midi": 64,
      "hit": false,
      "t": 43734.845000000016,
      "d": 235.31575520833576,
      "v": 67
    },
    {
      "midi": 67,
      "hit": false,
      "t": 44096.290000000015,
      "d": 314.38184895833547,
      "v": 73
    },
    {
      "midi": 60,
      "hit": false,
      "t": 44096.290000000015,
      "d": 344.5022656250003,
      "v": 71
    },
    {
      "midi": 64,
      "hit": false,
      "t": 44096.290000000015,
      "d": 367.0925781249971,
      "v": 84
    },
    {
      "midi": 47,
      "hit": false,
      "t": 44457.735000000015,
      "d": 472.5140364583349,
      "v": 113
    },
    {
      "midi": 67,
      "hit": false,
      "t": 44819.180000000015,
      "d": 310.61679687500146,
      "v": 72
    },
    {
      "midi": 62,
      "hit": false,
      "t": 44819.180000000015,
      "d": 374.6226822916651,
      "v": 94
    },
    {
      "midi": 59,
      "hit": false,
      "t": 44819.180000000015,
      "d": 389.68289062500116,
      "v": 75
    },
    {
      "midi": 47,
      "hit": false,
      "t": 45180.625000000015,
      "d": 303.08669270833343,
      "v": 97
    },
    {
      "midi": 45,
      "hit": false,
      "t": 45542.070000000014,
      "d": 502.6344531249997,
      "v": 110
    },
    {
      "midi": 65,
      "hit": false,
      "t": 45903.515000000014,
      "d": 393.4479427083352,
      "v": 72
    },
    {
      "midi": 57,
      "hit": false,
      "t": 45903.515000000014,
      "d": 408.5081510416712,
      "v": 61
    },
    {
      "midi": 60,
      "hit": false,
      "t": 45903.515000000014,
      "d": 427.3334114583413,
      "v": 71
    },
    {
      "midi": 45,
      "hit": false,
      "t": 46264.960000000014,
      "d": 272.9662760416759,
      "v": 77
    },
    {
      "midi": 43,
      "hit": false,
      "t": 46626.40500000002,
      "d": 867.8445052083334,
      "v": 110
    },
    {
      "midi": 60,
      "hit": false,
      "t": 46987.85000000002,
      "d": 261.67111979166657,
      "v": 72
    },
    {
      "midi": 64,
      "hit": false,
      "t": 46987.85000000002,
      "d": 261.67111979166657,
      "v": 67
    },
    {
      "midi": 64,
      "hit": false,
      "t": 47349.29500000002,
      "d": 175.07492187499884,
      "v": 90
    },
    {
      "midi": 60,
      "hit": false,
      "t": 47349.29500000002,
      "d": 182.60502604166686,
      "v": 99
    },
    {
      "midi": 53,
      "hit": false,
      "t": 47710.74000000002,
      "d": 931.8503906250044,
      "v": 112
    },
    {
      "midi": 41,
      "hit": false,
      "t": 47710.74000000002,
      "d": 958.2057552083352,
      "v": 106
    },
    {
      "midi": 60,
      "hit": false,
      "t": 48072.18500000002,
      "d": 224.02059895833372,
      "v": 77
    },
    {
      "midi": 65,
      "hit": false,
      "t": 48072.18500000002,
      "d": 239.08080729166977,
      "v": 68
    },
    {
      "midi": 57,
      "hit": false,
      "t": 48072.18500000002,
      "d": 250.3759635416718,
      "v": 72
    },
    {
      "midi": 60,
      "hit": false,
      "t": 48433.63000000003,
      "d": 306.85174479166017,
      "v": 97
    },
    {
      "midi": 65,
      "hit": false,
      "t": 48433.63000000003,
      "d": 310.6167968749942,
      "v": 88
    },
    {
      "midi": 57,
      "hit": false,
      "t": 48433.63000000003,
      "d": 321.9119531249962,
      "v": 78
    },
    {
      "midi": 43,
      "hit": false,
      "t": 48795.075000000026,
      "d": 521.4597135416698,
      "v": 109
    },
    {
      "midi": 60,
      "hit": false,
      "t": 49156.520000000026,
      "d": 574.1704427083387,
      "v": 84
    },
    {
      "midi": 53,
      "hit": false,
      "t": 49156.520000000026,
      "d": 589.2306510416747,
      "v": 72
    },
    {
      "midi": 57,
      "hit": false,
      "t": 49156.520000000026,
      "d": 592.9957031250087,
      "v": 81
    },
    {
      "midi": 65,
      "hit": false,
      "t": 49156.520000000026,
      "d": 596.7607552083427,
      "v": 92
    },
    {
      "midi": 43,
      "hit": false,
      "t": 49517.96500000003,
      "d": 291.79153645833867,
      "v": 71
    },
    {
      "midi": 36,
      "hit": false,
      "t": 49879.41000000004,
      "d": 833.9590364583346,
      "v": 120
    },
    {
      "midi": 48,
      "hit": false,
      "t": 49879.41000000004,
      "d": 845.2541927083366,
      "v": 127
    },
    {
      "midi": 60,
      "hit": false,
      "t": 50240.85500000004,
      "d": 88.4787239583311,
      "v": 68
    },
    {
      "midi": 55,
      "hit": false,
      "t": 50240.85500000004,
      "d": 92.24377604166511,
      "v": 58
    },
    {
      "midi": 64,
      "hit": false,
      "t": 50240.85500000004,
      "d": 96.00882812499913,
      "v": 81
    },
    {
      "midi": 64,
      "hit": false,
      "t": 50602.30000000004,
      "d": 272.9662760416686,
      "v": 127
    },
    {
      "midi": 60,
      "hit": false,
      "t": 50602.30000000004,
      "d": 306.85174479166744,
      "v": 127
    },
    {
      "midi": 55,
      "hit": false,
      "t": 50602.30000000004,
      "d": 329.44205729166424,
      "v": 120
    },
    {
      "midi": 48,
      "hit": false,
      "t": 50963.74500000004,
      "d": 879.1396614583355,
      "v": 127
    },
    {
      "midi": 36,
      "hit": false,
      "t": 50963.74500000004,
      "d": 894.1998697916715,
      "v": 127
    },
    {
      "midi": 64,
      "hit": false,
      "t": 51325.19000000004,
      "d": 99.77388020833314,
      "v": 90
    },
    {
      "midi": 67,
      "hit": false,
      "t": 51325.19000000004,
      "d": 99.77388020833314,
      "v": 87
    },
    {
      "midi": 55,
      "hit": false,
      "t": 51325.19000000004,
      "d": 107.30398437500116,
      "v": 85
    },
    {
      "midi": 60,
      "hit": false,
      "t": 51325.19000000004,
      "d": 114.83408854166919,
      "v": 87
    },
    {
      "midi": 55,
      "hit": false,
      "t": 51686.63500000004,
      "d": 114.83408854166919,
      "v": 127
    },
    {
      "midi": 64,
      "hit": false,
      "t": 51686.63500000004,
      "d": 114.83408854166919,
      "v": 127
    },
    {
      "midi": 60,
      "hit": false,
      "t": 51686.63500000004,
      "d": 133.65934895833925,
      "v": 127
    },
    {
      "midi": 67,
      "hit": false,
      "t": 51686.63500000004,
      "d": 133.65934895833925,
      "v": 127
    },
    {
      "midi": 36,
      "hit": false,
      "t": 52048.080000000045,
      "d": 687.1220052083372,
      "v": 118
    },
    {
      "midi": 48,
      "hit": false,
      "t": 52048.080000000045,
      "d": 818.8988281250058,
      "v": 125
    },
    {
      "midi": 67,
      "hit": false,
      "t": 52409.525000000045,
      "d": 58.35830729166628,
      "v": 44
    },
    {
      "midi": 60,
      "hit": false,
      "t": 52409.525000000045,
      "d": 69.65346354166832,
      "v": 58
    },
    {
      "midi": 64,
      "hit": false,
      "t": 52409.525000000045,
      "d": 73.41851562500233,
      "v": 66
    },
    {
      "midi": 55,
      "hit": false,
      "t": 52409.525000000045,
      "d": 84.71367187500437,
      "v": 58
    },
    {
      "midi": 55,
      "hit": false,
      "t": 52770.97000000005,
      "d": 239.0808072916625,
      "v": 118
    },
    {
      "midi": 67,
      "hit": false,
      "t": 52770.97000000005,
      "d": 257.90606770833256,
      "v": 110
    },
    {
      "midi": 60,
      "hit": false,
      "t": 52770.97000000005,
      "d": 272.9662760416686,
      "v": 125
    },
    {
      "midi": 64,
      "hit": false,
      "t": 52770.97000000005,
      "d": 306.85174479166744,
      "v": 125
    },
    {
      "midi": 47,
      "hit": false,
      "t": 53132.41500000005,
      "d": 468.7489843750009,
      "v": 125
    },
    {
      "midi": 62,
      "hit": false,
      "t": 53493.86000000005,
      "d": 400.9780468750032,
      "v": 118
    },
    {
      "midi": 67,
      "hit": false,
      "t": 53493.86000000005,
      "d": 408.5081510416712,
      "v": 98
    },
    {
      "midi": 59,
      "hit": false,
      "t": 53493.86000000005,
      "d": 446.1586718750041,
      "v": 101
    },
    {
      "midi": 47,
      "hit": false,
      "t": 53855.30500000005,
      "d": 201.43028645833692,
      "v": 125
    },
    {
      "midi": 45,
      "hit": false,
      "t": 54216.75000000006,
      "d": 818.8988281249985,
      "v": 125
    },
    {
      "midi": 57,
      "hit": false,
      "t": 54578.19500000006,
      "d": 122.36419270832994,
      "v": 79
    },
    {
      "midi": 60,
      "hit": false,
      "t": 54578.19500000006,
      "d": 129.89429687499796,
      "v": 81
    },
    {
      "midi": 65,
      "hit": false,
      "t": 54578.19500000006,
      "d": 129.89429687499796,
      "v": 79
    },
    {
      "midi": 60,
      "hit": false,
      "t": 54939.64000000006,
      "d": 284.26143229166337,
      "v": 125
    },
    {
      "midi": 57,
      "hit": false,
      "t": 54939.64000000006,
      "d": 295.5565885416654,
      "v": 118
    },
    {
      "midi": 65,
      "hit": false,
      "t": 54939.64000000006,
      "d": 306.85174479166744,
      "v": 125
    },
    {
      "midi": 43,
      "hit": false,
      "t": 55301.08500000006,
      "d": 826.4289322916666,
      "v": 125
    },
    {
      "midi": 55,
      "hit": false,
      "t": 55662.53000000006,
      "d": 122.36419270832994,
      "v": 81
    },
    {
      "midi": 60,
      "hit": false,
      "t": 55662.53000000006,
      "d": 126.12924479166395,
      "v": 81
    },
    {
      "midi": 64,
      "hit": false,
      "t": 55662.53000000006,
      "d": 144.954505208334,
      "v": 88
    },
    {
      "midi": 60,
      "hit": false,
      "t": 56023.97500000006,
      "d": 220.2555468749997,
      "v": 125
    },
    {
      "midi": 64,
      "hit": false,
      "t": 56023.97500000006,
      "d": 235.31575520833576,
      "v": 125
    },
    {
      "midi": 55,
      "hit": false,
      "t": 56023.97500000006,
      "d": 272.9662760416686,
      "v": 118
    },
    {
      "midi": 41,
      "hit": false,
      "t": 56385.42000000006,
      "d": 769.9531510416709,
      "v": 125
    },
    {
      "midi": 65,
      "hit": false,
      "t": 56746.865000000056,
      "d": 99.77388020833314,
      "v": 61
    },
    {
      "midi": 60,
      "hit": false,
      "t": 56746.865000000056,
      "d": 118.5991406250032,
      "v": 70
    },
    {
      "midi": 53,
      "hit": false,
      "t": 56746.865000000056,
      "d": 133.65934895833925,
      "v": 61
    },
    {
      "midi": 57,
      "hit": false,
      "t": 56746.865000000056,
      "d": 141.18945312500728,
      "v": 72
    },
    {
      "midi": 65,
      "hit": false,
      "t": 57108.31000000006,
      "d": 265.4361718750006,
      "v": 101
    },
    {
      "midi": 60,
      "hit": false,
      "t": 57108.31000000006,
      "d": 295.5565885416654,
      "v": 98
    },
    {
      "midi": 53,
      "hit": false,
      "t": 57108.31000000006,
      "d": 325.67700520833023,
      "v": 118
    },
    {
      "midi": 57,
      "hit": false,
      "t": 57108.31000000006,
      "d": 344.5022656250003,
      "v": 110
    },
    {
      "midi": 43,
      "hit": false,
      "t": 57469.75500000006,
      "d": 698.4171614583247,
      "v": 125
    },
    {
      "midi": 65,
      "hit": false,
      "t": 57831.20000000006,
      "d": 129.89429687499796,
      "v": 85
    },
    {
      "midi": 53,
      "hit": false,
      "t": 57831.20000000006,
      "d": 152.48460937499476,
      "v": 79
    },
    {
      "midi": 60,
      "hit": false,
      "t": 57831.20000000006,
      "d": 152.48460937499476,
      "v": 70
    },
    {
      "midi": 57,
      "hit": false,
      "t": 57831.20000000006,
      "d": 178.83997395832557,
      "v": 83
    },
    {
      "midi": 60,
      "hit": false,
      "t": 58192.645000000055,
      "d": 197.6652343750029,
      "v": 90
    },
    {
      "midi": 53,
      "hit": false,
      "t": 58192.645000000055,
      "d": 205.19533854167094,
      "v": 101
    },
    {
      "midi": 57,
      "hit": false,
      "t": 58192.645000000055,
      "d": 220.25554687500698,
      "v": 95
    },
    {
      "midi": 65,
      "hit": false,
      "t": 58192.645000000055,
      "d": 257.90606770833983,
      "v": 92
    },
    {
      "midi": 48,
      "hit": false,
      "t": 58554.09000000006,
      "d": 852.7842968749974,
      "v": 125
    },
    {
      "midi": 36,
      "hit": false,
      "t": 58554.09000000006,
      "d": 909.2600781250003,
      "v": 125
    },
    {
      "midi": 60,
      "hit": false,
      "t": 58915.53500000006,
      "d": 118.5991406250032,
      "v": 72
    },
    {
      "midi": 55,
      "hit": false,
      "t": 58915.53500000006,
      "d": 122.36419270833721,
      "v": 59
    },
    {
      "midi": 64,
      "hit": false,
      "t": 58915.53500000006,
      "d": 148.71955729166802,
      "v": 85
    },
    {
      "midi": 55,
      "hit": false,
      "t": 59276.98000000006,
      "d": 363.3275260416631,
      "v": 101
    },
    {
      "midi": 64,
      "hit": false,
      "t": 59276.98000000006,
      "d": 367.0925781249971,
      "v": 125
    },
    {
      "midi": 60,
      "hit": false,
      "t": 59276.98000000006,
      "d": 374.6226822916651,
      "v": 125
    },
    {
      "midi": 36,
      "hit": false,
      "t": 59638.42500000006,
      "d": 785.013359375007,
      "v": 125
    },
    {
      "midi": 48,
      "hit": false,
      "t": 59638.42500000006,
      "d": 856.5493489583387,
      "v": 125
    },
    {
      "midi": 60,
      "hit": false,
      "t": 59999.87000000006,
      "d": 103.53893229166715,
      "v": 85
    },
    {
      "midi": 55,
      "hit": false,
      "t": 59999.87000000006,
      "d": 107.30398437500116,
      "v": 72
    },
    {
      "midi": 64,
      "hit": false,
      "t": 59999.87000000006,
      "d": 122.36419270833721,
      "v": 81
    },
    {
      "midi": 64,
      "hit": false,
      "t": 60361.31500000007,
      "d": 325.67700520833023,
      "v": 125
    },
    {
      "midi": 55,
      "hit": false,
      "t": 60361.31500000007,
      "d": 355.79742187499505,
      "v": 125
    },
    {
      "midi": 60,
      "hit": false,
      "t": 60361.31500000007,
      "d": 382.15278645832586,
      "v": 125
    },
    {
      "midi": 36,
      "hit": false,
      "t": 60722.76000000006,
      "d": 867.8445052083334,
      "v": 125
    },
    {
      "midi": 48,
      "hit": false,
      "t": 60722.76000000006,
      "d": 882.9047135416695,
      "v": 125
    },
    {
      "midi": 65,
      "hit": false,
      "t": 61084.20500000006,
      "d": 133.65934895833198,
      "v": 90
    },
    {
      "midi": 60,
      "hit": false,
      "t": 61084.20500000006,
      "d": 171.30986979166482,
      "v": 98
    },
    {
      "midi": 57,
      "hit": false,
      "t": 61084.20500000006,
      "d": 178.83997395833285,
      "v": 92
    },
    {
      "midi": 65,
      "hit": false,
      "t": 61445.65000000006,
      "d": 325.6770052083375,
      "v": 125
    },
    {
      "midi": 57,
      "hit": false,
      "t": 61445.65000000006,
      "d": 374.6226822916724,
      "v": 125
    },
    {
      "midi": 60,
      "hit": false,
      "t": 61445.65000000006,
      "d": 374.6226822916724,
      "v": 125
    },
    {
      "midi": 48,
      "hit": false,
      "t": 61807.09500000007,
      "d": 698.417161458332,
      "v": 125
    },
    {
      "midi": 36,
      "hit": false,
      "t": 61807.09500000007,
      "d": 822.6638802083326,
      "v": 118
    },
    {
      "midi": 65,
      "hit": false,
      "t": 62168.540000000066,
      "d": 163.7797656249968,
      "v": 72
    },
    {
      "midi": 60,
      "hit": false,
      "t": 62168.540000000066,
      "d": 171.30986979166482,
      "v": 79
    },
    {
      "midi": 57,
      "hit": false,
      "t": 62168.540000000066,
      "d": 178.83997395833285,
      "v": 72
    },
    {
      "midi": 65,
      "hit": false,
      "t": 62529.985000000066,
      "d": 148.71955729166802,
      "v": 125
    },
    {
      "midi": 60,
      "hit": false,
      "t": 62529.985000000066,
      "d": 152.48460937500204,
      "v": 125
    },
    {
      "midi": 57,
      "hit": false,
      "t": 62529.985000000066,
      "d": 175.07492187499884,
      "v": 125
    },
    {
      "midi": 48,
      "hit": false,
      "t": 62891.43000000006,
      "d": 1041.036901041669,
      "v": 127
    },
    {
      "midi": 67,
      "hit": false,
      "t": 63252.87500000006,
      "d": 227.78565104166773,
      "v": 75
    },
    {
      "midi": 60,
      "hit": false,
      "t": 63252.87500000006,
      "d": 235.31575520833576,
      "v": 73
    },
    {
      "midi": 64,
      "hit": false,
      "t": 63252.87500000006,
      "d": 235.31575520833576,
      "v": 80
    },
    {
      "midi": 67,
      "hit": false,
      "t": 63614.32000000006,
      "d": 314.38184895833547,
      "v": 86
    },
    {
      "midi": 60,
      "hit": false,
      "t": 63614.32000000006,
      "d": 344.5022656250003,
      "v": 84
    },
    {
      "midi": 64,
      "hit": false,
      "t": 63614.32000000006,
      "d": 367.0925781249971,
      "v": 97
    },
    {
      "midi": 47,
      "hit": false,
      "t": 63975.76500000006,
      "d": 472.5140364583349,
      "v": 126
    },
    {
      "midi": 67,
      "hit": false,
      "t": 64337.21000000006,
      "d": 310.61679687500146,
      "v": 85
    },
    {
      "midi": 62,
      "hit": false,
      "t": 64337.21000000006,
      "d": 374.6226822916651,
      "v": 107
    },
    {
      "midi": 59,
      "hit": false,
      "t": 64337.21000000006,
      "d": 389.68289062500116,
      "v": 88
    },
    {
      "midi": 47,
      "hit": false,
      "t": 64698.65500000006,
      "d": 303.08669270833343,
      "v": 110
    },
    {
      "midi": 45,
      "hit": false,
      "t": 65060.10000000006,
      "d": 502.6344531249997,
      "v": 123
    },
    {
      "midi": 65,
      "hit": false,
      "t": 65421.54500000006,
      "d": 393.44794270834245,
      "v": 85
    },
    {
      "midi": 57,
      "hit": false,
      "t": 65421.54500000006,
      "d": 408.5081510416785,
      "v": 74
    },
    {
      "midi": 60,
      "hit": false,
      "t": 65421.54500000006,
      "d": 427.3334114583413,
      "v": 84
    },
    {
      "midi": 45,
      "hit": false,
      "t": 65782.99000000006,
      "d": 272.9662760416686,
      "v": 90
    },
    {
      "midi": 43,
      "hit": false,
      "t": 66144.43500000007,
      "d": 867.8445052083407,
      "v": 123
    },
    {
      "midi": 60,
      "hit": false,
      "t": 66505.88000000008,
      "d": 224.02059895833372,
      "v": 85
    },
    {
      "midi": 64,
      "hit": false,
      "t": 66505.88000000008,
      "d": 224.02059895833372,
      "v": 80
    },
    {
      "midi": 64,
      "hit": false,
      "t": 66867.32500000008,
      "d": 175.07492187499884,
      "v": 103
    },
    {
      "midi": 60,
      "hit": false,
      "t": 66867.32500000008,
      "d": 182.60502604166686,
      "v": 112
    },
    {
      "midi": 53,
      "hit": false,
      "t": 67228.77000000009,
      "d": 946.9105989583477,
      "v": 94
    },
    {
      "midi": 57,
      "hit": false,
      "t": 67228.77000000009,
      "d": 950.6756510416744,
      "v": 115
    },
    {
      "midi": 41,
      "hit": false,
      "t": 67228.77000000009,
      "d": 961.9708072916692,
      "v": 92
    },
    {
      "midi": 65,
      "hit": false,
      "t": 67590.2150000001,
      "d": 208.96039062499767,
      "v": 91
    },
    {
      "midi": 60,
      "hit": false,
      "t": 67590.2150000001,
      "d": 224.02059895833372,
      "v": 81
    },
    {
      "midi": 65,
      "hit": false,
      "t": 67951.6600000001,
      "d": 276.73132812499534,
      "v": 107
    },
    {
      "midi": 60,
      "hit": false,
      "t": 67951.6600000001,
      "d": 284.26143229166337,
      "v": 95
    },
    {
      "midi": 55,
      "hit": false,
      "t": 68313.1050000001,
      "d": 449.92372395834536,
      "v": 112
    },
    {
      "midi": 40,
      "hit": false,
      "t": 68313.1050000001,
      "d": 596.76075520835,
      "v": 92
    },
    {
      "midi": 52,
      "hit": false,
      "t": 68313.1050000001,
      "d": 608.0559114583448,
      "v": 98
    },
    {
      "midi": 60,
      "hit": false,
      "t": 68674.5500000001,
      "d": 438.62856770833605,
      "v": 114
    },
    {
      "midi": 64,
      "hit": false,
      "t": 68674.5500000001,
      "d": 551.5801302083419,
      "v": 114
    },
    {
      "midi": 52,
      "hit": false,
      "t": 69035.99500000011,
      "d": 182.60502604166686,
      "v": 91
    },
    {
      "midi": 40,
      "hit": false,
      "t": 69035.99500000011,
      "d": 193.90018229166162,
      "v": 80
    },
    {
      "midi": 55,
      "hit": false,
      "t": 69035.99500000011,
      "d": 220.25554687499243,
      "v": 94
    },
    {
      "midi": 38,
      "hit": false,
      "t": 69397.4400000001,
      "d": 751.1278906250081,
      "v": 109
    },
    {
      "midi": 50,
      "hit": false,
      "t": 69397.4400000001,
      "d": 769.9531510416709,
      "v": 127
    },
    {
      "midi": 62,
      "hit": false,
      "t": 69758.88500000011,
      "d": 58.35830729166628,
      "v": 112
    },
    {
      "midi": 64,
      "hit": false,
      "t": 69758.88500000011,
      "d": 99.77388020833314,
      "v": 90
    },
    {
      "midi": 69,
      "hit": false,
      "t": 69758.88500000011,
      "d": 137.42440104167326,
      "v": 127
    },
    {
      "midi": 62,
      "hit": false,
      "t": 70120.33000000012,
      "d": 65.88841145831975,
      "v": 127
    },
    {
      "midi": 64,
      "hit": false,
      "t": 70120.33000000012,
      "d": 265.43617187498603,
      "v": 101
    },
    {
      "midi": 69,
      "hit": false,
      "t": 70120.33000000012,
      "d": 374.6226822916651,
      "v": 127
    },
    {
      "midi": 43,
      "hit": false,
      "t": 70481.77500000011,
      "d": 875.3746093750087,
      "v": 112
    },
    {
      "midi": 55,
      "hit": false,
      "t": 70481.77500000011,
      "d": 879.1396614583355,
      "v": 127
    },
    {
      "midi": 71,
      "hit": false,
      "t": 70681.32276041678,
      "d": 73.41851562500233,
      "v": 127
    },
    {
      "midi": 67,
      "hit": false,
      "t": 70843.22000000012,
      "d": 532.7548697916645,
      "v": 127
    },
    {
      "midi": 62,
      "hit": false,
      "t": 71204.66500000012,
      "d": 178.83997395832557,
      "v": 121
    },
    {
      "midi": 48,
      "hit": false,
      "t": 71566.11000000012,
      "d": 1041.0369010416616,
      "v": 127
    },
    {
      "midi": 67,
      "hit": false,
      "t": 71927.55500000012,
      "d": 227.78565104166046,
      "v": 75
    },
    {
      "midi": 60,
      "hit": false,
      "t": 71927.55500000012,
      "d": 235.31575520832848,
      "v": 73
    },
    {
      "midi": 64,
      "hit": false,
      "t": 71927.55500000012,
      "d": 235.31575520832848,
      "v": 80
    },
    {
      "midi": 67,
      "hit": false,
      "t": 72289.00000000012,
      "d": 314.38184895833547,
      "v": 86
    },
    {
      "midi": 60,
      "hit": false,
      "t": 72289.00000000012,
      "d": 344.502265624993,
      "v": 84
    },
    {
      "midi": 64,
      "hit": false,
      "t": 72289.00000000012,
      "d": 367.0925781249971,
      "v": 97
    },
    {
      "midi": 47,
      "hit": false,
      "t": 72650.44500000011,
      "d": 472.5140364583349,
      "v": 126
    },
    {
      "midi": 67,
      "hit": false,
      "t": 73011.89000000012,
      "d": 310.6167968749942,
      "v": 85
    },
    {
      "midi": 62,
      "hit": false,
      "t": 73011.89000000012,
      "d": 374.6226822916651,
      "v": 107
    },
    {
      "midi": 59,
      "hit": false,
      "t": 73011.89000000012,
      "d": 389.68289062500116,
      "v": 88
    },
    {
      "midi": 47,
      "hit": false,
      "t": 73373.33500000011,
      "d": 303.0866927083407,
      "v": 110
    },
    {
      "midi": 45,
      "hit": false,
      "t": 73734.78000000012,
      "d": 502.634453125007,
      "v": 123
    },
    {
      "midi": 65,
      "hit": false,
      "t": 74096.22500000012,
      "d": 393.44794270834245,
      "v": 85
    },
    {
      "midi": 57,
      "hit": false,
      "t": 74096.22500000012,
      "d": 408.5081510416785,
      "v": 74
    },
    {
      "midi": 60,
      "hit": false,
      "t": 74096.22500000012,
      "d": 427.3334114583413,
      "v": 84
    },
    {
      "midi": 45,
      "hit": false,
      "t": 74457.67000000013,
      "d": 272.9662760416686,
      "v": 90
    },
    {
      "midi": 43,
      "hit": false,
      "t": 74819.11500000014,
      "d": 867.8445052083407,
      "v": 123
    },
    {
      "midi": 60,
      "hit": false,
      "t": 75180.56000000014,
      "d": 224.02059895833372,
      "v": 85
    },
    {
      "midi": 64,
      "hit": false,
      "t": 75180.56000000014,
      "d": 224.02059895833372,
      "v": 80
    },
    {
      "midi": 64,
      "hit": false,
      "t": 75542.00500000015,
      "d": 175.07492187499884,
      "v": 103
    },
    {
      "midi": 60,
      "hit": false,
      "t": 75542.00500000015,
      "d": 182.60502604166686,
      "v": 112
    },
    {
      "midi": 53,
      "hit": false,
      "t": 75903.45000000016,
      "d": 931.8503906249971,
      "v": 125
    },
    {
      "midi": 41,
      "hit": false,
      "t": 75903.45000000016,
      "d": 958.2057552083279,
      "v": 119
    },
    {
      "midi": 60,
      "hit": false,
      "t": 76264.89500000016,
      "d": 224.02059895833372,
      "v": 90
    },
    {
      "midi": 65,
      "hit": false,
      "t": 76264.89500000016,
      "d": 239.08080729166977,
      "v": 81
    },
    {
      "midi": 57,
      "hit": false,
      "t": 76264.89500000016,
      "d": 250.37596354166453,
      "v": 85
    },
    {
      "midi": 60,
      "hit": false,
      "t": 76626.34000000016,
      "d": 306.85174479166744,
      "v": 110
    },
    {
      "midi": 65,
      "hit": false,
      "t": 76626.34000000016,
      "d": 310.6167968749942,
      "v": 101
    },
    {
      "midi": 57,
      "hit": false,
      "t": 76626.34000000016,
      "d": 321.91195312498894,
      "v": 91
    },
    {
      "midi": 43,
      "hit": false,
      "t": 76987.78500000015,
      "d": 521.4597135416698,
      "v": 122
    },
    {
      "midi": 60,
      "hit": false,
      "t": 77349.23000000016,
      "d": 574.1704427083314,
      "v": 97
    },
    {
      "midi": 53,
      "hit": false,
      "t": 77349.23000000016,
      "d": 589.2306510416674,
      "v": 85
    },
    {
      "midi": 57,
      "hit": false,
      "t": 77349.23000000016,
      "d": 592.9957031249942,
      "v": 94
    },
    {
      "midi": 65,
      "hit": false,
      "t": 77349.23000000016,
      "d": 596.7607552083209,
      "v": 105
    },
    {
      "midi": 43,
      "hit": false,
      "t": 77710.67500000015,
      "d": 291.7915364583314,
      "v": 84
    },
    {
      "midi": 36,
      "hit": false,
      "t": 78072.12000000014,
      "d": 833.9590364583273,
      "v": 127
    },
    {
      "midi": 48,
      "hit": false,
      "t": 78072.12000000014,
      "d": 845.2541927083221,
      "v": 127
    },
    {
      "midi": 60,
      "hit": false,
      "t": 78433.56500000015,
      "d": 88.47872395833838,
      "v": 81
    },
    {
      "midi": 55,
      "hit": false,
      "t": 78433.56500000015,
      "d": 92.24377604166511,
      "v": 71
    },
    {
      "midi": 64,
      "hit": false,
      "t": 78433.56500000015,
      "d": 96.00882812499185,
      "v": 94
    },
    {
      "midi": 64,
      "hit": false,
      "t": 78795.01000000014,
      "d": 272.96627604165406,
      "v": 127
    },
    {
      "midi": 60,
      "hit": false,
      "t": 78795.01000000014,
      "d": 306.8517447916529,
      "v": 127
    },
    {
      "midi": 55,
      "hit": false,
      "t": 78795.01000000014,
      "d": 329.44205729165697,
      "v": 127
    },
    {
      "midi": 36,
      "hit": false,
      "t": 79156.45500000013,
      "d": 532.7548697916791,
      "v": 120
    },
    {
      "midi": 48,
      "hit": false,
      "t": 79156.45500000013,
      "d": 585.4655989583407,
      "v": 127
    },
    {
      "midi": 64,
      "hit": false,
      "t": 79517.90000000014,
      "d": 163.77976562500407,
      "v": 127
    },
    {
      "midi": 60,
      "hit": false,
      "t": 79517.90000000014,
      "d": 197.6652343750029,
      "v": 120
    },
    {
      "midi": 67,
      "hit": false,
      "t": 79517.90000000014,
      "d": 220.25554687500698,
      "v": 120
    },
    {
      "midi": 55,
      "hit": false,
      "t": 79517.90000000014,
      "d": 224.02059895833372,
      "v": 100
    },
    {
      "midi": 62,
      "hit": false,
      "t": 79879.34500000015,
      "d": 220.25554687500698,
      "v": 120
    },
    {
      "midi": 67,
      "hit": false,
      "t": 79879.34500000015,
      "d": 220.25554687500698,
      "v": 120
    },
    {
      "midi": 55,
      "hit": false,
      "t": 79879.34500000015,
      "d": 227.785651041675,
      "v": 92
    },
    {
      "midi": 59,
      "hit": false,
      "t": 79879.34500000015,
      "d": 242.84585937501106,
      "v": 120
    },
    {
      "midi": 47,
      "hit": false,
      "t": 79879.34500000015,
      "d": 257.9060677083471,
      "v": 120
    },
    {
      "midi": 45,
      "hit": false,
      "t": 80240.79000000015,
      "d": 871.6095572916674,
      "v": 122
    },
    {
      "midi": 60,
      "hit": false,
      "t": 80602.23500000016,
      "d": 175.07492187499884,
      "v": 98
    },
    {
      "midi": 64,
      "hit": false,
      "t": 80602.23500000016,
      "d": 175.07492187499884,
      "v": 115
    },
    {
      "midi": 57,
      "hit": false,
      "t": 80602.23500000016,
      "d": 186.3700781249936,
      "v": 89
    },
    {
      "midi": 64,
      "hit": false,
      "t": 80963.68000000015,
      "d": 318.1469010416622,
      "v": 122
    },
    {
      "midi": 60,
      "hit": false,
      "t": 80963.68000000015,
      "d": 340.7372135416663,
      "v": 122
    },
    {
      "midi": 57,
      "hit": false,
      "t": 80963.68000000015,
      "d": 348.2673177083343,
      "v": 98
    },
    {
      "midi": 43,
      "hit": false,
      "t": 81325.12500000016,
      "d": 890.4348177083302,
      "v": 122
    },
    {
      "midi": 57,
      "hit": false,
      "t": 81686.57000000017,
      "d": 175.07492187499884,
      "v": 87
    },
    {
      "midi": 64,
      "hit": false,
      "t": 81686.57000000017,
      "d": 175.07492187499884,
      "v": 95
    },
    {
      "midi": 60,
      "hit": false,
      "t": 81686.57000000017,
      "d": 178.83997395832557,
      "v": 95
    },
    {
      "midi": 64,
      "hit": false,
      "t": 82048.01500000016,
      "d": 239.08080729166977,
      "v": 122
    },
    {
      "midi": 60,
      "hit": false,
      "t": 82048.01500000016,
      "d": 257.90606770833256,
      "v": 122
    },
    {
      "midi": 57,
      "hit": false,
      "t": 82048.01500000016,
      "d": 276.73132812499534,
      "v": 115
    },
    {
      "midi": 42,
      "hit": false,
      "t": 82409.46000000017,
      "d": 916.7901822916901,
      "v": 122
    },
    {
      "midi": 66,
      "hit": false,
      "t": 82770.90500000017,
      "d": 167.54481770834536,
      "v": 101
    },
    {
      "midi": 62,
      "hit": false,
      "t": 82770.90500000017,
      "d": 175.0749218750134,
      "v": 95
    },
    {
      "midi": 57,
      "hit": false,
      "t": 82770.90500000017,
      "d": 178.83997395834012,
      "v": 87
    },
    {
      "midi": 66,
      "hit": false,
      "t": 83132.35000000018,
      "d": 96.0088281250064,
      "v": 122
    },
    {
      "midi": 62,
      "hit": false,
      "t": 83132.35000000018,
      "d": 111.06903645834245,
      "v": 115
    },
    {
      "midi": 57,
      "hit": false,
      "t": 83132.35000000018,
      "d": 126.1292447916785,
      "v": 87
    },
    {
      "midi": 41,
      "hit": false,
      "t": 83493.79500000019,
      "d": 325.67700520833023,
      "v": 122
    },
    {
      "midi": 60,
      "hit": false,
      "t": 83493.79500000019,
      "d": 1052.332057291671,
      "v": 122
    },
    {
      "midi": 64,
      "hit": false,
      "t": 83493.79500000019,
      "d": 1052.332057291671,
      "v": 122
    },
    {
      "midi": 57,
      "hit": false,
      "t": 83493.79500000019,
      "d": 1059.862161458339,
      "v": 107
    },
    {
      "midi": 48,
      "hit": false,
      "t": 83855.24000000018,
      "d": 344.50226562500757,
      "v": 122
    },
    {
      "midi": 47,
      "hit": false,
      "t": 84216.68500000019,
      "d": 257.90606770833256,
      "v": 122
    },
    {
      "midi": 45,
      "hit": false,
      "t": 84578.1300000002,
      "d": 950.6756510416599,
      "v": 122
    },
    {
      "midi": 57,
      "hit": false,
      "t": 84939.5750000002,
      "d": 201.43028645832965,
      "v": 95
    },
    {
      "midi": 60,
      "hit": false,
      "t": 84939.5750000002,
      "d": 205.19533854165638,
      "v": 115
    },
    {
      "midi": 64,
      "hit": false,
      "t": 84939.5750000002,
      "d": 212.7254427083244,
      "v": 122
    },
    {
      "midi": 64,
      "hit": false,
      "t": 85301.0200000002,
      "d": 370.8576302083238,
      "v": 122
    },
    {
      "midi": 60,
      "hit": false,
      "t": 85301.0200000002,
      "d": 374.62268229165056,
      "v": 122
    },
    {
      "midi": 57,
      "hit": false,
      "t": 85301.0200000002,
      "d": 385.9178385416453,
      "v": 115
    },
    {
      "midi": 43,
      "hit": false,
      "t": 85662.46500000019,
      "d": 954.4407031250012,
      "v": 122
    },
    {
      "midi": 60,
      "hit": false,
      "t": 86023.91000000018,
      "d": 205.19533854167094,
      "v": 115
    },
    {
      "midi": 57,
      "hit": false,
      "t": 86023.91000000018,
      "d": 220.25554687500698,
      "v": 98
    },
    {
      "midi": 64,
      "hit": false,
      "t": 86023.91000000018,
      "d": 227.785651041675,
      "v": 115
    },
    {
      "midi": 60,
      "hit": false,
      "t": 86385.35500000019,
      "d": 306.85174479166744,
      "v": 115
    },
    {
      "midi": 64,
      "hit": false,
      "t": 86385.35500000019,
      "d": 314.38184895833547,
      "v": 122
    },
    {
      "midi": 57,
      "hit": false,
      "t": 86385.35500000019,
      "d": 333.20710937499825,
      "v": 98
    },
    {
      "midi": 42,
      "hit": false,
      "t": 86746.80000000018,
      "d": 849.0192447916634,
      "v": 122
    },
    {
      "midi": 54,
      "hit": false,
      "t": 87108.24500000017,
      "d": 114.83408854166919,
      "v": 95
    },
    {
      "midi": 57,
      "hit": false,
      "t": 87108.24500000017,
      "d": 114.83408854166919,
      "v": 92
    },
    {
      "midi": 62,
      "hit": false,
      "t": 87108.24500000017,
      "d": 114.83408854166919,
      "v": 89
    },
    {
      "midi": 57,
      "hit": false,
      "t": 87469.69000000018,
      "d": 84.71367187499709,
      "v": 95
    },
    {
      "midi": 54,
      "hit": false,
      "t": 87469.69000000018,
      "d": 92.24377604166511,
      "v": 122
    },
    {
      "midi": 62,
      "hit": false,
      "t": 87469.69000000018,
      "d": 111.0690364583279,
      "v": 92
    },
    {
      "midi": 54,
      "hit": false,
      "t": 87831.13500000018,
      "d": 227.785651041675,
      "v": 122
    },
    {
      "midi": 62,
      "hit": false,
      "t": 87831.13500000018,
      "d": 242.84585937501106,
      "v": 122
    },
    {
      "midi": 57,
      "hit": false,
      "t": 87831.13500000018,
      "d": 269.20122395834187,
      "v": 122
    },
    {
      "midi": 42,
      "hit": false,
      "t": 87831.13500000018,
      "d": 284.2614322916779,
      "v": 122
    },
    {
      "midi": 52,
      "hit": false,
      "t": 88192.58000000019,
      "d": 92.24377604166511,
      "v": 122
    },
    {
      "midi": 62,
      "hit": false,
      "t": 88192.58000000019,
      "d": 224.02059895833372,
      "v": 122
    },
    {
      "midi": 55,
      "hit": false,
      "t": 88192.58000000019,
      "d": 239.08080729166977,
      "v": 122
    },
    {
      "midi": 40,
      "hit": false,
      "t": 88192.58000000019,
      "d": 265.4361718750006,
      "v": 122
    },
    {
      "midi": 42,
      "hit": false,
      "t": 88554.0250000002,
      "d": 220.25554687499243,
      "v": 122
    },
    {
      "midi": 54,
      "hit": false,
      "t": 88554.0250000002,
      "d": 257.90606770833256,
      "v": 107
    },
    {
      "midi": 57,
      "hit": false,
      "t": 88554.0250000002,
      "d": 288.02648437500466,
      "v": 98
    },
    {
      "midi": 62,
      "hit": false,
      "t": 88554.0250000002,
      "d": 325.6770052083448,
      "v": 95
    },
    {
      "midi": 43,
      "hit": false,
      "t": 88915.4700000002,
      "d": 894.1998697916715,
      "v": 122
    },
    {
      "midi": 55,
      "hit": false,
      "t": 89276.91500000021,
      "d": 144.95450520832674,
      "v": 89
    },
    {
      "midi": 62,
      "hit": false,
      "t": 89276.91500000021,
      "d": 148.71955729165347,
      "v": 107
    },
    {
      "midi": 59,
      "hit": false,
      "t": 89276.91500000021,
      "d": 156.2496614583215,
      "v": 95
    },
    {
      "midi": 62,
      "hit": false,
      "t": 89638.3600000002,
      "d": 329.4420572916715,
      "v": 122
    },
    {
      "midi": 59,
      "hit": false,
      "t": 89638.3600000002,
      "d": 336.97216145833954,
      "v": 122
    },
    {
      "midi": 55,
      "hit": false,
      "t": 89638.3600000002,
      "d": 340.7372135416663,
      "v": 115
    },
    {
      "midi": 41,
      "hit": false,
      "t": 89999.8050000002,
      "d": 886.6697656250035,
      "v": 122
    },
    {
      "midi": 62,
      "hit": false,
      "t": 90361.2500000002,
      "d": 114.83408854166919,
      "v": 122
    },
    {
      "midi": 55,
      "hit": false,
      "t": 90361.2500000002,
      "d": 148.71955729166802,
      "v": 115
    },
    {
      "midi": 59,
      "hit": false,
      "t": 90361.2500000002,
      "d": 167.5448177083308,
      "v": 122
    },
    {
      "midi": 62,
      "hit": false,
      "t": 90722.6950000002,
      "d": 239.08080729166977,
      "v": 122
    },
    {
      "midi": 59,
      "hit": false,
      "t": 90722.6950000002,
      "d": 269.20122395834187,
      "v": 122
    },
    {
      "midi": 55,
      "hit": false,
      "t": 90722.6950000002,
      "d": 272.9662760416686,
      "v": 122
    },
    {
      "midi": 40,
      "hit": false,
      "t": 91084.1400000002,
      "d": 871.6095572916529,
      "v": 122
    },
    {
      "midi": 64,
      "hit": false,
      "t": 91445.5850000002,
      "d": 152.48460937499476,
      "v": 122
    },
    {
      "midi": 60,
      "hit": false,
      "t": 91445.5850000002,
      "d": 163.77976562498952,
      "v": 122
    },
    {
      "midi": 55,
      "hit": false,
      "t": 91445.5850000002,
      "d": 171.30986979165755,
      "v": 107
    },
    {
      "midi": 60,
      "hit": false,
      "t": 91807.03000000019,
      "d": 265.4361718750006,
      "v": 122
    },
    {
      "midi": 64,
      "hit": false,
      "t": 91807.03000000019,
      "d": 288.02648437500466,
      "v": 122
    },
    {
      "midi": 55,
      "hit": false,
      "t": 91807.03000000019,
      "d": 306.851744791682,
      "v": 122
    },
    {
      "midi": 50,
      "hit": false,
      "t": 92168.47500000021,
      "d": 977.0310156249761,
      "v": 122
    },
    {
      "midi": 38,
      "hit": false,
      "t": 92168.47500000021,
      "d": 988.3261718749709,
      "v": 122
    },
    {
      "midi": 67,
      "hit": false,
      "t": 92529.92000000022,
      "d": 137.42440104167326,
      "v": 115
    },
    {
      "midi": 62,
      "hit": false,
      "t": 92529.92000000022,
      "d": 148.71955729166802,
      "v": 95
    },
    {
      "midi": 55,
      "hit": false,
      "t": 92529.92000000022,
      "d": 167.5448177083308,
      "v": 107
    },
    {
      "midi": 59,
      "hit": false,
      "t": 92529.92000000022,
      "d": 178.83997395832557,
      "v": 107
    },
    {
      "midi": 62,
      "hit": false,
      "t": 92891.36500000021,
      "d": 208.96039062499767,
      "v": 122
    },
    {
      "midi": 55,
      "hit": false,
      "t": 92891.36500000021,
      "d": 212.7254427083244,
      "v": 122
    },
    {
      "midi": 67,
      "hit": false,
      "t": 92891.36500000021,
      "d": 216.49049479165114,
      "v": 122
    },
    {
      "midi": 59,
      "hit": false,
      "t": 92891.36500000021,
      "d": 220.25554687497788,
      "v": 122
    },
    {
      "midi": 72,
      "hit": false,
      "t": 93252.81,
      "d": 1112.5728906250006,
      "v": 1
    },
    {
      "midi": 48,
      "hit": false,
      "t": 93252.81000000019,
      "d": 1041.0369010416616,
      "v": 116
    },
    {
      "midi": 67,
      "hit": false,
      "t": 93614.2550000002,
      "d": 227.78565104166046,
      "v": 62
    },
    {
      "midi": 60,
      "hit": false,
      "t": 93614.2550000002,
      "d": 235.31575520832848,
      "v": 60
    },
    {
      "midi": 64,
      "hit": false,
      "t": 93614.2550000002,
      "d": 235.31575520832848,
      "v": 67
    },
    {
      "midi": 67,
      "hit": false,
      "t": 93975.70000000019,
      "d": 314.38184895833547,
      "v": 73
    },
    {
      "midi": 60,
      "hit": false,
      "t": 93975.70000000019,
      "d": 344.502265624993,
      "v": 71
    },
    {
      "midi": 64,
      "hit": false,
      "t": 93975.70000000019,
      "d": 367.0925781249971,
      "v": 84
    },
    {
      "midi": 71,
      "hit": false,
      "t": 94337.145,
      "d": 1080.5699479166651,
      "v": 1
    },
    {
      "midi": 47,
      "hit": false,
      "t": 94337.14500000018,
      "d": 472.5140364583349,
      "v": 113
    },
    {
      "midi": 67,
      "hit": false,
      "t": 94698.59000000019,
      "d": 310.6167968749942,
      "v": 72
    },
    {
      "midi": 62,
      "hit": false,
      "t": 94698.59000000019,
      "d": 374.6226822916651,
      "v": 94
    },
    {
      "midi": 59,
      "hit": false,
      "t": 94698.59000000019,
      "d": 389.68289062500116,
      "v": 75
    },
    {
      "midi": 47,
      "hit": false,
      "t": 95060.03500000018,
      "d": 303.0866927083407,
      "v": 97
    },
    {
      "midi": 69,
      "hit": false,
      "t": 95421.48,
      "d": 1080.5699479166651,
      "v": 1
    },
    {
      "midi": 45,
      "hit": false,
      "t": 95421.48000000019,
      "d": 502.634453125007,
      "v": 110
    },
    {
      "midi": 65,
      "hit": false,
      "t": 95782.92500000019,
      "d": 393.44794270834245,
      "v": 72
    },
    {
      "midi": 57,
      "hit": false,
      "t": 95782.92500000019,
      "d": 408.5081510416785,
      "v": 61
    },
    {
      "midi": 60,
      "hit": false,
      "t": 95782.92500000019,
      "d": 427.3334114583413,
      "v": 71
    },
    {
      "midi": 45,
      "hit": false,
      "t": 96144.3700000002,
      "d": 272.9662760416686,
      "v": 77
    },
    {
      "midi": 67,
      "hit": false,
      "t": 96505.81499999999,
      "d": 1080.5699479166651,
      "v": 1
    },
    {
      "midi": 43,
      "hit": false,
      "t": 96505.8150000002,
      "d": 867.8445052083407,
      "v": 110
    },
    {
      "midi": 60,
      "hit": false,
      "t": 96867.26000000021,
      "d": 261.67111979167385,
      "v": 72
    },
    {
      "midi": 64,
      "hit": false,
      "t": 96867.26000000021,
      "d": 261.67111979167385,
      "v": 67
    },
    {
      "midi": 64,
      "hit": false,
      "t": 97228.70500000022,
      "d": 175.07492187499884,
      "v": 90
    },
    {
      "midi": 60,
      "hit": false,
      "t": 97228.70500000022,
      "d": 182.60502604166686,
      "v": 99
    },
    {
      "midi": 65,
      "hit": false,
      "t": 97590.14999999998,
      "d": 1080.5699479166651,
      "v": 1
    },
    {
      "midi": 53,
      "hit": false,
      "t": 97590.15000000023,
      "d": 946.9105989583477,
      "v": 81
    },
    {
      "midi": 57,
      "hit": false,
      "t": 97590.15000000023,
      "d": 950.6756510416744,
      "v": 102
    },
    {
      "midi": 41,
      "hit": false,
      "t": 97590.15000000023,
      "d": 961.9708072916692,
      "v": 79
    },
    {
      "midi": 64,
      "hit": false,
      "t": 97951.59500000023,
      "d": 208.96039062499767,
      "v": 78
    },
    {
      "midi": 60,
      "hit": false,
      "t": 97951.59500000023,
      "d": 224.02059895833372,
      "v": 68
    },
    {
      "midi": 64,
      "hit": false,
      "t": 98313.04000000024,
      "d": 276.73132812499534,
      "v": 94
    },
    {
      "midi": 60,
      "hit": false,
      "t": 98313.04000000024,
      "d": 284.26143229166337,
      "v": 82
    },
    {
      "midi": 64,
      "hit": false,
      "t": 98674.48499999997,
      "d": 1080.5699479166651,
      "v": 1
    },
    {
      "midi": 55,
      "hit": false,
      "t": 98674.48500000023,
      "d": 449.92372395834536,
      "v": 99
    },
    {
      "midi": 40,
      "hit": false,
      "t": 98674.48500000023,
      "d": 596.76075520835,
      "v": 79
    },
    {
      "midi": 52,
      "hit": false,
      "t": 98674.48500000023,
      "d": 608.0559114583448,
      "v": 85
    },
    {
      "midi": 60,
      "hit": false,
      "t": 99035.93000000024,
      "d": 438.62856770833605,
      "v": 101
    },
    {
      "midi": 64,
      "hit": false,
      "t": 99035.93000000024,
      "d": 551.5801302083419,
      "v": 101
    },
    {
      "midi": 52,
      "hit": false,
      "t": 99397.37500000025,
      "d": 182.60502604166686,
      "v": 78
    },
    {
      "midi": 40,
      "hit": false,
      "t": 99397.37500000025,
      "d": 193.90018229166162,
      "v": 67
    },
    {
      "midi": 55,
      "hit": false,
      "t": 99397.37500000025,
      "d": 220.25554687499243,
      "v": 81
    },
    {
      "midi": 38,
      "hit": false,
      "t": 99743.7597916669,
      "d": 751.127890624979,
      "v": 96
    },
    {
      "midi": 50,
      "hit": false,
      "t": 99743.7597916669,
      "d": 769.9531510416418,
      "v": 123
    },
    {
      "midi": 62,
      "hit": false,
      "t": 99758.81999999996,
      "d": 1080.5699479166651,
      "v": 1
    },
    {
      "midi": 62,
      "hit": false,
      "t": 100112.73489583356,
      "d": 58.35830729166628,
      "v": 99
    },
    {
      "midi": 69,
      "hit": false,
      "t": 100116.49994791689,
      "d": 137.4244010416587,
      "v": 116
    },
    {
      "midi": 64,
      "hit": false,
      "t": 100191.80098958356,
      "d": 99.77388020833314,
      "v": 77
    },
    {
      "midi": 62,
      "hit": false,
      "t": 100451.58958333355,
      "d": 65.88841145831975,
      "v": 123
    },
    {
      "midi": 69,
      "hit": false,
      "t": 100451.58958333355,
      "d": 374.62268229165056,
      "v": 123
    },
    {
      "midi": 64,
      "hit": false,
      "t": 100538.1857812502,
      "d": 265.4361718750006,
      "v": 88
    },
    {
      "midi": 43,
      "hit": false,
      "t": 100835.62489583353,
      "d": 875.3746093749796,
      "v": 99
    },
    {
      "midi": 55,
      "hit": false,
      "t": 100839.38994791686,
      "d": 879.1396614583064,
      "v": 123
    },
    {
      "midi": 67,
      "hit": false,
      "t": 100843.15499999996,
      "d": 1086.2175260416698,
      "v": 1
    },
    {
      "midi": 71,
      "hit": false,
      "t": 101080.3532812502,
      "d": 73.41851562500233,
      "v": 116
    },
    {
      "midi": 67,
      "hit": false,
      "t": 101182.00968750019,
      "d": 532.75486979165,
      "v": 116
    },
    {
      "midi": 71,
      "hit": false,
      "t": 101208.36505208352,
      "d": 506.39950520831917,
      "v": 51
    },
    {
      "midi": 62,
      "hit": false,
      "t": 101543.45468750018,
      "d": 178.83997395831102,
      "v": 108
    },
    {
      "midi": 72,
      "hit": false,
      "t": 101927.48999999996,
      "d": 1080.5699479166651,
      "v": 1
    },
    {
      "midi": 48,
      "hit": false,
      "t": 101927.49000000017,
      "d": 1041.0369010416616,
      "v": 116
    },
    {
      "midi": 67,
      "hit": false,
      "t": 102288.93500000017,
      "d": 227.78565104166046,
      "v": 62
    },
    {
      "midi": 60,
      "hit": false,
      "t": 102288.93500000017,
      "d": 235.31575520832848,
      "v": 60
    },
    {
      "midi": 64,
      "hit": false,
      "t": 102288.93500000017,
      "d": 235.31575520832848,
      "v": 67
    },
    {
      "midi": 67,
      "hit": false,
      "t": 102650.38000000016,
      "d": 314.38184895833547,
      "v": 73
    },
    {
      "midi": 60,
      "hit": false,
      "t": 102650.38000000016,
      "d": 344.502265624993,
      "v": 71
    },
    {
      "midi": 64,
      "hit": false,
      "t": 102650.38000000016,
      "d": 367.0925781249971,
      "v": 84
    },
    {
      "midi": 71,
      "hit": false,
      "t": 103011.82499999995,
      "d": 1101.2777343750058,
      "v": 1
    },
    {
      "midi": 47,
      "hit": false,
      "t": 103011.82500000016,
      "d": 472.5140364583349,
      "v": 113
    },
    {
      "midi": 67,
      "hit": false,
      "t": 103373.27000000016,
      "d": 310.6167968749942,
      "v": 72
    },
    {
      "midi": 62,
      "hit": false,
      "t": 103373.27000000016,
      "d": 374.6226822916651,
      "v": 94
    },
    {
      "midi": 59,
      "hit": false,
      "t": 103373.27000000016,
      "d": 389.68289062500116,
      "v": 75
    },
    {
      "midi": 47,
      "hit": false,
      "t": 103734.71500000016,
      "d": 303.0866927083407,
      "v": 97
    },
    {
      "midi": 69,
      "hit": false,
      "t": 104096.15999999996,
      "d": 1086.2175260416698,
      "v": 1
    },
    {
      "midi": 45,
      "hit": false,
      "t": 104096.16000000016,
      "d": 502.634453125007,
      "v": 110
    },
    {
      "midi": 65,
      "hit": false,
      "t": 104457.60500000017,
      "d": 393.44794270834245,
      "v": 72
    },
    {
      "midi": 57,
      "hit": false,
      "t": 104457.60500000017,
      "d": 408.5081510416785,
      "v": 61
    },
    {
      "midi": 60,
      "hit": false,
      "t": 104457.60500000017,
      "d": 427.3334114583413,
      "v": 71
    },
    {
      "midi": 45,
      "hit": false,
      "t": 104819.05000000018,
      "d": 272.9662760416686,
      "v": 77
    },
    {
      "midi": 67,
      "hit": false,
      "t": 105180.49499999997,
      "d": 1080.5699479166651,
      "v": 1
    },
    {
      "midi": 43,
      "hit": false,
      "t": 105180.49500000018,
      "d": 867.8445052083407,
      "v": 110
    },
    {
      "midi": 60,
      "hit": false,
      "t": 105541.94000000019,
      "d": 261.67111979167385,
      "v": 72
    },
    {
      "midi": 64,
      "hit": false,
      "t": 105541.94000000019,
      "d": 261.67111979167385,
      "v": 67
    },
    {
      "midi": 64,
      "hit": false,
      "t": 105903.3850000002,
      "d": 175.07492187499884,
      "v": 90
    },
    {
      "midi": 60,
      "hit": false,
      "t": 105903.3850000002,
      "d": 182.60502604166686,
      "v": 99
    },
    {
      "midi": 65,
      "hit": false,
      "t": 106264.82999999996,
      "d": 1080.5699479166651,
      "v": 1
    },
    {
      "midi": 53,
      "hit": false,
      "t": 106264.8300000002,
      "d": 931.8503906249971,
      "v": 112
    },
    {
      "midi": 41,
      "hit": false,
      "t": 106264.8300000002,
      "d": 958.2057552083279,
      "v": 106
    },
    {
      "midi": 60,
      "hit": false,
      "t": 106626.27500000021,
      "d": 224.02059895833372,
      "v": 77
    },
    {
      "midi": 65,
      "hit": false,
      "t": 106626.27500000021,
      "d": 239.08080729166977,
      "v": 68
    },
    {
      "midi": 57,
      "hit": false,
      "t": 106626.27500000021,
      "d": 250.37596354166453,
      "v": 72
    },
    {
      "midi": 60,
      "hit": false,
      "t": 106987.7200000002,
      "d": 306.85174479166744,
      "v": 97
    },
    {
      "midi": 65,
      "hit": false,
      "t": 106987.7200000002,
      "d": 310.6167968749942,
      "v": 88
    },
    {
      "midi": 57,
      "hit": false,
      "t": 106987.7200000002,
      "d": 321.91195312498894,
      "v": 78
    },
    {
      "midi": 67,
      "hit": false,
      "t": 107349.16499999995,
      "d": 1080.5699479166651,
      "v": 1
    },
    {
      "midi": 43,
      "hit": false,
      "t": 107349.1650000002,
      "d": 521.4597135416698,
      "v": 109
    },
    {
      "midi": 60,
      "hit": false,
      "t": 107710.6100000002,
      "d": 574.1704427083314,
      "v": 84
    },
    {
      "midi": 53,
      "hit": false,
      "t": 107710.6100000002,
      "d": 589.2306510416674,
      "v": 72
    },
    {
      "midi": 57,
      "hit": false,
      "t": 107710.6100000002,
      "d": 592.9957031249942,
      "v": 81
    },
    {
      "midi": 65,
      "hit": false,
      "t": 107710.6100000002,
      "d": 596.7607552083209,
      "v": 92
    },
    {
      "midi": 43,
      "hit": false,
      "t": 108072.0550000002,
      "d": 291.7915364583314,
      "v": 71
    },
    {
      "midi": 60,
      "hit": false,
      "t": 108433.49999999994,
      "d": 3188.9991145833337,
      "v": 1
    },
    {
      "midi": 36,
      "hit": false,
      "t": 108433.50000000019,
      "d": 833.9590364583128,
      "v": 120
    },
    {
      "midi": 48,
      "hit": false,
      "t": 108433.50000000019,
      "d": 845.2541927083075,
      "v": 127
    },
    {
      "midi": 60,
      "hit": false,
      "t": 108794.94500000018,
      "d": 88.47872395833838,
      "v": 68
    },
    {
      "midi": 55,
      "hit": false,
      "t": 108794.94500000018,
      "d": 92.24377604166511,
      "v": 58
    },
    {
      "midi": 64,
      "hit": false,
      "t": 108794.94500000018,
      "d": 96.00882812499185,
      "v": 81
    },
    {
      "midi": 64,
      "hit": false,
      "t": 109156.39000000017,
      "d": 272.96627604165406,
      "v": 127
    },
    {
      "midi": 60,
      "hit": false,
      "t": 109156.39000000017,
      "d": 306.8517447916529,
      "v": 127
    },
    {
      "midi": 55,
      "hit": false,
      "t": 109156.39000000017,
      "d": 329.44205729165697,
      "v": 120
    },
    {
      "midi": 48,
      "hit": false,
      "t": 109517.83500000017,
      "d": 879.13966145835,
      "v": 127
    },
    {
      "midi": 36,
      "hit": false,
      "t": 109517.83500000017,
      "d": 894.1998697916861,
      "v": 127
    },
    {
      "midi": 64,
      "hit": false,
      "t": 109879.28000000017,
      "d": 99.77388020833314,
      "v": 90
    },
    {
      "midi": 67,
      "hit": false,
      "t": 109879.28000000017,
      "d": 99.77388020833314,
      "v": 87
    },
    {
      "midi": 55,
      "hit": false,
      "t": 109879.28000000017,
      "d": 107.30398437500116,
      "v": 85
    },
    {
      "midi": 60,
      "hit": false,
      "t": 109879.28000000017,
      "d": 114.83408854166919,
      "v": 87
    },
    {
      "midi": 55,
      "hit": false,
      "t": 110240.72500000018,
      "d": 114.83408854166919,
      "v": 127
    },
    {
      "midi": 64,
      "hit": false,
      "t": 110240.72500000018,
      "d": 114.83408854166919,
      "v": 127
    },
    {
      "midi": 60,
      "hit": false,
      "t": 110240.72500000018,
      "d": 133.65934895833198,
      "v": 127
    },
    {
      "midi": 67,
      "hit": false,
      "t": 110240.72500000018,
      "d": 133.65934895833198,
      "v": 127
    },
    {
      "midi": 36,
      "hit": false,
      "t": 110602.17000000019,
      "d": 687.1220052083081,
      "v": 118
    },
    {
      "midi": 48,
      "hit": false,
      "t": 110602.17000000019,
      "d": 818.8988281249767,
      "v": 125
    },
    {
      "midi": 67,
      "hit": false,
      "t": 110963.61500000018,
      "d": 58.35830729166628,
      "v": 44
    },
    {
      "midi": 60,
      "hit": false,
      "t": 110963.61500000018,
      "d": 69.65346354166104,
      "v": 58
    },
    {
      "midi": 64,
      "hit": false,
      "t": 110963.61500000018,
      "d": 73.41851562498778,
      "v": 66
    },
    {
      "midi": 55,
      "hit": false,
      "t": 110963.61500000018,
      "d": 84.71367187498254,
      "v": 58
    },
    {
      "midi": 55,
      "hit": false,
      "t": 111325.06000000016,
      "d": 239.08080729166977,
      "v": 118
    },
    {
      "midi": 67,
      "hit": false,
      "t": 111325.06000000016,
      "d": 257.90606770833256,
      "v": 110
    },
    {
      "midi": 60,
      "hit": false,
      "t": 111325.06000000016,
      "d": 272.9662760416686,
      "v": 125
    },
    {
      "midi": 64,
      "hit": false,
      "t": 111325.06000000016,
      "d": 306.85174479166744,
      "v": 125
    },
    {
      "midi": 47,
      "hit": false,
      "t": 111686.50500000016,
      "d": 468.74898437500815,
      "v": 125
    },
    {
      "midi": 62,
      "hit": false,
      "t": 112047.95000000017,
      "d": 400.9780468750105,
      "v": 118
    },
    {
      "midi": 67,
      "hit": false,
      "t": 112047.95000000017,
      "d": 408.5081510416785,
      "v": 98
    },
    {
      "midi": 59,
      "hit": false,
      "t": 112047.95000000017,
      "d": 446.1586718750186,
      "v": 101
    },
    {
      "midi": 47,
      "hit": false,
      "t": 112409.39500000018,
      "d": 201.4302864583442,
      "v": 125
    },
    {
      "midi": 45,
      "hit": false,
      "t": 112770.84000000019,
      "d": 818.8988281250204,
      "v": 125
    },
    {
      "midi": 57,
      "hit": false,
      "t": 113132.28500000019,
      "d": 122.36419270833721,
      "v": 79
    },
    {
      "midi": 60,
      "hit": false,
      "t": 113132.28500000019,
      "d": 129.89429687500524,
      "v": 81
    },
    {
      "midi": 65,
      "hit": false,
      "t": 113132.28500000019,
      "d": 129.89429687500524,
      "v": 79
    },
    {
      "midi": 60,
      "hit": false,
      "t": 113493.7300000002,
      "d": 284.2614322916779,
      "v": 125
    },
    {
      "midi": 57,
      "hit": false,
      "t": 113493.7300000002,
      "d": 295.5565885416727,
      "v": 118
    },
    {
      "midi": 65,
      "hit": false,
      "t": 113493.7300000002,
      "d": 306.85174479166744,
      "v": 125
    },
    {
      "midi": 43,
      "hit": false,
      "t": 113855.1750000002,
      "d": 826.4289322916593,
      "v": 125
    },
    {
      "midi": 55,
      "hit": false,
      "t": 114216.62000000021,
      "d": 122.36419270833721,
      "v": 81
    },
    {
      "midi": 60,
      "hit": false,
      "t": 114216.62000000021,
      "d": 126.12924479166395,
      "v": 81
    },
    {
      "midi": 64,
      "hit": false,
      "t": 114216.62000000021,
      "d": 144.95450520832674,
      "v": 88
    },
    {
      "midi": 60,
      "hit": false,
      "t": 114578.0650000002,
      "d": 220.25554687499243,
      "v": 125
    },
    {
      "midi": 64,
      "hit": false,
      "t": 114578.0650000002,
      "d": 235.31575520832848,
      "v": 125
    },
    {
      "midi": 55,
      "hit": false,
      "t": 114578.0650000002,
      "d": 272.9662760416686,
      "v": 118
    },
    {
      "midi": 41,
      "hit": false,
      "t": 114939.51000000021,
      "d": 769.9531510416855,
      "v": 125
    },
    {
      "midi": 65,
      "hit": false,
      "t": 115300.95500000022,
      "d": 99.77388020833314,
      "v": 61
    },
    {
      "midi": 60,
      "hit": false,
      "t": 115300.95500000022,
      "d": 118.59914062499593,
      "v": 70
    },
    {
      "midi": 53,
      "hit": false,
      "t": 115300.95500000022,
      "d": 133.65934895833198,
      "v": 61
    },
    {
      "midi": 57,
      "hit": false,
      "t": 115300.95500000022,
      "d": 141.189453125,
      "v": 72
    },
    {
      "midi": 65,
      "hit": false,
      "t": 115662.40000000023,
      "d": 265.4361718750006,
      "v": 101
    },
    {
      "midi": 60,
      "hit": false,
      "t": 115662.40000000023,
      "d": 295.5565885416727,
      "v": 98
    },
    {
      "midi": 53,
      "hit": false,
      "t": 115662.40000000023,
      "d": 325.6770052083448,
      "v": 118
    },
    {
      "midi": 57,
      "hit": false,
      "t": 115662.40000000023,
      "d": 344.50226562500757,
      "v": 110
    },
    {
      "midi": 43,
      "hit": false,
      "t": 116023.84500000023,
      "d": 698.4171614583465,
      "v": 125
    },
    {
      "midi": 65,
      "hit": false,
      "t": 116385.29000000024,
      "d": 129.89429687500524,
      "v": 85
    },
    {
      "midi": 53,
      "hit": false,
      "t": 116385.29000000024,
      "d": 152.4846093750093,
      "v": 79
    },
    {
      "midi": 60,
      "hit": false,
      "t": 116385.29000000024,
      "d": 152.4846093750093,
      "v": 70
    },
    {
      "midi": 57,
      "hit": false,
      "t": 116385.29000000024,
      "d": 178.83997395834012,
      "v": 83
    },
    {
      "midi": 60,
      "hit": false,
      "t": 116746.73500000025,
      "d": 197.6652343750029,
      "v": 90
    },
    {
      "midi": 53,
      "hit": false,
      "t": 116746.73500000025,
      "d": 205.19533854167094,
      "v": 101
    },
    {
      "midi": 57,
      "hit": false,
      "t": 116746.73500000025,
      "d": 220.25554687500698,
      "v": 95
    },
    {
      "midi": 65,
      "hit": false,
      "t": 116746.73500000025,
      "d": 257.9060677083471,
      "v": 92
    },
    {
      "midi": 55,
      "hit": false,
      "t": 117108.18000000025,
      "d": 114.83408854166919,
      "v": 118
    },
    {
      "midi": 64,
      "hit": false,
      "t": 117108.18000000025,
      "d": 126.12924479166395,
      "v": 125
    },
    {
      "midi": 60,
      "hit": false,
      "t": 117108.18000000025,
      "d": 137.4244010416587,
      "v": 125
    },
    {
      "midi": 67,
      "hit": false,
      "t": 117108.18000000025,
      "d": 141.18945312498545,
      "v": 110
    },
    {
      "midi": 36,
      "hit": false,
      "t": 117108.18000000025,
      "d": 528.9898177083087,
      "v": 95
    },
    {
      "midi": 48,
      "hit": false,
      "t": 117108.18000000025,
      "d": 574.1704427083168,
      "v": 118
    },
    {
      "midi": 60,
      "hit": false,
      "t": 117469.62500000023,
      "d": 434.8635156250093,
      "v": 95
    },
    {
      "midi": 64,
      "hit": false,
      "t": 117650.34750000024,
      "d": 363.32752604167035,
      "v": 98
    },
    {
      "midi": 67,
      "hit": false,
      "t": 117831.07000000024,
      "d": 144.9545052083413,
      "v": 95
    },
    {
      "midi": 72,
      "hit": false,
      "t": 118011.79250000024,
      "d": 88.47872395832383,
      "v": 101
    },
    {
      "midi": 60,
      "hit": false,
      "t": 118192.51500000023,
      "d": 163.77976562500407,
      "v": 118
    },
    {
      "midi": 69,
      "hit": false,
      "t": 118192.51500000023,
      "d": 216.4904947916657,
      "v": 125
    },
    {
      "midi": 65,
      "hit": false,
      "t": 118192.51500000023,
      "d": 280.49638020833663,
      "v": 125
    },
    {
      "midi": 48,
      "hit": false,
      "t": 118192.51500000023,
      "d": 833.9590364583419,
      "v": 95
    },
    {
      "midi": 57,
      "hit": false,
      "t": 118192.51500000023,
      "d": 849.0192447916779,
      "v": 110
    },
    {
      "midi": 60,
      "hit": false,
      "t": 118553.96000000024,
      "d": 310.61679687500873,
      "v": 85
    },
    {
      "midi": 65,
      "hit": false,
      "t": 118734.68250000024,
      "d": 299.3216406249994,
      "v": 110
    },
    {
      "midi": 72,
      "hit": false,
      "t": 118915.40500000025,
      "d": 156.24966145833605,
      "v": 110
    },
    {
      "midi": 60,
      "hit": false,
      "t": 119096.12750000025,
      "d": 65.8884114583343,
      "v": 98
    },
    {
      "midi": 60,
      "hit": false,
      "t": 119276.85000000025,
      "d": 197.6652343750029,
      "v": 125
    },
    {
      "midi": 67,
      "hit": false,
      "t": 119276.85000000025,
      "d": 325.67700520833023,
      "v": 125
    },
    {
      "midi": 72,
      "hit": false,
      "t": 119276.85000000025,
      "d": 348.2673177083343,
      "v": 125
    },
    {
      "midi": 71,
      "hit": false,
      "t": 119276.85000000025,
      "d": 355.7974218750023,
      "v": 118
    },
    {
      "midi": 59,
      "hit": false,
      "t": 119276.85000000025,
      "d": 675.8268489583425,
      "v": 118
    },
    {
      "midi": 48,
      "hit": false,
      "t": 119276.85000000025,
      "d": 698.4171614583465,
      "v": 92
    },
    {
      "midi": 60,
      "hit": false,
      "t": 119638.29500000026,
      "d": 212.72544270833896,
      "v": 92
    },
    {
      "midi": 67,
      "hit": false,
      "t": 119819.01750000026,
      "d": 182.60502604166686,
      "v": 98
    },
    {
      "midi": 72,
      "hit": false,
      "t": 119999.74000000027,
      "d": 114.83408854166919,
      "v": 118
    },
    {
      "midi": 60,
      "hit": false,
      "t": 120180.46250000027,
      "d": 73.41851562500233,
      "v": 90
    },
    {
      "midi": 53,
      "hit": false,
      "t": 120361.18500000027,
      "d": 205.19533854167094,
      "v": 125
    },
    {
      "midi": 69,
      "hit": false,
      "t": 120361.18500000027,
      "d": 212.72544270833896,
      "v": 125
    },
    {
      "midi": 65,
      "hit": false,
      "t": 120361.18500000027,
      "d": 216.4904947916657,
      "v": 125
    },
    {
      "midi": 41,
      "hit": false,
      "t": 120361.18500000027,
      "d": 224.02059895833372,
      "v": 98
    },
    {
      "midi": 60,
      "hit": false,
      "t": 120361.18500000027,
      "d": 224.02059895833372,
      "v": 118
    },
    {
      "midi": 52,
      "hit": false,
      "t": 120722.63000000028,
      "d": 205.19533854167094,
      "v": 110
    },
    {
      "midi": 67,
      "hit": false,
      "t": 120722.63000000028,
      "d": 216.4904947916657,
      "v": 125
    },
    {
      "midi": 40,
      "hit": false,
      "t": 120722.63000000028,
      "d": 220.25554687499243,
      "v": 118
    },
    {
      "midi": 64,
      "hit": false,
      "t": 120722.63000000028,
      "d": 227.78565104166046,
      "v": 125
    },
    {
      "midi": 60,
      "hit": false,
      "t": 120722.63000000028,
      "d": 239.08080729165522,
      "v": 125
    },
    {
      "midi": 50,
      "hit": false,
      "t": 121084.07500000027,
      "d": 84.71367187499709,
      "v": 101
    },
    {
      "midi": 65,
      "hit": false,
      "t": 121084.07500000027,
      "d": 92.24377604166511,
      "v": 125
    },
    {
      "midi": 60,
      "hit": false,
      "t": 121084.07500000027,
      "d": 96.00882812499185,
      "v": 118
    },
    {
      "midi": 62,
      "hit": false,
      "t": 121084.07500000027,
      "d": 99.77388020831859,
      "v": 125
    },
    {
      "midi": 38,
      "hit": false,
      "t": 121084.07500000027,
      "d": 111.06903645831335,
      "v": 98
    },
    {
      "midi": 55,
      "hit": false,
      "t": 121445.52000000025,
      "d": 103.53893229167443,
      "v": 125
    },
    {
      "midi": 67,
      "hit": false,
      "t": 121445.52000000025,
      "d": 107.30398437500116,
      "v": 98
    },
    {
      "midi": 64,
      "hit": false,
      "t": 121445.52000000025,
      "d": 141.189453125,
      "v": 118
    },
    {
      "midi": 60,
      "hit": false,
      "t": 121445.52000000025,
      "d": 144.95450520832674,
      "v": 125
    },
    {
      "midi": 36,
      "hit": false,
      "t": 121445.52000000025,
      "d": 276.73132812499534,
      "v": 98
    },
    {
      "midi": 48,
      "hit": false,
      "t": 121445.52000000025,
      "d": 318.1469010416622,
      "v": 125
    },
    {
      "midi": 60,
      "hit": false,
      "t": 121806.96500000024,
      "d": 434.8635156250093,
      "v": 118
    },
    {
      "midi": 64,
      "hit": false,
      "t": 121987.68750000025,
      "d": 325.6770052083448,
      "v": 118
    },
    {
      "midi": 67,
      "hit": false,
      "t": 122168.41000000025,
      "d": 137.42440104167326,
      "v": 95
    },
    {
      "midi": 72,
      "hit": false,
      "t": 122349.13250000027,
      "d": 92.24377604166511,
      "v": 90
    },
    {
      "midi": 67,
      "hit": false,
      "t": 122529.85500000027,
      "d": 1.8825260416633682,
      "v": 118
    },
    {
      "midi": 60,
      "hit": false,
      "t": 122529.85500000027,
      "d": 190.13513020833489,
      "v": 118
    },
    {
      "midi": 65,
      "hit": false,
      "t": 122529.85500000027,
      "d": 291.7915364583314,
      "v": 118
    },
    {
      "midi": 69,
      "hit": false,
      "t": 122529.85500000027,
      "d": 314.38184895833547,
      "v": 125
    },
    {
      "midi": 48,
      "hit": false,
      "t": 122529.85500000027,
      "d": 818.8988281250058,
      "v": 98
    },
    {
      "midi": 57,
      "hit": false,
      "t": 122529.85500000027,
      "d": 841.4891406250099,
      "v": 118
    },
    {
      "midi": 60,
      "hit": false,
      "t": 122891.30000000028,
      "d": 246.6109114583378,
      "v": 85
    },
    {
      "midi": 65,
      "hit": false,
      "t": 123072.02250000028,
      "d": 284.26143229166337,
      "v": 98
    },
    {
      "midi": 72,
      "hit": false,
      "t": 123252.74500000029,
      "d": 77.18356770832906,
      "v": 88
    },
    {
      "midi": 60,
      "hit": false,
      "t": 123433.46750000029,
      "d": 62.123359374993015,
      "v": 92
    },
    {
      "midi": 60,
      "hit": false,
      "t": 123614.19000000028,
      "d": 197.66523437498836,
      "v": 125
    },
    {
      "midi": 72,
      "hit": false,
      "t": 123614.19000000028,
      "d": 306.8517447916529,
      "v": 118
    },
    {
      "midi": 71,
      "hit": false,
      "t": 123614.19000000028,
      "d": 325.6770052083157,
      "v": 118
    },
    {
      "midi": 67,
      "hit": false,
      "t": 123614.19000000028,
      "d": 389.68289062497206,
      "v": 125
    },
    {
      "midi": 59,
      "hit": false,
      "t": 123614.19000000028,
      "d": 717.2424218749657,
      "v": 125
    },
    {
      "midi": 48,
      "hit": false,
      "t": 123614.19000000028,
      "d": 732.3026302083017,
      "v": 98
    },
    {
      "midi": 60,
      "hit": false,
      "t": 123975.63500000026,
      "d": 291.79153645831684,
      "v": 90
    },
    {
      "midi": 67,
      "hit": false,
      "t": 124156.35750000025,
      "d": 212.72544270833896,
      "v": 101
    },
    {
      "midi": 72,
      "hit": false,
      "t": 124337.08000000025,
      "d": 201.43028645832965,
      "v": 110
    },
    {
      "midi": 60,
      "hit": false,
      "t": 124517.80250000025,
      "d": 73.41851562498778,
      "v": 98
    },
    {
      "midi": 60,
      "hit": false,
      "t": 124698.52500000024,
      "d": 160.0147135416628,
      "v": 125
    },
    {
      "midi": 72,
      "hit": false,
      "t": 124698.52500000024,
      "d": 186.3700781249936,
      "v": 118
    },
    {
      "midi": 65,
      "hit": false,
      "t": 124698.52500000024,
      "d": 193.90018229166162,
      "v": 125
    },
    {
      "midi": 53,
      "hit": false,
      "t": 124698.52500000024,
      "d": 197.66523437498836,
      "v": 125
    },
    {
      "midi": 41,
      "hit": false,
      "t": 124698.52500000024,
      "d": 216.49049479165114,
      "v": 95
    },
    {
      "midi": 69,
      "hit": false,
      "t": 124698.52500000024,
      "d": 246.61091145832324,
      "v": 125
    },
    {
      "midi": 72,
      "hit": false,
      "t": 125059.97000000023,
      "d": 167.5448177083308,
      "v": 110
    },
    {
      "midi": 52,
      "hit": false,
      "t": 125059.97000000023,
      "d": 197.6652343750029,
      "v": 110
    },
    {
      "midi": 67,
      "hit": false,
      "t": 125059.97000000023,
      "d": 197.6652343750029,
      "v": 125
    },
    {
      "midi": 64,
      "hit": false,
      "t": 125059.97000000023,
      "d": 201.43028645832965,
      "v": 110
    },
    {
      "midi": 40,
      "hit": false,
      "t": 125059.97000000023,
      "d": 212.7254427083244,
      "v": 90
    },
    {
      "midi": 72,
      "hit": false,
      "t": 125421.41500000023,
      "d": 114.83408854166919,
      "v": 118
    },
    {
      "midi": 62,
      "hit": false,
      "t": 125421.41500000023,
      "d": 122.36419270833721,
      "v": 125
    },
    {
      "midi": 65,
      "hit": false,
      "t": 125421.41500000023,
      "d": 126.12924479166395,
      "v": 125
    },
    {
      "midi": 38,
      "hit": false,
      "t": 125421.41500000023,
      "d": 133.65934895833198,
      "v": 98
    },
    {
      "midi": 50,
      "hit": false,
      "t": 125421.41500000023,
      "d": 137.4244010416587,
      "v": 125
    },
    {
      "midi": 48,
      "hit": false,
      "t": 125782.86000000022,
      "d": 1041.0369010416616,
      "v": 116
    },
    {
      "midi": 67,
      "hit": false,
      "t": 126144.30500000023,
      "d": 227.78565104166046,
      "v": 62
    },
    {
      "midi": 60,
      "hit": false,
      "t": 126144.30500000023,
      "d": 235.31575520832848,
      "v": 60
    },
    {
      "midi": 64,
      "hit": false,
      "t": 126144.30500000023,
      "d": 235.31575520832848,
      "v": 67
    },
    {
      "midi": 67,
      "hit": false,
      "t": 126505.75000000022,
      "d": 314.38184895833547,
      "v": 73
    },
    {
      "midi": 60,
      "hit": false,
      "t": 126505.75000000022,
      "d": 344.502265624993,
      "v": 71
    },
    {
      "midi": 64,
      "hit": false,
      "t": 126505.75000000022,
      "d": 367.0925781249971,
      "v": 84
    },
    {
      "midi": 47,
      "hit": false,
      "t": 126867.19500000021,
      "d": 472.5140364583349,
      "v": 113
    },
    {
      "midi": 67,
      "hit": false,
      "t": 127228.64000000022,
      "d": 310.6167968749942,
      "v": 72
    },
    {
      "midi": 62,
      "hit": false,
      "t": 127228.64000000022,
      "d": 374.6226822916651,
      "v": 94
    },
    {
      "midi": 59,
      "hit": false,
      "t": 127228.64000000022,
      "d": 389.68289062500116,
      "v": 75
    },
    {
      "midi": 47,
      "hit": false,
      "t": 127590.08500000021,
      "d": 303.0866927083407,
      "v": 97
    },
    {
      "midi": 45,
      "hit": false,
      "t": 127951.53000000022,
      "d": 502.634453125007,
      "v": 110
    },
    {
      "midi": 65,
      "hit": false,
      "t": 128312.97500000022,
      "d": 393.44794270834245,
      "v": 72
    },
    {
      "midi": 57,
      "hit": false,
      "t": 128312.97500000022,
      "d": 408.5081510416785,
      "v": 61
    },
    {
      "midi": 60,
      "hit": false,
      "t": 128312.97500000022,
      "d": 427.3334114583413,
      "v": 71
    },
    {
      "midi": 45,
      "hit": false,
      "t": 128674.42000000023,
      "d": 272.9662760416686,
      "v": 77
    },
    {
      "midi": 43,
      "hit": false,
      "t": 129035.86500000024,
      "d": 867.8445052083407,
      "v": 110
    },
    {
      "midi": 60,
      "hit": false,
      "t": 129397.31000000025,
      "d": 261.67111979167385,
      "v": 72
    },
    {
      "midi": 64,
      "hit": false,
      "t": 129397.31000000025,
      "d": 261.67111979167385,
      "v": 67
    },
    {
      "midi": 64,
      "hit": false,
      "t": 129758.75500000025,
      "d": 175.07492187499884,
      "v": 90
    },
    {
      "midi": 60,
      "hit": false,
      "t": 129758.75500000025,
      "d": 182.60502604166686,
      "v": 99
    },
    {
      "midi": 53,
      "hit": false,
      "t": 130120.20000000026,
      "d": 946.9105989583477,
      "v": 81
    },
    {
      "midi": 57,
      "hit": false,
      "t": 130120.20000000026,
      "d": 950.6756510416744,
      "v": 102
    },
    {
      "midi": 41,
      "hit": false,
      "t": 130120.20000000026,
      "d": 961.9708072916692,
      "v": 79
    },
    {
      "midi": 64,
      "hit": false,
      "t": 130481.64500000027,
      "d": 208.96039062499767,
      "v": 78
    },
    {
      "midi": 60,
      "hit": false,
      "t": 130481.64500000027,
      "d": 224.02059895833372,
      "v": 68
    },
    {
      "midi": 64,
      "hit": false,
      "t": 130843.09000000027,
      "d": 276.7313281249808,
      "v": 94
    },
    {
      "midi": 60,
      "hit": false,
      "t": 130843.09000000027,
      "d": 284.26143229163426,
      "v": 82
    },
    {
      "midi": 55,
      "hit": false,
      "t": 131204.53500000024,
      "d": 449.92372395834536,
      "v": 99
    },
    {
      "midi": 40,
      "hit": false,
      "t": 131204.53500000024,
      "d": 596.76075520835,
      "v": 79
    },
    {
      "midi": 52,
      "hit": false,
      "t": 131204.53500000024,
      "d": 608.0559114583593,
      "v": 85
    },
    {
      "midi": 60,
      "hit": false,
      "t": 131565.98000000024,
      "d": 438.62856770833605,
      "v": 101
    },
    {
      "midi": 64,
      "hit": false,
      "t": 131565.98000000024,
      "d": 551.5801302083128,
      "v": 101
    },
    {
      "midi": 52,
      "hit": false,
      "t": 131927.42500000025,
      "d": 182.6050260416523,
      "v": 78
    },
    {
      "midi": 40,
      "hit": false,
      "t": 131927.42500000025,
      "d": 193.90018229163252,
      "v": 67
    },
    {
      "midi": 55,
      "hit": false,
      "t": 131927.42500000025,
      "d": 220.25554687497788,
      "v": 81
    },
    {
      "midi": 38,
      "hit": false,
      "t": 132273.8097916669,
      "d": 751.127890624979,
      "v": 96
    },
    {
      "midi": 50,
      "hit": false,
      "t": 132273.8097916669,
      "d": 769.9531510416418,
      "v": 123
    },
    {
      "midi": 62,
      "hit": false,
      "t": 132642.78489583355,
      "d": 58.35830729166628,
      "v": 99
    },
    {
      "midi": 69,
      "hit": false,
      "t": 132646.54994791688,
      "d": 137.42440104167326,
      "v": 116
    },
    {
      "midi": 64,
      "hit": false,
      "t": 132721.85098958356,
      "d": 99.77388020831859,
      "v": 77
    },
    {
      "midi": 62,
      "hit": false,
      "t": 132981.63958333354,
      "d": 65.88841145831975,
      "v": 123
    },
    {
      "midi": 69,
      "hit": false,
      "t": 132981.63958333354,
      "d": 374.622682291636,
      "v": 123
    },
    {
      "midi": 64,
      "hit": false,
      "t": 133068.2357812502,
      "d": 265.43617187498603,
      "v": 88
    },
    {
      "midi": 43,
      "hit": false,
      "t": 133365.6748958335,
      "d": 875.3746093750233,
      "v": 99
    },
    {
      "midi": 55,
      "hit": false,
      "t": 133369.43994791684,
      "d": 879.13966145835,
      "v": 123
    },
    {
      "midi": 71,
      "hit": false,
      "t": 133610.40328125018,
      "d": 73.41851562500233,
      "v": 116
    },
    {
      "midi": 67,
      "hit": false,
      "t": 133712.05968750018,
      "d": 532.7548697916791,
      "v": 116
    },
    {
      "midi": 71,
      "hit": false,
      "t": 133738.41505208352,
      "d": 506.3995052083337,
      "v": 51
    },
    {
      "midi": 62,
      "hit": false,
      "t": 134073.5046875002,
      "d": 178.83997395832557,
      "v": 108
    },
    {
      "midi": 48,
      "hit": false,
      "t": 134457.54000000018,
      "d": 1041.0369010416325,
      "v": 116
    },
    {
      "midi": 67,
      "hit": false,
      "t": 134818.9850000002,
      "d": 227.78565104166046,
      "v": 62
    },
    {
      "midi": 60,
      "hit": false,
      "t": 134818.9850000002,
      "d": 235.31575520831393,
      "v": 60
    },
    {
      "midi": 64,
      "hit": false,
      "t": 134818.9850000002,
      "d": 235.31575520831393,
      "v": 67
    },
    {
      "midi": 67,
      "hit": false,
      "t": 135180.43000000017,
      "d": 314.3818489583209,
      "v": 73
    },
    {
      "midi": 60,
      "hit": false,
      "t": 135180.43000000017,
      "d": 344.502265624993,
      "v": 71
    },
    {
      "midi": 64,
      "hit": false,
      "t": 135180.43000000017,
      "d": 367.09257812501164,
      "v": 84
    },
    {
      "midi": 47,
      "hit": false,
      "t": 135541.87500000017,
      "d": 472.5140364583349,
      "v": 113
    },
    {
      "midi": 67,
      "hit": false,
      "t": 135903.32000000018,
      "d": 310.6167968749942,
      "v": 72
    },
    {
      "midi": 62,
      "hit": false,
      "t": 135903.32000000018,
      "d": 374.6226822916651,
      "v": 94
    },
    {
      "midi": 59,
      "hit": false,
      "t": 135903.32000000018,
      "d": 389.68289062500116,
      "v": 75
    },
    {
      "midi": 47,
      "hit": false,
      "t": 136264.7650000002,
      "d": 303.0866927083407,
      "v": 97
    },
    {
      "midi": 45,
      "hit": false,
      "t": 136626.2100000002,
      "d": 502.634453125007,
      "v": 110
    },
    {
      "midi": 65,
      "hit": false,
      "t": 136987.6550000002,
      "d": 393.4479427083279,
      "v": 72
    },
    {
      "midi": 57,
      "hit": false,
      "t": 136987.6550000002,
      "d": 408.50815104166395,
      "v": 61
    },
    {
      "midi": 60,
      "hit": false,
      "t": 136987.6550000002,
      "d": 427.33341145832674,
      "v": 71
    },
    {
      "midi": 45,
      "hit": false,
      "t": 137349.1000000002,
      "d": 272.9662760416395,
      "v": 77
    },
    {
      "midi": 43,
      "hit": false,
      "t": 137710.5450000002,
      "d": 867.8445052083407,
      "v": 110
    },
    {
      "midi": 60,
      "hit": false,
      "t": 138071.9900000002,
      "d": 261.6711197916593,
      "v": 72
    },
    {
      "midi": 64,
      "hit": false,
      "t": 138071.9900000002,
      "d": 261.6711197916593,
      "v": 67
    },
    {
      "midi": 64,
      "hit": false,
      "t": 138433.4350000002,
      "d": 175.07492187499884,
      "v": 90
    },
    {
      "midi": 60,
      "hit": false,
      "t": 138433.4350000002,
      "d": 182.6050260416523,
      "v": 99
    },
    {
      "midi": 53,
      "hit": false,
      "t": 138794.88000000018,
      "d": 931.8503906250116,
      "v": 112
    },
    {
      "midi": 41,
      "hit": false,
      "t": 138794.88000000018,
      "d": 958.205755208357,
      "v": 106
    },
    {
      "midi": 60,
      "hit": false,
      "t": 139156.3250000002,
      "d": 224.02059895833372,
      "v": 77
    },
    {
      "midi": 65,
      "hit": false,
      "t": 139156.3250000002,
      "d": 239.08080729166977,
      "v": 68
    },
    {
      "midi": 57,
      "hit": false,
      "t": 139156.3250000002,
      "d": 250.37596354167908,
      "v": 72
    },
    {
      "midi": 60,
      "hit": false,
      "t": 139517.7700000002,
      "d": 306.85174479166744,
      "v": 97
    },
    {
      "midi": 65,
      "hit": false,
      "t": 139517.7700000002,
      "d": 310.6167968749942,
      "v": 88
    },
    {
      "midi": 57,
      "hit": false,
      "t": 139517.7700000002,
      "d": 321.9119531250035,
      "v": 78
    },
    {
      "midi": 43,
      "hit": false,
      "t": 139879.2150000002,
      "d": 521.4597135416698,
      "v": 109
    },
    {
      "midi": 60,
      "hit": false,
      "t": 140240.6600000002,
      "d": 574.1704427083314,
      "v": 84
    },
    {
      "midi": 53,
      "hit": false,
      "t": 140240.6600000002,
      "d": 589.2306510416674,
      "v": 72
    },
    {
      "midi": 57,
      "hit": false,
      "t": 140240.6600000002,
      "d": 592.9957031249942,
      "v": 81
    },
    {
      "midi": 65,
      "hit": false,
      "t": 140240.6600000002,
      "d": 596.7607552083209,
      "v": 92
    },
    {
      "midi": 43,
      "hit": false,
      "t": 140602.1050000002,
      "d": 291.7915364583023,
      "v": 71
    },
    {
      "midi": 48,
      "hit": false,
      "t": 140963.55000000016,
      "d": 852.7842968750047,
      "v": 125
    },
    {
      "midi": 36,
      "hit": false,
      "t": 140963.55000000016,
      "d": 909.260078124993,
      "v": 125
    },
    {
      "midi": 60,
      "hit": false,
      "t": 141324.99500000017,
      "d": 118.59914062501048,
      "v": 72
    },
    {
      "midi": 55,
      "hit": false,
      "t": 141324.99500000017,
      "d": 122.36419270833721,
      "v": 59
    },
    {
      "midi": 64,
      "hit": false,
      "t": 141324.99500000017,
      "d": 148.71955729168258,
      "v": 85
    },
    {
      "midi": 55,
      "hit": false,
      "t": 141686.44000000018,
      "d": 363.3275260416558,
      "v": 101
    },
    {
      "midi": 64,
      "hit": false,
      "t": 141686.44000000018,
      "d": 367.09257812498254,
      "v": 125
    },
    {
      "midi": 60,
      "hit": false,
      "t": 141686.44000000018,
      "d": 374.622682291636,
      "v": 125
    },
    {
      "midi": 36,
      "hit": false,
      "t": 142047.88500000015,
      "d": 785.0133593749779,
      "v": 125
    },
    {
      "midi": 48,
      "hit": false,
      "t": 142047.88500000015,
      "d": 856.5493489583023,
      "v": 125
    },
    {
      "midi": 60,
      "hit": false,
      "t": 142409.33000000013,
      "d": 103.53893229167443,
      "v": 85
    },
    {
      "midi": 55,
      "hit": false,
      "t": 142409.33000000013,
      "d": 107.30398437500116,
      "v": 72
    },
    {
      "midi": 64,
      "hit": false,
      "t": 142409.33000000013,
      "d": 122.36419270833721,
      "v": 81
    },
    {
      "midi": 64,
      "hit": false,
      "t": 142770.77500000014,
      "d": 325.6770052083011,
      "v": 125
    },
    {
      "midi": 55,
      "hit": false,
      "t": 142770.77500000014,
      "d": 355.7974218749732,
      "v": 125
    },
    {
      "midi": 60,
      "hit": false,
      "t": 142770.77500000014,
      "d": 382.1527864583186,
      "v": 125
    },
    {
      "midi": 36,
      "hit": false,
      "t": 143132.22000000012,
      "d": 867.8445052083116,
      "v": 125
    },
    {
      "midi": 48,
      "hit": false,
      "t": 143132.22000000012,
      "d": 882.9047135416477,
      "v": 125
    },
    {
      "midi": 65,
      "hit": false,
      "t": 143493.66500000012,
      "d": 133.65934895834653,
      "v": 90
    },
    {
      "midi": 60,
      "hit": false,
      "t": 143493.66500000012,
      "d": 171.3098697916721,
      "v": 98
    },
    {
      "midi": 57,
      "hit": false,
      "t": 143493.66500000012,
      "d": 178.83997395832557,
      "v": 92
    },
    {
      "midi": 65,
      "hit": false,
      "t": 143855.1100000001,
      "d": 325.67700520833023,
      "v": 125
    },
    {
      "midi": 57,
      "hit": false,
      "t": 143855.1100000001,
      "d": 374.6226822916651,
      "v": 125
    },
    {
      "midi": 60,
      "hit": false,
      "t": 143855.1100000001,
      "d": 374.6226822916651,
      "v": 125
    },
    {
      "midi": 48,
      "hit": false,
      "t": 144216.5550000001,
      "d": 698.4171614583174,
      "v": 125
    },
    {
      "midi": 36,
      "hit": false,
      "t": 144216.5550000001,
      "d": 822.6638802083326,
      "v": 118
    },
    {
      "midi": 65,
      "hit": false,
      "t": 144578.00000000012,
      "d": 163.77976562498952,
      "v": 72
    },
    {
      "midi": 60,
      "hit": false,
      "t": 144578.00000000012,
      "d": 171.309869791643,
      "v": 79
    },
    {
      "midi": 57,
      "hit": false,
      "t": 144578.00000000012,
      "d": 178.83997395829647,
      "v": 72
    },
    {
      "midi": 65,
      "hit": false,
      "t": 144939.4450000001,
      "d": 148.71955729168258,
      "v": 125
    },
    {
      "midi": 60,
      "hit": false,
      "t": 144939.4450000001,
      "d": 152.4846093750093,
      "v": 125
    },
    {
      "midi": 57,
      "hit": false,
      "t": 144939.4450000001,
      "d": 175.07492187499884,
      "v": 125
    },
    {
      "midi": 48,
      "hit": false,
      "t": 145300.8900000001,
      "d": 1041.0369010416325,
      "v": 127
    },
    {
      "midi": 67,
      "hit": false,
      "t": 145662.3350000001,
      "d": 227.78565104166046,
      "v": 75
    },
    {
      "midi": 60,
      "hit": false,
      "t": 145662.3350000001,
      "d": 235.31575520831393,
      "v": 73
    },
    {
      "midi": 64,
      "hit": false,
      "t": 145662.3350000001,
      "d": 235.31575520831393,
      "v": 80
    },
    {
      "midi": 67,
      "hit": false,
      "t": 146023.7800000001,
      "d": 314.3818489583209,
      "v": 86
    },
    {
      "midi": 60,
      "hit": false,
      "t": 146023.7800000001,
      "d": 344.502265624993,
      "v": 84
    },
    {
      "midi": 64,
      "hit": false,
      "t": 146023.7800000001,
      "d": 367.09257812501164,
      "v": 97
    },
    {
      "midi": 47,
      "hit": false,
      "t": 146385.2250000001,
      "d": 472.5140364583349,
      "v": 126
    },
    {
      "midi": 67,
      "hit": false,
      "t": 146746.6700000001,
      "d": 310.6167968749942,
      "v": 85
    },
    {
      "midi": 62,
      "hit": false,
      "t": 146746.6700000001,
      "d": 374.6226822916651,
      "v": 107
    },
    {
      "midi": 59,
      "hit": false,
      "t": 146746.6700000001,
      "d": 389.68289062500116,
      "v": 88
    },
    {
      "midi": 47,
      "hit": false,
      "t": 147108.1150000001,
      "d": 303.0866927083407,
      "v": 110
    },
    {
      "midi": 45,
      "hit": false,
      "t": 147469.5600000001,
      "d": 502.634453125007,
      "v": 123
    },
    {
      "midi": 65,
      "hit": false,
      "t": 147831.00500000012,
      "d": 393.4479427083279,
      "v": 85
    },
    {
      "midi": 57,
      "hit": false,
      "t": 147831.00500000012,
      "d": 408.50815104166395,
      "v": 74
    },
    {
      "midi": 60,
      "hit": false,
      "t": 147831.00500000012,
      "d": 427.33341145832674,
      "v": 84
    },
    {
      "midi": 45,
      "hit": false,
      "t": 148192.45000000013,
      "d": 272.9662760416395,
      "v": 90
    },
    {
      "midi": 43,
      "hit": false,
      "t": 148553.8950000001,
      "d": 867.8445052083407,
      "v": 123
    },
    {
      "midi": 60,
      "hit": false,
      "t": 148915.3400000001,
      "d": 224.02059895833372,
      "v": 85
    },
    {
      "midi": 64,
      "hit": false,
      "t": 148915.3400000001,
      "d": 224.02059895833372,
      "v": 80
    },
    {
      "midi": 64,
      "hit": false,
      "t": 149276.78500000012,
      "d": 175.07492187499884,
      "v": 103
    },
    {
      "midi": 60,
      "hit": false,
      "t": 149276.78500000012,
      "d": 182.6050260416523,
      "v": 112
    },
    {
      "midi": 53,
      "hit": false,
      "t": 149638.2300000001,
      "d": 946.9105989583477,
      "v": 94
    },
    {
      "midi": 57,
      "hit": false,
      "t": 149638.2300000001,
      "d": 950.6756510416744,
      "v": 115
    },
    {
      "midi": 41,
      "hit": false,
      "t": 149638.2300000001,
      "d": 961.9708072916837,
      "v": 92
    },
    {
      "midi": 65,
      "hit": false,
      "t": 149999.6750000001,
      "d": 208.96039062499767,
      "v": 91
    },
    {
      "midi": 60,
      "hit": false,
      "t": 149999.6750000001,
      "d": 224.02059895833372,
      "v": 81
    },
    {
      "midi": 65,
      "hit": false,
      "t": 150361.1200000001,
      "d": 276.73132812499534,
      "v": 107
    },
    {
      "midi": 60,
      "hit": false,
      "t": 150361.1200000001,
      "d": 284.2614322916488,
      "v": 95
    },
    {
      "midi": 55,
      "hit": false,
      "t": 150722.5650000001,
      "d": 449.92372395834536,
      "v": 112
    },
    {
      "midi": 40,
      "hit": false,
      "t": 150722.5650000001,
      "d": 596.76075520835,
      "v": 92
    },
    {
      "midi": 52,
      "hit": false,
      "t": 150722.5650000001,
      "d": 608.0559114583593,
      "v": 98
    },
    {
      "midi": 60,
      "hit": false,
      "t": 151084.0100000001,
      "d": 438.62856770833605,
      "v": 114
    },
    {
      "midi": 64,
      "hit": false,
      "t": 151084.0100000001,
      "d": 551.5801302083128,
      "v": 114
    },
    {
      "midi": 52,
      "hit": false,
      "t": 151445.4550000001,
      "d": 182.6050260416523,
      "v": 91
    },
    {
      "midi": 40,
      "hit": false,
      "t": 151445.4550000001,
      "d": 193.90018229163252,
      "v": 80
    },
    {
      "midi": 55,
      "hit": false,
      "t": 151445.4550000001,
      "d": 220.25554687497788,
      "v": 94
    },
    {
      "midi": 38,
      "hit": false,
      "t": 151806.90000000008,
      "d": 751.127890624979,
      "v": 109
    },
    {
      "midi": 50,
      "hit": false,
      "t": 151806.90000000008,
      "d": 769.9531510416418,
      "v": 127
    },
    {
      "midi": 62,
      "hit": false,
      "t": 152168.3450000001,
      "d": 58.35830729166628,
      "v": 112
    },
    {
      "midi": 64,
      "hit": false,
      "t": 152168.3450000001,
      "d": 99.77388020831859,
      "v": 90
    },
    {
      "midi": 69,
      "hit": false,
      "t": 152168.3450000001,
      "d": 137.42440104164416,
      "v": 127
    },
    {
      "midi": 62,
      "hit": false,
      "t": 152529.79000000007,
      "d": 65.88841145831975,
      "v": 127
    },
    {
      "midi": 64,
      "hit": false,
      "t": 152529.79000000007,
      "d": 265.43617187498603,
      "v": 101
    },
    {
      "midi": 69,
      "hit": false,
      "t": 152529.79000000007,
      "d": 374.622682291636,
      "v": 127
    },
    {
      "midi": 43,
      "hit": false,
      "t": 152891.23500000004,
      "d": 875.3746093750233,
      "v": 112
    },
    {
      "midi": 55,
      "hit": false,
      "t": 152891.23500000004,
      "d": 879.13966145835,
      "v": 127
    },
    {
      "midi": 71,
      "hit": false,
      "t": 153090.7827604167,
      "d": 73.41851562500233,
      "v": 127
    },
    {
      "midi": 67,
      "hit": false,
      "t": 153252.68000000005,
      "d": 532.7548697916791,
      "v": 127
    },
    {
      "midi": 62,
      "hit": false,
      "t": 153614.12500000006,
      "d": 178.83997395832557,
      "v": 121
    },
    {
      "midi": 48,
      "hit": false,
      "t": 153975.57000000004,
      "d": 1041.0369010416325,
      "v": 127
    },
    {
      "midi": 67,
      "hit": false,
      "t": 154337.01500000004,
      "d": 227.78565104166046,
      "v": 75
    },
    {
      "midi": 60,
      "hit": false,
      "t": 154337.01500000004,
      "d": 235.31575520831393,
      "v": 73
    },
    {
      "midi": 64,
      "hit": false,
      "t": 154337.01500000004,
      "d": 235.31575520831393,
      "v": 80
    },
    {
      "midi": 67,
      "hit": false,
      "t": 154698.46000000002,
      "d": 314.3818489583209,
      "v": 86
    },
    {
      "midi": 60,
      "hit": false,
      "t": 154698.46000000002,
      "d": 344.502265624993,
      "v": 84
    },
    {
      "midi": 64,
      "hit": false,
      "t": 154698.46000000002,
      "d": 367.09257812501164,
      "v": 97
    },
    {
      "midi": 47,
      "hit": false,
      "t": 155059.90500000003,
      "d": 472.5140364583349,
      "v": 126
    },
    {
      "midi": 67,
      "hit": false,
      "t": 155421.35000000003,
      "d": 310.6167968749942,
      "v": 85
    },
    {
      "midi": 62,
      "hit": false,
      "t": 155421.35000000003,
      "d": 374.6226822916651,
      "v": 107
    },
    {
      "midi": 59,
      "hit": false,
      "t": 155421.35000000003,
      "d": 389.68289062500116,
      "v": 88
    },
    {
      "midi": 47,
      "hit": false,
      "t": 155782.79500000004,
      "d": 303.0866927083407,
      "v": 110
    },
    {
      "midi": 45,
      "hit": false,
      "t": 156144.24000000005,
      "d": 502.634453125007,
      "v": 123
    },
    {
      "midi": 65,
      "hit": false,
      "t": 156505.68500000006,
      "d": 393.4479427083279,
      "v": 85
    },
    {
      "midi": 57,
      "hit": false,
      "t": 156505.68500000006,
      "d": 408.50815104166395,
      "v": 74
    },
    {
      "midi": 60,
      "hit": false,
      "t": 156505.68500000006,
      "d": 427.33341145832674,
      "v": 84
    },
    {
      "midi": 45,
      "hit": false,
      "t": 156867.13000000006,
      "d": 272.9662760416395,
      "v": 90
    },
    {
      "midi": 43,
      "hit": false,
      "t": 157228.57500000004,
      "d": 867.8445052083407,
      "v": 123
    },
    {
      "midi": 60,
      "hit": false,
      "t": 157590.02000000005,
      "d": 224.02059895833372,
      "v": 85
    },
    {
      "midi": 64,
      "hit": false,
      "t": 157590.02000000005,
      "d": 224.02059895833372,
      "v": 80
    },
    {
      "midi": 64,
      "hit": false,
      "t": 157951.46500000005,
      "d": 175.07492187499884,
      "v": 103
    },
    {
      "midi": 60,
      "hit": false,
      "t": 157951.46500000005,
      "d": 182.6050260416523,
      "v": 112
    },
    {
      "midi": 53,
      "hit": false,
      "t": 158312.91000000003,
      "d": 931.8503906250116,
      "v": 125
    },
    {
      "midi": 41,
      "hit": false,
      "t": 158312.91000000003,
      "d": 958.205755208357,
      "v": 119
    },
    {
      "midi": 60,
      "hit": false,
      "t": 158674.35500000004,
      "d": 224.02059895833372,
      "v": 90
    },
    {
      "midi": 65,
      "hit": false,
      "t": 158674.35500000004,
      "d": 239.08080729166977,
      "v": 81
    },
    {
      "midi": 57,
      "hit": false,
      "t": 158674.35500000004,
      "d": 250.37596354167908,
      "v": 85
    },
    {
      "midi": 60,
      "hit": false,
      "t": 159035.80000000005,
      "d": 306.85174479166744,
      "v": 110
    },
    {
      "midi": 65,
      "hit": false,
      "t": 159035.80000000005,
      "d": 310.6167968749942,
      "v": 101
    },
    {
      "midi": 57,
      "hit": false,
      "t": 159035.80000000005,
      "d": 321.9119531250035,
      "v": 91
    },
    {
      "midi": 43,
      "hit": false,
      "t": 159397.24500000005,
      "d": 521.4597135416698,
      "v": 122
    },
    {
      "midi": 60,
      "hit": false,
      "t": 159758.69000000006,
      "d": 574.1704427083314,
      "v": 97
    },
    {
      "midi": 53,
      "hit": false,
      "t": 159758.69000000006,
      "d": 589.2306510416674,
      "v": 85
    },
    {
      "midi": 57,
      "hit": false,
      "t": 159758.69000000006,
      "d": 592.9957031249942,
      "v": 94
    },
    {
      "midi": 65,
      "hit": false,
      "t": 159758.69000000006,
      "d": 596.7607552083209,
      "v": 105
    },
    {
      "midi": 43,
      "hit": false,
      "t": 160120.13500000007,
      "d": 291.7915364583023,
      "v": 84
    },
    {
      "midi": 36,
      "hit": false,
      "t": 160481.58000000005,
      "d": 833.9590364583128,
      "v": 127
    },
    {
      "midi": 48,
      "hit": false,
      "t": 160481.58000000005,
      "d": 845.2541927083221,
      "v": 127
    },
    {
      "midi": 60,
      "hit": false,
      "t": 160843.02500000005,
      "d": 88.47872395833838,
      "v": 81
    },
    {
      "midi": 55,
      "hit": false,
      "t": 160843.02500000005,
      "d": 92.24377604166511,
      "v": 71
    },
    {
      "midi": 64,
      "hit": false,
      "t": 160843.02500000005,
      "d": 96.00882812499185,
      "v": 94
    },
    {
      "midi": 64,
      "hit": false,
      "t": 161204.47000000003,
      "d": 272.9662760416977,
      "v": 127
    },
    {
      "midi": 60,
      "hit": false,
      "t": 161204.47000000003,
      "d": 306.85174479169655,
      "v": 127
    },
    {
      "midi": 55,
      "hit": false,
      "t": 161204.47000000003,
      "d": 329.44205729168607,
      "v": 127
    },
    {
      "midi": 36,
      "hit": false,
      "t": 161565.91500000004,
      "d": 532.75486979165,
      "v": 120
    },
    {
      "midi": 48,
      "hit": false,
      "t": 161565.91500000004,
      "d": 585.4655989583116,
      "v": 127
    },
    {
      "midi": 64,
      "hit": false,
      "t": 161927.36000000004,
      "d": 163.77976562498952,
      "v": 127
    },
    {
      "midi": 60,
      "hit": false,
      "t": 161927.36000000004,
      "d": 197.66523437498836,
      "v": 120
    },
    {
      "midi": 67,
      "hit": false,
      "t": 161927.36000000004,
      "d": 220.25554687497788,
      "v": 120
    },
    {
      "midi": 55,
      "hit": false,
      "t": 161927.36000000004,
      "d": 224.02059895830462,
      "v": 100
    },
    {
      "midi": 62,
      "hit": false,
      "t": 162288.80500000002,
      "d": 220.25554687500698,
      "v": 120
    },
    {
      "midi": 67,
      "hit": false,
      "t": 162288.80500000002,
      "d": 220.25554687500698,
      "v": 120
    },
    {
      "midi": 55,
      "hit": false,
      "t": 162288.80500000002,
      "d": 227.78565104166046,
      "v": 92
    },
    {
      "midi": 59,
      "hit": false,
      "t": 162288.80500000002,
      "d": 242.8458593749965,
      "v": 120
    },
    {
      "midi": 47,
      "hit": false,
      "t": 162288.80500000002,
      "d": 257.90606770833256,
      "v": 120
    },
    {
      "midi": 45,
      "hit": false,
      "t": 162650.25000000003,
      "d": 871.6095572916674,
      "v": 122
    },
    {
      "midi": 60,
      "hit": false,
      "t": 163011.69500000004,
      "d": 175.07492187499884,
      "v": 98
    },
    {
      "midi": 64,
      "hit": false,
      "t": 163011.69500000004,
      "d": 175.07492187499884,
      "v": 115
    },
    {
      "midi": 57,
      "hit": false,
      "t": 163011.69500000004,
      "d": 186.37007812500815,
      "v": 89
    },
    {
      "midi": 64,
      "hit": false,
      "t": 163373.14000000004,
      "d": 318.14690104167676,
      "v": 122
    },
    {
      "midi": 60,
      "hit": false,
      "t": 163373.14000000004,
      "d": 340.7372135416663,
      "v": 122
    },
    {
      "midi": 57,
      "hit": false,
      "t": 163373.14000000004,
      "d": 348.26731770831975,
      "v": 98
    },
    {
      "midi": 43,
      "hit": false,
      "t": 163734.58500000002,
      "d": 890.4348177083011,
      "v": 122
    },
    {
      "midi": 57,
      "hit": false,
      "t": 164096.03,
      "d": 175.07492187499884,
      "v": 87
    },
    {
      "midi": 64,
      "hit": false,
      "t": 164096.03,
      "d": 175.07492187499884,
      "v": 95
    },
    {
      "midi": 60,
      "hit": false,
      "t": 164096.03,
      "d": 178.83997395832557,
      "v": 95
    },
    {
      "midi": 64,
      "hit": false,
      "t": 164457.47499999998,
      "d": 239.08080729166977,
      "v": 122
    },
    {
      "midi": 60,
      "hit": false,
      "t": 164457.47499999998,
      "d": 257.90606770833256,
      "v": 122
    },
    {
      "midi": 57,
      "hit": false,
      "t": 164457.47499999998,
      "d": 276.73132812499534,
      "v": 115
    },
    {
      "midi": 42,
      "hit": false,
      "t": 164818.91999999998,
      "d": 916.7901822916174,
      "v": 122
    },
    {
      "midi": 66,
      "hit": false,
      "t": 165180.365,
      "d": 167.54481770831626,
      "v": 101
    },
    {
      "midi": 62,
      "hit": false,
      "t": 165180.365,
      "d": 175.07492187496973,
      "v": 95
    },
    {
      "midi": 57,
      "hit": false,
      "t": 165180.365,
      "d": 178.83997395829647,
      "v": 87
    },
    {
      "midi": 66,
      "hit": false,
      "t": 165541.80999999994,
      "d": 96.00882812499185,
      "v": 122
    },
    {
      "midi": 62,
      "hit": false,
      "t": 165541.80999999994,
      "d": 111.0690364583279,
      "v": 115
    },
    {
      "midi": 57,
      "hit": false,
      "t": 165541.80999999994,
      "d": 126.12924479166395,
      "v": 87
    },
    {
      "midi": 41,
      "hit": false,
      "t": 165903.25499999995,
      "d": 325.67700520833023,
      "v": 122
    },
    {
      "midi": 60,
      "hit": false,
      "t": 165903.25499999995,
      "d": 1052.332057291671,
      "v": 122
    },
    {
      "midi": 64,
      "hit": false,
      "t": 165903.25499999995,
      "d": 1052.332057291671,
      "v": 122
    },
    {
      "midi": 57,
      "hit": false,
      "t": 165903.25499999995,
      "d": 1059.8621614583244,
      "v": 107
    },
    {
      "midi": 48,
      "hit": false,
      "t": 166264.69999999995,
      "d": 344.502265624993,
      "v": 122
    },
    {
      "midi": 47,
      "hit": false,
      "t": 166626.14499999996,
      "d": 257.90606770833256,
      "v": 122
    },
    {
      "midi": 45,
      "hit": false,
      "t": 166987.58999999994,
      "d": 950.6756510416453,
      "v": 122
    },
    {
      "midi": 57,
      "hit": false,
      "t": 167349.03499999995,
      "d": 201.4302864583442,
      "v": 95
    },
    {
      "midi": 60,
      "hit": false,
      "t": 167349.03499999995,
      "d": 205.19533854167094,
      "v": 115
    },
    {
      "midi": 64,
      "hit": false,
      "t": 167349.03499999995,
      "d": 212.7254427083244,
      "v": 122
    },
    {
      "midi": 64,
      "hit": false,
      "t": 167710.47999999992,
      "d": 370.8576302083384,
      "v": 122
    },
    {
      "midi": 60,
      "hit": false,
      "t": 167710.47999999992,
      "d": 374.6226822916651,
      "v": 122
    },
    {
      "midi": 57,
      "hit": false,
      "t": 167710.47999999992,
      "d": 385.9178385416744,
      "v": 115
    },
    {
      "midi": 43,
      "hit": false,
      "t": 168071.92499999993,
      "d": 954.4407031250012,
      "v": 122
    },
    {
      "midi": 60,
      "hit": false,
      "t": 168433.36999999994,
      "d": 205.19533854167094,
      "v": 115
    },
    {
      "midi": 57,
      "hit": false,
      "t": 168433.36999999994,
      "d": 220.25554687500698,
      "v": 98
    },
    {
      "midi": 64,
      "hit": false,
      "t": 168433.36999999994,
      "d": 227.78565104166046,
      "v": 115
    },
    {
      "midi": 60,
      "hit": false,
      "t": 168794.81499999994,
      "d": 306.85174479166744,
      "v": 115
    },
    {
      "midi": 64,
      "hit": false,
      "t": 168794.81499999994,
      "d": 314.3818489583209,
      "v": 122
    },
    {
      "midi": 57,
      "hit": false,
      "t": 168794.81499999994,
      "d": 333.2071093749837,
      "v": 98
    },
    {
      "midi": 42,
      "hit": false,
      "t": 169156.25999999992,
      "d": 849.0192447916488,
      "v": 122
    },
    {
      "midi": 54,
      "hit": false,
      "t": 169517.70499999993,
      "d": 114.83408854165464,
      "v": 95
    },
    {
      "midi": 57,
      "hit": false,
      "t": 169517.70499999993,
      "d": 114.83408854165464,
      "v": 92
    },
    {
      "midi": 62,
      "hit": false,
      "t": 169517.70499999993,
      "d": 114.83408854165464,
      "v": 89
    },
    {
      "midi": 57,
      "hit": false,
      "t": 169879.1499999999,
      "d": 84.71367187501164,
      "v": 95
    },
    {
      "midi": 54,
      "hit": false,
      "t": 169879.1499999999,
      "d": 92.24377604166511,
      "v": 122
    },
    {
      "midi": 62,
      "hit": false,
      "t": 169879.1499999999,
      "d": 111.0690364583279,
      "v": 92
    },
    {
      "midi": 54,
      "hit": false,
      "t": 170240.5949999999,
      "d": 227.78565104166046,
      "v": 122
    },
    {
      "midi": 62,
      "hit": false,
      "t": 170240.5949999999,
      "d": 242.8458593749965,
      "v": 122
    },
    {
      "midi": 57,
      "hit": false,
      "t": 170240.5949999999,
      "d": 269.20122395834187,
      "v": 122
    },
    {
      "midi": 42,
      "hit": false,
      "t": 170240.5949999999,
      "d": 284.2614322916779,
      "v": 122
    },
    {
      "midi": 52,
      "hit": false,
      "t": 170602.03999999992,
      "d": 92.24377604166511,
      "v": 122
    },
    {
      "midi": 62,
      "hit": false,
      "t": 170602.03999999992,
      "d": 224.02059895833372,
      "v": 122
    },
    {
      "midi": 55,
      "hit": false,
      "t": 170602.03999999992,
      "d": 239.08080729166977,
      "v": 122
    },
    {
      "midi": 40,
      "hit": false,
      "t": 170602.03999999992,
      "d": 265.43617187501513,
      "v": 122
    },
    {
      "midi": 42,
      "hit": false,
      "t": 170963.48499999993,
      "d": 220.25554687500698,
      "v": 122
    },
    {
      "midi": 54,
      "hit": false,
      "t": 170963.48499999993,
      "d": 257.90606770833256,
      "v": 107
    },
    {
      "midi": 57,
      "hit": false,
      "t": 170963.48499999993,
      "d": 288.02648437500466,
      "v": 98
    },
    {
      "midi": 62,
      "hit": false,
      "t": 170963.48499999993,
      "d": 325.67700520833023,
      "v": 95
    },
    {
      "midi": 43,
      "hit": false,
      "t": 171324.92999999993,
      "d": 894.199869791657,
      "v": 122
    },
    {
      "midi": 55,
      "hit": false,
      "t": 171686.37499999994,
      "d": 144.95450520832674,
      "v": 89
    },
    {
      "midi": 62,
      "hit": false,
      "t": 171686.37499999994,
      "d": 148.71955729165347,
      "v": 107
    },
    {
      "midi": 59,
      "hit": false,
      "t": 171686.37499999994,
      "d": 156.24966145830695,
      "v": 95
    },
    {
      "midi": 62,
      "hit": false,
      "t": 172047.81999999992,
      "d": 329.44205729168607,
      "v": 122
    },
    {
      "midi": 59,
      "hit": false,
      "t": 172047.81999999992,
      "d": 336.97216145833954,
      "v": 122
    },
    {
      "midi": 55,
      "hit": false,
      "t": 172047.81999999992,
      "d": 340.7372135416663,
      "v": 115
    },
    {
      "midi": 41,
      "hit": false,
      "t": 172409.26499999993,
      "d": 886.6697656249744,
      "v": 122
    },
    {
      "midi": 62,
      "hit": false,
      "t": 172770.70999999993,
      "d": 114.83408854165464,
      "v": 122
    },
    {
      "midi": 55,
      "hit": false,
      "t": 172770.70999999993,
      "d": 148.71955729165347,
      "v": 115
    },
    {
      "midi": 59,
      "hit": false,
      "t": 172770.70999999993,
      "d": 167.54481770831626,
      "v": 122
    },
    {
      "midi": 62,
      "hit": false,
      "t": 173132.1549999999,
      "d": 239.08080729166977,
      "v": 122
    },
    {
      "midi": 59,
      "hit": false,
      "t": 173132.1549999999,
      "d": 269.20122395834187,
      "v": 122
    },
    {
      "midi": 55,
      "hit": false,
      "t": 173132.1549999999,
      "d": 272.9662760416686,
      "v": 122
    },
    {
      "midi": 40,
      "hit": false,
      "t": 173493.59999999992,
      "d": 871.6095572916674,
      "v": 122
    },
    {
      "midi": 64,
      "hit": false,
      "t": 173855.04499999993,
      "d": 152.4846093750093,
      "v": 122
    },
    {
      "midi": 60,
      "hit": false,
      "t": 173855.04499999993,
      "d": 163.77976562501863,
      "v": 122
    },
    {
      "midi": 55,
      "hit": false,
      "t": 173855.04499999993,
      "d": 171.3098697916721,
      "v": 107
    },
    {
      "midi": 60,
      "hit": false,
      "t": 174216.48999999993,
      "d": 265.43617187498603,
      "v": 122
    },
    {
      "midi": 64,
      "hit": false,
      "t": 174216.48999999993,
      "d": 288.02648437497555,
      "v": 122
    },
    {
      "midi": 55,
      "hit": false,
      "t": 174216.48999999993,
      "d": 306.85174479163834,
      "v": 122
    },
    {
      "midi": 50,
      "hit": false,
      "t": 174577.9349999999,
      "d": 977.0310156250198,
      "v": 122
    },
    {
      "midi": 38,
      "hit": false,
      "t": 174577.9349999999,
      "d": 988.3261718750291,
      "v": 122
    },
    {
      "midi": 67,
      "hit": false,
      "t": 174939.37999999992,
      "d": 137.42440104167326,
      "v": 115
    },
    {
      "midi": 62,
      "hit": false,
      "t": 174939.37999999992,
      "d": 148.71955729168258,
      "v": 95
    },
    {
      "midi": 55,
      "hit": false,
      "t": 174939.37999999992,
      "d": 167.54481770834536,
      "v": 107
    },
    {
      "midi": 59,
      "hit": false,
      "t": 174939.37999999992,
      "d": 178.83997395835468,
      "v": 107
    },
    {
      "midi": 62,
      "hit": false,
      "t": 175300.82499999992,
      "d": 208.96039062499767,
      "v": 122
    },
    {
      "midi": 55,
      "hit": false,
      "t": 175300.82499999992,
      "d": 212.7254427083244,
      "v": 122
    },
    {
      "midi": 67,
      "hit": false,
      "t": 175300.82499999992,
      "d": 216.49049479168025,
      "v": 122
    },
    {
      "midi": 59,
      "hit": false,
      "t": 175300.82499999992,
      "d": 220.25554687500698,
      "v": 122
    },
    {
      "midi": 48,
      "hit": false,
      "t": 175662.26999999993,
      "d": 1041.0369010416325,
      "v": 116
    },
    {
      "midi": 72,
      "hit": false,
      "t": 175662.26999999996,
      "d": 1112.572890624986,
      "v": 1
    },
    {
      "midi": 67,
      "hit": false,
      "t": 176023.71499999994,
      "d": 227.78565104166046,
      "v": 62
    },
    {
      "midi": 60,
      "hit": false,
      "t": 176023.71499999994,
      "d": 235.31575520831393,
      "v": 60
    },
    {
      "midi": 64,
      "hit": false,
      "t": 176023.71499999994,
      "d": 235.31575520831393,
      "v": 67
    },
    {
      "midi": 67,
      "hit": false,
      "t": 176385.15999999992,
      "d": 314.3818489583209,
      "v": 73
    },
    {
      "midi": 60,
      "hit": false,
      "t": 176385.15999999992,
      "d": 344.502265624993,
      "v": 71
    },
    {
      "midi": 64,
      "hit": false,
      "t": 176385.15999999992,
      "d": 367.09257812501164,
      "v": 84
    },
    {
      "midi": 47,
      "hit": false,
      "t": 176746.60499999992,
      "d": 472.5140364583349,
      "v": 113
    },
    {
      "midi": 71,
      "hit": false,
      "t": 176746.60499999995,
      "d": 1080.5699479166651,
      "v": 1
    },
    {
      "midi": 67,
      "hit": false,
      "t": 177108.04999999993,
      "d": 310.6167968749942,
      "v": 72
    },
    {
      "midi": 62,
      "hit": false,
      "t": 177108.04999999993,
      "d": 374.6226822916651,
      "v": 94
    },
    {
      "midi": 59,
      "hit": false,
      "t": 177108.04999999993,
      "d": 389.68289062500116,
      "v": 75
    },
    {
      "midi": 47,
      "hit": false,
      "t": 177469.49499999994,
      "d": 303.0866927083407,
      "v": 97
    },
    {
      "midi": 45,
      "hit": false,
      "t": 177830.93999999994,
      "d": 502.634453125007,
      "v": 110
    },
    {
      "midi": 69,
      "hit": false,
      "t": 177830.93999999994,
      "d": 1080.5699479166651,
      "v": 1
    },
    {
      "midi": 65,
      "hit": false,
      "t": 178192.38499999995,
      "d": 393.4479427083279,
      "v": 72
    },
    {
      "midi": 57,
      "hit": false,
      "t": 178192.38499999995,
      "d": 408.50815104166395,
      "v": 61
    },
    {
      "midi": 60,
      "hit": false,
      "t": 178192.38499999995,
      "d": 427.33341145832674,
      "v": 71
    },
    {
      "midi": 45,
      "hit": false,
      "t": 178553.82999999996,
      "d": 272.9662760416395,
      "v": 77
    },
    {
      "midi": 43,
      "hit": false,
      "t": 178915.27499999994,
      "d": 867.8445052083407,
      "v": 110
    },
    {
      "midi": 67,
      "hit": false,
      "t": 178915.27499999994,
      "d": 1080.5699479166651,
      "v": 1
    },
    {
      "midi": 60,
      "hit": false,
      "t": 179276.71999999994,
      "d": 261.6711197916593,
      "v": 72
    },
    {
      "midi": 64,
      "hit": false,
      "t": 179276.71999999994,
      "d": 261.6711197916593,
      "v": 67
    },
    {
      "midi": 64,
      "hit": false,
      "t": 179638.16499999995,
      "d": 175.07492187499884,
      "v": 90
    },
    {
      "midi": 60,
      "hit": false,
      "t": 179638.16499999995,
      "d": 182.6050260416523,
      "v": 99
    },
    {
      "midi": 53,
      "hit": false,
      "t": 179999.60999999993,
      "d": 946.9105989583477,
      "v": 81
    },
    {
      "midi": 57,
      "hit": false,
      "t": 179999.60999999993,
      "d": 950.6756510416744,
      "v": 102
    },
    {
      "midi": 41,
      "hit": false,
      "t": 179999.60999999993,
      "d": 961.9708072916837,
      "v": 79
    },
    {
      "midi": 65,
      "hit": false,
      "t": 179999.60999999993,
      "d": 1080.5699479166651,
      "v": 1
    },
    {
      "midi": 64,
      "hit": false,
      "t": 180361.05499999993,
      "d": 208.96039062499767,
      "v": 78
    },
    {
      "midi": 60,
      "hit": false,
      "t": 180361.05499999993,
      "d": 224.02059895833372,
      "v": 68
    },
    {
      "midi": 64,
      "hit": false,
      "t": 180722.49999999994,
      "d": 276.73132812499534,
      "v": 94
    },
    {
      "midi": 60,
      "hit": false,
      "t": 180722.49999999994,
      "d": 284.2614322916488,
      "v": 82
    },
    {
      "midi": 55,
      "hit": false,
      "t": 181083.94499999992,
      "d": 449.92372395834536,
      "v": 99
    },
    {
      "midi": 40,
      "hit": false,
      "t": 181083.94499999992,
      "d": 596.76075520835,
      "v": 79
    },
    {
      "midi": 52,
      "hit": false,
      "t": 181083.94499999992,
      "d": 608.0559114583593,
      "v": 85
    },
    {
      "midi": 64,
      "hit": false,
      "t": 181083.94499999992,
      "d": 1080.5699479166651,
      "v": 1
    },
    {
      "midi": 60,
      "hit": false,
      "t": 181445.38999999993,
      "d": 438.62856770833605,
      "v": 101
    },
    {
      "midi": 64,
      "hit": false,
      "t": 181445.38999999993,
      "d": 551.5801302083128,
      "v": 101
    },
    {
      "midi": 52,
      "hit": false,
      "t": 181806.83499999993,
      "d": 182.6050260416523,
      "v": 78
    },
    {
      "midi": 40,
      "hit": false,
      "t": 181806.83499999993,
      "d": 193.90018229163252,
      "v": 67
    },
    {
      "midi": 55,
      "hit": false,
      "t": 181806.83499999993,
      "d": 220.25554687497788,
      "v": 81
    },
    {
      "midi": 38,
      "hit": false,
      "t": 182153.21979166658,
      "d": 751.127890624979,
      "v": 96
    },
    {
      "midi": 50,
      "hit": false,
      "t": 182153.21979166658,
      "d": 769.9531510416418,
      "v": 123
    },
    {
      "midi": 62,
      "hit": false,
      "t": 182168.2799999999,
      "d": 1080.5699479166651,
      "v": 1
    },
    {
      "midi": 62,
      "hit": false,
      "t": 182522.19489583324,
      "d": 58.35830729166628,
      "v": 99
    },
    {
      "midi": 69,
      "hit": false,
      "t": 182525.95994791656,
      "d": 137.42440104167326,
      "v": 116
    },
    {
      "midi": 64,
      "hit": false,
      "t": 182601.26098958324,
      "d": 99.77388020831859,
      "v": 77
    },
    {
      "midi": 62,
      "hit": false,
      "t": 182861.04958333322,
      "d": 65.88841145831975,
      "v": 123
    },
    {
      "midi": 69,
      "hit": false,
      "t": 182861.04958333322,
      "d": 374.622682291636,
      "v": 123
    },
    {
      "midi": 64,
      "hit": false,
      "t": 182947.64578124988,
      "d": 265.43617187498603,
      "v": 88
    },
    {
      "midi": 43,
      "hit": false,
      "t": 183245.0848958332,
      "d": 875.3746093750233,
      "v": 99
    },
    {
      "midi": 55,
      "hit": false,
      "t": 183248.84994791652,
      "d": 879.13966145835,
      "v": 123
    },
    {
      "midi": 67,
      "hit": false,
      "t": 183252.6149999999,
      "d": 1086.2175260416698,
      "v": 1
    },
    {
      "midi": 71,
      "hit": false,
      "t": 183489.81328124987,
      "d": 73.41851562500233,
      "v": 116
    },
    {
      "midi": 67,
      "hit": false,
      "t": 183591.46968749986,
      "d": 532.7548697916791,
      "v": 116
    },
    {
      "midi": 71,
      "hit": false,
      "t": 183617.8250520832,
      "d": 506.3995052083337,
      "v": 51
    },
    {
      "midi": 62,
      "hit": false,
      "t": 183952.91468749987,
      "d": 178.83997395832557,
      "v": 108
    },
    {
      "midi": 48,
      "hit": false,
      "t": 184336.94999999987,
      "d": 1041.0369010416325,
      "v": 116
    },
    {
      "midi": 72,
      "hit": false,
      "t": 184336.9499999999,
      "d": 1080.5699479166651,
      "v": 1
    },
    {
      "midi": 67,
      "hit": false,
      "t": 184698.39499999987,
      "d": 227.78565104166046,
      "v": 62
    },
    {
      "midi": 60,
      "hit": false,
      "t": 184698.39499999987,
      "d": 235.31575520831393,
      "v": 60
    },
    {
      "midi": 64,
      "hit": false,
      "t": 184698.39499999987,
      "d": 235.31575520831393,
      "v": 67
    },
    {
      "midi": 67,
      "hit": false,
      "t": 185059.83999999985,
      "d": 314.3818489583209,
      "v": 73
    },
    {
      "midi": 60,
      "hit": false,
      "t": 185059.83999999985,
      "d": 344.502265624993,
      "v": 71
    },
    {
      "midi": 64,
      "hit": false,
      "t": 185059.83999999985,
      "d": 367.09257812501164,
      "v": 84
    },
    {
      "midi": 47,
      "hit": false,
      "t": 185421.28499999986,
      "d": 472.5140364583349,
      "v": 113
    },
    {
      "midi": 71,
      "hit": false,
      "t": 185421.2849999999,
      "d": 1101.2777343750058,
      "v": 1
    },
    {
      "midi": 67,
      "hit": false,
      "t": 185782.72999999986,
      "d": 310.6167968749942,
      "v": 72
    },
    {
      "midi": 62,
      "hit": false,
      "t": 185782.72999999986,
      "d": 374.6226822916651,
      "v": 94
    },
    {
      "midi": 59,
      "hit": false,
      "t": 185782.72999999986,
      "d": 389.68289062500116,
      "v": 75
    },
    {
      "midi": 47,
      "hit": false,
      "t": 186144.17499999987,
      "d": 303.0866927083407,
      "v": 97
    },
    {
      "midi": 45,
      "hit": false,
      "t": 186505.61999999988,
      "d": 502.634453125007,
      "v": 110
    },
    {
      "midi": 69,
      "hit": false,
      "t": 186505.61999999988,
      "d": 1086.2175260416989,
      "v": 1
    },
    {
      "midi": 65,
      "hit": false,
      "t": 186867.0649999999,
      "d": 393.4479427083279,
      "v": 72
    },
    {
      "midi": 57,
      "hit": false,
      "t": 186867.0649999999,
      "d": 408.50815104166395,
      "v": 61
    },
    {
      "midi": 60,
      "hit": false,
      "t": 186867.0649999999,
      "d": 427.33341145832674,
      "v": 71
    },
    {
      "midi": 45,
      "hit": false,
      "t": 187228.5099999999,
      "d": 272.9662760416395,
      "v": 77
    },
    {
      "midi": 43,
      "hit": false,
      "t": 187589.95499999987,
      "d": 867.8445052083407,
      "v": 110
    },
    {
      "midi": 67,
      "hit": false,
      "t": 187589.9549999999,
      "d": 1080.5699479166651,
      "v": 1
    },
    {
      "midi": 60,
      "hit": false,
      "t": 187951.39999999988,
      "d": 261.6711197916593,
      "v": 72
    },
    {
      "midi": 64,
      "hit": false,
      "t": 187951.39999999988,
      "d": 261.6711197916593,
      "v": 67
    },
    {
      "midi": 64,
      "hit": false,
      "t": 188312.84499999988,
      "d": 175.07492187499884,
      "v": 90
    },
    {
      "midi": 60,
      "hit": false,
      "t": 188312.84499999988,
      "d": 182.6050260416523,
      "v": 99
    },
    {
      "midi": 53,
      "hit": false,
      "t": 188674.28999999986,
      "d": 931.8503906250116,
      "v": 112
    },
    {
      "midi": 41,
      "hit": false,
      "t": 188674.28999999986,
      "d": 958.205755208357,
      "v": 106
    },
    {
      "midi": 65,
      "hit": false,
      "t": 188674.2899999999,
      "d": 1080.5699479166651,
      "v": 1
    },
    {
      "midi": 60,
      "hit": false,
      "t": 189035.73499999987,
      "d": 224.02059895833372,
      "v": 77
    },
    {
      "midi": 65,
      "hit": false,
      "t": 189035.73499999987,
      "d": 239.08080729166977,
      "v": 68
    },
    {
      "midi": 57,
      "hit": false,
      "t": 189035.73499999987,
      "d": 250.37596354167908,
      "v": 72
    },
    {
      "midi": 60,
      "hit": false,
      "t": 189397.17999999988,
      "d": 306.85174479166744,
      "v": 97
    },
    {
      "midi": 65,
      "hit": false,
      "t": 189397.17999999988,
      "d": 310.6167968749942,
      "v": 88
    },
    {
      "midi": 57,
      "hit": false,
      "t": 189397.17999999988,
      "d": 321.9119531250035,
      "v": 78
    },
    {
      "midi": 43,
      "hit": false,
      "t": 189758.62499999988,
      "d": 521.4597135416698,
      "v": 109
    },
    {
      "midi": 67,
      "hit": false,
      "t": 189758.62499999988,
      "d": 1080.5699479166651,
      "v": 1
    },
    {
      "midi": 60,
      "hit": false,
      "t": 190120.0699999999,
      "d": 574.1704427083314,
      "v": 84
    },
    {
      "midi": 53,
      "hit": false,
      "t": 190120.0699999999,
      "d": 589.2306510416674,
      "v": 72
    },
    {
      "midi": 57,
      "hit": false,
      "t": 190120.0699999999,
      "d": 592.9957031249942,
      "v": 81
    },
    {
      "midi": 65,
      "hit": false,
      "t": 190120.0699999999,
      "d": 596.7607552083209,
      "v": 92
    },
    {
      "midi": 43,
      "hit": false,
      "t": 190481.5149999999,
      "d": 291.7915364583023,
      "v": 71
    },
    {
      "midi": 36,
      "hit": false,
      "t": 190842.95999999988,
      "d": 833.9590364583128,
      "v": 120
    },
    {
      "midi": 48,
      "hit": false,
      "t": 190842.95999999988,
      "d": 845.2541927083221,
      "v": 127
    },
    {
      "midi": 60,
      "hit": false,
      "t": 190842.95999999988,
      "d": 1622.7374479166756,
      "v": 1
    },
    {
      "midi": 60,
      "hit": false,
      "t": 191204.40499999988,
      "d": 88.47872395833838,
      "v": 68
    },
    {
      "midi": 55,
      "hit": false,
      "t": 191204.40499999988,
      "d": 92.24377604166511,
      "v": 58
    },
    {
      "midi": 64,
      "hit": false,
      "t": 191204.40499999988,
      "d": 96.00882812499185,
      "v": 81
    },
    {
      "midi": 64,
      "hit": false,
      "t": 191565.84999999986,
      "d": 272.9662760416686,
      "v": 127
    },
    {
      "midi": 60,
      "hit": false,
      "t": 191565.84999999986,
      "d": 306.85174479166744,
      "v": 127
    },
    {
      "midi": 55,
      "hit": false,
      "t": 191565.84999999986,
      "d": 329.44205729165697,
      "v": 120
    },
    {
      "midi": 48,
      "hit": false,
      "t": 191927.29499999984,
      "d": 879.1396614582918,
      "v": 127
    },
    {
      "midi": 36,
      "hit": false,
      "t": 191927.29499999984,
      "d": 894.1998697916279,
      "v": 127
    },
    {
      "midi": 64,
      "hit": false,
      "t": 192288.73999999985,
      "d": 99.77388020834769,
      "v": 90
    },
    {
      "midi": 67,
      "hit": false,
      "t": 192288.73999999985,
      "d": 99.77388020834769,
      "v": 87
    },
    {
      "midi": 55,
      "hit": false,
      "t": 192288.73999999985,
      "d": 107.30398437500116,
      "v": 85
    },
    {
      "midi": 60,
      "hit": false,
      "t": 192288.73999999985,
      "d": 114.83408854165464,
      "v": 87
    },
    {
      "midi": 55,
      "hit": false,
      "t": 192650.18499999982,
      "d": 114.83408854165464,
      "v": 127
    },
    {
      "midi": 64,
      "hit": false,
      "t": 192650.18499999982,
      "d": 114.83408854165464,
      "v": 127
    },
    {
      "midi": 60,
      "hit": false,
      "t": 192650.18499999982,
      "d": 133.65934895831742,
      "v": 127
    },
    {
      "midi": 67,
      "hit": false,
      "t": 192650.18499999982,
      "d": 133.65934895831742,
      "v": 127
    },
    {
      "midi": 36,
      "hit": false,
      "t": 193011.6299999998,
      "d": 687.1220052083663,
      "v": 118
    },
    {
      "midi": 48,
      "hit": false,
      "t": 193011.6299999998,
      "d": 818.8988281250349,
      "v": 125
    },
    {
      "midi": 67,
      "hit": false,
      "t": 193373.0749999998,
      "d": 58.35830729166628,
      "v": 44
    },
    {
      "midi": 60,
      "hit": false,
      "t": 193373.0749999998,
      "d": 69.65346354167559,
      "v": 58
    },
    {
      "midi": 64,
      "hit": false,
      "t": 193373.0749999998,
      "d": 73.41851562500233,
      "v": 66
    },
    {
      "midi": 55,
      "hit": false,
      "t": 193373.0749999998,
      "d": 84.71367187501164,
      "v": 58
    },
    {
      "midi": 55,
      "hit": false,
      "t": 193734.51999999984,
      "d": 239.08080729166977,
      "v": 118
    },
    {
      "midi": 67,
      "hit": false,
      "t": 193734.51999999984,
      "d": 257.90606770833256,
      "v": 110
    },
    {
      "midi": 60,
      "hit": false,
      "t": 193734.51999999984,
      "d": 272.9662760416686,
      "v": 125
    },
    {
      "midi": 64,
      "hit": false,
      "t": 193734.51999999984,
      "d": 306.85174479166744,
      "v": 125
    },
    {
      "midi": 47,
      "hit": false,
      "t": 194095.96499999985,
      "d": 468.74898437497905,
      "v": 125
    },
    {
      "midi": 62,
      "hit": false,
      "t": 194457.40999999983,
      "d": 400.9780468750105,
      "v": 118
    },
    {
      "midi": 67,
      "hit": false,
      "t": 194457.40999999983,
      "d": 408.50815104166395,
      "v": 98
    },
    {
      "midi": 59,
      "hit": false,
      "t": 194457.40999999983,
      "d": 446.1586718749895,
      "v": 101
    },
    {
      "midi": 47,
      "hit": false,
      "t": 194818.85499999984,
      "d": 201.4302864583151,
      "v": 125
    },
    {
      "midi": 45,
      "hit": false,
      "t": 195180.2999999998,
      "d": 818.8988281249767,
      "v": 125
    },
    {
      "midi": 57,
      "hit": false,
      "t": 195541.74499999982,
      "d": 122.36419270833721,
      "v": 79
    },
    {
      "midi": 60,
      "hit": false,
      "t": 195541.74499999982,
      "d": 129.8942968749907,
      "v": 81
    },
    {
      "midi": 65,
      "hit": false,
      "t": 195541.74499999982,
      "d": 129.8942968749907,
      "v": 79
    },
    {
      "midi": 60,
      "hit": false,
      "t": 195903.1899999998,
      "d": 284.2614322916488,
      "v": 125
    },
    {
      "midi": 57,
      "hit": false,
      "t": 195903.1899999998,
      "d": 295.55658854165813,
      "v": 118
    },
    {
      "midi": 65,
      "hit": false,
      "t": 195903.1899999998,
      "d": 306.85174479166744,
      "v": 125
    },
    {
      "midi": 43,
      "hit": false,
      "t": 196264.6349999998,
      "d": 826.4289322916884,
      "v": 125
    },
    {
      "midi": 55,
      "hit": false,
      "t": 196626.0799999998,
      "d": 122.36419270833721,
      "v": 81
    },
    {
      "midi": 60,
      "hit": false,
      "t": 196626.0799999998,
      "d": 126.12924479166395,
      "v": 81
    },
    {
      "midi": 64,
      "hit": false,
      "t": 196626.0799999998,
      "d": 144.95450520832674,
      "v": 88
    },
    {
      "midi": 60,
      "hit": false,
      "t": 196987.52499999982,
      "d": 220.25554687500698,
      "v": 125
    },
    {
      "midi": 64,
      "hit": false,
      "t": 196987.52499999982,
      "d": 235.31575520834303,
      "v": 125
    },
    {
      "midi": 55,
      "hit": false,
      "t": 196987.52499999982,
      "d": 272.9662760416686,
      "v": 118
    },
    {
      "midi": 41,
      "hit": false,
      "t": 197348.96999999983,
      "d": 769.9531510416709,
      "v": 125
    },
    {
      "midi": 65,
      "hit": false,
      "t": 197710.41499999983,
      "d": 99.77388020834769,
      "v": 61
    },
    {
      "midi": 60,
      "hit": false,
      "t": 197710.41499999983,
      "d": 118.59914062501048,
      "v": 70
    },
    {
      "midi": 53,
      "hit": false,
      "t": 197710.41499999983,
      "d": 133.65934895834653,
      "v": 61
    },
    {
      "midi": 57,
      "hit": false,
      "t": 197710.41499999983,
      "d": 141.189453125,
      "v": 72
    },
    {
      "midi": 65,
      "hit": false,
      "t": 198071.85999999984,
      "d": 265.43617187498603,
      "v": 101
    },
    {
      "midi": 60,
      "hit": false,
      "t": 198071.85999999984,
      "d": 295.55658854165813,
      "v": 98
    },
    {
      "midi": 53,
      "hit": false,
      "t": 198071.85999999984,
      "d": 325.67700520833023,
      "v": 118
    },
    {
      "midi": 57,
      "hit": false,
      "t": 198071.85999999984,
      "d": 344.502265624993,
      "v": 110
    },
    {
      "midi": 43,
      "hit": false,
      "t": 198433.30499999985,
      "d": 698.4171614583465,
      "v": 125
    },
    {
      "midi": 65,
      "hit": false,
      "t": 198794.74999999985,
      "d": 129.8942968749907,
      "v": 85
    },
    {
      "midi": 53,
      "hit": false,
      "t": 198794.74999999985,
      "d": 152.4846093749802,
      "v": 79
    },
    {
      "midi": 60,
      "hit": false,
      "t": 198794.74999999985,
      "d": 152.4846093749802,
      "v": 70
    },
    {
      "midi": 57,
      "hit": false,
      "t": 198794.74999999985,
      "d": 178.83997395832557,
      "v": 83
    },
    {
      "midi": 60,
      "hit": false,
      "t": 199156.19499999986,
      "d": 197.66523437498836,
      "v": 90
    },
    {
      "midi": 53,
      "hit": false,
      "t": 199156.19499999986,
      "d": 205.19533854164183,
      "v": 101
    },
    {
      "midi": 57,
      "hit": false,
      "t": 199156.19499999986,
      "d": 220.25554687497788,
      "v": 95
    },
    {
      "midi": 65,
      "hit": false,
      "t": 199156.19499999986,
      "d": 257.90606770830345,
      "v": 92
    },
    {
      "midi": 48,
      "hit": false,
      "t": 199517.63999999984,
      "d": 852.7842968750047,
      "v": 125
    },
    {
      "midi": 36,
      "hit": false,
      "t": 199517.63999999984,
      "d": 909.260078124993,
      "v": 125
    },
    {
      "midi": 60,
      "hit": false,
      "t": 199879.08499999985,
      "d": 118.59914062501048,
      "v": 72
    },
    {
      "midi": 55,
      "hit": false,
      "t": 199879.08499999985,
      "d": 122.36419270833721,
      "v": 59
    },
    {
      "midi": 64,
      "hit": false,
      "t": 199879.08499999985,
      "d": 148.71955729168258,
      "v": 85
    },
    {
      "midi": 55,
      "hit": false,
      "t": 200240.52999999985,
      "d": 363.3275260416558,
      "v": 101
    },
    {
      "midi": 64,
      "hit": false,
      "t": 200240.52999999985,
      "d": 367.09257812498254,
      "v": 125
    },
    {
      "midi": 60,
      "hit": false,
      "t": 200240.52999999985,
      "d": 374.622682291636,
      "v": 125
    },
    {
      "midi": 36,
      "hit": false,
      "t": 200601.97499999983,
      "d": 785.0133593749779,
      "v": 125
    },
    {
      "midi": 48,
      "hit": false,
      "t": 200601.97499999983,
      "d": 856.5493489583023,
      "v": 125
    },
    {
      "midi": 60,
      "hit": false,
      "t": 200963.4199999998,
      "d": 103.53893229167443,
      "v": 85
    },
    {
      "midi": 55,
      "hit": false,
      "t": 200963.4199999998,
      "d": 107.30398437500116,
      "v": 72
    },
    {
      "midi": 64,
      "hit": false,
      "t": 200963.4199999998,
      "d": 122.36419270833721,
      "v": 81
    },
    {
      "midi": 64,
      "hit": false,
      "t": 201324.86499999982,
      "d": 325.67700520833023,
      "v": 125
    },
    {
      "midi": 55,
      "hit": false,
      "t": 201324.86499999982,
      "d": 355.7974218750023,
      "v": 125
    },
    {
      "midi": 60,
      "hit": false,
      "t": 201324.86499999982,
      "d": 382.1527864583477,
      "v": 125
    },
    {
      "midi": 36,
      "hit": false,
      "t": 201686.30999999982,
      "d": 867.8445052083116,
      "v": 125
    },
    {
      "midi": 48,
      "hit": false,
      "t": 201686.30999999982,
      "d": 882.9047135416477,
      "v": 125
    },
    {
      "midi": 65,
      "hit": false,
      "t": 202047.75499999983,
      "d": 133.65934895834653,
      "v": 90
    },
    {
      "midi": 60,
      "hit": false,
      "t": 202047.75499999983,
      "d": 171.3098697916721,
      "v": 98
    },
    {
      "midi": 57,
      "hit": false,
      "t": 202047.75499999983,
      "d": 178.83997395832557,
      "v": 92
    },
    {
      "midi": 65,
      "hit": false,
      "t": 202409.1999999998,
      "d": 325.67700520833023,
      "v": 125
    },
    {
      "midi": 57,
      "hit": false,
      "t": 202409.1999999998,
      "d": 374.6226822916651,
      "v": 125
    },
    {
      "midi": 60,
      "hit": false,
      "t": 202409.1999999998,
      "d": 374.6226822916651,
      "v": 125
    },
    {
      "midi": 48,
      "hit": false,
      "t": 202770.64499999981,
      "d": 698.4171614583174,
      "v": 125
    },
    {
      "midi": 36,
      "hit": false,
      "t": 202770.64499999981,
      "d": 822.6638802083326,
      "v": 118
    },
    {
      "midi": 65,
      "hit": false,
      "t": 203132.08999999982,
      "d": 163.77976562498952,
      "v": 72
    },
    {
      "midi": 60,
      "hit": false,
      "t": 203132.08999999982,
      "d": 171.309869791643,
      "v": 79
    },
    {
      "midi": 57,
      "hit": false,
      "t": 203132.08999999982,
      "d": 178.83997395829647,
      "v": 72
    },
    {
      "midi": 65,
      "hit": false,
      "t": 203493.5349999998,
      "d": 148.71955729168258,
      "v": 125
    },
    {
      "midi": 60,
      "hit": false,
      "t": 203493.5349999998,
      "d": 152.4846093750093,
      "v": 125
    },
    {
      "midi": 57,
      "hit": false,
      "t": 203493.5349999998,
      "d": 175.07492187499884,
      "v": 125
    },
    {
      "midi": 48,
      "hit": false,
      "t": 203854.9799999998,
      "d": 1041.0369010416325,
      "v": 127
    },
    {
      "midi": 67,
      "hit": false,
      "t": 204216.4249999998,
      "d": 227.78565104166046,
      "v": 75
    },
    {
      "midi": 60,
      "hit": false,
      "t": 204216.4249999998,
      "d": 235.31575520831393,
      "v": 73
    },
    {
      "midi": 64,
      "hit": false,
      "t": 204216.4249999998,
      "d": 235.31575520831393,
      "v": 80
    },
    {
      "midi": 67,
      "hit": false,
      "t": 204577.8699999998,
      "d": 314.3818489583209,
      "v": 86
    },
    {
      "midi": 60,
      "hit": false,
      "t": 204577.8699999998,
      "d": 344.502265624993,
      "v": 84
    },
    {
      "midi": 64,
      "hit": false,
      "t": 204577.8699999998,
      "d": 367.09257812501164,
      "v": 97
    },
    {
      "midi": 47,
      "hit": false,
      "t": 204939.3149999998,
      "d": 472.5140364583349,
      "v": 126
    },
    {
      "midi": 67,
      "hit": false,
      "t": 205300.7599999998,
      "d": 310.6167968749942,
      "v": 85
    },
    {
      "midi": 62,
      "hit": false,
      "t": 205300.7599999998,
      "d": 374.6226822916651,
      "v": 107
    },
    {
      "midi": 59,
      "hit": false,
      "t": 205300.7599999998,
      "d": 389.68289062500116,
      "v": 88
    },
    {
      "midi": 47,
      "hit": false,
      "t": 205662.2049999998,
      "d": 303.0866927083407,
      "v": 110
    },
    {
      "midi": 45,
      "hit": false,
      "t": 206023.64999999982,
      "d": 502.634453125007,
      "v": 123
    },
    {
      "midi": 65,
      "hit": false,
      "t": 206385.09499999983,
      "d": 393.4479427083279,
      "v": 85
    },
    {
      "midi": 57,
      "hit": false,
      "t": 206385.09499999983,
      "d": 408.50815104166395,
      "v": 74
    },
    {
      "midi": 60,
      "hit": false,
      "t": 206385.09499999983,
      "d": 427.33341145832674,
      "v": 84
    },
    {
      "midi": 45,
      "hit": false,
      "t": 206746.53999999983,
      "d": 272.9662760416395,
      "v": 90
    },
    {
      "midi": 43,
      "hit": false,
      "t": 207107.9849999998,
      "d": 867.8445052083407,
      "v": 123
    },
    {
      "midi": 60,
      "hit": false,
      "t": 207469.42999999982,
      "d": 224.02059895833372,
      "v": 85
    },
    {
      "midi": 64,
      "hit": false,
      "t": 207469.42999999982,
      "d": 224.02059895833372,
      "v": 80
    },
    {
      "midi": 64,
      "hit": false,
      "t": 207830.87499999983,
      "d": 175.07492187499884,
      "v": 103
    },
    {
      "midi": 60,
      "hit": false,
      "t": 207830.87499999983,
      "d": 182.6050260416523,
      "v": 112
    },
    {
      "midi": 53,
      "hit": false,
      "t": 208192.3199999998,
      "d": 946.9105989583477,
      "v": 94
    },
    {
      "midi": 57,
      "hit": false,
      "t": 208192.3199999998,
      "d": 950.6756510416744,
      "v": 115
    },
    {
      "midi": 41,
      "hit": false,
      "t": 208192.3199999998,
      "d": 961.9708072916837,
      "v": 92
    },
    {
      "midi": 65,
      "hit": false,
      "t": 208553.7649999998,
      "d": 208.96039062499767,
      "v": 91
    },
    {
      "midi": 60,
      "hit": false,
      "t": 208553.7649999998,
      "d": 224.02059895833372,
      "v": 81
    },
    {
      "midi": 65,
      "hit": false,
      "t": 208915.20999999982,
      "d": 276.73132812499534,
      "v": 107
    },
    {
      "midi": 60,
      "hit": false,
      "t": 208915.20999999982,
      "d": 284.2614322916488,
      "v": 95
    },
    {
      "midi": 55,
      "hit": false,
      "t": 209276.6549999998,
      "d": 449.92372395834536,
      "v": 112
    },
    {
      "midi": 40,
      "hit": false,
      "t": 209276.6549999998,
      "d": 596.76075520835,
      "v": 92
    },
    {
      "midi": 52,
      "hit": false,
      "t": 209276.6549999998,
      "d": 608.0559114583593,
      "v": 98
    },
    {
      "midi": 60,
      "hit": false,
      "t": 209638.0999999998,
      "d": 438.62856770833605,
      "v": 114
    },
    {
      "midi": 64,
      "hit": false,
      "t": 209638.0999999998,
      "d": 551.5801302083128,
      "v": 114
    },
    {
      "midi": 52,
      "hit": false,
      "t": 209999.5449999998,
      "d": 182.6050260416523,
      "v": 91
    },
    {
      "midi": 40,
      "hit": false,
      "t": 209999.5449999998,
      "d": 193.90018229163252,
      "v": 80
    },
    {
      "midi": 55,
      "hit": false,
      "t": 209999.5449999998,
      "d": 220.25554687497788,
      "v": 94
    },
    {
      "midi": 38,
      "hit": false,
      "t": 210360.9899999998,
      "d": 751.127890624979,
      "v": 109
    },
    {
      "midi": 50,
      "hit": false,
      "t": 210360.9899999998,
      "d": 769.9531510416418,
      "v": 127
    },
    {
      "midi": 62,
      "hit": false,
      "t": 210722.4349999998,
      "d": 58.35830729166628,
      "v": 112
    },
    {
      "midi": 64,
      "hit": false,
      "t": 210722.4349999998,
      "d": 99.77388020831859,
      "v": 90
    },
    {
      "midi": 69,
      "hit": false,
      "t": 210722.4349999998,
      "d": 137.42440104164416,
      "v": 127
    },
    {
      "midi": 62,
      "hit": false,
      "t": 211083.87999999977,
      "d": 65.88841145831975,
      "v": 127
    },
    {
      "midi": 64,
      "hit": false,
      "t": 211083.87999999977,
      "d": 265.43617187498603,
      "v": 101
    },
    {
      "midi": 69,
      "hit": false,
      "t": 211083.87999999977,
      "d": 374.622682291636,
      "v": 127
    },
    {
      "midi": 43,
      "hit": false,
      "t": 211445.32499999975,
      "d": 875.3746093750233,
      "v": 112
    },
    {
      "midi": 55,
      "hit": false,
      "t": 211445.32499999975,
      "d": 879.13966145835,
      "v": 127
    },
    {
      "midi": 71,
      "hit": false,
      "t": 211644.87276041642,
      "d": 73.41851562500233,
      "v": 127
    },
    {
      "midi": 67,
      "hit": false,
      "t": 211806.76999999976,
      "d": 532.7548697916791,
      "v": 127
    },
    {
      "midi": 62,
      "hit": false,
      "t": 212168.21499999976,
      "d": 178.83997395832557,
      "v": 121
    },
    {
      "midi": 48,
      "hit": false,
      "t": 212529.65999999974,
      "d": 1041.0369010416325,
      "v": 127
    },
    {
      "midi": 67,
      "hit": false,
      "t": 212891.10499999975,
      "d": 227.78565104166046,
      "v": 75
    },
    {
      "midi": 60,
      "hit": false,
      "t": 212891.10499999975,
      "d": 235.31575520831393,
      "v": 73
    },
    {
      "midi": 64,
      "hit": false,
      "t": 212891.10499999975,
      "d": 235.31575520831393,
      "v": 80
    },
    {
      "midi": 67,
      "hit": false,
      "t": 213252.54999999973,
      "d": 314.3818489583209,
      "v": 86
    },
    {
      "midi": 60,
      "hit": false,
      "t": 213252.54999999973,
      "d": 344.502265624993,
      "v": 84
    },
    {
      "midi": 64,
      "hit": false,
      "t": 213252.54999999973,
      "d": 367.09257812501164,
      "v": 97
    },
    {
      "midi": 47,
      "hit": false,
      "t": 213613.99499999973,
      "d": 472.5140364583349,
      "v": 126
    },
    {
      "midi": 67,
      "hit": false,
      "t": 213975.43999999974,
      "d": 310.6167968749942,
      "v": 85
    },
    {
      "midi": 62,
      "hit": false,
      "t": 213975.43999999974,
      "d": 374.6226822916651,
      "v": 107
    },
    {
      "midi": 59,
      "hit": false,
      "t": 213975.43999999974,
      "d": 389.68289062500116,
      "v": 88
    },
    {
      "midi": 47,
      "hit": false,
      "t": 214336.88499999975,
      "d": 303.0866927083407,
      "v": 110
    },
    {
      "midi": 45,
      "hit": false,
      "t": 214698.32999999975,
      "d": 502.634453125007,
      "v": 123
    },
    {
      "midi": 65,
      "hit": false,
      "t": 215059.77499999976,
      "d": 393.4479427083279,
      "v": 85
    },
    {
      "midi": 57,
      "hit": false,
      "t": 215059.77499999976,
      "d": 408.50815104166395,
      "v": 74
    },
    {
      "midi": 60,
      "hit": false,
      "t": 215059.77499999976,
      "d": 427.33341145832674,
      "v": 84
    },
    {
      "midi": 45,
      "hit": false,
      "t": 215421.21999999977,
      "d": 272.9662760416395,
      "v": 90
    },
    {
      "midi": 43,
      "hit": false,
      "t": 215782.66499999975,
      "d": 867.8445052083407,
      "v": 123
    },
    {
      "midi": 60,
      "hit": false,
      "t": 216144.10999999975,
      "d": 224.02059895833372,
      "v": 85
    },
    {
      "midi": 64,
      "hit": false,
      "t": 216144.10999999975,
      "d": 224.02059895833372,
      "v": 80
    },
    {
      "midi": 64,
      "hit": false,
      "t": 216505.55499999976,
      "d": 175.07492187499884,
      "v": 103
    },
    {
      "midi": 60,
      "hit": false,
      "t": 216505.55499999976,
      "d": 182.6050260416523,
      "v": 112
    },
    {
      "midi": 53,
      "hit": false,
      "t": 216866.99999999974,
      "d": 931.8503906250116,
      "v": 125
    },
    {
      "midi": 41,
      "hit": false,
      "t": 216866.99999999974,
      "d": 958.205755208357,
      "v": 119
    },
    {
      "midi": 60,
      "hit": false,
      "t": 217228.44499999975,
      "d": 224.02059895833372,
      "v": 90
    },
    {
      "midi": 65,
      "hit": false,
      "t": 217228.44499999975,
      "d": 239.08080729166977,
      "v": 81
    },
    {
      "midi": 57,
      "hit": false,
      "t": 217228.44499999975,
      "d": 250.37596354167908,
      "v": 85
    },
    {
      "midi": 60,
      "hit": false,
      "t": 217589.88999999975,
      "d": 306.85174479166744,
      "v": 110
    },
    {
      "midi": 65,
      "hit": false,
      "t": 217589.88999999975,
      "d": 310.6167968749942,
      "v": 101
    },
    {
      "midi": 57,
      "hit": false,
      "t": 217589.88999999975,
      "d": 321.9119531250035,
      "v": 91
    },
    {
      "midi": 43,
      "hit": false,
      "t": 217951.33499999976,
      "d": 521.4597135416698,
      "v": 122
    },
    {
      "midi": 60,
      "hit": false,
      "t": 218312.77999999977,
      "d": 574.1704427083314,
      "v": 97
    },
    {
      "midi": 53,
      "hit": false,
      "t": 218312.77999999977,
      "d": 589.2306510416674,
      "v": 85
    },
    {
      "midi": 57,
      "hit": false,
      "t": 218312.77999999977,
      "d": 592.9957031249942,
      "v": 94
    },
    {
      "midi": 65,
      "hit": false,
      "t": 218312.77999999977,
      "d": 596.7607552083209,
      "v": 105
    },
    {
      "midi": 43,
      "hit": false,
      "t": 218674.22499999977,
      "d": 291.7915364583023,
      "v": 84
    },
    {
      "midi": 36,
      "hit": false,
      "t": 219035.66999999975,
      "d": 833.9590364583128,
      "v": 127
    },
    {
      "midi": 48,
      "hit": false,
      "t": 219035.66999999975,
      "d": 845.2541927083221,
      "v": 127
    },
    {
      "midi": 60,
      "hit": false,
      "t": 219397.11499999976,
      "d": 88.47872395833838,
      "v": 81
    },
    {
      "midi": 55,
      "hit": false,
      "t": 219397.11499999976,
      "d": 92.24377604166511,
      "v": 71
    },
    {
      "midi": 64,
      "hit": false,
      "t": 219397.11499999976,
      "d": 96.00882812499185,
      "v": 94
    },
    {
      "midi": 64,
      "hit": false,
      "t": 219758.55999999974,
      "d": 272.9662760416977,
      "v": 127
    },
    {
      "midi": 60,
      "hit": false,
      "t": 219758.55999999974,
      "d": 306.85174479169655,
      "v": 127
    },
    {
      "midi": 55,
      "hit": false,
      "t": 219758.55999999974,
      "d": 329.44205729168607,
      "v": 127
    },
    {
      "midi": 36,
      "hit": false,
      "t": 220120.00499999974,
      "d": 532.75486979165,
      "v": 120
    },
    {
      "midi": 48,
      "hit": false,
      "t": 220120.00499999974,
      "d": 585.4655989583116,
      "v": 127
    },
    {
      "midi": 64,
      "hit": false,
      "t": 220481.44999999975,
      "d": 163.77976562498952,
      "v": 127
    },
    {
      "midi": 60,
      "hit": false,
      "t": 220481.44999999975,
      "d": 197.66523437498836,
      "v": 120
    },
    {
      "midi": 67,
      "hit": false,
      "t": 220481.44999999975,
      "d": 220.25554687497788,
      "v": 120
    },
    {
      "midi": 55,
      "hit": false,
      "t": 220481.44999999975,
      "d": 224.02059895830462,
      "v": 100
    },
    {
      "midi": 62,
      "hit": false,
      "t": 220842.89499999973,
      "d": 220.25554687500698,
      "v": 120
    },
    {
      "midi": 67,
      "hit": false,
      "t": 220842.89499999973,
      "d": 220.25554687500698,
      "v": 120
    },
    {
      "midi": 55,
      "hit": false,
      "t": 220842.89499999973,
      "d": 227.78565104166046,
      "v": 92
    },
    {
      "midi": 59,
      "hit": false,
      "t": 220842.89499999973,
      "d": 242.8458593749965,
      "v": 120
    },
    {
      "midi": 47,
      "hit": false,
      "t": 220842.89499999973,
      "d": 257.90606770833256,
      "v": 120
    },
    {
      "midi": 57,
      "hit": false,
      "t": 221204.33999999973,
      "d": 916.7901822916756,
      "v": 127
    },
    {
      "midi": 45,
      "hit": false,
      "t": 221204.33999999973,
      "d": 931.8503906250116,
      "v": 127
    },
    {
      "midi": 72,
      "hit": false,
      "t": 221370.0022916664,
      "d": 160.0147135416628,
      "v": 127
    },
    {
      "midi": 74,
      "hit": false,
      "t": 221565.78499999974,
      "d": 148.71955729165347,
      "v": 127
    },
    {
      "midi": 76,
      "hit": false,
      "t": 221735.21234374974,
      "d": 148.71955729165347,
      "v": 127
    },
    {
      "midi": 77,
      "hit": false,
      "t": 221915.9348437497,
      "d": 133.65934895834653,
      "v": 112
    },
    {
      "midi": 79,
      "hit": false,
      "t": 222085.36218749973,
      "d": 182.6050260416814,
      "v": 127
    },
    {
      "midi": 81,
      "hit": false,
      "t": 222288.67499999976,
      "d": 152.4846093750093,
      "v": 127
    },
    {
      "midi": 55,
      "hit": false,
      "t": 222288.67499999976,
      "d": 920.5552343749732,
      "v": 127
    },
    {
      "midi": 43,
      "hit": false,
      "t": 222288.67499999976,
      "d": 928.0853385416267,
      "v": 127
    },
    {
      "midi": 84,
      "hit": false,
      "t": 222469.39749999976,
      "d": 193.90018229166162,
      "v": 127
    },
    {
      "midi": 79,
      "hit": false,
      "t": 222812.01723958307,
      "d": 148.71955729165347,
      "v": 127
    },
    {
      "midi": 76,
      "hit": false,
      "t": 223007.79994791638,
      "d": 190.13513020833489,
      "v": 127
    },
    {
      "midi": 77,
      "hit": false,
      "t": 223369.2449479164,
      "d": 137.42440104164416,
      "v": 127
    },
    {
      "midi": 54,
      "hit": false,
      "t": 223373.00999999972,
      "d": 886.6697656250035,
      "v": 127
    },
    {
      "midi": 42,
      "hit": false,
      "t": 223373.00999999972,
      "d": 890.4348177083302,
      "v": 127
    },
    {
      "midi": 78,
      "hit": false,
      "t": 223538.67229166636,
      "d": 69.65346354167559,
      "v": 106
    },
    {
      "midi": 74,
      "hit": false,
      "t": 223726.92489583304,
      "d": 220.25554687500698,
      "v": 97
    },
    {
      "midi": 86,
      "hit": false,
      "t": 223730.68994791637,
      "d": 224.02059895833372,
      "v": 127
    },
    {
      "midi": 74,
      "hit": false,
      "t": 224095.8999999997,
      "d": 197.66523437498836,
      "v": 127
    },
    {
      "midi": 86,
      "hit": false,
      "t": 224099.66505208303,
      "d": 171.3098697916721,
      "v": 127
    },
    {
      "midi": 72,
      "hit": false,
      "t": 224457.34499999968,
      "d": 163.77976562501863,
      "v": 127
    },
    {
      "midi": 84,
      "hit": false,
      "t": 224457.34499999968,
      "d": 197.66523437501746,
      "v": 127
    },
    {
      "midi": 41,
      "hit": false,
      "t": 224457.34499999968,
      "d": 973.265963541664,
      "v": 127
    },
    {
      "midi": 53,
      "hit": false,
      "t": 224457.34499999968,
      "d": 973.265963541664,
      "v": 127
    },
    {
      "midi": 79,
      "hit": false,
      "t": 224656.89276041638,
      "d": 156.24966145833605,
      "v": 127
    },
    {
      "midi": 77,
      "hit": false,
      "t": 224845.14536458303,
      "d": 118.59914062501048,
      "v": 127
    },
    {
      "midi": 72,
      "hit": false,
      "t": 225007.04260416637,
      "d": 148.71955729165347,
      "v": 127
    },
    {
      "midi": 69,
      "hit": false,
      "t": 225195.29520833303,
      "d": 114.83408854165464,
      "v": 127
    },
    {
      "midi": 72,
      "hit": false,
      "t": 225349.6623437497,
      "d": 73.41851562500233,
      "v": 127
    },
    {
      "midi": 74,
      "hit": false,
      "t": 225537.91494791635,
      "d": 152.4846093749802,
      "v": 127
    },
    {
      "midi": 57,
      "hit": false,
      "t": 225541.67999999967,
      "d": 920.5552343750023,
      "v": 127
    },
    {
      "midi": 45,
      "hit": false,
      "t": 225541.67999999967,
      "d": 961.9708072916546,
      "v": 127
    },
    {
      "midi": 75,
      "hit": false,
      "t": 225722.40249999965,
      "d": 152.4846093750093,
      "v": 127
    },
    {
      "midi": 76,
      "hit": false,
      "t": 225910.65510416633,
      "d": 122.36419270833721,
      "v": 94
    },
    {
      "midi": 79,
      "hit": false,
      "t": 226080.08244791633,
      "d": 144.95450520832674,
      "v": 127
    },
    {
      "midi": 84,
      "hit": false,
      "t": 226275.86515624967,
      "d": 171.3098697916721,
      "v": 127
    },
    {
      "midi": 55,
      "hit": false,
      "t": 226626.01499999966,
      "d": 924.3202864583,
      "v": 127
    },
    {
      "midi": 43,
      "hit": false,
      "t": 226626.01499999966,
      "d": 954.4407031249721,
      "v": 94
    },
    {
      "midi": 84,
      "hit": false,
      "t": 226641.075208333,
      "d": 129.89429687496158,
      "v": 127
    },
    {
      "midi": 81,
      "hit": false,
      "t": 226644.84026041633,
      "d": 122.36419270830811,
      "v": 127
    },
    {
      "midi": 79,
      "hit": false,
      "t": 226814.2676041663,
      "d": 126.12924479166395,
      "v": 92
    },
    {
      "midi": 76,
      "hit": false,
      "t": 226987.4599999996,
      "d": 73.41851562500233,
      "v": 76
    },
    {
      "midi": 75,
      "hit": false,
      "t": 227145.59218749963,
      "d": 148.71955729165347,
      "v": 127
    },
    {
      "midi": 74,
      "hit": false,
      "t": 227348.90499999962,
      "d": 122.36419270833721,
      "v": 94
    },
    {
      "midi": 72,
      "hit": false,
      "t": 227510.80223958296,
      "d": 65.88841145834886,
      "v": 112
    },
    {
      "midi": 62,
      "hit": false,
      "t": 227710.34999999963,
      "d": 577.9354947916872,
      "v": 127
    },
    {
      "midi": 74,
      "hit": false,
      "t": 227710.34999999963,
      "d": 596.76075520835,
      "v": 127
    },
    {
      "midi": 69,
      "hit": false,
      "t": 227710.34999999963,
      "d": 600.5258072916768,
      "v": 127
    },
    {
      "midi": 66,
      "hit": false,
      "t": 227710.34999999963,
      "d": 615.5860156250128,
      "v": 127
    },
    {
      "midi": 38,
      "hit": false,
      "t": 227710.34999999963,
      "d": 879.13966145835,
      "v": 127
    },
    {
      "midi": 50,
      "hit": false,
      "t": 228071.79499999963,
      "d": 581.700546875014,
      "v": 127
    },
    {
      "midi": 74,
      "hit": false,
      "t": 228433.23999999964,
      "d": 144.95450520832674,
      "v": 127
    },
    {
      "midi": 62,
      "hit": false,
      "t": 228433.23999999964,
      "d": 224.02059895833372,
      "v": 127
    },
    {
      "midi": 69,
      "hit": false,
      "t": 228433.23999999964,
      "d": 235.31575520834303,
      "v": 120
    },
    {
      "midi": 66,
      "hit": false,
      "t": 228433.23999999964,
      "d": 242.8458593749965,
      "v": 127
    },
    {
      "midi": 60,
      "hit": false,
      "t": 228794.68499999965,
      "d": 239.08080729164067,
      "v": 127
    },
    {
      "midi": 69,
      "hit": false,
      "t": 228794.68499999965,
      "d": 288.02648437497555,
      "v": 127
    },
    {
      "midi": 65,
      "hit": false,
      "t": 228794.68499999965,
      "d": 291.7915364583023,
      "v": 127
    },
    {
      "midi": 72,
      "hit": false,
      "t": 228794.68499999965,
      "d": 303.0866927083116,
      "v": 127
    },
    {
      "midi": 41,
      "hit": false,
      "t": 228794.68499999965,
      "d": 882.9047135416477,
      "v": 127
    },
    {
      "midi": 72,
      "hit": false,
      "t": 229156.12999999963,
      "d": 190.13513020833489,
      "v": 40
    },
    {
      "midi": 60,
      "hit": false,
      "t": 229156.12999999963,
      "d": 205.19533854167094,
      "v": 70
    },
    {
      "midi": 65,
      "hit": false,
      "t": 229156.12999999963,
      "d": 239.08080729166977,
      "v": 90
    },
    {
      "midi": 69,
      "hit": false,
      "t": 229156.12999999963,
      "d": 242.8458593749965,
      "v": 92
    },
    {
      "midi": 53,
      "hit": false,
      "t": 229156.12999999963,
      "d": 495.1043489583244,
      "v": 112
    },
    {
      "midi": 60,
      "hit": false,
      "t": 229517.57499999963,
      "d": 126.12924479166395,
      "v": 127
    },
    {
      "midi": 69,
      "hit": false,
      "t": 229517.57499999963,
      "d": 129.8942968749907,
      "v": 127
    },
    {
      "midi": 72,
      "hit": false,
      "t": 229517.57499999963,
      "d": 133.65934895831742,
      "v": 127
    },
    {
      "midi": 65,
      "hit": false,
      "t": 229517.57499999963,
      "d": 148.71955729165347,
      "v": 127
    },
    {
      "midi": 57,
      "hit": false,
      "t": 229879.01999999964,
      "d": 894.1998697916861,
      "v": 127
    },
    {
      "midi": 45,
      "hit": false,
      "t": 229879.01999999964,
      "d": 931.8503906250116,
      "v": 127
    },
    {
      "midi": 72,
      "hit": false,
      "t": 230059.74249999964,
      "d": 122.36419270833721,
      "v": 127
    },
    {
      "midi": 74,
      "hit": false,
      "t": 230240.46499999965,
      "d": 107.30398437500116,
      "v": 127
    },
    {
      "midi": 75,
      "hit": false,
      "t": 230421.18749999965,
      "d": 84.71367187501164,
      "v": 127
    },
    {
      "midi": 76,
      "hit": false,
      "t": 230601.90999999965,
      "d": 126.12924479166395,
      "v": 92
    },
    {
      "midi": 79,
      "hit": false,
      "t": 230782.63249999966,
      "d": 111.0690364583279,
      "v": 127
    },
    {
      "midi": 84,
      "hit": false,
      "t": 230963.35499999966,
      "d": 156.24966145833605,
      "v": 127
    },
    {
      "midi": 55,
      "hit": false,
      "t": 230963.35499999966,
      "d": 882.9047135416768,
      "v": 127
    },
    {
      "midi": 43,
      "hit": false,
      "t": 230963.35499999966,
      "d": 890.4348177083302,
      "v": 127
    },
    {
      "midi": 81,
      "hit": false,
      "t": 231324.79999999967,
      "d": 152.4846093750093,
      "v": 127
    },
    {
      "midi": 84,
      "hit": false,
      "t": 231324.79999999967,
      "d": 431.0984635416826,
      "v": 127
    },
    {
      "midi": 79,
      "hit": false,
      "t": 231505.52249999967,
      "d": 133.65934895834653,
      "v": 97
    },
    {
      "midi": 76,
      "hit": false,
      "t": 231686.24499999968,
      "d": 111.0690364583279,
      "v": 127
    },
    {
      "midi": 69,
      "hit": false,
      "t": 232047.68999999965,
      "d": 389.68289062500116,
      "v": 112
    },
    {
      "midi": 81,
      "hit": false,
      "t": 232047.68999999965,
      "d": 427.33341145832674,
      "v": 127
    },
    {
      "midi": 78,
      "hit": false,
      "t": 232047.68999999965,
      "d": 461.2188802083256,
      "v": 127
    },
    {
      "midi": 50,
      "hit": false,
      "t": 232047.68999999965,
      "d": 875.3746093749942,
      "v": 127
    },
    {
      "midi": 62,
      "hit": false,
      "t": 232409.13499999966,
      "d": 626.881171874993,
      "v": 127
    },
    {
      "midi": 76,
      "hit": false,
      "t": 232589.85749999963,
      "d": 69.65346354167559,
      "v": 100
    },
    {
      "midi": 69,
      "hit": false,
      "t": 232589.85749999963,
      "d": 107.30398437500116,
      "v": 90
    },
    {
      "midi": 81,
      "hit": false,
      "t": 232589.85749999963,
      "d": 367.09257812501164,
      "v": 81
    },
    {
      "midi": 74,
      "hit": false,
      "t": 232770.57999999964,
      "d": 762.4230468749884,
      "v": 127
    },
    {
      "midi": 69,
      "hit": false,
      "t": 232770.57999999964,
      "d": 1225.5244531249919,
      "v": 40
    },
    {
      "midi": 81,
      "hit": false,
      "t": 233132.02499999964,
      "d": 393.4479427083279,
      "v": 15
    },
    {
      "midi": 50,
      "hit": false,
      "t": 233132.02499999964,
      "d": 901.7299739583395,
      "v": 127
    },
    {
      "midi": 62,
      "hit": false,
      "t": 233493.46999999965,
      "d": 216.49049479165114,
      "v": 127
    },
    {
      "midi": 74,
      "hit": false,
      "t": 233674.19249999963,
      "d": 288.02648437500466,
      "v": 4
    },
    {
      "midi": 60,
      "hit": false,
      "t": 233854.91499999963,
      "d": 167.54481770834536,
      "v": 127
    },
    {
      "midi": 55,
      "hit": false,
      "t": 234216.35999999964,
      "d": 193.90018229166162,
      "v": 127
    },
    {
      "midi": 62,
      "hit": false,
      "t": 234216.35999999964,
      "d": 431.0984635416826,
      "v": 127
    },
    {
      "midi": 43,
      "hit": false,
      "t": 234216.35999999964,
      "d": 901.7299739583686,
      "v": 127
    },
    {
      "midi": 67,
      "hit": false,
      "t": 234216.35999999964,
      "d": 1989.8300260416872,
      "v": 127
    },
    {
      "midi": 71,
      "hit": false,
      "t": 234216.35999999964,
      "d": 2001.1251822916965,
      "v": 127
    },
    {
      "midi": 55,
      "hit": false,
      "t": 234577.80499999964,
      "d": 178.83997395835468,
      "v": 85
    },
    {
      "midi": 62,
      "hit": false,
      "t": 234758.52749999968,
      "d": 754.8929427083058,
      "v": 127
    },
    {
      "midi": 55,
      "hit": false,
      "t": 234939.24999999968,
      "d": 182.6050260416523,
      "v": 127
    },
    {
      "midi": 53,
      "hit": false,
      "t": 235300.69499999966,
      "d": 491.3392968749977,
      "v": 127
    },
    {
      "midi": 41,
      "hit": false,
      "t": 235300.69499999966,
      "d": 721.007473958336,
      "v": 127
    },
    {
      "midi": 62,
      "hit": false,
      "t": 235842.86249999967,
      "d": 329.44205729165697,
      "v": 85
    },
    {
      "midi": 53,
      "hit": false,
      "t": 236023.58499999967,
      "d": 175.07492187499884,
      "v": 127
    },
    {
      "midi": 52,
      "hit": false,
      "t": 236385.02999999968,
      "d": 182.6050260416523,
      "v": 127
    },
    {
      "midi": 64,
      "hit": false,
      "t": 236385.02999999968,
      "d": 431.0984635416535,
      "v": 127
    },
    {
      "midi": 72,
      "hit": false,
      "t": 236385.02999999968,
      "d": 438.62856770830695,
      "v": 127
    },
    {
      "midi": 67,
      "hit": false,
      "t": 236385.02999999968,
      "d": 461.21888020829647,
      "v": 127
    },
    {
      "midi": 40,
      "hit": false,
      "t": 236385.02999999968,
      "d": 901.7299739583395,
      "v": 127
    },
    {
      "midi": 52,
      "hit": false,
      "t": 236746.47499999966,
      "d": 160.0147135416628,
      "v": 127
    },
    {
      "midi": 64,
      "hit": false,
      "t": 236927.19749999966,
      "d": 167.54481770834536,
      "v": 127
    },
    {
      "midi": 72,
      "hit": false,
      "t": 236927.19749999966,
      "d": 186.37007812500815,
      "v": 127
    },
    {
      "midi": 67,
      "hit": false,
      "t": 236927.19749999966,
      "d": 250.37596354167908,
      "v": 127
    },
    {
      "midi": 52,
      "hit": false,
      "t": 237107.91999999966,
      "d": 190.135130208364,
      "v": 127
    },
    {
      "midi": 50,
      "hit": false,
      "t": 237469.3649999997,
      "d": 144.95450520832674,
      "v": 127
    },
    {
      "midi": 74,
      "hit": false,
      "t": 237469.3649999997,
      "d": 397.21299479168374,
      "v": 127
    },
    {
      "midi": 71,
      "hit": false,
      "t": 237469.3649999997,
      "d": 408.50815104169305,
      "v": 127
    },
    {
      "midi": 62,
      "hit": false,
      "t": 237469.3649999997,
      "d": 412.2732031250198,
      "v": 127
    },
    {
      "midi": 67,
      "hit": false,
      "t": 237469.3649999997,
      "d": 423.5683593750291,
      "v": 127
    },
    {
      "midi": 38,
      "hit": false,
      "t": 237469.3649999997,
      "d": 811.3687239583815,
      "v": 127
    },
    {
      "midi": 50,
      "hit": false,
      "t": 237830.8099999997,
      "d": 186.37007812503725,
      "v": 127
    },
    {
      "midi": 71,
      "hit": false,
      "t": 238011.53249999974,
      "d": 171.3098697916721,
      "v": 127
    },
    {
      "midi": 62,
      "hit": false,
      "t": 238011.53249999974,
      "d": 178.83997395832557,
      "v": 127
    },
    {
      "midi": 67,
      "hit": false,
      "t": 238011.53249999974,
      "d": 186.37007812500815,
      "v": 127
    },
    {
      "midi": 74,
      "hit": false,
      "t": 238011.53249999974,
      "d": 190.13513020833489,
      "v": 127
    },
    {
      "midi": 50,
      "hit": false,
      "t": 238192.25499999974,
      "d": 77.18356770832906,
      "v": 127
    },
    {
      "midi": 48,
      "hit": false,
      "t": 238553.69999999975,
      "d": 1041.0369010416325,
      "v": 127
    },
    {
      "midi": 72,
      "hit": false,
      "t": 238553.6999999999,
      "d": 1112.572890624986,
      "v": 1
    },
    {
      "midi": 67,
      "hit": false,
      "t": 238915.14499999976,
      "d": 227.78565104166046,
      "v": 75
    },
    {
      "midi": 60,
      "hit": false,
      "t": 238915.14499999976,
      "d": 235.31575520831393,
      "v": 73
    },
    {
      "midi": 64,
      "hit": false,
      "t": 238915.14499999976,
      "d": 235.31575520831393,
      "v": 80
    },
    {
      "midi": 67,
      "hit": false,
      "t": 239276.58999999973,
      "d": 314.3818489583209,
      "v": 86
    },
    {
      "midi": 60,
      "hit": false,
      "t": 239276.58999999973,
      "d": 344.502265624993,
      "v": 84
    },
    {
      "midi": 64,
      "hit": false,
      "t": 239276.58999999973,
      "d": 367.09257812501164,
      "v": 97
    },
    {
      "midi": 47,
      "hit": false,
      "t": 239638.03499999974,
      "d": 472.5140364583349,
      "v": 126
    },
    {
      "midi": 71,
      "hit": false,
      "t": 239638.0349999999,
      "d": 1080.5699479166651,
      "v": 1
    },
    {
      "midi": 67,
      "hit": false,
      "t": 239999.47999999975,
      "d": 310.6167968749942,
      "v": 85
    },
    {
      "midi": 62,
      "hit": false,
      "t": 239999.47999999975,
      "d": 374.6226822916651,
      "v": 107
    },
    {
      "midi": 59,
      "hit": false,
      "t": 239999.47999999975,
      "d": 389.68289062500116,
      "v": 88
    },
    {
      "midi": 47,
      "hit": false,
      "t": 240360.92499999976,
      "d": 303.0866927083407,
      "v": 110
    },
    {
      "midi": 45,
      "hit": false,
      "t": 240722.36999999976,
      "d": 502.634453125007,
      "v": 123
    },
    {
      "midi": 69,
      "hit": false,
      "t": 240722.36999999988,
      "d": 1080.5699479166651,
      "v": 1
    },
    {
      "midi": 65,
      "hit": false,
      "t": 241083.81499999977,
      "d": 393.4479427083279,
      "v": 85
    },
    {
      "midi": 57,
      "hit": false,
      "t": 241083.81499999977,
      "d": 408.50815104166395,
      "v": 74
    },
    {
      "midi": 60,
      "hit": false,
      "t": 241083.81499999977,
      "d": 427.33341145832674,
      "v": 84
    },
    {
      "midi": 45,
      "hit": false,
      "t": 241445.25999999978,
      "d": 272.9662760416395,
      "v": 90
    },
    {
      "midi": 43,
      "hit": false,
      "t": 241806.70499999975,
      "d": 867.8445052083407,
      "v": 123
    },
    {
      "midi": 67,
      "hit": false,
      "t": 241806.70499999987,
      "d": 1080.5699479166651,
      "v": 1
    },
    {
      "midi": 60,
      "hit": false,
      "t": 242168.14999999976,
      "d": 224.02059895833372,
      "v": 85
    },
    {
      "midi": 64,
      "hit": false,
      "t": 242168.14999999976,
      "d": 224.02059895833372,
      "v": 80
    },
    {
      "midi": 64,
      "hit": false,
      "t": 242529.59499999977,
      "d": 175.07492187499884,
      "v": 103
    },
    {
      "midi": 60,
      "hit": false,
      "t": 242529.59499999977,
      "d": 182.6050260416523,
      "v": 112
    },
    {
      "midi": 53,
      "hit": false,
      "t": 242891.03999999975,
      "d": 946.9105989583477,
      "v": 94
    },
    {
      "midi": 57,
      "hit": false,
      "t": 242891.03999999975,
      "d": 950.6756510416744,
      "v": 115
    },
    {
      "midi": 41,
      "hit": false,
      "t": 242891.03999999975,
      "d": 961.9708072916837,
      "v": 92
    },
    {
      "midi": 65,
      "hit": false,
      "t": 242891.03999999986,
      "d": 1080.5699479166651,
      "v": 1
    },
    {
      "midi": 65,
      "hit": false,
      "t": 243252.48499999975,
      "d": 208.96039062499767,
      "v": 91
    },
    {
      "midi": 60,
      "hit": false,
      "t": 243252.48499999975,
      "d": 224.02059895833372,
      "v": 81
    },
    {
      "midi": 65,
      "hit": false,
      "t": 243613.92999999976,
      "d": 276.73132812499534,
      "v": 107
    },
    {
      "midi": 60,
      "hit": false,
      "t": 243613.92999999976,
      "d": 284.2614322916488,
      "v": 95
    },
    {
      "midi": 55,
      "hit": false,
      "t": 243975.37499999974,
      "d": 449.92372395834536,
      "v": 112
    },
    {
      "midi": 40,
      "hit": false,
      "t": 243975.37499999974,
      "d": 596.76075520835,
      "v": 92
    },
    {
      "midi": 52,
      "hit": false,
      "t": 243975.37499999974,
      "d": 608.0559114583593,
      "v": 98
    },
    {
      "midi": 64,
      "hit": false,
      "t": 243975.37499999985,
      "d": 1080.5699479166651,
      "v": 1
    },
    {
      "midi": 60,
      "hit": false,
      "t": 244336.81999999975,
      "d": 438.62856770833605,
      "v": 114
    },
    {
      "midi": 64,
      "hit": false,
      "t": 244336.81999999975,
      "d": 551.5801302083128,
      "v": 114
    },
    {
      "midi": 52,
      "hit": false,
      "t": 244698.26499999975,
      "d": 182.6050260416523,
      "v": 91
    },
    {
      "midi": 40,
      "hit": false,
      "t": 244698.26499999975,
      "d": 193.90018229163252,
      "v": 80
    },
    {
      "midi": 55,
      "hit": false,
      "t": 244698.26499999975,
      "d": 220.25554687497788,
      "v": 94
    },
    {
      "midi": 38,
      "hit": false,
      "t": 245059.70999999973,
      "d": 751.127890624979,
      "v": 109
    },
    {
      "midi": 50,
      "hit": false,
      "t": 245059.70999999973,
      "d": 769.9531510416418,
      "v": 127
    },
    {
      "midi": 62,
      "hit": false,
      "t": 245059.70999999985,
      "d": 1080.5699479166651,
      "v": 1
    },
    {
      "midi": 62,
      "hit": false,
      "t": 245421.15499999974,
      "d": 58.35830729166628,
      "v": 112
    },
    {
      "midi": 64,
      "hit": false,
      "t": 245421.15499999974,
      "d": 99.77388020831859,
      "v": 90
    },
    {
      "midi": 69,
      "hit": false,
      "t": 245421.15499999974,
      "d": 137.42440104164416,
      "v": 127
    },
    {
      "midi": 62,
      "hit": false,
      "t": 245782.59999999971,
      "d": 65.88841145831975,
      "v": 127
    },
    {
      "midi": 64,
      "hit": false,
      "t": 245782.59999999971,
      "d": 265.43617187498603,
      "v": 101
    },
    {
      "midi": 69,
      "hit": false,
      "t": 245782.59999999971,
      "d": 374.622682291636,
      "v": 127
    },
    {
      "midi": 43,
      "hit": false,
      "t": 246144.0449999997,
      "d": 875.3746093750233,
      "v": 112
    },
    {
      "midi": 55,
      "hit": false,
      "t": 246144.0449999997,
      "d": 879.13966145835,
      "v": 127
    },
    {
      "midi": 67,
      "hit": false,
      "t": 246144.04499999984,
      "d": 1086.2175260416698,
      "v": 1
    },
    {
      "midi": 71,
      "hit": false,
      "t": 246343.59276041636,
      "d": 73.41851562500233,
      "v": 127
    },
    {
      "midi": 67,
      "hit": false,
      "t": 246505.4899999997,
      "d": 532.7548697916791,
      "v": 127
    },
    {
      "midi": 62,
      "hit": false,
      "t": 246866.9349999997,
      "d": 178.83997395832557,
      "v": 121
    },
    {
      "midi": 48,
      "hit": false,
      "t": 247228.37999999968,
      "d": 1041.0369010416325,
      "v": 127
    },
    {
      "midi": 72,
      "hit": false,
      "t": 247228.37999999983,
      "d": 1080.5699479166651,
      "v": 1
    },
    {
      "midi": 67,
      "hit": false,
      "t": 247589.8249999997,
      "d": 227.78565104166046,
      "v": 75
    },
    {
      "midi": 60,
      "hit": false,
      "t": 247589.8249999997,
      "d": 235.31575520831393,
      "v": 73
    },
    {
      "midi": 64,
      "hit": false,
      "t": 247589.8249999997,
      "d": 235.31575520831393,
      "v": 80
    },
    {
      "midi": 67,
      "hit": false,
      "t": 247951.26999999967,
      "d": 314.3818489583209,
      "v": 86
    },
    {
      "midi": 60,
      "hit": false,
      "t": 247951.26999999967,
      "d": 344.502265624993,
      "v": 84
    },
    {
      "midi": 64,
      "hit": false,
      "t": 247951.26999999967,
      "d": 367.09257812501164,
      "v": 97
    },
    {
      "midi": 47,
      "hit": false,
      "t": 248312.71499999968,
      "d": 472.5140364583349,
      "v": 126
    },
    {
      "midi": 71,
      "hit": false,
      "t": 248312.71499999982,
      "d": 1101.2777343750058,
      "v": 1
    },
    {
      "midi": 67,
      "hit": false,
      "t": 248674.15999999968,
      "d": 310.6167968749942,
      "v": 85
    },
    {
      "midi": 62,
      "hit": false,
      "t": 248674.15999999968,
      "d": 374.6226822916651,
      "v": 107
    },
    {
      "midi": 59,
      "hit": false,
      "t": 248674.15999999968,
      "d": 389.68289062500116,
      "v": 88
    },
    {
      "midi": 47,
      "hit": false,
      "t": 249035.6049999997,
      "d": 303.0866927083407,
      "v": 110
    },
    {
      "midi": 45,
      "hit": false,
      "t": 249397.0499999997,
      "d": 502.634453125007,
      "v": 123
    },
    {
      "midi": 69,
      "hit": false,
      "t": 249397.0499999998,
      "d": 1086.2175260416989,
      "v": 1
    },
    {
      "midi": 65,
      "hit": false,
      "t": 249758.4949999997,
      "d": 393.4479427083279,
      "v": 85
    },
    {
      "midi": 57,
      "hit": false,
      "t": 249758.4949999997,
      "d": 408.50815104166395,
      "v": 74
    },
    {
      "midi": 60,
      "hit": false,
      "t": 249758.4949999997,
      "d": 427.33341145832674,
      "v": 84
    },
    {
      "midi": 45,
      "hit": false,
      "t": 250119.9399999997,
      "d": 272.9662760416395,
      "v": 90
    },
    {
      "midi": 43,
      "hit": false,
      "t": 250481.3849999997,
      "d": 867.8445052083407,
      "v": 123
    },
    {
      "midi": 67,
      "hit": false,
      "t": 250481.38499999983,
      "d": 1080.5699479166651,
      "v": 1
    },
    {
      "midi": 60,
      "hit": false,
      "t": 250842.8299999997,
      "d": 224.02059895833372,
      "v": 85
    },
    {
      "midi": 64,
      "hit": false,
      "t": 250842.8299999997,
      "d": 224.02059895833372,
      "v": 80
    },
    {
      "midi": 64,
      "hit": false,
      "t": 251204.2749999997,
      "d": 175.07492187499884,
      "v": 103
    },
    {
      "midi": 60,
      "hit": false,
      "t": 251204.2749999997,
      "d": 182.6050260416523,
      "v": 112
    },
    {
      "midi": 53,
      "hit": false,
      "t": 251565.71999999968,
      "d": 931.8503906250116,
      "v": 125
    },
    {
      "midi": 41,
      "hit": false,
      "t": 251565.71999999968,
      "d": 958.205755208357,
      "v": 119
    },
    {
      "midi": 65,
      "hit": false,
      "t": 251565.71999999983,
      "d": 1080.5699479166651,
      "v": 1
    },
    {
      "midi": 60,
      "hit": false,
      "t": 251927.1649999997,
      "d": 224.02059895833372,
      "v": 90
    },
    {
      "midi": 65,
      "hit": false,
      "t": 251927.1649999997,
      "d": 239.08080729166977,
      "v": 81
    },
    {
      "midi": 57,
      "hit": false,
      "t": 251927.1649999997,
      "d": 250.37596354167908,
      "v": 85
    },
    {
      "midi": 60,
      "hit": false,
      "t": 252288.6099999997,
      "d": 306.85174479166744,
      "v": 110
    },
    {
      "midi": 65,
      "hit": false,
      "t": 252288.6099999997,
      "d": 310.6167968749942,
      "v": 101
    },
    {
      "midi": 57,
      "hit": false,
      "t": 252288.6099999997,
      "d": 321.9119531250035,
      "v": 91
    },
    {
      "midi": 43,
      "hit": false,
      "t": 252650.0549999997,
      "d": 521.4597135416698,
      "v": 122
    },
    {
      "midi": 67,
      "hit": false,
      "t": 252650.05499999982,
      "d": 1080.5699479166651,
      "v": 1
    },
    {
      "midi": 60,
      "hit": false,
      "t": 253011.4999999997,
      "d": 574.1704427083314,
      "v": 97
    },
    {
      "midi": 53,
      "hit": false,
      "t": 253011.4999999997,
      "d": 589.2306510416674,
      "v": 85
    },
    {
      "midi": 57,
      "hit": false,
      "t": 253011.4999999997,
      "d": 592.9957031249942,
      "v": 94
    },
    {
      "midi": 65,
      "hit": false,
      "t": 253011.4999999997,
      "d": 596.7607552083209,
      "v": 105
    },
    {
      "midi": 43,
      "hit": false,
      "t": 253372.94499999972,
      "d": 291.7915364583023,
      "v": 84
    },
    {
      "midi": 36,
      "hit": false,
      "t": 253734.3899999997,
      "d": 833.9590364583128,
      "v": 127
    },
    {
      "midi": 48,
      "hit": false,
      "t": 253734.3899999997,
      "d": 845.2541927083221,
      "v": 127
    },
    {
      "midi": 60,
      "hit": false,
      "t": 253734.3899999998,
      "d": 1622.7374479166756,
      "v": 1
    },
    {
      "midi": 60,
      "hit": false,
      "t": 254095.8349999997,
      "d": 88.47872395833838,
      "v": 81
    },
    {
      "midi": 55,
      "hit": false,
      "t": 254095.8349999997,
      "d": 92.24377604166511,
      "v": 71
    },
    {
      "midi": 64,
      "hit": false,
      "t": 254095.8349999997,
      "d": 96.00882812499185,
      "v": 94
    },
    {
      "midi": 64,
      "hit": false,
      "t": 254457.27999999968,
      "d": 272.9662760416977,
      "v": 127
    },
    {
      "midi": 60,
      "hit": false,
      "t": 254457.27999999968,
      "d": 306.85174479169655,
      "v": 127
    },
    {
      "midi": 55,
      "hit": false,
      "t": 254457.27999999968,
      "d": 329.44205729168607,
      "v": 127
    },
    {
      "midi": 48,
      "hit": false,
      "t": 254818.7249999997,
      "d": 879.1396614582918,
      "v": 127
    },
    {
      "midi": 36,
      "hit": false,
      "t": 254818.7249999997,
      "d": 894.1998697916279,
      "v": 127
    },
    {
      "midi": 64,
      "hit": false,
      "t": 255180.1699999997,
      "d": 99.77388020834769,
      "v": 90
    },
    {
      "midi": 67,
      "hit": false,
      "t": 255180.1699999997,
      "d": 99.77388020834769,
      "v": 87
    },
    {
      "midi": 55,
      "hit": false,
      "t": 255180.1699999997,
      "d": 107.30398437500116,
      "v": 85
    },
    {
      "midi": 60,
      "hit": false,
      "t": 255180.1699999997,
      "d": 114.83408854165464,
      "v": 87
    },
    {
      "midi": 55,
      "hit": false,
      "t": 255541.61499999967,
      "d": 114.83408854165464,
      "v": 127
    },
    {
      "midi": 64,
      "hit": false,
      "t": 255541.61499999967,
      "d": 114.83408854165464,
      "v": 127
    },
    {
      "midi": 60,
      "hit": false,
      "t": 255541.61499999967,
      "d": 133.65934895831742,
      "v": 127
    },
    {
      "midi": 67,
      "hit": false,
      "t": 255541.61499999967,
      "d": 133.65934895831742,
      "v": 127
    },
    {
      "midi": 36,
      "hit": false,
      "t": 255903.05999999965,
      "d": 687.1220052083663,
      "v": 118
    },
    {
      "midi": 48,
      "hit": false,
      "t": 255903.05999999965,
      "d": 818.8988281250349,
      "v": 125
    },
    {
      "midi": 67,
      "hit": false,
      "t": 256264.50499999966,
      "d": 58.35830729166628,
      "v": 44
    },
    {
      "midi": 60,
      "hit": false,
      "t": 256264.50499999966,
      "d": 69.65346354167559,
      "v": 58
    },
    {
      "midi": 64,
      "hit": false,
      "t": 256264.50499999966,
      "d": 73.41851562500233,
      "v": 66
    },
    {
      "midi": 55,
      "hit": false,
      "t": 256264.50499999966,
      "d": 84.71367187501164,
      "v": 58
    },
    {
      "midi": 55,
      "hit": false,
      "t": 256625.9499999997,
      "d": 239.08080729166977,
      "v": 118
    },
    {
      "midi": 67,
      "hit": false,
      "t": 256625.9499999997,
      "d": 257.90606770833256,
      "v": 110
    },
    {
      "midi": 60,
      "hit": false,
      "t": 256625.9499999997,
      "d": 272.9662760416686,
      "v": 125
    },
    {
      "midi": 64,
      "hit": false,
      "t": 256625.9499999997,
      "d": 306.85174479166744,
      "v": 125
    },
    {
      "midi": 47,
      "hit": false,
      "t": 256987.3949999997,
      "d": 468.74898437497905,
      "v": 125
    },
    {
      "midi": 62,
      "hit": false,
      "t": 257348.83999999968,
      "d": 400.9780468750105,
      "v": 118
    },
    {
      "midi": 67,
      "hit": false,
      "t": 257348.83999999968,
      "d": 408.50815104166395,
      "v": 98
    },
    {
      "midi": 59,
      "hit": false,
      "t": 257348.83999999968,
      "d": 446.1586718749895,
      "v": 101
    },
    {
      "midi": 47,
      "hit": false,
      "t": 257710.28499999968,
      "d": 201.4302864583151,
      "v": 125
    },
    {
      "midi": 45,
      "hit": false,
      "t": 258071.72999999966,
      "d": 818.8988281249767,
      "v": 125
    },
    {
      "midi": 57,
      "hit": false,
      "t": 258433.17499999967,
      "d": 122.36419270833721,
      "v": 79
    },
    {
      "midi": 60,
      "hit": false,
      "t": 258433.17499999967,
      "d": 129.8942968749907,
      "v": 81
    },
    {
      "midi": 65,
      "hit": false,
      "t": 258433.17499999967,
      "d": 129.8942968749907,
      "v": 79
    },
    {
      "midi": 60,
      "hit": false,
      "t": 258794.61999999965,
      "d": 284.2614322916488,
      "v": 125
    },
    {
      "midi": 57,
      "hit": false,
      "t": 258794.61999999965,
      "d": 295.55658854165813,
      "v": 118
    },
    {
      "midi": 65,
      "hit": false,
      "t": 258794.61999999965,
      "d": 306.85174479166744,
      "v": 125
    },
    {
      "midi": 43,
      "hit": false,
      "t": 259156.06499999965,
      "d": 826.4289322916884,
      "v": 125
    },
    {
      "midi": 55,
      "hit": false,
      "t": 259517.50999999966,
      "d": 122.36419270833721,
      "v": 81
    },
    {
      "midi": 60,
      "hit": false,
      "t": 259517.50999999966,
      "d": 126.12924479166395,
      "v": 81
    },
    {
      "midi": 64,
      "hit": false,
      "t": 259517.50999999966,
      "d": 144.95450520832674,
      "v": 88
    },
    {
      "midi": 60,
      "hit": false,
      "t": 259878.95499999967,
      "d": 220.25554687500698,
      "v": 125
    },
    {
      "midi": 64,
      "hit": false,
      "t": 259878.95499999967,
      "d": 235.31575520834303,
      "v": 125
    },
    {
      "midi": 55,
      "hit": false,
      "t": 259878.95499999967,
      "d": 272.9662760416686,
      "v": 118
    },
    {
      "midi": 41,
      "hit": false,
      "t": 260240.39999999967,
      "d": 769.9531510416709,
      "v": 125
    },
    {
      "midi": 65,
      "hit": false,
      "t": 260601.84499999968,
      "d": 99.77388020834769,
      "v": 61
    },
    {
      "midi": 60,
      "hit": false,
      "t": 260601.84499999968,
      "d": 118.59914062501048,
      "v": 70
    },
    {
      "midi": 53,
      "hit": false,
      "t": 260601.84499999968,
      "d": 133.65934895834653,
      "v": 61
    },
    {
      "midi": 57,
      "hit": false,
      "t": 260601.84499999968,
      "d": 141.189453125,
      "v": 72
    },
    {
      "midi": 65,
      "hit": false,
      "t": 260963.2899999997,
      "d": 265.43617187498603,
      "v": 101
    },
    {
      "midi": 60,
      "hit": false,
      "t": 260963.2899999997,
      "d": 295.55658854165813,
      "v": 98
    },
    {
      "midi": 53,
      "hit": false,
      "t": 260963.2899999997,
      "d": 325.67700520833023,
      "v": 118
    },
    {
      "midi": 57,
      "hit": false,
      "t": 260963.2899999997,
      "d": 344.502265624993,
      "v": 110
    },
    {
      "midi": 43,
      "hit": false,
      "t": 261324.7349999997,
      "d": 698.4171614583465,
      "v": 125
    },
    {
      "midi": 65,
      "hit": false,
      "t": 261686.1799999997,
      "d": 129.8942968749907,
      "v": 85
    },
    {
      "midi": 53,
      "hit": false,
      "t": 261686.1799999997,
      "d": 152.4846093749802,
      "v": 79
    },
    {
      "midi": 60,
      "hit": false,
      "t": 261686.1799999997,
      "d": 152.4846093749802,
      "v": 70
    },
    {
      "midi": 57,
      "hit": false,
      "t": 261686.1799999997,
      "d": 178.83997395832557,
      "v": 83
    },
    {
      "midi": 60,
      "hit": false,
      "t": 262047.6249999997,
      "d": 197.66523437498836,
      "v": 90
    },
    {
      "midi": 53,
      "hit": false,
      "t": 262047.6249999997,
      "d": 205.19533854164183,
      "v": 101
    },
    {
      "midi": 57,
      "hit": false,
      "t": 262047.6249999997,
      "d": 220.25554687494878,
      "v": 95
    },
    {
      "midi": 65,
      "hit": false,
      "t": 262047.6249999997,
      "d": 257.90606770827435,
      "v": 92
    },
    {
      "midi": 55,
      "hit": false,
      "t": 262409.06999999966,
      "d": 114.83408854168374,
      "v": 118
    },
    {
      "midi": 64,
      "hit": false,
      "t": 262409.06999999966,
      "d": 126.12924479169305,
      "v": 125
    },
    {
      "midi": 60,
      "hit": false,
      "t": 262409.06999999966,
      "d": 137.42440104170237,
      "v": 125
    },
    {
      "midi": 67,
      "hit": false,
      "t": 262409.06999999966,
      "d": 141.1894531250582,
      "v": 110
    },
    {
      "midi": 36,
      "hit": false,
      "t": 262409.06999999966,
      "d": 528.9898177083815,
      "v": 95
    },
    {
      "midi": 48,
      "hit": false,
      "t": 262409.06999999966,
      "d": 574.1704427083605,
      "v": 118
    },
    {
      "midi": 60,
      "hit": false,
      "t": 262770.5149999997,
      "d": 434.8635156249511,
      "v": 95
    },
    {
      "midi": 64,
      "hit": false,
      "t": 262951.2374999997,
      "d": 363.3275260416558,
      "v": 98
    },
    {
      "midi": 67,
      "hit": false,
      "t": 263131.9599999997,
      "d": 144.95450520835584,
      "v": 95
    },
    {
      "midi": 72,
      "hit": false,
      "t": 263312.6824999997,
      "d": 88.47872395830927,
      "v": 101
    },
    {
      "midi": 60,
      "hit": false,
      "t": 263493.4049999997,
      "d": 163.77976562501863,
      "v": 118
    },
    {
      "midi": 69,
      "hit": false,
      "t": 263493.4049999997,
      "d": 216.49049479170935,
      "v": 125
    },
    {
      "midi": 65,
      "hit": false,
      "t": 263493.4049999997,
      "d": 280.4963802083512,
      "v": 125
    },
    {
      "midi": 48,
      "hit": false,
      "t": 263493.4049999997,
      "d": 833.9590364582837,
      "v": 95
    },
    {
      "midi": 57,
      "hit": false,
      "t": 263493.4049999997,
      "d": 849.0192447915906,
      "v": 110
    },
    {
      "midi": 60,
      "hit": false,
      "t": 263854.8499999997,
      "d": 310.6167968749651,
      "v": 85
    },
    {
      "midi": 65,
      "hit": false,
      "t": 264035.57249999966,
      "d": 299.32164062495576,
      "v": 110
    },
    {
      "midi": 72,
      "hit": false,
      "t": 264216.29499999963,
      "d": 156.24966145830695,
      "v": 110
    },
    {
      "midi": 60,
      "hit": false,
      "t": 264397.0174999996,
      "d": 65.88841145834886,
      "v": 98
    },
    {
      "midi": 60,
      "hit": false,
      "t": 264577.73999999964,
      "d": 197.66523437498836,
      "v": 125
    },
    {
      "midi": 67,
      "hit": false,
      "t": 264577.73999999964,
      "d": 325.67700520833023,
      "v": 125
    },
    {
      "midi": 72,
      "hit": false,
      "t": 264577.73999999964,
      "d": 348.26731770834886,
      "v": 125
    },
    {
      "midi": 71,
      "hit": false,
      "t": 264577.73999999964,
      "d": 355.7974218750023,
      "v": 118
    },
    {
      "midi": 59,
      "hit": false,
      "t": 264577.73999999964,
      "d": 675.8268489583279,
      "v": 118
    },
    {
      "midi": 48,
      "hit": false,
      "t": 264577.73999999964,
      "d": 698.4171614583465,
      "v": 92
    },
    {
      "midi": 60,
      "hit": false,
      "t": 264939.18499999965,
      "d": 212.7254427082953,
      "v": 92
    },
    {
      "midi": 67,
      "hit": false,
      "t": 265119.9074999996,
      "d": 182.6050260416814,
      "v": 98
    },
    {
      "midi": 72,
      "hit": false,
      "t": 265300.62999999966,
      "d": 114.83408854162553,
      "v": 118
    },
    {
      "midi": 60,
      "hit": false,
      "t": 265481.35249999963,
      "d": 73.41851562500233,
      "v": 90
    },
    {
      "midi": 53,
      "hit": false,
      "t": 265662.0749999996,
      "d": 205.19533854164183,
      "v": 125
    },
    {
      "midi": 69,
      "hit": false,
      "t": 265662.0749999996,
      "d": 212.7254427082953,
      "v": 125
    },
    {
      "midi": 65,
      "hit": false,
      "t": 265662.0749999996,
      "d": 216.49049479165114,
      "v": 125
    },
    {
      "midi": 41,
      "hit": false,
      "t": 265662.0749999996,
      "d": 224.02059895830462,
      "v": 98
    },
    {
      "midi": 60,
      "hit": false,
      "t": 265662.0749999996,
      "d": 224.02059895830462,
      "v": 118
    },
    {
      "midi": 52,
      "hit": false,
      "t": 266023.51999999955,
      "d": 205.19533854164183,
      "v": 110
    },
    {
      "midi": 67,
      "hit": false,
      "t": 266023.51999999955,
      "d": 216.49049479165114,
      "v": 125
    },
    {
      "midi": 40,
      "hit": false,
      "t": 266023.51999999955,
      "d": 220.25554687500698,
      "v": 118
    },
    {
      "midi": 64,
      "hit": false,
      "t": 266023.51999999955,
      "d": 227.78565104166046,
      "v": 125
    },
    {
      "midi": 60,
      "hit": false,
      "t": 266023.51999999955,
      "d": 239.08080729166977,
      "v": 125
    },
    {
      "midi": 50,
      "hit": false,
      "t": 266384.96499999956,
      "d": 84.71367187501164,
      "v": 101
    },
    {
      "midi": 65,
      "hit": false,
      "t": 266384.96499999956,
      "d": 92.24377604166511,
      "v": 125
    },
    {
      "midi": 60,
      "hit": false,
      "t": 266384.96499999956,
      "d": 96.00882812502095,
      "v": 118
    },
    {
      "midi": 62,
      "hit": false,
      "t": 266384.96499999956,
      "d": 99.7738802083768,
      "v": 125
    },
    {
      "midi": 38,
      "hit": false,
      "t": 266384.96499999956,
      "d": 111.06903645838611,
      "v": 98
    },
    {
      "midi": 55,
      "hit": false,
      "t": 266746.4099999996,
      "d": 103.53893229167443,
      "v": 125
    },
    {
      "midi": 67,
      "hit": false,
      "t": 266746.4099999996,
      "d": 107.30398437503027,
      "v": 98
    },
    {
      "midi": 64,
      "hit": false,
      "t": 266746.4099999996,
      "d": 141.1894531250582,
      "v": 118
    },
    {
      "midi": 60,
      "hit": false,
      "t": 266746.4099999996,
      "d": 144.95450520841405,
      "v": 125
    },
    {
      "midi": 36,
      "hit": false,
      "t": 266746.4099999996,
      "d": 276.73132812505355,
      "v": 98
    },
    {
      "midi": 48,
      "hit": false,
      "t": 266746.4099999996,
      "d": 318.14690104173496,
      "v": 125
    },
    {
      "midi": 60,
      "hit": false,
      "t": 267107.8549999997,
      "d": 434.8635156249511,
      "v": 118
    },
    {
      "midi": 64,
      "hit": false,
      "t": 267288.57749999966,
      "d": 325.677005208272,
      "v": 118
    },
    {
      "midi": 67,
      "hit": false,
      "t": 267469.29999999964,
      "d": 137.42440104164416,
      "v": 95
    },
    {
      "midi": 72,
      "hit": false,
      "t": 267650.0224999996,
      "d": 92.24377604166511,
      "v": 90
    },
    {
      "midi": 67,
      "hit": false,
      "t": 267830.7449999996,
      "d": 1.8825260416488163,
      "v": 118
    },
    {
      "midi": 60,
      "hit": false,
      "t": 267830.7449999996,
      "d": 190.13513020833489,
      "v": 118
    },
    {
      "midi": 65,
      "hit": false,
      "t": 267830.7449999996,
      "d": 291.7915364583605,
      "v": 118
    },
    {
      "midi": 69,
      "hit": false,
      "t": 267830.7449999996,
      "d": 314.3818489583791,
      "v": 125
    },
    {
      "midi": 48,
      "hit": false,
      "t": 267830.7449999996,
      "d": 818.8988281250931,
      "v": 98
    },
    {
      "midi": 57,
      "hit": false,
      "t": 267830.7449999996,
      "d": 841.4891406250536,
      "v": 118
    },
    {
      "midi": 60,
      "hit": false,
      "t": 268192.18999999965,
      "d": 246.61091145832324,
      "v": 85
    },
    {
      "midi": 65,
      "hit": false,
      "t": 268372.9124999996,
      "d": 284.261432291707,
      "v": 98
    },
    {
      "midi": 72,
      "hit": false,
      "t": 268553.63499999966,
      "d": 77.18356770835817,
      "v": 88
    },
    {
      "midi": 60,
      "hit": false,
      "t": 268734.35749999963,
      "d": 62.123359374993015,
      "v": 92
    },
    {
      "midi": 60,
      "hit": false,
      "t": 268915.0799999996,
      "d": 197.66523437498836,
      "v": 125
    },
    {
      "midi": 72,
      "hit": false,
      "t": 268915.0799999996,
      "d": 306.85174479166744,
      "v": 118
    },
    {
      "midi": 71,
      "hit": false,
      "t": 268915.0799999996,
      "d": 325.67700520833023,
      "v": 118
    },
    {
      "midi": 67,
      "hit": false,
      "t": 268915.0799999996,
      "d": 389.68289062503027,
      "v": 125
    },
    {
      "midi": 59,
      "hit": false,
      "t": 268915.0799999996,
      "d": 717.2424218750093,
      "v": 125
    },
    {
      "midi": 48,
      "hit": false,
      "t": 268915.0799999996,
      "d": 732.3026302083745,
      "v": 98
    },
    {
      "midi": 60,
      "hit": false,
      "t": 269276.5249999996,
      "d": 291.7915364583605,
      "v": 90
    },
    {
      "midi": 67,
      "hit": false,
      "t": 269457.24749999965,
      "d": 212.7254427083535,
      "v": 101
    },
    {
      "midi": 72,
      "hit": false,
      "t": 269637.9699999996,
      "d": 201.4302864583442,
      "v": 110
    },
    {
      "midi": 60,
      "hit": false,
      "t": 269818.69249999966,
      "d": 73.41851562500233,
      "v": 98
    },
    {
      "midi": 60,
      "hit": false,
      "t": 269999.41499999963,
      "d": 160.0147135416628,
      "v": 125
    },
    {
      "midi": 72,
      "hit": false,
      "t": 269999.41499999963,
      "d": 186.37007812497905,
      "v": 118
    },
    {
      "midi": 65,
      "hit": false,
      "t": 269999.41499999963,
      "d": 193.90018229163252,
      "v": 125
    },
    {
      "midi": 53,
      "hit": false,
      "t": 269999.41499999963,
      "d": 197.66523437498836,
      "v": 125
    },
    {
      "midi": 41,
      "hit": false,
      "t": 269999.41499999963,
      "d": 216.49049479165114,
      "v": 95
    },
    {
      "midi": 69,
      "hit": false,
      "t": 269999.41499999963,
      "d": 246.61091145832324,
      "v": 125
    },
    {
      "midi": 72,
      "hit": false,
      "t": 270360.85999999964,
      "d": 167.54481770831626,
      "v": 110
    },
    {
      "midi": 52,
      "hit": false,
      "t": 270360.85999999964,
      "d": 197.66523437498836,
      "v": 110
    },
    {
      "midi": 67,
      "hit": false,
      "t": 270360.85999999964,
      "d": 197.66523437498836,
      "v": 125
    },
    {
      "midi": 64,
      "hit": false,
      "t": 270360.85999999964,
      "d": 201.4302864583442,
      "v": 110
    },
    {
      "midi": 40,
      "hit": false,
      "t": 270360.85999999964,
      "d": 212.7254427083535,
      "v": 90
    },
    {
      "midi": 72,
      "hit": false,
      "t": 270722.30499999964,
      "d": 114.83408854168374,
      "v": 118
    },
    {
      "midi": 62,
      "hit": false,
      "t": 270722.30499999964,
      "d": 122.36419270833721,
      "v": 125
    },
    {
      "midi": 65,
      "hit": false,
      "t": 270722.30499999964,
      "d": 126.12924479169305,
      "v": 125
    },
    {
      "midi": 38,
      "hit": false,
      "t": 270722.30499999964,
      "d": 133.65934895834653,
      "v": 98
    },
    {
      "midi": 50,
      "hit": false,
      "t": 270722.30499999964,
      "d": 137.42440104170237,
      "v": 125
    },
    {
      "midi": 55,
      "hit": false,
      "t": 271245.647239583,
      "d": 374.6226822917233,
      "v": 127
    },
    {
      "midi": 60,
      "hit": false,
      "t": 271245.647239583,
      "d": 385.91783854173264,
      "v": 127
    },
    {
      "midi": 36,
      "hit": false,
      "t": 271245.647239583,
      "d": 1217.994348958484,
      "v": 113
    },
    {
      "midi": 64,
      "hit": false,
      "t": 271249.4122916664,
      "d": 378.38773437502095,
      "v": 127
    },
    {
      "midi": 48,
      "hit": false,
      "t": 271249.4122916664,
      "d": 1195.4040364584653,
      "v": 127
    },
    {
      "midi": 60,
      "hit": false,
      "t": 271919.59156249976,
      "d": 35.767994791676756,
      "v": 84
    },
    {
      "midi": 64,
      "hit": false,
      "t": 271964.7721874998,
      "d": 28.237890625023283,
      "v": 88
    },
    {
      "midi": 67,
      "hit": false,
      "t": 272017.4829166665,
      "d": 5.647578125004657,
      "v": 88
    },
    {
      "midi": 72,
      "hit": false,
      "t": 272089.01890624984,
      "d": 24.472838541667443,
      "v": 88
    },
    {
      "midi": 76,
      "hit": false,
      "t": 272130.4344791665,
      "d": 43.29809895833023,
      "v": 65
    },
    {
      "midi": 79,
      "hit": false,
      "t": 272183.1452083332,
      "d": 20.707786458311602,
      "v": 82
    },
    {
      "midi": 84,
      "hit": false,
      "t": 272228.3258333332,
      "d": 13.17768229165813,
      "v": 121
    }
  ]
}