{
  "jsonPath": "Folk/Lilith/Wild Colonials/the-battle-won-tryptich.json",
  "path": "Folk\\Lilith\\Wild Colonials\\The Battle Won (Tryptich).mid",
  "name": "The Battle Won (Tryptich)",
  "difficulty": "Advanced",
  "bpm": 52.000052000052,
  "notes": [
    {
      "midi": 37,
      "hit": false,
      "t": 0,
      "d": 1406.25,
      "v": 44
    },
    {
      "midi": 64,
      "hit": false,
      "t": 0,
      "d": 1406.25,
      "v": 44
    },
    {
      "midi": 68,
      "hit": false,
      "t": 0,
      "d": 1406.25,
      "v": 44
    },
    {
      "midi": 73,
      "hit": false,
      "t": 0,
      "d": 1406.25,
      "v": 44
    },
    {
      "midi": 49,
      "hit": false,
      "t": 1800,
      "d": 609.375,
      "v": 42
    },
    {
      "midi": 68,
      "hit": false,
      "t": 1800,
      "d": 609.375,
      "v": 44
    },
    {
      "midi": 71,
      "hit": false,
      "t": 1800,
      "d": 609.375,
      "v": 44
    },
    {
      "midi": 61,
      "hit": false,
      "t": 1800,
      "d": 2006.25,
      "v": 44
    },
    {
      "midi": 54,
      "hit": false,
      "t": 2400,
      "d": 1406.25,
      "v": 43
    },
    {
      "midi": 66,
      "hit": false,
      "t": 2400,
      "d": 1406.25,
      "v": 41
    },
    {
      "midi": 69,
      "hit": false,
      "t": 2400,
      "d": 1406.25,
      "v": 41
    },
    {
      "midi": 64,
      "hit": false,
      "t": 4200,
      "d": 600,
      "v": 44
    },
    {
      "midi": 49,
      "hit": false,
      "t": 4200,
      "d": 609.375,
      "v": 42
    },
    {
      "midi": 68,
      "hit": false,
      "t": 4200,
      "d": 609.375,
      "v": 44
    },
    {
      "midi": 61,
      "hit": false,
      "t": 4200,
      "d": 1832.8125,
      "v": 44
    },
    {
      "midi": 45,
      "hit": false,
      "t": 4800,
      "d": 1223.4375,
      "v": 41
    },
    {
      "midi": 64,
      "hit": false,
      "t": 4800,
      "d": 1223.4375,
      "v": 41
    },
    {
      "midi": 67,
      "hit": false,
      "t": 4800,
      "d": 1223.4375,
      "v": 41
    },
    {
      "midi": 44,
      "hit": false,
      "t": 6000,
      "d": 1406.25,
      "v": 50
    },
    {
      "midi": 60,
      "hit": false,
      "t": 6000,
      "d": 1406.25,
      "v": 49
    },
    {
      "midi": 63,
      "hit": false,
      "t": 6000,
      "d": 1406.25,
      "v": 49
    },
    {
      "midi": 68,
      "hit": false,
      "t": 6000,
      "d": 1406.25,
      "v": 49
    },
    {
      "midi": 37,
      "hit": false,
      "t": 9600,
      "d": 1406.25,
      "v": 30
    },
    {
      "midi": 64,
      "hit": false,
      "t": 9600,
      "d": 1406.25,
      "v": 30
    },
    {
      "midi": 68,
      "hit": false,
      "t": 9600,
      "d": 1406.25,
      "v": 30
    },
    {
      "midi": 73,
      "hit": false,
      "t": 9600,
      "d": 1406.25,
      "v": 30
    },
    {
      "midi": 49,
      "hit": false,
      "t": 11400,
      "d": 609.375,
      "v": 33
    },
    {
      "midi": 68,
      "hit": false,
      "t": 11400,
      "d": 609.375,
      "v": 34
    },
    {
      "midi": 71,
      "hit": false,
      "t": 11400,
      "d": 609.375,
      "v": 34
    },
    {
      "midi": 61,
      "hit": false,
      "t": 11400,
      "d": 2006.25,
      "v": 34
    },
    {
      "midi": 54,
      "hit": false,
      "t": 12000,
      "d": 1406.25,
      "v": 33
    },
    {
      "midi": 66,
      "hit": false,
      "t": 12000,
      "d": 1406.25,
      "v": 32
    },
    {
      "midi": 69,
      "hit": false,
      "t": 12000,
      "d": 1406.25,
      "v": 32
    },
    {
      "midi": 64,
      "hit": false,
      "t": 13800,
      "d": 600,
      "v": 32
    },
    {
      "midi": 49,
      "hit": false,
      "t": 13800,
      "d": 609.375,
      "v": 33
    },
    {
      "midi": 68,
      "hit": false,
      "t": 13800,
      "d": 609.375,
      "v": 32
    },
    {
      "midi": 61,
      "hit": false,
      "t": 13800,
      "d": 1832.8125,
      "v": 32
    },
    {
      "midi": 45,
      "hit": false,
      "t": 14400,
      "d": 1223.4375,
      "v": 33
    },
    {
      "midi": 64,
      "hit": false,
      "t": 14400,
      "d": 1223.4375,
      "v": 44
    },
    {
      "midi": 67,
      "hit": false,
      "t": 14400,
      "d": 1223.4375,
      "v": 44
    },
    {
      "midi": 44,
      "hit": false,
      "t": 15600,
      "d": 1640.625,
      "v": 34
    },
    {
      "midi": 60,
      "hit": false,
      "t": 15600,
      "d": 1640.625,
      "v": 40
    },
    {
      "midi": 63,
      "hit": false,
      "t": 15600,
      "d": 1640.625,
      "v": 40
    },
    {
      "midi": 68,
      "hit": false,
      "t": 15600,
      "d": 1640.625,
      "v": 40
    },
    {
      "midi": 49,
      "hit": false,
      "t": 19200,
      "d": 609.375,
      "v": 19
    },
    {
      "midi": 80,
      "hit": false,
      "t": 19200,
      "d": 2446.875,
      "v": 55
    },
    {
      "midi": 56,
      "hit": false,
      "t": 19800,
      "d": 609.375,
      "v": 21
    },
    {
      "midi": 64,
      "hit": false,
      "t": 20400,
      "d": 609.375,
      "v": 24
    },
    {
      "midi": 61,
      "hit": false,
      "t": 21000,
      "d": 567.1875,
      "v": 26
    },
    {
      "midi": 78,
      "hit": false,
      "t": 21600,
      "d": 79.6875,
      "v": 52
    },
    {
      "midi": 49,
      "hit": false,
      "t": 21600,
      "d": 609.375,
      "v": 22
    },
    {
      "midi": 80,
      "hit": false,
      "t": 21703.125,
      "d": 79.6875,
      "v": 64
    },
    {
      "midi": 78,
      "hit": false,
      "t": 21806.25,
      "d": 79.6875,
      "v": 64
    },
    {
      "midi": 80,
      "hit": false,
      "t": 21909.375,
      "d": 79.6875,
      "v": 64
    },
    {
      "midi": 78,
      "hit": false,
      "t": 22007.8125,
      "d": 75,
      "v": 64
    },
    {
      "midi": 80,
      "hit": false,
      "t": 22106.25,
      "d": 75,
      "v": 64
    },
    {
      "midi": 57,
      "hit": false,
      "t": 22200,
      "d": 609.375,
      "v": 23
    },
    {
      "midi": 78,
      "hit": false,
      "t": 22204.6875,
      "d": 75,
      "v": 64
    },
    {
      "midi": 80,
      "hit": false,
      "t": 22303.125,
      "d": 75,
      "v": 64
    },
    {
      "midi": 78,
      "hit": false,
      "t": 22396.875,
      "d": 75,
      "v": 64
    },
    {
      "midi": 80,
      "hit": false,
      "t": 22490.625,
      "d": 75,
      "v": 64
    },
    {
      "midi": 78,
      "hit": false,
      "t": 22584.375,
      "d": 75,
      "v": 64
    },
    {
      "midi": 80,
      "hit": false,
      "t": 22678.125,
      "d": 75,
      "v": 64
    },
    {
      "midi": 78,
      "hit": false,
      "t": 22767.1875,
      "d": 70.3125,
      "v": 64
    },
    {
      "midi": 63,
      "hit": false,
      "t": 22800,
      "d": 609.375,
      "v": 27
    },
    {
      "midi": 80,
      "hit": false,
      "t": 22856.25,
      "d": 70.3125,
      "v": 64
    },
    {
      "midi": 78,
      "hit": false,
      "t": 22945.3125,
      "d": 70.3125,
      "v": 64
    },
    {
      "midi": 80,
      "hit": false,
      "t": 23034.375,
      "d": 70.3125,
      "v": 64
    },
    {
      "midi": 78,
      "hit": false,
      "t": 23128.125,
      "d": 75,
      "v": 64
    },
    {
      "midi": 80,
      "hit": false,
      "t": 23221.875,
      "d": 75,
      "v": 64
    },
    {
      "midi": 78,
      "hit": false,
      "t": 23315.625,
      "d": 75,
      "v": 64
    },
    {
      "midi": 61,
      "hit": false,
      "t": 23400,
      "d": 567.1875,
      "v": 25
    },
    {
      "midi": 80,
      "hit": false,
      "t": 23409.375,
      "d": 75,
      "v": 64
    },
    {
      "midi": 78,
      "hit": false,
      "t": 23507.8125,
      "d": 75,
      "v": 64
    },
    {
      "midi": 80,
      "hit": false,
      "t": 23606.25,
      "d": 75,
      "v": 64
    },
    {
      "midi": 78,
      "hit": false,
      "t": 23704.6875,
      "d": 75,
      "v": 64
    },
    {
      "midi": 80,
      "hit": false,
      "t": 23803.125,
      "d": 4.6875,
      "v": 64
    },
    {
      "midi": 76,
      "hit": false,
      "t": 23812.5,
      "d": 112.5,
      "v": 64
    },
    {
      "midi": 78,
      "hit": false,
      "t": 23906.25,
      "d": 56.25,
      "v": 64
    },
    {
      "midi": 49,
      "hit": false,
      "t": 24000,
      "d": 609.375,
      "v": 22
    },
    {
      "midi": 80,
      "hit": false,
      "t": 24000,
      "d": 2320.3125,
      "v": 64
    },
    {
      "midi": 56,
      "hit": false,
      "t": 24600,
      "d": 609.375,
      "v": 27
    },
    {
      "midi": 64,
      "hit": false,
      "t": 25200,
      "d": 609.375,
      "v": 32
    },
    {
      "midi": 61,
      "hit": false,
      "t": 25800,
      "d": 567.1875,
      "v": 30
    },
    {
      "midi": 49,
      "hit": false,
      "t": 26400,
      "d": 609.375,
      "v": 30
    },
    {
      "midi": 73,
      "hit": false,
      "t": 26400,
      "d": 2278.125,
      "v": 60
    },
    {
      "midi": 56,
      "hit": false,
      "t": 27000,
      "d": 609.375,
      "v": 38
    },
    {
      "midi": 64,
      "hit": false,
      "t": 27600,
      "d": 609.375,
      "v": 44
    },
    {
      "midi": 61,
      "hit": false,
      "t": 28200,
      "d": 567.1875,
      "v": 38
    },
    {
      "midi": 49,
      "hit": false,
      "t": 28800,
      "d": 609.375,
      "v": 40
    },
    {
      "midi": 85,
      "hit": false,
      "t": 28800,
      "d": 3365.625,
      "v": 80
    },
    {
      "midi": 56,
      "hit": false,
      "t": 29400,
      "d": 609.375,
      "v": 46
    },
    {
      "midi": 65,
      "hit": false,
      "t": 30000,
      "d": 609.375,
      "v": 54
    },
    {
      "midi": 61,
      "hit": false,
      "t": 30600,
      "d": 567.1875,
      "v": 51
    },
    {
      "midi": 49,
      "hit": false,
      "t": 31200,
      "d": 609.375,
      "v": 48
    },
    {
      "midi": 56,
      "hit": false,
      "t": 31800,
      "d": 609.375,
      "v": 48
    },
    {
      "midi": 83,
      "hit": false,
      "t": 32100,
      "d": 304.6875,
      "v": 76
    },
    {
      "midi": 85,
      "hit": false,
      "t": 32400,
      "d": 403.125,
      "v": 79
    },
    {
      "midi": 65,
      "hit": false,
      "t": 32400,
      "d": 609.375,
      "v": 50
    },
    {
      "midi": 83,
      "hit": false,
      "t": 32798.4375,
      "d": 403.125,
      "v": 75
    },
    {
      "midi": 61,
      "hit": false,
      "t": 33000,
      "d": 567.1875,
      "v": 40
    },
    {
      "midi": 81,
      "hit": false,
      "t": 33196.875,
      "d": 403.125,
      "v": 75
    },
    {
      "midi": 54,
      "hit": false,
      "t": 33600,
      "d": 609.375,
      "v": 40
    },
    {
      "midi": 81,
      "hit": false,
      "t": 33600,
      "d": 2278.125,
      "v": 93
    },
    {
      "midi": 57,
      "hit": false,
      "t": 34200,
      "d": 609.375,
      "v": 40
    },
    {
      "midi": 66,
      "hit": false,
      "t": 34800,
      "d": 609.375,
      "v": 43
    },
    {
      "midi": 61,
      "hit": false,
      "t": 35400,
      "d": 567.1875,
      "v": 35
    },
    {
      "midi": 54,
      "hit": false,
      "t": 36000,
      "d": 609.375,
      "v": 36
    },
    {
      "midi": 57,
      "hit": false,
      "t": 36600,
      "d": 609.375,
      "v": 35
    },
    {
      "midi": 66,
      "hit": false,
      "t": 37200,
      "d": 609.375,
      "v": 37
    },
    {
      "midi": 61,
      "hit": false,
      "t": 37800,
      "d": 567.1875,
      "v": 33
    },
    {
      "midi": 48,
      "hit": false,
      "t": 38400,
      "d": 609.375,
      "v": 26
    },
    {
      "midi": 80,
      "hit": false,
      "t": 38400,
      "d": 2446.875,
      "v": 72
    },
    {
      "midi": 56,
      "hit": false,
      "t": 39000,
      "d": 609.375,
      "v": 29
    },
    {
      "midi": 66,
      "hit": false,
      "t": 39600,
      "d": 609.375,
      "v": 25
    },
    {
      "midi": 63,
      "hit": false,
      "t": 40200,
      "d": 567.1875,
      "v": 25
    },
    {
      "midi": 48,
      "hit": false,
      "t": 40800,
      "d": 609.375,
      "v": 20
    },
    {
      "midi": 75,
      "hit": false,
      "t": 40800,
      "d": 2446.875,
      "v": 58
    },
    {
      "midi": 56,
      "hit": false,
      "t": 41400,
      "d": 609.375,
      "v": 18
    },
    {
      "midi": 66,
      "hit": false,
      "t": 42000,
      "d": 609.375,
      "v": 28
    },
    {
      "midi": 63,
      "hit": false,
      "t": 42600,
      "d": 567.1875,
      "v": 28
    },
    {
      "midi": 49,
      "hit": false,
      "t": 43200,
      "d": 609.375,
      "v": 22
    },
    {
      "midi": 76,
      "hit": false,
      "t": 43200,
      "d": 2446.875,
      "v": 71
    },
    {
      "midi": 56,
      "hit": false,
      "t": 43800,
      "d": 609.375,
      "v": 27
    },
    {
      "midi": 64,
      "hit": false,
      "t": 44400,
      "d": 609.375,
      "v": 27
    },
    {
      "midi": 61,
      "hit": false,
      "t": 45000,
      "d": 567.1875,
      "v": 27
    },
    {
      "midi": 45,
      "hit": false,
      "t": 45600,
      "d": 609.375,
      "v": 28
    },
    {
      "midi": 78,
      "hit": false,
      "t": 45600,
      "d": 1223.4375,
      "v": 83
    },
    {
      "midi": 51,
      "hit": false,
      "t": 46200,
      "d": 609.375,
      "v": 33
    },
    {
      "midi": 61,
      "hit": false,
      "t": 46800,
      "d": 609.375,
      "v": 38
    },
    {
      "midi": 73,
      "hit": false,
      "t": 46800,
      "d": 1073.4375,
      "v": 76
    },
    {
      "midi": 54,
      "hit": false,
      "t": 47400,
      "d": 567.1875,
      "v": 36
    },
    {
      "midi": 73,
      "hit": false,
      "t": 47906.25,
      "d": 117.1875,
      "v": 72
    },
    {
      "midi": 44,
      "hit": false,
      "t": 48000,
      "d": 609.375,
      "v": 37
    },
    {
      "midi": 75,
      "hit": false,
      "t": 48023.4375,
      "d": 117.1875,
      "v": 72
    },
    {
      "midi": 76,
      "hit": false,
      "t": 48140.625,
      "d": 84.375,
      "v": 72
    },
    {
      "midi": 75,
      "hit": false,
      "t": 48248.4375,
      "d": 84.375,
      "v": 69
    },
    {
      "midi": 76,
      "hit": false,
      "t": 48356.25,
      "d": 84.375,
      "v": 68
    },
    {
      "midi": 75,
      "hit": false,
      "t": 48464.0625,
      "d": 84.375,
      "v": 67
    },
    {
      "midi": 76,
      "hit": false,
      "t": 48571.875,
      "d": 84.375,
      "v": 66
    },
    {
      "midi": 51,
      "hit": false,
      "t": 48600,
      "d": 609.375,
      "v": 41
    },
    {
      "midi": 75,
      "hit": false,
      "t": 48679.6875,
      "d": 84.375,
      "v": 65
    },
    {
      "midi": 76,
      "hit": false,
      "t": 48782.8125,
      "d": 79.6875,
      "v": 64
    },
    {
      "midi": 75,
      "hit": false,
      "t": 48885.9375,
      "d": 79.6875,
      "v": 64
    },
    {
      "midi": 76,
      "hit": false,
      "t": 48989.0625,
      "d": 79.6875,
      "v": 65
    },
    {
      "midi": 75,
      "hit": false,
      "t": 49092.1875,
      "d": 79.6875,
      "v": 65
    },
    {
      "midi": 76,
      "hit": false,
      "t": 49195.3125,
      "d": 79.6875,
      "v": 66
    },
    {
      "midi": 61,
      "hit": false,
      "t": 49200,
      "d": 609.375,
      "v": 46
    },
    {
      "midi": 75,
      "hit": false,
      "t": 49293.75,
      "d": 75,
      "v": 66
    },
    {
      "midi": 76,
      "hit": false,
      "t": 49392.1875,
      "d": 75,
      "v": 67
    },
    {
      "midi": 75,
      "hit": false,
      "t": 49490.625,
      "d": 75,
      "v": 68
    },
    {
      "midi": 76,
      "hit": false,
      "t": 49589.0625,
      "d": 75,
      "v": 68
    },
    {
      "midi": 75,
      "hit": false,
      "t": 49687.5,
      "d": 75,
      "v": 69
    },
    {
      "midi": 76,
      "hit": false,
      "t": 49785.9375,
      "d": 75,
      "v": 69
    },
    {
      "midi": 51,
      "hit": false,
      "t": 49800,
      "d": 567.1875,
      "v": 42
    },
    {
      "midi": 75,
      "hit": false,
      "t": 49879.6875,
      "d": 75,
      "v": 70
    },
    {
      "midi": 76,
      "hit": false,
      "t": 49973.4375,
      "d": 75,
      "v": 70
    },
    {
      "midi": 75,
      "hit": false,
      "t": 50067.1875,
      "d": 75,
      "v": 71
    },
    {
      "midi": 76,
      "hit": false,
      "t": 50160.9375,
      "d": 75,
      "v": 71
    },
    {
      "midi": 75,
      "hit": false,
      "t": 50254.6875,
      "d": 75,
      "v": 72
    },
    {
      "midi": 76,
      "hit": false,
      "t": 50348.4375,
      "d": 75,
      "v": 72
    },
    {
      "midi": 44,
      "hit": false,
      "t": 50400,
      "d": 609.375,
      "v": 44
    },
    {
      "midi": 75,
      "hit": false,
      "t": 50442.1875,
      "d": 75,
      "v": 72
    },
    {
      "midi": 76,
      "hit": false,
      "t": 50540.625,
      "d": 75,
      "v": 72
    },
    {
      "midi": 75,
      "hit": false,
      "t": 50639.0625,
      "d": 75,
      "v": 73
    },
    {
      "midi": 76,
      "hit": false,
      "t": 50737.5,
      "d": 75,
      "v": 73
    },
    {
      "midi": 75,
      "hit": false,
      "t": 50835.9375,
      "d": 75,
      "v": 74
    },
    {
      "midi": 76,
      "hit": false,
      "t": 50934.375,
      "d": 75,
      "v": 74
    },
    {
      "midi": 51,
      "hit": false,
      "t": 51000,
      "d": 609.375,
      "v": 50
    },
    {
      "midi": 75,
      "hit": false,
      "t": 51037.5,
      "d": 79.6875,
      "v": 75
    },
    {
      "midi": 76,
      "hit": false,
      "t": 51140.625,
      "d": 79.6875,
      "v": 75
    },
    {
      "midi": 75,
      "hit": false,
      "t": 51243.75,
      "d": 79.6875,
      "v": 76
    },
    {
      "midi": 76,
      "hit": false,
      "t": 51346.875,
      "d": 79.6875,
      "v": 76
    },
    {
      "midi": 75,
      "hit": false,
      "t": 51450,
      "d": 79.6875,
      "v": 77
    },
    {
      "midi": 76,
      "hit": false,
      "t": 51553.125,
      "d": 42.1875,
      "v": 78
    },
    {
      "midi": 60,
      "hit": false,
      "t": 51600,
      "d": 609.375,
      "v": 56
    },
    {
      "midi": 75,
      "hit": false,
      "t": 51600,
      "d": 609.375,
      "v": 80
    },
    {
      "midi": 58,
      "hit": false,
      "t": 52200,
      "d": 567.1875,
      "v": 48
    },
    {
      "midi": 73,
      "hit": false,
      "t": 52200,
      "d": 609.375,
      "v": 78
    },
    {
      "midi": 44,
      "hit": false,
      "t": 52800,
      "d": 609.375,
      "v": 42
    },
    {
      "midi": 75,
      "hit": false,
      "t": 52800,
      "d": 2278.125,
      "v": 82
    },
    {
      "midi": 51,
      "hit": false,
      "t": 53400,
      "d": 609.375,
      "v": 45
    },
    {
      "midi": 60,
      "hit": false,
      "t": 54000,
      "d": 609.375,
      "v": 46
    },
    {
      "midi": 56,
      "hit": false,
      "t": 54600,
      "d": 567.1875,
      "v": 36
    },
    {
      "midi": 44,
      "hit": false,
      "t": 55200,
      "d": 609.375,
      "v": 35
    },
    {
      "midi": 51,
      "hit": false,
      "t": 55800,
      "d": 609.375,
      "v": 33
    },
    {
      "midi": 60,
      "hit": false,
      "t": 56400,
      "d": 609.375,
      "v": 32
    },
    {
      "midi": 68,
      "hit": false,
      "t": 56400,
      "d": 1200,
      "v": 57
    },
    {
      "midi": 56,
      "hit": false,
      "t": 57000,
      "d": 567.1875,
      "v": 28
    },
    {
      "midi": 49,
      "hit": false,
      "t": 57600,
      "d": 609.375,
      "v": 22
    },
    {
      "midi": 80,
      "hit": false,
      "t": 57600,
      "d": 2446.875,
      "v": 70
    },
    {
      "midi": 56,
      "hit": false,
      "t": 58200,
      "d": 609.375,
      "v": 23
    },
    {
      "midi": 64,
      "hit": false,
      "t": 58800,
      "d": 609.375,
      "v": 27
    },
    {
      "midi": 61,
      "hit": false,
      "t": 59400,
      "d": 567.1875,
      "v": 25
    },
    {
      "midi": 78,
      "hit": false,
      "t": 60000,
      "d": 84.375,
      "v": 67
    },
    {
      "midi": 49,
      "hit": false,
      "t": 60000,
      "d": 609.375,
      "v": 23
    },
    {
      "midi": 80,
      "hit": false,
      "t": 60107.8125,
      "d": 84.375,
      "v": 67
    },
    {
      "midi": 78,
      "hit": false,
      "t": 60215.625,
      "d": 84.375,
      "v": 67
    },
    {
      "midi": 80,
      "hit": false,
      "t": 60318.75,
      "d": 79.6875,
      "v": 67
    },
    {
      "midi": 78,
      "hit": false,
      "t": 60421.875,
      "d": 79.6875,
      "v": 68
    },
    {
      "midi": 80,
      "hit": false,
      "t": 60525,
      "d": 79.6875,
      "v": 68
    },
    {
      "midi": 57,
      "hit": false,
      "t": 60600,
      "d": 609.375,
      "v": 30
    },
    {
      "midi": 78,
      "hit": false,
      "t": 60623.4375,
      "d": 75,
      "v": 69
    },
    {
      "midi": 80,
      "hit": false,
      "t": 60721.875,
      "d": 75,
      "v": 69
    },
    {
      "midi": 78,
      "hit": false,
      "t": 60820.3125,
      "d": 75,
      "v": 70
    },
    {
      "midi": 80,
      "hit": false,
      "t": 60918.75,
      "d": 75,
      "v": 70
    },
    {
      "midi": 78,
      "hit": false,
      "t": 61012.5,
      "d": 75,
      "v": 70
    },
    {
      "midi": 80,
      "hit": false,
      "t": 61106.25,
      "d": 75,
      "v": 71
    },
    {
      "midi": 78,
      "hit": false,
      "t": 61200,
      "d": 75,
      "v": 71
    },
    {
      "midi": 63,
      "hit": false,
      "t": 61200,
      "d": 609.375,
      "v": 35
    },
    {
      "midi": 80,
      "hit": false,
      "t": 61298.4375,
      "d": 75,
      "v": 72
    },
    {
      "midi": 78,
      "hit": false,
      "t": 61396.875,
      "d": 75,
      "v": 72
    },
    {
      "midi": 80,
      "hit": false,
      "t": 61495.3125,
      "d": 75,
      "v": 72
    },
    {
      "midi": 78,
      "hit": false,
      "t": 61598.4375,
      "d": 79.6875,
      "v": 72
    },
    {
      "midi": 80,
      "hit": false,
      "t": 61701.5625,
      "d": 79.6875,
      "v": 72
    },
    {
      "midi": 61,
      "hit": false,
      "t": 61800,
      "d": 567.1875,
      "v": 35
    },
    {
      "midi": 78,
      "hit": false,
      "t": 61804.6875,
      "d": 28.125,
      "v": 73
    },
    {
      "midi": 76,
      "hit": false,
      "t": 61837.5,
      "d": 229.6875,
      "v": 74
    },
    {
      "midi": 78,
      "hit": false,
      "t": 61978.125,
      "d": 173.4375,
      "v": 74
    },
    {
      "midi": 80,
      "hit": false,
      "t": 62118.75,
      "d": 117.1875,
      "v": 74
    },
    {
      "midi": 81,
      "hit": false,
      "t": 62259.375,
      "d": 60.9375,
      "v": 74
    },
    {
      "midi": 49,
      "hit": false,
      "t": 62400,
      "d": 609.375,
      "v": 38
    },
    {
      "midi": 80,
      "hit": false,
      "t": 62400,
      "d": 2446.875,
      "v": 74
    },
    {
      "midi": 56,
      "hit": false,
      "t": 63000,
      "d": 609.375,
      "v": 40
    },
    {
      "midi": 64,
      "hit": false,
      "t": 63600,
      "d": 609.375,
      "v": 48
    },
    {
      "midi": 61,
      "hit": false,
      "t": 64200,
      "d": 567.1875,
      "v": 45
    },
    {
      "midi": 49,
      "hit": false,
      "t": 64800,
      "d": 609.375,
      "v": 48
    },
    {
      "midi": 73,
      "hit": false,
      "t": 64800,
      "d": 1223.4375,
      "v": 79
    },
    {
      "midi": 56,
      "hit": false,
      "t": 65400,
      "d": 609.375,
      "v": 57
    },
    {
      "midi": 64,
      "hit": false,
      "t": 66000,
      "d": 609.375,
      "v": 65
    },
    {
      "midi": 85,
      "hit": false,
      "t": 66000,
      "d": 1139.0625,
      "v": 102
    },
    {
      "midi": 61,
      "hit": false,
      "t": 66600,
      "d": 567.1875,
      "v": 61
    },
    {
      "midi": 97,
      "hit": false,
      "t": 67200,
      "d": 403.125,
      "v": 98
    },
    {
      "midi": 49,
      "hit": false,
      "t": 67200,
      "d": 609.375,
      "v": 59
    },
    {
      "midi": 98,
      "hit": false,
      "t": 67598.4375,
      "d": 403.125,
      "v": 102
    },
    {
      "midi": 56,
      "hit": false,
      "t": 67800,
      "d": 609.375,
      "v": 66
    },
    {
      "midi": 95,
      "hit": false,
      "t": 67996.875,
      "d": 407.8125,
      "v": 92
    },
    {
      "midi": 93,
      "hit": false,
      "t": 68400,
      "d": 403.125,
      "v": 90
    },
    {
      "midi": 65,
      "hit": false,
      "t": 68400,
      "d": 609.375,
      "v": 69
    },
    {
      "midi": 92,
      "hit": false,
      "t": 68798.4375,
      "d": 403.125,
      "v": 94
    },
    {
      "midi": 61,
      "hit": false,
      "t": 69000,
      "d": 567.1875,
      "v": 53
    },
    {
      "midi": 90,
      "hit": false,
      "t": 69196.875,
      "d": 407.8125,
      "v": 88
    },
    {
      "midi": 89,
      "hit": false,
      "t": 69600,
      "d": 304.6875,
      "v": 108
    },
    {
      "midi": 49,
      "hit": false,
      "t": 69600,
      "d": 609.375,
      "v": 56
    },
    {
      "midi": 86,
      "hit": false,
      "t": 69900,
      "d": 304.6875,
      "v": 93
    },
    {
      "midi": 85,
      "hit": false,
      "t": 70200,
      "d": 196.875,
      "v": 87
    },
    {
      "midi": 56,
      "hit": false,
      "t": 70200,
      "d": 609.375,
      "v": 58
    },
    {
      "midi": 83,
      "hit": false,
      "t": 70396.875,
      "d": 201.5625,
      "v": 84
    },
    {
      "midi": 81,
      "hit": false,
      "t": 70598.4375,
      "d": 201.5625,
      "v": 81
    },
    {
      "midi": 80,
      "hit": false,
      "t": 70800,
      "d": 196.875,
      "v": 77
    },
    {
      "midi": 65,
      "hit": false,
      "t": 70800,
      "d": 609.375,
      "v": 61
    },
    {
      "midi": 78,
      "hit": false,
      "t": 70996.875,
      "d": 201.5625,
      "v": 74
    },
    {
      "midi": 77,
      "hit": false,
      "t": 71198.4375,
      "d": 201.5625,
      "v": 72
    },
    {
      "midi": 74,
      "hit": false,
      "t": 71400,
      "d": 196.875,
      "v": 67
    },
    {
      "midi": 59,
      "hit": false,
      "t": 71400,
      "d": 567.1875,
      "v": 47
    },
    {
      "midi": 73,
      "hit": false,
      "t": 71596.875,
      "d": 201.5625,
      "v": 66
    },
    {
      "midi": 71,
      "hit": false,
      "t": 71798.4375,
      "d": 201.5625,
      "v": 62
    },
    {
      "midi": 54,
      "hit": false,
      "t": 72000,
      "d": 609.375,
      "v": 46
    },
    {
      "midi": 69,
      "hit": false,
      "t": 72000,
      "d": 3417.1875,
      "v": 62
    },
    {
      "midi": 57,
      "hit": false,
      "t": 72600,
      "d": 609.375,
      "v": 48
    },
    {
      "midi": 66,
      "hit": false,
      "t": 73200,
      "d": 609.375,
      "v": 57
    },
    {
      "midi": 61,
      "hit": false,
      "t": 73800,
      "d": 567.1875,
      "v": 51
    },
    {
      "midi": 57,
      "hit": false,
      "t": 74400,
      "d": 609.375,
      "v": 55
    },
    {
      "midi": 54,
      "hit": false,
      "t": 75000,
      "d": 609.375,
      "v": 51
    },
    {
      "midi": 57,
      "hit": false,
      "t": 75600,
      "d": 609.375,
      "v": 52
    },
    {
      "midi": 49,
      "hit": false,
      "t": 76200,
      "d": 567.1875,
      "v": 49
    },
    {
      "midi": 42,
      "hit": false,
      "t": 76800,
      "d": 609.375,
      "v": 47
    },
    {
      "midi": 62,
      "hit": false,
      "t": 76800,
      "d": 2446.875,
      "v": 57
    },
    {
      "midi": 50,
      "hit": false,
      "t": 77400,
      "d": 609.375,
      "v": 54
    },
    {
      "midi": 57,
      "hit": false,
      "t": 78000,
      "d": 609.375,
      "v": 52
    },
    {
      "midi": 54,
      "hit": false,
      "t": 78600,
      "d": 567.1875,
      "v": 51
    },
    {
      "midi": 42,
      "hit": false,
      "t": 79200,
      "d": 609.375,
      "v": 51
    },
    {
      "midi": 74,
      "hit": false,
      "t": 79200,
      "d": 1832.8125,
      "v": 73
    },
    {
      "midi": 50,
      "hit": false,
      "t": 79800,
      "d": 609.375,
      "v": 55
    },
    {
      "midi": 57,
      "hit": false,
      "t": 80400,
      "d": 609.375,
      "v": 55
    },
    {
      "midi": 54,
      "hit": false,
      "t": 81000,
      "d": 567.1875,
      "v": 52
    },
    {
      "midi": 73,
      "hit": false,
      "t": 81000,
      "d": 609.375,
      "v": 77
    },
    {
      "midi": 72,
      "hit": false,
      "t": 81600,
      "d": 84.375,
      "v": 90
    },
    {
      "midi": 42,
      "hit": false,
      "t": 81600,
      "d": 609.375,
      "v": 52
    },
    {
      "midi": 73,
      "hit": false,
      "t": 81707.8125,
      "d": 84.375,
      "v": 90
    },
    {
      "midi": 72,
      "hit": false,
      "t": 81815.625,
      "d": 84.375,
      "v": 79
    },
    {
      "midi": 73,
      "hit": false,
      "t": 81918.75,
      "d": 79.6875,
      "v": 79
    },
    {
      "midi": 72,
      "hit": false,
      "t": 82021.875,
      "d": 79.6875,
      "v": 80
    },
    {
      "midi": 73,
      "hit": false,
      "t": 82125,
      "d": 79.6875,
      "v": 80
    },
    {
      "midi": 51,
      "hit": false,
      "t": 82200,
      "d": 609.375,
      "v": 60
    },
    {
      "midi": 72,
      "hit": false,
      "t": 82223.4375,
      "d": 75,
      "v": 81
    },
    {
      "midi": 73,
      "hit": false,
      "t": 82321.875,
      "d": 75,
      "v": 81
    },
    {
      "midi": 72,
      "hit": false,
      "t": 82420.3125,
      "d": 75,
      "v": 82
    },
    {
      "midi": 73,
      "hit": false,
      "t": 82518.75,
      "d": 75,
      "v": 82
    },
    {
      "midi": 72,
      "hit": false,
      "t": 82612.5,
      "d": 75,
      "v": 83
    },
    {
      "midi": 73,
      "hit": false,
      "t": 82706.25,
      "d": 75,
      "v": 83
    },
    {
      "midi": 72,
      "hit": false,
      "t": 82800,
      "d": 75,
      "v": 84
    },
    {
      "midi": 57,
      "hit": false,
      "t": 82800,
      "d": 609.375,
      "v": 59
    },
    {
      "midi": 73,
      "hit": false,
      "t": 82898.4375,
      "d": 75,
      "v": 84
    },
    {
      "midi": 72,
      "hit": false,
      "t": 82996.875,
      "d": 75,
      "v": 85
    },
    {
      "midi": 73,
      "hit": false,
      "t": 83095.3125,
      "d": 75,
      "v": 85
    },
    {
      "midi": 72,
      "hit": false,
      "t": 83198.4375,
      "d": 79.6875,
      "v": 86
    },
    {
      "midi": 73,
      "hit": false,
      "t": 83301.5625,
      "d": 79.6875,
      "v": 86
    },
    {
      "midi": 71,
      "hit": false,
      "t": 83400,
      "d": 150,
      "v": 86
    },
    {
      "midi": 54,
      "hit": false,
      "t": 83400,
      "d": 567.1875,
      "v": 59
    },
    {
      "midi": 72,
      "hit": false,
      "t": 83404.6875,
      "d": 23.4375,
      "v": 86
    },
    {
      "midi": 72,
      "hit": false,
      "t": 83550,
      "d": 150,
      "v": 90
    },
    {
      "midi": 73,
      "hit": false,
      "t": 83700,
      "d": 150,
      "v": 90
    },
    {
      "midi": 75,
      "hit": false,
      "t": 83850,
      "d": 140.625,
      "v": 91
    },
    {
      "midi": 43,
      "hit": false,
      "t": 84000,
      "d": 609.375,
      "v": 58
    },
    {
      "midi": 76,
      "hit": false,
      "t": 84000,
      "d": 1223.4375,
      "v": 90
    },
    {
      "midi": 52,
      "hit": false,
      "t": 84600,
      "d": 609.375,
      "v": 64
    },
    {
      "midi": 61,
      "hit": false,
      "t": 85200,
      "d": 609.375,
      "v": 68
    },
    {
      "midi": 75,
      "hit": false,
      "t": 85200,
      "d": 609.375,
      "v": 95
    },
    {
      "midi": 57,
      "hit": false,
      "t": 85800,
      "d": 567.1875,
      "v": 66
    },
    {
      "midi": 73,
      "hit": false,
      "t": 85800,
      "d": 609.375,
      "v": 92
    },
    {
      "midi": 68,
      "hit": false,
      "t": 86400,
      "d": 567.1875,
      "v": 90
    },
    {
      "midi": 44,
      "hit": false,
      "t": 86400,
      "d": 609.375,
      "v": 63
    },
    {
      "midi": 52,
      "hit": false,
      "t": 87000,
      "d": 609.375,
      "v": 65
    },
    {
      "midi": 61,
      "hit": false,
      "t": 87600,
      "d": 609.375,
      "v": 71
    },
    {
      "midi": 69,
      "hit": false,
      "t": 87600,
      "d": 2446.875,
      "v": 87
    },
    {
      "midi": 56,
      "hit": false,
      "t": 88200,
      "d": 567.1875,
      "v": 59
    },
    {
      "midi": 44,
      "hit": false,
      "t": 88800,
      "d": 609.375,
      "v": 56
    },
    {
      "midi": 51,
      "hit": false,
      "t": 89400,
      "d": 609.375,
      "v": 58
    },
    {
      "midi": 60,
      "hit": false,
      "t": 90000,
      "d": 609.375,
      "v": 60
    },
    {
      "midi": 68,
      "hit": false,
      "t": 90000,
      "d": 1223.4375,
      "v": 67
    },
    {
      "midi": 54,
      "hit": false,
      "t": 90600,
      "d": 567.1875,
      "v": 51
    },
    {
      "midi": 49,
      "hit": false,
      "t": 91200,
      "d": 609.375,
      "v": 51
    },
    {
      "midi": 61,
      "hit": false,
      "t": 91200,
      "d": 2278.125,
      "v": 73
    },
    {
      "midi": 56,
      "hit": false,
      "t": 91800,
      "d": 609.375,
      "v": 49
    },
    {
      "midi": 52,
      "hit": false,
      "t": 92400,
      "d": 609.375,
      "v": 45
    },
    {
      "midi": 51,
      "hit": false,
      "t": 93000,
      "d": 567.1875,
      "v": 44
    },
    {
      "midi": 49,
      "hit": false,
      "t": 93600,
      "d": 609.375,
      "v": 40
    },
    {
      "midi": 52,
      "hit": false,
      "t": 94200,
      "d": 609.375,
      "v": 41
    },
    {
      "midi": 49,
      "hit": false,
      "t": 94800,
      "d": 609.375,
      "v": 38
    },
    {
      "midi": 47,
      "hit": false,
      "t": 95400,
      "d": 567.1875,
      "v": 36
    },
    {
      "midi": 45,
      "hit": false,
      "t": 96000,
      "d": 609.375,
      "v": 36
    },
    {
      "midi": 64,
      "hit": false,
      "t": 96000,
      "d": 1223.4375,
      "v": 44
    },
    {
      "midi": 52,
      "hit": false,
      "t": 96600,
      "d": 609.375,
      "v": 37
    },
    {
      "midi": 66,
      "hit": false,
      "t": 97200,
      "d": 304.6875,
      "v": 48
    },
    {
      "midi": 61,
      "hit": false,
      "t": 97200,
      "d": 609.375,
      "v": 41
    },
    {
      "midi": 68,
      "hit": false,
      "t": 97500,
      "d": 304.6875,
      "v": 51
    },
    {
      "midi": 69,
      "hit": false,
      "t": 97800,
      "d": 304.6875,
      "v": 52
    },
    {
      "midi": 57,
      "hit": false,
      "t": 97800,
      "d": 567.1875,
      "v": 37
    },
    {
      "midi": 71,
      "hit": false,
      "t": 98100,
      "d": 304.6875,
      "v": 53
    },
    {
      "midi": 73,
      "hit": false,
      "t": 98400,
      "d": 403.125,
      "v": 57
    },
    {
      "midi": 45,
      "hit": false,
      "t": 98400,
      "d": 609.375,
      "v": 41
    },
    {
      "midi": 74,
      "hit": false,
      "t": 98798.4375,
      "d": 403.125,
      "v": 56
    },
    {
      "midi": 52,
      "hit": false,
      "t": 99000,
      "d": 609.375,
      "v": 43
    },
    {
      "midi": 73,
      "hit": false,
      "t": 99196.875,
      "d": 407.8125,
      "v": 55
    },
    {
      "midi": 62,
      "hit": false,
      "t": 99600,
      "d": 609.375,
      "v": 48
    },
    {
      "midi": 71,
      "hit": false,
      "t": 99600,
      "d": 1139.0625,
      "v": 60
    },
    {
      "midi": 56,
      "hit": false,
      "t": 100200,
      "d": 567.1875,
      "v": 45
    },
    {
      "midi": 45,
      "hit": false,
      "t": 100800,
      "d": 609.375,
      "v": 45
    },
    {
      "midi": 76,
      "hit": false,
      "t": 100800,
      "d": 609.375,
      "v": 68
    },
    {
      "midi": 74,
      "hit": false,
      "t": 101400,
      "d": 304.6875,
      "v": 62
    },
    {
      "midi": 52,
      "hit": false,
      "t": 101400,
      "d": 609.375,
      "v": 50
    },
    {
      "midi": 73,
      "hit": false,
      "t": 101700,
      "d": 304.6875,
      "v": 62
    },
    {
      "midi": 61,
      "hit": false,
      "t": 102000,
      "d": 609.375,
      "v": 56
    },
    {
      "midi": 71,
      "hit": false,
      "t": 102000,
      "d": 609.375,
      "v": 60
    },
    {
      "midi": 57,
      "hit": false,
      "t": 102600,
      "d": 567.1875,
      "v": 49
    },
    {
      "midi": 69,
      "hit": false,
      "t": 102600,
      "d": 609.375,
      "v": 56
    },
    {
      "midi": 73,
      "hit": false,
      "t": 103200,
      "d": 403.125,
      "v": 59
    },
    {
      "midi": 45,
      "hit": false,
      "t": 103200,
      "d": 609.375,
      "v": 46
    },
    {
      "midi": 74,
      "hit": false,
      "t": 103598.4375,
      "d": 403.125,
      "v": 56
    },
    {
      "midi": 52,
      "hit": false,
      "t": 103800,
      "d": 609.375,
      "v": 48
    },
    {
      "midi": 73,
      "hit": false,
      "t": 103996.875,
      "d": 407.8125,
      "v": 48
    },
    {
      "midi": 62,
      "hit": false,
      "t": 104400,
      "d": 609.375,
      "v": 53
    },
    {
      "midi": 71,
      "hit": false,
      "t": 104400,
      "d": 1139.0625,
      "v": 51
    },
    {
      "midi": 56,
      "hit": false,
      "t": 105000,
      "d": 567.1875,
      "v": 50
    },
    {
      "midi": 45,
      "hit": false,
      "t": 105600,
      "d": 609.375,
      "v": 46
    },
    {
      "midi": 74,
      "hit": false,
      "t": 105600,
      "d": 1200,
      "v": 51
    },
    {
      "midi": 76,
      "hit": false,
      "t": 105600,
      "d": 1200,
      "v": 51
    },
    {
      "midi": 52,
      "hit": false,
      "t": 106200,
      "d": 609.375,
      "v": 50
    },
    {
      "midi": 64,
      "hit": false,
      "t": 106800,
      "d": 609.375,
      "v": 56
    },
    {
      "midi": 74,
      "hit": false,
      "t": 106800,
      "d": 900,
      "v": 45
    },
    {
      "midi": 76,
      "hit": false,
      "t": 106800,
      "d": 900,
      "v": 45
    },
    {
      "midi": 56,
      "hit": false,
      "t": 107400,
      "d": 567.1875,
      "v": 54
    },
    {
      "midi": 76,
      "hit": false,
      "t": 107700,
      "d": 300,
      "v": 54
    },
    {
      "midi": 74,
      "hit": false,
      "t": 107700,
      "d": 304.6875,
      "v": 54
    },
    {
      "midi": 45,
      "hit": false,
      "t": 108000,
      "d": 609.375,
      "v": 44
    },
    {
      "midi": 76,
      "hit": false,
      "t": 108000,
      "d": 1200,
      "v": 54
    },
    {
      "midi": 73,
      "hit": false,
      "t": 108000,
      "d": 1223.4375,
      "v": 54
    },
    {
      "midi": 52,
      "hit": false,
      "t": 108600,
      "d": 609.375,
      "v": 46
    },
    {
      "midi": 64,
      "hit": false,
      "t": 109200,
      "d": 609.375,
      "v": 57
    },
    {
      "midi": 76,
      "hit": false,
      "t": 109200,
      "d": 1092.1875,
      "v": 65
    },
    {
      "midi": 85,
      "hit": false,
      "t": 109200,
      "d": 1092.1875,
      "v": 65
    },
    {
      "midi": 57,
      "hit": false,
      "t": 109800,
      "d": 567.1875,
      "v": 54
    },
    {
      "midi": 76,
      "hit": false,
      "t": 110292.1875,
      "d": 107.8125,
      "v": 61
    },
    {
      "midi": 85,
      "hit": false,
      "t": 110292.1875,
      "d": 107.8125,
      "v": 61
    },
    {
      "midi": 45,
      "hit": false,
      "t": 110400,
      "d": 609.375,
      "v": 45
    },
    {
      "midi": 74,
      "hit": false,
      "t": 110400,
      "d": 820.3125,
      "v": 64
    },
    {
      "midi": 83,
      "hit": false,
      "t": 110400,
      "d": 820.3125,
      "v": 64
    },
    {
      "midi": 52,
      "hit": false,
      "t": 111000,
      "d": 609.375,
      "v": 48
    },
    {
      "midi": 73,
      "hit": false,
      "t": 111300,
      "d": 304.6875,
      "v": 60
    },
    {
      "midi": 81,
      "hit": false,
      "t": 111300,
      "d": 304.6875,
      "v": 60
    },
    {
      "midi": 64,
      "hit": false,
      "t": 111600,
      "d": 609.375,
      "v": 53
    },
    {
      "midi": 74,
      "hit": false,
      "t": 111600,
      "d": 914.0625,
      "v": 64
    },
    {
      "midi": 83,
      "hit": false,
      "t": 111600,
      "d": 914.0625,
      "v": 64
    },
    {
      "midi": 56,
      "hit": false,
      "t": 112200,
      "d": 567.1875,
      "v": 53
    },
    {
      "midi": 76,
      "hit": false,
      "t": 112500,
      "d": 304.6875,
      "v": 60
    },
    {
      "midi": 85,
      "hit": false,
      "t": 112500,
      "d": 304.6875,
      "v": 60
    },
    {
      "midi": 45,
      "hit": false,
      "t": 112800,
      "d": 609.375,
      "v": 41
    },
    {
      "midi": 73,
      "hit": false,
      "t": 112800,
      "d": 2278.125,
      "v": 54
    },
    {
      "midi": 81,
      "hit": false,
      "t": 112800,
      "d": 2278.125,
      "v": 54
    },
    {
      "midi": 52,
      "hit": false,
      "t": 113400,
      "d": 609.375,
      "v": 42
    },
    {
      "midi": 61,
      "hit": false,
      "t": 114000,
      "d": 609.375,
      "v": 55
    },
    {
      "midi": 57,
      "hit": false,
      "t": 114600,
      "d": 567.1875,
      "v": 53
    },
    {
      "midi": 42,
      "hit": false,
      "t": 115200,
      "d": 609.375,
      "v": 24
    },
    {
      "midi": 61,
      "hit": false,
      "t": 115200,
      "d": 609.375,
      "v": 42
    },
    {
      "midi": 63,
      "hit": false,
      "t": 115800,
      "d": 304.6875,
      "v": 51
    },
    {
      "midi": 49,
      "hit": false,
      "t": 115800,
      "d": 609.375,
      "v": 25
    },
    {
      "midi": 65,
      "hit": false,
      "t": 116100,
      "d": 281.25,
      "v": 51
    },
    {
      "midi": 66,
      "hit": false,
      "t": 116400,
      "d": 600,
      "v": 54
    },
    {
      "midi": 57,
      "hit": false,
      "t": 116400,
      "d": 609.375,
      "v": 24
    },
    {
      "midi": 54,
      "hit": false,
      "t": 117000,
      "d": 567.1875,
      "v": 22
    },
    {
      "midi": 68,
      "hit": false,
      "t": 117000,
      "d": 609.375,
      "v": 56
    },
    {
      "midi": 69,
      "hit": false,
      "t": 117600,
      "d": 403.125,
      "v": 55
    },
    {
      "midi": 42,
      "hit": false,
      "t": 117600,
      "d": 609.375,
      "v": 23
    },
    {
      "midi": 71,
      "hit": false,
      "t": 117998.4375,
      "d": 403.125,
      "v": 59
    },
    {
      "midi": 49,
      "hit": false,
      "t": 118200,
      "d": 609.375,
      "v": 23
    },
    {
      "midi": 69,
      "hit": false,
      "t": 118396.875,
      "d": 407.8125,
      "v": 57
    },
    {
      "midi": 59,
      "hit": false,
      "t": 118800,
      "d": 609.375,
      "v": 26
    },
    {
      "midi": 68,
      "hit": false,
      "t": 118800,
      "d": 1139.0625,
      "v": 59
    },
    {
      "midi": 53,
      "hit": false,
      "t": 119400,
      "d": 567.1875,
      "v": 24
    },
    {
      "midi": 42,
      "hit": false,
      "t": 120000,
      "d": 609.375,
      "v": 20
    },
    {
      "midi": 73,
      "hit": false,
      "t": 120000,
      "d": 609.375,
      "v": 68
    },
    {
      "midi": 71,
      "hit": false,
      "t": 120600,
      "d": 304.6875,
      "v": 61
    },
    {
      "midi": 49,
      "hit": false,
      "t": 120600,
      "d": 609.375,
      "v": 22
    },
    {
      "midi": 69,
      "hit": false,
      "t": 120900,
      "d": 304.6875,
      "v": 59
    },
    {
      "midi": 59,
      "hit": false,
      "t": 121200,
      "d": 609.375,
      "v": 25
    },
    {
      "midi": 68,
      "hit": false,
      "t": 121200,
      "d": 609.375,
      "v": 61
    },
    {
      "midi": 53,
      "hit": false,
      "t": 121800,
      "d": 567.1875,
      "v": 28
    },
    {
      "midi": 61,
      "hit": false,
      "t": 121800,
      "d": 609.375,
      "v": 55
    },
    {
      "midi": 69,
      "hit": false,
      "t": 122400,
      "d": 403.125,
      "v": 61
    },
    {
      "midi": 42,
      "hit": false,
      "t": 122400,
      "d": 609.375,
      "v": 24
    },
    {
      "midi": 71,
      "hit": false,
      "t": 122798.4375,
      "d": 403.125,
      "v": 55
    },
    {
      "midi": 49,
      "hit": false,
      "t": 123000,
      "d": 609.375,
      "v": 26
    },
    {
      "midi": 69,
      "hit": false,
      "t": 123196.875,
      "d": 407.8125,
      "v": 52
    },
    {
      "midi": 57,
      "hit": false,
      "t": 123600,
      "d": 609.375,
      "v": 26
    },
    {
      "midi": 66,
      "hit": false,
      "t": 123600,
      "d": 1139.0625,
      "v": 49
    },
    {
      "midi": 54,
      "hit": false,
      "t": 124200,
      "d": 567.1875,
      "v": 23
    },
    {
      "midi": 44,
      "hit": false,
      "t": 124800,
      "d": 609.375,
      "v": 24
    },
    {
      "midi": 66,
      "hit": false,
      "t": 124800,
      "d": 1200,
      "v": 51
    },
    {
      "midi": 68,
      "hit": false,
      "t": 124800,
      "d": 1200,
      "v": 51
    },
    {
      "midi": 51,
      "hit": false,
      "t": 125400,
      "d": 609.375,
      "v": 28
    },
    {
      "midi": 60,
      "hit": false,
      "t": 126000,
      "d": 609.375,
      "v": 29
    },
    {
      "midi": 66,
      "hit": false,
      "t": 126000,
      "d": 900,
      "v": 51
    },
    {
      "midi": 68,
      "hit": false,
      "t": 126000,
      "d": 900,
      "v": 51
    },
    {
      "midi": 56,
      "hit": false,
      "t": 126600,
      "d": 567.1875,
      "v": 29
    },
    {
      "midi": 68,
      "hit": false,
      "t": 126900,
      "d": 300,
      "v": 58
    },
    {
      "midi": 66,
      "hit": false,
      "t": 126900,
      "d": 304.6875,
      "v": 58
    },
    {
      "midi": 49,
      "hit": false,
      "t": 127200,
      "d": 609.375,
      "v": 28
    },
    {
      "midi": 68,
      "hit": false,
      "t": 127200,
      "d": 1200,
      "v": 56
    },
    {
      "midi": 64,
      "hit": false,
      "t": 127200,
      "d": 1223.4375,
      "v": 56
    },
    {
      "midi": 52,
      "hit": false,
      "t": 127800,
      "d": 609.375,
      "v": 32
    },
    {
      "midi": 61,
      "hit": false,
      "t": 128400,
      "d": 609.375,
      "v": 39
    },
    {
      "midi": 68,
      "hit": false,
      "t": 128400,
      "d": 1143.75,
      "v": 68
    },
    {
      "midi": 76,
      "hit": false,
      "t": 128400,
      "d": 1143.75,
      "v": 68
    },
    {
      "midi": 56,
      "hit": false,
      "t": 129000,
      "d": 567.1875,
      "v": 36
    },
    {
      "midi": 68,
      "hit": false,
      "t": 129543.75,
      "d": 56.25,
      "v": 61
    },
    {
      "midi": 76,
      "hit": false,
      "t": 129543.75,
      "d": 56.25,
      "v": 61
    },
    {
      "midi": 44,
      "hit": false,
      "t": 129600,
      "d": 609.375,
      "v": 34
    },
    {
      "midi": 66,
      "hit": false,
      "t": 129600,
      "d": 820.3125,
      "v": 64
    },
    {
      "midi": 75,
      "hit": false,
      "t": 129600,
      "d": 820.3125,
      "v": 64
    },
    {
      "midi": 51,
      "hit": false,
      "t": 130200,
      "d": 609.375,
      "v": 32
    },
    {
      "midi": 64,
      "hit": false,
      "t": 130500,
      "d": 304.6875,
      "v": 62
    },
    {
      "midi": 73,
      "hit": false,
      "t": 130500,
      "d": 304.6875,
      "v": 62
    },
    {
      "midi": 60,
      "hit": false,
      "t": 130800,
      "d": 609.375,
      "v": 38
    },
    {
      "midi": 66,
      "hit": false,
      "t": 130800,
      "d": 914.0625,
      "v": 65
    },
    {
      "midi": 75,
      "hit": false,
      "t": 130800,
      "d": 914.0625,
      "v": 65
    },
    {
      "midi": 56,
      "hit": false,
      "t": 131400,
      "d": 567.1875,
      "v": 38
    },
    {
      "midi": 68,
      "hit": false,
      "t": 131700,
      "d": 304.6875,
      "v": 67
    },
    {
      "midi": 76,
      "hit": false,
      "t": 131700,
      "d": 304.6875,
      "v": 67
    },
    {
      "midi": 49,
      "hit": false,
      "t": 132000,
      "d": 609.375,
      "v": 31
    },
    {
      "midi": 64,
      "hit": false,
      "t": 132000,
      "d": 2278.125,
      "v": 64
    },
    {
      "midi": 73,
      "hit": false,
      "t": 132000,
      "d": 2278.125,
      "v": 64
    },
    {
      "midi": 52,
      "hit": false,
      "t": 132600,
      "d": 609.375,
      "v": 34
    },
    {
      "midi": 61,
      "hit": false,
      "t": 133200,
      "d": 609.375,
      "v": 31
    },
    {
      "midi": 56,
      "hit": false,
      "t": 133800,
      "d": 567.1875,
      "v": 26
    },
    {
      "midi": 73,
      "hit": false,
      "t": 134400,
      "d": 93.75,
      "v": 82
    },
    {
      "midi": 45,
      "hit": false,
      "t": 134400,
      "d": 609.375,
      "v": 61
    },
    {
      "midi": 75,
      "hit": false,
      "t": 134521.875,
      "d": 93.75,
      "v": 82
    },
    {
      "midi": 73,
      "hit": false,
      "t": 134639.0625,
      "d": 93.75,
      "v": 82
    },
    {
      "midi": 75,
      "hit": false,
      "t": 134756.25,
      "d": 93.75,
      "v": 82
    },
    {
      "midi": 73,
      "hit": false,
      "t": 134868.75,
      "d": 89.0625,
      "v": 82
    },
    {
      "midi": 75,
      "hit": false,
      "t": 134981.25,
      "d": 89.0625,
      "v": 82
    },
    {
      "midi": 51,
      "hit": false,
      "t": 135000,
      "d": 609.375,
      "v": 62
    },
    {
      "midi": 73,
      "hit": false,
      "t": 135089.0625,
      "d": 84.375,
      "v": 82
    },
    {
      "midi": 75,
      "hit": false,
      "t": 135196.875,
      "d": 84.375,
      "v": 82
    },
    {
      "midi": 73,
      "hit": false,
      "t": 135309.375,
      "d": 89.0625,
      "v": 82
    },
    {
      "midi": 75,
      "hit": false,
      "t": 135426.5625,
      "d": 93.75,
      "v": 82
    },
    {
      "midi": 73,
      "hit": false,
      "t": 135543.75,
      "d": 75,
      "v": 82
    },
    {
      "midi": 61,
      "hit": false,
      "t": 135600,
      "d": 609.375,
      "v": 72
    },
    {
      "midi": 72,
      "hit": false,
      "t": 135600,
      "d": 609.375,
      "v": 81
    },
    {
      "midi": 55,
      "hit": false,
      "t": 136200,
      "d": 567.1875,
      "v": 68
    },
    {
      "midi": 73,
      "hit": false,
      "t": 136200,
      "d": 609.375,
      "v": 81
    },
    {
      "midi": 44,
      "hit": false,
      "t": 136800,
      "d": 609.375,
      "v": 58
    },
    {
      "midi": 76,
      "hit": false,
      "t": 136800,
      "d": 1832.8125,
      "v": 82
    },
    {
      "midi": 51,
      "hit": false,
      "t": 137400,
      "d": 609.375,
      "v": 58
    },
    {
      "midi": 60,
      "hit": false,
      "t": 138000,
      "d": 609.375,
      "v": 49
    },
    {
      "midi": 56,
      "hit": false,
      "t": 138600,
      "d": 567.1875,
      "v": 34
    },
    {
      "midi": 75,
      "hit": false,
      "t": 138600,
      "d": 567.1875,
      "v": 63
    },
    {
      "midi": 45,
      "hit": false,
      "t": 139200,
      "d": 609.375,
      "v": 32
    },
    {
      "midi": 63,
      "hit": false,
      "t": 139200,
      "d": 914.0625,
      "v": 55
    },
    {
      "midi": 51,
      "hit": false,
      "t": 139800,
      "d": 609.375,
      "v": 33
    },
    {
      "midi": 73,
      "hit": false,
      "t": 140100,
      "d": 300,
      "v": 53
    },
    {
      "midi": 73,
      "hit": false,
      "t": 140400,
      "d": 389.0625,
      "v": 50
    },
    {
      "midi": 61,
      "hit": false,
      "t": 140400,
      "d": 609.375,
      "v": 40
    },
    {
      "midi": 73,
      "hit": false,
      "t": 141000,
      "d": 393.75,
      "v": 47
    },
    {
      "midi": 55,
      "hit": false,
      "t": 141000,
      "d": 567.1875,
      "v": 37
    },
    {
      "midi": 44,
      "hit": false,
      "t": 141600,
      "d": 609.375,
      "v": 34
    },
    {
      "midi": 72,
      "hit": false,
      "t": 141600,
      "d": 609.375,
      "v": 47
    },
    {
      "midi": 51,
      "hit": false,
      "t": 142200,
      "d": 609.375,
      "v": 35
    },
    {
      "midi": 75,
      "hit": false,
      "t": 142200,
      "d": 1706.25,
      "v": 58
    },
    {
      "midi": 60,
      "hit": false,
      "t": 142800,
      "d": 609.375,
      "v": 43
    },
    {
      "midi": 56,
      "hit": false,
      "t": 143400,
      "d": 567.1875,
      "v": 41
    },
    {
      "midi": 68,
      "hit": false,
      "t": 144000,
      "d": 403.125,
      "v": 58
    },
    {
      "midi": 50,
      "hit": false,
      "t": 144000,
      "d": 609.375,
      "v": 35
    },
    {
      "midi": 70,
      "hit": false,
      "t": 144398.4375,
      "d": 403.125,
      "v": 59
    },
    {
      "midi": 53,
      "hit": false,
      "t": 144600,
      "d": 609.375,
      "v": 34
    },
    {
      "midi": 68,
      "hit": false,
      "t": 144796.875,
      "d": 407.8125,
      "v": 62
    },
    {
      "midi": 59,
      "hit": false,
      "t": 145200,
      "d": 609.375,
      "v": 36
    },
    {
      "midi": 67,
      "hit": false,
      "t": 145200,
      "d": 609.375,
      "v": 62
    },
    {
      "midi": 56,
      "hit": false,
      "t": 145800,
      "d": 567.1875,
      "v": 36
    },
    {
      "midi": 65,
      "hit": false,
      "t": 145800,
      "d": 600,
      "v": 59
    },
    {
      "midi": 51,
      "hit": false,
      "t": 146400,
      "d": 609.375,
      "v": 37
    },
    {
      "midi": 65,
      "hit": false,
      "t": 146400,
      "d": 1832.8125,
      "v": 60
    },
    {
      "midi": 56,
      "hit": false,
      "t": 147000,
      "d": 609.375,
      "v": 37
    },
    {
      "midi": 60,
      "hit": false,
      "t": 147600,
      "d": 609.375,
      "v": 37
    },
    {
      "midi": 57,
      "hit": false,
      "t": 148200,
      "d": 567.1875,
      "v": 37
    },
    {
      "midi": 63,
      "hit": false,
      "t": 148200,
      "d": 567.1875,
      "v": 46
    },
    {
      "midi": 51,
      "hit": false,
      "t": 148800,
      "d": 600,
      "v": 33
    },
    {
      "midi": 63,
      "hit": false,
      "t": 148800,
      "d": 796.875,
      "v": 49
    },
    {
      "midi": 58,
      "hit": false,
      "t": 149400,
      "d": 600,
      "v": 41
    },
    {
      "midi": 73,
      "hit": false,
      "t": 149700,
      "d": 403.125,
      "v": 61
    },
    {
      "midi": 61,
      "hit": false,
      "t": 150000,
      "d": 600,
      "v": 45
    },
    {
      "midi": 65,
      "hit": false,
      "t": 150000,
      "d": 914.0625,
      "v": 52
    },
    {
      "midi": 63,
      "hit": false,
      "t": 150600,
      "d": 600,
      "v": 51
    },
    {
      "midi": 67,
      "hit": false,
      "t": 150900,
      "d": 304.6875,
      "v": 65
    },
    {
      "midi": 44,
      "hit": false,
      "t": 151200,
      "d": 403.125,
      "v": 51
    },
    {
      "midi": 68,
      "hit": false,
      "t": 151200,
      "d": 567.1875,
      "v": 65
    },
    {
      "midi": 51,
      "hit": false,
      "t": 151598.4375,
      "d": 403.125,
      "v": 60
    },
    {
      "midi": 56,
      "hit": false,
      "t": 151996.875,
      "d": 407.8125,
      "v": 61
    },
    {
      "midi": 80,
      "hit": false,
      "t": 152100,
      "d": 304.6875,
      "v": 73
    },
    {
      "midi": 60,
      "hit": false,
      "t": 152400,
      "d": 1832.8125,
      "v": 66
    },
    {
      "midi": 72,
      "hit": false,
      "t": 152400,
      "d": 1832.8125,
      "v": 65
    },
    {
      "midi": 73,
      "hit": false,
      "t": 154200,
      "d": 567.1875,
      "v": 66
    },
    {
      "midi": 56,
      "hit": false,
      "t": 154200,
      "d": 609.375,
      "v": 61
    },
    {
      "midi": 45,
      "hit": false,
      "t": 154800,
      "d": 735.9375,
      "v": 61
    },
    {
      "midi": 75,
      "hit": false,
      "t": 154800,
      "d": 4800,
      "v": 66
    },
    {
      "midi": 51,
      "hit": false,
      "t": 156000,
      "d": 403.125,
      "v": 72
    },
    {
      "midi": 55,
      "hit": false,
      "t": 156398.4375,
      "d": 403.125,
      "v": 73
    },
    {
      "midi": 63,
      "hit": false,
      "t": 156796.875,
      "d": 407.8125,
      "v": 81
    },
    {
      "midi": 61,
      "hit": false,
      "t": 157200,
      "d": 1139.0625,
      "v": 73
    },
    {
      "midi": 44,
      "hit": false,
      "t": 158400,
      "d": 403.125,
      "v": 75
    },
    {
      "midi": 51,
      "hit": false,
      "t": 158798.4375,
      "d": 403.125,
      "v": 76
    },
    {
      "midi": 56,
      "hit": false,
      "t": 159196.875,
      "d": 407.8125,
      "v": 83
    },
    {
      "midi": 60,
      "hit": false,
      "t": 159600,
      "d": 1832.8125,
      "v": 104
    },
    {
      "midi": 56,
      "hit": false,
      "t": 161400,
      "d": 609.375,
      "v": 78
    },
    {
      "midi": 39,
      "hit": false,
      "t": 162000,
      "d": 735.9375,
      "v": 74
    },
    {
      "midi": 51,
      "hit": false,
      "t": 163200,
      "d": 403.125,
      "v": 68
    },
    {
      "midi": 55,
      "hit": false,
      "t": 163598.4375,
      "d": 403.125,
      "v": 70
    },
    {
      "midi": 60,
      "hit": false,
      "t": 163996.875,
      "d": 407.8125,
      "v": 65
    },
    {
      "midi": 58,
      "hit": false,
      "t": 164400,
      "d": 1139.0625,
      "v": 62
    },
    {
      "midi": 73,
      "hit": false,
      "t": 164400,
      "d": 1200,
      "v": 72
    },
    {
      "midi": 44,
      "hit": false,
      "t": 165600,
      "d": 403.125,
      "v": 63
    },
    {
      "midi": 75,
      "hit": false,
      "t": 165600,
      "d": 4800,
      "v": 73
    },
    {
      "midi": 51,
      "hit": false,
      "t": 165998.4375,
      "d": 403.125,
      "v": 65
    },
    {
      "midi": 56,
      "hit": false,
      "t": 166396.875,
      "d": 407.8125,
      "v": 64
    },
    {
      "midi": 60,
      "hit": false,
      "t": 166800,
      "d": 1832.8125,
      "v": 79
    },
    {
      "midi": 56,
      "hit": false,
      "t": 168600,
      "d": 609.375,
      "v": 62
    },
    {
      "midi": 45,
      "hit": false,
      "t": 169200,
      "d": 1139.0625,
      "v": 59
    },
    {
      "midi": 51,
      "hit": false,
      "t": 170400,
      "d": 403.125,
      "v": 66
    },
    {
      "midi": 55,
      "hit": false,
      "t": 170798.4375,
      "d": 403.125,
      "v": 69
    },
    {
      "midi": 63,
      "hit": false,
      "t": 171196.875,
      "d": 407.8125,
      "v": 69
    },
    {
      "midi": 61,
      "hit": false,
      "t": 171600,
      "d": 1139.0625,
      "v": 66
    },
    {
      "midi": 44,
      "hit": false,
      "t": 172800,
      "d": 403.125,
      "v": 55
    },
    {
      "midi": 51,
      "hit": false,
      "t": 173198.4375,
      "d": 403.125,
      "v": 61
    },
    {
      "midi": 56,
      "hit": false,
      "t": 173596.875,
      "d": 407.8125,
      "v": 64
    },
    {
      "midi": 60,
      "hit": false,
      "t": 174000,
      "d": 1832.8125,
      "v": 65
    },
    {
      "midi": 56,
      "hit": false,
      "t": 175800,
      "d": 609.375,
      "v": 56
    },
    {
      "midi": 39,
      "hit": false,
      "t": 176400,
      "d": 735.9375,
      "v": 52
    },
    {
      "midi": 51,
      "hit": false,
      "t": 177600,
      "d": 403.125,
      "v": 57
    },
    {
      "midi": 55,
      "hit": false,
      "t": 177998.4375,
      "d": 403.125,
      "v": 54
    },
    {
      "midi": 60,
      "hit": false,
      "t": 178396.875,
      "d": 407.8125,
      "v": 56
    },
    {
      "midi": 58,
      "hit": false,
      "t": 178800,
      "d": 1139.0625,
      "v": 52
    },
    {
      "midi": 61,
      "hit": false,
      "t": 178800,
      "d": 1200,
      "v": 56
    },
    {
      "midi": 44,
      "hit": false,
      "t": 180000,
      "d": 403.125,
      "v": 44
    },
    {
      "midi": 63,
      "hit": false,
      "t": 180000,
      "d": 4800,
      "v": 65
    },
    {
      "midi": 51,
      "hit": false,
      "t": 180398.4375,
      "d": 403.125,
      "v": 50
    },
    {
      "midi": 56,
      "hit": false,
      "t": 180796.875,
      "d": 407.8125,
      "v": 49
    },
    {
      "midi": 60,
      "hit": false,
      "t": 181200,
      "d": 1832.8125,
      "v": 53
    },
    {
      "midi": 56,
      "hit": false,
      "t": 183000,
      "d": 609.375,
      "v": 46
    },
    {
      "midi": 39,
      "hit": false,
      "t": 183600,
      "d": 735.9375,
      "v": 41
    },
    {
      "midi": 51,
      "hit": false,
      "t": 184800,
      "d": 403.125,
      "v": 47
    },
    {
      "midi": 55,
      "hit": false,
      "t": 185198.4375,
      "d": 403.125,
      "v": 43
    },
    {
      "midi": 60,
      "hit": false,
      "t": 185596.875,
      "d": 407.8125,
      "v": 46
    },
    {
      "midi": 58,
      "hit": false,
      "t": 186000,
      "d": 1139.0625,
      "v": 42
    },
    {
      "midi": 44,
      "hit": false,
      "t": 187200,
      "d": 403.125,
      "v": 43
    },
    {
      "midi": 51,
      "hit": false,
      "t": 187598.4375,
      "d": 403.125,
      "v": 45
    },
    {
      "midi": 56,
      "hit": false,
      "t": 187996.875,
      "d": 407.8125,
      "v": 49
    },
    {
      "midi": 60,
      "hit": false,
      "t": 188400,
      "d": 1832.8125,
      "v": 37
    },
    {
      "midi": 56,
      "hit": false,
      "t": 190200,
      "d": 567.1875,
      "v": 38
    },
    {
      "midi": 39,
      "hit": false,
      "t": 190800,
      "d": 1139.0625,
      "v": 44
    },
    {
      "midi": 51,
      "hit": false,
      "t": 192000,
      "d": 403.125,
      "v": 36
    },
    {
      "midi": 55,
      "hit": false,
      "t": 192398.4375,
      "d": 403.125,
      "v": 38
    },
    {
      "midi": 60,
      "hit": false,
      "t": 192796.875,
      "d": 407.8125,
      "v": 42
    },
    {
      "midi": 58,
      "hit": false,
      "t": 193200,
      "d": 1139.0625,
      "v": 36
    },
    {
      "midi": 32,
      "hit": false,
      "t": 194400,
      "d": 1200,
      "v": 42
    },
    {
      "midi": 51,
      "hit": false,
      "t": 194798.4375,
      "d": 398.4375,
      "v": 32
    },
    {
      "midi": 60,
      "hit": false,
      "t": 195196.875,
      "d": 403.125,
      "v": 38
    },
    {
      "midi": 56,
      "hit": false,
      "t": 195600,
      "d": 398.4375,
      "v": 36
    },
    {
      "midi": 60,
      "hit": false,
      "t": 195998.4375,
      "d": 398.4375,
      "v": 37
    },
    {
      "midi": 63,
      "hit": false,
      "t": 196396.875,
      "d": 403.125,
      "v": 36
    },
    {
      "midi": 72,
      "hit": false,
      "t": 196800,
      "d": 403.125,
      "v": 59
    },
    {
      "midi": 68,
      "hit": false,
      "t": 197198.4375,
      "d": 403.125,
      "v": 54
    },
    {
      "midi": 72,
      "hit": false,
      "t": 197596.875,
      "d": 407.8125,
      "v": 51
    },
    {
      "midi": 75,
      "hit": false,
      "t": 198000,
      "d": 403.125,
      "v": 43
    },
    {
      "midi": 80,
      "hit": false,
      "t": 198398.4375,
      "d": 403.125,
      "v": 34
    },
    {
      "midi": 84,
      "hit": false,
      "t": 198796.875,
      "d": 407.8125,
      "v": 27
    },
    {
      "midi": 92,
      "hit": false,
      "t": 199200,
      "d": 5128.125,
      "v": 23
    },
    {
      "midi": 68,
      "hit": false,
      "t": 204600,
      "d": 1223.4375,
      "v": 51
    },
    {
      "midi": 49,
      "hit": false,
      "t": 205800,
      "d": 609.375,
      "v": 24
    },
    {
      "midi": 80,
      "hit": false,
      "t": 205800,
      "d": 2446.875,
      "v": 71
    },
    {
      "midi": 56,
      "hit": false,
      "t": 206400,
      "d": 609.375,
      "v": 31
    },
    {
      "midi": 64,
      "hit": false,
      "t": 207000,
      "d": 609.375,
      "v": 40
    },
    {
      "midi": 61,
      "hit": false,
      "t": 207600,
      "d": 567.1875,
      "v": 40
    },
    {
      "midi": 78,
      "hit": false,
      "t": 208200,
      "d": 79.6875,
      "v": 63
    },
    {
      "midi": 49,
      "hit": false,
      "t": 208200,
      "d": 609.375,
      "v": 44
    },
    {
      "midi": 80,
      "hit": false,
      "t": 208303.125,
      "d": 79.6875,
      "v": 63
    },
    {
      "midi": 78,
      "hit": false,
      "t": 208406.25,
      "d": 79.6875,
      "v": 65
    },
    {
      "midi": 80,
      "hit": false,
      "t": 208504.6875,
      "d": 75,
      "v": 66
    },
    {
      "midi": 78,
      "hit": false,
      "t": 208603.125,
      "d": 75,
      "v": 66
    },
    {
      "midi": 80,
      "hit": false,
      "t": 208701.5625,
      "d": 75,
      "v": 67
    },
    {
      "midi": 78,
      "hit": false,
      "t": 208795.3125,
      "d": 75,
      "v": 68
    },
    {
      "midi": 57,
      "hit": false,
      "t": 208800,
      "d": 609.375,
      "v": 47
    },
    {
      "midi": 80,
      "hit": false,
      "t": 208889.0625,
      "d": 75,
      "v": 68
    },
    {
      "midi": 78,
      "hit": false,
      "t": 208982.8125,
      "d": 75,
      "v": 69
    },
    {
      "midi": 80,
      "hit": false,
      "t": 209071.875,
      "d": 70.3125,
      "v": 70
    },
    {
      "midi": 78,
      "hit": false,
      "t": 209160.9375,
      "d": 70.3125,
      "v": 70
    },
    {
      "midi": 80,
      "hit": false,
      "t": 209250,
      "d": 70.3125,
      "v": 71
    },
    {
      "midi": 78,
      "hit": false,
      "t": 209339.0625,
      "d": 70.3125,
      "v": 71
    },
    {
      "midi": 63,
      "hit": false,
      "t": 209400,
      "d": 609.375,
      "v": 53
    },
    {
      "midi": 80,
      "hit": false,
      "t": 209432.8125,
      "d": 75,
      "v": 72
    },
    {
      "midi": 78,
      "hit": false,
      "t": 209526.5625,
      "d": 75,
      "v": 72
    },
    {
      "midi": 80,
      "hit": false,
      "t": 209620.3125,
      "d": 75,
      "v": 72
    },
    {
      "midi": 78,
      "hit": false,
      "t": 209718.75,
      "d": 75,
      "v": 73
    },
    {
      "midi": 80,
      "hit": false,
      "t": 209817.1875,
      "d": 75,
      "v": 74
    },
    {
      "midi": 78,
      "hit": false,
      "t": 209915.625,
      "d": 23.4375,
      "v": 74
    },
    {
      "midi": 76,
      "hit": false,
      "t": 209943.75,
      "d": 187.5,
      "v": 77
    },
    {
      "midi": 61,
      "hit": false,
      "t": 210000,
      "d": 567.1875,
      "v": 49
    },
    {
      "midi": 78,
      "hit": false,
      "t": 210131.25,
      "d": 187.5,
      "v": 77
    },
    {
      "midi": 80,
      "hit": false,
      "t": 210318.75,
      "d": 140.625,
      "v": 77
    },
    {
      "midi": 81,
      "hit": false,
      "t": 210459.375,
      "d": 140.625,
      "v": 77
    },
    {
      "midi": 49,
      "hit": false,
      "t": 210600,
      "d": 609.375,
      "v": 43
    },
    {
      "midi": 80,
      "hit": false,
      "t": 210600,
      "d": 2446.875,
      "v": 77
    },
    {
      "midi": 56,
      "hit": false,
      "t": 211200,
      "d": 609.375,
      "v": 44
    },
    {
      "midi": 64,
      "hit": false,
      "t": 211800,
      "d": 609.375,
      "v": 54
    },
    {
      "midi": 61,
      "hit": false,
      "t": 212400,
      "d": 567.1875,
      "v": 53
    },
    {
      "midi": 49,
      "hit": false,
      "t": 213000,
      "d": 609.375,
      "v": 44
    },
    {
      "midi": 73,
      "hit": false,
      "t": 213000,
      "d": 1139.0625,
      "v": 71
    },
    {
      "midi": 56,
      "hit": false,
      "t": 213600,
      "d": 609.375,
      "v": 46
    },
    {
      "midi": 64,
      "hit": false,
      "t": 214200,
      "d": 609.375,
      "v": 51
    },
    {
      "midi": 85,
      "hit": false,
      "t": 214200,
      "d": 1200,
      "v": 89
    },
    {
      "midi": 61,
      "hit": false,
      "t": 214800,
      "d": 567.1875,
      "v": 48
    },
    {
      "midi": 97,
      "hit": false,
      "t": 215400,
      "d": 403.125,
      "v": 97
    },
    {
      "midi": 49,
      "hit": false,
      "t": 215400,
      "d": 609.375,
      "v": 74
    },
    {
      "midi": 98,
      "hit": false,
      "t": 215798.4375,
      "d": 403.125,
      "v": 98
    },
    {
      "midi": 56,
      "hit": false,
      "t": 216000,
      "d": 609.375,
      "v": 84
    },
    {
      "midi": 95,
      "hit": false,
      "t": 216196.875,
      "d": 407.8125,
      "v": 94
    },
    {
      "midi": 93,
      "hit": false,
      "t": 216600,
      "d": 403.125,
      "v": 90
    },
    {
      "midi": 65,
      "hit": false,
      "t": 216600,
      "d": 609.375,
      "v": 85
    },
    {
      "midi": 92,
      "hit": false,
      "t": 216998.4375,
      "d": 403.125,
      "v": 91
    },
    {
      "midi": 61,
      "hit": false,
      "t": 217200,
      "d": 567.1875,
      "v": 63
    },
    {
      "midi": 90,
      "hit": false,
      "t": 217396.875,
      "d": 407.8125,
      "v": 90
    },
    {
      "midi": 89,
      "hit": false,
      "t": 217800,
      "d": 304.6875,
      "v": 110
    },
    {
      "midi": 49,
      "hit": false,
      "t": 217800,
      "d": 609.375,
      "v": 60
    },
    {
      "midi": 86,
      "hit": false,
      "t": 218100,
      "d": 304.6875,
      "v": 90
    },
    {
      "midi": 85,
      "hit": false,
      "t": 218400,
      "d": 196.875,
      "v": 87
    },
    {
      "midi": 56,
      "hit": false,
      "t": 218400,
      "d": 609.375,
      "v": 60
    },
    {
      "midi": 83,
      "hit": false,
      "t": 218596.875,
      "d": 201.5625,
      "v": 84
    },
    {
      "midi": 81,
      "hit": false,
      "t": 218798.4375,
      "d": 201.5625,
      "v": 81
    },
    {
      "midi": 80,
      "hit": false,
      "t": 219000,
      "d": 196.875,
      "v": 78
    },
    {
      "midi": 65,
      "hit": false,
      "t": 219000,
      "d": 609.375,
      "v": 60
    },
    {
      "midi": 78,
      "hit": false,
      "t": 219196.875,
      "d": 201.5625,
      "v": 77
    },
    {
      "midi": 77,
      "hit": false,
      "t": 219398.4375,
      "d": 201.5625,
      "v": 71
    },
    {
      "midi": 74,
      "hit": false,
      "t": 219600,
      "d": 196.875,
      "v": 69
    },
    {
      "midi": 59,
      "hit": false,
      "t": 219600,
      "d": 567.1875,
      "v": 44
    },
    {
      "midi": 73,
      "hit": false,
      "t": 219796.875,
      "d": 201.5625,
      "v": 69
    },
    {
      "midi": 71,
      "hit": false,
      "t": 219998.4375,
      "d": 201.5625,
      "v": 65
    },
    {
      "midi": 42,
      "hit": false,
      "t": 220200,
      "d": 609.375,
      "v": 35
    },
    {
      "midi": 69,
      "hit": false,
      "t": 220200,
      "d": 2278.125,
      "v": 63
    },
    {
      "midi": 49,
      "hit": false,
      "t": 220800,
      "d": 609.375,
      "v": 37
    },
    {
      "midi": 57,
      "hit": false,
      "t": 221400,
      "d": 609.375,
      "v": 38
    },
    {
      "midi": 54,
      "hit": false,
      "t": 222000,
      "d": 567.1875,
      "v": 36
    },
    {
      "midi": 42,
      "hit": false,
      "t": 222600,
      "d": 609.375,
      "v": 46
    },
    {
      "midi": 81,
      "hit": false,
      "t": 222600,
      "d": 2446.875,
      "v": 82
    },
    {
      "midi": 49,
      "hit": false,
      "t": 223200,
      "d": 609.375,
      "v": 50
    },
    {
      "midi": 57,
      "hit": false,
      "t": 223800,
      "d": 609.375,
      "v": 55
    },
    {
      "midi": 54,
      "hit": false,
      "t": 224400,
      "d": 567.1875,
      "v": 57
    },
    {
      "midi": 48,
      "hit": false,
      "t": 225000,
      "d": 609.375,
      "v": 61
    },
    {
      "midi": 80,
      "hit": false,
      "t": 225000,
      "d": 2446.875,
      "v": 79
    },
    {
      "midi": 56,
      "hit": false,
      "t": 225600,
      "d": 609.375,
      "v": 66
    },
    {
      "midi": 66,
      "hit": false,
      "t": 226200,
      "d": 609.375,
      "v": 66
    },
    {
      "midi": 63,
      "hit": false,
      "t": 226800,
      "d": 567.1875,
      "v": 52
    },
    {
      "midi": 48,
      "hit": false,
      "t": 227400,
      "d": 609.375,
      "v": 46
    },
    {
      "midi": 75,
      "hit": false,
      "t": 227400,
      "d": 2446.875,
      "v": 58
    },
    {
      "midi": 56,
      "hit": false,
      "t": 228000,
      "d": 609.375,
      "v": 50
    },
    {
      "midi": 66,
      "hit": false,
      "t": 228600,
      "d": 609.375,
      "v": 54
    },
    {
      "midi": 63,
      "hit": false,
      "t": 229200,
      "d": 567.1875,
      "v": 52
    },
    {
      "midi": 76,
      "hit": false,
      "t": 229800,
      "d": 89.0625,
      "v": 64
    },
    {
      "midi": 49,
      "hit": false,
      "t": 229800,
      "d": 609.375,
      "v": 60
    },
    {
      "midi": 78,
      "hit": false,
      "t": 229912.5,
      "d": 89.0625,
      "v": 65
    },
    {
      "midi": 76,
      "hit": false,
      "t": 230025,
      "d": 89.0625,
      "v": 66
    },
    {
      "midi": 78,
      "hit": false,
      "t": 230137.5,
      "d": 89.0625,
      "v": 67
    },
    {
      "midi": 76,
      "hit": false,
      "t": 230245.3125,
      "d": 84.375,
      "v": 67
    },
    {
      "midi": 78,
      "hit": false,
      "t": 230353.125,
      "d": 84.375,
      "v": 68
    },
    {
      "midi": 56,
      "hit": false,
      "t": 230400,
      "d": 609.375,
      "v": 59
    },
    {
      "midi": 76,
      "hit": false,
      "t": 230460.9375,
      "d": 84.375,
      "v": 69
    },
    {
      "midi": 78,
      "hit": false,
      "t": 230564.0625,
      "d": 79.6875,
      "v": 70
    },
    {
      "midi": 76,
      "hit": false,
      "t": 230667.1875,
      "d": 79.6875,
      "v": 71
    },
    {
      "midi": 78,
      "hit": false,
      "t": 230770.3125,
      "d": 79.6875,
      "v": 72
    },
    {
      "midi": 76,
      "hit": false,
      "t": 230868.75,
      "d": 75,
      "v": 72
    },
    {
      "midi": 78,
      "hit": false,
      "t": 230967.1875,
      "d": 75,
      "v": 73
    },
    {
      "midi": 64,
      "hit": false,
      "t": 231000,
      "d": 609.375,
      "v": 70
    },
    {
      "midi": 76,
      "hit": false,
      "t": 231065.625,
      "d": 75,
      "v": 74
    },
    {
      "midi": 78,
      "hit": false,
      "t": 231164.0625,
      "d": 75,
      "v": 75
    },
    {
      "midi": 76,
      "hit": false,
      "t": 231267.1875,
      "d": 79.6875,
      "v": 76
    },
    {
      "midi": 78,
      "hit": false,
      "t": 231370.3125,
      "d": 79.6875,
      "v": 76
    },
    {
      "midi": 76,
      "hit": false,
      "t": 231473.4375,
      "d": 79.6875,
      "v": 77
    },
    {
      "midi": 78,
      "hit": false,
      "t": 231581.25,
      "d": 84.375,
      "v": 78
    },
    {
      "midi": 61,
      "hit": false,
      "t": 231600,
      "d": 567.1875,
      "v": 64
    },
    {
      "midi": 76,
      "hit": false,
      "t": 231689.0625,
      "d": 84.375,
      "v": 80
    },
    {
      "midi": 78,
      "hit": false,
      "t": 231796.875,
      "d": 70.3125,
      "v": 80
    },
    {
      "midi": 75,
      "hit": false,
      "t": 231871.875,
      "d": 164.0625,
      "v": 83
    },
    {
      "midi": 76,
      "hit": false,
      "t": 232035.9375,
      "d": 164.0625,
      "v": 83
    },
    {
      "midi": 45,
      "hit": false,
      "t": 232200,
      "d": 609.375,
      "v": 64
    },
    {
      "midi": 78,
      "hit": false,
      "t": 232200,
      "d": 806.25,
      "v": 80
    },
    {
      "midi": 51,
      "hit": false,
      "t": 232800,
      "d": 609.375,
      "v": 69
    },
    {
      "midi": 61,
      "hit": false,
      "t": 233400,
      "d": 609.375,
      "v": 75
    },
    {
      "midi": 73,
      "hit": false,
      "t": 233400,
      "d": 750,
      "v": 62
    },
    {
      "midi": 54,
      "hit": false,
      "t": 234000,
      "d": 567.1875,
      "v": 66
    },
    {
      "midi": 75,
      "hit": false,
      "t": 234600,
      "d": 403.125,
      "v": 97
    },
    {
      "midi": 44,
      "hit": false,
      "t": 234600,
      "d": 609.375,
      "v": 65
    },
    {
      "midi": 76,
      "hit": false,
      "t": 234998.4375,
      "d": 403.125,
      "v": 98
    },
    {
      "midi": 51,
      "hit": false,
      "t": 235200,
      "d": 609.375,
      "v": 72
    },
    {
      "midi": 75,
      "hit": false,
      "t": 235396.875,
      "d": 407.8125,
      "v": 95
    },
    {
      "midi": 74,
      "hit": false,
      "t": 235800,
      "d": 403.125,
      "v": 98
    },
    {
      "midi": 61,
      "hit": false,
      "t": 235800,
      "d": 609.375,
      "v": 82
    },
    {
      "midi": 75,
      "hit": false,
      "t": 236198.4375,
      "d": 403.125,
      "v": 102
    },
    {
      "midi": 54,
      "hit": false,
      "t": 236400,
      "d": 567.1875,
      "v": 70
    },
    {
      "midi": 76,
      "hit": false,
      "t": 236596.875,
      "d": 407.8125,
      "v": 100
    },
    {
      "midi": 78,
      "hit": false,
      "t": 237000,
      "d": 243.75,
      "v": 103
    },
    {
      "midi": 44,
      "hit": false,
      "t": 237000,
      "d": 609.375,
      "v": 72
    },
    {
      "midi": 80,
      "hit": false,
      "t": 237239.0625,
      "d": 239.0625,
      "v": 105
    },
    {
      "midi": 81,
      "hit": false,
      "t": 237482.8125,
      "d": 239.0625,
      "v": 104
    },
    {
      "midi": 51,
      "hit": false,
      "t": 237600,
      "d": 609.375,
      "v": 81
    },
    {
      "midi": 82,
      "hit": false,
      "t": 237721.875,
      "d": 239.0625,
      "v": 104
    },
    {
      "midi": 83,
      "hit": false,
      "t": 237960.9375,
      "d": 239.0625,
      "v": 107
    },
    {
      "midi": 84,
      "hit": false,
      "t": 238200,
      "d": 196.875,
      "v": 108
    },
    {
      "midi": 60,
      "hit": false,
      "t": 238200,
      "d": 609.375,
      "v": 87
    },
    {
      "midi": 85,
      "hit": false,
      "t": 238396.875,
      "d": 201.5625,
      "v": 107
    },
    {
      "midi": 86,
      "hit": false,
      "t": 238598.4375,
      "d": 201.5625,
      "v": 108
    },
    {
      "midi": 87,
      "hit": false,
      "t": 238800,
      "d": 196.875,
      "v": 106
    },
    {
      "midi": 56,
      "hit": false,
      "t": 238800,
      "d": 567.1875,
      "v": 77
    },
    {
      "midi": 88,
      "hit": false,
      "t": 238996.875,
      "d": 201.5625,
      "v": 109
    },
    {
      "midi": 90,
      "hit": false,
      "t": 239198.4375,
      "d": 201.5625,
      "v": 110
    },
    {
      "midi": 43,
      "hit": false,
      "t": 239400,
      "d": 609.375,
      "v": 73
    },
    {
      "midi": 88,
      "hit": false,
      "t": 239400,
      "d": 2446.875,
      "v": 104
    },
    {
      "midi": 52,
      "hit": false,
      "t": 240000,
      "d": 609.375,
      "v": 77
    },
    {
      "midi": 61,
      "hit": false,
      "t": 240600,
      "d": 609.375,
      "v": 89
    },
    {
      "midi": 58,
      "hit": false,
      "t": 241200,
      "d": 567.1875,
      "v": 86
    },
    {
      "midi": 43,
      "hit": false,
      "t": 241800,
      "d": 609.375,
      "v": 74
    },
    {
      "midi": 87,
      "hit": false,
      "t": 241800,
      "d": 1223.4375,
      "v": 110
    },
    {
      "midi": 51,
      "hit": false,
      "t": 242400,
      "d": 609.375,
      "v": 76
    },
    {
      "midi": 61,
      "hit": false,
      "t": 243000,
      "d": 609.375,
      "v": 91
    },
    {
      "midi": 85,
      "hit": false,
      "t": 243000,
      "d": 1223.4375,
      "v": 94
    },
    {
      "midi": 58,
      "hit": false,
      "t": 243600,
      "d": 567.1875,
      "v": 92
    },
    {
      "midi": 44,
      "hit": false,
      "t": 244200,
      "d": 609.375,
      "v": 75
    },
    {
      "midi": 84,
      "hit": false,
      "t": 244200,
      "d": 1139.0625,
      "v": 90
    },
    {
      "midi": 51,
      "hit": false,
      "t": 244800,
      "d": 609.375,
      "v": 81
    },
    {
      "midi": 60,
      "hit": false,
      "t": 245400,
      "d": 609.375,
      "v": 84
    },
    {
      "midi": 81,
      "hit": false,
      "t": 245400,
      "d": 1200,
      "v": 81
    },
    {
      "midi": 54,
      "hit": false,
      "t": 246000,
      "d": 567.1875,
      "v": 69
    },
    {
      "midi": 48,
      "hit": false,
      "t": 246600,
      "d": 609.375,
      "v": 65
    },
    {
      "midi": 80,
      "hit": false,
      "t": 246600,
      "d": 1200,
      "v": 80
    },
    {
      "midi": 54,
      "hit": false,
      "t": 247200,
      "d": 609.375,
      "v": 67
    },
    {
      "midi": 63,
      "hit": false,
      "t": 247800,
      "d": 609.375,
      "v": 70
    },
    {
      "midi": 75,
      "hit": false,
      "t": 247800,
      "d": 1200,
      "v": 66
    },
    {
      "midi": 56,
      "hit": false,
      "t": 248400,
      "d": 567.1875,
      "v": 61
    },
    {
      "midi": 49,
      "hit": false,
      "t": 249000,
      "d": 609.375,
      "v": 57
    },
    {
      "midi": 76,
      "hit": false,
      "t": 249000,
      "d": 1223.4375,
      "v": 65
    },
    {
      "midi": 52,
      "hit": false,
      "t": 249600,
      "d": 609.375,
      "v": 61
    },
    {
      "midi": 61,
      "hit": false,
      "t": 250200,
      "d": 609.375,
      "v": 63
    },
    {
      "midi": 78,
      "hit": false,
      "t": 250200,
      "d": 609.375,
      "v": 76
    },
    {
      "midi": 56,
      "hit": false,
      "t": 250800,
      "d": 567.1875,
      "v": 53
    },
    {
      "midi": 80,
      "hit": false,
      "t": 250800,
      "d": 609.375,
      "v": 84
    },
    {
      "midi": 45,
      "hit": false,
      "t": 251400,
      "d": 609.375,
      "v": 48
    },
    {
      "midi": 78,
      "hit": false,
      "t": 251400,
      "d": 1223.4375,
      "v": 78
    },
    {
      "midi": 51,
      "hit": false,
      "t": 252000,
      "d": 609.375,
      "v": 54
    },
    {
      "midi": 61,
      "hit": false,
      "t": 252600,
      "d": 609.375,
      "v": 55
    },
    {
      "midi": 54,
      "hit": false,
      "t": 253200,
      "d": 567.1875,
      "v": 55
    },
    {
      "midi": 73,
      "hit": false,
      "t": 253565.625,
      "d": 117.1875,
      "v": 63
    },
    {
      "midi": 75,
      "hit": false,
      "t": 253682.8125,
      "d": 117.1875,
      "v": 63
    },
    {
      "midi": 76,
      "hit": false,
      "t": 253800,
      "d": 84.375,
      "v": 64
    },
    {
      "midi": 44,
      "hit": false,
      "t": 253800,
      "d": 609.375,
      "v": 60
    },
    {
      "midi": 75,
      "hit": false,
      "t": 253907.8125,
      "d": 84.375,
      "v": 65
    },
    {
      "midi": 76,
      "hit": false,
      "t": 254015.625,
      "d": 84.375,
      "v": 66
    },
    {
      "midi": 75,
      "hit": false,
      "t": 254123.4375,
      "d": 84.375,
      "v": 68
    },
    {
      "midi": 76,
      "hit": false,
      "t": 254231.25,
      "d": 84.375,
      "v": 69
    },
    {
      "midi": 75,
      "hit": false,
      "t": 254339.0625,
      "d": 84.375,
      "v": 71
    },
    {
      "midi": 51,
      "hit": false,
      "t": 254400,
      "d": 609.375,
      "v": 64
    },
    {
      "midi": 76,
      "hit": false,
      "t": 254446.875,
      "d": 84.375,
      "v": 72
    },
    {
      "midi": 75,
      "hit": false,
      "t": 254554.6875,
      "d": 84.375,
      "v": 73
    },
    {
      "midi": 76,
      "hit": false,
      "t": 254657.8125,
      "d": 79.6875,
      "v": 74
    },
    {
      "midi": 75,
      "hit": false,
      "t": 254760.9375,
      "d": 79.6875,
      "v": 75
    },
    {
      "midi": 76,
      "hit": false,
      "t": 254864.0625,
      "d": 79.6875,
      "v": 77
    },
    {
      "midi": 75,
      "hit": false,
      "t": 254967.1875,
      "d": 79.6875,
      "v": 78
    },
    {
      "midi": 61,
      "hit": false,
      "t": 255000,
      "d": 609.375,
      "v": 68
    },
    {
      "midi": 76,
      "hit": false,
      "t": 255070.3125,
      "d": 79.6875,
      "v": 80
    },
    {
      "midi": 75,
      "hit": false,
      "t": 255173.4375,
      "d": 79.6875,
      "v": 80
    },
    {
      "midi": 76,
      "hit": false,
      "t": 255276.5625,
      "d": 79.6875,
      "v": 80
    },
    {
      "midi": 75,
      "hit": false,
      "t": 255375,
      "d": 75,
      "v": 80
    },
    {
      "midi": 76,
      "hit": false,
      "t": 255473.4375,
      "d": 75,
      "v": 80
    },
    {
      "midi": 75,
      "hit": false,
      "t": 255571.875,
      "d": 75,
      "v": 80
    },
    {
      "midi": 54,
      "hit": false,
      "t": 255600,
      "d": 567.1875,
      "v": 57
    },
    {
      "midi": 76,
      "hit": false,
      "t": 255670.3125,
      "d": 75,
      "v": 80
    },
    {
      "midi": 75,
      "hit": false,
      "t": 255768.75,
      "d": 75,
      "v": 80
    },
    {
      "midi": 76,
      "hit": false,
      "t": 255867.1875,
      "d": 75,
      "v": 80
    },
    {
      "midi": 75,
      "hit": false,
      "t": 255965.625,
      "d": 75,
      "v": 80
    },
    {
      "midi": 76,
      "hit": false,
      "t": 256064.0625,
      "d": 75,
      "v": 80
    },
    {
      "midi": 75,
      "hit": false,
      "t": 256157.8125,
      "d": 75,
      "v": 80
    },
    {
      "midi": 44,
      "hit": false,
      "t": 256200,
      "d": 609.375,
      "v": 55
    },
    {
      "midi": 76,
      "hit": false,
      "t": 256251.5625,
      "d": 75,
      "v": 80
    },
    {
      "midi": 75,
      "hit": false,
      "t": 256345.3125,
      "d": 75,
      "v": 79
    },
    {
      "midi": 76,
      "hit": false,
      "t": 256439.0625,
      "d": 75,
      "v": 78
    },
    {
      "midi": 75,
      "hit": false,
      "t": 256532.8125,
      "d": 75,
      "v": 78
    },
    {
      "midi": 76,
      "hit": false,
      "t": 256626.5625,
      "d": 75,
      "v": 77
    },
    {
      "midi": 75,
      "hit": false,
      "t": 256720.3125,
      "d": 75,
      "v": 76
    },
    {
      "midi": 51,
      "hit": false,
      "t": 256800,
      "d": 609.375,
      "v": 59
    },
    {
      "midi": 76,
      "hit": false,
      "t": 256814.0625,
      "d": 75,
      "v": 75
    },
    {
      "midi": 75,
      "hit": false,
      "t": 256912.5,
      "d": 75,
      "v": 74
    },
    {
      "midi": 76,
      "hit": false,
      "t": 257010.9375,
      "d": 75,
      "v": 73
    },
    {
      "midi": 75,
      "hit": false,
      "t": 257109.375,
      "d": 75,
      "v": 72
    },
    {
      "midi": 76,
      "hit": false,
      "t": 257207.8125,
      "d": 75,
      "v": 72
    },
    {
      "midi": 75,
      "hit": false,
      "t": 257306.25,
      "d": 75,
      "v": 71
    },
    {
      "midi": 60,
      "hit": false,
      "t": 257400,
      "d": 609.375,
      "v": 62
    },
    {
      "midi": 76,
      "hit": false,
      "t": 257404.6875,
      "d": 75,
      "v": 70
    },
    {
      "midi": 75,
      "hit": false,
      "t": 257503.125,
      "d": 75,
      "v": 69
    },
    {
      "midi": 76,
      "hit": false,
      "t": 257601.5625,
      "d": 75,
      "v": 68
    },
    {
      "midi": 75,
      "hit": false,
      "t": 257704.6875,
      "d": 79.6875,
      "v": 67
    },
    {
      "midi": 76,
      "hit": false,
      "t": 257807.8125,
      "d": 79.6875,
      "v": 66
    },
    {
      "midi": 75,
      "hit": false,
      "t": 257910.9375,
      "d": 79.6875,
      "v": 65
    },
    {
      "midi": 54,
      "hit": false,
      "t": 258000,
      "d": 567.1875,
      "v": 53
    },
    {
      "midi": 76,
      "hit": false,
      "t": 258014.0625,
      "d": 79.6875,
      "v": 64
    },
    {
      "midi": 75,
      "hit": false,
      "t": 258117.1875,
      "d": 79.6875,
      "v": 64
    },
    {
      "midi": 76,
      "hit": false,
      "t": 258220.3125,
      "d": 79.6875,
      "v": 64
    },
    {
      "midi": 75,
      "hit": false,
      "t": 258323.4375,
      "d": 79.6875,
      "v": 64
    },
    {
      "midi": 73,
      "hit": false,
      "t": 258342.1875,
      "d": 257.8125,
      "v": 76
    },
    {
      "midi": 49,
      "hit": false,
      "t": 258600,
      "d": 609.375,
      "v": 50
    },
    {
      "midi": 73,
      "hit": false,
      "t": 258600,
      "d": 2278.125,
      "v": 76
    },
    {
      "midi": 56,
      "hit": false,
      "t": 259200,
      "d": 609.375,
      "v": 54
    },
    {
      "midi": 64,
      "hit": false,
      "t": 259800,
      "d": 609.375,
      "v": 58
    },
    {
      "midi": 61,
      "hit": false,
      "t": 260400,
      "d": 567.1875,
      "v": 48
    },
    {
      "midi": 75,
      "hit": false,
      "t": 261000,
      "d": 131.25,
      "v": 65
    },
    {
      "midi": 49,
      "hit": false,
      "t": 261000,
      "d": 609.375,
      "v": 46
    },
    {
      "midi": 76,
      "hit": false,
      "t": 261131.25,
      "d": 131.25,
      "v": 68
    },
    {
      "midi": 78,
      "hit": false,
      "t": 261262.5,
      "d": 135.9375,
      "v": 69
    },
    {
      "midi": 80,
      "hit": false,
      "t": 261398.4375,
      "d": 131.25,
      "v": 72
    },
    {
      "midi": 81,
      "hit": false,
      "t": 261529.6875,
      "d": 135.9375,
      "v": 75
    },
    {
      "midi": 54,
      "hit": false,
      "t": 261600,
      "d": 609.375,
      "v": 47
    },
    {
      "midi": 83,
      "hit": false,
      "t": 261665.625,
      "d": 131.25,
      "v": 76
    },
    {
      "midi": 85,
      "hit": false,
      "t": 261796.875,
      "d": 135.9375,
      "v": 79
    },
    {
      "midi": 87,
      "hit": false,
      "t": 261932.8125,
      "d": 131.25,
      "v": 79
    },
    {
      "midi": 85,
      "hit": false,
      "t": 262064.0625,
      "d": 135.9375,
      "v": 76
    },
    {
      "midi": 83,
      "hit": false,
      "t": 262200,
      "d": 131.25,
      "v": 77
    },
    {
      "midi": 63,
      "hit": false,
      "t": 262200,
      "d": 609.375,
      "v": 54
    },
    {
      "midi": 81,
      "hit": false,
      "t": 262331.25,
      "d": 131.25,
      "v": 78
    },
    {
      "midi": 80,
      "hit": false,
      "t": 262462.5,
      "d": 135.9375,
      "v": 72
    },
    {
      "midi": 78,
      "hit": false,
      "t": 262598.4375,
      "d": 131.25,
      "v": 72
    },
    {
      "midi": 76,
      "hit": false,
      "t": 262729.6875,
      "d": 135.9375,
      "v": 69
    },
    {
      "midi": 61,
      "hit": false,
      "t": 262800,
      "d": 567.1875,
      "v": 52
    },
    {
      "midi": 75,
      "hit": false,
      "t": 262865.625,
      "d": 131.25,
      "v": 67
    },
    {
      "midi": 73,
      "hit": false,
      "t": 262996.875,
      "d": 135.9375,
      "v": 66
    },
    {
      "midi": 71,
      "hit": false,
      "t": 263132.8125,
      "d": 131.25,
      "v": 65
    },
    {
      "midi": 69,
      "hit": false,
      "t": 263264.0625,
      "d": 126.5625,
      "v": 61
    },
    {
      "midi": 49,
      "hit": false,
      "t": 263400,
      "d": 609.375,
      "v": 46
    },
    {
      "midi": 68,
      "hit": false,
      "t": 263400,
      "d": 2400,
      "v": 62
    },
    {
      "midi": 56,
      "hit": false,
      "t": 264000,
      "d": 609.375,
      "v": 45
    },
    {
      "midi": 64,
      "hit": false,
      "t": 264600,
      "d": 609.375,
      "v": 51
    },
    {
      "midi": 61,
      "hit": false,
      "t": 265200,
      "d": 567.1875,
      "v": 48
    },
    {
      "midi": 69,
      "hit": false,
      "t": 265800,
      "d": 65.625,
      "v": 66
    },
    {
      "midi": 49,
      "hit": false,
      "t": 265800,
      "d": 609.375,
      "v": 46
    },
    {
      "midi": 71,
      "hit": false,
      "t": 265865.625,
      "d": 70.3125,
      "v": 66
    },
    {
      "midi": 73,
      "hit": false,
      "t": 265935.9375,
      "d": 65.625,
      "v": 69
    },
    {
      "midi": 75,
      "hit": false,
      "t": 266001.5625,
      "d": 70.3125,
      "v": 68
    },
    {
      "midi": 76,
      "hit": false,
      "t": 266071.875,
      "d": 70.3125,
      "v": 67
    },
    {
      "midi": 78,
      "hit": false,
      "t": 266142.1875,
      "d": 65.625,
      "v": 69
    },
    {
      "midi": 80,
      "hit": false,
      "t": 266207.8125,
      "d": 70.3125,
      "v": 70
    },
    {
      "midi": 81,
      "hit": false,
      "t": 266278.125,
      "d": 70.3125,
      "v": 73
    },
    {
      "midi": 83,
      "hit": false,
      "t": 266348.4375,
      "d": 65.625,
      "v": 62
    },
    {
      "midi": 54,
      "hit": false,
      "t": 266400,
      "d": 609.375,
      "v": 44
    },
    {
      "midi": 85,
      "hit": false,
      "t": 266414.0625,
      "d": 70.3125,
      "v": 74
    },
    {
      "midi": 87,
      "hit": false,
      "t": 266484.375,
      "d": 65.625,
      "v": 75
    },
    {
      "midi": 88,
      "hit": false,
      "t": 266550,
      "d": 70.3125,
      "v": 76
    },
    {
      "midi": 90,
      "hit": false,
      "t": 266620.3125,
      "d": 70.3125,
      "v": 77
    },
    {
      "midi": 92,
      "hit": false,
      "t": 266690.625,
      "d": 65.625,
      "v": 77
    },
    {
      "midi": 93,
      "hit": false,
      "t": 266756.25,
      "d": 70.3125,
      "v": 79
    },
    {
      "midi": 95,
      "hit": false,
      "t": 266826.5625,
      "d": 70.3125,
      "v": 82
    },
    {
      "midi": 97,
      "hit": false,
      "t": 266896.875,
      "d": 65.625,
      "v": 83
    },
    {
      "midi": 99,
      "hit": false,
      "t": 266962.5,
      "d": 70.3125,
      "v": 82
    },
    {
      "midi": 63,
      "hit": false,
      "t": 267000,
      "d": 609.375,
      "v": 55
    },
    {
      "midi": 97,
      "hit": false,
      "t": 267032.8125,
      "d": 65.625,
      "v": 79
    },
    {
      "midi": 95,
      "hit": false,
      "t": 267098.4375,
      "d": 70.3125,
      "v": 75
    },
    {
      "midi": 93,
      "hit": false,
      "t": 267168.75,
      "d": 70.3125,
      "v": 74
    },
    {
      "midi": 92,
      "hit": false,
      "t": 267239.0625,
      "d": 65.625,
      "v": 76
    },
    {
      "midi": 90,
      "hit": false,
      "t": 267304.6875,
      "d": 70.3125,
      "v": 77
    },
    {
      "midi": 88,
      "hit": false,
      "t": 267375,
      "d": 70.3125,
      "v": 69
    },
    {
      "midi": 87,
      "hit": false,
      "t": 267445.3125,
      "d": 65.625,
      "v": 74
    },
    {
      "midi": 85,
      "hit": false,
      "t": 267510.9375,
      "d": 70.3125,
      "v": 70
    },
    {
      "midi": 83,
      "hit": false,
      "t": 267581.25,
      "d": 65.625,
      "v": 69
    },
    {
      "midi": 61,
      "hit": false,
      "t": 267600,
      "d": 567.1875,
      "v": 52
    },
    {
      "midi": 81,
      "hit": false,
      "t": 267646.875,
      "d": 70.3125,
      "v": 78
    },
    {
      "midi": 80,
      "hit": false,
      "t": 267717.1875,
      "d": 70.3125,
      "v": 70
    },
    {
      "midi": 78,
      "hit": false,
      "t": 267787.5,
      "d": 65.625,
      "v": 65
    },
    {
      "midi": 76,
      "hit": false,
      "t": 267853.125,
      "d": 70.3125,
      "v": 64
    },
    {
      "midi": 75,
      "hit": false,
      "t": 267923.4375,
      "d": 70.3125,
      "v": 65
    },
    {
      "midi": 73,
      "hit": false,
      "t": 267993.75,
      "d": 65.625,
      "v": 62
    },
    {
      "midi": 71,
      "hit": false,
      "t": 268059.375,
      "d": 70.3125,
      "v": 64
    },
    {
      "midi": 69,
      "hit": false,
      "t": 268129.6875,
      "d": 70.3125,
      "v": 61
    },
    {
      "midi": 49,
      "hit": false,
      "t": 268200,
      "d": 609.375,
      "v": 46
    },
    {
      "midi": 68,
      "hit": false,
      "t": 268200,
      "d": 2278.125,
      "v": 61
    },
    {
      "midi": 56,
      "hit": false,
      "t": 268800,
      "d": 609.375,
      "v": 48
    },
    {
      "midi": 64,
      "hit": false,
      "t": 269400,
      "d": 609.375,
      "v": 53
    },
    {
      "midi": 61,
      "hit": false,
      "t": 270000,
      "d": 567.1875,
      "v": 52
    },
    {
      "midi": 69,
      "hit": false,
      "t": 270600,
      "d": 215.625,
      "v": 51
    },
    {
      "midi": 49,
      "hit": false,
      "t": 270600,
      "d": 609.375,
      "v": 44
    },
    {
      "midi": 71,
      "hit": false,
      "t": 270815.625,
      "d": 220.3125,
      "v": 52
    },
    {
      "midi": 73,
      "hit": false,
      "t": 271035.9375,
      "d": 215.625,
      "v": 53
    },
    {
      "midi": 54,
      "hit": false,
      "t": 271200,
      "d": 609.375,
      "v": 44
    },
    {
      "midi": 75,
      "hit": false,
      "t": 271251.5625,
      "d": 220.3125,
      "v": 58
    },
    {
      "midi": 76,
      "hit": false,
      "t": 271471.875,
      "d": 215.625,
      "v": 62
    },
    {
      "midi": 78,
      "hit": false,
      "t": 271687.5,
      "d": 220.3125,
      "v": 64
    },
    {
      "midi": 63,
      "hit": false,
      "t": 271800,
      "d": 609.375,
      "v": 56
    },
    {
      "midi": 76,
      "hit": false,
      "t": 271907.8125,
      "d": 215.625,
      "v": 62
    },
    {
      "midi": 75,
      "hit": false,
      "t": 272123.4375,
      "d": 220.3125,
      "v": 57
    },
    {
      "midi": 73,
      "hit": false,
      "t": 272343.75,
      "d": 215.625,
      "v": 56
    },
    {
      "midi": 61,
      "hit": false,
      "t": 272400,
      "d": 567.1875,
      "v": 54
    },
    {
      "midi": 71,
      "hit": false,
      "t": 272559.375,
      "d": 220.3125,
      "v": 54
    },
    {
      "midi": 69,
      "hit": false,
      "t": 272779.6875,
      "d": 220.3125,
      "v": 50
    },
    {
      "midi": 49,
      "hit": false,
      "t": 273000,
      "d": 609.375,
      "v": 45
    },
    {
      "midi": 68,
      "hit": false,
      "t": 273000,
      "d": 2278.125,
      "v": 46
    },
    {
      "midi": 56,
      "hit": false,
      "t": 273600,
      "d": 609.375,
      "v": 45
    },
    {
      "midi": 64,
      "hit": false,
      "t": 274200,
      "d": 609.375,
      "v": 53
    },
    {
      "midi": 61,
      "hit": false,
      "t": 274800,
      "d": 567.1875,
      "v": 53
    },
    {
      "midi": 69,
      "hit": false,
      "t": 275400,
      "d": 182.8125,
      "v": 50
    },
    {
      "midi": 49,
      "hit": false,
      "t": 275400,
      "d": 609.375,
      "v": 44
    },
    {
      "midi": 71,
      "hit": false,
      "t": 275582.8125,
      "d": 182.8125,
      "v": 53
    },
    {
      "midi": 73,
      "hit": false,
      "t": 275765.625,
      "d": 187.5,
      "v": 55
    },
    {
      "midi": 75,
      "hit": false,
      "t": 275953.125,
      "d": 182.8125,
      "v": 56
    },
    {
      "midi": 54,
      "hit": false,
      "t": 276000,
      "d": 609.375,
      "v": 47
    },
    {
      "midi": 76,
      "hit": false,
      "t": 276135.9375,
      "d": 182.8125,
      "v": 59
    },
    {
      "midi": 78,
      "hit": false,
      "t": 276318.75,
      "d": 187.5,
      "v": 63
    },
    {
      "midi": 80,
      "hit": false,
      "t": 276506.25,
      "d": 140.625,
      "v": 51
    },
    {
      "midi": 63,
      "hit": false,
      "t": 276600,
      "d": 609.375,
      "v": 54
    },
    {
      "midi": 78,
      "hit": false,
      "t": 276689.0625,
      "d": 140.625,
      "v": 46
    },
    {
      "midi": 76,
      "hit": false,
      "t": 276876.5625,
      "d": 140.625,
      "v": 44
    },
    {
      "midi": 75,
      "hit": false,
      "t": 277059.375,
      "d": 140.625,
      "v": 43
    },
    {
      "midi": 61,
      "hit": false,
      "t": 277200,
      "d": 567.1875,
      "v": 50
    },
    {
      "midi": 73,
      "hit": false,
      "t": 277242.1875,
      "d": 140.625,
      "v": 41
    },
    {
      "midi": 71,
      "hit": false,
      "t": 277429.6875,
      "d": 140.625,
      "v": 38
    },
    {
      "midi": 69,
      "hit": false,
      "t": 277612.5,
      "d": 140.625,
      "v": 34
    },
    {
      "midi": 49,
      "hit": false,
      "t": 277800,
      "d": 609.375,
      "v": 34
    },
    {
      "midi": 68,
      "hit": false,
      "t": 277800,
      "d": 9117.1875,
      "v": 48
    },
    {
      "midi": 56,
      "hit": false,
      "t": 278400,
      "d": 609.375,
      "v": 38
    },
    {
      "midi": 64,
      "hit": false,
      "t": 279000,
      "d": 609.375,
      "v": 42
    },
    {
      "midi": 61,
      "hit": false,
      "t": 279600,
      "d": 567.1875,
      "v": 35
    },
    {
      "midi": 49,
      "hit": false,
      "t": 280200,
      "d": 609.375,
      "v": 32
    },
    {
      "midi": 54,
      "hit": false,
      "t": 280800,
      "d": 609.375,
      "v": 33
    },
    {
      "midi": 63,
      "hit": false,
      "t": 281400,
      "d": 609.375,
      "v": 36
    },
    {
      "midi": 61,
      "hit": false,
      "t": 282000,
      "d": 567.1875,
      "v": 30
    },
    {
      "midi": 49,
      "hit": false,
      "t": 282600,
      "d": 609.375,
      "v": 30
    },
    {
      "midi": 56,
      "hit": false,
      "t": 283200,
      "d": 609.375,
      "v": 33
    },
    {
      "midi": 64,
      "hit": false,
      "t": 283800,
      "d": 609.375,
      "v": 31
    },
    {
      "midi": 61,
      "hit": false,
      "t": 284400,
      "d": 567.1875,
      "v": 27
    },
    {
      "midi": 49,
      "hit": false,
      "t": 285000,
      "d": 609.375,
      "v": 27
    },
    {
      "midi": 54,
      "hit": false,
      "t": 285600,
      "d": 609.375,
      "v": 27
    },
    {
      "midi": 63,
      "hit": false,
      "t": 286200,
      "d": 609.375,
      "v": 30
    },
    {
      "midi": 61,
      "hit": false,
      "t": 286800,
      "d": 567.1875,
      "v": 23
    },
    {
      "midi": 49,
      "hit": false,
      "t": 287400,
      "d": 609.375,
      "v": 22
    },
    {
      "midi": 68,
      "hit": false,
      "t": 287400,
      "d": 1832.8125,
      "v": 32
    },
    {
      "midi": 56,
      "hit": false,
      "t": 288000,
      "d": 609.375,
      "v": 21
    },
    {
      "midi": 65,
      "hit": false,
      "t": 288600,
      "d": 609.375,
      "v": 25
    },
    {
      "midi": 61,
      "hit": false,
      "t": 289200,
      "d": 609.375,
      "v": 25
    },
    {
      "midi": 73,
      "hit": false,
      "t": 289200,
      "d": 609.375,
      "v": 34
    },
    {
      "midi": 56,
      "hit": false,
      "t": 289800,
      "d": 609.375,
      "v": 27
    },
    {
      "midi": 77,
      "hit": false,
      "t": 289800,
      "d": 609.375,
      "v": 34
    },
    {
      "midi": 53,
      "hit": false,
      "t": 290400,
      "d": 609.375,
      "v": 26
    },
    {
      "midi": 80,
      "hit": false,
      "t": 290400,
      "d": 609.375,
      "v": 34
    },
    {
      "midi": 49,
      "hit": false,
      "t": 291000,
      "d": 609.375,
      "v": 23
    },
    {
      "midi": 85,
      "hit": false,
      "t": 291000,
      "d": 609.375,
      "v": 34
    },
    {
      "midi": 44,
      "hit": false,
      "t": 291600,
      "d": 609.375,
      "v": 24
    },
    {
      "midi": 89,
      "hit": false,
      "t": 291600,
      "d": 609.375,
      "v": 38
    },
    {
      "midi": 37,
      "hit": false,
      "t": 292200,
      "d": 6839.0625,
      "v": 24
    },
    {
      "midi": 97,
      "hit": false,
      "t": 292200,
      "d": 6839.0625,
      "v": 33
    }
  ]
}