{
  "jsonPath": "Unknown/Unknown/Charlie Byrd  Laurindo Almeida/choro-ii.json",
  "path": "Unknown\\Unknown\\Charlie Byrd  Laurindo Almeida\\Choro II.mid",
  "name": "Choro II",
  "difficulty": "Advanced",
  "bpm": 120,
  "notes": [
    {
      "midi": 86,
      "hit": false,
      "t": 1241.6666666666667,
      "d": 187.5,
      "v": 111
    },
    {
      "midi": 74,
      "hit": false,
      "t": 1483.3333333333335,
      "d": 329.16666666666674,
      "v": 127
    },
    {
      "midi": 78,
      "hit": false,
      "t": 1712.5000000000002,
      "d": 304.16666666666674,
      "v": 76
    },
    {
      "midi": 85,
      "hit": false,
      "t": 1979.166666666667,
      "d": 858.3333333333335,
      "v": 122
    },
    {
      "midi": 66,
      "hit": false,
      "t": 2033.3333333333337,
      "d": 1908.3333333333337,
      "v": 96
    },
    {
      "midi": 78,
      "hit": false,
      "t": 2487.5000000000005,
      "d": 75,
      "v": 78
    },
    {
      "midi": 74,
      "hit": false,
      "t": 2487.5000000000005,
      "d": 79.16666666666652,
      "v": 85
    },
    {
      "midi": 78,
      "hit": false,
      "t": 2737.5000000000005,
      "d": 191.66666666666652,
      "v": 115
    },
    {
      "midi": 74,
      "hit": false,
      "t": 2741.666666666667,
      "d": 245.83333333333348,
      "v": 111
    },
    {
      "midi": 83,
      "hit": false,
      "t": 3245.833333333334,
      "d": 237.5,
      "v": 120
    },
    {
      "midi": 81,
      "hit": false,
      "t": 3475.0000000000005,
      "d": 204.16666666666697,
      "v": 89
    },
    {
      "midi": 75,
      "hit": false,
      "t": 3691.6666666666674,
      "d": 337.5,
      "v": 76
    },
    {
      "midi": 79,
      "hit": false,
      "t": 3700.000000000001,
      "d": 350,
      "v": 73
    },
    {
      "midi": 67,
      "hit": false,
      "t": 3970.833333333334,
      "d": 466.66666666666697,
      "v": 103
    },
    {
      "midi": 67,
      "hit": false,
      "t": 4466.666666666668,
      "d": 75,
      "v": 108
    },
    {
      "midi": 71,
      "hit": false,
      "t": 4491.666666666668,
      "d": 41.66666666666697,
      "v": 91
    },
    {
      "midi": 71,
      "hit": false,
      "t": 4704.166666666668,
      "d": 62.5,
      "v": 126
    },
    {
      "midi": 76,
      "hit": false,
      "t": 4708.333333333335,
      "d": 54.16666666666606,
      "v": 126
    },
    {
      "midi": 67,
      "hit": false,
      "t": 4729.166666666668,
      "d": 41.66666666666697,
      "v": 96
    },
    {
      "midi": 55,
      "hit": false,
      "t": 4995.833333333335,
      "d": 591.666666666667,
      "v": 98
    },
    {
      "midi": 64,
      "hit": false,
      "t": 4995.833333333335,
      "d": 791.666666666667,
      "v": 100
    },
    {
      "midi": 71,
      "hit": false,
      "t": 5229.166666666668,
      "d": 537.5000000000009,
      "v": 127
    },
    {
      "midi": 73,
      "hit": false,
      "t": 5470.833333333335,
      "d": 279.16666666666697,
      "v": 87
    },
    {
      "midi": 55,
      "hit": false,
      "t": 5712.500000000002,
      "d": 108.33333333333303,
      "v": 106
    },
    {
      "midi": 74,
      "hit": false,
      "t": 5716.666666666669,
      "d": 279.16666666666697,
      "v": 83
    },
    {
      "midi": 78,
      "hit": false,
      "t": 5975.000000000002,
      "d": 941.666666666667,
      "v": 107
    },
    {
      "midi": 57,
      "hit": false,
      "t": 5991.666666666669,
      "d": 783.3333333333339,
      "v": 120
    },
    {
      "midi": 68,
      "hit": false,
      "t": 6475.000000000003,
      "d": 233.33333333333394,
      "v": 111
    },
    {
      "midi": 69,
      "hit": false,
      "t": 6491.66666666667,
      "d": 4.16666666666697,
      "v": 62
    },
    {
      "midi": 67,
      "hit": false,
      "t": 6491.66666666667,
      "d": 83.33333333333394,
      "v": 69
    },
    {
      "midi": 73,
      "hit": false,
      "t": 6495.833333333337,
      "d": 75,
      "v": 92
    },
    {
      "midi": 73,
      "hit": false,
      "t": 6733.333333333337,
      "d": 87.49999999999909,
      "v": 119
    },
    {
      "midi": 67,
      "hit": false,
      "t": 6741.66666666667,
      "d": 70.83333333333303,
      "v": 106
    },
    {
      "midi": 69,
      "hit": false,
      "t": 6741.66666666667,
      "d": 70.83333333333303,
      "v": 96
    },
    {
      "midi": 61,
      "hit": false,
      "t": 6983.333333333336,
      "d": 1037.5,
      "v": 96
    },
    {
      "midi": 76,
      "hit": false,
      "t": 7241.666666666669,
      "d": 304.16666666666697,
      "v": 111
    },
    {
      "midi": 81,
      "hit": false,
      "t": 7491.666666666669,
      "d": 270.83333333333394,
      "v": 96
    },
    {
      "midi": 78,
      "hit": false,
      "t": 7725.000000000003,
      "d": 450,
      "v": 119
    },
    {
      "midi": 71,
      "hit": false,
      "t": 7970.833333333336,
      "d": 812.5,
      "v": 120
    },
    {
      "midi": 62,
      "hit": false,
      "t": 8020.833333333336,
      "d": 1358.3333333333321,
      "v": 85
    },
    {
      "midi": 66,
      "hit": false,
      "t": 8237.500000000004,
      "d": 237.5,
      "v": 127
    },
    {
      "midi": 65,
      "hit": false,
      "t": 8462.500000000004,
      "d": 274.9999999999982,
      "v": 103
    },
    {
      "midi": 78,
      "hit": false,
      "t": 8466.66666666667,
      "d": 54.16666666666606,
      "v": 115
    },
    {
      "midi": 74,
      "hit": false,
      "t": 8479.16666666667,
      "d": 62.5,
      "v": 58
    },
    {
      "midi": 78,
      "hit": false,
      "t": 8708.333333333336,
      "d": 62.5,
      "v": 127
    },
    {
      "midi": 74,
      "hit": false,
      "t": 8712.500000000002,
      "d": 58.33333333333394,
      "v": 108
    },
    {
      "midi": 57,
      "hit": false,
      "t": 8995.833333333336,
      "d": 416.66666666666606,
      "v": 96
    },
    {
      "midi": 69,
      "hit": false,
      "t": 9225.000000000002,
      "d": 287.5,
      "v": 111
    },
    {
      "midi": 66,
      "hit": false,
      "t": 9470.833333333336,
      "d": 91.66666666666606,
      "v": 122
    },
    {
      "midi": 62,
      "hit": false,
      "t": 9704.166666666668,
      "d": 204.16666666666606,
      "v": 80
    },
    {
      "midi": 57,
      "hit": false,
      "t": 9987.5,
      "d": 245.83333333333394,
      "v": 120
    },
    {
      "midi": 59,
      "hit": false,
      "t": 9991.666666666666,
      "d": 70.83333333333394,
      "v": 127
    },
    {
      "midi": 69,
      "hit": false,
      "t": 10254.166666666668,
      "d": 300,
      "v": 127
    },
    {
      "midi": 66,
      "hit": false,
      "t": 10466.666666666668,
      "d": 275,
      "v": 119
    },
    {
      "midi": 62,
      "hit": false,
      "t": 10712.500000000002,
      "d": 154.16666666666606,
      "v": 72
    },
    {
      "midi": 61,
      "hit": false,
      "t": 10975,
      "d": 187.5,
      "v": 127
    },
    {
      "midi": 69,
      "hit": false,
      "t": 11233.333333333334,
      "d": 512.5,
      "v": 91
    },
    {
      "midi": 61,
      "hit": false,
      "t": 11458.333333333334,
      "d": 116.66666666666606,
      "v": 104
    },
    {
      "midi": 60,
      "hit": false,
      "t": 11662.5,
      "d": 33.33333333333394,
      "v": 98
    },
    {
      "midi": 52,
      "hit": false,
      "t": 11979.166666666668,
      "d": 320.8333333333321,
      "v": 63
    },
    {
      "midi": 59,
      "hit": false,
      "t": 12008.333333333334,
      "d": 599.9999999999982,
      "v": 127
    },
    {
      "midi": 67,
      "hit": false,
      "t": 12508.333333333334,
      "d": 29.16666666666606,
      "v": 58
    },
    {
      "midi": 71,
      "hit": false,
      "t": 12533.333333333334,
      "d": 66.66666666666606,
      "v": 93
    },
    {
      "midi": 64,
      "hit": false,
      "t": 12537.5,
      "d": 4.16666666666606,
      "v": 86
    },
    {
      "midi": 67,
      "hit": false,
      "t": 12537.5,
      "d": 66.66666666666606,
      "v": 96
    },
    {
      "midi": 67,
      "hit": false,
      "t": 12766.666666666666,
      "d": 20.83333333333394,
      "v": 126
    },
    {
      "midi": 71,
      "hit": false,
      "t": 12766.666666666666,
      "d": 87.5,
      "v": 120
    },
    {
      "midi": 64,
      "hit": false,
      "t": 12770.833333333332,
      "d": 8.33333333333394,
      "v": 96
    },
    {
      "midi": 52,
      "hit": false,
      "t": 12979.166666666666,
      "d": 458.3333333333321,
      "v": 103
    },
    {
      "midi": 71,
      "hit": false,
      "t": 13245.833333333332,
      "d": 445.8333333333321,
      "v": 123
    },
    {
      "midi": 73,
      "hit": false,
      "t": 13499.999999999998,
      "d": 233.33333333333212,
      "v": 78
    },
    {
      "midi": 74,
      "hit": false,
      "t": 13687.499999999998,
      "d": 199.99999999999818,
      "v": 77
    },
    {
      "midi": 78,
      "hit": false,
      "t": 13849.999999999996,
      "d": 1004.1666666666679,
      "v": 115
    },
    {
      "midi": 57,
      "hit": false,
      "t": 14020.83333333333,
      "d": 720.8333333333321,
      "v": 108
    },
    {
      "midi": 66,
      "hit": false,
      "t": 14254.166666666664,
      "d": 283.3333333333321,
      "v": 127
    },
    {
      "midi": 73,
      "hit": false,
      "t": 14483.33333333333,
      "d": 66.66666666666606,
      "v": 65
    },
    {
      "midi": 69,
      "hit": false,
      "t": 14483.33333333333,
      "d": 83.33333333333212,
      "v": 71
    },
    {
      "midi": 67,
      "hit": false,
      "t": 14499.999999999996,
      "d": 66.66666666666606,
      "v": 117
    },
    {
      "midi": 73,
      "hit": false,
      "t": 14704.166666666662,
      "d": 129.16666666666788,
      "v": 122
    },
    {
      "midi": 67,
      "hit": false,
      "t": 14712.499999999996,
      "d": 37.5,
      "v": 103
    },
    {
      "midi": 69,
      "hit": false,
      "t": 14712.499999999996,
      "d": 112.5,
      "v": 96
    },
    {
      "midi": 68,
      "hit": false,
      "t": 14724.999999999996,
      "d": 245.83333333333394,
      "v": 127
    },
    {
      "midi": 69,
      "hit": false,
      "t": 14974.999999999996,
      "d": 1033.333333333334,
      "v": 127
    },
    {
      "midi": 61,
      "hit": false,
      "t": 14987.499999999996,
      "d": 575,
      "v": 111
    },
    {
      "midi": 76,
      "hit": false,
      "t": 15224.999999999996,
      "d": 312.5,
      "v": 113
    },
    {
      "midi": 81,
      "hit": false,
      "t": 15479.166666666662,
      "d": 275.0000000000018,
      "v": 113
    },
    {
      "midi": 78,
      "hit": false,
      "t": 15720.83333333333,
      "d": 512.5,
      "v": 104
    },
    {
      "midi": 61,
      "hit": false,
      "t": 15766.666666666664,
      "d": 154.16666666666606,
      "v": 73
    },
    {
      "midi": 71,
      "hit": false,
      "t": 15962.499999999996,
      "d": 716.6666666666679,
      "v": 117
    },
    {
      "midi": 62,
      "hit": false,
      "t": 15999.999999999996,
      "d": 1529.1666666666679,
      "v": 82
    },
    {
      "midi": 66,
      "hit": false,
      "t": 16216.666666666664,
      "d": 258.3333333333321,
      "v": 127
    },
    {
      "midi": 65,
      "hit": false,
      "t": 16449.999999999996,
      "d": 262.5,
      "v": 111
    },
    {
      "midi": 78,
      "hit": false,
      "t": 16466.666666666664,
      "d": 70.83333333333212,
      "v": 111
    },
    {
      "midi": 74,
      "hit": false,
      "t": 16474.999999999996,
      "d": 62.5,
      "v": 67
    },
    {
      "midi": 66,
      "hit": false,
      "t": 16674.999999999996,
      "d": 654.1666666666642,
      "v": 122
    },
    {
      "midi": 71,
      "hit": false,
      "t": 16704.166666666664,
      "d": 54.16666666666424,
      "v": 51
    },
    {
      "midi": 78,
      "hit": false,
      "t": 16712.499999999996,
      "d": 58.33333333333212,
      "v": 119
    },
    {
      "midi": 74,
      "hit": false,
      "t": 16720.83333333333,
      "d": 37.5,
      "v": 83
    },
    {
      "midi": 57,
      "hit": false,
      "t": 16983.33333333333,
      "d": 504.1666666666679,
      "v": 103
    },
    {
      "midi": 86,
      "hit": false,
      "t": 17208.33333333333,
      "d": 262.5,
      "v": 113
    },
    {
      "midi": 74,
      "hit": false,
      "t": 17470.83333333333,
      "d": 508.33333333333576,
      "v": 100
    },
    {
      "midi": 78,
      "hit": false,
      "t": 17716.666666666664,
      "d": 295.8333333333321,
      "v": 92
    },
    {
      "midi": 85,
      "hit": false,
      "t": 17954.166666666664,
      "d": 933.333333333343,
      "v": 111
    },
    {
      "midi": 66,
      "hit": false,
      "t": 17991.666666666664,
      "d": 641.6666666666715,
      "v": 115
    },
    {
      "midi": 73,
      "hit": false,
      "t": 17991.666666666664,
      "d": 1262.500000000011,
      "v": 127
    },
    {
      "midi": 78,
      "hit": false,
      "t": 18504.166666666664,
      "d": 70.83333333333576,
      "v": 96
    },
    {
      "midi": 74,
      "hit": false,
      "t": 18508.333333333332,
      "d": 70.83333333333576,
      "v": 78
    },
    {
      "midi": 78,
      "hit": false,
      "t": 18745.833333333336,
      "d": 75.00000000000364,
      "v": 107
    },
    {
      "midi": 66,
      "hit": false,
      "t": 18745.833333333336,
      "d": 116.66666666667152,
      "v": 92
    },
    {
      "midi": 74,
      "hit": false,
      "t": 18750.000000000004,
      "d": 66.66666666666788,
      "v": 108
    },
    {
      "midi": 66,
      "hit": false,
      "t": 18995.83333333334,
      "d": 375.00000000000364,
      "v": 115
    },
    {
      "midi": 83,
      "hit": false,
      "t": 19237.500000000007,
      "d": 241.66666666666788,
      "v": 117
    },
    {
      "midi": 71,
      "hit": false,
      "t": 19241.666666666675,
      "d": 308.3333333333321,
      "v": 127
    },
    {
      "midi": 81,
      "hit": false,
      "t": 19479.166666666675,
      "d": 262.49999999999636,
      "v": 83
    },
    {
      "midi": 66,
      "hit": false,
      "t": 19500.000000000007,
      "d": 70.83333333333212,
      "v": 87
    },
    {
      "midi": 69,
      "hit": false,
      "t": 19500.000000000007,
      "d": 279.16666666666424,
      "v": 127
    },
    {
      "midi": 79,
      "hit": false,
      "t": 19712.500000000007,
      "d": 274.99999999999636,
      "v": 89
    },
    {
      "midi": 67,
      "hit": false,
      "t": 19720.83333333334,
      "d": 183.33333333333212,
      "v": 117
    },
    {
      "midi": 71,
      "hit": false,
      "t": 19975.000000000004,
      "d": 441.6666666666679,
      "v": 98
    },
    {
      "midi": 59,
      "hit": false,
      "t": 19983.333333333336,
      "d": 716.6666666666715,
      "v": 103
    },
    {
      "midi": 67,
      "hit": false,
      "t": 20466.66666666667,
      "d": 70.83333333333576,
      "v": 86
    },
    {
      "midi": 71,
      "hit": false,
      "t": 20500.000000000007,
      "d": 50,
      "v": 117
    },
    {
      "midi": 76,
      "hit": false,
      "t": 20512.500000000007,
      "d": 37.5,
      "v": 117
    },
    {
      "midi": 71,
      "hit": false,
      "t": 20745.83333333334,
      "d": 33.33333333333212,
      "v": 113
    },
    {
      "midi": 76,
      "hit": false,
      "t": 20754.16666666667,
      "d": 20.83333333333212,
      "v": 86
    },
    {
      "midi": 67,
      "hit": false,
      "t": 20754.16666666667,
      "d": 37.5,
      "v": 108
    },
    {
      "midi": 59,
      "hit": false,
      "t": 20983.33333333334,
      "d": 58.33333333333212,
      "v": 108
    },
    {
      "midi": 59,
      "hit": false,
      "t": 21229.16666666667,
      "d": 391.6666666666679,
      "v": 127
    },
    {
      "midi": 71,
      "hit": false,
      "t": 21241.66666666667,
      "d": 758.3333333333358,
      "v": 127
    },
    {
      "midi": 61,
      "hit": false,
      "t": 21479.16666666667,
      "d": 270.83333333333576,
      "v": 125
    },
    {
      "midi": 73,
      "hit": false,
      "t": 21483.33333333334,
      "d": 254.16666666666788,
      "v": 107
    },
    {
      "midi": 62,
      "hit": false,
      "t": 21700.000000000007,
      "d": 300,
      "v": 89
    },
    {
      "midi": 74,
      "hit": false,
      "t": 21712.500000000007,
      "d": 304.1666666666679,
      "v": 85
    },
    {
      "midi": 78,
      "hit": false,
      "t": 21983.33333333334,
      "d": 904.1666666666679,
      "v": 115
    },
    {
      "midi": 66,
      "hit": false,
      "t": 21983.33333333334,
      "d": 1175,
      "v": 127
    },
    {
      "midi": 61,
      "hit": false,
      "t": 22237.500000000007,
      "d": 83.33333333333212,
      "v": 82
    },
    {
      "midi": 57,
      "hit": false,
      "t": 22258.33333333334,
      "d": 75,
      "v": 62
    },
    {
      "midi": 61,
      "hit": false,
      "t": 22500.000000000007,
      "d": 25,
      "v": 89
    },
    {
      "midi": 67,
      "hit": false,
      "t": 22533.33333333334,
      "d": 83.33333333333212,
      "v": 82
    },
    {
      "midi": 69,
      "hit": false,
      "t": 22537.500000000007,
      "d": 79.16666666666424,
      "v": 73
    },
    {
      "midi": 73,
      "hit": false,
      "t": 22545.83333333334,
      "d": 58.33333333333212,
      "v": 84
    },
    {
      "midi": 61,
      "hit": false,
      "t": 22750.000000000004,
      "d": 66.66666666667152,
      "v": 115
    },
    {
      "midi": 73,
      "hit": false,
      "t": 22754.16666666667,
      "d": 75.00000000000364,
      "v": 125
    },
    {
      "midi": 67,
      "hit": false,
      "t": 22758.33333333334,
      "d": 62.50000000000364,
      "v": 98
    },
    {
      "midi": 69,
      "hit": false,
      "t": 22762.500000000007,
      "d": 58.33333333333576,
      "v": 91
    },
    {
      "midi": 64,
      "hit": false,
      "t": 23241.66666666667,
      "d": 387.5,
      "v": 123
    },
    {
      "midi": 65,
      "hit": false,
      "t": 23245.83333333334,
      "d": 125,
      "v": 117
    },
    {
      "midi": 76,
      "hit": false,
      "t": 23266.66666666667,
      "d": 279.1666666666679,
      "v": 82
    },
    {
      "midi": 69,
      "hit": false,
      "t": 23495.83333333334,
      "d": 258.3333333333321,
      "v": 123
    },
    {
      "midi": 81,
      "hit": false,
      "t": 23508.33333333334,
      "d": 283.3333333333321,
      "v": 113
    },
    {
      "midi": 66,
      "hit": false,
      "t": 23716.66666666667,
      "d": 299.99999999999636,
      "v": 127
    },
    {
      "midi": 78,
      "hit": false,
      "t": 23750.000000000004,
      "d": 299.99999999999636,
      "v": 115
    },
    {
      "midi": 71,
      "hit": false,
      "t": 23987.500000000004,
      "d": 783.3333333333358,
      "v": 123
    },
    {
      "midi": 59,
      "hit": false,
      "t": 23995.833333333336,
      "d": 804.1666666666715,
      "v": 117
    },
    {
      "midi": 66,
      "hit": false,
      "t": 24275,
      "d": 20.83333333333212,
      "v": 54
    },
    {
      "midi": 78,
      "hit": false,
      "t": 24466.666666666664,
      "d": 54.16666666667152,
      "v": 111
    },
    {
      "midi": 74,
      "hit": false,
      "t": 24474.999999999996,
      "d": 41.66666666667152,
      "v": 72
    },
    {
      "midi": 81,
      "hit": false,
      "t": 24479.166666666664,
      "d": 33.33333333333576,
      "v": 103
    },
    {
      "midi": 66,
      "hit": false,
      "t": 24508.333333333332,
      "d": 29.166666666671517,
      "v": 82
    },
    {
      "midi": 78,
      "hit": false,
      "t": 24691.66666666667,
      "d": 41.66666666666788,
      "v": 122
    },
    {
      "midi": 74,
      "hit": false,
      "t": 24691.66666666667,
      "d": 79.16666666666788,
      "v": 106
    },
    {
      "midi": 81,
      "hit": false,
      "t": 24695.83333333334,
      "d": 54.16666666666788,
      "v": 127
    },
    {
      "midi": 62,
      "hit": false,
      "t": 24745.83333333334,
      "d": 50,
      "v": 103
    },
    {
      "midi": 66,
      "hit": false,
      "t": 24745.83333333334,
      "d": 54.16666666666788,
      "v": 127
    },
    {
      "midi": 69,
      "hit": false,
      "t": 24750.000000000007,
      "d": 54.16666666666788,
      "v": 120
    },
    {
      "midi": 57,
      "hit": false,
      "t": 24979.166666666675,
      "d": 62.5,
      "v": 127
    },
    {
      "midi": 79,
      "hit": false,
      "t": 25225.000000000007,
      "d": 275,
      "v": 127
    },
    {
      "midi": 67,
      "hit": false,
      "t": 25225.000000000007,
      "d": 312.5,
      "v": 108
    },
    {
      "midi": 78,
      "hit": false,
      "t": 25462.500000000007,
      "d": 441.66666666666424,
      "v": 127
    },
    {
      "midi": 66,
      "hit": false,
      "t": 25479.166666666675,
      "d": 266.66666666666424,
      "v": 127
    },
    {
      "midi": 76,
      "hit": false,
      "t": 25683.33333333334,
      "d": 250,
      "v": 127
    },
    {
      "midi": 64,
      "hit": false,
      "t": 25716.66666666667,
      "d": 287.50000000000364,
      "v": 127
    },
    {
      "midi": 59,
      "hit": false,
      "t": 25941.66666666667,
      "d": 916.6666666666752,
      "v": 113
    },
    {
      "midi": 75,
      "hit": false,
      "t": 25945.83333333334,
      "d": 304.1666666666715,
      "v": 127
    },
    {
      "midi": 63,
      "hit": false,
      "t": 25975.000000000007,
      "d": 287.50000000000364,
      "v": 115
    },
    {
      "midi": 78,
      "hit": false,
      "t": 26195.833333333343,
      "d": 216.66666666666788,
      "v": 127
    },
    {
      "midi": 66,
      "hit": false,
      "t": 26200.00000000001,
      "d": 212.5,
      "v": 119
    },
    {
      "midi": 81,
      "hit": false,
      "t": 26441.66666666668,
      "d": 800.0000000000036,
      "v": 96
    },
    {
      "midi": 69,
      "hit": false,
      "t": 26470.833333333347,
      "d": 254.16666666666788,
      "v": 108
    },
    {
      "midi": 72,
      "hit": false,
      "t": 26704.16666666668,
      "d": 279.1666666666679,
      "v": 127
    },
    {
      "midi": 84,
      "hit": false,
      "t": 26708.333333333347,
      "d": 545.8333333333358,
      "v": 123
    },
    {
      "midi": 75,
      "hit": false,
      "t": 26945.833333333347,
      "d": 308.33333333333576,
      "v": 111
    },
    {
      "midi": 59,
      "hit": false,
      "t": 26966.66666666668,
      "d": 641.6666666666715,
      "v": 113
    },
    {
      "midi": 87,
      "hit": false,
      "t": 26970.833333333347,
      "d": 545.8333333333358,
      "v": 127
    },
    {
      "midi": 90,
      "hit": false,
      "t": 27200.000000000015,
      "d": 495.83333333333576,
      "v": 111
    },
    {
      "midi": 78,
      "hit": false,
      "t": 27212.500000000015,
      "d": 112.5,
      "v": 125
    },
    {
      "midi": 81,
      "hit": false,
      "t": 27450.000000000015,
      "d": 175.00000000000364,
      "v": 106
    },
    {
      "midi": 81,
      "hit": false,
      "t": 27687.50000000002,
      "d": 45.83333333333212,
      "v": 78
    },
    {
      "midi": 83,
      "hit": false,
      "t": 27700.00000000002,
      "d": 62.5,
      "v": 60
    },
    {
      "midi": 81,
      "hit": false,
      "t": 27766.666666666686,
      "d": 37.5,
      "v": 108
    },
    {
      "midi": 64,
      "hit": false,
      "t": 27958.333333333354,
      "d": 595.8333333333358,
      "v": 117
    },
    {
      "midi": 67,
      "hit": false,
      "t": 27975.000000000022,
      "d": 616.6666666666679,
      "v": 108
    },
    {
      "midi": 79,
      "hit": false,
      "t": 28245.833333333358,
      "d": 287.5,
      "v": 126
    },
    {
      "midi": 76,
      "hit": false,
      "t": 28491.66666666669,
      "d": 175,
      "v": 93
    },
    {
      "midi": 71,
      "hit": false,
      "t": 28712.500000000022,
      "d": 287.5,
      "v": 96
    },
    {
      "midi": 70,
      "hit": false,
      "t": 28970.833333333354,
      "d": 487.5,
      "v": 119
    },
    {
      "midi": 74,
      "hit": false,
      "t": 29191.66666666669,
      "d": 254.16666666666424,
      "v": 96
    },
    {
      "midi": 67,
      "hit": false,
      "t": 29225.000000000022,
      "d": 441.6666666666715,
      "v": 80
    },
    {
      "midi": 76,
      "hit": false,
      "t": 29433.333333333354,
      "d": 108.33333333333576,
      "v": 127
    },
    {
      "midi": 62,
      "hit": false,
      "t": 29658.333333333358,
      "d": 45.83333333333576,
      "v": 93
    },
    {
      "midi": 79,
      "hit": false,
      "t": 29662.500000000025,
      "d": 266.6666666666679,
      "v": 120
    },
    {
      "midi": 58,
      "hit": false,
      "t": 29708.33333333336,
      "d": 258.3333333333321,
      "v": 78
    },
    {
      "midi": 69,
      "hit": false,
      "t": 29950.000000000025,
      "d": 650.0000000000036,
      "v": 111
    },
    {
      "midi": 74,
      "hit": false,
      "t": 29958.333333333358,
      "d": 616.6666666666715,
      "v": 86
    },
    {
      "midi": 78,
      "hit": false,
      "t": 29962.500000000025,
      "d": 625.0000000000036,
      "v": 127
    },
    {
      "midi": 57,
      "hit": false,
      "t": 29987.500000000025,
      "d": 216.66666666666788,
      "v": 117
    },
    {
      "midi": 62,
      "hit": false,
      "t": 30220.83333333336,
      "d": 275,
      "v": 127
    },
    {
      "midi": 66,
      "hit": false,
      "t": 30491.666666666693,
      "d": 283.33333333333576,
      "v": 127
    },
    {
      "midi": 69,
      "hit": false,
      "t": 30725.00000000003,
      "d": 195.83333333333212,
      "v": 127
    },
    {
      "midi": 71,
      "hit": false,
      "t": 30962.50000000003,
      "d": 166.66666666666788,
      "v": 103
    },
    {
      "midi": 64,
      "hit": false,
      "t": 30970.83333333336,
      "d": 70.83333333333576,
      "v": 120
    },
    {
      "midi": 83,
      "hit": false,
      "t": 30987.50000000003,
      "d": 66.66666666666788,
      "v": 123
    },
    {
      "midi": 68,
      "hit": false,
      "t": 30991.666666666697,
      "d": 33.33333333333212,
      "v": 127
    },
    {
      "midi": 74,
      "hit": false,
      "t": 30991.666666666697,
      "d": 62.5,
      "v": 113
    },
    {
      "midi": 73,
      "hit": false,
      "t": 31475.00000000003,
      "d": 79.16666666667152,
      "v": 104
    },
    {
      "midi": 67,
      "hit": false,
      "t": 31483.33333333336,
      "d": 75.00000000000728,
      "v": 103
    },
    {
      "midi": 85,
      "hit": false,
      "t": 31483.33333333336,
      "d": 79.16666666667516,
      "v": 125
    },
    {
      "midi": 79,
      "hit": false,
      "t": 31487.50000000003,
      "d": 62.50000000000364,
      "v": 123
    },
    {
      "midi": 81,
      "hit": false,
      "t": 31491.666666666697,
      "d": 54.16666666666788,
      "v": 117
    },
    {
      "midi": 69,
      "hit": false,
      "t": 31495.833333333365,
      "d": 58.33333333333576,
      "v": 111
    },
    {
      "midi": 62,
      "hit": false,
      "t": 31991.666666666704,
      "d": 70.8333333333394,
      "v": 106
    },
    {
      "midi": 78,
      "hit": false,
      "t": 31995.833333333372,
      "d": 50.00000000000364,
      "v": 115
    },
    {
      "midi": 86,
      "hit": false,
      "t": 31995.833333333372,
      "d": 54.16666666667152,
      "v": 126
    },
    {
      "midi": 74,
      "hit": false,
      "t": 31995.833333333372,
      "d": 1070.8333333333358,
      "v": 98
    },
    {
      "midi": 69,
      "hit": false,
      "t": 32000.00000000004,
      "d": 1062.5000000000036,
      "v": 108
    },
    {
      "midi": 66,
      "hit": false,
      "t": 32004.166666666708,
      "d": 1041.6666666666715,
      "v": 100
    },
    {
      "midi": 62,
      "hit": false,
      "t": 32495.833333333376,
      "d": 83.33333333333212,
      "v": 66
    },
    {
      "midi": 57,
      "hit": false,
      "t": 32508.333333333376,
      "d": 487.50000000000364,
      "v": 126
    },
    {
      "midi": 50,
      "hit": false,
      "t": 32962.500000000044,
      "d": 58.33333333333576,
      "v": 111
    },
    {
      "midi": 62,
      "hit": false,
      "t": 33000.000000000044,
      "d": 25,
      "v": 89
    },
    {
      "midi": 71,
      "hit": false,
      "t": 33250.000000000044,
      "d": 325,
      "v": 108
    },
    {
      "midi": 72,
      "hit": false,
      "t": 33500.000000000044,
      "d": 208.33333333333576,
      "v": 113
    },
    {
      "midi": 73,
      "hit": false,
      "t": 33750.000000000044,
      "d": 208.33333333332848,
      "v": 122
    },
    {
      "midi": 71,
      "hit": false,
      "t": 33916.66666666671,
      "d": 291.66666666665697,
      "v": 89
    },
    {
      "midi": 55,
      "hit": false,
      "t": 33958.33333333337,
      "d": 662.4999999999854,
      "v": 98
    },
    {
      "midi": 79,
      "hit": false,
      "t": 33983.33333333337,
      "d": 279.16666666665697,
      "v": 103
    },
    {
      "midi": 74,
      "hit": false,
      "t": 34000.00000000004,
      "d": 845.8333333333212,
      "v": 113
    },
    {
      "midi": 83,
      "hit": false,
      "t": 34041.6666666667,
      "d": 1566.6666666666497,
      "v": 126
    },
    {
      "midi": 71,
      "hit": false,
      "t": 34258.333333333365,
      "d": 45.83333333332848,
      "v": 108
    },
    {
      "midi": 67,
      "hit": false,
      "t": 34258.333333333365,
      "d": 58.33333333332848,
      "v": 108
    },
    {
      "midi": 71,
      "hit": false,
      "t": 34350.00000000003,
      "d": 187.5,
      "v": 85
    },
    {
      "midi": 79,
      "hit": false,
      "t": 34383.333333333365,
      "d": 233.33333333332848,
      "v": 96
    },
    {
      "midi": 79,
      "hit": false,
      "t": 34691.66666666669,
      "d": 341.66666666666424,
      "v": 65
    },
    {
      "midi": 67,
      "hit": false,
      "t": 34720.83333333336,
      "d": 75,
      "v": 106
    },
    {
      "midi": 71,
      "hit": false,
      "t": 34725.00000000002,
      "d": 75,
      "v": 123
    },
    {
      "midi": 55,
      "hit": false,
      "t": 34750.00000000002,
      "d": 129.16666666667152,
      "v": 120
    },
    {
      "midi": 75,
      "hit": false,
      "t": 34995.83333333336,
      "d": 770.8333333333212,
      "v": 127
    },
    {
      "midi": 56,
      "hit": false,
      "t": 35008.33333333336,
      "d": 495.8333333333285,
      "v": 119
    },
    {
      "midi": 68,
      "hit": false,
      "t": 35016.66666666669,
      "d": 616.666666666657,
      "v": 127
    },
    {
      "midi": 67,
      "hit": false,
      "t": 35258.33333333336,
      "d": 62.499999999992724,
      "v": 111
    },
    {
      "midi": 71,
      "hit": false,
      "t": 35275.00000000002,
      "d": 29.16666666666424,
      "v": 93
    },
    {
      "midi": 77,
      "hit": false,
      "t": 35279.166666666686,
      "d": 216.66666666666424,
      "v": 113
    },
    {
      "midi": 56,
      "hit": false,
      "t": 35670.83333333335,
      "d": 133.33333333332848,
      "v": 111
    },
    {
      "midi": 72,
      "hit": false,
      "t": 35687.500000000015,
      "d": 637.4999999999927,
      "v": 103
    },
    {
      "midi": 67,
      "hit": false,
      "t": 35708.33333333334,
      "d": 75,
      "v": 106
    },
    {
      "midi": 71,
      "hit": false,
      "t": 35716.66666666668,
      "d": 66.66666666666424,
      "v": 117
    },
    {
      "midi": 57,
      "hit": false,
      "t": 35979.16666666668,
      "d": 237.5,
      "v": 96
    },
    {
      "midi": 66,
      "hit": false,
      "t": 35991.66666666668,
      "d": 254.16666666666424,
      "v": 94
    },
    {
      "midi": 78,
      "hit": false,
      "t": 36000.000000000015,
      "d": 274.9999999999927,
      "v": 115
    },
    {
      "midi": 84,
      "hit": false,
      "t": 36229.16666666668,
      "d": 608.3333333333285,
      "v": 127
    },
    {
      "midi": 78,
      "hit": false,
      "t": 36462.50000000001,
      "d": 54.16666666666424,
      "v": 84
    },
    {
      "midi": 72,
      "hit": false,
      "t": 36475.00000000001,
      "d": 50,
      "v": 69
    },
    {
      "midi": 67,
      "hit": false,
      "t": 36525.00000000001,
      "d": 75,
      "v": 61
    },
    {
      "midi": 72,
      "hit": false,
      "t": 36529.16666666667,
      "d": 58.33333333333576,
      "v": 103
    },
    {
      "midi": 69,
      "hit": false,
      "t": 36529.16666666667,
      "d": 66.66666666667152,
      "v": 56
    },
    {
      "midi": 78,
      "hit": false,
      "t": 36704.16666666668,
      "d": 70.83333333332848,
      "v": 78
    },
    {
      "midi": 71,
      "hit": false,
      "t": 36716.66666666668,
      "d": 45.83333333333576,
      "v": 69
    },
    {
      "midi": 73,
      "hit": false,
      "t": 36750.000000000015,
      "d": 41.666666666656965,
      "v": 96
    },
    {
      "midi": 76,
      "hit": false,
      "t": 36758.33333333335,
      "d": 208.33333333332848,
      "v": 120
    },
    {
      "midi": 67,
      "hit": false,
      "t": 36766.66666666668,
      "d": 145.83333333332848,
      "v": 100
    },
    {
      "midi": 69,
      "hit": false,
      "t": 36766.66666666668,
      "d": 154.16666666666424,
      "v": 96
    },
    {
      "midi": 72,
      "hit": false,
      "t": 36770.83333333334,
      "d": 4.166666666664241,
      "v": 113
    },
    {
      "midi": 62,
      "hit": false,
      "t": 36970.83333333334,
      "d": 545.8333333333358,
      "v": 103
    },
    {
      "midi": 72,
      "hit": false,
      "t": 36979.16666666668,
      "d": 612.5,
      "v": 113
    },
    {
      "midi": 76,
      "hit": false,
      "t": 36987.500000000015,
      "d": 54.16666666666424,
      "v": 78
    },
    {
      "midi": 76,
      "hit": false,
      "t": 37241.66666666668,
      "d": 145.83333333333576,
      "v": 127
    },
    {
      "midi": 84,
      "hit": false,
      "t": 37241.66666666668,
      "d": 162.5,
      "v": 126
    },
    {
      "midi": 76,
      "hit": false,
      "t": 37491.66666666668,
      "d": 62.5,
      "v": 120
    },
    {
      "midi": 84,
      "hit": false,
      "t": 37491.66666666668,
      "d": 87.5,
      "v": 123
    },
    {
      "midi": 79,
      "hit": false,
      "t": 37495.83333333334,
      "d": 45.83333333333576,
      "v": 82
    },
    {
      "midi": 76,
      "hit": false,
      "t": 37720.83333333334,
      "d": 95.83333333332848,
      "v": 126
    },
    {
      "midi": 62,
      "hit": false,
      "t": 37725.00000000001,
      "d": 87.5,
      "v": 93
    },
    {
      "midi": 84,
      "hit": false,
      "t": 37729.16666666667,
      "d": 79.16666666667152,
      "v": 127
    },
    {
      "midi": 72,
      "hit": false,
      "t": 37737.50000000001,
      "d": 100,
      "v": 100
    },
    {
      "midi": 78,
      "hit": false,
      "t": 37987.50000000001,
      "d": 383.3333333333285,
      "v": 127
    },
    {
      "midi": 84,
      "hit": false,
      "t": 37991.66666666667,
      "d": 425,
      "v": 127
    },
    {
      "midi": 62,
      "hit": false,
      "t": 38004.16666666667,
      "d": 791.6666666666497,
      "v": 106
    },
    {
      "midi": 72,
      "hit": false,
      "t": 38483.333333333336,
      "d": 75,
      "v": 73
    },
    {
      "midi": 74,
      "hit": false,
      "t": 38483.333333333336,
      "d": 75,
      "v": 58
    },
    {
      "midi": 78,
      "hit": false,
      "t": 38520.833333333336,
      "d": 41.66666666666424,
      "v": 127
    },
    {
      "midi": 84,
      "hit": false,
      "t": 38520.833333333336,
      "d": 54.16666666666424,
      "v": 120
    },
    {
      "midi": 74,
      "hit": false,
      "t": 38724.99999999999,
      "d": 70.83333333332848,
      "v": 78
    },
    {
      "midi": 72,
      "hit": false,
      "t": 38745.83333333333,
      "d": 49.999999999992724,
      "v": 117
    },
    {
      "midi": 78,
      "hit": false,
      "t": 38749.99999999999,
      "d": 54.16666666666424,
      "v": 78
    },
    {
      "midi": 84,
      "hit": false,
      "t": 38754.16666666666,
      "d": 129.16666666666424,
      "v": 127
    },
    {
      "midi": 81,
      "hit": false,
      "t": 39008.33333333332,
      "d": 279.16666666666424,
      "v": 127
    },
    {
      "midi": 84,
      "hit": false,
      "t": 39012.499999999985,
      "d": 458.3333333333285,
      "v": 127
    },
    {
      "midi": 62,
      "hit": false,
      "t": 39020.83333333332,
      "d": 774.9999999999854,
      "v": 93
    },
    {
      "midi": 78,
      "hit": false,
      "t": 39037.499999999985,
      "d": 366.66666666666424,
      "v": 26
    },
    {
      "midi": 74,
      "hit": false,
      "t": 39054.16666666665,
      "d": 120.83333333333576,
      "v": 36
    },
    {
      "midi": 72,
      "hit": false,
      "t": 39054.16666666665,
      "d": 212.5,
      "v": 51
    },
    {
      "midi": 74,
      "hit": false,
      "t": 39274.999999999985,
      "d": 558.3333333333212,
      "v": 111
    },
    {
      "midi": 83,
      "hit": false,
      "t": 39508.333333333314,
      "d": 216.66666666666424,
      "v": 127
    },
    {
      "midi": 79,
      "hit": false,
      "t": 39508.333333333314,
      "d": 329.16666666665697,
      "v": 127
    },
    {
      "midi": 66,
      "hit": false,
      "t": 39729.16666666664,
      "d": 108.33333333332848,
      "v": 119
    },
    {
      "midi": 83,
      "hit": false,
      "t": 39820.83333333331,
      "d": 216.66666666666424,
      "v": 127
    },
    {
      "midi": 86,
      "hit": false,
      "t": 39962.49999999997,
      "d": 812.4999999999927,
      "v": 113
    },
    {
      "midi": 67,
      "hit": false,
      "t": 39970.83333333331,
      "d": 725,
      "v": 89
    },
    {
      "midi": 71,
      "hit": false,
      "t": 39983.33333333331,
      "d": 175,
      "v": 103
    },
    {
      "midi": 71,
      "hit": false,
      "t": 40241.66666666664,
      "d": 166.66666666666424,
      "v": 70
    },
    {
      "midi": 74,
      "hit": false,
      "t": 40508.33333333331,
      "d": 79.16666666666424,
      "v": 62
    },
    {
      "midi": 83,
      "hit": false,
      "t": 40529.166666666635,
      "d": 58.33333333333576,
      "v": 44
    },
    {
      "midi": 79,
      "hit": false,
      "t": 40537.49999999997,
      "d": 50,
      "v": 59
    },
    {
      "midi": 83,
      "hit": false,
      "t": 40724.99999999997,
      "d": 95.83333333332848,
      "v": 113
    },
    {
      "midi": 79,
      "hit": false,
      "t": 40733.3333333333,
      "d": 62.5,
      "v": 75
    },
    {
      "midi": 71,
      "hit": false,
      "t": 40733.3333333333,
      "d": 83.33333333333576,
      "v": 111
    },
    {
      "midi": 74,
      "hit": false,
      "t": 40741.66666666663,
      "d": 54.16666666667152,
      "v": 89
    },
    {
      "midi": 62,
      "hit": false,
      "t": 40979.166666666635,
      "d": 54.16666666666424,
      "v": 85
    },
    {
      "midi": 71,
      "hit": false,
      "t": 40983.3333333333,
      "d": 58.33333333333576,
      "v": 127
    },
    {
      "midi": 83,
      "hit": false,
      "t": 41233.33333333331,
      "d": 325,
      "v": 126
    },
    {
      "midi": 88,
      "hit": false,
      "t": 41483.33333333331,
      "d": 225,
      "v": 113
    },
    {
      "midi": 86,
      "hit": false,
      "t": 41720.83333333331,
      "d": 275,
      "v": 96
    },
    {
      "midi": 55,
      "hit": false,
      "t": 41945.83333333331,
      "d": 762.5,
      "v": 123
    },
    {
      "midi": 83,
      "hit": false,
      "t": 41970.83333333331,
      "d": 275,
      "v": 103
    },
    {
      "midi": 79,
      "hit": false,
      "t": 42229.16666666664,
      "d": 120.83333333332848,
      "v": 82
    },
    {
      "midi": 74,
      "hit": false,
      "t": 42462.49999999997,
      "d": 137.5,
      "v": 68
    },
    {
      "midi": 76,
      "hit": false,
      "t": 42466.666666666635,
      "d": 204.16666666667152,
      "v": 96
    },
    {
      "midi": 74,
      "hit": false,
      "t": 42699.99999999997,
      "d": 270.83333333333576,
      "v": 108
    },
    {
      "midi": 71,
      "hit": false,
      "t": 42962.49999999997,
      "d": 179.16666666667152,
      "v": 91
    },
    {
      "midi": 55,
      "hit": false,
      "t": 42962.49999999997,
      "d": 745.8333333333358,
      "v": 113
    },
    {
      "midi": 67,
      "hit": false,
      "t": 43216.66666666664,
      "d": 175,
      "v": 113
    },
    {
      "midi": 64,
      "hit": false,
      "t": 43479.16666666664,
      "d": 154.16666666666424,
      "v": 126
    },
    {
      "midi": 63,
      "hit": false,
      "t": 43616.66666666664,
      "d": 191.66666666666424,
      "v": 104
    },
    {
      "midi": 86,
      "hit": false,
      "t": 43712.49999999997,
      "d": 295.83333333334303,
      "v": 120
    },
    {
      "midi": 62,
      "hit": false,
      "t": 43812.49999999997,
      "d": 133.33333333333576,
      "v": 106
    },
    {
      "midi": 85,
      "hit": false,
      "t": 43966.66666666664,
      "d": 245.83333333334303,
      "v": 111
    },
    {
      "midi": 57,
      "hit": false,
      "t": 43987.49999999998,
      "d": 541.6666666666788,
      "v": 117
    },
    {
      "midi": 62,
      "hit": false,
      "t": 44016.66666666665,
      "d": 170.83333333333576,
      "v": 9
    },
    {
      "midi": 83,
      "hit": false,
      "t": 44224.999999999985,
      "d": 295.83333333333576,
      "v": 77
    },
    {
      "midi": 66,
      "hit": false,
      "t": 44245.83333333332,
      "d": 500,
      "v": 127
    },
    {
      "midi": 69,
      "hit": false,
      "t": 44470.83333333332,
      "d": 291.66666666666424,
      "v": 126
    },
    {
      "midi": 81,
      "hit": false,
      "t": 44479.16666666666,
      "d": 208.33333333333576,
      "v": 106
    },
    {
      "midi": 74,
      "hit": false,
      "t": 44699.99999999999,
      "d": 312.49999999998545,
      "v": 127
    },
    {
      "midi": 78,
      "hit": false,
      "t": 44729.16666666666,
      "d": 208.33333333332848,
      "v": 100
    },
    {
      "midi": 76,
      "hit": false,
      "t": 44949.999999999985,
      "d": 283.3333333333212,
      "v": 91
    },
    {
      "midi": 50,
      "hit": false,
      "t": 44954.16666666665,
      "d": 537.4999999999854,
      "v": 91
    },
    {
      "midi": 62,
      "hit": false,
      "t": 44958.333333333314,
      "d": 804.1666666666497,
      "v": 127
    },
    {
      "midi": 74,
      "hit": false,
      "t": 45229.16666666664,
      "d": 179.16666666666424,
      "v": 103
    },
    {
      "midi": 66,
      "hit": false,
      "t": 45229.16666666664,
      "d": 466.66666666665697,
      "v": 127
    },
    {
      "midi": 74,
      "hit": false,
      "t": 45462.49999999997,
      "d": 291.66666666665697,
      "v": 98
    },
    {
      "midi": 71,
      "hit": false,
      "t": 45479.166666666635,
      "d": 233.33333333332848,
      "v": 96
    },
    {
      "midi": 50,
      "hit": false,
      "t": 45666.666666666635,
      "d": 108.33333333332848,
      "v": 123
    },
    {
      "midi": 78,
      "hit": false,
      "t": 45679.166666666635,
      "d": 279.16666666666424,
      "v": 127
    },
    {
      "midi": 69,
      "hit": false,
      "t": 45708.3333333333,
      "d": 237.5,
      "v": 117
    },
    {
      "midi": 52,
      "hit": false,
      "t": 45949.99999999996,
      "d": 550.0000000000073,
      "v": 83
    },
    {
      "midi": 68,
      "hit": false,
      "t": 45966.666666666635,
      "d": 479.16666666666424,
      "v": 127
    },
    {
      "midi": 64,
      "hit": false,
      "t": 45966.666666666635,
      "d": 820.8333333333285,
      "v": 127
    },
    {
      "midi": 71,
      "hit": false,
      "t": 46212.49999999997,
      "d": 541.6666666666642,
      "v": 86
    },
    {
      "midi": 74,
      "hit": false,
      "t": 46229.166666666635,
      "d": 387.5,
      "v": 89
    },
    {
      "midi": 76,
      "hit": false,
      "t": 46466.666666666635,
      "d": 316.66666666666424,
      "v": 127
    },
    {
      "midi": 68,
      "hit": false,
      "t": 46699.99999999997,
      "d": 245.8333333333212,
      "v": 122
    },
    {
      "midi": 56,
      "hit": false,
      "t": 46704.166666666635,
      "d": 87.49999999999272,
      "v": 68
    },
    {
      "midi": 67,
      "hit": false,
      "t": 46970.83333333329,
      "d": 362.5,
      "v": 127
    },
    {
      "midi": 57,
      "hit": false,
      "t": 46983.33333333329,
      "d": 600.0000000000073,
      "v": 123
    },
    {
      "midi": 78,
      "hit": false,
      "t": 47216.66666666663,
      "d": 295.83333333333576,
      "v": 127
    },
    {
      "midi": 73,
      "hit": false,
      "t": 47254.16666666663,
      "d": 337.5000000000073,
      "v": 119
    },
    {
      "midi": 81,
      "hit": false,
      "t": 47537.49999999996,
      "d": 200.00000000000728,
      "v": 126
    },
    {
      "midi": 57,
      "hit": false,
      "t": 47712.49999999997,
      "d": 58.33333333333576,
      "v": 100
    },
    {
      "midi": 78,
      "hit": false,
      "t": 47712.49999999997,
      "d": 208.33333333333576,
      "v": 125
    },
    {
      "midi": 76,
      "hit": false,
      "t": 47974.99999999997,
      "d": 287.5,
      "v": 123
    },
    {
      "midi": 62,
      "hit": false,
      "t": 48008.33333333331,
      "d": 237.5,
      "v": 63
    },
    {
      "midi": 67,
      "hit": false,
      "t": 48233.33333333331,
      "d": 299.9999999999927,
      "v": 117
    },
    {
      "midi": 75,
      "hit": false,
      "t": 48320.83333333331,
      "d": 129.16666666666424,
      "v": 104
    },
    {
      "midi": 69,
      "hit": false,
      "t": 48504.166666666635,
      "d": 270.83333333333576,
      "v": 120
    },
    {
      "midi": 68,
      "hit": false,
      "t": 48716.666666666635,
      "d": 283.33333333334303,
      "v": 127
    },
    {
      "midi": 67,
      "hit": false,
      "t": 48979.16666666664,
      "d": 341.6666666666715,
      "v": 25
    },
    {
      "midi": 66,
      "hit": false,
      "t": 49233.333333333314,
      "d": 300,
      "v": 127
    },
    {
      "midi": 74,
      "hit": false,
      "t": 49262.49999999998,
      "d": 12.5,
      "v": 106
    },
    {
      "midi": 71,
      "hit": false,
      "t": 49274.99999999998,
      "d": 366.6666666666715,
      "v": 127
    },
    {
      "midi": 64,
      "hit": false,
      "t": 49491.66666666665,
      "d": 216.66666666666424,
      "v": 98
    },
    {
      "midi": 72,
      "hit": false,
      "t": 49520.833333333314,
      "d": 275,
      "v": 111
    },
    {
      "midi": 62,
      "hit": false,
      "t": 49724.99999999998,
      "d": 254.16666666667152,
      "v": 103
    },
    {
      "midi": 73,
      "hit": false,
      "t": 49733.333333333314,
      "d": 329.16666666666424,
      "v": 111
    },
    {
      "midi": 74,
      "hit": false,
      "t": 50020.833333333314,
      "d": 558.3333333333212,
      "v": 96
    },
    {
      "midi": 67,
      "hit": false,
      "t": 50245.833333333314,
      "d": 29.16666666666424,
      "v": 103
    },
    {
      "midi": 83,
      "hit": false,
      "t": 50249.99999999998,
      "d": 545.8333333333285,
      "v": 127
    },
    {
      "midi": 71,
      "hit": false,
      "t": 50254.16666666664,
      "d": 58.33333333333576,
      "v": 85
    },
    {
      "midi": 79,
      "hit": false,
      "t": 50474.99999999998,
      "d": 287.4999999999927,
      "v": 111
    },
    {
      "midi": 71,
      "hit": false,
      "t": 50479.16666666664,
      "d": 70.83333333332848,
      "v": 103
    },
    {
      "midi": 67,
      "hit": false,
      "t": 50483.33333333331,
      "d": 66.66666666666424,
      "v": 89
    },
    {
      "midi": 55,
      "hit": false,
      "t": 50737.49999999997,
      "d": 83.33333333333576,
      "v": 126
    },
    {
      "midi": 74,
      "hit": false,
      "t": 50754.166666666635,
      "d": 116.66666666667152,
      "v": 123
    },
    {
      "midi": 56,
      "hit": false,
      "t": 50991.66666666664,
      "d": 454.16666666666424,
      "v": 127
    },
    {
      "midi": 75,
      "hit": false,
      "t": 51016.66666666664,
      "d": 649.9999999999927,
      "v": 122
    },
    {
      "midi": 68,
      "hit": false,
      "t": 51199.99999999998,
      "d": 387.4999999999927,
      "v": 122
    },
    {
      "midi": 77,
      "hit": false,
      "t": 51249.99999999998,
      "d": 254.16666666666424,
      "v": 127
    },
    {
      "midi": 67,
      "hit": false,
      "t": 51312.49999999998,
      "d": 79.16666666666424,
      "v": 78
    },
    {
      "midi": 71,
      "hit": false,
      "t": 51324.99999999998,
      "d": 54.16666666666424,
      "v": 49
    },
    {
      "midi": 74,
      "hit": false,
      "t": 51479.16666666664,
      "d": 312.4999999999927,
      "v": 83
    },
    {
      "midi": 71,
      "hit": false,
      "t": 51529.16666666664,
      "d": 95.83333333332848,
      "v": 80
    },
    {
      "midi": 67,
      "hit": false,
      "t": 51533.33333333331,
      "d": 75,
      "v": 69
    },
    {
      "midi": 56,
      "hit": false,
      "t": 51679.166666666635,
      "d": 154.16666666666424,
      "v": 127
    },
    {
      "midi": 75,
      "hit": false,
      "t": 51737.49999999997,
      "d": 254.16666666665697,
      "v": 96
    },
    {
      "midi": 71,
      "hit": false,
      "t": 51762.49999999997,
      "d": 66.66666666666424,
      "v": 66
    },
    {
      "midi": 57,
      "hit": false,
      "t": 51987.49999999996,
      "d": 241.66666666666424,
      "v": 120
    },
    {
      "midi": 78,
      "hit": false,
      "t": 52033.33333333329,
      "d": 616.6666666666642,
      "v": 122
    },
    {
      "midi": 66,
      "hit": false,
      "t": 52237.49999999996,
      "d": 50,
      "v": 127
    },
    {
      "midi": 72,
      "hit": false,
      "t": 52237.49999999996,
      "d": 87.5,
      "v": 117
    },
    {
      "midi": 72,
      "hit": false,
      "t": 52524.99999999996,
      "d": 29.16666666666424,
      "v": 86
    },
    {
      "midi": 67,
      "hit": false,
      "t": 52533.3333333333,
      "d": 87.49999999999272,
      "v": 47
    },
    {
      "midi": 69,
      "hit": false,
      "t": 52537.49999999996,
      "d": 79.16666666666424,
      "v": 45
    },
    {
      "midi": 66,
      "hit": false,
      "t": 52724.999999999956,
      "d": 79.16666666666424,
      "v": 125
    },
    {
      "midi": 67,
      "hit": false,
      "t": 52737.499999999956,
      "d": 79.16666666666424,
      "v": 98
    },
    {
      "midi": 69,
      "hit": false,
      "t": 52737.499999999956,
      "d": 83.33333333332848,
      "v": 96
    },
    {
      "midi": 72,
      "hit": false,
      "t": 52741.66666666662,
      "d": 50,
      "v": 111
    },
    {
      "midi": 76,
      "hit": false,
      "t": 52741.66666666662,
      "d": 58.33333333333576,
      "v": 111
    },
    {
      "midi": 62,
      "hit": false,
      "t": 53012.49999999995,
      "d": 241.66666666666424,
      "v": 120
    },
    {
      "midi": 76,
      "hit": false,
      "t": 53237.49999999995,
      "d": 154.16666666666424,
      "v": 127
    },
    {
      "midi": 84,
      "hit": false,
      "t": 53245.83333333328,
      "d": 320.83333333333576,
      "v": 127
    },
    {
      "midi": 79,
      "hit": false,
      "t": 53491.66666666661,
      "d": 79.16666666666424,
      "v": 85
    },
    {
      "midi": 76,
      "hit": false,
      "t": 53499.99999999995,
      "d": 79.16666666666424,
      "v": 113
    },
    {
      "midi": 77,
      "hit": false,
      "t": 53729.16666666661,
      "d": 125,
      "v": 127
    },
    {
      "midi": 84,
      "hit": false,
      "t": 53737.49999999995,
      "d": 62.5,
      "v": 127
    },
    {
      "midi": 57,
      "hit": false,
      "t": 53737.49999999995,
      "d": 104.16666666666424,
      "v": 103
    },
    {
      "midi": 84,
      "hit": false,
      "t": 53999.99999999995,
      "d": 204.16666666666424,
      "v": 127
    },
    {
      "midi": 50,
      "hit": false,
      "t": 54012.49999999995,
      "d": 408.3333333333285,
      "v": 106
    },
    {
      "midi": 78,
      "hit": false,
      "t": 54229.16666666661,
      "d": 87.5,
      "v": 90
    },
    {
      "midi": 72,
      "hit": false,
      "t": 54245.83333333328,
      "d": 87.5,
      "v": 24
    },
    {
      "midi": 84,
      "hit": false,
      "t": 54262.49999999994,
      "d": 95.83333333333576,
      "v": 126
    },
    {
      "midi": 74,
      "hit": false,
      "t": 54270.83333333328,
      "d": 58.33333333333576,
      "v": 30
    },
    {
      "midi": 78,
      "hit": false,
      "t": 54487.49999999994,
      "d": 112.50000000000728,
      "v": 107
    },
    {
      "midi": 84,
      "hit": false,
      "t": 54495.83333333328,
      "d": 70.83333333333576,
      "v": 126
    },
    {
      "midi": 72,
      "hit": false,
      "t": 54716.66666666661,
      "d": 95.83333333333576,
      "v": 100
    },
    {
      "midi": 78,
      "hit": false,
      "t": 54724.99999999995,
      "d": 95.83333333333576,
      "v": 127
    },
    {
      "midi": 84,
      "hit": false,
      "t": 54729.16666666661,
      "d": 108.33333333333576,
      "v": 127
    },
    {
      "midi": 78,
      "hit": false,
      "t": 54983.33333333328,
      "d": 374.9999999999927,
      "v": 127
    },
    {
      "midi": 74,
      "hit": false,
      "t": 54983.33333333328,
      "d": 437.5,
      "v": 82
    },
    {
      "midi": 84,
      "hit": false,
      "t": 54987.49999999994,
      "d": 416.66666666666424,
      "v": 127
    },
    {
      "midi": 62,
      "hit": false,
      "t": 54991.666666666606,
      "d": 450.0000000000073,
      "v": 106
    },
    {
      "midi": 72,
      "hit": false,
      "t": 55004.166666666606,
      "d": 95.83333333333576,
      "v": 78
    },
    {
      "midi": 72,
      "hit": false,
      "t": 55254.166666666606,
      "d": 158.33333333333576,
      "v": 127
    },
    {
      "midi": 83,
      "hit": false,
      "t": 55474.99999999995,
      "d": 116.66666666666424,
      "v": 120
    },
    {
      "midi": 79,
      "hit": false,
      "t": 55549.99999999995,
      "d": 887.5,
      "v": 108
    },
    {
      "midi": 61,
      "hit": false,
      "t": 55695.83333333328,
      "d": 145.83333333333576,
      "v": 115
    },
    {
      "midi": 62,
      "hit": false,
      "t": 55970.83333333328,
      "d": 795.833333333343,
      "v": 108
    },
    {
      "midi": 71,
      "hit": false,
      "t": 55979.16666666661,
      "d": 641.6666666666715,
      "v": 108
    },
    {
      "midi": 86,
      "hit": false,
      "t": 55987.49999999995,
      "d": 887.5,
      "v": 111
    },
    {
      "midi": 74,
      "hit": false,
      "t": 56258.333333333285,
      "d": 383.33333333333576,
      "v": 98
    },
    {
      "midi": 79,
      "hit": false,
      "t": 56499.99999999995,
      "d": 79.16666666667152,
      "v": 86
    },
    {
      "midi": 83,
      "hit": false,
      "t": 56508.333333333285,
      "d": 50,
      "v": 80
    },
    {
      "midi": 74,
      "hit": false,
      "t": 56720.833333333285,
      "d": 208.33333333332848,
      "v": 98
    },
    {
      "midi": 71,
      "hit": false,
      "t": 56724.99999999995,
      "d": 91.66666666666424,
      "v": 85
    },
    {
      "midi": 83,
      "hit": false,
      "t": 56733.333333333285,
      "d": 50,
      "v": 106
    },
    {
      "midi": 79,
      "hit": false,
      "t": 56733.333333333285,
      "d": 66.66666666666424,
      "v": 111
    },
    {
      "midi": 62,
      "hit": false,
      "t": 57004.16666666661,
      "d": 591.6666666666642,
      "v": 113
    },
    {
      "midi": 71,
      "hit": false,
      "t": 57012.49999999995,
      "d": 787.5,
      "v": 120
    },
    {
      "midi": 83,
      "hit": false,
      "t": 57237.49999999995,
      "d": 304.16666666666424,
      "v": 120
    },
    {
      "midi": 88,
      "hit": false,
      "t": 57491.66666666661,
      "d": 237.5,
      "v": 117
    },
    {
      "midi": 62,
      "hit": false,
      "t": 57699.99999999994,
      "d": 79.16666666667152,
      "v": 103
    },
    {
      "midi": 86,
      "hit": false,
      "t": 57716.66666666661,
      "d": 320.8333333333212,
      "v": 96
    },
    {
      "midi": 64,
      "hit": false,
      "t": 57966.66666666661,
      "d": 462.4999999999782,
      "v": 120
    },
    {
      "midi": 68,
      "hit": false,
      "t": 57974.99999999994,
      "d": 424.99999999998545,
      "v": 119
    },
    {
      "midi": 83,
      "hit": false,
      "t": 57979.166666666606,
      "d": 316.66666666665697,
      "v": 100
    },
    {
      "midi": 74,
      "hit": false,
      "t": 57983.33333333327,
      "d": 299.9999999999927,
      "v": 126
    },
    {
      "midi": 80,
      "hit": false,
      "t": 58220.83333333326,
      "d": 245.83333333332848,
      "v": 119
    },
    {
      "midi": 76,
      "hit": false,
      "t": 58474.99999999993,
      "d": 95.83333333333576,
      "v": 100
    },
    {
      "midi": 74,
      "hit": false,
      "t": 58699.99999999993,
      "d": 345.83333333333576,
      "v": 91
    },
    {
      "midi": 68,
      "hit": false,
      "t": 58712.49999999993,
      "d": 75,
      "v": 92
    },
    {
      "midi": 71,
      "hit": false,
      "t": 58983.33333333326,
      "d": 300,
      "v": 123
    },
    {
      "midi": 59,
      "hit": false,
      "t": 58987.49999999993,
      "d": 287.5,
      "v": 127
    },
    {
      "midi": 68,
      "hit": false,
      "t": 59229.16666666659,
      "d": 229.16666666667152,
      "v": 84
    },
    {
      "midi": 64,
      "hit": false,
      "t": 59466.6666666666,
      "d": 191.66666666667152,
      "v": 127
    },
    {
      "midi": 65,
      "hit": false,
      "t": 59474.999999999935,
      "d": 75,
      "v": 83
    },
    {
      "midi": 62,
      "hit": false,
      "t": 59729.1666666666,
      "d": 137.5,
      "v": 117
    },
    {
      "midi": 60,
      "hit": false,
      "t": 59733.33333333326,
      "d": 120.83333333333576,
      "v": 127
    },
    {
      "midi": 57,
      "hit": false,
      "t": 59974.999999999935,
      "d": 454.16666666666424,
      "v": 127
    },
    {
      "midi": 60,
      "hit": false,
      "t": 59979.1666666666,
      "d": 454.16666666666424,
      "v": 127
    },
    {
      "midi": 64,
      "hit": false,
      "t": 60283.33333333326,
      "d": 175,
      "v": 91
    },
    {
      "midi": 69,
      "hit": false,
      "t": 60354.1666666666,
      "d": 304.16666666666424,
      "v": 123
    },
    {
      "midi": 72,
      "hit": false,
      "t": 60429.1666666666,
      "d": 345.83333333333576,
      "v": 127
    },
    {
      "midi": 60,
      "hit": false,
      "t": 60737.499999999935,
      "d": 120.83333333333576,
      "v": 127
    },
    {
      "midi": 60,
      "hit": false,
      "t": 61008.33333333327,
      "d": 29.16666666666424,
      "v": 127
    },
    {
      "midi": 63,
      "hit": false,
      "t": 61266.6666666666,
      "d": 95.83333333333576,
      "v": 82
    },
    {
      "midi": 69,
      "hit": false,
      "t": 61329.1666666666,
      "d": 133.33333333333576,
      "v": 80
    },
    {
      "midi": 72,
      "hit": false,
      "t": 61374.999999999935,
      "d": 120.83333333333576,
      "v": 103
    },
    {
      "midi": 75,
      "hit": false,
      "t": 61416.6666666666,
      "d": 95.83333333333576,
      "v": 127
    },
    {
      "midi": 79,
      "hit": false,
      "t": 61470.83333333327,
      "d": 70.83333333332848,
      "v": 127
    },
    {
      "midi": 63,
      "hit": false,
      "t": 61720.83333333326,
      "d": 250,
      "v": 127
    },
    {
      "midi": 61,
      "hit": false,
      "t": 61754.1666666666,
      "d": 154.16666666666424,
      "v": 127
    },
    {
      "midi": 62,
      "hit": false,
      "t": 62004.16666666659,
      "d": 424.9999999999927,
      "v": 127
    },
    {
      "midi": 67,
      "hit": false,
      "t": 62241.66666666659,
      "d": 291.66666666665697,
      "v": 108
    },
    {
      "midi": 71,
      "hit": false,
      "t": 62258.333333333256,
      "d": 129.16666666666424,
      "v": 93
    },
    {
      "midi": 79,
      "hit": false,
      "t": 62312.49999999992,
      "d": 100,
      "v": 117
    },
    {
      "midi": 83,
      "hit": false,
      "t": 62383.333333333256,
      "d": 333.3333333333212,
      "v": 127
    },
    {
      "midi": 79,
      "hit": false,
      "t": 62441.666666666584,
      "d": 341.66666666665697,
      "v": 100
    },
    {
      "midi": 71,
      "hit": false,
      "t": 62512.49999999991,
      "d": 150,
      "v": 120
    },
    {
      "midi": 74,
      "hit": false,
      "t": 62712.49999999991,
      "d": 116.66666666666424,
      "v": 117
    },
    {
      "midi": 71,
      "hit": false,
      "t": 62737.49999999991,
      "d": 16.66666666666424,
      "v": 126
    },
    {
      "midi": 76,
      "hit": false,
      "t": 62983.33333333324,
      "d": 70.83333333332848,
      "v": 127
    },
    {
      "midi": 57,
      "hit": false,
      "t": 62987.499999999905,
      "d": 66.66666666666424,
      "v": 127
    },
    {
      "midi": 67,
      "hit": false,
      "t": 62991.66666666657,
      "d": 66.66666666666424,
      "v": 127
    },
    {
      "midi": 64,
      "hit": false,
      "t": 62999.999999999905,
      "d": 249.99999999999272,
      "v": 120
    },
    {
      "midi": 69,
      "hit": false,
      "t": 63249.9999999999,
      "d": 70.83333333333576,
      "v": 96
    },
    {
      "midi": 67,
      "hit": false,
      "t": 63249.9999999999,
      "d": 83.33333333333576,
      "v": 120
    },
    {
      "midi": 73,
      "hit": false,
      "t": 63249.9999999999,
      "d": 83.33333333333576,
      "v": 115
    },
    {
      "midi": 66,
      "hit": false,
      "t": 63499.9999999999,
      "d": 249.99999999999272,
      "v": 120
    },
    {
      "midi": 62,
      "hit": false,
      "t": 63508.333333333234,
      "d": 508.3333333333285,
      "v": 106
    },
    {
      "midi": 78,
      "hit": false,
      "t": 63516.66666666656,
      "d": 520.8333333333285,
      "v": 127
    },
    {
      "midi": 72,
      "hit": false,
      "t": 63524.99999999989,
      "d": 341.66666666666424,
      "v": 120
    },
    {
      "midi": 74,
      "hit": false,
      "t": 63749.99999999989,
      "d": 191.66666666666424,
      "v": 126
    },
    {
      "midi": 69,
      "hit": false,
      "t": 63749.99999999989,
      "d": 258.33333333333576,
      "v": 126
    },
    {
      "midi": 71,
      "hit": false,
      "t": 64008.33333333323,
      "d": 1008.3333333333212,
      "v": 98
    },
    {
      "midi": 79,
      "hit": false,
      "t": 64008.33333333323,
      "d": 1033.3333333333212,
      "v": 127
    },
    {
      "midi": 67,
      "hit": false,
      "t": 64020.83333333323,
      "d": 95.83333333332848,
      "v": 108
    },
    {
      "midi": 62,
      "hit": false,
      "t": 64520.83333333322,
      "d": 470.8333333333285,
      "v": 120
    },
    {
      "midi": 55,
      "hit": false,
      "t": 64974.99999999988,
      "d": 41.66666666666424,
      "v": 127
    },
    {
      "midi": 62,
      "hit": false,
      "t": 66004.16666666654,
      "d": 770.833333333343,
      "v": 98
    },
    {
      "midi": 78,
      "hit": false,
      "t": 66008.33333333321,
      "d": 245.83333333334303,
      "v": 127
    },
    {
      "midi": 69,
      "hit": false,
      "t": 66012.49999999988,
      "d": 812.5,
      "v": 106
    },
    {
      "midi": 79,
      "hit": false,
      "t": 66237.49999999988,
      "d": 275,
      "v": 83
    },
    {
      "midi": 80,
      "hit": false,
      "t": 66487.49999999988,
      "d": 204.16666666667152,
      "v": 65
    },
    {
      "midi": 81,
      "hit": false,
      "t": 66699.99999999988,
      "d": 50,
      "v": 127
    },
    {
      "midi": 62,
      "hit": false,
      "t": 66987.49999999988,
      "d": 566.6666666666715,
      "v": 108
    },
    {
      "midi": 69,
      "hit": false,
      "t": 66991.66666666656,
      "d": 795.8333333333285,
      "v": 93
    },
    {
      "midi": 62,
      "hit": false,
      "t": 67729.16666666656,
      "d": 79.16666666665697,
      "v": 86
    },
    {
      "midi": 66,
      "hit": false,
      "t": 67729.16666666656,
      "d": 99.99999999998545,
      "v": 76
    },
    {
      "midi": 67,
      "hit": false,
      "t": 67983.33333333321,
      "d": 304.1666666666715,
      "v": 117
    },
    {
      "midi": 64,
      "hit": false,
      "t": 67983.33333333321,
      "d": 345.83333333334303,
      "v": 127
    },
    {
      "midi": 79,
      "hit": false,
      "t": 68237.49999999988,
      "d": 225,
      "v": 127
    },
    {
      "midi": 76,
      "hit": false,
      "t": 68474.99999999988,
      "d": 300,
      "v": 83
    },
    {
      "midi": 71,
      "hit": false,
      "t": 68733.33333333321,
      "d": 300,
      "v": 103
    },
    {
      "midi": 55,
      "hit": false,
      "t": 68970.83333333321,
      "d": 562.5,
      "v": 120
    },
    {
      "midi": 64,
      "hit": false,
      "t": 68983.33333333321,
      "d": 916.6666666666715,
      "v": 100
    },
    {
      "midi": 67,
      "hit": false,
      "t": 69233.33333333321,
      "d": 325,
      "v": 127
    },
    {
      "midi": 69,
      "hit": false,
      "t": 69487.49999999988,
      "d": 250,
      "v": 106
    },
    {
      "midi": 56,
      "hit": false,
      "t": 69699.99999999988,
      "d": 175,
      "v": 96
    },
    {
      "midi": 71,
      "hit": false,
      "t": 69708.33333333321,
      "d": 283.3333333333285,
      "v": 123
    },
    {
      "midi": 73,
      "hit": false,
      "t": 69962.49999999988,
      "d": 1087.499999999971,
      "v": 115
    },
    {
      "midi": 57,
      "hit": false,
      "t": 69970.83333333321,
      "d": 616.666666666657,
      "v": 103
    },
    {
      "midi": 57,
      "hit": false,
      "t": 70745.8333333332,
      "d": 158.33333333332848,
      "v": 117
    },
    {
      "midi": 55,
      "hit": false,
      "t": 71012.49999999985,
      "d": 550,
      "v": 127
    },
    {
      "midi": 69,
      "hit": false,
      "t": 71237.49999999985,
      "d": 283.3333333333285,
      "v": 127
    },
    {
      "midi": 68,
      "hit": false,
      "t": 71495.83333333318,
      "d": 225,
      "v": 127
    },
    {
      "midi": 67,
      "hit": false,
      "t": 71708.33333333318,
      "d": 287.5,
      "v": 127
    },
    {
      "midi": 66,
      "hit": false,
      "t": 71974.99999999985,
      "d": 470.83333333334303,
      "v": 127
    },
    {
      "midi": 50,
      "hit": false,
      "t": 71983.33333333318,
      "d": 283.33333333334303,
      "v": 108
    },
    {
      "midi": 57,
      "hit": false,
      "t": 72224.99999999985,
      "d": 254.16666666667152,
      "v": 123
    },
    {
      "midi": 62,
      "hit": false,
      "t": 72470.8333333332,
      "d": 283.3333333333285,
      "v": 126
    },
    {
      "midi": 64,
      "hit": false,
      "t": 72712.49999999985,
      "d": 325.00000000001455,
      "v": 127
    },
    {
      "midi": 66,
      "hit": false,
      "t": 72983.3333333332,
      "d": 179.16666666667152,
      "v": 127
    },
    {
      "midi": 57,
      "hit": false,
      "t": 73212.49999999987,
      "d": 300,
      "v": 127
    },
    {
      "midi": 56,
      "hit": false,
      "t": 73474.99999999987,
      "d": 229.16666666667152,
      "v": 96
    },
    {
      "midi": 55,
      "hit": false,
      "t": 73720.83333333321,
      "d": 250,
      "v": 108
    },
    {
      "midi": 69,
      "hit": false,
      "t": 73983.33333333321,
      "d": 366.6666666666715,
      "v": 117
    },
    {
      "midi": 54,
      "hit": false,
      "t": 73987.49999999988,
      "d": 575,
      "v": 127
    },
    {
      "midi": 81,
      "hit": false,
      "t": 74012.49999999988,
      "d": 704.1666666666715,
      "v": 123
    },
    {
      "midi": 74,
      "hit": false,
      "t": 74279.16666666656,
      "d": 270.8333333333285,
      "v": 103
    },
    {
      "midi": 69,
      "hit": false,
      "t": 74491.66666666656,
      "d": 291.66666666665697,
      "v": 100
    },
    {
      "midi": 71,
      "hit": false,
      "t": 74504.16666666656,
      "d": 258.3333333333285,
      "v": 91
    },
    {
      "midi": 54,
      "hit": false,
      "t": 74724.99999999988,
      "d": 191.66666666665697,
      "v": 94
    },
    {
      "midi": 74,
      "hit": false,
      "t": 74733.33333333321,
      "d": 237.5,
      "v": 106
    },
    {
      "midi": 80,
      "hit": false,
      "t": 74979.16666666654,
      "d": 550,
      "v": 127
    },
    {
      "midi": 53,
      "hit": false,
      "t": 74979.16666666654,
      "d": 558.3333333333285,
      "v": 117
    },
    {
      "midi": 68,
      "hit": false,
      "t": 74987.49999999987,
      "d": 312.5,
      "v": 127
    },
    {
      "midi": 74,
      "hit": false,
      "t": 75249.99999999987,
      "d": 225,
      "v": 103
    },
    {
      "midi": 68,
      "hit": false,
      "t": 75466.66666666654,
      "d": 58.33333333332848,
      "v": 92
    },
    {
      "midi": 67,
      "hit": false,
      "t": 75695.8333333332,
      "d": 570.833333333343,
      "v": 123
    },
    {
      "midi": 79,
      "hit": false,
      "t": 75699.99999999987,
      "d": 691.6666666666715,
      "v": 127
    },
    {
      "midi": 52,
      "hit": false,
      "t": 75704.16666666654,
      "d": 475,
      "v": 120
    },
    {
      "midi": 59,
      "hit": false,
      "t": 75991.66666666654,
      "d": 237.5,
      "v": 117
    },
    {
      "midi": 71,
      "hit": false,
      "t": 76241.66666666654,
      "d": 233.33333333334303,
      "v": 127
    },
    {
      "midi": 64,
      "hit": false,
      "t": 76241.66666666654,
      "d": 283.33333333334303,
      "v": 127
    },
    {
      "midi": 76,
      "hit": false,
      "t": 76458.33333333321,
      "d": 175,
      "v": 103
    },
    {
      "midi": 66,
      "hit": false,
      "t": 76462.49999999988,
      "d": 245.83333333332848,
      "v": 127
    },
    {
      "midi": 67,
      "hit": false,
      "t": 76704.16666666654,
      "d": 291.6666666666715,
      "v": 127
    },
    {
      "midi": 64,
      "hit": false,
      "t": 76974.99999999988,
      "d": 279.16666666665697,
      "v": 111
    },
    {
      "midi": 71,
      "hit": false,
      "t": 76987.49999999988,
      "d": 154.16666666665697,
      "v": 127
    },
    {
      "midi": 71,
      "hit": false,
      "t": 77237.49999999987,
      "d": 416.6666666666715,
      "v": 127
    },
    {
      "midi": 73,
      "hit": false,
      "t": 77474.99999999987,
      "d": 212.5,
      "v": 127
    },
    {
      "midi": 74,
      "hit": false,
      "t": 77612.49999999987,
      "d": 195.83333333332848,
      "v": 108
    },
    {
      "midi": 67,
      "hit": false,
      "t": 77745.8333333332,
      "d": 95.83333333332848,
      "v": 126
    },
    {
      "midi": 78,
      "hit": false,
      "t": 77770.8333333332,
      "d": 1108.3333333333285,
      "v": 127
    },
    {
      "midi": 57,
      "hit": false,
      "t": 78020.8333333332,
      "d": 358.3333333333285,
      "v": 126
    },
    {
      "midi": 73,
      "hit": false,
      "t": 78287.49999999987,
      "d": 45.83333333332848,
      "v": 122
    },
    {
      "midi": 69,
      "hit": false,
      "t": 78295.8333333332,
      "d": 50,
      "v": 108
    },
    {
      "midi": 69,
      "hit": false,
      "t": 78766.66666666653,
      "d": 54.16666666667152,
      "v": 103
    },
    {
      "midi": 73,
      "hit": false,
      "t": 78766.66666666653,
      "d": 54.16666666667152,
      "v": 127
    },
    {
      "midi": 55,
      "hit": false,
      "t": 79012.49999999985,
      "d": 554.166666666657,
      "v": 127
    },
    {
      "midi": 76,
      "hit": false,
      "t": 79245.83333333318,
      "d": 308.3333333333285,
      "v": 127
    },
    {
      "midi": 81,
      "hit": false,
      "t": 79495.83333333318,
      "d": 1283.3333333333285,
      "v": 127
    },
    {
      "midi": 78,
      "hit": false,
      "t": 79729.16666666651,
      "d": 462.5,
      "v": 127
    },
    {
      "midi": 55,
      "hit": false,
      "t": 79749.99999999984,
      "d": 75,
      "v": 68
    },
    {
      "midi": 71,
      "hit": false,
      "t": 79987.49999999984,
      "d": 320.8333333333285,
      "v": 127
    },
    {
      "midi": 54,
      "hit": false,
      "t": 79991.66666666651,
      "d": 233.33333333332848,
      "v": 127
    },
    {
      "midi": 78,
      "hit": false,
      "t": 80258.33333333317,
      "d": 45.83333333332848,
      "v": 65
    },
    {
      "midi": 71,
      "hit": false,
      "t": 80483.33333333317,
      "d": 79.16666666667152,
      "v": 58
    },
    {
      "midi": 78,
      "hit": false,
      "t": 80487.49999999984,
      "d": 54.16666666667152,
      "v": 45
    },
    {
      "midi": 71,
      "hit": false,
      "t": 80724.99999999984,
      "d": 54.16666666667152,
      "v": 106
    },
    {
      "midi": 78,
      "hit": false,
      "t": 80729.16666666651,
      "d": 70.83333333332848,
      "v": 111
    },
    {
      "midi": 66,
      "hit": false,
      "t": 80758.33333333318,
      "d": 33.33333333332848,
      "v": 87
    },
    {
      "midi": 57,
      "hit": false,
      "t": 80979.16666666651,
      "d": 66.66666666665697,
      "v": 123
    },
    {
      "midi": 66,
      "hit": false,
      "t": 80987.49999999984,
      "d": 66.66666666665697,
      "v": 127
    },
    {
      "midi": 62,
      "hit": false,
      "t": 81962.49999999983,
      "d": 670.8333333333139,
      "v": 108
    },
    {
      "midi": 69,
      "hit": false,
      "t": 81970.83333333315,
      "d": 966.666666666657,
      "v": 113
    },
    {
      "midi": 78,
      "hit": false,
      "t": 82279.16666666648,
      "d": 333.3333333333285,
      "v": 127
    },
    {
      "midi": 79,
      "hit": false,
      "t": 82649.99999999981,
      "d": 370.8333333333285,
      "v": 113
    },
    {
      "midi": 62,
      "hit": false,
      "t": 82745.83333333314,
      "d": 79.16666666667152,
      "v": 103
    },
    {
      "midi": 62,
      "hit": false,
      "t": 83008.33333333314,
      "d": 562.5,
      "v": 113
    },
    {
      "midi": 80,
      "hit": false,
      "t": 83016.66666666647,
      "d": 266.6666666666715,
      "v": 127
    },
    {
      "midi": 63,
      "hit": false,
      "t": 83029.16666666647,
      "d": 62.5,
      "v": 61
    },
    {
      "midi": 69,
      "hit": false,
      "t": 83241.66666666647,
      "d": 441.6666666666715,
      "v": 96
    },
    {
      "midi": 81,
      "hit": false,
      "t": 83333.33333333314,
      "d": 179.16666666667152,
      "v": 127
    },
    {
      "midi": 82,
      "hit": false,
      "t": 83474.99999999981,
      "d": 150,
      "v": 127
    },
    {
      "midi": 83,
      "hit": false,
      "t": 83599.99999999981,
      "d": 1175.0000000000146,
      "v": 106
    },
    {
      "midi": 63,
      "hit": false,
      "t": 83674.99999999981,
      "d": 208.33333333332848,
      "v": 119
    },
    {
      "midi": 71,
      "hit": false,
      "t": 83979.16666666647,
      "d": 325.00000000001455,
      "v": 111
    },
    {
      "midi": 64,
      "hit": false,
      "t": 83983.33333333314,
      "d": 279.1666666666715,
      "v": 126
    },
    {
      "midi": 76,
      "hit": false,
      "t": 84233.33333333314,
      "d": 58.333333333343035,
      "v": 127
    },
    {
      "midi": 76,
      "hit": false,
      "t": 84529.16666666648,
      "d": 58.33333333332848,
      "v": 51
    },
    {
      "midi": 71,
      "hit": false,
      "t": 84716.66666666648,
      "d": 83.33333333334303,
      "v": 103
    },
    {
      "midi": 76,
      "hit": false,
      "t": 84724.99999999981,
      "d": 45.833333333343035,
      "v": 120
    },
    {
      "midi": 79,
      "hit": false,
      "t": 84724.99999999981,
      "d": 58.333333333343035,
      "v": 123
    },
    {
      "midi": 64,
      "hit": false,
      "t": 84754.16666666648,
      "d": 33.333333333343035,
      "v": 58
    },
    {
      "midi": 59,
      "hit": false,
      "t": 84974.99999999983,
      "d": 545.8333333333285,
      "v": 127
    },
    {
      "midi": 67,
      "hit": false,
      "t": 84983.33333333315,
      "d": 516.6666666666715,
      "v": 100
    },
    {
      "midi": 63,
      "hit": false,
      "t": 85004.16666666648,
      "d": 12.5,
      "v": 54
    },
    {
      "midi": 83,
      "hit": false,
      "t": 85233.33333333315,
      "d": 337.5,
      "v": 127
    },
    {
      "midi": 85,
      "hit": false,
      "t": 85483.33333333315,
      "d": 312.5,
      "v": 127
    },
    {
      "midi": 59,
      "hit": false,
      "t": 85704.16666666648,
      "d": 91.66666666667152,
      "v": 111
    },
    {
      "midi": 86,
      "hit": false,
      "t": 85704.16666666648,
      "d": 166.66666666667152,
      "v": 113
    },
    {
      "midi": 90,
      "hit": false,
      "t": 85958.33333333315,
      "d": 820.833333333343,
      "v": 119
    },
    {
      "midi": 57,
      "hit": false,
      "t": 85966.66666666648,
      "d": 312.5,
      "v": 117
    },
    {
      "midi": 67,
      "hit": false,
      "t": 85987.49999999981,
      "d": 362.50000000001455,
      "v": 98
    },
    {
      "midi": 79,
      "hit": false,
      "t": 86279.16666666648,
      "d": 41.66666666667152,
      "v": 47
    },
    {
      "midi": 81,
      "hit": false,
      "t": 86283.33333333315,
      "d": 37.5,
      "v": 44
    },
    {
      "midi": 73,
      "hit": false,
      "t": 86724.99999999983,
      "d": 83.33333333334303,
      "v": 125
    },
    {
      "midi": 79,
      "hit": false,
      "t": 86733.33333333315,
      "d": 41.66666666667152,
      "v": 66
    },
    {
      "midi": 81,
      "hit": false,
      "t": 86737.49999999983,
      "d": 33.33333333332848,
      "v": 55
    },
    {
      "midi": 85,
      "hit": false,
      "t": 86737.49999999983,
      "d": 58.333333333343035,
      "v": 78
    },
    {
      "midi": 64,
      "hit": false,
      "t": 86979.1666666665,
      "d": 595.8333333333285,
      "v": 117
    },
    {
      "midi": 73,
      "hit": false,
      "t": 86987.49999999983,
      "d": 762.5000000000146,
      "v": 115
    },
    {
      "midi": 88,
      "hit": false,
      "t": 87237.49999999983,
      "d": 283.3333333333285,
      "v": 127
    },
    {
      "midi": 93,
      "hit": false,
      "t": 87495.83333333315,
      "d": 270.8333333333576,
      "v": 127
    },
    {
      "midi": 64,
      "hit": false,
      "t": 87704.1666666665,
      "d": 91.66666666668607,
      "v": 117
    },
    {
      "midi": 90,
      "hit": false,
      "t": 87733.33333333317,
      "d": 358.33333333334303,
      "v": 127
    },
    {
      "midi": 62,
      "hit": false,
      "t": 87979.16666666651,
      "d": 241.66666666667152,
      "v": 106
    },
    {
      "midi": 83,
      "hit": false,
      "t": 87983.33333333318,
      "d": 837.5000000000146,
      "v": 123
    },
    {
      "midi": 66,
      "hit": false,
      "t": 88220.83333333318,
      "d": 70.83333333334303,
      "v": 100
    },
    {
      "midi": 71,
      "hit": false,
      "t": 88224.99999999985,
      "d": 66.66666666667152,
      "v": 93
    },
    {
      "midi": 71,
      "hit": false,
      "t": 88716.66666666653,
      "d": 87.5,
      "v": 127
    },
    {
      "midi": 66,
      "hit": false,
      "t": 88729.16666666653,
      "d": 58.33333333332848,
      "v": 127
    },
    {
      "midi": 62,
      "hit": false,
      "t": 88958.3333333332,
      "d": 41.666666666656965,
      "v": 126
    },
    {
      "midi": 66,
      "hit": false,
      "t": 88966.66666666653,
      "d": 33.33333333332848,
      "v": 127
    },
    {
      "midi": 79,
      "hit": false,
      "t": 89220.83333333318,
      "d": 308.3333333333285,
      "v": 123
    },
    {
      "midi": 78,
      "hit": false,
      "t": 89466.66666666651,
      "d": 275,
      "v": 127
    },
    {
      "midi": 76,
      "hit": false,
      "t": 89704.16666666651,
      "d": 220.83333333332848,
      "v": 127
    },
    {
      "midi": 75,
      "hit": false,
      "t": 89945.83333333317,
      "d": 329.16666666668607,
      "v": 127
    },
    {
      "midi": 59,
      "hit": false,
      "t": 89949.99999999984,
      "d": 66.66666666667152,
      "v": 123
    },
    {
      "midi": 66,
      "hit": false,
      "t": 89954.16666666651,
      "d": 62.5,
      "v": 119
    },
    {
      "midi": 72,
      "hit": false,
      "t": 90220.83333333318,
      "d": 225.00000000001455,
      "v": 127
    },
    {
      "midi": 69,
      "hit": false,
      "t": 90441.66666666653,
      "d": 308.33333333334303,
      "v": 126
    },
    {
      "midi": 66,
      "hit": false,
      "t": 90724.99999999987,
      "d": 316.66666666665697,
      "v": 127
    },
    {
      "midi": 63,
      "hit": false,
      "t": 90995.8333333332,
      "d": 454.16666666665697,
      "v": 127
    },
    {
      "midi": 60,
      "hit": false,
      "t": 91212.49999999985,
      "d": 283.3333333333285,
      "v": 127
    },
    {
      "midi": 59,
      "hit": false,
      "t": 91487.49999999985,
      "d": 233.33333333332848,
      "v": 123
    },
    {
      "midi": 57,
      "hit": false,
      "t": 91683.33333333318,
      "d": 237.5,
      "v": 126
    },
    {
      "midi": 55,
      "hit": false,
      "t": 91979.16666666651,
      "d": 479.1666666666715,
      "v": 127
    },
    {
      "midi": 64,
      "hit": false,
      "t": 92224.99999999984,
      "d": 462.5,
      "v": 96
    },
    {
      "midi": 71,
      "hit": false,
      "t": 92441.66666666651,
      "d": 287.5,
      "v": 85
    },
    {
      "midi": 76,
      "hit": false,
      "t": 92679.16666666651,
      "d": 87.5,
      "v": 123
    },
    {
      "midi": 58,
      "hit": false,
      "t": 92954.16666666651,
      "d": 470.83333333334303,
      "v": 127
    },
    {
      "midi": 67,
      "hit": false,
      "t": 92966.66666666651,
      "d": 750.0000000000146,
      "v": 127
    },
    {
      "midi": 74,
      "hit": false,
      "t": 93220.83333333318,
      "d": 308.33333333334303,
      "v": 70
    },
    {
      "midi": 79,
      "hit": false,
      "t": 93429.16666666653,
      "d": 320.8333333333285,
      "v": 106
    },
    {
      "midi": 74,
      "hit": false,
      "t": 93687.49999999985,
      "d": 79.16666666667152,
      "v": 98
    },
    {
      "midi": 61,
      "hit": false,
      "t": 93699.99999999985,
      "d": 150,
      "v": 127
    },
    {
      "midi": 74,
      "hit": false,
      "t": 93966.66666666653,
      "d": 658.3333333333285,
      "v": 117
    },
    {
      "midi": 62,
      "hit": false,
      "t": 93979.16666666653,
      "d": 479.16666666665697,
      "v": 127
    },
    {
      "midi": 78,
      "hit": false,
      "t": 94249.99999999985,
      "d": 345.8333333333285,
      "v": 100
    },
    {
      "midi": 81,
      "hit": false,
      "t": 94491.66666666651,
      "d": 216.66666666667152,
      "v": 86
    },
    {
      "midi": 74,
      "hit": false,
      "t": 94737.49999999985,
      "d": 91.66666666667152,
      "v": 93
    },
    {
      "midi": 74,
      "hit": false,
      "t": 94962.49999999985,
      "d": 75.00000000001455,
      "v": 70
    },
    {
      "midi": 64,
      "hit": false,
      "t": 94966.66666666653,
      "d": 79.16666666667152,
      "v": 120
    },
    {
      "midi": 68,
      "hit": false,
      "t": 94970.8333333332,
      "d": 87.5,
      "v": 119
    },
    {
      "midi": 76,
      "hit": false,
      "t": 94974.99999999987,
      "d": 70.83333333332848,
      "v": 117
    },
    {
      "midi": 83,
      "hit": false,
      "t": 95004.16666666654,
      "d": 62.49999999998545,
      "v": 127
    },
    {
      "midi": 85,
      "hit": false,
      "t": 95499.99999999985,
      "d": 95.83333333335759,
      "v": 119
    },
    {
      "midi": 79,
      "hit": false,
      "t": 95504.16666666653,
      "d": 75.00000000001455,
      "v": 120
    },
    {
      "midi": 73,
      "hit": false,
      "t": 95508.3333333332,
      "d": 29.166666666671517,
      "v": 125
    },
    {
      "midi": 81,
      "hit": false,
      "t": 95512.49999999987,
      "d": 50,
      "v": 108
    },
    {
      "midi": 69,
      "hit": false,
      "t": 95516.66666666654,
      "d": 241.66666666667152,
      "v": 120
    },
    {
      "midi": 62,
      "hit": false,
      "t": 95954.16666666654,
      "d": 54.16666666667152,
      "v": 103
    },
    {
      "midi": 86,
      "hit": false,
      "t": 95991.66666666654,
      "d": 54.16666666667152,
      "v": 120
    },
    {
      "midi": 74,
      "hit": false,
      "t": 95991.66666666654,
      "d": 75,
      "v": 77
    },
    {
      "midi": 56,
      "hit": false,
      "t": 96283.33333333321,
      "d": 212.50000000001455,
      "v": 119
    },
    {
      "midi": 68,
      "hit": false,
      "t": 96299.99999999988,
      "d": 179.16666666667152,
      "v": 119
    },
    {
      "midi": 59,
      "hit": false,
      "t": 96512.4999999999,
      "d": 233.33333333334303,
      "v": 113
    },
    {
      "midi": 71,
      "hit": false,
      "t": 96529.16666666657,
      "d": 212.5,
      "v": 123
    },
    {
      "midi": 69,
      "hit": false,
      "t": 96704.16666666657,
      "d": 237.5,
      "v": 127
    },
    {
      "midi": 57,
      "hit": false,
      "t": 96754.16666666657,
      "d": 304.1666666666715,
      "v": 120
    },
    {
      "midi": 50,
      "hit": false,
      "t": 97033.33333333324,
      "d": 1045.8333333333285,
      "v": 120
    },
    {
      "midi": 62,
      "hit": false,
      "t": 97037.49999999991,
      "d": 1962.5000000000146,
      "v": 126
    },
    {
      "midi": 55,
      "hit": false,
      "t": 98266.66666666657,
      "d": 537.5000000000146,
      "v": 127
    },
    {
      "midi": 71,
      "hit": false,
      "t": 98308.33333333324,
      "d": 208.33333333334303,
      "v": 78
    },
    {
      "midi": 69,
      "hit": false,
      "t": 98312.49999999991,
      "d": 16.666666666671517,
      "v": 68
    },
    {
      "midi": 71,
      "hit": false,
      "t": 98654.16666666658,
      "d": 650.0000000000146,
      "v": 120
    },
    {
      "midi": 65,
      "hit": false,
      "t": 98966.66666666658,
      "d": 600.0000000000291,
      "v": 127
    },
    {
      "midi": 56,
      "hit": false,
      "t": 98983.33333333326,
      "d": 462.50000000001455,
      "v": 127
    },
    {
      "midi": 62,
      "hit": false,
      "t": 99345.83333333327,
      "d": 258.33333333334303,
      "v": 66
    },
    {
      "midi": 71,
      "hit": false,
      "t": 99366.6666666666,
      "d": 158.33333333334303,
      "v": 123
    },
    {
      "midi": 72,
      "hit": false,
      "t": 99641.66666666661,
      "d": 1333.333333333343,
      "v": 127
    },
    {
      "midi": 56,
      "hit": false,
      "t": 99729.16666666661,
      "d": 175,
      "v": 125
    },
    {
      "midi": 64,
      "hit": false,
      "t": 99762.49999999994,
      "d": 170.83333333334303,
      "v": 113
    },
    {
      "midi": 66,
      "hit": false,
      "t": 99866.66666666661,
      "d": 341.6666666666715,
      "v": 92
    },
    {
      "midi": 57,
      "hit": false,
      "t": 99974.99999999996,
      "d": 1025,
      "v": 127
    },
    {
      "midi": 66,
      "hit": false,
      "t": 100274.99999999996,
      "d": 300,
      "v": 127
    },
    {
      "midi": 62,
      "hit": false,
      "t": 100508.33333333328,
      "d": 295.83333333334303,
      "v": 85
    },
    {
      "midi": 66,
      "hit": false,
      "t": 100741.66666666663,
      "d": 170.83333333332848,
      "v": 107
    },
    {
      "midi": 50,
      "hit": false,
      "t": 101012.49999999996,
      "d": 420.8333333333285,
      "v": 127
    },
    {
      "midi": 72,
      "hit": false,
      "t": 101245.83333333328,
      "d": 775,
      "v": 127
    },
    {
      "midi": 76,
      "hit": false,
      "t": 101466.66666666661,
      "d": 266.6666666666715,
      "v": 126
    },
    {
      "midi": 77,
      "hit": false,
      "t": 101683.33333333328,
      "d": 304.1666666666715,
      "v": 127
    },
    {
      "midi": 78,
      "hit": false,
      "t": 101962.49999999996,
      "d": 604.1666666666715,
      "v": 125
    },
    {
      "midi": 57,
      "hit": false,
      "t": 101966.66666666663,
      "d": 391.66666666665697,
      "v": 106
    },
    {
      "midi": 66,
      "hit": false,
      "t": 101979.16666666663,
      "d": 420.8333333333285,
      "v": 119
    },
    {
      "midi": 72,
      "hit": false,
      "t": 102216.66666666661,
      "d": 341.66666666668607,
      "v": 96
    },
    {
      "midi": 74,
      "hit": false,
      "t": 102466.66666666663,
      "d": 237.5,
      "v": 96
    },
    {
      "midi": 78,
      "hit": false,
      "t": 102683.3333333333,
      "d": 129.16666666667152,
      "v": 127
    },
    {
      "midi": 72,
      "hit": false,
      "t": 102733.3333333333,
      "d": 66.66666666667152,
      "v": 67
    },
    {
      "midi": 74,
      "hit": false,
      "t": 102949.99999999997,
      "d": 287.5,
      "v": 98
    },
    {
      "midi": 62,
      "hit": false,
      "t": 102958.3333333333,
      "d": 420.8333333333285,
      "v": 96
    },
    {
      "midi": 78,
      "hit": false,
      "t": 102962.49999999997,
      "d": 366.66666666665697,
      "v": 127
    },
    {
      "midi": 74,
      "hit": false,
      "t": 103270.8333333333,
      "d": 358.33333333331393,
      "v": 120
    },
    {
      "midi": 79,
      "hit": false,
      "t": 103399.99999999996,
      "d": 174.99999999998545,
      "v": 117
    },
    {
      "midi": 80,
      "hit": false,
      "t": 103533.33333333328,
      "d": 120.83333333332848,
      "v": 127
    },
    {
      "midi": 64,
      "hit": false,
      "t": 103541.66666666661,
      "d": 208.33333333332848,
      "v": 98
    },
    {
      "midi": 81,
      "hit": false,
      "t": 103662.49999999994,
      "d": 150,
      "v": 117
    },
    {
      "midi": 66,
      "hit": false,
      "t": 103749.99999999994,
      "d": 108.33333333332848,
      "v": 107
    },
    {
      "midi": 74,
      "hit": false,
      "t": 103758.33333333327,
      "d": 125,
      "v": 91
    },
    {
      "midi": 82,
      "hit": false,
      "t": 103762.49999999994,
      "d": 108.33333333332848,
      "v": 127
    },
    {
      "midi": 83,
      "hit": false,
      "t": 103870.83333333327,
      "d": 1004.1666666666861,
      "v": 127
    },
    {
      "midi": 67,
      "hit": false,
      "t": 103995.83333333327,
      "d": 458.3333333333285,
      "v": 126
    },
    {
      "midi": 74,
      "hit": false,
      "t": 104008.33333333327,
      "d": 204.16666666667152,
      "v": 98
    },
    {
      "midi": 74,
      "hit": false,
      "t": 104295.83333333327,
      "d": 108.33333333332848,
      "v": 108
    },
    {
      "midi": 79,
      "hit": false,
      "t": 104304.1666666666,
      "d": 150,
      "v": 98
    },
    {
      "midi": 79,
      "hit": false,
      "t": 104579.1666666666,
      "d": 91.66666666667152,
      "v": 24
    },
    {
      "midi": 79,
      "hit": false,
      "t": 104774.99999999994,
      "d": 100.00000000001455,
      "v": 83
    },
    {
      "midi": 74,
      "hit": false,
      "t": 104791.66666666661,
      "d": 79.16666666667152,
      "v": 111
    },
    {
      "midi": 62,
      "hit": false,
      "t": 105008.33333333328,
      "d": 337.50000000001455,
      "v": 108
    },
    {
      "midi": 74,
      "hit": false,
      "t": 105020.83333333328,
      "d": 129.16666666667152,
      "v": 126
    },
    {
      "midi": 83,
      "hit": false,
      "t": 105254.16666666663,
      "d": 312.5,
      "v": 127
    },
    {
      "midi": 88,
      "hit": false,
      "t": 105495.8333333333,
      "d": 224.99999999998545,
      "v": 127
    },
    {
      "midi": 86,
      "hit": false,
      "t": 105712.49999999996,
      "d": 387.5,
      "v": 127
    },
    {
      "midi": 55,
      "hit": false,
      "t": 105999.99999999996,
      "d": 758.333333333343,
      "v": 127
    },
    {
      "midi": 83,
      "hit": false,
      "t": 106008.33333333328,
      "d": 270.83333333334303,
      "v": 127
    },
    {
      "midi": 79,
      "hit": false,
      "t": 106254.16666666663,
      "d": 125,
      "v": 127
    },
    {
      "midi": 76,
      "hit": false,
      "t": 106483.3333333333,
      "d": 329.1666666666715,
      "v": 93
    },
    {
      "midi": 74,
      "hit": false,
      "t": 106712.49999999997,
      "d": 312.5,
      "v": 127
    },
    {
      "midi": 71,
      "hit": false,
      "t": 106974.99999999997,
      "d": 108.33333333332848,
      "v": 113
    },
    {
      "midi": 55,
      "hit": false,
      "t": 107212.49999999997,
      "d": 500,
      "v": 83
    },
    {
      "midi": 66,
      "hit": false,
      "t": 107220.8333333333,
      "d": 229.16666666667152,
      "v": 127
    },
    {
      "midi": 65,
      "hit": false,
      "t": 107466.66666666664,
      "d": 45.83333333332848,
      "v": 123
    },
    {
      "midi": 67,
      "hit": false,
      "t": 107466.66666666664,
      "d": 262.5,
      "v": 117
    },
    {
      "midi": 68,
      "hit": false,
      "t": 107691.66666666664,
      "d": 287.5,
      "v": 127
    },
    {
      "midi": 56,
      "hit": false,
      "t": 107716.66666666664,
      "d": 137.5,
      "v": 127
    },
    {
      "midi": 69,
      "hit": false,
      "t": 107945.83333333331,
      "d": 783.3333333333285,
      "v": 120
    },
    {
      "midi": 57,
      "hit": false,
      "t": 107966.66666666664,
      "d": 658.3333333333285,
      "v": 127
    },
    {
      "midi": 66,
      "hit": false,
      "t": 108704.16666666664,
      "d": 404.1666666666715,
      "v": 127
    },
    {
      "midi": 50,
      "hit": false,
      "t": 108970.83333333331,
      "d": 725,
      "v": 127
    },
    {
      "midi": 66,
      "hit": false,
      "t": 109212.49999999999,
      "d": 225,
      "v": 127
    },
    {
      "midi": 74,
      "hit": false,
      "t": 109449.99999999999,
      "d": 225,
      "v": 106
    },
    {
      "midi": 73,
      "hit": false,
      "t": 109704.16666666664,
      "d": 220.83333333332848,
      "v": 127
    },
    {
      "midi": 52,
      "hit": false,
      "t": 109974.99999999997,
      "d": 691.6666666666715,
      "v": 127
    },
    {
      "midi": 71,
      "hit": false,
      "t": 109983.3333333333,
      "d": 1016.6666666666715,
      "v": 127
    },
    {
      "midi": 64,
      "hit": false,
      "t": 110262.49999999997,
      "d": 700,
      "v": 103
    },
    {
      "midi": 56,
      "hit": false,
      "t": 110762.49999999997,
      "d": 125,
      "v": 122
    },
    {
      "midi": 57,
      "hit": false,
      "t": 110999.99999999997,
      "d": 420.83333333334303,
      "v": 123
    },
    {
      "midi": 67,
      "hit": false,
      "t": 111004.16666666664,
      "d": 508.3333333333285,
      "v": 127
    },
    {
      "midi": 73,
      "hit": false,
      "t": 111258.33333333331,
      "d": 558.3333333333285,
      "v": 122
    },
    {
      "midi": 69,
      "hit": false,
      "t": 111491.66666666664,
      "d": 266.6666666666715,
      "v": 106
    },
    {
      "midi": 61,
      "hit": false,
      "t": 111704.16666666664,
      "d": 54.16666666667152,
      "v": 125
    },
    {
      "midi": 67,
      "hit": false,
      "t": 111708.33333333331,
      "d": 83.33333333332848,
      "v": 98
    },
    {
      "midi": 62,
      "hit": false,
      "t": 111979.16666666664,
      "d": 337.50000000001455,
      "v": 106
    },
    {
      "midi": 72,
      "hit": false,
      "t": 112233.33333333331,
      "d": 1337.5,
      "v": 127
    },
    {
      "midi": 76,
      "hit": false,
      "t": 112237.49999999999,
      "d": 416.6666666666715,
      "v": 127
    },
    {
      "midi": 77,
      "hit": false,
      "t": 112466.66666666666,
      "d": 204.16666666667152,
      "v": 127
    },
    {
      "midi": 78,
      "hit": false,
      "t": 112700,
      "d": 295.8333333333285,
      "v": 127
    },
    {
      "midi": 65,
      "hit": false,
      "t": 112708.33333333333,
      "d": 229.16666666667152,
      "v": 120
    },
    {
      "midi": 66,
      "hit": false,
      "t": 112970.83333333333,
      "d": 749.9999999999854,
      "v": 127
    },
    {
      "midi": 74,
      "hit": false,
      "t": 112995.83333333333,
      "d": 391.66666666665697,
      "v": 73
    },
    {
      "midi": 81,
      "hit": false,
      "t": 113241.66666666666,
      "d": 404.16666666665697,
      "v": 127
    },
    {
      "midi": 74,
      "hit": false,
      "t": 113499.99999999999,
      "d": 137.5,
      "v": 91
    },
    {
      "midi": 62,
      "hit": false,
      "t": 113695.83333333331,
      "d": 183.33333333334303,
      "v": 120
    },
    {
      "midi": 83,
      "hit": false,
      "t": 113762.49999999999,
      "d": 812.5,
      "v": 127
    },
    {
      "midi": 67,
      "hit": false,
      "t": 113962.49999999999,
      "d": 612.5,
      "v": 127
    },
    {
      "midi": 74,
      "hit": false,
      "t": 114291.66666666666,
      "d": 345.8333333333285,
      "v": 111
    },
    {
      "midi": 79,
      "hit": false,
      "t": 114512.49999999999,
      "d": 245.83333333332848,
      "v": 100
    },
    {
      "midi": 83,
      "hit": false,
      "t": 114645.83333333331,
      "d": 870.833333333343,
      "v": 127
    },
    {
      "midi": 67,
      "hit": false,
      "t": 114758.33333333331,
      "d": 66.66666666667152,
      "v": 126
    },
    {
      "midi": 74,
      "hit": false,
      "t": 114808.33333333331,
      "d": 216.66666666667152,
      "v": 98
    },
    {
      "midi": 77,
      "hit": false,
      "t": 114987.49999999999,
      "d": 366.6666666666715,
      "v": 127
    },
    {
      "midi": 56,
      "hit": false,
      "t": 115008.33333333331,
      "d": 479.1666666666715,
      "v": 127
    },
    {
      "midi": 68,
      "hit": false,
      "t": 115262.49999999999,
      "d": 325,
      "v": 127
    },
    {
      "midi": 74,
      "hit": false,
      "t": 115366.66666666666,
      "d": 350,
      "v": 108
    },
    {
      "midi": 77,
      "hit": false,
      "t": 115487.49999999999,
      "d": 79.16666666667152,
      "v": 126
    },
    {
      "midi": 56,
      "hit": false,
      "t": 115654.16666666666,
      "d": 137.5,
      "v": 127
    },
    {
      "midi": 78,
      "hit": false,
      "t": 115670.83333333333,
      "d": 704.166666666657,
      "v": 127
    },
    {
      "midi": 57,
      "hit": false,
      "t": 115987.49999999999,
      "d": 445.8333333333285,
      "v": 127
    },
    {
      "midi": 84,
      "hit": false,
      "t": 116295.83333333331,
      "d": 533.333333333343,
      "v": 127
    },
    {
      "midi": 78,
      "hit": false,
      "t": 116574.99999999999,
      "d": 237.5,
      "v": 71
    },
    {
      "midi": 76,
      "hit": false,
      "t": 116770.83333333331,
      "d": 45.833333333343035,
      "v": 100
    },
    {
      "midi": 72,
      "hit": false,
      "t": 116770.83333333331,
      "d": 79.16666666667152,
      "v": 126
    },
    {
      "midi": 72,
      "hit": false,
      "t": 117037.49999999999,
      "d": 750.0000000000146,
      "v": 113
    },
    {
      "midi": 62,
      "hit": false,
      "t": 117041.66666666666,
      "d": 504.1666666666715,
      "v": 113
    },
    {
      "midi": 84,
      "hit": false,
      "t": 117258.33333333333,
      "d": 641.6666666666715,
      "v": 127
    },
    {
      "midi": 76,
      "hit": false,
      "t": 117262.5,
      "d": 125,
      "v": 127
    },
    {
      "midi": 77,
      "hit": false,
      "t": 117500,
      "d": 195.83333333332848,
      "v": 127
    },
    {
      "midi": 62,
      "hit": false,
      "t": 117725,
      "d": 95.83333333332848,
      "v": 113
    },
    {
      "midi": 78,
      "hit": false,
      "t": 117733.33333333333,
      "d": 233.33333333334303,
      "v": 127
    },
    {
      "midi": 66,
      "hit": false,
      "t": 117991.66666666667,
      "d": 491.66666666668607,
      "v": 119
    },
    {
      "midi": 84,
      "hit": false,
      "t": 117995.83333333334,
      "d": 187.5,
      "v": 126
    },
    {
      "midi": 81,
      "hit": false,
      "t": 118000.00000000001,
      "d": 187.5,
      "v": 127
    },
    {
      "midi": 74,
      "hit": false,
      "t": 118000.00000000001,
      "d": 525.0000000000146,
      "v": 126
    },
    {
      "midi": 84,
      "hit": false,
      "t": 118275.00000000001,
      "d": 120.83333333334303,
      "v": 108
    },
    {
      "midi": 81,
      "hit": false,
      "t": 118279.16666666669,
      "d": 116.66666666667152,
      "v": 111
    },
    {
      "midi": 84,
      "hit": false,
      "t": 118525.00000000003,
      "d": 58.33333333332848,
      "v": 103
    },
    {
      "midi": 81,
      "hit": false,
      "t": 118529.1666666667,
      "d": 33.33333333332848,
      "v": 106
    },
    {
      "midi": 84,
      "hit": false,
      "t": 118754.16666666669,
      "d": 112.5,
      "v": 127
    },
    {
      "midi": 84,
      "hit": false,
      "t": 119000.00000000001,
      "d": 504.1666666666715,
      "v": 120
    },
    {
      "midi": 66,
      "hit": false,
      "t": 119004.16666666669,
      "d": 583.333333333343,
      "v": 127
    },
    {
      "midi": 74,
      "hit": false,
      "t": 119016.66666666669,
      "d": 641.6666666666715,
      "v": 113
    },
    {
      "midi": 83,
      "hit": false,
      "t": 119508.33333333336,
      "d": 245.83333333334303,
      "v": 127
    },
    {
      "midi": 66,
      "hit": false,
      "t": 119708.33333333336,
      "d": 120.83333333334303,
      "v": 65
    },
    {
      "midi": 74,
      "hit": false,
      "t": 119712.50000000003,
      "d": 162.5,
      "v": 63
    },
    {
      "midi": 86,
      "hit": false,
      "t": 119725.00000000003,
      "d": 1141.6666666666715,
      "v": 65
    },
    {
      "midi": 67,
      "hit": false,
      "t": 120000.00000000003,
      "d": 370.8333333333285,
      "v": 117
    },
    {
      "midi": 74,
      "hit": false,
      "t": 120012.50000000003,
      "d": 254.16666666665697,
      "v": 98
    },
    {
      "midi": 79,
      "hit": false,
      "t": 120258.33333333336,
      "d": 329.1666666666715,
      "v": 83
    },
    {
      "midi": 79,
      "hit": false,
      "t": 120737.50000000003,
      "d": 75,
      "v": 89
    },
    {
      "midi": 71,
      "hit": false,
      "t": 120737.50000000003,
      "d": 100,
      "v": 96
    },
    {
      "midi": 62,
      "hit": false,
      "t": 120987.50000000003,
      "d": 504.1666666666715,
      "v": 91
    },
    {
      "midi": 71,
      "hit": false,
      "t": 121004.1666666667,
      "d": 533.3333333333285,
      "v": 103
    },
    {
      "midi": 83,
      "hit": false,
      "t": 121237.50000000003,
      "d": 137.5,
      "v": 113
    },
    {
      "midi": 82,
      "hit": false,
      "t": 121475.00000000003,
      "d": 216.66666666667152,
      "v": 127
    },
    {
      "midi": 62,
      "hit": false,
      "t": 121704.1666666667,
      "d": 75,
      "v": 100
    },
    {
      "midi": 81,
      "hit": false,
      "t": 121708.33333333337,
      "d": 200,
      "v": 127
    },
    {
      "midi": 71,
      "hit": false,
      "t": 121716.6666666667,
      "d": 91.66666666667152,
      "v": 98
    },
    {
      "midi": 80,
      "hit": false,
      "t": 121970.83333333337,
      "d": 916.6666666666715,
      "v": 104
    },
    {
      "midi": 64,
      "hit": false,
      "t": 121975.00000000004,
      "d": 483.3333333333285,
      "v": 127
    },
    {
      "midi": 68,
      "hit": false,
      "t": 122700.00000000004,
      "d": 154.16666666667152,
      "v": 111
    },
    {
      "midi": 64,
      "hit": false,
      "t": 122975.00000000004,
      "d": 220.83333333332848,
      "v": 120
    },
    {
      "midi": 76,
      "hit": false,
      "t": 123233.33333333337,
      "d": 287.5,
      "v": 127
    },
    {
      "midi": 75,
      "hit": false,
      "t": 123491.6666666667,
      "d": 245.83333333334303,
      "v": 127
    },
    {
      "midi": 74,
      "hit": false,
      "t": 123720.83333333337,
      "d": 208.33333333334303,
      "v": 126
    },
    {
      "midi": 57,
      "hit": false,
      "t": 123970.83333333339,
      "d": 537.5,
      "v": 123
    },
    {
      "midi": 72,
      "hit": false,
      "t": 123979.16666666672,
      "d": 1029.1666666666715,
      "v": 127
    },
    {
      "midi": 57,
      "hit": false,
      "t": 124754.16666666672,
      "d": 95.83333333332848,
      "v": 108
    },
    {
      "midi": 75,
      "hit": false,
      "t": 124991.66666666672,
      "d": 991.6666666666715,
      "v": 127
    },
    {
      "midi": 60,
      "hit": false,
      "t": 124995.83333333339,
      "d": 575,
      "v": 120
    },
    {
      "midi": 61,
      "hit": false,
      "t": 125745.83333333339,
      "d": 216.66666666667152,
      "v": 125
    },
    {
      "midi": 74,
      "hit": false,
      "t": 125991.66666666672,
      "d": 825,
      "v": 120
    },
    {
      "midi": 62,
      "hit": false,
      "t": 126000.00000000004,
      "d": 1004.1666666666715,
      "v": 126
    },
    {
      "midi": 79,
      "hit": false,
      "t": 126237.50000000004,
      "d": 545.833333333343,
      "v": 117
    },
    {
      "midi": 83,
      "hit": false,
      "t": 126495.83333333337,
      "d": 258.33333333334303,
      "v": 120
    },
    {
      "midi": 86,
      "hit": false,
      "t": 126700.00000000004,
      "d": 66.66666666667152,
      "v": 111
    },
    {
      "midi": 57,
      "hit": false,
      "t": 127000.00000000004,
      "d": 116.66666666667152,
      "v": 120
    },
    {
      "midi": 75,
      "hit": false,
      "t": 127004.16666666672,
      "d": 16.666666666671517,
      "v": 115
    },
    {
      "midi": 76,
      "hit": false,
      "t": 127016.66666666672,
      "d": 91.66666666667152,
      "v": 127
    },
    {
      "midi": 78,
      "hit": false,
      "t": 127491.66666666672,
      "d": 525,
      "v": 127
    },
    {
      "midi": 62,
      "hit": false,
      "t": 127500.00000000004,
      "d": 516.6666666666715,
      "v": 106
    },
    {
      "midi": 55,
      "hit": false,
      "t": 127979.16666666672,
      "d": 87.5,
      "v": 127
    },
    {
      "midi": 79,
      "hit": false,
      "t": 127983.33333333339,
      "d": 100,
      "v": 127
    },
    {
      "midi": 62,
      "hit": false,
      "t": 130033.33333333339,
      "d": 608.3333333333285,
      "v": 85
    },
    {
      "midi": 78,
      "hit": false,
      "t": 130041.66666666672,
      "d": 1745.833333333343,
      "v": 111
    },
    {
      "midi": 69,
      "hit": false,
      "t": 130041.66666666672,
      "d": 1787.5,
      "v": 77
    },
    {
      "midi": 62,
      "hit": false,
      "t": 130858.33333333339,
      "d": 83.33333333332848,
      "v": 69
    },
    {
      "midi": 62,
      "hit": false,
      "t": 131037.50000000004,
      "d": 575.0000000000146,
      "v": 60
    },
    {
      "midi": 62,
      "hit": false,
      "t": 131762.50000000006,
      "d": 75,
      "v": 60
    },
    {
      "midi": 64,
      "hit": false,
      "t": 131991.66666666672,
      "d": 329.16666666665697,
      "v": 108
    },
    {
      "midi": 67,
      "hit": false,
      "t": 131995.83333333337,
      "d": 295.83333333334303,
      "v": 100
    },
    {
      "midi": 71,
      "hit": false,
      "t": 132241.66666666672,
      "d": 254.16666666665697,
      "v": 117
    },
    {
      "midi": 79,
      "hit": false,
      "t": 132500.00000000003,
      "d": 50,
      "v": 103
    },
    {
      "midi": 71,
      "hit": false,
      "t": 132741.6666666667,
      "d": 37.5,
      "v": 63
    },
    {
      "midi": 79,
      "hit": false,
      "t": 132745.83333333334,
      "d": 45.833333333343035,
      "v": 113
    },
    {
      "midi": 55,
      "hit": false,
      "t": 132995.83333333334,
      "d": 91.66666666665697,
      "v": 108
    },
    {
      "midi": 64,
      "hit": false,
      "t": 133008.33333333334,
      "d": 83.33333333331393,
      "v": 86
    },
    {
      "midi": 71,
      "hit": false,
      "t": 133237.5,
      "d": 445.83333333334303,
      "v": 127
    },
    {
      "midi": 59,
      "hit": false,
      "t": 133241.66666666666,
      "d": 254.16666666668607,
      "v": 127
    },
    {
      "midi": 73,
      "hit": false,
      "t": 133479.16666666666,
      "d": 266.66666666668607,
      "v": 127
    },
    {
      "midi": 61,
      "hit": false,
      "t": 133487.5,
      "d": 258.33333333334303,
      "v": 127
    },
    {
      "midi": 62,
      "hit": false,
      "t": 133708.33333333334,
      "d": 200,
      "v": 127
    },
    {
      "midi": 74,
      "hit": false,
      "t": 133712.5,
      "d": 291.66666666665697,
      "v": 113
    },
    {
      "midi": 66,
      "hit": false,
      "t": 133962.5,
      "d": 520.833333333343,
      "v": 127
    },
    {
      "midi": 78,
      "hit": false,
      "t": 133975,
      "d": 879.166666666657,
      "v": 125
    },
    {
      "midi": 69,
      "hit": false,
      "t": 134237.5,
      "d": 125,
      "v": 96
    },
    {
      "midi": 73,
      "hit": false,
      "t": 134241.66666666666,
      "d": 112.5,
      "v": 84
    },
    {
      "midi": 73,
      "hit": false,
      "t": 134470.83333333334,
      "d": 50,
      "v": 76
    },
    {
      "midi": 73,
      "hit": false,
      "t": 134745.83333333334,
      "d": 112.4999999999709,
      "v": 79
    },
    {
      "midi": 69,
      "hit": false,
      "t": 134750,
      "d": 124.9999999999709,
      "v": 80
    },
    {
      "midi": 64,
      "hit": false,
      "t": 134754.16666666666,
      "d": 154.16666666665697,
      "v": 106
    },
    {
      "midi": 57,
      "hit": false,
      "t": 134991.66666666666,
      "d": 79.16666666665697,
      "v": 127
    },
    {
      "midi": 76,
      "hit": false,
      "t": 135233.3333333333,
      "d": 312.5,
      "v": 127
    },
    {
      "midi": 64,
      "hit": false,
      "t": 135241.66666666666,
      "d": 237.5,
      "v": 127
    },
    {
      "midi": 81,
      "hit": false,
      "t": 135495.8333333333,
      "d": 483.33333333331393,
      "v": 127
    },
    {
      "midi": 69,
      "hit": false,
      "t": 135504.16666666666,
      "d": 237.4999999999709,
      "v": 127
    },
    {
      "midi": 66,
      "hit": false,
      "t": 135720.8333333333,
      "d": 270.8333333332848,
      "v": 84
    },
    {
      "midi": 78,
      "hit": false,
      "t": 135737.49999999997,
      "d": 262.4999999999709,
      "v": 127
    },
    {
      "midi": 71,
      "hit": false,
      "t": 135983.33333333328,
      "d": 370.83333333331393,
      "v": 126
    },
    {
      "midi": 59,
      "hit": false,
      "t": 135987.49999999994,
      "d": 266.66666666665697,
      "v": 127
    },
    {
      "midi": 81,
      "hit": false,
      "t": 136237.49999999994,
      "d": 33.33333333331393,
      "v": 98
    },
    {
      "midi": 78,
      "hit": false,
      "t": 136241.6666666666,
      "d": 16.666666666656965,
      "v": 53
    },
    {
      "midi": 78,
      "hit": false,
      "t": 136487.49999999994,
      "d": 45.833333333343035,
      "v": 79
    },
    {
      "midi": 71,
      "hit": false,
      "t": 136733.33333333328,
      "d": 58.33333333328483,
      "v": 113
    },
    {
      "midi": 74,
      "hit": false,
      "t": 136737.49999999994,
      "d": 41.66666666662786,
      "v": 123
    },
    {
      "midi": 78,
      "hit": false,
      "t": 136741.6666666666,
      "d": 20.83333333331393,
      "v": 87
    },
    {
      "midi": 81,
      "hit": false,
      "t": 136745.83333333326,
      "d": 20.83333333331393,
      "v": 91
    },
    {
      "midi": 57,
      "hit": false,
      "t": 136979.16666666657,
      "d": 70.83333333334303,
      "v": 127
    },
    {
      "midi": 69,
      "hit": false,
      "t": 137224.9999999999,
      "d": 512.5,
      "v": 127
    },
    {
      "midi": 66,
      "hit": false,
      "t": 137499.9999999999,
      "d": 262.5,
      "v": 127
    },
    {
      "midi": 62,
      "hit": false,
      "t": 137720.83333333326,
      "d": 245.83333333331393,
      "v": 91
    },
    {
      "midi": 50,
      "hit": false,
      "t": 137970.83333333323,
      "d": 575,
      "v": 106
    },
    {
      "midi": 57,
      "hit": false,
      "t": 137974.99999999988,
      "d": 525,
      "v": 127
    },
    {
      "midi": 62,
      "hit": false,
      "t": 138004.16666666654,
      "d": 125,
      "v": 30
    },
    {
      "midi": 69,
      "hit": false,
      "t": 138249.99999999988,
      "d": 570.8333333333721,
      "v": 127
    },
    {
      "midi": 66,
      "hit": false,
      "t": 138487.49999999988,
      "d": 325.0000000000291,
      "v": 119
    },
    {
      "midi": 62,
      "hit": false,
      "t": 138729.16666666657,
      "d": 141.66666666668607,
      "v": 113
    },
    {
      "midi": 49,
      "hit": false,
      "t": 138979.1666666666,
      "d": 150,
      "v": 127
    },
    {
      "midi": 61,
      "hit": false,
      "t": 138983.33333333326,
      "d": 333.33333333334303,
      "v": 127
    },
    {
      "midi": 69,
      "hit": false,
      "t": 139224.99999999994,
      "d": 187.5,
      "v": 120
    },
    {
      "midi": 66,
      "hit": false,
      "t": 139237.49999999994,
      "d": 212.5,
      "v": 76
    },
    {
      "midi": 60,
      "hit": false,
      "t": 139437.49999999994,
      "d": 312.4999999999709,
      "v": 117
    },
    {
      "midi": 53,
      "hit": false,
      "t": 139449.99999999994,
      "d": 225,
      "v": 117
    },
    {
      "midi": 66,
      "hit": false,
      "t": 139691.6666666666,
      "d": 41.666666666656965,
      "v": 115
    },
    {
      "midi": 69,
      "hit": false,
      "t": 139704.1666666666,
      "d": 29.166666666656965,
      "v": 61
    },
    {
      "midi": 59,
      "hit": false,
      "t": 139966.66666666657,
      "d": 254.16666666668607,
      "v": 127
    },
    {
      "midi": 52,
      "hit": false,
      "t": 139974.9999999999,
      "d": 362.5000000000291,
      "v": 117
    },
    {
      "midi": 64,
      "hit": false,
      "t": 140229.1666666666,
      "d": 541.666666666657,
      "v": 72
    },
    {
      "midi": 67,
      "hit": false,
      "t": 140504.1666666666,
      "d": 166.66666666665697,
      "v": 59
    },
    {
      "midi": 67,
      "hit": false,
      "t": 140754.1666666666,
      "d": 54.166666666656965,
      "v": 98
    },
    {
      "midi": 71,
      "hit": false,
      "t": 140754.1666666666,
      "d": 87.5,
      "v": 123
    },
    {
      "midi": 55,
      "hit": false,
      "t": 140999.99999999994,
      "d": 566.666666666657,
      "v": 113
    },
    {
      "midi": 64,
      "hit": false,
      "t": 141012.49999999994,
      "d": 716.666666666657,
      "v": 117
    },
    {
      "midi": 71,
      "hit": false,
      "t": 141254.1666666666,
      "d": 370.83333333334303,
      "v": 127
    },
    {
      "midi": 73,
      "hit": false,
      "t": 141483.33333333326,
      "d": 245.83333333334303,
      "v": 115
    },
    {
      "midi": 74,
      "hit": false,
      "t": 141712.49999999994,
      "d": 254.16666666662786,
      "v": 126
    },
    {
      "midi": 55,
      "hit": false,
      "t": 141716.6666666666,
      "d": 91.66666666665697,
      "v": 120
    },
    {
      "midi": 73,
      "hit": false,
      "t": 141962.4999999999,
      "d": 2037.5,
      "v": 127
    },
    {
      "midi": 57,
      "hit": false,
      "t": 141966.66666666657,
      "d": 854.1666666666861,
      "v": 120
    },
    {
      "midi": 67,
      "hit": false,
      "t": 142237.4999999999,
      "d": 133.33333333334303,
      "v": 71
    },
    {
      "midi": 67,
      "hit": false,
      "t": 142766.6666666666,
      "d": 70.83333333331393,
      "v": 111
    },
    {
      "midi": 64,
      "hit": false,
      "t": 143024.9999999999,
      "d": 808.333333333343,
      "v": 127
    },
    {
      "midi": 55,
      "hit": false,
      "t": 143033.33333333326,
      "d": 545.833333333343,
      "v": 127
    },
    {
      "midi": 55,
      "hit": false,
      "t": 143754.1666666666,
      "d": 129.16666666665697,
      "v": 73
    },
    {
      "midi": 54,
      "hit": false,
      "t": 144033.33333333326,
      "d": 91.66666666668607,
      "v": 127
    },
    {
      "midi": 62,
      "hit": false,
      "t": 144041.6666666666,
      "d": 95.83333333334303,
      "v": 108
    },
    {
      "midi": 69,
      "hit": false,
      "t": 144249.99999999994,
      "d": 279.16666666665697,
      "v": 127
    },
    {
      "midi": 71,
      "hit": false,
      "t": 144499.99999999994,
      "d": 266.66666666665697,
      "v": 127
    },
    {
      "midi": 73,
      "hit": false,
      "t": 144733.33333333326,
      "d": 233.33333333334303,
      "v": 127
    },
    {
      "midi": 57,
      "hit": false,
      "t": 144974.99999999994,
      "d": 354.16666666665697,
      "v": 123
    },
    {
      "midi": 74,
      "hit": false,
      "t": 144983.33333333328,
      "d": 258.33333333331393,
      "v": 123
    },
    {
      "midi": 75,
      "hit": false,
      "t": 145224.99999999994,
      "d": 141.66666666665697,
      "v": 127
    },
    {
      "midi": 69,
      "hit": false,
      "t": 145254.1666666666,
      "d": 416.66666666665697,
      "v": 126
    },
    {
      "midi": 76,
      "hit": false,
      "t": 145383.33333333326,
      "d": 212.5,
      "v": 127
    },
    {
      "midi": 77,
      "hit": false,
      "t": 145504.1666666666,
      "d": 183.33333333331393,
      "v": 127
    },
    {
      "midi": 59,
      "hit": false,
      "t": 145520.83333333326,
      "d": 233.33333333331393,
      "v": 117
    },
    {
      "midi": 78,
      "hit": false,
      "t": 145658.33333333326,
      "d": 1212.499999999971,
      "v": 127
    },
    {
      "midi": 61,
      "hit": false,
      "t": 145758.33333333323,
      "d": 108.33333333334303,
      "v": 122
    },
    {
      "midi": 69,
      "hit": false,
      "t": 145791.66666666657,
      "d": 120.83333333334303,
      "v": 66
    },
    {
      "midi": 62,
      "hit": false,
      "t": 146037.4999999999,
      "d": 750,
      "v": 111
    },
    {
      "midi": 69,
      "hit": false,
      "t": 146041.66666666657,
      "d": 633.333333333343,
      "v": 100
    },
    {
      "midi": 69,
      "hit": false,
      "t": 146787.4999999999,
      "d": 79.16666666665697,
      "v": 111
    },
    {
      "midi": 83,
      "hit": false,
      "t": 147008.33333333323,
      "d": 837.5000000000291,
      "v": 120
    },
    {
      "midi": 71,
      "hit": false,
      "t": 147012.49999999988,
      "d": 150,
      "v": 106
    },
    {
      "midi": 63,
      "hit": false,
      "t": 147020.83333333323,
      "d": 525,
      "v": 111
    },
    {
      "midi": 71,
      "hit": false,
      "t": 147262.49999999988,
      "d": 316.66666666668607,
      "v": 123
    },
    {
      "midi": 63,
      "hit": false,
      "t": 147724.9999999999,
      "d": 112.5,
      "v": 119
    },
    {
      "midi": 71,
      "hit": false,
      "t": 147745.83333333326,
      "d": 87.5,
      "v": 91
    },
    {
      "midi": 64,
      "hit": false,
      "t": 147966.6666666666,
      "d": 500,
      "v": 113
    },
    {
      "midi": 71,
      "hit": false,
      "t": 147974.99999999994,
      "d": 412.5,
      "v": 100
    },
    {
      "midi": 67,
      "hit": false,
      "t": 147974.99999999994,
      "d": 462.5,
      "v": 113
    },
    {
      "midi": 88,
      "hit": false,
      "t": 148224.99999999994,
      "d": 466.66666666665697,
      "v": 127
    },
    {
      "midi": 83,
      "hit": false,
      "t": 148483.33333333326,
      "d": 312.5000000000291,
      "v": 117
    },
    {
      "midi": 79,
      "hit": false,
      "t": 148712.49999999994,
      "d": 287.5,
      "v": 108
    },
    {
      "midi": 76,
      "hit": false,
      "t": 148987.49999999994,
      "d": 54.16666666668607,
      "v": 127
    },
    {
      "midi": 59,
      "hit": false,
      "t": 148995.83333333328,
      "d": 220.83333333334303,
      "v": 113
    },
    {
      "midi": 67,
      "hit": false,
      "t": 149008.33333333328,
      "d": 270.83333333334303,
      "v": 96
    },
    {
      "midi": 64,
      "hit": false,
      "t": 149795.83333333328,
      "d": 162.5,
      "v": 120
    },
    {
      "midi": 57,
      "hit": false,
      "t": 150008.33333333328,
      "d": 441.66666666665697,
      "v": 127
    },
    {
      "midi": 73,
      "hit": false,
      "t": 150245.83333333328,
      "d": 245.83333333334303,
      "v": 127
    },
    {
      "midi": 74,
      "hit": false,
      "t": 150483.33333333328,
      "d": 225,
      "v": 111
    },
    {
      "midi": 59,
      "hit": false,
      "t": 150504.16666666663,
      "d": 208.33333333331393,
      "v": 120
    },
    {
      "midi": 75,
      "hit": false,
      "t": 150712.49999999994,
      "d": 283.33333333331393,
      "v": 127
    },
    {
      "midi": 60,
      "hit": false,
      "t": 150724.99999999994,
      "d": 166.66666666665697,
      "v": 113
    },
    {
      "midi": 76,
      "hit": false,
      "t": 150979.1666666666,
      "d": 1037.500000000029,
      "v": 126
    },
    {
      "midi": 61,
      "hit": false,
      "t": 150999.9999999999,
      "d": 566.6666666666861,
      "v": 127
    },
    {
      "midi": 69,
      "hit": false,
      "t": 151245.83333333326,
      "d": 816.6666666667152,
      "v": 120
    },
    {
      "midi": 61,
      "hit": false,
      "t": 151749.99999999994,
      "d": 83.33333333334303,
      "v": 127
    },
    {
      "midi": 66,
      "hit": false,
      "t": 152016.66666666663,
      "d": 745.833333333343,
      "v": 127
    },
    {
      "midi": 74,
      "hit": false,
      "t": 152237.49999999997,
      "d": 1091.666666666657,
      "v": 126
    },
    {
      "midi": 86,
      "hit": false,
      "t": 152512.49999999997,
      "d": 275,
      "v": 113
    },
    {
      "midi": 85,
      "hit": false,
      "t": 152754.16666666663,
      "d": 279.16666666668607,
      "v": 119
    },
    {
      "midi": 69,
      "hit": false,
      "t": 152762.49999999997,
      "d": 583.3333333333139,
      "v": 98
    },
    {
      "midi": 62,
      "hit": false,
      "t": 153033.3333333333,
      "d": 358.33333333331393,
      "v": 103
    },
    {
      "midi": 86,
      "hit": false,
      "t": 153033.3333333333,
      "d": 854.166666666657,
      "v": 127
    },
    {
      "midi": 66,
      "hit": false,
      "t": 153287.49999999997,
      "d": 191.66666666665697,
      "v": 127
    },
    {
      "midi": 60,
      "hit": false,
      "t": 153737.49999999997,
      "d": 166.66666666665697,
      "v": 127
    },
    {
      "midi": 61,
      "hit": false,
      "t": 153758.3333333333,
      "d": 12.5,
      "v": 87
    },
    {
      "midi": 59,
      "hit": false,
      "t": 154008.33333333328,
      "d": 845.833333333343,
      "v": 127
    },
    {
      "midi": 87,
      "hit": false,
      "t": 154233.33333333328,
      "d": 687.5,
      "v": 127
    },
    {
      "midi": 84,
      "hit": false,
      "t": 154504.16666666663,
      "d": 420.83333333331393,
      "v": 126
    },
    {
      "midi": 81,
      "hit": false,
      "t": 154737.49999999997,
      "d": 241.66666666665697,
      "v": 93
    },
    {
      "midi": 59,
      "hit": false,
      "t": 154970.83333333328,
      "d": 275,
      "v": 127
    },
    {
      "midi": 78,
      "hit": false,
      "t": 155208.33333333328,
      "d": 325,
      "v": 127
    },
    {
      "midi": 63,
      "hit": false,
      "t": 155208.33333333328,
      "d": 358.33333333334303,
      "v": 127
    },
    {
      "midi": 75,
      "hit": false,
      "t": 155466.66666666663,
      "d": 245.83333333334303,
      "v": 122
    },
    {
      "midi": 66,
      "hit": false,
      "t": 155470.83333333328,
      "d": 275.0000000000291,
      "v": 127
    },
    {
      "midi": 69,
      "hit": false,
      "t": 155699.99999999997,
      "d": 145.83333333334303,
      "v": 86
    },
    {
      "midi": 72,
      "hit": false,
      "t": 155699.99999999997,
      "d": 191.66666666668607,
      "v": 120
    },
    {
      "midi": 67,
      "hit": false,
      "t": 155975,
      "d": 395.83333333334303,
      "v": 117
    },
    {
      "midi": 64,
      "hit": false,
      "t": 155975,
      "d": 450,
      "v": 111
    },
    {
      "midi": 71,
      "hit": false,
      "t": 156245.83333333334,
      "d": 541.666666666657,
      "v": 123
    },
    {
      "midi": 76,
      "hit": false,
      "t": 156475,
      "d": 283.33333333334303,
      "v": 78
    },
    {
      "midi": 79,
      "hit": false,
      "t": 156720.83333333334,
      "d": 62.5,
      "v": 108
    },
    {
      "midi": 58,
      "hit": false,
      "t": 156962.5,
      "d": 487.4999999999709,
      "v": 104
    },
    {
      "midi": 67,
      "hit": false,
      "t": 156966.66666666666,
      "d": 616.666666666657,
      "v": 108
    },
    {
      "midi": 70,
      "hit": false,
      "t": 157233.3333333333,
      "d": 225,
      "v": 78
    },
    {
      "midi": 74,
      "hit": false,
      "t": 157479.16666666666,
      "d": 220.83333333334303,
      "v": 103
    },
    {
      "midi": 79,
      "hit": false,
      "t": 157679.16666666666,
      "d": 50,
      "v": 83
    },
    {
      "midi": 81,
      "hit": false,
      "t": 157983.3333333333,
      "d": 491.66666666668607,
      "v": 111
    },
    {
      "midi": 62,
      "hit": false,
      "t": 157991.66666666666,
      "d": 541.6666666666861,
      "v": 91
    },
    {
      "midi": 69,
      "hit": false,
      "t": 158000,
      "d": 629.1666666666861,
      "v": 96
    },
    {
      "midi": 86,
      "hit": false,
      "t": 158241.66666666666,
      "d": 425.0000000000291,
      "v": 68
    },
    {
      "midi": 62,
      "hit": false,
      "t": 158691.6666666667,
      "d": 83.33333333331393,
      "v": 106
    },
    {
      "midi": 81,
      "hit": false,
      "t": 158704.1666666667,
      "d": 66.66666666665697,
      "v": 60
    },
    {
      "midi": 69,
      "hit": false,
      "t": 158708.33333333334,
      "d": 95.83333333331393,
      "v": 85
    },
    {
      "midi": 80,
      "hit": false,
      "t": 158970.8333333333,
      "d": 41.66666666668607,
      "v": 125
    },
    {
      "midi": 64,
      "hit": false,
      "t": 158970.8333333333,
      "d": 66.66666666668607,
      "v": 113
    },
    {
      "midi": 74,
      "hit": false,
      "t": 158991.66666666666,
      "d": 62.5,
      "v": 123
    },
    {
      "midi": 79,
      "hit": false,
      "t": 159483.3333333333,
      "d": 62.5,
      "v": 98
    },
    {
      "midi": 85,
      "hit": false,
      "t": 159487.49999999997,
      "d": 70.83333333334303,
      "v": 122
    },
    {
      "midi": 69,
      "hit": false,
      "t": 159495.8333333333,
      "d": 129.16666666665697,
      "v": 108
    },
    {
      "midi": 86,
      "hit": false,
      "t": 159974.99999999997,
      "d": 45.83333333331393,
      "v": 85
    },
    {
      "midi": 62,
      "hit": false,
      "t": 159979.16666666663,
      "d": 62.5,
      "v": 106
    },
    {
      "midi": 74,
      "hit": false,
      "t": 159983.33333333328,
      "d": 75,
      "v": 70
    },
    {
      "midi": 68,
      "hit": false,
      "t": 160245.83333333328,
      "d": 295.83333333334303,
      "v": 127
    },
    {
      "midi": 71,
      "hit": false,
      "t": 160504.16666666663,
      "d": 258.33333333331393,
      "v": 69
    },
    {
      "midi": 69,
      "hit": false,
      "t": 160745.83333333328,
      "d": 275,
      "v": 103
    },
    {
      "midi": 74,
      "hit": false,
      "t": 161041.66666666663,
      "d": 970.833333333343,
      "v": 100
    },
    {
      "midi": 50,
      "hit": false,
      "t": 161045.83333333328,
      "d": 1050.000000000029,
      "v": 53
    },
    {
      "midi": 62,
      "hit": false,
      "t": 161054.16666666663,
      "d": 1062.500000000029,
      "v": 78
    }
  ]
}