{
  "jsonPath": "Soundtracks/Video Game Music/Mega Man 2/mega-man-2-heatmansstage.json",
  "path": "Soundtracks\\Video Game Music\\Mega Man 2\\Mega_Man_2_HeatMansStage.mid",
  "name": "Mega_Man_2_HeatMansStage",
  "difficulty": "Advanced",
  "bpm": 140.00014000014,
  "notes": [
    {
      "midi": 50,
      "hit": false,
      "t": 0,
      "d": 102.67846875000001,
      "v": 110
    },
    {
      "midi": 26,
      "hit": false,
      "t": 0,
      "d": 316.96396875,
      "v": 110
    },
    {
      "midi": 50,
      "hit": false,
      "t": 107.14275,
      "d": 102.67846875000001,
      "v": 110
    },
    {
      "midi": 62,
      "hit": false,
      "t": 214.2855,
      "d": 209.82121875,
      "v": 110
    },
    {
      "midi": 26,
      "hit": false,
      "t": 321.42825,
      "d": 102.67846875000004,
      "v": 110
    },
    {
      "midi": 60,
      "hit": false,
      "t": 428.571,
      "d": 102.67846874999998,
      "v": 110
    },
    {
      "midi": 38,
      "hit": false,
      "t": 428.571,
      "d": 209.82121874999996,
      "v": 110
    },
    {
      "midi": 61,
      "hit": false,
      "t": 535.71375,
      "d": 209.82121874999996,
      "v": 110
    },
    {
      "midi": 26,
      "hit": false,
      "t": 642.8565,
      "d": 424.10671875000014,
      "v": 110
    },
    {
      "midi": 62,
      "hit": false,
      "t": 749.99925,
      "d": 209.82121874999996,
      "v": 110
    },
    {
      "midi": 57,
      "hit": false,
      "t": 964.2847499999999,
      "d": 209.82121874999996,
      "v": 110
    },
    {
      "midi": 26,
      "hit": false,
      "t": 1071.4275000000002,
      "d": 209.82121875000007,
      "v": 110
    },
    {
      "midi": 56,
      "hit": false,
      "t": 1178.57025,
      "d": 209.82121875000007,
      "v": 110
    },
    {
      "midi": 38,
      "hit": false,
      "t": 1285.7130000000004,
      "d": 209.82121875000007,
      "v": 110
    },
    {
      "midi": 55,
      "hit": false,
      "t": 1392.8557500000002,
      "d": 102.67846875000009,
      "v": 110
    },
    {
      "midi": 53,
      "hit": false,
      "t": 1499.9985000000004,
      "d": 209.82121875000007,
      "v": 110
    },
    {
      "midi": 26,
      "hit": false,
      "t": 1499.9985000000006,
      "d": 209.82121875000007,
      "v": 110
    },
    {
      "midi": 50,
      "hit": false,
      "t": 1714.2840000000006,
      "d": 102.67846875000009,
      "v": 110
    },
    {
      "midi": 26,
      "hit": false,
      "t": 1714.2840000000008,
      "d": 316.96396875000005,
      "v": 110
    },
    {
      "midi": 50,
      "hit": false,
      "t": 1821.4267500000008,
      "d": 102.67846875000009,
      "v": 110
    },
    {
      "midi": 60,
      "hit": false,
      "t": 1928.569500000001,
      "d": 209.82121874999984,
      "v": 110
    },
    {
      "midi": 26,
      "hit": false,
      "t": 2035.712250000001,
      "d": 102.67846874999987,
      "v": 110
    },
    {
      "midi": 58,
      "hit": false,
      "t": 2142.855000000001,
      "d": 102.67846874999987,
      "v": 110
    },
    {
      "midi": 38,
      "hit": false,
      "t": 2142.855000000001,
      "d": 209.82121874999984,
      "v": 110
    },
    {
      "midi": 59,
      "hit": false,
      "t": 2249.997750000001,
      "d": 209.82121874999984,
      "v": 110
    },
    {
      "midi": 26,
      "hit": false,
      "t": 2357.140500000001,
      "d": 424.1067187499998,
      "v": 110
    },
    {
      "midi": 60,
      "hit": false,
      "t": 2464.283250000001,
      "d": 209.82121874999984,
      "v": 110
    },
    {
      "midi": 55,
      "hit": false,
      "t": 2678.568750000001,
      "d": 209.82121874999984,
      "v": 110
    },
    {
      "midi": 26,
      "hit": false,
      "t": 2785.711500000001,
      "d": 209.82121874999984,
      "v": 110
    },
    {
      "midi": 54,
      "hit": false,
      "t": 2892.854250000001,
      "d": 209.82121874999984,
      "v": 110
    },
    {
      "midi": 38,
      "hit": false,
      "t": 2999.9970000000008,
      "d": 209.82121874999984,
      "v": 110
    },
    {
      "midi": 53,
      "hit": false,
      "t": 3107.1397500000007,
      "d": 102.67846874999987,
      "v": 110
    },
    {
      "midi": 52,
      "hit": false,
      "t": 3214.2825000000007,
      "d": 209.82121874999984,
      "v": 110
    },
    {
      "midi": 26,
      "hit": false,
      "t": 3214.2825000000007,
      "d": 209.82121874999984,
      "v": 110
    },
    {
      "midi": 50,
      "hit": false,
      "t": 3428.5680000000007,
      "d": 102.67846874999987,
      "v": 110
    },
    {
      "midi": 26,
      "hit": false,
      "t": 3428.5680000000007,
      "d": 316.9639687499998,
      "v": 110
    },
    {
      "midi": 50,
      "hit": false,
      "t": 3535.7107500000006,
      "d": 102.67846874999987,
      "v": 110
    },
    {
      "midi": 62,
      "hit": false,
      "t": 3642.8535000000006,
      "d": 209.82121874999984,
      "v": 110
    },
    {
      "midi": 26,
      "hit": false,
      "t": 3749.9962500000006,
      "d": 102.67846874999987,
      "v": 110
    },
    {
      "midi": 60,
      "hit": false,
      "t": 3857.1390000000006,
      "d": 102.67846874999987,
      "v": 110
    },
    {
      "midi": 38,
      "hit": false,
      "t": 3857.1390000000006,
      "d": 209.82121874999984,
      "v": 110
    },
    {
      "midi": 61,
      "hit": false,
      "t": 3964.2817500000006,
      "d": 209.82121874999984,
      "v": 110
    },
    {
      "midi": 26,
      "hit": false,
      "t": 4071.4245000000005,
      "d": 424.1067187499998,
      "v": 110
    },
    {
      "midi": 62,
      "hit": false,
      "t": 4178.56725,
      "d": 209.8212187500003,
      "v": 110
    },
    {
      "midi": 57,
      "hit": false,
      "t": 4392.85275,
      "d": 209.8212187500003,
      "v": 110
    },
    {
      "midi": 26,
      "hit": false,
      "t": 4499.9955,
      "d": 209.8212187500003,
      "v": 110
    },
    {
      "midi": 56,
      "hit": false,
      "t": 4607.13825,
      "d": 209.8212187500003,
      "v": 110
    },
    {
      "midi": 38,
      "hit": false,
      "t": 4714.281,
      "d": 209.8212187500003,
      "v": 110
    },
    {
      "midi": 55,
      "hit": false,
      "t": 4821.42375,
      "d": 102.67846875000032,
      "v": 110
    },
    {
      "midi": 53,
      "hit": false,
      "t": 4928.5665,
      "d": 209.8212187500003,
      "v": 110
    },
    {
      "midi": 26,
      "hit": false,
      "t": 4928.5665,
      "d": 209.8212187500003,
      "v": 110
    },
    {
      "midi": 50,
      "hit": false,
      "t": 5142.852,
      "d": 102.67846875000032,
      "v": 110
    },
    {
      "midi": 26,
      "hit": false,
      "t": 5142.852,
      "d": 316.9639687500003,
      "v": 110
    },
    {
      "midi": 50,
      "hit": false,
      "t": 5249.99475,
      "d": 102.67846875000032,
      "v": 110
    },
    {
      "midi": 60,
      "hit": false,
      "t": 5357.1375,
      "d": 209.8212187500003,
      "v": 110
    },
    {
      "midi": 26,
      "hit": false,
      "t": 5464.28025,
      "d": 102.67846875000032,
      "v": 110
    },
    {
      "midi": 58,
      "hit": false,
      "t": 5571.423,
      "d": 102.67846875000032,
      "v": 110
    },
    {
      "midi": 38,
      "hit": false,
      "t": 5571.423,
      "d": 209.8212187500003,
      "v": 110
    },
    {
      "midi": 59,
      "hit": false,
      "t": 5678.56575,
      "d": 209.8212187500003,
      "v": 110
    },
    {
      "midi": 26,
      "hit": false,
      "t": 5785.7085,
      "d": 424.10671875000025,
      "v": 110
    },
    {
      "midi": 60,
      "hit": false,
      "t": 5892.85125,
      "d": 209.8212187500003,
      "v": 110
    },
    {
      "midi": 55,
      "hit": false,
      "t": 6107.13675,
      "d": 209.8212187500003,
      "v": 110
    },
    {
      "midi": 26,
      "hit": false,
      "t": 6214.2795,
      "d": 209.8212187500003,
      "v": 110
    },
    {
      "midi": 54,
      "hit": false,
      "t": 6321.42225,
      "d": 209.8212187500003,
      "v": 110
    },
    {
      "midi": 38,
      "hit": false,
      "t": 6428.565,
      "d": 209.8212187500003,
      "v": 110
    },
    {
      "midi": 53,
      "hit": false,
      "t": 6535.70775,
      "d": 102.67846875000032,
      "v": 110
    },
    {
      "midi": 52,
      "hit": false,
      "t": 6642.8505,
      "d": 209.8212187500003,
      "v": 110
    },
    {
      "midi": 26,
      "hit": false,
      "t": 6642.8505,
      "d": 209.8212187500003,
      "v": 110
    },
    {
      "midi": 50,
      "hit": false,
      "t": 6857.1359999999995,
      "d": 102.67846875000032,
      "v": 110
    },
    {
      "midi": 26,
      "hit": false,
      "t": 6857.1359999999995,
      "d": 316.9639687500003,
      "v": 110
    },
    {
      "midi": 50,
      "hit": false,
      "t": 6964.2787499999995,
      "d": 102.67846875000032,
      "v": 110
    },
    {
      "midi": 62,
      "hit": false,
      "t": 7071.4214999999995,
      "d": 209.8212187500003,
      "v": 110
    },
    {
      "midi": 26,
      "hit": false,
      "t": 7178.564249999999,
      "d": 102.67846875000032,
      "v": 110
    },
    {
      "midi": 60,
      "hit": false,
      "t": 7285.706999999999,
      "d": 102.67846875000032,
      "v": 110
    },
    {
      "midi": 38,
      "hit": false,
      "t": 7285.706999999999,
      "d": 209.8212187500003,
      "v": 110
    },
    {
      "midi": 61,
      "hit": false,
      "t": 7392.849749999999,
      "d": 209.8212187500003,
      "v": 110
    },
    {
      "midi": 26,
      "hit": false,
      "t": 7499.992499999999,
      "d": 424.10671875000025,
      "v": 110
    },
    {
      "midi": 62,
      "hit": false,
      "t": 7607.135249999999,
      "d": 209.8212187500003,
      "v": 110
    },
    {
      "midi": 57,
      "hit": false,
      "t": 7821.420749999999,
      "d": 209.8212187500003,
      "v": 110
    },
    {
      "midi": 26,
      "hit": false,
      "t": 7928.563499999999,
      "d": 209.8212187500003,
      "v": 110
    },
    {
      "midi": 56,
      "hit": false,
      "t": 8035.706249999999,
      "d": 209.8212187499994,
      "v": 110
    },
    {
      "midi": 38,
      "hit": false,
      "t": 8142.848999999999,
      "d": 209.8212187500003,
      "v": 110
    },
    {
      "midi": 55,
      "hit": false,
      "t": 8249.99175,
      "d": 102.67846875000032,
      "v": 110
    },
    {
      "midi": 53,
      "hit": false,
      "t": 8357.1345,
      "d": 209.8212187499994,
      "v": 110
    },
    {
      "midi": 26,
      "hit": false,
      "t": 8357.1345,
      "d": 209.8212187499994,
      "v": 110
    },
    {
      "midi": 50,
      "hit": false,
      "t": 8571.42,
      "d": 102.67846875000032,
      "v": 110
    },
    {
      "midi": 26,
      "hit": false,
      "t": 8571.42,
      "d": 316.9639687500003,
      "v": 110
    },
    {
      "midi": 50,
      "hit": false,
      "t": 8678.562750000001,
      "d": 102.67846875000032,
      "v": 110
    },
    {
      "midi": 60,
      "hit": false,
      "t": 8785.705500000002,
      "d": 209.8212187499994,
      "v": 110
    },
    {
      "midi": 26,
      "hit": false,
      "t": 8892.848250000001,
      "d": 102.67846875000032,
      "v": 110
    },
    {
      "midi": 58,
      "hit": false,
      "t": 8999.991000000002,
      "d": 102.67846875000032,
      "v": 110
    },
    {
      "midi": 38,
      "hit": false,
      "t": 8999.991000000002,
      "d": 209.8212187499994,
      "v": 110
    },
    {
      "midi": 59,
      "hit": false,
      "t": 9107.133750000003,
      "d": 209.8212187499994,
      "v": 110
    },
    {
      "midi": 26,
      "hit": false,
      "t": 9214.276500000002,
      "d": 424.10671874999935,
      "v": 110
    },
    {
      "midi": 60,
      "hit": false,
      "t": 9321.419250000003,
      "d": 209.8212187499994,
      "v": 110
    },
    {
      "midi": 55,
      "hit": false,
      "t": 9535.704750000003,
      "d": 209.8212187499994,
      "v": 110
    },
    {
      "midi": 26,
      "hit": false,
      "t": 9642.847500000002,
      "d": 209.8212187499994,
      "v": 110
    },
    {
      "midi": 54,
      "hit": false,
      "t": 9749.990250000003,
      "d": 209.8212187499994,
      "v": 110
    },
    {
      "midi": 38,
      "hit": false,
      "t": 9857.133000000002,
      "d": 209.8212187499994,
      "v": 110
    },
    {
      "midi": 53,
      "hit": false,
      "t": 9964.275750000003,
      "d": 102.67846875000032,
      "v": 110
    },
    {
      "midi": 26,
      "hit": false,
      "t": 10071.418500000002,
      "d": 209.8212187499994,
      "v": 110
    },
    {
      "midi": 52,
      "hit": false,
      "t": 10071.418500000003,
      "d": 209.8212187499994,
      "v": 110
    },
    {
      "midi": 26,
      "hit": false,
      "t": 10285.704000000002,
      "d": 316.9639687500003,
      "v": 110
    },
    {
      "midi": 50,
      "hit": false,
      "t": 10285.704000000003,
      "d": 102.67846875000032,
      "v": 110
    },
    {
      "midi": 50,
      "hit": false,
      "t": 10392.846750000004,
      "d": 102.67846875000032,
      "v": 110
    },
    {
      "midi": 62,
      "hit": false,
      "t": 10499.989500000005,
      "d": 209.8212187499994,
      "v": 110
    },
    {
      "midi": 26,
      "hit": false,
      "t": 10607.132250000002,
      "d": 102.67846875000032,
      "v": 110
    },
    {
      "midi": 38,
      "hit": false,
      "t": 10714.275000000003,
      "d": 209.8212187499994,
      "v": 110
    },
    {
      "midi": 60,
      "hit": false,
      "t": 10714.275000000005,
      "d": 102.67846875000032,
      "v": 110
    },
    {
      "midi": 61,
      "hit": false,
      "t": 10821.417750000006,
      "d": 209.8212187499994,
      "v": 110
    },
    {
      "midi": 26,
      "hit": false,
      "t": 10928.560500000003,
      "d": 424.10671874999935,
      "v": 110
    },
    {
      "midi": 62,
      "hit": false,
      "t": 11035.703250000006,
      "d": 209.8212187499994,
      "v": 110
    },
    {
      "midi": 57,
      "hit": false,
      "t": 11249.988750000006,
      "d": 209.8212187499994,
      "v": 110
    },
    {
      "midi": 26,
      "hit": false,
      "t": 11357.131500000003,
      "d": 209.8212187499994,
      "v": 110
    },
    {
      "midi": 56,
      "hit": false,
      "t": 11464.274250000006,
      "d": 209.8212187499994,
      "v": 110
    },
    {
      "midi": 38,
      "hit": false,
      "t": 11571.417000000003,
      "d": 209.8212187499994,
      "v": 110
    },
    {
      "midi": 55,
      "hit": false,
      "t": 11678.559750000006,
      "d": 102.67846875000032,
      "v": 110
    },
    {
      "midi": 26,
      "hit": false,
      "t": 11785.702500000003,
      "d": 209.8212187499994,
      "v": 110
    },
    {
      "midi": 53,
      "hit": false,
      "t": 11785.702500000007,
      "d": 209.8212187499994,
      "v": 110
    },
    {
      "midi": 36,
      "hit": false,
      "t": 11999.988000000003,
      "d": 102.67846875000032,
      "v": 110
    },
    {
      "midi": 48,
      "hit": false,
      "t": 11999.988000000007,
      "d": 102.67846875000032,
      "v": 110
    },
    {
      "midi": 60,
      "hit": false,
      "t": 11999.988000000007,
      "d": 102.67846875000032,
      "v": 110
    },
    {
      "midi": 36,
      "hit": false,
      "t": 12107.130750000004,
      "d": 209.8212187499994,
      "v": 110
    },
    {
      "midi": 48,
      "hit": false,
      "t": 12107.130750000008,
      "d": 209.8212187499994,
      "v": 110
    },
    {
      "midi": 60,
      "hit": false,
      "t": 12107.130750000008,
      "d": 209.8212187499994,
      "v": 110
    },
    {
      "midi": 36,
      "hit": false,
      "t": 12321.416250000004,
      "d": 102.67846875000032,
      "v": 110
    },
    {
      "midi": 45,
      "hit": false,
      "t": 12321.416250000007,
      "d": 102.67846875000032,
      "v": 110
    },
    {
      "midi": 57,
      "hit": false,
      "t": 12321.416250000007,
      "d": 102.67846875000032,
      "v": 110
    },
    {
      "midi": 38,
      "hit": false,
      "t": 12428.559000000005,
      "d": 102.67846875000032,
      "v": 110
    },
    {
      "midi": 50,
      "hit": false,
      "t": 12428.559000000008,
      "d": 102.67846875000032,
      "v": 110
    },
    {
      "midi": 62,
      "hit": false,
      "t": 12428.559000000008,
      "d": 102.67846875000032,
      "v": 110
    },
    {
      "midi": 38,
      "hit": false,
      "t": 12535.701750000006,
      "d": 209.8212187499994,
      "v": 110
    },
    {
      "midi": 50,
      "hit": false,
      "t": 12535.70175000001,
      "d": 209.8212187499994,
      "v": 110
    },
    {
      "midi": 62,
      "hit": false,
      "t": 12535.70175000001,
      "d": 209.8212187499994,
      "v": 110
    },
    {
      "midi": 36,
      "hit": false,
      "t": 12749.987250000006,
      "d": 102.67846875000032,
      "v": 110
    },
    {
      "midi": 45,
      "hit": false,
      "t": 12749.98725000001,
      "d": 102.67846875000032,
      "v": 110
    },
    {
      "midi": 57,
      "hit": false,
      "t": 12749.98725000001,
      "d": 102.67846875000032,
      "v": 110
    },
    {
      "midi": 36,
      "hit": false,
      "t": 12857.130000000006,
      "d": 102.67846875000032,
      "v": 110
    },
    {
      "midi": 45,
      "hit": false,
      "t": 12857.13000000001,
      "d": 102.67846875000032,
      "v": 110
    },
    {
      "midi": 57,
      "hit": false,
      "t": 12857.13000000001,
      "d": 102.67846875000032,
      "v": 110
    },
    {
      "midi": 36,
      "hit": false,
      "t": 12964.272750000007,
      "d": 102.67846875000032,
      "v": 110
    },
    {
      "midi": 48,
      "hit": false,
      "t": 12964.272750000011,
      "d": 102.67846875000032,
      "v": 110
    },
    {
      "midi": 60,
      "hit": false,
      "t": 12964.272750000011,
      "d": 102.67846875000032,
      "v": 110
    },
    {
      "midi": 36,
      "hit": false,
      "t": 13071.415500000008,
      "d": 102.67846875000032,
      "v": 110
    },
    {
      "midi": 45,
      "hit": false,
      "t": 13071.415500000012,
      "d": 102.67846875000032,
      "v": 110
    },
    {
      "midi": 57,
      "hit": false,
      "t": 13071.415500000012,
      "d": 102.67846875000032,
      "v": 110
    },
    {
      "midi": 38,
      "hit": false,
      "t": 13178.55825000001,
      "d": 102.67846875000032,
      "v": 110
    },
    {
      "midi": 50,
      "hit": false,
      "t": 13178.558250000013,
      "d": 464.2852500000008,
      "v": 110
    },
    {
      "midi": 62,
      "hit": false,
      "t": 13178.558250000013,
      "d": 464.2852500000008,
      "v": 110
    },
    {
      "midi": 38,
      "hit": false,
      "t": 13714.27200000001,
      "d": 102.67846875000032,
      "v": 110
    },
    {
      "midi": 62,
      "hit": false,
      "t": 13714.272000000014,
      "d": 749.9992500000008,
      "v": 110
    },
    {
      "midi": 65,
      "hit": false,
      "t": 13714.272000000014,
      "d": 749.9992500000008,
      "v": 110
    },
    {
      "midi": 69,
      "hit": false,
      "t": 13714.272000000014,
      "d": 749.9992500000008,
      "v": 110
    },
    {
      "midi": 38,
      "hit": false,
      "t": 13821.41475000001,
      "d": 102.67846875000032,
      "v": 110
    },
    {
      "midi": 50,
      "hit": false,
      "t": 13928.557500000012,
      "d": 102.67846875000032,
      "v": 110
    },
    {
      "midi": 38,
      "hit": false,
      "t": 14035.700250000013,
      "d": 102.67846875000032,
      "v": 110
    },
    {
      "midi": 48,
      "hit": false,
      "t": 14142.843000000013,
      "d": 102.67846875000032,
      "v": 110
    },
    {
      "midi": 50,
      "hit": false,
      "t": 14249.985750000014,
      "d": 209.8212187499994,
      "v": 110
    },
    {
      "midi": 38,
      "hit": false,
      "t": 14464.271250000014,
      "d": 102.67846875000032,
      "v": 110
    },
    {
      "midi": 38,
      "hit": false,
      "t": 14571.414000000015,
      "d": 102.67846875000032,
      "v": 110
    },
    {
      "midi": 38,
      "hit": false,
      "t": 14678.556750000016,
      "d": 102.67846875000032,
      "v": 110
    },
    {
      "midi": 62,
      "hit": false,
      "t": 14785.699500000015,
      "d": 209.8212187499994,
      "v": 110
    },
    {
      "midi": 65,
      "hit": false,
      "t": 14785.699500000015,
      "d": 209.8212187499994,
      "v": 110
    },
    {
      "midi": 69,
      "hit": false,
      "t": 14785.699500000015,
      "d": 209.8212187499994,
      "v": 110
    },
    {
      "midi": 50,
      "hit": false,
      "t": 14785.699500000017,
      "d": 102.67846875000032,
      "v": 110
    },
    {
      "midi": 38,
      "hit": false,
      "t": 14892.842250000018,
      "d": 102.67846875000032,
      "v": 110
    },
    {
      "midi": 69,
      "hit": false,
      "t": 14999.985000000015,
      "d": 102.67846875000032,
      "v": 110
    },
    {
      "midi": 48,
      "hit": false,
      "t": 14999.985000000019,
      "d": 102.67846875000032,
      "v": 110
    },
    {
      "midi": 67,
      "hit": false,
      "t": 15107.127750000016,
      "d": 102.67846875000032,
      "v": 110
    },
    {
      "midi": 50,
      "hit": false,
      "t": 15107.12775000002,
      "d": 209.8212187499994,
      "v": 110
    },
    {
      "midi": 65,
      "hit": false,
      "t": 15214.270500000017,
      "d": 102.67846875000032,
      "v": 110
    },
    {
      "midi": 60,
      "hit": false,
      "t": 15321.413250000018,
      "d": 857.1420000000016,
      "v": 110
    },
    {
      "midi": 64,
      "hit": false,
      "t": 15321.413250000018,
      "d": 857.1420000000016,
      "v": 110
    },
    {
      "midi": 67,
      "hit": false,
      "t": 15321.413250000018,
      "d": 857.1420000000016,
      "v": 110
    },
    {
      "midi": 38,
      "hit": false,
      "t": 15321.41325000002,
      "d": 102.67846875000032,
      "v": 110
    },
    {
      "midi": 38,
      "hit": false,
      "t": 15428.55600000002,
      "d": 102.67846875000032,
      "v": 110
    },
    {
      "midi": 38,
      "hit": false,
      "t": 15535.698750000021,
      "d": 102.67846875000032,
      "v": 110
    },
    {
      "midi": 48,
      "hit": false,
      "t": 15642.841500000022,
      "d": 102.67846875000032,
      "v": 110
    },
    {
      "midi": 38,
      "hit": false,
      "t": 15749.984250000023,
      "d": 102.67846875000032,
      "v": 110
    },
    {
      "midi": 46,
      "hit": false,
      "t": 15857.127000000024,
      "d": 102.67846875000032,
      "v": 110
    },
    {
      "midi": 48,
      "hit": false,
      "t": 15964.269750000025,
      "d": 209.8212187499994,
      "v": 110
    },
    {
      "midi": 38,
      "hit": false,
      "t": 16178.555250000025,
      "d": 102.67846875000032,
      "v": 110
    },
    {
      "midi": 36,
      "hit": false,
      "t": 16285.698000000026,
      "d": 102.67846875000032,
      "v": 110
    },
    {
      "midi": 60,
      "hit": false,
      "t": 16392.84075000002,
      "d": 102.67846875000032,
      "v": 110
    },
    {
      "midi": 67,
      "hit": false,
      "t": 16392.84075000002,
      "d": 102.67846875000032,
      "v": 110
    },
    {
      "midi": 36,
      "hit": false,
      "t": 16392.840750000025,
      "d": 102.67846875000032,
      "v": 110
    },
    {
      "midi": 60,
      "hit": false,
      "t": 16499.98350000002,
      "d": 209.8212187499994,
      "v": 110
    },
    {
      "midi": 64,
      "hit": false,
      "t": 16499.98350000002,
      "d": 209.8212187499994,
      "v": 110
    },
    {
      "midi": 69,
      "hit": false,
      "t": 16499.98350000002,
      "d": 209.8212187499994,
      "v": 110
    },
    {
      "midi": 48,
      "hit": false,
      "t": 16499.983500000024,
      "d": 102.67846875000032,
      "v": 110
    },
    {
      "midi": 36,
      "hit": false,
      "t": 16607.126250000023,
      "d": 102.67846875000032,
      "v": 110
    },
    {
      "midi": 60,
      "hit": false,
      "t": 16714.26900000002,
      "d": 102.67846875000032,
      "v": 110
    },
    {
      "midi": 67,
      "hit": false,
      "t": 16714.26900000002,
      "d": 102.67846875000032,
      "v": 110
    },
    {
      "midi": 46,
      "hit": false,
      "t": 16714.269000000022,
      "d": 102.67846875000032,
      "v": 110
    },
    {
      "midi": 64,
      "hit": false,
      "t": 16821.411750000017,
      "d": 209.8212187499994,
      "v": 110
    },
    {
      "midi": 48,
      "hit": false,
      "t": 16821.41175000002,
      "d": 209.8212187499994,
      "v": 110
    },
    {
      "midi": 62,
      "hit": false,
      "t": 17035.697250000016,
      "d": 316.96396874999846,
      "v": 110
    },
    {
      "midi": 65,
      "hit": false,
      "t": 17035.697250000016,
      "d": 316.96396874999846,
      "v": 110
    },
    {
      "midi": 38,
      "hit": false,
      "t": 17035.69725000002,
      "d": 102.67846875000032,
      "v": 110
    },
    {
      "midi": 38,
      "hit": false,
      "t": 17142.84000000002,
      "d": 102.67846875000032,
      "v": 110
    },
    {
      "midi": 38,
      "hit": false,
      "t": 17249.982750000017,
      "d": 102.67846875000032,
      "v": 110
    },
    {
      "midi": 65,
      "hit": false,
      "t": 17357.125500000013,
      "d": 102.67846875000032,
      "v": 110
    },
    {
      "midi": 50,
      "hit": false,
      "t": 17357.125500000016,
      "d": 102.67846875000032,
      "v": 110
    },
    {
      "midi": 69,
      "hit": false,
      "t": 17464.268250000012,
      "d": 102.67846875000032,
      "v": 110
    },
    {
      "midi": 38,
      "hit": false,
      "t": 17464.268250000016,
      "d": 102.67846875000032,
      "v": 110
    },
    {
      "midi": 74,
      "hit": false,
      "t": 17571.41100000001,
      "d": 209.8212187499994,
      "v": 110
    },
    {
      "midi": 48,
      "hit": false,
      "t": 17571.411000000015,
      "d": 102.67846875000032,
      "v": 110
    },
    {
      "midi": 50,
      "hit": false,
      "t": 17678.553750000014,
      "d": 209.8212187499994,
      "v": 110
    },
    {
      "midi": 69,
      "hit": false,
      "t": 17785.69650000001,
      "d": 209.8212187499994,
      "v": 110
    },
    {
      "midi": 38,
      "hit": false,
      "t": 17892.83925000001,
      "d": 102.67846875000032,
      "v": 110
    },
    {
      "midi": 67,
      "hit": false,
      "t": 17999.982000000007,
      "d": 102.67846875000032,
      "v": 110
    },
    {
      "midi": 38,
      "hit": false,
      "t": 17999.98200000001,
      "d": 102.67846875000032,
      "v": 110
    },
    {
      "midi": 69,
      "hit": false,
      "t": 18107.124750000006,
      "d": 209.8212187499994,
      "v": 110
    },
    {
      "midi": 38,
      "hit": false,
      "t": 18107.12475000001,
      "d": 102.67846875000032,
      "v": 110
    },
    {
      "midi": 50,
      "hit": false,
      "t": 18214.26750000001,
      "d": 102.67846875000032,
      "v": 110
    },
    {
      "midi": 67,
      "hit": false,
      "t": 18321.410250000004,
      "d": 209.8212187499994,
      "v": 110
    },
    {
      "midi": 38,
      "hit": false,
      "t": 18321.410250000008,
      "d": 102.67846875000032,
      "v": 110
    },
    {
      "midi": 48,
      "hit": false,
      "t": 18428.553000000007,
      "d": 102.67846875000032,
      "v": 110
    },
    {
      "midi": 64,
      "hit": false,
      "t": 18535.695750000003,
      "d": 102.67846875000032,
      "v": 110
    },
    {
      "midi": 50,
      "hit": false,
      "t": 18535.695750000006,
      "d": 209.8212187499994,
      "v": 110
    },
    {
      "midi": 65,
      "hit": false,
      "t": 18642.8385,
      "d": 209.8212187499994,
      "v": 110
    },
    {
      "midi": 38,
      "hit": false,
      "t": 18749.981250000004,
      "d": 102.67846875000032,
      "v": 110
    },
    {
      "midi": 65,
      "hit": false,
      "t": 18857.124,
      "d": 209.8212187499994,
      "v": 110
    },
    {
      "midi": 69,
      "hit": false,
      "t": 18857.124,
      "d": 209.8212187499994,
      "v": 110
    },
    {
      "midi": 74,
      "hit": false,
      "t": 18857.124,
      "d": 209.8212187499994,
      "v": 110
    },
    {
      "midi": 38,
      "hit": false,
      "t": 18857.124000000003,
      "d": 102.67846875000032,
      "v": 110
    },
    {
      "midi": 38,
      "hit": false,
      "t": 18964.266750000003,
      "d": 102.67846875000032,
      "v": 110
    },
    {
      "midi": 74,
      "hit": false,
      "t": 19071.409499999998,
      "d": 102.67846875000032,
      "v": 110
    },
    {
      "midi": 50,
      "hit": false,
      "t": 19071.4095,
      "d": 102.67846875000032,
      "v": 110
    },
    {
      "midi": 76,
      "hit": false,
      "t": 19178.552249999997,
      "d": 102.67846875000032,
      "v": 110
    },
    {
      "midi": 38,
      "hit": false,
      "t": 19178.55225,
      "d": 102.67846875000032,
      "v": 110
    },
    {
      "midi": 77,
      "hit": false,
      "t": 19285.694999999996,
      "d": 102.67846875000032,
      "v": 110
    },
    {
      "midi": 48,
      "hit": false,
      "t": 19285.695,
      "d": 102.67846875000032,
      "v": 110
    },
    {
      "midi": 81,
      "hit": false,
      "t": 19392.837749999995,
      "d": 209.8212187499994,
      "v": 110
    },
    {
      "midi": 50,
      "hit": false,
      "t": 19392.83775,
      "d": 209.8212187499994,
      "v": 110
    },
    {
      "midi": 74,
      "hit": false,
      "t": 19607.123249999993,
      "d": 209.8212187499994,
      "v": 110
    },
    {
      "midi": 38,
      "hit": false,
      "t": 19607.123249999997,
      "d": 102.67846875000032,
      "v": 110
    },
    {
      "midi": 38,
      "hit": false,
      "t": 19714.265999999996,
      "d": 102.67846875000032,
      "v": 110
    },
    {
      "midi": 69,
      "hit": false,
      "t": 19821.40874999999,
      "d": 102.67846875000032,
      "v": 110
    },
    {
      "midi": 38,
      "hit": false,
      "t": 19821.408749999995,
      "d": 102.67846875000032,
      "v": 110
    },
    {
      "midi": 72,
      "hit": false,
      "t": 19928.55149999999,
      "d": 102.67846875000032,
      "v": 110
    },
    {
      "midi": 50,
      "hit": false,
      "t": 19928.551499999994,
      "d": 102.67846875000032,
      "v": 110
    },
    {
      "midi": 74,
      "hit": false,
      "t": 20035.69424999999,
      "d": 102.67846875000032,
      "v": 110
    },
    {
      "midi": 38,
      "hit": false,
      "t": 20035.694249999993,
      "d": 102.67846875000032,
      "v": 110
    },
    {
      "midi": 77,
      "hit": false,
      "t": 20142.83699999999,
      "d": 102.67846875000032,
      "v": 110
    },
    {
      "midi": 48,
      "hit": false,
      "t": 20142.836999999992,
      "d": 102.67846875000032,
      "v": 110
    },
    {
      "midi": 76,
      "hit": false,
      "t": 20249.979749999988,
      "d": 102.67846875000032,
      "v": 110
    },
    {
      "midi": 50,
      "hit": false,
      "t": 20249.97974999999,
      "d": 209.8212187499994,
      "v": 110
    },
    {
      "midi": 74,
      "hit": false,
      "t": 20357.122499999987,
      "d": 102.67846875000032,
      "v": 110
    },
    {
      "midi": 72,
      "hit": false,
      "t": 20464.265249999986,
      "d": 102.67846875000032,
      "v": 110
    },
    {
      "midi": 38,
      "hit": false,
      "t": 20464.26524999999,
      "d": 102.67846875000032,
      "v": 110
    },
    {
      "midi": 62,
      "hit": false,
      "t": 20571.407999999985,
      "d": 749.9992500000008,
      "v": 110
    },
    {
      "midi": 65,
      "hit": false,
      "t": 20571.407999999985,
      "d": 749.9992500000008,
      "v": 110
    },
    {
      "midi": 69,
      "hit": false,
      "t": 20571.407999999985,
      "d": 749.9992500000008,
      "v": 110
    },
    {
      "midi": 38,
      "hit": false,
      "t": 20571.40799999999,
      "d": 102.67846875000032,
      "v": 110
    },
    {
      "midi": 38,
      "hit": false,
      "t": 20678.550749999988,
      "d": 102.67846875000032,
      "v": 110
    },
    {
      "midi": 50,
      "hit": false,
      "t": 20785.693499999987,
      "d": 102.67846875000032,
      "v": 110
    },
    {
      "midi": 38,
      "hit": false,
      "t": 20892.836249999986,
      "d": 102.67846875000032,
      "v": 110
    },
    {
      "midi": 48,
      "hit": false,
      "t": 20999.978999999985,
      "d": 102.67846875000032,
      "v": 110
    },
    {
      "midi": 50,
      "hit": false,
      "t": 21107.121749999984,
      "d": 209.8212187499994,
      "v": 110
    },
    {
      "midi": 38,
      "hit": false,
      "t": 21321.407249999982,
      "d": 102.67846875000032,
      "v": 110
    },
    {
      "midi": 38,
      "hit": false,
      "t": 21428.54999999998,
      "d": 102.67846875000032,
      "v": 110
    },
    {
      "midi": 38,
      "hit": false,
      "t": 21535.69274999998,
      "d": 102.67846875000032,
      "v": 110
    },
    {
      "midi": 50,
      "hit": false,
      "t": 21642.83549999998,
      "d": 102.67846875000032,
      "v": 110
    },
    {
      "midi": 62,
      "hit": false,
      "t": 21642.835499999986,
      "d": 209.8212187499994,
      "v": 110
    },
    {
      "midi": 65,
      "hit": false,
      "t": 21642.835499999986,
      "d": 209.8212187499994,
      "v": 110
    },
    {
      "midi": 69,
      "hit": false,
      "t": 21642.835499999986,
      "d": 209.8212187499994,
      "v": 110
    },
    {
      "midi": 38,
      "hit": false,
      "t": 21749.97824999998,
      "d": 102.67846875000032,
      "v": 110
    },
    {
      "midi": 48,
      "hit": false,
      "t": 21857.120999999977,
      "d": 102.67846875000032,
      "v": 110
    },
    {
      "midi": 69,
      "hit": false,
      "t": 21857.120999999985,
      "d": 102.67846875000032,
      "v": 110
    },
    {
      "midi": 50,
      "hit": false,
      "t": 21964.263749999976,
      "d": 209.8212187499994,
      "v": 110
    },
    {
      "midi": 67,
      "hit": false,
      "t": 21964.263749999984,
      "d": 102.67846875000032,
      "v": 110
    },
    {
      "midi": 65,
      "hit": false,
      "t": 22071.406499999983,
      "d": 102.67846875000032,
      "v": 110
    },
    {
      "midi": 38,
      "hit": false,
      "t": 22178.549249999975,
      "d": 102.67846875000032,
      "v": 110
    },
    {
      "midi": 60,
      "hit": false,
      "t": 22178.549249999982,
      "d": 857.1419999999998,
      "v": 110
    },
    {
      "midi": 64,
      "hit": false,
      "t": 22178.549249999982,
      "d": 857.1419999999998,
      "v": 110
    },
    {
      "midi": 67,
      "hit": false,
      "t": 22178.549249999982,
      "d": 857.1419999999998,
      "v": 110
    },
    {
      "midi": 38,
      "hit": false,
      "t": 22285.691999999974,
      "d": 102.67846875000032,
      "v": 110
    },
    {
      "midi": 38,
      "hit": false,
      "t": 22392.834749999973,
      "d": 102.67846875000032,
      "v": 110
    },
    {
      "midi": 48,
      "hit": false,
      "t": 22499.97749999997,
      "d": 102.67846875000032,
      "v": 110
    },
    {
      "midi": 38,
      "hit": false,
      "t": 22607.12024999997,
      "d": 102.67846875000032,
      "v": 110
    },
    {
      "midi": 46,
      "hit": false,
      "t": 22714.26299999997,
      "d": 102.67846875000032,
      "v": 110
    },
    {
      "midi": 48,
      "hit": false,
      "t": 22821.40574999997,
      "d": 209.8212187499994,
      "v": 110
    },
    {
      "midi": 38,
      "hit": false,
      "t": 23035.691249999967,
      "d": 102.67846875000032,
      "v": 110
    },
    {
      "midi": 36,
      "hit": false,
      "t": 23142.833999999966,
      "d": 102.67846875000032,
      "v": 110
    },
    {
      "midi": 36,
      "hit": false,
      "t": 23249.976749999965,
      "d": 102.67846875000032,
      "v": 110
    },
    {
      "midi": 60,
      "hit": false,
      "t": 23249.976749999983,
      "d": 102.67846875000032,
      "v": 110
    },
    {
      "midi": 67,
      "hit": false,
      "t": 23249.976749999983,
      "d": 102.67846875000032,
      "v": 110
    },
    {
      "midi": 48,
      "hit": false,
      "t": 23357.119499999964,
      "d": 102.67846875000032,
      "v": 110
    },
    {
      "midi": 60,
      "hit": false,
      "t": 23357.119499999983,
      "d": 209.8212187499994,
      "v": 110
    },
    {
      "midi": 64,
      "hit": false,
      "t": 23357.119499999983,
      "d": 209.8212187499994,
      "v": 110
    },
    {
      "midi": 69,
      "hit": false,
      "t": 23357.119499999983,
      "d": 209.8212187499994,
      "v": 110
    },
    {
      "midi": 36,
      "hit": false,
      "t": 23464.262249999963,
      "d": 102.67846875000032,
      "v": 110
    },
    {
      "midi": 46,
      "hit": false,
      "t": 23571.404999999962,
      "d": 102.67846875000032,
      "v": 110
    },
    {
      "midi": 60,
      "hit": false,
      "t": 23571.40499999998,
      "d": 102.67846875000032,
      "v": 110
    },
    {
      "midi": 67,
      "hit": false,
      "t": 23571.40499999998,
      "d": 102.67846875000032,
      "v": 110
    },
    {
      "midi": 48,
      "hit": false,
      "t": 23678.54774999996,
      "d": 209.8212187499994,
      "v": 110
    },
    {
      "midi": 64,
      "hit": false,
      "t": 23678.54774999998,
      "d": 209.8212187499994,
      "v": 110
    },
    {
      "midi": 38,
      "hit": false,
      "t": 23892.83324999996,
      "d": 102.67846875000032,
      "v": 110
    },
    {
      "midi": 62,
      "hit": false,
      "t": 23892.833249999978,
      "d": 316.96396874999846,
      "v": 110
    },
    {
      "midi": 65,
      "hit": false,
      "t": 23892.833249999978,
      "d": 316.96396874999846,
      "v": 110
    },
    {
      "midi": 38,
      "hit": false,
      "t": 23999.97599999996,
      "d": 102.67846875000032,
      "v": 110
    },
    {
      "midi": 38,
      "hit": false,
      "t": 24107.118749999958,
      "d": 102.67846875000032,
      "v": 110
    },
    {
      "midi": 50,
      "hit": false,
      "t": 24214.261499999957,
      "d": 102.67846875000032,
      "v": 110
    },
    {
      "midi": 65,
      "hit": false,
      "t": 24214.261499999975,
      "d": 102.67846875000032,
      "v": 110
    },
    {
      "midi": 38,
      "hit": false,
      "t": 24321.404249999956,
      "d": 102.67846875000032,
      "v": 110
    },
    {
      "midi": 69,
      "hit": false,
      "t": 24321.404249999974,
      "d": 102.67846875000032,
      "v": 110
    },
    {
      "midi": 48,
      "hit": false,
      "t": 24428.546999999955,
      "d": 102.67846875000032,
      "v": 110
    },
    {
      "midi": 74,
      "hit": false,
      "t": 24428.546999999973,
      "d": 209.8212187499994,
      "v": 110
    },
    {
      "midi": 50,
      "hit": false,
      "t": 24535.689749999954,
      "d": 209.8212187499994,
      "v": 110
    },
    {
      "midi": 69,
      "hit": false,
      "t": 24642.83249999997,
      "d": 209.8212187499994,
      "v": 110
    },
    {
      "midi": 38,
      "hit": false,
      "t": 24749.975249999952,
      "d": 102.67846875000032,
      "v": 110
    },
    {
      "midi": 38,
      "hit": false,
      "t": 24857.11799999995,
      "d": 102.67846875000032,
      "v": 110
    },
    {
      "midi": 67,
      "hit": false,
      "t": 24857.11799999997,
      "d": 102.67846875000032,
      "v": 110
    },
    {
      "midi": 38,
      "hit": false,
      "t": 24964.26074999995,
      "d": 102.67846875000032,
      "v": 110
    },
    {
      "midi": 69,
      "hit": false,
      "t": 24964.26074999997,
      "d": 209.8212187499994,
      "v": 110
    },
    {
      "midi": 50,
      "hit": false,
      "t": 25071.40349999995,
      "d": 102.67846875000032,
      "v": 110
    },
    {
      "midi": 38,
      "hit": false,
      "t": 25178.54624999995,
      "d": 102.67846875000032,
      "v": 110
    },
    {
      "midi": 67,
      "hit": false,
      "t": 25178.546249999967,
      "d": 209.8212187499994,
      "v": 110
    },
    {
      "midi": 48,
      "hit": false,
      "t": 25285.688999999948,
      "d": 102.67846875000032,
      "v": 110
    },
    {
      "midi": 50,
      "hit": false,
      "t": 25392.831749999947,
      "d": 209.8212187499994,
      "v": 110
    },
    {
      "midi": 64,
      "hit": false,
      "t": 25392.831749999965,
      "d": 102.67846875000032,
      "v": 110
    },
    {
      "midi": 65,
      "hit": false,
      "t": 25499.974499999964,
      "d": 209.8212187499994,
      "v": 110
    },
    {
      "midi": 38,
      "hit": false,
      "t": 25607.117249999945,
      "d": 102.67846875000032,
      "v": 110
    },
    {
      "midi": 36,
      "hit": false,
      "t": 25714.259999999944,
      "d": 102.67846875000032,
      "v": 110
    },
    {
      "midi": 67,
      "hit": false,
      "t": 25714.259999999962,
      "d": 102.67846875000032,
      "v": 110
    },
    {
      "midi": 72,
      "hit": false,
      "t": 25714.259999999962,
      "d": 102.67846875000032,
      "v": 110
    },
    {
      "midi": 36,
      "hit": false,
      "t": 25821.402749999943,
      "d": 209.8212187499994,
      "v": 110
    },
    {
      "midi": 67,
      "hit": false,
      "t": 25821.40274999996,
      "d": 209.8212187499994,
      "v": 110
    },
    {
      "midi": 72,
      "hit": false,
      "t": 25821.40274999996,
      "d": 209.8212187499994,
      "v": 110
    },
    {
      "midi": 36,
      "hit": false,
      "t": 26035.68824999994,
      "d": 102.67846875000032,
      "v": 110
    },
    {
      "midi": 69,
      "hit": false,
      "t": 26035.68824999996,
      "d": 102.67846875000032,
      "v": 110
    },
    {
      "midi": 38,
      "hit": false,
      "t": 26142.83099999994,
      "d": 102.67846875000032,
      "v": 110
    },
    {
      "midi": 69,
      "hit": false,
      "t": 26142.83099999996,
      "d": 102.67846875000032,
      "v": 110
    },
    {
      "midi": 74,
      "hit": false,
      "t": 26142.83099999996,
      "d": 102.67846875000032,
      "v": 110
    },
    {
      "midi": 77,
      "hit": false,
      "t": 26142.83099999996,
      "d": 102.67846875000032,
      "v": 110
    },
    {
      "midi": 38,
      "hit": false,
      "t": 26249.97374999994,
      "d": 209.8212187499994,
      "v": 110
    },
    {
      "midi": 69,
      "hit": false,
      "t": 26249.973749999957,
      "d": 209.8212187499994,
      "v": 110
    },
    {
      "midi": 74,
      "hit": false,
      "t": 26249.973749999957,
      "d": 209.8212187499994,
      "v": 110
    },
    {
      "midi": 77,
      "hit": false,
      "t": 26249.973749999957,
      "d": 209.8212187499994,
      "v": 110
    },
    {
      "midi": 36,
      "hit": false,
      "t": 26464.259249999937,
      "d": 102.67846875000032,
      "v": 110
    },
    {
      "midi": 64,
      "hit": false,
      "t": 26464.259249999956,
      "d": 102.67846875000032,
      "v": 110
    },
    {
      "midi": 69,
      "hit": false,
      "t": 26464.259249999956,
      "d": 102.67846875000032,
      "v": 110
    },
    {
      "midi": 36,
      "hit": false,
      "t": 26571.401999999936,
      "d": 102.67846875000032,
      "v": 110
    },
    {
      "midi": 64,
      "hit": false,
      "t": 26571.401999999955,
      "d": 102.67846875000032,
      "v": 110
    },
    {
      "midi": 69,
      "hit": false,
      "t": 26571.401999999955,
      "d": 102.67846875000032,
      "v": 110
    },
    {
      "midi": 36,
      "hit": false,
      "t": 26678.544749999935,
      "d": 102.67846875000032,
      "v": 110
    },
    {
      "midi": 67,
      "hit": false,
      "t": 26678.544749999954,
      "d": 102.67846875000032,
      "v": 110
    },
    {
      "midi": 72,
      "hit": false,
      "t": 26678.544749999954,
      "d": 102.67846875000032,
      "v": 110
    },
    {
      "midi": 36,
      "hit": false,
      "t": 26785.687499999935,
      "d": 102.67846875000032,
      "v": 110
    },
    {
      "midi": 64,
      "hit": false,
      "t": 26785.687499999953,
      "d": 102.67846875000032,
      "v": 110
    },
    {
      "midi": 69,
      "hit": false,
      "t": 26785.687499999953,
      "d": 102.67846875000032,
      "v": 110
    },
    {
      "midi": 38,
      "hit": false,
      "t": 26892.830249999934,
      "d": 102.67846875000032,
      "v": 110
    },
    {
      "midi": 69,
      "hit": false,
      "t": 26892.83024999995,
      "d": 464.2852500000008,
      "v": 110
    },
    {
      "midi": 74,
      "hit": false,
      "t": 26892.83024999995,
      "d": 464.2852500000008,
      "v": 110
    },
    {
      "midi": 77,
      "hit": false,
      "t": 26892.83024999995,
      "d": 464.2852500000008,
      "v": 110
    },
    {
      "midi": 26,
      "hit": false,
      "t": 27428.543999999933,
      "d": 316.96396874999846,
      "v": 110
    },
    {
      "midi": 50,
      "hit": false,
      "t": 27428.543999999954,
      "d": 102.67846875000032,
      "v": 110
    },
    {
      "midi": 50,
      "hit": false,
      "t": 27535.686749999953,
      "d": 102.67846875000032,
      "v": 110
    },
    {
      "midi": 62,
      "hit": false,
      "t": 27642.829499999953,
      "d": 209.8212187499994,
      "v": 110
    },
    {
      "midi": 26,
      "hit": false,
      "t": 27749.97224999993,
      "d": 102.67846875000032,
      "v": 110
    },
    {
      "midi": 38,
      "hit": false,
      "t": 27857.11499999993,
      "d": 209.8212187499994,
      "v": 110
    },
    {
      "midi": 60,
      "hit": false,
      "t": 27857.11499999995,
      "d": 102.67846875000032,
      "v": 110
    },
    {
      "midi": 61,
      "hit": false,
      "t": 27964.25774999995,
      "d": 209.8212187499994,
      "v": 110
    },
    {
      "midi": 26,
      "hit": false,
      "t": 28071.400499999927,
      "d": 424.10671875000116,
      "v": 110
    },
    {
      "midi": 62,
      "hit": false,
      "t": 28178.543249999948,
      "d": 209.8212187499994,
      "v": 110
    },
    {
      "midi": 57,
      "hit": false,
      "t": 28392.828749999946,
      "d": 209.8212187499994,
      "v": 110
    },
    {
      "midi": 26,
      "hit": false,
      "t": 28499.971499999927,
      "d": 209.8212187499994,
      "v": 110
    },
    {
      "midi": 56,
      "hit": false,
      "t": 28607.114249999944,
      "d": 209.8212187499994,
      "v": 110
    },
    {
      "midi": 38,
      "hit": false,
      "t": 28714.256999999925,
      "d": 209.8212187499994,
      "v": 110
    },
    {
      "midi": 55,
      "hit": false,
      "t": 28821.399749999942,
      "d": 102.67846875000032,
      "v": 110
    },
    {
      "midi": 26,
      "hit": false,
      "t": 28928.542499999923,
      "d": 209.8212187499994,
      "v": 110
    },
    {
      "midi": 53,
      "hit": false,
      "t": 28928.54249999994,
      "d": 209.8212187499994,
      "v": 110
    },
    {
      "midi": 26,
      "hit": false,
      "t": 29142.82799999992,
      "d": 316.96396874999846,
      "v": 110
    },
    {
      "midi": 50,
      "hit": false,
      "t": 29142.82799999994,
      "d": 102.67846875000032,
      "v": 110
    },
    {
      "midi": 50,
      "hit": false,
      "t": 29249.97074999994,
      "d": 102.67846875000032,
      "v": 110
    },
    {
      "midi": 60,
      "hit": false,
      "t": 29357.113499999938,
      "d": 209.8212187499994,
      "v": 110
    },
    {
      "midi": 26,
      "hit": false,
      "t": 29464.25624999992,
      "d": 102.67846875000032,
      "v": 110
    },
    {
      "midi": 38,
      "hit": false,
      "t": 29571.398999999918,
      "d": 209.8212187499994,
      "v": 110
    },
    {
      "midi": 58,
      "hit": false,
      "t": 29571.398999999936,
      "d": 102.67846875000032,
      "v": 110
    },
    {
      "midi": 59,
      "hit": false,
      "t": 29678.541749999935,
      "d": 209.8212187499994,
      "v": 110
    },
    {
      "midi": 26,
      "hit": false,
      "t": 29785.684499999916,
      "d": 424.10671875000116,
      "v": 110
    },
    {
      "midi": 60,
      "hit": false,
      "t": 29892.827249999933,
      "d": 209.8212187499994,
      "v": 110
    },
    {
      "midi": 55,
      "hit": false,
      "t": 30107.11274999993,
      "d": 209.8212187499994,
      "v": 110
    },
    {
      "midi": 26,
      "hit": false,
      "t": 30214.255499999916,
      "d": 209.8212187499994,
      "v": 110
    },
    {
      "midi": 54,
      "hit": false,
      "t": 30321.39824999993,
      "d": 209.8212187499994,
      "v": 110
    },
    {
      "midi": 38,
      "hit": false,
      "t": 30428.540999999914,
      "d": 209.8212187499994,
      "v": 110
    },
    {
      "midi": 53,
      "hit": false,
      "t": 30535.683749999927,
      "d": 102.67846875000032,
      "v": 110
    },
    {
      "midi": 26,
      "hit": false,
      "t": 30642.826499999912,
      "d": 209.8212187499994,
      "v": 110
    },
    {
      "midi": 52,
      "hit": false,
      "t": 30642.826499999926,
      "d": 209.8212187499994,
      "v": 110
    },
    {
      "midi": 26,
      "hit": false,
      "t": 30857.11199999991,
      "d": 316.96396874999846,
      "v": 110
    },
    {
      "midi": 50,
      "hit": false,
      "t": 30857.111999999925,
      "d": 102.67846875000032,
      "v": 110
    },
    {
      "midi": 50,
      "hit": false,
      "t": 30964.254749999924,
      "d": 102.67846875000032,
      "v": 110
    },
    {
      "midi": 62,
      "hit": false,
      "t": 31071.397499999923,
      "d": 209.8212187499994,
      "v": 110
    },
    {
      "midi": 26,
      "hit": false,
      "t": 31178.540249999907,
      "d": 102.67846875000032,
      "v": 110
    },
    {
      "midi": 38,
      "hit": false,
      "t": 31285.682999999906,
      "d": 209.8212187499994,
      "v": 110
    },
    {
      "midi": 60,
      "hit": false,
      "t": 31285.68299999992,
      "d": 102.67846875000032,
      "v": 110
    },
    {
      "midi": 61,
      "hit": false,
      "t": 31392.82574999992,
      "d": 209.8212187499994,
      "v": 110
    },
    {
      "midi": 26,
      "hit": false,
      "t": 31499.968499999904,
      "d": 424.10671875000116,
      "v": 110
    },
    {
      "midi": 62,
      "hit": false,
      "t": 31607.111249999918,
      "d": 209.8212187499994,
      "v": 110
    },
    {
      "midi": 57,
      "hit": false,
      "t": 31821.396749999916,
      "d": 209.8212187499994,
      "v": 110
    },
    {
      "midi": 26,
      "hit": false,
      "t": 31928.539499999904,
      "d": 209.8212187499994,
      "v": 110
    },
    {
      "midi": 56,
      "hit": false,
      "t": 32035.682249999914,
      "d": 209.8212187499994,
      "v": 110
    },
    {
      "midi": 38,
      "hit": false,
      "t": 32142.824999999903,
      "d": 209.8212187499994,
      "v": 110
    },
    {
      "midi": 55,
      "hit": false,
      "t": 32249.967749999912,
      "d": 102.67846875000032,
      "v": 110
    },
    {
      "midi": 26,
      "hit": false,
      "t": 32357.1104999999,
      "d": 209.8212187499994,
      "v": 110
    },
    {
      "midi": 53,
      "hit": false,
      "t": 32357.11049999991,
      "d": 209.8212187499994,
      "v": 110
    },
    {
      "midi": 26,
      "hit": false,
      "t": 32571.3959999999,
      "d": 316.9639687500021,
      "v": 110
    },
    {
      "midi": 50,
      "hit": false,
      "t": 32571.39599999991,
      "d": 102.67846875000032,
      "v": 110
    },
    {
      "midi": 50,
      "hit": false,
      "t": 32678.53874999991,
      "d": 102.67846875000032,
      "v": 110
    },
    {
      "midi": 60,
      "hit": false,
      "t": 32785.68149999991,
      "d": 209.82121875000303,
      "v": 110
    },
    {
      "midi": 26,
      "hit": false,
      "t": 32892.8242499999,
      "d": 102.67846874999668,
      "v": 110
    },
    {
      "midi": 38,
      "hit": false,
      "t": 32999.9669999999,
      "d": 209.82121875000303,
      "v": 110
    },
    {
      "midi": 58,
      "hit": false,
      "t": 32999.96699999992,
      "d": 102.67846874999668,
      "v": 110
    },
    {
      "midi": 59,
      "hit": false,
      "t": 33107.109749999916,
      "d": 209.82121875000303,
      "v": 110
    },
    {
      "midi": 26,
      "hit": false,
      "t": 33214.25249999991,
      "d": 424.10671875000116,
      "v": 110
    },
    {
      "midi": 60,
      "hit": false,
      "t": 33321.39524999992,
      "d": 209.82121875000303,
      "v": 110
    },
    {
      "midi": 55,
      "hit": false,
      "t": 33535.68074999993,
      "d": 209.82121875000303,
      "v": 110
    },
    {
      "midi": 26,
      "hit": false,
      "t": 33642.82349999991,
      "d": 209.82121875000303,
      "v": 110
    },
    {
      "midi": 54,
      "hit": false,
      "t": 33749.96624999993,
      "d": 209.82121875000303,
      "v": 110
    },
    {
      "midi": 38,
      "hit": false,
      "t": 33857.10899999992,
      "d": 209.82121875000303,
      "v": 110
    },
    {
      "midi": 53,
      "hit": false,
      "t": 33964.25174999994,
      "d": 102.67846874999668,
      "v": 110
    },
    {
      "midi": 26,
      "hit": false,
      "t": 34071.39449999992,
      "d": 209.82121875000303,
      "v": 110
    },
    {
      "midi": 52,
      "hit": false,
      "t": 34071.39449999994,
      "d": 209.82121875000303,
      "v": 110
    },
    {
      "midi": 26,
      "hit": false,
      "t": 34285.67999999993,
      "d": 316.9639687500021,
      "v": 110
    },
    {
      "midi": 50,
      "hit": false,
      "t": 34285.67999999994,
      "d": 102.67846874999668,
      "v": 110
    },
    {
      "midi": 50,
      "hit": false,
      "t": 34392.82274999994,
      "d": 102.67846874999668,
      "v": 110
    },
    {
      "midi": 62,
      "hit": false,
      "t": 34499.96549999994,
      "d": 209.82121875000303,
      "v": 110
    },
    {
      "midi": 26,
      "hit": false,
      "t": 34607.10824999993,
      "d": 102.67846874999668,
      "v": 110
    },
    {
      "midi": 38,
      "hit": false,
      "t": 34714.25099999993,
      "d": 209.82121875000303,
      "v": 110
    },
    {
      "midi": 60,
      "hit": false,
      "t": 34714.250999999946,
      "d": 102.67846874999668,
      "v": 110
    },
    {
      "midi": 61,
      "hit": false,
      "t": 34821.393749999945,
      "d": 209.82121875000303,
      "v": 110
    },
    {
      "midi": 26,
      "hit": false,
      "t": 34928.53649999994,
      "d": 424.10671875000116,
      "v": 110
    },
    {
      "midi": 62,
      "hit": false,
      "t": 35035.67924999995,
      "d": 209.82121875000303,
      "v": 110
    },
    {
      "midi": 57,
      "hit": false,
      "t": 35249.964749999956,
      "d": 209.82121875000303,
      "v": 110
    },
    {
      "midi": 26,
      "hit": false,
      "t": 35357.10749999994,
      "d": 209.82121875000303,
      "v": 110
    },
    {
      "midi": 56,
      "hit": false,
      "t": 35464.25024999996,
      "d": 209.82121875000303,
      "v": 110
    },
    {
      "midi": 38,
      "hit": false,
      "t": 35571.392999999945,
      "d": 209.82121875000303,
      "v": 110
    },
    {
      "midi": 55,
      "hit": false,
      "t": 35678.535749999966,
      "d": 102.67846874999668,
      "v": 110
    },
    {
      "midi": 26,
      "hit": false,
      "t": 35785.67849999995,
      "d": 209.82121875000303,
      "v": 110
    },
    {
      "midi": 53,
      "hit": false,
      "t": 35785.678499999965,
      "d": 209.82121875000303,
      "v": 110
    },
    {
      "midi": 26,
      "hit": false,
      "t": 35999.963999999956,
      "d": 316.9639687500021,
      "v": 110
    },
    {
      "midi": 50,
      "hit": false,
      "t": 35999.96399999997,
      "d": 102.67846874999668,
      "v": 110
    },
    {
      "midi": 50,
      "hit": false,
      "t": 36107.10674999997,
      "d": 102.67846874999668,
      "v": 110
    },
    {
      "midi": 60,
      "hit": false,
      "t": 36214.24949999997,
      "d": 209.82121875000303,
      "v": 110
    },
    {
      "midi": 26,
      "hit": false,
      "t": 36321.39224999996,
      "d": 102.67846874999668,
      "v": 110
    },
    {
      "midi": 38,
      "hit": false,
      "t": 36428.53499999996,
      "d": 209.82121875000303,
      "v": 110
    },
    {
      "midi": 58,
      "hit": false,
      "t": 36428.534999999974,
      "d": 102.67846874999668,
      "v": 110
    },
    {
      "midi": 59,
      "hit": false,
      "t": 36535.67774999997,
      "d": 209.82121875000303,
      "v": 110
    },
    {
      "midi": 26,
      "hit": false,
      "t": 36642.820499999965,
      "d": 424.10671875000116,
      "v": 110
    },
    {
      "midi": 60,
      "hit": false,
      "t": 36749.96324999998,
      "d": 209.82121875000303,
      "v": 110
    },
    {
      "midi": 55,
      "hit": false,
      "t": 36964.248749999984,
      "d": 209.82121875000303,
      "v": 110
    },
    {
      "midi": 26,
      "hit": false,
      "t": 37071.39149999997,
      "d": 209.82121875000303,
      "v": 110
    },
    {
      "midi": 54,
      "hit": false,
      "t": 37178.53424999999,
      "d": 209.82121875000303,
      "v": 110
    },
    {
      "midi": 38,
      "hit": false,
      "t": 37285.676999999974,
      "d": 209.82121875000303,
      "v": 110
    },
    {
      "midi": 53,
      "hit": false,
      "t": 37392.819749999995,
      "d": 102.67846874999668,
      "v": 110
    },
    {
      "midi": 26,
      "hit": false,
      "t": 37499.96249999998,
      "d": 209.82121875000303,
      "v": 110
    },
    {
      "midi": 52,
      "hit": false,
      "t": 37499.962499999994,
      "d": 209.82121875000303,
      "v": 110
    },
    {
      "midi": 26,
      "hit": false,
      "t": 37714.247999999985,
      "d": 316.9639687500021,
      "v": 110
    },
    {
      "midi": 50,
      "hit": false,
      "t": 37714.248,
      "d": 102.67846874999668,
      "v": 110
    },
    {
      "midi": 50,
      "hit": false,
      "t": 37821.39075,
      "d": 102.67846874999668,
      "v": 110
    },
    {
      "midi": 62,
      "hit": false,
      "t": 37928.5335,
      "d": 209.82121875000303,
      "v": 110
    },
    {
      "midi": 26,
      "hit": false,
      "t": 38035.67624999999,
      "d": 102.67846874999668,
      "v": 110
    },
    {
      "midi": 38,
      "hit": false,
      "t": 38142.81899999999,
      "d": 209.82121875000303,
      "v": 110
    },
    {
      "midi": 60,
      "hit": false,
      "t": 38142.819,
      "d": 102.67846874999668,
      "v": 110
    },
    {
      "midi": 61,
      "hit": false,
      "t": 38249.96175,
      "d": 209.82121875000303,
      "v": 110
    },
    {
      "midi": 26,
      "hit": false,
      "t": 38357.104499999994,
      "d": 424.10671875000116,
      "v": 110
    },
    {
      "midi": 62,
      "hit": false,
      "t": 38464.24725000001,
      "d": 209.82121875000303,
      "v": 110
    },
    {
      "midi": 57,
      "hit": false,
      "t": 38678.53275000001,
      "d": 209.82121875000303,
      "v": 110
    },
    {
      "midi": 26,
      "hit": false,
      "t": 38785.6755,
      "d": 209.82121875000303,
      "v": 110
    },
    {
      "midi": 56,
      "hit": false,
      "t": 38892.81825000002,
      "d": 209.82121875000303,
      "v": 110
    },
    {
      "midi": 38,
      "hit": false,
      "t": 38999.961,
      "d": 209.82121875000303,
      "v": 110
    },
    {
      "midi": 55,
      "hit": false,
      "t": 39107.103750000024,
      "d": 102.67846874999668,
      "v": 110
    },
    {
      "midi": 26,
      "hit": false,
      "t": 39214.24650000001,
      "d": 209.82121875000303,
      "v": 110
    },
    {
      "midi": 53,
      "hit": false,
      "t": 39214.24650000002,
      "d": 209.82121875000303,
      "v": 110
    },
    {
      "midi": 36,
      "hit": false,
      "t": 39428.532000000014,
      "d": 102.67846874999668,
      "v": 110
    },
    {
      "midi": 48,
      "hit": false,
      "t": 39428.53200000003,
      "d": 102.67846874999668,
      "v": 110
    },
    {
      "midi": 60,
      "hit": false,
      "t": 39428.53200000003,
      "d": 102.67846874999668,
      "v": 110
    },
    {
      "midi": 36,
      "hit": false,
      "t": 39535.67475000001,
      "d": 209.82121875000303,
      "v": 110
    },
    {
      "midi": 48,
      "hit": false,
      "t": 39535.67475000003,
      "d": 209.82121875000303,
      "v": 110
    },
    {
      "midi": 60,
      "hit": false,
      "t": 39535.67475000003,
      "d": 209.82121875000303,
      "v": 110
    },
    {
      "midi": 36,
      "hit": false,
      "t": 39749.96025000002,
      "d": 102.67846874999668,
      "v": 110
    },
    {
      "midi": 45,
      "hit": false,
      "t": 39749.96025000003,
      "d": 102.67846874999668,
      "v": 110
    },
    {
      "midi": 57,
      "hit": false,
      "t": 39749.96025000003,
      "d": 102.67846874999668,
      "v": 110
    },
    {
      "midi": 38,
      "hit": false,
      "t": 39857.10300000002,
      "d": 102.67846874999668,
      "v": 110
    },
    {
      "midi": 50,
      "hit": false,
      "t": 39857.10300000003,
      "d": 102.67846874999668,
      "v": 110
    },
    {
      "midi": 62,
      "hit": false,
      "t": 39857.10300000003,
      "d": 102.67846874999668,
      "v": 110
    },
    {
      "midi": 38,
      "hit": false,
      "t": 39964.24575000002,
      "d": 209.82121875000303,
      "v": 110
    },
    {
      "midi": 50,
      "hit": false,
      "t": 39964.24575000003,
      "d": 209.82121875000303,
      "v": 110
    },
    {
      "midi": 62,
      "hit": false,
      "t": 39964.24575000003,
      "d": 209.82121875000303,
      "v": 110
    },
    {
      "midi": 36,
      "hit": false,
      "t": 40178.53125000002,
      "d": 102.67846874999668,
      "v": 110
    },
    {
      "midi": 45,
      "hit": false,
      "t": 40178.53125000004,
      "d": 102.67846874999668,
      "v": 110
    },
    {
      "midi": 57,
      "hit": false,
      "t": 40178.53125000004,
      "d": 102.67846874999668,
      "v": 110
    },
    {
      "midi": 36,
      "hit": false,
      "t": 40285.67400000002,
      "d": 102.67846874999668,
      "v": 110
    },
    {
      "midi": 45,
      "hit": false,
      "t": 40285.674000000035,
      "d": 102.67846874999668,
      "v": 110
    },
    {
      "midi": 57,
      "hit": false,
      "t": 40285.674000000035,
      "d": 102.67846874999668,
      "v": 110
    },
    {
      "midi": 36,
      "hit": false,
      "t": 40392.81675000002,
      "d": 102.67846874999668,
      "v": 110
    },
    {
      "midi": 48,
      "hit": false,
      "t": 40392.816750000035,
      "d": 102.67846874999668,
      "v": 110
    },
    {
      "midi": 60,
      "hit": false,
      "t": 40392.816750000035,
      "d": 102.67846874999668,
      "v": 110
    },
    {
      "midi": 36,
      "hit": false,
      "t": 40499.95950000002,
      "d": 102.67846874999668,
      "v": 110
    },
    {
      "midi": 45,
      "hit": false,
      "t": 40499.95950000003,
      "d": 102.67846874999668,
      "v": 110
    },
    {
      "midi": 57,
      "hit": false,
      "t": 40499.95950000003,
      "d": 102.67846874999668,
      "v": 110
    },
    {
      "midi": 38,
      "hit": false,
      "t": 40607.10225000002,
      "d": 102.67846874999668,
      "v": 110
    },
    {
      "midi": 50,
      "hit": false,
      "t": 40607.10225000003,
      "d": 464.2852500000008,
      "v": 110
    },
    {
      "midi": 62,
      "hit": false,
      "t": 40607.10225000003,
      "d": 464.2852500000008,
      "v": 110
    },
    {
      "midi": 38,
      "hit": false,
      "t": 41142.81600000001,
      "d": 102.67846874999668,
      "v": 110
    },
    {
      "midi": 62,
      "hit": false,
      "t": 41142.816000000035,
      "d": 749.9992500000008,
      "v": 110
    },
    {
      "midi": 65,
      "hit": false,
      "t": 41142.816000000035,
      "d": 749.9992500000008,
      "v": 110
    },
    {
      "midi": 69,
      "hit": false,
      "t": 41142.816000000035,
      "d": 749.9992500000008,
      "v": 110
    },
    {
      "midi": 38,
      "hit": false,
      "t": 41249.95875000001,
      "d": 102.67846874999668,
      "v": 110
    },
    {
      "midi": 50,
      "hit": false,
      "t": 41357.10150000001,
      "d": 102.67846874999668,
      "v": 110
    },
    {
      "midi": 38,
      "hit": false,
      "t": 41464.24425000001,
      "d": 102.67846874999668,
      "v": 110
    },
    {
      "midi": 48,
      "hit": false,
      "t": 41571.38700000001,
      "d": 102.67846874999668,
      "v": 110
    },
    {
      "midi": 50,
      "hit": false,
      "t": 41678.52975000001,
      "d": 209.82121875000303,
      "v": 110
    },
    {
      "midi": 38,
      "hit": false,
      "t": 41892.815250000014,
      "d": 102.67846874999668,
      "v": 110
    },
    {
      "midi": 38,
      "hit": false,
      "t": 41999.95800000001,
      "d": 102.67846874999668,
      "v": 110
    },
    {
      "midi": 38,
      "hit": false,
      "t": 42107.10075000001,
      "d": 102.67846874999668,
      "v": 110
    },
    {
      "midi": 50,
      "hit": false,
      "t": 42214.24350000001,
      "d": 102.67846874999668,
      "v": 110
    },
    {
      "midi": 62,
      "hit": false,
      "t": 42214.24350000003,
      "d": 209.82121875000303,
      "v": 110
    },
    {
      "midi": 65,
      "hit": false,
      "t": 42214.24350000003,
      "d": 209.82121875000303,
      "v": 110
    },
    {
      "midi": 69,
      "hit": false,
      "t": 42214.24350000003,
      "d": 209.82121875000303,
      "v": 110
    },
    {
      "midi": 38,
      "hit": false,
      "t": 42321.38625000001,
      "d": 102.67846874999668,
      "v": 110
    },
    {
      "midi": 48,
      "hit": false,
      "t": 42428.52900000001,
      "d": 102.67846874999668,
      "v": 110
    },
    {
      "midi": 69,
      "hit": false,
      "t": 42428.52900000004,
      "d": 102.67846874999668,
      "v": 110
    },
    {
      "midi": 50,
      "hit": false,
      "t": 42535.67175000001,
      "d": 209.82121875000303,
      "v": 110
    },
    {
      "midi": 67,
      "hit": false,
      "t": 42535.67175000004,
      "d": 102.67846874999668,
      "v": 110
    },
    {
      "midi": 65,
      "hit": false,
      "t": 42642.81450000004,
      "d": 102.67846874999668,
      "v": 110
    },
    {
      "midi": 38,
      "hit": false,
      "t": 42749.957250000014,
      "d": 102.67846874999668,
      "v": 110
    },
    {
      "midi": 60,
      "hit": false,
      "t": 42749.957250000036,
      "d": 857.1419999999998,
      "v": 110
    },
    {
      "midi": 64,
      "hit": false,
      "t": 42749.957250000036,
      "d": 857.1419999999998,
      "v": 110
    },
    {
      "midi": 67,
      "hit": false,
      "t": 42749.957250000036,
      "d": 857.1419999999998,
      "v": 110
    },
    {
      "midi": 38,
      "hit": false,
      "t": 42857.10000000001,
      "d": 102.67846874999668,
      "v": 110
    },
    {
      "midi": 38,
      "hit": false,
      "t": 42964.24275000001,
      "d": 102.67846874999668,
      "v": 110
    },
    {
      "midi": 48,
      "hit": false,
      "t": 43071.38550000001,
      "d": 102.67846874999668,
      "v": 110
    },
    {
      "midi": 38,
      "hit": false,
      "t": 43178.52825000001,
      "d": 102.67846874999668,
      "v": 110
    },
    {
      "midi": 46,
      "hit": false,
      "t": 43285.67100000001,
      "d": 102.67846874999668,
      "v": 110
    },
    {
      "midi": 48,
      "hit": false,
      "t": 43392.81375000001,
      "d": 209.82121875000303,
      "v": 110
    },
    {
      "midi": 38,
      "hit": false,
      "t": 43607.099250000014,
      "d": 102.67846874999668,
      "v": 110
    },
    {
      "midi": 36,
      "hit": false,
      "t": 43714.24200000001,
      "d": 102.67846874999668,
      "v": 110
    },
    {
      "midi": 36,
      "hit": false,
      "t": 43821.38475000001,
      "d": 102.67846874999668,
      "v": 110
    },
    {
      "midi": 60,
      "hit": false,
      "t": 43821.384750000034,
      "d": 102.67846874999668,
      "v": 110
    },
    {
      "midi": 67,
      "hit": false,
      "t": 43821.384750000034,
      "d": 102.67846874999668,
      "v": 110
    },
    {
      "midi": 48,
      "hit": false,
      "t": 43928.52750000001,
      "d": 102.67846874999668,
      "v": 110
    },
    {
      "midi": 60,
      "hit": false,
      "t": 43928.52750000003,
      "d": 209.82121875000303,
      "v": 110
    },
    {
      "midi": 64,
      "hit": false,
      "t": 43928.52750000003,
      "d": 209.82121875000303,
      "v": 110
    },
    {
      "midi": 69,
      "hit": false,
      "t": 43928.52750000003,
      "d": 209.82121875000303,
      "v": 110
    },
    {
      "midi": 36,
      "hit": false,
      "t": 44035.67025000001,
      "d": 102.67846874999668,
      "v": 110
    },
    {
      "midi": 46,
      "hit": false,
      "t": 44142.81300000001,
      "d": 102.67846874999668,
      "v": 110
    },
    {
      "midi": 60,
      "hit": false,
      "t": 44142.81300000004,
      "d": 102.67846874999668,
      "v": 110
    },
    {
      "midi": 67,
      "hit": false,
      "t": 44142.81300000004,
      "d": 102.67846874999668,
      "v": 110
    },
    {
      "midi": 48,
      "hit": false,
      "t": 44249.95575000001,
      "d": 209.82121875000303,
      "v": 110
    },
    {
      "midi": 64,
      "hit": false,
      "t": 44249.95575000004,
      "d": 209.82121875000303,
      "v": 110
    },
    {
      "midi": 38,
      "hit": false,
      "t": 44464.241250000014,
      "d": 102.67846874999668,
      "v": 110
    },
    {
      "midi": 62,
      "hit": false,
      "t": 44464.24125000004,
      "d": 316.9639687500021,
      "v": 110
    },
    {
      "midi": 65,
      "hit": false,
      "t": 44464.24125000004,
      "d": 316.9639687500021,
      "v": 110
    },
    {
      "midi": 38,
      "hit": false,
      "t": 44571.38400000001,
      "d": 102.67846874999668,
      "v": 110
    },
    {
      "midi": 38,
      "hit": false,
      "t": 44678.52675000001,
      "d": 102.67846874999668,
      "v": 110
    },
    {
      "midi": 50,
      "hit": false,
      "t": 44785.66950000001,
      "d": 102.67846874999668,
      "v": 110
    },
    {
      "midi": 65,
      "hit": false,
      "t": 44785.66950000005,
      "d": 102.67846874999668,
      "v": 110
    },
    {
      "midi": 38,
      "hit": false,
      "t": 44892.81225000001,
      "d": 102.67846874999668,
      "v": 110
    },
    {
      "midi": 69,
      "hit": false,
      "t": 44892.812250000046,
      "d": 102.67846874999668,
      "v": 110
    },
    {
      "midi": 48,
      "hit": false,
      "t": 44999.95500000001,
      "d": 102.67846874999668,
      "v": 110
    },
    {
      "midi": 74,
      "hit": false,
      "t": 44999.955000000045,
      "d": 209.82121875000303,
      "v": 110
    },
    {
      "midi": 50,
      "hit": false,
      "t": 45107.09775000001,
      "d": 209.82121875000303,
      "v": 110
    },
    {
      "midi": 69,
      "hit": false,
      "t": 45214.24050000005,
      "d": 209.82121875000303,
      "v": 110
    },
    {
      "midi": 38,
      "hit": false,
      "t": 45321.38325000001,
      "d": 102.67846874999668,
      "v": 110
    },
    {
      "midi": 38,
      "hit": false,
      "t": 45428.52600000001,
      "d": 102.67846874999668,
      "v": 110
    },
    {
      "midi": 67,
      "hit": false,
      "t": 45428.526000000056,
      "d": 102.67846874999668,
      "v": 110
    },
    {
      "midi": 38,
      "hit": false,
      "t": 45535.66875000001,
      "d": 102.67846874999668,
      "v": 110
    },
    {
      "midi": 69,
      "hit": false,
      "t": 45535.668750000055,
      "d": 209.82121875000303,
      "v": 110
    },
    {
      "midi": 50,
      "hit": false,
      "t": 45642.81150000001,
      "d": 102.67846874999668,
      "v": 110
    },
    {
      "midi": 38,
      "hit": false,
      "t": 45749.95425000001,
      "d": 102.67846874999668,
      "v": 110
    },
    {
      "midi": 67,
      "hit": false,
      "t": 45749.95425000006,
      "d": 209.82121875000303,
      "v": 110
    },
    {
      "midi": 48,
      "hit": false,
      "t": 45857.09700000001,
      "d": 102.67846874999668,
      "v": 110
    },
    {
      "midi": 50,
      "hit": false,
      "t": 45964.23975000001,
      "d": 209.82121875000303,
      "v": 110
    },
    {
      "midi": 64,
      "hit": false,
      "t": 45964.239750000066,
      "d": 102.67846874999668,
      "v": 110
    },
    {
      "midi": 65,
      "hit": false,
      "t": 46071.382500000065,
      "d": 209.82121875000303,
      "v": 110
    },
    {
      "midi": 38,
      "hit": false,
      "t": 46178.52525000001,
      "d": 102.67846874999668,
      "v": 110
    },
    {
      "midi": 38,
      "hit": false,
      "t": 46285.66800000001,
      "d": 102.67846874999668,
      "v": 110
    },
    {
      "midi": 65,
      "hit": false,
      "t": 46285.66800000007,
      "d": 209.82121875000303,
      "v": 110
    },
    {
      "midi": 69,
      "hit": false,
      "t": 46285.66800000007,
      "d": 209.82121875000303,
      "v": 110
    },
    {
      "midi": 74,
      "hit": false,
      "t": 46285.66800000007,
      "d": 209.82121875000303,
      "v": 110
    },
    {
      "midi": 38,
      "hit": false,
      "t": 46392.81075000001,
      "d": 102.67846874999668,
      "v": 110
    },
    {
      "midi": 50,
      "hit": false,
      "t": 46499.95350000001,
      "d": 102.67846874999668,
      "v": 110
    },
    {
      "midi": 74,
      "hit": false,
      "t": 46499.953500000076,
      "d": 102.67846874999668,
      "v": 110
    },
    {
      "midi": 38,
      "hit": false,
      "t": 46607.09625000001,
      "d": 102.67846874999668,
      "v": 110
    },
    {
      "midi": 76,
      "hit": false,
      "t": 46607.096250000075,
      "d": 102.67846874999668,
      "v": 110
    },
    {
      "midi": 48,
      "hit": false,
      "t": 46714.23900000001,
      "d": 102.67846874999668,
      "v": 110
    },
    {
      "midi": 77,
      "hit": false,
      "t": 46714.239000000074,
      "d": 102.67846874999668,
      "v": 110
    },
    {
      "midi": 50,
      "hit": false,
      "t": 46821.38175000001,
      "d": 209.82121875000303,
      "v": 110
    },
    {
      "midi": 81,
      "hit": false,
      "t": 46821.38175000007,
      "d": 209.82121875000303,
      "v": 110
    },
    {
      "midi": 38,
      "hit": false,
      "t": 47035.66725000001,
      "d": 102.67846874999668,
      "v": 110
    },
    {
      "midi": 74,
      "hit": false,
      "t": 47035.66725000008,
      "d": 209.82121875000303,
      "v": 110
    },
    {
      "midi": 38,
      "hit": false,
      "t": 47142.81000000001,
      "d": 102.67846874999668,
      "v": 110
    },
    {
      "midi": 38,
      "hit": false,
      "t": 47249.95275000001,
      "d": 102.67846874999668,
      "v": 110
    },
    {
      "midi": 69,
      "hit": false,
      "t": 47249.952750000084,
      "d": 102.67846874999668,
      "v": 110
    },
    {
      "midi": 50,
      "hit": false,
      "t": 47357.09550000001,
      "d": 102.67846874999668,
      "v": 110
    },
    {
      "midi": 72,
      "hit": false,
      "t": 47357.09550000008,
      "d": 102.67846874999668,
      "v": 110
    },
    {
      "midi": 38,
      "hit": false,
      "t": 47464.23825000001,
      "d": 102.67846874999668,
      "v": 110
    },
    {
      "midi": 74,
      "hit": false,
      "t": 47464.23825000008,
      "d": 102.67846874999668,
      "v": 110
    },
    {
      "midi": 48,
      "hit": false,
      "t": 47571.38100000001,
      "d": 102.67846874999668,
      "v": 110
    },
    {
      "midi": 77,
      "hit": false,
      "t": 47571.38100000008,
      "d": 102.67846874999668,
      "v": 110
    },
    {
      "midi": 50,
      "hit": false,
      "t": 47678.52375000001,
      "d": 209.82121875000303,
      "v": 110
    },
    {
      "midi": 76,
      "hit": false,
      "t": 47678.52375000008,
      "d": 102.67846874999668,
      "v": 110
    },
    {
      "midi": 74,
      "hit": false,
      "t": 47785.66650000008,
      "d": 102.67846874999668,
      "v": 110
    },
    {
      "midi": 38,
      "hit": false,
      "t": 47892.80925000001,
      "d": 102.67846874999668,
      "v": 110
    },
    {
      "midi": 72,
      "hit": false,
      "t": 47892.80925000008,
      "d": 102.67846874999668,
      "v": 110
    },
    {
      "midi": 38,
      "hit": false,
      "t": 47999.95200000001,
      "d": 102.67846874999668,
      "v": 110
    },
    {
      "midi": 62,
      "hit": false,
      "t": 47999.95200000008,
      "d": 749.9992500000008,
      "v": 110
    },
    {
      "midi": 65,
      "hit": false,
      "t": 47999.95200000008,
      "d": 749.9992500000008,
      "v": 110
    },
    {
      "midi": 69,
      "hit": false,
      "t": 47999.95200000008,
      "d": 749.9992500000008,
      "v": 110
    },
    {
      "midi": 38,
      "hit": false,
      "t": 48107.09475000001,
      "d": 102.67846874999668,
      "v": 110
    },
    {
      "midi": 50,
      "hit": false,
      "t": 48214.23750000001,
      "d": 102.67846874999668,
      "v": 110
    },
    {
      "midi": 38,
      "hit": false,
      "t": 48321.38025000001,
      "d": 102.67846874999668,
      "v": 110
    },
    {
      "midi": 48,
      "hit": false,
      "t": 48428.52300000001,
      "d": 102.67846874999668,
      "v": 110
    },
    {
      "midi": 50,
      "hit": false,
      "t": 48535.66575000001,
      "d": 209.82121875000303,
      "v": 110
    },
    {
      "midi": 38,
      "hit": false,
      "t": 48749.95125000001,
      "d": 102.67846874999668,
      "v": 110
    },
    {
      "midi": 38,
      "hit": false,
      "t": 48857.09400000001,
      "d": 102.67846874999668,
      "v": 110
    },
    {
      "midi": 38,
      "hit": false,
      "t": 48964.23675000001,
      "d": 102.67846874999668,
      "v": 110
    },
    {
      "midi": 50,
      "hit": false,
      "t": 49071.37950000001,
      "d": 102.67846874999668,
      "v": 110
    },
    {
      "midi": 62,
      "hit": false,
      "t": 49071.379500000075,
      "d": 209.82121875000303,
      "v": 110
    },
    {
      "midi": 65,
      "hit": false,
      "t": 49071.379500000075,
      "d": 209.82121875000303,
      "v": 110
    },
    {
      "midi": 69,
      "hit": false,
      "t": 49071.379500000075,
      "d": 209.82121875000303,
      "v": 110
    },
    {
      "midi": 38,
      "hit": false,
      "t": 49178.52225000001,
      "d": 102.67846874999668,
      "v": 110
    },
    {
      "midi": 48,
      "hit": false,
      "t": 49285.66500000001,
      "d": 102.67846874999668,
      "v": 110
    },
    {
      "midi": 69,
      "hit": false,
      "t": 49285.66500000008,
      "d": 102.67846874999668,
      "v": 110
    },
    {
      "midi": 50,
      "hit": false,
      "t": 49392.80775000001,
      "d": 209.82121875000303,
      "v": 110
    },
    {
      "midi": 67,
      "hit": false,
      "t": 49392.80775000008,
      "d": 102.67846874999668,
      "v": 110
    },
    {
      "midi": 65,
      "hit": false,
      "t": 49499.95050000008,
      "d": 102.67846874999668,
      "v": 110
    },
    {
      "midi": 38,
      "hit": false,
      "t": 49607.09325000001,
      "d": 102.67846874999668,
      "v": 110
    },
    {
      "midi": 60,
      "hit": false,
      "t": 49607.09325000008,
      "d": 857.1419999999998,
      "v": 110
    },
    {
      "midi": 64,
      "hit": false,
      "t": 49607.09325000008,
      "d": 857.1419999999998,
      "v": 110
    },
    {
      "midi": 67,
      "hit": false,
      "t": 49607.09325000008,
      "d": 857.1419999999998,
      "v": 110
    },
    {
      "midi": 38,
      "hit": false,
      "t": 49714.23600000001,
      "d": 102.67846874999668,
      "v": 110
    },
    {
      "midi": 38,
      "hit": false,
      "t": 49821.37875000001,
      "d": 102.67846874999668,
      "v": 110
    },
    {
      "midi": 48,
      "hit": false,
      "t": 49928.52150000001,
      "d": 102.67846874999668,
      "v": 110
    },
    {
      "midi": 38,
      "hit": false,
      "t": 50035.66425000001,
      "d": 102.67846874999668,
      "v": 110
    },
    {
      "midi": 46,
      "hit": false,
      "t": 50142.80700000001,
      "d": 102.67846874999668,
      "v": 110
    },
    {
      "midi": 48,
      "hit": false,
      "t": 50249.94975000001,
      "d": 209.82121875000303,
      "v": 110
    },
    {
      "midi": 38,
      "hit": false,
      "t": 50464.23525000001,
      "d": 102.67846874999668,
      "v": 110
    },
    {
      "midi": 36,
      "hit": false,
      "t": 50571.37800000001,
      "d": 102.67846874999668,
      "v": 110
    },
    {
      "midi": 36,
      "hit": false,
      "t": 50678.52075000001,
      "d": 102.67846874999668,
      "v": 110
    },
    {
      "midi": 60,
      "hit": false,
      "t": 50678.520750000076,
      "d": 102.67846874999668,
      "v": 110
    },
    {
      "midi": 67,
      "hit": false,
      "t": 50678.520750000076,
      "d": 102.67846874999668,
      "v": 110
    },
    {
      "midi": 48,
      "hit": false,
      "t": 50785.66350000001,
      "d": 102.67846874999668,
      "v": 110
    },
    {
      "midi": 60,
      "hit": false,
      "t": 50785.663500000075,
      "d": 209.82121875000303,
      "v": 110
    },
    {
      "midi": 64,
      "hit": false,
      "t": 50785.663500000075,
      "d": 209.82121875000303,
      "v": 110
    },
    {
      "midi": 69,
      "hit": false,
      "t": 50785.663500000075,
      "d": 209.82121875000303,
      "v": 110
    },
    {
      "midi": 36,
      "hit": false,
      "t": 50892.80625000001,
      "d": 102.67846874999668,
      "v": 110
    },
    {
      "midi": 46,
      "hit": false,
      "t": 50999.94900000001,
      "d": 102.67846874999668,
      "v": 110
    },
    {
      "midi": 60,
      "hit": false,
      "t": 50999.94900000008,
      "d": 102.67846874999668,
      "v": 110
    },
    {
      "midi": 67,
      "hit": false,
      "t": 50999.94900000008,
      "d": 102.67846874999668,
      "v": 110
    },
    {
      "midi": 48,
      "hit": false,
      "t": 51107.09175000001,
      "d": 209.82121875000303,
      "v": 110
    },
    {
      "midi": 64,
      "hit": false,
      "t": 51107.09175000008,
      "d": 209.82121875000303,
      "v": 110
    },
    {
      "midi": 38,
      "hit": false,
      "t": 51321.37725000001,
      "d": 102.67846874999668,
      "v": 110
    },
    {
      "midi": 62,
      "hit": false,
      "t": 51321.377250000085,
      "d": 316.9639687500021,
      "v": 110
    },
    {
      "midi": 65,
      "hit": false,
      "t": 51321.377250000085,
      "d": 316.9639687500021,
      "v": 110
    },
    {
      "midi": 38,
      "hit": false,
      "t": 51428.52000000001,
      "d": 102.67846874999668,
      "v": 110
    },
    {
      "midi": 38,
      "hit": false,
      "t": 51535.66275000001,
      "d": 102.67846874999668,
      "v": 110
    },
    {
      "midi": 50,
      "hit": false,
      "t": 51642.80550000001,
      "d": 102.67846874999668,
      "v": 110
    },
    {
      "midi": 65,
      "hit": false,
      "t": 51642.80550000009,
      "d": 102.67846874999668,
      "v": 110
    },
    {
      "midi": 38,
      "hit": false,
      "t": 51749.94825000001,
      "d": 102.67846874999668,
      "v": 110
    },
    {
      "midi": 69,
      "hit": false,
      "t": 51749.94825000009,
      "d": 102.67846874999668,
      "v": 110
    },
    {
      "midi": 48,
      "hit": false,
      "t": 51857.09100000001,
      "d": 102.67846874999668,
      "v": 110
    },
    {
      "midi": 74,
      "hit": false,
      "t": 51857.09100000009,
      "d": 209.82121875000303,
      "v": 110
    },
    {
      "midi": 50,
      "hit": false,
      "t": 51964.23375000001,
      "d": 209.82121875000303,
      "v": 110
    },
    {
      "midi": 69,
      "hit": false,
      "t": 52071.37650000009,
      "d": 209.82121875000303,
      "v": 110
    },
    {
      "midi": 38,
      "hit": false,
      "t": 52178.51925000001,
      "d": 102.67846874999668,
      "v": 110
    },
    {
      "midi": 38,
      "hit": false,
      "t": 52285.66200000001,
      "d": 102.67846874999668,
      "v": 110
    },
    {
      "midi": 67,
      "hit": false,
      "t": 52285.6620000001,
      "d": 102.67846874999668,
      "v": 110
    },
    {
      "midi": 38,
      "hit": false,
      "t": 52392.80475000001,
      "d": 102.67846874999668,
      "v": 110
    },
    {
      "midi": 69,
      "hit": false,
      "t": 52392.8047500001,
      "d": 209.82121875000303,
      "v": 110
    },
    {
      "midi": 50,
      "hit": false,
      "t": 52499.94750000001,
      "d": 102.67846874999668,
      "v": 110
    },
    {
      "midi": 38,
      "hit": false,
      "t": 52607.09025000001,
      "d": 102.67846874999668,
      "v": 110
    },
    {
      "midi": 67,
      "hit": false,
      "t": 52607.0902500001,
      "d": 209.82121875000303,
      "v": 110
    },
    {
      "midi": 48,
      "hit": false,
      "t": 52714.23300000001,
      "d": 102.67846874999668,
      "v": 110
    },
    {
      "midi": 50,
      "hit": false,
      "t": 52821.37575000001,
      "d": 209.82121875000303,
      "v": 110
    },
    {
      "midi": 64,
      "hit": false,
      "t": 52821.37575000011,
      "d": 102.67846874999668,
      "v": 110
    },
    {
      "midi": 65,
      "hit": false,
      "t": 52928.51850000011,
      "d": 209.82121875000303,
      "v": 110
    },
    {
      "midi": 38,
      "hit": false,
      "t": 53035.66125000001,
      "d": 102.67846874999668,
      "v": 110
    },
    {
      "midi": 36,
      "hit": false,
      "t": 53142.80400000001,
      "d": 102.67846874999668,
      "v": 110
    },
    {
      "midi": 67,
      "hit": false,
      "t": 53142.80400000011,
      "d": 102.67846874999668,
      "v": 110
    },
    {
      "midi": 72,
      "hit": false,
      "t": 53142.80400000011,
      "d": 102.67846874999668,
      "v": 110
    },
    {
      "midi": 36,
      "hit": false,
      "t": 53249.94675000001,
      "d": 209.82121875000303,
      "v": 110
    },
    {
      "midi": 67,
      "hit": false,
      "t": 53249.94675000011,
      "d": 209.82121875000303,
      "v": 110
    },
    {
      "midi": 72,
      "hit": false,
      "t": 53249.94675000011,
      "d": 209.82121875000303,
      "v": 110
    },
    {
      "midi": 36,
      "hit": false,
      "t": 53464.232250000015,
      "d": 102.67846874999668,
      "v": 110
    },
    {
      "midi": 69,
      "hit": false,
      "t": 53464.23225000012,
      "d": 102.67846874999668,
      "v": 110
    },
    {
      "midi": 38,
      "hit": false,
      "t": 53571.375000000015,
      "d": 102.67846874999668,
      "v": 110
    },
    {
      "midi": 69,
      "hit": false,
      "t": 53571.37500000012,
      "d": 102.67846874999668,
      "v": 110
    },
    {
      "midi": 74,
      "hit": false,
      "t": 53571.37500000012,
      "d": 102.67846874999668,
      "v": 110
    },
    {
      "midi": 77,
      "hit": false,
      "t": 53571.37500000012,
      "d": 102.67846874999668,
      "v": 110
    },
    {
      "midi": 38,
      "hit": false,
      "t": 53678.51775000001,
      "d": 209.82121875000303,
      "v": 110
    },
    {
      "midi": 69,
      "hit": false,
      "t": 53678.517750000115,
      "d": 209.82121875000303,
      "v": 110
    },
    {
      "midi": 74,
      "hit": false,
      "t": 53678.517750000115,
      "d": 209.82121875000303,
      "v": 110
    },
    {
      "midi": 77,
      "hit": false,
      "t": 53678.517750000115,
      "d": 209.82121875000303,
      "v": 110
    },
    {
      "midi": 36,
      "hit": false,
      "t": 53892.80325000002,
      "d": 102.67846874999668,
      "v": 110
    },
    {
      "midi": 64,
      "hit": false,
      "t": 53892.80325000012,
      "d": 102.67846874999668,
      "v": 110
    },
    {
      "midi": 69,
      "hit": false,
      "t": 53892.80325000012,
      "d": 102.67846874999668,
      "v": 110
    },
    {
      "midi": 36,
      "hit": false,
      "t": 53999.94600000002,
      "d": 102.67846874999668,
      "v": 110
    },
    {
      "midi": 64,
      "hit": false,
      "t": 53999.94600000012,
      "d": 102.67846874999668,
      "v": 110
    },
    {
      "midi": 69,
      "hit": false,
      "t": 53999.94600000012,
      "d": 102.67846874999668,
      "v": 110
    },
    {
      "midi": 36,
      "hit": false,
      "t": 54107.08875000002,
      "d": 102.67846874999668,
      "v": 110
    },
    {
      "midi": 67,
      "hit": false,
      "t": 54107.08875000012,
      "d": 102.67846874999668,
      "v": 110
    },
    {
      "midi": 72,
      "hit": false,
      "t": 54107.08875000012,
      "d": 102.67846874999668,
      "v": 110
    },
    {
      "midi": 36,
      "hit": false,
      "t": 54214.231500000016,
      "d": 102.67846874999668,
      "v": 110
    },
    {
      "midi": 64,
      "hit": false,
      "t": 54214.23150000012,
      "d": 102.67846874999668,
      "v": 110
    },
    {
      "midi": 69,
      "hit": false,
      "t": 54214.23150000012,
      "d": 102.67846874999668,
      "v": 110
    },
    {
      "midi": 38,
      "hit": false,
      "t": 54321.374250000015,
      "d": 102.67846874999668,
      "v": 110
    },
    {
      "midi": 69,
      "hit": false,
      "t": 54321.37425000012,
      "d": 464.2852500000008,
      "v": 110
    },
    {
      "midi": 74,
      "hit": false,
      "t": 54321.37425000012,
      "d": 464.2852500000008,
      "v": 110
    },
    {
      "midi": 77,
      "hit": false,
      "t": 54321.37425000012,
      "d": 464.2852500000008,
      "v": 110
    }
  ]
}