{
  "jsonPath": "Soundtracks/Video Game Music/Mega Man 2/mega-man-2-drwilystage1.json",
  "path": "Soundtracks\\Video Game Music\\Mega Man 2\\Mega_Man_2_DrWilyStage1.mid",
  "name": "Mega_Man_2_DrWilyStage1",
  "difficulty": "Advanced",
  "bpm": 175.00007291669704,
  "notes": [
    {
      "midi": 37,
      "hit": false,
      "t": 0,
      "d": 167.85707291666668,
      "v": 110
    },
    {
      "midi": 37,
      "hit": false,
      "t": 171.4285,
      "d": 82.14282291666669,
      "v": 110
    },
    {
      "midi": 37,
      "hit": false,
      "t": 257.14275000000004,
      "d": 82.14282291666666,
      "v": 110
    },
    {
      "midi": 37,
      "hit": false,
      "t": 342.857,
      "d": 167.8570729166667,
      "v": 110
    },
    {
      "midi": 37,
      "hit": false,
      "t": 514.2855000000001,
      "d": 82.14282291666666,
      "v": 110
    },
    {
      "midi": 37,
      "hit": false,
      "t": 599.9997500000001,
      "d": 82.14282291666666,
      "v": 110
    },
    {
      "midi": 37,
      "hit": false,
      "t": 685.714,
      "d": 167.85707291666665,
      "v": 110
    },
    {
      "midi": 37,
      "hit": false,
      "t": 857.1425,
      "d": 82.14282291666666,
      "v": 110
    },
    {
      "midi": 37,
      "hit": false,
      "t": 942.85675,
      "d": 82.14282291666666,
      "v": 110
    },
    {
      "midi": 37,
      "hit": false,
      "t": 1028.5710000000001,
      "d": 167.85707291666677,
      "v": 110
    },
    {
      "midi": 37,
      "hit": false,
      "t": 1199.9995000000004,
      "d": 82.14282291666677,
      "v": 110
    },
    {
      "midi": 37,
      "hit": false,
      "t": 1285.7137500000006,
      "d": 82.14282291666677,
      "v": 110
    },
    {
      "midi": 37,
      "hit": false,
      "t": 1371.4280000000008,
      "d": 167.85707291666677,
      "v": 110
    },
    {
      "midi": 37,
      "hit": false,
      "t": 1542.856500000001,
      "d": 82.14282291666677,
      "v": 110
    },
    {
      "midi": 37,
      "hit": false,
      "t": 1628.5707500000012,
      "d": 82.14282291666677,
      "v": 110
    },
    {
      "midi": 37,
      "hit": false,
      "t": 1714.2850000000014,
      "d": 167.85707291666677,
      "v": 110
    },
    {
      "midi": 37,
      "hit": false,
      "t": 1885.7135000000017,
      "d": 82.14282291666677,
      "v": 110
    },
    {
      "midi": 37,
      "hit": false,
      "t": 1971.4277500000019,
      "d": 82.14282291666655,
      "v": 110
    },
    {
      "midi": 37,
      "hit": false,
      "t": 2057.1420000000016,
      "d": 167.85707291666677,
      "v": 110
    },
    {
      "midi": 37,
      "hit": false,
      "t": 2228.5705000000016,
      "d": 82.14282291666677,
      "v": 110
    },
    {
      "midi": 37,
      "hit": false,
      "t": 2314.2847500000016,
      "d": 82.14282291666677,
      "v": 110
    },
    {
      "midi": 35,
      "hit": false,
      "t": 2399.9990000000016,
      "d": 167.85707291666677,
      "v": 110
    },
    {
      "midi": 35,
      "hit": false,
      "t": 2571.4275000000016,
      "d": 82.14282291666677,
      "v": 110
    },
    {
      "midi": 35,
      "hit": false,
      "t": 2657.1417500000016,
      "d": 82.14282291666677,
      "v": 110
    },
    {
      "midi": 33,
      "hit": false,
      "t": 2742.8560000000016,
      "d": 167.85707291666677,
      "v": 110
    },
    {
      "midi": 33,
      "hit": false,
      "t": 2914.2845000000016,
      "d": 82.14282291666677,
      "v": 110
    },
    {
      "midi": 33,
      "hit": false,
      "t": 2999.9987500000016,
      "d": 82.14282291666677,
      "v": 110
    },
    {
      "midi": 33,
      "hit": false,
      "t": 3085.7130000000016,
      "d": 167.85707291666677,
      "v": 110
    },
    {
      "midi": 33,
      "hit": false,
      "t": 3257.1415000000015,
      "d": 82.14282291666677,
      "v": 110
    },
    {
      "midi": 33,
      "hit": false,
      "t": 3342.8557500000015,
      "d": 82.14282291666677,
      "v": 110
    },
    {
      "midi": 33,
      "hit": false,
      "t": 3428.5700000000015,
      "d": 167.85707291666677,
      "v": 110
    },
    {
      "midi": 33,
      "hit": false,
      "t": 3599.9985000000015,
      "d": 82.14282291666677,
      "v": 110
    },
    {
      "midi": 33,
      "hit": false,
      "t": 3685.7127500000015,
      "d": 82.14282291666677,
      "v": 110
    },
    {
      "midi": 33,
      "hit": false,
      "t": 3771.4270000000015,
      "d": 167.85707291666677,
      "v": 110
    },
    {
      "midi": 33,
      "hit": false,
      "t": 3942.8555000000015,
      "d": 82.14282291666677,
      "v": 110
    },
    {
      "midi": 33,
      "hit": false,
      "t": 4028.5697500000015,
      "d": 82.14282291666677,
      "v": 110
    },
    {
      "midi": 33,
      "hit": false,
      "t": 4114.2840000000015,
      "d": 167.85707291666677,
      "v": 110
    },
    {
      "midi": 33,
      "hit": false,
      "t": 4285.7125000000015,
      "d": 82.14282291666677,
      "v": 110
    },
    {
      "midi": 33,
      "hit": false,
      "t": 4371.426750000001,
      "d": 82.14282291666677,
      "v": 110
    },
    {
      "midi": 33,
      "hit": false,
      "t": 4457.141000000001,
      "d": 167.85707291666677,
      "v": 110
    },
    {
      "midi": 33,
      "hit": false,
      "t": 4628.569500000001,
      "d": 82.14282291666677,
      "v": 110
    },
    {
      "midi": 33,
      "hit": false,
      "t": 4714.283750000001,
      "d": 82.14282291666677,
      "v": 110
    },
    {
      "midi": 33,
      "hit": false,
      "t": 4799.998000000001,
      "d": 167.85707291666677,
      "v": 110
    },
    {
      "midi": 33,
      "hit": false,
      "t": 4971.426500000001,
      "d": 82.14282291666677,
      "v": 110
    },
    {
      "midi": 33,
      "hit": false,
      "t": 5057.140750000001,
      "d": 82.14282291666677,
      "v": 110
    },
    {
      "midi": 33,
      "hit": false,
      "t": 5142.855000000001,
      "d": 167.85707291666677,
      "v": 110
    },
    {
      "midi": 33,
      "hit": false,
      "t": 5314.283500000001,
      "d": 82.14282291666677,
      "v": 110
    },
    {
      "midi": 33,
      "hit": false,
      "t": 5399.997750000001,
      "d": 82.14282291666677,
      "v": 110
    },
    {
      "midi": 35,
      "hit": false,
      "t": 5485.712000000001,
      "d": 167.85707291666677,
      "v": 110
    },
    {
      "midi": 35,
      "hit": false,
      "t": 5657.140500000001,
      "d": 82.14282291666677,
      "v": 110
    },
    {
      "midi": 35,
      "hit": false,
      "t": 5742.854750000001,
      "d": 82.14282291666677,
      "v": 110
    },
    {
      "midi": 35,
      "hit": false,
      "t": 5828.569000000001,
      "d": 167.85707291666677,
      "v": 110
    },
    {
      "midi": 35,
      "hit": false,
      "t": 5999.997500000001,
      "d": 82.14282291666677,
      "v": 110
    },
    {
      "midi": 35,
      "hit": false,
      "t": 6085.711750000001,
      "d": 82.14282291666677,
      "v": 110
    },
    {
      "midi": 35,
      "hit": false,
      "t": 6171.426000000001,
      "d": 167.85707291666677,
      "v": 110
    },
    {
      "midi": 35,
      "hit": false,
      "t": 6342.854500000001,
      "d": 82.14282291666677,
      "v": 110
    },
    {
      "midi": 35,
      "hit": false,
      "t": 6428.568750000001,
      "d": 82.14282291666677,
      "v": 110
    },
    {
      "midi": 35,
      "hit": false,
      "t": 6514.283000000001,
      "d": 167.85707291666677,
      "v": 110
    },
    {
      "midi": 35,
      "hit": false,
      "t": 6685.711500000001,
      "d": 82.14282291666677,
      "v": 110
    },
    {
      "midi": 35,
      "hit": false,
      "t": 6771.425750000001,
      "d": 82.14282291666677,
      "v": 110
    },
    {
      "midi": 35,
      "hit": false,
      "t": 6857.140000000001,
      "d": 167.85707291666677,
      "v": 110
    },
    {
      "midi": 35,
      "hit": false,
      "t": 7028.568500000001,
      "d": 82.14282291666677,
      "v": 110
    },
    {
      "midi": 35,
      "hit": false,
      "t": 7114.282750000001,
      "d": 82.14282291666677,
      "v": 110
    },
    {
      "midi": 35,
      "hit": false,
      "t": 7199.997000000001,
      "d": 167.85707291666677,
      "v": 110
    },
    {
      "midi": 35,
      "hit": false,
      "t": 7371.425500000001,
      "d": 82.14282291666677,
      "v": 110
    },
    {
      "midi": 35,
      "hit": false,
      "t": 7457.139750000001,
      "d": 82.14282291666677,
      "v": 110
    },
    {
      "midi": 35,
      "hit": false,
      "t": 7542.854000000001,
      "d": 167.85707291666677,
      "v": 110
    },
    {
      "midi": 35,
      "hit": false,
      "t": 7714.282500000001,
      "d": 82.14282291666677,
      "v": 110
    },
    {
      "midi": 35,
      "hit": false,
      "t": 7799.996750000001,
      "d": 82.14282291666677,
      "v": 110
    },
    {
      "midi": 35,
      "hit": false,
      "t": 7885.711000000001,
      "d": 167.85707291666677,
      "v": 110
    },
    {
      "midi": 35,
      "hit": false,
      "t": 8057.139500000001,
      "d": 82.14282291666677,
      "v": 110
    },
    {
      "midi": 35,
      "hit": false,
      "t": 8142.853750000001,
      "d": 82.14282291666586,
      "v": 110
    },
    {
      "midi": 37,
      "hit": false,
      "t": 8228.568000000001,
      "d": 167.85707291666586,
      "v": 110
    },
    {
      "midi": 37,
      "hit": false,
      "t": 8399.996500000001,
      "d": 82.14282291666677,
      "v": 110
    },
    {
      "midi": 37,
      "hit": false,
      "t": 8485.710750000002,
      "d": 82.14282291666677,
      "v": 110
    },
    {
      "midi": 37,
      "hit": false,
      "t": 8571.425000000003,
      "d": 167.85707291666586,
      "v": 110
    },
    {
      "midi": 37,
      "hit": false,
      "t": 8742.853500000003,
      "d": 82.14282291666677,
      "v": 110
    },
    {
      "midi": 37,
      "hit": false,
      "t": 8828.567750000004,
      "d": 82.14282291666677,
      "v": 110
    },
    {
      "midi": 37,
      "hit": false,
      "t": 8914.282000000005,
      "d": 167.85707291666586,
      "v": 110
    },
    {
      "midi": 37,
      "hit": false,
      "t": 9085.710500000005,
      "d": 82.14282291666677,
      "v": 110
    },
    {
      "midi": 37,
      "hit": false,
      "t": 9171.424750000006,
      "d": 82.14282291666677,
      "v": 110
    },
    {
      "midi": 37,
      "hit": false,
      "t": 9257.139000000006,
      "d": 167.85707291666586,
      "v": 110
    },
    {
      "midi": 37,
      "hit": false,
      "t": 9428.567500000006,
      "d": 82.14282291666677,
      "v": 110
    },
    {
      "midi": 37,
      "hit": false,
      "t": 9514.281750000007,
      "d": 82.14282291666677,
      "v": 110
    },
    {
      "midi": 37,
      "hit": false,
      "t": 9599.996000000008,
      "d": 167.85707291666586,
      "v": 110
    },
    {
      "midi": 37,
      "hit": false,
      "t": 9771.424500000008,
      "d": 82.14282291666677,
      "v": 110
    },
    {
      "midi": 37,
      "hit": false,
      "t": 9857.13875000001,
      "d": 82.14282291666677,
      "v": 110
    },
    {
      "midi": 37,
      "hit": false,
      "t": 9942.85300000001,
      "d": 167.85707291666586,
      "v": 110
    },
    {
      "midi": 37,
      "hit": false,
      "t": 10114.28150000001,
      "d": 82.14282291666677,
      "v": 110
    },
    {
      "midi": 37,
      "hit": false,
      "t": 10199.995750000011,
      "d": 82.14282291666677,
      "v": 110
    },
    {
      "midi": 37,
      "hit": false,
      "t": 10285.710000000012,
      "d": 167.85707291666586,
      "v": 110
    },
    {
      "midi": 37,
      "hit": false,
      "t": 10457.138500000012,
      "d": 82.14282291666677,
      "v": 110
    },
    {
      "midi": 37,
      "hit": false,
      "t": 10542.852750000013,
      "d": 82.14282291666677,
      "v": 110
    },
    {
      "midi": 35,
      "hit": false,
      "t": 10628.567000000014,
      "d": 167.85707291666586,
      "v": 110
    },
    {
      "midi": 35,
      "hit": false,
      "t": 10799.995500000014,
      "d": 82.14282291666677,
      "v": 110
    },
    {
      "midi": 37,
      "hit": false,
      "t": 10885.709750000015,
      "d": 82.14282291666677,
      "v": 110
    },
    {
      "midi": 37,
      "hit": false,
      "t": 10971.424000000015,
      "d": 167.85707291666586,
      "v": 110
    },
    {
      "midi": 61,
      "hit": false,
      "t": 11142.8525,
      "d": 82.14282291666677,
      "v": 110
    },
    {
      "midi": 64,
      "hit": false,
      "t": 11142.8525,
      "d": 82.14282291666677,
      "v": 110
    },
    {
      "midi": 37,
      "hit": false,
      "t": 11142.852500000015,
      "d": 82.14282291666677,
      "v": 110
    },
    {
      "midi": 61,
      "hit": false,
      "t": 11228.566750000002,
      "d": 82.14282291666677,
      "v": 110
    },
    {
      "midi": 64,
      "hit": false,
      "t": 11228.566750000002,
      "d": 82.14282291666677,
      "v": 110
    },
    {
      "midi": 37,
      "hit": false,
      "t": 11228.566750000016,
      "d": 82.14282291666677,
      "v": 110
    },
    {
      "midi": 61,
      "hit": false,
      "t": 11314.281000000003,
      "d": 167.85707291666586,
      "v": 110
    },
    {
      "midi": 64,
      "hit": false,
      "t": 11314.281000000003,
      "d": 167.85707291666586,
      "v": 110
    },
    {
      "midi": 37,
      "hit": false,
      "t": 11314.281000000017,
      "d": 167.85707291666586,
      "v": 110
    },
    {
      "midi": 61,
      "hit": false,
      "t": 11485.709500000003,
      "d": 82.14282291666677,
      "v": 110
    },
    {
      "midi": 64,
      "hit": false,
      "t": 11485.709500000003,
      "d": 82.14282291666677,
      "v": 110
    },
    {
      "midi": 37,
      "hit": false,
      "t": 11485.709500000017,
      "d": 82.14282291666677,
      "v": 110
    },
    {
      "midi": 61,
      "hit": false,
      "t": 11571.423750000004,
      "d": 82.14282291666677,
      "v": 110
    },
    {
      "midi": 64,
      "hit": false,
      "t": 11571.423750000004,
      "d": 82.14282291666677,
      "v": 110
    },
    {
      "midi": 37,
      "hit": false,
      "t": 11571.423750000018,
      "d": 82.14282291666677,
      "v": 110
    },
    {
      "midi": 61,
      "hit": false,
      "t": 11657.138000000004,
      "d": 167.85707291666586,
      "v": 110
    },
    {
      "midi": 64,
      "hit": false,
      "t": 11657.138000000004,
      "d": 167.85707291666586,
      "v": 110
    },
    {
      "midi": 37,
      "hit": false,
      "t": 11657.138000000019,
      "d": 167.85707291666586,
      "v": 110
    },
    {
      "midi": 56,
      "hit": false,
      "t": 11828.5665,
      "d": 167.85707291666586,
      "v": 110
    },
    {
      "midi": 61,
      "hit": false,
      "t": 11828.566500000004,
      "d": 167.85707291666586,
      "v": 110
    },
    {
      "midi": 37,
      "hit": false,
      "t": 11828.566500000019,
      "d": 82.14282291666677,
      "v": 110
    },
    {
      "midi": 37,
      "hit": false,
      "t": 11914.28075000002,
      "d": 82.14282291666677,
      "v": 110
    },
    {
      "midi": 37,
      "hit": false,
      "t": 11999.99500000002,
      "d": 167.85707291666586,
      "v": 110
    },
    {
      "midi": 56,
      "hit": false,
      "t": 12171.4235,
      "d": 82.14282291666677,
      "v": 110
    },
    {
      "midi": 61,
      "hit": false,
      "t": 12171.423500000004,
      "d": 82.14282291666677,
      "v": 110
    },
    {
      "midi": 37,
      "hit": false,
      "t": 12171.42350000002,
      "d": 82.14282291666677,
      "v": 110
    },
    {
      "midi": 56,
      "hit": false,
      "t": 12257.137750000002,
      "d": 82.14282291666677,
      "v": 110
    },
    {
      "midi": 61,
      "hit": false,
      "t": 12257.137750000005,
      "d": 82.14282291666677,
      "v": 110
    },
    {
      "midi": 37,
      "hit": false,
      "t": 12257.137750000022,
      "d": 82.14282291666677,
      "v": 110
    },
    {
      "midi": 61,
      "hit": false,
      "t": 12342.852000000006,
      "d": 167.85707291666586,
      "v": 110
    },
    {
      "midi": 64,
      "hit": false,
      "t": 12342.852000000006,
      "d": 167.85707291666586,
      "v": 110
    },
    {
      "midi": 37,
      "hit": false,
      "t": 12342.852000000023,
      "d": 167.85707291666586,
      "v": 110
    },
    {
      "midi": 61,
      "hit": false,
      "t": 12514.280500000006,
      "d": 82.14282291666677,
      "v": 110
    },
    {
      "midi": 64,
      "hit": false,
      "t": 12514.280500000006,
      "d": 82.14282291666677,
      "v": 110
    },
    {
      "midi": 37,
      "hit": false,
      "t": 12514.280500000023,
      "d": 82.14282291666677,
      "v": 110
    },
    {
      "midi": 61,
      "hit": false,
      "t": 12599.994750000007,
      "d": 82.14282291666677,
      "v": 110
    },
    {
      "midi": 64,
      "hit": false,
      "t": 12599.994750000007,
      "d": 82.14282291666677,
      "v": 110
    },
    {
      "midi": 37,
      "hit": false,
      "t": 12599.994750000023,
      "d": 82.14282291666677,
      "v": 110
    },
    {
      "midi": 61,
      "hit": false,
      "t": 12685.709000000008,
      "d": 167.85707291666586,
      "v": 110
    },
    {
      "midi": 64,
      "hit": false,
      "t": 12685.709000000008,
      "d": 167.85707291666586,
      "v": 110
    },
    {
      "midi": 37,
      "hit": false,
      "t": 12685.709000000024,
      "d": 167.85707291666586,
      "v": 110
    },
    {
      "midi": 56,
      "hit": false,
      "t": 12857.137500000003,
      "d": 167.85707291666586,
      "v": 110
    },
    {
      "midi": 61,
      "hit": false,
      "t": 12857.137500000008,
      "d": 167.85707291666586,
      "v": 110
    },
    {
      "midi": 37,
      "hit": false,
      "t": 12857.137500000024,
      "d": 82.14282291666677,
      "v": 110
    },
    {
      "midi": 37,
      "hit": false,
      "t": 12942.851750000025,
      "d": 82.14282291666677,
      "v": 110
    },
    {
      "midi": 37,
      "hit": false,
      "t": 13028.566000000026,
      "d": 167.85707291666586,
      "v": 110
    },
    {
      "midi": 61,
      "hit": false,
      "t": 13199.994500000008,
      "d": 167.85707291666586,
      "v": 110
    },
    {
      "midi": 64,
      "hit": false,
      "t": 13199.994500000008,
      "d": 167.85707291666586,
      "v": 110
    },
    {
      "midi": 68,
      "hit": false,
      "t": 13199.994500000008,
      "d": 167.85707291666586,
      "v": 110
    },
    {
      "midi": 37,
      "hit": false,
      "t": 13199.994500000026,
      "d": 82.14282291666677,
      "v": 110
    },
    {
      "midi": 37,
      "hit": false,
      "t": 13285.708750000027,
      "d": 82.14282291666677,
      "v": 110
    },
    {
      "midi": 59,
      "hit": false,
      "t": 13371.423000000008,
      "d": 167.85707291666586,
      "v": 110
    },
    {
      "midi": 63,
      "hit": false,
      "t": 13371.423000000008,
      "d": 167.85707291666586,
      "v": 110
    },
    {
      "midi": 66,
      "hit": false,
      "t": 13371.423000000008,
      "d": 167.85707291666586,
      "v": 110
    },
    {
      "midi": 35,
      "hit": false,
      "t": 13371.423000000028,
      "d": 167.85707291666586,
      "v": 110
    },
    {
      "midi": 61,
      "hit": false,
      "t": 13542.851500000008,
      "d": 167.85707291666586,
      "v": 110
    },
    {
      "midi": 64,
      "hit": false,
      "t": 13542.851500000008,
      "d": 167.85707291666586,
      "v": 110
    },
    {
      "midi": 68,
      "hit": false,
      "t": 13542.851500000008,
      "d": 167.85707291666586,
      "v": 110
    },
    {
      "midi": 35,
      "hit": false,
      "t": 13542.851500000028,
      "d": 82.14282291666677,
      "v": 110
    },
    {
      "midi": 35,
      "hit": false,
      "t": 13628.565750000029,
      "d": 82.14282291666677,
      "v": 110
    },
    {
      "midi": 33,
      "hit": false,
      "t": 13714.28000000003,
      "d": 167.85707291666586,
      "v": 110
    },
    {
      "midi": 61,
      "hit": false,
      "t": 13885.708500000008,
      "d": 82.14282291666677,
      "v": 110
    },
    {
      "midi": 64,
      "hit": false,
      "t": 13885.708500000008,
      "d": 82.14282291666677,
      "v": 110
    },
    {
      "midi": 33,
      "hit": false,
      "t": 13885.70850000003,
      "d": 82.14282291666677,
      "v": 110
    },
    {
      "midi": 61,
      "hit": false,
      "t": 13971.422750000009,
      "d": 82.14282291666677,
      "v": 110
    },
    {
      "midi": 64,
      "hit": false,
      "t": 13971.422750000009,
      "d": 82.14282291666677,
      "v": 110
    },
    {
      "midi": 33,
      "hit": false,
      "t": 13971.42275000003,
      "d": 82.14282291666677,
      "v": 110
    },
    {
      "midi": 61,
      "hit": false,
      "t": 14057.13700000001,
      "d": 167.85707291666586,
      "v": 110
    },
    {
      "midi": 64,
      "hit": false,
      "t": 14057.13700000001,
      "d": 167.85707291666586,
      "v": 110
    },
    {
      "midi": 33,
      "hit": false,
      "t": 14057.137000000032,
      "d": 167.85707291666586,
      "v": 110
    },
    {
      "midi": 61,
      "hit": false,
      "t": 14228.56550000001,
      "d": 82.14282291666677,
      "v": 110
    },
    {
      "midi": 64,
      "hit": false,
      "t": 14228.56550000001,
      "d": 82.14282291666677,
      "v": 110
    },
    {
      "midi": 33,
      "hit": false,
      "t": 14228.565500000032,
      "d": 82.14282291666677,
      "v": 110
    },
    {
      "midi": 61,
      "hit": false,
      "t": 14314.27975000001,
      "d": 82.14282291666677,
      "v": 110
    },
    {
      "midi": 64,
      "hit": false,
      "t": 14314.27975000001,
      "d": 82.14282291666677,
      "v": 110
    },
    {
      "midi": 33,
      "hit": false,
      "t": 14314.279750000032,
      "d": 82.14282291666677,
      "v": 110
    },
    {
      "midi": 61,
      "hit": false,
      "t": 14399.994000000012,
      "d": 167.85707291666586,
      "v": 110
    },
    {
      "midi": 64,
      "hit": false,
      "t": 14399.994000000012,
      "d": 167.85707291666586,
      "v": 110
    },
    {
      "midi": 33,
      "hit": false,
      "t": 14399.994000000033,
      "d": 167.85707291666586,
      "v": 110
    },
    {
      "midi": 56,
      "hit": false,
      "t": 14571.422500000002,
      "d": 167.85707291666586,
      "v": 110
    },
    {
      "midi": 61,
      "hit": false,
      "t": 14571.422500000011,
      "d": 167.85707291666586,
      "v": 110
    },
    {
      "midi": 33,
      "hit": false,
      "t": 14571.422500000033,
      "d": 82.14282291666677,
      "v": 110
    },
    {
      "midi": 33,
      "hit": false,
      "t": 14657.136750000034,
      "d": 82.14282291666677,
      "v": 110
    },
    {
      "midi": 33,
      "hit": false,
      "t": 14742.851000000035,
      "d": 167.85707291666586,
      "v": 110
    },
    {
      "midi": 61,
      "hit": false,
      "t": 14914.279500000011,
      "d": 167.85707291666586,
      "v": 110
    },
    {
      "midi": 64,
      "hit": false,
      "t": 14914.279500000011,
      "d": 167.85707291666586,
      "v": 110
    },
    {
      "midi": 68,
      "hit": false,
      "t": 14914.279500000011,
      "d": 167.85707291666586,
      "v": 110
    },
    {
      "midi": 33,
      "hit": false,
      "t": 14914.279500000035,
      "d": 82.14282291666677,
      "v": 110
    },
    {
      "midi": 33,
      "hit": false,
      "t": 14999.993750000036,
      "d": 82.14282291666677,
      "v": 110
    },
    {
      "midi": 33,
      "hit": false,
      "t": 15085.708000000037,
      "d": 167.85707291666586,
      "v": 110
    },
    {
      "midi": 59,
      "hit": false,
      "t": 15257.136500000011,
      "d": 167.85707291666586,
      "v": 110
    },
    {
      "midi": 63,
      "hit": false,
      "t": 15257.136500000011,
      "d": 167.85707291666586,
      "v": 110
    },
    {
      "midi": 66,
      "hit": false,
      "t": 15257.136500000011,
      "d": 167.85707291666586,
      "v": 110
    },
    {
      "midi": 33,
      "hit": false,
      "t": 15257.136500000037,
      "d": 82.14282291666677,
      "v": 110
    },
    {
      "midi": 33,
      "hit": false,
      "t": 15342.850750000038,
      "d": 82.14282291666677,
      "v": 110
    },
    {
      "midi": 33,
      "hit": false,
      "t": 15428.565000000039,
      "d": 167.85707291666586,
      "v": 110
    },
    {
      "midi": 57,
      "hit": false,
      "t": 15599.993500000002,
      "d": 167.85707291666586,
      "v": 110
    },
    {
      "midi": 61,
      "hit": false,
      "t": 15599.993500000011,
      "d": 167.85707291666586,
      "v": 110
    },
    {
      "midi": 64,
      "hit": false,
      "t": 15599.993500000011,
      "d": 167.85707291666586,
      "v": 110
    },
    {
      "midi": 33,
      "hit": false,
      "t": 15599.993500000039,
      "d": 82.14282291666677,
      "v": 110
    },
    {
      "midi": 33,
      "hit": false,
      "t": 15685.70775000004,
      "d": 82.14282291666677,
      "v": 110
    },
    {
      "midi": 33,
      "hit": false,
      "t": 15771.42200000004,
      "d": 167.85707291666586,
      "v": 110
    },
    {
      "midi": 59,
      "hit": false,
      "t": 15942.850500000011,
      "d": 167.85707291666586,
      "v": 110
    },
    {
      "midi": 63,
      "hit": false,
      "t": 15942.850500000011,
      "d": 167.85707291666586,
      "v": 110
    },
    {
      "midi": 66,
      "hit": false,
      "t": 15942.850500000011,
      "d": 167.85707291666586,
      "v": 110
    },
    {
      "midi": 33,
      "hit": false,
      "t": 15942.85050000004,
      "d": 82.14282291666677,
      "v": 110
    },
    {
      "midi": 33,
      "hit": false,
      "t": 16028.564750000041,
      "d": 82.14282291666677,
      "v": 110
    },
    {
      "midi": 33,
      "hit": false,
      "t": 16114.279000000042,
      "d": 167.85707291666586,
      "v": 110
    },
    {
      "midi": 33,
      "hit": false,
      "t": 16285.707500000042,
      "d": 82.14282291666677,
      "v": 110
    },
    {
      "midi": 33,
      "hit": false,
      "t": 16371.421750000043,
      "d": 82.14282291666495,
      "v": 110
    },
    {
      "midi": 35,
      "hit": false,
      "t": 16457.136000000042,
      "d": 167.85707291666768,
      "v": 110
    },
    {
      "midi": 63,
      "hit": false,
      "t": 16628.56450000001,
      "d": 82.14282291666677,
      "v": 110
    },
    {
      "midi": 66,
      "hit": false,
      "t": 16628.56450000001,
      "d": 82.14282291666677,
      "v": 110
    },
    {
      "midi": 35,
      "hit": false,
      "t": 16628.564500000044,
      "d": 82.14282291666677,
      "v": 110
    },
    {
      "midi": 63,
      "hit": false,
      "t": 16714.278750000012,
      "d": 82.14282291666677,
      "v": 110
    },
    {
      "midi": 66,
      "hit": false,
      "t": 16714.278750000012,
      "d": 82.14282291666677,
      "v": 110
    },
    {
      "midi": 35,
      "hit": false,
      "t": 16714.278750000045,
      "d": 82.14282291666677,
      "v": 110
    },
    {
      "midi": 63,
      "hit": false,
      "t": 16799.993000000013,
      "d": 167.85707291666768,
      "v": 110
    },
    {
      "midi": 66,
      "hit": false,
      "t": 16799.993000000013,
      "d": 167.85707291666768,
      "v": 110
    },
    {
      "midi": 35,
      "hit": false,
      "t": 16799.993000000046,
      "d": 167.85707291666768,
      "v": 110
    },
    {
      "midi": 63,
      "hit": false,
      "t": 16971.421500000015,
      "d": 82.14282291666677,
      "v": 110
    },
    {
      "midi": 66,
      "hit": false,
      "t": 16971.421500000015,
      "d": 82.14282291666677,
      "v": 110
    },
    {
      "midi": 35,
      "hit": false,
      "t": 16971.421500000048,
      "d": 82.14282291666677,
      "v": 110
    },
    {
      "midi": 63,
      "hit": false,
      "t": 17057.135750000016,
      "d": 82.14282291666677,
      "v": 110
    },
    {
      "midi": 66,
      "hit": false,
      "t": 17057.135750000016,
      "d": 82.14282291666677,
      "v": 110
    },
    {
      "midi": 35,
      "hit": false,
      "t": 17057.13575000005,
      "d": 82.14282291666677,
      "v": 110
    },
    {
      "midi": 63,
      "hit": false,
      "t": 17142.850000000017,
      "d": 167.85707291666768,
      "v": 110
    },
    {
      "midi": 66,
      "hit": false,
      "t": 17142.850000000017,
      "d": 167.85707291666768,
      "v": 110
    },
    {
      "midi": 35,
      "hit": false,
      "t": 17142.85000000005,
      "d": 167.85707291666768,
      "v": 110
    },
    {
      "midi": 59,
      "hit": false,
      "t": 17314.27850000002,
      "d": 167.85707291666768,
      "v": 110
    },
    {
      "midi": 63,
      "hit": false,
      "t": 17314.27850000002,
      "d": 167.85707291666768,
      "v": 110
    },
    {
      "midi": 35,
      "hit": false,
      "t": 17314.27850000005,
      "d": 82.14282291666677,
      "v": 110
    },
    {
      "midi": 35,
      "hit": false,
      "t": 17399.992750000052,
      "d": 82.14282291666677,
      "v": 110
    },
    {
      "midi": 35,
      "hit": false,
      "t": 17485.707000000053,
      "d": 167.85707291666768,
      "v": 110
    },
    {
      "midi": 59,
      "hit": false,
      "t": 17657.13550000002,
      "d": 167.85707291666768,
      "v": 110
    },
    {
      "midi": 64,
      "hit": false,
      "t": 17657.13550000002,
      "d": 167.85707291666768,
      "v": 110
    },
    {
      "midi": 68,
      "hit": false,
      "t": 17657.13550000002,
      "d": 167.85707291666768,
      "v": 110
    },
    {
      "midi": 35,
      "hit": false,
      "t": 17657.135500000055,
      "d": 82.14282291666677,
      "v": 110
    },
    {
      "midi": 35,
      "hit": false,
      "t": 17742.849750000056,
      "d": 82.14282291666677,
      "v": 110
    },
    {
      "midi": 35,
      "hit": false,
      "t": 17828.564000000057,
      "d": 167.85707291666768,
      "v": 110
    },
    {
      "midi": 59,
      "hit": false,
      "t": 17999.99250000002,
      "d": 167.85707291666768,
      "v": 110
    },
    {
      "midi": 63,
      "hit": false,
      "t": 17999.99250000002,
      "d": 167.85707291666768,
      "v": 110
    },
    {
      "midi": 66,
      "hit": false,
      "t": 17999.99250000002,
      "d": 167.85707291666768,
      "v": 110
    },
    {
      "midi": 35,
      "hit": false,
      "t": 17999.99250000006,
      "d": 82.14282291666677,
      "v": 110
    },
    {
      "midi": 35,
      "hit": false,
      "t": 18085.70675000006,
      "d": 82.14282291666677,
      "v": 110
    },
    {
      "midi": 35,
      "hit": false,
      "t": 18171.42100000006,
      "d": 167.85707291666768,
      "v": 110
    },
    {
      "midi": 56,
      "hit": false,
      "t": 18342.8495,
      "d": 167.85707291666768,
      "v": 110
    },
    {
      "midi": 61,
      "hit": false,
      "t": 18342.84950000002,
      "d": 167.85707291666768,
      "v": 110
    },
    {
      "midi": 64,
      "hit": false,
      "t": 18342.84950000002,
      "d": 167.85707291666768,
      "v": 110
    },
    {
      "midi": 35,
      "hit": false,
      "t": 18342.849500000062,
      "d": 82.14282291666677,
      "v": 110
    },
    {
      "midi": 35,
      "hit": false,
      "t": 18428.563750000063,
      "d": 82.14282291666677,
      "v": 110
    },
    {
      "midi": 35,
      "hit": false,
      "t": 18514.278000000064,
      "d": 167.85707291666768,
      "v": 110
    },
    {
      "midi": 54,
      "hit": false,
      "t": 18685.7065,
      "d": 167.85707291666768,
      "v": 110
    },
    {
      "midi": 59,
      "hit": false,
      "t": 18685.70650000002,
      "d": 167.85707291666768,
      "v": 110
    },
    {
      "midi": 63,
      "hit": false,
      "t": 18685.70650000002,
      "d": 167.85707291666768,
      "v": 110
    },
    {
      "midi": 35,
      "hit": false,
      "t": 18685.706500000066,
      "d": 82.14282291666677,
      "v": 110
    },
    {
      "midi": 35,
      "hit": false,
      "t": 18771.420750000067,
      "d": 82.14282291666677,
      "v": 110
    },
    {
      "midi": 35,
      "hit": false,
      "t": 18857.135000000068,
      "d": 167.85707291666768,
      "v": 110
    },
    {
      "midi": 49,
      "hit": false,
      "t": 19028.5635,
      "d": 167.85707291666768,
      "v": 110
    },
    {
      "midi": 56,
      "hit": false,
      "t": 19028.5635,
      "d": 167.85707291666768,
      "v": 110
    },
    {
      "midi": 61,
      "hit": false,
      "t": 19028.56350000002,
      "d": 167.85707291666768,
      "v": 110
    },
    {
      "midi": 35,
      "hit": false,
      "t": 19028.56350000007,
      "d": 82.14282291666677,
      "v": 110
    },
    {
      "midi": 35,
      "hit": false,
      "t": 19114.27775000007,
      "d": 82.14282291666677,
      "v": 110
    },
    {
      "midi": 37,
      "hit": false,
      "t": 19199.99200000007,
      "d": 167.85707291666768,
      "v": 110
    },
    {
      "midi": 61,
      "hit": false,
      "t": 19371.42050000002,
      "d": 167.85707291666768,
      "v": 110
    },
    {
      "midi": 37,
      "hit": false,
      "t": 19371.420500000073,
      "d": 82.14282291666677,
      "v": 110
    },
    {
      "midi": 37,
      "hit": false,
      "t": 19457.134750000074,
      "d": 82.14282291666677,
      "v": 110
    },
    {
      "midi": 68,
      "hit": false,
      "t": 19542.84900000002,
      "d": 285.71416666666846,
      "v": 110
    },
    {
      "midi": 37,
      "hit": false,
      "t": 19542.849000000075,
      "d": 167.85707291666768,
      "v": 110
    },
    {
      "midi": 71,
      "hit": false,
      "t": 19714.2775,
      "d": 167.85707291666768,
      "v": 110
    },
    {
      "midi": 37,
      "hit": false,
      "t": 19714.277500000077,
      "d": 82.14282291666677,
      "v": 110
    },
    {
      "midi": 37,
      "hit": false,
      "t": 19799.991750000077,
      "d": 82.14282291666677,
      "v": 110
    },
    {
      "midi": 70,
      "hit": false,
      "t": 19885.706000000002,
      "d": 599.999749999999,
      "v": 110
    },
    {
      "midi": 37,
      "hit": false,
      "t": 19885.70600000008,
      "d": 167.85707291666768,
      "v": 110
    },
    {
      "midi": 37,
      "hit": false,
      "t": 20057.13450000008,
      "d": 82.14282291666677,
      "v": 110
    },
    {
      "midi": 37,
      "hit": false,
      "t": 20142.84875000008,
      "d": 82.14282291666677,
      "v": 110
    },
    {
      "midi": 37,
      "hit": false,
      "t": 20228.563000000082,
      "d": 167.85707291666768,
      "v": 110
    },
    {
      "midi": 61,
      "hit": false,
      "t": 20399.991500000022,
      "d": 167.85707291666768,
      "v": 110
    },
    {
      "midi": 37,
      "hit": false,
      "t": 20399.991500000084,
      "d": 82.14282291666677,
      "v": 110
    },
    {
      "midi": 37,
      "hit": false,
      "t": 20485.705750000085,
      "d": 82.14282291666677,
      "v": 110
    },
    {
      "midi": 37,
      "hit": false,
      "t": 20571.420000000086,
      "d": 167.85707291666768,
      "v": 110
    },
    {
      "midi": 61,
      "hit": false,
      "t": 20742.848500000022,
      "d": 167.85707291666768,
      "v": 110
    },
    {
      "midi": 37,
      "hit": false,
      "t": 20742.848500000087,
      "d": 82.14282291666677,
      "v": 110
    },
    {
      "midi": 37,
      "hit": false,
      "t": 20828.56275000009,
      "d": 82.14282291666677,
      "v": 110
    },
    {
      "midi": 68,
      "hit": false,
      "t": 20914.277000000024,
      "d": 285.71416666666846,
      "v": 110
    },
    {
      "midi": 37,
      "hit": false,
      "t": 20914.27700000009,
      "d": 167.85707291666768,
      "v": 110
    },
    {
      "midi": 71,
      "hit": false,
      "t": 21085.7055,
      "d": 167.85707291666768,
      "v": 110
    },
    {
      "midi": 37,
      "hit": false,
      "t": 21085.70550000009,
      "d": 82.14282291666677,
      "v": 110
    },
    {
      "midi": 37,
      "hit": false,
      "t": 21171.419750000092,
      "d": 82.14282291666677,
      "v": 110
    },
    {
      "midi": 70,
      "hit": false,
      "t": 21257.134000000002,
      "d": 285.71416666666846,
      "v": 110
    },
    {
      "midi": 37,
      "hit": false,
      "t": 21257.134000000093,
      "d": 167.85707291666768,
      "v": 110
    },
    {
      "midi": 37,
      "hit": false,
      "t": 21428.562500000095,
      "d": 82.14282291666677,
      "v": 110
    },
    {
      "midi": 37,
      "hit": false,
      "t": 21514.276750000095,
      "d": 82.14282291666677,
      "v": 110
    },
    {
      "midi": 71,
      "hit": false,
      "t": 21599.991000000005,
      "d": 167.85707291666768,
      "v": 110
    },
    {
      "midi": 75,
      "hit": false,
      "t": 21599.991000000005,
      "d": 167.85707291666768,
      "v": 110
    },
    {
      "midi": 35,
      "hit": false,
      "t": 21599.991000000096,
      "d": 167.85707291666768,
      "v": 110
    },
    {
      "midi": 73,
      "hit": false,
      "t": 21771.419500000007,
      "d": 167.85707291666768,
      "v": 110
    },
    {
      "midi": 76,
      "hit": false,
      "t": 21771.419500000007,
      "d": 167.85707291666768,
      "v": 110
    },
    {
      "midi": 35,
      "hit": false,
      "t": 21771.4195000001,
      "d": 82.14282291666677,
      "v": 110
    },
    {
      "midi": 37,
      "hit": false,
      "t": 21857.1337500001,
      "d": 82.14282291666677,
      "v": 110
    },
    {
      "midi": 37,
      "hit": false,
      "t": 21942.8480000001,
      "d": 167.85707291666768,
      "v": 110
    },
    {
      "midi": 61,
      "hit": false,
      "t": 22114.276500000025,
      "d": 82.14282291666677,
      "v": 110
    },
    {
      "midi": 64,
      "hit": false,
      "t": 22114.276500000025,
      "d": 82.14282291666677,
      "v": 110
    },
    {
      "midi": 37,
      "hit": false,
      "t": 22114.2765000001,
      "d": 82.14282291666677,
      "v": 110
    },
    {
      "midi": 61,
      "hit": false,
      "t": 22199.990750000026,
      "d": 82.14282291666677,
      "v": 110
    },
    {
      "midi": 64,
      "hit": false,
      "t": 22199.990750000026,
      "d": 82.14282291666677,
      "v": 110
    },
    {
      "midi": 37,
      "hit": false,
      "t": 22199.990750000103,
      "d": 82.14282291666677,
      "v": 110
    },
    {
      "midi": 61,
      "hit": false,
      "t": 22285.705000000027,
      "d": 167.85707291666768,
      "v": 110
    },
    {
      "midi": 64,
      "hit": false,
      "t": 22285.705000000027,
      "d": 167.85707291666768,
      "v": 110
    },
    {
      "midi": 37,
      "hit": false,
      "t": 22285.705000000104,
      "d": 167.85707291666768,
      "v": 110
    },
    {
      "midi": 61,
      "hit": false,
      "t": 22457.13350000003,
      "d": 82.14282291666677,
      "v": 110
    },
    {
      "midi": 64,
      "hit": false,
      "t": 22457.13350000003,
      "d": 82.14282291666677,
      "v": 110
    },
    {
      "midi": 37,
      "hit": false,
      "t": 22457.133500000105,
      "d": 82.14282291666677,
      "v": 110
    },
    {
      "midi": 61,
      "hit": false,
      "t": 22542.84775000003,
      "d": 82.14282291666677,
      "v": 110
    },
    {
      "midi": 64,
      "hit": false,
      "t": 22542.84775000003,
      "d": 82.14282291666677,
      "v": 110
    },
    {
      "midi": 37,
      "hit": false,
      "t": 22542.847750000106,
      "d": 82.14282291666677,
      "v": 110
    },
    {
      "midi": 61,
      "hit": false,
      "t": 22628.56200000003,
      "d": 167.85707291666768,
      "v": 110
    },
    {
      "midi": 64,
      "hit": false,
      "t": 22628.56200000003,
      "d": 167.85707291666768,
      "v": 110
    },
    {
      "midi": 37,
      "hit": false,
      "t": 22628.562000000107,
      "d": 167.85707291666768,
      "v": 110
    },
    {
      "midi": 56,
      "hit": false,
      "t": 22799.9905,
      "d": 167.85707291666768,
      "v": 110
    },
    {
      "midi": 61,
      "hit": false,
      "t": 22799.990500000033,
      "d": 167.85707291666768,
      "v": 110
    },
    {
      "midi": 37,
      "hit": false,
      "t": 22799.99050000011,
      "d": 82.14282291666677,
      "v": 110
    },
    {
      "midi": 37,
      "hit": false,
      "t": 22885.70475000011,
      "d": 82.14282291666677,
      "v": 110
    },
    {
      "midi": 37,
      "hit": false,
      "t": 22971.41900000011,
      "d": 167.85707291666768,
      "v": 110
    },
    {
      "midi": 56,
      "hit": false,
      "t": 23142.8475,
      "d": 82.14282291666677,
      "v": 110
    },
    {
      "midi": 61,
      "hit": false,
      "t": 23142.847500000033,
      "d": 82.14282291666677,
      "v": 110
    },
    {
      "midi": 37,
      "hit": false,
      "t": 23142.847500000113,
      "d": 82.14282291666677,
      "v": 110
    },
    {
      "midi": 56,
      "hit": false,
      "t": 23228.56175,
      "d": 82.14282291666677,
      "v": 110
    },
    {
      "midi": 61,
      "hit": false,
      "t": 23228.561750000033,
      "d": 82.14282291666677,
      "v": 110
    },
    {
      "midi": 37,
      "hit": false,
      "t": 23228.561750000114,
      "d": 82.14282291666677,
      "v": 110
    },
    {
      "midi": 61,
      "hit": false,
      "t": 23314.276000000034,
      "d": 167.85707291666768,
      "v": 110
    },
    {
      "midi": 64,
      "hit": false,
      "t": 23314.276000000034,
      "d": 167.85707291666768,
      "v": 110
    },
    {
      "midi": 37,
      "hit": false,
      "t": 23314.276000000114,
      "d": 167.85707291666768,
      "v": 110
    },
    {
      "midi": 61,
      "hit": false,
      "t": 23485.704500000036,
      "d": 82.14282291666677,
      "v": 110
    },
    {
      "midi": 64,
      "hit": false,
      "t": 23485.704500000036,
      "d": 82.14282291666677,
      "v": 110
    },
    {
      "midi": 37,
      "hit": false,
      "t": 23485.704500000116,
      "d": 82.14282291666677,
      "v": 110
    },
    {
      "midi": 61,
      "hit": false,
      "t": 23571.418750000037,
      "d": 82.14282291666677,
      "v": 110
    },
    {
      "midi": 64,
      "hit": false,
      "t": 23571.418750000037,
      "d": 82.14282291666677,
      "v": 110
    },
    {
      "midi": 37,
      "hit": false,
      "t": 23571.418750000117,
      "d": 82.14282291666677,
      "v": 110
    },
    {
      "midi": 61,
      "hit": false,
      "t": 23657.133000000038,
      "d": 167.85707291666768,
      "v": 110
    },
    {
      "midi": 64,
      "hit": false,
      "t": 23657.133000000038,
      "d": 167.85707291666768,
      "v": 110
    },
    {
      "midi": 37,
      "hit": false,
      "t": 23657.133000000118,
      "d": 167.85707291666768,
      "v": 110
    },
    {
      "midi": 56,
      "hit": false,
      "t": 23828.5615,
      "d": 167.85707291666768,
      "v": 110
    },
    {
      "midi": 61,
      "hit": false,
      "t": 23828.56150000004,
      "d": 167.85707291666768,
      "v": 110
    },
    {
      "midi": 37,
      "hit": false,
      "t": 23828.56150000012,
      "d": 82.14282291666677,
      "v": 110
    },
    {
      "midi": 37,
      "hit": false,
      "t": 23914.27575000012,
      "d": 82.14282291666677,
      "v": 110
    },
    {
      "midi": 37,
      "hit": false,
      "t": 23999.99000000012,
      "d": 167.85707291666768,
      "v": 110
    },
    {
      "midi": 61,
      "hit": false,
      "t": 24171.41850000004,
      "d": 167.85707291666768,
      "v": 110
    },
    {
      "midi": 64,
      "hit": false,
      "t": 24171.41850000004,
      "d": 167.85707291666768,
      "v": 110
    },
    {
      "midi": 68,
      "hit": false,
      "t": 24171.41850000004,
      "d": 167.85707291666768,
      "v": 110
    },
    {
      "midi": 37,
      "hit": false,
      "t": 24171.418500000123,
      "d": 82.14282291666677,
      "v": 110
    },
    {
      "midi": 37,
      "hit": false,
      "t": 24257.132750000124,
      "d": 82.14282291666677,
      "v": 110
    },
    {
      "midi": 59,
      "hit": false,
      "t": 24342.84700000004,
      "d": 167.85707291666768,
      "v": 110
    },
    {
      "midi": 63,
      "hit": false,
      "t": 24342.84700000004,
      "d": 167.85707291666768,
      "v": 110
    },
    {
      "midi": 66,
      "hit": false,
      "t": 24342.84700000004,
      "d": 167.85707291666768,
      "v": 110
    },
    {
      "midi": 35,
      "hit": false,
      "t": 24342.847000000125,
      "d": 167.85707291666768,
      "v": 110
    },
    {
      "midi": 61,
      "hit": false,
      "t": 24514.275500000043,
      "d": 167.85707291666768,
      "v": 110
    },
    {
      "midi": 64,
      "hit": false,
      "t": 24514.275500000043,
      "d": 167.85707291666768,
      "v": 110
    },
    {
      "midi": 68,
      "hit": false,
      "t": 24514.275500000043,
      "d": 167.85707291666768,
      "v": 110
    },
    {
      "midi": 35,
      "hit": false,
      "t": 24514.275500000127,
      "d": 82.14282291666677,
      "v": 110
    },
    {
      "midi": 35,
      "hit": false,
      "t": 24599.989750000128,
      "d": 82.14282291666677,
      "v": 110
    },
    {
      "midi": 33,
      "hit": false,
      "t": 24685.70400000013,
      "d": 167.85707291666768,
      "v": 110
    },
    {
      "midi": 61,
      "hit": false,
      "t": 24857.132500000043,
      "d": 82.14282291666677,
      "v": 110
    },
    {
      "midi": 64,
      "hit": false,
      "t": 24857.132500000043,
      "d": 82.14282291666677,
      "v": 110
    },
    {
      "midi": 33,
      "hit": false,
      "t": 24857.13250000013,
      "d": 82.14282291666677,
      "v": 110
    },
    {
      "midi": 61,
      "hit": false,
      "t": 24942.846750000044,
      "d": 82.14282291666677,
      "v": 110
    },
    {
      "midi": 64,
      "hit": false,
      "t": 24942.846750000044,
      "d": 82.14282291666677,
      "v": 110
    },
    {
      "midi": 33,
      "hit": false,
      "t": 24942.84675000013,
      "d": 82.14282291666677,
      "v": 110
    },
    {
      "midi": 61,
      "hit": false,
      "t": 25028.561000000045,
      "d": 167.85707291666768,
      "v": 110
    },
    {
      "midi": 64,
      "hit": false,
      "t": 25028.561000000045,
      "d": 167.85707291666768,
      "v": 110
    },
    {
      "midi": 33,
      "hit": false,
      "t": 25028.561000000132,
      "d": 167.85707291666768,
      "v": 110
    },
    {
      "midi": 61,
      "hit": false,
      "t": 25199.989500000047,
      "d": 82.14282291666677,
      "v": 110
    },
    {
      "midi": 64,
      "hit": false,
      "t": 25199.989500000047,
      "d": 82.14282291666677,
      "v": 110
    },
    {
      "midi": 33,
      "hit": false,
      "t": 25199.989500000134,
      "d": 82.14282291666677,
      "v": 110
    },
    {
      "midi": 61,
      "hit": false,
      "t": 25285.703750000048,
      "d": 82.14282291666677,
      "v": 110
    },
    {
      "midi": 64,
      "hit": false,
      "t": 25285.703750000048,
      "d": 82.14282291666677,
      "v": 110
    },
    {
      "midi": 33,
      "hit": false,
      "t": 25285.703750000135,
      "d": 82.14282291666677,
      "v": 110
    },
    {
      "midi": 61,
      "hit": false,
      "t": 25371.41800000005,
      "d": 167.85707291666768,
      "v": 110
    },
    {
      "midi": 64,
      "hit": false,
      "t": 25371.41800000005,
      "d": 167.85707291666768,
      "v": 110
    },
    {
      "midi": 33,
      "hit": false,
      "t": 25371.418000000136,
      "d": 167.85707291666768,
      "v": 110
    },
    {
      "midi": 56,
      "hit": false,
      "t": 25542.8465,
      "d": 167.85707291666768,
      "v": 110
    },
    {
      "midi": 61,
      "hit": false,
      "t": 25542.84650000005,
      "d": 167.85707291666768,
      "v": 110
    },
    {
      "midi": 33,
      "hit": false,
      "t": 25542.846500000138,
      "d": 82.14282291666677,
      "v": 110
    },
    {
      "midi": 33,
      "hit": false,
      "t": 25628.56075000014,
      "d": 82.14282291666677,
      "v": 110
    },
    {
      "midi": 33,
      "hit": false,
      "t": 25714.27500000014,
      "d": 167.85707291666768,
      "v": 110
    },
    {
      "midi": 61,
      "hit": false,
      "t": 25885.70350000005,
      "d": 167.85707291666768,
      "v": 110
    },
    {
      "midi": 64,
      "hit": false,
      "t": 25885.70350000005,
      "d": 167.85707291666768,
      "v": 110
    },
    {
      "midi": 68,
      "hit": false,
      "t": 25885.70350000005,
      "d": 167.85707291666768,
      "v": 110
    },
    {
      "midi": 33,
      "hit": false,
      "t": 25885.70350000014,
      "d": 82.14282291666677,
      "v": 110
    },
    {
      "midi": 33,
      "hit": false,
      "t": 25971.417750000142,
      "d": 82.14282291666677,
      "v": 110
    },
    {
      "midi": 33,
      "hit": false,
      "t": 26057.132000000143,
      "d": 167.85707291666768,
      "v": 110
    },
    {
      "midi": 59,
      "hit": false,
      "t": 26228.56050000005,
      "d": 167.85707291666768,
      "v": 110
    },
    {
      "midi": 63,
      "hit": false,
      "t": 26228.56050000005,
      "d": 167.85707291666768,
      "v": 110
    },
    {
      "midi": 66,
      "hit": false,
      "t": 26228.56050000005,
      "d": 167.85707291666768,
      "v": 110
    },
    {
      "midi": 33,
      "hit": false,
      "t": 26228.560500000145,
      "d": 82.14282291666677,
      "v": 110
    },
    {
      "midi": 33,
      "hit": false,
      "t": 26314.274750000146,
      "d": 82.14282291666677,
      "v": 110
    },
    {
      "midi": 33,
      "hit": false,
      "t": 26399.989000000147,
      "d": 167.85707291666768,
      "v": 110
    },
    {
      "midi": 57,
      "hit": false,
      "t": 26571.4175,
      "d": 167.85707291666768,
      "v": 110
    },
    {
      "midi": 61,
      "hit": false,
      "t": 26571.41750000005,
      "d": 167.85707291666768,
      "v": 110
    },
    {
      "midi": 64,
      "hit": false,
      "t": 26571.41750000005,
      "d": 167.85707291666768,
      "v": 110
    },
    {
      "midi": 33,
      "hit": false,
      "t": 26571.41750000015,
      "d": 82.14282291666677,
      "v": 110
    },
    {
      "midi": 33,
      "hit": false,
      "t": 26657.13175000015,
      "d": 82.14282291666677,
      "v": 110
    },
    {
      "midi": 33,
      "hit": false,
      "t": 26742.84600000015,
      "d": 167.85707291666768,
      "v": 110
    },
    {
      "midi": 59,
      "hit": false,
      "t": 26914.27450000005,
      "d": 167.85707291666768,
      "v": 110
    },
    {
      "midi": 63,
      "hit": false,
      "t": 26914.27450000005,
      "d": 167.85707291666768,
      "v": 110
    },
    {
      "midi": 66,
      "hit": false,
      "t": 26914.27450000005,
      "d": 167.85707291666768,
      "v": 110
    },
    {
      "midi": 33,
      "hit": false,
      "t": 26914.274500000152,
      "d": 82.14282291666677,
      "v": 110
    },
    {
      "midi": 33,
      "hit": false,
      "t": 26999.988750000153,
      "d": 82.14282291666677,
      "v": 110
    },
    {
      "midi": 33,
      "hit": false,
      "t": 27085.703000000154,
      "d": 167.85707291666768,
      "v": 110
    },
    {
      "midi": 33,
      "hit": false,
      "t": 27257.131500000156,
      "d": 82.14282291666677,
      "v": 110
    },
    {
      "midi": 33,
      "hit": false,
      "t": 27342.845750000157,
      "d": 82.14282291666677,
      "v": 110
    },
    {
      "midi": 35,
      "hit": false,
      "t": 27428.560000000158,
      "d": 167.85707291666768,
      "v": 110
    },
    {
      "midi": 63,
      "hit": false,
      "t": 27599.98850000005,
      "d": 82.14282291666677,
      "v": 110
    },
    {
      "midi": 66,
      "hit": false,
      "t": 27599.98850000005,
      "d": 82.14282291666677,
      "v": 110
    },
    {
      "midi": 35,
      "hit": false,
      "t": 27599.98850000016,
      "d": 82.14282291666677,
      "v": 110
    },
    {
      "midi": 63,
      "hit": false,
      "t": 27685.70275000005,
      "d": 82.14282291666677,
      "v": 110
    },
    {
      "midi": 66,
      "hit": false,
      "t": 27685.70275000005,
      "d": 82.14282291666677,
      "v": 110
    },
    {
      "midi": 35,
      "hit": false,
      "t": 27685.70275000016,
      "d": 82.14282291666677,
      "v": 110
    },
    {
      "midi": 63,
      "hit": false,
      "t": 27771.417000000052,
      "d": 167.85707291666768,
      "v": 110
    },
    {
      "midi": 66,
      "hit": false,
      "t": 27771.417000000052,
      "d": 167.85707291666768,
      "v": 110
    },
    {
      "midi": 35,
      "hit": false,
      "t": 27771.41700000016,
      "d": 167.85707291666768,
      "v": 110
    },
    {
      "midi": 63,
      "hit": false,
      "t": 27942.845500000054,
      "d": 82.14282291666677,
      "v": 110
    },
    {
      "midi": 66,
      "hit": false,
      "t": 27942.845500000054,
      "d": 82.14282291666677,
      "v": 110
    },
    {
      "midi": 35,
      "hit": false,
      "t": 27942.845500000163,
      "d": 82.14282291666677,
      "v": 110
    },
    {
      "midi": 63,
      "hit": false,
      "t": 28028.559750000055,
      "d": 82.14282291666677,
      "v": 110
    },
    {
      "midi": 66,
      "hit": false,
      "t": 28028.559750000055,
      "d": 82.14282291666677,
      "v": 110
    },
    {
      "midi": 35,
      "hit": false,
      "t": 28028.559750000164,
      "d": 82.14282291666677,
      "v": 110
    },
    {
      "midi": 63,
      "hit": false,
      "t": 28114.274000000056,
      "d": 167.85707291666768,
      "v": 110
    },
    {
      "midi": 66,
      "hit": false,
      "t": 28114.274000000056,
      "d": 167.85707291666768,
      "v": 110
    },
    {
      "midi": 35,
      "hit": false,
      "t": 28114.274000000165,
      "d": 167.85707291666768,
      "v": 110
    },
    {
      "midi": 59,
      "hit": false,
      "t": 28285.702500000058,
      "d": 167.85707291666768,
      "v": 110
    },
    {
      "midi": 63,
      "hit": false,
      "t": 28285.702500000058,
      "d": 167.85707291666768,
      "v": 110
    },
    {
      "midi": 35,
      "hit": false,
      "t": 28285.702500000167,
      "d": 82.14282291666677,
      "v": 110
    },
    {
      "midi": 35,
      "hit": false,
      "t": 28371.416750000168,
      "d": 82.14282291666677,
      "v": 110
    },
    {
      "midi": 35,
      "hit": false,
      "t": 28457.13100000017,
      "d": 167.85707291666768,
      "v": 110
    },
    {
      "midi": 59,
      "hit": false,
      "t": 28628.559500000058,
      "d": 167.85707291666768,
      "v": 110
    },
    {
      "midi": 64,
      "hit": false,
      "t": 28628.559500000058,
      "d": 167.85707291666768,
      "v": 110
    },
    {
      "midi": 68,
      "hit": false,
      "t": 28628.559500000058,
      "d": 167.85707291666768,
      "v": 110
    },
    {
      "midi": 35,
      "hit": false,
      "t": 28628.55950000017,
      "d": 82.14282291666677,
      "v": 110
    },
    {
      "midi": 35,
      "hit": false,
      "t": 28714.27375000017,
      "d": 82.14282291666677,
      "v": 110
    },
    {
      "midi": 35,
      "hit": false,
      "t": 28799.988000000172,
      "d": 167.85707291666768,
      "v": 110
    },
    {
      "midi": 59,
      "hit": false,
      "t": 28971.416500000058,
      "d": 167.85707291666768,
      "v": 110
    },
    {
      "midi": 63,
      "hit": false,
      "t": 28971.416500000058,
      "d": 167.85707291666768,
      "v": 110
    },
    {
      "midi": 66,
      "hit": false,
      "t": 28971.416500000058,
      "d": 167.85707291666768,
      "v": 110
    },
    {
      "midi": 35,
      "hit": false,
      "t": 28971.416500000174,
      "d": 82.14282291666677,
      "v": 110
    },
    {
      "midi": 35,
      "hit": false,
      "t": 29057.130750000175,
      "d": 82.14282291666677,
      "v": 110
    },
    {
      "midi": 35,
      "hit": false,
      "t": 29142.845000000176,
      "d": 167.85707291666768,
      "v": 110
    },
    {
      "midi": 57,
      "hit": false,
      "t": 29314.2735,
      "d": 167.85707291666768,
      "v": 110
    },
    {
      "midi": 61,
      "hit": false,
      "t": 29314.273500000058,
      "d": 167.85707291666768,
      "v": 110
    },
    {
      "midi": 64,
      "hit": false,
      "t": 29314.273500000058,
      "d": 167.85707291666768,
      "v": 110
    },
    {
      "midi": 35,
      "hit": false,
      "t": 29314.273500000178,
      "d": 82.14282291666677,
      "v": 110
    },
    {
      "midi": 35,
      "hit": false,
      "t": 29399.98775000018,
      "d": 82.14282291666677,
      "v": 110
    },
    {
      "midi": 35,
      "hit": false,
      "t": 29485.70200000018,
      "d": 167.85707291666768,
      "v": 110
    },
    {
      "midi": 54,
      "hit": false,
      "t": 29657.1305,
      "d": 167.85707291666768,
      "v": 110
    },
    {
      "midi": 59,
      "hit": false,
      "t": 29657.130500000058,
      "d": 167.85707291666768,
      "v": 110
    },
    {
      "midi": 63,
      "hit": false,
      "t": 29657.130500000058,
      "d": 167.85707291666768,
      "v": 110
    },
    {
      "midi": 35,
      "hit": false,
      "t": 29657.13050000018,
      "d": 82.14282291666677,
      "v": 110
    },
    {
      "midi": 35,
      "hit": false,
      "t": 29742.844750000182,
      "d": 82.14282291666677,
      "v": 110
    },
    {
      "midi": 35,
      "hit": false,
      "t": 29828.559000000183,
      "d": 167.85707291666768,
      "v": 110
    },
    {
      "midi": 49,
      "hit": false,
      "t": 29999.9875,
      "d": 167.85707291666768,
      "v": 110
    },
    {
      "midi": 56,
      "hit": false,
      "t": 29999.9875,
      "d": 167.85707291666768,
      "v": 110
    },
    {
      "midi": 61,
      "hit": false,
      "t": 29999.987500000057,
      "d": 167.85707291666768,
      "v": 110
    },
    {
      "midi": 35,
      "hit": false,
      "t": 29999.987500000185,
      "d": 82.14282291666677,
      "v": 110
    },
    {
      "midi": 35,
      "hit": false,
      "t": 30085.701750000186,
      "d": 82.14282291666677,
      "v": 110
    },
    {
      "midi": 37,
      "hit": false,
      "t": 30171.416000000187,
      "d": 167.85707291666768,
      "v": 110
    },
    {
      "midi": 61,
      "hit": false,
      "t": 30342.844500000057,
      "d": 167.85707291666768,
      "v": 110
    },
    {
      "midi": 37,
      "hit": false,
      "t": 30342.84450000019,
      "d": 82.14282291666677,
      "v": 110
    },
    {
      "midi": 37,
      "hit": false,
      "t": 30428.55875000019,
      "d": 82.14282291666677,
      "v": 110
    },
    {
      "midi": 68,
      "hit": false,
      "t": 30514.27300000006,
      "d": 285.71416666666846,
      "v": 110
    },
    {
      "midi": 37,
      "hit": false,
      "t": 30514.27300000019,
      "d": 167.85707291666768,
      "v": 110
    },
    {
      "midi": 71,
      "hit": false,
      "t": 30685.70150000001,
      "d": 167.85707291666768,
      "v": 110
    },
    {
      "midi": 37,
      "hit": false,
      "t": 30685.701500000192,
      "d": 82.14282291666677,
      "v": 110
    },
    {
      "midi": 37,
      "hit": false,
      "t": 30771.415750000193,
      "d": 82.14282291666677,
      "v": 110
    },
    {
      "midi": 70,
      "hit": false,
      "t": 30857.130000000012,
      "d": 599.999749999999,
      "v": 110
    },
    {
      "midi": 37,
      "hit": false,
      "t": 30857.130000000194,
      "d": 167.85707291666768,
      "v": 110
    },
    {
      "midi": 37,
      "hit": false,
      "t": 31028.558500000196,
      "d": 82.14282291666677,
      "v": 110
    },
    {
      "midi": 37,
      "hit": false,
      "t": 31114.272750000197,
      "d": 82.14282291666677,
      "v": 110
    },
    {
      "midi": 37,
      "hit": false,
      "t": 31199.987000000197,
      "d": 167.85707291666768,
      "v": 110
    },
    {
      "midi": 61,
      "hit": false,
      "t": 31371.41550000006,
      "d": 167.85707291666768,
      "v": 110
    },
    {
      "midi": 37,
      "hit": false,
      "t": 31371.4155000002,
      "d": 82.14282291666677,
      "v": 110
    },
    {
      "midi": 37,
      "hit": false,
      "t": 31457.1297500002,
      "d": 82.14282291666677,
      "v": 110
    },
    {
      "midi": 37,
      "hit": false,
      "t": 31542.8440000002,
      "d": 167.85707291666768,
      "v": 110
    },
    {
      "midi": 61,
      "hit": false,
      "t": 31714.27250000006,
      "d": 167.85707291666768,
      "v": 110
    },
    {
      "midi": 37,
      "hit": false,
      "t": 31714.272500000203,
      "d": 82.14282291666677,
      "v": 110
    },
    {
      "midi": 37,
      "hit": false,
      "t": 31799.986750000204,
      "d": 82.14282291666677,
      "v": 110
    },
    {
      "midi": 68,
      "hit": false,
      "t": 31885.701000000063,
      "d": 285.71416666666846,
      "v": 110
    },
    {
      "midi": 37,
      "hit": false,
      "t": 31885.701000000205,
      "d": 167.85707291666768,
      "v": 110
    },
    {
      "midi": 71,
      "hit": false,
      "t": 32057.12950000001,
      "d": 167.85707291666768,
      "v": 110
    },
    {
      "midi": 37,
      "hit": false,
      "t": 32057.129500000206,
      "d": 82.14282291666677,
      "v": 110
    },
    {
      "midi": 37,
      "hit": false,
      "t": 32142.843750000207,
      "d": 82.14282291666677,
      "v": 110
    },
    {
      "midi": 70,
      "hit": false,
      "t": 32228.55800000001,
      "d": 285.71416666666846,
      "v": 110
    },
    {
      "midi": 37,
      "hit": false,
      "t": 32228.55800000021,
      "d": 167.85707291666768,
      "v": 110
    },
    {
      "midi": 37,
      "hit": false,
      "t": 32399.98650000021,
      "d": 82.14282291666677,
      "v": 110
    },
    {
      "midi": 37,
      "hit": false,
      "t": 32485.70075000021,
      "d": 82.14282291666677,
      "v": 110
    },
    {
      "midi": 71,
      "hit": false,
      "t": 32571.415000000015,
      "d": 167.85707291666768,
      "v": 110
    },
    {
      "midi": 37,
      "hit": false,
      "t": 32571.415000000212,
      "d": 167.85707291666768,
      "v": 110
    },
    {
      "midi": 73,
      "hit": false,
      "t": 32742.843500000017,
      "d": 1114.2852500000008,
      "v": 110
    },
    {
      "midi": 37,
      "hit": false,
      "t": 32742.843500000214,
      "d": 82.14282291666314,
      "v": 110
    },
    {
      "midi": 38,
      "hit": false,
      "t": 32828.55775000021,
      "d": 82.14282291666314,
      "v": 110
    },
    {
      "midi": 38,
      "hit": false,
      "t": 32914.27200000021,
      "d": 167.85707291666768,
      "v": 110
    },
    {
      "midi": 38,
      "hit": false,
      "t": 33085.70050000021,
      "d": 82.14282291666314,
      "v": 110
    },
    {
      "midi": 38,
      "hit": false,
      "t": 33171.41475000021,
      "d": 82.14282291666314,
      "v": 110
    },
    {
      "midi": 38,
      "hit": false,
      "t": 33257.129000000205,
      "d": 167.85707291666768,
      "v": 110
    },
    {
      "midi": 38,
      "hit": false,
      "t": 33428.557500000206,
      "d": 82.14282291666314,
      "v": 110
    },
    {
      "midi": 38,
      "hit": false,
      "t": 33514.2717500002,
      "d": 82.14282291666314,
      "v": 110
    },
    {
      "midi": 38,
      "hit": false,
      "t": 33599.9860000002,
      "d": 167.85707291666768,
      "v": 110
    },
    {
      "midi": 38,
      "hit": false,
      "t": 33771.4145000002,
      "d": 82.14282291666314,
      "v": 110
    },
    {
      "midi": 38,
      "hit": false,
      "t": 33857.1287500002,
      "d": 82.14282291666314,
      "v": 110
    },
    {
      "midi": 71,
      "hit": false,
      "t": 33942.843000000015,
      "d": 167.85707291666768,
      "v": 110
    },
    {
      "midi": 38,
      "hit": false,
      "t": 33942.8430000002,
      "d": 167.85707291666768,
      "v": 110
    },
    {
      "midi": 76,
      "hit": false,
      "t": 34114.27150000002,
      "d": 339.2855729166695,
      "v": 110
    },
    {
      "midi": 38,
      "hit": false,
      "t": 34114.2715000002,
      "d": 82.14282291666314,
      "v": 110
    },
    {
      "midi": 38,
      "hit": false,
      "t": 34199.985750000196,
      "d": 82.14282291666314,
      "v": 110
    },
    {
      "midi": 38,
      "hit": false,
      "t": 34285.70000000019,
      "d": 167.85707291666768,
      "v": 110
    },
    {
      "midi": 73,
      "hit": false,
      "t": 34457.12850000002,
      "d": 339.2855729166695,
      "v": 110
    },
    {
      "midi": 38,
      "hit": false,
      "t": 34457.128500000195,
      "d": 82.14282291666314,
      "v": 110
    },
    {
      "midi": 38,
      "hit": false,
      "t": 34542.84275000019,
      "d": 82.14282291666314,
      "v": 110
    },
    {
      "midi": 38,
      "hit": false,
      "t": 34628.55700000019,
      "d": 167.85707291666768,
      "v": 110
    },
    {
      "midi": 71,
      "hit": false,
      "t": 34799.985500000024,
      "d": 339.2855729166695,
      "v": 110
    },
    {
      "midi": 38,
      "hit": false,
      "t": 34799.98550000019,
      "d": 82.14282291666314,
      "v": 110
    },
    {
      "midi": 38,
      "hit": false,
      "t": 34885.69975000019,
      "d": 82.14282291666314,
      "v": 110
    },
    {
      "midi": 38,
      "hit": false,
      "t": 34971.414000000186,
      "d": 167.85707291666768,
      "v": 110
    },
    {
      "midi": 73,
      "hit": false,
      "t": 35142.84250000003,
      "d": 457.1426666666666,
      "v": 110
    },
    {
      "midi": 38,
      "hit": false,
      "t": 35142.84250000019,
      "d": 82.14282291666314,
      "v": 110
    },
    {
      "midi": 38,
      "hit": false,
      "t": 35228.556750000185,
      "d": 82.14282291666314,
      "v": 110
    },
    {
      "midi": 38,
      "hit": false,
      "t": 35314.27100000018,
      "d": 167.85707291666768,
      "v": 110
    },
    {
      "midi": 38,
      "hit": false,
      "t": 35485.699500000184,
      "d": 82.14282291666314,
      "v": 110
    },
    {
      "midi": 38,
      "hit": false,
      "t": 35571.41375000018,
      "d": 82.14282291666314,
      "v": 110
    },
    {
      "midi": 71,
      "hit": false,
      "t": 35657.128000000026,
      "d": 599.9997500000027,
      "v": 110
    },
    {
      "midi": 37,
      "hit": false,
      "t": 35657.12800000018,
      "d": 167.85707291666768,
      "v": 110
    },
    {
      "midi": 37,
      "hit": false,
      "t": 35828.55650000018,
      "d": 82.14282291666314,
      "v": 110
    },
    {
      "midi": 37,
      "hit": false,
      "t": 35914.27075000018,
      "d": 82.14282291666314,
      "v": 110
    },
    {
      "midi": 37,
      "hit": false,
      "t": 35999.985000000175,
      "d": 167.85707291666768,
      "v": 110
    },
    {
      "midi": 37,
      "hit": false,
      "t": 36171.41350000018,
      "d": 82.14282291666314,
      "v": 110
    },
    {
      "midi": 37,
      "hit": false,
      "t": 36257.127750000174,
      "d": 82.14282291666314,
      "v": 110
    },
    {
      "midi": 71,
      "hit": false,
      "t": 36342.842000000026,
      "d": 167.85707291666768,
      "v": 110
    },
    {
      "midi": 37,
      "hit": false,
      "t": 36342.84200000017,
      "d": 167.85707291666768,
      "v": 110
    },
    {
      "midi": 73,
      "hit": false,
      "t": 36514.27050000003,
      "d": 457.1426666666666,
      "v": 110
    },
    {
      "midi": 37,
      "hit": false,
      "t": 36514.27050000017,
      "d": 82.14282291666314,
      "v": 110
    },
    {
      "midi": 37,
      "hit": false,
      "t": 36599.98475000017,
      "d": 82.14282291666314,
      "v": 110
    },
    {
      "midi": 37,
      "hit": false,
      "t": 36685.69900000017,
      "d": 167.85707291666768,
      "v": 110
    },
    {
      "midi": 37,
      "hit": false,
      "t": 36857.12750000017,
      "d": 82.14282291666314,
      "v": 110
    },
    {
      "midi": 37,
      "hit": false,
      "t": 36942.84175000017,
      "d": 82.14282291666314,
      "v": 110
    },
    {
      "midi": 68,
      "hit": false,
      "t": 37028.55600000006,
      "d": 285.7141666666648,
      "v": 110
    },
    {
      "midi": 37,
      "hit": false,
      "t": 37028.556000000164,
      "d": 167.85707291666768,
      "v": 110
    },
    {
      "midi": 69,
      "hit": false,
      "t": 37199.98450000003,
      "d": 167.85707291666768,
      "v": 110
    },
    {
      "midi": 37,
      "hit": false,
      "t": 37199.984500000166,
      "d": 82.14282291666314,
      "v": 110
    },
    {
      "midi": 37,
      "hit": false,
      "t": 37285.69875000016,
      "d": 82.14282291666314,
      "v": 110
    },
    {
      "midi": 68,
      "hit": false,
      "t": 37371.41300000006,
      "d": 167.85707291666768,
      "v": 110
    },
    {
      "midi": 37,
      "hit": false,
      "t": 37371.41300000016,
      "d": 167.85707291666768,
      "v": 110
    },
    {
      "midi": 64,
      "hit": false,
      "t": 37542.84150000006,
      "d": 167.85707291666768,
      "v": 110
    },
    {
      "midi": 37,
      "hit": false,
      "t": 37542.84150000016,
      "d": 82.14282291666314,
      "v": 110
    },
    {
      "midi": 37,
      "hit": false,
      "t": 37628.55575000016,
      "d": 82.14282291666314,
      "v": 110
    },
    {
      "midi": 37,
      "hit": false,
      "t": 37714.27000000016,
      "d": 167.85707291666768,
      "v": 110
    },
    {
      "midi": 64,
      "hit": false,
      "t": 37885.698500000064,
      "d": 167.85707291666768,
      "v": 110
    },
    {
      "midi": 37,
      "hit": false,
      "t": 37885.69850000016,
      "d": 82.14282291666314,
      "v": 110
    },
    {
      "midi": 37,
      "hit": false,
      "t": 37971.412750000156,
      "d": 82.14282291666314,
      "v": 110
    },
    {
      "midi": 68,
      "hit": false,
      "t": 38057.127000000066,
      "d": 285.7141666666648,
      "v": 110
    },
    {
      "midi": 37,
      "hit": false,
      "t": 38057.12700000015,
      "d": 167.85707291666768,
      "v": 110
    },
    {
      "midi": 71,
      "hit": false,
      "t": 38228.55550000003,
      "d": 167.85707291666768,
      "v": 110
    },
    {
      "midi": 37,
      "hit": false,
      "t": 38228.555500000155,
      "d": 82.14282291666314,
      "v": 110
    },
    {
      "midi": 38,
      "hit": false,
      "t": 38314.26975000015,
      "d": 82.14282291666314,
      "v": 110
    },
    {
      "midi": 73,
      "hit": false,
      "t": 38399.98400000003,
      "d": 942.856749999999,
      "v": 110
    },
    {
      "midi": 38,
      "hit": false,
      "t": 38399.98400000015,
      "d": 167.85707291666768,
      "v": 110
    },
    {
      "midi": 38,
      "hit": false,
      "t": 38571.41250000015,
      "d": 82.14282291666314,
      "v": 110
    },
    {
      "midi": 38,
      "hit": false,
      "t": 38657.12675000015,
      "d": 82.14282291666314,
      "v": 110
    },
    {
      "midi": 38,
      "hit": false,
      "t": 38742.841000000146,
      "d": 167.85707291666768,
      "v": 110
    },
    {
      "midi": 38,
      "hit": false,
      "t": 38914.26950000015,
      "d": 82.14282291666314,
      "v": 110
    },
    {
      "midi": 38,
      "hit": false,
      "t": 38999.983750000145,
      "d": 82.14282291666314,
      "v": 110
    },
    {
      "midi": 38,
      "hit": false,
      "t": 39085.69800000014,
      "d": 167.85707291666768,
      "v": 110
    },
    {
      "midi": 38,
      "hit": false,
      "t": 39257.126500000144,
      "d": 82.14282291666314,
      "v": 110
    },
    {
      "midi": 38,
      "hit": false,
      "t": 39342.84075000014,
      "d": 82.14282291666314,
      "v": 110
    },
    {
      "midi": 71,
      "hit": false,
      "t": 39428.55500000003,
      "d": 167.85707291666768,
      "v": 110
    },
    {
      "midi": 38,
      "hit": false,
      "t": 39428.55500000014,
      "d": 167.85707291666768,
      "v": 110
    },
    {
      "midi": 76,
      "hit": false,
      "t": 39599.98350000003,
      "d": 339.2855729166695,
      "v": 110
    },
    {
      "midi": 38,
      "hit": false,
      "t": 39599.98350000014,
      "d": 82.14282291666314,
      "v": 110
    },
    {
      "midi": 38,
      "hit": false,
      "t": 39685.69775000014,
      "d": 82.14282291666314,
      "v": 110
    },
    {
      "midi": 38,
      "hit": false,
      "t": 39771.412000000135,
      "d": 167.85707291666768,
      "v": 110
    },
    {
      "midi": 73,
      "hit": false,
      "t": 39942.840500000035,
      "d": 339.2855729166695,
      "v": 110
    },
    {
      "midi": 38,
      "hit": false,
      "t": 39942.84050000014,
      "d": 82.14282291666314,
      "v": 110
    },
    {
      "midi": 38,
      "hit": false,
      "t": 40028.554750000134,
      "d": 82.14282291666314,
      "v": 110
    },
    {
      "midi": 38,
      "hit": false,
      "t": 40114.26900000013,
      "d": 167.85707291666768,
      "v": 110
    },
    {
      "midi": 71,
      "hit": false,
      "t": 40285.69750000004,
      "d": 339.2855729166695,
      "v": 110
    },
    {
      "midi": 38,
      "hit": false,
      "t": 40285.69750000013,
      "d": 82.14282291666314,
      "v": 110
    },
    {
      "midi": 38,
      "hit": false,
      "t": 40371.41175000013,
      "d": 82.14282291666314,
      "v": 110
    },
    {
      "midi": 38,
      "hit": false,
      "t": 40457.12600000013,
      "d": 167.85707291666768,
      "v": 110
    },
    {
      "midi": 73,
      "hit": false,
      "t": 40628.55450000004,
      "d": 339.2855729166695,
      "v": 110
    },
    {
      "midi": 38,
      "hit": false,
      "t": 40628.55450000013,
      "d": 82.14282291666314,
      "v": 110
    },
    {
      "midi": 38,
      "hit": false,
      "t": 40714.26875000013,
      "d": 82.14282291666314,
      "v": 110
    },
    {
      "midi": 38,
      "hit": false,
      "t": 40799.983000000124,
      "d": 167.85707291666768,
      "v": 110
    },
    {
      "midi": 71,
      "hit": false,
      "t": 40971.411500000046,
      "d": 771.4282499999972,
      "v": 110
    },
    {
      "midi": 38,
      "hit": false,
      "t": 40971.411500000126,
      "d": 82.14282291666314,
      "v": 110
    },
    {
      "midi": 38,
      "hit": false,
      "t": 41057.12575000012,
      "d": 82.14282291666314,
      "v": 110
    },
    {
      "midi": 35,
      "hit": false,
      "t": 41142.84000000012,
      "d": 167.85707291666768,
      "v": 110
    },
    {
      "midi": 35,
      "hit": false,
      "t": 41314.26850000012,
      "d": 82.14282291666314,
      "v": 110
    },
    {
      "midi": 35,
      "hit": false,
      "t": 41399.98275000012,
      "d": 82.14282291666314,
      "v": 110
    },
    {
      "midi": 35,
      "hit": false,
      "t": 41485.69700000012,
      "d": 167.85707291666768,
      "v": 110
    },
    {
      "midi": 35,
      "hit": false,
      "t": 41657.12550000012,
      "d": 82.14282291666314,
      "v": 110
    },
    {
      "midi": 35,
      "hit": false,
      "t": 41742.839750000116,
      "d": 82.14282291666314,
      "v": 110
    },
    {
      "midi": 71,
      "hit": false,
      "t": 41828.55400000004,
      "d": 285.7141666666648,
      "v": 110
    },
    {
      "midi": 35,
      "hit": false,
      "t": 41828.55400000011,
      "d": 167.85707291666768,
      "v": 110
    },
    {
      "midi": 68,
      "hit": false,
      "t": 41999.982500000064,
      "d": 167.85707291666768,
      "v": 110
    },
    {
      "midi": 35,
      "hit": false,
      "t": 41999.982500000115,
      "d": 82.14282291666314,
      "v": 110
    },
    {
      "midi": 35,
      "hit": false,
      "t": 42085.69675000011,
      "d": 82.14282291666314,
      "v": 110
    },
    {
      "midi": 71,
      "hit": false,
      "t": 42171.41100000004,
      "d": 167.85707291666768,
      "v": 110
    },
    {
      "midi": 35,
      "hit": false,
      "t": 42171.41100000011,
      "d": 167.85707291666768,
      "v": 110
    },
    {
      "midi": 72,
      "hit": false,
      "t": 42342.83950000004,
      "d": 167.85707291666768,
      "v": 110
    },
    {
      "midi": 35,
      "hit": false,
      "t": 42342.83950000011,
      "d": 82.14282291666314,
      "v": 110
    },
    {
      "midi": 32,
      "hit": false,
      "t": 42428.55375000011,
      "d": 82.14282291666314,
      "v": 110
    },
    {
      "midi": 32,
      "hit": false,
      "t": 42514.268000000106,
      "d": 167.85707291666768,
      "v": 110
    },
    {
      "midi": 72,
      "hit": false,
      "t": 42685.69650000004,
      "d": 167.85707291666768,
      "v": 110
    },
    {
      "midi": 32,
      "hit": false,
      "t": 42685.69650000011,
      "d": 82.14282291666314,
      "v": 110
    },
    {
      "midi": 32,
      "hit": false,
      "t": 42771.410750000105,
      "d": 82.14282291666314,
      "v": 110
    },
    {
      "midi": 72,
      "hit": false,
      "t": 42857.125000000044,
      "d": 167.85707291666768,
      "v": 110
    },
    {
      "midi": 32,
      "hit": false,
      "t": 42857.1250000001,
      "d": 167.85707291666768,
      "v": 110
    },
    {
      "midi": 75,
      "hit": false,
      "t": 43028.553500000045,
      "d": 167.85707291666768,
      "v": 110
    },
    {
      "midi": 32,
      "hit": false,
      "t": 43028.553500000104,
      "d": 82.14282291666314,
      "v": 110
    },
    {
      "midi": 32,
      "hit": false,
      "t": 43114.2677500001,
      "d": 82.14282291666314,
      "v": 110
    },
    {
      "midi": 80,
      "hit": false,
      "t": 43199.98200000005,
      "d": 599.9997500000027,
      "v": 110
    },
    {
      "midi": 32,
      "hit": false,
      "t": 43199.9820000001,
      "d": 167.85707291666768,
      "v": 110
    },
    {
      "midi": 32,
      "hit": false,
      "t": 43371.4105000001,
      "d": 82.14282291666314,
      "v": 110
    },
    {
      "midi": 32,
      "hit": false,
      "t": 43457.1247500001,
      "d": 82.14282291666314,
      "v": 110
    },
    {
      "midi": 32,
      "hit": false,
      "t": 43542.839000000095,
      "d": 167.85707291666768,
      "v": 110
    },
    {
      "midi": 32,
      "hit": false,
      "t": 43714.267500000096,
      "d": 82.14282291666314,
      "v": 110
    },
    {
      "midi": 32,
      "hit": false,
      "t": 43799.98175000009,
      "d": 82.14282291666314,
      "v": 110
    },
    {
      "midi": 56,
      "hit": false,
      "t": 43885.696,
      "d": 942.856749999999,
      "v": 110
    },
    {
      "midi": 37,
      "hit": false,
      "t": 43885.69600000009,
      "d": 167.85707291666768,
      "v": 110
    },
    {
      "midi": 64,
      "hit": false,
      "t": 44057.12450000006,
      "d": 82.14282291666314,
      "v": 110
    },
    {
      "midi": 37,
      "hit": false,
      "t": 44057.12450000009,
      "d": 82.14282291666314,
      "v": 110
    },
    {
      "midi": 64,
      "hit": false,
      "t": 44142.83875000006,
      "d": 82.14282291666314,
      "v": 110
    },
    {
      "midi": 37,
      "hit": false,
      "t": 44142.83875000009,
      "d": 82.14282291666314,
      "v": 110
    },
    {
      "midi": 64,
      "hit": false,
      "t": 44228.55300000006,
      "d": 167.85707291666768,
      "v": 110
    },
    {
      "midi": 37,
      "hit": false,
      "t": 44228.55300000009,
      "d": 167.85707291666768,
      "v": 110
    },
    {
      "midi": 64,
      "hit": false,
      "t": 44399.98150000006,
      "d": 82.14282291666314,
      "v": 110
    },
    {
      "midi": 37,
      "hit": false,
      "t": 44399.98150000009,
      "d": 82.14282291666314,
      "v": 110
    },
    {
      "midi": 64,
      "hit": false,
      "t": 44485.69575000006,
      "d": 82.14282291666314,
      "v": 110
    },
    {
      "midi": 37,
      "hit": false,
      "t": 44485.695750000086,
      "d": 82.14282291666314,
      "v": 110
    },
    {
      "midi": 64,
      "hit": false,
      "t": 44571.410000000054,
      "d": 167.85707291666768,
      "v": 110
    },
    {
      "midi": 37,
      "hit": false,
      "t": 44571.41000000008,
      "d": 167.85707291666768,
      "v": 110
    },
    {
      "midi": 61,
      "hit": false,
      "t": 44742.838500000056,
      "d": 167.85707291666768,
      "v": 110
    },
    {
      "midi": 37,
      "hit": false,
      "t": 44742.838500000085,
      "d": 82.14282291666314,
      "v": 110
    },
    {
      "midi": 37,
      "hit": false,
      "t": 44828.55275000008,
      "d": 82.14282291666314,
      "v": 110
    },
    {
      "midi": 54,
      "hit": false,
      "t": 44914.267,
      "d": 285.7141666666648,
      "v": 110
    },
    {
      "midi": 37,
      "hit": false,
      "t": 44914.26700000008,
      "d": 167.85707291666768,
      "v": 110
    },
    {
      "midi": 59,
      "hit": false,
      "t": 45085.69550000006,
      "d": 82.14282291666314,
      "v": 110
    },
    {
      "midi": 61,
      "hit": false,
      "t": 45085.69550000006,
      "d": 82.14282291666314,
      "v": 110
    },
    {
      "midi": 37,
      "hit": false,
      "t": 45085.69550000008,
      "d": 82.14282291666314,
      "v": 110
    },
    {
      "midi": 61,
      "hit": false,
      "t": 45171.40975000006,
      "d": 82.14282291666314,
      "v": 110
    },
    {
      "midi": 37,
      "hit": false,
      "t": 45171.40975000008,
      "d": 82.14282291666314,
      "v": 110
    },
    {
      "midi": 64,
      "hit": false,
      "t": 45257.124000000054,
      "d": 167.85707291666768,
      "v": 110
    },
    {
      "midi": 37,
      "hit": false,
      "t": 45257.124000000076,
      "d": 167.85707291666768,
      "v": 110
    },
    {
      "midi": 57,
      "hit": false,
      "t": 45428.5525,
      "d": 339.2855729166695,
      "v": 110
    },
    {
      "midi": 64,
      "hit": false,
      "t": 45428.552500000056,
      "d": 82.14282291666314,
      "v": 110
    },
    {
      "midi": 37,
      "hit": false,
      "t": 45428.55250000008,
      "d": 82.14282291666314,
      "v": 110
    },
    {
      "midi": 64,
      "hit": false,
      "t": 45514.26675000005,
      "d": 82.14282291666314,
      "v": 110
    },
    {
      "midi": 37,
      "hit": false,
      "t": 45514.266750000075,
      "d": 82.14282291666314,
      "v": 110
    },
    {
      "midi": 64,
      "hit": false,
      "t": 45599.98100000005,
      "d": 167.85707291666768,
      "v": 110
    },
    {
      "midi": 37,
      "hit": false,
      "t": 45599.98100000007,
      "d": 167.85707291666768,
      "v": 110
    },
    {
      "midi": 56,
      "hit": false,
      "t": 45771.4095,
      "d": 339.2855729166695,
      "v": 110
    },
    {
      "midi": 61,
      "hit": false,
      "t": 45771.40950000005,
      "d": 167.85707291666768,
      "v": 110
    },
    {
      "midi": 37,
      "hit": false,
      "t": 45771.409500000074,
      "d": 82.14282291666314,
      "v": 110
    },
    {
      "midi": 37,
      "hit": false,
      "t": 45857.12375000007,
      "d": 82.14282291666314,
      "v": 110
    },
    {
      "midi": 37,
      "hit": false,
      "t": 45942.83800000007,
      "d": 167.85707291666768,
      "v": 110
    },
    {
      "midi": 57,
      "hit": false,
      "t": 46114.266500000005,
      "d": 339.2855729166695,
      "v": 110
    },
    {
      "midi": 68,
      "hit": false,
      "t": 46114.266500000056,
      "d": 167.85707291666768,
      "v": 110
    },
    {
      "midi": 37,
      "hit": false,
      "t": 46114.26650000007,
      "d": 82.14282291666314,
      "v": 110
    },
    {
      "midi": 37,
      "hit": false,
      "t": 46199.98075000007,
      "d": 82.14282291666314,
      "v": 110
    },
    {
      "midi": 66,
      "hit": false,
      "t": 46285.69500000006,
      "d": 167.85707291666768,
      "v": 110
    },
    {
      "midi": 35,
      "hit": false,
      "t": 46285.695000000065,
      "d": 167.85707291666768,
      "v": 110
    },
    {
      "midi": 56,
      "hit": false,
      "t": 46457.12350000001,
      "d": 1114.2852500000008,
      "v": 110
    },
    {
      "midi": 68,
      "hit": false,
      "t": 46457.12350000006,
      "d": 167.85707291666768,
      "v": 110
    },
    {
      "midi": 35,
      "hit": false,
      "t": 46457.12350000007,
      "d": 82.14282291666314,
      "v": 110
    },
    {
      "midi": 35,
      "hit": false,
      "t": 46542.837750000064,
      "d": 82.14282291666314,
      "v": 110
    },
    {
      "midi": 33,
      "hit": false,
      "t": 46628.55200000006,
      "d": 167.85707291666768,
      "v": 110
    },
    {
      "midi": 64,
      "hit": false,
      "t": 46799.98050000006,
      "d": 82.14282291666314,
      "v": 110
    },
    {
      "midi": 33,
      "hit": false,
      "t": 46799.98050000006,
      "d": 82.14282291666314,
      "v": 110
    },
    {
      "midi": 64,
      "hit": false,
      "t": 46885.69475000006,
      "d": 82.14282291666314,
      "v": 110
    },
    {
      "midi": 33,
      "hit": false,
      "t": 46885.69475000006,
      "d": 82.14282291666314,
      "v": 110
    },
    {
      "midi": 64,
      "hit": false,
      "t": 46971.40900000006,
      "d": 167.85707291666768,
      "v": 110
    },
    {
      "midi": 33,
      "hit": false,
      "t": 46971.40900000006,
      "d": 167.85707291666768,
      "v": 110
    },
    {
      "midi": 64,
      "hit": false,
      "t": 47142.83750000006,
      "d": 82.14282291666314,
      "v": 110
    },
    {
      "midi": 33,
      "hit": false,
      "t": 47142.83750000006,
      "d": 82.14282291666314,
      "v": 110
    },
    {
      "midi": 64,
      "hit": false,
      "t": 47228.55175000006,
      "d": 82.14282291666314,
      "v": 110
    },
    {
      "midi": 33,
      "hit": false,
      "t": 47228.55175000006,
      "d": 82.14282291666314,
      "v": 110
    },
    {
      "midi": 64,
      "hit": false,
      "t": 47314.266000000054,
      "d": 167.85707291666768,
      "v": 110
    },
    {
      "midi": 33,
      "hit": false,
      "t": 47314.266000000054,
      "d": 167.85707291666768,
      "v": 110
    },
    {
      "midi": 61,
      "hit": false,
      "t": 47485.694500000056,
      "d": 167.85707291666768,
      "v": 110
    },
    {
      "midi": 33,
      "hit": false,
      "t": 47485.694500000056,
      "d": 82.14282291666314,
      "v": 110
    },
    {
      "midi": 33,
      "hit": false,
      "t": 47571.40875000005,
      "d": 82.14282291666314,
      "v": 110
    },
    {
      "midi": 54,
      "hit": false,
      "t": 47657.12300000001,
      "d": 285.7141666666648,
      "v": 110
    },
    {
      "midi": 33,
      "hit": false,
      "t": 47657.12300000005,
      "d": 167.85707291666768,
      "v": 110
    },
    {
      "midi": 33,
      "hit": false,
      "t": 47828.55150000005,
      "d": 82.14282291666314,
      "v": 110
    },
    {
      "midi": 59,
      "hit": false,
      "t": 47828.55150000006,
      "d": 167.85707291666768,
      "v": 110
    },
    {
      "midi": 68,
      "hit": false,
      "t": 47828.55150000006,
      "d": 167.85707291666768,
      "v": 110
    },
    {
      "midi": 33,
      "hit": false,
      "t": 47914.26575000005,
      "d": 82.14282291666314,
      "v": 110
    },
    {
      "midi": 33,
      "hit": false,
      "t": 47999.98000000005,
      "d": 167.85707291666768,
      "v": 110
    },
    {
      "midi": 57,
      "hit": false,
      "t": 48171.408500000005,
      "d": 339.2855729166695,
      "v": 110
    },
    {
      "midi": 33,
      "hit": false,
      "t": 48171.40850000005,
      "d": 82.14282291666314,
      "v": 110
    },
    {
      "midi": 66,
      "hit": false,
      "t": 48171.40850000006,
      "d": 167.85707291666768,
      "v": 110
    },
    {
      "midi": 33,
      "hit": false,
      "t": 48257.122750000046,
      "d": 82.14282291666314,
      "v": 110
    },
    {
      "midi": 33,
      "hit": false,
      "t": 48342.83700000004,
      "d": 167.85707291666768,
      "v": 110
    },
    {
      "midi": 56,
      "hit": false,
      "t": 48514.26550000001,
      "d": 339.2855729166695,
      "v": 110
    },
    {
      "midi": 33,
      "hit": false,
      "t": 48514.265500000045,
      "d": 82.14282291666314,
      "v": 110
    },
    {
      "midi": 64,
      "hit": false,
      "t": 48514.26550000007,
      "d": 167.85707291666768,
      "v": 110
    },
    {
      "midi": 33,
      "hit": false,
      "t": 48599.97975000004,
      "d": 82.14282291666314,
      "v": 110
    },
    {
      "midi": 33,
      "hit": false,
      "t": 48685.69400000004,
      "d": 167.85707291666768,
      "v": 110
    },
    {
      "midi": 57,
      "hit": false,
      "t": 48857.12250000001,
      "d": 339.2855729166695,
      "v": 110
    },
    {
      "midi": 33,
      "hit": false,
      "t": 48857.12250000004,
      "d": 82.14282291666314,
      "v": 110
    },
    {
      "midi": 66,
      "hit": false,
      "t": 48857.12250000007,
      "d": 167.85707291666768,
      "v": 110
    },
    {
      "midi": 33,
      "hit": false,
      "t": 48942.83675000004,
      "d": 82.14282291666314,
      "v": 110
    },
    {
      "midi": 33,
      "hit": false,
      "t": 49028.551000000036,
      "d": 167.85707291666768,
      "v": 110
    },
    {
      "midi": 52,
      "hit": false,
      "t": 49199.979500000016,
      "d": 771.4282499999972,
      "v": 110
    },
    {
      "midi": 33,
      "hit": false,
      "t": 49199.97950000004,
      "d": 82.14282291666314,
      "v": 110
    },
    {
      "midi": 33,
      "hit": false,
      "t": 49285.693750000035,
      "d": 82.14282291666314,
      "v": 110
    },
    {
      "midi": 35,
      "hit": false,
      "t": 49371.40800000003,
      "d": 167.85707291666768,
      "v": 110
    },
    {
      "midi": 35,
      "hit": false,
      "t": 49542.836500000034,
      "d": 82.14282291666314,
      "v": 110
    },
    {
      "midi": 66,
      "hit": false,
      "t": 49542.83650000007,
      "d": 82.14282291666314,
      "v": 110
    },
    {
      "midi": 35,
      "hit": false,
      "t": 49628.55075000003,
      "d": 82.14282291666314,
      "v": 110
    },
    {
      "midi": 66,
      "hit": false,
      "t": 49628.55075000007,
      "d": 82.14282291666314,
      "v": 110
    },
    {
      "midi": 35,
      "hit": false,
      "t": 49714.26500000003,
      "d": 167.85707291666768,
      "v": 110
    },
    {
      "midi": 66,
      "hit": false,
      "t": 49714.265000000065,
      "d": 167.85707291666768,
      "v": 110
    },
    {
      "midi": 35,
      "hit": false,
      "t": 49885.69350000003,
      "d": 82.14282291666314,
      "v": 110
    },
    {
      "midi": 66,
      "hit": false,
      "t": 49885.69350000007,
      "d": 82.14282291666314,
      "v": 110
    },
    {
      "midi": 35,
      "hit": false,
      "t": 49971.40775000003,
      "d": 82.14282291666314,
      "v": 110
    },
    {
      "midi": 66,
      "hit": false,
      "t": 49971.407750000064,
      "d": 82.14282291666314,
      "v": 110
    },
    {
      "midi": 52,
      "hit": false,
      "t": 50057.12200000001,
      "d": 167.85707291666768,
      "v": 110
    },
    {
      "midi": 35,
      "hit": false,
      "t": 50057.122000000025,
      "d": 167.85707291666768,
      "v": 110
    },
    {
      "midi": 66,
      "hit": false,
      "t": 50057.12200000006,
      "d": 167.85707291666768,
      "v": 110
    },
    {
      "midi": 54,
      "hit": false,
      "t": 50228.55050000001,
      "d": 167.85707291666768,
      "v": 110
    },
    {
      "midi": 35,
      "hit": false,
      "t": 50228.55050000003,
      "d": 82.14282291666314,
      "v": 110
    },
    {
      "midi": 63,
      "hit": false,
      "t": 50228.55050000006,
      "d": 167.85707291666768,
      "v": 110
    },
    {
      "midi": 35,
      "hit": false,
      "t": 50314.264750000024,
      "d": 82.14282291666314,
      "v": 110
    },
    {
      "midi": 56,
      "hit": false,
      "t": 50399.979000000014,
      "d": 167.85707291666768,
      "v": 110
    },
    {
      "midi": 35,
      "hit": false,
      "t": 50399.97900000002,
      "d": 167.85707291666768,
      "v": 110
    },
    {
      "midi": 51,
      "hit": false,
      "t": 50571.407500000016,
      "d": 1457.1422499999971,
      "v": 110
    },
    {
      "midi": 35,
      "hit": false,
      "t": 50571.40750000002,
      "d": 82.14282291666314,
      "v": 110
    },
    {
      "midi": 68,
      "hit": false,
      "t": 50571.40750000007,
      "d": 167.85707291666768,
      "v": 110
    },
    {
      "midi": 35,
      "hit": false,
      "t": 50657.12175000002,
      "d": 82.14282291666314,
      "v": 110
    },
    {
      "midi": 35,
      "hit": false,
      "t": 50742.83600000002,
      "d": 167.85707291666768,
      "v": 110
    },
    {
      "midi": 35,
      "hit": false,
      "t": 50914.26450000002,
      "d": 82.14282291666314,
      "v": 110
    },
    {
      "midi": 66,
      "hit": false,
      "t": 50914.26450000007,
      "d": 167.85707291666768,
      "v": 110
    },
    {
      "midi": 35,
      "hit": false,
      "t": 50999.97875000002,
      "d": 82.14282291666314,
      "v": 110
    },
    {
      "midi": 35,
      "hit": false,
      "t": 51085.693000000014,
      "d": 167.85707291666768,
      "v": 110
    },
    {
      "midi": 35,
      "hit": false,
      "t": 51257.121500000016,
      "d": 82.14282291666314,
      "v": 110
    },
    {
      "midi": 64,
      "hit": false,
      "t": 51257.121500000074,
      "d": 167.85707291666768,
      "v": 110
    },
    {
      "midi": 35,
      "hit": false,
      "t": 51342.83575000001,
      "d": 82.14282291666314,
      "v": 110
    },
    {
      "midi": 35,
      "hit": false,
      "t": 51428.55000000001,
      "d": 167.85707291666768,
      "v": 110
    },
    {
      "midi": 35,
      "hit": false,
      "t": 51599.97850000001,
      "d": 82.14282291666314,
      "v": 110
    },
    {
      "midi": 63,
      "hit": false,
      "t": 51599.97850000008,
      "d": 167.85707291666768,
      "v": 110
    },
    {
      "midi": 35,
      "hit": false,
      "t": 51685.69275000001,
      "d": 82.14282291666314,
      "v": 110
    },
    {
      "midi": 35,
      "hit": false,
      "t": 51771.40700000001,
      "d": 167.85707291666768,
      "v": 110
    },
    {
      "midi": 35,
      "hit": false,
      "t": 51942.83550000001,
      "d": 82.14282291666314,
      "v": 110
    },
    {
      "midi": 61,
      "hit": false,
      "t": 51942.83550000008,
      "d": 167.85707291666768,
      "v": 110
    },
    {
      "midi": 35,
      "hit": false,
      "t": 52028.549750000006,
      "d": 82.14282291666314,
      "v": 110
    },
    {
      "midi": 37,
      "hit": false,
      "t": 52114.264,
      "d": 167.85707291666768,
      "v": 110
    },
    {
      "midi": 37,
      "hit": false,
      "t": 52285.692500000005,
      "d": 82.14282291666314,
      "v": 110
    },
    {
      "midi": 61,
      "hit": false,
      "t": 52285.692500000085,
      "d": 167.85707291666768,
      "v": 110
    },
    {
      "midi": 37,
      "hit": false,
      "t": 52371.40675,
      "d": 82.14282291666314,
      "v": 110
    },
    {
      "midi": 37,
      "hit": false,
      "t": 52457.121,
      "d": 167.85707291666768,
      "v": 110
    },
    {
      "midi": 68,
      "hit": false,
      "t": 52457.12100000009,
      "d": 285.7141666666648,
      "v": 110
    },
    {
      "midi": 37,
      "hit": false,
      "t": 52628.5495,
      "d": 82.14282291666314,
      "v": 110
    },
    {
      "midi": 71,
      "hit": false,
      "t": 52628.54950000005,
      "d": 167.85707291666768,
      "v": 110
    },
    {
      "midi": 37,
      "hit": false,
      "t": 52714.26375,
      "d": 82.14282291666314,
      "v": 110
    },
    {
      "midi": 37,
      "hit": false,
      "t": 52799.977999999996,
      "d": 167.85707291666768,
      "v": 110
    },
    {
      "midi": 70,
      "hit": false,
      "t": 52799.978000000054,
      "d": 599.9997500000027,
      "v": 110
    },
    {
      "midi": 37,
      "hit": false,
      "t": 52971.4065,
      "d": 82.14282291666314,
      "v": 110
    },
    {
      "midi": 37,
      "hit": false,
      "t": 53057.120749999995,
      "d": 82.14282291666314,
      "v": 110
    },
    {
      "midi": 37,
      "hit": false,
      "t": 53142.83499999999,
      "d": 167.85707291666768,
      "v": 110
    },
    {
      "midi": 37,
      "hit": false,
      "t": 53314.263499999994,
      "d": 82.14282291666314,
      "v": 110
    },
    {
      "midi": 61,
      "hit": false,
      "t": 53314.26350000009,
      "d": 167.85707291666768,
      "v": 110
    },
    {
      "midi": 37,
      "hit": false,
      "t": 53399.97774999999,
      "d": 82.14282291666314,
      "v": 110
    },
    {
      "midi": 37,
      "hit": false,
      "t": 53485.69199999999,
      "d": 167.85707291666768,
      "v": 110
    },
    {
      "midi": 37,
      "hit": false,
      "t": 53657.12049999999,
      "d": 82.14282291666314,
      "v": 110
    },
    {
      "midi": 61,
      "hit": false,
      "t": 53657.12050000009,
      "d": 167.85707291666768,
      "v": 110
    },
    {
      "midi": 37,
      "hit": false,
      "t": 53742.83474999999,
      "d": 82.14282291666314,
      "v": 110
    },
    {
      "midi": 37,
      "hit": false,
      "t": 53828.548999999985,
      "d": 167.85707291666768,
      "v": 110
    },
    {
      "midi": 68,
      "hit": false,
      "t": 53828.549000000094,
      "d": 285.7141666666648,
      "v": 110
    },
    {
      "midi": 37,
      "hit": false,
      "t": 53999.977499999986,
      "d": 82.14282291666314,
      "v": 110
    },
    {
      "midi": 71,
      "hit": false,
      "t": 53999.97750000006,
      "d": 167.85707291666768,
      "v": 110
    },
    {
      "midi": 37,
      "hit": false,
      "t": 54085.69174999998,
      "d": 82.14282291666314,
      "v": 110
    },
    {
      "midi": 37,
      "hit": false,
      "t": 54171.40599999998,
      "d": 167.85707291666768,
      "v": 110
    },
    {
      "midi": 70,
      "hit": false,
      "t": 54171.40600000006,
      "d": 285.7141666666648,
      "v": 110
    },
    {
      "midi": 37,
      "hit": false,
      "t": 54342.83449999998,
      "d": 82.14282291666314,
      "v": 110
    },
    {
      "midi": 37,
      "hit": false,
      "t": 54428.54874999998,
      "d": 82.14282291666314,
      "v": 110
    },
    {
      "midi": 35,
      "hit": false,
      "t": 54514.26299999998,
      "d": 167.85707291666768,
      "v": 110
    },
    {
      "midi": 71,
      "hit": false,
      "t": 54514.26300000006,
      "d": 167.85707291666768,
      "v": 110
    },
    {
      "midi": 35,
      "hit": false,
      "t": 54685.69149999998,
      "d": 82.14282291666314,
      "v": 110
    },
    {
      "midi": 73,
      "hit": false,
      "t": 54685.69150000006,
      "d": 457.1426666666666,
      "v": 110
    },
    {
      "midi": 37,
      "hit": false,
      "t": 54771.405749999976,
      "d": 82.14282291666314,
      "v": 110
    },
    {
      "midi": 37,
      "hit": false,
      "t": 54857.11999999997,
      "d": 167.85707291666768,
      "v": 110
    },
    {
      "midi": 37,
      "hit": false,
      "t": 55028.548499999975,
      "d": 82.14282291666314,
      "v": 110
    },
    {
      "midi": 61,
      "hit": false,
      "t": 55028.54850000009,
      "d": 82.14282291666314,
      "v": 110
    },
    {
      "midi": 64,
      "hit": false,
      "t": 55028.54850000009,
      "d": 82.14282291666314,
      "v": 110
    },
    {
      "midi": 37,
      "hit": false,
      "t": 55114.26274999997,
      "d": 82.14282291666314,
      "v": 110
    },
    {
      "midi": 61,
      "hit": false,
      "t": 55114.26275000009,
      "d": 82.14282291666314,
      "v": 110
    },
    {
      "midi": 64,
      "hit": false,
      "t": 55114.26275000009,
      "d": 82.14282291666314,
      "v": 110
    },
    {
      "midi": 37,
      "hit": false,
      "t": 55199.97699999997,
      "d": 167.85707291666768,
      "v": 110
    },
    {
      "midi": 61,
      "hit": false,
      "t": 55199.977000000086,
      "d": 167.85707291666768,
      "v": 110
    },
    {
      "midi": 64,
      "hit": false,
      "t": 55199.977000000086,
      "d": 167.85707291666768,
      "v": 110
    },
    {
      "midi": 37,
      "hit": false,
      "t": 55371.40549999997,
      "d": 82.14282291666314,
      "v": 110
    },
    {
      "midi": 61,
      "hit": false,
      "t": 55371.40550000009,
      "d": 82.14282291666314,
      "v": 110
    },
    {
      "midi": 64,
      "hit": false,
      "t": 55371.40550000009,
      "d": 82.14282291666314,
      "v": 110
    },
    {
      "midi": 37,
      "hit": false,
      "t": 55457.11974999997,
      "d": 82.14282291666314,
      "v": 110
    },
    {
      "midi": 61,
      "hit": false,
      "t": 55457.119750000085,
      "d": 82.14282291666314,
      "v": 110
    },
    {
      "midi": 64,
      "hit": false,
      "t": 55457.119750000085,
      "d": 82.14282291666314,
      "v": 110
    },
    {
      "midi": 37,
      "hit": false,
      "t": 55542.833999999966,
      "d": 167.85707291666768,
      "v": 110
    },
    {
      "midi": 73,
      "hit": false,
      "t": 55542.83400000006,
      "d": 285.7141666666648,
      "v": 110
    },
    {
      "midi": 61,
      "hit": false,
      "t": 55542.83400000008,
      "d": 167.85707291666768,
      "v": 110
    },
    {
      "midi": 64,
      "hit": false,
      "t": 55542.83400000008,
      "d": 167.85707291666768,
      "v": 110
    },
    {
      "midi": 37,
      "hit": false,
      "t": 55714.26249999997,
      "d": 82.14282291666314,
      "v": 110
    },
    {
      "midi": 56,
      "hit": false,
      "t": 55714.26250000001,
      "d": 167.85707291666768,
      "v": 110
    },
    {
      "midi": 61,
      "hit": false,
      "t": 55714.262500000084,
      "d": 167.85707291666768,
      "v": 110
    },
    {
      "midi": 37,
      "hit": false,
      "t": 55799.976749999965,
      "d": 82.14282291666314,
      "v": 110
    },
    {
      "midi": 37,
      "hit": false,
      "t": 55885.69099999996,
      "d": 167.85707291666768,
      "v": 110
    },
    {
      "midi": 71,
      "hit": false,
      "t": 55885.69100000006,
      "d": 167.85707291666768,
      "v": 110
    },
    {
      "midi": 37,
      "hit": false,
      "t": 56057.119499999964,
      "d": 82.14282291666314,
      "v": 110
    },
    {
      "midi": 56,
      "hit": false,
      "t": 56057.119500000015,
      "d": 82.14282291666314,
      "v": 110
    },
    {
      "midi": 73,
      "hit": false,
      "t": 56057.11950000006,
      "d": 167.85707291666768,
      "v": 110
    },
    {
      "midi": 61,
      "hit": false,
      "t": 56057.11950000009,
      "d": 82.14282291666314,
      "v": 110
    },
    {
      "midi": 37,
      "hit": false,
      "t": 56142.83374999996,
      "d": 82.14282291666314,
      "v": 110
    },
    {
      "midi": 56,
      "hit": false,
      "t": 56142.83375000001,
      "d": 82.14282291666314,
      "v": 110
    },
    {
      "midi": 61,
      "hit": false,
      "t": 56142.833750000085,
      "d": 82.14282291666314,
      "v": 110
    },
    {
      "midi": 37,
      "hit": false,
      "t": 56228.54799999996,
      "d": 167.85707291666768,
      "v": 110
    },
    {
      "midi": 61,
      "hit": false,
      "t": 56228.54800000008,
      "d": 167.85707291666768,
      "v": 110
    },
    {
      "midi": 64,
      "hit": false,
      "t": 56228.54800000008,
      "d": 167.85707291666768,
      "v": 110
    },
    {
      "midi": 37,
      "hit": false,
      "t": 56399.97649999996,
      "d": 82.14282291666314,
      "v": 110
    },
    {
      "midi": 76,
      "hit": false,
      "t": 56399.97650000006,
      "d": 167.85707291666768,
      "v": 110
    },
    {
      "midi": 61,
      "hit": false,
      "t": 56399.976500000084,
      "d": 82.14282291666314,
      "v": 110
    },
    {
      "midi": 64,
      "hit": false,
      "t": 56399.976500000084,
      "d": 82.14282291666314,
      "v": 110
    },
    {
      "midi": 37,
      "hit": false,
      "t": 56485.69074999996,
      "d": 82.14282291666314,
      "v": 110
    },
    {
      "midi": 61,
      "hit": false,
      "t": 56485.69075000008,
      "d": 82.14282291666314,
      "v": 110
    },
    {
      "midi": 64,
      "hit": false,
      "t": 56485.69075000008,
      "d": 82.14282291666314,
      "v": 110
    },
    {
      "midi": 37,
      "hit": false,
      "t": 56571.404999999955,
      "d": 167.85707291666768,
      "v": 110
    },
    {
      "midi": 61,
      "hit": false,
      "t": 56571.40500000008,
      "d": 167.85707291666768,
      "v": 110
    },
    {
      "midi": 64,
      "hit": false,
      "t": 56571.40500000008,
      "d": 167.85707291666768,
      "v": 110
    },
    {
      "midi": 37,
      "hit": false,
      "t": 56742.83349999996,
      "d": 82.14282291666314,
      "v": 110
    },
    {
      "midi": 56,
      "hit": false,
      "t": 56742.83350000001,
      "d": 167.85707291666768,
      "v": 110
    },
    {
      "midi": 61,
      "hit": false,
      "t": 56742.83350000008,
      "d": 167.85707291666768,
      "v": 110
    },
    {
      "midi": 37,
      "hit": false,
      "t": 56828.547749999954,
      "d": 82.14282291666314,
      "v": 110
    },
    {
      "midi": 37,
      "hit": false,
      "t": 56914.26199999995,
      "d": 167.85707291666768,
      "v": 110
    },
    {
      "midi": 80,
      "hit": false,
      "t": 56914.26200000006,
      "d": 167.85707291666768,
      "v": 110
    },
    {
      "midi": 37,
      "hit": false,
      "t": 57085.69049999995,
      "d": 82.14282291666314,
      "v": 110
    },
    {
      "midi": 78,
      "hit": false,
      "t": 57085.69050000006,
      "d": 167.85707291666768,
      "v": 110
    },
    {
      "midi": 61,
      "hit": false,
      "t": 57085.690500000084,
      "d": 167.85707291666768,
      "v": 110
    },
    {
      "midi": 64,
      "hit": false,
      "t": 57085.690500000084,
      "d": 167.85707291666768,
      "v": 110
    },
    {
      "midi": 68,
      "hit": false,
      "t": 57085.690500000084,
      "d": 167.85707291666768,
      "v": 110
    },
    {
      "midi": 37,
      "hit": false,
      "t": 57171.40474999995,
      "d": 82.14282291666314,
      "v": 110
    },
    {
      "midi": 35,
      "hit": false,
      "t": 57257.11899999995,
      "d": 167.85707291666768,
      "v": 110
    },
    {
      "midi": 76,
      "hit": false,
      "t": 57257.119000000064,
      "d": 167.85707291666768,
      "v": 110
    },
    {
      "midi": 59,
      "hit": false,
      "t": 57257.119000000086,
      "d": 167.85707291666768,
      "v": 110
    },
    {
      "midi": 63,
      "hit": false,
      "t": 57257.119000000086,
      "d": 167.85707291666768,
      "v": 110
    },
    {
      "midi": 66,
      "hit": false,
      "t": 57257.119000000086,
      "d": 167.85707291666768,
      "v": 110
    },
    {
      "midi": 35,
      "hit": false,
      "t": 57428.54749999995,
      "d": 82.14282291666314,
      "v": 110
    },
    {
      "midi": 75,
      "hit": false,
      "t": 57428.547500000066,
      "d": 167.85707291666768,
      "v": 110
    },
    {
      "midi": 61,
      "hit": false,
      "t": 57428.54750000009,
      "d": 167.85707291666768,
      "v": 110
    },
    {
      "midi": 64,
      "hit": false,
      "t": 57428.54750000009,
      "d": 167.85707291666768,
      "v": 110
    },
    {
      "midi": 68,
      "hit": false,
      "t": 57428.54750000009,
      "d": 167.85707291666768,
      "v": 110
    },
    {
      "midi": 35,
      "hit": false,
      "t": 57514.26174999995,
      "d": 82.14282291666314,
      "v": 110
    },
    {
      "midi": 33,
      "hit": false,
      "t": 57599.975999999944,
      "d": 167.85707291666768,
      "v": 110
    },
    {
      "midi": 73,
      "hit": false,
      "t": 57599.97600000007,
      "d": 285.7141666666648,
      "v": 110
    },
    {
      "midi": 33,
      "hit": false,
      "t": 57771.404499999946,
      "d": 82.14282291666314,
      "v": 110
    },
    {
      "midi": 61,
      "hit": false,
      "t": 57771.40450000009,
      "d": 82.14282291666314,
      "v": 110
    },
    {
      "midi": 64,
      "hit": false,
      "t": 57771.40450000009,
      "d": 82.14282291666314,
      "v": 110
    },
    {
      "midi": 33,
      "hit": false,
      "t": 57857.11874999994,
      "d": 82.14282291666314,
      "v": 110
    },
    {
      "midi": 61,
      "hit": false,
      "t": 57857.11875000009,
      "d": 82.14282291666314,
      "v": 110
    },
    {
      "midi": 64,
      "hit": false,
      "t": 57857.11875000009,
      "d": 82.14282291666314,
      "v": 110
    },
    {
      "midi": 33,
      "hit": false,
      "t": 57942.83299999994,
      "d": 167.85707291666768,
      "v": 110
    },
    {
      "midi": 61,
      "hit": false,
      "t": 57942.833000000086,
      "d": 167.85707291666768,
      "v": 110
    },
    {
      "midi": 64,
      "hit": false,
      "t": 57942.833000000086,
      "d": 167.85707291666768,
      "v": 110
    },
    {
      "midi": 33,
      "hit": false,
      "t": 58114.26149999994,
      "d": 82.14282291666314,
      "v": 110
    },
    {
      "midi": 61,
      "hit": false,
      "t": 58114.26150000009,
      "d": 82.14282291666314,
      "v": 110
    },
    {
      "midi": 64,
      "hit": false,
      "t": 58114.26150000009,
      "d": 82.14282291666314,
      "v": 110
    },
    {
      "midi": 33,
      "hit": false,
      "t": 58199.97574999994,
      "d": 82.14282291666314,
      "v": 110
    },
    {
      "midi": 61,
      "hit": false,
      "t": 58199.975750000085,
      "d": 82.14282291666314,
      "v": 110
    },
    {
      "midi": 64,
      "hit": false,
      "t": 58199.975750000085,
      "d": 82.14282291666314,
      "v": 110
    },
    {
      "midi": 33,
      "hit": false,
      "t": 58285.68999999994,
      "d": 167.85707291666768,
      "v": 110
    },
    {
      "midi": 73,
      "hit": false,
      "t": 58285.69000000007,
      "d": 285.7141666666648,
      "v": 110
    },
    {
      "midi": 61,
      "hit": false,
      "t": 58285.69000000008,
      "d": 167.85707291666768,
      "v": 110
    },
    {
      "midi": 64,
      "hit": false,
      "t": 58285.69000000008,
      "d": 167.85707291666768,
      "v": 110
    },
    {
      "midi": 33,
      "hit": false,
      "t": 58457.11849999994,
      "d": 82.14282291666314,
      "v": 110
    },
    {
      "midi": 56,
      "hit": false,
      "t": 58457.11850000001,
      "d": 167.85707291666768,
      "v": 110
    },
    {
      "midi": 61,
      "hit": false,
      "t": 58457.118500000084,
      "d": 167.85707291666768,
      "v": 110
    },
    {
      "midi": 33,
      "hit": false,
      "t": 58542.832749999936,
      "d": 82.14282291666314,
      "v": 110
    },
    {
      "midi": 33,
      "hit": false,
      "t": 58628.54699999993,
      "d": 167.85707291666768,
      "v": 110
    },
    {
      "midi": 71,
      "hit": false,
      "t": 58628.547000000064,
      "d": 167.85707291666768,
      "v": 110
    },
    {
      "midi": 33,
      "hit": false,
      "t": 58799.975499999935,
      "d": 82.14282291666314,
      "v": 110
    },
    {
      "midi": 73,
      "hit": false,
      "t": 58799.975500000066,
      "d": 167.85707291666768,
      "v": 110
    },
    {
      "midi": 61,
      "hit": false,
      "t": 58799.97550000009,
      "d": 167.85707291666768,
      "v": 110
    },
    {
      "midi": 64,
      "hit": false,
      "t": 58799.97550000009,
      "d": 167.85707291666768,
      "v": 110
    },
    {
      "midi": 68,
      "hit": false,
      "t": 58799.97550000009,
      "d": 167.85707291666768,
      "v": 110
    },
    {
      "midi": 33,
      "hit": false,
      "t": 58885.68974999993,
      "d": 82.14282291666314,
      "v": 110
    },
    {
      "midi": 33,
      "hit": false,
      "t": 58971.40399999993,
      "d": 167.85707291666768,
      "v": 110
    },
    {
      "midi": 33,
      "hit": false,
      "t": 59142.83249999993,
      "d": 82.14282291666314,
      "v": 110
    },
    {
      "midi": 76,
      "hit": false,
      "t": 59142.83250000007,
      "d": 167.85707291666768,
      "v": 110
    },
    {
      "midi": 59,
      "hit": false,
      "t": 59142.83250000009,
      "d": 167.85707291666768,
      "v": 110
    },
    {
      "midi": 63,
      "hit": false,
      "t": 59142.83250000009,
      "d": 167.85707291666768,
      "v": 110
    },
    {
      "midi": 66,
      "hit": false,
      "t": 59142.83250000009,
      "d": 167.85707291666768,
      "v": 110
    },
    {
      "midi": 33,
      "hit": false,
      "t": 59228.54674999993,
      "d": 82.14282291666314,
      "v": 110
    },
    {
      "midi": 33,
      "hit": false,
      "t": 59314.260999999926,
      "d": 167.85707291666768,
      "v": 110
    },
    {
      "midi": 33,
      "hit": false,
      "t": 59485.68949999993,
      "d": 82.14282291666314,
      "v": 110
    },
    {
      "midi": 57,
      "hit": false,
      "t": 59485.689500000015,
      "d": 167.85707291666768,
      "v": 110
    },
    {
      "midi": 61,
      "hit": false,
      "t": 59485.689500000095,
      "d": 167.85707291666768,
      "v": 110
    },
    {
      "midi": 64,
      "hit": false,
      "t": 59485.689500000095,
      "d": 167.85707291666768,
      "v": 110
    },
    {
      "midi": 33,
      "hit": false,
      "t": 59571.403749999925,
      "d": 82.14282291666314,
      "v": 110
    },
    {
      "midi": 33,
      "hit": false,
      "t": 59657.11799999992,
      "d": 167.85707291666768,
      "v": 110
    },
    {
      "midi": 76,
      "hit": false,
      "t": 59657.11800000007,
      "d": 167.85707291666768,
      "v": 110
    },
    {
      "midi": 33,
      "hit": false,
      "t": 59828.546499999924,
      "d": 82.14282291666314,
      "v": 110
    },
    {
      "midi": 78,
      "hit": false,
      "t": 59828.54650000007,
      "d": 167.85707291666768,
      "v": 110
    },
    {
      "midi": 59,
      "hit": false,
      "t": 59828.5465000001,
      "d": 167.85707291666768,
      "v": 110
    },
    {
      "midi": 63,
      "hit": false,
      "t": 59828.5465000001,
      "d": 167.85707291666768,
      "v": 110
    },
    {
      "midi": 66,
      "hit": false,
      "t": 59828.5465000001,
      "d": 167.85707291666768,
      "v": 110
    },
    {
      "midi": 33,
      "hit": false,
      "t": 59914.26074999992,
      "d": 82.14282291666314,
      "v": 110
    },
    {
      "midi": 33,
      "hit": false,
      "t": 59999.97499999992,
      "d": 167.85707291666768,
      "v": 110
    },
    {
      "midi": 76,
      "hit": false,
      "t": 59999.97500000007,
      "d": 285.7141666666648,
      "v": 110
    },
    {
      "midi": 33,
      "hit": false,
      "t": 60171.40349999992,
      "d": 82.14282291666314,
      "v": 110
    },
    {
      "midi": 33,
      "hit": false,
      "t": 60257.11774999992,
      "d": 82.14282291666314,
      "v": 110
    },
    {
      "midi": 35,
      "hit": false,
      "t": 60342.831999999915,
      "d": 167.85707291666768,
      "v": 110
    },
    {
      "midi": 75,
      "hit": false,
      "t": 60342.83200000007,
      "d": 285.7141666666648,
      "v": 110
    },
    {
      "midi": 35,
      "hit": false,
      "t": 60514.26049999992,
      "d": 82.14282291666314,
      "v": 110
    },
    {
      "midi": 63,
      "hit": false,
      "t": 60514.2605000001,
      "d": 82.14282291666314,
      "v": 110
    },
    {
      "midi": 66,
      "hit": false,
      "t": 60514.2605000001,
      "d": 82.14282291666314,
      "v": 110
    },
    {
      "midi": 35,
      "hit": false,
      "t": 60599.974749999914,
      "d": 82.14282291666314,
      "v": 110
    },
    {
      "midi": 63,
      "hit": false,
      "t": 60599.974750000096,
      "d": 82.14282291666314,
      "v": 110
    },
    {
      "midi": 66,
      "hit": false,
      "t": 60599.974750000096,
      "d": 82.14282291666314,
      "v": 110
    },
    {
      "midi": 35,
      "hit": false,
      "t": 60685.68899999991,
      "d": 167.85707291666768,
      "v": 110
    },
    {
      "midi": 63,
      "hit": false,
      "t": 60685.68900000009,
      "d": 167.85707291666768,
      "v": 110
    },
    {
      "midi": 66,
      "hit": false,
      "t": 60685.68900000009,
      "d": 167.85707291666768,
      "v": 110
    },
    {
      "midi": 35,
      "hit": false,
      "t": 60857.11749999991,
      "d": 82.14282291666314,
      "v": 110
    },
    {
      "midi": 63,
      "hit": false,
      "t": 60857.117500000095,
      "d": 82.14282291666314,
      "v": 110
    },
    {
      "midi": 66,
      "hit": false,
      "t": 60857.117500000095,
      "d": 82.14282291666314,
      "v": 110
    },
    {
      "midi": 35,
      "hit": false,
      "t": 60942.83174999991,
      "d": 82.14282291666314,
      "v": 110
    },
    {
      "midi": 63,
      "hit": false,
      "t": 60942.83175000009,
      "d": 82.14282291666314,
      "v": 110
    },
    {
      "midi": 66,
      "hit": false,
      "t": 60942.83175000009,
      "d": 82.14282291666314,
      "v": 110
    },
    {
      "midi": 35,
      "hit": false,
      "t": 61028.54599999991,
      "d": 167.85707291666768,
      "v": 110
    },
    {
      "midi": 75,
      "hit": false,
      "t": 61028.54600000007,
      "d": 167.85707291666768,
      "v": 110
    },
    {
      "midi": 63,
      "hit": false,
      "t": 61028.54600000009,
      "d": 167.85707291666768,
      "v": 110
    },
    {
      "midi": 66,
      "hit": false,
      "t": 61028.54600000009,
      "d": 167.85707291666768,
      "v": 110
    },
    {
      "midi": 35,
      "hit": false,
      "t": 61199.97449999991,
      "d": 82.14282291666314,
      "v": 110
    },
    {
      "midi": 73,
      "hit": false,
      "t": 61199.97450000007,
      "d": 167.85707291666768,
      "v": 110
    },
    {
      "midi": 59,
      "hit": false,
      "t": 61199.97450000009,
      "d": 167.85707291666768,
      "v": 110
    },
    {
      "midi": 63,
      "hit": false,
      "t": 61199.97450000009,
      "d": 167.85707291666768,
      "v": 110
    },
    {
      "midi": 35,
      "hit": false,
      "t": 61285.68874999991,
      "d": 82.14282291666314,
      "v": 110
    },
    {
      "midi": 35,
      "hit": false,
      "t": 61371.402999999904,
      "d": 167.85707291666768,
      "v": 110
    },
    {
      "midi": 71,
      "hit": false,
      "t": 61371.40300000007,
      "d": 167.85707291666768,
      "v": 110
    },
    {
      "midi": 35,
      "hit": false,
      "t": 61542.831499999906,
      "d": 82.14282291666314,
      "v": 110
    },
    {
      "midi": 80,
      "hit": false,
      "t": 61542.83150000007,
      "d": 167.85707291666768,
      "v": 110
    },
    {
      "midi": 59,
      "hit": false,
      "t": 61542.831500000095,
      "d": 167.85707291666768,
      "v": 110
    },
    {
      "midi": 64,
      "hit": false,
      "t": 61542.831500000095,
      "d": 167.85707291666768,
      "v": 110
    },
    {
      "midi": 68,
      "hit": false,
      "t": 61542.831500000095,
      "d": 167.85707291666768,
      "v": 110
    },
    {
      "midi": 35,
      "hit": false,
      "t": 61628.5457499999,
      "d": 82.14282291666314,
      "v": 110
    },
    {
      "midi": 35,
      "hit": false,
      "t": 61714.2599999999,
      "d": 167.85707291666768,
      "v": 110
    },
    {
      "midi": 35,
      "hit": false,
      "t": 61885.6884999999,
      "d": 82.14282291666314,
      "v": 110
    },
    {
      "midi": 59,
      "hit": false,
      "t": 61885.6885000001,
      "d": 167.85707291666768,
      "v": 110
    },
    {
      "midi": 63,
      "hit": false,
      "t": 61885.6885000001,
      "d": 167.85707291666768,
      "v": 110
    },
    {
      "midi": 66,
      "hit": false,
      "t": 61885.6885000001,
      "d": 167.85707291666768,
      "v": 110
    },
    {
      "midi": 35,
      "hit": false,
      "t": 61971.4027499999,
      "d": 82.14282291666314,
      "v": 110
    },
    {
      "midi": 35,
      "hit": false,
      "t": 62057.1169999999,
      "d": 167.85707291666768,
      "v": 110
    },
    {
      "midi": 78,
      "hit": false,
      "t": 62057.11700000007,
      "d": 285.7141666666648,
      "v": 110
    },
    {
      "midi": 35,
      "hit": false,
      "t": 62228.5454999999,
      "d": 82.14282291666314,
      "v": 110
    },
    {
      "midi": 57,
      "hit": false,
      "t": 62228.545500000015,
      "d": 167.85707291666768,
      "v": 110
    },
    {
      "midi": 61,
      "hit": false,
      "t": 62228.5455000001,
      "d": 167.85707291666768,
      "v": 110
    },
    {
      "midi": 64,
      "hit": false,
      "t": 62228.5455000001,
      "d": 167.85707291666768,
      "v": 110
    },
    {
      "midi": 35,
      "hit": false,
      "t": 62314.259749999896,
      "d": 82.14282291666314,
      "v": 110
    },
    {
      "midi": 35,
      "hit": false,
      "t": 62399.97399999989,
      "d": 167.85707291666768,
      "v": 110
    },
    {
      "midi": 76,
      "hit": false,
      "t": 62399.97400000007,
      "d": 285.7141666666648,
      "v": 110
    },
    {
      "midi": 35,
      "hit": false,
      "t": 62571.402499999895,
      "d": 82.14282291666314,
      "v": 110
    },
    {
      "midi": 54,
      "hit": false,
      "t": 62571.40250000002,
      "d": 167.85707291666768,
      "v": 110
    },
    {
      "midi": 59,
      "hit": false,
      "t": 62571.402500000106,
      "d": 167.85707291666768,
      "v": 110
    },
    {
      "midi": 63,
      "hit": false,
      "t": 62571.402500000106,
      "d": 167.85707291666768,
      "v": 110
    },
    {
      "midi": 35,
      "hit": false,
      "t": 62657.11674999989,
      "d": 82.14282291666314,
      "v": 110
    },
    {
      "midi": 35,
      "hit": false,
      "t": 62742.83099999989,
      "d": 167.85707291666768,
      "v": 110
    },
    {
      "midi": 75,
      "hit": false,
      "t": 62742.831000000064,
      "d": 285.7141666666648,
      "v": 110
    },
    {
      "midi": 35,
      "hit": false,
      "t": 62914.25949999989,
      "d": 82.14282291666314,
      "v": 110
    },
    {
      "midi": 49,
      "hit": false,
      "t": 62914.25950000002,
      "d": 167.85707291666768,
      "v": 110
    },
    {
      "midi": 56,
      "hit": false,
      "t": 62914.25950000002,
      "d": 167.85707291666768,
      "v": 110
    },
    {
      "midi": 61,
      "hit": false,
      "t": 62914.25950000011,
      "d": 167.85707291666768,
      "v": 110
    },
    {
      "midi": 35,
      "hit": false,
      "t": 62999.97374999989,
      "d": 82.14282291666314,
      "v": 110
    },
    {
      "midi": 37,
      "hit": false,
      "t": 63085.687999999886,
      "d": 167.85707291666768,
      "v": 110
    },
    {
      "midi": 75,
      "hit": false,
      "t": 63085.68800000006,
      "d": 167.85707291666768,
      "v": 110
    },
    {
      "midi": 37,
      "hit": false,
      "t": 63257.11649999989,
      "d": 82.14282291666314,
      "v": 110
    },
    {
      "midi": 76,
      "hit": false,
      "t": 63257.11650000006,
      "d": 167.85707291666768,
      "v": 110
    },
    {
      "midi": 37,
      "hit": false,
      "t": 63342.830749999885,
      "d": 82.14282291666314,
      "v": 110
    },
    {
      "midi": 37,
      "hit": false,
      "t": 63428.54499999988,
      "d": 167.85707291666768,
      "v": 110
    },
    {
      "midi": 75,
      "hit": false,
      "t": 63428.545000000064,
      "d": 167.85707291666768,
      "v": 110
    },
    {
      "midi": 37,
      "hit": false,
      "t": 63599.973499999884,
      "d": 82.14282291666314,
      "v": 110
    },
    {
      "midi": 73,
      "hit": false,
      "t": 63599.973500000066,
      "d": 1799.9992500000008,
      "v": 110
    },
    {
      "midi": 37,
      "hit": false,
      "t": 63685.68774999988,
      "d": 82.14282291666314,
      "v": 110
    },
    {
      "midi": 37,
      "hit": false,
      "t": 63771.40199999988,
      "d": 167.85707291666768,
      "v": 110
    },
    {
      "midi": 37,
      "hit": false,
      "t": 63942.83049999988,
      "d": 82.14282291666314,
      "v": 110
    },
    {
      "midi": 37,
      "hit": false,
      "t": 64028.54474999988,
      "d": 82.14282291666314,
      "v": 110
    },
    {
      "midi": 37,
      "hit": false,
      "t": 64114.258999999875,
      "d": 167.85707291666768,
      "v": 110
    },
    {
      "midi": 37,
      "hit": false,
      "t": 64285.687499999876,
      "d": 82.14282291666314,
      "v": 110
    },
    {
      "midi": 37,
      "hit": false,
      "t": 64371.40174999987,
      "d": 82.14282291666314,
      "v": 110
    },
    {
      "midi": 37,
      "hit": false,
      "t": 64457.11599999987,
      "d": 167.85707291666768,
      "v": 110
    },
    {
      "midi": 37,
      "hit": false,
      "t": 64628.54449999987,
      "d": 82.14282291666314,
      "v": 110
    },
    {
      "midi": 37,
      "hit": false,
      "t": 64714.25874999987,
      "d": 82.14282291666314,
      "v": 110
    },
    {
      "midi": 37,
      "hit": false,
      "t": 64799.97299999987,
      "d": 167.85707291666768,
      "v": 110
    },
    {
      "midi": 37,
      "hit": false,
      "t": 64971.40149999987,
      "d": 82.14282291666314,
      "v": 110
    },
    {
      "midi": 37,
      "hit": false,
      "t": 65057.115749999866,
      "d": 82.14282291666314,
      "v": 110
    },
    {
      "midi": 37,
      "hit": false,
      "t": 65142.82999999986,
      "d": 167.85707291666768,
      "v": 110
    },
    {
      "midi": 37,
      "hit": false,
      "t": 65314.258499999865,
      "d": 82.14282291666314,
      "v": 110
    },
    {
      "midi": 37,
      "hit": false,
      "t": 65399.97274999986,
      "d": 82.14282291666314,
      "v": 110
    },
    {
      "midi": 37,
      "hit": false,
      "t": 65485.68699999986,
      "d": 167.85707291666768,
      "v": 110
    },
    {
      "midi": 71,
      "hit": false,
      "t": 65485.68700000006,
      "d": 167.85707291666768,
      "v": 110
    },
    {
      "midi": 37,
      "hit": false,
      "t": 65657.11549999985,
      "d": 82.14282291666314,
      "v": 110
    },
    {
      "midi": 73,
      "hit": false,
      "t": 65657.11550000006,
      "d": 1114.2852500000008,
      "v": 110
    },
    {
      "midi": 38,
      "hit": false,
      "t": 65742.82974999984,
      "d": 82.14282291666314,
      "v": 110
    },
    {
      "midi": 38,
      "hit": false,
      "t": 65828.54399999983,
      "d": 167.85707291666768,
      "v": 110
    },
    {
      "midi": 38,
      "hit": false,
      "t": 65999.97249999983,
      "d": 82.14282291666314,
      "v": 110
    },
    {
      "midi": 38,
      "hit": false,
      "t": 66085.68674999982,
      "d": 82.14282291666314,
      "v": 110
    },
    {
      "midi": 38,
      "hit": false,
      "t": 66171.40099999981,
      "d": 167.85707291666768,
      "v": 110
    },
    {
      "midi": 38,
      "hit": false,
      "t": 66342.8294999998,
      "d": 82.14282291666314,
      "v": 110
    },
    {
      "midi": 38,
      "hit": false,
      "t": 66428.5437499998,
      "d": 82.14282291666314,
      "v": 110
    },
    {
      "midi": 38,
      "hit": false,
      "t": 66514.25799999978,
      "d": 167.85707291666768,
      "v": 110
    },
    {
      "midi": 38,
      "hit": false,
      "t": 66685.68649999978,
      "d": 82.14282291666314,
      "v": 110
    },
    {
      "midi": 38,
      "hit": false,
      "t": 66771.40074999977,
      "d": 82.14282291666314,
      "v": 110
    },
    {
      "midi": 38,
      "hit": false,
      "t": 66857.11499999976,
      "d": 167.85707291666768,
      "v": 110
    },
    {
      "midi": 71,
      "hit": false,
      "t": 66899.97212500006,
      "d": 167.85707291666768,
      "v": 110
    },
    {
      "midi": 38,
      "hit": false,
      "t": 67028.54349999975,
      "d": 82.14282291666314,
      "v": 110
    },
    {
      "midi": 76,
      "hit": false,
      "t": 67071.40062500005,
      "d": 339.2855729166622,
      "v": 110
    },
    {
      "midi": 38,
      "hit": false,
      "t": 67114.25774999974,
      "d": 82.14282291666314,
      "v": 110
    },
    {
      "midi": 38,
      "hit": false,
      "t": 67199.97199999973,
      "d": 167.85707291666768,
      "v": 110
    },
    {
      "midi": 38,
      "hit": false,
      "t": 67371.40049999973,
      "d": 82.14282291666314,
      "v": 110
    },
    {
      "midi": 73,
      "hit": false,
      "t": 67414.25762500004,
      "d": 339.2855729166622,
      "v": 110
    },
    {
      "midi": 38,
      "hit": false,
      "t": 67457.11474999972,
      "d": 82.14282291666314,
      "v": 110
    },
    {
      "midi": 38,
      "hit": false,
      "t": 67542.8289999997,
      "d": 167.85707291666768,
      "v": 110
    },
    {
      "midi": 38,
      "hit": false,
      "t": 67714.2574999997,
      "d": 82.14282291666314,
      "v": 110
    },
    {
      "midi": 71,
      "hit": false,
      "t": 67757.11462500003,
      "d": 339.2855729166622,
      "v": 110
    },
    {
      "midi": 38,
      "hit": false,
      "t": 67799.97174999969,
      "d": 82.14282291666314,
      "v": 110
    },
    {
      "midi": 38,
      "hit": false,
      "t": 67885.68599999968,
      "d": 167.85707291666768,
      "v": 110
    },
    {
      "midi": 38,
      "hit": false,
      "t": 68057.11449999968,
      "d": 82.14282291666314,
      "v": 110
    },
    {
      "midi": 73,
      "hit": false,
      "t": 68099.97162500002,
      "d": 510.7140729166713,
      "v": 110
    },
    {
      "midi": 38,
      "hit": false,
      "t": 68142.82874999967,
      "d": 82.14282291666314,
      "v": 110
    },
    {
      "midi": 38,
      "hit": false,
      "t": 68228.54299999966,
      "d": 167.85707291666768,
      "v": 110
    },
    {
      "midi": 38,
      "hit": false,
      "t": 68399.97149999965,
      "d": 82.14282291666314,
      "v": 110
    },
    {
      "midi": 38,
      "hit": false,
      "t": 68485.68574999964,
      "d": 82.14282291666314,
      "v": 110
    },
    {
      "midi": 37,
      "hit": false,
      "t": 68571.39999999963,
      "d": 167.85707291666768,
      "v": 110
    },
    {
      "midi": 71,
      "hit": false,
      "t": 68614.25712500002,
      "d": 682.1425729166658,
      "v": 110
    },
    {
      "midi": 37,
      "hit": false,
      "t": 68742.82849999962,
      "d": 82.14282291666314,
      "v": 110
    },
    {
      "midi": 37,
      "hit": false,
      "t": 68828.54274999961,
      "d": 82.14282291666314,
      "v": 110
    },
    {
      "midi": 37,
      "hit": false,
      "t": 68914.2569999996,
      "d": 167.85707291666768,
      "v": 110
    },
    {
      "midi": 37,
      "hit": false,
      "t": 69085.6854999996,
      "d": 82.14282291666314,
      "v": 110
    },
    {
      "midi": 37,
      "hit": false,
      "t": 69171.39974999959,
      "d": 82.14282291666314,
      "v": 110
    },
    {
      "midi": 37,
      "hit": false,
      "t": 69257.11399999958,
      "d": 167.85707291666768,
      "v": 110
    },
    {
      "midi": 71,
      "hit": false,
      "t": 69299.97112500001,
      "d": 167.85707291666768,
      "v": 110
    },
    {
      "midi": 37,
      "hit": false,
      "t": 69428.54249999957,
      "d": 82.14282291666314,
      "v": 110
    },
    {
      "midi": 73,
      "hit": false,
      "t": 69471.399625,
      "d": 682.1425729166658,
      "v": 110
    },
    {
      "midi": 37,
      "hit": false,
      "t": 69514.25674999956,
      "d": 82.14282291666314,
      "v": 110
    },
    {
      "midi": 37,
      "hit": false,
      "t": 69599.97099999955,
      "d": 167.85707291666768,
      "v": 110
    },
    {
      "midi": 37,
      "hit": false,
      "t": 69771.39949999955,
      "d": 82.14282291666314,
      "v": 110
    },
    {
      "midi": 37,
      "hit": false,
      "t": 69857.11374999954,
      "d": 82.14282291666314,
      "v": 110
    },
    {
      "midi": 37,
      "hit": false,
      "t": 69942.82799999953,
      "d": 167.85707291666768,
      "v": 110
    },
    {
      "midi": 68,
      "hit": false,
      "t": 69985.6851250001,
      "d": 296.4284479166672,
      "v": 110
    },
    {
      "midi": 37,
      "hit": false,
      "t": 70114.25649999952,
      "d": 82.14282291666314,
      "v": 110
    },
    {
      "midi": 69,
      "hit": false,
      "t": 70157.113625,
      "d": 414.28554166667163,
      "v": 110
    },
    {
      "midi": 37,
      "hit": false,
      "t": 70199.97074999951,
      "d": 82.14282291666314,
      "v": 110
    },
    {
      "midi": 37,
      "hit": false,
      "t": 70285.6849999995,
      "d": 167.85707291666768,
      "v": 110
    },
    {
      "midi": 68,
      "hit": false,
      "t": 70328.54212500011,
      "d": 167.85707291666768,
      "v": 110
    },
    {
      "midi": 37,
      "hit": false,
      "t": 70457.1134999995,
      "d": 82.14282291666314,
      "v": 110
    },
    {
      "midi": 64,
      "hit": false,
      "t": 70499.9706250001,
      "d": 339.2855729166622,
      "v": 110
    },
    {
      "midi": 37,
      "hit": false,
      "t": 70542.82774999949,
      "d": 82.14282291666314,
      "v": 110
    },
    {
      "midi": 37,
      "hit": false,
      "t": 70628.54199999948,
      "d": 167.85707291666768,
      "v": 110
    },
    {
      "midi": 37,
      "hit": false,
      "t": 70799.97049999947,
      "d": 82.14282291666314,
      "v": 110
    },
    {
      "midi": 64,
      "hit": false,
      "t": 70842.82762500009,
      "d": 167.85707291666768,
      "v": 110
    },
    {
      "midi": 37,
      "hit": false,
      "t": 70885.68474999946,
      "d": 82.14282291666314,
      "v": 110
    },
    {
      "midi": 37,
      "hit": false,
      "t": 70971.39899999945,
      "d": 167.85707291666768,
      "v": 110
    },
    {
      "midi": 68,
      "hit": false,
      "t": 71014.25612500009,
      "d": 296.4284479166672,
      "v": 110
    },
    {
      "midi": 37,
      "hit": false,
      "t": 71142.82749999945,
      "d": 82.14282291666314,
      "v": 110
    },
    {
      "midi": 71,
      "hit": false,
      "t": 71185.68462500001,
      "d": 167.85707291666768,
      "v": 110
    },
    {
      "midi": 38,
      "hit": false,
      "t": 71228.54174999944,
      "d": 82.14282291666314,
      "v": 110
    },
    {
      "midi": 38,
      "hit": false,
      "t": 71314.25599999943,
      "d": 167.85707291666768,
      "v": 110
    },
    {
      "midi": 73,
      "hit": false,
      "t": 71357.113125,
      "d": 1024.9995729166694,
      "v": 110
    },
    {
      "midi": 38,
      "hit": false,
      "t": 71485.68449999942,
      "d": 82.14282291666314,
      "v": 110
    },
    {
      "midi": 38,
      "hit": false,
      "t": 71571.39874999941,
      "d": 82.14282291666314,
      "v": 110
    },
    {
      "midi": 38,
      "hit": false,
      "t": 71657.1129999994,
      "d": 167.85707291666768,
      "v": 110
    },
    {
      "midi": 38,
      "hit": false,
      "t": 71828.5414999994,
      "d": 82.14282291666314,
      "v": 110
    },
    {
      "midi": 38,
      "hit": false,
      "t": 71914.25574999939,
      "d": 82.14282291666314,
      "v": 110
    },
    {
      "midi": 38,
      "hit": false,
      "t": 71999.96999999938,
      "d": 167.85707291666768,
      "v": 110
    },
    {
      "midi": 38,
      "hit": false,
      "t": 72171.39849999937,
      "d": 82.14282291666314,
      "v": 110
    },
    {
      "midi": 38,
      "hit": false,
      "t": 72257.11274999936,
      "d": 82.14282291666314,
      "v": 110
    },
    {
      "midi": 38,
      "hit": false,
      "t": 72342.82699999935,
      "d": 167.85707291666768,
      "v": 110
    },
    {
      "midi": 71,
      "hit": false,
      "t": 72385.684125,
      "d": 167.85707291666768,
      "v": 110
    },
    {
      "midi": 38,
      "hit": false,
      "t": 72514.25549999934,
      "d": 82.14282291666314,
      "v": 110
    },
    {
      "midi": 76,
      "hit": false,
      "t": 72557.112625,
      "d": 339.2855729166622,
      "v": 110
    },
    {
      "midi": 38,
      "hit": false,
      "t": 72599.96974999933,
      "d": 82.14282291666314,
      "v": 110
    },
    {
      "midi": 38,
      "hit": false,
      "t": 72685.68399999932,
      "d": 167.85707291666768,
      "v": 110
    },
    {
      "midi": 38,
      "hit": false,
      "t": 72857.11249999932,
      "d": 82.14282291666314,
      "v": 110
    },
    {
      "midi": 73,
      "hit": false,
      "t": 72899.96962499998,
      "d": 339.2855729166622,
      "v": 110
    },
    {
      "midi": 38,
      "hit": false,
      "t": 72942.82674999931,
      "d": 82.14282291666314,
      "v": 110
    },
    {
      "midi": 38,
      "hit": false,
      "t": 73028.5409999993,
      "d": 167.85707291666768,
      "v": 110
    },
    {
      "midi": 38,
      "hit": false,
      "t": 73199.9694999993,
      "d": 82.14282291666314,
      "v": 110
    },
    {
      "midi": 71,
      "hit": false,
      "t": 73242.82662499997,
      "d": 339.2855729166622,
      "v": 110
    },
    {
      "midi": 38,
      "hit": false,
      "t": 73285.68374999928,
      "d": 82.14282291666314,
      "v": 110
    },
    {
      "midi": 38,
      "hit": false,
      "t": 73371.39799999927,
      "d": 167.85707291666768,
      "v": 110
    },
    {
      "midi": 38,
      "hit": false,
      "t": 73542.82649999927,
      "d": 82.14282291666314,
      "v": 110
    },
    {
      "midi": 73,
      "hit": false,
      "t": 73585.68362499996,
      "d": 339.2855729166622,
      "v": 110
    },
    {
      "midi": 38,
      "hit": false,
      "t": 73628.54074999926,
      "d": 82.14282291666314,
      "v": 110
    },
    {
      "midi": 38,
      "hit": false,
      "t": 73714.25499999925,
      "d": 167.85707291666768,
      "v": 110
    },
    {
      "midi": 38,
      "hit": false,
      "t": 73885.68349999924,
      "d": 82.14282291666314,
      "v": 110
    },
    {
      "midi": 71,
      "hit": false,
      "t": 73928.54062499995,
      "d": 853.5710729166603,
      "v": 110
    },
    {
      "midi": 38,
      "hit": false,
      "t": 73971.39774999923,
      "d": 82.14282291666314,
      "v": 110
    },
    {
      "midi": 35,
      "hit": false,
      "t": 74057.11199999922,
      "d": 167.85707291666768,
      "v": 110
    },
    {
      "midi": 35,
      "hit": false,
      "t": 74228.54049999922,
      "d": 82.14282291666314,
      "v": 110
    },
    {
      "midi": 35,
      "hit": false,
      "t": 74314.2547499992,
      "d": 82.14282291666314,
      "v": 110
    },
    {
      "midi": 35,
      "hit": false,
      "t": 74399.9689999992,
      "d": 167.85707291666768,
      "v": 110
    },
    {
      "midi": 35,
      "hit": false,
      "t": 74571.39749999919,
      "d": 82.14282291666314,
      "v": 110
    },
    {
      "midi": 35,
      "hit": false,
      "t": 74657.11174999918,
      "d": 82.14282291666314,
      "v": 110
    },
    {
      "midi": 35,
      "hit": false,
      "t": 74742.82599999917,
      "d": 167.85707291666768,
      "v": 110
    },
    {
      "midi": 71,
      "hit": false,
      "t": 74785.68312499994,
      "d": 296.4284479166672,
      "v": 110
    },
    {
      "midi": 35,
      "hit": false,
      "t": 74914.25449999917,
      "d": 82.14282291666314,
      "v": 110
    },
    {
      "midi": 68,
      "hit": false,
      "t": 74957.11162500009,
      "d": 414.28554166667163,
      "v": 110
    },
    {
      "midi": 35,
      "hit": false,
      "t": 74999.96874999916,
      "d": 82.14282291666314,
      "v": 110
    },
    {
      "midi": 35,
      "hit": false,
      "t": 75085.68299999915,
      "d": 167.85707291666768,
      "v": 110
    },
    {
      "midi": 71,
      "hit": false,
      "t": 75128.54012499994,
      "d": 167.85707291666768,
      "v": 110
    },
    {
      "midi": 35,
      "hit": false,
      "t": 75257.11149999914,
      "d": 82.14282291666314,
      "v": 110
    },
    {
      "midi": 72,
      "hit": false,
      "t": 75299.96862499994,
      "d": 339.2855729166622,
      "v": 110
    },
    {
      "midi": 32,
      "hit": false,
      "t": 75342.82574999913,
      "d": 82.14282291666314,
      "v": 110
    },
    {
      "midi": 32,
      "hit": false,
      "t": 75428.53999999912,
      "d": 167.85707291666768,
      "v": 110
    },
    {
      "midi": 32,
      "hit": false,
      "t": 75599.96849999912,
      "d": 82.14282291666314,
      "v": 110
    },
    {
      "midi": 72,
      "hit": false,
      "t": 75642.82562499992,
      "d": 167.85707291666768,
      "v": 110
    },
    {
      "midi": 32,
      "hit": false,
      "t": 75685.6827499991,
      "d": 82.14282291666314,
      "v": 110
    },
    {
      "midi": 32,
      "hit": false,
      "t": 75771.3969999991,
      "d": 167.85707291666768,
      "v": 110
    },
    {
      "midi": 72,
      "hit": false,
      "t": 75814.25412499992,
      "d": 167.85707291666768,
      "v": 110
    },
    {
      "midi": 32,
      "hit": false,
      "t": 75942.82549999909,
      "d": 82.14282291666314,
      "v": 110
    },
    {
      "midi": 75,
      "hit": false,
      "t": 75985.68262499991,
      "d": 167.85707291666768,
      "v": 110
    },
    {
      "midi": 32,
      "hit": false,
      "t": 76028.53974999908,
      "d": 82.14282291666314,
      "v": 110
    },
    {
      "midi": 32,
      "hit": false,
      "t": 76114.25399999907,
      "d": 285.7141666666721,
      "v": 110
    },
    {
      "midi": 80,
      "hit": false,
      "t": 76157.11112499991,
      "d": 585.7140416666662,
      "v": 110
    },
    {
      "midi": 33,
      "hit": false,
      "t": 76628.53949999908,
      "d": 167.85707291666768,
      "v": 110
    },
    {
      "midi": 61,
      "hit": false,
      "t": 76628.5395000001,
      "d": 167.85707291666768,
      "v": 110
    },
    {
      "midi": 64,
      "hit": false,
      "t": 76628.5395000001,
      "d": 167.85707291666768,
      "v": 110
    },
    {
      "midi": 33,
      "hit": false,
      "t": 76799.96799999908,
      "d": 167.85707291666768,
      "v": 110
    },
    {
      "midi": 33,
      "hit": false,
      "t": 76971.39649999907,
      "d": 82.14282291666314,
      "v": 110
    },
    {
      "midi": 61,
      "hit": false,
      "t": 76971.3965000001,
      "d": 167.85707291666768,
      "v": 110
    },
    {
      "midi": 64,
      "hit": false,
      "t": 76971.3965000001,
      "d": 167.85707291666768,
      "v": 110
    },
    {
      "midi": 33,
      "hit": false,
      "t": 77057.11074999906,
      "d": 82.14282291666314,
      "v": 110
    },
    {
      "midi": 33,
      "hit": false,
      "t": 77142.82499999905,
      "d": 167.85707291666768,
      "v": 110
    },
    {
      "midi": 61,
      "hit": false,
      "t": 77142.8250000001,
      "d": 167.85707291666768,
      "v": 110
    },
    {
      "midi": 64,
      "hit": false,
      "t": 77142.8250000001,
      "d": 167.85707291666768,
      "v": 110
    },
    {
      "midi": 33,
      "hit": false,
      "t": 77314.25349999905,
      "d": 82.14282291666314,
      "v": 110
    },
    {
      "midi": 59,
      "hit": false,
      "t": 77314.2535000001,
      "d": 167.85707291666768,
      "v": 110
    },
    {
      "midi": 63,
      "hit": false,
      "t": 77314.2535000001,
      "d": 167.85707291666768,
      "v": 110
    },
    {
      "midi": 33,
      "hit": false,
      "t": 77399.96774999904,
      "d": 82.14282291666314,
      "v": 110
    },
    {
      "midi": 33,
      "hit": false,
      "t": 77485.68199999903,
      "d": 167.85707291666768,
      "v": 110
    },
    {
      "midi": 61,
      "hit": false,
      "t": 77485.68200000009,
      "d": 285.7141666666721,
      "v": 110
    },
    {
      "midi": 64,
      "hit": false,
      "t": 77485.68200000009,
      "d": 285.7141666666721,
      "v": 110
    },
    {
      "midi": 33,
      "hit": false,
      "t": 77657.11049999902,
      "d": 82.14282291666314,
      "v": 110
    },
    {
      "midi": 33,
      "hit": false,
      "t": 77742.82474999901,
      "d": 82.14282291666314,
      "v": 110
    },
    {
      "midi": 33,
      "hit": false,
      "t": 77828.538999999,
      "d": 167.85707291666768,
      "v": 110
    },
    {
      "midi": 69,
      "hit": false,
      "t": 77828.5389999999,
      "d": 167.85707291666768,
      "v": 110
    },
    {
      "midi": 73,
      "hit": false,
      "t": 77828.5389999999,
      "d": 167.85707291666768,
      "v": 110
    },
    {
      "midi": 35,
      "hit": false,
      "t": 77999.967499999,
      "d": 167.85707291666768,
      "v": 110
    },
    {
      "midi": 71,
      "hit": false,
      "t": 77999.9674999999,
      "d": 339.2855729166622,
      "v": 110
    },
    {
      "midi": 68,
      "hit": false,
      "t": 77999.9675000001,
      "d": 339.2855729166622,
      "v": 110
    },
    {
      "midi": 35,
      "hit": false,
      "t": 78171.39599999899,
      "d": 167.85707291666768,
      "v": 110
    },
    {
      "midi": 35,
      "hit": false,
      "t": 78342.82449999898,
      "d": 82.14282291666314,
      "v": 110
    },
    {
      "midi": 69,
      "hit": false,
      "t": 78342.82449999989,
      "d": 457.1426666666666,
      "v": 110
    },
    {
      "midi": 66,
      "hit": false,
      "t": 78342.82450000009,
      "d": 339.2855729166622,
      "v": 110
    },
    {
      "midi": 35,
      "hit": false,
      "t": 78428.53874999897,
      "d": 82.14282291666314,
      "v": 110
    },
    {
      "midi": 35,
      "hit": false,
      "t": 78514.25299999896,
      "d": 167.85707291666768,
      "v": 110
    },
    {
      "midi": 35,
      "hit": false,
      "t": 78685.68149999896,
      "d": 82.14282291666314,
      "v": 110
    },
    {
      "midi": 64,
      "hit": false,
      "t": 78685.68150000008,
      "d": 339.2855729166622,
      "v": 110
    },
    {
      "midi": 68,
      "hit": false,
      "t": 78685.68150000008,
      "d": 339.2855729166622,
      "v": 110
    },
    {
      "midi": 35,
      "hit": false,
      "t": 78771.39574999895,
      "d": 82.14282291666314,
      "v": 110
    },
    {
      "midi": 35,
      "hit": false,
      "t": 78857.10999999894,
      "d": 167.85707291666768,
      "v": 110
    },
    {
      "midi": 35,
      "hit": false,
      "t": 79028.53849999893,
      "d": 82.14282291666314,
      "v": 110
    },
    {
      "midi": 63,
      "hit": false,
      "t": 79028.53850000007,
      "d": 339.2855729166622,
      "v": 110
    },
    {
      "midi": 66,
      "hit": false,
      "t": 79028.53850000007,
      "d": 339.2855729166622,
      "v": 110
    },
    {
      "midi": 35,
      "hit": false,
      "t": 79114.25274999892,
      "d": 82.14282291666314,
      "v": 110
    },
    {
      "midi": 35,
      "hit": false,
      "t": 79199.96699999891,
      "d": 167.85707291666768,
      "v": 110
    },
    {
      "midi": 35,
      "hit": false,
      "t": 79371.39549999891,
      "d": 82.14282291666314,
      "v": 110
    },
    {
      "midi": 51,
      "hit": false,
      "t": 79371.39550000003,
      "d": 167.85707291666768,
      "v": 110
    },
    {
      "midi": 54,
      "hit": false,
      "t": 79371.39550000003,
      "d": 167.85707291666768,
      "v": 110
    },
    {
      "midi": 63,
      "hit": false,
      "t": 79371.39550000006,
      "d": 167.85707291666768,
      "v": 110
    },
    {
      "midi": 66,
      "hit": false,
      "t": 79371.39550000006,
      "d": 167.85707291666768,
      "v": 110
    },
    {
      "midi": 37,
      "hit": false,
      "t": 79457.1097499989,
      "d": 82.14282291666314,
      "v": 110
    },
    {
      "midi": 37,
      "hit": false,
      "t": 79542.82399999889,
      "d": 167.85707291666768,
      "v": 110
    },
    {
      "midi": 37,
      "hit": false,
      "t": 79714.25249999888,
      "d": 167.85707291666768,
      "v": 110
    },
    {
      "midi": 52,
      "hit": false,
      "t": 79714.25250000003,
      "d": 167.85707291666768,
      "v": 110
    },
    {
      "midi": 56,
      "hit": false,
      "t": 79714.25250000003,
      "d": 167.85707291666768,
      "v": 110
    },
    {
      "midi": 64,
      "hit": false,
      "t": 79714.25250000006,
      "d": 167.85707291666768,
      "v": 110
    },
    {
      "midi": 68,
      "hit": false,
      "t": 79714.25250000006,
      "d": 167.85707291666768,
      "v": 110
    },
    {
      "midi": 39,
      "hit": false,
      "t": 79885.68099999888,
      "d": 167.85707291666768,
      "v": 110
    },
    {
      "midi": 52,
      "hit": false,
      "t": 79885.68100000003,
      "d": 285.7141666666721,
      "v": 110
    },
    {
      "midi": 56,
      "hit": false,
      "t": 79885.68100000003,
      "d": 285.7141666666721,
      "v": 110
    },
    {
      "midi": 64,
      "hit": false,
      "t": 79885.68100000006,
      "d": 285.7141666666721,
      "v": 110
    },
    {
      "midi": 68,
      "hit": false,
      "t": 79885.68100000006,
      "d": 285.7141666666721,
      "v": 110
    },
    {
      "midi": 39,
      "hit": false,
      "t": 80057.10949999887,
      "d": 167.85707291666768,
      "v": 110
    },
    {
      "midi": 40,
      "hit": false,
      "t": 80228.53799999887,
      "d": 167.85707291666768,
      "v": 110
    },
    {
      "midi": 52,
      "hit": false,
      "t": 80228.53800000003,
      "d": 285.7141666666721,
      "v": 110
    },
    {
      "midi": 56,
      "hit": false,
      "t": 80228.53800000003,
      "d": 285.7141666666721,
      "v": 110
    },
    {
      "midi": 64,
      "hit": false,
      "t": 80228.53800000006,
      "d": 285.7141666666721,
      "v": 110
    },
    {
      "midi": 68,
      "hit": false,
      "t": 80228.53800000006,
      "d": 285.7141666666721,
      "v": 110
    },
    {
      "midi": 40,
      "hit": false,
      "t": 80399.96649999886,
      "d": 167.85707291666768,
      "v": 110
    },
    {
      "midi": 40,
      "hit": false,
      "t": 80571.39499999885,
      "d": 167.85707291666768,
      "v": 110
    },
    {
      "midi": 37,
      "hit": false,
      "t": 80742.82349999885,
      "d": 167.85707291666768,
      "v": 110
    },
    {
      "midi": 51,
      "hit": false,
      "t": 80742.82350000004,
      "d": 167.85707291666768,
      "v": 110
    },
    {
      "midi": 54,
      "hit": false,
      "t": 80742.82350000004,
      "d": 167.85707291666768,
      "v": 110
    },
    {
      "midi": 63,
      "hit": false,
      "t": 80742.82350000007,
      "d": 167.85707291666768,
      "v": 110
    },
    {
      "midi": 66,
      "hit": false,
      "t": 80742.82350000007,
      "d": 167.85707291666768,
      "v": 110
    },
    {
      "midi": 37,
      "hit": false,
      "t": 80914.25199999884,
      "d": 167.85707291666768,
      "v": 110
    },
    {
      "midi": 37,
      "hit": false,
      "t": 81085.68049999884,
      "d": 167.85707291666768,
      "v": 110
    },
    {
      "midi": 52,
      "hit": false,
      "t": 81085.68050000005,
      "d": 167.85707291666768,
      "v": 110
    },
    {
      "midi": 56,
      "hit": false,
      "t": 81085.68050000005,
      "d": 167.85707291666768,
      "v": 110
    },
    {
      "midi": 64,
      "hit": false,
      "t": 81085.68050000007,
      "d": 167.85707291666768,
      "v": 110
    },
    {
      "midi": 68,
      "hit": false,
      "t": 81085.68050000007,
      "d": 167.85707291666768,
      "v": 110
    },
    {
      "midi": 39,
      "hit": false,
      "t": 81257.10899999883,
      "d": 167.85707291666768,
      "v": 110
    },
    {
      "midi": 52,
      "hit": false,
      "t": 81257.10900000004,
      "d": 285.7141666666721,
      "v": 110
    },
    {
      "midi": 56,
      "hit": false,
      "t": 81257.10900000004,
      "d": 285.7141666666721,
      "v": 110
    },
    {
      "midi": 64,
      "hit": false,
      "t": 81257.10900000007,
      "d": 285.7141666666721,
      "v": 110
    },
    {
      "midi": 68,
      "hit": false,
      "t": 81257.10900000007,
      "d": 285.7141666666721,
      "v": 110
    },
    {
      "midi": 39,
      "hit": false,
      "t": 81428.53749999883,
      "d": 167.85707291666768,
      "v": 110
    },
    {
      "midi": 40,
      "hit": false,
      "t": 81599.96599999882,
      "d": 167.85707291666768,
      "v": 110
    },
    {
      "midi": 52,
      "hit": false,
      "t": 81599.96600000004,
      "d": 285.7141666666721,
      "v": 110
    },
    {
      "midi": 56,
      "hit": false,
      "t": 81599.96600000004,
      "d": 285.7141666666721,
      "v": 110
    },
    {
      "midi": 64,
      "hit": false,
      "t": 81599.96600000007,
      "d": 285.7141666666721,
      "v": 110
    },
    {
      "midi": 68,
      "hit": false,
      "t": 81599.96600000007,
      "d": 285.7141666666721,
      "v": 110
    },
    {
      "midi": 40,
      "hit": false,
      "t": 81771.39449999882,
      "d": 167.85707291666768,
      "v": 110
    },
    {
      "midi": 35,
      "hit": false,
      "t": 81942.82299999881,
      "d": 167.85707291666768,
      "v": 110
    },
    {
      "midi": 63,
      "hit": false,
      "t": 81942.82300000008,
      "d": 167.85707291666768,
      "v": 110
    },
    {
      "midi": 66,
      "hit": false,
      "t": 81942.82300000008,
      "d": 167.85707291666768,
      "v": 110
    },
    {
      "midi": 33,
      "hit": false,
      "t": 82114.2514999988,
      "d": 167.85707291666768,
      "v": 110
    },
    {
      "midi": 61,
      "hit": false,
      "t": 82114.25150000007,
      "d": 167.85707291666768,
      "v": 110
    },
    {
      "midi": 64,
      "hit": false,
      "t": 82114.25150000007,
      "d": 167.85707291666768,
      "v": 110
    },
    {
      "midi": 33,
      "hit": false,
      "t": 82285.6799999988,
      "d": 167.85707291666768,
      "v": 110
    },
    {
      "midi": 33,
      "hit": false,
      "t": 82457.1084999988,
      "d": 82.14282291666314,
      "v": 110
    },
    {
      "midi": 61,
      "hit": false,
      "t": 82457.10850000007,
      "d": 167.85707291666768,
      "v": 110
    },
    {
      "midi": 64,
      "hit": false,
      "t": 82457.10850000007,
      "d": 167.85707291666768,
      "v": 110
    },
    {
      "midi": 33,
      "hit": false,
      "t": 82542.82274999878,
      "d": 82.14282291666314,
      "v": 110
    },
    {
      "midi": 33,
      "hit": false,
      "t": 82628.53699999877,
      "d": 167.85707291666768,
      "v": 110
    },
    {
      "midi": 61,
      "hit": false,
      "t": 82628.53700000007,
      "d": 167.85707291666768,
      "v": 110
    },
    {
      "midi": 64,
      "hit": false,
      "t": 82628.53700000007,
      "d": 167.85707291666768,
      "v": 110
    },
    {
      "midi": 33,
      "hit": false,
      "t": 82799.96549999877,
      "d": 82.14282291666314,
      "v": 110
    },
    {
      "midi": 59,
      "hit": false,
      "t": 82799.96550000006,
      "d": 167.85707291666768,
      "v": 110
    },
    {
      "midi": 63,
      "hit": false,
      "t": 82799.96550000006,
      "d": 167.85707291666768,
      "v": 110
    },
    {
      "midi": 33,
      "hit": false,
      "t": 82885.67974999876,
      "d": 82.14282291666314,
      "v": 110
    },
    {
      "midi": 33,
      "hit": false,
      "t": 82971.39399999875,
      "d": 167.85707291666768,
      "v": 110
    },
    {
      "midi": 61,
      "hit": false,
      "t": 82971.39400000006,
      "d": 285.7141666666721,
      "v": 110
    },
    {
      "midi": 64,
      "hit": false,
      "t": 82971.39400000006,
      "d": 285.7141666666721,
      "v": 110
    },
    {
      "midi": 33,
      "hit": false,
      "t": 83142.82249999874,
      "d": 82.14282291666314,
      "v": 110
    },
    {
      "midi": 33,
      "hit": false,
      "t": 83228.53674999873,
      "d": 82.14282291666314,
      "v": 110
    },
    {
      "midi": 33,
      "hit": false,
      "t": 83314.25099999872,
      "d": 167.85707291666768,
      "v": 110
    },
    {
      "midi": 69,
      "hit": false,
      "t": 83314.25099999989,
      "d": 167.85707291666768,
      "v": 110
    },
    {
      "midi": 73,
      "hit": false,
      "t": 83314.25099999989,
      "d": 167.85707291666768,
      "v": 110
    },
    {
      "midi": 35,
      "hit": false,
      "t": 83485.67949999872,
      "d": 167.85707291666768,
      "v": 110
    },
    {
      "midi": 71,
      "hit": false,
      "t": 83485.67949999988,
      "d": 339.2855729166622,
      "v": 110
    },
    {
      "midi": 68,
      "hit": false,
      "t": 83485.67950000007,
      "d": 339.2855729166622,
      "v": 110
    },
    {
      "midi": 35,
      "hit": false,
      "t": 83657.10799999871,
      "d": 167.85707291666768,
      "v": 110
    },
    {
      "midi": 35,
      "hit": false,
      "t": 83828.5364999987,
      "d": 82.14282291666314,
      "v": 110
    },
    {
      "midi": 69,
      "hit": false,
      "t": 83828.53649999987,
      "d": 457.1426666666666,
      "v": 110
    },
    {
      "midi": 66,
      "hit": false,
      "t": 83828.53650000006,
      "d": 339.2855729166622,
      "v": 110
    },
    {
      "midi": 35,
      "hit": false,
      "t": 83914.2507499987,
      "d": 82.14282291666314,
      "v": 110
    },
    {
      "midi": 35,
      "hit": false,
      "t": 83999.96499999869,
      "d": 167.85707291666768,
      "v": 110
    },
    {
      "midi": 35,
      "hit": false,
      "t": 84171.39349999868,
      "d": 82.14282291666314,
      "v": 110
    },
    {
      "midi": 64,
      "hit": false,
      "t": 84171.39350000005,
      "d": 339.2855729166622,
      "v": 110
    },
    {
      "midi": 68,
      "hit": false,
      "t": 84171.39350000005,
      "d": 339.2855729166622,
      "v": 110
    },
    {
      "midi": 35,
      "hit": false,
      "t": 84257.10774999867,
      "d": 82.14282291666314,
      "v": 110
    },
    {
      "midi": 35,
      "hit": false,
      "t": 84342.82199999866,
      "d": 167.85707291666768,
      "v": 110
    },
    {
      "midi": 35,
      "hit": false,
      "t": 84514.25049999866,
      "d": 82.14282291666314,
      "v": 110
    },
    {
      "midi": 63,
      "hit": false,
      "t": 84514.25050000004,
      "d": 457.1426666666666,
      "v": 110
    },
    {
      "midi": 66,
      "hit": false,
      "t": 84514.25050000004,
      "d": 457.1426666666666,
      "v": 110
    },
    {
      "midi": 35,
      "hit": false,
      "t": 84599.96474999865,
      "d": 82.14282291666314,
      "v": 110
    },
    {
      "midi": 35,
      "hit": false,
      "t": 84685.67899999864,
      "d": 167.85707291666768,
      "v": 110
    },
    {
      "midi": 35,
      "hit": false,
      "t": 84857.10749999863,
      "d": 82.14282291666314,
      "v": 110
    },
    {
      "midi": 37,
      "hit": false,
      "t": 84942.82174999862,
      "d": 82.14282291666314,
      "v": 110
    },
    {
      "midi": 37,
      "hit": false,
      "t": 85028.53599999861,
      "d": 167.85707291666768,
      "v": 110
    },
    {
      "midi": 59,
      "hit": false,
      "t": 85028.53600000004,
      "d": 167.85707291666768,
      "v": 110
    },
    {
      "midi": 63,
      "hit": false,
      "t": 85028.53600000004,
      "d": 167.85707291666768,
      "v": 110
    },
    {
      "midi": 37,
      "hit": false,
      "t": 85199.9644999986,
      "d": 82.14282291666314,
      "v": 110
    },
    {
      "midi": 61,
      "hit": false,
      "t": 85199.96450000003,
      "d": 167.85707291666768,
      "v": 110
    },
    {
      "midi": 64,
      "hit": false,
      "t": 85199.96450000003,
      "d": 167.85707291666768,
      "v": 110
    },
    {
      "midi": 37,
      "hit": false,
      "t": 85285.6787499986,
      "d": 82.14282291666314,
      "v": 110
    },
    {
      "midi": 37,
      "hit": false,
      "t": 85371.39299999858,
      "d": 167.85707291666768,
      "v": 110
    },
    {
      "midi": 59,
      "hit": false,
      "t": 85371.39300000003,
      "d": 167.85707291666768,
      "v": 110
    },
    {
      "midi": 63,
      "hit": false,
      "t": 85371.39300000003,
      "d": 167.85707291666768,
      "v": 110
    },
    {
      "midi": 37,
      "hit": false,
      "t": 85542.82149999858,
      "d": 82.14282291666314,
      "v": 110
    },
    {
      "midi": 61,
      "hit": false,
      "t": 85542.82150000002,
      "d": 2142.856249999997,
      "v": 110
    },
    {
      "midi": 56,
      "hit": false,
      "t": 85542.82150000005,
      "d": 2142.856249999997,
      "v": 110
    },
    {
      "midi": 37,
      "hit": false,
      "t": 85628.53574999857,
      "d": 82.14282291666314,
      "v": 110
    },
    {
      "midi": 37,
      "hit": false,
      "t": 85714.24999999856,
      "d": 167.85707291666768,
      "v": 110
    },
    {
      "midi": 37,
      "hit": false,
      "t": 85885.67849999855,
      "d": 82.14282291666314,
      "v": 110
    },
    {
      "midi": 37,
      "hit": false,
      "t": 85971.39274999854,
      "d": 82.14282291666314,
      "v": 110
    },
    {
      "midi": 35,
      "hit": false,
      "t": 86057.10699999853,
      "d": 167.85707291666768,
      "v": 110
    },
    {
      "midi": 37,
      "hit": false,
      "t": 86228.53549999853,
      "d": 285.7141666666721,
      "v": 110
    },
    {
      "midi": 35,
      "hit": false,
      "t": 86571.39249999853,
      "d": 167.85707291666768,
      "v": 110
    },
    {
      "midi": 37,
      "hit": false,
      "t": 86742.82099999853,
      "d": 285.7141666666721,
      "v": 110
    },
    {
      "midi": 35,
      "hit": false,
      "t": 87085.67799999853,
      "d": 167.85707291666768,
      "v": 110
    },
    {
      "midi": 36,
      "hit": false,
      "t": 87257.10649999852,
      "d": 167.85707291666768,
      "v": 110
    },
    {
      "midi": 37,
      "hit": false,
      "t": 87428.53499999852,
      "d": 285.7141666666721,
      "v": 110
    },
    {
      "midi": 37,
      "hit": false,
      "t": 87771.39199999852,
      "d": 167.85707291666768,
      "v": 110
    },
    {
      "midi": 37,
      "hit": false,
      "t": 87942.82049999852,
      "d": 82.14282291666314,
      "v": 110
    },
    {
      "midi": 61,
      "hit": false,
      "t": 87942.82050000002,
      "d": 82.14282291666314,
      "v": 110
    },
    {
      "midi": 64,
      "hit": false,
      "t": 87942.82050000002,
      "d": 82.14282291666314,
      "v": 110
    },
    {
      "midi": 37,
      "hit": false,
      "t": 88028.53474999851,
      "d": 82.14282291666314,
      "v": 110
    },
    {
      "midi": 61,
      "hit": false,
      "t": 88028.53475,
      "d": 82.14282291666314,
      "v": 110
    },
    {
      "midi": 64,
      "hit": false,
      "t": 88028.53475,
      "d": 82.14282291666314,
      "v": 110
    },
    {
      "midi": 37,
      "hit": false,
      "t": 88114.2489999985,
      "d": 167.85707291666768,
      "v": 110
    },
    {
      "midi": 61,
      "hit": false,
      "t": 88114.249,
      "d": 167.85707291666768,
      "v": 110
    },
    {
      "midi": 64,
      "hit": false,
      "t": 88114.249,
      "d": 167.85707291666768,
      "v": 110
    },
    {
      "midi": 37,
      "hit": false,
      "t": 88285.67749999849,
      "d": 82.14282291666314,
      "v": 110
    },
    {
      "midi": 61,
      "hit": false,
      "t": 88285.67749999999,
      "d": 82.14282291666314,
      "v": 110
    },
    {
      "midi": 64,
      "hit": false,
      "t": 88285.67749999999,
      "d": 82.14282291666314,
      "v": 110
    },
    {
      "midi": 37,
      "hit": false,
      "t": 88371.39174999848,
      "d": 82.14282291666314,
      "v": 110
    },
    {
      "midi": 61,
      "hit": false,
      "t": 88371.39174999998,
      "d": 82.14282291666314,
      "v": 110
    },
    {
      "midi": 64,
      "hit": false,
      "t": 88371.39174999998,
      "d": 82.14282291666314,
      "v": 110
    },
    {
      "midi": 37,
      "hit": false,
      "t": 88457.10599999847,
      "d": 167.85707291666768,
      "v": 110
    },
    {
      "midi": 61,
      "hit": false,
      "t": 88457.10599999997,
      "d": 167.85707291666768,
      "v": 110
    },
    {
      "midi": 64,
      "hit": false,
      "t": 88457.10599999997,
      "d": 167.85707291666768,
      "v": 110
    },
    {
      "midi": 37,
      "hit": false,
      "t": 88628.53449999847,
      "d": 82.14282291666314,
      "v": 110
    },
    {
      "midi": 61,
      "hit": false,
      "t": 88628.53449999997,
      "d": 167.85707291666768,
      "v": 110
    },
    {
      "midi": 56,
      "hit": false,
      "t": 88628.53450000005,
      "d": 167.85707291666768,
      "v": 110
    },
    {
      "midi": 37,
      "hit": false,
      "t": 88714.24874999846,
      "d": 82.14282291666314,
      "v": 110
    },
    {
      "midi": 37,
      "hit": false,
      "t": 88799.96299999845,
      "d": 167.85707291666768,
      "v": 110
    },
    {
      "midi": 37,
      "hit": false,
      "t": 88971.39149999844,
      "d": 82.14282291666314,
      "v": 110
    },
    {
      "midi": 61,
      "hit": false,
      "t": 88971.39149999997,
      "d": 82.14282291666314,
      "v": 110
    },
    {
      "midi": 56,
      "hit": false,
      "t": 88971.39150000006,
      "d": 82.14282291666314,
      "v": 110
    },
    {
      "midi": 37,
      "hit": false,
      "t": 89057.10574999843,
      "d": 82.14282291666314,
      "v": 110
    },
    {
      "midi": 61,
      "hit": false,
      "t": 89057.10574999996,
      "d": 82.14282291666314,
      "v": 110
    },
    {
      "midi": 56,
      "hit": false,
      "t": 89057.10575000005,
      "d": 82.14282291666314,
      "v": 110
    },
    {
      "midi": 37,
      "hit": false,
      "t": 89142.81999999842,
      "d": 167.85707291666768,
      "v": 110
    },
    {
      "midi": 61,
      "hit": false,
      "t": 89142.81999999995,
      "d": 167.85707291666768,
      "v": 110
    },
    {
      "midi": 64,
      "hit": false,
      "t": 89142.81999999995,
      "d": 167.85707291666768,
      "v": 110
    },
    {
      "midi": 37,
      "hit": false,
      "t": 89314.24849999842,
      "d": 82.14282291666314,
      "v": 110
    },
    {
      "midi": 61,
      "hit": false,
      "t": 89314.24849999994,
      "d": 82.14282291666314,
      "v": 110
    },
    {
      "midi": 64,
      "hit": false,
      "t": 89314.24849999994,
      "d": 82.14282291666314,
      "v": 110
    },
    {
      "midi": 37,
      "hit": false,
      "t": 89399.9627499984,
      "d": 82.14282291666314,
      "v": 110
    },
    {
      "midi": 61,
      "hit": false,
      "t": 89399.96274999993,
      "d": 82.14282291666314,
      "v": 110
    },
    {
      "midi": 64,
      "hit": false,
      "t": 89399.96274999993,
      "d": 82.14282291666314,
      "v": 110
    },
    {
      "midi": 37,
      "hit": false,
      "t": 89485.6769999984,
      "d": 167.85707291666768,
      "v": 110
    },
    {
      "midi": 61,
      "hit": false,
      "t": 89485.67699999992,
      "d": 167.85707291666768,
      "v": 110
    },
    {
      "midi": 64,
      "hit": false,
      "t": 89485.67699999992,
      "d": 167.85707291666768,
      "v": 110
    },
    {
      "midi": 37,
      "hit": false,
      "t": 89657.10549999839,
      "d": 82.14282291666314,
      "v": 110
    },
    {
      "midi": 61,
      "hit": false,
      "t": 89657.10549999992,
      "d": 167.85707291666768,
      "v": 110
    },
    {
      "midi": 56,
      "hit": false,
      "t": 89657.10550000005,
      "d": 167.85707291666768,
      "v": 110
    },
    {
      "midi": 37,
      "hit": false,
      "t": 89742.81974999838,
      "d": 82.14282291666314,
      "v": 110
    },
    {
      "midi": 37,
      "hit": false,
      "t": 89828.53399999837,
      "d": 167.85707291666768,
      "v": 110
    },
    {
      "midi": 37,
      "hit": false,
      "t": 89999.96249999836,
      "d": 82.14282291666314,
      "v": 110
    },
    {
      "midi": 61,
      "hit": false,
      "t": 89999.96249999992,
      "d": 167.85707291666768,
      "v": 110
    },
    {
      "midi": 64,
      "hit": false,
      "t": 89999.96249999992,
      "d": 167.85707291666768,
      "v": 110
    },
    {
      "midi": 68,
      "hit": false,
      "t": 89999.96249999992,
      "d": 167.85707291666768,
      "v": 110
    },
    {
      "midi": 37,
      "hit": false,
      "t": 90085.67674999835,
      "d": 82.14282291666314,
      "v": 110
    },
    {
      "midi": 35,
      "hit": false,
      "t": 90171.39099999834,
      "d": 167.85707291666768,
      "v": 110
    },
    {
      "midi": 59,
      "hit": false,
      "t": 90171.39099999992,
      "d": 167.85707291666768,
      "v": 110
    },
    {
      "midi": 63,
      "hit": false,
      "t": 90171.39099999992,
      "d": 167.85707291666768,
      "v": 110
    },
    {
      "midi": 66,
      "hit": false,
      "t": 90171.39099999992,
      "d": 167.85707291666768,
      "v": 110
    },
    {
      "midi": 35,
      "hit": false,
      "t": 90342.81949999834,
      "d": 82.14282291666314,
      "v": 110
    },
    {
      "midi": 61,
      "hit": false,
      "t": 90342.81949999991,
      "d": 167.85707291666768,
      "v": 110
    },
    {
      "midi": 64,
      "hit": false,
      "t": 90342.81949999991,
      "d": 167.85707291666768,
      "v": 110
    },
    {
      "midi": 68,
      "hit": false,
      "t": 90342.81949999991,
      "d": 167.85707291666768,
      "v": 110
    },
    {
      "midi": 35,
      "hit": false,
      "t": 90428.53374999833,
      "d": 82.14282291666314,
      "v": 110
    },
    {
      "midi": 33,
      "hit": false,
      "t": 90514.24799999832,
      "d": 167.85707291666768,
      "v": 110
    },
    {
      "midi": 33,
      "hit": false,
      "t": 90685.67649999831,
      "d": 82.14282291666314,
      "v": 110
    },
    {
      "midi": 61,
      "hit": false,
      "t": 90685.67649999991,
      "d": 82.14282291666314,
      "v": 110
    },
    {
      "midi": 64,
      "hit": false,
      "t": 90685.67649999991,
      "d": 82.14282291666314,
      "v": 110
    },
    {
      "midi": 33,
      "hit": false,
      "t": 90771.3907499983,
      "d": 82.14282291666314,
      "v": 110
    },
    {
      "midi": 61,
      "hit": false,
      "t": 90771.3907499999,
      "d": 82.14282291666314,
      "v": 110
    },
    {
      "midi": 64,
      "hit": false,
      "t": 90771.3907499999,
      "d": 82.14282291666314,
      "v": 110
    },
    {
      "midi": 33,
      "hit": false,
      "t": 90857.1049999983,
      "d": 167.85707291666768,
      "v": 110
    },
    {
      "midi": 61,
      "hit": false,
      "t": 90857.1049999999,
      "d": 167.85707291666768,
      "v": 110
    },
    {
      "midi": 64,
      "hit": false,
      "t": 90857.1049999999,
      "d": 167.85707291666768,
      "v": 110
    },
    {
      "midi": 33,
      "hit": false,
      "t": 91028.53349999829,
      "d": 82.14282291666314,
      "v": 110
    },
    {
      "midi": 61,
      "hit": false,
      "t": 91028.53349999989,
      "d": 82.14282291666314,
      "v": 110
    },
    {
      "midi": 64,
      "hit": false,
      "t": 91028.53349999989,
      "d": 82.14282291666314,
      "v": 110
    },
    {
      "midi": 33,
      "hit": false,
      "t": 91114.24774999828,
      "d": 82.14282291666314,
      "v": 110
    },
    {
      "midi": 61,
      "hit": false,
      "t": 91114.24774999988,
      "d": 82.14282291666314,
      "v": 110
    },
    {
      "midi": 64,
      "hit": false,
      "t": 91114.24774999988,
      "d": 82.14282291666314,
      "v": 110
    },
    {
      "midi": 33,
      "hit": false,
      "t": 91199.96199999827,
      "d": 167.85707291666768,
      "v": 110
    },
    {
      "midi": 61,
      "hit": false,
      "t": 91199.96199999987,
      "d": 167.85707291666768,
      "v": 110
    },
    {
      "midi": 64,
      "hit": false,
      "t": 91199.96199999987,
      "d": 167.85707291666768,
      "v": 110
    },
    {
      "midi": 33,
      "hit": false,
      "t": 91371.39049999826,
      "d": 82.14282291666314,
      "v": 110
    },
    {
      "midi": 61,
      "hit": false,
      "t": 91371.39049999986,
      "d": 167.85707291666768,
      "v": 110
    },
    {
      "midi": 56,
      "hit": false,
      "t": 91371.39050000005,
      "d": 167.85707291666768,
      "v": 110
    },
    {
      "midi": 33,
      "hit": false,
      "t": 91457.10474999825,
      "d": 82.14282291666314,
      "v": 110
    },
    {
      "midi": 33,
      "hit": false,
      "t": 91542.81899999824,
      "d": 167.85707291666768,
      "v": 110
    },
    {
      "midi": 33,
      "hit": false,
      "t": 91714.24749999824,
      "d": 82.14282291666314,
      "v": 110
    },
    {
      "midi": 61,
      "hit": false,
      "t": 91714.24749999987,
      "d": 167.85707291666768,
      "v": 110
    },
    {
      "midi": 64,
      "hit": false,
      "t": 91714.24749999987,
      "d": 167.85707291666768,
      "v": 110
    },
    {
      "midi": 68,
      "hit": false,
      "t": 91714.24749999987,
      "d": 167.85707291666768,
      "v": 110
    },
    {
      "midi": 33,
      "hit": false,
      "t": 91799.96174999823,
      "d": 82.14282291666314,
      "v": 110
    },
    {
      "midi": 33,
      "hit": false,
      "t": 91885.67599999822,
      "d": 167.85707291666768,
      "v": 110
    },
    {
      "midi": 33,
      "hit": false,
      "t": 92057.10449999821,
      "d": 82.14282291666314,
      "v": 110
    },
    {
      "midi": 59,
      "hit": false,
      "t": 92057.10449999987,
      "d": 167.85707291666768,
      "v": 110
    },
    {
      "midi": 63,
      "hit": false,
      "t": 92057.10449999987,
      "d": 167.85707291666768,
      "v": 110
    },
    {
      "midi": 66,
      "hit": false,
      "t": 92057.10449999987,
      "d": 167.85707291666768,
      "v": 110
    },
    {
      "midi": 33,
      "hit": false,
      "t": 92142.8187499982,
      "d": 82.14282291666314,
      "v": 110
    },
    {
      "midi": 33,
      "hit": false,
      "t": 92228.53299999819,
      "d": 167.85707291666768,
      "v": 110
    },
    {
      "midi": 33,
      "hit": false,
      "t": 92399.96149999819,
      "d": 82.14282291666314,
      "v": 110
    },
    {
      "midi": 61,
      "hit": false,
      "t": 92399.96149999987,
      "d": 167.85707291666768,
      "v": 110
    },
    {
      "midi": 64,
      "hit": false,
      "t": 92399.96149999987,
      "d": 167.85707291666768,
      "v": 110
    },
    {
      "midi": 57,
      "hit": false,
      "t": 92399.96150000005,
      "d": 167.85707291666768,
      "v": 110
    },
    {
      "midi": 33,
      "hit": false,
      "t": 92485.67574999818,
      "d": 82.14282291666314,
      "v": 110
    },
    {
      "midi": 33,
      "hit": false,
      "t": 92571.38999999817,
      "d": 167.85707291666768,
      "v": 110
    },
    {
      "midi": 33,
      "hit": false,
      "t": 92742.81849999816,
      "d": 82.14282291666314,
      "v": 110
    },
    {
      "midi": 59,
      "hit": false,
      "t": 92742.81849999988,
      "d": 167.85707291666768,
      "v": 110
    },
    {
      "midi": 63,
      "hit": false,
      "t": 92742.81849999988,
      "d": 167.85707291666768,
      "v": 110
    },
    {
      "midi": 66,
      "hit": false,
      "t": 92742.81849999988,
      "d": 167.85707291666768,
      "v": 110
    },
    {
      "midi": 33,
      "hit": false,
      "t": 92828.53274999815,
      "d": 82.14282291666314,
      "v": 110
    },
    {
      "midi": 33,
      "hit": false,
      "t": 92914.24699999814,
      "d": 167.85707291666768,
      "v": 110
    },
    {
      "midi": 33,
      "hit": false,
      "t": 93085.67549999813,
      "d": 82.14282291666314,
      "v": 110
    },
    {
      "midi": 33,
      "hit": false,
      "t": 93171.38974999812,
      "d": 82.14282291666314,
      "v": 110
    },
    {
      "midi": 35,
      "hit": false,
      "t": 93257.10399999811,
      "d": 167.85707291666768,
      "v": 110
    },
    {
      "midi": 35,
      "hit": false,
      "t": 93428.53249999811,
      "d": 82.14282291666314,
      "v": 110
    },
    {
      "midi": 63,
      "hit": false,
      "t": 93428.53249999988,
      "d": 82.14282291666314,
      "v": 110
    },
    {
      "midi": 66,
      "hit": false,
      "t": 93428.53249999988,
      "d": 82.14282291666314,
      "v": 110
    },
    {
      "midi": 35,
      "hit": false,
      "t": 93514.2467499981,
      "d": 82.14282291666314,
      "v": 110
    },
    {
      "midi": 63,
      "hit": false,
      "t": 93514.24674999987,
      "d": 82.14282291666314,
      "v": 110
    },
    {
      "midi": 66,
      "hit": false,
      "t": 93514.24674999987,
      "d": 82.14282291666314,
      "v": 110
    },
    {
      "midi": 35,
      "hit": false,
      "t": 93599.96099999809,
      "d": 167.85707291666768,
      "v": 110
    },
    {
      "midi": 63,
      "hit": false,
      "t": 93599.96099999986,
      "d": 167.85707291666768,
      "v": 110
    },
    {
      "midi": 66,
      "hit": false,
      "t": 93599.96099999986,
      "d": 167.85707291666768,
      "v": 110
    },
    {
      "midi": 35,
      "hit": false,
      "t": 93771.38949999808,
      "d": 82.14282291666314,
      "v": 110
    },
    {
      "midi": 63,
      "hit": false,
      "t": 93771.38949999986,
      "d": 82.14282291666314,
      "v": 110
    },
    {
      "midi": 66,
      "hit": false,
      "t": 93771.38949999986,
      "d": 82.14282291666314,
      "v": 110
    },
    {
      "midi": 35,
      "hit": false,
      "t": 93857.10374999807,
      "d": 82.14282291666314,
      "v": 110
    },
    {
      "midi": 63,
      "hit": false,
      "t": 93857.10374999985,
      "d": 82.14282291666314,
      "v": 110
    },
    {
      "midi": 66,
      "hit": false,
      "t": 93857.10374999985,
      "d": 82.14282291666314,
      "v": 110
    },
    {
      "midi": 35,
      "hit": false,
      "t": 93942.81799999806,
      "d": 167.85707291666768,
      "v": 110
    },
    {
      "midi": 63,
      "hit": false,
      "t": 93942.81799999984,
      "d": 167.85707291666768,
      "v": 110
    },
    {
      "midi": 66,
      "hit": false,
      "t": 93942.81799999984,
      "d": 167.85707291666768,
      "v": 110
    },
    {
      "midi": 35,
      "hit": false,
      "t": 94114.24649999806,
      "d": 82.14282291666314,
      "v": 110
    },
    {
      "midi": 59,
      "hit": false,
      "t": 94114.24649999983,
      "d": 167.85707291666768,
      "v": 110
    },
    {
      "midi": 63,
      "hit": false,
      "t": 94114.24649999983,
      "d": 167.85707291666768,
      "v": 110
    },
    {
      "midi": 35,
      "hit": false,
      "t": 94199.96074999805,
      "d": 82.14282291666314,
      "v": 110
    },
    {
      "midi": 35,
      "hit": false,
      "t": 94285.67499999804,
      "d": 167.85707291666768,
      "v": 110
    },
    {
      "midi": 35,
      "hit": false,
      "t": 94457.10349999803,
      "d": 82.14282291666314,
      "v": 110
    },
    {
      "midi": 59,
      "hit": false,
      "t": 94457.10349999984,
      "d": 167.85707291666768,
      "v": 110
    },
    {
      "midi": 64,
      "hit": false,
      "t": 94457.10349999984,
      "d": 167.85707291666768,
      "v": 110
    },
    {
      "midi": 68,
      "hit": false,
      "t": 94457.10349999984,
      "d": 167.85707291666768,
      "v": 110
    },
    {
      "midi": 35,
      "hit": false,
      "t": 94542.81774999802,
      "d": 82.14282291666314,
      "v": 110
    },
    {
      "midi": 35,
      "hit": false,
      "t": 94628.53199999801,
      "d": 167.85707291666768,
      "v": 110
    },
    {
      "midi": 35,
      "hit": false,
      "t": 94799.96049999801,
      "d": 82.14282291666314,
      "v": 110
    },
    {
      "midi": 59,
      "hit": false,
      "t": 94799.96049999984,
      "d": 167.85707291666768,
      "v": 110
    },
    {
      "midi": 63,
      "hit": false,
      "t": 94799.96049999984,
      "d": 167.85707291666768,
      "v": 110
    },
    {
      "midi": 66,
      "hit": false,
      "t": 94799.96049999984,
      "d": 167.85707291666768,
      "v": 110
    },
    {
      "midi": 35,
      "hit": false,
      "t": 94885.674749998,
      "d": 82.14282291666314,
      "v": 110
    },
    {
      "midi": 35,
      "hit": false,
      "t": 94971.38899999799,
      "d": 167.85707291666768,
      "v": 110
    },
    {
      "midi": 35,
      "hit": false,
      "t": 95142.81749999798,
      "d": 82.14282291666314,
      "v": 110
    },
    {
      "midi": 61,
      "hit": false,
      "t": 95142.81749999984,
      "d": 167.85707291666768,
      "v": 110
    },
    {
      "midi": 64,
      "hit": false,
      "t": 95142.81749999984,
      "d": 167.85707291666768,
      "v": 110
    },
    {
      "midi": 56,
      "hit": false,
      "t": 95142.81750000005,
      "d": 167.85707291666768,
      "v": 110
    },
    {
      "midi": 35,
      "hit": false,
      "t": 95228.53174999797,
      "d": 82.14282291666314,
      "v": 110
    },
    {
      "midi": 35,
      "hit": false,
      "t": 95314.24599999796,
      "d": 167.85707291666768,
      "v": 110
    },
    {
      "midi": 35,
      "hit": false,
      "t": 95485.67449999796,
      "d": 82.14282291666314,
      "v": 110
    },
    {
      "midi": 59,
      "hit": false,
      "t": 95485.67449999985,
      "d": 167.85707291666768,
      "v": 110
    },
    {
      "midi": 63,
      "hit": false,
      "t": 95485.67449999985,
      "d": 167.85707291666768,
      "v": 110
    },
    {
      "midi": 54,
      "hit": false,
      "t": 95485.67450000005,
      "d": 167.85707291666768,
      "v": 110
    },
    {
      "midi": 35,
      "hit": false,
      "t": 95571.38874999795,
      "d": 82.14282291666314,
      "v": 110
    },
    {
      "midi": 35,
      "hit": false,
      "t": 95657.10299999794,
      "d": 167.85707291666768,
      "v": 110
    },
    {
      "midi": 35,
      "hit": false,
      "t": 95828.53149999793,
      "d": 82.14282291666314,
      "v": 110
    },
    {
      "midi": 61,
      "hit": false,
      "t": 95828.53149999985,
      "d": 167.85707291666768,
      "v": 110
    },
    {
      "midi": 49,
      "hit": false,
      "t": 95828.53150000006,
      "d": 167.85707291666768,
      "v": 110
    },
    {
      "midi": 56,
      "hit": false,
      "t": 95828.53150000006,
      "d": 167.85707291666768,
      "v": 110
    },
    {
      "midi": 35,
      "hit": false,
      "t": 95914.24574999792,
      "d": 82.14282291666314,
      "v": 110
    },
    {
      "midi": 37,
      "hit": false,
      "t": 95999.95999999791,
      "d": 167.85707291666768,
      "v": 110
    },
    {
      "midi": 37,
      "hit": false,
      "t": 96171.3884999979,
      "d": 82.14282291666314,
      "v": 110
    },
    {
      "midi": 61,
      "hit": false,
      "t": 96171.38849999986,
      "d": 167.85707291666768,
      "v": 110
    },
    {
      "midi": 37,
      "hit": false,
      "t": 96257.1027499979,
      "d": 82.14282291666314,
      "v": 110
    },
    {
      "midi": 37,
      "hit": false,
      "t": 96342.81699999789,
      "d": 167.85707291666768,
      "v": 110
    },
    {
      "midi": 68,
      "hit": false,
      "t": 96342.81699999985,
      "d": 285.7141666666721,
      "v": 110
    },
    {
      "midi": 37,
      "hit": false,
      "t": 96514.24549999788,
      "d": 82.14282291666314,
      "v": 110
    },
    {
      "midi": 71,
      "hit": false,
      "t": 96514.24549999987,
      "d": 167.85707291666768,
      "v": 110
    },
    {
      "midi": 37,
      "hit": false,
      "t": 96599.95974999787,
      "d": 82.14282291666314,
      "v": 110
    },
    {
      "midi": 37,
      "hit": false,
      "t": 96685.67399999786,
      "d": 167.85707291666768,
      "v": 110
    },
    {
      "midi": 70,
      "hit": false,
      "t": 96685.67399999987,
      "d": 599.9997500000027,
      "v": 110
    },
    {
      "midi": 37,
      "hit": false,
      "t": 96857.10249999785,
      "d": 82.14282291666314,
      "v": 110
    },
    {
      "midi": 37,
      "hit": false,
      "t": 96942.81674999784,
      "d": 82.14282291666314,
      "v": 110
    },
    {
      "midi": 37,
      "hit": false,
      "t": 97028.53099999783,
      "d": 167.85707291666768,
      "v": 110
    },
    {
      "midi": 37,
      "hit": false,
      "t": 97199.95949999783,
      "d": 82.14282291666314,
      "v": 110
    },
    {
      "midi": 61,
      "hit": false,
      "t": 97199.95949999985,
      "d": 167.85707291666768,
      "v": 110
    },
    {
      "midi": 37,
      "hit": false,
      "t": 97285.67374999782,
      "d": 82.14282291666314,
      "v": 110
    },
    {
      "midi": 37,
      "hit": false,
      "t": 97371.38799999781,
      "d": 167.85707291666768,
      "v": 110
    },
    {
      "midi": 37,
      "hit": false,
      "t": 97542.8164999978,
      "d": 82.14282291666314,
      "v": 110
    },
    {
      "midi": 61,
      "hit": false,
      "t": 97542.81649999986,
      "d": 167.85707291666768,
      "v": 110
    },
    {
      "midi": 37,
      "hit": false,
      "t": 97628.5307499978,
      "d": 82.14282291666314,
      "v": 110
    },
    {
      "midi": 37,
      "hit": false,
      "t": 97714.24499999778,
      "d": 167.85707291666768,
      "v": 110
    },
    {
      "midi": 68,
      "hit": false,
      "t": 97714.24499999985,
      "d": 285.7141666666721,
      "v": 110
    },
    {
      "midi": 37,
      "hit": false,
      "t": 97885.67349999778,
      "d": 82.14282291666314,
      "v": 110
    },
    {
      "midi": 71,
      "hit": false,
      "t": 97885.67349999987,
      "d": 167.85707291666768,
      "v": 110
    },
    {
      "midi": 37,
      "hit": false,
      "t": 97971.38774999777,
      "d": 82.14282291666314,
      "v": 110
    },
    {
      "midi": 37,
      "hit": false,
      "t": 98057.10199999776,
      "d": 167.85707291666768,
      "v": 110
    },
    {
      "midi": 70,
      "hit": false,
      "t": 98057.10199999987,
      "d": 285.7141666666721,
      "v": 110
    },
    {
      "midi": 37,
      "hit": false,
      "t": 98228.53049999775,
      "d": 82.14282291666314,
      "v": 110
    },
    {
      "midi": 37,
      "hit": false,
      "t": 98314.24474999774,
      "d": 82.14282291666314,
      "v": 110
    },
    {
      "midi": 35,
      "hit": false,
      "t": 98399.95899999773,
      "d": 167.85707291666768,
      "v": 110
    },
    {
      "midi": 71,
      "hit": false,
      "t": 98399.95899999987,
      "d": 167.85707291666768,
      "v": 110
    },
    {
      "midi": 75,
      "hit": false,
      "t": 98399.95899999987,
      "d": 167.85707291666768,
      "v": 110
    },
    {
      "midi": 35,
      "hit": false,
      "t": 98571.38749999773,
      "d": 82.14282291666314,
      "v": 110
    },
    {
      "midi": 73,
      "hit": false,
      "t": 98571.38749999987,
      "d": 167.85707291666768,
      "v": 110
    },
    {
      "midi": 76,
      "hit": false,
      "t": 98571.38749999987,
      "d": 167.85707291666768,
      "v": 110
    },
    {
      "midi": 37,
      "hit": false,
      "t": 98657.10174999772,
      "d": 82.14282291666314,
      "v": 110
    },
    {
      "midi": 37,
      "hit": false,
      "t": 98742.8159999977,
      "d": 167.85707291666768,
      "v": 110
    },
    {
      "midi": 37,
      "hit": false,
      "t": 98914.2444999977,
      "d": 82.14282291666314,
      "v": 110
    },
    {
      "midi": 61,
      "hit": false,
      "t": 98914.24449999986,
      "d": 82.14282291666314,
      "v": 110
    },
    {
      "midi": 64,
      "hit": false,
      "t": 98914.24449999986,
      "d": 82.14282291666314,
      "v": 110
    },
    {
      "midi": 37,
      "hit": false,
      "t": 98999.95874999769,
      "d": 82.14282291666314,
      "v": 110
    },
    {
      "midi": 61,
      "hit": false,
      "t": 98999.95874999985,
      "d": 82.14282291666314,
      "v": 110
    },
    {
      "midi": 64,
      "hit": false,
      "t": 98999.95874999985,
      "d": 82.14282291666314,
      "v": 110
    },
    {
      "midi": 37,
      "hit": false,
      "t": 99085.67299999768,
      "d": 167.85707291666768,
      "v": 110
    },
    {
      "midi": 61,
      "hit": false,
      "t": 99085.67299999984,
      "d": 167.85707291666768,
      "v": 110
    },
    {
      "midi": 64,
      "hit": false,
      "t": 99085.67299999984,
      "d": 167.85707291666768,
      "v": 110
    },
    {
      "midi": 37,
      "hit": false,
      "t": 99257.10149999768,
      "d": 82.14282291666314,
      "v": 110
    },
    {
      "midi": 61,
      "hit": false,
      "t": 99257.10149999983,
      "d": 82.14282291666314,
      "v": 110
    },
    {
      "midi": 64,
      "hit": false,
      "t": 99257.10149999983,
      "d": 82.14282291666314,
      "v": 110
    },
    {
      "midi": 37,
      "hit": false,
      "t": 99342.81574999767,
      "d": 82.14282291666314,
      "v": 110
    },
    {
      "midi": 61,
      "hit": false,
      "t": 99342.81574999982,
      "d": 82.14282291666314,
      "v": 110
    },
    {
      "midi": 64,
      "hit": false,
      "t": 99342.81574999982,
      "d": 82.14282291666314,
      "v": 110
    },
    {
      "midi": 37,
      "hit": false,
      "t": 99428.52999999766,
      "d": 167.85707291666768,
      "v": 110
    },
    {
      "midi": 61,
      "hit": false,
      "t": 99428.52999999981,
      "d": 167.85707291666768,
      "v": 110
    },
    {
      "midi": 64,
      "hit": false,
      "t": 99428.52999999981,
      "d": 167.85707291666768,
      "v": 110
    },
    {
      "midi": 37,
      "hit": false,
      "t": 99599.95849999765,
      "d": 82.14282291666314,
      "v": 110
    },
    {
      "midi": 61,
      "hit": false,
      "t": 99599.9584999998,
      "d": 167.85707291666768,
      "v": 110
    },
    {
      "midi": 56,
      "hit": false,
      "t": 99599.95850000005,
      "d": 167.85707291666768,
      "v": 110
    },
    {
      "midi": 37,
      "hit": false,
      "t": 99685.67274999764,
      "d": 82.14282291666314,
      "v": 110
    },
    {
      "midi": 37,
      "hit": false,
      "t": 99771.38699999763,
      "d": 167.85707291666768,
      "v": 110
    },
    {
      "midi": 37,
      "hit": false,
      "t": 99942.81549999763,
      "d": 82.14282291666314,
      "v": 110
    },
    {
      "midi": 61,
      "hit": false,
      "t": 99942.81549999981,
      "d": 82.14282291666314,
      "v": 110
    },
    {
      "midi": 56,
      "hit": false,
      "t": 99942.81550000006,
      "d": 82.14282291666314,
      "v": 110
    },
    {
      "midi": 37,
      "hit": false,
      "t": 100028.52974999761,
      "d": 82.14282291666314,
      "v": 110
    },
    {
      "midi": 61,
      "hit": false,
      "t": 100028.5297499998,
      "d": 82.14282291666314,
      "v": 110
    },
    {
      "midi": 56,
      "hit": false,
      "t": 100028.52975000005,
      "d": 82.14282291666314,
      "v": 110
    },
    {
      "midi": 37,
      "hit": false,
      "t": 100114.2439999976,
      "d": 167.85707291666768,
      "v": 110
    },
    {
      "midi": 61,
      "hit": false,
      "t": 100114.24399999979,
      "d": 167.85707291666768,
      "v": 110
    },
    {
      "midi": 64,
      "hit": false,
      "t": 100114.24399999979,
      "d": 167.85707291666768,
      "v": 110
    },
    {
      "midi": 37,
      "hit": false,
      "t": 100285.6724999976,
      "d": 82.14282291666314,
      "v": 110
    },
    {
      "midi": 61,
      "hit": false,
      "t": 100285.67249999978,
      "d": 82.14282291666314,
      "v": 110
    },
    {
      "midi": 64,
      "hit": false,
      "t": 100285.67249999978,
      "d": 82.14282291666314,
      "v": 110
    },
    {
      "midi": 37,
      "hit": false,
      "t": 100371.38674999759,
      "d": 82.14282291666314,
      "v": 110
    },
    {
      "midi": 61,
      "hit": false,
      "t": 100371.38674999977,
      "d": 82.14282291666314,
      "v": 110
    },
    {
      "midi": 64,
      "hit": false,
      "t": 100371.38674999977,
      "d": 82.14282291666314,
      "v": 110
    },
    {
      "midi": 37,
      "hit": false,
      "t": 100457.10099999758,
      "d": 167.85707291666768,
      "v": 110
    },
    {
      "midi": 61,
      "hit": false,
      "t": 100457.10099999976,
      "d": 167.85707291666768,
      "v": 110
    },
    {
      "midi": 64,
      "hit": false,
      "t": 100457.10099999976,
      "d": 167.85707291666768,
      "v": 110
    },
    {
      "midi": 37,
      "hit": false,
      "t": 100628.52949999757,
      "d": 82.14282291666314,
      "v": 110
    },
    {
      "midi": 61,
      "hit": false,
      "t": 100628.52949999976,
      "d": 167.85707291666768,
      "v": 110
    },
    {
      "midi": 56,
      "hit": false,
      "t": 100628.52950000005,
      "d": 167.85707291666768,
      "v": 110
    },
    {
      "midi": 37,
      "hit": false,
      "t": 100714.24374999756,
      "d": 82.14282291666314,
      "v": 110
    },
    {
      "midi": 37,
      "hit": false,
      "t": 100799.95799999755,
      "d": 167.85707291666768,
      "v": 110
    },
    {
      "midi": 37,
      "hit": false,
      "t": 100971.38649999755,
      "d": 82.14282291666314,
      "v": 110
    },
    {
      "midi": 61,
      "hit": false,
      "t": 100971.38649999976,
      "d": 167.85707291666768,
      "v": 110
    },
    {
      "midi": 64,
      "hit": false,
      "t": 100971.38649999976,
      "d": 167.85707291666768,
      "v": 110
    },
    {
      "midi": 68,
      "hit": false,
      "t": 100971.38649999976,
      "d": 167.85707291666768,
      "v": 110
    },
    {
      "midi": 37,
      "hit": false,
      "t": 101057.10074999754,
      "d": 82.14282291666314,
      "v": 110
    },
    {
      "midi": 35,
      "hit": false,
      "t": 101142.81499999753,
      "d": 167.85707291666768,
      "v": 110
    },
    {
      "midi": 59,
      "hit": false,
      "t": 101142.81499999975,
      "d": 167.85707291666768,
      "v": 110
    },
    {
      "midi": 63,
      "hit": false,
      "t": 101142.81499999975,
      "d": 167.85707291666768,
      "v": 110
    },
    {
      "midi": 66,
      "hit": false,
      "t": 101142.81499999975,
      "d": 167.85707291666768,
      "v": 110
    },
    {
      "midi": 35,
      "hit": false,
      "t": 101314.24349999752,
      "d": 82.14282291666314,
      "v": 110
    },
    {
      "midi": 61,
      "hit": false,
      "t": 101314.24349999975,
      "d": 167.85707291666768,
      "v": 110
    },
    {
      "midi": 64,
      "hit": false,
      "t": 101314.24349999975,
      "d": 167.85707291666768,
      "v": 110
    },
    {
      "midi": 68,
      "hit": false,
      "t": 101314.24349999975,
      "d": 167.85707291666768,
      "v": 110
    },
    {
      "midi": 35,
      "hit": false,
      "t": 101399.95774999751,
      "d": 82.14282291666314,
      "v": 110
    },
    {
      "midi": 33,
      "hit": false,
      "t": 101485.6719999975,
      "d": 167.85707291666768,
      "v": 110
    },
    {
      "midi": 33,
      "hit": false,
      "t": 101657.1004999975,
      "d": 82.14282291666314,
      "v": 110
    },
    {
      "midi": 61,
      "hit": false,
      "t": 101657.10049999975,
      "d": 82.14282291666314,
      "v": 110
    },
    {
      "midi": 64,
      "hit": false,
      "t": 101657.10049999975,
      "d": 82.14282291666314,
      "v": 110
    },
    {
      "midi": 33,
      "hit": false,
      "t": 101742.81474999749,
      "d": 82.14282291666314,
      "v": 110
    },
    {
      "midi": 61,
      "hit": false,
      "t": 101742.81474999974,
      "d": 82.14282291666314,
      "v": 110
    },
    {
      "midi": 64,
      "hit": false,
      "t": 101742.81474999974,
      "d": 82.14282291666314,
      "v": 110
    },
    {
      "midi": 33,
      "hit": false,
      "t": 101828.52899999748,
      "d": 167.85707291666768,
      "v": 110
    },
    {
      "midi": 61,
      "hit": false,
      "t": 101828.52899999973,
      "d": 167.85707291666768,
      "v": 110
    },
    {
      "midi": 64,
      "hit": false,
      "t": 101828.52899999973,
      "d": 167.85707291666768,
      "v": 110
    },
    {
      "midi": 33,
      "hit": false,
      "t": 101999.95749999747,
      "d": 82.14282291666314,
      "v": 110
    },
    {
      "midi": 61,
      "hit": false,
      "t": 101999.95749999973,
      "d": 82.14282291666314,
      "v": 110
    },
    {
      "midi": 64,
      "hit": false,
      "t": 101999.95749999973,
      "d": 82.14282291666314,
      "v": 110
    },
    {
      "midi": 33,
      "hit": false,
      "t": 102085.67174999746,
      "d": 82.14282291666314,
      "v": 110
    },
    {
      "midi": 61,
      "hit": false,
      "t": 102085.67174999972,
      "d": 82.14282291666314,
      "v": 110
    },
    {
      "midi": 64,
      "hit": false,
      "t": 102085.67174999972,
      "d": 82.14282291666314,
      "v": 110
    },
    {
      "midi": 33,
      "hit": false,
      "t": 102171.38599999745,
      "d": 167.85707291666768,
      "v": 110
    },
    {
      "midi": 61,
      "hit": false,
      "t": 102171.38599999971,
      "d": 167.85707291666768,
      "v": 110
    },
    {
      "midi": 64,
      "hit": false,
      "t": 102171.38599999971,
      "d": 167.85707291666768,
      "v": 110
    },
    {
      "midi": 33,
      "hit": false,
      "t": 102342.81449999745,
      "d": 82.14282291666314,
      "v": 110
    },
    {
      "midi": 61,
      "hit": false,
      "t": 102342.8144999997,
      "d": 167.85707291666768,
      "v": 110
    },
    {
      "midi": 56,
      "hit": false,
      "t": 102342.81450000005,
      "d": 167.85707291666768,
      "v": 110
    },
    {
      "midi": 33,
      "hit": false,
      "t": 102428.52874999744,
      "d": 82.14282291666314,
      "v": 110
    },
    {
      "midi": 33,
      "hit": false,
      "t": 102514.24299999743,
      "d": 167.85707291666768,
      "v": 110
    },
    {
      "midi": 33,
      "hit": false,
      "t": 102685.67149999742,
      "d": 82.14282291666314,
      "v": 110
    },
    {
      "midi": 61,
      "hit": false,
      "t": 102685.6714999997,
      "d": 167.85707291666768,
      "v": 110
    },
    {
      "midi": 64,
      "hit": false,
      "t": 102685.6714999997,
      "d": 167.85707291666768,
      "v": 110
    },
    {
      "midi": 68,
      "hit": false,
      "t": 102685.6714999997,
      "d": 167.85707291666768,
      "v": 110
    },
    {
      "midi": 33,
      "hit": false,
      "t": 102771.38574999741,
      "d": 82.14282291666314,
      "v": 110
    },
    {
      "midi": 33,
      "hit": false,
      "t": 102857.0999999974,
      "d": 167.85707291666768,
      "v": 110
    },
    {
      "midi": 33,
      "hit": false,
      "t": 103028.5284999974,
      "d": 82.14282291666314,
      "v": 110
    },
    {
      "midi": 59,
      "hit": false,
      "t": 103028.52849999971,
      "d": 167.85707291666768,
      "v": 110
    },
    {
      "midi": 63,
      "hit": false,
      "t": 103028.52849999971,
      "d": 167.85707291666768,
      "v": 110
    },
    {
      "midi": 66,
      "hit": false,
      "t": 103028.52849999971,
      "d": 167.85707291666768,
      "v": 110
    },
    {
      "midi": 33,
      "hit": false,
      "t": 103114.24274999739,
      "d": 82.14282291666314,
      "v": 110
    },
    {
      "midi": 33,
      "hit": false,
      "t": 103199.95699999738,
      "d": 167.85707291666768,
      "v": 110
    },
    {
      "midi": 33,
      "hit": false,
      "t": 103371.38549999737,
      "d": 82.14282291666314,
      "v": 110
    },
    {
      "midi": 61,
      "hit": false,
      "t": 103371.38549999971,
      "d": 167.85707291666768,
      "v": 110
    },
    {
      "midi": 64,
      "hit": false,
      "t": 103371.38549999971,
      "d": 167.85707291666768,
      "v": 110
    },
    {
      "midi": 57,
      "hit": false,
      "t": 103371.38550000005,
      "d": 167.85707291666768,
      "v": 110
    },
    {
      "midi": 33,
      "hit": false,
      "t": 103457.09974999736,
      "d": 82.14282291666314,
      "v": 110
    },
    {
      "midi": 33,
      "hit": false,
      "t": 103542.81399999735,
      "d": 167.85707291666768,
      "v": 110
    },
    {
      "midi": 33,
      "hit": false,
      "t": 103714.24249999734,
      "d": 82.14282291666314,
      "v": 110
    },
    {
      "midi": 59,
      "hit": false,
      "t": 103714.24249999972,
      "d": 167.85707291666768,
      "v": 110
    },
    {
      "midi": 63,
      "hit": false,
      "t": 103714.24249999972,
      "d": 167.85707291666768,
      "v": 110
    },
    {
      "midi": 66,
      "hit": false,
      "t": 103714.24249999972,
      "d": 167.85707291666768,
      "v": 110
    },
    {
      "midi": 33,
      "hit": false,
      "t": 103799.95674999733,
      "d": 82.14282291666314,
      "v": 110
    },
    {
      "midi": 33,
      "hit": false,
      "t": 103885.67099999732,
      "d": 167.85707291666768,
      "v": 110
    },
    {
      "midi": 33,
      "hit": false,
      "t": 104057.09949999732,
      "d": 82.14282291666314,
      "v": 110
    },
    {
      "midi": 33,
      "hit": false,
      "t": 104142.81374999731,
      "d": 82.14282291666314,
      "v": 110
    },
    {
      "midi": 35,
      "hit": false,
      "t": 104228.5279999973,
      "d": 167.85707291666768,
      "v": 110
    },
    {
      "midi": 35,
      "hit": false,
      "t": 104399.9564999973,
      "d": 82.14282291666314,
      "v": 110
    },
    {
      "midi": 63,
      "hit": false,
      "t": 104399.95649999972,
      "d": 82.14282291666314,
      "v": 110
    },
    {
      "midi": 66,
      "hit": false,
      "t": 104399.95649999972,
      "d": 82.14282291666314,
      "v": 110
    },
    {
      "midi": 35,
      "hit": false,
      "t": 104485.67074999728,
      "d": 82.14282291666314,
      "v": 110
    },
    {
      "midi": 63,
      "hit": false,
      "t": 104485.67074999971,
      "d": 82.14282291666314,
      "v": 110
    },
    {
      "midi": 66,
      "hit": false,
      "t": 104485.67074999971,
      "d": 82.14282291666314,
      "v": 110
    },
    {
      "midi": 35,
      "hit": false,
      "t": 104571.38499999727,
      "d": 167.85707291666768,
      "v": 110
    },
    {
      "midi": 63,
      "hit": false,
      "t": 104571.3849999997,
      "d": 167.85707291666768,
      "v": 110
    },
    {
      "midi": 66,
      "hit": false,
      "t": 104571.3849999997,
      "d": 167.85707291666768,
      "v": 110
    },
    {
      "midi": 35,
      "hit": false,
      "t": 104742.81349999727,
      "d": 82.14282291666314,
      "v": 110
    },
    {
      "midi": 63,
      "hit": false,
      "t": 104742.8134999997,
      "d": 82.14282291666314,
      "v": 110
    },
    {
      "midi": 66,
      "hit": false,
      "t": 104742.8134999997,
      "d": 82.14282291666314,
      "v": 110
    },
    {
      "midi": 35,
      "hit": false,
      "t": 104828.52774999726,
      "d": 82.14282291666314,
      "v": 110
    },
    {
      "midi": 63,
      "hit": false,
      "t": 104828.52774999969,
      "d": 82.14282291666314,
      "v": 110
    },
    {
      "midi": 66,
      "hit": false,
      "t": 104828.52774999969,
      "d": 82.14282291666314,
      "v": 110
    },
    {
      "midi": 35,
      "hit": false,
      "t": 104914.24199999725,
      "d": 167.85707291666768,
      "v": 110
    },
    {
      "midi": 63,
      "hit": false,
      "t": 104914.24199999968,
      "d": 167.85707291666768,
      "v": 110
    },
    {
      "midi": 66,
      "hit": false,
      "t": 104914.24199999968,
      "d": 167.85707291666768,
      "v": 110
    },
    {
      "midi": 35,
      "hit": false,
      "t": 105085.67049999724,
      "d": 82.14282291666314,
      "v": 110
    },
    {
      "midi": 59,
      "hit": false,
      "t": 105085.67049999967,
      "d": 167.85707291666768,
      "v": 110
    },
    {
      "midi": 63,
      "hit": false,
      "t": 105085.67049999967,
      "d": 167.85707291666768,
      "v": 110
    },
    {
      "midi": 35,
      "hit": false,
      "t": 105171.38474999723,
      "d": 82.14282291666314,
      "v": 110
    },
    {
      "midi": 35,
      "hit": false,
      "t": 105257.09899999722,
      "d": 167.85707291666768,
      "v": 110
    },
    {
      "midi": 35,
      "hit": false,
      "t": 105428.52749999722,
      "d": 82.14282291666314,
      "v": 110
    },
    {
      "midi": 59,
      "hit": false,
      "t": 105428.52749999968,
      "d": 167.85707291666768,
      "v": 110
    },
    {
      "midi": 64,
      "hit": false,
      "t": 105428.52749999968,
      "d": 167.85707291666768,
      "v": 110
    },
    {
      "midi": 68,
      "hit": false,
      "t": 105428.52749999968,
      "d": 167.85707291666768,
      "v": 110
    },
    {
      "midi": 35,
      "hit": false,
      "t": 105514.2417499972,
      "d": 82.14282291666314,
      "v": 110
    },
    {
      "midi": 35,
      "hit": false,
      "t": 105599.9559999972,
      "d": 167.85707291666768,
      "v": 110
    },
    {
      "midi": 35,
      "hit": false,
      "t": 105771.38449999719,
      "d": 82.14282291666314,
      "v": 110
    },
    {
      "midi": 59,
      "hit": false,
      "t": 105771.38449999968,
      "d": 167.85707291666768,
      "v": 110
    },
    {
      "midi": 63,
      "hit": false,
      "t": 105771.38449999968,
      "d": 167.85707291666768,
      "v": 110
    },
    {
      "midi": 66,
      "hit": false,
      "t": 105771.38449999968,
      "d": 167.85707291666768,
      "v": 110
    },
    {
      "midi": 35,
      "hit": false,
      "t": 105857.09874999718,
      "d": 82.14282291666314,
      "v": 110
    },
    {
      "midi": 35,
      "hit": false,
      "t": 105942.81299999717,
      "d": 167.85707291666768,
      "v": 110
    },
    {
      "midi": 35,
      "hit": false,
      "t": 106114.24149999717,
      "d": 82.14282291666314,
      "v": 110
    },
    {
      "midi": 61,
      "hit": false,
      "t": 106114.24149999968,
      "d": 167.85707291666768,
      "v": 110
    },
    {
      "midi": 64,
      "hit": false,
      "t": 106114.24149999968,
      "d": 167.85707291666768,
      "v": 110
    },
    {
      "midi": 57,
      "hit": false,
      "t": 106114.24150000005,
      "d": 167.85707291666768,
      "v": 110
    },
    {
      "midi": 35,
      "hit": false,
      "t": 106199.95574999716,
      "d": 82.14282291666314,
      "v": 110
    },
    {
      "midi": 35,
      "hit": false,
      "t": 106285.66999999715,
      "d": 167.85707291666768,
      "v": 110
    },
    {
      "midi": 35,
      "hit": false,
      "t": 106457.09849999714,
      "d": 82.14282291666314,
      "v": 110
    },
    {
      "midi": 59,
      "hit": false,
      "t": 106457.09849999969,
      "d": 167.85707291666768,
      "v": 110
    },
    {
      "midi": 63,
      "hit": false,
      "t": 106457.09849999969,
      "d": 167.85707291666768,
      "v": 110
    },
    {
      "midi": 54,
      "hit": false,
      "t": 106457.09850000005,
      "d": 167.85707291666768,
      "v": 110
    },
    {
      "midi": 35,
      "hit": false,
      "t": 106542.81274999713,
      "d": 82.14282291666314,
      "v": 110
    },
    {
      "midi": 35,
      "hit": false,
      "t": 106628.52699999712,
      "d": 167.85707291666768,
      "v": 110
    },
    {
      "midi": 35,
      "hit": false,
      "t": 106799.95549999712,
      "d": 82.14282291666314,
      "v": 110
    },
    {
      "midi": 61,
      "hit": false,
      "t": 106799.95549999969,
      "d": 167.85707291666768,
      "v": 110
    },
    {
      "midi": 49,
      "hit": false,
      "t": 106799.95550000005,
      "d": 167.85707291666768,
      "v": 110
    },
    {
      "midi": 56,
      "hit": false,
      "t": 106799.95550000005,
      "d": 167.85707291666768,
      "v": 110
    },
    {
      "midi": 35,
      "hit": false,
      "t": 106885.6697499971,
      "d": 82.14282291666314,
      "v": 110
    },
    {
      "midi": 37,
      "hit": false,
      "t": 106971.3839999971,
      "d": 167.85707291666768,
      "v": 110
    },
    {
      "midi": 37,
      "hit": false,
      "t": 107142.81249999709,
      "d": 82.14282291666314,
      "v": 110
    },
    {
      "midi": 61,
      "hit": false,
      "t": 107142.8124999997,
      "d": 167.85707291666768,
      "v": 110
    },
    {
      "midi": 37,
      "hit": false,
      "t": 107228.52674999708,
      "d": 82.14282291666314,
      "v": 110
    },
    {
      "midi": 37,
      "hit": false,
      "t": 107314.24099999707,
      "d": 167.85707291666768,
      "v": 110
    },
    {
      "midi": 68,
      "hit": false,
      "t": 107314.24099999969,
      "d": 285.7141666666721,
      "v": 110
    },
    {
      "midi": 37,
      "hit": false,
      "t": 107485.66949999706,
      "d": 82.14282291666314,
      "v": 110
    },
    {
      "midi": 71,
      "hit": false,
      "t": 107485.66949999987,
      "d": 167.85707291666768,
      "v": 110
    },
    {
      "midi": 37,
      "hit": false,
      "t": 107571.38374999705,
      "d": 82.14282291666314,
      "v": 110
    },
    {
      "midi": 37,
      "hit": false,
      "t": 107657.09799999704,
      "d": 167.85707291666768,
      "v": 110
    },
    {
      "midi": 70,
      "hit": false,
      "t": 107657.09799999987,
      "d": 599.9997500000027,
      "v": 110
    },
    {
      "midi": 37,
      "hit": false,
      "t": 107828.52649999704,
      "d": 82.14282291666314,
      "v": 110
    },
    {
      "midi": 37,
      "hit": false,
      "t": 107914.24074999703,
      "d": 82.14282291666314,
      "v": 110
    },
    {
      "midi": 37,
      "hit": false,
      "t": 107999.95499999702,
      "d": 167.85707291666768,
      "v": 110
    },
    {
      "midi": 37,
      "hit": false,
      "t": 108171.38349999701,
      "d": 82.14282291666314,
      "v": 110
    },
    {
      "midi": 61,
      "hit": false,
      "t": 108171.38349999969,
      "d": 167.85707291666768,
      "v": 110
    },
    {
      "midi": 37,
      "hit": false,
      "t": 108257.097749997,
      "d": 82.14282291666314,
      "v": 110
    },
    {
      "midi": 37,
      "hit": false,
      "t": 108342.811999997,
      "d": 167.85707291666768,
      "v": 110
    },
    {
      "midi": 37,
      "hit": false,
      "t": 108514.24049999699,
      "d": 82.14282291666314,
      "v": 110
    },
    {
      "midi": 61,
      "hit": false,
      "t": 108514.2404999997,
      "d": 167.85707291666768,
      "v": 110
    },
    {
      "midi": 37,
      "hit": false,
      "t": 108599.95474999698,
      "d": 82.14282291666314,
      "v": 110
    },
    {
      "midi": 37,
      "hit": false,
      "t": 108685.66899999697,
      "d": 167.85707291666768,
      "v": 110
    },
    {
      "midi": 68,
      "hit": false,
      "t": 108685.66899999969,
      "d": 285.7141666666721,
      "v": 110
    },
    {
      "midi": 37,
      "hit": false,
      "t": 108857.09749999696,
      "d": 82.14282291666314,
      "v": 110
    },
    {
      "midi": 71,
      "hit": false,
      "t": 108857.09749999987,
      "d": 167.85707291666768,
      "v": 110
    },
    {
      "midi": 37,
      "hit": false,
      "t": 108942.81174999695,
      "d": 82.14282291666314,
      "v": 110
    },
    {
      "midi": 37,
      "hit": false,
      "t": 109028.52599999694,
      "d": 167.85707291666768,
      "v": 110
    },
    {
      "midi": 70,
      "hit": false,
      "t": 109028.52599999987,
      "d": 285.7141666666721,
      "v": 110
    },
    {
      "midi": 37,
      "hit": false,
      "t": 109199.95449999694,
      "d": 82.14282291666314,
      "v": 110
    },
    {
      "midi": 37,
      "hit": false,
      "t": 109285.66874999693,
      "d": 82.14282291666314,
      "v": 110
    },
    {
      "midi": 37,
      "hit": false,
      "t": 109371.38299999692,
      "d": 167.85707291666768,
      "v": 110
    },
    {
      "midi": 71,
      "hit": false,
      "t": 109371.38299999987,
      "d": 167.85707291666768,
      "v": 110
    },
    {
      "midi": 37,
      "hit": false,
      "t": 109542.81149999691,
      "d": 82.14282291666314,
      "v": 110
    },
    {
      "midi": 73,
      "hit": false,
      "t": 109542.81149999987,
      "d": 1114.2852500000008,
      "v": 110
    },
    {
      "midi": 38,
      "hit": false,
      "t": 109628.5257499969,
      "d": 82.14282291666314,
      "v": 110
    },
    {
      "midi": 38,
      "hit": false,
      "t": 109714.23999999689,
      "d": 167.85707291666768,
      "v": 110
    },
    {
      "midi": 38,
      "hit": false,
      "t": 109885.66849999689,
      "d": 82.14282291666314,
      "v": 110
    },
    {
      "midi": 38,
      "hit": false,
      "t": 109971.38274999688,
      "d": 82.14282291666314,
      "v": 110
    },
    {
      "midi": 38,
      "hit": false,
      "t": 110057.09699999687,
      "d": 167.85707291666768,
      "v": 110
    },
    {
      "midi": 38,
      "hit": false,
      "t": 110228.52549999686,
      "d": 82.14282291666314,
      "v": 110
    },
    {
      "midi": 38,
      "hit": false,
      "t": 110314.23974999685,
      "d": 82.14282291666314,
      "v": 110
    },
    {
      "midi": 38,
      "hit": false,
      "t": 110399.95399999684,
      "d": 167.85707291666768,
      "v": 110
    },
    {
      "midi": 38,
      "hit": false,
      "t": 110571.38249999683,
      "d": 82.14282291666314,
      "v": 110
    },
    {
      "midi": 38,
      "hit": false,
      "t": 110657.09674999682,
      "d": 82.14282291666314,
      "v": 110
    },
    {
      "midi": 38,
      "hit": false,
      "t": 110742.81099999681,
      "d": 167.85707291666768,
      "v": 110
    },
    {
      "midi": 71,
      "hit": false,
      "t": 110742.81099999987,
      "d": 167.85707291666768,
      "v": 110
    },
    {
      "midi": 38,
      "hit": false,
      "t": 110914.23949999681,
      "d": 82.14282291666314,
      "v": 110
    },
    {
      "midi": 76,
      "hit": false,
      "t": 110914.23949999987,
      "d": 339.2855729166622,
      "v": 110
    },
    {
      "midi": 38,
      "hit": false,
      "t": 110999.9537499968,
      "d": 82.14282291666314,
      "v": 110
    },
    {
      "midi": 38,
      "hit": false,
      "t": 111085.66799999679,
      "d": 167.85707291666768,
      "v": 110
    },
    {
      "midi": 38,
      "hit": false,
      "t": 111257.09649999678,
      "d": 82.14282291666314,
      "v": 110
    },
    {
      "midi": 73,
      "hit": false,
      "t": 111257.09649999985,
      "d": 339.2855729166622,
      "v": 110
    },
    {
      "midi": 38,
      "hit": false,
      "t": 111342.81074999677,
      "d": 82.14282291666314,
      "v": 110
    },
    {
      "midi": 38,
      "hit": false,
      "t": 111428.52499999676,
      "d": 167.85707291666768,
      "v": 110
    },
    {
      "midi": 38,
      "hit": false,
      "t": 111599.95349999676,
      "d": 82.14282291666314,
      "v": 110
    },
    {
      "midi": 71,
      "hit": false,
      "t": 111599.95349999984,
      "d": 339.2855729166622,
      "v": 110
    },
    {
      "midi": 38,
      "hit": false,
      "t": 111685.66774999675,
      "d": 82.14282291666314,
      "v": 110
    },
    {
      "midi": 38,
      "hit": false,
      "t": 111771.38199999674,
      "d": 167.85707291666768,
      "v": 110
    },
    {
      "midi": 38,
      "hit": false,
      "t": 111942.81049999673,
      "d": 82.14282291666314,
      "v": 110
    },
    {
      "midi": 73,
      "hit": false,
      "t": 111942.81049999983,
      "d": 457.1426666666666,
      "v": 110
    },
    {
      "midi": 38,
      "hit": false,
      "t": 112028.52474999672,
      "d": 82.14282291666314,
      "v": 110
    },
    {
      "midi": 38,
      "hit": false,
      "t": 112114.23899999671,
      "d": 167.85707291666768,
      "v": 110
    },
    {
      "midi": 38,
      "hit": false,
      "t": 112285.6674999967,
      "d": 82.14282291666314,
      "v": 110
    },
    {
      "midi": 38,
      "hit": false,
      "t": 112371.3817499967,
      "d": 82.14282291666314,
      "v": 110
    },
    {
      "midi": 37,
      "hit": false,
      "t": 112457.09599999669,
      "d": 167.85707291666768,
      "v": 110
    },
    {
      "midi": 71,
      "hit": false,
      "t": 112457.09599999983,
      "d": 599.9997500000027,
      "v": 110
    },
    {
      "midi": 37,
      "hit": false,
      "t": 112628.52449999668,
      "d": 82.14282291666314,
      "v": 110
    },
    {
      "midi": 37,
      "hit": false,
      "t": 112714.23874999667,
      "d": 82.14282291666314,
      "v": 110
    },
    {
      "midi": 37,
      "hit": false,
      "t": 112799.95299999666,
      "d": 167.85707291666768,
      "v": 110
    },
    {
      "midi": 37,
      "hit": false,
      "t": 112971.38149999666,
      "d": 82.14282291666314,
      "v": 110
    },
    {
      "midi": 37,
      "hit": false,
      "t": 113057.09574999665,
      "d": 82.14282291666314,
      "v": 110
    },
    {
      "midi": 37,
      "hit": false,
      "t": 113142.80999999664,
      "d": 167.85707291666768,
      "v": 110
    },
    {
      "midi": 71,
      "hit": false,
      "t": 113142.80999999984,
      "d": 167.85707291666768,
      "v": 110
    },
    {
      "midi": 37,
      "hit": false,
      "t": 113314.23849999663,
      "d": 82.14282291666314,
      "v": 110
    },
    {
      "midi": 73,
      "hit": false,
      "t": 113314.23849999983,
      "d": 457.1426666666666,
      "v": 110
    },
    {
      "midi": 37,
      "hit": false,
      "t": 113399.95274999662,
      "d": 82.14282291666314,
      "v": 110
    },
    {
      "midi": 37,
      "hit": false,
      "t": 113485.66699999661,
      "d": 167.85707291666768,
      "v": 110
    },
    {
      "midi": 37,
      "hit": false,
      "t": 113657.0954999966,
      "d": 82.14282291666314,
      "v": 110
    },
    {
      "midi": 37,
      "hit": false,
      "t": 113742.8097499966,
      "d": 82.14282291666314,
      "v": 110
    },
    {
      "midi": 37,
      "hit": false,
      "t": 113828.52399999659,
      "d": 167.85707291666768,
      "v": 110
    },
    {
      "midi": 68,
      "hit": false,
      "t": 113828.5239999997,
      "d": 285.7141666666721,
      "v": 110
    },
    {
      "midi": 37,
      "hit": false,
      "t": 113999.95249999658,
      "d": 82.14282291666314,
      "v": 110
    },
    {
      "midi": 69,
      "hit": false,
      "t": 113999.95249999984,
      "d": 167.85707291666768,
      "v": 110
    },
    {
      "midi": 37,
      "hit": false,
      "t": 114085.66674999657,
      "d": 82.14282291666314,
      "v": 110
    },
    {
      "midi": 37,
      "hit": false,
      "t": 114171.38099999656,
      "d": 167.85707291666768,
      "v": 110
    },
    {
      "midi": 68,
      "hit": false,
      "t": 114171.3809999997,
      "d": 167.85707291666768,
      "v": 110
    },
    {
      "midi": 37,
      "hit": false,
      "t": 114342.80949999655,
      "d": 82.14282291666314,
      "v": 110
    },
    {
      "midi": 64,
      "hit": false,
      "t": 114342.8094999997,
      "d": 167.85707291666768,
      "v": 110
    },
    {
      "midi": 37,
      "hit": false,
      "t": 114428.52374999654,
      "d": 82.14282291666314,
      "v": 110
    },
    {
      "midi": 37,
      "hit": false,
      "t": 114514.23799999653,
      "d": 167.85707291666768,
      "v": 110
    },
    {
      "midi": 37,
      "hit": false,
      "t": 114685.66649999653,
      "d": 82.14282291666314,
      "v": 110
    },
    {
      "midi": 64,
      "hit": false,
      "t": 114685.6664999997,
      "d": 167.85707291666768,
      "v": 110
    },
    {
      "midi": 37,
      "hit": false,
      "t": 114771.38074999652,
      "d": 82.14282291666314,
      "v": 110
    },
    {
      "midi": 37,
      "hit": false,
      "t": 114857.09499999651,
      "d": 167.85707291666768,
      "v": 110
    },
    {
      "midi": 68,
      "hit": false,
      "t": 114857.0949999997,
      "d": 285.7141666666721,
      "v": 110
    },
    {
      "midi": 37,
      "hit": false,
      "t": 115028.5234999965,
      "d": 82.14282291666314,
      "v": 110
    },
    {
      "midi": 71,
      "hit": false,
      "t": 115028.52349999984,
      "d": 167.85707291666768,
      "v": 110
    },
    {
      "midi": 38,
      "hit": false,
      "t": 115114.2377499965,
      "d": 82.14282291666314,
      "v": 110
    },
    {
      "midi": 38,
      "hit": false,
      "t": 115199.95199999648,
      "d": 167.85707291666768,
      "v": 110
    },
    {
      "midi": 73,
      "hit": false,
      "t": 115199.95199999983,
      "d": 942.8567500000063,
      "v": 110
    },
    {
      "midi": 38,
      "hit": false,
      "t": 115371.38049999648,
      "d": 82.14282291666314,
      "v": 110
    },
    {
      "midi": 38,
      "hit": false,
      "t": 115457.09474999647,
      "d": 82.14282291666314,
      "v": 110
    },
    {
      "midi": 38,
      "hit": false,
      "t": 115542.80899999646,
      "d": 167.85707291666768,
      "v": 110
    },
    {
      "midi": 38,
      "hit": false,
      "t": 115714.23749999645,
      "d": 82.14282291666314,
      "v": 110
    },
    {
      "midi": 38,
      "hit": false,
      "t": 115799.95174999644,
      "d": 82.14282291666314,
      "v": 110
    },
    {
      "midi": 38,
      "hit": false,
      "t": 115885.66599999643,
      "d": 167.85707291666768,
      "v": 110
    },
    {
      "midi": 38,
      "hit": false,
      "t": 116057.09449999643,
      "d": 82.14282291666314,
      "v": 110
    },
    {
      "midi": 38,
      "hit": false,
      "t": 116142.80874999642,
      "d": 82.14282291666314,
      "v": 110
    },
    {
      "midi": 38,
      "hit": false,
      "t": 116228.5229999964,
      "d": 167.85707291666768,
      "v": 110
    },
    {
      "midi": 71,
      "hit": false,
      "t": 116228.52299999984,
      "d": 167.85707291666768,
      "v": 110
    },
    {
      "midi": 38,
      "hit": false,
      "t": 116399.9514999964,
      "d": 82.14282291666314,
      "v": 110
    },
    {
      "midi": 76,
      "hit": false,
      "t": 116399.95149999984,
      "d": 339.2855729166622,
      "v": 110
    },
    {
      "midi": 38,
      "hit": false,
      "t": 116485.66574999639,
      "d": 82.14282291666314,
      "v": 110
    },
    {
      "midi": 38,
      "hit": false,
      "t": 116571.37999999638,
      "d": 167.85707291666768,
      "v": 110
    },
    {
      "midi": 38,
      "hit": false,
      "t": 116742.80849999638,
      "d": 82.14282291666314,
      "v": 110
    },
    {
      "midi": 73,
      "hit": false,
      "t": 116742.80849999982,
      "d": 339.2855729166622,
      "v": 110
    },
    {
      "midi": 38,
      "hit": false,
      "t": 116828.52274999637,
      "d": 82.14282291666314,
      "v": 110
    },
    {
      "midi": 38,
      "hit": false,
      "t": 116914.23699999636,
      "d": 167.85707291666768,
      "v": 110
    },
    {
      "midi": 38,
      "hit": false,
      "t": 117085.66549999635,
      "d": 82.14282291666314,
      "v": 110
    },
    {
      "midi": 71,
      "hit": false,
      "t": 117085.66549999981,
      "d": 339.2855729166622,
      "v": 110
    },
    {
      "midi": 38,
      "hit": false,
      "t": 117171.37974999634,
      "d": 82.14282291666314,
      "v": 110
    },
    {
      "midi": 38,
      "hit": false,
      "t": 117257.09399999633,
      "d": 167.85707291666768,
      "v": 110
    },
    {
      "midi": 38,
      "hit": false,
      "t": 117428.52249999632,
      "d": 82.14282291666314,
      "v": 110
    },
    {
      "midi": 73,
      "hit": false,
      "t": 117428.5224999998,
      "d": 339.2855729166622,
      "v": 110
    },
    {
      "midi": 38,
      "hit": false,
      "t": 117514.23674999631,
      "d": 82.14282291666314,
      "v": 110
    },
    {
      "midi": 38,
      "hit": false,
      "t": 117599.9509999963,
      "d": 167.85707291666768,
      "v": 110
    },
    {
      "midi": 38,
      "hit": false,
      "t": 117771.3794999963,
      "d": 82.14282291666314,
      "v": 110
    },
    {
      "midi": 71,
      "hit": false,
      "t": 117771.37949999979,
      "d": 771.4282499999972,
      "v": 110
    },
    {
      "midi": 38,
      "hit": false,
      "t": 117857.09374999629,
      "d": 82.14282291666314,
      "v": 110
    },
    {
      "midi": 35,
      "hit": false,
      "t": 117942.80799999628,
      "d": 167.85707291666768,
      "v": 110
    },
    {
      "midi": 35,
      "hit": false,
      "t": 118114.23649999627,
      "d": 82.14282291666314,
      "v": 110
    },
    {
      "midi": 35,
      "hit": false,
      "t": 118199.95074999626,
      "d": 82.14282291666314,
      "v": 110
    },
    {
      "midi": 35,
      "hit": false,
      "t": 118285.66499999625,
      "d": 167.85707291666768,
      "v": 110
    },
    {
      "midi": 35,
      "hit": false,
      "t": 118457.09349999625,
      "d": 82.14282291666314,
      "v": 110
    },
    {
      "midi": 35,
      "hit": false,
      "t": 118542.80774999624,
      "d": 82.14282291666314,
      "v": 110
    },
    {
      "midi": 35,
      "hit": false,
      "t": 118628.52199999623,
      "d": 167.85707291666768,
      "v": 110
    },
    {
      "midi": 71,
      "hit": false,
      "t": 118628.5219999998,
      "d": 285.7141666666721,
      "v": 110
    },
    {
      "midi": 35,
      "hit": false,
      "t": 118799.95049999622,
      "d": 82.14282291666314,
      "v": 110
    },
    {
      "midi": 68,
      "hit": false,
      "t": 118799.9504999997,
      "d": 167.85707291666768,
      "v": 110
    },
    {
      "midi": 35,
      "hit": false,
      "t": 118885.66474999621,
      "d": 82.14282291666314,
      "v": 110
    },
    {
      "midi": 35,
      "hit": false,
      "t": 118971.3789999962,
      "d": 167.85707291666768,
      "v": 110
    },
    {
      "midi": 71,
      "hit": false,
      "t": 118971.3789999998,
      "d": 167.85707291666768,
      "v": 110
    },
    {
      "midi": 35,
      "hit": false,
      "t": 119142.8074999962,
      "d": 82.14282291666314,
      "v": 110
    },
    {
      "midi": 72,
      "hit": false,
      "t": 119142.80749999979,
      "d": 167.85707291666768,
      "v": 110
    },
    {
      "midi": 32,
      "hit": false,
      "t": 119228.52174999619,
      "d": 82.14282291666314,
      "v": 110
    },
    {
      "midi": 32,
      "hit": false,
      "t": 119314.23599999618,
      "d": 167.85707291666768,
      "v": 110
    },
    {
      "midi": 32,
      "hit": false,
      "t": 119485.66449999617,
      "d": 82.14282291666314,
      "v": 110
    },
    {
      "midi": 72,
      "hit": false,
      "t": 119485.6644999998,
      "d": 167.85707291666768,
      "v": 110
    },
    {
      "midi": 32,
      "hit": false,
      "t": 119571.37874999616,
      "d": 82.14282291666314,
      "v": 110
    },
    {
      "midi": 32,
      "hit": false,
      "t": 119657.09299999615,
      "d": 167.85707291666768,
      "v": 110
    },
    {
      "midi": 72,
      "hit": false,
      "t": 119657.09299999979,
      "d": 167.85707291666768,
      "v": 110
    },
    {
      "midi": 32,
      "hit": false,
      "t": 119828.52149999615,
      "d": 82.14282291666314,
      "v": 110
    },
    {
      "midi": 75,
      "hit": false,
      "t": 119828.52149999978,
      "d": 167.85707291666768,
      "v": 110
    },
    {
      "midi": 32,
      "hit": false,
      "t": 119914.23574999614,
      "d": 82.14282291666314,
      "v": 110
    },
    {
      "midi": 32,
      "hit": false,
      "t": 119999.94999999613,
      "d": 167.85707291666768,
      "v": 110
    },
    {
      "midi": 80,
      "hit": false,
      "t": 119999.94999999978,
      "d": 599.9997500000027,
      "v": 110
    },
    {
      "midi": 32,
      "hit": false,
      "t": 120171.37849999612,
      "d": 82.14282291666314,
      "v": 110
    },
    {
      "midi": 32,
      "hit": false,
      "t": 120257.09274999611,
      "d": 82.14282291666314,
      "v": 110
    },
    {
      "midi": 32,
      "hit": false,
      "t": 120342.8069999961,
      "d": 167.85707291666768,
      "v": 110
    },
    {
      "midi": 32,
      "hit": false,
      "t": 120514.2354999961,
      "d": 82.14282291666314,
      "v": 110
    },
    {
      "midi": 32,
      "hit": false,
      "t": 120599.94974999609,
      "d": 82.14282291666314,
      "v": 110
    },
    {
      "midi": 37,
      "hit": false,
      "t": 120685.66399999608,
      "d": 167.85707291666768,
      "v": 110
    },
    {
      "midi": 56,
      "hit": false,
      "t": 120685.66400000006,
      "d": 942.8567500000063,
      "v": 110
    },
    {
      "midi": 37,
      "hit": false,
      "t": 120857.09249999607,
      "d": 82.14282291666314,
      "v": 110
    },
    {
      "midi": 64,
      "hit": false,
      "t": 120857.09249999971,
      "d": 82.14282291666314,
      "v": 110
    },
    {
      "midi": 37,
      "hit": false,
      "t": 120942.80674999606,
      "d": 82.14282291666314,
      "v": 110
    },
    {
      "midi": 64,
      "hit": false,
      "t": 120942.8067499997,
      "d": 82.14282291666314,
      "v": 110
    },
    {
      "midi": 37,
      "hit": false,
      "t": 121028.52099999605,
      "d": 167.85707291666768,
      "v": 110
    },
    {
      "midi": 64,
      "hit": false,
      "t": 121028.52099999969,
      "d": 167.85707291666768,
      "v": 110
    },
    {
      "midi": 37,
      "hit": false,
      "t": 121199.94949999604,
      "d": 82.14282291666314,
      "v": 110
    },
    {
      "midi": 64,
      "hit": false,
      "t": 121199.94949999968,
      "d": 82.14282291666314,
      "v": 110
    },
    {
      "midi": 37,
      "hit": false,
      "t": 121285.66374999603,
      "d": 82.14282291666314,
      "v": 110
    },
    {
      "midi": 64,
      "hit": false,
      "t": 121285.66374999967,
      "d": 82.14282291666314,
      "v": 110
    },
    {
      "midi": 37,
      "hit": false,
      "t": 121371.37799999602,
      "d": 167.85707291666768,
      "v": 110
    },
    {
      "midi": 64,
      "hit": false,
      "t": 121371.37799999966,
      "d": 167.85707291666768,
      "v": 110
    },
    {
      "midi": 37,
      "hit": false,
      "t": 121542.80649999602,
      "d": 82.14282291666314,
      "v": 110
    },
    {
      "midi": 61,
      "hit": false,
      "t": 121542.80649999966,
      "d": 167.85707291666768,
      "v": 110
    },
    {
      "midi": 37,
      "hit": false,
      "t": 121628.52074999601,
      "d": 82.14282291666314,
      "v": 110
    },
    {
      "midi": 37,
      "hit": false,
      "t": 121714.234999996,
      "d": 167.85707291666768,
      "v": 110
    },
    {
      "midi": 54,
      "hit": false,
      "t": 121714.23500000007,
      "d": 285.7141666666721,
      "v": 110
    },
    {
      "midi": 37,
      "hit": false,
      "t": 121885.663499996,
      "d": 82.14282291666314,
      "v": 110
    },
    {
      "midi": 59,
      "hit": false,
      "t": 121885.66349999966,
      "d": 82.14282291666314,
      "v": 110
    },
    {
      "midi": 61,
      "hit": false,
      "t": 121885.66349999966,
      "d": 82.14282291666314,
      "v": 110
    },
    {
      "midi": 37,
      "hit": false,
      "t": 121971.37774999598,
      "d": 82.14282291666314,
      "v": 110
    },
    {
      "midi": 61,
      "hit": false,
      "t": 121971.37774999965,
      "d": 82.14282291666314,
      "v": 110
    },
    {
      "midi": 37,
      "hit": false,
      "t": 122057.09199999597,
      "d": 167.85707291666768,
      "v": 110
    },
    {
      "midi": 64,
      "hit": false,
      "t": 122057.09199999964,
      "d": 167.85707291666768,
      "v": 110
    },
    {
      "midi": 37,
      "hit": false,
      "t": 122228.52049999597,
      "d": 82.14282291666314,
      "v": 110
    },
    {
      "midi": 64,
      "hit": false,
      "t": 122228.52049999963,
      "d": 82.14282291666314,
      "v": 110
    },
    {
      "midi": 57,
      "hit": false,
      "t": 122228.52050000009,
      "d": 339.2855729166622,
      "v": 110
    },
    {
      "midi": 37,
      "hit": false,
      "t": 122314.23474999596,
      "d": 82.14282291666314,
      "v": 110
    },
    {
      "midi": 64,
      "hit": false,
      "t": 122314.23474999962,
      "d": 82.14282291666314,
      "v": 110
    },
    {
      "midi": 37,
      "hit": false,
      "t": 122399.94899999595,
      "d": 167.85707291666768,
      "v": 110
    },
    {
      "midi": 64,
      "hit": false,
      "t": 122399.94899999961,
      "d": 167.85707291666768,
      "v": 110
    },
    {
      "midi": 37,
      "hit": false,
      "t": 122571.37749999594,
      "d": 82.14282291666314,
      "v": 110
    },
    {
      "midi": 61,
      "hit": false,
      "t": 122571.37749999961,
      "d": 167.85707291666768,
      "v": 110
    },
    {
      "midi": 56,
      "hit": false,
      "t": 122571.37750000008,
      "d": 339.2855729166622,
      "v": 110
    },
    {
      "midi": 37,
      "hit": false,
      "t": 122657.09174999593,
      "d": 82.14282291666314,
      "v": 110
    },
    {
      "midi": 37,
      "hit": false,
      "t": 122742.80599999592,
      "d": 167.85707291666768,
      "v": 110
    },
    {
      "midi": 37,
      "hit": false,
      "t": 122914.23449999592,
      "d": 82.14282291666314,
      "v": 110
    },
    {
      "midi": 68,
      "hit": false,
      "t": 122914.23449999961,
      "d": 167.85707291666768,
      "v": 110
    },
    {
      "midi": 57,
      "hit": false,
      "t": 122914.23450000006,
      "d": 339.2855729166622,
      "v": 110
    },
    {
      "midi": 37,
      "hit": false,
      "t": 122999.9487499959,
      "d": 82.14282291666314,
      "v": 110
    },
    {
      "midi": 35,
      "hit": false,
      "t": 123085.6629999959,
      "d": 167.85707291666768,
      "v": 110
    },
    {
      "midi": 66,
      "hit": false,
      "t": 123085.66299999961,
      "d": 167.85707291666768,
      "v": 110
    },
    {
      "midi": 35,
      "hit": false,
      "t": 123257.09149999589,
      "d": 82.14282291666314,
      "v": 110
    },
    {
      "midi": 68,
      "hit": false,
      "t": 123257.0914999996,
      "d": 167.85707291666768,
      "v": 110
    },
    {
      "midi": 56,
      "hit": false,
      "t": 123257.09150000005,
      "d": 1114.2852500000008,
      "v": 110
    },
    {
      "midi": 35,
      "hit": false,
      "t": 123342.80574999588,
      "d": 82.14282291666314,
      "v": 110
    },
    {
      "midi": 33,
      "hit": false,
      "t": 123428.51999999587,
      "d": 167.85707291666768,
      "v": 110
    },
    {
      "midi": 33,
      "hit": false,
      "t": 123599.94849999587,
      "d": 82.14282291666314,
      "v": 110
    },
    {
      "midi": 64,
      "hit": false,
      "t": 123599.9484999996,
      "d": 82.14282291666314,
      "v": 110
    },
    {
      "midi": 33,
      "hit": false,
      "t": 123685.66274999586,
      "d": 82.14282291666314,
      "v": 110
    },
    {
      "midi": 64,
      "hit": false,
      "t": 123685.6627499996,
      "d": 82.14282291666314,
      "v": 110
    },
    {
      "midi": 33,
      "hit": false,
      "t": 123771.37699999585,
      "d": 167.85707291666768,
      "v": 110
    },
    {
      "midi": 64,
      "hit": false,
      "t": 123771.37699999959,
      "d": 167.85707291666768,
      "v": 110
    },
    {
      "midi": 33,
      "hit": false,
      "t": 123942.80549999584,
      "d": 82.14282291666314,
      "v": 110
    },
    {
      "midi": 64,
      "hit": false,
      "t": 123942.80549999958,
      "d": 82.14282291666314,
      "v": 110
    },
    {
      "midi": 33,
      "hit": false,
      "t": 124028.51974999583,
      "d": 82.14282291666314,
      "v": 110
    },
    {
      "midi": 64,
      "hit": false,
      "t": 124028.51974999957,
      "d": 82.14282291666314,
      "v": 110
    },
    {
      "midi": 33,
      "hit": false,
      "t": 124114.23399999582,
      "d": 167.85707291666768,
      "v": 110
    },
    {
      "midi": 64,
      "hit": false,
      "t": 124114.23399999956,
      "d": 167.85707291666768,
      "v": 110
    },
    {
      "midi": 33,
      "hit": false,
      "t": 124285.66249999581,
      "d": 82.14282291666314,
      "v": 110
    },
    {
      "midi": 61,
      "hit": false,
      "t": 124285.66249999955,
      "d": 167.85707291666768,
      "v": 110
    },
    {
      "midi": 33,
      "hit": false,
      "t": 124371.3767499958,
      "d": 82.14282291666314,
      "v": 110
    },
    {
      "midi": 33,
      "hit": false,
      "t": 124457.0909999958,
      "d": 167.85707291666768,
      "v": 110
    },
    {
      "midi": 54,
      "hit": false,
      "t": 124457.09100000006,
      "d": 285.7141666666721,
      "v": 110
    },
    {
      "midi": 33,
      "hit": false,
      "t": 124628.51949999579,
      "d": 82.14282291666314,
      "v": 110
    },
    {
      "midi": 59,
      "hit": false,
      "t": 124628.51949999956,
      "d": 167.85707291666768,
      "v": 110
    },
    {
      "midi": 68,
      "hit": false,
      "t": 124628.51949999956,
      "d": 167.85707291666768,
      "v": 110
    },
    {
      "midi": 33,
      "hit": false,
      "t": 124714.23374999578,
      "d": 82.14282291666314,
      "v": 110
    },
    {
      "midi": 33,
      "hit": false,
      "t": 124799.94799999577,
      "d": 167.85707291666768,
      "v": 110
    },
    {
      "midi": 33,
      "hit": false,
      "t": 124971.37649999576,
      "d": 82.14282291666314,
      "v": 110
    },
    {
      "midi": 66,
      "hit": false,
      "t": 124971.37649999956,
      "d": 167.85707291666768,
      "v": 110
    },
    {
      "midi": 57,
      "hit": false,
      "t": 124971.37650000007,
      "d": 339.2855729166622,
      "v": 110
    },
    {
      "midi": 33,
      "hit": false,
      "t": 125057.09074999575,
      "d": 82.14282291666314,
      "v": 110
    },
    {
      "midi": 33,
      "hit": false,
      "t": 125142.80499999574,
      "d": 167.85707291666768,
      "v": 110
    },
    {
      "midi": 33,
      "hit": false,
      "t": 125314.23349999574,
      "d": 82.14282291666314,
      "v": 110
    },
    {
      "midi": 64,
      "hit": false,
      "t": 125314.23349999957,
      "d": 167.85707291666768,
      "v": 110
    },
    {
      "midi": 56,
      "hit": false,
      "t": 125314.23350000006,
      "d": 339.2855729166622,
      "v": 110
    },
    {
      "midi": 33,
      "hit": false,
      "t": 125399.94774999573,
      "d": 82.14282291666314,
      "v": 110
    },
    {
      "midi": 33,
      "hit": false,
      "t": 125485.66199999572,
      "d": 167.85707291666768,
      "v": 110
    },
    {
      "midi": 33,
      "hit": false,
      "t": 125657.09049999571,
      "d": 82.14282291666314,
      "v": 110
    },
    {
      "midi": 66,
      "hit": false,
      "t": 125657.09049999957,
      "d": 167.85707291666768,
      "v": 110
    },
    {
      "midi": 57,
      "hit": false,
      "t": 125657.09050000005,
      "d": 339.2855729166622,
      "v": 110
    },
    {
      "midi": 33,
      "hit": false,
      "t": 125742.8047499957,
      "d": 82.14282291666314,
      "v": 110
    },
    {
      "midi": 33,
      "hit": false,
      "t": 125828.5189999957,
      "d": 167.85707291666768,
      "v": 110
    },
    {
      "midi": 33,
      "hit": false,
      "t": 125999.94749999569,
      "d": 82.14282291666314,
      "v": 110
    },
    {
      "midi": 52,
      "hit": false,
      "t": 125999.94750000004,
      "d": 771.4282499999972,
      "v": 110
    },
    {
      "midi": 33,
      "hit": false,
      "t": 126085.66174999568,
      "d": 82.14282291666314,
      "v": 110
    },
    {
      "midi": 35,
      "hit": false,
      "t": 126171.37599999567,
      "d": 167.85707291666768,
      "v": 110
    },
    {
      "midi": 35,
      "hit": false,
      "t": 126342.80449999566,
      "d": 82.14282291666314,
      "v": 110
    },
    {
      "midi": 66,
      "hit": false,
      "t": 126342.80449999958,
      "d": 82.14282291666314,
      "v": 110
    },
    {
      "midi": 35,
      "hit": false,
      "t": 126428.51874999565,
      "d": 82.14282291666314,
      "v": 110
    },
    {
      "midi": 66,
      "hit": false,
      "t": 126428.51874999957,
      "d": 82.14282291666314,
      "v": 110
    },
    {
      "midi": 35,
      "hit": false,
      "t": 126514.23299999564,
      "d": 167.85707291666768,
      "v": 110
    },
    {
      "midi": 66,
      "hit": false,
      "t": 126514.23299999956,
      "d": 167.85707291666768,
      "v": 110
    },
    {
      "midi": 35,
      "hit": false,
      "t": 126685.66149999564,
      "d": 82.14282291666314,
      "v": 110
    },
    {
      "midi": 66,
      "hit": false,
      "t": 126685.66149999955,
      "d": 82.14282291666314,
      "v": 110
    },
    {
      "midi": 35,
      "hit": false,
      "t": 126771.37574999563,
      "d": 82.14282291666314,
      "v": 110
    },
    {
      "midi": 66,
      "hit": false,
      "t": 126771.37574999954,
      "d": 82.14282291666314,
      "v": 110
    },
    {
      "midi": 35,
      "hit": false,
      "t": 126857.08999999562,
      "d": 167.85707291666768,
      "v": 110
    },
    {
      "midi": 66,
      "hit": false,
      "t": 126857.08999999953,
      "d": 167.85707291666768,
      "v": 110
    },
    {
      "midi": 52,
      "hit": false,
      "t": 126857.09000000004,
      "d": 167.85707291666768,
      "v": 110
    },
    {
      "midi": 35,
      "hit": false,
      "t": 127028.51849999561,
      "d": 82.14282291666314,
      "v": 110
    },
    {
      "midi": 63,
      "hit": false,
      "t": 127028.51849999953,
      "d": 167.85707291666768,
      "v": 110
    },
    {
      "midi": 54,
      "hit": false,
      "t": 127028.51850000003,
      "d": 167.85707291666768,
      "v": 110
    },
    {
      "midi": 35,
      "hit": false,
      "t": 127114.2327499956,
      "d": 82.14282291666314,
      "v": 110
    },
    {
      "midi": 35,
      "hit": false,
      "t": 127199.94699999559,
      "d": 167.85707291666768,
      "v": 110
    },
    {
      "midi": 56,
      "hit": false,
      "t": 127199.94700000003,
      "d": 167.85707291666768,
      "v": 110
    },
    {
      "midi": 35,
      "hit": false,
      "t": 127371.37549999559,
      "d": 82.14282291666314,
      "v": 110
    },
    {
      "midi": 68,
      "hit": false,
      "t": 127371.37549999953,
      "d": 167.85707291666768,
      "v": 110
    },
    {
      "midi": 51,
      "hit": false,
      "t": 127371.37550000002,
      "d": 1457.1422500000044,
      "v": 110
    },
    {
      "midi": 35,
      "hit": false,
      "t": 127457.08974999558,
      "d": 82.14282291666314,
      "v": 110
    },
    {
      "midi": 35,
      "hit": false,
      "t": 127542.80399999557,
      "d": 167.85707291666768,
      "v": 110
    },
    {
      "midi": 35,
      "hit": false,
      "t": 127714.23249999556,
      "d": 82.14282291666314,
      "v": 110
    },
    {
      "midi": 66,
      "hit": false,
      "t": 127714.23249999953,
      "d": 167.85707291666768,
      "v": 110
    },
    {
      "midi": 35,
      "hit": false,
      "t": 127799.94674999555,
      "d": 82.14282291666314,
      "v": 110
    },
    {
      "midi": 35,
      "hit": false,
      "t": 127885.66099999554,
      "d": 167.85707291666768,
      "v": 110
    },
    {
      "midi": 35,
      "hit": false,
      "t": 128057.08949999553,
      "d": 82.14282291666314,
      "v": 110
    },
    {
      "midi": 64,
      "hit": false,
      "t": 128057.08949999954,
      "d": 167.85707291666768,
      "v": 110
    },
    {
      "midi": 35,
      "hit": false,
      "t": 128142.80374999552,
      "d": 82.14282291666314,
      "v": 110
    },
    {
      "midi": 35,
      "hit": false,
      "t": 128228.51799999551,
      "d": 167.85707291666768,
      "v": 110
    },
    {
      "midi": 35,
      "hit": false,
      "t": 128399.94649999551,
      "d": 82.14282291666314,
      "v": 110
    },
    {
      "midi": 63,
      "hit": false,
      "t": 128399.94649999954,
      "d": 167.85707291666768,
      "v": 110
    },
    {
      "midi": 35,
      "hit": false,
      "t": 128485.6607499955,
      "d": 82.14282291666314,
      "v": 110
    },
    {
      "midi": 35,
      "hit": false,
      "t": 128571.37499999549,
      "d": 167.85707291666768,
      "v": 110
    },
    {
      "midi": 35,
      "hit": false,
      "t": 128742.80349999548,
      "d": 82.14282291666314,
      "v": 110
    },
    {
      "midi": 61,
      "hit": false,
      "t": 128742.80349999954,
      "d": 167.85707291666768,
      "v": 110
    },
    {
      "midi": 35,
      "hit": false,
      "t": 128828.51774999547,
      "d": 82.14282291666314,
      "v": 110
    },
    {
      "midi": 37,
      "hit": false,
      "t": 128914.23199999546,
      "d": 167.85707291666768,
      "v": 110
    },
    {
      "midi": 37,
      "hit": false,
      "t": 129085.66049999546,
      "d": 82.14282291666314,
      "v": 110
    },
    {
      "midi": 61,
      "hit": false,
      "t": 129085.66049999955,
      "d": 167.85707291666768,
      "v": 110
    },
    {
      "midi": 37,
      "hit": false,
      "t": 129171.37474999545,
      "d": 82.14282291666314,
      "v": 110
    },
    {
      "midi": 37,
      "hit": false,
      "t": 129257.08899999544,
      "d": 167.85707291666768,
      "v": 110
    },
    {
      "midi": 68,
      "hit": false,
      "t": 129257.08899999954,
      "d": 285.7141666666721,
      "v": 110
    },
    {
      "midi": 37,
      "hit": false,
      "t": 129428.51749999543,
      "d": 82.14282291666314,
      "v": 110
    },
    {
      "midi": 71,
      "hit": false,
      "t": 129428.51749999978,
      "d": 167.85707291666768,
      "v": 110
    },
    {
      "midi": 37,
      "hit": false,
      "t": 129514.23174999542,
      "d": 82.14282291666314,
      "v": 110
    },
    {
      "midi": 37,
      "hit": false,
      "t": 129599.94599999541,
      "d": 167.85707291666768,
      "v": 110
    },
    {
      "midi": 70,
      "hit": false,
      "t": 129599.94599999978,
      "d": 599.9997500000027,
      "v": 110
    },
    {
      "midi": 37,
      "hit": false,
      "t": 129771.3744999954,
      "d": 82.14282291666314,
      "v": 110
    },
    {
      "midi": 37,
      "hit": false,
      "t": 129857.0887499954,
      "d": 82.14282291666314,
      "v": 110
    },
    {
      "midi": 37,
      "hit": false,
      "t": 129942.80299999539,
      "d": 167.85707291666768,
      "v": 110
    },
    {
      "midi": 37,
      "hit": false,
      "t": 130114.23149999538,
      "d": 82.14282291666314,
      "v": 110
    },
    {
      "midi": 61,
      "hit": false,
      "t": 130114.23149999954,
      "d": 167.85707291666768,
      "v": 110
    },
    {
      "midi": 37,
      "hit": false,
      "t": 130199.94574999537,
      "d": 82.14282291666314,
      "v": 110
    },
    {
      "midi": 37,
      "hit": false,
      "t": 130285.65999999536,
      "d": 167.85707291666768,
      "v": 110
    },
    {
      "midi": 37,
      "hit": false,
      "t": 130457.08849999536,
      "d": 82.14282291666314,
      "v": 110
    },
    {
      "midi": 61,
      "hit": false,
      "t": 130457.08849999955,
      "d": 167.85707291666768,
      "v": 110
    },
    {
      "midi": 37,
      "hit": false,
      "t": 130542.80274999535,
      "d": 82.14282291666314,
      "v": 110
    },
    {
      "midi": 37,
      "hit": false,
      "t": 130628.51699999534,
      "d": 167.85707291666768,
      "v": 110
    },
    {
      "midi": 68,
      "hit": false,
      "t": 130628.51699999954,
      "d": 285.7141666666721,
      "v": 110
    },
    {
      "midi": 37,
      "hit": false,
      "t": 130799.94549999533,
      "d": 82.14282291666314,
      "v": 110
    },
    {
      "midi": 71,
      "hit": false,
      "t": 130799.94549999978,
      "d": 167.85707291666768,
      "v": 110
    },
    {
      "midi": 37,
      "hit": false,
      "t": 130885.65974999532,
      "d": 82.14282291666314,
      "v": 110
    },
    {
      "midi": 37,
      "hit": false,
      "t": 130971.37399999531,
      "d": 167.85707291665312,
      "v": 110
    },
    {
      "midi": 70,
      "hit": false,
      "t": 130971.37399999978,
      "d": 285.7141666666721,
      "v": 110
    },
    {
      "midi": 37,
      "hit": false,
      "t": 131142.8024999953,
      "d": 82.14282291667769,
      "v": 110
    },
    {
      "midi": 37,
      "hit": false,
      "t": 131228.51674999532,
      "d": 82.14282291667769,
      "v": 110
    },
    {
      "midi": 35,
      "hit": false,
      "t": 131314.23099999534,
      "d": 167.85707291666768,
      "v": 110
    },
    {
      "midi": 71,
      "hit": false,
      "t": 131314.2309999998,
      "d": 167.85707291666768,
      "v": 110
    },
    {
      "midi": 35,
      "hit": false,
      "t": 131485.65949999535,
      "d": 82.14282291667769,
      "v": 110
    },
    {
      "midi": 73,
      "hit": false,
      "t": 131485.6594999998,
      "d": 457.1426666666812,
      "v": 110
    },
    {
      "midi": 37,
      "hit": false,
      "t": 131571.37374999537,
      "d": 82.14282291667769,
      "v": 110
    },
    {
      "midi": 37,
      "hit": false,
      "t": 131657.0879999954,
      "d": 167.85707291666768,
      "v": 110
    },
    {
      "midi": 37,
      "hit": false,
      "t": 131828.5164999954,
      "d": 82.14282291667769,
      "v": 110
    },
    {
      "midi": 61,
      "hit": false,
      "t": 131828.51649999956,
      "d": 82.14282291667769,
      "v": 110
    },
    {
      "midi": 64,
      "hit": false,
      "t": 131828.51649999956,
      "d": 82.14282291667769,
      "v": 110
    },
    {
      "midi": 37,
      "hit": false,
      "t": 131914.23074999542,
      "d": 82.14282291667769,
      "v": 110
    },
    {
      "midi": 61,
      "hit": false,
      "t": 131914.23074999958,
      "d": 82.14282291667769,
      "v": 110
    },
    {
      "midi": 64,
      "hit": false,
      "t": 131914.23074999958,
      "d": 82.14282291667769,
      "v": 110
    },
    {
      "midi": 37,
      "hit": false,
      "t": 131999.94499999544,
      "d": 167.85707291666768,
      "v": 110
    },
    {
      "midi": 61,
      "hit": false,
      "t": 131999.9449999996,
      "d": 167.85707291666768,
      "v": 110
    },
    {
      "midi": 64,
      "hit": false,
      "t": 131999.9449999996,
      "d": 167.85707291666768,
      "v": 110
    },
    {
      "midi": 37,
      "hit": false,
      "t": 132171.37349999545,
      "d": 82.14282291667769,
      "v": 110
    },
    {
      "midi": 61,
      "hit": false,
      "t": 132171.3734999996,
      "d": 82.14282291667769,
      "v": 110
    },
    {
      "midi": 64,
      "hit": false,
      "t": 132171.3734999996,
      "d": 82.14282291667769,
      "v": 110
    },
    {
      "midi": 37,
      "hit": false,
      "t": 132257.08774999547,
      "d": 82.14282291667769,
      "v": 110
    },
    {
      "midi": 61,
      "hit": false,
      "t": 132257.08774999963,
      "d": 82.14282291667769,
      "v": 110
    },
    {
      "midi": 64,
      "hit": false,
      "t": 132257.08774999963,
      "d": 82.14282291667769,
      "v": 110
    },
    {
      "midi": 37,
      "hit": false,
      "t": 132342.80199999548,
      "d": 167.85707291666768,
      "v": 110
    },
    {
      "midi": 61,
      "hit": false,
      "t": 132342.80199999965,
      "d": 167.85707291666768,
      "v": 110
    },
    {
      "midi": 64,
      "hit": false,
      "t": 132342.80199999965,
      "d": 167.85707291666768,
      "v": 110
    },
    {
      "midi": 73,
      "hit": false,
      "t": 132342.80199999982,
      "d": 285.7141666666721,
      "v": 110
    },
    {
      "midi": 37,
      "hit": false,
      "t": 132514.2304999955,
      "d": 82.14282291667769,
      "v": 110
    },
    {
      "midi": 61,
      "hit": false,
      "t": 132514.23049999966,
      "d": 167.85707291666768,
      "v": 110
    },
    {
      "midi": 56,
      "hit": false,
      "t": 132514.23050000003,
      "d": 167.85707291666768,
      "v": 110
    },
    {
      "midi": 37,
      "hit": false,
      "t": 132599.9447499955,
      "d": 82.14282291667769,
      "v": 110
    },
    {
      "midi": 37,
      "hit": false,
      "t": 132685.65899999553,
      "d": 167.85707291666768,
      "v": 110
    },
    {
      "midi": 71,
      "hit": false,
      "t": 132685.65899999984,
      "d": 167.85707291666768,
      "v": 110
    },
    {
      "midi": 37,
      "hit": false,
      "t": 132857.08749999554,
      "d": 82.14282291667769,
      "v": 110
    },
    {
      "midi": 61,
      "hit": false,
      "t": 132857.08749999964,
      "d": 82.14282291667769,
      "v": 110
    },
    {
      "midi": 73,
      "hit": false,
      "t": 132857.08749999985,
      "d": 167.85707291666768,
      "v": 110
    },
    {
      "midi": 56,
      "hit": false,
      "t": 132857.08750000002,
      "d": 82.14282291667769,
      "v": 110
    },
    {
      "midi": 37,
      "hit": false,
      "t": 132942.80174999556,
      "d": 82.14282291667769,
      "v": 110
    },
    {
      "midi": 61,
      "hit": false,
      "t": 132942.80174999966,
      "d": 82.14282291667769,
      "v": 110
    },
    {
      "midi": 56,
      "hit": false,
      "t": 132942.80175000004,
      "d": 82.14282291667769,
      "v": 110
    },
    {
      "midi": 37,
      "hit": false,
      "t": 133028.51599999558,
      "d": 167.85707291666768,
      "v": 110
    },
    {
      "midi": 61,
      "hit": false,
      "t": 133028.51599999968,
      "d": 167.85707291666768,
      "v": 110
    },
    {
      "midi": 64,
      "hit": false,
      "t": 133028.51599999968,
      "d": 167.85707291666768,
      "v": 110
    },
    {
      "midi": 37,
      "hit": false,
      "t": 133199.9444999956,
      "d": 82.14282291667769,
      "v": 110
    },
    {
      "midi": 61,
      "hit": false,
      "t": 133199.9444999997,
      "d": 82.14282291667769,
      "v": 110
    },
    {
      "midi": 64,
      "hit": false,
      "t": 133199.9444999997,
      "d": 82.14282291667769,
      "v": 110
    },
    {
      "midi": 76,
      "hit": false,
      "t": 133199.94449999984,
      "d": 167.85707291666768,
      "v": 110
    },
    {
      "midi": 37,
      "hit": false,
      "t": 133285.6587499956,
      "d": 82.14282291667769,
      "v": 110
    },
    {
      "midi": 61,
      "hit": false,
      "t": 133285.6587499997,
      "d": 82.14282291667769,
      "v": 110
    },
    {
      "midi": 64,
      "hit": false,
      "t": 133285.6587499997,
      "d": 82.14282291667769,
      "v": 110
    },
    {
      "midi": 37,
      "hit": false,
      "t": 133371.37299999563,
      "d": 167.85707291666768,
      "v": 110
    },
    {
      "midi": 61,
      "hit": false,
      "t": 133371.37299999973,
      "d": 167.85707291666768,
      "v": 110
    },
    {
      "midi": 64,
      "hit": false,
      "t": 133371.37299999973,
      "d": 167.85707291666768,
      "v": 110
    },
    {
      "midi": 37,
      "hit": false,
      "t": 133542.80149999564,
      "d": 82.14282291667769,
      "v": 110
    },
    {
      "midi": 61,
      "hit": false,
      "t": 133542.80149999974,
      "d": 167.85707291666768,
      "v": 110
    },
    {
      "midi": 56,
      "hit": false,
      "t": 133542.80150000006,
      "d": 167.85707291666768,
      "v": 110
    },
    {
      "midi": 37,
      "hit": false,
      "t": 133628.51574999565,
      "d": 82.14282291667769,
      "v": 110
    },
    {
      "midi": 37,
      "hit": false,
      "t": 133714.22999999567,
      "d": 167.85707291666768,
      "v": 110
    },
    {
      "midi": 80,
      "hit": false,
      "t": 133714.22999999984,
      "d": 167.85707291666768,
      "v": 110
    },
    {
      "midi": 37,
      "hit": false,
      "t": 133885.65849999568,
      "d": 82.14282291667769,
      "v": 110
    },
    {
      "midi": 61,
      "hit": false,
      "t": 133885.65849999973,
      "d": 167.85707291666768,
      "v": 110
    },
    {
      "midi": 64,
      "hit": false,
      "t": 133885.65849999973,
      "d": 167.85707291666768,
      "v": 110
    },
    {
      "midi": 68,
      "hit": false,
      "t": 133885.65849999973,
      "d": 167.85707291666768,
      "v": 110
    },
    {
      "midi": 78,
      "hit": false,
      "t": 133885.65849999984,
      "d": 167.85707291666768,
      "v": 110
    },
    {
      "midi": 37,
      "hit": false,
      "t": 133971.3727499957,
      "d": 82.14282291667769,
      "v": 110
    },
    {
      "midi": 35,
      "hit": false,
      "t": 134057.08699999572,
      "d": 167.85707291666768,
      "v": 110
    },
    {
      "midi": 59,
      "hit": false,
      "t": 134057.08699999974,
      "d": 167.85707291666768,
      "v": 110
    },
    {
      "midi": 63,
      "hit": false,
      "t": 134057.08699999974,
      "d": 167.85707291666768,
      "v": 110
    },
    {
      "midi": 66,
      "hit": false,
      "t": 134057.08699999974,
      "d": 167.85707291666768,
      "v": 110
    },
    {
      "midi": 76,
      "hit": false,
      "t": 134057.08699999985,
      "d": 167.85707291666768,
      "v": 110
    },
    {
      "midi": 35,
      "hit": false,
      "t": 134228.51549999573,
      "d": 82.14282291667769,
      "v": 110
    },
    {
      "midi": 61,
      "hit": false,
      "t": 134228.51549999975,
      "d": 167.85707291666768,
      "v": 110
    },
    {
      "midi": 64,
      "hit": false,
      "t": 134228.51549999975,
      "d": 167.85707291666768,
      "v": 110
    },
    {
      "midi": 68,
      "hit": false,
      "t": 134228.51549999975,
      "d": 167.85707291666768,
      "v": 110
    },
    {
      "midi": 75,
      "hit": false,
      "t": 134228.51549999986,
      "d": 167.85707291666768,
      "v": 110
    },
    {
      "midi": 35,
      "hit": false,
      "t": 134314.22974999575,
      "d": 82.14282291667769,
      "v": 110
    },
    {
      "midi": 33,
      "hit": false,
      "t": 134399.94399999577,
      "d": 167.85707291666768,
      "v": 110
    },
    {
      "midi": 73,
      "hit": false,
      "t": 134399.94399999987,
      "d": 285.7141666666721,
      "v": 110
    },
    {
      "midi": 33,
      "hit": false,
      "t": 134571.37249999578,
      "d": 82.14282291667769,
      "v": 110
    },
    {
      "midi": 61,
      "hit": false,
      "t": 134571.37249999974,
      "d": 82.14282291667769,
      "v": 110
    },
    {
      "midi": 64,
      "hit": false,
      "t": 134571.37249999974,
      "d": 82.14282291667769,
      "v": 110
    },
    {
      "midi": 33,
      "hit": false,
      "t": 134657.0867499958,
      "d": 82.14282291667769,
      "v": 110
    },
    {
      "midi": 61,
      "hit": false,
      "t": 134657.08674999975,
      "d": 82.14282291667769,
      "v": 110
    },
    {
      "midi": 64,
      "hit": false,
      "t": 134657.08674999975,
      "d": 82.14282291667769,
      "v": 110
    },
    {
      "midi": 33,
      "hit": false,
      "t": 134742.80099999582,
      "d": 167.85707291666768,
      "v": 110
    },
    {
      "midi": 61,
      "hit": false,
      "t": 134742.80099999977,
      "d": 167.85707291666768,
      "v": 110
    },
    {
      "midi": 64,
      "hit": false,
      "t": 134742.80099999977,
      "d": 167.85707291666768,
      "v": 110
    },
    {
      "midi": 33,
      "hit": false,
      "t": 134914.22949999582,
      "d": 82.14282291667769,
      "v": 110
    },
    {
      "midi": 61,
      "hit": false,
      "t": 134914.22949999978,
      "d": 82.14282291667769,
      "v": 110
    },
    {
      "midi": 64,
      "hit": false,
      "t": 134914.22949999978,
      "d": 82.14282291667769,
      "v": 110
    },
    {
      "midi": 33,
      "hit": false,
      "t": 134999.94374999584,
      "d": 82.14282291667769,
      "v": 110
    },
    {
      "midi": 61,
      "hit": false,
      "t": 134999.9437499998,
      "d": 82.14282291667769,
      "v": 110
    },
    {
      "midi": 64,
      "hit": false,
      "t": 134999.9437499998,
      "d": 82.14282291667769,
      "v": 110
    },
    {
      "midi": 33,
      "hit": false,
      "t": 135085.65799999586,
      "d": 167.85707291666768,
      "v": 110
    },
    {
      "midi": 61,
      "hit": false,
      "t": 135085.65799999982,
      "d": 167.85707291666768,
      "v": 110
    },
    {
      "midi": 64,
      "hit": false,
      "t": 135085.65799999982,
      "d": 167.85707291666768,
      "v": 110
    },
    {
      "midi": 73,
      "hit": false,
      "t": 135085.65799999988,
      "d": 285.7141666666721,
      "v": 110
    },
    {
      "midi": 33,
      "hit": false,
      "t": 135257.08649999587,
      "d": 82.14282291667769,
      "v": 110
    },
    {
      "midi": 61,
      "hit": false,
      "t": 135257.08649999983,
      "d": 167.85707291666768,
      "v": 110
    },
    {
      "midi": 56,
      "hit": false,
      "t": 135257.08650000006,
      "d": 167.85707291666768,
      "v": 110
    },
    {
      "midi": 33,
      "hit": false,
      "t": 135342.8007499959,
      "d": 82.14282291667769,
      "v": 110
    },
    {
      "midi": 33,
      "hit": false,
      "t": 135428.5149999959,
      "d": 167.85707291666768,
      "v": 110
    },
    {
      "midi": 71,
      "hit": false,
      "t": 135428.5149999999,
      "d": 167.85707291666768,
      "v": 110
    },
    {
      "midi": 33,
      "hit": false,
      "t": 135599.94349999592,
      "d": 82.14282291667769,
      "v": 110
    },
    {
      "midi": 61,
      "hit": false,
      "t": 135599.94349999982,
      "d": 167.85707291666768,
      "v": 110
    },
    {
      "midi": 64,
      "hit": false,
      "t": 135599.94349999982,
      "d": 167.85707291666768,
      "v": 110
    },
    {
      "midi": 68,
      "hit": false,
      "t": 135599.94349999982,
      "d": 167.85707291666768,
      "v": 110
    },
    {
      "midi": 73,
      "hit": false,
      "t": 135599.9434999999,
      "d": 167.85707291666768,
      "v": 110
    },
    {
      "midi": 33,
      "hit": false,
      "t": 135685.65774999594,
      "d": 82.14282291667769,
      "v": 110
    },
    {
      "midi": 33,
      "hit": false,
      "t": 135771.37199999596,
      "d": 167.85707291666768,
      "v": 110
    },
    {
      "midi": 33,
      "hit": false,
      "t": 135942.80049999597,
      "d": 82.14282291667769,
      "v": 110
    },
    {
      "midi": 59,
      "hit": false,
      "t": 135942.8004999998,
      "d": 167.85707291666768,
      "v": 110
    },
    {
      "midi": 63,
      "hit": false,
      "t": 135942.8004999998,
      "d": 167.85707291666768,
      "v": 110
    },
    {
      "midi": 66,
      "hit": false,
      "t": 135942.8004999998,
      "d": 167.85707291666768,
      "v": 110
    },
    {
      "midi": 76,
      "hit": false,
      "t": 135942.8004999999,
      "d": 167.85707291666768,
      "v": 110
    },
    {
      "midi": 33,
      "hit": false,
      "t": 136028.514749996,
      "d": 82.14282291667769,
      "v": 110
    },
    {
      "midi": 33,
      "hit": false,
      "t": 136114.228999996,
      "d": 167.85707291666768,
      "v": 110
    },
    {
      "midi": 33,
      "hit": false,
      "t": 136285.657499996,
      "d": 82.14282291667769,
      "v": 110
    },
    {
      "midi": 61,
      "hit": false,
      "t": 136285.6574999998,
      "d": 167.85707291666768,
      "v": 110
    },
    {
      "midi": 64,
      "hit": false,
      "t": 136285.6574999998,
      "d": 167.85707291666768,
      "v": 110
    },
    {
      "midi": 57,
      "hit": false,
      "t": 136285.65750000006,
      "d": 167.85707291666768,
      "v": 110
    },
    {
      "midi": 33,
      "hit": false,
      "t": 136371.37174999603,
      "d": 82.14282291667769,
      "v": 110
    },
    {
      "midi": 33,
      "hit": false,
      "t": 136457.08599999605,
      "d": 167.85707291666768,
      "v": 110
    },
    {
      "midi": 76,
      "hit": false,
      "t": 136457.0859999999,
      "d": 167.85707291666768,
      "v": 110
    },
    {
      "midi": 33,
      "hit": false,
      "t": 136628.51449999606,
      "d": 82.14282291667769,
      "v": 110
    },
    {
      "midi": 59,
      "hit": false,
      "t": 136628.5144999998,
      "d": 167.85707291666768,
      "v": 110
    },
    {
      "midi": 63,
      "hit": false,
      "t": 136628.5144999998,
      "d": 167.85707291666768,
      "v": 110
    },
    {
      "midi": 66,
      "hit": false,
      "t": 136628.5144999998,
      "d": 167.85707291666768,
      "v": 110
    },
    {
      "midi": 78,
      "hit": false,
      "t": 136628.5144999999,
      "d": 167.85707291666768,
      "v": 110
    },
    {
      "midi": 33,
      "hit": false,
      "t": 136714.22874999608,
      "d": 82.14282291667769,
      "v": 110
    },
    {
      "midi": 33,
      "hit": false,
      "t": 136799.9429999961,
      "d": 167.85707291666768,
      "v": 110
    },
    {
      "midi": 76,
      "hit": false,
      "t": 136799.9429999999,
      "d": 285.7141666666721,
      "v": 110
    },
    {
      "midi": 33,
      "hit": false,
      "t": 136971.3714999961,
      "d": 82.14282291667769,
      "v": 110
    },
    {
      "midi": 33,
      "hit": false,
      "t": 137057.08574999613,
      "d": 82.14282291667769,
      "v": 110
    },
    {
      "midi": 35,
      "hit": false,
      "t": 137142.79999999615,
      "d": 167.85707291666768,
      "v": 110
    },
    {
      "midi": 75,
      "hit": false,
      "t": 137142.79999999993,
      "d": 285.7141666666721,
      "v": 110
    },
    {
      "midi": 35,
      "hit": false,
      "t": 137314.22849999616,
      "d": 82.14282291667769,
      "v": 110
    },
    {
      "midi": 63,
      "hit": false,
      "t": 137314.2284999998,
      "d": 82.14282291667769,
      "v": 110
    },
    {
      "midi": 66,
      "hit": false,
      "t": 137314.2284999998,
      "d": 82.14282291667769,
      "v": 110
    },
    {
      "midi": 35,
      "hit": false,
      "t": 137399.94274999617,
      "d": 82.14282291667769,
      "v": 110
    },
    {
      "midi": 63,
      "hit": false,
      "t": 137399.9427499998,
      "d": 82.14282291667769,
      "v": 110
    },
    {
      "midi": 66,
      "hit": false,
      "t": 137399.9427499998,
      "d": 82.14282291667769,
      "v": 110
    },
    {
      "midi": 35,
      "hit": false,
      "t": 137485.6569999962,
      "d": 167.85707291666768,
      "v": 110
    },
    {
      "midi": 63,
      "hit": false,
      "t": 137485.65699999983,
      "d": 167.85707291666768,
      "v": 110
    },
    {
      "midi": 66,
      "hit": false,
      "t": 137485.65699999983,
      "d": 167.85707291666768,
      "v": 110
    },
    {
      "midi": 35,
      "hit": false,
      "t": 137657.0854999962,
      "d": 82.14282291667769,
      "v": 110
    },
    {
      "midi": 63,
      "hit": false,
      "t": 137657.08549999984,
      "d": 82.14282291667769,
      "v": 110
    },
    {
      "midi": 66,
      "hit": false,
      "t": 137657.08549999984,
      "d": 82.14282291667769,
      "v": 110
    },
    {
      "midi": 35,
      "hit": false,
      "t": 137742.79974999622,
      "d": 82.14282291667769,
      "v": 110
    },
    {
      "midi": 63,
      "hit": false,
      "t": 137742.79974999986,
      "d": 82.14282291667769,
      "v": 110
    },
    {
      "midi": 66,
      "hit": false,
      "t": 137742.79974999986,
      "d": 82.14282291667769,
      "v": 110
    },
    {
      "midi": 35,
      "hit": false,
      "t": 137828.51399999624,
      "d": 167.85707291666768,
      "v": 110
    },
    {
      "midi": 63,
      "hit": false,
      "t": 137828.51399999988,
      "d": 167.85707291666768,
      "v": 110
    },
    {
      "midi": 66,
      "hit": false,
      "t": 137828.51399999988,
      "d": 167.85707291666768,
      "v": 110
    },
    {
      "midi": 75,
      "hit": false,
      "t": 137828.51399999994,
      "d": 167.85707291666768,
      "v": 110
    },
    {
      "midi": 35,
      "hit": false,
      "t": 137999.94249999625,
      "d": 82.14282291667769,
      "v": 110
    },
    {
      "midi": 59,
      "hit": false,
      "t": 137999.9424999999,
      "d": 167.85707291666768,
      "v": 110
    },
    {
      "midi": 63,
      "hit": false,
      "t": 137999.9424999999,
      "d": 167.85707291666768,
      "v": 110
    },
    {
      "midi": 73,
      "hit": false,
      "t": 137999.94249999995,
      "d": 167.85707291666768,
      "v": 110
    },
    {
      "midi": 35,
      "hit": false,
      "t": 138085.65674999627,
      "d": 82.14282291667769,
      "v": 110
    },
    {
      "midi": 35,
      "hit": false,
      "t": 138171.3709999963,
      "d": 167.85707291666768,
      "v": 110
    },
    {
      "midi": 71,
      "hit": false,
      "t": 138171.37099999996,
      "d": 167.85707291666768,
      "v": 110
    },
    {
      "midi": 35,
      "hit": false,
      "t": 138342.7994999963,
      "d": 82.14282291667769,
      "v": 110
    },
    {
      "midi": 59,
      "hit": false,
      "t": 138342.79949999988,
      "d": 167.85707291666768,
      "v": 110
    },
    {
      "midi": 64,
      "hit": false,
      "t": 138342.79949999988,
      "d": 167.85707291666768,
      "v": 110
    },
    {
      "midi": 68,
      "hit": false,
      "t": 138342.79949999988,
      "d": 167.85707291666768,
      "v": 110
    },
    {
      "midi": 80,
      "hit": false,
      "t": 138342.79949999996,
      "d": 167.85707291666768,
      "v": 110
    },
    {
      "midi": 35,
      "hit": false,
      "t": 138428.51374999632,
      "d": 82.14282291667769,
      "v": 110
    },
    {
      "midi": 35,
      "hit": false,
      "t": 138514.22799999634,
      "d": 167.85707291666768,
      "v": 110
    },
    {
      "midi": 35,
      "hit": false,
      "t": 138685.65649999634,
      "d": 82.14282291667769,
      "v": 110
    },
    {
      "midi": 59,
      "hit": false,
      "t": 138685.65649999987,
      "d": 167.85707291666768,
      "v": 110
    },
    {
      "midi": 63,
      "hit": false,
      "t": 138685.65649999987,
      "d": 167.85707291666768,
      "v": 110
    },
    {
      "midi": 66,
      "hit": false,
      "t": 138685.65649999987,
      "d": 167.85707291666768,
      "v": 110
    },
    {
      "midi": 35,
      "hit": false,
      "t": 138771.37074999636,
      "d": 82.14282291667769,
      "v": 110
    },
    {
      "midi": 35,
      "hit": false,
      "t": 138857.08499999638,
      "d": 167.85707291666768,
      "v": 110
    },
    {
      "midi": 78,
      "hit": false,
      "t": 138857.08499999996,
      "d": 285.7141666666721,
      "v": 110
    },
    {
      "midi": 35,
      "hit": false,
      "t": 139028.5134999964,
      "d": 82.14282291667769,
      "v": 110
    },
    {
      "midi": 61,
      "hit": false,
      "t": 139028.51349999986,
      "d": 167.85707291666768,
      "v": 110
    },
    {
      "midi": 64,
      "hit": false,
      "t": 139028.51349999986,
      "d": 167.85707291666768,
      "v": 110
    },
    {
      "midi": 57,
      "hit": false,
      "t": 139028.51350000006,
      "d": 167.85707291666768,
      "v": 110
    },
    {
      "midi": 35,
      "hit": false,
      "t": 139114.2277499964,
      "d": 82.14282291667769,
      "v": 110
    },
    {
      "midi": 35,
      "hit": false,
      "t": 139199.94199999643,
      "d": 167.85707291666768,
      "v": 110
    },
    {
      "midi": 76,
      "hit": false,
      "t": 139199.94199999998,
      "d": 285.7141666666721,
      "v": 110
    },
    {
      "midi": 35,
      "hit": false,
      "t": 139371.37049999644,
      "d": 82.14282291667769,
      "v": 110
    },
    {
      "midi": 59,
      "hit": false,
      "t": 139371.37049999984,
      "d": 167.85707291666768,
      "v": 110
    },
    {
      "midi": 63,
      "hit": false,
      "t": 139371.37049999984,
      "d": 167.85707291666768,
      "v": 110
    },
    {
      "midi": 54,
      "hit": false,
      "t": 139371.37050000005,
      "d": 167.85707291666768,
      "v": 110
    },
    {
      "midi": 35,
      "hit": false,
      "t": 139457.08474999646,
      "d": 82.14282291667769,
      "v": 110
    },
    {
      "midi": 35,
      "hit": false,
      "t": 139542.79899999648,
      "d": 167.85707291666768,
      "v": 110
    },
    {
      "midi": 75,
      "hit": false,
      "t": 139542.799,
      "d": 285.7141666666721,
      "v": 110
    },
    {
      "midi": 35,
      "hit": false,
      "t": 139714.2274999965,
      "d": 82.14282291667769,
      "v": 110
    },
    {
      "midi": 61,
      "hit": false,
      "t": 139714.22749999983,
      "d": 167.85707291666768,
      "v": 110
    },
    {
      "midi": 49,
      "hit": false,
      "t": 139714.22750000004,
      "d": 167.85707291666768,
      "v": 110
    },
    {
      "midi": 56,
      "hit": false,
      "t": 139714.22750000004,
      "d": 167.85707291666768,
      "v": 110
    },
    {
      "midi": 35,
      "hit": false,
      "t": 139799.9417499965,
      "d": 82.14282291667769,
      "v": 110
    },
    {
      "midi": 37,
      "hit": false,
      "t": 139885.65599999652,
      "d": 167.85707291666768,
      "v": 110
    },
    {
      "midi": 75,
      "hit": false,
      "t": 139885.65600000002,
      "d": 167.85707291666768,
      "v": 110
    },
    {
      "midi": 37,
      "hit": false,
      "t": 140057.08449999653,
      "d": 82.14282291667769,
      "v": 110
    },
    {
      "midi": 76,
      "hit": false,
      "t": 140057.08450000003,
      "d": 167.85707291666768,
      "v": 110
    },
    {
      "midi": 37,
      "hit": false,
      "t": 140142.79874999655,
      "d": 82.14282291667769,
      "v": 110
    },
    {
      "midi": 37,
      "hit": false,
      "t": 140228.51299999657,
      "d": 167.85707291666768,
      "v": 110
    },
    {
      "midi": 75,
      "hit": false,
      "t": 140228.51300000004,
      "d": 167.85707291666768,
      "v": 110
    },
    {
      "midi": 37,
      "hit": false,
      "t": 140399.94149999658,
      "d": 82.14282291667769,
      "v": 110
    },
    {
      "midi": 73,
      "hit": false,
      "t": 140399.94150000004,
      "d": 1799.9992499999935,
      "v": 110
    },
    {
      "midi": 37,
      "hit": false,
      "t": 140485.6557499966,
      "d": 82.14282291667769,
      "v": 110
    },
    {
      "midi": 37,
      "hit": false,
      "t": 140571.36999999662,
      "d": 167.85707291666768,
      "v": 110
    },
    {
      "midi": 37,
      "hit": false,
      "t": 140742.79849999663,
      "d": 82.14282291667769,
      "v": 110
    },
    {
      "midi": 37,
      "hit": false,
      "t": 140828.51274999665,
      "d": 82.14282291667769,
      "v": 110
    },
    {
      "midi": 37,
      "hit": false,
      "t": 140914.22699999667,
      "d": 167.85707291666768,
      "v": 110
    },
    {
      "midi": 37,
      "hit": false,
      "t": 141085.65549999668,
      "d": 82.14282291667769,
      "v": 110
    },
    {
      "midi": 37,
      "hit": false,
      "t": 141171.3697499967,
      "d": 82.14282291667769,
      "v": 110
    },
    {
      "midi": 37,
      "hit": false,
      "t": 141257.0839999967,
      "d": 167.85707291666768,
      "v": 110
    },
    {
      "midi": 37,
      "hit": false,
      "t": 141428.51249999672,
      "d": 82.14282291667769,
      "v": 110
    },
    {
      "midi": 37,
      "hit": false,
      "t": 141514.22674999674,
      "d": 82.14282291667769,
      "v": 110
    },
    {
      "midi": 37,
      "hit": false,
      "t": 141599.94099999676,
      "d": 167.85707291666768,
      "v": 110
    },
    {
      "midi": 37,
      "hit": false,
      "t": 141771.36949999677,
      "d": 82.14282291667769,
      "v": 110
    },
    {
      "midi": 37,
      "hit": false,
      "t": 141857.0837499968,
      "d": 82.14282291667769,
      "v": 110
    },
    {
      "midi": 37,
      "hit": false,
      "t": 141942.7979999968,
      "d": 167.85707291666768,
      "v": 110
    },
    {
      "midi": 37,
      "hit": false,
      "t": 142114.22649999682,
      "d": 82.14282291667769,
      "v": 110
    },
    {
      "midi": 37,
      "hit": false,
      "t": 142199.94074999684,
      "d": 82.14282291667769,
      "v": 110
    },
    {
      "midi": 37,
      "hit": false,
      "t": 142285.65499999686,
      "d": 167.85707291666768,
      "v": 110
    },
    {
      "midi": 71,
      "hit": false,
      "t": 142285.65500000003,
      "d": 167.85707291666768,
      "v": 110
    },
    {
      "midi": 37,
      "hit": false,
      "t": 142457.08349999686,
      "d": 82.14282291667769,
      "v": 110
    },
    {
      "midi": 73,
      "hit": false,
      "t": 142457.08350000004,
      "d": 1114.2852499999863,
      "v": 110
    },
    {
      "midi": 38,
      "hit": false,
      "t": 142542.79774999688,
      "d": 82.14282291667769,
      "v": 110
    },
    {
      "midi": 38,
      "hit": false,
      "t": 142628.5119999969,
      "d": 167.85707291666768,
      "v": 110
    },
    {
      "midi": 38,
      "hit": false,
      "t": 142799.9404999969,
      "d": 82.14282291667769,
      "v": 110
    },
    {
      "midi": 38,
      "hit": false,
      "t": 142885.65474999693,
      "d": 82.14282291667769,
      "v": 110
    },
    {
      "midi": 38,
      "hit": false,
      "t": 142971.36899999695,
      "d": 167.85707291666768,
      "v": 110
    },
    {
      "midi": 38,
      "hit": false,
      "t": 143142.79749999696,
      "d": 82.14282291667769,
      "v": 110
    },
    {
      "midi": 38,
      "hit": false,
      "t": 143228.51174999698,
      "d": 82.14282291667769,
      "v": 110
    },
    {
      "midi": 38,
      "hit": false,
      "t": 143314.225999997,
      "d": 167.85707291666768,
      "v": 110
    },
    {
      "midi": 38,
      "hit": false,
      "t": 143485.654499997,
      "d": 82.14282291667769,
      "v": 110
    },
    {
      "midi": 38,
      "hit": false,
      "t": 143571.36874999703,
      "d": 82.14282291667769,
      "v": 110
    },
    {
      "midi": 38,
      "hit": false,
      "t": 143657.08299999704,
      "d": 167.85707291666768,
      "v": 110
    },
    {
      "midi": 71,
      "hit": false,
      "t": 143699.94012500002,
      "d": 167.85707291666768,
      "v": 110
    },
    {
      "midi": 38,
      "hit": false,
      "t": 143828.51149999705,
      "d": 82.14282291667769,
      "v": 110
    },
    {
      "midi": 76,
      "hit": false,
      "t": 143871.36862500003,
      "d": 339.28557291667676,
      "v": 110
    },
    {
      "midi": 38,
      "hit": false,
      "t": 143914.22574999707,
      "d": 82.14282291667769,
      "v": 110
    },
    {
      "midi": 38,
      "hit": false,
      "t": 143999.9399999971,
      "d": 167.85707291666768,
      "v": 110
    },
    {
      "midi": 38,
      "hit": false,
      "t": 144171.3684999971,
      "d": 82.14282291667769,
      "v": 110
    },
    {
      "midi": 73,
      "hit": false,
      "t": 144214.22562500005,
      "d": 339.28557291667676,
      "v": 110
    },
    {
      "midi": 38,
      "hit": false,
      "t": 144257.08274999712,
      "d": 82.14282291667769,
      "v": 110
    },
    {
      "midi": 38,
      "hit": false,
      "t": 144342.79699999714,
      "d": 167.85707291666768,
      "v": 110
    },
    {
      "midi": 38,
      "hit": false,
      "t": 144514.22549999715,
      "d": 82.14282291667769,
      "v": 110
    },
    {
      "midi": 71,
      "hit": false,
      "t": 144557.08262500007,
      "d": 339.28557291667676,
      "v": 110
    },
    {
      "midi": 38,
      "hit": false,
      "t": 144599.93974999717,
      "d": 82.14282291667769,
      "v": 110
    },
    {
      "midi": 38,
      "hit": false,
      "t": 144685.6539999972,
      "d": 167.85707291666768,
      "v": 110
    },
    {
      "midi": 38,
      "hit": false,
      "t": 144857.0824999972,
      "d": 82.14282291667769,
      "v": 110
    },
    {
      "midi": 73,
      "hit": false,
      "t": 144899.9396250001,
      "d": 510.71407291665673,
      "v": 110
    },
    {
      "midi": 38,
      "hit": false,
      "t": 144942.79674999721,
      "d": 82.14282291667769,
      "v": 110
    },
    {
      "midi": 38,
      "hit": false,
      "t": 145028.51099999723,
      "d": 167.85707291666768,
      "v": 110
    },
    {
      "midi": 38,
      "hit": false,
      "t": 145199.93949999724,
      "d": 82.14282291667769,
      "v": 110
    },
    {
      "midi": 38,
      "hit": false,
      "t": 145285.65374999726,
      "d": 82.14282291667769,
      "v": 110
    },
    {
      "midi": 37,
      "hit": false,
      "t": 145371.36799999728,
      "d": 167.85707291666768,
      "v": 110
    },
    {
      "midi": 71,
      "hit": false,
      "t": 145414.22512500008,
      "d": 682.1425729166658,
      "v": 110
    },
    {
      "midi": 37,
      "hit": false,
      "t": 145542.7964999973,
      "d": 82.14282291667769,
      "v": 110
    },
    {
      "midi": 37,
      "hit": false,
      "t": 145628.5107499973,
      "d": 82.14282291667769,
      "v": 110
    },
    {
      "midi": 37,
      "hit": false,
      "t": 145714.22499999733,
      "d": 167.85707291666768,
      "v": 110
    },
    {
      "midi": 37,
      "hit": false,
      "t": 145885.65349999734,
      "d": 82.14282291667769,
      "v": 110
    },
    {
      "midi": 37,
      "hit": false,
      "t": 145971.36774999736,
      "d": 82.14282291667769,
      "v": 110
    },
    {
      "midi": 37,
      "hit": false,
      "t": 146057.08199999738,
      "d": 167.85707291666768,
      "v": 110
    },
    {
      "midi": 71,
      "hit": false,
      "t": 146099.9391250001,
      "d": 167.85707291666768,
      "v": 110
    },
    {
      "midi": 37,
      "hit": false,
      "t": 146228.51049999738,
      "d": 82.14282291667769,
      "v": 110
    },
    {
      "midi": 73,
      "hit": false,
      "t": 146271.3676250001,
      "d": 682.1425729166658,
      "v": 110
    },
    {
      "midi": 37,
      "hit": false,
      "t": 146314.2247499974,
      "d": 82.14282291667769,
      "v": 110
    },
    {
      "midi": 37,
      "hit": false,
      "t": 146399.93899999742,
      "d": 167.85707291666768,
      "v": 110
    },
    {
      "midi": 37,
      "hit": false,
      "t": 146571.36749999743,
      "d": 82.14282291667769,
      "v": 110
    },
    {
      "midi": 37,
      "hit": false,
      "t": 146657.08174999745,
      "d": 82.14282291667769,
      "v": 110
    },
    {
      "midi": 37,
      "hit": false,
      "t": 146742.79599999747,
      "d": 167.85707291666768,
      "v": 110
    },
    {
      "midi": 68,
      "hit": false,
      "t": 146785.65312499984,
      "d": 296.4284479166672,
      "v": 110
    },
    {
      "midi": 37,
      "hit": false,
      "t": 146914.22449999748,
      "d": 82.14282291667769,
      "v": 110
    },
    {
      "midi": 69,
      "hit": false,
      "t": 146957.0816250001,
      "d": 414.28554166667163,
      "v": 110
    },
    {
      "midi": 37,
      "hit": false,
      "t": 146999.9387499975,
      "d": 82.14282291667769,
      "v": 110
    },
    {
      "midi": 37,
      "hit": false,
      "t": 147085.65299999752,
      "d": 167.85707291666768,
      "v": 110
    },
    {
      "midi": 68,
      "hit": false,
      "t": 147128.51012499983,
      "d": 167.85707291666768,
      "v": 110
    },
    {
      "midi": 37,
      "hit": false,
      "t": 147257.08149999753,
      "d": 82.14282291667769,
      "v": 110
    },
    {
      "midi": 64,
      "hit": false,
      "t": 147299.93862499984,
      "d": 339.28557291667676,
      "v": 110
    },
    {
      "midi": 37,
      "hit": false,
      "t": 147342.79574999755,
      "d": 82.14282291667769,
      "v": 110
    },
    {
      "midi": 37,
      "hit": false,
      "t": 147428.50999999756,
      "d": 167.85707291666768,
      "v": 110
    },
    {
      "midi": 37,
      "hit": false,
      "t": 147599.93849999757,
      "d": 82.14282291667769,
      "v": 110
    },
    {
      "midi": 64,
      "hit": false,
      "t": 147642.79562499985,
      "d": 167.85707291666768,
      "v": 110
    },
    {
      "midi": 37,
      "hit": false,
      "t": 147685.6527499976,
      "d": 82.14282291667769,
      "v": 110
    },
    {
      "midi": 37,
      "hit": false,
      "t": 147771.3669999976,
      "d": 167.85707291666768,
      "v": 110
    },
    {
      "midi": 68,
      "hit": false,
      "t": 147814.22412499986,
      "d": 296.4284479166672,
      "v": 110
    },
    {
      "midi": 37,
      "hit": false,
      "t": 147942.79549999762,
      "d": 82.14282291667769,
      "v": 110
    },
    {
      "midi": 71,
      "hit": false,
      "t": 147985.6526250001,
      "d": 167.85707291666768,
      "v": 110
    },
    {
      "midi": 38,
      "hit": false,
      "t": 148028.50974999764,
      "d": 82.14282291667769,
      "v": 110
    },
    {
      "midi": 38,
      "hit": false,
      "t": 148114.22399999766,
      "d": 167.85707291666768,
      "v": 110
    },
    {
      "midi": 73,
      "hit": false,
      "t": 148157.0811250001,
      "d": 1024.9995729166549,
      "v": 110
    },
    {
      "midi": 38,
      "hit": false,
      "t": 148285.65249999767,
      "d": 82.14282291667769,
      "v": 110
    },
    {
      "midi": 38,
      "hit": false,
      "t": 148371.3667499977,
      "d": 82.14282291667769,
      "v": 110
    },
    {
      "midi": 38,
      "hit": false,
      "t": 148457.0809999977,
      "d": 167.85707291666768,
      "v": 110
    },
    {
      "midi": 38,
      "hit": false,
      "t": 148628.50949999772,
      "d": 82.14282291667769,
      "v": 110
    },
    {
      "midi": 38,
      "hit": false,
      "t": 148714.22374999773,
      "d": 82.14282291667769,
      "v": 110
    },
    {
      "midi": 38,
      "hit": false,
      "t": 148799.93799999775,
      "d": 167.85707291666768,
      "v": 110
    },
    {
      "midi": 38,
      "hit": false,
      "t": 148971.36649999776,
      "d": 82.14282291667769,
      "v": 110
    },
    {
      "midi": 38,
      "hit": false,
      "t": 149057.08074999778,
      "d": 82.14282291667769,
      "v": 110
    },
    {
      "midi": 38,
      "hit": false,
      "t": 149142.7949999978,
      "d": 167.85707291666768,
      "v": 110
    },
    {
      "midi": 71,
      "hit": false,
      "t": 149185.6521250001,
      "d": 167.85707291666768,
      "v": 110
    },
    {
      "midi": 38,
      "hit": false,
      "t": 149314.2234999978,
      "d": 82.14282291667769,
      "v": 110
    },
    {
      "midi": 76,
      "hit": false,
      "t": 149357.08062500012,
      "d": 339.28557291667676,
      "v": 110
    },
    {
      "midi": 38,
      "hit": false,
      "t": 149399.93774999783,
      "d": 82.14282291667769,
      "v": 110
    },
    {
      "midi": 38,
      "hit": false,
      "t": 149485.65199999785,
      "d": 167.85707291666768,
      "v": 110
    },
    {
      "midi": 38,
      "hit": false,
      "t": 149657.08049999786,
      "d": 82.14282291667769,
      "v": 110
    },
    {
      "midi": 73,
      "hit": false,
      "t": 149699.93762500014,
      "d": 339.28557291667676,
      "v": 110
    },
    {
      "midi": 38,
      "hit": false,
      "t": 149742.79474999788,
      "d": 82.14282291667769,
      "v": 110
    },
    {
      "midi": 38,
      "hit": false,
      "t": 149828.5089999979,
      "d": 167.85707291666768,
      "v": 110
    },
    {
      "midi": 38,
      "hit": false,
      "t": 149999.9374999979,
      "d": 82.14282291667769,
      "v": 110
    },
    {
      "midi": 71,
      "hit": false,
      "t": 150042.79462500016,
      "d": 339.28557291667676,
      "v": 110
    },
    {
      "midi": 38,
      "hit": false,
      "t": 150085.65174999792,
      "d": 82.14282291667769,
      "v": 110
    },
    {
      "midi": 38,
      "hit": false,
      "t": 150171.36599999794,
      "d": 167.85707291666768,
      "v": 110
    },
    {
      "midi": 38,
      "hit": false,
      "t": 150342.79449999795,
      "d": 82.14282291667769,
      "v": 110
    },
    {
      "midi": 73,
      "hit": false,
      "t": 150385.65162500017,
      "d": 339.28557291667676,
      "v": 110
    },
    {
      "midi": 38,
      "hit": false,
      "t": 150428.50874999797,
      "d": 82.14282291667769,
      "v": 110
    },
    {
      "midi": 38,
      "hit": false,
      "t": 150514.222999998,
      "d": 167.85707291666768,
      "v": 110
    },
    {
      "midi": 38,
      "hit": false,
      "t": 150685.651499998,
      "d": 82.14282291667769,
      "v": 110
    },
    {
      "midi": 71,
      "hit": false,
      "t": 150728.5086250002,
      "d": 853.5710729166749,
      "v": 110
    },
    {
      "midi": 38,
      "hit": false,
      "t": 150771.36574999802,
      "d": 82.14282291667769,
      "v": 110
    },
    {
      "midi": 35,
      "hit": false,
      "t": 150857.07999999804,
      "d": 167.85707291666768,
      "v": 110
    },
    {
      "midi": 35,
      "hit": false,
      "t": 151028.50849999805,
      "d": 82.14282291667769,
      "v": 110
    },
    {
      "midi": 35,
      "hit": false,
      "t": 151114.22274999807,
      "d": 82.14282291667769,
      "v": 110
    },
    {
      "midi": 35,
      "hit": false,
      "t": 151199.93699999808,
      "d": 167.85707291666768,
      "v": 110
    },
    {
      "midi": 35,
      "hit": false,
      "t": 151371.3654999981,
      "d": 82.14282291667769,
      "v": 110
    },
    {
      "midi": 35,
      "hit": false,
      "t": 151457.0797499981,
      "d": 82.14282291667769,
      "v": 110
    },
    {
      "midi": 35,
      "hit": false,
      "t": 151542.79399999813,
      "d": 167.85707291666768,
      "v": 110
    },
    {
      "midi": 71,
      "hit": false,
      "t": 151585.6511250002,
      "d": 296.4284479166672,
      "v": 110
    },
    {
      "midi": 35,
      "hit": false,
      "t": 151714.22249999814,
      "d": 82.14282291667769,
      "v": 110
    },
    {
      "midi": 68,
      "hit": false,
      "t": 151757.07962499987,
      "d": 414.28554166667163,
      "v": 110
    },
    {
      "midi": 35,
      "hit": false,
      "t": 151799.93674999816,
      "d": 82.14282291667769,
      "v": 110
    },
    {
      "midi": 35,
      "hit": false,
      "t": 151885.65099999818,
      "d": 167.85707291666768,
      "v": 110
    },
    {
      "midi": 71,
      "hit": false,
      "t": 151928.5081250002,
      "d": 167.85707291666768,
      "v": 110
    },
    {
      "midi": 35,
      "hit": false,
      "t": 152057.0794999982,
      "d": 82.14282291667769,
      "v": 110
    },
    {
      "midi": 72,
      "hit": false,
      "t": 152099.9366250002,
      "d": 339.28557291667676,
      "v": 110
    },
    {
      "midi": 32,
      "hit": false,
      "t": 152142.7937499982,
      "d": 82.14282291667769,
      "v": 110
    },
    {
      "midi": 32,
      "hit": false,
      "t": 152228.50799999823,
      "d": 167.85707291666768,
      "v": 110
    },
    {
      "midi": 32,
      "hit": false,
      "t": 152399.93649999824,
      "d": 82.14282291667769,
      "v": 110
    },
    {
      "midi": 72,
      "hit": false,
      "t": 152442.79362500022,
      "d": 167.85707291666768,
      "v": 110
    },
    {
      "midi": 32,
      "hit": false,
      "t": 152485.65074999825,
      "d": 82.14282291667769,
      "v": 110
    },
    {
      "midi": 32,
      "hit": false,
      "t": 152571.36499999827,
      "d": 167.85707291666768,
      "v": 110
    },
    {
      "midi": 72,
      "hit": false,
      "t": 152614.22212500023,
      "d": 167.85707291666768,
      "v": 110
    },
    {
      "midi": 32,
      "hit": false,
      "t": 152742.79349999828,
      "d": 82.14282291667769,
      "v": 110
    },
    {
      "midi": 75,
      "hit": false,
      "t": 152785.65062500024,
      "d": 167.85707291666768,
      "v": 110
    },
    {
      "midi": 32,
      "hit": false,
      "t": 152828.5077499983,
      "d": 82.14282291667769,
      "v": 110
    },
    {
      "midi": 32,
      "hit": false,
      "t": 152914.22199999832,
      "d": 285.7141666666721,
      "v": 110
    },
    {
      "midi": 80,
      "hit": false,
      "t": 152957.07912500025,
      "d": 585.7140416666807,
      "v": 110
    },
    {
      "midi": 33,
      "hit": false,
      "t": 153428.50749999832,
      "d": 167.85707291666768,
      "v": 110
    },
    {
      "midi": 61,
      "hit": false,
      "t": 153428.50749999986,
      "d": 167.85707291666768,
      "v": 110
    },
    {
      "midi": 64,
      "hit": false,
      "t": 153428.50749999986,
      "d": 167.85707291666768,
      "v": 110
    },
    {
      "midi": 33,
      "hit": false,
      "t": 153599.93599999833,
      "d": 167.85707291666768,
      "v": 110
    },
    {
      "midi": 33,
      "hit": false,
      "t": 153771.36449999834,
      "d": 82.14282291667769,
      "v": 110
    },
    {
      "midi": 61,
      "hit": false,
      "t": 153771.36449999985,
      "d": 167.85707291666768,
      "v": 110
    },
    {
      "midi": 64,
      "hit": false,
      "t": 153771.36449999985,
      "d": 167.85707291666768,
      "v": 110
    },
    {
      "midi": 33,
      "hit": false,
      "t": 153857.07874999836,
      "d": 82.14282291667769,
      "v": 110
    },
    {
      "midi": 33,
      "hit": false,
      "t": 153942.79299999838,
      "d": 167.85707291666768,
      "v": 110
    },
    {
      "midi": 61,
      "hit": false,
      "t": 153942.79299999986,
      "d": 167.85707291666768,
      "v": 110
    },
    {
      "midi": 64,
      "hit": false,
      "t": 153942.79299999986,
      "d": 167.85707291666768,
      "v": 110
    },
    {
      "midi": 33,
      "hit": false,
      "t": 154114.22149999838,
      "d": 82.14282291667769,
      "v": 110
    },
    {
      "midi": 59,
      "hit": false,
      "t": 154114.22149999987,
      "d": 167.85707291666768,
      "v": 110
    },
    {
      "midi": 63,
      "hit": false,
      "t": 154114.22149999987,
      "d": 167.85707291666768,
      "v": 110
    },
    {
      "midi": 33,
      "hit": false,
      "t": 154199.9357499984,
      "d": 82.14282291667769,
      "v": 110
    },
    {
      "midi": 33,
      "hit": false,
      "t": 154285.64999999842,
      "d": 167.85707291666768,
      "v": 110
    },
    {
      "midi": 61,
      "hit": false,
      "t": 154285.64999999988,
      "d": 285.7141666666721,
      "v": 110
    },
    {
      "midi": 64,
      "hit": false,
      "t": 154285.64999999988,
      "d": 285.7141666666721,
      "v": 110
    },
    {
      "midi": 33,
      "hit": false,
      "t": 154457.07849999843,
      "d": 82.14282291667769,
      "v": 110
    },
    {
      "midi": 33,
      "hit": false,
      "t": 154542.79274999845,
      "d": 82.14282291667769,
      "v": 110
    },
    {
      "midi": 33,
      "hit": false,
      "t": 154628.50699999847,
      "d": 167.85707291666768,
      "v": 110
    },
    {
      "midi": 69,
      "hit": false,
      "t": 154628.50700000027,
      "d": 167.85707291666768,
      "v": 110
    },
    {
      "midi": 73,
      "hit": false,
      "t": 154628.50700000027,
      "d": 167.85707291666768,
      "v": 110
    },
    {
      "midi": 35,
      "hit": false,
      "t": 154799.93549999848,
      "d": 167.85707291666768,
      "v": 110
    },
    {
      "midi": 68,
      "hit": false,
      "t": 154799.93549999988,
      "d": 339.28557291667676,
      "v": 110
    },
    {
      "midi": 71,
      "hit": false,
      "t": 154799.93550000028,
      "d": 339.28557291667676,
      "v": 110
    },
    {
      "midi": 35,
      "hit": false,
      "t": 154971.3639999985,
      "d": 167.85707291666768,
      "v": 110
    },
    {
      "midi": 35,
      "hit": false,
      "t": 155142.7924999985,
      "d": 82.14282291667769,
      "v": 110
    },
    {
      "midi": 66,
      "hit": false,
      "t": 155142.7924999999,
      "d": 339.28557291667676,
      "v": 110
    },
    {
      "midi": 69,
      "hit": false,
      "t": 155142.7925000003,
      "d": 457.1426666666812,
      "v": 110
    },
    {
      "midi": 35,
      "hit": false,
      "t": 155228.50674999852,
      "d": 82.14282291667769,
      "v": 110
    },
    {
      "midi": 35,
      "hit": false,
      "t": 155314.22099999854,
      "d": 167.85707291666768,
      "v": 110
    },
    {
      "midi": 35,
      "hit": false,
      "t": 155485.64949999854,
      "d": 82.14282291667769,
      "v": 110
    },
    {
      "midi": 64,
      "hit": false,
      "t": 155485.6494999999,
      "d": 339.28557291667676,
      "v": 110
    },
    {
      "midi": 68,
      "hit": false,
      "t": 155485.6494999999,
      "d": 339.28557291667676,
      "v": 110
    },
    {
      "midi": 35,
      "hit": false,
      "t": 155571.36374999856,
      "d": 82.14282291667769,
      "v": 110
    },
    {
      "midi": 35,
      "hit": false,
      "t": 155657.07799999858,
      "d": 167.85707291666768,
      "v": 110
    },
    {
      "midi": 35,
      "hit": false,
      "t": 155828.5064999986,
      "d": 82.14282291667769,
      "v": 110
    },
    {
      "midi": 63,
      "hit": false,
      "t": 155828.50649999993,
      "d": 339.28557291667676,
      "v": 110
    },
    {
      "midi": 66,
      "hit": false,
      "t": 155828.50649999993,
      "d": 339.28557291667676,
      "v": 110
    },
    {
      "midi": 35,
      "hit": false,
      "t": 155914.2207499986,
      "d": 82.14282291667769,
      "v": 110
    },
    {
      "midi": 35,
      "hit": false,
      "t": 155999.93499999863,
      "d": 167.85707291666768,
      "v": 110
    },
    {
      "midi": 35,
      "hit": false,
      "t": 156171.36349999864,
      "d": 82.14282291667769,
      "v": 110
    },
    {
      "midi": 63,
      "hit": false,
      "t": 156171.36349999995,
      "d": 167.85707291666768,
      "v": 110
    },
    {
      "midi": 66,
      "hit": false,
      "t": 156171.36349999995,
      "d": 167.85707291666768,
      "v": 110
    },
    {
      "midi": 51,
      "hit": false,
      "t": 156171.36350000004,
      "d": 167.85707291666768,
      "v": 110
    },
    {
      "midi": 54,
      "hit": false,
      "t": 156171.36350000004,
      "d": 167.85707291666768,
      "v": 110
    },
    {
      "midi": 37,
      "hit": false,
      "t": 156257.07774999866,
      "d": 82.14282291667769,
      "v": 110
    },
    {
      "midi": 37,
      "hit": false,
      "t": 156342.79199999868,
      "d": 167.85707291666768,
      "v": 110
    },
    {
      "midi": 37,
      "hit": false,
      "t": 156514.2204999987,
      "d": 167.85707291666768,
      "v": 110
    },
    {
      "midi": 64,
      "hit": false,
      "t": 156514.22049999994,
      "d": 167.85707291666768,
      "v": 110
    },
    {
      "midi": 68,
      "hit": false,
      "t": 156514.22049999994,
      "d": 167.85707291666768,
      "v": 110
    },
    {
      "midi": 52,
      "hit": false,
      "t": 156514.22050000002,
      "d": 167.85707291666768,
      "v": 110
    },
    {
      "midi": 56,
      "hit": false,
      "t": 156514.22050000002,
      "d": 167.85707291666768,
      "v": 110
    },
    {
      "midi": 39,
      "hit": false,
      "t": 156685.6489999987,
      "d": 167.85707291666768,
      "v": 110
    },
    {
      "midi": 64,
      "hit": false,
      "t": 156685.64899999995,
      "d": 285.7141666666721,
      "v": 110
    },
    {
      "midi": 68,
      "hit": false,
      "t": 156685.64899999995,
      "d": 285.7141666666721,
      "v": 110
    },
    {
      "midi": 52,
      "hit": false,
      "t": 156685.64900000003,
      "d": 285.7141666666721,
      "v": 110
    },
    {
      "midi": 56,
      "hit": false,
      "t": 156685.64900000003,
      "d": 285.7141666666721,
      "v": 110
    },
    {
      "midi": 39,
      "hit": false,
      "t": 156857.0774999987,
      "d": 167.85707291666768,
      "v": 110
    },
    {
      "midi": 40,
      "hit": false,
      "t": 157028.5059999987,
      "d": 167.85707291666768,
      "v": 110
    },
    {
      "midi": 64,
      "hit": false,
      "t": 157028.50599999996,
      "d": 285.7141666666721,
      "v": 110
    },
    {
      "midi": 68,
      "hit": false,
      "t": 157028.50599999996,
      "d": 285.7141666666721,
      "v": 110
    },
    {
      "midi": 52,
      "hit": false,
      "t": 157028.50600000005,
      "d": 285.7141666666721,
      "v": 110
    },
    {
      "midi": 56,
      "hit": false,
      "t": 157028.50600000005,
      "d": 285.7141666666721,
      "v": 110
    },
    {
      "midi": 40,
      "hit": false,
      "t": 157199.93449999872,
      "d": 167.85707291666768,
      "v": 110
    },
    {
      "midi": 40,
      "hit": false,
      "t": 157371.36299999873,
      "d": 167.85707291666768,
      "v": 110
    },
    {
      "midi": 37,
      "hit": false,
      "t": 157542.79149999874,
      "d": 167.85707291666768,
      "v": 110
    },
    {
      "midi": 63,
      "hit": false,
      "t": 157542.79149999996,
      "d": 167.85707291666768,
      "v": 110
    },
    {
      "midi": 66,
      "hit": false,
      "t": 157542.79149999996,
      "d": 167.85707291666768,
      "v": 110
    },
    {
      "midi": 51,
      "hit": false,
      "t": 157542.79150000005,
      "d": 167.85707291666768,
      "v": 110
    },
    {
      "midi": 54,
      "hit": false,
      "t": 157542.79150000005,
      "d": 167.85707291666768,
      "v": 110
    },
    {
      "midi": 37,
      "hit": false,
      "t": 157714.21999999875,
      "d": 167.85707291666768,
      "v": 110
    },
    {
      "midi": 37,
      "hit": false,
      "t": 157885.64849999876,
      "d": 167.85707291666768,
      "v": 110
    },
    {
      "midi": 64,
      "hit": false,
      "t": 157885.64849999995,
      "d": 167.85707291666768,
      "v": 110
    },
    {
      "midi": 68,
      "hit": false,
      "t": 157885.64849999995,
      "d": 167.85707291666768,
      "v": 110
    },
    {
      "midi": 52,
      "hit": false,
      "t": 157885.64850000004,
      "d": 167.85707291666768,
      "v": 110
    },
    {
      "midi": 56,
      "hit": false,
      "t": 157885.64850000004,
      "d": 167.85707291666768,
      "v": 110
    },
    {
      "midi": 39,
      "hit": false,
      "t": 158057.07699999877,
      "d": 167.85707291666768,
      "v": 110
    },
    {
      "midi": 64,
      "hit": false,
      "t": 158057.07699999996,
      "d": 285.7141666666721,
      "v": 110
    },
    {
      "midi": 68,
      "hit": false,
      "t": 158057.07699999996,
      "d": 285.7141666666721,
      "v": 110
    },
    {
      "midi": 52,
      "hit": false,
      "t": 158057.07700000005,
      "d": 285.7141666666721,
      "v": 110
    },
    {
      "midi": 56,
      "hit": false,
      "t": 158057.07700000005,
      "d": 285.7141666666721,
      "v": 110
    },
    {
      "midi": 39,
      "hit": false,
      "t": 158228.50549999878,
      "d": 167.85707291666768,
      "v": 110
    },
    {
      "midi": 40,
      "hit": false,
      "t": 158399.9339999988,
      "d": 167.85707291666768,
      "v": 110
    },
    {
      "midi": 64,
      "hit": false,
      "t": 158399.93399999998,
      "d": 285.7141666666721,
      "v": 110
    },
    {
      "midi": 68,
      "hit": false,
      "t": 158399.93399999998,
      "d": 285.7141666666721,
      "v": 110
    },
    {
      "midi": 52,
      "hit": false,
      "t": 158399.93400000007,
      "d": 285.7141666666721,
      "v": 110
    },
    {
      "midi": 56,
      "hit": false,
      "t": 158399.93400000007,
      "d": 285.7141666666721,
      "v": 110
    },
    {
      "midi": 40,
      "hit": false,
      "t": 158571.3624999988,
      "d": 167.85707291666768,
      "v": 110
    },
    {
      "midi": 35,
      "hit": false,
      "t": 158742.7909999988,
      "d": 167.85707291666768,
      "v": 110
    },
    {
      "midi": 63,
      "hit": false,
      "t": 158742.791,
      "d": 167.85707291666768,
      "v": 110
    },
    {
      "midi": 66,
      "hit": false,
      "t": 158742.791,
      "d": 167.85707291666768,
      "v": 110
    },
    {
      "midi": 33,
      "hit": false,
      "t": 158914.2194999988,
      "d": 167.85707291666768,
      "v": 110
    },
    {
      "midi": 61,
      "hit": false,
      "t": 158914.2195,
      "d": 167.85707291666768,
      "v": 110
    },
    {
      "midi": 64,
      "hit": false,
      "t": 158914.2195,
      "d": 167.85707291666768,
      "v": 110
    },
    {
      "midi": 33,
      "hit": false,
      "t": 159085.64799999882,
      "d": 167.85707291666768,
      "v": 110
    },
    {
      "midi": 33,
      "hit": false,
      "t": 159257.07649999883,
      "d": 82.14282291667769,
      "v": 110
    },
    {
      "midi": 61,
      "hit": false,
      "t": 159257.0765,
      "d": 167.85707291666768,
      "v": 110
    },
    {
      "midi": 64,
      "hit": false,
      "t": 159257.0765,
      "d": 167.85707291666768,
      "v": 110
    },
    {
      "midi": 33,
      "hit": false,
      "t": 159342.79074999885,
      "d": 82.14282291667769,
      "v": 110
    },
    {
      "midi": 33,
      "hit": false,
      "t": 159428.50499999887,
      "d": 167.85707291666768,
      "v": 110
    },
    {
      "midi": 61,
      "hit": false,
      "t": 159428.505,
      "d": 167.85707291666768,
      "v": 110
    },
    {
      "midi": 64,
      "hit": false,
      "t": 159428.505,
      "d": 167.85707291666768,
      "v": 110
    },
    {
      "midi": 33,
      "hit": false,
      "t": 159599.93349999888,
      "d": 82.14282291667769,
      "v": 110
    },
    {
      "midi": 59,
      "hit": false,
      "t": 159599.9335,
      "d": 167.85707291666768,
      "v": 110
    },
    {
      "midi": 63,
      "hit": false,
      "t": 159599.9335,
      "d": 167.85707291666768,
      "v": 110
    },
    {
      "midi": 33,
      "hit": false,
      "t": 159685.6477499989,
      "d": 82.14282291667769,
      "v": 110
    },
    {
      "midi": 33,
      "hit": false,
      "t": 159771.36199999892,
      "d": 167.85707291666768,
      "v": 110
    },
    {
      "midi": 61,
      "hit": false,
      "t": 159771.36200000002,
      "d": 285.7141666666721,
      "v": 110
    },
    {
      "midi": 64,
      "hit": false,
      "t": 159771.36200000002,
      "d": 285.7141666666721,
      "v": 110
    },
    {
      "midi": 33,
      "hit": false,
      "t": 159942.79049999893,
      "d": 82.14282291667769,
      "v": 110
    },
    {
      "midi": 33,
      "hit": false,
      "t": 160028.50474999895,
      "d": 82.14282291667769,
      "v": 110
    },
    {
      "midi": 33,
      "hit": false,
      "t": 160114.21899999896,
      "d": 167.85707291666768,
      "v": 110
    },
    {
      "midi": 69,
      "hit": false,
      "t": 160114.2190000003,
      "d": 167.85707291666768,
      "v": 110
    },
    {
      "midi": 73,
      "hit": false,
      "t": 160114.2190000003,
      "d": 167.85707291666768,
      "v": 110
    },
    {
      "midi": 35,
      "hit": false,
      "t": 160285.64749999897,
      "d": 167.85707291666768,
      "v": 110
    },
    {
      "midi": 68,
      "hit": false,
      "t": 160285.64750000002,
      "d": 339.28557291667676,
      "v": 110
    },
    {
      "midi": 71,
      "hit": false,
      "t": 160285.6475000003,
      "d": 339.28557291667676,
      "v": 110
    },
    {
      "midi": 35,
      "hit": false,
      "t": 160457.07599999898,
      "d": 167.85707291666768,
      "v": 110
    },
    {
      "midi": 35,
      "hit": false,
      "t": 160628.504499999,
      "d": 82.14282291667769,
      "v": 110
    },
    {
      "midi": 66,
      "hit": false,
      "t": 160628.50450000004,
      "d": 339.28557291667676,
      "v": 110
    },
    {
      "midi": 69,
      "hit": false,
      "t": 160628.50450000033,
      "d": 457.1426666666812,
      "v": 110
    },
    {
      "midi": 35,
      "hit": false,
      "t": 160714.218749999,
      "d": 82.14282291667769,
      "v": 110
    },
    {
      "midi": 35,
      "hit": false,
      "t": 160799.93299999903,
      "d": 167.85707291666768,
      "v": 110
    },
    {
      "midi": 35,
      "hit": false,
      "t": 160971.36149999904,
      "d": 82.14282291667769,
      "v": 110
    },
    {
      "midi": 64,
      "hit": false,
      "t": 160971.36150000006,
      "d": 339.28557291667676,
      "v": 110
    },
    {
      "midi": 68,
      "hit": false,
      "t": 160971.36150000006,
      "d": 339.28557291667676,
      "v": 110
    },
    {
      "midi": 35,
      "hit": false,
      "t": 161057.07574999906,
      "d": 82.14282291667769,
      "v": 110
    },
    {
      "midi": 35,
      "hit": false,
      "t": 161142.78999999908,
      "d": 167.85707291666768,
      "v": 110
    },
    {
      "midi": 35,
      "hit": false,
      "t": 161314.2184999991,
      "d": 82.14282291667769,
      "v": 110
    },
    {
      "midi": 63,
      "hit": false,
      "t": 161314.21850000008,
      "d": 457.1426666666812,
      "v": 110
    },
    {
      "midi": 66,
      "hit": false,
      "t": 161314.21850000008,
      "d": 457.1426666666812,
      "v": 110
    },
    {
      "midi": 35,
      "hit": false,
      "t": 161399.9327499991,
      "d": 82.14282291667769,
      "v": 110
    },
    {
      "midi": 35,
      "hit": false,
      "t": 161485.64699999912,
      "d": 167.85707291666768,
      "v": 110
    },
    {
      "midi": 35,
      "hit": false,
      "t": 161657.07549999913,
      "d": 82.14282291667769,
      "v": 110
    },
    {
      "midi": 37,
      "hit": false,
      "t": 161742.78974999915,
      "d": 82.14282291667769,
      "v": 110
    },
    {
      "midi": 37,
      "hit": false,
      "t": 161828.50399999917,
      "d": 167.85707291666768,
      "v": 110
    },
    {
      "midi": 59,
      "hit": false,
      "t": 161828.5040000001,
      "d": 167.85707291666768,
      "v": 110
    },
    {
      "midi": 63,
      "hit": false,
      "t": 161828.5040000001,
      "d": 167.85707291666768,
      "v": 110
    },
    {
      "midi": 37,
      "hit": false,
      "t": 161999.93249999918,
      "d": 82.14282291667769,
      "v": 110
    },
    {
      "midi": 61,
      "hit": false,
      "t": 161999.9325000001,
      "d": 167.85707291666768,
      "v": 110
    },
    {
      "midi": 64,
      "hit": false,
      "t": 161999.9325000001,
      "d": 167.85707291666768,
      "v": 110
    },
    {
      "midi": 37,
      "hit": false,
      "t": 162085.6467499992,
      "d": 82.14282291667769,
      "v": 110
    },
    {
      "midi": 37,
      "hit": false,
      "t": 162171.36099999922,
      "d": 167.85707291666768,
      "v": 110
    },
    {
      "midi": 59,
      "hit": false,
      "t": 162171.36100000012,
      "d": 167.85707291666768,
      "v": 110
    },
    {
      "midi": 63,
      "hit": false,
      "t": 162171.36100000012,
      "d": 167.85707291666768,
      "v": 110
    },
    {
      "midi": 37,
      "hit": false,
      "t": 162342.78949999923,
      "d": 82.14282291667769,
      "v": 110
    },
    {
      "midi": 56,
      "hit": false,
      "t": 162342.78950000007,
      "d": 2142.8562500000116,
      "v": 110
    },
    {
      "midi": 61,
      "hit": false,
      "t": 162342.78950000013,
      "d": 2142.8562500000116,
      "v": 110
    },
    {
      "midi": 37,
      "hit": false,
      "t": 162428.50374999925,
      "d": 82.14282291667769,
      "v": 110
    },
    {
      "midi": 37,
      "hit": false,
      "t": 162514.21799999927,
      "d": 167.85707291666768,
      "v": 110
    },
    {
      "midi": 37,
      "hit": false,
      "t": 162685.64649999927,
      "d": 82.14282291667769,
      "v": 110
    },
    {
      "midi": 37,
      "hit": false,
      "t": 162771.3607499993,
      "d": 82.14282291667769,
      "v": 110
    },
    {
      "midi": 35,
      "hit": false,
      "t": 162857.0749999993,
      "d": 167.85707291666768,
      "v": 110
    },
    {
      "midi": 37,
      "hit": false,
      "t": 163028.50349999932,
      "d": 285.7141666666721,
      "v": 110
    },
    {
      "midi": 35,
      "hit": false,
      "t": 163371.36049999934,
      "d": 167.85707291666768,
      "v": 110
    },
    {
      "midi": 37,
      "hit": false,
      "t": 163542.78899999935,
      "d": 285.7141666666721,
      "v": 110
    },
    {
      "midi": 35,
      "hit": false,
      "t": 163885.64599999937,
      "d": 167.85707291666768,
      "v": 110
    },
    {
      "midi": 36,
      "hit": false,
      "t": 164057.07449999938,
      "d": 167.85707291666768,
      "v": 110
    },
    {
      "midi": 37,
      "hit": false,
      "t": 164228.5029999994,
      "d": 285.7141666666721,
      "v": 110
    }
  ]
}