{
  "jsonPath": "Rock/Alternative Rock/Okkervil River/millionaire.json",
  "path": "Rock\\Alternative Rock\\Okkervil River\\Millionaire.mid",
  "name": "Millionaire",
  "difficulty": "Advanced",
  "bpm": 120,
  "notes": [
    {
      "midi": 57,
      "hit": false,
      "t": 4366.5918,
      "d": 1085.9681999999993,
      "v": 94
    },
    {
      "midi": 38,
      "hit": false,
      "t": 4366.5918,
      "d": 4352.960399999998,
      "v": 87
    },
    {
      "midi": 66,
      "hit": false,
      "t": 4368.8637,
      "d": 1082.5603499999997,
      "v": 85
    },
    {
      "midi": 50,
      "hit": false,
      "t": 4371.1356,
      "d": 4354.096349999998,
      "v": 96
    },
    {
      "midi": 66,
      "hit": false,
      "t": 5454.831899999999,
      "d": 1088.240099999999,
      "v": 96
    },
    {
      "midi": 62,
      "hit": false,
      "t": 5455.967849999999,
      "d": 2.2718999999997322,
      "v": 82
    },
    {
      "midi": 57,
      "hit": false,
      "t": 5457.103799999999,
      "d": 1090.5119999999997,
      "v": 99
    },
    {
      "midi": 62,
      "hit": false,
      "t": 6549.887699999998,
      "d": 1083.6962999999996,
      "v": 81
    },
    {
      "midi": 57,
      "hit": false,
      "t": 6553.295549999998,
      "d": 1088.2401,
      "v": 89
    },
    {
      "midi": 66,
      "hit": false,
      "t": 7634.719949999998,
      "d": 5.67975000000024,
      "v": 89
    },
    {
      "midi": 62,
      "hit": false,
      "t": 7642.671599999998,
      "d": 1083.6962999999996,
      "v": 87
    },
    {
      "midi": 57,
      "hit": false,
      "t": 7642.671599999998,
      "d": 1090.5119999999988,
      "v": 95
    },
    {
      "midi": 62,
      "hit": false,
      "t": 8727.503849999997,
      "d": 1090.5119999999988,
      "v": 94
    },
    {
      "midi": 66,
      "hit": false,
      "t": 8729.775749999997,
      "d": 1084.8322499999995,
      "v": 82
    },
    {
      "midi": 47,
      "hit": false,
      "t": 8729.775749999997,
      "d": 4356.368249999996,
      "v": 87
    },
    {
      "midi": 35,
      "hit": false,
      "t": 8733.183599999997,
      "d": 4358.640149999996,
      "v": 86
    },
    {
      "midi": 57,
      "hit": false,
      "t": 8734.319549999997,
      "d": 1083.6962999999996,
      "v": 90
    },
    {
      "midi": 57,
      "hit": false,
      "t": 9821.423699999996,
      "d": 1089.376049999999,
      "v": 81
    },
    {
      "midi": 62,
      "hit": false,
      "t": 9822.559649999996,
      "d": 1082.5603499999997,
      "v": 87
    },
    {
      "midi": 66,
      "hit": false,
      "t": 9822.559649999996,
      "d": 1083.6962999999996,
      "v": 90
    },
    {
      "midi": 66,
      "hit": false,
      "t": 10911.935699999995,
      "d": 1087.1041499999992,
      "v": 90
    },
    {
      "midi": 62,
      "hit": false,
      "t": 10914.207599999994,
      "d": 1085.9681999999993,
      "v": 88
    },
    {
      "midi": 57,
      "hit": false,
      "t": 10915.343549999994,
      "d": 1090.5119999999988,
      "v": 89
    },
    {
      "midi": 66,
      "hit": false,
      "t": 12000.175799999994,
      "d": 1083.6962999999996,
      "v": 96
    },
    {
      "midi": 62,
      "hit": false,
      "t": 12004.719599999993,
      "d": 1088.240099999999,
      "v": 93
    },
    {
      "midi": 57,
      "hit": false,
      "t": 12005.855549999993,
      "d": 1082.5603499999997,
      "v": 81
    },
    {
      "midi": 30,
      "hit": false,
      "t": 13087.279949999993,
      "d": 4352.960399999996,
      "v": 87
    },
    {
      "midi": 42,
      "hit": false,
      "t": 13090.687799999992,
      "d": 4355.232299999996,
      "v": 81
    },
    {
      "midi": 54,
      "hit": false,
      "t": 13092.959699999992,
      "d": 1082.5603499999997,
      "v": 90
    },
    {
      "midi": 61,
      "hit": false,
      "t": 13094.095649999992,
      "d": 1081.4243999999999,
      "v": 88
    },
    {
      "midi": 57,
      "hit": false,
      "t": 13097.503499999992,
      "d": 1084.8322499999995,
      "v": 99
    },
    {
      "midi": 61,
      "hit": false,
      "t": 14177.791949999992,
      "d": 1084.8322499999995,
      "v": 85
    },
    {
      "midi": 54,
      "hit": false,
      "t": 14183.471699999991,
      "d": 1090.5120000000006,
      "v": 98
    },
    {
      "midi": 57,
      "hit": false,
      "t": 14185.74359999999,
      "d": 1089.3760500000008,
      "v": 85
    },
    {
      "midi": 61,
      "hit": false,
      "t": 15276.255599999991,
      "d": 1084.8322499999995,
      "v": 90
    },
    {
      "midi": 54,
      "hit": false,
      "t": 16359.951899999991,
      "d": 9.087599999998929,
      "v": 83
    },
    {
      "midi": 57,
      "hit": false,
      "t": 16363.35974999999,
      "d": 3.4078499999995984,
      "v": 85
    },
    {
      "midi": 61,
      "hit": false,
      "t": 16369.03949999999,
      "d": 1083.6962999999978,
      "v": 87
    },
    {
      "midi": 59,
      "hit": false,
      "t": 17452.735799999988,
      "d": 1090.5119999999988,
      "v": 97
    },
    {
      "midi": 31,
      "hit": false,
      "t": 17452.735799999988,
      "d": 4352.960399999996,
      "v": 93
    },
    {
      "midi": 62,
      "hit": false,
      "t": 17456.143649999987,
      "d": 1085.9681999999993,
      "v": 89
    },
    {
      "midi": 43,
      "hit": false,
      "t": 17456.143649999987,
      "d": 4362.047999999995,
      "v": 84
    },
    {
      "midi": 55,
      "hit": false,
      "t": 18542.111849999987,
      "d": 1.1359499999998661,
      "v": 96
    },
    {
      "midi": 62,
      "hit": false,
      "t": 18544.383749999986,
      "d": 1083.6962999999996,
      "v": 87
    },
    {
      "midi": 59,
      "hit": false,
      "t": 19632.623849999985,
      "d": 2.2718999999997322,
      "v": 93
    },
    {
      "midi": 55,
      "hit": false,
      "t": 19633.759799999985,
      "d": 1082.5603499999997,
      "v": 83
    },
    {
      "midi": 62,
      "hit": false,
      "t": 19637.167649999985,
      "d": 1085.9681999999993,
      "v": 95
    },
    {
      "midi": 62,
      "hit": false,
      "t": 20723.135849999984,
      "d": 1081.4243999999999,
      "v": 83
    },
    {
      "midi": 55,
      "hit": false,
      "t": 20728.815599999984,
      "d": 1087.1041499999992,
      "v": 84
    },
    {
      "midi": 59,
      "hit": false,
      "t": 20731.087499999983,
      "d": 1087.1041499999992,
      "v": 86
    },
    {
      "midi": 66,
      "hit": false,
      "t": 21814.783799999983,
      "d": 1081.4243999999999,
      "v": 90
    },
    {
      "midi": 38,
      "hit": false,
      "t": 21818.191649999982,
      "d": 4359.7760999999955,
      "v": 95
    },
    {
      "midi": 62,
      "hit": false,
      "t": 21819.327599999982,
      "d": 1089.376049999999,
      "v": 94
    },
    {
      "midi": 50,
      "hit": false,
      "t": 21820.463549999982,
      "d": 4358.640149999996,
      "v": 97
    },
    {
      "midi": 57,
      "hit": false,
      "t": 22903.023899999982,
      "d": 2.2718999999997322,
      "v": 99
    },
    {
      "midi": 66,
      "hit": false,
      "t": 22904.15984999998,
      "d": 1081.4243999999999,
      "v": 99
    },
    {
      "midi": 57,
      "hit": false,
      "t": 23993.53589999998,
      "d": 1090.5119999999988,
      "v": 90
    },
    {
      "midi": 62,
      "hit": false,
      "t": 23994.67184999998,
      "d": 3.4078499999995984,
      "v": 99
    },
    {
      "midi": 66,
      "hit": false,
      "t": 23994.67184999998,
      "d": 1082.5603499999997,
      "v": 94
    },
    {
      "midi": 57,
      "hit": false,
      "t": 25085.18384999998,
      "d": 1082.5603499999997,
      "v": 88
    },
    {
      "midi": 66,
      "hit": false,
      "t": 25087.45574999998,
      "d": 1088.240099999999,
      "v": 88
    },
    {
      "midi": 62,
      "hit": false,
      "t": 25088.59169999998,
      "d": 1088.240099999999,
      "v": 83
    },
    {
      "midi": 57,
      "hit": false,
      "t": 26174.55989999998,
      "d": 1090.5119999999988,
      "v": 82
    },
    {
      "midi": 47,
      "hit": false,
      "t": 26174.55989999998,
      "d": 2995.500149999996,
      "v": 88
    },
    {
      "midi": 62,
      "hit": false,
      "t": 26177.967749999978,
      "d": 1084.8322499999995,
      "v": 93
    },
    {
      "midi": 35,
      "hit": false,
      "t": 26177.967749999978,
      "d": 4357.504199999996,
      "v": 97
    },
    {
      "midi": 66,
      "hit": false,
      "t": 26183.647499999977,
      "d": 1082.5603499999997,
      "v": 99
    },
    {
      "midi": 62,
      "hit": false,
      "t": 27267.343799999977,
      "d": 1083.6962999999996,
      "v": 94
    },
    {
      "midi": 57,
      "hit": false,
      "t": 27269.615699999977,
      "d": 1080.28845,
      "v": 91
    },
    {
      "midi": 66,
      "hit": false,
      "t": 27270.751649999977,
      "d": 1081.4243999999999,
      "v": 87
    },
    {
      "midi": 69,
      "hit": false,
      "t": 28355.583899999998,
      "d": 4357.504199999999,
      "v": 125
    },
    {
      "midi": 57,
      "hit": false,
      "t": 28358.991749999976,
      "d": 1085.9681999999993,
      "v": 50
    },
    {
      "midi": 57,
      "hit": false,
      "t": 28363.535549999997,
      "d": 4356.3682499999995,
      "v": 127
    },
    {
      "midi": 62,
      "hit": false,
      "t": 28364.671499999975,
      "d": 1089.376049999999,
      "v": 48
    },
    {
      "midi": 47,
      "hit": false,
      "t": 29179.147649999974,
      "d": 1358.5962,
      "v": 98
    },
    {
      "midi": 57,
      "hit": false,
      "t": 29448.367799999975,
      "d": 1080.28845,
      "v": 120
    },
    {
      "midi": 66,
      "hit": false,
      "t": 29451.775649999974,
      "d": 1.1359499999998661,
      "v": 122
    },
    {
      "midi": 62,
      "hit": false,
      "t": 29454.047549999974,
      "d": 1085.9681999999993,
      "v": 124
    },
    {
      "midi": 42,
      "hit": false,
      "t": 30535.471949999974,
      "d": 4355.2323,
      "v": 84
    },
    {
      "midi": 61,
      "hit": false,
      "t": 30543.423599999973,
      "d": 1082.5603499999997,
      "v": 94
    },
    {
      "midi": 30,
      "hit": false,
      "t": 30544.559549999973,
      "d": 4351.824450000004,
      "v": 97
    },
    {
      "midi": 57,
      "hit": false,
      "t": 31627.119899999972,
      "d": 6.815699999999197,
      "v": 92
    },
    {
      "midi": 54,
      "hit": false,
      "t": 31628.255849999972,
      "d": 1.1359499999998661,
      "v": 85
    },
    {
      "midi": 61,
      "hit": false,
      "t": 31631.663699999972,
      "d": 1082.5603499999997,
      "v": 93
    },
    {
      "midi": 57,
      "hit": false,
      "t": 32718.76784999997,
      "d": 1081.4243999999999,
      "v": 94
    },
    {
      "midi": 61,
      "hit": false,
      "t": 32722.17569999997,
      "d": 1088.2401000000027,
      "v": 99
    },
    {
      "midi": 54,
      "hit": false,
      "t": 32726.71949999997,
      "d": 1085.968200000003,
      "v": 98
    },
    {
      "midi": 54,
      "hit": false,
      "t": 33812.68769999997,
      "d": 1089.3760500000208,
      "v": 90
    },
    {
      "midi": 61,
      "hit": false,
      "t": 33813.82364999998,
      "d": 1085.9682000000103,
      "v": 86
    },
    {
      "midi": 57,
      "hit": false,
      "t": 33816.095549999976,
      "d": 1085.9682000000175,
      "v": 82
    },
    {
      "midi": 43,
      "hit": false,
      "t": 34897.51994999998,
      "d": 4357.504200000032,
      "v": 82
    },
    {
      "midi": 62,
      "hit": false,
      "t": 34898.65589999998,
      "d": 1087.1041500000138,
      "v": 93
    },
    {
      "midi": 31,
      "hit": false,
      "t": 34900.92779999999,
      "d": 4363.183950000028,
      "v": 90
    },
    {
      "midi": 55,
      "hit": false,
      "t": 34907.7435,
      "d": 1087.1041499999992,
      "v": 91
    },
    {
      "midi": 59,
      "hit": false,
      "t": 34907.7435,
      "d": 1089.3760500000062,
      "v": 85
    },
    {
      "midi": 62,
      "hit": false,
      "t": 35994.847649999996,
      "d": 1083.6963000000105,
      "v": 85
    },
    {
      "midi": 55,
      "hit": false,
      "t": 35995.9836,
      "d": 1087.1041500000138,
      "v": 97
    },
    {
      "midi": 59,
      "hit": false,
      "t": 37079.67990000001,
      "d": 2.2718999999997322,
      "v": 89
    },
    {
      "midi": 55,
      "hit": false,
      "t": 37083.08775000001,
      "d": 1082.5603499999997,
      "v": 98
    },
    {
      "midi": 62,
      "hit": false,
      "t": 37088.767500000016,
      "d": 1083.696299999996,
      "v": 96
    },
    {
      "midi": 55,
      "hit": false,
      "t": 38172.46380000001,
      "d": 1084.8322499999995,
      "v": 93
    },
    {
      "midi": 62,
      "hit": false,
      "t": 38174.73570000001,
      "d": 1084.8322499999995,
      "v": 84
    },
    {
      "midi": 59,
      "hit": false,
      "t": 38177.00760000001,
      "d": 1090.512000000017,
      "v": 97
    },
    {
      "midi": 50,
      "hit": false,
      "t": 39262.975800000015,
      "d": 4360.912050000043,
      "v": 83
    },
    {
      "midi": 38,
      "hit": false,
      "t": 39268.65555000003,
      "d": 4359.776100000032,
      "v": 90
    },
    {
      "midi": 66,
      "hit": false,
      "t": 39269.791500000036,
      "d": 1084.8322500000068,
      "v": 91
    },
    {
      "midi": 57,
      "hit": false,
      "t": 40351.21590000004,
      "d": 2.2718999999997322,
      "v": 82
    },
    {
      "midi": 62,
      "hit": false,
      "t": 40353.48780000004,
      "d": 4.5438000000067404,
      "v": 93
    },
    {
      "midi": 66,
      "hit": false,
      "t": 40360.303500000045,
      "d": 1081.4243999999962,
      "v": 89
    },
    {
      "midi": 62,
      "hit": false,
      "t": 41445.135750000045,
      "d": 1084.8322500000068,
      "v": 99
    },
    {
      "midi": 66,
      "hit": false,
      "t": 41446.27170000005,
      "d": 1080.28845,
      "v": 90
    },
    {
      "midi": 57,
      "hit": false,
      "t": 41448.54360000005,
      "d": 1088.2401000000027,
      "v": 90
    },
    {
      "midi": 66,
      "hit": false,
      "t": 42536.78370000005,
      "d": 1085.968200000003,
      "v": 88
    },
    {
      "midi": 62,
      "hit": false,
      "t": 42539.05560000005,
      "d": 1082.5603499999997,
      "v": 98
    },
    {
      "midi": 57,
      "hit": false,
      "t": 42540.191550000054,
      "d": 1081.4243999999962,
      "v": 97
    },
    {
      "midi": 62,
      "hit": false,
      "t": 43622.751900000054,
      "d": 1090.512000000017,
      "v": 95
    },
    {
      "midi": 66,
      "hit": false,
      "t": 43626.15975000006,
      "d": 1089.3760500000135,
      "v": 92
    },
    {
      "midi": 57,
      "hit": false,
      "t": 43627.29570000006,
      "d": 1083.6963000000105,
      "v": 84
    },
    {
      "midi": 35,
      "hit": false,
      "t": 43629.56760000007,
      "d": 4357.504200000025,
      "v": 81
    },
    {
      "midi": 47,
      "hit": false,
      "t": 43630.70355000007,
      "d": 4359.776100000032,
      "v": 92
    },
    {
      "midi": 57,
      "hit": false,
      "t": 44717.80770000007,
      "d": 1083.6963000000032,
      "v": 81
    },
    {
      "midi": 62,
      "hit": false,
      "t": 44717.80770000007,
      "d": 1085.968200000003,
      "v": 95
    },
    {
      "midi": 57,
      "hit": false,
      "t": 45803.77590000007,
      "d": 1087.1041500000065,
      "v": 98
    },
    {
      "midi": 66,
      "hit": false,
      "t": 45806.04780000007,
      "d": 2.271900000007008,
      "v": 87
    },
    {
      "midi": 62,
      "hit": false,
      "t": 45807.18375000008,
      "d": 1083.6963000000032,
      "v": 94
    },
    {
      "midi": 62,
      "hit": false,
      "t": 46896.55980000008,
      "d": 1082.5603499999997,
      "v": 87
    },
    {
      "midi": 57,
      "hit": false,
      "t": 46897.695750000086,
      "d": 1083.696299999996,
      "v": 90
    },
    {
      "midi": 66,
      "hit": false,
      "t": 46902.239550000086,
      "d": 1083.6963000000032,
      "v": 83
    },
    {
      "midi": 61,
      "hit": false,
      "t": 47983.66395000008,
      "d": 1081.424400000018,
      "v": 82
    },
    {
      "midi": 42,
      "hit": false,
      "t": 47984.799900000085,
      "d": 4356.368250000036,
      "v": 96
    },
    {
      "midi": 30,
      "hit": false,
      "t": 47987.07180000009,
      "d": 4356.368250000029,
      "v": 86
    },
    {
      "midi": 54,
      "hit": false,
      "t": 47989.3437000001,
      "d": 1082.5603499999997,
      "v": 88
    },
    {
      "midi": 57,
      "hit": false,
      "t": 49075.3119000001,
      "d": 2.271900000007008,
      "v": 91
    },
    {
      "midi": 54,
      "hit": false,
      "t": 49076.447850000106,
      "d": 1088.24010000001,
      "v": 83
    },
    {
      "midi": 61,
      "hit": false,
      "t": 49080.99165000011,
      "d": 1083.6963000000032,
      "v": 83
    },
    {
      "midi": 57,
      "hit": false,
      "t": 50166.959850000116,
      "d": 1088.2401000000027,
      "v": 98
    },
    {
      "midi": 61,
      "hit": false,
      "t": 50172.63960000012,
      "d": 1085.968200000003,
      "v": 89
    },
    {
      "midi": 54,
      "hit": false,
      "t": 51256.33590000012,
      "d": 7.951650000002701,
      "v": 95
    },
    {
      "midi": 57,
      "hit": false,
      "t": 51262.015650000125,
      "d": 1083.696299999996,
      "v": 88
    },
    {
      "midi": 61,
      "hit": false,
      "t": 51262.015650000125,
      "d": 1090.5120000000024,
      "v": 94
    },
    {
      "midi": 43,
      "hit": false,
      "t": 52346.847900000124,
      "d": 4354.096350000029,
      "v": 82
    },
    {
      "midi": 31,
      "hit": false,
      "t": 52354.79955000013,
      "d": 4358.640150000036,
      "v": 89
    },
    {
      "midi": 62,
      "hit": false,
      "t": 52355.93550000013,
      "d": 1082.5603499999997,
      "v": 81
    },
    {
      "midi": 55,
      "hit": false,
      "t": 53439.631800000134,
      "d": 1.135950000003504,
      "v": 93
    },
    {
      "midi": 59,
      "hit": false,
      "t": 53439.631800000134,
      "d": 6.815700000006473,
      "v": 85
    },
    {
      "midi": 62,
      "hit": false,
      "t": 53441.90370000014,
      "d": 1082.5603499999997,
      "v": 86
    },
    {
      "midi": 62,
      "hit": false,
      "t": 54527.871900000144,
      "d": 1084.8322499999995,
      "v": 81
    },
    {
      "midi": 59,
      "hit": false,
      "t": 54527.871900000144,
      "d": 1090.5120000000024,
      "v": 99
    },
    {
      "midi": 62,
      "hit": false,
      "t": 55617.24795000014,
      "d": 1090.5120000000097,
      "v": 90
    },
    {
      "midi": 55,
      "hit": false,
      "t": 55618.383900000146,
      "d": 2.271900000007008,
      "v": 81
    },
    {
      "midi": 59,
      "hit": false,
      "t": 55619.51985000015,
      "d": 1085.968200000003,
      "v": 84
    },
    {
      "midi": 50,
      "hit": false,
      "t": 56708.895900000156,
      "d": 4356.368250000029,
      "v": 94
    },
    {
      "midi": 57,
      "hit": false,
      "t": 56710.03185000016,
      "d": 1083.6963000000105,
      "v": 94
    },
    {
      "midi": 66,
      "hit": false,
      "t": 56714.575650000166,
      "d": 1085.968200000003,
      "v": 94
    },
    {
      "midi": 38,
      "hit": false,
      "t": 56715.71160000017,
      "d": 4356.368250000014,
      "v": 93
    },
    {
      "midi": 62,
      "hit": false,
      "t": 57800.54385000017,
      "d": 2.271900000007008,
      "v": 98
    },
    {
      "midi": 66,
      "hit": false,
      "t": 57801.67980000017,
      "d": 1082.560350000007,
      "v": 87
    },
    {
      "midi": 57,
      "hit": false,
      "t": 58891.05585000018,
      "d": 1.135950000003504,
      "v": 93
    },
    {
      "midi": 62,
      "hit": false,
      "t": 58891.05585000018,
      "d": 1085.968200000003,
      "v": 84
    },
    {
      "midi": 66,
      "hit": false,
      "t": 58896.73560000018,
      "d": 1085.968200000003,
      "v": 85
    },
    {
      "midi": 62,
      "hit": false,
      "t": 59980.431900000185,
      "d": 1082.5603499999997,
      "v": 99
    },
    {
      "midi": 66,
      "hit": false,
      "t": 59982.703800000185,
      "d": 1084.8322499999995,
      "v": 96
    },
    {
      "midi": 57,
      "hit": false,
      "t": 59987.247600000184,
      "d": 1085.968200000003,
      "v": 91
    },
    {
      "midi": 47,
      "hit": false,
      "t": 61072.079850000184,
      "d": 4356.368250000021,
      "v": 82
    },
    {
      "midi": 66,
      "hit": false,
      "t": 61073.21580000019,
      "d": 1082.5603499999997,
      "v": 87
    },
    {
      "midi": 35,
      "hit": false,
      "t": 61073.21580000019,
      "d": 4360.912050000021,
      "v": 85
    },
    {
      "midi": 57,
      "hit": false,
      "t": 61076.62365000019,
      "d": 1088.2400999999954,
      "v": 85
    },
    {
      "midi": 62,
      "hit": false,
      "t": 61078.89555000019,
      "d": 1085.9681999999957,
      "v": 90
    },
    {
      "midi": 66,
      "hit": false,
      "t": 62162.591850000186,
      "d": 1085.968200000003,
      "v": 93
    },
    {
      "midi": 57,
      "hit": false,
      "t": 62164.863750000186,
      "d": 1082.5603499999997,
      "v": 86
    },
    {
      "midi": 62,
      "hit": false,
      "t": 62164.863750000186,
      "d": 1085.968200000003,
      "v": 96
    },
    {
      "midi": 62,
      "hit": false,
      "t": 63257.647650000195,
      "d": 1085.968200000003,
      "v": 95
    },
    {
      "midi": 57,
      "hit": false,
      "t": 64341.3439500002,
      "d": 2.2718999999997322,
      "v": 95
    },
    {
      "midi": 66,
      "hit": false,
      "t": 64347.0237000002,
      "d": 3.4078500000032363,
      "v": 98
    },
    {
      "midi": 62,
      "hit": false,
      "t": 64349.2956000002,
      "d": 1085.9682000000103,
      "v": 98
    },
    {
      "midi": 61,
      "hit": false,
      "t": 65434.12785000021,
      "d": 1084.8322500000068,
      "v": 99
    },
    {
      "midi": 54,
      "hit": false,
      "t": 65434.12785000021,
      "d": 1085.968200000003,
      "v": 90
    },
    {
      "midi": 30,
      "hit": false,
      "t": 65439.80760000022,
      "d": 4355.232300000018,
      "v": 85
    },
    {
      "midi": 42,
      "hit": false,
      "t": 65439.80760000022,
      "d": 4356.368250000014,
      "v": 89
    },
    {
      "midi": 57,
      "hit": false,
      "t": 66523.50390000021,
      "d": 1.1359499999962281,
      "v": 83
    },
    {
      "midi": 61,
      "hit": false,
      "t": 66526.91175000022,
      "d": 1083.696299999996,
      "v": 90
    },
    {
      "midi": 54,
      "hit": false,
      "t": 66530.31960000022,
      "d": 1085.968200000003,
      "v": 81
    },
    {
      "midi": 61,
      "hit": false,
      "t": 67612.87995000022,
      "d": 1087.1041500000138,
      "v": 89
    },
    {
      "midi": 57,
      "hit": false,
      "t": 67620.83160000022,
      "d": 1083.6963000000105,
      "v": 82
    },
    {
      "midi": 61,
      "hit": false,
      "t": 68704.52790000023,
      "d": 1084.8322500000068,
      "v": 84
    },
    {
      "midi": 54,
      "hit": false,
      "t": 68705.66385000023,
      "d": 5.6797500000102445,
      "v": 98
    },
    {
      "midi": 57,
      "hit": false,
      "t": 68707.93575000024,
      "d": 1087.1041499999992,
      "v": 85
    },
    {
      "midi": 55,
      "hit": false,
      "t": 69795.03990000024,
      "d": 1087.1041500000138,
      "v": 93
    },
    {
      "midi": 59,
      "hit": false,
      "t": 69798.44775000024,
      "d": 1081.4244000000035,
      "v": 94
    },
    {
      "midi": 31,
      "hit": false,
      "t": 69798.44775000024,
      "d": 4360.912050000043,
      "v": 97
    },
    {
      "midi": 62,
      "hit": false,
      "t": 70884.41595000026,
      "d": 2.271900000007008,
      "v": 86
    },
    {
      "midi": 55,
      "hit": false,
      "t": 70888.95975000027,
      "d": 1085.9681999999884,
      "v": 89
    },
    {
      "midi": 59,
      "hit": false,
      "t": 70890.09570000027,
      "d": 1083.696299999996,
      "v": 81
    },
    {
      "midi": 62,
      "hit": false,
      "t": 71977.19985000027,
      "d": 1081.4244000000035,
      "v": 95
    },
    {
      "midi": 59,
      "hit": false,
      "t": 71981.74365000027,
      "d": 1082.5603499999997,
      "v": 90
    },
    {
      "midi": 55,
      "hit": false,
      "t": 71981.74365000027,
      "d": 1089.3760500000062,
      "v": 85
    },
    {
      "midi": 62,
      "hit": false,
      "t": 73066.57590000027,
      "d": 1084.8322500000068,
      "v": 96
    },
    {
      "midi": 59,
      "hit": false,
      "t": 73071.11970000027,
      "d": 1085.968200000003,
      "v": 82
    },
    {
      "midi": 43,
      "hit": false,
      "t": 73617.51165000028,
      "d": 541.8481500000053,
      "v": 89
    },
    {
      "midi": 55,
      "hit": false,
      "t": 74157.08790000028,
      "d": 4.543800000014016,
      "v": 97
    },
    {
      "midi": 59,
      "hit": false,
      "t": 74159.35980000028,
      "d": 1082.5603500000143,
      "v": 89
    },
    {
      "midi": 62,
      "hit": false,
      "t": 74159.35980000028,
      "d": 1085.9682000000175,
      "v": 95
    },
    {
      "midi": 31,
      "hit": false,
      "t": 74161.63170000029,
      "d": 4360.912050000028,
      "v": 86
    },
    {
      "midi": 43,
      "hit": false,
      "t": 74165.03955000029,
      "d": 4356.368250000029,
      "v": 82
    },
    {
      "midi": 55,
      "hit": false,
      "t": 75248.7358500003,
      "d": 1084.8322499999922,
      "v": 94
    },
    {
      "midi": 59,
      "hit": false,
      "t": 75249.8718000003,
      "d": 1082.5603499999997,
      "v": 84
    },
    {
      "midi": 62,
      "hit": false,
      "t": 75253.2796500003,
      "d": 1085.9681999999884,
      "v": 87
    },
    {
      "midi": 62,
      "hit": false,
      "t": 76339.24785000029,
      "d": 1089.3760500000062,
      "v": 85
    },
    {
      "midi": 55,
      "hit": false,
      "t": 76342.6557000003,
      "d": 1085.968200000003,
      "v": 86
    },
    {
      "midi": 59,
      "hit": false,
      "t": 76347.1995000003,
      "d": 1085.9682000000175,
      "v": 90
    },
    {
      "midi": 55,
      "hit": false,
      "t": 77430.8958000003,
      "d": 1088.24010000001,
      "v": 92
    },
    {
      "midi": 59,
      "hit": false,
      "t": 77433.16770000031,
      "d": 1083.6963000000105,
      "v": 85
    },
    {
      "midi": 62,
      "hit": false,
      "t": 77435.43960000032,
      "d": 1089.3760500000062,
      "v": 99
    },
    {
      "midi": 61,
      "hit": false,
      "t": 78517.99995000032,
      "d": 1082.5603499999997,
      "v": 90
    },
    {
      "midi": 57,
      "hit": false,
      "t": 78519.13590000031,
      "d": 1081.4244000000035,
      "v": 84
    },
    {
      "midi": 33,
      "hit": false,
      "t": 78519.13590000031,
      "d": 4362.048000000024,
      "v": 90
    },
    {
      "midi": 45,
      "hit": false,
      "t": 78524.81565000032,
      "d": 4360.912050000014,
      "v": 96
    },
    {
      "midi": 64,
      "hit": false,
      "t": 78525.95160000032,
      "d": 1081.4244000000035,
      "v": 90
    },
    {
      "midi": 57,
      "hit": false,
      "t": 79610.78385000033,
      "d": 1091.6479499999987,
      "v": 88
    },
    {
      "midi": 64,
      "hit": false,
      "t": 79611.91980000032,
      "d": 1089.3760500000062,
      "v": 94
    },
    {
      "midi": 61,
      "hit": false,
      "t": 79614.19170000033,
      "d": 1088.2400999999954,
      "v": 92
    },
    {
      "midi": 64,
      "hit": false,
      "t": 80701.29585000033,
      "d": 1088.24010000001,
      "v": 81
    },
    {
      "midi": 61,
      "hit": false,
      "t": 80704.70370000033,
      "d": 1088.2400999999954,
      "v": 97
    },
    {
      "midi": 57,
      "hit": false,
      "t": 81789.53595000034,
      "d": 2.2718999999924563,
      "v": 82
    },
    {
      "midi": 64,
      "hit": false,
      "t": 81790.67190000034,
      "d": 1088.2400999999954,
      "v": 94
    },
    {
      "midi": 61,
      "hit": false,
      "t": 81799.75950000033,
      "d": 1082.5603499999997,
      "v": 93
    },
    {
      "midi": 62,
      "hit": false,
      "t": 82884.59175000034,
      "d": 1083.696299999996,
      "v": 90
    },
    {
      "midi": 57,
      "hit": false,
      "t": 82885.72770000034,
      "d": 1082.5603499999997,
      "v": 98
    },
    {
      "midi": 47,
      "hit": false,
      "t": 82887.99960000034,
      "d": 3265.856249999997,
      "v": 82
    },
    {
      "midi": 35,
      "hit": false,
      "t": 82889.13555000034,
      "d": 3265.856249999997,
      "v": 98
    },
    {
      "midi": 66,
      "hit": false,
      "t": 82890.27150000034,
      "d": 1082.5603499999997,
      "v": 96
    },
    {
      "midi": 62,
      "hit": false,
      "t": 83977.37565000034,
      "d": 1083.696299999996,
      "v": 96
    },
    {
      "midi": 66,
      "hit": false,
      "t": 83979.64755000034,
      "d": 1081.424399999989,
      "v": 92
    },
    {
      "midi": 57,
      "hit": false,
      "t": 83980.78350000034,
      "d": 1082.5603499999997,
      "v": 85
    },
    {
      "midi": 62,
      "hit": false,
      "t": 85063.34385000034,
      "d": 1084.8322500000068,
      "v": 81
    },
    {
      "midi": 57,
      "hit": false,
      "t": 85070.15955000035,
      "d": 1089.3760499999917,
      "v": 84
    },
    {
      "midi": 33,
      "hit": false,
      "t": 86152.71990000035,
      "d": 1085.9681999999884,
      "v": 118
    },
    {
      "midi": 45,
      "hit": false,
      "t": 86153.85585000034,
      "d": 1087.1041499999992,
      "v": 115
    },
    {
      "midi": 62,
      "hit": false,
      "t": 86154.99179999999,
      "d": 1082.5603499999852,
      "v": 117
    },
    {
      "midi": 66,
      "hit": false,
      "t": 86156.12774999999,
      "d": 1085.968200000003,
      "v": 121
    },
    {
      "midi": 45,
      "hit": false,
      "t": 86157.26369999998,
      "d": 1082.5603499999997,
      "v": 118
    },
    {
      "midi": 57,
      "hit": false,
      "t": 86158.39964999998,
      "d": 1084.8322500000068,
      "v": 117
    },
    {
      "midi": 66,
      "hit": false,
      "t": 86158.39965000034,
      "d": 2.2718999999924563,
      "v": 107
    },
    {
      "midi": 57,
      "hit": false,
      "t": 86160.67155000033,
      "d": 1085.968200000003,
      "v": 123
    },
    {
      "midi": 62,
      "hit": false,
      "t": 87242.09595000034,
      "d": 3.4078500000032363,
      "v": 84
    },
    {
      "midi": 55,
      "hit": false,
      "t": 87242.09595000034,
      "d": 1084.8322499999922,
      "v": 82
    },
    {
      "midi": 62,
      "hit": false,
      "t": 87246.63974999999,
      "d": 4352.960399999996,
      "v": 94
    },
    {
      "midi": 31,
      "hit": false,
      "t": 87246.63975000034,
      "d": 4354.096350000007,
      "v": 88
    },
    {
      "midi": 55,
      "hit": false,
      "t": 87247.77569999998,
      "d": 4362.04800000001,
      "v": 87
    },
    {
      "midi": 43,
      "hit": false,
      "t": 87248.91164999998,
      "d": 4357.50420000001,
      "v": 89
    },
    {
      "midi": 59,
      "hit": false,
      "t": 87251.18354999999,
      "d": 4357.50420000001,
      "v": 86
    },
    {
      "midi": 59,
      "hit": false,
      "t": 87251.18355000034,
      "d": 1081.424399999989,
      "v": 89
    },
    {
      "midi": 62,
      "hit": false,
      "t": 88336.01580000033,
      "d": 1084.8322499999922,
      "v": 83
    },
    {
      "midi": 55,
      "hit": false,
      "t": 88339.42365000033,
      "d": 1085.9681999999884,
      "v": 84
    },
    {
      "midi": 59,
      "hit": false,
      "t": 88340.55960000033,
      "d": 1083.696299999996,
      "v": 98
    },
    {
      "midi": 55,
      "hit": false,
      "t": 89428.79970000032,
      "d": 1085.968200000003,
      "v": 90
    },
    {
      "midi": 62,
      "hit": false,
      "t": 89429.93565000032,
      "d": 1088.24010000001,
      "v": 81
    },
    {
      "midi": 59,
      "hit": false,
      "t": 89432.20755000033,
      "d": 1082.5603499999997,
      "v": 90
    },
    {
      "midi": 59,
      "hit": false,
      "t": 90518.17575000033,
      "d": 1083.6963000000105,
      "v": 95
    },
    {
      "midi": 55,
      "hit": false,
      "t": 90519.31170000033,
      "d": 1083.6963000000105,
      "v": 94
    },
    {
      "midi": 43,
      "hit": false,
      "t": 91061.15985000033,
      "d": 537.3043500000058,
      "v": 97
    },
    {
      "midi": 55,
      "hit": false,
      "t": 91604.14395000033,
      "d": 1081.4244000000035,
      "v": 103
    },
    {
      "midi": 62,
      "hit": false,
      "t": 91605.27990000033,
      "d": 3.4078500000032363,
      "v": 111
    },
    {
      "midi": 43,
      "hit": false,
      "t": 91606.41585000033,
      "d": 4360.912050000028,
      "v": 111
    },
    {
      "midi": 59,
      "hit": false,
      "t": 91613.23155000033,
      "d": 1081.4244000000035,
      "v": 119
    },
    {
      "midi": 31,
      "hit": false,
      "t": 91613.23155000033,
      "d": 4356.368250000029,
      "v": 113
    },
    {
      "midi": 59,
      "hit": false,
      "t": 92695.79190000033,
      "d": 1091.6479500000132,
      "v": 108
    },
    {
      "midi": 62,
      "hit": false,
      "t": 92696.92785000033,
      "d": 1080.2884500000073,
      "v": 115
    },
    {
      "midi": 55,
      "hit": false,
      "t": 92699.19975000033,
      "d": 1085.968200000003,
      "v": 107
    },
    {
      "midi": 62,
      "hit": false,
      "t": 93787.43985000034,
      "d": 1083.6963000000105,
      "v": 106
    },
    {
      "midi": 55,
      "hit": false,
      "t": 93789.71175000035,
      "d": 1091.6479499999987,
      "v": 116
    },
    {
      "midi": 59,
      "hit": false,
      "t": 93790.84770000035,
      "d": 1090.5120000000024,
      "v": 111
    },
    {
      "midi": 59,
      "hit": false,
      "t": 94881.35970000035,
      "d": 1085.968200000003,
      "v": 119
    },
    {
      "midi": 55,
      "hit": false,
      "t": 94882.49565000035,
      "d": 1084.8322500000068,
      "v": 116
    },
    {
      "midi": 62,
      "hit": false,
      "t": 94885.90350000035,
      "d": 1087.1041500000138,
      "v": 115
    },
    {
      "midi": 61,
      "hit": false,
      "t": 95969.59980000036,
      "d": 1081.4244000000035,
      "v": 110
    },
    {
      "midi": 64,
      "hit": false,
      "t": 95969.59980000036,
      "d": 1082.5603499999997,
      "v": 119
    },
    {
      "midi": 45,
      "hit": false,
      "t": 95973.00765000036,
      "d": 4360.912050000014,
      "v": 112
    },
    {
      "midi": 33,
      "hit": false,
      "t": 95974.14360000036,
      "d": 4358.640150000021,
      "v": 107
    },
    {
      "midi": 57,
      "hit": false,
      "t": 95976.41550000037,
      "d": 1081.424399999989,
      "v": 110
    },
    {
      "midi": 61,
      "hit": false,
      "t": 97056.70395000036,
      "d": 1084.8322499999922,
      "v": 119
    },
    {
      "midi": 57,
      "hit": false,
      "t": 98150.62380000035,
      "d": 3.4078500000032363,
      "v": 116
    },
    {
      "midi": 64,
      "hit": false,
      "t": 98151.75975000035,
      "d": 4.5437999999994645,
      "v": 116
    },
    {
      "midi": 61,
      "hit": false,
      "t": 98155.16760000035,
      "d": 1085.968200000003,
      "v": 108
    },
    {
      "midi": 61,
      "hit": false,
      "t": 99241.13580000035,
      "d": 1088.2401000000245,
      "v": 106
    },
    {
      "midi": 57,
      "hit": false,
      "t": 99244.54365000036,
      "d": 1082.5603500000143,
      "v": 108
    },
    {
      "midi": 64,
      "hit": false,
      "t": 99246.81555000036,
      "d": 1089.3760500000062,
      "v": 108
    },
    {
      "midi": 62,
      "hit": false,
      "t": 100333.91970000038,
      "d": 1082.5603499999852,
      "v": 82
    },
    {
      "midi": 66,
      "hit": false,
      "t": 100336.19160000037,
      "d": 1080.2884499999927,
      "v": 92
    },
    {
      "midi": 57,
      "hit": false,
      "t": 100337.32755000037,
      "d": 1085.9681999999884,
      "v": 97
    },
    {
      "midi": 66,
      "hit": false,
      "t": 101421.02385000036,
      "d": 1081.424399999989,
      "v": 81
    },
    {
      "midi": 62,
      "hit": false,
      "t": 101422.15980000036,
      "d": 1088.2400999999954,
      "v": 83
    },
    {
      "midi": 57,
      "hit": false,
      "t": 101424.43170000035,
      "d": 1082.5603499999997,
      "v": 84
    },
    {
      "midi": 66,
      "hit": false,
      "t": 103599.77595000036,
      "d": 2.271900000007008,
      "v": 124
    },
    {
      "midi": 62,
      "hit": false,
      "t": 103599.77595000036,
      "d": 7.951650000002701,
      "v": 106
    },
    {
      "midi": 57,
      "hit": false,
      "t": 103606.59165000037,
      "d": 1.1359499999962281,
      "v": 119
    },
    {
      "midi": 57,
      "hit": false,
      "t": 104690.28795000036,
      "d": 5.6797500000102445,
      "v": 87
    },
    {
      "midi": 35,
      "hit": false,
      "t": 104692.55985000037,
      "d": 1.1359499999962281,
      "v": 90
    },
    {
      "midi": 47,
      "hit": false,
      "t": 104692.55985000037,
      "d": 3.4078500000032363,
      "v": 93
    },
    {
      "midi": 66,
      "hit": false,
      "t": 105781.93590000038,
      "d": 2.271900000007008,
      "v": 92
    },
    {
      "midi": 62,
      "hit": false,
      "t": 105784.20780000038,
      "d": 1.1359499999962281,
      "v": 80
    },
    {
      "midi": 57,
      "hit": false,
      "t": 105786.47970000037,
      "d": 1083.696299999996,
      "v": 87
    },
    {
      "midi": 57,
      "hit": false,
      "t": 106872.44790000038,
      "d": 1084.8322500000068,
      "v": 90
    },
    {
      "midi": 66,
      "hit": false,
      "t": 106873.58385000037,
      "d": 1087.1041500000138,
      "v": 91
    },
    {
      "midi": 62,
      "hit": false,
      "t": 106880.39955000038,
      "d": 1081.4244000000035,
      "v": 85
    },
    {
      "midi": 66,
      "hit": false,
      "t": 107970.91155000038,
      "d": 1089.3760500000062,
      "v": 121
    },
    {
      "midi": 62,
      "hit": false,
      "t": 107972.04750000038,
      "d": 1082.5603499999997,
      "v": 115
    },
    {
      "midi": 57,
      "hit": false,
      "t": 107972.04750000038,
      "d": 1087.1041500000138,
      "v": 110
    },
    {
      "midi": 47,
      "hit": false,
      "t": 108511.62375000038,
      "d": 533.8965000000026,
      "v": 90
    },
    {
      "midi": 62,
      "hit": false,
      "t": 109056.87975000039,
      "d": 1084.8322499999922,
      "v": 108
    },
    {
      "midi": 38,
      "hit": false,
      "t": 109060.28760000039,
      "d": 4360.912049999999,
      "v": 106
    },
    {
      "midi": 66,
      "hit": false,
      "t": 109061.42355000039,
      "d": 1084.8322499999922,
      "v": 107
    },
    {
      "midi": 50,
      "hit": false,
      "t": 109061.42355000039,
      "d": 4354.096350000007,
      "v": 102
    },
    {
      "midi": 57,
      "hit": false,
      "t": 109062.55950000038,
      "d": 1080.2884499999927,
      "v": 113
    },
    {
      "midi": 57,
      "hit": false,
      "t": 110145.11985000038,
      "d": 1081.4244000000035,
      "v": 115
    },
    {
      "midi": 66,
      "hit": false,
      "t": 110148.52770000038,
      "d": 1087.1041500000138,
      "v": 112
    },
    {
      "midi": 62,
      "hit": false,
      "t": 110150.79960000039,
      "d": 1082.5603499999997,
      "v": 106
    },
    {
      "midi": 62,
      "hit": false,
      "t": 111239.0397000004,
      "d": 1085.968200000003,
      "v": 103
    },
    {
      "midi": 62,
      "hit": false,
      "t": 112327.27980000041,
      "d": 1082.5603499999852,
      "v": 107
    },
    {
      "midi": 66,
      "hit": false,
      "t": 112328.41575000041,
      "d": 1.1359499999962281,
      "v": 113
    },
    {
      "midi": 57,
      "hit": false,
      "t": 112329.5517000004,
      "d": 1.1359499999962281,
      "v": 114
    },
    {
      "midi": 62,
      "hit": false,
      "t": 113416.65585000039,
      "d": 1083.6963000000105,
      "v": 116
    },
    {
      "midi": 35,
      "hit": false,
      "t": 113416.65585000039,
      "d": 4357.504200000025,
      "v": 113
    },
    {
      "midi": 47,
      "hit": false,
      "t": 113420.06370000039,
      "d": 4359.776100000017,
      "v": 105
    },
    {
      "midi": 57,
      "hit": false,
      "t": 113421.19965000039,
      "d": 1084.8322500000068,
      "v": 107
    },
    {
      "midi": 62,
      "hit": false,
      "t": 114508.3038000004,
      "d": 1089.3760500000062,
      "v": 107
    },
    {
      "midi": 66,
      "hit": false,
      "t": 114510.57570000041,
      "d": 1.1359499999962281,
      "v": 103
    },
    {
      "midi": 57,
      "hit": false,
      "t": 114510.57570000041,
      "d": 1085.968200000003,
      "v": 113
    },
    {
      "midi": 57,
      "hit": false,
      "t": 115597.67985000041,
      "d": 1089.3760500000062,
      "v": 101
    },
    {
      "midi": 62,
      "hit": false,
      "t": 115601.08770000041,
      "d": 1084.8322500000068,
      "v": 110
    },
    {
      "midi": 66,
      "hit": false,
      "t": 115605.63150000041,
      "d": 1080.2884500000073,
      "v": 115
    },
    {
      "midi": 66,
      "hit": false,
      "t": 116690.46375000042,
      "d": 1090.511999999988,
      "v": 103
    },
    {
      "midi": 62,
      "hit": false,
      "t": 116693.87160000042,
      "d": 1085.9681999999884,
      "v": 115
    },
    {
      "midi": 57,
      "hit": false,
      "t": 116695.00755000042,
      "d": 1087.1041499999847,
      "v": 101
    },
    {
      "midi": 57,
      "hit": false,
      "t": 117782.1117000004,
      "d": 1085.9681999999884,
      "v": 105
    },
    {
      "midi": 42,
      "hit": false,
      "t": 117782.1117000004,
      "d": 4357.504199999981,
      "v": 103
    },
    {
      "midi": 54,
      "hit": false,
      "t": 117785.5195500004,
      "d": 1081.424399999989,
      "v": 106
    },
    {
      "midi": 30,
      "hit": false,
      "t": 117786.6555000004,
      "d": 4356.368249999985,
      "v": 105
    },
    {
      "midi": 57,
      "hit": false,
      "t": 118868.07990000039,
      "d": 1082.5603499999997,
      "v": 101
    },
    {
      "midi": 61,
      "hit": false,
      "t": 118870.3518000004,
      "d": 1.1359499999962281,
      "v": 104
    },
    {
      "midi": 54,
      "hit": false,
      "t": 118871.4877500004,
      "d": 1087.1041499999992,
      "v": 116
    },
    {
      "midi": 54,
      "hit": false,
      "t": 119958.59190000039,
      "d": 1090.5120000000024,
      "v": 102
    },
    {
      "midi": 61,
      "hit": false,
      "t": 119967.67950000039,
      "d": 1083.696299999996,
      "v": 110
    },
    {
      "midi": 57,
      "hit": false,
      "t": 121050.23985000039,
      "d": 1.1359499999962281,
      "v": 110
    },
    {
      "midi": 54,
      "hit": false,
      "t": 121052.51175000038,
      "d": 1083.696299999996,
      "v": 111
    },
    {
      "midi": 61,
      "hit": false,
      "t": 121057.05555000038,
      "d": 1081.4244000000035,
      "v": 104
    },
    {
      "midi": 31,
      "hit": false,
      "t": 122138.47995000039,
      "d": 4360.912049999999,
      "v": 104
    },
    {
      "midi": 43,
      "hit": false,
      "t": 122140.75185000038,
      "d": 4356.3682499999995,
      "v": 116
    },
    {
      "midi": 59,
      "hit": false,
      "t": 122144.15970000038,
      "d": 1085.968200000003,
      "v": 116
    },
    {
      "midi": 62,
      "hit": false,
      "t": 122146.43160000039,
      "d": 1083.696299999996,
      "v": 112
    },
    {
      "midi": 55,
      "hit": false,
      "t": 123231.26385000038,
      "d": 1.1359499999962281,
      "v": 110
    },
    {
      "midi": 62,
      "hit": false,
      "t": 123231.26385000038,
      "d": 1083.696299999996,
      "v": 102
    },
    {
      "midi": 59,
      "hit": false,
      "t": 123231.26385000038,
      "d": 1087.1041499999992,
      "v": 114
    },
    {
      "midi": 62,
      "hit": false,
      "t": 124319.50395000038,
      "d": 1090.5120000000024,
      "v": 111
    },
    {
      "midi": 55,
      "hit": false,
      "t": 124325.18370000037,
      "d": 1084.8322500000068,
      "v": 107
    },
    {
      "midi": 59,
      "hit": false,
      "t": 125410.01595000038,
      "d": 5.679749999995693,
      "v": 114
    },
    {
      "midi": 55,
      "hit": false,
      "t": 125414.55975000038,
      "d": 1089.3760500000062,
      "v": 110
    },
    {
      "midi": 62,
      "hit": false,
      "t": 125420.23950000037,
      "d": 1085.9682000000175,
      "v": 118
    },
    {
      "midi": 50,
      "hit": false,
      "t": 126506.20770000039,
      "d": 4362.04800000001,
      "v": 111
    },
    {
      "midi": 62,
      "hit": false,
      "t": 126507.34365000039,
      "d": 1082.5603499999997,
      "v": 114
    },
    {
      "midi": 38,
      "hit": false,
      "t": 126508.47960000038,
      "d": 4363.183950000021,
      "v": 118
    },
    {
      "midi": 66,
      "hit": false,
      "t": 126509.61555000038,
      "d": 1083.6963000000105,
      "v": 105
    },
    {
      "midi": 57,
      "hit": false,
      "t": 127593.31185000039,
      "d": 3.4078500000032363,
      "v": 115
    },
    {
      "midi": 62,
      "hit": false,
      "t": 127600.1275500004,
      "d": 1083.696299999996,
      "v": 114
    },
    {
      "midi": 66,
      "hit": false,
      "t": 128683.8238500004,
      "d": 4.5437999999994645,
      "v": 107
    },
    {
      "midi": 62,
      "hit": false,
      "t": 128690.6395500004,
      "d": 1081.4244000000035,
      "v": 111
    },
    {
      "midi": 57,
      "hit": false,
      "t": 128690.6395500004,
      "d": 1083.6963000000105,
      "v": 101
    },
    {
      "midi": 57,
      "hit": false,
      "t": 129775.4718000004,
      "d": 1084.8322500000068,
      "v": 101
    },
    {
      "midi": 62,
      "hit": false,
      "t": 129775.4718000004,
      "d": 1085.968200000003,
      "v": 116
    },
    {
      "midi": 66,
      "hit": false,
      "t": 129782.28750000041,
      "d": 1083.696299999996,
      "v": 111
    },
    {
      "midi": 62,
      "hit": false,
      "t": 130863.71190000042,
      "d": 1089.376049999977,
      "v": 104
    },
    {
      "midi": 47,
      "hit": false,
      "t": 130864.84785000041,
      "d": 4362.047999999995,
      "v": 110
    },
    {
      "midi": 35,
      "hit": false,
      "t": 130865.98380000041,
      "d": 4354.0963499999925,
      "v": 113
    },
    {
      "midi": 66,
      "hit": false,
      "t": 130867.1197500004,
      "d": 1088.2400999999809,
      "v": 106
    },
    {
      "midi": 57,
      "hit": false,
      "t": 130868.2557000004,
      "d": 1085.9681999999884,
      "v": 103
    },
    {
      "midi": 62,
      "hit": false,
      "t": 131955.3598500004,
      "d": 1089.3760500000208,
      "v": 108
    },
    {
      "midi": 66,
      "hit": false,
      "t": 131959.9036500004,
      "d": 1084.8322500000068,
      "v": 118
    },
    {
      "midi": 57,
      "hit": false,
      "t": 131962.1755500004,
      "d": 1082.5603500000143,
      "v": 117
    },
    {
      "midi": 57,
      "hit": false,
      "t": 133045.8718500004,
      "d": 1081.424400000018,
      "v": 111
    },
    {
      "midi": 62,
      "hit": false,
      "t": 134136.38384999998,
      "d": 264.6763499999943,
      "v": 120
    },
    {
      "midi": 62,
      "hit": false,
      "t": 134136.38385000042,
      "d": 1.1359499999962281,
      "v": 103
    },
    {
      "midi": 57,
      "hit": false,
      "t": 134136.38385000042,
      "d": 1082.5603499999852,
      "v": 107
    },
    {
      "midi": 66,
      "hit": false,
      "t": 134138.6557500004,
      "d": 2.2718999999924563,
      "v": 107
    },
    {
      "midi": 64,
      "hit": false,
      "t": 134406.73995,
      "d": 266.94824999998673,
      "v": 119
    },
    {
      "midi": 66,
      "hit": false,
      "t": 134680.50389999998,
      "d": 270.3561000000045,
      "v": 121
    },
    {
      "midi": 69,
      "hit": false,
      "t": 134958.81165,
      "d": 4633.5400500000105,
      "v": 121
    },
    {
      "midi": 57,
      "hit": false,
      "t": 135226.8958500004,
      "d": 1088.2400999999954,
      "v": 108
    },
    {
      "midi": 42,
      "hit": false,
      "t": 135228.0318000004,
      "d": 4362.047999999952,
      "v": 117
    },
    {
      "midi": 61,
      "hit": false,
      "t": 135230.3037000004,
      "d": 1090.511999999988,
      "v": 102
    },
    {
      "midi": 30,
      "hit": false,
      "t": 135232.5756000004,
      "d": 4362.047999999952,
      "v": 116
    },
    {
      "midi": 54,
      "hit": false,
      "t": 136318.5438000004,
      "d": 4.543799999984913,
      "v": 102
    },
    {
      "midi": 57,
      "hit": false,
      "t": 136320.81570000038,
      "d": 1082.5603499999852,
      "v": 118
    },
    {
      "midi": 61,
      "hit": false,
      "t": 136324.22355000037,
      "d": 1084.8322500000068,
      "v": 107
    },
    {
      "midi": 54,
      "hit": false,
      "t": 137414.7355500004,
      "d": 1081.424399999989,
      "v": 105
    },
    {
      "midi": 57,
      "hit": false,
      "t": 137414.7355500004,
      "d": 1081.424399999989,
      "v": 108
    },
    {
      "midi": 61,
      "hit": false,
      "t": 138500.7037500004,
      "d": 1.1359499999962281,
      "v": 108
    },
    {
      "midi": 54,
      "hit": false,
      "t": 138502.9756500004,
      "d": 1084.8322499999776,
      "v": 112
    },
    {
      "midi": 57,
      "hit": false,
      "t": 138506.38350000037,
      "d": 1090.5119999999588,
      "v": 118
    },
    {
      "midi": 43,
      "hit": false,
      "t": 139588.94385000036,
      "d": 4362.0479999999225,
      "v": 117
    },
    {
      "midi": 59,
      "hit": false,
      "t": 139591.21575000035,
      "d": 1089.3760499999626,
      "v": 110
    },
    {
      "midi": 31,
      "hit": false,
      "t": 139591.21575000035,
      "d": 4356.368249999941,
      "v": 113
    },
    {
      "midi": 55,
      "hit": false,
      "t": 139592.35170000035,
      "d": 1081.424399999989,
      "v": 111
    },
    {
      "midi": 62,
      "hit": false,
      "t": 139592.35170000035,
      "d": 1083.6962999999814,
      "v": 117
    },
    {
      "midi": 55,
      "hit": false,
      "t": 140677.18395000033,
      "d": 1087.1041499999992,
      "v": 110
    },
    {
      "midi": 62,
      "hit": false,
      "t": 140680.59180000031,
      "d": 1085.968200000003,
      "v": 105
    },
    {
      "midi": 59,
      "hit": false,
      "t": 140686.27155000033,
      "d": 1081.424399999989,
      "v": 114
    },
    {
      "midi": 59,
      "hit": false,
      "t": 141773.37570000032,
      "d": 1090.511999999988,
      "v": 119
    },
    {
      "midi": 62,
      "hit": false,
      "t": 141774.51165000032,
      "d": 1082.5603499999852,
      "v": 117
    },
    {
      "midi": 55,
      "hit": false,
      "t": 141776.7835500003,
      "d": 1085.968200000003,
      "v": 107
    },
    {
      "midi": 62,
      "hit": false,
      "t": 142861.61580000032,
      "d": 1085.9681999999739,
      "v": 117
    },
    {
      "midi": 59,
      "hit": false,
      "t": 142866.1596000003,
      "d": 1089.3760499999626,
      "v": 110
    },
    {
      "midi": 55,
      "hit": false,
      "t": 142867.2955500003,
      "d": 1081.424399999989,
      "v": 102
    },
    {
      "midi": 43,
      "hit": false,
      "t": 143952.12780000028,
      "d": 4352.960399999953,
      "v": 92
    },
    {
      "midi": 62,
      "hit": false,
      "t": 143953.26375000027,
      "d": 1081.424399999989,
      "v": 83
    },
    {
      "midi": 31,
      "hit": false,
      "t": 143953.26375000027,
      "d": 4362.047999999981,
      "v": 90
    },
    {
      "midi": 59,
      "hit": false,
      "t": 143957.80755000026,
      "d": 1085.968200000003,
      "v": 93
    },
    {
      "midi": 55,
      "hit": false,
      "t": 145041.50385000027,
      "d": 3.4078499999886844,
      "v": 86
    },
    {
      "midi": 59,
      "hit": false,
      "t": 145044.91170000026,
      "d": 1084.8322500000068,
      "v": 83
    },
    {
      "midi": 62,
      "hit": false,
      "t": 145044.91170000026,
      "d": 1089.3760499999917,
      "v": 96
    },
    {
      "midi": 59,
      "hit": false,
      "t": 146130.87990000026,
      "d": 1083.6962999999814,
      "v": 91
    },
    {
      "midi": 62,
      "hit": false,
      "t": 146134.28775000025,
      "d": 1087.1041499999992,
      "v": 90
    },
    {
      "midi": 55,
      "hit": false,
      "t": 147220.25595000025,
      "d": 4.543799999984913,
      "v": 97
    },
    {
      "midi": 62,
      "hit": false,
      "t": 147225.93570000023,
      "d": 1084.8322500000068,
      "v": 81
    },
    {
      "midi": 59,
      "hit": false,
      "t": 147228.20760000023,
      "d": 1090.512000000017,
      "v": 86
    },
    {
      "midi": 57,
      "hit": false,
      "t": 148310.76795000024,
      "d": 1088.2400999999954,
      "v": 96
    },
    {
      "midi": 64,
      "hit": false,
      "t": 148316.44770000025,
      "d": 1085.9681999999739,
      "v": 99
    },
    {
      "midi": 45,
      "hit": false,
      "t": 148318.71960000024,
      "d": 4359.776099999988,
      "v": 87
    },
    {
      "midi": 33,
      "hit": false,
      "t": 148319.85555000024,
      "d": 4362.047999999981,
      "v": 92
    },
    {
      "midi": 57,
      "hit": false,
      "t": 149403.55185000022,
      "d": 1084.8322500000068,
      "v": 93
    },
    {
      "midi": 61,
      "hit": false,
      "t": 149408.09565000024,
      "d": 3.4078499999886844,
      "v": 88
    },
    {
      "midi": 64,
      "hit": false,
      "t": 150494.06385000024,
      "d": 1.1359499999962281,
      "v": 88
    },
    {
      "midi": 57,
      "hit": false,
      "t": 150499.74360000025,
      "d": 1083.6963000000105,
      "v": 82
    },
    {
      "midi": 61,
      "hit": false,
      "t": 150500.87955000025,
      "d": 1083.6963000000105,
      "v": 89
    },
    {
      "midi": 61,
      "hit": false,
      "t": 151584.57585000026,
      "d": 1085.968200000003,
      "v": 89
    },
    {
      "midi": 64,
      "hit": false,
      "t": 151584.57585000026,
      "d": 1088.2400999999954,
      "v": 82
    },
    {
      "midi": 57,
      "hit": false,
      "t": 151589.11965000027,
      "d": 1083.6962999999814,
      "v": 85
    },
    {
      "midi": 35,
      "hit": false,
      "t": 152673.95190000025,
      "d": 3266.9921999999206,
      "v": 88
    },
    {
      "midi": 57,
      "hit": false,
      "t": 152676.22380000024,
      "d": 1087.10414999997,
      "v": 90
    },
    {
      "midi": 62,
      "hit": false,
      "t": 152681.90355000022,
      "d": 1084.8322499999776,
      "v": 82
    },
    {
      "midi": 66,
      "hit": false,
      "t": 152683.03950000022,
      "d": 1082.5603499999852,
      "v": 97
    },
    {
      "midi": 47,
      "hit": false,
      "t": 152683.03950000022,
      "d": 3271.5359999999637,
      "v": 85
    },
    {
      "midi": 57,
      "hit": false,
      "t": 153766.7358000002,
      "d": 1081.424399999989,
      "v": 97
    },
    {
      "midi": 66,
      "hit": false,
      "t": 153766.7358000002,
      "d": 1085.968200000003,
      "v": 99
    },
    {
      "midi": 62,
      "hit": false,
      "t": 153769.0077000002,
      "d": 1083.6963000000105,
      "v": 95
    },
    {
      "midi": 62,
      "hit": false,
      "t": 154854.9759000002,
      "d": 1081.424399999989,
      "v": 93
    },
    {
      "midi": 57,
      "hit": false,
      "t": 154856.1118500002,
      "d": 1081.424399999989,
      "v": 88
    },
    {
      "midi": 66,
      "hit": false,
      "t": 155946.62385000018,
      "d": 1.1359499999962281,
      "v": 115
    },
    {
      "midi": 45,
      "hit": false,
      "t": 155946.62385000018,
      "d": 1089.3760499999917,
      "v": 112
    },
    {
      "midi": 62,
      "hit": false,
      "t": 155947.75980000017,
      "d": 1080.2884499999927,
      "v": 107
    },
    {
      "midi": 57,
      "hit": false,
      "t": 155948.89575,
      "d": 1081.424399999989,
      "v": 117
    },
    {
      "midi": 62,
      "hit": false,
      "t": 155948.89575,
      "d": 1085.968200000003,
      "v": 120
    },
    {
      "midi": 66,
      "hit": false,
      "t": 155951.16765,
      "d": 1083.6963000000105,
      "v": 117
    },
    {
      "midi": 45,
      "hit": false,
      "t": 155952.30359999998,
      "d": 1084.8322500000068,
      "v": 116
    },
    {
      "midi": 57,
      "hit": false,
      "t": 155953.43955000018,
      "d": 1085.9681999999739,
      "v": 108
    },
    {
      "midi": 33,
      "hit": false,
      "t": 155953.43955000018,
      "d": 1091.647949999955,
      "v": 111
    },
    {
      "midi": 62,
      "hit": false,
      "t": 157035.99990000017,
      "d": 1084.8322499999776,
      "v": 94
    },
    {
      "midi": 55,
      "hit": false,
      "t": 157038.2718,
      "d": 4359.776099999988,
      "v": 86
    },
    {
      "midi": 59,
      "hit": false,
      "t": 157039.40774999998,
      "d": 4354.096349999978,
      "v": 88
    },
    {
      "midi": 43,
      "hit": false,
      "t": 157040.54369999998,
      "d": 4363.183950000006,
      "v": 90
    },
    {
      "midi": 31,
      "hit": false,
      "t": 157042.81560000015,
      "d": 4359.776099999959,
      "v": 86
    },
    {
      "midi": 62,
      "hit": false,
      "t": 157043.95154999997,
      "d": 4359.776100000017,
      "v": 87
    },
    {
      "midi": 59,
      "hit": false,
      "t": 157043.95155000014,
      "d": 1081.424400000018,
      "v": 82
    },
    {
      "midi": 55,
      "hit": false,
      "t": 157045.08750000014,
      "d": 1081.424400000018,
      "v": 82
    },
    {
      "midi": 55,
      "hit": false,
      "t": 158129.91975000015,
      "d": 1084.8322500000068,
      "v": 97
    },
    {
      "midi": 62,
      "hit": false,
      "t": 159217.02390000015,
      "d": 1.1359499999962281,
      "v": 86
    },
    {
      "midi": 59,
      "hit": false,
      "t": 159217.02390000015,
      "d": 3.4078499999886844,
      "v": 86
    },
    {
      "midi": 55,
      "hit": false,
      "t": 159224.97555000015,
      "d": 1083.6963000000105,
      "v": 83
    },
    {
      "midi": 59,
      "hit": false,
      "t": 160312.07970000015,
      "d": 1089.3760499999626,
      "v": 81
    },
    {
      "midi": 43,
      "hit": false,
      "t": 160858.47165000014,
      "d": 538.4402999999875,
      "v": 90
    },
    {
      "midi": 55,
      "hit": false,
      "t": 161398.04790000012,
      "d": 5.679749999981141,
      "v": 108
    },
    {
      "midi": 62,
      "hit": false,
      "t": 161402.5917000001,
      "d": 4.543799999984913,
      "v": 106
    },
    {
      "midi": 43,
      "hit": false,
      "t": 161402.5917000001,
      "d": 4360.912049999926,
      "v": 118
    },
    {
      "midi": 59,
      "hit": false,
      "t": 161404.8636000001,
      "d": 1084.8322499999776,
      "v": 109
    },
    {
      "midi": 31,
      "hit": false,
      "t": 161407.1355000001,
      "d": 4357.504199999938,
      "v": 103
    },
    {
      "midi": 62,
      "hit": false,
      "t": 162488.55990000008,
      "d": 1090.511999999988,
      "v": 112
    },
    {
      "midi": 59,
      "hit": false,
      "t": 162490.83180000007,
      "d": 1080.2884499999927,
      "v": 104
    },
    {
      "midi": 55,
      "hit": false,
      "t": 162493.10370000007,
      "d": 1084.8322500000068,
      "v": 106
    },
    {
      "midi": 59,
      "hit": false,
      "t": 163587.02355000007,
      "d": 1082.5603499999852,
      "v": 112
    },
    {
      "midi": 62,
      "hit": false,
      "t": 164669.58390000006,
      "d": 1.1359499999962281,
      "v": 110
    },
    {
      "midi": 55,
      "hit": false,
      "t": 164669.58390000006,
      "d": 2.2718999999924563,
      "v": 110
    },
    {
      "midi": 59,
      "hit": false,
      "t": 164670.71985000005,
      "d": 1081.424399999989,
      "v": 114
    },
    {
      "midi": 45,
      "hit": false,
      "t": 165761.23185000004,
      "d": 4356.368249999941,
      "v": 113
    },
    {
      "midi": 57,
      "hit": false,
      "t": 165763.50375000003,
      "d": 1083.6962999999814,
      "v": 102
    },
    {
      "midi": 61,
      "hit": false,
      "t": 165765.77565000003,
      "d": 1085.9681999999739,
      "v": 106
    },
    {
      "midi": 33,
      "hit": false,
      "t": 165765.77565000003,
      "d": 4358.640149999934,
      "v": 112
    },
    {
      "midi": 64,
      "hit": false,
      "t": 165766.91160000002,
      "d": 1081.424399999989,
      "v": 107
    },
    {
      "midi": 64,
      "hit": false,
      "t": 166851.74385,
      "d": 1081.424399999989,
      "v": 111
    },
    {
      "midi": 61,
      "hit": false,
      "t": 166858.55955,
      "d": 1085.9681999999739,
      "v": 115
    },
    {
      "midi": 57,
      "hit": false,
      "t": 166859.6955,
      "d": 1084.8322499999776,
      "v": 110
    },
    {
      "midi": 64,
      "hit": false,
      "t": 167941.1199,
      "d": 1085.968200000003,
      "v": 108
    },
    {
      "midi": 57,
      "hit": false,
      "t": 169031.6319,
      "d": 7.951649999973597,
      "v": 117
    },
    {
      "midi": 64,
      "hit": false,
      "t": 169033.9038,
      "d": 1083.6962999999814,
      "v": 110
    },
    {
      "midi": 61,
      "hit": false,
      "t": 169036.1757,
      "d": 2.2718999999924563,
      "v": 103
    },
    {
      "midi": 62,
      "hit": false,
      "t": 170121.00794999997,
      "d": 1083.6962999999814,
      "v": 91
    },
    {
      "midi": 57,
      "hit": false,
      "t": 170122.14389999997,
      "d": 1088.2400999999954,
      "v": 86
    },
    {
      "midi": 35,
      "hit": false,
      "t": 170126.68769999995,
      "d": 4357.504199999967,
      "v": 87
    },
    {
      "midi": 66,
      "hit": false,
      "t": 170127.82364999995,
      "d": 1083.6963000000105,
      "v": 85
    },
    {
      "midi": 47,
      "hit": false,
      "t": 170130.09554999994,
      "d": 4356.36824999997,
      "v": 93
    },
    {
      "midi": 57,
      "hit": false,
      "t": 171211.51994999996,
      "d": 1081.424399999989,
      "v": 89
    },
    {
      "midi": 62,
      "hit": false,
      "t": 171213.79184999995,
      "d": 1087.1041499999992,
      "v": 90
    },
    {
      "midi": 66,
      "hit": false,
      "t": 171214.92779999995,
      "d": 1082.5603500000143,
      "v": 88
    },
    {
      "midi": 57,
      "hit": false,
      "t": 172302.03194999995,
      "d": 1082.5603499999852,
      "v": 90
    },
    {
      "midi": 62,
      "hit": false,
      "t": 172303.16789999994,
      "d": 1087.1041499999992,
      "v": 93
    },
    {
      "midi": 66,
      "hit": false,
      "t": 172305.43979999993,
      "d": 1090.512000000017,
      "v": 89
    },
    {
      "midi": 62,
      "hit": false,
      "t": 173394.81584999996,
      "d": 1087.10414999997,
      "v": 117
    },
    {
      "midi": 66,
      "hit": false,
      "t": 173398.22369999994,
      "d": 1083.6962999999814,
      "v": 122
    },
    {
      "midi": 57,
      "hit": false,
      "t": 173400.49559999994,
      "d": 1085.9681999999739,
      "v": 114
    },
    {
      "midi": 66,
      "hit": false,
      "t": 174487.5997499999,
      "d": 1089.3760499999626,
      "v": 84
    },
    {
      "midi": 57,
      "hit": false,
      "t": 174488.7356999999,
      "d": 1082.5603499999852,
      "v": 84
    },
    {
      "midi": 35,
      "hit": false,
      "t": 174492.1435499999,
      "d": 4355.232299999916,
      "v": 90
    },
    {
      "midi": 62,
      "hit": false,
      "t": 174493.2794999999,
      "d": 1087.10414999997,
      "v": 91
    },
    {
      "midi": 57,
      "hit": false,
      "t": 175574.70389999988,
      "d": 1088.2400999999954,
      "v": 85
    },
    {
      "midi": 66,
      "hit": false,
      "t": 175580.38364999986,
      "d": 1084.8322500000068,
      "v": 86
    },
    {
      "midi": 62,
      "hit": false,
      "t": 175580.38364999986,
      "d": 1085.968200000003,
      "v": 92
    },
    {
      "midi": 57,
      "hit": false,
      "t": 176668.62374999985,
      "d": 1085.968200000003,
      "v": 99
    },
    {
      "midi": 66,
      "hit": false,
      "t": 176674.30349999986,
      "d": 1090.5119999999588,
      "v": 90
    },
    {
      "midi": 57,
      "hit": false,
      "t": 177757.99979999984,
      "d": 1088.2400999999663,
      "v": 115
    },
    {
      "midi": 62,
      "hit": false,
      "t": 177759.13574999984,
      "d": 2.2718999999924563,
      "v": 114
    },
    {
      "midi": 47,
      "hit": false,
      "t": 178299.84794999982,
      "d": 546.3919499999902,
      "v": 84
    },
    {
      "midi": 66,
      "hit": false,
      "t": 178847.3758499998,
      "d": 9.087599999969825,
      "v": 106
    },
    {
      "midi": 62,
      "hit": false,
      "t": 178848.5117999998,
      "d": 1082.5603499999852,
      "v": 107
    },
    {
      "midi": 38,
      "hit": false,
      "t": 178848.5117999998,
      "d": 4356.368249999912,
      "v": 112
    },
    {
      "midi": 57,
      "hit": false,
      "t": 178851.9196499998,
      "d": 1083.6963000000105,
      "v": 113
    },
    {
      "midi": 50,
      "hit": false,
      "t": 178855.32749999978,
      "d": 4354.096349999949,
      "v": 101
    },
    {
      "midi": 66,
      "hit": false,
      "t": 179939.0237999998,
      "d": 1081.424399999989,
      "v": 107
    },
    {
      "midi": 62,
      "hit": false,
      "t": 179940.1597499998,
      "d": 1081.424399999989,
      "v": 112
    },
    {
      "midi": 57,
      "hit": false,
      "t": 179940.1597499998,
      "d": 1084.8322499999776,
      "v": 106
    },
    {
      "midi": 62,
      "hit": false,
      "t": 181030.67174999978,
      "d": 1085.9681999999739,
      "v": 113
    },
    {
      "midi": 57,
      "hit": false,
      "t": 181031.80769999977,
      "d": 1084.8322499999776,
      "v": 118
    },
    {
      "midi": 66,
      "hit": false,
      "t": 182120.04779999974,
      "d": 4.543799999984913,
      "v": 113
    },
    {
      "midi": 57,
      "hit": false,
      "t": 182123.45564999973,
      "d": 1080.2884499999927,
      "v": 113
    },
    {
      "midi": 62,
      "hit": false,
      "t": 182123.45564999973,
      "d": 1089.3760499999917,
      "v": 101
    },
    {
      "midi": 57,
      "hit": false,
      "t": 183210.55979999973,
      "d": 1083.6962999999814,
      "v": 103
    },
    {
      "midi": 35,
      "hit": false,
      "t": 183211.69574999972,
      "d": 4354.096349999978,
      "v": 106
    },
    {
      "midi": 66,
      "hit": false,
      "t": 183213.96764999971,
      "d": 1084.8322500000068,
      "v": 118
    },
    {
      "midi": 47,
      "hit": false,
      "t": 183213.96764999971,
      "d": 4358.640149999992,
      "v": 119
    },
    {
      "midi": 62,
      "hit": false,
      "t": 183215.1035999997,
      "d": 1083.6963000000105,
      "v": 117
    },
    {
      "midi": 66,
      "hit": false,
      "t": 184298.79989999972,
      "d": 1082.5603500000143,
      "v": 113
    },
    {
      "midi": 62,
      "hit": false,
      "t": 184305.61559999973,
      "d": 1087.1041499999992,
      "v": 114
    },
    {
      "midi": 57,
      "hit": false,
      "t": 184306.75154999972,
      "d": 1084.8322500000068,
      "v": 113
    },
    {
      "midi": 66,
      "hit": false,
      "t": 185394.99164999972,
      "d": 1082.5603499999852,
      "v": 107
    },
    {
      "midi": 62,
      "hit": false,
      "t": 185397.2635499997,
      "d": 1088.2400999999954,
      "v": 105
    },
    {
      "midi": 57,
      "hit": false,
      "t": 186478.6879499997,
      "d": 2.2718999999924563,
      "v": 112
    },
    {
      "midi": 66,
      "hit": false,
      "t": 186478.6879499997,
      "d": 1084.8322500000068,
      "v": 104
    },
    {
      "midi": 62,
      "hit": false,
      "t": 186488.9114999997,
      "d": 1090.512000000017,
      "v": 109
    },
    {
      "midi": 54,
      "hit": false,
      "t": 187570.3358999997,
      "d": 1082.5603499999852,
      "v": 106
    },
    {
      "midi": 30,
      "hit": false,
      "t": 187573.7437499997,
      "d": 4357.504199999938,
      "v": 108
    },
    {
      "midi": 57,
      "hit": false,
      "t": 187579.4234999997,
      "d": 1085.9681999999739,
      "v": 101
    },
    {
      "midi": 42,
      "hit": false,
      "t": 187579.4234999997,
      "d": 4360.912049999897,
      "v": 105
    },
    {
      "midi": 61,
      "hit": false,
      "t": 188660.8478999997,
      "d": 4.543799999984913,
      "v": 106
    },
    {
      "midi": 54,
      "hit": false,
      "t": 188663.1197999997,
      "d": 1088.2400999999954,
      "v": 118
    },
    {
      "midi": 57,
      "hit": false,
      "t": 188668.79954999968,
      "d": 1084.8322500000068,
      "v": 117
    },
    {
      "midi": 54,
      "hit": false,
      "t": 189755.90369999968,
      "d": 1082.5603499999852,
      "v": 118
    },
    {
      "midi": 57,
      "hit": false,
      "t": 189757.03964999967,
      "d": 1081.424399999989,
      "v": 107
    },
    {
      "midi": 54,
      "hit": false,
      "t": 190840.73594999965,
      "d": 1089.3760499999917,
      "v": 108
    },
    {
      "midi": 61,
      "hit": false,
      "t": 190846.41569999966,
      "d": 3.4078499999886844,
      "v": 116
    },
    {
      "midi": 57,
      "hit": false,
      "t": 190850.95949999965,
      "d": 1088.2400999999663,
      "v": 109
    },
    {
      "midi": 62,
      "hit": false,
      "t": 191931.24794999964,
      "d": 1089.3760499999626,
      "v": 102
    },
    {
      "midi": 43,
      "hit": false,
      "t": 191933.51984999963,
      "d": 4362.047999999893,
      "v": 118
    },
    {
      "midi": 59,
      "hit": false,
      "t": 191934.65579999963,
      "d": 1090.5119999999588,
      "v": 119
    },
    {
      "midi": 31,
      "hit": false,
      "t": 191935.79174999963,
      "d": 4358.640149999905,
      "v": 106
    },
    {
      "midi": 55,
      "hit": false,
      "t": 193022.8958999996,
      "d": 2.2718999999924563,
      "v": 107
    },
    {
      "midi": 62,
      "hit": false,
      "t": 193028.57564999958,
      "d": 1084.8322499999776,
      "v": 106
    },
    {
      "midi": 59,
      "hit": false,
      "t": 194114.54384999955,
      "d": 3.4078499999886844,
      "v": 103
    },
    {
      "midi": 55,
      "hit": false,
      "t": 194116.81574999954,
      "d": 1090.511999999988,
      "v": 112
    },
    {
      "midi": 62,
      "hit": false,
      "t": 195202.78394999955,
      "d": 2.2718999999924563,
      "v": 116
    },
    {
      "midi": 59,
      "hit": false,
      "t": 195211.87154999955,
      "d": 1087.10414999997,
      "v": 108
    },
    {
      "midi": 55,
      "hit": false,
      "t": 195213.00749999954,
      "d": 1083.6962999999814,
      "v": 104
    },
    {
      "midi": 62,
      "hit": false,
      "t": 196294.43189999953,
      "d": 1088.2400999999663,
      "v": 117
    },
    {
      "midi": 66,
      "hit": false,
      "t": 196297.83974999952,
      "d": 1082.5603499999852,
      "v": 105
    },
    {
      "midi": 38,
      "hit": false,
      "t": 196298.97569999952,
      "d": 4352.960399999982,
      "v": 107
    },
    {
      "midi": 50,
      "hit": false,
      "t": 196300.1116499995,
      "d": 4352.960399999982,
      "v": 106
    },
    {
      "midi": 57,
      "hit": false,
      "t": 196303.5194999995,
      "d": 1082.5603499999852,
      "v": 117
    },
    {
      "midi": 62,
      "hit": false,
      "t": 197386.07984999949,
      "d": 1083.6963000000105,
      "v": 112
    },
    {
      "midi": 57,
      "hit": false,
      "t": 197388.35174999948,
      "d": 1083.6963000000105,
      "v": 119
    },
    {
      "midi": 66,
      "hit": false,
      "t": 197394.0314999995,
      "d": 1080.2884499999927,
      "v": 117
    },
    {
      "midi": 66,
      "hit": false,
      "t": 198475.45589999948,
      "d": 1084.8322500000068,
      "v": 102
    },
    {
      "midi": 62,
      "hit": false,
      "t": 198481.1356499995,
      "d": 1084.8322500000068,
      "v": 116
    },
    {
      "midi": 57,
      "hit": false,
      "t": 198482.27159999948,
      "d": 1085.968200000003,
      "v": 104
    },
    {
      "midi": 62,
      "hit": false,
      "t": 199573.9195499995,
      "d": 1088.2400999999954,
      "v": 111
    },
    {
      "midi": 66,
      "hit": false,
      "t": 199575.0554999995,
      "d": 1088.2400999999954,
      "v": 107
    },
    {
      "midi": 35,
      "hit": false,
      "t": 200657.6158499995,
      "d": 4360.912049999984,
      "v": 115
    },
    {
      "midi": 57,
      "hit": false,
      "t": 200659.8877499995,
      "d": 1.1359499999962281,
      "v": 118
    },
    {
      "midi": 62,
      "hit": false,
      "t": 200662.1596499995,
      "d": 1081.424399999989,
      "v": 119
    },
    {
      "midi": 47,
      "hit": false,
      "t": 200663.2955999995,
      "d": 4357.504199999996,
      "v": 110
    },
    {
      "midi": 66,
      "hit": false,
      "t": 201749.2637999995,
      "d": 1.1359499999962281,
      "v": 105
    },
    {
      "midi": 57,
      "hit": false,
      "t": 201753.80759999948,
      "d": 1089.3760500000208,
      "v": 103
    },
    {
      "midi": 62,
      "hit": false,
      "t": 201754.94354999947,
      "d": 1082.5603500000143,
      "v": 116
    },
    {
      "midi": 62,
      "hit": false,
      "t": 202842.0476999995,
      "d": 1087.1041499999992,
      "v": 112
    },
    {
      "midi": 57,
      "hit": false,
      "t": 202843.1836499995,
      "d": 1085.968200000003,
      "v": 118
    },
    {
      "midi": 66,
      "hit": false,
      "t": 202843.1836499995,
      "d": 1085.968200000003,
      "v": 113
    },
    {
      "midi": 62,
      "hit": false,
      "t": 203929.1518499995,
      "d": 1085.968200000003,
      "v": 107
    },
    {
      "midi": 62,
      "hit": false,
      "t": 203930.2878,
      "d": 265.8122999999905,
      "v": 121
    },
    {
      "midi": 57,
      "hit": false,
      "t": 203932.5596999995,
      "d": 1085.968200000003,
      "v": 113
    },
    {
      "midi": 66,
      "hit": false,
      "t": 203932.5596999995,
      "d": 1087.1041499999992,
      "v": 111
    },
    {
      "midi": 64,
      "hit": false,
      "t": 204201.77985,
      "d": 271.49205000000075,
      "v": 121
    },
    {
      "midi": 66,
      "hit": false,
      "t": 204477.8157,
      "d": 266.94824999998673,
      "v": 116
    },
    {
      "midi": 69,
      "hit": false,
      "t": 204752.7156,
      "d": 4634.676000000007,
      "v": 124
    },
    {
      "midi": 57,
      "hit": false,
      "t": 205019.6638499995,
      "d": 1084.8322499999776,
      "v": 108
    },
    {
      "midi": 30,
      "hit": false,
      "t": 205021.93574999948,
      "d": 4357.504199999908,
      "v": 101
    },
    {
      "midi": 42,
      "hit": false,
      "t": 205024.20764999947,
      "d": 4357.504199999908,
      "v": 114
    },
    {
      "midi": 57,
      "hit": false,
      "t": 206107.90394999945,
      "d": 1085.9681999999739,
      "v": 107
    },
    {
      "midi": 61,
      "hit": false,
      "t": 206110.17584999945,
      "d": 2.2718999999924563,
      "v": 111
    },
    {
      "midi": 54,
      "hit": false,
      "t": 206111.31179999944,
      "d": 4.543799999984913,
      "v": 118
    },
    {
      "midi": 61,
      "hit": false,
      "t": 207202.95974999943,
      "d": 1084.8322500000068,
      "v": 118
    },
    {
      "midi": 54,
      "hit": false,
      "t": 207204.09569999942,
      "d": 1089.3760499999917,
      "v": 103
    },
    {
      "midi": 57,
      "hit": false,
      "t": 207208.63949999944,
      "d": 1088.2400999999663,
      "v": 114
    },
    {
      "midi": 61,
      "hit": false,
      "t": 208290.06389999943,
      "d": 1090.5119999999588,
      "v": 114
    },
    {
      "midi": 54,
      "hit": false,
      "t": 208298.0155499994,
      "d": 1087.10414999997,
      "v": 113
    },
    {
      "midi": 57,
      "hit": false,
      "t": 208299.1514999994,
      "d": 1081.424399999989,
      "v": 118
    },
    {
      "midi": 55,
      "hit": false,
      "t": 209381.71184999938,
      "d": 1082.5603499999852,
      "v": 105
    },
    {
      "midi": 59,
      "hit": false,
      "t": 209381.71184999938,
      "d": 1085.9681999999739,
      "v": 107
    },
    {
      "midi": 31,
      "hit": false,
      "t": 209383.98374999937,
      "d": 4356.368250000029,
      "v": 106
    },
    {
      "midi": 62,
      "hit": false,
      "t": 209385.11969999937,
      "d": 1089.3760499999917,
      "v": 117
    },
    {
      "midi": 43,
      "hit": false,
      "t": 209387.39159999936,
      "d": 4354.096350000036,
      "v": 104
    },
    {
      "midi": 55,
      "hit": false,
      "t": 210474.49574999936,
      "d": 1084.8322499999776,
      "v": 111
    },
    {
      "midi": 59,
      "hit": false,
      "t": 210479.03954999935,
      "d": 1084.8322500000068,
      "v": 110
    },
    {
      "midi": 59,
      "hit": false,
      "t": 211563.87179999935,
      "d": 1088.2401000000245,
      "v": 107
    },
    {
      "midi": 62,
      "hit": false,
      "t": 211565.00774999935,
      "d": 4.543800000014016,
      "v": 105
    },
    {
      "midi": 55,
      "hit": false,
      "t": 211565.00774999935,
      "d": 1082.5603500000143,
      "v": 104
    },
    {
      "midi": 59,
      "hit": false,
      "t": 212654.38379999937,
      "d": 1081.424400000018,
      "v": 114
    },
    {
      "midi": 55,
      "hit": false,
      "t": 212654.38379999937,
      "d": 1089.3760500000208,
      "v": 110
    },
    {
      "midi": 62,
      "hit": false,
      "t": 213743.7598499994,
      "d": 5.679749999981141,
      "v": 83
    },
    {
      "midi": 31,
      "hit": false,
      "t": 213746.03174999938,
      "d": 4357.504199999967,
      "v": 98
    },
    {
      "midi": 43,
      "hit": false,
      "t": 213746.03174999938,
      "d": 4357.504199999967,
      "v": 81
    },
    {
      "midi": 55,
      "hit": false,
      "t": 214836.54374999937,
      "d": 5.679749999981141,
      "v": 85
    },
    {
      "midi": 59,
      "hit": false,
      "t": 214838.81564999936,
      "d": 1.1359499999962281,
      "v": 90
    },
    {
      "midi": 62,
      "hit": false,
      "t": 215922.51194999935,
      "d": 1.1359499999962281,
      "v": 95
    },
    {
      "midi": 55,
      "hit": false,
      "t": 215928.19169999936,
      "d": 1087.1041500000283,
      "v": 87
    },
    {
      "midi": 55,
      "hit": false,
      "t": 217015.29584999938,
      "d": 1085.9681999999739,
      "v": 86
    },
    {
      "midi": 62,
      "hit": false,
      "t": 217018.70369999937,
      "d": 1082.5603499999852,
      "v": 90
    },
    {
      "midi": 59,
      "hit": false,
      "t": 217019.83964999937,
      "d": 2.2718999999924563,
      "v": 81
    },
    {
      "midi": 57,
      "hit": false,
      "t": 218104.67189999935,
      "d": 1088.2400999999954,
      "v": 93
    },
    {
      "midi": 61,
      "hit": false,
      "t": 218109.21569999936,
      "d": 1085.9681999999739,
      "v": 92
    },
    {
      "midi": 33,
      "hit": false,
      "t": 218109.21569999936,
      "d": 4357.504199999908,
      "v": 86
    },
    {
      "midi": 64,
      "hit": false,
      "t": 218110.35164999936,
      "d": 1084.8322499999776,
      "v": 90
    },
    {
      "midi": 45,
      "hit": false,
      "t": 218112.62354999935,
      "d": 4352.9603999999235,
      "v": 90
    },
    {
      "midi": 64,
      "hit": false,
      "t": 219198.59174999932,
      "d": 1083.6962999999814,
      "v": 88
    },
    {
      "midi": 61,
      "hit": false,
      "t": 219199.72769999932,
      "d": 1085.9681999999739,
      "v": 96
    },
    {
      "midi": 57,
      "hit": false,
      "t": 219200.86364999932,
      "d": 1088.2400999999663,
      "v": 83
    },
    {
      "midi": 61,
      "hit": false,
      "t": 220285.6958999993,
      "d": 1082.5603499999852,
      "v": 92
    },
    {
      "midi": 64,
      "hit": false,
      "t": 220287.9677999993,
      "d": 1088.2400999999954,
      "v": 99
    },
    {
      "midi": 57,
      "hit": false,
      "t": 220294.7834999993,
      "d": 1088.2400999999954,
      "v": 98
    },
    {
      "midi": 64,
      "hit": false,
      "t": 221385.29549999928,
      "d": 1085.9681999999739,
      "v": 90
    },
    {
      "midi": 57,
      "hit": false,
      "t": 221385.29549999928,
      "d": 1088.2400999999663,
      "v": 85
    },
    {
      "midi": 61,
      "hit": false,
      "t": 221385.29549999928,
      "d": 1090.5119999999588,
      "v": 83
    },
    {
      "midi": 35,
      "hit": false,
      "t": 222465.58394999927,
      "d": 3268.128149999917,
      "v": 91
    },
    {
      "midi": 66,
      "hit": false,
      "t": 222466.71989999927,
      "d": 1087.10414999997,
      "v": 84
    },
    {
      "midi": 47,
      "hit": false,
      "t": 222468.99179999926,
      "d": 3270.4000499999092,
      "v": 95
    },
    {
      "midi": 62,
      "hit": false,
      "t": 222470.12774999926,
      "d": 1088.2400999999663,
      "v": 87
    },
    {
      "midi": 66,
      "hit": false,
      "t": 223557.23189999923,
      "d": 1091.6479499999841,
      "v": 90
    },
    {
      "midi": 57,
      "hit": false,
      "t": 223559.50379999922,
      "d": 4.543799999984913,
      "v": 89
    },
    {
      "midi": 62,
      "hit": false,
      "t": 223562.9116499992,
      "d": 1085.968200000003,
      "v": 94
    },
    {
      "midi": 57,
      "hit": false,
      "t": 224647.74389999922,
      "d": 1084.8322499999776,
      "v": 86
    },
    {
      "midi": 66,
      "hit": false,
      "t": 224652.2876999992,
      "d": 1088.2400999999663,
      "v": 83
    },
    {
      "midi": 62,
      "hit": false,
      "t": 225737.11994999918,
      "d": 2.2718999999924563,
      "v": 110
    },
    {
      "midi": 66,
      "hit": false,
      "t": 225740.52779999917,
      "d": 1090.5119999999588,
      "v": 106
    },
    {
      "midi": 62,
      "hit": false,
      "t": 225740.5278,
      "d": 1087.1041499999992,
      "v": 121
    },
    {
      "midi": 45,
      "hit": false,
      "t": 225741.66374999916,
      "d": 1085.9681999999739,
      "v": 113
    },
    {
      "midi": 57,
      "hit": false,
      "t": 225742.79969999916,
      "d": 1081.424399999989,
      "v": 109
    },
    {
      "midi": 45,
      "hit": false,
      "t": 225742.7997,
      "d": 1088.2400999999954,
      "v": 121
    },
    {
      "midi": 57,
      "hit": false,
      "t": 225742.7997,
      "d": 1088.2400999999954,
      "v": 120
    },
    {
      "midi": 33,
      "hit": false,
      "t": 225743.93564999916,
      "d": 1089.3760499999626,
      "v": 115
    },
    {
      "midi": 66,
      "hit": false,
      "t": 225747.34350000002,
      "d": 1083.6962999999814,
      "v": 118
    },
    {
      "midi": 62,
      "hit": false,
      "t": 226831.03979999913,
      "d": 1083.6962999999814,
      "v": 90
    },
    {
      "midi": 59,
      "hit": false,
      "t": 226831.0398,
      "d": 3809.9762999999803,
      "v": 90
    },
    {
      "midi": 43,
      "hit": false,
      "t": 226833.3117,
      "d": 4351.8244499999855,
      "v": 88
    },
    {
      "midi": 55,
      "hit": false,
      "t": 226834.4476499991,
      "d": 1088.2400999999954,
      "v": 91
    },
    {
      "midi": 31,
      "hit": false,
      "t": 226834.4476499991,
      "d": 4355.232299999974,
      "v": 98
    },
    {
      "midi": 59,
      "hit": false,
      "t": 226835.5835999991,
      "d": 1087.1041499999992,
      "v": 88
    },
    {
      "midi": 62,
      "hit": false,
      "t": 226836.71954999998,
      "d": 3809.9762999999803,
      "v": 89
    },
    {
      "midi": 55,
      "hit": false,
      "t": 226837.85549999998,
      "d": 3806.5684499999916,
      "v": 92
    },
    {
      "midi": 62,
      "hit": false,
      "t": 227922.6877499991,
      "d": 1085.968200000003,
      "v": 82
    },
    {
      "midi": 55,
      "hit": false,
      "t": 227927.23154999912,
      "d": 1081.424399999989,
      "v": 90
    },
    {
      "midi": 59,
      "hit": false,
      "t": 227928.36749999912,
      "d": 1084.8322500000068,
      "v": 93
    },
    {
      "midi": 62,
      "hit": false,
      "t": 229013.19974999913,
      "d": 1085.9681999999739,
      "v": 81
    },
    {
      "midi": 59,
      "hit": false,
      "t": 229016.60759999912,
      "d": 1090.511999999988,
      "v": 88
    },
    {
      "midi": 55,
      "hit": false,
      "t": 229017.7435499991,
      "d": 1081.424399999989,
      "v": 90
    },
    {
      "midi": 62,
      "hit": false,
      "t": 230099.1679499991,
      "d": 1087.1041499999992,
      "v": 88
    },
    {
      "midi": 59,
      "hit": false,
      "t": 230107.1195999991,
      "d": 1081.424399999989,
      "v": 90
    },
    {
      "midi": 43,
      "hit": false,
      "t": 230648.9677499991,
      "d": 542.9840999999724,
      "v": 82
    },
    {
      "midi": 60,
      "hit": false,
      "t": 230652.37559999997,
      "d": 538.4403000000166,
      "v": 118
    },
    {
      "midi": 62,
      "hit": false,
      "t": 230653.51154999997,
      "d": 545.256000000023,
      "v": 116
    },
    {
      "midi": 55,
      "hit": false,
      "t": 230654.64749999996,
      "d": 540.7122000000381,
      "v": 122
    },
    {
      "midi": 55,
      "hit": false,
      "t": 231194.22374999907,
      "d": 3.4078499999886844,
      "v": 101
    },
    {
      "midi": 31,
      "hit": false,
      "t": 231195.35969999907,
      "d": 4357.504199999967,
      "v": 114
    },
    {
      "midi": 59,
      "hit": false,
      "t": 231196.49564999907,
      "d": 1084.8322500000068,
      "v": 108
    },
    {
      "midi": 43,
      "hit": false,
      "t": 231196.49564999907,
      "d": 4359.776099999959,
      "v": 119
    },
    {
      "midi": 59,
      "hit": false,
      "t": 232282.46384999907,
      "d": 1088.2400999999663,
      "v": 116
    },
    {
      "midi": 62,
      "hit": false,
      "t": 232285.87169999906,
      "d": 1.1359499999962281,
      "v": 109
    },
    {
      "midi": 55,
      "hit": false,
      "t": 233376.38369999905,
      "d": 1.1359499999962281,
      "v": 118
    },
    {
      "midi": 62,
      "hit": false,
      "t": 233380.92749999903,
      "d": 1082.5603500000143,
      "v": 106
    },
    {
      "midi": 59,
      "hit": false,
      "t": 233380.92749999903,
      "d": 1084.8322500000068,
      "v": 109
    },
    {
      "midi": 55,
      "hit": false,
      "t": 234465.75974999904,
      "d": 1082.5603500000143,
      "v": 113
    },
    {
      "midi": 62,
      "hit": false,
      "t": 234465.75974999904,
      "d": 1083.6963000000105,
      "v": 108
    },
    {
      "midi": 59,
      "hit": false,
      "t": 234470.30354999905,
      "d": 1081.424399999989,
      "v": 103
    },
    {
      "midi": 45,
      "hit": false,
      "t": 235552.86389999904,
      "d": 4354.096349999949,
      "v": 113
    },
    {
      "midi": 33,
      "hit": false,
      "t": 235553.99984999903,
      "d": 4357.504199999967,
      "v": 116
    },
    {
      "midi": 57,
      "hit": false,
      "t": 235556.27174999902,
      "d": 1083.6962999999814,
      "v": 114
    },
    {
      "midi": 64,
      "hit": false,
      "t": 235557.40769999902,
      "d": 1081.424399999989,
      "v": 102
    },
    {
      "midi": 61,
      "hit": false,
      "t": 236650.191599999,
      "d": 1.1359499999962281,
      "v": 104
    },
    {
      "midi": 57,
      "hit": false,
      "t": 237735.023849999,
      "d": 4.543799999984913,
      "v": 109
    },
    {
      "midi": 61,
      "hit": false,
      "t": 237735.023849999,
      "d": 1084.8322499999776,
      "v": 117
    },
    {
      "midi": 64,
      "hit": false,
      "t": 237736.159799999,
      "d": 1.1359499999962281,
      "v": 101
    },
    {
      "midi": 57,
      "hit": false,
      "t": 238825.535849999,
      "d": 1085.968200000003,
      "v": 103
    },
    {
      "midi": 64,
      "hit": false,
      "t": 238831.215599999,
      "d": 1085.9681999999739,
      "v": 102
    },
    {
      "midi": 61,
      "hit": false,
      "t": 238833.487499999,
      "d": 1087.10414999997,
      "v": 109
    },
    {
      "midi": 66,
      "hit": false,
      "t": 239914.911899999,
      "d": 1084.8322499999776,
      "v": 98
    },
    {
      "midi": 57,
      "hit": false,
      "t": 239916.04784999898,
      "d": 1085.9681999999739,
      "v": 90
    },
    {
      "midi": 47,
      "hit": false,
      "t": 239916.04784999898,
      "d": 4356.36824999997,
      "v": 99
    },
    {
      "midi": 35,
      "hit": false,
      "t": 239919.45569999897,
      "d": 4358.640149999963,
      "v": 95
    },
    {
      "midi": 57,
      "hit": false,
      "t": 241006.55984999897,
      "d": 1090.511999999988,
      "v": 88
    },
    {
      "midi": 62,
      "hit": false,
      "t": 241008.83174999896,
      "d": 1.1359499999962281,
      "v": 87
    },
    {
      "midi": 66,
      "hit": false,
      "t": 242095.93589999896,
      "d": 2.2718999999924563,
      "v": 85
    },
    {
      "midi": 57,
      "hit": false,
      "t": 242098.20779999896,
      "d": 1088.2400999999954,
      "v": 99
    },
    {
      "midi": 62,
      "hit": false,
      "t": 242100.47969999895,
      "d": 1088.2400999999954,
      "v": 94
    },
    {
      "midi": 57,
      "hit": false,
      "t": 243187.58384999895,
      "d": 1085.968200000003,
      "v": 108
    },
    {
      "midi": 62,
      "hit": false,
      "t": 243193.26359999896,
      "d": 1083.6962999999814,
      "v": 113
    },
    {
      "midi": 66,
      "hit": false,
      "t": 243193.26359999896,
      "d": 1083.6962999999814,
      "v": 116
    },
    {
      "midi": 57,
      "hit": false,
      "t": 244275.82394999894,
      "d": 1085.968200000003,
      "v": 94
    },
    {
      "midi": 62,
      "hit": false,
      "t": 244279.23179999893,
      "d": 1082.5603500000143,
      "v": 88
    },
    {
      "midi": 35,
      "hit": false,
      "t": 244283.77559999895,
      "d": 4355.232299999974,
      "v": 95
    },
    {
      "midi": 66,
      "hit": false,
      "t": 244284.91154999894,
      "d": 1089.3760500000208,
      "v": 90
    },
    {
      "midi": 57,
      "hit": false,
      "t": 245367.47189999896,
      "d": 1085.968200000003,
      "v": 83
    },
    {
      "midi": 62,
      "hit": false,
      "t": 245372.01569999897,
      "d": 1087.10414999997,
      "v": 89
    },
    {
      "midi": 66,
      "hit": false,
      "t": 245375.42354999896,
      "d": 1088.2400999999954,
      "v": 93
    },
    {
      "midi": 57,
      "hit": false,
      "t": 246456.84794999895,
      "d": 1087.1041499999992,
      "v": 96
    },
    {
      "midi": 66,
      "hit": false,
      "t": 246463.66364999895,
      "d": 1087.1041499999992,
      "v": 81
    },
    {
      "midi": 66,
      "hit": false,
      "t": 247553.03969999895,
      "d": 1084.8322499999776,
      "v": 107
    },
    {
      "midi": 62,
      "hit": false,
      "t": 247554.17564999894,
      "d": 3.4078499999886844,
      "v": 112
    },
    {
      "midi": 57,
      "hit": false,
      "t": 247555.31159999894,
      "d": 1084.8322499999776,
      "v": 124
    },
    {
      "midi": 47,
      "hit": false,
      "t": 248093.75189999893,
      "d": 542.9841000000015,
      "v": 81
    },
    {
      "midi": 55,
      "hit": false,
      "t": 248640.14384999892,
      "d": 1083.6962999999814,
      "v": 84
    },
    {
      "midi": 59,
      "hit": false,
      "t": 248640.14384999892,
      "d": 1085.9681999999739,
      "v": 97
    },
    {
      "midi": 43,
      "hit": false,
      "t": 248640.14384999892,
      "d": 4356.368249999941,
      "v": 89
    },
    {
      "midi": 31,
      "hit": false,
      "t": 248643.5516999989,
      "d": 4362.0479999999225,
      "v": 94
    },
    {
      "midi": 62,
      "hit": false,
      "t": 248645.8235999989,
      "d": 1087.1041499999992,
      "v": 90
    },
    {
      "midi": 55,
      "hit": false,
      "t": 249731.7917999989,
      "d": 1083.6962999999814,
      "v": 93
    },
    {
      "midi": 59,
      "hit": false,
      "t": 249734.0636999989,
      "d": 1082.5603499999852,
      "v": 99
    },
    {
      "midi": 62,
      "hit": false,
      "t": 249735.1996499989,
      "d": 1083.6962999999814,
      "v": 83
    },
    {
      "midi": 59,
      "hit": false,
      "t": 250823.43974999888,
      "d": 1087.10414999997,
      "v": 91
    },
    {
      "midi": 55,
      "hit": false,
      "t": 250826.84759999887,
      "d": 1082.5603499999852,
      "v": 95
    },
    {
      "midi": 62,
      "hit": false,
      "t": 250829.11949999887,
      "d": 1087.1041499999992,
      "v": 81
    },
    {
      "midi": 59,
      "hit": false,
      "t": 251911.67984999885,
      "d": 1090.511999999988,
      "v": 99
    },
    {
      "midi": 55,
      "hit": false,
      "t": 251917.35959999886,
      "d": 1089.3760499999626,
      "v": 87
    },
    {
      "midi": 62,
      "hit": false,
      "t": 251919.63149999885,
      "d": 1090.5119999999588,
      "v": 92
    },
    {
      "midi": 33,
      "hit": false,
      "t": 252999.91994999885,
      "d": 4352.960399999894,
      "v": 96
    },
    {
      "midi": 45,
      "hit": false,
      "t": 253001.05589999884,
      "d": 4356.368249999883,
      "v": 97
    },
    {
      "midi": 64,
      "hit": false,
      "t": 253002.19184999884,
      "d": 1090.5119999999588,
      "v": 96
    },
    {
      "midi": 57,
      "hit": false,
      "t": 253005.59969999883,
      "d": 1083.6962999999814,
      "v": 93
    },
    {
      "midi": 61,
      "hit": false,
      "t": 253005.59969999883,
      "d": 1085.9681999999739,
      "v": 87
    },
    {
      "midi": 57,
      "hit": false,
      "t": 254092.7038499988,
      "d": 1088.2400999999663,
      "v": 86
    },
    {
      "midi": 61,
      "hit": false,
      "t": 254093.8397999988,
      "d": 1091.647949999955,
      "v": 88
    },
    {
      "midi": 64,
      "hit": false,
      "t": 254096.1116999988,
      "d": 1081.424399999989,
      "v": 83
    },
    {
      "midi": 57,
      "hit": false,
      "t": 255182.07989999876,
      "d": 1088.2400999999954,
      "v": 91
    },
    {
      "midi": 61,
      "hit": false,
      "t": 255186.62369999874,
      "d": 1081.424400000018,
      "v": 83
    },
    {
      "midi": 64,
      "hit": false,
      "t": 255191.16749999876,
      "d": 1084.8322499999776,
      "v": 91
    },
    {
      "midi": 61,
      "hit": false,
      "t": 256272.59189999875,
      "d": 1081.424399999989,
      "v": 91
    },
    {
      "midi": 57,
      "hit": false,
      "t": 256277.13569999873,
      "d": 1080.2884499999927,
      "v": 91
    },
    {
      "midi": 64,
      "hit": false,
      "t": 256278.27164999873,
      "d": 1081.424399999989,
      "v": 96
    },
    {
      "midi": 47,
      "hit": false,
      "t": 257361.9679499987,
      "d": 3270.4000500000257,
      "v": 84
    },
    {
      "midi": 57,
      "hit": false,
      "t": 257369.9195999987,
      "d": 1084.8322500000068,
      "v": 86
    },
    {
      "midi": 66,
      "hit": false,
      "t": 257371.0555499987,
      "d": 1084.8322500000068,
      "v": 88
    },
    {
      "midi": 62,
      "hit": false,
      "t": 257372.1914999987,
      "d": 1083.6963000000105,
      "v": 99
    },
    {
      "midi": 35,
      "hit": false,
      "t": 257372.1914999987,
      "d": 3262.448400000023,
      "v": 94
    },
    {
      "midi": 57,
      "hit": false,
      "t": 258458.1596999987,
      "d": 1080.2884500000218,
      "v": 89
    },
    {
      "midi": 62,
      "hit": false,
      "t": 258458.1596999987,
      "d": 1082.5603500000143,
      "v": 85
    },
    {
      "midi": 66,
      "hit": false,
      "t": 258462.70349999872,
      "d": 1082.5603500000143,
      "v": 99
    },
    {
      "midi": 57,
      "hit": false,
      "t": 259545.26384999874,
      "d": 1080.2884499999927,
      "v": 81
    },
    {
      "midi": 62,
      "hit": false,
      "t": 259548.67169999873,
      "d": 1081.424400000018,
      "v": 96
    },
    {
      "midi": 66,
      "hit": false,
      "t": 260635.77584999872,
      "d": 9.087599999998929,
      "v": 117
    },
    {
      "midi": 33,
      "hit": false,
      "t": 260635.77584999872,
      "d": 1082.5603499999852,
      "v": 113
    },
    {
      "midi": 57,
      "hit": false,
      "t": 260635.77584999998,
      "d": 1088.2400999999954,
      "v": 122
    },
    {
      "midi": 45,
      "hit": false,
      "t": 260638.04774999872,
      "d": 1083.6962999999814,
      "v": 108
    },
    {
      "midi": 57,
      "hit": false,
      "t": 260638.04774999872,
      "d": 1087.10414999997,
      "v": 122
    },
    {
      "midi": 62,
      "hit": false,
      "t": 260639.1836999987,
      "d": 1083.6962999999814,
      "v": 121
    },
    {
      "midi": 66,
      "hit": false,
      "t": 260639.18369999997,
      "d": 1081.424400000018,
      "v": 123
    },
    {
      "midi": 62,
      "hit": false,
      "t": 260639.18369999997,
      "d": 1090.512000000017,
      "v": 120
    },
    {
      "midi": 45,
      "hit": false,
      "t": 260643.72749999998,
      "d": 1084.8322500000068,
      "v": 123
    },
    {
      "midi": 62,
      "hit": false,
      "t": 261728.55974999868,
      "d": 1083.6962999999523,
      "v": 96
    },
    {
      "midi": 59,
      "hit": false,
      "t": 261728.55974999868,
      "d": 1085.9681999999448,
      "v": 87
    },
    {
      "midi": 62,
      "hit": false,
      "t": 261733.10354999997,
      "d": 3809.9763000000094,
      "v": 89
    },
    {
      "midi": 43,
      "hit": false,
      "t": 261733.10354999997,
      "d": 4352.960400000011,
      "v": 88
    },
    {
      "midi": 55,
      "hit": false,
      "t": 261734.23949999997,
      "d": 3808.840350000013,
      "v": 91
    },
    {
      "midi": 59,
      "hit": false,
      "t": 261734.23949999997,
      "d": 3811.1122500000056,
      "v": 92
    },
    {
      "midi": 59,
      "hit": false,
      "t": 262815.66389999865,
      "d": 1083.6963000000687,
      "v": 88
    },
    {
      "midi": 55,
      "hit": false,
      "t": 262816.7998499987,
      "d": 1.135950000025332,
      "v": 96
    },
    {
      "midi": 62,
      "hit": false,
      "t": 263906.1758999987,
      "d": 3.4078500000177883,
      "v": 81
    },
    {
      "midi": 59,
      "hit": false,
      "t": 263906.1758999987,
      "d": 1085.968200000003,
      "v": 95
    },
    {
      "midi": 55,
      "hit": false,
      "t": 263908.4477999987,
      "d": 1088.2401000000536,
      "v": 89
    },
    {
      "midi": 62,
      "hit": false,
      "t": 264995.5519499987,
      "d": 2.271900000050664,
      "v": 88
    },
    {
      "midi": 59,
      "hit": false,
      "t": 264995.5519499987,
      "d": 1081.424400000018,
      "v": 90
    },
    {
      "midi": 55,
      "hit": false,
      "t": 265002.36764999875,
      "d": 1085.9681999999448,
      "v": 96
    },
    {
      "midi": 62,
      "hit": false,
      "t": 265543.07985,
      "d": 538.4403000000166,
      "v": 121
    },
    {
      "midi": 43,
      "hit": false,
      "t": 265544.2157999987,
      "d": 537.3043499999912,
      "v": 97
    },
    {
      "midi": 60,
      "hit": false,
      "t": 265546.4877,
      "d": 539.5762499999837,
      "v": 117
    },
    {
      "midi": 55,
      "hit": false,
      "t": 265551.0315,
      "d": 546.3919500000193,
      "v": 116
    },
    {
      "midi": 59,
      "hit": false,
      "t": 266086.0639499987,
      "d": 1085.9682000000612,
      "v": 90
    },
    {
      "midi": 43,
      "hit": false,
      "t": 266088.3358499987,
      "d": 6.8157000000355765,
      "v": 90
    },
    {
      "midi": 55,
      "hit": false,
      "t": 266090.6077499987,
      "d": 1084.832250000094,
      "v": 82
    },
    {
      "midi": 31,
      "hit": false,
      "t": 266091.7436999987,
      "d": 4.54380000004312,
      "v": 93
    },
    {
      "midi": 62,
      "hit": false,
      "t": 266094.0155999987,
      "d": 1090.5120000001043,
      "v": 98
    },
    {
      "midi": 55,
      "hit": false,
      "t": 267178.8478499988,
      "d": 1089.3760500000208,
      "v": 81
    },
    {
      "midi": 59,
      "hit": false,
      "t": 267184.5275999988,
      "d": 1088.2400999999954,
      "v": 90
    },
    {
      "midi": 62,
      "hit": false,
      "t": 267186.7994999988,
      "d": 1081.424400000018,
      "v": 87
    },
    {
      "midi": 62,
      "hit": false,
      "t": 268272.7676999988,
      "d": 1091.6479500000714,
      "v": 99
    },
    {
      "midi": 59,
      "hit": false,
      "t": 268273.9036499988,
      "d": 1083.6963000000105,
      "v": 90
    },
    {
      "midi": 55,
      "hit": false,
      "t": 269363.27969999885,
      "d": 1.135950000025332,
      "v": 97
    },
    {
      "midi": 59,
      "hit": false,
      "t": 269365.5515999989,
      "d": 1081.424400000018,
      "v": 91
    },
    {
      "midi": 62,
      "hit": false,
      "t": 269367.8234999989,
      "d": 1085.9682000000612,
      "v": 90
    },
    {
      "midi": 45,
      "hit": false,
      "t": 270450.38384999894,
      "d": 4362.048000000126,
      "v": 93
    },
    {
      "midi": 33,
      "hit": false,
      "t": 270452.6557499989,
      "d": 4358.640150000108,
      "v": 83
    },
    {
      "midi": 61,
      "hit": false,
      "t": 270454.927649999,
      "d": 1080.288450000051,
      "v": 90
    },
    {
      "midi": 57,
      "hit": false,
      "t": 270454.927649999,
      "d": 1089.376050000079,
      "v": 99
    },
    {
      "midi": 64,
      "hit": false,
      "t": 270456.063599999,
      "d": 1081.424400000018,
      "v": 89
    },
    {
      "midi": 64,
      "hit": false,
      "t": 271540.89584999904,
      "d": 1082.5603499999852,
      "v": 99
    },
    {
      "midi": 57,
      "hit": false,
      "t": 271544.30369999906,
      "d": 1080.2884499999927,
      "v": 85
    },
    {
      "midi": 61,
      "hit": false,
      "t": 272629.13594999904,
      "d": 5.6797500000102445,
      "v": 99
    },
    {
      "midi": 57,
      "hit": false,
      "t": 272629.13594999904,
      "d": 1091.6479500000132,
      "v": 87
    },
    {
      "midi": 64,
      "hit": false,
      "t": 272635.9516499991,
      "d": 1082.5603499999852,
      "v": 90
    },
    {
      "midi": 64,
      "hit": false,
      "t": 273720.78389999905,
      "d": 1083.6963000000105,
      "v": 90
    },
    {
      "midi": 57,
      "hit": false,
      "t": 273721.9198499991,
      "d": 1087.10414999997,
      "v": 89
    },
    {
      "midi": 61,
      "hit": false,
      "t": 273727.5995999991,
      "d": 1088.2400999999954,
      "v": 89
    },
    {
      "midi": 47,
      "hit": false,
      "t": 274811.29589999904,
      "d": 3269.264100000204,
      "v": 87
    },
    {
      "midi": 62,
      "hit": false,
      "t": 274814.70374999905,
      "d": 1084.832250000094,
      "v": 85
    },
    {
      "midi": 66,
      "hit": false,
      "t": 274815.8396999991,
      "d": 1082.5603500000434,
      "v": 90
    },
    {
      "midi": 35,
      "hit": false,
      "t": 274816.9756499991,
      "d": 3271.5360000002547,
      "v": 90
    },
    {
      "midi": 66,
      "hit": false,
      "t": 275904.07979999913,
      "d": 1085.9682000000612,
      "v": 93
    },
    {
      "midi": 57,
      "hit": false,
      "t": 275905.21574999916,
      "d": 1.135950000025332,
      "v": 86
    },
    {
      "midi": 66,
      "hit": false,
      "t": 276991.1839499992,
      "d": 1085.968200000003,
      "v": 90
    },
    {
      "midi": 57,
      "hit": false,
      "t": 276994.5918,
      "d": 1089.3760500000208,
      "v": 117
    },
    {
      "midi": 62,
      "hit": false,
      "t": 276996.86369999923,
      "d": 3.4078500000177883,
      "v": 93
    },
    {
      "midi": 66,
      "hit": false,
      "t": 278081.69594999927,
      "d": 1085.9682000001194,
      "v": 121
    },
    {
      "midi": 57,
      "hit": false,
      "t": 278082.8318999993,
      "d": 1.135950000025332,
      "v": 106
    },
    {
      "midi": 45,
      "hit": false,
      "t": 278085.10379999934,
      "d": 1088.2401000000536,
      "v": 108
    },
    {
      "midi": 33,
      "hit": false,
      "t": 278085.10379999934,
      "d": 1091.6479500000714,
      "v": 113
    },
    {
      "midi": 66,
      "hit": false,
      "t": 278087.37570000003,
      "d": 1084.8322500000359,
      "v": 121
    },
    {
      "midi": 57,
      "hit": false,
      "t": 278087.37570000003,
      "d": 1089.376050000079,
      "v": 120
    },
    {
      "midi": 45,
      "hit": false,
      "t": 278090.78355000005,
      "d": 1085.9682000000612,
      "v": 122
    },
    {
      "midi": 62,
      "hit": false,
      "t": 278091.9195000001,
      "d": 1081.424400000018,
      "v": 122
    },
    {
      "midi": 62,
      "hit": false,
      "t": 279173.3438999994,
      "d": 4.54380000004312,
      "v": 87
    },
    {
      "midi": 55,
      "hit": false,
      "t": 279176.7517499994,
      "d": 1085.9682000000612,
      "v": 88
    },
    {
      "midi": 55,
      "hit": false,
      "t": 279176.7517500001,
      "d": 3817.927950000041,
      "v": 90
    },
    {
      "midi": 59,
      "hit": false,
      "t": 279180.15960000013,
      "d": 3808.840350000013,
      "v": 90
    },
    {
      "midi": 62,
      "hit": false,
      "t": 279180.15960000013,
      "d": 3812.248200000031,
      "v": 89
    },
    {
      "midi": 59,
      "hit": false,
      "t": 279181.29554999946,
      "d": 1085.9682000000612,
      "v": 90
    },
    {
      "midi": 43,
      "hit": false,
      "t": 279181.29555000016,
      "d": 4354.096350000065,
      "v": 93
    },
    {
      "midi": 55,
      "hit": false,
      "t": 280266.1277999995,
      "d": 1081.424400000018,
      "v": 95
    },
    {
      "midi": 62,
      "hit": false,
      "t": 280266.1277999995,
      "d": 1085.968200000003,
      "v": 98
    },
    {
      "midi": 59,
      "hit": false,
      "t": 280269.5356499995,
      "d": 1082.5603499999852,
      "v": 96
    },
    {
      "midi": 59,
      "hit": false,
      "t": 281354.3678999995,
      "d": 1081.4243999999599,
      "v": 83
    },
    {
      "midi": 55,
      "hit": false,
      "t": 281354.3678999995,
      "d": 1089.3760499999626,
      "v": 85
    },
    {
      "midi": 62,
      "hit": false,
      "t": 281361.18359999947,
      "d": 1082.5603499999852,
      "v": 97
    },
    {
      "midi": 62,
      "hit": false,
      "t": 282446.01584999944,
      "d": 1084.8322500000359,
      "v": 89
    },
    {
      "midi": 55,
      "hit": false,
      "t": 282453.96749999945,
      "d": 1080.288450000051,
      "v": 90
    },
    {
      "midi": 43,
      "hit": false,
      "t": 282993.54374999943,
      "d": 536.1684000000241,
      "v": 82
    },
    {
      "midi": 59,
      "hit": false,
      "t": 282995.8156500002,
      "d": 539.5762500000419,
      "v": 120
    },
    {
      "midi": 55,
      "hit": false,
      "t": 282995.8156500002,
      "d": 540.7122000000672,
      "v": 123
    },
    {
      "midi": 62,
      "hit": false,
      "t": 282999.2235000002,
      "d": 538.4403000000748,
      "v": 118
    },
    {
      "midi": 59,
      "hit": false,
      "t": 283535.3918999995,
      "d": 3.4078500000177883,
      "v": 98
    },
    {
      "midi": 31,
      "hit": false,
      "t": 283536.52784999955,
      "d": 2.2718999999924563,
      "v": 98
    },
    {
      "midi": 55,
      "hit": false,
      "t": 283536.52784999955,
      "d": 1085.968200000003,
      "v": 85
    },
    {
      "midi": 62,
      "hit": false,
      "t": 283539.93569999957,
      "d": 1085.968200000003,
      "v": 90
    },
    {
      "midi": 43,
      "hit": false,
      "t": 283541.0716500003,
      "d": 541.8481499999762,
      "v": 123
    },
    {
      "midi": 43,
      "hit": false,
      "t": 283542.20759999956,
      "d": 4355.232300000149,
      "v": 85
    },
    {
      "midi": 62,
      "hit": false,
      "t": 284627.0398499996,
      "d": 1085.968200000003,
      "v": 97
    },
    {
      "midi": 55,
      "hit": false,
      "t": 284630.4476999996,
      "d": 1088.2400999999954,
      "v": 87
    },
    {
      "midi": 59,
      "hit": false,
      "t": 284630.4476999996,
      "d": 1088.2400999999954,
      "v": 81
    },
    {
      "midi": 59,
      "hit": false,
      "t": 285719.82374999963,
      "d": 1083.6963000000687,
      "v": 96
    },
    {
      "midi": 55,
      "hit": false,
      "t": 285720.95969999966,
      "d": 1085.9682000000612,
      "v": 97
    },
    {
      "midi": 62,
      "hit": false,
      "t": 286805.7919499997,
      "d": 6.8157000000355765,
      "v": 85
    },
    {
      "midi": 55,
      "hit": false,
      "t": 286809.1997999997,
      "d": 1081.424400000018,
      "v": 90
    },
    {
      "midi": 59,
      "hit": false,
      "t": 286813.74359999975,
      "d": 1089.3760499999626,
      "v": 90
    },
    {
      "midi": 64,
      "hit": false,
      "t": 287897.4398999997,
      "d": 1090.512000000046,
      "v": 86
    },
    {
      "midi": 57,
      "hit": false,
      "t": 287901.9836999997,
      "d": 1083.6963000000687,
      "v": 95
    },
    {
      "midi": 33,
      "hit": false,
      "t": 287901.9836999997,
      "d": 4362.048000000301,
      "v": 91
    },
    {
      "midi": 45,
      "hit": false,
      "t": 287905.3915499997,
      "d": 4358.640150000283,
      "v": 86
    },
    {
      "midi": 57,
      "hit": false,
      "t": 288991.35974999977,
      "d": 1085.9682000000612,
      "v": 93
    },
    {
      "midi": 61,
      "hit": false,
      "t": 288992.4956999998,
      "d": 3.4078500000177883,
      "v": 87
    },
    {
      "midi": 64,
      "hit": false,
      "t": 290078.46389999986,
      "d": 3.4078500000177883,
      "v": 92
    },
    {
      "midi": 57,
      "hit": false,
      "t": 290078.46389999986,
      "d": 1081.424400000018,
      "v": 81
    },
    {
      "midi": 61,
      "hit": false,
      "t": 290083.0076999999,
      "d": 1082.5603499999852,
      "v": 85
    },
    {
      "midi": 64,
      "hit": false,
      "t": 291173.5196999999,
      "d": 1084.8322500000359,
      "v": 88
    },
    {
      "midi": 61,
      "hit": false,
      "t": 291176.9275499999,
      "d": 1081.424400000018,
      "v": 85
    },
    {
      "midi": 47,
      "hit": false,
      "t": 292258.3519499999,
      "d": 3270.400050000171,
      "v": 92
    },
    {
      "midi": 57,
      "hit": false,
      "t": 292259.48789999995,
      "d": 4.54380000004312,
      "v": 89
    },
    {
      "midi": 64,
      "hit": false,
      "t": 292259.48789999995,
      "d": 1084.8322500000359,
      "v": 94
    },
    {
      "midi": 66,
      "hit": false,
      "t": 292260.62385,
      "d": 1088.2400999999954,
      "v": 88
    },
    {
      "midi": 35,
      "hit": false,
      "t": 292267.43955,
      "d": 3265.856250000128,
      "v": 83
    },
    {
      "midi": 64,
      "hit": false,
      "t": 293352.2718,
      "d": 1082.5603499999852,
      "v": 83
    },
    {
      "midi": 66,
      "hit": false,
      "t": 293354.5437,
      "d": 1089.3760500000208,
      "v": 93
    },
    {
      "midi": 57,
      "hit": false,
      "t": 293357.95155,
      "d": 1087.1041500000283,
      "v": 99
    },
    {
      "midi": 62,
      "hit": false,
      "t": 294443.91975,
      "d": 1083.6963000000687,
      "v": 84
    },
    {
      "midi": 66,
      "hit": false,
      "t": 294447.3276000001,
      "d": 1084.8322500000359,
      "v": 95
    },
    {
      "midi": 59,
      "hit": false,
      "t": 295259.53185000026,
      "d": 270.35610000015004,
      "v": 122
    },
    {
      "midi": 66,
      "hit": false,
      "t": 295262.9397000003,
      "d": 262.4044500000891,
      "v": 120
    },
    {
      "midi": 62,
      "hit": false,
      "t": 295264.0756500003,
      "d": 264.6763500000816,
      "v": 120
    },
    {
      "midi": 57,
      "hit": false,
      "t": 295266.34755000036,
      "d": 268.0842000000994,
      "v": 123
    },
    {
      "midi": 57,
      "hit": false,
      "t": 295532.1598500001,
      "d": 1.135950000025332,
      "v": 120
    },
    {
      "midi": 62,
      "hit": false,
      "t": 295532.1598500001,
      "d": 1082.5603500000434,
      "v": 123
    },
    {
      "midi": 59,
      "hit": false,
      "t": 295533.29580000043,
      "d": 270.3561000000918,
      "v": 116
    },
    {
      "midi": 47,
      "hit": false,
      "t": 295534.43175000045,
      "d": 3.4078500000177883,
      "v": 118
    },
    {
      "midi": 33,
      "hit": false,
      "t": 295535.56770000013,
      "d": 1082.5603500000434,
      "v": 120
    },
    {
      "midi": 66,
      "hit": false,
      "t": 295535.56770000013,
      "d": 1089.376050000079,
      "v": 115
    },
    {
      "midi": 62,
      "hit": false,
      "t": 295535.5677000005,
      "d": 265.8123000000487,
      "v": 116
    },
    {
      "midi": 45,
      "hit": false,
      "t": 295538.97555000015,
      "d": 1084.8322500000359,
      "v": 107
    },
    {
      "midi": 66,
      "hit": false,
      "t": 295538.9755500005,
      "d": 272.6280000000843,
      "v": 116
    },
    {
      "midi": 57,
      "hit": false,
      "t": 295540.1115000005,
      "d": 263.54039999999804,
      "v": 120
    },
    {
      "midi": 57,
      "hit": false,
      "t": 295804.78785000055,
      "d": 270.3561000000336,
      "v": 121
    },
    {
      "midi": 59,
      "hit": false,
      "t": 295805.9238000006,
      "d": 263.54039999999804,
      "v": 121
    },
    {
      "midi": 64,
      "hit": false,
      "t": 295809.3316500006,
      "d": 265.8122999999905,
      "v": 124
    },
    {
      "midi": 45,
      "hit": false,
      "t": 295809.3316500006,
      "d": 271.49205000005895,
      "v": 122
    },
    {
      "midi": 59,
      "hit": false,
      "t": 296078.5518000006,
      "d": 536.1684000000823,
      "v": 120
    },
    {
      "midi": 64,
      "hit": false,
      "t": 296079.6877500006,
      "d": 538.4403000000748,
      "v": 118
    },
    {
      "midi": 57,
      "hit": false,
      "t": 296081.9596500007,
      "d": 542.9841000000597,
      "v": 116
    },
    {
      "midi": 45,
      "hit": false,
      "t": 296083.0956000007,
      "d": 540.712200000009,
      "v": 117
    },
    {
      "midi": 59,
      "hit": false,
      "t": 296620.3999500007,
      "d": 3815.6560500000487,
      "v": 89
    },
    {
      "midi": 62,
      "hit": false,
      "t": 296621.5359000002,
      "d": 1080.288450000051,
      "v": 94
    },
    {
      "midi": 31,
      "hit": false,
      "t": 296621.5359000002,
      "d": 4359.77610000025,
      "v": 90
    },
    {
      "midi": 55,
      "hit": false,
      "t": 296622.6718500007,
      "d": 3809.9763000000385,
      "v": 92
    },
    {
      "midi": 62,
      "hit": false,
      "t": 296626.07970000076,
      "d": 3813.384149999998,
      "v": 91
    },
    {
      "midi": 43,
      "hit": false,
      "t": 296628.3516000002,
      "d": 4355.232300000207,
      "v": 86
    },
    {
      "midi": 55,
      "hit": false,
      "t": 296630.6235000002,
      "d": 1083.6963000000105,
      "v": 82
    },
    {
      "midi": 59,
      "hit": false,
      "t": 296630.6235000002,
      "d": 1085.9682000000612,
      "v": 89
    },
    {
      "midi": 43,
      "hit": false,
      "t": 296630.62350000074,
      "d": 4357.504200000083,
      "v": 87
    },
    {
      "midi": 62,
      "hit": false,
      "t": 297715.45575000026,
      "d": 1085.9682000000612,
      "v": 98
    },
    {
      "midi": 59,
      "hit": false,
      "t": 297717.7276500003,
      "d": 1082.5603499999852,
      "v": 93
    },
    {
      "midi": 59,
      "hit": false,
      "t": 298801.4239500003,
      "d": 1090.511999999988,
      "v": 99
    },
    {
      "midi": 55,
      "hit": false,
      "t": 298802.55990000034,
      "d": 2.2718999999924563,
      "v": 83
    },
    {
      "midi": 62,
      "hit": false,
      "t": 298809.3756000003,
      "d": 1083.6963000000105,
      "v": 86
    },
    {
      "midi": 55,
      "hit": false,
      "t": 299896.47975000035,
      "d": 1083.6963000000687,
      "v": 91
    },
    {
      "midi": 62,
      "hit": false,
      "t": 299899.88760000037,
      "d": 1081.4244000000763,
      "v": 83
    },
    {
      "midi": 59,
      "hit": false,
      "t": 300442.8717000008,
      "d": 542.9841000000597,
      "v": 117
    },
    {
      "midi": 38,
      "hit": false,
      "t": 300444.0076500008,
      "d": 539.5762500000419,
      "v": 119
    },
    {
      "midi": 38,
      "hit": false,
      "t": 300445.1436000004,
      "d": 535.0324499999988,
      "v": 88
    },
    {
      "midi": 62,
      "hit": false,
      "t": 300447.4155000008,
      "d": 541.8481500000344,
      "v": 120
    },
    {
      "midi": 59,
      "hit": false,
      "t": 300983.58390000043,
      "d": 4.54380000004312,
      "v": 89
    },
    {
      "midi": 55,
      "hit": false,
      "t": 300984.71985000046,
      "d": 1081.4244000000763,
      "v": 85
    },
    {
      "midi": 31,
      "hit": false,
      "t": 300985.8558000005,
      "d": 4357.5042000001995,
      "v": 98
    },
    {
      "midi": 43,
      "hit": false,
      "t": 300990.3996000005,
      "d": 4360.912050000217,
      "v": 93
    },
    {
      "midi": 55,
      "hit": false,
      "t": 302075.23185000056,
      "d": 1081.4244000000763,
      "v": 96
    },
    {
      "midi": 62,
      "hit": false,
      "t": 302076.3678000006,
      "d": 1.135950000025332,
      "v": 81
    },
    {
      "midi": 59,
      "hit": false,
      "t": 302083.1835000006,
      "d": 1081.424400000018,
      "v": 93
    },
    {
      "midi": 55,
      "hit": false,
      "t": 303164.60790000064,
      "d": 1083.6963000000105,
      "v": 89
    },
    {
      "midi": 59,
      "hit": false,
      "t": 303172.55955000065,
      "d": 1088.2400999999954,
      "v": 84
    },
    {
      "midi": 62,
      "hit": false,
      "t": 304255.11990000063,
      "d": 1.135950000025332,
      "v": 86
    },
    {
      "midi": 59,
      "hit": false,
      "t": 304264.20750000066,
      "d": 1088.2401000001119,
      "v": 93
    },
    {
      "midi": 55,
      "hit": false,
      "t": 304264.20750000066,
      "d": 1090.5120000001043,
      "v": 90
    },
    {
      "midi": 33,
      "hit": false,
      "t": 305344.4959500007,
      "d": 4358.640150000225,
      "v": 94
    },
    {
      "midi": 64,
      "hit": false,
      "t": 305349.0397500007,
      "d": 1081.4244000000763,
      "v": 88
    },
    {
      "midi": 45,
      "hit": false,
      "t": 305350.1757000007,
      "d": 4358.640150000225,
      "v": 91
    },
    {
      "midi": 57,
      "hit": false,
      "t": 305352.44760000077,
      "d": 1087.1041500000283,
      "v": 90
    },
    {
      "midi": 62,
      "hit": false,
      "t": 306436.1439000008,
      "d": 1.135950000025332,
      "v": 91
    },
    {
      "midi": 57,
      "hit": false,
      "t": 306439.5517500008,
      "d": 1087.1041500000283,
      "v": 91
    },
    {
      "midi": 64,
      "hit": false,
      "t": 306440.6877000008,
      "d": 1089.3760500000208,
      "v": 93
    },
    {
      "midi": 57,
      "hit": false,
      "t": 307526.6559000008,
      "d": 1087.1041500000865,
      "v": 88
    },
    {
      "midi": 61,
      "hit": false,
      "t": 307528.9278000008,
      "d": 1083.6963000000687,
      "v": 82
    },
    {
      "midi": 64,
      "hit": false,
      "t": 307531.19970000087,
      "d": 1084.8322500000359,
      "v": 85
    },
    {
      "midi": 64,
      "hit": false,
      "t": 308621.7117000009,
      "d": 1083.6963000000105,
      "v": 91
    },
    {
      "midi": 61,
      "hit": false,
      "t": 308621.7117000009,
      "d": 1089.376050000079,
      "v": 86
    },
    {
      "midi": 57,
      "hit": false,
      "t": 309707.6799000009,
      "d": 2.271900000050664,
      "v": 91
    },
    {
      "midi": 66,
      "hit": false,
      "t": 309707.6799000009,
      "d": 1088.2401000001119,
      "v": 89
    },
    {
      "midi": 35,
      "hit": false,
      "t": 309709.95180000097,
      "d": 4356.368250000058,
      "v": 99
    },
    {
      "midi": 47,
      "hit": false,
      "t": 309713.35965000105,
      "d": 4352.960399999982,
      "v": 81
    },
    {
      "midi": 66,
      "hit": false,
      "t": 310797.05595000106,
      "d": 1090.511999999988,
      "v": 90
    },
    {
      "midi": 64,
      "hit": false,
      "t": 310801.59975000104,
      "d": 2.2718999999924563,
      "v": 95
    },
    {
      "midi": 57,
      "hit": false,
      "t": 310803.87165000103,
      "d": 1082.5603499999852,
      "v": 86
    },
    {
      "midi": 62,
      "hit": false,
      "t": 311889.83985000104,
      "d": 1084.8322499999776,
      "v": 86
    },
    {
      "midi": 57,
      "hit": false,
      "t": 311890.97580000106,
      "d": 1081.4243999999599,
      "v": 99
    },
    {
      "midi": 66,
      "hit": false,
      "t": 311897.79150000104,
      "d": 1085.968200000003,
      "v": 88
    },
    {
      "midi": 57,
      "hit": false,
      "t": 312982.623750001,
      "d": 1087.1041500000283,
      "v": 122
    },
    {
      "midi": 62,
      "hit": false,
      "t": 312983.75970000104,
      "d": 1089.376050000079,
      "v": 110
    },
    {
      "midi": 47,
      "hit": false,
      "t": 314070.8638500011,
      "d": 4357.504200000141,
      "v": 87
    },
    {
      "midi": 57,
      "hit": false,
      "t": 314071.9998000011,
      "d": 1084.8322500000359,
      "v": 91
    },
    {
      "midi": 35,
      "hit": false,
      "t": 314071.9998000011,
      "d": 4355.232300000091,
      "v": 96
    },
    {
      "midi": 62,
      "hit": false,
      "t": 314073.1357500011,
      "d": 1085.968200000003,
      "v": 90
    },
    {
      "midi": 66,
      "hit": false,
      "t": 314077.6795500011,
      "d": 1.135950000025332,
      "v": 94
    },
    {
      "midi": 62,
      "hit": false,
      "t": 315160.23990000115,
      "d": 1083.6963000000105,
      "v": 91
    },
    {
      "midi": 57,
      "hit": false,
      "t": 315168.19155000115,
      "d": 1081.424400000018,
      "v": 85
    },
    {
      "midi": 57,
      "hit": false,
      "t": 316250.7519000012,
      "d": 1089.3760499999626,
      "v": 90
    },
    {
      "midi": 66,
      "hit": false,
      "t": 316253.0238000012,
      "d": 2.2718999999924563,
      "v": 93
    },
    {
      "midi": 57,
      "hit": false,
      "t": 317341.2639000012,
      "d": 1087.1041500000283,
      "v": 92
    },
    {
      "midi": 62,
      "hit": false,
      "t": 317346.9436500012,
      "d": 3.4078500000177883,
      "v": 91
    },
    {
      "midi": 66,
      "hit": false,
      "t": 318431.77590000123,
      "d": 3.4078500000177883,
      "v": 88
    },
    {
      "midi": 62,
      "hit": false,
      "t": 318432.91185000126,
      "d": 1084.8322499999776,
      "v": 96
    },
    {
      "midi": 47,
      "hit": false,
      "t": 318435.18375000125,
      "d": 8715.008399999759,
      "v": 95
    },
    {
      "midi": 35,
      "hit": false,
      "t": 318436.3197000013,
      "d": 8718.416249999718,
      "v": 90
    },
    {
      "midi": 57,
      "hit": false,
      "t": 319525.69575000124,
      "d": 4.543799999984913,
      "v": 94
    },
    {
      "midi": 62,
      "hit": false,
      "t": 319525.69575000124,
      "d": 1084.8322499999194,
      "v": 82
    },
    {
      "midi": 66,
      "hit": false,
      "t": 319525.69575000124,
      "d": 1090.5119999999297,
      "v": 92
    },
    {
      "midi": 62,
      "hit": false,
      "t": 320617.3437000012,
      "d": 1085.9681999999448,
      "v": 96
    },
    {
      "midi": 66,
      "hit": false,
      "t": 320618.4796500012,
      "d": 1085.9681999999448,
      "v": 88
    },
    {
      "midi": 57,
      "hit": false,
      "t": 321702.1759500011,
      "d": 9.087600000028033,
      "v": 90
    },
    {
      "midi": 66,
      "hit": false,
      "t": 321704.44785000116,
      "d": 1087.10414999997,
      "v": 94
    },
    {
      "midi": 62,
      "hit": false,
      "t": 321712.39950000116,
      "d": 1085.9681999999448,
      "v": 92
    },
    {
      "midi": 66,
      "hit": false,
      "t": 322793.8239000011,
      "d": 1082.560349999927,
      "v": 99
    },
    {
      "midi": 57,
      "hit": false,
      "t": 322793.8239000011,
      "d": 1089.3760499999626,
      "v": 82
    },
    {
      "midi": 62,
      "hit": false,
      "t": 322798.3677000011,
      "d": 1083.6962999999523,
      "v": 95
    },
    {
      "midi": 57,
      "hit": false,
      "t": 323884.3359000011,
      "d": 1081.4243999999017,
      "v": 96
    },
    {
      "midi": 62,
      "hit": false,
      "t": 323886.6078000011,
      "d": 1088.2400999999372,
      "v": 93
    },
    {
      "midi": 66,
      "hit": false,
      "t": 323887.74375000113,
      "d": 1081.4243999999017,
      "v": 82
    },
    {
      "midi": 62,
      "hit": false,
      "t": 324980.52765000105,
      "d": 1085.968200000003,
      "v": 93
    },
    {
      "midi": 57,
      "hit": false,
      "t": 326066.49585000105,
      "d": 4.54380000004312,
      "v": 96
    },
    {
      "midi": 66,
      "hit": false,
      "t": 326067.6318000011,
      "d": 3.4078500000177883,
      "v": 95
    },
    {
      "midi": 62,
      "hit": false,
      "t": 326067.6318000011,
      "d": 1091.6479499998968,
      "v": 91
    },
    {
      "midi": 66,
      "hit": false,
      "t": 327157.007850001,
      "d": 1085.9681999999448,
      "v": 96
    },
    {
      "midi": 57,
      "hit": false,
      "t": 327159.279750001,
      "d": 1090.511999999988,
      "v": 96
    },
    {
      "midi": 47,
      "hit": false,
      "t": 327159.279750001,
      "d": 8717.2803000001,
      "v": 92
    },
    {
      "midi": 62,
      "hit": false,
      "t": 327161.55165000097,
      "d": 1083.6962999999523,
      "v": 91
    },
    {
      "midi": 66,
      "hit": false,
      "t": 328246.38390000095,
      "d": 1088.2400999999954,
      "v": 92
    },
    {
      "midi": 57,
      "hit": false,
      "t": 328249.79175000096,
      "d": 1088.2400999999954,
      "v": 96
    },
    {
      "midi": 62,
      "hit": false,
      "t": 328250.927700001,
      "d": 1083.6962999999523,
      "v": 94
    },
    {
      "midi": 66,
      "hit": false,
      "t": 329335.75995000097,
      "d": 1087.104149999912,
      "v": 95
    },
    {
      "midi": 62,
      "hit": false,
      "t": 329344.84755000094,
      "d": 1085.9681999999448,
      "v": 82
    },
    {
      "midi": 57,
      "hit": false,
      "t": 330428.5438500009,
      "d": 2.2718999999924563,
      "v": 89
    },
    {
      "midi": 66,
      "hit": false,
      "t": 330428.5438500009,
      "d": 1090.511999999988,
      "v": 95
    },
    {
      "midi": 62,
      "hit": false,
      "t": 330434.2236000009,
      "d": 1085.968200000003,
      "v": 90
    },
    {
      "midi": 62,
      "hit": false,
      "t": 331521.3277500009,
      "d": 1090.511999999988,
      "v": 89
    },
    {
      "midi": 57,
      "hit": false,
      "t": 331522.46370000095,
      "d": 1083.6962999999523,
      "v": 90
    },
    {
      "midi": 66,
      "hit": false,
      "t": 332610.7038000009,
      "d": 4.54380000004312,
      "v": 84
    },
    {
      "midi": 62,
      "hit": false,
      "t": 332614.1116500009,
      "d": 1088.2401000000536,
      "v": 86
    },
    {
      "midi": 57,
      "hit": false,
      "t": 333698.94390000094,
      "d": 5.679750000068452,
      "v": 95
    },
    {
      "midi": 66,
      "hit": false,
      "t": 333704.623650001,
      "d": 1087.1041500000283,
      "v": 95
    },
    {
      "midi": 62,
      "hit": false,
      "t": 334790.591850001,
      "d": 4.54380000004312,
      "v": 90
    },
    {
      "midi": 57,
      "hit": false,
      "t": 334791.72780000104,
      "d": 1082.5603500000434,
      "v": 84
    },
    {
      "midi": 66,
      "hit": false,
      "t": 334795.13565000106,
      "d": 1087.1041500000283,
      "v": 96
    },
    {
      "midi": 35,
      "hit": false,
      "t": 335879.9679000011,
      "d": 3.4078500000177883,
      "v": 88
    },
    {
      "midi": 57,
      "hit": false,
      "t": 335884.51170000114,
      "d": 4357.504200000374,
      "v": 92
    },
    {
      "midi": 66,
      "hit": false,
      "t": 335884.51170000114,
      "d": 4359.776100000367,
      "v": 91
    },
    {
      "midi": 62,
      "hit": false,
      "t": 335884.51170000114,
      "d": 4362.048000000359,
      "v": 90
    },
    {
      "midi": 47,
      "hit": false,
      "t": 335889.0555000011,
      "d": 4357.504200000374,
      "v": 97
    }
  ]
}