{
  "jsonPath": "Rock/Country Rock/John Michael Montgomery/be-my-baby-tonight-lp-version.json",
  "path": "Rock\\Country Rock\\John Michael Montgomery\\Be My Baby Tonight (LP Version).mid",
  "name": "Be My Baby Tonight (LP Version)",
  "difficulty": "Advanced",
  "bpm": 120,
  "notes": [
    {
      "midi": 66,
      "hit": false,
      "t": 35400.399703125,
      "d": 213.327820312501,
      "v": 1
    },
    {
      "midi": 64,
      "hit": false,
      "t": 35592.695203125,
      "d": 189.29088281250006,
      "v": 1
    },
    {
      "midi": 66,
      "hit": false,
      "t": 35784.990703125,
      "d": 227.34936718749668,
      "v": 1
    },
    {
      "midi": 64,
      "hit": false,
      "t": 35977.286203125,
      "d": 189.29088281250006,
      "v": 1
    },
    {
      "midi": 66,
      "hit": false,
      "t": 36169.581703125,
      "d": 215.3308984375035,
      "v": 1
    },
    {
      "midi": 64,
      "hit": false,
      "t": 36361.877203125,
      "d": 189.29088281250006,
      "v": 1
    },
    {
      "midi": 66,
      "hit": false,
      "t": 36554.172703125,
      "d": 195.3001171875003,
      "v": 1
    },
    {
      "midi": 64,
      "hit": false,
      "t": 36746.468203125,
      "d": 189.29088281250006,
      "v": 1
    },
    {
      "midi": 66,
      "hit": false,
      "t": 36938.763703125,
      "d": 215.3308984375035,
      "v": 1
    },
    {
      "midi": 64,
      "hit": false,
      "t": 37131.059203125,
      "d": 189.29088281250006,
      "v": 1
    },
    {
      "midi": 66,
      "hit": false,
      "t": 37323.354703125,
      "d": 189.29088281250006,
      "v": 1
    },
    {
      "midi": 64,
      "hit": false,
      "t": 37515.650203125,
      "d": 189.29088281250006,
      "v": 1
    },
    {
      "midi": 66,
      "hit": false,
      "t": 37707.945703125,
      "d": 189.29088281250006,
      "v": 1
    },
    {
      "midi": 64,
      "hit": false,
      "t": 37900.241203125,
      "d": 189.29088281250006,
      "v": 1
    },
    {
      "midi": 66,
      "hit": false,
      "t": 38092.536703125,
      "d": 189.29088281250006,
      "v": 1
    },
    {
      "midi": 64,
      "hit": false,
      "t": 38284.832203125,
      "d": 189.29088281250006,
      "v": 1
    },
    {
      "midi": 69,
      "hit": false,
      "t": 38477.127703125,
      "d": 958.4728828125008,
      "v": 1
    },
    {
      "midi": 66,
      "hit": false,
      "t": 39438.605203125,
      "d": 189.29088281250006,
      "v": 1
    },
    {
      "midi": 64,
      "hit": false,
      "t": 39630.900703125,
      "d": 189.29088281250006,
      "v": 1
    },
    {
      "midi": 69,
      "hit": false,
      "t": 39823.196203125,
      "d": 1343.063882812501,
      "v": 1
    },
    {
      "midi": 64,
      "hit": false,
      "t": 41169.264703125,
      "d": 3458.314382812503,
      "v": 1
    },
    {
      "midi": 66,
      "hit": false,
      "t": 47515.01620312501,
      "d": 449.691039062498,
      "v": 1
    },
    {
      "midi": 64,
      "hit": false,
      "t": 47899.60720312501,
      "d": 189.29088281250006,
      "v": 1
    },
    {
      "midi": 66,
      "hit": false,
      "t": 48091.90270312501,
      "d": 217.33397656249872,
      "v": 1
    },
    {
      "midi": 64,
      "hit": false,
      "t": 48284.19820312501,
      "d": 189.29088281250006,
      "v": 1
    },
    {
      "midi": 66,
      "hit": false,
      "t": 48476.49370312501,
      "d": 205.31550781249825,
      "v": 1
    },
    {
      "midi": 64,
      "hit": false,
      "t": 48668.78920312501,
      "d": 189.29088281250006,
      "v": 1
    },
    {
      "midi": 66,
      "hit": false,
      "t": 48861.08470312501,
      "d": 211.3247421874985,
      "v": 1
    },
    {
      "midi": 64,
      "hit": false,
      "t": 49053.38020312501,
      "d": 189.29088281250006,
      "v": 1
    },
    {
      "midi": 66,
      "hit": false,
      "t": 49245.67570312501,
      "d": 207.31858593750076,
      "v": 1
    },
    {
      "midi": 64,
      "hit": false,
      "t": 49437.97120312501,
      "d": 189.29088281250006,
      "v": 1
    },
    {
      "midi": 66,
      "hit": false,
      "t": 49630.26670312501,
      "d": 285.4386328124965,
      "v": 1
    },
    {
      "midi": 64,
      "hit": false,
      "t": 49918.709953125006,
      "d": 97.14928906249406,
      "v": 1
    },
    {
      "midi": 66,
      "hit": false,
      "t": 50014.857703125,
      "d": 189.29088281250006,
      "v": 1
    },
    {
      "midi": 64,
      "hit": false,
      "t": 50207.153203125,
      "d": 189.29088281250006,
      "v": 1
    },
    {
      "midi": 66,
      "hit": false,
      "t": 50399.448703125,
      "d": 189.29088281250006,
      "v": 1
    },
    {
      "midi": 64,
      "hit": false,
      "t": 50591.744203125,
      "d": 189.29088281250006,
      "v": 1
    },
    {
      "midi": 69,
      "hit": false,
      "t": 50784.039703125,
      "d": 766.1773828125006,
      "v": 1
    },
    {
      "midi": 66,
      "hit": false,
      "t": 51553.221703125004,
      "d": 189.29088281250006,
      "v": 1
    },
    {
      "midi": 64,
      "hit": false,
      "t": 51745.517203125004,
      "d": 231.3555234375017,
      "v": 1
    },
    {
      "midi": 61,
      "hit": false,
      "t": 51937.812703125004,
      "d": 189.29088281250006,
      "v": 1
    },
    {
      "midi": 66,
      "hit": false,
      "t": 52130.108203125004,
      "d": 1343.063882812501,
      "v": 1
    },
    {
      "midi": 93,
      "hit": false,
      "t": 63479.548859375,
      "d": 61.09388281249994,
      "v": 98
    },
    {
      "midi": 91,
      "hit": false,
      "t": 63513.6011875,
      "d": 63.096960937502445,
      "v": 55
    },
    {
      "midi": 89,
      "hit": false,
      "t": 63563.678140625,
      "d": 49.075414062499476,
      "v": 38
    },
    {
      "midi": 88,
      "hit": false,
      "t": 63599.733546875,
      "d": 51.07849218750198,
      "v": 45
    },
    {
      "midi": 86,
      "hit": false,
      "t": 63641.798187500004,
      "d": 49.07541406250675,
      "v": 60
    },
    {
      "midi": 84,
      "hit": false,
      "t": 63679.85667187501,
      "d": 55.084648437506985,
      "v": 68
    },
    {
      "midi": 83,
      "hit": false,
      "t": 63719.918234375014,
      "d": 57.08772656250221,
      "v": 61
    },
    {
      "midi": 81,
      "hit": false,
      "t": 63761.982875000016,
      "d": 53.081570312497206,
      "v": 54
    },
    {
      "midi": 79,
      "hit": false,
      "t": 63802.044437500015,
      "d": 53.081570312497206,
      "v": 56
    },
    {
      "midi": 77,
      "hit": false,
      "t": 63842.106000000014,
      "d": 53.081570312497206,
      "v": 53
    },
    {
      "midi": 76,
      "hit": false,
      "t": 63882.16756250001,
      "d": 55.08464843749971,
      "v": 53
    },
    {
      "midi": 74,
      "hit": false,
      "t": 63924.232203125015,
      "d": 59.09080468749744,
      "v": 58
    },
    {
      "midi": 72,
      "hit": false,
      "t": 63968.29992187501,
      "d": 65.10003906250495,
      "v": 56
    },
    {
      "midi": 71,
      "hit": false,
      "t": 64016.373796875014,
      "d": 65.10003906250495,
      "v": 46
    },
    {
      "midi": 69,
      "hit": false,
      "t": 64066.45075000002,
      "d": 65.10003906250495,
      "v": 51
    },
    {
      "midi": 67,
      "hit": false,
      "t": 64114.52462500002,
      "d": 65.10003906250495,
      "v": 45
    },
    {
      "midi": 65,
      "hit": false,
      "t": 64170.610812500025,
      "d": 57.087726562494936,
      "v": 39
    },
    {
      "midi": 64,
      "hit": false,
      "t": 64220.68776562502,
      "d": 55.08464843749971,
      "v": 36
    },
    {
      "midi": 62,
      "hit": false,
      "t": 64270.76471875002,
      "d": 57.08772656250221,
      "v": 35
    },
    {
      "midi": 60,
      "hit": false,
      "t": 64324.84782812502,
      "d": 59.09080468749744,
      "v": 33
    },
    {
      "midi": 59,
      "hit": false,
      "t": 64382.93709375002,
      "d": 59.09080468749744,
      "v": 31
    },
    {
      "midi": 57,
      "hit": false,
      "t": 64445.03251562502,
      "d": 53.081570312497206,
      "v": 30
    },
    {
      "midi": 57,
      "hit": false,
      "t": 89435.43520312502,
      "d": 67.1031171874929,
      "v": 81
    },
    {
      "midi": 69,
      "hit": false,
      "t": 89435.43520312502,
      "d": 69.10619531248813,
      "v": 83
    },
    {
      "midi": 71,
      "hit": false,
      "t": 89627.73070312501,
      "d": 79.12158593749336,
      "v": 85
    },
    {
      "midi": 59,
      "hit": false,
      "t": 89629.73378125,
      "d": 69.10619531250268,
      "v": 94
    },
    {
      "midi": 59,
      "hit": false,
      "t": 89818.023125,
      "d": 107.1646796874993,
      "v": 87
    },
    {
      "midi": 71,
      "hit": false,
      "t": 89820.026203125,
      "d": 109.16775781250908,
      "v": 89
    },
    {
      "midi": 60,
      "hit": false,
      "t": 90010.31862500001,
      "d": 77.11850781251269,
      "v": 103
    },
    {
      "midi": 72,
      "hit": false,
      "t": 90014.32478125002,
      "d": 69.10619531250268,
      "v": 98
    },
    {
      "midi": 60,
      "hit": false,
      "t": 90200.61104687503,
      "d": 85.1308203124936,
      "v": 95
    },
    {
      "midi": 72,
      "hit": false,
      "t": 90202.61412500002,
      "d": 101.15544531249907,
      "v": 98
    },
    {
      "midi": 61,
      "hit": false,
      "t": 90396.91270312502,
      "d": 23.035398437496042,
      "v": 73
    },
    {
      "midi": 73,
      "hit": false,
      "t": 90398.91578125002,
      "d": 45.069257812501746,
      "v": 107
    },
    {
      "midi": 61,
      "hit": false,
      "t": 90583.19896875002,
      "d": 69.10619531250268,
      "v": 92
    },
    {
      "midi": 73,
      "hit": false,
      "t": 90585.20204687501,
      "d": 49.07541406250675,
      "v": 82
    },
    {
      "midi": 74,
      "hit": false,
      "t": 90777.49754687502,
      "d": 67.10311718750745,
      "v": 108
    },
    {
      "midi": 62,
      "hit": false,
      "t": 90777.49754687502,
      "d": 2552.9230703124194,
      "v": 108
    },
    {
      "midi": 79,
      "hit": false,
      "t": 90779.50062500002,
      "d": 39.06002343750151,
      "v": 85
    },
    {
      "midi": 81,
      "hit": false,
      "t": 90779.50062500002,
      "d": 55.084648437506985,
      "v": 85
    },
    {
      "midi": 66,
      "hit": false,
      "t": 90781.503703125,
      "d": 213.3278203124937,
      "v": 1
    },
    {
      "midi": 74,
      "hit": false,
      "t": 90967.78996875003,
      "d": 67.1031171874929,
      "v": 80
    },
    {
      "midi": 81,
      "hit": false,
      "t": 90969.79304687503,
      "d": 91.14005468749383,
      "v": 78
    },
    {
      "midi": 64,
      "hit": false,
      "t": 90973.79920312499,
      "d": 189.29088281250733,
      "v": 1
    },
    {
      "midi": 74,
      "hit": false,
      "t": 91162.08854687502,
      "d": 83.12774218749837,
      "v": 69
    },
    {
      "midi": 81,
      "hit": false,
      "t": 91164.09162500002,
      "d": 87.13389843750338,
      "v": 59
    },
    {
      "midi": 66,
      "hit": false,
      "t": 91166.094703125,
      "d": 227.3493671874894,
      "v": 1
    },
    {
      "midi": 74,
      "hit": false,
      "t": 91354.38404687501,
      "d": 93.14313281250361,
      "v": 78
    },
    {
      "midi": 81,
      "hit": false,
      "t": 91354.38404687501,
      "d": 101.15544531249907,
      "v": 75
    },
    {
      "midi": 64,
      "hit": false,
      "t": 91358.39020312499,
      "d": 189.29088281249278,
      "v": 1
    },
    {
      "midi": 74,
      "hit": false,
      "t": 91548.68262500002,
      "d": 109.16775781249453,
      "v": 82
    },
    {
      "midi": 81,
      "hit": false,
      "t": 91548.68262500002,
      "d": 125.1923828125,
      "v": 76
    },
    {
      "midi": 66,
      "hit": false,
      "t": 91550.68570312498,
      "d": 215.33089843748894,
      "v": 1
    },
    {
      "midi": 74,
      "hit": false,
      "t": 91740.97812500001,
      "d": 97.14928906249406,
      "v": 79
    },
    {
      "midi": 81,
      "hit": false,
      "t": 91740.97812500001,
      "d": 97.14928906249406,
      "v": 74
    },
    {
      "midi": 64,
      "hit": false,
      "t": 91742.98120312497,
      "d": 189.29088281249278,
      "v": 1
    },
    {
      "midi": 66,
      "hit": false,
      "t": 91935.27670312497,
      "d": 195.30011718749302,
      "v": 1
    },
    {
      "midi": 74,
      "hit": false,
      "t": 91935.276703125,
      "d": 97.14928906249406,
      "v": 85
    },
    {
      "midi": 81,
      "hit": false,
      "t": 91935.276703125,
      "d": 99.15236718748929,
      "v": 76
    },
    {
      "midi": 74,
      "hit": false,
      "t": 92125.56912499998,
      "d": 111.17083593750431,
      "v": 86
    },
    {
      "midi": 81,
      "hit": false,
      "t": 92125.56912499998,
      "d": 117.18007031250454,
      "v": 74
    },
    {
      "midi": 64,
      "hit": false,
      "t": 92127.57220312496,
      "d": 189.29088281250733,
      "v": 1
    },
    {
      "midi": 66,
      "hit": false,
      "t": 92319.86770312497,
      "d": 215.33089843748894,
      "v": 1
    },
    {
      "midi": 74,
      "hit": false,
      "t": 92319.86770312498,
      "d": 105.16160156250407,
      "v": 83
    },
    {
      "midi": 81,
      "hit": false,
      "t": 92319.86770312498,
      "d": 125.1923828125,
      "v": 73
    },
    {
      "midi": 64,
      "hit": false,
      "t": 92512.16320312496,
      "d": 189.29088281249278,
      "v": 1
    },
    {
      "midi": 74,
      "hit": false,
      "t": 92512.16320312498,
      "d": 81.12466406248859,
      "v": 79
    },
    {
      "midi": 81,
      "hit": false,
      "t": 92514.16628124997,
      "d": 73.11235156249313,
      "v": 52
    },
    {
      "midi": 74,
      "hit": false,
      "t": 92702.45562499996,
      "d": 95.14621093749884,
      "v": 93
    },
    {
      "midi": 66,
      "hit": false,
      "t": 92704.45870312495,
      "d": 189.29088281249278,
      "v": 1
    },
    {
      "midi": 81,
      "hit": false,
      "t": 92704.45870312495,
      "d": 111.17083593750431,
      "v": 81
    },
    {
      "midi": 74,
      "hit": false,
      "t": 92894.75112499995,
      "d": 89.1369765624986,
      "v": 89
    },
    {
      "midi": 64,
      "hit": false,
      "t": 92896.75420312495,
      "d": 189.29088281249278,
      "v": 1
    },
    {
      "midi": 81,
      "hit": false,
      "t": 92898.75728124996,
      "d": 79.12158593749336,
      "v": 66
    },
    {
      "midi": 66,
      "hit": false,
      "t": 93089.04970312494,
      "d": 189.29088281249278,
      "v": 1
    },
    {
      "midi": 74,
      "hit": false,
      "t": 93089.04970312495,
      "d": 89.1369765624986,
      "v": 91
    },
    {
      "midi": 81,
      "hit": false,
      "t": 93091.05278124995,
      "d": 83.12774218749837,
      "v": 83
    },
    {
      "midi": 64,
      "hit": false,
      "t": 93281.34520312493,
      "d": 189.29088281249278,
      "v": 1
    },
    {
      "midi": 74,
      "hit": false,
      "t": 93281.34520312495,
      "d": 77.11850781249814,
      "v": 87
    },
    {
      "midi": 81,
      "hit": false,
      "t": 93283.34828124994,
      "d": 69.10619531250268,
      "v": 75
    },
    {
      "midi": 66,
      "hit": false,
      "t": 93473.64070312493,
      "d": 189.29088281249278,
      "v": 1
    },
    {
      "midi": 74,
      "hit": false,
      "t": 93475.64378124995,
      "d": 65.10003906249767,
      "v": 84
    },
    {
      "midi": 81,
      "hit": false,
      "t": 93477.64685937495,
      "d": 39.06002343750151,
      "v": 75
    },
    {
      "midi": 64,
      "hit": false,
      "t": 93665.93620312492,
      "d": 189.29088281249278,
      "v": 1
    },
    {
      "midi": 74,
      "hit": false,
      "t": 93665.93620312495,
      "d": 91.14005468749383,
      "v": 85
    },
    {
      "midi": 81,
      "hit": false,
      "t": 93667.93928124994,
      "d": 79.12158593749336,
      "v": 77
    },
    {
      "midi": 69,
      "hit": false,
      "t": 93858.23170312491,
      "d": 958.4728828124935,
      "v": 1
    },
    {
      "midi": 61,
      "hit": false,
      "t": 93858.23170312494,
      "d": 345.5309765624843,
      "v": 83
    },
    {
      "midi": 73,
      "hit": false,
      "t": 93860.23478124994,
      "d": 69.10619531250268,
      "v": 97
    },
    {
      "midi": 81,
      "hit": false,
      "t": 93860.23478124994,
      "d": 101.15544531249907,
      "v": 82
    },
    {
      "midi": 73,
      "hit": false,
      "t": 94050.52720312493,
      "d": 53.081570312497206,
      "v": 64
    },
    {
      "midi": 73,
      "hit": false,
      "t": 94240.81962499993,
      "d": 81.12466406250314,
      "v": 70
    },
    {
      "midi": 81,
      "hit": false,
      "t": 94244.82578124994,
      "d": 79.12158593749336,
      "v": 67
    },
    {
      "midi": 73,
      "hit": false,
      "t": 94433.11512499992,
      "d": 69.10619531250268,
      "v": 73
    },
    {
      "midi": 81,
      "hit": false,
      "t": 94433.11512499992,
      "d": 95.14621093749884,
      "v": 68
    },
    {
      "midi": 73,
      "hit": false,
      "t": 94625.41062499992,
      "d": 71.10927343751246,
      "v": 69
    },
    {
      "midi": 81,
      "hit": false,
      "t": 94629.41678124992,
      "d": 51.07849218750198,
      "v": 63
    },
    {
      "midi": 73,
      "hit": false,
      "t": 94817.70612499992,
      "d": 61.093882812492666,
      "v": 72
    },
    {
      "midi": 66,
      "hit": false,
      "t": 94819.7092031249,
      "d": 189.29088281249278,
      "v": 1
    },
    {
      "midi": 81,
      "hit": false,
      "t": 94819.70920312492,
      "d": 63.096960937502445,
      "v": 70
    },
    {
      "midi": 73,
      "hit": false,
      "t": 95010.00162499992,
      "d": 69.10619531250268,
      "v": 66
    },
    {
      "midi": 64,
      "hit": false,
      "t": 95012.0047031249,
      "d": 189.29088281249278,
      "v": 1
    },
    {
      "midi": 69,
      "hit": false,
      "t": 95204.30020312489,
      "d": 1343.0638828124938,
      "v": 1
    },
    {
      "midi": 73,
      "hit": false,
      "t": 95204.30020312492,
      "d": 55.084648437506985,
      "v": 67
    },
    {
      "midi": 81,
      "hit": false,
      "t": 95206.30328124992,
      "d": 49.07541406250675,
      "v": 62
    },
    {
      "midi": 73,
      "hit": false,
      "t": 95398.59878124992,
      "d": 57.08772656250221,
      "v": 78
    },
    {
      "midi": 81,
      "hit": false,
      "t": 95398.59878124992,
      "d": 69.10619531250268,
      "v": 78
    },
    {
      "midi": 73,
      "hit": false,
      "t": 95590.89428124993,
      "d": 91.14005468749383,
      "v": 104
    },
    {
      "midi": 81,
      "hit": false,
      "t": 95590.89428124993,
      "d": 113.17391406249953,
      "v": 85
    },
    {
      "midi": 74,
      "hit": false,
      "t": 95781.18670312493,
      "d": 85.1308203124936,
      "v": 95
    },
    {
      "midi": 62,
      "hit": false,
      "t": 95781.18670312493,
      "d": 385.5925390624907,
      "v": 99
    },
    {
      "midi": 81,
      "hit": false,
      "t": 95783.18978124992,
      "d": 95.14621093749884,
      "v": 83
    },
    {
      "midi": 74,
      "hit": false,
      "t": 95971.47912499993,
      "d": 127.19546093749523,
      "v": 92
    },
    {
      "midi": 81,
      "hit": false,
      "t": 95973.48220312492,
      "d": 101.15544531249907,
      "v": 87
    },
    {
      "midi": 75,
      "hit": false,
      "t": 96165.77770312491,
      "d": 83.12774218751292,
      "v": 110
    },
    {
      "midi": 81,
      "hit": false,
      "t": 96167.78078124992,
      "d": 91.14005468750838,
      "v": 82
    },
    {
      "midi": 63,
      "hit": false,
      "t": 96167.78078124992,
      "d": 289.4447890625015,
      "v": 110
    },
    {
      "midi": 81,
      "hit": false,
      "t": 96356.07012499993,
      "d": 111.17083593750431,
      "v": 72
    },
    {
      "midi": 75,
      "hit": false,
      "t": 96356.07012499993,
      "d": 121.18622656250955,
      "v": 94
    },
    {
      "midi": 64,
      "hit": false,
      "t": 96546.36254687494,
      "d": 293.45094531249197,
      "v": 91
    },
    {
      "midi": 81,
      "hit": false,
      "t": 96548.36562499993,
      "d": 99.15236718750384,
      "v": 68
    },
    {
      "midi": 76,
      "hit": false,
      "t": 96548.36562499993,
      "d": 111.17083593750431,
      "v": 101
    },
    {
      "midi": 64,
      "hit": false,
      "t": 96550.36870312488,
      "d": 3458.314382812503,
      "v": 1
    },
    {
      "midi": 76,
      "hit": false,
      "t": 96738.65804687493,
      "d": 91.14005468749383,
      "v": 85
    },
    {
      "midi": 81,
      "hit": false,
      "t": 96738.65804687493,
      "d": 101.15544531249907,
      "v": 67
    },
    {
      "midi": 76,
      "hit": false,
      "t": 96932.95662499993,
      "d": 107.1646796874993,
      "v": 96
    },
    {
      "midi": 81,
      "hit": false,
      "t": 96932.95662499993,
      "d": 141.21700781250547,
      "v": 81
    },
    {
      "midi": 64,
      "hit": false,
      "t": 96932.95662499993,
      "d": 3017.637195312491,
      "v": 81
    },
    {
      "midi": 76,
      "hit": false,
      "t": 97125.25212499994,
      "d": 65.10003906249767,
      "v": 74
    },
    {
      "midi": 81,
      "hit": false,
      "t": 97125.25212499994,
      "d": 81.12466406250314,
      "v": 46
    },
    {
      "midi": 76,
      "hit": false,
      "t": 97317.54762499995,
      "d": 61.09388281250722,
      "v": 59
    },
    {
      "midi": 81,
      "hit": false,
      "t": 97321.55378124995,
      "d": 47.07233593749697,
      "v": 34
    },
    {
      "midi": 76,
      "hit": false,
      "t": 97900.44335937496,
      "d": 31.047710937506054,
      "v": 44
    },
    {
      "midi": 76,
      "hit": false,
      "t": 98086.72962499996,
      "d": 61.09388281250722,
      "v": 68
    },
    {
      "midi": 52,
      "hit": false,
      "t": 98275.01896874997,
      "d": 1689.596398437454,
      "v": 27
    },
    {
      "midi": 76,
      "hit": false,
      "t": 98277.02204687496,
      "d": 59.09080468749744,
      "v": 71
    },
    {
      "midi": 83,
      "hit": false,
      "t": 98277.02204687496,
      "d": 61.093882812492666,
      "v": 55
    },
    {
      "midi": 76,
      "hit": false,
      "t": 98467.31446874996,
      "d": 65.10003906249767,
      "v": 69
    },
    {
      "midi": 83,
      "hit": false,
      "t": 98467.31446874996,
      "d": 95.14621093749884,
      "v": 61
    },
    {
      "midi": 76,
      "hit": false,
      "t": 98663.61612499996,
      "d": 61.09388281250722,
      "v": 70
    },
    {
      "midi": 83,
      "hit": false,
      "t": 98663.61612499996,
      "d": 69.10619531250268,
      "v": 54
    },
    {
      "midi": 76,
      "hit": false,
      "t": 98857.91470312496,
      "d": 79.12158593749336,
      "v": 75
    },
    {
      "midi": 83,
      "hit": false,
      "t": 98857.91470312496,
      "d": 103.1585234374943,
      "v": 59
    },
    {
      "midi": 76,
      "hit": false,
      "t": 99052.21328124995,
      "d": 55.084648437506985,
      "v": 62
    },
    {
      "midi": 83,
      "hit": false,
      "t": 99052.21328124995,
      "d": 63.096960937502445,
      "v": 42
    },
    {
      "midi": 76,
      "hit": false,
      "t": 99242.50570312495,
      "d": 59.09080468749744,
      "v": 67
    },
    {
      "midi": 83,
      "hit": false,
      "t": 99242.50570312495,
      "d": 85.1308203124936,
      "v": 64
    },
    {
      "midi": 83,
      "hit": false,
      "t": 99434.80120312494,
      "d": 83.12774218749837,
      "v": 68
    },
    {
      "midi": 76,
      "hit": false,
      "t": 99436.80428124993,
      "d": 57.08772656250221,
      "v": 70
    },
    {
      "midi": 83,
      "hit": false,
      "t": 99629.09978124994,
      "d": 73.11235156249313,
      "v": 71
    },
    {
      "midi": 76,
      "hit": false,
      "t": 99631.10285937494,
      "d": 45.069257812501746,
      "v": 61
    },
    {
      "midi": 76,
      "hit": false,
      "t": 99821.39528124993,
      "d": 57.08772656250221,
      "v": 68
    },
    {
      "midi": 83,
      "hit": false,
      "t": 99821.39528124993,
      "d": 59.09080468749744,
      "v": 59
    },
    {
      "midi": 64,
      "hit": false,
      "t": 100011.68770312492,
      "d": 105.16160156251863,
      "v": 64
    },
    {
      "midi": 76,
      "hit": false,
      "t": 100015.69385937492,
      "d": 51.07849218750198,
      "v": 71
    },
    {
      "midi": 81,
      "hit": false,
      "t": 100015.69385937492,
      "d": 73.11235156250768,
      "v": 77
    },
    {
      "midi": 76,
      "hit": false,
      "t": 100205.98628124993,
      "d": 51.07849218750198,
      "v": 63
    },
    {
      "midi": 81,
      "hit": false,
      "t": 100205.98628124993,
      "d": 65.10003906249767,
      "v": 60
    },
    {
      "midi": 81,
      "hit": false,
      "t": 100396.27870312493,
      "d": 91.14005468749383,
      "v": 76
    },
    {
      "midi": 76,
      "hit": false,
      "t": 100398.28178124993,
      "d": 57.08772656250221,
      "v": 81
    },
    {
      "midi": 76,
      "hit": false,
      "t": 100588.57420312492,
      "d": 81.12466406250314,
      "v": 87
    },
    {
      "midi": 81,
      "hit": false,
      "t": 100588.57420312492,
      "d": 101.15544531249907,
      "v": 77
    },
    {
      "midi": 76,
      "hit": false,
      "t": 100780.86970312492,
      "d": 87.13389843750338,
      "v": 85
    },
    {
      "midi": 81,
      "hit": false,
      "t": 100780.86970312492,
      "d": 109.16775781250908,
      "v": 78
    },
    {
      "midi": 76,
      "hit": false,
      "t": 100973.16520312493,
      "d": 77.11850781249814,
      "v": 80
    },
    {
      "midi": 81,
      "hit": false,
      "t": 100973.16520312493,
      "d": 95.14621093749884,
      "v": 73
    },
    {
      "midi": 76,
      "hit": false,
      "t": 101167.46378124993,
      "d": 61.09388281250722,
      "v": 76
    },
    {
      "midi": 81,
      "hit": false,
      "t": 101167.46378124993,
      "d": 75.11542968750291,
      "v": 70
    },
    {
      "midi": 76,
      "hit": false,
      "t": 101359.75928124994,
      "d": 55.084648437506985,
      "v": 76
    },
    {
      "midi": 81,
      "hit": false,
      "t": 101359.75928124994,
      "d": 59.09080468751199,
      "v": 70
    },
    {
      "midi": 81,
      "hit": false,
      "t": 101552.05478124994,
      "d": 49.07541406250675,
      "v": 70
    },
    {
      "midi": 76,
      "hit": false,
      "t": 101552.05478124994,
      "d": 57.08772656250221,
      "v": 79
    },
    {
      "midi": 76,
      "hit": false,
      "t": 101742.34720312494,
      "d": 103.1585234374943,
      "v": 81
    },
    {
      "midi": 81,
      "hit": false,
      "t": 101742.34720312494,
      "d": 115.17699218749476,
      "v": 75
    },
    {
      "midi": 81,
      "hit": false,
      "t": 101930.63654687493,
      "d": 99.15236718748929,
      "v": 78
    },
    {
      "midi": 75,
      "hit": false,
      "t": 101932.63962499992,
      "d": 67.1031171874929,
      "v": 88
    },
    {
      "midi": 75,
      "hit": false,
      "t": 102120.92896874991,
      "d": 189.29088281249278,
      "v": 82
    },
    {
      "midi": 81,
      "hit": false,
      "t": 102120.92896874991,
      "d": 287.44171093749173,
      "v": 83
    },
    {
      "midi": 74,
      "hit": false,
      "t": 102315.2275468749,
      "d": 81.12466406250314,
      "v": 66
    },
    {
      "midi": 74,
      "hit": false,
      "t": 102507.5230468749,
      "d": 197.30319531248824,
      "v": 87
    },
    {
      "midi": 81,
      "hit": false,
      "t": 102507.5230468749,
      "d": 493.7587578124949,
      "v": 79
    },
    {
      "midi": 73,
      "hit": false,
      "t": 102699.8185468749,
      "d": 101.15544531249907,
      "v": 80
    },
    {
      "midi": 73,
      "hit": false,
      "t": 102894.1171249999,
      "d": 85.1308203124936,
      "v": 70
    },
    {
      "midi": 66,
      "hit": false,
      "t": 102896.12020312488,
      "d": 449.691039062498,
      "v": 1
    },
    {
      "midi": 74,
      "hit": false,
      "t": 103086.4126249999,
      "d": 99.15236718748929,
      "v": 84
    },
    {
      "midi": 81,
      "hit": false,
      "t": 103088.41570312489,
      "d": 99.15236718748929,
      "v": 70
    },
    {
      "midi": 62,
      "hit": false,
      "t": 103090.41878124989,
      "d": 111.17083593748976,
      "v": 67
    },
    {
      "midi": 74,
      "hit": false,
      "t": 103278.70812499987,
      "d": 73.11235156250768,
      "v": 68
    },
    {
      "midi": 64,
      "hit": false,
      "t": 103280.71120312488,
      "d": 189.29088281249278,
      "v": 1
    },
    {
      "midi": 81,
      "hit": false,
      "t": 103282.71428124988,
      "d": 51.07849218750198,
      "v": 52
    },
    {
      "midi": 74,
      "hit": false,
      "t": 103471.00362499988,
      "d": 89.1369765624986,
      "v": 70
    },
    {
      "midi": 66,
      "hit": false,
      "t": 103473.00670312488,
      "d": 217.33397656249872,
      "v": 1
    },
    {
      "midi": 81,
      "hit": false,
      "t": 103473.00670312488,
      "d": 97.14928906250861,
      "v": 66
    },
    {
      "midi": 74,
      "hit": false,
      "t": 103663.29912499989,
      "d": 73.11235156250768,
      "v": 66
    },
    {
      "midi": 64,
      "hit": false,
      "t": 103665.30220312487,
      "d": 189.29088281250733,
      "v": 1
    },
    {
      "midi": 81,
      "hit": false,
      "t": 103667.3052812499,
      "d": 63.096960937502445,
      "v": 56
    },
    {
      "midi": 66,
      "hit": false,
      "t": 103857.59770312488,
      "d": 205.31550781249825,
      "v": 1
    },
    {
      "midi": 74,
      "hit": false,
      "t": 103857.59770312489,
      "d": 79.12158593749336,
      "v": 68
    },
    {
      "midi": 81,
      "hit": false,
      "t": 103859.60078124989,
      "d": 95.14621093749884,
      "v": 58
    },
    {
      "midi": 64,
      "hit": false,
      "t": 104049.89320312487,
      "d": 189.29088281250733,
      "v": 1
    },
    {
      "midi": 74,
      "hit": false,
      "t": 104049.89320312488,
      "d": 61.09388281250722,
      "v": 61
    },
    {
      "midi": 74,
      "hit": false,
      "t": 104240.1856249999,
      "d": 91.14005468749383,
      "v": 84
    },
    {
      "midi": 81,
      "hit": false,
      "t": 104240.1856249999,
      "d": 105.16160156248952,
      "v": 80
    },
    {
      "midi": 66,
      "hit": false,
      "t": 104242.18870312488,
      "d": 211.3247421874985,
      "v": 1
    },
    {
      "midi": 74,
      "hit": false,
      "t": 104432.48112499989,
      "d": 75.11542968750291,
      "v": 74
    },
    {
      "midi": 81,
      "hit": false,
      "t": 104432.48112499989,
      "d": 77.11850781249814,
      "v": 68
    },
    {
      "midi": 64,
      "hit": false,
      "t": 104434.48420312487,
      "d": 189.29088281250733,
      "v": 1
    },
    {
      "midi": 74,
      "hit": false,
      "t": 104622.77354687489,
      "d": 103.1585234374943,
      "v": 86
    },
    {
      "midi": 81,
      "hit": false,
      "t": 104624.77662499988,
      "d": 115.17699218749476,
      "v": 77
    },
    {
      "midi": 66,
      "hit": false,
      "t": 104626.77970312488,
      "d": 207.31858593749348,
      "v": 1
    },
    {
      "midi": 74,
      "hit": false,
      "t": 104815.06904687488,
      "d": 71.1092734374979,
      "v": 73
    },
    {
      "midi": 81,
      "hit": false,
      "t": 104817.07212499988,
      "d": 55.084648437506985,
      "v": 62
    },
    {
      "midi": 64,
      "hit": false,
      "t": 104819.07520312487,
      "d": 189.29088281250733,
      "v": 1
    },
    {
      "midi": 74,
      "hit": false,
      "t": 105007.36454687487,
      "d": 83.12774218749837,
      "v": 88
    },
    {
      "midi": 81,
      "hit": false,
      "t": 105007.36454687487,
      "d": 107.1646796874993,
      "v": 78
    },
    {
      "midi": 62,
      "hit": false,
      "t": 105007.36454687487,
      "d": 109.16775781249453,
      "v": 87
    },
    {
      "midi": 66,
      "hit": false,
      "t": 105011.37070312488,
      "d": 285.4386328124965,
      "v": 1
    },
    {
      "midi": 74,
      "hit": false,
      "t": 105201.66312499986,
      "d": 63.096960937502445,
      "v": 72
    },
    {
      "midi": 81,
      "hit": false,
      "t": 105201.66312499986,
      "d": 65.10003906249767,
      "v": 54
    },
    {
      "midi": 64,
      "hit": false,
      "t": 105299.81395312487,
      "d": 97.14928906250861,
      "v": 1
    },
    {
      "midi": 74,
      "hit": false,
      "t": 105393.95862499985,
      "d": 77.11850781249814,
      "v": 85
    },
    {
      "midi": 81,
      "hit": false,
      "t": 105393.95862499985,
      "d": 95.14621093749884,
      "v": 79
    },
    {
      "midi": 66,
      "hit": false,
      "t": 105395.96170312488,
      "d": 189.29088281250733,
      "v": 1
    },
    {
      "midi": 74,
      "hit": false,
      "t": 105586.25412499985,
      "d": 69.10619531250268,
      "v": 75
    },
    {
      "midi": 64,
      "hit": false,
      "t": 105588.25720312489,
      "d": 189.29088281249278,
      "v": 1
    },
    {
      "midi": 81,
      "hit": false,
      "t": 105590.26028124985,
      "d": 41.06310156249674,
      "v": 53
    },
    {
      "midi": 74,
      "hit": false,
      "t": 105778.54962499985,
      "d": 85.1308203124936,
      "v": 86
    },
    {
      "midi": 62,
      "hit": false,
      "t": 105780.55270312485,
      "d": 113.17391406249953,
      "v": 66
    },
    {
      "midi": 66,
      "hit": false,
      "t": 105780.55270312488,
      "d": 189.29088281249278,
      "v": 1
    },
    {
      "midi": 81,
      "hit": false,
      "t": 105782.55578124984,
      "d": 65.10003906249767,
      "v": 75
    },
    {
      "midi": 74,
      "hit": false,
      "t": 105968.84204687485,
      "d": 129.198539062505,
      "v": 79
    },
    {
      "midi": 81,
      "hit": false,
      "t": 105972.84820312486,
      "d": 71.1092734374979,
      "v": 70
    },
    {
      "midi": 64,
      "hit": false,
      "t": 105972.84820312487,
      "d": 189.29088281249278,
      "v": 1
    },
    {
      "midi": 73,
      "hit": false,
      "t": 106163.14062499985,
      "d": 85.1308203124936,
      "v": 89
    },
    {
      "midi": 81,
      "hit": false,
      "t": 106163.14062499985,
      "d": 87.13389843748882,
      "v": 85
    },
    {
      "midi": 57,
      "hit": false,
      "t": 106165.14370312485,
      "d": 1437.2085546874732,
      "v": 63
    },
    {
      "midi": 69,
      "hit": false,
      "t": 106165.14370312486,
      "d": 766.1773828125006,
      "v": 1
    },
    {
      "midi": 73,
      "hit": false,
      "t": 106353.43304687484,
      "d": 101.15544531249907,
      "v": 65
    },
    {
      "midi": 81,
      "hit": false,
      "t": 106355.43612499983,
      "d": 77.11850781249814,
      "v": 77
    },
    {
      "midi": 73,
      "hit": false,
      "t": 106549.73470312484,
      "d": 65.10003906249767,
      "v": 63
    },
    {
      "midi": 81,
      "hit": false,
      "t": 106549.73470312484,
      "d": 83.12774218749837,
      "v": 78
    },
    {
      "midi": 73,
      "hit": false,
      "t": 106744.03328124984,
      "d": 59.09080468749744,
      "v": 63
    },
    {
      "midi": 81,
      "hit": false,
      "t": 106744.03328124984,
      "d": 73.11235156249313,
      "v": 81
    },
    {
      "midi": 66,
      "hit": false,
      "t": 106934.32570312486,
      "d": 189.29088281249278,
      "v": 1
    },
    {
      "midi": 81,
      "hit": false,
      "t": 106936.32878124983,
      "d": 71.1092734374979,
      "v": 83
    },
    {
      "midi": 73,
      "hit": false,
      "t": 106936.32878124983,
      "d": 83.12774218749837,
      "v": 69
    },
    {
      "midi": 73,
      "hit": false,
      "t": 107126.62120312483,
      "d": 67.1031171874929,
      "v": 65
    },
    {
      "midi": 64,
      "hit": false,
      "t": 107126.62120312486,
      "d": 231.3555234374944,
      "v": 1
    },
    {
      "midi": 81,
      "hit": false,
      "t": 107128.62428124982,
      "d": 59.09080468749744,
      "v": 76
    },
    {
      "midi": 61,
      "hit": false,
      "t": 107318.91670312485,
      "d": 189.29088281250733,
      "v": 1
    },
    {
      "midi": 73,
      "hit": false,
      "t": 107320.91978124982,
      "d": 37.056945312506286,
      "v": 65
    },
    {
      "midi": 73,
      "hit": false,
      "t": 107511.21220312483,
      "d": 95.14621093749884,
      "v": 76
    },
    {
      "midi": 66,
      "hit": false,
      "t": 107511.21220312486,
      "d": 1343.0638828124938,
      "v": 1
    },
    {
      "midi": 81,
      "hit": false,
      "t": 107513.21528124982,
      "d": 67.1031171874929,
      "v": 76
    },
    {
      "midi": 74,
      "hit": false,
      "t": 107701.50462499983,
      "d": 123.18930468749022,
      "v": 68
    },
    {
      "midi": 62,
      "hit": false,
      "t": 107701.50462499983,
      "d": 1070.645257812459,
      "v": 86
    },
    {
      "midi": 81,
      "hit": false,
      "t": 107703.50770312482,
      "d": 127.19546093749523,
      "v": 81
    },
    {
      "midi": 74,
      "hit": false,
      "t": 107897.80628124981,
      "d": 71.1092734374979,
      "v": 76
    },
    {
      "midi": 81,
      "hit": false,
      "t": 107897.80628124981,
      "d": 85.1308203124936,
      "v": 65
    },
    {
      "midi": 74,
      "hit": false,
      "t": 108090.1017812498,
      "d": 71.1092734374979,
      "v": 73
    },
    {
      "midi": 81,
      "hit": false,
      "t": 108090.1017812498,
      "d": 95.14621093749884,
      "v": 65
    },
    {
      "midi": 81,
      "hit": false,
      "t": 108282.3972812498,
      "d": 75.11542968750291,
      "v": 67
    },
    {
      "midi": 74,
      "hit": false,
      "t": 108284.40035937479,
      "d": 55.084648437506985,
      "v": 70
    },
    {
      "midi": 81,
      "hit": false,
      "t": 108494.7235624998,
      "d": 65.10003906249767,
      "v": 73
    },
    {
      "midi": 74,
      "hit": false,
      "t": 108496.7266406248,
      "d": 47.07233593749697,
      "v": 76
    },
    {
      "midi": 74,
      "hit": false,
      "t": 108656.97289062479,
      "d": 65.10003906249767,
      "v": 94
    },
    {
      "midi": 81,
      "hit": false,
      "t": 108656.97289062479,
      "d": 107.1646796874993,
      "v": 79
    },
    {
      "midi": 62,
      "hit": false,
      "t": 108807.20374999978,
      "d": 79.12158593752247,
      "v": 87
    },
    {
      "midi": 64,
      "hit": false,
      "t": 108829.23760937479,
      "d": 57.087726562516764,
      "v": 89
    },
    {
      "midi": 83,
      "hit": false,
      "t": 108835.24684374979,
      "d": 47.072335937511525,
      "v": 96
    },
    {
      "midi": 81,
      "hit": false,
      "t": 108845.2622343748,
      "d": 81.1246640625177,
      "v": 85
    },
    {
      "midi": 79,
      "hit": false,
      "t": 108879.3145624998,
      "d": 69.10619531251723,
      "v": 73
    },
    {
      "midi": 77,
      "hit": false,
      "t": 108945.41614062482,
      "d": 27.041554687501048,
      "v": 54
    },
    {
      "midi": 76,
      "hit": false,
      "t": 108979.46846874982,
      "d": 21.032320312500815,
      "v": 76
    },
    {
      "midi": 74,
      "hit": false,
      "t": 109007.51156249983,
      "d": 27.041554687501048,
      "v": 83
    },
    {
      "midi": 72,
      "hit": false,
      "t": 109027.54234374982,
      "d": 37.056945312506286,
      "v": 77
    },
    {
      "midi": 71,
      "hit": false,
      "t": 109051.57928124983,
      "d": 45.069257812501746,
      "v": 65
    },
    {
      "midi": 69,
      "hit": false,
      "t": 109079.62237499983,
      "d": 47.07233593749697,
      "v": 59
    },
    {
      "midi": 67,
      "hit": false,
      "t": 109113.67470312482,
      "d": 43.06617968750652,
      "v": 52
    },
    {
      "midi": 65,
      "hit": false,
      "t": 109151.73318749983,
      "d": 31.0477109374915,
      "v": 52
    },
    {
      "midi": 64,
      "hit": false,
      "t": 109195.80090624983,
      "d": 13.020007812505355,
      "v": 58
    },
    {
      "midi": 93,
      "hit": false,
      "t": 111889.94098437484,
      "d": 21.032320312486263,
      "v": 91
    },
    {
      "midi": 91,
      "hit": false,
      "t": 111897.95329687484,
      "d": 35.05386718749651,
      "v": 90
    },
    {
      "midi": 89,
      "hit": false,
      "t": 111905.96560937483,
      "d": 45.069257812501746,
      "v": 90
    },
    {
      "midi": 88,
      "hit": false,
      "t": 111923.99331249984,
      "d": 43.06617968750652,
      "v": 84
    },
    {
      "midi": 86,
      "hit": false,
      "t": 111944.02409374983,
      "d": 41.06310156251129,
      "v": 68
    },
    {
      "midi": 84,
      "hit": false,
      "t": 111964.05487499984,
      "d": 37.056945312506286,
      "v": 71
    },
    {
      "midi": 83,
      "hit": false,
      "t": 111984.08565624984,
      "d": 37.056945312506286,
      "v": 89
    },
    {
      "midi": 81,
      "hit": false,
      "t": 112016.13490624985,
      "d": 27.041554687501048,
      "v": 65
    },
    {
      "midi": 79,
      "hit": false,
      "t": 112036.16568749984,
      "d": 25.03847656250582,
      "v": 65
    },
    {
      "midi": 77,
      "hit": false,
      "t": 112056.19646874985,
      "d": 25.03847656249127,
      "v": 73
    },
    {
      "midi": 76,
      "hit": false,
      "t": 112076.22724999985,
      "d": 27.041554687501048,
      "v": 74
    },
    {
      "midi": 74,
      "hit": false,
      "t": 112096.25803124985,
      "d": 27.041554687501048,
      "v": 76
    },
    {
      "midi": 72,
      "hit": false,
      "t": 112118.29189062485,
      "d": 27.041554687501048,
      "v": 73
    },
    {
      "midi": 71,
      "hit": false,
      "t": 112138.32267187485,
      "d": 31.047710937506054,
      "v": 65
    },
    {
      "midi": 69,
      "hit": false,
      "t": 112158.35345312486,
      "d": 33.05078906250128,
      "v": 64
    },
    {
      "midi": 67,
      "hit": false,
      "t": 112182.39039062486,
      "d": 33.05078906250128,
      "v": 61
    },
    {
      "midi": 65,
      "hit": false,
      "t": 112206.42732812486,
      "d": 31.047710937506054,
      "v": 58
    },
    {
      "midi": 64,
      "hit": false,
      "t": 112230.46426562486,
      "d": 27.041554687501048,
      "v": 57
    },
    {
      "midi": 62,
      "hit": false,
      "t": 112254.50120312486,
      "d": 15.023085937500582,
      "v": 60
    },
    {
      "midi": 40,
      "hit": false,
      "t": 112286.55045312486,
      "d": 371.570992187495,
      "v": 92
    },
    {
      "midi": 52,
      "hit": false,
      "t": 112298.56892187486,
      "d": 323.49711718749313,
      "v": 97
    },
    {
      "midi": 50,
      "hit": false,
      "t": 116931.68862499985,
      "d": 87.13389843748882,
      "v": 101
    },
    {
      "midi": 57,
      "hit": false,
      "t": 116931.68862499985,
      "d": 97.14928906249406,
      "v": 102
    },
    {
      "midi": 56,
      "hit": false,
      "t": 116933.69170312484,
      "d": 21.032320312500815,
      "v": 68
    },
    {
      "midi": 50,
      "hit": false,
      "t": 117123.98412499984,
      "d": 121.186226562495,
      "v": 96
    },
    {
      "midi": 57,
      "hit": false,
      "t": 117123.98412499984,
      "d": 147.22624218749115,
      "v": 108
    },
    {
      "midi": 59,
      "hit": false,
      "t": 117316.27962499984,
      "d": 225.34628906249418,
      "v": 103
    },
    {
      "midi": 50,
      "hit": false,
      "t": 117318.28270312483,
      "d": 149.22932031250093,
      "v": 97
    },
    {
      "midi": 57,
      "hit": false,
      "t": 117510.57820312484,
      "d": 83.12774218748382,
      "v": 108
    },
    {
      "midi": 50,
      "hit": false,
      "t": 117512.58128124983,
      "d": 49.0754140624922,
      "v": 81
    },
    {
      "midi": 50,
      "hit": false,
      "t": 117700.87062499982,
      "d": 89.1369765624986,
      "v": 98
    },
    {
      "midi": 57,
      "hit": false,
      "t": 117700.87062499982,
      "d": 89.1369765624986,
      "v": 109
    },
    {
      "midi": 50,
      "hit": false,
      "t": 117893.16612499981,
      "d": 125.1923828125,
      "v": 100
    },
    {
      "midi": 57,
      "hit": false,
      "t": 117893.16612499981,
      "d": 129.198539062505,
      "v": 115
    },
    {
      "midi": 59,
      "hit": false,
      "t": 118085.46162499982,
      "d": 125.1923828125,
      "v": 101
    },
    {
      "midi": 50,
      "hit": false,
      "t": 118087.46470312482,
      "d": 107.1646796874993,
      "v": 98
    },
    {
      "midi": 57,
      "hit": false,
      "t": 118277.75712499981,
      "d": 71.1092734374979,
      "v": 112
    },
    {
      "midi": 50,
      "hit": false,
      "t": 118279.76020312481,
      "d": 65.10003906249767,
      "v": 87
    },
    {
      "midi": 50,
      "hit": false,
      "t": 118470.05262499981,
      "d": 73.11235156249313,
      "v": 104
    },
    {
      "midi": 57,
      "hit": false,
      "t": 118470.05262499981,
      "d": 85.1308203124936,
      "v": 115
    },
    {
      "midi": 56,
      "hit": false,
      "t": 118472.0557031248,
      "d": 9.01385156250035,
      "v": 80
    },
    {
      "midi": 57,
      "hit": false,
      "t": 118662.3481249998,
      "d": 169.26010156249686,
      "v": 116
    },
    {
      "midi": 50,
      "hit": false,
      "t": 118662.3481249998,
      "d": 189.29088281249278,
      "v": 107
    },
    {
      "midi": 59,
      "hit": false,
      "t": 118854.6436249998,
      "d": 213.3278203124937,
      "v": 93
    },
    {
      "midi": 50,
      "hit": false,
      "t": 118856.64670312479,
      "d": 1.0015390625048894,
      "v": 79
    },
    {
      "midi": 50,
      "hit": false,
      "t": 119046.93912499979,
      "d": 67.10311718750745,
      "v": 94
    },
    {
      "midi": 57,
      "hit": false,
      "t": 119046.93912499979,
      "d": 73.11235156250768,
      "v": 118
    },
    {
      "midi": 56,
      "hit": false,
      "t": 119048.94220312478,
      "d": 9.01385156250035,
      "v": 76
    },
    {
      "midi": 50,
      "hit": false,
      "t": 119239.2346249998,
      "d": 93.14313281250361,
      "v": 112
    },
    {
      "midi": 57,
      "hit": false,
      "t": 119239.2346249998,
      "d": 105.16160156250407,
      "v": 119
    },
    {
      "midi": 56,
      "hit": false,
      "t": 119241.23770312479,
      "d": 7.010773437505122,
      "v": 83
    },
    {
      "midi": 57,
      "hit": false,
      "t": 119431.5301249998,
      "d": 207.31858593749348,
      "v": 117
    },
    {
      "midi": 50,
      "hit": false,
      "t": 119431.5301249998,
      "d": 433.66641406249255,
      "v": 108
    },
    {
      "midi": 59,
      "hit": false,
      "t": 119623.8256249998,
      "d": 215.3308984375035,
      "v": 95
    },
    {
      "midi": 57,
      "hit": false,
      "t": 119816.1211249998,
      "d": 75.11542968748836,
      "v": 90
    },
    {
      "midi": 57,
      "hit": false,
      "t": 120008.4166249998,
      "d": 79.12158593749336,
      "v": 106
    },
    {
      "midi": 52,
      "hit": false,
      "t": 120008.4166249998,
      "d": 85.1308203124936,
      "v": 104
    },
    {
      "midi": 57,
      "hit": false,
      "t": 120200.71212499979,
      "d": 139.2139296874957,
      "v": 104
    },
    {
      "midi": 52,
      "hit": false,
      "t": 120200.71212499979,
      "d": 155.23855468750116,
      "v": 81
    },
    {
      "midi": 52,
      "hit": false,
      "t": 120393.0076249998,
      "d": 111.17083593750431,
      "v": 69
    },
    {
      "midi": 59,
      "hit": false,
      "t": 120393.0076249998,
      "d": 199.30627343751257,
      "v": 79
    },
    {
      "midi": 52,
      "hit": false,
      "t": 120585.3031249998,
      "d": 57.08772656250221,
      "v": 70
    },
    {
      "midi": 57,
      "hit": false,
      "t": 120585.3031249998,
      "d": 81.12466406250314,
      "v": 104
    },
    {
      "midi": 52,
      "hit": false,
      "t": 120777.59862499981,
      "d": 83.12774218749837,
      "v": 92
    },
    {
      "midi": 57,
      "hit": false,
      "t": 120777.59862499981,
      "d": 93.14313281250361,
      "v": 107
    },
    {
      "midi": 57,
      "hit": false,
      "t": 120967.8910468748,
      "d": 205.3155078124837,
      "v": 101
    },
    {
      "midi": 52,
      "hit": false,
      "t": 120969.8941249998,
      "d": 315.4848046874831,
      "v": 89
    },
    {
      "midi": 59,
      "hit": false,
      "t": 121162.1896249998,
      "d": 143.22008593748615,
      "v": 90
    },
    {
      "midi": 52,
      "hit": false,
      "t": 121354.48512499979,
      "d": 41.06310156249674,
      "v": 73
    },
    {
      "midi": 57,
      "hit": false,
      "t": 121354.48512499979,
      "d": 67.1031171874929,
      "v": 99
    },
    {
      "midi": 52,
      "hit": false,
      "t": 121546.78062499978,
      "d": 65.10003906249767,
      "v": 104
    },
    {
      "midi": 57,
      "hit": false,
      "t": 121546.78062499978,
      "d": 77.11850781249814,
      "v": 107
    },
    {
      "midi": 52,
      "hit": false,
      "t": 121737.07304687478,
      "d": 157.2416328124964,
      "v": 101
    },
    {
      "midi": 57,
      "hit": false,
      "t": 121737.07304687478,
      "d": 185.28472656250233,
      "v": 106
    },
    {
      "midi": 52,
      "hit": false,
      "t": 121931.37162499978,
      "d": 87.13389843750338,
      "v": 85
    },
    {
      "midi": 59,
      "hit": false,
      "t": 121931.37162499978,
      "d": 151.23239843749616,
      "v": 92
    },
    {
      "midi": 52,
      "hit": false,
      "t": 122123.66712499977,
      "d": 65.10003906249767,
      "v": 86
    },
    {
      "midi": 57,
      "hit": false,
      "t": 122123.66712499977,
      "d": 75.11542968750291,
      "v": 104
    },
    {
      "midi": 52,
      "hit": false,
      "t": 122313.95954687477,
      "d": 77.11850781249814,
      "v": 104
    },
    {
      "midi": 57,
      "hit": false,
      "t": 122313.95954687477,
      "d": 83.12774218749837,
      "v": 115
    },
    {
      "midi": 57,
      "hit": false,
      "t": 122506.25504687476,
      "d": 181.27857031249732,
      "v": 111
    },
    {
      "midi": 52,
      "hit": false,
      "t": 122506.25504687476,
      "d": 451.69411718749325,
      "v": 98
    },
    {
      "midi": 59,
      "hit": false,
      "t": 122692.54131249976,
      "d": 237.36475781249464,
      "v": 88
    },
    {
      "midi": 57,
      "hit": false,
      "t": 122884.83681249975,
      "d": 83.12774218751292,
      "v": 96
    },
    {
      "midi": 57,
      "hit": false,
      "t": 123083.14154687476,
      "d": 97.14928906249406,
      "v": 104
    },
    {
      "midi": 50,
      "hit": false,
      "t": 123085.14462499975,
      "d": 75.11542968750291,
      "v": 107
    },
    {
      "midi": 57,
      "hit": false,
      "t": 123275.43704687475,
      "d": 151.23239843749616,
      "v": 97
    },
    {
      "midi": 50,
      "hit": false,
      "t": 123277.44012499975,
      "d": 143.2200859375007,
      "v": 101
    },
    {
      "midi": 59,
      "hit": false,
      "t": 123469.73562499975,
      "d": 153.23547656250594,
      "v": 97
    },
    {
      "midi": 50,
      "hit": false,
      "t": 123469.73562499975,
      "d": 237.3647578125092,
      "v": 89
    },
    {
      "midi": 57,
      "hit": false,
      "t": 123660.02804687477,
      "d": 83.12774218749837,
      "v": 104
    },
    {
      "midi": 50,
      "hit": false,
      "t": 123852.32354687476,
      "d": 89.1369765624986,
      "v": 103
    },
    {
      "midi": 57,
      "hit": false,
      "t": 123852.32354687476,
      "d": 107.1646796874993,
      "v": 108
    },
    {
      "midi": 50,
      "hit": false,
      "t": 124046.62212499976,
      "d": 145.22316406249593,
      "v": 98
    },
    {
      "midi": 57,
      "hit": false,
      "t": 124046.62212499976,
      "d": 173.26625781250186,
      "v": 102
    },
    {
      "midi": 50,
      "hit": false,
      "t": 124238.91762499977,
      "d": 103.1585234374943,
      "v": 93
    },
    {
      "midi": 59,
      "hit": false,
      "t": 124238.91762499977,
      "d": 147.22624218749115,
      "v": 93
    },
    {
      "midi": 57,
      "hit": false,
      "t": 124431.21312499976,
      "d": 73.11235156250768,
      "v": 102
    },
    {
      "midi": 50,
      "hit": false,
      "t": 124435.21928124977,
      "d": 25.03847656250582,
      "v": 76
    },
    {
      "midi": 50,
      "hit": false,
      "t": 124623.50862499977,
      "d": 69.10619531250268,
      "v": 102
    },
    {
      "midi": 57,
      "hit": false,
      "t": 124623.50862499977,
      "d": 89.1369765624986,
      "v": 104
    },
    {
      "midi": 50,
      "hit": false,
      "t": 124815.80412499976,
      "d": 155.23855468750116,
      "v": 101
    },
    {
      "midi": 57,
      "hit": false,
      "t": 124815.80412499976,
      "d": 185.28472656250233,
      "v": 108
    },
    {
      "midi": 50,
      "hit": false,
      "t": 125008.09962499977,
      "d": 79.12158593749336,
      "v": 56
    },
    {
      "midi": 59,
      "hit": false,
      "t": 125008.09962499977,
      "d": 219.33705468749395,
      "v": 97
    },
    {
      "midi": 50,
      "hit": false,
      "t": 125200.39512499976,
      "d": 59.09080468749744,
      "v": 88
    },
    {
      "midi": 57,
      "hit": false,
      "t": 125200.39512499976,
      "d": 81.12466406250314,
      "v": 101
    },
    {
      "midi": 50,
      "hit": false,
      "t": 125392.69062499977,
      "d": 77.11850781249814,
      "v": 101
    },
    {
      "midi": 57,
      "hit": false,
      "t": 125392.69062499977,
      "d": 97.14928906249406,
      "v": 102
    },
    {
      "midi": 57,
      "hit": false,
      "t": 125584.98612499976,
      "d": 183.2816484375071,
      "v": 108
    },
    {
      "midi": 50,
      "hit": false,
      "t": 125584.98612499976,
      "d": 417.64178906250163,
      "v": 101
    },
    {
      "midi": 59,
      "hit": false,
      "t": 125777.28162499977,
      "d": 237.36475781249464,
      "v": 93
    },
    {
      "midi": 57,
      "hit": false,
      "t": 125969.57712499976,
      "d": 53.081570312497206,
      "v": 95
    },
    {
      "midi": 52,
      "hit": false,
      "t": 126161.87262499976,
      "d": 27.041554687501048,
      "v": 76
    },
    {
      "midi": 59,
      "hit": false,
      "t": 126161.87262499976,
      "d": 69.10619531250268,
      "v": 107
    },
    {
      "midi": 59,
      "hit": false,
      "t": 126354.16812499976,
      "d": 185.28472656250233,
      "v": 96
    },
    {
      "midi": 52,
      "hit": false,
      "t": 126354.16812499976,
      "d": 295.45402343750175,
      "v": 94
    },
    {
      "midi": 61,
      "hit": false,
      "t": 126546.46362499977,
      "d": 169.26010156249686,
      "v": 100
    },
    {
      "midi": 52,
      "hit": false,
      "t": 126738.75912499976,
      "d": 77.11850781249814,
      "v": 83
    },
    {
      "midi": 59,
      "hit": false,
      "t": 126738.75912499976,
      "d": 91.14005468749383,
      "v": 86
    },
    {
      "midi": 52,
      "hit": false,
      "t": 126931.05462499976,
      "d": 91.14005468749383,
      "v": 102
    },
    {
      "midi": 59,
      "hit": false,
      "t": 126931.05462499976,
      "d": 93.14313281248906,
      "v": 99
    },
    {
      "midi": 52,
      "hit": false,
      "t": 127123.35012499975,
      "d": 153.23547656250594,
      "v": 96
    },
    {
      "midi": 59,
      "hit": false,
      "t": 127123.35012499975,
      "d": 157.24163281251094,
      "v": 104
    },
    {
      "midi": 52,
      "hit": false,
      "t": 127315.64562499976,
      "d": 77.11850781249814,
      "v": 88
    },
    {
      "midi": 61,
      "hit": false,
      "t": 127315.64562499976,
      "d": 139.2139296874957,
      "v": 83
    },
    {
      "midi": 52,
      "hit": false,
      "t": 127507.94112499975,
      "d": 61.09388281250722,
      "v": 84
    },
    {
      "midi": 59,
      "hit": false,
      "t": 127507.94112499975,
      "d": 81.12466406250314,
      "v": 103
    },
    {
      "midi": 52,
      "hit": false,
      "t": 127700.23662499976,
      "d": 83.12774218749837,
      "v": 102
    },
    {
      "midi": 59,
      "hit": false,
      "t": 127700.23662499976,
      "d": 91.14005468749383,
      "v": 109
    },
    {
      "midi": 59,
      "hit": false,
      "t": 127892.53212499975,
      "d": 131.20161718750023,
      "v": 108
    },
    {
      "midi": 52,
      "hit": false,
      "t": 127892.53212499975,
      "d": 137.21085156250047,
      "v": 96
    },
    {
      "midi": 52,
      "hit": false,
      "t": 128084.82762499976,
      "d": 79.12158593749336,
      "v": 95
    },
    {
      "midi": 61,
      "hit": false,
      "t": 128084.82762499976,
      "d": 219.33705468749395,
      "v": 96
    },
    {
      "midi": 52,
      "hit": false,
      "t": 128277.12312499975,
      "d": 61.09388281250722,
      "v": 87
    },
    {
      "midi": 59,
      "hit": false,
      "t": 128277.12312499975,
      "d": 87.13389843750338,
      "v": 101
    },
    {
      "midi": 52,
      "hit": false,
      "t": 128469.41862499976,
      "d": 81.12466406250314,
      "v": 104
    },
    {
      "midi": 59,
      "hit": false,
      "t": 128469.41862499976,
      "d": 89.1369765624986,
      "v": 110
    },
    {
      "midi": 52,
      "hit": false,
      "t": 128659.71104687476,
      "d": 73.11235156249313,
      "v": 101
    },
    {
      "midi": 59,
      "hit": false,
      "t": 128659.71104687476,
      "d": 85.1308203124936,
      "v": 114
    },
    {
      "midi": 59,
      "hit": false,
      "t": 128852.00654687475,
      "d": 103.1585234374943,
      "v": 127
    },
    {
      "midi": 52,
      "hit": false,
      "t": 128852.00654687475,
      "d": 179.2754921875021,
      "v": 114
    },
    {
      "midi": 60,
      "hit": false,
      "t": 128854.00962499974,
      "d": 17.02616406249581,
      "v": 111
    },
    {
      "midi": 50,
      "hit": false,
      "t": 128962.17584374975,
      "d": 61.09388281250722,
      "v": 81
    },
    {
      "midi": 48,
      "hit": false,
      "t": 129008.24664062475,
      "d": 67.1031171874929,
      "v": 86
    },
    {
      "midi": 47,
      "hit": false,
      "t": 129054.31743749975,
      "d": 61.09388281250722,
      "v": 75
    },
    {
      "midi": 75,
      "hit": false,
      "t": 129240.60370312475,
      "d": 27.041554687501048,
      "v": 107
    },
    {
      "midi": 81,
      "hit": false,
      "t": 129240.60370312475,
      "d": 161.2477890625014,
      "v": 85
    },
    {
      "midi": 50,
      "hit": false,
      "t": 129240.60370312475,
      "d": 483.7433671874751,
      "v": 80
    },
    {
      "midi": 62,
      "hit": false,
      "t": 129240.60370312475,
      "d": 505.7772265624808,
      "v": 94
    },
    {
      "midi": 66,
      "hit": false,
      "t": 129240.60370312486,
      "d": 213.3278203124937,
      "v": 1
    },
    {
      "midi": 76,
      "hit": false,
      "t": 129242.60678124975,
      "d": 111.17083593750431,
      "v": 92
    },
    {
      "midi": 76,
      "hit": false,
      "t": 129430.89612499975,
      "d": 93.14313281248906,
      "v": 78
    },
    {
      "midi": 81,
      "hit": false,
      "t": 129432.89920312475,
      "d": 101.15544531249907,
      "v": 69
    },
    {
      "midi": 64,
      "hit": false,
      "t": 129432.89920312485,
      "d": 189.29088281250733,
      "v": 1
    },
    {
      "midi": 76,
      "hit": false,
      "t": 129623.19162499974,
      "d": 85.1308203124936,
      "v": 81
    },
    {
      "midi": 81,
      "hit": false,
      "t": 129623.19162499974,
      "d": 93.14313281248906,
      "v": 70
    },
    {
      "midi": 66,
      "hit": false,
      "t": 129625.19470312486,
      "d": 227.3493671874894,
      "v": 1
    },
    {
      "midi": 76,
      "hit": false,
      "t": 129815.48712499974,
      "d": 119.18314843749977,
      "v": 96
    },
    {
      "midi": 81,
      "hit": false,
      "t": 129815.48712499974,
      "d": 131.20161718750023,
      "v": 85
    },
    {
      "midi": 62,
      "hit": false,
      "t": 129815.48712499974,
      "d": 443.6818046874978,
      "v": 89
    },
    {
      "midi": 50,
      "hit": false,
      "t": 129815.48712499974,
      "d": 531.8172421874915,
      "v": 92
    },
    {
      "midi": 64,
      "hit": false,
      "t": 129817.49020312485,
      "d": 189.29088281249278,
      "v": 1
    },
    {
      "midi": 81,
      "hit": false,
      "t": 130009.78570312474,
      "d": 55.084648437506985,
      "v": 57
    },
    {
      "midi": 76,
      "hit": false,
      "t": 130009.78570312474,
      "d": 67.10311718750745,
      "v": 71
    },
    {
      "midi": 66,
      "hit": false,
      "t": 130009.78570312484,
      "d": 215.33089843748894,
      "v": 1
    },
    {
      "midi": 76,
      "hit": false,
      "t": 130202.08120312475,
      "d": 57.08772656248766,
      "v": 72
    },
    {
      "midi": 64,
      "hit": false,
      "t": 130202.08120312484,
      "d": 189.29088281249278,
      "v": 1
    },
    {
      "midi": 81,
      "hit": false,
      "t": 130204.08428124974,
      "d": 41.06310156249674,
      "v": 40
    },
    {
      "midi": 76,
      "hit": false,
      "t": 130392.37362499973,
      "d": 69.10619531248813,
      "v": 93
    },
    {
      "midi": 81,
      "hit": false,
      "t": 130392.37362499973,
      "d": 83.12774218748382,
      "v": 82
    },
    {
      "midi": 62,
      "hit": false,
      "t": 130392.37362499973,
      "d": 165.2539453124773,
      "v": 102
    },
    {
      "midi": 50,
      "hit": false,
      "t": 130394.37670312473,
      "d": 145.22316406248137,
      "v": 81
    },
    {
      "midi": 66,
      "hit": false,
      "t": 130394.37670312483,
      "d": 195.30011718749302,
      "v": 1
    },
    {
      "midi": 81,
      "hit": false,
      "t": 130584.66912499971,
      "d": 53.081570312497206,
      "v": 68
    },
    {
      "midi": 76,
      "hit": false,
      "t": 130584.66912499971,
      "d": 55.08464843749243,
      "v": 79
    },
    {
      "midi": 64,
      "hit": false,
      "t": 130586.67220312482,
      "d": 189.29088281250733,
      "v": 1
    },
    {
      "midi": 50,
      "hit": false,
      "t": 130774.9615468747,
      "d": 445.68488281253667,
      "v": 83
    },
    {
      "midi": 76,
      "hit": false,
      "t": 130776.9646249997,
      "d": 99.15236718750384,
      "v": 99
    },
    {
      "midi": 81,
      "hit": false,
      "t": 130776.9646249997,
      "d": 123.18930468750477,
      "v": 81
    },
    {
      "midi": 57,
      "hit": false,
      "t": 130776.9646249997,
      "d": 401.6171640625107,
      "v": 101
    },
    {
      "midi": 62,
      "hit": false,
      "t": 130776.9646249997,
      "d": 427.6571796875214,
      "v": 98
    },
    {
      "midi": 66,
      "hit": false,
      "t": 130778.96770312483,
      "d": 215.33089843748894,
      "v": 1
    },
    {
      "midi": 81,
      "hit": false,
      "t": 130971.2632031247,
      "d": 41.06310156249674,
      "v": 50
    },
    {
      "midi": 76,
      "hit": false,
      "t": 130971.2632031247,
      "d": 51.07849218750198,
      "v": 64
    },
    {
      "midi": 64,
      "hit": false,
      "t": 130971.26320312482,
      "d": 189.29088281250733,
      "v": 1
    },
    {
      "midi": 81,
      "hit": false,
      "t": 131161.55562499972,
      "d": 51.07849218751653,
      "v": 59
    },
    {
      "midi": 76,
      "hit": false,
      "t": 131161.55562499972,
      "d": 61.09388281253632,
      "v": 75
    },
    {
      "midi": 66,
      "hit": false,
      "t": 131163.5587031248,
      "d": 189.29088281249278,
      "v": 1
    },
    {
      "midi": 76,
      "hit": false,
      "t": 131353.85112499975,
      "d": 111.17083593748976,
      "v": 101
    },
    {
      "midi": 81,
      "hit": false,
      "t": 131353.85112499975,
      "d": 127.19546093748068,
      "v": 82
    },
    {
      "midi": 50,
      "hit": false,
      "t": 131353.85112499975,
      "d": 431.66333593748277,
      "v": 88
    },
    {
      "midi": 62,
      "hit": false,
      "t": 131353.85112499975,
      "d": 433.66641406249255,
      "v": 101
    },
    {
      "midi": 64,
      "hit": false,
      "t": 131355.8542031248,
      "d": 189.29088281249278,
      "v": 1
    },
    {
      "midi": 76,
      "hit": false,
      "t": 131548.14970312474,
      "d": 59.09080468749744,
      "v": 77
    },
    {
      "midi": 81,
      "hit": false,
      "t": 131548.14970312474,
      "d": 63.09696093748789,
      "v": 63
    },
    {
      "midi": 66,
      "hit": false,
      "t": 131548.14970312477,
      "d": 189.29088281249278,
      "v": 1
    },
    {
      "midi": 64,
      "hit": false,
      "t": 131740.44520312475,
      "d": 189.29088281249278,
      "v": 1
    },
    {
      "midi": 76,
      "hit": false,
      "t": 131742.44828124973,
      "d": 47.07233593752608,
      "v": 73
    },
    {
      "midi": 66,
      "hit": false,
      "t": 131932.74070312473,
      "d": 189.29088281249278,
      "v": 1
    },
    {
      "midi": 76,
      "hit": false,
      "t": 131932.74070312476,
      "d": 69.10619531248813,
      "v": 101
    },
    {
      "midi": 81,
      "hit": false,
      "t": 131932.74070312476,
      "d": 83.12774218749837,
      "v": 81
    },
    {
      "midi": 62,
      "hit": false,
      "t": 131932.74070312476,
      "d": 117.18007031248999,
      "v": 97
    },
    {
      "midi": 50,
      "hit": false,
      "t": 131932.74070312476,
      "d": 173.26625781250186,
      "v": 78
    },
    {
      "midi": 64,
      "hit": false,
      "t": 132125.0362031247,
      "d": 189.29088281249278,
      "v": 1
    },
    {
      "midi": 76,
      "hit": false,
      "t": 132125.03620312476,
      "d": 53.081570312497206,
      "v": 82
    },
    {
      "midi": 81,
      "hit": false,
      "t": 132125.03620312476,
      "d": 53.081570312497206,
      "v": 67
    },
    {
      "midi": 57,
      "hit": false,
      "t": 132315.32862499976,
      "d": 459.70642968750326,
      "v": 107
    },
    {
      "midi": 45,
      "hit": false,
      "t": 132315.32862499976,
      "d": 2911.47405468754,
      "v": 86
    },
    {
      "midi": 69,
      "hit": false,
      "t": 132317.33170312468,
      "d": 958.4728828124935,
      "v": 1
    },
    {
      "midi": 76,
      "hit": false,
      "t": 132317.33170312477,
      "d": 77.11850781249814,
      "v": 100
    },
    {
      "midi": 81,
      "hit": false,
      "t": 132317.33170312477,
      "d": 95.14621093749884,
      "v": 81
    },
    {
      "midi": 81,
      "hit": false,
      "t": 132507.62412499977,
      "d": 385.5925390624907,
      "v": 68
    },
    {
      "midi": 76,
      "hit": false,
      "t": 132509.62720312478,
      "d": 183.28164843749255,
      "v": 79
    },
    {
      "midi": 74,
      "hit": false,
      "t": 132701.92270312476,
      "d": 181.27857031251187,
      "v": 88
    },
    {
      "midi": 57,
      "hit": false,
      "t": 132892.21512499976,
      "d": 61.09388281250722,
      "v": 78
    },
    {
      "midi": 81,
      "hit": false,
      "t": 133082.50754687475,
      "d": 207.31858593752258,
      "v": 81
    },
    {
      "midi": 73,
      "hit": false,
      "t": 133084.51062499976,
      "d": 203.31242968750303,
      "v": 92
    },
    {
      "midi": 57,
      "hit": false,
      "t": 133276.80612499977,
      "d": 47.07233593749697,
      "v": 82
    },
    {
      "midi": 66,
      "hit": false,
      "t": 133278.80920312466,
      "d": 189.29088281249278,
      "v": 1
    },
    {
      "midi": 64,
      "hit": false,
      "t": 133471.10470312464,
      "d": 189.29088281249278,
      "v": 1
    },
    {
      "midi": 81,
      "hit": false,
      "t": 133471.10470312476,
      "d": 151.2323984375107,
      "v": 78
    },
    {
      "midi": 74,
      "hit": false,
      "t": 133471.10470312476,
      "d": 157.24163281251094,
      "v": 108
    },
    {
      "midi": 69,
      "hit": false,
      "t": 133663.40020312462,
      "d": 1343.0638828125084,
      "v": 1
    },
    {
      "midi": 81,
      "hit": false,
      "t": 133663.40020312477,
      "d": 281.43247656250605,
      "v": 79
    },
    {
      "midi": 76,
      "hit": false,
      "t": 133665.40328124978,
      "d": 299.46017968750675,
      "v": 99
    },
    {
      "midi": 69,
      "hit": false,
      "t": 134049.9942812498,
      "d": 251.3863046875049,
      "v": 99
    },
    {
      "midi": 68,
      "hit": false,
      "t": 134434.5852812498,
      "d": 83.12774218749837,
      "v": 102
    },
    {
      "midi": 69,
      "hit": false,
      "t": 134442.59759374982,
      "d": 389.59869531248114,
      "v": 107
    },
    {
      "midi": 57,
      "hit": false,
      "t": 134815.1701249998,
      "d": 331.5094296874886,
      "v": 85
    },
    {
      "midi": 64,
      "hit": false,
      "t": 135009.4687031246,
      "d": 3458.314382812503,
      "v": 1
    },
    {
      "midi": 69,
      "hit": false,
      "t": 135009.4687031248,
      "d": 131.20161718750023,
      "v": 108
    },
    {
      "midi": 71,
      "hit": false,
      "t": 135392.0566249998,
      "d": 141.21700781252002,
      "v": 94
    },
    {
      "midi": 76,
      "hit": false,
      "t": 135392.0566249998,
      "d": 165.25394531252095,
      "v": 72
    },
    {
      "midi": 52,
      "hit": false,
      "t": 135392.0566249998,
      "d": 1046.6083203125745,
      "v": 98
    },
    {
      "midi": 64,
      "hit": false,
      "t": 135394.0597031248,
      "d": 127.19546093750978,
      "v": 84
    },
    {
      "midi": 71,
      "hit": false,
      "t": 135588.35828124982,
      "d": 43.06617968750652,
      "v": 64
    },
    {
      "midi": 64,
      "hit": false,
      "t": 135588.35828124982,
      "d": 45.0692578125163,
      "v": 46
    },
    {
      "midi": 71,
      "hit": false,
      "t": 135780.65378124983,
      "d": 33.05078906248673,
      "v": 64
    },
    {
      "midi": 71,
      "hit": false,
      "t": 135970.94620312483,
      "d": 115.17699218750931,
      "v": 100
    },
    {
      "midi": 64,
      "hit": false,
      "t": 135970.94620312483,
      "d": 121.18622656250955,
      "v": 90
    },
    {
      "midi": 76,
      "hit": false,
      "t": 135970.94620312483,
      "d": 153.2354765625205,
      "v": 83
    },
    {
      "midi": 40,
      "hit": false,
      "t": 135972.94928124984,
      "d": 788.2112421875645,
      "v": 75
    },
    {
      "midi": 71,
      "hit": false,
      "t": 136165.24478124984,
      "d": 65.10003906249767,
      "v": 73
    },
    {
      "midi": 64,
      "hit": false,
      "t": 136165.24478124984,
      "d": 67.10311718750745,
      "v": 60
    },
    {
      "midi": 76,
      "hit": false,
      "t": 136257.38637499986,
      "d": 29.044632812496275,
      "v": 50
    },
    {
      "midi": 76,
      "hit": false,
      "t": 136357.54028124985,
      "d": 23.035398437496042,
      "v": 53
    },
    {
      "midi": 64,
      "hit": false,
      "t": 136357.54028124985,
      "d": 43.06617968750652,
      "v": 65
    },
    {
      "midi": 71,
      "hit": false,
      "t": 136357.54028124985,
      "d": 51.07849218751653,
      "v": 73
    },
    {
      "midi": 71,
      "hit": false,
      "t": 136547.83270312488,
      "d": 71.1092734374979,
      "v": 101
    },
    {
      "midi": 64,
      "hit": false,
      "t": 136547.83270312488,
      "d": 77.11850781249814,
      "v": 91
    },
    {
      "midi": 76,
      "hit": false,
      "t": 136547.83270312488,
      "d": 235.36167968751397,
      "v": 83
    },
    {
      "midi": 52,
      "hit": false,
      "t": 136549.8357812499,
      "d": 770.1835390625056,
      "v": 89
    },
    {
      "midi": 71,
      "hit": false,
      "t": 136740.12820312488,
      "d": 61.09388281250722,
      "v": 71
    },
    {
      "midi": 64,
      "hit": false,
      "t": 136742.1312812499,
      "d": 37.056945312506286,
      "v": 56
    },
    {
      "midi": 71,
      "hit": false,
      "t": 136930.42062499988,
      "d": 105.16160156251863,
      "v": 92
    },
    {
      "midi": 64,
      "hit": false,
      "t": 136930.42062499988,
      "d": 115.17699218750931,
      "v": 92
    },
    {
      "midi": 40,
      "hit": false,
      "t": 136930.42062499988,
      "d": 1128.7345234375389,
      "v": 78
    },
    {
      "midi": 76,
      "hit": false,
      "t": 136932.4237031249,
      "d": 121.18622656250955,
      "v": 78
    },
    {
      "midi": 71,
      "hit": false,
      "t": 137124.7192031249,
      "d": 63.09696093748789,
      "v": 61
    },
    {
      "midi": 64,
      "hit": false,
      "t": 137126.7222812499,
      "d": 51.07849218748743,
      "v": 45
    },
    {
      "midi": 71,
      "hit": false,
      "t": 137315.0116249999,
      "d": 49.07541406247765,
      "v": 62
    },
    {
      "midi": 64,
      "hit": false,
      "t": 137317.0147031249,
      "d": 31.04771093747695,
      "v": 45
    },
    {
      "midi": 64,
      "hit": false,
      "t": 137507.30712499988,
      "d": 97.14928906250861,
      "v": 92
    },
    {
      "midi": 71,
      "hit": false,
      "t": 137507.30712499988,
      "d": 109.16775781250908,
      "v": 93
    },
    {
      "midi": 76,
      "hit": false,
      "t": 137507.30712499988,
      "d": 135.2077734375198,
      "v": 85
    },
    {
      "midi": 52,
      "hit": false,
      "t": 137507.30712499988,
      "d": 621.9557578125386,
      "v": 83
    },
    {
      "midi": 64,
      "hit": false,
      "t": 137701.6057031249,
      "d": 55.084648437506985,
      "v": 54
    },
    {
      "midi": 71,
      "hit": false,
      "t": 137701.6057031249,
      "d": 55.084648437506985,
      "v": 69
    },
    {
      "midi": 76,
      "hit": false,
      "t": 137703.6087812499,
      "d": 63.09696093748789,
      "v": 62
    },
    {
      "midi": 76,
      "hit": false,
      "t": 137893.9012031249,
      "d": 43.06617968750652,
      "v": 57
    },
    {
      "midi": 64,
      "hit": false,
      "t": 137893.9012031249,
      "d": 51.07849218751653,
      "v": 53
    },
    {
      "midi": 71,
      "hit": false,
      "t": 137893.9012031249,
      "d": 57.087726562516764,
      "v": 68
    },
    {
      "midi": 64,
      "hit": false,
      "t": 138086.1967031249,
      "d": 69.10619531251723,
      "v": 61
    },
    {
      "midi": 71,
      "hit": false,
      "t": 138086.1967031249,
      "d": 87.13389843751793,
      "v": 72
    },
    {
      "midi": 76,
      "hit": false,
      "t": 138086.1967031249,
      "d": 271.41708593751537,
      "v": 73
    },
    {
      "midi": 64,
      "hit": false,
      "t": 138278.49220312492,
      "d": 61.09388281250722,
      "v": 47
    },
    {
      "midi": 71,
      "hit": false,
      "t": 138278.49220312492,
      "d": 67.10311718750745,
      "v": 62
    },
    {
      "midi": 57,
      "hit": false,
      "t": 138468.7846249999,
      "d": 261.4016953124956,
      "v": 85
    },
    {
      "midi": 45,
      "hit": false,
      "t": 138468.7846249999,
      "d": 2621.027726562548,
      "v": 70
    },
    {
      "midi": 69,
      "hit": false,
      "t": 138470.78770312492,
      "d": 219.33705468749395,
      "v": 107
    },
    {
      "midi": 69,
      "hit": false,
      "t": 139622.5576249999,
      "d": 69.10619531248813,
      "v": 84
    },
    {
      "midi": 76,
      "hit": false,
      "t": 139622.5576249999,
      "d": 77.11850781249814,
      "v": 83
    },
    {
      "midi": 69,
      "hit": false,
      "t": 139814.8531249999,
      "d": 257.3955390625051,
      "v": 79
    },
    {
      "midi": 78,
      "hit": false,
      "t": 139814.8531249999,
      "d": 259.3986171875149,
      "v": 102
    },
    {
      "midi": 78,
      "hit": false,
      "t": 140201.44720312493,
      "d": 139.21392968751024,
      "v": 85
    },
    {
      "midi": 69,
      "hit": false,
      "t": 140201.44720312493,
      "d": 319.49096093751723,
      "v": 81
    },
    {
      "midi": 76,
      "hit": false,
      "t": 140393.74270312494,
      "d": 177.27241406252142,
      "v": 71
    },
    {
      "midi": 57,
      "hit": false,
      "t": 140584.03512499997,
      "d": 61.09388281250722,
      "v": 82
    },
    {
      "midi": 69,
      "hit": false,
      "t": 140776.33062499997,
      "d": 215.3308984374744,
      "v": 99
    },
    {
      "midi": 79,
      "hit": false,
      "t": 140776.33062499997,
      "d": 237.36475781246554,
      "v": 92
    },
    {
      "midi": 57,
      "hit": false,
      "t": 140970.62920312496,
      "d": 51.07849218748743,
      "v": 83
    },
    {
      "midi": 78,
      "hit": false,
      "t": 141160.92162499996,
      "d": 209.32166406250326,
      "v": 99
    },
    {
      "midi": 69,
      "hit": false,
      "t": 141160.92162499996,
      "d": 225.34628906249418,
      "v": 93
    },
    {
      "midi": 66,
      "hit": false,
      "t": 141355.22020312463,
      "d": 449.69103906248347,
      "v": 1
    },
    {
      "midi": 75,
      "hit": false,
      "t": 141545.51262499994,
      "d": 9.013851562485797,
      "v": 88
    },
    {
      "midi": 76,
      "hit": false,
      "t": 141545.51262499994,
      "d": 169.2601015624823,
      "v": 107
    },
    {
      "midi": 81,
      "hit": false,
      "t": 141545.51262499994,
      "d": 319.4909609374881,
      "v": 95
    },
    {
      "midi": 62,
      "hit": false,
      "t": 141545.51262499994,
      "d": 457.7033515624935,
      "v": 88
    },
    {
      "midi": 50,
      "hit": false,
      "t": 141545.51262499994,
      "d": 966.4851953125326,
      "v": 74
    },
    {
      "midi": 64,
      "hit": false,
      "t": 141739.8112031246,
      "d": 189.29088281249278,
      "v": 1
    },
    {
      "midi": 76,
      "hit": false,
      "t": 141741.8142812499,
      "d": 85.13082031250815,
      "v": 69
    },
    {
      "midi": 66,
      "hit": false,
      "t": 141932.1067031246,
      "d": 217.33397656251327,
      "v": 1
    },
    {
      "midi": 81,
      "hit": false,
      "t": 141934.10978124992,
      "d": 43.06617968750652,
      "v": 57
    },
    {
      "midi": 76,
      "hit": false,
      "t": 141934.10978124992,
      "d": 55.084648437506985,
      "v": 75
    },
    {
      "midi": 64,
      "hit": false,
      "t": 142124.4022031246,
      "d": 189.29088281249278,
      "v": 1
    },
    {
      "midi": 76,
      "hit": false,
      "t": 142124.40220312495,
      "d": 103.15852343750885,
      "v": 102
    },
    {
      "midi": 81,
      "hit": false,
      "t": 142124.40220312495,
      "d": 129.19853906251956,
      "v": 85
    },
    {
      "midi": 62,
      "hit": false,
      "t": 142124.40220312495,
      "d": 740.1373671875335,
      "v": 103
    },
    {
      "midi": 66,
      "hit": false,
      "t": 142316.69770312458,
      "d": 205.3155078125128,
      "v": 1
    },
    {
      "midi": 76,
      "hit": false,
      "t": 142316.69770312496,
      "d": 59.09080468752654,
      "v": 68
    },
    {
      "midi": 81,
      "hit": false,
      "t": 142318.70078124997,
      "d": 49.07541406250675,
      "v": 68
    },
    {
      "midi": 81,
      "hit": false,
      "t": 142506.99012499998,
      "d": 51.07849218748743,
      "v": 64
    },
    {
      "midi": 76,
      "hit": false,
      "t": 142506.99012499998,
      "d": 61.093882812478114,
      "v": 78
    },
    {
      "midi": 64,
      "hit": false,
      "t": 142508.99320312458,
      "d": 189.29088281249278,
      "v": 1
    },
    {
      "midi": 76,
      "hit": false,
      "t": 142699.28562499996,
      "d": 55.084648437506985,
      "v": 92
    },
    {
      "midi": 81,
      "hit": false,
      "t": 142699.28562499996,
      "d": 61.09388281250722,
      "v": 78
    },
    {
      "midi": 50,
      "hit": false,
      "t": 142699.28562499996,
      "d": 189.2908828125219,
      "v": 92
    },
    {
      "midi": 66,
      "hit": false,
      "t": 142701.28870312456,
      "d": 211.32474218751304,
      "v": 1
    },
    {
      "midi": 81,
      "hit": false,
      "t": 142891.58112499997,
      "d": 35.05386718749651,
      "v": 62
    },
    {
      "midi": 76,
      "hit": false,
      "t": 142891.58112499997,
      "d": 49.07541406250675,
      "v": 81
    },
    {
      "midi": 64,
      "hit": false,
      "t": 142893.58420312457,
      "d": 189.29088281249278,
      "v": 1
    },
    {
      "midi": 50,
      "hit": false,
      "t": 143081.87354687497,
      "d": 475.7310546875233,
      "v": 85
    },
    {
      "midi": 74,
      "hit": false,
      "t": 143083.87662499998,
      "d": 39.06002343748696,
      "v": 111
    },
    {
      "midi": 76,
      "hit": false,
      "t": 143083.87662499998,
      "d": 131.20161718750023,
      "v": 111
    },
    {
      "midi": 81,
      "hit": false,
      "t": 143083.87662499998,
      "d": 157.24163281251094,
      "v": 88
    },
    {
      "midi": 62,
      "hit": false,
      "t": 143083.87662499998,
      "d": 439.6756484375219,
      "v": 102
    },
    {
      "midi": 66,
      "hit": false,
      "t": 143085.87970312455,
      "d": 207.31858593749348,
      "v": 1
    },
    {
      "midi": 76,
      "hit": false,
      "t": 143276.17212499998,
      "d": 77.11850781249814,
      "v": 75
    },
    {
      "midi": 64,
      "hit": false,
      "t": 143278.17520312456,
      "d": 189.29088281249278,
      "v": 1
    },
    {
      "midi": 81,
      "hit": false,
      "t": 143280.17828124997,
      "d": 35.05386718749651,
      "v": 59
    },
    {
      "midi": 81,
      "hit": false,
      "t": 143468.467625,
      "d": 83.12774218749837,
      "v": 74
    },
    {
      "midi": 76,
      "hit": false,
      "t": 143468.467625,
      "d": 91.14005468750838,
      "v": 87
    },
    {
      "midi": 66,
      "hit": false,
      "t": 143470.47070312453,
      "d": 285.4386328124965,
      "v": 1
    },
    {
      "midi": 50,
      "hit": false,
      "t": 143658.760046875,
      "d": 806.238945312507,
      "v": 83
    },
    {
      "midi": 74,
      "hit": false,
      "t": 143660.763125,
      "d": 35.05386718749651,
      "v": 98
    },
    {
      "midi": 76,
      "hit": false,
      "t": 143660.763125,
      "d": 137.21085156250047,
      "v": 100
    },
    {
      "midi": 81,
      "hit": false,
      "t": 143660.763125,
      "d": 143.2200859375007,
      "v": 85
    },
    {
      "midi": 62,
      "hit": false,
      "t": 143660.763125,
      "d": 357.5494453124702,
      "v": 96
    },
    {
      "midi": 64,
      "hit": false,
      "t": 143758.91395312452,
      "d": 97.14928906250861,
      "v": 1
    },
    {
      "midi": 66,
      "hit": false,
      "t": 143855.06170312452,
      "d": 189.29088281249278,
      "v": 1
    },
    {
      "midi": 76,
      "hit": false,
      "t": 143855.061703125,
      "d": 99.15236718748929,
      "v": 88
    },
    {
      "midi": 81,
      "hit": false,
      "t": 143855.061703125,
      "d": 103.15852343747974,
      "v": 80
    },
    {
      "midi": 64,
      "hit": false,
      "t": 144047.3572031245,
      "d": 189.29088281249278,
      "v": 1
    },
    {
      "midi": 76,
      "hit": false,
      "t": 144049.36028124997,
      "d": 191.29396093750256,
      "v": 102
    },
    {
      "midi": 81,
      "hit": false,
      "t": 144049.36028124997,
      "d": 407.62639843751094,
      "v": 85
    },
    {
      "midi": 66,
      "hit": false,
      "t": 144239.65270312448,
      "d": 189.29088281249278,
      "v": 1
    },
    {
      "midi": 74,
      "hit": false,
      "t": 144239.65270312497,
      "d": 151.2323984375107,
      "v": 95
    },
    {
      "midi": 62,
      "hit": false,
      "t": 144241.65578124998,
      "d": 105.16160156248952,
      "v": 98
    },
    {
      "midi": 64,
      "hit": false,
      "t": 144431.94820312446,
      "d": 189.29088281249278,
      "v": 1
    },
    {
      "midi": 73,
      "hit": false,
      "t": 144431.94820312498,
      "d": 43.06617968750652,
      "v": 76
    },
    {
      "midi": 81,
      "hit": false,
      "t": 144538.11134374997,
      "d": 319.4909609374881,
      "v": 81
    },
    {
      "midi": 57,
      "hit": false,
      "t": 144600.206765625,
      "d": 403.6202421874623,
      "v": 112
    },
    {
      "midi": 76,
      "hit": false,
      "t": 144606.216,
      "d": 279.42939843746717,
      "v": 108
    },
    {
      "midi": 75,
      "hit": false,
      "t": 144608.219078125,
      "d": 31.04771093747695,
      "v": 109
    },
    {
      "midi": 69,
      "hit": false,
      "t": 144624.24370312443,
      "d": 766.177382812486,
      "v": 1
    },
    {
      "midi": 69,
      "hit": false,
      "t": 144624.243703125,
      "d": 399.6140859374718,
      "v": 92
    },
    {
      "midi": 67,
      "hit": false,
      "t": 144950.74543749995,
      "d": 61.09388281250722,
      "v": 76
    },
    {
      "midi": 64,
      "hit": false,
      "t": 145082.94859374996,
      "d": 37.056945312506286,
      "v": 50
    },
    {
      "midi": 62,
      "hit": false,
      "t": 145114.99784374997,
      "d": 53.081570312497206,
      "v": 65
    },
    {
      "midi": 60,
      "hit": false,
      "t": 145177.09326562495,
      "d": 49.07541406250675,
      "v": 45
    },
    {
      "midi": 59,
      "hit": false,
      "t": 145233.17945312496,
      "d": 35.05386718749651,
      "v": 41
    },
    {
      "midi": 66,
      "hit": false,
      "t": 145393.4257031244,
      "d": 189.29088281249278,
      "v": 1
    },
    {
      "midi": 64,
      "hit": false,
      "t": 145583.71812499996,
      "d": 211.32474218751304,
      "v": 108
    },
    {
      "midi": 67,
      "hit": false,
      "t": 145583.71812499996,
      "d": 221.34013281250373,
      "v": 94
    },
    {
      "midi": 64,
      "hit": false,
      "t": 145585.72120312438,
      "d": 231.3555234374944,
      "v": 1
    },
    {
      "midi": 66,
      "hit": false,
      "t": 145776.01362499996,
      "d": 173.26625781250186,
      "v": 54
    },
    {
      "midi": 62,
      "hit": false,
      "t": 145776.01362499996,
      "d": 199.30627343748347,
      "v": 60
    },
    {
      "midi": 61,
      "hit": false,
      "t": 145778.0167031244,
      "d": 189.29088281249278,
      "v": 1
    },
    {
      "midi": 66,
      "hit": false,
      "t": 145970.31220312437,
      "d": 1439.211632812512,
      "v": 1
    },
    {
      "midi": 61,
      "hit": false,
      "t": 145970.31220312495,
      "d": 47.07233593749697,
      "v": 58
    },
    {
      "midi": 62,
      "hit": false,
      "t": 146160.60462499995,
      "d": 1309.0115546874877,
      "v": 114
    },
    {
      "midi": 66,
      "hit": false,
      "t": 146160.60462499995,
      "d": 1339.0577265624888,
      "v": 107
    },
    {
      "midi": 69,
      "hit": false,
      "t": 149229.32031249994,
      "d": 245.37707031253376,
      "v": 87
    },
    {
      "midi": 64,
      "hit": false,
      "t": 149231.32339062495,
      "d": 223.3432109375135,
      "v": 102
    },
    {
      "midi": 57,
      "hit": false,
      "t": 149233.32646874996,
      "d": 211.32474218751304,
      "v": 106
    },
    {
      "midi": 45,
      "hit": false,
      "t": 149233.32646874996,
      "d": 325.50019531251746,
      "v": 103
    },
    {
      "midi": 57,
      "hit": false,
      "t": 152320.06985937498,
      "d": 2522.8768984374765,
      "v": 95
    },
    {
      "midi": 45,
      "hit": false,
      "t": 152322.0729375,
      "d": 2544.9107578124676,
      "v": 83
    },
    {
      "midi": 69,
      "hit": false,
      "t": 152326.07909374998,
      "d": 539.8295546875161,
      "v": 85
    },
    {
      "midi": 81,
      "hit": false,
      "t": 152328.082171875,
      "d": 599.9218984375184,
      "v": 85
    },
    {
      "midi": 69,
      "hit": false,
      "t": 152971.07025000002,
      "d": 53.081570312497206,
      "v": 50
    },
    {
      "midi": 81,
      "hit": false,
      "t": 153007.12565625002,
      "d": 41.06310156249674,
      "v": 55
    },
    {
      "midi": 81,
      "hit": false,
      "t": 153141.331890625,
      "d": 55.084648437506985,
      "v": 65
    },
    {
      "midi": 81,
      "hit": false,
      "t": 153287.55659375002,
      "d": 45.069257812487194,
      "v": 62
    },
    {
      "midi": 69,
      "hit": false,
      "t": 153341.639703125,
      "d": 81.12466406248859,
      "v": 60
    },
    {
      "midi": 81,
      "hit": false,
      "t": 153417.756671875,
      "d": 49.07541406250675,
      "v": 67
    },
    {
      "midi": 69,
      "hit": false,
      "t": 153481.85517187498,
      "d": 85.13082031247905,
      "v": 54
    },
    {
      "midi": 81,
      "hit": false,
      "t": 153563.98137499997,
      "d": 41.06310156249674,
      "v": 67
    },
    {
      "midi": 69,
      "hit": false,
      "t": 153610.05217187497,
      "d": 85.13082031250815,
      "v": 61
    },
    {
      "midi": 81,
      "hit": false,
      "t": 153702.19376562498,
      "d": 39.06002343748696,
      "v": 68
    },
    {
      "midi": 69,
      "hit": false,
      "t": 153748.26456249997,
      "d": 83.12774218749837,
      "v": 59
    },
    {
      "midi": 81,
      "hit": false,
      "t": 153832.39384374997,
      "d": 47.07233593749697,
      "v": 67
    },
    {
      "midi": 69,
      "hit": false,
      "t": 153890.48310937497,
      "d": 225.34628906249418,
      "v": 55
    },
    {
      "midi": 81,
      "hit": false,
      "t": 153976.61546874998,
      "d": 51.07849218748743,
      "v": 68
    },
    {
      "midi": 81,
      "hit": false,
      "t": 154116.83093749997,
      "d": 49.07541406250675,
      "v": 69
    },
    {
      "midi": 69,
      "hit": false,
      "t": 154180.92943749996,
      "d": 77.11850781249814,
      "v": 47
    },
    {
      "midi": 81,
      "hit": false,
      "t": 154267.06179687494,
      "d": 37.056945312506286,
      "v": 51
    },
    {
      "midi": 52,
      "hit": false,
      "t": 155390.78862499996,
      "d": 187.2878046875121,
      "v": 101
    },
    {
      "midi": 57,
      "hit": false,
      "t": 155390.78862499996,
      "d": 187.2878046875121,
      "v": 102
    },
    {
      "midi": 45,
      "hit": false,
      "t": 155392.79170312497,
      "d": 377.5802265625098,
      "v": 101
    },
    {
      "midi": 52,
      "hit": false,
      "t": 156931.15570312497,
      "d": 187.2878046875121,
      "v": 101
    },
    {
      "midi": 57,
      "hit": false,
      "t": 156931.15570312497,
      "d": 187.2878046875121,
      "v": 102
    },
    {
      "midi": 45,
      "hit": false,
      "t": 156933.15878124998,
      "d": 377.5802265625098,
      "v": 101
    },
    {
      "midi": 52,
      "hit": false,
      "t": 158469.519703125,
      "d": 187.2878046875121,
      "v": 101
    },
    {
      "midi": 59,
      "hit": false,
      "t": 158469.519703125,
      "d": 187.2878046875121,
      "v": 102
    },
    {
      "midi": 64,
      "hit": false,
      "t": 158469.519703125,
      "d": 377.5802265625098,
      "v": 101
    },
    {
      "midi": 57,
      "hit": false,
      "t": 160202.18228125002,
      "d": 91.14005468750838,
      "v": 112
    },
    {
      "midi": 45,
      "hit": false,
      "t": 160204.18535937503,
      "d": 79.12158593750792,
      "v": 107
    },
    {
      "midi": 45,
      "hit": false,
      "t": 160394.47778125003,
      "d": 205.3155078125128,
      "v": 107
    },
    {
      "midi": 57,
      "hit": false,
      "t": 160394.47778125003,
      "d": 217.33397656251327,
      "v": 110
    },
    {
      "midi": 43,
      "hit": false,
      "t": 160580.76404687503,
      "d": 105.16160156251863,
      "v": 100
    },
    {
      "midi": 55,
      "hit": false,
      "t": 160586.77328125003,
      "d": 99.1523671875184,
      "v": 104
    },
    {
      "midi": 43,
      "hit": false,
      "t": 160775.06262500005,
      "d": 203.31242968750303,
      "v": 100
    },
    {
      "midi": 55,
      "hit": false,
      "t": 160781.07185937505,
      "d": 205.3155078125128,
      "v": 108
    },
    {
      "midi": 42,
      "hit": false,
      "t": 160967.35812500006,
      "d": 101.15544531249907,
      "v": 91
    },
    {
      "midi": 54,
      "hit": false,
      "t": 160971.36428125005,
      "d": 85.13082031250815,
      "v": 104
    },
    {
      "midi": 42,
      "hit": false,
      "t": 161157.65054687505,
      "d": 203.31242968747392,
      "v": 108
    },
    {
      "midi": 54,
      "hit": false,
      "t": 161161.65670312505,
      "d": 177.27241406249232,
      "v": 112
    },
    {
      "midi": 53,
      "hit": false,
      "t": 161349.94604687503,
      "d": 185.28472656250233,
      "v": 83
    },
    {
      "midi": 41,
      "hit": false,
      "t": 161353.95220312502,
      "d": 145.22316406251048,
      "v": 101
    },
    {
      "midi": 40,
      "hit": false,
      "t": 161546.24770312503,
      "d": 77.11850781249814,
      "v": 101
    },
    {
      "midi": 52,
      "hit": false,
      "t": 161550.25385937502,
      "d": 107.1646796874993,
      "v": 106
    },
    {
      "midi": 40,
      "hit": false,
      "t": 161734.53704687502,
      "d": 175.26933593751164,
      "v": 95
    },
    {
      "midi": 52,
      "hit": false,
      "t": 161736.54012500003,
      "d": 195.30011718749302,
      "v": 89
    },
    {
      "midi": 43,
      "hit": false,
      "t": 161928.83562500004,
      "d": 143.2200859374716,
      "v": 107
    },
    {
      "midi": 55,
      "hit": false,
      "t": 161934.844859375,
      "d": 165.25394531249185,
      "v": 112
    },
    {
      "midi": 45,
      "hit": false,
      "t": 162119.128046875,
      "d": 3662.628351562511,
      "v": 114
    },
    {
      "midi": 57,
      "hit": false,
      "t": 162127.14035937501,
      "d": 4471.8719140625035,
      "v": 108
    }
  ]
}