{
  "jsonPath": "Rock/Country Rock/John Michael Montgomery/even-then-lp-version.json",
  "path": "Rock\\Country Rock\\John Michael Montgomery\\Even Then (LP Version).mid",
  "name": "Even Then (LP Version)",
  "difficulty": "Advanced",
  "bpm": 162.000162000162,
  "notes": [
    {
      "midi": 56,
      "hit": false,
      "t": 78874.342421875,
      "d": 340.4703385416651,
      "v": 50
    },
    {
      "midi": 63,
      "hit": false,
      "t": 78879.16494791667,
      "d": 343.36385416667326,
      "v": 51
    },
    {
      "midi": 68,
      "hit": false,
      "t": 78884.95197916667,
      "d": 329.8607812499977,
      "v": 50
    },
    {
      "midi": 60,
      "hit": false,
      "t": 78891.703515625,
      "d": 308.6416666666628,
      "v": 55
    },
    {
      "midi": 44,
      "hit": false,
      "t": 78900.3840625,
      "d": 707.9468229166669,
      "v": 56
    },
    {
      "midi": 68,
      "hit": false,
      "t": 80026.92614583333,
      "d": 180.36247395833198,
      "v": 29
    },
    {
      "midi": 63,
      "hit": false,
      "t": 80030.78416666666,
      "d": 162.03687500000524,
      "v": 35
    },
    {
      "midi": 44,
      "hit": false,
      "t": 80031.748671875,
      "d": 85.84096354166104,
      "v": 34
    },
    {
      "midi": 60,
      "hit": false,
      "t": 80034.6421875,
      "d": 152.39182291667385,
      "v": 46
    },
    {
      "midi": 56,
      "hit": false,
      "t": 80041.39372395833,
      "d": 137.9242447916622,
      "v": 15
    },
    {
      "midi": 68,
      "hit": false,
      "t": 82223.10450520834,
      "d": 96.45052083332848,
      "v": 64
    },
    {
      "midi": 70,
      "hit": false,
      "t": 82579.97143229167,
      "d": 77.1604166666657,
      "v": 73
    },
    {
      "midi": 72,
      "hit": false,
      "t": 82935.87385416667,
      "d": 384.83757812499243,
      "v": 84
    },
    {
      "midi": 60,
      "hit": false,
      "t": 83313.95989583334,
      "d": 846.8355729166506,
      "v": 55
    },
    {
      "midi": 65,
      "hit": false,
      "t": 83317.81791666667,
      "d": 824.6519531249942,
      "v": 47
    },
    {
      "midi": 56,
      "hit": false,
      "t": 83323.60494791665,
      "d": 850.6935937499948,
      "v": 43
    },
    {
      "midi": 41,
      "hit": false,
      "t": 83337.10802083332,
      "d": 849.7290885416733,
      "v": 34
    },
    {
      "midi": 53,
      "hit": false,
      "t": 83339.03703124999,
      "d": 881.557760416661,
      "v": 46
    },
    {
      "midi": 65,
      "hit": false,
      "t": 84457.86307291665,
      "d": 88.73447916666919,
      "v": 32
    },
    {
      "midi": 60,
      "hit": false,
      "t": 84457.86307291665,
      "d": 93.55700520833489,
      "v": 36
    },
    {
      "midi": 56,
      "hit": false,
      "t": 84463.65010416665,
      "d": 85.84096354166104,
      "v": 19
    },
    {
      "midi": 41,
      "hit": false,
      "t": 84470.40164062499,
      "d": 71.37338541666395,
      "v": 21
    },
    {
      "midi": 53,
      "hit": false,
      "t": 84471.36614583332,
      "d": 75.2314062499936,
      "v": 33
    },
    {
      "midi": 68,
      "hit": false,
      "t": 86672.36703124999,
      "d": 78.12492187500175,
      "v": 87
    },
    {
      "midi": 67,
      "hit": false,
      "t": 87047.55955729166,
      "d": 73.30239583333605,
      "v": 91
    },
    {
      "midi": 63,
      "hit": false,
      "t": 87403.46197916666,
      "d": 75.2314062499936,
      "v": 99
    },
    {
      "midi": 61,
      "hit": false,
      "t": 87794.08658854166,
      "d": 212.1911458333343,
      "v": 48
    },
    {
      "midi": 65,
      "hit": false,
      "t": 87798.90911458332,
      "d": 235.3392708333413,
      "v": 51
    },
    {
      "midi": 49,
      "hit": false,
      "t": 87800.838125,
      "d": 763.8881249999977,
      "v": 32
    },
    {
      "midi": 56,
      "hit": false,
      "t": 87804.69614583332,
      "d": 249.80684895833838,
      "v": 33
    },
    {
      "midi": 49,
      "hit": false,
      "t": 88873.36791666666,
      "d": 1540.3148177083058,
      "v": 27
    },
    {
      "midi": 65,
      "hit": false,
      "t": 88876.26143229165,
      "d": 184.22049479166162,
      "v": 55
    },
    {
      "midi": 61,
      "hit": false,
      "t": 88877.22593749998,
      "d": 163.00138020832674,
      "v": 50
    },
    {
      "midi": 56,
      "hit": false,
      "t": 88891.69351562498,
      "d": 171.68192708332208,
      "v": 31
    },
    {
      "midi": 68,
      "hit": false,
      "t": 89993.15846354164,
      "d": 75.2314062499936,
      "v": 56
    },
    {
      "midi": 65,
      "hit": false,
      "t": 89995.08747395831,
      "d": 79.08942708332324,
      "v": 47
    },
    {
      "midi": 73,
      "hit": false,
      "t": 89997.9809895833,
      "d": 71.37338541666395,
      "v": 58
    },
    {
      "midi": 51,
      "hit": false,
      "t": 92195.12385416662,
      "d": 1112.0745052083366,
      "v": 28
    },
    {
      "midi": 63,
      "hit": false,
      "t": 92201.87539062496,
      "d": 191.93653645833547,
      "v": 45
    },
    {
      "midi": 70,
      "hit": false,
      "t": 92204.76890624996,
      "d": 219.90718750000815,
      "v": 42
    },
    {
      "midi": 58,
      "hit": false,
      "t": 92232.73955729163,
      "d": 140.81776041667035,
      "v": 20
    },
    {
      "midi": 55,
      "hit": false,
      "t": 93313.9498958333,
      "d": 83.91195312500349,
      "v": 29
    },
    {
      "midi": 63,
      "hit": false,
      "t": 93318.77242187496,
      "d": 91.62799479167734,
      "v": 47
    },
    {
      "midi": 58,
      "hit": false,
      "t": 93320.70143229164,
      "d": 76.19591145832965,
      "v": 47
    },
    {
      "midi": 63,
      "hit": false,
      "t": 94050.83187499997,
      "d": 387.7310937500006,
      "v": 68
    },
    {
      "midi": 75,
      "hit": false,
      "t": 94439.52747395831,
      "d": 46.29624999999942,
      "v": 79
    },
    {
      "midi": 63,
      "hit": false,
      "t": 96670.42802083331,
      "d": 113.81161458331917,
      "v": 56
    },
    {
      "midi": 68,
      "hit": false,
      "t": 96678.14406249998,
      "d": 103.20205729165173,
      "v": 63
    },
    {
      "midi": 72,
      "hit": false,
      "t": 96682.00208333331,
      "d": 107.06007812498137,
      "v": 64
    },
    {
      "midi": 60,
      "hit": false,
      "t": 96684.8955989583,
      "d": 86.80546874999709,
      "v": 42
    },
    {
      "midi": 56,
      "hit": false,
      "t": 96687.7891145833,
      "d": 53.047786458337214,
      "v": 61
    },
    {
      "midi": 70,
      "hit": false,
      "t": 99990.25494791662,
      "d": 68.47986979167035,
      "v": 64
    },
    {
      "midi": 60,
      "hit": false,
      "t": 101116.79703124995,
      "d": 194.83005208332906,
      "v": 53
    },
    {
      "midi": 56,
      "hit": false,
      "t": 101118.72604166662,
      "d": 191.93653645832092,
      "v": 31
    },
    {
      "midi": 65,
      "hit": false,
      "t": 101122.58406249995,
      "d": 198.6880729166587,
      "v": 48
    },
    {
      "midi": 53,
      "hit": false,
      "t": 101137.05164062495,
      "d": 536.2648958333302,
      "v": 45
    },
    {
      "midi": 41,
      "hit": false,
      "t": 101141.87416666662,
      "d": 475.5010677083337,
      "v": 12
    },
    {
      "midi": 65,
      "hit": false,
      "t": 102225.97802083328,
      "d": 104.16656250000233,
      "v": 47
    },
    {
      "midi": 60,
      "hit": false,
      "t": 102227.90703124995,
      "d": 104.16656250000233,
      "v": 53
    },
    {
      "midi": 56,
      "hit": false,
      "t": 102233.69406249996,
      "d": 95.48601562499243,
      "v": 31
    },
    {
      "midi": 53,
      "hit": false,
      "t": 102237.55208333328,
      "d": 72.337890625,
      "v": 45
    },
    {
      "midi": 67,
      "hit": false,
      "t": 104450.12703124995,
      "d": 133.1017187499965,
      "v": 64
    },
    {
      "midi": 65,
      "hit": false,
      "t": 105566.05955729162,
      "d": 300.92562499998894,
      "v": 56
    },
    {
      "midi": 61,
      "hit": false,
      "t": 105574.74010416662,
      "d": 237.26828124999884,
      "v": 56
    },
    {
      "midi": 49,
      "hit": false,
      "t": 105576.66911458329,
      "d": 4207.171718749989,
      "v": 42
    },
    {
      "midi": 56,
      "hit": false,
      "t": 105581.49164062495,
      "d": 264.2744270833209,
      "v": 40
    },
    {
      "midi": 61,
      "hit": false,
      "t": 106670.41802083328,
      "d": 104.16656250000233,
      "v": 58
    },
    {
      "midi": 65,
      "hit": false,
      "t": 106678.13406249996,
      "d": 108.98908854166802,
      "v": 66
    },
    {
      "midi": 65,
      "hit": false,
      "t": 108868.52539062496,
      "d": 143.71127604166395,
      "v": 68
    },
    {
      "midi": 67,
      "hit": false,
      "t": 109247.57593749995,
      "d": 88.73447916666919,
      "v": 67
    },
    {
      "midi": 68,
      "hit": false,
      "t": 109619.87494791661,
      "d": 143.71127604166395,
      "v": 79
    },
    {
      "midi": 63,
      "hit": false,
      "t": 109984.45791666662,
      "d": 720.4853906250064,
      "v": 57
    },
    {
      "midi": 68,
      "hit": false,
      "t": 109999.88999999996,
      "d": 673.2246354166709,
      "v": 62
    },
    {
      "midi": 51,
      "hit": false,
      "t": 110000.85450520829,
      "d": 926.889505208339,
      "v": 52
    },
    {
      "midi": 58,
      "hit": false,
      "t": 110013.39307291663,
      "d": 680.9406770833302,
      "v": 37
    },
    {
      "midi": 63,
      "hit": false,
      "t": 111099.42593749997,
      "d": 234.37476562500524,
      "v": 50
    },
    {
      "midi": 68,
      "hit": false,
      "t": 111101.35494791664,
      "d": 258.4873958333337,
      "v": 53
    },
    {
      "midi": 58,
      "hit": false,
      "t": 111107.14197916664,
      "d": 235.33927083332674,
      "v": 34
    },
    {
      "midi": 67,
      "hit": false,
      "t": 112212.46494791664,
      "d": 660.6860677083314,
      "v": 57
    },
    {
      "midi": 63,
      "hit": false,
      "t": 112214.39395833331,
      "d": 660.6860677083314,
      "v": 58
    },
    {
      "midi": 51,
      "hit": false,
      "t": 112220.18098958331,
      "d": 665.5085937499971,
      "v": 60
    },
    {
      "midi": 55,
      "hit": false,
      "t": 112223.07450520831,
      "d": 649.1120052083279,
      "v": 37
    },
    {
      "midi": 58,
      "hit": false,
      "t": 112225.9680208333,
      "d": 636.5734375000029,
      "v": 53
    },
    {
      "midi": 58,
      "hit": false,
      "t": 114056.59890624997,
      "d": 325.038255208332,
      "v": 56
    },
    {
      "midi": 55,
      "hit": false,
      "t": 114058.52791666664,
      "d": 326.9672656249895,
      "v": 36
    },
    {
      "midi": 63,
      "hit": false,
      "t": 114061.42143229164,
      "d": 326.002760416668,
      "v": 52
    },
    {
      "midi": 63,
      "hit": false,
      "t": 114444.32999999997,
      "d": 387.73109374998603,
      "v": 27
    },
    {
      "midi": 44,
      "hit": false,
      "t": 114447.22351562497,
      "d": 729.1659374999872,
      "v": 20
    },
    {
      "midi": 68,
      "hit": false,
      "t": 114450.11703124996,
      "d": 428.24031249999825,
      "v": 14
    },
    {
      "midi": 60,
      "hit": false,
      "t": 114453.01054687495,
      "d": 387.7310937500006,
      "v": 35
    },
    {
      "midi": 56,
      "hit": false,
      "t": 114459.76208333329,
      "d": 403.1631770833337,
      "v": 15
    },
    {
      "midi": 68,
      "hit": false,
      "t": 115522.64682291662,
      "d": 294.1740885416657,
      "v": 12
    },
    {
      "midi": 44,
      "hit": false,
      "t": 115551.58197916661,
      "d": 122.49216145834362,
      "v": 27
    },
    {
      "midi": 63,
      "hit": false,
      "t": 115553.51098958329,
      "d": 247.87783854166628,
      "v": 28
    },
    {
      "midi": 56,
      "hit": false,
      "t": 115558.33351562495,
      "d": 239.19729166667094,
      "v": 12
    },
    {
      "midi": 60,
      "hit": false,
      "t": 115559.29802083329,
      "d": 237.26828124999884,
      "v": 26
    },
    {
      "midi": 68,
      "hit": false,
      "t": 117770.90846354162,
      "d": 330.8252864583337,
      "v": 71
    },
    {
      "midi": 70,
      "hit": false,
      "t": 118130.66890624995,
      "d": 366.5119791666657,
      "v": 56
    },
    {
      "midi": 56,
      "hit": false,
      "t": 118143.20747395829,
      "d": 600.8867447916564,
      "v": 52
    },
    {
      "midi": 70,
      "hit": false,
      "t": 118684.29489583329,
      "d": 155.28533854166744,
      "v": 64
    },
    {
      "midi": 72,
      "hit": false,
      "t": 118812.57408854162,
      "d": 150.4628125000163,
      "v": 64
    },
    {
      "midi": 56,
      "hit": false,
      "t": 118819.32562499995,
      "d": 131.17270833333896,
      "v": 46
    },
    {
      "midi": 53,
      "hit": false,
      "t": 118927.35020833329,
      "d": 2132.5210156250105,
      "v": 53
    },
    {
      "midi": 65,
      "hit": false,
      "t": 118938.92427083329,
      "d": 2141.201562500006,
      "v": 67
    },
    {
      "midi": 70,
      "hit": false,
      "t": 122246.21263020829,
      "d": 826.5809635416663,
      "v": 69
    },
    {
      "midi": 68,
      "hit": false,
      "t": 123135.48643229163,
      "d": 127.31468749999476,
      "v": 56
    },
    {
      "midi": 68,
      "hit": false,
      "t": 123315.84890624996,
      "d": 2357.250729166655,
      "v": 53
    },
    {
      "midi": 65,
      "hit": false,
      "t": 123320.67143229162,
      "d": 1084.103854166664,
      "v": 57
    },
    {
      "midi": 61,
      "hit": false,
      "t": 123323.56494791662,
      "d": 2306.1319531250047,
      "v": 50
    },
    {
      "midi": 56,
      "hit": false,
      "t": 123329.35197916662,
      "d": 2313.847994791664,
      "v": 47
    },
    {
      "midi": 65,
      "hit": false,
      "t": 124467.46812499996,
      "d": 1206.596015624993,
      "v": 37
    },
    {
      "midi": 61,
      "hit": false,
      "t": 126661.71747395828,
      "d": 403.1631770833337,
      "v": 55
    },
    {
      "midi": 65,
      "hit": false,
      "t": 126662.68197916662,
      "d": 400.2696614583256,
      "v": 66
    },
    {
      "midi": 56,
      "hit": false,
      "t": 127027.26494791661,
      "d": 387.73109375001513,
      "v": 52
    },
    {
      "midi": 67,
      "hit": false,
      "t": 127044.62604166662,
      "d": 362.65395833333605,
      "v": 64
    },
    {
      "midi": 68,
      "hit": false,
      "t": 127413.06703124996,
      "d": 286.4580468750064,
      "v": 67
    },
    {
      "midi": 53,
      "hit": false,
      "t": 127422.7120833333,
      "d": 313.4641927083285,
      "v": 53
    },
    {
      "midi": 68,
      "hit": false,
      "t": 127783.43703124997,
      "d": 1884.6431770833442,
      "v": 71
    },
    {
      "midi": 63,
      "hit": false,
      "t": 127791.15307291664,
      "d": 2100.692343750008,
      "v": 37
    },
    {
      "midi": 58,
      "hit": false,
      "t": 127809.47867187497,
      "d": 2074.6507031250076,
      "v": 45
    },
    {
      "midi": 67,
      "hit": false,
      "t": 129655.54164062497,
      "d": 162.03687500000524,
      "v": 64
    },
    {
      "midi": 65,
      "hit": false,
      "t": 129810.82697916664,
      "d": 165.89489583334944,
      "v": 53
    },
    {
      "midi": 63,
      "hit": false,
      "t": 129996.01197916665,
      "d": 1948.3005208333198,
      "v": 52
    },
    {
      "midi": 58,
      "hit": false,
      "t": 129999.86999999998,
      "d": 1956.9810677083296,
      "v": 36
    },
    {
      "midi": 67,
      "hit": false,
      "t": 130007.58604166665,
      "d": 1889.4657031249953,
      "v": 55
    },
    {
      "midi": 55,
      "hit": false,
      "t": 130010.47955729165,
      "d": 1935.7619531249948,
      "v": 53
    },
    {
      "midi": 70,
      "hit": false,
      "t": 133336.093515625,
      "d": 3070.9845833333384,
      "v": 55
    },
    {
      "midi": 75,
      "hit": false,
      "t": 134462.63559895832,
      "d": 1964.6971093750035,
      "v": 35
    },
    {
      "midi": 63,
      "hit": false,
      "t": 136638.55934895834,
      "d": 1373.455416666664,
      "v": 60
    },
    {
      "midi": 56,
      "hit": false,
      "t": 136641.45286458335,
      "d": 1897.1817447916546,
      "v": 55
    },
    {
      "midi": 60,
      "hit": false,
      "t": 136647.23989583334,
      "d": 1399.497057291679,
      "v": 53
    },
    {
      "midi": 68,
      "hit": false,
      "t": 136652.06242187502,
      "d": 1398.532552083343,
      "v": 60
    },
    {
      "midi": 63,
      "hit": false,
      "t": 138122.93286458336,
      "d": 1547.0663541666581,
      "v": 34
    },
    {
      "midi": 60,
      "hit": false,
      "t": 138490.40934895835,
      "d": 884.4512760416546,
      "v": 51
    },
    {
      "midi": 56,
      "hit": false,
      "t": 138894.53703125,
      "d": 1960.8390885416884,
      "v": 58
    },
    {
      "midi": 60,
      "hit": false,
      "t": 139637.20604166668,
      "d": 216.04916666666395,
      "v": 42
    },
    {
      "midi": 68,
      "hit": false,
      "t": 139987.32143229168,
      "d": 92.59249999999884,
      "v": 87
    },
    {
      "midi": 70,
      "hit": false,
      "t": 140357.69143229167,
      "d": 63.65734375000466,
      "v": 87
    },
    {
      "midi": 72,
      "hit": false,
      "t": 140718.41638020833,
      "d": 114.77611979166977,
      "v": 103
    },
    {
      "midi": 65,
      "hit": false,
      "t": 141099.39593750003,
      "d": 774.4976822916942,
      "v": 67
    },
    {
      "midi": 68,
      "hit": false,
      "t": 141101.3249479167,
      "d": 760.9946093750186,
      "v": 63
    },
    {
      "midi": 60,
      "hit": false,
      "t": 141104.2184635417,
      "d": 1112.0745052083512,
      "v": 67
    },
    {
      "midi": 65,
      "hit": false,
      "t": 142214.3639583334,
      "d": 362.65395833333605,
      "v": 76
    },
    {
      "midi": 60,
      "hit": false,
      "t": 142590.5209895834,
      "d": 367.4764843749872,
      "v": 56
    },
    {
      "midi": 56,
      "hit": false,
      "t": 142957.99747395838,
      "d": 381.94406249999884,
      "v": 45
    },
    {
      "midi": 53,
      "hit": false,
      "t": 143360.19614583338,
      "d": 1860.5305468750012,
      "v": 50
    },
    {
      "midi": 68,
      "hit": false,
      "t": 144432.72593750004,
      "d": 168.78841145834303,
      "v": 103
    },
    {
      "midi": 67,
      "hit": false,
      "t": 144814.67000000004,
      "d": 80.0539322916593,
      "v": 73
    },
    {
      "midi": 63,
      "hit": false,
      "t": 145188.89802083338,
      "d": 78.1249218750163,
      "v": 115
    },
    {
      "midi": 68,
      "hit": false,
      "t": 145559.2680208334,
      "d": 658.7570572916884,
      "v": 66
    },
    {
      "midi": 73,
      "hit": false,
      "t": 145563.12604166675,
      "d": 626.9283854166861,
      "v": 68
    },
    {
      "midi": 61,
      "hit": false,
      "t": 145566.9840625001,
      "d": 975.1147656249814,
      "v": 66
    },
    {
      "midi": 65,
      "hit": false,
      "t": 145568.91307291677,
      "d": 675.1536458333139,
      "v": 63
    },
    {
      "midi": 61,
      "hit": false,
      "t": 146651.08791666673,
      "d": 611.4963020833384,
      "v": 46
    },
    {
      "midi": 65,
      "hit": false,
      "t": 146664.5909895834,
      "d": 565.2000520833244,
      "v": 53
    },
    {
      "midi": 56,
      "hit": false,
      "t": 147766.05593750006,
      "d": 1456.4028645833896,
      "v": 53
    },
    {
      "midi": 61,
      "hit": false,
      "t": 147766.05593750006,
      "d": 1457.3673697917257,
      "v": 24
    },
    {
      "midi": 65,
      "hit": false,
      "t": 147775.70098958342,
      "d": 768.7106510416779,
      "v": 46
    },
    {
      "midi": 65,
      "hit": false,
      "t": 148888.7400000001,
      "d": 118.63414062501397,
      "v": 107
    },
    {
      "midi": 67,
      "hit": false,
      "t": 149260.07450520844,
      "d": 34.72218750001048,
      "v": 82
    },
    {
      "midi": 68,
      "hit": false,
      "t": 149630.44450520846,
      "d": 344.3283593750093,
      "v": 115
    },
    {
      "midi": 68,
      "hit": false,
      "t": 150011.42406250013,
      "d": 1703.3161979166907,
      "v": 67
    },
    {
      "midi": 63,
      "hit": false,
      "t": 150015.28208333347,
      "d": 1728.3933333333407,
      "v": 76
    },
    {
      "midi": 58,
      "hit": false,
      "t": 150019.1401041668,
      "d": 1713.925755208329,
      "v": 82
    },
    {
      "midi": 67,
      "hit": false,
      "t": 152209.5314322918,
      "d": 509.25875000003725,
      "v": 66
    },
    {
      "midi": 51,
      "hit": false,
      "t": 152210.49593750015,
      "d": 1931.9039322917233,
      "v": 56
    },
    {
      "midi": 63,
      "hit": false,
      "t": 152214.3539583335,
      "d": 503.47171875002095,
      "v": 64
    },
    {
      "midi": 58,
      "hit": false,
      "t": 152218.21197916684,
      "d": 454.28195312499884,
      "v": 60
    },
    {
      "midi": 68,
      "hit": false,
      "t": 153343.78955729186,
      "d": 55.94130208334536,
      "v": 95
    },
    {
      "midi": 70,
      "hit": false,
      "t": 153718.98208333354,
      "d": 25.077135416679084,
      "v": 67
    },
    {
      "midi": 72,
      "hit": false,
      "t": 154081.63604166688,
      "d": 32.79317708333838,
      "v": 107
    },
    {
      "midi": 63,
      "hit": false,
      "t": 154416.31934895852,
      "d": 1373.455416666693,
      "v": 60
    },
    {
      "midi": 56,
      "hit": false,
      "t": 154419.21286458353,
      "d": 1897.1817447916837,
      "v": 55
    },
    {
      "midi": 60,
      "hit": false,
      "t": 154424.99989583352,
      "d": 1399.4970572917082,
      "v": 53
    },
    {
      "midi": 68,
      "hit": false,
      "t": 154429.8224218752,
      "d": 1398.5325520833721,
      "v": 60
    },
    {
      "midi": 63,
      "hit": false,
      "t": 155900.69286458357,
      "d": 1547.0663541666581,
      "v": 34
    },
    {
      "midi": 60,
      "hit": false,
      "t": 156268.16934895856,
      "d": 884.4512760416546,
      "v": 51
    },
    {
      "midi": 56,
      "hit": false,
      "t": 156672.2970312502,
      "d": 1960.8390885416884,
      "v": 58
    },
    {
      "midi": 60,
      "hit": false,
      "t": 157414.9660416669,
      "d": 216.04916666666395,
      "v": 42
    },
    {
      "midi": 68,
      "hit": false,
      "t": 157765.0814322919,
      "d": 92.59249999999884,
      "v": 87
    },
    {
      "midi": 70,
      "hit": false,
      "t": 158135.45143229188,
      "d": 63.65734375000466,
      "v": 87
    },
    {
      "midi": 72,
      "hit": false,
      "t": 158496.17638020855,
      "d": 114.77611979166977,
      "v": 103
    },
    {
      "midi": 65,
      "hit": false,
      "t": 158877.1559375002,
      "d": 774.4976822916942,
      "v": 67
    },
    {
      "midi": 68,
      "hit": false,
      "t": 158879.08494791688,
      "d": 760.9946093750186,
      "v": 63
    },
    {
      "midi": 60,
      "hit": false,
      "t": 158881.9784635419,
      "d": 1112.0745052083512,
      "v": 67
    },
    {
      "midi": 65,
      "hit": false,
      "t": 159992.12395833357,
      "d": 362.65395833333605,
      "v": 76
    },
    {
      "midi": 60,
      "hit": false,
      "t": 160368.28098958358,
      "d": 367.4764843749872,
      "v": 56
    },
    {
      "midi": 56,
      "hit": false,
      "t": 160735.75747395857,
      "d": 381.94406249999884,
      "v": 45
    },
    {
      "midi": 53,
      "hit": false,
      "t": 161137.95614583357,
      "d": 1860.5305468750012,
      "v": 50
    },
    {
      "midi": 68,
      "hit": false,
      "t": 162210.48593750023,
      "d": 168.78841145834303,
      "v": 103
    },
    {
      "midi": 67,
      "hit": false,
      "t": 162592.43000000023,
      "d": 80.0539322916593,
      "v": 73
    },
    {
      "midi": 63,
      "hit": false,
      "t": 162966.65802083357,
      "d": 78.1249218750163,
      "v": 115
    },
    {
      "midi": 68,
      "hit": false,
      "t": 163337.0280208336,
      "d": 658.7570572916884,
      "v": 66
    },
    {
      "midi": 73,
      "hit": false,
      "t": 163340.88604166693,
      "d": 626.9283854166861,
      "v": 68
    },
    {
      "midi": 61,
      "hit": false,
      "t": 163344.74406250028,
      "d": 975.1147656249814,
      "v": 66
    },
    {
      "midi": 65,
      "hit": false,
      "t": 163346.67307291695,
      "d": 675.1536458333139,
      "v": 63
    },
    {
      "midi": 61,
      "hit": false,
      "t": 164428.8479166669,
      "d": 611.4963020833384,
      "v": 46
    },
    {
      "midi": 65,
      "hit": false,
      "t": 164442.3509895836,
      "d": 565.2000520833244,
      "v": 53
    },
    {
      "midi": 56,
      "hit": false,
      "t": 165543.81593750024,
      "d": 1456.4028645833896,
      "v": 53
    },
    {
      "midi": 61,
      "hit": false,
      "t": 165543.81593750024,
      "d": 1457.3673697917257,
      "v": 24
    },
    {
      "midi": 65,
      "hit": false,
      "t": 165553.4609895836,
      "d": 768.7106510416779,
      "v": 46
    },
    {
      "midi": 65,
      "hit": false,
      "t": 166666.5000000003,
      "d": 118.63414062501397,
      "v": 107
    },
    {
      "midi": 67,
      "hit": false,
      "t": 167037.83450520862,
      "d": 34.72218750001048,
      "v": 82
    },
    {
      "midi": 68,
      "hit": false,
      "t": 167408.20450520865,
      "d": 344.3283593750093,
      "v": 115
    },
    {
      "midi": 68,
      "hit": false,
      "t": 167789.1840625003,
      "d": 1703.3161979166907,
      "v": 67
    },
    {
      "midi": 63,
      "hit": false,
      "t": 167793.04208333365,
      "d": 1728.3933333333407,
      "v": 76
    },
    {
      "midi": 58,
      "hit": false,
      "t": 167796.900104167,
      "d": 1713.925755208329,
      "v": 82
    },
    {
      "midi": 67,
      "hit": false,
      "t": 169987.291432292,
      "d": 509.25875000003725,
      "v": 66
    },
    {
      "midi": 51,
      "hit": false,
      "t": 169988.25593750033,
      "d": 1931.9039322917233,
      "v": 56
    },
    {
      "midi": 63,
      "hit": false,
      "t": 169992.11395833368,
      "d": 503.47171875002095,
      "v": 64
    },
    {
      "midi": 58,
      "hit": false,
      "t": 169995.97197916702,
      "d": 454.28195312499884,
      "v": 60
    },
    {
      "midi": 68,
      "hit": false,
      "t": 171121.54955729205,
      "d": 55.94130208334536,
      "v": 95
    },
    {
      "midi": 70,
      "hit": false,
      "t": 171496.74208333372,
      "d": 25.077135416679084,
      "v": 67
    },
    {
      "midi": 72,
      "hit": false,
      "t": 171859.39604166706,
      "d": 32.79317708333838,
      "v": 107
    },
    {
      "midi": 61,
      "hit": false,
      "t": 172222.0500000004,
      "d": 1115.9325260416663,
      "v": 69
    },
    {
      "midi": 68,
      "hit": false,
      "t": 172222.0500000004,
      "d": 2171.101223958307,
      "v": 66
    },
    {
      "midi": 73,
      "hit": false,
      "t": 172222.0500000004,
      "d": 2178.8172656249662,
      "v": 68
    },
    {
      "midi": 77,
      "hit": false,
      "t": 172222.0500000004,
      "d": 2180.7462760416383,
      "v": 68
    },
    {
      "midi": 56,
      "hit": false,
      "t": 173678.45286458373,
      "d": 346.2573697916523,
      "v": 82
    },
    {
      "midi": 53,
      "hit": false,
      "t": 174044.00033854204,
      "d": 348.1863802083244,
      "v": 76
    },
    {
      "midi": 75,
      "hit": false,
      "t": 174424.9798958337,
      "d": 865.1611718749919,
      "v": 87
    },
    {
      "midi": 70,
      "hit": false,
      "t": 174428.83791666705,
      "d": 815.0069010416337,
      "v": 87
    },
    {
      "midi": 67,
      "hit": false,
      "t": 174434.62494791704,
      "d": 1974.3421614583349,
      "v": 71
    },
    {
      "midi": 77,
      "hit": false,
      "t": 175891.02781250037,
      "d": 88.73447916665464,
      "v": 95
    },
    {
      "midi": 79,
      "hit": false,
      "t": 176263.32682291704,
      "d": 48.225260416656965,
      "v": 95
    },
    {
      "midi": 77,
      "hit": false,
      "t": 176643.34187500036,
      "d": 770.6396614583209,
      "v": 64
    },
    {
      "midi": 80,
      "hit": false,
      "t": 176669.38351562535,
      "d": 750.3850520833221,
      "v": 91
    },
    {
      "midi": 72,
      "hit": false,
      "t": 176669.38351562535,
      "d": 760.0301041666535,
      "v": 76
    },
    {
      "midi": 60,
      "hit": false,
      "t": 178485.546822917,
      "d": 429.20481770834886,
      "v": 62
    },
    {
      "midi": 72,
      "hit": false,
      "t": 178871.34890625035,
      "d": 33.75768229167443,
      "v": 56
    },
    {
      "midi": 77,
      "hit": false,
      "t": 178873.27791666702,
      "d": 413.77273437503027,
      "v": 67
    },
    {
      "midi": 80,
      "hit": false,
      "t": 178877.13593750037,
      "d": 420.5242708333535,
      "v": 69
    },
    {
      "midi": 84,
      "hit": false,
      "t": 178886.7809895837,
      "d": 384.837578125007,
      "v": 84
    },
    {
      "midi": 65,
      "hit": false,
      "t": 178911.85812500035,
      "d": 74.2669010417012,
      "v": 62
    },
    {
      "midi": 72,
      "hit": false,
      "t": 178914.75164062536,
      "d": 377.1215364583768,
      "v": 56
    },
    {
      "midi": 68,
      "hit": false,
      "t": 178919.57416666704,
      "d": 72.337890625,
      "v": 61
    },
    {
      "midi": 75,
      "hit": false,
      "t": 179971.84934895873,
      "d": 1048.4171614583756,
      "v": 69
    },
    {
      "midi": 82,
      "hit": false,
      "t": 179972.81385416706,
      "d": 1040.7011197916872,
      "v": 66
    },
    {
      "midi": 79,
      "hit": false,
      "t": 179976.6718750004,
      "d": 1040.7011197916872,
      "v": 82
    },
    {
      "midi": 70,
      "hit": false,
      "t": 179982.45890625042,
      "d": 1020.4465104166593,
      "v": 84
    },
    {
      "midi": 80,
      "hit": false,
      "t": 181106.10747395878,
      "d": 1809.4117708333652,
      "v": 82
    },
    {
      "midi": 73,
      "hit": false,
      "t": 181106.10747395878,
      "d": 2041.8575260417128,
      "v": 69
    },
    {
      "midi": 77,
      "hit": false,
      "t": 181110.93000000046,
      "d": 1802.6602343750128,
      "v": 69
    },
    {
      "midi": 68,
      "hit": false,
      "t": 181111.8945052088,
      "d": 1963.7326041666965,
      "v": 61
    },
    {
      "midi": 79,
      "hit": false,
      "t": 182947.34791666715,
      "d": 180.36247395834653,
      "v": 84
    },
    {
      "midi": 80,
      "hit": false,
      "t": 183115.17182291715,
      "d": 158.1788541666756,
      "v": 79
    },
    {
      "midi": 79,
      "hit": false,
      "t": 183305.17934895883,
      "d": 1100.5004427083186,
      "v": 87
    },
    {
      "midi": 75,
      "hit": false,
      "t": 183313.85989583383,
      "d": 896.0253385416581,
      "v": 68
    },
    {
      "midi": 70,
      "hit": false,
      "t": 183325.43395833383,
      "d": 697.337265625014,
      "v": 58
    },
    {
      "midi": 67,
      "hit": false,
      "t": 183678.44286458383,
      "d": 402.1986718749977,
      "v": 55
    },
    {
      "midi": 63,
      "hit": false,
      "t": 184048.81286458383,
      "d": 402.1986718749977,
      "v": 52
    },
    {
      "midi": 67,
      "hit": false,
      "t": 184419.18286458382,
      "d": 981.8663020833337,
      "v": 66
    },
    {
      "midi": 75,
      "hit": false,
      "t": 184428.82791666716,
      "d": 944.2505989583442,
      "v": 73
    },
    {
      "midi": 70,
      "hit": false,
      "t": 184436.54395833382,
      "d": 953.8956510416756,
      "v": 67
    },
    {
      "midi": 63,
      "hit": false,
      "t": 184804.98494791717,
      "d": 380.01505208332674,
      "v": 67
    },
    {
      "midi": 58,
      "hit": false,
      "t": 185188.85802083384,
      "d": 329.8607812499977,
      "v": 71
    },
    {
      "midi": 72,
      "hit": false,
      "t": 185538.0089062505,
      "d": 783.1782291666605,
      "v": 67
    },
    {
      "midi": 77,
      "hit": false,
      "t": 185539.93791666717,
      "d": 763.8881249999977,
      "v": 69
    },
    {
      "midi": 68,
      "hit": false,
      "t": 185550.54747395884,
      "d": 740.7399999999907,
      "v": 79
    },
    {
      "midi": 65,
      "hit": false,
      "t": 185908.3789062505,
      "d": 343.36385416667326,
      "v": 56
    },
    {
      "midi": 60,
      "hit": false,
      "t": 186269.10385416716,
      "d": 388.6955989583512,
      "v": 45
    },
    {
      "midi": 70,
      "hit": false,
      "t": 186652.0124218755,
      "d": 804.3973437499953,
      "v": 82
    },
    {
      "midi": 75,
      "hit": false,
      "t": 186654.9059375005,
      "d": 806.3263541666674,
      "v": 71
    },
    {
      "midi": 67,
      "hit": false,
      "t": 186659.72846354218,
      "d": 814.0423958333267,
      "v": 61
    },
    {
      "midi": 63,
      "hit": false,
      "t": 187024.31143229216,
      "d": 367.4764843749872,
      "v": 52
    },
    {
      "midi": 58,
      "hit": false,
      "t": 187385.03638020882,
      "d": 355.9024218750128,
      "v": 46
    },
    {
      "midi": 68,
      "hit": false,
      "t": 187762.15791666717,
      "d": 747.491536458343,
      "v": 73
    },
    {
      "midi": 65,
      "hit": false,
      "t": 187765.05143229218,
      "d": 773.5331770833291,
      "v": 60
    },
    {
      "midi": 73,
      "hit": false,
      "t": 187767.9449479172,
      "d": 749.420546874986,
      "v": 82
    },
    {
      "midi": 56,
      "hit": false,
      "t": 188125.77638020884,
      "d": 1516.2021874999919,
      "v": 53
    },
    {
      "midi": 61,
      "hit": false,
      "t": 188499.03989583385,
      "d": 1144.8676822916605,
      "v": 53
    },
    {
      "midi": 68,
      "hit": false,
      "t": 188877.1259375005,
      "d": 52.083281250001164,
      "v": 73
    },
    {
      "midi": 77,
      "hit": false,
      "t": 189249.42494791717,
      "d": 39.54471354166162,
      "v": 95
    },
    {
      "midi": 79,
      "hit": false,
      "t": 189604.36286458382,
      "d": 35.68669270834653,
      "v": 123
    },
    {
      "midi": 70,
      "hit": false,
      "t": 189999.8100000005,
      "d": 864.1966666666558,
      "v": 95
    },
    {
      "midi": 80,
      "hit": false,
      "t": 189999.8100000005,
      "d": 1059.991223958321,
      "v": 79
    },
    {
      "midi": 73,
      "hit": false,
      "t": 189999.8100000005,
      "d": 1083.139348958328,
      "v": 79
    },
    {
      "midi": 77,
      "hit": false,
      "t": 189999.8100000005,
      "d": 1098.5714322916756,
      "v": 76
    },
    {
      "midi": 65,
      "hit": false,
      "t": 191855.51802083384,
      "d": 275.8484895833244,
      "v": 57
    },
    {
      "midi": 73,
      "hit": false,
      "t": 192215.27846354217,
      "d": 82.94744791669655,
      "v": 64
    },
    {
      "midi": 70,
      "hit": false,
      "t": 192218.17197916718,
      "d": 78.1249218750163,
      "v": 64
    },
    {
      "midi": 77,
      "hit": false,
      "t": 192220.10098958385,
      "d": 83.91195312500349,
      "v": 62
    },
    {
      "midi": 65,
      "hit": false,
      "t": 192222.99450520886,
      "d": 54.97679687500931,
      "v": 67
    },
    {
      "midi": 77,
      "hit": false,
      "t": 193338.92703125053,
      "d": 58.83481770832441,
      "v": 103
    },
    {
      "midi": 79,
      "hit": false,
      "t": 193714.11955729217,
      "d": 29.89966145833023,
      "v": 95
    },
    {
      "midi": 80,
      "hit": false,
      "t": 194073.8800000005,
      "d": 40.50921874999767,
      "v": 99
    },
    {
      "midi": 70,
      "hit": false,
      "t": 194439.42747395884,
      "d": 2149.8821093750303,
      "v": 68
    },
    {
      "midi": 80,
      "hit": false,
      "t": 194442.32098958385,
      "d": 1367.6683854166768,
      "v": 91
    },
    {
      "midi": 75,
      "hit": false,
      "t": 194445.21450520886,
      "d": 2123.840468750015,
      "v": 87
    },
    {
      "midi": 79,
      "hit": false,
      "t": 196281.63242187552,
      "d": 179.39796875001048,
      "v": 73
    },
    {
      "midi": 77,
      "hit": false,
      "t": 196456.20786458385,
      "d": 116.70513020837097,
      "v": 79
    },
    {
      "midi": 79,
      "hit": false,
      "t": 196666.47000000055,
      "d": 509.25874999997905,
      "v": 91
    },
    {
      "midi": 75,
      "hit": false,
      "t": 196666.47000000055,
      "d": 616.3188281249895,
      "v": 68
    },
    {
      "midi": 67,
      "hit": false,
      "t": 196666.47000000055,
      "d": 648.1474999999919,
      "v": 62
    },
    {
      "midi": 70,
      "hit": false,
      "t": 196666.47000000055,
      "d": 660.6860677083314,
      "v": 66
    },
    {
      "midi": 75,
      "hit": false,
      "t": 197766.00593750057,
      "d": 81.01843749999534,
      "v": 68
    },
    {
      "midi": 70,
      "hit": false,
      "t": 198876.15143229222,
      "d": 99.34403645832208,
      "v": 43
    },
    {
      "midi": 58,
      "hit": false,
      "t": 199976.65187500053,
      "d": 63.65734375000466,
      "v": 45
    },
    {
      "midi": 75,
      "hit": false,
      "t": 203320.59143229222,
      "d": 2885.7995833333407,
      "v": 71
    },
    {
      "midi": 80,
      "hit": false,
      "t": 203323.48494791723,
      "d": 2946.563411458337,
      "v": 76
    },
    {
      "midi": 72,
      "hit": false,
      "t": 203328.3074739589,
      "d": 2851.0773958333302,
      "v": 55
    },
    {
      "midi": 63,
      "hit": false,
      "t": 203336.9880208339,
      "d": 4329.663880208333,
      "v": 63
    },
    {
      "midi": 68,
      "hit": false,
      "t": 203338.91703125057,
      "d": 4315.196302083321,
      "v": 76
    },
    {
      "midi": 80,
      "hit": false,
      "t": 206662.60197916723,
      "d": 338.541328124993,
      "v": 79
    },
    {
      "midi": 82,
      "hit": false,
      "t": 207034.9009895839,
      "d": 116.70513020834187,
      "v": 71
    },
    {
      "midi": 84,
      "hit": false,
      "t": 207408.1645052089,
      "d": 113.81161458333372,
      "v": 84
    },
    {
      "midi": 77,
      "hit": false,
      "t": 207765.99593750056,
      "d": 438.84986979173846,
      "v": 63
    },
    {
      "midi": 80,
      "hit": false,
      "t": 207769.8539583339,
      "d": 434.99184895839426,
      "v": 67
    },
    {
      "midi": 72,
      "hit": false,
      "t": 207777.5700000006,
      "d": 486.11062500003027,
      "v": 62
    },
    {
      "midi": 68,
      "hit": false,
      "t": 207781.42802083393,
      "d": 533.3713802083512,
      "v": 53
    },
    {
      "midi": 68,
      "hit": false,
      "t": 208884.8219791673,
      "d": 114.77611979169887,
      "v": 55
    },
    {
      "midi": 72,
      "hit": false,
      "t": 208888.68000000063,
      "d": 135.99523437503376,
      "v": 46
    },
    {
      "midi": 77,
      "hit": false,
      "t": 208892.53802083398,
      "d": 132.13721354168956,
      "v": 55
    },
    {
      "midi": 68,
      "hit": false,
      "t": 209995.93197916733,
      "d": 88.73447916671284,
      "v": 52
    },
    {
      "midi": 72,
      "hit": false,
      "t": 210000.754505209,
      "d": 83.9119531250326,
      "v": 55
    },
    {
      "midi": 65,
      "hit": false,
      "t": 210003.64802083402,
      "d": 65.58635416667676,
      "v": 53
    },
    {
      "midi": 68,
      "hit": false,
      "t": 211106.07747395904,
      "d": 97.41502604167908,
      "v": 62
    },
    {
      "midi": 72,
      "hit": false,
      "t": 211107.04197916738,
      "d": 91.62799479166279,
      "v": 63
    },
    {
      "midi": 80,
      "hit": false,
      "t": 211118.61604166738,
      "d": 105.13106770833838,
      "v": 84
    },
    {
      "midi": 79,
      "hit": false,
      "t": 211508.27614583404,
      "d": 45.33174479167792,
      "v": 84
    },
    {
      "midi": 75,
      "hit": false,
      "t": 211851.6400000007,
      "d": 46.29625000001397,
      "v": 87
    },
    {
      "midi": 77,
      "hit": false,
      "t": 212227.79703125072,
      "d": 425.34679687503376,
      "v": 53
    },
    {
      "midi": 73,
      "hit": false,
      "t": 212230.69054687573,
      "d": 438.84986979168025,
      "v": 58
    },
    {
      "midi": 68,
      "hit": false,
      "t": 212232.6195572924,
      "d": 420.5242708333535,
      "v": 58
    },
    {
      "midi": 61,
      "hit": false,
      "t": 212237.44208333408,
      "d": 521.7973177083186,
      "v": 50
    },
    {
      "midi": 61,
      "hit": false,
      "t": 213318.65242187574,
      "d": 70.408880208357,
      "v": 47
    },
    {
      "midi": 73,
      "hit": false,
      "t": 213321.54593750075,
      "d": 95.48601562503609,
      "v": 57
    },
    {
      "midi": 68,
      "hit": false,
      "t": 213323.47494791742,
      "d": 89.69898437501979,
      "v": 58
    },
    {
      "midi": 77,
      "hit": false,
      "t": 213326.36846354243,
      "d": 116.70513020834187,
      "v": 63
    },
    {
      "midi": 61,
      "hit": false,
      "t": 214426.86890625078,
      "d": 71.37338541666395,
      "v": 40
    },
    {
      "midi": 68,
      "hit": false,
      "t": 214436.5139583341,
      "d": 95.48601562500698,
      "v": 46
    },
    {
      "midi": 77,
      "hit": false,
      "t": 214439.40747395912,
      "d": 107.06007812501048,
      "v": 56
    },
    {
      "midi": 73,
      "hit": false,
      "t": 214440.37197916745,
      "d": 87.76997395831859,
      "v": 55
    },
    {
      "midi": 68,
      "hit": false,
      "t": 215553.41098958414,
      "d": 71.37338541669305,
      "v": 62
    },
    {
      "midi": 73,
      "hit": false,
      "t": 215565.94955729248,
      "d": 55.94130208334536,
      "v": 67
    },
    {
      "midi": 77,
      "hit": false,
      "t": 215570.77208333416,
      "d": 81.9829427083314,
      "v": 84
    },
    {
      "midi": 79,
      "hit": false,
      "t": 215931.49703125082,
      "d": 51.118776041665114,
      "v": 79
    },
    {
      "midi": 80,
      "hit": false,
      "t": 216303.7960416675,
      "d": 64.6218489583407,
      "v": 99
    },
    {
      "midi": 75,
      "hit": false,
      "t": 216666.45000000086,
      "d": 203.5105989583535,
      "v": 73
    },
    {
      "midi": 70,
      "hit": false,
      "t": 216667.4145052092,
      "d": 196.75906250003027,
      "v": 67
    },
    {
      "midi": 67,
      "hit": false,
      "t": 216672.23703125087,
      "d": 215.0846614583279,
      "v": 61
    },
    {
      "midi": 63,
      "hit": false,
      "t": 217778.5245052092,
      "d": 127.31468750000931,
      "v": 50
    },
    {
      "midi": 58,
      "hit": false,
      "t": 217789.13406250087,
      "d": 93.55700520833489,
      "v": 41
    },
    {
      "midi": 55,
      "hit": false,
      "t": 217804.56614583422,
      "d": 88.73447916665464,
      "v": 30
    },
    {
      "midi": 70,
      "hit": false,
      "t": 218874.20242187587,
      "d": 101.27304687502328,
      "v": 45
    },
    {
      "midi": 75,
      "hit": false,
      "t": 218874.20242187587,
      "d": 116.70513020834187,
      "v": 45
    },
    {
      "midi": 67,
      "hit": false,
      "t": 218879.02494791755,
      "d": 102.23755208333023,
      "v": 35
    },
    {
      "midi": 63,
      "hit": false,
      "t": 218884.81197916754,
      "d": 76.1959114583442,
      "v": 52
    },
    {
      "midi": 55,
      "hit": false,
      "t": 218888.6700000009,
      "d": 76.1959114583442,
      "v": 18
    },
    {
      "midi": 58,
      "hit": false,
      "t": 218889.63450520922,
      "d": 70.4088802083279,
      "v": 45
    },
    {
      "midi": 80,
      "hit": false,
      "t": 220005.5670312509,
      "d": 58.83481770832441,
      "v": 82
    },
    {
      "midi": 82,
      "hit": false,
      "t": 220378.8305468759,
      "d": 28.93515624999418,
      "v": 95
    },
    {
      "midi": 84,
      "hit": false,
      "t": 220751.12955729256,
      "d": 20.254609374998836,
      "v": 111
    },
    {
      "midi": 75,
      "hit": false,
      "t": 221098.35143229255,
      "d": 2885.7995833333407,
      "v": 71
    },
    {
      "midi": 80,
      "hit": false,
      "t": 221101.24494791756,
      "d": 2946.563411458337,
      "v": 76
    },
    {
      "midi": 72,
      "hit": false,
      "t": 221106.06747395924,
      "d": 2851.0773958333302,
      "v": 55
    },
    {
      "midi": 63,
      "hit": false,
      "t": 221114.74802083423,
      "d": 4329.663880208333,
      "v": 63
    },
    {
      "midi": 68,
      "hit": false,
      "t": 221116.6770312509,
      "d": 4315.196302083321,
      "v": 76
    },
    {
      "midi": 80,
      "hit": false,
      "t": 224440.36197916756,
      "d": 338.541328124993,
      "v": 79
    },
    {
      "midi": 82,
      "hit": false,
      "t": 224812.66098958423,
      "d": 116.70513020834187,
      "v": 71
    },
    {
      "midi": 84,
      "hit": false,
      "t": 225185.92450520923,
      "d": 113.81161458333372,
      "v": 84
    },
    {
      "midi": 77,
      "hit": false,
      "t": 225543.7559375009,
      "d": 438.84986979173846,
      "v": 63
    },
    {
      "midi": 80,
      "hit": false,
      "t": 225547.61395833423,
      "d": 434.99184895839426,
      "v": 67
    },
    {
      "midi": 72,
      "hit": false,
      "t": 225555.33000000092,
      "d": 486.11062500003027,
      "v": 62
    },
    {
      "midi": 68,
      "hit": false,
      "t": 225559.18802083426,
      "d": 533.3713802083512,
      "v": 53
    },
    {
      "midi": 68,
      "hit": false,
      "t": 226662.58197916762,
      "d": 114.77611979169887,
      "v": 55
    },
    {
      "midi": 72,
      "hit": false,
      "t": 226666.44000000096,
      "d": 135.99523437503376,
      "v": 46
    },
    {
      "midi": 77,
      "hit": false,
      "t": 226670.2980208343,
      "d": 132.13721354168956,
      "v": 55
    },
    {
      "midi": 68,
      "hit": false,
      "t": 227773.69197916766,
      "d": 88.73447916671284,
      "v": 52
    },
    {
      "midi": 72,
      "hit": false,
      "t": 227778.51450520934,
      "d": 83.9119531250326,
      "v": 55
    },
    {
      "midi": 65,
      "hit": false,
      "t": 227781.40802083435,
      "d": 65.58635416667676,
      "v": 53
    },
    {
      "midi": 68,
      "hit": false,
      "t": 228883.83747395937,
      "d": 97.41502604167908,
      "v": 62
    },
    {
      "midi": 72,
      "hit": false,
      "t": 228884.8019791677,
      "d": 91.62799479166279,
      "v": 63
    },
    {
      "midi": 80,
      "hit": false,
      "t": 228896.3760416677,
      "d": 105.13106770833838,
      "v": 84
    },
    {
      "midi": 79,
      "hit": false,
      "t": 229286.03614583437,
      "d": 45.33174479167792,
      "v": 84
    },
    {
      "midi": 75,
      "hit": false,
      "t": 229629.40000000104,
      "d": 46.29625000001397,
      "v": 87
    },
    {
      "midi": 77,
      "hit": false,
      "t": 230005.55703125105,
      "d": 425.34679687503376,
      "v": 53
    },
    {
      "midi": 73,
      "hit": false,
      "t": 230008.45054687606,
      "d": 438.84986979168025,
      "v": 58
    },
    {
      "midi": 68,
      "hit": false,
      "t": 230010.37955729273,
      "d": 420.5242708333535,
      "v": 58
    },
    {
      "midi": 61,
      "hit": false,
      "t": 230015.2020833344,
      "d": 521.7973177083186,
      "v": 50
    },
    {
      "midi": 61,
      "hit": false,
      "t": 231096.41242187607,
      "d": 70.408880208357,
      "v": 47
    },
    {
      "midi": 73,
      "hit": false,
      "t": 231099.30593750108,
      "d": 95.48601562503609,
      "v": 57
    },
    {
      "midi": 68,
      "hit": false,
      "t": 231101.23494791775,
      "d": 89.69898437501979,
      "v": 58
    },
    {
      "midi": 77,
      "hit": false,
      "t": 231104.12846354276,
      "d": 116.70513020834187,
      "v": 63
    },
    {
      "midi": 61,
      "hit": false,
      "t": 232204.6289062511,
      "d": 71.37338541666395,
      "v": 40
    },
    {
      "midi": 68,
      "hit": false,
      "t": 232214.27395833444,
      "d": 95.48601562500698,
      "v": 46
    },
    {
      "midi": 77,
      "hit": false,
      "t": 232217.16747395945,
      "d": 107.06007812501048,
      "v": 56
    },
    {
      "midi": 73,
      "hit": false,
      "t": 232218.13197916778,
      "d": 87.76997395831859,
      "v": 55
    },
    {
      "midi": 68,
      "hit": false,
      "t": 233331.17098958447,
      "d": 71.37338541669305,
      "v": 62
    },
    {
      "midi": 73,
      "hit": false,
      "t": 233343.7095572928,
      "d": 55.94130208334536,
      "v": 67
    },
    {
      "midi": 77,
      "hit": false,
      "t": 233348.5320833345,
      "d": 81.9829427083314,
      "v": 84
    },
    {
      "midi": 79,
      "hit": false,
      "t": 233709.25703125115,
      "d": 51.118776041665114,
      "v": 79
    },
    {
      "midi": 80,
      "hit": false,
      "t": 234081.55604166782,
      "d": 64.6218489583407,
      "v": 99
    },
    {
      "midi": 75,
      "hit": false,
      "t": 234444.21000000119,
      "d": 203.5105989583535,
      "v": 73
    },
    {
      "midi": 70,
      "hit": false,
      "t": 234445.17450520952,
      "d": 196.75906250003027,
      "v": 67
    },
    {
      "midi": 67,
      "hit": false,
      "t": 234449.9970312512,
      "d": 215.0846614583279,
      "v": 61
    },
    {
      "midi": 63,
      "hit": false,
      "t": 235556.28450520954,
      "d": 127.31468750000931,
      "v": 50
    },
    {
      "midi": 58,
      "hit": false,
      "t": 235566.8940625012,
      "d": 93.55700520833489,
      "v": 41
    },
    {
      "midi": 55,
      "hit": false,
      "t": 235582.32614583455,
      "d": 88.73447916665464,
      "v": 30
    },
    {
      "midi": 70,
      "hit": false,
      "t": 236651.9624218762,
      "d": 101.27304687502328,
      "v": 45
    },
    {
      "midi": 75,
      "hit": false,
      "t": 236651.9624218762,
      "d": 116.70513020834187,
      "v": 45
    },
    {
      "midi": 67,
      "hit": false,
      "t": 236656.78494791788,
      "d": 102.23755208333023,
      "v": 35
    },
    {
      "midi": 63,
      "hit": false,
      "t": 236662.57197916787,
      "d": 76.1959114583442,
      "v": 52
    },
    {
      "midi": 55,
      "hit": false,
      "t": 236666.43000000122,
      "d": 76.1959114583442,
      "v": 18
    },
    {
      "midi": 58,
      "hit": false,
      "t": 236667.39450520955,
      "d": 70.4088802083279,
      "v": 45
    },
    {
      "midi": 80,
      "hit": false,
      "t": 237783.32703125122,
      "d": 58.83481770832441,
      "v": 82
    },
    {
      "midi": 82,
      "hit": false,
      "t": 238156.59054687622,
      "d": 28.93515624999418,
      "v": 95
    },
    {
      "midi": 84,
      "hit": false,
      "t": 238528.8895572929,
      "d": 20.254609374998836,
      "v": 111
    },
    {
      "midi": 75,
      "hit": false,
      "t": 238876.11143229288,
      "d": 2885.7995833333407,
      "v": 71
    },
    {
      "midi": 80,
      "hit": false,
      "t": 238879.00494791789,
      "d": 2946.563411458337,
      "v": 76
    },
    {
      "midi": 72,
      "hit": false,
      "t": 238883.82747395957,
      "d": 2851.0773958333302,
      "v": 55
    },
    {
      "midi": 63,
      "hit": false,
      "t": 238892.50802083456,
      "d": 4329.663880208333,
      "v": 63
    },
    {
      "midi": 68,
      "hit": false,
      "t": 238894.43703125123,
      "d": 4315.196302083321,
      "v": 76
    },
    {
      "midi": 80,
      "hit": false,
      "t": 242218.1219791679,
      "d": 338.541328124993,
      "v": 79
    },
    {
      "midi": 82,
      "hit": false,
      "t": 242590.42098958456,
      "d": 116.70513020834187,
      "v": 71
    },
    {
      "midi": 84,
      "hit": false,
      "t": 242963.68450520956,
      "d": 113.81161458333372,
      "v": 84
    },
    {
      "midi": 77,
      "hit": false,
      "t": 243321.51593750122,
      "d": 438.84986979173846,
      "v": 63
    },
    {
      "midi": 80,
      "hit": false,
      "t": 243325.37395833456,
      "d": 434.99184895839426,
      "v": 67
    },
    {
      "midi": 72,
      "hit": false,
      "t": 243333.09000000125,
      "d": 486.11062500003027,
      "v": 62
    },
    {
      "midi": 68,
      "hit": false,
      "t": 243336.9480208346,
      "d": 533.3713802083512,
      "v": 53
    },
    {
      "midi": 68,
      "hit": false,
      "t": 244440.34197916795,
      "d": 114.77611979169887,
      "v": 55
    },
    {
      "midi": 72,
      "hit": false,
      "t": 244444.2000000013,
      "d": 135.99523437503376,
      "v": 46
    },
    {
      "midi": 77,
      "hit": false,
      "t": 244448.05802083464,
      "d": 132.13721354168956,
      "v": 55
    },
    {
      "midi": 68,
      "hit": false,
      "t": 245551.451979168,
      "d": 88.73447916671284,
      "v": 52
    },
    {
      "midi": 72,
      "hit": false,
      "t": 245556.27450520967,
      "d": 83.9119531250326,
      "v": 55
    },
    {
      "midi": 65,
      "hit": false,
      "t": 245559.16802083468,
      "d": 65.58635416667676,
      "v": 53
    },
    {
      "midi": 68,
      "hit": false,
      "t": 246661.5974739597,
      "d": 97.41502604167908,
      "v": 62
    },
    {
      "midi": 72,
      "hit": false,
      "t": 246662.56197916804,
      "d": 91.62799479166279,
      "v": 63
    },
    {
      "midi": 80,
      "hit": false,
      "t": 246674.13604166804,
      "d": 105.13106770833838,
      "v": 84
    },
    {
      "midi": 79,
      "hit": false,
      "t": 247063.7961458347,
      "d": 45.33174479167792,
      "v": 84
    },
    {
      "midi": 75,
      "hit": false,
      "t": 247407.16000000137,
      "d": 46.29625000001397,
      "v": 87
    },
    {
      "midi": 77,
      "hit": false,
      "t": 247783.31703125138,
      "d": 425.34679687503376,
      "v": 53
    },
    {
      "midi": 73,
      "hit": false,
      "t": 247786.2105468764,
      "d": 438.84986979168025,
      "v": 58
    },
    {
      "midi": 68,
      "hit": false,
      "t": 247788.13955729306,
      "d": 420.5242708333535,
      "v": 58
    },
    {
      "midi": 61,
      "hit": false,
      "t": 247792.96208333474,
      "d": 521.7973177083186,
      "v": 50
    },
    {
      "midi": 61,
      "hit": false,
      "t": 248874.1724218764,
      "d": 70.408880208357,
      "v": 47
    },
    {
      "midi": 73,
      "hit": false,
      "t": 248877.0659375014,
      "d": 95.48601562503609,
      "v": 57
    },
    {
      "midi": 68,
      "hit": false,
      "t": 248878.99494791808,
      "d": 89.69898437501979,
      "v": 58
    },
    {
      "midi": 77,
      "hit": false,
      "t": 248881.8884635431,
      "d": 116.70513020834187,
      "v": 63
    },
    {
      "midi": 61,
      "hit": false,
      "t": 249982.38890625144,
      "d": 71.37338541666395,
      "v": 40
    },
    {
      "midi": 68,
      "hit": false,
      "t": 249992.03395833477,
      "d": 95.48601562500698,
      "v": 46
    },
    {
      "midi": 77,
      "hit": false,
      "t": 249994.92747395977,
      "d": 107.06007812501048,
      "v": 56
    },
    {
      "midi": 73,
      "hit": false,
      "t": 249995.8919791681,
      "d": 87.76997395831859,
      "v": 55
    },
    {
      "midi": 68,
      "hit": false,
      "t": 251108.9309895848,
      "d": 71.37338541669305,
      "v": 62
    },
    {
      "midi": 73,
      "hit": false,
      "t": 251121.46955729314,
      "d": 55.94130208334536,
      "v": 67
    },
    {
      "midi": 77,
      "hit": false,
      "t": 251126.29208333482,
      "d": 81.9829427083314,
      "v": 84
    },
    {
      "midi": 79,
      "hit": false,
      "t": 251487.01703125148,
      "d": 51.118776041665114,
      "v": 79
    },
    {
      "midi": 80,
      "hit": false,
      "t": 251859.31604166815,
      "d": 64.6218489583407,
      "v": 99
    },
    {
      "midi": 75,
      "hit": false,
      "t": 252221.97000000151,
      "d": 203.5105989583535,
      "v": 73
    },
    {
      "midi": 70,
      "hit": false,
      "t": 252222.93450520985,
      "d": 196.75906250003027,
      "v": 67
    },
    {
      "midi": 67,
      "hit": false,
      "t": 252227.75703125153,
      "d": 215.0846614583279,
      "v": 61
    },
    {
      "midi": 63,
      "hit": false,
      "t": 253334.04450520987,
      "d": 127.31468750000931,
      "v": 50
    },
    {
      "midi": 58,
      "hit": false,
      "t": 253344.65406250153,
      "d": 93.55700520833489,
      "v": 41
    },
    {
      "midi": 55,
      "hit": false,
      "t": 253360.08614583488,
      "d": 88.73447916665464,
      "v": 30
    },
    {
      "midi": 70,
      "hit": false,
      "t": 254429.72242187653,
      "d": 101.27304687502328,
      "v": 45
    },
    {
      "midi": 75,
      "hit": false,
      "t": 254429.72242187653,
      "d": 116.70513020834187,
      "v": 45
    },
    {
      "midi": 67,
      "hit": false,
      "t": 254434.5449479182,
      "d": 102.23755208333023,
      "v": 35
    },
    {
      "midi": 63,
      "hit": false,
      "t": 254440.3319791682,
      "d": 76.1959114583442,
      "v": 52
    },
    {
      "midi": 55,
      "hit": false,
      "t": 254444.19000000154,
      "d": 76.1959114583442,
      "v": 18
    },
    {
      "midi": 58,
      "hit": false,
      "t": 254445.15450520988,
      "d": 70.4088802083279,
      "v": 45
    },
    {
      "midi": 80,
      "hit": false,
      "t": 255561.08703125155,
      "d": 58.83481770832441,
      "v": 82
    },
    {
      "midi": 82,
      "hit": false,
      "t": 255934.35054687655,
      "d": 28.93515624999418,
      "v": 95
    },
    {
      "midi": 84,
      "hit": false,
      "t": 256306.64955729322,
      "d": 20.254609374998836,
      "v": 111
    },
    {
      "midi": 75,
      "hit": false,
      "t": 256653.8714322932,
      "d": 2885.7995833333407,
      "v": 71
    },
    {
      "midi": 80,
      "hit": false,
      "t": 256656.76494791821,
      "d": 2946.563411458337,
      "v": 76
    },
    {
      "midi": 72,
      "hit": false,
      "t": 256661.5874739599,
      "d": 2851.0773958333302,
      "v": 55
    },
    {
      "midi": 63,
      "hit": false,
      "t": 256670.2680208349,
      "d": 4329.663880208333,
      "v": 63
    },
    {
      "midi": 68,
      "hit": false,
      "t": 256672.19703125156,
      "d": 4315.196302083321,
      "v": 76
    },
    {
      "midi": 80,
      "hit": false,
      "t": 259995.88197916822,
      "d": 338.541328124993,
      "v": 79
    },
    {
      "midi": 82,
      "hit": false,
      "t": 260368.1809895849,
      "d": 116.70513020834187,
      "v": 71
    },
    {
      "midi": 84,
      "hit": false,
      "t": 260741.4445052099,
      "d": 113.81161458333372,
      "v": 84
    },
    {
      "midi": 77,
      "hit": false,
      "t": 261099.27593750154,
      "d": 438.84986979173846,
      "v": 63
    },
    {
      "midi": 80,
      "hit": false,
      "t": 261103.1339583349,
      "d": 434.99184895839426,
      "v": 67
    },
    {
      "midi": 72,
      "hit": false,
      "t": 261110.85000000158,
      "d": 486.11062500003027,
      "v": 62
    },
    {
      "midi": 68,
      "hit": false,
      "t": 261114.70802083492,
      "d": 533.3713802083512,
      "v": 53
    },
    {
      "midi": 68,
      "hit": false,
      "t": 262218.10197916825,
      "d": 114.77611979166977,
      "v": 55
    },
    {
      "midi": 72,
      "hit": false,
      "t": 262221.9600000016,
      "d": 135.99523437500466,
      "v": 46
    },
    {
      "midi": 77,
      "hit": false,
      "t": 262225.81802083494,
      "d": 132.13721354166046,
      "v": 55
    },
    {
      "midi": 68,
      "hit": false,
      "t": 263329.2119791683,
      "d": 88.73447916662553,
      "v": 52
    },
    {
      "midi": 72,
      "hit": false,
      "t": 263334.03450520994,
      "d": 83.91195312497439,
      "v": 55
    },
    {
      "midi": 65,
      "hit": false,
      "t": 263336.9280208349,
      "d": 65.58635416667676,
      "v": 53
    },
    {
      "midi": 68,
      "hit": false,
      "t": 264439.3574739599,
      "d": 97.41502604162088,
      "v": 62
    },
    {
      "midi": 72,
      "hit": false,
      "t": 264440.3219791682,
      "d": 91.62799479166279,
      "v": 63
    },
    {
      "midi": 80,
      "hit": false,
      "t": 264451.8960416682,
      "d": 105.13106770836748,
      "v": 84
    },
    {
      "midi": 79,
      "hit": false,
      "t": 264841.5561458349,
      "d": 45.331744791648816,
      "v": 84
    },
    {
      "midi": 75,
      "hit": false,
      "t": 265184.92000000156,
      "d": 46.29625000001397,
      "v": 87
    },
    {
      "midi": 77,
      "hit": false,
      "t": 265561.07703125157,
      "d": 425.34679687500466,
      "v": 53
    },
    {
      "midi": 73,
      "hit": false,
      "t": 265563.97054687655,
      "d": 438.84986979170935,
      "v": 58
    },
    {
      "midi": 68,
      "hit": false,
      "t": 265565.8995572932,
      "d": 420.5242708333535,
      "v": 58
    },
    {
      "midi": 61,
      "hit": false,
      "t": 265570.72208333487,
      "d": 521.7973177083768,
      "v": 50
    },
    {
      "midi": 61,
      "hit": false,
      "t": 266651.9324218766,
      "d": 70.4088802082697,
      "v": 47
    },
    {
      "midi": 73,
      "hit": false,
      "t": 266654.82593750156,
      "d": 95.48601562494878,
      "v": 57
    },
    {
      "midi": 68,
      "hit": false,
      "t": 266656.75494791823,
      "d": 89.69898437493248,
      "v": 58
    },
    {
      "midi": 77,
      "hit": false,
      "t": 266659.6484635432,
      "d": 116.70513020828366,
      "v": 63
    },
    {
      "midi": 61,
      "hit": false,
      "t": 267760.1489062515,
      "d": 71.37338541663485,
      "v": 40
    },
    {
      "midi": 68,
      "hit": false,
      "t": 267769.79395833483,
      "d": 95.48601562494878,
      "v": 46
    },
    {
      "midi": 77,
      "hit": false,
      "t": 267772.6874739598,
      "d": 107.06007812498137,
      "v": 56
    },
    {
      "midi": 73,
      "hit": false,
      "t": 267773.6519791681,
      "d": 87.76997395831859,
      "v": 55
    },
    {
      "midi": 68,
      "hit": false,
      "t": 268886.6909895848,
      "d": 71.37338541663485,
      "v": 62
    },
    {
      "midi": 73,
      "hit": false,
      "t": 268899.2295572931,
      "d": 55.94130208331626,
      "v": 67
    },
    {
      "midi": 77,
      "hit": false,
      "t": 268904.05208333477,
      "d": 81.98294270830229,
      "v": 84
    },
    {
      "midi": 79,
      "hit": false,
      "t": 269264.7770312514,
      "d": 51.118776041665114,
      "v": 79
    },
    {
      "midi": 80,
      "hit": false,
      "t": 269637.0760416681,
      "d": 64.6218489583116,
      "v": 99
    },
    {
      "midi": 75,
      "hit": false,
      "t": 269999.7300000014,
      "d": 203.5105989582953,
      "v": 73
    },
    {
      "midi": 70,
      "hit": false,
      "t": 270000.6945052097,
      "d": 196.75906249997206,
      "v": 67
    },
    {
      "midi": 67,
      "hit": false,
      "t": 270005.51703125134,
      "d": 215.0846614583279,
      "v": 61
    },
    {
      "midi": 63,
      "hit": false,
      "t": 271111.8045052097,
      "d": 127.31468750000931,
      "v": 50
    },
    {
      "midi": 58,
      "hit": false,
      "t": 271122.41406250134,
      "d": 93.55700520833489,
      "v": 41
    },
    {
      "midi": 55,
      "hit": false,
      "t": 271137.84614583466,
      "d": 88.73447916668374,
      "v": 30
    },
    {
      "midi": 70,
      "hit": false,
      "t": 272207.48242187634,
      "d": 101.27304687496508,
      "v": 45
    },
    {
      "midi": 75,
      "hit": false,
      "t": 272207.48242187634,
      "d": 116.70513020834187,
      "v": 45
    },
    {
      "midi": 67,
      "hit": false,
      "t": 272212.304947918,
      "d": 102.23755208333023,
      "v": 35
    },
    {
      "midi": 63,
      "hit": false,
      "t": 272218.091979168,
      "d": 76.19591145828599,
      "v": 52
    },
    {
      "midi": 55,
      "hit": false,
      "t": 272221.95000000135,
      "d": 76.19591145828599,
      "v": 18
    },
    {
      "midi": 58,
      "hit": false,
      "t": 272222.91450520966,
      "d": 70.4088802083279,
      "v": 45
    },
    {
      "midi": 80,
      "hit": false,
      "t": 273338.84703125135,
      "d": 58.83481770835351,
      "v": 82
    },
    {
      "midi": 82,
      "hit": false,
      "t": 273712.1105468764,
      "d": 28.935156250023283,
      "v": 95
    },
    {
      "midi": 84,
      "hit": false,
      "t": 274084.40955729305,
      "d": 20.25460937502794,
      "v": 111
    },
    {
      "midi": 75,
      "hit": false,
      "t": 274431.6314322931,
      "d": 2885.7995833333116,
      "v": 71
    },
    {
      "midi": 80,
      "hit": false,
      "t": 274434.5249479181,
      "d": 2946.563411458337,
      "v": 76
    },
    {
      "midi": 72,
      "hit": false,
      "t": 274439.34747395973,
      "d": 2851.0773958333302,
      "v": 55
    },
    {
      "midi": 63,
      "hit": false,
      "t": 274448.0280208347,
      "d": 4329.663880208391,
      "v": 63
    },
    {
      "midi": 68,
      "hit": false,
      "t": 274449.9570312514,
      "d": 4315.196302083379,
      "v": 76
    },
    {
      "midi": 80,
      "hit": false,
      "t": 277773.6419791681,
      "d": 338.541328124993,
      "v": 79
    },
    {
      "midi": 82,
      "hit": false,
      "t": 278145.9409895848,
      "d": 116.70513020834187,
      "v": 71
    },
    {
      "midi": 84,
      "hit": false,
      "t": 278519.2045052098,
      "d": 113.81161458330462,
      "v": 84
    },
    {
      "midi": 77,
      "hit": false,
      "t": 278877.03593750147,
      "d": 438.84986979170935,
      "v": 63
    },
    {
      "midi": 80,
      "hit": false,
      "t": 278880.8939583348,
      "d": 434.99184895836515,
      "v": 67
    },
    {
      "midi": 72,
      "hit": false,
      "t": 278888.6100000015,
      "d": 486.11062500003027,
      "v": 62
    },
    {
      "midi": 68,
      "hit": false,
      "t": 278892.46802083484,
      "d": 533.3713802083512,
      "v": 53
    },
    {
      "midi": 68,
      "hit": false,
      "t": 279995.8619791682,
      "d": 114.77611979166977,
      "v": 55
    },
    {
      "midi": 72,
      "hit": false,
      "t": 279999.72000000154,
      "d": 135.99523437500466,
      "v": 46
    },
    {
      "midi": 77,
      "hit": false,
      "t": 280003.5780208349,
      "d": 132.13721354166046,
      "v": 55
    },
    {
      "midi": 68,
      "hit": false,
      "t": 281106.97197916824,
      "d": 88.73447916662553,
      "v": 52
    },
    {
      "midi": 72,
      "hit": false,
      "t": 281111.7945052099,
      "d": 83.91195312497439,
      "v": 55
    },
    {
      "midi": 65,
      "hit": false,
      "t": 281114.6880208349,
      "d": 65.58635416667676,
      "v": 53
    },
    {
      "midi": 68,
      "hit": false,
      "t": 282217.11747395986,
      "d": 97.41502604162088,
      "v": 62
    },
    {
      "midi": 72,
      "hit": false,
      "t": 282218.0819791682,
      "d": 91.62799479166279,
      "v": 63
    },
    {
      "midi": 80,
      "hit": false,
      "t": 282229.65604166815,
      "d": 105.13106770836748,
      "v": 84
    },
    {
      "midi": 79,
      "hit": false,
      "t": 282619.31614583486,
      "d": 45.331744791648816,
      "v": 84
    },
    {
      "midi": 75,
      "hit": false,
      "t": 282962.6800000015,
      "d": 46.29625000001397,
      "v": 87
    },
    {
      "midi": 77,
      "hit": false,
      "t": 283338.8370312515,
      "d": 425.34679687500466,
      "v": 53
    },
    {
      "midi": 73,
      "hit": false,
      "t": 283341.7305468765,
      "d": 438.84986979170935,
      "v": 58
    },
    {
      "midi": 68,
      "hit": false,
      "t": 283343.65955729317,
      "d": 420.5242708333535,
      "v": 58
    },
    {
      "midi": 61,
      "hit": false,
      "t": 283348.4820833348,
      "d": 521.7973177083768,
      "v": 50
    },
    {
      "midi": 61,
      "hit": false,
      "t": 284429.69242187653,
      "d": 70.4088802082697,
      "v": 47
    },
    {
      "midi": 73,
      "hit": false,
      "t": 284432.5859375015,
      "d": 95.48601562494878,
      "v": 57
    },
    {
      "midi": 68,
      "hit": false,
      "t": 284434.5149479182,
      "d": 89.69898437493248,
      "v": 58
    },
    {
      "midi": 77,
      "hit": false,
      "t": 284437.40846354316,
      "d": 116.70513020828366,
      "v": 63
    },
    {
      "midi": 61,
      "hit": false,
      "t": 285537.9089062514,
      "d": 71.37338541663485,
      "v": 40
    },
    {
      "midi": 68,
      "hit": false,
      "t": 285547.5539583348,
      "d": 95.48601562494878,
      "v": 46
    },
    {
      "midi": 77,
      "hit": false,
      "t": 285550.44747395976,
      "d": 107.06007812498137,
      "v": 56
    },
    {
      "midi": 73,
      "hit": false,
      "t": 285551.4119791681,
      "d": 87.76997395831859,
      "v": 55
    },
    {
      "midi": 68,
      "hit": false,
      "t": 286664.45098958473,
      "d": 71.37338541663485,
      "v": 62
    },
    {
      "midi": 73,
      "hit": false,
      "t": 286676.98955729307,
      "d": 55.94130208331626,
      "v": 67
    },
    {
      "midi": 77,
      "hit": false,
      "t": 286681.8120833347,
      "d": 81.98294270830229,
      "v": 84
    },
    {
      "midi": 79,
      "hit": false,
      "t": 287042.53703125136,
      "d": 51.118776041665114,
      "v": 79
    },
    {
      "midi": 80,
      "hit": false,
      "t": 287414.836041668,
      "d": 64.6218489583116,
      "v": 99
    },
    {
      "midi": 75,
      "hit": false,
      "t": 287777.49000000133,
      "d": 203.5105989582953,
      "v": 73
    },
    {
      "midi": 70,
      "hit": false,
      "t": 287778.45450520964,
      "d": 196.75906249997206,
      "v": 67
    },
    {
      "midi": 67,
      "hit": false,
      "t": 287783.2770312513,
      "d": 215.0846614583279,
      "v": 61
    },
    {
      "midi": 63,
      "hit": false,
      "t": 288889.5645052096,
      "d": 127.31468750000931,
      "v": 50
    },
    {
      "midi": 58,
      "hit": false,
      "t": 288900.1740625013,
      "d": 93.55700520833489,
      "v": 41
    },
    {
      "midi": 55,
      "hit": false,
      "t": 288915.6061458346,
      "d": 88.73447916668374,
      "v": 30
    },
    {
      "midi": 70,
      "hit": false,
      "t": 289985.2424218763,
      "d": 101.27304687496508,
      "v": 45
    },
    {
      "midi": 75,
      "hit": false,
      "t": 289985.2424218763,
      "d": 116.70513020834187,
      "v": 45
    },
    {
      "midi": 67,
      "hit": false,
      "t": 289990.06494791794,
      "d": 102.23755208333023,
      "v": 35
    },
    {
      "midi": 63,
      "hit": false,
      "t": 289995.85197916796,
      "d": 76.19591145828599,
      "v": 52
    },
    {
      "midi": 55,
      "hit": false,
      "t": 289999.7100000013,
      "d": 76.19591145828599,
      "v": 18
    },
    {
      "midi": 58,
      "hit": false,
      "t": 290000.6745052096,
      "d": 70.4088802083279,
      "v": 45
    },
    {
      "midi": 80,
      "hit": false,
      "t": 291116.6070312513,
      "d": 58.83481770835351,
      "v": 82
    },
    {
      "midi": 82,
      "hit": false,
      "t": 291489.87054687634,
      "d": 28.935156250023283,
      "v": 95
    },
    {
      "midi": 84,
      "hit": false,
      "t": 291862.169557293,
      "d": 20.25460937502794,
      "v": 111
    },
    {
      "midi": 72,
      "hit": false,
      "t": 292098.4733333347,
      "d": 210.26213541661855,
      "v": 41
    },
    {
      "midi": 75,
      "hit": false,
      "t": 292130.3020052097,
      "d": 171.68192708329298,
      "v": 47
    },
    {
      "midi": 80,
      "hit": false,
      "t": 292191.0658333347,
      "d": 107.06007812498137,
      "v": 48
    },
    {
      "midi": 56,
      "hit": false,
      "t": 292207.4624218764,
      "d": 82.94744791660924,
      "v": 64
    },
    {
      "midi": 68,
      "hit": false,
      "t": 292230.6105468763,
      "d": 63.65734375000466,
      "v": 84
    },
    {
      "midi": 84,
      "hit": false,
      "t": 292246.04263020965,
      "d": 93.5570052083931,
      "v": 87
    },
    {
      "midi": 80,
      "hit": false,
      "t": 292631.844713543,
      "d": 76.1959114583442,
      "v": 84
    },
    {
      "midi": 75,
      "hit": false,
      "t": 293002.214713543,
      "d": 78.1249218750163,
      "v": 57
    },
    {
      "midi": 73,
      "hit": false,
      "t": 293366.79768229305,
      "d": 63.65734375000466,
      "v": 91
    },
    {
      "midi": 70,
      "hit": false,
      "t": 293741.9902083347,
      "d": 76.1959114583442,
      "v": 73
    },
    {
      "midi": 65,
      "hit": false,
      "t": 294159.620963543,
      "d": 59.79932291666046,
      "v": 64
    },
    {
      "midi": 56,
      "hit": false,
      "t": 294658.2701562513,
      "d": 132.13721354166046,
      "v": 24
    },
    {
      "midi": 60,
      "hit": false,
      "t": 294698.7793750013,
      "d": 112.84710937499767,
      "v": 62
    },
    {
      "midi": 44,
      "hit": false,
      "t": 294710.3534375013,
      "d": 59.79932291666046,
      "v": 56
    },
    {
      "midi": 63,
      "hit": false,
      "t": 294714.21145833464,
      "d": 99.34403645835118,
      "v": 60
    },
    {
      "midi": 68,
      "hit": false,
      "t": 294768.2237500013,
      "d": 55.94130208337447,
      "v": 63
    },
    {
      "midi": 84,
      "hit": false,
      "t": 296404.0245833347,
      "d": 2109.3728906249744,
      "v": 28
    },
    {
      "midi": 92,
      "hit": false,
      "t": 296481.18500000134,
      "d": 2190.3913281249697,
      "v": 55
    }
  ]
}