{
  "jsonPath": "Ambient/Lounge/Al Martino/volare.json",
  "path": "Ambient\\Lounge\\Al Martino\\Volare.mid",
  "name": "Volare",
  "difficulty": "Advanced",
  "bpm": 130.00041166797027,
  "notes": [
    {
      "midi": 78,
      "hit": false,
      "t": 3957.5490166666664,
      "d": 132.07553333333317,
      "v": 1
    },
    {
      "midi": 66,
      "hit": false,
      "t": 3957.549016666667,
      "d": 556.6040333333331,
      "v": 1
    },
    {
      "midi": 69,
      "hit": false,
      "t": 3957.549016666667,
      "d": 556.6040333333331,
      "v": 1
    },
    {
      "midi": 78,
      "hit": false,
      "t": 4240.568016666666,
      "d": 132.07553333333362,
      "v": 1
    },
    {
      "midi": 81,
      "hit": false,
      "t": 4523.587016666666,
      "d": 415.09453333333295,
      "v": 1
    },
    {
      "midi": 30,
      "hit": false,
      "t": 4523.587016666666,
      "d": 2254.7180333333336,
      "v": 1
    },
    {
      "midi": 33,
      "hit": false,
      "t": 4523.587016666666,
      "d": 2254.7180333333336,
      "v": 1
    },
    {
      "midi": 37,
      "hit": false,
      "t": 4523.587016666666,
      "d": 2254.7180333333336,
      "v": 1
    },
    {
      "midi": 69,
      "hit": false,
      "t": 4523.587016666666,
      "d": 415.09453333333295,
      "v": 1
    },
    {
      "midi": 73,
      "hit": false,
      "t": 4523.587016666666,
      "d": 415.09453333333295,
      "v": 1
    },
    {
      "midi": 78,
      "hit": false,
      "t": 4948.115516666666,
      "d": 273.58503333333374,
      "v": 1
    },
    {
      "midi": 66,
      "hit": false,
      "t": 4948.115516666666,
      "d": 1264.1515333333336,
      "v": 1
    },
    {
      "midi": 69,
      "hit": false,
      "t": 4948.115516666666,
      "d": 1264.1515333333336,
      "v": 1
    },
    {
      "midi": 69,
      "hit": false,
      "t": 6221.701016666666,
      "d": 132.07553333333362,
      "v": 1
    },
    {
      "midi": 57,
      "hit": false,
      "t": 6221.701016666666,
      "d": 556.6040333333331,
      "v": 1
    },
    {
      "midi": 61,
      "hit": false,
      "t": 6221.701016666666,
      "d": 556.6040333333331,
      "v": 1
    },
    {
      "midi": 69,
      "hit": false,
      "t": 6504.720016666666,
      "d": 132.07553333333362,
      "v": 1
    },
    {
      "midi": 59,
      "hit": false,
      "t": 6787.7390166666655,
      "d": 415.09453333333295,
      "v": 1
    },
    {
      "midi": 62,
      "hit": false,
      "t": 6787.7390166666655,
      "d": 415.09453333333295,
      "v": 1
    },
    {
      "midi": 71,
      "hit": false,
      "t": 6787.739016666666,
      "d": 273.58503333333374,
      "v": 1
    },
    {
      "midi": 30,
      "hit": false,
      "t": 6787.739016666666,
      "d": 2254.7180333333345,
      "v": 1
    },
    {
      "midi": 35,
      "hit": false,
      "t": 6787.739016666666,
      "d": 2254.7180333333345,
      "v": 1
    },
    {
      "midi": 38,
      "hit": false,
      "t": 6787.739016666666,
      "d": 2254.7180333333345,
      "v": 1
    },
    {
      "midi": 56,
      "hit": false,
      "t": 7212.267516666665,
      "d": 1405.6610333333338,
      "v": 1
    },
    {
      "midi": 59,
      "hit": false,
      "t": 7212.267516666665,
      "d": 1405.6610333333338,
      "v": 1
    },
    {
      "midi": 68,
      "hit": false,
      "t": 7212.267516666667,
      "d": 273.58503333333374,
      "v": 1
    },
    {
      "midi": 56,
      "hit": false,
      "t": 8627.362516666666,
      "d": 273.58503333333283,
      "v": 1
    },
    {
      "midi": 64,
      "hit": false,
      "t": 8627.362516666666,
      "d": 273.58503333333283,
      "v": 1
    },
    {
      "midi": 68,
      "hit": false,
      "t": 8768.872016666668,
      "d": 132.07553333333271,
      "v": 1
    },
    {
      "midi": 62,
      "hit": false,
      "t": 8910.381516666666,
      "d": 132.07553333333271,
      "v": 1
    },
    {
      "midi": 69,
      "hit": false,
      "t": 8910.381516666666,
      "d": 132.07553333333271,
      "v": 1
    },
    {
      "midi": 74,
      "hit": false,
      "t": 8910.381516666668,
      "d": 132.07553333333271,
      "v": 1
    },
    {
      "midi": 61,
      "hit": false,
      "t": 9051.891016666666,
      "d": 132.07553333333271,
      "v": 1
    },
    {
      "midi": 68,
      "hit": false,
      "t": 9051.891016666666,
      "d": 132.07553333333271,
      "v": 1
    },
    {
      "midi": 73,
      "hit": false,
      "t": 9051.891016666668,
      "d": 132.07553333333271,
      "v": 1
    },
    {
      "midi": 32,
      "hit": false,
      "t": 9051.891016666668,
      "d": 2254.7180333333345,
      "v": 1
    },
    {
      "midi": 37,
      "hit": false,
      "t": 9051.891016666668,
      "d": 2254.7180333333345,
      "v": 1
    },
    {
      "midi": 41,
      "hit": false,
      "t": 9051.891016666668,
      "d": 2254.7180333333345,
      "v": 1
    },
    {
      "midi": 62,
      "hit": false,
      "t": 9193.400516666667,
      "d": 273.58503333333283,
      "v": 1
    },
    {
      "midi": 68,
      "hit": false,
      "t": 9193.400516666667,
      "d": 273.58503333333283,
      "v": 1
    },
    {
      "midi": 74,
      "hit": false,
      "t": 9334.910016666669,
      "d": 132.07553333333271,
      "v": 1
    },
    {
      "midi": 61,
      "hit": false,
      "t": 9476.419516666667,
      "d": 273.58503333333283,
      "v": 1
    },
    {
      "midi": 68,
      "hit": false,
      "t": 9476.419516666667,
      "d": 273.58503333333283,
      "v": 1
    },
    {
      "midi": 73,
      "hit": false,
      "t": 9476.419516666669,
      "d": 132.07553333333271,
      "v": 1
    },
    {
      "midi": 62,
      "hit": false,
      "t": 9759.438516666667,
      "d": 273.58503333333283,
      "v": 1
    },
    {
      "midi": 68,
      "hit": false,
      "t": 9759.438516666667,
      "d": 273.58503333333283,
      "v": 1
    },
    {
      "midi": 74,
      "hit": false,
      "t": 9759.438516666669,
      "d": 132.07553333333271,
      "v": 1
    },
    {
      "midi": 61,
      "hit": false,
      "t": 10042.457516666667,
      "d": 273.58503333333283,
      "v": 1
    },
    {
      "midi": 68,
      "hit": false,
      "t": 10042.457516666667,
      "d": 273.58503333333283,
      "v": 1
    },
    {
      "midi": 73,
      "hit": false,
      "t": 10042.45751666667,
      "d": 132.07553333333271,
      "v": 1
    },
    {
      "midi": 62,
      "hit": false,
      "t": 10325.476516666668,
      "d": 273.58503333333283,
      "v": 1
    },
    {
      "midi": 68,
      "hit": false,
      "t": 10325.476516666668,
      "d": 273.58503333333283,
      "v": 1
    },
    {
      "midi": 74,
      "hit": false,
      "t": 10325.47651666667,
      "d": 132.07553333333271,
      "v": 1
    },
    {
      "midi": 61,
      "hit": false,
      "t": 10608.495516666668,
      "d": 132.07553333333271,
      "v": 1
    },
    {
      "midi": 68,
      "hit": false,
      "t": 10608.495516666668,
      "d": 132.07553333333271,
      "v": 1
    },
    {
      "midi": 73,
      "hit": false,
      "t": 10608.49551666667,
      "d": 132.07553333333271,
      "v": 1
    },
    {
      "midi": 64,
      "hit": false,
      "t": 10750.005016666668,
      "d": 273.58503333333283,
      "v": 1
    },
    {
      "midi": 71,
      "hit": false,
      "t": 10750.005016666668,
      "d": 273.58503333333283,
      "v": 1
    },
    {
      "midi": 76,
      "hit": false,
      "t": 10750.00501666667,
      "d": 132.07553333333271,
      "v": 1
    },
    {
      "midi": 62,
      "hit": false,
      "t": 11033.024016666668,
      "d": 273.58503333333283,
      "v": 1
    },
    {
      "midi": 69,
      "hit": false,
      "t": 11033.024016666668,
      "d": 273.58503333333283,
      "v": 1
    },
    {
      "midi": 74,
      "hit": false,
      "t": 11033.02401666667,
      "d": 132.07553333333271,
      "v": 1
    },
    {
      "midi": 61,
      "hit": false,
      "t": 11316.043016666668,
      "d": 1688.680033333334,
      "v": 1
    },
    {
      "midi": 69,
      "hit": false,
      "t": 11316.043016666668,
      "d": 1688.680033333334,
      "v": 1
    },
    {
      "midi": 73,
      "hit": false,
      "t": 11316.04301666667,
      "d": 273.58503333333283,
      "v": 1
    },
    {
      "midi": 30,
      "hit": false,
      "t": 11316.04301666667,
      "d": 2254.7180333333326,
      "v": 1
    },
    {
      "midi": 33,
      "hit": false,
      "t": 11316.04301666667,
      "d": 2254.7180333333326,
      "v": 1
    },
    {
      "midi": 37,
      "hit": false,
      "t": 11316.04301666667,
      "d": 2254.7180333333326,
      "v": 1
    },
    {
      "midi": 78,
      "hit": false,
      "t": 13014.15701666667,
      "d": 132.07553333333271,
      "v": 1
    },
    {
      "midi": 66,
      "hit": false,
      "t": 13014.15701666667,
      "d": 556.6040333333331,
      "v": 1
    },
    {
      "midi": 69,
      "hit": false,
      "t": 13014.15701666667,
      "d": 556.6040333333331,
      "v": 1
    },
    {
      "midi": 78,
      "hit": false,
      "t": 13297.17601666667,
      "d": 132.07553333333271,
      "v": 1
    },
    {
      "midi": 81,
      "hit": false,
      "t": 13580.19501666667,
      "d": 415.09453333333295,
      "v": 1
    },
    {
      "midi": 30,
      "hit": false,
      "t": 13580.19501666667,
      "d": 2254.7180333333326,
      "v": 1
    },
    {
      "midi": 33,
      "hit": false,
      "t": 13580.19501666667,
      "d": 2254.7180333333326,
      "v": 1
    },
    {
      "midi": 37,
      "hit": false,
      "t": 13580.19501666667,
      "d": 2254.7180333333326,
      "v": 1
    },
    {
      "midi": 69,
      "hit": false,
      "t": 13580.19501666667,
      "d": 415.09453333333295,
      "v": 1
    },
    {
      "midi": 73,
      "hit": false,
      "t": 13580.19501666667,
      "d": 415.09453333333295,
      "v": 1
    },
    {
      "midi": 78,
      "hit": false,
      "t": 14004.72351666667,
      "d": 132.07553333333271,
      "v": 1
    },
    {
      "midi": 66,
      "hit": false,
      "t": 14004.72351666667,
      "d": 1264.1515333333336,
      "v": 1
    },
    {
      "midi": 69,
      "hit": false,
      "t": 14004.72351666667,
      "d": 1264.1515333333336,
      "v": 1
    },
    {
      "midi": 69,
      "hit": false,
      "t": 15278.30901666667,
      "d": 132.07553333333271,
      "v": 1
    },
    {
      "midi": 57,
      "hit": false,
      "t": 15278.309016666672,
      "d": 556.6040333333331,
      "v": 1
    },
    {
      "midi": 61,
      "hit": false,
      "t": 15278.309016666672,
      "d": 556.6040333333331,
      "v": 1
    },
    {
      "midi": 69,
      "hit": false,
      "t": 15561.32801666667,
      "d": 132.07553333333271,
      "v": 1
    },
    {
      "midi": 71,
      "hit": false,
      "t": 15844.34701666667,
      "d": 273.58503333333283,
      "v": 1
    },
    {
      "midi": 30,
      "hit": false,
      "t": 15844.34701666667,
      "d": 2254.7180333333345,
      "v": 1
    },
    {
      "midi": 35,
      "hit": false,
      "t": 15844.34701666667,
      "d": 2254.7180333333345,
      "v": 1
    },
    {
      "midi": 38,
      "hit": false,
      "t": 15844.34701666667,
      "d": 2254.7180333333345,
      "v": 1
    },
    {
      "midi": 59,
      "hit": false,
      "t": 15844.347016666672,
      "d": 415.09453333333295,
      "v": 1
    },
    {
      "midi": 62,
      "hit": false,
      "t": 15844.347016666672,
      "d": 415.09453333333295,
      "v": 1
    },
    {
      "midi": 68,
      "hit": false,
      "t": 16268.87551666667,
      "d": 132.07553333333271,
      "v": 1
    },
    {
      "midi": 56,
      "hit": false,
      "t": 16268.875516666672,
      "d": 1405.661033333332,
      "v": 1
    },
    {
      "midi": 59,
      "hit": false,
      "t": 16268.875516666672,
      "d": 1405.661033333332,
      "v": 1
    },
    {
      "midi": 68,
      "hit": false,
      "t": 17683.97051666667,
      "d": 132.07553333333271,
      "v": 1
    },
    {
      "midi": 56,
      "hit": false,
      "t": 17683.97051666667,
      "d": 273.58503333333283,
      "v": 1
    },
    {
      "midi": 64,
      "hit": false,
      "t": 17683.97051666667,
      "d": 273.58503333333283,
      "v": 1
    },
    {
      "midi": 68,
      "hit": false,
      "t": 17825.480016666672,
      "d": 132.07553333333271,
      "v": 1
    },
    {
      "midi": 74,
      "hit": false,
      "t": 17966.989516666672,
      "d": 132.07553333333271,
      "v": 1
    },
    {
      "midi": 62,
      "hit": false,
      "t": 17966.989516666672,
      "d": 132.07553333333271,
      "v": 1
    },
    {
      "midi": 69,
      "hit": false,
      "t": 17966.989516666672,
      "d": 132.07553333333271,
      "v": 1
    },
    {
      "midi": 73,
      "hit": false,
      "t": 18108.499016666672,
      "d": 132.07553333333271,
      "v": 1
    },
    {
      "midi": 32,
      "hit": false,
      "t": 18108.499016666672,
      "d": 2254.7180333333345,
      "v": 1
    },
    {
      "midi": 37,
      "hit": false,
      "t": 18108.499016666672,
      "d": 2254.7180333333345,
      "v": 1
    },
    {
      "midi": 41,
      "hit": false,
      "t": 18108.499016666672,
      "d": 2254.7180333333345,
      "v": 1
    },
    {
      "midi": 61,
      "hit": false,
      "t": 18108.499016666672,
      "d": 132.07553333333271,
      "v": 1
    },
    {
      "midi": 68,
      "hit": false,
      "t": 18108.499016666672,
      "d": 132.07553333333271,
      "v": 1
    },
    {
      "midi": 74,
      "hit": false,
      "t": 18250.008516666672,
      "d": 132.07553333333271,
      "v": 1
    },
    {
      "midi": 62,
      "hit": false,
      "t": 18250.008516666672,
      "d": 273.58503333333283,
      "v": 1
    },
    {
      "midi": 68,
      "hit": false,
      "t": 18250.008516666672,
      "d": 273.58503333333283,
      "v": 1
    },
    {
      "midi": 73,
      "hit": false,
      "t": 18533.027516666672,
      "d": 132.07553333333271,
      "v": 1
    },
    {
      "midi": 61,
      "hit": false,
      "t": 18533.027516666672,
      "d": 273.58503333333283,
      "v": 1
    },
    {
      "midi": 68,
      "hit": false,
      "t": 18533.027516666672,
      "d": 273.58503333333283,
      "v": 1
    },
    {
      "midi": 74,
      "hit": false,
      "t": 18816.046516666673,
      "d": 132.07553333333271,
      "v": 1
    },
    {
      "midi": 62,
      "hit": false,
      "t": 18816.046516666673,
      "d": 273.58503333333283,
      "v": 1
    },
    {
      "midi": 68,
      "hit": false,
      "t": 18816.046516666673,
      "d": 273.58503333333283,
      "v": 1
    },
    {
      "midi": 73,
      "hit": false,
      "t": 19099.065516666673,
      "d": 132.07553333333271,
      "v": 1
    },
    {
      "midi": 61,
      "hit": false,
      "t": 19099.065516666673,
      "d": 273.58503333333283,
      "v": 1
    },
    {
      "midi": 68,
      "hit": false,
      "t": 19099.065516666673,
      "d": 273.58503333333283,
      "v": 1
    },
    {
      "midi": 74,
      "hit": false,
      "t": 19382.084516666673,
      "d": 132.07553333333271,
      "v": 1
    },
    {
      "midi": 62,
      "hit": false,
      "t": 19382.084516666673,
      "d": 273.58503333333283,
      "v": 1
    },
    {
      "midi": 68,
      "hit": false,
      "t": 19382.084516666673,
      "d": 273.58503333333283,
      "v": 1
    },
    {
      "midi": 73,
      "hit": false,
      "t": 19665.103516666673,
      "d": 132.07553333333271,
      "v": 1
    },
    {
      "midi": 61,
      "hit": false,
      "t": 19665.103516666673,
      "d": 132.07553333333271,
      "v": 1
    },
    {
      "midi": 68,
      "hit": false,
      "t": 19665.103516666673,
      "d": 132.07553333333271,
      "v": 1
    },
    {
      "midi": 76,
      "hit": false,
      "t": 19806.613016666674,
      "d": 132.07553333333271,
      "v": 1
    },
    {
      "midi": 64,
      "hit": false,
      "t": 19806.613016666674,
      "d": 273.58503333333283,
      "v": 1
    },
    {
      "midi": 71,
      "hit": false,
      "t": 19806.613016666674,
      "d": 273.58503333333283,
      "v": 1
    },
    {
      "midi": 74,
      "hit": false,
      "t": 20089.632016666674,
      "d": 132.07553333333271,
      "v": 1
    },
    {
      "midi": 62,
      "hit": false,
      "t": 20089.632016666674,
      "d": 273.58503333333283,
      "v": 1
    },
    {
      "midi": 69,
      "hit": false,
      "t": 20089.632016666674,
      "d": 273.58503333333283,
      "v": 1
    },
    {
      "midi": 73,
      "hit": false,
      "t": 20372.651016666674,
      "d": 273.58503333333283,
      "v": 1
    },
    {
      "midi": 30,
      "hit": false,
      "t": 20372.651016666674,
      "d": 2254.718033333331,
      "v": 1
    },
    {
      "midi": 33,
      "hit": false,
      "t": 20372.651016666674,
      "d": 2254.718033333331,
      "v": 1
    },
    {
      "midi": 37,
      "hit": false,
      "t": 20372.651016666674,
      "d": 2254.718033333331,
      "v": 1
    },
    {
      "midi": 61,
      "hit": false,
      "t": 20372.651016666674,
      "d": 2254.7180333333345,
      "v": 1
    },
    {
      "midi": 78,
      "hit": false,
      "t": 22070.76501666667,
      "d": 132.07553333333271,
      "v": 1
    },
    {
      "midi": 66,
      "hit": false,
      "t": 22070.765016666675,
      "d": 556.6040333333331,
      "v": 1
    },
    {
      "midi": 69,
      "hit": false,
      "t": 22070.765016666675,
      "d": 556.6040333333331,
      "v": 1
    },
    {
      "midi": 78,
      "hit": false,
      "t": 22353.784016666672,
      "d": 132.07553333333271,
      "v": 1
    },
    {
      "midi": 81,
      "hit": false,
      "t": 22636.803016666672,
      "d": 415.09453333333295,
      "v": 1
    },
    {
      "midi": 30,
      "hit": false,
      "t": 22636.803016666672,
      "d": 2254.7180333333345,
      "v": 1
    },
    {
      "midi": 33,
      "hit": false,
      "t": 22636.803016666672,
      "d": 2254.7180333333345,
      "v": 1
    },
    {
      "midi": 37,
      "hit": false,
      "t": 22636.803016666672,
      "d": 2254.7180333333345,
      "v": 1
    },
    {
      "midi": 69,
      "hit": false,
      "t": 22636.803016666676,
      "d": 415.09453333333295,
      "v": 1
    },
    {
      "midi": 73,
      "hit": false,
      "t": 22636.803016666676,
      "d": 415.09453333333295,
      "v": 1
    },
    {
      "midi": 78,
      "hit": false,
      "t": 23061.331516666673,
      "d": 273.58503333333283,
      "v": 1
    },
    {
      "midi": 66,
      "hit": false,
      "t": 23061.331516666676,
      "d": 1264.1515333333336,
      "v": 1
    },
    {
      "midi": 69,
      "hit": false,
      "t": 23061.331516666676,
      "d": 1264.1515333333336,
      "v": 1
    },
    {
      "midi": 69,
      "hit": false,
      "t": 24334.917016666674,
      "d": 132.07553333333271,
      "v": 1
    },
    {
      "midi": 57,
      "hit": false,
      "t": 24334.917016666677,
      "d": 556.6040333333331,
      "v": 1
    },
    {
      "midi": 61,
      "hit": false,
      "t": 24334.917016666677,
      "d": 556.6040333333331,
      "v": 1
    },
    {
      "midi": 69,
      "hit": false,
      "t": 24617.936016666674,
      "d": 132.07553333333271,
      "v": 1
    },
    {
      "midi": 71,
      "hit": false,
      "t": 24900.955016666674,
      "d": 273.58503333333283,
      "v": 1
    },
    {
      "midi": 30,
      "hit": false,
      "t": 24900.955016666674,
      "d": 2254.7180333333345,
      "v": 1
    },
    {
      "midi": 35,
      "hit": false,
      "t": 24900.955016666674,
      "d": 2254.7180333333345,
      "v": 1
    },
    {
      "midi": 38,
      "hit": false,
      "t": 24900.955016666674,
      "d": 2254.7180333333345,
      "v": 1
    },
    {
      "midi": 59,
      "hit": false,
      "t": 24900.955016666678,
      "d": 415.09453333333295,
      "v": 1
    },
    {
      "midi": 62,
      "hit": false,
      "t": 24900.955016666678,
      "d": 415.09453333333295,
      "v": 1
    },
    {
      "midi": 68,
      "hit": false,
      "t": 25325.483516666674,
      "d": 273.58503333333283,
      "v": 1
    },
    {
      "midi": 56,
      "hit": false,
      "t": 25325.483516666678,
      "d": 1405.6610333333338,
      "v": 1
    },
    {
      "midi": 59,
      "hit": false,
      "t": 25325.483516666678,
      "d": 1405.6610333333338,
      "v": 1
    },
    {
      "midi": 56,
      "hit": false,
      "t": 26740.57851666668,
      "d": 273.58503333333283,
      "v": 1
    },
    {
      "midi": 64,
      "hit": false,
      "t": 26740.57851666668,
      "d": 273.58503333333283,
      "v": 1
    },
    {
      "midi": 68,
      "hit": false,
      "t": 26882.088016666676,
      "d": 132.07553333333271,
      "v": 1
    },
    {
      "midi": 74,
      "hit": false,
      "t": 27023.597516666676,
      "d": 132.07553333333271,
      "v": 1
    },
    {
      "midi": 62,
      "hit": false,
      "t": 27023.59751666668,
      "d": 132.07553333333271,
      "v": 1
    },
    {
      "midi": 69,
      "hit": false,
      "t": 27023.59751666668,
      "d": 132.07553333333271,
      "v": 1
    },
    {
      "midi": 73,
      "hit": false,
      "t": 27165.107016666676,
      "d": 132.07553333333271,
      "v": 1
    },
    {
      "midi": 32,
      "hit": false,
      "t": 27165.107016666676,
      "d": 2254.7180333333345,
      "v": 1
    },
    {
      "midi": 37,
      "hit": false,
      "t": 27165.107016666676,
      "d": 2254.7180333333345,
      "v": 1
    },
    {
      "midi": 41,
      "hit": false,
      "t": 27165.107016666676,
      "d": 2254.7180333333345,
      "v": 1
    },
    {
      "midi": 61,
      "hit": false,
      "t": 27165.10701666668,
      "d": 132.07553333333271,
      "v": 1
    },
    {
      "midi": 68,
      "hit": false,
      "t": 27165.10701666668,
      "d": 132.07553333333271,
      "v": 1
    },
    {
      "midi": 62,
      "hit": false,
      "t": 27306.61651666668,
      "d": 273.58503333333283,
      "v": 1
    },
    {
      "midi": 68,
      "hit": false,
      "t": 27306.61651666668,
      "d": 273.58503333333283,
      "v": 1
    },
    {
      "midi": 74,
      "hit": false,
      "t": 27448.126016666676,
      "d": 132.07553333333271,
      "v": 1
    },
    {
      "midi": 73,
      "hit": false,
      "t": 27589.635516666676,
      "d": 132.07553333333271,
      "v": 1
    },
    {
      "midi": 61,
      "hit": false,
      "t": 27589.63551666668,
      "d": 273.58503333333283,
      "v": 1
    },
    {
      "midi": 68,
      "hit": false,
      "t": 27589.63551666668,
      "d": 273.58503333333283,
      "v": 1
    },
    {
      "midi": 74,
      "hit": false,
      "t": 27872.654516666676,
      "d": 132.07553333333271,
      "v": 1
    },
    {
      "midi": 62,
      "hit": false,
      "t": 27872.65451666668,
      "d": 273.58503333333283,
      "v": 1
    },
    {
      "midi": 68,
      "hit": false,
      "t": 27872.65451666668,
      "d": 273.58503333333283,
      "v": 1
    },
    {
      "midi": 73,
      "hit": false,
      "t": 28155.673516666677,
      "d": 132.07553333333271,
      "v": 1
    },
    {
      "midi": 61,
      "hit": false,
      "t": 28155.67351666668,
      "d": 273.58503333333283,
      "v": 1
    },
    {
      "midi": 68,
      "hit": false,
      "t": 28155.67351666668,
      "d": 273.58503333333283,
      "v": 1
    },
    {
      "midi": 74,
      "hit": false,
      "t": 28438.692516666677,
      "d": 132.07553333333271,
      "v": 1
    },
    {
      "midi": 62,
      "hit": false,
      "t": 28438.69251666668,
      "d": 273.58503333333283,
      "v": 1
    },
    {
      "midi": 68,
      "hit": false,
      "t": 28438.69251666668,
      "d": 273.58503333333283,
      "v": 1
    },
    {
      "midi": 73,
      "hit": false,
      "t": 28721.711516666677,
      "d": 132.07553333333271,
      "v": 1
    },
    {
      "midi": 61,
      "hit": false,
      "t": 28721.71151666668,
      "d": 132.07553333333271,
      "v": 1
    },
    {
      "midi": 68,
      "hit": false,
      "t": 28721.71151666668,
      "d": 132.07553333333271,
      "v": 1
    },
    {
      "midi": 76,
      "hit": false,
      "t": 28863.221016666677,
      "d": 132.07553333333271,
      "v": 1
    },
    {
      "midi": 64,
      "hit": false,
      "t": 28863.22101666668,
      "d": 273.58503333333283,
      "v": 1
    },
    {
      "midi": 71,
      "hit": false,
      "t": 28863.22101666668,
      "d": 273.58503333333283,
      "v": 1
    },
    {
      "midi": 74,
      "hit": false,
      "t": 29146.240016666678,
      "d": 132.07553333333271,
      "v": 1
    },
    {
      "midi": 62,
      "hit": false,
      "t": 29146.24001666668,
      "d": 273.58503333333283,
      "v": 1
    },
    {
      "midi": 69,
      "hit": false,
      "t": 29146.24001666668,
      "d": 273.58503333333283,
      "v": 1
    },
    {
      "midi": 73,
      "hit": false,
      "t": 29429.259016666678,
      "d": 273.58503333333283,
      "v": 1
    },
    {
      "midi": 30,
      "hit": false,
      "t": 29429.259016666678,
      "d": 2254.7180333333345,
      "v": 1
    },
    {
      "midi": 33,
      "hit": false,
      "t": 29429.259016666678,
      "d": 2254.7180333333345,
      "v": 1
    },
    {
      "midi": 37,
      "hit": false,
      "t": 29429.259016666678,
      "d": 2254.7180333333345,
      "v": 1
    },
    {
      "midi": 61,
      "hit": false,
      "t": 29429.25901666668,
      "d": 1688.680033333334,
      "v": 1
    },
    {
      "midi": 69,
      "hit": false,
      "t": 29429.25901666668,
      "d": 1688.680033333334,
      "v": 1
    },
    {
      "midi": 78,
      "hit": false,
      "t": 31127.37301666668,
      "d": 132.07553333333271,
      "v": 1
    },
    {
      "midi": 66,
      "hit": false,
      "t": 31127.373016666683,
      "d": 556.6040333333331,
      "v": 1
    },
    {
      "midi": 69,
      "hit": false,
      "t": 31127.373016666683,
      "d": 556.6040333333331,
      "v": 1
    },
    {
      "midi": 78,
      "hit": false,
      "t": 31410.39201666668,
      "d": 132.07553333333271,
      "v": 1
    },
    {
      "midi": 81,
      "hit": false,
      "t": 31693.41101666668,
      "d": 415.09453333333295,
      "v": 1
    },
    {
      "midi": 30,
      "hit": false,
      "t": 31693.41101666668,
      "d": 2254.718033333338,
      "v": 1
    },
    {
      "midi": 33,
      "hit": false,
      "t": 31693.41101666668,
      "d": 2254.718033333338,
      "v": 1
    },
    {
      "midi": 37,
      "hit": false,
      "t": 31693.41101666668,
      "d": 2254.718033333338,
      "v": 1
    },
    {
      "midi": 69,
      "hit": false,
      "t": 31693.411016666683,
      "d": 415.09453333333295,
      "v": 1
    },
    {
      "midi": 73,
      "hit": false,
      "t": 31693.411016666683,
      "d": 415.09453333333295,
      "v": 1
    },
    {
      "midi": 78,
      "hit": false,
      "t": 32117.93951666668,
      "d": 132.07553333333271,
      "v": 1
    },
    {
      "midi": 66,
      "hit": false,
      "t": 32117.939516666684,
      "d": 1264.1515333333336,
      "v": 1
    },
    {
      "midi": 69,
      "hit": false,
      "t": 32117.939516666684,
      "d": 1264.1515333333336,
      "v": 1
    },
    {
      "midi": 69,
      "hit": false,
      "t": 33391.52501666668,
      "d": 132.07553333333635,
      "v": 1
    },
    {
      "midi": 57,
      "hit": false,
      "t": 33391.52501666668,
      "d": 556.6040333333367,
      "v": 1
    },
    {
      "midi": 61,
      "hit": false,
      "t": 33391.52501666668,
      "d": 556.6040333333367,
      "v": 1
    },
    {
      "midi": 69,
      "hit": false,
      "t": 33674.54401666668,
      "d": 132.07553333333635,
      "v": 1
    },
    {
      "midi": 71,
      "hit": false,
      "t": 33957.56301666668,
      "d": 273.58503333333647,
      "v": 1
    },
    {
      "midi": 30,
      "hit": false,
      "t": 33957.56301666668,
      "d": 2254.718033333338,
      "v": 1
    },
    {
      "midi": 35,
      "hit": false,
      "t": 33957.56301666668,
      "d": 2254.718033333338,
      "v": 1
    },
    {
      "midi": 38,
      "hit": false,
      "t": 33957.56301666668,
      "d": 2254.718033333338,
      "v": 1
    },
    {
      "midi": 59,
      "hit": false,
      "t": 33957.56301666668,
      "d": 415.0945333333366,
      "v": 1
    },
    {
      "midi": 62,
      "hit": false,
      "t": 33957.56301666668,
      "d": 415.0945333333366,
      "v": 1
    },
    {
      "midi": 68,
      "hit": false,
      "t": 34382.09151666668,
      "d": 132.07553333333635,
      "v": 1
    },
    {
      "midi": 56,
      "hit": false,
      "t": 34382.09151666668,
      "d": 1405.6610333333301,
      "v": 1
    },
    {
      "midi": 59,
      "hit": false,
      "t": 34382.09151666668,
      "d": 1405.6610333333301,
      "v": 1
    },
    {
      "midi": 56,
      "hit": false,
      "t": 35797.186516666676,
      "d": 273.58503333333647,
      "v": 1
    },
    {
      "midi": 64,
      "hit": false,
      "t": 35797.186516666676,
      "d": 273.58503333333647,
      "v": 1
    },
    {
      "midi": 68,
      "hit": false,
      "t": 35797.18651666668,
      "d": 132.07553333333635,
      "v": 1
    },
    {
      "midi": 68,
      "hit": false,
      "t": 35938.69601666668,
      "d": 132.07553333333635,
      "v": 1
    },
    {
      "midi": 62,
      "hit": false,
      "t": 36080.205516666676,
      "d": 132.07553333333635,
      "v": 1
    },
    {
      "midi": 69,
      "hit": false,
      "t": 36080.205516666676,
      "d": 132.07553333333635,
      "v": 1
    },
    {
      "midi": 74,
      "hit": false,
      "t": 36080.20551666668,
      "d": 132.07553333333635,
      "v": 1
    },
    {
      "midi": 61,
      "hit": false,
      "t": 36221.715016666676,
      "d": 132.07553333333635,
      "v": 1
    },
    {
      "midi": 68,
      "hit": false,
      "t": 36221.715016666676,
      "d": 132.07553333333635,
      "v": 1
    },
    {
      "midi": 73,
      "hit": false,
      "t": 36221.71501666668,
      "d": 132.07553333333635,
      "v": 1
    },
    {
      "midi": 32,
      "hit": false,
      "t": 36221.71501666668,
      "d": 2254.718033333338,
      "v": 1
    },
    {
      "midi": 37,
      "hit": false,
      "t": 36221.71501666668,
      "d": 2254.718033333338,
      "v": 1
    },
    {
      "midi": 41,
      "hit": false,
      "t": 36221.71501666668,
      "d": 2254.718033333338,
      "v": 1
    },
    {
      "midi": 62,
      "hit": false,
      "t": 36363.224516666676,
      "d": 273.58503333333647,
      "v": 1
    },
    {
      "midi": 68,
      "hit": false,
      "t": 36363.224516666676,
      "d": 273.58503333333647,
      "v": 1
    },
    {
      "midi": 74,
      "hit": false,
      "t": 36363.22451666668,
      "d": 132.07553333333635,
      "v": 1
    },
    {
      "midi": 61,
      "hit": false,
      "t": 36646.24351666668,
      "d": 273.58503333333647,
      "v": 1
    },
    {
      "midi": 68,
      "hit": false,
      "t": 36646.24351666668,
      "d": 273.58503333333647,
      "v": 1
    },
    {
      "midi": 73,
      "hit": false,
      "t": 36646.243516666684,
      "d": 132.07553333333635,
      "v": 1
    },
    {
      "midi": 62,
      "hit": false,
      "t": 36929.26251666668,
      "d": 273.58503333333647,
      "v": 1
    },
    {
      "midi": 68,
      "hit": false,
      "t": 36929.26251666668,
      "d": 273.58503333333647,
      "v": 1
    },
    {
      "midi": 74,
      "hit": false,
      "t": 36929.262516666684,
      "d": 132.07553333333635,
      "v": 1
    },
    {
      "midi": 61,
      "hit": false,
      "t": 37212.28151666668,
      "d": 273.58503333333647,
      "v": 1
    },
    {
      "midi": 68,
      "hit": false,
      "t": 37212.28151666668,
      "d": 273.58503333333647,
      "v": 1
    },
    {
      "midi": 73,
      "hit": false,
      "t": 37212.281516666684,
      "d": 132.07553333333635,
      "v": 1
    },
    {
      "midi": 62,
      "hit": false,
      "t": 37495.30051666668,
      "d": 273.58503333333647,
      "v": 1
    },
    {
      "midi": 68,
      "hit": false,
      "t": 37495.30051666668,
      "d": 273.58503333333647,
      "v": 1
    },
    {
      "midi": 74,
      "hit": false,
      "t": 37495.300516666684,
      "d": 132.07553333333635,
      "v": 1
    },
    {
      "midi": 61,
      "hit": false,
      "t": 37778.31951666668,
      "d": 132.07553333333635,
      "v": 1
    },
    {
      "midi": 68,
      "hit": false,
      "t": 37778.31951666668,
      "d": 132.07553333333635,
      "v": 1
    },
    {
      "midi": 73,
      "hit": false,
      "t": 37778.319516666685,
      "d": 132.07553333333635,
      "v": 1
    },
    {
      "midi": 64,
      "hit": false,
      "t": 37919.82901666668,
      "d": 273.58503333333647,
      "v": 1
    },
    {
      "midi": 71,
      "hit": false,
      "t": 37919.82901666668,
      "d": 273.58503333333647,
      "v": 1
    },
    {
      "midi": 76,
      "hit": false,
      "t": 37919.829016666685,
      "d": 132.07553333333635,
      "v": 1
    },
    {
      "midi": 62,
      "hit": false,
      "t": 38202.84801666668,
      "d": 273.58503333333647,
      "v": 1
    },
    {
      "midi": 69,
      "hit": false,
      "t": 38202.84801666668,
      "d": 273.58503333333647,
      "v": 1
    },
    {
      "midi": 74,
      "hit": false,
      "t": 38202.848016666685,
      "d": 132.07553333333635,
      "v": 1
    },
    {
      "midi": 61,
      "hit": false,
      "t": 38485.86701666668,
      "d": 2254.718033333331,
      "v": 1
    },
    {
      "midi": 69,
      "hit": false,
      "t": 38485.86701666668,
      "d": 2254.718033333331,
      "v": 1
    },
    {
      "midi": 73,
      "hit": false,
      "t": 38485.867016666685,
      "d": 273.58503333333647,
      "v": 1
    },
    {
      "midi": 30,
      "hit": false,
      "t": 38485.867016666685,
      "d": 2254.718033333338,
      "v": 1
    },
    {
      "midi": 33,
      "hit": false,
      "t": 38485.867016666685,
      "d": 2254.718033333338,
      "v": 1
    },
    {
      "midi": 37,
      "hit": false,
      "t": 38485.867016666685,
      "d": 2254.718033333338,
      "v": 1
    },
    {
      "midi": 30,
      "hit": false,
      "t": 40750.01901666669,
      "d": 9047.17403333333,
      "v": 1
    },
    {
      "midi": 33,
      "hit": false,
      "t": 40750.01901666669,
      "d": 9047.17403333333,
      "v": 1
    },
    {
      "midi": 37,
      "hit": false,
      "t": 40750.01901666669,
      "d": 9047.17403333333,
      "v": 1
    },
    {
      "midi": 73,
      "hit": false,
      "t": 48674.55101666668,
      "d": 1122.6420333333372,
      "v": 1
    },
    {
      "midi": 76,
      "hit": false,
      "t": 48674.55101666668,
      "d": 1122.6420333333372,
      "v": 1
    },
    {
      "midi": 73,
      "hit": false,
      "t": 48674.551016666686,
      "d": 1122.64203333333,
      "v": 1
    },
    {
      "midi": 71,
      "hit": false,
      "t": 49806.62701666668,
      "d": 1122.6420333333372,
      "v": 1
    },
    {
      "midi": 42,
      "hit": false,
      "t": 49806.62701666668,
      "d": 2254.718033333338,
      "v": 1
    },
    {
      "midi": 47,
      "hit": false,
      "t": 49806.62701666668,
      "d": 2254.718033333338,
      "v": 1
    },
    {
      "midi": 50,
      "hit": false,
      "t": 49806.62701666668,
      "d": 2254.718033333338,
      "v": 1
    },
    {
      "midi": 71,
      "hit": false,
      "t": 49806.62701666668,
      "d": 3386.7940333333318,
      "v": 1
    },
    {
      "midi": 74,
      "hit": false,
      "t": 49806.62701666668,
      "d": 3386.7940333333318,
      "v": 1
    },
    {
      "midi": 54,
      "hit": false,
      "t": 50094.363000000005,
      "d": 273.5850333333292,
      "v": 80
    },
    {
      "midi": 59,
      "hit": false,
      "t": 50103.79696666667,
      "d": 259.43408333333355,
      "v": 83
    },
    {
      "midi": 62,
      "hit": false,
      "t": 50103.79696666667,
      "d": 278.30201666666835,
      "v": 83
    },
    {
      "midi": 54,
      "hit": false,
      "t": 50500.02356666667,
      "d": 283.01900000000023,
      "v": 76
    },
    {
      "midi": 62,
      "hit": false,
      "t": 50504.74055,
      "d": 297.1699499999959,
      "v": 90
    },
    {
      "midi": 59,
      "hit": false,
      "t": 50509.457533333334,
      "d": 283.01900000000023,
      "v": 86
    },
    {
      "midi": 54,
      "hit": false,
      "t": 50915.1181,
      "d": 283.01900000000023,
      "v": 74
    },
    {
      "midi": 62,
      "hit": false,
      "t": 50915.1181,
      "d": 306.6039166666669,
      "v": 87
    },
    {
      "midi": 59,
      "hit": false,
      "t": 50919.83508333333,
      "d": 283.01900000000023,
      "v": 86
    },
    {
      "midi": 66,
      "hit": false,
      "t": 50938.70301666668,
      "d": 556.6040333333367,
      "v": 1
    },
    {
      "midi": 54,
      "hit": false,
      "t": 51320.778666666665,
      "d": 306.6039166666669,
      "v": 76
    },
    {
      "midi": 59,
      "hit": false,
      "t": 51325.49565,
      "d": 311.3208999999988,
      "v": 89
    },
    {
      "midi": 62,
      "hit": false,
      "t": 51325.49565,
      "d": 339.62279999999737,
      "v": 87
    },
    {
      "midi": 59,
      "hit": false,
      "t": 51754.74113333333,
      "d": 245.28313333333062,
      "v": 86
    },
    {
      "midi": 54,
      "hit": false,
      "t": 51754.74113333333,
      "d": 254.7170999999944,
      "v": 70
    },
    {
      "midi": 62,
      "hit": false,
      "t": 51754.74113333333,
      "d": 268.8680499999973,
      "v": 80
    },
    {
      "midi": 44,
      "hit": false,
      "t": 52070.77901666668,
      "d": 2254.718033333338,
      "v": 1
    },
    {
      "midi": 47,
      "hit": false,
      "t": 52070.77901666668,
      "d": 2254.718033333338,
      "v": 1
    },
    {
      "midi": 52,
      "hit": false,
      "t": 52070.77901666668,
      "d": 2254.718033333338,
      "v": 1
    },
    {
      "midi": 56,
      "hit": false,
      "t": 52330.21309999999,
      "d": 325.47184999999445,
      "v": 78
    },
    {
      "midi": 59,
      "hit": false,
      "t": 52334.930083333325,
      "d": 358.4907333333322,
      "v": 90
    },
    {
      "midi": 64,
      "hit": false,
      "t": 52339.64706666666,
      "d": 330.1888333333336,
      "v": 82
    },
    {
      "midi": 59,
      "hit": false,
      "t": 52797.19444999999,
      "d": 268.86804999999003,
      "v": 86
    },
    {
      "midi": 56,
      "hit": false,
      "t": 52806.62841666665,
      "d": 254.7170999999944,
      "v": 76
    },
    {
      "midi": 64,
      "hit": false,
      "t": 52811.345399999984,
      "d": 216.98123333333206,
      "v": 83
    },
    {
      "midi": 56,
      "hit": false,
      "t": 53188.70406666664,
      "d": 254.71710000000166,
      "v": 72
    },
    {
      "midi": 59,
      "hit": false,
      "t": 53188.70406666664,
      "d": 273.58503333333647,
      "v": 83
    },
    {
      "midi": 64,
      "hit": false,
      "t": 53193.421049999975,
      "d": 235.84916666666686,
      "v": 82
    },
    {
      "midi": 73,
      "hit": false,
      "t": 53202.855016666676,
      "d": 1122.64203333333,
      "v": 1
    },
    {
      "midi": 76,
      "hit": false,
      "t": 53202.855016666676,
      "d": 1122.64203333333,
      "v": 1
    },
    {
      "midi": 73,
      "hit": false,
      "t": 53202.85501666668,
      "d": 1122.6420333333372,
      "v": 1
    },
    {
      "midi": 64,
      "hit": false,
      "t": 53580.21368333331,
      "d": 278.30201666666835,
      "v": 77
    },
    {
      "midi": 56,
      "hit": false,
      "t": 53584.930666666645,
      "d": 306.6039166666669,
      "v": 72
    },
    {
      "midi": 59,
      "hit": false,
      "t": 53584.930666666645,
      "d": 339.62279999999737,
      "v": 82
    },
    {
      "midi": 64,
      "hit": false,
      "t": 54018.89313333331,
      "d": 273.5850333333292,
      "v": 79
    },
    {
      "midi": 56,
      "hit": false,
      "t": 54023.61011666664,
      "d": 245.28313333333062,
      "v": 78
    },
    {
      "midi": 59,
      "hit": false,
      "t": 54023.61011666664,
      "d": 283.01900000000023,
      "v": 83
    },
    {
      "midi": 71,
      "hit": false,
      "t": 54334.93101666667,
      "d": 3386.7940333333318,
      "v": 1
    },
    {
      "midi": 74,
      "hit": false,
      "t": 54334.93101666667,
      "d": 3386.7940333333318,
      "v": 1
    },
    {
      "midi": 71,
      "hit": false,
      "t": 54334.931016666684,
      "d": 556.6040333333367,
      "v": 1
    },
    {
      "midi": 42,
      "hit": false,
      "t": 54334.931016666684,
      "d": 2254.718033333338,
      "v": 1
    },
    {
      "midi": 47,
      "hit": false,
      "t": 54334.931016666684,
      "d": 2254.718033333338,
      "v": 1
    },
    {
      "midi": 50,
      "hit": false,
      "t": 54334.931016666684,
      "d": 2254.718033333338,
      "v": 1
    },
    {
      "midi": 54,
      "hit": false,
      "t": 54594.36509999997,
      "d": 358.4907333333322,
      "v": 74
    },
    {
      "midi": 59,
      "hit": false,
      "t": 54594.36509999997,
      "d": 377.358666666667,
      "v": 80
    },
    {
      "midi": 62,
      "hit": false,
      "t": 54603.79906666664,
      "d": 377.358666666667,
      "v": 83
    },
    {
      "midi": 54,
      "hit": false,
      "t": 55080.2143833333,
      "d": 226.41519999999582,
      "v": 74
    },
    {
      "midi": 59,
      "hit": false,
      "t": 55089.64834999997,
      "d": 240.56614999999874,
      "v": 88
    },
    {
      "midi": 62,
      "hit": false,
      "t": 55089.64834999997,
      "d": 250.0001166666625,
      "v": 90
    },
    {
      "midi": 59,
      "hit": false,
      "t": 55438.70511666663,
      "d": 273.5850333333292,
      "v": 90
    },
    {
      "midi": 54,
      "hit": false,
      "t": 55443.42209999996,
      "d": 268.8680499999973,
      "v": 76
    },
    {
      "midi": 62,
      "hit": false,
      "t": 55443.42209999996,
      "d": 283.01900000000023,
      "v": 80
    },
    {
      "midi": 54,
      "hit": false,
      "t": 55844.36568333329,
      "d": 320.75486666666984,
      "v": 74
    },
    {
      "midi": 59,
      "hit": false,
      "t": 55844.36568333329,
      "d": 339.62280000000464,
      "v": 88
    },
    {
      "midi": 62,
      "hit": false,
      "t": 55844.36568333329,
      "d": 363.20771666667133,
      "v": 83
    },
    {
      "midi": 54,
      "hit": false,
      "t": 56292.47909999997,
      "d": 250.0001166666625,
      "v": 74
    },
    {
      "midi": 59,
      "hit": false,
      "t": 56297.1960833333,
      "d": 235.84916666666686,
      "v": 90
    },
    {
      "midi": 62,
      "hit": false,
      "t": 56297.1960833333,
      "d": 273.5850333333292,
      "v": 84
    },
    {
      "midi": 44,
      "hit": false,
      "t": 56599.083016666686,
      "d": 2254.718033333338,
      "v": 1
    },
    {
      "midi": 47,
      "hit": false,
      "t": 56599.083016666686,
      "d": 2254.718033333338,
      "v": 1
    },
    {
      "midi": 52,
      "hit": false,
      "t": 56599.083016666686,
      "d": 2254.718033333338,
      "v": 1
    },
    {
      "midi": 59,
      "hit": false,
      "t": 56882.10201666663,
      "d": 367.92469999999594,
      "v": 90
    },
    {
      "midi": 56,
      "hit": false,
      "t": 56886.81899999996,
      "d": 344.33978333332925,
      "v": 78
    },
    {
      "midi": 64,
      "hit": false,
      "t": 56896.25296666662,
      "d": 316.0378833333307,
      "v": 84
    },
    {
      "midi": 59,
      "hit": false,
      "t": 57344.36638333329,
      "d": 259.43408333332627,
      "v": 86
    },
    {
      "midi": 56,
      "hit": false,
      "t": 57353.800349999954,
      "d": 245.28313333333062,
      "v": 74
    },
    {
      "midi": 64,
      "hit": false,
      "t": 57363.23431666662,
      "d": 202.8302833333364,
      "v": 82
    },
    {
      "midi": 59,
      "hit": false,
      "t": 57712.291083333286,
      "d": 316.0378833333307,
      "v": 85
    },
    {
      "midi": 56,
      "hit": false,
      "t": 57717.00806666662,
      "d": 306.6039166666669,
      "v": 69
    },
    {
      "midi": 64,
      "hit": false,
      "t": 57721.72504999995,
      "d": 287.7359833333321,
      "v": 80
    },
    {
      "midi": 71,
      "hit": false,
      "t": 57731.159016666665,
      "d": 1122.64203333333,
      "v": 1
    },
    {
      "midi": 74,
      "hit": false,
      "t": 57731.159016666665,
      "d": 1122.64203333333,
      "v": 1
    },
    {
      "midi": 71,
      "hit": false,
      "t": 57731.15901666669,
      "d": 1122.6420333333372,
      "v": 1
    },
    {
      "midi": 59,
      "hit": false,
      "t": 58132.10259999995,
      "d": 297.1699499999886,
      "v": 84
    },
    {
      "midi": 64,
      "hit": false,
      "t": 58136.81958333328,
      "d": 250.0001166666625,
      "v": 77
    },
    {
      "midi": 56,
      "hit": false,
      "t": 58141.53656666661,
      "d": 278.3020166666611,
      "v": 70
    },
    {
      "midi": 56,
      "hit": false,
      "t": 58542.48014999994,
      "d": 320.75486666666256,
      "v": 71
    },
    {
      "midi": 59,
      "hit": false,
      "t": 58542.48014999994,
      "d": 391.5096166666626,
      "v": 85
    },
    {
      "midi": 64,
      "hit": false,
      "t": 58547.19713333327,
      "d": 316.0378833333307,
      "v": 79
    },
    {
      "midi": 69,
      "hit": false,
      "t": 58863.23501666666,
      "d": 3386.7940333333318,
      "v": 1
    },
    {
      "midi": 73,
      "hit": false,
      "t": 58863.23501666666,
      "d": 3386.7940333333318,
      "v": 1
    },
    {
      "midi": 69,
      "hit": false,
      "t": 58863.23501666669,
      "d": 1122.6420333333372,
      "v": 1
    },
    {
      "midi": 45,
      "hit": false,
      "t": 58863.23501666669,
      "d": 2254.718033333338,
      "v": 1
    },
    {
      "midi": 49,
      "hit": false,
      "t": 58863.23501666669,
      "d": 2254.718033333338,
      "v": 1
    },
    {
      "midi": 52,
      "hit": false,
      "t": 58863.23501666669,
      "d": 2254.718033333338,
      "v": 1
    },
    {
      "midi": 57,
      "hit": false,
      "t": 59099.08418333327,
      "d": 358.4907333333322,
      "v": 83
    },
    {
      "midi": 64,
      "hit": false,
      "t": 59108.51814999993,
      "d": 306.6039166666669,
      "v": 82
    },
    {
      "midi": 61,
      "hit": false,
      "t": 59108.51814999993,
      "d": 325.4718500000017,
      "v": 71
    },
    {
      "midi": 64,
      "hit": false,
      "t": 59584.933466666596,
      "d": 250.0001166666625,
      "v": 77
    },
    {
      "midi": 61,
      "hit": false,
      "t": 59584.933466666596,
      "d": 264.15106666666543,
      "v": 75
    },
    {
      "midi": 57,
      "hit": false,
      "t": 59589.65044999993,
      "d": 273.58503333333647,
      "v": 81
    },
    {
      "midi": 57,
      "hit": false,
      "t": 59985.87704999993,
      "d": 283.01899999999296,
      "v": 85
    },
    {
      "midi": 61,
      "hit": false,
      "t": 59990.59403333326,
      "d": 250.0001166666625,
      "v": 89
    },
    {
      "midi": 64,
      "hit": false,
      "t": 59995.31101666669,
      "d": 556.6040333333367,
      "v": 1
    },
    {
      "midi": 64,
      "hit": false,
      "t": 60000.027999999926,
      "d": 221.69821666666394,
      "v": 81
    },
    {
      "midi": 61,
      "hit": false,
      "t": 60405.68856666659,
      "d": 292.4529666666567,
      "v": 77
    },
    {
      "midi": 57,
      "hit": false,
      "t": 60410.40554999992,
      "d": 292.4529666666567,
      "v": 80
    },
    {
      "midi": 64,
      "hit": false,
      "t": 60419.83951666659,
      "d": 268.8680499999973,
      "v": 75
    },
    {
      "midi": 64,
      "hit": false,
      "t": 60811.34913333325,
      "d": 245.28313333333062,
      "v": 82
    },
    {
      "midi": 61,
      "hit": false,
      "t": 60820.78309999991,
      "d": 273.58503333333647,
      "v": 89
    },
    {
      "midi": 57,
      "hit": false,
      "t": 60820.78309999991,
      "d": 292.4529666666713,
      "v": 89
    },
    {
      "midi": 44,
      "hit": false,
      "t": 61127.38701666669,
      "d": 2254.718033333338,
      "v": 1
    },
    {
      "midi": 47,
      "hit": false,
      "t": 61127.38701666669,
      "d": 2254.718033333338,
      "v": 1
    },
    {
      "midi": 52,
      "hit": false,
      "t": 61127.38701666669,
      "d": 2254.718033333338,
      "v": 1
    },
    {
      "midi": 59,
      "hit": false,
      "t": 61410.40601666659,
      "d": 316.03788333333796,
      "v": 90
    },
    {
      "midi": 56,
      "hit": false,
      "t": 61410.40601666659,
      "d": 320.75486666666984,
      "v": 77
    },
    {
      "midi": 64,
      "hit": false,
      "t": 61415.12299999992,
      "d": 273.58503333333647,
      "v": 82
    },
    {
      "midi": 56,
      "hit": false,
      "t": 61849.08546666659,
      "d": 250.00011666666978,
      "v": 68
    },
    {
      "midi": 59,
      "hit": false,
      "t": 61849.08546666659,
      "d": 273.58503333333647,
      "v": 86
    },
    {
      "midi": 64,
      "hit": false,
      "t": 61863.236416666594,
      "d": 221.69821666666394,
      "v": 74
    },
    {
      "midi": 56,
      "hit": false,
      "t": 62235.87809999993,
      "d": 273.5850333333292,
      "v": 70
    },
    {
      "midi": 59,
      "hit": false,
      "t": 62235.87809999993,
      "d": 297.1699499999959,
      "v": 87
    },
    {
      "midi": 64,
      "hit": false,
      "t": 62245.31206666659,
      "d": 268.8680499999973,
      "v": 79
    },
    {
      "midi": 64,
      "hit": false,
      "t": 62259.463016666654,
      "d": 400.94358333333366,
      "v": 1
    },
    {
      "midi": 68,
      "hit": false,
      "t": 62259.463016666654,
      "d": 721.6984499999962,
      "v": 1
    },
    {
      "midi": 64,
      "hit": false,
      "t": 62259.46301666669,
      "d": 273.58503333333647,
      "v": 1
    },
    {
      "midi": 56,
      "hit": false,
      "t": 62636.821683333255,
      "d": 316.0378833333307,
      "v": 69
    },
    {
      "midi": 59,
      "hit": false,
      "t": 62636.821683333255,
      "d": 334.9058166666655,
      "v": 83
    },
    {
      "midi": 64,
      "hit": false,
      "t": 62646.25564999992,
      "d": 292.452966666664,
      "v": 82
    },
    {
      "midi": 68,
      "hit": false,
      "t": 62683.99151666669,
      "d": 273.58503333333647,
      "v": 1
    },
    {
      "midi": 71,
      "hit": false,
      "t": 62967.010516666654,
      "d": 9.433966666663764,
      "v": 1
    },
    {
      "midi": 74,
      "hit": false,
      "t": 62967.010516666654,
      "d": 415.0945333333293,
      "v": 1
    },
    {
      "midi": 71,
      "hit": false,
      "t": 62967.01051666669,
      "d": 273.58503333333647,
      "v": 1
    },
    {
      "midi": 59,
      "hit": false,
      "t": 63075.50113333325,
      "d": 221.69821666666394,
      "v": 88
    },
    {
      "midi": 56,
      "hit": false,
      "t": 63075.50113333325,
      "d": 259.43408333332627,
      "v": 74
    },
    {
      "midi": 64,
      "hit": false,
      "t": 63080.21811666658,
      "d": 245.28313333333062,
      "v": 85
    },
    {
      "midi": 66,
      "hit": false,
      "t": 63391.53901666665,
      "d": 2254.718033333338,
      "v": 1
    },
    {
      "midi": 69,
      "hit": false,
      "t": 63391.53901666665,
      "d": 2254.718033333338,
      "v": 1
    },
    {
      "midi": 73,
      "hit": false,
      "t": 63391.53901666665,
      "d": 2254.718033333338,
      "v": 1
    },
    {
      "midi": 69,
      "hit": false,
      "t": 63391.53901666669,
      "d": 556.6040333333367,
      "v": 1
    },
    {
      "midi": 42,
      "hit": false,
      "t": 63391.53901666669,
      "d": 4518.87003333334,
      "v": 1
    },
    {
      "midi": 45,
      "hit": false,
      "t": 63391.53901666669,
      "d": 4518.87003333334,
      "v": 1
    },
    {
      "midi": 49,
      "hit": false,
      "t": 63391.53901666669,
      "d": 4518.87003333334,
      "v": 1
    },
    {
      "midi": 57,
      "hit": false,
      "t": 63622.67119999991,
      "d": 367.92469999999594,
      "v": 82
    },
    {
      "midi": 54,
      "hit": false,
      "t": 63627.38818333324,
      "d": 334.9058166666655,
      "v": 71
    },
    {
      "midi": 61,
      "hit": false,
      "t": 63636.822149999905,
      "d": 330.1888333333336,
      "v": 77
    },
    {
      "midi": 54,
      "hit": false,
      "t": 64099.086516666575,
      "d": 268.8680499999973,
      "v": 70
    },
    {
      "midi": 61,
      "hit": false,
      "t": 64099.086516666575,
      "d": 273.5850333333292,
      "v": 82
    },
    {
      "midi": 57,
      "hit": false,
      "t": 64099.086516666575,
      "d": 292.452966666664,
      "v": 82
    },
    {
      "midi": 57,
      "hit": false,
      "t": 64500.03009999991,
      "d": 292.452966666664,
      "v": 86
    },
    {
      "midi": 54,
      "hit": false,
      "t": 64509.46406666657,
      "d": 259.43408333333355,
      "v": 75
    },
    {
      "midi": 61,
      "hit": false,
      "t": 64509.46406666657,
      "d": 268.8680499999973,
      "v": 67
    },
    {
      "midi": 54,
      "hit": false,
      "t": 64933.99256666657,
      "d": 292.452966666664,
      "v": 78
    },
    {
      "midi": 61,
      "hit": false,
      "t": 64933.99256666657,
      "d": 297.1699499999959,
      "v": 74
    },
    {
      "midi": 57,
      "hit": false,
      "t": 64933.99256666657,
      "d": 330.18883333332633,
      "v": 85
    },
    {
      "midi": 61,
      "hit": false,
      "t": 65349.0870999999,
      "d": 264.1510666666727,
      "v": 76
    },
    {
      "midi": 54,
      "hit": false,
      "t": 65349.0870999999,
      "d": 268.8680500000046,
      "v": 81
    },
    {
      "midi": 57,
      "hit": false,
      "t": 65349.0870999999,
      "d": 283.01900000000023,
      "v": 90
    },
    {
      "midi": 57,
      "hit": false,
      "t": 65910.40811666657,
      "d": 367.9247000000032,
      "v": 83
    },
    {
      "midi": 54,
      "hit": false,
      "t": 65915.1250999999,
      "d": 320.75486666666984,
      "v": 74
    },
    {
      "midi": 61,
      "hit": false,
      "t": 65915.1250999999,
      "d": 349.0567666666757,
      "v": 64
    },
    {
      "midi": 61,
      "hit": false,
      "t": 66377.38946666657,
      "d": 273.5850333333219,
      "v": 70
    },
    {
      "midi": 57,
      "hit": false,
      "t": 66377.38946666657,
      "d": 292.45296666664944,
      "v": 79
    },
    {
      "midi": 54,
      "hit": false,
      "t": 66382.1064499999,
      "d": 259.43408333332627,
      "v": 74
    },
    {
      "midi": 61,
      "hit": false,
      "t": 66773.61606666655,
      "d": 287.73598333331756,
      "v": 70
    },
    {
      "midi": 57,
      "hit": false,
      "t": 66773.61606666655,
      "d": 292.45296666664944,
      "v": 79
    },
    {
      "midi": 54,
      "hit": false,
      "t": 66778.33304999988,
      "d": 259.43408333332627,
      "v": 67
    },
    {
      "midi": 57,
      "hit": false,
      "t": 67179.2766333332,
      "d": 344.33978333332925,
      "v": 86
    },
    {
      "midi": 54,
      "hit": false,
      "t": 67188.71059999986,
      "d": 292.452966666664,
      "v": 78
    },
    {
      "midi": 61,
      "hit": false,
      "t": 67188.71059999986,
      "d": 325.4718500000017,
      "v": 74
    },
    {
      "midi": 64,
      "hit": false,
      "t": 67353.80501666665,
      "d": 556.6040333333367,
      "v": 1
    },
    {
      "midi": 69,
      "hit": false,
      "t": 67353.80501666665,
      "d": 556.6040333333367,
      "v": 1
    },
    {
      "midi": 69,
      "hit": false,
      "t": 67353.8050166667,
      "d": 556.6040333333367,
      "v": 1
    },
    {
      "midi": 57,
      "hit": false,
      "t": 67627.39004999986,
      "d": 202.83028333332913,
      "v": 86
    },
    {
      "midi": 61,
      "hit": false,
      "t": 67627.39004999986,
      "d": 264.15106666665815,
      "v": 77
    },
    {
      "midi": 54,
      "hit": false,
      "t": 67636.82401666652,
      "d": 259.43408333332627,
      "v": 80
    },
    {
      "midi": 62,
      "hit": false,
      "t": 67919.84301666665,
      "d": 839.6230333333369,
      "v": 1
    },
    {
      "midi": 66,
      "hit": false,
      "t": 67919.84301666665,
      "d": 839.6230333333369,
      "v": 1
    },
    {
      "midi": 66,
      "hit": false,
      "t": 67919.8430166667,
      "d": 273.58503333333647,
      "v": 1
    },
    {
      "midi": 42,
      "hit": false,
      "t": 67919.8430166667,
      "d": 1122.6420333333372,
      "v": 1
    },
    {
      "midi": 47,
      "hit": false,
      "t": 67919.8430166667,
      "d": 1122.6420333333372,
      "v": 1
    },
    {
      "midi": 50,
      "hit": false,
      "t": 67919.8430166667,
      "d": 1122.6420333333372,
      "v": 1
    },
    {
      "midi": 54,
      "hit": false,
      "t": 68160.40916666652,
      "d": 353.773749999993,
      "v": 77
    },
    {
      "midi": 59,
      "hit": false,
      "t": 68165.12614999985,
      "d": 363.2077166666568,
      "v": 94
    },
    {
      "midi": 62,
      "hit": false,
      "t": 68169.84313333318,
      "d": 382.0756499999843,
      "v": 85
    },
    {
      "midi": 66,
      "hit": false,
      "t": 68202.8620166667,
      "d": 556.6040333333367,
      "v": 1
    },
    {
      "midi": 54,
      "hit": false,
      "t": 68650.97543333317,
      "d": 245.28313333333062,
      "v": 67
    },
    {
      "midi": 59,
      "hit": false,
      "t": 68655.6924166665,
      "d": 297.1699499999959,
      "v": 88
    },
    {
      "midi": 62,
      "hit": false,
      "t": 68660.40939999983,
      "d": 297.1699499999959,
      "v": 83
    },
    {
      "midi": 62,
      "hit": false,
      "t": 68768.90001666665,
      "d": 273.58503333333647,
      "v": 1
    },
    {
      "midi": 69,
      "hit": false,
      "t": 68768.90001666665,
      "d": 273.58503333333647,
      "v": 1
    },
    {
      "midi": 69,
      "hit": false,
      "t": 68768.9000166667,
      "d": 273.58503333333647,
      "v": 1
    },
    {
      "midi": 59,
      "hit": false,
      "t": 69042.48504999983,
      "d": 301.8869333333132,
      "v": 86
    },
    {
      "midi": 64,
      "hit": false,
      "t": 69051.91901666649,
      "d": 250.0001166666625,
      "v": 83
    },
    {
      "midi": 56,
      "hit": false,
      "t": 69051.91901666649,
      "d": 268.86804999999003,
      "v": 68
    },
    {
      "midi": 62,
      "hit": false,
      "t": 69051.91901666665,
      "d": 273.58503333333647,
      "v": 1
    },
    {
      "midi": 68,
      "hit": false,
      "t": 69051.91901666665,
      "d": 273.58503333333647,
      "v": 1
    },
    {
      "midi": 68,
      "hit": false,
      "t": 69051.9190166667,
      "d": 273.58503333333647,
      "v": 1
    },
    {
      "midi": 44,
      "hit": false,
      "t": 69051.9190166667,
      "d": 1122.6420333333372,
      "v": 1
    },
    {
      "midi": 47,
      "hit": false,
      "t": 69051.9190166667,
      "d": 1122.6420333333372,
      "v": 1
    },
    {
      "midi": 52,
      "hit": false,
      "t": 69051.9190166667,
      "d": 1122.6420333333372,
      "v": 1
    },
    {
      "midi": 62,
      "hit": false,
      "t": 69334.93801666665,
      "d": 273.58503333333647,
      "v": 1
    },
    {
      "midi": 69,
      "hit": false,
      "t": 69334.93801666665,
      "d": 273.58503333333647,
      "v": 1
    },
    {
      "midi": 69,
      "hit": false,
      "t": 69334.9380166667,
      "d": 273.58503333333647,
      "v": 1
    },
    {
      "midi": 56,
      "hit": false,
      "t": 69452.8625999998,
      "d": 292.45296666664944,
      "v": 72
    },
    {
      "midi": 59,
      "hit": false,
      "t": 69457.57958333314,
      "d": 311.320899999977,
      "v": 83
    },
    {
      "midi": 64,
      "hit": false,
      "t": 69462.29656666647,
      "d": 259.43408333332627,
      "v": 79
    },
    {
      "midi": 62,
      "hit": false,
      "t": 69617.95701666665,
      "d": 273.58503333333647,
      "v": 1
    },
    {
      "midi": 71,
      "hit": false,
      "t": 69617.95701666665,
      "d": 273.58503333333647,
      "v": 1
    },
    {
      "midi": 71,
      "hit": false,
      "t": 69617.9570166667,
      "d": 273.58503333333647,
      "v": 1
    },
    {
      "midi": 64,
      "hit": false,
      "t": 69877.39109999978,
      "d": 316.03788333333796,
      "v": 83
    },
    {
      "midi": 56,
      "hit": false,
      "t": 69877.39109999978,
      "d": 330.1888333333336,
      "v": 77
    },
    {
      "midi": 59,
      "hit": false,
      "t": 69877.39109999978,
      "d": 410.3775500000047,
      "v": 89
    },
    {
      "midi": 61,
      "hit": false,
      "t": 69900.97601666665,
      "d": 1971.6990333333379,
      "v": 1
    },
    {
      "midi": 69,
      "hit": false,
      "t": 69900.97601666665,
      "d": 1971.6990333333379,
      "v": 1
    },
    {
      "midi": 69,
      "hit": false,
      "t": 69900.9760166667,
      "d": 556.6040333333367,
      "v": 1
    },
    {
      "midi": 45,
      "hit": false,
      "t": 70183.9950166667,
      "d": 2254.718033333338,
      "v": 1
    },
    {
      "midi": 49,
      "hit": false,
      "t": 70183.9950166667,
      "d": 2254.718033333338,
      "v": 1
    },
    {
      "midi": 52,
      "hit": false,
      "t": 70183.9950166667,
      "d": 2254.718033333338,
      "v": 1
    },
    {
      "midi": 57,
      "hit": false,
      "t": 70429.27814999978,
      "d": 344.33978333332925,
      "v": 85
    },
    {
      "midi": 61,
      "hit": false,
      "t": 70429.27814999978,
      "d": 344.33978333332925,
      "v": 73
    },
    {
      "midi": 64,
      "hit": false,
      "t": 70438.71211666644,
      "d": 297.1699499999959,
      "v": 79
    },
    {
      "midi": 61,
      "hit": false,
      "t": 70915.12743333311,
      "d": 264.1510666666727,
      "v": 74
    },
    {
      "midi": 57,
      "hit": false,
      "t": 70915.12743333311,
      "d": 268.8680500000046,
      "v": 83
    },
    {
      "midi": 64,
      "hit": false,
      "t": 70919.84441666644,
      "d": 231.13218333333498,
      "v": 77
    },
    {
      "midi": 61,
      "hit": false,
      "t": 71316.07101666645,
      "d": 268.86804999999003,
      "v": 82
    },
    {
      "midi": 57,
      "hit": false,
      "t": 71316.07101666645,
      "d": 278.3020166666538,
      "v": 79
    },
    {
      "midi": 64,
      "hit": false,
      "t": 71330.22196666645,
      "d": 235.84916666666686,
      "v": 77
    },
    {
      "midi": 61,
      "hit": false,
      "t": 71712.29761666643,
      "d": 287.7359833333321,
      "v": 74
    },
    {
      "midi": 64,
      "hit": false,
      "t": 71717.01459999976,
      "d": 273.58503333333647,
      "v": 77
    },
    {
      "midi": 57,
      "hit": false,
      "t": 71721.7315833331,
      "d": 292.452966666664,
      "v": 81
    },
    {
      "midi": 61,
      "hit": false,
      "t": 71882.10901666665,
      "d": 556.6040333333367,
      "v": 1
    },
    {
      "midi": 69,
      "hit": false,
      "t": 71882.10901666665,
      "d": 556.6040333333367,
      "v": 1
    },
    {
      "midi": 69,
      "hit": false,
      "t": 71882.1090166667,
      "d": 556.6040333333367,
      "v": 1
    },
    {
      "midi": 57,
      "hit": false,
      "t": 72132.10913333308,
      "d": 316.0378833333234,
      "v": 90
    },
    {
      "midi": 64,
      "hit": false,
      "t": 72132.10913333308,
      "d": 325.47184999998717,
      "v": 80
    },
    {
      "midi": 61,
      "hit": false,
      "t": 72141.54309999975,
      "d": 316.0378833333234,
      "v": 86
    },
    {
      "midi": 62,
      "hit": false,
      "t": 72448.14701666665,
      "d": 839.6230333333369,
      "v": 1
    },
    {
      "midi": 66,
      "hit": false,
      "t": 72448.14701666665,
      "d": 839.6230333333369,
      "v": 1
    },
    {
      "midi": 66,
      "hit": false,
      "t": 72448.1470166667,
      "d": 556.6040333333367,
      "v": 1
    },
    {
      "midi": 42,
      "hit": false,
      "t": 72448.1470166667,
      "d": 1122.6420333333372,
      "v": 1
    },
    {
      "midi": 47,
      "hit": false,
      "t": 72448.1470166667,
      "d": 1122.6420333333372,
      "v": 1
    },
    {
      "midi": 50,
      "hit": false,
      "t": 72448.1470166667,
      "d": 1122.6420333333372,
      "v": 1
    },
    {
      "midi": 59,
      "hit": false,
      "t": 72688.7131666664,
      "d": 367.92469999998866,
      "v": 89
    },
    {
      "midi": 62,
      "hit": false,
      "t": 72693.43014999974,
      "d": 382.0756499999843,
      "v": 82
    },
    {
      "midi": 54,
      "hit": false,
      "t": 72702.8641166664,
      "d": 344.33978333332925,
      "v": 75
    },
    {
      "midi": 54,
      "hit": false,
      "t": 73174.56244999972,
      "d": 250.0001166666625,
      "v": 74
    },
    {
      "midi": 59,
      "hit": false,
      "t": 73179.27943333305,
      "d": 268.86804999999003,
      "v": 90
    },
    {
      "midi": 62,
      "hit": false,
      "t": 73183.99641666638,
      "d": 283.0189999999857,
      "v": 83
    },
    {
      "midi": 62,
      "hit": false,
      "t": 73297.20401666666,
      "d": 273.58503333333647,
      "v": 1
    },
    {
      "midi": 69,
      "hit": false,
      "t": 73297.20401666666,
      "d": 273.58503333333647,
      "v": 1
    },
    {
      "midi": 69,
      "hit": false,
      "t": 73297.2040166667,
      "d": 273.58503333333647,
      "v": 1
    },
    {
      "midi": 56,
      "hit": false,
      "t": 73566.07206666637,
      "d": 254.7170999999944,
      "v": 75
    },
    {
      "midi": 59,
      "hit": false,
      "t": 73566.07206666637,
      "d": 283.01900000000023,
      "v": 92
    },
    {
      "midi": 62,
      "hit": false,
      "t": 73580.22301666666,
      "d": 273.58503333333647,
      "v": 1
    },
    {
      "midi": 68,
      "hit": false,
      "t": 73580.22301666666,
      "d": 273.58503333333647,
      "v": 1
    },
    {
      "midi": 68,
      "hit": false,
      "t": 73580.2230166667,
      "d": 273.58503333333647,
      "v": 1
    },
    {
      "midi": 44,
      "hit": false,
      "t": 73580.2230166667,
      "d": 1688.6800333333376,
      "v": 1
    },
    {
      "midi": 47,
      "hit": false,
      "t": 73580.2230166667,
      "d": 1688.6800333333376,
      "v": 1
    },
    {
      "midi": 52,
      "hit": false,
      "t": 73580.2230166667,
      "d": 1688.6800333333376,
      "v": 1
    },
    {
      "midi": 64,
      "hit": false,
      "t": 73589.65698333303,
      "d": 221.69821666667121,
      "v": 83
    },
    {
      "midi": 62,
      "hit": false,
      "t": 73863.24201666666,
      "d": 273.58503333333647,
      "v": 1
    },
    {
      "midi": 69,
      "hit": false,
      "t": 73863.24201666666,
      "d": 273.58503333333647,
      "v": 1
    },
    {
      "midi": 69,
      "hit": false,
      "t": 73863.2420166667,
      "d": 273.58503333333647,
      "v": 1
    },
    {
      "midi": 56,
      "hit": false,
      "t": 73981.1665999997,
      "d": 316.0378833333234,
      "v": 80
    },
    {
      "midi": 59,
      "hit": false,
      "t": 73981.1665999997,
      "d": 334.90581666665094,
      "v": 86
    },
    {
      "midi": 64,
      "hit": false,
      "t": 73985.88358333304,
      "d": 297.1699499999959,
      "v": 83
    },
    {
      "midi": 62,
      "hit": false,
      "t": 74146.26101666666,
      "d": 273.58503333333647,
      "v": 1
    },
    {
      "midi": 71,
      "hit": false,
      "t": 74146.26101666666,
      "d": 273.58503333333647,
      "v": 1
    },
    {
      "midi": 71,
      "hit": false,
      "t": 74146.2610166667,
      "d": 273.58503333333647,
      "v": 1
    },
    {
      "midi": 64,
      "hit": false,
      "t": 74391.5441499997,
      "d": 235.8491666666523,
      "v": 86
    },
    {
      "midi": 59,
      "hit": false,
      "t": 74391.5441499997,
      "d": 245.28313333331607,
      "v": 87
    },
    {
      "midi": 56,
      "hit": false,
      "t": 74396.26113333303,
      "d": 212.2642499999929,
      "v": 81
    },
    {
      "midi": 61,
      "hit": false,
      "t": 74429.28001666666,
      "d": 2537.7370333333383,
      "v": 1
    },
    {
      "midi": 69,
      "hit": false,
      "t": 74429.28001666666,
      "d": 2537.7370333333383,
      "v": 1
    },
    {
      "midi": 69,
      "hit": false,
      "t": 74429.2800166667,
      "d": 556.6040333333367,
      "v": 1
    },
    {
      "midi": 64,
      "hit": false,
      "t": 74707.582033333,
      "d": 273.58503333333647,
      "v": 86
    },
    {
      "midi": 59,
      "hit": false,
      "t": 74712.29901666634,
      "d": 141.50950000000012,
      "v": 89
    },
    {
      "midi": 56,
      "hit": false,
      "t": 74721.732983333,
      "d": 174.52838333333784,
      "v": 76
    },
    {
      "midi": 57,
      "hit": false,
      "t": 75240.60114999967,
      "d": 1726.4158999999927,
      "v": 99
    },
    {
      "midi": 66,
      "hit": false,
      "t": 75240.60114999967,
      "d": 1726.4158999999927,
      "v": 87
    },
    {
      "midi": 61,
      "hit": false,
      "t": 75245.318133333,
      "d": 1721.6989166666608,
      "v": 87
    },
    {
      "midi": 42,
      "hit": false,
      "t": 75278.3370166667,
      "d": 1688.6800333333376,
      "v": 1
    },
    {
      "midi": 45,
      "hit": false,
      "t": 75278.3370166667,
      "d": 1688.6800333333376,
      "v": 1
    },
    {
      "midi": 49,
      "hit": false,
      "t": 75278.3370166667,
      "d": 1688.6800333333376,
      "v": 1
    },
    {
      "midi": 73,
      "hit": false,
      "t": 75844.37501666666,
      "d": 1122.6420333333372,
      "v": 1
    },
    {
      "midi": 76,
      "hit": false,
      "t": 75844.37501666666,
      "d": 1122.6420333333372,
      "v": 1
    },
    {
      "midi": 73,
      "hit": false,
      "t": 75844.3750166667,
      "d": 1122.6420333333372,
      "v": 1
    },
    {
      "midi": 71,
      "hit": false,
      "t": 76976.45101666666,
      "d": 3386.794033333339,
      "v": 1
    },
    {
      "midi": 74,
      "hit": false,
      "t": 76976.45101666666,
      "d": 3386.794033333339,
      "v": 1
    },
    {
      "midi": 71,
      "hit": false,
      "t": 76976.4510166667,
      "d": 1122.6420333333372,
      "v": 1
    },
    {
      "midi": 42,
      "hit": false,
      "t": 76976.4510166667,
      "d": 2254.718033333338,
      "v": 1
    },
    {
      "midi": 47,
      "hit": false,
      "t": 76976.4510166667,
      "d": 2254.718033333338,
      "v": 1
    },
    {
      "midi": 50,
      "hit": false,
      "t": 76976.4510166667,
      "d": 2254.718033333338,
      "v": 1
    },
    {
      "midi": 54,
      "hit": false,
      "t": 77264.18699999966,
      "d": 273.5850333333219,
      "v": 80
    },
    {
      "midi": 59,
      "hit": false,
      "t": 77273.62096666632,
      "d": 259.43408333332627,
      "v": 83
    },
    {
      "midi": 62,
      "hit": false,
      "t": 77273.62096666632,
      "d": 278.3020166666538,
      "v": 83
    },
    {
      "midi": 54,
      "hit": false,
      "t": 77669.8475666663,
      "d": 283.01900000000023,
      "v": 76
    },
    {
      "midi": 62,
      "hit": false,
      "t": 77674.56454999963,
      "d": 297.1699499999959,
      "v": 90
    },
    {
      "midi": 59,
      "hit": false,
      "t": 77679.28153333296,
      "d": 283.01900000000023,
      "v": 86
    },
    {
      "midi": 54,
      "hit": false,
      "t": 78084.94209999962,
      "d": 283.01900000000023,
      "v": 74
    },
    {
      "midi": 62,
      "hit": false,
      "t": 78084.94209999962,
      "d": 306.60391666665964,
      "v": 87
    },
    {
      "midi": 59,
      "hit": false,
      "t": 78089.65908333295,
      "d": 283.01900000000023,
      "v": 86
    },
    {
      "midi": 66,
      "hit": false,
      "t": 78108.5270166667,
      "d": 556.6040333333367,
      "v": 1
    },
    {
      "midi": 54,
      "hit": false,
      "t": 78490.60266666628,
      "d": 306.60391666665964,
      "v": 76
    },
    {
      "midi": 59,
      "hit": false,
      "t": 78495.31964999961,
      "d": 311.3208999999915,
      "v": 89
    },
    {
      "midi": 62,
      "hit": false,
      "t": 78495.31964999961,
      "d": 339.62279999999737,
      "v": 87
    },
    {
      "midi": 59,
      "hit": false,
      "t": 78924.56513333294,
      "d": 245.28313333333062,
      "v": 86
    },
    {
      "midi": 54,
      "hit": false,
      "t": 78924.56513333294,
      "d": 254.7170999999944,
      "v": 70
    },
    {
      "midi": 62,
      "hit": false,
      "t": 78924.56513333294,
      "d": 268.86804999999003,
      "v": 80
    },
    {
      "midi": 44,
      "hit": false,
      "t": 79240.6030166667,
      "d": 2254.718033333338,
      "v": 1
    },
    {
      "midi": 47,
      "hit": false,
      "t": 79240.6030166667,
      "d": 2254.718033333338,
      "v": 1
    },
    {
      "midi": 52,
      "hit": false,
      "t": 79240.6030166667,
      "d": 2254.718033333338,
      "v": 1
    },
    {
      "midi": 56,
      "hit": false,
      "t": 79500.0370999996,
      "d": 325.4718500000017,
      "v": 78
    },
    {
      "midi": 59,
      "hit": false,
      "t": 79504.75408333293,
      "d": 358.4907333333249,
      "v": 90
    },
    {
      "midi": 64,
      "hit": false,
      "t": 79509.47106666626,
      "d": 330.1888333333336,
      "v": 82
    },
    {
      "midi": 59,
      "hit": false,
      "t": 79967.01844999958,
      "d": 268.8680500000046,
      "v": 86
    },
    {
      "midi": 56,
      "hit": false,
      "t": 79976.45241666624,
      "d": 254.71710000000894,
      "v": 76
    },
    {
      "midi": 64,
      "hit": false,
      "t": 79981.16939999958,
      "d": 216.98123333333933,
      "v": 83
    },
    {
      "midi": 56,
      "hit": false,
      "t": 80358.52806666626,
      "d": 254.7170999999944,
      "v": 72
    },
    {
      "midi": 59,
      "hit": false,
      "t": 80358.52806666626,
      "d": 273.5850333333219,
      "v": 83
    },
    {
      "midi": 64,
      "hit": false,
      "t": 80363.24504999959,
      "d": 235.84916666666686,
      "v": 82
    },
    {
      "midi": 73,
      "hit": false,
      "t": 80372.67901666666,
      "d": 1122.6420333333372,
      "v": 1
    },
    {
      "midi": 76,
      "hit": false,
      "t": 80372.67901666666,
      "d": 1122.6420333333372,
      "v": 1
    },
    {
      "midi": 73,
      "hit": false,
      "t": 80372.6790166667,
      "d": 1122.6420333333372,
      "v": 1
    },
    {
      "midi": 64,
      "hit": false,
      "t": 80750.0376833329,
      "d": 278.30201666666835,
      "v": 77
    },
    {
      "midi": 56,
      "hit": false,
      "t": 80754.75466666624,
      "d": 306.6039166666742,
      "v": 72
    },
    {
      "midi": 59,
      "hit": false,
      "t": 80754.75466666624,
      "d": 339.6228000000119,
      "v": 82
    },
    {
      "midi": 64,
      "hit": false,
      "t": 81188.71713333292,
      "d": 273.5850333333219,
      "v": 79
    },
    {
      "midi": 56,
      "hit": false,
      "t": 81193.43411666625,
      "d": 245.28313333333062,
      "v": 78
    },
    {
      "midi": 59,
      "hit": false,
      "t": 81193.43411666625,
      "d": 283.0189999999857,
      "v": 83
    },
    {
      "midi": 71,
      "hit": false,
      "t": 81504.75501666666,
      "d": 3386.794033333339,
      "v": 1
    },
    {
      "midi": 74,
      "hit": false,
      "t": 81504.75501666666,
      "d": 3386.794033333339,
      "v": 1
    },
    {
      "midi": 71,
      "hit": false,
      "t": 81504.7550166667,
      "d": 556.6040333333367,
      "v": 1
    },
    {
      "midi": 42,
      "hit": false,
      "t": 81504.7550166667,
      "d": 2254.718033333338,
      "v": 1
    },
    {
      "midi": 47,
      "hit": false,
      "t": 81504.7550166667,
      "d": 2254.718033333338,
      "v": 1
    },
    {
      "midi": 50,
      "hit": false,
      "t": 81504.7550166667,
      "d": 2254.718033333338,
      "v": 1
    },
    {
      "midi": 54,
      "hit": false,
      "t": 81764.18909999957,
      "d": 358.4907333333249,
      "v": 74
    },
    {
      "midi": 59,
      "hit": false,
      "t": 81764.18909999957,
      "d": 377.3586666666524,
      "v": 80
    },
    {
      "midi": 62,
      "hit": false,
      "t": 81773.62306666623,
      "d": 377.3586666666524,
      "v": 83
    },
    {
      "midi": 54,
      "hit": false,
      "t": 82250.03838333288,
      "d": 226.4152000000031,
      "v": 74
    },
    {
      "midi": 59,
      "hit": false,
      "t": 82259.47234999955,
      "d": 240.56614999999874,
      "v": 88
    },
    {
      "midi": 62,
      "hit": false,
      "t": 82259.47234999955,
      "d": 250.0001166666625,
      "v": 90
    },
    {
      "midi": 59,
      "hit": false,
      "t": 82608.5291166662,
      "d": 273.58503333333647,
      "v": 90
    },
    {
      "midi": 54,
      "hit": false,
      "t": 82613.24609999954,
      "d": 268.8680500000046,
      "v": 76
    },
    {
      "midi": 62,
      "hit": false,
      "t": 82613.24609999954,
      "d": 283.01900000000023,
      "v": 80
    },
    {
      "midi": 54,
      "hit": false,
      "t": 83014.18968333286,
      "d": 320.75486666666984,
      "v": 74
    },
    {
      "midi": 59,
      "hit": false,
      "t": 83014.18968333286,
      "d": 339.62279999999737,
      "v": 88
    },
    {
      "midi": 62,
      "hit": false,
      "t": 83014.18968333286,
      "d": 363.2077166666568,
      "v": 83
    },
    {
      "midi": 54,
      "hit": false,
      "t": 83462.30309999952,
      "d": 250.0001166666625,
      "v": 74
    },
    {
      "midi": 59,
      "hit": false,
      "t": 83467.02008333286,
      "d": 235.84916666666686,
      "v": 90
    },
    {
      "midi": 62,
      "hit": false,
      "t": 83467.02008333286,
      "d": 273.58503333333647,
      "v": 84
    },
    {
      "midi": 44,
      "hit": false,
      "t": 83768.90701666671,
      "d": 2254.718033333338,
      "v": 1
    },
    {
      "midi": 47,
      "hit": false,
      "t": 83768.90701666671,
      "d": 2254.718033333338,
      "v": 1
    },
    {
      "midi": 52,
      "hit": false,
      "t": 83768.90701666671,
      "d": 2254.718033333338,
      "v": 1
    },
    {
      "midi": 59,
      "hit": false,
      "t": 84051.9260166662,
      "d": 367.92469999998866,
      "v": 90
    },
    {
      "midi": 56,
      "hit": false,
      "t": 84056.64299999953,
      "d": 344.33978333332925,
      "v": 78
    },
    {
      "midi": 64,
      "hit": false,
      "t": 84066.0769666662,
      "d": 316.03788333333796,
      "v": 84
    },
    {
      "midi": 59,
      "hit": false,
      "t": 84514.19038333285,
      "d": 259.43408333332627,
      "v": 86
    },
    {
      "midi": 56,
      "hit": false,
      "t": 84523.62434999952,
      "d": 245.28313333333062,
      "v": 74
    },
    {
      "midi": 64,
      "hit": false,
      "t": 84533.05831666618,
      "d": 202.83028333332913,
      "v": 82
    },
    {
      "midi": 59,
      "hit": false,
      "t": 84882.11508333284,
      "d": 316.0378833333234,
      "v": 85
    },
    {
      "midi": 56,
      "hit": false,
      "t": 84886.83206666617,
      "d": 306.60391666665964,
      "v": 69
    },
    {
      "midi": 64,
      "hit": false,
      "t": 84891.5490499995,
      "d": 287.7359833333321,
      "v": 80
    },
    {
      "midi": 71,
      "hit": false,
      "t": 84900.98301666667,
      "d": 1122.6420333333372,
      "v": 1
    },
    {
      "midi": 74,
      "hit": false,
      "t": 84900.98301666667,
      "d": 1122.6420333333372,
      "v": 1
    },
    {
      "midi": 71,
      "hit": false,
      "t": 84900.98301666671,
      "d": 1122.6420333333372,
      "v": 1
    },
    {
      "midi": 59,
      "hit": false,
      "t": 85301.9265999995,
      "d": 297.1699499999959,
      "v": 84
    },
    {
      "midi": 64,
      "hit": false,
      "t": 85306.64358333283,
      "d": 250.0001166666625,
      "v": 77
    },
    {
      "midi": 56,
      "hit": false,
      "t": 85311.36056666616,
      "d": 278.30201666666835,
      "v": 70
    },
    {
      "midi": 56,
      "hit": false,
      "t": 85712.30414999949,
      "d": 320.75486666666984,
      "v": 71
    },
    {
      "midi": 59,
      "hit": false,
      "t": 85712.30414999949,
      "d": 391.5096166666626,
      "v": 85
    },
    {
      "midi": 64,
      "hit": false,
      "t": 85717.02113333282,
      "d": 316.03788333333796,
      "v": 79
    },
    {
      "midi": 69,
      "hit": false,
      "t": 86033.05901666667,
      "d": 3386.794033333339,
      "v": 1
    },
    {
      "midi": 73,
      "hit": false,
      "t": 86033.05901666667,
      "d": 3386.794033333339,
      "v": 1
    },
    {
      "midi": 69,
      "hit": false,
      "t": 86033.05901666671,
      "d": 1122.6420333333372,
      "v": 1
    },
    {
      "midi": 45,
      "hit": false,
      "t": 86033.05901666671,
      "d": 2254.718033333338,
      "v": 1
    },
    {
      "midi": 49,
      "hit": false,
      "t": 86033.05901666671,
      "d": 2254.718033333338,
      "v": 1
    },
    {
      "midi": 52,
      "hit": false,
      "t": 86033.05901666671,
      "d": 2254.718033333338,
      "v": 1
    },
    {
      "midi": 57,
      "hit": false,
      "t": 86268.90818333281,
      "d": 358.49073333331035,
      "v": 83
    },
    {
      "midi": 64,
      "hit": false,
      "t": 86278.34214999947,
      "d": 306.60391666665964,
      "v": 82
    },
    {
      "midi": 61,
      "hit": false,
      "t": 86278.34214999947,
      "d": 325.47184999998717,
      "v": 71
    },
    {
      "midi": 64,
      "hit": false,
      "t": 86754.75746666612,
      "d": 250.0001166666625,
      "v": 77
    },
    {
      "midi": 61,
      "hit": false,
      "t": 86754.75746666612,
      "d": 264.15106666665815,
      "v": 75
    },
    {
      "midi": 57,
      "hit": false,
      "t": 86759.47444999946,
      "d": 273.5850333333219,
      "v": 81
    },
    {
      "midi": 57,
      "hit": false,
      "t": 87155.70104999945,
      "d": 283.01900000000023,
      "v": 85
    },
    {
      "midi": 61,
      "hit": false,
      "t": 87160.41803333278,
      "d": 250.0001166666625,
      "v": 89
    },
    {
      "midi": 64,
      "hit": false,
      "t": 87165.13501666671,
      "d": 556.6040333333367,
      "v": 1
    },
    {
      "midi": 64,
      "hit": false,
      "t": 87169.85199999945,
      "d": 221.69821666667121,
      "v": 81
    },
    {
      "midi": 61,
      "hit": false,
      "t": 87575.51256666612,
      "d": 292.452966666664,
      "v": 77
    },
    {
      "midi": 57,
      "hit": false,
      "t": 87580.22954999945,
      "d": 292.452966666664,
      "v": 80
    },
    {
      "midi": 64,
      "hit": false,
      "t": 87589.66351666611,
      "d": 268.8680500000046,
      "v": 75
    },
    {
      "midi": 64,
      "hit": false,
      "t": 87981.17313333278,
      "d": 245.28313333333062,
      "v": 82
    },
    {
      "midi": 61,
      "hit": false,
      "t": 87990.60709999944,
      "d": 273.58503333333647,
      "v": 89
    },
    {
      "midi": 57,
      "hit": false,
      "t": 87990.60709999944,
      "d": 292.452966666664,
      "v": 89
    },
    {
      "midi": 44,
      "hit": false,
      "t": 88297.21101666671,
      "d": 2254.718033333338,
      "v": 1
    },
    {
      "midi": 47,
      "hit": false,
      "t": 88297.21101666671,
      "d": 2254.718033333338,
      "v": 1
    },
    {
      "midi": 52,
      "hit": false,
      "t": 88297.21101666671,
      "d": 2254.718033333338,
      "v": 1
    },
    {
      "midi": 59,
      "hit": false,
      "t": 88580.2300166661,
      "d": 316.03788333333796,
      "v": 90
    },
    {
      "midi": 56,
      "hit": false,
      "t": 88580.2300166661,
      "d": 320.75486666666984,
      "v": 77
    },
    {
      "midi": 64,
      "hit": false,
      "t": 88584.94699999943,
      "d": 273.58503333333647,
      "v": 82
    },
    {
      "midi": 56,
      "hit": false,
      "t": 89018.9094666661,
      "d": 250.0001166666625,
      "v": 68
    },
    {
      "midi": 59,
      "hit": false,
      "t": 89018.9094666661,
      "d": 273.5850333333219,
      "v": 86
    },
    {
      "midi": 64,
      "hit": false,
      "t": 89033.06041666609,
      "d": 221.69821666667121,
      "v": 74
    },
    {
      "midi": 56,
      "hit": false,
      "t": 89405.70209999941,
      "d": 273.58503333333647,
      "v": 70
    },
    {
      "midi": 59,
      "hit": false,
      "t": 89405.70209999941,
      "d": 297.1699499999959,
      "v": 87
    },
    {
      "midi": 64,
      "hit": false,
      "t": 89415.13606666608,
      "d": 268.8680500000046,
      "v": 79
    },
    {
      "midi": 64,
      "hit": false,
      "t": 89429.28701666667,
      "d": 400.9435833333264,
      "v": 1
    },
    {
      "midi": 68,
      "hit": false,
      "t": 89429.28701666667,
      "d": 721.6984499999817,
      "v": 1
    },
    {
      "midi": 64,
      "hit": false,
      "t": 89429.28701666671,
      "d": 273.58503333333647,
      "v": 1
    },
    {
      "midi": 56,
      "hit": false,
      "t": 89806.64568333274,
      "d": 316.0378833333234,
      "v": 69
    },
    {
      "midi": 59,
      "hit": false,
      "t": 89806.64568333274,
      "d": 334.90581666665094,
      "v": 83
    },
    {
      "midi": 64,
      "hit": false,
      "t": 89816.0796499994,
      "d": 292.452966666664,
      "v": 82
    },
    {
      "midi": 68,
      "hit": false,
      "t": 89853.81551666671,
      "d": 273.58503333333647,
      "v": 1
    },
    {
      "midi": 71,
      "hit": false,
      "t": 90136.83451666665,
      "d": 9.433966666663764,
      "v": 1
    },
    {
      "midi": 74,
      "hit": false,
      "t": 90136.83451666665,
      "d": 415.09453333332203,
      "v": 1
    },
    {
      "midi": 71,
      "hit": false,
      "t": 90136.83451666671,
      "d": 273.58503333333647,
      "v": 1
    },
    {
      "midi": 59,
      "hit": false,
      "t": 90245.32513333272,
      "d": 221.69821666667121,
      "v": 88
    },
    {
      "midi": 56,
      "hit": false,
      "t": 90245.32513333272,
      "d": 259.4340833333408,
      "v": 74
    },
    {
      "midi": 64,
      "hit": false,
      "t": 90250.04211666605,
      "d": 245.28313333334518,
      "v": 85
    },
    {
      "midi": 66,
      "hit": false,
      "t": 90561.36301666664,
      "d": 2254.718033333338,
      "v": 1
    },
    {
      "midi": 69,
      "hit": false,
      "t": 90561.36301666664,
      "d": 2254.718033333338,
      "v": 1
    },
    {
      "midi": 73,
      "hit": false,
      "t": 90561.36301666664,
      "d": 2254.718033333338,
      "v": 1
    },
    {
      "midi": 69,
      "hit": false,
      "t": 90561.36301666671,
      "d": 556.6040333333367,
      "v": 1
    },
    {
      "midi": 42,
      "hit": false,
      "t": 90561.36301666671,
      "d": 4518.87003333334,
      "v": 1
    },
    {
      "midi": 45,
      "hit": false,
      "t": 90561.36301666671,
      "d": 4518.87003333334,
      "v": 1
    },
    {
      "midi": 49,
      "hit": false,
      "t": 90561.36301666671,
      "d": 4518.87003333334,
      "v": 1
    },
    {
      "midi": 57,
      "hit": false,
      "t": 90792.4951999994,
      "d": 367.92469999998866,
      "v": 82
    },
    {
      "midi": 54,
      "hit": false,
      "t": 90797.21218333273,
      "d": 334.9058166666655,
      "v": 71
    },
    {
      "midi": 61,
      "hit": false,
      "t": 90806.64614999939,
      "d": 330.1888333333336,
      "v": 77
    },
    {
      "midi": 54,
      "hit": false,
      "t": 91268.91051666604,
      "d": 268.8680500000046,
      "v": 70
    },
    {
      "midi": 61,
      "hit": false,
      "t": 91268.91051666604,
      "d": 273.58503333333647,
      "v": 82
    },
    {
      "midi": 57,
      "hit": false,
      "t": 91268.91051666604,
      "d": 292.452966666664,
      "v": 82
    },
    {
      "midi": 57,
      "hit": false,
      "t": 91669.85409999937,
      "d": 292.45296666664944,
      "v": 86
    },
    {
      "midi": 54,
      "hit": false,
      "t": 91679.28806666603,
      "d": 259.43408333332627,
      "v": 75
    },
    {
      "midi": 61,
      "hit": false,
      "t": 91679.28806666603,
      "d": 268.86804999999003,
      "v": 67
    },
    {
      "midi": 54,
      "hit": false,
      "t": 92103.81656666602,
      "d": 292.452966666664,
      "v": 78
    },
    {
      "midi": 61,
      "hit": false,
      "t": 92103.81656666602,
      "d": 297.1699499999959,
      "v": 74
    },
    {
      "midi": 57,
      "hit": false,
      "t": 92103.81656666602,
      "d": 330.1888333333336,
      "v": 85
    },
    {
      "midi": 61,
      "hit": false,
      "t": 92518.91109999936,
      "d": 264.1510666666727,
      "v": 76
    },
    {
      "midi": 54,
      "hit": false,
      "t": 92518.91109999936,
      "d": 268.8680500000046,
      "v": 81
    },
    {
      "midi": 57,
      "hit": false,
      "t": 92518.91109999936,
      "d": 283.01900000000023,
      "v": 90
    },
    {
      "midi": 57,
      "hit": false,
      "t": 93080.23211666603,
      "d": 367.9247000000032,
      "v": 83
    },
    {
      "midi": 54,
      "hit": false,
      "t": 93084.94909999936,
      "d": 320.75486666666984,
      "v": 74
    },
    {
      "midi": 61,
      "hit": false,
      "t": 93084.94909999936,
      "d": 349.0567666666757,
      "v": 64
    },
    {
      "midi": 61,
      "hit": false,
      "t": 93547.21346666603,
      "d": 273.5850333333219,
      "v": 70
    },
    {
      "midi": 57,
      "hit": false,
      "t": 93547.21346666603,
      "d": 292.45296666664944,
      "v": 79
    },
    {
      "midi": 54,
      "hit": false,
      "t": 93551.93044999936,
      "d": 259.43408333332627,
      "v": 74
    },
    {
      "midi": 61,
      "hit": false,
      "t": 93943.44006666601,
      "d": 287.73598333331756,
      "v": 70
    },
    {
      "midi": 57,
      "hit": false,
      "t": 93943.44006666601,
      "d": 292.45296666664944,
      "v": 79
    },
    {
      "midi": 54,
      "hit": false,
      "t": 93948.15704999934,
      "d": 259.43408333332627,
      "v": 67
    },
    {
      "midi": 57,
      "hit": false,
      "t": 94349.10063333265,
      "d": 344.33978333332925,
      "v": 86
    },
    {
      "midi": 54,
      "hit": false,
      "t": 94358.53459999932,
      "d": 292.452966666664,
      "v": 78
    },
    {
      "midi": 61,
      "hit": false,
      "t": 94358.53459999932,
      "d": 325.4718500000017,
      "v": 74
    },
    {
      "midi": 64,
      "hit": false,
      "t": 94523.62901666664,
      "d": 556.6040333333367,
      "v": 1
    },
    {
      "midi": 69,
      "hit": false,
      "t": 94523.62901666664,
      "d": 556.6040333333367,
      "v": 1
    },
    {
      "midi": 69,
      "hit": false,
      "t": 94523.62901666672,
      "d": 556.6040333333367,
      "v": 1
    },
    {
      "midi": 57,
      "hit": false,
      "t": 94797.21404999931,
      "d": 202.83028333332913,
      "v": 86
    },
    {
      "midi": 61,
      "hit": false,
      "t": 94797.21404999931,
      "d": 264.15106666665815,
      "v": 77
    },
    {
      "midi": 54,
      "hit": false,
      "t": 94806.64801666597,
      "d": 259.43408333332627,
      "v": 80
    },
    {
      "midi": 62,
      "hit": false,
      "t": 95089.66701666664,
      "d": 839.6230333333369,
      "v": 1
    },
    {
      "midi": 66,
      "hit": false,
      "t": 95089.66701666664,
      "d": 839.6230333333369,
      "v": 1
    },
    {
      "midi": 66,
      "hit": false,
      "t": 95089.66701666672,
      "d": 556.6040333333367,
      "v": 1
    },
    {
      "midi": 42,
      "hit": false,
      "t": 95089.66701666672,
      "d": 1122.6420333333372,
      "v": 1
    },
    {
      "midi": 47,
      "hit": false,
      "t": 95089.66701666672,
      "d": 1122.6420333333372,
      "v": 1
    },
    {
      "midi": 50,
      "hit": false,
      "t": 95089.66701666672,
      "d": 1122.6420333333372,
      "v": 1
    },
    {
      "midi": 54,
      "hit": false,
      "t": 95330.23316666597,
      "d": 353.773749999993,
      "v": 77
    },
    {
      "midi": 59,
      "hit": false,
      "t": 95334.9501499993,
      "d": 363.2077166666568,
      "v": 94
    },
    {
      "midi": 62,
      "hit": false,
      "t": 95339.66713333264,
      "d": 382.0756499999843,
      "v": 85
    },
    {
      "midi": 54,
      "hit": false,
      "t": 95820.79943333262,
      "d": 245.28313333333062,
      "v": 67
    },
    {
      "midi": 59,
      "hit": false,
      "t": 95825.51641666595,
      "d": 297.1699499999959,
      "v": 88
    },
    {
      "midi": 62,
      "hit": false,
      "t": 95830.23339999928,
      "d": 297.1699499999959,
      "v": 83
    },
    {
      "midi": 62,
      "hit": false,
      "t": 95938.72401666665,
      "d": 273.58503333333647,
      "v": 1
    },
    {
      "midi": 69,
      "hit": false,
      "t": 95938.72401666665,
      "d": 273.58503333333647,
      "v": 1
    },
    {
      "midi": 69,
      "hit": false,
      "t": 95938.72401666672,
      "d": 273.58503333333647,
      "v": 1
    },
    {
      "midi": 59,
      "hit": false,
      "t": 96212.30904999928,
      "d": 301.8869333333132,
      "v": 86
    },
    {
      "midi": 64,
      "hit": false,
      "t": 96221.74301666595,
      "d": 250.0001166666625,
      "v": 83
    },
    {
      "midi": 56,
      "hit": false,
      "t": 96221.74301666595,
      "d": 268.86804999999003,
      "v": 68
    },
    {
      "midi": 62,
      "hit": false,
      "t": 96221.74301666665,
      "d": 273.58503333333647,
      "v": 1
    },
    {
      "midi": 68,
      "hit": false,
      "t": 96221.74301666665,
      "d": 301.88693333332776,
      "v": 1
    },
    {
      "midi": 68,
      "hit": false,
      "t": 96221.74301666672,
      "d": 273.58503333333647,
      "v": 1
    },
    {
      "midi": 44,
      "hit": false,
      "t": 96221.74301666672,
      "d": 1122.6420333333372,
      "v": 1
    },
    {
      "midi": 47,
      "hit": false,
      "t": 96221.74301666672,
      "d": 1122.6420333333372,
      "v": 1
    },
    {
      "midi": 52,
      "hit": false,
      "t": 96221.74301666672,
      "d": 1122.6420333333372,
      "v": 1
    },
    {
      "midi": 62,
      "hit": false,
      "t": 96504.76201666665,
      "d": 273.5850333333219,
      "v": 1
    },
    {
      "midi": 69,
      "hit": false,
      "t": 96504.76201666665,
      "d": 273.5850333333219,
      "v": 1
    },
    {
      "midi": 69,
      "hit": false,
      "t": 96504.76201666672,
      "d": 273.58503333333647,
      "v": 1
    },
    {
      "midi": 56,
      "hit": false,
      "t": 96622.68659999926,
      "d": 292.45296666664944,
      "v": 72
    },
    {
      "midi": 59,
      "hit": false,
      "t": 96627.40358333259,
      "d": 311.320899999977,
      "v": 83
    },
    {
      "midi": 64,
      "hit": false,
      "t": 96632.12056666592,
      "d": 259.43408333332627,
      "v": 79
    },
    {
      "midi": 62,
      "hit": false,
      "t": 96787.78101666663,
      "d": 273.58503333333647,
      "v": 1
    },
    {
      "midi": 71,
      "hit": false,
      "t": 96787.78101666663,
      "d": 273.58503333333647,
      "v": 1
    },
    {
      "midi": 71,
      "hit": false,
      "t": 96787.78101666672,
      "d": 273.58503333333647,
      "v": 1
    },
    {
      "midi": 64,
      "hit": false,
      "t": 97047.21509999923,
      "d": 316.03788333333796,
      "v": 83
    },
    {
      "midi": 56,
      "hit": false,
      "t": 97047.21509999923,
      "d": 330.1888333333336,
      "v": 77
    },
    {
      "midi": 59,
      "hit": false,
      "t": 97047.21509999923,
      "d": 410.3775500000047,
      "v": 89
    },
    {
      "midi": 61,
      "hit": false,
      "t": 97070.80001666663,
      "d": 1971.6990333333379,
      "v": 1
    },
    {
      "midi": 69,
      "hit": false,
      "t": 97070.80001666663,
      "d": 1971.6990333333379,
      "v": 1
    },
    {
      "midi": 69,
      "hit": false,
      "t": 97070.80001666672,
      "d": 556.6040333333367,
      "v": 1
    },
    {
      "midi": 45,
      "hit": false,
      "t": 97353.81901666672,
      "d": 2254.718033333338,
      "v": 1
    },
    {
      "midi": 49,
      "hit": false,
      "t": 97353.81901666672,
      "d": 2254.718033333338,
      "v": 1
    },
    {
      "midi": 52,
      "hit": false,
      "t": 97353.81901666672,
      "d": 2254.718033333338,
      "v": 1
    },
    {
      "midi": 57,
      "hit": false,
      "t": 97599.10214999923,
      "d": 344.33978333332925,
      "v": 85
    },
    {
      "midi": 61,
      "hit": false,
      "t": 97599.10214999923,
      "d": 344.33978333332925,
      "v": 73
    },
    {
      "midi": 64,
      "hit": false,
      "t": 97608.5361166659,
      "d": 297.1699499999959,
      "v": 79
    },
    {
      "midi": 61,
      "hit": false,
      "t": 98084.95143333256,
      "d": 264.1510666666727,
      "v": 74
    },
    {
      "midi": 57,
      "hit": false,
      "t": 98084.95143333256,
      "d": 268.8680500000046,
      "v": 83
    },
    {
      "midi": 64,
      "hit": false,
      "t": 98089.6684166659,
      "d": 231.13218333333498,
      "v": 77
    },
    {
      "midi": 61,
      "hit": false,
      "t": 98485.8950166659,
      "d": 268.86804999999003,
      "v": 82
    },
    {
      "midi": 57,
      "hit": false,
      "t": 98485.8950166659,
      "d": 278.3020166666538,
      "v": 79
    },
    {
      "midi": 64,
      "hit": false,
      "t": 98500.0459666659,
      "d": 235.84916666666686,
      "v": 77
    },
    {
      "midi": 61,
      "hit": false,
      "t": 98882.12161666589,
      "d": 287.7359833333321,
      "v": 74
    },
    {
      "midi": 64,
      "hit": false,
      "t": 98886.83859999922,
      "d": 273.58503333333647,
      "v": 77
    },
    {
      "midi": 57,
      "hit": false,
      "t": 98891.55558333255,
      "d": 292.452966666664,
      "v": 81
    },
    {
      "midi": 61,
      "hit": false,
      "t": 99051.93301666663,
      "d": 556.6040333333367,
      "v": 1
    },
    {
      "midi": 69,
      "hit": false,
      "t": 99051.93301666663,
      "d": 556.6040333333367,
      "v": 1
    },
    {
      "midi": 69,
      "hit": false,
      "t": 99051.93301666672,
      "d": 556.6040333333367,
      "v": 1
    },
    {
      "midi": 57,
      "hit": false,
      "t": 99301.93313333254,
      "d": 316.0378833333234,
      "v": 90
    },
    {
      "midi": 64,
      "hit": false,
      "t": 99301.93313333254,
      "d": 325.47184999998717,
      "v": 80
    },
    {
      "midi": 61,
      "hit": false,
      "t": 99311.3670999992,
      "d": 316.0378833333234,
      "v": 86
    },
    {
      "midi": 62,
      "hit": false,
      "t": 99617.97101666663,
      "d": 839.6230333333369,
      "v": 1
    },
    {
      "midi": 66,
      "hit": false,
      "t": 99617.97101666663,
      "d": 839.6230333333369,
      "v": 1
    },
    {
      "midi": 66,
      "hit": false,
      "t": 99617.97101666672,
      "d": 273.58503333333647,
      "v": 1
    },
    {
      "midi": 42,
      "hit": false,
      "t": 99617.97101666672,
      "d": 1122.6420333333372,
      "v": 1
    },
    {
      "midi": 47,
      "hit": false,
      "t": 99617.97101666672,
      "d": 1122.6420333333372,
      "v": 1
    },
    {
      "midi": 50,
      "hit": false,
      "t": 99617.97101666672,
      "d": 1122.6420333333372,
      "v": 1
    },
    {
      "midi": 59,
      "hit": false,
      "t": 99858.53716666586,
      "d": 367.92469999998866,
      "v": 89
    },
    {
      "midi": 62,
      "hit": false,
      "t": 99863.2541499992,
      "d": 382.0756499999843,
      "v": 82
    },
    {
      "midi": 54,
      "hit": false,
      "t": 99872.68811666586,
      "d": 344.33978333332925,
      "v": 75
    },
    {
      "midi": 66,
      "hit": false,
      "t": 99900.99001666672,
      "d": 273.58503333333647,
      "v": 1
    },
    {
      "midi": 54,
      "hit": false,
      "t": 100344.38644999918,
      "d": 250.0001166666625,
      "v": 74
    },
    {
      "midi": 59,
      "hit": false,
      "t": 100349.10343333251,
      "d": 268.86804999999003,
      "v": 90
    },
    {
      "midi": 62,
      "hit": false,
      "t": 100353.82041666584,
      "d": 283.0189999999857,
      "v": 83
    },
    {
      "midi": 62,
      "hit": false,
      "t": 100467.02801666663,
      "d": 273.58503333333647,
      "v": 1
    },
    {
      "midi": 69,
      "hit": false,
      "t": 100467.02801666663,
      "d": 273.58503333333647,
      "v": 1
    },
    {
      "midi": 69,
      "hit": false,
      "t": 100467.02801666672,
      "d": 273.58503333333647,
      "v": 1
    },
    {
      "midi": 56,
      "hit": false,
      "t": 100735.89606666582,
      "d": 254.7170999999944,
      "v": 75
    },
    {
      "midi": 59,
      "hit": false,
      "t": 100735.89606666582,
      "d": 283.01900000000023,
      "v": 92
    },
    {
      "midi": 62,
      "hit": false,
      "t": 100750.04701666663,
      "d": 273.58503333333647,
      "v": 1
    },
    {
      "midi": 68,
      "hit": false,
      "t": 100750.04701666663,
      "d": 287.7359833333321,
      "v": 1
    },
    {
      "midi": 68,
      "hit": false,
      "t": 100750.04701666672,
      "d": 273.58503333333647,
      "v": 1
    },
    {
      "midi": 44,
      "hit": false,
      "t": 100750.04701666672,
      "d": 1688.6800333333376,
      "v": 1
    },
    {
      "midi": 47,
      "hit": false,
      "t": 100750.04701666672,
      "d": 1688.6800333333376,
      "v": 1
    },
    {
      "midi": 52,
      "hit": false,
      "t": 100750.04701666672,
      "d": 1688.6800333333376,
      "v": 1
    },
    {
      "midi": 64,
      "hit": false,
      "t": 100759.48098333248,
      "d": 221.69821666667121,
      "v": 83
    },
    {
      "midi": 62,
      "hit": false,
      "t": 101033.06601666663,
      "d": 273.58503333333647,
      "v": 1
    },
    {
      "midi": 69,
      "hit": false,
      "t": 101033.06601666663,
      "d": 273.58503333333647,
      "v": 1
    },
    {
      "midi": 69,
      "hit": false,
      "t": 101033.06601666672,
      "d": 273.58503333333647,
      "v": 1
    },
    {
      "midi": 56,
      "hit": false,
      "t": 101150.99059999916,
      "d": 316.0378833333234,
      "v": 80
    },
    {
      "midi": 59,
      "hit": false,
      "t": 101150.99059999916,
      "d": 334.90581666665094,
      "v": 86
    },
    {
      "midi": 64,
      "hit": false,
      "t": 101155.70758333249,
      "d": 297.1699499999959,
      "v": 83
    },
    {
      "midi": 62,
      "hit": false,
      "t": 101316.08501666664,
      "d": 273.58503333333647,
      "v": 1
    },
    {
      "midi": 71,
      "hit": false,
      "t": 101316.08501666664,
      "d": 273.58503333333647,
      "v": 1
    },
    {
      "midi": 71,
      "hit": false,
      "t": 101316.08501666672,
      "d": 273.58503333333647,
      "v": 1
    },
    {
      "midi": 64,
      "hit": false,
      "t": 101561.36814999915,
      "d": 235.8491666666523,
      "v": 86
    },
    {
      "midi": 59,
      "hit": false,
      "t": 101561.36814999915,
      "d": 245.28313333331607,
      "v": 87
    },
    {
      "midi": 56,
      "hit": false,
      "t": 101566.08513333248,
      "d": 212.2642499999929,
      "v": 81
    },
    {
      "midi": 61,
      "hit": false,
      "t": 101599.10401666664,
      "d": 2537.7370333333383,
      "v": 1
    },
    {
      "midi": 69,
      "hit": false,
      "t": 101599.10401666664,
      "d": 2537.7370333333383,
      "v": 1
    },
    {
      "midi": 69,
      "hit": false,
      "t": 101599.10401666672,
      "d": 556.6040333333367,
      "v": 1
    },
    {
      "midi": 64,
      "hit": false,
      "t": 101877.40603333246,
      "d": 273.58503333333647,
      "v": 86
    },
    {
      "midi": 59,
      "hit": false,
      "t": 101882.12301666579,
      "d": 141.50950000000012,
      "v": 89
    },
    {
      "midi": 56,
      "hit": false,
      "t": 101891.55698333246,
      "d": 174.52838333333784,
      "v": 76
    },
    {
      "midi": 57,
      "hit": false,
      "t": 102410.42514999912,
      "d": 1726.4158999999927,
      "v": 99
    },
    {
      "midi": 66,
      "hit": false,
      "t": 102410.42514999912,
      "d": 1726.4158999999927,
      "v": 87
    },
    {
      "midi": 61,
      "hit": false,
      "t": 102415.14213333245,
      "d": 1721.6989166666608,
      "v": 87
    },
    {
      "midi": 42,
      "hit": false,
      "t": 102448.16101666672,
      "d": 1688.6800333333376,
      "v": 1
    },
    {
      "midi": 45,
      "hit": false,
      "t": 102448.16101666672,
      "d": 1688.6800333333376,
      "v": 1
    },
    {
      "midi": 49,
      "hit": false,
      "t": 102448.16101666672,
      "d": 1688.6800333333376,
      "v": 1
    },
    {
      "midi": 73,
      "hit": false,
      "t": 103014.19901666672,
      "d": 1122.6420333333372,
      "v": 1
    },
    {
      "midi": 71,
      "hit": false,
      "t": 104146.27501666672,
      "d": 1122.6420333333372,
      "v": 1
    },
    {
      "midi": 42,
      "hit": false,
      "t": 104146.27501666672,
      "d": 2254.718033333338,
      "v": 1
    },
    {
      "midi": 47,
      "hit": false,
      "t": 104146.27501666672,
      "d": 2254.718033333338,
      "v": 1
    },
    {
      "midi": 50,
      "hit": false,
      "t": 104146.27501666672,
      "d": 2254.718033333338,
      "v": 1
    },
    {
      "midi": 54,
      "hit": false,
      "t": 104434.01099999911,
      "d": 273.5850333333219,
      "v": 80
    },
    {
      "midi": 59,
      "hit": false,
      "t": 104443.44496666577,
      "d": 259.43408333332627,
      "v": 83
    },
    {
      "midi": 62,
      "hit": false,
      "t": 104443.44496666577,
      "d": 278.3020166666538,
      "v": 83
    },
    {
      "midi": 54,
      "hit": false,
      "t": 104839.67156666575,
      "d": 283.01900000000023,
      "v": 76
    },
    {
      "midi": 62,
      "hit": false,
      "t": 104844.38854999909,
      "d": 297.1699499999959,
      "v": 90
    },
    {
      "midi": 59,
      "hit": false,
      "t": 104849.10553333242,
      "d": 283.01900000000023,
      "v": 86
    },
    {
      "midi": 54,
      "hit": false,
      "t": 105254.76609999908,
      "d": 283.01900000000023,
      "v": 74
    },
    {
      "midi": 62,
      "hit": false,
      "t": 105254.76609999908,
      "d": 306.60391666665964,
      "v": 87
    },
    {
      "midi": 59,
      "hit": false,
      "t": 105259.48308333241,
      "d": 283.01900000000023,
      "v": 86
    },
    {
      "midi": 66,
      "hit": false,
      "t": 105278.35101666673,
      "d": 556.6040333333367,
      "v": 1
    },
    {
      "midi": 54,
      "hit": false,
      "t": 105660.42666666573,
      "d": 306.60391666665964,
      "v": 76
    },
    {
      "midi": 59,
      "hit": false,
      "t": 105665.14364999907,
      "d": 311.3208999999915,
      "v": 89
    },
    {
      "midi": 62,
      "hit": false,
      "t": 105665.14364999907,
      "d": 339.62279999999737,
      "v": 87
    },
    {
      "midi": 59,
      "hit": false,
      "t": 106094.3891333324,
      "d": 245.28313333333062,
      "v": 86
    },
    {
      "midi": 54,
      "hit": false,
      "t": 106094.3891333324,
      "d": 254.7170999999944,
      "v": 70
    },
    {
      "midi": 62,
      "hit": false,
      "t": 106094.3891333324,
      "d": 268.86804999999003,
      "v": 80
    },
    {
      "midi": 44,
      "hit": false,
      "t": 106410.42701666673,
      "d": 2254.718033333338,
      "v": 1
    },
    {
      "midi": 47,
      "hit": false,
      "t": 106410.42701666673,
      "d": 2254.718033333338,
      "v": 1
    },
    {
      "midi": 52,
      "hit": false,
      "t": 106410.42701666673,
      "d": 2254.718033333338,
      "v": 1
    },
    {
      "midi": 56,
      "hit": false,
      "t": 106669.86109999905,
      "d": 325.4718500000017,
      "v": 78
    },
    {
      "midi": 59,
      "hit": false,
      "t": 106674.57808333238,
      "d": 358.4907333333249,
      "v": 90
    },
    {
      "midi": 64,
      "hit": false,
      "t": 106679.29506666571,
      "d": 330.1888333333336,
      "v": 82
    },
    {
      "midi": 59,
      "hit": false,
      "t": 107136.84244999904,
      "d": 268.8680500000046,
      "v": 86
    },
    {
      "midi": 56,
      "hit": false,
      "t": 107146.2764166657,
      "d": 254.71710000000894,
      "v": 76
    },
    {
      "midi": 64,
      "hit": false,
      "t": 107150.99339999903,
      "d": 216.98123333333933,
      "v": 83
    },
    {
      "midi": 56,
      "hit": false,
      "t": 107528.35206666571,
      "d": 254.7170999999944,
      "v": 72
    },
    {
      "midi": 59,
      "hit": false,
      "t": 107528.35206666571,
      "d": 273.5850333333219,
      "v": 83
    },
    {
      "midi": 64,
      "hit": false,
      "t": 107533.06904999905,
      "d": 235.84916666666686,
      "v": 82
    },
    {
      "midi": 73,
      "hit": false,
      "t": 107542.50301666673,
      "d": 1122.6420333333372,
      "v": 1
    },
    {
      "midi": 64,
      "hit": false,
      "t": 107919.86168333236,
      "d": 278.30201666666835,
      "v": 77
    },
    {
      "midi": 56,
      "hit": false,
      "t": 107924.5786666657,
      "d": 306.6039166666742,
      "v": 72
    },
    {
      "midi": 59,
      "hit": false,
      "t": 107924.5786666657,
      "d": 339.6228000000119,
      "v": 82
    },
    {
      "midi": 64,
      "hit": false,
      "t": 108358.54113333237,
      "d": 273.5850333333219,
      "v": 79
    },
    {
      "midi": 56,
      "hit": false,
      "t": 108363.2581166657,
      "d": 245.28313333333062,
      "v": 78
    },
    {
      "midi": 59,
      "hit": false,
      "t": 108363.2581166657,
      "d": 283.0189999999857,
      "v": 83
    },
    {
      "midi": 71,
      "hit": false,
      "t": 108674.57901666673,
      "d": 556.6040333333367,
      "v": 1
    },
    {
      "midi": 42,
      "hit": false,
      "t": 108674.57901666673,
      "d": 2254.718033333338,
      "v": 1
    },
    {
      "midi": 47,
      "hit": false,
      "t": 108674.57901666673,
      "d": 2254.718033333338,
      "v": 1
    },
    {
      "midi": 50,
      "hit": false,
      "t": 108674.57901666673,
      "d": 2254.718033333338,
      "v": 1
    },
    {
      "midi": 54,
      "hit": false,
      "t": 108934.01309999902,
      "d": 358.4907333333249,
      "v": 74
    },
    {
      "midi": 59,
      "hit": false,
      "t": 108934.01309999902,
      "d": 377.3586666666524,
      "v": 80
    },
    {
      "midi": 62,
      "hit": false,
      "t": 108943.44706666569,
      "d": 377.3586666666524,
      "v": 83
    },
    {
      "midi": 54,
      "hit": false,
      "t": 109419.86238333234,
      "d": 226.4152000000031,
      "v": 74
    },
    {
      "midi": 59,
      "hit": false,
      "t": 109429.296349999,
      "d": 240.56614999999874,
      "v": 88
    },
    {
      "midi": 62,
      "hit": false,
      "t": 109429.296349999,
      "d": 250.0001166666625,
      "v": 90
    },
    {
      "midi": 59,
      "hit": false,
      "t": 109778.35311666566,
      "d": 273.58503333333647,
      "v": 90
    },
    {
      "midi": 54,
      "hit": false,
      "t": 109783.070099999,
      "d": 268.8680500000046,
      "v": 76
    },
    {
      "midi": 62,
      "hit": false,
      "t": 109783.070099999,
      "d": 283.01900000000023,
      "v": 80
    },
    {
      "midi": 54,
      "hit": false,
      "t": 110184.01368333232,
      "d": 320.75486666666984,
      "v": 74
    },
    {
      "midi": 59,
      "hit": false,
      "t": 110184.01368333232,
      "d": 339.62279999999737,
      "v": 88
    },
    {
      "midi": 62,
      "hit": false,
      "t": 110184.01368333232,
      "d": 363.2077166666568,
      "v": 83
    },
    {
      "midi": 54,
      "hit": false,
      "t": 110632.12709999898,
      "d": 250.0001166666625,
      "v": 74
    },
    {
      "midi": 59,
      "hit": false,
      "t": 110636.84408333231,
      "d": 235.84916666666686,
      "v": 90
    },
    {
      "midi": 62,
      "hit": false,
      "t": 110636.84408333231,
      "d": 273.58503333333647,
      "v": 84
    },
    {
      "midi": 44,
      "hit": false,
      "t": 110938.73101666673,
      "d": 2254.718033333338,
      "v": 1
    },
    {
      "midi": 47,
      "hit": false,
      "t": 110938.73101666673,
      "d": 2254.718033333338,
      "v": 1
    },
    {
      "midi": 52,
      "hit": false,
      "t": 110938.73101666673,
      "d": 2254.718033333338,
      "v": 1
    },
    {
      "midi": 59,
      "hit": false,
      "t": 111221.75001666565,
      "d": 367.92469999998866,
      "v": 90
    },
    {
      "midi": 56,
      "hit": false,
      "t": 111226.46699999899,
      "d": 344.33978333332925,
      "v": 78
    },
    {
      "midi": 64,
      "hit": false,
      "t": 111235.90096666565,
      "d": 316.03788333333796,
      "v": 84
    },
    {
      "midi": 59,
      "hit": false,
      "t": 111684.01438333231,
      "d": 259.43408333332627,
      "v": 86
    },
    {
      "midi": 56,
      "hit": false,
      "t": 111693.44834999897,
      "d": 245.28313333333062,
      "v": 74
    },
    {
      "midi": 64,
      "hit": false,
      "t": 111702.88231666564,
      "d": 202.83028333332913,
      "v": 82
    },
    {
      "midi": 59,
      "hit": false,
      "t": 112051.9390833323,
      "d": 316.0378833333234,
      "v": 85
    },
    {
      "midi": 56,
      "hit": false,
      "t": 112056.65606666563,
      "d": 306.60391666665964,
      "v": 69
    },
    {
      "midi": 64,
      "hit": false,
      "t": 112061.37304999896,
      "d": 287.7359833333321,
      "v": 80
    },
    {
      "midi": 71,
      "hit": false,
      "t": 112070.80701666673,
      "d": 1122.6420333333372,
      "v": 1
    },
    {
      "midi": 59,
      "hit": false,
      "t": 112471.75059999895,
      "d": 297.1699499999959,
      "v": 84
    },
    {
      "midi": 64,
      "hit": false,
      "t": 112476.46758333228,
      "d": 250.0001166666625,
      "v": 77
    },
    {
      "midi": 56,
      "hit": false,
      "t": 112481.18456666562,
      "d": 278.30201666666835,
      "v": 70
    },
    {
      "midi": 56,
      "hit": false,
      "t": 112882.12814999894,
      "d": 320.75486666666984,
      "v": 71
    },
    {
      "midi": 59,
      "hit": false,
      "t": 112882.12814999894,
      "d": 391.5096166666626,
      "v": 85
    },
    {
      "midi": 64,
      "hit": false,
      "t": 112886.84513333227,
      "d": 316.03788333333796,
      "v": 79
    },
    {
      "midi": 69,
      "hit": false,
      "t": 113202.88301666673,
      "d": 1122.6420333333372,
      "v": 1
    },
    {
      "midi": 45,
      "hit": false,
      "t": 113202.88301666673,
      "d": 2254.718033333338,
      "v": 1
    },
    {
      "midi": 49,
      "hit": false,
      "t": 113202.88301666673,
      "d": 2254.718033333338,
      "v": 1
    },
    {
      "midi": 52,
      "hit": false,
      "t": 113202.88301666673,
      "d": 2254.718033333338,
      "v": 1
    },
    {
      "midi": 57,
      "hit": false,
      "t": 113438.73218333226,
      "d": 358.49073333331035,
      "v": 83
    },
    {
      "midi": 64,
      "hit": false,
      "t": 113448.16614999893,
      "d": 306.60391666665964,
      "v": 82
    },
    {
      "midi": 61,
      "hit": false,
      "t": 113448.16614999893,
      "d": 325.47184999998717,
      "v": 71
    },
    {
      "midi": 64,
      "hit": false,
      "t": 113924.58146666558,
      "d": 250.0001166666625,
      "v": 77
    },
    {
      "midi": 61,
      "hit": false,
      "t": 113924.58146666558,
      "d": 264.15106666665815,
      "v": 75
    },
    {
      "midi": 57,
      "hit": false,
      "t": 113929.29844999891,
      "d": 273.5850333333219,
      "v": 81
    },
    {
      "midi": 57,
      "hit": false,
      "t": 114325.5250499989,
      "d": 283.01900000000023,
      "v": 85
    },
    {
      "midi": 61,
      "hit": false,
      "t": 114330.24203333224,
      "d": 250.0001166666625,
      "v": 89
    },
    {
      "midi": 64,
      "hit": false,
      "t": 114334.95901666673,
      "d": 556.6040333333367,
      "v": 1
    },
    {
      "midi": 64,
      "hit": false,
      "t": 114339.6759999989,
      "d": 221.69821666667121,
      "v": 81
    },
    {
      "midi": 61,
      "hit": false,
      "t": 114745.33656666557,
      "d": 292.452966666664,
      "v": 77
    },
    {
      "midi": 57,
      "hit": false,
      "t": 114750.0535499989,
      "d": 292.452966666664,
      "v": 80
    },
    {
      "midi": 64,
      "hit": false,
      "t": 114759.48751666557,
      "d": 268.8680500000046,
      "v": 75
    },
    {
      "midi": 64,
      "hit": false,
      "t": 115150.99713333223,
      "d": 245.28313333333062,
      "v": 82
    },
    {
      "midi": 61,
      "hit": false,
      "t": 115160.4310999989,
      "d": 273.58503333333647,
      "v": 89
    },
    {
      "midi": 57,
      "hit": false,
      "t": 115160.4310999989,
      "d": 292.452966666664,
      "v": 89
    },
    {
      "midi": 44,
      "hit": false,
      "t": 115467.03501666673,
      "d": 2254.718033333338,
      "v": 1
    },
    {
      "midi": 47,
      "hit": false,
      "t": 115467.03501666673,
      "d": 2254.718033333338,
      "v": 1
    },
    {
      "midi": 52,
      "hit": false,
      "t": 115467.03501666673,
      "d": 2254.718033333338,
      "v": 1
    },
    {
      "midi": 59,
      "hit": false,
      "t": 115750.05401666556,
      "d": 316.03788333333796,
      "v": 90
    },
    {
      "midi": 56,
      "hit": false,
      "t": 115750.05401666556,
      "d": 320.75486666666984,
      "v": 77
    },
    {
      "midi": 64,
      "hit": false,
      "t": 115754.77099999889,
      "d": 273.58503333333647,
      "v": 82
    },
    {
      "midi": 56,
      "hit": false,
      "t": 116188.73346666555,
      "d": 250.0001166666625,
      "v": 68
    },
    {
      "midi": 59,
      "hit": false,
      "t": 116188.73346666555,
      "d": 273.5850333333219,
      "v": 86
    },
    {
      "midi": 64,
      "hit": false,
      "t": 116202.88441666555,
      "d": 221.69821666667121,
      "v": 74
    },
    {
      "midi": 56,
      "hit": false,
      "t": 116575.52609999887,
      "d": 273.58503333333647,
      "v": 70
    },
    {
      "midi": 59,
      "hit": false,
      "t": 116575.52609999887,
      "d": 297.1699499999959,
      "v": 87
    },
    {
      "midi": 64,
      "hit": false,
      "t": 116584.96006666553,
      "d": 268.8680500000046,
      "v": 79
    },
    {
      "midi": 64,
      "hit": false,
      "t": 116599.11101666673,
      "d": 273.58503333333647,
      "v": 1
    },
    {
      "midi": 56,
      "hit": false,
      "t": 116976.4696833322,
      "d": 316.0378833333234,
      "v": 69
    },
    {
      "midi": 59,
      "hit": false,
      "t": 116976.4696833322,
      "d": 334.90581666665094,
      "v": 83
    },
    {
      "midi": 64,
      "hit": false,
      "t": 116985.90364999886,
      "d": 292.452966666664,
      "v": 82
    },
    {
      "midi": 68,
      "hit": false,
      "t": 117023.63951666674,
      "d": 273.58503333333647,
      "v": 1
    },
    {
      "midi": 71,
      "hit": false,
      "t": 117306.65851666674,
      "d": 273.58503333333647,
      "v": 1
    },
    {
      "midi": 59,
      "hit": false,
      "t": 117415.14913333218,
      "d": 221.69821666667121,
      "v": 88
    },
    {
      "midi": 56,
      "hit": false,
      "t": 117415.14913333218,
      "d": 259.4340833333408,
      "v": 74
    },
    {
      "midi": 64,
      "hit": false,
      "t": 117419.86611666551,
      "d": 245.28313333334518,
      "v": 85
    },
    {
      "midi": 69,
      "hit": false,
      "t": 117731.18701666674,
      "d": 556.6040333333367,
      "v": 1
    },
    {
      "midi": 42,
      "hit": false,
      "t": 117731.18701666674,
      "d": 4518.87003333334,
      "v": 1
    },
    {
      "midi": 45,
      "hit": false,
      "t": 117731.18701666674,
      "d": 4518.87003333334,
      "v": 1
    },
    {
      "midi": 49,
      "hit": false,
      "t": 117731.18701666674,
      "d": 4518.87003333334,
      "v": 1
    },
    {
      "midi": 57,
      "hit": false,
      "t": 117962.31919999885,
      "d": 367.92469999998866,
      "v": 82
    },
    {
      "midi": 54,
      "hit": false,
      "t": 117967.03618333218,
      "d": 334.9058166666655,
      "v": 71
    },
    {
      "midi": 61,
      "hit": false,
      "t": 117976.47014999884,
      "d": 330.1888333333336,
      "v": 77
    },
    {
      "midi": 54,
      "hit": false,
      "t": 118438.7345166655,
      "d": 268.8680500000046,
      "v": 70
    },
    {
      "midi": 61,
      "hit": false,
      "t": 118438.7345166655,
      "d": 273.58503333333647,
      "v": 82
    },
    {
      "midi": 57,
      "hit": false,
      "t": 118438.7345166655,
      "d": 292.452966666664,
      "v": 82
    },
    {
      "midi": 57,
      "hit": false,
      "t": 118839.67809999883,
      "d": 292.45296666664944,
      "v": 86
    },
    {
      "midi": 54,
      "hit": false,
      "t": 118849.11206666549,
      "d": 259.43408333332627,
      "v": 75
    },
    {
      "midi": 61,
      "hit": false,
      "t": 118849.11206666549,
      "d": 268.86804999999003,
      "v": 67
    },
    {
      "midi": 54,
      "hit": false,
      "t": 119273.64056666548,
      "d": 292.452966666664,
      "v": 78
    },
    {
      "midi": 61,
      "hit": false,
      "t": 119273.64056666548,
      "d": 297.1699499999959,
      "v": 74
    },
    {
      "midi": 57,
      "hit": false,
      "t": 119273.64056666548,
      "d": 330.1888333333336,
      "v": 85
    },
    {
      "midi": 61,
      "hit": false,
      "t": 119688.73509999881,
      "d": 264.1510666666727,
      "v": 76
    },
    {
      "midi": 54,
      "hit": false,
      "t": 119688.73509999881,
      "d": 268.8680500000046,
      "v": 81
    },
    {
      "midi": 57,
      "hit": false,
      "t": 119688.73509999881,
      "d": 283.01900000000023,
      "v": 90
    },
    {
      "midi": 57,
      "hit": false,
      "t": 120250.05611666548,
      "d": 367.9247000000032,
      "v": 83
    },
    {
      "midi": 54,
      "hit": false,
      "t": 120254.77309999881,
      "d": 320.75486666666984,
      "v": 74
    },
    {
      "midi": 61,
      "hit": false,
      "t": 120254.77309999881,
      "d": 349.0567666666757,
      "v": 64
    },
    {
      "midi": 61,
      "hit": false,
      "t": 120717.03746666548,
      "d": 273.5850333333219,
      "v": 70
    },
    {
      "midi": 57,
      "hit": false,
      "t": 120717.03746666548,
      "d": 292.45296666664944,
      "v": 79
    },
    {
      "midi": 54,
      "hit": false,
      "t": 120721.75444999881,
      "d": 259.43408333332627,
      "v": 74
    },
    {
      "midi": 61,
      "hit": false,
      "t": 121113.26406666546,
      "d": 287.73598333331756,
      "v": 70
    },
    {
      "midi": 57,
      "hit": false,
      "t": 121113.26406666546,
      "d": 292.45296666664944,
      "v": 79
    },
    {
      "midi": 54,
      "hit": false,
      "t": 121117.9810499988,
      "d": 259.43408333332627,
      "v": 67
    },
    {
      "midi": 57,
      "hit": false,
      "t": 121518.9246333321,
      "d": 344.33978333332925,
      "v": 86
    },
    {
      "midi": 54,
      "hit": false,
      "t": 121528.35859999877,
      "d": 292.452966666664,
      "v": 78
    },
    {
      "midi": 61,
      "hit": false,
      "t": 121528.35859999877,
      "d": 325.4718500000017,
      "v": 74
    },
    {
      "midi": 57,
      "hit": false,
      "t": 121967.03804999877,
      "d": 202.83028333332913,
      "v": 86
    },
    {
      "midi": 61,
      "hit": false,
      "t": 121967.03804999877,
      "d": 264.15106666665815,
      "v": 77
    },
    {
      "midi": 54,
      "hit": false,
      "t": 121976.47201666543,
      "d": 259.43408333332627,
      "v": 80
    },
    {
      "midi": 50,
      "hit": false,
      "t": 122259.49101666664,
      "d": 4518.87003333334,
      "v": 1
    },
    {
      "midi": 57,
      "hit": false,
      "t": 122259.49101666664,
      "d": 4518.87003333334,
      "v": 1
    },
    {
      "midi": 62,
      "hit": false,
      "t": 122259.49101666664,
      "d": 4518.87003333334,
      "v": 1
    },
    {
      "midi": 69,
      "hit": false,
      "t": 122259.49101666674,
      "d": 273.58503333333647,
      "v": 1
    },
    {
      "midi": 42,
      "hit": false,
      "t": 122259.49101666674,
      "d": 3952.8320333333395,
      "v": 1
    },
    {
      "midi": 45,
      "hit": false,
      "t": 122259.49101666674,
      "d": 3952.8320333333395,
      "v": 1
    },
    {
      "midi": 50,
      "hit": false,
      "t": 122259.49101666674,
      "d": 3952.8320333333395,
      "v": 1
    },
    {
      "midi": 62,
      "hit": false,
      "t": 122542.51001666674,
      "d": 273.58503333333647,
      "v": 1
    },
    {
      "midi": 69,
      "hit": false,
      "t": 123391.56701666674,
      "d": 273.58503333333647,
      "v": 1
    },
    {
      "midi": 62,
      "hit": false,
      "t": 123674.58601666674,
      "d": 273.58503333333647,
      "v": 1
    },
    {
      "midi": 69,
      "hit": false,
      "t": 124523.64301666674,
      "d": 273.58503333333647,
      "v": 1
    },
    {
      "midi": 62,
      "hit": false,
      "t": 124806.66201666674,
      "d": 273.58503333333647,
      "v": 1
    },
    {
      "midi": 69,
      "hit": false,
      "t": 125655.71901666674,
      "d": 273.58503333333647,
      "v": 1
    },
    {
      "midi": 62,
      "hit": false,
      "t": 125938.73801666674,
      "d": 273.58503333333647,
      "v": 1
    },
    {
      "midi": 45,
      "hit": false,
      "t": 126221.75701666674,
      "d": 556.6040333333367,
      "v": 1
    },
    {
      "midi": 49,
      "hit": false,
      "t": 126221.75701666674,
      "d": 556.6040333333367,
      "v": 1
    },
    {
      "midi": 52,
      "hit": false,
      "t": 126221.75701666674,
      "d": 556.6040333333367,
      "v": 1
    },
    {
      "midi": 62,
      "hit": false,
      "t": 126787.79501666674,
      "d": 273.58503333333647,
      "v": 1
    },
    {
      "midi": 42,
      "hit": false,
      "t": 126787.79501666674,
      "d": 4518.870033333325,
      "v": 1
    },
    {
      "midi": 45,
      "hit": false,
      "t": 126787.79501666674,
      "d": 4518.870033333325,
      "v": 1
    },
    {
      "midi": 50,
      "hit": false,
      "t": 126787.79501666674,
      "d": 4518.870033333325,
      "v": 1
    },
    {
      "midi": 62,
      "hit": false,
      "t": 127353.83301666674,
      "d": 556.6040333333367,
      "v": 1
    },
    {
      "midi": 62,
      "hit": false,
      "t": 127919.87101666674,
      "d": 273.58503333333647,
      "v": 1
    },
    {
      "midi": 61,
      "hit": false,
      "t": 128202.89001666674,
      "d": 273.58503333333647,
      "v": 1
    },
    {
      "midi": 62,
      "hit": false,
      "t": 128485.90901666674,
      "d": 273.58503333333647,
      "v": 1
    },
    {
      "midi": 64,
      "hit": false,
      "t": 128768.92801666674,
      "d": 273.58503333333647,
      "v": 1
    },
    {
      "midi": 66,
      "hit": false,
      "t": 129051.94701666675,
      "d": 556.6040333333367,
      "v": 1
    },
    {
      "midi": 66,
      "hit": false,
      "t": 129617.98501666675,
      "d": 273.58503333333647,
      "v": 1
    },
    {
      "midi": 66,
      "hit": false,
      "t": 129901.00401666675,
      "d": 556.6040333333367,
      "v": 1
    },
    {
      "midi": 64,
      "hit": false,
      "t": 130467.04201666675,
      "d": 273.58503333333647,
      "v": 1
    },
    {
      "midi": 66,
      "hit": false,
      "t": 130750.06101666675,
      "d": 273.58503333333647,
      "v": 1
    },
    {
      "midi": 67,
      "hit": false,
      "t": 131033.08001666675,
      "d": 273.5850333333219,
      "v": 1
    },
    {
      "midi": 69,
      "hit": false,
      "t": 131316.09901666673,
      "d": 273.58503333333647,
      "v": 1
    },
    {
      "midi": 45,
      "hit": false,
      "t": 131316.09901666673,
      "d": 2254.718033333338,
      "v": 1
    },
    {
      "midi": 49,
      "hit": false,
      "t": 131316.09901666673,
      "d": 2254.718033333338,
      "v": 1
    },
    {
      "midi": 52,
      "hit": false,
      "t": 131316.09901666673,
      "d": 2254.718033333338,
      "v": 1
    },
    {
      "midi": 69,
      "hit": false,
      "t": 131599.11801666673,
      "d": 273.58503333333647,
      "v": 1
    },
    {
      "midi": 71,
      "hit": false,
      "t": 131882.13701666673,
      "d": 273.58503333333647,
      "v": 1
    },
    {
      "midi": 69,
      "hit": false,
      "t": 132165.15601666673,
      "d": 273.58503333333647,
      "v": 1
    },
    {
      "midi": 64,
      "hit": false,
      "t": 132731.19401666673,
      "d": 273.58503333333647,
      "v": 1
    },
    {
      "midi": 67,
      "hit": false,
      "t": 133014.21301666673,
      "d": 273.58503333333647,
      "v": 1
    },
    {
      "midi": 66,
      "hit": false,
      "t": 133580.25101666673,
      "d": 273.58503333333647,
      "v": 1
    },
    {
      "midi": 42,
      "hit": false,
      "t": 133580.25101666673,
      "d": 2254.718033333338,
      "v": 1
    },
    {
      "midi": 45,
      "hit": false,
      "t": 133580.25101666673,
      "d": 2254.718033333338,
      "v": 1
    },
    {
      "midi": 50,
      "hit": false,
      "t": 133580.25101666673,
      "d": 2254.718033333338,
      "v": 1
    },
    {
      "midi": 62,
      "hit": false,
      "t": 135844.40301666674,
      "d": 556.6040333333367,
      "v": 1
    },
    {
      "midi": 42,
      "hit": false,
      "t": 135844.40301666674,
      "d": 4518.87003333334,
      "v": 1
    },
    {
      "midi": 45,
      "hit": false,
      "t": 135844.40301666674,
      "d": 4518.87003333334,
      "v": 1
    },
    {
      "midi": 50,
      "hit": false,
      "t": 135844.40301666674,
      "d": 4518.87003333334,
      "v": 1
    },
    {
      "midi": 62,
      "hit": false,
      "t": 136410.44101666674,
      "d": 273.58503333333647,
      "v": 1
    },
    {
      "midi": 62,
      "hit": false,
      "t": 136976.47901666674,
      "d": 273.58503333333647,
      "v": 1
    },
    {
      "midi": 61,
      "hit": false,
      "t": 137259.49801666674,
      "d": 273.58503333333647,
      "v": 1
    },
    {
      "midi": 62,
      "hit": false,
      "t": 137542.51701666674,
      "d": 273.58503333333647,
      "v": 1
    },
    {
      "midi": 64,
      "hit": false,
      "t": 137825.53601666674,
      "d": 273.58503333333647,
      "v": 1
    },
    {
      "midi": 66,
      "hit": false,
      "t": 138108.55501666674,
      "d": 556.6040333333367,
      "v": 1
    },
    {
      "midi": 66,
      "hit": false,
      "t": 138674.59301666674,
      "d": 273.58503333333647,
      "v": 1
    },
    {
      "midi": 66,
      "hit": false,
      "t": 138957.61201666674,
      "d": 556.6040333333367,
      "v": 1
    },
    {
      "midi": 64,
      "hit": false,
      "t": 139523.65001666674,
      "d": 273.58503333333647,
      "v": 1
    },
    {
      "midi": 66,
      "hit": false,
      "t": 139806.66901666674,
      "d": 273.58503333333647,
      "v": 1
    },
    {
      "midi": 67,
      "hit": false,
      "t": 140089.68801666674,
      "d": 273.58503333333647,
      "v": 1
    },
    {
      "midi": 69,
      "hit": false,
      "t": 140372.70701666674,
      "d": 273.58503333333647,
      "v": 1
    },
    {
      "midi": 45,
      "hit": false,
      "t": 140372.70701666674,
      "d": 2254.718033333338,
      "v": 1
    },
    {
      "midi": 49,
      "hit": false,
      "t": 140372.70701666674,
      "d": 2254.718033333338,
      "v": 1
    },
    {
      "midi": 52,
      "hit": false,
      "t": 140372.70701666674,
      "d": 2254.718033333338,
      "v": 1
    },
    {
      "midi": 69,
      "hit": false,
      "t": 140655.72601666674,
      "d": 273.58503333333647,
      "v": 1
    },
    {
      "midi": 71,
      "hit": false,
      "t": 140938.74501666674,
      "d": 273.58503333333647,
      "v": 1
    },
    {
      "midi": 69,
      "hit": false,
      "t": 141221.76401666674,
      "d": 556.6040333333367,
      "v": 1
    },
    {
      "midi": 64,
      "hit": false,
      "t": 141787.80201666674,
      "d": 273.58503333333647,
      "v": 1
    },
    {
      "midi": 67,
      "hit": false,
      "t": 142070.82101666674,
      "d": 273.58503333333647,
      "v": 1
    },
    {
      "midi": 66,
      "hit": false,
      "t": 142636.85901666674,
      "d": 273.58503333333647,
      "v": 1
    },
    {
      "midi": 42,
      "hit": false,
      "t": 142636.85901666674,
      "d": 2254.718033333338,
      "v": 1
    },
    {
      "midi": 45,
      "hit": false,
      "t": 142636.85901666674,
      "d": 2254.718033333338,
      "v": 1
    },
    {
      "midi": 50,
      "hit": false,
      "t": 142636.85901666674,
      "d": 2254.718033333338,
      "v": 1
    },
    {
      "midi": 67,
      "hit": false,
      "t": 144901.01101666674,
      "d": 556.6040333333367,
      "v": 1
    },
    {
      "midi": 43,
      "hit": false,
      "t": 144901.01101666674,
      "d": 4518.87003333334,
      "v": 1
    },
    {
      "midi": 47,
      "hit": false,
      "t": 144901.01101666674,
      "d": 4518.87003333334,
      "v": 1
    },
    {
      "midi": 50,
      "hit": false,
      "t": 144901.01101666674,
      "d": 4518.87003333334,
      "v": 1
    },
    {
      "midi": 67,
      "hit": false,
      "t": 145467.04901666674,
      "d": 273.58503333333647,
      "v": 1
    },
    {
      "midi": 67,
      "hit": false,
      "t": 145750.06801666674,
      "d": 556.6040333333367,
      "v": 1
    },
    {
      "midi": 66,
      "hit": false,
      "t": 146316.10601666674,
      "d": 273.58503333333647,
      "v": 1
    },
    {
      "midi": 67,
      "hit": false,
      "t": 146599.12501666675,
      "d": 273.58503333333647,
      "v": 1
    },
    {
      "midi": 69,
      "hit": false,
      "t": 146882.14401666675,
      "d": 273.58503333333647,
      "v": 1
    },
    {
      "midi": 71,
      "hit": false,
      "t": 147165.16301666675,
      "d": 2254.718033333338,
      "v": 1
    },
    {
      "midi": 69,
      "hit": false,
      "t": 149429.31501666675,
      "d": 556.6040333333367,
      "v": 1
    },
    {
      "midi": 45,
      "hit": false,
      "t": 149429.31501666675,
      "d": 4518.87003333334,
      "v": 1
    },
    {
      "midi": 49,
      "hit": false,
      "t": 149429.31501666675,
      "d": 4518.87003333334,
      "v": 1
    },
    {
      "midi": 52,
      "hit": false,
      "t": 149429.31501666675,
      "d": 4518.87003333334,
      "v": 1
    },
    {
      "midi": 69,
      "hit": false,
      "t": 149995.35301666675,
      "d": 273.58503333333647,
      "v": 1
    },
    {
      "midi": 69,
      "hit": false,
      "t": 150278.37201666675,
      "d": 556.6040333333367,
      "v": 1
    },
    {
      "midi": 68,
      "hit": false,
      "t": 150844.41001666675,
      "d": 273.58503333333647,
      "v": 1
    },
    {
      "midi": 69,
      "hit": false,
      "t": 151127.42901666675,
      "d": 273.58503333333647,
      "v": 1
    },
    {
      "midi": 71,
      "hit": false,
      "t": 151410.44801666675,
      "d": 273.58503333333647,
      "v": 1
    },
    {
      "midi": 73,
      "hit": false,
      "t": 151693.46701666675,
      "d": 273.58503333333647,
      "v": 1
    },
    {
      "midi": 71,
      "hit": false,
      "t": 152259.50501666675,
      "d": 273.58503333333647,
      "v": 1
    },
    {
      "midi": 69,
      "hit": false,
      "t": 152825.54301666675,
      "d": 273.58503333333647,
      "v": 1
    },
    {
      "midi": 67,
      "hit": false,
      "t": 153391.58101666675,
      "d": 273.58503333333647,
      "v": 1
    },
    {
      "midi": 62,
      "hit": false,
      "t": 153957.61901666675,
      "d": 273.58503333333647,
      "v": 1
    },
    {
      "midi": 42,
      "hit": false,
      "t": 153957.61901666675,
      "d": 4518.87003333334,
      "v": 1
    },
    {
      "midi": 45,
      "hit": false,
      "t": 153957.61901666675,
      "d": 4518.87003333334,
      "v": 1
    },
    {
      "midi": 50,
      "hit": false,
      "t": 153957.61901666675,
      "d": 4518.87003333334,
      "v": 1
    },
    {
      "midi": 62,
      "hit": false,
      "t": 154523.65701666675,
      "d": 273.58503333333647,
      "v": 1
    },
    {
      "midi": 62,
      "hit": false,
      "t": 155089.69501666675,
      "d": 273.58503333333647,
      "v": 1
    },
    {
      "midi": 61,
      "hit": false,
      "t": 155372.71401666675,
      "d": 273.58503333333647,
      "v": 1
    },
    {
      "midi": 62,
      "hit": false,
      "t": 155655.73301666675,
      "d": 273.58503333333647,
      "v": 1
    },
    {
      "midi": 64,
      "hit": false,
      "t": 155938.75201666675,
      "d": 273.58503333333647,
      "v": 1
    },
    {
      "midi": 66,
      "hit": false,
      "t": 156221.77101666675,
      "d": 556.6040333333367,
      "v": 1
    },
    {
      "midi": 66,
      "hit": false,
      "t": 156787.80901666675,
      "d": 273.58503333333647,
      "v": 1
    },
    {
      "midi": 66,
      "hit": false,
      "t": 157070.82801666675,
      "d": 556.6040333333367,
      "v": 1
    },
    {
      "midi": 64,
      "hit": false,
      "t": 157636.86601666675,
      "d": 273.58503333333647,
      "v": 1
    },
    {
      "midi": 66,
      "hit": false,
      "t": 157919.88501666675,
      "d": 273.58503333333647,
      "v": 1
    },
    {
      "midi": 67,
      "hit": false,
      "t": 158202.90401666675,
      "d": 273.58503333333647,
      "v": 1
    },
    {
      "midi": 69,
      "hit": false,
      "t": 158485.92301666675,
      "d": 273.58503333333647,
      "v": 1
    },
    {
      "midi": 45,
      "hit": false,
      "t": 158485.92301666675,
      "d": 2254.718033333338,
      "v": 1
    },
    {
      "midi": 49,
      "hit": false,
      "t": 158485.92301666675,
      "d": 2254.718033333338,
      "v": 1
    },
    {
      "midi": 52,
      "hit": false,
      "t": 158485.92301666675,
      "d": 2254.718033333338,
      "v": 1
    },
    {
      "midi": 69,
      "hit": false,
      "t": 158768.94201666676,
      "d": 273.58503333333647,
      "v": 1
    },
    {
      "midi": 71,
      "hit": false,
      "t": 159051.96101666676,
      "d": 273.58503333333647,
      "v": 1
    },
    {
      "midi": 69,
      "hit": false,
      "t": 159334.98001666676,
      "d": 556.6040333333367,
      "v": 1
    },
    {
      "midi": 67,
      "hit": false,
      "t": 159901.01801666676,
      "d": 273.58503333333647,
      "v": 1
    },
    {
      "midi": 66,
      "hit": false,
      "t": 160184.03701666676,
      "d": 273.58503333333647,
      "v": 1
    },
    {
      "midi": 64,
      "hit": false,
      "t": 160467.05601666676,
      "d": 273.58503333333647,
      "v": 1
    },
    {
      "midi": 62,
      "hit": false,
      "t": 160750.07501666676,
      "d": 556.6040333333367,
      "v": 1
    },
    {
      "midi": 42,
      "hit": false,
      "t": 160750.07501666676,
      "d": 2254.718033333338,
      "v": 1
    },
    {
      "midi": 45,
      "hit": false,
      "t": 160750.07501666676,
      "d": 2254.718033333338,
      "v": 1
    },
    {
      "midi": 50,
      "hit": false,
      "t": 160750.07501666676,
      "d": 2254.718033333338,
      "v": 1
    },
    {
      "midi": 50,
      "hit": false,
      "t": 162448.18901666664,
      "d": 556.6040333333367,
      "v": 1
    },
    {
      "midi": 62,
      "hit": false,
      "t": 162448.18901666676,
      "d": 556.6040333333367,
      "v": 1
    },
    {
      "midi": 59,
      "hit": false,
      "t": 163014.22701666664,
      "d": 2820.7560333333386,
      "v": 1
    },
    {
      "midi": 62,
      "hit": false,
      "t": 163014.22701666664,
      "d": 2820.7560333333386,
      "v": 1
    },
    {
      "midi": 71,
      "hit": false,
      "t": 163014.22701666676,
      "d": 1122.6420333333372,
      "v": 1
    },
    {
      "midi": 43,
      "hit": false,
      "t": 163014.22701666676,
      "d": 9047.174033333344,
      "v": 1
    },
    {
      "midi": 47,
      "hit": false,
      "t": 163014.22701666676,
      "d": 9047.174033333344,
      "v": 1
    },
    {
      "midi": 50,
      "hit": false,
      "t": 163014.22701666676,
      "d": 9047.174033333344,
      "v": 1
    },
    {
      "midi": 71,
      "hit": false,
      "t": 164146.30301666676,
      "d": 1688.6800333333376,
      "v": 1
    },
    {
      "midi": 57,
      "hit": false,
      "t": 165844.41701666664,
      "d": 556.6040333333367,
      "v": 1
    },
    {
      "midi": 60,
      "hit": false,
      "t": 165844.41701666664,
      "d": 556.6040333333367,
      "v": 1
    },
    {
      "midi": 69,
      "hit": false,
      "t": 165844.41701666676,
      "d": 556.6040333333367,
      "v": 1
    },
    {
      "midi": 59,
      "hit": false,
      "t": 166410.45501666664,
      "d": 556.6040333333367,
      "v": 1
    },
    {
      "midi": 62,
      "hit": false,
      "t": 166410.45501666664,
      "d": 556.6040333333367,
      "v": 1
    },
    {
      "midi": 71,
      "hit": false,
      "t": 166410.45501666676,
      "d": 556.6040333333367,
      "v": 1
    },
    {
      "midi": 60,
      "hit": false,
      "t": 166976.49301666665,
      "d": 556.6040333333367,
      "v": 1
    },
    {
      "midi": 64,
      "hit": false,
      "t": 166976.49301666665,
      "d": 556.6040333333367,
      "v": 1
    },
    {
      "midi": 72,
      "hit": false,
      "t": 166976.49301666676,
      "d": 556.6040333333367,
      "v": 1
    },
    {
      "midi": 59,
      "hit": false,
      "t": 167542.53101666665,
      "d": 839.6230333333369,
      "v": 1
    },
    {
      "midi": 62,
      "hit": false,
      "t": 167542.53101666665,
      "d": 839.6230333333369,
      "v": 1
    },
    {
      "midi": 71,
      "hit": false,
      "t": 167542.53101666676,
      "d": 839.6230333333369,
      "v": 1
    },
    {
      "midi": 57,
      "hit": false,
      "t": 168391.58801666665,
      "d": 273.58503333333647,
      "v": 1
    },
    {
      "midi": 60,
      "hit": false,
      "t": 168391.58801666665,
      "d": 273.58503333333647,
      "v": 1
    },
    {
      "midi": 69,
      "hit": false,
      "t": 168391.58801666676,
      "d": 273.58503333333647,
      "v": 1
    },
    {
      "midi": 55,
      "hit": false,
      "t": 168674.60701666665,
      "d": 1688.6800333333376,
      "v": 1
    },
    {
      "midi": 59,
      "hit": false,
      "t": 168674.60701666665,
      "d": 1688.6800333333376,
      "v": 1
    },
    {
      "midi": 67,
      "hit": false,
      "t": 168674.60701666676,
      "d": 1688.6800333333376,
      "v": 1
    },
    {
      "midi": 59,
      "hit": false,
      "t": 170372.72101666665,
      "d": 556.6040333333367,
      "v": 1
    },
    {
      "midi": 62,
      "hit": false,
      "t": 170372.72101666665,
      "d": 556.6040333333367,
      "v": 1
    },
    {
      "midi": 71,
      "hit": false,
      "t": 170372.72101666676,
      "d": 556.6040333333367,
      "v": 1
    },
    {
      "midi": 60,
      "hit": false,
      "t": 170938.75901666665,
      "d": 839.6230333333369,
      "v": 1
    },
    {
      "midi": 64,
      "hit": false,
      "t": 170938.75901666665,
      "d": 839.6230333333369,
      "v": 1
    },
    {
      "midi": 72,
      "hit": false,
      "t": 170938.75901666677,
      "d": 839.6230333333369,
      "v": 1
    },
    {
      "midi": 59,
      "hit": false,
      "t": 171787.81601666665,
      "d": 273.58503333333647,
      "v": 1
    },
    {
      "midi": 62,
      "hit": false,
      "t": 171787.81601666665,
      "d": 1297.1704166666605,
      "v": 1
    },
    {
      "midi": 71,
      "hit": false,
      "t": 171787.81601666677,
      "d": 273.58503333333647,
      "v": 1
    },
    {
      "midi": 66,
      "hit": false,
      "t": 172070.83501666665,
      "d": 2820.7560333333386,
      "v": 1
    },
    {
      "midi": 74,
      "hit": false,
      "t": 172070.83501666677,
      "d": 1122.6420333333372,
      "v": 1
    },
    {
      "midi": 45,
      "hit": false,
      "t": 172070.83501666677,
      "d": 4518.87003333334,
      "v": 1
    },
    {
      "midi": 50,
      "hit": false,
      "t": 172070.83501666677,
      "d": 4518.87003333334,
      "v": 1
    },
    {
      "midi": 54,
      "hit": false,
      "t": 172070.83501666677,
      "d": 4518.87003333334,
      "v": 1
    },
    {
      "midi": 74,
      "hit": false,
      "t": 173202.91101666677,
      "d": 1688.6800333333376,
      "v": 1
    },
    {
      "midi": 64,
      "hit": false,
      "t": 174901.02501666665,
      "d": 556.6040333333367,
      "v": 1
    },
    {
      "midi": 67,
      "hit": false,
      "t": 174901.02501666665,
      "d": 556.6040333333367,
      "v": 1
    },
    {
      "midi": 76,
      "hit": false,
      "t": 174901.02501666677,
      "d": 556.6040333333367,
      "v": 1
    },
    {
      "midi": 62,
      "hit": false,
      "t": 175467.06301666665,
      "d": 839.6230333333369,
      "v": 1
    },
    {
      "midi": 66,
      "hit": false,
      "t": 175467.06301666665,
      "d": 839.6230333333369,
      "v": 1
    },
    {
      "midi": 74,
      "hit": false,
      "t": 175467.06301666677,
      "d": 839.6230333333369,
      "v": 1
    },
    {
      "midi": 60,
      "hit": false,
      "t": 176316.12001666665,
      "d": 273.58503333333647,
      "v": 1
    },
    {
      "midi": 64,
      "hit": false,
      "t": 176316.12001666665,
      "d": 273.58503333333647,
      "v": 1
    },
    {
      "midi": 72,
      "hit": false,
      "t": 176316.12001666677,
      "d": 273.58503333333647,
      "v": 1
    },
    {
      "midi": 59,
      "hit": false,
      "t": 176599.13901666665,
      "d": 3952.8320333333395,
      "v": 1
    },
    {
      "midi": 62,
      "hit": false,
      "t": 176599.13901666665,
      "d": 3952.8320333333395,
      "v": 1
    },
    {
      "midi": 71,
      "hit": false,
      "t": 176599.13901666677,
      "d": 1405.6610333333374,
      "v": 1
    },
    {
      "midi": 43,
      "hit": false,
      "t": 176599.13901666677,
      "d": 13575.478033333347,
      "v": 1
    },
    {
      "midi": 47,
      "hit": false,
      "t": 176599.13901666677,
      "d": 13575.478033333347,
      "v": 1
    },
    {
      "midi": 50,
      "hit": false,
      "t": 176599.13901666677,
      "d": 13575.478033333347,
      "v": 1
    },
    {
      "midi": 50,
      "hit": false,
      "t": 180561.40501666666,
      "d": 556.6040333333367,
      "v": 1
    },
    {
      "midi": 62,
      "hit": false,
      "t": 180561.40501666677,
      "d": 556.6040333333367,
      "v": 1
    },
    {
      "midi": 59,
      "hit": false,
      "t": 181127.44301666666,
      "d": 2820.7560333333386,
      "v": 1
    },
    {
      "midi": 62,
      "hit": false,
      "t": 181127.44301666666,
      "d": 2820.7560333333386,
      "v": 1
    },
    {
      "midi": 71,
      "hit": false,
      "t": 181127.44301666677,
      "d": 1122.6420333333372,
      "v": 1
    },
    {
      "midi": 71,
      "hit": false,
      "t": 182259.51901666677,
      "d": 1688.6800333333376,
      "v": 1
    },
    {
      "midi": 57,
      "hit": false,
      "t": 183957.63301666666,
      "d": 556.6040333333367,
      "v": 1
    },
    {
      "midi": 60,
      "hit": false,
      "t": 183957.63301666666,
      "d": 556.6040333333367,
      "v": 1
    },
    {
      "midi": 69,
      "hit": false,
      "t": 183957.63301666678,
      "d": 556.6040333333367,
      "v": 1
    },
    {
      "midi": 59,
      "hit": false,
      "t": 184523.67101666666,
      "d": 556.6040333333367,
      "v": 1
    },
    {
      "midi": 62,
      "hit": false,
      "t": 184523.67101666666,
      "d": 556.6040333333367,
      "v": 1
    },
    {
      "midi": 71,
      "hit": false,
      "t": 184523.67101666678,
      "d": 556.6040333333367,
      "v": 1
    },
    {
      "midi": 60,
      "hit": false,
      "t": 185089.70901666666,
      "d": 556.6040333333367,
      "v": 1
    },
    {
      "midi": 64,
      "hit": false,
      "t": 185089.70901666666,
      "d": 556.6040333333367,
      "v": 1
    },
    {
      "midi": 72,
      "hit": false,
      "t": 185089.70901666678,
      "d": 556.6040333333367,
      "v": 1
    },
    {
      "midi": 59,
      "hit": false,
      "t": 185655.74701666666,
      "d": 839.6230333333369,
      "v": 1
    },
    {
      "midi": 62,
      "hit": false,
      "t": 185655.74701666666,
      "d": 839.6230333333369,
      "v": 1
    },
    {
      "midi": 71,
      "hit": false,
      "t": 185655.74701666678,
      "d": 839.6230333333369,
      "v": 1
    },
    {
      "midi": 57,
      "hit": false,
      "t": 186504.80401666666,
      "d": 273.58503333333647,
      "v": 1
    },
    {
      "midi": 60,
      "hit": false,
      "t": 186504.80401666666,
      "d": 273.58503333333647,
      "v": 1
    },
    {
      "midi": 69,
      "hit": false,
      "t": 186504.80401666678,
      "d": 273.58503333333647,
      "v": 1
    },
    {
      "midi": 55,
      "hit": false,
      "t": 186787.82301666666,
      "d": 1688.6800333333376,
      "v": 1
    },
    {
      "midi": 59,
      "hit": false,
      "t": 186787.82301666666,
      "d": 1688.6800333333376,
      "v": 1
    },
    {
      "midi": 67,
      "hit": false,
      "t": 186787.82301666678,
      "d": 1688.6800333333376,
      "v": 1
    },
    {
      "midi": 59,
      "hit": false,
      "t": 188485.93701666666,
      "d": 556.6040333333367,
      "v": 1
    },
    {
      "midi": 62,
      "hit": false,
      "t": 188485.93701666666,
      "d": 556.6040333333367,
      "v": 1
    },
    {
      "midi": 71,
      "hit": false,
      "t": 188485.93701666678,
      "d": 556.6040333333367,
      "v": 1
    },
    {
      "midi": 60,
      "hit": false,
      "t": 189051.97501666666,
      "d": 556.6040333333367,
      "v": 1
    },
    {
      "midi": 64,
      "hit": false,
      "t": 189051.97501666666,
      "d": 556.6040333333367,
      "v": 1
    },
    {
      "midi": 72,
      "hit": false,
      "t": 189051.97501666678,
      "d": 556.6040333333367,
      "v": 1
    },
    {
      "midi": 59,
      "hit": false,
      "t": 189618.01301666666,
      "d": 556.6040333333367,
      "v": 1
    },
    {
      "midi": 62,
      "hit": false,
      "t": 189618.01301666666,
      "d": 556.6040333333367,
      "v": 1
    },
    {
      "midi": 71,
      "hit": false,
      "t": 189618.01301666678,
      "d": 556.6040333333367,
      "v": 1
    },
    {
      "midi": 62,
      "hit": false,
      "t": 190184.05101666666,
      "d": 273.58503333333647,
      "v": 1
    },
    {
      "midi": 66,
      "hit": false,
      "t": 190184.05101666666,
      "d": 273.58503333333647,
      "v": 1
    },
    {
      "midi": 74,
      "hit": false,
      "t": 190184.05101666678,
      "d": 273.58503333333647,
      "v": 1
    },
    {
      "midi": 45,
      "hit": false,
      "t": 190184.05101666678,
      "d": 4518.87003333334,
      "v": 1
    },
    {
      "midi": 50,
      "hit": false,
      "t": 190184.05101666678,
      "d": 4518.87003333334,
      "v": 1
    },
    {
      "midi": 54,
      "hit": false,
      "t": 190184.05101666678,
      "d": 4518.87003333334,
      "v": 1
    },
    {
      "midi": 57,
      "hit": false,
      "t": 190467.07001666666,
      "d": 556.6040333333367,
      "v": 1
    },
    {
      "midi": 60,
      "hit": false,
      "t": 190467.07001666666,
      "d": 556.6040333333367,
      "v": 1
    },
    {
      "midi": 69,
      "hit": false,
      "t": 190467.07001666678,
      "d": 556.6040333333367,
      "v": 1
    },
    {
      "midi": 59,
      "hit": false,
      "t": 191033.10801666667,
      "d": 273.58503333333647,
      "v": 1
    },
    {
      "midi": 62,
      "hit": false,
      "t": 191033.10801666667,
      "d": 273.58503333333647,
      "v": 1
    },
    {
      "midi": 71,
      "hit": false,
      "t": 191033.10801666678,
      "d": 273.58503333333647,
      "v": 1
    },
    {
      "midi": 62,
      "hit": false,
      "t": 191316.12701666667,
      "d": 273.58503333333647,
      "v": 1
    },
    {
      "midi": 66,
      "hit": false,
      "t": 191316.12701666667,
      "d": 273.58503333333647,
      "v": 1
    },
    {
      "midi": 74,
      "hit": false,
      "t": 191316.12701666678,
      "d": 273.58503333333647,
      "v": 1
    },
    {
      "midi": 57,
      "hit": false,
      "t": 191599.14601666667,
      "d": 556.6040333333367,
      "v": 1
    },
    {
      "midi": 60,
      "hit": false,
      "t": 191599.14601666667,
      "d": 556.6040333333367,
      "v": 1
    },
    {
      "midi": 69,
      "hit": false,
      "t": 191599.14601666678,
      "d": 556.6040333333367,
      "v": 1
    },
    {
      "midi": 59,
      "hit": false,
      "t": 192165.18401666667,
      "d": 273.58503333333647,
      "v": 1
    },
    {
      "midi": 62,
      "hit": false,
      "t": 192165.18401666667,
      "d": 273.58503333333647,
      "v": 1
    },
    {
      "midi": 71,
      "hit": false,
      "t": 192165.18401666678,
      "d": 273.58503333333647,
      "v": 1
    },
    {
      "midi": 62,
      "hit": false,
      "t": 192448.20301666667,
      "d": 273.58503333333647,
      "v": 1
    },
    {
      "midi": 66,
      "hit": false,
      "t": 192448.20301666667,
      "d": 273.58503333333647,
      "v": 1
    },
    {
      "midi": 74,
      "hit": false,
      "t": 192448.20301666678,
      "d": 273.58503333333647,
      "v": 1
    },
    {
      "midi": 57,
      "hit": false,
      "t": 192731.22201666667,
      "d": 556.6040333333367,
      "v": 1
    },
    {
      "midi": 60,
      "hit": false,
      "t": 192731.22201666667,
      "d": 556.6040333333367,
      "v": 1
    },
    {
      "midi": 69,
      "hit": false,
      "t": 192731.22201666678,
      "d": 556.6040333333367,
      "v": 1
    },
    {
      "midi": 59,
      "hit": false,
      "t": 193297.26001666667,
      "d": 273.58503333333647,
      "v": 1
    },
    {
      "midi": 62,
      "hit": false,
      "t": 193297.26001666667,
      "d": 273.58503333333647,
      "v": 1
    },
    {
      "midi": 71,
      "hit": false,
      "t": 193297.26001666678,
      "d": 273.58503333333647,
      "v": 1
    },
    {
      "midi": 66,
      "hit": false,
      "t": 193580.27901666667,
      "d": 268.86804999999003,
      "v": 1
    },
    {
      "midi": 62,
      "hit": false,
      "t": 193580.27901666667,
      "d": 316.03788333333796,
      "v": 1
    },
    {
      "midi": 74,
      "hit": false,
      "t": 193580.27901666678,
      "d": 273.58503333333647,
      "v": 1
    },
    {
      "midi": 60,
      "hit": false,
      "t": 193863.29801666667,
      "d": 273.58503333333647,
      "v": 1
    },
    {
      "midi": 64,
      "hit": false,
      "t": 193863.29801666667,
      "d": 273.58503333333647,
      "v": 1
    },
    {
      "midi": 72,
      "hit": false,
      "t": 193863.29801666678,
      "d": 273.58503333333647,
      "v": 1
    },
    {
      "midi": 59,
      "hit": false,
      "t": 194146.31701666667,
      "d": 273.58503333333647,
      "v": 1
    },
    {
      "midi": 62,
      "hit": false,
      "t": 194146.31701666667,
      "d": 273.58503333333647,
      "v": 1
    },
    {
      "midi": 71,
      "hit": false,
      "t": 194146.31701666678,
      "d": 273.58503333333647,
      "v": 1
    },
    {
      "midi": 57,
      "hit": false,
      "t": 194429.33601666667,
      "d": 273.58503333333647,
      "v": 1
    },
    {
      "midi": 60,
      "hit": false,
      "t": 194429.33601666667,
      "d": 273.58503333333647,
      "v": 1
    },
    {
      "midi": 69,
      "hit": false,
      "t": 194429.33601666678,
      "d": 273.58503333333647,
      "v": 1
    },
    {
      "midi": 55,
      "hit": false,
      "t": 194712.35501666667,
      "d": 2254.718033333338,
      "v": 1
    },
    {
      "midi": 59,
      "hit": false,
      "t": 194712.35501666667,
      "d": 2254.718033333338,
      "v": 1
    },
    {
      "midi": 67,
      "hit": false,
      "t": 194712.35501666678,
      "d": 1122.6420333333372,
      "v": 1
    },
    {
      "midi": 43,
      "hit": false,
      "t": 194712.35501666678,
      "d": 2254.718033333338,
      "v": 1
    },
    {
      "midi": 47,
      "hit": false,
      "t": 194712.35501666678,
      "d": 2254.718033333338,
      "v": 1
    },
    {
      "midi": 50,
      "hit": false,
      "t": 194712.35501666678,
      "d": 2254.718033333338,
      "v": 1
    },
    {
      "midi": 45,
      "hit": false,
      "t": 196976.5070166668,
      "d": 2254.718033333338,
      "v": 1
    },
    {
      "midi": 49,
      "hit": false,
      "t": 196976.5070166668,
      "d": 2254.718033333338,
      "v": 1
    },
    {
      "midi": 52,
      "hit": false,
      "t": 196976.5070166668,
      "d": 2254.718033333338,
      "v": 1
    },
    {
      "midi": 50,
      "hit": false,
      "t": 199240.65901666667,
      "d": 4518.87003333334,
      "v": 1
    },
    {
      "midi": 57,
      "hit": false,
      "t": 199240.65901666667,
      "d": 4518.87003333334,
      "v": 1
    },
    {
      "midi": 62,
      "hit": false,
      "t": 199240.65901666667,
      "d": 4518.87003333334,
      "v": 1
    },
    {
      "midi": 69,
      "hit": false,
      "t": 199240.6590166668,
      "d": 273.58503333333647,
      "v": 1
    },
    {
      "midi": 42,
      "hit": false,
      "t": 199240.6590166668,
      "d": 3952.8320333333395,
      "v": 1
    },
    {
      "midi": 45,
      "hit": false,
      "t": 199240.6590166668,
      "d": 3952.8320333333395,
      "v": 1
    },
    {
      "midi": 50,
      "hit": false,
      "t": 199240.6590166668,
      "d": 3952.8320333333395,
      "v": 1
    },
    {
      "midi": 62,
      "hit": false,
      "t": 199523.6780166668,
      "d": 273.58503333333647,
      "v": 1
    },
    {
      "midi": 69,
      "hit": false,
      "t": 200372.7350166668,
      "d": 273.58503333333647,
      "v": 1
    },
    {
      "midi": 62,
      "hit": false,
      "t": 200655.7540166668,
      "d": 273.58503333333647,
      "v": 1
    },
    {
      "midi": 69,
      "hit": false,
      "t": 201504.8110166668,
      "d": 273.58503333333647,
      "v": 1
    },
    {
      "midi": 62,
      "hit": false,
      "t": 201787.8300166668,
      "d": 273.58503333333647,
      "v": 1
    },
    {
      "midi": 69,
      "hit": false,
      "t": 202636.8870166668,
      "d": 273.58503333333647,
      "v": 1
    },
    {
      "midi": 62,
      "hit": false,
      "t": 202919.9060166668,
      "d": 273.58503333333647,
      "v": 1
    },
    {
      "midi": 55,
      "hit": false,
      "t": 203202.92501666668,
      "d": 556.6040333333367,
      "v": 1
    },
    {
      "midi": 59,
      "hit": false,
      "t": 203202.92501666668,
      "d": 556.6040333333367,
      "v": 1
    },
    {
      "midi": 45,
      "hit": false,
      "t": 203202.9250166668,
      "d": 556.6040333333367,
      "v": 1
    },
    {
      "midi": 49,
      "hit": false,
      "t": 203202.9250166668,
      "d": 556.6040333333367,
      "v": 1
    },
    {
      "midi": 52,
      "hit": false,
      "t": 203202.9250166668,
      "d": 556.6040333333367,
      "v": 1
    },
    {
      "midi": 71,
      "hit": false,
      "t": 203202.9250166668,
      "d": 556.6040333333367,
      "v": 1
    },
    {
      "midi": 59,
      "hit": false,
      "t": 203768.96301666668,
      "d": 839.6230333333369,
      "v": 1
    },
    {
      "midi": 62,
      "hit": false,
      "t": 203768.96301666668,
      "d": 839.6230333333369,
      "v": 1
    },
    {
      "midi": 74,
      "hit": false,
      "t": 203768.9630166668,
      "d": 839.6230333333369,
      "v": 1
    },
    {
      "midi": 55,
      "hit": false,
      "t": 204618.02001666668,
      "d": 273.58503333333647,
      "v": 1
    },
    {
      "midi": 59,
      "hit": false,
      "t": 204618.02001666668,
      "d": 273.58503333333647,
      "v": 1
    },
    {
      "midi": 71,
      "hit": false,
      "t": 204618.0200166668,
      "d": 273.58503333333647,
      "v": 1
    },
    {
      "midi": 59,
      "hit": false,
      "t": 204901.03901666668,
      "d": 273.58503333333647,
      "v": 1
    },
    {
      "midi": 62,
      "hit": false,
      "t": 204901.03901666668,
      "d": 273.58503333333647,
      "v": 1
    },
    {
      "midi": 74,
      "hit": false,
      "t": 204901.0390166668,
      "d": 273.58503333333647,
      "v": 1
    },
    {
      "midi": 55,
      "hit": false,
      "t": 205184.05801666668,
      "d": 273.58503333333647,
      "v": 1
    },
    {
      "midi": 59,
      "hit": false,
      "t": 205184.05801666668,
      "d": 273.58503333333647,
      "v": 1
    },
    {
      "midi": 71,
      "hit": false,
      "t": 205184.0580166668,
      "d": 273.58503333333647,
      "v": 1
    },
    {
      "midi": 59,
      "hit": false,
      "t": 205467.07701666668,
      "d": 273.58503333333647,
      "v": 1
    },
    {
      "midi": 62,
      "hit": false,
      "t": 205467.07701666668,
      "d": 273.58503333333647,
      "v": 1
    },
    {
      "midi": 74,
      "hit": false,
      "t": 205467.0770166668,
      "d": 287.73598333334667,
      "v": 1
    },
    {
      "midi": 55,
      "hit": false,
      "t": 205750.09601666668,
      "d": 273.58503333333647,
      "v": 1
    },
    {
      "midi": 59,
      "hit": false,
      "t": 205750.09601666668,
      "d": 273.58503333333647,
      "v": 1
    },
    {
      "midi": 71,
      "hit": false,
      "t": 205750.0960166668,
      "d": 273.58503333333647,
      "v": 1
    },
    {
      "midi": 50,
      "hit": false,
      "t": 206033.11501666668,
      "d": 1405.6610333333374,
      "v": 1
    },
    {
      "midi": 55,
      "hit": false,
      "t": 206033.11501666668,
      "d": 1405.6610333333374,
      "v": 1
    },
    {
      "midi": 67,
      "hit": false,
      "t": 206033.1150166668,
      "d": 1405.6610333333374,
      "v": 1
    },
    {
      "midi": 50,
      "hit": false,
      "t": 207448.21001666668,
      "d": 839.6230333333369,
      "v": 1
    },
    {
      "midi": 55,
      "hit": false,
      "t": 207448.21001666668,
      "d": 839.6230333333369,
      "v": 1
    },
    {
      "midi": 59,
      "hit": false,
      "t": 207448.21001666668,
      "d": 839.6230333333369,
      "v": 1
    },
    {
      "midi": 71,
      "hit": false,
      "t": 207448.2100166668,
      "d": 273.58503333333647,
      "v": 1
    },
    {
      "midi": 71,
      "hit": false,
      "t": 207731.2290166668,
      "d": 273.58503333333647,
      "v": 1
    },
    {
      "midi": 71,
      "hit": false,
      "t": 208014.2480166668,
      "d": 273.58503333333647,
      "v": 1
    },
    {
      "midi": 54,
      "hit": false,
      "t": 208297.26701666668,
      "d": 1122.6420333333372,
      "v": 1
    },
    {
      "midi": 57,
      "hit": false,
      "t": 208297.26701666668,
      "d": 1122.6420333333372,
      "v": 1
    },
    {
      "midi": 69,
      "hit": false,
      "t": 208297.2670166668,
      "d": 1122.6420333333372,
      "v": 1
    },
    {
      "midi": 50,
      "hit": false,
      "t": 209429.34301666668,
      "d": 556.6040333333367,
      "v": 1
    },
    {
      "midi": 54,
      "hit": false,
      "t": 209429.34301666668,
      "d": 556.6040333333367,
      "v": 1
    },
    {
      "midi": 62,
      "hit": false,
      "t": 209429.3430166668,
      "d": 556.6040333333367,
      "v": 1
    },
    {
      "midi": 50,
      "hit": false,
      "t": 209995.38101666668,
      "d": 556.6040333333367,
      "v": 1
    },
    {
      "midi": 55,
      "hit": false,
      "t": 209995.38101666668,
      "d": 556.6040333333367,
      "v": 1
    },
    {
      "midi": 59,
      "hit": false,
      "t": 209995.38101666668,
      "d": 556.6040333333367,
      "v": 1
    },
    {
      "midi": 71,
      "hit": false,
      "t": 209995.3810166668,
      "d": 556.6040333333367,
      "v": 1
    },
    {
      "midi": 50,
      "hit": false,
      "t": 210561.41901666668,
      "d": 1688.6800333333376,
      "v": 1
    },
    {
      "midi": 54,
      "hit": false,
      "t": 210561.41901666668,
      "d": 1688.6800333333376,
      "v": 1
    },
    {
      "midi": 57,
      "hit": false,
      "t": 210561.41901666668,
      "d": 1688.6800333333376,
      "v": 1
    },
    {
      "midi": 69,
      "hit": false,
      "t": 210561.4190166668,
      "d": 1688.6800333333376,
      "v": 1
    },
    {
      "midi": 55,
      "hit": false,
      "t": 212259.53301666668,
      "d": 556.6040333333367,
      "v": 1
    },
    {
      "midi": 59,
      "hit": false,
      "t": 212259.53301666668,
      "d": 556.6040333333367,
      "v": 1
    },
    {
      "midi": 71,
      "hit": false,
      "t": 212259.5330166668,
      "d": 556.6040333333367,
      "v": 1
    },
    {
      "midi": 59,
      "hit": false,
      "t": 212825.57101666668,
      "d": 839.6230333333369,
      "v": 1
    },
    {
      "midi": 62,
      "hit": false,
      "t": 212825.57101666668,
      "d": 839.6230333333369,
      "v": 1
    },
    {
      "midi": 74,
      "hit": false,
      "t": 212825.5710166668,
      "d": 839.6230333333369,
      "v": 1
    },
    {
      "midi": 55,
      "hit": false,
      "t": 213674.62801666668,
      "d": 273.58503333333647,
      "v": 1
    },
    {
      "midi": 59,
      "hit": false,
      "t": 213674.62801666668,
      "d": 273.58503333333647,
      "v": 1
    },
    {
      "midi": 71,
      "hit": false,
      "t": 213674.6280166668,
      "d": 273.58503333333647,
      "v": 1
    },
    {
      "midi": 59,
      "hit": false,
      "t": 213957.64701666668,
      "d": 273.58503333333647,
      "v": 1
    },
    {
      "midi": 62,
      "hit": false,
      "t": 213957.64701666668,
      "d": 273.58503333333647,
      "v": 1
    },
    {
      "midi": 74,
      "hit": false,
      "t": 213957.6470166668,
      "d": 273.58503333333647,
      "v": 1
    },
    {
      "midi": 55,
      "hit": false,
      "t": 214240.66601666668,
      "d": 273.58503333333647,
      "v": 1
    },
    {
      "midi": 59,
      "hit": false,
      "t": 214240.66601666668,
      "d": 273.58503333333647,
      "v": 1
    },
    {
      "midi": 71,
      "hit": false,
      "t": 214240.6660166668,
      "d": 273.58503333333647,
      "v": 1
    },
    {
      "midi": 59,
      "hit": false,
      "t": 214523.68501666668,
      "d": 273.58503333333647,
      "v": 1
    },
    {
      "midi": 62,
      "hit": false,
      "t": 214523.68501666668,
      "d": 273.58503333333647,
      "v": 1
    },
    {
      "midi": 74,
      "hit": false,
      "t": 214523.6850166668,
      "d": 273.58503333333647,
      "v": 1
    },
    {
      "midi": 55,
      "hit": false,
      "t": 214806.70401666668,
      "d": 273.58503333333647,
      "v": 1
    },
    {
      "midi": 59,
      "hit": false,
      "t": 214806.70401666668,
      "d": 273.58503333333647,
      "v": 1
    },
    {
      "midi": 71,
      "hit": false,
      "t": 214806.7040166668,
      "d": 273.58503333333647,
      "v": 1
    },
    {
      "midi": 50,
      "hit": false,
      "t": 215089.72301666668,
      "d": 1405.6610333333374,
      "v": 1
    },
    {
      "midi": 55,
      "hit": false,
      "t": 215089.72301666668,
      "d": 1405.6610333333374,
      "v": 1
    },
    {
      "midi": 67,
      "hit": false,
      "t": 215089.7230166668,
      "d": 1405.6610333333374,
      "v": 1
    },
    {
      "midi": 50,
      "hit": false,
      "t": 216504.8180166667,
      "d": 839.6230333333369,
      "v": 1
    },
    {
      "midi": 55,
      "hit": false,
      "t": 216504.8180166667,
      "d": 839.6230333333369,
      "v": 1
    },
    {
      "midi": 59,
      "hit": false,
      "t": 216504.8180166667,
      "d": 839.6230333333369,
      "v": 1
    },
    {
      "midi": 71,
      "hit": false,
      "t": 216504.8180166668,
      "d": 273.58503333333647,
      "v": 1
    },
    {
      "midi": 71,
      "hit": false,
      "t": 216787.8370166668,
      "d": 273.58503333333647,
      "v": 1
    },
    {
      "midi": 71,
      "hit": false,
      "t": 217070.8560166668,
      "d": 273.58503333333647,
      "v": 1
    },
    {
      "midi": 54,
      "hit": false,
      "t": 217353.8750166667,
      "d": 1122.6420333333372,
      "v": 1
    },
    {
      "midi": 57,
      "hit": false,
      "t": 217353.8750166667,
      "d": 1122.6420333333372,
      "v": 1
    },
    {
      "midi": 69,
      "hit": false,
      "t": 217353.8750166668,
      "d": 1122.6420333333372,
      "v": 1
    },
    {
      "midi": 50,
      "hit": false,
      "t": 218485.9510166667,
      "d": 556.6040333333367,
      "v": 1
    },
    {
      "midi": 54,
      "hit": false,
      "t": 218485.9510166667,
      "d": 556.6040333333367,
      "v": 1
    },
    {
      "midi": 62,
      "hit": false,
      "t": 218485.9510166668,
      "d": 556.6040333333367,
      "v": 1
    },
    {
      "midi": 50,
      "hit": false,
      "t": 219051.9890166667,
      "d": 556.6040333333367,
      "v": 1
    },
    {
      "midi": 54,
      "hit": false,
      "t": 219051.9890166667,
      "d": 556.6040333333367,
      "v": 1
    },
    {
      "midi": 59,
      "hit": false,
      "t": 219051.9890166667,
      "d": 556.6040333333367,
      "v": 1
    },
    {
      "midi": 71,
      "hit": false,
      "t": 219051.9890166668,
      "d": 556.6040333333367,
      "v": 1
    },
    {
      "midi": 50,
      "hit": false,
      "t": 219618.0270166667,
      "d": 2254.718033333338,
      "v": 1
    },
    {
      "midi": 67,
      "hit": false,
      "t": 219618.0270166668,
      "d": 2254.718033333338,
      "v": 1
    },
    {
      "midi": 55,
      "hit": false,
      "t": 221316.1410166667,
      "d": 556.6040333333367,
      "v": 1
    },
    {
      "midi": 59,
      "hit": false,
      "t": 221316.1410166667,
      "d": 556.6040333333367,
      "v": 1
    },
    {
      "midi": 71,
      "hit": false,
      "t": 221316.1410166668,
      "d": 556.6040333333367,
      "v": 1
    },
    {
      "midi": 59,
      "hit": false,
      "t": 221882.1790166667,
      "d": 839.6230333333369,
      "v": 1
    },
    {
      "midi": 62,
      "hit": false,
      "t": 221882.1790166667,
      "d": 839.6230333333369,
      "v": 1
    },
    {
      "midi": 74,
      "hit": false,
      "t": 221882.1790166668,
      "d": 839.6230333333369,
      "v": 1
    },
    {
      "midi": 31,
      "hit": false,
      "t": 221882.1790166668,
      "d": 4518.87003333334,
      "v": 1
    },
    {
      "midi": 35,
      "hit": false,
      "t": 221882.1790166668,
      "d": 4518.87003333334,
      "v": 1
    },
    {
      "midi": 38,
      "hit": false,
      "t": 221882.1790166668,
      "d": 4518.87003333334,
      "v": 1
    },
    {
      "midi": 55,
      "hit": false,
      "t": 222731.2360166667,
      "d": 273.58503333333647,
      "v": 1
    },
    {
      "midi": 59,
      "hit": false,
      "t": 222731.2360166667,
      "d": 273.58503333333647,
      "v": 1
    },
    {
      "midi": 71,
      "hit": false,
      "t": 222731.2360166668,
      "d": 273.58503333333647,
      "v": 1
    },
    {
      "midi": 59,
      "hit": false,
      "t": 223014.2550166667,
      "d": 273.58503333333647,
      "v": 1
    },
    {
      "midi": 62,
      "hit": false,
      "t": 223014.2550166667,
      "d": 273.58503333333647,
      "v": 1
    },
    {
      "midi": 74,
      "hit": false,
      "t": 223014.2550166668,
      "d": 273.58503333333647,
      "v": 1
    },
    {
      "midi": 55,
      "hit": false,
      "t": 223297.2740166667,
      "d": 273.58503333333647,
      "v": 1
    },
    {
      "midi": 59,
      "hit": false,
      "t": 223297.2740166667,
      "d": 273.58503333333647,
      "v": 1
    },
    {
      "midi": 71,
      "hit": false,
      "t": 223297.2740166668,
      "d": 273.58503333333647,
      "v": 1
    },
    {
      "midi": 59,
      "hit": false,
      "t": 223580.2930166667,
      "d": 273.58503333333647,
      "v": 1
    },
    {
      "midi": 62,
      "hit": false,
      "t": 223580.2930166667,
      "d": 273.58503333333647,
      "v": 1
    },
    {
      "midi": 74,
      "hit": false,
      "t": 223580.2930166668,
      "d": 287.73598333334667,
      "v": 1
    },
    {
      "midi": 55,
      "hit": false,
      "t": 223863.3120166667,
      "d": 273.58503333333647,
      "v": 1
    },
    {
      "midi": 59,
      "hit": false,
      "t": 223863.3120166667,
      "d": 273.58503333333647,
      "v": 1
    },
    {
      "midi": 71,
      "hit": false,
      "t": 223863.3120166668,
      "d": 273.58503333333647,
      "v": 1
    },
    {
      "midi": 50,
      "hit": false,
      "t": 224146.3310166667,
      "d": 1405.6610333333374,
      "v": 1
    },
    {
      "midi": 55,
      "hit": false,
      "t": 224146.3310166667,
      "d": 1405.6610333333374,
      "v": 1
    },
    {
      "midi": 67,
      "hit": false,
      "t": 224146.3310166668,
      "d": 1405.6610333333374,
      "v": 1
    },
    {
      "midi": 50,
      "hit": false,
      "t": 225561.4260166667,
      "d": 839.6230333333369,
      "v": 1
    },
    {
      "midi": 55,
      "hit": false,
      "t": 225561.4260166667,
      "d": 839.6230333333369,
      "v": 1
    },
    {
      "midi": 59,
      "hit": false,
      "t": 225561.4260166667,
      "d": 839.6230333333369,
      "v": 1
    },
    {
      "midi": 71,
      "hit": false,
      "t": 225561.4260166668,
      "d": 273.58503333333647,
      "v": 1
    },
    {
      "midi": 71,
      "hit": false,
      "t": 225844.4450166668,
      "d": 273.58503333333647,
      "v": 1
    },
    {
      "midi": 71,
      "hit": false,
      "t": 226127.4640166668,
      "d": 273.58503333333647,
      "v": 1
    },
    {
      "midi": 54,
      "hit": false,
      "t": 226410.4830166667,
      "d": 1122.6420333333372,
      "v": 1
    },
    {
      "midi": 57,
      "hit": false,
      "t": 226410.4830166667,
      "d": 1122.6420333333372,
      "v": 1
    },
    {
      "midi": 69,
      "hit": false,
      "t": 226410.4830166668,
      "d": 1122.6420333333372,
      "v": 1
    },
    {
      "midi": 30,
      "hit": false,
      "t": 226410.4830166668,
      "d": 4518.87003333334,
      "v": 1
    },
    {
      "midi": 33,
      "hit": false,
      "t": 226410.4830166668,
      "d": 4518.87003333334,
      "v": 1
    },
    {
      "midi": 38,
      "hit": false,
      "t": 226410.4830166668,
      "d": 4518.87003333334,
      "v": 1
    },
    {
      "midi": 50,
      "hit": false,
      "t": 227542.5590166667,
      "d": 556.6040333333367,
      "v": 1
    },
    {
      "midi": 54,
      "hit": false,
      "t": 227542.5590166667,
      "d": 556.6040333333367,
      "v": 1
    },
    {
      "midi": 62,
      "hit": false,
      "t": 227542.5590166668,
      "d": 556.6040333333367,
      "v": 1
    },
    {
      "midi": 50,
      "hit": false,
      "t": 228108.5970166667,
      "d": 556.6040333333367,
      "v": 1
    },
    {
      "midi": 55,
      "hit": false,
      "t": 228108.5970166667,
      "d": 556.6040333333367,
      "v": 1
    },
    {
      "midi": 59,
      "hit": false,
      "t": 228108.5970166667,
      "d": 556.6040333333367,
      "v": 1
    },
    {
      "midi": 71,
      "hit": false,
      "t": 228108.5970166668,
      "d": 556.6040333333367,
      "v": 1
    },
    {
      "midi": 50,
      "hit": false,
      "t": 228674.6350166667,
      "d": 1688.6800333333376,
      "v": 1
    },
    {
      "midi": 54,
      "hit": false,
      "t": 228674.6350166667,
      "d": 1688.6800333333376,
      "v": 1
    },
    {
      "midi": 57,
      "hit": false,
      "t": 228674.6350166667,
      "d": 1688.6800333333376,
      "v": 1
    },
    {
      "midi": 69,
      "hit": false,
      "t": 228674.6350166668,
      "d": 1688.6800333333376,
      "v": 1
    },
    {
      "midi": 55,
      "hit": false,
      "t": 230372.7490166667,
      "d": 556.6040333333367,
      "v": 1
    },
    {
      "midi": 59,
      "hit": false,
      "t": 230372.7490166667,
      "d": 556.6040333333367,
      "v": 1
    },
    {
      "midi": 71,
      "hit": false,
      "t": 230372.7490166668,
      "d": 556.6040333333367,
      "v": 1
    },
    {
      "midi": 59,
      "hit": false,
      "t": 230938.7870166667,
      "d": 839.6230333333369,
      "v": 1
    },
    {
      "midi": 62,
      "hit": false,
      "t": 230938.7870166667,
      "d": 839.6230333333369,
      "v": 1
    },
    {
      "midi": 74,
      "hit": false,
      "t": 230938.7870166668,
      "d": 839.6230333333369,
      "v": 1
    },
    {
      "midi": 31,
      "hit": false,
      "t": 230938.7870166668,
      "d": 4518.87003333334,
      "v": 1
    },
    {
      "midi": 35,
      "hit": false,
      "t": 230938.7870166668,
      "d": 4518.87003333334,
      "v": 1
    },
    {
      "midi": 38,
      "hit": false,
      "t": 230938.7870166668,
      "d": 4518.87003333334,
      "v": 1
    },
    {
      "midi": 55,
      "hit": false,
      "t": 231787.8440166667,
      "d": 273.58503333333647,
      "v": 1
    },
    {
      "midi": 59,
      "hit": false,
      "t": 231787.8440166667,
      "d": 273.58503333333647,
      "v": 1
    },
    {
      "midi": 71,
      "hit": false,
      "t": 231787.84401666682,
      "d": 273.58503333333647,
      "v": 1
    },
    {
      "midi": 59,
      "hit": false,
      "t": 232070.8630166667,
      "d": 273.58503333333647,
      "v": 1
    },
    {
      "midi": 62,
      "hit": false,
      "t": 232070.8630166667,
      "d": 273.58503333333647,
      "v": 1
    },
    {
      "midi": 74,
      "hit": false,
      "t": 232070.86301666682,
      "d": 273.58503333333647,
      "v": 1
    },
    {
      "midi": 55,
      "hit": false,
      "t": 232353.8820166667,
      "d": 273.58503333333647,
      "v": 1
    },
    {
      "midi": 59,
      "hit": false,
      "t": 232353.8820166667,
      "d": 273.58503333333647,
      "v": 1
    },
    {
      "midi": 71,
      "hit": false,
      "t": 232353.88201666682,
      "d": 273.58503333333647,
      "v": 1
    },
    {
      "midi": 59,
      "hit": false,
      "t": 232636.9010166667,
      "d": 273.58503333333647,
      "v": 1
    },
    {
      "midi": 62,
      "hit": false,
      "t": 232636.9010166667,
      "d": 273.58503333333647,
      "v": 1
    },
    {
      "midi": 74,
      "hit": false,
      "t": 232636.90101666682,
      "d": 273.58503333333647,
      "v": 1
    },
    {
      "midi": 55,
      "hit": false,
      "t": 232919.9200166667,
      "d": 273.58503333333647,
      "v": 1
    },
    {
      "midi": 59,
      "hit": false,
      "t": 232919.9200166667,
      "d": 273.58503333333647,
      "v": 1
    },
    {
      "midi": 71,
      "hit": false,
      "t": 232919.92001666682,
      "d": 273.58503333333647,
      "v": 1
    },
    {
      "midi": 50,
      "hit": false,
      "t": 233202.9390166667,
      "d": 1405.6610333333374,
      "v": 1
    },
    {
      "midi": 55,
      "hit": false,
      "t": 233202.9390166667,
      "d": 1405.6610333333374,
      "v": 1
    },
    {
      "midi": 67,
      "hit": false,
      "t": 233202.93901666682,
      "d": 1405.6610333333374,
      "v": 1
    },
    {
      "midi": 50,
      "hit": false,
      "t": 234618.0340166667,
      "d": 839.6230333333369,
      "v": 1
    },
    {
      "midi": 55,
      "hit": false,
      "t": 234618.0340166667,
      "d": 839.6230333333369,
      "v": 1
    },
    {
      "midi": 59,
      "hit": false,
      "t": 234618.0340166667,
      "d": 839.6230333333369,
      "v": 1
    },
    {
      "midi": 71,
      "hit": false,
      "t": 234618.03401666682,
      "d": 273.58503333333647,
      "v": 1
    },
    {
      "midi": 71,
      "hit": false,
      "t": 234901.05301666682,
      "d": 273.58503333333647,
      "v": 1
    },
    {
      "midi": 71,
      "hit": false,
      "t": 235184.07201666682,
      "d": 273.58503333333647,
      "v": 1
    },
    {
      "midi": 54,
      "hit": false,
      "t": 235467.0910166667,
      "d": 1122.6420333333372,
      "v": 1
    },
    {
      "midi": 57,
      "hit": false,
      "t": 235467.0910166667,
      "d": 1122.6420333333372,
      "v": 1
    },
    {
      "midi": 69,
      "hit": false,
      "t": 235467.09101666682,
      "d": 1122.6420333333372,
      "v": 1
    },
    {
      "midi": 30,
      "hit": false,
      "t": 235467.09101666682,
      "d": 2254.718033333338,
      "v": 1
    },
    {
      "midi": 33,
      "hit": false,
      "t": 235467.09101666682,
      "d": 2254.718033333338,
      "v": 1
    },
    {
      "midi": 38,
      "hit": false,
      "t": 235467.09101666682,
      "d": 2254.718033333338,
      "v": 1
    },
    {
      "midi": 50,
      "hit": false,
      "t": 236599.1670166667,
      "d": 556.6040333333367,
      "v": 1
    },
    {
      "midi": 54,
      "hit": false,
      "t": 236599.1670166667,
      "d": 556.6040333333367,
      "v": 1
    },
    {
      "midi": 62,
      "hit": false,
      "t": 236599.16701666682,
      "d": 556.6040333333367,
      "v": 1
    },
    {
      "midi": 50,
      "hit": false,
      "t": 237165.2050166667,
      "d": 556.6040333333367,
      "v": 1
    },
    {
      "midi": 54,
      "hit": false,
      "t": 237165.2050166667,
      "d": 556.6040333333367,
      "v": 1
    },
    {
      "midi": 59,
      "hit": false,
      "t": 237165.2050166667,
      "d": 556.6040333333367,
      "v": 1
    },
    {
      "midi": 71,
      "hit": false,
      "t": 237165.20501666682,
      "d": 556.6040333333367,
      "v": 1
    },
    {
      "midi": 50,
      "hit": false,
      "t": 237731.2430166667,
      "d": 2254.718033333338,
      "v": 1
    },
    {
      "midi": 31,
      "hit": false,
      "t": 237731.24301666682,
      "d": 2254.718033333338,
      "v": 1
    },
    {
      "midi": 35,
      "hit": false,
      "t": 237731.24301666682,
      "d": 2254.718033333338,
      "v": 1
    },
    {
      "midi": 38,
      "hit": false,
      "t": 237731.24301666682,
      "d": 2254.718033333338,
      "v": 1
    },
    {
      "midi": 67,
      "hit": false,
      "t": 237731.24301666682,
      "d": 2254.718033333338,
      "v": 1
    },
    {
      "midi": 55,
      "hit": false,
      "t": 239429.3570166667,
      "d": 556.6040333333367,
      "v": 1
    },
    {
      "midi": 59,
      "hit": false,
      "t": 239429.3570166667,
      "d": 556.6040333333367,
      "v": 1
    },
    {
      "midi": 71,
      "hit": false,
      "t": 239429.35701666682,
      "d": 556.6040333333367,
      "v": 1
    },
    {
      "midi": 59,
      "hit": false,
      "t": 239995.3950166667,
      "d": 839.6230333333369,
      "v": 1
    },
    {
      "midi": 62,
      "hit": false,
      "t": 239995.3950166667,
      "d": 839.6230333333369,
      "v": 1
    },
    {
      "midi": 74,
      "hit": false,
      "t": 239995.39501666682,
      "d": 839.6230333333369,
      "v": 1
    },
    {
      "midi": 31,
      "hit": false,
      "t": 239995.39501666682,
      "d": 4518.87003333334,
      "v": 1
    },
    {
      "midi": 35,
      "hit": false,
      "t": 239995.39501666682,
      "d": 4518.87003333334,
      "v": 1
    },
    {
      "midi": 38,
      "hit": false,
      "t": 239995.39501666682,
      "d": 4518.87003333334,
      "v": 1
    },
    {
      "midi": 55,
      "hit": false,
      "t": 240844.4520166667,
      "d": 273.58503333333647,
      "v": 1
    },
    {
      "midi": 59,
      "hit": false,
      "t": 240844.4520166667,
      "d": 273.58503333333647,
      "v": 1
    },
    {
      "midi": 71,
      "hit": false,
      "t": 240844.45201666682,
      "d": 273.58503333333647,
      "v": 1
    },
    {
      "midi": 59,
      "hit": false,
      "t": 241127.4710166667,
      "d": 273.58503333333647,
      "v": 1
    },
    {
      "midi": 62,
      "hit": false,
      "t": 241127.4710166667,
      "d": 273.58503333333647,
      "v": 1
    },
    {
      "midi": 74,
      "hit": false,
      "t": 241127.47101666682,
      "d": 273.58503333333647,
      "v": 1
    },
    {
      "midi": 55,
      "hit": false,
      "t": 241410.4900166667,
      "d": 273.58503333333647,
      "v": 1
    },
    {
      "midi": 59,
      "hit": false,
      "t": 241410.4900166667,
      "d": 273.58503333333647,
      "v": 1
    },
    {
      "midi": 71,
      "hit": false,
      "t": 241410.49001666682,
      "d": 273.58503333333647,
      "v": 1
    },
    {
      "midi": 59,
      "hit": false,
      "t": 241693.5090166667,
      "d": 273.58503333333647,
      "v": 1
    },
    {
      "midi": 62,
      "hit": false,
      "t": 241693.5090166667,
      "d": 273.58503333333647,
      "v": 1
    },
    {
      "midi": 74,
      "hit": false,
      "t": 241693.50901666682,
      "d": 287.73598333334667,
      "v": 1
    },
    {
      "midi": 55,
      "hit": false,
      "t": 241976.5280166667,
      "d": 273.58503333333647,
      "v": 1
    },
    {
      "midi": 59,
      "hit": false,
      "t": 241976.5280166667,
      "d": 273.58503333333647,
      "v": 1
    },
    {
      "midi": 71,
      "hit": false,
      "t": 241976.52801666682,
      "d": 273.58503333333647,
      "v": 1
    },
    {
      "midi": 50,
      "hit": false,
      "t": 242259.5470166667,
      "d": 1405.6610333333374,
      "v": 1
    },
    {
      "midi": 55,
      "hit": false,
      "t": 242259.5470166667,
      "d": 1405.6610333333374,
      "v": 1
    },
    {
      "midi": 67,
      "hit": false,
      "t": 242259.54701666682,
      "d": 1405.6610333333374,
      "v": 1
    },
    {
      "midi": 50,
      "hit": false,
      "t": 243674.6420166667,
      "d": 839.6230333333369,
      "v": 1
    },
    {
      "midi": 55,
      "hit": false,
      "t": 243674.6420166667,
      "d": 839.6230333333369,
      "v": 1
    },
    {
      "midi": 59,
      "hit": false,
      "t": 243674.6420166667,
      "d": 839.6230333333369,
      "v": 1
    },
    {
      "midi": 71,
      "hit": false,
      "t": 243674.64201666682,
      "d": 273.58503333333647,
      "v": 1
    },
    {
      "midi": 71,
      "hit": false,
      "t": 243957.66101666683,
      "d": 273.58503333333647,
      "v": 1
    },
    {
      "midi": 71,
      "hit": false,
      "t": 244240.68001666683,
      "d": 273.58503333333647,
      "v": 1
    },
    {
      "midi": 54,
      "hit": false,
      "t": 244523.6990166667,
      "d": 1122.6420333333372,
      "v": 1
    },
    {
      "midi": 57,
      "hit": false,
      "t": 244523.6990166667,
      "d": 1122.6420333333372,
      "v": 1
    },
    {
      "midi": 69,
      "hit": false,
      "t": 244523.69901666683,
      "d": 1122.6420333333372,
      "v": 1
    },
    {
      "midi": 30,
      "hit": false,
      "t": 244523.69901666683,
      "d": 4518.87003333334,
      "v": 1
    },
    {
      "midi": 33,
      "hit": false,
      "t": 244523.69901666683,
      "d": 4518.87003333334,
      "v": 1
    },
    {
      "midi": 38,
      "hit": false,
      "t": 244523.69901666683,
      "d": 4518.87003333334,
      "v": 1
    },
    {
      "midi": 50,
      "hit": false,
      "t": 245655.7750166667,
      "d": 556.6040333333367,
      "v": 1
    },
    {
      "midi": 54,
      "hit": false,
      "t": 245655.7750166667,
      "d": 556.6040333333367,
      "v": 1
    },
    {
      "midi": 62,
      "hit": false,
      "t": 245655.77501666683,
      "d": 556.6040333333367,
      "v": 1
    },
    {
      "midi": 50,
      "hit": false,
      "t": 246221.8130166667,
      "d": 556.6040333333367,
      "v": 1
    },
    {
      "midi": 55,
      "hit": false,
      "t": 246221.8130166667,
      "d": 556.6040333333367,
      "v": 1
    },
    {
      "midi": 59,
      "hit": false,
      "t": 246221.8130166667,
      "d": 556.6040333333367,
      "v": 1
    },
    {
      "midi": 71,
      "hit": false,
      "t": 246221.81301666683,
      "d": 556.6040333333367,
      "v": 1
    },
    {
      "midi": 50,
      "hit": false,
      "t": 246787.8510166667,
      "d": 1688.6800333333376,
      "v": 1
    },
    {
      "midi": 54,
      "hit": false,
      "t": 246787.8510166667,
      "d": 1688.6800333333376,
      "v": 1
    },
    {
      "midi": 57,
      "hit": false,
      "t": 246787.8510166667,
      "d": 1688.6800333333376,
      "v": 1
    },
    {
      "midi": 69,
      "hit": false,
      "t": 246787.85101666683,
      "d": 1688.6800333333376,
      "v": 1
    },
    {
      "midi": 55,
      "hit": false,
      "t": 248485.9650166667,
      "d": 556.6040333333367,
      "v": 1
    },
    {
      "midi": 59,
      "hit": false,
      "t": 248485.9650166667,
      "d": 556.6040333333367,
      "v": 1
    },
    {
      "midi": 71,
      "hit": false,
      "t": 248485.96501666683,
      "d": 556.6040333333367,
      "v": 1
    },
    {
      "midi": 59,
      "hit": false,
      "t": 249052.0030166667,
      "d": 839.6230333333369,
      "v": 1
    },
    {
      "midi": 62,
      "hit": false,
      "t": 249052.0030166667,
      "d": 839.6230333333369,
      "v": 1
    },
    {
      "midi": 74,
      "hit": false,
      "t": 249052.00301666683,
      "d": 839.6230333333369,
      "v": 1
    },
    {
      "midi": 31,
      "hit": false,
      "t": 249052.00301666683,
      "d": 4518.87003333334,
      "v": 1
    },
    {
      "midi": 35,
      "hit": false,
      "t": 249052.00301666683,
      "d": 4518.87003333334,
      "v": 1
    },
    {
      "midi": 38,
      "hit": false,
      "t": 249052.00301666683,
      "d": 4518.87003333334,
      "v": 1
    },
    {
      "midi": 55,
      "hit": false,
      "t": 249901.0600166667,
      "d": 273.58503333333647,
      "v": 1
    },
    {
      "midi": 59,
      "hit": false,
      "t": 249901.0600166667,
      "d": 273.58503333333647,
      "v": 1
    },
    {
      "midi": 71,
      "hit": false,
      "t": 249901.06001666683,
      "d": 273.58503333333647,
      "v": 1
    },
    {
      "midi": 59,
      "hit": false,
      "t": 250184.0790166667,
      "d": 273.58503333333647,
      "v": 1
    },
    {
      "midi": 62,
      "hit": false,
      "t": 250184.0790166667,
      "d": 273.58503333333647,
      "v": 1
    },
    {
      "midi": 74,
      "hit": false,
      "t": 250184.07901666683,
      "d": 273.58503333333647,
      "v": 1
    },
    {
      "midi": 55,
      "hit": false,
      "t": 250467.0980166667,
      "d": 273.58503333333647,
      "v": 1
    },
    {
      "midi": 59,
      "hit": false,
      "t": 250467.0980166667,
      "d": 273.58503333333647,
      "v": 1
    },
    {
      "midi": 71,
      "hit": false,
      "t": 250467.09801666683,
      "d": 273.58503333333647,
      "v": 1
    },
    {
      "midi": 59,
      "hit": false,
      "t": 250750.1170166667,
      "d": 273.58503333333647,
      "v": 1
    },
    {
      "midi": 62,
      "hit": false,
      "t": 250750.1170166667,
      "d": 273.58503333333647,
      "v": 1
    },
    {
      "midi": 74,
      "hit": false,
      "t": 250750.11701666683,
      "d": 273.58503333333647,
      "v": 1
    },
    {
      "midi": 55,
      "hit": false,
      "t": 251033.13601666671,
      "d": 273.58503333333647,
      "v": 1
    },
    {
      "midi": 59,
      "hit": false,
      "t": 251033.13601666671,
      "d": 273.58503333333647,
      "v": 1
    },
    {
      "midi": 71,
      "hit": false,
      "t": 251033.13601666683,
      "d": 273.58503333333647,
      "v": 1
    },
    {
      "midi": 50,
      "hit": false,
      "t": 251316.15501666671,
      "d": 1405.6610333333374,
      "v": 1
    },
    {
      "midi": 55,
      "hit": false,
      "t": 251316.15501666671,
      "d": 1405.6610333333374,
      "v": 1
    },
    {
      "midi": 67,
      "hit": false,
      "t": 251316.15501666683,
      "d": 1405.6610333333374,
      "v": 1
    },
    {
      "midi": 50,
      "hit": false,
      "t": 252731.25001666672,
      "d": 839.6230333333369,
      "v": 1
    },
    {
      "midi": 55,
      "hit": false,
      "t": 252731.25001666672,
      "d": 839.6230333333369,
      "v": 1
    },
    {
      "midi": 59,
      "hit": false,
      "t": 252731.25001666672,
      "d": 839.6230333333369,
      "v": 1
    },
    {
      "midi": 71,
      "hit": false,
      "t": 252731.25001666683,
      "d": 273.58503333333647,
      "v": 1
    },
    {
      "midi": 71,
      "hit": false,
      "t": 253014.26901666683,
      "d": 273.58503333333647,
      "v": 1
    },
    {
      "midi": 71,
      "hit": false,
      "t": 253297.28801666683,
      "d": 273.58503333333647,
      "v": 1
    },
    {
      "midi": 54,
      "hit": false,
      "t": 253580.30701666672,
      "d": 1122.6420333333372,
      "v": 1
    },
    {
      "midi": 57,
      "hit": false,
      "t": 253580.30701666672,
      "d": 1122.6420333333372,
      "v": 1
    },
    {
      "midi": 69,
      "hit": false,
      "t": 253580.30701666683,
      "d": 1122.6420333333372,
      "v": 1
    },
    {
      "midi": 30,
      "hit": false,
      "t": 253580.30701666683,
      "d": 2254.718033333338,
      "v": 1
    },
    {
      "midi": 33,
      "hit": false,
      "t": 253580.30701666683,
      "d": 2254.718033333338,
      "v": 1
    },
    {
      "midi": 38,
      "hit": false,
      "t": 253580.30701666683,
      "d": 2254.718033333338,
      "v": 1
    },
    {
      "midi": 50,
      "hit": false,
      "t": 254712.38301666672,
      "d": 556.6040333333367,
      "v": 1
    },
    {
      "midi": 54,
      "hit": false,
      "t": 254712.38301666672,
      "d": 556.6040333333367,
      "v": 1
    },
    {
      "midi": 62,
      "hit": false,
      "t": 254712.38301666683,
      "d": 556.6040333333367,
      "v": 1
    },
    {
      "midi": 50,
      "hit": false,
      "t": 255278.42101666672,
      "d": 556.6040333333367,
      "v": 1
    },
    {
      "midi": 54,
      "hit": false,
      "t": 255278.42101666672,
      "d": 556.6040333333367,
      "v": 1
    },
    {
      "midi": 59,
      "hit": false,
      "t": 255278.42101666672,
      "d": 556.6040333333367,
      "v": 1
    },
    {
      "midi": 71,
      "hit": false,
      "t": 255278.42101666683,
      "d": 556.6040333333367,
      "v": 1
    },
    {
      "midi": 50,
      "hit": false,
      "t": 255844.45901666672,
      "d": 2254.718033333338,
      "v": 1
    },
    {
      "midi": 31,
      "hit": false,
      "t": 255844.45901666683,
      "d": 2254.718033333338,
      "v": 1
    },
    {
      "midi": 35,
      "hit": false,
      "t": 255844.45901666683,
      "d": 2254.718033333338,
      "v": 1
    },
    {
      "midi": 38,
      "hit": false,
      "t": 255844.45901666683,
      "d": 2254.718033333338,
      "v": 1
    },
    {
      "midi": 67,
      "hit": false,
      "t": 255844.45901666683,
      "d": 2254.718033333338,
      "v": 1
    },
    {
      "midi": 55,
      "hit": false,
      "t": 257542.57301666672,
      "d": 556.6040333333367,
      "v": 1
    },
    {
      "midi": 59,
      "hit": false,
      "t": 257542.57301666672,
      "d": 556.6040333333367,
      "v": 1
    },
    {
      "midi": 71,
      "hit": false,
      "t": 257542.57301666684,
      "d": 556.6040333333367,
      "v": 1
    },
    {
      "midi": 59,
      "hit": false,
      "t": 258108.61101666672,
      "d": 839.6230333333369,
      "v": 1
    },
    {
      "midi": 62,
      "hit": false,
      "t": 258108.61101666672,
      "d": 839.6230333333369,
      "v": 1
    },
    {
      "midi": 74,
      "hit": false,
      "t": 258108.61101666684,
      "d": 839.6230333333369,
      "v": 1
    },
    {
      "midi": 31,
      "hit": false,
      "t": 258108.61101666684,
      "d": 4518.87003333334,
      "v": 1
    },
    {
      "midi": 35,
      "hit": false,
      "t": 258108.61101666684,
      "d": 4518.87003333334,
      "v": 1
    },
    {
      "midi": 38,
      "hit": false,
      "t": 258108.61101666684,
      "d": 4518.87003333334,
      "v": 1
    },
    {
      "midi": 55,
      "hit": false,
      "t": 258957.66801666672,
      "d": 273.58503333333647,
      "v": 1
    },
    {
      "midi": 59,
      "hit": false,
      "t": 258957.66801666672,
      "d": 273.58503333333647,
      "v": 1
    },
    {
      "midi": 71,
      "hit": false,
      "t": 258957.66801666684,
      "d": 273.58503333333647,
      "v": 1
    },
    {
      "midi": 59,
      "hit": false,
      "t": 259240.68701666672,
      "d": 273.58503333333647,
      "v": 1
    },
    {
      "midi": 62,
      "hit": false,
      "t": 259240.68701666672,
      "d": 273.58503333333647,
      "v": 1
    },
    {
      "midi": 74,
      "hit": false,
      "t": 259240.68701666684,
      "d": 273.58503333333647,
      "v": 1
    },
    {
      "midi": 55,
      "hit": false,
      "t": 259523.70601666672,
      "d": 273.58503333333647,
      "v": 1
    },
    {
      "midi": 59,
      "hit": false,
      "t": 259523.70601666672,
      "d": 273.58503333333647,
      "v": 1
    },
    {
      "midi": 71,
      "hit": false,
      "t": 259523.70601666684,
      "d": 273.58503333333647,
      "v": 1
    },
    {
      "midi": 59,
      "hit": false,
      "t": 259806.72501666672,
      "d": 273.58503333333647,
      "v": 1
    },
    {
      "midi": 62,
      "hit": false,
      "t": 259806.72501666672,
      "d": 273.58503333333647,
      "v": 1
    },
    {
      "midi": 74,
      "hit": false,
      "t": 259806.72501666684,
      "d": 287.73598333334667,
      "v": 1
    },
    {
      "midi": 55,
      "hit": false,
      "t": 260089.74401666672,
      "d": 273.58503333333647,
      "v": 1
    },
    {
      "midi": 59,
      "hit": false,
      "t": 260089.74401666672,
      "d": 273.58503333333647,
      "v": 1
    },
    {
      "midi": 71,
      "hit": false,
      "t": 260089.74401666684,
      "d": 273.58503333333647,
      "v": 1
    },
    {
      "midi": 50,
      "hit": false,
      "t": 260372.76301666672,
      "d": 1405.6610333333374,
      "v": 1
    },
    {
      "midi": 55,
      "hit": false,
      "t": 260372.76301666672,
      "d": 1405.6610333333374,
      "v": 1
    },
    {
      "midi": 67,
      "hit": false,
      "t": 260372.76301666684,
      "d": 1405.6610333333374,
      "v": 1
    },
    {
      "midi": 50,
      "hit": false,
      "t": 261787.85801666672,
      "d": 839.6230333333369,
      "v": 1
    },
    {
      "midi": 55,
      "hit": false,
      "t": 261787.85801666672,
      "d": 839.6230333333369,
      "v": 1
    },
    {
      "midi": 59,
      "hit": false,
      "t": 261787.85801666672,
      "d": 839.6230333333369,
      "v": 1
    },
    {
      "midi": 71,
      "hit": false,
      "t": 261787.85801666684,
      "d": 273.58503333333647,
      "v": 1
    },
    {
      "midi": 71,
      "hit": false,
      "t": 262070.87701666684,
      "d": 273.58503333330736,
      "v": 1
    },
    {
      "midi": 71,
      "hit": false,
      "t": 262353.89601666684,
      "d": 273.58503333333647,
      "v": 1
    },
    {
      "midi": 54,
      "hit": false,
      "t": 262636.91501666675,
      "d": 1122.642033333308,
      "v": 1
    },
    {
      "midi": 57,
      "hit": false,
      "t": 262636.91501666675,
      "d": 1122.642033333308,
      "v": 1
    },
    {
      "midi": 69,
      "hit": false,
      "t": 262636.91501666687,
      "d": 1122.642033333308,
      "v": 1
    },
    {
      "midi": 30,
      "hit": false,
      "t": 262636.91501666687,
      "d": 4518.870033333311,
      "v": 1
    },
    {
      "midi": 33,
      "hit": false,
      "t": 262636.91501666687,
      "d": 4518.870033333311,
      "v": 1
    },
    {
      "midi": 38,
      "hit": false,
      "t": 262636.91501666687,
      "d": 4518.870033333311,
      "v": 1
    },
    {
      "midi": 50,
      "hit": false,
      "t": 263768.99101666675,
      "d": 556.6040333333076,
      "v": 1
    },
    {
      "midi": 54,
      "hit": false,
      "t": 263768.99101666675,
      "d": 556.6040333333076,
      "v": 1
    },
    {
      "midi": 62,
      "hit": false,
      "t": 263768.99101666687,
      "d": 556.6040333333076,
      "v": 1
    },
    {
      "midi": 50,
      "hit": false,
      "t": 264335.02901666675,
      "d": 556.6040333333076,
      "v": 1
    },
    {
      "midi": 55,
      "hit": false,
      "t": 264335.02901666675,
      "d": 556.6040333333076,
      "v": 1
    },
    {
      "midi": 59,
      "hit": false,
      "t": 264335.02901666675,
      "d": 556.6040333333076,
      "v": 1
    },
    {
      "midi": 71,
      "hit": false,
      "t": 264335.0290166669,
      "d": 556.6040333333076,
      "v": 1
    },
    {
      "midi": 50,
      "hit": false,
      "t": 264901.06701666676,
      "d": 1688.6800333333085,
      "v": 1
    },
    {
      "midi": 54,
      "hit": false,
      "t": 264901.06701666676,
      "d": 1688.6800333333085,
      "v": 1
    },
    {
      "midi": 57,
      "hit": false,
      "t": 264901.06701666676,
      "d": 1688.6800333333085,
      "v": 1
    },
    {
      "midi": 69,
      "hit": false,
      "t": 264901.0670166669,
      "d": 1688.6800333333085,
      "v": 1
    },
    {
      "midi": 55,
      "hit": false,
      "t": 266599.18101666676,
      "d": 556.6040333333076,
      "v": 1
    },
    {
      "midi": 59,
      "hit": false,
      "t": 266599.18101666676,
      "d": 556.6040333333076,
      "v": 1
    },
    {
      "midi": 71,
      "hit": false,
      "t": 266599.1810166669,
      "d": 556.6040333333076,
      "v": 1
    },
    {
      "midi": 59,
      "hit": false,
      "t": 267165.21901666676,
      "d": 839.6230333333369,
      "v": 1
    },
    {
      "midi": 62,
      "hit": false,
      "t": 267165.21901666676,
      "d": 839.6230333333369,
      "v": 1
    },
    {
      "midi": 74,
      "hit": false,
      "t": 267165.2190166669,
      "d": 839.6230333333369,
      "v": 1
    },
    {
      "midi": 31,
      "hit": false,
      "t": 267165.2190166669,
      "d": 4518.870033333602,
      "v": 1
    },
    {
      "midi": 35,
      "hit": false,
      "t": 267165.2190166669,
      "d": 4518.870033333602,
      "v": 1
    },
    {
      "midi": 38,
      "hit": false,
      "t": 267165.2190166669,
      "d": 4518.870033333602,
      "v": 1
    },
    {
      "midi": 55,
      "hit": false,
      "t": 268014.2760166668,
      "d": 273.58503333333647,
      "v": 1
    },
    {
      "midi": 59,
      "hit": false,
      "t": 268014.2760166668,
      "d": 273.58503333333647,
      "v": 1
    },
    {
      "midi": 71,
      "hit": false,
      "t": 268014.2760166669,
      "d": 273.58503333333647,
      "v": 1
    },
    {
      "midi": 59,
      "hit": false,
      "t": 268297.2950166668,
      "d": 273.58503333333647,
      "v": 1
    },
    {
      "midi": 62,
      "hit": false,
      "t": 268297.2950166668,
      "d": 273.58503333333647,
      "v": 1
    },
    {
      "midi": 74,
      "hit": false,
      "t": 268297.29501666693,
      "d": 273.58503333333647,
      "v": 1
    },
    {
      "midi": 55,
      "hit": false,
      "t": 268580.31401666685,
      "d": 273.58503333333647,
      "v": 1
    },
    {
      "midi": 59,
      "hit": false,
      "t": 268580.31401666685,
      "d": 273.58503333333647,
      "v": 1
    },
    {
      "midi": 71,
      "hit": false,
      "t": 268580.31401666696,
      "d": 273.58503333333647,
      "v": 1
    },
    {
      "midi": 59,
      "hit": false,
      "t": 268863.3330166669,
      "d": 273.58503333333647,
      "v": 1
    },
    {
      "midi": 62,
      "hit": false,
      "t": 268863.3330166669,
      "d": 273.58503333333647,
      "v": 1
    },
    {
      "midi": 74,
      "hit": false,
      "t": 268863.333016667,
      "d": 273.58503333333647,
      "v": 1
    },
    {
      "midi": 55,
      "hit": false,
      "t": 269146.3520166669,
      "d": 273.58503333333647,
      "v": 1
    },
    {
      "midi": 59,
      "hit": false,
      "t": 269146.3520166669,
      "d": 273.58503333333647,
      "v": 1
    },
    {
      "midi": 71,
      "hit": false,
      "t": 269146.352016667,
      "d": 273.58503333333647,
      "v": 1
    },
    {
      "midi": 50,
      "hit": false,
      "t": 269429.37101666693,
      "d": 1405.6610333333374,
      "v": 1
    },
    {
      "midi": 55,
      "hit": false,
      "t": 269429.37101666693,
      "d": 1405.6610333333374,
      "v": 1
    },
    {
      "midi": 67,
      "hit": false,
      "t": 269429.37101666705,
      "d": 1405.6610333333374,
      "v": 1
    },
    {
      "midi": 50,
      "hit": false,
      "t": 270844.46601666696,
      "d": 839.6230333333369,
      "v": 1
    },
    {
      "midi": 55,
      "hit": false,
      "t": 270844.46601666696,
      "d": 839.6230333333369,
      "v": 1
    },
    {
      "midi": 59,
      "hit": false,
      "t": 270844.46601666696,
      "d": 839.6230333333369,
      "v": 1
    },
    {
      "midi": 71,
      "hit": false,
      "t": 270844.4660166671,
      "d": 273.58503333333647,
      "v": 1
    },
    {
      "midi": 71,
      "hit": false,
      "t": 271127.4850166671,
      "d": 273.58503333333647,
      "v": 1
    },
    {
      "midi": 71,
      "hit": false,
      "t": 271410.50401666714,
      "d": 273.58503333333647,
      "v": 1
    },
    {
      "midi": 54,
      "hit": false,
      "t": 271693.523016667,
      "d": 1122.642033333308,
      "v": 1
    },
    {
      "midi": 57,
      "hit": false,
      "t": 271693.523016667,
      "d": 1122.642033333308,
      "v": 1
    },
    {
      "midi": 69,
      "hit": false,
      "t": 271693.52301666717,
      "d": 1122.642033333308,
      "v": 1
    },
    {
      "midi": 30,
      "hit": false,
      "t": 271693.52301666717,
      "d": 2254.718033333309,
      "v": 1
    },
    {
      "midi": 33,
      "hit": false,
      "t": 271693.52301666717,
      "d": 2254.718033333309,
      "v": 1
    },
    {
      "midi": 38,
      "hit": false,
      "t": 271693.52301666717,
      "d": 2254.718033333309,
      "v": 1
    },
    {
      "midi": 50,
      "hit": false,
      "t": 272825.599016667,
      "d": 556.6040333333076,
      "v": 1
    },
    {
      "midi": 54,
      "hit": false,
      "t": 272825.599016667,
      "d": 556.6040333333076,
      "v": 1
    },
    {
      "midi": 62,
      "hit": false,
      "t": 272825.59901666717,
      "d": 556.6040333333076,
      "v": 1
    },
    {
      "midi": 50,
      "hit": false,
      "t": 273391.637016667,
      "d": 556.6040333333076,
      "v": 1
    },
    {
      "midi": 54,
      "hit": false,
      "t": 273391.637016667,
      "d": 556.6040333333076,
      "v": 1
    },
    {
      "midi": 59,
      "hit": false,
      "t": 273391.637016667,
      "d": 556.6040333333076,
      "v": 1
    },
    {
      "midi": 71,
      "hit": false,
      "t": 273391.63701666717,
      "d": 556.6040333333076,
      "v": 1
    },
    {
      "midi": 50,
      "hit": false,
      "t": 273957.675016667,
      "d": 2254.718033333309,
      "v": 1
    },
    {
      "midi": 55,
      "hit": false,
      "t": 273957.675016667,
      "d": 2254.718033333309,
      "v": 1
    },
    {
      "midi": 67,
      "hit": false,
      "t": 273957.67501666717,
      "d": 2254.718033333309,
      "v": 1
    },
    {
      "midi": 31,
      "hit": false,
      "t": 273957.67501666717,
      "d": 2820.7560333333095,
      "v": 1
    },
    {
      "midi": 35,
      "hit": false,
      "t": 273957.67501666717,
      "d": 2820.7560333333095,
      "v": 1
    },
    {
      "midi": 38,
      "hit": false,
      "t": 273957.67501666717,
      "d": 2820.7560333333095,
      "v": 1
    }
  ]
}