{
  "jsonPath": "Soundtracks/German Soundtrack/Frederik/fuchs-du-hast-die-gans-gestohlen.json",
  "path": "Soundtracks\\German Soundtrack\\Frederik\\Fuchs du hast die Gans gestohlen.mid",
  "name": "Fuchs du hast die Gans gestohlen",
  "difficulty": "Advanced",
  "bpm": 132.00158401900822,
  "notes": [
    {
      "midi": 48,
      "hit": false,
      "t": 1811.0578125,
      "d": 1432.2744791666667,
      "v": 62
    },
    {
      "midi": 60,
      "hit": false,
      "t": 1820.5273958333332,
      "d": 1401.4983333333334,
      "v": 57
    },
    {
      "midi": 64,
      "hit": false,
      "t": 1820.5273958333332,
      "d": 1415.7027083333332,
      "v": 48
    },
    {
      "midi": 55,
      "hit": false,
      "t": 1820.5273958333332,
      "d": 1434.6418750000003,
      "v": 56
    },
    {
      "midi": 64,
      "hit": false,
      "t": 3648.156979166667,
      "d": 1304.435104166666,
      "v": 47
    },
    {
      "midi": 60,
      "hit": false,
      "t": 3650.5243750000004,
      "d": 1283.1285416666665,
      "v": 49
    },
    {
      "midi": 55,
      "hit": false,
      "t": 3650.5243750000004,
      "d": 1294.965520833333,
      "v": 47
    },
    {
      "midi": 48,
      "hit": false,
      "t": 3655.259166666667,
      "d": 1264.1893749999995,
      "v": 47
    },
    {
      "midi": 57,
      "hit": false,
      "t": 5442.643020833333,
      "d": 1247.617604166665,
      "v": 47
    },
    {
      "midi": 60,
      "hit": false,
      "t": 5445.010416666666,
      "d": 1238.1480208333323,
      "v": 53
    },
    {
      "midi": 65,
      "hit": false,
      "t": 5449.745208333333,
      "d": 1190.8001041666657,
      "v": 50
    },
    {
      "midi": 53,
      "hit": false,
      "t": 5452.112604166666,
      "d": 1226.311041666666,
      "v": 58
    },
    {
      "midi": 55,
      "hit": false,
      "t": 7277.374791666664,
      "d": 1377.8243749999992,
      "v": 46
    },
    {
      "midi": 64,
      "hit": false,
      "t": 7277.374791666664,
      "d": 1408.6005208333327,
      "v": 48
    },
    {
      "midi": 60,
      "hit": false,
      "t": 7282.109583333331,
      "d": 1396.7635416666653,
      "v": 48
    },
    {
      "midi": 48,
      "hit": false,
      "t": 7284.476979166664,
      "d": 1418.070104166667,
      "v": 54
    },
    {
      "midi": 57,
      "hit": false,
      "t": 9081.330416666664,
      "d": 1257.0871874999993,
      "v": 47
    },
    {
      "midi": 65,
      "hit": false,
      "t": 9081.330416666664,
      "d": 1271.2915624999987,
      "v": 47
    },
    {
      "midi": 60,
      "hit": false,
      "t": 9086.06520833333,
      "d": 1242.8828125,
      "v": 49
    },
    {
      "midi": 41,
      "hit": false,
      "t": 9100.26958333333,
      "d": 1231.0458333333336,
      "v": 53
    },
    {
      "midi": 55,
      "hit": false,
      "t": 10908.959999999995,
      "d": 1323.374270833332,
      "v": 41
    },
    {
      "midi": 64,
      "hit": false,
      "t": 10916.062187499996,
      "d": 1325.741666666665,
      "v": 43
    },
    {
      "midi": 60,
      "hit": false,
      "t": 10918.429583333329,
      "d": 1304.435104166665,
      "v": 45
    },
    {
      "midi": 48,
      "hit": false,
      "t": 10923.164374999995,
      "d": 1342.313437499999,
      "v": 49
    },
    {
      "midi": 55,
      "hit": false,
      "t": 12712.915624999994,
      "d": 1358.8852083333295,
      "v": 45
    },
    {
      "midi": 65,
      "hit": false,
      "t": 12717.65041666666,
      "d": 1328.109062499998,
      "v": 47
    },
    {
      "midi": 59,
      "hit": false,
      "t": 12717.65041666666,
      "d": 1342.3134374999972,
      "v": 48
    },
    {
      "midi": 43,
      "hit": false,
      "t": 12722.385208333326,
      "d": 1287.8633333333328,
      "v": 48
    },
    {
      "midi": 60,
      "hit": false,
      "t": 14552.38218749999,
      "d": 759.9340625000004,
      "v": 54
    },
    {
      "midi": 55,
      "hit": false,
      "t": 14557.116979166656,
      "d": 745.7296875000011,
      "v": 47
    },
    {
      "midi": 48,
      "hit": false,
      "t": 14559.484374999989,
      "d": 736.2601041666676,
      "v": 66
    },
    {
      "midi": 64,
      "hit": false,
      "t": 14559.484374999989,
      "d": 743.3622916666682,
      "v": 49
    },
    {
      "midi": 45,
      "hit": false,
      "t": 15444.890416666658,
      "d": 736.2601041666658,
      "v": 50
    },
    {
      "midi": 60,
      "hit": false,
      "t": 15456.727395833324,
      "d": 710.21875,
      "v": 53
    },
    {
      "midi": 57,
      "hit": false,
      "t": 15456.727395833324,
      "d": 745.7296874999993,
      "v": 49
    },
    {
      "midi": 64,
      "hit": false,
      "t": 15459.094791666657,
      "d": 698.3817708333336,
      "v": 52
    },
    {
      "midi": 53,
      "hit": false,
      "t": 16346.868229166657,
      "d": 639.1968749999996,
      "v": 42
    },
    {
      "midi": 62,
      "hit": false,
      "t": 16346.868229166657,
      "d": 648.6664583333313,
      "v": 44
    },
    {
      "midi": 57,
      "hit": false,
      "t": 16351.603020833323,
      "d": 629.727291666668,
      "v": 44
    },
    {
      "midi": 50,
      "hit": false,
      "t": 16353.970416666656,
      "d": 776.5058333333327,
      "v": 50
    },
    {
      "midi": 43,
      "hit": false,
      "t": 17255.948229166657,
      "d": 705.4839583333342,
      "v": 51
    },
    {
      "midi": 65,
      "hit": false,
      "t": 17265.41781249999,
      "d": 629.7272916666698,
      "v": 47
    },
    {
      "midi": 55,
      "hit": false,
      "t": 17265.41781249999,
      "d": 722.0557291666701,
      "v": 43
    },
    {
      "midi": 59,
      "hit": false,
      "t": 17267.785208333324,
      "d": 755.1992708333346,
      "v": 50
    },
    {
      "midi": 48,
      "hit": false,
      "t": 18157.92604166666,
      "d": 1150.554374999996,
      "v": 47
    },
    {
      "midi": 55,
      "hit": false,
      "t": 18162.660833333324,
      "d": 1133.9826041666638,
      "v": 48
    },
    {
      "midi": 60,
      "hit": false,
      "t": 18167.39562499999,
      "d": 1162.3913541666661,
      "v": 50
    },
    {
      "midi": 64,
      "hit": false,
      "t": 18172.130416666656,
      "d": 1131.6152083333327,
      "v": 48
    },
    {
      "midi": 65,
      "hit": false,
      "t": 19995.02520833332,
      "d": 1425.1722916666658,
      "v": 48
    },
    {
      "midi": 59,
      "hit": false,
      "t": 19995.02520833332,
      "d": 1432.2744791666664,
      "v": 47
    },
    {
      "midi": 55,
      "hit": false,
      "t": 19999.759999999987,
      "d": 1448.8462500000023,
      "v": 43
    },
    {
      "midi": 43,
      "hit": false,
      "t": 20002.127395833322,
      "d": 1455.9484374999993,
      "v": 50
    },
    {
      "midi": 48,
      "hit": false,
      "t": 21810.817812499987,
      "d": 1219.2088541666672,
      "v": 53
    },
    {
      "midi": 60,
      "hit": false,
      "t": 21815.552604166653,
      "d": 1181.3305208333331,
      "v": 48
    },
    {
      "midi": 64,
      "hit": false,
      "t": 21817.919999999987,
      "d": 1190.8001041666648,
      "v": 47
    },
    {
      "midi": 55,
      "hit": false,
      "t": 21822.654791666653,
      "d": 1193.1674999999996,
      "v": 44
    },
    {
      "midi": 57,
      "hit": false,
      "t": 23628.977812499987,
      "d": 714.9535416666622,
      "v": 43
    },
    {
      "midi": 60,
      "hit": false,
      "t": 23631.34520833332,
      "d": 684.1773958333324,
      "v": 45
    },
    {
      "midi": 65,
      "hit": false,
      "t": 23631.34520833332,
      "d": 693.6469791666641,
      "v": 45
    },
    {
      "midi": 62,
      "hit": false,
      "t": 23636.079999999987,
      "d": 698.3817708333299,
      "v": 45
    },
    {
      "midi": 50,
      "hit": false,
      "t": 23636.079999999987,
      "d": 745.7296874999956,
      "v": 50
    },
    {
      "midi": 65,
      "hit": false,
      "t": 24533.323020833315,
      "d": 681.8099999999977,
      "v": 48
    },
    {
      "midi": 59,
      "hit": false,
      "t": 24533.323020833315,
      "d": 729.157916666667,
      "v": 57
    },
    {
      "midi": 55,
      "hit": false,
      "t": 24538.05781249998,
      "d": 729.157916666667,
      "v": 47
    },
    {
      "midi": 43,
      "hit": false,
      "t": 24542.792604166647,
      "d": 698.3817708333336,
      "v": 48
    },
    {
      "midi": 55,
      "hit": false,
      "t": 25451.87260416665,
      "d": 1062.960729166669,
      "v": 46
    },
    {
      "midi": 60,
      "hit": false,
      "t": 25451.87260416665,
      "d": 1089.0020833333365,
      "v": 48
    },
    {
      "midi": 64,
      "hit": false,
      "t": 25451.87260416665,
      "d": 1124.5130208333358,
      "v": 47
    },
    {
      "midi": 48,
      "hit": false,
      "t": 25458.97479166665,
      "d": 1335.2112500000003,
      "v": 55
    },
    {
      "midi": 55,
      "hit": false,
      "t": 27303.176145833317,
      "d": 146.77854166666657,
      "v": 47
    },
    {
      "midi": 60,
      "hit": false,
      "t": 27305.54354166665,
      "d": 146.77854166666657,
      "v": 51
    },
    {
      "midi": 64,
      "hit": false,
      "t": 27310.278333333317,
      "d": 156.2481250000019,
      "v": 49
    },
    {
      "midi": 60,
      "hit": false,
      "t": 27755.348749999986,
      "d": 163.35031249999884,
      "v": 50
    },
    {
      "midi": 57,
      "hit": false,
      "t": 27755.348749999986,
      "d": 194.12645833333227,
      "v": 48
    },
    {
      "midi": 65,
      "hit": false,
      "t": 27755.348749999986,
      "d": 196.493854166667,
      "v": 47
    },
    {
      "midi": 60,
      "hit": false,
      "t": 28202.786562499987,
      "d": 149.1459375000013,
      "v": 48
    },
    {
      "midi": 64,
      "hit": false,
      "t": 28209.888749999987,
      "d": 172.81989583333416,
      "v": 45
    },
    {
      "midi": 55,
      "hit": false,
      "t": 28212.256145833322,
      "d": 170.45249999999942,
      "v": 46
    },
    {
      "midi": 55,
      "hit": false,
      "t": 28875.126979166656,
      "d": 589.4815624999974,
      "v": 52
    },
    {
      "midi": 60,
      "hit": false,
      "t": 28877.49437499999,
      "d": 402.4572916666657,
      "v": 58
    },
    {
      "midi": 64,
      "hit": false,
      "t": 28877.49437499999,
      "d": 407.19208333333154,
      "v": 53
    },
    {
      "midi": 60,
      "hit": false,
      "t": 29324.932187499988,
      "d": 165.71770833333358,
      "v": 44
    },
    {
      "midi": 64,
      "hit": false,
      "t": 29324.932187499988,
      "d": 170.45249999999942,
      "v": 41
    },
    {
      "midi": 60,
      "hit": false,
      "t": 29556.936979166654,
      "d": 123.10458333333372,
      "v": 49
    },
    {
      "midi": 57,
      "hit": false,
      "t": 29556.936979166654,
      "d": 179.92208333333474,
      "v": 50
    },
    {
      "midi": 65,
      "hit": false,
      "t": 29568.77395833332,
      "d": 137.30895833333489,
      "v": 47
    },
    {
      "midi": 55,
      "hit": false,
      "t": 30018.579166666656,
      "d": 187.02427083333532,
      "v": 42
    },
    {
      "midi": 60,
      "hit": false,
      "t": 30020.94656249999,
      "d": 194.12645833333227,
      "v": 47
    },
    {
      "midi": 64,
      "hit": false,
      "t": 30020.94656249999,
      "d": 194.12645833333227,
      "v": 44
    },
    {
      "midi": 57,
      "hit": false,
      "t": 30894.51562499999,
      "d": 179.92208333333474,
      "v": 44
    },
    {
      "midi": 60,
      "hit": false,
      "t": 30896.883020833324,
      "d": 165.71770833333358,
      "v": 46
    },
    {
      "midi": 65,
      "hit": false,
      "t": 30903.985208333324,
      "d": 182.28947916666584,
      "v": 46
    },
    {
      "midi": 57,
      "hit": false,
      "t": 31358.525208333325,
      "d": 175.1872916666689,
      "v": 48
    },
    {
      "midi": 60,
      "hit": false,
      "t": 31360.89260416666,
      "d": 172.81989583333416,
      "v": 52
    },
    {
      "midi": 67,
      "hit": false,
      "t": 31360.89260416666,
      "d": 179.92208333333474,
      "v": 51
    },
    {
      "midi": 60,
      "hit": false,
      "t": 31815.43260416666,
      "d": 172.81989583333416,
      "v": 53
    },
    {
      "midi": 65,
      "hit": false,
      "t": 31815.43260416666,
      "d": 191.75906250000116,
      "v": 51
    },
    {
      "midi": 57,
      "hit": false,
      "t": 31820.167395833327,
      "d": 196.493854166667,
      "v": 48
    },
    {
      "midi": 55,
      "hit": false,
      "t": 32516.181770833326,
      "d": 388.25291666666453,
      "v": 46
    },
    {
      "midi": 64,
      "hit": false,
      "t": 32520.91656249999,
      "d": 407.19208333333154,
      "v": 54
    },
    {
      "midi": 60,
      "hit": false,
      "t": 32530.386145833323,
      "d": 392.9877083333304,
      "v": 57
    },
    {
      "midi": 55,
      "hit": false,
      "t": 32982.55874999999,
      "d": 123.10458333333372,
      "v": 45
    },
    {
      "midi": 60,
      "hit": false,
      "t": 32982.55874999999,
      "d": 146.77854166666657,
      "v": 47
    },
    {
      "midi": 64,
      "hit": false,
      "t": 32982.55874999999,
      "d": 156.24812499999825,
      "v": 46
    },
    {
      "midi": 57,
      "hit": false,
      "t": 33190.88958333332,
      "d": 201.22864583334012,
      "v": 50
    },
    {
      "midi": 60,
      "hit": false,
      "t": 33195.62437499999,
      "d": 139.67635416667326,
      "v": 49
    },
    {
      "midi": 65,
      "hit": false,
      "t": 33207.46135416666,
      "d": 144.41114583333547,
      "v": 47
    },
    {
      "midi": 55,
      "hit": false,
      "t": 33650.16437499999,
      "d": 196.49385416666337,
      "v": 44
    },
    {
      "midi": 60,
      "hit": false,
      "t": 33657.26656249999,
      "d": 156.24812499999825,
      "v": 47
    },
    {
      "midi": 64,
      "hit": false,
      "t": 33657.26656249999,
      "d": 179.9220833333311,
      "v": 47
    },
    {
      "midi": 65,
      "hit": false,
      "t": 34530.83562499999,
      "d": 189.39166666667734,
      "v": 45
    },
    {
      "midi": 57,
      "hit": false,
      "t": 34535.57041666666,
      "d": 184.65687500000786,
      "v": 47
    },
    {
      "midi": 60,
      "hit": false,
      "t": 34540.30520833333,
      "d": 175.1872916666689,
      "v": 47
    },
    {
      "midi": 57,
      "hit": false,
      "t": 34997.21260416667,
      "d": 201.22864583334012,
      "v": 46
    },
    {
      "midi": 67,
      "hit": false,
      "t": 35001.94739583334,
      "d": 201.22864583334012,
      "v": 49
    },
    {
      "midi": 60,
      "hit": false,
      "t": 35006.68218750001,
      "d": 196.49385416667064,
      "v": 48
    },
    {
      "midi": 60,
      "hit": false,
      "t": 35458.85479166668,
      "d": 187.02427083333896,
      "v": 56
    },
    {
      "midi": 57,
      "hit": false,
      "t": 35458.85479166668,
      "d": 196.49385416667792,
      "v": 53
    },
    {
      "midi": 65,
      "hit": false,
      "t": 35463.58958333335,
      "d": 187.02427083333896,
      "v": 49
    },
    {
      "midi": 60,
      "hit": false,
      "t": 36384.50656250002,
      "d": 234.37218749999738,
      "v": 54
    },
    {
      "midi": 55,
      "hit": false,
      "t": 36384.50656250002,
      "d": 239.10697916666686,
      "v": 52
    },
    {
      "midi": 64,
      "hit": false,
      "t": 36384.50656250002,
      "d": 246.20916666666744,
      "v": 49
    },
    {
      "midi": 60,
      "hit": false,
      "t": 36836.67916666669,
      "d": 234.37218750000466,
      "v": 46
    },
    {
      "midi": 57,
      "hit": false,
      "t": 36836.67916666669,
      "d": 246.20916666666744,
      "v": 43
    },
    {
      "midi": 65,
      "hit": false,
      "t": 36841.41395833336,
      "d": 239.10697916666686,
      "v": 47
    },
    {
      "midi": 55,
      "hit": false,
      "t": 37284.11697916669,
      "d": 210.69822916666453,
      "v": 44
    },
    {
      "midi": 64,
      "hit": false,
      "t": 37288.85177083336,
      "d": 198.86124999999447,
      "v": 44
    },
    {
      "midi": 60,
      "hit": false,
      "t": 37291.21916666669,
      "d": 194.12645833333227,
      "v": 45
    },
    {
      "midi": 59,
      "hit": false,
      "t": 38193.196979166685,
      "d": 1451.2136458333334,
      "v": 52
    },
    {
      "midi": 55,
      "hit": false,
      "t": 38193.196979166685,
      "d": 1491.4593749999985,
      "v": 47
    },
    {
      "midi": 65,
      "hit": false,
      "t": 38197.931770833355,
      "d": 1415.7027083333305,
      "v": 49
    },
    {
      "midi": 55,
      "hit": false,
      "t": 39999.52000000002,
      "d": 759.9340624999968,
      "v": 46
    },
    {
      "midi": 64,
      "hit": false,
      "t": 39999.52000000002,
      "d": 795.4449999999997,
      "v": 47
    },
    {
      "midi": 60,
      "hit": false,
      "t": 40001.88739583335,
      "d": 771.7710416666669,
      "v": 51
    },
    {
      "midi": 57,
      "hit": false,
      "t": 40899.13041666668,
      "d": 660.5034375000032,
      "v": 48
    },
    {
      "midi": 60,
      "hit": false,
      "t": 40906.23260416668,
      "d": 570.542395833334,
      "v": 51
    },
    {
      "midi": 64,
      "hit": false,
      "t": 40906.23260416668,
      "d": 684.177395833336,
      "v": 47
    },
    {
      "midi": 53,
      "hit": false,
      "t": 41801.10822916668,
      "d": 755.1992708333419,
      "v": 46
    },
    {
      "midi": 62,
      "hit": false,
      "t": 41805.84302083335,
      "d": 755.1992708333419,
      "v": 49
    },
    {
      "midi": 57,
      "hit": false,
      "t": 41810.57781250002,
      "d": 752.8318750000035,
      "v": 48
    },
    {
      "midi": 62,
      "hit": false,
      "t": 42714.92302083336,
      "d": 771.7710416666669,
      "v": 45
    },
    {
      "midi": 53,
      "hit": false,
      "t": 42719.65781250003,
      "d": 771.7710416666669,
      "v": 52
    },
    {
      "midi": 59,
      "hit": false,
      "t": 42722.02520833336,
      "d": 797.8123958333381,
      "v": 47
    },
    {
      "midi": 52,
      "hit": false,
      "t": 43635.84000000003,
      "d": 980.1018750000003,
      "v": 42
    },
    {
      "midi": 55,
      "hit": false,
      "t": 43638.207395833364,
      "d": 977.7344791666692,
      "v": 47
    },
    {
      "midi": 60,
      "hit": false,
      "t": 43638.207395833364,
      "d": 1010.8780208333337,
      "v": 47
    },
    {
      "midi": 59,
      "hit": false,
      "t": 45456.36739583337,
      "d": 1264.1893750000017,
      "v": 45
    },
    {
      "midi": 65,
      "hit": false,
      "t": 45461.10218750004,
      "d": 1276.0263541666645,
      "v": 46
    },
    {
      "midi": 67,
      "hit": false,
      "t": 45461.10218750004,
      "d": 1280.761145833334,
      "v": 44
    },
    {
      "midi": 67,
      "hit": false,
      "t": 46815.25260416671,
      "d": 111.26760416667821,
      "v": 43
    },
    {
      "midi": 59,
      "hit": false,
      "t": 46822.35479166671,
      "d": 87.59364583333809,
      "v": 48
    },
    {
      "midi": 65,
      "hit": false,
      "t": 46827.08958333338,
      "d": 87.59364583333809,
      "v": 45
    },
    {
      "midi": 60,
      "hit": false,
      "t": 47265.057812500054,
      "d": 1323.3742708333375,
      "v": 45
    },
    {
      "midi": 67,
      "hit": false,
      "t": 47269.79260416672,
      "d": 1271.2915625000023,
      "v": 46
    },
    {
      "midi": 64,
      "hit": false,
      "t": 47269.79260416672,
      "d": 1290.2307291666657,
      "v": 48
    },
    {
      "midi": 57,
      "hit": false,
      "t": 49085.58520833339,
      "d": 651.0338541666642,
      "v": 47
    },
    {
      "midi": 62,
      "hit": false,
      "t": 49087.95260416672,
      "d": 743.3622916666645,
      "v": 52
    },
    {
      "midi": 65,
      "hit": false,
      "t": 49092.68739583339,
      "d": 703.1165624999921,
      "v": 49
    },
    {
      "midi": 60,
      "hit": false,
      "t": 49095.05479166672,
      "d": 660.5034374999959,
      "v": 51
    },
    {
      "midi": 59,
      "hit": false,
      "t": 50004.134791666715,
      "d": 584.7467708333352,
      "v": 50
    },
    {
      "midi": 62,
      "hit": false,
      "t": 50013.604375000046,
      "d": 724.4231250000012,
      "v": 53
    },
    {
      "midi": 53,
      "hit": false,
      "t": 50013.604375000046,
      "d": 767.0362500000047,
      "v": 48
    },
    {
      "midi": 52,
      "hit": false,
      "t": 50903.745208333385,
      "d": 1287.8633333333346,
      "v": 47
    },
    {
      "midi": 55,
      "hit": false,
      "t": 50903.745208333385,
      "d": 1309.1698958333363,
      "v": 47
    },
    {
      "midi": 60,
      "hit": false,
      "t": 50908.480000000054,
      "d": 1351.7830208333326,
      "v": 47
    },
    {
      "midi": 48,
      "hit": false,
      "t": 52740.84437500005,
      "d": 508.9901041666744,
      "v": 43
    },
    {
      "midi": 60,
      "hit": false,
      "t": 53178.81260416672,
      "d": 120.73718750000262,
      "v": 49
    },
    {
      "midi": 55,
      "hit": false,
      "t": 53183.54739583339,
      "d": 123.10458333333372,
      "v": 45
    },
    {
      "midi": 64,
      "hit": false,
      "t": 53188.28218750006,
      "d": 134.9415624999965,
      "v": 43
    },
    {
      "midi": 48,
      "hit": false,
      "t": 53417.91958333339,
      "d": 85.22624999999971,
      "v": 38
    },
    {
      "midi": 48,
      "hit": false,
      "t": 53635.72000000005,
      "d": 269.8831250000003,
      "v": 38
    },
    {
      "midi": 64,
      "hit": false,
      "t": 53858.25520833339,
      "d": 104.16541666666308,
      "v": 46
    },
    {
      "midi": 60,
      "hit": false,
      "t": 53860.62260416672,
      "d": 85.22624999999971,
      "v": 47
    },
    {
      "midi": 55,
      "hit": false,
      "t": 53860.62260416672,
      "d": 106.53281250000146,
      "v": 47
    },
    {
      "midi": 48,
      "hit": false,
      "t": 54308.06041666672,
      "d": 785.9754166666607,
      "v": 32
    },
    {
      "midi": 55,
      "hit": false,
      "t": 55013.54437500005,
      "d": 92.32843749999302,
      "v": 43
    },
    {
      "midi": 60,
      "hit": false,
      "t": 55015.91177083338,
      "d": 87.59364583333081,
      "v": 47
    },
    {
      "midi": 64,
      "hit": false,
      "t": 55015.91177083338,
      "d": 99.4306249999936,
      "v": 45
    },
    {
      "midi": 48,
      "hit": false,
      "t": 55233.71218750004,
      "d": 99.43062500000087,
      "v": 47
    },
    {
      "midi": 48,
      "hit": false,
      "t": 55451.5126041667,
      "d": 307.7614583333416,
      "v": 58
    },
    {
      "midi": 60,
      "hit": false,
      "t": 55702.45656250004,
      "d": 94.69583333333867,
      "v": 45
    },
    {
      "midi": 55,
      "hit": false,
      "t": 55702.45656250004,
      "d": 104.16541666667035,
      "v": 45
    },
    {
      "midi": 64,
      "hit": false,
      "t": 55707.19135416671,
      "d": 108.90020833333256,
      "v": 46
    },
    {
      "midi": 41,
      "hit": false,
      "t": 56370.06218750004,
      "d": 520.8270833333299,
      "v": 48
    },
    {
      "midi": 60,
      "hit": false,
      "t": 56843.54135416671,
      "d": 97.0632291666625,
      "v": 46
    },
    {
      "midi": 65,
      "hit": false,
      "t": 56845.90875000004,
      "d": 123.10458333333372,
      "v": 43
    },
    {
      "midi": 57,
      "hit": false,
      "t": 56850.64354166671,
      "d": 104.16541666666308,
      "v": 43
    },
    {
      "midi": 41,
      "hit": false,
      "t": 57051.87218750004,
      "d": 120.73718750000262,
      "v": 46
    },
    {
      "midi": 41,
      "hit": false,
      "t": 57276.77479166671,
      "d": 303.0266666666648,
      "v": 44
    },
    {
      "midi": 65,
      "hit": false,
      "t": 57501.67739583337,
      "d": 123.10458333333372,
      "v": 41
    },
    {
      "midi": 57,
      "hit": false,
      "t": 57504.0447916667,
      "d": 116.00239583333314,
      "v": 44
    },
    {
      "midi": 60,
      "hit": false,
      "t": 57506.412187500035,
      "d": 97.06322916666977,
      "v": 45
    },
    {
      "midi": 48,
      "hit": false,
      "t": 58174.01781250004,
      "d": 535.0314583333384,
      "v": 43
    },
    {
      "midi": 64,
      "hit": false,
      "t": 58652.23177083337,
      "d": 127.8393750000032,
      "v": 44
    },
    {
      "midi": 60,
      "hit": false,
      "t": 58656.96656250004,
      "d": 97.06322916666977,
      "v": 44
    },
    {
      "midi": 55,
      "hit": false,
      "t": 58656.96656250004,
      "d": 104.16541666667035,
      "v": 43
    },
    {
      "midi": 48,
      "hit": false,
      "t": 58851.093020833374,
      "d": 94.6958333333314,
      "v": 39
    },
    {
      "midi": 48,
      "hit": false,
      "t": 59075.99562500004,
      "d": 350.3745833333378,
      "v": 43
    },
    {
      "midi": 64,
      "hit": false,
      "t": 59315.10260416671,
      "d": 137.30895833333489,
      "v": 42
    },
    {
      "midi": 60,
      "hit": false,
      "t": 59319.837395833376,
      "d": 106.53281250000146,
      "v": 44
    },
    {
      "midi": 55,
      "hit": false,
      "t": 59319.837395833376,
      "d": 125.47197916666482,
      "v": 42
    },
    {
      "midi": 41,
      "hit": false,
      "t": 59994.54520833337,
      "d": 485.3161458333343,
      "v": 45
    },
    {
      "midi": 65,
      "hit": false,
      "t": 60458.554791666706,
      "d": 132.5741666666654,
      "v": 48
    },
    {
      "midi": 60,
      "hit": false,
      "t": 60468.02437500004,
      "d": 92.32843750000029,
      "v": 44
    },
    {
      "midi": 57,
      "hit": false,
      "t": 60468.02437500004,
      "d": 106.53281250000146,
      "v": 43
    },
    {
      "midi": 41,
      "hit": false,
      "t": 60662.15083333337,
      "d": 125.47197916666482,
      "v": 49
    },
    {
      "midi": 41,
      "hit": false,
      "t": 60894.155625000036,
      "d": 300.6592708333337,
      "v": 42
    },
    {
      "midi": 57,
      "hit": false,
      "t": 61135.630000000034,
      "d": 144.41114583333547,
      "v": 40
    },
    {
      "midi": 60,
      "hit": false,
      "t": 61140.3647916667,
      "d": 125.47197916666482,
      "v": 41
    },
    {
      "midi": 65,
      "hit": false,
      "t": 61140.3647916667,
      "d": 130.2067708333343,
      "v": 40
    },
    {
      "midi": 48,
      "hit": false,
      "t": 61789.03125000004,
      "d": 551.6032291666706,
      "v": 53
    },
    {
      "midi": 60,
      "hit": false,
      "t": 62276.7147916667,
      "d": 116.00239583334042,
      "v": 46
    },
    {
      "midi": 55,
      "hit": false,
      "t": 62281.44958333337,
      "d": 120.73718750000262,
      "v": 44
    },
    {
      "midi": 64,
      "hit": false,
      "t": 62281.44958333337,
      "d": 130.2067708333343,
      "v": 44
    },
    {
      "midi": 48,
      "hit": false,
      "t": 62485.04562500004,
      "d": 99.43062500000087,
      "v": 38
    },
    {
      "midi": 48,
      "hit": false,
      "t": 62705.213437500046,
      "d": 395.3551041666651,
      "v": 41
    },
    {
      "midi": 64,
      "hit": false,
      "t": 62939.58562500004,
      "d": 160.98291666666773,
      "v": 43
    },
    {
      "midi": 55,
      "hit": false,
      "t": 62941.953020833374,
      "d": 160.98291666666773,
      "v": 38
    },
    {
      "midi": 60,
      "hit": false,
      "t": 62949.055208333375,
      "d": 144.41114583333547,
      "v": 42
    },
    {
      "midi": 43,
      "hit": false,
      "t": 63642.70218750004,
      "d": 490.0509375000038,
      "v": 45
    },
    {
      "midi": 59,
      "hit": false,
      "t": 64097.242187500044,
      "d": 120.73718750000262,
      "v": 48
    },
    {
      "midi": 55,
      "hit": false,
      "t": 64101.97697916671,
      "d": 123.10458333333372,
      "v": 42
    },
    {
      "midi": 65,
      "hit": false,
      "t": 64101.97697916671,
      "d": 139.676354166666,
      "v": 47
    },
    {
      "midi": 43,
      "hit": false,
      "t": 64305.57302083338,
      "d": 120.73718750000262,
      "v": 43
    },
    {
      "midi": 43,
      "hit": false,
      "t": 64542.31260416671,
      "d": 376.41593750000175,
      "v": 44
    },
    {
      "midi": 65,
      "hit": false,
      "t": 64769.58260416671,
      "d": 160.982916666675,
      "v": 42
    },
    {
      "midi": 59,
      "hit": false,
      "t": 64774.31739583338,
      "d": 158.61552083333663,
      "v": 45
    },
    {
      "midi": 55,
      "hit": false,
      "t": 64774.31739583338,
      "d": 177.5546875,
      "v": 42
    },
    {
      "midi": 48,
      "hit": false,
      "t": 65453.760000000046,
      "d": 523.1944791666829,
      "v": 51
    },
    {
      "midi": 55,
      "hit": false,
      "t": 65903.56520833338,
      "d": 139.67635416668782,
      "v": 42
    },
    {
      "midi": 60,
      "hit": false,
      "t": 65905.93260416672,
      "d": 106.53281250000873,
      "v": 44
    },
    {
      "midi": 64,
      "hit": false,
      "t": 65905.93260416672,
      "d": 120.7371875000099,
      "v": 43
    },
    {
      "midi": 48,
      "hit": false,
      "t": 66173.4483333334,
      "d": 113.63499999999476,
      "v": 37
    },
    {
      "midi": 45,
      "hit": false,
      "t": 66384.14656250007,
      "d": 445.07041666665464,
      "v": 43
    },
    {
      "midi": 57,
      "hit": false,
      "t": 66599.5795833334,
      "d": 153.88072916665988,
      "v": 42
    },
    {
      "midi": 64,
      "hit": false,
      "t": 66604.31437500006,
      "d": 158.61552083333663,
      "v": 44
    },
    {
      "midi": 60,
      "hit": false,
      "t": 66613.7839583334,
      "d": 127.83937499999593,
      "v": 43
    },
    {
      "midi": 50,
      "hit": false,
      "t": 67274.2873958334,
      "d": 530.2966666666762,
      "v": 50
    },
    {
      "midi": 57,
      "hit": false,
      "t": 67714.6230208334,
      "d": 144.41114583333547,
      "v": 44
    },
    {
      "midi": 65,
      "hit": false,
      "t": 67721.7252083334,
      "d": 142.0437499999971,
      "v": 44
    },
    {
      "midi": 62,
      "hit": false,
      "t": 67724.09260416674,
      "d": 113.63499999999476,
      "v": 45
    },
    {
      "midi": 50,
      "hit": false,
      "t": 67946.62781250007,
      "d": 125.4719791666721,
      "v": 47
    },
    {
      "midi": 43,
      "hit": false,
      "t": 68166.79562500007,
      "d": 485.3161458333634,
      "v": 44
    },
    {
      "midi": 55,
      "hit": false,
      "t": 68408.27000000008,
      "d": 165.71770833335177,
      "v": 41
    },
    {
      "midi": 59,
      "hit": false,
      "t": 68410.63739583342,
      "d": 139.67635416667326,
      "v": 44
    },
    {
      "midi": 65,
      "hit": false,
      "t": 68410.63739583342,
      "d": 142.04375000001164,
      "v": 43
    },
    {
      "midi": 48,
      "hit": false,
      "t": 69080.61041666676,
      "d": 497.1531249999971,
      "v": 42
    },
    {
      "midi": 55,
      "hit": false,
      "t": 69532.78302083343,
      "d": 137.30895833333489,
      "v": 41
    },
    {
      "midi": 60,
      "hit": false,
      "t": 69537.5178125001,
      "d": 120.73718749999534,
      "v": 44
    },
    {
      "midi": 64,
      "hit": false,
      "t": 69537.5178125001,
      "d": 130.2067708333343,
      "v": 43
    },
    {
      "midi": 48,
      "hit": false,
      "t": 69748.21604166678,
      "d": 113.63499999999476,
      "v": 49
    },
    {
      "midi": 48,
      "hit": false,
      "t": 69982.58822916677,
      "d": 355.109375,
      "v": 39
    },
    {
      "midi": 64,
      "hit": false,
      "t": 70205.1234375001,
      "d": 187.02427083333896,
      "v": 41
    },
    {
      "midi": 60,
      "hit": false,
      "t": 70212.2256250001,
      "d": 158.61552083333663,
      "v": 44
    },
    {
      "midi": 55,
      "hit": false,
      "t": 70212.2256250001,
      "d": 168.0851041666756,
      "v": 40
    },
    {
      "midi": 43,
      "hit": false,
      "t": 70894.0356250001,
      "d": 501.8879166666593,
      "v": 49
    },
    {
      "midi": 55,
      "hit": false,
      "t": 71362.7800000001,
      "d": 123.10458333333372,
      "v": 42
    },
    {
      "midi": 65,
      "hit": false,
      "t": 71365.14739583344,
      "d": 127.83937499999593,
      "v": 44
    },
    {
      "midi": 59,
      "hit": false,
      "t": 71369.8821875001,
      "d": 104.16541666667035,
      "v": 45
    },
    {
      "midi": 43,
      "hit": false,
      "t": 71578.21302083344,
      "d": 134.9415624999965,
      "v": 45
    },
    {
      "midi": 43,
      "hit": false,
      "t": 71819.68739583343,
      "d": 321.96583333333547,
      "v": 43
    },
    {
      "midi": 59,
      "hit": false,
      "t": 72061.16177083344,
      "d": 130.2067708333343,
      "v": 46
    },
    {
      "midi": 65,
      "hit": false,
      "t": 72061.16177083344,
      "d": 137.30895833333489,
      "v": 44
    },
    {
      "midi": 55,
      "hit": false,
      "t": 72065.8965625001,
      "d": 142.04375000001164,
      "v": 42
    },
    {
      "midi": 48,
      "hit": false,
      "t": 72721.66520833345,
      "d": 518.4596874999988,
      "v": 49
    },
    {
      "midi": 64,
      "hit": false,
      "t": 73188.04218750012,
      "d": 142.0437499999971,
      "v": 44
    },
    {
      "midi": 55,
      "hit": false,
      "t": 73190.40958333346,
      "d": 137.30895833332033,
      "v": 42
    },
    {
      "midi": 60,
      "hit": false,
      "t": 73195.14437500012,
      "d": 111.26760416665638,
      "v": 45
    },
    {
      "midi": 48,
      "hit": false,
      "t": 73410.57739583345,
      "d": 92.32843749999302,
      "v": 40
    },
    {
      "midi": 48,
      "hit": false,
      "t": 73616.54083333343,
      "d": 319.5984374999971,
      "v": 37
    },
    {
      "midi": 60,
      "hit": false,
      "t": 73843.81083333344,
      "d": 144.41114583332092,
      "v": 44
    },
    {
      "midi": 64,
      "hit": false,
      "t": 73843.81083333344,
      "d": 158.61552083332208,
      "v": 44
    },
    {
      "midi": 55,
      "hit": false,
      "t": 73848.5456250001,
      "d": 158.61552083332208,
      "v": 42
    },
    {
      "midi": 50,
      "hit": false,
      "t": 74544.56000000008,
      "d": 565.8076041666791,
      "v": 43
    },
    {
      "midi": 62,
      "hit": false,
      "t": 75015.67177083342,
      "d": 182.2894791666622,
      "v": 43
    },
    {
      "midi": 53,
      "hit": false,
      "t": 75020.40656250008,
      "d": 149.14593750001222,
      "v": 39
    },
    {
      "midi": 57,
      "hit": false,
      "t": 75022.77395833342,
      "d": 151.51333333333605,
      "v": 46
    },
    {
      "midi": 60,
      "hit": false,
      "t": 75032.24354166676,
      "d": 153.88072916665988,
      "v": 42
    },
    {
      "midi": 50,
      "hit": false,
      "t": 75254.77875000008,
      "d": 94.6958333333314,
      "v": 38
    },
    {
      "midi": 43,
      "hit": false,
      "t": 75413.39427083342,
      "d": 587.1141666666663,
      "v": 42
    },
    {
      "midi": 65,
      "hit": false,
      "t": 75690.37958333342,
      "d": 160.982916666675,
      "v": 45
    },
    {
      "midi": 55,
      "hit": false,
      "t": 75697.48177083342,
      "d": 194.12645833333954,
      "v": 42
    },
    {
      "midi": 59,
      "hit": false,
      "t": 75699.84916666675,
      "d": 137.30895833333489,
      "v": 46
    },
    {
      "midi": 55,
      "hit": false,
      "t": 76376.92437500009,
      "d": 1119.7782291666517,
      "v": 48
    },
    {
      "midi": 52,
      "hit": false,
      "t": 76376.92437500009,
      "d": 1131.6152083333145,
      "v": 43
    },
    {
      "midi": 60,
      "hit": false,
      "t": 76376.92437500009,
      "d": 1143.4521874999773,
      "v": 45
    },
    {
      "midi": 48,
      "hit": false,
      "t": 76381.65916666675,
      "d": 293.55708333333314,
      "v": 46
    },
    {
      "midi": 43,
      "hit": false,
      "t": 76817.26000000008,
      "d": 258.04614583333023,
      "v": 42
    },
    {
      "midi": 48,
      "hit": false,
      "t": 77248.12604166675,
      "d": 217.80041666666511,
      "v": 60
    },
    {
      "midi": 48,
      "hit": false,
      "t": 78225.8605208334,
      "d": 224.9026041666657,
      "v": 54
    }
  ]
}