{
  "jsonPath": "Animes/Magic Knight Rayearth MIDI Collection/my-love-lullaby.json",
  "path": "Animes\\Magic Knight Rayearth MIDI Collection\\My Love Lullaby.mid",
  "name": "My Love Lullaby",
  "difficulty": "Advanced",
  "bpm": 129.00007740004645,
  "notes": [
    {
      "midi": 81,
      "hit": false,
      "t": 0,
      "d": 236.43396666666663,
      "v": 100
    },
    {
      "midi": 74,
      "hit": false,
      "t": 0,
      "d": 236.43396666666663,
      "v": 100
    },
    {
      "midi": 76,
      "hit": false,
      "t": 0,
      "d": 248.06186666666665,
      "v": 100
    },
    {
      "midi": 77,
      "hit": false,
      "t": 0,
      "d": 267.44169999999997,
      "v": 100
    },
    {
      "midi": 86,
      "hit": false,
      "t": 0,
      "d": 282.94556666666665,
      "v": 100
    },
    {
      "midi": 38,
      "hit": false,
      "t": 0,
      "d": 465.11599999999993,
      "v": 100
    },
    {
      "midi": 26,
      "hit": false,
      "t": 0,
      "d": 465.11599999999993,
      "v": 100
    },
    {
      "midi": 35,
      "hit": false,
      "t": 0,
      "d": 58.13949999999999,
      "v": 120
    },
    {
      "midi": 36,
      "hit": false,
      "t": 0,
      "d": 58.13949999999999,
      "v": 120
    },
    {
      "midi": 38,
      "hit": false,
      "t": 0,
      "d": 58.13949999999999,
      "v": 80
    },
    {
      "midi": 42,
      "hit": false,
      "t": 232.55799999999996,
      "d": 58.13949999999997,
      "v": 60
    },
    {
      "midi": 76,
      "hit": false,
      "t": 348.837,
      "d": 279.06960000000004,
      "v": 100
    },
    {
      "midi": 72,
      "hit": false,
      "t": 348.837,
      "d": 279.06960000000004,
      "v": 100
    },
    {
      "midi": 39,
      "hit": false,
      "t": 465.11599999999993,
      "d": 58.13949999999994,
      "v": 100
    },
    {
      "midi": 28,
      "hit": false,
      "t": 465.11599999999993,
      "d": 58.13949999999994,
      "v": 100
    },
    {
      "midi": 42,
      "hit": false,
      "t": 697.6739999999999,
      "d": 58.1395,
      "v": 60
    },
    {
      "midi": 76,
      "hit": false,
      "t": 697.674,
      "d": 186.04639999999995,
      "v": 100
    },
    {
      "midi": 72,
      "hit": false,
      "t": 697.674,
      "d": 186.04639999999995,
      "v": 100
    },
    {
      "midi": 38,
      "hit": false,
      "t": 813.9529999999999,
      "d": 58.1395,
      "v": 80
    },
    {
      "midi": 38,
      "hit": false,
      "t": 930.2319999999999,
      "d": 465.1159999999999,
      "v": 100
    },
    {
      "midi": 26,
      "hit": false,
      "t": 930.2319999999999,
      "d": 465.1159999999999,
      "v": 100
    },
    {
      "midi": 35,
      "hit": false,
      "t": 930.2319999999999,
      "d": 58.1395,
      "v": 120
    },
    {
      "midi": 36,
      "hit": false,
      "t": 930.2319999999999,
      "d": 58.1395,
      "v": 120
    },
    {
      "midi": 38,
      "hit": false,
      "t": 930.2319999999999,
      "d": 58.1395,
      "v": 80
    },
    {
      "midi": 76,
      "hit": false,
      "t": 930.232,
      "d": 279.06960000000004,
      "v": 100
    },
    {
      "midi": 72,
      "hit": false,
      "t": 930.232,
      "d": 279.06960000000004,
      "v": 100
    },
    {
      "midi": 42,
      "hit": false,
      "t": 1162.7899999999997,
      "d": 58.1395,
      "v": 60
    },
    {
      "midi": 76,
      "hit": false,
      "t": 1279.069,
      "d": 279.06960000000004,
      "v": 100
    },
    {
      "midi": 72,
      "hit": false,
      "t": 1279.069,
      "d": 279.06960000000004,
      "v": 100
    },
    {
      "midi": 38,
      "hit": false,
      "t": 1279.069,
      "d": 58.1395,
      "v": 80
    },
    {
      "midi": 38,
      "hit": false,
      "t": 1395.3479999999997,
      "d": 232.558,
      "v": 100
    },
    {
      "midi": 26,
      "hit": false,
      "t": 1395.3479999999997,
      "d": 232.558,
      "v": 100
    },
    {
      "midi": 35,
      "hit": false,
      "t": 1395.3479999999997,
      "d": 58.1395,
      "v": 120
    },
    {
      "midi": 36,
      "hit": false,
      "t": 1395.3479999999997,
      "d": 58.1395,
      "v": 120
    },
    {
      "midi": 39,
      "hit": false,
      "t": 1395.3479999999997,
      "d": 58.1395,
      "v": 100
    },
    {
      "midi": 28,
      "hit": false,
      "t": 1395.3479999999997,
      "d": 58.1395,
      "v": 100
    },
    {
      "midi": 38,
      "hit": false,
      "t": 1395.348,
      "d": 58.1395,
      "v": 80
    },
    {
      "midi": 38,
      "hit": false,
      "t": 1627.9059999999997,
      "d": 232.558,
      "v": 100
    },
    {
      "midi": 26,
      "hit": false,
      "t": 1627.9059999999997,
      "d": 232.558,
      "v": 100
    },
    {
      "midi": 35,
      "hit": false,
      "t": 1627.9059999999997,
      "d": 58.1395,
      "v": 120
    },
    {
      "midi": 36,
      "hit": false,
      "t": 1627.9059999999997,
      "d": 58.1395,
      "v": 120
    },
    {
      "midi": 76,
      "hit": false,
      "t": 1627.906,
      "d": 186.04639999999995,
      "v": 100
    },
    {
      "midi": 72,
      "hit": false,
      "t": 1627.906,
      "d": 186.04639999999995,
      "v": 100
    },
    {
      "midi": 38,
      "hit": false,
      "t": 1627.906,
      "d": 58.1395,
      "v": 80
    },
    {
      "midi": 40,
      "hit": false,
      "t": 1860.4639999999997,
      "d": 465.11599999999976,
      "v": 100
    },
    {
      "midi": 28,
      "hit": false,
      "t": 1860.4639999999997,
      "d": 465.11599999999976,
      "v": 100
    },
    {
      "midi": 35,
      "hit": false,
      "t": 1860.4639999999997,
      "d": 58.1395,
      "v": 120
    },
    {
      "midi": 36,
      "hit": false,
      "t": 1860.4639999999997,
      "d": 58.1395,
      "v": 120
    },
    {
      "midi": 46,
      "hit": false,
      "t": 2093.0219999999995,
      "d": 116.279,
      "v": 60
    },
    {
      "midi": 74,
      "hit": false,
      "t": 2209.301,
      "d": 116.279,
      "v": 100
    },
    {
      "midi": 78,
      "hit": false,
      "t": 2209.301,
      "d": 279.0695999999998,
      "v": 100
    },
    {
      "midi": 74,
      "hit": false,
      "t": 2209.301,
      "d": 279.0695999999998,
      "v": 100
    },
    {
      "midi": 76,
      "hit": false,
      "t": 2325.58,
      "d": 116.279,
      "v": 100
    },
    {
      "midi": 46,
      "hit": false,
      "t": 2558.1379999999995,
      "d": 116.279,
      "v": 60
    },
    {
      "midi": 76,
      "hit": false,
      "t": 2558.138,
      "d": 116.279,
      "v": 100
    },
    {
      "midi": 78,
      "hit": false,
      "t": 2558.138,
      "d": 279.0695999999998,
      "v": 100
    },
    {
      "midi": 74,
      "hit": false,
      "t": 2558.138,
      "d": 279.0695999999998,
      "v": 100
    },
    {
      "midi": 42,
      "hit": false,
      "t": 3023.2539999999995,
      "d": 116.279,
      "v": 60
    },
    {
      "midi": 42,
      "hit": false,
      "t": 3255.8119999999994,
      "d": 116.279,
      "v": 60
    },
    {
      "midi": 42,
      "hit": false,
      "t": 3488.3699999999994,
      "d": 116.279,
      "v": 60
    },
    {
      "midi": 38,
      "hit": false,
      "t": 3720.9279999999994,
      "d": 232.558,
      "v": 100
    },
    {
      "midi": 36,
      "hit": false,
      "t": 3720.9279999999994,
      "d": 58.13949999999977,
      "v": 120
    },
    {
      "midi": 35,
      "hit": false,
      "t": 3720.9279999999994,
      "d": 58.13949999999977,
      "v": 120
    },
    {
      "midi": 62,
      "hit": false,
      "t": 3720.9279999999994,
      "d": 1860.4639999999995,
      "v": 100
    },
    {
      "midi": 57,
      "hit": false,
      "t": 3720.9279999999994,
      "d": 1860.4639999999995,
      "v": 100
    },
    {
      "midi": 38,
      "hit": false,
      "t": 3720.928,
      "d": 58.13949999999977,
      "v": 80
    },
    {
      "midi": 42,
      "hit": false,
      "t": 3953.4859999999994,
      "d": 58.13949999999977,
      "v": 60
    },
    {
      "midi": 39,
      "hit": false,
      "t": 4186.044,
      "d": 58.139500000000226,
      "v": 100
    },
    {
      "midi": 28,
      "hit": false,
      "t": 4186.044,
      "d": 58.139500000000226,
      "v": 100
    },
    {
      "midi": 62,
      "hit": false,
      "t": 4418.601999999999,
      "d": 232.558,
      "v": 100
    },
    {
      "midi": 42,
      "hit": false,
      "t": 4418.601999999999,
      "d": 58.139500000000226,
      "v": 60
    },
    {
      "midi": 65,
      "hit": false,
      "t": 4418.602,
      "d": 465.116,
      "v": 100
    },
    {
      "midi": 64,
      "hit": false,
      "t": 4418.602,
      "d": 465.116,
      "v": 100
    },
    {
      "midi": 62,
      "hit": false,
      "t": 4418.602,
      "d": 465.116,
      "v": 100
    },
    {
      "midi": 38,
      "hit": false,
      "t": 4534.880999999999,
      "d": 58.139500000000226,
      "v": 80
    },
    {
      "midi": 62,
      "hit": false,
      "t": 4651.159999999999,
      "d": 348.83700000000044,
      "v": 100
    },
    {
      "midi": 36,
      "hit": false,
      "t": 4651.159999999999,
      "d": 58.139500000000226,
      "v": 120
    },
    {
      "midi": 35,
      "hit": false,
      "t": 4651.159999999999,
      "d": 58.139500000000226,
      "v": 120
    },
    {
      "midi": 38,
      "hit": false,
      "t": 4651.16,
      "d": 232.558,
      "v": 100
    },
    {
      "midi": 38,
      "hit": false,
      "t": 4651.16,
      "d": 58.139500000000226,
      "v": 80
    },
    {
      "midi": 42,
      "hit": false,
      "t": 4883.717999999999,
      "d": 58.139500000000226,
      "v": 60
    },
    {
      "midi": 57,
      "hit": false,
      "t": 4883.718,
      "d": 465.116,
      "v": 100
    },
    {
      "midi": 64,
      "hit": false,
      "t": 4999.996999999999,
      "d": 348.83699999999953,
      "v": 100
    },
    {
      "midi": 38,
      "hit": false,
      "t": 4999.997,
      "d": 58.139500000000226,
      "v": 80
    },
    {
      "midi": 36,
      "hit": false,
      "t": 5116.275999999999,
      "d": 58.139500000000226,
      "v": 120
    },
    {
      "midi": 35,
      "hit": false,
      "t": 5116.275999999999,
      "d": 58.139500000000226,
      "v": 120
    },
    {
      "midi": 38,
      "hit": false,
      "t": 5116.276,
      "d": 232.558,
      "v": 100
    },
    {
      "midi": 39,
      "hit": false,
      "t": 5116.276,
      "d": 58.139500000000226,
      "v": 100
    },
    {
      "midi": 28,
      "hit": false,
      "t": 5116.276,
      "d": 58.139500000000226,
      "v": 100
    },
    {
      "midi": 38,
      "hit": false,
      "t": 5116.276000000001,
      "d": 58.139500000000226,
      "v": 80
    },
    {
      "midi": 65,
      "hit": false,
      "t": 5348.833999999999,
      "d": 232.558,
      "v": 100
    },
    {
      "midi": 36,
      "hit": false,
      "t": 5348.833999999999,
      "d": 58.139500000000226,
      "v": 120
    },
    {
      "midi": 35,
      "hit": false,
      "t": 5348.833999999999,
      "d": 58.139500000000226,
      "v": 120
    },
    {
      "midi": 38,
      "hit": false,
      "t": 5348.834,
      "d": 232.558,
      "v": 100
    },
    {
      "midi": 38,
      "hit": false,
      "t": 5348.834000000001,
      "d": 58.139500000000226,
      "v": 80
    },
    {
      "midi": 65,
      "hit": false,
      "t": 5581.391999999999,
      "d": 348.83700000000044,
      "v": 100
    },
    {
      "midi": 36,
      "hit": false,
      "t": 5581.391999999999,
      "d": 58.139500000000226,
      "v": 120
    },
    {
      "midi": 35,
      "hit": false,
      "t": 5581.391999999999,
      "d": 58.139500000000226,
      "v": 120
    },
    {
      "midi": 64,
      "hit": false,
      "t": 5581.391999999999,
      "d": 1860.464,
      "v": 100
    },
    {
      "midi": 61,
      "hit": false,
      "t": 5581.391999999999,
      "d": 1860.464,
      "v": 100
    },
    {
      "midi": 57,
      "hit": false,
      "t": 5581.391999999999,
      "d": 1860.464,
      "v": 100
    },
    {
      "midi": 40,
      "hit": false,
      "t": 5581.392,
      "d": 232.558,
      "v": 100
    },
    {
      "midi": 38,
      "hit": false,
      "t": 5581.392000000001,
      "d": 58.139500000000226,
      "v": 80
    },
    {
      "midi": 42,
      "hit": false,
      "t": 5813.949999999999,
      "d": 58.139500000000226,
      "v": 60
    },
    {
      "midi": 64,
      "hit": false,
      "t": 5930.228999999999,
      "d": 930.232,
      "v": 100
    },
    {
      "midi": 39,
      "hit": false,
      "t": 6046.508,
      "d": 58.139500000000226,
      "v": 100
    },
    {
      "midi": 28,
      "hit": false,
      "t": 6046.508,
      "d": 58.139500000000226,
      "v": 100
    },
    {
      "midi": 42,
      "hit": false,
      "t": 6279.065999999999,
      "d": 58.139500000000226,
      "v": 60
    },
    {
      "midi": 67,
      "hit": false,
      "t": 6279.066,
      "d": 465.116,
      "v": 100
    },
    {
      "midi": 64,
      "hit": false,
      "t": 6279.066,
      "d": 465.116,
      "v": 100
    },
    {
      "midi": 61,
      "hit": false,
      "t": 6279.066,
      "d": 465.116,
      "v": 100
    },
    {
      "midi": 38,
      "hit": false,
      "t": 6395.345000000001,
      "d": 58.139500000000226,
      "v": 80
    },
    {
      "midi": 36,
      "hit": false,
      "t": 6511.623999999999,
      "d": 58.139500000000226,
      "v": 120
    },
    {
      "midi": 35,
      "hit": false,
      "t": 6511.623999999999,
      "d": 58.139500000000226,
      "v": 120
    },
    {
      "midi": 40,
      "hit": false,
      "t": 6511.624,
      "d": 232.558,
      "v": 100
    },
    {
      "midi": 38,
      "hit": false,
      "t": 6511.624000000002,
      "d": 58.139500000000226,
      "v": 80
    },
    {
      "midi": 42,
      "hit": false,
      "t": 6744.181999999999,
      "d": 58.139500000000226,
      "v": 60
    },
    {
      "midi": 57,
      "hit": false,
      "t": 6744.182,
      "d": 465.116,
      "v": 100
    },
    {
      "midi": 38,
      "hit": false,
      "t": 6860.461000000002,
      "d": 58.139500000000226,
      "v": 80
    },
    {
      "midi": 57,
      "hit": false,
      "t": 6976.739999999999,
      "d": 232.558,
      "v": 100
    },
    {
      "midi": 36,
      "hit": false,
      "t": 6976.739999999999,
      "d": 58.139500000000226,
      "v": 120
    },
    {
      "midi": 35,
      "hit": false,
      "t": 6976.739999999999,
      "d": 58.139500000000226,
      "v": 120
    },
    {
      "midi": 40,
      "hit": false,
      "t": 6976.74,
      "d": 232.558,
      "v": 100
    },
    {
      "midi": 39,
      "hit": false,
      "t": 6976.74,
      "d": 58.139500000000226,
      "v": 100
    },
    {
      "midi": 28,
      "hit": false,
      "t": 6976.74,
      "d": 58.139500000000226,
      "v": 100
    },
    {
      "midi": 38,
      "hit": false,
      "t": 6976.7400000000025,
      "d": 58.139500000000226,
      "v": 80
    },
    {
      "midi": 65,
      "hit": false,
      "t": 7209.297999999999,
      "d": 465.116,
      "v": 100
    },
    {
      "midi": 36,
      "hit": false,
      "t": 7209.297999999999,
      "d": 58.139500000000226,
      "v": 120
    },
    {
      "midi": 35,
      "hit": false,
      "t": 7209.297999999999,
      "d": 58.139500000000226,
      "v": 120
    },
    {
      "midi": 40,
      "hit": false,
      "t": 7209.298,
      "d": 232.558,
      "v": 100
    },
    {
      "midi": 38,
      "hit": false,
      "t": 7209.2980000000025,
      "d": 58.139500000000226,
      "v": 80
    },
    {
      "midi": 36,
      "hit": false,
      "t": 7441.855999999999,
      "d": 58.139500000000226,
      "v": 120
    },
    {
      "midi": 35,
      "hit": false,
      "t": 7441.855999999999,
      "d": 58.139500000000226,
      "v": 120
    },
    {
      "midi": 65,
      "hit": false,
      "t": 7441.855999999999,
      "d": 1860.463999999999,
      "v": 100
    },
    {
      "midi": 62,
      "hit": false,
      "t": 7441.855999999999,
      "d": 1860.463999999999,
      "v": 100
    },
    {
      "midi": 41,
      "hit": false,
      "t": 7441.856,
      "d": 232.558,
      "v": 100
    },
    {
      "midi": 38,
      "hit": false,
      "t": 7441.8560000000025,
      "d": 58.139500000000226,
      "v": 80
    },
    {
      "midi": 65,
      "hit": false,
      "t": 7674.413999999999,
      "d": 232.558,
      "v": 100
    },
    {
      "midi": 42,
      "hit": false,
      "t": 7674.413999999999,
      "d": 58.139500000000226,
      "v": 60
    },
    {
      "midi": 65,
      "hit": false,
      "t": 7906.971999999999,
      "d": 232.558,
      "v": 100
    },
    {
      "midi": 39,
      "hit": false,
      "t": 7906.972,
      "d": 58.139500000000226,
      "v": 100
    },
    {
      "midi": 28,
      "hit": false,
      "t": 7906.972,
      "d": 58.139500000000226,
      "v": 100
    },
    {
      "midi": 65,
      "hit": false,
      "t": 8139.529999999999,
      "d": 232.55799999999908,
      "v": 100
    },
    {
      "midi": 42,
      "hit": false,
      "t": 8139.529999999999,
      "d": 58.139499999999316,
      "v": 60
    },
    {
      "midi": 65,
      "hit": false,
      "t": 8139.53,
      "d": 465.1159999999991,
      "v": 100
    },
    {
      "midi": 69,
      "hit": false,
      "t": 8139.53,
      "d": 465.1159999999991,
      "v": 100
    },
    {
      "midi": 67,
      "hit": false,
      "t": 8139.53,
      "d": 465.1159999999991,
      "v": 100
    },
    {
      "midi": 38,
      "hit": false,
      "t": 8255.809000000003,
      "d": 58.139499999999316,
      "v": 80
    },
    {
      "midi": 65,
      "hit": false,
      "t": 8372.087999999998,
      "d": 232.55799999999908,
      "v": 100
    },
    {
      "midi": 41,
      "hit": false,
      "t": 8372.088,
      "d": 232.55799999999908,
      "v": 100
    },
    {
      "midi": 36,
      "hit": false,
      "t": 8372.088,
      "d": 58.139499999999316,
      "v": 120
    },
    {
      "midi": 35,
      "hit": false,
      "t": 8372.088,
      "d": 58.139499999999316,
      "v": 120
    },
    {
      "midi": 38,
      "hit": false,
      "t": 8372.088000000002,
      "d": 58.139499999999316,
      "v": 80
    },
    {
      "midi": 65,
      "hit": false,
      "t": 8604.645999999997,
      "d": 232.55799999999908,
      "v": 100
    },
    {
      "midi": 60,
      "hit": false,
      "t": 8604.645999999999,
      "d": 465.116,
      "v": 100
    },
    {
      "midi": 42,
      "hit": false,
      "t": 8604.645999999999,
      "d": 58.139499999999316,
      "v": 60
    },
    {
      "midi": 38,
      "hit": false,
      "t": 8720.925000000001,
      "d": 58.139499999999316,
      "v": 80
    },
    {
      "midi": 67,
      "hit": false,
      "t": 8837.203999999996,
      "d": 232.55799999999908,
      "v": 100
    },
    {
      "midi": 41,
      "hit": false,
      "t": 8837.203999999998,
      "d": 232.55799999999908,
      "v": 100
    },
    {
      "midi": 36,
      "hit": false,
      "t": 8837.204,
      "d": 58.139499999999316,
      "v": 120
    },
    {
      "midi": 35,
      "hit": false,
      "t": 8837.204,
      "d": 58.139499999999316,
      "v": 120
    },
    {
      "midi": 38,
      "hit": false,
      "t": 8837.204,
      "d": 58.139499999999316,
      "v": 80
    },
    {
      "midi": 39,
      "hit": false,
      "t": 8837.204,
      "d": 58.139499999999316,
      "v": 100
    },
    {
      "midi": 28,
      "hit": false,
      "t": 8837.204,
      "d": 58.139499999999316,
      "v": 100
    },
    {
      "midi": 69,
      "hit": false,
      "t": 9069.761999999995,
      "d": 232.55799999999908,
      "v": 100
    },
    {
      "midi": 41,
      "hit": false,
      "t": 9069.761999999997,
      "d": 232.55799999999908,
      "v": 100
    },
    {
      "midi": 36,
      "hit": false,
      "t": 9069.761999999999,
      "d": 58.139499999999316,
      "v": 120
    },
    {
      "midi": 35,
      "hit": false,
      "t": 9069.761999999999,
      "d": 58.139499999999316,
      "v": 120
    },
    {
      "midi": 38,
      "hit": false,
      "t": 9069.761999999999,
      "d": 58.139499999999316,
      "v": 80
    },
    {
      "midi": 67,
      "hit": false,
      "t": 9302.319999999994,
      "d": 348.83699999999953,
      "v": 100
    },
    {
      "midi": 43,
      "hit": false,
      "t": 9302.319999999996,
      "d": 232.55799999999908,
      "v": 100
    },
    {
      "midi": 36,
      "hit": false,
      "t": 9302.319999999998,
      "d": 58.139499999999316,
      "v": 120
    },
    {
      "midi": 35,
      "hit": false,
      "t": 9302.319999999998,
      "d": 58.139499999999316,
      "v": 120
    },
    {
      "midi": 38,
      "hit": false,
      "t": 9302.319999999998,
      "d": 58.139499999999316,
      "v": 80
    },
    {
      "midi": 67,
      "hit": false,
      "t": 9302.319999999998,
      "d": 3720.928,
      "v": 100
    },
    {
      "midi": 58,
      "hit": false,
      "t": 9302.319999999998,
      "d": 3720.928,
      "v": 100
    },
    {
      "midi": 42,
      "hit": false,
      "t": 9534.877999999999,
      "d": 58.139499999999316,
      "v": 60
    },
    {
      "midi": 62,
      "hit": false,
      "t": 9651.156999999994,
      "d": 930.232,
      "v": 100
    },
    {
      "midi": 39,
      "hit": false,
      "t": 9767.436,
      "d": 58.139499999999316,
      "v": 100
    },
    {
      "midi": 28,
      "hit": false,
      "t": 9767.436,
      "d": 58.139499999999316,
      "v": 100
    },
    {
      "midi": 67,
      "hit": false,
      "t": 9999.993999999999,
      "d": 465.116,
      "v": 100
    },
    {
      "midi": 62,
      "hit": false,
      "t": 9999.993999999999,
      "d": 465.116,
      "v": 100
    },
    {
      "midi": 65,
      "hit": false,
      "t": 9999.993999999999,
      "d": 465.116,
      "v": 100
    },
    {
      "midi": 42,
      "hit": false,
      "t": 9999.993999999999,
      "d": 58.139499999999316,
      "v": 60
    },
    {
      "midi": 38,
      "hit": false,
      "t": 10116.272999999997,
      "d": 58.139499999999316,
      "v": 80
    },
    {
      "midi": 43,
      "hit": false,
      "t": 10232.551999999996,
      "d": 232.55799999999908,
      "v": 100
    },
    {
      "midi": 38,
      "hit": false,
      "t": 10232.551999999996,
      "d": 58.139499999999316,
      "v": 80
    },
    {
      "midi": 36,
      "hit": false,
      "t": 10232.551999999998,
      "d": 58.139499999999316,
      "v": 120
    },
    {
      "midi": 35,
      "hit": false,
      "t": 10232.551999999998,
      "d": 58.139499999999316,
      "v": 120
    },
    {
      "midi": 58,
      "hit": false,
      "t": 10465.109999999999,
      "d": 465.116,
      "v": 100
    },
    {
      "midi": 42,
      "hit": false,
      "t": 10465.109999999999,
      "d": 58.139499999999316,
      "v": 60
    },
    {
      "midi": 38,
      "hit": false,
      "t": 10581.388999999996,
      "d": 58.139499999999316,
      "v": 80
    },
    {
      "midi": 58,
      "hit": false,
      "t": 10697.667999999994,
      "d": 232.55799999999908,
      "v": 100
    },
    {
      "midi": 43,
      "hit": false,
      "t": 10697.667999999994,
      "d": 232.55799999999908,
      "v": 100
    },
    {
      "midi": 38,
      "hit": false,
      "t": 10697.667999999994,
      "d": 58.139499999999316,
      "v": 80
    },
    {
      "midi": 36,
      "hit": false,
      "t": 10697.667999999998,
      "d": 58.139499999999316,
      "v": 120
    },
    {
      "midi": 35,
      "hit": false,
      "t": 10697.667999999998,
      "d": 58.139499999999316,
      "v": 120
    },
    {
      "midi": 39,
      "hit": false,
      "t": 10697.668,
      "d": 58.139499999999316,
      "v": 100
    },
    {
      "midi": 28,
      "hit": false,
      "t": 10697.668,
      "d": 58.139499999999316,
      "v": 100
    },
    {
      "midi": 69,
      "hit": false,
      "t": 10930.225999999993,
      "d": 465.116,
      "v": 100
    },
    {
      "midi": 45,
      "hit": false,
      "t": 10930.225999999993,
      "d": 232.55799999999908,
      "v": 100
    },
    {
      "midi": 38,
      "hit": false,
      "t": 10930.225999999993,
      "d": 58.139499999999316,
      "v": 80
    },
    {
      "midi": 36,
      "hit": false,
      "t": 10930.225999999997,
      "d": 58.139499999999316,
      "v": 120
    },
    {
      "midi": 35,
      "hit": false,
      "t": 10930.225999999997,
      "d": 58.139499999999316,
      "v": 120
    },
    {
      "midi": 46,
      "hit": false,
      "t": 11162.783999999992,
      "d": 232.55799999999908,
      "v": 100
    },
    {
      "midi": 38,
      "hit": false,
      "t": 11162.783999999992,
      "d": 58.139499999999316,
      "v": 80
    },
    {
      "midi": 36,
      "hit": false,
      "t": 11162.783999999996,
      "d": 58.139499999999316,
      "v": 120
    },
    {
      "midi": 35,
      "hit": false,
      "t": 11162.783999999996,
      "d": 58.139499999999316,
      "v": 120
    },
    {
      "midi": 62,
      "hit": false,
      "t": 11162.783999999998,
      "d": 1860.464,
      "v": 100
    },
    {
      "midi": 69,
      "hit": false,
      "t": 11395.341999999993,
      "d": 232.55799999999908,
      "v": 100
    },
    {
      "midi": 42,
      "hit": false,
      "t": 11395.341999999999,
      "d": 58.139499999999316,
      "v": 60
    },
    {
      "midi": 65,
      "hit": false,
      "t": 11627.899999999992,
      "d": 232.55799999999908,
      "v": 100
    },
    {
      "midi": 39,
      "hit": false,
      "t": 11627.9,
      "d": 58.139499999999316,
      "v": 100
    },
    {
      "midi": 28,
      "hit": false,
      "t": 11627.9,
      "d": 58.139499999999316,
      "v": 100
    },
    {
      "midi": 65,
      "hit": false,
      "t": 11860.457999999991,
      "d": 232.55799999999908,
      "v": 100
    },
    {
      "midi": 65,
      "hit": false,
      "t": 11860.457999999999,
      "d": 465.116,
      "v": 100
    },
    {
      "midi": 62,
      "hit": false,
      "t": 11860.457999999999,
      "d": 465.116,
      "v": 100
    },
    {
      "midi": 60,
      "hit": false,
      "t": 11860.457999999999,
      "d": 465.116,
      "v": 100
    },
    {
      "midi": 42,
      "hit": false,
      "t": 11860.457999999999,
      "d": 58.139499999999316,
      "v": 60
    },
    {
      "midi": 38,
      "hit": false,
      "t": 11976.736999999992,
      "d": 58.139499999999316,
      "v": 80
    },
    {
      "midi": 62,
      "hit": false,
      "t": 12093.01599999999,
      "d": 232.55799999999908,
      "v": 100
    },
    {
      "midi": 38,
      "hit": false,
      "t": 12093.01599999999,
      "d": 58.139499999999316,
      "v": 80
    },
    {
      "midi": 46,
      "hit": false,
      "t": 12093.015999999992,
      "d": 232.55799999999908,
      "v": 100
    },
    {
      "midi": 36,
      "hit": false,
      "t": 12093.015999999996,
      "d": 58.139499999999316,
      "v": 120
    },
    {
      "midi": 35,
      "hit": false,
      "t": 12093.015999999996,
      "d": 58.139499999999316,
      "v": 120
    },
    {
      "midi": 58,
      "hit": false,
      "t": 12325.57399999999,
      "d": 232.55799999999908,
      "v": 100
    },
    {
      "midi": 58,
      "hit": false,
      "t": 12325.573999999999,
      "d": 465.116,
      "v": 100
    },
    {
      "midi": 42,
      "hit": false,
      "t": 12325.573999999999,
      "d": 58.139499999999316,
      "v": 60
    },
    {
      "midi": 38,
      "hit": false,
      "t": 12441.85299999999,
      "d": 58.139499999999316,
      "v": 80
    },
    {
      "midi": 58,
      "hit": false,
      "t": 12558.131999999989,
      "d": 232.55799999999908,
      "v": 100
    },
    {
      "midi": 38,
      "hit": false,
      "t": 12558.131999999989,
      "d": 58.139499999999316,
      "v": 80
    },
    {
      "midi": 41,
      "hit": false,
      "t": 12558.13199999999,
      "d": 232.55799999999908,
      "v": 100
    },
    {
      "midi": 36,
      "hit": false,
      "t": 12558.131999999996,
      "d": 58.139499999999316,
      "v": 120
    },
    {
      "midi": 35,
      "hit": false,
      "t": 12558.131999999996,
      "d": 58.139499999999316,
      "v": 120
    },
    {
      "midi": 39,
      "hit": false,
      "t": 12558.132,
      "d": 58.139499999999316,
      "v": 100
    },
    {
      "midi": 28,
      "hit": false,
      "t": 12558.132,
      "d": 58.139499999999316,
      "v": 100
    },
    {
      "midi": 67,
      "hit": false,
      "t": 12790.689999999988,
      "d": 465.116,
      "v": 100
    },
    {
      "midi": 38,
      "hit": false,
      "t": 12790.689999999988,
      "d": 58.139499999999316,
      "v": 80
    },
    {
      "midi": 46,
      "hit": false,
      "t": 12790.68999999999,
      "d": 232.55799999999908,
      "v": 100
    },
    {
      "midi": 36,
      "hit": false,
      "t": 12790.689999999995,
      "d": 58.139499999999316,
      "v": 120
    },
    {
      "midi": 35,
      "hit": false,
      "t": 12790.689999999995,
      "d": 58.139499999999316,
      "v": 120
    },
    {
      "midi": 38,
      "hit": false,
      "t": 13023.247999999987,
      "d": 58.139499999999316,
      "v": 80
    },
    {
      "midi": 45,
      "hit": false,
      "t": 13023.247999999989,
      "d": 232.55799999999908,
      "v": 100
    },
    {
      "midi": 36,
      "hit": false,
      "t": 13023.247999999994,
      "d": 58.139499999999316,
      "v": 120
    },
    {
      "midi": 35,
      "hit": false,
      "t": 13023.247999999994,
      "d": 58.139499999999316,
      "v": 120
    },
    {
      "midi": 60,
      "hit": false,
      "t": 13023.247999999998,
      "d": 1860.464,
      "v": 100
    },
    {
      "midi": 64,
      "hit": false,
      "t": 13023.247999999998,
      "d": 1860.464,
      "v": 100
    },
    {
      "midi": 67,
      "hit": false,
      "t": 13023.247999999998,
      "d": 1860.464,
      "v": 100
    },
    {
      "midi": 67,
      "hit": false,
      "t": 13255.805999999988,
      "d": 232.55799999999908,
      "v": 100
    },
    {
      "midi": 42,
      "hit": false,
      "t": 13255.805999999999,
      "d": 58.139499999999316,
      "v": 60
    },
    {
      "midi": 64,
      "hit": false,
      "t": 13488.363999999987,
      "d": 232.55799999999908,
      "v": 100
    },
    {
      "midi": 39,
      "hit": false,
      "t": 13488.364,
      "d": 58.139499999999316,
      "v": 100
    },
    {
      "midi": 28,
      "hit": false,
      "t": 13488.364,
      "d": 58.139499999999316,
      "v": 100
    },
    {
      "midi": 64,
      "hit": false,
      "t": 13720.921999999986,
      "d": 232.55799999999908,
      "v": 100
    },
    {
      "midi": 67,
      "hit": false,
      "t": 13720.921999999999,
      "d": 465.116,
      "v": 100
    },
    {
      "midi": 62,
      "hit": false,
      "t": 13720.921999999999,
      "d": 465.116,
      "v": 100
    },
    {
      "midi": 60,
      "hit": false,
      "t": 13720.921999999999,
      "d": 465.116,
      "v": 100
    },
    {
      "midi": 42,
      "hit": false,
      "t": 13720.921999999999,
      "d": 58.139499999999316,
      "v": 60
    },
    {
      "midi": 38,
      "hit": false,
      "t": 13837.200999999986,
      "d": 58.139499999999316,
      "v": 80
    },
    {
      "midi": 60,
      "hit": false,
      "t": 13953.479999999985,
      "d": 232.55799999999908,
      "v": 100
    },
    {
      "midi": 38,
      "hit": false,
      "t": 13953.479999999985,
      "d": 58.139499999999316,
      "v": 80
    },
    {
      "midi": 45,
      "hit": false,
      "t": 13953.479999999989,
      "d": 232.55799999999908,
      "v": 100
    },
    {
      "midi": 36,
      "hit": false,
      "t": 13953.479999999994,
      "d": 58.139499999999316,
      "v": 120
    },
    {
      "midi": 35,
      "hit": false,
      "t": 13953.479999999994,
      "d": 58.139499999999316,
      "v": 120
    },
    {
      "midi": 57,
      "hit": false,
      "t": 14186.037999999984,
      "d": 465.116,
      "v": 100
    },
    {
      "midi": 57,
      "hit": false,
      "t": 14186.037999999999,
      "d": 465.116,
      "v": 100
    },
    {
      "midi": 42,
      "hit": false,
      "t": 14186.037999999999,
      "d": 58.139499999999316,
      "v": 60
    },
    {
      "midi": 38,
      "hit": false,
      "t": 14302.316999999985,
      "d": 58.139499999999316,
      "v": 80
    },
    {
      "midi": 38,
      "hit": false,
      "t": 14418.595999999983,
      "d": 58.139499999999316,
      "v": 80
    },
    {
      "midi": 40,
      "hit": false,
      "t": 14418.595999999987,
      "d": 232.55799999999908,
      "v": 100
    },
    {
      "midi": 36,
      "hit": false,
      "t": 14418.595999999994,
      "d": 58.139499999999316,
      "v": 120
    },
    {
      "midi": 35,
      "hit": false,
      "t": 14418.595999999994,
      "d": 58.139499999999316,
      "v": 120
    },
    {
      "midi": 39,
      "hit": false,
      "t": 14418.596,
      "d": 58.139499999999316,
      "v": 100
    },
    {
      "midi": 28,
      "hit": false,
      "t": 14418.596,
      "d": 58.139499999999316,
      "v": 100
    },
    {
      "midi": 38,
      "hit": false,
      "t": 14651.153999999982,
      "d": 58.139499999999316,
      "v": 80
    },
    {
      "midi": 45,
      "hit": false,
      "t": 14651.153999999986,
      "d": 232.55799999999908,
      "v": 100
    },
    {
      "midi": 36,
      "hit": false,
      "t": 14651.153999999993,
      "d": 58.139499999999316,
      "v": 120
    },
    {
      "midi": 35,
      "hit": false,
      "t": 14651.153999999993,
      "d": 58.139499999999316,
      "v": 120
    },
    {
      "midi": 38,
      "hit": false,
      "t": 14883.711999999981,
      "d": 58.139499999999316,
      "v": 80
    },
    {
      "midi": 62,
      "hit": false,
      "t": 14883.711999999983,
      "d": 348.83699999999953,
      "v": 100
    },
    {
      "midi": 43,
      "hit": false,
      "t": 14883.711999999985,
      "d": 232.55799999999908,
      "v": 100
    },
    {
      "midi": 36,
      "hit": false,
      "t": 14883.711999999992,
      "d": 58.139499999999316,
      "v": 120
    },
    {
      "midi": 35,
      "hit": false,
      "t": 14883.711999999992,
      "d": 58.139499999999316,
      "v": 120
    },
    {
      "midi": 62,
      "hit": false,
      "t": 14883.711999999998,
      "d": 1860.4639999999981,
      "v": 100
    },
    {
      "midi": 55,
      "hit": false,
      "t": 14883.711999999998,
      "d": 1860.4639999999981,
      "v": 100
    },
    {
      "midi": 58,
      "hit": false,
      "t": 14883.711999999998,
      "d": 1860.4639999999981,
      "v": 100
    },
    {
      "midi": 42,
      "hit": false,
      "t": 15116.269999999999,
      "d": 58.139499999999316,
      "v": 60
    },
    {
      "midi": 62,
      "hit": false,
      "t": 15232.548999999983,
      "d": 348.83699999999953,
      "v": 100
    },
    {
      "midi": 39,
      "hit": false,
      "t": 15348.828,
      "d": 58.139499999999316,
      "v": 100
    },
    {
      "midi": 28,
      "hit": false,
      "t": 15348.828,
      "d": 58.139499999999316,
      "v": 100
    },
    {
      "midi": 62,
      "hit": false,
      "t": 15581.385999999982,
      "d": 232.55799999999908,
      "v": 100
    },
    {
      "midi": 62,
      "hit": false,
      "t": 15581.385999999999,
      "d": 465.116,
      "v": 100
    },
    {
      "midi": 60,
      "hit": false,
      "t": 15581.385999999999,
      "d": 465.116,
      "v": 100
    },
    {
      "midi": 65,
      "hit": false,
      "t": 15581.385999999999,
      "d": 465.116,
      "v": 100
    },
    {
      "midi": 42,
      "hit": false,
      "t": 15581.385999999999,
      "d": 58.139499999999316,
      "v": 60
    },
    {
      "midi": 38,
      "hit": false,
      "t": 15697.66499999998,
      "d": 58.139499999999316,
      "v": 80
    },
    {
      "midi": 38,
      "hit": false,
      "t": 15813.94399999998,
      "d": 58.139499999999316,
      "v": 80
    },
    {
      "midi": 62,
      "hit": false,
      "t": 15813.943999999981,
      "d": 348.83699999999953,
      "v": 100
    },
    {
      "midi": 43,
      "hit": false,
      "t": 15813.943999999985,
      "d": 232.55799999999908,
      "v": 100
    },
    {
      "midi": 36,
      "hit": false,
      "t": 15813.943999999992,
      "d": 58.139499999999316,
      "v": 120
    },
    {
      "midi": 35,
      "hit": false,
      "t": 15813.943999999992,
      "d": 58.139499999999316,
      "v": 120
    },
    {
      "midi": 58,
      "hit": false,
      "t": 16046.501999999999,
      "d": 465.116,
      "v": 100
    },
    {
      "midi": 42,
      "hit": false,
      "t": 16046.501999999999,
      "d": 58.139499999999316,
      "v": 60
    },
    {
      "midi": 38,
      "hit": false,
      "t": 16162.780999999979,
      "d": 58.139499999999316,
      "v": 80
    },
    {
      "midi": 64,
      "hit": false,
      "t": 16162.78099999998,
      "d": 348.83699999999953,
      "v": 100
    },
    {
      "midi": 38,
      "hit": false,
      "t": 16279.059999999978,
      "d": 58.139499999999316,
      "v": 80
    },
    {
      "midi": 38,
      "hit": false,
      "t": 16279.059999999983,
      "d": 232.5580000000009,
      "v": 100
    },
    {
      "midi": 36,
      "hit": false,
      "t": 16279.059999999992,
      "d": 58.139499999999316,
      "v": 120
    },
    {
      "midi": 35,
      "hit": false,
      "t": 16279.059999999992,
      "d": 58.139499999999316,
      "v": 120
    },
    {
      "midi": 39,
      "hit": false,
      "t": 16279.06,
      "d": 58.139499999999316,
      "v": 100
    },
    {
      "midi": 28,
      "hit": false,
      "t": 16279.06,
      "d": 58.139499999999316,
      "v": 100
    },
    {
      "midi": 38,
      "hit": false,
      "t": 16511.617999999977,
      "d": 58.139500000001135,
      "v": 80
    },
    {
      "midi": 65,
      "hit": false,
      "t": 16511.61799999998,
      "d": 232.5580000000009,
      "v": 100
    },
    {
      "midi": 43,
      "hit": false,
      "t": 16511.617999999984,
      "d": 232.5580000000009,
      "v": 100
    },
    {
      "midi": 36,
      "hit": false,
      "t": 16511.61799999999,
      "d": 58.139500000001135,
      "v": 120
    },
    {
      "midi": 35,
      "hit": false,
      "t": 16511.61799999999,
      "d": 58.139500000001135,
      "v": 120
    },
    {
      "midi": 38,
      "hit": false,
      "t": 16744.175999999978,
      "d": 58.139500000001135,
      "v": 80
    },
    {
      "midi": 65,
      "hit": false,
      "t": 16744.17599999998,
      "d": 348.83699999999953,
      "v": 100
    },
    {
      "midi": 45,
      "hit": false,
      "t": 16744.175999999985,
      "d": 232.5580000000009,
      "v": 100
    },
    {
      "midi": 36,
      "hit": false,
      "t": 16744.175999999992,
      "d": 58.139500000001135,
      "v": 120
    },
    {
      "midi": 35,
      "hit": false,
      "t": 16744.175999999992,
      "d": 58.139500000001135,
      "v": 120
    },
    {
      "midi": 57,
      "hit": false,
      "t": 16744.175999999996,
      "d": 1860.464,
      "v": 100
    },
    {
      "midi": 64,
      "hit": false,
      "t": 16744.175999999996,
      "d": 1860.464,
      "v": 100
    },
    {
      "midi": 61,
      "hit": false,
      "t": 16744.175999999996,
      "d": 1860.464,
      "v": 100
    },
    {
      "midi": 42,
      "hit": false,
      "t": 16976.733999999997,
      "d": 58.139500000001135,
      "v": 60
    },
    {
      "midi": 64,
      "hit": false,
      "t": 17093.01299999998,
      "d": 581.3950000000004,
      "v": 100
    },
    {
      "midi": 39,
      "hit": false,
      "t": 17209.291999999998,
      "d": 58.139500000001135,
      "v": 100
    },
    {
      "midi": 28,
      "hit": false,
      "t": 17209.291999999998,
      "d": 58.139500000001135,
      "v": 100
    },
    {
      "midi": 69,
      "hit": false,
      "t": 17441.85,
      "d": 465.11599999999817,
      "v": 100
    },
    {
      "midi": 67,
      "hit": false,
      "t": 17441.85,
      "d": 465.11599999999817,
      "v": 100
    },
    {
      "midi": 64,
      "hit": false,
      "t": 17441.85,
      "d": 465.11599999999817,
      "v": 100
    },
    {
      "midi": 42,
      "hit": false,
      "t": 17441.85,
      "d": 58.139500000001135,
      "v": 60
    },
    {
      "midi": 38,
      "hit": false,
      "t": 17558.12899999998,
      "d": 58.139500000001135,
      "v": 80
    },
    {
      "midi": 38,
      "hit": false,
      "t": 17674.40799999998,
      "d": 58.139500000001135,
      "v": 80
    },
    {
      "midi": 45,
      "hit": false,
      "t": 17674.407999999985,
      "d": 232.5580000000009,
      "v": 100
    },
    {
      "midi": 36,
      "hit": false,
      "t": 17674.407999999992,
      "d": 58.139500000001135,
      "v": 120
    },
    {
      "midi": 35,
      "hit": false,
      "t": 17674.407999999992,
      "d": 58.139500000001135,
      "v": 120
    },
    {
      "midi": 61,
      "hit": false,
      "t": 17906.965999999997,
      "d": 465.11599999999817,
      "v": 100
    },
    {
      "midi": 42,
      "hit": false,
      "t": 17906.966,
      "d": 58.139500000001135,
      "v": 60
    },
    {
      "midi": 38,
      "hit": false,
      "t": 18023.24499999998,
      "d": 58.139500000001135,
      "v": 80
    },
    {
      "midi": 38,
      "hit": false,
      "t": 18139.523999999983,
      "d": 58.139500000001135,
      "v": 80
    },
    {
      "midi": 45,
      "hit": false,
      "t": 18139.523999999987,
      "d": 232.5580000000009,
      "v": 100
    },
    {
      "midi": 36,
      "hit": false,
      "t": 18139.523999999994,
      "d": 58.139500000001135,
      "v": 120
    },
    {
      "midi": 35,
      "hit": false,
      "t": 18139.523999999994,
      "d": 58.139500000001135,
      "v": 120
    },
    {
      "midi": 39,
      "hit": false,
      "t": 18139.523999999998,
      "d": 58.139500000001135,
      "v": 100
    },
    {
      "midi": 28,
      "hit": false,
      "t": 18139.523999999998,
      "d": 58.139500000001135,
      "v": 100
    },
    {
      "midi": 38,
      "hit": false,
      "t": 18372.081999999984,
      "d": 58.139500000001135,
      "v": 80
    },
    {
      "midi": 45,
      "hit": false,
      "t": 18372.081999999988,
      "d": 232.5580000000009,
      "v": 100
    },
    {
      "midi": 36,
      "hit": false,
      "t": 18372.081999999995,
      "d": 58.139500000001135,
      "v": 120
    },
    {
      "midi": 35,
      "hit": false,
      "t": 18372.081999999995,
      "d": 58.139500000001135,
      "v": 120
    },
    {
      "midi": 38,
      "hit": false,
      "t": 18604.639999999985,
      "d": 58.139500000001135,
      "v": 80
    },
    {
      "midi": 38,
      "hit": false,
      "t": 18604.63999999999,
      "d": 232.5580000000009,
      "v": 100
    },
    {
      "midi": 36,
      "hit": false,
      "t": 18604.639999999996,
      "d": 58.139500000001135,
      "v": 120
    },
    {
      "midi": 35,
      "hit": false,
      "t": 18604.639999999996,
      "d": 58.139500000001135,
      "v": 120
    },
    {
      "midi": 62,
      "hit": false,
      "t": 18604.639999999996,
      "d": 1860.464,
      "v": 100
    },
    {
      "midi": 57,
      "hit": false,
      "t": 18604.639999999996,
      "d": 5581.392,
      "v": 100
    },
    {
      "midi": 42,
      "hit": false,
      "t": 18837.198,
      "d": 58.139500000001135,
      "v": 60
    },
    {
      "midi": 39,
      "hit": false,
      "t": 19069.755999999998,
      "d": 58.139500000001135,
      "v": 100
    },
    {
      "midi": 28,
      "hit": false,
      "t": 19069.755999999998,
      "d": 58.139500000001135,
      "v": 100
    },
    {
      "midi": 62,
      "hit": false,
      "t": 19302.31399999998,
      "d": 232.5580000000009,
      "v": 100
    },
    {
      "midi": 65,
      "hit": false,
      "t": 19302.313999999995,
      "d": 465.11599999999817,
      "v": 100
    },
    {
      "midi": 64,
      "hit": false,
      "t": 19302.313999999995,
      "d": 465.11599999999817,
      "v": 100
    },
    {
      "midi": 62,
      "hit": false,
      "t": 19302.313999999995,
      "d": 465.11599999999817,
      "v": 100
    },
    {
      "midi": 42,
      "hit": false,
      "t": 19302.314000000002,
      "d": 58.139500000001135,
      "v": 60
    },
    {
      "midi": 38,
      "hit": false,
      "t": 19418.592999999986,
      "d": 58.139500000001135,
      "v": 80
    },
    {
      "midi": 62,
      "hit": false,
      "t": 19534.87199999998,
      "d": 348.83699999999953,
      "v": 100
    },
    {
      "midi": 38,
      "hit": false,
      "t": 19534.87199999999,
      "d": 232.5580000000009,
      "v": 100
    },
    {
      "midi": 38,
      "hit": false,
      "t": 19534.87199999999,
      "d": 58.139500000001135,
      "v": 80
    },
    {
      "midi": 36,
      "hit": false,
      "t": 19534.871999999996,
      "d": 58.139500000001135,
      "v": 120
    },
    {
      "midi": 35,
      "hit": false,
      "t": 19534.871999999996,
      "d": 58.139500000001135,
      "v": 120
    },
    {
      "midi": 57,
      "hit": false,
      "t": 19767.429999999993,
      "d": 465.11599999999817,
      "v": 100
    },
    {
      "midi": 42,
      "hit": false,
      "t": 19767.430000000004,
      "d": 58.139500000001135,
      "v": 60
    },
    {
      "midi": 64,
      "hit": false,
      "t": 19883.70899999998,
      "d": 348.83699999999953,
      "v": 100
    },
    {
      "midi": 38,
      "hit": false,
      "t": 19883.708999999988,
      "d": 58.139500000001135,
      "v": 80
    },
    {
      "midi": 38,
      "hit": false,
      "t": 19999.98799999999,
      "d": 232.5580000000009,
      "v": 100
    },
    {
      "midi": 38,
      "hit": false,
      "t": 19999.98799999999,
      "d": 58.139500000001135,
      "v": 80
    },
    {
      "midi": 36,
      "hit": false,
      "t": 19999.987999999998,
      "d": 58.139500000001135,
      "v": 120
    },
    {
      "midi": 35,
      "hit": false,
      "t": 19999.987999999998,
      "d": 58.139500000001135,
      "v": 120
    },
    {
      "midi": 39,
      "hit": false,
      "t": 19999.987999999998,
      "d": 58.139500000001135,
      "v": 100
    },
    {
      "midi": 28,
      "hit": false,
      "t": 19999.987999999998,
      "d": 58.139500000001135,
      "v": 100
    },
    {
      "midi": 65,
      "hit": false,
      "t": 20232.54599999998,
      "d": 232.5580000000009,
      "v": 100
    },
    {
      "midi": 38,
      "hit": false,
      "t": 20232.54599999999,
      "d": 232.5580000000009,
      "v": 100
    },
    {
      "midi": 38,
      "hit": false,
      "t": 20232.54599999999,
      "d": 58.139500000001135,
      "v": 80
    },
    {
      "midi": 36,
      "hit": false,
      "t": 20232.546,
      "d": 58.139500000001135,
      "v": 120
    },
    {
      "midi": 35,
      "hit": false,
      "t": 20232.546,
      "d": 58.139500000001135,
      "v": 120
    },
    {
      "midi": 65,
      "hit": false,
      "t": 20465.10399999998,
      "d": 348.83699999999953,
      "v": 100
    },
    {
      "midi": 40,
      "hit": false,
      "t": 20465.103999999992,
      "d": 232.5580000000009,
      "v": 100
    },
    {
      "midi": 38,
      "hit": false,
      "t": 20465.103999999992,
      "d": 58.139500000001135,
      "v": 80
    },
    {
      "midi": 64,
      "hit": false,
      "t": 20465.103999999996,
      "d": 1860.464,
      "v": 100
    },
    {
      "midi": 61,
      "hit": false,
      "t": 20465.103999999996,
      "d": 1860.464,
      "v": 100
    },
    {
      "midi": 36,
      "hit": false,
      "t": 20465.104,
      "d": 58.139500000001135,
      "v": 120
    },
    {
      "midi": 35,
      "hit": false,
      "t": 20465.104,
      "d": 58.139500000001135,
      "v": 120
    },
    {
      "midi": 42,
      "hit": false,
      "t": 20697.662000000004,
      "d": 58.139500000001135,
      "v": 60
    },
    {
      "midi": 64,
      "hit": false,
      "t": 20813.94099999998,
      "d": 930.232,
      "v": 100
    },
    {
      "midi": 39,
      "hit": false,
      "t": 20930.219999999998,
      "d": 58.139500000001135,
      "v": 100
    },
    {
      "midi": 28,
      "hit": false,
      "t": 20930.219999999998,
      "d": 58.139500000001135,
      "v": 100
    },
    {
      "midi": 67,
      "hit": false,
      "t": 21162.77799999999,
      "d": 465.11599999999817,
      "v": 100
    },
    {
      "midi": 64,
      "hit": false,
      "t": 21162.77799999999,
      "d": 465.11599999999817,
      "v": 100
    },
    {
      "midi": 61,
      "hit": false,
      "t": 21162.77799999999,
      "d": 465.11599999999817,
      "v": 100
    },
    {
      "midi": 42,
      "hit": false,
      "t": 21162.778000000006,
      "d": 58.139500000001135,
      "v": 60
    },
    {
      "midi": 38,
      "hit": false,
      "t": 21279.056999999993,
      "d": 58.139500000001135,
      "v": 80
    },
    {
      "midi": 40,
      "hit": false,
      "t": 21395.335999999992,
      "d": 232.5580000000009,
      "v": 100
    },
    {
      "midi": 38,
      "hit": false,
      "t": 21395.335999999996,
      "d": 58.139500000001135,
      "v": 80
    },
    {
      "midi": 36,
      "hit": false,
      "t": 21395.336,
      "d": 58.139500000001135,
      "v": 120
    },
    {
      "midi": 35,
      "hit": false,
      "t": 21395.336,
      "d": 58.139500000001135,
      "v": 120
    },
    {
      "midi": 57,
      "hit": false,
      "t": 21627.89399999999,
      "d": 465.11599999999817,
      "v": 100
    },
    {
      "midi": 42,
      "hit": false,
      "t": 21627.894000000008,
      "d": 58.139500000001135,
      "v": 60
    },
    {
      "midi": 38,
      "hit": false,
      "t": 21744.172999999995,
      "d": 58.139500000001135,
      "v": 80
    },
    {
      "midi": 69,
      "hit": false,
      "t": 21860.45199999998,
      "d": 232.5580000000009,
      "v": 100
    },
    {
      "midi": 40,
      "hit": false,
      "t": 21860.451999999994,
      "d": 232.5580000000009,
      "v": 100
    },
    {
      "midi": 38,
      "hit": false,
      "t": 21860.451999999997,
      "d": 58.139500000001135,
      "v": 80
    },
    {
      "midi": 39,
      "hit": false,
      "t": 21860.451999999997,
      "d": 58.139500000001135,
      "v": 100
    },
    {
      "midi": 28,
      "hit": false,
      "t": 21860.451999999997,
      "d": 58.139500000001135,
      "v": 100
    },
    {
      "midi": 36,
      "hit": false,
      "t": 21860.452,
      "d": 58.139500000001135,
      "v": 120
    },
    {
      "midi": 35,
      "hit": false,
      "t": 21860.452,
      "d": 58.139500000001135,
      "v": 120
    },
    {
      "midi": 74,
      "hit": false,
      "t": 22093.00999999998,
      "d": 465.11599999999817,
      "v": 100
    },
    {
      "midi": 40,
      "hit": false,
      "t": 22093.009999999995,
      "d": 232.5580000000009,
      "v": 100
    },
    {
      "midi": 38,
      "hit": false,
      "t": 22093.01,
      "d": 58.139500000001135,
      "v": 80
    },
    {
      "midi": 36,
      "hit": false,
      "t": 22093.010000000002,
      "d": 58.139500000001135,
      "v": 120
    },
    {
      "midi": 35,
      "hit": false,
      "t": 22093.010000000002,
      "d": 58.139500000001135,
      "v": 120
    },
    {
      "midi": 41,
      "hit": false,
      "t": 22325.567999999996,
      "d": 232.5580000000009,
      "v": 100
    },
    {
      "midi": 62,
      "hit": false,
      "t": 22325.567999999996,
      "d": 1860.464,
      "v": 100
    },
    {
      "midi": 65,
      "hit": false,
      "t": 22325.567999999996,
      "d": 1860.464,
      "v": 100
    },
    {
      "midi": 38,
      "hit": false,
      "t": 22325.568,
      "d": 58.139500000001135,
      "v": 80
    },
    {
      "midi": 36,
      "hit": false,
      "t": 22325.568000000003,
      "d": 58.139500000001135,
      "v": 120
    },
    {
      "midi": 35,
      "hit": false,
      "t": 22325.568000000003,
      "d": 58.139500000001135,
      "v": 120
    },
    {
      "midi": 74,
      "hit": false,
      "t": 22558.12599999998,
      "d": 232.5580000000009,
      "v": 100
    },
    {
      "midi": 42,
      "hit": false,
      "t": 22558.126000000007,
      "d": 58.139500000001135,
      "v": 60
    },
    {
      "midi": 72,
      "hit": false,
      "t": 22790.68399999998,
      "d": 232.5580000000009,
      "v": 100
    },
    {
      "midi": 39,
      "hit": false,
      "t": 22790.683999999997,
      "d": 58.139500000001135,
      "v": 100
    },
    {
      "midi": 28,
      "hit": false,
      "t": 22790.683999999997,
      "d": 58.139500000001135,
      "v": 100
    },
    {
      "midi": 72,
      "hit": false,
      "t": 23023.24199999998,
      "d": 232.5580000000009,
      "v": 100
    },
    {
      "midi": 65,
      "hit": false,
      "t": 23023.241999999987,
      "d": 465.11599999999817,
      "v": 100
    },
    {
      "midi": 69,
      "hit": false,
      "t": 23023.241999999987,
      "d": 465.11599999999817,
      "v": 100
    },
    {
      "midi": 67,
      "hit": false,
      "t": 23023.241999999987,
      "d": 465.11599999999817,
      "v": 100
    },
    {
      "midi": 42,
      "hit": false,
      "t": 23023.24200000001,
      "d": 58.139500000001135,
      "v": 60
    },
    {
      "midi": 38,
      "hit": false,
      "t": 23139.521,
      "d": 58.139500000001135,
      "v": 80
    },
    {
      "midi": 69,
      "hit": false,
      "t": 23255.79999999998,
      "d": 232.5580000000009,
      "v": 100
    },
    {
      "midi": 41,
      "hit": false,
      "t": 23255.799999999996,
      "d": 232.5580000000009,
      "v": 100
    },
    {
      "midi": 36,
      "hit": false,
      "t": 23255.800000000003,
      "d": 58.139500000001135,
      "v": 120
    },
    {
      "midi": 35,
      "hit": false,
      "t": 23255.800000000003,
      "d": 58.139500000001135,
      "v": 120
    },
    {
      "midi": 38,
      "hit": false,
      "t": 23255.800000000003,
      "d": 58.139500000001135,
      "v": 80
    },
    {
      "midi": 69,
      "hit": false,
      "t": 23488.357999999982,
      "d": 232.5580000000009,
      "v": 100
    },
    {
      "midi": 60,
      "hit": false,
      "t": 23488.357999999986,
      "d": 465.11599999999817,
      "v": 100
    },
    {
      "midi": 42,
      "hit": false,
      "t": 23488.35800000001,
      "d": 58.139500000001135,
      "v": 60
    },
    {
      "midi": 38,
      "hit": false,
      "t": 23604.637000000002,
      "d": 58.139500000001135,
      "v": 80
    },
    {
      "midi": 67,
      "hit": false,
      "t": 23720.915999999983,
      "d": 232.5580000000009,
      "v": 100
    },
    {
      "midi": 41,
      "hit": false,
      "t": 23720.915999999997,
      "d": 232.5580000000009,
      "v": 100
    },
    {
      "midi": 39,
      "hit": false,
      "t": 23720.915999999997,
      "d": 58.139500000001135,
      "v": 100
    },
    {
      "midi": 28,
      "hit": false,
      "t": 23720.915999999997,
      "d": 58.139500000001135,
      "v": 100
    },
    {
      "midi": 36,
      "hit": false,
      "t": 23720.916000000005,
      "d": 58.139500000001135,
      "v": 120
    },
    {
      "midi": 35,
      "hit": false,
      "t": 23720.916000000005,
      "d": 58.139500000001135,
      "v": 120
    },
    {
      "midi": 38,
      "hit": false,
      "t": 23720.916000000005,
      "d": 58.139500000001135,
      "v": 80
    },
    {
      "midi": 65,
      "hit": false,
      "t": 23953.473999999984,
      "d": 232.5580000000009,
      "v": 100
    },
    {
      "midi": 41,
      "hit": false,
      "t": 23953.474,
      "d": 232.5580000000009,
      "v": 100
    },
    {
      "midi": 36,
      "hit": false,
      "t": 23953.474000000006,
      "d": 58.139500000001135,
      "v": 120
    },
    {
      "midi": 35,
      "hit": false,
      "t": 23953.474000000006,
      "d": 58.139500000001135,
      "v": 120
    },
    {
      "midi": 38,
      "hit": false,
      "t": 23953.474000000006,
      "d": 58.139500000001135,
      "v": 80
    },
    {
      "midi": 67,
      "hit": false,
      "t": 24186.031999999985,
      "d": 348.83699999999953,
      "v": 100
    },
    {
      "midi": 62,
      "hit": false,
      "t": 24186.031999999996,
      "d": 1860.464,
      "v": 100
    },
    {
      "midi": 58,
      "hit": false,
      "t": 24186.031999999996,
      "d": 1860.464,
      "v": 100
    },
    {
      "midi": 67,
      "hit": false,
      "t": 24186.031999999996,
      "d": 3720.928,
      "v": 100
    },
    {
      "midi": 43,
      "hit": false,
      "t": 24186.032,
      "d": 232.5580000000009,
      "v": 100
    },
    {
      "midi": 36,
      "hit": false,
      "t": 24186.032000000007,
      "d": 58.139500000001135,
      "v": 120
    },
    {
      "midi": 35,
      "hit": false,
      "t": 24186.032000000007,
      "d": 58.139500000001135,
      "v": 120
    },
    {
      "midi": 38,
      "hit": false,
      "t": 24186.032000000007,
      "d": 58.139500000001135,
      "v": 80
    },
    {
      "midi": 42,
      "hit": false,
      "t": 24418.59000000001,
      "d": 58.139500000001135,
      "v": 60
    },
    {
      "midi": 62,
      "hit": false,
      "t": 24534.868999999984,
      "d": 930.232,
      "v": 100
    },
    {
      "midi": 39,
      "hit": false,
      "t": 24651.147999999997,
      "d": 58.139500000001135,
      "v": 100
    },
    {
      "midi": 28,
      "hit": false,
      "t": 24651.147999999997,
      "d": 58.139500000001135,
      "v": 100
    },
    {
      "midi": 67,
      "hit": false,
      "t": 24883.705999999984,
      "d": 465.11599999999817,
      "v": 100
    },
    {
      "midi": 62,
      "hit": false,
      "t": 24883.705999999984,
      "d": 465.11599999999817,
      "v": 100
    },
    {
      "midi": 65,
      "hit": false,
      "t": 24883.705999999984,
      "d": 465.11599999999817,
      "v": 100
    },
    {
      "midi": 42,
      "hit": false,
      "t": 24883.706000000013,
      "d": 58.139500000001135,
      "v": 60
    },
    {
      "midi": 38,
      "hit": false,
      "t": 24999.985000000008,
      "d": 58.139500000001135,
      "v": 80
    },
    {
      "midi": 43,
      "hit": false,
      "t": 25116.264,
      "d": 232.5580000000009,
      "v": 100
    },
    {
      "midi": 36,
      "hit": false,
      "t": 25116.264000000006,
      "d": 58.139500000001135,
      "v": 120
    },
    {
      "midi": 35,
      "hit": false,
      "t": 25116.264000000006,
      "d": 58.139500000001135,
      "v": 120
    },
    {
      "midi": 38,
      "hit": false,
      "t": 25116.26400000001,
      "d": 58.139500000001135,
      "v": 80
    },
    {
      "midi": 58,
      "hit": false,
      "t": 25348.821999999982,
      "d": 465.11599999999817,
      "v": 100
    },
    {
      "midi": 42,
      "hit": false,
      "t": 25348.822000000015,
      "d": 58.139500000001135,
      "v": 60
    },
    {
      "midi": 38,
      "hit": false,
      "t": 25465.10100000001,
      "d": 58.139500000001135,
      "v": 80
    },
    {
      "midi": 58,
      "hit": false,
      "t": 25581.379999999983,
      "d": 232.5580000000009,
      "v": 100
    },
    {
      "midi": 39,
      "hit": false,
      "t": 25581.379999999997,
      "d": 58.139500000001135,
      "v": 100
    },
    {
      "midi": 28,
      "hit": false,
      "t": 25581.379999999997,
      "d": 58.139500000001135,
      "v": 100
    },
    {
      "midi": 45,
      "hit": false,
      "t": 25581.38,
      "d": 232.5580000000009,
      "v": 100
    },
    {
      "midi": 36,
      "hit": false,
      "t": 25581.38000000001,
      "d": 58.139500000001135,
      "v": 120
    },
    {
      "midi": 35,
      "hit": false,
      "t": 25581.38000000001,
      "d": 58.139500000001135,
      "v": 120
    },
    {
      "midi": 38,
      "hit": false,
      "t": 25581.380000000012,
      "d": 58.139500000001135,
      "v": 80
    },
    {
      "midi": 69,
      "hit": false,
      "t": 25813.937999999984,
      "d": 465.11599999999817,
      "v": 100
    },
    {
      "midi": 45,
      "hit": false,
      "t": 25813.938000000002,
      "d": 232.5580000000009,
      "v": 100
    },
    {
      "midi": 36,
      "hit": false,
      "t": 25813.93800000001,
      "d": 58.139500000001135,
      "v": 120
    },
    {
      "midi": 35,
      "hit": false,
      "t": 25813.93800000001,
      "d": 58.139500000001135,
      "v": 120
    },
    {
      "midi": 38,
      "hit": false,
      "t": 25813.938000000013,
      "d": 58.139500000001135,
      "v": 80
    },
    {
      "midi": 62,
      "hit": false,
      "t": 26046.495999999996,
      "d": 1860.464,
      "v": 100
    },
    {
      "midi": 58,
      "hit": false,
      "t": 26046.495999999996,
      "d": 1860.464,
      "v": 100
    },
    {
      "midi": 46,
      "hit": false,
      "t": 26046.496000000003,
      "d": 232.5580000000009,
      "v": 100
    },
    {
      "midi": 36,
      "hit": false,
      "t": 26046.49600000001,
      "d": 58.139500000001135,
      "v": 120
    },
    {
      "midi": 35,
      "hit": false,
      "t": 26046.49600000001,
      "d": 58.139500000001135,
      "v": 120
    },
    {
      "midi": 38,
      "hit": false,
      "t": 26046.496000000014,
      "d": 58.139500000001135,
      "v": 80
    },
    {
      "midi": 69,
      "hit": false,
      "t": 26279.053999999982,
      "d": 232.5580000000009,
      "v": 100
    },
    {
      "midi": 42,
      "hit": false,
      "t": 26279.054000000015,
      "d": 58.139500000001135,
      "v": 60
    },
    {
      "midi": 65,
      "hit": false,
      "t": 26511.611999999983,
      "d": 232.5580000000009,
      "v": 100
    },
    {
      "midi": 39,
      "hit": false,
      "t": 26511.611999999997,
      "d": 58.139500000001135,
      "v": 100
    },
    {
      "midi": 28,
      "hit": false,
      "t": 26511.611999999997,
      "d": 58.139500000001135,
      "v": 100
    },
    {
      "midi": 65,
      "hit": false,
      "t": 26744.16999999998,
      "d": 465.11599999999817,
      "v": 100
    },
    {
      "midi": 62,
      "hit": false,
      "t": 26744.16999999998,
      "d": 465.11599999999817,
      "v": 100
    },
    {
      "midi": 60,
      "hit": false,
      "t": 26744.16999999998,
      "d": 465.11599999999817,
      "v": 100
    },
    {
      "midi": 65,
      "hit": false,
      "t": 26744.169999999984,
      "d": 232.5580000000009,
      "v": 100
    },
    {
      "midi": 42,
      "hit": false,
      "t": 26744.170000000016,
      "d": 58.139500000001135,
      "v": 60
    },
    {
      "midi": 38,
      "hit": false,
      "t": 26860.449000000015,
      "d": 58.139500000001135,
      "v": 80
    },
    {
      "midi": 62,
      "hit": false,
      "t": 26976.727999999985,
      "d": 232.5580000000009,
      "v": 100
    },
    {
      "midi": 46,
      "hit": false,
      "t": 26976.728000000003,
      "d": 232.5580000000009,
      "v": 100
    },
    {
      "midi": 36,
      "hit": false,
      "t": 26976.72800000001,
      "d": 58.139500000001135,
      "v": 120
    },
    {
      "midi": 35,
      "hit": false,
      "t": 26976.72800000001,
      "d": 58.139500000001135,
      "v": 120
    },
    {
      "midi": 38,
      "hit": false,
      "t": 26976.728000000017,
      "d": 58.139500000001135,
      "v": 80
    },
    {
      "midi": 58,
      "hit": false,
      "t": 27209.28599999998,
      "d": 465.11599999999817,
      "v": 100
    },
    {
      "midi": 58,
      "hit": false,
      "t": 27209.285999999986,
      "d": 232.5580000000009,
      "v": 100
    },
    {
      "midi": 42,
      "hit": false,
      "t": 27209.28600000002,
      "d": 58.139500000001135,
      "v": 60
    },
    {
      "midi": 38,
      "hit": false,
      "t": 27325.565000000017,
      "d": 58.139500000001135,
      "v": 80
    },
    {
      "midi": 58,
      "hit": false,
      "t": 27441.843999999986,
      "d": 232.5580000000009,
      "v": 100
    },
    {
      "midi": 39,
      "hit": false,
      "t": 27441.843999999997,
      "d": 58.139500000001135,
      "v": 100
    },
    {
      "midi": 28,
      "hit": false,
      "t": 27441.843999999997,
      "d": 58.139500000001135,
      "v": 100
    },
    {
      "midi": 41,
      "hit": false,
      "t": 27441.844000000005,
      "d": 232.5580000000009,
      "v": 100
    },
    {
      "midi": 36,
      "hit": false,
      "t": 27441.844000000012,
      "d": 58.139500000001135,
      "v": 120
    },
    {
      "midi": 35,
      "hit": false,
      "t": 27441.844000000012,
      "d": 58.139500000001135,
      "v": 120
    },
    {
      "midi": 38,
      "hit": false,
      "t": 27441.84400000002,
      "d": 58.139500000001135,
      "v": 80
    },
    {
      "midi": 67,
      "hit": false,
      "t": 27674.401999999987,
      "d": 465.11599999999817,
      "v": 100
    },
    {
      "midi": 46,
      "hit": false,
      "t": 27674.402000000006,
      "d": 232.5580000000009,
      "v": 100
    },
    {
      "midi": 36,
      "hit": false,
      "t": 27674.402000000013,
      "d": 58.139500000001135,
      "v": 120
    },
    {
      "midi": 35,
      "hit": false,
      "t": 27674.402000000013,
      "d": 58.139500000001135,
      "v": 120
    },
    {
      "midi": 38,
      "hit": false,
      "t": 27674.40200000002,
      "d": 58.139500000001135,
      "v": 80
    },
    {
      "midi": 57,
      "hit": false,
      "t": 27906.959999999995,
      "d": 1860.464,
      "v": 100
    },
    {
      "midi": 64,
      "hit": false,
      "t": 27906.959999999995,
      "d": 1860.464,
      "v": 100
    },
    {
      "midi": 60,
      "hit": false,
      "t": 27906.959999999995,
      "d": 1860.464,
      "v": 100
    },
    {
      "midi": 67,
      "hit": false,
      "t": 27906.959999999995,
      "d": 1860.464,
      "v": 100
    },
    {
      "midi": 45,
      "hit": false,
      "t": 27906.960000000006,
      "d": 232.5580000000009,
      "v": 100
    },
    {
      "midi": 36,
      "hit": false,
      "t": 27906.960000000014,
      "d": 58.139500000001135,
      "v": 120
    },
    {
      "midi": 35,
      "hit": false,
      "t": 27906.960000000014,
      "d": 58.139500000001135,
      "v": 120
    },
    {
      "midi": 38,
      "hit": false,
      "t": 27906.96000000002,
      "d": 58.139500000001135,
      "v": 80
    },
    {
      "midi": 67,
      "hit": false,
      "t": 28139.517999999985,
      "d": 232.5580000000009,
      "v": 100
    },
    {
      "midi": 42,
      "hit": false,
      "t": 28139.51800000002,
      "d": 58.139500000001135,
      "v": 60
    },
    {
      "midi": 64,
      "hit": false,
      "t": 28372.075999999986,
      "d": 232.5580000000009,
      "v": 100
    },
    {
      "midi": 39,
      "hit": false,
      "t": 28372.075999999997,
      "d": 58.139500000001135,
      "v": 100
    },
    {
      "midi": 28,
      "hit": false,
      "t": 28372.075999999997,
      "d": 58.139500000001135,
      "v": 100
    },
    {
      "midi": 67,
      "hit": false,
      "t": 28604.633999999976,
      "d": 465.11599999999817,
      "v": 100
    },
    {
      "midi": 62,
      "hit": false,
      "t": 28604.633999999976,
      "d": 465.11599999999817,
      "v": 100
    },
    {
      "midi": 60,
      "hit": false,
      "t": 28604.633999999976,
      "d": 465.11599999999817,
      "v": 100
    },
    {
      "midi": 64,
      "hit": false,
      "t": 28604.633999999987,
      "d": 232.5580000000009,
      "v": 100
    },
    {
      "midi": 42,
      "hit": false,
      "t": 28604.63400000002,
      "d": 58.139500000001135,
      "v": 60
    },
    {
      "midi": 38,
      "hit": false,
      "t": 28720.913000000022,
      "d": 58.139500000001135,
      "v": 80
    },
    {
      "midi": 60,
      "hit": false,
      "t": 28837.19199999999,
      "d": 232.5580000000009,
      "v": 100
    },
    {
      "midi": 45,
      "hit": false,
      "t": 28837.192000000006,
      "d": 232.5580000000009,
      "v": 100
    },
    {
      "midi": 36,
      "hit": false,
      "t": 28837.192000000014,
      "d": 58.139500000001135,
      "v": 120
    },
    {
      "midi": 35,
      "hit": false,
      "t": 28837.192000000014,
      "d": 58.139500000001135,
      "v": 120
    },
    {
      "midi": 38,
      "hit": false,
      "t": 28837.192000000025,
      "d": 58.139500000001135,
      "v": 80
    },
    {
      "midi": 57,
      "hit": false,
      "t": 29069.749999999975,
      "d": 465.11599999999817,
      "v": 100
    },
    {
      "midi": 57,
      "hit": false,
      "t": 29069.74999999999,
      "d": 465.11599999999817,
      "v": 100
    },
    {
      "midi": 42,
      "hit": false,
      "t": 29069.750000000022,
      "d": 58.139500000001135,
      "v": 60
    },
    {
      "midi": 38,
      "hit": false,
      "t": 29186.029000000024,
      "d": 58.139500000001135,
      "v": 80
    },
    {
      "midi": 39,
      "hit": false,
      "t": 29302.307999999997,
      "d": 58.139500000001135,
      "v": 100
    },
    {
      "midi": 28,
      "hit": false,
      "t": 29302.307999999997,
      "d": 58.139500000001135,
      "v": 100
    },
    {
      "midi": 40,
      "hit": false,
      "t": 29302.308000000008,
      "d": 232.5580000000009,
      "v": 100
    },
    {
      "midi": 36,
      "hit": false,
      "t": 29302.308000000015,
      "d": 58.139500000001135,
      "v": 120
    },
    {
      "midi": 35,
      "hit": false,
      "t": 29302.308000000015,
      "d": 58.139500000001135,
      "v": 120
    },
    {
      "midi": 38,
      "hit": false,
      "t": 29302.308000000026,
      "d": 58.139500000001135,
      "v": 80
    },
    {
      "midi": 45,
      "hit": false,
      "t": 29534.86600000001,
      "d": 232.5580000000009,
      "v": 100
    },
    {
      "midi": 36,
      "hit": false,
      "t": 29534.866000000016,
      "d": 58.139500000001135,
      "v": 120
    },
    {
      "midi": 35,
      "hit": false,
      "t": 29534.866000000016,
      "d": 58.139500000001135,
      "v": 120
    },
    {
      "midi": 38,
      "hit": false,
      "t": 29534.866000000027,
      "d": 58.139500000001135,
      "v": 80
    },
    {
      "midi": 62,
      "hit": false,
      "t": 29767.423999999988,
      "d": 348.83699999999953,
      "v": 100
    },
    {
      "midi": 58,
      "hit": false,
      "t": 29767.423999999995,
      "d": 1860.464,
      "v": 100
    },
    {
      "midi": 62,
      "hit": false,
      "t": 29767.423999999995,
      "d": 1860.464,
      "v": 100
    },
    {
      "midi": 55,
      "hit": false,
      "t": 29767.423999999995,
      "d": 1860.464,
      "v": 100
    },
    {
      "midi": 43,
      "hit": false,
      "t": 29767.42400000001,
      "d": 232.5580000000009,
      "v": 100
    },
    {
      "midi": 36,
      "hit": false,
      "t": 29767.424000000017,
      "d": 58.139500000001135,
      "v": 120
    },
    {
      "midi": 35,
      "hit": false,
      "t": 29767.424000000017,
      "d": 58.139500000001135,
      "v": 120
    },
    {
      "midi": 38,
      "hit": false,
      "t": 29767.424000000028,
      "d": 58.139500000001135,
      "v": 80
    },
    {
      "midi": 42,
      "hit": false,
      "t": 29999.98200000002,
      "d": 58.139500000001135,
      "v": 60
    },
    {
      "midi": 62,
      "hit": false,
      "t": 30116.260999999988,
      "d": 348.83699999999953,
      "v": 100
    },
    {
      "midi": 39,
      "hit": false,
      "t": 30232.539999999997,
      "d": 58.139500000001135,
      "v": 100
    },
    {
      "midi": 28,
      "hit": false,
      "t": 30232.539999999997,
      "d": 58.139500000001135,
      "v": 100
    },
    {
      "midi": 62,
      "hit": false,
      "t": 30465.097999999973,
      "d": 465.11599999999817,
      "v": 100
    },
    {
      "midi": 60,
      "hit": false,
      "t": 30465.097999999973,
      "d": 465.11599999999817,
      "v": 100
    },
    {
      "midi": 65,
      "hit": false,
      "t": 30465.097999999973,
      "d": 465.11599999999817,
      "v": 100
    },
    {
      "midi": 62,
      "hit": false,
      "t": 30465.097999999987,
      "d": 232.5580000000009,
      "v": 100
    },
    {
      "midi": 42,
      "hit": false,
      "t": 30465.098000000024,
      "d": 58.139500000001135,
      "v": 60
    },
    {
      "midi": 38,
      "hit": false,
      "t": 30581.37700000003,
      "d": 58.139500000001135,
      "v": 80
    },
    {
      "midi": 62,
      "hit": false,
      "t": 30697.655999999988,
      "d": 348.83699999999953,
      "v": 100
    },
    {
      "midi": 43,
      "hit": false,
      "t": 30697.65600000001,
      "d": 232.5580000000009,
      "v": 100
    },
    {
      "midi": 36,
      "hit": false,
      "t": 30697.656000000017,
      "d": 58.139500000001135,
      "v": 120
    },
    {
      "midi": 35,
      "hit": false,
      "t": 30697.656000000017,
      "d": 58.139500000001135,
      "v": 120
    },
    {
      "midi": 38,
      "hit": false,
      "t": 30697.65600000003,
      "d": 58.139500000001135,
      "v": 80
    },
    {
      "midi": 58,
      "hit": false,
      "t": 30930.21399999997,
      "d": 465.11599999999817,
      "v": 100
    },
    {
      "midi": 42,
      "hit": false,
      "t": 30930.214000000025,
      "d": 58.139500000001135,
      "v": 60
    },
    {
      "midi": 64,
      "hit": false,
      "t": 31046.492999999988,
      "d": 348.83699999999953,
      "v": 100
    },
    {
      "midi": 38,
      "hit": false,
      "t": 31046.49300000003,
      "d": 58.139500000001135,
      "v": 80
    },
    {
      "midi": 39,
      "hit": false,
      "t": 31162.771999999997,
      "d": 58.139500000001135,
      "v": 100
    },
    {
      "midi": 28,
      "hit": false,
      "t": 31162.771999999997,
      "d": 58.139500000001135,
      "v": 100
    },
    {
      "midi": 43,
      "hit": false,
      "t": 31162.77200000001,
      "d": 232.5580000000009,
      "v": 100
    },
    {
      "midi": 36,
      "hit": false,
      "t": 31162.77200000002,
      "d": 58.139500000001135,
      "v": 120
    },
    {
      "midi": 35,
      "hit": false,
      "t": 31162.77200000002,
      "d": 58.139500000001135,
      "v": 120
    },
    {
      "midi": 38,
      "hit": false,
      "t": 31162.772000000034,
      "d": 58.139500000001135,
      "v": 80
    },
    {
      "midi": 65,
      "hit": false,
      "t": 31395.329999999987,
      "d": 232.5580000000009,
      "v": 100
    },
    {
      "midi": 43,
      "hit": false,
      "t": 31395.330000000013,
      "d": 232.5580000000009,
      "v": 100
    },
    {
      "midi": 36,
      "hit": false,
      "t": 31395.33000000002,
      "d": 58.139500000001135,
      "v": 120
    },
    {
      "midi": 35,
      "hit": false,
      "t": 31395.33000000002,
      "d": 58.139500000001135,
      "v": 120
    },
    {
      "midi": 38,
      "hit": false,
      "t": 31395.330000000034,
      "d": 58.139500000001135,
      "v": 80
    },
    {
      "midi": 65,
      "hit": false,
      "t": 31627.887999999988,
      "d": 348.83699999999953,
      "v": 100
    },
    {
      "midi": 64,
      "hit": false,
      "t": 31627.887999999995,
      "d": 1860.4639999999963,
      "v": 100
    },
    {
      "midi": 57,
      "hit": false,
      "t": 31627.887999999995,
      "d": 1860.4639999999963,
      "v": 100
    },
    {
      "midi": 61,
      "hit": false,
      "t": 31627.887999999995,
      "d": 1860.4639999999963,
      "v": 100
    },
    {
      "midi": 45,
      "hit": false,
      "t": 31627.888000000014,
      "d": 232.5580000000009,
      "v": 100
    },
    {
      "midi": 36,
      "hit": false,
      "t": 31627.88800000002,
      "d": 58.139500000001135,
      "v": 120
    },
    {
      "midi": 35,
      "hit": false,
      "t": 31627.88800000002,
      "d": 58.139500000001135,
      "v": 120
    },
    {
      "midi": 38,
      "hit": false,
      "t": 31627.888000000035,
      "d": 58.139500000001135,
      "v": 80
    },
    {
      "midi": 42,
      "hit": false,
      "t": 31860.446000000025,
      "d": 58.139500000001135,
      "v": 60
    },
    {
      "midi": 64,
      "hit": false,
      "t": 31976.724999999988,
      "d": 581.3950000000004,
      "v": 100
    },
    {
      "midi": 39,
      "hit": false,
      "t": 32093.003999999997,
      "d": 58.139500000001135,
      "v": 100
    },
    {
      "midi": 28,
      "hit": false,
      "t": 32093.003999999997,
      "d": 58.139500000001135,
      "v": 100
    },
    {
      "midi": 69,
      "hit": false,
      "t": 32325.56199999997,
      "d": 465.1160000000018,
      "v": 100
    },
    {
      "midi": 67,
      "hit": false,
      "t": 32325.56199999997,
      "d": 465.1160000000018,
      "v": 100
    },
    {
      "midi": 64,
      "hit": false,
      "t": 32325.56199999997,
      "d": 465.1160000000018,
      "v": 100
    },
    {
      "midi": 42,
      "hit": false,
      "t": 32325.562000000027,
      "d": 58.139500000001135,
      "v": 60
    },
    {
      "midi": 38,
      "hit": false,
      "t": 32441.841000000037,
      "d": 58.139500000001135,
      "v": 80
    },
    {
      "midi": 45,
      "hit": false,
      "t": 32558.120000000014,
      "d": 232.5580000000009,
      "v": 100
    },
    {
      "midi": 36,
      "hit": false,
      "t": 32558.12000000002,
      "d": 58.139500000001135,
      "v": 120
    },
    {
      "midi": 35,
      "hit": false,
      "t": 32558.12000000002,
      "d": 58.139500000001135,
      "v": 120
    },
    {
      "midi": 38,
      "hit": false,
      "t": 32558.12000000004,
      "d": 58.139500000001135,
      "v": 80
    },
    {
      "midi": 61,
      "hit": false,
      "t": 32790.67799999997,
      "d": 465.1160000000018,
      "v": 100
    },
    {
      "midi": 42,
      "hit": false,
      "t": 32790.67800000003,
      "d": 58.1394999999975,
      "v": 60
    },
    {
      "midi": 38,
      "hit": false,
      "t": 32906.95700000004,
      "d": 58.1394999999975,
      "v": 80
    },
    {
      "midi": 39,
      "hit": false,
      "t": 33023.236,
      "d": 58.1394999999975,
      "v": 100
    },
    {
      "midi": 28,
      "hit": false,
      "t": 33023.236,
      "d": 58.1394999999975,
      "v": 100
    },
    {
      "midi": 45,
      "hit": false,
      "t": 33023.23600000001,
      "d": 232.55799999999726,
      "v": 100
    },
    {
      "midi": 36,
      "hit": false,
      "t": 33023.23600000002,
      "d": 58.1394999999975,
      "v": 120
    },
    {
      "midi": 35,
      "hit": false,
      "t": 33023.23600000002,
      "d": 58.1394999999975,
      "v": 120
    },
    {
      "midi": 38,
      "hit": false,
      "t": 33023.23600000003,
      "d": 58.1394999999975,
      "v": 80
    },
    {
      "midi": 45,
      "hit": false,
      "t": 33255.79400000001,
      "d": 232.55799999999726,
      "v": 100
    },
    {
      "midi": 36,
      "hit": false,
      "t": 33255.794000000016,
      "d": 58.1394999999975,
      "v": 120
    },
    {
      "midi": 35,
      "hit": false,
      "t": 33255.794000000016,
      "d": 58.1394999999975,
      "v": 120
    },
    {
      "midi": 38,
      "hit": false,
      "t": 33255.79400000003,
      "d": 58.1394999999975,
      "v": 80
    },
    {
      "midi": 62,
      "hit": false,
      "t": 33488.35199999999,
      "d": 58.1394999999975,
      "v": 100
    },
    {
      "midi": 46,
      "hit": false,
      "t": 33488.352000000006,
      "d": 465.1160000000018,
      "v": 100
    },
    {
      "midi": 36,
      "hit": false,
      "t": 33488.35200000001,
      "d": 58.1394999999975,
      "v": 120
    },
    {
      "midi": 35,
      "hit": false,
      "t": 33488.35200000001,
      "d": 58.1394999999975,
      "v": 120
    },
    {
      "midi": 38,
      "hit": false,
      "t": 33488.35200000003,
      "d": 58.1394999999975,
      "v": 80
    },
    {
      "midi": 69,
      "hit": false,
      "t": 33546.49149999999,
      "d": 174.41849999999977,
      "v": 100
    },
    {
      "midi": 42,
      "hit": false,
      "t": 33720.910000000025,
      "d": 58.1394999999975,
      "v": 60
    },
    {
      "midi": 65,
      "hit": false,
      "t": 33953.467999999986,
      "d": 465.1160000000018,
      "v": 100
    },
    {
      "midi": 69,
      "hit": false,
      "t": 33953.467999999986,
      "d": 232.55799999999726,
      "v": 100
    },
    {
      "midi": 39,
      "hit": false,
      "t": 33953.46799999999,
      "d": 58.1394999999975,
      "v": 100
    },
    {
      "midi": 28,
      "hit": false,
      "t": 33953.46799999999,
      "d": 58.1394999999975,
      "v": 100
    },
    {
      "midi": 41,
      "hit": false,
      "t": 33953.46800000001,
      "d": 465.1160000000018,
      "v": 100
    },
    {
      "midi": 67,
      "hit": false,
      "t": 34186.02599999998,
      "d": 465.1160000000018,
      "v": 100
    },
    {
      "midi": 42,
      "hit": false,
      "t": 34186.02600000002,
      "d": 58.1394999999975,
      "v": 60
    },
    {
      "midi": 38,
      "hit": false,
      "t": 34302.30500000002,
      "d": 58.1394999999975,
      "v": 80
    },
    {
      "midi": 67,
      "hit": false,
      "t": 34418.58399999999,
      "d": 465.1160000000018,
      "v": 100
    },
    {
      "midi": 48,
      "hit": false,
      "t": 34418.58400000001,
      "d": 465.1160000000018,
      "v": 100
    },
    {
      "midi": 36,
      "hit": false,
      "t": 34418.58400000001,
      "d": 58.1394999999975,
      "v": 120
    },
    {
      "midi": 35,
      "hit": false,
      "t": 34418.58400000001,
      "d": 58.1394999999975,
      "v": 120
    },
    {
      "midi": 38,
      "hit": false,
      "t": 34418.58400000002,
      "d": 58.1394999999975,
      "v": 80
    },
    {
      "midi": 65,
      "hit": false,
      "t": 34651.141999999985,
      "d": 232.55799999999726,
      "v": 100
    },
    {
      "midi": 42,
      "hit": false,
      "t": 34651.142000000014,
      "d": 58.1394999999975,
      "v": 60
    },
    {
      "midi": 38,
      "hit": false,
      "t": 34767.42100000002,
      "d": 58.1394999999975,
      "v": 80
    },
    {
      "midi": 64,
      "hit": false,
      "t": 34883.69999999998,
      "d": 232.55799999999726,
      "v": 100
    },
    {
      "midi": 39,
      "hit": false,
      "t": 34883.69999999999,
      "d": 58.1394999999975,
      "v": 100
    },
    {
      "midi": 28,
      "hit": false,
      "t": 34883.69999999999,
      "d": 58.1394999999975,
      "v": 100
    },
    {
      "midi": 36,
      "hit": false,
      "t": 34883.700000000004,
      "d": 58.1394999999975,
      "v": 120
    },
    {
      "midi": 35,
      "hit": false,
      "t": 34883.700000000004,
      "d": 58.1394999999975,
      "v": 120
    },
    {
      "midi": 43,
      "hit": false,
      "t": 34883.70000000001,
      "d": 465.1160000000018,
      "v": 100
    },
    {
      "midi": 38,
      "hit": false,
      "t": 34883.70000000001,
      "d": 58.1394999999975,
      "v": 80
    },
    {
      "midi": 67,
      "hit": false,
      "t": 35116.25799999998,
      "d": 465.1160000000018,
      "v": 100
    },
    {
      "midi": 36,
      "hit": false,
      "t": 35116.258,
      "d": 58.1394999999975,
      "v": 120
    },
    {
      "midi": 35,
      "hit": false,
      "t": 35116.258,
      "d": 58.1394999999975,
      "v": 120
    },
    {
      "midi": 38,
      "hit": false,
      "t": 35116.25800000001,
      "d": 58.1394999999975,
      "v": 80
    },
    {
      "midi": 67,
      "hit": false,
      "t": 35348.81599999999,
      "d": 116.27900000000227,
      "v": 100
    },
    {
      "midi": 36,
      "hit": false,
      "t": 35348.816,
      "d": 58.1394999999975,
      "v": 120
    },
    {
      "midi": 35,
      "hit": false,
      "t": 35348.816,
      "d": 58.1394999999975,
      "v": 120
    },
    {
      "midi": 38,
      "hit": false,
      "t": 35348.816000000006,
      "d": 58.1394999999975,
      "v": 80
    },
    {
      "midi": 45,
      "hit": false,
      "t": 35348.81600000001,
      "d": 465.1160000000018,
      "v": 100
    },
    {
      "midi": 67,
      "hit": false,
      "t": 35465.094999999994,
      "d": 232.55799999999726,
      "v": 100
    },
    {
      "midi": 62,
      "hit": false,
      "t": 35581.37399999998,
      "d": 232.55799999999726,
      "v": 100
    },
    {
      "midi": 42,
      "hit": false,
      "t": 35581.37400000001,
      "d": 58.1394999999975,
      "v": 60
    },
    {
      "midi": 67,
      "hit": false,
      "t": 35697.65299999999,
      "d": 232.55799999999726,
      "v": 100
    },
    {
      "midi": 61,
      "hit": false,
      "t": 35813.93199999998,
      "d": 232.55799999999726,
      "v": 100
    },
    {
      "midi": 39,
      "hit": false,
      "t": 35813.931999999986,
      "d": 58.1394999999975,
      "v": 100
    },
    {
      "midi": 28,
      "hit": false,
      "t": 35813.931999999986,
      "d": 58.1394999999975,
      "v": 100
    },
    {
      "midi": 40,
      "hit": false,
      "t": 35813.932000000015,
      "d": 465.1160000000018,
      "v": 100
    },
    {
      "midi": 67,
      "hit": false,
      "t": 35930.21099999999,
      "d": 232.55799999999726,
      "v": 100
    },
    {
      "midi": 65,
      "hit": false,
      "t": 36046.489999999976,
      "d": 465.1160000000018,
      "v": 100
    },
    {
      "midi": 42,
      "hit": false,
      "t": 36046.490000000005,
      "d": 58.1394999999975,
      "v": 60
    },
    {
      "midi": 67,
      "hit": false,
      "t": 36162.768999999986,
      "d": 116.27900000000227,
      "v": 100
    },
    {
      "midi": 38,
      "hit": false,
      "t": 36162.769,
      "d": 58.1394999999975,
      "v": 80
    },
    {
      "midi": 69,
      "hit": false,
      "t": 36279.04799999999,
      "d": 232.55799999999726,
      "v": 100
    },
    {
      "midi": 36,
      "hit": false,
      "t": 36279.047999999995,
      "d": 58.1394999999975,
      "v": 120
    },
    {
      "midi": 35,
      "hit": false,
      "t": 36279.047999999995,
      "d": 58.1394999999975,
      "v": 120
    },
    {
      "midi": 38,
      "hit": false,
      "t": 36279.047999999995,
      "d": 58.1394999999975,
      "v": 80
    },
    {
      "midi": 50,
      "hit": false,
      "t": 36279.04800000002,
      "d": 465.1160000000018,
      "v": 100
    },
    {
      "midi": 64,
      "hit": false,
      "t": 36511.60599999998,
      "d": 232.55799999999726,
      "v": 100
    },
    {
      "midi": 67,
      "hit": false,
      "t": 36511.605999999985,
      "d": 232.55799999999726,
      "v": 100
    },
    {
      "midi": 42,
      "hit": false,
      "t": 36511.606,
      "d": 58.1394999999975,
      "v": 60
    },
    {
      "midi": 38,
      "hit": false,
      "t": 36627.884999999995,
      "d": 58.1394999999975,
      "v": 80
    },
    {
      "midi": 62,
      "hit": false,
      "t": 36744.163999999975,
      "d": 232.55799999999726,
      "v": 100
    },
    {
      "midi": 65,
      "hit": false,
      "t": 36744.16399999998,
      "d": 232.55799999999726,
      "v": 100
    },
    {
      "midi": 39,
      "hit": false,
      "t": 36744.16399999998,
      "d": 58.1394999999975,
      "v": 100
    },
    {
      "midi": 28,
      "hit": false,
      "t": 36744.16399999998,
      "d": 58.1394999999975,
      "v": 100
    },
    {
      "midi": 36,
      "hit": false,
      "t": 36744.16399999999,
      "d": 58.1394999999975,
      "v": 120
    },
    {
      "midi": 35,
      "hit": false,
      "t": 36744.16399999999,
      "d": 58.1394999999975,
      "v": 120
    },
    {
      "midi": 38,
      "hit": false,
      "t": 36744.16399999999,
      "d": 58.1394999999975,
      "v": 80
    },
    {
      "midi": 45,
      "hit": false,
      "t": 36744.16400000002,
      "d": 465.1160000000018,
      "v": 100
    },
    {
      "midi": 69,
      "hit": false,
      "t": 36976.72199999997,
      "d": 465.1160000000018,
      "v": 100
    },
    {
      "midi": 64,
      "hit": false,
      "t": 36976.72199999998,
      "d": 232.55799999999726,
      "v": 100
    },
    {
      "midi": 36,
      "hit": false,
      "t": 36976.72199999999,
      "d": 58.1394999999975,
      "v": 120
    },
    {
      "midi": 35,
      "hit": false,
      "t": 36976.72199999999,
      "d": 58.1394999999975,
      "v": 120
    },
    {
      "midi": 38,
      "hit": false,
      "t": 36976.72199999999,
      "d": 58.1394999999975,
      "v": 80
    },
    {
      "midi": 36,
      "hit": false,
      "t": 37209.279999999984,
      "d": 58.1394999999975,
      "v": 120
    },
    {
      "midi": 35,
      "hit": false,
      "t": 37209.279999999984,
      "d": 58.1394999999975,
      "v": 120
    },
    {
      "midi": 38,
      "hit": false,
      "t": 37209.279999999984,
      "d": 58.1394999999975,
      "v": 80
    },
    {
      "midi": 46,
      "hit": false,
      "t": 37209.28000000002,
      "d": 465.1160000000018,
      "v": 100
    },
    {
      "midi": 42,
      "hit": false,
      "t": 37441.837999999996,
      "d": 58.1394999999975,
      "v": 60
    },
    {
      "midi": 69,
      "hit": false,
      "t": 37674.39599999997,
      "d": 232.55799999999726,
      "v": 100
    },
    {
      "midi": 65,
      "hit": false,
      "t": 37674.39599999998,
      "d": 465.1160000000018,
      "v": 100
    },
    {
      "midi": 39,
      "hit": false,
      "t": 37674.39599999998,
      "d": 58.1394999999975,
      "v": 100
    },
    {
      "midi": 28,
      "hit": false,
      "t": 37674.39599999998,
      "d": 58.1394999999975,
      "v": 100
    },
    {
      "midi": 41,
      "hit": false,
      "t": 37674.39600000002,
      "d": 465.1160000000018,
      "v": 100
    },
    {
      "midi": 67,
      "hit": false,
      "t": 37906.95399999997,
      "d": 465.1160000000018,
      "v": 100
    },
    {
      "midi": 42,
      "hit": false,
      "t": 37906.95399999999,
      "d": 58.1394999999975,
      "v": 60
    },
    {
      "midi": 38,
      "hit": false,
      "t": 38023.23299999998,
      "d": 58.1394999999975,
      "v": 80
    },
    {
      "midi": 38,
      "hit": false,
      "t": 38139.51199999997,
      "d": 58.1394999999975,
      "v": 80
    },
    {
      "midi": 67,
      "hit": false,
      "t": 38139.51199999998,
      "d": 465.1160000000018,
      "v": 100
    },
    {
      "midi": 36,
      "hit": false,
      "t": 38139.51199999998,
      "d": 58.1394999999975,
      "v": 120
    },
    {
      "midi": 35,
      "hit": false,
      "t": 38139.51199999998,
      "d": 58.1394999999975,
      "v": 120
    },
    {
      "midi": 48,
      "hit": false,
      "t": 38139.512000000024,
      "d": 465.1160000000018,
      "v": 100
    },
    {
      "midi": 65,
      "hit": false,
      "t": 38372.06999999997,
      "d": 232.55799999999726,
      "v": 100
    },
    {
      "midi": 42,
      "hit": false,
      "t": 38372.069999999985,
      "d": 58.1394999999975,
      "v": 60
    },
    {
      "midi": 38,
      "hit": false,
      "t": 38488.34899999997,
      "d": 58.1394999999975,
      "v": 80
    },
    {
      "midi": 64,
      "hit": false,
      "t": 38604.62799999997,
      "d": 232.55799999999726,
      "v": 100
    },
    {
      "midi": 38,
      "hit": false,
      "t": 38604.62799999997,
      "d": 58.1394999999975,
      "v": 80
    },
    {
      "midi": 36,
      "hit": false,
      "t": 38604.627999999975,
      "d": 58.1394999999975,
      "v": 120
    },
    {
      "midi": 35,
      "hit": false,
      "t": 38604.627999999975,
      "d": 58.1394999999975,
      "v": 120
    },
    {
      "midi": 39,
      "hit": false,
      "t": 38604.627999999975,
      "d": 58.1394999999975,
      "v": 100
    },
    {
      "midi": 28,
      "hit": false,
      "t": 38604.627999999975,
      "d": 58.1394999999975,
      "v": 100
    },
    {
      "midi": 43,
      "hit": false,
      "t": 38604.628000000026,
      "d": 465.1160000000018,
      "v": 100
    },
    {
      "midi": 67,
      "hit": false,
      "t": 38837.185999999965,
      "d": 465.1160000000018,
      "v": 100
    },
    {
      "midi": 38,
      "hit": false,
      "t": 38837.185999999965,
      "d": 58.1394999999975,
      "v": 80
    },
    {
      "midi": 36,
      "hit": false,
      "t": 38837.18599999997,
      "d": 58.1394999999975,
      "v": 120
    },
    {
      "midi": 35,
      "hit": false,
      "t": 38837.18599999997,
      "d": 58.1394999999975,
      "v": 120
    },
    {
      "midi": 38,
      "hit": false,
      "t": 39069.74399999996,
      "d": 58.1394999999975,
      "v": 80
    },
    {
      "midi": 36,
      "hit": false,
      "t": 39069.74399999997,
      "d": 58.1394999999975,
      "v": 120
    },
    {
      "midi": 35,
      "hit": false,
      "t": 39069.74399999997,
      "d": 58.1394999999975,
      "v": 120
    },
    {
      "midi": 67,
      "hit": false,
      "t": 39069.743999999984,
      "d": 116.27900000000227,
      "v": 100
    },
    {
      "midi": 45,
      "hit": false,
      "t": 39069.74400000003,
      "d": 465.1160000000018,
      "v": 100
    },
    {
      "midi": 67,
      "hit": false,
      "t": 39186.02299999999,
      "d": 232.55799999999726,
      "v": 100
    },
    {
      "midi": 62,
      "hit": false,
      "t": 39302.30199999997,
      "d": 232.55799999999726,
      "v": 100
    },
    {
      "midi": 42,
      "hit": false,
      "t": 39302.30199999998,
      "d": 58.1394999999975,
      "v": 60
    },
    {
      "midi": 67,
      "hit": false,
      "t": 39418.580999999984,
      "d": 232.55799999999726,
      "v": 100
    },
    {
      "midi": 61,
      "hit": false,
      "t": 39534.859999999964,
      "d": 232.55799999999726,
      "v": 100
    },
    {
      "midi": 39,
      "hit": false,
      "t": 39534.85999999997,
      "d": 58.1394999999975,
      "v": 100
    },
    {
      "midi": 28,
      "hit": false,
      "t": 39534.85999999997,
      "d": 58.1394999999975,
      "v": 100
    },
    {
      "midi": 40,
      "hit": false,
      "t": 39534.86000000003,
      "d": 465.1160000000018,
      "v": 100
    },
    {
      "midi": 67,
      "hit": false,
      "t": 39651.13899999998,
      "d": 232.55799999999726,
      "v": 100
    },
    {
      "midi": 65,
      "hit": false,
      "t": 39767.41799999996,
      "d": 465.1160000000018,
      "v": 100
    },
    {
      "midi": 42,
      "hit": false,
      "t": 39767.417999999976,
      "d": 58.1394999999975,
      "v": 60
    },
    {
      "midi": 38,
      "hit": false,
      "t": 39883.69699999996,
      "d": 58.1394999999975,
      "v": 80
    },
    {
      "midi": 67,
      "hit": false,
      "t": 39883.69699999998,
      "d": 116.27900000000227,
      "v": 100
    },
    {
      "midi": 38,
      "hit": false,
      "t": 39999.97599999995,
      "d": 58.1394999999975,
      "v": 80
    },
    {
      "midi": 36,
      "hit": false,
      "t": 39999.975999999966,
      "d": 58.1394999999975,
      "v": 120
    },
    {
      "midi": 35,
      "hit": false,
      "t": 39999.975999999966,
      "d": 58.1394999999975,
      "v": 120
    },
    {
      "midi": 69,
      "hit": false,
      "t": 39999.97599999998,
      "d": 232.55799999999726,
      "v": 100
    },
    {
      "midi": 50,
      "hit": false,
      "t": 39999.97600000003,
      "d": 465.1160000000018,
      "v": 100
    },
    {
      "midi": 64,
      "hit": false,
      "t": 40232.53399999996,
      "d": 232.55799999999726,
      "v": 100
    },
    {
      "midi": 42,
      "hit": false,
      "t": 40232.53399999997,
      "d": 58.1394999999975,
      "v": 60
    },
    {
      "midi": 67,
      "hit": false,
      "t": 40232.53399999998,
      "d": 232.55799999999726,
      "v": 100
    },
    {
      "midi": 38,
      "hit": false,
      "t": 40348.81299999995,
      "d": 58.1394999999975,
      "v": 80
    },
    {
      "midi": 38,
      "hit": false,
      "t": 40465.091999999946,
      "d": 58.1394999999975,
      "v": 80
    },
    {
      "midi": 62,
      "hit": false,
      "t": 40465.09199999996,
      "d": 232.55799999999726,
      "v": 100
    },
    {
      "midi": 36,
      "hit": false,
      "t": 40465.09199999996,
      "d": 58.1394999999975,
      "v": 120
    },
    {
      "midi": 35,
      "hit": false,
      "t": 40465.09199999996,
      "d": 58.1394999999975,
      "v": 120
    },
    {
      "midi": 39,
      "hit": false,
      "t": 40465.09199999997,
      "d": 58.1394999999975,
      "v": 100
    },
    {
      "midi": 28,
      "hit": false,
      "t": 40465.09199999997,
      "d": 58.1394999999975,
      "v": 100
    },
    {
      "midi": 65,
      "hit": false,
      "t": 40465.091999999975,
      "d": 232.55799999999726,
      "v": 100
    },
    {
      "midi": 45,
      "hit": false,
      "t": 40465.09200000003,
      "d": 465.1160000000018,
      "v": 100
    },
    {
      "midi": 38,
      "hit": false,
      "t": 40697.64999999994,
      "d": 58.1394999999975,
      "v": 80
    },
    {
      "midi": 74,
      "hit": false,
      "t": 40697.64999999996,
      "d": 465.1160000000018,
      "v": 100
    },
    {
      "midi": 36,
      "hit": false,
      "t": 40697.64999999996,
      "d": 58.1394999999975,
      "v": 120
    },
    {
      "midi": 35,
      "hit": false,
      "t": 40697.64999999996,
      "d": 58.1394999999975,
      "v": 120
    },
    {
      "midi": 64,
      "hit": false,
      "t": 40697.64999999997,
      "d": 232.55799999999726,
      "v": 100
    },
    {
      "midi": 38,
      "hit": false,
      "t": 40930.20799999994,
      "d": 58.1394999999975,
      "v": 80
    },
    {
      "midi": 36,
      "hit": false,
      "t": 40930.207999999955,
      "d": 58.1394999999975,
      "v": 120
    },
    {
      "midi": 35,
      "hit": false,
      "t": 40930.207999999955,
      "d": 58.1394999999975,
      "v": 120
    },
    {
      "midi": 46,
      "hit": false,
      "t": 40930.208000000035,
      "d": 465.1160000000018,
      "v": 100
    },
    {
      "midi": 65,
      "hit": false,
      "t": 41162.76599999996,
      "d": 232.55799999999726,
      "v": 100
    },
    {
      "midi": 42,
      "hit": false,
      "t": 41162.76599999997,
      "d": 58.1394999999975,
      "v": 60
    },
    {
      "midi": 62,
      "hit": false,
      "t": 41395.32399999996,
      "d": 232.55799999999726,
      "v": 100
    },
    {
      "midi": 39,
      "hit": false,
      "t": 41395.323999999964,
      "d": 58.1394999999975,
      "v": 100
    },
    {
      "midi": 28,
      "hit": false,
      "t": 41395.323999999964,
      "d": 58.1394999999975,
      "v": 100
    },
    {
      "midi": 65,
      "hit": false,
      "t": 41395.32399999997,
      "d": 465.1160000000018,
      "v": 100
    },
    {
      "midi": 41,
      "hit": false,
      "t": 41395.32400000004,
      "d": 465.1160000000018,
      "v": 100
    },
    {
      "midi": 72,
      "hit": false,
      "t": 41627.881999999954,
      "d": 465.1160000000018,
      "v": 100
    },
    {
      "midi": 42,
      "hit": false,
      "t": 41627.88199999996,
      "d": 58.1394999999975,
      "v": 60
    },
    {
      "midi": 38,
      "hit": false,
      "t": 41744.160999999935,
      "d": 58.1394999999975,
      "v": 80
    },
    {
      "midi": 38,
      "hit": false,
      "t": 41860.43999999993,
      "d": 58.1394999999975,
      "v": 80
    },
    {
      "midi": 36,
      "hit": false,
      "t": 41860.43999999995,
      "d": 58.1394999999975,
      "v": 120
    },
    {
      "midi": 35,
      "hit": false,
      "t": 41860.43999999995,
      "d": 58.1394999999975,
      "v": 120
    },
    {
      "midi": 67,
      "hit": false,
      "t": 41860.43999999997,
      "d": 465.1160000000018,
      "v": 100
    },
    {
      "midi": 48,
      "hit": false,
      "t": 41860.44000000004,
      "d": 465.1160000000018,
      "v": 100
    },
    {
      "midi": 65,
      "hit": false,
      "t": 42092.997999999956,
      "d": 232.55799999999726,
      "v": 100
    },
    {
      "midi": 42,
      "hit": false,
      "t": 42092.997999999956,
      "d": 58.1394999999975,
      "v": 60
    },
    {
      "midi": 38,
      "hit": false,
      "t": 42209.27699999993,
      "d": 58.1394999999975,
      "v": 80
    },
    {
      "midi": 38,
      "hit": false,
      "t": 42325.555999999924,
      "d": 58.1394999999975,
      "v": 80
    },
    {
      "midi": 36,
      "hit": false,
      "t": 42325.555999999946,
      "d": 58.1394999999975,
      "v": 120
    },
    {
      "midi": 35,
      "hit": false,
      "t": 42325.555999999946,
      "d": 58.1394999999975,
      "v": 120
    },
    {
      "midi": 64,
      "hit": false,
      "t": 42325.55599999995,
      "d": 232.55799999999726,
      "v": 100
    },
    {
      "midi": 39,
      "hit": false,
      "t": 42325.55599999996,
      "d": 58.1394999999975,
      "v": 100
    },
    {
      "midi": 28,
      "hit": false,
      "t": 42325.55599999996,
      "d": 58.1394999999975,
      "v": 100
    },
    {
      "midi": 43,
      "hit": false,
      "t": 42325.55600000004,
      "d": 465.1160000000018,
      "v": 100
    },
    {
      "midi": 38,
      "hit": false,
      "t": 42558.11399999992,
      "d": 58.1394999999975,
      "v": 80
    },
    {
      "midi": 36,
      "hit": false,
      "t": 42558.11399999994,
      "d": 58.1394999999975,
      "v": 120
    },
    {
      "midi": 35,
      "hit": false,
      "t": 42558.11399999994,
      "d": 58.1394999999975,
      "v": 120
    },
    {
      "midi": 69,
      "hit": false,
      "t": 42558.11399999995,
      "d": 465.1160000000018,
      "v": 100
    },
    {
      "midi": 38,
      "hit": false,
      "t": 42790.67199999992,
      "d": 58.1394999999975,
      "v": 80
    },
    {
      "midi": 36,
      "hit": false,
      "t": 42790.67199999994,
      "d": 58.1394999999975,
      "v": 120
    },
    {
      "midi": 35,
      "hit": false,
      "t": 42790.67199999994,
      "d": 58.1394999999975,
      "v": 120
    },
    {
      "midi": 67,
      "hit": false,
      "t": 42790.67199999998,
      "d": 116.27900000000227,
      "v": 100
    },
    {
      "midi": 45,
      "hit": false,
      "t": 42790.67200000004,
      "d": 465.1160000000018,
      "v": 100
    },
    {
      "midi": 67,
      "hit": false,
      "t": 42906.95099999998,
      "d": 232.55799999999726,
      "v": 100
    },
    {
      "midi": 62,
      "hit": false,
      "t": 43023.22999999995,
      "d": 232.55799999999726,
      "v": 100
    },
    {
      "midi": 42,
      "hit": false,
      "t": 43023.22999999995,
      "d": 58.1394999999975,
      "v": 60
    },
    {
      "midi": 67,
      "hit": false,
      "t": 43139.50899999998,
      "d": 232.55799999999726,
      "v": 100
    },
    {
      "midi": 61,
      "hit": false,
      "t": 43255.78799999995,
      "d": 232.55799999999726,
      "v": 100
    },
    {
      "midi": 39,
      "hit": false,
      "t": 43255.78799999996,
      "d": 58.1394999999975,
      "v": 100
    },
    {
      "midi": 28,
      "hit": false,
      "t": 43255.78799999996,
      "d": 58.1394999999975,
      "v": 100
    },
    {
      "midi": 40,
      "hit": false,
      "t": 43255.788000000044,
      "d": 465.1160000000018,
      "v": 100
    },
    {
      "midi": 67,
      "hit": false,
      "t": 43372.06699999997,
      "d": 232.55799999999726,
      "v": 100
    },
    {
      "midi": 65,
      "hit": false,
      "t": 43488.34599999995,
      "d": 465.1160000000018,
      "v": 100
    },
    {
      "midi": 42,
      "hit": false,
      "t": 43488.34599999995,
      "d": 58.1394999999975,
      "v": 60
    },
    {
      "midi": 38,
      "hit": false,
      "t": 43604.62499999991,
      "d": 58.1394999999975,
      "v": 80
    },
    {
      "midi": 67,
      "hit": false,
      "t": 43604.62499999997,
      "d": 116.27900000000227,
      "v": 100
    },
    {
      "midi": 38,
      "hit": false,
      "t": 43720.90399999991,
      "d": 58.1394999999975,
      "v": 80
    },
    {
      "midi": 36,
      "hit": false,
      "t": 43720.90399999994,
      "d": 58.1394999999975,
      "v": 120
    },
    {
      "midi": 35,
      "hit": false,
      "t": 43720.90399999994,
      "d": 58.1394999999975,
      "v": 120
    },
    {
      "midi": 69,
      "hit": false,
      "t": 43720.90399999997,
      "d": 232.55799999999726,
      "v": 100
    },
    {
      "midi": 50,
      "hit": false,
      "t": 43720.904000000046,
      "d": 465.1160000000018,
      "v": 100
    },
    {
      "midi": 42,
      "hit": false,
      "t": 43953.46199999994,
      "d": 58.1394999999975,
      "v": 60
    },
    {
      "midi": 64,
      "hit": false,
      "t": 43953.46199999995,
      "d": 232.55799999999726,
      "v": 100
    },
    {
      "midi": 67,
      "hit": false,
      "t": 43953.46199999997,
      "d": 232.55799999999726,
      "v": 100
    },
    {
      "midi": 38,
      "hit": false,
      "t": 44069.74099999991,
      "d": 58.1394999999975,
      "v": 80
    },
    {
      "midi": 38,
      "hit": false,
      "t": 44186.0199999999,
      "d": 58.1394999999975,
      "v": 80
    },
    {
      "midi": 36,
      "hit": false,
      "t": 44186.01999999993,
      "d": 58.1394999999975,
      "v": 120
    },
    {
      "midi": 35,
      "hit": false,
      "t": 44186.01999999993,
      "d": 58.1394999999975,
      "v": 120
    },
    {
      "midi": 62,
      "hit": false,
      "t": 44186.019999999946,
      "d": 232.55799999999726,
      "v": 100
    },
    {
      "midi": 39,
      "hit": false,
      "t": 44186.01999999995,
      "d": 58.1394999999975,
      "v": 100
    },
    {
      "midi": 28,
      "hit": false,
      "t": 44186.01999999995,
      "d": 58.1394999999975,
      "v": 100
    },
    {
      "midi": 65,
      "hit": false,
      "t": 44186.01999999997,
      "d": 232.55799999999726,
      "v": 100
    },
    {
      "midi": 45,
      "hit": false,
      "t": 44186.02000000005,
      "d": 465.1160000000018,
      "v": 100
    },
    {
      "midi": 38,
      "hit": false,
      "t": 44418.5779999999,
      "d": 58.1394999999975,
      "v": 80
    },
    {
      "midi": 36,
      "hit": false,
      "t": 44418.57799999993,
      "d": 58.1394999999975,
      "v": 120
    },
    {
      "midi": 35,
      "hit": false,
      "t": 44418.57799999993,
      "d": 58.1394999999975,
      "v": 120
    },
    {
      "midi": 65,
      "hit": false,
      "t": 44418.57799999994,
      "d": 232.55799999999726,
      "v": 100
    },
    {
      "midi": 62,
      "hit": false,
      "t": 44418.577999999965,
      "d": 232.55799999999726,
      "v": 100
    },
    {
      "midi": 38,
      "hit": false,
      "t": 44651.1359999999,
      "d": 58.1394999999975,
      "v": 80
    },
    {
      "midi": 36,
      "hit": false,
      "t": 44651.135999999926,
      "d": 58.1394999999975,
      "v": 120
    },
    {
      "midi": 35,
      "hit": false,
      "t": 44651.135999999926,
      "d": 58.1394999999975,
      "v": 120
    },
    {
      "midi": 65,
      "hit": false,
      "t": 44651.13599999994,
      "d": 465.1160000000018,
      "v": 100
    },
    {
      "midi": 70,
      "hit": false,
      "t": 44651.13599999994,
      "d": 465.1160000000018,
      "v": 100
    },
    {
      "midi": 62,
      "hit": false,
      "t": 44651.13599999994,
      "d": 465.1160000000018,
      "v": 100
    },
    {
      "midi": 64,
      "hit": false,
      "t": 44651.13599999994,
      "d": 465.1160000000018,
      "v": 100
    },
    {
      "midi": 72,
      "hit": false,
      "t": 44651.13599999996,
      "d": 465.1160000000018,
      "v": 100
    },
    {
      "midi": 43,
      "hit": false,
      "t": 44651.13600000005,
      "d": 465.1160000000018,
      "v": 100
    },
    {
      "midi": 42,
      "hit": false,
      "t": 44883.69399999994,
      "d": 58.1394999999975,
      "v": 60
    },
    {
      "midi": 39,
      "hit": false,
      "t": 45116.25199999995,
      "d": 58.1394999999975,
      "v": 100
    },
    {
      "midi": 28,
      "hit": false,
      "t": 45116.25199999995,
      "d": 58.1394999999975,
      "v": 100
    },
    {
      "midi": 70,
      "hit": false,
      "t": 45116.251999999964,
      "d": 465.1160000000018,
      "v": 100
    },
    {
      "midi": 41,
      "hit": false,
      "t": 45116.25200000005,
      "d": 465.1160000000018,
      "v": 100
    },
    {
      "midi": 42,
      "hit": false,
      "t": 45348.80999999993,
      "d": 58.1394999999975,
      "v": 60
    },
    {
      "midi": 38,
      "hit": false,
      "t": 45465.08899999989,
      "d": 58.1394999999975,
      "v": 80
    },
    {
      "midi": 38,
      "hit": false,
      "t": 45581.367999999886,
      "d": 58.1394999999975,
      "v": 80
    },
    {
      "midi": 36,
      "hit": false,
      "t": 45581.36799999992,
      "d": 58.1394999999975,
      "v": 120
    },
    {
      "midi": 35,
      "hit": false,
      "t": 45581.36799999992,
      "d": 58.1394999999975,
      "v": 120
    },
    {
      "midi": 69,
      "hit": false,
      "t": 45581.367999999966,
      "d": 465.1160000000018,
      "v": 100
    },
    {
      "midi": 74,
      "hit": false,
      "t": 45581.367999999995,
      "d": 232.55799999999726,
      "v": 100
    },
    {
      "midi": 67,
      "hit": false,
      "t": 45581.367999999995,
      "d": 232.55799999999726,
      "v": 100
    },
    {
      "midi": 74,
      "hit": false,
      "t": 45581.367999999995,
      "d": 232.55799999999726,
      "v": 100
    },
    {
      "midi": 65,
      "hit": false,
      "t": 45581.367999999995,
      "d": 232.55799999999726,
      "v": 100
    },
    {
      "midi": 42,
      "hit": false,
      "t": 45813.92599999993,
      "d": 58.1394999999975,
      "v": 60
    },
    {
      "midi": 76,
      "hit": false,
      "t": 45813.92599999999,
      "d": 232.55799999999726,
      "v": 100
    },
    {
      "midi": 70,
      "hit": false,
      "t": 45813.92599999999,
      "d": 232.55799999999726,
      "v": 100
    },
    {
      "midi": 76,
      "hit": false,
      "t": 45813.92599999999,
      "d": 232.55799999999726,
      "v": 100
    },
    {
      "midi": 67,
      "hit": false,
      "t": 45813.92599999999,
      "d": 232.55799999999726,
      "v": 100
    },
    {
      "midi": 38,
      "hit": false,
      "t": 45930.204999999885,
      "d": 58.1394999999975,
      "v": 80
    },
    {
      "midi": 38,
      "hit": false,
      "t": 46046.48399999988,
      "d": 58.1394999999975,
      "v": 80
    },
    {
      "midi": 36,
      "hit": false,
      "t": 46046.48399999992,
      "d": 58.1394999999975,
      "v": 120
    },
    {
      "midi": 35,
      "hit": false,
      "t": 46046.48399999992,
      "d": 58.1394999999975,
      "v": 120
    },
    {
      "midi": 39,
      "hit": false,
      "t": 46046.483999999946,
      "d": 58.1394999999975,
      "v": 100
    },
    {
      "midi": 28,
      "hit": false,
      "t": 46046.483999999946,
      "d": 58.1394999999975,
      "v": 100
    },
    {
      "midi": 67,
      "hit": false,
      "t": 46046.48399999997,
      "d": 465.1160000000018,
      "v": 100
    },
    {
      "midi": 77,
      "hit": false,
      "t": 46046.48399999999,
      "d": 232.55799999999726,
      "v": 100
    },
    {
      "midi": 73,
      "hit": false,
      "t": 46046.48399999999,
      "d": 232.55799999999726,
      "v": 100
    },
    {
      "midi": 77,
      "hit": false,
      "t": 46046.48399999999,
      "d": 232.55799999999726,
      "v": 100
    },
    {
      "midi": 69,
      "hit": false,
      "t": 46046.48399999999,
      "d": 232.55799999999726,
      "v": 100
    },
    {
      "midi": 38,
      "hit": false,
      "t": 46279.04199999988,
      "d": 58.1394999999975,
      "v": 80
    },
    {
      "midi": 36,
      "hit": false,
      "t": 46279.041999999914,
      "d": 58.1394999999975,
      "v": 120
    },
    {
      "midi": 35,
      "hit": false,
      "t": 46279.041999999914,
      "d": 58.1394999999975,
      "v": 120
    },
    {
      "midi": 79,
      "hit": false,
      "t": 46279.04199999999,
      "d": 232.55799999999726,
      "v": 100
    },
    {
      "midi": 74,
      "hit": false,
      "t": 46279.04199999999,
      "d": 232.55799999999726,
      "v": 100
    },
    {
      "midi": 79,
      "hit": false,
      "t": 46279.04199999999,
      "d": 232.55799999999726,
      "v": 100
    },
    {
      "midi": 70,
      "hit": false,
      "t": 46279.04199999999,
      "d": 232.55799999999726,
      "v": 100
    },
    {
      "midi": 38,
      "hit": false,
      "t": 46511.599999999875,
      "d": 58.1394999999975,
      "v": 80
    },
    {
      "midi": 36,
      "hit": false,
      "t": 46511.59999999991,
      "d": 58.1394999999975,
      "v": 120
    },
    {
      "midi": 35,
      "hit": false,
      "t": 46511.59999999991,
      "d": 58.1394999999975,
      "v": 120
    },
    {
      "midi": 81,
      "hit": false,
      "t": 46511.59999999994,
      "d": 232.55799999999726,
      "v": 100
    },
    {
      "midi": 73,
      "hit": false,
      "t": 46511.59999999994,
      "d": 232.55799999999726,
      "v": 100
    },
    {
      "midi": 69,
      "hit": false,
      "t": 46511.59999999997,
      "d": 465.1160000000018,
      "v": 100
    },
    {
      "midi": 81,
      "hit": false,
      "t": 46511.599999999984,
      "d": 465.1160000000018,
      "v": 100
    },
    {
      "midi": 73,
      "hit": false,
      "t": 46511.599999999984,
      "d": 465.1160000000018,
      "v": 100
    },
    {
      "midi": 81,
      "hit": false,
      "t": 46511.599999999984,
      "d": 232.55799999999726,
      "v": 100
    },
    {
      "midi": 73,
      "hit": false,
      "t": 46511.599999999984,
      "d": 232.55799999999726,
      "v": 100
    },
    {
      "midi": 45,
      "hit": false,
      "t": 46511.60000000005,
      "d": 465.1160000000018,
      "v": 100
    },
    {
      "midi": 42,
      "hit": false,
      "t": 46744.15799999992,
      "d": 58.1394999999975,
      "v": 60
    },
    {
      "midi": 39,
      "hit": false,
      "t": 46976.71599999994,
      "d": 58.1394999999975,
      "v": 100
    },
    {
      "midi": 28,
      "hit": false,
      "t": 46976.71599999994,
      "d": 58.1394999999975,
      "v": 100
    },
    {
      "midi": 67,
      "hit": false,
      "t": 46976.71599999997,
      "d": 465.1160000000018,
      "v": 100
    },
    {
      "midi": 42,
      "hit": false,
      "t": 47209.27399999992,
      "d": 58.1394999999975,
      "v": 60
    },
    {
      "midi": 38,
      "hit": false,
      "t": 47325.55299999987,
      "d": 58.1394999999975,
      "v": 80
    },
    {
      "midi": 38,
      "hit": false,
      "t": 47441.831999999864,
      "d": 58.1394999999975,
      "v": 80
    },
    {
      "midi": 36,
      "hit": false,
      "t": 47441.83199999991,
      "d": 58.1394999999975,
      "v": 120
    },
    {
      "midi": 35,
      "hit": false,
      "t": 47441.83199999991,
      "d": 58.1394999999975,
      "v": 120
    },
    {
      "midi": 61,
      "hit": false,
      "t": 47441.83199999994,
      "d": 348.83699999999953,
      "v": 100
    },
    {
      "midi": 67,
      "hit": false,
      "t": 47441.83199999994,
      "d": 348.83699999999953,
      "v": 100
    },
    {
      "midi": 73,
      "hit": false,
      "t": 47441.83199999994,
      "d": 348.83699999999953,
      "v": 100
    },
    {
      "midi": 55,
      "hit": false,
      "t": 47441.83199999994,
      "d": 348.83699999999953,
      "v": 100
    },
    {
      "midi": 65,
      "hit": false,
      "t": 47441.83199999997,
      "d": 465.1160000000018,
      "v": 100
    },
    {
      "midi": 73,
      "hit": false,
      "t": 47441.83199999997,
      "d": 348.83699999999953,
      "v": 100
    },
    {
      "midi": 67,
      "hit": false,
      "t": 47441.83199999997,
      "d": 348.83699999999953,
      "v": 100
    },
    {
      "midi": 69,
      "hit": false,
      "t": 47441.83199999997,
      "d": 348.83699999999953,
      "v": 100
    },
    {
      "midi": 42,
      "hit": false,
      "t": 47674.38999999991,
      "d": 58.1394999999975,
      "v": 60
    },
    {
      "midi": 38,
      "hit": false,
      "t": 47790.66899999986,
      "d": 58.1394999999975,
      "v": 80
    },
    {
      "midi": 61,
      "hit": false,
      "t": 47790.668999999936,
      "d": 348.83699999999953,
      "v": 100
    },
    {
      "midi": 73,
      "hit": false,
      "t": 47790.668999999936,
      "d": 348.83699999999953,
      "v": 100
    },
    {
      "midi": 67,
      "hit": false,
      "t": 47790.668999999936,
      "d": 348.83699999999953,
      "v": 100
    },
    {
      "midi": 55,
      "hit": false,
      "t": 47790.668999999936,
      "d": 348.83699999999953,
      "v": 100
    },
    {
      "midi": 67,
      "hit": false,
      "t": 47790.66899999997,
      "d": 348.83699999999953,
      "v": 100
    },
    {
      "midi": 73,
      "hit": false,
      "t": 47790.66899999997,
      "d": 348.83699999999953,
      "v": 100
    },
    {
      "midi": 69,
      "hit": false,
      "t": 47790.66899999997,
      "d": 348.83699999999953,
      "v": 100
    },
    {
      "midi": 38,
      "hit": false,
      "t": 47906.94799999986,
      "d": 58.1394999999975,
      "v": 110
    },
    {
      "midi": 36,
      "hit": false,
      "t": 47906.9479999999,
      "d": 58.1394999999975,
      "v": 120
    },
    {
      "midi": 35,
      "hit": false,
      "t": 47906.9479999999,
      "d": 58.1394999999975,
      "v": 120
    },
    {
      "midi": 39,
      "hit": false,
      "t": 47906.94799999994,
      "d": 58.1394999999975,
      "v": 100
    },
    {
      "midi": 28,
      "hit": false,
      "t": 47906.94799999994,
      "d": 58.1394999999975,
      "v": 100
    },
    {
      "midi": 67,
      "hit": false,
      "t": 47906.947999999975,
      "d": 465.1160000000018,
      "v": 100
    },
    {
      "midi": 38,
      "hit": false,
      "t": 48023.22699999985,
      "d": 58.1394999999975,
      "v": 110
    },
    {
      "midi": 38,
      "hit": false,
      "t": 48139.50599999985,
      "d": 58.1394999999975,
      "v": 110
    },
    {
      "midi": 36,
      "hit": false,
      "t": 48139.5059999999,
      "d": 58.1394999999975,
      "v": 120
    },
    {
      "midi": 35,
      "hit": false,
      "t": 48139.5059999999,
      "d": 58.1394999999975,
      "v": 120
    },
    {
      "midi": 38,
      "hit": false,
      "t": 48255.78499999984,
      "d": 58.1394999999975,
      "v": 110
    },
    {
      "midi": 38,
      "hit": false,
      "t": 48372.06399999984,
      "d": 58.1394999999975,
      "v": 80
    },
    {
      "midi": 49,
      "hit": false,
      "t": 48372.06399999984,
      "d": 58.1394999999975,
      "v": 110
    },
    {
      "midi": 36,
      "hit": false,
      "t": 48372.0639999999,
      "d": 58.1394999999975,
      "v": 120
    },
    {
      "midi": 35,
      "hit": false,
      "t": 48372.0639999999,
      "d": 58.1394999999975,
      "v": 120
    },
    {
      "midi": 81,
      "hit": false,
      "t": 48372.063999999984,
      "d": 6976.739999999998,
      "v": 100
    },
    {
      "midi": 38,
      "hit": false,
      "t": 48372.06400000005,
      "d": 232.55799999999726,
      "v": 100
    },
    {
      "midi": 42,
      "hit": false,
      "t": 48604.62199999991,
      "d": 58.1394999999975,
      "v": 60
    },
    {
      "midi": 65,
      "hit": false,
      "t": 48604.621999999996,
      "d": 116.27900000000227,
      "v": 100
    },
    {
      "midi": 62,
      "hit": false,
      "t": 48604.621999999996,
      "d": 116.27900000000227,
      "v": 100
    },
    {
      "midi": 33,
      "hit": false,
      "t": 48604.62200000005,
      "d": 232.55799999999726,
      "v": 100
    },
    {
      "midi": 77,
      "hit": false,
      "t": 48720.901,
      "d": 348.83699999999953,
      "v": 100
    },
    {
      "midi": 74,
      "hit": false,
      "t": 48720.901,
      "d": 348.83699999999953,
      "v": 100
    },
    {
      "midi": 72,
      "hit": false,
      "t": 48720.901,
      "d": 348.83699999999953,
      "v": 100
    },
    {
      "midi": 65,
      "hit": false,
      "t": 48720.901,
      "d": 116.27900000000227,
      "v": 100
    },
    {
      "midi": 62,
      "hit": false,
      "t": 48720.901,
      "d": 116.27900000000227,
      "v": 100
    },
    {
      "midi": 39,
      "hit": false,
      "t": 48837.179999999935,
      "d": 58.1394999999975,
      "v": 100
    },
    {
      "midi": 28,
      "hit": false,
      "t": 48837.179999999935,
      "d": 58.1394999999975,
      "v": 100
    },
    {
      "midi": 62,
      "hit": false,
      "t": 48837.17999999998,
      "d": 465.1160000000018,
      "v": 100
    },
    {
      "midi": 67,
      "hit": false,
      "t": 48837.17999999998,
      "d": 465.1160000000018,
      "v": 80
    },
    {
      "midi": 38,
      "hit": false,
      "t": 48837.180000000044,
      "d": 232.55799999999726,
      "v": 100
    },
    {
      "midi": 65,
      "hit": false,
      "t": 48953.459,
      "d": 116.27900000000227,
      "v": 100
    },
    {
      "midi": 62,
      "hit": false,
      "t": 48953.459,
      "d": 116.27900000000227,
      "v": 100
    },
    {
      "midi": 42,
      "hit": false,
      "t": 49069.7379999999,
      "d": 58.1394999999975,
      "v": 60
    },
    {
      "midi": 77,
      "hit": false,
      "t": 49069.738,
      "d": 232.55799999999726,
      "v": 100
    },
    {
      "midi": 74,
      "hit": false,
      "t": 49069.738,
      "d": 232.55799999999726,
      "v": 100
    },
    {
      "midi": 72,
      "hit": false,
      "t": 49069.738,
      "d": 232.55799999999726,
      "v": 100
    },
    {
      "midi": 65,
      "hit": false,
      "t": 49069.738000000005,
      "d": 116.27900000000227,
      "v": 100
    },
    {
      "midi": 62,
      "hit": false,
      "t": 49069.738000000005,
      "d": 116.27900000000227,
      "v": 100
    },
    {
      "midi": 38,
      "hit": false,
      "t": 49186.01699999983,
      "d": 58.1394999999975,
      "v": 80
    },
    {
      "midi": 38,
      "hit": false,
      "t": 49302.29599999983,
      "d": 58.1394999999975,
      "v": 80
    },
    {
      "midi": 36,
      "hit": false,
      "t": 49302.29599999989,
      "d": 58.1394999999975,
      "v": 120
    },
    {
      "midi": 35,
      "hit": false,
      "t": 49302.29599999989,
      "d": 58.1394999999975,
      "v": 120
    },
    {
      "midi": 57,
      "hit": false,
      "t": 49302.29599999998,
      "d": 465.1160000000018,
      "v": 100
    },
    {
      "midi": 65,
      "hit": false,
      "t": 49302.29599999998,
      "d": 465.1160000000018,
      "v": 80
    },
    {
      "midi": 77,
      "hit": false,
      "t": 49302.295999999995,
      "d": 348.83699999999953,
      "v": 100
    },
    {
      "midi": 74,
      "hit": false,
      "t": 49302.295999999995,
      "d": 348.83699999999953,
      "v": 100
    },
    {
      "midi": 72,
      "hit": false,
      "t": 49302.295999999995,
      "d": 348.83699999999953,
      "v": 100
    },
    {
      "midi": 65,
      "hit": false,
      "t": 49302.29600000001,
      "d": 116.27900000000227,
      "v": 100
    },
    {
      "midi": 62,
      "hit": false,
      "t": 49302.29600000001,
      "d": 116.27900000000227,
      "v": 100
    },
    {
      "midi": 65,
      "hit": false,
      "t": 49418.57500000001,
      "d": 116.27900000000227,
      "v": 100
    },
    {
      "midi": 62,
      "hit": false,
      "t": 49418.57500000001,
      "d": 116.27900000000227,
      "v": 100
    },
    {
      "midi": 42,
      "hit": false,
      "t": 49534.8539999999,
      "d": 58.1394999999975,
      "v": 60
    },
    {
      "midi": 38,
      "hit": false,
      "t": 49651.13299999983,
      "d": 58.1394999999975,
      "v": 80
    },
    {
      "midi": 77,
      "hit": false,
      "t": 49651.132999999994,
      "d": 348.83699999999953,
      "v": 100
    },
    {
      "midi": 74,
      "hit": false,
      "t": 49651.132999999994,
      "d": 348.83699999999953,
      "v": 100
    },
    {
      "midi": 72,
      "hit": false,
      "t": 49651.132999999994,
      "d": 348.83699999999953,
      "v": 100
    },
    {
      "midi": 65,
      "hit": false,
      "t": 49651.133000000016,
      "d": 116.27900000000227,
      "v": 100
    },
    {
      "midi": 62,
      "hit": false,
      "t": 49651.133000000016,
      "d": 116.27900000000227,
      "v": 100
    },
    {
      "midi": 38,
      "hit": false,
      "t": 49767.41199999982,
      "d": 58.1394999999975,
      "v": 80
    },
    {
      "midi": 36,
      "hit": false,
      "t": 49767.41199999989,
      "d": 58.1394999999975,
      "v": 120
    },
    {
      "midi": 35,
      "hit": false,
      "t": 49767.41199999989,
      "d": 58.1394999999975,
      "v": 120
    },
    {
      "midi": 39,
      "hit": false,
      "t": 49767.41199999993,
      "d": 58.1394999999975,
      "v": 100
    },
    {
      "midi": 28,
      "hit": false,
      "t": 49767.41199999993,
      "d": 58.1394999999975,
      "v": 100
    },
    {
      "midi": 65,
      "hit": false,
      "t": 49767.41199999998,
      "d": 465.1160000000018,
      "v": 100
    },
    {
      "midi": 69,
      "hit": false,
      "t": 49767.41199999998,
      "d": 465.1160000000018,
      "v": 80
    },
    {
      "midi": 65,
      "hit": false,
      "t": 49767.41200000002,
      "d": 116.27900000000227,
      "v": 100
    },
    {
      "midi": 62,
      "hit": false,
      "t": 49767.41200000002,
      "d": 116.27900000000227,
      "v": 100
    },
    {
      "midi": 38,
      "hit": false,
      "t": 49767.41200000004,
      "d": 232.55799999999726,
      "v": 100
    },
    {
      "midi": 38,
      "hit": false,
      "t": 49999.96999999982,
      "d": 58.1394999999975,
      "v": 80
    },
    {
      "midi": 36,
      "hit": false,
      "t": 49999.969999999885,
      "d": 58.1394999999975,
      "v": 120
    },
    {
      "midi": 35,
      "hit": false,
      "t": 49999.969999999885,
      "d": 58.1394999999975,
      "v": 120
    },
    {
      "midi": 77,
      "hit": false,
      "t": 49999.969999999994,
      "d": 232.55799999999726,
      "v": 100
    },
    {
      "midi": 74,
      "hit": false,
      "t": 49999.969999999994,
      "d": 232.55799999999726,
      "v": 100
    },
    {
      "midi": 72,
      "hit": false,
      "t": 49999.969999999994,
      "d": 232.55799999999726,
      "v": 100
    },
    {
      "midi": 65,
      "hit": false,
      "t": 49999.97000000002,
      "d": 116.27900000000227,
      "v": 100
    },
    {
      "midi": 62,
      "hit": false,
      "t": 49999.97000000002,
      "d": 116.27900000000227,
      "v": 100
    },
    {
      "midi": 38,
      "hit": false,
      "t": 49999.97000000004,
      "d": 232.55799999999726,
      "v": 100
    },
    {
      "midi": 65,
      "hit": false,
      "t": 50116.249000000025,
      "d": 116.27900000000227,
      "v": 100
    },
    {
      "midi": 62,
      "hit": false,
      "t": 50116.249000000025,
      "d": 116.27900000000227,
      "v": 100
    },
    {
      "midi": 38,
      "hit": false,
      "t": 50232.52799999982,
      "d": 58.1394999999975,
      "v": 80
    },
    {
      "midi": 36,
      "hit": false,
      "t": 50232.52799999988,
      "d": 58.1394999999975,
      "v": 120
    },
    {
      "midi": 35,
      "hit": false,
      "t": 50232.52799999988,
      "d": 58.1394999999975,
      "v": 120
    },
    {
      "midi": 40,
      "hit": false,
      "t": 50232.528000000035,
      "d": 232.55799999999726,
      "v": 100
    },
    {
      "midi": 42,
      "hit": false,
      "t": 50465.085999999894,
      "d": 58.1394999999975,
      "v": 60
    },
    {
      "midi": 61,
      "hit": false,
      "t": 50465.086000000025,
      "d": 116.27900000000227,
      "v": 100
    },
    {
      "midi": 65,
      "hit": false,
      "t": 50465.086000000025,
      "d": 116.27900000000227,
      "v": 100
    },
    {
      "midi": 33,
      "hit": false,
      "t": 50465.08600000003,
      "d": 232.55799999999726,
      "v": 100
    },
    {
      "midi": 73,
      "hit": false,
      "t": 50581.36499999999,
      "d": 348.83699999999953,
      "v": 100
    },
    {
      "midi": 77,
      "hit": false,
      "t": 50581.36499999999,
      "d": 348.83699999999953,
      "v": 100
    },
    {
      "midi": 74,
      "hit": false,
      "t": 50581.36499999999,
      "d": 348.83699999999953,
      "v": 100
    },
    {
      "midi": 65,
      "hit": false,
      "t": 50581.36500000003,
      "d": 116.27900000000227,
      "v": 100
    },
    {
      "midi": 61,
      "hit": false,
      "t": 50581.36500000003,
      "d": 116.27900000000227,
      "v": 100
    },
    {
      "midi": 39,
      "hit": false,
      "t": 50697.64399999993,
      "d": 58.1394999999975,
      "v": 100
    },
    {
      "midi": 28,
      "hit": false,
      "t": 50697.64399999993,
      "d": 58.1394999999975,
      "v": 100
    },
    {
      "midi": 64,
      "hit": false,
      "t": 50697.643999999986,
      "d": 465.1160000000018,
      "v": 100
    },
    {
      "midi": 67,
      "hit": false,
      "t": 50697.643999999986,
      "d": 465.1160000000018,
      "v": 80
    },
    {
      "midi": 40,
      "hit": false,
      "t": 50697.64400000003,
      "d": 232.55799999999726,
      "v": 100
    },
    {
      "midi": 61,
      "hit": false,
      "t": 50813.92300000003,
      "d": 116.27900000000227,
      "v": 100
    },
    {
      "midi": 65,
      "hit": false,
      "t": 50813.92300000003,
      "d": 116.27900000000227,
      "v": 100
    },
    {
      "midi": 42,
      "hit": false,
      "t": 50930.20199999989,
      "d": 58.1394999999975,
      "v": 60
    },
    {
      "midi": 77,
      "hit": false,
      "t": 50930.20199999999,
      "d": 232.55799999999726,
      "v": 100
    },
    {
      "midi": 73,
      "hit": false,
      "t": 50930.20199999999,
      "d": 232.55799999999726,
      "v": 100
    },
    {
      "midi": 74,
      "hit": false,
      "t": 50930.20199999999,
      "d": 232.55799999999726,
      "v": 100
    },
    {
      "midi": 65,
      "hit": false,
      "t": 50930.202000000034,
      "d": 116.27900000000227,
      "v": 100
    },
    {
      "midi": 61,
      "hit": false,
      "t": 50930.202000000034,
      "d": 116.27900000000227,
      "v": 100
    },
    {
      "midi": 38,
      "hit": false,
      "t": 51046.48099999981,
      "d": 58.1394999999975,
      "v": 80
    },
    {
      "midi": 38,
      "hit": false,
      "t": 51162.759999999806,
      "d": 58.1394999999975,
      "v": 80
    },
    {
      "midi": 36,
      "hit": false,
      "t": 51162.75999999988,
      "d": 58.1394999999975,
      "v": 120
    },
    {
      "midi": 35,
      "hit": false,
      "t": 51162.75999999988,
      "d": 58.1394999999975,
      "v": 120
    },
    {
      "midi": 57,
      "hit": false,
      "t": 51162.75999999999,
      "d": 465.1160000000018,
      "v": 100
    },
    {
      "midi": 64,
      "hit": false,
      "t": 51162.75999999999,
      "d": 465.1160000000018,
      "v": 80
    },
    {
      "midi": 74,
      "hit": false,
      "t": 51162.75999999999,
      "d": 348.83699999999953,
      "v": 100
    },
    {
      "midi": 73,
      "hit": false,
      "t": 51162.75999999999,
      "d": 348.83699999999953,
      "v": 100
    },
    {
      "midi": 77,
      "hit": false,
      "t": 51162.75999999999,
      "d": 348.83699999999953,
      "v": 100
    },
    {
      "midi": 61,
      "hit": false,
      "t": 51162.76000000004,
      "d": 116.27900000000227,
      "v": 100
    },
    {
      "midi": 65,
      "hit": false,
      "t": 51162.76000000004,
      "d": 116.27900000000227,
      "v": 100
    },
    {
      "midi": 61,
      "hit": false,
      "t": 51279.03900000004,
      "d": 116.27900000000227,
      "v": 100
    },
    {
      "midi": 65,
      "hit": false,
      "t": 51279.03900000004,
      "d": 116.27900000000227,
      "v": 100
    },
    {
      "midi": 42,
      "hit": false,
      "t": 51395.31799999988,
      "d": 58.1394999999975,
      "v": 60
    },
    {
      "midi": 38,
      "hit": false,
      "t": 51511.596999999805,
      "d": 58.1394999999975,
      "v": 80
    },
    {
      "midi": 73,
      "hit": false,
      "t": 51511.59699999999,
      "d": 348.83699999999953,
      "v": 100
    },
    {
      "midi": 77,
      "hit": false,
      "t": 51511.59699999999,
      "d": 348.83699999999953,
      "v": 100
    },
    {
      "midi": 74,
      "hit": false,
      "t": 51511.59699999999,
      "d": 348.83699999999953,
      "v": 100
    },
    {
      "midi": 65,
      "hit": false,
      "t": 51511.597000000045,
      "d": 116.27900000000227,
      "v": 100
    },
    {
      "midi": 61,
      "hit": false,
      "t": 51511.597000000045,
      "d": 116.27900000000227,
      "v": 100
    },
    {
      "midi": 38,
      "hit": false,
      "t": 51627.8759999998,
      "d": 58.1394999999975,
      "v": 80
    },
    {
      "midi": 36,
      "hit": false,
      "t": 51627.87599999987,
      "d": 58.1394999999975,
      "v": 120
    },
    {
      "midi": 35,
      "hit": false,
      "t": 51627.87599999987,
      "d": 58.1394999999975,
      "v": 120
    },
    {
      "midi": 39,
      "hit": false,
      "t": 51627.875999999924,
      "d": 58.1394999999975,
      "v": 100
    },
    {
      "midi": 28,
      "hit": false,
      "t": 51627.875999999924,
      "d": 58.1394999999975,
      "v": 100
    },
    {
      "midi": 67,
      "hit": false,
      "t": 51627.87599999999,
      "d": 465.1160000000018,
      "v": 100
    },
    {
      "midi": 69,
      "hit": false,
      "t": 51627.87599999999,
      "d": 465.1160000000018,
      "v": 80
    },
    {
      "midi": 40,
      "hit": false,
      "t": 51627.876000000026,
      "d": 232.55799999999726,
      "v": 100
    },
    {
      "midi": 61,
      "hit": false,
      "t": 51627.87600000005,
      "d": 116.27900000000227,
      "v": 100
    },
    {
      "midi": 65,
      "hit": false,
      "t": 51627.87600000005,
      "d": 116.27900000000227,
      "v": 100
    },
    {
      "midi": 38,
      "hit": false,
      "t": 51860.4339999998,
      "d": 58.1394999999975,
      "v": 80
    },
    {
      "midi": 36,
      "hit": false,
      "t": 51860.43399999987,
      "d": 58.1394999999975,
      "v": 120
    },
    {
      "midi": 35,
      "hit": false,
      "t": 51860.43399999987,
      "d": 58.1394999999975,
      "v": 120
    },
    {
      "midi": 73,
      "hit": false,
      "t": 51860.43399999999,
      "d": 232.55799999999726,
      "v": 100
    },
    {
      "midi": 77,
      "hit": false,
      "t": 51860.43399999999,
      "d": 232.55799999999726,
      "v": 100
    },
    {
      "midi": 74,
      "hit": false,
      "t": 51860.43399999999,
      "d": 232.55799999999726,
      "v": 100
    },
    {
      "midi": 40,
      "hit": false,
      "t": 51860.43400000002,
      "d": 232.55799999999726,
      "v": 100
    },
    {
      "midi": 65,
      "hit": false,
      "t": 51860.43400000005,
      "d": 116.27900000000227,
      "v": 100
    },
    {
      "midi": 61,
      "hit": false,
      "t": 51860.43400000005,
      "d": 116.27900000000227,
      "v": 100
    },
    {
      "midi": 61,
      "hit": false,
      "t": 51976.713000000054,
      "d": 116.27900000000227,
      "v": 100
    },
    {
      "midi": 65,
      "hit": false,
      "t": 51976.713000000054,
      "d": 116.27900000000227,
      "v": 100
    },
    {
      "midi": 38,
      "hit": false,
      "t": 52092.991999999795,
      "d": 58.1394999999975,
      "v": 80
    },
    {
      "midi": 36,
      "hit": false,
      "t": 52092.99199999987,
      "d": 58.1394999999975,
      "v": 120
    },
    {
      "midi": 35,
      "hit": false,
      "t": 52092.99199999987,
      "d": 58.1394999999975,
      "v": 120
    },
    {
      "midi": 41,
      "hit": false,
      "t": 52092.99200000002,
      "d": 232.55799999999726,
      "v": 100
    },
    {
      "midi": 42,
      "hit": false,
      "t": 52325.54999999988,
      "d": 58.1394999999975,
      "v": 60
    },
    {
      "midi": 36,
      "hit": false,
      "t": 52325.55000000002,
      "d": 232.55799999999726,
      "v": 100
    },
    {
      "midi": 60,
      "hit": false,
      "t": 52325.550000000054,
      "d": 116.27900000000227,
      "v": 100
    },
    {
      "midi": 65,
      "hit": false,
      "t": 52325.550000000054,
      "d": 116.27900000000227,
      "v": 100
    },
    {
      "midi": 77,
      "hit": false,
      "t": 52441.82899999998,
      "d": 348.83699999999953,
      "v": 100
    },
    {
      "midi": 74,
      "hit": false,
      "t": 52441.82899999998,
      "d": 348.83699999999953,
      "v": 100
    },
    {
      "midi": 72,
      "hit": false,
      "t": 52441.82899999998,
      "d": 348.83699999999953,
      "v": 100
    },
    {
      "midi": 65,
      "hit": false,
      "t": 52441.829000000056,
      "d": 116.27900000000227,
      "v": 100
    },
    {
      "midi": 60,
      "hit": false,
      "t": 52441.829000000056,
      "d": 116.27900000000227,
      "v": 100
    },
    {
      "midi": 39,
      "hit": false,
      "t": 52558.10799999992,
      "d": 58.1394999999975,
      "v": 100
    },
    {
      "midi": 28,
      "hit": false,
      "t": 52558.10799999992,
      "d": 58.1394999999975,
      "v": 100
    },
    {
      "midi": 65,
      "hit": false,
      "t": 52558.10799999999,
      "d": 232.55799999999726,
      "v": 100
    },
    {
      "midi": 41,
      "hit": false,
      "t": 52558.108000000015,
      "d": 232.55799999999726,
      "v": 100
    },
    {
      "midi": 60,
      "hit": false,
      "t": 52674.38700000006,
      "d": 116.27900000000227,
      "v": 100
    },
    {
      "midi": 65,
      "hit": false,
      "t": 52674.38700000006,
      "d": 116.27900000000227,
      "v": 100
    },
    {
      "midi": 42,
      "hit": false,
      "t": 52790.665999999874,
      "d": 58.1394999999975,
      "v": 60
    },
    {
      "midi": 77,
      "hit": false,
      "t": 52790.66599999998,
      "d": 232.55799999999726,
      "v": 100
    },
    {
      "midi": 74,
      "hit": false,
      "t": 52790.66599999998,
      "d": 232.55799999999726,
      "v": 100
    },
    {
      "midi": 72,
      "hit": false,
      "t": 52790.66599999998,
      "d": 232.55799999999726,
      "v": 100
    },
    {
      "midi": 65,
      "hit": false,
      "t": 52790.66599999999,
      "d": 232.55799999999726,
      "v": 100
    },
    {
      "midi": 65,
      "hit": false,
      "t": 52790.66600000006,
      "d": 116.27900000000227,
      "v": 100
    },
    {
      "midi": 60,
      "hit": false,
      "t": 52790.66600000006,
      "d": 116.27900000000227,
      "v": 100
    },
    {
      "midi": 38,
      "hit": false,
      "t": 52906.94499999979,
      "d": 58.1394999999975,
      "v": 80
    },
    {
      "midi": 38,
      "hit": false,
      "t": 53023.223999999784,
      "d": 58.1394999999975,
      "v": 80
    },
    {
      "midi": 36,
      "hit": false,
      "t": 53023.223999999864,
      "d": 58.1394999999975,
      "v": 120
    },
    {
      "midi": 35,
      "hit": false,
      "t": 53023.223999999864,
      "d": 58.1394999999975,
      "v": 120
    },
    {
      "midi": 77,
      "hit": false,
      "t": 53023.22399999998,
      "d": 348.83699999999953,
      "v": 100
    },
    {
      "midi": 74,
      "hit": false,
      "t": 53023.22399999998,
      "d": 348.83699999999953,
      "v": 100
    },
    {
      "midi": 72,
      "hit": false,
      "t": 53023.22399999998,
      "d": 348.83699999999953,
      "v": 100
    },
    {
      "midi": 65,
      "hit": false,
      "t": 53023.22399999999,
      "d": 232.55799999999726,
      "v": 100
    },
    {
      "midi": 60,
      "hit": false,
      "t": 53023.22400000007,
      "d": 116.27900000000227,
      "v": 100
    },
    {
      "midi": 65,
      "hit": false,
      "t": 53023.22400000007,
      "d": 116.27900000000227,
      "v": 100
    },
    {
      "midi": 60,
      "hit": false,
      "t": 53139.50300000007,
      "d": 116.27900000000227,
      "v": 100
    },
    {
      "midi": 65,
      "hit": false,
      "t": 53139.50300000007,
      "d": 116.27900000000227,
      "v": 100
    },
    {
      "midi": 42,
      "hit": false,
      "t": 53255.78199999987,
      "d": 58.1394999999975,
      "v": 60
    },
    {
      "midi": 65,
      "hit": false,
      "t": 53255.781999999985,
      "d": 232.55799999999726,
      "v": 100
    },
    {
      "midi": 38,
      "hit": false,
      "t": 53372.06099999978,
      "d": 58.1394999999975,
      "v": 80
    },
    {
      "midi": 77,
      "hit": false,
      "t": 53372.06099999998,
      "d": 348.83699999999953,
      "v": 100
    },
    {
      "midi": 74,
      "hit": false,
      "t": 53372.06099999998,
      "d": 348.83699999999953,
      "v": 100
    },
    {
      "midi": 72,
      "hit": false,
      "t": 53372.06099999998,
      "d": 348.83699999999953,
      "v": 100
    },
    {
      "midi": 65,
      "hit": false,
      "t": 53372.061000000074,
      "d": 116.27900000000227,
      "v": 100
    },
    {
      "midi": 60,
      "hit": false,
      "t": 53372.061000000074,
      "d": 116.27900000000227,
      "v": 100
    },
    {
      "midi": 38,
      "hit": false,
      "t": 53488.33999999978,
      "d": 58.1394999999975,
      "v": 80
    },
    {
      "midi": 36,
      "hit": false,
      "t": 53488.33999999986,
      "d": 58.1394999999975,
      "v": 120
    },
    {
      "midi": 35,
      "hit": false,
      "t": 53488.33999999986,
      "d": 58.1394999999975,
      "v": 120
    },
    {
      "midi": 39,
      "hit": false,
      "t": 53488.33999999992,
      "d": 58.1394999999975,
      "v": 100
    },
    {
      "midi": 28,
      "hit": false,
      "t": 53488.33999999992,
      "d": 58.1394999999975,
      "v": 100
    },
    {
      "midi": 67,
      "hit": false,
      "t": 53488.33999999998,
      "d": 232.55799999999726,
      "v": 100
    },
    {
      "midi": 41,
      "hit": false,
      "t": 53488.34000000001,
      "d": 232.55799999999726,
      "v": 100
    },
    {
      "midi": 60,
      "hit": false,
      "t": 53488.34000000008,
      "d": 116.27900000000227,
      "v": 100
    },
    {
      "midi": 65,
      "hit": false,
      "t": 53488.34000000008,
      "d": 116.27900000000227,
      "v": 100
    },
    {
      "midi": 38,
      "hit": false,
      "t": 53720.897999999775,
      "d": 58.1394999999975,
      "v": 80
    },
    {
      "midi": 36,
      "hit": false,
      "t": 53720.897999999856,
      "d": 58.1394999999975,
      "v": 120
    },
    {
      "midi": 35,
      "hit": false,
      "t": 53720.897999999856,
      "d": 58.1394999999975,
      "v": 120
    },
    {
      "midi": 69,
      "hit": false,
      "t": 53720.89799999998,
      "d": 232.55799999999726,
      "v": 100
    },
    {
      "midi": 77,
      "hit": false,
      "t": 53720.89799999998,
      "d": 232.55799999999726,
      "v": 100
    },
    {
      "midi": 74,
      "hit": false,
      "t": 53720.89799999998,
      "d": 232.55799999999726,
      "v": 100
    },
    {
      "midi": 72,
      "hit": false,
      "t": 53720.89799999998,
      "d": 232.55799999999726,
      "v": 100
    },
    {
      "midi": 41,
      "hit": false,
      "t": 53720.89800000001,
      "d": 232.55799999999726,
      "v": 100
    },
    {
      "midi": 65,
      "hit": false,
      "t": 53720.89800000008,
      "d": 116.27900000000227,
      "v": 100
    },
    {
      "midi": 60,
      "hit": false,
      "t": 53720.89800000008,
      "d": 116.27900000000227,
      "v": 100
    },
    {
      "midi": 60,
      "hit": false,
      "t": 53837.17700000008,
      "d": 116.27900000000227,
      "v": 100
    },
    {
      "midi": 65,
      "hit": false,
      "t": 53837.17700000008,
      "d": 116.27900000000227,
      "v": 100
    },
    {
      "midi": 38,
      "hit": false,
      "t": 53953.45599999977,
      "d": 58.1394999999975,
      "v": 80
    },
    {
      "midi": 36,
      "hit": false,
      "t": 53953.45599999985,
      "d": 58.1394999999975,
      "v": 120
    },
    {
      "midi": 35,
      "hit": false,
      "t": 53953.45599999985,
      "d": 58.1394999999975,
      "v": 120
    },
    {
      "midi": 67,
      "hit": false,
      "t": 53953.45599999998,
      "d": 232.55799999999726,
      "v": 100
    },
    {
      "midi": 43,
      "hit": false,
      "t": 53953.456000000006,
      "d": 232.55799999999726,
      "v": 100
    },
    {
      "midi": 42,
      "hit": false,
      "t": 54186.013999999865,
      "d": 58.1394999999975,
      "v": 60
    },
    {
      "midi": 62,
      "hit": false,
      "t": 54186.013999999974,
      "d": 697.6739999999991,
      "v": 100
    },
    {
      "midi": 38,
      "hit": false,
      "t": 54186.014,
      "d": 232.55799999999726,
      "v": 100
    },
    {
      "midi": 59,
      "hit": false,
      "t": 54186.01400000008,
      "d": 116.27900000000227,
      "v": 100
    },
    {
      "midi": 65,
      "hit": false,
      "t": 54186.01400000008,
      "d": 116.27900000000227,
      "v": 100
    },
    {
      "midi": 71,
      "hit": false,
      "t": 54302.292999999976,
      "d": 348.83699999999953,
      "v": 100
    },
    {
      "midi": 77,
      "hit": false,
      "t": 54302.292999999976,
      "d": 348.83699999999953,
      "v": 100
    },
    {
      "midi": 74,
      "hit": false,
      "t": 54302.292999999976,
      "d": 348.83699999999953,
      "v": 100
    },
    {
      "midi": 65,
      "hit": false,
      "t": 54302.293000000085,
      "d": 116.27900000000227,
      "v": 100
    },
    {
      "midi": 59,
      "hit": false,
      "t": 54302.293000000085,
      "d": 116.27900000000227,
      "v": 100
    },
    {
      "midi": 39,
      "hit": false,
      "t": 54418.57199999991,
      "d": 58.1394999999975,
      "v": 100
    },
    {
      "midi": 28,
      "hit": false,
      "t": 54418.57199999991,
      "d": 58.1394999999975,
      "v": 100
    },
    {
      "midi": 43,
      "hit": false,
      "t": 54418.572,
      "d": 232.55799999999726,
      "v": 100
    },
    {
      "midi": 59,
      "hit": false,
      "t": 54534.85100000009,
      "d": 116.27900000000227,
      "v": 100
    },
    {
      "midi": 65,
      "hit": false,
      "t": 54534.85100000009,
      "d": 116.27900000000227,
      "v": 100
    },
    {
      "midi": 42,
      "hit": false,
      "t": 54651.12999999986,
      "d": 58.1394999999975,
      "v": 60
    },
    {
      "midi": 77,
      "hit": false,
      "t": 54651.129999999976,
      "d": 232.55799999999726,
      "v": 100
    },
    {
      "midi": 71,
      "hit": false,
      "t": 54651.129999999976,
      "d": 232.55799999999726,
      "v": 100
    },
    {
      "midi": 74,
      "hit": false,
      "t": 54651.129999999976,
      "d": 232.55799999999726,
      "v": 100
    },
    {
      "midi": 65,
      "hit": false,
      "t": 54651.13000000009,
      "d": 116.27900000000227,
      "v": 100
    },
    {
      "midi": 59,
      "hit": false,
      "t": 54651.13000000009,
      "d": 116.27900000000227,
      "v": 100
    },
    {
      "midi": 38,
      "hit": false,
      "t": 54767.40899999977,
      "d": 58.1394999999975,
      "v": 80
    },
    {
      "midi": 38,
      "hit": false,
      "t": 54883.68799999976,
      "d": 58.1394999999975,
      "v": 80
    },
    {
      "midi": 36,
      "hit": false,
      "t": 54883.68799999985,
      "d": 58.1394999999975,
      "v": 120
    },
    {
      "midi": 35,
      "hit": false,
      "t": 54883.68799999985,
      "d": 58.1394999999975,
      "v": 120
    },
    {
      "midi": 74,
      "hit": false,
      "t": 54883.68799999997,
      "d": 348.83699999999953,
      "v": 100
    },
    {
      "midi": 71,
      "hit": false,
      "t": 54883.68799999997,
      "d": 348.83699999999953,
      "v": 100
    },
    {
      "midi": 77,
      "hit": false,
      "t": 54883.68799999997,
      "d": 348.83699999999953,
      "v": 100
    },
    {
      "midi": 59,
      "hit": false,
      "t": 54883.6880000001,
      "d": 116.27900000000227,
      "v": 100
    },
    {
      "midi": 65,
      "hit": false,
      "t": 54883.6880000001,
      "d": 116.27900000000227,
      "v": 100
    },
    {
      "midi": 59,
      "hit": false,
      "t": 54999.9670000001,
      "d": 116.27900000000227,
      "v": 100
    },
    {
      "midi": 65,
      "hit": false,
      "t": 54999.9670000001,
      "d": 116.27900000000227,
      "v": 100
    },
    {
      "midi": 42,
      "hit": false,
      "t": 55116.245999999854,
      "d": 58.1394999999975,
      "v": 60
    },
    {
      "midi": 62,
      "hit": false,
      "t": 55116.24599999997,
      "d": 232.55799999999726,
      "v": 100
    },
    {
      "midi": 38,
      "hit": false,
      "t": 55232.52499999976,
      "d": 58.1394999999975,
      "v": 80
    },
    {
      "midi": 71,
      "hit": false,
      "t": 55232.52499999997,
      "d": 348.83699999999953,
      "v": 100
    },
    {
      "midi": 77,
      "hit": false,
      "t": 55232.52499999997,
      "d": 348.83699999999953,
      "v": 100
    },
    {
      "midi": 74,
      "hit": false,
      "t": 55232.52499999997,
      "d": 348.83699999999953,
      "v": 100
    },
    {
      "midi": 65,
      "hit": false,
      "t": 55232.5250000001,
      "d": 116.27900000000227,
      "v": 100
    },
    {
      "midi": 59,
      "hit": false,
      "t": 55232.5250000001,
      "d": 116.27900000000227,
      "v": 100
    },
    {
      "midi": 38,
      "hit": false,
      "t": 55348.803999999756,
      "d": 58.1394999999975,
      "v": 80
    },
    {
      "midi": 36,
      "hit": false,
      "t": 55348.803999999844,
      "d": 58.1394999999975,
      "v": 120
    },
    {
      "midi": 35,
      "hit": false,
      "t": 55348.803999999844,
      "d": 58.1394999999975,
      "v": 120
    },
    {
      "midi": 39,
      "hit": false,
      "t": 55348.80399999991,
      "d": 58.1394999999975,
      "v": 100
    },
    {
      "midi": 28,
      "hit": false,
      "t": 55348.80399999991,
      "d": 58.1394999999975,
      "v": 100
    },
    {
      "midi": 64,
      "hit": false,
      "t": 55348.80399999997,
      "d": 232.55799999999726,
      "v": 100
    },
    {
      "midi": 79,
      "hit": false,
      "t": 55348.80399999998,
      "d": 465.1160000000018,
      "v": 100
    },
    {
      "midi": 31,
      "hit": false,
      "t": 55348.804,
      "d": 232.55799999999726,
      "v": 100
    },
    {
      "midi": 59,
      "hit": false,
      "t": 55348.804000000106,
      "d": 116.27900000000227,
      "v": 100
    },
    {
      "midi": 65,
      "hit": false,
      "t": 55348.804000000106,
      "d": 116.27900000000227,
      "v": 100
    },
    {
      "midi": 38,
      "hit": false,
      "t": 55581.36199999975,
      "d": 58.1394999999975,
      "v": 80
    },
    {
      "midi": 36,
      "hit": false,
      "t": 55581.36199999984,
      "d": 58.1394999999975,
      "v": 120
    },
    {
      "midi": 35,
      "hit": false,
      "t": 55581.36199999984,
      "d": 58.1394999999975,
      "v": 120
    },
    {
      "midi": 65,
      "hit": false,
      "t": 55581.361999999965,
      "d": 1162.7900000000009,
      "v": 100
    },
    {
      "midi": 71,
      "hit": false,
      "t": 55581.36199999997,
      "d": 232.55799999999726,
      "v": 100
    },
    {
      "midi": 77,
      "hit": false,
      "t": 55581.36199999997,
      "d": 232.55799999999726,
      "v": 100
    },
    {
      "midi": 74,
      "hit": false,
      "t": 55581.36199999997,
      "d": 232.55799999999726,
      "v": 100
    },
    {
      "midi": 33,
      "hit": false,
      "t": 55581.361999999994,
      "d": 232.55799999999726,
      "v": 100
    },
    {
      "midi": 65,
      "hit": false,
      "t": 55581.36200000011,
      "d": 116.27900000000227,
      "v": 100
    },
    {
      "midi": 59,
      "hit": false,
      "t": 55581.36200000011,
      "d": 116.27900000000227,
      "v": 100
    },
    {
      "midi": 59,
      "hit": false,
      "t": 55697.64100000011,
      "d": 116.27900000000227,
      "v": 100
    },
    {
      "midi": 65,
      "hit": false,
      "t": 55697.64100000011,
      "d": 116.27900000000227,
      "v": 100
    },
    {
      "midi": 38,
      "hit": false,
      "t": 55813.91999999975,
      "d": 58.1394999999975,
      "v": 80
    },
    {
      "midi": 36,
      "hit": false,
      "t": 55813.91999999984,
      "d": 58.1394999999975,
      "v": 120
    },
    {
      "midi": 35,
      "hit": false,
      "t": 55813.91999999984,
      "d": 58.1394999999975,
      "v": 120
    },
    {
      "midi": 81,
      "hit": false,
      "t": 55813.919999999984,
      "d": 6046.508000000002,
      "v": 100
    },
    {
      "midi": 34,
      "hit": false,
      "t": 55813.91999999999,
      "d": 232.55799999999726,
      "v": 100
    },
    {
      "midi": 42,
      "hit": false,
      "t": 56046.47799999985,
      "d": 58.1394999999975,
      "v": 60
    },
    {
      "midi": 29,
      "hit": false,
      "t": 56046.47799999999,
      "d": 232.55799999999726,
      "v": 100
    },
    {
      "midi": 58,
      "hit": false,
      "t": 56046.47800000011,
      "d": 116.27900000000227,
      "v": 100
    },
    {
      "midi": 65,
      "hit": false,
      "t": 56046.47800000011,
      "d": 116.27900000000227,
      "v": 100
    },
    {
      "midi": 77,
      "hit": false,
      "t": 56162.75699999997,
      "d": 348.83699999999953,
      "v": 100
    },
    {
      "midi": 74,
      "hit": false,
      "t": 56162.75699999997,
      "d": 348.83699999999953,
      "v": 100
    },
    {
      "midi": 72,
      "hit": false,
      "t": 56162.75699999997,
      "d": 348.83699999999953,
      "v": 100
    },
    {
      "midi": 65,
      "hit": false,
      "t": 56162.757000000114,
      "d": 116.27900000000227,
      "v": 100
    },
    {
      "midi": 58,
      "hit": false,
      "t": 56162.757000000114,
      "d": 116.27900000000227,
      "v": 100
    },
    {
      "midi": 39,
      "hit": false,
      "t": 56279.035999999905,
      "d": 58.1394999999975,
      "v": 100
    },
    {
      "midi": 28,
      "hit": false,
      "t": 56279.035999999905,
      "d": 58.1394999999975,
      "v": 100
    },
    {
      "midi": 34,
      "hit": false,
      "t": 56279.035999999986,
      "d": 232.55799999999726,
      "v": 100
    },
    {
      "midi": 58,
      "hit": false,
      "t": 56395.31500000012,
      "d": 116.27900000000227,
      "v": 100
    },
    {
      "midi": 65,
      "hit": false,
      "t": 56395.31500000012,
      "d": 116.27900000000227,
      "v": 100
    },
    {
      "midi": 42,
      "hit": false,
      "t": 56511.593999999845,
      "d": 58.1394999999975,
      "v": 60
    },
    {
      "midi": 77,
      "hit": false,
      "t": 56511.59399999997,
      "d": 232.55799999999726,
      "v": 100
    },
    {
      "midi": 74,
      "hit": false,
      "t": 56511.59399999997,
      "d": 232.55799999999726,
      "v": 100
    },
    {
      "midi": 72,
      "hit": false,
      "t": 56511.59399999997,
      "d": 232.55799999999726,
      "v": 100
    },
    {
      "midi": 65,
      "hit": false,
      "t": 56511.59400000012,
      "d": 116.27900000000227,
      "v": 100
    },
    {
      "midi": 58,
      "hit": false,
      "t": 56511.59400000012,
      "d": 116.27900000000227,
      "v": 100
    },
    {
      "midi": 38,
      "hit": false,
      "t": 56627.872999999745,
      "d": 58.1394999999975,
      "v": 80
    },
    {
      "midi": 38,
      "hit": false,
      "t": 56744.15199999974,
      "d": 58.1394999999975,
      "v": 80
    },
    {
      "midi": 36,
      "hit": false,
      "t": 56744.151999999835,
      "d": 58.1394999999975,
      "v": 120
    },
    {
      "midi": 35,
      "hit": false,
      "t": 56744.151999999835,
      "d": 58.1394999999975,
      "v": 120
    },
    {
      "midi": 65,
      "hit": false,
      "t": 56744.151999999965,
      "d": 348.83699999999953,
      "v": 100
    },
    {
      "midi": 77,
      "hit": false,
      "t": 56744.151999999965,
      "d": 348.83699999999953,
      "v": 100
    },
    {
      "midi": 74,
      "hit": false,
      "t": 56744.151999999965,
      "d": 348.83699999999953,
      "v": 100
    },
    {
      "midi": 72,
      "hit": false,
      "t": 56744.151999999965,
      "d": 348.83699999999953,
      "v": 100
    },
    {
      "midi": 29,
      "hit": false,
      "t": 56744.15199999998,
      "d": 232.55799999999726,
      "v": 100
    },
    {
      "midi": 58,
      "hit": false,
      "t": 56744.152000000126,
      "d": 116.27900000000227,
      "v": 100
    },
    {
      "midi": 65,
      "hit": false,
      "t": 56744.152000000126,
      "d": 116.27900000000227,
      "v": 100
    },
    {
      "midi": 58,
      "hit": false,
      "t": 56860.43100000013,
      "d": 116.27900000000227,
      "v": 100
    },
    {
      "midi": 65,
      "hit": false,
      "t": 56860.43100000013,
      "d": 116.27900000000227,
      "v": 100
    },
    {
      "midi": 42,
      "hit": false,
      "t": 56976.70999999984,
      "d": 58.1394999999975,
      "v": 60
    },
    {
      "midi": 38,
      "hit": false,
      "t": 57092.98899999974,
      "d": 58.1394999999975,
      "v": 80
    },
    {
      "midi": 69,
      "hit": false,
      "t": 57092.988999999965,
      "d": 348.83699999999953,
      "v": 100
    },
    {
      "midi": 77,
      "hit": false,
      "t": 57092.988999999965,
      "d": 348.83699999999953,
      "v": 100
    },
    {
      "midi": 74,
      "hit": false,
      "t": 57092.988999999965,
      "d": 348.83699999999953,
      "v": 100
    },
    {
      "midi": 72,
      "hit": false,
      "t": 57092.988999999965,
      "d": 348.83699999999953,
      "v": 100
    },
    {
      "midi": 65,
      "hit": false,
      "t": 57092.98900000013,
      "d": 116.27900000000227,
      "v": 100
    },
    {
      "midi": 58,
      "hit": false,
      "t": 57092.98900000013,
      "d": 116.27900000000227,
      "v": 100
    },
    {
      "midi": 38,
      "hit": false,
      "t": 57209.267999999734,
      "d": 58.1394999999975,
      "v": 80
    },
    {
      "midi": 36,
      "hit": false,
      "t": 57209.26799999983,
      "d": 58.1394999999975,
      "v": 120
    },
    {
      "midi": 35,
      "hit": false,
      "t": 57209.26799999983,
      "d": 58.1394999999975,
      "v": 120
    },
    {
      "midi": 39,
      "hit": false,
      "t": 57209.2679999999,
      "d": 58.1394999999975,
      "v": 100
    },
    {
      "midi": 28,
      "hit": false,
      "t": 57209.2679999999,
      "d": 58.1394999999975,
      "v": 100
    },
    {
      "midi": 33,
      "hit": false,
      "t": 57209.267999999975,
      "d": 232.55799999999726,
      "v": 100
    },
    {
      "midi": 58,
      "hit": false,
      "t": 57209.268000000135,
      "d": 116.27900000000227,
      "v": 100
    },
    {
      "midi": 65,
      "hit": false,
      "t": 57209.268000000135,
      "d": 116.27900000000227,
      "v": 100
    },
    {
      "midi": 38,
      "hit": false,
      "t": 57441.82599999973,
      "d": 58.1394999999975,
      "v": 80
    },
    {
      "midi": 36,
      "hit": false,
      "t": 57441.825999999826,
      "d": 58.1394999999975,
      "v": 120
    },
    {
      "midi": 35,
      "hit": false,
      "t": 57441.825999999826,
      "d": 58.1394999999975,
      "v": 120
    },
    {
      "midi": 67,
      "hit": false,
      "t": 57441.825999999965,
      "d": 1162.7900000000009,
      "v": 100
    },
    {
      "midi": 77,
      "hit": false,
      "t": 57441.825999999965,
      "d": 232.55799999999726,
      "v": 100
    },
    {
      "midi": 74,
      "hit": false,
      "t": 57441.825999999965,
      "d": 232.55799999999726,
      "v": 100
    },
    {
      "midi": 72,
      "hit": false,
      "t": 57441.825999999965,
      "d": 232.55799999999726,
      "v": 100
    },
    {
      "midi": 34,
      "hit": false,
      "t": 57441.82599999997,
      "d": 232.55799999999726,
      "v": 100
    },
    {
      "midi": 65,
      "hit": false,
      "t": 57441.82600000014,
      "d": 116.27900000000227,
      "v": 100
    },
    {
      "midi": 58,
      "hit": false,
      "t": 57441.82600000014,
      "d": 116.27900000000227,
      "v": 100
    },
    {
      "midi": 58,
      "hit": false,
      "t": 57558.10500000014,
      "d": 116.27900000000227,
      "v": 100
    },
    {
      "midi": 65,
      "hit": false,
      "t": 57558.10500000014,
      "d": 116.27900000000227,
      "v": 100
    },
    {
      "midi": 38,
      "hit": false,
      "t": 57674.38399999973,
      "d": 58.1394999999975,
      "v": 80
    },
    {
      "midi": 36,
      "hit": false,
      "t": 57674.38399999982,
      "d": 58.1394999999975,
      "v": 120
    },
    {
      "midi": 35,
      "hit": false,
      "t": 57674.38399999982,
      "d": 58.1394999999975,
      "v": 120
    },
    {
      "midi": 36,
      "hit": false,
      "t": 57674.38399999997,
      "d": 232.55799999999726,
      "v": 100
    },
    {
      "midi": 42,
      "hit": false,
      "t": 57906.941999999835,
      "d": 58.1394999999975,
      "v": 60
    },
    {
      "midi": 31,
      "hit": false,
      "t": 57906.941999999966,
      "d": 232.55799999999726,
      "v": 100
    },
    {
      "midi": 60,
      "hit": false,
      "t": 57906.94200000014,
      "d": 116.27900000000227,
      "v": 100
    },
    {
      "midi": 65,
      "hit": false,
      "t": 57906.94200000014,
      "d": 116.27900000000227,
      "v": 100
    },
    {
      "midi": 77,
      "hit": false,
      "t": 58023.22099999996,
      "d": 348.83699999999953,
      "v": 100
    },
    {
      "midi": 74,
      "hit": false,
      "t": 58023.22099999996,
      "d": 348.83699999999953,
      "v": 100
    },
    {
      "midi": 79,
      "hit": false,
      "t": 58023.22099999996,
      "d": 348.83699999999953,
      "v": 100
    },
    {
      "midi": 65,
      "hit": false,
      "t": 58023.22100000014,
      "d": 116.27900000000227,
      "v": 100
    },
    {
      "midi": 60,
      "hit": false,
      "t": 58023.22100000014,
      "d": 116.27900000000227,
      "v": 100
    },
    {
      "midi": 39,
      "hit": false,
      "t": 58139.4999999999,
      "d": 58.1394999999975,
      "v": 100
    },
    {
      "midi": 28,
      "hit": false,
      "t": 58139.4999999999,
      "d": 58.1394999999975,
      "v": 100
    },
    {
      "midi": 36,
      "hit": false,
      "t": 58139.49999999996,
      "d": 232.55799999999726,
      "v": 100
    },
    {
      "midi": 60,
      "hit": false,
      "t": 58255.77900000015,
      "d": 116.27900000000227,
      "v": 100
    },
    {
      "midi": 65,
      "hit": false,
      "t": 58255.77900000015,
      "d": 116.27900000000227,
      "v": 100
    },
    {
      "midi": 42,
      "hit": false,
      "t": 58372.05799999983,
      "d": 58.1394999999975,
      "v": 60
    },
    {
      "midi": 77,
      "hit": false,
      "t": 58372.05799999996,
      "d": 232.55799999999726,
      "v": 100
    },
    {
      "midi": 74,
      "hit": false,
      "t": 58372.05799999996,
      "d": 232.55799999999726,
      "v": 100
    },
    {
      "midi": 79,
      "hit": false,
      "t": 58372.05799999996,
      "d": 232.55799999999726,
      "v": 100
    },
    {
      "midi": 65,
      "hit": false,
      "t": 58372.05800000015,
      "d": 116.27900000000227,
      "v": 100
    },
    {
      "midi": 60,
      "hit": false,
      "t": 58372.05800000015,
      "d": 116.27900000000227,
      "v": 100
    },
    {
      "midi": 38,
      "hit": false,
      "t": 58488.33699999972,
      "d": 58.1394999999975,
      "v": 80
    },
    {
      "midi": 38,
      "hit": false,
      "t": 58604.61599999972,
      "d": 58.1394999999975,
      "v": 80
    },
    {
      "midi": 36,
      "hit": false,
      "t": 58604.61599999982,
      "d": 58.1394999999975,
      "v": 120
    },
    {
      "midi": 35,
      "hit": false,
      "t": 58604.61599999982,
      "d": 58.1394999999975,
      "v": 120
    },
    {
      "midi": 74,
      "hit": false,
      "t": 58604.61599999996,
      "d": 348.83699999999953,
      "v": 100
    },
    {
      "midi": 77,
      "hit": false,
      "t": 58604.61599999996,
      "d": 348.83699999999953,
      "v": 100
    },
    {
      "midi": 79,
      "hit": false,
      "t": 58604.61599999996,
      "d": 348.83699999999953,
      "v": 100
    },
    {
      "midi": 36,
      "hit": false,
      "t": 58604.61599999996,
      "d": 232.55799999999726,
      "v": 100
    },
    {
      "midi": 67,
      "hit": false,
      "t": 58604.615999999965,
      "d": 348.83699999999953,
      "v": 100
    },
    {
      "midi": 60,
      "hit": false,
      "t": 58604.616000000155,
      "d": 116.27900000000227,
      "v": 100
    },
    {
      "midi": 65,
      "hit": false,
      "t": 58604.616000000155,
      "d": 116.27900000000227,
      "v": 100
    },
    {
      "midi": 60,
      "hit": false,
      "t": 58720.89500000016,
      "d": 116.27900000000227,
      "v": 100
    },
    {
      "midi": 65,
      "hit": false,
      "t": 58720.89500000016,
      "d": 116.27900000000227,
      "v": 100
    },
    {
      "midi": 42,
      "hit": false,
      "t": 58837.173999999824,
      "d": 58.1394999999975,
      "v": 60
    },
    {
      "midi": 38,
      "hit": false,
      "t": 58953.45299999972,
      "d": 58.1394999999975,
      "v": 80
    },
    {
      "midi": 77,
      "hit": false,
      "t": 58953.45299999996,
      "d": 348.83699999999953,
      "v": 100
    },
    {
      "midi": 74,
      "hit": false,
      "t": 58953.45299999996,
      "d": 348.83699999999953,
      "v": 100
    },
    {
      "midi": 79,
      "hit": false,
      "t": 58953.45299999996,
      "d": 348.83699999999953,
      "v": 100
    },
    {
      "midi": 72,
      "hit": false,
      "t": 58953.452999999965,
      "d": 348.83699999999953,
      "v": 100
    },
    {
      "midi": 65,
      "hit": false,
      "t": 58953.45300000016,
      "d": 116.27900000000227,
      "v": 100
    },
    {
      "midi": 60,
      "hit": false,
      "t": 58953.45300000016,
      "d": 116.27900000000227,
      "v": 100
    },
    {
      "midi": 38,
      "hit": false,
      "t": 59069.73199999971,
      "d": 58.1394999999975,
      "v": 80
    },
    {
      "midi": 36,
      "hit": false,
      "t": 59069.731999999814,
      "d": 58.1394999999975,
      "v": 120
    },
    {
      "midi": 35,
      "hit": false,
      "t": 59069.731999999814,
      "d": 58.1394999999975,
      "v": 120
    },
    {
      "midi": 39,
      "hit": false,
      "t": 59069.731999999894,
      "d": 58.1394999999975,
      "v": 100
    },
    {
      "midi": 28,
      "hit": false,
      "t": 59069.731999999894,
      "d": 58.1394999999975,
      "v": 100
    },
    {
      "midi": 36,
      "hit": false,
      "t": 59069.73199999995,
      "d": 232.55799999999726,
      "v": 100
    },
    {
      "midi": 60,
      "hit": false,
      "t": 59069.732000000164,
      "d": 116.27900000000227,
      "v": 100
    },
    {
      "midi": 65,
      "hit": false,
      "t": 59069.732000000164,
      "d": 116.27900000000227,
      "v": 100
    },
    {
      "midi": 38,
      "hit": false,
      "t": 59302.28999999971,
      "d": 58.1394999999975,
      "v": 80
    },
    {
      "midi": 36,
      "hit": false,
      "t": 59302.28999999981,
      "d": 58.1394999999975,
      "v": 120
    },
    {
      "midi": 35,
      "hit": false,
      "t": 59302.28999999981,
      "d": 58.1394999999975,
      "v": 120
    },
    {
      "midi": 36,
      "hit": false,
      "t": 59302.28999999995,
      "d": 232.55799999999726,
      "v": 100
    },
    {
      "midi": 77,
      "hit": false,
      "t": 59302.28999999996,
      "d": 232.55799999999726,
      "v": 100
    },
    {
      "midi": 74,
      "hit": false,
      "t": 59302.28999999996,
      "d": 232.55799999999726,
      "v": 100
    },
    {
      "midi": 79,
      "hit": false,
      "t": 59302.28999999996,
      "d": 232.55799999999726,
      "v": 100
    },
    {
      "midi": 69,
      "hit": false,
      "t": 59302.289999999964,
      "d": 232.55799999999726,
      "v": 100
    },
    {
      "midi": 65,
      "hit": false,
      "t": 59302.29000000017,
      "d": 116.27900000000227,
      "v": 100
    },
    {
      "midi": 60,
      "hit": false,
      "t": 59302.29000000017,
      "d": 116.27900000000227,
      "v": 100
    },
    {
      "midi": 60,
      "hit": false,
      "t": 59418.56900000017,
      "d": 116.27900000000227,
      "v": 100
    },
    {
      "midi": 65,
      "hit": false,
      "t": 59418.56900000017,
      "d": 116.27900000000227,
      "v": 100
    },
    {
      "midi": 38,
      "hit": false,
      "t": 59534.84799999971,
      "d": 58.1394999999975,
      "v": 80
    },
    {
      "midi": 36,
      "hit": false,
      "t": 59534.84799999981,
      "d": 58.1394999999975,
      "v": 120
    },
    {
      "midi": 35,
      "hit": false,
      "t": 59534.84799999981,
      "d": 58.1394999999975,
      "v": 120
    },
    {
      "midi": 41,
      "hit": false,
      "t": 59534.84799999995,
      "d": 232.55799999999726,
      "v": 100
    },
    {
      "midi": 67,
      "hit": false,
      "t": 59534.84799999996,
      "d": 232.55799999999726,
      "v": 100
    },
    {
      "midi": 42,
      "hit": false,
      "t": 59767.40599999982,
      "d": 58.1394999999975,
      "v": 60
    },
    {
      "midi": 36,
      "hit": false,
      "t": 59767.405999999944,
      "d": 232.55799999999726,
      "v": 100
    },
    {
      "midi": 69,
      "hit": false,
      "t": 59767.40599999996,
      "d": 1627.9060000000027,
      "v": 100
    },
    {
      "midi": 60,
      "hit": false,
      "t": 59767.40600000017,
      "d": 116.27900000000227,
      "v": 100
    },
    {
      "midi": 65,
      "hit": false,
      "t": 59767.40600000017,
      "d": 116.27900000000227,
      "v": 100
    },
    {
      "midi": 77,
      "hit": false,
      "t": 59883.684999999954,
      "d": 348.83699999999953,
      "v": 100
    },
    {
      "midi": 74,
      "hit": false,
      "t": 59883.684999999954,
      "d": 348.83699999999953,
      "v": 100
    },
    {
      "midi": 72,
      "hit": false,
      "t": 59883.684999999954,
      "d": 348.83699999999953,
      "v": 100
    },
    {
      "midi": 65,
      "hit": false,
      "t": 59883.68500000017,
      "d": 116.27900000000227,
      "v": 100
    },
    {
      "midi": 60,
      "hit": false,
      "t": 59883.68500000017,
      "d": 116.27900000000227,
      "v": 100
    },
    {
      "midi": 39,
      "hit": false,
      "t": 59999.96399999989,
      "d": 58.1394999999975,
      "v": 100
    },
    {
      "midi": 28,
      "hit": false,
      "t": 59999.96399999989,
      "d": 58.1394999999975,
      "v": 100
    },
    {
      "midi": 41,
      "hit": false,
      "t": 59999.96399999994,
      "d": 232.55799999999726,
      "v": 100
    },
    {
      "midi": 60,
      "hit": false,
      "t": 60116.24300000018,
      "d": 116.27900000000227,
      "v": 100
    },
    {
      "midi": 65,
      "hit": false,
      "t": 60116.24300000018,
      "d": 116.27900000000227,
      "v": 100
    },
    {
      "midi": 42,
      "hit": false,
      "t": 60232.521999999815,
      "d": 58.1394999999975,
      "v": 60
    },
    {
      "midi": 77,
      "hit": false,
      "t": 60232.52199999995,
      "d": 232.55799999999726,
      "v": 100
    },
    {
      "midi": 74,
      "hit": false,
      "t": 60232.52199999995,
      "d": 232.55799999999726,
      "v": 100
    },
    {
      "midi": 72,
      "hit": false,
      "t": 60232.52199999995,
      "d": 232.55799999999726,
      "v": 100
    },
    {
      "midi": 65,
      "hit": false,
      "t": 60232.52200000018,
      "d": 116.27900000000227,
      "v": 100
    },
    {
      "midi": 60,
      "hit": false,
      "t": 60232.52200000018,
      "d": 116.27900000000227,
      "v": 100
    },
    {
      "midi": 38,
      "hit": false,
      "t": 60348.8009999997,
      "d": 58.1394999999975,
      "v": 80
    },
    {
      "midi": 38,
      "hit": false,
      "t": 60465.079999999696,
      "d": 58.1394999999975,
      "v": 80
    },
    {
      "midi": 36,
      "hit": false,
      "t": 60465.079999999805,
      "d": 58.1394999999975,
      "v": 120
    },
    {
      "midi": 35,
      "hit": false,
      "t": 60465.079999999805,
      "d": 58.1394999999975,
      "v": 120
    },
    {
      "midi": 36,
      "hit": false,
      "t": 60465.079999999936,
      "d": 232.55799999999726,
      "v": 100
    },
    {
      "midi": 77,
      "hit": false,
      "t": 60465.07999999995,
      "d": 348.83699999999953,
      "v": 100
    },
    {
      "midi": 74,
      "hit": false,
      "t": 60465.07999999995,
      "d": 348.83699999999953,
      "v": 100
    },
    {
      "midi": 72,
      "hit": false,
      "t": 60465.07999999995,
      "d": 348.83699999999953,
      "v": 100
    },
    {
      "midi": 60,
      "hit": false,
      "t": 60465.080000000184,
      "d": 116.27900000000227,
      "v": 100
    },
    {
      "midi": 65,
      "hit": false,
      "t": 60465.080000000184,
      "d": 116.27900000000227,
      "v": 100
    },
    {
      "midi": 60,
      "hit": false,
      "t": 60581.359000000186,
      "d": 116.27900000000227,
      "v": 100
    },
    {
      "midi": 65,
      "hit": false,
      "t": 60581.359000000186,
      "d": 116.27900000000227,
      "v": 100
    },
    {
      "midi": 42,
      "hit": false,
      "t": 60697.63799999981,
      "d": 58.1394999999975,
      "v": 60
    },
    {
      "midi": 38,
      "hit": false,
      "t": 60813.916999999696,
      "d": 58.1394999999975,
      "v": 80
    },
    {
      "midi": 77,
      "hit": false,
      "t": 60813.91699999995,
      "d": 348.83699999999953,
      "v": 100
    },
    {
      "midi": 74,
      "hit": false,
      "t": 60813.91699999995,
      "d": 348.83699999999953,
      "v": 100
    },
    {
      "midi": 72,
      "hit": false,
      "t": 60813.91699999995,
      "d": 348.83699999999953,
      "v": 100
    },
    {
      "midi": 65,
      "hit": false,
      "t": 60813.91700000019,
      "d": 116.27900000000227,
      "v": 100
    },
    {
      "midi": 60,
      "hit": false,
      "t": 60813.91700000019,
      "d": 116.27900000000227,
      "v": 100
    },
    {
      "midi": 38,
      "hit": false,
      "t": 60930.19599999969,
      "d": 58.1394999999975,
      "v": 80
    },
    {
      "midi": 36,
      "hit": false,
      "t": 60930.1959999998,
      "d": 58.1394999999975,
      "v": 120
    },
    {
      "midi": 35,
      "hit": false,
      "t": 60930.1959999998,
      "d": 58.1394999999975,
      "v": 120
    },
    {
      "midi": 39,
      "hit": false,
      "t": 60930.19599999989,
      "d": 58.1394999999975,
      "v": 100
    },
    {
      "midi": 28,
      "hit": false,
      "t": 60930.19599999989,
      "d": 58.1394999999975,
      "v": 100
    },
    {
      "midi": 29,
      "hit": false,
      "t": 60930.19599999993,
      "d": 232.55799999999726,
      "v": 100
    },
    {
      "midi": 60,
      "hit": false,
      "t": 60930.19600000019,
      "d": 116.27900000000227,
      "v": 100
    },
    {
      "midi": 65,
      "hit": false,
      "t": 60930.19600000019,
      "d": 116.27900000000227,
      "v": 100
    },
    {
      "midi": 38,
      "hit": false,
      "t": 61162.75399999969,
      "d": 58.1394999999975,
      "v": 80
    },
    {
      "midi": 36,
      "hit": false,
      "t": 61162.7539999998,
      "d": 58.1394999999975,
      "v": 120
    },
    {
      "midi": 35,
      "hit": false,
      "t": 61162.7539999998,
      "d": 58.1394999999975,
      "v": 120
    },
    {
      "midi": 31,
      "hit": false,
      "t": 61162.75399999993,
      "d": 232.55799999999726,
      "v": 100
    },
    {
      "midi": 77,
      "hit": false,
      "t": 61162.75399999995,
      "d": 232.55799999999726,
      "v": 100
    },
    {
      "midi": 74,
      "hit": false,
      "t": 61162.75399999995,
      "d": 232.55799999999726,
      "v": 100
    },
    {
      "midi": 72,
      "hit": false,
      "t": 61162.75399999995,
      "d": 232.55799999999726,
      "v": 100
    },
    {
      "midi": 65,
      "hit": false,
      "t": 61162.7540000002,
      "d": 116.27900000000227,
      "v": 100
    },
    {
      "midi": 60,
      "hit": false,
      "t": 61162.7540000002,
      "d": 116.27900000000227,
      "v": 100
    },
    {
      "midi": 60,
      "hit": false,
      "t": 61279.0330000002,
      "d": 116.27900000000227,
      "v": 100
    },
    {
      "midi": 65,
      "hit": false,
      "t": 61279.0330000002,
      "d": 116.27900000000227,
      "v": 100
    },
    {
      "midi": 38,
      "hit": false,
      "t": 61395.311999999685,
      "d": 58.1394999999975,
      "v": 80
    },
    {
      "midi": 36,
      "hit": false,
      "t": 61395.311999999794,
      "d": 58.1394999999975,
      "v": 120
    },
    {
      "midi": 35,
      "hit": false,
      "t": 61395.311999999794,
      "d": 58.1394999999975,
      "v": 120
    },
    {
      "midi": 33,
      "hit": false,
      "t": 61395.311999999925,
      "d": 232.55799999999726,
      "v": 100
    },
    {
      "midi": 42,
      "hit": false,
      "t": 61627.869999999806,
      "d": 58.1394999999975,
      "v": 60
    },
    {
      "midi": 61,
      "hit": false,
      "t": 61627.8700000002,
      "d": 116.27900000000227,
      "v": 100
    },
    {
      "midi": 65,
      "hit": false,
      "t": 61627.8700000002,
      "d": 116.27900000000227,
      "v": 100
    },
    {
      "midi": 73,
      "hit": false,
      "t": 61744.14899999995,
      "d": 348.83699999999953,
      "v": 100
    },
    {
      "midi": 77,
      "hit": false,
      "t": 61744.14899999995,
      "d": 348.83699999999953,
      "v": 100
    },
    {
      "midi": 74,
      "hit": false,
      "t": 61744.14899999995,
      "d": 348.83699999999953,
      "v": 100
    },
    {
      "midi": 65,
      "hit": false,
      "t": 61744.1490000002,
      "d": 116.27900000000227,
      "v": 100
    },
    {
      "midi": 61,
      "hit": false,
      "t": 61744.1490000002,
      "d": 116.27900000000227,
      "v": 100
    },
    {
      "midi": 39,
      "hit": false,
      "t": 61860.42799999988,
      "d": 58.1394999999975,
      "v": 100
    },
    {
      "midi": 28,
      "hit": false,
      "t": 61860.42799999988,
      "d": 58.1394999999975,
      "v": 100
    },
    {
      "midi": 31,
      "hit": false,
      "t": 61860.42799999992,
      "d": 232.55799999999726,
      "v": 100
    },
    {
      "midi": 86,
      "hit": false,
      "t": 61860.427999999985,
      "d": 465.1160000000018,
      "v": 100
    },
    {
      "midi": 61,
      "hit": false,
      "t": 61976.707000000206,
      "d": 116.27900000000227,
      "v": 100
    },
    {
      "midi": 65,
      "hit": false,
      "t": 61976.707000000206,
      "d": 116.27900000000227,
      "v": 100
    },
    {
      "midi": 42,
      "hit": false,
      "t": 62092.9859999998,
      "d": 58.1394999999975,
      "v": 60
    },
    {
      "midi": 77,
      "hit": false,
      "t": 62092.985999999946,
      "d": 232.55799999999726,
      "v": 100
    },
    {
      "midi": 73,
      "hit": false,
      "t": 62092.985999999946,
      "d": 232.55799999999726,
      "v": 100
    },
    {
      "midi": 74,
      "hit": false,
      "t": 62092.985999999946,
      "d": 232.55799999999726,
      "v": 100
    },
    {
      "midi": 65,
      "hit": false,
      "t": 62092.98600000021,
      "d": 116.27900000000227,
      "v": 100
    },
    {
      "midi": 61,
      "hit": false,
      "t": 62092.98600000021,
      "d": 116.27900000000227,
      "v": 100
    },
    {
      "midi": 38,
      "hit": false,
      "t": 62209.26499999968,
      "d": 58.1394999999975,
      "v": 80
    },
    {
      "midi": 38,
      "hit": false,
      "t": 62325.543999999674,
      "d": 58.1394999999975,
      "v": 80
    },
    {
      "midi": 36,
      "hit": false,
      "t": 62325.54399999979,
      "d": 58.1394999999975,
      "v": 120
    },
    {
      "midi": 35,
      "hit": false,
      "t": 62325.54399999979,
      "d": 58.1394999999975,
      "v": 120
    },
    {
      "midi": 33,
      "hit": false,
      "t": 62325.543999999914,
      "d": 232.55799999999726,
      "v": 100
    },
    {
      "midi": 74,
      "hit": false,
      "t": 62325.54399999994,
      "d": 348.83699999999953,
      "v": 100
    },
    {
      "midi": 73,
      "hit": false,
      "t": 62325.54399999994,
      "d": 348.83699999999953,
      "v": 100
    },
    {
      "midi": 77,
      "hit": false,
      "t": 62325.54399999994,
      "d": 348.83699999999953,
      "v": 100
    },
    {
      "midi": 81,
      "hit": false,
      "t": 62325.54399999999,
      "d": 465.1160000000018,
      "v": 100
    },
    {
      "midi": 61,
      "hit": false,
      "t": 62325.54400000021,
      "d": 116.27900000000227,
      "v": 100
    },
    {
      "midi": 65,
      "hit": false,
      "t": 62325.54400000021,
      "d": 116.27900000000227,
      "v": 100
    },
    {
      "midi": 61,
      "hit": false,
      "t": 62441.823000000215,
      "d": 116.27900000000227,
      "v": 100
    },
    {
      "midi": 65,
      "hit": false,
      "t": 62441.823000000215,
      "d": 116.27900000000227,
      "v": 100
    },
    {
      "midi": 42,
      "hit": false,
      "t": 62558.101999999795,
      "d": 58.1394999999975,
      "v": 60
    },
    {
      "midi": 38,
      "hit": false,
      "t": 62674.380999999674,
      "d": 58.1394999999975,
      "v": 80
    },
    {
      "midi": 73,
      "hit": false,
      "t": 62674.38099999994,
      "d": 348.83699999999953,
      "v": 100
    },
    {
      "midi": 77,
      "hit": false,
      "t": 62674.38099999994,
      "d": 348.83699999999953,
      "v": 100
    },
    {
      "midi": 74,
      "hit": false,
      "t": 62674.38099999994,
      "d": 348.83699999999953,
      "v": 100
    },
    {
      "midi": 65,
      "hit": false,
      "t": 62674.38100000022,
      "d": 116.27900000000227,
      "v": 100
    },
    {
      "midi": 61,
      "hit": false,
      "t": 62674.38100000022,
      "d": 116.27900000000227,
      "v": 100
    },
    {
      "midi": 38,
      "hit": false,
      "t": 62790.65999999967,
      "d": 58.1394999999975,
      "v": 80
    },
    {
      "midi": 36,
      "hit": false,
      "t": 62790.659999999785,
      "d": 58.1394999999975,
      "v": 120
    },
    {
      "midi": 35,
      "hit": false,
      "t": 62790.659999999785,
      "d": 58.1394999999975,
      "v": 120
    },
    {
      "midi": 39,
      "hit": false,
      "t": 62790.65999999988,
      "d": 58.1394999999975,
      "v": 100
    },
    {
      "midi": 28,
      "hit": false,
      "t": 62790.65999999988,
      "d": 58.1394999999975,
      "v": 100
    },
    {
      "midi": 31,
      "hit": false,
      "t": 62790.65999999991,
      "d": 232.55799999999726,
      "v": 100
    },
    {
      "midi": 79,
      "hit": false,
      "t": 62790.65999999999,
      "d": 465.1160000000018,
      "v": 100
    },
    {
      "midi": 61,
      "hit": false,
      "t": 62790.66000000022,
      "d": 116.27900000000227,
      "v": 100
    },
    {
      "midi": 65,
      "hit": false,
      "t": 62790.66000000022,
      "d": 116.27900000000227,
      "v": 100
    },
    {
      "midi": 38,
      "hit": false,
      "t": 63023.217999999666,
      "d": 58.1394999999975,
      "v": 80
    },
    {
      "midi": 36,
      "hit": false,
      "t": 63023.21799999978,
      "d": 58.1394999999975,
      "v": 120
    },
    {
      "midi": 35,
      "hit": false,
      "t": 63023.21799999978,
      "d": 58.1394999999975,
      "v": 120
    },
    {
      "midi": 33,
      "hit": false,
      "t": 63023.217999999906,
      "d": 232.55799999999726,
      "v": 100
    },
    {
      "midi": 73,
      "hit": false,
      "t": 63023.21799999994,
      "d": 232.55799999999726,
      "v": 100
    },
    {
      "midi": 77,
      "hit": false,
      "t": 63023.21799999994,
      "d": 232.55799999999726,
      "v": 100
    },
    {
      "midi": 74,
      "hit": false,
      "t": 63023.21799999994,
      "d": 232.55799999999726,
      "v": 100
    },
    {
      "midi": 65,
      "hit": false,
      "t": 63023.218000000226,
      "d": 116.27900000000227,
      "v": 100
    },
    {
      "midi": 61,
      "hit": false,
      "t": 63023.218000000226,
      "d": 116.27900000000227,
      "v": 100
    },
    {
      "midi": 61,
      "hit": false,
      "t": 63139.49700000023,
      "d": 116.27900000000227,
      "v": 100
    },
    {
      "midi": 65,
      "hit": false,
      "t": 63139.49700000023,
      "d": 116.27900000000227,
      "v": 100
    },
    {
      "midi": 38,
      "hit": false,
      "t": 63255.77599999966,
      "d": 58.1394999999975,
      "v": 80
    },
    {
      "midi": 36,
      "hit": false,
      "t": 63255.77599999978,
      "d": 58.1394999999975,
      "v": 120
    },
    {
      "midi": 35,
      "hit": false,
      "t": 63255.77599999978,
      "d": 58.1394999999975,
      "v": 120
    },
    {
      "midi": 38,
      "hit": false,
      "t": 63255.7759999999,
      "d": 232.55799999999726,
      "v": 100
    },
    {
      "midi": 81,
      "hit": false,
      "t": 63255.77599999999,
      "d": 6511.624000000003,
      "v": 100
    },
    {
      "midi": 42,
      "hit": false,
      "t": 63488.33399999979,
      "d": 58.1394999999975,
      "v": 60
    },
    {
      "midi": 33,
      "hit": false,
      "t": 63488.3339999999,
      "d": 232.55799999999726,
      "v": 100
    },
    {
      "midi": 65,
      "hit": false,
      "t": 63488.33400000023,
      "d": 116.27900000000227,
      "v": 100
    },
    {
      "midi": 62,
      "hit": false,
      "t": 63488.33400000023,
      "d": 116.27900000000227,
      "v": 100
    },
    {
      "midi": 77,
      "hit": false,
      "t": 63604.61299999994,
      "d": 348.83699999999953,
      "v": 100
    },
    {
      "midi": 74,
      "hit": false,
      "t": 63604.61299999994,
      "d": 348.83699999999953,
      "v": 100
    },
    {
      "midi": 72,
      "hit": false,
      "t": 63604.61299999994,
      "d": 348.83699999999953,
      "v": 100
    },
    {
      "midi": 65,
      "hit": false,
      "t": 63604.61300000023,
      "d": 116.27900000000227,
      "v": 100
    },
    {
      "midi": 62,
      "hit": false,
      "t": 63604.61300000023,
      "d": 116.27900000000227,
      "v": 100
    },
    {
      "midi": 39,
      "hit": false,
      "t": 63720.891999999876,
      "d": 58.1394999999975,
      "v": 100
    },
    {
      "midi": 28,
      "hit": false,
      "t": 63720.891999999876,
      "d": 58.1394999999975,
      "v": 100
    },
    {
      "midi": 38,
      "hit": false,
      "t": 63720.8919999999,
      "d": 232.55799999999726,
      "v": 100
    },
    {
      "midi": 62,
      "hit": false,
      "t": 63720.89199999996,
      "d": 465.1160000000018,
      "v": 100
    },
    {
      "midi": 67,
      "hit": false,
      "t": 63720.89199999996,
      "d": 465.1160000000018,
      "v": 80
    },
    {
      "midi": 65,
      "hit": false,
      "t": 63837.171000000235,
      "d": 116.27900000000227,
      "v": 100
    },
    {
      "midi": 62,
      "hit": false,
      "t": 63837.171000000235,
      "d": 116.27900000000227,
      "v": 100
    },
    {
      "midi": 42,
      "hit": false,
      "t": 63953.449999999786,
      "d": 58.1394999999975,
      "v": 60
    },
    {
      "midi": 77,
      "hit": false,
      "t": 63953.44999999994,
      "d": 232.55799999999726,
      "v": 100
    },
    {
      "midi": 74,
      "hit": false,
      "t": 63953.44999999994,
      "d": 232.55799999999726,
      "v": 100
    },
    {
      "midi": 72,
      "hit": false,
      "t": 63953.44999999994,
      "d": 232.55799999999726,
      "v": 100
    },
    {
      "midi": 65,
      "hit": false,
      "t": 63953.45000000024,
      "d": 116.27900000000227,
      "v": 100
    },
    {
      "midi": 62,
      "hit": false,
      "t": 63953.45000000024,
      "d": 116.27900000000227,
      "v": 100
    },
    {
      "midi": 38,
      "hit": false,
      "t": 64069.72899999966,
      "d": 58.1394999999975,
      "v": 80
    },
    {
      "midi": 38,
      "hit": false,
      "t": 64186.00799999965,
      "d": 58.1394999999975,
      "v": 80
    },
    {
      "midi": 36,
      "hit": false,
      "t": 64186.007999999776,
      "d": 58.1394999999975,
      "v": 120
    },
    {
      "midi": 35,
      "hit": false,
      "t": 64186.007999999776,
      "d": 58.1394999999975,
      "v": 120
    },
    {
      "midi": 33,
      "hit": false,
      "t": 64186.00799999989,
      "d": 232.55799999999726,
      "v": 100
    },
    {
      "midi": 77,
      "hit": false,
      "t": 64186.007999999936,
      "d": 348.83699999999953,
      "v": 100
    },
    {
      "midi": 74,
      "hit": false,
      "t": 64186.007999999936,
      "d": 348.83699999999953,
      "v": 100
    },
    {
      "midi": 72,
      "hit": false,
      "t": 64186.007999999936,
      "d": 348.83699999999953,
      "v": 100
    },
    {
      "midi": 57,
      "hit": false,
      "t": 64186.007999999965,
      "d": 465.1160000000018,
      "v": 100
    },
    {
      "midi": 65,
      "hit": false,
      "t": 64186.007999999965,
      "d": 465.1160000000018,
      "v": 80
    },
    {
      "midi": 65,
      "hit": false,
      "t": 64186.00800000024,
      "d": 116.27900000000227,
      "v": 100
    },
    {
      "midi": 62,
      "hit": false,
      "t": 64186.00800000024,
      "d": 116.27900000000227,
      "v": 100
    },
    {
      "midi": 65,
      "hit": false,
      "t": 64302.287000000244,
      "d": 116.27900000000227,
      "v": 100
    },
    {
      "midi": 62,
      "hit": false,
      "t": 64302.287000000244,
      "d": 116.27900000000227,
      "v": 100
    },
    {
      "midi": 42,
      "hit": false,
      "t": 64418.56599999978,
      "d": 58.1394999999975,
      "v": 60
    },
    {
      "midi": 38,
      "hit": false,
      "t": 64534.84499999965,
      "d": 58.1394999999975,
      "v": 80
    },
    {
      "midi": 77,
      "hit": false,
      "t": 64534.844999999936,
      "d": 348.83699999999953,
      "v": 100
    },
    {
      "midi": 74,
      "hit": false,
      "t": 64534.844999999936,
      "d": 348.83699999999953,
      "v": 100
    },
    {
      "midi": 72,
      "hit": false,
      "t": 64534.844999999936,
      "d": 348.83699999999953,
      "v": 100
    },
    {
      "midi": 65,
      "hit": false,
      "t": 64534.84500000025,
      "d": 116.27900000000227,
      "v": 100
    },
    {
      "midi": 62,
      "hit": false,
      "t": 64534.84500000025,
      "d": 116.27900000000227,
      "v": 100
    },
    {
      "midi": 38,
      "hit": false,
      "t": 64651.12399999965,
      "d": 58.1394999999975,
      "v": 80
    },
    {
      "midi": 36,
      "hit": false,
      "t": 64651.12399999977,
      "d": 58.1394999999975,
      "v": 120
    },
    {
      "midi": 35,
      "hit": false,
      "t": 64651.12399999977,
      "d": 58.1394999999975,
      "v": 120
    },
    {
      "midi": 39,
      "hit": false,
      "t": 64651.12399999987,
      "d": 58.1394999999975,
      "v": 100
    },
    {
      "midi": 28,
      "hit": false,
      "t": 64651.12399999987,
      "d": 58.1394999999975,
      "v": 100
    },
    {
      "midi": 38,
      "hit": false,
      "t": 64651.12399999989,
      "d": 232.55799999999726,
      "v": 100
    },
    {
      "midi": 65,
      "hit": false,
      "t": 64651.12399999997,
      "d": 465.1160000000018,
      "v": 100
    },
    {
      "midi": 69,
      "hit": false,
      "t": 64651.12399999997,
      "d": 465.1160000000018,
      "v": 80
    },
    {
      "midi": 65,
      "hit": false,
      "t": 64651.12400000025,
      "d": 116.27900000000227,
      "v": 100
    },
    {
      "midi": 62,
      "hit": false,
      "t": 64651.12400000025,
      "d": 116.27900000000227,
      "v": 100
    },
    {
      "midi": 38,
      "hit": false,
      "t": 64883.681999999644,
      "d": 58.1394999999975,
      "v": 80
    },
    {
      "midi": 36,
      "hit": false,
      "t": 64883.68199999977,
      "d": 58.1394999999975,
      "v": 120
    },
    {
      "midi": 35,
      "hit": false,
      "t": 64883.68199999977,
      "d": 58.1394999999975,
      "v": 120
    },
    {
      "midi": 38,
      "hit": false,
      "t": 64883.681999999884,
      "d": 232.55799999999726,
      "v": 100
    },
    {
      "midi": 77,
      "hit": false,
      "t": 64883.681999999935,
      "d": 232.55799999999726,
      "v": 100
    },
    {
      "midi": 74,
      "hit": false,
      "t": 64883.681999999935,
      "d": 232.55799999999726,
      "v": 100
    },
    {
      "midi": 72,
      "hit": false,
      "t": 64883.681999999935,
      "d": 232.55799999999726,
      "v": 100
    },
    {
      "midi": 65,
      "hit": false,
      "t": 64883.682000000255,
      "d": 116.27900000000227,
      "v": 100
    },
    {
      "midi": 62,
      "hit": false,
      "t": 64883.682000000255,
      "d": 116.27900000000227,
      "v": 100
    },
    {
      "midi": 65,
      "hit": false,
      "t": 64999.96100000026,
      "d": 116.27900000000227,
      "v": 100
    },
    {
      "midi": 62,
      "hit": false,
      "t": 64999.96100000026,
      "d": 116.27900000000227,
      "v": 100
    },
    {
      "midi": 38,
      "hit": false,
      "t": 65116.23999999964,
      "d": 58.1394999999975,
      "v": 80
    },
    {
      "midi": 36,
      "hit": false,
      "t": 65116.239999999765,
      "d": 58.1394999999975,
      "v": 120
    },
    {
      "midi": 35,
      "hit": false,
      "t": 65116.239999999765,
      "d": 58.1394999999975,
      "v": 120
    },
    {
      "midi": 40,
      "hit": false,
      "t": 65116.23999999988,
      "d": 232.55799999999726,
      "v": 100
    },
    {
      "midi": 42,
      "hit": false,
      "t": 65348.79799999978,
      "d": 58.1394999999975,
      "v": 60
    },
    {
      "midi": 33,
      "hit": false,
      "t": 65348.79799999988,
      "d": 232.55800000000454,
      "v": 100
    },
    {
      "midi": 61,
      "hit": false,
      "t": 65348.79800000026,
      "d": 116.27900000000227,
      "v": 100
    },
    {
      "midi": 65,
      "hit": false,
      "t": 65348.79800000026,
      "d": 116.27900000000227,
      "v": 100
    },
    {
      "midi": 73,
      "hit": false,
      "t": 65465.07699999993,
      "d": 348.83699999999953,
      "v": 100
    },
    {
      "midi": 77,
      "hit": false,
      "t": 65465.07699999993,
      "d": 348.83699999999953,
      "v": 100
    },
    {
      "midi": 74,
      "hit": false,
      "t": 65465.07699999993,
      "d": 348.83699999999953,
      "v": 100
    },
    {
      "midi": 65,
      "hit": false,
      "t": 65465.07700000026,
      "d": 116.27900000000227,
      "v": 100
    },
    {
      "midi": 61,
      "hit": false,
      "t": 65465.07700000026,
      "d": 116.27900000000227,
      "v": 100
    },
    {
      "midi": 39,
      "hit": false,
      "t": 65581.35599999987,
      "d": 58.13950000000477,
      "v": 100
    },
    {
      "midi": 28,
      "hit": false,
      "t": 65581.35599999987,
      "d": 58.13950000000477,
      "v": 100
    },
    {
      "midi": 40,
      "hit": false,
      "t": 65581.35599999988,
      "d": 232.55800000000454,
      "v": 100
    },
    {
      "midi": 64,
      "hit": false,
      "t": 65581.35599999997,
      "d": 465.11599999999453,
      "v": 100
    },
    {
      "midi": 67,
      "hit": false,
      "t": 65581.35599999997,
      "d": 465.11599999999453,
      "v": 80
    },
    {
      "midi": 61,
      "hit": false,
      "t": 65697.63500000026,
      "d": 116.278999999995,
      "v": 100
    },
    {
      "midi": 65,
      "hit": false,
      "t": 65697.63500000026,
      "d": 116.278999999995,
      "v": 100
    },
    {
      "midi": 42,
      "hit": false,
      "t": 65813.91399999977,
      "d": 58.13950000000477,
      "v": 60
    },
    {
      "midi": 77,
      "hit": false,
      "t": 65813.91399999993,
      "d": 232.55800000000454,
      "v": 100
    },
    {
      "midi": 73,
      "hit": false,
      "t": 65813.91399999993,
      "d": 232.55800000000454,
      "v": 100
    },
    {
      "midi": 74,
      "hit": false,
      "t": 65813.91399999993,
      "d": 232.55800000000454,
      "v": 100
    },
    {
      "midi": 65,
      "hit": false,
      "t": 65813.91400000025,
      "d": 116.278999999995,
      "v": 100
    },
    {
      "midi": 61,
      "hit": false,
      "t": 65813.91400000025,
      "d": 116.278999999995,
      "v": 100
    },
    {
      "midi": 38,
      "hit": false,
      "t": 65930.19299999964,
      "d": 58.13950000000477,
      "v": 80
    },
    {
      "midi": 38,
      "hit": false,
      "t": 66046.47199999965,
      "d": 58.13950000000477,
      "v": 80
    },
    {
      "midi": 36,
      "hit": false,
      "t": 66046.47199999976,
      "d": 58.13950000000477,
      "v": 120
    },
    {
      "midi": 35,
      "hit": false,
      "t": 66046.47199999976,
      "d": 58.13950000000477,
      "v": 120
    },
    {
      "midi": 33,
      "hit": false,
      "t": 66046.47199999989,
      "d": 232.55800000000454,
      "v": 100
    },
    {
      "midi": 74,
      "hit": false,
      "t": 66046.47199999994,
      "d": 348.83699999999953,
      "v": 100
    },
    {
      "midi": 73,
      "hit": false,
      "t": 66046.47199999994,
      "d": 348.83699999999953,
      "v": 100
    },
    {
      "midi": 77,
      "hit": false,
      "t": 66046.47199999994,
      "d": 348.83699999999953,
      "v": 100
    },
    {
      "midi": 74,
      "hit": false,
      "t": 66046.47199999997,
      "d": 232.55800000000454,
      "v": 80
    },
    {
      "midi": 69,
      "hit": false,
      "t": 66046.47199999997,
      "d": 465.1160000000091,
      "v": 100
    },
    {
      "midi": 61,
      "hit": false,
      "t": 66046.47200000024,
      "d": 116.278999999995,
      "v": 100
    },
    {
      "midi": 65,
      "hit": false,
      "t": 66046.47200000024,
      "d": 116.278999999995,
      "v": 100
    },
    {
      "midi": 61,
      "hit": false,
      "t": 66162.75100000024,
      "d": 116.278999999995,
      "v": 100
    },
    {
      "midi": 65,
      "hit": false,
      "t": 66162.75100000024,
      "d": 116.278999999995,
      "v": 100
    },
    {
      "midi": 42,
      "hit": false,
      "t": 66279.02999999978,
      "d": 58.13950000000477,
      "v": 60
    },
    {
      "midi": 72,
      "hit": false,
      "t": 66279.02999999997,
      "d": 232.55800000000454,
      "v": 80
    },
    {
      "midi": 38,
      "hit": false,
      "t": 66395.30899999964,
      "d": 58.13950000000477,
      "v": 80
    },
    {
      "midi": 73,
      "hit": false,
      "t": 66395.30899999994,
      "d": 348.83699999999953,
      "v": 100
    },
    {
      "midi": 77,
      "hit": false,
      "t": 66395.30899999994,
      "d": 348.83699999999953,
      "v": 100
    },
    {
      "midi": 74,
      "hit": false,
      "t": 66395.30899999994,
      "d": 348.83699999999953,
      "v": 100
    },
    {
      "midi": 65,
      "hit": false,
      "t": 66395.30900000023,
      "d": 116.278999999995,
      "v": 100
    },
    {
      "midi": 61,
      "hit": false,
      "t": 66395.30900000023,
      "d": 116.278999999995,
      "v": 100
    },
    {
      "midi": 38,
      "hit": false,
      "t": 66511.58799999965,
      "d": 58.13950000000477,
      "v": 80
    },
    {
      "midi": 36,
      "hit": false,
      "t": 66511.58799999977,
      "d": 58.13950000000477,
      "v": 120
    },
    {
      "midi": 35,
      "hit": false,
      "t": 66511.58799999977,
      "d": 58.13950000000477,
      "v": 120
    },
    {
      "midi": 39,
      "hit": false,
      "t": 66511.58799999987,
      "d": 58.13950000000477,
      "v": 100
    },
    {
      "midi": 28,
      "hit": false,
      "t": 66511.58799999987,
      "d": 58.13950000000477,
      "v": 100
    },
    {
      "midi": 40,
      "hit": false,
      "t": 66511.5879999999,
      "d": 232.55800000000454,
      "v": 100
    },
    {
      "midi": 67,
      "hit": false,
      "t": 66511.58799999997,
      "d": 465.11599999999453,
      "v": 100
    },
    {
      "midi": 72,
      "hit": false,
      "t": 66511.58799999997,
      "d": 465.11599999999453,
      "v": 80
    },
    {
      "midi": 61,
      "hit": false,
      "t": 66511.58800000022,
      "d": 116.278999999995,
      "v": 100
    },
    {
      "midi": 65,
      "hit": false,
      "t": 66511.58800000022,
      "d": 116.278999999995,
      "v": 100
    },
    {
      "midi": 38,
      "hit": false,
      "t": 66744.14599999966,
      "d": 58.13950000000477,
      "v": 80
    },
    {
      "midi": 36,
      "hit": false,
      "t": 66744.14599999978,
      "d": 58.13950000000477,
      "v": 120
    },
    {
      "midi": 35,
      "hit": false,
      "t": 66744.14599999978,
      "d": 58.13950000000477,
      "v": 120
    },
    {
      "midi": 40,
      "hit": false,
      "t": 66744.1459999999,
      "d": 232.55800000000454,
      "v": 100
    },
    {
      "midi": 73,
      "hit": false,
      "t": 66744.14599999994,
      "d": 232.55800000000454,
      "v": 100
    },
    {
      "midi": 77,
      "hit": false,
      "t": 66744.14599999994,
      "d": 232.55800000000454,
      "v": 100
    },
    {
      "midi": 74,
      "hit": false,
      "t": 66744.14599999994,
      "d": 232.55800000000454,
      "v": 100
    },
    {
      "midi": 65,
      "hit": false,
      "t": 66744.14600000021,
      "d": 116.278999999995,
      "v": 100
    },
    {
      "midi": 61,
      "hit": false,
      "t": 66744.14600000021,
      "d": 116.278999999995,
      "v": 100
    },
    {
      "midi": 61,
      "hit": false,
      "t": 66860.4250000002,
      "d": 116.278999999995,
      "v": 100
    },
    {
      "midi": 65,
      "hit": false,
      "t": 66860.4250000002,
      "d": 116.278999999995,
      "v": 100
    },
    {
      "midi": 38,
      "hit": false,
      "t": 66976.70399999966,
      "d": 58.13950000000477,
      "v": 80
    },
    {
      "midi": 36,
      "hit": false,
      "t": 66976.70399999978,
      "d": 58.13950000000477,
      "v": 120
    },
    {
      "midi": 35,
      "hit": false,
      "t": 66976.70399999978,
      "d": 58.13950000000477,
      "v": 120
    },
    {
      "midi": 41,
      "hit": false,
      "t": 66976.70399999991,
      "d": 232.55800000000454,
      "v": 100
    },
    {
      "midi": 42,
      "hit": false,
      "t": 67209.26199999978,
      "d": 58.13950000000477,
      "v": 60
    },
    {
      "midi": 36,
      "hit": false,
      "t": 67209.26199999992,
      "d": 232.55800000000454,
      "v": 100
    },
    {
      "midi": 60,
      "hit": false,
      "t": 67209.2620000002,
      "d": 116.278999999995,
      "v": 100
    },
    {
      "midi": 65,
      "hit": false,
      "t": 67209.2620000002,
      "d": 116.278999999995,
      "v": 100
    },
    {
      "midi": 77,
      "hit": false,
      "t": 67325.54099999994,
      "d": 348.83699999999953,
      "v": 100
    },
    {
      "midi": 74,
      "hit": false,
      "t": 67325.54099999994,
      "d": 348.83699999999953,
      "v": 100
    },
    {
      "midi": 72,
      "hit": false,
      "t": 67325.54099999994,
      "d": 348.83699999999953,
      "v": 100
    },
    {
      "midi": 65,
      "hit": false,
      "t": 67325.5410000002,
      "d": 116.278999999995,
      "v": 100
    },
    {
      "midi": 60,
      "hit": false,
      "t": 67325.5410000002,
      "d": 116.278999999995,
      "v": 100
    },
    {
      "midi": 39,
      "hit": false,
      "t": 67441.81999999988,
      "d": 58.13950000000477,
      "v": 100
    },
    {
      "midi": 28,
      "hit": false,
      "t": 67441.81999999988,
      "d": 58.13950000000477,
      "v": 100
    },
    {
      "midi": 41,
      "hit": false,
      "t": 67441.81999999992,
      "d": 232.55800000000454,
      "v": 100
    },
    {
      "midi": 65,
      "hit": false,
      "t": 67441.81999999996,
      "d": 232.55800000000454,
      "v": 100
    },
    {
      "midi": 60,
      "hit": false,
      "t": 67558.09900000019,
      "d": 116.278999999995,
      "v": 100
    },
    {
      "midi": 65,
      "hit": false,
      "t": 67558.09900000019,
      "d": 116.278999999995,
      "v": 100
    },
    {
      "midi": 42,
      "hit": false,
      "t": 67674.3779999998,
      "d": 58.13950000000477,
      "v": 60
    },
    {
      "midi": 77,
      "hit": false,
      "t": 67674.37799999994,
      "d": 232.55800000000454,
      "v": 100
    },
    {
      "midi": 74,
      "hit": false,
      "t": 67674.37799999994,
      "d": 232.55800000000454,
      "v": 100
    },
    {
      "midi": 72,
      "hit": false,
      "t": 67674.37799999994,
      "d": 232.55800000000454,
      "v": 100
    },
    {
      "midi": 65,
      "hit": false,
      "t": 67674.37799999997,
      "d": 232.55800000000454,
      "v": 100
    },
    {
      "midi": 65,
      "hit": false,
      "t": 67674.37800000019,
      "d": 116.278999999995,
      "v": 100
    },
    {
      "midi": 60,
      "hit": false,
      "t": 67674.37800000019,
      "d": 116.278999999995,
      "v": 100
    },
    {
      "midi": 38,
      "hit": false,
      "t": 67790.65699999967,
      "d": 58.13950000000477,
      "v": 80
    },
    {
      "midi": 38,
      "hit": false,
      "t": 67906.93599999968,
      "d": 58.13950000000477,
      "v": 80
    },
    {
      "midi": 36,
      "hit": false,
      "t": 67906.93599999978,
      "d": 58.13950000000477,
      "v": 120
    },
    {
      "midi": 35,
      "hit": false,
      "t": 67906.93599999978,
      "d": 58.13950000000477,
      "v": 120
    },
    {
      "midi": 36,
      "hit": false,
      "t": 67906.93599999993,
      "d": 232.55800000000454,
      "v": 100
    },
    {
      "midi": 77,
      "hit": false,
      "t": 67906.93599999994,
      "d": 348.83699999999953,
      "v": 100
    },
    {
      "midi": 74,
      "hit": false,
      "t": 67906.93599999994,
      "d": 348.83699999999953,
      "v": 100
    },
    {
      "midi": 72,
      "hit": false,
      "t": 67906.93599999994,
      "d": 348.83699999999953,
      "v": 100
    },
    {
      "midi": 65,
      "hit": false,
      "t": 67906.93599999997,
      "d": 232.55800000000454,
      "v": 100
    },
    {
      "midi": 60,
      "hit": false,
      "t": 67906.93600000018,
      "d": 116.278999999995,
      "v": 100
    },
    {
      "midi": 65,
      "hit": false,
      "t": 67906.93600000018,
      "d": 116.278999999995,
      "v": 100
    },
    {
      "midi": 60,
      "hit": false,
      "t": 68023.21500000017,
      "d": 116.278999999995,
      "v": 100
    },
    {
      "midi": 65,
      "hit": false,
      "t": 68023.21500000017,
      "d": 116.278999999995,
      "v": 100
    },
    {
      "midi": 42,
      "hit": false,
      "t": 68139.4939999998,
      "d": 58.13950000000477,
      "v": 60
    },
    {
      "midi": 65,
      "hit": false,
      "t": 68139.49399999998,
      "d": 232.55800000000454,
      "v": 100
    },
    {
      "midi": 38,
      "hit": false,
      "t": 68255.77299999968,
      "d": 58.13950000000477,
      "v": 80
    },
    {
      "midi": 77,
      "hit": false,
      "t": 68255.77299999994,
      "d": 348.83699999999953,
      "v": 100
    },
    {
      "midi": 74,
      "hit": false,
      "t": 68255.77299999994,
      "d": 348.83699999999953,
      "v": 100
    },
    {
      "midi": 72,
      "hit": false,
      "t": 68255.77299999994,
      "d": 348.83699999999953,
      "v": 100
    },
    {
      "midi": 65,
      "hit": false,
      "t": 68255.77300000016,
      "d": 116.278999999995,
      "v": 100
    },
    {
      "midi": 60,
      "hit": false,
      "t": 68255.77300000016,
      "d": 116.278999999995,
      "v": 100
    },
    {
      "midi": 38,
      "hit": false,
      "t": 68372.05199999969,
      "d": 58.13950000000477,
      "v": 80
    },
    {
      "midi": 36,
      "hit": false,
      "t": 68372.05199999979,
      "d": 58.13950000000477,
      "v": 120
    },
    {
      "midi": 35,
      "hit": false,
      "t": 68372.05199999979,
      "d": 58.13950000000477,
      "v": 120
    },
    {
      "midi": 39,
      "hit": false,
      "t": 68372.05199999988,
      "d": 58.13950000000477,
      "v": 100
    },
    {
      "midi": 28,
      "hit": false,
      "t": 68372.05199999988,
      "d": 58.13950000000477,
      "v": 100
    },
    {
      "midi": 41,
      "hit": false,
      "t": 68372.05199999994,
      "d": 232.55800000000454,
      "v": 100
    },
    {
      "midi": 67,
      "hit": false,
      "t": 68372.05199999998,
      "d": 232.55800000000454,
      "v": 100
    },
    {
      "midi": 60,
      "hit": false,
      "t": 68372.05200000016,
      "d": 116.278999999995,
      "v": 100
    },
    {
      "midi": 65,
      "hit": false,
      "t": 68372.05200000016,
      "d": 116.278999999995,
      "v": 100
    },
    {
      "midi": 38,
      "hit": false,
      "t": 68604.6099999997,
      "d": 58.13950000000477,
      "v": 80
    },
    {
      "midi": 36,
      "hit": false,
      "t": 68604.6099999998,
      "d": 58.13950000000477,
      "v": 120
    },
    {
      "midi": 35,
      "hit": false,
      "t": 68604.6099999998,
      "d": 58.13950000000477,
      "v": 120
    },
    {
      "midi": 77,
      "hit": false,
      "t": 68604.60999999994,
      "d": 232.55800000000454,
      "v": 100
    },
    {
      "midi": 74,
      "hit": false,
      "t": 68604.60999999994,
      "d": 232.55800000000454,
      "v": 100
    },
    {
      "midi": 72,
      "hit": false,
      "t": 68604.60999999994,
      "d": 232.55800000000454,
      "v": 100
    },
    {
      "midi": 41,
      "hit": false,
      "t": 68604.60999999994,
      "d": 232.55800000000454,
      "v": 100
    },
    {
      "midi": 69,
      "hit": false,
      "t": 68604.60999999999,
      "d": 232.55800000000454,
      "v": 100
    },
    {
      "midi": 65,
      "hit": false,
      "t": 68604.61000000015,
      "d": 116.278999999995,
      "v": 100
    },
    {
      "midi": 60,
      "hit": false,
      "t": 68604.61000000015,
      "d": 116.278999999995,
      "v": 100
    },
    {
      "midi": 60,
      "hit": false,
      "t": 68720.88900000014,
      "d": 116.278999999995,
      "v": 100
    },
    {
      "midi": 65,
      "hit": false,
      "t": 68720.88900000014,
      "d": 116.278999999995,
      "v": 100
    },
    {
      "midi": 38,
      "hit": false,
      "t": 68837.1679999997,
      "d": 58.13950000000477,
      "v": 80
    },
    {
      "midi": 36,
      "hit": false,
      "t": 68837.1679999998,
      "d": 58.13950000000477,
      "v": 120
    },
    {
      "midi": 35,
      "hit": false,
      "t": 68837.1679999998,
      "d": 58.13950000000477,
      "v": 120
    },
    {
      "midi": 43,
      "hit": false,
      "t": 68837.16799999995,
      "d": 232.55800000000454,
      "v": 100
    },
    {
      "midi": 67,
      "hit": false,
      "t": 68837.16799999999,
      "d": 697.6739999999991,
      "v": 100
    },
    {
      "midi": 42,
      "hit": false,
      "t": 69069.7259999998,
      "d": 58.13950000000477,
      "v": 60
    },
    {
      "midi": 38,
      "hit": false,
      "t": 69069.72599999995,
      "d": 232.55800000000454,
      "v": 100
    },
    {
      "midi": 59,
      "hit": false,
      "t": 69069.72600000014,
      "d": 116.278999999995,
      "v": 100
    },
    {
      "midi": 65,
      "hit": false,
      "t": 69069.72600000014,
      "d": 116.278999999995,
      "v": 100
    },
    {
      "midi": 71,
      "hit": false,
      "t": 69186.00499999995,
      "d": 348.83699999999953,
      "v": 100
    },
    {
      "midi": 77,
      "hit": false,
      "t": 69186.00499999995,
      "d": 348.83699999999953,
      "v": 100
    },
    {
      "midi": 74,
      "hit": false,
      "t": 69186.00499999995,
      "d": 348.83699999999953,
      "v": 100
    },
    {
      "midi": 65,
      "hit": false,
      "t": 69186.00500000014,
      "d": 116.278999999995,
      "v": 100
    },
    {
      "midi": 59,
      "hit": false,
      "t": 69186.00500000014,
      "d": 116.278999999995,
      "v": 100
    },
    {
      "midi": 39,
      "hit": false,
      "t": 69302.28399999988,
      "d": 58.13950000000477,
      "v": 100
    },
    {
      "midi": 28,
      "hit": false,
      "t": 69302.28399999988,
      "d": 58.13950000000477,
      "v": 100
    },
    {
      "midi": 43,
      "hit": false,
      "t": 69302.28399999996,
      "d": 232.55800000000454,
      "v": 100
    },
    {
      "midi": 59,
      "hit": false,
      "t": 69418.56300000013,
      "d": 116.278999999995,
      "v": 100
    },
    {
      "midi": 65,
      "hit": false,
      "t": 69418.56300000013,
      "d": 116.278999999995,
      "v": 100
    },
    {
      "midi": 42,
      "hit": false,
      "t": 69534.84199999982,
      "d": 58.13950000000477,
      "v": 60
    },
    {
      "midi": 77,
      "hit": false,
      "t": 69534.84199999995,
      "d": 232.55800000000454,
      "v": 100
    },
    {
      "midi": 71,
      "hit": false,
      "t": 69534.84199999995,
      "d": 232.55800000000454,
      "v": 100
    },
    {
      "midi": 74,
      "hit": false,
      "t": 69534.84199999995,
      "d": 232.55800000000454,
      "v": 100
    },
    {
      "midi": 62,
      "hit": false,
      "t": 69534.84199999999,
      "d": 232.55800000000454,
      "v": 100
    },
    {
      "midi": 65,
      "hit": false,
      "t": 69534.84200000012,
      "d": 116.278999999995,
      "v": 100
    },
    {
      "midi": 59,
      "hit": false,
      "t": 69534.84200000012,
      "d": 116.278999999995,
      "v": 100
    },
    {
      "midi": 38,
      "hit": false,
      "t": 69651.12099999971,
      "d": 58.13950000000477,
      "v": 80
    },
    {
      "midi": 38,
      "hit": false,
      "t": 69767.39999999972,
      "d": 58.13950000000477,
      "v": 80
    },
    {
      "midi": 36,
      "hit": false,
      "t": 69767.3999999998,
      "d": 58.13950000000477,
      "v": 120
    },
    {
      "midi": 35,
      "hit": false,
      "t": 69767.3999999998,
      "d": 58.13950000000477,
      "v": 120
    },
    {
      "midi": 74,
      "hit": false,
      "t": 69767.39999999995,
      "d": 348.83699999999953,
      "v": 100
    },
    {
      "midi": 71,
      "hit": false,
      "t": 69767.39999999995,
      "d": 348.83699999999953,
      "v": 100
    },
    {
      "midi": 77,
      "hit": false,
      "t": 69767.39999999995,
      "d": 348.83699999999953,
      "v": 100
    },
    {
      "midi": 38,
      "hit": false,
      "t": 69767.39999999997,
      "d": 232.55800000000454,
      "v": 100
    },
    {
      "midi": 89,
      "hit": false,
      "t": 69767.4,
      "d": 465.11599999999453,
      "v": 100
    },
    {
      "midi": 59,
      "hit": false,
      "t": 69767.40000000011,
      "d": 116.278999999995,
      "v": 100
    },
    {
      "midi": 65,
      "hit": false,
      "t": 69767.40000000011,
      "d": 116.278999999995,
      "v": 100
    },
    {
      "midi": 59,
      "hit": false,
      "t": 69883.6790000001,
      "d": 116.278999999995,
      "v": 100
    },
    {
      "midi": 65,
      "hit": false,
      "t": 69883.6790000001,
      "d": 116.278999999995,
      "v": 100
    },
    {
      "midi": 42,
      "hit": false,
      "t": 69999.95799999982,
      "d": 58.13950000000477,
      "v": 60
    },
    {
      "midi": 62,
      "hit": false,
      "t": 69999.958,
      "d": 232.55800000000454,
      "v": 100
    },
    {
      "midi": 38,
      "hit": false,
      "t": 70116.23699999972,
      "d": 58.13950000000477,
      "v": 80
    },
    {
      "midi": 71,
      "hit": false,
      "t": 70116.23699999995,
      "d": 348.83699999999953,
      "v": 100
    },
    {
      "midi": 77,
      "hit": false,
      "t": 70116.23699999995,
      "d": 348.83699999999953,
      "v": 100
    },
    {
      "midi": 74,
      "hit": false,
      "t": 70116.23699999995,
      "d": 348.83699999999953,
      "v": 100
    },
    {
      "midi": 65,
      "hit": false,
      "t": 70116.2370000001,
      "d": 116.278999999995,
      "v": 100
    },
    {
      "midi": 59,
      "hit": false,
      "t": 70116.2370000001,
      "d": 116.278999999995,
      "v": 100
    },
    {
      "midi": 38,
      "hit": false,
      "t": 70232.51599999973,
      "d": 58.13950000000477,
      "v": 80
    },
    {
      "midi": 36,
      "hit": false,
      "t": 70232.51599999981,
      "d": 58.13950000000477,
      "v": 120
    },
    {
      "midi": 35,
      "hit": false,
      "t": 70232.51599999981,
      "d": 58.13950000000477,
      "v": 120
    },
    {
      "midi": 39,
      "hit": false,
      "t": 70232.51599999989,
      "d": 58.13950000000477,
      "v": 100
    },
    {
      "midi": 28,
      "hit": false,
      "t": 70232.51599999989,
      "d": 58.13950000000477,
      "v": 100
    },
    {
      "midi": 43,
      "hit": false,
      "t": 70232.51599999997,
      "d": 232.55800000000454,
      "v": 100
    },
    {
      "midi": 88,
      "hit": false,
      "t": 70232.51599999999,
      "d": 465.11599999999453,
      "v": 100
    },
    {
      "midi": 64,
      "hit": false,
      "t": 70232.516,
      "d": 232.55800000000454,
      "v": 100
    },
    {
      "midi": 59,
      "hit": false,
      "t": 70232.51600000009,
      "d": 116.278999999995,
      "v": 100
    },
    {
      "midi": 65,
      "hit": false,
      "t": 70232.51600000009,
      "d": 116.278999999995,
      "v": 100
    },
    {
      "midi": 38,
      "hit": false,
      "t": 70465.07399999973,
      "d": 58.13950000000477,
      "v": 80
    },
    {
      "midi": 36,
      "hit": false,
      "t": 70465.07399999982,
      "d": 58.13950000000477,
      "v": 120
    },
    {
      "midi": 35,
      "hit": false,
      "t": 70465.07399999982,
      "d": 58.13950000000477,
      "v": 120
    },
    {
      "midi": 71,
      "hit": false,
      "t": 70465.07399999995,
      "d": 232.55800000000454,
      "v": 100
    },
    {
      "midi": 77,
      "hit": false,
      "t": 70465.07399999995,
      "d": 232.55800000000454,
      "v": 100
    },
    {
      "midi": 74,
      "hit": false,
      "t": 70465.07399999995,
      "d": 232.55800000000454,
      "v": 100
    },
    {
      "midi": 45,
      "hit": false,
      "t": 70465.07399999998,
      "d": 232.55800000000454,
      "v": 100
    },
    {
      "midi": 65,
      "hit": false,
      "t": 70465.07400000001,
      "d": 930.2320000000036,
      "v": 100
    },
    {
      "midi": 65,
      "hit": false,
      "t": 70465.07400000008,
      "d": 116.278999999995,
      "v": 100
    },
    {
      "midi": 59,
      "hit": false,
      "t": 70465.07400000008,
      "d": 116.278999999995,
      "v": 100
    },
    {
      "midi": 59,
      "hit": false,
      "t": 70581.35300000008,
      "d": 116.278999999995,
      "v": 100
    },
    {
      "midi": 65,
      "hit": false,
      "t": 70581.35300000008,
      "d": 116.278999999995,
      "v": 100
    },
    {
      "midi": 38,
      "hit": false,
      "t": 70697.63199999974,
      "d": 58.13950000000477,
      "v": 80
    },
    {
      "midi": 36,
      "hit": false,
      "t": 70697.63199999982,
      "d": 58.13950000000477,
      "v": 120
    },
    {
      "midi": 35,
      "hit": false,
      "t": 70697.63199999982,
      "d": 58.13950000000477,
      "v": 120
    },
    {
      "midi": 81,
      "hit": false,
      "t": 70697.63199999998,
      "d": 5581.391999999993,
      "v": 100
    },
    {
      "midi": 46,
      "hit": false,
      "t": 70697.63199999998,
      "d": 232.55800000000454,
      "v": 100
    },
    {
      "midi": 42,
      "hit": false,
      "t": 70930.18999999983,
      "d": 58.13950000000477,
      "v": 60
    },
    {
      "midi": 41,
      "hit": false,
      "t": 70930.18999999999,
      "d": 232.55800000000454,
      "v": 100
    },
    {
      "midi": 58,
      "hit": false,
      "t": 70930.19000000008,
      "d": 116.278999999995,
      "v": 100
    },
    {
      "midi": 65,
      "hit": false,
      "t": 70930.19000000008,
      "d": 116.278999999995,
      "v": 100
    },
    {
      "midi": 77,
      "hit": false,
      "t": 71046.46899999995,
      "d": 348.83699999999953,
      "v": 100
    },
    {
      "midi": 74,
      "hit": false,
      "t": 71046.46899999995,
      "d": 348.83699999999953,
      "v": 100
    },
    {
      "midi": 72,
      "hit": false,
      "t": 71046.46899999995,
      "d": 348.83699999999953,
      "v": 100
    },
    {
      "midi": 65,
      "hit": false,
      "t": 71046.46900000007,
      "d": 116.278999999995,
      "v": 100
    },
    {
      "midi": 58,
      "hit": false,
      "t": 71046.46900000007,
      "d": 116.278999999995,
      "v": 100
    },
    {
      "midi": 39,
      "hit": false,
      "t": 71162.74799999989,
      "d": 58.13950000000477,
      "v": 100
    },
    {
      "midi": 28,
      "hit": false,
      "t": 71162.74799999989,
      "d": 58.13950000000477,
      "v": 100
    },
    {
      "midi": 46,
      "hit": false,
      "t": 71162.74799999999,
      "d": 232.55800000000454,
      "v": 100
    },
    {
      "midi": 58,
      "hit": false,
      "t": 71279.02700000006,
      "d": 116.278999999995,
      "v": 100
    },
    {
      "midi": 65,
      "hit": false,
      "t": 71279.02700000006,
      "d": 116.278999999995,
      "v": 100
    },
    {
      "midi": 42,
      "hit": false,
      "t": 71395.30599999984,
      "d": 58.13950000000477,
      "v": 60
    },
    {
      "midi": 77,
      "hit": false,
      "t": 71395.30599999995,
      "d": 232.55800000000454,
      "v": 100
    },
    {
      "midi": 74,
      "hit": false,
      "t": 71395.30599999995,
      "d": 232.55800000000454,
      "v": 100
    },
    {
      "midi": 72,
      "hit": false,
      "t": 71395.30599999995,
      "d": 232.55800000000454,
      "v": 100
    },
    {
      "midi": 65,
      "hit": false,
      "t": 71395.30600000006,
      "d": 116.278999999995,
      "v": 100
    },
    {
      "midi": 58,
      "hit": false,
      "t": 71395.30600000006,
      "d": 116.278999999995,
      "v": 100
    },
    {
      "midi": 38,
      "hit": false,
      "t": 71511.58499999974,
      "d": 58.13950000000477,
      "v": 80
    },
    {
      "midi": 38,
      "hit": false,
      "t": 71627.86399999975,
      "d": 58.13950000000477,
      "v": 80
    },
    {
      "midi": 36,
      "hit": false,
      "t": 71627.86399999983,
      "d": 58.13950000000477,
      "v": 120
    },
    {
      "midi": 35,
      "hit": false,
      "t": 71627.86399999983,
      "d": 58.13950000000477,
      "v": 120
    },
    {
      "midi": 77,
      "hit": false,
      "t": 71627.86399999996,
      "d": 348.83699999999953,
      "v": 100
    },
    {
      "midi": 74,
      "hit": false,
      "t": 71627.86399999996,
      "d": 348.83699999999953,
      "v": 100
    },
    {
      "midi": 72,
      "hit": false,
      "t": 71627.86399999996,
      "d": 348.83699999999953,
      "v": 100
    },
    {
      "midi": 41,
      "hit": false,
      "t": 71627.864,
      "d": 232.55800000000454,
      "v": 100
    },
    {
      "midi": 65,
      "hit": false,
      "t": 71627.86400000002,
      "d": 465.11599999999453,
      "v": 100
    },
    {
      "midi": 58,
      "hit": false,
      "t": 71627.86400000005,
      "d": 116.278999999995,
      "v": 100
    },
    {
      "midi": 65,
      "hit": false,
      "t": 71627.86400000005,
      "d": 116.278999999995,
      "v": 100
    },
    {
      "midi": 58,
      "hit": false,
      "t": 71744.14300000004,
      "d": 116.278999999995,
      "v": 100
    },
    {
      "midi": 65,
      "hit": false,
      "t": 71744.14300000004,
      "d": 116.278999999995,
      "v": 100
    },
    {
      "midi": 42,
      "hit": false,
      "t": 71860.42199999985,
      "d": 58.13950000000477,
      "v": 60
    },
    {
      "midi": 46,
      "hit": false,
      "t": 71860.422,
      "d": 232.55800000000454,
      "v": 100
    },
    {
      "midi": 38,
      "hit": false,
      "t": 71976.70099999975,
      "d": 58.13950000000477,
      "v": 80
    },
    {
      "midi": 77,
      "hit": false,
      "t": 71976.70099999996,
      "d": 348.83699999999953,
      "v": 100
    },
    {
      "midi": 74,
      "hit": false,
      "t": 71976.70099999996,
      "d": 348.83699999999953,
      "v": 100
    },
    {
      "midi": 72,
      "hit": false,
      "t": 71976.70099999996,
      "d": 348.83699999999953,
      "v": 100
    },
    {
      "midi": 65,
      "hit": false,
      "t": 71976.70100000003,
      "d": 116.278999999995,
      "v": 100
    },
    {
      "midi": 58,
      "hit": false,
      "t": 71976.70100000003,
      "d": 116.278999999995,
      "v": 100
    },
    {
      "midi": 38,
      "hit": false,
      "t": 72092.97999999976,
      "d": 58.13950000000477,
      "v": 80
    },
    {
      "midi": 36,
      "hit": false,
      "t": 72092.97999999984,
      "d": 58.13950000000477,
      "v": 120
    },
    {
      "midi": 35,
      "hit": false,
      "t": 72092.97999999984,
      "d": 58.13950000000477,
      "v": 120
    },
    {
      "midi": 39,
      "hit": false,
      "t": 72092.9799999999,
      "d": 58.13950000000477,
      "v": 100
    },
    {
      "midi": 28,
      "hit": false,
      "t": 72092.9799999999,
      "d": 58.13950000000477,
      "v": 100
    },
    {
      "midi": 62,
      "hit": false,
      "t": 72092.98000000001,
      "d": 348.83699999999953,
      "v": 100
    },
    {
      "midi": 58,
      "hit": false,
      "t": 72092.98000000003,
      "d": 116.278999999995,
      "v": 100
    },
    {
      "midi": 65,
      "hit": false,
      "t": 72092.98000000003,
      "d": 116.278999999995,
      "v": 100
    },
    {
      "midi": 38,
      "hit": false,
      "t": 72325.53799999977,
      "d": 58.13950000000477,
      "v": 80
    },
    {
      "midi": 36,
      "hit": false,
      "t": 72325.53799999984,
      "d": 58.13950000000477,
      "v": 120
    },
    {
      "midi": 35,
      "hit": false,
      "t": 72325.53799999984,
      "d": 58.13950000000477,
      "v": 120
    },
    {
      "midi": 77,
      "hit": false,
      "t": 72325.53799999996,
      "d": 232.55800000000454,
      "v": 100
    },
    {
      "midi": 74,
      "hit": false,
      "t": 72325.53799999996,
      "d": 232.55800000000454,
      "v": 100
    },
    {
      "midi": 72,
      "hit": false,
      "t": 72325.53799999996,
      "d": 232.55800000000454,
      "v": 100
    },
    {
      "midi": 34,
      "hit": false,
      "t": 72325.53800000002,
      "d": 232.55800000000454,
      "v": 100
    },
    {
      "midi": 65,
      "hit": false,
      "t": 72325.53800000002,
      "d": 116.278999999995,
      "v": 100
    },
    {
      "midi": 58,
      "hit": false,
      "t": 72325.53800000002,
      "d": 116.278999999995,
      "v": 100
    },
    {
      "midi": 64,
      "hit": false,
      "t": 72441.81700000001,
      "d": 581.3950000000041,
      "v": 100
    },
    {
      "midi": 58,
      "hit": false,
      "t": 72441.81700000001,
      "d": 116.278999999995,
      "v": 100
    },
    {
      "midi": 65,
      "hit": false,
      "t": 72441.81700000001,
      "d": 116.278999999995,
      "v": 100
    },
    {
      "midi": 38,
      "hit": false,
      "t": 72558.09599999977,
      "d": 58.13950000000477,
      "v": 80
    },
    {
      "midi": 36,
      "hit": false,
      "t": 72558.09599999984,
      "d": 58.13950000000477,
      "v": 120
    },
    {
      "midi": 35,
      "hit": false,
      "t": 72558.09599999984,
      "d": 58.13950000000477,
      "v": 120
    },
    {
      "midi": 36,
      "hit": false,
      "t": 72558.09600000002,
      "d": 232.55800000000454,
      "v": 100
    },
    {
      "midi": 42,
      "hit": false,
      "t": 72790.65399999985,
      "d": 58.13950000000477,
      "v": 60
    },
    {
      "midi": 64,
      "hit": false,
      "t": 72790.65400000001,
      "d": 116.278999999995,
      "v": 100
    },
    {
      "midi": 57,
      "hit": false,
      "t": 72790.65400000001,
      "d": 116.278999999995,
      "v": 100
    },
    {
      "midi": 79,
      "hit": false,
      "t": 72906.93299999996,
      "d": 348.83699999999953,
      "v": 100
    },
    {
      "midi": 76,
      "hit": false,
      "t": 72906.93299999996,
      "d": 348.83699999999953,
      "v": 100
    },
    {
      "midi": 72,
      "hit": false,
      "t": 72906.93299999996,
      "d": 348.83699999999953,
      "v": 100
    },
    {
      "midi": 57,
      "hit": false,
      "t": 72906.933,
      "d": 116.278999999995,
      "v": 100
    },
    {
      "midi": 64,
      "hit": false,
      "t": 72906.933,
      "d": 116.278999999995,
      "v": 100
    },
    {
      "midi": 39,
      "hit": false,
      "t": 73023.2119999999,
      "d": 58.13950000000477,
      "v": 100
    },
    {
      "midi": 28,
      "hit": false,
      "t": 73023.2119999999,
      "d": 58.13950000000477,
      "v": 100
    },
    {
      "midi": 36,
      "hit": false,
      "t": 73023.21200000003,
      "d": 232.55800000000454,
      "v": 100
    },
    {
      "midi": 64,
      "hit": false,
      "t": 73139.491,
      "d": 116.278999999995,
      "v": 100
    },
    {
      "midi": 57,
      "hit": false,
      "t": 73139.491,
      "d": 116.278999999995,
      "v": 100
    },
    {
      "midi": 42,
      "hit": false,
      "t": 73255.76999999986,
      "d": 58.13950000000477,
      "v": 60
    },
    {
      "midi": 79,
      "hit": false,
      "t": 73255.76999999996,
      "d": 232.55800000000454,
      "v": 100
    },
    {
      "midi": 76,
      "hit": false,
      "t": 73255.76999999996,
      "d": 232.55800000000454,
      "v": 100
    },
    {
      "midi": 72,
      "hit": false,
      "t": 73255.76999999996,
      "d": 232.55800000000454,
      "v": 100
    },
    {
      "midi": 57,
      "hit": false,
      "t": 73255.76999999999,
      "d": 116.278999999995,
      "v": 100
    },
    {
      "midi": 64,
      "hit": false,
      "t": 73255.76999999999,
      "d": 116.278999999995,
      "v": 100
    },
    {
      "midi": 38,
      "hit": false,
      "t": 73372.04899999978,
      "d": 58.13950000000477,
      "v": 80
    },
    {
      "midi": 38,
      "hit": false,
      "t": 73488.32799999979,
      "d": 58.13950000000477,
      "v": 80
    },
    {
      "midi": 36,
      "hit": false,
      "t": 73488.32799999985,
      "d": 58.13950000000477,
      "v": 120
    },
    {
      "midi": 35,
      "hit": false,
      "t": 73488.32799999985,
      "d": 58.13950000000477,
      "v": 120
    },
    {
      "midi": 76,
      "hit": false,
      "t": 73488.32799999996,
      "d": 348.83699999999953,
      "v": 100
    },
    {
      "midi": 72,
      "hit": false,
      "t": 73488.32799999996,
      "d": 348.83699999999953,
      "v": 100
    },
    {
      "midi": 79,
      "hit": false,
      "t": 73488.32799999996,
      "d": 348.83699999999953,
      "v": 100
    },
    {
      "midi": 64,
      "hit": false,
      "t": 73488.32799999998,
      "d": 116.278999999995,
      "v": 100
    },
    {
      "midi": 57,
      "hit": false,
      "t": 73488.32799999998,
      "d": 116.278999999995,
      "v": 100
    },
    {
      "midi": 60,
      "hit": false,
      "t": 73488.32800000001,
      "d": 465.11599999999453,
      "v": 100
    },
    {
      "midi": 36,
      "hit": false,
      "t": 73488.32800000004,
      "d": 232.55800000000454,
      "v": 100
    },
    {
      "midi": 64,
      "hit": false,
      "t": 73604.60699999997,
      "d": 116.278999999995,
      "v": 100
    },
    {
      "midi": 57,
      "hit": false,
      "t": 73604.60699999997,
      "d": 116.278999999995,
      "v": 100
    },
    {
      "midi": 42,
      "hit": false,
      "t": 73720.88599999987,
      "d": 58.13950000000477,
      "v": 60
    },
    {
      "midi": 36,
      "hit": false,
      "t": 73720.88600000004,
      "d": 232.55800000000454,
      "v": 100
    },
    {
      "midi": 38,
      "hit": false,
      "t": 73837.16499999979,
      "d": 58.13950000000477,
      "v": 80
    },
    {
      "midi": 79,
      "hit": false,
      "t": 73837.16499999996,
      "d": 348.83699999999953,
      "v": 100
    },
    {
      "midi": 72,
      "hit": false,
      "t": 73837.16499999996,
      "d": 348.83699999999953,
      "v": 100
    },
    {
      "midi": 76,
      "hit": false,
      "t": 73837.16499999996,
      "d": 348.83699999999953,
      "v": 100
    },
    {
      "midi": 57,
      "hit": false,
      "t": 73837.16499999996,
      "d": 116.278999999995,
      "v": 100
    },
    {
      "midi": 64,
      "hit": false,
      "t": 73837.16499999996,
      "d": 116.278999999995,
      "v": 100
    },
    {
      "midi": 38,
      "hit": false,
      "t": 73953.4439999998,
      "d": 58.13950000000477,
      "v": 80
    },
    {
      "midi": 36,
      "hit": false,
      "t": 73953.44399999986,
      "d": 58.13950000000477,
      "v": 120
    },
    {
      "midi": 35,
      "hit": false,
      "t": 73953.44399999986,
      "d": 58.13950000000477,
      "v": 120
    },
    {
      "midi": 39,
      "hit": false,
      "t": 73953.4439999999,
      "d": 58.13950000000477,
      "v": 100
    },
    {
      "midi": 28,
      "hit": false,
      "t": 73953.4439999999,
      "d": 58.13950000000477,
      "v": 100
    },
    {
      "midi": 64,
      "hit": false,
      "t": 73953.44399999996,
      "d": 116.278999999995,
      "v": 100
    },
    {
      "midi": 57,
      "hit": false,
      "t": 73953.44399999996,
      "d": 116.278999999995,
      "v": 100
    },
    {
      "midi": 57,
      "hit": false,
      "t": 73953.444,
      "d": 348.83699999999953,
      "v": 100
    },
    {
      "midi": 38,
      "hit": false,
      "t": 74186.0019999998,
      "d": 58.13950000000477,
      "v": 80
    },
    {
      "midi": 36,
      "hit": false,
      "t": 74186.00199999986,
      "d": 58.13950000000477,
      "v": 120
    },
    {
      "midi": 35,
      "hit": false,
      "t": 74186.00199999986,
      "d": 58.13950000000477,
      "v": 120
    },
    {
      "midi": 57,
      "hit": false,
      "t": 74186.00199999995,
      "d": 116.278999999995,
      "v": 100
    },
    {
      "midi": 64,
      "hit": false,
      "t": 74186.00199999995,
      "d": 116.278999999995,
      "v": 100
    },
    {
      "midi": 79,
      "hit": false,
      "t": 74186.00199999996,
      "d": 232.55800000000454,
      "v": 100
    },
    {
      "midi": 76,
      "hit": false,
      "t": 74186.00199999996,
      "d": 232.55800000000454,
      "v": 100
    },
    {
      "midi": 72,
      "hit": false,
      "t": 74186.00199999996,
      "d": 232.55800000000454,
      "v": 100
    },
    {
      "midi": 36,
      "hit": false,
      "t": 74186.00200000005,
      "d": 232.55800000000454,
      "v": 100
    },
    {
      "midi": 64,
      "hit": false,
      "t": 74302.28099999994,
      "d": 116.278999999995,
      "v": 100
    },
    {
      "midi": 57,
      "hit": false,
      "t": 74302.28099999994,
      "d": 116.278999999995,
      "v": 100
    },
    {
      "midi": 62,
      "hit": false,
      "t": 74302.281,
      "d": 581.3950000000041,
      "v": 100
    },
    {
      "midi": 38,
      "hit": false,
      "t": 74418.55999999981,
      "d": 58.13950000000477,
      "v": 80
    },
    {
      "midi": 36,
      "hit": false,
      "t": 74418.55999999987,
      "d": 58.13950000000477,
      "v": 120
    },
    {
      "midi": 35,
      "hit": false,
      "t": 74418.55999999987,
      "d": 58.13950000000477,
      "v": 120
    },
    {
      "midi": 38,
      "hit": false,
      "t": 74418.56000000006,
      "d": 232.55800000000454,
      "v": 100
    },
    {
      "midi": 42,
      "hit": false,
      "t": 74651.11799999987,
      "d": 58.13950000000477,
      "v": 60
    },
    {
      "midi": 62,
      "hit": false,
      "t": 74651.11799999994,
      "d": 116.278999999995,
      "v": 100
    },
    {
      "midi": 65,
      "hit": false,
      "t": 74651.11799999994,
      "d": 116.278999999995,
      "v": 100
    },
    {
      "midi": 65,
      "hit": false,
      "t": 74767.39699999994,
      "d": 116.278999999995,
      "v": 100
    },
    {
      "midi": 62,
      "hit": false,
      "t": 74767.39699999994,
      "d": 116.278999999995,
      "v": 100
    },
    {
      "midi": 77,
      "hit": false,
      "t": 74767.39699999997,
      "d": 348.83699999999953,
      "v": 100
    },
    {
      "midi": 74,
      "hit": false,
      "t": 74767.39699999997,
      "d": 348.83699999999953,
      "v": 100
    },
    {
      "midi": 79,
      "hit": false,
      "t": 74767.39699999997,
      "d": 348.83699999999953,
      "v": 100
    },
    {
      "midi": 39,
      "hit": false,
      "t": 74883.6759999999,
      "d": 58.13950000000477,
      "v": 100
    },
    {
      "midi": 28,
      "hit": false,
      "t": 74883.6759999999,
      "d": 58.13950000000477,
      "v": 100
    },
    {
      "midi": 38,
      "hit": false,
      "t": 74883.67600000006,
      "d": 232.55800000000454,
      "v": 100
    },
    {
      "midi": 62,
      "hit": false,
      "t": 74999.95499999993,
      "d": 116.278999999995,
      "v": 100
    },
    {
      "midi": 65,
      "hit": false,
      "t": 74999.95499999993,
      "d": 116.278999999995,
      "v": 100
    },
    {
      "midi": 42,
      "hit": false,
      "t": 75116.23399999988,
      "d": 58.13950000000477,
      "v": 60
    },
    {
      "midi": 65,
      "hit": false,
      "t": 75116.23399999992,
      "d": 116.278999999995,
      "v": 100
    },
    {
      "midi": 62,
      "hit": false,
      "t": 75116.23399999992,
      "d": 116.278999999995,
      "v": 100
    },
    {
      "midi": 77,
      "hit": false,
      "t": 75116.23399999997,
      "d": 232.55800000000454,
      "v": 100
    },
    {
      "midi": 74,
      "hit": false,
      "t": 75116.23399999997,
      "d": 232.55800000000454,
      "v": 100
    },
    {
      "midi": 79,
      "hit": false,
      "t": 75116.23399999997,
      "d": 232.55800000000454,
      "v": 100
    },
    {
      "midi": 38,
      "hit": false,
      "t": 75232.51299999982,
      "d": 58.13950000000477,
      "v": 80
    },
    {
      "midi": 38,
      "hit": false,
      "t": 75348.79199999983,
      "d": 58.13950000000477,
      "v": 80
    },
    {
      "midi": 36,
      "hit": false,
      "t": 75348.79199999987,
      "d": 58.13950000000477,
      "v": 120
    },
    {
      "midi": 35,
      "hit": false,
      "t": 75348.79199999987,
      "d": 58.13950000000477,
      "v": 120
    },
    {
      "midi": 62,
      "hit": false,
      "t": 75348.79199999991,
      "d": 116.278999999995,
      "v": 100
    },
    {
      "midi": 65,
      "hit": false,
      "t": 75348.79199999991,
      "d": 116.278999999995,
      "v": 100
    },
    {
      "midi": 74,
      "hit": false,
      "t": 75348.79199999997,
      "d": 348.83699999999953,
      "v": 100
    },
    {
      "midi": 77,
      "hit": false,
      "t": 75348.79199999997,
      "d": 348.83699999999953,
      "v": 100
    },
    {
      "midi": 79,
      "hit": false,
      "t": 75348.79199999997,
      "d": 348.83699999999953,
      "v": 100
    },
    {
      "midi": 38,
      "hit": false,
      "t": 75348.79200000007,
      "d": 232.55800000000454,
      "v": 100
    },
    {
      "midi": 62,
      "hit": false,
      "t": 75465.07099999991,
      "d": 116.278999999995,
      "v": 100
    },
    {
      "midi": 65,
      "hit": false,
      "t": 75465.07099999991,
      "d": 116.278999999995,
      "v": 100
    },
    {
      "midi": 42,
      "hit": false,
      "t": 75581.34999999989,
      "d": 58.13950000000477,
      "v": 60
    },
    {
      "midi": 38,
      "hit": false,
      "t": 75581.35000000008,
      "d": 232.55800000000454,
      "v": 100
    },
    {
      "midi": 38,
      "hit": false,
      "t": 75697.62899999983,
      "d": 58.13950000000477,
      "v": 80
    },
    {
      "midi": 65,
      "hit": false,
      "t": 75697.6289999999,
      "d": 116.278999999995,
      "v": 100
    },
    {
      "midi": 62,
      "hit": false,
      "t": 75697.6289999999,
      "d": 116.278999999995,
      "v": 100
    },
    {
      "midi": 77,
      "hit": false,
      "t": 75697.62899999997,
      "d": 348.83699999999953,
      "v": 100
    },
    {
      "midi": 74,
      "hit": false,
      "t": 75697.62899999997,
      "d": 348.83699999999953,
      "v": 100
    },
    {
      "midi": 79,
      "hit": false,
      "t": 75697.62899999997,
      "d": 348.83699999999953,
      "v": 100
    },
    {
      "midi": 38,
      "hit": false,
      "t": 75813.90799999984,
      "d": 58.13950000000477,
      "v": 80
    },
    {
      "midi": 36,
      "hit": false,
      "t": 75813.90799999988,
      "d": 58.13950000000477,
      "v": 120
    },
    {
      "midi": 35,
      "hit": false,
      "t": 75813.90799999988,
      "d": 58.13950000000477,
      "v": 120
    },
    {
      "midi": 62,
      "hit": false,
      "t": 75813.9079999999,
      "d": 116.278999999995,
      "v": 100
    },
    {
      "midi": 65,
      "hit": false,
      "t": 75813.9079999999,
      "d": 116.278999999995,
      "v": 100
    },
    {
      "midi": 39,
      "hit": false,
      "t": 75813.90799999991,
      "d": 58.13950000000477,
      "v": 100
    },
    {
      "midi": 28,
      "hit": false,
      "t": 75813.90799999991,
      "d": 58.13950000000477,
      "v": 100
    },
    {
      "midi": 38,
      "hit": false,
      "t": 76046.46599999984,
      "d": 58.13950000000477,
      "v": 80
    },
    {
      "midi": 36,
      "hit": false,
      "t": 76046.46599999988,
      "d": 58.13950000000477,
      "v": 120
    },
    {
      "midi": 35,
      "hit": false,
      "t": 76046.46599999988,
      "d": 58.13950000000477,
      "v": 120
    },
    {
      "midi": 65,
      "hit": false,
      "t": 76046.46599999988,
      "d": 116.278999999995,
      "v": 100
    },
    {
      "midi": 62,
      "hit": false,
      "t": 76046.46599999988,
      "d": 116.278999999995,
      "v": 100
    },
    {
      "midi": 77,
      "hit": false,
      "t": 76046.46599999997,
      "d": 232.55800000000454,
      "v": 100
    },
    {
      "midi": 74,
      "hit": false,
      "t": 76046.46599999997,
      "d": 232.55800000000454,
      "v": 100
    },
    {
      "midi": 79,
      "hit": false,
      "t": 76046.46599999997,
      "d": 232.55800000000454,
      "v": 100
    },
    {
      "midi": 38,
      "hit": false,
      "t": 76046.46600000009,
      "d": 232.55800000000454,
      "v": 100
    },
    {
      "midi": 62,
      "hit": false,
      "t": 76162.74499999988,
      "d": 116.278999999995,
      "v": 100
    },
    {
      "midi": 65,
      "hit": false,
      "t": 76162.74499999988,
      "d": 116.278999999995,
      "v": 100
    },
    {
      "midi": 38,
      "hit": false,
      "t": 76279.02399999984,
      "d": 58.13950000000477,
      "v": 80
    },
    {
      "midi": 36,
      "hit": false,
      "t": 76279.02399999989,
      "d": 58.13950000000477,
      "v": 120
    },
    {
      "midi": 35,
      "hit": false,
      "t": 76279.02399999989,
      "d": 58.13950000000477,
      "v": 120
    },
    {
      "midi": 88,
      "hit": false,
      "t": 76279.02399999998,
      "d": 116.278999999995,
      "v": 100
    },
    {
      "midi": 43,
      "hit": false,
      "t": 76279.02400000009,
      "d": 232.55800000000454,
      "v": 100
    },
    {
      "midi": 89,
      "hit": false,
      "t": 76395.30299999997,
      "d": 116.278999999995,
      "v": 100
    },
    {
      "midi": 61,
      "hit": false,
      "t": 76511.58199999988,
      "d": 116.278999999995,
      "v": 100
    },
    {
      "midi": 65,
      "hit": false,
      "t": 76511.58199999988,
      "d": 116.278999999995,
      "v": 100
    },
    {
      "midi": 42,
      "hit": false,
      "t": 76511.5819999999,
      "d": 58.13950000000477,
      "v": 60
    },
    {
      "midi": 88,
      "hit": false,
      "t": 76511.58199999997,
      "d": 116.278999999995,
      "v": 100
    },
    {
      "midi": 41,
      "hit": false,
      "t": 76511.5820000001,
      "d": 232.55800000000454,
      "v": 100
    },
    {
      "midi": 65,
      "hit": false,
      "t": 76627.86099999987,
      "d": 116.278999999995,
      "v": 100
    },
    {
      "midi": 61,
      "hit": false,
      "t": 76627.86099999987,
      "d": 116.278999999995,
      "v": 100
    },
    {
      "midi": 77,
      "hit": false,
      "t": 76627.86099999998,
      "d": 348.83699999999953,
      "v": 100
    },
    {
      "midi": 76,
      "hit": false,
      "t": 76627.86099999998,
      "d": 348.83699999999953,
      "v": 100
    },
    {
      "midi": 73,
      "hit": false,
      "t": 76627.86099999998,
      "d": 348.83699999999953,
      "v": 100
    },
    {
      "midi": 39,
      "hit": false,
      "t": 76744.13999999991,
      "d": 58.13950000000477,
      "v": 100
    },
    {
      "midi": 28,
      "hit": false,
      "t": 76744.13999999991,
      "d": 58.13950000000477,
      "v": 100
    },
    {
      "midi": 86,
      "hit": false,
      "t": 76744.13999999996,
      "d": 116.278999999995,
      "v": 100
    },
    {
      "midi": 43,
      "hit": false,
      "t": 76744.1400000001,
      "d": 232.55800000000454,
      "v": 100
    },
    {
      "midi": 61,
      "hit": false,
      "t": 76860.41899999986,
      "d": 116.278999999995,
      "v": 100
    },
    {
      "midi": 65,
      "hit": false,
      "t": 76860.41899999986,
      "d": 116.278999999995,
      "v": 100
    },
    {
      "midi": 65,
      "hit": false,
      "t": 76976.69799999986,
      "d": 116.278999999995,
      "v": 100
    },
    {
      "midi": 61,
      "hit": false,
      "t": 76976.69799999986,
      "d": 116.278999999995,
      "v": 100
    },
    {
      "midi": 42,
      "hit": false,
      "t": 76976.6979999999,
      "d": 58.13950000000477,
      "v": 60
    },
    {
      "midi": 76,
      "hit": false,
      "t": 76976.69799999997,
      "d": 232.55800000000454,
      "v": 100
    },
    {
      "midi": 77,
      "hit": false,
      "t": 76976.69799999997,
      "d": 232.55800000000454,
      "v": 100
    },
    {
      "midi": 73,
      "hit": false,
      "t": 76976.69799999997,
      "d": 232.55800000000454,
      "v": 100
    },
    {
      "midi": 38,
      "hit": false,
      "t": 77092.97699999985,
      "d": 58.13950000000477,
      "v": 80
    },
    {
      "midi": 61,
      "hit": false,
      "t": 77209.25599999985,
      "d": 116.278999999995,
      "v": 100
    },
    {
      "midi": 65,
      "hit": false,
      "t": 77209.25599999985,
      "d": 116.278999999995,
      "v": 100
    },
    {
      "midi": 38,
      "hit": false,
      "t": 77209.25599999986,
      "d": 58.13950000000477,
      "v": 80
    },
    {
      "midi": 36,
      "hit": false,
      "t": 77209.25599999989,
      "d": 58.13950000000477,
      "v": 120
    },
    {
      "midi": 35,
      "hit": false,
      "t": 77209.25599999989,
      "d": 58.13950000000477,
      "v": 120
    },
    {
      "midi": 88,
      "hit": false,
      "t": 77209.25599999995,
      "d": 116.278999999995,
      "v": 100
    },
    {
      "midi": 73,
      "hit": false,
      "t": 77209.25599999998,
      "d": 348.83699999999953,
      "v": 100
    },
    {
      "midi": 77,
      "hit": false,
      "t": 77209.25599999998,
      "d": 348.83699999999953,
      "v": 100
    },
    {
      "midi": 76,
      "hit": false,
      "t": 77209.25599999998,
      "d": 348.83699999999953,
      "v": 100
    },
    {
      "midi": 43,
      "hit": false,
      "t": 77209.25600000011,
      "d": 232.55800000000454,
      "v": 100
    },
    {
      "midi": 61,
      "hit": false,
      "t": 77325.53499999984,
      "d": 116.278999999995,
      "v": 100
    },
    {
      "midi": 65,
      "hit": false,
      "t": 77325.53499999984,
      "d": 116.278999999995,
      "v": 100
    },
    {
      "midi": 89,
      "hit": false,
      "t": 77325.53499999995,
      "d": 116.278999999995,
      "v": 100
    },
    {
      "midi": 42,
      "hit": false,
      "t": 77441.81399999991,
      "d": 58.13950000000477,
      "v": 60
    },
    {
      "midi": 88,
      "hit": false,
      "t": 77441.81399999994,
      "d": 116.278999999995,
      "v": 100
    },
    {
      "midi": 62,
      "hit": false,
      "t": 77441.81400000001,
      "d": 232.55800000000454,
      "v": 100
    },
    {
      "midi": 65,
      "hit": false,
      "t": 77558.09299999983,
      "d": 116.278999999995,
      "v": 100
    },
    {
      "midi": 61,
      "hit": false,
      "t": 77558.09299999983,
      "d": 116.278999999995,
      "v": 100
    },
    {
      "midi": 38,
      "hit": false,
      "t": 77558.09299999986,
      "d": 58.13950000000477,
      "v": 80
    },
    {
      "midi": 77,
      "hit": false,
      "t": 77558.09299999998,
      "d": 348.83699999999953,
      "v": 100
    },
    {
      "midi": 76,
      "hit": false,
      "t": 77558.09299999998,
      "d": 348.83699999999953,
      "v": 100
    },
    {
      "midi": 73,
      "hit": false,
      "t": 77558.09299999998,
      "d": 348.83699999999953,
      "v": 100
    },
    {
      "midi": 61,
      "hit": false,
      "t": 77674.37199999983,
      "d": 116.278999999995,
      "v": 100
    },
    {
      "midi": 65,
      "hit": false,
      "t": 77674.37199999983,
      "d": 116.278999999995,
      "v": 100
    },
    {
      "midi": 38,
      "hit": false,
      "t": 77674.37199999987,
      "d": 58.13950000000477,
      "v": 80
    },
    {
      "midi": 36,
      "hit": false,
      "t": 77674.3719999999,
      "d": 58.13950000000477,
      "v": 120
    },
    {
      "midi": 35,
      "hit": false,
      "t": 77674.3719999999,
      "d": 58.13950000000477,
      "v": 120
    },
    {
      "midi": 39,
      "hit": false,
      "t": 77674.37199999992,
      "d": 58.13950000000477,
      "v": 100
    },
    {
      "midi": 28,
      "hit": false,
      "t": 77674.37199999992,
      "d": 58.13950000000477,
      "v": 100
    },
    {
      "midi": 86,
      "hit": false,
      "t": 77674.37199999993,
      "d": 116.278999999995,
      "v": 100
    },
    {
      "midi": 64,
      "hit": false,
      "t": 77674.37200000002,
      "d": 232.55800000000454,
      "v": 100
    },
    {
      "midi": 43,
      "hit": false,
      "t": 77674.37200000012,
      "d": 232.55800000000454,
      "v": 100
    },
    {
      "midi": 65,
      "hit": false,
      "t": 77906.92999999982,
      "d": 116.278999999995,
      "v": 100
    },
    {
      "midi": 61,
      "hit": false,
      "t": 77906.92999999982,
      "d": 116.278999999995,
      "v": 100
    },
    {
      "midi": 38,
      "hit": false,
      "t": 77906.92999999988,
      "d": 58.13950000000477,
      "v": 80
    },
    {
      "midi": 36,
      "hit": false,
      "t": 77906.9299999999,
      "d": 58.13950000000477,
      "v": 120
    },
    {
      "midi": 35,
      "hit": false,
      "t": 77906.9299999999,
      "d": 58.13950000000477,
      "v": 120
    },
    {
      "midi": 77,
      "hit": false,
      "t": 77906.92999999998,
      "d": 232.55800000000454,
      "v": 100
    },
    {
      "midi": 76,
      "hit": false,
      "t": 77906.92999999998,
      "d": 232.55800000000454,
      "v": 100
    },
    {
      "midi": 73,
      "hit": false,
      "t": 77906.92999999998,
      "d": 232.55800000000454,
      "v": 100
    },
    {
      "midi": 65,
      "hit": false,
      "t": 77906.93000000002,
      "d": 697.6739999999991,
      "v": 100
    },
    {
      "midi": 45,
      "hit": false,
      "t": 77906.93000000012,
      "d": 232.55800000000454,
      "v": 100
    },
    {
      "midi": 61,
      "hit": false,
      "t": 78023.20899999981,
      "d": 116.278999999995,
      "v": 100
    },
    {
      "midi": 65,
      "hit": false,
      "t": 78023.20899999981,
      "d": 116.278999999995,
      "v": 100
    },
    {
      "midi": 38,
      "hit": false,
      "t": 78139.48799999988,
      "d": 58.13950000000477,
      "v": 80
    },
    {
      "midi": 36,
      "hit": false,
      "t": 78139.48799999991,
      "d": 58.13950000000477,
      "v": 120
    },
    {
      "midi": 35,
      "hit": false,
      "t": 78139.48799999991,
      "d": 58.13950000000477,
      "v": 120
    },
    {
      "midi": 81,
      "hit": false,
      "t": 78139.48799999992,
      "d": 2790.6959999999963,
      "v": 100
    },
    {
      "midi": 46,
      "hit": false,
      "t": 78139.48800000013,
      "d": 232.55800000000454,
      "v": 100
    },
    {
      "midi": 60,
      "hit": false,
      "t": 78372.04599999981,
      "d": 116.278999999995,
      "v": 100
    },
    {
      "midi": 65,
      "hit": false,
      "t": 78372.04599999981,
      "d": 116.278999999995,
      "v": 100
    },
    {
      "midi": 42,
      "hit": false,
      "t": 78372.04599999991,
      "d": 58.13950000000477,
      "v": 60
    },
    {
      "midi": 41,
      "hit": false,
      "t": 78372.04600000013,
      "d": 232.55800000000454,
      "v": 100
    },
    {
      "midi": 65,
      "hit": false,
      "t": 78488.32499999981,
      "d": 116.278999999995,
      "v": 100
    },
    {
      "midi": 60,
      "hit": false,
      "t": 78488.32499999981,
      "d": 116.278999999995,
      "v": 100
    },
    {
      "midi": 77,
      "hit": false,
      "t": 78488.32499999998,
      "d": 348.83699999999953,
      "v": 100
    },
    {
      "midi": 74,
      "hit": false,
      "t": 78488.32499999998,
      "d": 348.83699999999953,
      "v": 100
    },
    {
      "midi": 72,
      "hit": false,
      "t": 78488.32499999998,
      "d": 348.83699999999953,
      "v": 100
    },
    {
      "midi": 39,
      "hit": false,
      "t": 78604.60399999992,
      "d": 58.13950000000477,
      "v": 100
    },
    {
      "midi": 28,
      "hit": false,
      "t": 78604.60399999992,
      "d": 58.13950000000477,
      "v": 100
    },
    {
      "midi": 34,
      "hit": false,
      "t": 78604.60400000014,
      "d": 232.55800000000454,
      "v": 100
    },
    {
      "midi": 60,
      "hit": false,
      "t": 78720.8829999998,
      "d": 116.278999999995,
      "v": 100
    },
    {
      "midi": 65,
      "hit": false,
      "t": 78720.8829999998,
      "d": 116.278999999995,
      "v": 100
    },
    {
      "midi": 65,
      "hit": false,
      "t": 78837.1619999998,
      "d": 116.278999999995,
      "v": 100
    },
    {
      "midi": 60,
      "hit": false,
      "t": 78837.1619999998,
      "d": 116.278999999995,
      "v": 100
    },
    {
      "midi": 42,
      "hit": false,
      "t": 78837.16199999992,
      "d": 58.13950000000477,
      "v": 60
    },
    {
      "midi": 77,
      "hit": false,
      "t": 78837.16199999998,
      "d": 232.55800000000454,
      "v": 100
    },
    {
      "midi": 74,
      "hit": false,
      "t": 78837.16199999998,
      "d": 232.55800000000454,
      "v": 100
    },
    {
      "midi": 72,
      "hit": false,
      "t": 78837.16199999998,
      "d": 232.55800000000454,
      "v": 100
    },
    {
      "midi": 38,
      "hit": false,
      "t": 78953.44099999989,
      "d": 58.13950000000477,
      "v": 80
    },
    {
      "midi": 60,
      "hit": false,
      "t": 79069.71999999978,
      "d": 116.278999999995,
      "v": 100
    },
    {
      "midi": 65,
      "hit": false,
      "t": 79069.71999999978,
      "d": 116.278999999995,
      "v": 100
    },
    {
      "midi": 38,
      "hit": false,
      "t": 79069.7199999999,
      "d": 58.13950000000477,
      "v": 80
    },
    {
      "midi": 36,
      "hit": false,
      "t": 79069.71999999991,
      "d": 58.13950000000477,
      "v": 120
    },
    {
      "midi": 35,
      "hit": false,
      "t": 79069.71999999991,
      "d": 58.13950000000477,
      "v": 120
    },
    {
      "midi": 77,
      "hit": false,
      "t": 79069.71999999999,
      "d": 348.83699999999953,
      "v": 100
    },
    {
      "midi": 74,
      "hit": false,
      "t": 79069.71999999999,
      "d": 348.83699999999953,
      "v": 100
    },
    {
      "midi": 72,
      "hit": false,
      "t": 79069.71999999999,
      "d": 348.83699999999953,
      "v": 100
    },
    {
      "midi": 34,
      "hit": false,
      "t": 79069.72000000015,
      "d": 232.55800000000454,
      "v": 100
    },
    {
      "midi": 60,
      "hit": false,
      "t": 79185.99899999978,
      "d": 116.278999999995,
      "v": 100
    },
    {
      "midi": 65,
      "hit": false,
      "t": 79185.99899999978,
      "d": 116.278999999995,
      "v": 100
    },
    {
      "midi": 42,
      "hit": false,
      "t": 79302.27799999993,
      "d": 58.13950000000477,
      "v": 60
    },
    {
      "midi": 65,
      "hit": false,
      "t": 79418.55699999977,
      "d": 116.278999999995,
      "v": 100
    },
    {
      "midi": 60,
      "hit": false,
      "t": 79418.55699999977,
      "d": 116.278999999995,
      "v": 100
    },
    {
      "midi": 38,
      "hit": false,
      "t": 79418.5569999999,
      "d": 58.13950000000477,
      "v": 80
    },
    {
      "midi": 77,
      "hit": false,
      "t": 79418.55699999999,
      "d": 348.83699999999953,
      "v": 100
    },
    {
      "midi": 74,
      "hit": false,
      "t": 79418.55699999999,
      "d": 348.83699999999953,
      "v": 100
    },
    {
      "midi": 72,
      "hit": false,
      "t": 79418.55699999999,
      "d": 348.83699999999953,
      "v": 100
    },
    {
      "midi": 60,
      "hit": false,
      "t": 79534.83599999976,
      "d": 116.278999999995,
      "v": 100
    },
    {
      "midi": 65,
      "hit": false,
      "t": 79534.83599999976,
      "d": 116.278999999995,
      "v": 100
    },
    {
      "midi": 38,
      "hit": false,
      "t": 79534.83599999991,
      "d": 58.13950000000477,
      "v": 80
    },
    {
      "midi": 36,
      "hit": false,
      "t": 79534.83599999992,
      "d": 58.13950000000477,
      "v": 120
    },
    {
      "midi": 35,
      "hit": false,
      "t": 79534.83599999992,
      "d": 58.13950000000477,
      "v": 120
    },
    {
      "midi": 39,
      "hit": false,
      "t": 79534.83599999992,
      "d": 58.13950000000477,
      "v": 100
    },
    {
      "midi": 28,
      "hit": false,
      "t": 79534.83599999992,
      "d": 58.13950000000477,
      "v": 100
    },
    {
      "midi": 69,
      "hit": false,
      "t": 79534.83600000002,
      "d": 232.55800000000454,
      "v": 100
    },
    {
      "midi": 34,
      "hit": false,
      "t": 79534.83600000016,
      "d": 232.55800000000454,
      "v": 100
    },
    {
      "midi": 65,
      "hit": false,
      "t": 79767.39399999975,
      "d": 116.278999999995,
      "v": 100
    },
    {
      "midi": 60,
      "hit": false,
      "t": 79767.39399999975,
      "d": 116.278999999995,
      "v": 100
    },
    {
      "midi": 38,
      "hit": false,
      "t": 79767.39399999991,
      "d": 58.13950000000477,
      "v": 80
    },
    {
      "midi": 36,
      "hit": false,
      "t": 79767.39399999993,
      "d": 58.13950000000477,
      "v": 120
    },
    {
      "midi": 35,
      "hit": false,
      "t": 79767.39399999993,
      "d": 58.13950000000477,
      "v": 120
    },
    {
      "midi": 77,
      "hit": false,
      "t": 79767.39399999999,
      "d": 232.55800000000454,
      "v": 100
    },
    {
      "midi": 74,
      "hit": false,
      "t": 79767.39399999999,
      "d": 232.55800000000454,
      "v": 100
    },
    {
      "midi": 72,
      "hit": false,
      "t": 79767.39399999999,
      "d": 232.55800000000454,
      "v": 100
    },
    {
      "midi": 67,
      "hit": false,
      "t": 79767.39400000003,
      "d": 697.6739999999991,
      "v": 100
    },
    {
      "midi": 38,
      "hit": false,
      "t": 79767.39400000016,
      "d": 232.55800000000454,
      "v": 100
    },
    {
      "midi": 60,
      "hit": false,
      "t": 79883.67299999975,
      "d": 116.278999999995,
      "v": 100
    },
    {
      "midi": 65,
      "hit": false,
      "t": 79883.67299999975,
      "d": 116.278999999995,
      "v": 100
    },
    {
      "midi": 38,
      "hit": false,
      "t": 79999.95199999992,
      "d": 58.13950000000477,
      "v": 80
    },
    {
      "midi": 36,
      "hit": false,
      "t": 79999.95199999993,
      "d": 58.13950000000477,
      "v": 120
    },
    {
      "midi": 35,
      "hit": false,
      "t": 79999.95199999993,
      "d": 58.13950000000477,
      "v": 120
    },
    {
      "midi": 36,
      "hit": false,
      "t": 79999.95200000016,
      "d": 232.55800000000454,
      "v": 100
    },
    {
      "midi": 64,
      "hit": false,
      "t": 80232.50999999975,
      "d": 116.278999999995,
      "v": 100
    },
    {
      "midi": 57,
      "hit": false,
      "t": 80232.50999999975,
      "d": 116.278999999995,
      "v": 100
    },
    {
      "midi": 42,
      "hit": false,
      "t": 80232.50999999994,
      "d": 58.13950000000477,
      "v": 60
    },
    {
      "midi": 31,
      "hit": false,
      "t": 80232.51000000017,
      "d": 232.55800000000454,
      "v": 100
    },
    {
      "midi": 57,
      "hit": false,
      "t": 80348.78899999974,
      "d": 116.278999999995,
      "v": 100
    },
    {
      "midi": 64,
      "hit": false,
      "t": 80348.78899999974,
      "d": 116.278999999995,
      "v": 100
    },
    {
      "midi": 77,
      "hit": false,
      "t": 80348.78899999999,
      "d": 348.83699999999953,
      "v": 100
    },
    {
      "midi": 74,
      "hit": false,
      "t": 80348.78899999999,
      "d": 348.83699999999953,
      "v": 100
    },
    {
      "midi": 72,
      "hit": false,
      "t": 80348.78899999999,
      "d": 348.83699999999953,
      "v": 100
    },
    {
      "midi": 39,
      "hit": false,
      "t": 80465.06799999993,
      "d": 58.13950000000477,
      "v": 100
    },
    {
      "midi": 28,
      "hit": false,
      "t": 80465.06799999993,
      "d": 58.13950000000477,
      "v": 100
    },
    {
      "midi": 36,
      "hit": false,
      "t": 80465.06800000017,
      "d": 232.55800000000454,
      "v": 100
    },
    {
      "midi": 64,
      "hit": false,
      "t": 80581.34699999973,
      "d": 116.278999999995,
      "v": 100
    },
    {
      "midi": 57,
      "hit": false,
      "t": 80581.34699999973,
      "d": 116.278999999995,
      "v": 100
    },
    {
      "midi": 57,
      "hit": false,
      "t": 80697.62599999973,
      "d": 116.278999999995,
      "v": 100
    },
    {
      "midi": 64,
      "hit": false,
      "t": 80697.62599999973,
      "d": 116.278999999995,
      "v": 100
    },
    {
      "midi": 42,
      "hit": false,
      "t": 80697.62599999995,
      "d": 58.13950000000477,
      "v": 60
    },
    {
      "midi": 77,
      "hit": false,
      "t": 80697.62599999999,
      "d": 232.55800000000454,
      "v": 100
    },
    {
      "midi": 74,
      "hit": false,
      "t": 80697.62599999999,
      "d": 232.55800000000454,
      "v": 100
    },
    {
      "midi": 72,
      "hit": false,
      "t": 80697.62599999999,
      "d": 232.55800000000454,
      "v": 100
    },
    {
      "midi": 38,
      "hit": false,
      "t": 80813.90499999993,
      "d": 58.13950000000477,
      "v": 80
    },
    {
      "midi": 64,
      "hit": false,
      "t": 80930.18399999972,
      "d": 116.278999999995,
      "v": 100
    },
    {
      "midi": 57,
      "hit": false,
      "t": 80930.18399999972,
      "d": 116.278999999995,
      "v": 100
    },
    {
      "midi": 36,
      "hit": false,
      "t": 80930.18399999994,
      "d": 58.13950000000477,
      "v": 120
    },
    {
      "midi": 35,
      "hit": false,
      "t": 80930.18399999994,
      "d": 58.13950000000477,
      "v": 120
    },
    {
      "midi": 38,
      "hit": false,
      "t": 80930.18399999994,
      "d": 58.13950000000477,
      "v": 80
    },
    {
      "midi": 39,
      "hit": false,
      "t": 80930.18399999994,
      "d": 58.13950000000477,
      "v": 100
    },
    {
      "midi": 28,
      "hit": false,
      "t": 80930.18399999994,
      "d": 58.13950000000477,
      "v": 100
    },
    {
      "midi": 77,
      "hit": false,
      "t": 80930.184,
      "d": 348.83699999999953,
      "v": 100
    },
    {
      "midi": 74,
      "hit": false,
      "t": 80930.184,
      "d": 348.83699999999953,
      "v": 100
    },
    {
      "midi": 72,
      "hit": false,
      "t": 80930.184,
      "d": 348.83699999999953,
      "v": 100
    },
    {
      "midi": 72,
      "hit": false,
      "t": 80930.18400000002,
      "d": 465.11599999999453,
      "v": 100
    },
    {
      "midi": 36,
      "hit": false,
      "t": 80930.18400000018,
      "d": 232.55800000000454,
      "v": 100
    },
    {
      "midi": 69,
      "hit": false,
      "t": 81395.30000000002,
      "d": 232.55800000000454,
      "v": 100
    },
    {
      "midi": 74,
      "hit": false,
      "t": 81627.85800000002,
      "d": 2093.021999999997,
      "v": 100
    },
    {
      "midi": 36,
      "hit": false,
      "t": 81860.41599999994,
      "d": 58.13950000000477,
      "v": 120
    },
    {
      "midi": 35,
      "hit": false,
      "t": 81860.41599999994,
      "d": 58.13950000000477,
      "v": 120
    },
    {
      "midi": 38,
      "hit": false,
      "t": 81860.41599999994,
      "d": 58.13950000000477,
      "v": 80
    },
    {
      "midi": 38,
      "hit": false,
      "t": 81860.41600000019,
      "d": 232.55800000000454,
      "v": 100
    },
    {
      "midi": 62,
      "hit": false,
      "t": 82092.97399999971,
      "d": 116.278999999995,
      "v": 100
    },
    {
      "midi": 65,
      "hit": false,
      "t": 82092.97399999971,
      "d": 116.278999999995,
      "v": 100
    },
    {
      "midi": 42,
      "hit": false,
      "t": 82092.97399999994,
      "d": 58.13950000000477,
      "v": 60
    },
    {
      "midi": 65,
      "hit": false,
      "t": 82209.2529999997,
      "d": 116.278999999995,
      "v": 100
    },
    {
      "midi": 62,
      "hit": false,
      "t": 82209.2529999997,
      "d": 116.278999999995,
      "v": 100
    },
    {
      "midi": 77,
      "hit": false,
      "t": 82209.253,
      "d": 348.83699999999953,
      "v": 100
    },
    {
      "midi": 74,
      "hit": false,
      "t": 82209.253,
      "d": 348.83699999999953,
      "v": 100
    },
    {
      "midi": 79,
      "hit": false,
      "t": 82209.253,
      "d": 348.83699999999953,
      "v": 100
    },
    {
      "midi": 39,
      "hit": false,
      "t": 82325.53199999993,
      "d": 58.13950000000477,
      "v": 100
    },
    {
      "midi": 28,
      "hit": false,
      "t": 82325.53199999993,
      "d": 58.13950000000477,
      "v": 100
    },
    {
      "midi": 62,
      "hit": false,
      "t": 82441.8109999997,
      "d": 116.278999999995,
      "v": 100
    },
    {
      "midi": 65,
      "hit": false,
      "t": 82441.8109999997,
      "d": 116.278999999995,
      "v": 100
    },
    {
      "midi": 65,
      "hit": false,
      "t": 82558.08999999969,
      "d": 116.278999999995,
      "v": 100
    },
    {
      "midi": 62,
      "hit": false,
      "t": 82558.08999999969,
      "d": 116.278999999995,
      "v": 100
    },
    {
      "midi": 42,
      "hit": false,
      "t": 82558.08999999995,
      "d": 58.13950000000477,
      "v": 60
    },
    {
      "midi": 77,
      "hit": false,
      "t": 82558.09,
      "d": 232.55800000000454,
      "v": 100
    },
    {
      "midi": 74,
      "hit": false,
      "t": 82558.09,
      "d": 232.55800000000454,
      "v": 100
    },
    {
      "midi": 79,
      "hit": false,
      "t": 82558.09,
      "d": 232.55800000000454,
      "v": 100
    },
    {
      "midi": 38,
      "hit": false,
      "t": 82674.36899999995,
      "d": 58.13950000000477,
      "v": 80
    },
    {
      "midi": 62,
      "hit": false,
      "t": 82790.64799999968,
      "d": 116.278999999995,
      "v": 100
    },
    {
      "midi": 65,
      "hit": false,
      "t": 82790.64799999968,
      "d": 116.278999999995,
      "v": 100
    },
    {
      "midi": 36,
      "hit": false,
      "t": 82790.64799999994,
      "d": 58.13950000000477,
      "v": 120
    },
    {
      "midi": 35,
      "hit": false,
      "t": 82790.64799999994,
      "d": 58.13950000000477,
      "v": 120
    },
    {
      "midi": 38,
      "hit": false,
      "t": 82790.64799999996,
      "d": 58.13950000000477,
      "v": 80
    },
    {
      "midi": 74,
      "hit": false,
      "t": 82790.648,
      "d": 348.83699999999953,
      "v": 100
    },
    {
      "midi": 77,
      "hit": false,
      "t": 82790.648,
      "d": 348.83699999999953,
      "v": 100
    },
    {
      "midi": 79,
      "hit": false,
      "t": 82790.648,
      "d": 348.83699999999953,
      "v": 100
    },
    {
      "midi": 38,
      "hit": false,
      "t": 82790.64800000019,
      "d": 232.55800000000454,
      "v": 100
    },
    {
      "midi": 62,
      "hit": false,
      "t": 82906.92699999968,
      "d": 116.278999999995,
      "v": 100
    },
    {
      "midi": 65,
      "hit": false,
      "t": 82906.92699999968,
      "d": 116.278999999995,
      "v": 100
    },
    {
      "midi": 42,
      "hit": false,
      "t": 83023.20599999996,
      "d": 58.13950000000477,
      "v": 60
    },
    {
      "midi": 65,
      "hit": false,
      "t": 83139.48499999967,
      "d": 116.278999999995,
      "v": 100
    },
    {
      "midi": 62,
      "hit": false,
      "t": 83139.48499999967,
      "d": 116.278999999995,
      "v": 100
    },
    {
      "midi": 38,
      "hit": false,
      "t": 83139.48499999996,
      "d": 58.13950000000477,
      "v": 80
    },
    {
      "midi": 77,
      "hit": false,
      "t": 83139.485,
      "d": 348.83699999999953,
      "v": 100
    },
    {
      "midi": 74,
      "hit": false,
      "t": 83139.485,
      "d": 348.83699999999953,
      "v": 100
    },
    {
      "midi": 79,
      "hit": false,
      "t": 83139.485,
      "d": 348.83699999999953,
      "v": 100
    },
    {
      "midi": 62,
      "hit": false,
      "t": 83255.76399999966,
      "d": 116.278999999995,
      "v": 100
    },
    {
      "midi": 65,
      "hit": false,
      "t": 83255.76399999966,
      "d": 116.278999999995,
      "v": 100
    },
    {
      "midi": 39,
      "hit": false,
      "t": 83255.76399999994,
      "d": 58.13950000000477,
      "v": 100
    },
    {
      "midi": 28,
      "hit": false,
      "t": 83255.76399999994,
      "d": 58.13950000000477,
      "v": 100
    },
    {
      "midi": 36,
      "hit": false,
      "t": 83255.76399999995,
      "d": 58.13950000000477,
      "v": 120
    },
    {
      "midi": 35,
      "hit": false,
      "t": 83255.76399999995,
      "d": 58.13950000000477,
      "v": 120
    },
    {
      "midi": 38,
      "hit": false,
      "t": 83255.76399999997,
      "d": 58.13950000000477,
      "v": 80
    },
    {
      "midi": 38,
      "hit": false,
      "t": 83255.7640000002,
      "d": 232.55800000000454,
      "v": 100
    },
    {
      "midi": 65,
      "hit": false,
      "t": 83488.32199999965,
      "d": 116.278999999995,
      "v": 100
    },
    {
      "midi": 62,
      "hit": false,
      "t": 83488.32199999965,
      "d": 116.278999999995,
      "v": 100
    },
    {
      "midi": 36,
      "hit": false,
      "t": 83488.32199999996,
      "d": 58.13950000000477,
      "v": 120
    },
    {
      "midi": 35,
      "hit": false,
      "t": 83488.32199999996,
      "d": 58.13950000000477,
      "v": 120
    },
    {
      "midi": 38,
      "hit": false,
      "t": 83488.32199999997,
      "d": 58.13950000000477,
      "v": 80
    },
    {
      "midi": 77,
      "hit": false,
      "t": 83488.322,
      "d": 232.55800000000454,
      "v": 100
    },
    {
      "midi": 74,
      "hit": false,
      "t": 83488.322,
      "d": 232.55800000000454,
      "v": 100
    },
    {
      "midi": 79,
      "hit": false,
      "t": 83488.322,
      "d": 232.55800000000454,
      "v": 100
    },
    {
      "midi": 38,
      "hit": false,
      "t": 83488.3220000002,
      "d": 232.55800000000454,
      "v": 100
    },
    {
      "midi": 62,
      "hit": false,
      "t": 83604.60099999965,
      "d": 116.278999999995,
      "v": 100
    },
    {
      "midi": 65,
      "hit": false,
      "t": 83604.60099999965,
      "d": 116.278999999995,
      "v": 100
    },
    {
      "midi": 36,
      "hit": false,
      "t": 83720.87999999996,
      "d": 58.13950000000477,
      "v": 120
    },
    {
      "midi": 35,
      "hit": false,
      "t": 83720.87999999996,
      "d": 58.13950000000477,
      "v": 120
    },
    {
      "midi": 38,
      "hit": false,
      "t": 83720.87999999998,
      "d": 58.13950000000477,
      "v": 80
    },
    {
      "midi": 40,
      "hit": false,
      "t": 83720.88000000021,
      "d": 465.11599999999453,
      "v": 100
    },
    {
      "midi": 61,
      "hit": false,
      "t": 83953.43799999965,
      "d": 116.278999999995,
      "v": 100
    },
    {
      "midi": 65,
      "hit": false,
      "t": 83953.43799999965,
      "d": 116.278999999995,
      "v": 100
    },
    {
      "midi": 42,
      "hit": false,
      "t": 83953.43799999997,
      "d": 58.13950000000477,
      "v": 60
    },
    {
      "midi": 65,
      "hit": false,
      "t": 84069.71699999964,
      "d": 116.278999999995,
      "v": 100
    },
    {
      "midi": 61,
      "hit": false,
      "t": 84069.71699999964,
      "d": 116.278999999995,
      "v": 100
    },
    {
      "midi": 76,
      "hit": false,
      "t": 84069.71699999992,
      "d": 116.278999999995,
      "v": 100
    },
    {
      "midi": 77,
      "hit": false,
      "t": 84069.717,
      "d": 348.83699999999953,
      "v": 100
    },
    {
      "midi": 76,
      "hit": false,
      "t": 84069.717,
      "d": 348.83699999999953,
      "v": 100
    },
    {
      "midi": 73,
      "hit": false,
      "t": 84069.717,
      "d": 348.83699999999953,
      "v": 100
    },
    {
      "midi": 76,
      "hit": false,
      "t": 84185.99599999991,
      "d": 116.278999999995,
      "v": 100
    },
    {
      "midi": 39,
      "hit": false,
      "t": 84185.99599999994,
      "d": 58.13950000000477,
      "v": 100
    },
    {
      "midi": 28,
      "hit": false,
      "t": 84185.99599999994,
      "d": 58.13950000000477,
      "v": 100
    },
    {
      "midi": 61,
      "hit": false,
      "t": 84302.27499999963,
      "d": 116.278999999995,
      "v": 100
    },
    {
      "midi": 65,
      "hit": false,
      "t": 84302.27499999963,
      "d": 116.278999999995,
      "v": 100
    },
    {
      "midi": 65,
      "hit": false,
      "t": 84418.55399999963,
      "d": 116.278999999995,
      "v": 100
    },
    {
      "midi": 61,
      "hit": false,
      "t": 84418.55399999963,
      "d": 116.278999999995,
      "v": 100
    },
    {
      "midi": 76,
      "hit": false,
      "t": 84418.5539999999,
      "d": 116.278999999995,
      "v": 100
    },
    {
      "midi": 42,
      "hit": false,
      "t": 84418.55399999997,
      "d": 58.13950000000477,
      "v": 60
    },
    {
      "midi": 76,
      "hit": false,
      "t": 84418.554,
      "d": 232.55800000000454,
      "v": 100
    },
    {
      "midi": 77,
      "hit": false,
      "t": 84418.554,
      "d": 232.55800000000454,
      "v": 100
    },
    {
      "midi": 73,
      "hit": false,
      "t": 84418.554,
      "d": 232.55800000000454,
      "v": 100
    },
    {
      "midi": 38,
      "hit": false,
      "t": 84534.83299999998,
      "d": 58.13950000000477,
      "v": 80
    },
    {
      "midi": 61,
      "hit": false,
      "t": 84651.11199999962,
      "d": 116.278999999995,
      "v": 100
    },
    {
      "midi": 65,
      "hit": false,
      "t": 84651.11199999962,
      "d": 116.278999999995,
      "v": 100
    },
    {
      "midi": 81,
      "hit": false,
      "t": 84651.11199999989,
      "d": 232.55800000000454,
      "v": 100
    },
    {
      "midi": 36,
      "hit": false,
      "t": 84651.11199999996,
      "d": 58.13950000000477,
      "v": 120
    },
    {
      "midi": 35,
      "hit": false,
      "t": 84651.11199999996,
      "d": 58.13950000000477,
      "v": 120
    },
    {
      "midi": 38,
      "hit": false,
      "t": 84651.112,
      "d": 58.13950000000477,
      "v": 80
    },
    {
      "midi": 73,
      "hit": false,
      "t": 84651.11200000001,
      "d": 348.83699999999953,
      "v": 100
    },
    {
      "midi": 77,
      "hit": false,
      "t": 84651.11200000001,
      "d": 348.83699999999953,
      "v": 100
    },
    {
      "midi": 76,
      "hit": false,
      "t": 84651.11200000001,
      "d": 348.83699999999953,
      "v": 100
    },
    {
      "midi": 40,
      "hit": false,
      "t": 84651.1120000002,
      "d": 232.55800000000454,
      "v": 100
    },
    {
      "midi": 61,
      "hit": false,
      "t": 84767.39099999961,
      "d": 116.278999999995,
      "v": 100
    },
    {
      "midi": 65,
      "hit": false,
      "t": 84767.39099999961,
      "d": 116.278999999995,
      "v": 100
    },
    {
      "midi": 42,
      "hit": false,
      "t": 84883.66999999998,
      "d": 58.13950000000477,
      "v": 60
    },
    {
      "midi": 38,
      "hit": false,
      "t": 84999.949,
      "d": 58.13950000000477,
      "v": 80
    },
    {
      "midi": 77,
      "hit": false,
      "t": 84999.94900000001,
      "d": 348.83699999999953,
      "v": 100
    },
    {
      "midi": 76,
      "hit": false,
      "t": 84999.94900000001,
      "d": 348.83699999999953,
      "v": 100
    },
    {
      "midi": 73,
      "hit": false,
      "t": 84999.94900000001,
      "d": 348.83699999999953,
      "v": 100
    },
    {
      "midi": 76,
      "hit": false,
      "t": 85116.2279999999,
      "d": 232.55800000000454,
      "v": 100
    },
    {
      "midi": 39,
      "hit": false,
      "t": 85116.22799999994,
      "d": 58.13950000000477,
      "v": 100
    },
    {
      "midi": 28,
      "hit": false,
      "t": 85116.22799999994,
      "d": 58.13950000000477,
      "v": 100
    },
    {
      "midi": 36,
      "hit": false,
      "t": 85116.22799999997,
      "d": 58.13950000000477,
      "v": 120
    },
    {
      "midi": 35,
      "hit": false,
      "t": 85116.22799999997,
      "d": 58.13950000000477,
      "v": 120
    },
    {
      "midi": 38,
      "hit": false,
      "t": 85116.228,
      "d": 58.13950000000477,
      "v": 80
    },
    {
      "midi": 40,
      "hit": false,
      "t": 85116.2280000002,
      "d": 232.55800000000454,
      "v": 100
    },
    {
      "midi": 50,
      "hit": false,
      "t": 85348.7859999999,
      "d": 1395.348000000231,
      "v": 100
    },
    {
      "midi": 38,
      "hit": false,
      "t": 85348.7859999999,
      "d": 1395.348000000231,
      "v": 100
    },
    {
      "midi": 39,
      "hit": false,
      "t": 85348.78599999995,
      "d": 58.13950000000477,
      "v": 100
    },
    {
      "midi": 28,
      "hit": false,
      "t": 85348.78599999995,
      "d": 58.13950000000477,
      "v": 100
    },
    {
      "midi": 49,
      "hit": false,
      "t": 85348.78599999995,
      "d": 58.13950000000477,
      "v": 100
    },
    {
      "midi": 35,
      "hit": false,
      "t": 85348.78599999998,
      "d": 58.13950000000477,
      "v": 120
    },
    {
      "midi": 36,
      "hit": false,
      "t": 85348.78599999998,
      "d": 58.13950000000477,
      "v": 120
    },
    {
      "midi": 42,
      "hit": false,
      "t": 85348.786,
      "d": 58.13950000000477,
      "v": 60
    },
    {
      "midi": 38,
      "hit": false,
      "t": 85348.78600000001,
      "d": 58.13950000000477,
      "v": 80
    },
    {
      "midi": 38,
      "hit": false,
      "t": 85348.78600000021,
      "d": 232.55800000000454,
      "v": 100
    }
  ]
}