{
  "jsonPath": "Soundtracks/Classic Soundtrack/Carl Davis/alice-in-wonderland-act-i-the-caucus-race.json",
  "path": "Soundtracks\\Classic Soundtrack\\Carl Davis\\Alice in Wonderland Act I The Caucus Race.mid",
  "name": "Alice in Wonderland Act I The Caucus Race",
  "difficulty": "Advanced",
  "bpm": 131.00007641671124,
  "notes": [
    {
      "midi": 57,
      "hit": false,
      "t": 1.1363625,
      "d": 271.5906375,
      "v": 74
    },
    {
      "midi": 74,
      "hit": false,
      "t": 1.1363625,
      "d": 271.5906375,
      "v": 79
    },
    {
      "midi": 78,
      "hit": false,
      "t": 1.1363625,
      "d": 271.5906375,
      "v": 79
    },
    {
      "midi": 50,
      "hit": false,
      "t": 1.1363625,
      "d": 544.3176375,
      "v": 64
    },
    {
      "midi": 54,
      "hit": false,
      "t": 1.1363625,
      "d": 544.3176375,
      "v": 64
    },
    {
      "midi": 81,
      "hit": false,
      "t": 1.1363625,
      "d": 544.3176375,
      "v": 88
    },
    {
      "midi": 62,
      "hit": false,
      "t": 272.72700000000003,
      "d": 272.72700000000003,
      "v": 60
    },
    {
      "midi": 69,
      "hit": false,
      "t": 272.72700000000003,
      "d": 272.72700000000003,
      "v": 74
    },
    {
      "midi": 58,
      "hit": false,
      "t": 545.4540000000001,
      "d": 272.727,
      "v": 71
    },
    {
      "midi": 70,
      "hit": false,
      "t": 545.4540000000001,
      "d": 272.727,
      "v": 75
    },
    {
      "midi": 74,
      "hit": false,
      "t": 545.4540000000001,
      "d": 272.727,
      "v": 75
    },
    {
      "midi": 50,
      "hit": false,
      "t": 545.4540000000001,
      "d": 545.4540000000001,
      "v": 62
    },
    {
      "midi": 55,
      "hit": false,
      "t": 545.4540000000001,
      "d": 545.4540000000001,
      "v": 62
    },
    {
      "midi": 76,
      "hit": false,
      "t": 545.4540000000001,
      "d": 545.4540000000001,
      "v": 84
    },
    {
      "midi": 62,
      "hit": false,
      "t": 818.181,
      "d": 272.7270000000001,
      "v": 55
    },
    {
      "midi": 64,
      "hit": false,
      "t": 818.181,
      "d": 272.7270000000001,
      "v": 69
    },
    {
      "midi": 57,
      "hit": false,
      "t": 1090.9080000000001,
      "d": 272.7270000000001,
      "v": 74
    },
    {
      "midi": 74,
      "hit": false,
      "t": 1090.9080000000001,
      "d": 272.7270000000001,
      "v": 79
    },
    {
      "midi": 78,
      "hit": false,
      "t": 1090.9080000000001,
      "d": 272.7270000000001,
      "v": 79
    },
    {
      "midi": 50,
      "hit": false,
      "t": 1090.9080000000001,
      "d": 545.4540000000002,
      "v": 64
    },
    {
      "midi": 54,
      "hit": false,
      "t": 1090.9080000000001,
      "d": 545.4540000000002,
      "v": 64
    },
    {
      "midi": 81,
      "hit": false,
      "t": 1090.9080000000001,
      "d": 545.4540000000002,
      "v": 88
    },
    {
      "midi": 62,
      "hit": false,
      "t": 1363.6350000000002,
      "d": 272.7270000000001,
      "v": 61
    },
    {
      "midi": 69,
      "hit": false,
      "t": 1363.6350000000002,
      "d": 272.7270000000001,
      "v": 75
    },
    {
      "midi": 58,
      "hit": false,
      "t": 1636.3620000000003,
      "d": 272.7270000000001,
      "v": 71
    },
    {
      "midi": 70,
      "hit": false,
      "t": 1636.3620000000003,
      "d": 272.7270000000001,
      "v": 75
    },
    {
      "midi": 74,
      "hit": false,
      "t": 1636.3620000000003,
      "d": 272.7270000000001,
      "v": 75
    },
    {
      "midi": 50,
      "hit": false,
      "t": 1636.3620000000003,
      "d": 545.454,
      "v": 62
    },
    {
      "midi": 55,
      "hit": false,
      "t": 1636.3620000000003,
      "d": 545.454,
      "v": 62
    },
    {
      "midi": 76,
      "hit": false,
      "t": 1636.3620000000003,
      "d": 545.454,
      "v": 84
    },
    {
      "midi": 62,
      "hit": false,
      "t": 1909.0890000000004,
      "d": 272.72699999999986,
      "v": 53
    },
    {
      "midi": 64,
      "hit": false,
      "t": 1909.0890000000004,
      "d": 272.72699999999986,
      "v": 70
    },
    {
      "midi": 74,
      "hit": false,
      "t": 2181.8160000000003,
      "d": 68.18175000000019,
      "v": 72
    },
    {
      "midi": 60,
      "hit": false,
      "t": 2181.8160000000003,
      "d": 1090.9080000000013,
      "v": 63
    },
    {
      "midi": 62,
      "hit": false,
      "t": 2181.8160000000003,
      "d": 1090.9080000000013,
      "v": 63
    },
    {
      "midi": 66,
      "hit": false,
      "t": 2181.8160000000003,
      "d": 1090.9080000000013,
      "v": 70
    },
    {
      "midi": 69,
      "hit": false,
      "t": 2181.8160000000003,
      "d": 1090.9080000000013,
      "v": 70
    },
    {
      "midi": 76,
      "hit": false,
      "t": 2318.1795000000006,
      "d": 68.18175000000019,
      "v": 67
    },
    {
      "midi": 74,
      "hit": false,
      "t": 2454.543000000001,
      "d": 68.18175000000019,
      "v": 71
    },
    {
      "midi": 76,
      "hit": false,
      "t": 2590.9065000000014,
      "d": 68.18175000000019,
      "v": 67
    },
    {
      "midi": 78,
      "hit": false,
      "t": 2727.270000000002,
      "d": 136.36349999999993,
      "v": 72
    },
    {
      "midi": 78,
      "hit": false,
      "t": 2999.9970000000017,
      "d": 136.36349999999993,
      "v": 68
    },
    {
      "midi": 58,
      "hit": false,
      "t": 3272.7240000000015,
      "d": 68.18175000000019,
      "v": 70
    },
    {
      "midi": 76,
      "hit": false,
      "t": 3272.7240000000015,
      "d": 272.72700000000077,
      "v": 73
    },
    {
      "midi": 67,
      "hit": false,
      "t": 3272.7240000000015,
      "d": 545.4540000000015,
      "v": 66
    },
    {
      "midi": 74,
      "hit": false,
      "t": 3272.7240000000015,
      "d": 545.4540000000015,
      "v": 66
    },
    {
      "midi": 57,
      "hit": false,
      "t": 3409.087500000002,
      "d": 68.18175000000019,
      "v": 66
    },
    {
      "midi": 55,
      "hit": false,
      "t": 3545.4510000000023,
      "d": 68.18175000000019,
      "v": 70
    },
    {
      "midi": 79,
      "hit": false,
      "t": 3545.4510000000023,
      "d": 272.72700000000077,
      "v": 69
    },
    {
      "midi": 54,
      "hit": false,
      "t": 3681.8145000000027,
      "d": 68.18175000000019,
      "v": 67
    },
    {
      "midi": 52,
      "hit": false,
      "t": 3818.178000000003,
      "d": 272.72699999999986,
      "v": 72
    },
    {
      "midi": 73,
      "hit": false,
      "t": 3818.178000000003,
      "d": 272.72699999999986,
      "v": 64
    },
    {
      "midi": 76,
      "hit": false,
      "t": 3818.178000000003,
      "d": 545.4540000000002,
      "v": 72
    },
    {
      "midi": 57,
      "hit": false,
      "t": 4090.905000000003,
      "d": 272.7270000000003,
      "v": 66
    },
    {
      "midi": 69,
      "hit": false,
      "t": 4090.905000000003,
      "d": 272.7270000000003,
      "v": 68
    },
    {
      "midi": 57,
      "hit": false,
      "t": 4363.632000000003,
      "d": 272.72699999999986,
      "v": 74
    },
    {
      "midi": 74,
      "hit": false,
      "t": 4363.632000000003,
      "d": 272.72699999999986,
      "v": 79
    },
    {
      "midi": 78,
      "hit": false,
      "t": 4363.632000000003,
      "d": 272.72699999999986,
      "v": 79
    },
    {
      "midi": 50,
      "hit": false,
      "t": 4363.632000000003,
      "d": 545.4539999999997,
      "v": 64
    },
    {
      "midi": 54,
      "hit": false,
      "t": 4363.632000000003,
      "d": 545.4539999999997,
      "v": 64
    },
    {
      "midi": 81,
      "hit": false,
      "t": 4363.632000000003,
      "d": 545.4539999999997,
      "v": 88
    },
    {
      "midi": 62,
      "hit": false,
      "t": 4636.359000000003,
      "d": 272.72699999999986,
      "v": 62
    },
    {
      "midi": 69,
      "hit": false,
      "t": 4636.359000000003,
      "d": 272.72699999999986,
      "v": 75
    },
    {
      "midi": 58,
      "hit": false,
      "t": 4909.086000000003,
      "d": 272.72699999999986,
      "v": 71
    },
    {
      "midi": 70,
      "hit": false,
      "t": 4909.086000000003,
      "d": 272.72699999999986,
      "v": 75
    },
    {
      "midi": 74,
      "hit": false,
      "t": 4909.086000000003,
      "d": 272.72699999999986,
      "v": 75
    },
    {
      "midi": 50,
      "hit": false,
      "t": 4909.086000000003,
      "d": 545.4539999999997,
      "v": 62
    },
    {
      "midi": 55,
      "hit": false,
      "t": 4909.086000000003,
      "d": 545.4539999999997,
      "v": 62
    },
    {
      "midi": 76,
      "hit": false,
      "t": 4909.086000000003,
      "d": 545.4539999999997,
      "v": 84
    },
    {
      "midi": 62,
      "hit": false,
      "t": 5181.813000000003,
      "d": 272.72699999999986,
      "v": 59
    },
    {
      "midi": 64,
      "hit": false,
      "t": 5181.813000000003,
      "d": 272.72699999999986,
      "v": 73
    },
    {
      "midi": 57,
      "hit": false,
      "t": 5454.540000000003,
      "d": 272.72700000000077,
      "v": 74
    },
    {
      "midi": 74,
      "hit": false,
      "t": 5454.540000000003,
      "d": 272.72700000000077,
      "v": 79
    },
    {
      "midi": 78,
      "hit": false,
      "t": 5454.540000000003,
      "d": 272.72700000000077,
      "v": 79
    },
    {
      "midi": 50,
      "hit": false,
      "t": 5454.540000000003,
      "d": 545.4540000000006,
      "v": 64
    },
    {
      "midi": 54,
      "hit": false,
      "t": 5454.540000000003,
      "d": 545.4540000000006,
      "v": 64
    },
    {
      "midi": 81,
      "hit": false,
      "t": 5454.540000000003,
      "d": 545.4540000000006,
      "v": 88
    },
    {
      "midi": 62,
      "hit": false,
      "t": 5727.2670000000035,
      "d": 272.72699999999986,
      "v": 62
    },
    {
      "midi": 69,
      "hit": false,
      "t": 5727.2670000000035,
      "d": 272.72699999999986,
      "v": 75
    },
    {
      "midi": 58,
      "hit": false,
      "t": 5999.994000000003,
      "d": 272.72699999999986,
      "v": 71
    },
    {
      "midi": 70,
      "hit": false,
      "t": 5999.994000000003,
      "d": 272.72699999999986,
      "v": 75
    },
    {
      "midi": 74,
      "hit": false,
      "t": 5999.994000000003,
      "d": 272.72699999999986,
      "v": 75
    },
    {
      "midi": 50,
      "hit": false,
      "t": 5999.994000000003,
      "d": 545.4539999999997,
      "v": 62
    },
    {
      "midi": 55,
      "hit": false,
      "t": 5999.994000000003,
      "d": 545.4539999999997,
      "v": 62
    },
    {
      "midi": 76,
      "hit": false,
      "t": 5999.994000000003,
      "d": 545.4539999999997,
      "v": 84
    },
    {
      "midi": 62,
      "hit": false,
      "t": 6272.721000000003,
      "d": 272.72699999999986,
      "v": 55
    },
    {
      "midi": 64,
      "hit": false,
      "t": 6272.721000000003,
      "d": 272.72699999999986,
      "v": 72
    },
    {
      "midi": 74,
      "hit": false,
      "t": 6545.448000000003,
      "d": 68.18174999999974,
      "v": 77
    },
    {
      "midi": 60,
      "hit": false,
      "t": 6545.448000000003,
      "d": 1090.9079999999994,
      "v": 63
    },
    {
      "midi": 62,
      "hit": false,
      "t": 6545.448000000003,
      "d": 1090.9079999999994,
      "v": 63
    },
    {
      "midi": 66,
      "hit": false,
      "t": 6545.448000000003,
      "d": 1090.9079999999994,
      "v": 70
    },
    {
      "midi": 69,
      "hit": false,
      "t": 6545.448000000003,
      "d": 1090.9079999999994,
      "v": 70
    },
    {
      "midi": 76,
      "hit": false,
      "t": 6681.8115000000025,
      "d": 68.18174999999974,
      "v": 73
    },
    {
      "midi": 74,
      "hit": false,
      "t": 6818.175000000002,
      "d": 68.18174999999974,
      "v": 78
    },
    {
      "midi": 76,
      "hit": false,
      "t": 6954.5385000000015,
      "d": 68.18174999999974,
      "v": 73
    },
    {
      "midi": 78,
      "hit": false,
      "t": 7090.902000000001,
      "d": 136.36350000000039,
      "v": 80
    },
    {
      "midi": 78,
      "hit": false,
      "t": 7363.629000000002,
      "d": 136.36350000000039,
      "v": 72
    },
    {
      "midi": 58,
      "hit": false,
      "t": 7636.3560000000025,
      "d": 68.18174999999974,
      "v": 60
    },
    {
      "midi": 62,
      "hit": false,
      "t": 7636.3560000000025,
      "d": 68.18174999999974,
      "v": 60
    },
    {
      "midi": 74,
      "hit": false,
      "t": 7636.3560000000025,
      "d": 68.18174999999974,
      "v": 80
    },
    {
      "midi": 76,
      "hit": false,
      "t": 7636.3560000000025,
      "d": 68.18174999999974,
      "v": 80
    },
    {
      "midi": 78,
      "hit": false,
      "t": 7772.719500000002,
      "d": 68.18174999999974,
      "v": 81
    },
    {
      "midi": 58,
      "hit": false,
      "t": 7909.083000000001,
      "d": 68.18174999999974,
      "v": 66
    },
    {
      "midi": 79,
      "hit": false,
      "t": 7909.083000000001,
      "d": 68.18174999999974,
      "v": 83
    },
    {
      "midi": 57,
      "hit": false,
      "t": 8045.446500000001,
      "d": 68.18174999999974,
      "v": 68
    },
    {
      "midi": 81,
      "hit": false,
      "t": 8045.446500000001,
      "d": 68.18174999999974,
      "v": 85
    },
    {
      "midi": 55,
      "hit": false,
      "t": 8181.81,
      "d": 272.72699999999986,
      "v": 71
    },
    {
      "midi": 82,
      "hit": false,
      "t": 8181.81,
      "d": 272.72699999999986,
      "v": 86
    },
    {
      "midi": 43,
      "hit": false,
      "t": 8727.264000000001,
      "d": 545.4539999999979,
      "v": 41
    },
    {
      "midi": 51,
      "hit": false,
      "t": 8727.264000000001,
      "d": 545.4539999999979,
      "v": 41
    },
    {
      "midi": 61,
      "hit": false,
      "t": 8863.6275,
      "d": 136.36349999999948,
      "v": 42
    },
    {
      "midi": 63,
      "hit": false,
      "t": 8863.6275,
      "d": 136.36349999999948,
      "v": 42
    },
    {
      "midi": 58,
      "hit": false,
      "t": 8999.991,
      "d": 272.72699999999895,
      "v": 37
    },
    {
      "midi": 61,
      "hit": false,
      "t": 9136.3545,
      "d": 136.36349999999948,
      "v": 42
    },
    {
      "midi": 63,
      "hit": false,
      "t": 9136.3545,
      "d": 136.36349999999948,
      "v": 42
    },
    {
      "midi": 56,
      "hit": false,
      "t": 9272.717999999999,
      "d": 545.4540000000015,
      "v": 43
    },
    {
      "midi": 60,
      "hit": false,
      "t": 9272.717999999999,
      "d": 545.4540000000015,
      "v": 47
    },
    {
      "midi": 44,
      "hit": false,
      "t": 9545.445,
      "d": 272.72700000000077,
      "v": 37
    },
    {
      "midi": 51,
      "hit": false,
      "t": 9545.445,
      "d": 272.72700000000077,
      "v": 37
    },
    {
      "midi": 63,
      "hit": false,
      "t": 9545.445,
      "d": 272.72700000000077,
      "v": 42
    },
    {
      "midi": 72,
      "hit": false,
      "t": 9545.445,
      "d": 272.72700000000077,
      "v": 42
    },
    {
      "midi": 45,
      "hit": false,
      "t": 9818.172,
      "d": 545.4539999999997,
      "v": 44
    },
    {
      "midi": 53,
      "hit": false,
      "t": 9818.172,
      "d": 545.4539999999997,
      "v": 44
    },
    {
      "midi": 63,
      "hit": false,
      "t": 9954.535500000002,
      "d": 136.36349999999948,
      "v": 46
    },
    {
      "midi": 65,
      "hit": false,
      "t": 9954.535500000002,
      "d": 136.36349999999948,
      "v": 46
    },
    {
      "midi": 60,
      "hit": false,
      "t": 10090.899000000001,
      "d": 272.72699999999895,
      "v": 40
    },
    {
      "midi": 63,
      "hit": false,
      "t": 10227.2625,
      "d": 136.36349999999948,
      "v": 46
    },
    {
      "midi": 65,
      "hit": false,
      "t": 10227.2625,
      "d": 136.36349999999948,
      "v": 46
    },
    {
      "midi": 58,
      "hit": false,
      "t": 10363.626,
      "d": 545.4540000000015,
      "v": 48
    },
    {
      "midi": 62,
      "hit": false,
      "t": 10363.626,
      "d": 545.4540000000015,
      "v": 52
    },
    {
      "midi": 46,
      "hit": false,
      "t": 10636.353000000001,
      "d": 272.72700000000077,
      "v": 40
    },
    {
      "midi": 53,
      "hit": false,
      "t": 10636.353000000001,
      "d": 272.72700000000077,
      "v": 40
    },
    {
      "midi": 65,
      "hit": false,
      "t": 10636.353000000001,
      "d": 272.72700000000077,
      "v": 41
    },
    {
      "midi": 74,
      "hit": false,
      "t": 10636.353000000001,
      "d": 272.72700000000077,
      "v": 47
    },
    {
      "midi": 47,
      "hit": false,
      "t": 10909.080000000002,
      "d": 272.72700000000077,
      "v": 45
    },
    {
      "midi": 55,
      "hit": false,
      "t": 10909.080000000002,
      "d": 545.4540000000015,
      "v": 45
    },
    {
      "midi": 62,
      "hit": false,
      "t": 10909.080000000002,
      "d": 545.4540000000015,
      "v": 49
    },
    {
      "midi": 59,
      "hit": false,
      "t": 11181.807000000003,
      "d": 272.72700000000077,
      "v": 38
    },
    {
      "midi": 65,
      "hit": false,
      "t": 11181.807000000003,
      "d": 272.72700000000077,
      "v": 38
    },
    {
      "midi": 67,
      "hit": false,
      "t": 11181.807000000003,
      "d": 272.72700000000077,
      "v": 38
    },
    {
      "midi": 74,
      "hit": false,
      "t": 11181.807000000003,
      "d": 272.72700000000077,
      "v": 41
    },
    {
      "midi": 48,
      "hit": false,
      "t": 11454.534000000003,
      "d": 272.72700000000077,
      "v": 47
    },
    {
      "midi": 55,
      "hit": false,
      "t": 11454.534000000003,
      "d": 545.4540000000015,
      "v": 47
    },
    {
      "midi": 63,
      "hit": false,
      "t": 11454.534000000003,
      "d": 545.4540000000015,
      "v": 50
    },
    {
      "midi": 60,
      "hit": false,
      "t": 11727.261000000004,
      "d": 272.72700000000077,
      "v": 39
    },
    {
      "midi": 67,
      "hit": false,
      "t": 11727.261000000004,
      "d": 272.72700000000077,
      "v": 38
    },
    {
      "midi": 75,
      "hit": false,
      "t": 11727.261000000004,
      "d": 272.72700000000077,
      "v": 43
    },
    {
      "midi": 50,
      "hit": false,
      "t": 11999.988000000005,
      "d": 272.72699999999895,
      "v": 49
    },
    {
      "midi": 55,
      "hit": false,
      "t": 11999.988000000005,
      "d": 545.4539999999997,
      "v": 49
    },
    {
      "midi": 65,
      "hit": false,
      "t": 11999.988000000005,
      "d": 545.4539999999997,
      "v": 54
    },
    {
      "midi": 62,
      "hit": false,
      "t": 12272.715000000004,
      "d": 272.72700000000077,
      "v": 41
    },
    {
      "midi": 71,
      "hit": false,
      "t": 12272.715000000004,
      "d": 272.72700000000077,
      "v": 38
    },
    {
      "midi": 79,
      "hit": false,
      "t": 12272.715000000004,
      "d": 272.72700000000077,
      "v": 43
    },
    {
      "midi": 48,
      "hit": false,
      "t": 12545.442000000005,
      "d": 272.72700000000077,
      "v": 47
    },
    {
      "midi": 55,
      "hit": false,
      "t": 12545.442000000005,
      "d": 545.4540000000015,
      "v": 47
    },
    {
      "midi": 63,
      "hit": false,
      "t": 12545.442000000005,
      "d": 545.4540000000015,
      "v": 53
    },
    {
      "midi": 60,
      "hit": false,
      "t": 12818.169000000005,
      "d": 272.72700000000077,
      "v": 40
    },
    {
      "midi": 67,
      "hit": false,
      "t": 12818.169000000005,
      "d": 272.72700000000077,
      "v": 40
    },
    {
      "midi": 75,
      "hit": false,
      "t": 12818.169000000005,
      "d": 272.72700000000077,
      "v": 45
    },
    {
      "midi": 47,
      "hit": false,
      "t": 13090.896000000006,
      "d": 545.4539999999997,
      "v": 46
    },
    {
      "midi": 55,
      "hit": false,
      "t": 13090.896000000006,
      "d": 545.4539999999997,
      "v": 46
    },
    {
      "midi": 65,
      "hit": false,
      "t": 13227.259500000007,
      "d": 136.36349999999948,
      "v": 47
    },
    {
      "midi": 67,
      "hit": false,
      "t": 13227.259500000007,
      "d": 136.36349999999948,
      "v": 47
    },
    {
      "midi": 62,
      "hit": false,
      "t": 13363.623000000007,
      "d": 272.72699999999895,
      "v": 42
    },
    {
      "midi": 65,
      "hit": false,
      "t": 13499.986500000006,
      "d": 136.36349999999948,
      "v": 48
    },
    {
      "midi": 67,
      "hit": false,
      "t": 13499.986500000006,
      "d": 136.36349999999948,
      "v": 48
    },
    {
      "midi": 60,
      "hit": false,
      "t": 13636.350000000006,
      "d": 545.4540000000015,
      "v": 51
    },
    {
      "midi": 64,
      "hit": false,
      "t": 13636.350000000006,
      "d": 545.4540000000015,
      "v": 53
    },
    {
      "midi": 48,
      "hit": false,
      "t": 13909.077000000007,
      "d": 272.72700000000077,
      "v": 42
    },
    {
      "midi": 55,
      "hit": false,
      "t": 13909.077000000007,
      "d": 272.72700000000077,
      "v": 42
    },
    {
      "midi": 67,
      "hit": false,
      "t": 13909.077000000007,
      "d": 272.72700000000077,
      "v": 43
    },
    {
      "midi": 76,
      "hit": false,
      "t": 13909.077000000007,
      "d": 272.72700000000077,
      "v": 48
    },
    {
      "midi": 49,
      "hit": false,
      "t": 14181.804000000007,
      "d": 545.4539999999997,
      "v": 52
    },
    {
      "midi": 57,
      "hit": false,
      "t": 14181.804000000007,
      "d": 545.4539999999997,
      "v": 52
    },
    {
      "midi": 67,
      "hit": false,
      "t": 14318.167500000009,
      "d": 136.36349999999948,
      "v": 53
    },
    {
      "midi": 69,
      "hit": false,
      "t": 14318.167500000009,
      "d": 136.36349999999948,
      "v": 53
    },
    {
      "midi": 64,
      "hit": false,
      "t": 14454.531000000008,
      "d": 272.72699999999895,
      "v": 46
    },
    {
      "midi": 67,
      "hit": false,
      "t": 14590.894500000008,
      "d": 136.36349999999948,
      "v": 53
    },
    {
      "midi": 69,
      "hit": false,
      "t": 14590.894500000008,
      "d": 136.36349999999948,
      "v": 53
    },
    {
      "midi": 62,
      "hit": false,
      "t": 14727.258000000007,
      "d": 545.4540000000015,
      "v": 54
    },
    {
      "midi": 65,
      "hit": false,
      "t": 14727.258000000007,
      "d": 545.4540000000015,
      "v": 58
    },
    {
      "midi": 50,
      "hit": false,
      "t": 14999.985000000008,
      "d": 272.72700000000077,
      "v": 47
    },
    {
      "midi": 57,
      "hit": false,
      "t": 14999.985000000008,
      "d": 272.72700000000077,
      "v": 47
    },
    {
      "midi": 69,
      "hit": false,
      "t": 14999.985000000008,
      "d": 272.72700000000077,
      "v": 47
    },
    {
      "midi": 77,
      "hit": false,
      "t": 14999.985000000008,
      "d": 272.72700000000077,
      "v": 53
    },
    {
      "midi": 49,
      "hit": false,
      "t": 15272.712000000009,
      "d": 272.72700000000077,
      "v": 54
    },
    {
      "midi": 57,
      "hit": false,
      "t": 15272.712000000009,
      "d": 545.4540000000015,
      "v": 54
    },
    {
      "midi": 64,
      "hit": false,
      "t": 15272.712000000009,
      "d": 545.4540000000015,
      "v": 58
    },
    {
      "midi": 61,
      "hit": false,
      "t": 15545.43900000001,
      "d": 272.72700000000077,
      "v": 46
    },
    {
      "midi": 67,
      "hit": false,
      "t": 15545.43900000001,
      "d": 272.72700000000077,
      "v": 44
    },
    {
      "midi": 69,
      "hit": false,
      "t": 15545.43900000001,
      "d": 272.72700000000077,
      "v": 44
    },
    {
      "midi": 76,
      "hit": false,
      "t": 15545.43900000001,
      "d": 272.72700000000077,
      "v": 49
    },
    {
      "midi": 50,
      "hit": false,
      "t": 15818.16600000001,
      "d": 272.72700000000077,
      "v": 56
    },
    {
      "midi": 57,
      "hit": false,
      "t": 15818.16600000001,
      "d": 545.4540000000015,
      "v": 56
    },
    {
      "midi": 65,
      "hit": false,
      "t": 15818.16600000001,
      "d": 545.4540000000015,
      "v": 59
    },
    {
      "midi": 62,
      "hit": false,
      "t": 16090.893000000011,
      "d": 272.72700000000077,
      "v": 47
    },
    {
      "midi": 69,
      "hit": false,
      "t": 16090.893000000011,
      "d": 272.72700000000077,
      "v": 46
    },
    {
      "midi": 77,
      "hit": false,
      "t": 16090.893000000011,
      "d": 272.72700000000077,
      "v": 52
    },
    {
      "midi": 52,
      "hit": false,
      "t": 16363.620000000012,
      "d": 272.72700000000077,
      "v": 57
    },
    {
      "midi": 57,
      "hit": false,
      "t": 16363.620000000012,
      "d": 545.4539999999997,
      "v": 57
    },
    {
      "midi": 67,
      "hit": false,
      "t": 16363.620000000012,
      "d": 545.4539999999997,
      "v": 65
    },
    {
      "midi": 64,
      "hit": false,
      "t": 16636.347000000012,
      "d": 272.72699999999895,
      "v": 49
    },
    {
      "midi": 73,
      "hit": false,
      "t": 16636.347000000012,
      "d": 272.72699999999895,
      "v": 46
    },
    {
      "midi": 81,
      "hit": false,
      "t": 16636.347000000012,
      "d": 272.72699999999895,
      "v": 53
    },
    {
      "midi": 50,
      "hit": false,
      "t": 16909.07400000001,
      "d": 272.7270000000026,
      "v": 56
    },
    {
      "midi": 57,
      "hit": false,
      "t": 16909.07400000001,
      "d": 545.4540000000015,
      "v": 56
    },
    {
      "midi": 65,
      "hit": false,
      "t": 16909.07400000001,
      "d": 545.4540000000015,
      "v": 62
    },
    {
      "midi": 62,
      "hit": false,
      "t": 17181.801000000014,
      "d": 272.72699999999895,
      "v": 48
    },
    {
      "midi": 69,
      "hit": false,
      "t": 17181.801000000014,
      "d": 272.72699999999895,
      "v": 48
    },
    {
      "midi": 77,
      "hit": false,
      "t": 17181.801000000014,
      "d": 272.72699999999895,
      "v": 55
    },
    {
      "midi": 49,
      "hit": false,
      "t": 17454.528000000013,
      "d": 272.72699999999895,
      "v": 58
    },
    {
      "midi": 57,
      "hit": false,
      "t": 17454.528000000013,
      "d": 545.4539999999979,
      "v": 58
    },
    {
      "midi": 64,
      "hit": false,
      "t": 17454.528000000013,
      "d": 545.4539999999979,
      "v": 66
    },
    {
      "midi": 61,
      "hit": false,
      "t": 17727.255000000012,
      "d": 272.72699999999895,
      "v": 49
    },
    {
      "midi": 67,
      "hit": false,
      "t": 17727.255000000012,
      "d": 272.72699999999895,
      "v": 50
    },
    {
      "midi": 69,
      "hit": false,
      "t": 17727.255000000012,
      "d": 272.72699999999895,
      "v": 50
    },
    {
      "midi": 76,
      "hit": false,
      "t": 17727.255000000012,
      "d": 272.72699999999895,
      "v": 57
    },
    {
      "midi": 50,
      "hit": false,
      "t": 17999.98200000001,
      "d": 272.7270000000026,
      "v": 61
    },
    {
      "midi": 57,
      "hit": false,
      "t": 17999.98200000001,
      "d": 545.4540000000015,
      "v": 61
    },
    {
      "midi": 65,
      "hit": false,
      "t": 17999.98200000001,
      "d": 545.4540000000015,
      "v": 66
    },
    {
      "midi": 62,
      "hit": false,
      "t": 18272.709000000013,
      "d": 272.72699999999895,
      "v": 52
    },
    {
      "midi": 69,
      "hit": false,
      "t": 18272.709000000013,
      "d": 272.72699999999895,
      "v": 50
    },
    {
      "midi": 77,
      "hit": false,
      "t": 18272.709000000013,
      "d": 272.72699999999895,
      "v": 57
    },
    {
      "midi": 51,
      "hit": false,
      "t": 18545.436000000012,
      "d": 272.72699999999895,
      "v": 63
    },
    {
      "midi": 59,
      "hit": false,
      "t": 18545.436000000012,
      "d": 545.4539999999979,
      "v": 63
    },
    {
      "midi": 69,
      "hit": false,
      "t": 18545.436000000012,
      "d": 545.4539999999979,
      "v": 70
    },
    {
      "midi": 63,
      "hit": false,
      "t": 18818.16300000001,
      "d": 272.72699999999895,
      "v": 53
    },
    {
      "midi": 78,
      "hit": false,
      "t": 18818.16300000001,
      "d": 272.72699999999895,
      "v": 50
    },
    {
      "midi": 83,
      "hit": false,
      "t": 18818.16300000001,
      "d": 272.72699999999895,
      "v": 57
    },
    {
      "midi": 52,
      "hit": false,
      "t": 19090.89000000001,
      "d": 272.72699999999895,
      "v": 60
    },
    {
      "midi": 59,
      "hit": false,
      "t": 19090.89000000001,
      "d": 545.4539999999979,
      "v": 60
    },
    {
      "midi": 67,
      "hit": false,
      "t": 19090.89000000001,
      "d": 545.4539999999979,
      "v": 67
    },
    {
      "midi": 64,
      "hit": false,
      "t": 19363.61700000001,
      "d": 272.72699999999895,
      "v": 52
    },
    {
      "midi": 71,
      "hit": false,
      "t": 19363.61700000001,
      "d": 272.72699999999895,
      "v": 53
    },
    {
      "midi": 79,
      "hit": false,
      "t": 19363.61700000001,
      "d": 272.72699999999895,
      "v": 59
    },
    {
      "midi": 51,
      "hit": false,
      "t": 19636.34400000001,
      "d": 272.72699999999895,
      "v": 64
    },
    {
      "midi": 59,
      "hit": false,
      "t": 19636.34400000001,
      "d": 545.4539999999979,
      "v": 64
    },
    {
      "midi": 66,
      "hit": false,
      "t": 19636.34400000001,
      "d": 545.4539999999979,
      "v": 71
    },
    {
      "midi": 63,
      "hit": false,
      "t": 19909.071000000007,
      "d": 272.72699999999895,
      "v": 54
    },
    {
      "midi": 69,
      "hit": false,
      "t": 19909.071000000007,
      "d": 272.72699999999895,
      "v": 57
    },
    {
      "midi": 71,
      "hit": false,
      "t": 19909.071000000007,
      "d": 272.72699999999895,
      "v": 57
    },
    {
      "midi": 78,
      "hit": false,
      "t": 19909.071000000007,
      "d": 272.72699999999895,
      "v": 64
    },
    {
      "midi": 52,
      "hit": false,
      "t": 20181.798000000006,
      "d": 272.72699999999895,
      "v": 66
    },
    {
      "midi": 59,
      "hit": false,
      "t": 20181.798000000006,
      "d": 545.4539999999979,
      "v": 66
    },
    {
      "midi": 67,
      "hit": false,
      "t": 20181.798000000006,
      "d": 545.4539999999979,
      "v": 74
    },
    {
      "midi": 64,
      "hit": false,
      "t": 20454.525000000005,
      "d": 272.72699999999895,
      "v": 56
    },
    {
      "midi": 71,
      "hit": false,
      "t": 20454.525000000005,
      "d": 272.72699999999895,
      "v": 58
    },
    {
      "midi": 79,
      "hit": false,
      "t": 20454.525000000005,
      "d": 272.72699999999895,
      "v": 64
    },
    {
      "midi": 53,
      "hit": false,
      "t": 20727.252000000004,
      "d": 272.7270000000026,
      "v": 67
    },
    {
      "midi": 61,
      "hit": false,
      "t": 20727.252000000004,
      "d": 545.4540000000015,
      "v": 67
    },
    {
      "midi": 71,
      "hit": false,
      "t": 20727.252000000004,
      "d": 545.4540000000015,
      "v": 76
    },
    {
      "midi": 65,
      "hit": false,
      "t": 20999.979000000007,
      "d": 272.72699999999895,
      "v": 57
    },
    {
      "midi": 80,
      "hit": false,
      "t": 20999.979000000007,
      "d": 272.72699999999895,
      "v": 58
    },
    {
      "midi": 85,
      "hit": false,
      "t": 20999.979000000007,
      "d": 272.72699999999895,
      "v": 65
    },
    {
      "midi": 54,
      "hit": false,
      "t": 21272.706000000006,
      "d": 272.72699999999895,
      "v": 65
    },
    {
      "midi": 61,
      "hit": false,
      "t": 21272.706000000006,
      "d": 545.4539999999979,
      "v": 65
    },
    {
      "midi": 69,
      "hit": false,
      "t": 21272.706000000006,
      "d": 545.4539999999979,
      "v": 75
    },
    {
      "midi": 66,
      "hit": false,
      "t": 21545.433000000005,
      "d": 272.72699999999895,
      "v": 56
    },
    {
      "midi": 73,
      "hit": false,
      "t": 21545.433000000005,
      "d": 272.72699999999895,
      "v": 60
    },
    {
      "midi": 81,
      "hit": false,
      "t": 21545.433000000005,
      "d": 272.72699999999895,
      "v": 67
    },
    {
      "midi": 54,
      "hit": false,
      "t": 21818.160000000003,
      "d": 272.72699999999895,
      "v": 72
    },
    {
      "midi": 62,
      "hit": false,
      "t": 21818.160000000003,
      "d": 545.4539999999979,
      "v": 72
    },
    {
      "midi": 72,
      "hit": false,
      "t": 21818.160000000003,
      "d": 545.4539999999979,
      "v": 82
    },
    {
      "midi": 66,
      "hit": false,
      "t": 22090.887000000002,
      "d": 272.72699999999895,
      "v": 60
    },
    {
      "midi": 81,
      "hit": false,
      "t": 22090.887000000002,
      "d": 272.72699999999895,
      "v": 60
    },
    {
      "midi": 86,
      "hit": false,
      "t": 22090.887000000002,
      "d": 272.72699999999895,
      "v": 69
    },
    {
      "midi": 55,
      "hit": false,
      "t": 22363.614,
      "d": 272.72699999999895,
      "v": 70
    },
    {
      "midi": 62,
      "hit": false,
      "t": 22363.614,
      "d": 545.4539999999979,
      "v": 70
    },
    {
      "midi": 71,
      "hit": false,
      "t": 22363.614,
      "d": 545.4539999999979,
      "v": 78
    },
    {
      "midi": 67,
      "hit": false,
      "t": 22636.341,
      "d": 272.72699999999895,
      "v": 60
    },
    {
      "midi": 74,
      "hit": false,
      "t": 22636.341,
      "d": 272.72699999999895,
      "v": 65
    },
    {
      "midi": 83,
      "hit": false,
      "t": 22636.341,
      "d": 272.72699999999895,
      "v": 72
    },
    {
      "midi": 54,
      "hit": false,
      "t": 22909.068,
      "d": 272.72699999999895,
      "v": 73
    },
    {
      "midi": 62,
      "hit": false,
      "t": 22909.068,
      "d": 545.4539999999979,
      "v": 73
    },
    {
      "midi": 72,
      "hit": false,
      "t": 22909.068,
      "d": 545.4539999999979,
      "v": 83
    },
    {
      "midi": 66,
      "hit": false,
      "t": 23181.795,
      "d": 272.72699999999895,
      "v": 61
    },
    {
      "midi": 81,
      "hit": false,
      "t": 23181.795,
      "d": 272.72699999999895,
      "v": 61
    },
    {
      "midi": 86,
      "hit": false,
      "t": 23181.795,
      "d": 272.72699999999895,
      "v": 70
    },
    {
      "midi": 55,
      "hit": false,
      "t": 23454.521999999997,
      "d": 272.7269999999953,
      "v": 71
    },
    {
      "midi": 62,
      "hit": false,
      "t": 23454.521999999997,
      "d": 545.4539999999943,
      "v": 71
    },
    {
      "midi": 71,
      "hit": false,
      "t": 23454.521999999997,
      "d": 545.4539999999943,
      "v": 79
    },
    {
      "midi": 67,
      "hit": false,
      "t": 23727.248999999993,
      "d": 272.72699999999895,
      "v": 60
    },
    {
      "midi": 74,
      "hit": false,
      "t": 23727.248999999993,
      "d": 272.72699999999895,
      "v": 61
    },
    {
      "midi": 83,
      "hit": false,
      "t": 23727.248999999993,
      "d": 272.72699999999895,
      "v": 70
    },
    {
      "midi": 88,
      "hit": false,
      "t": 23999.97599999999,
      "d": 68.18174999999974,
      "v": 86
    },
    {
      "midi": 67,
      "hit": false,
      "t": 23999.97599999999,
      "d": 136.36349999999948,
      "v": 69
    },
    {
      "midi": 70,
      "hit": false,
      "t": 23999.97599999999,
      "d": 136.36349999999948,
      "v": 69
    },
    {
      "midi": 74,
      "hit": false,
      "t": 23999.97599999999,
      "d": 136.36349999999948,
      "v": 77
    },
    {
      "midi": 86,
      "hit": false,
      "t": 24136.33949999999,
      "d": 68.18174999999974,
      "v": 74
    },
    {
      "midi": 82,
      "hit": false,
      "t": 24272.70299999999,
      "d": 68.18174999999974,
      "v": 80
    },
    {
      "midi": 81,
      "hit": false,
      "t": 24409.06649999999,
      "d": 68.18174999999974,
      "v": 72
    },
    {
      "midi": 76,
      "hit": false,
      "t": 24545.42999999999,
      "d": 68.18174999999974,
      "v": 79
    },
    {
      "midi": 79,
      "hit": false,
      "t": 24545.42999999999,
      "d": 136.36349999999948,
      "v": 77
    },
    {
      "midi": 74,
      "hit": false,
      "t": 24681.79349999999,
      "d": 68.18174999999974,
      "v": 71
    },
    {
      "midi": 70,
      "hit": false,
      "t": 24818.15699999999,
      "d": 68.18174999999974,
      "v": 74
    },
    {
      "midi": 69,
      "hit": false,
      "t": 24954.520499999988,
      "d": 68.18174999999974,
      "v": 68
    },
    {
      "midi": 64,
      "hit": false,
      "t": 25090.883999999987,
      "d": 68.18174999999974,
      "v": 74
    },
    {
      "midi": 67,
      "hit": false,
      "t": 25090.883999999987,
      "d": 136.36349999999948,
      "v": 82
    },
    {
      "midi": 62,
      "hit": false,
      "t": 25227.247499999987,
      "d": 68.18174999999974,
      "v": 63
    },
    {
      "midi": 58,
      "hit": false,
      "t": 25363.610999999986,
      "d": 68.18174999999974,
      "v": 70
    },
    {
      "midi": 57,
      "hit": false,
      "t": 25499.974499999986,
      "d": 68.18174999999974,
      "v": 64
    },
    {
      "midi": 52,
      "hit": false,
      "t": 25636.337999999985,
      "d": 68.18174999999974,
      "v": 71
    },
    {
      "midi": 55,
      "hit": false,
      "t": 25636.337999999985,
      "d": 136.36349999999948,
      "v": 75
    },
    {
      "midi": 50,
      "hit": false,
      "t": 25772.701499999985,
      "d": 68.18174999999974,
      "v": 62
    },
    {
      "midi": 46,
      "hit": false,
      "t": 25909.064999999984,
      "d": 68.18174999999974,
      "v": 66
    },
    {
      "midi": 45,
      "hit": false,
      "t": 26045.428499999984,
      "d": 68.18174999999974,
      "v": 58
    },
    {
      "midi": 43,
      "hit": false,
      "t": 26181.791999999983,
      "d": 136.36349999999948,
      "v": 75
    },
    {
      "midi": 43,
      "hit": false,
      "t": 26454.518999999982,
      "d": 136.36349999999948,
      "v": 69
    },
    {
      "midi": 44,
      "hit": false,
      "t": 26727.24599999998,
      "d": 136.36349999999948,
      "v": 74
    },
    {
      "midi": 62,
      "hit": false,
      "t": 26727.24599999998,
      "d": 818.1809999999969,
      "v": 72
    },
    {
      "midi": 64,
      "hit": false,
      "t": 26727.24599999998,
      "d": 818.1809999999969,
      "v": 72
    },
    {
      "midi": 45,
      "hit": false,
      "t": 26863.60949999998,
      "d": 136.36349999999948,
      "v": 62
    },
    {
      "midi": 46,
      "hit": false,
      "t": 26999.97299999998,
      "d": 136.36349999999948,
      "v": 68
    },
    {
      "midi": 44,
      "hit": false,
      "t": 27136.33649999998,
      "d": 136.36349999999948,
      "v": 60
    },
    {
      "midi": 45,
      "hit": false,
      "t": 27272.69999999998,
      "d": 272.72699999999895,
      "v": 73
    },
    {
      "midi": 45,
      "hit": false,
      "t": 27545.426999999978,
      "d": 204.54525000000285,
      "v": 71
    },
    {
      "midi": 55,
      "hit": false,
      "t": 27545.426999999978,
      "d": 204.54525000000285,
      "v": 71
    },
    {
      "midi": 61,
      "hit": false,
      "t": 27545.426999999978,
      "d": 204.54525000000285,
      "v": 80
    },
    {
      "midi": 64,
      "hit": false,
      "t": 27545.426999999978,
      "d": 204.54525000000285,
      "v": 80
    },
    {
      "midi": 69,
      "hit": false,
      "t": 27545.426999999978,
      "d": 204.54525000000285,
      "v": 80
    },
    {
      "midi": 50,
      "hit": false,
      "t": 27818.15399999998,
      "d": 272.72699999999895,
      "v": 77
    },
    {
      "midi": 54,
      "hit": false,
      "t": 27818.15399999998,
      "d": 272.72699999999895,
      "v": 77
    },
    {
      "midi": 62,
      "hit": false,
      "t": 27818.15399999998,
      "d": 272.72699999999895,
      "v": 86
    },
    {
      "midi": 69,
      "hit": false,
      "t": 27818.15399999998,
      "d": 272.72699999999895,
      "v": 86
    },
    {
      "midi": 74,
      "hit": false,
      "t": 27818.15399999998,
      "d": 272.72699999999895,
      "v": 86
    },
    {
      "midi": 78,
      "hit": false,
      "t": 28363.60799999998,
      "d": 68.18174999999974,
      "v": 78
    },
    {
      "midi": 76,
      "hit": false,
      "t": 28499.971499999978,
      "d": 68.18174999999974,
      "v": 71
    },
    {
      "midi": 74,
      "hit": false,
      "t": 28636.334999999977,
      "d": 68.18174999999974,
      "v": 73
    },
    {
      "midi": 73,
      "hit": false,
      "t": 28772.698499999977,
      "d": 68.18174999999974,
      "v": 68
    },
    {
      "midi": 59,
      "hit": false,
      "t": 28909.061999999976,
      "d": 272.72699999999895,
      "v": 50
    },
    {
      "midi": 62,
      "hit": false,
      "t": 28909.061999999976,
      "d": 272.72699999999895,
      "v": 50
    },
    {
      "midi": 66,
      "hit": false,
      "t": 28909.061999999976,
      "d": 272.72699999999895,
      "v": 57
    },
    {
      "midi": 71,
      "hit": false,
      "t": 28909.061999999976,
      "d": 272.72699999999895,
      "v": 75
    },
    {
      "midi": 73,
      "hit": false,
      "t": 29181.788999999975,
      "d": 272.7270000000026,
      "v": 66
    },
    {
      "midi": 54,
      "hit": false,
      "t": 29454.515999999978,
      "d": 68.18174999999974,
      "v": 70
    },
    {
      "midi": 61,
      "hit": false,
      "t": 29454.515999999978,
      "d": 545.4539999999979,
      "v": 77
    },
    {
      "midi": 52,
      "hit": false,
      "t": 29590.879499999977,
      "d": 68.18174999999974,
      "v": 60
    },
    {
      "midi": 50,
      "hit": false,
      "t": 29727.242999999977,
      "d": 68.18174999999974,
      "v": 62
    },
    {
      "midi": 66,
      "hit": false,
      "t": 29727.242999999977,
      "d": 272.72699999999895,
      "v": 69
    },
    {
      "midi": 70,
      "hit": false,
      "t": 29727.242999999977,
      "d": 272.72699999999895,
      "v": 69
    },
    {
      "midi": 49,
      "hit": false,
      "t": 29863.606499999976,
      "d": 68.18174999999974,
      "v": 58
    },
    {
      "midi": 47,
      "hit": false,
      "t": 29999.969999999976,
      "d": 136.36349999999948,
      "v": 69
    },
    {
      "midi": 62,
      "hit": false,
      "t": 29999.969999999976,
      "d": 545.4540000000015,
      "v": 77
    },
    {
      "midi": 66,
      "hit": false,
      "t": 30272.696999999975,
      "d": 272.7270000000026,
      "v": 69
    },
    {
      "midi": 71,
      "hit": false,
      "t": 30272.696999999975,
      "d": 272.7270000000026,
      "v": 69
    },
    {
      "midi": 55,
      "hit": false,
      "t": 30545.423999999977,
      "d": 272.72699999999895,
      "v": 47
    },
    {
      "midi": 59,
      "hit": false,
      "t": 30545.423999999977,
      "d": 545.4539999999979,
      "v": 52
    },
    {
      "midi": 61,
      "hit": false,
      "t": 30545.423999999977,
      "d": 545.4539999999979,
      "v": 71
    },
    {
      "midi": 73,
      "hit": false,
      "t": 30681.787499999977,
      "d": 136.36349999999948,
      "v": 52
    },
    {
      "midi": 67,
      "hit": false,
      "t": 30818.150999999976,
      "d": 136.36349999999948,
      "v": 59
    },
    {
      "midi": 47,
      "hit": false,
      "t": 30818.150999999976,
      "d": 272.72699999999895,
      "v": 44
    },
    {
      "midi": 71,
      "hit": false,
      "t": 30954.514499999976,
      "d": 136.36349999999948,
      "v": 55
    },
    {
      "midi": 54,
      "hit": false,
      "t": 31090.877999999975,
      "d": 272.7270000000026,
      "v": 48
    },
    {
      "midi": 59,
      "hit": false,
      "t": 31090.877999999975,
      "d": 545.4540000000015,
      "v": 55
    },
    {
      "midi": 62,
      "hit": false,
      "t": 31090.877999999975,
      "d": 545.4540000000015,
      "v": 66
    },
    {
      "midi": 74,
      "hit": false,
      "t": 31227.24149999998,
      "d": 136.36349999999948,
      "v": 59
    },
    {
      "midi": 66,
      "hit": false,
      "t": 31363.604999999978,
      "d": 136.36349999999948,
      "v": 62
    },
    {
      "midi": 45,
      "hit": false,
      "t": 31363.604999999978,
      "d": 272.72699999999895,
      "v": 45
    },
    {
      "midi": 71,
      "hit": false,
      "t": 31499.968499999977,
      "d": 136.36349999999948,
      "v": 59
    },
    {
      "midi": 52,
      "hit": false,
      "t": 31636.331999999977,
      "d": 272.72699999999895,
      "v": 49
    },
    {
      "midi": 55,
      "hit": false,
      "t": 31636.331999999977,
      "d": 272.72699999999895,
      "v": 49
    },
    {
      "midi": 59,
      "hit": false,
      "t": 31636.331999999977,
      "d": 545.4539999999979,
      "v": 56
    },
    {
      "midi": 67,
      "hit": false,
      "t": 31636.331999999977,
      "d": 545.4539999999979,
      "v": 73
    },
    {
      "midi": 79,
      "hit": false,
      "t": 31772.695499999976,
      "d": 136.36349999999948,
      "v": 60
    },
    {
      "midi": 71,
      "hit": false,
      "t": 31909.058999999976,
      "d": 136.36349999999948,
      "v": 66
    },
    {
      "midi": 47,
      "hit": false,
      "t": 31909.058999999976,
      "d": 272.72699999999895,
      "v": 46
    },
    {
      "midi": 76,
      "hit": false,
      "t": 32045.422499999975,
      "d": 136.36349999999948,
      "v": 59
    },
    {
      "midi": 50,
      "hit": false,
      "t": 32181.785999999975,
      "d": 272.72699999999895,
      "v": 41
    },
    {
      "midi": 54,
      "hit": false,
      "t": 32181.785999999975,
      "d": 272.72699999999895,
      "v": 41
    },
    {
      "midi": 59,
      "hit": false,
      "t": 32181.785999999975,
      "d": 545.4539999999979,
      "v": 47
    },
    {
      "midi": 66,
      "hit": false,
      "t": 32181.785999999975,
      "d": 545.4539999999979,
      "v": 70
    },
    {
      "midi": 78,
      "hit": false,
      "t": 32318.149499999974,
      "d": 136.36349999999948,
      "v": 53
    },
    {
      "midi": 71,
      "hit": false,
      "t": 32454.512999999974,
      "d": 136.36349999999948,
      "v": 58
    },
    {
      "midi": 47,
      "hit": false,
      "t": 32454.512999999974,
      "d": 272.72699999999895,
      "v": 36
    },
    {
      "midi": 74,
      "hit": false,
      "t": 32590.876499999973,
      "d": 136.36349999999948,
      "v": 52
    },
    {
      "midi": 78,
      "hit": false,
      "t": 32727.239999999972,
      "d": 68.18174999999974,
      "v": 73
    },
    {
      "midi": 76,
      "hit": false,
      "t": 32863.603499999976,
      "d": 68.18175000000338,
      "v": 67
    },
    {
      "midi": 74,
      "hit": false,
      "t": 32999.96699999998,
      "d": 68.18175000000338,
      "v": 70
    },
    {
      "midi": 73,
      "hit": false,
      "t": 33136.33049999999,
      "d": 68.18175000000338,
      "v": 63
    },
    {
      "midi": 59,
      "hit": false,
      "t": 33272.693999999996,
      "d": 272.7270000000062,
      "v": 50
    },
    {
      "midi": 62,
      "hit": false,
      "t": 33272.693999999996,
      "d": 272.7270000000062,
      "v": 50
    },
    {
      "midi": 66,
      "hit": false,
      "t": 33272.693999999996,
      "d": 272.7270000000062,
      "v": 57
    },
    {
      "midi": 71,
      "hit": false,
      "t": 33272.693999999996,
      "d": 272.7270000000062,
      "v": 75
    },
    {
      "midi": 73,
      "hit": false,
      "t": 33545.421,
      "d": 272.72699999999895,
      "v": 66
    },
    {
      "midi": 54,
      "hit": false,
      "t": 33818.148,
      "d": 68.18175000000338,
      "v": 64
    },
    {
      "midi": 61,
      "hit": false,
      "t": 33818.148,
      "d": 545.454000000027,
      "v": 77
    },
    {
      "midi": 52,
      "hit": false,
      "t": 33954.51150000001,
      "d": 68.18175000000338,
      "v": 58
    },
    {
      "midi": 50,
      "hit": false,
      "t": 34090.875000000015,
      "d": 68.18175000000338,
      "v": 62
    },
    {
      "midi": 66,
      "hit": false,
      "t": 34090.875000000015,
      "d": 272.7270000000135,
      "v": 69
    },
    {
      "midi": 70,
      "hit": false,
      "t": 34090.875000000015,
      "d": 272.7270000000135,
      "v": 69
    },
    {
      "midi": 49,
      "hit": false,
      "t": 34227.23850000002,
      "d": 68.18175000000338,
      "v": 58
    },
    {
      "midi": 47,
      "hit": false,
      "t": 34363.60200000003,
      "d": 136.36349999999948,
      "v": 63
    },
    {
      "midi": 62,
      "hit": false,
      "t": 34363.60200000003,
      "d": 545.4539999999979,
      "v": 77
    },
    {
      "midi": 66,
      "hit": false,
      "t": 34636.32900000003,
      "d": 272.72699999999895,
      "v": 69
    },
    {
      "midi": 71,
      "hit": false,
      "t": 34636.32900000003,
      "d": 272.72699999999895,
      "v": 69
    },
    {
      "midi": 55,
      "hit": false,
      "t": 34909.056000000026,
      "d": 272.72699999999895,
      "v": 47
    },
    {
      "midi": 59,
      "hit": false,
      "t": 34909.056000000026,
      "d": 545.4539999999979,
      "v": 52
    },
    {
      "midi": 61,
      "hit": false,
      "t": 34909.056000000026,
      "d": 545.4539999999979,
      "v": 71
    },
    {
      "midi": 73,
      "hit": false,
      "t": 35045.419500000025,
      "d": 136.36349999999948,
      "v": 52
    },
    {
      "midi": 67,
      "hit": false,
      "t": 35181.783000000025,
      "d": 136.36349999999948,
      "v": 59
    },
    {
      "midi": 47,
      "hit": false,
      "t": 35181.783000000025,
      "d": 272.72699999999895,
      "v": 44
    },
    {
      "midi": 71,
      "hit": false,
      "t": 35318.146500000024,
      "d": 136.36349999999948,
      "v": 55
    },
    {
      "midi": 54,
      "hit": false,
      "t": 35454.510000000024,
      "d": 272.7269999999917,
      "v": 48
    },
    {
      "midi": 59,
      "hit": false,
      "t": 35454.510000000024,
      "d": 545.4539999999906,
      "v": 55
    },
    {
      "midi": 62,
      "hit": false,
      "t": 35454.510000000024,
      "d": 545.4539999999906,
      "v": 66
    },
    {
      "midi": 74,
      "hit": false,
      "t": 35590.873500000016,
      "d": 136.36349999999948,
      "v": 59
    },
    {
      "midi": 66,
      "hit": false,
      "t": 35727.237000000016,
      "d": 136.36349999999948,
      "v": 62
    },
    {
      "midi": 45,
      "hit": false,
      "t": 35727.237000000016,
      "d": 272.72699999999895,
      "v": 45
    },
    {
      "midi": 71,
      "hit": false,
      "t": 35863.600500000015,
      "d": 136.36349999999948,
      "v": 59
    },
    {
      "midi": 52,
      "hit": false,
      "t": 35999.964000000014,
      "d": 272.7269999999917,
      "v": 49
    },
    {
      "midi": 55,
      "hit": false,
      "t": 35999.964000000014,
      "d": 272.7269999999917,
      "v": 49
    },
    {
      "midi": 59,
      "hit": false,
      "t": 35999.964000000014,
      "d": 545.4539999999906,
      "v": 56
    },
    {
      "midi": 67,
      "hit": false,
      "t": 35999.964000000014,
      "d": 545.4539999999906,
      "v": 73
    },
    {
      "midi": 79,
      "hit": false,
      "t": 36136.32750000001,
      "d": 136.36349999999948,
      "v": 60
    },
    {
      "midi": 71,
      "hit": false,
      "t": 36272.691000000006,
      "d": 136.36349999999948,
      "v": 66
    },
    {
      "midi": 47,
      "hit": false,
      "t": 36272.691000000006,
      "d": 272.72699999999895,
      "v": 46
    },
    {
      "midi": 76,
      "hit": false,
      "t": 36409.054500000006,
      "d": 136.36349999999948,
      "v": 59
    },
    {
      "midi": 50,
      "hit": false,
      "t": 36545.418000000005,
      "d": 272.72699999999895,
      "v": 41
    },
    {
      "midi": 54,
      "hit": false,
      "t": 36545.418000000005,
      "d": 272.72699999999895,
      "v": 41
    },
    {
      "midi": 59,
      "hit": false,
      "t": 36545.418000000005,
      "d": 545.4539999999979,
      "v": 47
    },
    {
      "midi": 66,
      "hit": false,
      "t": 36545.418000000005,
      "d": 545.4539999999979,
      "v": 70
    },
    {
      "midi": 78,
      "hit": false,
      "t": 36681.781500000005,
      "d": 136.36349999999948,
      "v": 53
    },
    {
      "midi": 71,
      "hit": false,
      "t": 36818.145000000004,
      "d": 136.36349999999948,
      "v": 58
    },
    {
      "midi": 47,
      "hit": false,
      "t": 36818.145000000004,
      "d": 272.72699999999895,
      "v": 36
    },
    {
      "midi": 74,
      "hit": false,
      "t": 36954.5085,
      "d": 136.36349999999948,
      "v": 52
    },
    {
      "midi": 47,
      "hit": false,
      "t": 37090.872,
      "d": 68.18175000000338,
      "v": 59
    },
    {
      "midi": 49,
      "hit": false,
      "t": 37227.23550000001,
      "d": 68.18175000000338,
      "v": 53
    },
    {
      "midi": 50,
      "hit": false,
      "t": 37363.59900000002,
      "d": 68.18175000000338,
      "v": 55
    },
    {
      "midi": 59,
      "hit": false,
      "t": 37363.59900000002,
      "d": 545.4540000000197,
      "v": 48
    },
    {
      "midi": 62,
      "hit": false,
      "t": 37363.59900000002,
      "d": 545.4540000000197,
      "v": 48
    },
    {
      "midi": 52,
      "hit": false,
      "t": 37499.96250000002,
      "d": 68.18175000000338,
      "v": 50
    },
    {
      "midi": 53,
      "hit": false,
      "t": 37636.32600000003,
      "d": 68.18175000000338,
      "v": 57
    },
    {
      "midi": 54,
      "hit": false,
      "t": 37909.053000000036,
      "d": 272.7270000000062,
      "v": 58
    },
    {
      "midi": 59,
      "hit": false,
      "t": 37909.053000000036,
      "d": 545.4540000000052,
      "v": 52
    },
    {
      "midi": 62,
      "hit": false,
      "t": 37909.053000000036,
      "d": 545.4540000000052,
      "v": 52
    },
    {
      "midi": 57,
      "hit": false,
      "t": 38181.78000000004,
      "d": 272.72699999999895,
      "v": 60
    },
    {
      "midi": 56,
      "hit": false,
      "t": 38454.50700000004,
      "d": 272.72699999999895,
      "v": 55
    },
    {
      "midi": 59,
      "hit": false,
      "t": 38454.50700000004,
      "d": 545.4540000000052,
      "v": 51
    },
    {
      "midi": 62,
      "hit": false,
      "t": 38454.50700000004,
      "d": 545.4540000000052,
      "v": 51
    },
    {
      "midi": 55,
      "hit": false,
      "t": 38727.23400000004,
      "d": 272.7270000000062,
      "v": 57
    },
    {
      "midi": 54,
      "hit": false,
      "t": 38999.96100000005,
      "d": 68.18175000000338,
      "v": 51
    },
    {
      "midi": 59,
      "hit": false,
      "t": 38999.96100000005,
      "d": 68.18175000000338,
      "v": 44
    },
    {
      "midi": 62,
      "hit": false,
      "t": 38999.96100000005,
      "d": 68.18175000000338,
      "v": 44
    },
    {
      "midi": 71,
      "hit": false,
      "t": 39272.68800000005,
      "d": 68.18175000000338,
      "v": 64
    },
    {
      "midi": 53,
      "hit": false,
      "t": 39272.68800000005,
      "d": 545.454000000027,
      "v": 51
    },
    {
      "midi": 70,
      "hit": false,
      "t": 39409.05150000006,
      "d": 68.18175000000338,
      "v": 58
    },
    {
      "midi": 69,
      "hit": false,
      "t": 39545.415000000066,
      "d": 68.18175000000338,
      "v": 60
    },
    {
      "midi": 59,
      "hit": false,
      "t": 39545.415000000066,
      "d": 545.4540000000197,
      "v": 44
    },
    {
      "midi": 62,
      "hit": false,
      "t": 39545.415000000066,
      "d": 545.4540000000197,
      "v": 44
    },
    {
      "midi": 68,
      "hit": false,
      "t": 39681.77850000007,
      "d": 68.18175000000338,
      "v": 55
    },
    {
      "midi": 67,
      "hit": false,
      "t": 39818.14200000008,
      "d": 68.18175000000338,
      "v": 62
    },
    {
      "midi": 52,
      "hit": false,
      "t": 39818.14200000008,
      "d": 545.4540000000052,
      "v": 51
    },
    {
      "midi": 68,
      "hit": false,
      "t": 40090.869000000086,
      "d": 272.72699999999895,
      "v": 63
    },
    {
      "midi": 59,
      "hit": false,
      "t": 40090.869000000086,
      "d": 545.4539999999979,
      "v": 42
    },
    {
      "midi": 62,
      "hit": false,
      "t": 40090.869000000086,
      "d": 545.4539999999979,
      "v": 42
    },
    {
      "midi": 73,
      "hit": false,
      "t": 40363.596000000085,
      "d": 272.72699999999895,
      "v": 72
    },
    {
      "midi": 50,
      "hit": false,
      "t": 40363.596000000085,
      "d": 545.4539999999979,
      "v": 51
    },
    {
      "midi": 56,
      "hit": false,
      "t": 40636.323000000084,
      "d": 272.72699999999895,
      "v": 44
    },
    {
      "midi": 59,
      "hit": false,
      "t": 40636.323000000084,
      "d": 272.72699999999895,
      "v": 44
    },
    {
      "midi": 64,
      "hit": false,
      "t": 40636.323000000084,
      "d": 272.72699999999895,
      "v": 44
    },
    {
      "midi": 71,
      "hit": false,
      "t": 40636.323000000084,
      "d": 272.72699999999895,
      "v": 60
    },
    {
      "midi": 63,
      "hit": false,
      "t": 40909.05000000008,
      "d": 272.72699999999895,
      "v": 62
    },
    {
      "midi": 49,
      "hit": false,
      "t": 40909.05000000008,
      "d": 545.4540000000052,
      "v": 51
    },
    {
      "midi": 52,
      "hit": false,
      "t": 41181.77700000008,
      "d": 68.18175000000338,
      "v": 44
    },
    {
      "midi": 57,
      "hit": false,
      "t": 41181.77700000008,
      "d": 68.18175000000338,
      "v": 44
    },
    {
      "midi": 61,
      "hit": false,
      "t": 41181.77700000008,
      "d": 68.18175000000338,
      "v": 44
    },
    {
      "midi": 64,
      "hit": false,
      "t": 41181.77700000008,
      "d": 68.18175000000338,
      "v": 56
    },
    {
      "midi": 49,
      "hit": false,
      "t": 41454.50400000009,
      "d": 68.18175000000338,
      "v": 59
    },
    {
      "midi": 50,
      "hit": false,
      "t": 41590.867500000095,
      "d": 68.18175000000338,
      "v": 53
    },
    {
      "midi": 52,
      "hit": false,
      "t": 41727.2310000001,
      "d": 68.18175000000338,
      "v": 55
    },
    {
      "midi": 61,
      "hit": false,
      "t": 41727.2310000001,
      "d": 545.4540000000197,
      "v": 48
    },
    {
      "midi": 64,
      "hit": false,
      "t": 41727.2310000001,
      "d": 545.4540000000197,
      "v": 48
    },
    {
      "midi": 54,
      "hit": false,
      "t": 41863.59450000011,
      "d": 68.18175000000338,
      "v": 50
    },
    {
      "midi": 55,
      "hit": false,
      "t": 41999.958000000115,
      "d": 68.18175000000338,
      "v": 57
    },
    {
      "midi": 56,
      "hit": false,
      "t": 42272.68500000012,
      "d": 272.72699999999895,
      "v": 58
    },
    {
      "midi": 61,
      "hit": false,
      "t": 42272.68500000012,
      "d": 545.4539999999979,
      "v": 52
    },
    {
      "midi": 64,
      "hit": false,
      "t": 42272.68500000012,
      "d": 545.4539999999979,
      "v": 52
    },
    {
      "midi": 59,
      "hit": false,
      "t": 42545.41200000012,
      "d": 272.72699999999895,
      "v": 60
    },
    {
      "midi": 58,
      "hit": false,
      "t": 42818.13900000012,
      "d": 272.72699999999895,
      "v": 55
    },
    {
      "midi": 61,
      "hit": false,
      "t": 42818.13900000012,
      "d": 545.4539999999979,
      "v": 51
    },
    {
      "midi": 64,
      "hit": false,
      "t": 42818.13900000012,
      "d": 545.4539999999979,
      "v": 51
    },
    {
      "midi": 57,
      "hit": false,
      "t": 43090.86600000012,
      "d": 272.72699999999895,
      "v": 57
    },
    {
      "midi": 56,
      "hit": false,
      "t": 43363.59300000012,
      "d": 136.36349999999948,
      "v": 51
    },
    {
      "midi": 61,
      "hit": false,
      "t": 43363.59300000012,
      "d": 136.36349999999948,
      "v": 44
    },
    {
      "midi": 64,
      "hit": false,
      "t": 43363.59300000012,
      "d": 136.36349999999948,
      "v": 44
    },
    {
      "midi": 73,
      "hit": false,
      "t": 43636.320000000116,
      "d": 68.18175000000338,
      "v": 64
    },
    {
      "midi": 55,
      "hit": false,
      "t": 43636.320000000116,
      "d": 545.454000000027,
      "v": 51
    },
    {
      "midi": 72,
      "hit": false,
      "t": 43772.68350000012,
      "d": 68.18175000000338,
      "v": 58
    },
    {
      "midi": 71,
      "hit": false,
      "t": 43909.04700000013,
      "d": 68.18175000000338,
      "v": 60
    },
    {
      "midi": 61,
      "hit": false,
      "t": 43909.04700000013,
      "d": 545.4540000000197,
      "v": 44
    },
    {
      "midi": 64,
      "hit": false,
      "t": 43909.04700000013,
      "d": 545.4540000000197,
      "v": 44
    },
    {
      "midi": 70,
      "hit": false,
      "t": 44045.41050000014,
      "d": 68.18175000000338,
      "v": 55
    },
    {
      "midi": 69,
      "hit": false,
      "t": 44181.77400000014,
      "d": 68.18175000000338,
      "v": 62
    },
    {
      "midi": 54,
      "hit": false,
      "t": 44181.77400000014,
      "d": 545.4540000000052,
      "v": 51
    },
    {
      "midi": 70,
      "hit": false,
      "t": 44454.50100000015,
      "d": 272.72699999999895,
      "v": 63
    },
    {
      "midi": 61,
      "hit": false,
      "t": 44454.50100000015,
      "d": 545.4539999999906,
      "v": 42
    },
    {
      "midi": 64,
      "hit": false,
      "t": 44454.50100000015,
      "d": 545.4539999999906,
      "v": 42
    },
    {
      "midi": 74,
      "hit": false,
      "t": 44727.22800000015,
      "d": 272.7269999999917,
      "v": 72
    },
    {
      "midi": 52,
      "hit": false,
      "t": 44727.22800000015,
      "d": 545.4539999999906,
      "v": 51
    },
    {
      "midi": 58,
      "hit": false,
      "t": 44999.95500000014,
      "d": 272.72699999999895,
      "v": 44
    },
    {
      "midi": 61,
      "hit": false,
      "t": 44999.95500000014,
      "d": 272.72699999999895,
      "v": 44
    },
    {
      "midi": 66,
      "hit": false,
      "t": 44999.95500000014,
      "d": 272.72699999999895,
      "v": 44
    },
    {
      "midi": 73,
      "hit": false,
      "t": 44999.95500000014,
      "d": 272.72699999999895,
      "v": 60
    },
    {
      "midi": 65,
      "hit": false,
      "t": 45272.68200000014,
      "d": 272.7270000000062,
      "v": 62
    },
    {
      "midi": 50,
      "hit": false,
      "t": 45272.68200000014,
      "d": 545.4540000000125,
      "v": 51
    },
    {
      "midi": 54,
      "hit": false,
      "t": 45545.409000000145,
      "d": 68.18175000000338,
      "v": 44
    },
    {
      "midi": 59,
      "hit": false,
      "t": 45545.409000000145,
      "d": 68.18175000000338,
      "v": 44
    },
    {
      "midi": 62,
      "hit": false,
      "t": 45545.409000000145,
      "d": 68.18175000000338,
      "v": 44
    },
    {
      "midi": 66,
      "hit": false,
      "t": 45545.409000000145,
      "d": 68.18175000000338,
      "v": 56
    },
    {
      "midi": 47,
      "hit": false,
      "t": 45818.13600000015,
      "d": 68.18175000000338,
      "v": 74
    },
    {
      "midi": 71,
      "hit": false,
      "t": 45818.13600000015,
      "d": 68.18175000000338,
      "v": 83
    },
    {
      "midi": 49,
      "hit": false,
      "t": 45954.49950000016,
      "d": 68.18175000000338,
      "v": 64
    },
    {
      "midi": 73,
      "hit": false,
      "t": 45954.49950000016,
      "d": 68.18175000000338,
      "v": 74
    },
    {
      "midi": 50,
      "hit": false,
      "t": 46090.863000000165,
      "d": 68.18175000000338,
      "v": 70
    },
    {
      "midi": 74,
      "hit": false,
      "t": 46090.863000000165,
      "d": 68.18175000000338,
      "v": 80
    },
    {
      "midi": 52,
      "hit": false,
      "t": 46227.22650000017,
      "d": 68.18175000000338,
      "v": 62
    },
    {
      "midi": 76,
      "hit": false,
      "t": 46227.22650000017,
      "d": 68.18175000000338,
      "v": 73
    },
    {
      "midi": 54,
      "hit": false,
      "t": 46363.59000000018,
      "d": 68.18175000000338,
      "v": 75
    },
    {
      "midi": 78,
      "hit": false,
      "t": 46363.59000000018,
      "d": 68.18175000000338,
      "v": 85
    },
    {
      "midi": 43,
      "hit": false,
      "t": 46636.317000000185,
      "d": 204.54525000000285,
      "v": 60
    },
    {
      "midi": 47,
      "hit": false,
      "t": 46636.317000000185,
      "d": 204.54525000000285,
      "v": 60
    },
    {
      "midi": 50,
      "hit": false,
      "t": 46636.317000000185,
      "d": 204.54525000000285,
      "v": 60
    },
    {
      "midi": 55,
      "hit": false,
      "t": 46636.317000000185,
      "d": 204.54525000000285,
      "v": 67
    },
    {
      "midi": 67,
      "hit": false,
      "t": 46636.317000000185,
      "d": 204.54525000000285,
      "v": 70
    },
    {
      "midi": 71,
      "hit": false,
      "t": 46636.317000000185,
      "d": 204.54525000000285,
      "v": 70
    },
    {
      "midi": 74,
      "hit": false,
      "t": 46636.317000000185,
      "d": 204.54525000000285,
      "v": 70
    },
    {
      "midi": 79,
      "hit": false,
      "t": 46636.317000000185,
      "d": 204.54525000000285,
      "v": 80
    },
    {
      "midi": 41,
      "hit": false,
      "t": 46909.04400000019,
      "d": 545.4539999999979,
      "v": 71
    },
    {
      "midi": 65,
      "hit": false,
      "t": 46909.04400000019,
      "d": 545.4539999999979,
      "v": 84
    },
    {
      "midi": 53,
      "hit": false,
      "t": 47181.77100000019,
      "d": 272.72699999999895,
      "v": 64
    },
    {
      "midi": 77,
      "hit": false,
      "t": 47181.77100000019,
      "d": 272.72699999999895,
      "v": 78
    },
    {
      "midi": 42,
      "hit": false,
      "t": 47454.49800000019,
      "d": 545.4539999999979,
      "v": 72
    },
    {
      "midi": 66,
      "hit": false,
      "t": 47454.49800000019,
      "d": 545.4539999999979,
      "v": 85
    },
    {
      "midi": 54,
      "hit": false,
      "t": 47727.22500000019,
      "d": 272.72699999999895,
      "v": 63
    },
    {
      "midi": 78,
      "hit": false,
      "t": 47727.22500000019,
      "d": 272.72699999999895,
      "v": 77
    },
    {
      "midi": 47,
      "hit": false,
      "t": 47999.95200000019,
      "d": 68.18175000000338,
      "v": 74
    },
    {
      "midi": 71,
      "hit": false,
      "t": 47999.95200000019,
      "d": 68.18175000000338,
      "v": 83
    },
    {
      "midi": 49,
      "hit": false,
      "t": 48136.31550000019,
      "d": 68.18175000000338,
      "v": 63
    },
    {
      "midi": 73,
      "hit": false,
      "t": 48136.31550000019,
      "d": 68.18175000000338,
      "v": 77
    },
    {
      "midi": 50,
      "hit": false,
      "t": 48272.6790000002,
      "d": 68.18175000000338,
      "v": 70
    },
    {
      "midi": 74,
      "hit": false,
      "t": 48272.6790000002,
      "d": 68.18175000000338,
      "v": 80
    },
    {
      "midi": 52,
      "hit": false,
      "t": 48409.04250000021,
      "d": 68.18175000000338,
      "v": 64
    },
    {
      "midi": 76,
      "hit": false,
      "t": 48409.04250000021,
      "d": 68.18175000000338,
      "v": 75
    },
    {
      "midi": 54,
      "hit": false,
      "t": 48545.406000000214,
      "d": 68.18175000000338,
      "v": 75
    },
    {
      "midi": 78,
      "hit": false,
      "t": 48545.406000000214,
      "d": 68.18175000000338,
      "v": 85
    },
    {
      "midi": 43,
      "hit": false,
      "t": 48818.13300000022,
      "d": 204.54525000000285,
      "v": 60
    },
    {
      "midi": 47,
      "hit": false,
      "t": 48818.13300000022,
      "d": 204.54525000000285,
      "v": 60
    },
    {
      "midi": 50,
      "hit": false,
      "t": 48818.13300000022,
      "d": 204.54525000000285,
      "v": 60
    },
    {
      "midi": 55,
      "hit": false,
      "t": 48818.13300000022,
      "d": 204.54525000000285,
      "v": 67
    },
    {
      "midi": 67,
      "hit": false,
      "t": 48818.13300000022,
      "d": 204.54525000000285,
      "v": 70
    },
    {
      "midi": 71,
      "hit": false,
      "t": 48818.13300000022,
      "d": 204.54525000000285,
      "v": 70
    },
    {
      "midi": 74,
      "hit": false,
      "t": 48818.13300000022,
      "d": 204.54525000000285,
      "v": 70
    },
    {
      "midi": 79,
      "hit": false,
      "t": 48818.13300000022,
      "d": 204.54525000000285,
      "v": 80
    },
    {
      "midi": 41,
      "hit": false,
      "t": 49090.860000000226,
      "d": 545.4539999999979,
      "v": 71
    },
    {
      "midi": 65,
      "hit": false,
      "t": 49090.860000000226,
      "d": 545.4539999999979,
      "v": 84
    },
    {
      "midi": 53,
      "hit": false,
      "t": 49363.587000000225,
      "d": 272.72699999999895,
      "v": 64
    },
    {
      "midi": 77,
      "hit": false,
      "t": 49363.587000000225,
      "d": 272.72699999999895,
      "v": 78
    },
    {
      "midi": 42,
      "hit": false,
      "t": 49636.314000000224,
      "d": 545.4539999999979,
      "v": 72
    },
    {
      "midi": 66,
      "hit": false,
      "t": 49636.314000000224,
      "d": 545.4539999999979,
      "v": 85
    },
    {
      "midi": 54,
      "hit": false,
      "t": 49909.04100000022,
      "d": 272.72699999999895,
      "v": 63
    },
    {
      "midi": 78,
      "hit": false,
      "t": 49909.04100000022,
      "d": 272.72699999999895,
      "v": 77
    },
    {
      "midi": 50,
      "hit": false,
      "t": 50181.76800000022,
      "d": 68.18175000000338,
      "v": 74
    },
    {
      "midi": 74,
      "hit": false,
      "t": 50181.76800000022,
      "d": 68.18175000000338,
      "v": 83
    },
    {
      "midi": 52,
      "hit": false,
      "t": 50318.13150000023,
      "d": 68.18175000000338,
      "v": 61
    },
    {
      "midi": 76,
      "hit": false,
      "t": 50318.13150000023,
      "d": 68.18175000000338,
      "v": 74
    },
    {
      "midi": 54,
      "hit": false,
      "t": 50454.495000000235,
      "d": 68.18175000000338,
      "v": 69
    },
    {
      "midi": 78,
      "hit": false,
      "t": 50454.495000000235,
      "d": 68.18175000000338,
      "v": 80
    },
    {
      "midi": 55,
      "hit": false,
      "t": 50590.85850000024,
      "d": 68.18175000000338,
      "v": 60
    },
    {
      "midi": 79,
      "hit": false,
      "t": 50590.85850000024,
      "d": 68.18175000000338,
      "v": 75
    },
    {
      "midi": 57,
      "hit": false,
      "t": 50727.22200000025,
      "d": 68.18175000000338,
      "v": 75
    },
    {
      "midi": 81,
      "hit": false,
      "t": 50727.22200000025,
      "d": 68.18175000000338,
      "v": 85
    },
    {
      "midi": 46,
      "hit": false,
      "t": 50999.949000000255,
      "d": 204.54525000000285,
      "v": 61
    },
    {
      "midi": 50,
      "hit": false,
      "t": 50999.949000000255,
      "d": 204.54525000000285,
      "v": 61
    },
    {
      "midi": 53,
      "hit": false,
      "t": 50999.949000000255,
      "d": 204.54525000000285,
      "v": 61
    },
    {
      "midi": 58,
      "hit": false,
      "t": 50999.949000000255,
      "d": 204.54525000000285,
      "v": 69
    },
    {
      "midi": 70,
      "hit": false,
      "t": 50999.949000000255,
      "d": 204.54525000000285,
      "v": 71
    },
    {
      "midi": 74,
      "hit": false,
      "t": 50999.949000000255,
      "d": 204.54525000000285,
      "v": 71
    },
    {
      "midi": 77,
      "hit": false,
      "t": 50999.949000000255,
      "d": 204.54525000000285,
      "v": 71
    },
    {
      "midi": 82,
      "hit": false,
      "t": 50999.949000000255,
      "d": 204.54525000000285,
      "v": 81
    },
    {
      "midi": 44,
      "hit": false,
      "t": 51272.67600000026,
      "d": 545.4539999999979,
      "v": 71
    },
    {
      "midi": 68,
      "hit": false,
      "t": 51272.67600000026,
      "d": 545.4539999999979,
      "v": 84
    },
    {
      "midi": 56,
      "hit": false,
      "t": 51545.40300000026,
      "d": 272.72699999999895,
      "v": 64
    },
    {
      "midi": 80,
      "hit": false,
      "t": 51545.40300000026,
      "d": 272.72699999999895,
      "v": 78
    },
    {
      "midi": 45,
      "hit": false,
      "t": 51818.13000000026,
      "d": 545.4539999999979,
      "v": 72
    },
    {
      "midi": 69,
      "hit": false,
      "t": 51818.13000000026,
      "d": 545.4539999999979,
      "v": 85
    },
    {
      "midi": 57,
      "hit": false,
      "t": 52090.85700000026,
      "d": 272.72699999999895,
      "v": 63
    },
    {
      "midi": 81,
      "hit": false,
      "t": 52090.85700000026,
      "d": 272.72699999999895,
      "v": 77
    },
    {
      "midi": 50,
      "hit": false,
      "t": 52363.58400000026,
      "d": 68.18175000000338,
      "v": 74
    },
    {
      "midi": 74,
      "hit": false,
      "t": 52363.58400000026,
      "d": 68.18175000000338,
      "v": 83
    },
    {
      "midi": 52,
      "hit": false,
      "t": 52499.947500000264,
      "d": 68.18175000000338,
      "v": 64
    },
    {
      "midi": 76,
      "hit": false,
      "t": 52499.947500000264,
      "d": 68.18175000000338,
      "v": 75
    },
    {
      "midi": 54,
      "hit": false,
      "t": 52636.31100000027,
      "d": 68.18175000000338,
      "v": 70
    },
    {
      "midi": 78,
      "hit": false,
      "t": 52636.31100000027,
      "d": 68.18175000000338,
      "v": 80
    },
    {
      "midi": 55,
      "hit": false,
      "t": 52772.67450000028,
      "d": 68.18175000000338,
      "v": 64
    },
    {
      "midi": 79,
      "hit": false,
      "t": 52772.67450000028,
      "d": 68.18175000000338,
      "v": 75
    },
    {
      "midi": 57,
      "hit": false,
      "t": 52909.038000000284,
      "d": 68.18175000000338,
      "v": 75
    },
    {
      "midi": 81,
      "hit": false,
      "t": 52909.038000000284,
      "d": 68.18175000000338,
      "v": 85
    },
    {
      "midi": 46,
      "hit": false,
      "t": 53181.76500000029,
      "d": 204.54525000000285,
      "v": 61
    },
    {
      "midi": 50,
      "hit": false,
      "t": 53181.76500000029,
      "d": 204.54525000000285,
      "v": 61
    },
    {
      "midi": 53,
      "hit": false,
      "t": 53181.76500000029,
      "d": 204.54525000000285,
      "v": 61
    },
    {
      "midi": 58,
      "hit": false,
      "t": 53181.76500000029,
      "d": 204.54525000000285,
      "v": 69
    },
    {
      "midi": 70,
      "hit": false,
      "t": 53181.76500000029,
      "d": 204.54525000000285,
      "v": 71
    },
    {
      "midi": 74,
      "hit": false,
      "t": 53181.76500000029,
      "d": 204.54525000000285,
      "v": 71
    },
    {
      "midi": 77,
      "hit": false,
      "t": 53181.76500000029,
      "d": 204.54525000000285,
      "v": 71
    },
    {
      "midi": 82,
      "hit": false,
      "t": 53181.76500000029,
      "d": 204.54525000000285,
      "v": 81
    },
    {
      "midi": 44,
      "hit": false,
      "t": 53454.4920000003,
      "d": 545.4539999999979,
      "v": 71
    },
    {
      "midi": 68,
      "hit": false,
      "t": 53454.4920000003,
      "d": 545.4539999999979,
      "v": 84
    },
    {
      "midi": 56,
      "hit": false,
      "t": 53727.219000000296,
      "d": 272.72699999999895,
      "v": 64
    },
    {
      "midi": 80,
      "hit": false,
      "t": 53727.219000000296,
      "d": 272.72699999999895,
      "v": 78
    },
    {
      "midi": 45,
      "hit": false,
      "t": 53999.946000000295,
      "d": 545.4539999999979,
      "v": 72
    },
    {
      "midi": 69,
      "hit": false,
      "t": 53999.946000000295,
      "d": 545.4539999999979,
      "v": 85
    },
    {
      "midi": 57,
      "hit": false,
      "t": 54272.67300000029,
      "d": 272.72699999999895,
      "v": 63
    },
    {
      "midi": 81,
      "hit": false,
      "t": 54272.67300000029,
      "d": 272.72699999999895,
      "v": 77
    },
    {
      "midi": 44,
      "hit": false,
      "t": 54545.40000000029,
      "d": 545.4539999999979,
      "v": 71
    },
    {
      "midi": 68,
      "hit": false,
      "t": 54545.40000000029,
      "d": 545.4539999999979,
      "v": 84
    },
    {
      "midi": 56,
      "hit": false,
      "t": 54818.12700000029,
      "d": 272.72699999999895,
      "v": 64
    },
    {
      "midi": 80,
      "hit": false,
      "t": 54818.12700000029,
      "d": 272.72699999999895,
      "v": 78
    },
    {
      "midi": 45,
      "hit": false,
      "t": 55090.85400000029,
      "d": 545.4539999999979,
      "v": 72
    },
    {
      "midi": 69,
      "hit": false,
      "t": 55090.85400000029,
      "d": 545.4539999999979,
      "v": 85
    },
    {
      "midi": 57,
      "hit": false,
      "t": 55363.58100000029,
      "d": 272.72699999999895,
      "v": 63
    },
    {
      "midi": 81,
      "hit": false,
      "t": 55363.58100000029,
      "d": 272.72699999999895,
      "v": 77
    },
    {
      "midi": 46,
      "hit": false,
      "t": 55636.30800000029,
      "d": 545.4539999999979,
      "v": 71
    },
    {
      "midi": 70,
      "hit": false,
      "t": 55636.30800000029,
      "d": 545.4539999999979,
      "v": 84
    },
    {
      "midi": 58,
      "hit": false,
      "t": 55909.03500000029,
      "d": 272.72699999999895,
      "v": 64
    },
    {
      "midi": 82,
      "hit": false,
      "t": 55909.03500000029,
      "d": 272.72699999999895,
      "v": 78
    },
    {
      "midi": 40,
      "hit": false,
      "t": 56181.762000000286,
      "d": 545.4539999999979,
      "v": 72
    },
    {
      "midi": 64,
      "hit": false,
      "t": 56181.762000000286,
      "d": 545.4539999999979,
      "v": 85
    },
    {
      "midi": 52,
      "hit": false,
      "t": 56454.489000000285,
      "d": 272.72699999999895,
      "v": 63
    },
    {
      "midi": 76,
      "hit": false,
      "t": 56454.489000000285,
      "d": 272.72699999999895,
      "v": 77
    },
    {
      "midi": 43,
      "hit": false,
      "t": 56727.216000000284,
      "d": 545.4539999999979,
      "v": 71
    },
    {
      "midi": 67,
      "hit": false,
      "t": 56727.216000000284,
      "d": 545.4539999999979,
      "v": 84
    },
    {
      "midi": 55,
      "hit": false,
      "t": 56999.94300000028,
      "d": 272.72699999999895,
      "v": 64
    },
    {
      "midi": 79,
      "hit": false,
      "t": 56999.94300000028,
      "d": 272.72699999999895,
      "v": 78
    },
    {
      "midi": 34,
      "hit": false,
      "t": 57272.67000000028,
      "d": 545.4539999999979,
      "v": 72
    },
    {
      "midi": 58,
      "hit": false,
      "t": 57272.67000000028,
      "d": 545.4539999999979,
      "v": 85
    },
    {
      "midi": 46,
      "hit": false,
      "t": 57545.39700000028,
      "d": 272.72699999999895,
      "v": 63
    },
    {
      "midi": 70,
      "hit": false,
      "t": 57545.39700000028,
      "d": 272.72699999999895,
      "v": 77
    },
    {
      "midi": 38,
      "hit": false,
      "t": 57818.12400000028,
      "d": 545.4540000000052,
      "v": 71
    },
    {
      "midi": 62,
      "hit": false,
      "t": 57818.12400000028,
      "d": 545.4540000000052,
      "v": 84
    },
    {
      "midi": 50,
      "hit": false,
      "t": 58090.851000000286,
      "d": 272.72699999999895,
      "v": 64
    },
    {
      "midi": 74,
      "hit": false,
      "t": 58090.851000000286,
      "d": 272.72699999999895,
      "v": 78
    },
    {
      "midi": 33,
      "hit": false,
      "t": 58363.578000000285,
      "d": 545.4539999999979,
      "v": 72
    },
    {
      "midi": 57,
      "hit": false,
      "t": 58363.578000000285,
      "d": 545.4539999999979,
      "v": 85
    },
    {
      "midi": 45,
      "hit": false,
      "t": 58636.305000000284,
      "d": 272.72699999999895,
      "v": 63
    },
    {
      "midi": 69,
      "hit": false,
      "t": 58636.305000000284,
      "d": 272.72699999999895,
      "v": 77
    },
    {
      "midi": 44,
      "hit": false,
      "t": 58909.03200000028,
      "d": 159.09075000000303,
      "v": 68
    },
    {
      "midi": 45,
      "hit": false,
      "t": 59045.39550000028,
      "d": 159.0907500000103,
      "v": 59
    },
    {
      "midi": 48,
      "hit": false,
      "t": 59181.75900000029,
      "d": 159.0907500000103,
      "v": 62
    },
    {
      "midi": 49,
      "hit": false,
      "t": 59318.122500000296,
      "d": 136.36350000000675,
      "v": 57
    },
    {
      "midi": 51,
      "hit": false,
      "t": 59454.4860000003,
      "d": 159.09075000000303,
      "v": 69
    },
    {
      "midi": 52,
      "hit": false,
      "t": 59590.8495000003,
      "d": 159.0907500000103,
      "v": 61
    },
    {
      "midi": 56,
      "hit": false,
      "t": 59727.21300000031,
      "d": 159.0907500000103,
      "v": 66
    },
    {
      "midi": 57,
      "hit": false,
      "t": 59863.576500000316,
      "d": 136.36350000000675,
      "v": 60
    },
    {
      "midi": 56,
      "hit": false,
      "t": 59999.94000000032,
      "d": 159.09075000000303,
      "v": 71
    },
    {
      "midi": 57,
      "hit": false,
      "t": 60136.30350000032,
      "d": 159.0907500000103,
      "v": 63
    },
    {
      "midi": 60,
      "hit": false,
      "t": 60272.66700000033,
      "d": 159.0907500000103,
      "v": 69
    },
    {
      "midi": 61,
      "hit": false,
      "t": 60409.030500000335,
      "d": 136.36350000000675,
      "v": 63
    },
    {
      "midi": 63,
      "hit": false,
      "t": 60545.39400000034,
      "d": 159.09075000000303,
      "v": 72
    },
    {
      "midi": 64,
      "hit": false,
      "t": 60681.75750000034,
      "d": 159.0907500000103,
      "v": 64
    },
    {
      "midi": 68,
      "hit": false,
      "t": 60818.12100000035,
      "d": 159.0907500000103,
      "v": 70
    },
    {
      "midi": 69,
      "hit": false,
      "t": 60954.484500000355,
      "d": 136.36350000000675,
      "v": 64
    },
    {
      "midi": 68,
      "hit": false,
      "t": 61090.84800000036,
      "d": 159.09075000000303,
      "v": 73
    },
    {
      "midi": 69,
      "hit": false,
      "t": 61227.21150000036,
      "d": 159.0907500000103,
      "v": 62
    },
    {
      "midi": 72,
      "hit": false,
      "t": 61363.57500000037,
      "d": 159.0907500000103,
      "v": 70
    },
    {
      "midi": 73,
      "hit": false,
      "t": 61499.938500000375,
      "d": 136.36350000000675,
      "v": 61
    },
    {
      "midi": 75,
      "hit": false,
      "t": 61636.30200000038,
      "d": 159.09075000000303,
      "v": 74
    },
    {
      "midi": 76,
      "hit": false,
      "t": 61772.66550000038,
      "d": 159.0907500000103,
      "v": 64
    },
    {
      "midi": 80,
      "hit": false,
      "t": 61909.02900000039,
      "d": 159.0907500000103,
      "v": 74
    },
    {
      "midi": 81,
      "hit": false,
      "t": 62045.392500000395,
      "d": 136.36350000000675,
      "v": 69
    },
    {
      "midi": 80,
      "hit": false,
      "t": 62181.7560000004,
      "d": 159.09075000000303,
      "v": 74
    },
    {
      "midi": 81,
      "hit": false,
      "t": 62318.1195000004,
      "d": 159.0907500000103,
      "v": 66
    },
    {
      "midi": 84,
      "hit": false,
      "t": 62454.48300000041,
      "d": 159.0907500000103,
      "v": 73
    },
    {
      "midi": 85,
      "hit": false,
      "t": 62590.846500000414,
      "d": 136.36350000000675,
      "v": 64
    },
    {
      "midi": 87,
      "hit": false,
      "t": 62727.21000000042,
      "d": 159.09075000000303,
      "v": 77
    },
    {
      "midi": 88,
      "hit": false,
      "t": 62863.57350000042,
      "d": 159.0907500000103,
      "v": 67
    },
    {
      "midi": 92,
      "hit": false,
      "t": 62999.93700000043,
      "d": 159.0907500000103,
      "v": 75
    },
    {
      "midi": 93,
      "hit": false,
      "t": 63136.300500000434,
      "d": 136.36350000000675,
      "v": 67
    },
    {
      "midi": 57,
      "hit": false,
      "t": 63273.80036250044,
      "d": 271.5906374999977,
      "v": 74
    },
    {
      "midi": 74,
      "hit": false,
      "t": 63273.80036250044,
      "d": 271.5906374999977,
      "v": 79
    },
    {
      "midi": 78,
      "hit": false,
      "t": 63273.80036250044,
      "d": 271.5906374999977,
      "v": 79
    },
    {
      "midi": 50,
      "hit": false,
      "t": 63273.80036250044,
      "d": 544.3176374999966,
      "v": 64
    },
    {
      "midi": 54,
      "hit": false,
      "t": 63273.80036250044,
      "d": 544.3176374999966,
      "v": 64
    },
    {
      "midi": 81,
      "hit": false,
      "t": 63273.80036250044,
      "d": 544.3176374999966,
      "v": 88
    },
    {
      "midi": 62,
      "hit": false,
      "t": 63545.39100000044,
      "d": 272.72699999999895,
      "v": 61
    },
    {
      "midi": 69,
      "hit": false,
      "t": 63545.39100000044,
      "d": 272.72699999999895,
      "v": 72
    },
    {
      "midi": 58,
      "hit": false,
      "t": 63818.11800000044,
      "d": 272.72699999999895,
      "v": 71
    },
    {
      "midi": 70,
      "hit": false,
      "t": 63818.11800000044,
      "d": 272.72699999999895,
      "v": 75
    },
    {
      "midi": 74,
      "hit": false,
      "t": 63818.11800000044,
      "d": 272.72699999999895,
      "v": 75
    },
    {
      "midi": 50,
      "hit": false,
      "t": 63818.11800000044,
      "d": 545.4539999999979,
      "v": 62
    },
    {
      "midi": 55,
      "hit": false,
      "t": 63818.11800000044,
      "d": 545.4539999999979,
      "v": 62
    },
    {
      "midi": 76,
      "hit": false,
      "t": 63818.11800000044,
      "d": 545.4539999999979,
      "v": 84
    },
    {
      "midi": 62,
      "hit": false,
      "t": 64090.84500000044,
      "d": 272.72699999999895,
      "v": 56
    },
    {
      "midi": 64,
      "hit": false,
      "t": 64090.84500000044,
      "d": 272.72699999999895,
      "v": 70
    },
    {
      "midi": 57,
      "hit": false,
      "t": 64363.57200000044,
      "d": 272.72699999999895,
      "v": 74
    },
    {
      "midi": 74,
      "hit": false,
      "t": 64363.57200000044,
      "d": 272.72699999999895,
      "v": 79
    },
    {
      "midi": 78,
      "hit": false,
      "t": 64363.57200000044,
      "d": 272.72699999999895,
      "v": 79
    },
    {
      "midi": 50,
      "hit": false,
      "t": 64363.57200000044,
      "d": 545.4539999999979,
      "v": 64
    },
    {
      "midi": 54,
      "hit": false,
      "t": 64363.57200000044,
      "d": 545.4539999999979,
      "v": 64
    },
    {
      "midi": 81,
      "hit": false,
      "t": 64363.57200000044,
      "d": 545.4539999999979,
      "v": 88
    },
    {
      "midi": 62,
      "hit": false,
      "t": 64636.299000000436,
      "d": 272.72699999999895,
      "v": 61
    },
    {
      "midi": 69,
      "hit": false,
      "t": 64636.299000000436,
      "d": 272.72699999999895,
      "v": 74
    },
    {
      "midi": 58,
      "hit": false,
      "t": 64909.026000000435,
      "d": 272.72699999999895,
      "v": 71
    },
    {
      "midi": 70,
      "hit": false,
      "t": 64909.026000000435,
      "d": 272.72699999999895,
      "v": 75
    },
    {
      "midi": 74,
      "hit": false,
      "t": 64909.026000000435,
      "d": 272.72699999999895,
      "v": 75
    },
    {
      "midi": 50,
      "hit": false,
      "t": 64909.026000000435,
      "d": 545.4539999999979,
      "v": 62
    },
    {
      "midi": 55,
      "hit": false,
      "t": 64909.026000000435,
      "d": 545.4539999999979,
      "v": 62
    },
    {
      "midi": 76,
      "hit": false,
      "t": 64909.026000000435,
      "d": 545.4539999999979,
      "v": 84
    },
    {
      "midi": 62,
      "hit": false,
      "t": 65181.75300000043,
      "d": 272.72699999999895,
      "v": 56
    },
    {
      "midi": 64,
      "hit": false,
      "t": 65181.75300000043,
      "d": 272.72699999999895,
      "v": 70
    },
    {
      "midi": 74,
      "hit": false,
      "t": 65454.48000000043,
      "d": 68.18175000000338,
      "v": 72
    },
    {
      "midi": 60,
      "hit": false,
      "t": 65454.48000000043,
      "d": 1090.908000000054,
      "v": 63
    },
    {
      "midi": 62,
      "hit": false,
      "t": 65454.48000000043,
      "d": 1090.908000000054,
      "v": 63
    },
    {
      "midi": 66,
      "hit": false,
      "t": 65454.48000000043,
      "d": 1090.908000000054,
      "v": 70
    },
    {
      "midi": 69,
      "hit": false,
      "t": 65454.48000000043,
      "d": 1090.908000000054,
      "v": 70
    },
    {
      "midi": 76,
      "hit": false,
      "t": 65590.84350000044,
      "d": 68.18175000000338,
      "v": 67
    },
    {
      "midi": 74,
      "hit": false,
      "t": 65727.20700000045,
      "d": 68.18175000000338,
      "v": 70
    },
    {
      "midi": 76,
      "hit": false,
      "t": 65863.57050000045,
      "d": 68.18175000000338,
      "v": 66
    },
    {
      "midi": 78,
      "hit": false,
      "t": 65999.93400000046,
      "d": 136.36350000000675,
      "v": 72
    },
    {
      "midi": 78,
      "hit": false,
      "t": 66272.66100000047,
      "d": 136.36350000000675,
      "v": 68
    },
    {
      "midi": 58,
      "hit": false,
      "t": 66545.38800000049,
      "d": 68.18175000000338,
      "v": 70
    },
    {
      "midi": 76,
      "hit": false,
      "t": 66545.38800000049,
      "d": 272.7270000000135,
      "v": 73
    },
    {
      "midi": 67,
      "hit": false,
      "t": 66545.38800000049,
      "d": 545.454000000027,
      "v": 66
    },
    {
      "midi": 74,
      "hit": false,
      "t": 66545.38800000049,
      "d": 545.454000000027,
      "v": 66
    },
    {
      "midi": 57,
      "hit": false,
      "t": 66681.7515000005,
      "d": 68.18175000000338,
      "v": 60
    },
    {
      "midi": 55,
      "hit": false,
      "t": 66818.1150000005,
      "d": 68.18175000000338,
      "v": 67
    },
    {
      "midi": 79,
      "hit": false,
      "t": 66818.1150000005,
      "d": 272.7270000000135,
      "v": 69
    },
    {
      "midi": 54,
      "hit": false,
      "t": 66954.4785000005,
      "d": 68.18175000000338,
      "v": 60
    },
    {
      "midi": 52,
      "hit": false,
      "t": 67090.84200000051,
      "d": 272.7270000000135,
      "v": 72
    },
    {
      "midi": 73,
      "hit": false,
      "t": 67090.84200000051,
      "d": 272.7270000000135,
      "v": 64
    },
    {
      "midi": 76,
      "hit": false,
      "t": 67090.84200000051,
      "d": 545.4540000000125,
      "v": 72
    },
    {
      "midi": 57,
      "hit": false,
      "t": 67363.56900000053,
      "d": 272.72699999999895,
      "v": 66
    },
    {
      "midi": 69,
      "hit": false,
      "t": 67363.56900000053,
      "d": 272.72699999999895,
      "v": 68
    },
    {
      "midi": 57,
      "hit": false,
      "t": 67636.29600000053,
      "d": 272.72699999999895,
      "v": 74
    },
    {
      "midi": 74,
      "hit": false,
      "t": 67636.29600000053,
      "d": 272.72699999999895,
      "v": 79
    },
    {
      "midi": 78,
      "hit": false,
      "t": 67636.29600000053,
      "d": 272.72699999999895,
      "v": 79
    },
    {
      "midi": 50,
      "hit": false,
      "t": 67636.29600000053,
      "d": 545.4539999999979,
      "v": 64
    },
    {
      "midi": 54,
      "hit": false,
      "t": 67636.29600000053,
      "d": 545.4539999999979,
      "v": 64
    },
    {
      "midi": 81,
      "hit": false,
      "t": 67636.29600000053,
      "d": 545.4539999999979,
      "v": 88
    },
    {
      "midi": 62,
      "hit": false,
      "t": 67909.02300000052,
      "d": 272.72699999999895,
      "v": 61
    },
    {
      "midi": 69,
      "hit": false,
      "t": 67909.02300000052,
      "d": 272.72699999999895,
      "v": 73
    },
    {
      "midi": 58,
      "hit": false,
      "t": 68181.75000000052,
      "d": 272.72699999999895,
      "v": 71
    },
    {
      "midi": 70,
      "hit": false,
      "t": 68181.75000000052,
      "d": 272.72699999999895,
      "v": 75
    },
    {
      "midi": 74,
      "hit": false,
      "t": 68181.75000000052,
      "d": 272.72699999999895,
      "v": 75
    },
    {
      "midi": 50,
      "hit": false,
      "t": 68181.75000000052,
      "d": 545.4539999999979,
      "v": 62
    },
    {
      "midi": 55,
      "hit": false,
      "t": 68181.75000000052,
      "d": 545.4539999999979,
      "v": 62
    },
    {
      "midi": 76,
      "hit": false,
      "t": 68181.75000000052,
      "d": 545.4539999999979,
      "v": 84
    },
    {
      "midi": 62,
      "hit": false,
      "t": 68454.47700000052,
      "d": 272.72699999999895,
      "v": 53
    },
    {
      "midi": 64,
      "hit": false,
      "t": 68454.47700000052,
      "d": 272.72699999999895,
      "v": 70
    },
    {
      "midi": 57,
      "hit": false,
      "t": 68727.20400000052,
      "d": 272.72699999999895,
      "v": 74
    },
    {
      "midi": 74,
      "hit": false,
      "t": 68727.20400000052,
      "d": 272.72699999999895,
      "v": 79
    },
    {
      "midi": 78,
      "hit": false,
      "t": 68727.20400000052,
      "d": 272.72699999999895,
      "v": 79
    },
    {
      "midi": 50,
      "hit": false,
      "t": 68727.20400000052,
      "d": 545.4539999999979,
      "v": 64
    },
    {
      "midi": 54,
      "hit": false,
      "t": 68727.20400000052,
      "d": 545.4539999999979,
      "v": 64
    },
    {
      "midi": 81,
      "hit": false,
      "t": 68727.20400000052,
      "d": 545.4539999999979,
      "v": 88
    },
    {
      "midi": 62,
      "hit": false,
      "t": 68999.93100000052,
      "d": 272.72699999999895,
      "v": 60
    },
    {
      "midi": 69,
      "hit": false,
      "t": 68999.93100000052,
      "d": 272.72699999999895,
      "v": 73
    },
    {
      "midi": 58,
      "hit": false,
      "t": 69272.65800000052,
      "d": 272.72699999999895,
      "v": 71
    },
    {
      "midi": 70,
      "hit": false,
      "t": 69272.65800000052,
      "d": 272.72699999999895,
      "v": 75
    },
    {
      "midi": 74,
      "hit": false,
      "t": 69272.65800000052,
      "d": 272.72699999999895,
      "v": 75
    },
    {
      "midi": 50,
      "hit": false,
      "t": 69272.65800000052,
      "d": 545.4539999999979,
      "v": 62
    },
    {
      "midi": 55,
      "hit": false,
      "t": 69272.65800000052,
      "d": 545.4539999999979,
      "v": 62
    },
    {
      "midi": 76,
      "hit": false,
      "t": 69272.65800000052,
      "d": 545.4539999999979,
      "v": 84
    },
    {
      "midi": 62,
      "hit": false,
      "t": 69545.38500000052,
      "d": 272.72699999999895,
      "v": 53
    },
    {
      "midi": 64,
      "hit": false,
      "t": 69545.38500000052,
      "d": 272.72699999999895,
      "v": 69
    },
    {
      "midi": 74,
      "hit": false,
      "t": 69818.11200000052,
      "d": 68.18175000000338,
      "v": 77
    },
    {
      "midi": 60,
      "hit": false,
      "t": 69818.11200000052,
      "d": 1090.908000000054,
      "v": 63
    },
    {
      "midi": 62,
      "hit": false,
      "t": 69818.11200000052,
      "d": 1090.908000000054,
      "v": 63
    },
    {
      "midi": 66,
      "hit": false,
      "t": 69818.11200000052,
      "d": 1090.908000000054,
      "v": 70
    },
    {
      "midi": 69,
      "hit": false,
      "t": 69818.11200000052,
      "d": 1090.908000000054,
      "v": 70
    },
    {
      "midi": 76,
      "hit": false,
      "t": 69954.47550000052,
      "d": 68.18175000000338,
      "v": 71
    },
    {
      "midi": 74,
      "hit": false,
      "t": 70090.83900000053,
      "d": 68.18175000000338,
      "v": 77
    },
    {
      "midi": 76,
      "hit": false,
      "t": 70227.20250000054,
      "d": 68.18175000000338,
      "v": 70
    },
    {
      "midi": 78,
      "hit": false,
      "t": 70363.56600000054,
      "d": 136.36350000000675,
      "v": 80
    },
    {
      "midi": 78,
      "hit": false,
      "t": 70636.29300000056,
      "d": 136.36350000000675,
      "v": 72
    },
    {
      "midi": 58,
      "hit": false,
      "t": 70909.02000000057,
      "d": 68.18175000000338,
      "v": 60
    },
    {
      "midi": 62,
      "hit": false,
      "t": 70909.02000000057,
      "d": 68.18175000000338,
      "v": 60
    },
    {
      "midi": 74,
      "hit": false,
      "t": 70909.02000000057,
      "d": 68.18175000000338,
      "v": 80
    },
    {
      "midi": 76,
      "hit": false,
      "t": 70909.02000000057,
      "d": 68.18175000000338,
      "v": 80
    },
    {
      "midi": 78,
      "hit": false,
      "t": 71045.38350000058,
      "d": 68.18175000000338,
      "v": 81
    },
    {
      "midi": 58,
      "hit": false,
      "t": 71181.74700000059,
      "d": 68.18175000000338,
      "v": 66
    },
    {
      "midi": 79,
      "hit": false,
      "t": 71181.74700000059,
      "d": 68.18175000000338,
      "v": 83
    },
    {
      "midi": 57,
      "hit": false,
      "t": 71318.11050000059,
      "d": 68.18175000000338,
      "v": 68
    },
    {
      "midi": 81,
      "hit": false,
      "t": 71318.11050000059,
      "d": 68.18175000000338,
      "v": 85
    },
    {
      "midi": 55,
      "hit": false,
      "t": 71454.4740000006,
      "d": 272.72699999999895,
      "v": 71
    },
    {
      "midi": 82,
      "hit": false,
      "t": 71454.4740000006,
      "d": 272.72699999999895,
      "v": 86
    },
    {
      "midi": 43,
      "hit": false,
      "t": 71999.9280000006,
      "d": 545.4540000000125,
      "v": 41
    },
    {
      "midi": 51,
      "hit": false,
      "t": 71999.9280000006,
      "d": 545.4540000000125,
      "v": 41
    },
    {
      "midi": 61,
      "hit": false,
      "t": 72136.29150000059,
      "d": 136.36350000000675,
      "v": 42
    },
    {
      "midi": 63,
      "hit": false,
      "t": 72136.29150000059,
      "d": 136.36350000000675,
      "v": 42
    },
    {
      "midi": 58,
      "hit": false,
      "t": 72272.6550000006,
      "d": 272.7270000000135,
      "v": 37
    },
    {
      "midi": 61,
      "hit": false,
      "t": 72409.0185000006,
      "d": 136.36350000000675,
      "v": 42
    },
    {
      "midi": 63,
      "hit": false,
      "t": 72409.0185000006,
      "d": 136.36350000000675,
      "v": 42
    },
    {
      "midi": 56,
      "hit": false,
      "t": 72545.38200000061,
      "d": 545.4539999999979,
      "v": 43
    },
    {
      "midi": 60,
      "hit": false,
      "t": 72545.38200000061,
      "d": 545.4539999999979,
      "v": 47
    },
    {
      "midi": 44,
      "hit": false,
      "t": 72818.10900000061,
      "d": 272.72699999999895,
      "v": 37
    },
    {
      "midi": 51,
      "hit": false,
      "t": 72818.10900000061,
      "d": 272.72699999999895,
      "v": 37
    },
    {
      "midi": 63,
      "hit": false,
      "t": 72818.10900000061,
      "d": 272.72699999999895,
      "v": 42
    },
    {
      "midi": 72,
      "hit": false,
      "t": 72818.10900000061,
      "d": 272.72699999999895,
      "v": 42
    },
    {
      "midi": 45,
      "hit": false,
      "t": 73090.8360000006,
      "d": 545.454000000027,
      "v": 44
    },
    {
      "midi": 53,
      "hit": false,
      "t": 73090.8360000006,
      "d": 545.454000000027,
      "v": 44
    },
    {
      "midi": 63,
      "hit": false,
      "t": 73227.19950000061,
      "d": 136.36350000000675,
      "v": 46
    },
    {
      "midi": 65,
      "hit": false,
      "t": 73227.19950000061,
      "d": 136.36350000000675,
      "v": 46
    },
    {
      "midi": 60,
      "hit": false,
      "t": 73363.56300000062,
      "d": 272.7270000000135,
      "v": 40
    },
    {
      "midi": 63,
      "hit": false,
      "t": 73499.92650000063,
      "d": 136.36350000000675,
      "v": 46
    },
    {
      "midi": 65,
      "hit": false,
      "t": 73499.92650000063,
      "d": 136.36350000000675,
      "v": 46
    },
    {
      "midi": 58,
      "hit": false,
      "t": 73636.29000000063,
      "d": 545.4539999999979,
      "v": 48
    },
    {
      "midi": 62,
      "hit": false,
      "t": 73636.29000000063,
      "d": 545.4539999999979,
      "v": 52
    },
    {
      "midi": 46,
      "hit": false,
      "t": 73909.01700000063,
      "d": 272.72699999999895,
      "v": 40
    },
    {
      "midi": 53,
      "hit": false,
      "t": 73909.01700000063,
      "d": 272.72699999999895,
      "v": 40
    },
    {
      "midi": 65,
      "hit": false,
      "t": 73909.01700000063,
      "d": 272.72699999999895,
      "v": 41
    },
    {
      "midi": 74,
      "hit": false,
      "t": 73909.01700000063,
      "d": 272.72699999999895,
      "v": 47
    },
    {
      "midi": 47,
      "hit": false,
      "t": 74181.74400000063,
      "d": 545.4539999999979,
      "v": 45
    },
    {
      "midi": 55,
      "hit": false,
      "t": 74181.74400000063,
      "d": 545.4539999999979,
      "v": 45
    },
    {
      "midi": 62,
      "hit": false,
      "t": 74181.74400000063,
      "d": 545.4539999999979,
      "v": 49
    },
    {
      "midi": 59,
      "hit": false,
      "t": 74454.47100000063,
      "d": 272.72699999999895,
      "v": 38
    },
    {
      "midi": 65,
      "hit": false,
      "t": 74454.47100000063,
      "d": 272.72699999999895,
      "v": 38
    },
    {
      "midi": 67,
      "hit": false,
      "t": 74454.47100000063,
      "d": 272.72699999999895,
      "v": 38
    },
    {
      "midi": 74,
      "hit": false,
      "t": 74454.47100000063,
      "d": 272.72699999999895,
      "v": 41
    },
    {
      "midi": 48,
      "hit": false,
      "t": 74727.19800000063,
      "d": 545.4539999999979,
      "v": 47
    },
    {
      "midi": 55,
      "hit": false,
      "t": 74727.19800000063,
      "d": 545.4539999999979,
      "v": 47
    },
    {
      "midi": 63,
      "hit": false,
      "t": 74727.19800000063,
      "d": 545.4539999999979,
      "v": 50
    },
    {
      "midi": 60,
      "hit": false,
      "t": 74999.92500000063,
      "d": 272.72699999999895,
      "v": 39
    },
    {
      "midi": 67,
      "hit": false,
      "t": 74999.92500000063,
      "d": 272.72699999999895,
      "v": 38
    },
    {
      "midi": 75,
      "hit": false,
      "t": 74999.92500000063,
      "d": 272.72699999999895,
      "v": 43
    },
    {
      "midi": 50,
      "hit": false,
      "t": 75272.65200000063,
      "d": 545.4540000000125,
      "v": 49
    },
    {
      "midi": 55,
      "hit": false,
      "t": 75272.65200000063,
      "d": 545.4540000000125,
      "v": 49
    },
    {
      "midi": 65,
      "hit": false,
      "t": 75272.65200000063,
      "d": 545.4540000000125,
      "v": 54
    },
    {
      "midi": 62,
      "hit": false,
      "t": 75545.37900000064,
      "d": 272.72699999999895,
      "v": 41
    },
    {
      "midi": 71,
      "hit": false,
      "t": 75545.37900000064,
      "d": 272.72699999999895,
      "v": 38
    },
    {
      "midi": 79,
      "hit": false,
      "t": 75545.37900000064,
      "d": 272.72699999999895,
      "v": 43
    },
    {
      "midi": 48,
      "hit": false,
      "t": 75818.10600000064,
      "d": 545.4539999999979,
      "v": 47
    },
    {
      "midi": 55,
      "hit": false,
      "t": 75818.10600000064,
      "d": 545.4539999999979,
      "v": 47
    },
    {
      "midi": 63,
      "hit": false,
      "t": 75818.10600000064,
      "d": 545.4539999999979,
      "v": 53
    },
    {
      "midi": 60,
      "hit": false,
      "t": 76090.83300000064,
      "d": 272.72699999999895,
      "v": 40
    },
    {
      "midi": 67,
      "hit": false,
      "t": 76090.83300000064,
      "d": 272.72699999999895,
      "v": 40
    },
    {
      "midi": 75,
      "hit": false,
      "t": 76090.83300000064,
      "d": 272.72699999999895,
      "v": 45
    },
    {
      "midi": 47,
      "hit": false,
      "t": 76363.56000000064,
      "d": 545.454000000027,
      "v": 46
    },
    {
      "midi": 55,
      "hit": false,
      "t": 76363.56000000064,
      "d": 545.454000000027,
      "v": 46
    },
    {
      "midi": 65,
      "hit": false,
      "t": 76499.92350000064,
      "d": 136.36350000000675,
      "v": 47
    },
    {
      "midi": 67,
      "hit": false,
      "t": 76499.92350000064,
      "d": 136.36350000000675,
      "v": 47
    },
    {
      "midi": 62,
      "hit": false,
      "t": 76636.28700000065,
      "d": 272.7270000000135,
      "v": 42
    },
    {
      "midi": 65,
      "hit": false,
      "t": 76772.65050000066,
      "d": 136.36350000000675,
      "v": 48
    },
    {
      "midi": 67,
      "hit": false,
      "t": 76772.65050000066,
      "d": 136.36350000000675,
      "v": 48
    },
    {
      "midi": 60,
      "hit": false,
      "t": 76909.01400000066,
      "d": 545.4540000000125,
      "v": 51
    },
    {
      "midi": 64,
      "hit": false,
      "t": 76909.01400000066,
      "d": 545.4540000000125,
      "v": 53
    },
    {
      "midi": 48,
      "hit": false,
      "t": 77181.74100000068,
      "d": 272.72699999999895,
      "v": 42
    },
    {
      "midi": 55,
      "hit": false,
      "t": 77181.74100000068,
      "d": 272.72699999999895,
      "v": 42
    },
    {
      "midi": 67,
      "hit": false,
      "t": 77181.74100000068,
      "d": 272.72699999999895,
      "v": 43
    },
    {
      "midi": 76,
      "hit": false,
      "t": 77181.74100000068,
      "d": 272.72699999999895,
      "v": 48
    },
    {
      "midi": 49,
      "hit": false,
      "t": 77454.46800000068,
      "d": 545.454000000027,
      "v": 52
    },
    {
      "midi": 57,
      "hit": false,
      "t": 77454.46800000068,
      "d": 545.454000000027,
      "v": 52
    },
    {
      "midi": 67,
      "hit": false,
      "t": 77590.83150000068,
      "d": 136.36350000000675,
      "v": 53
    },
    {
      "midi": 69,
      "hit": false,
      "t": 77590.83150000068,
      "d": 136.36350000000675,
      "v": 53
    },
    {
      "midi": 64,
      "hit": false,
      "t": 77727.19500000069,
      "d": 272.7270000000135,
      "v": 46
    },
    {
      "midi": 67,
      "hit": false,
      "t": 77863.5585000007,
      "d": 136.36350000000675,
      "v": 53
    },
    {
      "midi": 69,
      "hit": false,
      "t": 77863.5585000007,
      "d": 136.36350000000675,
      "v": 53
    },
    {
      "midi": 62,
      "hit": false,
      "t": 77999.9220000007,
      "d": 545.4540000000125,
      "v": 54
    },
    {
      "midi": 65,
      "hit": false,
      "t": 77999.9220000007,
      "d": 545.4540000000125,
      "v": 58
    },
    {
      "midi": 50,
      "hit": false,
      "t": 78272.64900000072,
      "d": 272.72699999999895,
      "v": 47
    },
    {
      "midi": 57,
      "hit": false,
      "t": 78272.64900000072,
      "d": 272.72699999999895,
      "v": 47
    },
    {
      "midi": 69,
      "hit": false,
      "t": 78272.64900000072,
      "d": 272.72699999999895,
      "v": 47
    },
    {
      "midi": 77,
      "hit": false,
      "t": 78272.64900000072,
      "d": 272.72699999999895,
      "v": 53
    },
    {
      "midi": 49,
      "hit": false,
      "t": 78545.37600000072,
      "d": 272.72699999999895,
      "v": 54
    },
    {
      "midi": 57,
      "hit": false,
      "t": 78545.37600000072,
      "d": 545.4539999999979,
      "v": 54
    },
    {
      "midi": 64,
      "hit": false,
      "t": 78545.37600000072,
      "d": 545.4539999999979,
      "v": 58
    },
    {
      "midi": 61,
      "hit": false,
      "t": 78818.10300000072,
      "d": 272.72699999999895,
      "v": 46
    },
    {
      "midi": 67,
      "hit": false,
      "t": 78818.10300000072,
      "d": 272.72699999999895,
      "v": 44
    },
    {
      "midi": 69,
      "hit": false,
      "t": 78818.10300000072,
      "d": 272.72699999999895,
      "v": 44
    },
    {
      "midi": 76,
      "hit": false,
      "t": 78818.10300000072,
      "d": 272.72699999999895,
      "v": 49
    },
    {
      "midi": 50,
      "hit": false,
      "t": 79090.83000000071,
      "d": 272.72699999999895,
      "v": 56
    },
    {
      "midi": 57,
      "hit": false,
      "t": 79090.83000000071,
      "d": 545.4539999999979,
      "v": 56
    },
    {
      "midi": 65,
      "hit": false,
      "t": 79090.83000000071,
      "d": 545.4539999999979,
      "v": 59
    },
    {
      "midi": 62,
      "hit": false,
      "t": 79363.55700000071,
      "d": 272.72699999999895,
      "v": 47
    },
    {
      "midi": 69,
      "hit": false,
      "t": 79363.55700000071,
      "d": 272.72699999999895,
      "v": 46
    },
    {
      "midi": 77,
      "hit": false,
      "t": 79363.55700000071,
      "d": 272.72699999999895,
      "v": 52
    },
    {
      "midi": 52,
      "hit": false,
      "t": 79636.28400000071,
      "d": 272.72699999999895,
      "v": 57
    },
    {
      "midi": 57,
      "hit": false,
      "t": 79636.28400000071,
      "d": 545.4539999999979,
      "v": 57
    },
    {
      "midi": 67,
      "hit": false,
      "t": 79636.28400000071,
      "d": 545.4539999999979,
      "v": 65
    },
    {
      "midi": 64,
      "hit": false,
      "t": 79909.01100000071,
      "d": 272.72699999999895,
      "v": 49
    },
    {
      "midi": 73,
      "hit": false,
      "t": 79909.01100000071,
      "d": 272.72699999999895,
      "v": 46
    },
    {
      "midi": 81,
      "hit": false,
      "t": 79909.01100000071,
      "d": 272.72699999999895,
      "v": 53
    },
    {
      "midi": 50,
      "hit": false,
      "t": 80181.73800000071,
      "d": 272.72699999999895,
      "v": 56
    },
    {
      "midi": 57,
      "hit": false,
      "t": 80181.73800000071,
      "d": 545.4539999999979,
      "v": 56
    },
    {
      "midi": 65,
      "hit": false,
      "t": 80181.73800000071,
      "d": 545.4539999999979,
      "v": 62
    },
    {
      "midi": 62,
      "hit": false,
      "t": 80454.46500000071,
      "d": 272.72699999999895,
      "v": 48
    },
    {
      "midi": 69,
      "hit": false,
      "t": 80454.46500000071,
      "d": 272.72699999999895,
      "v": 48
    },
    {
      "midi": 77,
      "hit": false,
      "t": 80454.46500000071,
      "d": 272.72699999999895,
      "v": 55
    },
    {
      "midi": 49,
      "hit": false,
      "t": 80727.19200000071,
      "d": 272.72699999999895,
      "v": 58
    },
    {
      "midi": 57,
      "hit": false,
      "t": 80727.19200000071,
      "d": 545.4539999999979,
      "v": 58
    },
    {
      "midi": 64,
      "hit": false,
      "t": 80727.19200000071,
      "d": 545.4539999999979,
      "v": 66
    },
    {
      "midi": 61,
      "hit": false,
      "t": 80999.91900000071,
      "d": 272.72699999999895,
      "v": 49
    },
    {
      "midi": 67,
      "hit": false,
      "t": 80999.91900000071,
      "d": 272.72699999999895,
      "v": 50
    },
    {
      "midi": 69,
      "hit": false,
      "t": 80999.91900000071,
      "d": 272.72699999999895,
      "v": 50
    },
    {
      "midi": 76,
      "hit": false,
      "t": 80999.91900000071,
      "d": 272.72699999999895,
      "v": 57
    },
    {
      "midi": 50,
      "hit": false,
      "t": 81272.6460000007,
      "d": 272.72699999999895,
      "v": 61
    },
    {
      "midi": 57,
      "hit": false,
      "t": 81272.6460000007,
      "d": 545.4539999999979,
      "v": 61
    },
    {
      "midi": 65,
      "hit": false,
      "t": 81272.6460000007,
      "d": 545.4539999999979,
      "v": 66
    },
    {
      "midi": 62,
      "hit": false,
      "t": 81545.3730000007,
      "d": 272.72699999999895,
      "v": 52
    },
    {
      "midi": 69,
      "hit": false,
      "t": 81545.3730000007,
      "d": 272.72699999999895,
      "v": 50
    },
    {
      "midi": 77,
      "hit": false,
      "t": 81545.3730000007,
      "d": 272.72699999999895,
      "v": 57
    },
    {
      "midi": 51,
      "hit": false,
      "t": 81818.1000000007,
      "d": 272.72699999999895,
      "v": 63
    },
    {
      "midi": 59,
      "hit": false,
      "t": 81818.1000000007,
      "d": 545.4539999999979,
      "v": 63
    },
    {
      "midi": 69,
      "hit": false,
      "t": 81818.1000000007,
      "d": 545.4539999999979,
      "v": 70
    },
    {
      "midi": 63,
      "hit": false,
      "t": 82090.8270000007,
      "d": 272.72699999999895,
      "v": 53
    },
    {
      "midi": 78,
      "hit": false,
      "t": 82090.8270000007,
      "d": 272.72699999999895,
      "v": 50
    },
    {
      "midi": 83,
      "hit": false,
      "t": 82090.8270000007,
      "d": 272.72699999999895,
      "v": 57
    },
    {
      "midi": 52,
      "hit": false,
      "t": 82363.5540000007,
      "d": 272.72699999999895,
      "v": 60
    },
    {
      "midi": 59,
      "hit": false,
      "t": 82363.5540000007,
      "d": 545.4539999999979,
      "v": 60
    },
    {
      "midi": 67,
      "hit": false,
      "t": 82363.5540000007,
      "d": 545.4539999999979,
      "v": 67
    },
    {
      "midi": 64,
      "hit": false,
      "t": 82636.2810000007,
      "d": 272.72699999999895,
      "v": 52
    },
    {
      "midi": 71,
      "hit": false,
      "t": 82636.2810000007,
      "d": 272.72699999999895,
      "v": 53
    },
    {
      "midi": 79,
      "hit": false,
      "t": 82636.2810000007,
      "d": 272.72699999999895,
      "v": 59
    },
    {
      "midi": 51,
      "hit": false,
      "t": 82909.0080000007,
      "d": 272.72699999999895,
      "v": 64
    },
    {
      "midi": 59,
      "hit": false,
      "t": 82909.0080000007,
      "d": 545.4539999999979,
      "v": 64
    },
    {
      "midi": 66,
      "hit": false,
      "t": 82909.0080000007,
      "d": 545.4539999999979,
      "v": 71
    },
    {
      "midi": 63,
      "hit": false,
      "t": 83181.7350000007,
      "d": 272.72699999999895,
      "v": 54
    },
    {
      "midi": 69,
      "hit": false,
      "t": 83181.7350000007,
      "d": 272.72699999999895,
      "v": 57
    },
    {
      "midi": 71,
      "hit": false,
      "t": 83181.7350000007,
      "d": 272.72699999999895,
      "v": 57
    },
    {
      "midi": 78,
      "hit": false,
      "t": 83181.7350000007,
      "d": 272.72699999999895,
      "v": 64
    },
    {
      "midi": 52,
      "hit": false,
      "t": 83454.4620000007,
      "d": 272.72699999999895,
      "v": 66
    },
    {
      "midi": 59,
      "hit": false,
      "t": 83454.4620000007,
      "d": 545.4539999999979,
      "v": 66
    },
    {
      "midi": 67,
      "hit": false,
      "t": 83454.4620000007,
      "d": 545.4539999999979,
      "v": 74
    },
    {
      "midi": 64,
      "hit": false,
      "t": 83727.1890000007,
      "d": 272.72699999999895,
      "v": 56
    },
    {
      "midi": 71,
      "hit": false,
      "t": 83727.1890000007,
      "d": 272.72699999999895,
      "v": 58
    },
    {
      "midi": 79,
      "hit": false,
      "t": 83727.1890000007,
      "d": 272.72699999999895,
      "v": 64
    },
    {
      "midi": 53,
      "hit": false,
      "t": 83999.9160000007,
      "d": 272.72699999999895,
      "v": 67
    },
    {
      "midi": 61,
      "hit": false,
      "t": 83999.9160000007,
      "d": 545.4539999999979,
      "v": 67
    },
    {
      "midi": 71,
      "hit": false,
      "t": 83999.9160000007,
      "d": 545.4539999999979,
      "v": 76
    },
    {
      "midi": 65,
      "hit": false,
      "t": 84272.6430000007,
      "d": 272.72699999999895,
      "v": 57
    },
    {
      "midi": 80,
      "hit": false,
      "t": 84272.6430000007,
      "d": 272.72699999999895,
      "v": 58
    },
    {
      "midi": 85,
      "hit": false,
      "t": 84272.6430000007,
      "d": 272.72699999999895,
      "v": 65
    },
    {
      "midi": 54,
      "hit": false,
      "t": 84545.3700000007,
      "d": 272.72699999999895,
      "v": 65
    },
    {
      "midi": 61,
      "hit": false,
      "t": 84545.3700000007,
      "d": 545.4539999999979,
      "v": 65
    },
    {
      "midi": 69,
      "hit": false,
      "t": 84545.3700000007,
      "d": 545.4539999999979,
      "v": 75
    },
    {
      "midi": 66,
      "hit": false,
      "t": 84818.0970000007,
      "d": 272.72699999999895,
      "v": 56
    },
    {
      "midi": 73,
      "hit": false,
      "t": 84818.0970000007,
      "d": 272.72699999999895,
      "v": 60
    },
    {
      "midi": 81,
      "hit": false,
      "t": 84818.0970000007,
      "d": 272.72699999999895,
      "v": 67
    },
    {
      "midi": 54,
      "hit": false,
      "t": 85090.82400000069,
      "d": 272.72699999999895,
      "v": 72
    },
    {
      "midi": 62,
      "hit": false,
      "t": 85090.82400000069,
      "d": 545.4539999999979,
      "v": 72
    },
    {
      "midi": 72,
      "hit": false,
      "t": 85090.82400000069,
      "d": 545.4539999999979,
      "v": 82
    },
    {
      "midi": 66,
      "hit": false,
      "t": 85363.55100000069,
      "d": 272.72699999999895,
      "v": 60
    },
    {
      "midi": 81,
      "hit": false,
      "t": 85363.55100000069,
      "d": 272.72699999999895,
      "v": 60
    },
    {
      "midi": 86,
      "hit": false,
      "t": 85363.55100000069,
      "d": 272.72699999999895,
      "v": 69
    },
    {
      "midi": 55,
      "hit": false,
      "t": 85636.27800000069,
      "d": 272.72699999999895,
      "v": 70
    },
    {
      "midi": 62,
      "hit": false,
      "t": 85636.27800000069,
      "d": 545.4539999999979,
      "v": 70
    },
    {
      "midi": 71,
      "hit": false,
      "t": 85636.27800000069,
      "d": 545.4539999999979,
      "v": 78
    },
    {
      "midi": 67,
      "hit": false,
      "t": 85909.00500000069,
      "d": 272.72699999999895,
      "v": 60
    },
    {
      "midi": 74,
      "hit": false,
      "t": 85909.00500000069,
      "d": 272.72699999999895,
      "v": 65
    },
    {
      "midi": 83,
      "hit": false,
      "t": 85909.00500000069,
      "d": 272.72699999999895,
      "v": 72
    },
    {
      "midi": 54,
      "hit": false,
      "t": 86181.73200000069,
      "d": 272.72699999999895,
      "v": 73
    },
    {
      "midi": 62,
      "hit": false,
      "t": 86181.73200000069,
      "d": 545.4539999999979,
      "v": 73
    },
    {
      "midi": 72,
      "hit": false,
      "t": 86181.73200000069,
      "d": 545.4539999999979,
      "v": 83
    },
    {
      "midi": 66,
      "hit": false,
      "t": 86454.45900000069,
      "d": 272.72699999999895,
      "v": 61
    },
    {
      "midi": 81,
      "hit": false,
      "t": 86454.45900000069,
      "d": 272.72699999999895,
      "v": 61
    },
    {
      "midi": 86,
      "hit": false,
      "t": 86454.45900000069,
      "d": 272.72699999999895,
      "v": 70
    },
    {
      "midi": 55,
      "hit": false,
      "t": 86727.18600000069,
      "d": 272.72699999999895,
      "v": 71
    },
    {
      "midi": 62,
      "hit": false,
      "t": 86727.18600000069,
      "d": 545.4539999999979,
      "v": 71
    },
    {
      "midi": 71,
      "hit": false,
      "t": 86727.18600000069,
      "d": 545.4539999999979,
      "v": 79
    },
    {
      "midi": 67,
      "hit": false,
      "t": 86999.91300000068,
      "d": 272.72699999999895,
      "v": 60
    },
    {
      "midi": 74,
      "hit": false,
      "t": 86999.91300000068,
      "d": 272.72699999999895,
      "v": 61
    },
    {
      "midi": 83,
      "hit": false,
      "t": 86999.91300000068,
      "d": 272.72699999999895,
      "v": 70
    },
    {
      "midi": 88,
      "hit": false,
      "t": 87272.64000000068,
      "d": 68.18175000000338,
      "v": 86
    },
    {
      "midi": 67,
      "hit": false,
      "t": 87272.64000000068,
      "d": 136.36350000000675,
      "v": 69
    },
    {
      "midi": 70,
      "hit": false,
      "t": 87272.64000000068,
      "d": 136.36350000000675,
      "v": 69
    },
    {
      "midi": 74,
      "hit": false,
      "t": 87272.64000000068,
      "d": 136.36350000000675,
      "v": 77
    },
    {
      "midi": 86,
      "hit": false,
      "t": 87409.00350000069,
      "d": 68.18175000000338,
      "v": 74
    },
    {
      "midi": 82,
      "hit": false,
      "t": 87545.3670000007,
      "d": 68.18175000000338,
      "v": 78
    },
    {
      "midi": 81,
      "hit": false,
      "t": 87681.7305000007,
      "d": 68.18175000000338,
      "v": 75
    },
    {
      "midi": 76,
      "hit": false,
      "t": 87818.09400000071,
      "d": 68.18175000000338,
      "v": 80
    },
    {
      "midi": 79,
      "hit": false,
      "t": 87818.09400000071,
      "d": 136.36350000000675,
      "v": 77
    },
    {
      "midi": 74,
      "hit": false,
      "t": 87954.45750000072,
      "d": 68.18175000000338,
      "v": 71
    },
    {
      "midi": 70,
      "hit": false,
      "t": 88090.82100000072,
      "d": 68.18175000000338,
      "v": 75
    },
    {
      "midi": 69,
      "hit": false,
      "t": 88227.18450000073,
      "d": 68.18175000000338,
      "v": 67
    },
    {
      "midi": 64,
      "hit": false,
      "t": 88363.54800000074,
      "d": 68.18175000000338,
      "v": 74
    },
    {
      "midi": 67,
      "hit": false,
      "t": 88363.54800000074,
      "d": 136.36350000000675,
      "v": 82
    },
    {
      "midi": 62,
      "hit": false,
      "t": 88499.91150000074,
      "d": 68.18175000000338,
      "v": 64
    },
    {
      "midi": 58,
      "hit": false,
      "t": 88636.27500000075,
      "d": 68.18175000000338,
      "v": 71
    },
    {
      "midi": 57,
      "hit": false,
      "t": 88772.63850000076,
      "d": 68.18175000000338,
      "v": 64
    },
    {
      "midi": 52,
      "hit": false,
      "t": 88909.00200000076,
      "d": 68.18175000000338,
      "v": 71
    },
    {
      "midi": 55,
      "hit": false,
      "t": 88909.00200000076,
      "d": 136.36350000000675,
      "v": 75
    },
    {
      "midi": 50,
      "hit": false,
      "t": 89045.36550000077,
      "d": 68.18175000000338,
      "v": 62
    },
    {
      "midi": 46,
      "hit": false,
      "t": 89181.72900000078,
      "d": 68.18175000000338,
      "v": 68
    },
    {
      "midi": 45,
      "hit": false,
      "t": 89318.09250000078,
      "d": 68.18175000000338,
      "v": 61
    },
    {
      "midi": 43,
      "hit": false,
      "t": 89454.45600000079,
      "d": 136.36350000000675,
      "v": 75
    },
    {
      "midi": 43,
      "hit": false,
      "t": 89727.1830000008,
      "d": 136.36350000000675,
      "v": 69
    },
    {
      "midi": 44,
      "hit": false,
      "t": 89999.91000000082,
      "d": 136.36350000000675,
      "v": 74
    },
    {
      "midi": 62,
      "hit": false,
      "t": 89999.91000000082,
      "d": 818.181000000026,
      "v": 72
    },
    {
      "midi": 64,
      "hit": false,
      "t": 89999.91000000082,
      "d": 818.181000000026,
      "v": 72
    },
    {
      "midi": 45,
      "hit": false,
      "t": 90136.27350000083,
      "d": 136.36350000000675,
      "v": 66
    },
    {
      "midi": 46,
      "hit": false,
      "t": 90272.63700000083,
      "d": 136.36350000000675,
      "v": 73
    },
    {
      "midi": 44,
      "hit": false,
      "t": 90409.00050000084,
      "d": 136.36350000000675,
      "v": 64
    },
    {
      "midi": 45,
      "hit": false,
      "t": 90545.36400000085,
      "d": 272.72699999999895,
      "v": 73
    },
    {
      "midi": 45,
      "hit": false,
      "t": 90818.09100000084,
      "d": 204.54524999999558,
      "v": 71
    },
    {
      "midi": 55,
      "hit": false,
      "t": 90818.09100000084,
      "d": 204.54524999999558,
      "v": 71
    },
    {
      "midi": 61,
      "hit": false,
      "t": 90818.09100000084,
      "d": 204.54524999999558,
      "v": 80
    },
    {
      "midi": 64,
      "hit": false,
      "t": 90818.09100000084,
      "d": 204.54524999999558,
      "v": 80
    },
    {
      "midi": 69,
      "hit": false,
      "t": 90818.09100000084,
      "d": 204.54524999999558,
      "v": 80
    },
    {
      "midi": 50,
      "hit": false,
      "t": 91090.81800000084,
      "d": 272.72699999999895,
      "v": 77
    },
    {
      "midi": 54,
      "hit": false,
      "t": 91090.81800000084,
      "d": 272.72699999999895,
      "v": 77
    },
    {
      "midi": 62,
      "hit": false,
      "t": 91090.81800000084,
      "d": 272.72699999999895,
      "v": 86
    },
    {
      "midi": 69,
      "hit": false,
      "t": 91090.81800000084,
      "d": 272.72699999999895,
      "v": 86
    },
    {
      "midi": 74,
      "hit": false,
      "t": 91090.81800000084,
      "d": 272.72699999999895,
      "v": 86
    },
    {
      "midi": 54,
      "hit": false,
      "t": 91636.27200000084,
      "d": 545.4539999999979,
      "v": 73
    },
    {
      "midi": 78,
      "hit": false,
      "t": 91636.27200000084,
      "d": 545.4539999999979,
      "v": 91
    },
    {
      "midi": 46,
      "hit": false,
      "t": 91636.27200000084,
      "d": 1090.9079999999958,
      "v": 64
    },
    {
      "midi": 58,
      "hit": false,
      "t": 91636.27200000084,
      "d": 1090.9079999999958,
      "v": 73
    },
    {
      "midi": 74,
      "hit": false,
      "t": 91636.27200000084,
      "d": 1090.9079999999958,
      "v": 81
    },
    {
      "midi": 86,
      "hit": false,
      "t": 91636.27200000084,
      "d": 1090.9079999999958,
      "v": 91
    },
    {
      "midi": 55,
      "hit": false,
      "t": 92181.72600000084,
      "d": 545.4539999999979,
      "v": 57
    },
    {
      "midi": 79,
      "hit": false,
      "t": 92181.72600000084,
      "d": 545.4539999999979,
      "v": 79
    },
    {
      "midi": 56,
      "hit": false,
      "t": 92727.18000000084,
      "d": 545.4539999999979,
      "v": 69
    },
    {
      "midi": 76,
      "hit": false,
      "t": 92727.18000000084,
      "d": 545.4539999999979,
      "v": 89
    },
    {
      "midi": 48,
      "hit": false,
      "t": 92727.18000000084,
      "d": 1090.9079999999958,
      "v": 62
    },
    {
      "midi": 60,
      "hit": false,
      "t": 92727.18000000084,
      "d": 1090.9079999999958,
      "v": 69
    },
    {
      "midi": 72,
      "hit": false,
      "t": 92727.18000000084,
      "d": 1090.9079999999958,
      "v": 79
    },
    {
      "midi": 84,
      "hit": false,
      "t": 92727.18000000084,
      "d": 1090.9079999999958,
      "v": 89
    },
    {
      "midi": 57,
      "hit": false,
      "t": 93272.63400000083,
      "d": 545.4539999999979,
      "v": 59
    },
    {
      "midi": 77,
      "hit": false,
      "t": 93272.63400000083,
      "d": 545.4539999999979,
      "v": 81
    },
    {
      "midi": 69,
      "hit": false,
      "t": 93818.08800000083,
      "d": 409.0905000000057,
      "v": 79
    },
    {
      "midi": 81,
      "hit": false,
      "t": 93818.08800000083,
      "d": 409.0905000000057,
      "v": 89
    },
    {
      "midi": 49,
      "hit": false,
      "t": 93818.08800000083,
      "d": 545.4540000000125,
      "v": 63
    },
    {
      "midi": 57,
      "hit": false,
      "t": 93818.08800000083,
      "d": 545.4540000000125,
      "v": 70
    },
    {
      "midi": 61,
      "hit": false,
      "t": 93818.08800000083,
      "d": 545.4540000000125,
      "v": 70
    },
    {
      "midi": 77,
      "hit": false,
      "t": 93818.08800000083,
      "d": 545.4540000000125,
      "v": 89
    },
    {
      "midi": 70,
      "hit": false,
      "t": 94227.17850000084,
      "d": 136.36350000000675,
      "v": 64
    },
    {
      "midi": 82,
      "hit": false,
      "t": 94227.17850000084,
      "d": 136.36350000000675,
      "v": 72
    },
    {
      "midi": 50,
      "hit": false,
      "t": 94363.54200000085,
      "d": 272.72699999999895,
      "v": 56
    },
    {
      "midi": 58,
      "hit": false,
      "t": 94363.54200000085,
      "d": 272.72699999999895,
      "v": 63
    },
    {
      "midi": 62,
      "hit": false,
      "t": 94363.54200000085,
      "d": 272.72699999999895,
      "v": 63
    },
    {
      "midi": 67,
      "hit": false,
      "t": 94363.54200000085,
      "d": 272.72699999999895,
      "v": 70
    },
    {
      "midi": 77,
      "hit": false,
      "t": 94363.54200000085,
      "d": 272.72699999999895,
      "v": 79
    },
    {
      "midi": 79,
      "hit": false,
      "t": 94363.54200000085,
      "d": 272.72699999999895,
      "v": 79
    },
    {
      "midi": 48,
      "hit": false,
      "t": 94908.99600000084,
      "d": 545.4539999999979,
      "v": 55
    },
    {
      "midi": 55,
      "hit": false,
      "t": 94908.99600000084,
      "d": 545.4539999999979,
      "v": 62
    },
    {
      "midi": 58,
      "hit": false,
      "t": 94908.99600000084,
      "d": 545.4539999999979,
      "v": 67
    },
    {
      "midi": 64,
      "hit": false,
      "t": 94908.99600000084,
      "d": 545.4539999999979,
      "v": 75
    },
    {
      "midi": 69,
      "hit": false,
      "t": 94908.99600000084,
      "d": 545.4539999999979,
      "v": 75
    },
    {
      "midi": 41,
      "hit": false,
      "t": 95454.45000000084,
      "d": 272.72699999999895,
      "v": 44
    },
    {
      "midi": 48,
      "hit": false,
      "t": 95454.45000000084,
      "d": 272.72699999999895,
      "v": 50
    },
    {
      "midi": 57,
      "hit": false,
      "t": 95454.45000000084,
      "d": 272.72699999999895,
      "v": 53
    },
    {
      "midi": 65,
      "hit": false,
      "t": 95454.45000000084,
      "d": 272.72699999999895,
      "v": 60
    },
    {
      "midi": 29,
      "hit": false,
      "t": 95999.90400000084,
      "d": 272.7270000000135,
      "v": 35
    },
    {
      "midi": 41,
      "hit": false,
      "t": 95999.90400000084,
      "d": 272.7270000000135,
      "v": 39
    },
    {
      "midi": 57,
      "hit": false,
      "t": 96272.63100000085,
      "d": 272.72699999999895,
      "v": 39
    },
    {
      "midi": 60,
      "hit": false,
      "t": 96272.63100000085,
      "d": 272.72699999999895,
      "v": 44
    },
    {
      "midi": 65,
      "hit": false,
      "t": 96545.35800000085,
      "d": 272.7270000000135,
      "v": 49
    },
    {
      "midi": 41,
      "hit": false,
      "t": 96545.35800000085,
      "d": 1090.9080000000104,
      "v": 37
    },
    {
      "midi": 48,
      "hit": false,
      "t": 96545.35800000085,
      "d": 1090.9080000000104,
      "v": 37
    },
    {
      "midi": 55,
      "hit": false,
      "t": 96545.35800000085,
      "d": 1090.9080000000104,
      "v": 41
    },
    {
      "midi": 58,
      "hit": false,
      "t": 96545.35800000085,
      "d": 1090.9080000000104,
      "v": 44
    },
    {
      "midi": 64,
      "hit": false,
      "t": 96818.08500000086,
      "d": 272.72699999999895,
      "v": 40
    },
    {
      "midi": 62,
      "hit": false,
      "t": 97090.81200000086,
      "d": 272.72699999999895,
      "v": 41
    },
    {
      "midi": 64,
      "hit": false,
      "t": 97363.53900000086,
      "d": 272.72699999999895,
      "v": 38
    },
    {
      "midi": 41,
      "hit": false,
      "t": 97636.26600000086,
      "d": 545.4539999999979,
      "v": 26
    },
    {
      "midi": 48,
      "hit": false,
      "t": 97636.26600000086,
      "d": 545.4539999999979,
      "v": 26
    },
    {
      "midi": 53,
      "hit": false,
      "t": 97636.26600000086,
      "d": 545.4539999999979,
      "v": 29
    },
    {
      "midi": 57,
      "hit": false,
      "t": 97636.26600000086,
      "d": 545.4539999999979,
      "v": 33
    },
    {
      "midi": 65,
      "hit": false,
      "t": 97636.26600000086,
      "d": 545.4539999999979,
      "v": 37
    },
    {
      "midi": 65,
      "hit": false,
      "t": 98181.72000000086,
      "d": 272.72699999999895,
      "v": 38
    },
    {
      "midi": 69,
      "hit": false,
      "t": 98181.72000000086,
      "d": 272.72699999999895,
      "v": 38
    },
    {
      "midi": 72,
      "hit": false,
      "t": 98181.72000000086,
      "d": 272.72699999999895,
      "v": 42
    },
    {
      "midi": 48,
      "hit": false,
      "t": 98454.44700000086,
      "d": 272.72699999999895,
      "v": 37
    },
    {
      "midi": 53,
      "hit": false,
      "t": 98727.17400000086,
      "d": 272.72699999999895,
      "v": 40
    },
    {
      "midi": 58,
      "hit": false,
      "t": 98727.17400000086,
      "d": 1090.9079999999958,
      "v": 40
    },
    {
      "midi": 61,
      "hit": false,
      "t": 98727.17400000086,
      "d": 1090.9079999999958,
      "v": 45
    },
    {
      "midi": 52,
      "hit": false,
      "t": 98999.90100000086,
      "d": 272.72699999999895,
      "v": 35
    },
    {
      "midi": 50,
      "hit": false,
      "t": 99272.62800000086,
      "d": 272.72699999999895,
      "v": 38
    },
    {
      "midi": 52,
      "hit": false,
      "t": 99545.35500000085,
      "d": 272.72699999999895,
      "v": 35
    },
    {
      "midi": 53,
      "hit": false,
      "t": 99818.08200000085,
      "d": 545.4539999999979,
      "v": 36
    },
    {
      "midi": 57,
      "hit": false,
      "t": 99818.08200000085,
      "d": 545.4539999999979,
      "v": 28
    },
    {
      "midi": 60,
      "hit": false,
      "t": 99818.08200000085,
      "d": 545.4539999999979,
      "v": 31
    },
    {
      "midi": 57,
      "hit": false,
      "t": 100363.53600000085,
      "d": 272.72699999999895,
      "v": 40
    },
    {
      "midi": 50,
      "hit": false,
      "t": 100636.26300000085,
      "d": 272.72699999999895,
      "v": 46
    },
    {
      "midi": 62,
      "hit": false,
      "t": 100636.26300000085,
      "d": 272.72699999999895,
      "v": 49
    },
    {
      "midi": 41,
      "hit": false,
      "t": 100908.99000000085,
      "d": 272.7270000000135,
      "v": 40
    },
    {
      "midi": 69,
      "hit": false,
      "t": 100908.99000000085,
      "d": 272.7270000000135,
      "v": 52
    },
    {
      "midi": 73,
      "hit": false,
      "t": 100908.99000000085,
      "d": 272.7270000000135,
      "v": 52
    },
    {
      "midi": 74,
      "hit": false,
      "t": 101181.71700000086,
      "d": 272.72699999999895,
      "v": 49
    },
    {
      "midi": 58,
      "hit": false,
      "t": 101454.44400000086,
      "d": 272.72699999999895,
      "v": 47
    },
    {
      "midi": 50,
      "hit": false,
      "t": 101727.17100000086,
      "d": 272.72699999999895,
      "v": 51
    },
    {
      "midi": 62,
      "hit": false,
      "t": 101727.17100000086,
      "d": 272.72699999999895,
      "v": 58
    },
    {
      "midi": 43,
      "hit": false,
      "t": 101999.89800000086,
      "d": 272.72699999999895,
      "v": 48
    },
    {
      "midi": 70,
      "hit": false,
      "t": 101999.89800000086,
      "d": 272.72699999999895,
      "v": 61
    },
    {
      "midi": 73,
      "hit": false,
      "t": 101999.89800000086,
      "d": 272.72699999999895,
      "v": 61
    },
    {
      "midi": 74,
      "hit": false,
      "t": 102272.62500000086,
      "d": 272.72699999999895,
      "v": 58
    },
    {
      "midi": 59,
      "hit": false,
      "t": 102545.35200000086,
      "d": 272.72699999999895,
      "v": 56
    },
    {
      "midi": 52,
      "hit": false,
      "t": 102818.07900000086,
      "d": 272.72699999999895,
      "v": 59
    },
    {
      "midi": 64,
      "hit": false,
      "t": 102818.07900000086,
      "d": 272.72699999999895,
      "v": 66
    },
    {
      "midi": 44,
      "hit": false,
      "t": 103090.80600000086,
      "d": 272.72699999999895,
      "v": 55
    },
    {
      "midi": 71,
      "hit": false,
      "t": 103090.80600000086,
      "d": 272.72699999999895,
      "v": 74
    },
    {
      "midi": 75,
      "hit": false,
      "t": 103090.80600000086,
      "d": 272.72699999999895,
      "v": 74
    },
    {
      "midi": 76,
      "hit": false,
      "t": 103363.53300000085,
      "d": 272.72699999999895,
      "v": 68
    },
    {
      "midi": 61,
      "hit": false,
      "t": 103636.26000000085,
      "d": 272.7270000000135,
      "v": 62
    },
    {
      "midi": 52,
      "hit": false,
      "t": 103908.98700000087,
      "d": 272.72699999999895,
      "v": 68
    },
    {
      "midi": 64,
      "hit": false,
      "t": 103908.98700000087,
      "d": 272.72699999999895,
      "v": 80
    },
    {
      "midi": 45,
      "hit": false,
      "t": 104181.71400000087,
      "d": 272.72699999999895,
      "v": 63
    },
    {
      "midi": 69,
      "hit": false,
      "t": 104181.71400000087,
      "d": 272.72699999999895,
      "v": 84
    },
    {
      "midi": 73,
      "hit": false,
      "t": 104181.71400000087,
      "d": 272.72699999999895,
      "v": 84
    },
    {
      "midi": 75,
      "hit": false,
      "t": 104181.71400000087,
      "d": 272.72699999999895,
      "v": 84
    },
    {
      "midi": 76,
      "hit": false,
      "t": 104454.44100000086,
      "d": 272.72699999999895,
      "v": 80
    },
    {
      "midi": 54,
      "hit": false,
      "t": 104727.16800000086,
      "d": 545.4539999999979,
      "v": 73
    },
    {
      "midi": 78,
      "hit": false,
      "t": 104727.16800000086,
      "d": 545.4539999999979,
      "v": 91
    },
    {
      "midi": 46,
      "hit": false,
      "t": 104727.16800000086,
      "d": 1090.9079999999958,
      "v": 64
    },
    {
      "midi": 58,
      "hit": false,
      "t": 104727.16800000086,
      "d": 1090.9079999999958,
      "v": 73
    },
    {
      "midi": 74,
      "hit": false,
      "t": 104727.16800000086,
      "d": 1090.9079999999958,
      "v": 81
    },
    {
      "midi": 86,
      "hit": false,
      "t": 104727.16800000086,
      "d": 1090.9079999999958,
      "v": 91
    },
    {
      "midi": 55,
      "hit": false,
      "t": 105272.62200000086,
      "d": 545.4539999999979,
      "v": 62
    },
    {
      "midi": 79,
      "hit": false,
      "t": 105272.62200000086,
      "d": 545.4539999999979,
      "v": 83
    },
    {
      "midi": 56,
      "hit": false,
      "t": 105818.07600000086,
      "d": 545.4539999999979,
      "v": 69
    },
    {
      "midi": 76,
      "hit": false,
      "t": 105818.07600000086,
      "d": 545.4539999999979,
      "v": 89
    },
    {
      "midi": 48,
      "hit": false,
      "t": 105818.07600000086,
      "d": 1090.9079999999958,
      "v": 62
    },
    {
      "midi": 60,
      "hit": false,
      "t": 105818.07600000086,
      "d": 1090.9079999999958,
      "v": 69
    },
    {
      "midi": 72,
      "hit": false,
      "t": 105818.07600000086,
      "d": 1090.9079999999958,
      "v": 79
    },
    {
      "midi": 84,
      "hit": false,
      "t": 105818.07600000086,
      "d": 1090.9079999999958,
      "v": 89
    },
    {
      "midi": 57,
      "hit": false,
      "t": 106363.53000000086,
      "d": 545.4539999999979,
      "v": 60
    },
    {
      "midi": 77,
      "hit": false,
      "t": 106363.53000000086,
      "d": 545.4539999999979,
      "v": 79
    },
    {
      "midi": 69,
      "hit": false,
      "t": 106908.98400000086,
      "d": 409.0905000000057,
      "v": 79
    },
    {
      "midi": 81,
      "hit": false,
      "t": 106908.98400000086,
      "d": 409.0905000000057,
      "v": 89
    },
    {
      "midi": 49,
      "hit": false,
      "t": 106908.98400000086,
      "d": 545.4540000000125,
      "v": 63
    },
    {
      "midi": 57,
      "hit": false,
      "t": 106908.98400000086,
      "d": 545.4540000000125,
      "v": 70
    },
    {
      "midi": 61,
      "hit": false,
      "t": 106908.98400000086,
      "d": 545.4540000000125,
      "v": 70
    },
    {
      "midi": 77,
      "hit": false,
      "t": 106908.98400000086,
      "d": 545.4540000000125,
      "v": 89
    },
    {
      "midi": 70,
      "hit": false,
      "t": 107318.07450000086,
      "d": 136.36350000000675,
      "v": 64
    },
    {
      "midi": 82,
      "hit": false,
      "t": 107318.07450000086,
      "d": 136.36350000000675,
      "v": 72
    },
    {
      "midi": 50,
      "hit": false,
      "t": 107454.43800000087,
      "d": 272.7270000000135,
      "v": 56
    },
    {
      "midi": 58,
      "hit": false,
      "t": 107454.43800000087,
      "d": 272.7270000000135,
      "v": 63
    },
    {
      "midi": 62,
      "hit": false,
      "t": 107454.43800000087,
      "d": 272.7270000000135,
      "v": 63
    },
    {
      "midi": 67,
      "hit": false,
      "t": 107454.43800000087,
      "d": 272.7270000000135,
      "v": 70
    },
    {
      "midi": 77,
      "hit": false,
      "t": 107454.43800000087,
      "d": 272.7270000000135,
      "v": 79
    },
    {
      "midi": 79,
      "hit": false,
      "t": 107454.43800000087,
      "d": 272.7270000000135,
      "v": 79
    },
    {
      "midi": 48,
      "hit": false,
      "t": 107999.8920000009,
      "d": 545.4539999999979,
      "v": 55
    },
    {
      "midi": 55,
      "hit": false,
      "t": 107999.8920000009,
      "d": 545.4539999999979,
      "v": 62
    },
    {
      "midi": 58,
      "hit": false,
      "t": 107999.8920000009,
      "d": 545.4539999999979,
      "v": 67
    },
    {
      "midi": 64,
      "hit": false,
      "t": 107999.8920000009,
      "d": 545.4539999999979,
      "v": 75
    },
    {
      "midi": 69,
      "hit": false,
      "t": 107999.8920000009,
      "d": 545.4539999999979,
      "v": 75
    },
    {
      "midi": 41,
      "hit": false,
      "t": 108545.34600000089,
      "d": 272.72699999999895,
      "v": 44
    },
    {
      "midi": 48,
      "hit": false,
      "t": 108545.34600000089,
      "d": 272.72699999999895,
      "v": 50
    },
    {
      "midi": 57,
      "hit": false,
      "t": 108545.34600000089,
      "d": 272.72699999999895,
      "v": 53
    },
    {
      "midi": 65,
      "hit": false,
      "t": 108545.34600000089,
      "d": 272.72699999999895,
      "v": 60
    },
    {
      "midi": 29,
      "hit": false,
      "t": 109090.80000000089,
      "d": 272.7270000000135,
      "v": 35
    },
    {
      "midi": 41,
      "hit": false,
      "t": 109090.80000000089,
      "d": 272.7270000000135,
      "v": 39
    },
    {
      "midi": 57,
      "hit": false,
      "t": 109363.5270000009,
      "d": 272.72699999999895,
      "v": 39
    },
    {
      "midi": 60,
      "hit": false,
      "t": 109363.5270000009,
      "d": 272.72699999999895,
      "v": 44
    },
    {
      "midi": 65,
      "hit": false,
      "t": 109636.2540000009,
      "d": 272.7270000000135,
      "v": 49
    },
    {
      "midi": 41,
      "hit": false,
      "t": 109636.2540000009,
      "d": 1090.9080000000104,
      "v": 37
    },
    {
      "midi": 48,
      "hit": false,
      "t": 109636.2540000009,
      "d": 1090.9080000000104,
      "v": 37
    },
    {
      "midi": 55,
      "hit": false,
      "t": 109636.2540000009,
      "d": 1090.9080000000104,
      "v": 41
    },
    {
      "midi": 58,
      "hit": false,
      "t": 109636.2540000009,
      "d": 1090.9080000000104,
      "v": 44
    },
    {
      "midi": 64,
      "hit": false,
      "t": 109908.98100000092,
      "d": 272.72699999999895,
      "v": 40
    },
    {
      "midi": 62,
      "hit": false,
      "t": 110181.70800000092,
      "d": 272.72699999999895,
      "v": 41
    },
    {
      "midi": 64,
      "hit": false,
      "t": 110454.43500000091,
      "d": 272.72699999999895,
      "v": 38
    },
    {
      "midi": 41,
      "hit": false,
      "t": 110727.16200000091,
      "d": 545.4539999999979,
      "v": 26
    },
    {
      "midi": 48,
      "hit": false,
      "t": 110727.16200000091,
      "d": 545.4539999999979,
      "v": 26
    },
    {
      "midi": 53,
      "hit": false,
      "t": 110727.16200000091,
      "d": 545.4539999999979,
      "v": 29
    },
    {
      "midi": 57,
      "hit": false,
      "t": 110727.16200000091,
      "d": 545.4539999999979,
      "v": 33
    },
    {
      "midi": 65,
      "hit": false,
      "t": 110727.16200000091,
      "d": 545.4539999999979,
      "v": 37
    },
    {
      "midi": 65,
      "hit": false,
      "t": 111272.61600000091,
      "d": 272.72699999999895,
      "v": 38
    },
    {
      "midi": 69,
      "hit": false,
      "t": 111272.61600000091,
      "d": 272.72699999999895,
      "v": 38
    },
    {
      "midi": 72,
      "hit": false,
      "t": 111272.61600000091,
      "d": 272.72699999999895,
      "v": 42
    },
    {
      "midi": 48,
      "hit": false,
      "t": 111545.34300000091,
      "d": 272.72699999999895,
      "v": 37
    },
    {
      "midi": 53,
      "hit": false,
      "t": 111818.07000000091,
      "d": 272.72699999999895,
      "v": 40
    },
    {
      "midi": 58,
      "hit": false,
      "t": 111818.07000000091,
      "d": 1090.9079999999958,
      "v": 40
    },
    {
      "midi": 61,
      "hit": false,
      "t": 111818.07000000091,
      "d": 1090.9079999999958,
      "v": 45
    },
    {
      "midi": 52,
      "hit": false,
      "t": 112090.79700000091,
      "d": 272.72699999999895,
      "v": 35
    },
    {
      "midi": 50,
      "hit": false,
      "t": 112363.5240000009,
      "d": 272.72699999999895,
      "v": 38
    },
    {
      "midi": 52,
      "hit": false,
      "t": 112636.2510000009,
      "d": 272.72699999999895,
      "v": 35
    },
    {
      "midi": 53,
      "hit": false,
      "t": 112908.9780000009,
      "d": 545.4539999999979,
      "v": 36
    },
    {
      "midi": 57,
      "hit": false,
      "t": 112908.9780000009,
      "d": 545.4539999999979,
      "v": 28
    },
    {
      "midi": 60,
      "hit": false,
      "t": 112908.9780000009,
      "d": 545.4539999999979,
      "v": 31
    },
    {
      "midi": 57,
      "hit": false,
      "t": 113454.4320000009,
      "d": 272.72699999999895,
      "v": 40
    },
    {
      "midi": 50,
      "hit": false,
      "t": 113727.1590000009,
      "d": 272.72699999999895,
      "v": 46
    },
    {
      "midi": 62,
      "hit": false,
      "t": 113727.1590000009,
      "d": 272.72699999999895,
      "v": 48
    },
    {
      "midi": 41,
      "hit": false,
      "t": 113999.8860000009,
      "d": 272.72699999999895,
      "v": 40
    },
    {
      "midi": 69,
      "hit": false,
      "t": 113999.8860000009,
      "d": 272.72699999999895,
      "v": 50
    },
    {
      "midi": 73,
      "hit": false,
      "t": 113999.8860000009,
      "d": 272.72699999999895,
      "v": 50
    },
    {
      "midi": 74,
      "hit": false,
      "t": 114272.6130000009,
      "d": 272.72699999999895,
      "v": 48
    },
    {
      "midi": 58,
      "hit": false,
      "t": 114545.3400000009,
      "d": 272.72699999999895,
      "v": 47
    },
    {
      "midi": 50,
      "hit": false,
      "t": 114818.0670000009,
      "d": 272.72699999999895,
      "v": 51
    },
    {
      "midi": 62,
      "hit": false,
      "t": 114818.0670000009,
      "d": 272.72699999999895,
      "v": 56
    },
    {
      "midi": 43,
      "hit": false,
      "t": 115090.7940000009,
      "d": 272.72699999999895,
      "v": 48
    },
    {
      "midi": 70,
      "hit": false,
      "t": 115090.7940000009,
      "d": 272.72699999999895,
      "v": 59
    },
    {
      "midi": 73,
      "hit": false,
      "t": 115090.7940000009,
      "d": 272.72699999999895,
      "v": 59
    },
    {
      "midi": 74,
      "hit": false,
      "t": 115363.5210000009,
      "d": 272.72699999999895,
      "v": 57
    },
    {
      "midi": 59,
      "hit": false,
      "t": 115636.2480000009,
      "d": 272.72699999999895,
      "v": 56
    },
    {
      "midi": 52,
      "hit": false,
      "t": 115908.9750000009,
      "d": 272.72699999999895,
      "v": 59
    },
    {
      "midi": 64,
      "hit": false,
      "t": 115908.9750000009,
      "d": 272.72699999999895,
      "v": 64
    },
    {
      "midi": 44,
      "hit": false,
      "t": 116181.70200000089,
      "d": 272.72699999999895,
      "v": 55
    },
    {
      "midi": 71,
      "hit": false,
      "t": 116181.70200000089,
      "d": 272.72699999999895,
      "v": 69
    },
    {
      "midi": 75,
      "hit": false,
      "t": 116181.70200000089,
      "d": 272.72699999999895,
      "v": 69
    },
    {
      "midi": 76,
      "hit": false,
      "t": 116454.42900000089,
      "d": 272.72699999999895,
      "v": 66
    },
    {
      "midi": 61,
      "hit": false,
      "t": 116727.15600000089,
      "d": 272.7270000000135,
      "v": 62
    },
    {
      "midi": 52,
      "hit": false,
      "t": 116999.8830000009,
      "d": 272.72699999999895,
      "v": 68
    },
    {
      "midi": 64,
      "hit": false,
      "t": 116999.8830000009,
      "d": 272.72699999999895,
      "v": 71
    },
    {
      "midi": 45,
      "hit": false,
      "t": 117272.6100000009,
      "d": 272.72699999999895,
      "v": 63
    },
    {
      "midi": 69,
      "hit": false,
      "t": 117272.6100000009,
      "d": 272.72699999999895,
      "v": 78
    },
    {
      "midi": 73,
      "hit": false,
      "t": 117272.6100000009,
      "d": 272.72699999999895,
      "v": 78
    },
    {
      "midi": 75,
      "hit": false,
      "t": 117272.6100000009,
      "d": 272.72699999999895,
      "v": 78
    },
    {
      "midi": 76,
      "hit": false,
      "t": 117545.3370000009,
      "d": 272.72699999999895,
      "v": 72
    },
    {
      "midi": 45,
      "hit": false,
      "t": 117818.0640000009,
      "d": 545.4539999999979,
      "v": 64
    },
    {
      "midi": 57,
      "hit": false,
      "t": 117818.0640000009,
      "d": 545.4539999999979,
      "v": 73
    },
    {
      "midi": 85,
      "hit": false,
      "t": 117818.0640000009,
      "d": 545.4539999999979,
      "v": 89
    },
    {
      "midi": 53,
      "hit": false,
      "t": 117818.0640000009,
      "d": 1090.9079999999958,
      "v": 64
    },
    {
      "midi": 77,
      "hit": false,
      "t": 117818.0640000009,
      "d": 1090.9079999999958,
      "v": 75
    },
    {
      "midi": 89,
      "hit": false,
      "t": 117818.0640000009,
      "d": 1090.9079999999958,
      "v": 79
    },
    {
      "midi": 46,
      "hit": false,
      "t": 118363.5180000009,
      "d": 545.4539999999979,
      "v": 58
    },
    {
      "midi": 58,
      "hit": false,
      "t": 118363.5180000009,
      "d": 545.4539999999979,
      "v": 66
    },
    {
      "midi": 86,
      "hit": false,
      "t": 118363.5180000009,
      "d": 545.4539999999979,
      "v": 89
    },
    {
      "midi": 47,
      "hit": false,
      "t": 118908.9720000009,
      "d": 545.4540000000125,
      "v": 62
    },
    {
      "midi": 59,
      "hit": false,
      "t": 118908.9720000009,
      "d": 545.4540000000125,
      "v": 69
    },
    {
      "midi": 75,
      "hit": false,
      "t": 118908.9720000009,
      "d": 545.4540000000125,
      "v": 89
    },
    {
      "midi": 55,
      "hit": false,
      "t": 118908.9720000009,
      "d": 1090.908000000025,
      "v": 64
    },
    {
      "midi": 67,
      "hit": false,
      "t": 118908.9720000009,
      "d": 1090.908000000025,
      "v": 79
    },
    {
      "midi": 79,
      "hit": false,
      "t": 118908.9720000009,
      "d": 1090.908000000025,
      "v": 89
    },
    {
      "midi": 48,
      "hit": false,
      "t": 119454.42600000091,
      "d": 545.4540000000125,
      "v": 57
    },
    {
      "midi": 60,
      "hit": false,
      "t": 119454.42600000091,
      "d": 545.4540000000125,
      "v": 64
    },
    {
      "midi": 76,
      "hit": false,
      "t": 119454.42600000091,
      "d": 545.4540000000125,
      "v": 85
    },
    {
      "midi": 72,
      "hit": false,
      "t": 119999.88000000092,
      "d": 409.0905000000057,
      "v": 79
    },
    {
      "midi": 84,
      "hit": false,
      "t": 119999.88000000092,
      "d": 409.0905000000057,
      "v": 89
    },
    {
      "midi": 52,
      "hit": false,
      "t": 119999.88000000092,
      "d": 545.4540000000125,
      "v": 63
    },
    {
      "midi": 64,
      "hit": false,
      "t": 119999.88000000092,
      "d": 545.4540000000125,
      "v": 70
    },
    {
      "midi": 80,
      "hit": false,
      "t": 119999.88000000092,
      "d": 545.4540000000125,
      "v": 81
    },
    {
      "midi": 60,
      "hit": false,
      "t": 119999.88000000092,
      "d": 1090.908000000025,
      "v": 63
    },
    {
      "midi": 71,
      "hit": false,
      "t": 120408.97050000093,
      "d": 136.36350000000675,
      "v": 64
    },
    {
      "midi": 83,
      "hit": false,
      "t": 120408.97050000093,
      "d": 136.36350000000675,
      "v": 72
    },
    {
      "midi": 53,
      "hit": false,
      "t": 120545.33400000093,
      "d": 272.7270000000135,
      "v": 56
    },
    {
      "midi": 65,
      "hit": false,
      "t": 120545.33400000093,
      "d": 272.7270000000135,
      "v": 63
    },
    {
      "midi": 69,
      "hit": false,
      "t": 120545.33400000093,
      "d": 272.7270000000135,
      "v": 70
    },
    {
      "midi": 81,
      "hit": false,
      "t": 120545.33400000093,
      "d": 272.7270000000135,
      "v": 79
    },
    {
      "midi": 65,
      "hit": false,
      "t": 121090.78800000095,
      "d": 409.0905000000057,
      "v": 79
    },
    {
      "midi": 77,
      "hit": false,
      "t": 121090.78800000095,
      "d": 409.0905000000057,
      "v": 89
    },
    {
      "midi": 57,
      "hit": false,
      "t": 121090.78800000095,
      "d": 545.4540000000125,
      "v": 70
    },
    {
      "midi": 73,
      "hit": false,
      "t": 121090.78800000095,
      "d": 545.4540000000125,
      "v": 81
    },
    {
      "midi": 64,
      "hit": false,
      "t": 121499.87850000095,
      "d": 136.36350000000675,
      "v": 64
    },
    {
      "midi": 76,
      "hit": false,
      "t": 121499.87850000095,
      "d": 136.36350000000675,
      "v": 72
    },
    {
      "midi": 58,
      "hit": false,
      "t": 121636.24200000096,
      "d": 272.7270000000135,
      "v": 63
    },
    {
      "midi": 62,
      "hit": false,
      "t": 121636.24200000096,
      "d": 272.7270000000135,
      "v": 70
    },
    {
      "midi": 74,
      "hit": false,
      "t": 121636.24200000096,
      "d": 272.7270000000135,
      "v": 79
    },
    {
      "midi": 58,
      "hit": false,
      "t": 122181.69600000097,
      "d": 545.4540000000125,
      "v": 39
    },
    {
      "midi": 62,
      "hit": false,
      "t": 122454.42300000098,
      "d": 272.72699999999895,
      "v": 44
    },
    {
      "midi": 67,
      "hit": false,
      "t": 122727.15000000098,
      "d": 272.72699999999895,
      "v": 49
    },
    {
      "midi": 57,
      "hit": false,
      "t": 122727.15000000098,
      "d": 1090.9079999999958,
      "v": 41
    },
    {
      "midi": 60,
      "hit": false,
      "t": 122727.15000000098,
      "d": 1090.9079999999958,
      "v": 44
    },
    {
      "midi": 66,
      "hit": false,
      "t": 122999.87700000098,
      "d": 272.72699999999895,
      "v": 40
    },
    {
      "midi": 64,
      "hit": false,
      "t": 123272.60400000098,
      "d": 272.72699999999895,
      "v": 41
    },
    {
      "midi": 50,
      "hit": false,
      "t": 123272.60400000098,
      "d": 818.1809999999969,
      "v": 41
    },
    {
      "midi": 66,
      "hit": false,
      "t": 123545.33100000098,
      "d": 272.72699999999895,
      "v": 38
    },
    {
      "midi": 43,
      "hit": false,
      "t": 123818.05800000098,
      "d": 272.72699999999895,
      "v": 26
    },
    {
      "midi": 55,
      "hit": false,
      "t": 123818.05800000098,
      "d": 272.72699999999895,
      "v": 29
    },
    {
      "midi": 58,
      "hit": false,
      "t": 123818.05800000098,
      "d": 272.72699999999895,
      "v": 33
    },
    {
      "midi": 62,
      "hit": false,
      "t": 123818.05800000098,
      "d": 272.72699999999895,
      "v": 33
    },
    {
      "midi": 67,
      "hit": false,
      "t": 123818.05800000098,
      "d": 272.72699999999895,
      "v": 37
    },
    {
      "midi": 70,
      "hit": false,
      "t": 124363.51200000098,
      "d": 545.4540000000125,
      "v": 39
    },
    {
      "midi": 74,
      "hit": false,
      "t": 124636.23900000099,
      "d": 272.72699999999895,
      "v": 44
    },
    {
      "midi": 79,
      "hit": false,
      "t": 124908.96600000099,
      "d": 272.72699999999895,
      "v": 49
    },
    {
      "midi": 69,
      "hit": false,
      "t": 124908.96600000099,
      "d": 1090.9079999999958,
      "v": 41
    },
    {
      "midi": 72,
      "hit": false,
      "t": 124908.96600000099,
      "d": 1090.9079999999958,
      "v": 44
    },
    {
      "midi": 78,
      "hit": false,
      "t": 125181.69300000099,
      "d": 272.72699999999895,
      "v": 40
    },
    {
      "midi": 76,
      "hit": false,
      "t": 125454.42000000099,
      "d": 272.72699999999895,
      "v": 41
    },
    {
      "midi": 62,
      "hit": false,
      "t": 125454.42000000099,
      "d": 818.1809999999969,
      "v": 41
    },
    {
      "midi": 78,
      "hit": false,
      "t": 125727.14700000099,
      "d": 272.72699999999895,
      "v": 38
    },
    {
      "midi": 55,
      "hit": false,
      "t": 125999.87400000099,
      "d": 272.72699999999895,
      "v": 26
    },
    {
      "midi": 67,
      "hit": false,
      "t": 125999.87400000099,
      "d": 272.72699999999895,
      "v": 29
    },
    {
      "midi": 70,
      "hit": false,
      "t": 125999.87400000099,
      "d": 272.72699999999895,
      "v": 33
    },
    {
      "midi": 74,
      "hit": false,
      "t": 125999.87400000099,
      "d": 272.72699999999895,
      "v": 33
    },
    {
      "midi": 79,
      "hit": false,
      "t": 125999.87400000099,
      "d": 272.72699999999895,
      "v": 37
    },
    {
      "midi": 47,
      "hit": false,
      "t": 126545.32800000098,
      "d": 545.4540000000125,
      "v": 64
    },
    {
      "midi": 59,
      "hit": false,
      "t": 126545.32800000098,
      "d": 545.4540000000125,
      "v": 73
    },
    {
      "midi": 87,
      "hit": false,
      "t": 126545.32800000098,
      "d": 545.4540000000125,
      "v": 91
    },
    {
      "midi": 55,
      "hit": false,
      "t": 126545.32800000098,
      "d": 1090.9080000000104,
      "v": 64
    },
    {
      "midi": 79,
      "hit": false,
      "t": 126545.32800000098,
      "d": 1090.9080000000104,
      "v": 81
    },
    {
      "midi": 91,
      "hit": false,
      "t": 126545.32800000098,
      "d": 1090.9080000000104,
      "v": 85
    },
    {
      "midi": 48,
      "hit": false,
      "t": 127090.782000001,
      "d": 545.4539999999979,
      "v": 58
    },
    {
      "midi": 60,
      "hit": false,
      "t": 127090.782000001,
      "d": 545.4539999999979,
      "v": 66
    },
    {
      "midi": 88,
      "hit": false,
      "t": 127090.782000001,
      "d": 545.4539999999979,
      "v": 86
    },
    {
      "midi": 49,
      "hit": false,
      "t": 127636.236000001,
      "d": 545.4539999999979,
      "v": 62
    },
    {
      "midi": 61,
      "hit": false,
      "t": 127636.236000001,
      "d": 545.4539999999979,
      "v": 69
    },
    {
      "midi": 77,
      "hit": false,
      "t": 127636.236000001,
      "d": 545.4539999999979,
      "v": 89
    },
    {
      "midi": 57,
      "hit": false,
      "t": 127636.236000001,
      "d": 1090.9079999999958,
      "v": 64
    },
    {
      "midi": 69,
      "hit": false,
      "t": 127636.236000001,
      "d": 1090.9079999999958,
      "v": 79
    },
    {
      "midi": 81,
      "hit": false,
      "t": 127636.236000001,
      "d": 1090.9079999999958,
      "v": 89
    },
    {
      "midi": 50,
      "hit": false,
      "t": 128181.69000000099,
      "d": 545.4539999999979,
      "v": 57
    },
    {
      "midi": 62,
      "hit": false,
      "t": 128181.69000000099,
      "d": 545.4539999999979,
      "v": 64
    },
    {
      "midi": 78,
      "hit": false,
      "t": 128181.69000000099,
      "d": 545.4539999999979,
      "v": 85
    },
    {
      "midi": 74,
      "hit": false,
      "t": 128727.14400000099,
      "d": 409.0905000000057,
      "v": 79
    },
    {
      "midi": 86,
      "hit": false,
      "t": 128727.14400000099,
      "d": 409.0905000000057,
      "v": 89
    },
    {
      "midi": 54,
      "hit": false,
      "t": 128727.14400000099,
      "d": 545.4540000000125,
      "v": 63
    },
    {
      "midi": 66,
      "hit": false,
      "t": 128727.14400000099,
      "d": 545.4540000000125,
      "v": 70
    },
    {
      "midi": 82,
      "hit": false,
      "t": 128727.14400000099,
      "d": 545.4540000000125,
      "v": 81
    },
    {
      "midi": 62,
      "hit": false,
      "t": 128727.14400000099,
      "d": 1090.9080000000104,
      "v": 63
    },
    {
      "midi": 73,
      "hit": false,
      "t": 129136.234500001,
      "d": 136.36350000000675,
      "v": 64
    },
    {
      "midi": 85,
      "hit": false,
      "t": 129136.234500001,
      "d": 136.36350000000675,
      "v": 72
    },
    {
      "midi": 55,
      "hit": false,
      "t": 129272.598000001,
      "d": 272.72699999999895,
      "v": 56
    },
    {
      "midi": 67,
      "hit": false,
      "t": 129272.598000001,
      "d": 272.72699999999895,
      "v": 63
    },
    {
      "midi": 71,
      "hit": false,
      "t": 129272.598000001,
      "d": 272.72699999999895,
      "v": 70
    },
    {
      "midi": 83,
      "hit": false,
      "t": 129272.598000001,
      "d": 272.72699999999895,
      "v": 79
    },
    {
      "midi": 67,
      "hit": false,
      "t": 129818.052000001,
      "d": 409.0905000000057,
      "v": 79
    },
    {
      "midi": 79,
      "hit": false,
      "t": 129818.052000001,
      "d": 409.0905000000057,
      "v": 89
    },
    {
      "midi": 59,
      "hit": false,
      "t": 129818.052000001,
      "d": 545.4540000000125,
      "v": 70
    },
    {
      "midi": 75,
      "hit": false,
      "t": 129818.052000001,
      "d": 545.4540000000125,
      "v": 81
    },
    {
      "midi": 66,
      "hit": false,
      "t": 130227.142500001,
      "d": 136.36350000000675,
      "v": 64
    },
    {
      "midi": 78,
      "hit": false,
      "t": 130227.142500001,
      "d": 136.36350000000675,
      "v": 72
    },
    {
      "midi": 60,
      "hit": false,
      "t": 130363.50600000101,
      "d": 272.7270000000135,
      "v": 63
    },
    {
      "midi": 64,
      "hit": false,
      "t": 130363.50600000101,
      "d": 272.7270000000135,
      "v": 70
    },
    {
      "midi": 76,
      "hit": false,
      "t": 130363.50600000101,
      "d": 272.7270000000135,
      "v": 79
    },
    {
      "midi": 60,
      "hit": false,
      "t": 130908.96000000103,
      "d": 545.4540000000125,
      "v": 39
    },
    {
      "midi": 64,
      "hit": false,
      "t": 131181.68700000102,
      "d": 272.7270000000135,
      "v": 44
    },
    {
      "midi": 69,
      "hit": false,
      "t": 131454.41400000104,
      "d": 272.7270000000135,
      "v": 49
    },
    {
      "midi": 59,
      "hit": false,
      "t": 131454.41400000104,
      "d": 1090.908000000054,
      "v": 41
    },
    {
      "midi": 62,
      "hit": false,
      "t": 131454.41400000104,
      "d": 1090.908000000054,
      "v": 44
    },
    {
      "midi": 68,
      "hit": false,
      "t": 131727.14100000105,
      "d": 272.7270000000135,
      "v": 40
    },
    {
      "midi": 66,
      "hit": false,
      "t": 131999.86800000106,
      "d": 272.7270000000135,
      "v": 41
    },
    {
      "midi": 52,
      "hit": false,
      "t": 131999.86800000106,
      "d": 818.1810000000114,
      "v": 41
    },
    {
      "midi": 68,
      "hit": false,
      "t": 132272.59500000108,
      "d": 272.7270000000135,
      "v": 38
    },
    {
      "midi": 45,
      "hit": false,
      "t": 132545.3220000011,
      "d": 272.7269999999844,
      "v": 26
    },
    {
      "midi": 57,
      "hit": false,
      "t": 132545.3220000011,
      "d": 272.7269999999844,
      "v": 29
    },
    {
      "midi": 60,
      "hit": false,
      "t": 132545.3220000011,
      "d": 272.7269999999844,
      "v": 33
    },
    {
      "midi": 64,
      "hit": false,
      "t": 132545.3220000011,
      "d": 272.7269999999844,
      "v": 33
    },
    {
      "midi": 69,
      "hit": false,
      "t": 132545.3220000011,
      "d": 272.7269999999844,
      "v": 37
    },
    {
      "midi": 72,
      "hit": false,
      "t": 133090.77600000106,
      "d": 545.454000000027,
      "v": 39
    },
    {
      "midi": 76,
      "hit": false,
      "t": 133363.50300000107,
      "d": 272.7270000000135,
      "v": 44
    },
    {
      "midi": 81,
      "hit": false,
      "t": 133636.2300000011,
      "d": 272.7270000000135,
      "v": 49
    },
    {
      "midi": 71,
      "hit": false,
      "t": 133636.2300000011,
      "d": 1090.908000000054,
      "v": 41
    },
    {
      "midi": 74,
      "hit": false,
      "t": 133636.2300000011,
      "d": 1090.908000000054,
      "v": 44
    },
    {
      "midi": 80,
      "hit": false,
      "t": 133908.9570000011,
      "d": 272.7270000000135,
      "v": 40
    },
    {
      "midi": 78,
      "hit": false,
      "t": 134181.6840000011,
      "d": 272.7270000000135,
      "v": 41
    },
    {
      "midi": 64,
      "hit": false,
      "t": 134181.6840000011,
      "d": 818.1810000000114,
      "v": 41
    },
    {
      "midi": 80,
      "hit": false,
      "t": 134454.41100000113,
      "d": 272.7270000000135,
      "v": 38
    },
    {
      "midi": 57,
      "hit": false,
      "t": 134727.13800000114,
      "d": 272.7269999999844,
      "v": 26
    },
    {
      "midi": 69,
      "hit": false,
      "t": 134727.13800000114,
      "d": 272.7269999999844,
      "v": 29
    },
    {
      "midi": 72,
      "hit": false,
      "t": 134727.13800000114,
      "d": 272.7269999999844,
      "v": 33
    },
    {
      "midi": 76,
      "hit": false,
      "t": 134727.13800000114,
      "d": 272.7269999999844,
      "v": 33
    },
    {
      "midi": 81,
      "hit": false,
      "t": 134727.13800000114,
      "d": 272.7269999999844,
      "v": 37
    },
    {
      "midi": 72,
      "hit": false,
      "t": 135272.5920000011,
      "d": 545.4539999999979,
      "v": 39
    },
    {
      "midi": 76,
      "hit": false,
      "t": 135408.9555000011,
      "d": 136.36350000000675,
      "v": 49
    },
    {
      "midi": 81,
      "hit": false,
      "t": 135545.3190000011,
      "d": 136.36350000000675,
      "v": 53
    },
    {
      "midi": 88,
      "hit": false,
      "t": 135681.6825000011,
      "d": 136.36350000000675,
      "v": 49
    },
    {
      "midi": 71,
      "hit": false,
      "t": 135818.0460000011,
      "d": 545.4539999999979,
      "v": 49
    },
    {
      "midi": 74,
      "hit": false,
      "t": 135818.0460000011,
      "d": 545.4539999999979,
      "v": 50
    },
    {
      "midi": 76,
      "hit": false,
      "t": 135818.0460000011,
      "d": 545.4539999999979,
      "v": 50
    },
    {
      "midi": 80,
      "hit": false,
      "t": 135818.0460000011,
      "d": 545.4539999999979,
      "v": 50
    },
    {
      "midi": 57,
      "hit": false,
      "t": 136090.7730000011,
      "d": 272.7270000000135,
      "v": 35
    },
    {
      "midi": 64,
      "hit": false,
      "t": 136090.7730000011,
      "d": 272.7270000000135,
      "v": 35
    },
    {
      "midi": 69,
      "hit": false,
      "t": 136363.5000000011,
      "d": 545.4539999999979,
      "v": 39
    },
    {
      "midi": 72,
      "hit": false,
      "t": 136499.86350000108,
      "d": 136.36350000000675,
      "v": 49
    },
    {
      "midi": 76,
      "hit": false,
      "t": 136636.2270000011,
      "d": 136.36350000000675,
      "v": 53
    },
    {
      "midi": 81,
      "hit": false,
      "t": 136772.5905000011,
      "d": 136.36350000000675,
      "v": 49
    },
    {
      "midi": 68,
      "hit": false,
      "t": 136908.9540000011,
      "d": 545.4539999999979,
      "v": 49
    },
    {
      "midi": 71,
      "hit": false,
      "t": 136908.9540000011,
      "d": 545.4539999999979,
      "v": 50
    },
    {
      "midi": 74,
      "hit": false,
      "t": 136908.9540000011,
      "d": 545.4539999999979,
      "v": 50
    },
    {
      "midi": 76,
      "hit": false,
      "t": 136908.9540000011,
      "d": 545.4539999999979,
      "v": 50
    },
    {
      "midi": 57,
      "hit": false,
      "t": 137181.6810000011,
      "d": 272.7270000000135,
      "v": 35
    },
    {
      "midi": 64,
      "hit": false,
      "t": 137181.6810000011,
      "d": 272.7270000000135,
      "v": 35
    },
    {
      "midi": 72,
      "hit": false,
      "t": 137454.4080000011,
      "d": 545.4539999999979,
      "v": 39
    },
    {
      "midi": 76,
      "hit": false,
      "t": 137590.77150000108,
      "d": 136.36350000000675,
      "v": 49
    },
    {
      "midi": 81,
      "hit": false,
      "t": 137727.1350000011,
      "d": 136.36350000000675,
      "v": 53
    },
    {
      "midi": 88,
      "hit": false,
      "t": 137863.4985000011,
      "d": 136.36350000000675,
      "v": 49
    },
    {
      "midi": 71,
      "hit": false,
      "t": 137999.8620000011,
      "d": 545.4539999999979,
      "v": 49
    },
    {
      "midi": 74,
      "hit": false,
      "t": 137999.8620000011,
      "d": 545.4539999999979,
      "v": 50
    },
    {
      "midi": 76,
      "hit": false,
      "t": 137999.8620000011,
      "d": 545.4539999999979,
      "v": 50
    },
    {
      "midi": 80,
      "hit": false,
      "t": 137999.8620000011,
      "d": 545.4539999999979,
      "v": 50
    },
    {
      "midi": 57,
      "hit": false,
      "t": 138272.58900000108,
      "d": 272.7270000000135,
      "v": 35
    },
    {
      "midi": 64,
      "hit": false,
      "t": 138272.58900000108,
      "d": 272.7270000000135,
      "v": 35
    },
    {
      "midi": 69,
      "hit": false,
      "t": 138545.3160000011,
      "d": 545.4539999999979,
      "v": 39
    },
    {
      "midi": 72,
      "hit": false,
      "t": 138681.67950000108,
      "d": 136.36350000000675,
      "v": 49
    },
    {
      "midi": 76,
      "hit": false,
      "t": 138818.04300000108,
      "d": 136.36350000000675,
      "v": 53
    },
    {
      "midi": 81,
      "hit": false,
      "t": 138954.4065000011,
      "d": 136.36350000000675,
      "v": 49
    },
    {
      "midi": 68,
      "hit": false,
      "t": 139090.7700000011,
      "d": 545.4539999999979,
      "v": 49
    },
    {
      "midi": 71,
      "hit": false,
      "t": 139090.7700000011,
      "d": 545.4539999999979,
      "v": 50
    },
    {
      "midi": 74,
      "hit": false,
      "t": 139090.7700000011,
      "d": 545.4539999999979,
      "v": 50
    },
    {
      "midi": 76,
      "hit": false,
      "t": 139090.7700000011,
      "d": 545.4539999999979,
      "v": 50
    },
    {
      "midi": 57,
      "hit": false,
      "t": 139363.49700000108,
      "d": 272.7270000000135,
      "v": 35
    },
    {
      "midi": 64,
      "hit": false,
      "t": 139363.49700000108,
      "d": 272.7270000000135,
      "v": 35
    },
    {
      "midi": 81,
      "hit": false,
      "t": 139636.2240000011,
      "d": 136.36349999997765,
      "v": 56
    },
    {
      "midi": 57,
      "hit": false,
      "t": 139636.2240000011,
      "d": 272.7269999999844,
      "v": 39
    },
    {
      "midi": 88,
      "hit": false,
      "t": 139772.58750000107,
      "d": 136.36350000000675,
      "v": 46
    },
    {
      "midi": 73,
      "hit": false,
      "t": 139908.95100000108,
      "d": 136.36350000000675,
      "v": 49
    },
    {
      "midi": 90,
      "hit": false,
      "t": 139908.95100000108,
      "d": 136.36350000000675,
      "v": 52
    },
    {
      "midi": 88,
      "hit": false,
      "t": 140045.31450000108,
      "d": 136.36350000000675,
      "v": 48
    },
    {
      "midi": 74,
      "hit": false,
      "t": 140181.6780000011,
      "d": 136.36350000000675,
      "v": 52
    },
    {
      "midi": 80,
      "hit": false,
      "t": 140181.6780000011,
      "d": 136.36350000000675,
      "v": 56
    },
    {
      "midi": 88,
      "hit": false,
      "t": 140318.0415000011,
      "d": 136.36349999997765,
      "v": 46
    },
    {
      "midi": 64,
      "hit": false,
      "t": 140454.40500000108,
      "d": 136.36350000000675,
      "v": 35
    },
    {
      "midi": 90,
      "hit": false,
      "t": 140454.40500000108,
      "d": 136.36350000000675,
      "v": 53
    },
    {
      "midi": 88,
      "hit": false,
      "t": 140590.76850000108,
      "d": 136.36350000000675,
      "v": 48
    },
    {
      "midi": 57,
      "hit": false,
      "t": 140727.1320000011,
      "d": 136.36349999997765,
      "v": 39
    },
    {
      "midi": 83,
      "hit": false,
      "t": 140727.1320000011,
      "d": 136.36349999997765,
      "v": 56
    },
    {
      "midi": 88,
      "hit": false,
      "t": 140863.49550000107,
      "d": 136.36350000000675,
      "v": 46
    },
    {
      "midi": 68,
      "hit": false,
      "t": 140999.85900000107,
      "d": 136.36350000000675,
      "v": 49
    },
    {
      "midi": 90,
      "hit": false,
      "t": 140999.85900000107,
      "d": 136.36350000000675,
      "v": 52
    },
    {
      "midi": 88,
      "hit": false,
      "t": 141136.22250000108,
      "d": 136.36350000000675,
      "v": 48
    },
    {
      "midi": 69,
      "hit": false,
      "t": 141272.5860000011,
      "d": 136.36350000000675,
      "v": 52
    },
    {
      "midi": 85,
      "hit": false,
      "t": 141272.5860000011,
      "d": 136.36350000000675,
      "v": 56
    },
    {
      "midi": 88,
      "hit": false,
      "t": 141408.9495000011,
      "d": 136.36349999997765,
      "v": 46
    },
    {
      "midi": 64,
      "hit": false,
      "t": 141545.31300000107,
      "d": 136.36350000000675,
      "v": 35
    },
    {
      "midi": 90,
      "hit": false,
      "t": 141545.31300000107,
      "d": 136.36350000000675,
      "v": 53
    },
    {
      "midi": 88,
      "hit": false,
      "t": 141681.67650000108,
      "d": 136.36350000000675,
      "v": 48
    },
    {
      "midi": 57,
      "hit": false,
      "t": 141818.04000000108,
      "d": 136.36349999997765,
      "v": 39
    },
    {
      "midi": 69,
      "hit": false,
      "t": 141818.04000000108,
      "d": 136.36349999997765,
      "v": 56
    },
    {
      "midi": 76,
      "hit": false,
      "t": 141954.40350000106,
      "d": 136.36350000000675,
      "v": 46
    },
    {
      "midi": 61,
      "hit": false,
      "t": 142090.76700000107,
      "d": 136.36350000000675,
      "v": 49
    },
    {
      "midi": 78,
      "hit": false,
      "t": 142090.76700000107,
      "d": 136.36350000000675,
      "v": 52
    },
    {
      "midi": 76,
      "hit": false,
      "t": 142227.13050000108,
      "d": 136.36350000000675,
      "v": 48
    },
    {
      "midi": 62,
      "hit": false,
      "t": 142363.49400000108,
      "d": 136.36350000000675,
      "v": 52
    },
    {
      "midi": 68,
      "hit": false,
      "t": 142363.49400000108,
      "d": 136.36350000000675,
      "v": 56
    },
    {
      "midi": 76,
      "hit": false,
      "t": 142499.8575000011,
      "d": 136.36349999997765,
      "v": 46
    },
    {
      "midi": 52,
      "hit": false,
      "t": 142636.22100000107,
      "d": 136.36350000000675,
      "v": 35
    },
    {
      "midi": 78,
      "hit": false,
      "t": 142636.22100000107,
      "d": 136.36350000000675,
      "v": 53
    },
    {
      "midi": 76,
      "hit": false,
      "t": 142772.58450000107,
      "d": 136.36350000000675,
      "v": 48
    },
    {
      "midi": 45,
      "hit": false,
      "t": 142908.94800000108,
      "d": 136.36349999997765,
      "v": 39
    },
    {
      "midi": 71,
      "hit": false,
      "t": 142908.94800000108,
      "d": 136.36349999997765,
      "v": 56
    },
    {
      "midi": 76,
      "hit": false,
      "t": 143045.31150000106,
      "d": 136.36350000000675,
      "v": 46
    },
    {
      "midi": 56,
      "hit": false,
      "t": 143181.67500000107,
      "d": 136.36350000000675,
      "v": 49
    },
    {
      "midi": 78,
      "hit": false,
      "t": 143181.67500000107,
      "d": 136.36350000000675,
      "v": 52
    },
    {
      "midi": 76,
      "hit": false,
      "t": 143318.03850000107,
      "d": 136.36350000000675,
      "v": 48
    },
    {
      "midi": 57,
      "hit": false,
      "t": 143454.40200000108,
      "d": 136.36350000000675,
      "v": 52
    },
    {
      "midi": 73,
      "hit": false,
      "t": 143454.40200000108,
      "d": 136.36350000000675,
      "v": 56
    },
    {
      "midi": 76,
      "hit": false,
      "t": 143590.7655000011,
      "d": 136.36349999997765,
      "v": 46
    },
    {
      "midi": 61,
      "hit": false,
      "t": 143727.12900000106,
      "d": 136.36350000000675,
      "v": 35
    },
    {
      "midi": 78,
      "hit": false,
      "t": 143727.12900000106,
      "d": 136.36350000000675,
      "v": 53
    },
    {
      "midi": 76,
      "hit": false,
      "t": 143863.49250000107,
      "d": 136.36350000000675,
      "v": 48
    },
    {
      "midi": 69,
      "hit": false,
      "t": 143999.85600000108,
      "d": 159.09075000000303,
      "v": 58
    },
    {
      "midi": 66,
      "hit": false,
      "t": 143999.85600000108,
      "d": 545.454000000027,
      "v": 70
    },
    {
      "midi": 73,
      "hit": false,
      "t": 144136.21950000108,
      "d": 159.09075000000303,
      "v": 48
    },
    {
      "midi": 74,
      "hit": false,
      "t": 144272.5830000011,
      "d": 159.09075000000303,
      "v": 55
    },
    {
      "midi": 73,
      "hit": false,
      "t": 144408.9465000011,
      "d": 136.36350000000675,
      "v": 50
    },
    {
      "midi": 65,
      "hit": false,
      "t": 144545.3100000011,
      "d": 136.36350000000675,
      "v": 64
    },
    {
      "midi": 69,
      "hit": false,
      "t": 144681.6735000011,
      "d": 159.09075000000303,
      "v": 48
    },
    {
      "midi": 64,
      "hit": false,
      "t": 144818.03700000112,
      "d": 136.36350000000675,
      "v": 62
    },
    {
      "midi": 73,
      "hit": false,
      "t": 144818.03700000112,
      "d": 159.09075000000303,
      "v": 56
    },
    {
      "midi": 69,
      "hit": false,
      "t": 144954.40050000112,
      "d": 136.36350000000675,
      "v": 50
    },
    {
      "midi": 62,
      "hit": false,
      "t": 145090.76400000113,
      "d": 136.36350000000675,
      "v": 64
    },
    {
      "midi": 64,
      "hit": false,
      "t": 145227.12750000114,
      "d": 159.09075000000303,
      "v": 48
    },
    {
      "midi": 61,
      "hit": false,
      "t": 145363.49100000114,
      "d": 136.36350000000675,
      "v": 61
    },
    {
      "midi": 69,
      "hit": false,
      "t": 145363.49100000114,
      "d": 159.09075000000303,
      "v": 48
    },
    {
      "midi": 64,
      "hit": false,
      "t": 145499.85450000115,
      "d": 136.36350000000675,
      "v": 50
    },
    {
      "midi": 45,
      "hit": false,
      "t": 145636.21800000116,
      "d": 136.36350000000675,
      "v": 63
    },
    {
      "midi": 61,
      "hit": false,
      "t": 145636.21800000116,
      "d": 136.36350000000675,
      "v": 58
    },
    {
      "midi": 64,
      "hit": false,
      "t": 145772.58150000116,
      "d": 159.09075000000303,
      "v": 48
    },
    {
      "midi": 49,
      "hit": false,
      "t": 145908.94500000117,
      "d": 136.36350000000675,
      "v": 58
    },
    {
      "midi": 66,
      "hit": false,
      "t": 145908.94500000117,
      "d": 159.09075000000303,
      "v": 55
    },
    {
      "midi": 64,
      "hit": false,
      "t": 146045.30850000118,
      "d": 136.36350000000675,
      "v": 50
    },
    {
      "midi": 57,
      "hit": false,
      "t": 146181.67200000118,
      "d": 136.36350000000675,
      "v": 58
    },
    {
      "midi": 54,
      "hit": false,
      "t": 146181.67200000118,
      "d": 545.454000000027,
      "v": 64
    },
    {
      "midi": 61,
      "hit": false,
      "t": 146318.0355000012,
      "d": 159.09075000000303,
      "v": 48
    },
    {
      "midi": 62,
      "hit": false,
      "t": 146454.3990000012,
      "d": 159.09075000000303,
      "v": 55
    },
    {
      "midi": 61,
      "hit": false,
      "t": 146590.7625000012,
      "d": 136.36350000000675,
      "v": 50
    },
    {
      "midi": 53,
      "hit": false,
      "t": 146727.1260000012,
      "d": 136.36350000000675,
      "v": 59
    },
    {
      "midi": 57,
      "hit": false,
      "t": 146863.48950000122,
      "d": 159.09075000000303,
      "v": 48
    },
    {
      "midi": 52,
      "hit": false,
      "t": 146999.85300000123,
      "d": 136.36350000000675,
      "v": 57
    },
    {
      "midi": 61,
      "hit": false,
      "t": 146999.85300000123,
      "d": 159.09075000000303,
      "v": 56
    },
    {
      "midi": 57,
      "hit": false,
      "t": 147136.21650000123,
      "d": 136.36350000000675,
      "v": 50
    },
    {
      "midi": 50,
      "hit": false,
      "t": 147272.58000000124,
      "d": 136.36350000000675,
      "v": 59
    },
    {
      "midi": 52,
      "hit": false,
      "t": 147408.94350000125,
      "d": 159.09075000000303,
      "v": 48
    },
    {
      "midi": 49,
      "hit": false,
      "t": 147545.30700000125,
      "d": 136.36350000000675,
      "v": 56
    },
    {
      "midi": 57,
      "hit": false,
      "t": 147545.30700000125,
      "d": 159.09075000000303,
      "v": 48
    },
    {
      "midi": 52,
      "hit": false,
      "t": 147681.67050000126,
      "d": 136.36350000000675,
      "v": 50
    },
    {
      "midi": 47,
      "hit": false,
      "t": 147818.03400000127,
      "d": 136.36350000000675,
      "v": 59
    },
    {
      "midi": 49,
      "hit": false,
      "t": 147954.39750000127,
      "d": 159.09075000000303,
      "v": 48
    },
    {
      "midi": 45,
      "hit": false,
      "t": 148090.76100000128,
      "d": 136.36350000000675,
      "v": 56
    },
    {
      "midi": 52,
      "hit": false,
      "t": 148090.76100000128,
      "d": 159.09075000000303,
      "v": 55
    },
    {
      "midi": 49,
      "hit": false,
      "t": 148227.1245000013,
      "d": 136.36350000000675,
      "v": 50
    },
    {
      "midi": 44,
      "hit": false,
      "t": 148363.4880000013,
      "d": 136.36350000000675,
      "v": 59
    },
    {
      "midi": 49,
      "hit": false,
      "t": 148499.8515000013,
      "d": 159.09075000000303,
      "v": 48
    },
    {
      "midi": 45,
      "hit": false,
      "t": 148636.2150000013,
      "d": 136.36350000000675,
      "v": 56
    },
    {
      "midi": 52,
      "hit": false,
      "t": 148636.2150000013,
      "d": 159.09075000000303,
      "v": 48
    },
    {
      "midi": 49,
      "hit": false,
      "t": 148772.5785000013,
      "d": 136.36350000000675,
      "v": 51
    },
    {
      "midi": 47,
      "hit": false,
      "t": 148908.94200000132,
      "d": 136.36350000000675,
      "v": 61
    },
    {
      "midi": 49,
      "hit": false,
      "t": 149045.30550000133,
      "d": 159.09075000000303,
      "v": 49
    },
    {
      "midi": 45,
      "hit": false,
      "t": 149181.66900000133,
      "d": 136.36350000000675,
      "v": 58
    },
    {
      "midi": 52,
      "hit": false,
      "t": 149181.66900000133,
      "d": 159.09075000000303,
      "v": 57
    },
    {
      "midi": 49,
      "hit": false,
      "t": 149318.03250000134,
      "d": 136.36350000000675,
      "v": 52
    },
    {
      "midi": 44,
      "hit": false,
      "t": 149454.39600000135,
      "d": 136.36350000000675,
      "v": 63
    },
    {
      "midi": 49,
      "hit": false,
      "t": 149590.75950000135,
      "d": 159.09075000000303,
      "v": 51
    },
    {
      "midi": 45,
      "hit": false,
      "t": 149727.12300000136,
      "d": 136.36350000000675,
      "v": 60
    },
    {
      "midi": 52,
      "hit": false,
      "t": 149727.12300000136,
      "d": 159.09075000000303,
      "v": 51
    },
    {
      "midi": 49,
      "hit": false,
      "t": 149863.48650000137,
      "d": 136.36350000000675,
      "v": 55
    },
    {
      "midi": 47,
      "hit": false,
      "t": 149999.85000000137,
      "d": 136.36350000000675,
      "v": 66
    },
    {
      "midi": 49,
      "hit": false,
      "t": 150136.21350000138,
      "d": 159.09075000000303,
      "v": 53
    },
    {
      "midi": 45,
      "hit": false,
      "t": 150272.5770000014,
      "d": 136.36350000000675,
      "v": 62
    },
    {
      "midi": 52,
      "hit": false,
      "t": 150272.5770000014,
      "d": 159.09075000000303,
      "v": 61
    },
    {
      "midi": 49,
      "hit": false,
      "t": 150408.9405000014,
      "d": 136.36350000000675,
      "v": 57
    },
    {
      "midi": 44,
      "hit": false,
      "t": 150545.3040000014,
      "d": 159.09075000000303,
      "v": 68
    },
    {
      "midi": 45,
      "hit": false,
      "t": 150681.6675000014,
      "d": 159.09075000000303,
      "v": 57
    },
    {
      "midi": 48,
      "hit": false,
      "t": 150818.0310000014,
      "d": 159.09075000000303,
      "v": 63
    },
    {
      "midi": 49,
      "hit": false,
      "t": 150954.39450000142,
      "d": 136.36350000000675,
      "v": 57
    },
    {
      "midi": 51,
      "hit": false,
      "t": 151090.75800000143,
      "d": 159.09075000000303,
      "v": 69
    },
    {
      "midi": 52,
      "hit": false,
      "t": 151227.12150000143,
      "d": 159.09075000000303,
      "v": 61
    },
    {
      "midi": 56,
      "hit": false,
      "t": 151363.48500000144,
      "d": 159.09075000000303,
      "v": 66
    },
    {
      "midi": 57,
      "hit": false,
      "t": 151499.84850000145,
      "d": 136.36350000000675,
      "v": 59
    },
    {
      "midi": 56,
      "hit": false,
      "t": 151636.21200000145,
      "d": 159.09075000000303,
      "v": 71
    },
    {
      "midi": 57,
      "hit": false,
      "t": 151772.57550000146,
      "d": 159.09075000000303,
      "v": 61
    },
    {
      "midi": 60,
      "hit": false,
      "t": 151908.93900000147,
      "d": 159.09075000000303,
      "v": 66
    },
    {
      "midi": 61,
      "hit": false,
      "t": 152045.30250000147,
      "d": 136.36350000000675,
      "v": 59
    },
    {
      "midi": 63,
      "hit": false,
      "t": 152181.66600000148,
      "d": 159.09075000000303,
      "v": 72
    },
    {
      "midi": 64,
      "hit": false,
      "t": 152318.0295000015,
      "d": 159.09075000000303,
      "v": 63
    },
    {
      "midi": 68,
      "hit": false,
      "t": 152454.3930000015,
      "d": 159.09075000000303,
      "v": 69
    },
    {
      "midi": 69,
      "hit": false,
      "t": 152590.7565000015,
      "d": 136.36350000000675,
      "v": 64
    },
    {
      "midi": 68,
      "hit": false,
      "t": 152727.1200000015,
      "d": 159.09075000000303,
      "v": 74
    },
    {
      "midi": 69,
      "hit": false,
      "t": 152863.48350000152,
      "d": 159.09075000000303,
      "v": 63
    },
    {
      "midi": 72,
      "hit": false,
      "t": 152999.84700000152,
      "d": 159.09075000000303,
      "v": 71
    },
    {
      "midi": 73,
      "hit": false,
      "t": 153136.21050000153,
      "d": 136.36350000000675,
      "v": 63
    },
    {
      "midi": 75,
      "hit": false,
      "t": 153272.57400000154,
      "d": 159.09075000000303,
      "v": 75
    },
    {
      "midi": 76,
      "hit": false,
      "t": 153408.93750000154,
      "d": 159.09075000000303,
      "v": 64
    },
    {
      "midi": 80,
      "hit": false,
      "t": 153545.30100000155,
      "d": 159.09075000000303,
      "v": 72
    },
    {
      "midi": 81,
      "hit": false,
      "t": 153681.66450000156,
      "d": 136.36350000000675,
      "v": 64
    },
    {
      "midi": 80,
      "hit": false,
      "t": 153818.02800000156,
      "d": 159.09075000000303,
      "v": 78
    },
    {
      "midi": 81,
      "hit": false,
      "t": 153954.39150000157,
      "d": 159.09075000000303,
      "v": 67
    },
    {
      "midi": 84,
      "hit": false,
      "t": 154090.75500000158,
      "d": 159.09075000000303,
      "v": 74
    },
    {
      "midi": 85,
      "hit": false,
      "t": 154227.11850000158,
      "d": 136.36350000000675,
      "v": 67
    },
    {
      "midi": 87,
      "hit": false,
      "t": 154363.4820000016,
      "d": 159.09075000000303,
      "v": 79
    },
    {
      "midi": 88,
      "hit": false,
      "t": 154499.8455000016,
      "d": 159.09075000000303,
      "v": 71
    },
    {
      "midi": 92,
      "hit": false,
      "t": 154636.2090000016,
      "d": 159.09075000000303,
      "v": 77
    },
    {
      "midi": 93,
      "hit": false,
      "t": 154772.5725000016,
      "d": 136.36350000000675,
      "v": 72
    },
    {
      "midi": 57,
      "hit": false,
      "t": 154910.0723625016,
      "d": 271.5906374999904,
      "v": 74
    },
    {
      "midi": 74,
      "hit": false,
      "t": 154910.0723625016,
      "d": 271.5906374999904,
      "v": 79
    },
    {
      "midi": 78,
      "hit": false,
      "t": 154910.0723625016,
      "d": 271.5906374999904,
      "v": 79
    },
    {
      "midi": 50,
      "hit": false,
      "t": 154910.0723625016,
      "d": 544.3176375000039,
      "v": 64
    },
    {
      "midi": 54,
      "hit": false,
      "t": 154910.0723625016,
      "d": 544.3176375000039,
      "v": 64
    },
    {
      "midi": 81,
      "hit": false,
      "t": 154910.0723625016,
      "d": 544.3176375000039,
      "v": 88
    },
    {
      "midi": 62,
      "hit": false,
      "t": 155181.6630000016,
      "d": 272.7270000000135,
      "v": 60
    },
    {
      "midi": 69,
      "hit": false,
      "t": 155181.6630000016,
      "d": 272.7270000000135,
      "v": 74
    },
    {
      "midi": 58,
      "hit": false,
      "t": 155454.39000000161,
      "d": 272.7270000000135,
      "v": 71
    },
    {
      "midi": 70,
      "hit": false,
      "t": 155454.39000000161,
      "d": 272.7270000000135,
      "v": 75
    },
    {
      "midi": 74,
      "hit": false,
      "t": 155454.39000000161,
      "d": 272.7270000000135,
      "v": 75
    },
    {
      "midi": 50,
      "hit": false,
      "t": 155454.39000000161,
      "d": 545.454000000027,
      "v": 62
    },
    {
      "midi": 55,
      "hit": false,
      "t": 155454.39000000161,
      "d": 545.454000000027,
      "v": 62
    },
    {
      "midi": 76,
      "hit": false,
      "t": 155454.39000000161,
      "d": 545.454000000027,
      "v": 84
    },
    {
      "midi": 62,
      "hit": false,
      "t": 155727.11700000163,
      "d": 272.7270000000135,
      "v": 53
    },
    {
      "midi": 64,
      "hit": false,
      "t": 155727.11700000163,
      "d": 272.7270000000135,
      "v": 69
    },
    {
      "midi": 57,
      "hit": false,
      "t": 155999.84400000164,
      "d": 272.7270000000135,
      "v": 74
    },
    {
      "midi": 74,
      "hit": false,
      "t": 155999.84400000164,
      "d": 272.7270000000135,
      "v": 79
    },
    {
      "midi": 78,
      "hit": false,
      "t": 155999.84400000164,
      "d": 272.7270000000135,
      "v": 79
    },
    {
      "midi": 50,
      "hit": false,
      "t": 155999.84400000164,
      "d": 545.454000000027,
      "v": 64
    },
    {
      "midi": 54,
      "hit": false,
      "t": 155999.84400000164,
      "d": 545.454000000027,
      "v": 64
    },
    {
      "midi": 81,
      "hit": false,
      "t": 155999.84400000164,
      "d": 545.454000000027,
      "v": 88
    },
    {
      "midi": 62,
      "hit": false,
      "t": 156272.57100000166,
      "d": 272.7270000000135,
      "v": 59
    },
    {
      "midi": 69,
      "hit": false,
      "t": 156272.57100000166,
      "d": 272.7270000000135,
      "v": 74
    },
    {
      "midi": 58,
      "hit": false,
      "t": 156545.29800000167,
      "d": 272.7269999999844,
      "v": 71
    },
    {
      "midi": 70,
      "hit": false,
      "t": 156545.29800000167,
      "d": 272.7269999999844,
      "v": 75
    },
    {
      "midi": 74,
      "hit": false,
      "t": 156545.29800000167,
      "d": 272.7269999999844,
      "v": 75
    },
    {
      "midi": 50,
      "hit": false,
      "t": 156545.29800000167,
      "d": 545.4539999999979,
      "v": 62
    },
    {
      "midi": 55,
      "hit": false,
      "t": 156545.29800000167,
      "d": 545.4539999999979,
      "v": 62
    },
    {
      "midi": 76,
      "hit": false,
      "t": 156545.29800000167,
      "d": 545.4539999999979,
      "v": 84
    },
    {
      "midi": 62,
      "hit": false,
      "t": 156818.02500000165,
      "d": 272.7270000000135,
      "v": 55
    },
    {
      "midi": 64,
      "hit": false,
      "t": 156818.02500000165,
      "d": 272.7270000000135,
      "v": 74
    },
    {
      "midi": 74,
      "hit": false,
      "t": 157090.75200000167,
      "d": 68.18174999998882,
      "v": 72
    },
    {
      "midi": 60,
      "hit": false,
      "t": 157090.75200000167,
      "d": 1090.9079999999376,
      "v": 63
    },
    {
      "midi": 62,
      "hit": false,
      "t": 157090.75200000167,
      "d": 1090.9079999999376,
      "v": 63
    },
    {
      "midi": 66,
      "hit": false,
      "t": 157090.75200000167,
      "d": 1090.9079999999376,
      "v": 70
    },
    {
      "midi": 69,
      "hit": false,
      "t": 157090.75200000167,
      "d": 1090.9079999999376,
      "v": 70
    },
    {
      "midi": 76,
      "hit": false,
      "t": 157227.11550000164,
      "d": 68.18174999998882,
      "v": 62
    },
    {
      "midi": 74,
      "hit": false,
      "t": 157363.47900000162,
      "d": 68.18174999998882,
      "v": 69
    },
    {
      "midi": 76,
      "hit": false,
      "t": 157499.8425000016,
      "d": 68.18174999998882,
      "v": 63
    },
    {
      "midi": 78,
      "hit": false,
      "t": 157636.20600000158,
      "d": 136.36350000000675,
      "v": 72
    },
    {
      "midi": 78,
      "hit": false,
      "t": 157908.9330000016,
      "d": 136.36350000000675,
      "v": 68
    },
    {
      "midi": 58,
      "hit": false,
      "t": 158181.6600000016,
      "d": 68.18174999998882,
      "v": 70
    },
    {
      "midi": 76,
      "hit": false,
      "t": 158181.6600000016,
      "d": 272.7269999999553,
      "v": 73
    },
    {
      "midi": 67,
      "hit": false,
      "t": 158181.6600000016,
      "d": 545.4539999999106,
      "v": 66
    },
    {
      "midi": 74,
      "hit": false,
      "t": 158181.6600000016,
      "d": 545.4539999999106,
      "v": 66
    },
    {
      "midi": 57,
      "hit": false,
      "t": 158318.02350000158,
      "d": 68.18174999998882,
      "v": 61
    },
    {
      "midi": 55,
      "hit": false,
      "t": 158454.38700000156,
      "d": 68.18174999998882,
      "v": 67
    },
    {
      "midi": 79,
      "hit": false,
      "t": 158454.38700000156,
      "d": 272.7269999999553,
      "v": 69
    },
    {
      "midi": 54,
      "hit": false,
      "t": 158590.75050000154,
      "d": 68.18174999998882,
      "v": 61
    },
    {
      "midi": 52,
      "hit": false,
      "t": 158727.11400000151,
      "d": 272.7269999999844,
      "v": 72
    },
    {
      "midi": 73,
      "hit": false,
      "t": 158727.11400000151,
      "d": 272.7269999999844,
      "v": 64
    },
    {
      "midi": 76,
      "hit": false,
      "t": 158727.11400000151,
      "d": 545.4539999999979,
      "v": 72
    },
    {
      "midi": 57,
      "hit": false,
      "t": 158999.8410000015,
      "d": 272.7270000000135,
      "v": 66
    },
    {
      "midi": 69,
      "hit": false,
      "t": 158999.8410000015,
      "d": 272.7270000000135,
      "v": 68
    },
    {
      "midi": 57,
      "hit": false,
      "t": 159272.5680000015,
      "d": 272.7270000000135,
      "v": 74
    },
    {
      "midi": 74,
      "hit": false,
      "t": 159272.5680000015,
      "d": 272.7270000000135,
      "v": 79
    },
    {
      "midi": 78,
      "hit": false,
      "t": 159272.5680000015,
      "d": 272.7270000000135,
      "v": 79
    },
    {
      "midi": 50,
      "hit": false,
      "t": 159272.5680000015,
      "d": 545.454000000027,
      "v": 64
    },
    {
      "midi": 54,
      "hit": false,
      "t": 159272.5680000015,
      "d": 545.454000000027,
      "v": 64
    },
    {
      "midi": 81,
      "hit": false,
      "t": 159272.5680000015,
      "d": 545.454000000027,
      "v": 88
    },
    {
      "midi": 62,
      "hit": false,
      "t": 159545.29500000153,
      "d": 272.7270000000135,
      "v": 60
    },
    {
      "midi": 69,
      "hit": false,
      "t": 159545.29500000153,
      "d": 272.7270000000135,
      "v": 74
    },
    {
      "midi": 58,
      "hit": false,
      "t": 159818.02200000154,
      "d": 272.7270000000135,
      "v": 71
    },
    {
      "midi": 70,
      "hit": false,
      "t": 159818.02200000154,
      "d": 272.7270000000135,
      "v": 75
    },
    {
      "midi": 74,
      "hit": false,
      "t": 159818.02200000154,
      "d": 272.7270000000135,
      "v": 75
    },
    {
      "midi": 50,
      "hit": false,
      "t": 159818.02200000154,
      "d": 545.454000000027,
      "v": 62
    },
    {
      "midi": 55,
      "hit": false,
      "t": 159818.02200000154,
      "d": 545.454000000027,
      "v": 62
    },
    {
      "midi": 76,
      "hit": false,
      "t": 159818.02200000154,
      "d": 545.454000000027,
      "v": 84
    },
    {
      "midi": 62,
      "hit": false,
      "t": 160090.74900000155,
      "d": 272.7270000000135,
      "v": 56
    },
    {
      "midi": 64,
      "hit": false,
      "t": 160090.74900000155,
      "d": 272.7270000000135,
      "v": 70
    },
    {
      "midi": 57,
      "hit": false,
      "t": 160363.47600000157,
      "d": 272.7270000000135,
      "v": 74
    },
    {
      "midi": 74,
      "hit": false,
      "t": 160363.47600000157,
      "d": 272.7270000000135,
      "v": 79
    },
    {
      "midi": 78,
      "hit": false,
      "t": 160363.47600000157,
      "d": 272.7270000000135,
      "v": 79
    },
    {
      "midi": 50,
      "hit": false,
      "t": 160363.47600000157,
      "d": 545.454000000027,
      "v": 64
    },
    {
      "midi": 54,
      "hit": false,
      "t": 160363.47600000157,
      "d": 545.454000000027,
      "v": 64
    },
    {
      "midi": 81,
      "hit": false,
      "t": 160363.47600000157,
      "d": 545.454000000027,
      "v": 88
    },
    {
      "midi": 62,
      "hit": false,
      "t": 160636.20300000158,
      "d": 272.7270000000135,
      "v": 60
    },
    {
      "midi": 69,
      "hit": false,
      "t": 160636.20300000158,
      "d": 272.7270000000135,
      "v": 74
    },
    {
      "midi": 58,
      "hit": false,
      "t": 160908.9300000016,
      "d": 272.7269999999844,
      "v": 71
    },
    {
      "midi": 70,
      "hit": false,
      "t": 160908.9300000016,
      "d": 272.7269999999844,
      "v": 75
    },
    {
      "midi": 74,
      "hit": false,
      "t": 160908.9300000016,
      "d": 272.7269999999844,
      "v": 75
    },
    {
      "midi": 50,
      "hit": false,
      "t": 160908.9300000016,
      "d": 545.4539999999979,
      "v": 62
    },
    {
      "midi": 55,
      "hit": false,
      "t": 160908.9300000016,
      "d": 545.4539999999979,
      "v": 62
    },
    {
      "midi": 76,
      "hit": false,
      "t": 160908.9300000016,
      "d": 545.4539999999979,
      "v": 84
    },
    {
      "midi": 62,
      "hit": false,
      "t": 161181.65700000158,
      "d": 272.7270000000135,
      "v": 55
    },
    {
      "midi": 64,
      "hit": false,
      "t": 161181.65700000158,
      "d": 272.7270000000135,
      "v": 71
    },
    {
      "midi": 74,
      "hit": false,
      "t": 161454.3840000016,
      "d": 68.18174999998882,
      "v": 77
    },
    {
      "midi": 60,
      "hit": false,
      "t": 161454.3840000016,
      "d": 1090.9079999999376,
      "v": 63
    },
    {
      "midi": 62,
      "hit": false,
      "t": 161454.3840000016,
      "d": 1090.9079999999376,
      "v": 63
    },
    {
      "midi": 66,
      "hit": false,
      "t": 161454.3840000016,
      "d": 1090.9079999999376,
      "v": 70
    },
    {
      "midi": 69,
      "hit": false,
      "t": 161454.3840000016,
      "d": 1090.9079999999376,
      "v": 70
    },
    {
      "midi": 76,
      "hit": false,
      "t": 161590.74750000157,
      "d": 68.18174999998882,
      "v": 72
    },
    {
      "midi": 74,
      "hit": false,
      "t": 161727.11100000155,
      "d": 68.18174999998882,
      "v": 77
    },
    {
      "midi": 76,
      "hit": false,
      "t": 161863.47450000152,
      "d": 68.18174999998882,
      "v": 71
    },
    {
      "midi": 78,
      "hit": false,
      "t": 161999.8380000015,
      "d": 136.36350000000675,
      "v": 80
    },
    {
      "midi": 78,
      "hit": false,
      "t": 162272.56500000152,
      "d": 136.36350000000675,
      "v": 72
    },
    {
      "midi": 58,
      "hit": false,
      "t": 162545.29200000153,
      "d": 68.18174999998882,
      "v": 60
    },
    {
      "midi": 62,
      "hit": false,
      "t": 162545.29200000153,
      "d": 68.18174999998882,
      "v": 60
    },
    {
      "midi": 74,
      "hit": false,
      "t": 162545.29200000153,
      "d": 68.18174999998882,
      "v": 80
    },
    {
      "midi": 76,
      "hit": false,
      "t": 162545.29200000153,
      "d": 68.18174999998882,
      "v": 80
    },
    {
      "midi": 78,
      "hit": false,
      "t": 162681.6555000015,
      "d": 68.18174999998882,
      "v": 81
    },
    {
      "midi": 58,
      "hit": false,
      "t": 162818.01900000148,
      "d": 68.18174999998882,
      "v": 66
    },
    {
      "midi": 79,
      "hit": false,
      "t": 162818.01900000148,
      "d": 68.18174999998882,
      "v": 83
    },
    {
      "midi": 57,
      "hit": false,
      "t": 162954.38250000146,
      "d": 68.18174999998882,
      "v": 68
    },
    {
      "midi": 81,
      "hit": false,
      "t": 162954.38250000146,
      "d": 68.18174999998882,
      "v": 85
    },
    {
      "midi": 55,
      "hit": false,
      "t": 163090.74600000144,
      "d": 272.7270000000135,
      "v": 71
    },
    {
      "midi": 82,
      "hit": false,
      "t": 163090.74600000144,
      "d": 272.7270000000135,
      "v": 86
    },
    {
      "midi": 43,
      "hit": false,
      "t": 163636.20000000147,
      "d": 545.454000000027,
      "v": 41
    },
    {
      "midi": 51,
      "hit": false,
      "t": 163636.20000000147,
      "d": 545.454000000027,
      "v": 41
    },
    {
      "midi": 61,
      "hit": false,
      "t": 163772.56350000147,
      "d": 136.36350000000675,
      "v": 42
    },
    {
      "midi": 63,
      "hit": false,
      "t": 163772.56350000147,
      "d": 136.36350000000675,
      "v": 42
    },
    {
      "midi": 58,
      "hit": false,
      "t": 163908.92700000148,
      "d": 272.7270000000135,
      "v": 37
    },
    {
      "midi": 61,
      "hit": false,
      "t": 164045.2905000015,
      "d": 136.36350000000675,
      "v": 42
    },
    {
      "midi": 63,
      "hit": false,
      "t": 164045.2905000015,
      "d": 136.36350000000675,
      "v": 42
    },
    {
      "midi": 56,
      "hit": false,
      "t": 164181.6540000015,
      "d": 545.4539999999979,
      "v": 43
    },
    {
      "midi": 60,
      "hit": false,
      "t": 164181.6540000015,
      "d": 545.4539999999979,
      "v": 47
    },
    {
      "midi": 44,
      "hit": false,
      "t": 164454.38100000148,
      "d": 272.7270000000135,
      "v": 37
    },
    {
      "midi": 51,
      "hit": false,
      "t": 164454.38100000148,
      "d": 272.7270000000135,
      "v": 37
    },
    {
      "midi": 63,
      "hit": false,
      "t": 164454.38100000148,
      "d": 272.7270000000135,
      "v": 42
    },
    {
      "midi": 72,
      "hit": false,
      "t": 164454.38100000148,
      "d": 272.7270000000135,
      "v": 42
    },
    {
      "midi": 45,
      "hit": false,
      "t": 164727.1080000015,
      "d": 545.4539999999979,
      "v": 44
    },
    {
      "midi": 53,
      "hit": false,
      "t": 164727.1080000015,
      "d": 545.4539999999979,
      "v": 44
    },
    {
      "midi": 63,
      "hit": false,
      "t": 164863.47150000147,
      "d": 136.36350000000675,
      "v": 46
    },
    {
      "midi": 65,
      "hit": false,
      "t": 164863.47150000147,
      "d": 136.36350000000675,
      "v": 46
    },
    {
      "midi": 60,
      "hit": false,
      "t": 164999.83500000148,
      "d": 272.7270000000135,
      "v": 40
    },
    {
      "midi": 63,
      "hit": false,
      "t": 165136.19850000148,
      "d": 136.36350000000675,
      "v": 46
    },
    {
      "midi": 65,
      "hit": false,
      "t": 165136.19850000148,
      "d": 136.36350000000675,
      "v": 46
    },
    {
      "midi": 58,
      "hit": false,
      "t": 165272.5620000015,
      "d": 545.4539999999979,
      "v": 48
    },
    {
      "midi": 62,
      "hit": false,
      "t": 165272.5620000015,
      "d": 545.4539999999979,
      "v": 52
    },
    {
      "midi": 46,
      "hit": false,
      "t": 165545.28900000147,
      "d": 272.7270000000135,
      "v": 40
    },
    {
      "midi": 53,
      "hit": false,
      "t": 165545.28900000147,
      "d": 272.7270000000135,
      "v": 40
    },
    {
      "midi": 65,
      "hit": false,
      "t": 165545.28900000147,
      "d": 272.7270000000135,
      "v": 41
    },
    {
      "midi": 74,
      "hit": false,
      "t": 165545.28900000147,
      "d": 272.7270000000135,
      "v": 47
    },
    {
      "midi": 47,
      "hit": false,
      "t": 165818.0160000015,
      "d": 272.7269999999844,
      "v": 45
    },
    {
      "midi": 55,
      "hit": false,
      "t": 165818.0160000015,
      "d": 545.4539999999979,
      "v": 45
    },
    {
      "midi": 62,
      "hit": false,
      "t": 165818.0160000015,
      "d": 545.4539999999979,
      "v": 49
    },
    {
      "midi": 59,
      "hit": false,
      "t": 166090.74300000147,
      "d": 272.7270000000135,
      "v": 38
    },
    {
      "midi": 65,
      "hit": false,
      "t": 166090.74300000147,
      "d": 272.7270000000135,
      "v": 38
    },
    {
      "midi": 67,
      "hit": false,
      "t": 166090.74300000147,
      "d": 272.7270000000135,
      "v": 38
    },
    {
      "midi": 74,
      "hit": false,
      "t": 166090.74300000147,
      "d": 272.7270000000135,
      "v": 41
    },
    {
      "midi": 48,
      "hit": false,
      "t": 166363.4700000015,
      "d": 272.7269999999844,
      "v": 47
    },
    {
      "midi": 55,
      "hit": false,
      "t": 166363.4700000015,
      "d": 545.4539999999979,
      "v": 47
    },
    {
      "midi": 63,
      "hit": false,
      "t": 166363.4700000015,
      "d": 545.4539999999979,
      "v": 50
    },
    {
      "midi": 60,
      "hit": false,
      "t": 166636.19700000147,
      "d": 272.7270000000135,
      "v": 39
    },
    {
      "midi": 67,
      "hit": false,
      "t": 166636.19700000147,
      "d": 272.7270000000135,
      "v": 38
    },
    {
      "midi": 75,
      "hit": false,
      "t": 166636.19700000147,
      "d": 272.7270000000135,
      "v": 43
    },
    {
      "midi": 50,
      "hit": false,
      "t": 166908.92400000148,
      "d": 272.7269999999844,
      "v": 49
    },
    {
      "midi": 55,
      "hit": false,
      "t": 166908.92400000148,
      "d": 545.4539999999979,
      "v": 49
    },
    {
      "midi": 65,
      "hit": false,
      "t": 166908.92400000148,
      "d": 545.4539999999979,
      "v": 54
    },
    {
      "midi": 62,
      "hit": false,
      "t": 167181.65100000147,
      "d": 272.7270000000135,
      "v": 41
    },
    {
      "midi": 71,
      "hit": false,
      "t": 167181.65100000147,
      "d": 272.7270000000135,
      "v": 38
    },
    {
      "midi": 79,
      "hit": false,
      "t": 167181.65100000147,
      "d": 272.7270000000135,
      "v": 43
    },
    {
      "midi": 48,
      "hit": false,
      "t": 167454.37800000148,
      "d": 272.7270000000135,
      "v": 47
    },
    {
      "midi": 55,
      "hit": false,
      "t": 167454.37800000148,
      "d": 545.454000000027,
      "v": 47
    },
    {
      "midi": 63,
      "hit": false,
      "t": 167454.37800000148,
      "d": 545.454000000027,
      "v": 53
    },
    {
      "midi": 60,
      "hit": false,
      "t": 167727.1050000015,
      "d": 272.7270000000135,
      "v": 40
    },
    {
      "midi": 67,
      "hit": false,
      "t": 167727.1050000015,
      "d": 272.7270000000135,
      "v": 40
    },
    {
      "midi": 75,
      "hit": false,
      "t": 167727.1050000015,
      "d": 272.7270000000135,
      "v": 45
    },
    {
      "midi": 47,
      "hit": false,
      "t": 167999.8320000015,
      "d": 545.454000000027,
      "v": 46
    },
    {
      "midi": 55,
      "hit": false,
      "t": 167999.8320000015,
      "d": 545.454000000027,
      "v": 46
    },
    {
      "midi": 65,
      "hit": false,
      "t": 168136.19550000152,
      "d": 136.36350000000675,
      "v": 47
    },
    {
      "midi": 67,
      "hit": false,
      "t": 168136.19550000152,
      "d": 136.36350000000675,
      "v": 47
    },
    {
      "midi": 62,
      "hit": false,
      "t": 168272.55900000152,
      "d": 272.7270000000135,
      "v": 42
    },
    {
      "midi": 65,
      "hit": false,
      "t": 168408.92250000153,
      "d": 136.36350000000675,
      "v": 48
    },
    {
      "midi": 67,
      "hit": false,
      "t": 168408.92250000153,
      "d": 136.36350000000675,
      "v": 48
    },
    {
      "midi": 60,
      "hit": false,
      "t": 168545.28600000154,
      "d": 545.4539999999979,
      "v": 51
    },
    {
      "midi": 64,
      "hit": false,
      "t": 168545.28600000154,
      "d": 545.4539999999979,
      "v": 53
    },
    {
      "midi": 48,
      "hit": false,
      "t": 168818.01300000152,
      "d": 272.7270000000135,
      "v": 42
    },
    {
      "midi": 55,
      "hit": false,
      "t": 168818.01300000152,
      "d": 272.7270000000135,
      "v": 42
    },
    {
      "midi": 67,
      "hit": false,
      "t": 168818.01300000152,
      "d": 272.7270000000135,
      "v": 43
    },
    {
      "midi": 76,
      "hit": false,
      "t": 168818.01300000152,
      "d": 272.7270000000135,
      "v": 48
    },
    {
      "midi": 49,
      "hit": false,
      "t": 169090.74000000153,
      "d": 545.4539999999979,
      "v": 52
    },
    {
      "midi": 57,
      "hit": false,
      "t": 169090.74000000153,
      "d": 545.4539999999979,
      "v": 52
    },
    {
      "midi": 67,
      "hit": false,
      "t": 169227.1035000015,
      "d": 136.36350000000675,
      "v": 53
    },
    {
      "midi": 69,
      "hit": false,
      "t": 169227.1035000015,
      "d": 136.36350000000675,
      "v": 53
    },
    {
      "midi": 64,
      "hit": false,
      "t": 169363.46700000152,
      "d": 272.7270000000135,
      "v": 46
    },
    {
      "midi": 67,
      "hit": false,
      "t": 169499.83050000152,
      "d": 136.36350000000675,
      "v": 53
    },
    {
      "midi": 69,
      "hit": false,
      "t": 169499.83050000152,
      "d": 136.36350000000675,
      "v": 53
    },
    {
      "midi": 62,
      "hit": false,
      "t": 169636.19400000153,
      "d": 545.4539999999979,
      "v": 54
    },
    {
      "midi": 65,
      "hit": false,
      "t": 169636.19400000153,
      "d": 545.4539999999979,
      "v": 58
    },
    {
      "midi": 50,
      "hit": false,
      "t": 169908.92100000152,
      "d": 272.7270000000135,
      "v": 47
    },
    {
      "midi": 57,
      "hit": false,
      "t": 169908.92100000152,
      "d": 272.7270000000135,
      "v": 47
    },
    {
      "midi": 69,
      "hit": false,
      "t": 169908.92100000152,
      "d": 272.7270000000135,
      "v": 47
    },
    {
      "midi": 77,
      "hit": false,
      "t": 169908.92100000152,
      "d": 272.7270000000135,
      "v": 53
    },
    {
      "midi": 49,
      "hit": false,
      "t": 170181.64800000153,
      "d": 272.7269999999844,
      "v": 54
    },
    {
      "midi": 57,
      "hit": false,
      "t": 170181.64800000153,
      "d": 545.4539999999979,
      "v": 54
    },
    {
      "midi": 64,
      "hit": false,
      "t": 170181.64800000153,
      "d": 545.4539999999979,
      "v": 58
    },
    {
      "midi": 61,
      "hit": false,
      "t": 170454.3750000015,
      "d": 272.7270000000135,
      "v": 46
    },
    {
      "midi": 67,
      "hit": false,
      "t": 170454.3750000015,
      "d": 272.7270000000135,
      "v": 44
    },
    {
      "midi": 69,
      "hit": false,
      "t": 170454.3750000015,
      "d": 272.7270000000135,
      "v": 44
    },
    {
      "midi": 76,
      "hit": false,
      "t": 170454.3750000015,
      "d": 272.7270000000135,
      "v": 49
    },
    {
      "midi": 50,
      "hit": false,
      "t": 170727.10200000153,
      "d": 272.7269999999844,
      "v": 56
    },
    {
      "midi": 57,
      "hit": false,
      "t": 170727.10200000153,
      "d": 545.4539999999979,
      "v": 56
    },
    {
      "midi": 65,
      "hit": false,
      "t": 170727.10200000153,
      "d": 545.4539999999979,
      "v": 59
    },
    {
      "midi": 62,
      "hit": false,
      "t": 170999.8290000015,
      "d": 272.7270000000135,
      "v": 47
    },
    {
      "midi": 69,
      "hit": false,
      "t": 170999.8290000015,
      "d": 272.7270000000135,
      "v": 46
    },
    {
      "midi": 77,
      "hit": false,
      "t": 170999.8290000015,
      "d": 272.7270000000135,
      "v": 52
    },
    {
      "midi": 52,
      "hit": false,
      "t": 171272.55600000152,
      "d": 272.7269999999844,
      "v": 57
    },
    {
      "midi": 57,
      "hit": false,
      "t": 171272.55600000152,
      "d": 545.4539999999979,
      "v": 57
    },
    {
      "midi": 67,
      "hit": false,
      "t": 171272.55600000152,
      "d": 545.4539999999979,
      "v": 65
    },
    {
      "midi": 64,
      "hit": false,
      "t": 171545.2830000015,
      "d": 272.7270000000135,
      "v": 49
    },
    {
      "midi": 73,
      "hit": false,
      "t": 171545.2830000015,
      "d": 272.7270000000135,
      "v": 46
    },
    {
      "midi": 81,
      "hit": false,
      "t": 171545.2830000015,
      "d": 272.7270000000135,
      "v": 53
    },
    {
      "midi": 50,
      "hit": false,
      "t": 171818.01000000152,
      "d": 272.7269999999844,
      "v": 56
    },
    {
      "midi": 57,
      "hit": false,
      "t": 171818.01000000152,
      "d": 545.4539999999979,
      "v": 56
    },
    {
      "midi": 65,
      "hit": false,
      "t": 171818.01000000152,
      "d": 545.4539999999979,
      "v": 62
    },
    {
      "midi": 62,
      "hit": false,
      "t": 172090.7370000015,
      "d": 272.7270000000135,
      "v": 48
    },
    {
      "midi": 69,
      "hit": false,
      "t": 172090.7370000015,
      "d": 272.7270000000135,
      "v": 48
    },
    {
      "midi": 77,
      "hit": false,
      "t": 172090.7370000015,
      "d": 272.7270000000135,
      "v": 55
    },
    {
      "midi": 49,
      "hit": false,
      "t": 172363.46400000152,
      "d": 272.7269999999844,
      "v": 58
    },
    {
      "midi": 57,
      "hit": false,
      "t": 172363.46400000152,
      "d": 545.4539999999979,
      "v": 58
    },
    {
      "midi": 64,
      "hit": false,
      "t": 172363.46400000152,
      "d": 545.4539999999979,
      "v": 66
    },
    {
      "midi": 61,
      "hit": false,
      "t": 172636.1910000015,
      "d": 272.7270000000135,
      "v": 49
    },
    {
      "midi": 67,
      "hit": false,
      "t": 172636.1910000015,
      "d": 272.7270000000135,
      "v": 50
    },
    {
      "midi": 69,
      "hit": false,
      "t": 172636.1910000015,
      "d": 272.7270000000135,
      "v": 50
    },
    {
      "midi": 76,
      "hit": false,
      "t": 172636.1910000015,
      "d": 272.7270000000135,
      "v": 57
    },
    {
      "midi": 50,
      "hit": false,
      "t": 172908.91800000152,
      "d": 272.7270000000135,
      "v": 61
    },
    {
      "midi": 57,
      "hit": false,
      "t": 172908.91800000152,
      "d": 545.454000000027,
      "v": 61
    },
    {
      "midi": 65,
      "hit": false,
      "t": 172908.91800000152,
      "d": 545.454000000027,
      "v": 66
    },
    {
      "midi": 62,
      "hit": false,
      "t": 173181.64500000153,
      "d": 272.7270000000135,
      "v": 52
    },
    {
      "midi": 69,
      "hit": false,
      "t": 173181.64500000153,
      "d": 272.7270000000135,
      "v": 50
    },
    {
      "midi": 77,
      "hit": false,
      "t": 173181.64500000153,
      "d": 272.7270000000135,
      "v": 57
    },
    {
      "midi": 51,
      "hit": false,
      "t": 173454.37200000155,
      "d": 272.7269999999844,
      "v": 63
    },
    {
      "midi": 59,
      "hit": false,
      "t": 173454.37200000155,
      "d": 545.4539999999979,
      "v": 63
    },
    {
      "midi": 69,
      "hit": false,
      "t": 173454.37200000155,
      "d": 545.4539999999979,
      "v": 70
    },
    {
      "midi": 63,
      "hit": false,
      "t": 173727.09900000153,
      "d": 272.7270000000135,
      "v": 53
    },
    {
      "midi": 78,
      "hit": false,
      "t": 173727.09900000153,
      "d": 272.7270000000135,
      "v": 50
    },
    {
      "midi": 83,
      "hit": false,
      "t": 173727.09900000153,
      "d": 272.7270000000135,
      "v": 57
    },
    {
      "midi": 52,
      "hit": false,
      "t": 173999.82600000154,
      "d": 272.7269999999844,
      "v": 60
    },
    {
      "midi": 59,
      "hit": false,
      "t": 173999.82600000154,
      "d": 545.4539999999979,
      "v": 60
    },
    {
      "midi": 67,
      "hit": false,
      "t": 173999.82600000154,
      "d": 545.4539999999979,
      "v": 67
    },
    {
      "midi": 64,
      "hit": false,
      "t": 174272.55300000153,
      "d": 272.7270000000135,
      "v": 52
    },
    {
      "midi": 71,
      "hit": false,
      "t": 174272.55300000153,
      "d": 272.7270000000135,
      "v": 53
    },
    {
      "midi": 79,
      "hit": false,
      "t": 174272.55300000153,
      "d": 272.7270000000135,
      "v": 59
    },
    {
      "midi": 51,
      "hit": false,
      "t": 174545.28000000154,
      "d": 272.7269999999844,
      "v": 64
    },
    {
      "midi": 59,
      "hit": false,
      "t": 174545.28000000154,
      "d": 545.4539999999979,
      "v": 64
    },
    {
      "midi": 66,
      "hit": false,
      "t": 174545.28000000154,
      "d": 545.4539999999979,
      "v": 71
    },
    {
      "midi": 63,
      "hit": false,
      "t": 174818.00700000153,
      "d": 272.7270000000135,
      "v": 54
    },
    {
      "midi": 69,
      "hit": false,
      "t": 174818.00700000153,
      "d": 272.7270000000135,
      "v": 57
    },
    {
      "midi": 71,
      "hit": false,
      "t": 174818.00700000153,
      "d": 272.7270000000135,
      "v": 57
    },
    {
      "midi": 78,
      "hit": false,
      "t": 174818.00700000153,
      "d": 272.7270000000135,
      "v": 64
    },
    {
      "midi": 52,
      "hit": false,
      "t": 175090.73400000154,
      "d": 272.7269999999844,
      "v": 66
    },
    {
      "midi": 59,
      "hit": false,
      "t": 175090.73400000154,
      "d": 545.4539999999979,
      "v": 66
    },
    {
      "midi": 67,
      "hit": false,
      "t": 175090.73400000154,
      "d": 545.4539999999979,
      "v": 74
    },
    {
      "midi": 64,
      "hit": false,
      "t": 175363.46100000152,
      "d": 272.7270000000135,
      "v": 56
    },
    {
      "midi": 71,
      "hit": false,
      "t": 175363.46100000152,
      "d": 272.7270000000135,
      "v": 58
    },
    {
      "midi": 79,
      "hit": false,
      "t": 175363.46100000152,
      "d": 272.7270000000135,
      "v": 64
    },
    {
      "midi": 53,
      "hit": false,
      "t": 175636.18800000154,
      "d": 272.7269999999844,
      "v": 67
    },
    {
      "midi": 61,
      "hit": false,
      "t": 175636.18800000154,
      "d": 545.4539999999979,
      "v": 67
    },
    {
      "midi": 71,
      "hit": false,
      "t": 175636.18800000154,
      "d": 545.4539999999979,
      "v": 76
    },
    {
      "midi": 65,
      "hit": false,
      "t": 175908.91500000152,
      "d": 272.7270000000135,
      "v": 57
    },
    {
      "midi": 80,
      "hit": false,
      "t": 175908.91500000152,
      "d": 272.7270000000135,
      "v": 58
    },
    {
      "midi": 85,
      "hit": false,
      "t": 175908.91500000152,
      "d": 272.7270000000135,
      "v": 65
    },
    {
      "midi": 54,
      "hit": false,
      "t": 176181.64200000154,
      "d": 272.7270000000135,
      "v": 65
    },
    {
      "midi": 61,
      "hit": false,
      "t": 176181.64200000154,
      "d": 545.454000000027,
      "v": 65
    },
    {
      "midi": 69,
      "hit": false,
      "t": 176181.64200000154,
      "d": 545.454000000027,
      "v": 75
    },
    {
      "midi": 66,
      "hit": false,
      "t": 176454.36900000155,
      "d": 272.7270000000135,
      "v": 56
    },
    {
      "midi": 73,
      "hit": false,
      "t": 176454.36900000155,
      "d": 272.7270000000135,
      "v": 60
    },
    {
      "midi": 81,
      "hit": false,
      "t": 176454.36900000155,
      "d": 272.7270000000135,
      "v": 67
    },
    {
      "midi": 54,
      "hit": false,
      "t": 176727.09600000156,
      "d": 272.7270000000135,
      "v": 72
    },
    {
      "midi": 62,
      "hit": false,
      "t": 176727.09600000156,
      "d": 545.454000000027,
      "v": 72
    },
    {
      "midi": 72,
      "hit": false,
      "t": 176727.09600000156,
      "d": 545.454000000027,
      "v": 82
    },
    {
      "midi": 66,
      "hit": false,
      "t": 176999.82300000158,
      "d": 272.7270000000135,
      "v": 60
    },
    {
      "midi": 81,
      "hit": false,
      "t": 176999.82300000158,
      "d": 272.7270000000135,
      "v": 60
    },
    {
      "midi": 86,
      "hit": false,
      "t": 176999.82300000158,
      "d": 272.7270000000135,
      "v": 69
    },
    {
      "midi": 55,
      "hit": false,
      "t": 177272.5500000016,
      "d": 272.7269999999844,
      "v": 70
    },
    {
      "midi": 62,
      "hit": false,
      "t": 177272.5500000016,
      "d": 545.4539999999979,
      "v": 70
    },
    {
      "midi": 71,
      "hit": false,
      "t": 177272.5500000016,
      "d": 545.4539999999979,
      "v": 78
    },
    {
      "midi": 67,
      "hit": false,
      "t": 177545.27700000157,
      "d": 272.7270000000135,
      "v": 60
    },
    {
      "midi": 74,
      "hit": false,
      "t": 177545.27700000157,
      "d": 272.7270000000135,
      "v": 65
    },
    {
      "midi": 83,
      "hit": false,
      "t": 177545.27700000157,
      "d": 272.7270000000135,
      "v": 72
    },
    {
      "midi": 54,
      "hit": false,
      "t": 177818.0040000016,
      "d": 272.7269999999844,
      "v": 73
    },
    {
      "midi": 62,
      "hit": false,
      "t": 177818.0040000016,
      "d": 545.4539999999979,
      "v": 73
    },
    {
      "midi": 72,
      "hit": false,
      "t": 177818.0040000016,
      "d": 545.4539999999979,
      "v": 83
    },
    {
      "midi": 66,
      "hit": false,
      "t": 178090.73100000157,
      "d": 272.7270000000135,
      "v": 61
    },
    {
      "midi": 81,
      "hit": false,
      "t": 178090.73100000157,
      "d": 272.7270000000135,
      "v": 61
    },
    {
      "midi": 86,
      "hit": false,
      "t": 178090.73100000157,
      "d": 272.7270000000135,
      "v": 70
    },
    {
      "midi": 55,
      "hit": false,
      "t": 178363.45800000158,
      "d": 272.7269999999844,
      "v": 71
    },
    {
      "midi": 62,
      "hit": false,
      "t": 178363.45800000158,
      "d": 545.4539999999979,
      "v": 71
    },
    {
      "midi": 71,
      "hit": false,
      "t": 178363.45800000158,
      "d": 545.4539999999979,
      "v": 79
    },
    {
      "midi": 67,
      "hit": false,
      "t": 178636.18500000157,
      "d": 272.7270000000135,
      "v": 60
    },
    {
      "midi": 74,
      "hit": false,
      "t": 178636.18500000157,
      "d": 272.7270000000135,
      "v": 61
    },
    {
      "midi": 83,
      "hit": false,
      "t": 178636.18500000157,
      "d": 272.7270000000135,
      "v": 70
    },
    {
      "midi": 88,
      "hit": false,
      "t": 178908.91200000158,
      "d": 68.18174999998882,
      "v": 86
    },
    {
      "midi": 67,
      "hit": false,
      "t": 178908.91200000158,
      "d": 136.36349999997765,
      "v": 69
    },
    {
      "midi": 70,
      "hit": false,
      "t": 178908.91200000158,
      "d": 136.36349999997765,
      "v": 69
    },
    {
      "midi": 74,
      "hit": false,
      "t": 178908.91200000158,
      "d": 136.36349999997765,
      "v": 77
    },
    {
      "midi": 86,
      "hit": false,
      "t": 179045.27550000156,
      "d": 68.18174999998882,
      "v": 73
    },
    {
      "midi": 82,
      "hit": false,
      "t": 179181.63900000154,
      "d": 68.18174999998882,
      "v": 80
    },
    {
      "midi": 81,
      "hit": false,
      "t": 179318.00250000152,
      "d": 68.18174999998882,
      "v": 71
    },
    {
      "midi": 76,
      "hit": false,
      "t": 179454.3660000015,
      "d": 68.18174999998882,
      "v": 80
    },
    {
      "midi": 79,
      "hit": false,
      "t": 179454.3660000015,
      "d": 136.36349999997765,
      "v": 77
    },
    {
      "midi": 74,
      "hit": false,
      "t": 179590.72950000147,
      "d": 68.18174999998882,
      "v": 71
    },
    {
      "midi": 70,
      "hit": false,
      "t": 179727.09300000145,
      "d": 68.18174999998882,
      "v": 74
    },
    {
      "midi": 69,
      "hit": false,
      "t": 179863.45650000143,
      "d": 68.18174999998882,
      "v": 71
    },
    {
      "midi": 76,
      "hit": false,
      "t": 179999.8200000014,
      "d": 68.18174999998882,
      "v": 74
    },
    {
      "midi": 67,
      "hit": false,
      "t": 179999.8200000014,
      "d": 136.36349999997765,
      "v": 82
    },
    {
      "midi": 74,
      "hit": false,
      "t": 180136.18350000138,
      "d": 68.18174999998882,
      "v": 67
    },
    {
      "midi": 70,
      "hit": false,
      "t": 180272.54700000136,
      "d": 68.18174999998882,
      "v": 72
    },
    {
      "midi": 69,
      "hit": false,
      "t": 180408.91050000134,
      "d": 68.18174999998882,
      "v": 64
    },
    {
      "midi": 64,
      "hit": false,
      "t": 180545.27400000131,
      "d": 68.18174999998882,
      "v": 71
    },
    {
      "midi": 67,
      "hit": false,
      "t": 180545.27400000131,
      "d": 136.36349999997765,
      "v": 75
    },
    {
      "midi": 62,
      "hit": false,
      "t": 180681.6375000013,
      "d": 68.18174999998882,
      "v": 60
    },
    {
      "midi": 58,
      "hit": false,
      "t": 180818.00100000127,
      "d": 68.18174999998882,
      "v": 67
    },
    {
      "midi": 57,
      "hit": false,
      "t": 180954.36450000125,
      "d": 68.18174999998882,
      "v": 61
    },
    {
      "midi": 64,
      "hit": false,
      "t": 181090.72800000123,
      "d": 68.18174999998882,
      "v": 74
    },
    {
      "midi": 55,
      "hit": false,
      "t": 181090.72800000123,
      "d": 136.36349999997765,
      "v": 74
    },
    {
      "midi": 62,
      "hit": false,
      "t": 181227.0915000012,
      "d": 68.18174999998882,
      "v": 63
    },
    {
      "midi": 58,
      "hit": false,
      "t": 181363.45500000118,
      "d": 68.18174999998882,
      "v": 70
    },
    {
      "midi": 57,
      "hit": false,
      "t": 181499.81850000116,
      "d": 68.18174999998882,
      "v": 60
    },
    {
      "midi": 52,
      "hit": false,
      "t": 181636.18200000114,
      "d": 68.18174999998882,
      "v": 71
    },
    {
      "midi": 55,
      "hit": false,
      "t": 181636.18200000114,
      "d": 136.36349999997765,
      "v": 75
    },
    {
      "midi": 50,
      "hit": false,
      "t": 181772.5455000011,
      "d": 68.18174999998882,
      "v": 62
    },
    {
      "midi": 46,
      "hit": false,
      "t": 181908.9090000011,
      "d": 68.18174999998882,
      "v": 67
    },
    {
      "midi": 45,
      "hit": false,
      "t": 182045.27250000107,
      "d": 68.18174999998882,
      "v": 61
    },
    {
      "midi": 52,
      "hit": false,
      "t": 182181.63600000105,
      "d": 68.18174999998882,
      "v": 74
    },
    {
      "midi": 43,
      "hit": false,
      "t": 182181.63600000105,
      "d": 136.36349999997765,
      "v": 71
    },
    {
      "midi": 50,
      "hit": false,
      "t": 182317.99950000102,
      "d": 68.18174999998882,
      "v": 64
    },
    {
      "midi": 46,
      "hit": false,
      "t": 182454.363000001,
      "d": 68.18174999998882,
      "v": 70
    },
    {
      "midi": 45,
      "hit": false,
      "t": 182590.72650000098,
      "d": 68.18174999998882,
      "v": 64
    },
    {
      "midi": 40,
      "hit": false,
      "t": 182727.09000000096,
      "d": 68.18174999998882,
      "v": 69
    },
    {
      "midi": 43,
      "hit": false,
      "t": 182727.09000000096,
      "d": 136.36349999997765,
      "v": 75
    },
    {
      "midi": 38,
      "hit": false,
      "t": 182863.45350000093,
      "d": 68.18174999998882,
      "v": 59
    },
    {
      "midi": 34,
      "hit": false,
      "t": 182999.8170000009,
      "d": 68.18174999998882,
      "v": 64
    },
    {
      "midi": 33,
      "hit": false,
      "t": 183136.1805000009,
      "d": 68.18174999998882,
      "v": 55
    },
    {
      "midi": 31,
      "hit": false,
      "t": 183272.54400000087,
      "d": 136.36350000000675,
      "v": 63
    },
    {
      "midi": 31,
      "hit": false,
      "t": 183545.27100000088,
      "d": 136.36350000000675,
      "v": 62
    },
    {
      "midi": 31,
      "hit": false,
      "t": 183817.9980000009,
      "d": 136.36350000000675,
      "v": 63
    },
    {
      "midi": 33,
      "hit": false,
      "t": 183954.3615000009,
      "d": 136.36350000000675,
      "v": 56
    },
    {
      "midi": 34,
      "hit": false,
      "t": 184090.7250000009,
      "d": 136.36350000000675,
      "v": 59
    },
    {
      "midi": 31,
      "hit": false,
      "t": 184227.08850000091,
      "d": 136.36350000000675,
      "v": 53
    },
    {
      "midi": 33,
      "hit": false,
      "t": 184363.45200000092,
      "d": 136.36350000000675,
      "v": 61
    },
    {
      "midi": 33,
      "hit": false,
      "t": 184636.17900000094,
      "d": 136.36350000000675,
      "v": 59
    },
    {
      "midi": 34,
      "hit": false,
      "t": 184908.90600000095,
      "d": 272.7270000000135,
      "v": 63
    },
    {
      "midi": 31,
      "hit": false,
      "t": 185181.63300000096,
      "d": 272.7270000000135,
      "v": 58
    },
    {
      "midi": 50,
      "hit": false,
      "t": 185454.36000000098,
      "d": 2181.8159999999916,
      "v": 56
    },
    {
      "midi": 52,
      "hit": false,
      "t": 185454.36000000098,
      "d": 2181.8159999999916,
      "v": 56
    },
    {
      "midi": 62,
      "hit": false,
      "t": 185454.36000000098,
      "d": 2181.8159999999916,
      "v": 62
    },
    {
      "midi": 64,
      "hit": false,
      "t": 185454.36000000098,
      "d": 2181.8159999999916,
      "v": 62
    },
    {
      "midi": 31,
      "hit": false,
      "t": 185999.81400000097,
      "d": 545.4539999999979,
      "v": 56
    },
    {
      "midi": 43,
      "hit": false,
      "t": 185999.81400000097,
      "d": 545.4539999999979,
      "v": 56
    },
    {
      "midi": 33,
      "hit": false,
      "t": 186545.26800000097,
      "d": 545.4539999999979,
      "v": 59
    },
    {
      "midi": 45,
      "hit": false,
      "t": 186545.26800000097,
      "d": 545.4539999999979,
      "v": 59
    },
    {
      "midi": 34,
      "hit": false,
      "t": 187090.72200000097,
      "d": 545.4539999999979,
      "v": 55
    },
    {
      "midi": 46,
      "hit": false,
      "t": 187090.72200000097,
      "d": 545.4539999999979,
      "v": 55
    },
    {
      "midi": 43,
      "hit": false,
      "t": 187636.17600000097,
      "d": 136.36350000000675,
      "v": 49
    },
    {
      "midi": 43,
      "hit": false,
      "t": 187908.90300000098,
      "d": 136.36350000000675,
      "v": 44
    },
    {
      "midi": 43,
      "hit": false,
      "t": 188181.630000001,
      "d": 136.36350000000675,
      "v": 49
    },
    {
      "midi": 45,
      "hit": false,
      "t": 188317.993500001,
      "d": 136.36350000000675,
      "v": 42
    },
    {
      "midi": 46,
      "hit": false,
      "t": 188454.357000001,
      "d": 136.36350000000675,
      "v": 49
    },
    {
      "midi": 43,
      "hit": false,
      "t": 188590.720500001,
      "d": 136.36350000000675,
      "v": 41
    },
    {
      "midi": 45,
      "hit": false,
      "t": 188727.08400000102,
      "d": 136.36350000000675,
      "v": 49
    },
    {
      "midi": 45,
      "hit": false,
      "t": 188999.81100000103,
      "d": 136.36350000000675,
      "v": 42
    },
    {
      "midi": 46,
      "hit": false,
      "t": 189272.53800000105,
      "d": 272.7270000000135,
      "v": 49
    },
    {
      "midi": 43,
      "hit": false,
      "t": 189545.26500000106,
      "d": 272.7270000000135,
      "v": 45
    },
    {
      "midi": 62,
      "hit": false,
      "t": 189817.99200000108,
      "d": 2181.8159999999916,
      "v": 49
    },
    {
      "midi": 64,
      "hit": false,
      "t": 189817.99200000108,
      "d": 2181.8159999999916,
      "v": 49
    },
    {
      "midi": 74,
      "hit": false,
      "t": 189817.99200000108,
      "d": 2181.8159999999916,
      "v": 56
    },
    {
      "midi": 76,
      "hit": false,
      "t": 189817.99200000108,
      "d": 2181.8159999999916,
      "v": 56
    },
    {
      "midi": 43,
      "hit": false,
      "t": 190363.44600000107,
      "d": 545.4539999999979,
      "v": 42
    },
    {
      "midi": 55,
      "hit": false,
      "t": 190363.44600000107,
      "d": 545.4539999999979,
      "v": 42
    },
    {
      "midi": 45,
      "hit": false,
      "t": 190908.90000000107,
      "d": 545.4539999999979,
      "v": 48
    },
    {
      "midi": 57,
      "hit": false,
      "t": 190908.90000000107,
      "d": 545.4539999999979,
      "v": 48
    },
    {
      "midi": 46,
      "hit": false,
      "t": 191454.35400000107,
      "d": 545.4539999999979,
      "v": 44
    },
    {
      "midi": 58,
      "hit": false,
      "t": 191454.35400000107,
      "d": 545.4539999999979,
      "v": 44
    },
    {
      "midi": 74,
      "hit": false,
      "t": 191999.80800000107,
      "d": 2181.8159999999916,
      "v": 41
    },
    {
      "midi": 76,
      "hit": false,
      "t": 191999.80800000107,
      "d": 2181.8159999999916,
      "v": 41
    },
    {
      "midi": 86,
      "hit": false,
      "t": 191999.80800000107,
      "d": 2181.8159999999916,
      "v": 45
    },
    {
      "midi": 88,
      "hit": false,
      "t": 191999.80800000107,
      "d": 2181.8159999999916,
      "v": 45
    },
    {
      "midi": 55,
      "hit": false,
      "t": 192545.26200000106,
      "d": 545.4539999999979,
      "v": 35
    },
    {
      "midi": 67,
      "hit": false,
      "t": 192545.26200000106,
      "d": 545.4539999999979,
      "v": 35
    },
    {
      "midi": 57,
      "hit": false,
      "t": 193090.71600000106,
      "d": 545.4539999999979,
      "v": 39
    },
    {
      "midi": 69,
      "hit": false,
      "t": 193090.71600000106,
      "d": 545.4539999999979,
      "v": 39
    },
    {
      "midi": 58,
      "hit": false,
      "t": 193636.17000000106,
      "d": 545.4539999999979,
      "v": 36
    },
    {
      "midi": 70,
      "hit": false,
      "t": 193636.17000000106,
      "d": 545.4539999999979,
      "v": 36
    },
    {
      "midi": 43,
      "hit": false,
      "t": 195272.53200000105,
      "d": 136.36350000000675,
      "v": 85
    },
    {
      "midi": 79,
      "hit": false,
      "t": 195272.53200000105,
      "d": 136.36350000000675,
      "v": 97
    },
    {
      "midi": 43,
      "hit": false,
      "t": 195545.25900000107,
      "d": 136.36350000000675,
      "v": 77
    },
    {
      "midi": 79,
      "hit": false,
      "t": 195545.25900000107,
      "d": 136.36350000000675,
      "v": 88
    },
    {
      "midi": 43,
      "hit": false,
      "t": 195817.98600000108,
      "d": 159.09075000000303,
      "v": 84
    },
    {
      "midi": 79,
      "hit": false,
      "t": 195817.98600000108,
      "d": 159.09075000000303,
      "v": 96
    },
    {
      "midi": 45,
      "hit": false,
      "t": 195954.3495000011,
      "d": 159.09075000000303,
      "v": 72
    },
    {
      "midi": 81,
      "hit": false,
      "t": 195954.3495000011,
      "d": 159.09075000000303,
      "v": 83
    },
    {
      "midi": 46,
      "hit": false,
      "t": 196090.7130000011,
      "d": 159.09075000000303,
      "v": 79
    },
    {
      "midi": 82,
      "hit": false,
      "t": 196090.7130000011,
      "d": 159.09075000000303,
      "v": 88
    },
    {
      "midi": 43,
      "hit": false,
      "t": 196227.0765000011,
      "d": 136.36350000000675,
      "v": 72
    },
    {
      "midi": 79,
      "hit": false,
      "t": 196227.0765000011,
      "d": 136.36350000000675,
      "v": 79
    },
    {
      "midi": 44,
      "hit": false,
      "t": 196363.4400000011,
      "d": 136.36350000000675,
      "v": 86
    },
    {
      "midi": 80,
      "hit": false,
      "t": 196363.4400000011,
      "d": 136.36350000000675,
      "v": 101
    },
    {
      "midi": 45,
      "hit": false,
      "t": 196636.16700000112,
      "d": 136.36350000000675,
      "v": 82
    },
    {
      "midi": 81,
      "hit": false,
      "t": 196636.16700000112,
      "d": 136.36350000000675,
      "v": 93
    },
    {
      "midi": 38,
      "hit": false,
      "t": 196908.89400000114,
      "d": 272.7270000000135,
      "v": 81
    },
    {
      "midi": 45,
      "hit": false,
      "t": 196908.89400000114,
      "d": 272.7270000000135,
      "v": 81
    },
    {
      "midi": 50,
      "hit": false,
      "t": 196908.89400000114,
      "d": 272.7270000000135,
      "v": 91
    },
    {
      "midi": 74,
      "hit": false,
      "t": 196908.89400000114,
      "d": 272.7270000000135,
      "v": 99
    },
    {
      "midi": 78,
      "hit": false,
      "t": 196908.89400000114,
      "d": 272.7270000000135,
      "v": 99
    },
    {
      "midi": 86,
      "hit": false,
      "t": 196908.89400000114,
      "d": 272.7270000000135,
      "v": 111
    }
  ]
}