{
  "jsonPath": "Unknown/Unknown/The Synthesizer/chariots-of-fire.json",
  "path": "Unknown\\Unknown\\The Synthesizer\\Chariots  Of Fire.mid",
  "name": "Chariots  Of Fire",
  "difficulty": "Advanced",
  "bpm": 68.0000725334107,
  "notes": [
    {
      "midi": 25,
      "hit": false,
      "t": 17647.04,
      "d": 3463.231599999999,
      "v": 111
    },
    {
      "midi": 37,
      "hit": false,
      "t": 17647.04,
      "d": 3463.231599999999,
      "v": 111
    },
    {
      "midi": 25,
      "hit": false,
      "t": 24705.856,
      "d": 3463.231599999999,
      "v": 111
    },
    {
      "midi": 37,
      "hit": false,
      "t": 24705.856,
      "d": 3463.231599999999,
      "v": 111
    },
    {
      "midi": 85,
      "hit": false,
      "t": 24716.885400000003,
      "d": 3496.319800000001,
      "v": 83
    },
    {
      "midi": 58,
      "hit": false,
      "t": 30735.261333333332,
      "d": 882.351999999999,
      "v": 84
    },
    {
      "midi": 61,
      "hit": false,
      "t": 30808.790666666664,
      "d": 882.351999999999,
      "v": 84
    },
    {
      "midi": 66,
      "hit": false,
      "t": 30882.319999999996,
      "d": 808.8226666666669,
      "v": 84
    },
    {
      "midi": 56,
      "hit": false,
      "t": 31764.671999999995,
      "d": 2205.880000000001,
      "v": 80
    },
    {
      "midi": 61,
      "hit": false,
      "t": 31764.671999999995,
      "d": 2205.880000000001,
      "v": 80
    },
    {
      "midi": 65,
      "hit": false,
      "t": 31764.671999999995,
      "d": 2205.880000000001,
      "v": 84
    },
    {
      "midi": 25,
      "hit": false,
      "t": 31764.671999999995,
      "d": 3382.3493333333354,
      "v": 93
    },
    {
      "midi": 58,
      "hit": false,
      "t": 34264.66933333333,
      "d": 882.351999999999,
      "v": 84
    },
    {
      "midi": 61,
      "hit": false,
      "t": 34338.19866666666,
      "d": 882.351999999999,
      "v": 84
    },
    {
      "midi": 66,
      "hit": false,
      "t": 34411.727999999996,
      "d": 808.8226666666669,
      "v": 84
    },
    {
      "midi": 56,
      "hit": false,
      "t": 35294.079999999994,
      "d": 2205.8799999999974,
      "v": 80
    },
    {
      "midi": 61,
      "hit": false,
      "t": 35294.079999999994,
      "d": 2205.8799999999974,
      "v": 80
    },
    {
      "midi": 65,
      "hit": false,
      "t": 35294.079999999994,
      "d": 2205.8799999999974,
      "v": 84
    },
    {
      "midi": 25,
      "hit": false,
      "t": 35294.079999999994,
      "d": 3382.3493333333317,
      "v": 93
    },
    {
      "midi": 58,
      "hit": false,
      "t": 37794.07733333333,
      "d": 882.351999999999,
      "v": 84
    },
    {
      "midi": 61,
      "hit": false,
      "t": 37867.60666666666,
      "d": 882.351999999999,
      "v": 84
    },
    {
      "midi": 66,
      "hit": false,
      "t": 37941.13599999999,
      "d": 808.8226666666669,
      "v": 84
    },
    {
      "midi": 56,
      "hit": false,
      "t": 38823.48799999999,
      "d": 2205.8799999999974,
      "v": 80
    },
    {
      "midi": 61,
      "hit": false,
      "t": 38823.48799999999,
      "d": 2205.8799999999974,
      "v": 80
    },
    {
      "midi": 65,
      "hit": false,
      "t": 38823.48799999999,
      "d": 2205.8799999999974,
      "v": 84
    },
    {
      "midi": 25,
      "hit": false,
      "t": 38823.48799999999,
      "d": 2647.055999999997,
      "v": 93
    },
    {
      "midi": 58,
      "hit": false,
      "t": 41323.48533333332,
      "d": 882.351999999999,
      "v": 84
    },
    {
      "midi": 61,
      "hit": false,
      "t": 41397.014666666655,
      "d": 882.351999999999,
      "v": 84
    },
    {
      "midi": 66,
      "hit": false,
      "t": 41470.54399999999,
      "d": 808.8226666666669,
      "v": 84
    },
    {
      "midi": 32,
      "hit": false,
      "t": 41470.54399999999,
      "d": 882.351999999999,
      "v": 93
    },
    {
      "midi": 56,
      "hit": false,
      "t": 42352.895999999986,
      "d": 2205.8799999999974,
      "v": 80
    },
    {
      "midi": 61,
      "hit": false,
      "t": 42352.895999999986,
      "d": 2205.8799999999974,
      "v": 80
    },
    {
      "midi": 65,
      "hit": false,
      "t": 42352.895999999986,
      "d": 2205.8799999999974,
      "v": 84
    },
    {
      "midi": 25,
      "hit": false,
      "t": 42352.895999999986,
      "d": 3382.3493333333317,
      "v": 93
    },
    {
      "midi": 58,
      "hit": false,
      "t": 44852.89333333332,
      "d": 882.351999999999,
      "v": 84
    },
    {
      "midi": 61,
      "hit": false,
      "t": 44926.42266666665,
      "d": 882.351999999999,
      "v": 84
    },
    {
      "midi": 66,
      "hit": false,
      "t": 44999.95199999998,
      "d": 808.8226666666669,
      "v": 84
    },
    {
      "midi": 56,
      "hit": false,
      "t": 45882.30399999998,
      "d": 2205.8799999999974,
      "v": 80
    },
    {
      "midi": 61,
      "hit": false,
      "t": 45882.30399999998,
      "d": 2205.8799999999974,
      "v": 80
    },
    {
      "midi": 65,
      "hit": false,
      "t": 45882.30399999998,
      "d": 2205.8799999999974,
      "v": 84
    },
    {
      "midi": 25,
      "hit": false,
      "t": 45882.30399999998,
      "d": 3382.3493333333317,
      "v": 93
    },
    {
      "midi": 58,
      "hit": false,
      "t": 48382.301333333315,
      "d": 882.351999999999,
      "v": 84
    },
    {
      "midi": 61,
      "hit": false,
      "t": 48455.83066666665,
      "d": 882.351999999999,
      "v": 84
    },
    {
      "midi": 66,
      "hit": false,
      "t": 48529.35999999998,
      "d": 808.8226666666669,
      "v": 84
    },
    {
      "midi": 56,
      "hit": false,
      "t": 49411.71199999998,
      "d": 2205.8799999999974,
      "v": 80
    },
    {
      "midi": 61,
      "hit": false,
      "t": 49411.71199999998,
      "d": 2205.8799999999974,
      "v": 80
    },
    {
      "midi": 65,
      "hit": false,
      "t": 49411.71199999998,
      "d": 2205.8799999999974,
      "v": 84
    },
    {
      "midi": 25,
      "hit": false,
      "t": 49411.71199999998,
      "d": 3382.3493333333317,
      "v": 93
    },
    {
      "midi": 58,
      "hit": false,
      "t": 51911.70933333331,
      "d": 882.351999999999,
      "v": 84
    },
    {
      "midi": 61,
      "hit": false,
      "t": 51985.23866666664,
      "d": 882.351999999999,
      "v": 84
    },
    {
      "midi": 66,
      "hit": false,
      "t": 52058.767999999975,
      "d": 808.8226666666669,
      "v": 84
    },
    {
      "midi": 56,
      "hit": false,
      "t": 52941.11999999997,
      "d": 2205.8799999999974,
      "v": 80
    },
    {
      "midi": 61,
      "hit": false,
      "t": 52941.11999999997,
      "d": 2205.8799999999974,
      "v": 80
    },
    {
      "midi": 65,
      "hit": false,
      "t": 52941.11999999997,
      "d": 2205.8799999999974,
      "v": 84
    },
    {
      "midi": 25,
      "hit": false,
      "t": 52941.11999999997,
      "d": 2647.055999999997,
      "v": 93
    },
    {
      "midi": 58,
      "hit": false,
      "t": 55441.117333333306,
      "d": 882.351999999999,
      "v": 84
    },
    {
      "midi": 61,
      "hit": false,
      "t": 55514.64666666664,
      "d": 882.351999999999,
      "v": 84
    },
    {
      "midi": 66,
      "hit": false,
      "t": 55588.17599999997,
      "d": 808.8226666666669,
      "v": 84
    },
    {
      "midi": 32,
      "hit": false,
      "t": 55588.17599999997,
      "d": 882.351999999999,
      "v": 93
    },
    {
      "midi": 56,
      "hit": false,
      "t": 56470.52799999997,
      "d": 1983.453766666673,
      "v": 80
    },
    {
      "midi": 61,
      "hit": false,
      "t": 56470.52799999997,
      "d": 2205.880000000012,
      "v": 80
    },
    {
      "midi": 65,
      "hit": false,
      "t": 56470.52799999997,
      "d": 2205.880000000012,
      "v": 84
    },
    {
      "midi": 25,
      "hit": false,
      "t": 56470.52799999997,
      "d": 2647.0560000000187,
      "v": 93
    },
    {
      "midi": 37,
      "hit": false,
      "t": 57794.05599999997,
      "d": 2205.880000000019,
      "v": 93
    },
    {
      "midi": 44,
      "hit": false,
      "t": 58014.64399999997,
      "d": 1985.2920000000158,
      "v": 93
    },
    {
      "midi": 53,
      "hit": false,
      "t": 58235.231999999975,
      "d": 1764.7040000000125,
      "v": 93
    },
    {
      "midi": 56,
      "hit": false,
      "t": 58455.81999999998,
      "d": 220.58800000000338,
      "v": 86
    },
    {
      "midi": 61,
      "hit": false,
      "t": 58676.40799999998,
      "d": 1323.5280000000057,
      "v": 86
    },
    {
      "midi": 65,
      "hit": false,
      "t": 58896.995999999985,
      "d": 1102.9400000000023,
      "v": 86
    },
    {
      "midi": 56,
      "hit": false,
      "t": 59999.93599999999,
      "d": 816.1756000000023,
      "v": 84
    },
    {
      "midi": 60,
      "hit": false,
      "t": 59999.93599999999,
      "d": 816.1756000000023,
      "v": 80
    },
    {
      "midi": 65,
      "hit": false,
      "t": 59999.93599999999,
      "d": 816.1756000000023,
      "v": 80
    },
    {
      "midi": 41,
      "hit": false,
      "t": 59999.93599999999,
      "d": 882.351999999999,
      "v": 93
    },
    {
      "midi": 58,
      "hit": false,
      "t": 60882.287999999986,
      "d": 816.1756000000023,
      "v": 80
    },
    {
      "midi": 61,
      "hit": false,
      "t": 60882.287999999986,
      "d": 816.1756000000023,
      "v": 84
    },
    {
      "midi": 66,
      "hit": false,
      "t": 60882.287999999986,
      "d": 816.1756000000023,
      "v": 80
    },
    {
      "midi": 42,
      "hit": false,
      "t": 60882.287999999986,
      "d": 882.351999999999,
      "v": 93
    },
    {
      "midi": 56,
      "hit": false,
      "t": 61764.639999999985,
      "d": 661.7640000000101,
      "v": 84
    },
    {
      "midi": 61,
      "hit": false,
      "t": 61764.639999999985,
      "d": 882.3520000000135,
      "v": 80
    },
    {
      "midi": 65,
      "hit": false,
      "t": 61764.639999999985,
      "d": 1102.9400000000169,
      "v": 80
    },
    {
      "midi": 37,
      "hit": false,
      "t": 61764.639999999985,
      "d": 1764.7040000000197,
      "v": 93
    },
    {
      "midi": 44,
      "hit": false,
      "t": 61985.22799999999,
      "d": 1544.1160000000164,
      "v": 93
    },
    {
      "midi": 53,
      "hit": false,
      "t": 62205.81599999999,
      "d": 1323.528000000013,
      "v": 93
    },
    {
      "midi": 56,
      "hit": false,
      "t": 62426.403999999995,
      "d": 1102.9400000000096,
      "v": 86
    },
    {
      "midi": 61,
      "hit": false,
      "t": 62646.992,
      "d": 882.3520000000062,
      "v": 86
    },
    {
      "midi": 65,
      "hit": false,
      "t": 62867.58,
      "d": 661.7640000000029,
      "v": 86
    },
    {
      "midi": 56,
      "hit": false,
      "t": 63529.344000000005,
      "d": 816.1756000000023,
      "v": 80
    },
    {
      "midi": 60,
      "hit": false,
      "t": 63529.344000000005,
      "d": 816.1756000000023,
      "v": 80
    },
    {
      "midi": 65,
      "hit": false,
      "t": 63529.344000000005,
      "d": 816.1756000000023,
      "v": 84
    },
    {
      "midi": 41,
      "hit": false,
      "t": 63529.344000000005,
      "d": 882.351999999999,
      "v": 93
    },
    {
      "midi": 60,
      "hit": false,
      "t": 64411.696,
      "d": 816.1756000000023,
      "v": 80
    },
    {
      "midi": 63,
      "hit": false,
      "t": 64411.696,
      "d": 816.1756000000023,
      "v": 80
    },
    {
      "midi": 66,
      "hit": false,
      "t": 64411.696,
      "d": 816.1756000000023,
      "v": 80
    },
    {
      "midi": 68,
      "hit": false,
      "t": 64411.696,
      "d": 816.1756000000023,
      "v": 80
    },
    {
      "midi": 44,
      "hit": false,
      "t": 64411.696,
      "d": 882.351999999999,
      "v": 93
    },
    {
      "midi": 56,
      "hit": false,
      "t": 65294.048,
      "d": 661.7640000000029,
      "v": 84
    },
    {
      "midi": 61,
      "hit": false,
      "t": 65294.048,
      "d": 882.3520000000062,
      "v": 80
    },
    {
      "midi": 65,
      "hit": false,
      "t": 65294.048,
      "d": 1102.9400000000096,
      "v": 80
    },
    {
      "midi": 37,
      "hit": false,
      "t": 65294.048,
      "d": 1764.7040000000052,
      "v": 93
    },
    {
      "midi": 44,
      "hit": false,
      "t": 65514.636000000006,
      "d": 1544.1160000000018,
      "v": 93
    },
    {
      "midi": 53,
      "hit": false,
      "t": 65735.224,
      "d": 1323.5280000000057,
      "v": 93
    },
    {
      "midi": 56,
      "hit": false,
      "t": 65955.812,
      "d": 1102.9400000000023,
      "v": 86
    },
    {
      "midi": 61,
      "hit": false,
      "t": 66176.40000000001,
      "d": 882.351999999999,
      "v": 86
    },
    {
      "midi": 65,
      "hit": false,
      "t": 66396.98800000001,
      "d": 661.7639999999956,
      "v": 86
    },
    {
      "midi": 56,
      "hit": false,
      "t": 67058.75200000001,
      "d": 816.1756000000023,
      "v": 80
    },
    {
      "midi": 60,
      "hit": false,
      "t": 67058.75200000001,
      "d": 816.1756000000023,
      "v": 80
    },
    {
      "midi": 65,
      "hit": false,
      "t": 67058.75200000001,
      "d": 816.1756000000023,
      "v": 84
    },
    {
      "midi": 41,
      "hit": false,
      "t": 67058.75200000001,
      "d": 882.351999999999,
      "v": 93
    },
    {
      "midi": 53,
      "hit": false,
      "t": 67499.92800000001,
      "d": 441.1759999999922,
      "v": 93
    },
    {
      "midi": 58,
      "hit": false,
      "t": 67941.104,
      "d": 816.1756000000023,
      "v": 84
    },
    {
      "midi": 61,
      "hit": false,
      "t": 67941.104,
      "d": 816.1756000000023,
      "v": 80
    },
    {
      "midi": 66,
      "hit": false,
      "t": 67941.104,
      "d": 816.1756000000023,
      "v": 80
    },
    {
      "midi": 42,
      "hit": false,
      "t": 67941.104,
      "d": 882.351999999999,
      "v": 93
    },
    {
      "midi": 54,
      "hit": false,
      "t": 68382.28000000001,
      "d": 441.1759999999922,
      "v": 93
    },
    {
      "midi": 56,
      "hit": false,
      "t": 68823.456,
      "d": 661.7640000000101,
      "v": 84
    },
    {
      "midi": 61,
      "hit": false,
      "t": 68823.456,
      "d": 816.1756000000169,
      "v": 84
    },
    {
      "midi": 65,
      "hit": false,
      "t": 68823.456,
      "d": 816.1756000000169,
      "v": 84
    },
    {
      "midi": 37,
      "hit": false,
      "t": 68823.456,
      "d": 882.3520000000135,
      "v": 93
    },
    {
      "midi": 44,
      "hit": false,
      "t": 69044.04400000001,
      "d": 661.7640000000101,
      "v": 93
    },
    {
      "midi": 53,
      "hit": false,
      "t": 69264.63200000001,
      "d": 441.17600000000675,
      "v": 93
    },
    {
      "midi": 56,
      "hit": false,
      "t": 69485.22000000002,
      "d": 220.58800000000338,
      "v": 86
    },
    {
      "midi": 58,
      "hit": false,
      "t": 69705.80800000002,
      "d": 816.1756000000023,
      "v": 84
    },
    {
      "midi": 61,
      "hit": false,
      "t": 69705.80800000002,
      "d": 816.1756000000023,
      "v": 84
    },
    {
      "midi": 66,
      "hit": false,
      "t": 69705.80800000002,
      "d": 816.1756000000023,
      "v": 80
    },
    {
      "midi": 42,
      "hit": false,
      "t": 69705.80800000002,
      "d": 882.351999999999,
      "v": 93
    },
    {
      "midi": 54,
      "hit": false,
      "t": 70146.98400000003,
      "d": 441.1759999999922,
      "v": 93
    },
    {
      "midi": 56,
      "hit": false,
      "t": 70588.16000000002,
      "d": 1323.5280000000057,
      "v": 84
    },
    {
      "midi": 61,
      "hit": false,
      "t": 70588.16000000002,
      "d": 1544.116000000009,
      "v": 80
    },
    {
      "midi": 65,
      "hit": false,
      "t": 70588.16000000002,
      "d": 1764.7040000000125,
      "v": 84
    },
    {
      "midi": 25,
      "hit": false,
      "t": 70588.16000000002,
      "d": 2647.0560000000114,
      "v": 93
    },
    {
      "midi": 37,
      "hit": false,
      "t": 71249.92400000001,
      "d": 2205.880000000019,
      "v": 93
    },
    {
      "midi": 44,
      "hit": false,
      "t": 71470.51200000002,
      "d": 1985.2920000000158,
      "v": 93
    },
    {
      "midi": 53,
      "hit": false,
      "t": 71691.10000000002,
      "d": 1764.7040000000125,
      "v": 93
    },
    {
      "midi": 56,
      "hit": false,
      "t": 71911.68800000002,
      "d": 1544.116000000009,
      "v": 86
    },
    {
      "midi": 61,
      "hit": false,
      "t": 72132.27600000003,
      "d": 1323.5280000000057,
      "v": 86
    },
    {
      "midi": 65,
      "hit": false,
      "t": 72352.86400000003,
      "d": 1102.9400000000023,
      "v": 86
    },
    {
      "midi": 56,
      "hit": false,
      "t": 74117.56800000003,
      "d": 816.1756000000023,
      "v": 84
    },
    {
      "midi": 60,
      "hit": false,
      "t": 74117.56800000003,
      "d": 816.1756000000023,
      "v": 80
    },
    {
      "midi": 65,
      "hit": false,
      "t": 74117.56800000003,
      "d": 816.1756000000023,
      "v": 80
    },
    {
      "midi": 41,
      "hit": false,
      "t": 74117.56800000003,
      "d": 882.351999999999,
      "v": 93
    },
    {
      "midi": 58,
      "hit": false,
      "t": 74999.92000000003,
      "d": 816.1756000000023,
      "v": 80
    },
    {
      "midi": 61,
      "hit": false,
      "t": 74999.92000000003,
      "d": 816.1756000000023,
      "v": 84
    },
    {
      "midi": 66,
      "hit": false,
      "t": 74999.92000000003,
      "d": 816.1756000000023,
      "v": 80
    },
    {
      "midi": 42,
      "hit": false,
      "t": 74999.92000000003,
      "d": 882.351999999999,
      "v": 93
    },
    {
      "midi": 56,
      "hit": false,
      "t": 75882.27200000003,
      "d": 661.7640000000101,
      "v": 84
    },
    {
      "midi": 61,
      "hit": false,
      "t": 75882.27200000003,
      "d": 882.3520000000135,
      "v": 80
    },
    {
      "midi": 65,
      "hit": false,
      "t": 75882.27200000003,
      "d": 1102.9400000000169,
      "v": 80
    },
    {
      "midi": 37,
      "hit": false,
      "t": 75882.27200000003,
      "d": 1764.7040000000125,
      "v": 93
    },
    {
      "midi": 44,
      "hit": false,
      "t": 76102.86000000003,
      "d": 1544.116000000009,
      "v": 93
    },
    {
      "midi": 53,
      "hit": false,
      "t": 76323.44800000003,
      "d": 1323.5280000000057,
      "v": 93
    },
    {
      "midi": 56,
      "hit": false,
      "t": 76544.03600000004,
      "d": 1102.9400000000023,
      "v": 86
    },
    {
      "midi": 61,
      "hit": false,
      "t": 76764.62400000004,
      "d": 882.351999999999,
      "v": 86
    },
    {
      "midi": 65,
      "hit": false,
      "t": 76985.21200000004,
      "d": 661.7639999999956,
      "v": 86
    },
    {
      "midi": 56,
      "hit": false,
      "t": 77646.97600000004,
      "d": 816.1756000000023,
      "v": 80
    },
    {
      "midi": 60,
      "hit": false,
      "t": 77646.97600000004,
      "d": 816.1756000000023,
      "v": 80
    },
    {
      "midi": 65,
      "hit": false,
      "t": 77646.97600000004,
      "d": 816.1756000000023,
      "v": 84
    },
    {
      "midi": 41,
      "hit": false,
      "t": 77646.97600000004,
      "d": 882.351999999999,
      "v": 93
    },
    {
      "midi": 60,
      "hit": false,
      "t": 78529.32800000004,
      "d": 816.1756000000023,
      "v": 80
    },
    {
      "midi": 63,
      "hit": false,
      "t": 78529.32800000004,
      "d": 816.1756000000023,
      "v": 80
    },
    {
      "midi": 68,
      "hit": false,
      "t": 78529.32800000004,
      "d": 816.1756000000023,
      "v": 80
    },
    {
      "midi": 44,
      "hit": false,
      "t": 78529.32800000004,
      "d": 882.351999999999,
      "v": 93
    },
    {
      "midi": 56,
      "hit": false,
      "t": 79411.68000000004,
      "d": 661.7640000000101,
      "v": 84
    },
    {
      "midi": 61,
      "hit": false,
      "t": 79411.68000000004,
      "d": 882.3520000000135,
      "v": 80
    },
    {
      "midi": 65,
      "hit": false,
      "t": 79411.68000000004,
      "d": 1102.9400000000169,
      "v": 80
    },
    {
      "midi": 37,
      "hit": false,
      "t": 79411.68000000004,
      "d": 1764.704000000027,
      "v": 93
    },
    {
      "midi": 44,
      "hit": false,
      "t": 79632.26800000004,
      "d": 1544.1160000000236,
      "v": 93
    },
    {
      "midi": 53,
      "hit": false,
      "t": 79852.85600000004,
      "d": 1323.5280000000203,
      "v": 93
    },
    {
      "midi": 56,
      "hit": false,
      "t": 80073.44400000005,
      "d": 1102.9400000000169,
      "v": 86
    },
    {
      "midi": 61,
      "hit": false,
      "t": 80294.03200000005,
      "d": 882.3520000000135,
      "v": 86
    },
    {
      "midi": 65,
      "hit": false,
      "t": 80588.1493333334,
      "d": 588.2346666666708,
      "v": 93
    },
    {
      "midi": 56,
      "hit": false,
      "t": 81176.38400000006,
      "d": 816.1756000000023,
      "v": 80
    },
    {
      "midi": 60,
      "hit": false,
      "t": 81176.38400000006,
      "d": 816.1756000000023,
      "v": 80
    },
    {
      "midi": 65,
      "hit": false,
      "t": 81176.38400000006,
      "d": 816.1756000000023,
      "v": 84
    },
    {
      "midi": 41,
      "hit": false,
      "t": 81176.38400000006,
      "d": 882.351999999999,
      "v": 93
    },
    {
      "midi": 53,
      "hit": false,
      "t": 81617.56000000007,
      "d": 441.1759999999922,
      "v": 93
    },
    {
      "midi": 58,
      "hit": false,
      "t": 82058.73600000006,
      "d": 816.1756000000023,
      "v": 84
    },
    {
      "midi": 61,
      "hit": false,
      "t": 82058.73600000006,
      "d": 816.1756000000023,
      "v": 80
    },
    {
      "midi": 66,
      "hit": false,
      "t": 82058.73600000006,
      "d": 816.1756000000023,
      "v": 80
    },
    {
      "midi": 42,
      "hit": false,
      "t": 82058.73600000006,
      "d": 882.351999999999,
      "v": 93
    },
    {
      "midi": 54,
      "hit": false,
      "t": 82499.91200000007,
      "d": 441.1759999999922,
      "v": 93
    },
    {
      "midi": 56,
      "hit": false,
      "t": 82941.08800000006,
      "d": 661.7640000000101,
      "v": 84
    },
    {
      "midi": 61,
      "hit": false,
      "t": 82941.08800000006,
      "d": 816.1756000000169,
      "v": 84
    },
    {
      "midi": 65,
      "hit": false,
      "t": 82941.08800000006,
      "d": 816.1756000000169,
      "v": 84
    },
    {
      "midi": 37,
      "hit": false,
      "t": 82941.08800000006,
      "d": 882.3520000000135,
      "v": 93
    },
    {
      "midi": 44,
      "hit": false,
      "t": 83161.67600000006,
      "d": 661.7640000000101,
      "v": 93
    },
    {
      "midi": 53,
      "hit": false,
      "t": 83382.26400000007,
      "d": 441.17600000000675,
      "v": 93
    },
    {
      "midi": 56,
      "hit": false,
      "t": 83602.85200000007,
      "d": 220.58800000000338,
      "v": 86
    },
    {
      "midi": 60,
      "hit": false,
      "t": 83823.44000000008,
      "d": 816.1756000000023,
      "v": 80
    },
    {
      "midi": 63,
      "hit": false,
      "t": 83823.44000000008,
      "d": 816.1756000000023,
      "v": 80
    },
    {
      "midi": 66,
      "hit": false,
      "t": 83823.44000000008,
      "d": 816.1756000000023,
      "v": 80
    },
    {
      "midi": 68,
      "hit": false,
      "t": 83823.44000000008,
      "d": 816.1756000000023,
      "v": 80
    },
    {
      "midi": 44,
      "hit": false,
      "t": 83823.44000000008,
      "d": 882.351999999999,
      "v": 93
    },
    {
      "midi": 54,
      "hit": false,
      "t": 84264.61600000008,
      "d": 441.1759999999922,
      "v": 93
    },
    {
      "midi": 56,
      "hit": false,
      "t": 84705.79200000007,
      "d": 1323.5280000000057,
      "v": 84
    },
    {
      "midi": 61,
      "hit": false,
      "t": 84705.79200000007,
      "d": 1544.116000000009,
      "v": 80
    },
    {
      "midi": 65,
      "hit": false,
      "t": 84705.79200000007,
      "d": 1764.7040000000125,
      "v": 84
    },
    {
      "midi": 25,
      "hit": false,
      "t": 84705.79200000007,
      "d": 2647.0560000000114,
      "v": 93
    },
    {
      "midi": 37,
      "hit": false,
      "t": 85367.55600000007,
      "d": 2205.880000000019,
      "v": 93
    },
    {
      "midi": 44,
      "hit": false,
      "t": 85588.14400000007,
      "d": 1985.2920000000158,
      "v": 93
    },
    {
      "midi": 53,
      "hit": false,
      "t": 85808.73200000008,
      "d": 1764.7040000000125,
      "v": 93
    },
    {
      "midi": 56,
      "hit": false,
      "t": 86029.32000000008,
      "d": 1544.116000000009,
      "v": 86
    },
    {
      "midi": 61,
      "hit": false,
      "t": 86249.90800000008,
      "d": 1323.5280000000057,
      "v": 86
    },
    {
      "midi": 65,
      "hit": false,
      "t": 86470.49600000009,
      "d": 1102.9400000000023,
      "v": 86
    },
    {
      "midi": 97,
      "hit": false,
      "t": 86911.67200000002,
      "d": 84.5587333333242,
      "v": 65
    },
    {
      "midi": 94,
      "hit": false,
      "t": 86939.24550000002,
      "d": 84.5587333333242,
      "v": 65
    },
    {
      "midi": 92,
      "hit": false,
      "t": 86952.11313333335,
      "d": 69.85286666666798,
      "v": 54
    },
    {
      "midi": 90,
      "hit": false,
      "t": 86990.71603333334,
      "d": 73.52933333333931,
      "v": 62
    },
    {
      "midi": 87,
      "hit": false,
      "t": 87038.51010000001,
      "d": 104.77930000000924,
      "v": 54
    },
    {
      "midi": 85,
      "hit": false,
      "t": 87101.01003333335,
      "d": 102.9410666666663,
      "v": 42
    },
    {
      "midi": 82,
      "hit": false,
      "t": 87163.5099666667,
      "d": 117.64693333332252,
      "v": 41
    },
    {
      "midi": 80,
      "hit": false,
      "t": 87246.23046666669,
      "d": 77.20579999999609,
      "v": 40
    },
    {
      "midi": 78,
      "hit": false,
      "t": 87273.80396666669,
      "d": 91.91166666666686,
      "v": 54
    },
    {
      "midi": 75,
      "hit": false,
      "t": 87323.43626666669,
      "d": 108.45576666666602,
      "v": 62
    },
    {
      "midi": 73,
      "hit": false,
      "t": 87373.06856666668,
      "d": 101.10283333333791,
      "v": 70
    },
    {
      "midi": 70,
      "hit": false,
      "t": 87428.21556666668,
      "d": 121.3234000000084,
      "v": 58
    },
    {
      "midi": 68,
      "hit": false,
      "t": 87488.87726666669,
      "d": 27.573499999998603,
      "v": 50
    },
    {
      "midi": 68,
      "hit": false,
      "t": 87578.95070000002,
      "d": 25.735266666670213,
      "v": 26
    },
    {
      "midi": 66,
      "hit": false,
      "t": 87613.87713333336,
      "d": 36.764666666669655,
      "v": 26
    },
    {
      "midi": 63,
      "hit": false,
      "t": 87689.24470000002,
      "d": 33.088199999998324,
      "v": 26
    },
    {
      "midi": 25,
      "hit": false,
      "t": 88235.20000000008,
      "d": 3382.3493333333317,
      "v": 93
    },
    {
      "midi": 92,
      "hit": false,
      "t": 89999.90400000001,
      "d": 816.1756000000023,
      "v": 83
    },
    {
      "midi": 104,
      "hit": false,
      "t": 90055.051,
      "d": 816.1756000000023,
      "v": 83
    },
    {
      "midi": 94,
      "hit": false,
      "t": 90882.25600000001,
      "d": 816.1756000000023,
      "v": 83
    },
    {
      "midi": 106,
      "hit": false,
      "t": 90937.403,
      "d": 816.1756000000023,
      "v": 83
    },
    {
      "midi": 92,
      "hit": false,
      "t": 91764.60800000001,
      "d": 816.1756000000023,
      "v": 83
    },
    {
      "midi": 25,
      "hit": false,
      "t": 91764.60800000008,
      "d": 3382.3493333333317,
      "v": 93
    },
    {
      "midi": 104,
      "hit": false,
      "t": 91819.755,
      "d": 816.1756000000023,
      "v": 83
    },
    {
      "midi": 89,
      "hit": false,
      "t": 92646.96,
      "d": 816.1756000000023,
      "v": 83
    },
    {
      "midi": 101,
      "hit": false,
      "t": 92702.107,
      "d": 816.1756000000023,
      "v": 83
    },
    {
      "midi": 85,
      "hit": false,
      "t": 93529.312,
      "d": 1698.5276000000013,
      "v": 83
    },
    {
      "midi": 97,
      "hit": false,
      "t": 93584.459,
      "d": 1698.5276000000013,
      "v": 83
    },
    {
      "midi": 80,
      "hit": false,
      "t": 95294.016,
      "d": 2647.055999999997,
      "v": 83
    },
    {
      "midi": 25,
      "hit": false,
      "t": 95294.01600000008,
      "d": 2647.055999999997,
      "v": 93
    },
    {
      "midi": 92,
      "hit": false,
      "t": 95349.163,
      "d": 2647.055999999997,
      "v": 83
    },
    {
      "midi": 80,
      "hit": false,
      "t": 97941.072,
      "d": 2647.055999999997,
      "v": 83
    },
    {
      "midi": 32,
      "hit": false,
      "t": 97941.07200000007,
      "d": 882.351999999999,
      "v": 93
    },
    {
      "midi": 92,
      "hit": false,
      "t": 97996.219,
      "d": 2647.055999999997,
      "v": 83
    },
    {
      "midi": 25,
      "hit": false,
      "t": 98823.42400000007,
      "d": 3382.3493333333317,
      "v": 93
    },
    {
      "midi": 77,
      "hit": false,
      "t": 99705.776,
      "d": 816.1756000000023,
      "v": 83
    },
    {
      "midi": 89,
      "hit": false,
      "t": 99760.923,
      "d": 816.1756000000023,
      "v": 83
    },
    {
      "midi": 97,
      "hit": false,
      "t": 101029.30399999999,
      "d": 84.5587333333242,
      "v": 65
    },
    {
      "midi": 94,
      "hit": false,
      "t": 101056.87749999999,
      "d": 84.5587333333242,
      "v": 65
    },
    {
      "midi": 92,
      "hit": false,
      "t": 101069.74513333332,
      "d": 69.85286666666798,
      "v": 54
    },
    {
      "midi": 90,
      "hit": false,
      "t": 101108.34803333331,
      "d": 73.52933333333931,
      "v": 62
    },
    {
      "midi": 87,
      "hit": false,
      "t": 101156.14209999998,
      "d": 104.77930000000924,
      "v": 54
    },
    {
      "midi": 85,
      "hit": false,
      "t": 101218.64203333332,
      "d": 102.9410666666663,
      "v": 42
    },
    {
      "midi": 82,
      "hit": false,
      "t": 101281.14196666666,
      "d": 117.64693333332252,
      "v": 41
    },
    {
      "midi": 80,
      "hit": false,
      "t": 101363.86246666666,
      "d": 77.20579999999609,
      "v": 40
    },
    {
      "midi": 78,
      "hit": false,
      "t": 101391.43596666666,
      "d": 91.91166666666686,
      "v": 54
    },
    {
      "midi": 75,
      "hit": false,
      "t": 101441.06826666665,
      "d": 108.45576666666602,
      "v": 62
    },
    {
      "midi": 73,
      "hit": false,
      "t": 101490.70056666665,
      "d": 101.10283333333791,
      "v": 70
    },
    {
      "midi": 70,
      "hit": false,
      "t": 101545.84756666665,
      "d": 121.3234000000084,
      "v": 58
    },
    {
      "midi": 68,
      "hit": false,
      "t": 101606.50926666666,
      "d": 27.573499999998603,
      "v": 50
    },
    {
      "midi": 68,
      "hit": false,
      "t": 101696.58269999998,
      "d": 25.735266666670213,
      "v": 26
    },
    {
      "midi": 66,
      "hit": false,
      "t": 101731.50913333333,
      "d": 36.764666666669655,
      "v": 26
    },
    {
      "midi": 63,
      "hit": false,
      "t": 101806.8767,
      "d": 33.088199999998324,
      "v": 26
    },
    {
      "midi": 92,
      "hit": false,
      "t": 102352.83199999998,
      "d": 816.1756000000023,
      "v": 83
    },
    {
      "midi": 25,
      "hit": false,
      "t": 102352.83200000007,
      "d": 3382.3493333333317,
      "v": 93
    },
    {
      "midi": 89,
      "hit": false,
      "t": 103235.18399999998,
      "d": 816.1756000000023,
      "v": 83
    },
    {
      "midi": 85,
      "hit": false,
      "t": 104117.53599999998,
      "d": 816.1756000000023,
      "v": 83
    },
    {
      "midi": 82,
      "hit": false,
      "t": 104999.88799999998,
      "d": 816.1756000000023,
      "v": 83
    },
    {
      "midi": 80,
      "hit": false,
      "t": 105882.23999999998,
      "d": 816.1756000000023,
      "v": 83
    },
    {
      "midi": 25,
      "hit": false,
      "t": 105882.24000000006,
      "d": 3382.3493333333317,
      "v": 93
    },
    {
      "midi": 89,
      "hit": false,
      "t": 106764.59199999998,
      "d": 816.1756000000023,
      "v": 83
    },
    {
      "midi": 85,
      "hit": false,
      "t": 107646.94399999997,
      "d": 816.1756000000023,
      "v": 83
    },
    {
      "midi": 90,
      "hit": false,
      "t": 108529.29599999997,
      "d": 816.1756000000023,
      "v": 83
    },
    {
      "midi": 92,
      "hit": false,
      "t": 109411.64799999997,
      "d": 816.1756000000023,
      "v": 83
    },
    {
      "midi": 25,
      "hit": false,
      "t": 109411.64800000006,
      "d": 2647.055999999997,
      "v": 93
    },
    {
      "midi": 85,
      "hit": false,
      "t": 110293.99999999997,
      "d": 816.1756000000023,
      "v": 83
    },
    {
      "midi": 92,
      "hit": false,
      "t": 112058.70399999997,
      "d": 816.1756000000023,
      "v": 83
    },
    {
      "midi": 32,
      "hit": false,
      "t": 112058.70400000006,
      "d": 882.351999999999,
      "v": 93
    },
    {
      "midi": 97,
      "hit": false,
      "t": 112941.05599999997,
      "d": 3529.407999999996,
      "v": 83
    },
    {
      "midi": 25,
      "hit": false,
      "t": 112941.05600000006,
      "d": 2647.056000000026,
      "v": 93
    },
    {
      "midi": 37,
      "hit": false,
      "t": 114264.58400000006,
      "d": 2205.880000000019,
      "v": 93
    },
    {
      "midi": 44,
      "hit": false,
      "t": 114485.17200000006,
      "d": 1985.2920000000158,
      "v": 93
    },
    {
      "midi": 53,
      "hit": false,
      "t": 114705.76000000007,
      "d": 1764.7040000000125,
      "v": 93
    },
    {
      "midi": 56,
      "hit": false,
      "t": 114926.34800000007,
      "d": 1544.116000000009,
      "v": 86
    },
    {
      "midi": 61,
      "hit": false,
      "t": 115146.93600000007,
      "d": 1323.5280000000057,
      "v": 86
    },
    {
      "midi": 65,
      "hit": false,
      "t": 115367.52400000008,
      "d": 1102.9400000000023,
      "v": 86
    },
    {
      "midi": 56,
      "hit": false,
      "t": 116470.46400000008,
      "d": 816.1756000000023,
      "v": 84
    },
    {
      "midi": 60,
      "hit": false,
      "t": 116470.46400000008,
      "d": 816.1756000000023,
      "v": 80
    },
    {
      "midi": 65,
      "hit": false,
      "t": 116470.46400000008,
      "d": 816.1756000000023,
      "v": 80
    },
    {
      "midi": 41,
      "hit": false,
      "t": 116470.46400000008,
      "d": 882.351999999999,
      "v": 93
    },
    {
      "midi": 58,
      "hit": false,
      "t": 117352.81600000008,
      "d": 816.1756000000023,
      "v": 80
    },
    {
      "midi": 61,
      "hit": false,
      "t": 117352.81600000008,
      "d": 816.1756000000023,
      "v": 84
    },
    {
      "midi": 66,
      "hit": false,
      "t": 117352.81600000008,
      "d": 816.1756000000023,
      "v": 80
    },
    {
      "midi": 42,
      "hit": false,
      "t": 117352.81600000008,
      "d": 882.351999999999,
      "v": 93
    },
    {
      "midi": 56,
      "hit": false,
      "t": 118235.16800000008,
      "d": 661.7640000000101,
      "v": 84
    },
    {
      "midi": 61,
      "hit": false,
      "t": 118235.16800000008,
      "d": 882.3520000000135,
      "v": 80
    },
    {
      "midi": 65,
      "hit": false,
      "t": 118235.16800000008,
      "d": 1102.9400000000169,
      "v": 80
    },
    {
      "midi": 37,
      "hit": false,
      "t": 118235.16800000008,
      "d": 1764.7040000000125,
      "v": 93
    },
    {
      "midi": 44,
      "hit": false,
      "t": 118455.75600000008,
      "d": 1544.116000000009,
      "v": 93
    },
    {
      "midi": 53,
      "hit": false,
      "t": 118676.34400000008,
      "d": 1323.5280000000057,
      "v": 93
    },
    {
      "midi": 56,
      "hit": false,
      "t": 118896.93200000009,
      "d": 1102.9400000000023,
      "v": 86
    },
    {
      "midi": 61,
      "hit": false,
      "t": 119117.52000000009,
      "d": 882.351999999999,
      "v": 86
    },
    {
      "midi": 65,
      "hit": false,
      "t": 119338.1080000001,
      "d": 661.7639999999956,
      "v": 86
    },
    {
      "midi": 92,
      "hit": false,
      "t": 119999.87199999996,
      "d": 777.5727000000043,
      "v": 101
    },
    {
      "midi": 56,
      "hit": false,
      "t": 119999.87200000009,
      "d": 816.1756000000023,
      "v": 80
    },
    {
      "midi": 60,
      "hit": false,
      "t": 119999.87200000009,
      "d": 816.1756000000023,
      "v": 80
    },
    {
      "midi": 65,
      "hit": false,
      "t": 119999.87200000009,
      "d": 816.1756000000023,
      "v": 84
    },
    {
      "midi": 41,
      "hit": false,
      "t": 119999.87200000009,
      "d": 882.351999999999,
      "v": 93
    },
    {
      "midi": 92,
      "hit": false,
      "t": 120882.22399999996,
      "d": 781.249166666661,
      "v": 92
    },
    {
      "midi": 60,
      "hit": false,
      "t": 120882.22400000009,
      "d": 816.1756000000023,
      "v": 80
    },
    {
      "midi": 63,
      "hit": false,
      "t": 120882.22400000009,
      "d": 816.1756000000023,
      "v": 80
    },
    {
      "midi": 66,
      "hit": false,
      "t": 120882.22400000009,
      "d": 816.1756000000023,
      "v": 80
    },
    {
      "midi": 68,
      "hit": false,
      "t": 120882.22400000009,
      "d": 816.1756000000023,
      "v": 80
    },
    {
      "midi": 44,
      "hit": false,
      "t": 120882.22400000009,
      "d": 882.351999999999,
      "v": 93
    },
    {
      "midi": 85,
      "hit": false,
      "t": 121764.57599999996,
      "d": 439.3377666666638,
      "v": 83
    },
    {
      "midi": 89,
      "hit": false,
      "t": 121764.57599999996,
      "d": 1542.2777666666661,
      "v": 74
    },
    {
      "midi": 92,
      "hit": false,
      "t": 121764.57599999996,
      "d": 1645.2188333333324,
      "v": 83
    },
    {
      "midi": 56,
      "hit": false,
      "t": 121764.57600000009,
      "d": 661.7640000000101,
      "v": 84
    },
    {
      "midi": 61,
      "hit": false,
      "t": 121764.57600000009,
      "d": 882.3520000000135,
      "v": 80
    },
    {
      "midi": 65,
      "hit": false,
      "t": 121764.57600000009,
      "d": 1102.9400000000169,
      "v": 84
    },
    {
      "midi": 37,
      "hit": false,
      "t": 121764.57600000009,
      "d": 1764.7040000000125,
      "v": 93
    },
    {
      "midi": 44,
      "hit": false,
      "t": 121985.16400000009,
      "d": 1544.116000000009,
      "v": 93
    },
    {
      "midi": 85,
      "hit": false,
      "t": 122205.75199999995,
      "d": 332.7202333333262,
      "v": 83
    },
    {
      "midi": 53,
      "hit": false,
      "t": 122205.7520000001,
      "d": 1323.5280000000057,
      "v": 93
    },
    {
      "midi": 56,
      "hit": false,
      "t": 122426.3400000001,
      "d": 1102.9400000000023,
      "v": 86
    },
    {
      "midi": 85,
      "hit": false,
      "t": 122646.92799999994,
      "d": 321.6908333333413,
      "v": 83
    },
    {
      "midi": 61,
      "hit": false,
      "t": 122646.9280000001,
      "d": 882.351999999999,
      "v": 86
    },
    {
      "midi": 87,
      "hit": false,
      "t": 122867.51599999995,
      "d": 284.92616666667163,
      "v": 74
    },
    {
      "midi": 65,
      "hit": false,
      "t": 122867.5160000001,
      "d": 661.7639999999956,
      "v": 86
    },
    {
      "midi": 89,
      "hit": false,
      "t": 123308.69199999995,
      "d": 91.91166666666686,
      "v": 74
    },
    {
      "midi": 92,
      "hit": false,
      "t": 123529.27999999996,
      "d": 902.5725666666694,
      "v": 92
    },
    {
      "midi": 56,
      "hit": false,
      "t": 123529.2800000001,
      "d": 816.1756000000023,
      "v": 80
    },
    {
      "midi": 60,
      "hit": false,
      "t": 123529.2800000001,
      "d": 816.1756000000023,
      "v": 80
    },
    {
      "midi": 65,
      "hit": false,
      "t": 123529.2800000001,
      "d": 816.1756000000023,
      "v": 84
    },
    {
      "midi": 41,
      "hit": false,
      "t": 123529.2800000001,
      "d": 882.351999999999,
      "v": 93
    },
    {
      "midi": 53,
      "hit": false,
      "t": 123970.45600000011,
      "d": 441.1759999999922,
      "v": 93
    },
    {
      "midi": 94,
      "hit": false,
      "t": 124411.63199999995,
      "d": 812.499133333331,
      "v": 83
    },
    {
      "midi": 58,
      "hit": false,
      "t": 124411.6320000001,
      "d": 816.1756000000023,
      "v": 84
    },
    {
      "midi": 61,
      "hit": false,
      "t": 124411.6320000001,
      "d": 816.1756000000023,
      "v": 80
    },
    {
      "midi": 66,
      "hit": false,
      "t": 124411.6320000001,
      "d": 816.1756000000023,
      "v": 80
    },
    {
      "midi": 42,
      "hit": false,
      "t": 124411.6320000001,
      "d": 882.351999999999,
      "v": 93
    },
    {
      "midi": 54,
      "hit": false,
      "t": 124852.8080000001,
      "d": 441.1759999999922,
      "v": 93
    },
    {
      "midi": 92,
      "hit": false,
      "t": 125293.98399999995,
      "d": 803.3079666666599,
      "v": 92
    },
    {
      "midi": 56,
      "hit": false,
      "t": 125293.9840000001,
      "d": 661.7640000000101,
      "v": 84
    },
    {
      "midi": 61,
      "hit": false,
      "t": 125293.9840000001,
      "d": 816.1756000000169,
      "v": 84
    },
    {
      "midi": 65,
      "hit": false,
      "t": 125293.9840000001,
      "d": 816.1756000000169,
      "v": 84
    },
    {
      "midi": 37,
      "hit": false,
      "t": 125293.9840000001,
      "d": 882.3520000000135,
      "v": 93
    },
    {
      "midi": 44,
      "hit": false,
      "t": 125514.5720000001,
      "d": 661.7640000000101,
      "v": 93
    },
    {
      "midi": 53,
      "hit": false,
      "t": 125735.1600000001,
      "d": 441.17600000000675,
      "v": 93
    },
    {
      "midi": 56,
      "hit": false,
      "t": 125955.74800000011,
      "d": 220.58800000000338,
      "v": 86
    },
    {
      "midi": 92,
      "hit": false,
      "t": 126176.33599999995,
      "d": 834.5579333333299,
      "v": 101
    },
    {
      "midi": 58,
      "hit": false,
      "t": 126176.33600000011,
      "d": 816.1756000000023,
      "v": 84
    },
    {
      "midi": 61,
      "hit": false,
      "t": 126176.33600000011,
      "d": 816.1756000000023,
      "v": 84
    },
    {
      "midi": 66,
      "hit": false,
      "t": 126176.33600000011,
      "d": 816.1756000000023,
      "v": 80
    },
    {
      "midi": 44,
      "hit": false,
      "t": 126176.33600000011,
      "d": 882.351999999999,
      "v": 93
    },
    {
      "midi": 54,
      "hit": false,
      "t": 126617.51200000012,
      "d": 441.1759999999922,
      "v": 93
    },
    {
      "midi": 92,
      "hit": false,
      "t": 127058.68799999995,
      "d": 2167.2771000000066,
      "v": 83
    },
    {
      "midi": 85,
      "hit": false,
      "t": 127058.68799999995,
      "d": 2174.6300333333347,
      "v": 83
    },
    {
      "midi": 89,
      "hit": false,
      "t": 127058.68799999995,
      "d": 2178.306500000006,
      "v": 83
    },
    {
      "midi": 56,
      "hit": false,
      "t": 127058.68800000011,
      "d": 1323.5280000000057,
      "v": 84
    },
    {
      "midi": 61,
      "hit": false,
      "t": 127058.68800000011,
      "d": 1544.116000000009,
      "v": 80
    },
    {
      "midi": 65,
      "hit": false,
      "t": 127058.68800000011,
      "d": 1764.7040000000125,
      "v": 84
    },
    {
      "midi": 25,
      "hit": false,
      "t": 127058.68800000011,
      "d": 2647.0560000000114,
      "v": 93
    },
    {
      "midi": 37,
      "hit": false,
      "t": 127720.4520000001,
      "d": 2205.880000000019,
      "v": 93
    },
    {
      "midi": 44,
      "hit": false,
      "t": 127941.04000000011,
      "d": 1985.2920000000158,
      "v": 93
    },
    {
      "midi": 53,
      "hit": false,
      "t": 128161.62800000011,
      "d": 1764.7040000000125,
      "v": 93
    },
    {
      "midi": 56,
      "hit": false,
      "t": 128382.21600000012,
      "d": 1544.116000000009,
      "v": 86
    },
    {
      "midi": 61,
      "hit": false,
      "t": 128602.80400000012,
      "d": 1323.5280000000057,
      "v": 86
    },
    {
      "midi": 65,
      "hit": false,
      "t": 128823.39200000012,
      "d": 1102.9400000000023,
      "v": 86
    },
    {
      "midi": 92,
      "hit": false,
      "t": 130588.09599999996,
      "d": 854.7784999999858,
      "v": 83
    },
    {
      "midi": 56,
      "hit": false,
      "t": 130588.09600000012,
      "d": 816.1756000000023,
      "v": 84
    },
    {
      "midi": 60,
      "hit": false,
      "t": 130588.09600000012,
      "d": 816.1756000000023,
      "v": 80
    },
    {
      "midi": 65,
      "hit": false,
      "t": 130588.09600000012,
      "d": 816.1756000000023,
      "v": 80
    },
    {
      "midi": 41,
      "hit": false,
      "t": 130588.09600000012,
      "d": 882.351999999999,
      "v": 93
    },
    {
      "midi": 94,
      "hit": false,
      "t": 131470.44799999995,
      "d": 639.7051999999967,
      "v": 92
    },
    {
      "midi": 58,
      "hit": false,
      "t": 131470.44800000012,
      "d": 816.1755999999878,
      "v": 80
    },
    {
      "midi": 61,
      "hit": false,
      "t": 131470.44800000012,
      "d": 816.1755999999878,
      "v": 84
    },
    {
      "midi": 66,
      "hit": false,
      "t": 131470.44800000012,
      "d": 816.1755999999878,
      "v": 80
    },
    {
      "midi": 42,
      "hit": false,
      "t": 131470.44800000012,
      "d": 882.3519999999844,
      "v": 93
    },
    {
      "midi": 90,
      "hit": false,
      "t": 132132.21199999994,
      "d": 246.32326666664449,
      "v": 83
    },
    {
      "midi": 92,
      "hit": false,
      "t": 132352.79999999993,
      "d": 1540.4395333333232,
      "v": 101
    },
    {
      "midi": 56,
      "hit": false,
      "t": 132352.8000000001,
      "d": 661.7639999999665,
      "v": 84
    },
    {
      "midi": 61,
      "hit": false,
      "t": 132352.8000000001,
      "d": 882.3519999999553,
      "v": 80
    },
    {
      "midi": 65,
      "hit": false,
      "t": 132352.8000000001,
      "d": 1102.9399999999441,
      "v": 80
    },
    {
      "midi": 37,
      "hit": false,
      "t": 132352.8000000001,
      "d": 1764.7039999999397,
      "v": 93
    },
    {
      "midi": 44,
      "hit": false,
      "t": 132573.3880000001,
      "d": 1544.1159999999509,
      "v": 93
    },
    {
      "midi": 53,
      "hit": false,
      "t": 132793.97600000008,
      "d": 1323.527999999962,
      "v": 93
    },
    {
      "midi": 56,
      "hit": false,
      "t": 133014.56400000007,
      "d": 1102.9399999999732,
      "v": 86
    },
    {
      "midi": 61,
      "hit": false,
      "t": 133235.15200000006,
      "d": 882.3519999999844,
      "v": 86
    },
    {
      "midi": 65,
      "hit": false,
      "t": 133455.74000000005,
      "d": 661.7639999999956,
      "v": 86
    },
    {
      "midi": 92,
      "hit": false,
      "t": 134117.50399999993,
      "d": 821.6902999999875,
      "v": 92
    },
    {
      "midi": 56,
      "hit": false,
      "t": 134117.50400000004,
      "d": 816.1755999999878,
      "v": 80
    },
    {
      "midi": 60,
      "hit": false,
      "t": 134117.50400000004,
      "d": 816.1755999999878,
      "v": 80
    },
    {
      "midi": 65,
      "hit": false,
      "t": 134117.50400000004,
      "d": 816.1755999999878,
      "v": 84
    },
    {
      "midi": 41,
      "hit": false,
      "t": 134117.50400000004,
      "d": 882.3519999999844,
      "v": 93
    },
    {
      "midi": 92,
      "hit": false,
      "t": 134999.8559999999,
      "d": 772.05799999999,
      "v": 101
    },
    {
      "midi": 60,
      "hit": false,
      "t": 134999.85600000003,
      "d": 816.1755999999878,
      "v": 80
    },
    {
      "midi": 63,
      "hit": false,
      "t": 134999.85600000003,
      "d": 816.1755999999878,
      "v": 80
    },
    {
      "midi": 68,
      "hit": false,
      "t": 134999.85600000003,
      "d": 816.1755999999878,
      "v": 80
    },
    {
      "midi": 44,
      "hit": false,
      "t": 134999.85600000003,
      "d": 882.3519999999844,
      "v": 93
    },
    {
      "midi": 80,
      "hit": false,
      "t": 135882.2079999999,
      "d": 1511.0278000000108,
      "v": 83
    },
    {
      "midi": 89,
      "hit": false,
      "t": 135882.2079999999,
      "d": 1555.1454000000085,
      "v": 83
    },
    {
      "midi": 85,
      "hit": false,
      "t": 135882.2079999999,
      "d": 1566.174800000008,
      "v": 83
    },
    {
      "midi": 56,
      "hit": false,
      "t": 135882.208,
      "d": 661.7639999999665,
      "v": 84
    },
    {
      "midi": 61,
      "hit": false,
      "t": 135882.208,
      "d": 882.3519999999553,
      "v": 80
    },
    {
      "midi": 65,
      "hit": false,
      "t": 135882.208,
      "d": 1102.9399999999441,
      "v": 84
    },
    {
      "midi": 37,
      "hit": false,
      "t": 135882.208,
      "d": 1764.7039999999397,
      "v": 93
    },
    {
      "midi": 44,
      "hit": false,
      "t": 136102.796,
      "d": 1544.1159999999509,
      "v": 93
    },
    {
      "midi": 53,
      "hit": false,
      "t": 136323.384,
      "d": 1323.527999999962,
      "v": 93
    },
    {
      "midi": 56,
      "hit": false,
      "t": 136543.97199999998,
      "d": 1102.9399999999732,
      "v": 86
    },
    {
      "midi": 61,
      "hit": false,
      "t": 136764.55999999997,
      "d": 882.3519999999844,
      "v": 86
    },
    {
      "midi": 65,
      "hit": false,
      "t": 137058.6773333333,
      "d": 588.2346666666563,
      "v": 93
    },
    {
      "midi": 56,
      "hit": false,
      "t": 137646.91199999995,
      "d": 816.1756000000169,
      "v": 80
    },
    {
      "midi": 60,
      "hit": false,
      "t": 137646.91199999995,
      "d": 816.1756000000169,
      "v": 80
    },
    {
      "midi": 65,
      "hit": false,
      "t": 137646.91199999995,
      "d": 816.1756000000169,
      "v": 84
    },
    {
      "midi": 41,
      "hit": false,
      "t": 137646.91199999995,
      "d": 882.3520000000135,
      "v": 93
    },
    {
      "midi": 53,
      "hit": false,
      "t": 138088.08799999996,
      "d": 441.17600000000675,
      "v": 93
    },
    {
      "midi": 58,
      "hit": false,
      "t": 138529.26399999997,
      "d": 816.1756000000169,
      "v": 84
    },
    {
      "midi": 61,
      "hit": false,
      "t": 138529.26399999997,
      "d": 816.1756000000169,
      "v": 80
    },
    {
      "midi": 66,
      "hit": false,
      "t": 138529.26399999997,
      "d": 816.1756000000169,
      "v": 80
    },
    {
      "midi": 42,
      "hit": false,
      "t": 138529.26399999997,
      "d": 882.3520000000135,
      "v": 93
    },
    {
      "midi": 54,
      "hit": false,
      "t": 138970.43999999997,
      "d": 441.17600000000675,
      "v": 93
    },
    {
      "midi": 80,
      "hit": false,
      "t": 139411.6159999999,
      "d": 919.1166666666686,
      "v": 101
    },
    {
      "midi": 56,
      "hit": false,
      "t": 139411.61599999998,
      "d": 661.7639999999665,
      "v": 84
    },
    {
      "midi": 61,
      "hit": false,
      "t": 139411.61599999998,
      "d": 816.1755999999586,
      "v": 84
    },
    {
      "midi": 65,
      "hit": false,
      "t": 139411.61599999998,
      "d": 816.1755999999586,
      "v": 84
    },
    {
      "midi": 37,
      "hit": false,
      "t": 139411.61599999998,
      "d": 882.3519999999553,
      "v": 93
    },
    {
      "midi": 44,
      "hit": false,
      "t": 139632.20399999997,
      "d": 661.7639999999665,
      "v": 93
    },
    {
      "midi": 53,
      "hit": false,
      "t": 139852.79199999996,
      "d": 441.17599999997765,
      "v": 93
    },
    {
      "midi": 56,
      "hit": false,
      "t": 140073.37999999995,
      "d": 220.58799999998882,
      "v": 86
    },
    {
      "midi": 92,
      "hit": false,
      "t": 140293.9679999999,
      "d": 680.1463333333086,
      "v": 92
    },
    {
      "midi": 60,
      "hit": false,
      "t": 140293.96799999994,
      "d": 816.1756000000169,
      "v": 80
    },
    {
      "midi": 63,
      "hit": false,
      "t": 140293.96799999994,
      "d": 816.1756000000169,
      "v": 80
    },
    {
      "midi": 66,
      "hit": false,
      "t": 140293.96799999994,
      "d": 816.1756000000169,
      "v": 80
    },
    {
      "midi": 68,
      "hit": false,
      "t": 140293.96799999994,
      "d": 816.1756000000169,
      "v": 80
    },
    {
      "midi": 44,
      "hit": false,
      "t": 140293.96799999994,
      "d": 882.3520000000135,
      "v": 93
    },
    {
      "midi": 37,
      "hit": false,
      "t": 140735.14399999994,
      "d": 441.17600000000675,
      "v": 93
    },
    {
      "midi": 92,
      "hit": false,
      "t": 141176.3199999999,
      "d": 680.1463333333377,
      "v": 92
    },
    {
      "midi": 56,
      "hit": false,
      "t": 141176.31999999995,
      "d": 1323.527999999962,
      "v": 84
    },
    {
      "midi": 61,
      "hit": false,
      "t": 141176.31999999995,
      "d": 1544.1159999999509,
      "v": 80
    },
    {
      "midi": 65,
      "hit": false,
      "t": 141176.31999999995,
      "d": 1764.7039999999397,
      "v": 84
    },
    {
      "midi": 25,
      "hit": false,
      "t": 141176.31999999995,
      "d": 2647.055999999953,
      "v": 93
    },
    {
      "midi": 97,
      "hit": false,
      "t": 141231.4669999999,
      "d": 2647.0560000000114,
      "v": 101
    },
    {
      "midi": 37,
      "hit": false,
      "t": 141838.08399999994,
      "d": 2205.8799999999464,
      "v": 93
    },
    {
      "midi": 44,
      "hit": false,
      "t": 142058.67199999993,
      "d": 1985.2919999999576,
      "v": 93
    },
    {
      "midi": 53,
      "hit": false,
      "t": 142279.25999999992,
      "d": 1764.7039999999688,
      "v": 93
    },
    {
      "midi": 56,
      "hit": false,
      "t": 142499.8479999999,
      "d": 1544.11599999998,
      "v": 86
    },
    {
      "midi": 61,
      "hit": false,
      "t": 142720.4359999999,
      "d": 1323.5279999999912,
      "v": 86
    },
    {
      "midi": 65,
      "hit": false,
      "t": 142941.0239999999,
      "d": 1102.9400000000023,
      "v": 86
    },
    {
      "midi": 78,
      "hit": false,
      "t": 143823.3759999999,
      "d": 808.8226666666451,
      "v": 84
    },
    {
      "midi": 37,
      "hit": false,
      "t": 144705.7279999999,
      "d": 1764.7039999999397,
      "v": 93
    },
    {
      "midi": 68,
      "hit": false,
      "t": 144705.7279999999,
      "d": 2205.8799999999464,
      "v": 80
    },
    {
      "midi": 73,
      "hit": false,
      "t": 144705.7279999999,
      "d": 2205.8799999999464,
      "v": 80
    },
    {
      "midi": 77,
      "hit": false,
      "t": 144705.7279999999,
      "d": 2205.8799999999464,
      "v": 84
    },
    {
      "midi": 44,
      "hit": false,
      "t": 144926.31599999988,
      "d": 2426.4679999999644,
      "v": 93
    },
    {
      "midi": 53,
      "hit": false,
      "t": 145146.90399999986,
      "d": 2205.8799999999756,
      "v": 93
    },
    {
      "midi": 56,
      "hit": false,
      "t": 145367.49199999985,
      "d": 1985.2919999999867,
      "v": 86
    },
    {
      "midi": 61,
      "hit": false,
      "t": 145588.07999999984,
      "d": 1764.703999999998,
      "v": 86
    },
    {
      "midi": 65,
      "hit": false,
      "t": 145808.66799999983,
      "d": 1544.116000000009,
      "v": 86
    },
    {
      "midi": 70,
      "hit": false,
      "t": 147205.72533333316,
      "d": 882.3520000000135,
      "v": 84
    },
    {
      "midi": 73,
      "hit": false,
      "t": 147279.2546666665,
      "d": 882.3520000000135,
      "v": 84
    },
    {
      "midi": 78,
      "hit": false,
      "t": 147352.78399999984,
      "d": 808.8226666666742,
      "v": 84
    },
    {
      "midi": 37,
      "hit": false,
      "t": 148235.13599999985,
      "d": 1764.7039999999397,
      "v": 93
    },
    {
      "midi": 68,
      "hit": false,
      "t": 148235.13599999985,
      "d": 2205.8799999999464,
      "v": 80
    },
    {
      "midi": 73,
      "hit": false,
      "t": 148235.13599999985,
      "d": 2205.8799999999464,
      "v": 80
    },
    {
      "midi": 77,
      "hit": false,
      "t": 148235.13599999985,
      "d": 2205.8799999999464,
      "v": 84
    },
    {
      "midi": 44,
      "hit": false,
      "t": 148455.72399999984,
      "d": 2426.4679999999644,
      "v": 93
    },
    {
      "midi": 53,
      "hit": false,
      "t": 148676.31199999983,
      "d": 2205.8799999999756,
      "v": 93
    },
    {
      "midi": 56,
      "hit": false,
      "t": 148896.89999999982,
      "d": 1985.2919999999867,
      "v": 86
    },
    {
      "midi": 61,
      "hit": false,
      "t": 149117.4879999998,
      "d": 1764.703999999998,
      "v": 86
    },
    {
      "midi": 65,
      "hit": false,
      "t": 149338.0759999998,
      "d": 1544.116000000009,
      "v": 86
    },
    {
      "midi": 70,
      "hit": false,
      "t": 150735.13333333313,
      "d": 882.3520000000135,
      "v": 84
    },
    {
      "midi": 73,
      "hit": false,
      "t": 150808.66266666647,
      "d": 882.3520000000135,
      "v": 84
    },
    {
      "midi": 78,
      "hit": false,
      "t": 150882.1919999998,
      "d": 808.8226666666742,
      "v": 84
    },
    {
      "midi": 92,
      "hit": false,
      "t": 150882.1919999999,
      "d": 680.1463333333377,
      "v": 92
    },
    {
      "midi": 37,
      "hit": false,
      "t": 151764.54399999982,
      "d": 1764.7039999999397,
      "v": 93
    },
    {
      "midi": 68,
      "hit": false,
      "t": 151764.54399999982,
      "d": 2205.8799999999464,
      "v": 80
    },
    {
      "midi": 73,
      "hit": false,
      "t": 151764.54399999982,
      "d": 2205.8799999999464,
      "v": 80
    },
    {
      "midi": 77,
      "hit": false,
      "t": 151764.54399999982,
      "d": 2205.8799999999464,
      "v": 84
    },
    {
      "midi": 97,
      "hit": false,
      "t": 151764.5439999999,
      "d": 2647.0560000000114,
      "v": 101
    },
    {
      "midi": 44,
      "hit": false,
      "t": 151985.1319999998,
      "d": 2426.4679999999644,
      "v": 93
    },
    {
      "midi": 53,
      "hit": false,
      "t": 152205.7199999998,
      "d": 2205.8799999999756,
      "v": 93
    },
    {
      "midi": 56,
      "hit": false,
      "t": 152426.3079999998,
      "d": 1985.2919999999867,
      "v": 86
    },
    {
      "midi": 61,
      "hit": false,
      "t": 152646.89599999978,
      "d": 1764.703999999998,
      "v": 86
    },
    {
      "midi": 65,
      "hit": false,
      "t": 152867.48399999976,
      "d": 1544.116000000009,
      "v": 86
    },
    {
      "midi": 70,
      "hit": false,
      "t": 154264.5413333331,
      "d": 882.3520000000135,
      "v": 84
    },
    {
      "midi": 73,
      "hit": false,
      "t": 154338.07066666643,
      "d": 882.3520000000135,
      "v": 84
    },
    {
      "midi": 78,
      "hit": false,
      "t": 154411.59999999977,
      "d": 808.8226666666742,
      "v": 84
    },
    {
      "midi": 92,
      "hit": false,
      "t": 154411.59999999992,
      "d": 680.1463333333377,
      "v": 92
    },
    {
      "midi": 37,
      "hit": false,
      "t": 155293.9519999998,
      "d": 1764.7039999999397,
      "v": 93
    },
    {
      "midi": 68,
      "hit": false,
      "t": 155293.9519999998,
      "d": 2205.8799999999464,
      "v": 80
    },
    {
      "midi": 73,
      "hit": false,
      "t": 155293.9519999998,
      "d": 2205.8799999999464,
      "v": 80
    },
    {
      "midi": 77,
      "hit": false,
      "t": 155293.9519999998,
      "d": 2205.8799999999464,
      "v": 84
    },
    {
      "midi": 101,
      "hit": false,
      "t": 155293.95199999993,
      "d": 2647.0560000000114,
      "v": 101
    },
    {
      "midi": 44,
      "hit": false,
      "t": 155514.53999999978,
      "d": 2426.4679999999644,
      "v": 93
    },
    {
      "midi": 53,
      "hit": false,
      "t": 155735.12799999976,
      "d": 2205.8799999999756,
      "v": 93
    },
    {
      "midi": 56,
      "hit": false,
      "t": 155955.71599999975,
      "d": 1985.2919999999867,
      "v": 86
    },
    {
      "midi": 61,
      "hit": false,
      "t": 156176.30399999974,
      "d": 1764.703999999998,
      "v": 86
    },
    {
      "midi": 65,
      "hit": false,
      "t": 156396.89199999973,
      "d": 1544.116000000009,
      "v": 86
    },
    {
      "midi": 70,
      "hit": false,
      "t": 157793.94933333306,
      "d": 882.3520000000135,
      "v": 84
    },
    {
      "midi": 73,
      "hit": false,
      "t": 157867.4786666664,
      "d": 882.3520000000135,
      "v": 84
    },
    {
      "midi": 78,
      "hit": false,
      "t": 157941.00799999974,
      "d": 808.8226666666742,
      "v": 84
    },
    {
      "midi": 37,
      "hit": false,
      "t": 158823.35999999975,
      "d": 1764.7039999999397,
      "v": 93
    },
    {
      "midi": 68,
      "hit": false,
      "t": 158823.35999999975,
      "d": 2205.8799999999464,
      "v": 80
    },
    {
      "midi": 73,
      "hit": false,
      "t": 158823.35999999975,
      "d": 2205.8799999999464,
      "v": 80
    },
    {
      "midi": 77,
      "hit": false,
      "t": 158823.35999999975,
      "d": 2205.8799999999464,
      "v": 84
    },
    {
      "midi": 44,
      "hit": false,
      "t": 159043.94799999974,
      "d": 2426.4679999999644,
      "v": 93
    },
    {
      "midi": 53,
      "hit": false,
      "t": 159264.53599999973,
      "d": 2205.8799999999756,
      "v": 93
    },
    {
      "midi": 56,
      "hit": false,
      "t": 159485.12399999972,
      "d": 1985.2919999999867,
      "v": 86
    },
    {
      "midi": 61,
      "hit": false,
      "t": 159705.7119999997,
      "d": 1764.703999999998,
      "v": 86
    },
    {
      "midi": 65,
      "hit": false,
      "t": 159926.2999999997,
      "d": 1544.116000000009,
      "v": 86
    },
    {
      "midi": 70,
      "hit": false,
      "t": 161323.35733333303,
      "d": 882.3520000000135,
      "v": 84
    },
    {
      "midi": 73,
      "hit": false,
      "t": 161396.88666666637,
      "d": 882.3520000000135,
      "v": 84
    },
    {
      "midi": 78,
      "hit": false,
      "t": 161470.4159999997,
      "d": 808.8226666666742,
      "v": 84
    },
    {
      "midi": 37,
      "hit": false,
      "t": 162352.76799999972,
      "d": 1764.7039999999397,
      "v": 93
    },
    {
      "midi": 68,
      "hit": false,
      "t": 162352.76799999972,
      "d": 2205.8799999999464,
      "v": 80
    },
    {
      "midi": 73,
      "hit": false,
      "t": 162352.76799999972,
      "d": 2205.8799999999464,
      "v": 80
    },
    {
      "midi": 77,
      "hit": false,
      "t": 162352.76799999972,
      "d": 2205.8799999999464,
      "v": 84
    },
    {
      "midi": 44,
      "hit": false,
      "t": 162573.3559999997,
      "d": 2426.4679999999644,
      "v": 93
    },
    {
      "midi": 53,
      "hit": false,
      "t": 162793.9439999997,
      "d": 2205.8799999999756,
      "v": 93
    },
    {
      "midi": 56,
      "hit": false,
      "t": 163014.5319999997,
      "d": 1985.2919999999867,
      "v": 86
    },
    {
      "midi": 61,
      "hit": false,
      "t": 163235.11999999968,
      "d": 1764.703999999998,
      "v": 86
    },
    {
      "midi": 65,
      "hit": false,
      "t": 163455.70799999966,
      "d": 1544.116000000009,
      "v": 86
    },
    {
      "midi": 70,
      "hit": false,
      "t": 164852.765333333,
      "d": 882.3520000000135,
      "v": 84
    },
    {
      "midi": 73,
      "hit": false,
      "t": 164926.29466666633,
      "d": 882.3520000000135,
      "v": 84
    },
    {
      "midi": 78,
      "hit": false,
      "t": 164999.82399999967,
      "d": 808.8226666666742,
      "v": 84
    },
    {
      "midi": 37,
      "hit": false,
      "t": 165882.1759999997,
      "d": 1764.7039999999397,
      "v": 93
    },
    {
      "midi": 68,
      "hit": false,
      "t": 165882.1759999997,
      "d": 2205.8799999999464,
      "v": 80
    },
    {
      "midi": 73,
      "hit": false,
      "t": 165882.1759999997,
      "d": 2205.8799999999464,
      "v": 80
    },
    {
      "midi": 77,
      "hit": false,
      "t": 165882.1759999997,
      "d": 2205.8799999999464,
      "v": 84
    },
    {
      "midi": 44,
      "hit": false,
      "t": 166102.76399999968,
      "d": 2426.4679999999644,
      "v": 93
    },
    {
      "midi": 53,
      "hit": false,
      "t": 166323.35199999966,
      "d": 2205.8799999999756,
      "v": 93
    },
    {
      "midi": 56,
      "hit": false,
      "t": 166543.93999999965,
      "d": 1985.2919999999867,
      "v": 86
    },
    {
      "midi": 61,
      "hit": false,
      "t": 166764.52799999964,
      "d": 1764.703999999998,
      "v": 86
    },
    {
      "midi": 65,
      "hit": false,
      "t": 166985.11599999963,
      "d": 1544.116000000009,
      "v": 86
    },
    {
      "midi": 70,
      "hit": false,
      "t": 168382.17333333296,
      "d": 882.3520000000135,
      "v": 84
    },
    {
      "midi": 73,
      "hit": false,
      "t": 168455.7026666663,
      "d": 882.3520000000135,
      "v": 84
    },
    {
      "midi": 78,
      "hit": false,
      "t": 168529.23199999964,
      "d": 808.8226666666742,
      "v": 84
    },
    {
      "midi": 37,
      "hit": false,
      "t": 169411.58399999965,
      "d": 1764.7039999999397,
      "v": 93
    },
    {
      "midi": 68,
      "hit": false,
      "t": 169411.58399999965,
      "d": 2205.8799999999464,
      "v": 80
    },
    {
      "midi": 73,
      "hit": false,
      "t": 169411.58399999965,
      "d": 2205.8799999999464,
      "v": 80
    },
    {
      "midi": 77,
      "hit": false,
      "t": 169411.58399999965,
      "d": 2205.8799999999464,
      "v": 84
    },
    {
      "midi": 44,
      "hit": false,
      "t": 169632.17199999964,
      "d": 2426.4679999999644,
      "v": 93
    },
    {
      "midi": 53,
      "hit": false,
      "t": 169852.75999999963,
      "d": 2205.8799999999756,
      "v": 93
    },
    {
      "midi": 56,
      "hit": false,
      "t": 170073.34799999962,
      "d": 1985.2919999999867,
      "v": 86
    },
    {
      "midi": 61,
      "hit": false,
      "t": 170293.9359999996,
      "d": 1764.703999999998,
      "v": 86
    },
    {
      "midi": 65,
      "hit": false,
      "t": 170514.5239999996,
      "d": 1544.116000000009,
      "v": 86
    },
    {
      "midi": 70,
      "hit": false,
      "t": 171911.58133333293,
      "d": 882.3520000000135,
      "v": 84
    },
    {
      "midi": 73,
      "hit": false,
      "t": 171985.11066666627,
      "d": 882.3520000000135,
      "v": 84
    },
    {
      "midi": 78,
      "hit": false,
      "t": 172058.6399999996,
      "d": 808.8226666666742,
      "v": 84
    },
    {
      "midi": 37,
      "hit": false,
      "t": 172940.99199999962,
      "d": 1764.7039999999397,
      "v": 93
    },
    {
      "midi": 68,
      "hit": false,
      "t": 172940.99199999962,
      "d": 2205.8799999999464,
      "v": 80
    },
    {
      "midi": 73,
      "hit": false,
      "t": 172940.99199999962,
      "d": 2205.8799999999464,
      "v": 80
    },
    {
      "midi": 77,
      "hit": false,
      "t": 172940.99199999962,
      "d": 2205.8799999999464,
      "v": 84
    },
    {
      "midi": 44,
      "hit": false,
      "t": 173161.5799999996,
      "d": 2426.4679999999644,
      "v": 93
    },
    {
      "midi": 53,
      "hit": false,
      "t": 173382.1679999996,
      "d": 2205.8799999999756,
      "v": 93
    },
    {
      "midi": 56,
      "hit": false,
      "t": 173602.7559999996,
      "d": 1985.2919999999867,
      "v": 86
    },
    {
      "midi": 61,
      "hit": false,
      "t": 173823.34399999958,
      "d": 1764.703999999998,
      "v": 86
    },
    {
      "midi": 65,
      "hit": false,
      "t": 174043.93199999956,
      "d": 1544.116000000009,
      "v": 86
    },
    {
      "midi": 97,
      "hit": false,
      "t": 174264.51999999993,
      "d": 3356.6140666666324,
      "v": 76
    },
    {
      "midi": 92,
      "hit": false,
      "t": 174485.10799999992,
      "d": 3207.71716666664,
      "v": 76
    },
    {
      "midi": 104,
      "hit": false,
      "t": 174705.6959999999,
      "d": 2873.1587,
      "v": 76
    },
    {
      "midi": 70,
      "hit": false,
      "t": 175440.9893333329,
      "d": 882.3520000000135,
      "v": 84
    },
    {
      "midi": 73,
      "hit": false,
      "t": 175514.51866666623,
      "d": 882.3520000000135,
      "v": 84
    },
    {
      "midi": 78,
      "hit": false,
      "t": 175588.04799999957,
      "d": 808.8226666666742,
      "v": 84
    },
    {
      "midi": 37,
      "hit": false,
      "t": 176470.3999999996,
      "d": 1764.7039999999397,
      "v": 93
    },
    {
      "midi": 68,
      "hit": false,
      "t": 176470.3999999996,
      "d": 2205.8799999999464,
      "v": 80
    },
    {
      "midi": 73,
      "hit": false,
      "t": 176470.3999999996,
      "d": 2205.8799999999464,
      "v": 80
    },
    {
      "midi": 77,
      "hit": false,
      "t": 176470.3999999996,
      "d": 2205.8799999999464,
      "v": 84
    },
    {
      "midi": 44,
      "hit": false,
      "t": 176690.98799999958,
      "d": 2426.4679999999644,
      "v": 93
    },
    {
      "midi": 53,
      "hit": false,
      "t": 176911.57599999956,
      "d": 2205.8799999999756,
      "v": 93
    },
    {
      "midi": 56,
      "hit": false,
      "t": 177132.16399999955,
      "d": 1985.2919999999867,
      "v": 86
    },
    {
      "midi": 61,
      "hit": false,
      "t": 177352.75199999954,
      "d": 1764.703999999998,
      "v": 86
    },
    {
      "midi": 65,
      "hit": false,
      "t": 177573.33999999953,
      "d": 1544.116000000009,
      "v": 86
    },
    {
      "midi": 97,
      "hit": false,
      "t": 177793.9279999999,
      "d": 3360.2905333333183,
      "v": 76
    },
    {
      "midi": 92,
      "hit": false,
      "t": 178014.5159999999,
      "d": 3194.8495333333267,
      "v": 83
    },
    {
      "midi": 104,
      "hit": false,
      "t": 178235.10399999988,
      "d": 2858.4528333333437,
      "v": 76
    },
    {
      "midi": 70,
      "hit": false,
      "t": 178970.39733333286,
      "d": 882.3520000000135,
      "v": 84
    },
    {
      "midi": 73,
      "hit": false,
      "t": 179043.9266666662,
      "d": 882.3520000000135,
      "v": 84
    },
    {
      "midi": 78,
      "hit": false,
      "t": 179117.45599999954,
      "d": 808.8226666666742,
      "v": 84
    },
    {
      "midi": 37,
      "hit": false,
      "t": 179999.80799999955,
      "d": 1764.7039999999397,
      "v": 93
    },
    {
      "midi": 68,
      "hit": false,
      "t": 179999.80799999955,
      "d": 2205.8799999999464,
      "v": 80
    },
    {
      "midi": 73,
      "hit": false,
      "t": 179999.80799999955,
      "d": 2205.8799999999464,
      "v": 80
    },
    {
      "midi": 77,
      "hit": false,
      "t": 179999.80799999955,
      "d": 2205.8799999999464,
      "v": 84
    },
    {
      "midi": 44,
      "hit": false,
      "t": 180220.39599999954,
      "d": 2426.4679999999644,
      "v": 93
    },
    {
      "midi": 53,
      "hit": false,
      "t": 180440.98399999953,
      "d": 2205.8799999999756,
      "v": 93
    },
    {
      "midi": 56,
      "hit": false,
      "t": 180661.57199999952,
      "d": 1985.2919999999867,
      "v": 86
    },
    {
      "midi": 61,
      "hit": false,
      "t": 180882.1599999995,
      "d": 1764.703999999998,
      "v": 86
    },
    {
      "midi": 65,
      "hit": false,
      "t": 181102.7479999995,
      "d": 1544.116000000009,
      "v": 86
    },
    {
      "midi": 97,
      "hit": false,
      "t": 181323.3359999999,
      "d": 3321.6876333333203,
      "v": 76
    },
    {
      "midi": 92,
      "hit": false,
      "t": 181543.92399999988,
      "d": 3220.5848000000115,
      "v": 83
    },
    {
      "midi": 104,
      "hit": false,
      "t": 181764.51199999987,
      "d": 2867.6440000000002,
      "v": 76
    },
    {
      "midi": 70,
      "hit": false,
      "t": 182499.80533333283,
      "d": 882.3520000000135,
      "v": 84
    },
    {
      "midi": 73,
      "hit": false,
      "t": 182573.33466666617,
      "d": 882.3520000000135,
      "v": 84
    },
    {
      "midi": 78,
      "hit": false,
      "t": 182646.8639999995,
      "d": 808.8226666666742,
      "v": 84
    },
    {
      "midi": 44,
      "hit": false,
      "t": 182646.8639999995,
      "d": 816.1756000000169,
      "v": 93
    },
    {
      "midi": 68,
      "hit": false,
      "t": 183529.21599999952,
      "d": 2205.8799999999464,
      "v": 80
    },
    {
      "midi": 73,
      "hit": false,
      "t": 183529.21599999952,
      "d": 2205.8799999999464,
      "v": 80
    },
    {
      "midi": 77,
      "hit": false,
      "t": 183529.21599999952,
      "d": 2205.8799999999464,
      "v": 84
    },
    {
      "midi": 37,
      "hit": false,
      "t": 183529.21599999952,
      "d": 3529.4079999999376,
      "v": 93
    },
    {
      "midi": 44,
      "hit": false,
      "t": 183749.8039999995,
      "d": 3308.819999999949,
      "v": 93
    },
    {
      "midi": 53,
      "hit": false,
      "t": 183970.3919999995,
      "d": 3088.23199999996,
      "v": 93
    },
    {
      "midi": 56,
      "hit": false,
      "t": 184190.9799999995,
      "d": 2867.643999999971,
      "v": 86
    },
    {
      "midi": 61,
      "hit": false,
      "t": 184411.56799999948,
      "d": 2647.0559999999823,
      "v": 86
    },
    {
      "midi": 65,
      "hit": false,
      "t": 184632.15599999946,
      "d": 2426.4679999999935,
      "v": 86
    },
    {
      "midi": 97,
      "hit": false,
      "t": 184852.7439999999,
      "d": 1595.5865333333204,
      "v": 76
    },
    {
      "midi": 92,
      "hit": false,
      "t": 185073.33199999988,
      "d": 1584.55713333335,
      "v": 83
    },
    {
      "midi": 104,
      "hit": false,
      "t": 185293.91999999987,
      "d": 1110.292933333345,
      "v": 76
    },
    {
      "midi": 97,
      "hit": false,
      "t": 186617.4479999999,
      "d": 1595.5865333333495,
      "v": 76
    },
    {
      "midi": 92,
      "hit": false,
      "t": 186838.0359999999,
      "d": 1584.55713333335,
      "v": 83
    },
    {
      "midi": 104,
      "hit": false,
      "t": 187058.6239999999,
      "d": 1110.292933333345,
      "v": 76
    },
    {
      "midi": 97,
      "hit": false,
      "t": 188382.1519999999,
      "d": 1612.1306333333487,
      "v": 76
    },
    {
      "midi": 92,
      "hit": false,
      "t": 188602.73999999993,
      "d": 1591.9100666666636,
      "v": 76
    },
    {
      "midi": 104,
      "hit": false,
      "t": 188823.32799999992,
      "d": 882.3520000000135,
      "v": 76
    },
    {
      "midi": 104,
      "hit": false,
      "t": 189705.67999999993,
      "d": 882.3519999999844,
      "v": 83
    },
    {
      "midi": 101,
      "hit": false,
      "t": 189926.26799999992,
      "d": 1551.4689333333517,
      "v": 76
    },
    {
      "midi": 97,
      "hit": false,
      "t": 190146.85599999994,
      "d": 1558.8218666666653,
      "v": 83
    },
    {
      "midi": 92,
      "hit": false,
      "t": 190367.44399999993,
      "d": 1551.4689333333517,
      "v": 76
    },
    {
      "midi": 25,
      "hit": false,
      "t": 190588.03199999945,
      "d": 3529.407999999996,
      "v": 111
    },
    {
      "midi": 37,
      "hit": false,
      "t": 190588.03199999945,
      "d": 3529.407999999996,
      "v": 111
    },
    {
      "midi": 104,
      "hit": false,
      "t": 190588.03199999992,
      "d": 1215.0722333333688,
      "v": 76
    }
  ]
}