{
  "jsonPath": "Unknown/Unknown/The Synthesizer/twin-peaks-theme.json",
  "path": "Unknown\\Unknown\\The Synthesizer\\Twin Peaks Theme.mid",
  "name": "Twin Peaks Theme",
  "difficulty": "Advanced",
  "bpm": 200,
  "notes": [
    {
      "midi": 53,
      "hit": false,
      "t": 6666.639999999999,
      "d": 3090.265416666669,
      "v": 83
    },
    {
      "midi": 60,
      "hit": false,
      "t": 7083.304999999999,
      "d": 2881.9329166666694,
      "v": 77
    },
    {
      "midi": 67,
      "hit": false,
      "t": 7499.969999999999,
      "d": 1631.9379166666677,
      "v": 85
    },
    {
      "midi": 69,
      "hit": false,
      "t": 7499.969999999999,
      "d": 2465.2679166666694,
      "v": 77
    },
    {
      "midi": 72,
      "hit": false,
      "t": 7499.969999999999,
      "d": 2465.2679166666694,
      "v": 76
    },
    {
      "midi": 65,
      "hit": false,
      "t": 9166.630000000001,
      "d": 798.6079166666677,
      "v": 72
    },
    {
      "midi": 50,
      "hit": false,
      "t": 9999.960000000003,
      "d": 3090.265416666669,
      "v": 85
    },
    {
      "midi": 57,
      "hit": false,
      "t": 10416.625000000004,
      "d": 2881.9329166666685,
      "v": 85
    },
    {
      "midi": 64,
      "hit": false,
      "t": 10833.290000000005,
      "d": 1631.9379166666658,
      "v": 81
    },
    {
      "midi": 65,
      "hit": false,
      "t": 10833.290000000005,
      "d": 2465.2679166666676,
      "v": 76
    },
    {
      "midi": 69,
      "hit": false,
      "t": 10833.290000000005,
      "d": 2465.2679166666676,
      "v": 77
    },
    {
      "midi": 62,
      "hit": false,
      "t": 12499.950000000004,
      "d": 798.6079166666677,
      "v": 69
    },
    {
      "midi": 53,
      "hit": false,
      "t": 13333.280000000006,
      "d": 3298.5979166666693,
      "v": 81
    },
    {
      "midi": 60,
      "hit": false,
      "t": 13749.945000000007,
      "d": 2881.9329166666685,
      "v": 79
    },
    {
      "midi": 67,
      "hit": false,
      "t": 14166.610000000008,
      "d": 2048.6029166666667,
      "v": 79
    },
    {
      "midi": 69,
      "hit": false,
      "t": 14166.610000000008,
      "d": 2673.600416666668,
      "v": 77
    },
    {
      "midi": 72,
      "hit": false,
      "t": 14166.610000000008,
      "d": 2673.600416666668,
      "v": 76
    },
    {
      "midi": 65,
      "hit": false,
      "t": 15833.270000000008,
      "d": 1006.9404166666682,
      "v": 74
    },
    {
      "midi": 50,
      "hit": false,
      "t": 16666.60000000001,
      "d": 3090.265416666669,
      "v": 78
    },
    {
      "midi": 57,
      "hit": false,
      "t": 17083.26500000001,
      "d": 2881.9329166666685,
      "v": 79
    },
    {
      "midi": 64,
      "hit": false,
      "t": 17499.93000000001,
      "d": 1631.9379166666658,
      "v": 77
    },
    {
      "midi": 65,
      "hit": false,
      "t": 17499.93000000001,
      "d": 2465.2679166666676,
      "v": 78
    },
    {
      "midi": 69,
      "hit": false,
      "t": 17499.93000000001,
      "d": 2465.2679166666676,
      "v": 76
    },
    {
      "midi": 62,
      "hit": false,
      "t": 19166.59000000001,
      "d": 798.6079166666677,
      "v": 68
    },
    {
      "midi": 53,
      "hit": false,
      "t": 19999.920000000013,
      "d": 3298.5979166666693,
      "v": 85
    },
    {
      "midi": 48,
      "hit": false,
      "t": 20416.585,
      "d": 2482.6289583333382,
      "v": 92
    },
    {
      "midi": 60,
      "hit": false,
      "t": 20416.585000000014,
      "d": 2881.9329166666685,
      "v": 74
    },
    {
      "midi": 53,
      "hit": false,
      "t": 20833.25,
      "d": 399.30395833333387,
      "v": 102
    },
    {
      "midi": 67,
      "hit": false,
      "t": 20833.250000000015,
      "d": 1631.9379166666658,
      "v": 79
    },
    {
      "midi": 69,
      "hit": false,
      "t": 20833.250000000015,
      "d": 2465.2679166666676,
      "v": 74
    },
    {
      "midi": 72,
      "hit": false,
      "t": 20833.250000000015,
      "d": 2465.2679166666676,
      "v": 76
    },
    {
      "midi": 55,
      "hit": false,
      "t": 21249.915,
      "d": 399.30395833333387,
      "v": 94
    },
    {
      "midi": 57,
      "hit": false,
      "t": 21666.58,
      "d": 399.30395833333387,
      "v": 89
    },
    {
      "midi": 55,
      "hit": false,
      "t": 22083.245000000003,
      "d": 399.30395833333387,
      "v": 91
    },
    {
      "midi": 53,
      "hit": false,
      "t": 22499.910000000003,
      "d": 399.30395833333387,
      "v": 96
    },
    {
      "midi": 65,
      "hit": false,
      "t": 22499.910000000014,
      "d": 1006.9404166666682,
      "v": 69
    },
    {
      "midi": 48,
      "hit": false,
      "t": 22916.575000000004,
      "d": 399.30395833333387,
      "v": 91
    },
    {
      "midi": 50,
      "hit": false,
      "t": 23333.240000000005,
      "d": 3315.9589583333327,
      "v": 96
    },
    {
      "midi": 50,
      "hit": false,
      "t": 23333.240000000016,
      "d": 3090.265416666669,
      "v": 85
    },
    {
      "midi": 57,
      "hit": false,
      "t": 23749.905000000017,
      "d": 2881.9329166666685,
      "v": 77
    },
    {
      "midi": 64,
      "hit": false,
      "t": 24166.570000000018,
      "d": 1631.9379166666658,
      "v": 78
    },
    {
      "midi": 65,
      "hit": false,
      "t": 24166.570000000018,
      "d": 2465.2679166666676,
      "v": 79
    },
    {
      "midi": 69,
      "hit": false,
      "t": 24166.570000000018,
      "d": 2465.2679166666676,
      "v": 76
    },
    {
      "midi": 62,
      "hit": false,
      "t": 25833.230000000018,
      "d": 798.6079166666677,
      "v": 69
    },
    {
      "midi": 53,
      "hit": false,
      "t": 26666.560000000005,
      "d": 3315.9589583333327,
      "v": 89
    },
    {
      "midi": 53,
      "hit": false,
      "t": 26666.56000000002,
      "d": 3298.5979166666693,
      "v": 81
    },
    {
      "midi": 60,
      "hit": false,
      "t": 27083.22500000002,
      "d": 2881.9329166666685,
      "v": 76
    },
    {
      "midi": 67,
      "hit": false,
      "t": 27499.89000000002,
      "d": 1631.9379166666658,
      "v": 77
    },
    {
      "midi": 69,
      "hit": false,
      "t": 27499.89000000002,
      "d": 2465.2679166666676,
      "v": 77
    },
    {
      "midi": 72,
      "hit": false,
      "t": 27499.89000000002,
      "d": 2465.2679166666676,
      "v": 74
    },
    {
      "midi": 65,
      "hit": false,
      "t": 29166.55000000002,
      "d": 798.6079166666677,
      "v": 68
    },
    {
      "midi": 50,
      "hit": false,
      "t": 29999.880000000005,
      "d": 2899.2939583333355,
      "v": 85
    },
    {
      "midi": 50,
      "hit": false,
      "t": 29999.880000000023,
      "d": 3298.597916666662,
      "v": 81
    },
    {
      "midi": 57,
      "hit": false,
      "t": 30416.545000000024,
      "d": 2881.932916666661,
      "v": 74
    },
    {
      "midi": 64,
      "hit": false,
      "t": 30833.210000000025,
      "d": 1631.9379166666658,
      "v": 76
    },
    {
      "midi": 69,
      "hit": false,
      "t": 30833.210000000025,
      "d": 2256.9354166666635,
      "v": 76
    },
    {
      "midi": 65,
      "hit": false,
      "t": 30833.210000000025,
      "d": 2465.2679166666603,
      "v": 78
    },
    {
      "midi": 62,
      "hit": false,
      "t": 32499.870000000024,
      "d": 798.6079166666605,
      "v": 68
    },
    {
      "midi": 48,
      "hit": false,
      "t": 32916.535,
      "d": 399.30395833333023,
      "v": 91
    },
    {
      "midi": 46,
      "hit": false,
      "t": 33333.2,
      "d": 6649.278958333336,
      "v": 106
    },
    {
      "midi": 64,
      "hit": false,
      "t": 33333.20000000002,
      "d": 798.6079166666677,
      "v": 76
    },
    {
      "midi": 46,
      "hit": false,
      "t": 33333.20000000002,
      "d": 3090.265416666676,
      "v": 59
    },
    {
      "midi": 58,
      "hit": false,
      "t": 33749.86500000002,
      "d": 798.6079166666677,
      "v": 68
    },
    {
      "midi": 53,
      "hit": false,
      "t": 34166.53000000002,
      "d": 798.6079166666677,
      "v": 77
    },
    {
      "midi": 58,
      "hit": false,
      "t": 34583.19500000002,
      "d": 798.6079166666677,
      "v": 68
    },
    {
      "midi": 65,
      "hit": false,
      "t": 34999.86000000002,
      "d": 798.6079166666677,
      "v": 76
    },
    {
      "midi": 58,
      "hit": false,
      "t": 35416.52500000002,
      "d": 798.6079166666677,
      "v": 69
    },
    {
      "midi": 53,
      "hit": false,
      "t": 35833.190000000024,
      "d": 798.6079166666677,
      "v": 72
    },
    {
      "midi": 58,
      "hit": false,
      "t": 36249.855000000025,
      "d": 798.6079166666677,
      "v": 74
    },
    {
      "midi": 65,
      "hit": false,
      "t": 36666.520000000026,
      "d": 798.6079166666677,
      "v": 76
    },
    {
      "midi": 46,
      "hit": false,
      "t": 36666.520000000026,
      "d": 3090.265416666676,
      "v": 59
    },
    {
      "midi": 58,
      "hit": false,
      "t": 37083.18500000003,
      "d": 798.6079166666677,
      "v": 67
    },
    {
      "midi": 53,
      "hit": false,
      "t": 37499.85000000003,
      "d": 798.6079166666677,
      "v": 69
    },
    {
      "midi": 58,
      "hit": false,
      "t": 37916.51500000003,
      "d": 798.6079166666677,
      "v": 66
    },
    {
      "midi": 62,
      "hit": false,
      "t": 38333.18000000003,
      "d": 798.6079166666677,
      "v": 76
    },
    {
      "midi": 58,
      "hit": false,
      "t": 38749.84500000003,
      "d": 798.6079166666677,
      "v": 66
    },
    {
      "midi": 53,
      "hit": false,
      "t": 39166.51000000003,
      "d": 798.6079166666677,
      "v": 74
    },
    {
      "midi": 58,
      "hit": false,
      "t": 39583.17500000003,
      "d": 798.6079166666677,
      "v": 70
    },
    {
      "midi": 53,
      "hit": false,
      "t": 39999.84000000003,
      "d": 3298.597916666673,
      "v": 55
    },
    {
      "midi": 48,
      "hit": false,
      "t": 40416.505,
      "d": 607.6364583333343,
      "v": 98
    },
    {
      "midi": 60,
      "hit": false,
      "t": 40416.505000000034,
      "d": 2881.932916666672,
      "v": 73
    },
    {
      "midi": 53,
      "hit": false,
      "t": 40833.17,
      "d": 399.30395833333023,
      "v": 98
    },
    {
      "midi": 67,
      "hit": false,
      "t": 40833.170000000035,
      "d": 1840.2704166666736,
      "v": 78
    },
    {
      "midi": 69,
      "hit": false,
      "t": 40833.170000000035,
      "d": 2465.267916666671,
      "v": 76
    },
    {
      "midi": 72,
      "hit": false,
      "t": 40833.170000000035,
      "d": 2465.267916666671,
      "v": 76
    },
    {
      "midi": 55,
      "hit": false,
      "t": 41249.83499999999,
      "d": 399.30395833333023,
      "v": 90
    },
    {
      "midi": 57,
      "hit": false,
      "t": 41666.499999999985,
      "d": 399.30395833333023,
      "v": 97
    },
    {
      "midi": 55,
      "hit": false,
      "t": 42083.16499999998,
      "d": 399.30395833333023,
      "v": 94
    },
    {
      "midi": 53,
      "hit": false,
      "t": 42499.82999999997,
      "d": 399.30395833333023,
      "v": 98
    },
    {
      "midi": 65,
      "hit": false,
      "t": 42499.83000000004,
      "d": 1006.9404166666718,
      "v": 70
    },
    {
      "midi": 48,
      "hit": false,
      "t": 42916.494999999966,
      "d": 399.30395833333023,
      "v": 98
    },
    {
      "midi": 50,
      "hit": false,
      "t": 43333.15999999996,
      "d": 3315.9589583333363,
      "v": 108
    },
    {
      "midi": 50,
      "hit": false,
      "t": 43333.16000000004,
      "d": 3090.265416666669,
      "v": 77
    },
    {
      "midi": 57,
      "hit": false,
      "t": 43749.82500000004,
      "d": 2881.932916666665,
      "v": 72
    },
    {
      "midi": 64,
      "hit": false,
      "t": 44166.49000000004,
      "d": 1631.9379166666695,
      "v": 76
    },
    {
      "midi": 65,
      "hit": false,
      "t": 44166.49000000004,
      "d": 2465.267916666664,
      "v": 72
    },
    {
      "midi": 69,
      "hit": false,
      "t": 44166.49000000004,
      "d": 2465.267916666664,
      "v": 74
    },
    {
      "midi": 62,
      "hit": false,
      "t": 45833.150000000045,
      "d": 798.6079166666605,
      "v": 69
    },
    {
      "midi": 53,
      "hit": false,
      "t": 46666.48000000004,
      "d": 3298.597916666673,
      "v": 76
    },
    {
      "midi": 48,
      "hit": false,
      "t": 47083.14499999996,
      "d": 2482.6289583333055,
      "v": 95
    },
    {
      "midi": 60,
      "hit": false,
      "t": 47083.14500000004,
      "d": 2881.932916666672,
      "v": 74
    },
    {
      "midi": 53,
      "hit": false,
      "t": 47499.80999999996,
      "d": 399.30395833333023,
      "v": 102
    },
    {
      "midi": 67,
      "hit": false,
      "t": 47499.81000000004,
      "d": 1631.9379166666695,
      "v": 77
    },
    {
      "midi": 69,
      "hit": false,
      "t": 47499.81000000004,
      "d": 2465.267916666671,
      "v": 76
    },
    {
      "midi": 72,
      "hit": false,
      "t": 47499.81000000004,
      "d": 2465.267916666671,
      "v": 73
    },
    {
      "midi": 55,
      "hit": false,
      "t": 47916.474999999955,
      "d": 399.30395833333023,
      "v": 98
    },
    {
      "midi": 57,
      "hit": false,
      "t": 48333.13999999995,
      "d": 399.30395833333023,
      "v": 97
    },
    {
      "midi": 55,
      "hit": false,
      "t": 48749.80499999994,
      "d": 399.30395833333023,
      "v": 95
    },
    {
      "midi": 53,
      "hit": false,
      "t": 49166.469999999936,
      "d": 399.30395833333023,
      "v": 95
    },
    {
      "midi": 65,
      "hit": false,
      "t": 49166.470000000045,
      "d": 798.6079166666677,
      "v": 74
    },
    {
      "midi": 48,
      "hit": false,
      "t": 49583.13499999993,
      "d": 399.30395833333023,
      "v": 91
    },
    {
      "midi": 50,
      "hit": false,
      "t": 49999.79999999992,
      "d": 3315.9589583333363,
      "v": 97
    },
    {
      "midi": 50,
      "hit": false,
      "t": 49999.80000000005,
      "d": 3298.5979166666657,
      "v": 76
    },
    {
      "midi": 57,
      "hit": false,
      "t": 50416.46500000005,
      "d": 2881.932916666665,
      "v": 73
    },
    {
      "midi": 64,
      "hit": false,
      "t": 50833.13000000005,
      "d": 1631.9379166666695,
      "v": 76
    },
    {
      "midi": 69,
      "hit": false,
      "t": 50833.13000000005,
      "d": 2256.935416666667,
      "v": 74
    },
    {
      "midi": 65,
      "hit": false,
      "t": 50833.13000000005,
      "d": 2465.267916666664,
      "v": 74
    },
    {
      "midi": 62,
      "hit": false,
      "t": 52499.79000000005,
      "d": 798.6079166666605,
      "v": 69
    },
    {
      "midi": 46,
      "hit": false,
      "t": 53333.11999999992,
      "d": 6649.278958333336,
      "v": 106
    },
    {
      "midi": 64,
      "hit": false,
      "t": 53333.120000000046,
      "d": 798.6079166666677,
      "v": 76
    },
    {
      "midi": 46,
      "hit": false,
      "t": 53333.120000000046,
      "d": 3090.265416666676,
      "v": 59
    },
    {
      "midi": 58,
      "hit": false,
      "t": 53749.78500000005,
      "d": 798.6079166666677,
      "v": 68
    },
    {
      "midi": 53,
      "hit": false,
      "t": 54166.45000000005,
      "d": 798.6079166666677,
      "v": 77
    },
    {
      "midi": 58,
      "hit": false,
      "t": 54583.11500000005,
      "d": 798.6079166666677,
      "v": 68
    },
    {
      "midi": 65,
      "hit": false,
      "t": 54999.78000000005,
      "d": 798.6079166666677,
      "v": 76
    },
    {
      "midi": 58,
      "hit": false,
      "t": 55416.44500000005,
      "d": 798.6079166666677,
      "v": 69
    },
    {
      "midi": 53,
      "hit": false,
      "t": 55833.11000000005,
      "d": 798.6079166666677,
      "v": 72
    },
    {
      "midi": 58,
      "hit": false,
      "t": 56249.77500000005,
      "d": 798.6079166666677,
      "v": 74
    },
    {
      "midi": 67,
      "hit": false,
      "t": 56666.44000000005,
      "d": 798.6079166666677,
      "v": 76
    },
    {
      "midi": 46,
      "hit": false,
      "t": 56666.44000000005,
      "d": 3090.265416666676,
      "v": 59
    },
    {
      "midi": 58,
      "hit": false,
      "t": 57083.105000000054,
      "d": 798.6079166666677,
      "v": 67
    },
    {
      "midi": 53,
      "hit": false,
      "t": 57499.770000000055,
      "d": 798.6079166666677,
      "v": 69
    },
    {
      "midi": 58,
      "hit": false,
      "t": 57916.435000000056,
      "d": 798.6079166666677,
      "v": 66
    },
    {
      "midi": 62,
      "hit": false,
      "t": 58333.10000000006,
      "d": 798.6079166666677,
      "v": 76
    },
    {
      "midi": 58,
      "hit": false,
      "t": 58749.76500000006,
      "d": 798.6079166666677,
      "v": 66
    },
    {
      "midi": 53,
      "hit": false,
      "t": 59166.43000000006,
      "d": 798.6079166666677,
      "v": 74
    },
    {
      "midi": 58,
      "hit": false,
      "t": 59583.09500000006,
      "d": 798.6079166666677,
      "v": 70
    },
    {
      "midi": 53,
      "hit": false,
      "t": 59999.76000000006,
      "d": 3298.597916666673,
      "v": 55
    },
    {
      "midi": 48,
      "hit": false,
      "t": 60416.42499999992,
      "d": 607.6364583333343,
      "v": 98
    },
    {
      "midi": 60,
      "hit": false,
      "t": 60416.42500000006,
      "d": 2881.932916666672,
      "v": 73
    },
    {
      "midi": 53,
      "hit": false,
      "t": 60833.089999999924,
      "d": 399.30395833333023,
      "v": 98
    },
    {
      "midi": 67,
      "hit": false,
      "t": 60833.09000000006,
      "d": 1840.2704166666736,
      "v": 78
    },
    {
      "midi": 69,
      "hit": false,
      "t": 60833.09000000006,
      "d": 2465.267916666671,
      "v": 76
    },
    {
      "midi": 72,
      "hit": false,
      "t": 60833.09000000006,
      "d": 2465.267916666671,
      "v": 76
    },
    {
      "midi": 55,
      "hit": false,
      "t": 61249.75499999992,
      "d": 399.30395833333023,
      "v": 90
    },
    {
      "midi": 57,
      "hit": false,
      "t": 61666.41999999991,
      "d": 399.30395833333023,
      "v": 97
    },
    {
      "midi": 55,
      "hit": false,
      "t": 62083.084999999905,
      "d": 399.30395833333023,
      "v": 94
    },
    {
      "midi": 53,
      "hit": false,
      "t": 62499.7499999999,
      "d": 399.30395833333023,
      "v": 98
    },
    {
      "midi": 65,
      "hit": false,
      "t": 62499.750000000065,
      "d": 1006.9404166666718,
      "v": 70
    },
    {
      "midi": 48,
      "hit": false,
      "t": 62916.41499999989,
      "d": 399.30395833333023,
      "v": 98
    },
    {
      "midi": 50,
      "hit": false,
      "t": 63333.079999999885,
      "d": 3315.958958333329,
      "v": 108
    },
    {
      "midi": 50,
      "hit": false,
      "t": 63333.08000000007,
      "d": 3090.265416666669,
      "v": 77
    },
    {
      "midi": 57,
      "hit": false,
      "t": 63749.74500000007,
      "d": 2881.932916666672,
      "v": 72
    },
    {
      "midi": 64,
      "hit": false,
      "t": 64166.41000000007,
      "d": 1631.9379166666695,
      "v": 76
    },
    {
      "midi": 65,
      "hit": false,
      "t": 64166.41000000007,
      "d": 2465.267916666671,
      "v": 72
    },
    {
      "midi": 69,
      "hit": false,
      "t": 64166.41000000007,
      "d": 2465.267916666671,
      "v": 74
    },
    {
      "midi": 62,
      "hit": false,
      "t": 65833.07000000007,
      "d": 798.607916666675,
      "v": 69
    },
    {
      "midi": 53,
      "hit": false,
      "t": 66666.40000000007,
      "d": 3298.5979166666366,
      "v": 76
    },
    {
      "midi": 48,
      "hit": false,
      "t": 67083.06499999989,
      "d": 2482.628958333298,
      "v": 95
    },
    {
      "midi": 60,
      "hit": false,
      "t": 67083.06500000006,
      "d": 2881.932916666643,
      "v": 74
    },
    {
      "midi": 53,
      "hit": false,
      "t": 67499.72999999988,
      "d": 399.30395833333023,
      "v": 102
    },
    {
      "midi": 67,
      "hit": false,
      "t": 67499.73000000005,
      "d": 1631.9379166666622,
      "v": 77
    },
    {
      "midi": 69,
      "hit": false,
      "t": 67499.73000000005,
      "d": 2465.2679166666494,
      "v": 76
    },
    {
      "midi": 72,
      "hit": false,
      "t": 67499.73000000005,
      "d": 2465.2679166666494,
      "v": 73
    },
    {
      "midi": 55,
      "hit": false,
      "t": 67916.39499999987,
      "d": 399.30395833333023,
      "v": 98
    },
    {
      "midi": 57,
      "hit": false,
      "t": 68333.05999999987,
      "d": 399.30395833333023,
      "v": 97
    },
    {
      "midi": 55,
      "hit": false,
      "t": 68749.72499999986,
      "d": 399.30395833333023,
      "v": 95
    },
    {
      "midi": 53,
      "hit": false,
      "t": 69166.38999999985,
      "d": 399.30395833333023,
      "v": 95
    },
    {
      "midi": 65,
      "hit": false,
      "t": 69166.39000000004,
      "d": 798.6079166666605,
      "v": 74
    },
    {
      "midi": 48,
      "hit": false,
      "t": 69583.05499999985,
      "d": 399.30395833333023,
      "v": 91
    },
    {
      "midi": 50,
      "hit": false,
      "t": 69999.71999999984,
      "d": 3315.958958333329,
      "v": 97
    },
    {
      "midi": 50,
      "hit": false,
      "t": 69999.72000000003,
      "d": 3298.597916666651,
      "v": 76
    },
    {
      "midi": 57,
      "hit": false,
      "t": 70416.38500000002,
      "d": 2881.9329166666575,
      "v": 73
    },
    {
      "midi": 64,
      "hit": false,
      "t": 70833.05000000002,
      "d": 1631.9379166666622,
      "v": 76
    },
    {
      "midi": 69,
      "hit": false,
      "t": 70833.05000000002,
      "d": 2256.93541666666,
      "v": 74
    },
    {
      "midi": 65,
      "hit": false,
      "t": 70833.05000000002,
      "d": 2465.267916666664,
      "v": 74
    },
    {
      "midi": 62,
      "hit": false,
      "t": 72499.71,
      "d": 798.607916666675,
      "v": 69
    },
    {
      "midi": 46,
      "hit": false,
      "t": 73333.03999999983,
      "d": 3315.958958333329,
      "v": 93
    },
    {
      "midi": 60,
      "hit": false,
      "t": 73333.04000000001,
      "d": 1215.272916666654,
      "v": 77
    },
    {
      "midi": 46,
      "hit": false,
      "t": 73333.04000000001,
      "d": 3090.265416666618,
      "v": 76
    },
    {
      "midi": 58,
      "hit": false,
      "t": 73749.705,
      "d": 798.6079166666605,
      "v": 78
    },
    {
      "midi": 53,
      "hit": false,
      "t": 74166.37,
      "d": 381.94291666666686,
      "v": 77
    },
    {
      "midi": 62,
      "hit": false,
      "t": 74583.03499999999,
      "d": 2048.6029166666412,
      "v": 83
    },
    {
      "midi": 58,
      "hit": false,
      "t": 74999.69999999998,
      "d": 381.94291666666686,
      "v": 76
    },
    {
      "midi": 53,
      "hit": false,
      "t": 75416.36499999998,
      "d": 381.94291666666686,
      "v": 74
    },
    {
      "midi": 58,
      "hit": false,
      "t": 75833.02999999997,
      "d": 381.94291666666686,
      "v": 81
    },
    {
      "midi": 53,
      "hit": false,
      "t": 76249.69499999996,
      "d": 381.94291666666686,
      "v": 76
    },
    {
      "midi": 46,
      "hit": false,
      "t": 76666.35999999983,
      "d": 3315.958958333329,
      "v": 96
    },
    {
      "midi": 60,
      "hit": false,
      "t": 76666.35999999996,
      "d": 1215.272916666654,
      "v": 85
    },
    {
      "midi": 46,
      "hit": false,
      "t": 76666.35999999996,
      "d": 3090.265416666618,
      "v": 70
    },
    {
      "midi": 58,
      "hit": false,
      "t": 77083.02499999995,
      "d": 798.6079166666605,
      "v": 79
    },
    {
      "midi": 53,
      "hit": false,
      "t": 77499.68999999994,
      "d": 381.94291666666686,
      "v": 83
    },
    {
      "midi": 62,
      "hit": false,
      "t": 77916.35499999994,
      "d": 2048.6029166666412,
      "v": 79
    },
    {
      "midi": 58,
      "hit": false,
      "t": 78333.01999999993,
      "d": 381.94291666666686,
      "v": 74
    },
    {
      "midi": 53,
      "hit": false,
      "t": 78749.68499999992,
      "d": 381.94291666666686,
      "v": 74
    },
    {
      "midi": 58,
      "hit": false,
      "t": 79166.34999999992,
      "d": 381.94291666666686,
      "v": 81
    },
    {
      "midi": 53,
      "hit": false,
      "t": 79583.01499999991,
      "d": 381.94291666666686,
      "v": 76
    },
    {
      "midi": 46,
      "hit": false,
      "t": 79999.67999999982,
      "d": 3315.958958333329,
      "v": 97
    },
    {
      "midi": 60,
      "hit": false,
      "t": 79999.6799999999,
      "d": 1215.272916666654,
      "v": 76
    },
    {
      "midi": 46,
      "hit": false,
      "t": 79999.6799999999,
      "d": 3090.265416666618,
      "v": 74
    },
    {
      "midi": 58,
      "hit": false,
      "t": 80416.3449999999,
      "d": 798.6079166666605,
      "v": 76
    },
    {
      "midi": 53,
      "hit": false,
      "t": 80833.0099999999,
      "d": 381.94291666666686,
      "v": 74
    },
    {
      "midi": 62,
      "hit": false,
      "t": 81249.67499999989,
      "d": 1631.9379166666477,
      "v": 79
    },
    {
      "midi": 58,
      "hit": false,
      "t": 81666.33999999988,
      "d": 381.94291666666686,
      "v": 77
    },
    {
      "midi": 53,
      "hit": false,
      "t": 82083.00499999987,
      "d": 381.94291666666686,
      "v": 76
    },
    {
      "midi": 58,
      "hit": false,
      "t": 82499.66999999987,
      "d": 381.94291666666686,
      "v": 81
    },
    {
      "midi": 53,
      "hit": false,
      "t": 82916.33499999986,
      "d": 381.94291666666686,
      "v": 74
    },
    {
      "midi": 46,
      "hit": false,
      "t": 83332.99999999981,
      "d": 3315.958958333329,
      "v": 95
    },
    {
      "midi": 62,
      "hit": false,
      "t": 83332.99999999985,
      "d": 1215.272916666654,
      "v": 76
    },
    {
      "midi": 46,
      "hit": false,
      "t": 83332.99999999985,
      "d": 3298.597916666622,
      "v": 76
    },
    {
      "midi": 58,
      "hit": false,
      "t": 83749.66499999985,
      "d": 381.94291666666686,
      "v": 74
    },
    {
      "midi": 53,
      "hit": false,
      "t": 84166.32999999984,
      "d": 798.6079166666605,
      "v": 76
    },
    {
      "midi": 58,
      "hit": false,
      "t": 84582.99499999984,
      "d": 381.94291666666686,
      "v": 79
    },
    {
      "midi": 62,
      "hit": false,
      "t": 84999.65999999983,
      "d": 1631.9379166666477,
      "v": 79
    },
    {
      "midi": 58,
      "hit": false,
      "t": 85416.32499999982,
      "d": 381.94291666666686,
      "v": 76
    },
    {
      "midi": 53,
      "hit": false,
      "t": 85832.98999999982,
      "d": 381.94291666666686,
      "v": 77
    },
    {
      "midi": 58,
      "hit": false,
      "t": 86249.65499999981,
      "d": 381.94291666666686,
      "v": 81
    },
    {
      "midi": 62,
      "hit": false,
      "t": 86666.3199999998,
      "d": 173.6104166666628,
      "v": 83
    },
    {
      "midi": 48,
      "hit": false,
      "t": 86666.3199999998,
      "d": 3090.265416666618,
      "v": 81
    },
    {
      "midi": 48,
      "hit": false,
      "t": 86666.3199999998,
      "d": 3315.958958333329,
      "v": 95
    },
    {
      "midi": 60,
      "hit": false,
      "t": 87082.9849999998,
      "d": 798.6079166666605,
      "v": 72
    },
    {
      "midi": 55,
      "hit": false,
      "t": 87499.64999999979,
      "d": 798.6079166666605,
      "v": 70
    },
    {
      "midi": 64,
      "hit": false,
      "t": 87916.31499999978,
      "d": 2048.6029166666412,
      "v": 76
    },
    {
      "midi": 60,
      "hit": false,
      "t": 88332.97999999978,
      "d": 381.94291666666686,
      "v": 74
    },
    {
      "midi": 55,
      "hit": false,
      "t": 88749.64499999977,
      "d": 381.94291666666686,
      "v": 74
    },
    {
      "midi": 60,
      "hit": false,
      "t": 89166.30999999976,
      "d": 381.94291666666686,
      "v": 74
    },
    {
      "midi": 55,
      "hit": false,
      "t": 89582.97499999976,
      "d": 381.94291666666686,
      "v": 69
    },
    {
      "midi": 62,
      "hit": false,
      "t": 89999.63999999975,
      "d": 1215.272916666654,
      "v": 81
    },
    {
      "midi": 48,
      "hit": false,
      "t": 89999.63999999975,
      "d": 3090.265416666618,
      "v": 74
    },
    {
      "midi": 48,
      "hit": false,
      "t": 89999.6399999998,
      "d": 3315.958958333329,
      "v": 96
    },
    {
      "midi": 60,
      "hit": false,
      "t": 90416.30499999975,
      "d": 798.6079166666605,
      "v": 70
    },
    {
      "midi": 55,
      "hit": false,
      "t": 90832.96999999974,
      "d": 798.6079166666605,
      "v": 70
    },
    {
      "midi": 64,
      "hit": false,
      "t": 91249.63499999973,
      "d": 1840.2704166666372,
      "v": 76
    },
    {
      "midi": 60,
      "hit": false,
      "t": 91666.29999999973,
      "d": 381.94291666666686,
      "v": 73
    },
    {
      "midi": 55,
      "hit": false,
      "t": 92082.96499999972,
      "d": 381.94291666666686,
      "v": 73
    },
    {
      "midi": 60,
      "hit": false,
      "t": 92499.62999999971,
      "d": 381.94291666666686,
      "v": 70
    },
    {
      "midi": 55,
      "hit": false,
      "t": 92916.2949999997,
      "d": 381.94291666666686,
      "v": 74
    },
    {
      "midi": 64,
      "hit": false,
      "t": 93332.9599999997,
      "d": 1215.272916666654,
      "v": 81
    },
    {
      "midi": 48,
      "hit": false,
      "t": 93332.9599999997,
      "d": 3090.265416666618,
      "v": 73
    },
    {
      "midi": 48,
      "hit": false,
      "t": 93332.95999999979,
      "d": 3315.958958333329,
      "v": 95
    },
    {
      "midi": 60,
      "hit": false,
      "t": 93749.6249999997,
      "d": 381.94291666666686,
      "v": 69
    },
    {
      "midi": 55,
      "hit": false,
      "t": 94166.28999999969,
      "d": 1215.272916666654,
      "v": 76
    },
    {
      "midi": 60,
      "hit": false,
      "t": 94582.95499999968,
      "d": 381.94291666666686,
      "v": 74
    },
    {
      "midi": 64,
      "hit": false,
      "t": 94999.61999999968,
      "d": 1215.272916666654,
      "v": 83
    },
    {
      "midi": 60,
      "hit": false,
      "t": 95416.28499999967,
      "d": 381.94291666666686,
      "v": 72
    },
    {
      "midi": 55,
      "hit": false,
      "t": 95832.94999999966,
      "d": 1215.272916666654,
      "v": 81
    },
    {
      "midi": 60,
      "hit": false,
      "t": 96249.61499999966,
      "d": 381.94291666666686,
      "v": 76
    },
    {
      "midi": 64,
      "hit": false,
      "t": 96666.27999999965,
      "d": 1215.272916666654,
      "v": 79
    },
    {
      "midi": 48,
      "hit": false,
      "t": 96666.27999999965,
      "d": 3298.597916666622,
      "v": 76
    },
    {
      "midi": 48,
      "hit": false,
      "t": 96666.27999999978,
      "d": 3315.958958333329,
      "v": 98
    },
    {
      "midi": 60,
      "hit": false,
      "t": 97082.94499999964,
      "d": 381.94291666666686,
      "v": 73
    },
    {
      "midi": 55,
      "hit": false,
      "t": 97499.60999999964,
      "d": 1215.272916666654,
      "v": 78
    },
    {
      "midi": 60,
      "hit": false,
      "t": 97916.27499999963,
      "d": 381.94291666666686,
      "v": 76
    },
    {
      "midi": 64,
      "hit": false,
      "t": 98332.93999999962,
      "d": 1631.9379166666477,
      "v": 83
    },
    {
      "midi": 60,
      "hit": false,
      "t": 98749.60499999962,
      "d": 381.94291666666686,
      "v": 74
    },
    {
      "midi": 55,
      "hit": false,
      "t": 99166.26999999961,
      "d": 381.94291666666686,
      "v": 74
    },
    {
      "midi": 60,
      "hit": false,
      "t": 99582.9349999996,
      "d": 381.94291666666686,
      "v": 70
    },
    {
      "midi": 53,
      "hit": false,
      "t": 99999.5999999996,
      "d": 3090.265416666647,
      "v": 83
    },
    {
      "midi": 60,
      "hit": false,
      "t": 100416.26499999959,
      "d": 2881.9329166666575,
      "v": 77
    },
    {
      "midi": 48,
      "hit": false,
      "t": 100416.26499999978,
      "d": 2482.628958333298,
      "v": 92
    },
    {
      "midi": 67,
      "hit": false,
      "t": 100832.92999999959,
      "d": 1631.9379166666622,
      "v": 85
    },
    {
      "midi": 69,
      "hit": false,
      "t": 100832.92999999959,
      "d": 2465.267916666664,
      "v": 77
    },
    {
      "midi": 72,
      "hit": false,
      "t": 100832.92999999959,
      "d": 2465.267916666664,
      "v": 76
    },
    {
      "midi": 53,
      "hit": false,
      "t": 100832.92999999977,
      "d": 399.30395833333023,
      "v": 102
    },
    {
      "midi": 55,
      "hit": false,
      "t": 101249.59499999977,
      "d": 399.30395833333023,
      "v": 94
    },
    {
      "midi": 57,
      "hit": false,
      "t": 101666.25999999976,
      "d": 399.30395833333023,
      "v": 89
    },
    {
      "midi": 55,
      "hit": false,
      "t": 102082.92499999976,
      "d": 399.30395833333023,
      "v": 91
    },
    {
      "midi": 65,
      "hit": false,
      "t": 102499.58999999957,
      "d": 798.607916666675,
      "v": 72
    },
    {
      "midi": 53,
      "hit": false,
      "t": 102499.58999999975,
      "d": 399.30395833333023,
      "v": 96
    },
    {
      "midi": 48,
      "hit": false,
      "t": 102916.25499999974,
      "d": 399.30395833333023,
      "v": 91
    },
    {
      "midi": 50,
      "hit": false,
      "t": 103332.91999999958,
      "d": 3090.265416666647,
      "v": 85
    },
    {
      "midi": 50,
      "hit": false,
      "t": 103332.91999999974,
      "d": 3315.958958333329,
      "v": 96
    },
    {
      "midi": 57,
      "hit": false,
      "t": 103749.58499999957,
      "d": 2881.9329166666575,
      "v": 85
    },
    {
      "midi": 64,
      "hit": false,
      "t": 104166.24999999956,
      "d": 1631.9379166666622,
      "v": 81
    },
    {
      "midi": 65,
      "hit": false,
      "t": 104166.24999999956,
      "d": 2465.267916666664,
      "v": 76
    },
    {
      "midi": 69,
      "hit": false,
      "t": 104166.24999999956,
      "d": 2465.267916666664,
      "v": 77
    },
    {
      "midi": 62,
      "hit": false,
      "t": 105832.90999999955,
      "d": 798.607916666675,
      "v": 69
    },
    {
      "midi": 53,
      "hit": false,
      "t": 106666.23999999955,
      "d": 3298.597916666651,
      "v": 81
    },
    {
      "midi": 60,
      "hit": false,
      "t": 107082.90499999955,
      "d": 2881.9329166666575,
      "v": 79
    },
    {
      "midi": 48,
      "hit": false,
      "t": 107082.90499999974,
      "d": 2482.628958333298,
      "v": 92
    },
    {
      "midi": 67,
      "hit": false,
      "t": 107499.56999999954,
      "d": 2048.6029166666704,
      "v": 79
    },
    {
      "midi": 69,
      "hit": false,
      "t": 107499.56999999954,
      "d": 2673.6004166666535,
      "v": 77
    },
    {
      "midi": 72,
      "hit": false,
      "t": 107499.56999999954,
      "d": 2673.6004166666535,
      "v": 76
    },
    {
      "midi": 53,
      "hit": false,
      "t": 107499.56999999973,
      "d": 399.30395833333023,
      "v": 102
    },
    {
      "midi": 55,
      "hit": false,
      "t": 107916.23499999972,
      "d": 399.30395833333023,
      "v": 94
    },
    {
      "midi": 57,
      "hit": false,
      "t": 108332.89999999972,
      "d": 399.30395833333023,
      "v": 89
    },
    {
      "midi": 55,
      "hit": false,
      "t": 108749.56499999971,
      "d": 399.30395833333023,
      "v": 91
    },
    {
      "midi": 65,
      "hit": false,
      "t": 109166.22999999954,
      "d": 1006.94041666665,
      "v": 74
    },
    {
      "midi": 53,
      "hit": false,
      "t": 109166.2299999997,
      "d": 399.30395833333023,
      "v": 96
    },
    {
      "midi": 48,
      "hit": false,
      "t": 109582.8949999997,
      "d": 399.30395833333023,
      "v": 91
    },
    {
      "midi": 50,
      "hit": false,
      "t": 109999.55999999953,
      "d": 3090.265416666647,
      "v": 78
    },
    {
      "midi": 50,
      "hit": false,
      "t": 109999.55999999969,
      "d": 3315.958958333329,
      "v": 96
    },
    {
      "midi": 57,
      "hit": false,
      "t": 110416.22499999953,
      "d": 2881.9329166666575,
      "v": 79
    },
    {
      "midi": 64,
      "hit": false,
      "t": 110832.88999999952,
      "d": 1631.9379166666622,
      "v": 77
    },
    {
      "midi": 65,
      "hit": false,
      "t": 110832.88999999952,
      "d": 2465.267916666664,
      "v": 78
    },
    {
      "midi": 69,
      "hit": false,
      "t": 110832.88999999952,
      "d": 2465.267916666664,
      "v": 76
    },
    {
      "midi": 62,
      "hit": false,
      "t": 112499.54999999951,
      "d": 798.607916666675,
      "v": 68
    },
    {
      "midi": 53,
      "hit": false,
      "t": 113332.87999999951,
      "d": 3298.5979166666366,
      "v": 85
    },
    {
      "midi": 60,
      "hit": false,
      "t": 113749.5449999995,
      "d": 2881.932916666643,
      "v": 74
    },
    {
      "midi": 48,
      "hit": false,
      "t": 113749.54499999969,
      "d": 2482.628958333298,
      "v": 92
    },
    {
      "midi": 67,
      "hit": false,
      "t": 114166.2099999995,
      "d": 1631.9379166666622,
      "v": 79
    },
    {
      "midi": 69,
      "hit": false,
      "t": 114166.2099999995,
      "d": 2465.2679166666494,
      "v": 74
    },
    {
      "midi": 72,
      "hit": false,
      "t": 114166.2099999995,
      "d": 2465.2679166666494,
      "v": 76
    },
    {
      "midi": 53,
      "hit": false,
      "t": 114166.20999999969,
      "d": 399.30395833333023,
      "v": 102
    },
    {
      "midi": 55,
      "hit": false,
      "t": 114582.87499999968,
      "d": 399.30395833333023,
      "v": 94
    },
    {
      "midi": 57,
      "hit": false,
      "t": 114999.53999999967,
      "d": 399.30395833333023,
      "v": 89
    },
    {
      "midi": 55,
      "hit": false,
      "t": 115416.20499999967,
      "d": 399.30395833333023,
      "v": 91
    },
    {
      "midi": 65,
      "hit": false,
      "t": 115832.86999999949,
      "d": 1006.94041666665,
      "v": 69
    },
    {
      "midi": 53,
      "hit": false,
      "t": 115832.86999999966,
      "d": 399.30395833333023,
      "v": 96
    },
    {
      "midi": 48,
      "hit": false,
      "t": 116249.53499999965,
      "d": 399.30395833333023,
      "v": 91
    },
    {
      "midi": 50,
      "hit": false,
      "t": 116666.19999999947,
      "d": 3090.265416666647,
      "v": 85
    },
    {
      "midi": 50,
      "hit": false,
      "t": 116666.19999999965,
      "d": 3315.958958333329,
      "v": 96
    },
    {
      "midi": 57,
      "hit": false,
      "t": 117082.86499999947,
      "d": 2881.9329166666575,
      "v": 77
    },
    {
      "midi": 64,
      "hit": false,
      "t": 117499.52999999946,
      "d": 1631.9379166666622,
      "v": 78
    },
    {
      "midi": 65,
      "hit": false,
      "t": 117499.52999999946,
      "d": 2465.267916666664,
      "v": 79
    },
    {
      "midi": 69,
      "hit": false,
      "t": 117499.52999999946,
      "d": 2465.267916666664,
      "v": 76
    },
    {
      "midi": 62,
      "hit": false,
      "t": 119166.18999999945,
      "d": 798.607916666675,
      "v": 69
    },
    {
      "midi": 53,
      "hit": false,
      "t": 119999.51999999945,
      "d": 3298.5979166666366,
      "v": 81
    },
    {
      "midi": 53,
      "hit": false,
      "t": 119999.51999999964,
      "d": 3315.958958333329,
      "v": 89
    },
    {
      "midi": 60,
      "hit": false,
      "t": 120416.18499999944,
      "d": 2881.932916666643,
      "v": 76
    },
    {
      "midi": 67,
      "hit": false,
      "t": 120832.84999999944,
      "d": 1631.9379166666622,
      "v": 77
    },
    {
      "midi": 69,
      "hit": false,
      "t": 120832.84999999944,
      "d": 2465.2679166666494,
      "v": 77
    },
    {
      "midi": 72,
      "hit": false,
      "t": 120832.84999999944,
      "d": 2465.2679166666494,
      "v": 74
    },
    {
      "midi": 65,
      "hit": false,
      "t": 122499.50999999943,
      "d": 798.6079166666605,
      "v": 68
    },
    {
      "midi": 50,
      "hit": false,
      "t": 123332.83999999941,
      "d": 3298.597916666651,
      "v": 81
    },
    {
      "midi": 50,
      "hit": false,
      "t": 123332.83999999963,
      "d": 2482.6289583333273,
      "v": 85
    },
    {
      "midi": 57,
      "hit": false,
      "t": 123749.50499999941,
      "d": 2881.9329166666575,
      "v": 74
    },
    {
      "midi": 64,
      "hit": false,
      "t": 124166.1699999994,
      "d": 1631.9379166666622,
      "v": 76
    },
    {
      "midi": 69,
      "hit": false,
      "t": 124166.1699999994,
      "d": 2256.93541666666,
      "v": 76
    },
    {
      "midi": 65,
      "hit": false,
      "t": 124166.1699999994,
      "d": 2465.267916666664,
      "v": 78
    },
    {
      "midi": 62,
      "hit": false,
      "t": 125832.82999999939,
      "d": 798.607916666675,
      "v": 68
    },
    {
      "midi": 48,
      "hit": false,
      "t": 125832.82999999962,
      "d": 815.9689583333384,
      "v": 91
    },
    {
      "midi": 64,
      "hit": false,
      "t": 126666.15999999939,
      "d": 798.6079166666605,
      "v": 76
    },
    {
      "midi": 46,
      "hit": false,
      "t": 126666.15999999939,
      "d": 3090.265416666618,
      "v": 59
    },
    {
      "midi": 46,
      "hit": false,
      "t": 126666.15999999963,
      "d": 6649.278958333336,
      "v": 106
    },
    {
      "midi": 58,
      "hit": false,
      "t": 127082.82499999939,
      "d": 798.6079166666605,
      "v": 68
    },
    {
      "midi": 53,
      "hit": false,
      "t": 127499.48999999938,
      "d": 798.6079166666605,
      "v": 77
    },
    {
      "midi": 58,
      "hit": false,
      "t": 127916.15499999937,
      "d": 798.6079166666605,
      "v": 68
    },
    {
      "midi": 65,
      "hit": false,
      "t": 128332.81999999937,
      "d": 798.6079166666605,
      "v": 76
    },
    {
      "midi": 58,
      "hit": false,
      "t": 128749.48499999936,
      "d": 798.6079166666605,
      "v": 69
    },
    {
      "midi": 53,
      "hit": false,
      "t": 129166.14999999935,
      "d": 798.6079166666605,
      "v": 72
    },
    {
      "midi": 58,
      "hit": false,
      "t": 129582.81499999935,
      "d": 798.6079166666605,
      "v": 74
    },
    {
      "midi": 65,
      "hit": false,
      "t": 129999.47999999934,
      "d": 798.6079166666605,
      "v": 76
    },
    {
      "midi": 46,
      "hit": false,
      "t": 129999.47999999934,
      "d": 3090.265416666545,
      "v": 59
    },
    {
      "midi": 58,
      "hit": false,
      "t": 130416.14499999933,
      "d": 798.6079166666459,
      "v": 67
    },
    {
      "midi": 53,
      "hit": false,
      "t": 130832.80999999933,
      "d": 798.6079166666314,
      "v": 69
    },
    {
      "midi": 58,
      "hit": false,
      "t": 131249.4749999993,
      "d": 798.6079166666314,
      "v": 66
    },
    {
      "midi": 62,
      "hit": false,
      "t": 131666.1399999993,
      "d": 798.6079166666314,
      "v": 76
    },
    {
      "midi": 58,
      "hit": false,
      "t": 132082.80499999927,
      "d": 798.6079166666314,
      "v": 66
    },
    {
      "midi": 53,
      "hit": false,
      "t": 132499.46999999924,
      "d": 798.6079166666314,
      "v": 74
    },
    {
      "midi": 58,
      "hit": false,
      "t": 132916.13499999922,
      "d": 798.6079166666314,
      "v": 70
    },
    {
      "midi": 53,
      "hit": false,
      "t": 133332.7999999992,
      "d": 3298.597916666651,
      "v": 55
    },
    {
      "midi": 60,
      "hit": false,
      "t": 133749.46499999918,
      "d": 2881.932916666672,
      "v": 73
    },
    {
      "midi": 48,
      "hit": false,
      "t": 133749.46499999962,
      "d": 607.6364583333489,
      "v": 98
    },
    {
      "midi": 67,
      "hit": false,
      "t": 134166.1299999992,
      "d": 1840.2704166666663,
      "v": 78
    },
    {
      "midi": 69,
      "hit": false,
      "t": 134166.1299999992,
      "d": 2465.267916666664,
      "v": 76
    },
    {
      "midi": 72,
      "hit": false,
      "t": 134166.1299999992,
      "d": 2465.267916666664,
      "v": 76
    },
    {
      "midi": 53,
      "hit": false,
      "t": 134166.12999999963,
      "d": 399.30395833333023,
      "v": 98
    },
    {
      "midi": 55,
      "hit": false,
      "t": 134582.79499999963,
      "d": 399.30395833333023,
      "v": 90
    },
    {
      "midi": 57,
      "hit": false,
      "t": 134999.45999999964,
      "d": 399.30395833333023,
      "v": 97
    },
    {
      "midi": 55,
      "hit": false,
      "t": 135416.12499999965,
      "d": 399.30395833333023,
      "v": 94
    },
    {
      "midi": 65,
      "hit": false,
      "t": 135832.7899999992,
      "d": 1006.94041666665,
      "v": 70
    },
    {
      "midi": 53,
      "hit": false,
      "t": 135832.78999999966,
      "d": 399.30395833333023,
      "v": 98
    },
    {
      "midi": 48,
      "hit": false,
      "t": 136249.45499999967,
      "d": 399.30395833333023,
      "v": 98
    },
    {
      "midi": 50,
      "hit": false,
      "t": 136666.11999999918,
      "d": 3090.2654166666907,
      "v": 77
    },
    {
      "midi": 50,
      "hit": false,
      "t": 136666.11999999968,
      "d": 3315.958958333329,
      "v": 108
    },
    {
      "midi": 57,
      "hit": false,
      "t": 137082.7849999992,
      "d": 2881.932916666672,
      "v": 72
    },
    {
      "midi": 64,
      "hit": false,
      "t": 137499.4499999992,
      "d": 1631.9379166666768,
      "v": 76
    },
    {
      "midi": 65,
      "hit": false,
      "t": 137499.4499999992,
      "d": 2465.267916666664,
      "v": 72
    },
    {
      "midi": 69,
      "hit": false,
      "t": 137499.4499999992,
      "d": 2465.267916666664,
      "v": 74
    },
    {
      "midi": 62,
      "hit": false,
      "t": 139166.1099999992,
      "d": 798.6079166666605,
      "v": 69
    },
    {
      "midi": 53,
      "hit": false,
      "t": 139999.4399999992,
      "d": 3298.5979166666802,
      "v": 76
    },
    {
      "midi": 60,
      "hit": false,
      "t": 140416.1049999992,
      "d": 2881.932916666672,
      "v": 74
    },
    {
      "midi": 48,
      "hit": false,
      "t": 140416.10499999966,
      "d": 2482.628958333371,
      "v": 95
    },
    {
      "midi": 67,
      "hit": false,
      "t": 140832.7699999992,
      "d": 1631.9379166666768,
      "v": 77
    },
    {
      "midi": 69,
      "hit": false,
      "t": 140832.7699999992,
      "d": 2465.267916666664,
      "v": 76
    },
    {
      "midi": 72,
      "hit": false,
      "t": 140832.7699999992,
      "d": 2465.267916666664,
      "v": 73
    },
    {
      "midi": 53,
      "hit": false,
      "t": 140832.76999999967,
      "d": 399.30395833333023,
      "v": 102
    },
    {
      "midi": 55,
      "hit": false,
      "t": 141249.43499999968,
      "d": 399.30395833333023,
      "v": 98
    },
    {
      "midi": 57,
      "hit": false,
      "t": 141666.0999999997,
      "d": 399.30395833333023,
      "v": 97
    },
    {
      "midi": 55,
      "hit": false,
      "t": 142082.7649999997,
      "d": 399.30395833333023,
      "v": 95
    },
    {
      "midi": 65,
      "hit": false,
      "t": 142499.4299999992,
      "d": 798.6079166666605,
      "v": 74
    },
    {
      "midi": 53,
      "hit": false,
      "t": 142499.4299999997,
      "d": 399.30395833333023,
      "v": 95
    },
    {
      "midi": 48,
      "hit": false,
      "t": 142916.0949999997,
      "d": 399.30395833333023,
      "v": 91
    },
    {
      "midi": 50,
      "hit": false,
      "t": 143332.7599999992,
      "d": 3298.5979166666802,
      "v": 76
    },
    {
      "midi": 50,
      "hit": false,
      "t": 143332.75999999972,
      "d": 3315.958958333329,
      "v": 97
    },
    {
      "midi": 57,
      "hit": false,
      "t": 143749.4249999992,
      "d": 2881.932916666672,
      "v": 73
    },
    {
      "midi": 64,
      "hit": false,
      "t": 144166.0899999992,
      "d": 1631.9379166666768,
      "v": 76
    },
    {
      "midi": 69,
      "hit": false,
      "t": 144166.0899999992,
      "d": 2256.9354166666744,
      "v": 74
    },
    {
      "midi": 65,
      "hit": false,
      "t": 144166.0899999992,
      "d": 2465.267916666664,
      "v": 74
    },
    {
      "midi": 62,
      "hit": false,
      "t": 145832.7499999992,
      "d": 798.6079166666605,
      "v": 69
    },
    {
      "midi": 64,
      "hit": false,
      "t": 146666.0799999992,
      "d": 798.6079166666605,
      "v": 76
    },
    {
      "midi": 46,
      "hit": false,
      "t": 146666.0799999992,
      "d": 3090.265416666545,
      "v": 59
    },
    {
      "midi": 46,
      "hit": false,
      "t": 146666.07999999973,
      "d": 6649.278958333336,
      "v": 106
    },
    {
      "midi": 58,
      "hit": false,
      "t": 147082.7449999992,
      "d": 798.6079166666314,
      "v": 68
    },
    {
      "midi": 53,
      "hit": false,
      "t": 147499.4099999992,
      "d": 798.6079166666314,
      "v": 77
    },
    {
      "midi": 58,
      "hit": false,
      "t": 147916.07499999917,
      "d": 798.6079166666314,
      "v": 68
    },
    {
      "midi": 65,
      "hit": false,
      "t": 148332.73999999915,
      "d": 798.6079166666314,
      "v": 76
    },
    {
      "midi": 58,
      "hit": false,
      "t": 148749.40499999913,
      "d": 798.6079166666314,
      "v": 69
    },
    {
      "midi": 53,
      "hit": false,
      "t": 149166.0699999991,
      "d": 798.6079166666314,
      "v": 72
    },
    {
      "midi": 58,
      "hit": false,
      "t": 149582.73499999908,
      "d": 798.6079166666314,
      "v": 74
    },
    {
      "midi": 67,
      "hit": false,
      "t": 149999.39999999906,
      "d": 798.6079166666314,
      "v": 76
    },
    {
      "midi": 46,
      "hit": false,
      "t": 149999.39999999906,
      "d": 3090.265416666516,
      "v": 59
    },
    {
      "midi": 58,
      "hit": false,
      "t": 150416.06499999904,
      "d": 798.6079166666314,
      "v": 67
    },
    {
      "midi": 53,
      "hit": false,
      "t": 150832.72999999902,
      "d": 798.6079166666314,
      "v": 69
    },
    {
      "midi": 58,
      "hit": false,
      "t": 151249.394999999,
      "d": 798.6079166666314,
      "v": 66
    },
    {
      "midi": 62,
      "hit": false,
      "t": 151666.05999999898,
      "d": 798.6079166666314,
      "v": 76
    },
    {
      "midi": 58,
      "hit": false,
      "t": 152082.72499999896,
      "d": 798.6079166666314,
      "v": 66
    },
    {
      "midi": 53,
      "hit": false,
      "t": 152499.38999999894,
      "d": 798.6079166666314,
      "v": 74
    },
    {
      "midi": 58,
      "hit": false,
      "t": 152916.05499999892,
      "d": 798.6079166666314,
      "v": 70
    },
    {
      "midi": 53,
      "hit": false,
      "t": 153332.7199999989,
      "d": 3298.597916666651,
      "v": 55
    },
    {
      "midi": 60,
      "hit": false,
      "t": 153749.38499999887,
      "d": 2881.932916666672,
      "v": 73
    },
    {
      "midi": 48,
      "hit": false,
      "t": 153749.38499999972,
      "d": 607.6364583333489,
      "v": 98
    },
    {
      "midi": 67,
      "hit": false,
      "t": 154166.04999999888,
      "d": 1840.2704166666663,
      "v": 78
    },
    {
      "midi": 69,
      "hit": false,
      "t": 154166.04999999888,
      "d": 2465.267916666664,
      "v": 76
    },
    {
      "midi": 72,
      "hit": false,
      "t": 154166.04999999888,
      "d": 2465.267916666664,
      "v": 76
    },
    {
      "midi": 53,
      "hit": false,
      "t": 154166.04999999973,
      "d": 399.30395833333023,
      "v": 98
    },
    {
      "midi": 55,
      "hit": false,
      "t": 154582.71499999973,
      "d": 399.30395833333023,
      "v": 90
    },
    {
      "midi": 57,
      "hit": false,
      "t": 154999.37999999974,
      "d": 399.30395833333023,
      "v": 97
    },
    {
      "midi": 55,
      "hit": false,
      "t": 155416.04499999975,
      "d": 399.30395833333023,
      "v": 94
    },
    {
      "midi": 65,
      "hit": false,
      "t": 155832.7099999989,
      "d": 1006.94041666665,
      "v": 70
    },
    {
      "midi": 53,
      "hit": false,
      "t": 155832.70999999976,
      "d": 399.30395833333023,
      "v": 98
    },
    {
      "midi": 48,
      "hit": false,
      "t": 156249.37499999977,
      "d": 399.30395833333023,
      "v": 98
    },
    {
      "midi": 50,
      "hit": false,
      "t": 156666.03999999887,
      "d": 3090.2654166666907,
      "v": 77
    },
    {
      "midi": 50,
      "hit": false,
      "t": 156666.03999999978,
      "d": 3315.958958333329,
      "v": 108
    },
    {
      "midi": 57,
      "hit": false,
      "t": 157082.70499999888,
      "d": 2881.932916666672,
      "v": 72
    },
    {
      "midi": 64,
      "hit": false,
      "t": 157499.3699999989,
      "d": 1631.9379166666768,
      "v": 76
    },
    {
      "midi": 65,
      "hit": false,
      "t": 157499.3699999989,
      "d": 2465.267916666664,
      "v": 72
    },
    {
      "midi": 69,
      "hit": false,
      "t": 157499.3699999989,
      "d": 2465.267916666664,
      "v": 74
    },
    {
      "midi": 62,
      "hit": false,
      "t": 159166.0299999989,
      "d": 798.6079166666605,
      "v": 69
    },
    {
      "midi": 53,
      "hit": false,
      "t": 159999.35999999888,
      "d": 3298.5979166666802,
      "v": 76
    },
    {
      "midi": 60,
      "hit": false,
      "t": 160416.0249999989,
      "d": 2881.932916666672,
      "v": 74
    },
    {
      "midi": 48,
      "hit": false,
      "t": 160416.02499999976,
      "d": 2482.628958333371,
      "v": 95
    },
    {
      "midi": 67,
      "hit": false,
      "t": 160832.6899999989,
      "d": 1631.9379166666768,
      "v": 77
    },
    {
      "midi": 69,
      "hit": false,
      "t": 160832.6899999989,
      "d": 2465.267916666664,
      "v": 76
    },
    {
      "midi": 72,
      "hit": false,
      "t": 160832.6899999989,
      "d": 2465.267916666664,
      "v": 73
    },
    {
      "midi": 53,
      "hit": false,
      "t": 160832.68999999977,
      "d": 399.30395833333023,
      "v": 102
    },
    {
      "midi": 55,
      "hit": false,
      "t": 161249.35499999978,
      "d": 399.30395833333023,
      "v": 98
    },
    {
      "midi": 57,
      "hit": false,
      "t": 161666.0199999998,
      "d": 399.30395833333023,
      "v": 97
    },
    {
      "midi": 55,
      "hit": false,
      "t": 162082.6849999998,
      "d": 399.30395833333023,
      "v": 95
    },
    {
      "midi": 65,
      "hit": false,
      "t": 162499.3499999989,
      "d": 798.6079166666605,
      "v": 74
    },
    {
      "midi": 53,
      "hit": false,
      "t": 162499.3499999998,
      "d": 399.30395833333023,
      "v": 95
    },
    {
      "midi": 48,
      "hit": false,
      "t": 162916.0149999998,
      "d": 399.30395833333023,
      "v": 91
    },
    {
      "midi": 50,
      "hit": false,
      "t": 163332.6799999989,
      "d": 3298.5979166666802,
      "v": 76
    },
    {
      "midi": 50,
      "hit": false,
      "t": 163332.67999999982,
      "d": 3315.958958333329,
      "v": 97
    },
    {
      "midi": 57,
      "hit": false,
      "t": 163749.3449999989,
      "d": 2881.932916666672,
      "v": 73
    },
    {
      "midi": 64,
      "hit": false,
      "t": 164166.0099999989,
      "d": 1631.9379166666768,
      "v": 76
    },
    {
      "midi": 69,
      "hit": false,
      "t": 164166.0099999989,
      "d": 2256.9354166666744,
      "v": 74
    },
    {
      "midi": 65,
      "hit": false,
      "t": 164166.0099999989,
      "d": 2465.267916666664,
      "v": 74
    },
    {
      "midi": 62,
      "hit": false,
      "t": 165832.6699999989,
      "d": 798.6079166666605,
      "v": 69
    },
    {
      "midi": 60,
      "hit": false,
      "t": 166665.9999999989,
      "d": 1215.2729166666686,
      "v": 77
    },
    {
      "midi": 46,
      "hit": false,
      "t": 166665.9999999989,
      "d": 3090.2654166666034,
      "v": 76
    },
    {
      "midi": 46,
      "hit": false,
      "t": 166665.99999999983,
      "d": 3315.958958333329,
      "v": 93
    },
    {
      "midi": 58,
      "hit": false,
      "t": 167082.6649999989,
      "d": 798.6079166666605,
      "v": 78
    },
    {
      "midi": 53,
      "hit": false,
      "t": 167499.3299999989,
      "d": 381.9429166666523,
      "v": 77
    },
    {
      "midi": 62,
      "hit": false,
      "t": 167915.9949999989,
      "d": 2048.6029166665976,
      "v": 83
    },
    {
      "midi": 58,
      "hit": false,
      "t": 168332.6599999989,
      "d": 381.9429166666523,
      "v": 76
    },
    {
      "midi": 53,
      "hit": false,
      "t": 168749.32499999888,
      "d": 381.9429166666523,
      "v": 74
    },
    {
      "midi": 58,
      "hit": false,
      "t": 169165.98999999886,
      "d": 381.9429166666523,
      "v": 81
    },
    {
      "midi": 53,
      "hit": false,
      "t": 169582.65499999883,
      "d": 381.9429166666523,
      "v": 76
    },
    {
      "midi": 60,
      "hit": false,
      "t": 169999.3199999988,
      "d": 1215.2729166666686,
      "v": 85
    },
    {
      "midi": 46,
      "hit": false,
      "t": 169999.3199999988,
      "d": 3090.2654166666034,
      "v": 70
    },
    {
      "midi": 46,
      "hit": false,
      "t": 169999.31999999983,
      "d": 3315.958958333329,
      "v": 96
    },
    {
      "midi": 58,
      "hit": false,
      "t": 170415.98499999882,
      "d": 798.6079166666605,
      "v": 79
    },
    {
      "midi": 53,
      "hit": false,
      "t": 170832.64999999883,
      "d": 381.9429166666523,
      "v": 83
    },
    {
      "midi": 62,
      "hit": false,
      "t": 171249.3149999988,
      "d": 2048.6029166665976,
      "v": 79
    },
    {
      "midi": 58,
      "hit": false,
      "t": 171665.97999999882,
      "d": 381.9429166666523,
      "v": 74
    },
    {
      "midi": 53,
      "hit": false,
      "t": 172082.6449999988,
      "d": 381.9429166666523,
      "v": 74
    },
    {
      "midi": 58,
      "hit": false,
      "t": 172499.30999999878,
      "d": 381.9429166666523,
      "v": 81
    },
    {
      "midi": 53,
      "hit": false,
      "t": 172915.97499999875,
      "d": 381.9429166666523,
      "v": 76
    },
    {
      "midi": 60,
      "hit": false,
      "t": 173332.63999999873,
      "d": 1215.2729166666686,
      "v": 76
    },
    {
      "midi": 46,
      "hit": false,
      "t": 173332.63999999873,
      "d": 3090.2654166666034,
      "v": 74
    },
    {
      "midi": 46,
      "hit": false,
      "t": 173332.63999999984,
      "d": 3315.958958333329,
      "v": 97
    },
    {
      "midi": 58,
      "hit": false,
      "t": 173749.30499999874,
      "d": 798.6079166666605,
      "v": 76
    },
    {
      "midi": 53,
      "hit": false,
      "t": 174165.96999999875,
      "d": 381.9429166666523,
      "v": 74
    },
    {
      "midi": 62,
      "hit": false,
      "t": 174582.63499999873,
      "d": 1631.9379166666185,
      "v": 79
    },
    {
      "midi": 58,
      "hit": false,
      "t": 174999.29999999874,
      "d": 381.9429166666523,
      "v": 77
    },
    {
      "midi": 53,
      "hit": false,
      "t": 175415.96499999872,
      "d": 381.9429166666523,
      "v": 76
    },
    {
      "midi": 58,
      "hit": false,
      "t": 175832.6299999987,
      "d": 381.9429166666523,
      "v": 81
    },
    {
      "midi": 53,
      "hit": false,
      "t": 176249.29499999867,
      "d": 381.9429166666523,
      "v": 74
    },
    {
      "midi": 62,
      "hit": false,
      "t": 176665.95999999865,
      "d": 1215.2729166666395,
      "v": 76
    },
    {
      "midi": 46,
      "hit": false,
      "t": 176665.95999999865,
      "d": 3298.597916666564,
      "v": 76
    },
    {
      "midi": 46,
      "hit": false,
      "t": 176665.95999999985,
      "d": 3315.958958333329,
      "v": 95
    },
    {
      "midi": 58,
      "hit": false,
      "t": 177082.62499999866,
      "d": 381.9429166666523,
      "v": 74
    },
    {
      "midi": 53,
      "hit": false,
      "t": 177499.28999999864,
      "d": 798.6079166666314,
      "v": 76
    },
    {
      "midi": 58,
      "hit": false,
      "t": 177915.95499999862,
      "d": 381.9429166666523,
      "v": 79
    },
    {
      "midi": 62,
      "hit": false,
      "t": 178332.6199999986,
      "d": 1631.9379166666185,
      "v": 79
    },
    {
      "midi": 58,
      "hit": false,
      "t": 178749.2849999986,
      "d": 381.9429166666523,
      "v": 76
    },
    {
      "midi": 53,
      "hit": false,
      "t": 179165.9499999986,
      "d": 381.9429166666523,
      "v": 77
    },
    {
      "midi": 58,
      "hit": false,
      "t": 179582.61499999856,
      "d": 381.9429166666523,
      "v": 81
    },
    {
      "midi": 62,
      "hit": false,
      "t": 179999.27999999854,
      "d": 173.6104166666628,
      "v": 83
    },
    {
      "midi": 48,
      "hit": false,
      "t": 179999.27999999854,
      "d": 3090.2654166665743,
      "v": 81
    },
    {
      "midi": 48,
      "hit": false,
      "t": 179999.27999999985,
      "d": 3315.958958333329,
      "v": 95
    },
    {
      "midi": 60,
      "hit": false,
      "t": 180415.94499999855,
      "d": 798.6079166666605,
      "v": 72
    },
    {
      "midi": 55,
      "hit": false,
      "t": 180832.60999999856,
      "d": 798.6079166666314,
      "v": 70
    },
    {
      "midi": 64,
      "hit": false,
      "t": 181249.27499999854,
      "d": 2048.6029166665685,
      "v": 76
    },
    {
      "midi": 60,
      "hit": false,
      "t": 181665.93999999852,
      "d": 381.9429166666523,
      "v": 74
    },
    {
      "midi": 55,
      "hit": false,
      "t": 182082.6049999985,
      "d": 381.9429166666523,
      "v": 74
    },
    {
      "midi": 60,
      "hit": false,
      "t": 182499.26999999848,
      "d": 381.9429166666523,
      "v": 74
    },
    {
      "midi": 55,
      "hit": false,
      "t": 182915.93499999846,
      "d": 381.9429166666523,
      "v": 69
    },
    {
      "midi": 62,
      "hit": false,
      "t": 183332.59999999843,
      "d": 1215.2729166666686,
      "v": 81
    },
    {
      "midi": 48,
      "hit": false,
      "t": 183332.59999999843,
      "d": 3090.2654166665743,
      "v": 74
    },
    {
      "midi": 48,
      "hit": false,
      "t": 183332.59999999986,
      "d": 3315.958958333329,
      "v": 96
    },
    {
      "midi": 60,
      "hit": false,
      "t": 183749.26499999844,
      "d": 798.6079166666605,
      "v": 70
    },
    {
      "midi": 55,
      "hit": false,
      "t": 184165.92999999845,
      "d": 798.6079166666314,
      "v": 70
    },
    {
      "midi": 64,
      "hit": false,
      "t": 184582.59499999843,
      "d": 1840.270416666579,
      "v": 76
    },
    {
      "midi": 60,
      "hit": false,
      "t": 184999.2599999984,
      "d": 381.9429166666523,
      "v": 73
    },
    {
      "midi": 55,
      "hit": false,
      "t": 185415.9249999984,
      "d": 381.9429166666523,
      "v": 73
    },
    {
      "midi": 60,
      "hit": false,
      "t": 185832.58999999837,
      "d": 381.9429166666523,
      "v": 70
    },
    {
      "midi": 55,
      "hit": false,
      "t": 186249.25499999835,
      "d": 381.9429166666523,
      "v": 74
    },
    {
      "midi": 64,
      "hit": false,
      "t": 186665.91999999832,
      "d": 1215.2729166666395,
      "v": 81
    },
    {
      "midi": 48,
      "hit": false,
      "t": 186665.91999999832,
      "d": 3090.265416666545,
      "v": 73
    },
    {
      "midi": 48,
      "hit": false,
      "t": 186665.91999999987,
      "d": 3315.958958333329,
      "v": 95
    },
    {
      "midi": 60,
      "hit": false,
      "t": 187082.58499999833,
      "d": 381.9429166666523,
      "v": 69
    },
    {
      "midi": 55,
      "hit": false,
      "t": 187499.2499999983,
      "d": 1215.2729166666104,
      "v": 76
    },
    {
      "midi": 60,
      "hit": false,
      "t": 187915.9149999983,
      "d": 381.9429166666523,
      "v": 74
    },
    {
      "midi": 64,
      "hit": false,
      "t": 188332.57999999827,
      "d": 1215.2729166666104,
      "v": 83
    },
    {
      "midi": 60,
      "hit": false,
      "t": 188749.24499999825,
      "d": 381.9429166666523,
      "v": 72
    },
    {
      "midi": 55,
      "hit": false,
      "t": 189165.90999999823,
      "d": 1215.2729166666104,
      "v": 81
    },
    {
      "midi": 60,
      "hit": false,
      "t": 189582.5749999982,
      "d": 381.9429166666523,
      "v": 76
    },
    {
      "midi": 64,
      "hit": false,
      "t": 189999.2399999982,
      "d": 1215.2729166666104,
      "v": 79
    },
    {
      "midi": 48,
      "hit": false,
      "t": 189999.2399999982,
      "d": 3298.5979166665056,
      "v": 76
    },
    {
      "midi": 48,
      "hit": false,
      "t": 189999.23999999987,
      "d": 3315.958958333329,
      "v": 98
    },
    {
      "midi": 60,
      "hit": false,
      "t": 190415.90499999817,
      "d": 381.9429166666523,
      "v": 73
    },
    {
      "midi": 55,
      "hit": false,
      "t": 190832.56999999814,
      "d": 1215.2729166666104,
      "v": 78
    },
    {
      "midi": 60,
      "hit": false,
      "t": 191249.23499999812,
      "d": 381.9429166666523,
      "v": 76
    },
    {
      "midi": 64,
      "hit": false,
      "t": 191665.8999999981,
      "d": 1631.9379166665894,
      "v": 83
    },
    {
      "midi": 60,
      "hit": false,
      "t": 192082.56499999808,
      "d": 381.9429166666523,
      "v": 74
    },
    {
      "midi": 55,
      "hit": false,
      "t": 192499.22999999806,
      "d": 381.9429166666523,
      "v": 74
    },
    {
      "midi": 60,
      "hit": false,
      "t": 192915.89499999804,
      "d": 381.9429166666523,
      "v": 70
    },
    {
      "midi": 53,
      "hit": false,
      "t": 193332.55999999802,
      "d": 3090.2654166666907,
      "v": 83
    },
    {
      "midi": 60,
      "hit": false,
      "t": 193749.22499999803,
      "d": 2881.932916666672,
      "v": 77
    },
    {
      "midi": 48,
      "hit": false,
      "t": 193749.22499999986,
      "d": 2482.628958333371,
      "v": 92
    },
    {
      "midi": 67,
      "hit": false,
      "t": 194165.88999999803,
      "d": 1631.9379166666768,
      "v": 85
    },
    {
      "midi": 69,
      "hit": false,
      "t": 194165.88999999803,
      "d": 2465.267916666664,
      "v": 77
    },
    {
      "midi": 72,
      "hit": false,
      "t": 194165.88999999803,
      "d": 2465.267916666664,
      "v": 76
    },
    {
      "midi": 53,
      "hit": false,
      "t": 194165.88999999987,
      "d": 399.30395833333023,
      "v": 102
    },
    {
      "midi": 55,
      "hit": false,
      "t": 194582.55499999988,
      "d": 399.30395833333023,
      "v": 94
    },
    {
      "midi": 57,
      "hit": false,
      "t": 194999.21999999988,
      "d": 399.30395833333023,
      "v": 89
    },
    {
      "midi": 55,
      "hit": false,
      "t": 195415.8849999999,
      "d": 399.30395833333023,
      "v": 91
    },
    {
      "midi": 65,
      "hit": false,
      "t": 195832.54999999804,
      "d": 798.6079166666605,
      "v": 72
    },
    {
      "midi": 53,
      "hit": false,
      "t": 195832.5499999999,
      "d": 399.30395833333023,
      "v": 96
    },
    {
      "midi": 48,
      "hit": false,
      "t": 196249.2149999999,
      "d": 399.30395833333023,
      "v": 91
    },
    {
      "midi": 50,
      "hit": false,
      "t": 196665.87999999803,
      "d": 3090.2654166666907,
      "v": 85
    },
    {
      "midi": 50,
      "hit": false,
      "t": 196665.87999999992,
      "d": 3315.958958333329,
      "v": 96
    },
    {
      "midi": 57,
      "hit": false,
      "t": 197082.54499999803,
      "d": 2881.932916666672,
      "v": 85
    },
    {
      "midi": 64,
      "hit": false,
      "t": 197499.20999999804,
      "d": 1631.9379166666768,
      "v": 81
    },
    {
      "midi": 65,
      "hit": false,
      "t": 197499.20999999804,
      "d": 2465.267916666664,
      "v": 76
    },
    {
      "midi": 69,
      "hit": false,
      "t": 197499.20999999804,
      "d": 2465.267916666664,
      "v": 77
    },
    {
      "midi": 62,
      "hit": false,
      "t": 199165.86999999805,
      "d": 798.6079166666605,
      "v": 69
    },
    {
      "midi": 53,
      "hit": false,
      "t": 199999.19999999803,
      "d": 3298.5979166666802,
      "v": 81
    },
    {
      "midi": 60,
      "hit": false,
      "t": 200415.86499999804,
      "d": 2881.932916666672,
      "v": 79
    },
    {
      "midi": 48,
      "hit": false,
      "t": 200415.8649999999,
      "d": 2482.628958333371,
      "v": 92
    },
    {
      "midi": 67,
      "hit": false,
      "t": 200832.52999999805,
      "d": 2048.602916666656,
      "v": 79
    },
    {
      "midi": 69,
      "hit": false,
      "t": 200832.52999999805,
      "d": 2673.6004166666535,
      "v": 77
    },
    {
      "midi": 72,
      "hit": false,
      "t": 200832.52999999805,
      "d": 2673.6004166666535,
      "v": 76
    },
    {
      "midi": 53,
      "hit": false,
      "t": 200832.5299999999,
      "d": 399.30395833333023,
      "v": 102
    },
    {
      "midi": 55,
      "hit": false,
      "t": 201249.19499999992,
      "d": 399.30395833333023,
      "v": 94
    },
    {
      "midi": 57,
      "hit": false,
      "t": 201665.85999999993,
      "d": 399.30395833333023,
      "v": 89
    },
    {
      "midi": 55,
      "hit": false,
      "t": 202082.52499999994,
      "d": 399.30395833333023,
      "v": 91
    },
    {
      "midi": 65,
      "hit": false,
      "t": 202499.18999999805,
      "d": 1006.94041666665,
      "v": 74
    },
    {
      "midi": 53,
      "hit": false,
      "t": 202499.18999999994,
      "d": 399.30395833333023,
      "v": 96
    },
    {
      "midi": 48,
      "hit": false,
      "t": 202915.85499999995,
      "d": 399.30395833333023,
      "v": 91
    },
    {
      "midi": 50,
      "hit": false,
      "t": 203332.51999999804,
      "d": 3090.2654166666907,
      "v": 78
    },
    {
      "midi": 50,
      "hit": false,
      "t": 203332.51999999996,
      "d": 3315.958958333329,
      "v": 96
    },
    {
      "midi": 57,
      "hit": false,
      "t": 203749.18499999805,
      "d": 2881.932916666672,
      "v": 79
    },
    {
      "midi": 64,
      "hit": false,
      "t": 204165.84999999806,
      "d": 1631.9379166666768,
      "v": 77
    },
    {
      "midi": 65,
      "hit": false,
      "t": 204165.84999999806,
      "d": 2465.267916666664,
      "v": 78
    },
    {
      "midi": 69,
      "hit": false,
      "t": 204165.84999999806,
      "d": 2465.267916666664,
      "v": 76
    },
    {
      "midi": 62,
      "hit": false,
      "t": 205832.50999999806,
      "d": 798.6079166666605,
      "v": 68
    },
    {
      "midi": 62,
      "hit": false,
      "t": 206665.83999999805,
      "d": 1215.2729166666395,
      "v": 76
    },
    {
      "midi": 46,
      "hit": false,
      "t": 206665.83999999805,
      "d": 3090.2654166666034,
      "v": 90
    },
    {
      "midi": 46,
      "hit": false,
      "t": 206665.83999999997,
      "d": 6649.278958333336,
      "v": 84
    },
    {
      "midi": 53,
      "hit": false,
      "t": 207082.50499999805,
      "d": 381.9429166666523,
      "v": 72
    },
    {
      "midi": 58,
      "hit": false,
      "t": 207499.16999999803,
      "d": 1215.2729166666395,
      "v": 74
    },
    {
      "midi": 53,
      "hit": false,
      "t": 207915.834999998,
      "d": 590.2754166666709,
      "v": 71
    },
    {
      "midi": 62,
      "hit": false,
      "t": 208332.49999999802,
      "d": 1423.605416666629,
      "v": 76
    },
    {
      "midi": 53,
      "hit": false,
      "t": 208749.164999998,
      "d": 381.9429166666523,
      "v": 69
    },
    {
      "midi": 58,
      "hit": false,
      "t": 209165.82999999798,
      "d": 798.6079166666605,
      "v": 74
    },
    {
      "midi": 53,
      "hit": false,
      "t": 209582.494999998,
      "d": 381.9429166666523,
      "v": 73
    },
    {
      "midi": 62,
      "hit": false,
      "t": 209999.15999999797,
      "d": 1423.6054166666581,
      "v": 76
    },
    {
      "midi": 46,
      "hit": false,
      "t": 209999.15999999797,
      "d": 3298.597916666622,
      "v": 72
    },
    {
      "midi": 53,
      "hit": false,
      "t": 210415.82499999797,
      "d": 381.9429166666523,
      "v": 72
    },
    {
      "midi": 58,
      "hit": false,
      "t": 210832.48999999795,
      "d": 1215.2729166666686,
      "v": 74
    },
    {
      "midi": 53,
      "hit": false,
      "t": 211249.15499999796,
      "d": 798.6079166666605,
      "v": 76
    },
    {
      "midi": 62,
      "hit": false,
      "t": 211665.81999999797,
      "d": 1423.605416666629,
      "v": 74
    },
    {
      "midi": 53,
      "hit": false,
      "t": 212082.48499999795,
      "d": 381.9429166666523,
      "v": 73
    },
    {
      "midi": 58,
      "hit": false,
      "t": 212499.14999999793,
      "d": 1215.2729166666395,
      "v": 76
    },
    {
      "midi": 53,
      "hit": false,
      "t": 212915.81499999794,
      "d": 590.2754166666418,
      "v": 74
    },
    {
      "midi": 62,
      "hit": false,
      "t": 213332.47999999792,
      "d": 1423.605416666629,
      "v": 74
    },
    {
      "midi": 46,
      "hit": false,
      "t": 213332.47999999792,
      "d": 3090.2654166666034,
      "v": 74
    },
    {
      "midi": 46,
      "hit": false,
      "t": 213332.47999999998,
      "d": 6649.278958333336,
      "v": 82
    },
    {
      "midi": 53,
      "hit": false,
      "t": 213749.1449999979,
      "d": 381.9429166666523,
      "v": 72
    },
    {
      "midi": 58,
      "hit": false,
      "t": 214165.80999999787,
      "d": 1423.6054166666581,
      "v": 76
    },
    {
      "midi": 53,
      "hit": false,
      "t": 214582.47499999788,
      "d": 381.9429166666523,
      "v": 76
    },
    {
      "midi": 62,
      "hit": false,
      "t": 214999.13999999786,
      "d": 1423.6054166666581,
      "v": 74
    },
    {
      "midi": 53,
      "hit": false,
      "t": 215415.80499999787,
      "d": 381.9429166666523,
      "v": 72
    },
    {
      "midi": 58,
      "hit": false,
      "t": 215832.46999999785,
      "d": 1423.6054166666581,
      "v": 72
    },
    {
      "midi": 53,
      "hit": false,
      "t": 216249.13499999786,
      "d": 381.9429166666523,
      "v": 74
    },
    {
      "midi": 62,
      "hit": false,
      "t": 216665.79999999783,
      "d": 1423.6054166666581,
      "v": 74
    },
    {
      "midi": 46,
      "hit": false,
      "t": 216665.79999999783,
      "d": 3506.9304166665825,
      "v": 71
    },
    {
      "midi": 53,
      "hit": false,
      "t": 217082.46499999784,
      "d": 381.9429166666523,
      "v": 74
    },
    {
      "midi": 58,
      "hit": false,
      "t": 217499.12999999782,
      "d": 1215.2729166666395,
      "v": 74
    },
    {
      "midi": 53,
      "hit": false,
      "t": 217915.79499999783,
      "d": 381.9429166666523,
      "v": 73
    },
    {
      "midi": 62,
      "hit": false,
      "t": 218332.4599999978,
      "d": 1631.9379166666185,
      "v": 76
    },
    {
      "midi": 53,
      "hit": false,
      "t": 218749.1249999978,
      "d": 381.9429166666523,
      "v": 74
    },
    {
      "midi": 58,
      "hit": false,
      "t": 219165.78999999777,
      "d": 798.6079166666605,
      "v": 75
    },
    {
      "midi": 53,
      "hit": false,
      "t": 219582.45499999778,
      "d": 381.9429166666523,
      "v": 73
    },
    {
      "midi": 53,
      "hit": false,
      "t": 219999.11999999775,
      "d": 3090.2654166666907,
      "v": 83
    },
    {
      "midi": 60,
      "hit": false,
      "t": 220415.78499999776,
      "d": 2881.932916666672,
      "v": 77
    },
    {
      "midi": 48,
      "hit": false,
      "t": 220415.78499999997,
      "d": 2482.628958333371,
      "v": 92
    },
    {
      "midi": 67,
      "hit": false,
      "t": 220832.44999999777,
      "d": 1631.9379166666768,
      "v": 85
    },
    {
      "midi": 69,
      "hit": false,
      "t": 220832.44999999777,
      "d": 2465.267916666664,
      "v": 77
    },
    {
      "midi": 72,
      "hit": false,
      "t": 220832.44999999777,
      "d": 2465.267916666664,
      "v": 76
    },
    {
      "midi": 53,
      "hit": false,
      "t": 220832.44999999998,
      "d": 399.30395833333023,
      "v": 102
    },
    {
      "midi": 55,
      "hit": false,
      "t": 221249.115,
      "d": 399.30395833333023,
      "v": 94
    },
    {
      "midi": 57,
      "hit": false,
      "t": 221665.78,
      "d": 399.30395833333023,
      "v": 89
    },
    {
      "midi": 55,
      "hit": false,
      "t": 222082.445,
      "d": 399.30395833333023,
      "v": 91
    },
    {
      "midi": 65,
      "hit": false,
      "t": 222499.10999999777,
      "d": 798.6079166666605,
      "v": 72
    },
    {
      "midi": 53,
      "hit": false,
      "t": 222499.11000000002,
      "d": 399.30395833333023,
      "v": 96
    },
    {
      "midi": 48,
      "hit": false,
      "t": 222915.77500000002,
      "d": 399.30395833333023,
      "v": 91
    },
    {
      "midi": 50,
      "hit": false,
      "t": 223332.43999999776,
      "d": 3090.2654166666907,
      "v": 85
    },
    {
      "midi": 50,
      "hit": false,
      "t": 223332.44000000003,
      "d": 3315.958958333329,
      "v": 96
    },
    {
      "midi": 57,
      "hit": false,
      "t": 223749.10499999777,
      "d": 2881.932916666672,
      "v": 85
    },
    {
      "midi": 64,
      "hit": false,
      "t": 224165.76999999778,
      "d": 1631.9379166666768,
      "v": 81
    },
    {
      "midi": 65,
      "hit": false,
      "t": 224165.76999999778,
      "d": 2465.267916666664,
      "v": 76
    },
    {
      "midi": 69,
      "hit": false,
      "t": 224165.76999999778,
      "d": 2465.267916666664,
      "v": 77
    },
    {
      "midi": 62,
      "hit": false,
      "t": 225832.42999999778,
      "d": 798.6079166666605,
      "v": 69
    },
    {
      "midi": 53,
      "hit": false,
      "t": 226665.75999999777,
      "d": 3298.5979166666802,
      "v": 81
    },
    {
      "midi": 60,
      "hit": false,
      "t": 227082.42499999778,
      "d": 2881.932916666672,
      "v": 79
    },
    {
      "midi": 48,
      "hit": false,
      "t": 227082.42500000002,
      "d": 2482.628958333371,
      "v": 92
    },
    {
      "midi": 67,
      "hit": false,
      "t": 227499.08999999778,
      "d": 2048.602916666656,
      "v": 79
    },
    {
      "midi": 69,
      "hit": false,
      "t": 227499.08999999778,
      "d": 2673.6004166666535,
      "v": 77
    },
    {
      "midi": 72,
      "hit": false,
      "t": 227499.08999999778,
      "d": 2673.6004166666535,
      "v": 76
    },
    {
      "midi": 53,
      "hit": false,
      "t": 227499.09000000003,
      "d": 399.30395833333023,
      "v": 102
    },
    {
      "midi": 55,
      "hit": false,
      "t": 227915.75500000003,
      "d": 399.30395833333023,
      "v": 94
    },
    {
      "midi": 57,
      "hit": false,
      "t": 228332.42000000004,
      "d": 399.30395833333023,
      "v": 89
    },
    {
      "midi": 55,
      "hit": false,
      "t": 228749.08500000005,
      "d": 399.30395833333023,
      "v": 91
    },
    {
      "midi": 65,
      "hit": false,
      "t": 229165.7499999978,
      "d": 1006.94041666665,
      "v": 74
    },
    {
      "midi": 53,
      "hit": false,
      "t": 229165.75000000006,
      "d": 399.30395833333023,
      "v": 96
    },
    {
      "midi": 48,
      "hit": false,
      "t": 229582.41500000007,
      "d": 399.30395833333023,
      "v": 91
    },
    {
      "midi": 50,
      "hit": false,
      "t": 229999.07999999778,
      "d": 3090.2654166666907,
      "v": 78
    },
    {
      "midi": 50,
      "hit": false,
      "t": 229999.08000000007,
      "d": 3315.958958333329,
      "v": 96
    },
    {
      "midi": 57,
      "hit": false,
      "t": 230415.74499999778,
      "d": 2881.932916666672,
      "v": 79
    },
    {
      "midi": 64,
      "hit": false,
      "t": 230832.4099999978,
      "d": 1631.9379166666768,
      "v": 77
    },
    {
      "midi": 65,
      "hit": false,
      "t": 230832.4099999978,
      "d": 2465.267916666664,
      "v": 78
    },
    {
      "midi": 69,
      "hit": false,
      "t": 230832.4099999978,
      "d": 2465.267916666664,
      "v": 76
    },
    {
      "midi": 62,
      "hit": false,
      "t": 232499.0699999978,
      "d": 798.6079166666605,
      "v": 68
    },
    {
      "midi": 62,
      "hit": false,
      "t": 233332.39999999778,
      "d": 1215.2729166666395,
      "v": 76
    },
    {
      "midi": 46,
      "hit": false,
      "t": 233332.39999999778,
      "d": 3090.2654166666034,
      "v": 90
    },
    {
      "midi": 46,
      "hit": false,
      "t": 233332.40000000008,
      "d": 6649.278958333336,
      "v": 84
    },
    {
      "midi": 53,
      "hit": false,
      "t": 233749.0649999978,
      "d": 381.9429166666523,
      "v": 72
    },
    {
      "midi": 58,
      "hit": false,
      "t": 234165.72999999777,
      "d": 1215.2729166666395,
      "v": 74
    },
    {
      "midi": 53,
      "hit": false,
      "t": 234582.39499999775,
      "d": 590.2754166666709,
      "v": 71
    },
    {
      "midi": 62,
      "hit": false,
      "t": 234999.05999999776,
      "d": 1423.605416666629,
      "v": 76
    },
    {
      "midi": 53,
      "hit": false,
      "t": 235415.72499999774,
      "d": 381.9429166666523,
      "v": 69
    },
    {
      "midi": 58,
      "hit": false,
      "t": 235832.38999999771,
      "d": 798.6079166666605,
      "v": 74
    },
    {
      "midi": 53,
      "hit": false,
      "t": 236249.05499999772,
      "d": 381.9429166666523,
      "v": 73
    },
    {
      "midi": 62,
      "hit": false,
      "t": 236665.7199999977,
      "d": 1423.6054166666581,
      "v": 76
    },
    {
      "midi": 46,
      "hit": false,
      "t": 236665.7199999977,
      "d": 3298.597916666622,
      "v": 72
    },
    {
      "midi": 53,
      "hit": false,
      "t": 237082.3849999977,
      "d": 381.9429166666523,
      "v": 72
    },
    {
      "midi": 58,
      "hit": false,
      "t": 237499.0499999977,
      "d": 1215.2729166666686,
      "v": 74
    },
    {
      "midi": 53,
      "hit": false,
      "t": 237915.7149999977,
      "d": 798.6079166666605,
      "v": 76
    },
    {
      "midi": 62,
      "hit": false,
      "t": 238332.3799999977,
      "d": 1423.605416666629,
      "v": 74
    },
    {
      "midi": 53,
      "hit": false,
      "t": 238749.04499999768,
      "d": 381.9429166666523,
      "v": 73
    },
    {
      "midi": 58,
      "hit": false,
      "t": 239165.70999999766,
      "d": 1215.2729166666395,
      "v": 76
    },
    {
      "midi": 53,
      "hit": false,
      "t": 239582.37499999767,
      "d": 590.2754166666418,
      "v": 74
    },
    {
      "midi": 62,
      "hit": false,
      "t": 239999.03999999765,
      "d": 1423.605416666629,
      "v": 74
    },
    {
      "midi": 46,
      "hit": false,
      "t": 239999.03999999765,
      "d": 3090.2654166666034,
      "v": 74
    },
    {
      "midi": 46,
      "hit": false,
      "t": 239999.0400000001,
      "d": 6649.278958333336,
      "v": 82
    },
    {
      "midi": 53,
      "hit": false,
      "t": 240415.70499999763,
      "d": 381.9429166666523,
      "v": 72
    },
    {
      "midi": 58,
      "hit": false,
      "t": 240832.3699999976,
      "d": 1423.6054166666581,
      "v": 76
    },
    {
      "midi": 53,
      "hit": false,
      "t": 241249.03499999762,
      "d": 381.9429166666523,
      "v": 76
    },
    {
      "midi": 62,
      "hit": false,
      "t": 241665.6999999976,
      "d": 1423.6054166666581,
      "v": 74
    },
    {
      "midi": 53,
      "hit": false,
      "t": 242082.3649999976,
      "d": 381.9429166666523,
      "v": 72
    },
    {
      "midi": 58,
      "hit": false,
      "t": 242499.02999999758,
      "d": 1423.6054166666581,
      "v": 72
    },
    {
      "midi": 53,
      "hit": false,
      "t": 242915.6949999976,
      "d": 381.9429166666523,
      "v": 74
    },
    {
      "midi": 62,
      "hit": false,
      "t": 243332.35999999757,
      "d": 1423.6054166666581,
      "v": 74
    },
    {
      "midi": 46,
      "hit": false,
      "t": 243332.35999999757,
      "d": 3506.9304166665825,
      "v": 71
    },
    {
      "midi": 53,
      "hit": false,
      "t": 243749.02499999758,
      "d": 381.9429166666523,
      "v": 74
    },
    {
      "midi": 58,
      "hit": false,
      "t": 244165.68999999756,
      "d": 1215.2729166666395,
      "v": 74
    },
    {
      "midi": 53,
      "hit": false,
      "t": 244582.35499999757,
      "d": 381.9429166666523,
      "v": 73
    },
    {
      "midi": 62,
      "hit": false,
      "t": 244999.01999999754,
      "d": 1631.9379166666185,
      "v": 76
    },
    {
      "midi": 53,
      "hit": false,
      "t": 245415.68499999752,
      "d": 381.9429166666523,
      "v": 74
    },
    {
      "midi": 58,
      "hit": false,
      "t": 245832.3499999975,
      "d": 798.6079166666605,
      "v": 75
    },
    {
      "midi": 53,
      "hit": false,
      "t": 246249.0149999975,
      "d": 381.9429166666523,
      "v": 73
    },
    {
      "midi": 53,
      "hit": false,
      "t": 246665.6799999975,
      "d": 3090.2654166666907,
      "v": 83
    },
    {
      "midi": 60,
      "hit": false,
      "t": 247082.3449999975,
      "d": 2881.932916666672,
      "v": 77
    },
    {
      "midi": 48,
      "hit": false,
      "t": 247082.3450000001,
      "d": 2482.628958333371,
      "v": 92
    },
    {
      "midi": 67,
      "hit": false,
      "t": 247499.0099999975,
      "d": 1631.9379166666768,
      "v": 85
    },
    {
      "midi": 69,
      "hit": false,
      "t": 247499.0099999975,
      "d": 2465.267916666664,
      "v": 77
    },
    {
      "midi": 72,
      "hit": false,
      "t": 247499.0099999975,
      "d": 2465.267916666664,
      "v": 76
    },
    {
      "midi": 53,
      "hit": false,
      "t": 247499.0100000001,
      "d": 399.30395833333023,
      "v": 102
    },
    {
      "midi": 55,
      "hit": false,
      "t": 247915.6750000001,
      "d": 399.30395833333023,
      "v": 94
    },
    {
      "midi": 57,
      "hit": false,
      "t": 248332.3400000001,
      "d": 399.30395833333023,
      "v": 89
    },
    {
      "midi": 55,
      "hit": false,
      "t": 248749.00500000012,
      "d": 399.30395833333023,
      "v": 91
    },
    {
      "midi": 65,
      "hit": false,
      "t": 249165.6699999975,
      "d": 798.6079166666605,
      "v": 72
    },
    {
      "midi": 53,
      "hit": false,
      "t": 249165.67000000013,
      "d": 399.30395833333023,
      "v": 96
    },
    {
      "midi": 48,
      "hit": false,
      "t": 249582.33500000014,
      "d": 399.30395833333023,
      "v": 91
    },
    {
      "midi": 50,
      "hit": false,
      "t": 249998.9999999975,
      "d": 3090.2654166666907,
      "v": 85
    },
    {
      "midi": 50,
      "hit": false,
      "t": 249999.00000000015,
      "d": 3315.958958333329,
      "v": 96
    },
    {
      "midi": 57,
      "hit": false,
      "t": 250415.6649999975,
      "d": 2881.932916666672,
      "v": 85
    },
    {
      "midi": 64,
      "hit": false,
      "t": 250832.3299999975,
      "d": 1631.9379166666768,
      "v": 81
    },
    {
      "midi": 65,
      "hit": false,
      "t": 250832.3299999975,
      "d": 2465.267916666664,
      "v": 76
    },
    {
      "midi": 69,
      "hit": false,
      "t": 250832.3299999975,
      "d": 2465.267916666664,
      "v": 77
    },
    {
      "midi": 62,
      "hit": false,
      "t": 252498.98999999752,
      "d": 798.6079166666605,
      "v": 69
    },
    {
      "midi": 53,
      "hit": false,
      "t": 253332.3199999975,
      "d": 3298.5979166666802,
      "v": 81
    },
    {
      "midi": 60,
      "hit": false,
      "t": 253748.9849999975,
      "d": 2881.932916666672,
      "v": 79
    },
    {
      "midi": 48,
      "hit": false,
      "t": 253748.98500000013,
      "d": 2482.628958333371,
      "v": 92
    },
    {
      "midi": 67,
      "hit": false,
      "t": 254165.64999999752,
      "d": 2048.602916666656,
      "v": 79
    },
    {
      "midi": 69,
      "hit": false,
      "t": 254165.64999999752,
      "d": 2673.6004166666535,
      "v": 77
    },
    {
      "midi": 72,
      "hit": false,
      "t": 254165.64999999752,
      "d": 2673.6004166666535,
      "v": 76
    },
    {
      "midi": 53,
      "hit": false,
      "t": 254165.65000000014,
      "d": 399.30395833333023,
      "v": 102
    },
    {
      "midi": 55,
      "hit": false,
      "t": 254582.31500000015,
      "d": 399.30395833333023,
      "v": 94
    },
    {
      "midi": 57,
      "hit": false,
      "t": 254998.98000000016,
      "d": 399.30395833333023,
      "v": 89
    },
    {
      "midi": 55,
      "hit": false,
      "t": 255415.64500000016,
      "d": 399.30395833333023,
      "v": 91
    },
    {
      "midi": 65,
      "hit": false,
      "t": 255832.30999999752,
      "d": 1006.94041666665,
      "v": 74
    },
    {
      "midi": 53,
      "hit": false,
      "t": 255832.31000000017,
      "d": 399.30395833333023,
      "v": 96
    },
    {
      "midi": 48,
      "hit": false,
      "t": 256248.97500000018,
      "d": 399.30395833333023,
      "v": 91
    },
    {
      "midi": 50,
      "hit": false,
      "t": 256665.6399999975,
      "d": 3090.2654166666907,
      "v": 78
    },
    {
      "midi": 50,
      "hit": false,
      "t": 256665.6400000002,
      "d": 3315.958958333329,
      "v": 96
    },
    {
      "midi": 57,
      "hit": false,
      "t": 257082.30499999752,
      "d": 2881.932916666672,
      "v": 79
    },
    {
      "midi": 64,
      "hit": false,
      "t": 257498.96999999753,
      "d": 1631.9379166666768,
      "v": 77
    },
    {
      "midi": 65,
      "hit": false,
      "t": 257498.96999999753,
      "d": 2465.267916666664,
      "v": 78
    },
    {
      "midi": 69,
      "hit": false,
      "t": 257498.96999999753,
      "d": 2465.267916666664,
      "v": 76
    },
    {
      "midi": 62,
      "hit": false,
      "t": 259165.62999999753,
      "d": 798.6079166666605,
      "v": 68
    },
    {
      "midi": 53,
      "hit": false,
      "t": 259998.95999999752,
      "d": 3090.2654166666907,
      "v": 83
    },
    {
      "midi": 60,
      "hit": false,
      "t": 260415.62499999753,
      "d": 2881.932916666701,
      "v": 77
    },
    {
      "midi": 48,
      "hit": false,
      "t": 260415.62500000017,
      "d": 2482.628958333342,
      "v": 92
    },
    {
      "midi": 67,
      "hit": false,
      "t": 260832.28999999753,
      "d": 1631.9379166666768,
      "v": 85
    },
    {
      "midi": 69,
      "hit": false,
      "t": 260832.28999999753,
      "d": 2465.267916666693,
      "v": 77
    },
    {
      "midi": 72,
      "hit": false,
      "t": 260832.28999999753,
      "d": 2465.267916666693,
      "v": 76
    },
    {
      "midi": 53,
      "hit": false,
      "t": 260832.29000000018,
      "d": 399.30395833333023,
      "v": 102
    },
    {
      "midi": 55,
      "hit": false,
      "t": 261248.9550000002,
      "d": 399.30395833333023,
      "v": 94
    },
    {
      "midi": 57,
      "hit": false,
      "t": 261665.6200000002,
      "d": 399.30395833333023,
      "v": 89
    },
    {
      "midi": 55,
      "hit": false,
      "t": 262082.2850000002,
      "d": 399.30395833333023,
      "v": 91
    },
    {
      "midi": 65,
      "hit": false,
      "t": 262498.94999999757,
      "d": 798.6079166666605,
      "v": 72
    },
    {
      "midi": 53,
      "hit": false,
      "t": 262498.9500000002,
      "d": 399.30395833333023,
      "v": 96
    },
    {
      "midi": 48,
      "hit": false,
      "t": 262915.61500000017,
      "d": 399.30395833333023,
      "v": 91
    },
    {
      "midi": 50,
      "hit": false,
      "t": 263332.2799999976,
      "d": 3090.2654166666325,
      "v": 85
    },
    {
      "midi": 50,
      "hit": false,
      "t": 263332.28000000014,
      "d": 3315.958958333358,
      "v": 96
    },
    {
      "midi": 57,
      "hit": false,
      "t": 263748.94499999756,
      "d": 2881.932916666672,
      "v": 85
    },
    {
      "midi": 64,
      "hit": false,
      "t": 264165.60999999754,
      "d": 1631.9379166666768,
      "v": 81
    },
    {
      "midi": 65,
      "hit": false,
      "t": 264165.60999999754,
      "d": 2465.267916666693,
      "v": 76
    },
    {
      "midi": 69,
      "hit": false,
      "t": 264165.60999999754,
      "d": 2465.267916666693,
      "v": 77
    },
    {
      "midi": 62,
      "hit": false,
      "t": 265832.2699999976,
      "d": 798.6079166666605,
      "v": 69
    },
    {
      "midi": 53,
      "hit": false,
      "t": 266665.5999999976,
      "d": 3298.597916666593,
      "v": 81
    },
    {
      "midi": 60,
      "hit": false,
      "t": 267082.26499999757,
      "d": 2881.932916666614,
      "v": 79
    },
    {
      "midi": 48,
      "hit": false,
      "t": 267082.2650000002,
      "d": 2482.6289583332255,
      "v": 92
    },
    {
      "midi": 67,
      "hit": false,
      "t": 267498.92999999755,
      "d": 2048.602916666656,
      "v": 79
    },
    {
      "midi": 69,
      "hit": false,
      "t": 267498.92999999755,
      "d": 2673.6004166666535,
      "v": 77
    },
    {
      "midi": 72,
      "hit": false,
      "t": 267498.92999999755,
      "d": 2673.6004166666535,
      "v": 76
    },
    {
      "midi": 53,
      "hit": false,
      "t": 267498.93000000017,
      "d": 399.30395833333023,
      "v": 102
    },
    {
      "midi": 55,
      "hit": false,
      "t": 267915.59500000015,
      "d": 399.30395833333023,
      "v": 94
    },
    {
      "midi": 57,
      "hit": false,
      "t": 268332.2600000001,
      "d": 399.30395833333023,
      "v": 89
    },
    {
      "midi": 55,
      "hit": false,
      "t": 268748.9250000001,
      "d": 399.30395833333023,
      "v": 91
    },
    {
      "midi": 65,
      "hit": false,
      "t": 269165.5899999975,
      "d": 1006.9404166666791,
      "v": 74
    },
    {
      "midi": 53,
      "hit": false,
      "t": 269165.5900000001,
      "d": 399.30395833333023,
      "v": 96
    },
    {
      "midi": 48,
      "hit": false,
      "t": 269582.25500000006,
      "d": 399.30395833333023,
      "v": 91
    },
    {
      "midi": 50,
      "hit": false,
      "t": 269998.91999999754,
      "d": 3090.2654166666325,
      "v": 78
    },
    {
      "midi": 50,
      "hit": false,
      "t": 269998.92000000004,
      "d": 3315.958958333358,
      "v": 96
    },
    {
      "midi": 57,
      "hit": false,
      "t": 270415.5849999975,
      "d": 2881.932916666672,
      "v": 79
    },
    {
      "midi": 64,
      "hit": false,
      "t": 270832.2499999975,
      "d": 1631.9379166666768,
      "v": 77
    },
    {
      "midi": 65,
      "hit": false,
      "t": 270832.2499999975,
      "d": 2465.267916666693,
      "v": 78
    },
    {
      "midi": 69,
      "hit": false,
      "t": 270832.2499999975,
      "d": 2465.267916666693,
      "v": 76
    },
    {
      "midi": 62,
      "hit": false,
      "t": 272498.90999999753,
      "d": 798.6079166666605,
      "v": 68
    },
    {
      "midi": 53,
      "hit": false,
      "t": 273332.23999999755,
      "d": 3090.2654166666325,
      "v": 83
    },
    {
      "midi": 60,
      "hit": false,
      "t": 273748.9049999975,
      "d": 2881.932916666672,
      "v": 77
    },
    {
      "midi": 48,
      "hit": false,
      "t": 273748.9050000001,
      "d": 2482.6289583332255,
      "v": 92
    },
    {
      "midi": 67,
      "hit": false,
      "t": 274165.5699999975,
      "d": 1631.9379166666768,
      "v": 85
    },
    {
      "midi": 69,
      "hit": false,
      "t": 274165.5699999975,
      "d": 2465.267916666693,
      "v": 77
    },
    {
      "midi": 72,
      "hit": false,
      "t": 274165.5699999975,
      "d": 2465.267916666693,
      "v": 76
    },
    {
      "midi": 53,
      "hit": false,
      "t": 274165.57000000007,
      "d": 399.30395833333023,
      "v": 102
    },
    {
      "midi": 55,
      "hit": false,
      "t": 274582.23500000004,
      "d": 399.30395833333023,
      "v": 94
    },
    {
      "midi": 57,
      "hit": false,
      "t": 274998.9,
      "d": 399.30395833333023,
      "v": 89
    },
    {
      "midi": 55,
      "hit": false,
      "t": 275415.565,
      "d": 399.30395833333023,
      "v": 91
    },
    {
      "midi": 65,
      "hit": false,
      "t": 275832.22999999754,
      "d": 798.6079166666605,
      "v": 72
    },
    {
      "midi": 53,
      "hit": false,
      "t": 275832.23,
      "d": 399.30395833333023,
      "v": 96
    },
    {
      "midi": 48,
      "hit": false,
      "t": 276248.89499999996,
      "d": 399.30395833333023,
      "v": 91
    },
    {
      "midi": 50,
      "hit": false,
      "t": 276665.55999999755,
      "d": 3090.2654166666325,
      "v": 85
    },
    {
      "midi": 50,
      "hit": false,
      "t": 276665.55999999994,
      "d": 3315.958958333358,
      "v": 96
    },
    {
      "midi": 57,
      "hit": false,
      "t": 277082.22499999753,
      "d": 2881.932916666672,
      "v": 85
    },
    {
      "midi": 64,
      "hit": false,
      "t": 277498.8899999975,
      "d": 1631.9379166666768,
      "v": 81
    },
    {
      "midi": 65,
      "hit": false,
      "t": 277498.8899999975,
      "d": 2465.267916666693,
      "v": 76
    },
    {
      "midi": 69,
      "hit": false,
      "t": 277498.8899999975,
      "d": 2465.267916666693,
      "v": 77
    },
    {
      "midi": 62,
      "hit": false,
      "t": 279165.54999999754,
      "d": 798.6079166666605,
      "v": 69
    },
    {
      "midi": 53,
      "hit": false,
      "t": 279998.87999999756,
      "d": 3298.597916666593,
      "v": 81
    },
    {
      "midi": 60,
      "hit": false,
      "t": 280415.54499999754,
      "d": 2881.932916666614,
      "v": 79
    },
    {
      "midi": 48,
      "hit": false,
      "t": 280415.545,
      "d": 2482.6289583332255,
      "v": 92
    },
    {
      "midi": 67,
      "hit": false,
      "t": 280832.2099999975,
      "d": 2048.602916666656,
      "v": 79
    },
    {
      "midi": 69,
      "hit": false,
      "t": 280832.2099999975,
      "d": 2673.6004166666535,
      "v": 77
    },
    {
      "midi": 72,
      "hit": false,
      "t": 280832.2099999975,
      "d": 2673.6004166666535,
      "v": 76
    },
    {
      "midi": 53,
      "hit": false,
      "t": 280832.20999999996,
      "d": 399.30395833333023,
      "v": 102
    },
    {
      "midi": 55,
      "hit": false,
      "t": 281248.87499999994,
      "d": 399.30395833333023,
      "v": 94
    },
    {
      "midi": 57,
      "hit": false,
      "t": 281665.5399999999,
      "d": 399.30395833333023,
      "v": 89
    },
    {
      "midi": 55,
      "hit": false,
      "t": 282082.2049999999,
      "d": 399.30395833333023,
      "v": 91
    },
    {
      "midi": 65,
      "hit": false,
      "t": 282498.8699999975,
      "d": 1006.9404166666791,
      "v": 74
    },
    {
      "midi": 53,
      "hit": false,
      "t": 282498.8699999999,
      "d": 399.30395833333023,
      "v": 96
    },
    {
      "midi": 48,
      "hit": false,
      "t": 282915.53499999986,
      "d": 399.30395833333023,
      "v": 91
    },
    {
      "midi": 50,
      "hit": false,
      "t": 283332.1999999975,
      "d": 3090.2654166666325,
      "v": 78
    },
    {
      "midi": 50,
      "hit": false,
      "t": 283332.19999999984,
      "d": 3315.958958333358,
      "v": 96
    },
    {
      "midi": 57,
      "hit": false,
      "t": 283748.8649999975,
      "d": 2881.932916666672,
      "v": 79
    },
    {
      "midi": 64,
      "hit": false,
      "t": 284165.52999999747,
      "d": 1631.9379166666768,
      "v": 77
    },
    {
      "midi": 65,
      "hit": false,
      "t": 284165.52999999747,
      "d": 2465.267916666693,
      "v": 78
    },
    {
      "midi": 69,
      "hit": false,
      "t": 284165.52999999747,
      "d": 2465.267916666693,
      "v": 76
    },
    {
      "midi": 62,
      "hit": false,
      "t": 285832.1899999975,
      "d": 798.6079166666605,
      "v": 68
    },
    {
      "midi": 53,
      "hit": false,
      "t": 286665.5199999975,
      "d": 3090.2654166666325,
      "v": 83
    },
    {
      "midi": 60,
      "hit": false,
      "t": 287082.1849999975,
      "d": 2881.932916666672,
      "v": 77
    },
    {
      "midi": 48,
      "hit": false,
      "t": 287082.1849999999,
      "d": 2482.6289583332255,
      "v": 92
    },
    {
      "midi": 67,
      "hit": false,
      "t": 287498.8499999975,
      "d": 1631.9379166666768,
      "v": 85
    },
    {
      "midi": 69,
      "hit": false,
      "t": 287498.8499999975,
      "d": 2465.267916666693,
      "v": 77
    },
    {
      "midi": 72,
      "hit": false,
      "t": 287498.8499999975,
      "d": 2465.267916666693,
      "v": 76
    },
    {
      "midi": 53,
      "hit": false,
      "t": 287498.84999999986,
      "d": 399.30395833333023,
      "v": 102
    },
    {
      "midi": 55,
      "hit": false,
      "t": 287915.51499999984,
      "d": 399.30395833333023,
      "v": 94
    },
    {
      "midi": 57,
      "hit": false,
      "t": 288332.1799999998,
      "d": 399.30395833333023,
      "v": 89
    },
    {
      "midi": 55,
      "hit": false,
      "t": 288748.8449999998,
      "d": 399.30395833333023,
      "v": 91
    },
    {
      "midi": 65,
      "hit": false,
      "t": 289165.5099999975,
      "d": 798.6079166666605,
      "v": 72
    },
    {
      "midi": 53,
      "hit": false,
      "t": 289165.5099999998,
      "d": 399.30395833333023,
      "v": 96
    },
    {
      "midi": 48,
      "hit": false,
      "t": 289582.17499999976,
      "d": 399.30395833333023,
      "v": 91
    },
    {
      "midi": 50,
      "hit": false,
      "t": 289998.8399999975,
      "d": 3090.2654166666325,
      "v": 85
    },
    {
      "midi": 50,
      "hit": false,
      "t": 289998.83999999973,
      "d": 3315.958958333358,
      "v": 96
    },
    {
      "midi": 57,
      "hit": false,
      "t": 290415.5049999975,
      "d": 2881.932916666672,
      "v": 85
    },
    {
      "midi": 64,
      "hit": false,
      "t": 290832.1699999975,
      "d": 1631.9379166666768,
      "v": 81
    },
    {
      "midi": 65,
      "hit": false,
      "t": 290832.1699999975,
      "d": 2465.267916666693,
      "v": 76
    },
    {
      "midi": 69,
      "hit": false,
      "t": 290832.1699999975,
      "d": 2465.267916666693,
      "v": 77
    },
    {
      "midi": 62,
      "hit": false,
      "t": 292498.8299999975,
      "d": 798.6079166666605,
      "v": 69
    },
    {
      "midi": 53,
      "hit": false,
      "t": 293332.15999999753,
      "d": 3298.597916666593,
      "v": 81
    },
    {
      "midi": 60,
      "hit": false,
      "t": 293748.8249999975,
      "d": 2881.932916666614,
      "v": 79
    },
    {
      "midi": 48,
      "hit": false,
      "t": 293748.8249999998,
      "d": 2482.6289583332255,
      "v": 92
    },
    {
      "midi": 67,
      "hit": false,
      "t": 294165.4899999975,
      "d": 2048.602916666656,
      "v": 79
    },
    {
      "midi": 69,
      "hit": false,
      "t": 294165.4899999975,
      "d": 2673.6004166666535,
      "v": 77
    },
    {
      "midi": 72,
      "hit": false,
      "t": 294165.4899999975,
      "d": 2673.6004166666535,
      "v": 76
    },
    {
      "midi": 53,
      "hit": false,
      "t": 294165.48999999976,
      "d": 399.30395833333023,
      "v": 102
    },
    {
      "midi": 55,
      "hit": false,
      "t": 294582.15499999974,
      "d": 399.30395833333023,
      "v": 94
    },
    {
      "midi": 57,
      "hit": false,
      "t": 294998.8199999997,
      "d": 399.30395833333023,
      "v": 89
    },
    {
      "midi": 55,
      "hit": false,
      "t": 295415.4849999997,
      "d": 399.30395833333023,
      "v": 91
    },
    {
      "midi": 65,
      "hit": false,
      "t": 295832.14999999746,
      "d": 1006.9404166666791,
      "v": 74
    },
    {
      "midi": 53,
      "hit": false,
      "t": 295832.1499999997,
      "d": 399.30395833333023,
      "v": 96
    },
    {
      "midi": 48,
      "hit": false,
      "t": 296248.81499999965,
      "d": 399.30395833333023,
      "v": 91
    },
    {
      "midi": 50,
      "hit": false,
      "t": 296665.4799999975,
      "d": 3090.2654166666325,
      "v": 78
    },
    {
      "midi": 50,
      "hit": false,
      "t": 296665.47999999963,
      "d": 3315.958958333358,
      "v": 96
    },
    {
      "midi": 57,
      "hit": false,
      "t": 297082.14499999746,
      "d": 2881.932916666672,
      "v": 79
    },
    {
      "midi": 64,
      "hit": false,
      "t": 297498.80999999744,
      "d": 1631.9379166666768,
      "v": 77
    },
    {
      "midi": 65,
      "hit": false,
      "t": 297498.80999999744,
      "d": 2465.267916666693,
      "v": 78
    },
    {
      "midi": 69,
      "hit": false,
      "t": 297498.80999999744,
      "d": 2465.267916666693,
      "v": 76
    },
    {
      "midi": 62,
      "hit": false,
      "t": 299165.46999999747,
      "d": 798.6079166666605,
      "v": 68
    },
    {
      "midi": 53,
      "hit": false,
      "t": 299998.7999999975,
      "d": 6215.252916665806,
      "v": 81
    },
    {
      "midi": 60,
      "hit": false,
      "t": 299998.7999999975,
      "d": 6215.252916665806,
      "v": 79
    },
    {
      "midi": 67,
      "hit": false,
      "t": 299998.7999999975,
      "d": 6215.252916665806,
      "v": 79
    },
    {
      "midi": 69,
      "hit": false,
      "t": 299998.7999999975,
      "d": 6215.252916665806,
      "v": 77
    },
    {
      "midi": 72,
      "hit": false,
      "t": 299998.7999999975,
      "d": 6215.252916665806,
      "v": 76
    },
    {
      "midi": 41,
      "hit": false,
      "t": 299998.79999999964,
      "d": 6249.974999999162,
      "v": 96
    }
  ]
}