{
  "jsonPath": "Unknown/Unknown/4 Clubbers/try-and-try.json",
  "path": "Unknown\\Unknown\\4 Clubbers\\Try And Try.mid",
  "name": "Try And Try",
  "difficulty": "Advanced",
  "bpm": 136.0001450668214,
  "notes": [
    {
      "midi": 59,
      "hit": false,
      "t": 2630.9714583333334,
      "d": 4299.1682083333335,
      "v": 125
    },
    {
      "midi": 33,
      "hit": false,
      "t": 2640.162625,
      "d": 4419.802270833346,
      "v": 86
    },
    {
      "midi": 80,
      "hit": false,
      "t": 2644.758208333333,
      "d": 2122.0106041666672,
      "v": 100
    },
    {
      "midi": 66,
      "hit": false,
      "t": 2659.693854166667,
      "d": 2519.5285624999997,
      "v": 15
    },
    {
      "midi": 72,
      "hit": false,
      "t": 2666.587229166667,
      "d": 2517.2307708333333,
      "v": 26
    },
    {
      "midi": 60,
      "hit": false,
      "t": 2675.7783958333334,
      "d": 2499.9973333333332,
      "v": 25
    },
    {
      "midi": 60,
      "hit": false,
      "t": 5219.433770833333,
      "d": 1633.729875,
      "v": 75
    },
    {
      "midi": 72,
      "hit": false,
      "t": 5234.369416666666,
      "d": 1618.7942291666668,
      "v": 85
    },
    {
      "midi": 66,
      "hit": false,
      "t": 5234.369416666666,
      "d": 1623.3898125000005,
      "v": 96
    },
    {
      "midi": 65,
      "hit": false,
      "t": 7058.816,
      "d": 456.11164583333357,
      "v": 114
    },
    {
      "midi": 62,
      "hit": false,
      "t": 7058.816,
      "d": 474.4939791666666,
      "v": 123
    },
    {
      "midi": 57,
      "hit": false,
      "t": 7058.816,
      "d": 476.79177083333343,
      "v": 111
    },
    {
      "midi": 38,
      "hit": false,
      "t": 7058.816,
      "d": 1618.7942291666686,
      "v": 98
    },
    {
      "midi": 38,
      "hit": false,
      "t": 7058.816,
      "d": 1747.4705624999997,
      "v": 70
    },
    {
      "midi": 57,
      "hit": false,
      "t": 7058.816,
      "d": 1764.7039999999988,
      "v": 70
    },
    {
      "midi": 62,
      "hit": false,
      "t": 7058.816,
      "d": 1764.7039999999988,
      "v": 70
    },
    {
      "midi": 65,
      "hit": false,
      "t": 7058.816,
      "d": 1764.7039999999988,
      "v": 70
    },
    {
      "midi": 98,
      "hit": false,
      "t": 7058.816,
      "d": 180.376645833333,
      "v": 127
    },
    {
      "midi": 70,
      "hit": false,
      "t": 7058.816000000001,
      "d": 110.29399999999987,
      "v": 101
    },
    {
      "midi": 70,
      "hit": false,
      "t": 7169.110000000001,
      "d": 110.29399999999987,
      "v": 101
    },
    {
      "midi": 70,
      "hit": false,
      "t": 7279.404,
      "d": 110.29399999999987,
      "v": 101
    },
    {
      "midi": 70,
      "hit": false,
      "t": 7389.698,
      "d": 110.29399999999987,
      "v": 101
    },
    {
      "midi": 70,
      "hit": false,
      "t": 7499.992,
      "d": 110.29399999999987,
      "v": 101
    },
    {
      "midi": 50,
      "hit": false,
      "t": 7499.992,
      "d": 382.5823124999997,
      "v": 90
    },
    {
      "midi": 70,
      "hit": false,
      "t": 7610.286,
      "d": 110.29399999999987,
      "v": 101
    },
    {
      "midi": 70,
      "hit": false,
      "t": 7720.58,
      "d": 110.29399999999987,
      "v": 101
    },
    {
      "midi": 62,
      "hit": false,
      "t": 7720.58,
      "d": 449.2182708333339,
      "v": 111
    },
    {
      "midi": 65,
      "hit": false,
      "t": 7720.58,
      "d": 449.2182708333339,
      "v": 109
    },
    {
      "midi": 57,
      "hit": false,
      "t": 7720.58,
      "d": 460.7072291666673,
      "v": 100
    },
    {
      "midi": 57,
      "hit": false,
      "t": 7720.58,
      "d": 111.44289583333375,
      "v": 104
    },
    {
      "midi": 70,
      "hit": false,
      "t": 7830.874,
      "d": 110.29399999999987,
      "v": 101
    },
    {
      "midi": 70,
      "hit": false,
      "t": 7941.168,
      "d": 110.29399999999987,
      "v": 101
    },
    {
      "midi": 98,
      "hit": false,
      "t": 7941.168,
      "d": 180.376645833333,
      "v": 78
    },
    {
      "midi": 65,
      "hit": false,
      "t": 7941.168000000001,
      "d": 144.76087499999994,
      "v": 104
    },
    {
      "midi": 70,
      "hit": false,
      "t": 8051.4619999999995,
      "d": 110.29399999999987,
      "v": 101
    },
    {
      "midi": 70,
      "hit": false,
      "t": 8161.755999999999,
      "d": 110.29399999999987,
      "v": 101
    },
    {
      "midi": 50,
      "hit": false,
      "t": 8161.756,
      "d": 374.540041666668,
      "v": 90
    },
    {
      "midi": 64,
      "hit": false,
      "t": 8161.756,
      "d": 253.90597916666684,
      "v": 110
    },
    {
      "midi": 70,
      "hit": false,
      "t": 8272.05,
      "d": 110.29399999999987,
      "v": 101
    },
    {
      "midi": 70,
      "hit": false,
      "t": 8382.344,
      "d": 110.29399999999987,
      "v": 101
    },
    {
      "midi": 57,
      "hit": false,
      "t": 8382.344000000001,
      "d": 344.6687500000007,
      "v": 107
    },
    {
      "midi": 65,
      "hit": false,
      "t": 8382.344000000001,
      "d": 372.24225000000115,
      "v": 104
    },
    {
      "midi": 62,
      "hit": false,
      "t": 8382.344000000001,
      "d": 382.5823125000006,
      "v": 114
    },
    {
      "midi": 70,
      "hit": false,
      "t": 8492.637999999999,
      "d": 110.29399999999987,
      "v": 101
    },
    {
      "midi": 70,
      "hit": false,
      "t": 8602.931999999999,
      "d": 110.29399999999987,
      "v": 101
    },
    {
      "midi": 64,
      "hit": false,
      "t": 8602.932,
      "d": 310.20187500000065,
      "v": 113
    },
    {
      "midi": 70,
      "hit": false,
      "t": 8713.225999999999,
      "d": 110.29399999999987,
      "v": 101
    },
    {
      "midi": 34,
      "hit": false,
      "t": 8784.457541666667,
      "d": 1795.7241874999982,
      "v": 70
    },
    {
      "midi": 70,
      "hit": false,
      "t": 8823.519999999999,
      "d": 110.29399999999987,
      "v": 101
    },
    {
      "midi": 58,
      "hit": false,
      "t": 8823.519999999999,
      "d": 1764.7039999999997,
      "v": 70
    },
    {
      "midi": 62,
      "hit": false,
      "t": 8823.519999999999,
      "d": 1764.7039999999997,
      "v": 70
    },
    {
      "midi": 65,
      "hit": false,
      "t": 8823.519999999999,
      "d": 1764.7039999999997,
      "v": 70
    },
    {
      "midi": 98,
      "hit": false,
      "t": 8823.519999999999,
      "d": 180.3766458333339,
      "v": 50
    },
    {
      "midi": 65,
      "hit": false,
      "t": 8823.520000000002,
      "d": 402.1135416666675,
      "v": 107
    },
    {
      "midi": 58,
      "hit": false,
      "t": 8823.520000000002,
      "d": 435.4315208333337,
      "v": 99
    },
    {
      "midi": 62,
      "hit": false,
      "t": 8823.520000000002,
      "d": 435.4315208333337,
      "v": 111
    },
    {
      "midi": 34,
      "hit": false,
      "t": 8823.520000000002,
      "d": 1614.1986458333322,
      "v": 87
    },
    {
      "midi": 70,
      "hit": false,
      "t": 8933.813999999998,
      "d": 110.29399999999987,
      "v": 101
    },
    {
      "midi": 70,
      "hit": false,
      "t": 9044.107999999998,
      "d": 110.29399999999987,
      "v": 101
    },
    {
      "midi": 62,
      "hit": false,
      "t": 9044.108000000002,
      "d": 1253.4453541666662,
      "v": 120
    },
    {
      "midi": 70,
      "hit": false,
      "t": 9154.401999999998,
      "d": 110.29399999999987,
      "v": 101
    },
    {
      "midi": 70,
      "hit": false,
      "t": 9264.695999999998,
      "d": 110.29399999999987,
      "v": 101
    },
    {
      "midi": 46,
      "hit": false,
      "t": 9264.696000000002,
      "d": 399.81574999999975,
      "v": 102
    },
    {
      "midi": 70,
      "hit": false,
      "t": 9374.989999999998,
      "d": 110.29399999999987,
      "v": 101
    },
    {
      "midi": 70,
      "hit": false,
      "t": 9485.283999999998,
      "d": 110.29399999999987,
      "v": 101
    },
    {
      "midi": 62,
      "hit": false,
      "t": 9485.284000000001,
      "d": 415.9002916666668,
      "v": 120
    },
    {
      "midi": 65,
      "hit": false,
      "t": 9485.284000000001,
      "d": 421.6447708333326,
      "v": 109
    },
    {
      "midi": 58,
      "hit": false,
      "t": 9485.284000000001,
      "d": 428.53814583333224,
      "v": 106
    },
    {
      "midi": 70,
      "hit": false,
      "t": 9595.577999999998,
      "d": 110.29399999999987,
      "v": 101
    },
    {
      "midi": 70,
      "hit": false,
      "t": 9705.871999999998,
      "d": 110.29399999999987,
      "v": 101
    },
    {
      "midi": 70,
      "hit": false,
      "t": 9816.165999999997,
      "d": 110.29399999999987,
      "v": 101
    },
    {
      "midi": 70,
      "hit": false,
      "t": 9926.459999999997,
      "d": 110.29399999999987,
      "v": 101
    },
    {
      "midi": 46,
      "hit": false,
      "t": 9926.460000000001,
      "d": 548.0233124999995,
      "v": 102
    },
    {
      "midi": 70,
      "hit": false,
      "t": 10036.753999999997,
      "d": 110.29399999999987,
      "v": 101
    },
    {
      "midi": 70,
      "hit": false,
      "t": 10147.047999999997,
      "d": 110.29399999999987,
      "v": 101
    },
    {
      "midi": 64,
      "hit": false,
      "t": 10147.048,
      "d": 190.71670833333337,
      "v": 117
    },
    {
      "midi": 58,
      "hit": false,
      "t": 10147.048,
      "d": 315.9463541666664,
      "v": 102
    },
    {
      "midi": 62,
      "hit": false,
      "t": 10147.048,
      "d": 341.2220624999991,
      "v": 117
    },
    {
      "midi": 70,
      "hit": false,
      "t": 10257.341999999997,
      "d": 110.29399999999987,
      "v": 101
    },
    {
      "midi": 70,
      "hit": false,
      "t": 10367.635999999997,
      "d": 110.29399999999987,
      "v": 101
    },
    {
      "midi": 65,
      "hit": false,
      "t": 10367.636,
      "d": 141.31418750000012,
      "v": 98
    },
    {
      "midi": 65,
      "hit": false,
      "t": 10367.636000000002,
      "d": 149.35645833333365,
      "v": 107
    },
    {
      "midi": 70,
      "hit": false,
      "t": 10477.929999999997,
      "d": 110.29399999999987,
      "v": 101
    },
    {
      "midi": 36,
      "hit": false,
      "t": 10572.139458333331,
      "d": 1742.874979166667,
      "v": 70
    },
    {
      "midi": 70,
      "hit": false,
      "t": 10588.223999999997,
      "d": 110.29399999999987,
      "v": 101
    },
    {
      "midi": 60,
      "hit": false,
      "t": 10588.223999999998,
      "d": 1764.7039999999997,
      "v": 70
    },
    {
      "midi": 64,
      "hit": false,
      "t": 10588.223999999998,
      "d": 1764.7039999999997,
      "v": 70
    },
    {
      "midi": 67,
      "hit": false,
      "t": 10588.223999999998,
      "d": 1764.7039999999997,
      "v": 70
    },
    {
      "midi": 64,
      "hit": false,
      "t": 10588.224,
      "d": 418.19808333333276,
      "v": 111
    },
    {
      "midi": 60,
      "hit": false,
      "t": 10588.224,
      "d": 441.1759999999995,
      "v": 104
    },
    {
      "midi": 67,
      "hit": false,
      "t": 10588.224,
      "d": 459.5583333333325,
      "v": 109
    },
    {
      "midi": 36,
      "hit": false,
      "t": 10588.224,
      "d": 1667.0478541666653,
      "v": 96
    },
    {
      "midi": 67,
      "hit": false,
      "t": 10588.224000000002,
      "d": 315.9463541666664,
      "v": 117
    },
    {
      "midi": 70,
      "hit": false,
      "t": 10698.517999999996,
      "d": 110.29399999999987,
      "v": 101
    },
    {
      "midi": 70,
      "hit": false,
      "t": 10808.811999999996,
      "d": 110.29399999999987,
      "v": 101
    },
    {
      "midi": 70,
      "hit": false,
      "t": 10919.105999999996,
      "d": 110.29399999999987,
      "v": 101
    },
    {
      "midi": 70,
      "hit": false,
      "t": 11029.399999999996,
      "d": 110.29399999999987,
      "v": 101
    },
    {
      "midi": 48,
      "hit": false,
      "t": 11029.4,
      "d": 315.9463541666664,
      "v": 107
    },
    {
      "midi": 67,
      "hit": false,
      "t": 11029.400000000001,
      "d": 275.7350000000006,
      "v": 113
    },
    {
      "midi": 70,
      "hit": false,
      "t": 11139.693999999996,
      "d": 110.29399999999987,
      "v": 101
    },
    {
      "midi": 70,
      "hit": false,
      "t": 11249.987999999996,
      "d": 110.29399999999987,
      "v": 101
    },
    {
      "midi": 60,
      "hit": false,
      "t": 11249.988,
      "d": 449.218270833333,
      "v": 100
    },
    {
      "midi": 67,
      "hit": false,
      "t": 11249.988,
      "d": 456.11164583333266,
      "v": 104
    },
    {
      "midi": 64,
      "hit": false,
      "t": 11249.988,
      "d": 466.45170833333214,
      "v": 109
    },
    {
      "midi": 70,
      "hit": false,
      "t": 11360.281999999996,
      "d": 110.29399999999987,
      "v": 101
    },
    {
      "midi": 70,
      "hit": false,
      "t": 11470.575999999995,
      "d": 110.29399999999987,
      "v": 101
    },
    {
      "midi": 67,
      "hit": false,
      "t": 11470.576000000003,
      "d": 143.61197916666606,
      "v": 113
    },
    {
      "midi": 70,
      "hit": false,
      "t": 11580.869999999995,
      "d": 110.29399999999987,
      "v": 101
    },
    {
      "midi": 70,
      "hit": false,
      "t": 11691.163999999995,
      "d": 110.29399999999987,
      "v": 101
    },
    {
      "midi": 48,
      "hit": false,
      "t": 11691.163999999999,
      "d": 265.3949374999993,
      "v": 102
    },
    {
      "midi": 65,
      "hit": false,
      "t": 11691.164000000002,
      "d": 314.79745833333254,
      "v": 120
    },
    {
      "midi": 70,
      "hit": false,
      "t": 11801.457999999995,
      "d": 110.29399999999987,
      "v": 101
    },
    {
      "midi": 70,
      "hit": false,
      "t": 11911.751999999995,
      "d": 110.29399999999987,
      "v": 101
    },
    {
      "midi": 60,
      "hit": false,
      "t": 11911.751999999999,
      "d": 313.6485625000005,
      "v": 109
    },
    {
      "midi": 67,
      "hit": false,
      "t": 11911.751999999999,
      "d": 317.0952500000003,
      "v": 104
    },
    {
      "midi": 64,
      "hit": false,
      "t": 11911.751999999999,
      "d": 323.98862499999996,
      "v": 117
    },
    {
      "midi": 70,
      "hit": false,
      "t": 12022.045999999995,
      "d": 110.29399999999987,
      "v": 101
    },
    {
      "midi": 70,
      "hit": false,
      "t": 12132.339999999995,
      "d": 110.29399999999987,
      "v": 101
    },
    {
      "midi": 64,
      "hit": false,
      "t": 12132.340000000002,
      "d": 1926.698312500008,
      "v": 120
    },
    {
      "midi": 70,
      "hit": false,
      "t": 12242.633999999995,
      "d": 110.29399999999987,
      "v": 101
    },
    {
      "midi": 33,
      "hit": false,
      "t": 12336.843458333331,
      "d": 1773.8951666666671,
      "v": 70
    },
    {
      "midi": 70,
      "hit": false,
      "t": 12352.927999999994,
      "d": 110.29399999999987,
      "v": 101
    },
    {
      "midi": 57,
      "hit": false,
      "t": 12352.927999999998,
      "d": 428.53814583333406,
      "v": 107
    },
    {
      "midi": 60,
      "hit": false,
      "t": 12352.927999999998,
      "d": 428.53814583333406,
      "v": 111
    },
    {
      "midi": 64,
      "hit": false,
      "t": 12352.927999999998,
      "d": 436.5804166666676,
      "v": 111
    },
    {
      "midi": 33,
      "hit": false,
      "t": 12352.927999999998,
      "d": 1685.4301875,
      "v": 102
    },
    {
      "midi": 57,
      "hit": false,
      "t": 12352.927999999998,
      "d": 1764.7039999999997,
      "v": 70
    },
    {
      "midi": 60,
      "hit": false,
      "t": 12352.927999999998,
      "d": 1764.7039999999997,
      "v": 70
    },
    {
      "midi": 64,
      "hit": false,
      "t": 12352.927999999998,
      "d": 1764.7039999999997,
      "v": 70
    },
    {
      "midi": 70,
      "hit": false,
      "t": 12463.221999999994,
      "d": 110.29399999999987,
      "v": 101
    },
    {
      "midi": 70,
      "hit": false,
      "t": 12573.515999999994,
      "d": 110.29399999999987,
      "v": 101
    },
    {
      "midi": 70,
      "hit": false,
      "t": 12683.809999999994,
      "d": 110.29399999999987,
      "v": 101
    },
    {
      "midi": 70,
      "hit": false,
      "t": 12794.103999999994,
      "d": 110.29399999999987,
      "v": 101
    },
    {
      "midi": 45,
      "hit": false,
      "t": 12794.104,
      "d": 283.7772708333323,
      "v": 111
    },
    {
      "midi": 70,
      "hit": false,
      "t": 12904.397999999994,
      "d": 110.29399999999987,
      "v": 101
    },
    {
      "midi": 70,
      "hit": false,
      "t": 13014.691999999994,
      "d": 110.29399999999987,
      "v": 101
    },
    {
      "midi": 57,
      "hit": false,
      "t": 13014.692,
      "d": 433.13372916666594,
      "v": 102
    },
    {
      "midi": 60,
      "hit": false,
      "t": 13014.692,
      "d": 434.2826249999998,
      "v": 114
    },
    {
      "midi": 64,
      "hit": false,
      "t": 13014.692,
      "d": 461.85612500000025,
      "v": 102
    },
    {
      "midi": 105,
      "hit": false,
      "t": 13014.692,
      "d": 106.84731250000004,
      "v": 127
    },
    {
      "midi": 70,
      "hit": false,
      "t": 13124.985999999994,
      "d": 110.29399999999987,
      "v": 101
    },
    {
      "midi": 70,
      "hit": false,
      "t": 13235.279999999993,
      "d": 110.29399999999987,
      "v": 101
    },
    {
      "midi": 70,
      "hit": false,
      "t": 13345.573999999993,
      "d": 110.29399999999987,
      "v": 101
    },
    {
      "midi": 70,
      "hit": false,
      "t": 13455.867999999993,
      "d": 110.29399999999987,
      "v": 101
    },
    {
      "midi": 45,
      "hit": false,
      "t": 13455.867999999999,
      "d": 206.80125000000044,
      "v": 104
    },
    {
      "midi": 98,
      "hit": false,
      "t": 13455.867999999999,
      "d": 98.80504166666651,
      "v": 127
    },
    {
      "midi": 70,
      "hit": false,
      "t": 13566.161999999993,
      "d": 110.29399999999987,
      "v": 101
    },
    {
      "midi": 70,
      "hit": false,
      "t": 13676.455999999993,
      "d": 110.29399999999987,
      "v": 101
    },
    {
      "midi": 60,
      "hit": false,
      "t": 13676.455999999998,
      "d": 287.22395833333394,
      "v": 114
    },
    {
      "midi": 64,
      "hit": false,
      "t": 13676.455999999998,
      "d": 297.5640208333334,
      "v": 102
    },
    {
      "midi": 57,
      "hit": false,
      "t": 13676.455999999998,
      "d": 298.7129166666673,
      "v": 104
    },
    {
      "midi": 70,
      "hit": false,
      "t": 13786.749999999993,
      "d": 110.29399999999987,
      "v": 101
    },
    {
      "midi": 70,
      "hit": false,
      "t": 13897.043999999993,
      "d": 110.29399999999987,
      "v": 101
    },
    {
      "midi": 45,
      "hit": false,
      "t": 13897.043999999998,
      "d": 175.7810625000002,
      "v": 102
    },
    {
      "midi": 105,
      "hit": false,
      "t": 13897.043999999998,
      "d": 106.84731250000004,
      "v": 78
    },
    {
      "midi": 70,
      "hit": false,
      "t": 14007.337999999992,
      "d": 110.29399999999987,
      "v": 101
    },
    {
      "midi": 38,
      "hit": false,
      "t": 14090.058499999997,
      "d": 1746.3216666666667,
      "v": 70
    },
    {
      "midi": 70,
      "hit": false,
      "t": 14117.631999999992,
      "d": 110.29399999999987,
      "v": 110
    },
    {
      "midi": 57,
      "hit": false,
      "t": 14117.631999999998,
      "d": 402.1135416666675,
      "v": 107
    },
    {
      "midi": 65,
      "hit": false,
      "t": 14117.631999999998,
      "d": 412.453604166667,
      "v": 107
    },
    {
      "midi": 62,
      "hit": false,
      "t": 14117.631999999998,
      "d": 427.3892500000002,
      "v": 117
    },
    {
      "midi": 38,
      "hit": false,
      "t": 14117.631999999998,
      "d": 1623.3898124999996,
      "v": 102
    },
    {
      "midi": 62,
      "hit": false,
      "t": 14117.631999999998,
      "d": 1764.7039999999997,
      "v": 70
    },
    {
      "midi": 65,
      "hit": false,
      "t": 14117.631999999998,
      "d": 1764.7039999999997,
      "v": 70
    },
    {
      "midi": 70,
      "hit": false,
      "t": 14227.925999999992,
      "d": 110.29399999999987,
      "v": 110
    },
    {
      "midi": 70,
      "hit": false,
      "t": 14338.219999999992,
      "d": 110.29399999999987,
      "v": 110
    },
    {
      "midi": 98,
      "hit": false,
      "t": 14338.219999999998,
      "d": 98.80504166666651,
      "v": 78
    },
    {
      "midi": 70,
      "hit": false,
      "t": 14448.513999999992,
      "d": 110.29399999999987,
      "v": 110
    },
    {
      "midi": 70,
      "hit": false,
      "t": 14558.807999999992,
      "d": 110.29399999999987,
      "v": 110
    },
    {
      "midi": 50,
      "hit": false,
      "t": 14558.807999999997,
      "d": 266.54383333333317,
      "v": 102
    },
    {
      "midi": 70,
      "hit": false,
      "t": 14669.101999999992,
      "d": 110.29399999999987,
      "v": 110
    },
    {
      "midi": 70,
      "hit": false,
      "t": 14779.395999999992,
      "d": 110.29399999999987,
      "v": 110
    },
    {
      "midi": 57,
      "hit": false,
      "t": 14779.395999999997,
      "d": 476.79177083333343,
      "v": 109
    },
    {
      "midi": 65,
      "hit": false,
      "t": 14779.395999999997,
      "d": 482.5362499999992,
      "v": 107
    },
    {
      "midi": 62,
      "hit": false,
      "t": 14779.395999999997,
      "d": 497.4718958333324,
      "v": 114
    },
    {
      "midi": 105,
      "hit": false,
      "t": 14779.395999999997,
      "d": 106.84731250000004,
      "v": 50
    },
    {
      "midi": 57,
      "hit": false,
      "t": 14779.39600000001,
      "d": 102.25172916666634,
      "v": 104
    },
    {
      "midi": 70,
      "hit": false,
      "t": 14889.689999999991,
      "d": 110.29399999999987,
      "v": 110
    },
    {
      "midi": 70,
      "hit": false,
      "t": 14999.983999999991,
      "d": 110.29399999999987,
      "v": 110
    },
    {
      "midi": 65,
      "hit": false,
      "t": 14999.98400000001,
      "d": 164.29210416666683,
      "v": 113
    },
    {
      "midi": 70,
      "hit": false,
      "t": 15110.277999999991,
      "d": 110.29399999999987,
      "v": 110
    },
    {
      "midi": 70,
      "hit": false,
      "t": 15220.571999999991,
      "d": 110.29399999999987,
      "v": 110
    },
    {
      "midi": 50,
      "hit": false,
      "t": 15220.571999999996,
      "d": 229.77916666666715,
      "v": 96
    },
    {
      "midi": 98,
      "hit": false,
      "t": 15220.571999999996,
      "d": 98.80504166666651,
      "v": 50
    },
    {
      "midi": 64,
      "hit": false,
      "t": 15220.57200000001,
      "d": 251.60818749999999,
      "v": 120
    },
    {
      "midi": 70,
      "hit": false,
      "t": 15330.86599999999,
      "d": 110.29399999999987,
      "v": 110
    },
    {
      "midi": 70,
      "hit": false,
      "t": 15441.15999999999,
      "d": 110.29399999999987,
      "v": 110
    },
    {
      "midi": 57,
      "hit": false,
      "t": 15441.159999999996,
      "d": 284.926166666668,
      "v": 107
    },
    {
      "midi": 65,
      "hit": false,
      "t": 15441.159999999996,
      "d": 297.56402083333523,
      "v": 109
    },
    {
      "midi": 62,
      "hit": false,
      "t": 15441.159999999996,
      "d": 315.9463541666664,
      "v": 117
    },
    {
      "midi": 70,
      "hit": false,
      "t": 15551.45399999999,
      "d": 110.29399999999987,
      "v": 110
    },
    {
      "midi": 70,
      "hit": false,
      "t": 15661.74799999999,
      "d": 110.29399999999987,
      "v": 110
    },
    {
      "midi": 50,
      "hit": false,
      "t": 15661.747999999998,
      "d": 93.06056249999892,
      "v": 102
    },
    {
      "midi": 64,
      "hit": false,
      "t": 15661.748000000009,
      "d": 275.7350000000006,
      "v": 117
    },
    {
      "midi": 70,
      "hit": false,
      "t": 15772.04199999999,
      "d": 110.29399999999987,
      "v": 110
    },
    {
      "midi": 34,
      "hit": false,
      "t": 15844.422437499998,
      "d": 1732.5349166666674,
      "v": 70
    },
    {
      "midi": 70,
      "hit": false,
      "t": 15882.33599999999,
      "d": 110.29399999999987,
      "v": 110
    },
    {
      "midi": 65,
      "hit": false,
      "t": 15882.335999999996,
      "d": 446.92047916666525,
      "v": 117
    },
    {
      "midi": 62,
      "hit": false,
      "t": 15882.335999999996,
      "d": 458.4094374999986,
      "v": 120
    },
    {
      "midi": 58,
      "hit": false,
      "t": 15882.335999999996,
      "d": 460.70722916666455,
      "v": 106
    },
    {
      "midi": 34,
      "hit": false,
      "t": 15882.335999999996,
      "d": 1619.9431250000016,
      "v": 85
    },
    {
      "midi": 58,
      "hit": false,
      "t": 15882.335999999998,
      "d": 1764.7039999999997,
      "v": 70
    },
    {
      "midi": 62,
      "hit": false,
      "t": 15882.335999999998,
      "d": 1764.7039999999997,
      "v": 70
    },
    {
      "midi": 65,
      "hit": false,
      "t": 15882.335999999998,
      "d": 1764.7039999999997,
      "v": 70
    },
    {
      "midi": 70,
      "hit": false,
      "t": 15992.62999999999,
      "d": 110.29399999999987,
      "v": 110
    },
    {
      "midi": 70,
      "hit": false,
      "t": 16102.92399999999,
      "d": 110.29399999999987,
      "v": 110
    },
    {
      "midi": 62,
      "hit": false,
      "t": 16102.92400000001,
      "d": 261.94824999999946,
      "v": 120
    },
    {
      "midi": 70,
      "hit": false,
      "t": 16213.21799999999,
      "d": 110.29399999999987,
      "v": 110
    },
    {
      "midi": 70,
      "hit": false,
      "t": 16323.51199999999,
      "d": 110.29399999999987,
      "v": 110
    },
    {
      "midi": 46,
      "hit": false,
      "t": 16323.511999999995,
      "d": 334.32868750000125,
      "v": 99
    },
    {
      "midi": 70,
      "hit": false,
      "t": 16433.80599999999,
      "d": 110.29400000000169,
      "v": 110
    },
    {
      "midi": 70,
      "hit": false,
      "t": 16544.09999999999,
      "d": 110.29400000000169,
      "v": 110
    },
    {
      "midi": 62,
      "hit": false,
      "t": 16544.099999999995,
      "d": 458.40943750000224,
      "v": 117
    },
    {
      "midi": 65,
      "hit": false,
      "t": 16544.099999999995,
      "d": 464.15391666666983,
      "v": 114
    },
    {
      "midi": 58,
      "hit": false,
      "t": 16544.099999999995,
      "d": 499.7696875000038,
      "v": 99
    },
    {
      "midi": 62,
      "hit": false,
      "t": 16544.10000000001,
      "d": 257.35266666666575,
      "v": 117
    },
    {
      "midi": 70,
      "hit": false,
      "t": 16654.393999999993,
      "d": 110.29400000000169,
      "v": 110
    },
    {
      "midi": 70,
      "hit": false,
      "t": 16764.687999999995,
      "d": 110.29400000000169,
      "v": 110
    },
    {
      "midi": 70,
      "hit": false,
      "t": 16874.981999999996,
      "d": 110.29400000000169,
      "v": 110
    },
    {
      "midi": 70,
      "hit": false,
      "t": 16985.275999999998,
      "d": 110.29400000000169,
      "v": 110
    },
    {
      "midi": 46,
      "hit": false,
      "t": 16985.275999999998,
      "d": 229.77916666666715,
      "v": 106
    },
    {
      "midi": 60,
      "hit": false,
      "t": 16985.27600000001,
      "d": 280.33058333333247,
      "v": 113
    },
    {
      "midi": 70,
      "hit": false,
      "t": 17095.57,
      "d": 110.29400000000169,
      "v": 110
    },
    {
      "midi": 62,
      "hit": false,
      "t": 17205.863999999998,
      "d": 260.7993541666656,
      "v": 109
    },
    {
      "midi": 65,
      "hit": false,
      "t": 17205.863999999998,
      "d": 267.69272916666523,
      "v": 107
    },
    {
      "midi": 58,
      "hit": false,
      "t": 17205.863999999998,
      "d": 292.9684374999997,
      "v": 106
    },
    {
      "midi": 70,
      "hit": false,
      "t": 17205.864,
      "d": 110.29400000000169,
      "v": 110
    },
    {
      "midi": 70,
      "hit": false,
      "t": 17316.158000000003,
      "d": 110.29400000000169,
      "v": 110
    },
    {
      "midi": 46,
      "hit": false,
      "t": 17426.451999999997,
      "d": 89.6138749999991,
      "v": 106
    },
    {
      "midi": 70,
      "hit": false,
      "t": 17426.452000000005,
      "d": 110.29400000000169,
      "v": 110
    },
    {
      "midi": 60,
      "hit": false,
      "t": 17426.45200000001,
      "d": 738.7400208332947,
      "v": 120
    },
    {
      "midi": 70,
      "hit": false,
      "t": 17536.746000000006,
      "d": 110.29400000000169,
      "v": 110
    },
    {
      "midi": 31,
      "hit": false,
      "t": 17601.084166666664,
      "d": 1781.9374375000007,
      "v": 70
    },
    {
      "midi": 55,
      "hit": false,
      "t": 17647.039999999997,
      "d": 467.600604166666,
      "v": 102
    },
    {
      "midi": 58,
      "hit": false,
      "t": 17647.039999999997,
      "d": 474.49397916666567,
      "v": 110
    },
    {
      "midi": 62,
      "hit": false,
      "t": 17647.039999999997,
      "d": 475.64287499999773,
      "v": 107
    },
    {
      "midi": 31,
      "hit": false,
      "t": 17647.039999999997,
      "d": 1594.6674166666671,
      "v": 104
    },
    {
      "midi": 55,
      "hit": false,
      "t": 17647.039999999997,
      "d": 1764.7040000000015,
      "v": 70
    },
    {
      "midi": 58,
      "hit": false,
      "t": 17647.039999999997,
      "d": 1764.7040000000015,
      "v": 70
    },
    {
      "midi": 62,
      "hit": false,
      "t": 17647.039999999997,
      "d": 1764.7040000000015,
      "v": 70
    },
    {
      "midi": 70,
      "hit": false,
      "t": 17647.040000000008,
      "d": 220.58799999999974,
      "v": 110
    },
    {
      "midi": 34,
      "hit": false,
      "t": 17867.627999999997,
      "d": 70.08264583333221,
      "v": 20
    },
    {
      "midi": 70,
      "hit": false,
      "t": 17867.628000000008,
      "d": 110.29400000000169,
      "v": 110
    },
    {
      "midi": 70,
      "hit": false,
      "t": 17977.92200000001,
      "d": 110.29400000000169,
      "v": 110
    },
    {
      "midi": 43,
      "hit": false,
      "t": 18088.215999999997,
      "d": 289.5217499999999,
      "v": 95
    },
    {
      "midi": 70,
      "hit": false,
      "t": 18088.21600000001,
      "d": 110.29400000000169,
      "v": 110
    },
    {
      "midi": 70,
      "hit": false,
      "t": 18198.510000000013,
      "d": 110.29400000000169,
      "v": 110
    },
    {
      "midi": 58,
      "hit": false,
      "t": 18308.80399999997,
      "d": 79.27381249999962,
      "v": 114
    },
    {
      "midi": 55,
      "hit": false,
      "t": 18308.803999999996,
      "d": 426.2403541666681,
      "v": 109
    },
    {
      "midi": 62,
      "hit": false,
      "t": 18308.803999999996,
      "d": 426.2403541666681,
      "v": 109
    },
    {
      "midi": 58,
      "hit": false,
      "t": 18308.803999999996,
      "d": 445.771583333335,
      "v": 119
    },
    {
      "midi": 70,
      "hit": false,
      "t": 18308.804000000015,
      "d": 110.29400000000169,
      "v": 110
    },
    {
      "midi": 70,
      "hit": false,
      "t": 18419.098000000016,
      "d": 110.29400000000169,
      "v": 110
    },
    {
      "midi": 58,
      "hit": false,
      "t": 18529.39199999997,
      "d": 166.5898958333346,
      "v": 109
    },
    {
      "midi": 70,
      "hit": false,
      "t": 18529.392000000018,
      "d": 110.29400000000169,
      "v": 110
    },
    {
      "midi": 70,
      "hit": false,
      "t": 18639.68600000002,
      "d": 110.29400000000169,
      "v": 110
    },
    {
      "midi": 60,
      "hit": false,
      "t": 18749.97999999997,
      "d": 624.9993333333332,
      "v": 101
    },
    {
      "midi": 43,
      "hit": false,
      "t": 18749.98,
      "d": 219.43910416666404,
      "v": 102
    },
    {
      "midi": 70,
      "hit": false,
      "t": 18749.98000000002,
      "d": 110.29400000000169,
      "v": 110
    },
    {
      "midi": 70,
      "hit": false,
      "t": 18860.274000000023,
      "d": 110.29400000000169,
      "v": 110
    },
    {
      "midi": 55,
      "hit": false,
      "t": 18970.567999999996,
      "d": 234.37474999999904,
      "v": 102
    },
    {
      "midi": 62,
      "hit": false,
      "t": 18970.567999999996,
      "d": 249.31039583333404,
      "v": 104
    },
    {
      "midi": 58,
      "hit": false,
      "t": 18970.567999999996,
      "d": 256.2037708333337,
      "v": 110
    },
    {
      "midi": 70,
      "hit": false,
      "t": 18970.568000000025,
      "d": 110.29400000000169,
      "v": 110
    },
    {
      "midi": 70,
      "hit": false,
      "t": 19080.862000000026,
      "d": 110.29400000000169,
      "v": 110
    },
    {
      "midi": 43,
      "hit": false,
      "t": 19191.155999999995,
      "d": 135.56970833333617,
      "v": 96
    },
    {
      "midi": 70,
      "hit": false,
      "t": 19191.156000000028,
      "d": 110.29400000000169,
      "v": 110
    },
    {
      "midi": 70,
      "hit": false,
      "t": 19301.45000000003,
      "d": 110.29400000000169,
      "v": 110
    },
    {
      "midi": 33,
      "hit": false,
      "t": 19376.128229166665,
      "d": 3331.7979166666664,
      "v": 70
    },
    {
      "midi": 57,
      "hit": false,
      "t": 19411.74399999997,
      "d": 2807.901416666602,
      "v": 113
    },
    {
      "midi": 105,
      "hit": false,
      "t": 19411.743999999995,
      "d": 176.92995833333407,
      "v": 127
    },
    {
      "midi": 93,
      "hit": false,
      "t": 19411.743999999995,
      "d": 182.67443750000166,
      "v": 127
    },
    {
      "midi": 62,
      "hit": false,
      "t": 19411.744,
      "d": 460.70722916666637,
      "v": 114
    },
    {
      "midi": 57,
      "hit": false,
      "t": 19411.744,
      "d": 467.600604166666,
      "v": 104
    },
    {
      "midi": 64,
      "hit": false,
      "t": 19411.744,
      "d": 468.7494999999981,
      "v": 102
    },
    {
      "midi": 33,
      "hit": false,
      "t": 19411.744,
      "d": 3390.39160416666,
      "v": 89
    },
    {
      "midi": 57,
      "hit": false,
      "t": 19411.744,
      "d": 3529.4079999999994,
      "v": 70
    },
    {
      "midi": 62,
      "hit": false,
      "t": 19411.744,
      "d": 3529.4079999999994,
      "v": 70
    },
    {
      "midi": 64,
      "hit": false,
      "t": 19411.744,
      "d": 3529.4079999999994,
      "v": 70
    },
    {
      "midi": 70,
      "hit": false,
      "t": 19411.74400000003,
      "d": 110.29400000000169,
      "v": 110
    },
    {
      "midi": 70,
      "hit": false,
      "t": 19522.038000000033,
      "d": 110.29400000000169,
      "v": 110
    },
    {
      "midi": 70,
      "hit": false,
      "t": 19632.332000000035,
      "d": 110.29400000000169,
      "v": 110
    },
    {
      "midi": 70,
      "hit": false,
      "t": 19742.626000000037,
      "d": 110.29400000000169,
      "v": 110
    },
    {
      "midi": 45,
      "hit": false,
      "t": 19852.92,
      "d": 266.54383333333317,
      "v": 102
    },
    {
      "midi": 70,
      "hit": false,
      "t": 19852.92000000004,
      "d": 110.29400000000169,
      "v": 110
    },
    {
      "midi": 70,
      "hit": false,
      "t": 19963.21400000004,
      "d": 110.29400000000169,
      "v": 110
    },
    {
      "midi": 57,
      "hit": false,
      "t": 20073.507999999998,
      "d": 457.26054166666654,
      "v": 104
    },
    {
      "midi": 62,
      "hit": false,
      "t": 20073.507999999998,
      "d": 460.70722916666637,
      "v": 114
    },
    {
      "midi": 64,
      "hit": false,
      "t": 20073.507999999998,
      "d": 463.00502083333413,
      "v": 102
    },
    {
      "midi": 70,
      "hit": false,
      "t": 20073.50800000004,
      "d": 110.29400000000169,
      "v": 110
    },
    {
      "midi": 70,
      "hit": false,
      "t": 20183.802000000043,
      "d": 110.29400000000169,
      "v": 110
    },
    {
      "midi": 105,
      "hit": false,
      "t": 20294.095999999998,
      "d": 176.92995833333407,
      "v": 78
    },
    {
      "midi": 93,
      "hit": false,
      "t": 20294.095999999998,
      "d": 182.67443750000166,
      "v": 78
    },
    {
      "midi": 70,
      "hit": false,
      "t": 20294.096000000045,
      "d": 110.29400000000169,
      "v": 110
    },
    {
      "midi": 70,
      "hit": false,
      "t": 20404.390000000047,
      "d": 110.29400000000169,
      "v": 110
    },
    {
      "midi": 45,
      "hit": false,
      "t": 20514.683999999997,
      "d": 234.37474999999904,
      "v": 98
    },
    {
      "midi": 70,
      "hit": false,
      "t": 20514.68400000005,
      "d": 110.29400000000169,
      "v": 110
    },
    {
      "midi": 70,
      "hit": false,
      "t": 20624.97800000005,
      "d": 110.29400000000169,
      "v": 110
    },
    {
      "midi": 57,
      "hit": false,
      "t": 20735.271999999997,
      "d": 251.60818749999817,
      "v": 96
    },
    {
      "midi": 62,
      "hit": false,
      "t": 20735.271999999997,
      "d": 256.20377083333005,
      "v": 109
    },
    {
      "midi": 64,
      "hit": false,
      "t": 20735.271999999997,
      "d": 265.39493749999747,
      "v": 102
    },
    {
      "midi": 70,
      "hit": false,
      "t": 20735.27200000005,
      "d": 110.29400000000169,
      "v": 110
    },
    {
      "midi": 70,
      "hit": false,
      "t": 20845.566000000053,
      "d": 110.29400000000169,
      "v": 110
    },
    {
      "midi": 45,
      "hit": false,
      "t": 20955.859999999997,
      "d": 1837.0844374999942,
      "v": 92
    },
    {
      "midi": 70,
      "hit": false,
      "t": 20955.860000000055,
      "d": 110.29400000000169,
      "v": 110
    },
    {
      "midi": 70,
      "hit": false,
      "t": 21066.154000000057,
      "d": 110.29400000000169,
      "v": 110
    },
    {
      "midi": 45,
      "hit": false,
      "t": 21112.109833333332,
      "d": 1596.9652083333312,
      "v": 70
    },
    {
      "midi": 62,
      "hit": false,
      "t": 21176.447999999993,
      "d": 1593.5185208333314,
      "v": 123
    },
    {
      "midi": 64,
      "hit": false,
      "t": 21176.447999999993,
      "d": 1603.858583333331,
      "v": 114
    },
    {
      "midi": 57,
      "hit": false,
      "t": 21176.447999999993,
      "d": 1609.6030624999985,
      "v": 111
    },
    {
      "midi": 105,
      "hit": false,
      "t": 21176.448,
      "d": 176.92995833333407,
      "v": 50
    },
    {
      "midi": 93,
      "hit": false,
      "t": 21176.448,
      "d": 182.67443750000166,
      "v": 50
    },
    {
      "midi": 70,
      "hit": false,
      "t": 21176.44800000006,
      "d": 110.29400000000169,
      "v": 110
    },
    {
      "midi": 70,
      "hit": false,
      "t": 21286.74200000006,
      "d": 110.29400000000169,
      "v": 110
    },
    {
      "midi": 70,
      "hit": false,
      "t": 21397.036000000062,
      "d": 110.29400000000169,
      "v": 110
    },
    {
      "midi": 70,
      "hit": false,
      "t": 21507.330000000064,
      "d": 110.29400000000169,
      "v": 110
    },
    {
      "midi": 70,
      "hit": false,
      "t": 21617.624000000065,
      "d": 110.29400000000169,
      "v": 110
    },
    {
      "midi": 70,
      "hit": false,
      "t": 21727.918000000067,
      "d": 110.29400000000169,
      "v": 110
    },
    {
      "midi": 70,
      "hit": false,
      "t": 21838.21200000007,
      "d": 110.29400000000169,
      "v": 110
    },
    {
      "midi": 70,
      "hit": false,
      "t": 21948.50600000007,
      "d": 110.29400000000169,
      "v": 110
    },
    {
      "midi": 70,
      "hit": false,
      "t": 22058.800000000072,
      "d": 110.29400000000169,
      "v": 110
    },
    {
      "midi": 70,
      "hit": false,
      "t": 22169.094000000074,
      "d": 110.29400000000169,
      "v": 110
    },
    {
      "midi": 70,
      "hit": false,
      "t": 22279.388000000075,
      "d": 110.29400000000169,
      "v": 110
    },
    {
      "midi": 70,
      "hit": false,
      "t": 22389.682000000077,
      "d": 110.29400000000169,
      "v": 110
    },
    {
      "midi": 70,
      "hit": false,
      "t": 22499.97600000008,
      "d": 110.29400000000169,
      "v": 110
    },
    {
      "midi": 70,
      "hit": false,
      "t": 22610.27000000008,
      "d": 110.29400000000169,
      "v": 110
    },
    {
      "midi": 70,
      "hit": false,
      "t": 22720.564000000082,
      "d": 110.29400000000169,
      "v": 110
    },
    {
      "midi": 70,
      "hit": false,
      "t": 22830.858000000084,
      "d": 110.29400000000169,
      "v": 110
    },
    {
      "midi": 62,
      "hit": false,
      "t": 22941.152000000002,
      "d": 220.58799999999974,
      "v": 122
    },
    {
      "midi": 38,
      "hit": false,
      "t": 22941.152000000002,
      "d": 3543.1947499999987,
      "v": 117
    },
    {
      "midi": 57,
      "hit": false,
      "t": 22941.152000000002,
      "d": 101.10283333333427,
      "v": 108
    },
    {
      "midi": 69,
      "hit": false,
      "t": 22941.152000000002,
      "d": 122.93185416666893,
      "v": 108
    },
    {
      "midi": 38,
      "hit": false,
      "t": 22941.152000000002,
      "d": 3523.663520833328,
      "v": 111
    },
    {
      "midi": 57,
      "hit": false,
      "t": 23147.953250000002,
      "d": 245.86370833333422,
      "v": 122
    },
    {
      "midi": 57,
      "hit": false,
      "t": 23147.953250000006,
      "d": 253.90597916666593,
      "v": 110
    },
    {
      "midi": 69,
      "hit": false,
      "t": 23147.953250000006,
      "d": 275.7350000000006,
      "v": 110
    },
    {
      "midi": 62,
      "hit": false,
      "t": 23368.541250000002,
      "d": 245.86370833333422,
      "v": 122
    },
    {
      "midi": 64,
      "hit": false,
      "t": 23589.12925,
      "d": 256.2037708333337,
      "v": 122
    },
    {
      "midi": 57,
      "hit": false,
      "t": 23589.129250000005,
      "d": 103.4006249999984,
      "v": 110
    },
    {
      "midi": 69,
      "hit": false,
      "t": 23589.129250000005,
      "d": 125.22964583333305,
      "v": 110
    },
    {
      "midi": 65,
      "hit": false,
      "t": 23809.71725,
      "d": 263.09714583333334,
      "v": 122
    },
    {
      "midi": 57,
      "hit": false,
      "t": 23809.717250000005,
      "d": 274.5861041666649,
      "v": 110
    },
    {
      "midi": 69,
      "hit": false,
      "t": 23809.717250000005,
      "d": 295.26622916666383,
      "v": 110
    },
    {
      "midi": 64,
      "hit": false,
      "t": 24030.30525,
      "d": 287.2239583333321,
      "v": 122
    },
    {
      "midi": 65,
      "hit": false,
      "t": 24250.89325,
      "d": 255.054874999998,
      "v": 122
    },
    {
      "midi": 57,
      "hit": false,
      "t": 24250.89325,
      "d": 91.91166666666686,
      "v": 110
    },
    {
      "midi": 69,
      "hit": false,
      "t": 24250.89325,
      "d": 109.14510416666599,
      "v": 110
    },
    {
      "midi": 67,
      "hit": false,
      "t": 24471.48125,
      "d": 220.58799999999974,
      "v": 122
    },
    {
      "midi": 69,
      "hit": false,
      "t": 24471.48125,
      "d": 273.4372083333328,
      "v": 110
    },
    {
      "midi": 57,
      "hit": false,
      "t": 24471.48125,
      "d": 281.47947916666453,
      "v": 110
    },
    {
      "midi": 65,
      "hit": false,
      "t": 24692.06925,
      "d": 265.3949375000011,
      "v": 122
    },
    {
      "midi": 67,
      "hit": false,
      "t": 24912.65725,
      "d": 220.58799999999974,
      "v": 122
    },
    {
      "midi": 57,
      "hit": false,
      "t": 24912.65725,
      "d": 104.5495208333341,
      "v": 110
    },
    {
      "midi": 69,
      "hit": false,
      "t": 24912.65725,
      "d": 124.08075000000099,
      "v": 110
    },
    {
      "midi": 69,
      "hit": false,
      "t": 25133.24525,
      "d": 255.054874999998,
      "v": 122
    },
    {
      "midi": 57,
      "hit": false,
      "t": 25133.24525,
      "d": 286.07506250000006,
      "v": 110
    },
    {
      "midi": 69,
      "hit": false,
      "t": 25133.24525,
      "d": 297.5640208333316,
      "v": 110
    },
    {
      "midi": 67,
      "hit": false,
      "t": 25353.83325,
      "d": 269.990520833333,
      "v": 122
    },
    {
      "midi": 65,
      "hit": false,
      "t": 25574.42125,
      "d": 441.1759999999995,
      "v": 122
    },
    {
      "midi": 57,
      "hit": false,
      "t": 25574.42125,
      "d": 253.90597916666593,
      "v": 110
    },
    {
      "midi": 69,
      "hit": false,
      "t": 25574.42125,
      "d": 276.88389583333264,
      "v": 110
    },
    {
      "midi": 64,
      "hit": false,
      "t": 26015.59725,
      "d": 441.1759999999995,
      "v": 122
    },
    {
      "midi": 57,
      "hit": false,
      "t": 26015.59725,
      "d": 264.2460416666654,
      "v": 110
    },
    {
      "midi": 69,
      "hit": false,
      "t": 26015.59725,
      "d": 310.20187499999884,
      "v": 110
    },
    {
      "midi": 62,
      "hit": false,
      "t": 26456.77325,
      "d": 220.58800000000338,
      "v": 122
    },
    {
      "midi": 58,
      "hit": false,
      "t": 26456.77325,
      "d": 135.56970833333253,
      "v": 110
    },
    {
      "midi": 70,
      "hit": false,
      "t": 26456.77325,
      "d": 135.56970833333253,
      "v": 110
    },
    {
      "midi": 34,
      "hit": false,
      "t": 26464.81552083333,
      "d": 3522.5146249999925,
      "v": 117
    },
    {
      "midi": 34,
      "hit": false,
      "t": 26465.964416666666,
      "d": 3512.1745624999967,
      "v": 102
    },
    {
      "midi": 70,
      "hit": false,
      "t": 26677.361249999998,
      "d": 247.01260416666628,
      "v": 110
    },
    {
      "midi": 58,
      "hit": false,
      "t": 26677.361249999998,
      "d": 264.2460416666654,
      "v": 110
    },
    {
      "midi": 58,
      "hit": false,
      "t": 26677.36125,
      "d": 220.58799999999974,
      "v": 122
    },
    {
      "midi": 62,
      "hit": false,
      "t": 26897.94925,
      "d": 241.2681249999987,
      "v": 122
    },
    {
      "midi": 70,
      "hit": false,
      "t": 27118.537249999998,
      "d": 88.46497916666704,
      "v": 110
    },
    {
      "midi": 58,
      "hit": false,
      "t": 27118.537249999998,
      "d": 114.88958333333358,
      "v": 110
    },
    {
      "midi": 64,
      "hit": false,
      "t": 27118.53725,
      "d": 229.77916666666715,
      "v": 122
    },
    {
      "midi": 70,
      "hit": false,
      "t": 27339.125249999997,
      "d": 280.33058333333247,
      "v": 110
    },
    {
      "midi": 58,
      "hit": false,
      "t": 27339.125249999997,
      "d": 288.3728541666642,
      "v": 110
    },
    {
      "midi": 65,
      "hit": false,
      "t": 27339.12525,
      "d": 244.71481249999852,
      "v": 122
    },
    {
      "midi": 64,
      "hit": false,
      "t": 27559.71325,
      "d": 249.31039583333404,
      "v": 122
    },
    {
      "midi": 58,
      "hit": false,
      "t": 27780.301249999993,
      "d": 110.29400000000169,
      "v": 110
    },
    {
      "midi": 70,
      "hit": false,
      "t": 27780.301249999993,
      "d": 110.29400000000169,
      "v": 110
    },
    {
      "midi": 65,
      "hit": false,
      "t": 27780.30125,
      "d": 220.58799999999974,
      "v": 122
    },
    {
      "midi": 70,
      "hit": false,
      "t": 28000.889249999997,
      "d": 269.990520833333,
      "v": 110
    },
    {
      "midi": 58,
      "hit": false,
      "t": 28000.889249999997,
      "d": 282.62837500000023,
      "v": 110
    },
    {
      "midi": 67,
      "hit": false,
      "t": 28000.88925,
      "d": 236.6725416666668,
      "v": 122
    },
    {
      "midi": 65,
      "hit": false,
      "t": 28221.47725,
      "d": 220.58799999999974,
      "v": 122
    },
    {
      "midi": 58,
      "hit": false,
      "t": 28442.065249999996,
      "d": 112.59179166666581,
      "v": 110
    },
    {
      "midi": 70,
      "hit": false,
      "t": 28442.065249999996,
      "d": 121.78295833333323,
      "v": 110
    },
    {
      "midi": 67,
      "hit": false,
      "t": 28442.06525,
      "d": 220.58799999999974,
      "v": 122
    },
    {
      "midi": 70,
      "hit": false,
      "t": 28662.653249999996,
      "d": 248.16149999999834,
      "v": 110
    },
    {
      "midi": 58,
      "hit": false,
      "t": 28662.653249999996,
      "d": 265.39493749999747,
      "v": 110
    },
    {
      "midi": 69,
      "hit": false,
      "t": 28662.65325,
      "d": 272.28831250000076,
      "v": 122
    },
    {
      "midi": 67,
      "hit": false,
      "t": 28883.24125,
      "d": 232.07695833333128,
      "v": 122
    },
    {
      "midi": 70,
      "hit": false,
      "t": 29103.82924999999,
      "d": 259.6504583333335,
      "v": 110
    },
    {
      "midi": 58,
      "hit": false,
      "t": 29103.82924999999,
      "d": 265.3949375000011,
      "v": 110
    },
    {
      "midi": 65,
      "hit": false,
      "t": 29103.82925,
      "d": 441.1759999999995,
      "v": 122
    },
    {
      "midi": 64,
      "hit": false,
      "t": 29338.203999999896,
      "d": 81.57160416666738,
      "v": 120
    },
    {
      "midi": 58,
      "hit": false,
      "t": 29545.00524999999,
      "d": 269.990520833333,
      "v": 110
    },
    {
      "midi": 70,
      "hit": false,
      "t": 29545.00524999999,
      "d": 291.81954166666765,
      "v": 110
    },
    {
      "midi": 64,
      "hit": false,
      "t": 29545.00525,
      "d": 441.17599999999584,
      "v": 122
    },
    {
      "midi": 64,
      "hit": false,
      "t": 29779.379999999896,
      "d": 317.0952499999985,
      "v": 123
    },
    {
      "midi": 38,
      "hit": false,
      "t": 29970.09670833333,
      "d": 3547.7903333333234,
      "v": 122
    },
    {
      "midi": 57,
      "hit": false,
      "t": 29986.18124999999,
      "d": 87.31608333333133,
      "v": 110
    },
    {
      "midi": 69,
      "hit": false,
      "t": 29986.18124999999,
      "d": 106.84731249999822,
      "v": 110
    },
    {
      "midi": 62,
      "hit": false,
      "t": 29986.181249999994,
      "d": 220.58799999999974,
      "v": 122
    },
    {
      "midi": 38,
      "hit": false,
      "t": 29996.52131249999,
      "d": 3525.961312500007,
      "v": 122
    },
    {
      "midi": 57,
      "hit": false,
      "t": 30206.76924999999,
      "d": 278.03279166666834,
      "v": 110
    },
    {
      "midi": 69,
      "hit": false,
      "t": 30206.76924999999,
      "d": 292.96843750000335,
      "v": 110
    },
    {
      "midi": 57,
      "hit": false,
      "t": 30206.769249999994,
      "d": 238.97033333333457,
      "v": 122
    },
    {
      "midi": 62,
      "hit": false,
      "t": 30220.555999999895,
      "d": 87.31608333333497,
      "v": 120
    },
    {
      "midi": 62,
      "hit": false,
      "t": 30427.357249999994,
      "d": 248.16149999999834,
      "v": 122
    },
    {
      "midi": 62,
      "hit": false,
      "t": 30441.1439999999,
      "d": 1492.4156875000008,
      "v": 120
    },
    {
      "midi": 64,
      "hit": false,
      "t": 30647.945249999993,
      "d": 220.58799999999974,
      "v": 122
    },
    {
      "midi": 69,
      "hit": false,
      "t": 30647.945249999993,
      "d": 90.7627708333348,
      "v": 110
    },
    {
      "midi": 57,
      "hit": false,
      "t": 30647.945249999993,
      "d": 106.84731250000186,
      "v": 110
    },
    {
      "midi": 65,
      "hit": false,
      "t": 30868.533249999993,
      "d": 220.58799999999974,
      "v": 122
    },
    {
      "midi": 69,
      "hit": false,
      "t": 30868.533249999997,
      "d": 295.2662291666675,
      "v": 110
    },
    {
      "midi": 57,
      "hit": false,
      "t": 30868.533249999997,
      "d": 296.41512499999953,
      "v": 110
    },
    {
      "midi": 64,
      "hit": false,
      "t": 31089.121249999993,
      "d": 271.13941666666506,
      "v": 122
    },
    {
      "midi": 65,
      "hit": false,
      "t": 31309.709249999993,
      "d": 220.58799999999974,
      "v": 122
    },
    {
      "midi": 57,
      "hit": false,
      "t": 31309.709249999996,
      "d": 93.06056249999892,
      "v": 114
    },
    {
      "midi": 69,
      "hit": false,
      "t": 31309.709249999996,
      "d": 114.88958333333358,
      "v": 114
    },
    {
      "midi": 67,
      "hit": false,
      "t": 31530.297249999992,
      "d": 220.58799999999974,
      "v": 122
    },
    {
      "midi": 57,
      "hit": false,
      "t": 31530.297249999996,
      "d": 267.69272916666523,
      "v": 110
    },
    {
      "midi": 69,
      "hit": false,
      "t": 31530.297249999996,
      "d": 290.67064583333195,
      "v": 110
    },
    {
      "midi": 65,
      "hit": false,
      "t": 31750.885249999992,
      "d": 228.63027083333145,
      "v": 122
    },
    {
      "midi": 67,
      "hit": false,
      "t": 31971.473249999992,
      "d": 220.58799999999974,
      "v": 122
    },
    {
      "midi": 57,
      "hit": false,
      "t": 31971.473249999995,
      "d": 96.50724999999875,
      "v": 110
    },
    {
      "midi": 69,
      "hit": false,
      "t": 31971.473249999995,
      "d": 113.74068749999788,
      "v": 110
    },
    {
      "midi": 69,
      "hit": false,
      "t": 32192.06124999999,
      "d": 252.75708333333387,
      "v": 122
    },
    {
      "midi": 57,
      "hit": false,
      "t": 32192.06124999999,
      "d": 278.03279166666834,
      "v": 110
    },
    {
      "midi": 69,
      "hit": false,
      "t": 32192.06124999999,
      "d": 284.926166666668,
      "v": 110
    },
    {
      "midi": 67,
      "hit": false,
      "t": 32412.64924999999,
      "d": 276.88389583333264,
      "v": 122
    },
    {
      "midi": 65,
      "hit": false,
      "t": 32633.23724999999,
      "d": 441.1759999999995,
      "v": 122
    },
    {
      "midi": 69,
      "hit": false,
      "t": 32633.237249999995,
      "d": 280.33058333333247,
      "v": 110
    },
    {
      "midi": 57,
      "hit": false,
      "t": 32633.237249999995,
      "d": 288.3728541666678,
      "v": 110
    },
    {
      "midi": 64,
      "hit": false,
      "t": 33074.41324999999,
      "d": 441.1759999999995,
      "v": 122
    },
    {
      "midi": 57,
      "hit": false,
      "t": 33074.41325,
      "d": 274.5861041666649,
      "v": 110
    },
    {
      "midi": 69,
      "hit": false,
      "t": 33074.41325,
      "d": 314.79745833333436,
      "v": 110
    },
    {
      "midi": 34,
      "hit": false,
      "t": 33500.653604166655,
      "d": 3453.580875000007,
      "v": 117
    },
    {
      "midi": 34,
      "hit": false,
      "t": 33513.29145833333,
      "d": 3336.3935000000056,
      "v": 121
    },
    {
      "midi": 62,
      "hit": false,
      "t": 33515.58924999999,
      "d": 220.5879999999961,
      "v": 122
    },
    {
      "midi": 70,
      "hit": false,
      "t": 33515.58925,
      "d": 85.01829166666721,
      "v": 110
    },
    {
      "midi": 58,
      "hit": false,
      "t": 33515.58925,
      "d": 93.06056250000256,
      "v": 110
    },
    {
      "midi": 58,
      "hit": false,
      "t": 33736.177249999986,
      "d": 220.58800000000338,
      "v": 122
    },
    {
      "midi": 70,
      "hit": false,
      "t": 33736.17725,
      "d": 275.7350000000006,
      "v": 110
    },
    {
      "midi": 58,
      "hit": false,
      "t": 33736.17725,
      "d": 291.819541666664,
      "v": 110
    },
    {
      "midi": 62,
      "hit": false,
      "t": 33956.76524999999,
      "d": 240.11922916666663,
      "v": 122
    },
    {
      "midi": 64,
      "hit": false,
      "t": 34177.35324999999,
      "d": 220.5879999999961,
      "v": 122
    },
    {
      "midi": 70,
      "hit": false,
      "t": 34177.35325,
      "d": 104.54952083333046,
      "v": 110
    },
    {
      "midi": 58,
      "hit": false,
      "t": 34177.35325,
      "d": 125.22964583332941,
      "v": 110
    },
    {
      "midi": 65,
      "hit": false,
      "t": 34397.94124999999,
      "d": 240.11922916666663,
      "v": 122
    },
    {
      "midi": 70,
      "hit": false,
      "t": 34397.941249999996,
      "d": 279.1816875000004,
      "v": 110
    },
    {
      "midi": 58,
      "hit": false,
      "t": 34397.941249999996,
      "d": 299.86181249999936,
      "v": 110
    },
    {
      "midi": 64,
      "hit": false,
      "t": 34618.52924999999,
      "d": 220.5879999999961,
      "v": 122
    },
    {
      "midi": 65,
      "hit": false,
      "t": 34839.11724999999,
      "d": 220.58800000000338,
      "v": 122
    },
    {
      "midi": 70,
      "hit": false,
      "t": 34839.117249999996,
      "d": 91.91166666666686,
      "v": 110
    },
    {
      "midi": 58,
      "hit": false,
      "t": 34839.117249999996,
      "d": 120.63406250000116,
      "v": 110
    },
    {
      "midi": 67,
      "hit": false,
      "t": 35059.70524999999,
      "d": 220.58800000000338,
      "v": 122
    },
    {
      "midi": 70,
      "hit": false,
      "t": 35059.70525,
      "d": 264.2460416666654,
      "v": 110
    },
    {
      "midi": 58,
      "hit": false,
      "t": 35059.70525,
      "d": 273.4372083333292,
      "v": 110
    },
    {
      "midi": 65,
      "hit": false,
      "t": 35280.293249999995,
      "d": 257.35266666667303,
      "v": 122
    },
    {
      "midi": 58,
      "hit": false,
      "t": 35500.88124999999,
      "d": 89.61387500000274,
      "v": 110
    },
    {
      "midi": 70,
      "hit": false,
      "t": 35500.88124999999,
      "d": 107.99620833333756,
      "v": 110
    },
    {
      "midi": 67,
      "hit": false,
      "t": 35500.88125,
      "d": 220.58800000000338,
      "v": 122
    },
    {
      "midi": 70,
      "hit": false,
      "t": 35721.469249999995,
      "d": 264.2460416666654,
      "v": 110
    },
    {
      "midi": 58,
      "hit": false,
      "t": 35721.469249999995,
      "d": 279.1816875000004,
      "v": 110
    },
    {
      "midi": 69,
      "hit": false,
      "t": 35721.46925,
      "d": 251.6081875000018,
      "v": 122
    },
    {
      "midi": 67,
      "hit": false,
      "t": 35942.057250000005,
      "d": 233.2258541666597,
      "v": 122
    },
    {
      "midi": 70,
      "hit": false,
      "t": 36162.645249999994,
      "d": 261.9482500000013,
      "v": 110
    },
    {
      "midi": 58,
      "hit": false,
      "t": 36162.645249999994,
      "d": 269.99052083333663,
      "v": 110
    },
    {
      "midi": 65,
      "hit": false,
      "t": 36162.64525,
      "d": 446.9204791666634,
      "v": 122
    },
    {
      "midi": 64,
      "hit": false,
      "t": 36397.0199999999,
      "d": 91.91166666666686,
      "v": 110
    },
    {
      "midi": 64,
      "hit": false,
      "t": 36603.82125,
      "d": 441.1759999999922,
      "v": 122
    },
    {
      "midi": 70,
      "hit": false,
      "t": 36603.82125,
      "d": 217.14131250000355,
      "v": 110
    },
    {
      "midi": 58,
      "hit": false,
      "t": 36603.82125,
      "d": 237.8214375000025,
      "v": 110
    },
    {
      "midi": 64,
      "hit": false,
      "t": 36617.607999999906,
      "d": 90.76277083333116,
      "v": 113
    },
    {
      "midi": 64,
      "hit": false,
      "t": 36838.1959999999,
      "d": 428.5381458333359,
      "v": 123
    },
    {
      "midi": 62,
      "hit": false,
      "t": 37058.78399999999,
      "d": 220.5879999999961,
      "v": 122
    },
    {
      "midi": 38,
      "hit": false,
      "t": 37058.78399999999,
      "d": 3543.194749999995,
      "v": 117
    },
    {
      "midi": 57,
      "hit": false,
      "t": 37058.78400000001,
      "d": 101.10283333333064,
      "v": 108
    },
    {
      "midi": 69,
      "hit": false,
      "t": 37058.78400000001,
      "d": 122.93185416666529,
      "v": 108
    },
    {
      "midi": 38,
      "hit": false,
      "t": 37058.78400000001,
      "d": 3523.6635208333246,
      "v": 111
    },
    {
      "midi": 57,
      "hit": false,
      "t": 37265.58524999999,
      "d": 245.86370833333058,
      "v": 122
    },
    {
      "midi": 57,
      "hit": false,
      "t": 37265.585250000004,
      "d": 253.90597916666593,
      "v": 110
    },
    {
      "midi": 69,
      "hit": false,
      "t": 37265.585250000004,
      "d": 275.7350000000006,
      "v": 110
    },
    {
      "midi": 62,
      "hit": false,
      "t": 37279.3719999999,
      "d": 79.27381250000326,
      "v": 125
    },
    {
      "midi": 62,
      "hit": false,
      "t": 37486.173249999985,
      "d": 245.86370833333785,
      "v": 122
    },
    {
      "midi": 62,
      "hit": false,
      "t": 37499.959999999905,
      "d": 1323.5279999999984,
      "v": 127
    },
    {
      "midi": 64,
      "hit": false,
      "t": 37706.76124999999,
      "d": 256.20377083333733,
      "v": 122
    },
    {
      "midi": 57,
      "hit": false,
      "t": 37706.76125,
      "d": 103.40062500000204,
      "v": 110
    },
    {
      "midi": 69,
      "hit": false,
      "t": 37706.76125,
      "d": 125.22964583333669,
      "v": 110
    },
    {
      "midi": 65,
      "hit": false,
      "t": 37927.34924999999,
      "d": 263.097145833337,
      "v": 122
    },
    {
      "midi": 57,
      "hit": false,
      "t": 37927.34925000001,
      "d": 274.5861041666649,
      "v": 110
    },
    {
      "midi": 69,
      "hit": false,
      "t": 37927.34925000001,
      "d": 295.26622916666383,
      "v": 110
    },
    {
      "midi": 64,
      "hit": false,
      "t": 38147.937249999995,
      "d": 287.22395833333576,
      "v": 122
    },
    {
      "midi": 65,
      "hit": false,
      "t": 38368.52525,
      "d": 255.05487499999435,
      "v": 122
    },
    {
      "midi": 57,
      "hit": false,
      "t": 38368.525250000006,
      "d": 91.91166666666686,
      "v": 110
    },
    {
      "midi": 69,
      "hit": false,
      "t": 38368.525250000006,
      "d": 109.14510416666599,
      "v": 110
    },
    {
      "midi": 67,
      "hit": false,
      "t": 38589.113249999995,
      "d": 220.5879999999961,
      "v": 122
    },
    {
      "midi": 69,
      "hit": false,
      "t": 38589.11325,
      "d": 273.43720833333646,
      "v": 110
    },
    {
      "midi": 57,
      "hit": false,
      "t": 38589.11325,
      "d": 281.4794791666718,
      "v": 110
    },
    {
      "midi": 65,
      "hit": false,
      "t": 38809.70124999999,
      "d": 265.3949375000011,
      "v": 122
    },
    {
      "midi": 67,
      "hit": false,
      "t": 39030.289249999994,
      "d": 220.5879999999961,
      "v": 122
    },
    {
      "midi": 57,
      "hit": false,
      "t": 39030.28925000001,
      "d": 104.54952083333046,
      "v": 110
    },
    {
      "midi": 69,
      "hit": false,
      "t": 39030.28925000001,
      "d": 124.08074999999371,
      "v": 110
    },
    {
      "midi": 69,
      "hit": false,
      "t": 39250.87724999999,
      "d": 255.05487500000163,
      "v": 122
    },
    {
      "midi": 57,
      "hit": false,
      "t": 39250.877250000005,
      "d": 286.07506250000006,
      "v": 110
    },
    {
      "midi": 69,
      "hit": false,
      "t": 39250.877250000005,
      "d": 297.56402083333523,
      "v": 110
    },
    {
      "midi": 67,
      "hit": false,
      "t": 39471.465249999994,
      "d": 269.99052083332936,
      "v": 122
    },
    {
      "midi": 65,
      "hit": false,
      "t": 39692.05324999999,
      "d": 441.1759999999995,
      "v": 122
    },
    {
      "midi": 57,
      "hit": false,
      "t": 39692.053250000004,
      "d": 253.90597916666593,
      "v": 110
    },
    {
      "midi": 69,
      "hit": false,
      "t": 39692.053250000004,
      "d": 276.883895833329,
      "v": 110
    },
    {
      "midi": 64,
      "hit": false,
      "t": 39926.427999999905,
      "d": 79.27381250000326,
      "v": 120
    },
    {
      "midi": 64,
      "hit": false,
      "t": 40133.22924999999,
      "d": 441.1759999999995,
      "v": 122
    },
    {
      "midi": 57,
      "hit": false,
      "t": 40133.22925,
      "d": 264.2460416666654,
      "v": 110
    },
    {
      "midi": 69,
      "hit": false,
      "t": 40133.22925,
      "d": 310.20187499999884,
      "v": 110
    },
    {
      "midi": 64,
      "hit": false,
      "t": 40147.01599999991,
      "d": 81.57160416666738,
      "v": 117
    },
    {
      "midi": 64,
      "hit": false,
      "t": 40367.60399999991,
      "d": 271.13941666666506,
      "v": 120
    },
    {
      "midi": 62,
      "hit": false,
      "t": 40574.40524999999,
      "d": 220.5879999999961,
      "v": 122
    },
    {
      "midi": 58,
      "hit": false,
      "t": 40574.405249999996,
      "d": 135.56970833333617,
      "v": 110
    },
    {
      "midi": 70,
      "hit": false,
      "t": 40574.405249999996,
      "d": 135.56970833333617,
      "v": 110
    },
    {
      "midi": 34,
      "hit": false,
      "t": 40582.44752083333,
      "d": 3522.5146250000107,
      "v": 117
    },
    {
      "midi": 34,
      "hit": false,
      "t": 40583.59641666665,
      "d": 3512.174562500004,
      "v": 102
    },
    {
      "midi": 58,
      "hit": false,
      "t": 40794.993249999985,
      "d": 220.58800000000338,
      "v": 122
    },
    {
      "midi": 70,
      "hit": false,
      "t": 40794.99325,
      "d": 247.01260416666628,
      "v": 110
    },
    {
      "midi": 58,
      "hit": false,
      "t": 40794.99325,
      "d": 264.2460416666654,
      "v": 110
    },
    {
      "midi": 62,
      "hit": false,
      "t": 40808.77999999991,
      "d": 71.23154166666791,
      "v": 110
    },
    {
      "midi": 62,
      "hit": false,
      "t": 41015.58124999999,
      "d": 241.26812500000233,
      "v": 122
    },
    {
      "midi": 62,
      "hit": false,
      "t": 41029.367999999915,
      "d": 2188.6465624999983,
      "v": 120
    },
    {
      "midi": 64,
      "hit": false,
      "t": 41236.16924999999,
      "d": 229.77916666665988,
      "v": 122
    },
    {
      "midi": 70,
      "hit": false,
      "t": 41236.16925,
      "d": 88.46497916666704,
      "v": 110
    },
    {
      "midi": 58,
      "hit": false,
      "t": 41236.16925,
      "d": 114.88958333333721,
      "v": 110
    },
    {
      "midi": 65,
      "hit": false,
      "t": 41456.75724999999,
      "d": 244.71481249999488,
      "v": 122
    },
    {
      "midi": 70,
      "hit": false,
      "t": 41456.75725,
      "d": 280.3305833333361,
      "v": 110
    },
    {
      "midi": 58,
      "hit": false,
      "t": 41456.75725,
      "d": 288.37285416667146,
      "v": 110
    },
    {
      "midi": 64,
      "hit": false,
      "t": 41677.345249999984,
      "d": 249.3103958333304,
      "v": 122
    },
    {
      "midi": 65,
      "hit": false,
      "t": 41897.93324999998,
      "d": 220.58800000000338,
      "v": 122
    },
    {
      "midi": 58,
      "hit": false,
      "t": 41897.93325000001,
      "d": 110.29400000000169,
      "v": 110
    },
    {
      "midi": 70,
      "hit": false,
      "t": 41897.93325000001,
      "d": 110.29400000000169,
      "v": 110
    },
    {
      "midi": 67,
      "hit": false,
      "t": 42118.52124999998,
      "d": 236.6725416666668,
      "v": 122
    },
    {
      "midi": 70,
      "hit": false,
      "t": 42118.52125000001,
      "d": 269.99052083333663,
      "v": 110
    },
    {
      "midi": 58,
      "hit": false,
      "t": 42118.52125000001,
      "d": 282.62837500000023,
      "v": 110
    },
    {
      "midi": 65,
      "hit": false,
      "t": 42339.10924999999,
      "d": 220.5879999999961,
      "v": 122
    },
    {
      "midi": 67,
      "hit": false,
      "t": 42559.69724999998,
      "d": 220.58800000000338,
      "v": 122
    },
    {
      "midi": 58,
      "hit": false,
      "t": 42559.69725000001,
      "d": 112.59179166666581,
      "v": 110
    },
    {
      "midi": 70,
      "hit": false,
      "t": 42559.69725000001,
      "d": 121.78295833332959,
      "v": 110
    },
    {
      "midi": 69,
      "hit": false,
      "t": 42780.285249999986,
      "d": 272.28831250000076,
      "v": 122
    },
    {
      "midi": 70,
      "hit": false,
      "t": 42780.28525000001,
      "d": 248.16150000000198,
      "v": 110
    },
    {
      "midi": 58,
      "hit": false,
      "t": 42780.28525000001,
      "d": 265.3949375000011,
      "v": 110
    },
    {
      "midi": 67,
      "hit": false,
      "t": 43000.87324999999,
      "d": 232.07695833333128,
      "v": 122
    },
    {
      "midi": 65,
      "hit": false,
      "t": 43221.461249999986,
      "d": 441.1759999999995,
      "v": 122
    },
    {
      "midi": 70,
      "hit": false,
      "t": 43221.46125000001,
      "d": 259.6504583333299,
      "v": 110
    },
    {
      "midi": 58,
      "hit": false,
      "t": 43221.46125000001,
      "d": 265.39493749999383,
      "v": 110
    },
    {
      "midi": 64,
      "hit": false,
      "t": 43455.835999999916,
      "d": 74.67822916666773,
      "v": 117
    },
    {
      "midi": 64,
      "hit": false,
      "t": 43662.637249999985,
      "d": 441.17600000000675,
      "v": 122
    },
    {
      "midi": 58,
      "hit": false,
      "t": 43662.63725,
      "d": 269.99052083333663,
      "v": 110
    },
    {
      "midi": 70,
      "hit": false,
      "t": 43662.63725,
      "d": 291.8195416666713,
      "v": 110
    },
    {
      "midi": 64,
      "hit": false,
      "t": 43676.42399999992,
      "d": 78.12491666666756,
      "v": 125
    },
    {
      "midi": 64,
      "hit": false,
      "t": 43897.01199999992,
      "d": 296.41512499999953,
      "v": 123
    },
    {
      "midi": 38,
      "hit": false,
      "t": 44087.72870833332,
      "d": 3547.790333333367,
      "v": 122
    },
    {
      "midi": 62,
      "hit": false,
      "t": 44103.81324999999,
      "d": 220.58800000000338,
      "v": 122
    },
    {
      "midi": 57,
      "hit": false,
      "t": 44103.81325000001,
      "d": 87.31608333333133,
      "v": 110
    },
    {
      "midi": 69,
      "hit": false,
      "t": 44103.81325000001,
      "d": 106.84731249999459,
      "v": 110
    },
    {
      "midi": 38,
      "hit": false,
      "t": 44114.153312500006,
      "d": 3525.961312499996,
      "v": 122
    },
    {
      "midi": 57,
      "hit": false,
      "t": 44324.401249999995,
      "d": 238.9703333333382,
      "v": 122
    },
    {
      "midi": 57,
      "hit": false,
      "t": 44324.40125,
      "d": 278.0327916666647,
      "v": 110
    },
    {
      "midi": 69,
      "hit": false,
      "t": 44324.40125,
      "d": 292.9684374999997,
      "v": 110
    },
    {
      "midi": 62,
      "hit": false,
      "t": 44338.18799999992,
      "d": 75.82712500000343,
      "v": 120
    },
    {
      "midi": 62,
      "hit": false,
      "t": 44544.98925,
      "d": 248.16150000000198,
      "v": 122
    },
    {
      "midi": 62,
      "hit": false,
      "t": 44558.775999999925,
      "d": 2274.813750000001,
      "v": 120
    },
    {
      "midi": 64,
      "hit": false,
      "t": 44765.57725,
      "d": 220.5879999999961,
      "v": 122
    },
    {
      "midi": 69,
      "hit": false,
      "t": 44765.57725,
      "d": 90.76277083333116,
      "v": 110
    },
    {
      "midi": 57,
      "hit": false,
      "t": 44765.57725,
      "d": 106.84731249999459,
      "v": 110
    },
    {
      "midi": 65,
      "hit": false,
      "t": 44986.16525,
      "d": 220.58800000000338,
      "v": 122
    },
    {
      "midi": 69,
      "hit": false,
      "t": 44986.16525,
      "d": 295.26622916666383,
      "v": 110
    },
    {
      "midi": 57,
      "hit": false,
      "t": 44986.16525,
      "d": 296.41512499999953,
      "v": 110
    },
    {
      "midi": 64,
      "hit": false,
      "t": 45206.75325,
      "d": 271.13941666667233,
      "v": 122
    },
    {
      "midi": 57,
      "hit": false,
      "t": 45427.34125,
      "d": 93.06056250000256,
      "v": 114
    },
    {
      "midi": 69,
      "hit": false,
      "t": 45427.34125,
      "d": 114.88958333333721,
      "v": 114
    },
    {
      "midi": 65,
      "hit": false,
      "t": 45427.341250000005,
      "d": 220.58800000000338,
      "v": 122
    },
    {
      "midi": 57,
      "hit": false,
      "t": 45647.92925,
      "d": 267.69272916666523,
      "v": 110
    },
    {
      "midi": 69,
      "hit": false,
      "t": 45647.92925,
      "d": 290.6706458333283,
      "v": 110
    },
    {
      "midi": 67,
      "hit": false,
      "t": 45647.92925000001,
      "d": 220.58800000000338,
      "v": 122
    },
    {
      "midi": 65,
      "hit": false,
      "t": 45868.51725000001,
      "d": 228.63027083333873,
      "v": 122
    },
    {
      "midi": 57,
      "hit": false,
      "t": 46089.10524999999,
      "d": 96.50725000000239,
      "v": 110
    },
    {
      "midi": 69,
      "hit": false,
      "t": 46089.10524999999,
      "d": 113.74068750000151,
      "v": 110
    },
    {
      "midi": 67,
      "hit": false,
      "t": 46089.105250000015,
      "d": 220.58800000000338,
      "v": 122
    },
    {
      "midi": 57,
      "hit": false,
      "t": 46309.69325,
      "d": 278.0327916666647,
      "v": 110
    },
    {
      "midi": 69,
      "hit": false,
      "t": 46309.69325,
      "d": 284.92616666666436,
      "v": 110
    },
    {
      "midi": 69,
      "hit": false,
      "t": 46309.69325000002,
      "d": 252.7570833333375,
      "v": 122
    },
    {
      "midi": 67,
      "hit": false,
      "t": 46530.28125000002,
      "d": 276.8838958333363,
      "v": 122
    },
    {
      "midi": 69,
      "hit": false,
      "t": 46750.869249999996,
      "d": 280.3305833333361,
      "v": 110
    },
    {
      "midi": 57,
      "hit": false,
      "t": 46750.869249999996,
      "d": 288.37285416667146,
      "v": 110
    },
    {
      "midi": 65,
      "hit": false,
      "t": 46750.869250000025,
      "d": 441.1759999999995,
      "v": 122
    },
    {
      "midi": 64,
      "hit": false,
      "t": 46985.243999999926,
      "d": 78.12491666666756,
      "v": 120
    },
    {
      "midi": 57,
      "hit": false,
      "t": 47192.04525,
      "d": 274.5861041666649,
      "v": 110
    },
    {
      "midi": 69,
      "hit": false,
      "t": 47192.04525,
      "d": 314.79745833333436,
      "v": 110
    },
    {
      "midi": 64,
      "hit": false,
      "t": 47192.045250000025,
      "d": 441.1759999999995,
      "v": 122
    },
    {
      "midi": 64,
      "hit": false,
      "t": 47205.83199999993,
      "d": 79.27381250000326,
      "v": 117
    },
    {
      "midi": 64,
      "hit": false,
      "t": 47426.41999999993,
      "d": 307.9040833333347,
      "v": 120
    },
    {
      "midi": 34,
      "hit": false,
      "t": 47618.28560416669,
      "d": 1806.0642500000104,
      "v": 117
    },
    {
      "midi": 34,
      "hit": false,
      "t": 47630.92345833334,
      "d": 1764.703999999998,
      "v": 121
    },
    {
      "midi": 70,
      "hit": false,
      "t": 47633.22125,
      "d": 85.01829166666721,
      "v": 110
    },
    {
      "midi": 58,
      "hit": false,
      "t": 47633.22125,
      "d": 93.06056250000256,
      "v": 110
    },
    {
      "midi": 62,
      "hit": false,
      "t": 47633.221250000024,
      "d": 220.5879999999961,
      "v": 122
    },
    {
      "midi": 70,
      "hit": false,
      "t": 47853.809250000006,
      "d": 275.7350000000006,
      "v": 110
    },
    {
      "midi": 58,
      "hit": false,
      "t": 47853.809250000006,
      "d": 291.819541666664,
      "v": 110
    },
    {
      "midi": 58,
      "hit": false,
      "t": 47853.80925000002,
      "d": 220.58800000000338,
      "v": 122
    },
    {
      "midi": 62,
      "hit": false,
      "t": 47867.59599999993,
      "d": 89.61387500000274,
      "v": 120
    },
    {
      "midi": 62,
      "hit": false,
      "t": 48074.39725000002,
      "d": 240.11922916666663,
      "v": 122
    },
    {
      "midi": 62,
      "hit": false,
      "t": 48088.183999999936,
      "d": 1349.9526041666686,
      "v": 123
    },
    {
      "midi": 70,
      "hit": false,
      "t": 48294.985250000005,
      "d": 104.54952083333046,
      "v": 110
    },
    {
      "midi": 58,
      "hit": false,
      "t": 48294.985250000005,
      "d": 125.22964583332941,
      "v": 110
    },
    {
      "midi": 64,
      "hit": false,
      "t": 48294.98525000003,
      "d": 220.5879999999961,
      "v": 122
    },
    {
      "midi": 70,
      "hit": false,
      "t": 48515.57325,
      "d": 279.1816875000004,
      "v": 110
    },
    {
      "midi": 58,
      "hit": false,
      "t": 48515.57325,
      "d": 299.86181249999936,
      "v": 110
    },
    {
      "midi": 65,
      "hit": false,
      "t": 48515.57325000002,
      "d": 240.11922916666663,
      "v": 122
    },
    {
      "midi": 64,
      "hit": false,
      "t": 48736.16125000003,
      "d": 220.5879999999961,
      "v": 122
    },
    {
      "midi": 70,
      "hit": false,
      "t": 48956.74925,
      "d": 91.91166666666686,
      "v": 110
    },
    {
      "midi": 58,
      "hit": false,
      "t": 48956.74925,
      "d": 120.63406250000116,
      "v": 110
    },
    {
      "midi": 65,
      "hit": false,
      "t": 48956.74925000002,
      "d": 220.58800000000338,
      "v": 122
    },
    {
      "midi": 70,
      "hit": false,
      "t": 49177.337250000004,
      "d": 264.2460416666654,
      "v": 110
    },
    {
      "midi": 58,
      "hit": false,
      "t": 49177.337250000004,
      "d": 273.4372083333292,
      "v": 110
    },
    {
      "midi": 67,
      "hit": false,
      "t": 49177.337250000026,
      "d": 220.58800000000338,
      "v": 122
    },
    {
      "midi": 80,
      "hit": false,
      "t": 49411.71200000009,
      "d": 1426.9286250000005,
      "v": 96
    },
    {
      "midi": 79,
      "hit": false,
      "t": 49411.71200000009,
      "d": 1438.4175833333356,
      "v": 101
    },
    {
      "midi": 62,
      "hit": false,
      "t": 50514.65199999994,
      "d": 83.86939583333151,
      "v": 117
    },
    {
      "midi": 57,
      "hit": false,
      "t": 50735.23999999993,
      "d": 328.58420833333366,
      "v": 120
    },
    {
      "midi": 26,
      "hit": false,
      "t": 51176.416,
      "d": 230.92806250000285,
      "v": 100
    },
    {
      "midi": 50,
      "hit": false,
      "t": 51176.416,
      "d": 220.58800000000338,
      "v": 84
    },
    {
      "midi": 57,
      "hit": false,
      "t": 51176.416,
      "d": 101.10283333333064,
      "v": 108
    },
    {
      "midi": 69,
      "hit": false,
      "t": 51176.416,
      "d": 122.93185416666529,
      "v": 108
    },
    {
      "midi": 38,
      "hit": false,
      "t": 51176.416,
      "d": 3523.6635208333246,
      "v": 111
    },
    {
      "midi": 62,
      "hit": false,
      "t": 51176.416000000034,
      "d": 220.5879999999961,
      "v": 122
    },
    {
      "midi": 38,
      "hit": false,
      "t": 51176.416000000034,
      "d": 3543.194749999995,
      "v": 117
    },
    {
      "midi": 57,
      "hit": false,
      "t": 51383.217249999994,
      "d": 253.90597916666593,
      "v": 110
    },
    {
      "midi": 69,
      "hit": false,
      "t": 51383.217249999994,
      "d": 275.7350000000006,
      "v": 110
    },
    {
      "midi": 57,
      "hit": false,
      "t": 51383.21725000003,
      "d": 245.86370833333058,
      "v": 122
    },
    {
      "midi": 38,
      "hit": false,
      "t": 51397.004,
      "d": 64.33816666666826,
      "v": 100
    },
    {
      "midi": 62,
      "hit": false,
      "t": 51397.004,
      "d": 110.29400000000169,
      "v": 84
    },
    {
      "midi": 38,
      "hit": false,
      "t": 51507.298,
      "d": 74.67822916666773,
      "v": 100
    },
    {
      "midi": 50,
      "hit": false,
      "t": 51507.298,
      "d": 117.18737500000134,
      "v": 84
    },
    {
      "midi": 62,
      "hit": false,
      "t": 51603.80525000003,
      "d": 245.86370833333785,
      "v": 122
    },
    {
      "midi": 26,
      "hit": false,
      "t": 51617.592000000004,
      "d": 215.99241666666785,
      "v": 100
    },
    {
      "midi": 62,
      "hit": false,
      "t": 51617.592000000004,
      "d": 225.18358333333163,
      "v": 84
    },
    {
      "midi": 57,
      "hit": false,
      "t": 51824.393249999994,
      "d": 103.40062500000204,
      "v": 110
    },
    {
      "midi": 69,
      "hit": false,
      "t": 51824.393249999994,
      "d": 125.22964583333669,
      "v": 110
    },
    {
      "midi": 64,
      "hit": false,
      "t": 51824.39325000003,
      "d": 256.20377083333733,
      "v": 122
    },
    {
      "midi": 50,
      "hit": false,
      "t": 51838.18,
      "d": 112.59179166666581,
      "v": 84
    },
    {
      "midi": 38,
      "hit": false,
      "t": 51838.18000000001,
      "d": 64.33816666666826,
      "v": 100
    },
    {
      "midi": 62,
      "hit": false,
      "t": 51948.474,
      "d": 127.52743749999354,
      "v": 84
    },
    {
      "midi": 38,
      "hit": false,
      "t": 51948.47400000001,
      "d": 64.33816666666826,
      "v": 100
    },
    {
      "midi": 57,
      "hit": false,
      "t": 52044.98125,
      "d": 274.5861041666649,
      "v": 110
    },
    {
      "midi": 69,
      "hit": false,
      "t": 52044.98125,
      "d": 295.26622916666383,
      "v": 110
    },
    {
      "midi": 65,
      "hit": false,
      "t": 52044.98125000003,
      "d": 263.097145833337,
      "v": 122
    },
    {
      "midi": 50,
      "hit": false,
      "t": 52058.768,
      "d": 250.4592916666661,
      "v": 84
    },
    {
      "midi": 26,
      "hit": false,
      "t": 52058.76800000001,
      "d": 222.8857916666675,
      "v": 100
    },
    {
      "midi": 64,
      "hit": false,
      "t": 52265.56925000004,
      "d": 287.22395833333576,
      "v": 122
    },
    {
      "midi": 62,
      "hit": false,
      "t": 52279.35599999999,
      "d": 110.29400000000169,
      "v": 84
    },
    {
      "midi": 38,
      "hit": false,
      "t": 52279.356000000014,
      "d": 64.33816666666098,
      "v": 100
    },
    {
      "midi": 50,
      "hit": false,
      "t": 52389.649999999994,
      "d": 114.88958333333721,
      "v": 84
    },
    {
      "midi": 38,
      "hit": false,
      "t": 52389.65000000001,
      "d": 64.33816666666826,
      "v": 100
    },
    {
      "midi": 57,
      "hit": false,
      "t": 52486.15725,
      "d": 91.91166666666686,
      "v": 110
    },
    {
      "midi": 69,
      "hit": false,
      "t": 52486.15725,
      "d": 109.14510416666599,
      "v": 110
    },
    {
      "midi": 65,
      "hit": false,
      "t": 52486.15725000004,
      "d": 255.05487499999435,
      "v": 122
    },
    {
      "midi": 62,
      "hit": false,
      "t": 52499.943999999996,
      "d": 234.37475000000268,
      "v": 84
    },
    {
      "midi": 26,
      "hit": false,
      "t": 52499.94400000001,
      "d": 218.29020833333198,
      "v": 100
    },
    {
      "midi": 69,
      "hit": false,
      "t": 52706.74524999999,
      "d": 273.43720833333646,
      "v": 110
    },
    {
      "midi": 57,
      "hit": false,
      "t": 52706.74524999999,
      "d": 281.4794791666718,
      "v": 110
    },
    {
      "midi": 67,
      "hit": false,
      "t": 52706.745250000036,
      "d": 220.5879999999961,
      "v": 122
    },
    {
      "midi": 50,
      "hit": false,
      "t": 52720.532,
      "d": 110.29400000000169,
      "v": 84
    },
    {
      "midi": 38,
      "hit": false,
      "t": 52720.53200000001,
      "d": 64.33816666666826,
      "v": 100
    },
    {
      "midi": 62,
      "hit": false,
      "t": 52830.826,
      "d": 120.63406250000116,
      "v": 84
    },
    {
      "midi": 38,
      "hit": false,
      "t": 52830.82600000001,
      "d": 64.33816666666826,
      "v": 100
    },
    {
      "midi": 65,
      "hit": false,
      "t": 52927.33325000003,
      "d": 265.3949375000011,
      "v": 122
    },
    {
      "midi": 50,
      "hit": false,
      "t": 52941.12,
      "d": 257.35266666666575,
      "v": 84
    },
    {
      "midi": 26,
      "hit": false,
      "t": 52941.12000000001,
      "d": 215.99241666666785,
      "v": 100
    },
    {
      "midi": 57,
      "hit": false,
      "t": 53147.92125,
      "d": 104.54952083333046,
      "v": 110
    },
    {
      "midi": 69,
      "hit": false,
      "t": 53147.92125,
      "d": 124.08074999999371,
      "v": 110
    },
    {
      "midi": 67,
      "hit": false,
      "t": 53147.921250000036,
      "d": 220.5879999999961,
      "v": 122
    },
    {
      "midi": 62,
      "hit": false,
      "t": 53161.708,
      "d": 110.29400000000169,
      "v": 84
    },
    {
      "midi": 38,
      "hit": false,
      "t": 53161.70800000001,
      "d": 64.33816666666826,
      "v": 100
    },
    {
      "midi": 50,
      "hit": false,
      "t": 53272.002,
      "d": 117.18737500000134,
      "v": 84
    },
    {
      "midi": 38,
      "hit": false,
      "t": 53272.002000000015,
      "d": 64.33816666666826,
      "v": 100
    },
    {
      "midi": 57,
      "hit": false,
      "t": 53368.509249999996,
      "d": 286.07506250000006,
      "v": 110
    },
    {
      "midi": 69,
      "hit": false,
      "t": 53368.509249999996,
      "d": 297.56402083333523,
      "v": 110
    },
    {
      "midi": 69,
      "hit": false,
      "t": 53368.50925000003,
      "d": 255.05487500000163,
      "v": 122
    },
    {
      "midi": 62,
      "hit": false,
      "t": 53382.296,
      "d": 238.97033333333093,
      "v": 84
    },
    {
      "midi": 26,
      "hit": false,
      "t": 53382.29600000002,
      "d": 224.0346875000032,
      "v": 100
    },
    {
      "midi": 67,
      "hit": false,
      "t": 53589.097250000035,
      "d": 269.99052083332936,
      "v": 122
    },
    {
      "midi": 50,
      "hit": false,
      "t": 53602.884,
      "d": 110.29400000000169,
      "v": 84
    },
    {
      "midi": 38,
      "hit": false,
      "t": 53602.88400000002,
      "d": 64.33816666666826,
      "v": 100
    },
    {
      "midi": 62,
      "hit": false,
      "t": 53713.178,
      "d": 116.03847916666564,
      "v": 84
    },
    {
      "midi": 38,
      "hit": false,
      "t": 53713.17800000002,
      "d": 74.67822916666773,
      "v": 100
    },
    {
      "midi": 57,
      "hit": false,
      "t": 53809.685249999995,
      "d": 253.90597916666593,
      "v": 110
    },
    {
      "midi": 69,
      "hit": false,
      "t": 53809.685249999995,
      "d": 276.883895833329,
      "v": 110
    },
    {
      "midi": 65,
      "hit": false,
      "t": 53809.68525000003,
      "d": 441.1759999999995,
      "v": 122
    },
    {
      "midi": 50,
      "hit": false,
      "t": 53823.472,
      "d": 220.5879999999961,
      "v": 84
    },
    {
      "midi": 26,
      "hit": false,
      "t": 53823.47200000002,
      "d": 221.73689583333908,
      "v": 100
    },
    {
      "midi": 62,
      "hit": false,
      "t": 54044.06,
      "d": 113.74068750000151,
      "v": 84
    },
    {
      "midi": 38,
      "hit": false,
      "t": 54044.06000000003,
      "d": 64.33816666666826,
      "v": 100
    },
    {
      "midi": 50,
      "hit": false,
      "t": 54154.354,
      "d": 110.29400000000169,
      "v": 84
    },
    {
      "midi": 38,
      "hit": false,
      "t": 54154.35400000003,
      "d": 71.23154166666791,
      "v": 100
    },
    {
      "midi": 57,
      "hit": false,
      "t": 54250.86124999999,
      "d": 264.2460416666654,
      "v": 110
    },
    {
      "midi": 69,
      "hit": false,
      "t": 54250.86124999999,
      "d": 310.20187499999884,
      "v": 110
    },
    {
      "midi": 64,
      "hit": false,
      "t": 54250.86125000003,
      "d": 441.1759999999995,
      "v": 122
    },
    {
      "midi": 62,
      "hit": false,
      "t": 54264.648,
      "d": 220.58800000000338,
      "v": 84
    },
    {
      "midi": 26,
      "hit": false,
      "t": 54264.64800000003,
      "d": 196.46118749999732,
      "v": 100
    },
    {
      "midi": 50,
      "hit": false,
      "t": 54485.236000000004,
      "d": 110.29400000000169,
      "v": 84
    },
    {
      "midi": 38,
      "hit": false,
      "t": 54485.236000000026,
      "d": 64.33816666666826,
      "v": 100
    },
    {
      "midi": 62,
      "hit": false,
      "t": 54595.530000000006,
      "d": 110.29400000000169,
      "v": 84
    },
    {
      "midi": 38,
      "hit": false,
      "t": 54595.53000000003,
      "d": 64.33816666666826,
      "v": 100
    },
    {
      "midi": 58,
      "hit": false,
      "t": 54692.03724999999,
      "d": 135.56970833333617,
      "v": 110
    },
    {
      "midi": 70,
      "hit": false,
      "t": 54692.03724999999,
      "d": 135.56970833333617,
      "v": 110
    },
    {
      "midi": 62,
      "hit": false,
      "t": 54692.03725000003,
      "d": 220.5879999999961,
      "v": 122
    },
    {
      "midi": 34,
      "hit": false,
      "t": 54700.07952083332,
      "d": 3522.5146250000107,
      "v": 117
    },
    {
      "midi": 34,
      "hit": false,
      "t": 54701.228416666694,
      "d": 3512.174562500004,
      "v": 102
    },
    {
      "midi": 46,
      "hit": false,
      "t": 54705.82400000001,
      "d": 247.01260416667355,
      "v": 84
    },
    {
      "midi": 22,
      "hit": false,
      "t": 54705.82400000003,
      "d": 235.52364583333838,
      "v": 100
    },
    {
      "midi": 70,
      "hit": false,
      "t": 54912.62524999999,
      "d": 247.01260416666628,
      "v": 110
    },
    {
      "midi": 58,
      "hit": false,
      "t": 54912.62524999999,
      "d": 264.2460416666654,
      "v": 110
    },
    {
      "midi": 58,
      "hit": false,
      "t": 54912.62525000003,
      "d": 220.58800000000338,
      "v": 122
    },
    {
      "midi": 58,
      "hit": false,
      "t": 54926.41200000001,
      "d": 110.29400000000169,
      "v": 84
    },
    {
      "midi": 34,
      "hit": false,
      "t": 54926.41200000003,
      "d": 64.33816666666826,
      "v": 100
    },
    {
      "midi": 46,
      "hit": false,
      "t": 55036.70600000001,
      "d": 113.74068750000151,
      "v": 84
    },
    {
      "midi": 34,
      "hit": false,
      "t": 55036.706000000035,
      "d": 64.33816666666826,
      "v": 100
    },
    {
      "midi": 62,
      "hit": false,
      "t": 55133.21325000003,
      "d": 241.26812500000233,
      "v": 122
    },
    {
      "midi": 58,
      "hit": false,
      "t": 55147.000000000015,
      "d": 220.58800000000338,
      "v": 84
    },
    {
      "midi": 22,
      "hit": false,
      "t": 55147.00000000004,
      "d": 247.01260416667355,
      "v": 100
    },
    {
      "midi": 70,
      "hit": false,
      "t": 55353.80124999999,
      "d": 88.46497916666704,
      "v": 110
    },
    {
      "midi": 58,
      "hit": false,
      "t": 55353.80124999999,
      "d": 114.88958333333721,
      "v": 110
    },
    {
      "midi": 64,
      "hit": false,
      "t": 55353.80125000003,
      "d": 229.77916666665988,
      "v": 122
    },
    {
      "midi": 46,
      "hit": false,
      "t": 55367.58800000002,
      "d": 110.29400000000169,
      "v": 84
    },
    {
      "midi": 34,
      "hit": false,
      "t": 55367.58800000004,
      "d": 64.33816666666826,
      "v": 100
    },
    {
      "midi": 58,
      "hit": false,
      "t": 55477.88200000002,
      "d": 110.29400000000169,
      "v": 84
    },
    {
      "midi": 34,
      "hit": false,
      "t": 55477.88200000004,
      "d": 64.33816666666826,
      "v": 100
    },
    {
      "midi": 70,
      "hit": false,
      "t": 55574.38924999999,
      "d": 280.3305833333361,
      "v": 110
    },
    {
      "midi": 58,
      "hit": false,
      "t": 55574.38924999999,
      "d": 288.37285416667146,
      "v": 110
    },
    {
      "midi": 65,
      "hit": false,
      "t": 55574.38925000003,
      "d": 244.71481249999488,
      "v": 122
    },
    {
      "midi": 46,
      "hit": false,
      "t": 55588.17600000002,
      "d": 238.9703333333382,
      "v": 84
    },
    {
      "midi": 22,
      "hit": false,
      "t": 55588.17600000004,
      "d": 213.69462499999645,
      "v": 100
    },
    {
      "midi": 64,
      "hit": false,
      "t": 55794.977250000025,
      "d": 249.3103958333304,
      "v": 122
    },
    {
      "midi": 58,
      "hit": false,
      "t": 55808.764000000025,
      "d": 110.29400000000169,
      "v": 84
    },
    {
      "midi": 34,
      "hit": false,
      "t": 55808.76400000004,
      "d": 64.33816666666826,
      "v": 100
    },
    {
      "midi": 46,
      "hit": false,
      "t": 55919.05800000003,
      "d": 112.59179166666581,
      "v": 84
    },
    {
      "midi": 34,
      "hit": false,
      "t": 55919.05800000004,
      "d": 64.33816666666826,
      "v": 100
    },
    {
      "midi": 58,
      "hit": false,
      "t": 56015.56525,
      "d": 110.29400000000169,
      "v": 110
    },
    {
      "midi": 70,
      "hit": false,
      "t": 56015.56525,
      "d": 110.29400000000169,
      "v": 110
    },
    {
      "midi": 65,
      "hit": false,
      "t": 56015.56525000002,
      "d": 220.58800000000338,
      "v": 122
    },
    {
      "midi": 58,
      "hit": false,
      "t": 56029.35200000003,
      "d": 220.5879999999961,
      "v": 84
    },
    {
      "midi": 22,
      "hit": false,
      "t": 56029.35200000004,
      "d": 240.11922916666663,
      "v": 100
    },
    {
      "midi": 70,
      "hit": false,
      "t": 56236.15325,
      "d": 269.99052083333663,
      "v": 110
    },
    {
      "midi": 58,
      "hit": false,
      "t": 56236.15325,
      "d": 282.62837500000023,
      "v": 110
    },
    {
      "midi": 67,
      "hit": false,
      "t": 56236.153250000025,
      "d": 236.6725416666668,
      "v": 122
    },
    {
      "midi": 46,
      "hit": false,
      "t": 56249.940000000024,
      "d": 110.29400000000169,
      "v": 84
    },
    {
      "midi": 34,
      "hit": false,
      "t": 56249.940000000046,
      "d": 64.33816666666098,
      "v": 100
    },
    {
      "midi": 58,
      "hit": false,
      "t": 56360.234000000026,
      "d": 117.18737500000134,
      "v": 84
    },
    {
      "midi": 34,
      "hit": false,
      "t": 56360.23400000004,
      "d": 66.63595833333238,
      "v": 100
    },
    {
      "midi": 65,
      "hit": false,
      "t": 56456.74125000003,
      "d": 220.5879999999961,
      "v": 122
    },
    {
      "midi": 46,
      "hit": false,
      "t": 56470.52800000003,
      "d": 225.18358333333163,
      "v": 84
    },
    {
      "midi": 22,
      "hit": false,
      "t": 56470.52800000004,
      "d": 221.73689583333908,
      "v": 100
    },
    {
      "midi": 58,
      "hit": false,
      "t": 56677.32925,
      "d": 112.59179166666581,
      "v": 110
    },
    {
      "midi": 70,
      "hit": false,
      "t": 56677.32925,
      "d": 121.78295833332959,
      "v": 110
    },
    {
      "midi": 67,
      "hit": false,
      "t": 56677.329250000024,
      "d": 220.58800000000338,
      "v": 122
    },
    {
      "midi": 58,
      "hit": false,
      "t": 56691.11600000002,
      "d": 110.29400000000169,
      "v": 84
    },
    {
      "midi": 34,
      "hit": false,
      "t": 56691.116000000045,
      "d": 64.33816666666826,
      "v": 100
    },
    {
      "midi": 46,
      "hit": false,
      "t": 56801.410000000025,
      "d": 127.52743750000081,
      "v": 84
    },
    {
      "midi": 34,
      "hit": false,
      "t": 56801.41000000005,
      "d": 64.33816666666826,
      "v": 100
    },
    {
      "midi": 70,
      "hit": false,
      "t": 56897.91725,
      "d": 248.16150000000198,
      "v": 110
    },
    {
      "midi": 58,
      "hit": false,
      "t": 56897.91725,
      "d": 265.3949375000011,
      "v": 110
    },
    {
      "midi": 69,
      "hit": false,
      "t": 56897.91725000003,
      "d": 272.28831250000076,
      "v": 122
    },
    {
      "midi": 58,
      "hit": false,
      "t": 56911.70400000003,
      "d": 220.5879999999961,
      "v": 84
    },
    {
      "midi": 22,
      "hit": false,
      "t": 56911.70400000005,
      "d": 234.37475000000268,
      "v": 100
    },
    {
      "midi": 67,
      "hit": false,
      "t": 57118.50525000003,
      "d": 232.07695833333128,
      "v": 122
    },
    {
      "midi": 46,
      "hit": false,
      "t": 57132.29200000002,
      "d": 110.29400000000169,
      "v": 84
    },
    {
      "midi": 34,
      "hit": false,
      "t": 57132.29200000005,
      "d": 64.33816666666826,
      "v": 100
    },
    {
      "midi": 58,
      "hit": false,
      "t": 57242.586000000025,
      "d": 110.29400000000169,
      "v": 84
    },
    {
      "midi": 34,
      "hit": false,
      "t": 57242.586000000054,
      "d": 64.33816666666826,
      "v": 100
    },
    {
      "midi": 70,
      "hit": false,
      "t": 57339.09325,
      "d": 259.6504583333299,
      "v": 110
    },
    {
      "midi": 58,
      "hit": false,
      "t": 57339.09325,
      "d": 265.39493749999383,
      "v": 110
    },
    {
      "midi": 65,
      "hit": false,
      "t": 57339.09325000003,
      "d": 441.1759999999995,
      "v": 122
    },
    {
      "midi": 46,
      "hit": false,
      "t": 57352.88000000003,
      "d": 227.48137500000303,
      "v": 84
    },
    {
      "midi": 22,
      "hit": false,
      "t": 57352.880000000056,
      "d": 211.39683333333232,
      "v": 100
    },
    {
      "midi": 58,
      "hit": false,
      "t": 57573.46800000003,
      "d": 114.88958333333721,
      "v": 84
    },
    {
      "midi": 34,
      "hit": false,
      "t": 57573.46800000005,
      "d": 64.33816666666826,
      "v": 100
    },
    {
      "midi": 46,
      "hit": false,
      "t": 57683.76200000003,
      "d": 117.18737500000134,
      "v": 84
    },
    {
      "midi": 34,
      "hit": false,
      "t": 57683.76200000005,
      "d": 64.33816666666826,
      "v": 100
    },
    {
      "midi": 58,
      "hit": false,
      "t": 57780.26924999999,
      "d": 269.99052083333663,
      "v": 110
    },
    {
      "midi": 70,
      "hit": false,
      "t": 57780.26924999999,
      "d": 291.8195416666713,
      "v": 110
    },
    {
      "midi": 64,
      "hit": false,
      "t": 57780.26925000003,
      "d": 441.17600000000675,
      "v": 122
    },
    {
      "midi": 58,
      "hit": false,
      "t": 57794.05600000003,
      "d": 220.5879999999961,
      "v": 84
    },
    {
      "midi": 22,
      "hit": false,
      "t": 57794.056000000055,
      "d": 230.92806250000285,
      "v": 100
    },
    {
      "midi": 46,
      "hit": false,
      "t": 58014.64400000003,
      "d": 110.29400000000169,
      "v": 84
    },
    {
      "midi": 34,
      "hit": false,
      "t": 58014.64400000006,
      "d": 64.33816666666826,
      "v": 100
    },
    {
      "midi": 58,
      "hit": false,
      "t": 58124.93800000003,
      "d": 110.29400000000169,
      "v": 84
    },
    {
      "midi": 34,
      "hit": false,
      "t": 58124.93800000006,
      "d": 64.33816666666826,
      "v": 100
    },
    {
      "midi": 38,
      "hit": false,
      "t": 58205.36070833336,
      "d": 3547.790333333367,
      "v": 122
    },
    {
      "midi": 57,
      "hit": false,
      "t": 58221.44525,
      "d": 87.31608333333133,
      "v": 110
    },
    {
      "midi": 69,
      "hit": false,
      "t": 58221.44525,
      "d": 106.84731249999459,
      "v": 110
    },
    {
      "midi": 62,
      "hit": false,
      "t": 58221.44525000003,
      "d": 220.58800000000338,
      "v": 122
    },
    {
      "midi": 38,
      "hit": false,
      "t": 58231.7853125,
      "d": 3525.961312499996,
      "v": 122
    },
    {
      "midi": 50,
      "hit": false,
      "t": 58235.23200000003,
      "d": 224.0346875000032,
      "v": 84
    },
    {
      "midi": 26,
      "hit": false,
      "t": 58235.23200000006,
      "d": 235.52364583333838,
      "v": 100
    },
    {
      "midi": 57,
      "hit": false,
      "t": 58442.03324999999,
      "d": 278.0327916666647,
      "v": 110
    },
    {
      "midi": 69,
      "hit": false,
      "t": 58442.03324999999,
      "d": 292.9684374999997,
      "v": 110
    },
    {
      "midi": 57,
      "hit": false,
      "t": 58442.03325000004,
      "d": 238.9703333333382,
      "v": 122
    },
    {
      "midi": 62,
      "hit": false,
      "t": 58455.820000000036,
      "d": 110.29400000000169,
      "v": 84
    },
    {
      "midi": 38,
      "hit": false,
      "t": 58455.820000000065,
      "d": 64.33816666666826,
      "v": 100
    },
    {
      "midi": 50,
      "hit": false,
      "t": 58566.11400000004,
      "d": 110.29400000000169,
      "v": 84
    },
    {
      "midi": 38,
      "hit": false,
      "t": 58566.11400000007,
      "d": 64.33816666666826,
      "v": 100
    },
    {
      "midi": 62,
      "hit": false,
      "t": 58662.62125000004,
      "d": 248.16150000000198,
      "v": 122
    },
    {
      "midi": 62,
      "hit": false,
      "t": 58676.40800000004,
      "d": 220.58800000000338,
      "v": 84
    },
    {
      "midi": 26,
      "hit": false,
      "t": 58676.40800000007,
      "d": 234.37475000000268,
      "v": 100
    },
    {
      "midi": 69,
      "hit": false,
      "t": 58883.20924999999,
      "d": 90.76277083333116,
      "v": 110
    },
    {
      "midi": 57,
      "hit": false,
      "t": 58883.20924999999,
      "d": 106.84731249999459,
      "v": 110
    },
    {
      "midi": 64,
      "hit": false,
      "t": 58883.20925000004,
      "d": 220.5879999999961,
      "v": 122
    },
    {
      "midi": 50,
      "hit": false,
      "t": 58896.99600000004,
      "d": 110.29400000000169,
      "v": 84
    },
    {
      "midi": 38,
      "hit": false,
      "t": 58896.99600000007,
      "d": 64.33816666666826,
      "v": 100
    },
    {
      "midi": 62,
      "hit": false,
      "t": 59007.290000000045,
      "d": 122.93185416666529,
      "v": 84
    },
    {
      "midi": 38,
      "hit": false,
      "t": 59007.29000000007,
      "d": 64.33816666666826,
      "v": 100
    },
    {
      "midi": 69,
      "hit": false,
      "t": 59103.79724999999,
      "d": 295.26622916666383,
      "v": 110
    },
    {
      "midi": 57,
      "hit": false,
      "t": 59103.79724999999,
      "d": 296.41512499999953,
      "v": 110
    },
    {
      "midi": 65,
      "hit": false,
      "t": 59103.79725000004,
      "d": 220.58800000000338,
      "v": 122
    },
    {
      "midi": 50,
      "hit": false,
      "t": 59117.584000000046,
      "d": 229.77916666665988,
      "v": 84
    },
    {
      "midi": 26,
      "hit": false,
      "t": 59117.584000000075,
      "d": 211.39683333333232,
      "v": 100
    },
    {
      "midi": 64,
      "hit": false,
      "t": 59324.38525000004,
      "d": 271.13941666667233,
      "v": 122
    },
    {
      "midi": 62,
      "hit": false,
      "t": 59338.17200000004,
      "d": 110.29399999999441,
      "v": 84
    },
    {
      "midi": 38,
      "hit": false,
      "t": 59338.17200000007,
      "d": 64.33816666666826,
      "v": 100
    },
    {
      "midi": 50,
      "hit": false,
      "t": 59448.46600000004,
      "d": 110.29400000000169,
      "v": 84
    },
    {
      "midi": 38,
      "hit": false,
      "t": 59448.46600000007,
      "d": 64.33816666666826,
      "v": 100
    },
    {
      "midi": 57,
      "hit": false,
      "t": 59544.97324999999,
      "d": 93.06056250000256,
      "v": 114
    },
    {
      "midi": 69,
      "hit": false,
      "t": 59544.97324999999,
      "d": 114.88958333333721,
      "v": 114
    },
    {
      "midi": 65,
      "hit": false,
      "t": 59544.97325000005,
      "d": 220.58800000000338,
      "v": 122
    },
    {
      "midi": 62,
      "hit": false,
      "t": 59558.76000000004,
      "d": 220.58800000000338,
      "v": 84
    },
    {
      "midi": 26,
      "hit": false,
      "t": 59558.760000000075,
      "d": 204.50345833333267,
      "v": 100
    },
    {
      "midi": 57,
      "hit": false,
      "t": 59765.56124999999,
      "d": 267.69272916666523,
      "v": 110
    },
    {
      "midi": 69,
      "hit": false,
      "t": 59765.56124999999,
      "d": 290.6706458333283,
      "v": 110
    },
    {
      "midi": 67,
      "hit": false,
      "t": 59765.56125000005,
      "d": 220.58800000000338,
      "v": 122
    },
    {
      "midi": 50,
      "hit": false,
      "t": 59779.34800000004,
      "d": 110.29400000000169,
      "v": 84
    },
    {
      "midi": 38,
      "hit": false,
      "t": 59779.34800000007,
      "d": 64.33816666666826,
      "v": 100
    },
    {
      "midi": 62,
      "hit": false,
      "t": 59889.64200000004,
      "d": 110.29400000000169,
      "v": 84
    },
    {
      "midi": 38,
      "hit": false,
      "t": 59889.64200000007,
      "d": 64.33816666666826,
      "v": 100
    },
    {
      "midi": 65,
      "hit": false,
      "t": 59986.14925000005,
      "d": 228.63027083333873,
      "v": 122
    },
    {
      "midi": 50,
      "hit": false,
      "t": 59999.936000000045,
      "d": 220.58800000000338,
      "v": 84
    },
    {
      "midi": 26,
      "hit": false,
      "t": 59999.936000000074,
      "d": 207.9501458333325,
      "v": 100
    },
    {
      "midi": 57,
      "hit": false,
      "t": 60206.737249999984,
      "d": 96.50725000000239,
      "v": 110
    },
    {
      "midi": 69,
      "hit": false,
      "t": 60206.737249999984,
      "d": 113.74068750000151,
      "v": 110
    },
    {
      "midi": 67,
      "hit": false,
      "t": 60206.73725000006,
      "d": 220.58800000000338,
      "v": 122
    },
    {
      "midi": 62,
      "hit": false,
      "t": 60220.52400000005,
      "d": 110.29400000000169,
      "v": 84
    },
    {
      "midi": 38,
      "hit": false,
      "t": 60220.52400000007,
      "d": 64.33816666666826,
      "v": 100
    },
    {
      "midi": 50,
      "hit": false,
      "t": 60330.81800000005,
      "d": 110.29400000000169,
      "v": 84
    },
    {
      "midi": 38,
      "hit": false,
      "t": 60330.81800000007,
      "d": 64.33816666666826,
      "v": 100
    },
    {
      "midi": 57,
      "hit": false,
      "t": 60427.32524999999,
      "d": 278.0327916666647,
      "v": 110
    },
    {
      "midi": 69,
      "hit": false,
      "t": 60427.32524999999,
      "d": 284.92616666666436,
      "v": 110
    },
    {
      "midi": 69,
      "hit": false,
      "t": 60427.32525000006,
      "d": 252.7570833333375,
      "v": 122
    },
    {
      "midi": 62,
      "hit": false,
      "t": 60441.11200000005,
      "d": 220.58800000000338,
      "v": 84
    },
    {
      "midi": 26,
      "hit": false,
      "t": 60441.112000000074,
      "d": 212.54572916666802,
      "v": 100
    },
    {
      "midi": 67,
      "hit": false,
      "t": 60647.91325000006,
      "d": 276.8838958333363,
      "v": 122
    },
    {
      "midi": 50,
      "hit": false,
      "t": 60661.700000000055,
      "d": 110.29400000000169,
      "v": 84
    },
    {
      "midi": 38,
      "hit": false,
      "t": 60661.70000000008,
      "d": 64.33816666666826,
      "v": 100
    },
    {
      "midi": 62,
      "hit": false,
      "t": 60771.99400000006,
      "d": 110.29400000000169,
      "v": 84
    },
    {
      "midi": 38,
      "hit": false,
      "t": 60771.99400000008,
      "d": 72.38043750000361,
      "v": 100
    },
    {
      "midi": 69,
      "hit": false,
      "t": 60868.50124999999,
      "d": 280.3305833333361,
      "v": 110
    },
    {
      "midi": 57,
      "hit": false,
      "t": 60868.50124999999,
      "d": 288.37285416667146,
      "v": 110
    },
    {
      "midi": 65,
      "hit": false,
      "t": 60868.50125000007,
      "d": 441.1759999999995,
      "v": 122
    },
    {
      "midi": 50,
      "hit": false,
      "t": 60882.28800000006,
      "d": 220.58800000000338,
      "v": 84
    },
    {
      "midi": 26,
      "hit": false,
      "t": 60882.28800000008,
      "d": 204.50345833333267,
      "v": 100
    },
    {
      "midi": 62,
      "hit": false,
      "t": 61102.87600000006,
      "d": 110.29400000000169,
      "v": 84
    },
    {
      "midi": 38,
      "hit": false,
      "t": 61102.87600000008,
      "d": 64.33816666666826,
      "v": 100
    },
    {
      "midi": 50,
      "hit": false,
      "t": 61213.170000000064,
      "d": 110.29400000000169,
      "v": 84
    },
    {
      "midi": 38,
      "hit": false,
      "t": 61213.17000000008,
      "d": 64.33816666666826,
      "v": 100
    },
    {
      "midi": 57,
      "hit": false,
      "t": 61309.67724999999,
      "d": 274.5861041666649,
      "v": 110
    },
    {
      "midi": 69,
      "hit": false,
      "t": 61309.67724999999,
      "d": 314.79745833333436,
      "v": 110
    },
    {
      "midi": 64,
      "hit": false,
      "t": 61309.677250000066,
      "d": 441.1759999999995,
      "v": 122
    },
    {
      "midi": 62,
      "hit": false,
      "t": 61323.464000000065,
      "d": 220.58800000000338,
      "v": 84
    },
    {
      "midi": 26,
      "hit": false,
      "t": 61323.46400000008,
      "d": 201.05677083333285,
      "v": 100
    },
    {
      "midi": 50,
      "hit": false,
      "t": 61544.05200000007,
      "d": 110.29400000000169,
      "v": 84
    },
    {
      "midi": 38,
      "hit": false,
      "t": 61544.052000000076,
      "d": 64.33816666666826,
      "v": 100
    },
    {
      "midi": 62,
      "hit": false,
      "t": 61654.34600000007,
      "d": 110.29400000000169,
      "v": 84
    },
    {
      "midi": 38,
      "hit": false,
      "t": 61654.34600000008,
      "d": 64.33816666666826,
      "v": 100
    },
    {
      "midi": 34,
      "hit": false,
      "t": 61735.91760416673,
      "d": 3453.580875000007,
      "v": 117
    },
    {
      "midi": 34,
      "hit": false,
      "t": 61748.55545833333,
      "d": 3336.3935000000056,
      "v": 121
    },
    {
      "midi": 70,
      "hit": false,
      "t": 61750.85324999999,
      "d": 85.01829166666721,
      "v": 110
    },
    {
      "midi": 58,
      "hit": false,
      "t": 61750.85324999999,
      "d": 93.06056250000256,
      "v": 110
    },
    {
      "midi": 62,
      "hit": false,
      "t": 61750.853250000066,
      "d": 220.5879999999961,
      "v": 122
    },
    {
      "midi": 46,
      "hit": false,
      "t": 61764.64000000007,
      "d": 225.1835833333389,
      "v": 84
    },
    {
      "midi": 22,
      "hit": false,
      "t": 61764.64000000008,
      "d": 218.29020833333198,
      "v": 100
    },
    {
      "midi": 70,
      "hit": false,
      "t": 61971.441249999996,
      "d": 275.7350000000006,
      "v": 110
    },
    {
      "midi": 58,
      "hit": false,
      "t": 61971.441249999996,
      "d": 291.819541666664,
      "v": 110
    },
    {
      "midi": 58,
      "hit": false,
      "t": 61971.44125000006,
      "d": 220.58800000000338,
      "v": 122
    },
    {
      "midi": 34,
      "hit": false,
      "t": 61985.228000000076,
      "d": 64.33816666666826,
      "v": 100
    },
    {
      "midi": 58,
      "hit": false,
      "t": 61985.228000000076,
      "d": 110.29400000000169,
      "v": 84
    },
    {
      "midi": 34,
      "hit": false,
      "t": 62095.52200000008,
      "d": 64.33816666666826,
      "v": 100
    },
    {
      "midi": 46,
      "hit": false,
      "t": 62095.52200000008,
      "d": 110.29400000000169,
      "v": 84
    },
    {
      "midi": 62,
      "hit": false,
      "t": 62192.029250000065,
      "d": 240.11922916666663,
      "v": 122
    },
    {
      "midi": 22,
      "hit": false,
      "t": 62205.81600000008,
      "d": 228.63027083333873,
      "v": 100
    },
    {
      "midi": 58,
      "hit": false,
      "t": 62205.81600000008,
      "d": 220.58800000000338,
      "v": 84
    },
    {
      "midi": 70,
      "hit": false,
      "t": 62412.617249999996,
      "d": 104.54952083333046,
      "v": 110
    },
    {
      "midi": 58,
      "hit": false,
      "t": 62412.617249999996,
      "d": 125.22964583332941,
      "v": 110
    },
    {
      "midi": 64,
      "hit": false,
      "t": 62412.61725000007,
      "d": 220.5879999999961,
      "v": 122
    },
    {
      "midi": 34,
      "hit": false,
      "t": 62426.40400000008,
      "d": 64.33816666666826,
      "v": 100
    },
    {
      "midi": 46,
      "hit": false,
      "t": 62426.40400000008,
      "d": 110.29400000000169,
      "v": 84
    },
    {
      "midi": 34,
      "hit": false,
      "t": 62536.698000000084,
      "d": 64.33816666666826,
      "v": 100
    },
    {
      "midi": 58,
      "hit": false,
      "t": 62536.698000000084,
      "d": 110.29400000000169,
      "v": 84
    },
    {
      "midi": 70,
      "hit": false,
      "t": 62633.20524999999,
      "d": 279.1816875000004,
      "v": 110
    },
    {
      "midi": 58,
      "hit": false,
      "t": 62633.20524999999,
      "d": 299.86181249999936,
      "v": 110
    },
    {
      "midi": 65,
      "hit": false,
      "t": 62633.205250000065,
      "d": 240.11922916666663,
      "v": 122
    },
    {
      "midi": 22,
      "hit": false,
      "t": 62646.992000000086,
      "d": 210.24793749999662,
      "v": 100
    },
    {
      "midi": 46,
      "hit": false,
      "t": 62646.992000000086,
      "d": 225.1835833333389,
      "v": 84
    },
    {
      "midi": 64,
      "hit": false,
      "t": 62853.79325000007,
      "d": 220.5879999999961,
      "v": 122
    },
    {
      "midi": 34,
      "hit": false,
      "t": 62867.58000000008,
      "d": 64.33816666666826,
      "v": 100
    },
    {
      "midi": 58,
      "hit": false,
      "t": 62867.58000000009,
      "d": 110.29400000000169,
      "v": 84
    },
    {
      "midi": 34,
      "hit": false,
      "t": 62977.87400000008,
      "d": 64.33816666666826,
      "v": 100
    },
    {
      "midi": 46,
      "hit": false,
      "t": 62977.87400000009,
      "d": 124.08075000000099,
      "v": 84
    },
    {
      "midi": 70,
      "hit": false,
      "t": 63074.38124999999,
      "d": 91.91166666666686,
      "v": 110
    },
    {
      "midi": 58,
      "hit": false,
      "t": 63074.38124999999,
      "d": 120.63406250000116,
      "v": 110
    },
    {
      "midi": 65,
      "hit": false,
      "t": 63074.381250000064,
      "d": 220.58800000000338,
      "v": 122
    },
    {
      "midi": 22,
      "hit": false,
      "t": 63088.168000000085,
      "d": 210.24793749999662,
      "v": 100
    },
    {
      "midi": 58,
      "hit": false,
      "t": 63088.16800000009,
      "d": 222.88579166666023,
      "v": 84
    },
    {
      "midi": 70,
      "hit": false,
      "t": 63294.969249999995,
      "d": 264.2460416666654,
      "v": 110
    },
    {
      "midi": 58,
      "hit": false,
      "t": 63294.969249999995,
      "d": 273.4372083333292,
      "v": 110
    },
    {
      "midi": 67,
      "hit": false,
      "t": 63294.96925000007,
      "d": 220.58800000000338,
      "v": 122
    },
    {
      "midi": 34,
      "hit": false,
      "t": 63308.75600000008,
      "d": 64.33816666666826,
      "v": 100
    },
    {
      "midi": 46,
      "hit": false,
      "t": 63308.75600000009,
      "d": 110.29399999999441,
      "v": 84
    },
    {
      "midi": 34,
      "hit": false,
      "t": 63419.05000000008,
      "d": 64.33816666666826,
      "v": 100
    },
    {
      "midi": 58,
      "hit": false,
      "t": 63419.05000000008,
      "d": 118.33627083333704,
      "v": 84
    },
    {
      "midi": 65,
      "hit": false,
      "t": 63515.55725000007,
      "d": 257.35266666667303,
      "v": 122
    },
    {
      "midi": 22,
      "hit": false,
      "t": 63529.344000000085,
      "d": 220.58800000000338,
      "v": 100
    },
    {
      "midi": 46,
      "hit": false,
      "t": 63529.344000000085,
      "d": 225.1835833333389,
      "v": 84
    },
    {
      "midi": 58,
      "hit": false,
      "t": 63736.14524999999,
      "d": 89.61387500000274,
      "v": 110
    },
    {
      "midi": 70,
      "hit": false,
      "t": 63736.14524999999,
      "d": 107.99620833333756,
      "v": 110
    },
    {
      "midi": 67,
      "hit": false,
      "t": 63736.145250000074,
      "d": 220.58800000000338,
      "v": 122
    },
    {
      "midi": 34,
      "hit": false,
      "t": 63749.93200000009,
      "d": 64.33816666666826,
      "v": 100
    },
    {
      "midi": 58,
      "hit": false,
      "t": 63749.93200000009,
      "d": 110.29400000000169,
      "v": 84
    },
    {
      "midi": 34,
      "hit": false,
      "t": 63860.22600000009,
      "d": 64.33816666666826,
      "v": 100
    },
    {
      "midi": 46,
      "hit": false,
      "t": 63860.22600000009,
      "d": 113.74068750000151,
      "v": 84
    },
    {
      "midi": 70,
      "hit": false,
      "t": 63956.73324999999,
      "d": 264.2460416666654,
      "v": 110
    },
    {
      "midi": 58,
      "hit": false,
      "t": 63956.73324999999,
      "d": 279.1816875000004,
      "v": 110
    },
    {
      "midi": 69,
      "hit": false,
      "t": 63956.73325000008,
      "d": 251.6081875000018,
      "v": 122
    },
    {
      "midi": 22,
      "hit": false,
      "t": 63970.52000000009,
      "d": 207.9501458333325,
      "v": 100
    },
    {
      "midi": 58,
      "hit": false,
      "t": 63970.52000000009,
      "d": 220.58800000000338,
      "v": 84
    },
    {
      "midi": 67,
      "hit": false,
      "t": 64177.32125000008,
      "d": 233.2258541666597,
      "v": 122
    },
    {
      "midi": 34,
      "hit": false,
      "t": 64191.10800000009,
      "d": 64.33816666666826,
      "v": 100
    },
    {
      "midi": 46,
      "hit": false,
      "t": 64191.108000000095,
      "d": 110.29400000000169,
      "v": 84
    },
    {
      "midi": 34,
      "hit": false,
      "t": 64301.40200000009,
      "d": 64.33816666666826,
      "v": 100
    },
    {
      "midi": 58,
      "hit": false,
      "t": 64301.4020000001,
      "d": 110.29400000000169,
      "v": 84
    },
    {
      "midi": 70,
      "hit": false,
      "t": 64397.90924999999,
      "d": 261.9482500000013,
      "v": 110
    },
    {
      "midi": 58,
      "hit": false,
      "t": 64397.90924999999,
      "d": 269.99052083333663,
      "v": 110
    },
    {
      "midi": 65,
      "hit": false,
      "t": 64397.90925000008,
      "d": 446.9204791666634,
      "v": 122
    },
    {
      "midi": 22,
      "hit": false,
      "t": 64411.69600000009,
      "d": 240.11922916666663,
      "v": 100
    },
    {
      "midi": 46,
      "hit": false,
      "t": 64411.6960000001,
      "d": 228.63027083333873,
      "v": 84
    },
    {
      "midi": 34,
      "hit": false,
      "t": 64632.284000000094,
      "d": 64.33816666666098,
      "v": 100
    },
    {
      "midi": 58,
      "hit": false,
      "t": 64632.2840000001,
      "d": 110.29400000000169,
      "v": 84
    },
    {
      "midi": 34,
      "hit": false,
      "t": 64742.57800000009,
      "d": 64.33816666666826,
      "v": 100
    },
    {
      "midi": 46,
      "hit": false,
      "t": 64742.5780000001,
      "d": 125.22964583333669,
      "v": 84
    },
    {
      "midi": 70,
      "hit": false,
      "t": 64839.08525,
      "d": 217.14131250000355,
      "v": 110
    },
    {
      "midi": 58,
      "hit": false,
      "t": 64839.08525,
      "d": 237.8214375000025,
      "v": 110
    },
    {
      "midi": 64,
      "hit": false,
      "t": 64839.08525000008,
      "d": 441.1759999999922,
      "v": 122
    },
    {
      "midi": 22,
      "hit": false,
      "t": 64852.87200000009,
      "d": 188.41891666666925,
      "v": 100
    },
    {
      "midi": 58,
      "hit": false,
      "t": 64852.872000000105,
      "d": 220.58800000000338,
      "v": 84
    },
    {
      "midi": 34,
      "hit": false,
      "t": 65073.460000000094,
      "d": 64.33816666666826,
      "v": 100
    },
    {
      "midi": 46,
      "hit": false,
      "t": 65073.46000000011,
      "d": 110.29400000000169,
      "v": 84
    },
    {
      "midi": 34,
      "hit": false,
      "t": 65183.754000000095,
      "d": 64.33816666666826,
      "v": 100
    },
    {
      "midi": 58,
      "hit": false,
      "t": 65183.75400000011,
      "d": 110.29400000000169,
      "v": 84
    },
    {
      "midi": 50,
      "hit": false,
      "t": 65294.048,
      "d": 1764.7040000000052,
      "v": 79
    },
    {
      "midi": 62,
      "hit": false,
      "t": 65294.048,
      "d": 1764.7040000000052,
      "v": 79
    },
    {
      "midi": 65,
      "hit": false,
      "t": 65294.048,
      "d": 1764.7040000000052,
      "v": 79
    },
    {
      "midi": 69,
      "hit": false,
      "t": 65294.048,
      "d": 1764.7040000000052,
      "v": 79
    },
    {
      "midi": 38,
      "hit": false,
      "t": 65294.04800000007,
      "d": 1753.2150416666555,
      "v": 122
    },
    {
      "midi": 50,
      "hit": false,
      "t": 65294.04800000007,
      "d": 1764.7039999999834,
      "v": 97
    },
    {
      "midi": 62,
      "hit": false,
      "t": 65294.04800000007,
      "d": 1764.7039999999834,
      "v": 97
    },
    {
      "midi": 65,
      "hit": false,
      "t": 65294.04800000007,
      "d": 1764.7039999999834,
      "v": 97
    },
    {
      "midi": 69,
      "hit": false,
      "t": 65294.04800000007,
      "d": 1764.7039999999834,
      "v": 97
    },
    {
      "midi": 26,
      "hit": false,
      "t": 65294.0480000001,
      "d": 198.75897916666872,
      "v": 100
    },
    {
      "midi": 38,
      "hit": false,
      "t": 65294.04800000011,
      "d": 220.58800000000338,
      "v": 84
    },
    {
      "midi": 38,
      "hit": false,
      "t": 65300.941375,
      "d": 1730.237125000007,
      "v": 122
    },
    {
      "midi": 38,
      "hit": false,
      "t": 65514.6360000001,
      "d": 64.33816666666826,
      "v": 100
    },
    {
      "midi": 50,
      "hit": false,
      "t": 65514.636000000115,
      "d": 110.29399999999441,
      "v": 84
    },
    {
      "midi": 38,
      "hit": false,
      "t": 65624.9300000001,
      "d": 68.93374999999651,
      "v": 100
    },
    {
      "midi": 38,
      "hit": false,
      "t": 65624.93000000011,
      "d": 132.12302083332906,
      "v": 84
    },
    {
      "midi": 26,
      "hit": false,
      "t": 65735.22400000009,
      "d": 206.80125000000407,
      "v": 100
    },
    {
      "midi": 50,
      "hit": false,
      "t": 65735.2240000001,
      "d": 220.58800000000338,
      "v": 84
    },
    {
      "midi": 38,
      "hit": false,
      "t": 65955.81200000009,
      "d": 64.33816666666826,
      "v": 100
    },
    {
      "midi": 38,
      "hit": false,
      "t": 65955.8120000001,
      "d": 110.29399999999441,
      "v": 84
    },
    {
      "midi": 38,
      "hit": false,
      "t": 66066.10600000009,
      "d": 64.33816666666826,
      "v": 100
    },
    {
      "midi": 50,
      "hit": false,
      "t": 66066.1060000001,
      "d": 110.29399999999441,
      "v": 84
    },
    {
      "midi": 26,
      "hit": false,
      "t": 66176.40000000008,
      "d": 212.54572916666802,
      "v": 100
    },
    {
      "midi": 38,
      "hit": false,
      "t": 66176.4000000001,
      "d": 225.18358333333163,
      "v": 84
    },
    {
      "midi": 38,
      "hit": false,
      "t": 66396.98800000008,
      "d": 64.33816666666826,
      "v": 100
    },
    {
      "midi": 50,
      "hit": false,
      "t": 66396.9880000001,
      "d": 110.29399999999441,
      "v": 84
    },
    {
      "midi": 38,
      "hit": false,
      "t": 66507.28200000008,
      "d": 66.63595833333966,
      "v": 100
    },
    {
      "midi": 38,
      "hit": false,
      "t": 66507.2820000001,
      "d": 129.82522916665766,
      "v": 84
    },
    {
      "midi": 26,
      "hit": false,
      "t": 66617.57600000009,
      "d": 213.69462500000373,
      "v": 100
    },
    {
      "midi": 50,
      "hit": false,
      "t": 66617.57600000009,
      "d": 220.58800000000338,
      "v": 84
    },
    {
      "midi": 38,
      "hit": false,
      "t": 66838.16400000009,
      "d": 64.33816666666826,
      "v": 100
    },
    {
      "midi": 38,
      "hit": false,
      "t": 66838.16400000009,
      "d": 110.29399999999441,
      "v": 84
    },
    {
      "midi": 38,
      "hit": false,
      "t": 66948.45800000009,
      "d": 64.33816666666826,
      "v": 100
    },
    {
      "midi": 50,
      "hit": false,
      "t": 66948.45800000009,
      "d": 110.29399999999441,
      "v": 84
    },
    {
      "midi": 52,
      "hit": false,
      "t": 67031.17850000001,
      "d": 1764.703999999998,
      "v": 79
    },
    {
      "midi": 64,
      "hit": false,
      "t": 67031.17850000001,
      "d": 1764.703999999998,
      "v": 79
    },
    {
      "midi": 67,
      "hit": false,
      "t": 67031.17850000001,
      "d": 1764.703999999998,
      "v": 79
    },
    {
      "midi": 70,
      "hit": false,
      "t": 67031.17850000001,
      "d": 1764.703999999998,
      "v": 79
    },
    {
      "midi": 40,
      "hit": false,
      "t": 67031.17850000001,
      "d": 1788.830812500004,
      "v": 122
    },
    {
      "midi": 52,
      "hit": false,
      "t": 67031.17850000007,
      "d": 1764.7039999999834,
      "v": 97
    },
    {
      "midi": 64,
      "hit": false,
      "t": 67031.17850000007,
      "d": 1764.7039999999834,
      "v": 97
    },
    {
      "midi": 67,
      "hit": false,
      "t": 67031.17850000007,
      "d": 1764.7039999999834,
      "v": 97
    },
    {
      "midi": 70,
      "hit": false,
      "t": 67031.17850000007,
      "d": 1764.7039999999834,
      "v": 97
    },
    {
      "midi": 40,
      "hit": false,
      "t": 67042.6674583334,
      "d": 1785.3841249999823,
      "v": 122
    },
    {
      "midi": 28,
      "hit": false,
      "t": 67058.75200000008,
      "d": 187.27002083332627,
      "v": 100
    },
    {
      "midi": 40,
      "hit": false,
      "t": 67058.75200000008,
      "d": 221.73689583333908,
      "v": 84
    },
    {
      "midi": 40,
      "hit": false,
      "t": 67279.34000000007,
      "d": 64.33816666666826,
      "v": 100
    },
    {
      "midi": 52,
      "hit": false,
      "t": 67279.34000000008,
      "d": 110.29400000000896,
      "v": 84
    },
    {
      "midi": 40,
      "hit": false,
      "t": 67389.63400000006,
      "d": 64.33816666666826,
      "v": 100
    },
    {
      "midi": 40,
      "hit": false,
      "t": 67389.6340000001,
      "d": 119.48516666666546,
      "v": 84
    },
    {
      "midi": 28,
      "hit": false,
      "t": 67499.92800000006,
      "d": 201.05677083334012,
      "v": 100
    },
    {
      "midi": 52,
      "hit": false,
      "t": 67499.92800000009,
      "d": 220.58800000000338,
      "v": 84
    },
    {
      "midi": 40,
      "hit": false,
      "t": 67720.51600000006,
      "d": 64.33816666666826,
      "v": 100
    },
    {
      "midi": 40,
      "hit": false,
      "t": 67720.51600000009,
      "d": 110.29399999999441,
      "v": 84
    },
    {
      "midi": 40,
      "hit": false,
      "t": 67830.81000000006,
      "d": 70.08264583333221,
      "v": 100
    },
    {
      "midi": 52,
      "hit": false,
      "t": 67830.81000000008,
      "d": 110.29399999999441,
      "v": 84
    },
    {
      "midi": 28,
      "hit": false,
      "t": 67941.10400000005,
      "d": 195.31229166666162,
      "v": 100
    },
    {
      "midi": 40,
      "hit": false,
      "t": 67941.10400000008,
      "d": 220.58800000000338,
      "v": 84
    },
    {
      "midi": 40,
      "hit": false,
      "t": 68161.69200000004,
      "d": 64.33816666666826,
      "v": 100
    },
    {
      "midi": 52,
      "hit": false,
      "t": 68161.69200000008,
      "d": 110.29399999999441,
      "v": 84
    },
    {
      "midi": 40,
      "hit": false,
      "t": 68271.98600000003,
      "d": 64.33816666666826,
      "v": 100
    },
    {
      "midi": 40,
      "hit": false,
      "t": 68271.98600000008,
      "d": 118.33627083332976,
      "v": 84
    },
    {
      "midi": 28,
      "hit": false,
      "t": 68382.28000000003,
      "d": 199.90787500000442,
      "v": 100
    },
    {
      "midi": 52,
      "hit": false,
      "t": 68382.28000000007,
      "d": 220.58800000000338,
      "v": 84
    },
    {
      "midi": 40,
      "hit": false,
      "t": 68602.86800000003,
      "d": 64.33816666666826,
      "v": 100
    },
    {
      "midi": 40,
      "hit": false,
      "t": 68602.86800000007,
      "d": 110.29399999999441,
      "v": 84
    },
    {
      "midi": 40,
      "hit": false,
      "t": 68713.16200000003,
      "d": 64.33816666666826,
      "v": 100
    },
    {
      "midi": 52,
      "hit": false,
      "t": 68713.16200000007,
      "d": 110.29399999999441,
      "v": 84
    },
    {
      "midi": 53,
      "hit": false,
      "t": 68795.8825,
      "d": 1764.7040000000125,
      "v": 79
    },
    {
      "midi": 65,
      "hit": false,
      "t": 68795.8825,
      "d": 1764.7040000000125,
      "v": 79
    },
    {
      "midi": 69,
      "hit": false,
      "t": 68795.8825,
      "d": 1764.7040000000125,
      "v": 79
    },
    {
      "midi": 72,
      "hit": false,
      "t": 68795.8825,
      "d": 1764.7040000000125,
      "v": 79
    },
    {
      "midi": 53,
      "hit": false,
      "t": 68795.88250000005,
      "d": 1764.703999999998,
      "v": 97
    },
    {
      "midi": 65,
      "hit": false,
      "t": 68795.88250000005,
      "d": 1764.703999999998,
      "v": 97
    },
    {
      "midi": 69,
      "hit": false,
      "t": 68795.88250000005,
      "d": 1764.703999999998,
      "v": 97
    },
    {
      "midi": 72,
      "hit": false,
      "t": 68795.88250000005,
      "d": 1764.703999999998,
      "v": 97
    },
    {
      "midi": 41,
      "hit": false,
      "t": 68811.96704166668,
      "d": 1768.150687500005,
      "v": 122
    },
    {
      "midi": 29,
      "hit": false,
      "t": 68823.45600000002,
      "d": 203.35456249999697,
      "v": 100
    },
    {
      "midi": 41,
      "hit": false,
      "t": 68823.45600000006,
      "d": 220.58800000000338,
      "v": 84
    },
    {
      "midi": 41,
      "hit": false,
      "t": 68831.49827083338,
      "d": 1806.0642499999958,
      "v": 122
    },
    {
      "midi": 41,
      "hit": false,
      "t": 69044.04400000002,
      "d": 64.33816666666826,
      "v": 100
    },
    {
      "midi": 53,
      "hit": false,
      "t": 69044.04400000007,
      "d": 110.29399999999441,
      "v": 84
    },
    {
      "midi": 41,
      "hit": false,
      "t": 69154.33800000002,
      "d": 64.33816666666826,
      "v": 100
    },
    {
      "midi": 41,
      "hit": false,
      "t": 69154.33800000006,
      "d": 125.22964583332941,
      "v": 84
    },
    {
      "midi": 29,
      "hit": false,
      "t": 69264.63200000001,
      "d": 205.65235416666837,
      "v": 100
    },
    {
      "midi": 53,
      "hit": false,
      "t": 69264.63200000006,
      "d": 220.58800000000338,
      "v": 84
    },
    {
      "midi": 41,
      "hit": false,
      "t": 69485.22000000002,
      "d": 64.33816666666826,
      "v": 100
    },
    {
      "midi": 41,
      "hit": false,
      "t": 69485.22000000006,
      "d": 110.29399999999441,
      "v": 84
    },
    {
      "midi": 41,
      "hit": false,
      "t": 69595.51400000001,
      "d": 64.33816666666826,
      "v": 100
    },
    {
      "midi": 53,
      "hit": false,
      "t": 69595.51400000005,
      "d": 114.88958333332266,
      "v": 84
    },
    {
      "midi": 29,
      "hit": false,
      "t": 69705.808,
      "d": 215.99241666666057,
      "v": 100
    },
    {
      "midi": 41,
      "hit": false,
      "t": 69705.80800000005,
      "d": 220.58799999998882,
      "v": 84
    },
    {
      "midi": 41,
      "hit": false,
      "t": 69926.396,
      "d": 64.33816666666826,
      "v": 100
    },
    {
      "midi": 53,
      "hit": false,
      "t": 69926.39600000004,
      "d": 110.29399999999441,
      "v": 84
    },
    {
      "midi": 41,
      "hit": false,
      "t": 70036.68999999999,
      "d": 64.33816666666826,
      "v": 100
    },
    {
      "midi": 41,
      "hit": false,
      "t": 70036.69000000003,
      "d": 134.42081250000047,
      "v": 84
    },
    {
      "midi": 29,
      "hit": false,
      "t": 70146.98399999998,
      "d": 187.27002083332627,
      "v": 100
    },
    {
      "midi": 53,
      "hit": false,
      "t": 70146.98400000003,
      "d": 220.58800000000338,
      "v": 84
    },
    {
      "midi": 41,
      "hit": false,
      "t": 70367.57199999997,
      "d": 64.33816666666826,
      "v": 100
    },
    {
      "midi": 41,
      "hit": false,
      "t": 70367.57200000003,
      "d": 110.29399999999441,
      "v": 84
    },
    {
      "midi": 41,
      "hit": false,
      "t": 70477.86599999997,
      "d": 64.33816666666826,
      "v": 100
    },
    {
      "midi": 53,
      "hit": false,
      "t": 70477.86600000002,
      "d": 110.29399999999441,
      "v": 84
    },
    {
      "midi": 58,
      "hit": false,
      "t": 70560.58650000002,
      "d": 1764.703999999998,
      "v": 79
    },
    {
      "midi": 62,
      "hit": false,
      "t": 70560.58650000002,
      "d": 1764.703999999998,
      "v": 79
    },
    {
      "midi": 65,
      "hit": false,
      "t": 70560.58650000002,
      "d": 1764.703999999998,
      "v": 79
    },
    {
      "midi": 70,
      "hit": false,
      "t": 70560.58650000002,
      "d": 1764.703999999998,
      "v": 79
    },
    {
      "midi": 58,
      "hit": false,
      "t": 70560.58650000005,
      "d": 1764.703999999998,
      "v": 97
    },
    {
      "midi": 62,
      "hit": false,
      "t": 70560.58650000005,
      "d": 1764.703999999998,
      "v": 97
    },
    {
      "midi": 65,
      "hit": false,
      "t": 70560.58650000005,
      "d": 1764.703999999998,
      "v": 97
    },
    {
      "midi": 70,
      "hit": false,
      "t": 70560.58650000005,
      "d": 1764.703999999998,
      "v": 97
    },
    {
      "midi": 46,
      "hit": false,
      "t": 70572.07545833335,
      "d": 1769.2995833333407,
      "v": 109
    },
    {
      "midi": 22,
      "hit": false,
      "t": 70588.15999999996,
      "d": 197.61008333333302,
      "v": 100
    },
    {
      "midi": 46,
      "hit": false,
      "t": 70588.16000000002,
      "d": 220.58800000000338,
      "v": 84
    },
    {
      "midi": 46,
      "hit": false,
      "t": 70596.20227083338,
      "d": 1740.5771874999919,
      "v": 122
    },
    {
      "midi": 34,
      "hit": false,
      "t": 70808.74799999996,
      "d": 64.33816666666826,
      "v": 100
    },
    {
      "midi": 58,
      "hit": false,
      "t": 70808.74800000002,
      "d": 110.29399999999441,
      "v": 84
    },
    {
      "midi": 34,
      "hit": false,
      "t": 70919.04199999996,
      "d": 64.33816666666826,
      "v": 100
    },
    {
      "midi": 46,
      "hit": false,
      "t": 70919.04200000002,
      "d": 122.93185416665801,
      "v": 84
    },
    {
      "midi": 22,
      "hit": false,
      "t": 71029.33599999995,
      "d": 207.95014583333977,
      "v": 100
    },
    {
      "midi": 58,
      "hit": false,
      "t": 71029.33600000001,
      "d": 220.58800000000338,
      "v": 84
    },
    {
      "midi": 34,
      "hit": false,
      "t": 71249.92399999996,
      "d": 64.33816666666826,
      "v": 100
    },
    {
      "midi": 46,
      "hit": false,
      "t": 71249.92400000001,
      "d": 110.29399999999441,
      "v": 84
    },
    {
      "midi": 34,
      "hit": false,
      "t": 71360.21799999995,
      "d": 64.33816666666826,
      "v": 100
    },
    {
      "midi": 58,
      "hit": false,
      "t": 71360.21800000001,
      "d": 110.29399999999441,
      "v": 84
    },
    {
      "midi": 22,
      "hit": false,
      "t": 71470.51199999994,
      "d": 189.56781249999767,
      "v": 100
    },
    {
      "midi": 46,
      "hit": false,
      "t": 71470.512,
      "d": 220.58800000000338,
      "v": 84
    },
    {
      "midi": 34,
      "hit": false,
      "t": 71691.09999999995,
      "d": 64.33816666666826,
      "v": 100
    },
    {
      "midi": 58,
      "hit": false,
      "t": 71691.1,
      "d": 110.29399999999441,
      "v": 84
    },
    {
      "midi": 34,
      "hit": false,
      "t": 71801.39399999994,
      "d": 64.33816666666826,
      "v": 100
    },
    {
      "midi": 46,
      "hit": false,
      "t": 71801.394,
      "d": 117.18737499999406,
      "v": 84
    },
    {
      "midi": 22,
      "hit": false,
      "t": 71911.68799999994,
      "d": 190.71670833333337,
      "v": 100
    },
    {
      "midi": 58,
      "hit": false,
      "t": 71911.688,
      "d": 220.58800000000338,
      "v": 84
    },
    {
      "midi": 34,
      "hit": false,
      "t": 72132.27599999994,
      "d": 64.33816666666826,
      "v": 100
    },
    {
      "midi": 46,
      "hit": false,
      "t": 72132.276,
      "d": 110.29399999999441,
      "v": 84
    },
    {
      "midi": 34,
      "hit": false,
      "t": 72242.56999999993,
      "d": 64.33816666666826,
      "v": 100
    },
    {
      "midi": 58,
      "hit": false,
      "t": 72242.56999999999,
      "d": 110.29399999999441,
      "v": 84
    },
    {
      "midi": 57,
      "hit": false,
      "t": 72325.29050000002,
      "d": 1764.703999999998,
      "v": 79
    },
    {
      "midi": 62,
      "hit": false,
      "t": 72325.29050000002,
      "d": 1764.703999999998,
      "v": 79
    },
    {
      "midi": 64,
      "hit": false,
      "t": 72325.29050000002,
      "d": 1764.703999999998,
      "v": 79
    },
    {
      "midi": 69,
      "hit": false,
      "t": 72325.29050000002,
      "d": 1764.703999999998,
      "v": 79
    },
    {
      "midi": 57,
      "hit": false,
      "t": 72325.29050000005,
      "d": 1764.703999999998,
      "v": 97
    },
    {
      "midi": 62,
      "hit": false,
      "t": 72325.29050000005,
      "d": 1764.703999999998,
      "v": 97
    },
    {
      "midi": 64,
      "hit": false,
      "t": 72325.29050000005,
      "d": 1764.703999999998,
      "v": 97
    },
    {
      "midi": 69,
      "hit": false,
      "t": 72325.29050000005,
      "d": 1764.703999999998,
      "v": 97
    },
    {
      "midi": 45,
      "hit": false,
      "t": 72336.77945833337,
      "d": 3411.071729166666,
      "v": 116
    },
    {
      "midi": 45,
      "hit": false,
      "t": 72345.97062500002,
      "d": 3278.948708333337,
      "v": 115
    },
    {
      "midi": 21,
      "hit": false,
      "t": 72352.86399999993,
      "d": 193.01450000000477,
      "v": 100
    },
    {
      "midi": 45,
      "hit": false,
      "t": 72352.86399999999,
      "d": 220.58800000000338,
      "v": 84
    },
    {
      "midi": 33,
      "hit": false,
      "t": 72573.45199999993,
      "d": 64.33816666666826,
      "v": 100
    },
    {
      "midi": 57,
      "hit": false,
      "t": 72573.45199999999,
      "d": 110.29399999999441,
      "v": 84
    },
    {
      "midi": 33,
      "hit": false,
      "t": 72683.74599999993,
      "d": 64.33816666666826,
      "v": 100
    },
    {
      "midi": 45,
      "hit": false,
      "t": 72683.74599999998,
      "d": 110.29399999999441,
      "v": 84
    },
    {
      "midi": 21,
      "hit": false,
      "t": 72794.03999999992,
      "d": 195.31229166666162,
      "v": 100
    },
    {
      "midi": 57,
      "hit": false,
      "t": 72794.03999999998,
      "d": 220.58800000000338,
      "v": 84
    },
    {
      "midi": 33,
      "hit": false,
      "t": 73014.62799999991,
      "d": 64.33816666666826,
      "v": 100
    },
    {
      "midi": 45,
      "hit": false,
      "t": 73014.62799999998,
      "d": 110.29399999999441,
      "v": 84
    },
    {
      "midi": 33,
      "hit": false,
      "t": 73124.9219999999,
      "d": 64.33816666666826,
      "v": 100
    },
    {
      "midi": 57,
      "hit": false,
      "t": 73124.92199999998,
      "d": 110.29399999999441,
      "v": 84
    },
    {
      "midi": 21,
      "hit": false,
      "t": 73235.2159999999,
      "d": 194.16339583334047,
      "v": 100
    },
    {
      "midi": 45,
      "hit": false,
      "t": 73235.21599999997,
      "d": 220.58800000000338,
      "v": 84
    },
    {
      "midi": 33,
      "hit": false,
      "t": 73455.8039999999,
      "d": 64.33816666666826,
      "v": 100
    },
    {
      "midi": 57,
      "hit": false,
      "t": 73455.80399999997,
      "d": 110.29399999999441,
      "v": 84
    },
    {
      "midi": 33,
      "hit": false,
      "t": 73566.0979999999,
      "d": 64.33816666666826,
      "v": 100
    },
    {
      "midi": 45,
      "hit": false,
      "t": 73566.09799999997,
      "d": 116.03847916665836,
      "v": 84
    },
    {
      "midi": 21,
      "hit": false,
      "t": 73676.39199999989,
      "d": 219.43910416666768,
      "v": 100
    },
    {
      "midi": 57,
      "hit": false,
      "t": 73676.39199999996,
      "d": 220.58800000000338,
      "v": 84
    },
    {
      "midi": 33,
      "hit": false,
      "t": 73896.9799999999,
      "d": 64.33816666666826,
      "v": 100
    },
    {
      "midi": 45,
      "hit": false,
      "t": 73896.97999999997,
      "d": 110.29399999999441,
      "v": 84
    },
    {
      "midi": 33,
      "hit": false,
      "t": 74007.27399999989,
      "d": 67.7848541666608,
      "v": 100
    },
    {
      "midi": 57,
      "hit": false,
      "t": 74007.27399999996,
      "d": 110.29399999999441,
      "v": 84
    },
    {
      "midi": 57,
      "hit": false,
      "t": 74089.99450000002,
      "d": 1764.703999999998,
      "v": 79
    },
    {
      "midi": 61,
      "hit": false,
      "t": 74089.99450000002,
      "d": 1764.703999999998,
      "v": 79
    },
    {
      "midi": 64,
      "hit": false,
      "t": 74089.99450000002,
      "d": 1764.703999999998,
      "v": 79
    },
    {
      "midi": 69,
      "hit": false,
      "t": 74089.99450000002,
      "d": 1764.703999999998,
      "v": 79
    },
    {
      "midi": 57,
      "hit": false,
      "t": 74089.99450000004,
      "d": 1764.703999999998,
      "v": 97
    },
    {
      "midi": 61,
      "hit": false,
      "t": 74089.99450000004,
      "d": 1764.703999999998,
      "v": 97
    },
    {
      "midi": 64,
      "hit": false,
      "t": 74089.99450000004,
      "d": 1764.703999999998,
      "v": 97
    },
    {
      "midi": 69,
      "hit": false,
      "t": 74089.99450000004,
      "d": 1764.703999999998,
      "v": 97
    },
    {
      "midi": 21,
      "hit": false,
      "t": 74117.56799999988,
      "d": 186.12112500000512,
      "v": 100
    },
    {
      "midi": 45,
      "hit": false,
      "t": 74117.56799999996,
      "d": 220.58800000000338,
      "v": 84
    },
    {
      "midi": 33,
      "hit": false,
      "t": 74338.15599999989,
      "d": 64.33816666666826,
      "v": 100
    },
    {
      "midi": 57,
      "hit": false,
      "t": 74338.15599999996,
      "d": 110.29399999999441,
      "v": 84
    },
    {
      "midi": 33,
      "hit": false,
      "t": 74448.44999999988,
      "d": 64.33816666666826,
      "v": 100
    },
    {
      "midi": 45,
      "hit": false,
      "t": 74448.44999999995,
      "d": 124.08074999999371,
      "v": 84
    },
    {
      "midi": 21,
      "hit": false,
      "t": 74558.74399999988,
      "d": 214.84352083333943,
      "v": 100
    },
    {
      "midi": 57,
      "hit": false,
      "t": 74558.74399999995,
      "d": 220.58800000000338,
      "v": 84
    },
    {
      "midi": 33,
      "hit": false,
      "t": 74779.33199999988,
      "d": 64.33816666666826,
      "v": 100
    },
    {
      "midi": 45,
      "hit": false,
      "t": 74779.33199999995,
      "d": 110.29399999999441,
      "v": 84
    },
    {
      "midi": 33,
      "hit": false,
      "t": 74889.62599999987,
      "d": 66.63595833333966,
      "v": 100
    },
    {
      "midi": 57,
      "hit": false,
      "t": 74889.62599999995,
      "d": 110.29399999999441,
      "v": 84
    },
    {
      "midi": 21,
      "hit": false,
      "t": 74999.91999999988,
      "d": 215.99241666666057,
      "v": 100
    },
    {
      "midi": 45,
      "hit": false,
      "t": 74999.91999999994,
      "d": 220.58800000000338,
      "v": 84
    },
    {
      "midi": 33,
      "hit": false,
      "t": 75220.50799999987,
      "d": 64.33816666666826,
      "v": 100
    },
    {
      "midi": 57,
      "hit": false,
      "t": 75220.50799999994,
      "d": 110.29399999999441,
      "v": 84
    },
    {
      "midi": 33,
      "hit": false,
      "t": 75330.80199999987,
      "d": 64.33816666666826,
      "v": 100
    },
    {
      "midi": 45,
      "hit": false,
      "t": 75330.80199999994,
      "d": 121.78295833332231,
      "v": 84
    },
    {
      "midi": 21,
      "hit": false,
      "t": 75441.09599999986,
      "d": 203.35456249999697,
      "v": 100
    },
    {
      "midi": 57,
      "hit": false,
      "t": 75441.09599999993,
      "d": 220.58799999998882,
      "v": 84
    },
    {
      "midi": 33,
      "hit": false,
      "t": 75661.68399999986,
      "d": 64.33816666666826,
      "v": 100
    },
    {
      "midi": 45,
      "hit": false,
      "t": 75661.68399999992,
      "d": 110.29399999999441,
      "v": 84
    },
    {
      "midi": 33,
      "hit": false,
      "t": 75771.97799999986,
      "d": 64.33816666666826,
      "v": 100
    },
    {
      "midi": 57,
      "hit": false,
      "t": 75771.97799999992,
      "d": 110.29399999999441,
      "v": 84
    },
    {
      "midi": 79,
      "hit": false,
      "t": 75882.27200000008,
      "d": 1432.6731041666644,
      "v": 92
    },
    {
      "midi": 80,
      "hit": false,
      "t": 75882.27200000008,
      "d": 1433.8220000000001,
      "v": 92
    },
    {
      "midi": 108,
      "hit": false,
      "t": 76764.624,
      "d": 167.73879166666302,
      "v": 75
    },
    {
      "midi": 59,
      "hit": false,
      "t": 76764.624,
      "d": 279.18168749999313,
      "v": 127
    },
    {
      "midi": 108,
      "hit": false,
      "t": 77205.79999999999,
      "d": 171.18547916667012,
      "v": 75
    },
    {
      "midi": 59,
      "hit": false,
      "t": 77205.79999999999,
      "d": 271.13941666667233,
      "v": 127
    },
    {
      "midi": 26,
      "hit": false,
      "t": 77646.97599999986,
      "d": 230.92806250001013,
      "v": 100
    },
    {
      "midi": 38,
      "hit": false,
      "t": 77646.97599999991,
      "d": 220.58800000000338,
      "v": 84
    },
    {
      "midi": 57,
      "hit": false,
      "t": 77646.97599999994,
      "d": 60.891479166661156,
      "v": 123
    },
    {
      "midi": 57,
      "hit": false,
      "t": 77757.26999999993,
      "d": 71.23154166666791,
      "v": 123
    },
    {
      "midi": 38,
      "hit": false,
      "t": 77867.56399999987,
      "d": 64.33816666666826,
      "v": 100
    },
    {
      "midi": 50,
      "hit": false,
      "t": 77867.56399999991,
      "d": 110.29399999999441,
      "v": 84
    },
    {
      "midi": 57,
      "hit": false,
      "t": 77867.56399999993,
      "d": 67.7848541666608,
      "v": 120
    },
    {
      "midi": 38,
      "hit": false,
      "t": 77977.85799999986,
      "d": 74.67822916666046,
      "v": 100
    },
    {
      "midi": 38,
      "hit": false,
      "t": 77977.8579999999,
      "d": 117.18737499999406,
      "v": 84
    },
    {
      "midi": 57,
      "hit": false,
      "t": 77977.85799999992,
      "d": 76.97602083333186,
      "v": 117
    },
    {
      "midi": 26,
      "hit": false,
      "t": 78088.15199999986,
      "d": 215.99241666666057,
      "v": 100
    },
    {
      "midi": 50,
      "hit": false,
      "t": 78088.1519999999,
      "d": 225.18358333333163,
      "v": 84
    },
    {
      "midi": 57,
      "hit": false,
      "t": 78088.15199999991,
      "d": 103.40062499999476,
      "v": 125
    },
    {
      "midi": 38,
      "hit": false,
      "t": 78308.73999999985,
      "d": 64.33816666666826,
      "v": 100
    },
    {
      "midi": 57,
      "hit": false,
      "t": 78308.7399999999,
      "d": 94.20945833333826,
      "v": 123
    },
    {
      "midi": 38,
      "hit": false,
      "t": 78308.7399999999,
      "d": 112.59179166666581,
      "v": 84
    },
    {
      "midi": 38,
      "hit": false,
      "t": 78419.03399999984,
      "d": 64.33816666666826,
      "v": 100
    },
    {
      "midi": 50,
      "hit": false,
      "t": 78419.0339999999,
      "d": 127.52743750001537,
      "v": 84
    },
    {
      "midi": 26,
      "hit": false,
      "t": 78529.32799999983,
      "d": 222.88579166667478,
      "v": 100
    },
    {
      "midi": 57,
      "hit": false,
      "t": 78529.3279999999,
      "d": 78.12491666666756,
      "v": 125
    },
    {
      "midi": 38,
      "hit": false,
      "t": 78529.3279999999,
      "d": 250.45929166667338,
      "v": 84
    },
    {
      "midi": 38,
      "hit": false,
      "t": 78749.91599999984,
      "d": 64.33816666666826,
      "v": 100
    },
    {
      "midi": 57,
      "hit": false,
      "t": 78749.91599999991,
      "d": 101.10283333333791,
      "v": 123
    },
    {
      "midi": 50,
      "hit": false,
      "t": 78749.91599999991,
      "d": 110.29400000000896,
      "v": 84
    },
    {
      "midi": 38,
      "hit": false,
      "t": 78860.20999999983,
      "d": 64.33816666666826,
      "v": 100
    },
    {
      "midi": 38,
      "hit": false,
      "t": 78860.20999999992,
      "d": 114.88958333332266,
      "v": 84
    },
    {
      "midi": 26,
      "hit": false,
      "t": 78970.50399999983,
      "d": 218.29020833333198,
      "v": 100
    },
    {
      "midi": 57,
      "hit": false,
      "t": 78970.50399999991,
      "d": 90.76277083333116,
      "v": 125
    },
    {
      "midi": 50,
      "hit": false,
      "t": 78970.50399999991,
      "d": 234.37474999998813,
      "v": 84
    },
    {
      "midi": 38,
      "hit": false,
      "t": 79191.09199999983,
      "d": 64.33816666666826,
      "v": 100
    },
    {
      "midi": 38,
      "hit": false,
      "t": 79191.0919999999,
      "d": 110.29399999999441,
      "v": 84
    },
    {
      "midi": 57,
      "hit": false,
      "t": 79191.09199999992,
      "d": 94.20945833333826,
      "v": 126
    },
    {
      "midi": 38,
      "hit": false,
      "t": 79301.38599999982,
      "d": 64.33816666666826,
      "v": 100
    },
    {
      "midi": 50,
      "hit": false,
      "t": 79301.3859999999,
      "d": 120.63406250000116,
      "v": 84
    },
    {
      "midi": 26,
      "hit": false,
      "t": 79411.67999999982,
      "d": 215.99241666666057,
      "v": 100
    },
    {
      "midi": 38,
      "hit": false,
      "t": 79411.67999999989,
      "d": 257.35266666667303,
      "v": 84
    },
    {
      "midi": 57,
      "hit": false,
      "t": 79411.67999999992,
      "d": 156.24983333333512,
      "v": 126
    },
    {
      "midi": 38,
      "hit": false,
      "t": 79632.2679999998,
      "d": 64.33816666666826,
      "v": 100
    },
    {
      "midi": 50,
      "hit": false,
      "t": 79632.2679999999,
      "d": 110.29400000000896,
      "v": 84
    },
    {
      "midi": 38,
      "hit": false,
      "t": 79742.5619999998,
      "d": 64.33816666666826,
      "v": 100
    },
    {
      "midi": 38,
      "hit": false,
      "t": 79742.5619999999,
      "d": 117.18737499999406,
      "v": 84
    },
    {
      "midi": 57,
      "hit": false,
      "t": 79742.56199999992,
      "d": 127.52743750000081,
      "v": 125
    },
    {
      "midi": 26,
      "hit": false,
      "t": 79852.8559999998,
      "d": 224.03468750001048,
      "v": 100
    },
    {
      "midi": 50,
      "hit": false,
      "t": 79852.8559999999,
      "d": 238.97033333333093,
      "v": 84
    },
    {
      "midi": 38,
      "hit": false,
      "t": 80073.4439999998,
      "d": 64.33816666666826,
      "v": 100
    },
    {
      "midi": 38,
      "hit": false,
      "t": 80073.4439999999,
      "d": 110.29399999999441,
      "v": 84
    },
    {
      "midi": 57,
      "hit": false,
      "t": 80073.44399999992,
      "d": 88.46497916665976,
      "v": 123
    },
    {
      "midi": 38,
      "hit": false,
      "t": 80183.7379999998,
      "d": 74.67822916666046,
      "v": 100
    },
    {
      "midi": 50,
      "hit": false,
      "t": 80183.7379999999,
      "d": 116.03847916665836,
      "v": 84
    },
    {
      "midi": 26,
      "hit": false,
      "t": 80294.03199999979,
      "d": 221.73689583333908,
      "v": 100
    },
    {
      "midi": 38,
      "hit": false,
      "t": 80294.03199999989,
      "d": 220.58800000000338,
      "v": 84
    },
    {
      "midi": 57,
      "hit": false,
      "t": 80294.0319999999,
      "d": 102.25172916667361,
      "v": 126
    },
    {
      "midi": 38,
      "hit": false,
      "t": 80514.61999999979,
      "d": 64.33816666666826,
      "v": 100
    },
    {
      "midi": 50,
      "hit": false,
      "t": 80514.6199999999,
      "d": 113.74068750000151,
      "v": 84
    },
    {
      "midi": 60,
      "hit": false,
      "t": 80514.61999999991,
      "d": 111.44289583333011,
      "v": 125
    },
    {
      "midi": 38,
      "hit": false,
      "t": 80624.91399999979,
      "d": 71.23154166666791,
      "v": 100
    },
    {
      "midi": 38,
      "hit": false,
      "t": 80624.91399999989,
      "d": 110.29400000000896,
      "v": 84
    },
    {
      "midi": 26,
      "hit": false,
      "t": 80735.20799999978,
      "d": 196.46118749999732,
      "v": 100
    },
    {
      "midi": 50,
      "hit": false,
      "t": 80735.2079999999,
      "d": 220.58800000000338,
      "v": 84
    },
    {
      "midi": 57,
      "hit": false,
      "t": 80735.20799999991,
      "d": 219.43910416666768,
      "v": 125
    },
    {
      "midi": 38,
      "hit": false,
      "t": 80955.79599999978,
      "d": 64.33816666666826,
      "v": 100
    },
    {
      "midi": 38,
      "hit": false,
      "t": 80955.7959999999,
      "d": 110.29399999999441,
      "v": 84
    },
    {
      "midi": 38,
      "hit": false,
      "t": 81066.08999999978,
      "d": 64.33816666666826,
      "v": 100
    },
    {
      "midi": 50,
      "hit": false,
      "t": 81066.0899999999,
      "d": 110.29399999999441,
      "v": 84
    },
    {
      "midi": 21,
      "hit": false,
      "t": 81176.38399999977,
      "d": 235.52364583333838,
      "v": 100
    },
    {
      "midi": 33,
      "hit": false,
      "t": 81176.38399999989,
      "d": 247.01260416666628,
      "v": 84
    },
    {
      "midi": 57,
      "hit": false,
      "t": 81176.38399999992,
      "d": 219.43910416666768,
      "v": 123
    },
    {
      "midi": 33,
      "hit": false,
      "t": 81396.97199999978,
      "d": 64.33816666666826,
      "v": 100
    },
    {
      "midi": 45,
      "hit": false,
      "t": 81396.97199999989,
      "d": 110.29399999999441,
      "v": 84
    },
    {
      "midi": 33,
      "hit": false,
      "t": 81507.26599999977,
      "d": 64.33816666666826,
      "v": 100
    },
    {
      "midi": 33,
      "hit": false,
      "t": 81507.26599999989,
      "d": 113.74068750000151,
      "v": 84
    },
    {
      "midi": 57,
      "hit": false,
      "t": 81507.26599999992,
      "d": 66.63595833333966,
      "v": 123
    },
    {
      "midi": 21,
      "hit": false,
      "t": 81617.55999999976,
      "d": 247.01260416666628,
      "v": 100
    },
    {
      "midi": 45,
      "hit": false,
      "t": 81617.55999999988,
      "d": 220.58800000000338,
      "v": 84
    },
    {
      "midi": 57,
      "hit": false,
      "t": 81617.55999999992,
      "d": 66.63595833333966,
      "v": 120
    },
    {
      "midi": 57,
      "hit": false,
      "t": 81727.85399999993,
      "d": 71.23154166666791,
      "v": 75
    },
    {
      "midi": 33,
      "hit": false,
      "t": 81838.14799999977,
      "d": 64.33816666666826,
      "v": 100
    },
    {
      "midi": 33,
      "hit": false,
      "t": 81838.14799999988,
      "d": 110.29399999999441,
      "v": 84
    },
    {
      "midi": 57,
      "hit": false,
      "t": 81838.14799999993,
      "d": 109.14510416667326,
      "v": 125
    },
    {
      "midi": 33,
      "hit": false,
      "t": 81948.44199999976,
      "d": 64.33816666666826,
      "v": 100
    },
    {
      "midi": 45,
      "hit": false,
      "t": 81948.44199999988,
      "d": 110.29399999999441,
      "v": 84
    },
    {
      "midi": 21,
      "hit": false,
      "t": 82058.73599999976,
      "d": 213.69462500000373,
      "v": 100
    },
    {
      "midi": 33,
      "hit": false,
      "t": 82058.73599999987,
      "d": 238.97033333333093,
      "v": 84
    },
    {
      "midi": 57,
      "hit": false,
      "t": 82058.73599999993,
      "d": 86.16718750000291,
      "v": 126
    },
    {
      "midi": 33,
      "hit": false,
      "t": 82279.32399999976,
      "d": 64.33816666666826,
      "v": 100
    },
    {
      "midi": 45,
      "hit": false,
      "t": 82279.32399999988,
      "d": 110.29399999999441,
      "v": 84
    },
    {
      "midi": 57,
      "hit": false,
      "t": 82279.32399999994,
      "d": 88.46497916665976,
      "v": 123
    },
    {
      "midi": 33,
      "hit": false,
      "t": 82389.61799999975,
      "d": 64.33816666666826,
      "v": 100
    },
    {
      "midi": 33,
      "hit": false,
      "t": 82389.61799999987,
      "d": 112.59179166666581,
      "v": 84
    },
    {
      "midi": 21,
      "hit": false,
      "t": 82499.91199999975,
      "d": 240.11922916666663,
      "v": 100
    },
    {
      "midi": 45,
      "hit": false,
      "t": 82499.91199999987,
      "d": 220.58800000000338,
      "v": 84
    },
    {
      "midi": 57,
      "hit": false,
      "t": 82499.91199999992,
      "d": 89.61387499999546,
      "v": 120
    },
    {
      "midi": 33,
      "hit": false,
      "t": 82720.49999999975,
      "d": 64.33816666666826,
      "v": 100
    },
    {
      "midi": 33,
      "hit": false,
      "t": 82720.49999999987,
      "d": 110.29399999999441,
      "v": 84
    },
    {
      "midi": 57,
      "hit": false,
      "t": 82720.49999999991,
      "d": 88.46497916665976,
      "v": 120
    },
    {
      "midi": 33,
      "hit": false,
      "t": 82830.79399999975,
      "d": 66.63595833333966,
      "v": 100
    },
    {
      "midi": 45,
      "hit": false,
      "t": 82830.79399999986,
      "d": 117.18737499999406,
      "v": 84
    },
    {
      "midi": 22,
      "hit": false,
      "t": 82941.08799999976,
      "d": 221.73689583333908,
      "v": 100
    },
    {
      "midi": 34,
      "hit": false,
      "t": 82941.08799999986,
      "d": 225.18358333333163,
      "v": 84
    },
    {
      "midi": 55,
      "hit": false,
      "t": 82941.0879999999,
      "d": 184.97222916666942,
      "v": 123
    },
    {
      "midi": 34,
      "hit": false,
      "t": 83161.67599999976,
      "d": 64.33816666666826,
      "v": 100
    },
    {
      "midi": 46,
      "hit": false,
      "t": 83161.67599999986,
      "d": 110.29399999999441,
      "v": 84
    },
    {
      "midi": 34,
      "hit": false,
      "t": 83271.96999999975,
      "d": 64.33816666666826,
      "v": 100
    },
    {
      "midi": 34,
      "hit": false,
      "t": 83271.96999999986,
      "d": 127.52743750000081,
      "v": 84
    },
    {
      "midi": 55,
      "hit": false,
      "t": 83271.9699999999,
      "d": 144.76087500000722,
      "v": 123
    },
    {
      "midi": 22,
      "hit": false,
      "t": 83382.26399999975,
      "d": 234.37475000000268,
      "v": 100
    },
    {
      "midi": 46,
      "hit": false,
      "t": 83382.26399999985,
      "d": 220.58800000000338,
      "v": 84
    },
    {
      "midi": 34,
      "hit": false,
      "t": 83602.85199999975,
      "d": 64.33816666666826,
      "v": 100
    },
    {
      "midi": 34,
      "hit": false,
      "t": 83602.85199999985,
      "d": 110.29399999999441,
      "v": 84
    },
    {
      "midi": 53,
      "hit": false,
      "t": 83602.85199999991,
      "d": 127.52743750000081,
      "v": 123
    },
    {
      "midi": 34,
      "hit": false,
      "t": 83713.14599999975,
      "d": 64.33816666666826,
      "v": 100
    },
    {
      "midi": 46,
      "hit": false,
      "t": 83713.14599999985,
      "d": 110.29399999999441,
      "v": 84
    },
    {
      "midi": 22,
      "hit": false,
      "t": 83823.43999999974,
      "d": 211.39683333333232,
      "v": 100
    },
    {
      "midi": 34,
      "hit": false,
      "t": 83823.43999999984,
      "d": 227.48137500000303,
      "v": 84
    },
    {
      "midi": 53,
      "hit": false,
      "t": 83823.43999999992,
      "d": 345.8176458333328,
      "v": 120
    },
    {
      "midi": 34,
      "hit": false,
      "t": 84044.02799999974,
      "d": 64.33816666666826,
      "v": 100
    },
    {
      "midi": 46,
      "hit": false,
      "t": 84044.02799999985,
      "d": 114.88958333332266,
      "v": 84
    },
    {
      "midi": 34,
      "hit": false,
      "t": 84154.32199999974,
      "d": 64.33816666666826,
      "v": 100
    },
    {
      "midi": 34,
      "hit": false,
      "t": 84154.32199999984,
      "d": 117.18737499999406,
      "v": 84
    },
    {
      "midi": 22,
      "hit": false,
      "t": 84264.61599999973,
      "d": 230.92806250001013,
      "v": 100
    },
    {
      "midi": 46,
      "hit": false,
      "t": 84264.61599999983,
      "d": 220.58800000000338,
      "v": 84
    },
    {
      "midi": 53,
      "hit": false,
      "t": 84264.6159999999,
      "d": 243.56591666670283,
      "v": 120
    },
    {
      "midi": 34,
      "hit": false,
      "t": 84485.20399999974,
      "d": 64.33816666666826,
      "v": 100
    },
    {
      "midi": 34,
      "hit": false,
      "t": 84485.20399999984,
      "d": 110.29399999999441,
      "v": 84
    },
    {
      "midi": 34,
      "hit": false,
      "t": 84595.49799999973,
      "d": 64.33816666666826,
      "v": 100
    },
    {
      "midi": 46,
      "hit": false,
      "t": 84595.49799999983,
      "d": 110.29399999999441,
      "v": 84
    },
    {
      "midi": 26,
      "hit": false,
      "t": 84705.79199999972,
      "d": 230.92806250001013,
      "v": 100
    },
    {
      "midi": 38,
      "hit": false,
      "t": 84705.79199999983,
      "d": 220.58800000000338,
      "v": 84
    },
    {
      "midi": 57,
      "hit": false,
      "t": 84705.792,
      "d": 64.33816666668281,
      "v": 125
    },
    {
      "midi": 57,
      "hit": false,
      "t": 84816.08600000001,
      "d": 75.82712499999616,
      "v": 123
    },
    {
      "midi": 38,
      "hit": false,
      "t": 84926.37999999973,
      "d": 64.33816666666826,
      "v": 100
    },
    {
      "midi": 50,
      "hit": false,
      "t": 84926.37999999983,
      "d": 110.29399999999441,
      "v": 84
    },
    {
      "midi": 57,
      "hit": false,
      "t": 84926.38,
      "d": 60.891479166661156,
      "v": 123
    },
    {
      "midi": 38,
      "hit": false,
      "t": 85036.67399999972,
      "d": 74.67822916666046,
      "v": 100
    },
    {
      "midi": 38,
      "hit": false,
      "t": 85036.67399999982,
      "d": 117.18737499999406,
      "v": 84
    },
    {
      "midi": 57,
      "hit": false,
      "t": 85036.674,
      "d": 75.82712499999616,
      "v": 123
    },
    {
      "midi": 26,
      "hit": false,
      "t": 85146.96799999972,
      "d": 215.99241666666057,
      "v": 100
    },
    {
      "midi": 50,
      "hit": false,
      "t": 85146.96799999982,
      "d": 225.18358333333163,
      "v": 84
    },
    {
      "midi": 57,
      "hit": false,
      "t": 85146.968,
      "d": 82.72049999999581,
      "v": 125
    },
    {
      "midi": 38,
      "hit": false,
      "t": 85367.5559999997,
      "d": 64.33816666666826,
      "v": 100
    },
    {
      "midi": 38,
      "hit": false,
      "t": 85367.55599999982,
      "d": 112.59179166666581,
      "v": 84
    },
    {
      "midi": 57,
      "hit": false,
      "t": 85367.55599999998,
      "d": 96.50724999999511,
      "v": 125
    },
    {
      "midi": 38,
      "hit": false,
      "t": 85477.8499999997,
      "d": 64.33816666666826,
      "v": 100
    },
    {
      "midi": 50,
      "hit": false,
      "t": 85477.84999999982,
      "d": 127.52743750001537,
      "v": 84
    },
    {
      "midi": 26,
      "hit": false,
      "t": 85588.1439999997,
      "d": 222.88579166667478,
      "v": 100
    },
    {
      "midi": 38,
      "hit": false,
      "t": 85588.14399999983,
      "d": 250.45929166667338,
      "v": 84
    },
    {
      "midi": 57,
      "hit": false,
      "t": 85588.14399999997,
      "d": 76.97602083333186,
      "v": 125
    },
    {
      "midi": 38,
      "hit": false,
      "t": 85808.7319999997,
      "d": 64.33816666666826,
      "v": 100
    },
    {
      "midi": 50,
      "hit": false,
      "t": 85808.73199999983,
      "d": 110.29400000000896,
      "v": 84
    },
    {
      "midi": 57,
      "hit": false,
      "t": 85808.73199999997,
      "d": 82.72049999999581,
      "v": 123
    },
    {
      "midi": 38,
      "hit": false,
      "t": 85919.02599999969,
      "d": 64.33816666666826,
      "v": 100
    },
    {
      "midi": 38,
      "hit": false,
      "t": 85919.02599999984,
      "d": 114.88958333332266,
      "v": 84
    },
    {
      "midi": 26,
      "hit": false,
      "t": 86029.31999999969,
      "d": 218.29020833333198,
      "v": 100
    },
    {
      "midi": 50,
      "hit": false,
      "t": 86029.31999999983,
      "d": 234.37474999998813,
      "v": 84
    },
    {
      "midi": 57,
      "hit": false,
      "t": 86029.31999999996,
      "d": 62.04037499999686,
      "v": 123
    },
    {
      "midi": 57,
      "hit": false,
      "t": 86139.61399999996,
      "d": 78.12491666666756,
      "v": 125
    },
    {
      "midi": 38,
      "hit": false,
      "t": 86249.90799999969,
      "d": 64.33816666666826,
      "v": 100
    },
    {
      "midi": 38,
      "hit": false,
      "t": 86249.90799999982,
      "d": 110.29399999999441,
      "v": 84
    },
    {
      "midi": 57,
      "hit": false,
      "t": 86249.90799999995,
      "d": 70.08264583333221,
      "v": 127
    },
    {
      "midi": 38,
      "hit": false,
      "t": 86360.20199999968,
      "d": 64.33816666666826,
      "v": 100
    },
    {
      "midi": 50,
      "hit": false,
      "t": 86360.20199999982,
      "d": 120.63406250000116,
      "v": 84
    },
    {
      "midi": 26,
      "hit": false,
      "t": 86470.49599999968,
      "d": 215.99241666666057,
      "v": 100
    },
    {
      "midi": 38,
      "hit": false,
      "t": 86470.49599999981,
      "d": 257.35266666667303,
      "v": 84
    },
    {
      "midi": 57,
      "hit": false,
      "t": 86470.49599999996,
      "d": 106.84731250000186,
      "v": 125
    },
    {
      "midi": 38,
      "hit": false,
      "t": 86691.08399999967,
      "d": 64.33816666666826,
      "v": 100
    },
    {
      "midi": 50,
      "hit": false,
      "t": 86691.08399999981,
      "d": 110.29400000000896,
      "v": 84
    },
    {
      "midi": 38,
      "hit": false,
      "t": 86801.37799999966,
      "d": 64.33816666666826,
      "v": 100
    },
    {
      "midi": 38,
      "hit": false,
      "t": 86801.37799999982,
      "d": 117.18737499999406,
      "v": 84
    },
    {
      "midi": 57,
      "hit": false,
      "t": 86801.37799999995,
      "d": 101.10283333333791,
      "v": 125
    },
    {
      "midi": 26,
      "hit": false,
      "t": 86911.67199999966,
      "d": 224.03468750001048,
      "v": 100
    },
    {
      "midi": 50,
      "hit": false,
      "t": 86911.67199999982,
      "d": 238.97033333333093,
      "v": 84
    },
    {
      "midi": 38,
      "hit": false,
      "t": 87132.25999999966,
      "d": 64.33816666666826,
      "v": 100
    },
    {
      "midi": 38,
      "hit": false,
      "t": 87132.25999999982,
      "d": 110.29399999999441,
      "v": 84
    },
    {
      "midi": 57,
      "hit": false,
      "t": 87132.25999999995,
      "d": 82.72049999999581,
      "v": 123
    },
    {
      "midi": 38,
      "hit": false,
      "t": 87242.55399999965,
      "d": 74.67822916666046,
      "v": 100
    },
    {
      "midi": 50,
      "hit": false,
      "t": 87242.55399999981,
      "d": 116.03847916665836,
      "v": 84
    },
    {
      "midi": 26,
      "hit": false,
      "t": 87352.84799999965,
      "d": 221.73689583333908,
      "v": 100
    },
    {
      "midi": 38,
      "hit": false,
      "t": 87352.84799999981,
      "d": 220.58800000000338,
      "v": 84
    },
    {
      "midi": 57,
      "hit": false,
      "t": 87352.84799999994,
      "d": 87.31608333333861,
      "v": 123
    },
    {
      "midi": 38,
      "hit": false,
      "t": 87573.43599999965,
      "d": 64.33816666666826,
      "v": 100
    },
    {
      "midi": 50,
      "hit": false,
      "t": 87573.43599999981,
      "d": 113.74068750000151,
      "v": 84
    },
    {
      "midi": 60,
      "hit": false,
      "t": 87573.43599999994,
      "d": 87.31608333333861,
      "v": 123
    },
    {
      "midi": 38,
      "hit": false,
      "t": 87683.72999999965,
      "d": 71.23154166666791,
      "v": 100
    },
    {
      "midi": 38,
      "hit": false,
      "t": 87683.7299999998,
      "d": 110.29400000000896,
      "v": 84
    },
    {
      "midi": 26,
      "hit": false,
      "t": 87794.02399999964,
      "d": 196.46118749999732,
      "v": 100
    },
    {
      "midi": 50,
      "hit": false,
      "t": 87794.02399999982,
      "d": 220.58800000000338,
      "v": 84
    },
    {
      "midi": 57,
      "hit": false,
      "t": 87794.02399999995,
      "d": 238.97033333333093,
      "v": 120
    },
    {
      "midi": 38,
      "hit": false,
      "t": 88014.61199999964,
      "d": 64.33816666666826,
      "v": 100
    },
    {
      "midi": 38,
      "hit": false,
      "t": 88014.61199999982,
      "d": 110.29399999999441,
      "v": 84
    },
    {
      "midi": 38,
      "hit": false,
      "t": 88124.90599999964,
      "d": 64.33816666666826,
      "v": 100
    },
    {
      "midi": 50,
      "hit": false,
      "t": 88124.90599999981,
      "d": 110.29399999999441,
      "v": 84
    },
    {
      "midi": 21,
      "hit": false,
      "t": 88235.19999999963,
      "d": 235.52364583333838,
      "v": 100
    },
    {
      "midi": 33,
      "hit": false,
      "t": 88235.19999999981,
      "d": 247.01260416666628,
      "v": 84
    },
    {
      "midi": 57,
      "hit": false,
      "t": 88235.19999999994,
      "d": 65.48706250000396,
      "v": 123
    },
    {
      "midi": 33,
      "hit": false,
      "t": 88455.78799999964,
      "d": 64.33816666666826,
      "v": 100
    },
    {
      "midi": 45,
      "hit": false,
      "t": 88455.78799999981,
      "d": 110.29399999999441,
      "v": 84
    },
    {
      "midi": 57,
      "hit": false,
      "t": 88455.78799999994,
      "d": 57.44479166666861,
      "v": 110
    },
    {
      "midi": 33,
      "hit": false,
      "t": 88566.08199999963,
      "d": 64.33816666666826,
      "v": 100
    },
    {
      "midi": 33,
      "hit": false,
      "t": 88566.0819999998,
      "d": 113.74068750000151,
      "v": 84
    },
    {
      "midi": 57,
      "hit": false,
      "t": 88566.08199999995,
      "d": 74.67822916666046,
      "v": 125
    },
    {
      "midi": 21,
      "hit": false,
      "t": 88676.37599999963,
      "d": 247.01260416666628,
      "v": 100
    },
    {
      "midi": 45,
      "hit": false,
      "t": 88676.3759999998,
      "d": 220.58800000000338,
      "v": 84
    },
    {
      "midi": 57,
      "hit": false,
      "t": 88676.37599999995,
      "d": 73.52933333333931,
      "v": 125
    },
    {
      "midi": 33,
      "hit": false,
      "t": 88896.96399999963,
      "d": 64.33816666666826,
      "v": 100
    },
    {
      "midi": 33,
      "hit": false,
      "t": 88896.9639999998,
      "d": 110.29399999999441,
      "v": 84
    },
    {
      "midi": 57,
      "hit": false,
      "t": 88896.96399999995,
      "d": 85.01829166666721,
      "v": 125
    },
    {
      "midi": 33,
      "hit": false,
      "t": 89007.25799999962,
      "d": 64.33816666666826,
      "v": 100
    },
    {
      "midi": 45,
      "hit": false,
      "t": 89007.2579999998,
      "d": 110.29399999999441,
      "v": 84
    },
    {
      "midi": 21,
      "hit": false,
      "t": 89117.55199999962,
      "d": 213.69462500000373,
      "v": 100
    },
    {
      "midi": 33,
      "hit": false,
      "t": 89117.55199999979,
      "d": 238.97033333333093,
      "v": 84
    },
    {
      "midi": 57,
      "hit": false,
      "t": 89117.55199999995,
      "d": 86.16718750000291,
      "v": 120
    },
    {
      "midi": 33,
      "hit": false,
      "t": 89338.13999999962,
      "d": 64.33816666666826,
      "v": 100
    },
    {
      "midi": 45,
      "hit": false,
      "t": 89338.1399999998,
      "d": 110.29399999999441,
      "v": 84
    },
    {
      "midi": 57,
      "hit": false,
      "t": 89338.13999999996,
      "d": 88.46497916665976,
      "v": 120
    },
    {
      "midi": 33,
      "hit": false,
      "t": 89448.43399999962,
      "d": 64.33816666666826,
      "v": 100
    },
    {
      "midi": 33,
      "hit": false,
      "t": 89448.43399999979,
      "d": 112.59179166666581,
      "v": 84
    },
    {
      "midi": 21,
      "hit": false,
      "t": 89558.72799999961,
      "d": 240.11922916666663,
      "v": 100
    },
    {
      "midi": 45,
      "hit": false,
      "t": 89558.72799999978,
      "d": 220.58800000000338,
      "v": 84
    },
    {
      "midi": 57,
      "hit": false,
      "t": 89558.72799999994,
      "d": 87.31608333333861,
      "v": 123
    },
    {
      "midi": 33,
      "hit": false,
      "t": 89779.31599999961,
      "d": 64.33816666666826,
      "v": 100
    },
    {
      "midi": 33,
      "hit": false,
      "t": 89779.31599999979,
      "d": 110.29399999999441,
      "v": 84
    },
    {
      "midi": 57,
      "hit": false,
      "t": 89779.31599999995,
      "d": 89.61387499999546,
      "v": 120
    },
    {
      "midi": 33,
      "hit": false,
      "t": 89889.60999999961,
      "d": 66.63595833333966,
      "v": 100
    },
    {
      "midi": 45,
      "hit": false,
      "t": 89889.60999999978,
      "d": 117.18737499999406,
      "v": 84
    },
    {
      "midi": 22,
      "hit": false,
      "t": 89999.90399999962,
      "d": 221.73689583333908,
      "v": 100
    },
    {
      "midi": 34,
      "hit": false,
      "t": 89999.90399999978,
      "d": 225.18358333333163,
      "v": 84
    },
    {
      "midi": 55,
      "hit": false,
      "t": 89999.90399999994,
      "d": 128.67633333333652,
      "v": 120
    },
    {
      "midi": 34,
      "hit": false,
      "t": 90220.49199999962,
      "d": 64.33816666666826,
      "v": 100
    },
    {
      "midi": 46,
      "hit": false,
      "t": 90220.49199999978,
      "d": 110.29399999999441,
      "v": 84
    },
    {
      "midi": 34,
      "hit": false,
      "t": 90330.78599999961,
      "d": 64.33816666666826,
      "v": 100
    },
    {
      "midi": 34,
      "hit": false,
      "t": 90330.78599999977,
      "d": 127.52743750000081,
      "v": 84
    },
    {
      "midi": 55,
      "hit": false,
      "t": 90330.78599999993,
      "d": 132.12302083332906,
      "v": 120
    },
    {
      "midi": 22,
      "hit": false,
      "t": 90441.07999999961,
      "d": 234.37475000000268,
      "v": 100
    },
    {
      "midi": 46,
      "hit": false,
      "t": 90441.07999999977,
      "d": 220.58800000000338,
      "v": 84
    },
    {
      "midi": 34,
      "hit": false,
      "t": 90661.66799999961,
      "d": 64.33816666666826,
      "v": 100
    },
    {
      "midi": 34,
      "hit": false,
      "t": 90661.66799999977,
      "d": 110.29399999999441,
      "v": 84
    },
    {
      "midi": 53,
      "hit": false,
      "t": 90661.66799999993,
      "d": 110.29399999999441,
      "v": 121
    },
    {
      "midi": 34,
      "hit": false,
      "t": 90771.9619999996,
      "d": 64.33816666666826,
      "v": 100
    },
    {
      "midi": 46,
      "hit": false,
      "t": 90771.96199999977,
      "d": 110.29399999999441,
      "v": 84
    },
    {
      "midi": 22,
      "hit": false,
      "t": 90882.2559999996,
      "d": 211.39683333333232,
      "v": 100
    },
    {
      "midi": 34,
      "hit": false,
      "t": 90882.25599999976,
      "d": 227.48137500000303,
      "v": 84
    },
    {
      "midi": 53,
      "hit": false,
      "t": 90882.25599999992,
      "d": 318.2441458333342,
      "v": 120
    },
    {
      "midi": 34,
      "hit": false,
      "t": 91102.8439999996,
      "d": 64.33816666666826,
      "v": 100
    },
    {
      "midi": 46,
      "hit": false,
      "t": 91102.84399999976,
      "d": 114.88958333332266,
      "v": 84
    },
    {
      "midi": 34,
      "hit": false,
      "t": 91213.1379999996,
      "d": 64.33816666666826,
      "v": 100
    },
    {
      "midi": 34,
      "hit": false,
      "t": 91213.13799999976,
      "d": 117.18737499999406,
      "v": 84
    },
    {
      "midi": 22,
      "hit": false,
      "t": 91323.4319999996,
      "d": 230.92806250001013,
      "v": 100
    },
    {
      "midi": 46,
      "hit": false,
      "t": 91323.43199999975,
      "d": 220.58800000000338,
      "v": 84
    },
    {
      "midi": 53,
      "hit": false,
      "t": 91323.43199999993,
      "d": 298.7129166667146,
      "v": 120
    },
    {
      "midi": 34,
      "hit": false,
      "t": 91544.0199999996,
      "d": 64.33816666666826,
      "v": 100
    },
    {
      "midi": 34,
      "hit": false,
      "t": 91544.01999999976,
      "d": 110.29399999999441,
      "v": 84
    },
    {
      "midi": 34,
      "hit": false,
      "t": 91654.31399999959,
      "d": 64.33816666666826,
      "v": 100
    },
    {
      "midi": 46,
      "hit": false,
      "t": 91654.31399999975,
      "d": 110.29399999999441,
      "v": 84
    },
    {
      "midi": 26,
      "hit": false,
      "t": 91764.60799999959,
      "d": 230.92806250001013,
      "v": 100
    },
    {
      "midi": 50,
      "hit": false,
      "t": 91764.60799999975,
      "d": 220.58800000000338,
      "v": 84
    },
    {
      "midi": 57,
      "hit": false,
      "t": 91764.60800000001,
      "d": 101.10283333333791,
      "v": 108
    },
    {
      "midi": 69,
      "hit": false,
      "t": 91764.60800000001,
      "d": 122.93185416667257,
      "v": 108
    },
    {
      "midi": 38,
      "hit": false,
      "t": 91764.60800000001,
      "d": 3523.6635208333028,
      "v": 111
    },
    {
      "midi": 62,
      "hit": false,
      "t": 91764.60800000004,
      "d": 220.58800000000338,
      "v": 122
    },
    {
      "midi": 38,
      "hit": false,
      "t": 91764.60800000004,
      "d": 3543.194750000024,
      "v": 117
    },
    {
      "midi": 57,
      "hit": false,
      "t": 91971.40925000001,
      "d": 253.90597916666593,
      "v": 110
    },
    {
      "midi": 69,
      "hit": false,
      "t": 91971.40925000001,
      "d": 275.7350000000006,
      "v": 110
    },
    {
      "midi": 57,
      "hit": false,
      "t": 91971.40925000004,
      "d": 245.86370833333058,
      "v": 122
    },
    {
      "midi": 38,
      "hit": false,
      "t": 91985.19599999959,
      "d": 64.33816666666826,
      "v": 100
    },
    {
      "midi": 62,
      "hit": false,
      "t": 91985.19599999975,
      "d": 110.29399999999441,
      "v": 84
    },
    {
      "midi": 38,
      "hit": false,
      "t": 92095.48999999958,
      "d": 74.67822916666046,
      "v": 100
    },
    {
      "midi": 50,
      "hit": false,
      "t": 92095.48999999974,
      "d": 117.18737499999406,
      "v": 84
    },
    {
      "midi": 62,
      "hit": false,
      "t": 92191.99725000004,
      "d": 245.86370833331603,
      "v": 122
    },
    {
      "midi": 26,
      "hit": false,
      "t": 92205.78399999958,
      "d": 215.99241666666057,
      "v": 100
    },
    {
      "midi": 62,
      "hit": false,
      "t": 92205.78399999974,
      "d": 225.18358333333163,
      "v": 84
    },
    {
      "midi": 57,
      "hit": false,
      "t": 92412.58525000002,
      "d": 103.40062499999476,
      "v": 110
    },
    {
      "midi": 69,
      "hit": false,
      "t": 92412.58525000002,
      "d": 125.22964583332941,
      "v": 110
    },
    {
      "midi": 64,
      "hit": false,
      "t": 92412.58525000003,
      "d": 256.2037708333228,
      "v": 122
    },
    {
      "midi": 38,
      "hit": false,
      "t": 92426.37199999957,
      "d": 64.33816666666826,
      "v": 100
    },
    {
      "midi": 50,
      "hit": false,
      "t": 92426.37199999974,
      "d": 112.59179166666581,
      "v": 84
    },
    {
      "midi": 38,
      "hit": false,
      "t": 92536.66599999956,
      "d": 64.33816666666826,
      "v": 100
    },
    {
      "midi": 62,
      "hit": false,
      "t": 92536.66599999974,
      "d": 127.52743750001537,
      "v": 84
    },
    {
      "midi": 57,
      "hit": false,
      "t": 92633.17325,
      "d": 274.5861041666649,
      "v": 110
    },
    {
      "midi": 69,
      "hit": false,
      "t": 92633.17325,
      "d": 295.26622916666383,
      "v": 110
    },
    {
      "midi": 65,
      "hit": false,
      "t": 92633.17325000002,
      "d": 263.097145833337,
      "v": 122
    },
    {
      "midi": 26,
      "hit": false,
      "t": 92646.95999999956,
      "d": 222.88579166667478,
      "v": 100
    },
    {
      "midi": 50,
      "hit": false,
      "t": 92646.95999999974,
      "d": 250.45929166667338,
      "v": 84
    },
    {
      "midi": 64,
      "hit": false,
      "t": 92853.76125000003,
      "d": 287.22395833334303,
      "v": 122
    },
    {
      "midi": 38,
      "hit": false,
      "t": 92867.54799999956,
      "d": 64.33816666666826,
      "v": 100
    },
    {
      "midi": 62,
      "hit": false,
      "t": 92867.54799999975,
      "d": 110.29400000000896,
      "v": 84
    },
    {
      "midi": 38,
      "hit": false,
      "t": 92977.84199999955,
      "d": 64.33816666666826,
      "v": 100
    },
    {
      "midi": 50,
      "hit": false,
      "t": 92977.84199999976,
      "d": 114.88958333332266,
      "v": 84
    },
    {
      "midi": 57,
      "hit": false,
      "t": 93074.34925,
      "d": 91.91166666666686,
      "v": 110
    },
    {
      "midi": 69,
      "hit": false,
      "t": 93074.34925,
      "d": 109.14510416667326,
      "v": 110
    },
    {
      "midi": 65,
      "hit": false,
      "t": 93074.34925000003,
      "d": 255.05487500000163,
      "v": 122
    },
    {
      "midi": 26,
      "hit": false,
      "t": 93088.13599999955,
      "d": 218.29020833333198,
      "v": 100
    },
    {
      "midi": 62,
      "hit": false,
      "t": 93088.13599999975,
      "d": 234.37474999998813,
      "v": 84
    },
    {
      "midi": 69,
      "hit": false,
      "t": 93294.93725,
      "d": 273.4372083333292,
      "v": 110
    },
    {
      "midi": 57,
      "hit": false,
      "t": 93294.93725,
      "d": 281.47947916666453,
      "v": 110
    },
    {
      "midi": 67,
      "hit": false,
      "t": 93294.93725000003,
      "d": 220.58800000000338,
      "v": 122
    },
    {
      "midi": 38,
      "hit": false,
      "t": 93308.72399999955,
      "d": 64.33816666666826,
      "v": 100
    },
    {
      "midi": 50,
      "hit": false,
      "t": 93308.72399999974,
      "d": 110.29399999999441,
      "v": 84
    },
    {
      "midi": 38,
      "hit": false,
      "t": 93419.01799999955,
      "d": 64.33816666666826,
      "v": 100
    },
    {
      "midi": 62,
      "hit": false,
      "t": 93419.01799999973,
      "d": 120.63406250000116,
      "v": 84
    },
    {
      "midi": 65,
      "hit": false,
      "t": 93515.52525000004,
      "d": 265.3949375000084,
      "v": 122
    },
    {
      "midi": 26,
      "hit": false,
      "t": 93529.31199999954,
      "d": 215.99241666666057,
      "v": 100
    },
    {
      "midi": 50,
      "hit": false,
      "t": 93529.31199999973,
      "d": 257.35266666667303,
      "v": 84
    },
    {
      "midi": 57,
      "hit": false,
      "t": 93736.11325,
      "d": 104.54952083333046,
      "v": 110
    },
    {
      "midi": 69,
      "hit": false,
      "t": 93736.11325,
      "d": 124.08074999999371,
      "v": 110
    },
    {
      "midi": 67,
      "hit": false,
      "t": 93736.11325000004,
      "d": 220.58800000000338,
      "v": 122
    },
    {
      "midi": 38,
      "hit": false,
      "t": 93749.89999999953,
      "d": 64.33816666666826,
      "v": 100
    },
    {
      "midi": 62,
      "hit": false,
      "t": 93749.89999999973,
      "d": 110.29400000000896,
      "v": 84
    },
    {
      "midi": 38,
      "hit": false,
      "t": 93860.19399999952,
      "d": 64.33816666666826,
      "v": 100
    },
    {
      "midi": 50,
      "hit": false,
      "t": 93860.19399999974,
      "d": 117.18737499999406,
      "v": 84
    },
    {
      "midi": 57,
      "hit": false,
      "t": 93956.70124999998,
      "d": 286.0750624999928,
      "v": 110
    },
    {
      "midi": 69,
      "hit": false,
      "t": 93956.70124999998,
      "d": 297.5640208333207,
      "v": 110
    },
    {
      "midi": 69,
      "hit": false,
      "t": 93956.70125000004,
      "d": 255.05487500000163,
      "v": 122
    },
    {
      "midi": 26,
      "hit": false,
      "t": 93970.48799999952,
      "d": 224.03468750001048,
      "v": 100
    },
    {
      "midi": 62,
      "hit": false,
      "t": 93970.48799999974,
      "d": 238.97033333333093,
      "v": 84
    },
    {
      "midi": 67,
      "hit": false,
      "t": 94177.28925000005,
      "d": 269.99052083333663,
      "v": 122
    },
    {
      "midi": 38,
      "hit": false,
      "t": 94191.07599999952,
      "d": 64.33816666666826,
      "v": 100
    },
    {
      "midi": 50,
      "hit": false,
      "t": 94191.07599999974,
      "d": 110.29399999999441,
      "v": 84
    },
    {
      "midi": 38,
      "hit": false,
      "t": 94301.36999999952,
      "d": 74.67822916666046,
      "v": 100
    },
    {
      "midi": 62,
      "hit": false,
      "t": 94301.36999999973,
      "d": 116.03847916665836,
      "v": 84
    },
    {
      "midi": 57,
      "hit": false,
      "t": 94397.87724999998,
      "d": 253.90597916666593,
      "v": 110
    },
    {
      "midi": 69,
      "hit": false,
      "t": 94397.87724999998,
      "d": 276.8838958333363,
      "v": 110
    },
    {
      "midi": 65,
      "hit": false,
      "t": 94397.87725000005,
      "d": 441.17600000000675,
      "v": 122
    },
    {
      "midi": 26,
      "hit": false,
      "t": 94411.66399999951,
      "d": 221.73689583333908,
      "v": 100
    },
    {
      "midi": 50,
      "hit": false,
      "t": 94411.66399999973,
      "d": 220.58800000000338,
      "v": 84
    },
    {
      "midi": 38,
      "hit": false,
      "t": 94632.25199999951,
      "d": 64.33816666666826,
      "v": 100
    },
    {
      "midi": 62,
      "hit": false,
      "t": 94632.25199999973,
      "d": 113.74068750000151,
      "v": 84
    },
    {
      "midi": 38,
      "hit": false,
      "t": 94742.54599999951,
      "d": 71.23154166666791,
      "v": 100
    },
    {
      "midi": 50,
      "hit": false,
      "t": 94742.54599999973,
      "d": 110.29400000000896,
      "v": 84
    },
    {
      "midi": 57,
      "hit": false,
      "t": 94839.05324999998,
      "d": 264.2460416666727,
      "v": 110
    },
    {
      "midi": 69,
      "hit": false,
      "t": 94839.05324999998,
      "d": 310.20187499999884,
      "v": 110
    },
    {
      "midi": 64,
      "hit": false,
      "t": 94839.05325000006,
      "d": 441.17600000000675,
      "v": 122
    },
    {
      "midi": 26,
      "hit": false,
      "t": 94852.8399999995,
      "d": 196.46118749999732,
      "v": 100
    },
    {
      "midi": 62,
      "hit": false,
      "t": 94852.83999999973,
      "d": 220.58800000000338,
      "v": 84
    },
    {
      "midi": 38,
      "hit": false,
      "t": 95073.4279999995,
      "d": 64.33816666666826,
      "v": 100
    },
    {
      "midi": 50,
      "hit": false,
      "t": 95073.42799999974,
      "d": 110.29399999999441,
      "v": 84
    },
    {
      "midi": 38,
      "hit": false,
      "t": 95183.7219999995,
      "d": 64.33816666666826,
      "v": 100
    },
    {
      "midi": 62,
      "hit": false,
      "t": 95183.72199999973,
      "d": 110.29399999999441,
      "v": 84
    },
    {
      "midi": 58,
      "hit": false,
      "t": 95280.22924999997,
      "d": 135.56970833333617,
      "v": 110
    },
    {
      "midi": 70,
      "hit": false,
      "t": 95280.22924999997,
      "d": 135.56970833333617,
      "v": 110
    },
    {
      "midi": 62,
      "hit": false,
      "t": 95280.22925000006,
      "d": 220.58800000000338,
      "v": 122
    },
    {
      "midi": 34,
      "hit": false,
      "t": 95288.27152083331,
      "d": 3522.514624999996,
      "v": 117
    },
    {
      "midi": 34,
      "hit": false,
      "t": 95289.42041666673,
      "d": 3512.174562500033,
      "v": 102
    },
    {
      "midi": 22,
      "hit": false,
      "t": 95294.0159999995,
      "d": 235.52364583333838,
      "v": 100
    },
    {
      "midi": 46,
      "hit": false,
      "t": 95294.01599999973,
      "d": 247.01260416666628,
      "v": 84
    },
    {
      "midi": 70,
      "hit": false,
      "t": 95500.81724999998,
      "d": 247.01260416666628,
      "v": 110
    },
    {
      "midi": 58,
      "hit": false,
      "t": 95500.81724999998,
      "d": 264.2460416666727,
      "v": 110
    },
    {
      "midi": 58,
      "hit": false,
      "t": 95500.81725000007,
      "d": 220.58800000000338,
      "v": 122
    },
    {
      "midi": 34,
      "hit": false,
      "t": 95514.6039999995,
      "d": 64.33816666666826,
      "v": 100
    },
    {
      "midi": 58,
      "hit": false,
      "t": 95514.60399999973,
      "d": 110.29399999999441,
      "v": 84
    },
    {
      "midi": 34,
      "hit": false,
      "t": 95624.89799999949,
      "d": 64.33816666666826,
      "v": 100
    },
    {
      "midi": 46,
      "hit": false,
      "t": 95624.89799999972,
      "d": 113.74068750000151,
      "v": 84
    },
    {
      "midi": 62,
      "hit": false,
      "t": 95721.40525000007,
      "d": 241.26812500000233,
      "v": 122
    },
    {
      "midi": 22,
      "hit": false,
      "t": 95735.19199999949,
      "d": 247.01260416666628,
      "v": 100
    },
    {
      "midi": 58,
      "hit": false,
      "t": 95735.19199999972,
      "d": 220.58800000000338,
      "v": 84
    },
    {
      "midi": 70,
      "hit": false,
      "t": 95941.99324999998,
      "d": 88.46497916665976,
      "v": 110
    },
    {
      "midi": 58,
      "hit": false,
      "t": 95941.99324999998,
      "d": 114.88958333332266,
      "v": 110
    },
    {
      "midi": 64,
      "hit": false,
      "t": 95941.99325000007,
      "d": 229.77916666667443,
      "v": 122
    },
    {
      "midi": 34,
      "hit": false,
      "t": 95955.77999999949,
      "d": 64.33816666666826,
      "v": 100
    },
    {
      "midi": 46,
      "hit": false,
      "t": 95955.77999999972,
      "d": 110.29399999999441,
      "v": 84
    },
    {
      "midi": 34,
      "hit": false,
      "t": 96066.07399999948,
      "d": 64.33816666666826,
      "v": 100
    },
    {
      "midi": 58,
      "hit": false,
      "t": 96066.07399999972,
      "d": 110.29399999999441,
      "v": 84
    },
    {
      "midi": 70,
      "hit": false,
      "t": 96162.58124999997,
      "d": 280.33058333332883,
      "v": 110
    },
    {
      "midi": 58,
      "hit": false,
      "t": 96162.58124999997,
      "d": 288.3728541666642,
      "v": 110
    },
    {
      "midi": 65,
      "hit": false,
      "t": 96162.58125000008,
      "d": 244.71481250000943,
      "v": 122
    },
    {
      "midi": 22,
      "hit": false,
      "t": 96176.36799999948,
      "d": 213.69462500000373,
      "v": 100
    },
    {
      "midi": 46,
      "hit": false,
      "t": 96176.36799999971,
      "d": 238.97033333333093,
      "v": 84
    },
    {
      "midi": 64,
      "hit": false,
      "t": 96383.16925000008,
      "d": 249.31039583333768,
      "v": 122
    },
    {
      "midi": 34,
      "hit": false,
      "t": 96396.95599999948,
      "d": 64.33816666666826,
      "v": 100
    },
    {
      "midi": 58,
      "hit": false,
      "t": 96396.95599999971,
      "d": 110.29399999999441,
      "v": 84
    },
    {
      "midi": 34,
      "hit": false,
      "t": 96507.24999999948,
      "d": 64.33816666666826,
      "v": 100
    },
    {
      "midi": 46,
      "hit": false,
      "t": 96507.24999999971,
      "d": 112.59179166666581,
      "v": 84
    },
    {
      "midi": 58,
      "hit": false,
      "t": 96603.75724999997,
      "d": 110.29399999999441,
      "v": 110
    },
    {
      "midi": 70,
      "hit": false,
      "t": 96603.75724999997,
      "d": 110.29399999999441,
      "v": 110
    },
    {
      "midi": 65,
      "hit": false,
      "t": 96603.75725000008,
      "d": 220.58800000000338,
      "v": 122
    },
    {
      "midi": 22,
      "hit": false,
      "t": 96617.54399999947,
      "d": 240.11922916666663,
      "v": 100
    },
    {
      "midi": 58,
      "hit": false,
      "t": 96617.5439999997,
      "d": 220.58800000000338,
      "v": 84
    },
    {
      "midi": 70,
      "hit": false,
      "t": 96824.34524999995,
      "d": 269.99052083333663,
      "v": 110
    },
    {
      "midi": 58,
      "hit": false,
      "t": 96824.34524999995,
      "d": 282.62837500000023,
      "v": 110
    },
    {
      "midi": 67,
      "hit": false,
      "t": 96824.34525000009,
      "d": 236.67254166667408,
      "v": 122
    },
    {
      "midi": 34,
      "hit": false,
      "t": 96838.13199999947,
      "d": 64.33816666666826,
      "v": 100
    },
    {
      "midi": 46,
      "hit": false,
      "t": 96838.1319999997,
      "d": 110.29399999999441,
      "v": 84
    },
    {
      "midi": 34,
      "hit": false,
      "t": 96948.42599999947,
      "d": 66.63595833333966,
      "v": 100
    },
    {
      "midi": 58,
      "hit": false,
      "t": 96948.4259999997,
      "d": 117.18737499999406,
      "v": 84
    },
    {
      "midi": 65,
      "hit": false,
      "t": 97044.93325000009,
      "d": 220.58800000000338,
      "v": 122
    },
    {
      "midi": 22,
      "hit": false,
      "t": 97058.71999999948,
      "d": 221.73689583333908,
      "v": 100
    },
    {
      "midi": 46,
      "hit": false,
      "t": 97058.7199999997,
      "d": 225.18358333333163,
      "v": 84
    },
    {
      "midi": 58,
      "hit": false,
      "t": 97265.52124999996,
      "d": 112.59179166666581,
      "v": 110
    },
    {
      "midi": 70,
      "hit": false,
      "t": 97265.52124999996,
      "d": 121.78295833333686,
      "v": 110
    },
    {
      "midi": 67,
      "hit": false,
      "t": 97265.52125000009,
      "d": 220.58800000000338,
      "v": 122
    },
    {
      "midi": 34,
      "hit": false,
      "t": 97279.30799999948,
      "d": 64.33816666666826,
      "v": 100
    },
    {
      "midi": 58,
      "hit": false,
      "t": 97279.3079999997,
      "d": 110.29399999999441,
      "v": 84
    },
    {
      "midi": 34,
      "hit": false,
      "t": 97389.60199999948,
      "d": 64.33816666666826,
      "v": 100
    },
    {
      "midi": 46,
      "hit": false,
      "t": 97389.6019999997,
      "d": 127.52743750000081,
      "v": 84
    },
    {
      "midi": 70,
      "hit": false,
      "t": 97486.10924999996,
      "d": 248.16150000000198,
      "v": 110
    },
    {
      "midi": 58,
      "hit": false,
      "t": 97486.10924999996,
      "d": 265.3949375000084,
      "v": 110
    },
    {
      "midi": 69,
      "hit": false,
      "t": 97486.1092500001,
      "d": 272.28831250000803,
      "v": 122
    },
    {
      "midi": 22,
      "hit": false,
      "t": 97499.89599999947,
      "d": 234.37475000000268,
      "v": 100
    },
    {
      "midi": 58,
      "hit": false,
      "t": 97499.89599999969,
      "d": 220.58800000000338,
      "v": 84
    },
    {
      "midi": 67,
      "hit": false,
      "t": 97706.6972500001,
      "d": 232.07695833333128,
      "v": 122
    },
    {
      "midi": 34,
      "hit": false,
      "t": 97720.48399999947,
      "d": 64.33816666666826,
      "v": 100
    },
    {
      "midi": 46,
      "hit": false,
      "t": 97720.48399999969,
      "d": 110.29399999999441,
      "v": 84
    },
    {
      "midi": 34,
      "hit": false,
      "t": 97830.77799999947,
      "d": 64.33816666666826,
      "v": 100
    },
    {
      "midi": 58,
      "hit": false,
      "t": 97830.77799999969,
      "d": 110.29399999999441,
      "v": 84
    },
    {
      "midi": 70,
      "hit": false,
      "t": 97927.28524999997,
      "d": 259.6504583333299,
      "v": 110
    },
    {
      "midi": 58,
      "hit": false,
      "t": 97927.28524999997,
      "d": 265.39493749999383,
      "v": 110
    },
    {
      "midi": 65,
      "hit": false,
      "t": 97927.2852500001,
      "d": 441.1759999999922,
      "v": 122
    },
    {
      "midi": 22,
      "hit": false,
      "t": 97941.07199999946,
      "d": 211.39683333333232,
      "v": 100
    },
    {
      "midi": 46,
      "hit": false,
      "t": 97941.07199999968,
      "d": 227.48137500000303,
      "v": 84
    },
    {
      "midi": 34,
      "hit": false,
      "t": 98161.65999999947,
      "d": 64.33816666666826,
      "v": 100
    },
    {
      "midi": 58,
      "hit": false,
      "t": 98161.65999999968,
      "d": 114.88958333332266,
      "v": 84
    },
    {
      "midi": 34,
      "hit": false,
      "t": 98271.95399999946,
      "d": 64.33816666666826,
      "v": 100
    },
    {
      "midi": 46,
      "hit": false,
      "t": 98271.95399999968,
      "d": 117.18737499999406,
      "v": 84
    },
    {
      "midi": 58,
      "hit": false,
      "t": 98368.46124999996,
      "d": 269.99052083333663,
      "v": 110
    },
    {
      "midi": 70,
      "hit": false,
      "t": 98368.46124999996,
      "d": 291.8195416666713,
      "v": 110
    },
    {
      "midi": 64,
      "hit": false,
      "t": 98368.4612500001,
      "d": 441.17600000000675,
      "v": 122
    },
    {
      "midi": 22,
      "hit": false,
      "t": 98382.24799999945,
      "d": 230.92806250001013,
      "v": 100
    },
    {
      "midi": 58,
      "hit": false,
      "t": 98382.24799999967,
      "d": 220.58800000000338,
      "v": 84
    },
    {
      "midi": 34,
      "hit": false,
      "t": 98602.83599999946,
      "d": 64.33816666666826,
      "v": 100
    },
    {
      "midi": 46,
      "hit": false,
      "t": 98602.83599999968,
      "d": 110.29399999999441,
      "v": 84
    },
    {
      "midi": 34,
      "hit": false,
      "t": 98713.12999999945,
      "d": 64.33816666666826,
      "v": 100
    },
    {
      "midi": 58,
      "hit": false,
      "t": 98713.12999999967,
      "d": 110.29399999999441,
      "v": 84
    },
    {
      "midi": 38,
      "hit": false,
      "t": 98793.55270833343,
      "d": 3547.790333333367,
      "v": 122
    },
    {
      "midi": 57,
      "hit": false,
      "t": 98809.63724999997,
      "d": 87.31608333333861,
      "v": 110
    },
    {
      "midi": 69,
      "hit": false,
      "t": 98809.63724999997,
      "d": 106.84731250000186,
      "v": 110
    },
    {
      "midi": 62,
      "hit": false,
      "t": 98809.6372500001,
      "d": 220.58800000000338,
      "v": 122
    },
    {
      "midi": 38,
      "hit": false,
      "t": 98819.97731249998,
      "d": 3525.961312500018,
      "v": 122
    },
    {
      "midi": 26,
      "hit": false,
      "t": 98823.42399999945,
      "d": 235.52364583333838,
      "v": 100
    },
    {
      "midi": 50,
      "hit": false,
      "t": 98823.42399999966,
      "d": 224.03468750001048,
      "v": 84
    },
    {
      "midi": 57,
      "hit": false,
      "t": 99030.22524999997,
      "d": 278.032791666672,
      "v": 110
    },
    {
      "midi": 69,
      "hit": false,
      "t": 99030.22524999997,
      "d": 292.968437500007,
      "v": 110
    },
    {
      "midi": 57,
      "hit": false,
      "t": 99030.2252500001,
      "d": 238.97033333333093,
      "v": 122
    },
    {
      "midi": 38,
      "hit": false,
      "t": 99044.01199999945,
      "d": 64.33816666666826,
      "v": 100
    },
    {
      "midi": 62,
      "hit": false,
      "t": 99044.01199999967,
      "d": 110.29400000000896,
      "v": 84
    },
    {
      "midi": 38,
      "hit": false,
      "t": 99154.30599999944,
      "d": 64.33816666666826,
      "v": 100
    },
    {
      "midi": 50,
      "hit": false,
      "t": 99154.30599999968,
      "d": 110.29399999999441,
      "v": 84
    },
    {
      "midi": 62,
      "hit": false,
      "t": 99250.81325000011,
      "d": 248.16149999998743,
      "v": 122
    },
    {
      "midi": 26,
      "hit": false,
      "t": 99264.59999999944,
      "d": 234.37475000000268,
      "v": 100
    },
    {
      "midi": 62,
      "hit": false,
      "t": 99264.59999999967,
      "d": 220.58800000000338,
      "v": 84
    },
    {
      "midi": 69,
      "hit": false,
      "t": 99471.40124999998,
      "d": 90.76277083333116,
      "v": 110
    },
    {
      "midi": 57,
      "hit": false,
      "t": 99471.40124999998,
      "d": 106.84731250000186,
      "v": 110
    },
    {
      "midi": 64,
      "hit": false,
      "t": 99471.4012500001,
      "d": 220.58800000000338,
      "v": 122
    },
    {
      "midi": 38,
      "hit": false,
      "t": 99485.18799999944,
      "d": 64.33816666666826,
      "v": 100
    },
    {
      "midi": 50,
      "hit": false,
      "t": 99485.18799999967,
      "d": 110.29399999999441,
      "v": 84
    },
    {
      "midi": 38,
      "hit": false,
      "t": 99595.48199999944,
      "d": 64.33816666666826,
      "v": 100
    },
    {
      "midi": 62,
      "hit": false,
      "t": 99595.48199999967,
      "d": 122.93185416665801,
      "v": 84
    },
    {
      "midi": 69,
      "hit": false,
      "t": 99691.98924999998,
      "d": 295.26622916666383,
      "v": 110
    },
    {
      "midi": 57,
      "hit": false,
      "t": 99691.98924999998,
      "d": 296.41512499999953,
      "v": 110
    },
    {
      "midi": 65,
      "hit": false,
      "t": 99691.9892500001,
      "d": 220.58800000000338,
      "v": 122
    },
    {
      "midi": 26,
      "hit": false,
      "t": 99705.77599999943,
      "d": 211.39683333333232,
      "v": 100
    },
    {
      "midi": 50,
      "hit": false,
      "t": 99705.77599999966,
      "d": 229.77916666667443,
      "v": 84
    },
    {
      "midi": 64,
      "hit": false,
      "t": 99912.5772500001,
      "d": 271.13941666667233,
      "v": 122
    },
    {
      "midi": 38,
      "hit": false,
      "t": 99926.36399999943,
      "d": 64.33816666666826,
      "v": 100
    },
    {
      "midi": 62,
      "hit": false,
      "t": 99926.36399999967,
      "d": 110.29400000000896,
      "v": 84
    },
    {
      "midi": 38,
      "hit": false,
      "t": 100036.65799999943,
      "d": 64.33816666666826,
      "v": 100
    },
    {
      "midi": 50,
      "hit": false,
      "t": 100036.65799999968,
      "d": 110.29399999999441,
      "v": 84
    },
    {
      "midi": 57,
      "hit": false,
      "t": 100133.16524999999,
      "d": 93.06056250000256,
      "v": 114
    },
    {
      "midi": 69,
      "hit": false,
      "t": 100133.16524999999,
      "d": 114.88958333333721,
      "v": 114
    },
    {
      "midi": 65,
      "hit": false,
      "t": 100133.16525000011,
      "d": 220.58800000000338,
      "v": 122
    },
    {
      "midi": 26,
      "hit": false,
      "t": 100146.95199999942,
      "d": 204.50345833333267,
      "v": 100
    },
    {
      "midi": 62,
      "hit": false,
      "t": 100146.95199999967,
      "d": 220.58800000000338,
      "v": 84
    },
    {
      "midi": 57,
      "hit": false,
      "t": 100353.75325,
      "d": 267.69272916666523,
      "v": 110
    },
    {
      "midi": 69,
      "hit": false,
      "t": 100353.75325,
      "d": 290.6706458333356,
      "v": 110
    },
    {
      "midi": 67,
      "hit": false,
      "t": 100353.75325000011,
      "d": 220.58800000000338,
      "v": 122
    },
    {
      "midi": 38,
      "hit": false,
      "t": 100367.53999999943,
      "d": 64.33816666666826,
      "v": 100
    },
    {
      "midi": 50,
      "hit": false,
      "t": 100367.53999999967,
      "d": 110.29399999999441,
      "v": 84
    },
    {
      "midi": 38,
      "hit": false,
      "t": 100477.83399999942,
      "d": 64.33816666666826,
      "v": 100
    },
    {
      "midi": 62,
      "hit": false,
      "t": 100477.83399999967,
      "d": 110.29399999999441,
      "v": 84
    },
    {
      "midi": 65,
      "hit": false,
      "t": 100574.34125000011,
      "d": 228.63027083333873,
      "v": 122
    },
    {
      "midi": 26,
      "hit": false,
      "t": 100588.12799999941,
      "d": 207.95014583333977,
      "v": 100
    },
    {
      "midi": 50,
      "hit": false,
      "t": 100588.12799999966,
      "d": 220.58800000000338,
      "v": 84
    },
    {
      "midi": 57,
      "hit": false,
      "t": 100794.92925,
      "d": 96.50724999999511,
      "v": 110
    },
    {
      "midi": 69,
      "hit": false,
      "t": 100794.92925,
      "d": 113.74068750000151,
      "v": 110
    },
    {
      "midi": 67,
      "hit": false,
      "t": 100794.92925000012,
      "d": 220.58800000000338,
      "v": 122
    },
    {
      "midi": 38,
      "hit": false,
      "t": 100808.71599999942,
      "d": 64.33816666666826,
      "v": 100
    },
    {
      "midi": 62,
      "hit": false,
      "t": 100808.71599999967,
      "d": 110.29399999999441,
      "v": 84
    },
    {
      "midi": 38,
      "hit": false,
      "t": 100919.00999999941,
      "d": 64.33816666666826,
      "v": 100
    },
    {
      "midi": 50,
      "hit": false,
      "t": 100919.00999999966,
      "d": 110.29399999999441,
      "v": 84
    },
    {
      "midi": 57,
      "hit": false,
      "t": 101015.51725,
      "d": 278.032791666672,
      "v": 110
    },
    {
      "midi": 69,
      "hit": false,
      "t": 101015.51725,
      "d": 284.92616666667163,
      "v": 110
    },
    {
      "midi": 69,
      "hit": false,
      "t": 101015.51725000012,
      "d": 252.75708333333023,
      "v": 122
    },
    {
      "midi": 26,
      "hit": false,
      "t": 101029.3039999994,
      "d": 212.54572916666802,
      "v": 100
    },
    {
      "midi": 62,
      "hit": false,
      "t": 101029.30399999965,
      "d": 220.58800000000338,
      "v": 84
    },
    {
      "midi": 67,
      "hit": false,
      "t": 101236.10525000012,
      "d": 276.88389583332173,
      "v": 122
    },
    {
      "midi": 38,
      "hit": false,
      "t": 101249.89199999941,
      "d": 64.33816666666826,
      "v": 100
    },
    {
      "midi": 50,
      "hit": false,
      "t": 101249.89199999966,
      "d": 110.29399999999441,
      "v": 84
    },
    {
      "midi": 38,
      "hit": false,
      "t": 101360.1859999994,
      "d": 72.38043750000361,
      "v": 100
    },
    {
      "midi": 62,
      "hit": false,
      "t": 101360.18599999965,
      "d": 110.29399999999441,
      "v": 84
    },
    {
      "midi": 69,
      "hit": false,
      "t": 101456.69325000001,
      "d": 280.33058333332883,
      "v": 110
    },
    {
      "midi": 57,
      "hit": false,
      "t": 101456.69325000001,
      "d": 288.3728541666642,
      "v": 110
    },
    {
      "midi": 65,
      "hit": false,
      "t": 101456.69325000011,
      "d": 441.17600000000675,
      "v": 122
    },
    {
      "midi": 26,
      "hit": false,
      "t": 101470.47999999941,
      "d": 204.50345833333267,
      "v": 100
    },
    {
      "midi": 50,
      "hit": false,
      "t": 101470.47999999965,
      "d": 220.58800000000338,
      "v": 84
    },
    {
      "midi": 38,
      "hit": false,
      "t": 101691.06799999942,
      "d": 64.33816666666826,
      "v": 100
    },
    {
      "midi": 62,
      "hit": false,
      "t": 101691.06799999965,
      "d": 110.29399999999441,
      "v": 84
    },
    {
      "midi": 38,
      "hit": false,
      "t": 101801.36199999941,
      "d": 64.33816666666826,
      "v": 100
    },
    {
      "midi": 50,
      "hit": false,
      "t": 101801.36199999964,
      "d": 110.29399999999441,
      "v": 84
    },
    {
      "midi": 57,
      "hit": false,
      "t": 101897.86925,
      "d": 274.5861041666649,
      "v": 110
    },
    {
      "midi": 69,
      "hit": false,
      "t": 101897.86925,
      "d": 314.7974583333271,
      "v": 110
    },
    {
      "midi": 64,
      "hit": false,
      "t": 101897.86925000012,
      "d": 441.17600000000675,
      "v": 122
    },
    {
      "midi": 26,
      "hit": false,
      "t": 101911.6559999994,
      "d": 201.05677083334012,
      "v": 100
    },
    {
      "midi": 62,
      "hit": false,
      "t": 101911.65599999964,
      "d": 220.58800000000338,
      "v": 84
    },
    {
      "midi": 38,
      "hit": false,
      "t": 102132.24399999941,
      "d": 64.33816666666826,
      "v": 100
    },
    {
      "midi": 50,
      "hit": false,
      "t": 102132.24399999964,
      "d": 110.29399999999441,
      "v": 84
    },
    {
      "midi": 38,
      "hit": false,
      "t": 102242.5379999994,
      "d": 64.33816666666826,
      "v": 100
    },
    {
      "midi": 62,
      "hit": false,
      "t": 102242.53799999964,
      "d": 110.29399999999441,
      "v": 84
    },
    {
      "midi": 34,
      "hit": false,
      "t": 102324.10960416679,
      "d": 3453.5808750000288,
      "v": 117
    },
    {
      "midi": 34,
      "hit": false,
      "t": 102336.74745833332,
      "d": 3336.3935000000056,
      "v": 121
    },
    {
      "midi": 70,
      "hit": false,
      "t": 102339.04525,
      "d": 85.01829166666721,
      "v": 110
    },
    {
      "midi": 58,
      "hit": false,
      "t": 102339.04525,
      "d": 93.06056250000256,
      "v": 110
    },
    {
      "midi": 62,
      "hit": false,
      "t": 102339.04525000013,
      "d": 220.58800000000338,
      "v": 122
    },
    {
      "midi": 22,
      "hit": false,
      "t": 102352.8319999994,
      "d": 218.29020833333198,
      "v": 100
    },
    {
      "midi": 46,
      "hit": false,
      "t": 102352.83199999963,
      "d": 225.18358333333163,
      "v": 84
    },
    {
      "midi": 70,
      "hit": false,
      "t": 102559.63325,
      "d": 275.7350000000006,
      "v": 110
    },
    {
      "midi": 58,
      "hit": false,
      "t": 102559.63325,
      "d": 291.8195416666713,
      "v": 110
    },
    {
      "midi": 58,
      "hit": false,
      "t": 102559.63325000013,
      "d": 220.58800000000338,
      "v": 122
    },
    {
      "midi": 34,
      "hit": false,
      "t": 102573.4199999994,
      "d": 64.33816666666826,
      "v": 100
    },
    {
      "midi": 58,
      "hit": false,
      "t": 102573.41999999963,
      "d": 110.29399999999441,
      "v": 84
    },
    {
      "midi": 34,
      "hit": false,
      "t": 102683.7139999994,
      "d": 64.33816666666826,
      "v": 100
    },
    {
      "midi": 46,
      "hit": false,
      "t": 102683.71399999963,
      "d": 110.29399999999441,
      "v": 84
    },
    {
      "midi": 62,
      "hit": false,
      "t": 102780.22125000013,
      "d": 240.11922916666663,
      "v": 122
    },
    {
      "midi": 22,
      "hit": false,
      "t": 102794.00799999939,
      "d": 228.63027083333873,
      "v": 100
    },
    {
      "midi": 58,
      "hit": false,
      "t": 102794.00799999962,
      "d": 220.58800000000338,
      "v": 84
    },
    {
      "midi": 70,
      "hit": false,
      "t": 103000.80925,
      "d": 104.54952083333046,
      "v": 110
    },
    {
      "midi": 58,
      "hit": false,
      "t": 103000.80925,
      "d": 125.22964583332941,
      "v": 110
    },
    {
      "midi": 64,
      "hit": false,
      "t": 103000.80925000014,
      "d": 220.58800000000338,
      "v": 122
    },
    {
      "midi": 34,
      "hit": false,
      "t": 103014.5959999994,
      "d": 64.33816666666826,
      "v": 100
    },
    {
      "midi": 46,
      "hit": false,
      "t": 103014.59599999963,
      "d": 110.29399999999441,
      "v": 84
    },
    {
      "midi": 34,
      "hit": false,
      "t": 103124.88999999939,
      "d": 64.33816666666826,
      "v": 100
    },
    {
      "midi": 58,
      "hit": false,
      "t": 103124.88999999962,
      "d": 110.29399999999441,
      "v": 84
    },
    {
      "midi": 70,
      "hit": false,
      "t": 103221.39725,
      "d": 279.18168749999313,
      "v": 110
    },
    {
      "midi": 58,
      "hit": false,
      "t": 103221.39725,
      "d": 299.8618124999921,
      "v": 110
    },
    {
      "midi": 65,
      "hit": false,
      "t": 103221.39725000014,
      "d": 240.11922916666663,
      "v": 122
    },
    {
      "midi": 22,
      "hit": false,
      "t": 103235.18399999938,
      "d": 210.24793749999662,
      "v": 100
    },
    {
      "midi": 46,
      "hit": false,
      "t": 103235.18399999962,
      "d": 225.18358333333163,
      "v": 84
    },
    {
      "midi": 64,
      "hit": false,
      "t": 103441.98525000014,
      "d": 220.58800000000338,
      "v": 122
    },
    {
      "midi": 34,
      "hit": false,
      "t": 103455.77199999939,
      "d": 64.33816666666826,
      "v": 100
    },
    {
      "midi": 58,
      "hit": false,
      "t": 103455.77199999962,
      "d": 110.29399999999441,
      "v": 84
    },
    {
      "midi": 34,
      "hit": false,
      "t": 103566.06599999938,
      "d": 64.33816666666826,
      "v": 100
    },
    {
      "midi": 46,
      "hit": false,
      "t": 103566.06599999961,
      "d": 124.08074999999371,
      "v": 84
    },
    {
      "midi": 70,
      "hit": false,
      "t": 103662.57324999999,
      "d": 91.91166666666686,
      "v": 110
    },
    {
      "midi": 58,
      "hit": false,
      "t": 103662.57324999999,
      "d": 120.63406250000116,
      "v": 110
    },
    {
      "midi": 65,
      "hit": false,
      "t": 103662.57325000015,
      "d": 220.58800000000338,
      "v": 122
    },
    {
      "midi": 22,
      "hit": false,
      "t": 103676.35999999937,
      "d": 210.24793749999662,
      "v": 100
    },
    {
      "midi": 58,
      "hit": false,
      "t": 103676.35999999961,
      "d": 222.88579166667478,
      "v": 84
    },
    {
      "midi": 70,
      "hit": false,
      "t": 103883.16124999999,
      "d": 264.2460416666727,
      "v": 110
    },
    {
      "midi": 58,
      "hit": false,
      "t": 103883.16124999999,
      "d": 273.43720833334373,
      "v": 110
    },
    {
      "midi": 67,
      "hit": false,
      "t": 103883.16125000015,
      "d": 220.58800000000338,
      "v": 122
    },
    {
      "midi": 34,
      "hit": false,
      "t": 103896.94799999938,
      "d": 64.33816666666826,
      "v": 100
    },
    {
      "midi": 46,
      "hit": false,
      "t": 103896.94799999961,
      "d": 110.29400000000896,
      "v": 84
    },
    {
      "midi": 34,
      "hit": false,
      "t": 104007.24199999937,
      "d": 64.33816666666826,
      "v": 100
    },
    {
      "midi": 58,
      "hit": false,
      "t": 104007.24199999962,
      "d": 118.33627083332976,
      "v": 84
    },
    {
      "midi": 65,
      "hit": false,
      "t": 104103.74925000015,
      "d": 257.35266666667303,
      "v": 122
    },
    {
      "midi": 22,
      "hit": false,
      "t": 104117.53599999937,
      "d": 220.58800000000338,
      "v": 100
    },
    {
      "midi": 46,
      "hit": false,
      "t": 104117.53599999961,
      "d": 225.18358333333163,
      "v": 84
    },
    {
      "midi": 58,
      "hit": false,
      "t": 104324.33725,
      "d": 89.61387499999546,
      "v": 110
    },
    {
      "midi": 70,
      "hit": false,
      "t": 104324.33725,
      "d": 107.99620833332301,
      "v": 110
    },
    {
      "midi": 67,
      "hit": false,
      "t": 104324.33725000016,
      "d": 220.58800000000338,
      "v": 122
    },
    {
      "midi": 34,
      "hit": false,
      "t": 104338.12399999937,
      "d": 64.33816666666826,
      "v": 100
    },
    {
      "midi": 58,
      "hit": false,
      "t": 104338.12399999962,
      "d": 110.29399999999441,
      "v": 84
    },
    {
      "midi": 34,
      "hit": false,
      "t": 104448.41799999936,
      "d": 64.33816666666826,
      "v": 100
    },
    {
      "midi": 46,
      "hit": false,
      "t": 104448.41799999961,
      "d": 113.74068750000151,
      "v": 84
    },
    {
      "midi": 70,
      "hit": false,
      "t": 104544.92524999999,
      "d": 264.2460416666727,
      "v": 110
    },
    {
      "midi": 58,
      "hit": false,
      "t": 104544.92524999999,
      "d": 279.1816875000077,
      "v": 110
    },
    {
      "midi": 69,
      "hit": false,
      "t": 104544.92525000016,
      "d": 251.60818750000908,
      "v": 122
    },
    {
      "midi": 22,
      "hit": false,
      "t": 104558.71199999936,
      "d": 207.95014583333977,
      "v": 100
    },
    {
      "midi": 58,
      "hit": false,
      "t": 104558.7119999996,
      "d": 220.58800000000338,
      "v": 84
    },
    {
      "midi": 67,
      "hit": false,
      "t": 104765.51325000016,
      "d": 233.22585416666698,
      "v": 122
    },
    {
      "midi": 34,
      "hit": false,
      "t": 104779.29999999936,
      "d": 64.33816666666826,
      "v": 100
    },
    {
      "midi": 46,
      "hit": false,
      "t": 104779.29999999961,
      "d": 110.29399999999441,
      "v": 84
    },
    {
      "midi": 34,
      "hit": false,
      "t": 104889.59399999936,
      "d": 64.33816666666826,
      "v": 100
    },
    {
      "midi": 58,
      "hit": false,
      "t": 104889.5939999996,
      "d": 110.29399999999441,
      "v": 84
    },
    {
      "midi": 70,
      "hit": false,
      "t": 104986.10124999999,
      "d": 261.9482500000013,
      "v": 110
    },
    {
      "midi": 58,
      "hit": false,
      "t": 104986.10124999999,
      "d": 269.99052083333663,
      "v": 110
    },
    {
      "midi": 65,
      "hit": false,
      "t": 104986.10125000017,
      "d": 446.92047916665615,
      "v": 122
    },
    {
      "midi": 22,
      "hit": false,
      "t": 104999.88799999935,
      "d": 240.11922916666663,
      "v": 100
    },
    {
      "midi": 46,
      "hit": false,
      "t": 104999.8879999996,
      "d": 228.63027083333873,
      "v": 84
    },
    {
      "midi": 34,
      "hit": false,
      "t": 105220.47599999935,
      "d": 64.33816666666826,
      "v": 100
    },
    {
      "midi": 58,
      "hit": false,
      "t": 105220.4759999996,
      "d": 110.29400000000896,
      "v": 84
    },
    {
      "midi": 34,
      "hit": false,
      "t": 105330.76999999935,
      "d": 64.33816666666826,
      "v": 100
    },
    {
      "midi": 46,
      "hit": false,
      "t": 105330.76999999961,
      "d": 125.22964583332941,
      "v": 84
    },
    {
      "midi": 70,
      "hit": false,
      "t": 105427.27725,
      "d": 217.14131249999627,
      "v": 110
    },
    {
      "midi": 58,
      "hit": false,
      "t": 105427.27725,
      "d": 237.82143749999523,
      "v": 110
    },
    {
      "midi": 64,
      "hit": false,
      "t": 105427.27725000016,
      "d": 441.1759999999922,
      "v": 122
    },
    {
      "midi": 22,
      "hit": false,
      "t": 105441.06399999934,
      "d": 188.41891666666197,
      "v": 100
    },
    {
      "midi": 58,
      "hit": false,
      "t": 105441.0639999996,
      "d": 220.58800000000338,
      "v": 84
    },
    {
      "midi": 34,
      "hit": false,
      "t": 105661.65199999933,
      "d": 64.33816666666826,
      "v": 100
    },
    {
      "midi": 46,
      "hit": false,
      "t": 105661.65199999961,
      "d": 110.29399999999441,
      "v": 84
    },
    {
      "midi": 34,
      "hit": false,
      "t": 105771.94599999933,
      "d": 64.33816666666826,
      "v": 100
    },
    {
      "midi": 58,
      "hit": false,
      "t": 105771.9459999996,
      "d": 110.29399999999441,
      "v": 84
    },
    {
      "midi": 26,
      "hit": false,
      "t": 105882.23999999932,
      "d": 230.92806250001013,
      "v": 100
    },
    {
      "midi": 38,
      "hit": false,
      "t": 105882.2399999996,
      "d": 220.58800000000338,
      "v": 84
    },
    {
      "midi": 57,
      "hit": false,
      "t": 105882.23999999999,
      "d": 60.891479166661156,
      "v": 123
    },
    {
      "midi": 57,
      "hit": false,
      "t": 105992.53399999999,
      "d": 71.23154166666791,
      "v": 123
    },
    {
      "midi": 38,
      "hit": false,
      "t": 106102.82799999932,
      "d": 64.33816666666826,
      "v": 100
    },
    {
      "midi": 50,
      "hit": false,
      "t": 106102.8279999996,
      "d": 110.29399999999441,
      "v": 84
    },
    {
      "midi": 57,
      "hit": false,
      "t": 106102.82799999998,
      "d": 67.7848541666608,
      "v": 120
    },
    {
      "midi": 38,
      "hit": false,
      "t": 106213.12199999932,
      "d": 74.67822916666046,
      "v": 100
    },
    {
      "midi": 38,
      "hit": false,
      "t": 106213.1219999996,
      "d": 117.18737499999406,
      "v": 84
    },
    {
      "midi": 57,
      "hit": false,
      "t": 106213.12199999997,
      "d": 76.97602083333186,
      "v": 117
    },
    {
      "midi": 26,
      "hit": false,
      "t": 106323.41599999931,
      "d": 215.99241666666057,
      "v": 100
    },
    {
      "midi": 50,
      "hit": false,
      "t": 106323.41599999959,
      "d": 225.18358333333163,
      "v": 84
    },
    {
      "midi": 57,
      "hit": false,
      "t": 106323.41599999997,
      "d": 103.40062499999476,
      "v": 125
    },
    {
      "midi": 38,
      "hit": false,
      "t": 106544.0039999993,
      "d": 64.33816666666826,
      "v": 100
    },
    {
      "midi": 38,
      "hit": false,
      "t": 106544.0039999996,
      "d": 112.59179166666581,
      "v": 84
    },
    {
      "midi": 57,
      "hit": false,
      "t": 106544.00399999996,
      "d": 94.20945833333826,
      "v": 123
    },
    {
      "midi": 38,
      "hit": false,
      "t": 106654.2979999993,
      "d": 64.33816666666826,
      "v": 100
    },
    {
      "midi": 50,
      "hit": false,
      "t": 106654.29799999959,
      "d": 127.52743750001537,
      "v": 84
    },
    {
      "midi": 26,
      "hit": false,
      "t": 106764.59199999929,
      "d": 222.88579166667478,
      "v": 100
    },
    {
      "midi": 38,
      "hit": false,
      "t": 106764.5919999996,
      "d": 250.45929166667338,
      "v": 84
    },
    {
      "midi": 57,
      "hit": false,
      "t": 106764.59199999996,
      "d": 78.12491666666756,
      "v": 125
    },
    {
      "midi": 38,
      "hit": false,
      "t": 106985.1799999993,
      "d": 64.33816666666826,
      "v": 100
    },
    {
      "midi": 50,
      "hit": false,
      "t": 106985.1799999996,
      "d": 110.29400000000896,
      "v": 84
    },
    {
      "midi": 57,
      "hit": false,
      "t": 106985.17999999996,
      "d": 101.10283333333791,
      "v": 123
    },
    {
      "midi": 38,
      "hit": false,
      "t": 107095.47399999929,
      "d": 64.33816666666826,
      "v": 100
    },
    {
      "midi": 38,
      "hit": false,
      "t": 107095.47399999961,
      "d": 114.88958333332266,
      "v": 84
    },
    {
      "midi": 26,
      "hit": false,
      "t": 107205.76799999928,
      "d": 218.29020833333198,
      "v": 100
    },
    {
      "midi": 50,
      "hit": false,
      "t": 107205.7679999996,
      "d": 234.37474999998813,
      "v": 84
    },
    {
      "midi": 57,
      "hit": false,
      "t": 107205.76799999997,
      "d": 90.76277083333116,
      "v": 125
    },
    {
      "midi": 38,
      "hit": false,
      "t": 107426.35599999929,
      "d": 64.33816666666826,
      "v": 100
    },
    {
      "midi": 38,
      "hit": false,
      "t": 107426.35599999959,
      "d": 110.29399999999441,
      "v": 84
    },
    {
      "midi": 57,
      "hit": false,
      "t": 107426.35599999997,
      "d": 94.20945833333826,
      "v": 126
    },
    {
      "midi": 38,
      "hit": false,
      "t": 107536.64999999928,
      "d": 64.33816666666826,
      "v": 100
    },
    {
      "midi": 50,
      "hit": false,
      "t": 107536.64999999959,
      "d": 120.63406250000116,
      "v": 84
    },
    {
      "midi": 26,
      "hit": false,
      "t": 107646.94399999928,
      "d": 215.99241666666057,
      "v": 100
    },
    {
      "midi": 38,
      "hit": false,
      "t": 107646.94399999958,
      "d": 257.35266666667303,
      "v": 84
    },
    {
      "midi": 57,
      "hit": false,
      "t": 107646.94399999997,
      "d": 156.24983333333512,
      "v": 126
    },
    {
      "midi": 38,
      "hit": false,
      "t": 107867.53199999926,
      "d": 64.33816666666826,
      "v": 100
    },
    {
      "midi": 50,
      "hit": false,
      "t": 107867.53199999958,
      "d": 110.29400000000896,
      "v": 84
    },
    {
      "midi": 38,
      "hit": false,
      "t": 107977.82599999926,
      "d": 64.33816666666826,
      "v": 100
    },
    {
      "midi": 38,
      "hit": false,
      "t": 107977.8259999996,
      "d": 117.18737499999406,
      "v": 84
    },
    {
      "midi": 57,
      "hit": false,
      "t": 107977.82599999997,
      "d": 127.52743750000081,
      "v": 125
    },
    {
      "midi": 26,
      "hit": false,
      "t": 108088.11999999925,
      "d": 224.03468750001048,
      "v": 100
    },
    {
      "midi": 50,
      "hit": false,
      "t": 108088.11999999959,
      "d": 238.97033333333093,
      "v": 84
    },
    {
      "midi": 38,
      "hit": false,
      "t": 108308.70799999926,
      "d": 64.33816666666826,
      "v": 100
    },
    {
      "midi": 38,
      "hit": false,
      "t": 108308.70799999959,
      "d": 110.29399999999441,
      "v": 84
    },
    {
      "midi": 57,
      "hit": false,
      "t": 108308.70799999997,
      "d": 88.46497916665976,
      "v": 123
    },
    {
      "midi": 38,
      "hit": false,
      "t": 108419.00199999925,
      "d": 74.67822916666046,
      "v": 100
    },
    {
      "midi": 50,
      "hit": false,
      "t": 108419.00199999959,
      "d": 116.03847916665836,
      "v": 84
    },
    {
      "midi": 26,
      "hit": false,
      "t": 108529.29599999925,
      "d": 221.73689583333908,
      "v": 100
    },
    {
      "midi": 38,
      "hit": false,
      "t": 108529.29599999958,
      "d": 220.58800000000338,
      "v": 84
    },
    {
      "midi": 57,
      "hit": false,
      "t": 108529.29599999996,
      "d": 102.25172916667361,
      "v": 126
    },
    {
      "midi": 38,
      "hit": false,
      "t": 108749.88399999925,
      "d": 64.33816666666826,
      "v": 100
    },
    {
      "midi": 50,
      "hit": false,
      "t": 108749.88399999958,
      "d": 113.74068750000151,
      "v": 84
    },
    {
      "midi": 60,
      "hit": false,
      "t": 108749.88399999996,
      "d": 111.44289583333011,
      "v": 125
    },
    {
      "midi": 38,
      "hit": false,
      "t": 108860.17799999924,
      "d": 71.23154166666791,
      "v": 100
    },
    {
      "midi": 38,
      "hit": false,
      "t": 108860.17799999958,
      "d": 110.29400000000896,
      "v": 84
    },
    {
      "midi": 26,
      "hit": false,
      "t": 108970.47199999924,
      "d": 196.46118749999732,
      "v": 100
    },
    {
      "midi": 50,
      "hit": false,
      "t": 108970.47199999959,
      "d": 220.58800000000338,
      "v": 84
    },
    {
      "midi": 57,
      "hit": false,
      "t": 108970.47199999997,
      "d": 219.43910416666768,
      "v": 125
    },
    {
      "midi": 38,
      "hit": false,
      "t": 109191.05999999924,
      "d": 64.33816666666826,
      "v": 100
    },
    {
      "midi": 38,
      "hit": false,
      "t": 109191.05999999959,
      "d": 110.29399999999441,
      "v": 84
    },
    {
      "midi": 38,
      "hit": false,
      "t": 109301.35399999924,
      "d": 64.33816666666826,
      "v": 100
    },
    {
      "midi": 50,
      "hit": false,
      "t": 109301.35399999958,
      "d": 110.29399999999441,
      "v": 84
    },
    {
      "midi": 21,
      "hit": false,
      "t": 109411.64799999923,
      "d": 235.52364583333838,
      "v": 100
    },
    {
      "midi": 33,
      "hit": false,
      "t": 109411.64799999958,
      "d": 247.01260416666628,
      "v": 84
    },
    {
      "midi": 57,
      "hit": false,
      "t": 109411.64799999997,
      "d": 219.43910416666768,
      "v": 123
    },
    {
      "midi": 33,
      "hit": false,
      "t": 109632.23599999923,
      "d": 64.33816666666826,
      "v": 100
    },
    {
      "midi": 45,
      "hit": false,
      "t": 109632.23599999958,
      "d": 110.29399999999441,
      "v": 84
    },
    {
      "midi": 33,
      "hit": false,
      "t": 109742.52999999923,
      "d": 64.33816666666826,
      "v": 100
    },
    {
      "midi": 33,
      "hit": false,
      "t": 109742.52999999958,
      "d": 113.74068750000151,
      "v": 84
    },
    {
      "midi": 57,
      "hit": false,
      "t": 109742.52999999997,
      "d": 66.63595833333966,
      "v": 123
    },
    {
      "midi": 21,
      "hit": false,
      "t": 109852.82399999922,
      "d": 247.01260416666628,
      "v": 100
    },
    {
      "midi": 45,
      "hit": false,
      "t": 109852.82399999957,
      "d": 220.58800000000338,
      "v": 84
    },
    {
      "midi": 57,
      "hit": false,
      "t": 109852.82399999998,
      "d": 66.63595833333966,
      "v": 120
    },
    {
      "midi": 57,
      "hit": false,
      "t": 109963.11799999999,
      "d": 71.23154166666791,
      "v": 75
    },
    {
      "midi": 33,
      "hit": false,
      "t": 110073.41199999923,
      "d": 64.33816666666826,
      "v": 100
    },
    {
      "midi": 33,
      "hit": false,
      "t": 110073.41199999957,
      "d": 110.29399999999441,
      "v": 84
    },
    {
      "midi": 57,
      "hit": false,
      "t": 110073.41199999998,
      "d": 109.14510416667326,
      "v": 125
    },
    {
      "midi": 33,
      "hit": false,
      "t": 110183.70599999922,
      "d": 64.33816666666826,
      "v": 100
    },
    {
      "midi": 45,
      "hit": false,
      "t": 110183.70599999957,
      "d": 110.29399999999441,
      "v": 84
    },
    {
      "midi": 21,
      "hit": false,
      "t": 110293.99999999921,
      "d": 213.69462500000373,
      "v": 100
    },
    {
      "midi": 33,
      "hit": false,
      "t": 110293.99999999956,
      "d": 238.97033333333093,
      "v": 84
    },
    {
      "midi": 57,
      "hit": false,
      "t": 110293.99999999999,
      "d": 86.16718750000291,
      "v": 126
    },
    {
      "midi": 33,
      "hit": false,
      "t": 110514.58799999922,
      "d": 64.33816666666826,
      "v": 100
    },
    {
      "midi": 45,
      "hit": false,
      "t": 110514.58799999957,
      "d": 110.29399999999441,
      "v": 84
    },
    {
      "midi": 57,
      "hit": false,
      "t": 110514.58799999999,
      "d": 88.46497916665976,
      "v": 123
    },
    {
      "midi": 33,
      "hit": false,
      "t": 110624.88199999921,
      "d": 64.33816666666826,
      "v": 100
    },
    {
      "midi": 33,
      "hit": false,
      "t": 110624.88199999956,
      "d": 112.59179166666581,
      "v": 84
    },
    {
      "midi": 21,
      "hit": false,
      "t": 110735.1759999992,
      "d": 240.11922916666663,
      "v": 100
    },
    {
      "midi": 45,
      "hit": false,
      "t": 110735.17599999956,
      "d": 220.58800000000338,
      "v": 84
    },
    {
      "midi": 57,
      "hit": false,
      "t": 110735.17599999998,
      "d": 89.61387499999546,
      "v": 120
    },
    {
      "midi": 33,
      "hit": false,
      "t": 110955.76399999921,
      "d": 64.33816666666826,
      "v": 100
    },
    {
      "midi": 33,
      "hit": false,
      "t": 110955.76399999956,
      "d": 110.29399999999441,
      "v": 84
    },
    {
      "midi": 57,
      "hit": false,
      "t": 110955.76399999997,
      "d": 88.46497916665976,
      "v": 120
    },
    {
      "midi": 33,
      "hit": false,
      "t": 111066.0579999992,
      "d": 66.63595833333966,
      "v": 100
    },
    {
      "midi": 45,
      "hit": false,
      "t": 111066.05799999955,
      "d": 117.18737499999406,
      "v": 84
    },
    {
      "midi": 22,
      "hit": false,
      "t": 111176.35199999921,
      "d": 221.73689583333908,
      "v": 100
    },
    {
      "midi": 34,
      "hit": false,
      "t": 111176.35199999955,
      "d": 225.18358333333163,
      "v": 84
    },
    {
      "midi": 55,
      "hit": false,
      "t": 111176.35199999996,
      "d": 184.97222916666942,
      "v": 123
    },
    {
      "midi": 34,
      "hit": false,
      "t": 111396.93999999922,
      "d": 64.33816666666826,
      "v": 100
    },
    {
      "midi": 46,
      "hit": false,
      "t": 111396.93999999955,
      "d": 110.29399999999441,
      "v": 84
    },
    {
      "midi": 34,
      "hit": false,
      "t": 111507.23399999921,
      "d": 64.33816666666826,
      "v": 100
    },
    {
      "midi": 34,
      "hit": false,
      "t": 111507.23399999955,
      "d": 127.52743750000081,
      "v": 84
    },
    {
      "midi": 55,
      "hit": false,
      "t": 111507.23399999995,
      "d": 144.76087500000722,
      "v": 123
    },
    {
      "midi": 22,
      "hit": false,
      "t": 111617.5279999992,
      "d": 234.37475000000268,
      "v": 100
    },
    {
      "midi": 46,
      "hit": false,
      "t": 111617.52799999954,
      "d": 220.58800000000338,
      "v": 84
    },
    {
      "midi": 34,
      "hit": false,
      "t": 111838.11599999921,
      "d": 64.33816666666826,
      "v": 100
    },
    {
      "midi": 34,
      "hit": false,
      "t": 111838.11599999954,
      "d": 110.29399999999441,
      "v": 84
    },
    {
      "midi": 53,
      "hit": false,
      "t": 111838.11599999997,
      "d": 127.52743750000081,
      "v": 123
    },
    {
      "midi": 34,
      "hit": false,
      "t": 111948.4099999992,
      "d": 64.33816666666826,
      "v": 100
    },
    {
      "midi": 46,
      "hit": false,
      "t": 111948.40999999954,
      "d": 110.29399999999441,
      "v": 84
    },
    {
      "midi": 22,
      "hit": false,
      "t": 112058.7039999992,
      "d": 211.39683333333232,
      "v": 100
    },
    {
      "midi": 34,
      "hit": false,
      "t": 112058.70399999953,
      "d": 227.48137500000303,
      "v": 84
    },
    {
      "midi": 53,
      "hit": false,
      "t": 112058.70399999997,
      "d": 345.8176458333328,
      "v": 120
    },
    {
      "midi": 34,
      "hit": false,
      "t": 112279.2919999992,
      "d": 64.33816666666826,
      "v": 100
    },
    {
      "midi": 46,
      "hit": false,
      "t": 112279.29199999954,
      "d": 114.88958333332266,
      "v": 84
    },
    {
      "midi": 34,
      "hit": false,
      "t": 112389.5859999992,
      "d": 64.33816666666826,
      "v": 100
    },
    {
      "midi": 34,
      "hit": false,
      "t": 112389.58599999953,
      "d": 117.18737499999406,
      "v": 84
    },
    {
      "midi": 22,
      "hit": false,
      "t": 112499.87999999919,
      "d": 230.92806250001013,
      "v": 100
    },
    {
      "midi": 46,
      "hit": false,
      "t": 112499.87999999952,
      "d": 220.58800000000338,
      "v": 84
    },
    {
      "midi": 53,
      "hit": false,
      "t": 112499.87999999996,
      "d": 243.56591666670283,
      "v": 120
    },
    {
      "midi": 34,
      "hit": false,
      "t": 112720.4679999992,
      "d": 64.33816666666826,
      "v": 100
    },
    {
      "midi": 34,
      "hit": false,
      "t": 112720.46799999953,
      "d": 110.29399999999441,
      "v": 84
    },
    {
      "midi": 34,
      "hit": false,
      "t": 112830.76199999919,
      "d": 64.33816666666826,
      "v": 100
    },
    {
      "midi": 46,
      "hit": false,
      "t": 112830.76199999952,
      "d": 110.29399999999441,
      "v": 84
    },
    {
      "midi": 26,
      "hit": false,
      "t": 112941.05599999918,
      "d": 230.92806250001013,
      "v": 100
    },
    {
      "midi": 38,
      "hit": false,
      "t": 112941.05599999952,
      "d": 220.58800000000338,
      "v": 84
    },
    {
      "midi": 57,
      "hit": false,
      "t": 112941.05600000006,
      "d": 64.33816666668281,
      "v": 125
    },
    {
      "midi": 57,
      "hit": false,
      "t": 113051.35000000006,
      "d": 75.82712499999616,
      "v": 123
    },
    {
      "midi": 38,
      "hit": false,
      "t": 113161.64399999919,
      "d": 64.33816666666826,
      "v": 100
    },
    {
      "midi": 50,
      "hit": false,
      "t": 113161.64399999952,
      "d": 110.29399999999441,
      "v": 84
    },
    {
      "midi": 57,
      "hit": false,
      "t": 113161.64400000006,
      "d": 60.891479166661156,
      "v": 123
    },
    {
      "midi": 38,
      "hit": false,
      "t": 113271.93799999918,
      "d": 74.67822916666046,
      "v": 100
    },
    {
      "midi": 38,
      "hit": false,
      "t": 113271.93799999951,
      "d": 117.18737499999406,
      "v": 84
    },
    {
      "midi": 57,
      "hit": false,
      "t": 113271.93800000005,
      "d": 75.82712499999616,
      "v": 123
    },
    {
      "midi": 26,
      "hit": false,
      "t": 113382.23199999917,
      "d": 215.99241666666057,
      "v": 100
    },
    {
      "midi": 50,
      "hit": false,
      "t": 113382.23199999951,
      "d": 225.18358333333163,
      "v": 84
    },
    {
      "midi": 57,
      "hit": false,
      "t": 113382.23200000005,
      "d": 82.72049999999581,
      "v": 125
    },
    {
      "midi": 38,
      "hit": false,
      "t": 113602.81999999916,
      "d": 64.33816666666826,
      "v": 100
    },
    {
      "midi": 38,
      "hit": false,
      "t": 113602.81999999951,
      "d": 112.59179166666581,
      "v": 84
    },
    {
      "midi": 57,
      "hit": false,
      "t": 113602.82000000004,
      "d": 96.50724999999511,
      "v": 125
    },
    {
      "midi": 38,
      "hit": false,
      "t": 113713.11399999916,
      "d": 64.33816666666826,
      "v": 100
    },
    {
      "midi": 50,
      "hit": false,
      "t": 113713.1139999995,
      "d": 127.52743750001537,
      "v": 84
    },
    {
      "midi": 26,
      "hit": false,
      "t": 113823.40799999915,
      "d": 222.88579166667478,
      "v": 100
    },
    {
      "midi": 38,
      "hit": false,
      "t": 113823.40799999952,
      "d": 250.45929166667338,
      "v": 84
    },
    {
      "midi": 57,
      "hit": false,
      "t": 113823.40800000002,
      "d": 76.97602083333186,
      "v": 125
    },
    {
      "midi": 38,
      "hit": false,
      "t": 114043.99599999916,
      "d": 64.33816666666826,
      "v": 100
    },
    {
      "midi": 50,
      "hit": false,
      "t": 114043.99599999952,
      "d": 110.29400000000896,
      "v": 84
    },
    {
      "midi": 57,
      "hit": false,
      "t": 114043.99600000003,
      "d": 82.72049999999581,
      "v": 123
    },
    {
      "midi": 38,
      "hit": false,
      "t": 114154.28999999915,
      "d": 64.33816666666826,
      "v": 100
    },
    {
      "midi": 38,
      "hit": false,
      "t": 114154.28999999953,
      "d": 114.88958333332266,
      "v": 84
    },
    {
      "midi": 26,
      "hit": false,
      "t": 114264.58399999914,
      "d": 218.29020833333198,
      "v": 100
    },
    {
      "midi": 50,
      "hit": false,
      "t": 114264.58399999952,
      "d": 234.37474999998813,
      "v": 84
    },
    {
      "midi": 57,
      "hit": false,
      "t": 114264.58400000002,
      "d": 62.04037499999686,
      "v": 123
    },
    {
      "midi": 57,
      "hit": false,
      "t": 114374.87800000001,
      "d": 78.12491666666756,
      "v": 125
    },
    {
      "midi": 38,
      "hit": false,
      "t": 114485.17199999915,
      "d": 64.33816666666826,
      "v": 100
    },
    {
      "midi": 38,
      "hit": false,
      "t": 114485.17199999951,
      "d": 110.29399999999441,
      "v": 84
    },
    {
      "midi": 57,
      "hit": false,
      "t": 114485.172,
      "d": 70.08264583333221,
      "v": 127
    },
    {
      "midi": 38,
      "hit": false,
      "t": 114595.46599999914,
      "d": 64.33816666666826,
      "v": 100
    },
    {
      "midi": 50,
      "hit": false,
      "t": 114595.4659999995,
      "d": 120.63406250000116,
      "v": 84
    },
    {
      "midi": 26,
      "hit": false,
      "t": 114705.75999999914,
      "d": 215.99241666666057,
      "v": 100
    },
    {
      "midi": 38,
      "hit": false,
      "t": 114705.7599999995,
      "d": 257.35266666667303,
      "v": 84
    },
    {
      "midi": 57,
      "hit": false,
      "t": 114705.76000000001,
      "d": 106.84731250000186,
      "v": 125
    },
    {
      "midi": 38,
      "hit": false,
      "t": 114926.34799999913,
      "d": 64.33816666666826,
      "v": 100
    },
    {
      "midi": 50,
      "hit": false,
      "t": 114926.3479999995,
      "d": 110.29400000000896,
      "v": 84
    },
    {
      "midi": 38,
      "hit": false,
      "t": 115036.64199999912,
      "d": 64.33816666666826,
      "v": 100
    },
    {
      "midi": 38,
      "hit": false,
      "t": 115036.64199999951,
      "d": 117.18737499999406,
      "v": 84
    },
    {
      "midi": 57,
      "hit": false,
      "t": 115036.642,
      "d": 101.10283333333791,
      "v": 125
    },
    {
      "midi": 26,
      "hit": false,
      "t": 115146.93599999911,
      "d": 224.03468750001048,
      "v": 100
    },
    {
      "midi": 50,
      "hit": false,
      "t": 115146.9359999995,
      "d": 238.97033333333093,
      "v": 84
    },
    {
      "midi": 38,
      "hit": false,
      "t": 115367.52399999912,
      "d": 64.33816666666826,
      "v": 100
    },
    {
      "midi": 38,
      "hit": false,
      "t": 115367.52399999951,
      "d": 110.29399999999441,
      "v": 84
    },
    {
      "midi": 57,
      "hit": false,
      "t": 115367.524,
      "d": 82.72049999999581,
      "v": 123
    },
    {
      "midi": 38,
      "hit": false,
      "t": 115477.81799999911,
      "d": 74.67822916666046,
      "v": 100
    },
    {
      "midi": 50,
      "hit": false,
      "t": 115477.8179999995,
      "d": 116.03847916665836,
      "v": 84
    },
    {
      "midi": 26,
      "hit": false,
      "t": 115588.1119999991,
      "d": 221.73689583333908,
      "v": 100
    },
    {
      "midi": 38,
      "hit": false,
      "t": 115588.1119999995,
      "d": 220.58800000000338,
      "v": 84
    },
    {
      "midi": 57,
      "hit": false,
      "t": 115588.112,
      "d": 87.31608333333861,
      "v": 123
    },
    {
      "midi": 38,
      "hit": false,
      "t": 115808.69999999911,
      "d": 64.33816666666826,
      "v": 100
    },
    {
      "midi": 50,
      "hit": false,
      "t": 115808.6999999995,
      "d": 113.74068750000151,
      "v": 84
    },
    {
      "midi": 60,
      "hit": false,
      "t": 115808.7,
      "d": 87.31608333333861,
      "v": 123
    },
    {
      "midi": 38,
      "hit": false,
      "t": 115918.9939999991,
      "d": 71.23154166666791,
      "v": 100
    },
    {
      "midi": 38,
      "hit": false,
      "t": 115918.9939999995,
      "d": 110.29400000000896,
      "v": 84
    },
    {
      "midi": 26,
      "hit": false,
      "t": 116029.2879999991,
      "d": 196.46118749999732,
      "v": 100
    },
    {
      "midi": 50,
      "hit": false,
      "t": 116029.2879999995,
      "d": 220.58800000000338,
      "v": 84
    },
    {
      "midi": 57,
      "hit": false,
      "t": 116029.288,
      "d": 238.97033333333093,
      "v": 120
    },
    {
      "midi": 38,
      "hit": false,
      "t": 116249.8759999991,
      "d": 64.33816666666826,
      "v": 100
    },
    {
      "midi": 38,
      "hit": false,
      "t": 116249.87599999951,
      "d": 110.29399999999441,
      "v": 84
    },
    {
      "midi": 38,
      "hit": false,
      "t": 116360.1699999991,
      "d": 64.33816666666826,
      "v": 100
    },
    {
      "midi": 50,
      "hit": false,
      "t": 116360.1699999995,
      "d": 110.29399999999441,
      "v": 84
    },
    {
      "midi": 21,
      "hit": false,
      "t": 116470.46399999909,
      "d": 235.52364583333838,
      "v": 100
    },
    {
      "midi": 33,
      "hit": false,
      "t": 116470.4639999995,
      "d": 247.01260416666628,
      "v": 84
    },
    {
      "midi": 57,
      "hit": false,
      "t": 116470.46399999999,
      "d": 65.48706250000396,
      "v": 123
    },
    {
      "midi": 33,
      "hit": false,
      "t": 116691.0519999991,
      "d": 64.33816666666826,
      "v": 100
    },
    {
      "midi": 45,
      "hit": false,
      "t": 116691.0519999995,
      "d": 110.29399999999441,
      "v": 84
    },
    {
      "midi": 57,
      "hit": false,
      "t": 116691.052,
      "d": 57.44479166666861,
      "v": 110
    },
    {
      "midi": 33,
      "hit": false,
      "t": 116801.34599999909,
      "d": 64.33816666666826,
      "v": 100
    },
    {
      "midi": 33,
      "hit": false,
      "t": 116801.3459999995,
      "d": 113.74068750000151,
      "v": 84
    },
    {
      "midi": 57,
      "hit": false,
      "t": 116801.346,
      "d": 74.67822916666046,
      "v": 125
    },
    {
      "midi": 21,
      "hit": false,
      "t": 116911.63999999908,
      "d": 247.01260416666628,
      "v": 100
    },
    {
      "midi": 45,
      "hit": false,
      "t": 116911.63999999949,
      "d": 220.58800000000338,
      "v": 84
    },
    {
      "midi": 57,
      "hit": false,
      "t": 116911.64,
      "d": 73.52933333333931,
      "v": 125
    },
    {
      "midi": 33,
      "hit": false,
      "t": 117132.22799999909,
      "d": 64.33816666666826,
      "v": 100
    },
    {
      "midi": 33,
      "hit": false,
      "t": 117132.2279999995,
      "d": 110.29399999999441,
      "v": 84
    },
    {
      "midi": 57,
      "hit": false,
      "t": 117132.228,
      "d": 85.01829166666721,
      "v": 125
    },
    {
      "midi": 33,
      "hit": false,
      "t": 117242.52199999908,
      "d": 64.33816666666826,
      "v": 100
    },
    {
      "midi": 45,
      "hit": false,
      "t": 117242.52199999949,
      "d": 110.29399999999441,
      "v": 84
    },
    {
      "midi": 21,
      "hit": false,
      "t": 117352.81599999907,
      "d": 213.69462500000373,
      "v": 100
    },
    {
      "midi": 33,
      "hit": false,
      "t": 117352.81599999948,
      "d": 238.97033333333093,
      "v": 84
    },
    {
      "midi": 57,
      "hit": false,
      "t": 117352.816,
      "d": 86.16718750000291,
      "v": 120
    },
    {
      "midi": 33,
      "hit": false,
      "t": 117573.40399999908,
      "d": 64.33816666666826,
      "v": 100
    },
    {
      "midi": 45,
      "hit": false,
      "t": 117573.40399999949,
      "d": 110.29399999999441,
      "v": 84
    },
    {
      "midi": 57,
      "hit": false,
      "t": 117573.40400000001,
      "d": 88.46497916665976,
      "v": 120
    },
    {
      "midi": 33,
      "hit": false,
      "t": 117683.69799999907,
      "d": 64.33816666666826,
      "v": 100
    },
    {
      "midi": 33,
      "hit": false,
      "t": 117683.69799999948,
      "d": 112.59179166666581,
      "v": 84
    },
    {
      "midi": 21,
      "hit": false,
      "t": 117793.99199999907,
      "d": 240.11922916666663,
      "v": 100
    },
    {
      "midi": 45,
      "hit": false,
      "t": 117793.99199999947,
      "d": 220.58800000000338,
      "v": 84
    },
    {
      "midi": 57,
      "hit": false,
      "t": 117793.992,
      "d": 87.31608333333861,
      "v": 123
    },
    {
      "midi": 33,
      "hit": false,
      "t": 118014.57999999907,
      "d": 64.33816666666826,
      "v": 100
    },
    {
      "midi": 33,
      "hit": false,
      "t": 118014.57999999948,
      "d": 110.29399999999441,
      "v": 84
    },
    {
      "midi": 57,
      "hit": false,
      "t": 118014.58,
      "d": 89.61387499999546,
      "v": 120
    },
    {
      "midi": 33,
      "hit": false,
      "t": 118124.87399999906,
      "d": 66.63595833333966,
      "v": 100
    },
    {
      "midi": 45,
      "hit": false,
      "t": 118124.87399999947,
      "d": 117.18737499999406,
      "v": 84
    },
    {
      "midi": 57,
      "hit": false,
      "t": 118235.16799999999,
      "d": 367.64666666666744,
      "v": 127
    },
    {
      "midi": 79,
      "hit": false,
      "t": 118235.16800000009,
      "d": 1432.6731041666644,
      "v": 92
    },
    {
      "midi": 80,
      "hit": false,
      "t": 118235.16800000009,
      "d": 1433.8220000000001,
      "v": 92
    },
    {
      "midi": 37,
      "hit": false,
      "t": 118345.46200000009,
      "d": 1819.8510000000097,
      "v": 90
    },
    {
      "midi": 81,
      "hit": false,
      "t": 118887.74083333333,
      "d": 37.913562500005355,
      "v": 112
    },
    {
      "midi": 83,
      "hit": false,
      "t": 118895.78310416666,
      "d": 37.913562500005355,
      "v": 95
    },
    {
      "midi": 66,
      "hit": false,
      "t": 118896.932,
      "d": 1007.5816458333866,
      "v": 89
    },
    {
      "midi": 79,
      "hit": false,
      "t": 118903.825375,
      "d": 37.913562500005355,
      "v": 112
    },
    {
      "midi": 76,
      "hit": false,
      "t": 118915.31433333333,
      "d": 37.91356250001991,
      "v": 111
    },
    {
      "midi": 77,
      "hit": false,
      "t": 118915.31433333333,
      "d": 37.91356250001991,
      "v": 111
    },
    {
      "midi": 74,
      "hit": false,
      "t": 118945.18562500001,
      "d": 37.913562500005355,
      "v": 108
    },
    {
      "midi": 72,
      "hit": false,
      "t": 118963.56795833335,
      "d": 37.913562500005355,
      "v": 106
    },
    {
      "midi": 71,
      "hit": false,
      "t": 118984.24808333335,
      "d": 37.913562500005355,
      "v": 104
    },
    {
      "midi": 69,
      "hit": false,
      "t": 119003.77931250003,
      "d": 37.9135624999908,
      "v": 102
    },
    {
      "midi": 67,
      "hit": false,
      "t": 119027.90612500002,
      "d": 37.913562500005355,
      "v": 99
    },
    {
      "midi": 65,
      "hit": false,
      "t": 119052.03293750003,
      "d": 37.913562500005355,
      "v": 97
    },
    {
      "midi": 64,
      "hit": false,
      "t": 119076.15975000004,
      "d": 37.913562500005355,
      "v": 94
    },
    {
      "midi": 62,
      "hit": false,
      "t": 119104.88214583337,
      "d": 37.913562500005355,
      "v": 91
    },
    {
      "midi": 60,
      "hit": false,
      "t": 119135.90233333338,
      "d": 37.913562500005355,
      "v": 88
    },
    {
      "midi": 59,
      "hit": false,
      "t": 119165.77362500005,
      "d": 37.9135624999908,
      "v": 85
    },
    {
      "midi": 57,
      "hit": false,
      "t": 119199.09160416671,
      "d": 37.9135624999908,
      "v": 81
    },
    {
      "midi": 55,
      "hit": false,
      "t": 119235.85627083336,
      "d": 37.913562500005355,
      "v": 78
    },
    {
      "midi": 53,
      "hit": false,
      "t": 119271.4720416667,
      "d": 37.913562500005355,
      "v": 74
    },
    {
      "midi": 52,
      "hit": false,
      "t": 119307.08781250003,
      "d": 37.913562500005355,
      "v": 70
    },
    {
      "midi": 64,
      "hit": false,
      "t": 119338.108,
      "d": 75.82712499999616,
      "v": 125
    },
    {
      "midi": 50,
      "hit": false,
      "t": 119341.55468750003,
      "d": 37.913562500005355,
      "v": 67
    },
    {
      "midi": 48,
      "hit": false,
      "t": 119371.4259791667,
      "d": 37.913562500005355,
      "v": 64
    },
    {
      "midi": 47,
      "hit": false,
      "t": 119401.29727083337,
      "d": 37.913562500005355,
      "v": 61
    },
    {
      "midi": 45,
      "hit": false,
      "t": 119431.16856250004,
      "d": 37.913562500005355,
      "v": 58
    },
    {
      "midi": 43,
      "hit": false,
      "t": 119459.89095833337,
      "d": 37.913562500005355,
      "v": 55
    },
    {
      "midi": 41,
      "hit": false,
      "t": 119489.76225000004,
      "d": 37.9135624999908,
      "v": 52
    },
    {
      "midi": 40,
      "hit": false,
      "t": 119523.0802291667,
      "d": 37.9135624999908,
      "v": 48
    },
    {
      "midi": 64,
      "hit": false,
      "t": 119558.696,
      "d": 67.7848541666608,
      "v": 123
    },
    {
      "midi": 38,
      "hit": false,
      "t": 119559.84489583336,
      "d": 37.913562500005355,
      "v": 44
    },
    {
      "midi": 36,
      "hit": false,
      "t": 119597.75845833337,
      "d": 37.913562500005355,
      "v": 40
    },
    {
      "midi": 35,
      "hit": false,
      "t": 119634.52312500004,
      "d": 37.913562500005355,
      "v": 37
    },
    {
      "midi": 33,
      "hit": false,
      "t": 119670.13889583337,
      "d": 37.913562500005355,
      "v": 33
    },
    {
      "midi": 31,
      "hit": false,
      "t": 119709.20135416671,
      "d": 37.913562500005355,
      "v": 29
    },
    {
      "midi": 29,
      "hit": false,
      "t": 119744.81712500005,
      "d": 37.913562500005355,
      "v": 25
    },
    {
      "midi": 64,
      "hit": false,
      "t": 119779.28399999999,
      "d": 261.9482500000013,
      "v": 123
    },
    {
      "midi": 28,
      "hit": false,
      "t": 119788.47516666671,
      "d": 37.913562500005355,
      "v": 21
    },
    {
      "midi": 26,
      "hit": false,
      "t": 119837.87768750005,
      "d": 37.913562500005355,
      "v": 16
    },
    {
      "midi": 24,
      "hit": false,
      "t": 119883.83352083339,
      "d": 37.913562500005355,
      "v": 11
    },
    {
      "midi": 38,
      "hit": false,
      "t": 119999.87199999907,
      "d": 227.48137500000303,
      "v": 100
    },
    {
      "midi": 38,
      "hit": false,
      "t": 119999.87199999946,
      "d": 220.58800000000338,
      "v": 84
    },
    {
      "midi": 57,
      "hit": false,
      "t": 119999.872,
      "d": 1764.7040000000125,
      "v": 75
    },
    {
      "midi": 62,
      "hit": false,
      "t": 119999.872,
      "d": 1764.7040000000125,
      "v": 75
    },
    {
      "midi": 65,
      "hit": false,
      "t": 119999.872,
      "d": 1764.7040000000125,
      "v": 75
    },
    {
      "midi": 62,
      "hit": false,
      "t": 119999.872,
      "d": 1764.703999999998,
      "v": 74
    },
    {
      "midi": 65,
      "hit": false,
      "t": 119999.872,
      "d": 1764.703999999998,
      "v": 74
    },
    {
      "midi": 69,
      "hit": false,
      "t": 119999.872,
      "d": 1764.703999999998,
      "v": 74
    },
    {
      "midi": 81,
      "hit": false,
      "t": 120023.99881250001,
      "d": 13996.997937500011,
      "v": 82
    },
    {
      "midi": 93,
      "hit": false,
      "t": 120032.04108333334,
      "d": 13984.360083333333,
      "v": 82
    },
    {
      "midi": 50,
      "hit": false,
      "t": 120220.45999999908,
      "d": 64.33816666666826,
      "v": 100
    },
    {
      "midi": 50,
      "hit": false,
      "t": 120220.45999999947,
      "d": 110.29399999999441,
      "v": 84
    },
    {
      "midi": 62,
      "hit": false,
      "t": 120220.45999999999,
      "d": 64.33816666666826,
      "v": 120
    },
    {
      "midi": 50,
      "hit": false,
      "t": 120330.75399999907,
      "d": 102.25172916667361,
      "v": 100
    },
    {
      "midi": 38,
      "hit": false,
      "t": 120330.75399999946,
      "d": 119.48516666666546,
      "v": 84
    },
    {
      "midi": 38,
      "hit": false,
      "t": 120441.04799999908,
      "d": 245.86370833333058,
      "v": 100
    },
    {
      "midi": 50,
      "hit": false,
      "t": 120441.04799999946,
      "d": 220.58800000000338,
      "v": 84
    },
    {
      "midi": 62,
      "hit": false,
      "t": 120441.048,
      "d": 581.3412916666712,
      "v": 120
    },
    {
      "midi": 50,
      "hit": false,
      "t": 120661.63599999908,
      "d": 64.3381666666537,
      "v": 100
    },
    {
      "midi": 38,
      "hit": false,
      "t": 120661.63599999946,
      "d": 110.29399999999441,
      "v": 84
    },
    {
      "midi": 50,
      "hit": false,
      "t": 120771.92999999906,
      "d": 91.91166666666686,
      "v": 100
    },
    {
      "midi": 50,
      "hit": false,
      "t": 120771.92999999945,
      "d": 120.63406250000116,
      "v": 84
    },
    {
      "midi": 38,
      "hit": false,
      "t": 120882.22399999906,
      "d": 266.54383333332953,
      "v": 100
    },
    {
      "midi": 38,
      "hit": false,
      "t": 120882.22399999945,
      "d": 220.58800000000338,
      "v": 84
    },
    {
      "midi": 50,
      "hit": false,
      "t": 121102.81199999906,
      "d": 64.3381666666537,
      "v": 100
    },
    {
      "midi": 50,
      "hit": false,
      "t": 121102.81199999945,
      "d": 110.29399999999441,
      "v": 84
    },
    {
      "midi": 64,
      "hit": false,
      "t": 121102.812,
      "d": 72.38043750000361,
      "v": 120
    },
    {
      "midi": 50,
      "hit": false,
      "t": 121213.10599999904,
      "d": 94.20945833333826,
      "v": 100
    },
    {
      "midi": 38,
      "hit": false,
      "t": 121213.10599999945,
      "d": 121.78295833332231,
      "v": 84
    },
    {
      "midi": 38,
      "hit": false,
      "t": 121323.39999999905,
      "d": 206.80125000000407,
      "v": 100
    },
    {
      "midi": 50,
      "hit": false,
      "t": 121323.39999999944,
      "d": 220.58799999998882,
      "v": 84
    },
    {
      "midi": 64,
      "hit": false,
      "t": 121323.40000000001,
      "d": 75.82712499999616,
      "v": 120
    },
    {
      "midi": 50,
      "hit": false,
      "t": 121543.98799999905,
      "d": 64.33816666666826,
      "v": 100
    },
    {
      "midi": 38,
      "hit": false,
      "t": 121543.98799999943,
      "d": 110.29399999999441,
      "v": 84
    },
    {
      "midi": 64,
      "hit": false,
      "t": 121543.98800000001,
      "d": 295.26622916666383,
      "v": 120
    },
    {
      "midi": 50,
      "hit": false,
      "t": 121654.28199999905,
      "d": 64.33816666666826,
      "v": 100
    },
    {
      "midi": 50,
      "hit": false,
      "t": 121654.28199999942,
      "d": 117.18737499999406,
      "v": 84
    },
    {
      "midi": 34,
      "hit": false,
      "t": 121764.57599999904,
      "d": 209.09904166666092,
      "v": 100
    },
    {
      "midi": 34,
      "hit": false,
      "t": 121764.57599999942,
      "d": 220.58800000000338,
      "v": 84
    },
    {
      "midi": 58,
      "hit": false,
      "t": 121764.576,
      "d": 1764.703999999998,
      "v": 74
    },
    {
      "midi": 62,
      "hit": false,
      "t": 121764.576,
      "d": 1764.703999999998,
      "v": 74
    },
    {
      "midi": 65,
      "hit": false,
      "t": 121764.576,
      "d": 1764.703999999998,
      "v": 74
    },
    {
      "midi": 58,
      "hit": false,
      "t": 121764.57600000002,
      "d": 1764.703999999998,
      "v": 75
    },
    {
      "midi": 62,
      "hit": false,
      "t": 121764.57600000002,
      "d": 1764.703999999998,
      "v": 75
    },
    {
      "midi": 65,
      "hit": false,
      "t": 121764.57600000002,
      "d": 1764.703999999998,
      "v": 75
    },
    {
      "midi": 46,
      "hit": false,
      "t": 121985.16399999903,
      "d": 64.33816666666826,
      "v": 100
    },
    {
      "midi": 46,
      "hit": false,
      "t": 121985.16399999942,
      "d": 110.29399999999441,
      "v": 84
    },
    {
      "midi": 65,
      "hit": false,
      "t": 121985.164,
      "d": 266.54383333332953,
      "v": 120
    },
    {
      "midi": 46,
      "hit": false,
      "t": 122095.45799999902,
      "d": 64.33816666666826,
      "v": 100
    },
    {
      "midi": 34,
      "hit": false,
      "t": 122095.45799999942,
      "d": 121.78295833332231,
      "v": 84
    },
    {
      "midi": 34,
      "hit": false,
      "t": 122205.75199999902,
      "d": 235.52364583333838,
      "v": 100
    },
    {
      "midi": 46,
      "hit": false,
      "t": 122205.75199999941,
      "d": 220.58799999998882,
      "v": 84
    },
    {
      "midi": 46,
      "hit": false,
      "t": 122426.33999999902,
      "d": 64.33816666666826,
      "v": 100
    },
    {
      "midi": 34,
      "hit": false,
      "t": 122426.3399999994,
      "d": 110.29399999999441,
      "v": 84
    },
    {
      "midi": 62,
      "hit": false,
      "t": 122426.34,
      "d": 259.6504583333299,
      "v": 123
    },
    {
      "midi": 46,
      "hit": false,
      "t": 122536.63399999902,
      "d": 64.33816666666826,
      "v": 100
    },
    {
      "midi": 46,
      "hit": false,
      "t": 122536.6339999994,
      "d": 110.29399999999441,
      "v": 84
    },
    {
      "midi": 34,
      "hit": false,
      "t": 122646.92799999901,
      "d": 210.24793749999662,
      "v": 100
    },
    {
      "midi": 34,
      "hit": false,
      "t": 122646.92799999939,
      "d": 220.58800000000338,
      "v": 84
    },
    {
      "midi": 46,
      "hit": false,
      "t": 122867.51599999901,
      "d": 64.33816666666826,
      "v": 100
    },
    {
      "midi": 46,
      "hit": false,
      "t": 122867.51599999939,
      "d": 110.29399999999441,
      "v": 84
    },
    {
      "midi": 65,
      "hit": false,
      "t": 122867.51599999999,
      "d": 75.82712499999616,
      "v": 125
    },
    {
      "midi": 46,
      "hit": false,
      "t": 122977.80999999901,
      "d": 68.93374999999651,
      "v": 100
    },
    {
      "midi": 34,
      "hit": false,
      "t": 122977.80999999939,
      "d": 110.29399999999441,
      "v": 84
    },
    {
      "midi": 34,
      "hit": false,
      "t": 123088.103999999,
      "d": 194.16339583334047,
      "v": 100
    },
    {
      "midi": 46,
      "hit": false,
      "t": 123088.10399999938,
      "d": 228.63027083333873,
      "v": 84
    },
    {
      "midi": 65,
      "hit": false,
      "t": 123088.10399999999,
      "d": 72.38043750000361,
      "v": 120
    },
    {
      "midi": 46,
      "hit": false,
      "t": 123308.691999999,
      "d": 64.33816666666826,
      "v": 100
    },
    {
      "midi": 34,
      "hit": false,
      "t": 123308.69199999938,
      "d": 110.29400000000896,
      "v": 84
    },
    {
      "midi": 65,
      "hit": false,
      "t": 123308.692,
      "d": 304.4573958333349,
      "v": 120
    },
    {
      "midi": 46,
      "hit": false,
      "t": 123418.985999999,
      "d": 64.33816666666826,
      "v": 100
    },
    {
      "midi": 46,
      "hit": false,
      "t": 123418.9859999994,
      "d": 110.29399999999441,
      "v": 84
    },
    {
      "midi": 31,
      "hit": false,
      "t": 123529.279999999,
      "d": 213.69462500000373,
      "v": 100
    },
    {
      "midi": 31,
      "hit": false,
      "t": 123529.27999999939,
      "d": 220.58800000000338,
      "v": 84
    },
    {
      "midi": 55,
      "hit": false,
      "t": 123529.28,
      "d": 1764.703999999998,
      "v": 74
    },
    {
      "midi": 58,
      "hit": false,
      "t": 123529.28,
      "d": 1764.703999999998,
      "v": 74
    },
    {
      "midi": 62,
      "hit": false,
      "t": 123529.28,
      "d": 1764.703999999998,
      "v": 74
    },
    {
      "midi": 55,
      "hit": false,
      "t": 123529.28000000001,
      "d": 1764.703999999998,
      "v": 75
    },
    {
      "midi": 58,
      "hit": false,
      "t": 123529.28000000001,
      "d": 1764.703999999998,
      "v": 75
    },
    {
      "midi": 62,
      "hit": false,
      "t": 123529.28000000001,
      "d": 1764.703999999998,
      "v": 75
    },
    {
      "midi": 43,
      "hit": false,
      "t": 123749.867999999,
      "d": 64.33816666666826,
      "v": 100
    },
    {
      "midi": 43,
      "hit": false,
      "t": 123749.86799999939,
      "d": 110.29399999999441,
      "v": 84
    },
    {
      "midi": 64,
      "hit": false,
      "t": 123749.868,
      "d": 82.72049999999581,
      "v": 123
    },
    {
      "midi": 43,
      "hit": false,
      "t": 123860.16199999899,
      "d": 64.33816666666826,
      "v": 100
    },
    {
      "midi": 31,
      "hit": false,
      "t": 123860.16199999939,
      "d": 122.93185416665801,
      "v": 84
    },
    {
      "midi": 31,
      "hit": false,
      "t": 123970.45599999899,
      "d": 224.03468750001048,
      "v": 100
    },
    {
      "midi": 43,
      "hit": false,
      "t": 123970.45599999938,
      "d": 220.58800000000338,
      "v": 84
    },
    {
      "midi": 64,
      "hit": false,
      "t": 123970.45599999999,
      "d": 492.87631249999686,
      "v": 123
    },
    {
      "midi": 43,
      "hit": false,
      "t": 124191.04399999899,
      "d": 64.33816666666826,
      "v": 100
    },
    {
      "midi": 31,
      "hit": false,
      "t": 124191.04399999938,
      "d": 110.29399999999441,
      "v": 84
    },
    {
      "midi": 43,
      "hit": false,
      "t": 124301.33799999898,
      "d": 65.48706250000396,
      "v": 100
    },
    {
      "midi": 43,
      "hit": false,
      "t": 124301.33799999938,
      "d": 130.97412499999336,
      "v": 84
    },
    {
      "midi": 31,
      "hit": false,
      "t": 124411.631999999,
      "d": 218.29020833333198,
      "v": 100
    },
    {
      "midi": 31,
      "hit": false,
      "t": 124411.63199999937,
      "d": 220.58800000000338,
      "v": 84
    },
    {
      "midi": 43,
      "hit": false,
      "t": 124632.219999999,
      "d": 64.33816666666826,
      "v": 100
    },
    {
      "midi": 43,
      "hit": false,
      "t": 124632.21999999938,
      "d": 110.29399999999441,
      "v": 84
    },
    {
      "midi": 65,
      "hit": false,
      "t": 124632.21999999999,
      "d": 72.38043750000361,
      "v": 117
    },
    {
      "midi": 43,
      "hit": false,
      "t": 124742.51399999899,
      "d": 64.33816666666826,
      "v": 100
    },
    {
      "midi": 31,
      "hit": false,
      "t": 124742.51399999937,
      "d": 130.97412499999336,
      "v": 84
    },
    {
      "midi": 31,
      "hit": false,
      "t": 124852.80799999899,
      "d": 222.88579166667478,
      "v": 100
    },
    {
      "midi": 43,
      "hit": false,
      "t": 124852.80799999936,
      "d": 220.58800000000338,
      "v": 84
    },
    {
      "midi": 65,
      "hit": false,
      "t": 124852.80799999999,
      "d": 72.38043750000361,
      "v": 120
    },
    {
      "midi": 43,
      "hit": false,
      "t": 125073.39599999899,
      "d": 64.33816666666826,
      "v": 100
    },
    {
      "midi": 31,
      "hit": false,
      "t": 125073.39599999937,
      "d": 110.29399999999441,
      "v": 84
    },
    {
      "midi": 65,
      "hit": false,
      "t": 125073.396,
      "d": 299.86181250000664,
      "v": 120
    },
    {
      "midi": 43,
      "hit": false,
      "t": 125183.68999999898,
      "d": 64.33816666666826,
      "v": 100
    },
    {
      "midi": 43,
      "hit": false,
      "t": 125183.68999999936,
      "d": 110.29399999999441,
      "v": 84
    },
    {
      "midi": 33,
      "hit": false,
      "t": 125293.98399999898,
      "d": 211.39683333333232,
      "v": 100
    },
    {
      "midi": 33,
      "hit": false,
      "t": 125293.98399999936,
      "d": 220.58800000000338,
      "v": 84
    },
    {
      "midi": 57,
      "hit": false,
      "t": 125293.984,
      "d": 1764.703999999998,
      "v": 74
    },
    {
      "midi": 61,
      "hit": false,
      "t": 125293.984,
      "d": 1764.703999999998,
      "v": 74
    },
    {
      "midi": 64,
      "hit": false,
      "t": 125293.984,
      "d": 1764.703999999998,
      "v": 74
    },
    {
      "midi": 57,
      "hit": false,
      "t": 125293.98400000001,
      "d": 1764.703999999998,
      "v": 75
    },
    {
      "midi": 61,
      "hit": false,
      "t": 125293.98400000001,
      "d": 1764.703999999998,
      "v": 75
    },
    {
      "midi": 64,
      "hit": false,
      "t": 125293.98400000001,
      "d": 1764.703999999998,
      "v": 75
    },
    {
      "midi": 45,
      "hit": false,
      "t": 125514.57199999898,
      "d": 64.33816666666826,
      "v": 100
    },
    {
      "midi": 45,
      "hit": false,
      "t": 125514.57199999936,
      "d": 110.29399999999441,
      "v": 84
    },
    {
      "midi": 64,
      "hit": false,
      "t": 125514.572,
      "d": 80.42270833333896,
      "v": 120
    },
    {
      "midi": 45,
      "hit": false,
      "t": 125624.86599999898,
      "d": 68.93374999999651,
      "v": 100
    },
    {
      "midi": 33,
      "hit": false,
      "t": 125624.86599999935,
      "d": 118.33627083332976,
      "v": 84
    },
    {
      "midi": 33,
      "hit": false,
      "t": 125735.15999999897,
      "d": 212.54572916666802,
      "v": 100
    },
    {
      "midi": 45,
      "hit": false,
      "t": 125735.15999999935,
      "d": 220.58800000000338,
      "v": 84
    },
    {
      "midi": 64,
      "hit": false,
      "t": 125735.16,
      "d": 505.51416666666046,
      "v": 120
    },
    {
      "midi": 45,
      "hit": false,
      "t": 125955.74799999897,
      "d": 64.33816666666826,
      "v": 100
    },
    {
      "midi": 33,
      "hit": false,
      "t": 125955.74799999935,
      "d": 110.29399999999441,
      "v": 84
    },
    {
      "midi": 45,
      "hit": false,
      "t": 126066.04199999897,
      "d": 64.33816666666826,
      "v": 100
    },
    {
      "midi": 45,
      "hit": false,
      "t": 126066.04199999935,
      "d": 130.97412499999336,
      "v": 84
    },
    {
      "midi": 33,
      "hit": false,
      "t": 126176.33599999896,
      "d": 197.61008333333302,
      "v": 100
    },
    {
      "midi": 33,
      "hit": false,
      "t": 126176.33599999934,
      "d": 220.58800000000338,
      "v": 84
    },
    {
      "midi": 45,
      "hit": false,
      "t": 126396.92399999897,
      "d": 64.33816666666826,
      "v": 100
    },
    {
      "midi": 45,
      "hit": false,
      "t": 126396.92399999934,
      "d": 110.29399999999441,
      "v": 84
    },
    {
      "midi": 64,
      "hit": false,
      "t": 126396.924,
      "d": 68.93374999999651,
      "v": 123
    },
    {
      "midi": 45,
      "hit": false,
      "t": 126507.21799999896,
      "d": 64.33816666666826,
      "v": 100
    },
    {
      "midi": 33,
      "hit": false,
      "t": 126507.21799999934,
      "d": 122.93185416665801,
      "v": 84
    },
    {
      "midi": 33,
      "hit": false,
      "t": 126617.51199999895,
      "d": 184.97222916666942,
      "v": 100
    },
    {
      "midi": 45,
      "hit": false,
      "t": 126617.51199999933,
      "d": 220.58800000000338,
      "v": 84
    },
    {
      "midi": 64,
      "hit": false,
      "t": 126617.512,
      "d": 79.27381250000326,
      "v": 120
    },
    {
      "midi": 45,
      "hit": false,
      "t": 126838.09999999896,
      "d": 64.33816666666826,
      "v": 100
    },
    {
      "midi": 33,
      "hit": false,
      "t": 126838.09999999934,
      "d": 110.29399999999441,
      "v": 84
    },
    {
      "midi": 64,
      "hit": false,
      "t": 126838.1,
      "d": 275.7350000000006,
      "v": 117
    },
    {
      "midi": 45,
      "hit": false,
      "t": 126948.39399999895,
      "d": 64.33816666666826,
      "v": 100
    },
    {
      "midi": 45,
      "hit": false,
      "t": 126948.39399999933,
      "d": 114.88958333332266,
      "v": 84
    },
    {
      "midi": 38,
      "hit": false,
      "t": 127058.68799999895,
      "d": 174.63216666666267,
      "v": 100
    },
    {
      "midi": 38,
      "hit": false,
      "t": 127058.68799999933,
      "d": 220.58799999998882,
      "v": 84
    },
    {
      "midi": 62,
      "hit": false,
      "t": 127058.688,
      "d": 1764.703999999998,
      "v": 74
    },
    {
      "midi": 65,
      "hit": false,
      "t": 127058.688,
      "d": 1764.703999999998,
      "v": 74
    },
    {
      "midi": 69,
      "hit": false,
      "t": 127058.688,
      "d": 1764.703999999998,
      "v": 74
    },
    {
      "midi": 57,
      "hit": false,
      "t": 127058.68800000001,
      "d": 1764.703999999998,
      "v": 75
    },
    {
      "midi": 62,
      "hit": false,
      "t": 127058.68800000001,
      "d": 1764.703999999998,
      "v": 75
    },
    {
      "midi": 65,
      "hit": false,
      "t": 127058.68800000001,
      "d": 1764.703999999998,
      "v": 75
    },
    {
      "midi": 50,
      "hit": false,
      "t": 127279.27599999894,
      "d": 64.33816666666826,
      "v": 100
    },
    {
      "midi": 50,
      "hit": false,
      "t": 127279.27599999931,
      "d": 110.29399999999441,
      "v": 84
    },
    {
      "midi": 62,
      "hit": false,
      "t": 127279.27600000001,
      "d": 80.42270833333896,
      "v": 120
    },
    {
      "midi": 50,
      "hit": false,
      "t": 127389.56999999893,
      "d": 64.33816666666826,
      "v": 100
    },
    {
      "midi": 38,
      "hit": false,
      "t": 127389.56999999931,
      "d": 117.18737499999406,
      "v": 84
    },
    {
      "midi": 38,
      "hit": false,
      "t": 127499.86399999892,
      "d": 174.63216666666267,
      "v": 100
    },
    {
      "midi": 50,
      "hit": false,
      "t": 127499.8639999993,
      "d": 221.73689583333908,
      "v": 84
    },
    {
      "midi": 62,
      "hit": false,
      "t": 127499.86400000002,
      "d": 496.32300000000396,
      "v": 120
    },
    {
      "midi": 50,
      "hit": false,
      "t": 127720.45199999891,
      "d": 64.33816666666826,
      "v": 100
    },
    {
      "midi": 38,
      "hit": false,
      "t": 127720.4519999993,
      "d": 110.29400000000896,
      "v": 84
    },
    {
      "midi": 50,
      "hit": false,
      "t": 127830.74599999891,
      "d": 64.33816666666826,
      "v": 100
    },
    {
      "midi": 50,
      "hit": false,
      "t": 127830.74599999932,
      "d": 119.48516666666546,
      "v": 84
    },
    {
      "midi": 38,
      "hit": false,
      "t": 127941.0399999989,
      "d": 174.63216666666267,
      "v": 100
    },
    {
      "midi": 38,
      "hit": false,
      "t": 127941.03999999931,
      "d": 220.58800000000338,
      "v": 84
    },
    {
      "midi": 50,
      "hit": false,
      "t": 128161.62799999889,
      "d": 64.33816666666826,
      "v": 100
    },
    {
      "midi": 50,
      "hit": false,
      "t": 128161.62799999931,
      "d": 110.29399999999441,
      "v": 84
    },
    {
      "midi": 64,
      "hit": false,
      "t": 128161.62800000003,
      "d": 79.27381250000326,
      "v": 120
    },
    {
      "midi": 50,
      "hit": false,
      "t": 128271.92199999889,
      "d": 64.33816666666826,
      "v": 100
    },
    {
      "midi": 38,
      "hit": false,
      "t": 128271.92199999931,
      "d": 118.33627083332976,
      "v": 84
    },
    {
      "midi": 38,
      "hit": false,
      "t": 128382.21599999888,
      "d": 174.63216666666267,
      "v": 100
    },
    {
      "midi": 50,
      "hit": false,
      "t": 128382.2159999993,
      "d": 226.33247916666733,
      "v": 84
    },
    {
      "midi": 64,
      "hit": false,
      "t": 128382.21600000003,
      "d": 76.97602083333186,
      "v": 120
    },
    {
      "midi": 50,
      "hit": false,
      "t": 128602.80399999887,
      "d": 64.33816666666826,
      "v": 100
    },
    {
      "midi": 38,
      "hit": false,
      "t": 128602.8039999993,
      "d": 110.29399999999441,
      "v": 84
    },
    {
      "midi": 64,
      "hit": false,
      "t": 128602.80400000003,
      "d": 245.86370833333058,
      "v": 120
    },
    {
      "midi": 50,
      "hit": false,
      "t": 128713.09799999886,
      "d": 64.33816666666826,
      "v": 100
    },
    {
      "midi": 50,
      "hit": false,
      "t": 128713.0979999993,
      "d": 113.74068750000151,
      "v": 84
    },
    {
      "midi": 34,
      "hit": false,
      "t": 128823.39199999886,
      "d": 201.05677083334012,
      "v": 100
    },
    {
      "midi": 34,
      "hit": false,
      "t": 128823.3919999993,
      "d": 220.58800000000338,
      "v": 84
    },
    {
      "midi": 58,
      "hit": false,
      "t": 128823.39199999999,
      "d": 1764.703999999998,
      "v": 74
    },
    {
      "midi": 62,
      "hit": false,
      "t": 128823.39199999999,
      "d": 1764.703999999998,
      "v": 74
    },
    {
      "midi": 65,
      "hit": false,
      "t": 128823.39199999999,
      "d": 1764.703999999998,
      "v": 74
    },
    {
      "midi": 58,
      "hit": false,
      "t": 128823.392,
      "d": 1764.703999999998,
      "v": 75
    },
    {
      "midi": 62,
      "hit": false,
      "t": 128823.392,
      "d": 1764.703999999998,
      "v": 75
    },
    {
      "midi": 65,
      "hit": false,
      "t": 128823.392,
      "d": 1764.703999999998,
      "v": 75
    },
    {
      "midi": 46,
      "hit": false,
      "t": 129043.97999999886,
      "d": 64.33816666666826,
      "v": 100
    },
    {
      "midi": 46,
      "hit": false,
      "t": 129043.9799999993,
      "d": 110.29399999999441,
      "v": 84
    },
    {
      "midi": 65,
      "hit": false,
      "t": 129043.98000000003,
      "d": 236.67254166665953,
      "v": 120
    },
    {
      "midi": 46,
      "hit": false,
      "t": 129154.27399999886,
      "d": 64.33816666666826,
      "v": 100
    },
    {
      "midi": 34,
      "hit": false,
      "t": 129154.27399999929,
      "d": 110.29399999999441,
      "v": 84
    },
    {
      "midi": 34,
      "hit": false,
      "t": 129264.56799999885,
      "d": 174.63216666666267,
      "v": 100
    },
    {
      "midi": 46,
      "hit": false,
      "t": 129264.56799999929,
      "d": 220.58800000000338,
      "v": 84
    },
    {
      "midi": 46,
      "hit": false,
      "t": 129485.15599999884,
      "d": 64.33816666666826,
      "v": 100
    },
    {
      "midi": 34,
      "hit": false,
      "t": 129485.15599999929,
      "d": 110.29399999999441,
      "v": 84
    },
    {
      "midi": 62,
      "hit": false,
      "t": 129485.15600000002,
      "d": 253.90597916666593,
      "v": 123
    },
    {
      "midi": 46,
      "hit": false,
      "t": 129595.44999999883,
      "d": 64.33816666666826,
      "v": 100
    },
    {
      "midi": 46,
      "hit": false,
      "t": 129595.44999999928,
      "d": 111.44289583333011,
      "v": 84
    },
    {
      "midi": 34,
      "hit": false,
      "t": 129705.74399999883,
      "d": 188.41891666666197,
      "v": 100
    },
    {
      "midi": 34,
      "hit": false,
      "t": 129705.74399999928,
      "d": 220.58800000000338,
      "v": 84
    },
    {
      "midi": 46,
      "hit": false,
      "t": 129926.33199999882,
      "d": 64.33816666666826,
      "v": 100
    },
    {
      "midi": 46,
      "hit": false,
      "t": 129926.33199999928,
      "d": 110.29399999999441,
      "v": 84
    },
    {
      "midi": 65,
      "hit": false,
      "t": 129926.33200000001,
      "d": 66.63595833333966,
      "v": 117
    },
    {
      "midi": 46,
      "hit": false,
      "t": 130036.62599999881,
      "d": 64.33816666666826,
      "v": 100
    },
    {
      "midi": 34,
      "hit": false,
      "t": 130036.62599999928,
      "d": 118.33627083332976,
      "v": 84
    },
    {
      "midi": 34,
      "hit": false,
      "t": 130146.9199999988,
      "d": 186.12112500000512,
      "v": 100
    },
    {
      "midi": 46,
      "hit": false,
      "t": 130146.91999999927,
      "d": 220.58800000000338,
      "v": 84
    },
    {
      "midi": 65,
      "hit": false,
      "t": 130146.92000000001,
      "d": 72.38043750000361,
      "v": 117
    },
    {
      "midi": 46,
      "hit": false,
      "t": 130367.50799999881,
      "d": 64.33816666666826,
      "v": 100
    },
    {
      "midi": 34,
      "hit": false,
      "t": 130367.50799999927,
      "d": 110.29399999999441,
      "v": 84
    },
    {
      "midi": 65,
      "hit": false,
      "t": 130367.50800000002,
      "d": 315.9463541666628,
      "v": 120
    },
    {
      "midi": 46,
      "hit": false,
      "t": 130477.8019999988,
      "d": 64.33816666666826,
      "v": 100
    },
    {
      "midi": 46,
      "hit": false,
      "t": 130477.80199999927,
      "d": 110.29399999999441,
      "v": 84
    },
    {
      "midi": 31,
      "hit": false,
      "t": 130588.0959999988,
      "d": 174.63216666666267,
      "v": 100
    },
    {
      "midi": 31,
      "hit": false,
      "t": 130588.09599999926,
      "d": 220.58800000000338,
      "v": 84
    },
    {
      "midi": 55,
      "hit": false,
      "t": 130588.09599999999,
      "d": 1764.703999999998,
      "v": 74
    },
    {
      "midi": 58,
      "hit": false,
      "t": 130588.09599999999,
      "d": 1764.703999999998,
      "v": 74
    },
    {
      "midi": 62,
      "hit": false,
      "t": 130588.09599999999,
      "d": 1764.703999999998,
      "v": 74
    },
    {
      "midi": 55,
      "hit": false,
      "t": 130588.096,
      "d": 1764.7040000000125,
      "v": 75
    },
    {
      "midi": 58,
      "hit": false,
      "t": 130588.096,
      "d": 1764.7040000000125,
      "v": 75
    },
    {
      "midi": 62,
      "hit": false,
      "t": 130588.096,
      "d": 1764.7040000000125,
      "v": 75
    },
    {
      "midi": 43,
      "hit": false,
      "t": 130808.68399999879,
      "d": 64.33816666666826,
      "v": 100
    },
    {
      "midi": 43,
      "hit": false,
      "t": 130808.68399999927,
      "d": 110.29399999999441,
      "v": 84
    },
    {
      "midi": 64,
      "hit": false,
      "t": 130808.68400000001,
      "d": 76.97602083333186,
      "v": 120
    },
    {
      "midi": 43,
      "hit": false,
      "t": 130918.97799999878,
      "d": 64.33816666666826,
      "v": 100
    },
    {
      "midi": 31,
      "hit": false,
      "t": 130918.97799999926,
      "d": 121.78295833332231,
      "v": 84
    },
    {
      "midi": 31,
      "hit": false,
      "t": 131029.27199999877,
      "d": 174.63216666667722,
      "v": 100
    },
    {
      "midi": 43,
      "hit": false,
      "t": 131029.27199999926,
      "d": 220.58800000000338,
      "v": 84
    },
    {
      "midi": 64,
      "hit": false,
      "t": 131029.27200000001,
      "d": 469.89839583334106,
      "v": 120
    },
    {
      "midi": 43,
      "hit": false,
      "t": 131249.8599999988,
      "d": 64.3381666666537,
      "v": 100
    },
    {
      "midi": 31,
      "hit": false,
      "t": 131249.85999999926,
      "d": 110.29399999999441,
      "v": 84
    },
    {
      "midi": 43,
      "hit": false,
      "t": 131360.1539999988,
      "d": 64.3381666666537,
      "v": 100
    },
    {
      "midi": 43,
      "hit": false,
      "t": 131360.15399999925,
      "d": 121.78295833332231,
      "v": 84
    },
    {
      "midi": 31,
      "hit": false,
      "t": 131470.44799999878,
      "d": 202.20566666667582,
      "v": 100
    },
    {
      "midi": 31,
      "hit": false,
      "t": 131470.44799999925,
      "d": 220.58799999998882,
      "v": 84
    },
    {
      "midi": 43,
      "hit": false,
      "t": 131691.0359999988,
      "d": 64.3381666666537,
      "v": 100
    },
    {
      "midi": 43,
      "hit": false,
      "t": 131691.03599999924,
      "d": 110.29399999999441,
      "v": 84
    },
    {
      "midi": 65,
      "hit": false,
      "t": 131691.03600000002,
      "d": 70.08264583334676,
      "v": 120
    },
    {
      "midi": 43,
      "hit": false,
      "t": 131801.3299999988,
      "d": 64.3381666666537,
      "v": 100
    },
    {
      "midi": 31,
      "hit": false,
      "t": 131801.32999999923,
      "d": 110.29399999999441,
      "v": 84
    },
    {
      "midi": 31,
      "hit": false,
      "t": 131911.6239999988,
      "d": 202.20566666667582,
      "v": 100
    },
    {
      "midi": 43,
      "hit": false,
      "t": 131911.62399999922,
      "d": 227.48137500000303,
      "v": 84
    },
    {
      "midi": 65,
      "hit": false,
      "t": 131911.62400000004,
      "d": 67.78485416667536,
      "v": 117
    },
    {
      "midi": 43,
      "hit": false,
      "t": 132132.2119999988,
      "d": 64.3381666666537,
      "v": 100
    },
    {
      "midi": 31,
      "hit": false,
      "t": 132132.2119999992,
      "d": 110.29400000002352,
      "v": 84
    },
    {
      "midi": 65,
      "hit": false,
      "t": 132132.21200000006,
      "d": 311.35077083332,
      "v": 120
    },
    {
      "midi": 43,
      "hit": false,
      "t": 132242.5059999988,
      "d": 64.3381666666537,
      "v": 100
    },
    {
      "midi": 43,
      "hit": false,
      "t": 132242.50599999924,
      "d": 110.29399999999441,
      "v": 84
    },
    {
      "midi": 33,
      "hit": false,
      "t": 132352.7999999988,
      "d": 174.63216666667722,
      "v": 100
    },
    {
      "midi": 33,
      "hit": false,
      "t": 132352.79999999923,
      "d": 220.58799999998882,
      "v": 84
    },
    {
      "midi": 57,
      "hit": false,
      "t": 132352.8,
      "d": 1764.703999999998,
      "v": 74
    },
    {
      "midi": 61,
      "hit": false,
      "t": 132352.8,
      "d": 1764.703999999998,
      "v": 74
    },
    {
      "midi": 64,
      "hit": false,
      "t": 132352.8,
      "d": 1764.703999999998,
      "v": 74
    },
    {
      "midi": 57,
      "hit": false,
      "t": 132352.80000000002,
      "d": 1764.703999999998,
      "v": 75
    },
    {
      "midi": 61,
      "hit": false,
      "t": 132352.80000000002,
      "d": 1764.703999999998,
      "v": 75
    },
    {
      "midi": 64,
      "hit": false,
      "t": 132352.80000000002,
      "d": 1764.703999999998,
      "v": 75
    },
    {
      "midi": 45,
      "hit": false,
      "t": 132573.3879999988,
      "d": 64.3381666666537,
      "v": 100
    },
    {
      "midi": 45,
      "hit": false,
      "t": 132573.38799999922,
      "d": 110.29399999999441,
      "v": 84
    },
    {
      "midi": 64,
      "hit": false,
      "t": 132573.38800000004,
      "d": 71.23154166666791,
      "v": 120
    },
    {
      "midi": 45,
      "hit": false,
      "t": 132683.6819999988,
      "d": 64.3381666666537,
      "v": 100
    },
    {
      "midi": 33,
      "hit": false,
      "t": 132683.68199999921,
      "d": 130.97412500000792,
      "v": 84
    },
    {
      "midi": 33,
      "hit": false,
      "t": 132793.9759999988,
      "d": 204.50345833334723,
      "v": 100
    },
    {
      "midi": 45,
      "hit": false,
      "t": 132793.9759999992,
      "d": 220.58800000001793,
      "v": 84
    },
    {
      "midi": 64,
      "hit": false,
      "t": 132793.97600000002,
      "d": 220.58799999998882,
      "v": 117
    },
    {
      "midi": 45,
      "hit": false,
      "t": 133014.56399999882,
      "d": 64.3381666666537,
      "v": 100
    },
    {
      "midi": 33,
      "hit": false,
      "t": 133014.56399999923,
      "d": 110.29399999999441,
      "v": 84
    },
    {
      "midi": 65,
      "hit": false,
      "t": 133014.564,
      "d": 220.58799999998882,
      "v": 113
    },
    {
      "midi": 45,
      "hit": false,
      "t": 133124.8579999988,
      "d": 64.3381666666537,
      "v": 100
    },
    {
      "midi": 45,
      "hit": false,
      "t": 133124.85799999922,
      "d": 120.63406250000116,
      "v": 84
    },
    {
      "midi": 33,
      "hit": false,
      "t": 133235.1519999988,
      "d": 211.39683333333232,
      "v": 100
    },
    {
      "midi": 33,
      "hit": false,
      "t": 133235.15199999922,
      "d": 220.58800000001793,
      "v": 84
    },
    {
      "midi": 64,
      "hit": false,
      "t": 133235.152,
      "d": 220.58799999998882,
      "v": 123
    },
    {
      "midi": 45,
      "hit": false,
      "t": 133455.7399999988,
      "d": 64.3381666666537,
      "v": 100
    },
    {
      "midi": 45,
      "hit": false,
      "t": 133455.73999999923,
      "d": 110.29399999999441,
      "v": 84
    },
    {
      "midi": 65,
      "hit": false,
      "t": 133455.74,
      "d": 220.58799999998882,
      "v": 120
    },
    {
      "midi": 45,
      "hit": false,
      "t": 133566.0339999988,
      "d": 64.3381666666537,
      "v": 100
    },
    {
      "midi": 33,
      "hit": false,
      "t": 133566.03399999923,
      "d": 124.08074999999371,
      "v": 84
    },
    {
      "midi": 33,
      "hit": false,
      "t": 133676.3279999988,
      "d": 174.63216666667722,
      "v": 100
    },
    {
      "midi": 45,
      "hit": false,
      "t": 133676.32799999922,
      "d": 232.07695833331672,
      "v": 84
    },
    {
      "midi": 64,
      "hit": false,
      "t": 133676.32799999998,
      "d": 220.58799999998882,
      "v": 123
    },
    {
      "midi": 45,
      "hit": false,
      "t": 133896.9159999988,
      "d": 64.3381666666537,
      "v": 100
    },
    {
      "midi": 33,
      "hit": false,
      "t": 133896.9159999992,
      "d": 110.29399999999441,
      "v": 84
    },
    {
      "midi": 62,
      "hit": false,
      "t": 133896.91599999997,
      "d": 209.09904166666092,
      "v": 123
    },
    {
      "midi": 45,
      "hit": false,
      "t": 134007.2099999988,
      "d": 64.3381666666537,
      "v": 100
    },
    {
      "midi": 45,
      "hit": false,
      "t": 134007.2099999992,
      "d": 110.29399999999441,
      "v": 84
    },
    {
      "midi": 26,
      "hit": false,
      "t": 134117.5039999988,
      "d": 230.92806249999558,
      "v": 100
    },
    {
      "midi": 50,
      "hit": false,
      "t": 134117.5039999992,
      "d": 220.58799999998882,
      "v": 84
    },
    {
      "midi": 57,
      "hit": false,
      "t": 134117.504,
      "d": 101.10283333333791,
      "v": 108
    },
    {
      "midi": 69,
      "hit": false,
      "t": 134117.504,
      "d": 122.93185416667257,
      "v": 108
    },
    {
      "midi": 38,
      "hit": false,
      "t": 134117.504,
      "d": 3523.663520833361,
      "v": 111
    },
    {
      "midi": 62,
      "hit": false,
      "t": 134117.50400000016,
      "d": 220.58799999998882,
      "v": 122
    },
    {
      "midi": 38,
      "hit": false,
      "t": 134117.50400000016,
      "d": 3543.194749999937,
      "v": 117
    },
    {
      "midi": 57,
      "hit": false,
      "t": 134324.30525,
      "d": 253.90597916668048,
      "v": 110
    },
    {
      "midi": 69,
      "hit": false,
      "t": 134324.30525,
      "d": 275.73500000001513,
      "v": 110
    },
    {
      "midi": 57,
      "hit": false,
      "t": 134324.30525000015,
      "d": 245.86370833331603,
      "v": 122
    },
    {
      "midi": 38,
      "hit": false,
      "t": 134338.09199999878,
      "d": 64.33816666668281,
      "v": 100
    },
    {
      "midi": 62,
      "hit": false,
      "t": 134338.0919999992,
      "d": 110.29399999999441,
      "v": 84
    },
    {
      "midi": 38,
      "hit": false,
      "t": 134448.3859999988,
      "d": 74.67822916666046,
      "v": 100
    },
    {
      "midi": 50,
      "hit": false,
      "t": 134448.38599999918,
      "d": 117.18737500000861,
      "v": 84
    },
    {
      "midi": 62,
      "hit": false,
      "t": 134544.89325000014,
      "d": 245.86370833331603,
      "v": 122
    },
    {
      "midi": 26,
      "hit": false,
      "t": 134558.6799999988,
      "d": 215.99241666667513,
      "v": 100
    },
    {
      "midi": 62,
      "hit": false,
      "t": 134558.67999999918,
      "d": 225.18358333336073,
      "v": 84
    },
    {
      "midi": 57,
      "hit": false,
      "t": 134765.48125,
      "d": 103.40062500000931,
      "v": 110
    },
    {
      "midi": 69,
      "hit": false,
      "t": 134765.48125,
      "d": 125.22964583334397,
      "v": 110
    },
    {
      "midi": 64,
      "hit": false,
      "t": 134765.48125000013,
      "d": 256.2037708333228,
      "v": 122
    },
    {
      "midi": 38,
      "hit": false,
      "t": 134779.26799999882,
      "d": 64.3381666666537,
      "v": 100
    },
    {
      "midi": 50,
      "hit": false,
      "t": 134779.2679999992,
      "d": 112.59179166669492,
      "v": 84
    },
    {
      "midi": 38,
      "hit": false,
      "t": 134889.5619999988,
      "d": 64.3381666666537,
      "v": 100
    },
    {
      "midi": 62,
      "hit": false,
      "t": 134889.56199999922,
      "d": 127.52743749998626,
      "v": 84
    },
    {
      "midi": 57,
      "hit": false,
      "t": 134986.06925000003,
      "d": 274.5861041666649,
      "v": 110
    },
    {
      "midi": 69,
      "hit": false,
      "t": 134986.06925000003,
      "d": 295.2662291666784,
      "v": 110
    },
    {
      "midi": 65,
      "hit": false,
      "t": 134986.06925000012,
      "d": 263.0971458333079,
      "v": 122
    },
    {
      "midi": 26,
      "hit": false,
      "t": 134999.8559999988,
      "d": 222.88579166666023,
      "v": 100
    },
    {
      "midi": 50,
      "hit": false,
      "t": 134999.8559999992,
      "d": 250.45929166665883,
      "v": 84
    },
    {
      "midi": 64,
      "hit": false,
      "t": 135206.6572500001,
      "d": 287.22395833331393,
      "v": 122
    },
    {
      "midi": 38,
      "hit": false,
      "t": 135220.4439999988,
      "d": 64.33816666668281,
      "v": 100
    },
    {
      "midi": 62,
      "hit": false,
      "t": 135220.4439999992,
      "d": 110.29399999999441,
      "v": 84
    },
    {
      "midi": 38,
      "hit": false,
      "t": 135330.73799999882,
      "d": 64.3381666666537,
      "v": 100
    },
    {
      "midi": 50,
      "hit": false,
      "t": 135330.7379999992,
      "d": 114.88958333333721,
      "v": 84
    },
    {
      "midi": 57,
      "hit": false,
      "t": 135427.24525000004,
      "d": 91.91166666665231,
      "v": 110
    },
    {
      "midi": 69,
      "hit": false,
      "t": 135427.24525000004,
      "d": 109.14510416664416,
      "v": 110
    },
    {
      "midi": 65,
      "hit": false,
      "t": 135427.2452500001,
      "d": 255.05487500000163,
      "v": 122
    },
    {
      "midi": 26,
      "hit": false,
      "t": 135441.0319999988,
      "d": 218.29020833334653,
      "v": 100
    },
    {
      "midi": 62,
      "hit": false,
      "t": 135441.0319999992,
      "d": 234.37475000001723,
      "v": 84
    },
    {
      "midi": 69,
      "hit": false,
      "t": 135647.83325000003,
      "d": 273.43720833334373,
      "v": 110
    },
    {
      "midi": 57,
      "hit": false,
      "t": 135647.83325000003,
      "d": 281.4794791666791,
      "v": 110
    },
    {
      "midi": 67,
      "hit": false,
      "t": 135647.83325000008,
      "d": 220.58800000001793,
      "v": 122
    },
    {
      "midi": 38,
      "hit": false,
      "t": 135661.61999999883,
      "d": 64.3381666666537,
      "v": 100
    },
    {
      "midi": 50,
      "hit": false,
      "t": 135661.6199999992,
      "d": 110.29399999999441,
      "v": 84
    },
    {
      "midi": 38,
      "hit": false,
      "t": 135771.91399999883,
      "d": 64.3381666666537,
      "v": 100
    },
    {
      "midi": 62,
      "hit": false,
      "t": 135771.9139999992,
      "d": 120.63406250000116,
      "v": 84
    },
    {
      "midi": 65,
      "hit": false,
      "t": 135868.4212500001,
      "d": 265.3949374999793,
      "v": 122
    },
    {
      "midi": 26,
      "hit": false,
      "t": 135882.20799999882,
      "d": 215.99241666667513,
      "v": 100
    },
    {
      "midi": 50,
      "hit": false,
      "t": 135882.2079999992,
      "d": 257.35266666667303,
      "v": 84
    },
    {
      "midi": 57,
      "hit": false,
      "t": 136089.00925000003,
      "d": 104.54952083333046,
      "v": 110
    },
    {
      "midi": 69,
      "hit": false,
      "t": 136089.00925000003,
      "d": 124.08074999999371,
      "v": 110
    },
    {
      "midi": 67,
      "hit": false,
      "t": 136089.0092500001,
      "d": 220.58799999998882,
      "v": 122
    },
    {
      "midi": 38,
      "hit": false,
      "t": 136102.79599999884,
      "d": 64.3381666666537,
      "v": 100
    },
    {
      "midi": 62,
      "hit": false,
      "t": 136102.79599999922,
      "d": 110.29399999999441,
      "v": 84
    },
    {
      "midi": 38,
      "hit": false,
      "t": 136213.08999999883,
      "d": 64.3381666666537,
      "v": 100
    },
    {
      "midi": 50,
      "hit": false,
      "t": 136213.0899999992,
      "d": 117.18737500000861,
      "v": 84
    },
    {
      "midi": 57,
      "hit": false,
      "t": 136309.59725000002,
      "d": 286.0750624999928,
      "v": 110
    },
    {
      "midi": 69,
      "hit": false,
      "t": 136309.59725000002,
      "d": 297.5640208333207,
      "v": 110
    },
    {
      "midi": 69,
      "hit": false,
      "t": 136309.59725000008,
      "d": 255.05487500000163,
      "v": 122
    },
    {
      "midi": 26,
      "hit": false,
      "t": 136323.38399999883,
      "d": 224.03468749998137,
      "v": 100
    },
    {
      "midi": 62,
      "hit": false,
      "t": 136323.3839999992,
      "d": 238.97033333336003,
      "v": 84
    },
    {
      "midi": 67,
      "hit": false,
      "t": 136530.18525000007,
      "d": 269.9905208333512,
      "v": 122
    },
    {
      "midi": 38,
      "hit": false,
      "t": 136543.97199999882,
      "d": 64.3381666666537,
      "v": 100
    },
    {
      "midi": 50,
      "hit": false,
      "t": 136543.97199999922,
      "d": 110.29399999999441,
      "v": 84
    },
    {
      "midi": 38,
      "hit": false,
      "t": 136654.2659999988,
      "d": 74.67822916666046,
      "v": 100
    },
    {
      "midi": 62,
      "hit": false,
      "t": 136654.26599999922,
      "d": 116.03847916665836,
      "v": 84
    },
    {
      "midi": 57,
      "hit": false,
      "t": 136750.77325,
      "d": 253.90597916668048,
      "v": 110
    },
    {
      "midi": 69,
      "hit": false,
      "t": 136750.77325,
      "d": 276.8838958333363,
      "v": 110
    },
    {
      "midi": 65,
      "hit": false,
      "t": 136750.7732500001,
      "d": 441.17600000000675,
      "v": 122
    },
    {
      "midi": 26,
      "hit": false,
      "t": 136764.5599999988,
      "d": 221.73689583330997,
      "v": 100
    },
    {
      "midi": 50,
      "hit": false,
      "t": 136764.5599999992,
      "d": 220.58799999998882,
      "v": 84
    },
    {
      "midi": 38,
      "hit": false,
      "t": 136985.1479999988,
      "d": 64.3381666666537,
      "v": 100
    },
    {
      "midi": 62,
      "hit": false,
      "t": 136985.1479999992,
      "d": 113.74068749998696,
      "v": 84
    },
    {
      "midi": 38,
      "hit": false,
      "t": 137095.4419999988,
      "d": 71.23154166666791,
      "v": 100
    },
    {
      "midi": 50,
      "hit": false,
      "t": 137095.4419999992,
      "d": 110.29399999999441,
      "v": 84
    },
    {
      "midi": 57,
      "hit": false,
      "t": 137191.94925,
      "d": 264.24604166665813,
      "v": 110
    },
    {
      "midi": 69,
      "hit": false,
      "t": 137191.94925,
      "d": 310.20187499999884,
      "v": 110
    },
    {
      "midi": 64,
      "hit": false,
      "t": 137191.9492500001,
      "d": 441.17600000000675,
      "v": 122
    },
    {
      "midi": 26,
      "hit": false,
      "t": 137205.73599999878,
      "d": 196.46118750001187,
      "v": 100
    },
    {
      "midi": 62,
      "hit": false,
      "t": 137205.7359999992,
      "d": 220.58799999998882,
      "v": 84
    },
    {
      "midi": 38,
      "hit": false,
      "t": 137426.3239999988,
      "d": 64.3381666666537,
      "v": 100
    },
    {
      "midi": 50,
      "hit": false,
      "t": 137426.32399999918,
      "d": 110.29399999999441,
      "v": 84
    },
    {
      "midi": 38,
      "hit": false,
      "t": 137536.6179999988,
      "d": 64.3381666666537,
      "v": 100
    },
    {
      "midi": 62,
      "hit": false,
      "t": 137536.61799999917,
      "d": 110.29399999999441,
      "v": 84
    },
    {
      "midi": 58,
      "hit": false,
      "t": 137633.12525,
      "d": 135.5697083333216,
      "v": 110
    },
    {
      "midi": 70,
      "hit": false,
      "t": 137633.12525,
      "d": 135.5697083333216,
      "v": 110
    },
    {
      "midi": 62,
      "hit": false,
      "t": 137633.1252500001,
      "d": 220.58799999998882,
      "v": 122
    },
    {
      "midi": 34,
      "hit": false,
      "t": 137641.16752083335,
      "d": 3522.5146249999234,
      "v": 117
    },
    {
      "midi": 34,
      "hit": false,
      "t": 137642.31641666676,
      "d": 3512.174562500004,
      "v": 102
    },
    {
      "midi": 22,
      "hit": false,
      "t": 137646.9119999988,
      "d": 235.52364583330927,
      "v": 100
    },
    {
      "midi": 46,
      "hit": false,
      "t": 137646.91199999917,
      "d": 247.01260416666628,
      "v": 84
    },
    {
      "midi": 70,
      "hit": false,
      "t": 137853.71325,
      "d": 247.01260416666628,
      "v": 110
    },
    {
      "midi": 58,
      "hit": false,
      "t": 137853.71325,
      "d": 264.24604166665813,
      "v": 110
    },
    {
      "midi": 58,
      "hit": false,
      "t": 137853.7132500001,
      "d": 220.58799999998882,
      "v": 122
    },
    {
      "midi": 34,
      "hit": false,
      "t": 137867.49999999878,
      "d": 64.3381666666537,
      "v": 100
    },
    {
      "midi": 58,
      "hit": false,
      "t": 137867.49999999916,
      "d": 110.29400000002352,
      "v": 84
    },
    {
      "midi": 34,
      "hit": false,
      "t": 137977.79399999877,
      "d": 64.3381666666537,
      "v": 100
    },
    {
      "midi": 46,
      "hit": false,
      "t": 137977.79399999918,
      "d": 113.74068749998696,
      "v": 84
    },
    {
      "midi": 62,
      "hit": false,
      "t": 138074.30125000008,
      "d": 241.26812500000233,
      "v": 122
    },
    {
      "midi": 22,
      "hit": false,
      "t": 138088.08799999877,
      "d": 247.01260416666628,
      "v": 100
    },
    {
      "midi": 58,
      "hit": false,
      "t": 138088.08799999917,
      "d": 220.58799999998882,
      "v": 84
    },
    {
      "midi": 70,
      "hit": false,
      "t": 138294.88924999998,
      "d": 88.46497916665976,
      "v": 110
    },
    {
      "midi": 58,
      "hit": false,
      "t": 138294.88924999998,
      "d": 114.88958333333721,
      "v": 110
    },
    {
      "midi": 64,
      "hit": false,
      "t": 138294.88925000007,
      "d": 229.77916666667443,
      "v": 122
    },
    {
      "midi": 34,
      "hit": false,
      "t": 138308.67599999876,
      "d": 64.33816666668281,
      "v": 100
    },
    {
      "midi": 46,
      "hit": false,
      "t": 138308.67599999916,
      "d": 110.29399999999441,
      "v": 84
    },
    {
      "midi": 34,
      "hit": false,
      "t": 138418.96999999878,
      "d": 64.3381666666537,
      "v": 100
    },
    {
      "midi": 58,
      "hit": false,
      "t": 138418.96999999916,
      "d": 110.29399999999441,
      "v": 84
    },
    {
      "midi": 70,
      "hit": false,
      "t": 138515.47725,
      "d": 280.33058333332883,
      "v": 110
    },
    {
      "midi": 58,
      "hit": false,
      "t": 138515.47725,
      "d": 288.3728541666642,
      "v": 110
    },
    {
      "midi": 65,
      "hit": false,
      "t": 138515.47725000008,
      "d": 244.71481249999488,
      "v": 122
    },
    {
      "midi": 22,
      "hit": false,
      "t": 138529.26399999877,
      "d": 213.69462500000373,
      "v": 100
    },
    {
      "midi": 46,
      "hit": false,
      "t": 138529.26399999915,
      "d": 238.97033333333093,
      "v": 84
    },
    {
      "midi": 64,
      "hit": false,
      "t": 138736.06525000007,
      "d": 249.31039583333768,
      "v": 122
    },
    {
      "midi": 34,
      "hit": false,
      "t": 138749.8519999988,
      "d": 64.3381666666537,
      "v": 100
    },
    {
      "midi": 58,
      "hit": false,
      "t": 138749.85199999914,
      "d": 110.29399999999441,
      "v": 84
    },
    {
      "midi": 34,
      "hit": false,
      "t": 138860.1459999988,
      "d": 64.3381666666537,
      "v": 100
    },
    {
      "midi": 46,
      "hit": false,
      "t": 138860.14599999913,
      "d": 112.59179166666581,
      "v": 84
    },
    {
      "midi": 58,
      "hit": false,
      "t": 138956.65325,
      "d": 110.29399999999441,
      "v": 110
    },
    {
      "midi": 70,
      "hit": false,
      "t": 138956.65325,
      "d": 110.29399999999441,
      "v": 110
    },
    {
      "midi": 65,
      "hit": false,
      "t": 138956.6532500001,
      "d": 220.58799999998882,
      "v": 122
    },
    {
      "midi": 22,
      "hit": false,
      "t": 138970.43999999878,
      "d": 240.11922916665208,
      "v": 100
    },
    {
      "midi": 58,
      "hit": false,
      "t": 138970.43999999913,
      "d": 220.58800000001793,
      "v": 84
    },
    {
      "midi": 70,
      "hit": false,
      "t": 139177.24125,
      "d": 269.9905208333221,
      "v": 110
    },
    {
      "midi": 58,
      "hit": false,
      "t": 139177.24125,
      "d": 282.62837500000023,
      "v": 110
    },
    {
      "midi": 67,
      "hit": false,
      "t": 139177.24125000008,
      "d": 236.67254166665953,
      "v": 122
    },
    {
      "midi": 34,
      "hit": false,
      "t": 139191.02799999877,
      "d": 64.3381666666537,
      "v": 100
    },
    {
      "midi": 46,
      "hit": false,
      "t": 139191.02799999915,
      "d": 110.29399999999441,
      "v": 84
    },
    {
      "midi": 34,
      "hit": false,
      "t": 139301.32199999876,
      "d": 66.6359583333251,
      "v": 100
    },
    {
      "midi": 58,
      "hit": false,
      "t": 139301.32199999914,
      "d": 117.18737500000861,
      "v": 84
    },
    {
      "midi": 65,
      "hit": false,
      "t": 139397.82925000007,
      "d": 220.58800000001793,
      "v": 122
    },
    {
      "midi": 22,
      "hit": false,
      "t": 139411.61599999876,
      "d": 221.73689583330997,
      "v": 100
    },
    {
      "midi": 46,
      "hit": false,
      "t": 139411.61599999914,
      "d": 225.18358333336073,
      "v": 84
    },
    {
      "midi": 58,
      "hit": false,
      "t": 139618.41725,
      "d": 112.59179166666581,
      "v": 110
    },
    {
      "midi": 70,
      "hit": false,
      "t": 139618.41725,
      "d": 121.78295833332231,
      "v": 110
    },
    {
      "midi": 67,
      "hit": false,
      "t": 139618.4172500001,
      "d": 220.58799999998882,
      "v": 122
    },
    {
      "midi": 34,
      "hit": false,
      "t": 139632.20399999875,
      "d": 64.3381666666537,
      "v": 100
    },
    {
      "midi": 58,
      "hit": false,
      "t": 139632.20399999915,
      "d": 110.29400000002352,
      "v": 84
    },
    {
      "midi": 34,
      "hit": false,
      "t": 139742.49799999874,
      "d": 64.3381666666537,
      "v": 100
    },
    {
      "midi": 46,
      "hit": false,
      "t": 139742.49799999918,
      "d": 127.52743749998626,
      "v": 84
    },
    {
      "midi": 70,
      "hit": false,
      "t": 139839.00525,
      "d": 248.16149999998743,
      "v": 110
    },
    {
      "midi": 58,
      "hit": false,
      "t": 139839.00525,
      "d": 265.3949374999793,
      "v": 110
    },
    {
      "midi": 69,
      "hit": false,
      "t": 139839.00525000007,
      "d": 272.2883124999935,
      "v": 122
    },
    {
      "midi": 22,
      "hit": false,
      "t": 139852.79199999874,
      "d": 234.37474999998813,
      "v": 100
    },
    {
      "midi": 58,
      "hit": false,
      "t": 139852.79199999917,
      "d": 220.58799999998882,
      "v": 84
    },
    {
      "midi": 67,
      "hit": false,
      "t": 140059.59325000006,
      "d": 232.07695833334583,
      "v": 122
    },
    {
      "midi": 34,
      "hit": false,
      "t": 140073.37999999872,
      "d": 64.3381666666537,
      "v": 100
    },
    {
      "midi": 46,
      "hit": false,
      "t": 140073.37999999916,
      "d": 110.29399999999441,
      "v": 84
    },
    {
      "midi": 34,
      "hit": false,
      "t": 140183.67399999872,
      "d": 64.3381666666537,
      "v": 100
    },
    {
      "midi": 58,
      "hit": false,
      "t": 140183.67399999916,
      "d": 110.29399999999441,
      "v": 84
    },
    {
      "midi": 70,
      "hit": false,
      "t": 140280.18124999997,
      "d": 259.65045833334443,
      "v": 110
    },
    {
      "midi": 58,
      "hit": false,
      "t": 140280.18124999997,
      "d": 265.3949375000084,
      "v": 110
    },
    {
      "midi": 65,
      "hit": false,
      "t": 140280.18125000008,
      "d": 441.17600000000675,
      "v": 122
    },
    {
      "midi": 22,
      "hit": false,
      "t": 140293.9679999987,
      "d": 211.39683333333232,
      "v": 100
    },
    {
      "midi": 46,
      "hit": false,
      "t": 140293.96799999915,
      "d": 227.48137500000303,
      "v": 84
    },
    {
      "midi": 34,
      "hit": false,
      "t": 140514.5559999987,
      "d": 64.3381666666537,
      "v": 100
    },
    {
      "midi": 58,
      "hit": false,
      "t": 140514.55599999914,
      "d": 114.88958333336632,
      "v": 84
    },
    {
      "midi": 34,
      "hit": false,
      "t": 140624.8499999987,
      "d": 64.3381666666537,
      "v": 100
    },
    {
      "midi": 46,
      "hit": false,
      "t": 140624.84999999916,
      "d": 117.18737500003772,
      "v": 84
    },
    {
      "midi": 58,
      "hit": false,
      "t": 140721.35724999997,
      "d": 269.9905208333221,
      "v": 110
    },
    {
      "midi": 70,
      "hit": false,
      "t": 140721.35724999997,
      "d": 291.81954166665673,
      "v": 110
    },
    {
      "midi": 64,
      "hit": false,
      "t": 140721.3572500001,
      "d": 441.17600000000675,
      "v": 122
    },
    {
      "midi": 22,
      "hit": false,
      "t": 140735.1439999987,
      "d": 230.92806249999558,
      "v": 100
    },
    {
      "midi": 58,
      "hit": false,
      "t": 140735.14399999919,
      "d": 220.58800000001793,
      "v": 84
    },
    {
      "midi": 34,
      "hit": false,
      "t": 140955.73199999868,
      "d": 64.33816666668281,
      "v": 100
    },
    {
      "midi": 46,
      "hit": false,
      "t": 140955.7319999992,
      "d": 110.29399999999441,
      "v": 84
    },
    {
      "midi": 34,
      "hit": false,
      "t": 141066.0259999987,
      "d": 64.3381666666537,
      "v": 100
    },
    {
      "midi": 58,
      "hit": false,
      "t": 141066.0259999992,
      "d": 110.29399999999441,
      "v": 84
    },
    {
      "midi": 38,
      "hit": false,
      "t": 141146.44870833342,
      "d": 3547.7903333332506,
      "v": 122
    },
    {
      "midi": 57,
      "hit": false,
      "t": 141162.53324999995,
      "d": 87.3160833333095,
      "v": 110
    },
    {
      "midi": 69,
      "hit": false,
      "t": 141162.53324999995,
      "d": 106.84731249997276,
      "v": 110
    },
    {
      "midi": 62,
      "hit": false,
      "t": 141162.5332500001,
      "d": 220.58799999998882,
      "v": 122
    },
    {
      "midi": 38,
      "hit": false,
      "t": 141172.87331249993,
      "d": 3525.9613125000033,
      "v": 122
    },
    {
      "midi": 26,
      "hit": false,
      "t": 141176.3199999987,
      "d": 235.52364583330927,
      "v": 100
    },
    {
      "midi": 50,
      "hit": false,
      "t": 141176.3199999992,
      "d": 224.03468749998137,
      "v": 84
    },
    {
      "midi": 57,
      "hit": false,
      "t": 141383.1212499999,
      "d": 278.03279166665743,
      "v": 110
    },
    {
      "midi": 69,
      "hit": false,
      "t": 141383.1212499999,
      "d": 292.9684374999779,
      "v": 110
    },
    {
      "midi": 57,
      "hit": false,
      "t": 141383.12125000008,
      "d": 238.97033333333093,
      "v": 122
    },
    {
      "midi": 38,
      "hit": false,
      "t": 141396.9079999987,
      "d": 64.3381666666537,
      "v": 100
    },
    {
      "midi": 62,
      "hit": false,
      "t": 141396.90799999918,
      "d": 110.29399999999441,
      "v": 84
    },
    {
      "midi": 38,
      "hit": false,
      "t": 141507.20199999868,
      "d": 64.3381666666537,
      "v": 100
    },
    {
      "midi": 50,
      "hit": false,
      "t": 141507.20199999918,
      "d": 110.29399999999441,
      "v": 84
    },
    {
      "midi": 62,
      "hit": false,
      "t": 141603.70925000007,
      "d": 248.16150000001653,
      "v": 122
    },
    {
      "midi": 26,
      "hit": false,
      "t": 141617.49599999867,
      "d": 234.37474999998813,
      "v": 100
    },
    {
      "midi": 62,
      "hit": false,
      "t": 141617.49599999917,
      "d": 220.58799999998882,
      "v": 84
    },
    {
      "midi": 69,
      "hit": false,
      "t": 141824.2972499999,
      "d": 90.76277083333116,
      "v": 110
    },
    {
      "midi": 57,
      "hit": false,
      "t": 141824.2972499999,
      "d": 106.84731250000186,
      "v": 110
    },
    {
      "midi": 64,
      "hit": false,
      "t": 141824.2972500001,
      "d": 220.58799999998882,
      "v": 122
    },
    {
      "midi": 38,
      "hit": false,
      "t": 141838.08399999866,
      "d": 64.3381666666537,
      "v": 100
    },
    {
      "midi": 50,
      "hit": false,
      "t": 141838.08399999916,
      "d": 110.29399999999441,
      "v": 84
    },
    {
      "midi": 38,
      "hit": false,
      "t": 141948.37799999866,
      "d": 64.3381666666537,
      "v": 100
    },
    {
      "midi": 62,
      "hit": false,
      "t": 141948.37799999915,
      "d": 122.93185416667257,
      "v": 84
    },
    {
      "midi": 69,
      "hit": false,
      "t": 142044.88524999988,
      "d": 295.2662291666784,
      "v": 110
    },
    {
      "midi": 57,
      "hit": false,
      "t": 142044.88524999988,
      "d": 296.41512499999953,
      "v": 110
    },
    {
      "midi": 65,
      "hit": false,
      "t": 142044.88525000008,
      "d": 220.58799999998882,
      "v": 122
    },
    {
      "midi": 26,
      "hit": false,
      "t": 142058.67199999865,
      "d": 211.39683333333232,
      "v": 100
    },
    {
      "midi": 50,
      "hit": false,
      "t": 142058.67199999915,
      "d": 229.77916666667443,
      "v": 84
    },
    {
      "midi": 64,
      "hit": false,
      "t": 142265.47325000007,
      "d": 271.1394166666432,
      "v": 122
    },
    {
      "midi": 38,
      "hit": false,
      "t": 142279.25999999864,
      "d": 64.3381666666537,
      "v": 100
    },
    {
      "midi": 62,
      "hit": false,
      "t": 142279.25999999917,
      "d": 110.29399999999441,
      "v": 84
    },
    {
      "midi": 38,
      "hit": false,
      "t": 142389.55399999864,
      "d": 64.3381666666537,
      "v": 100
    },
    {
      "midi": 50,
      "hit": false,
      "t": 142389.55399999916,
      "d": 110.29399999999441,
      "v": 84
    },
    {
      "midi": 57,
      "hit": false,
      "t": 142486.06124999988,
      "d": 93.06056250000256,
      "v": 114
    },
    {
      "midi": 69,
      "hit": false,
      "t": 142486.06124999988,
      "d": 114.88958333333721,
      "v": 114
    },
    {
      "midi": 65,
      "hit": false,
      "t": 142486.06125000006,
      "d": 220.58799999998882,
      "v": 122
    },
    {
      "midi": 26,
      "hit": false,
      "t": 142499.84799999863,
      "d": 204.50345833334723,
      "v": 100
    },
    {
      "midi": 62,
      "hit": false,
      "t": 142499.84799999915,
      "d": 220.58799999998882,
      "v": 84
    },
    {
      "midi": 57,
      "hit": false,
      "t": 142706.6492499999,
      "d": 267.6927291666798,
      "v": 110
    },
    {
      "midi": 69,
      "hit": false,
      "t": 142706.6492499999,
      "d": 290.6706458333356,
      "v": 110
    },
    {
      "midi": 67,
      "hit": false,
      "t": 142706.64925000005,
      "d": 220.58799999998882,
      "v": 122
    },
    {
      "midi": 38,
      "hit": false,
      "t": 142720.43599999865,
      "d": 64.3381666666537,
      "v": 100
    },
    {
      "midi": 50,
      "hit": false,
      "t": 142720.43599999914,
      "d": 110.29399999999441,
      "v": 84
    },
    {
      "midi": 38,
      "hit": false,
      "t": 142830.72999999864,
      "d": 64.3381666666537,
      "v": 100
    },
    {
      "midi": 62,
      "hit": false,
      "t": 142830.72999999914,
      "d": 110.29399999999441,
      "v": 84
    },
    {
      "midi": 65,
      "hit": false,
      "t": 142927.23725000003,
      "d": 228.63027083332418,
      "v": 122
    },
    {
      "midi": 26,
      "hit": false,
      "t": 142941.02399999864,
      "d": 207.95014583333977,
      "v": 100
    },
    {
      "midi": 50,
      "hit": false,
      "t": 142941.02399999913,
      "d": 220.58799999998882,
      "v": 84
    },
    {
      "midi": 57,
      "hit": false,
      "t": 143147.8252499999,
      "d": 96.50724999999511,
      "v": 110
    },
    {
      "midi": 69,
      "hit": false,
      "t": 143147.8252499999,
      "d": 113.74068749998696,
      "v": 110
    },
    {
      "midi": 67,
      "hit": false,
      "t": 143147.82525000002,
      "d": 220.58799999998882,
      "v": 122
    },
    {
      "midi": 38,
      "hit": false,
      "t": 143161.61199999865,
      "d": 64.3381666666537,
      "v": 100
    },
    {
      "midi": 62,
      "hit": false,
      "t": 143161.61199999912,
      "d": 110.29399999999441,
      "v": 84
    },
    {
      "midi": 38,
      "hit": false,
      "t": 143271.90599999865,
      "d": 64.3381666666537,
      "v": 100
    },
    {
      "midi": 50,
      "hit": false,
      "t": 143271.90599999912,
      "d": 110.29399999999441,
      "v": 84
    },
    {
      "midi": 57,
      "hit": false,
      "t": 143368.4132499999,
      "d": 278.03279166665743,
      "v": 110
    },
    {
      "midi": 69,
      "hit": false,
      "t": 143368.4132499999,
      "d": 284.92616666667163,
      "v": 110
    },
    {
      "midi": 69,
      "hit": false,
      "t": 143368.41325,
      "d": 252.75708333333023,
      "v": 122
    },
    {
      "midi": 26,
      "hit": false,
      "t": 143382.19999999864,
      "d": 212.54572916665347,
      "v": 100
    },
    {
      "midi": 62,
      "hit": false,
      "t": 143382.1999999991,
      "d": 220.58799999998882,
      "v": 84
    },
    {
      "midi": 67,
      "hit": false,
      "t": 143589.00125,
      "d": 276.8838958333654,
      "v": 122
    },
    {
      "midi": 38,
      "hit": false,
      "t": 143602.78799999863,
      "d": 64.3381666666537,
      "v": 100
    },
    {
      "midi": 50,
      "hit": false,
      "t": 143602.7879999991,
      "d": 110.29399999999441,
      "v": 84
    },
    {
      "midi": 38,
      "hit": false,
      "t": 143713.08199999863,
      "d": 72.38043749998906,
      "v": 100
    },
    {
      "midi": 62,
      "hit": false,
      "t": 143713.0819999991,
      "d": 110.29399999999441,
      "v": 84
    },
    {
      "midi": 69,
      "hit": false,
      "t": 143809.5892499999,
      "d": 280.33058333332883,
      "v": 110
    },
    {
      "midi": 57,
      "hit": false,
      "t": 143809.5892499999,
      "d": 288.3728541666642,
      "v": 110
    },
    {
      "midi": 65,
      "hit": false,
      "t": 143809.58925000002,
      "d": 441.17600000000675,
      "v": 122
    },
    {
      "midi": 26,
      "hit": false,
      "t": 143823.37599999862,
      "d": 204.50345833334723,
      "v": 100
    },
    {
      "midi": 50,
      "hit": false,
      "t": 143823.3759999991,
      "d": 220.58799999998882,
      "v": 84
    },
    {
      "midi": 38,
      "hit": false,
      "t": 144043.96399999864,
      "d": 64.3381666666537,
      "v": 100
    },
    {
      "midi": 62,
      "hit": false,
      "t": 144043.96399999908,
      "d": 110.29399999999441,
      "v": 84
    },
    {
      "midi": 38,
      "hit": false,
      "t": 144154.25799999863,
      "d": 64.3381666666537,
      "v": 100
    },
    {
      "midi": 50,
      "hit": false,
      "t": 144154.25799999907,
      "d": 110.29399999999441,
      "v": 84
    },
    {
      "midi": 57,
      "hit": false,
      "t": 144250.7652499999,
      "d": 274.5861041666649,
      "v": 110
    },
    {
      "midi": 69,
      "hit": false,
      "t": 144250.7652499999,
      "d": 314.79745833334164,
      "v": 110
    },
    {
      "midi": 64,
      "hit": false,
      "t": 144250.76525000003,
      "d": 441.17599999997765,
      "v": 122
    },
    {
      "midi": 26,
      "hit": false,
      "t": 144264.55199999863,
      "d": 201.05677083332557,
      "v": 100
    },
    {
      "midi": 62,
      "hit": false,
      "t": 144264.55199999906,
      "d": 220.58799999998882,
      "v": 84
    },
    {
      "midi": 38,
      "hit": false,
      "t": 144485.13999999862,
      "d": 64.3381666666537,
      "v": 100
    },
    {
      "midi": 50,
      "hit": false,
      "t": 144485.13999999905,
      "d": 110.29399999999441,
      "v": 84
    },
    {
      "midi": 38,
      "hit": false,
      "t": 144595.4339999986,
      "d": 64.3381666666537,
      "v": 100
    },
    {
      "midi": 62,
      "hit": false,
      "t": 144595.43399999905,
      "d": 110.29399999999441,
      "v": 84
    },
    {
      "midi": 34,
      "hit": false,
      "t": 144677.00560416668,
      "d": 3453.580874999898,
      "v": 117
    },
    {
      "midi": 34,
      "hit": false,
      "t": 144689.64345833324,
      "d": 3336.3934999999183,
      "v": 121
    },
    {
      "midi": 70,
      "hit": false,
      "t": 144691.94124999992,
      "d": 85.01829166666721,
      "v": 110
    },
    {
      "midi": 58,
      "hit": false,
      "t": 144691.94124999992,
      "d": 93.06056250000256,
      "v": 110
    },
    {
      "midi": 62,
      "hit": false,
      "t": 144691.94125,
      "d": 220.58800000001793,
      "v": 122
    },
    {
      "midi": 22,
      "hit": false,
      "t": 144705.7279999986,
      "d": 218.29020833334653,
      "v": 100
    },
    {
      "midi": 46,
      "hit": false,
      "t": 144705.72799999904,
      "d": 225.18358333333163,
      "v": 84
    },
    {
      "midi": 70,
      "hit": false,
      "t": 144912.5292499999,
      "d": 275.73499999998603,
      "v": 110
    },
    {
      "midi": 58,
      "hit": false,
      "t": 144912.5292499999,
      "d": 291.81954166665673,
      "v": 110
    },
    {
      "midi": 58,
      "hit": false,
      "t": 144912.52925000002,
      "d": 220.58799999998882,
      "v": 122
    },
    {
      "midi": 34,
      "hit": false,
      "t": 144926.31599999862,
      "d": 64.3381666666537,
      "v": 100
    },
    {
      "midi": 58,
      "hit": false,
      "t": 144926.31599999903,
      "d": 110.29400000002352,
      "v": 84
    },
    {
      "midi": 34,
      "hit": false,
      "t": 145036.60999999862,
      "d": 64.3381666666537,
      "v": 100
    },
    {
      "midi": 46,
      "hit": false,
      "t": 145036.60999999905,
      "d": 110.29399999999441,
      "v": 84
    },
    {
      "midi": 62,
      "hit": false,
      "t": 145133.11725,
      "d": 240.11922916665208,
      "v": 122
    },
    {
      "midi": 22,
      "hit": false,
      "t": 145146.9039999986,
      "d": 228.63027083332418,
      "v": 100
    },
    {
      "midi": 58,
      "hit": false,
      "t": 145146.90399999905,
      "d": 220.58799999998882,
      "v": 84
    },
    {
      "midi": 70,
      "hit": false,
      "t": 145353.70524999988,
      "d": 104.54952083333046,
      "v": 110
    },
    {
      "midi": 58,
      "hit": false,
      "t": 145353.70524999988,
      "d": 125.22964583334397,
      "v": 110
    },
    {
      "midi": 64,
      "hit": false,
      "t": 145353.70525,
      "d": 220.58799999998882,
      "v": 122
    },
    {
      "midi": 34,
      "hit": false,
      "t": 145367.4919999986,
      "d": 64.33816666668281,
      "v": 100
    },
    {
      "midi": 46,
      "hit": false,
      "t": 145367.49199999904,
      "d": 110.29399999999441,
      "v": 84
    },
    {
      "midi": 34,
      "hit": false,
      "t": 145477.78599999862,
      "d": 64.3381666666537,
      "v": 100
    },
    {
      "midi": 58,
      "hit": false,
      "t": 145477.78599999903,
      "d": 110.29399999999441,
      "v": 84
    },
    {
      "midi": 70,
      "hit": false,
      "t": 145574.2932499999,
      "d": 279.1816875000077,
      "v": 110
    },
    {
      "midi": 58,
      "hit": false,
      "t": 145574.2932499999,
      "d": 299.8618125000212,
      "v": 110
    },
    {
      "midi": 65,
      "hit": false,
      "t": 145574.29325,
      "d": 240.11922916665208,
      "v": 122
    },
    {
      "midi": 22,
      "hit": false,
      "t": 145588.07999999862,
      "d": 210.24793750001118,
      "v": 100
    },
    {
      "midi": 46,
      "hit": false,
      "t": 145588.07999999903,
      "d": 225.18358333333163,
      "v": 84
    },
    {
      "midi": 64,
      "hit": false,
      "t": 145794.88124999998,
      "d": 220.58799999998882,
      "v": 122
    },
    {
      "midi": 34,
      "hit": false,
      "t": 145808.66799999864,
      "d": 64.3381666666537,
      "v": 100
    },
    {
      "midi": 58,
      "hit": false,
      "t": 145808.66799999902,
      "d": 110.29400000002352,
      "v": 84
    },
    {
      "midi": 34,
      "hit": false,
      "t": 145918.96199999863,
      "d": 64.3381666666537,
      "v": 100
    },
    {
      "midi": 46,
      "hit": false,
      "t": 145918.96199999904,
      "d": 124.08074999999371,
      "v": 84
    },
    {
      "midi": 70,
      "hit": false,
      "t": 146015.4692499999,
      "d": 91.91166666665231,
      "v": 110
    },
    {
      "midi": 58,
      "hit": false,
      "t": 146015.4692499999,
      "d": 120.63406249997206,
      "v": 110
    },
    {
      "midi": 65,
      "hit": false,
      "t": 146015.46924999997,
      "d": 220.58799999998882,
      "v": 122
    },
    {
      "midi": 22,
      "hit": false,
      "t": 146029.25599999863,
      "d": 210.24793750001118,
      "v": 100
    },
    {
      "midi": 70,
      "hit": false,
      "t": 146236.05724999987,
      "d": 264.24604166665813,
      "v": 110
    },
    {
      "midi": 58,
      "hit": false,
      "t": 146236.05724999987,
      "d": 273.43720833331463,
      "v": 110
    },
    {
      "midi": 67,
      "hit": false,
      "t": 146236.05724999995,
      "d": 220.58799999998882,
      "v": 122
    },
    {
      "midi": 34,
      "hit": false,
      "t": 146249.84399999864,
      "d": 64.3381666666537,
      "v": 100
    },
    {
      "midi": 46,
      "hit": false,
      "t": 146249.84399999902,
      "d": 110.29399999999441,
      "v": 84
    },
    {
      "midi": 34,
      "hit": false,
      "t": 146360.13799999864,
      "d": 64.3381666666537,
      "v": 100
    },
    {
      "midi": 58,
      "hit": false,
      "t": 146360.13799999902,
      "d": 118.33627083332976,
      "v": 84
    },
    {
      "midi": 65,
      "hit": false,
      "t": 146456.64524999994,
      "d": 257.3526666666439,
      "v": 122
    },
    {
      "midi": 22,
      "hit": false,
      "t": 146470.43199999863,
      "d": 220.58799999998882,
      "v": 100
    },
    {
      "midi": 46,
      "hit": false,
      "t": 146470.431999999,
      "d": 225.18358333333163,
      "v": 84
    },
    {
      "midi": 58,
      "hit": false,
      "t": 146677.23324999984,
      "d": 89.61387500001001,
      "v": 110
    },
    {
      "midi": 70,
      "hit": false,
      "t": 146677.23324999984,
      "d": 107.99620833335212,
      "v": 110
    },
    {
      "midi": 67,
      "hit": false,
      "t": 146677.23324999993,
      "d": 220.58799999998882,
      "v": 122
    },
    {
      "midi": 34,
      "hit": false,
      "t": 146691.01999999862,
      "d": 64.3381666666537,
      "v": 100
    },
    {
      "midi": 58,
      "hit": false,
      "t": 146691.019999999,
      "d": 110.29400000002352,
      "v": 84
    },
    {
      "midi": 34,
      "hit": false,
      "t": 146801.31399999862,
      "d": 64.3381666666537,
      "v": 100
    },
    {
      "midi": 46,
      "hit": false,
      "t": 146801.31399999902,
      "d": 113.74068749998696,
      "v": 84
    },
    {
      "midi": 70,
      "hit": false,
      "t": 146897.82124999986,
      "d": 264.24604166665813,
      "v": 110
    },
    {
      "midi": 58,
      "hit": false,
      "t": 146897.82124999986,
      "d": 279.1816874999786,
      "v": 110
    },
    {
      "midi": 69,
      "hit": false,
      "t": 146897.82124999992,
      "d": 251.60818749997998,
      "v": 122
    },
    {
      "midi": 22,
      "hit": false,
      "t": 146911.6079999986,
      "d": 207.95014583333977,
      "v": 100
    },
    {
      "midi": 58,
      "hit": false,
      "t": 146911.60799999902,
      "d": 220.58799999998882,
      "v": 84
    },
    {
      "midi": 67,
      "hit": false,
      "t": 147118.4092499999,
      "d": 233.22585416666698,
      "v": 122
    },
    {
      "midi": 34,
      "hit": false,
      "t": 147132.19599999863,
      "d": 64.3381666666537,
      "v": 100
    },
    {
      "midi": 46,
      "hit": false,
      "t": 147132.195999999,
      "d": 110.29399999999441,
      "v": 84
    },
    {
      "midi": 34,
      "hit": false,
      "t": 147242.48999999862,
      "d": 64.3381666666537,
      "v": 100
    },
    {
      "midi": 58,
      "hit": false,
      "t": 147242.489999999,
      "d": 110.29399999999441,
      "v": 84
    },
    {
      "midi": 70,
      "hit": false,
      "t": 147338.99724999984,
      "d": 261.94824999998673,
      "v": 110
    },
    {
      "midi": 58,
      "hit": false,
      "t": 147338.99724999984,
      "d": 269.9905208333221,
      "v": 110
    },
    {
      "midi": 65,
      "hit": false,
      "t": 147338.9972499999,
      "d": 446.9204791666707,
      "v": 122
    },
    {
      "midi": 22,
      "hit": false,
      "t": 147352.78399999862,
      "d": 240.11922916665208,
      "v": 100
    },
    {
      "midi": 46,
      "hit": false,
      "t": 147352.783999999,
      "d": 228.63027083332418,
      "v": 84
    },
    {
      "midi": 34,
      "hit": false,
      "t": 147573.3719999986,
      "d": 64.3381666666537,
      "v": 100
    },
    {
      "midi": 58,
      "hit": false,
      "t": 147573.37199999898,
      "d": 110.29399999999441,
      "v": 84
    },
    {
      "midi": 34,
      "hit": false,
      "t": 147683.6659999986,
      "d": 64.3381666666537,
      "v": 100
    },
    {
      "midi": 46,
      "hit": false,
      "t": 147683.66599999898,
      "d": 125.22964583331486,
      "v": 84
    },
    {
      "midi": 70,
      "hit": false,
      "t": 147780.17324999982,
      "d": 217.14131249999627,
      "v": 110
    },
    {
      "midi": 58,
      "hit": false,
      "t": 147780.17324999982,
      "d": 237.82143750000978,
      "v": 110
    },
    {
      "midi": 64,
      "hit": false,
      "t": 147780.1732499999,
      "d": 441.17600000000675,
      "v": 122
    },
    {
      "midi": 22,
      "hit": false,
      "t": 147793.9599999986,
      "d": 188.41891666667652,
      "v": 100
    },
    {
      "midi": 58,
      "hit": false,
      "t": 147793.95999999897,
      "d": 220.58799999998882,
      "v": 84
    },
    {
      "midi": 34,
      "hit": false,
      "t": 148014.5479999986,
      "d": 64.3381666666537,
      "v": 100
    },
    {
      "midi": 46,
      "hit": false,
      "t": 148014.54799999896,
      "d": 110.29399999999441,
      "v": 84
    },
    {
      "midi": 34,
      "hit": false,
      "t": 148124.8419999986,
      "d": 64.3381666666537,
      "v": 100
    },
    {
      "midi": 58,
      "hit": false,
      "t": 148124.84199999896,
      "d": 110.29399999999441,
      "v": 84
    },
    {
      "midi": 26,
      "hit": false,
      "t": 148235.1359999986,
      "d": 230.92806249999558,
      "v": 100
    },
    {
      "midi": 38,
      "hit": false,
      "t": 148235.13599999895,
      "d": 220.58799999998882,
      "v": 84
    },
    {
      "midi": 57,
      "hit": false,
      "t": 148235.13599999997,
      "d": 60.891479166661156,
      "v": 123
    },
    {
      "midi": 57,
      "hit": false,
      "t": 148345.42999999996,
      "d": 71.23154166666791,
      "v": 123
    },
    {
      "midi": 38,
      "hit": false,
      "t": 148455.7239999986,
      "d": 64.33816666668281,
      "v": 100
    },
    {
      "midi": 50,
      "hit": false,
      "t": 148455.72399999894,
      "d": 110.29399999999441,
      "v": 84
    },
    {
      "midi": 57,
      "hit": false,
      "t": 148455.72399999996,
      "d": 67.78485416667536,
      "v": 120
    },
    {
      "midi": 38,
      "hit": false,
      "t": 148566.0179999986,
      "d": 74.67822916666046,
      "v": 100
    },
    {
      "midi": 38,
      "hit": false,
      "t": 148566.01799999893,
      "d": 117.18737500000861,
      "v": 84
    },
    {
      "midi": 57,
      "hit": false,
      "t": 148566.01799999995,
      "d": 76.97602083333186,
      "v": 117
    },
    {
      "midi": 26,
      "hit": false,
      "t": 148676.3119999986,
      "d": 215.99241666667513,
      "v": 100
    },
    {
      "midi": 50,
      "hit": false,
      "t": 148676.31199999893,
      "d": 225.18358333336073,
      "v": 84
    },
    {
      "midi": 57,
      "hit": false,
      "t": 148676.31199999995,
      "d": 103.40062500000931,
      "v": 125
    },
    {
      "midi": 38,
      "hit": false,
      "t": 148896.89999999863,
      "d": 64.3381666666537,
      "v": 100
    },
    {
      "midi": 38,
      "hit": false,
      "t": 148896.89999999895,
      "d": 112.59179166669492,
      "v": 84
    },
    {
      "midi": 57,
      "hit": false,
      "t": 148896.89999999997,
      "d": 94.20945833332371,
      "v": 123
    },
    {
      "midi": 38,
      "hit": false,
      "t": 149007.19399999862,
      "d": 64.3381666666537,
      "v": 100
    },
    {
      "midi": 50,
      "hit": false,
      "t": 149007.19399999897,
      "d": 127.52743749998626,
      "v": 84
    },
    {
      "midi": 26,
      "hit": false,
      "t": 149117.48799999862,
      "d": 222.88579166666023,
      "v": 100
    },
    {
      "midi": 38,
      "hit": false,
      "t": 149117.48799999896,
      "d": 250.45929166665883,
      "v": 84
    },
    {
      "midi": 57,
      "hit": false,
      "t": 149117.48799999995,
      "d": 78.12491666665301,
      "v": 125
    },
    {
      "midi": 38,
      "hit": false,
      "t": 149338.0759999986,
      "d": 64.33816666668281,
      "v": 100
    },
    {
      "midi": 50,
      "hit": false,
      "t": 149338.07599999895,
      "d": 110.29399999999441,
      "v": 84
    },
    {
      "midi": 57,
      "hit": false,
      "t": 149338.07599999994,
      "d": 101.10283333333791,
      "v": 123
    },
    {
      "midi": 38,
      "hit": false,
      "t": 149448.36999999863,
      "d": 64.3381666666537,
      "v": 100
    },
    {
      "midi": 38,
      "hit": false,
      "t": 149448.36999999895,
      "d": 114.88958333333721,
      "v": 84
    },
    {
      "midi": 26,
      "hit": false,
      "t": 149558.66399999862,
      "d": 218.29020833334653,
      "v": 100
    },
    {
      "midi": 50,
      "hit": false,
      "t": 149558.66399999894,
      "d": 234.37475000001723,
      "v": 84
    },
    {
      "midi": 57,
      "hit": false,
      "t": 149558.66399999996,
      "d": 90.76277083333116,
      "v": 125
    },
    {
      "midi": 38,
      "hit": false,
      "t": 149779.25199999864,
      "d": 64.3381666666537,
      "v": 100
    },
    {
      "midi": 38,
      "hit": false,
      "t": 149779.25199999896,
      "d": 110.29399999999441,
      "v": 84
    },
    {
      "midi": 57,
      "hit": false,
      "t": 149779.25199999995,
      "d": 94.20945833332371,
      "v": 126
    },
    {
      "midi": 38,
      "hit": false,
      "t": 149889.54599999863,
      "d": 64.3381666666537,
      "v": 100
    },
    {
      "midi": 50,
      "hit": false,
      "t": 149889.54599999895,
      "d": 120.63406250000116,
      "v": 84
    },
    {
      "midi": 26,
      "hit": false,
      "t": 149999.83999999863,
      "d": 215.99241666667513,
      "v": 100
    },
    {
      "midi": 38,
      "hit": false,
      "t": 149999.83999999895,
      "d": 257.35266666667303,
      "v": 84
    },
    {
      "midi": 57,
      "hit": false,
      "t": 149999.83999999994,
      "d": 156.24983333333512,
      "v": 126
    },
    {
      "midi": 38,
      "hit": false,
      "t": 150220.42799999865,
      "d": 64.3381666666537,
      "v": 100
    },
    {
      "midi": 50,
      "hit": false,
      "t": 150220.42799999897,
      "d": 110.29399999999441,
      "v": 84
    },
    {
      "midi": 38,
      "hit": false,
      "t": 150330.72199999864,
      "d": 64.3381666666537,
      "v": 100
    },
    {
      "midi": 38,
      "hit": false,
      "t": 150330.72199999896,
      "d": 117.18737500000861,
      "v": 84
    },
    {
      "midi": 57,
      "hit": false,
      "t": 150330.72199999995,
      "d": 127.52743749998626,
      "v": 125
    },
    {
      "midi": 26,
      "hit": false,
      "t": 150441.01599999864,
      "d": 224.03468749998137,
      "v": 100
    },
    {
      "midi": 50,
      "hit": false,
      "t": 150441.01599999896,
      "d": 238.97033333336003,
      "v": 84
    },
    {
      "midi": 38,
      "hit": false,
      "t": 150661.60399999862,
      "d": 64.3381666666537,
      "v": 100
    },
    {
      "midi": 38,
      "hit": false,
      "t": 150661.60399999897,
      "d": 110.29399999999441,
      "v": 84
    },
    {
      "midi": 57,
      "hit": false,
      "t": 150661.60399999993,
      "d": 88.46497916665976,
      "v": 123
    },
    {
      "midi": 38,
      "hit": false,
      "t": 150771.89799999862,
      "d": 74.67822916666046,
      "v": 100
    },
    {
      "midi": 50,
      "hit": false,
      "t": 150771.89799999897,
      "d": 116.03847916665836,
      "v": 84
    },
    {
      "midi": 26,
      "hit": false,
      "t": 150882.1919999986,
      "d": 221.73689583330997,
      "v": 100
    },
    {
      "midi": 38,
      "hit": false,
      "t": 150882.19199999896,
      "d": 220.58799999998882,
      "v": 84
    },
    {
      "midi": 57,
      "hit": false,
      "t": 150882.19199999992,
      "d": 102.25172916665906,
      "v": 126
    },
    {
      "midi": 38,
      "hit": false,
      "t": 151102.7799999986,
      "d": 64.3381666666537,
      "v": 100
    },
    {
      "midi": 50,
      "hit": false,
      "t": 151102.77999999895,
      "d": 113.74068749998696,
      "v": 84
    },
    {
      "midi": 60,
      "hit": false,
      "t": 151102.7799999999,
      "d": 111.44289583334466,
      "v": 125
    },
    {
      "midi": 38,
      "hit": false,
      "t": 151213.0739999986,
      "d": 71.23154166666791,
      "v": 100
    },
    {
      "midi": 38,
      "hit": false,
      "t": 151213.07399999895,
      "d": 110.29399999999441,
      "v": 84
    },
    {
      "midi": 26,
      "hit": false,
      "t": 151323.3679999986,
      "d": 196.46118750001187,
      "v": 100
    },
    {
      "midi": 50,
      "hit": false,
      "t": 151323.36799999894,
      "d": 220.58799999998882,
      "v": 84
    },
    {
      "midi": 57,
      "hit": false,
      "t": 151323.36799999993,
      "d": 219.43910416666768,
      "v": 125
    },
    {
      "midi": 38,
      "hit": false,
      "t": 151543.9559999986,
      "d": 64.3381666666537,
      "v": 100
    },
    {
      "midi": 38,
      "hit": false,
      "t": 151543.95599999893,
      "d": 110.29399999999441,
      "v": 84
    },
    {
      "midi": 38,
      "hit": false,
      "t": 151654.2499999986,
      "d": 64.3381666666537,
      "v": 100
    },
    {
      "midi": 50,
      "hit": false,
      "t": 151654.24999999892,
      "d": 110.29399999999441,
      "v": 84
    },
    {
      "midi": 21,
      "hit": false,
      "t": 151764.5439999986,
      "d": 235.52364583330927,
      "v": 100
    },
    {
      "midi": 33,
      "hit": false,
      "t": 151764.54399999892,
      "d": 247.01260416666628,
      "v": 84
    },
    {
      "midi": 57,
      "hit": false,
      "t": 151764.54399999994,
      "d": 219.43910416666768,
      "v": 123
    },
    {
      "midi": 33,
      "hit": false,
      "t": 151985.1319999986,
      "d": 64.3381666666537,
      "v": 100
    },
    {
      "midi": 45,
      "hit": false,
      "t": 151985.1319999989,
      "d": 110.29400000002352,
      "v": 84
    },
    {
      "midi": 33,
      "hit": false,
      "t": 152095.42599999858,
      "d": 64.3381666666537,
      "v": 100
    },
    {
      "midi": 33,
      "hit": false,
      "t": 152095.42599999893,
      "d": 113.74068749998696,
      "v": 84
    },
    {
      "midi": 57,
      "hit": false,
      "t": 152095.42599999995,
      "d": 66.6359583333251,
      "v": 123
    },
    {
      "midi": 21,
      "hit": false,
      "t": 152205.71999999858,
      "d": 247.01260416666628,
      "v": 100
    },
    {
      "midi": 45,
      "hit": false,
      "t": 152205.71999999892,
      "d": 220.58799999998882,
      "v": 84
    },
    {
      "midi": 57,
      "hit": false,
      "t": 152205.71999999994,
      "d": 66.6359583333251,
      "v": 120
    },
    {
      "midi": 57,
      "hit": false,
      "t": 152316.01399999994,
      "d": 71.23154166666791,
      "v": 75
    },
    {
      "midi": 33,
      "hit": false,
      "t": 152426.30799999856,
      "d": 64.33816666668281,
      "v": 100
    },
    {
      "midi": 33,
      "hit": false,
      "t": 152426.3079999989,
      "d": 110.29399999999441,
      "v": 84
    },
    {
      "midi": 57,
      "hit": false,
      "t": 152426.30799999993,
      "d": 109.14510416667326,
      "v": 125
    },
    {
      "midi": 33,
      "hit": false,
      "t": 152536.6019999986,
      "d": 64.3381666666537,
      "v": 100
    },
    {
      "midi": 45,
      "hit": false,
      "t": 152536.6019999989,
      "d": 110.29399999999441,
      "v": 84
    },
    {
      "midi": 21,
      "hit": false,
      "t": 152646.89599999858,
      "d": 213.69462500000373,
      "v": 100
    },
    {
      "midi": 33,
      "hit": false,
      "t": 152646.8959999989,
      "d": 238.97033333333093,
      "v": 84
    },
    {
      "midi": 57,
      "hit": false,
      "t": 152646.89599999995,
      "d": 86.16718749998836,
      "v": 126
    },
    {
      "midi": 33,
      "hit": false,
      "t": 152867.4839999986,
      "d": 64.3381666666537,
      "v": 100
    },
    {
      "midi": 45,
      "hit": false,
      "t": 152867.4839999989,
      "d": 110.29399999999441,
      "v": 84
    },
    {
      "midi": 57,
      "hit": false,
      "t": 152867.48399999994,
      "d": 88.46497916665976,
      "v": 123
    },
    {
      "midi": 33,
      "hit": false,
      "t": 152977.7779999986,
      "d": 64.3381666666537,
      "v": 100
    },
    {
      "midi": 33,
      "hit": false,
      "t": 152977.77799999889,
      "d": 112.59179166666581,
      "v": 84
    },
    {
      "midi": 21,
      "hit": false,
      "t": 153088.0719999986,
      "d": 240.11922916665208,
      "v": 100
    },
    {
      "midi": 45,
      "hit": false,
      "t": 153088.07199999888,
      "d": 220.58800000001793,
      "v": 84
    },
    {
      "midi": 57,
      "hit": false,
      "t": 153088.07199999993,
      "d": 89.61387500001001,
      "v": 120
    },
    {
      "midi": 33,
      "hit": false,
      "t": 153308.65999999858,
      "d": 64.3381666666537,
      "v": 100
    },
    {
      "midi": 33,
      "hit": false,
      "t": 153308.6599999989,
      "d": 110.29399999999441,
      "v": 84
    },
    {
      "midi": 57,
      "hit": false,
      "t": 153308.65999999995,
      "d": 88.46497916665976,
      "v": 120
    },
    {
      "midi": 33,
      "hit": false,
      "t": 153418.95399999857,
      "d": 66.6359583333251,
      "v": 100
    },
    {
      "midi": 45,
      "hit": false,
      "t": 153418.9539999989,
      "d": 117.18737500000861,
      "v": 84
    },
    {
      "midi": 22,
      "hit": false,
      "t": 153529.24799999857,
      "d": 221.73689583330997,
      "v": 100
    },
    {
      "midi": 34,
      "hit": false,
      "t": 153529.2479999989,
      "d": 225.18358333336073,
      "v": 84
    },
    {
      "midi": 55,
      "hit": false,
      "t": 153529.24799999993,
      "d": 184.97222916665487,
      "v": 123
    },
    {
      "midi": 34,
      "hit": false,
      "t": 153749.83599999856,
      "d": 64.3381666666537,
      "v": 100
    },
    {
      "midi": 46,
      "hit": false,
      "t": 153749.8359999989,
      "d": 110.29400000002352,
      "v": 84
    },
    {
      "midi": 34,
      "hit": false,
      "t": 153860.12999999855,
      "d": 64.3381666666537,
      "v": 100
    },
    {
      "midi": 34,
      "hit": false,
      "t": 153860.12999999893,
      "d": 127.52743749998626,
      "v": 84
    },
    {
      "midi": 55,
      "hit": false,
      "t": 153860.12999999992,
      "d": 144.76087500000722,
      "v": 123
    },
    {
      "midi": 22,
      "hit": false,
      "t": 153970.42399999854,
      "d": 234.37474999998813,
      "v": 100
    },
    {
      "midi": 46,
      "hit": false,
      "t": 153970.42399999892,
      "d": 220.58799999998882,
      "v": 84
    },
    {
      "midi": 34,
      "hit": false,
      "t": 154191.01199999853,
      "d": 64.3381666666537,
      "v": 100
    },
    {
      "midi": 34,
      "hit": false,
      "t": 154191.0119999989,
      "d": 110.29399999999441,
      "v": 84
    },
    {
      "midi": 53,
      "hit": false,
      "t": 154191.01199999993,
      "d": 127.52743749998626,
      "v": 123
    },
    {
      "midi": 34,
      "hit": false,
      "t": 154301.30599999853,
      "d": 64.3381666666537,
      "v": 100
    },
    {
      "midi": 46,
      "hit": false,
      "t": 154301.3059999989,
      "d": 110.29399999999441,
      "v": 84
    },
    {
      "midi": 22,
      "hit": false,
      "t": 154411.59999999852,
      "d": 211.39683333333232,
      "v": 100
    },
    {
      "midi": 34,
      "hit": false,
      "t": 154411.5999999989,
      "d": 227.48137500000303,
      "v": 84
    },
    {
      "midi": 53,
      "hit": false,
      "t": 154411.59999999992,
      "d": 345.8176458333328,
      "v": 120
    },
    {
      "midi": 34,
      "hit": false,
      "t": 154632.1879999985,
      "d": 64.3381666666537,
      "v": 100
    },
    {
      "midi": 46,
      "hit": false,
      "t": 154632.1879999989,
      "d": 114.88958333336632,
      "v": 84
    },
    {
      "midi": 34,
      "hit": false,
      "t": 154742.4819999985,
      "d": 64.3381666666537,
      "v": 100
    },
    {
      "midi": 34,
      "hit": false,
      "t": 154742.4819999989,
      "d": 117.18737500003772,
      "v": 84
    },
    {
      "midi": 22,
      "hit": false,
      "t": 154852.7759999985,
      "d": 230.92806249999558,
      "v": 100
    },
    {
      "midi": 46,
      "hit": false,
      "t": 154852.77599999894,
      "d": 220.58800000001793,
      "v": 84
    },
    {
      "midi": 53,
      "hit": false,
      "t": 154852.77599999993,
      "d": 243.56591666664463,
      "v": 120
    },
    {
      "midi": 34,
      "hit": false,
      "t": 155073.3639999985,
      "d": 64.33816666668281,
      "v": 100
    },
    {
      "midi": 34,
      "hit": false,
      "t": 155073.36399999895,
      "d": 110.29399999999441,
      "v": 84
    },
    {
      "midi": 34,
      "hit": false,
      "t": 155183.6579999985,
      "d": 64.3381666666537,
      "v": 100
    },
    {
      "midi": 46,
      "hit": false,
      "t": 155183.65799999895,
      "d": 110.29399999999441,
      "v": 84
    },
    {
      "midi": 26,
      "hit": false,
      "t": 155293.9519999985,
      "d": 230.92806249999558,
      "v": 100
    },
    {
      "midi": 38,
      "hit": false,
      "t": 155293.95199999894,
      "d": 220.58799999998882,
      "v": 84
    },
    {
      "midi": 57,
      "hit": false,
      "t": 155293.95199999987,
      "d": 64.33816666668281,
      "v": 125
    },
    {
      "midi": 57,
      "hit": false,
      "t": 155404.2459999999,
      "d": 75.82712500001071,
      "v": 123
    },
    {
      "midi": 38,
      "hit": false,
      "t": 155514.5399999985,
      "d": 64.33816666668281,
      "v": 100
    },
    {
      "midi": 50,
      "hit": false,
      "t": 155514.53999999893,
      "d": 110.29399999999441,
      "v": 84
    },
    {
      "midi": 57,
      "hit": false,
      "t": 155514.53999999992,
      "d": 60.891479166661156,
      "v": 123
    },
    {
      "midi": 38,
      "hit": false,
      "t": 155624.83399999852,
      "d": 74.67822916666046,
      "v": 100
    },
    {
      "midi": 38,
      "hit": false,
      "t": 155624.83399999893,
      "d": 117.18737500000861,
      "v": 84
    },
    {
      "midi": 57,
      "hit": false,
      "t": 155624.83399999992,
      "d": 75.82712500001071,
      "v": 123
    },
    {
      "midi": 26,
      "hit": false,
      "t": 155735.1279999985,
      "d": 215.99241666667513,
      "v": 100
    },
    {
      "midi": 50,
      "hit": false,
      "t": 155735.12799999892,
      "d": 225.18358333336073,
      "v": 84
    },
    {
      "midi": 57,
      "hit": false,
      "t": 155735.12799999994,
      "d": 82.72049999999581,
      "v": 125
    },
    {
      "midi": 38,
      "hit": false,
      "t": 155955.71599999853,
      "d": 64.3381666666537,
      "v": 100
    },
    {
      "midi": 38,
      "hit": false,
      "t": 155955.71599999894,
      "d": 112.59179166669492,
      "v": 84
    },
    {
      "midi": 57,
      "hit": false,
      "t": 155955.71599999993,
      "d": 96.50724999999511,
      "v": 125
    },
    {
      "midi": 38,
      "hit": false,
      "t": 156066.00999999853,
      "d": 64.3381666666537,
      "v": 100
    },
    {
      "midi": 50,
      "hit": false,
      "t": 156066.00999999896,
      "d": 127.52743749998626,
      "v": 84
    },
    {
      "midi": 26,
      "hit": false,
      "t": 156176.30399999852,
      "d": 222.88579166666023,
      "v": 100
    },
    {
      "midi": 38,
      "hit": false,
      "t": 156176.30399999896,
      "d": 250.45929166665883,
      "v": 84
    },
    {
      "midi": 57,
      "hit": false,
      "t": 156176.30399999992,
      "d": 76.97602083333186,
      "v": 125
    },
    {
      "midi": 38,
      "hit": false,
      "t": 156396.8919999985,
      "d": 64.33816666668281,
      "v": 100
    },
    {
      "midi": 50,
      "hit": false,
      "t": 156396.89199999894,
      "d": 110.29399999999441,
      "v": 84
    },
    {
      "midi": 57,
      "hit": false,
      "t": 156396.8919999999,
      "d": 82.72049999999581,
      "v": 123
    },
    {
      "midi": 38,
      "hit": false,
      "t": 156507.18599999853,
      "d": 64.3381666666537,
      "v": 100
    },
    {
      "midi": 38,
      "hit": false,
      "t": 156507.18599999894,
      "d": 114.88958333333721,
      "v": 84
    },
    {
      "midi": 26,
      "hit": false,
      "t": 156617.47999999853,
      "d": 218.29020833334653,
      "v": 100
    },
    {
      "midi": 50,
      "hit": false,
      "t": 156617.47999999893,
      "d": 234.37475000001723,
      "v": 84
    },
    {
      "midi": 57,
      "hit": false,
      "t": 156617.4799999999,
      "d": 62.04037500001141,
      "v": 123
    },
    {
      "midi": 57,
      "hit": false,
      "t": 156727.77399999992,
      "d": 78.12491666665301,
      "v": 125
    },
    {
      "midi": 38,
      "hit": false,
      "t": 156838.06799999854,
      "d": 64.3381666666537,
      "v": 100
    },
    {
      "midi": 38,
      "hit": false,
      "t": 156838.06799999895,
      "d": 110.29399999999441,
      "v": 84
    },
    {
      "midi": 57,
      "hit": false,
      "t": 156838.0679999999,
      "d": 70.08264583334676,
      "v": 127
    },
    {
      "midi": 38,
      "hit": false,
      "t": 156948.36199999854,
      "d": 64.3381666666537,
      "v": 100
    },
    {
      "midi": 50,
      "hit": false,
      "t": 156948.36199999895,
      "d": 120.63406250000116,
      "v": 84
    },
    {
      "midi": 26,
      "hit": false,
      "t": 157058.65599999853,
      "d": 215.99241666667513,
      "v": 100
    },
    {
      "midi": 38,
      "hit": false,
      "t": 157058.65599999894,
      "d": 257.35266666667303,
      "v": 84
    },
    {
      "midi": 57,
      "hit": false,
      "t": 157058.65599999993,
      "d": 106.84731250000186,
      "v": 125
    },
    {
      "midi": 38,
      "hit": false,
      "t": 157279.24399999855,
      "d": 64.3381666666537,
      "v": 100
    },
    {
      "midi": 50,
      "hit": false,
      "t": 157279.24399999896,
      "d": 110.29399999999441,
      "v": 84
    },
    {
      "midi": 38,
      "hit": false,
      "t": 157389.53799999855,
      "d": 64.3381666666537,
      "v": 100
    },
    {
      "midi": 38,
      "hit": false,
      "t": 157389.53799999895,
      "d": 117.18737500000861,
      "v": 84
    },
    {
      "midi": 57,
      "hit": false,
      "t": 157389.53799999994,
      "d": 101.10283333333791,
      "v": 125
    },
    {
      "midi": 26,
      "hit": false,
      "t": 157499.83199999854,
      "d": 224.03468749998137,
      "v": 100
    },
    {
      "midi": 50,
      "hit": false,
      "t": 157499.83199999895,
      "d": 238.97033333336003,
      "v": 84
    },
    {
      "midi": 38,
      "hit": false,
      "t": 157720.41999999853,
      "d": 64.3381666666537,
      "v": 100
    },
    {
      "midi": 38,
      "hit": false,
      "t": 157720.41999999897,
      "d": 110.29399999999441,
      "v": 84
    },
    {
      "midi": 57,
      "hit": false,
      "t": 157720.41999999995,
      "d": 82.72049999999581,
      "v": 123
    },
    {
      "midi": 50,
      "hit": false,
      "t": 157830.71399999896,
      "d": 116.03847916665836,
      "v": 84
    },
    {
      "midi": 26,
      "hit": false,
      "t": 157941.00799999852,
      "d": 221.73689583330997,
      "v": 100
    },
    {
      "midi": 38,
      "hit": false,
      "t": 157941.00799999895,
      "d": 220.58799999998882,
      "v": 84
    },
    {
      "midi": 57,
      "hit": false,
      "t": 157941.00799999994,
      "d": 87.31608333333861,
      "v": 123
    },
    {
      "midi": 38,
      "hit": false,
      "t": 158161.5959999985,
      "d": 64.3381666666537,
      "v": 100
    },
    {
      "midi": 50,
      "hit": false,
      "t": 158161.59599999894,
      "d": 113.74068749998696,
      "v": 84
    },
    {
      "midi": 60,
      "hit": false,
      "t": 158161.59599999996,
      "d": 87.31608333333861,
      "v": 123
    },
    {
      "midi": 38,
      "hit": false,
      "t": 158271.8899999985,
      "d": 71.23154166666791,
      "v": 100
    },
    {
      "midi": 38,
      "hit": false,
      "t": 158271.88999999894,
      "d": 110.29399999999441,
      "v": 84
    },
    {
      "midi": 26,
      "hit": false,
      "t": 158382.1839999985,
      "d": 196.46118750001187,
      "v": 100
    },
    {
      "midi": 50,
      "hit": false,
      "t": 158382.18399999893,
      "d": 220.58799999998882,
      "v": 84
    },
    {
      "midi": 57,
      "hit": false,
      "t": 158382.18399999998,
      "d": 238.97033333333093,
      "v": 120
    },
    {
      "midi": 38,
      "hit": false,
      "t": 158602.7719999985,
      "d": 64.3381666666537,
      "v": 100
    },
    {
      "midi": 38,
      "hit": false,
      "t": 158602.77199999892,
      "d": 110.29399999999441,
      "v": 84
    },
    {
      "midi": 38,
      "hit": false,
      "t": 158713.0659999985,
      "d": 64.3381666666537,
      "v": 100
    },
    {
      "midi": 50,
      "hit": false,
      "t": 158713.06599999891,
      "d": 110.29399999999441,
      "v": 84
    },
    {
      "midi": 21,
      "hit": false,
      "t": 158823.3599999985,
      "d": 235.52364583330927,
      "v": 100
    },
    {
      "midi": 33,
      "hit": false,
      "t": 158823.3599999989,
      "d": 247.01260416666628,
      "v": 84
    },
    {
      "midi": 57,
      "hit": false,
      "t": 158823.36,
      "d": 65.48706250000396,
      "v": 123
    },
    {
      "midi": 33,
      "hit": false,
      "t": 159043.9479999985,
      "d": 64.3381666666537,
      "v": 100
    },
    {
      "midi": 45,
      "hit": false,
      "t": 159043.9479999989,
      "d": 110.29400000002352,
      "v": 84
    },
    {
      "midi": 57,
      "hit": false,
      "t": 159043.948,
      "d": 57.44479166666861,
      "v": 110
    },
    {
      "midi": 33,
      "hit": false,
      "t": 159154.24199999848,
      "d": 64.3381666666537,
      "v": 100
    },
    {
      "midi": 33,
      "hit": false,
      "t": 159154.24199999892,
      "d": 113.74068749998696,
      "v": 84
    },
    {
      "midi": 57,
      "hit": false,
      "t": 159154.242,
      "d": 74.67822916666046,
      "v": 125
    },
    {
      "midi": 21,
      "hit": false,
      "t": 159264.53599999848,
      "d": 247.01260416666628,
      "v": 100
    },
    {
      "midi": 45,
      "hit": false,
      "t": 159264.53599999892,
      "d": 220.58799999998882,
      "v": 84
    },
    {
      "midi": 57,
      "hit": false,
      "t": 159264.536,
      "d": 73.52933333333931,
      "v": 125
    },
    {
      "midi": 33,
      "hit": false,
      "t": 159485.12399999847,
      "d": 64.33816666668281,
      "v": 100
    },
    {
      "midi": 33,
      "hit": false,
      "t": 159485.1239999989,
      "d": 110.29399999999441,
      "v": 84
    },
    {
      "midi": 57,
      "hit": false,
      "t": 159485.124,
      "d": 85.01829166666721,
      "v": 125
    },
    {
      "midi": 33,
      "hit": false,
      "t": 159595.4179999985,
      "d": 64.3381666666537,
      "v": 100
    },
    {
      "midi": 45,
      "hit": false,
      "t": 159595.4179999989,
      "d": 110.29399999999441,
      "v": 84
    },
    {
      "midi": 21,
      "hit": false,
      "t": 159705.7119999985,
      "d": 213.69462500000373,
      "v": 100
    },
    {
      "midi": 33,
      "hit": false,
      "t": 159705.7119999989,
      "d": 238.97033333333093,
      "v": 84
    },
    {
      "midi": 57,
      "hit": false,
      "t": 159705.712,
      "d": 86.16718749998836,
      "v": 120
    },
    {
      "midi": 33,
      "hit": false,
      "t": 159926.2999999985,
      "d": 64.3381666666537,
      "v": 100
    },
    {
      "midi": 45,
      "hit": false,
      "t": 159926.29999999888,
      "d": 110.29399999999441,
      "v": 84
    },
    {
      "midi": 57,
      "hit": false,
      "t": 159926.3,
      "d": 88.46497916665976,
      "v": 120
    },
    {
      "midi": 33,
      "hit": false,
      "t": 160036.5939999985,
      "d": 64.3381666666537,
      "v": 100
    },
    {
      "midi": 33,
      "hit": false,
      "t": 160036.59399999888,
      "d": 112.59179166666581,
      "v": 84
    },
    {
      "midi": 21,
      "hit": false,
      "t": 160146.8879999985,
      "d": 240.11922916665208,
      "v": 100
    },
    {
      "midi": 45,
      "hit": false,
      "t": 160146.88799999887,
      "d": 220.58800000001793,
      "v": 84
    },
    {
      "midi": 57,
      "hit": false,
      "t": 160146.88799999998,
      "d": 87.31608333333861,
      "v": 123
    },
    {
      "midi": 33,
      "hit": false,
      "t": 160367.47599999848,
      "d": 64.3381666666537,
      "v": 100
    },
    {
      "midi": 33,
      "hit": false,
      "t": 160367.4759999989,
      "d": 110.29399999999441,
      "v": 84
    },
    {
      "midi": 57,
      "hit": false,
      "t": 160367.476,
      "d": 89.61387500001001,
      "v": 120
    },
    {
      "midi": 33,
      "hit": false,
      "t": 160477.76999999848,
      "d": 66.6359583333251,
      "v": 100
    },
    {
      "midi": 45,
      "hit": false,
      "t": 160477.76999999888,
      "d": 117.18737500000861,
      "v": 84
    },
    {
      "midi": 57,
      "hit": false,
      "t": 160588.064,
      "d": 367.64666666666744,
      "v": 127
    },
    {
      "midi": 79,
      "hit": false,
      "t": 160588.0640000001,
      "d": 1432.6731041666644,
      "v": 92
    },
    {
      "midi": 80,
      "hit": false,
      "t": 160588.0640000001,
      "d": 1433.8219999999856,
      "v": 92
    },
    {
      "midi": 37,
      "hit": false,
      "t": 160698.3580000001,
      "d": 1819.850999999995,
      "v": 90
    },
    {
      "midi": 81,
      "hit": false,
      "t": 161240.6368333334,
      "d": 37.913562500005355,
      "v": 112
    },
    {
      "midi": 83,
      "hit": false,
      "t": 161248.67910416675,
      "d": 37.913562500005355,
      "v": 95
    },
    {
      "midi": 66,
      "hit": false,
      "t": 161249.82800000007,
      "d": 1007.5816458333866,
      "v": 89
    },
    {
      "midi": 79,
      "hit": false,
      "t": 161256.72137500008,
      "d": 37.913562500005355,
      "v": 112
    },
    {
      "midi": 76,
      "hit": false,
      "t": 161268.2103333334,
      "d": 37.913562500005355,
      "v": 111
    },
    {
      "midi": 77,
      "hit": false,
      "t": 161268.2103333334,
      "d": 37.913562500005355,
      "v": 111
    },
    {
      "midi": 74,
      "hit": false,
      "t": 161298.08162500008,
      "d": 37.913562500005355,
      "v": 108
    },
    {
      "midi": 72,
      "hit": false,
      "t": 161316.46395833342,
      "d": 37.91356249997625,
      "v": 106
    },
    {
      "midi": 71,
      "hit": false,
      "t": 161337.1440833334,
      "d": 37.913562500005355,
      "v": 104
    },
    {
      "midi": 69,
      "hit": false,
      "t": 161356.67531250007,
      "d": 37.913562500005355,
      "v": 102
    },
    {
      "midi": 67,
      "hit": false,
      "t": 161380.80212500007,
      "d": 37.913562500005355,
      "v": 99
    },
    {
      "midi": 65,
      "hit": false,
      "t": 161404.92893750008,
      "d": 37.913562500005355,
      "v": 97
    },
    {
      "midi": 64,
      "hit": false,
      "t": 161429.0557500001,
      "d": 37.91356249997625,
      "v": 94
    },
    {
      "midi": 62,
      "hit": false,
      "t": 161457.7781458334,
      "d": 37.913562500005355,
      "v": 91
    },
    {
      "midi": 60,
      "hit": false,
      "t": 161488.7983333334,
      "d": 37.913562500005355,
      "v": 88
    },
    {
      "midi": 59,
      "hit": false,
      "t": 161518.66962500007,
      "d": 37.913562500005355,
      "v": 85
    },
    {
      "midi": 57,
      "hit": false,
      "t": 161551.98760416673,
      "d": 37.913562500005355,
      "v": 81
    },
    {
      "midi": 55,
      "hit": false,
      "t": 161588.7522708334,
      "d": 37.913562500005355,
      "v": 78
    },
    {
      "midi": 53,
      "hit": false,
      "t": 161624.36804166675,
      "d": 37.913562500005355,
      "v": 74
    },
    {
      "midi": 52,
      "hit": false,
      "t": 161659.98381250008,
      "d": 37.913562500005355,
      "v": 70
    },
    {
      "midi": 64,
      "hit": false,
      "t": 161691.00400000002,
      "d": 75.82712500001071,
      "v": 125
    },
    {
      "midi": 50,
      "hit": false,
      "t": 161694.4506875001,
      "d": 37.913562500005355,
      "v": 67
    },
    {
      "midi": 48,
      "hit": false,
      "t": 161724.32197916677,
      "d": 37.913562500005355,
      "v": 64
    },
    {
      "midi": 47,
      "hit": false,
      "t": 161754.19327083344,
      "d": 37.913562500005355,
      "v": 61
    },
    {
      "midi": 45,
      "hit": false,
      "t": 161784.0645625001,
      "d": 37.913562500005355,
      "v": 58
    },
    {
      "midi": 43,
      "hit": false,
      "t": 161812.78695833345,
      "d": 37.913562500005355,
      "v": 55
    },
    {
      "midi": 41,
      "hit": false,
      "t": 161842.65825000012,
      "d": 37.913562500005355,
      "v": 52
    },
    {
      "midi": 40,
      "hit": false,
      "t": 161875.9762291668,
      "d": 37.913562500005355,
      "v": 48
    },
    {
      "midi": 64,
      "hit": false,
      "t": 161911.59200000003,
      "d": 67.78485416667536,
      "v": 123
    },
    {
      "midi": 38,
      "hit": false,
      "t": 161912.74089583347,
      "d": 37.91356249997625,
      "v": 44
    },
    {
      "midi": 36,
      "hit": false,
      "t": 161950.65445833345,
      "d": 37.91356249997625,
      "v": 40
    },
    {
      "midi": 35,
      "hit": false,
      "t": 161987.4191250001,
      "d": 37.913562500005355,
      "v": 37
    },
    {
      "midi": 33,
      "hit": false,
      "t": 162023.03489583344,
      "d": 37.913562500005355,
      "v": 33
    },
    {
      "midi": 31,
      "hit": false,
      "t": 162062.09735416676,
      "d": 37.913562500005355,
      "v": 29
    },
    {
      "midi": 29,
      "hit": false,
      "t": 162097.7131250001,
      "d": 37.913562500005355,
      "v": 25
    },
    {
      "midi": 64,
      "hit": false,
      "t": 162132.18000000005,
      "d": 261.94824999998673,
      "v": 123
    },
    {
      "midi": 28,
      "hit": false,
      "t": 162141.37116666677,
      "d": 37.913562500005355,
      "v": 21
    },
    {
      "midi": 26,
      "hit": false,
      "t": 162190.7736875001,
      "d": 37.913562500005355,
      "v": 16
    },
    {
      "midi": 24,
      "hit": false,
      "t": 162236.72952083344,
      "d": 37.913562500005355,
      "v": 11
    },
    {
      "midi": 38,
      "hit": false,
      "t": 162352.76799999847,
      "d": 227.48137500000303,
      "v": 100
    },
    {
      "midi": 38,
      "hit": false,
      "t": 162352.7679999989,
      "d": 220.58799999998882,
      "v": 84
    },
    {
      "midi": 62,
      "hit": false,
      "t": 162352.76799999998,
      "d": 1764.703999999998,
      "v": 74
    },
    {
      "midi": 65,
      "hit": false,
      "t": 162352.76799999998,
      "d": 1764.703999999998,
      "v": 74
    },
    {
      "midi": 69,
      "hit": false,
      "t": 162352.76799999998,
      "d": 1764.703999999998,
      "v": 74
    },
    {
      "midi": 57,
      "hit": false,
      "t": 162352.768,
      "d": 1764.703999999998,
      "v": 75
    },
    {
      "midi": 62,
      "hit": false,
      "t": 162352.768,
      "d": 1764.703999999998,
      "v": 75
    },
    {
      "midi": 65,
      "hit": false,
      "t": 162352.768,
      "d": 1764.703999999998,
      "v": 75
    },
    {
      "midi": 81,
      "hit": false,
      "t": 162376.89481250002,
      "d": 13996.997937499982,
      "v": 82
    },
    {
      "midi": 93,
      "hit": false,
      "t": 162384.93708333335,
      "d": 13984.360083333304,
      "v": 82
    },
    {
      "midi": 50,
      "hit": false,
      "t": 162573.35599999846,
      "d": 64.33816666668281,
      "v": 100
    },
    {
      "midi": 50,
      "hit": false,
      "t": 162573.3559999989,
      "d": 110.29399999999441,
      "v": 84
    },
    {
      "midi": 62,
      "hit": false,
      "t": 162573.35600000003,
      "d": 64.3381666666537,
      "v": 120
    },
    {
      "midi": 50,
      "hit": false,
      "t": 162683.64999999848,
      "d": 102.25172916665906,
      "v": 100
    },
    {
      "midi": 38,
      "hit": false,
      "t": 162683.6499999989,
      "d": 119.48516666665091,
      "v": 84
    },
    {
      "midi": 38,
      "hit": false,
      "t": 162793.94399999848,
      "d": 245.86370833331603,
      "v": 100
    },
    {
      "midi": 50,
      "hit": false,
      "t": 162793.94399999888,
      "d": 220.58799999998882,
      "v": 84
    },
    {
      "midi": 62,
      "hit": false,
      "t": 162793.94400000002,
      "d": 581.3412916666712,
      "v": 120
    },
    {
      "midi": 50,
      "hit": false,
      "t": 163014.53199999846,
      "d": 64.3381666666537,
      "v": 100
    },
    {
      "midi": 38,
      "hit": false,
      "t": 163014.53199999887,
      "d": 110.29399999999441,
      "v": 84
    },
    {
      "midi": 50,
      "hit": false,
      "t": 163124.82599999846,
      "d": 91.91166666665231,
      "v": 100
    },
    {
      "midi": 50,
      "hit": false,
      "t": 163124.82599999887,
      "d": 120.63406250000116,
      "v": 84
    },
    {
      "midi": 38,
      "hit": false,
      "t": 163235.11999999845,
      "d": 266.54383333332953,
      "v": 100
    },
    {
      "midi": 38,
      "hit": false,
      "t": 163235.11999999886,
      "d": 220.58800000001793,
      "v": 84
    },
    {
      "midi": 50,
      "hit": false,
      "t": 163455.70799999844,
      "d": 64.33816666668281,
      "v": 100
    },
    {
      "midi": 50,
      "hit": false,
      "t": 163455.70799999888,
      "d": 110.29399999999441,
      "v": 84
    },
    {
      "midi": 64,
      "hit": false,
      "t": 163455.708,
      "d": 72.38043749998906,
      "v": 120
    },
    {
      "midi": 50,
      "hit": false,
      "t": 163566.00199999847,
      "d": 94.20945833332371,
      "v": 100
    },
    {
      "midi": 38,
      "hit": false,
      "t": 163566.00199999887,
      "d": 121.78295833332231,
      "v": 84
    },
    {
      "midi": 38,
      "hit": false,
      "t": 163676.29599999846,
      "d": 206.80124999998952,
      "v": 100
    },
    {
      "midi": 50,
      "hit": false,
      "t": 163676.29599999887,
      "d": 220.58799999998882,
      "v": 84
    },
    {
      "midi": 64,
      "hit": false,
      "t": 163676.296,
      "d": 75.82712500001071,
      "v": 120
    },
    {
      "midi": 50,
      "hit": false,
      "t": 163896.88399999845,
      "d": 64.3381666666537,
      "v": 100
    },
    {
      "midi": 38,
      "hit": false,
      "t": 163896.88399999886,
      "d": 110.29399999999441,
      "v": 84
    },
    {
      "midi": 64,
      "hit": false,
      "t": 163896.88400000002,
      "d": 295.2662291666784,
      "v": 120
    },
    {
      "midi": 50,
      "hit": false,
      "t": 164007.17799999844,
      "d": 64.3381666666537,
      "v": 100
    },
    {
      "midi": 50,
      "hit": false,
      "t": 164007.17799999885,
      "d": 117.18737500000861,
      "v": 84
    },
    {
      "midi": 34,
      "hit": false,
      "t": 164117.47199999844,
      "d": 209.09904166666092,
      "v": 100
    },
    {
      "midi": 34,
      "hit": false,
      "t": 164117.47199999884,
      "d": 220.58800000001793,
      "v": 84
    },
    {
      "midi": 58,
      "hit": false,
      "t": 164117.47199999998,
      "d": 1764.703999999998,
      "v": 74
    },
    {
      "midi": 62,
      "hit": false,
      "t": 164117.47199999998,
      "d": 1764.703999999998,
      "v": 74
    },
    {
      "midi": 65,
      "hit": false,
      "t": 164117.47199999998,
      "d": 1764.703999999998,
      "v": 74
    },
    {
      "midi": 58,
      "hit": false,
      "t": 164117.472,
      "d": 1764.703999999998,
      "v": 75
    },
    {
      "midi": 62,
      "hit": false,
      "t": 164117.472,
      "d": 1764.703999999998,
      "v": 75
    },
    {
      "midi": 65,
      "hit": false,
      "t": 164117.472,
      "d": 1764.703999999998,
      "v": 75
    },
    {
      "midi": 46,
      "hit": false,
      "t": 164338.05999999843,
      "d": 64.3381666666537,
      "v": 100
    },
    {
      "midi": 46,
      "hit": false,
      "t": 164338.05999999886,
      "d": 110.29399999999441,
      "v": 84
    },
    {
      "midi": 65,
      "hit": false,
      "t": 164338.06000000003,
      "d": 266.54383333332953,
      "v": 120
    },
    {
      "midi": 46,
      "hit": false,
      "t": 164448.35399999842,
      "d": 64.3381666666537,
      "v": 100
    },
    {
      "midi": 34,
      "hit": false,
      "t": 164448.35399999886,
      "d": 121.78295833332231,
      "v": 84
    },
    {
      "midi": 34,
      "hit": false,
      "t": 164558.64799999841,
      "d": 235.52364583330927,
      "v": 100
    },
    {
      "midi": 46,
      "hit": false,
      "t": 164558.64799999885,
      "d": 220.58799999998882,
      "v": 84
    },
    {
      "midi": 46,
      "hit": false,
      "t": 164779.2359999984,
      "d": 64.3381666666537,
      "v": 100
    },
    {
      "midi": 34,
      "hit": false,
      "t": 164779.23599999884,
      "d": 110.29399999999441,
      "v": 84
    },
    {
      "midi": 62,
      "hit": false,
      "t": 164779.23600000003,
      "d": 259.65045833334443,
      "v": 123
    },
    {
      "midi": 46,
      "hit": false,
      "t": 164889.5299999984,
      "d": 64.3381666666537,
      "v": 100
    },
    {
      "midi": 46,
      "hit": false,
      "t": 164889.52999999883,
      "d": 110.29399999999441,
      "v": 84
    },
    {
      "midi": 34,
      "hit": false,
      "t": 164999.8239999984,
      "d": 210.24793750001118,
      "v": 100
    },
    {
      "midi": 34,
      "hit": false,
      "t": 164999.82399999883,
      "d": 220.58799999998882,
      "v": 84
    },
    {
      "midi": 46,
      "hit": false,
      "t": 165220.4119999984,
      "d": 64.3381666666537,
      "v": 100
    },
    {
      "midi": 46,
      "hit": false,
      "t": 165220.41199999882,
      "d": 110.29399999999441,
      "v": 84
    },
    {
      "midi": 65,
      "hit": false,
      "t": 165220.41200000004,
      "d": 75.82712500001071,
      "v": 125
    },
    {
      "midi": 46,
      "hit": false,
      "t": 165330.7059999984,
      "d": 68.93374999999651,
      "v": 100
    },
    {
      "midi": 34,
      "hit": false,
      "t": 165330.7059999988,
      "d": 110.29399999999441,
      "v": 84
    },
    {
      "midi": 34,
      "hit": false,
      "t": 165440.9999999984,
      "d": 194.16339583334047,
      "v": 100
    },
    {
      "midi": 46,
      "hit": false,
      "t": 165440.9999999988,
      "d": 228.63027083332418,
      "v": 84
    },
    {
      "midi": 65,
      "hit": false,
      "t": 165441.00000000006,
      "d": 72.38043749998906,
      "v": 120
    },
    {
      "midi": 46,
      "hit": false,
      "t": 165661.58799999842,
      "d": 64.3381666666537,
      "v": 100
    },
    {
      "midi": 34,
      "hit": false,
      "t": 165661.5879999988,
      "d": 110.29399999999441,
      "v": 84
    },
    {
      "midi": 65,
      "hit": false,
      "t": 165661.58800000005,
      "d": 304.4573958333349,
      "v": 120
    },
    {
      "midi": 46,
      "hit": false,
      "t": 165771.8819999984,
      "d": 64.3381666666537,
      "v": 100
    },
    {
      "midi": 46,
      "hit": false,
      "t": 165771.8819999988,
      "d": 110.29399999999441,
      "v": 84
    },
    {
      "midi": 31,
      "hit": false,
      "t": 165882.1759999984,
      "d": 213.69462500000373,
      "v": 100
    },
    {
      "midi": 31,
      "hit": false,
      "t": 165882.17599999878,
      "d": 220.58799999998882,
      "v": 84
    },
    {
      "midi": 55,
      "hit": false,
      "t": 165882.17599999998,
      "d": 1764.703999999998,
      "v": 74
    },
    {
      "midi": 58,
      "hit": false,
      "t": 165882.17599999998,
      "d": 1764.703999999998,
      "v": 74
    },
    {
      "midi": 62,
      "hit": false,
      "t": 165882.17599999998,
      "d": 1764.703999999998,
      "v": 74
    },
    {
      "midi": 55,
      "hit": false,
      "t": 165882.176,
      "d": 1764.703999999998,
      "v": 75
    },
    {
      "midi": 58,
      "hit": false,
      "t": 165882.176,
      "d": 1764.703999999998,
      "v": 75
    },
    {
      "midi": 62,
      "hit": false,
      "t": 165882.176,
      "d": 1764.703999999998,
      "v": 75
    },
    {
      "midi": 43,
      "hit": false,
      "t": 166102.76399999842,
      "d": 64.3381666666537,
      "v": 100
    },
    {
      "midi": 43,
      "hit": false,
      "t": 166102.76399999877,
      "d": 110.29399999999441,
      "v": 84
    },
    {
      "midi": 64,
      "hit": false,
      "t": 166102.76400000005,
      "d": 82.72049999999581,
      "v": 123
    },
    {
      "midi": 43,
      "hit": false,
      "t": 166213.05799999842,
      "d": 64.3381666666537,
      "v": 100
    },
    {
      "midi": 31,
      "hit": false,
      "t": 166213.05799999877,
      "d": 122.93185416667257,
      "v": 84
    },
    {
      "midi": 31,
      "hit": false,
      "t": 166323.3519999984,
      "d": 224.03468749998137,
      "v": 100
    },
    {
      "midi": 43,
      "hit": false,
      "t": 166323.35199999876,
      "d": 220.58800000001793,
      "v": 84
    },
    {
      "midi": 64,
      "hit": false,
      "t": 166323.35200000004,
      "d": 492.8763125000114,
      "v": 123
    },
    {
      "midi": 43,
      "hit": false,
      "t": 166543.9399999984,
      "d": 64.3381666666537,
      "v": 100
    },
    {
      "midi": 31,
      "hit": false,
      "t": 166543.93999999878,
      "d": 110.29399999999441,
      "v": 84
    },
    {
      "midi": 43,
      "hit": false,
      "t": 166654.2339999984,
      "d": 65.48706250000396,
      "v": 100
    },
    {
      "midi": 43,
      "hit": false,
      "t": 166654.23399999877,
      "d": 130.97412500000792,
      "v": 84
    },
    {
      "midi": 31,
      "hit": false,
      "t": 166764.5279999984,
      "d": 218.29020833334653,
      "v": 100
    },
    {
      "midi": 31,
      "hit": false,
      "t": 166764.52799999877,
      "d": 220.58800000001793,
      "v": 84
    },
    {
      "midi": 43,
      "hit": false,
      "t": 166985.1159999984,
      "d": 64.3381666666537,
      "v": 100
    },
    {
      "midi": 43,
      "hit": false,
      "t": 166985.1159999988,
      "d": 110.29399999999441,
      "v": 84
    },
    {
      "midi": 65,
      "hit": false,
      "t": 166985.11600000007,
      "d": 72.38043749998906,
      "v": 117
    },
    {
      "midi": 43,
      "hit": false,
      "t": 167095.4099999984,
      "d": 64.3381666666537,
      "v": 100
    },
    {
      "midi": 31,
      "hit": false,
      "t": 167095.40999999878,
      "d": 130.97412500000792,
      "v": 84
    },
    {
      "midi": 31,
      "hit": false,
      "t": 167205.7039999984,
      "d": 222.88579166666023,
      "v": 100
    },
    {
      "midi": 43,
      "hit": false,
      "t": 167205.70399999878,
      "d": 220.58800000001793,
      "v": 84
    },
    {
      "midi": 65,
      "hit": false,
      "t": 167205.70400000006,
      "d": 72.38043749998906,
      "v": 120
    },
    {
      "midi": 43,
      "hit": false,
      "t": 167426.2919999984,
      "d": 64.33816666668281,
      "v": 100
    },
    {
      "midi": 31,
      "hit": false,
      "t": 167426.2919999988,
      "d": 110.29399999999441,
      "v": 84
    },
    {
      "midi": 65,
      "hit": false,
      "t": 167426.29200000004,
      "d": 299.8618124999921,
      "v": 120
    },
    {
      "midi": 43,
      "hit": false,
      "t": 167536.5859999984,
      "d": 64.3381666666537,
      "v": 100
    },
    {
      "midi": 43,
      "hit": false,
      "t": 167536.5859999988,
      "d": 110.29399999999441,
      "v": 84
    },
    {
      "midi": 33,
      "hit": false,
      "t": 167646.8799999984,
      "d": 211.39683333333232,
      "v": 100
    },
    {
      "midi": 33,
      "hit": false,
      "t": 167646.87999999878,
      "d": 220.58799999998882,
      "v": 84
    },
    {
      "midi": 57,
      "hit": false,
      "t": 167646.87999999998,
      "d": 1764.703999999998,
      "v": 74
    },
    {
      "midi": 61,
      "hit": false,
      "t": 167646.87999999998,
      "d": 1764.703999999998,
      "v": 74
    },
    {
      "midi": 64,
      "hit": false,
      "t": 167646.87999999998,
      "d": 1764.703999999998,
      "v": 74
    },
    {
      "midi": 57,
      "hit": false,
      "t": 167646.88,
      "d": 1764.703999999998,
      "v": 75
    },
    {
      "midi": 61,
      "hit": false,
      "t": 167646.88,
      "d": 1764.703999999998,
      "v": 75
    },
    {
      "midi": 64,
      "hit": false,
      "t": 167646.88,
      "d": 1764.703999999998,
      "v": 75
    },
    {
      "midi": 45,
      "hit": false,
      "t": 167867.4679999984,
      "d": 64.3381666666537,
      "v": 100
    },
    {
      "midi": 45,
      "hit": false,
      "t": 167867.46799999877,
      "d": 110.29399999999441,
      "v": 84
    },
    {
      "midi": 64,
      "hit": false,
      "t": 167867.46800000002,
      "d": 80.42270833332441,
      "v": 120
    },
    {
      "midi": 45,
      "hit": false,
      "t": 167977.7619999984,
      "d": 68.93374999999651,
      "v": 100
    },
    {
      "midi": 33,
      "hit": false,
      "t": 167977.76199999877,
      "d": 118.33627083332976,
      "v": 84
    },
    {
      "midi": 33,
      "hit": false,
      "t": 168088.05599999838,
      "d": 212.54572916665347,
      "v": 100
    },
    {
      "midi": 45,
      "hit": false,
      "t": 168088.05599999876,
      "d": 220.58799999998882,
      "v": 84
    },
    {
      "midi": 64,
      "hit": false,
      "t": 168088.056,
      "d": 505.51416666666046,
      "v": 120
    },
    {
      "midi": 45,
      "hit": false,
      "t": 168308.64399999837,
      "d": 64.3381666666537,
      "v": 100
    },
    {
      "midi": 33,
      "hit": false,
      "t": 168308.64399999875,
      "d": 110.29399999999441,
      "v": 84
    },
    {
      "midi": 45,
      "hit": false,
      "t": 168418.93799999836,
      "d": 64.3381666666537,
      "v": 100
    },
    {
      "midi": 45,
      "hit": false,
      "t": 168418.93799999874,
      "d": 130.97412500000792,
      "v": 84
    },
    {
      "midi": 33,
      "hit": false,
      "t": 168529.23199999836,
      "d": 197.61008333333302,
      "v": 100
    },
    {
      "midi": 33,
      "hit": false,
      "t": 168529.23199999874,
      "d": 220.58800000001793,
      "v": 84
    },
    {
      "midi": 45,
      "hit": false,
      "t": 168749.81999999835,
      "d": 64.3381666666537,
      "v": 100
    },
    {
      "midi": 45,
      "hit": false,
      "t": 168749.81999999876,
      "d": 110.29399999999441,
      "v": 84
    },
    {
      "midi": 64,
      "hit": false,
      "t": 168749.82,
      "d": 68.93374999999651,
      "v": 123
    },
    {
      "midi": 45,
      "hit": false,
      "t": 168860.11399999834,
      "d": 64.3381666666537,
      "v": 100
    },
    {
      "midi": 33,
      "hit": false,
      "t": 168860.11399999875,
      "d": 122.93185416667257,
      "v": 84
    },
    {
      "midi": 33,
      "hit": false,
      "t": 168970.40799999834,
      "d": 184.97222916665487,
      "v": 100
    },
    {
      "midi": 45,
      "hit": false,
      "t": 168970.40799999874,
      "d": 220.58800000001793,
      "v": 84
    },
    {
      "midi": 64,
      "hit": false,
      "t": 168970.408,
      "d": 79.27381250000326,
      "v": 120
    },
    {
      "midi": 45,
      "hit": false,
      "t": 169190.99599999833,
      "d": 64.3381666666537,
      "v": 100
    },
    {
      "midi": 33,
      "hit": false,
      "t": 169190.99599999876,
      "d": 110.29399999999441,
      "v": 84
    },
    {
      "midi": 64,
      "hit": false,
      "t": 169190.99599999998,
      "d": 275.73499999998603,
      "v": 117
    },
    {
      "midi": 45,
      "hit": false,
      "t": 169301.28999999832,
      "d": 64.3381666666537,
      "v": 100
    },
    {
      "midi": 45,
      "hit": false,
      "t": 169301.28999999876,
      "d": 114.88958333333721,
      "v": 84
    },
    {
      "midi": 38,
      "hit": false,
      "t": 169411.5839999983,
      "d": 174.63216666667722,
      "v": 100
    },
    {
      "midi": 38,
      "hit": false,
      "t": 169411.58399999875,
      "d": 220.58800000001793,
      "v": 84
    },
    {
      "midi": 62,
      "hit": false,
      "t": 169411.58399999997,
      "d": 1764.703999999998,
      "v": 74
    },
    {
      "midi": 65,
      "hit": false,
      "t": 169411.58399999997,
      "d": 1764.703999999998,
      "v": 74
    },
    {
      "midi": 69,
      "hit": false,
      "t": 169411.58399999997,
      "d": 1764.703999999998,
      "v": 74
    },
    {
      "midi": 57,
      "hit": false,
      "t": 169411.584,
      "d": 1764.703999999998,
      "v": 75
    },
    {
      "midi": 62,
      "hit": false,
      "t": 169411.584,
      "d": 1764.703999999998,
      "v": 75
    },
    {
      "midi": 65,
      "hit": false,
      "t": 169411.584,
      "d": 1764.703999999998,
      "v": 75
    },
    {
      "midi": 50,
      "hit": false,
      "t": 169632.17199999833,
      "d": 64.3381666666537,
      "v": 100
    },
    {
      "midi": 50,
      "hit": false,
      "t": 169632.17199999877,
      "d": 110.29399999999441,
      "v": 84
    },
    {
      "midi": 62,
      "hit": false,
      "t": 169632.17199999996,
      "d": 80.42270833332441,
      "v": 120
    },
    {
      "midi": 50,
      "hit": false,
      "t": 169742.46599999833,
      "d": 64.3381666666537,
      "v": 100
    },
    {
      "midi": 38,
      "hit": false,
      "t": 169742.46599999876,
      "d": 117.18737500000861,
      "v": 84
    },
    {
      "midi": 38,
      "hit": false,
      "t": 169852.75999999832,
      "d": 174.63216666667722,
      "v": 100
    },
    {
      "midi": 50,
      "hit": false,
      "t": 169852.75999999876,
      "d": 221.73689583333908,
      "v": 84
    },
    {
      "midi": 62,
      "hit": false,
      "t": 169852.75999999995,
      "d": 496.32300000000396,
      "v": 120
    },
    {
      "midi": 50,
      "hit": false,
      "t": 170073.34799999834,
      "d": 64.3381666666537,
      "v": 100
    },
    {
      "midi": 38,
      "hit": false,
      "t": 170073.34799999878,
      "d": 110.29399999999441,
      "v": 84
    },
    {
      "midi": 50,
      "hit": false,
      "t": 170183.64199999833,
      "d": 64.3381666666537,
      "v": 100
    },
    {
      "midi": 50,
      "hit": false,
      "t": 170183.64199999877,
      "d": 119.48516666665091,
      "v": 84
    },
    {
      "midi": 38,
      "hit": false,
      "t": 170293.93599999833,
      "d": 174.63216666667722,
      "v": 100
    },
    {
      "midi": 38,
      "hit": false,
      "t": 170293.93599999876,
      "d": 220.58799999998882,
      "v": 84
    },
    {
      "midi": 50,
      "hit": false,
      "t": 170514.52399999835,
      "d": 64.3381666666537,
      "v": 100
    },
    {
      "midi": 50,
      "hit": false,
      "t": 170514.52399999875,
      "d": 110.29399999999441,
      "v": 84
    },
    {
      "midi": 64,
      "hit": false,
      "t": 170514.52399999995,
      "d": 79.27381250000326,
      "v": 120
    },
    {
      "midi": 50,
      "hit": false,
      "t": 170624.81799999834,
      "d": 64.3381666666537,
      "v": 100
    },
    {
      "midi": 38,
      "hit": false,
      "t": 170624.81799999875,
      "d": 118.33627083332976,
      "v": 84
    },
    {
      "midi": 38,
      "hit": false,
      "t": 170735.11199999833,
      "d": 174.63216666667722,
      "v": 100
    },
    {
      "midi": 50,
      "hit": false,
      "t": 170735.11199999874,
      "d": 226.33247916665277,
      "v": 84
    },
    {
      "midi": 64,
      "hit": false,
      "t": 170735.11199999994,
      "d": 76.97602083333186,
      "v": 120
    },
    {
      "midi": 50,
      "hit": false,
      "t": 170955.69999999835,
      "d": 64.3381666666537,
      "v": 100
    },
    {
      "midi": 38,
      "hit": false,
      "t": 170955.69999999873,
      "d": 110.29399999999441,
      "v": 84
    },
    {
      "midi": 64,
      "hit": false,
      "t": 170955.69999999992,
      "d": 245.86370833334513,
      "v": 120
    },
    {
      "midi": 50,
      "hit": false,
      "t": 171065.99399999835,
      "d": 64.3381666666537,
      "v": 100
    },
    {
      "midi": 50,
      "hit": false,
      "t": 171065.99399999873,
      "d": 113.74068749998696,
      "v": 84
    },
    {
      "midi": 34,
      "hit": false,
      "t": 171176.28799999834,
      "d": 201.05677083332557,
      "v": 100
    },
    {
      "midi": 34,
      "hit": false,
      "t": 171176.28799999872,
      "d": 220.58799999998882,
      "v": 84
    },
    {
      "midi": 58,
      "hit": false,
      "t": 171176.28799999997,
      "d": 1764.703999999998,
      "v": 74
    },
    {
      "midi": 62,
      "hit": false,
      "t": 171176.28799999997,
      "d": 1764.703999999998,
      "v": 74
    },
    {
      "midi": 65,
      "hit": false,
      "t": 171176.28799999997,
      "d": 1764.703999999998,
      "v": 74
    },
    {
      "midi": 58,
      "hit": false,
      "t": 171176.288,
      "d": 1764.703999999998,
      "v": 75
    },
    {
      "midi": 62,
      "hit": false,
      "t": 171176.288,
      "d": 1764.703999999998,
      "v": 75
    },
    {
      "midi": 65,
      "hit": false,
      "t": 171176.288,
      "d": 1764.703999999998,
      "v": 75
    },
    {
      "midi": 46,
      "hit": false,
      "t": 171396.87599999833,
      "d": 64.3381666666537,
      "v": 100
    },
    {
      "midi": 46,
      "hit": false,
      "t": 171396.8759999987,
      "d": 110.29399999999441,
      "v": 84
    },
    {
      "midi": 65,
      "hit": false,
      "t": 171396.87599999993,
      "d": 236.67254166665953,
      "v": 120
    },
    {
      "midi": 46,
      "hit": false,
      "t": 171507.16999999832,
      "d": 64.3381666666537,
      "v": 100
    },
    {
      "midi": 34,
      "hit": false,
      "t": 171507.1699999987,
      "d": 110.29399999999441,
      "v": 84
    },
    {
      "midi": 34,
      "hit": false,
      "t": 171617.46399999832,
      "d": 174.63216666667722,
      "v": 100
    },
    {
      "midi": 46,
      "hit": false,
      "t": 171617.4639999987,
      "d": 220.58799999998882,
      "v": 84
    },
    {
      "midi": 46,
      "hit": false,
      "t": 171838.05199999834,
      "d": 64.3381666666537,
      "v": 100
    },
    {
      "midi": 34,
      "hit": false,
      "t": 171838.0519999987,
      "d": 110.29399999999441,
      "v": 84
    },
    {
      "midi": 62,
      "hit": false,
      "t": 171838.05199999994,
      "d": 253.90597916668048,
      "v": 123
    },
    {
      "midi": 46,
      "hit": false,
      "t": 171948.34599999833,
      "d": 64.3381666666537,
      "v": 100
    },
    {
      "midi": 46,
      "hit": false,
      "t": 171948.34599999868,
      "d": 111.44289583331556,
      "v": 84
    },
    {
      "midi": 34,
      "hit": false,
      "t": 172058.63999999833,
      "d": 188.41891666667652,
      "v": 100
    },
    {
      "midi": 34,
      "hit": false,
      "t": 172058.63999999868,
      "d": 220.58799999998882,
      "v": 84
    },
    {
      "midi": 46,
      "hit": false,
      "t": 172279.22799999834,
      "d": 64.3381666666537,
      "v": 100
    },
    {
      "midi": 46,
      "hit": false,
      "t": 172279.22799999866,
      "d": 110.29399999999441,
      "v": 84
    },
    {
      "midi": 65,
      "hit": false,
      "t": 172279.22799999994,
      "d": 66.6359583333251,
      "v": 117
    },
    {
      "midi": 46,
      "hit": false,
      "t": 172389.52199999834,
      "d": 64.3381666666537,
      "v": 100
    },
    {
      "midi": 34,
      "hit": false,
      "t": 172389.52199999866,
      "d": 118.33627083332976,
      "v": 84
    },
    {
      "midi": 34,
      "hit": false,
      "t": 172499.81599999833,
      "d": 186.12112500000512,
      "v": 100
    },
    {
      "midi": 46,
      "hit": false,
      "t": 172499.81599999865,
      "d": 220.58799999998882,
      "v": 84
    },
    {
      "midi": 65,
      "hit": false,
      "t": 172499.81599999993,
      "d": 72.38043749998906,
      "v": 117
    },
    {
      "midi": 46,
      "hit": false,
      "t": 172720.40399999835,
      "d": 64.3381666666537,
      "v": 100
    },
    {
      "midi": 34,
      "hit": false,
      "t": 172720.40399999864,
      "d": 110.29399999999441,
      "v": 84
    },
    {
      "midi": 65,
      "hit": false,
      "t": 172720.40399999992,
      "d": 315.9463541666628,
      "v": 120
    },
    {
      "midi": 46,
      "hit": false,
      "t": 172830.69799999835,
      "d": 64.3381666666537,
      "v": 100
    },
    {
      "midi": 46,
      "hit": false,
      "t": 172830.69799999864,
      "d": 110.29399999999441,
      "v": 84
    },
    {
      "midi": 31,
      "hit": false,
      "t": 172940.99199999834,
      "d": 174.63216666667722,
      "v": 100
    },
    {
      "midi": 31,
      "hit": false,
      "t": 172940.99199999863,
      "d": 220.58799999998882,
      "v": 84
    },
    {
      "midi": 55,
      "hit": false,
      "t": 172940.99199999997,
      "d": 1764.703999999998,
      "v": 74
    },
    {
      "midi": 58,
      "hit": false,
      "t": 172940.99199999997,
      "d": 1764.703999999998,
      "v": 74
    },
    {
      "midi": 62,
      "hit": false,
      "t": 172940.99199999997,
      "d": 1764.703999999998,
      "v": 74
    },
    {
      "midi": 55,
      "hit": false,
      "t": 172940.992,
      "d": 1764.703999999998,
      "v": 75
    },
    {
      "midi": 58,
      "hit": false,
      "t": 172940.992,
      "d": 1764.703999999998,
      "v": 75
    },
    {
      "midi": 62,
      "hit": false,
      "t": 172940.992,
      "d": 1764.703999999998,
      "v": 75
    },
    {
      "midi": 43,
      "hit": false,
      "t": 173161.57999999836,
      "d": 64.3381666666537,
      "v": 100
    },
    {
      "midi": 43,
      "hit": false,
      "t": 173161.57999999862,
      "d": 110.29399999999441,
      "v": 84
    },
    {
      "midi": 64,
      "hit": false,
      "t": 173161.57999999993,
      "d": 76.97602083333186,
      "v": 120
    },
    {
      "midi": 43,
      "hit": false,
      "t": 173271.87399999835,
      "d": 64.3381666666537,
      "v": 100
    },
    {
      "midi": 31,
      "hit": false,
      "t": 173271.8739999986,
      "d": 121.78295833332231,
      "v": 84
    },
    {
      "midi": 31,
      "hit": false,
      "t": 173382.16799999835,
      "d": 174.63216666667722,
      "v": 100
    },
    {
      "midi": 43,
      "hit": false,
      "t": 173382.1679999986,
      "d": 220.58799999998882,
      "v": 84
    },
    {
      "midi": 64,
      "hit": false,
      "t": 173382.16799999992,
      "d": 469.8983958333265,
      "v": 120
    },
    {
      "midi": 43,
      "hit": false,
      "t": 173602.75599999836,
      "d": 64.3381666666537,
      "v": 100
    },
    {
      "midi": 31,
      "hit": false,
      "t": 173602.7559999986,
      "d": 110.29399999999441,
      "v": 84
    },
    {
      "midi": 43,
      "hit": false,
      "t": 173713.04999999836,
      "d": 64.3381666666537,
      "v": 100
    },
    {
      "midi": 43,
      "hit": false,
      "t": 173713.0499999986,
      "d": 121.78295833332231,
      "v": 84
    },
    {
      "midi": 31,
      "hit": false,
      "t": 173823.34399999835,
      "d": 202.20566666667582,
      "v": 100
    },
    {
      "midi": 31,
      "hit": false,
      "t": 173823.3439999986,
      "d": 220.58799999998882,
      "v": 84
    },
    {
      "midi": 43,
      "hit": false,
      "t": 174043.93199999837,
      "d": 64.3381666666537,
      "v": 100
    },
    {
      "midi": 43,
      "hit": false,
      "t": 174043.93199999857,
      "d": 110.29399999999441,
      "v": 84
    },
    {
      "midi": 65,
      "hit": false,
      "t": 174043.9319999999,
      "d": 70.08264583334676,
      "v": 120
    },
    {
      "midi": 43,
      "hit": false,
      "t": 174154.22599999837,
      "d": 64.3381666666537,
      "v": 100
    },
    {
      "midi": 31,
      "hit": false,
      "t": 174154.22599999857,
      "d": 110.29399999999441,
      "v": 84
    },
    {
      "midi": 31,
      "hit": false,
      "t": 174264.51999999836,
      "d": 202.20566666667582,
      "v": 100
    },
    {
      "midi": 43,
      "hit": false,
      "t": 174264.51999999856,
      "d": 227.48137500000303,
      "v": 84
    },
    {
      "midi": 65,
      "hit": false,
      "t": 174264.51999999993,
      "d": 67.78485416667536,
      "v": 117
    },
    {
      "midi": 43,
      "hit": false,
      "t": 174485.10799999838,
      "d": 64.3381666666537,
      "v": 100
    },
    {
      "midi": 31,
      "hit": false,
      "t": 174485.10799999855,
      "d": 110.29400000002352,
      "v": 84
    },
    {
      "midi": 65,
      "hit": false,
      "t": 174485.10799999995,
      "d": 311.35077083332,
      "v": 120
    },
    {
      "midi": 43,
      "hit": false,
      "t": 174595.40199999837,
      "d": 64.3381666666537,
      "v": 100
    },
    {
      "midi": 43,
      "hit": false,
      "t": 174595.40199999858,
      "d": 110.29399999999441,
      "v": 84
    },
    {
      "midi": 33,
      "hit": false,
      "t": 174705.69599999837,
      "d": 174.63216666667722,
      "v": 100
    },
    {
      "midi": 33,
      "hit": false,
      "t": 174705.69599999857,
      "d": 220.58799999998882,
      "v": 84
    },
    {
      "midi": 57,
      "hit": false,
      "t": 174705.69599999997,
      "d": 1764.703999999998,
      "v": 74
    },
    {
      "midi": 61,
      "hit": false,
      "t": 174705.69599999997,
      "d": 1764.703999999998,
      "v": 74
    },
    {
      "midi": 64,
      "hit": false,
      "t": 174705.69599999997,
      "d": 1764.703999999998,
      "v": 74
    },
    {
      "midi": 57,
      "hit": false,
      "t": 174705.696,
      "d": 1764.703999999998,
      "v": 75
    },
    {
      "midi": 61,
      "hit": false,
      "t": 174705.696,
      "d": 1764.703999999998,
      "v": 75
    },
    {
      "midi": 64,
      "hit": false,
      "t": 174705.696,
      "d": 1764.703999999998,
      "v": 75
    },
    {
      "midi": 45,
      "hit": false,
      "t": 174926.28399999838,
      "d": 64.3381666666537,
      "v": 100
    },
    {
      "midi": 45,
      "hit": false,
      "t": 174926.28399999856,
      "d": 110.29399999999441,
      "v": 84
    },
    {
      "midi": 64,
      "hit": false,
      "t": 174926.28399999993,
      "d": 71.23154166666791,
      "v": 120
    },
    {
      "midi": 45,
      "hit": false,
      "t": 175036.57799999838,
      "d": 64.3381666666537,
      "v": 100
    },
    {
      "midi": 33,
      "hit": false,
      "t": 175036.57799999855,
      "d": 130.97412500000792,
      "v": 84
    },
    {
      "midi": 33,
      "hit": false,
      "t": 175146.87199999837,
      "d": 204.50345833334723,
      "v": 100
    },
    {
      "midi": 45,
      "hit": false,
      "t": 175146.87199999855,
      "d": 220.58800000001793,
      "v": 84
    },
    {
      "midi": 64,
      "hit": false,
      "t": 175146.87199999992,
      "d": 220.58799999998882,
      "v": 117
    },
    {
      "midi": 45,
      "hit": false,
      "t": 175367.4599999984,
      "d": 64.3381666666537,
      "v": 100
    },
    {
      "midi": 33,
      "hit": false,
      "t": 175367.45999999857,
      "d": 110.29399999999441,
      "v": 84
    },
    {
      "midi": 45,
      "hit": false,
      "t": 175477.7539999984,
      "d": 64.3381666666537,
      "v": 100
    },
    {
      "midi": 45,
      "hit": false,
      "t": 175477.75399999856,
      "d": 120.63406250000116,
      "v": 84
    },
    {
      "midi": 33,
      "hit": false,
      "t": 175588.04799999838,
      "d": 211.39683333333232,
      "v": 100
    },
    {
      "midi": 33,
      "hit": false,
      "t": 175588.04799999855,
      "d": 220.58800000001793,
      "v": 84
    },
    {
      "midi": 45,
      "hit": false,
      "t": 175808.63599999837,
      "d": 64.3381666666537,
      "v": 100
    },
    {
      "midi": 45,
      "hit": false,
      "t": 175808.63599999857,
      "d": 110.29399999999441,
      "v": 84
    },
    {
      "midi": 64,
      "hit": false,
      "t": 175808.6359999999,
      "d": 110.29399999999441,
      "v": 125
    },
    {
      "midi": 45,
      "hit": false,
      "t": 175918.92999999836,
      "d": 64.3381666666537,
      "v": 100
    },
    {
      "midi": 33,
      "hit": false,
      "t": 175918.92999999857,
      "d": 124.08074999999371,
      "v": 84
    },
    {
      "midi": 33,
      "hit": false,
      "t": 176029.22399999836,
      "d": 174.63216666667722,
      "v": 100
    },
    {
      "midi": 45,
      "hit": false,
      "t": 176029.22399999856,
      "d": 232.07695833331672,
      "v": 84
    },
    {
      "midi": 64,
      "hit": false,
      "t": 176029.2239999999,
      "d": 110.29399999999441,
      "v": 123
    },
    {
      "midi": 45,
      "hit": false,
      "t": 176249.81199999838,
      "d": 64.3381666666537,
      "v": 100
    },
    {
      "midi": 33,
      "hit": false,
      "t": 176249.81199999855,
      "d": 110.29399999999441,
      "v": 84
    },
    {
      "midi": 64,
      "hit": false,
      "t": 176249.8119999999,
      "d": 330.88200000001234,
      "v": 123
    },
    {
      "midi": 45,
      "hit": false,
      "t": 176360.10599999837,
      "d": 64.3381666666537,
      "v": 100
    },
    {
      "midi": 45,
      "hit": false,
      "t": 176360.10599999854,
      "d": 110.29399999999441,
      "v": 84
    },
    {
      "midi": 38,
      "hit": false,
      "t": 176470.39999999836,
      "d": 227.48137500000303,
      "v": 100
    },
    {
      "midi": 38,
      "hit": false,
      "t": 176470.39999999854,
      "d": 220.58799999998882,
      "v": 84
    },
    {
      "midi": 62,
      "hit": false,
      "t": 176470.39999999997,
      "d": 1764.703999999998,
      "v": 74
    },
    {
      "midi": 65,
      "hit": false,
      "t": 176470.39999999997,
      "d": 1764.703999999998,
      "v": 74
    },
    {
      "midi": 69,
      "hit": false,
      "t": 176470.39999999997,
      "d": 1764.703999999998,
      "v": 74
    },
    {
      "midi": 62,
      "hit": false,
      "t": 176470.4,
      "d": 1764.703999999998,
      "v": 75
    },
    {
      "midi": 65,
      "hit": false,
      "t": 176470.4,
      "d": 1764.703999999998,
      "v": 75
    },
    {
      "midi": 81,
      "hit": false,
      "t": 176494.5268125,
      "d": 13996.997937499982,
      "v": 82
    },
    {
      "midi": 93,
      "hit": false,
      "t": 176502.56908333334,
      "d": 13984.360083333304,
      "v": 82
    },
    {
      "midi": 50,
      "hit": false,
      "t": 176690.98799999835,
      "d": 64.33816666668281,
      "v": 100
    },
    {
      "midi": 50,
      "hit": false,
      "t": 176690.98799999853,
      "d": 110.29399999999441,
      "v": 84
    },
    {
      "midi": 62,
      "hit": false,
      "t": 176690.9879999999,
      "d": 64.3381666666537,
      "v": 120
    },
    {
      "midi": 50,
      "hit": false,
      "t": 176801.28199999838,
      "d": 102.25172916665906,
      "v": 100
    },
    {
      "midi": 38,
      "hit": false,
      "t": 176801.28199999852,
      "d": 119.48516666665091,
      "v": 84
    },
    {
      "midi": 38,
      "hit": false,
      "t": 176911.57599999837,
      "d": 245.86370833331603,
      "v": 100
    },
    {
      "midi": 50,
      "hit": false,
      "t": 176911.57599999852,
      "d": 220.58799999998882,
      "v": 84
    },
    {
      "midi": 62,
      "hit": false,
      "t": 176911.57599999988,
      "d": 581.3412916666712,
      "v": 120
    },
    {
      "midi": 50,
      "hit": false,
      "t": 177132.16399999836,
      "d": 64.3381666666537,
      "v": 100
    },
    {
      "midi": 38,
      "hit": false,
      "t": 177132.1639999985,
      "d": 110.29399999999441,
      "v": 84
    },
    {
      "midi": 50,
      "hit": false,
      "t": 177242.45799999835,
      "d": 91.91166666665231,
      "v": 100
    },
    {
      "midi": 50,
      "hit": false,
      "t": 177242.4579999985,
      "d": 120.63406250000116,
      "v": 84
    },
    {
      "midi": 38,
      "hit": false,
      "t": 177352.75199999835,
      "d": 266.54383333332953,
      "v": 100
    },
    {
      "midi": 38,
      "hit": false,
      "t": 177352.7519999985,
      "d": 220.58800000001793,
      "v": 84
    },
    {
      "midi": 50,
      "hit": false,
      "t": 177573.33999999834,
      "d": 64.33816666668281,
      "v": 100
    },
    {
      "midi": 50,
      "hit": false,
      "t": 177573.3399999985,
      "d": 110.29399999999441,
      "v": 84
    },
    {
      "midi": 64,
      "hit": false,
      "t": 177573.33999999988,
      "d": 72.38043749998906,
      "v": 120
    },
    {
      "midi": 50,
      "hit": false,
      "t": 177683.63399999836,
      "d": 94.20945833332371,
      "v": 100
    },
    {
      "midi": 38,
      "hit": false,
      "t": 177683.6339999985,
      "d": 121.78295833332231,
      "v": 84
    },
    {
      "midi": 38,
      "hit": false,
      "t": 177793.92799999836,
      "d": 206.80124999998952,
      "v": 100
    },
    {
      "midi": 50,
      "hit": false,
      "t": 177793.9279999985,
      "d": 220.58799999998882,
      "v": 84
    },
    {
      "midi": 64,
      "hit": false,
      "t": 177793.92799999987,
      "d": 75.82712500001071,
      "v": 120
    },
    {
      "midi": 50,
      "hit": false,
      "t": 178014.51599999834,
      "d": 64.3381666666537,
      "v": 100
    },
    {
      "midi": 38,
      "hit": false,
      "t": 178014.5159999985,
      "d": 110.29399999999441,
      "v": 84
    },
    {
      "midi": 64,
      "hit": false,
      "t": 178014.5159999999,
      "d": 295.2662291666784,
      "v": 120
    },
    {
      "midi": 50,
      "hit": false,
      "t": 178124.80999999834,
      "d": 64.3381666666537,
      "v": 100
    },
    {
      "midi": 50,
      "hit": false,
      "t": 178124.80999999848,
      "d": 117.18737500000861,
      "v": 84
    },
    {
      "midi": 34,
      "hit": false,
      "t": 178235.10399999833,
      "d": 209.09904166666092,
      "v": 100
    },
    {
      "midi": 34,
      "hit": false,
      "t": 178235.10399999848,
      "d": 220.58800000001793,
      "v": 84
    },
    {
      "midi": 58,
      "hit": false,
      "t": 178235.10399999996,
      "d": 1764.703999999998,
      "v": 74
    },
    {
      "midi": 62,
      "hit": false,
      "t": 178235.10399999996,
      "d": 1764.703999999998,
      "v": 74
    },
    {
      "midi": 65,
      "hit": false,
      "t": 178235.10399999996,
      "d": 1764.703999999998,
      "v": 74
    },
    {
      "midi": 58,
      "hit": false,
      "t": 178235.104,
      "d": 1764.703999999998,
      "v": 75
    },
    {
      "midi": 62,
      "hit": false,
      "t": 178235.104,
      "d": 1764.703999999998,
      "v": 75
    },
    {
      "midi": 65,
      "hit": false,
      "t": 178235.104,
      "d": 1764.703999999998,
      "v": 75
    },
    {
      "midi": 46,
      "hit": false,
      "t": 178455.69199999832,
      "d": 64.3381666666537,
      "v": 100
    },
    {
      "midi": 46,
      "hit": false,
      "t": 178455.6919999985,
      "d": 110.29399999999441,
      "v": 84
    },
    {
      "midi": 65,
      "hit": false,
      "t": 178455.6919999999,
      "d": 266.54383333332953,
      "v": 120
    },
    {
      "midi": 46,
      "hit": false,
      "t": 178565.98599999832,
      "d": 64.3381666666537,
      "v": 100
    },
    {
      "midi": 34,
      "hit": false,
      "t": 178565.9859999985,
      "d": 121.78295833332231,
      "v": 84
    },
    {
      "midi": 34,
      "hit": false,
      "t": 178676.2799999983,
      "d": 235.52364583330927,
      "v": 100
    },
    {
      "midi": 46,
      "hit": false,
      "t": 178676.27999999849,
      "d": 220.58799999998882,
      "v": 84
    },
    {
      "midi": 46,
      "hit": false,
      "t": 178896.8679999983,
      "d": 64.3381666666537,
      "v": 100
    },
    {
      "midi": 34,
      "hit": false,
      "t": 178896.86799999847,
      "d": 110.29399999999441,
      "v": 84
    },
    {
      "midi": 62,
      "hit": false,
      "t": 178896.8679999999,
      "d": 259.65045833334443,
      "v": 123
    },
    {
      "midi": 46,
      "hit": false,
      "t": 179007.1619999983,
      "d": 64.3381666666537,
      "v": 100
    },
    {
      "midi": 46,
      "hit": false,
      "t": 179007.16199999847,
      "d": 110.29399999999441,
      "v": 84
    },
    {
      "midi": 34,
      "hit": false,
      "t": 179117.4559999983,
      "d": 210.24793750001118,
      "v": 100
    },
    {
      "midi": 34,
      "hit": false,
      "t": 179117.45599999846,
      "d": 220.58799999998882,
      "v": 84
    },
    {
      "midi": 46,
      "hit": false,
      "t": 179338.0439999983,
      "d": 64.3381666666537,
      "v": 100
    },
    {
      "midi": 46,
      "hit": false,
      "t": 179338.04399999845,
      "d": 110.29399999999441,
      "v": 84
    },
    {
      "midi": 65,
      "hit": false,
      "t": 179338.0439999999,
      "d": 75.82712500001071,
      "v": 125
    },
    {
      "midi": 46,
      "hit": false,
      "t": 179448.3379999983,
      "d": 68.93374999999651,
      "v": 100
    },
    {
      "midi": 34,
      "hit": false,
      "t": 179448.33799999845,
      "d": 110.29399999999441,
      "v": 84
    },
    {
      "midi": 34,
      "hit": false,
      "t": 179558.6319999983,
      "d": 194.16339583334047,
      "v": 100
    },
    {
      "midi": 46,
      "hit": false,
      "t": 179558.63199999844,
      "d": 228.63027083332418,
      "v": 84
    },
    {
      "midi": 65,
      "hit": false,
      "t": 179558.63199999993,
      "d": 72.38043749998906,
      "v": 120
    },
    {
      "midi": 46,
      "hit": false,
      "t": 179779.2199999983,
      "d": 64.3381666666537,
      "v": 100
    },
    {
      "midi": 34,
      "hit": false,
      "t": 179779.21999999843,
      "d": 110.29399999999441,
      "v": 84
    },
    {
      "midi": 65,
      "hit": false,
      "t": 179779.2199999999,
      "d": 304.4573958333349,
      "v": 120
    },
    {
      "midi": 46,
      "hit": false,
      "t": 179889.5139999983,
      "d": 64.3381666666537,
      "v": 100
    },
    {
      "midi": 46,
      "hit": false,
      "t": 179889.51399999842,
      "d": 110.29399999999441,
      "v": 84
    },
    {
      "midi": 31,
      "hit": false,
      "t": 179999.8079999983,
      "d": 213.69462500000373,
      "v": 100
    },
    {
      "midi": 31,
      "hit": false,
      "t": 179999.80799999842,
      "d": 220.58799999998882,
      "v": 84
    },
    {
      "midi": 55,
      "hit": false,
      "t": 179999.80799999996,
      "d": 1764.703999999998,
      "v": 74
    },
    {
      "midi": 58,
      "hit": false,
      "t": 179999.80799999996,
      "d": 1764.703999999998,
      "v": 74
    },
    {
      "midi": 62,
      "hit": false,
      "t": 179999.80799999996,
      "d": 1764.703999999998,
      "v": 74
    },
    {
      "midi": 55,
      "hit": false,
      "t": 179999.808,
      "d": 1764.703999999998,
      "v": 75
    },
    {
      "midi": 58,
      "hit": false,
      "t": 179999.808,
      "d": 1764.703999999998,
      "v": 75
    },
    {
      "midi": 62,
      "hit": false,
      "t": 179999.808,
      "d": 1764.703999999998,
      "v": 75
    },
    {
      "midi": 43,
      "hit": false,
      "t": 180220.39599999832,
      "d": 64.3381666666537,
      "v": 100
    },
    {
      "midi": 43,
      "hit": false,
      "t": 180220.3959999984,
      "d": 110.29399999999441,
      "v": 84
    },
    {
      "midi": 64,
      "hit": false,
      "t": 180220.39599999992,
      "d": 82.72049999999581,
      "v": 123
    },
    {
      "midi": 43,
      "hit": false,
      "t": 180330.6899999983,
      "d": 64.3381666666537,
      "v": 100
    },
    {
      "midi": 31,
      "hit": false,
      "t": 180330.6899999984,
      "d": 122.93185416667257,
      "v": 84
    },
    {
      "midi": 31,
      "hit": false,
      "t": 180440.9839999983,
      "d": 224.03468749998137,
      "v": 100
    },
    {
      "midi": 43,
      "hit": false,
      "t": 180440.9839999984,
      "d": 220.58800000001793,
      "v": 84
    },
    {
      "midi": 64,
      "hit": false,
      "t": 180440.9839999999,
      "d": 492.8763125000114,
      "v": 123
    },
    {
      "midi": 43,
      "hit": false,
      "t": 180661.5719999983,
      "d": 64.3381666666537,
      "v": 100
    },
    {
      "midi": 31,
      "hit": false,
      "t": 180661.5719999984,
      "d": 110.29399999999441,
      "v": 84
    },
    {
      "midi": 43,
      "hit": false,
      "t": 180771.8659999983,
      "d": 65.48706250000396,
      "v": 100
    },
    {
      "midi": 43,
      "hit": false,
      "t": 180771.8659999984,
      "d": 130.97412500000792,
      "v": 84
    },
    {
      "midi": 31,
      "hit": false,
      "t": 180882.1599999983,
      "d": 218.29020833334653,
      "v": 100
    },
    {
      "midi": 31,
      "hit": false,
      "t": 180882.1599999984,
      "d": 220.58800000001793,
      "v": 84
    },
    {
      "midi": 43,
      "hit": false,
      "t": 181102.7479999983,
      "d": 64.3381666666537,
      "v": 100
    },
    {
      "midi": 43,
      "hit": false,
      "t": 181102.74799999842,
      "d": 110.29399999999441,
      "v": 84
    },
    {
      "midi": 65,
      "hit": false,
      "t": 181102.74799999993,
      "d": 72.38043749998906,
      "v": 117
    },
    {
      "midi": 43,
      "hit": false,
      "t": 181213.0419999983,
      "d": 64.3381666666537,
      "v": 100
    },
    {
      "midi": 31,
      "hit": false,
      "t": 181213.04199999842,
      "d": 130.97412500000792,
      "v": 84
    },
    {
      "midi": 31,
      "hit": false,
      "t": 181323.3359999983,
      "d": 222.88579166666023,
      "v": 100
    },
    {
      "midi": 43,
      "hit": false,
      "t": 181323.3359999984,
      "d": 220.58800000001793,
      "v": 84
    },
    {
      "midi": 65,
      "hit": false,
      "t": 181323.33599999992,
      "d": 72.38043749998906,
      "v": 120
    },
    {
      "midi": 43,
      "hit": false,
      "t": 181543.92399999828,
      "d": 64.33816666668281,
      "v": 100
    },
    {
      "midi": 31,
      "hit": false,
      "t": 181543.92399999843,
      "d": 110.29399999999441,
      "v": 84
    },
    {
      "midi": 65,
      "hit": false,
      "t": 181543.9239999999,
      "d": 299.8618124999921,
      "v": 120
    },
    {
      "midi": 43,
      "hit": false,
      "t": 181654.2179999983,
      "d": 64.3381666666537,
      "v": 100
    },
    {
      "midi": 43,
      "hit": false,
      "t": 181654.21799999842,
      "d": 110.29399999999441,
      "v": 84
    },
    {
      "midi": 33,
      "hit": false,
      "t": 181764.5119999983,
      "d": 211.39683333333232,
      "v": 100
    },
    {
      "midi": 33,
      "hit": false,
      "t": 181764.51199999842,
      "d": 220.58799999998882,
      "v": 84
    },
    {
      "midi": 57,
      "hit": false,
      "t": 181764.51199999996,
      "d": 1764.703999999998,
      "v": 74
    },
    {
      "midi": 61,
      "hit": false,
      "t": 181764.51199999996,
      "d": 1764.703999999998,
      "v": 74
    },
    {
      "midi": 64,
      "hit": false,
      "t": 181764.51199999996,
      "d": 1764.703999999998,
      "v": 74
    },
    {
      "midi": 57,
      "hit": false,
      "t": 181764.512,
      "d": 1764.703999999998,
      "v": 75
    },
    {
      "midi": 61,
      "hit": false,
      "t": 181764.512,
      "d": 1764.703999999998,
      "v": 75
    },
    {
      "midi": 64,
      "hit": false,
      "t": 181764.512,
      "d": 1764.703999999998,
      "v": 75
    },
    {
      "midi": 45,
      "hit": false,
      "t": 181985.0999999983,
      "d": 64.3381666666537,
      "v": 100
    },
    {
      "midi": 45,
      "hit": false,
      "t": 181985.0999999984,
      "d": 110.29399999999441,
      "v": 84
    },
    {
      "midi": 64,
      "hit": false,
      "t": 181985.0999999999,
      "d": 80.42270833332441,
      "v": 120
    },
    {
      "midi": 45,
      "hit": false,
      "t": 182095.39399999828,
      "d": 68.93374999999651,
      "v": 100
    },
    {
      "midi": 33,
      "hit": false,
      "t": 182095.3939999984,
      "d": 118.33627083332976,
      "v": 84
    },
    {
      "midi": 33,
      "hit": false,
      "t": 182205.68799999828,
      "d": 212.54572916665347,
      "v": 100
    },
    {
      "midi": 45,
      "hit": false,
      "t": 182205.6879999984,
      "d": 220.58799999998882,
      "v": 84
    },
    {
      "midi": 64,
      "hit": false,
      "t": 182205.68799999988,
      "d": 505.51416666666046,
      "v": 120
    },
    {
      "midi": 45,
      "hit": false,
      "t": 182426.27599999827,
      "d": 64.3381666666537,
      "v": 100
    },
    {
      "midi": 33,
      "hit": false,
      "t": 182426.27599999838,
      "d": 110.29399999999441,
      "v": 84
    },
    {
      "midi": 45,
      "hit": false,
      "t": 182536.56999999826,
      "d": 64.3381666666537,
      "v": 100
    },
    {
      "midi": 45,
      "hit": false,
      "t": 182536.56999999838,
      "d": 130.97412500000792,
      "v": 84
    },
    {
      "midi": 33,
      "hit": false,
      "t": 182646.86399999826,
      "d": 197.61008333333302,
      "v": 100
    },
    {
      "midi": 33,
      "hit": false,
      "t": 182646.86399999837,
      "d": 220.58800000001793,
      "v": 84
    },
    {
      "midi": 45,
      "hit": false,
      "t": 182867.45199999824,
      "d": 64.3381666666537,
      "v": 100
    },
    {
      "midi": 45,
      "hit": false,
      "t": 182867.4519999984,
      "d": 110.29399999999441,
      "v": 84
    },
    {
      "midi": 64,
      "hit": false,
      "t": 182867.45199999987,
      "d": 68.93374999999651,
      "v": 123
    },
    {
      "midi": 45,
      "hit": false,
      "t": 182977.74599999824,
      "d": 64.3381666666537,
      "v": 100
    },
    {
      "midi": 33,
      "hit": false,
      "t": 182977.74599999838,
      "d": 122.93185416667257,
      "v": 84
    },
    {
      "midi": 33,
      "hit": false,
      "t": 183088.03999999823,
      "d": 184.97222916665487,
      "v": 100
    },
    {
      "midi": 45,
      "hit": false,
      "t": 183088.03999999838,
      "d": 220.58800000001793,
      "v": 84
    },
    {
      "midi": 64,
      "hit": false,
      "t": 183088.03999999986,
      "d": 79.27381250000326,
      "v": 120
    },
    {
      "midi": 45,
      "hit": false,
      "t": 183308.62799999822,
      "d": 64.3381666666537,
      "v": 100
    },
    {
      "midi": 33,
      "hit": false,
      "t": 183308.6279999984,
      "d": 110.29399999999441,
      "v": 84
    },
    {
      "midi": 64,
      "hit": false,
      "t": 183308.62799999985,
      "d": 275.73499999998603,
      "v": 117
    },
    {
      "midi": 45,
      "hit": false,
      "t": 183418.92199999822,
      "d": 64.3381666666537,
      "v": 100
    },
    {
      "midi": 45,
      "hit": false,
      "t": 183418.9219999984,
      "d": 114.88958333333721,
      "v": 84
    },
    {
      "midi": 38,
      "hit": false,
      "t": 183529.2159999982,
      "d": 174.63216666667722,
      "v": 100
    },
    {
      "midi": 38,
      "hit": false,
      "t": 183529.21599999839,
      "d": 220.58800000001793,
      "v": 84
    },
    {
      "midi": 62,
      "hit": false,
      "t": 183529.21599999996,
      "d": 1764.703999999998,
      "v": 74
    },
    {
      "midi": 65,
      "hit": false,
      "t": 183529.21599999996,
      "d": 1764.703999999998,
      "v": 74
    },
    {
      "midi": 69,
      "hit": false,
      "t": 183529.21599999996,
      "d": 1764.703999999998,
      "v": 74
    },
    {
      "midi": 57,
      "hit": false,
      "t": 183529.216,
      "d": 1764.703999999998,
      "v": 75
    },
    {
      "midi": 62,
      "hit": false,
      "t": 183529.216,
      "d": 1764.703999999998,
      "v": 75
    },
    {
      "midi": 65,
      "hit": false,
      "t": 183529.216,
      "d": 1764.703999999998,
      "v": 75
    },
    {
      "midi": 50,
      "hit": false,
      "t": 183749.80399999823,
      "d": 64.3381666666537,
      "v": 100
    },
    {
      "midi": 50,
      "hit": false,
      "t": 183749.8039999984,
      "d": 110.29399999999441,
      "v": 84
    },
    {
      "midi": 62,
      "hit": false,
      "t": 183749.80399999983,
      "d": 80.42270833332441,
      "v": 120
    },
    {
      "midi": 50,
      "hit": false,
      "t": 183860.09799999822,
      "d": 64.3381666666537,
      "v": 100
    },
    {
      "midi": 38,
      "hit": false,
      "t": 183860.0979999984,
      "d": 117.18737500000861,
      "v": 84
    },
    {
      "midi": 38,
      "hit": false,
      "t": 183970.39199999822,
      "d": 174.63216666667722,
      "v": 100
    },
    {
      "midi": 50,
      "hit": false,
      "t": 183970.3919999984,
      "d": 221.73689583333908,
      "v": 84
    },
    {
      "midi": 62,
      "hit": false,
      "t": 183970.39199999982,
      "d": 496.32300000000396,
      "v": 120
    },
    {
      "midi": 50,
      "hit": false,
      "t": 184190.97999999824,
      "d": 64.3381666666537,
      "v": 100
    },
    {
      "midi": 38,
      "hit": false,
      "t": 184190.9799999984,
      "d": 110.29399999999441,
      "v": 84
    },
    {
      "midi": 50,
      "hit": false,
      "t": 184301.27399999823,
      "d": 64.3381666666537,
      "v": 100
    },
    {
      "midi": 50,
      "hit": false,
      "t": 184301.2739999984,
      "d": 119.48516666665091,
      "v": 84
    },
    {
      "midi": 38,
      "hit": false,
      "t": 184411.56799999822,
      "d": 174.63216666667722,
      "v": 100
    },
    {
      "midi": 38,
      "hit": false,
      "t": 184411.5679999984,
      "d": 220.58799999998882,
      "v": 84
    },
    {
      "midi": 50,
      "hit": false,
      "t": 184632.15599999824,
      "d": 64.3381666666537,
      "v": 100
    },
    {
      "midi": 50,
      "hit": false,
      "t": 184632.1559999984,
      "d": 110.29399999999441,
      "v": 84
    },
    {
      "midi": 64,
      "hit": false,
      "t": 184632.1559999998,
      "d": 79.27381250000326,
      "v": 120
    },
    {
      "midi": 50,
      "hit": false,
      "t": 184742.44999999824,
      "d": 64.3381666666537,
      "v": 100
    },
    {
      "midi": 38,
      "hit": false,
      "t": 184742.44999999838,
      "d": 118.33627083332976,
      "v": 84
    },
    {
      "midi": 38,
      "hit": false,
      "t": 184852.74399999823,
      "d": 174.63216666667722,
      "v": 100
    },
    {
      "midi": 50,
      "hit": false,
      "t": 184852.74399999838,
      "d": 226.33247916665277,
      "v": 84
    },
    {
      "midi": 64,
      "hit": false,
      "t": 184852.7439999998,
      "d": 76.97602083333186,
      "v": 120
    },
    {
      "midi": 50,
      "hit": false,
      "t": 185073.33199999825,
      "d": 64.3381666666537,
      "v": 100
    },
    {
      "midi": 38,
      "hit": false,
      "t": 185073.33199999837,
      "d": 110.29399999999441,
      "v": 84
    },
    {
      "midi": 64,
      "hit": false,
      "t": 185073.3319999998,
      "d": 245.86370833334513,
      "v": 120
    },
    {
      "midi": 50,
      "hit": false,
      "t": 185183.62599999824,
      "d": 64.3381666666537,
      "v": 100
    },
    {
      "midi": 50,
      "hit": false,
      "t": 185183.62599999836,
      "d": 113.74068749998696,
      "v": 84
    },
    {
      "midi": 34,
      "hit": false,
      "t": 185293.91999999824,
      "d": 201.05677083332557,
      "v": 100
    },
    {
      "midi": 34,
      "hit": false,
      "t": 185293.91999999835,
      "d": 220.58799999998882,
      "v": 84
    },
    {
      "midi": 58,
      "hit": false,
      "t": 185293.91999999995,
      "d": 1764.703999999998,
      "v": 74
    },
    {
      "midi": 62,
      "hit": false,
      "t": 185293.91999999995,
      "d": 1764.703999999998,
      "v": 74
    },
    {
      "midi": 65,
      "hit": false,
      "t": 185293.91999999995,
      "d": 1764.703999999998,
      "v": 74
    },
    {
      "midi": 58,
      "hit": false,
      "t": 185293.91999999998,
      "d": 1764.703999999998,
      "v": 75
    },
    {
      "midi": 62,
      "hit": false,
      "t": 185293.91999999998,
      "d": 1764.703999999998,
      "v": 75
    },
    {
      "midi": 65,
      "hit": false,
      "t": 185293.91999999998,
      "d": 1764.703999999998,
      "v": 75
    },
    {
      "midi": 46,
      "hit": false,
      "t": 185514.50799999823,
      "d": 64.3381666666537,
      "v": 100
    },
    {
      "midi": 46,
      "hit": false,
      "t": 185514.50799999834,
      "d": 110.29399999999441,
      "v": 84
    },
    {
      "midi": 65,
      "hit": false,
      "t": 185514.5079999998,
      "d": 236.67254166665953,
      "v": 120
    },
    {
      "midi": 46,
      "hit": false,
      "t": 185624.80199999822,
      "d": 64.3381666666537,
      "v": 100
    },
    {
      "midi": 34,
      "hit": false,
      "t": 185624.80199999834,
      "d": 110.29399999999441,
      "v": 84
    },
    {
      "midi": 34,
      "hit": false,
      "t": 185735.09599999822,
      "d": 174.63216666667722,
      "v": 100
    },
    {
      "midi": 46,
      "hit": false,
      "t": 185735.09599999833,
      "d": 220.58799999998882,
      "v": 84
    },
    {
      "midi": 46,
      "hit": false,
      "t": 185955.68399999823,
      "d": 64.3381666666537,
      "v": 100
    },
    {
      "midi": 34,
      "hit": false,
      "t": 185955.68399999832,
      "d": 110.29399999999441,
      "v": 84
    },
    {
      "midi": 62,
      "hit": false,
      "t": 185955.6839999998,
      "d": 253.90597916668048,
      "v": 123
    },
    {
      "midi": 46,
      "hit": false,
      "t": 186065.97799999823,
      "d": 64.3381666666537,
      "v": 100
    },
    {
      "midi": 46,
      "hit": false,
      "t": 186065.97799999831,
      "d": 111.44289583331556,
      "v": 84
    },
    {
      "midi": 34,
      "hit": false,
      "t": 186176.27199999822,
      "d": 188.41891666667652,
      "v": 100
    },
    {
      "midi": 34,
      "hit": false,
      "t": 186176.2719999983,
      "d": 220.58799999998882,
      "v": 84
    },
    {
      "midi": 46,
      "hit": false,
      "t": 186396.85999999824,
      "d": 64.3381666666537,
      "v": 100
    },
    {
      "midi": 46,
      "hit": false,
      "t": 186396.8599999983,
      "d": 110.29399999999441,
      "v": 84
    },
    {
      "midi": 65,
      "hit": false,
      "t": 186396.8599999998,
      "d": 66.6359583333251,
      "v": 117
    },
    {
      "midi": 46,
      "hit": false,
      "t": 186507.15399999823,
      "d": 64.3381666666537,
      "v": 100
    },
    {
      "midi": 34,
      "hit": false,
      "t": 186507.1539999983,
      "d": 118.33627083332976,
      "v": 84
    },
    {
      "midi": 34,
      "hit": false,
      "t": 186617.44799999823,
      "d": 186.12112500000512,
      "v": 100
    },
    {
      "midi": 46,
      "hit": false,
      "t": 186617.4479999983,
      "d": 220.58799999998882,
      "v": 84
    },
    {
      "midi": 65,
      "hit": false,
      "t": 186617.4479999998,
      "d": 72.38043749998906,
      "v": 117
    },
    {
      "midi": 46,
      "hit": false,
      "t": 186838.03599999825,
      "d": 64.3381666666537,
      "v": 100
    },
    {
      "midi": 34,
      "hit": false,
      "t": 186838.03599999828,
      "d": 110.29399999999441,
      "v": 84
    },
    {
      "midi": 65,
      "hit": false,
      "t": 186838.0359999998,
      "d": 315.9463541666628,
      "v": 120
    },
    {
      "midi": 46,
      "hit": false,
      "t": 186948.32999999824,
      "d": 64.3381666666537,
      "v": 100
    },
    {
      "midi": 46,
      "hit": false,
      "t": 186948.32999999827,
      "d": 110.29399999999441,
      "v": 84
    },
    {
      "midi": 31,
      "hit": false,
      "t": 187058.62399999824,
      "d": 174.63216666667722,
      "v": 100
    },
    {
      "midi": 31,
      "hit": false,
      "t": 187058.62399999826,
      "d": 220.58799999998882,
      "v": 84
    },
    {
      "midi": 55,
      "hit": false,
      "t": 187058.62399999995,
      "d": 1764.703999999998,
      "v": 74
    },
    {
      "midi": 58,
      "hit": false,
      "t": 187058.62399999995,
      "d": 1764.703999999998,
      "v": 74
    },
    {
      "midi": 62,
      "hit": false,
      "t": 187058.62399999995,
      "d": 1764.703999999998,
      "v": 74
    },
    {
      "midi": 55,
      "hit": false,
      "t": 187058.62399999998,
      "d": 1764.703999999998,
      "v": 75
    },
    {
      "midi": 58,
      "hit": false,
      "t": 187058.62399999998,
      "d": 1764.703999999998,
      "v": 75
    },
    {
      "midi": 62,
      "hit": false,
      "t": 187058.62399999998,
      "d": 1764.703999999998,
      "v": 75
    },
    {
      "midi": 43,
      "hit": false,
      "t": 187279.21199999825,
      "d": 64.3381666666537,
      "v": 100
    },
    {
      "midi": 43,
      "hit": false,
      "t": 187279.21199999825,
      "d": 110.29399999999441,
      "v": 84
    },
    {
      "midi": 64,
      "hit": false,
      "t": 187279.2119999998,
      "d": 76.97602083333186,
      "v": 120
    },
    {
      "midi": 43,
      "hit": false,
      "t": 187389.50599999825,
      "d": 64.3381666666537,
      "v": 100
    },
    {
      "midi": 31,
      "hit": false,
      "t": 187389.50599999825,
      "d": 121.78295833332231,
      "v": 84
    },
    {
      "midi": 31,
      "hit": false,
      "t": 187499.79999999824,
      "d": 174.63216666667722,
      "v": 100
    },
    {
      "midi": 43,
      "hit": false,
      "t": 187499.79999999824,
      "d": 220.58799999998882,
      "v": 84
    },
    {
      "midi": 64,
      "hit": false,
      "t": 187499.79999999978,
      "d": 469.8983958333265,
      "v": 120
    },
    {
      "midi": 31,
      "hit": false,
      "t": 187720.38799999823,
      "d": 110.29399999999441,
      "v": 84
    },
    {
      "midi": 43,
      "hit": false,
      "t": 187720.38799999826,
      "d": 64.3381666666537,
      "v": 100
    },
    {
      "midi": 43,
      "hit": false,
      "t": 187830.68199999823,
      "d": 121.78295833332231,
      "v": 84
    },
    {
      "midi": 43,
      "hit": false,
      "t": 187830.68199999825,
      "d": 64.3381666666537,
      "v": 100
    },
    {
      "midi": 31,
      "hit": false,
      "t": 187940.97599999822,
      "d": 220.58799999998882,
      "v": 84
    },
    {
      "midi": 31,
      "hit": false,
      "t": 187940.97599999825,
      "d": 202.20566666667582,
      "v": 100
    },
    {
      "midi": 43,
      "hit": false,
      "t": 188161.5639999982,
      "d": 110.29399999999441,
      "v": 84
    },
    {
      "midi": 43,
      "hit": false,
      "t": 188161.56399999827,
      "d": 64.3381666666537,
      "v": 100
    },
    {
      "midi": 65,
      "hit": false,
      "t": 188161.56399999978,
      "d": 70.08264583334676,
      "v": 120
    },
    {
      "midi": 31,
      "hit": false,
      "t": 188271.8579999982,
      "d": 110.29399999999441,
      "v": 84
    },
    {
      "midi": 43,
      "hit": false,
      "t": 188271.85799999826,
      "d": 64.3381666666537,
      "v": 100
    },
    {
      "midi": 43,
      "hit": false,
      "t": 188382.1519999982,
      "d": 227.48137500000303,
      "v": 84
    },
    {
      "midi": 31,
      "hit": false,
      "t": 188382.15199999826,
      "d": 202.20566666667582,
      "v": 100
    },
    {
      "midi": 65,
      "hit": false,
      "t": 188382.1519999998,
      "d": 67.78485416667536,
      "v": 117
    },
    {
      "midi": 31,
      "hit": false,
      "t": 188602.7399999982,
      "d": 110.29400000002352,
      "v": 84
    },
    {
      "midi": 43,
      "hit": false,
      "t": 188602.73999999827,
      "d": 64.3381666666537,
      "v": 100
    },
    {
      "midi": 65,
      "hit": false,
      "t": 188602.73999999982,
      "d": 311.35077083332,
      "v": 120
    },
    {
      "midi": 43,
      "hit": false,
      "t": 188713.0339999982,
      "d": 110.29399999999441,
      "v": 84
    },
    {
      "midi": 43,
      "hit": false,
      "t": 188713.03399999827,
      "d": 64.3381666666537,
      "v": 100
    },
    {
      "midi": 33,
      "hit": false,
      "t": 188823.3279999982,
      "d": 220.58799999998882,
      "v": 84
    },
    {
      "midi": 33,
      "hit": false,
      "t": 188823.32799999826,
      "d": 174.63216666667722,
      "v": 100
    },
    {
      "midi": 57,
      "hit": false,
      "t": 188823.32799999995,
      "d": 1764.703999999998,
      "v": 74
    },
    {
      "midi": 61,
      "hit": false,
      "t": 188823.32799999995,
      "d": 1764.703999999998,
      "v": 74
    },
    {
      "midi": 64,
      "hit": false,
      "t": 188823.32799999995,
      "d": 1764.703999999998,
      "v": 74
    },
    {
      "midi": 57,
      "hit": false,
      "t": 188823.32799999998,
      "d": 1764.703999999998,
      "v": 75
    },
    {
      "midi": 61,
      "hit": false,
      "t": 188823.32799999998,
      "d": 1764.703999999998,
      "v": 75
    },
    {
      "midi": 64,
      "hit": false,
      "t": 188823.32799999998,
      "d": 1764.703999999998,
      "v": 75
    },
    {
      "midi": 45,
      "hit": false,
      "t": 189043.9159999982,
      "d": 110.29399999999441,
      "v": 84
    },
    {
      "midi": 45,
      "hit": false,
      "t": 189043.91599999828,
      "d": 64.3381666666537,
      "v": 100
    },
    {
      "midi": 64,
      "hit": false,
      "t": 189043.9159999998,
      "d": 71.23154166666791,
      "v": 120
    },
    {
      "midi": 33,
      "hit": false,
      "t": 189154.2099999982,
      "d": 130.97412500000792,
      "v": 84
    },
    {
      "midi": 45,
      "hit": false,
      "t": 189154.20999999827,
      "d": 64.3381666666537,
      "v": 100
    },
    {
      "midi": 45,
      "hit": false,
      "t": 189264.50399999818,
      "d": 220.58800000001793,
      "v": 84
    },
    {
      "midi": 33,
      "hit": false,
      "t": 189264.50399999827,
      "d": 204.50345833334723,
      "v": 100
    },
    {
      "midi": 64,
      "hit": false,
      "t": 189264.50399999978,
      "d": 220.58799999998882,
      "v": 117
    },
    {
      "midi": 33,
      "hit": false,
      "t": 189485.0919999982,
      "d": 110.29399999999441,
      "v": 84
    },
    {
      "midi": 45,
      "hit": false,
      "t": 189485.0919999983,
      "d": 64.3381666666537,
      "v": 100
    },
    {
      "midi": 65,
      "hit": false,
      "t": 189485.09199999977,
      "d": 220.58799999998882,
      "v": 113
    },
    {
      "midi": 45,
      "hit": false,
      "t": 189595.3859999982,
      "d": 120.63406250000116,
      "v": 84
    },
    {
      "midi": 45,
      "hit": false,
      "t": 189595.38599999828,
      "d": 64.3381666666537,
      "v": 100
    },
    {
      "midi": 33,
      "hit": false,
      "t": 189705.6799999982,
      "d": 220.58800000001793,
      "v": 84
    },
    {
      "midi": 33,
      "hit": false,
      "t": 189705.67999999828,
      "d": 211.39683333333232,
      "v": 100
    },
    {
      "midi": 64,
      "hit": false,
      "t": 189705.67999999976,
      "d": 220.58799999998882,
      "v": 123
    },
    {
      "midi": 45,
      "hit": false,
      "t": 189926.2679999982,
      "d": 110.29399999999441,
      "v": 84
    },
    {
      "midi": 45,
      "hit": false,
      "t": 189926.26799999826,
      "d": 64.3381666666537,
      "v": 100
    },
    {
      "midi": 65,
      "hit": false,
      "t": 189926.26799999975,
      "d": 220.58799999998882,
      "v": 120
    },
    {
      "midi": 33,
      "hit": false,
      "t": 190036.5619999982,
      "d": 124.08074999999371,
      "v": 84
    },
    {
      "midi": 45,
      "hit": false,
      "t": 190036.56199999826,
      "d": 64.3381666666537,
      "v": 100
    },
    {
      "midi": 45,
      "hit": false,
      "t": 190146.8559999982,
      "d": 232.07695833331672,
      "v": 84
    },
    {
      "midi": 33,
      "hit": false,
      "t": 190146.85599999825,
      "d": 174.63216666667722,
      "v": 100
    },
    {
      "midi": 64,
      "hit": false,
      "t": 190146.85599999974,
      "d": 220.58799999998882,
      "v": 123
    },
    {
      "midi": 33,
      "hit": false,
      "t": 190367.44399999818,
      "d": 110.29399999999441,
      "v": 84
    },
    {
      "midi": 45,
      "hit": false,
      "t": 190367.44399999827,
      "d": 64.3381666666537,
      "v": 100
    },
    {
      "midi": 62,
      "hit": false,
      "t": 190367.44399999973,
      "d": 209.09904166666092,
      "v": 123
    },
    {
      "midi": 45,
      "hit": false,
      "t": 190477.73799999818,
      "d": 110.29399999999441,
      "v": 84
    },
    {
      "midi": 45,
      "hit": false,
      "t": 190477.73799999827,
      "d": 64.3381666666537,
      "v": 100
    },
    {
      "midi": 53,
      "hit": false,
      "t": 190588.03199999998,
      "d": 3529.407999999996,
      "v": 84
    },
    {
      "midi": 57,
      "hit": false,
      "t": 190588.03199999998,
      "d": 3529.407999999996,
      "v": 84
    },
    {
      "midi": 62,
      "hit": false,
      "t": 190588.03199999998,
      "d": 3529.407999999996,
      "v": 84
    },
    {
      "midi": 26,
      "hit": false,
      "t": 190588.03199999998,
      "d": 12298.92989583331,
      "v": 60
    },
    {
      "midi": 38,
      "hit": false,
      "t": 190588.03199999998,
      "d": 12300.07879166663,
      "v": 90
    },
    {
      "midi": 56,
      "hit": false,
      "t": 190588.0320000001,
      "d": 83.86939583334606,
      "v": 23
    },
    {
      "midi": 56,
      "hit": false,
      "t": 190808.6200000001,
      "d": 78.12491666665301,
      "v": 88
    },
    {
      "midi": 56,
      "hit": false,
      "t": 191029.2080000001,
      "d": 82.72049999999581,
      "v": 40
    },
    {
      "midi": 56,
      "hit": false,
      "t": 191249.7960000001,
      "d": 87.31608333333861,
      "v": 74
    },
    {
      "midi": 56,
      "hit": false,
      "t": 191470.3840000001,
      "d": 71.23154166666791,
      "v": 46
    },
    {
      "midi": 56,
      "hit": false,
      "t": 191690.9720000001,
      "d": 97.65614583334536,
      "v": 92
    },
    {
      "midi": 56,
      "hit": false,
      "t": 191911.5600000001,
      "d": 110.29399999999441,
      "v": 72
    },
    {
      "midi": 56,
      "hit": false,
      "t": 192132.1480000001,
      "d": 107.99620833332301,
      "v": 56
    },
    {
      "midi": 56,
      "hit": false,
      "t": 192352.7360000001,
      "d": 94.20945833332371,
      "v": 25
    },
    {
      "midi": 56,
      "hit": false,
      "t": 192573.32400000008,
      "d": 85.01829166666721,
      "v": 27
    },
    {
      "midi": 56,
      "hit": false,
      "t": 192793.91200000007,
      "d": 101.10283333333791,
      "v": 62
    },
    {
      "midi": 56,
      "hit": false,
      "t": 193014.5000000001,
      "d": 80.42270833332441,
      "v": 56
    },
    {
      "midi": 56,
      "hit": false,
      "t": 193235.08800000008,
      "d": 86.16718749998836,
      "v": 120
    },
    {
      "midi": 56,
      "hit": false,
      "t": 193455.67600000006,
      "d": 95.35835416667396,
      "v": 47
    },
    {
      "midi": 56,
      "hit": false,
      "t": 193676.26400000008,
      "d": 98.80504166666651,
      "v": 75
    },
    {
      "midi": 56,
      "hit": false,
      "t": 193896.85200000007,
      "d": 149.35645833332092,
      "v": 35
    },
    {
      "midi": 48,
      "hit": false,
      "t": 194117.43999999997,
      "d": 3529.407999999996,
      "v": 84
    },
    {
      "midi": 52,
      "hit": false,
      "t": 194117.43999999997,
      "d": 3529.407999999996,
      "v": 84
    },
    {
      "midi": 55,
      "hit": false,
      "t": 194117.43999999997,
      "d": 3529.407999999996,
      "v": 84
    },
    {
      "midi": 60,
      "hit": false,
      "t": 194117.43999999997,
      "d": 3529.407999999996,
      "v": 84
    },
    {
      "midi": 64,
      "hit": false,
      "t": 194117.43999999997,
      "d": 3529.407999999996,
      "v": 84
    },
    {
      "midi": 56,
      "hit": false,
      "t": 194117.44000000006,
      "d": 60.891479166661156,
      "v": 41
    },
    {
      "midi": 56,
      "hit": false,
      "t": 194338.02800000005,
      "d": 94.20945833332371,
      "v": 120
    },
    {
      "midi": 56,
      "hit": false,
      "t": 194558.61600000004,
      "d": 65.48706250000396,
      "v": 43
    },
    {
      "midi": 56,
      "hit": false,
      "t": 194779.20400000006,
      "d": 99.95393749998766,
      "v": 80
    },
    {
      "midi": 56,
      "hit": false,
      "t": 194999.79200000004,
      "d": 91.91166666665231,
      "v": 43
    },
    {
      "midi": 56,
      "hit": false,
      "t": 195220.38000000003,
      "d": 110.29399999999441,
      "v": 104
    },
    {
      "midi": 56,
      "hit": false,
      "t": 195440.96800000002,
      "d": 110.29399999999441,
      "v": 32
    },
    {
      "midi": 56,
      "hit": false,
      "t": 195661.556,
      "d": 64.3381666666537,
      "v": 59
    },
    {
      "midi": 56,
      "hit": false,
      "t": 195882.144,
      "d": 98.80504166666651,
      "v": 120
    },
    {
      "midi": 56,
      "hit": false,
      "t": 196102.732,
      "d": 220.58799999998882,
      "v": 97
    },
    {
      "midi": 56,
      "hit": false,
      "t": 196323.31999999998,
      "d": 110.29399999999441,
      "v": 32
    },
    {
      "midi": 56,
      "hit": false,
      "t": 196543.90799999997,
      "d": 116.03847916665836,
      "v": 90
    },
    {
      "midi": 56,
      "hit": false,
      "t": 196764.49599999996,
      "d": 95.35835416667396,
      "v": 36
    },
    {
      "midi": 56,
      "hit": false,
      "t": 196985.08399999997,
      "d": 101.10283333333791,
      "v": 107
    },
    {
      "midi": 56,
      "hit": false,
      "t": 197205.672,
      "d": 82.72049999999581,
      "v": 41
    },
    {
      "midi": 56,
      "hit": false,
      "t": 197426.25999999998,
      "d": 87.31608333333861,
      "v": 44
    },
    {
      "midi": 46,
      "hit": false,
      "t": 197646.84799999997,
      "d": 3529.407999999996,
      "v": 84
    },
    {
      "midi": 50,
      "hit": false,
      "t": 197646.84799999997,
      "d": 3529.407999999996,
      "v": 84
    },
    {
      "midi": 53,
      "hit": false,
      "t": 197646.84799999997,
      "d": 3529.407999999996,
      "v": 84
    },
    {
      "midi": 58,
      "hit": false,
      "t": 197646.84799999997,
      "d": 3529.407999999996,
      "v": 84
    },
    {
      "midi": 62,
      "hit": false,
      "t": 197646.84799999997,
      "d": 3529.407999999996,
      "v": 84
    },
    {
      "midi": 65,
      "hit": false,
      "t": 197646.84799999997,
      "d": 3529.407999999996,
      "v": 84
    },
    {
      "midi": 56,
      "hit": false,
      "t": 197646.848,
      "d": 74.67822916666046,
      "v": 57
    },
    {
      "midi": 56,
      "hit": false,
      "t": 197867.436,
      "d": 119.48516666668002,
      "v": 104
    },
    {
      "midi": 56,
      "hit": false,
      "t": 198088.024,
      "d": 88.46497916665976,
      "v": 57
    },
    {
      "midi": 56,
      "hit": false,
      "t": 198308.612,
      "d": 93.06056250000256,
      "v": 69
    },
    {
      "midi": 56,
      "hit": false,
      "t": 198529.19999999998,
      "d": 80.42270833332441,
      "v": 48
    },
    {
      "midi": 56,
      "hit": false,
      "t": 198749.78799999997,
      "d": 85.01829166666721,
      "v": 70
    },
    {
      "midi": 56,
      "hit": false,
      "t": 198970.37599999996,
      "d": 117.18737500000861,
      "v": 107
    },
    {
      "midi": 56,
      "hit": false,
      "t": 199190.96399999998,
      "d": 98.80504166666651,
      "v": 53
    },
    {
      "midi": 56,
      "hit": false,
      "t": 199411.55199999997,
      "d": 79.27381250000326,
      "v": 40
    },
    {
      "midi": 56,
      "hit": false,
      "t": 199632.13999999996,
      "d": 79.27381250000326,
      "v": 46
    },
    {
      "midi": 56,
      "hit": false,
      "t": 199852.72799999994,
      "d": 110.29399999999441,
      "v": 32
    },
    {
      "midi": 56,
      "hit": false,
      "t": 200073.31599999993,
      "d": 86.16718749998836,
      "v": 85
    },
    {
      "midi": 56,
      "hit": false,
      "t": 200293.90399999992,
      "d": 71.23154166666791,
      "v": 62
    },
    {
      "midi": 56,
      "hit": false,
      "t": 200514.4919999999,
      "d": 94.20945833332371,
      "v": 120
    },
    {
      "midi": 56,
      "hit": false,
      "t": 200735.0799999999,
      "d": 95.35835416667396,
      "v": 51
    },
    {
      "midi": 56,
      "hit": false,
      "t": 200955.66799999992,
      "d": 79.27381250000326,
      "v": 44
    },
    {
      "midi": 56,
      "hit": false,
      "t": 201176.2559999999,
      "d": 96.50724999999511,
      "v": 66
    },
    {
      "midi": 43,
      "hit": false,
      "t": 201176.25599999996,
      "d": 1764.7039999999688,
      "v": 84
    },
    {
      "midi": 50,
      "hit": false,
      "t": 201176.25599999996,
      "d": 1764.7039999999688,
      "v": 84
    },
    {
      "midi": 53,
      "hit": false,
      "t": 201176.25599999996,
      "d": 1764.7039999999688,
      "v": 84
    },
    {
      "midi": 58,
      "hit": false,
      "t": 201176.25599999996,
      "d": 1764.7039999999688,
      "v": 84
    },
    {
      "midi": 62,
      "hit": false,
      "t": 201176.25599999996,
      "d": 1764.7039999999688,
      "v": 84
    },
    {
      "midi": 67,
      "hit": false,
      "t": 201176.25599999996,
      "d": 1764.7039999999688,
      "v": 84
    },
    {
      "midi": 56,
      "hit": false,
      "t": 201396.8439999999,
      "d": 94.20945833332371,
      "v": 42
    },
    {
      "midi": 56,
      "hit": false,
      "t": 201617.43199999988,
      "d": 75.82712500001071,
      "v": 37
    },
    {
      "midi": 56,
      "hit": false,
      "t": 201838.0199999999,
      "d": 144.76087500000722,
      "v": 110
    },
    {
      "midi": 56,
      "hit": false,
      "t": 202058.60799999992,
      "d": 50.551416666654404,
      "v": 34
    },
    {
      "midi": 56,
      "hit": false,
      "t": 202279.1959999999,
      "d": 70.08264583334676,
      "v": 42
    },
    {
      "midi": 56,
      "hit": false,
      "t": 202499.78399999993,
      "d": 96.50724999999511,
      "v": 48
    },
    {
      "midi": 56,
      "hit": false,
      "t": 202720.37199999992,
      "d": 83.86939583334606,
      "v": 46
    },
    {
      "midi": 56,
      "hit": false,
      "t": 202940.95999999993,
      "d": 110.29399999999441,
      "v": 58
    },
    {
      "midi": 56,
      "hit": false,
      "t": 203161.54799999992,
      "d": 139.01639583334327,
      "v": 120
    },
    {
      "midi": 56,
      "hit": false,
      "t": 203382.13599999994,
      "d": 81.57160416667466,
      "v": 32
    },
    {
      "midi": 56,
      "hit": false,
      "t": 203602.72399999996,
      "d": 89.61387500001001,
      "v": 57
    },
    {
      "midi": 56,
      "hit": false,
      "t": 203823.31199999998,
      "d": 93.06056250000256,
      "v": 85
    },
    {
      "midi": 56,
      "hit": false,
      "t": 204043.89999999997,
      "d": 107.99620833332301,
      "v": 36
    },
    {
      "midi": 56,
      "hit": false,
      "t": 204264.48799999995,
      "d": 71.23154166666791,
      "v": 58
    },
    {
      "midi": 56,
      "hit": false,
      "t": 204485.07599999994,
      "d": 79.27381250000326,
      "v": 51
    },
    {
      "midi": 57,
      "hit": false,
      "t": 204705.66399999982,
      "d": 101.10283333333791,
      "v": 108
    },
    {
      "midi": 69,
      "hit": false,
      "t": 204705.66399999982,
      "d": 122.93185416667257,
      "v": 108
    },
    {
      "midi": 38,
      "hit": false,
      "t": 204705.66399999982,
      "d": 3523.663520833361,
      "v": 111
    },
    {
      "midi": 62,
      "hit": false,
      "t": 204705.6639999999,
      "d": 220.58799999998882,
      "v": 122
    },
    {
      "midi": 38,
      "hit": false,
      "t": 204705.6639999999,
      "d": 3543.194749999937,
      "v": 117
    },
    {
      "midi": 57,
      "hit": false,
      "t": 204912.46524999983,
      "d": 253.90597916668048,
      "v": 110
    },
    {
      "midi": 69,
      "hit": false,
      "t": 204912.46524999983,
      "d": 275.73500000001513,
      "v": 110
    },
    {
      "midi": 57,
      "hit": false,
      "t": 204912.4652499999,
      "d": 245.86370833331603,
      "v": 122
    },
    {
      "midi": 62,
      "hit": false,
      "t": 205133.05324999988,
      "d": 245.86370833331603,
      "v": 122
    },
    {
      "midi": 57,
      "hit": false,
      "t": 205353.64124999984,
      "d": 103.40062500000931,
      "v": 110
    },
    {
      "midi": 69,
      "hit": false,
      "t": 205353.64124999984,
      "d": 125.22964583334397,
      "v": 110
    },
    {
      "midi": 64,
      "hit": false,
      "t": 205353.64124999987,
      "d": 256.2037708333228,
      "v": 122
    },
    {
      "midi": 65,
      "hit": false,
      "t": 205574.22924999986,
      "d": 263.0971458333079,
      "v": 122
    },
    {
      "midi": 57,
      "hit": false,
      "t": 205574.22924999986,
      "d": 274.5861041666649,
      "v": 110
    },
    {
      "midi": 69,
      "hit": false,
      "t": 205574.22924999986,
      "d": 295.2662291666784,
      "v": 110
    },
    {
      "midi": 64,
      "hit": false,
      "t": 205794.81724999985,
      "d": 287.22395833331393,
      "v": 122
    },
    {
      "midi": 65,
      "hit": false,
      "t": 206015.40524999984,
      "d": 255.05487500000163,
      "v": 122
    },
    {
      "midi": 57,
      "hit": false,
      "t": 206015.40524999987,
      "d": 91.91166666665231,
      "v": 110
    },
    {
      "midi": 69,
      "hit": false,
      "t": 206015.40524999987,
      "d": 109.14510416664416,
      "v": 110
    },
    {
      "midi": 67,
      "hit": false,
      "t": 206235.99324999982,
      "d": 220.58800000001793,
      "v": 122
    },
    {
      "midi": 69,
      "hit": false,
      "t": 206235.99324999985,
      "d": 273.43720833334373,
      "v": 110
    },
    {
      "midi": 57,
      "hit": false,
      "t": 206235.99324999985,
      "d": 281.4794791666791,
      "v": 110
    },
    {
      "midi": 65,
      "hit": false,
      "t": 206456.58124999984,
      "d": 265.3949374999793,
      "v": 122
    },
    {
      "midi": 67,
      "hit": false,
      "t": 206677.16924999983,
      "d": 220.58799999998882,
      "v": 122
    },
    {
      "midi": 57,
      "hit": false,
      "t": 206677.16924999986,
      "d": 104.54952083333046,
      "v": 110
    },
    {
      "midi": 69,
      "hit": false,
      "t": 206677.16924999986,
      "d": 124.08074999999371,
      "v": 110
    },
    {
      "midi": 69,
      "hit": false,
      "t": 206897.75724999982,
      "d": 255.05487500000163,
      "v": 122
    },
    {
      "midi": 57,
      "hit": false,
      "t": 206897.75724999985,
      "d": 286.0750624999928,
      "v": 110
    },
    {
      "midi": 69,
      "hit": false,
      "t": 206897.75724999985,
      "d": 297.5640208333207,
      "v": 110
    },
    {
      "midi": 67,
      "hit": false,
      "t": 207118.3452499998,
      "d": 269.9905208333512,
      "v": 122
    },
    {
      "midi": 65,
      "hit": false,
      "t": 207338.93324999983,
      "d": 441.17600000000675,
      "v": 122
    },
    {
      "midi": 57,
      "hit": false,
      "t": 207338.93324999983,
      "d": 253.90597916668048,
      "v": 110
    },
    {
      "midi": 69,
      "hit": false,
      "t": 207338.93324999983,
      "d": 276.8838958333363,
      "v": 110
    },
    {
      "midi": 64,
      "hit": false,
      "t": 207573.30799999973,
      "d": 66.6359583333251,
      "v": 123
    },
    {
      "midi": 64,
      "hit": false,
      "t": 207780.10924999983,
      "d": 441.17600000000675,
      "v": 122
    },
    {
      "midi": 57,
      "hit": false,
      "t": 207780.10924999983,
      "d": 264.24604166665813,
      "v": 110
    },
    {
      "midi": 69,
      "hit": false,
      "t": 207780.10924999983,
      "d": 310.20187499999884,
      "v": 110
    },
    {
      "midi": 64,
      "hit": false,
      "t": 207793.89599999972,
      "d": 72.38043749998906,
      "v": 125
    },
    {
      "midi": 62,
      "hit": false,
      "t": 208014.4839999997,
      "d": 57.44479166666861,
      "v": 101
    },
    {
      "midi": 64,
      "hit": false,
      "t": 208014.4839999997,
      "d": 349.26433333332534,
      "v": 125
    },
    {
      "midi": 62,
      "hit": false,
      "t": 208221.28524999984,
      "d": 220.58799999998882,
      "v": 122
    },
    {
      "midi": 58,
      "hit": false,
      "t": 208221.28524999984,
      "d": 135.5697083333216,
      "v": 110
    },
    {
      "midi": 70,
      "hit": false,
      "t": 208221.28524999984,
      "d": 135.5697083333216,
      "v": 110
    },
    {
      "midi": 34,
      "hit": false,
      "t": 208229.32752083318,
      "d": 3522.5146249999234,
      "v": 117
    },
    {
      "midi": 34,
      "hit": false,
      "t": 208230.4764166665,
      "d": 3512.174562500004,
      "v": 102
    },
    {
      "midi": 58,
      "hit": false,
      "t": 208441.87324999983,
      "d": 220.58799999998882,
      "v": 122
    },
    {
      "midi": 70,
      "hit": false,
      "t": 208441.87324999983,
      "d": 247.01260416666628,
      "v": 110
    },
    {
      "midi": 58,
      "hit": false,
      "t": 208441.87324999983,
      "d": 264.24604166665813,
      "v": 110
    },
    {
      "midi": 62,
      "hit": false,
      "t": 208455.65999999968,
      "d": 81.57160416667466,
      "v": 123
    },
    {
      "midi": 62,
      "hit": false,
      "t": 208662.46124999982,
      "d": 241.26812500000233,
      "v": 122
    },
    {
      "midi": 62,
      "hit": false,
      "t": 208676.2479999997,
      "d": 1163.8314791666635,
      "v": 123
    },
    {
      "midi": 64,
      "hit": false,
      "t": 208883.0492499998,
      "d": 229.77916666667443,
      "v": 122
    },
    {
      "midi": 70,
      "hit": false,
      "t": 208883.0492499998,
      "d": 88.46497916665976,
      "v": 110
    },
    {
      "midi": 58,
      "hit": false,
      "t": 208883.0492499998,
      "d": 114.88958333333721,
      "v": 110
    },
    {
      "midi": 65,
      "hit": false,
      "t": 209103.63724999983,
      "d": 244.71481249999488,
      "v": 122
    },
    {
      "midi": 70,
      "hit": false,
      "t": 209103.63724999983,
      "d": 280.33058333332883,
      "v": 110
    },
    {
      "midi": 58,
      "hit": false,
      "t": 209103.63724999983,
      "d": 288.3728541666642,
      "v": 110
    },
    {
      "midi": 64,
      "hit": false,
      "t": 209324.2252499998,
      "d": 249.31039583333768,
      "v": 122
    },
    {
      "midi": 65,
      "hit": false,
      "t": 209544.81324999983,
      "d": 220.58799999998882,
      "v": 122
    },
    {
      "midi": 58,
      "hit": false,
      "t": 209544.81324999983,
      "d": 110.29399999999441,
      "v": 110
    },
    {
      "midi": 70,
      "hit": false,
      "t": 209544.81324999983,
      "d": 110.29399999999441,
      "v": 110
    },
    {
      "midi": 67,
      "hit": false,
      "t": 209765.40124999982,
      "d": 236.67254166665953,
      "v": 122
    },
    {
      "midi": 70,
      "hit": false,
      "t": 209765.40124999982,
      "d": 269.9905208333221,
      "v": 110
    },
    {
      "midi": 58,
      "hit": false,
      "t": 209765.40124999982,
      "d": 282.62837500000023,
      "v": 110
    },
    {
      "midi": 62,
      "hit": false,
      "t": 209889.4819999997,
      "d": 17.23343749999185,
      "v": 72
    },
    {
      "midi": 65,
      "hit": false,
      "t": 209985.9892499998,
      "d": 220.58800000001793,
      "v": 122
    },
    {
      "midi": 67,
      "hit": false,
      "t": 210206.57724999983,
      "d": 220.58799999998882,
      "v": 122
    },
    {
      "midi": 58,
      "hit": false,
      "t": 210206.57724999983,
      "d": 112.59179166666581,
      "v": 110
    },
    {
      "midi": 70,
      "hit": false,
      "t": 210206.57724999983,
      "d": 121.78295833332231,
      "v": 110
    },
    {
      "midi": 69,
      "hit": false,
      "t": 210427.16524999982,
      "d": 272.2883124999935,
      "v": 122
    },
    {
      "midi": 70,
      "hit": false,
      "t": 210427.16524999982,
      "d": 248.16149999998743,
      "v": 110
    },
    {
      "midi": 58,
      "hit": false,
      "t": 210427.16524999982,
      "d": 265.3949374999793,
      "v": 110
    },
    {
      "midi": 67,
      "hit": false,
      "t": 210647.7532499998,
      "d": 232.07695833334583,
      "v": 122
    },
    {
      "midi": 70,
      "hit": false,
      "t": 210868.3412499998,
      "d": 259.65045833334443,
      "v": 110
    },
    {
      "midi": 58,
      "hit": false,
      "t": 210868.3412499998,
      "d": 265.3949375000084,
      "v": 110
    },
    {
      "midi": 65,
      "hit": false,
      "t": 210868.34124999982,
      "d": 441.17600000000675,
      "v": 122
    },
    {
      "midi": 64,
      "hit": false,
      "t": 211102.7159999997,
      "d": 73.52933333333931,
      "v": 123
    },
    {
      "midi": 58,
      "hit": false,
      "t": 211309.5172499998,
      "d": 269.9905208333221,
      "v": 110
    },
    {
      "midi": 70,
      "hit": false,
      "t": 211309.5172499998,
      "d": 291.81954166665673,
      "v": 110
    },
    {
      "midi": 64,
      "hit": false,
      "t": 211309.51724999983,
      "d": 441.17600000000675,
      "v": 122
    },
    {
      "midi": 64,
      "hit": false,
      "t": 211323.3039999997,
      "d": 76.97602083333186,
      "v": 120
    },
    {
      "midi": 64,
      "hit": false,
      "t": 211543.8919999997,
      "d": 319.39304166665534,
      "v": 120
    },
    {
      "midi": 38,
      "hit": false,
      "t": 211734.60870833317,
      "d": 3547.7903333332506,
      "v": 122
    },
    {
      "midi": 57,
      "hit": false,
      "t": 211750.69324999978,
      "d": 87.3160833333095,
      "v": 110
    },
    {
      "midi": 69,
      "hit": false,
      "t": 211750.69324999978,
      "d": 106.84731249997276,
      "v": 110
    },
    {
      "midi": 62,
      "hit": false,
      "t": 211750.69324999984,
      "d": 220.58799999998882,
      "v": 122
    },
    {
      "midi": 38,
      "hit": false,
      "t": 211761.03331249976,
      "d": 3525.9613125000033,
      "v": 122
    },
    {
      "midi": 57,
      "hit": false,
      "t": 211971.28124999974,
      "d": 278.03279166665743,
      "v": 110
    },
    {
      "midi": 69,
      "hit": false,
      "t": 211971.28124999974,
      "d": 292.9684374999779,
      "v": 110
    },
    {
      "midi": 57,
      "hit": false,
      "t": 211971.28124999983,
      "d": 238.97033333333093,
      "v": 122
    },
    {
      "midi": 62,
      "hit": false,
      "t": 211985.06799999968,
      "d": 73.52933333333931,
      "v": 120
    },
    {
      "midi": 62,
      "hit": false,
      "t": 212191.8692499998,
      "d": 248.16150000001653,
      "v": 122
    },
    {
      "midi": 62,
      "hit": false,
      "t": 212205.6559999997,
      "d": 247.01260416666628,
      "v": 123
    },
    {
      "midi": 69,
      "hit": false,
      "t": 212412.45724999972,
      "d": 90.76277083333116,
      "v": 110
    },
    {
      "midi": 57,
      "hit": false,
      "t": 212412.45724999972,
      "d": 106.84731250000186,
      "v": 110
    },
    {
      "midi": 64,
      "hit": false,
      "t": 212412.45724999983,
      "d": 220.58799999998882,
      "v": 122
    },
    {
      "midi": 65,
      "hit": false,
      "t": 212426.2439999997,
      "d": 906.4788125000196,
      "v": 117
    },
    {
      "midi": 69,
      "hit": false,
      "t": 212633.0452499997,
      "d": 295.2662291666784,
      "v": 110
    },
    {
      "midi": 57,
      "hit": false,
      "t": 212633.0452499997,
      "d": 296.41512499999953,
      "v": 110
    },
    {
      "midi": 65,
      "hit": false,
      "t": 212633.04524999982,
      "d": 220.58799999998882,
      "v": 122
    },
    {
      "midi": 64,
      "hit": false,
      "t": 212853.6332499998,
      "d": 271.1394166666432,
      "v": 122
    },
    {
      "midi": 57,
      "hit": false,
      "t": 213074.2212499997,
      "d": 93.06056250000256,
      "v": 114
    },
    {
      "midi": 69,
      "hit": false,
      "t": 213074.2212499997,
      "d": 114.88958333333721,
      "v": 114
    },
    {
      "midi": 65,
      "hit": false,
      "t": 213074.2212499998,
      "d": 220.58799999998882,
      "v": 122
    },
    {
      "midi": 57,
      "hit": false,
      "t": 213294.80924999973,
      "d": 267.6927291666798,
      "v": 110
    },
    {
      "midi": 69,
      "hit": false,
      "t": 213294.80924999973,
      "d": 290.6706458333356,
      "v": 110
    },
    {
      "midi": 67,
      "hit": false,
      "t": 213294.8092499998,
      "d": 220.58799999998882,
      "v": 122
    },
    {
      "midi": 65,
      "hit": false,
      "t": 213515.39724999978,
      "d": 228.63027083332418,
      "v": 122
    },
    {
      "midi": 57,
      "hit": false,
      "t": 213735.98524999974,
      "d": 96.50724999999511,
      "v": 110
    },
    {
      "midi": 69,
      "hit": false,
      "t": 213735.98524999974,
      "d": 113.74068749998696,
      "v": 110
    },
    {
      "midi": 67,
      "hit": false,
      "t": 213735.98524999977,
      "d": 220.58799999998882,
      "v": 122
    },
    {
      "midi": 57,
      "hit": false,
      "t": 213956.57324999972,
      "d": 278.03279166665743,
      "v": 110
    },
    {
      "midi": 69,
      "hit": false,
      "t": 213956.57324999972,
      "d": 284.92616666667163,
      "v": 110
    },
    {
      "midi": 69,
      "hit": false,
      "t": 213956.57324999975,
      "d": 252.75708333333023,
      "v": 122
    },
    {
      "midi": 67,
      "hit": false,
      "t": 214177.16124999974,
      "d": 276.8838958333654,
      "v": 122
    },
    {
      "midi": 67,
      "hit": false,
      "t": 214190.9479999997,
      "d": 373.3911458333314,
      "v": 125
    },
    {
      "midi": 69,
      "hit": false,
      "t": 214397.74924999973,
      "d": 280.33058333332883,
      "v": 110
    },
    {
      "midi": 57,
      "hit": false,
      "t": 214397.74924999973,
      "d": 288.3728541666642,
      "v": 110
    },
    {
      "midi": 65,
      "hit": false,
      "t": 214397.74924999976,
      "d": 441.17600000000675,
      "v": 122
    },
    {
      "midi": 65,
      "hit": false,
      "t": 214632.12399999972,
      "d": 78.12491666665301,
      "v": 113
    },
    {
      "midi": 57,
      "hit": false,
      "t": 214838.92524999974,
      "d": 274.5861041666649,
      "v": 110
    },
    {
      "midi": 69,
      "hit": false,
      "t": 214838.92524999974,
      "d": 314.79745833334164,
      "v": 110
    },
    {
      "midi": 64,
      "hit": false,
      "t": 214838.92524999977,
      "d": 441.17599999997765,
      "v": 122
    },
    {
      "midi": 65,
      "hit": false,
      "t": 214852.7119999997,
      "d": 99.95393749998766,
      "v": 120
    },
    {
      "midi": 64,
      "hit": false,
      "t": 215073.2999999997,
      "d": 396.3690624999872,
      "v": 120
    },
    {
      "midi": 34,
      "hit": false,
      "t": 215265.16560416642,
      "d": 3453.580874999898,
      "v": 117
    },
    {
      "midi": 34,
      "hit": false,
      "t": 215277.80345833307,
      "d": 3336.3934999999183,
      "v": 121
    },
    {
      "midi": 62,
      "hit": false,
      "t": 215280.10124999975,
      "d": 220.58800000001793,
      "v": 122
    },
    {
      "midi": 70,
      "hit": false,
      "t": 215280.10124999975,
      "d": 85.01829166666721,
      "v": 110
    },
    {
      "midi": 58,
      "hit": false,
      "t": 215280.10124999975,
      "d": 93.06056250000256,
      "v": 110
    },
    {
      "midi": 70,
      "hit": false,
      "t": 215500.68924999973,
      "d": 275.73499999998603,
      "v": 110
    },
    {
      "midi": 58,
      "hit": false,
      "t": 215500.68924999973,
      "d": 291.81954166665673,
      "v": 110
    },
    {
      "midi": 58,
      "hit": false,
      "t": 215500.68924999976,
      "d": 220.58799999998882,
      "v": 122
    },
    {
      "midi": 62,
      "hit": false,
      "t": 215514.47599999967,
      "d": 79.27381250000326,
      "v": 113
    },
    {
      "midi": 62,
      "hit": false,
      "t": 215721.27724999975,
      "d": 240.11922916665208,
      "v": 122
    },
    {
      "midi": 62,
      "hit": false,
      "t": 215735.06399999966,
      "d": 1022.517291666707,
      "v": 123
    },
    {
      "midi": 70,
      "hit": false,
      "t": 215941.8652499997,
      "d": 104.54952083333046,
      "v": 110
    },
    {
      "midi": 58,
      "hit": false,
      "t": 215941.8652499997,
      "d": 125.22964583334397,
      "v": 110
    },
    {
      "midi": 64,
      "hit": false,
      "t": 215941.86524999974,
      "d": 220.58799999998882,
      "v": 122
    },
    {
      "midi": 65,
      "hit": false,
      "t": 216162.45324999973,
      "d": 240.11922916665208,
      "v": 122
    },
    {
      "midi": 70,
      "hit": false,
      "t": 216162.45324999973,
      "d": 279.1816875000077,
      "v": 110
    },
    {
      "midi": 58,
      "hit": false,
      "t": 216162.45324999973,
      "d": 299.8618125000212,
      "v": 110
    },
    {
      "midi": 64,
      "hit": false,
      "t": 216383.04124999972,
      "d": 220.58799999998882,
      "v": 122
    },
    {
      "midi": 65,
      "hit": false,
      "t": 216603.6292499997,
      "d": 220.58799999998882,
      "v": 122
    },
    {
      "midi": 70,
      "hit": false,
      "t": 216603.62924999974,
      "d": 91.91166666665231,
      "v": 110
    },
    {
      "midi": 58,
      "hit": false,
      "t": 216603.62924999974,
      "d": 120.63406249997206,
      "v": 110
    },
    {
      "midi": 67,
      "hit": false,
      "t": 216824.2172499997,
      "d": 220.58799999998882,
      "v": 122
    },
    {
      "midi": 70,
      "hit": false,
      "t": 216824.2172499997,
      "d": 264.24604166665813,
      "v": 110
    },
    {
      "midi": 58,
      "hit": false,
      "t": 216824.2172499997,
      "d": 273.43720833331463,
      "v": 110
    },
    {
      "midi": 65,
      "hit": false,
      "t": 217044.80524999968,
      "d": 257.3526666666439,
      "v": 122
    },
    {
      "midi": 67,
      "hit": false,
      "t": 217265.39324999967,
      "d": 220.58799999998882,
      "v": 122
    },
    {
      "midi": 58,
      "hit": false,
      "t": 217265.39324999967,
      "d": 89.61387500001001,
      "v": 110
    },
    {
      "midi": 70,
      "hit": false,
      "t": 217265.39324999967,
      "d": 107.99620833335212,
      "v": 110
    },
    {
      "midi": 69,
      "hit": false,
      "t": 217485.98124999966,
      "d": 251.60818749997998,
      "v": 122
    },
    {
      "midi": 70,
      "hit": false,
      "t": 217485.9812499997,
      "d": 264.24604166665813,
      "v": 110
    },
    {
      "midi": 58,
      "hit": false,
      "t": 217485.9812499997,
      "d": 279.1816874999786,
      "v": 110
    },
    {
      "midi": 67,
      "hit": false,
      "t": 217706.56924999965,
      "d": 233.22585416666698,
      "v": 122
    },
    {
      "midi": 65,
      "hit": false,
      "t": 217927.15724999964,
      "d": 446.9204791666707,
      "v": 122
    },
    {
      "midi": 70,
      "hit": false,
      "t": 217927.15724999967,
      "d": 261.94824999998673,
      "v": 110
    },
    {
      "midi": 58,
      "hit": false,
      "t": 217927.15724999967,
      "d": 269.9905208333221,
      "v": 110
    },
    {
      "midi": 65,
      "hit": false,
      "t": 218161.53199999972,
      "d": 127.52743749998626,
      "v": 120
    },
    {
      "midi": 64,
      "hit": false,
      "t": 218368.33324999965,
      "d": 441.17600000000675,
      "v": 122
    },
    {
      "midi": 70,
      "hit": false,
      "t": 218368.33324999965,
      "d": 217.14131249999627,
      "v": 110
    },
    {
      "midi": 58,
      "hit": false,
      "t": 218368.33324999965,
      "d": 237.82143750000978,
      "v": 110
    },
    {
      "midi": 64,
      "hit": false,
      "t": 218382.1199999997,
      "d": 80.42270833332441,
      "v": 123
    },
    {
      "midi": 64,
      "hit": false,
      "t": 218602.7079999997,
      "d": 314.79745833334164,
      "v": 125
    },
    {
      "midi": 62,
      "hit": false,
      "t": 218823.29599999965,
      "d": 220.58799999998882,
      "v": 122
    },
    {
      "midi": 38,
      "hit": false,
      "t": 218823.29599999965,
      "d": 3543.194749999937,
      "v": 117
    },
    {
      "midi": 57,
      "hit": false,
      "t": 218823.29599999965,
      "d": 101.10283333333791,
      "v": 108
    },
    {
      "midi": 69,
      "hit": false,
      "t": 218823.29599999965,
      "d": 122.93185416667257,
      "v": 108
    },
    {
      "midi": 38,
      "hit": false,
      "t": 218823.29599999965,
      "d": 3523.663520833361,
      "v": 111
    },
    {
      "midi": 57,
      "hit": false,
      "t": 219030.09724999964,
      "d": 245.86370833331603,
      "v": 122
    },
    {
      "midi": 57,
      "hit": false,
      "t": 219030.09724999967,
      "d": 253.90597916668048,
      "v": 110
    },
    {
      "midi": 69,
      "hit": false,
      "t": 219030.09724999967,
      "d": 275.73500000001513,
      "v": 110
    },
    {
      "midi": 65,
      "hit": false,
      "t": 219043.8839999997,
      "d": 88.46497916665976,
      "v": 104
    },
    {
      "midi": 62,
      "hit": false,
      "t": 219250.68524999963,
      "d": 245.86370833331603,
      "v": 122
    },
    {
      "midi": 64,
      "hit": false,
      "t": 219264.4719999997,
      "d": 428.5381458332704,
      "v": 123
    },
    {
      "midi": 64,
      "hit": false,
      "t": 219471.27324999962,
      "d": 256.2037708333228,
      "v": 122
    },
    {
      "midi": 57,
      "hit": false,
      "t": 219471.27324999968,
      "d": 103.40062500000931,
      "v": 110
    },
    {
      "midi": 69,
      "hit": false,
      "t": 219471.27324999968,
      "d": 125.22964583334397,
      "v": 110
    },
    {
      "midi": 65,
      "hit": false,
      "t": 219691.8612499996,
      "d": 263.0971458333079,
      "v": 122
    },
    {
      "midi": 57,
      "hit": false,
      "t": 219691.8612499997,
      "d": 274.5861041666649,
      "v": 110
    },
    {
      "midi": 69,
      "hit": false,
      "t": 219691.8612499997,
      "d": 295.2662291666784,
      "v": 110
    },
    {
      "midi": 62,
      "hit": false,
      "t": 219705.64799999964,
      "d": 1313.1879375000135,
      "v": 107
    },
    {
      "midi": 64,
      "hit": false,
      "t": 219912.4492499996,
      "d": 287.22395833331393,
      "v": 122
    },
    {
      "midi": 65,
      "hit": false,
      "t": 220133.0372499996,
      "d": 255.05487500000163,
      "v": 122
    },
    {
      "midi": 57,
      "hit": false,
      "t": 220133.0372499997,
      "d": 91.91166666665231,
      "v": 110
    },
    {
      "midi": 69,
      "hit": false,
      "t": 220133.0372499997,
      "d": 109.14510416664416,
      "v": 110
    },
    {
      "midi": 67,
      "hit": false,
      "t": 220353.62524999958,
      "d": 220.58800000001793,
      "v": 122
    },
    {
      "midi": 69,
      "hit": false,
      "t": 220353.6252499997,
      "d": 273.43720833334373,
      "v": 110
    },
    {
      "midi": 57,
      "hit": false,
      "t": 220353.6252499997,
      "d": 281.4794791666791,
      "v": 110
    },
    {
      "midi": 65,
      "hit": false,
      "t": 220574.2132499996,
      "d": 265.3949374999793,
      "v": 122
    },
    {
      "midi": 67,
      "hit": false,
      "t": 220794.80124999958,
      "d": 220.58799999998882,
      "v": 122
    },
    {
      "midi": 57,
      "hit": false,
      "t": 220794.8012499997,
      "d": 104.54952083333046,
      "v": 110
    },
    {
      "midi": 69,
      "hit": false,
      "t": 220794.8012499997,
      "d": 124.08074999999371,
      "v": 110
    },
    {
      "midi": 69,
      "hit": false,
      "t": 221015.38924999957,
      "d": 255.05487500000163,
      "v": 122
    },
    {
      "midi": 57,
      "hit": false,
      "t": 221015.3892499997,
      "d": 286.0750624999928,
      "v": 110
    },
    {
      "midi": 69,
      "hit": false,
      "t": 221015.3892499997,
      "d": 297.5640208333207,
      "v": 110
    },
    {
      "midi": 67,
      "hit": false,
      "t": 221235.97724999956,
      "d": 269.9905208333512,
      "v": 122
    },
    {
      "midi": 65,
      "hit": false,
      "t": 221456.56524999958,
      "d": 441.17600000000675,
      "v": 122
    },
    {
      "midi": 57,
      "hit": false,
      "t": 221456.56524999966,
      "d": 253.90597916668048,
      "v": 110
    },
    {
      "midi": 69,
      "hit": false,
      "t": 221456.56524999966,
      "d": 276.8838958333363,
      "v": 110
    },
    {
      "midi": 64,
      "hit": false,
      "t": 221897.74124999958,
      "d": 441.17600000000675,
      "v": 122
    },
    {
      "midi": 57,
      "hit": false,
      "t": 221897.74124999967,
      "d": 264.24604166665813,
      "v": 110
    },
    {
      "midi": 69,
      "hit": false,
      "t": 221897.74124999967,
      "d": 310.20187499999884,
      "v": 110
    },
    {
      "midi": 69,
      "hit": false,
      "t": 222132.11599999966,
      "d": 6587.768708333577,
      "v": 123
    },
    {
      "midi": 62,
      "hit": false,
      "t": 222338.9172499996,
      "d": 220.58799999998882,
      "v": 122
    },
    {
      "midi": 58,
      "hit": false,
      "t": 222338.91724999968,
      "d": 135.5697083333216,
      "v": 110
    },
    {
      "midi": 70,
      "hit": false,
      "t": 222338.91724999968,
      "d": 135.5697083333216,
      "v": 110
    },
    {
      "midi": 34,
      "hit": false,
      "t": 222346.959520833,
      "d": 3522.5146249999234,
      "v": 117
    },
    {
      "midi": 34,
      "hit": false,
      "t": 222348.10841666625,
      "d": 3512.174562500004,
      "v": 102
    },
    {
      "midi": 58,
      "hit": false,
      "t": 222559.50524999958,
      "d": 220.58799999998882,
      "v": 122
    },
    {
      "midi": 70,
      "hit": false,
      "t": 222559.50524999967,
      "d": 247.01260416666628,
      "v": 110
    },
    {
      "midi": 58,
      "hit": false,
      "t": 222559.50524999967,
      "d": 264.24604166665813,
      "v": 110
    },
    {
      "midi": 62,
      "hit": false,
      "t": 222780.09324999957,
      "d": 241.26812500000233,
      "v": 122
    },
    {
      "midi": 64,
      "hit": false,
      "t": 223000.68124999956,
      "d": 229.77916666667443,
      "v": 122
    },
    {
      "midi": 70,
      "hit": false,
      "t": 223000.68124999964,
      "d": 88.46497916665976,
      "v": 110
    },
    {
      "midi": 58,
      "hit": false,
      "t": 223000.68124999964,
      "d": 114.88958333333721,
      "v": 110
    },
    {
      "midi": 65,
      "hit": false,
      "t": 223221.26924999958,
      "d": 244.71481249999488,
      "v": 122
    },
    {
      "midi": 70,
      "hit": false,
      "t": 223221.26924999966,
      "d": 280.33058333332883,
      "v": 110
    },
    {
      "midi": 58,
      "hit": false,
      "t": 223221.26924999966,
      "d": 288.3728541666642,
      "v": 110
    },
    {
      "midi": 64,
      "hit": false,
      "t": 223441.85724999956,
      "d": 249.31039583333768,
      "v": 122
    },
    {
      "midi": 65,
      "hit": false,
      "t": 223662.44524999958,
      "d": 220.58799999998882,
      "v": 122
    },
    {
      "midi": 58,
      "hit": false,
      "t": 223662.44524999967,
      "d": 110.29399999999441,
      "v": 110
    },
    {
      "midi": 70,
      "hit": false,
      "t": 223662.44524999967,
      "d": 110.29399999999441,
      "v": 110
    },
    {
      "midi": 67,
      "hit": false,
      "t": 223883.03324999957,
      "d": 236.67254166665953,
      "v": 122
    },
    {
      "midi": 70,
      "hit": false,
      "t": 223883.03324999966,
      "d": 269.9905208333221,
      "v": 110
    },
    {
      "midi": 58,
      "hit": false,
      "t": 223883.03324999966,
      "d": 282.62837500000023,
      "v": 110
    },
    {
      "midi": 65,
      "hit": false,
      "t": 224103.62124999956,
      "d": 220.58800000001793,
      "v": 122
    },
    {
      "midi": 67,
      "hit": false,
      "t": 224324.20924999958,
      "d": 220.58799999998882,
      "v": 122
    },
    {
      "midi": 58,
      "hit": false,
      "t": 224324.20924999967,
      "d": 112.59179166666581,
      "v": 110
    },
    {
      "midi": 70,
      "hit": false,
      "t": 224324.20924999967,
      "d": 121.78295833332231,
      "v": 110
    },
    {
      "midi": 69,
      "hit": false,
      "t": 224544.79724999957,
      "d": 272.2883124999935,
      "v": 122
    },
    {
      "midi": 70,
      "hit": false,
      "t": 224544.79724999965,
      "d": 248.16149999998743,
      "v": 110
    },
    {
      "midi": 58,
      "hit": false,
      "t": 224544.79724999965,
      "d": 265.3949374999793,
      "v": 110
    },
    {
      "midi": 67,
      "hit": false,
      "t": 224765.38524999956,
      "d": 232.07695833334583,
      "v": 122
    },
    {
      "midi": 65,
      "hit": false,
      "t": 224985.97324999957,
      "d": 441.17600000000675,
      "v": 122
    },
    {
      "midi": 70,
      "hit": false,
      "t": 224985.97324999963,
      "d": 259.65045833334443,
      "v": 110
    },
    {
      "midi": 58,
      "hit": false,
      "t": 224985.97324999963,
      "d": 265.3949375000084,
      "v": 110
    },
    {
      "midi": 64,
      "hit": false,
      "t": 225427.14924999958,
      "d": 441.17600000000675,
      "v": 122
    },
    {
      "midi": 58,
      "hit": false,
      "t": 225427.14924999964,
      "d": 269.9905208333221,
      "v": 110
    },
    {
      "midi": 70,
      "hit": false,
      "t": 225427.14924999964,
      "d": 291.81954166665673,
      "v": 110
    },
    {
      "midi": 38,
      "hit": false,
      "t": 225852.24070833292,
      "d": 3547.7903333332506,
      "v": 122
    },
    {
      "midi": 62,
      "hit": false,
      "t": 225868.3252499996,
      "d": 220.58799999998882,
      "v": 122
    },
    {
      "midi": 57,
      "hit": false,
      "t": 225868.32524999962,
      "d": 87.3160833333095,
      "v": 110
    },
    {
      "midi": 69,
      "hit": false,
      "t": 225868.32524999962,
      "d": 106.84731249997276,
      "v": 110
    },
    {
      "midi": 38,
      "hit": false,
      "t": 225878.6653124996,
      "d": 3525.9613125000033,
      "v": 122
    },
    {
      "midi": 57,
      "hit": false,
      "t": 226088.91324999958,
      "d": 238.97033333333093,
      "v": 122
    },
    {
      "midi": 57,
      "hit": false,
      "t": 226088.91324999958,
      "d": 278.03279166665743,
      "v": 110
    },
    {
      "midi": 69,
      "hit": false,
      "t": 226088.91324999958,
      "d": 292.9684374999779,
      "v": 110
    },
    {
      "midi": 62,
      "hit": false,
      "t": 226309.50124999956,
      "d": 248.16150000001653,
      "v": 122
    },
    {
      "midi": 69,
      "hit": false,
      "t": 226530.08924999955,
      "d": 90.76277083333116,
      "v": 110
    },
    {
      "midi": 57,
      "hit": false,
      "t": 226530.08924999955,
      "d": 106.84731250000186,
      "v": 110
    },
    {
      "midi": 64,
      "hit": false,
      "t": 226530.08924999958,
      "d": 220.58799999998882,
      "v": 122
    },
    {
      "midi": 69,
      "hit": false,
      "t": 226750.67724999954,
      "d": 295.2662291666784,
      "v": 110
    },
    {
      "midi": 57,
      "hit": false,
      "t": 226750.67724999954,
      "d": 296.41512499999953,
      "v": 110
    },
    {
      "midi": 65,
      "hit": false,
      "t": 226750.67724999957,
      "d": 220.58799999998882,
      "v": 122
    },
    {
      "midi": 64,
      "hit": false,
      "t": 226971.26524999956,
      "d": 271.1394166666432,
      "v": 122
    },
    {
      "midi": 65,
      "hit": false,
      "t": 227191.85324999955,
      "d": 220.58799999998882,
      "v": 122
    },
    {
      "midi": 57,
      "hit": false,
      "t": 227191.85324999955,
      "d": 93.06056250000256,
      "v": 114
    },
    {
      "midi": 69,
      "hit": false,
      "t": 227191.85324999955,
      "d": 114.88958333333721,
      "v": 114
    },
    {
      "midi": 67,
      "hit": false,
      "t": 227412.44124999954,
      "d": 220.58799999998882,
      "v": 122
    },
    {
      "midi": 57,
      "hit": false,
      "t": 227412.44124999957,
      "d": 267.6927291666798,
      "v": 110
    },
    {
      "midi": 69,
      "hit": false,
      "t": 227412.44124999957,
      "d": 290.6706458333356,
      "v": 110
    },
    {
      "midi": 65,
      "hit": false,
      "t": 227633.02924999953,
      "d": 228.63027083332418,
      "v": 122
    },
    {
      "midi": 67,
      "hit": false,
      "t": 227853.61724999952,
      "d": 220.58799999998882,
      "v": 122
    },
    {
      "midi": 57,
      "hit": false,
      "t": 227853.61724999957,
      "d": 96.50724999999511,
      "v": 110
    },
    {
      "midi": 69,
      "hit": false,
      "t": 227853.61724999957,
      "d": 113.74068749998696,
      "v": 110
    },
    {
      "midi": 69,
      "hit": false,
      "t": 228074.2052499995,
      "d": 252.75708333333023,
      "v": 122
    },
    {
      "midi": 57,
      "hit": false,
      "t": 228074.20524999956,
      "d": 278.03279166665743,
      "v": 110
    },
    {
      "midi": 69,
      "hit": false,
      "t": 228074.20524999956,
      "d": 284.92616666667163,
      "v": 110
    },
    {
      "midi": 67,
      "hit": false,
      "t": 228294.7932499995,
      "d": 276.8838958333654,
      "v": 122
    },
    {
      "midi": 65,
      "hit": false,
      "t": 228515.3812499995,
      "d": 441.17600000000675,
      "v": 122
    },
    {
      "midi": 69,
      "hit": false,
      "t": 228515.38124999957,
      "d": 280.33058333332883,
      "v": 110
    },
    {
      "midi": 57,
      "hit": false,
      "t": 228515.38124999957,
      "d": 288.3728541666642,
      "v": 110
    },
    {
      "midi": 72,
      "hit": false,
      "t": 228749.7559999999,
      "d": 226.33247916665277,
      "v": 120
    },
    {
      "midi": 64,
      "hit": false,
      "t": 228956.55724999952,
      "d": 441.17599999997765,
      "v": 122
    },
    {
      "midi": 57,
      "hit": false,
      "t": 228956.55724999958,
      "d": 274.5861041666649,
      "v": 110
    },
    {
      "midi": 69,
      "hit": false,
      "t": 228956.55724999958,
      "d": 314.79745833334164,
      "v": 110
    },
    {
      "midi": 67,
      "hit": false,
      "t": 229190.93199999986,
      "d": 473.34508333334816,
      "v": 123
    },
    {
      "midi": 34,
      "hit": false,
      "t": 229382.79760416618,
      "d": 1806.0642499999376,
      "v": 117
    },
    {
      "midi": 34,
      "hit": false,
      "t": 229395.4354583329,
      "d": 1764.7039999999688,
      "v": 121
    },
    {
      "midi": 62,
      "hit": false,
      "t": 229397.7332499995,
      "d": 220.58800000001793,
      "v": 122
    },
    {
      "midi": 70,
      "hit": false,
      "t": 229397.73324999958,
      "d": 85.01829166666721,
      "v": 110
    },
    {
      "midi": 58,
      "hit": false,
      "t": 229397.73324999958,
      "d": 93.06056250000256,
      "v": 110
    },
    {
      "midi": 58,
      "hit": false,
      "t": 229618.3212499995,
      "d": 220.58799999998882,
      "v": 122
    },
    {
      "midi": 70,
      "hit": false,
      "t": 229618.32124999957,
      "d": 275.73499999998603,
      "v": 110
    },
    {
      "midi": 58,
      "hit": false,
      "t": 229618.32124999957,
      "d": 291.81954166665673,
      "v": 110
    },
    {
      "midi": 65,
      "hit": false,
      "t": 229632.10799999986,
      "d": 417.0491875000007,
      "v": 117
    },
    {
      "midi": 62,
      "hit": false,
      "t": 229838.9092499995,
      "d": 240.11922916665208,
      "v": 122
    },
    {
      "midi": 64,
      "hit": false,
      "t": 230059.4972499995,
      "d": 220.58799999998882,
      "v": 122
    },
    {
      "midi": 70,
      "hit": false,
      "t": 230059.49724999955,
      "d": 104.54952083333046,
      "v": 110
    },
    {
      "midi": 58,
      "hit": false,
      "t": 230059.49724999955,
      "d": 125.22964583334397,
      "v": 110
    },
    {
      "midi": 62,
      "hit": false,
      "t": 230073.28399999987,
      "d": 913.3721875000629,
      "v": 117
    },
    {
      "midi": 65,
      "hit": false,
      "t": 230280.08524999948,
      "d": 240.11922916665208,
      "v": 122
    },
    {
      "midi": 70,
      "hit": false,
      "t": 230280.08524999957,
      "d": 279.1816875000077,
      "v": 110
    },
    {
      "midi": 58,
      "hit": false,
      "t": 230280.08524999957,
      "d": 299.8618125000212,
      "v": 110
    },
    {
      "midi": 64,
      "hit": false,
      "t": 230500.67324999947,
      "d": 220.58799999998882,
      "v": 122
    },
    {
      "midi": 65,
      "hit": false,
      "t": 230721.26124999946,
      "d": 220.58799999998882,
      "v": 122
    },
    {
      "midi": 70,
      "hit": false,
      "t": 230721.26124999957,
      "d": 91.91166666665231,
      "v": 110
    },
    {
      "midi": 58,
      "hit": false,
      "t": 230721.26124999957,
      "d": 120.63406249997206,
      "v": 110
    },
    {
      "midi": 67,
      "hit": false,
      "t": 230941.84924999945,
      "d": 220.58799999998882,
      "v": 122
    },
    {
      "midi": 70,
      "hit": false,
      "t": 230941.84924999953,
      "d": 264.24604166668723,
      "v": 110
    },
    {
      "midi": 58,
      "hit": false,
      "t": 230941.84924999953,
      "d": 273.43720833334373,
      "v": 110
    },
    {
      "midi": 80,
      "hit": false,
      "t": 231176.22399999996,
      "d": 1438.4175833333284,
      "v": 101
    },
    {
      "midi": 38,
      "hit": false,
      "t": 231178.5217916666,
      "d": 1642.9210416662972,
      "v": 127
    },
    {
      "midi": 26,
      "hit": false,
      "t": 231186.56406249994,
      "d": 1626.8364999996265,
      "v": 127
    },
    {
      "midi": 64,
      "hit": false,
      "t": 232279.16399999996,
      "d": 78.12491666665301,
      "v": 123
    },
    {
      "midi": 64,
      "hit": false,
      "t": 232499.75199999995,
      "d": 74.67822916666046,
      "v": 120
    },
    {
      "midi": 64,
      "hit": false,
      "t": 232720.33999999994,
      "d": 301.01070833334234,
      "v": 123
    },
    {
      "midi": 38,
      "hit": false,
      "t": 232940.92799999818,
      "d": 220.58799999998882,
      "v": 84
    },
    {
      "midi": 38,
      "hit": false,
      "t": 232940.92799999827,
      "d": 227.48137500000303,
      "v": 100
    },
    {
      "midi": 62,
      "hit": false,
      "t": 232940.92799999958,
      "d": 1764.703999999998,
      "v": 74
    },
    {
      "midi": 65,
      "hit": false,
      "t": 232940.92799999958,
      "d": 1764.703999999998,
      "v": 74
    },
    {
      "midi": 69,
      "hit": false,
      "t": 232940.92799999958,
      "d": 1764.703999999998,
      "v": 74
    },
    {
      "midi": 62,
      "hit": false,
      "t": 232940.92799999993,
      "d": 1764.703999999998,
      "v": 75
    },
    {
      "midi": 65,
      "hit": false,
      "t": 232940.92799999993,
      "d": 1764.703999999998,
      "v": 75
    },
    {
      "midi": 81,
      "hit": false,
      "t": 232965.05481249993,
      "d": 13996.997937499982,
      "v": 82
    },
    {
      "midi": 93,
      "hit": false,
      "t": 232973.09708333327,
      "d": 13984.360083333304,
      "v": 82
    },
    {
      "midi": 50,
      "hit": false,
      "t": 233161.51599999817,
      "d": 110.29399999999441,
      "v": 84
    },
    {
      "midi": 50,
      "hit": false,
      "t": 233161.51599999826,
      "d": 64.33816666668281,
      "v": 100
    },
    {
      "midi": 62,
      "hit": false,
      "t": 233161.51599999995,
      "d": 64.3381666666537,
      "v": 120
    },
    {
      "midi": 38,
      "hit": false,
      "t": 233271.80999999816,
      "d": 119.48516666665091,
      "v": 84
    },
    {
      "midi": 50,
      "hit": false,
      "t": 233271.80999999828,
      "d": 102.25172916665906,
      "v": 100
    },
    {
      "midi": 50,
      "hit": false,
      "t": 233382.10399999816,
      "d": 220.58799999998882,
      "v": 84
    },
    {
      "midi": 38,
      "hit": false,
      "t": 233382.10399999827,
      "d": 245.86370833331603,
      "v": 100
    },
    {
      "midi": 62,
      "hit": false,
      "t": 233382.10399999993,
      "d": 581.3412916666712,
      "v": 120
    },
    {
      "midi": 38,
      "hit": false,
      "t": 233602.69199999815,
      "d": 110.29399999999441,
      "v": 84
    },
    {
      "midi": 50,
      "hit": false,
      "t": 233602.69199999826,
      "d": 64.3381666666537,
      "v": 100
    },
    {
      "midi": 50,
      "hit": false,
      "t": 233712.98599999814,
      "d": 120.63406250000116,
      "v": 84
    },
    {
      "midi": 50,
      "hit": false,
      "t": 233712.98599999826,
      "d": 91.91166666665231,
      "v": 100
    },
    {
      "midi": 38,
      "hit": false,
      "t": 233823.27999999814,
      "d": 220.58800000001793,
      "v": 84
    },
    {
      "midi": 38,
      "hit": false,
      "t": 233823.27999999825,
      "d": 266.54383333332953,
      "v": 100
    },
    {
      "midi": 50,
      "hit": false,
      "t": 234043.86799999815,
      "d": 110.29399999999441,
      "v": 84
    },
    {
      "midi": 50,
      "hit": false,
      "t": 234043.86799999824,
      "d": 64.33816666668281,
      "v": 100
    },
    {
      "midi": 64,
      "hit": false,
      "t": 234043.86799999993,
      "d": 72.38043749998906,
      "v": 120
    },
    {
      "midi": 38,
      "hit": false,
      "t": 234154.16199999815,
      "d": 121.78295833332231,
      "v": 84
    },
    {
      "midi": 50,
      "hit": false,
      "t": 234154.16199999826,
      "d": 94.20945833332371,
      "v": 100
    },
    {
      "midi": 50,
      "hit": false,
      "t": 234264.45599999814,
      "d": 220.58799999998882,
      "v": 84
    },
    {
      "midi": 38,
      "hit": false,
      "t": 234264.45599999826,
      "d": 206.80124999998952,
      "v": 100
    },
    {
      "midi": 64,
      "hit": false,
      "t": 234264.45599999992,
      "d": 75.82712500001071,
      "v": 120
    },
    {
      "midi": 38,
      "hit": false,
      "t": 234485.04399999813,
      "d": 110.29399999999441,
      "v": 84
    },
    {
      "midi": 50,
      "hit": false,
      "t": 234485.04399999825,
      "d": 64.3381666666537,
      "v": 100
    },
    {
      "midi": 64,
      "hit": false,
      "t": 234485.04399999994,
      "d": 295.2662291666784,
      "v": 120
    },
    {
      "midi": 50,
      "hit": false,
      "t": 234595.33799999813,
      "d": 117.18737500000861,
      "v": 84
    },
    {
      "midi": 50,
      "hit": false,
      "t": 234595.33799999824,
      "d": 64.3381666666537,
      "v": 100
    },
    {
      "midi": 34,
      "hit": false,
      "t": 234705.63199999812,
      "d": 220.58800000001793,
      "v": 84
    },
    {
      "midi": 34,
      "hit": false,
      "t": 234705.63199999824,
      "d": 209.09904166666092,
      "v": 100
    },
    {
      "midi": 58,
      "hit": false,
      "t": 234705.63199999958,
      "d": 1764.703999999998,
      "v": 74
    },
    {
      "midi": 62,
      "hit": false,
      "t": 234705.63199999958,
      "d": 1764.703999999998,
      "v": 74
    },
    {
      "midi": 65,
      "hit": false,
      "t": 234705.63199999958,
      "d": 1764.703999999998,
      "v": 74
    },
    {
      "midi": 58,
      "hit": false,
      "t": 234705.63199999993,
      "d": 1764.703999999998,
      "v": 75
    },
    {
      "midi": 62,
      "hit": false,
      "t": 234705.63199999993,
      "d": 1764.703999999998,
      "v": 75
    },
    {
      "midi": 65,
      "hit": false,
      "t": 234705.63199999993,
      "d": 1764.703999999998,
      "v": 75
    },
    {
      "midi": 46,
      "hit": false,
      "t": 234926.21999999814,
      "d": 110.29399999999441,
      "v": 84
    },
    {
      "midi": 46,
      "hit": false,
      "t": 234926.21999999823,
      "d": 64.3381666666537,
      "v": 100
    },
    {
      "midi": 65,
      "hit": false,
      "t": 234926.21999999994,
      "d": 266.54383333332953,
      "v": 120
    },
    {
      "midi": 34,
      "hit": false,
      "t": 235036.51399999813,
      "d": 121.78295833332231,
      "v": 84
    },
    {
      "midi": 46,
      "hit": false,
      "t": 235036.51399999822,
      "d": 64.3381666666537,
      "v": 100
    },
    {
      "midi": 46,
      "hit": false,
      "t": 235146.80799999813,
      "d": 220.58799999998882,
      "v": 84
    },
    {
      "midi": 34,
      "hit": false,
      "t": 235146.80799999821,
      "d": 235.52364583330927,
      "v": 100
    },
    {
      "midi": 34,
      "hit": false,
      "t": 235367.39599999812,
      "d": 110.29399999999441,
      "v": 84
    },
    {
      "midi": 46,
      "hit": false,
      "t": 235367.3959999982,
      "d": 64.3381666666537,
      "v": 100
    },
    {
      "midi": 62,
      "hit": false,
      "t": 235367.39599999995,
      "d": 259.65045833334443,
      "v": 123
    },
    {
      "midi": 46,
      "hit": false,
      "t": 235477.6899999981,
      "d": 110.29399999999441,
      "v": 84
    },
    {
      "midi": 46,
      "hit": false,
      "t": 235477.6899999982,
      "d": 64.3381666666537,
      "v": 100
    },
    {
      "midi": 34,
      "hit": false,
      "t": 235587.9839999981,
      "d": 220.58799999998882,
      "v": 84
    },
    {
      "midi": 34,
      "hit": false,
      "t": 235587.9839999982,
      "d": 210.24793750001118,
      "v": 100
    },
    {
      "midi": 46,
      "hit": false,
      "t": 235808.5719999981,
      "d": 110.29399999999441,
      "v": 84
    },
    {
      "midi": 46,
      "hit": false,
      "t": 235808.5719999982,
      "d": 64.3381666666537,
      "v": 100
    },
    {
      "midi": 65,
      "hit": false,
      "t": 235808.57199999996,
      "d": 75.82712500001071,
      "v": 125
    },
    {
      "midi": 34,
      "hit": false,
      "t": 235918.8659999981,
      "d": 110.29399999999441,
      "v": 84
    },
    {
      "midi": 46,
      "hit": false,
      "t": 235918.8659999982,
      "d": 68.93374999999651,
      "v": 100
    },
    {
      "midi": 46,
      "hit": false,
      "t": 236029.15999999808,
      "d": 228.63027083332418,
      "v": 84
    },
    {
      "midi": 34,
      "hit": false,
      "t": 236029.1599999982,
      "d": 194.16339583334047,
      "v": 100
    },
    {
      "midi": 65,
      "hit": false,
      "t": 236029.15999999997,
      "d": 72.38043749998906,
      "v": 120
    },
    {
      "midi": 34,
      "hit": false,
      "t": 236249.74799999807,
      "d": 110.29399999999441,
      "v": 84
    },
    {
      "midi": 46,
      "hit": false,
      "t": 236249.74799999822,
      "d": 64.3381666666537,
      "v": 100
    },
    {
      "midi": 65,
      "hit": false,
      "t": 236249.74799999996,
      "d": 304.4573958333349,
      "v": 120
    },
    {
      "midi": 46,
      "hit": false,
      "t": 236360.04199999807,
      "d": 110.29399999999441,
      "v": 84
    },
    {
      "midi": 46,
      "hit": false,
      "t": 236360.0419999982,
      "d": 64.3381666666537,
      "v": 100
    },
    {
      "midi": 31,
      "hit": false,
      "t": 236470.33599999806,
      "d": 220.58799999998882,
      "v": 84
    },
    {
      "midi": 31,
      "hit": false,
      "t": 236470.3359999982,
      "d": 213.69462500000373,
      "v": 100
    },
    {
      "midi": 55,
      "hit": false,
      "t": 236470.33599999957,
      "d": 1764.703999999998,
      "v": 74
    },
    {
      "midi": 58,
      "hit": false,
      "t": 236470.33599999957,
      "d": 1764.703999999998,
      "v": 74
    },
    {
      "midi": 62,
      "hit": false,
      "t": 236470.33599999957,
      "d": 1764.703999999998,
      "v": 74
    },
    {
      "midi": 55,
      "hit": false,
      "t": 236470.33599999992,
      "d": 1764.703999999998,
      "v": 75
    },
    {
      "midi": 58,
      "hit": false,
      "t": 236470.33599999992,
      "d": 1764.703999999998,
      "v": 75
    },
    {
      "midi": 62,
      "hit": false,
      "t": 236470.33599999992,
      "d": 1764.703999999998,
      "v": 75
    },
    {
      "midi": 43,
      "hit": false,
      "t": 236690.92399999805,
      "d": 110.29399999999441,
      "v": 84
    },
    {
      "midi": 43,
      "hit": false,
      "t": 236690.92399999822,
      "d": 64.3381666666537,
      "v": 100
    },
    {
      "midi": 64,
      "hit": false,
      "t": 236690.92399999997,
      "d": 82.72049999999581,
      "v": 123
    },
    {
      "midi": 31,
      "hit": false,
      "t": 236801.21799999804,
      "d": 122.93185416667257,
      "v": 84
    },
    {
      "midi": 43,
      "hit": false,
      "t": 236801.21799999822,
      "d": 64.3381666666537,
      "v": 100
    },
    {
      "midi": 43,
      "hit": false,
      "t": 236911.51199999804,
      "d": 220.58800000001793,
      "v": 84
    },
    {
      "midi": 31,
      "hit": false,
      "t": 236911.5119999982,
      "d": 224.03468749998137,
      "v": 100
    },
    {
      "midi": 64,
      "hit": false,
      "t": 236911.51199999996,
      "d": 492.8763125000114,
      "v": 123
    },
    {
      "midi": 31,
      "hit": false,
      "t": 237132.09999999806,
      "d": 110.29399999999441,
      "v": 84
    },
    {
      "midi": 43,
      "hit": false,
      "t": 237132.0999999982,
      "d": 64.3381666666537,
      "v": 100
    },
    {
      "midi": 43,
      "hit": false,
      "t": 237242.39399999805,
      "d": 130.97412500000792,
      "v": 84
    },
    {
      "midi": 43,
      "hit": false,
      "t": 237242.3939999982,
      "d": 65.48706250000396,
      "v": 100
    },
    {
      "midi": 31,
      "hit": false,
      "t": 237352.68799999804,
      "d": 220.58800000001793,
      "v": 84
    },
    {
      "midi": 31,
      "hit": false,
      "t": 237352.6879999982,
      "d": 218.29020833334653,
      "v": 100
    },
    {
      "midi": 43,
      "hit": false,
      "t": 237573.27599999806,
      "d": 110.29399999999441,
      "v": 84
    },
    {
      "midi": 43,
      "hit": false,
      "t": 237573.2759999982,
      "d": 64.3381666666537,
      "v": 100
    },
    {
      "midi": 65,
      "hit": false,
      "t": 237573.27599999998,
      "d": 72.38043749998906,
      "v": 117
    },
    {
      "midi": 31,
      "hit": false,
      "t": 237683.56999999806,
      "d": 130.97412500000792,
      "v": 84
    },
    {
      "midi": 43,
      "hit": false,
      "t": 237683.5699999982,
      "d": 64.3381666666537,
      "v": 100
    },
    {
      "midi": 43,
      "hit": false,
      "t": 237793.86399999805,
      "d": 220.58800000001793,
      "v": 84
    },
    {
      "midi": 31,
      "hit": false,
      "t": 237793.8639999982,
      "d": 222.88579166666023,
      "v": 100
    },
    {
      "midi": 65,
      "hit": false,
      "t": 237793.86399999997,
      "d": 72.38043749998906,
      "v": 120
    },
    {
      "midi": 31,
      "hit": false,
      "t": 238014.45199999807,
      "d": 110.29399999999441,
      "v": 84
    },
    {
      "midi": 43,
      "hit": false,
      "t": 238014.4519999982,
      "d": 64.33816666668281,
      "v": 100
    },
    {
      "midi": 65,
      "hit": false,
      "t": 238014.45199999996,
      "d": 299.8618124999921,
      "v": 120
    },
    {
      "midi": 43,
      "hit": false,
      "t": 238124.74599999806,
      "d": 110.29399999999441,
      "v": 84
    },
    {
      "midi": 43,
      "hit": false,
      "t": 238124.7459999982,
      "d": 64.3381666666537,
      "v": 100
    },
    {
      "midi": 33,
      "hit": false,
      "t": 238235.03999999806,
      "d": 220.58799999998882,
      "v": 84
    },
    {
      "midi": 33,
      "hit": false,
      "t": 238235.0399999982,
      "d": 211.39683333333232,
      "v": 100
    },
    {
      "midi": 57,
      "hit": false,
      "t": 238235.03999999957,
      "d": 1764.703999999998,
      "v": 74
    },
    {
      "midi": 61,
      "hit": false,
      "t": 238235.03999999957,
      "d": 1764.703999999998,
      "v": 74
    },
    {
      "midi": 64,
      "hit": false,
      "t": 238235.03999999957,
      "d": 1764.703999999998,
      "v": 74
    },
    {
      "midi": 57,
      "hit": false,
      "t": 238235.03999999992,
      "d": 1764.703999999998,
      "v": 75
    },
    {
      "midi": 61,
      "hit": false,
      "t": 238235.03999999992,
      "d": 1764.703999999998,
      "v": 75
    },
    {
      "midi": 64,
      "hit": false,
      "t": 238235.03999999992,
      "d": 1764.703999999998,
      "v": 75
    },
    {
      "midi": 45,
      "hit": false,
      "t": 238455.62799999805,
      "d": 110.29399999999441,
      "v": 84
    },
    {
      "midi": 45,
      "hit": false,
      "t": 238455.6279999982,
      "d": 64.3381666666537,
      "v": 100
    },
    {
      "midi": 64,
      "hit": false,
      "t": 238455.62799999994,
      "d": 80.42270833332441,
      "v": 120
    },
    {
      "midi": 33,
      "hit": false,
      "t": 238565.92199999804,
      "d": 118.33627083332976,
      "v": 84
    },
    {
      "midi": 45,
      "hit": false,
      "t": 238565.9219999982,
      "d": 68.93374999999651,
      "v": 100
    },
    {
      "midi": 45,
      "hit": false,
      "t": 238676.21599999804,
      "d": 220.58799999998882,
      "v": 84
    },
    {
      "midi": 33,
      "hit": false,
      "t": 238676.21599999818,
      "d": 212.54572916665347,
      "v": 100
    },
    {
      "midi": 64,
      "hit": false,
      "t": 238676.21599999993,
      "d": 505.51416666666046,
      "v": 120
    },
    {
      "midi": 33,
      "hit": false,
      "t": 238896.80399999802,
      "d": 110.29399999999441,
      "v": 84
    },
    {
      "midi": 45,
      "hit": false,
      "t": 238896.80399999817,
      "d": 64.3381666666537,
      "v": 100
    },
    {
      "midi": 45,
      "hit": false,
      "t": 239007.09799999802,
      "d": 130.97412500000792,
      "v": 84
    },
    {
      "midi": 45,
      "hit": false,
      "t": 239007.09799999816,
      "d": 64.3381666666537,
      "v": 100
    },
    {
      "midi": 33,
      "hit": false,
      "t": 239117.391999998,
      "d": 220.58800000001793,
      "v": 84
    },
    {
      "midi": 33,
      "hit": false,
      "t": 239117.39199999816,
      "d": 197.61008333333302,
      "v": 100
    },
    {
      "midi": 45,
      "hit": false,
      "t": 239337.97999999803,
      "d": 110.29399999999441,
      "v": 84
    },
    {
      "midi": 45,
      "hit": false,
      "t": 239337.97999999815,
      "d": 64.3381666666537,
      "v": 100
    },
    {
      "midi": 33,
      "hit": false,
      "t": 239448.27399999803,
      "d": 122.93185416667257,
      "v": 84
    },
    {
      "midi": 45,
      "hit": false,
      "t": 239448.27399999814,
      "d": 64.3381666666537,
      "v": 100
    },
    {
      "midi": 45,
      "hit": false,
      "t": 239558.56799999802,
      "d": 220.58800000001793,
      "v": 84
    },
    {
      "midi": 33,
      "hit": false,
      "t": 239558.56799999814,
      "d": 184.97222916665487,
      "v": 100
    },
    {
      "midi": 64,
      "hit": false,
      "t": 239558.5679999999,
      "d": 79.27381250000326,
      "v": 120
    },
    {
      "midi": 33,
      "hit": false,
      "t": 239779.15599999804,
      "d": 110.29399999999441,
      "v": 84
    },
    {
      "midi": 45,
      "hit": false,
      "t": 239779.15599999813,
      "d": 64.3381666666537,
      "v": 100
    },
    {
      "midi": 64,
      "hit": false,
      "t": 239779.1559999999,
      "d": 275.73499999998603,
      "v": 117
    },
    {
      "midi": 45,
      "hit": false,
      "t": 239889.44999999803,
      "d": 114.88958333333721,
      "v": 84
    },
    {
      "midi": 45,
      "hit": false,
      "t": 239889.44999999812,
      "d": 64.3381666666537,
      "v": 100
    },
    {
      "midi": 38,
      "hit": false,
      "t": 239999.74399999803,
      "d": 220.58800000001793,
      "v": 84
    },
    {
      "midi": 38,
      "hit": false,
      "t": 239999.7439999981,
      "d": 174.63216666667722,
      "v": 100
    },
    {
      "midi": 62,
      "hit": false,
      "t": 239999.74399999957,
      "d": 1764.703999999998,
      "v": 74
    },
    {
      "midi": 65,
      "hit": false,
      "t": 239999.74399999957,
      "d": 1764.703999999998,
      "v": 74
    },
    {
      "midi": 69,
      "hit": false,
      "t": 239999.74399999957,
      "d": 1764.703999999998,
      "v": 74
    },
    {
      "midi": 57,
      "hit": false,
      "t": 239999.74399999992,
      "d": 1764.703999999998,
      "v": 75
    },
    {
      "midi": 62,
      "hit": false,
      "t": 239999.74399999992,
      "d": 1764.703999999998,
      "v": 75
    },
    {
      "midi": 65,
      "hit": false,
      "t": 239999.74399999992,
      "d": 1764.703999999998,
      "v": 75
    },
    {
      "midi": 50,
      "hit": false,
      "t": 240220.33199999804,
      "d": 110.29399999999441,
      "v": 84
    },
    {
      "midi": 50,
      "hit": false,
      "t": 240220.33199999813,
      "d": 64.3381666666537,
      "v": 100
    },
    {
      "midi": 62,
      "hit": false,
      "t": 240220.33199999988,
      "d": 80.42270833332441,
      "v": 120
    },
    {
      "midi": 38,
      "hit": false,
      "t": 240330.62599999804,
      "d": 117.18737500000861,
      "v": 84
    },
    {
      "midi": 50,
      "hit": false,
      "t": 240330.62599999813,
      "d": 64.3381666666537,
      "v": 100
    },
    {
      "midi": 50,
      "hit": false,
      "t": 240440.91999999803,
      "d": 221.73689583333908,
      "v": 84
    },
    {
      "midi": 38,
      "hit": false,
      "t": 240440.91999999812,
      "d": 174.63216666667722,
      "v": 100
    },
    {
      "midi": 62,
      "hit": false,
      "t": 240440.91999999987,
      "d": 496.32300000000396,
      "v": 120
    },
    {
      "midi": 38,
      "hit": false,
      "t": 240661.50799999805,
      "d": 110.29399999999441,
      "v": 84
    },
    {
      "midi": 50,
      "hit": false,
      "t": 240661.50799999814,
      "d": 64.3381666666537,
      "v": 100
    },
    {
      "midi": 50,
      "hit": false,
      "t": 240771.80199999805,
      "d": 119.48516666665091,
      "v": 84
    },
    {
      "midi": 50,
      "hit": false,
      "t": 240771.80199999813,
      "d": 64.3381666666537,
      "v": 100
    },
    {
      "midi": 38,
      "hit": false,
      "t": 240882.09599999804,
      "d": 220.58799999998882,
      "v": 84
    },
    {
      "midi": 38,
      "hit": false,
      "t": 240882.09599999813,
      "d": 174.63216666667722,
      "v": 100
    },
    {
      "midi": 50,
      "hit": false,
      "t": 241102.68399999803,
      "d": 110.29399999999441,
      "v": 84
    },
    {
      "midi": 50,
      "hit": false,
      "t": 241102.68399999815,
      "d": 64.3381666666537,
      "v": 100
    },
    {
      "midi": 64,
      "hit": false,
      "t": 241102.68399999986,
      "d": 79.27381250000326,
      "v": 120
    },
    {
      "midi": 38,
      "hit": false,
      "t": 241212.97799999802,
      "d": 118.33627083332976,
      "v": 84
    },
    {
      "midi": 50,
      "hit": false,
      "t": 241212.97799999814,
      "d": 64.3381666666537,
      "v": 100
    },
    {
      "midi": 50,
      "hit": false,
      "t": 241323.27199999802,
      "d": 226.33247916665277,
      "v": 84
    },
    {
      "midi": 38,
      "hit": false,
      "t": 241323.27199999813,
      "d": 174.63216666667722,
      "v": 100
    },
    {
      "midi": 64,
      "hit": false,
      "t": 241323.27199999985,
      "d": 76.97602083333186,
      "v": 120
    },
    {
      "midi": 38,
      "hit": false,
      "t": 241543.859999998,
      "d": 110.29399999999441,
      "v": 84
    },
    {
      "midi": 50,
      "hit": false,
      "t": 241543.85999999815,
      "d": 64.3381666666537,
      "v": 100
    },
    {
      "midi": 64,
      "hit": false,
      "t": 241543.85999999984,
      "d": 245.86370833334513,
      "v": 120
    },
    {
      "midi": 50,
      "hit": false,
      "t": 241654.153999998,
      "d": 113.74068749998696,
      "v": 84
    },
    {
      "midi": 50,
      "hit": false,
      "t": 241654.15399999815,
      "d": 64.3381666666537,
      "v": 100
    },
    {
      "midi": 34,
      "hit": false,
      "t": 241764.447999998,
      "d": 220.58799999998882,
      "v": 84
    },
    {
      "midi": 34,
      "hit": false,
      "t": 241764.44799999814,
      "d": 201.05677083332557,
      "v": 100
    },
    {
      "midi": 58,
      "hit": false,
      "t": 241764.44799999957,
      "d": 1764.703999999998,
      "v": 74
    },
    {
      "midi": 62,
      "hit": false,
      "t": 241764.44799999957,
      "d": 1764.703999999998,
      "v": 74
    },
    {
      "midi": 65,
      "hit": false,
      "t": 241764.44799999957,
      "d": 1764.703999999998,
      "v": 74
    },
    {
      "midi": 58,
      "hit": false,
      "t": 241764.44799999992,
      "d": 1764.703999999998,
      "v": 75
    },
    {
      "midi": 62,
      "hit": false,
      "t": 241764.44799999992,
      "d": 1764.703999999998,
      "v": 75
    },
    {
      "midi": 65,
      "hit": false,
      "t": 241764.44799999992,
      "d": 1764.703999999998,
      "v": 75
    },
    {
      "midi": 46,
      "hit": false,
      "t": 241985.03599999798,
      "d": 110.29399999999441,
      "v": 84
    },
    {
      "midi": 46,
      "hit": false,
      "t": 241985.03599999813,
      "d": 64.3381666666537,
      "v": 100
    },
    {
      "midi": 65,
      "hit": false,
      "t": 241985.03599999985,
      "d": 236.67254166665953,
      "v": 120
    },
    {
      "midi": 34,
      "hit": false,
      "t": 242095.32999999798,
      "d": 110.29399999999441,
      "v": 84
    },
    {
      "midi": 46,
      "hit": false,
      "t": 242095.32999999812,
      "d": 64.3381666666537,
      "v": 100
    },
    {
      "midi": 46,
      "hit": false,
      "t": 242205.62399999797,
      "d": 220.58799999998882,
      "v": 84
    },
    {
      "midi": 34,
      "hit": false,
      "t": 242205.62399999812,
      "d": 174.63216666667722,
      "v": 100
    },
    {
      "midi": 34,
      "hit": false,
      "t": 242426.21199999796,
      "d": 110.29399999999441,
      "v": 84
    },
    {
      "midi": 46,
      "hit": false,
      "t": 242426.21199999814,
      "d": 64.3381666666537,
      "v": 100
    },
    {
      "midi": 62,
      "hit": false,
      "t": 242426.21199999985,
      "d": 253.90597916668048,
      "v": 123
    },
    {
      "midi": 46,
      "hit": false,
      "t": 242536.50599999796,
      "d": 111.44289583331556,
      "v": 84
    },
    {
      "midi": 46,
      "hit": false,
      "t": 242536.50599999813,
      "d": 64.3381666666537,
      "v": 100
    },
    {
      "midi": 34,
      "hit": false,
      "t": 242646.79999999795,
      "d": 220.58799999998882,
      "v": 84
    },
    {
      "midi": 34,
      "hit": false,
      "t": 242646.79999999813,
      "d": 188.41891666667652,
      "v": 100
    },
    {
      "midi": 46,
      "hit": false,
      "t": 242867.38799999794,
      "d": 110.29399999999441,
      "v": 84
    },
    {
      "midi": 46,
      "hit": false,
      "t": 242867.38799999814,
      "d": 64.3381666666537,
      "v": 100
    },
    {
      "midi": 65,
      "hit": false,
      "t": 242867.38799999986,
      "d": 66.6359583333251,
      "v": 117
    },
    {
      "midi": 34,
      "hit": false,
      "t": 242977.68199999793,
      "d": 118.33627083332976,
      "v": 84
    },
    {
      "midi": 46,
      "hit": false,
      "t": 242977.68199999814,
      "d": 64.3381666666537,
      "v": 100
    },
    {
      "midi": 46,
      "hit": false,
      "t": 243087.97599999793,
      "d": 220.58799999998882,
      "v": 84
    },
    {
      "midi": 34,
      "hit": false,
      "t": 243087.97599999813,
      "d": 186.12112500000512,
      "v": 100
    },
    {
      "midi": 65,
      "hit": false,
      "t": 243087.97599999985,
      "d": 72.38043749998906,
      "v": 117
    },
    {
      "midi": 34,
      "hit": false,
      "t": 243308.56399999792,
      "d": 110.29399999999441,
      "v": 84
    },
    {
      "midi": 46,
      "hit": false,
      "t": 243308.56399999815,
      "d": 64.3381666666537,
      "v": 100
    },
    {
      "midi": 65,
      "hit": false,
      "t": 243308.56399999984,
      "d": 315.9463541666628,
      "v": 120
    },
    {
      "midi": 46,
      "hit": false,
      "t": 243418.8579999979,
      "d": 110.29399999999441,
      "v": 84
    },
    {
      "midi": 46,
      "hit": false,
      "t": 243418.85799999814,
      "d": 64.3381666666537,
      "v": 100
    },
    {
      "midi": 31,
      "hit": false,
      "t": 243529.1519999979,
      "d": 220.58799999998882,
      "v": 84
    },
    {
      "midi": 31,
      "hit": false,
      "t": 243529.15199999814,
      "d": 174.63216666667722,
      "v": 100
    },
    {
      "midi": 55,
      "hit": false,
      "t": 243529.15199999957,
      "d": 1764.703999999998,
      "v": 74
    },
    {
      "midi": 58,
      "hit": false,
      "t": 243529.15199999957,
      "d": 1764.703999999998,
      "v": 74
    },
    {
      "midi": 62,
      "hit": false,
      "t": 243529.15199999957,
      "d": 1764.703999999998,
      "v": 74
    },
    {
      "midi": 55,
      "hit": false,
      "t": 243529.1519999999,
      "d": 1764.703999999998,
      "v": 75
    },
    {
      "midi": 58,
      "hit": false,
      "t": 243529.1519999999,
      "d": 1764.703999999998,
      "v": 75
    },
    {
      "midi": 62,
      "hit": false,
      "t": 243529.1519999999,
      "d": 1764.703999999998,
      "v": 75
    },
    {
      "midi": 43,
      "hit": false,
      "t": 243749.7399999979,
      "d": 110.29399999999441,
      "v": 84
    },
    {
      "midi": 43,
      "hit": false,
      "t": 243749.73999999816,
      "d": 64.3381666666537,
      "v": 100
    },
    {
      "midi": 64,
      "hit": false,
      "t": 243749.73999999985,
      "d": 76.97602083333186,
      "v": 120
    },
    {
      "midi": 31,
      "hit": false,
      "t": 243860.0339999979,
      "d": 121.78295833332231,
      "v": 84
    },
    {
      "midi": 43,
      "hit": false,
      "t": 243860.03399999815,
      "d": 64.3381666666537,
      "v": 100
    },
    {
      "midi": 43,
      "hit": false,
      "t": 243970.32799999788,
      "d": 220.58799999998882,
      "v": 84
    },
    {
      "midi": 31,
      "hit": false,
      "t": 243970.32799999815,
      "d": 174.63216666667722,
      "v": 100
    },
    {
      "midi": 64,
      "hit": false,
      "t": 243970.32799999983,
      "d": 469.8983958333265,
      "v": 120
    },
    {
      "midi": 31,
      "hit": false,
      "t": 244190.91599999787,
      "d": 110.29399999999441,
      "v": 84
    },
    {
      "midi": 43,
      "hit": false,
      "t": 244190.91599999816,
      "d": 64.3381666666537,
      "v": 100
    },
    {
      "midi": 43,
      "hit": false,
      "t": 244301.20999999787,
      "d": 121.78295833332231,
      "v": 84
    },
    {
      "midi": 43,
      "hit": false,
      "t": 244301.20999999816,
      "d": 64.3381666666537,
      "v": 100
    },
    {
      "midi": 31,
      "hit": false,
      "t": 244411.50399999786,
      "d": 220.58799999998882,
      "v": 84
    },
    {
      "midi": 31,
      "hit": false,
      "t": 244411.50399999815,
      "d": 202.20566666667582,
      "v": 100
    },
    {
      "midi": 43,
      "hit": false,
      "t": 244632.09199999785,
      "d": 110.29399999999441,
      "v": 84
    },
    {
      "midi": 43,
      "hit": false,
      "t": 244632.09199999817,
      "d": 64.3381666666537,
      "v": 100
    },
    {
      "midi": 65,
      "hit": false,
      "t": 244632.09199999983,
      "d": 70.08264583334676,
      "v": 120
    },
    {
      "midi": 31,
      "hit": false,
      "t": 244742.38599999784,
      "d": 110.29399999999441,
      "v": 84
    },
    {
      "midi": 43,
      "hit": false,
      "t": 244742.38599999817,
      "d": 64.3381666666537,
      "v": 100
    },
    {
      "midi": 43,
      "hit": false,
      "t": 244852.67999999784,
      "d": 227.48137500000303,
      "v": 84
    },
    {
      "midi": 31,
      "hit": false,
      "t": 244852.67999999816,
      "d": 202.20566666667582,
      "v": 100
    },
    {
      "midi": 65,
      "hit": false,
      "t": 244852.67999999985,
      "d": 67.78485416667536,
      "v": 117
    },
    {
      "midi": 31,
      "hit": false,
      "t": 245073.26799999783,
      "d": 110.29400000002352,
      "v": 84
    },
    {
      "midi": 43,
      "hit": false,
      "t": 245073.26799999818,
      "d": 64.3381666666537,
      "v": 100
    },
    {
      "midi": 65,
      "hit": false,
      "t": 245073.26799999987,
      "d": 311.35077083332,
      "v": 120
    },
    {
      "midi": 43,
      "hit": false,
      "t": 245183.56199999785,
      "d": 110.29399999999441,
      "v": 84
    },
    {
      "midi": 43,
      "hit": false,
      "t": 245183.56199999817,
      "d": 64.3381666666537,
      "v": 100
    },
    {
      "midi": 33,
      "hit": false,
      "t": 245293.85599999785,
      "d": 220.58799999998882,
      "v": 84
    },
    {
      "midi": 33,
      "hit": false,
      "t": 245293.85599999817,
      "d": 174.63216666667722,
      "v": 100
    },
    {
      "midi": 57,
      "hit": false,
      "t": 245293.85599999956,
      "d": 1764.703999999998,
      "v": 74
    },
    {
      "midi": 61,
      "hit": false,
      "t": 245293.85599999956,
      "d": 1764.703999999998,
      "v": 74
    },
    {
      "midi": 64,
      "hit": false,
      "t": 245293.85599999956,
      "d": 1764.703999999998,
      "v": 74
    },
    {
      "midi": 57,
      "hit": false,
      "t": 245293.8559999999,
      "d": 1764.703999999998,
      "v": 75
    },
    {
      "midi": 61,
      "hit": false,
      "t": 245293.8559999999,
      "d": 1764.703999999998,
      "v": 75
    },
    {
      "midi": 64,
      "hit": false,
      "t": 245293.8559999999,
      "d": 1764.703999999998,
      "v": 75
    },
    {
      "midi": 45,
      "hit": false,
      "t": 245514.44399999783,
      "d": 110.29399999999441,
      "v": 84
    },
    {
      "midi": 45,
      "hit": false,
      "t": 245514.44399999818,
      "d": 64.3381666666537,
      "v": 100
    },
    {
      "midi": 64,
      "hit": false,
      "t": 245514.44399999984,
      "d": 71.23154166666791,
      "v": 120
    },
    {
      "midi": 33,
      "hit": false,
      "t": 245624.73799999783,
      "d": 130.97412500000792,
      "v": 84
    },
    {
      "midi": 45,
      "hit": false,
      "t": 245624.73799999818,
      "d": 64.3381666666537,
      "v": 100
    },
    {
      "midi": 45,
      "hit": false,
      "t": 245735.03199999782,
      "d": 220.58800000001793,
      "v": 84
    },
    {
      "midi": 33,
      "hit": false,
      "t": 245735.03199999817,
      "d": 204.50345833334723,
      "v": 100
    },
    {
      "midi": 64,
      "hit": false,
      "t": 245735.03199999983,
      "d": 220.58799999998882,
      "v": 117
    },
    {
      "midi": 33,
      "hit": false,
      "t": 245955.61999999784,
      "d": 110.29399999999441,
      "v": 84
    },
    {
      "midi": 45,
      "hit": false,
      "t": 245955.6199999982,
      "d": 64.3381666666537,
      "v": 100
    },
    {
      "midi": 45,
      "hit": false,
      "t": 246065.91399999784,
      "d": 120.63406250000116,
      "v": 84
    },
    {
      "midi": 45,
      "hit": false,
      "t": 246065.91399999819,
      "d": 64.3381666666537,
      "v": 100
    },
    {
      "midi": 33,
      "hit": false,
      "t": 246176.20799999783,
      "d": 220.58800000001793,
      "v": 84
    },
    {
      "midi": 33,
      "hit": false,
      "t": 246176.20799999818,
      "d": 211.39683333333232,
      "v": 100
    },
    {
      "midi": 45,
      "hit": false,
      "t": 246396.79599999785,
      "d": 110.29399999999441,
      "v": 84
    },
    {
      "midi": 45,
      "hit": false,
      "t": 246396.79599999817,
      "d": 64.3381666666537,
      "v": 100
    },
    {
      "midi": 64,
      "hit": false,
      "t": 246396.79599999983,
      "d": 110.29399999999441,
      "v": 125
    },
    {
      "midi": 33,
      "hit": false,
      "t": 246507.08999999784,
      "d": 124.08074999999371,
      "v": 84
    },
    {
      "midi": 45,
      "hit": false,
      "t": 246507.08999999816,
      "d": 64.3381666666537,
      "v": 100
    },
    {
      "midi": 45,
      "hit": false,
      "t": 246617.38399999784,
      "d": 232.07695833331672,
      "v": 84
    },
    {
      "midi": 33,
      "hit": false,
      "t": 246617.38399999816,
      "d": 174.63216666667722,
      "v": 100
    },
    {
      "midi": 64,
      "hit": false,
      "t": 246617.38399999982,
      "d": 110.29399999999441,
      "v": 123
    },
    {
      "midi": 33,
      "hit": false,
      "t": 246837.97199999783,
      "d": 110.29399999999441,
      "v": 84
    },
    {
      "midi": 45,
      "hit": false,
      "t": 246837.97199999818,
      "d": 64.3381666666537,
      "v": 100
    },
    {
      "midi": 64,
      "hit": false,
      "t": 246837.9719999998,
      "d": 330.88200000001234,
      "v": 123
    },
    {
      "midi": 45,
      "hit": false,
      "t": 246948.26599999782,
      "d": 110.29399999999441,
      "v": 84
    },
    {
      "midi": 45,
      "hit": false,
      "t": 246948.26599999817,
      "d": 64.3381666666537,
      "v": 100
    },
    {
      "midi": 38,
      "hit": false,
      "t": 247058.55999999781,
      "d": 220.58799999998882,
      "v": 84
    },
    {
      "midi": 38,
      "hit": false,
      "t": 247058.55999999816,
      "d": 227.48137500000303,
      "v": 100
    },
    {
      "midi": 62,
      "hit": false,
      "t": 247058.55999999956,
      "d": 1764.703999999998,
      "v": 74
    },
    {
      "midi": 65,
      "hit": false,
      "t": 247058.55999999956,
      "d": 1764.703999999998,
      "v": 74
    },
    {
      "midi": 69,
      "hit": false,
      "t": 247058.55999999956,
      "d": 1764.703999999998,
      "v": 74
    },
    {
      "midi": 62,
      "hit": false,
      "t": 247058.5599999999,
      "d": 1764.703999999998,
      "v": 75
    },
    {
      "midi": 65,
      "hit": false,
      "t": 247058.5599999999,
      "d": 1764.703999999998,
      "v": 75
    },
    {
      "midi": 81,
      "hit": false,
      "t": 247082.68681249992,
      "d": 13996.997937499982,
      "v": 82
    },
    {
      "midi": 93,
      "hit": false,
      "t": 247090.72908333325,
      "d": 13984.360083333304,
      "v": 82
    },
    {
      "midi": 50,
      "hit": false,
      "t": 247279.1479999978,
      "d": 110.29399999999441,
      "v": 84
    },
    {
      "midi": 50,
      "hit": false,
      "t": 247279.14799999815,
      "d": 64.33816666668281,
      "v": 100
    },
    {
      "midi": 62,
      "hit": false,
      "t": 247279.1479999998,
      "d": 64.3381666666537,
      "v": 120
    },
    {
      "midi": 38,
      "hit": false,
      "t": 247389.4419999978,
      "d": 119.48516666665091,
      "v": 84
    },
    {
      "midi": 50,
      "hit": false,
      "t": 247389.44199999818,
      "d": 102.25172916665906,
      "v": 100
    },
    {
      "midi": 50,
      "hit": false,
      "t": 247499.7359999978,
      "d": 220.58799999998882,
      "v": 84
    },
    {
      "midi": 38,
      "hit": false,
      "t": 247499.73599999817,
      "d": 245.86370833331603,
      "v": 100
    },
    {
      "midi": 62,
      "hit": false,
      "t": 247499.7359999998,
      "d": 581.3412916666712,
      "v": 120
    },
    {
      "midi": 38,
      "hit": false,
      "t": 247720.32399999778,
      "d": 110.29399999999441,
      "v": 84
    },
    {
      "midi": 50,
      "hit": false,
      "t": 247720.32399999816,
      "d": 64.3381666666537,
      "v": 100
    },
    {
      "midi": 50,
      "hit": false,
      "t": 247830.61799999778,
      "d": 120.63406250000116,
      "v": 84
    },
    {
      "midi": 50,
      "hit": false,
      "t": 247830.61799999815,
      "d": 91.91166666665231,
      "v": 100
    },
    {
      "midi": 38,
      "hit": false,
      "t": 247940.91199999777,
      "d": 220.58800000001793,
      "v": 84
    },
    {
      "midi": 38,
      "hit": false,
      "t": 247940.91199999815,
      "d": 266.54383333332953,
      "v": 100
    },
    {
      "midi": 50,
      "hit": false,
      "t": 248161.4999999978,
      "d": 110.29399999999441,
      "v": 84
    },
    {
      "midi": 50,
      "hit": false,
      "t": 248161.49999999814,
      "d": 64.33816666668281,
      "v": 100
    },
    {
      "midi": 64,
      "hit": false,
      "t": 248161.4999999998,
      "d": 72.38043749998906,
      "v": 120
    },
    {
      "midi": 38,
      "hit": false,
      "t": 248271.79399999778,
      "d": 121.78295833332231,
      "v": 84
    },
    {
      "midi": 50,
      "hit": false,
      "t": 248271.79399999816,
      "d": 94.20945833332371,
      "v": 100
    },
    {
      "midi": 50,
      "hit": false,
      "t": 248382.08799999778,
      "d": 220.58799999998882,
      "v": 84
    },
    {
      "midi": 38,
      "hit": false,
      "t": 248382.08799999816,
      "d": 206.80124999998952,
      "v": 100
    },
    {
      "midi": 64,
      "hit": false,
      "t": 248382.08799999979,
      "d": 75.82712500001071,
      "v": 120
    },
    {
      "midi": 38,
      "hit": false,
      "t": 248602.67599999777,
      "d": 110.29399999999441,
      "v": 84
    },
    {
      "midi": 50,
      "hit": false,
      "t": 248602.67599999814,
      "d": 64.3381666666537,
      "v": 100
    },
    {
      "midi": 64,
      "hit": false,
      "t": 248602.6759999998,
      "d": 295.2662291666784,
      "v": 120
    },
    {
      "midi": 50,
      "hit": false,
      "t": 248712.96999999776,
      "d": 117.18737500000861,
      "v": 84
    },
    {
      "midi": 50,
      "hit": false,
      "t": 248712.96999999814,
      "d": 64.3381666666537,
      "v": 100
    },
    {
      "midi": 34,
      "hit": false,
      "t": 248823.26399999775,
      "d": 220.58800000001793,
      "v": 84
    },
    {
      "midi": 34,
      "hit": false,
      "t": 248823.26399999813,
      "d": 209.09904166666092,
      "v": 100
    },
    {
      "midi": 58,
      "hit": false,
      "t": 248823.26399999956,
      "d": 1764.703999999998,
      "v": 74
    },
    {
      "midi": 62,
      "hit": false,
      "t": 248823.26399999956,
      "d": 1764.703999999998,
      "v": 74
    },
    {
      "midi": 65,
      "hit": false,
      "t": 248823.26399999956,
      "d": 1764.703999999998,
      "v": 74
    },
    {
      "midi": 58,
      "hit": false,
      "t": 248823.2639999999,
      "d": 1764.703999999998,
      "v": 75
    },
    {
      "midi": 62,
      "hit": false,
      "t": 248823.2639999999,
      "d": 1764.703999999998,
      "v": 75
    },
    {
      "midi": 65,
      "hit": false,
      "t": 248823.2639999999,
      "d": 1764.703999999998,
      "v": 75
    },
    {
      "midi": 46,
      "hit": false,
      "t": 249043.85199999777,
      "d": 110.29399999999441,
      "v": 84
    },
    {
      "midi": 46,
      "hit": false,
      "t": 249043.85199999812,
      "d": 64.3381666666537,
      "v": 100
    },
    {
      "midi": 65,
      "hit": false,
      "t": 249043.8519999998,
      "d": 266.54383333332953,
      "v": 120
    },
    {
      "midi": 34,
      "hit": false,
      "t": 249154.14599999777,
      "d": 121.78295833332231,
      "v": 84
    },
    {
      "midi": 46,
      "hit": false,
      "t": 249154.14599999812,
      "d": 64.3381666666537,
      "v": 100
    },
    {
      "midi": 46,
      "hit": false,
      "t": 249264.43999999776,
      "d": 220.58799999998882,
      "v": 84
    },
    {
      "midi": 34,
      "hit": false,
      "t": 249264.4399999981,
      "d": 235.52364583330927,
      "v": 100
    },
    {
      "midi": 34,
      "hit": false,
      "t": 249485.02799999775,
      "d": 110.29399999999441,
      "v": 84
    },
    {
      "midi": 46,
      "hit": false,
      "t": 249485.0279999981,
      "d": 64.3381666666537,
      "v": 100
    },
    {
      "midi": 62,
      "hit": false,
      "t": 249485.02799999982,
      "d": 259.65045833334443,
      "v": 123
    },
    {
      "midi": 46,
      "hit": false,
      "t": 249595.32199999774,
      "d": 110.29399999999441,
      "v": 84
    },
    {
      "midi": 46,
      "hit": false,
      "t": 249595.3219999981,
      "d": 64.3381666666537,
      "v": 100
    },
    {
      "midi": 34,
      "hit": false,
      "t": 249705.61599999774,
      "d": 220.58799999998882,
      "v": 84
    },
    {
      "midi": 34,
      "hit": false,
      "t": 249705.6159999981,
      "d": 210.24793750001118,
      "v": 100
    },
    {
      "midi": 46,
      "hit": false,
      "t": 249926.20399999773,
      "d": 110.29399999999441,
      "v": 84
    },
    {
      "midi": 46,
      "hit": false,
      "t": 249926.2039999981,
      "d": 64.3381666666537,
      "v": 100
    },
    {
      "midi": 65,
      "hit": false,
      "t": 249926.20399999982,
      "d": 75.82712500001071,
      "v": 125
    },
    {
      "midi": 34,
      "hit": false,
      "t": 250036.49799999772,
      "d": 110.29399999999441,
      "v": 84
    },
    {
      "midi": 46,
      "hit": false,
      "t": 250036.4979999981,
      "d": 68.93374999999651,
      "v": 100
    },
    {
      "midi": 46,
      "hit": false,
      "t": 250146.79199999772,
      "d": 228.63027083332418,
      "v": 84
    },
    {
      "midi": 34,
      "hit": false,
      "t": 250146.7919999981,
      "d": 194.16339583334047,
      "v": 100
    },
    {
      "midi": 65,
      "hit": false,
      "t": 250146.79199999984,
      "d": 72.38043749998906,
      "v": 120
    },
    {
      "midi": 34,
      "hit": false,
      "t": 250367.3799999977,
      "d": 110.29399999999441,
      "v": 84
    },
    {
      "midi": 46,
      "hit": false,
      "t": 250367.3799999981,
      "d": 64.3381666666537,
      "v": 100
    },
    {
      "midi": 65,
      "hit": false,
      "t": 250367.37999999983,
      "d": 304.4573958333349,
      "v": 120
    },
    {
      "midi": 46,
      "hit": false,
      "t": 250477.6739999977,
      "d": 110.29399999999441,
      "v": 84
    },
    {
      "midi": 46,
      "hit": false,
      "t": 250477.6739999981,
      "d": 64.3381666666537,
      "v": 100
    },
    {
      "midi": 31,
      "hit": false,
      "t": 250587.9679999977,
      "d": 220.58799999998882,
      "v": 84
    },
    {
      "midi": 31,
      "hit": false,
      "t": 250587.9679999981,
      "d": 213.69462500000373,
      "v": 100
    },
    {
      "midi": 55,
      "hit": false,
      "t": 250587.96799999956,
      "d": 1764.703999999998,
      "v": 74
    },
    {
      "midi": 58,
      "hit": false,
      "t": 250587.96799999956,
      "d": 1764.703999999998,
      "v": 74
    },
    {
      "midi": 62,
      "hit": false,
      "t": 250587.96799999956,
      "d": 1764.703999999998,
      "v": 74
    },
    {
      "midi": 55,
      "hit": false,
      "t": 250587.9679999999,
      "d": 1764.703999999998,
      "v": 75
    },
    {
      "midi": 58,
      "hit": false,
      "t": 250587.9679999999,
      "d": 1764.703999999998,
      "v": 75
    },
    {
      "midi": 62,
      "hit": false,
      "t": 250587.9679999999,
      "d": 1764.703999999998,
      "v": 75
    },
    {
      "midi": 43,
      "hit": false,
      "t": 250808.55599999768,
      "d": 110.29399999999441,
      "v": 84
    },
    {
      "midi": 43,
      "hit": false,
      "t": 250808.55599999812,
      "d": 64.3381666666537,
      "v": 100
    },
    {
      "midi": 64,
      "hit": false,
      "t": 250808.55599999984,
      "d": 82.72049999999581,
      "v": 123
    },
    {
      "midi": 31,
      "hit": false,
      "t": 250918.84999999768,
      "d": 122.93185416667257,
      "v": 84
    },
    {
      "midi": 43,
      "hit": false,
      "t": 250918.8499999981,
      "d": 64.3381666666537,
      "v": 100
    },
    {
      "midi": 43,
      "hit": false,
      "t": 251029.14399999767,
      "d": 220.58800000001793,
      "v": 84
    },
    {
      "midi": 31,
      "hit": false,
      "t": 251029.1439999981,
      "d": 224.03468749998137,
      "v": 100
    },
    {
      "midi": 64,
      "hit": false,
      "t": 251029.14399999983,
      "d": 492.8763125000114,
      "v": 123
    },
    {
      "midi": 31,
      "hit": false,
      "t": 251249.7319999977,
      "d": 110.29399999999441,
      "v": 84
    },
    {
      "midi": 43,
      "hit": false,
      "t": 251249.7319999981,
      "d": 64.3381666666537,
      "v": 100
    },
    {
      "midi": 43,
      "hit": false,
      "t": 251360.02599999768,
      "d": 130.97412500000792,
      "v": 84
    },
    {
      "midi": 43,
      "hit": false,
      "t": 251360.0259999981,
      "d": 65.48706250000396,
      "v": 100
    },
    {
      "midi": 31,
      "hit": false,
      "t": 251470.31999999768,
      "d": 220.58800000001793,
      "v": 84
    },
    {
      "midi": 31,
      "hit": false,
      "t": 251470.3199999981,
      "d": 218.29020833334653,
      "v": 100
    },
    {
      "midi": 43,
      "hit": false,
      "t": 251690.9079999977,
      "d": 110.29399999999441,
      "v": 84
    },
    {
      "midi": 43,
      "hit": false,
      "t": 251690.9079999981,
      "d": 64.3381666666537,
      "v": 100
    },
    {
      "midi": 65,
      "hit": false,
      "t": 251690.90799999985,
      "d": 72.38043749998906,
      "v": 117
    },
    {
      "midi": 31,
      "hit": false,
      "t": 251801.2019999977,
      "d": 130.97412500000792,
      "v": 84
    },
    {
      "midi": 43,
      "hit": false,
      "t": 251801.2019999981,
      "d": 64.3381666666537,
      "v": 100
    },
    {
      "midi": 43,
      "hit": false,
      "t": 251911.49599999769,
      "d": 220.58800000001793,
      "v": 84
    },
    {
      "midi": 31,
      "hit": false,
      "t": 251911.4959999981,
      "d": 222.88579166666023,
      "v": 100
    },
    {
      "midi": 65,
      "hit": false,
      "t": 251911.49599999984,
      "d": 72.38043749998906,
      "v": 120
    },
    {
      "midi": 31,
      "hit": false,
      "t": 252132.0839999977,
      "d": 110.29399999999441,
      "v": 84
    },
    {
      "midi": 43,
      "hit": false,
      "t": 252132.08399999808,
      "d": 64.33816666668281,
      "v": 100
    },
    {
      "midi": 65,
      "hit": false,
      "t": 252132.08399999983,
      "d": 299.8618124999921,
      "v": 120
    },
    {
      "midi": 43,
      "hit": false,
      "t": 252242.3779999977,
      "d": 110.29399999999441,
      "v": 84
    },
    {
      "midi": 43,
      "hit": false,
      "t": 252242.3779999981,
      "d": 64.3381666666537,
      "v": 100
    },
    {
      "midi": 33,
      "hit": false,
      "t": 252352.6719999977,
      "d": 220.58799999998882,
      "v": 84
    },
    {
      "midi": 33,
      "hit": false,
      "t": 252352.6719999981,
      "d": 211.39683333333232,
      "v": 100
    },
    {
      "midi": 57,
      "hit": false,
      "t": 252352.67199999955,
      "d": 1764.703999999998,
      "v": 74
    },
    {
      "midi": 61,
      "hit": false,
      "t": 252352.67199999955,
      "d": 1764.703999999998,
      "v": 74
    },
    {
      "midi": 64,
      "hit": false,
      "t": 252352.67199999955,
      "d": 1764.703999999998,
      "v": 74
    },
    {
      "midi": 57,
      "hit": false,
      "t": 252352.6719999999,
      "d": 1764.703999999998,
      "v": 75
    },
    {
      "midi": 61,
      "hit": false,
      "t": 252352.6719999999,
      "d": 1764.703999999998,
      "v": 75
    },
    {
      "midi": 64,
      "hit": false,
      "t": 252352.6719999999,
      "d": 1764.703999999998,
      "v": 75
    },
    {
      "midi": 45,
      "hit": false,
      "t": 252573.25999999768,
      "d": 110.29399999999441,
      "v": 84
    },
    {
      "midi": 45,
      "hit": false,
      "t": 252573.2599999981,
      "d": 64.3381666666537,
      "v": 100
    },
    {
      "midi": 64,
      "hit": false,
      "t": 252573.2599999998,
      "d": 80.42270833332441,
      "v": 120
    },
    {
      "midi": 33,
      "hit": false,
      "t": 252683.55399999768,
      "d": 118.33627083332976,
      "v": 84
    },
    {
      "midi": 45,
      "hit": false,
      "t": 252683.55399999808,
      "d": 68.93374999999651,
      "v": 100
    },
    {
      "midi": 45,
      "hit": false,
      "t": 252793.84799999767,
      "d": 220.58799999998882,
      "v": 84
    },
    {
      "midi": 33,
      "hit": false,
      "t": 252793.84799999808,
      "d": 212.54572916665347,
      "v": 100
    },
    {
      "midi": 64,
      "hit": false,
      "t": 252793.8479999998,
      "d": 505.51416666666046,
      "v": 120
    },
    {
      "midi": 33,
      "hit": false,
      "t": 253014.43599999766,
      "d": 110.29399999999441,
      "v": 84
    },
    {
      "midi": 45,
      "hit": false,
      "t": 253014.43599999807,
      "d": 64.3381666666537,
      "v": 100
    },
    {
      "midi": 45,
      "hit": false,
      "t": 253124.72999999765,
      "d": 130.97412500000792,
      "v": 84
    },
    {
      "midi": 45,
      "hit": false,
      "t": 253124.72999999806,
      "d": 64.3381666666537,
      "v": 100
    },
    {
      "midi": 33,
      "hit": false,
      "t": 253235.02399999765,
      "d": 220.58800000001793,
      "v": 84
    },
    {
      "midi": 33,
      "hit": false,
      "t": 253235.02399999805,
      "d": 197.61008333333302,
      "v": 100
    },
    {
      "midi": 45,
      "hit": false,
      "t": 253455.61199999767,
      "d": 110.29399999999441,
      "v": 84
    },
    {
      "midi": 45,
      "hit": false,
      "t": 253455.61199999804,
      "d": 64.3381666666537,
      "v": 100
    },
    {
      "midi": 64,
      "hit": false,
      "t": 253455.6119999998,
      "d": 110.29399999999441,
      "v": 127
    },
    {
      "midi": 33,
      "hit": false,
      "t": 253565.90599999766,
      "d": 122.93185416667257,
      "v": 84
    },
    {
      "midi": 45,
      "hit": false,
      "t": 253565.90599999804,
      "d": 64.3381666666537,
      "v": 100
    },
    {
      "midi": 45,
      "hit": false,
      "t": 253676.19999999765,
      "d": 220.58800000001793,
      "v": 84
    },
    {
      "midi": 33,
      "hit": false,
      "t": 253676.19999999803,
      "d": 184.97222916665487,
      "v": 100
    },
    {
      "midi": 64,
      "hit": false,
      "t": 253676.19999999978,
      "d": 79.27381250000326,
      "v": 120
    },
    {
      "midi": 33,
      "hit": false,
      "t": 253896.78799999767,
      "d": 110.29399999999441,
      "v": 84
    },
    {
      "midi": 45,
      "hit": false,
      "t": 253896.78799999802,
      "d": 64.3381666666537,
      "v": 100
    },
    {
      "midi": 64,
      "hit": false,
      "t": 253896.78799999977,
      "d": 275.73499999998603,
      "v": 117
    },
    {
      "midi": 45,
      "hit": false,
      "t": 254007.08199999767,
      "d": 114.88958333333721,
      "v": 84
    },
    {
      "midi": 45,
      "hit": false,
      "t": 254007.08199999802,
      "d": 64.3381666666537,
      "v": 100
    },
    {
      "midi": 38,
      "hit": false,
      "t": 254117.37599999766,
      "d": 220.58800000001793,
      "v": 84
    },
    {
      "midi": 38,
      "hit": false,
      "t": 254117.375999998,
      "d": 174.63216666667722,
      "v": 100
    },
    {
      "midi": 62,
      "hit": false,
      "t": 254117.37599999955,
      "d": 1764.703999999998,
      "v": 74
    },
    {
      "midi": 65,
      "hit": false,
      "t": 254117.37599999955,
      "d": 1764.703999999998,
      "v": 74
    },
    {
      "midi": 69,
      "hit": false,
      "t": 254117.37599999955,
      "d": 1764.703999999998,
      "v": 74
    },
    {
      "midi": 57,
      "hit": false,
      "t": 254117.3759999999,
      "d": 1764.703999999998,
      "v": 75
    },
    {
      "midi": 62,
      "hit": false,
      "t": 254117.3759999999,
      "d": 1764.703999999998,
      "v": 75
    },
    {
      "midi": 65,
      "hit": false,
      "t": 254117.3759999999,
      "d": 1764.703999999998,
      "v": 75
    },
    {
      "midi": 50,
      "hit": false,
      "t": 254337.96399999768,
      "d": 110.29399999999441,
      "v": 84
    },
    {
      "midi": 50,
      "hit": false,
      "t": 254337.96399999803,
      "d": 64.3381666666537,
      "v": 100
    },
    {
      "midi": 62,
      "hit": false,
      "t": 254337.96399999975,
      "d": 80.42270833332441,
      "v": 120
    },
    {
      "midi": 38,
      "hit": false,
      "t": 254448.25799999767,
      "d": 117.18737500000861,
      "v": 84
    },
    {
      "midi": 50,
      "hit": false,
      "t": 254448.25799999802,
      "d": 64.3381666666537,
      "v": 100
    },
    {
      "midi": 50,
      "hit": false,
      "t": 254558.55199999767,
      "d": 221.73689583333908,
      "v": 84
    },
    {
      "midi": 38,
      "hit": false,
      "t": 254558.55199999802,
      "d": 174.63216666667722,
      "v": 100
    },
    {
      "midi": 62,
      "hit": false,
      "t": 254558.55199999973,
      "d": 496.32300000000396,
      "v": 120
    },
    {
      "midi": 38,
      "hit": false,
      "t": 254779.1399999977,
      "d": 110.29399999999441,
      "v": 84
    },
    {
      "midi": 50,
      "hit": false,
      "t": 254779.13999999803,
      "d": 64.3381666666537,
      "v": 100
    },
    {
      "midi": 50,
      "hit": false,
      "t": 254889.43399999768,
      "d": 119.48516666665091,
      "v": 84
    },
    {
      "midi": 50,
      "hit": false,
      "t": 254889.43399999803,
      "d": 64.3381666666537,
      "v": 100
    },
    {
      "midi": 38,
      "hit": false,
      "t": 254999.72799999767,
      "d": 220.58799999998882,
      "v": 84
    },
    {
      "midi": 38,
      "hit": false,
      "t": 254999.72799999802,
      "d": 174.63216666667722,
      "v": 100
    },
    {
      "midi": 50,
      "hit": false,
      "t": 255220.31599999766,
      "d": 110.29399999999441,
      "v": 84
    },
    {
      "midi": 50,
      "hit": false,
      "t": 255220.31599999804,
      "d": 64.3381666666537,
      "v": 100
    },
    {
      "midi": 64,
      "hit": false,
      "t": 255220.31599999973,
      "d": 79.27381250000326,
      "v": 120
    },
    {
      "midi": 38,
      "hit": false,
      "t": 255330.60999999766,
      "d": 118.33627083332976,
      "v": 84
    },
    {
      "midi": 50,
      "hit": false,
      "t": 255330.60999999804,
      "d": 64.3381666666537,
      "v": 100
    },
    {
      "midi": 50,
      "hit": false,
      "t": 255440.90399999765,
      "d": 226.33247916665277,
      "v": 84
    },
    {
      "midi": 38,
      "hit": false,
      "t": 255440.90399999803,
      "d": 174.63216666667722,
      "v": 100
    },
    {
      "midi": 64,
      "hit": false,
      "t": 255440.90399999972,
      "d": 76.97602083333186,
      "v": 120
    },
    {
      "midi": 38,
      "hit": false,
      "t": 255661.49199999764,
      "d": 110.29399999999441,
      "v": 84
    },
    {
      "midi": 50,
      "hit": false,
      "t": 255661.49199999805,
      "d": 64.3381666666537,
      "v": 100
    },
    {
      "midi": 64,
      "hit": false,
      "t": 255661.4919999997,
      "d": 245.86370833334513,
      "v": 120
    },
    {
      "midi": 50,
      "hit": false,
      "t": 255771.78599999764,
      "d": 113.74068749998696,
      "v": 84
    },
    {
      "midi": 50,
      "hit": false,
      "t": 255771.78599999804,
      "d": 64.3381666666537,
      "v": 100
    },
    {
      "midi": 34,
      "hit": false,
      "t": 255882.07999999763,
      "d": 220.58799999998882,
      "v": 84
    },
    {
      "midi": 34,
      "hit": false,
      "t": 255882.07999999804,
      "d": 201.05677083332557,
      "v": 100
    },
    {
      "midi": 58,
      "hit": false,
      "t": 255882.07999999955,
      "d": 1764.703999999998,
      "v": 74
    },
    {
      "midi": 62,
      "hit": false,
      "t": 255882.07999999955,
      "d": 1764.703999999998,
      "v": 74
    },
    {
      "midi": 65,
      "hit": false,
      "t": 255882.07999999955,
      "d": 1764.703999999998,
      "v": 74
    },
    {
      "midi": 58,
      "hit": false,
      "t": 255882.0799999999,
      "d": 1764.703999999998,
      "v": 75
    },
    {
      "midi": 62,
      "hit": false,
      "t": 255882.0799999999,
      "d": 1764.703999999998,
      "v": 75
    },
    {
      "midi": 65,
      "hit": false,
      "t": 255882.0799999999,
      "d": 1764.703999999998,
      "v": 75
    },
    {
      "midi": 46,
      "hit": false,
      "t": 256102.66799999762,
      "d": 110.29399999999441,
      "v": 84
    },
    {
      "midi": 46,
      "hit": false,
      "t": 256102.66799999803,
      "d": 64.3381666666537,
      "v": 100
    },
    {
      "midi": 65,
      "hit": false,
      "t": 256102.6679999997,
      "d": 236.67254166665953,
      "v": 120
    },
    {
      "midi": 34,
      "hit": false,
      "t": 256212.9619999976,
      "d": 110.29399999999441,
      "v": 84
    },
    {
      "midi": 46,
      "hit": false,
      "t": 256212.96199999802,
      "d": 64.3381666666537,
      "v": 100
    },
    {
      "midi": 46,
      "hit": false,
      "t": 256323.2559999976,
      "d": 220.58799999998882,
      "v": 84
    },
    {
      "midi": 34,
      "hit": false,
      "t": 256323.25599999801,
      "d": 174.63216666667722,
      "v": 100
    },
    {
      "midi": 34,
      "hit": false,
      "t": 256543.8439999976,
      "d": 110.29399999999441,
      "v": 84
    },
    {
      "midi": 46,
      "hit": false,
      "t": 256543.84399999803,
      "d": 64.3381666666537,
      "v": 100
    },
    {
      "midi": 62,
      "hit": false,
      "t": 256543.84399999972,
      "d": 253.90597916668048,
      "v": 123
    },
    {
      "midi": 46,
      "hit": false,
      "t": 256654.1379999976,
      "d": 111.44289583331556,
      "v": 84
    },
    {
      "midi": 46,
      "hit": false,
      "t": 256654.13799999803,
      "d": 64.3381666666537,
      "v": 100
    },
    {
      "midi": 34,
      "hit": false,
      "t": 256764.43199999759,
      "d": 220.58799999998882,
      "v": 84
    },
    {
      "midi": 34,
      "hit": false,
      "t": 256764.43199999802,
      "d": 188.41891666667652,
      "v": 100
    },
    {
      "midi": 46,
      "hit": false,
      "t": 256985.01999999757,
      "d": 110.29399999999441,
      "v": 84
    },
    {
      "midi": 46,
      "hit": false,
      "t": 256985.01999999804,
      "d": 64.3381666666537,
      "v": 100
    },
    {
      "midi": 65,
      "hit": false,
      "t": 256985.01999999973,
      "d": 66.6359583333251,
      "v": 117
    },
    {
      "midi": 34,
      "hit": false,
      "t": 257095.31399999757,
      "d": 118.33627083332976,
      "v": 84
    },
    {
      "midi": 46,
      "hit": false,
      "t": 257095.31399999803,
      "d": 64.3381666666537,
      "v": 100
    },
    {
      "midi": 46,
      "hit": false,
      "t": 257205.60799999756,
      "d": 220.58799999998882,
      "v": 84
    },
    {
      "midi": 34,
      "hit": false,
      "t": 257205.60799999803,
      "d": 186.12112500000512,
      "v": 100
    },
    {
      "midi": 65,
      "hit": false,
      "t": 257205.60799999972,
      "d": 72.38043749998906,
      "v": 117
    },
    {
      "midi": 34,
      "hit": false,
      "t": 257426.19599999755,
      "d": 110.29399999999441,
      "v": 84
    },
    {
      "midi": 46,
      "hit": false,
      "t": 257426.19599999805,
      "d": 64.3381666666537,
      "v": 100
    },
    {
      "midi": 65,
      "hit": false,
      "t": 257426.1959999997,
      "d": 315.9463541666628,
      "v": 120
    },
    {
      "midi": 46,
      "hit": false,
      "t": 257536.48999999755,
      "d": 110.29399999999441,
      "v": 84
    },
    {
      "midi": 46,
      "hit": false,
      "t": 257536.48999999804,
      "d": 64.3381666666537,
      "v": 100
    },
    {
      "midi": 31,
      "hit": false,
      "t": 257646.78399999754,
      "d": 220.58799999998882,
      "v": 84
    },
    {
      "midi": 31,
      "hit": false,
      "t": 257646.78399999804,
      "d": 174.63216666667722,
      "v": 100
    },
    {
      "midi": 55,
      "hit": false,
      "t": 257646.78399999955,
      "d": 1764.703999999998,
      "v": 74
    },
    {
      "midi": 58,
      "hit": false,
      "t": 257646.78399999955,
      "d": 1764.703999999998,
      "v": 74
    },
    {
      "midi": 62,
      "hit": false,
      "t": 257646.78399999955,
      "d": 1764.703999999998,
      "v": 74
    },
    {
      "midi": 55,
      "hit": false,
      "t": 257646.7839999999,
      "d": 1764.703999999998,
      "v": 75
    },
    {
      "midi": 58,
      "hit": false,
      "t": 257646.7839999999,
      "d": 1764.703999999998,
      "v": 75
    },
    {
      "midi": 62,
      "hit": false,
      "t": 257646.7839999999,
      "d": 1764.703999999998,
      "v": 75
    },
    {
      "midi": 43,
      "hit": false,
      "t": 257867.37199999753,
      "d": 110.29399999999441,
      "v": 84
    },
    {
      "midi": 43,
      "hit": false,
      "t": 257867.37199999805,
      "d": 64.3381666666537,
      "v": 100
    },
    {
      "midi": 64,
      "hit": false,
      "t": 257867.3719999997,
      "d": 76.97602083333186,
      "v": 120
    },
    {
      "midi": 31,
      "hit": false,
      "t": 257977.66599999752,
      "d": 121.78295833332231,
      "v": 84
    },
    {
      "midi": 43,
      "hit": false,
      "t": 257977.66599999805,
      "d": 64.3381666666537,
      "v": 100
    },
    {
      "midi": 43,
      "hit": false,
      "t": 258087.95999999752,
      "d": 220.58799999998882,
      "v": 84
    },
    {
      "midi": 31,
      "hit": false,
      "t": 258087.95999999804,
      "d": 174.63216666667722,
      "v": 100
    },
    {
      "midi": 64,
      "hit": false,
      "t": 258087.9599999997,
      "d": 469.8983958333265,
      "v": 120
    },
    {
      "midi": 31,
      "hit": false,
      "t": 258308.5479999975,
      "d": 110.29399999999441,
      "v": 84
    },
    {
      "midi": 43,
      "hit": false,
      "t": 258308.54799999806,
      "d": 64.3381666666537,
      "v": 100
    },
    {
      "midi": 43,
      "hit": false,
      "t": 258418.8419999975,
      "d": 121.78295833332231,
      "v": 84
    },
    {
      "midi": 43,
      "hit": false,
      "t": 258418.84199999805,
      "d": 64.3381666666537,
      "v": 100
    },
    {
      "midi": 31,
      "hit": false,
      "t": 258529.1359999975,
      "d": 220.58799999998882,
      "v": 84
    },
    {
      "midi": 31,
      "hit": false,
      "t": 258529.13599999805,
      "d": 202.20566666667582,
      "v": 100
    },
    {
      "midi": 43,
      "hit": false,
      "t": 258749.72399999748,
      "d": 110.29399999999441,
      "v": 84
    },
    {
      "midi": 43,
      "hit": false,
      "t": 258749.72399999807,
      "d": 64.3381666666537,
      "v": 100
    },
    {
      "midi": 65,
      "hit": false,
      "t": 258749.7239999997,
      "d": 70.08264583334676,
      "v": 120
    },
    {
      "midi": 31,
      "hit": false,
      "t": 258860.01799999748,
      "d": 110.29399999999441,
      "v": 84
    },
    {
      "midi": 43,
      "hit": false,
      "t": 258860.01799999806,
      "d": 64.3381666666537,
      "v": 100
    },
    {
      "midi": 43,
      "hit": false,
      "t": 258970.31199999747,
      "d": 227.48137500000303,
      "v": 84
    },
    {
      "midi": 31,
      "hit": false,
      "t": 258970.31199999806,
      "d": 202.20566666667582,
      "v": 100
    },
    {
      "midi": 65,
      "hit": false,
      "t": 258970.3119999997,
      "d": 67.78485416667536,
      "v": 117
    },
    {
      "midi": 31,
      "hit": false,
      "t": 259190.89999999746,
      "d": 110.29400000002352,
      "v": 84
    },
    {
      "midi": 43,
      "hit": false,
      "t": 259190.89999999807,
      "d": 64.3381666666537,
      "v": 100
    },
    {
      "midi": 65,
      "hit": false,
      "t": 259190.89999999973,
      "d": 311.35077083332,
      "v": 120
    },
    {
      "midi": 43,
      "hit": false,
      "t": 259301.1939999975,
      "d": 110.29399999999441,
      "v": 84
    },
    {
      "midi": 43,
      "hit": false,
      "t": 259301.19399999807,
      "d": 64.3381666666537,
      "v": 100
    },
    {
      "midi": 33,
      "hit": false,
      "t": 259411.48799999748,
      "d": 220.58799999998882,
      "v": 84
    },
    {
      "midi": 33,
      "hit": false,
      "t": 259411.48799999806,
      "d": 174.63216666667722,
      "v": 100
    },
    {
      "midi": 57,
      "hit": false,
      "t": 259411.48799999955,
      "d": 1764.703999999998,
      "v": 74
    },
    {
      "midi": 61,
      "hit": false,
      "t": 259411.48799999955,
      "d": 1764.703999999998,
      "v": 74
    },
    {
      "midi": 64,
      "hit": false,
      "t": 259411.48799999955,
      "d": 1764.703999999998,
      "v": 74
    },
    {
      "midi": 57,
      "hit": false,
      "t": 259411.4879999999,
      "d": 1764.703999999998,
      "v": 75
    },
    {
      "midi": 61,
      "hit": false,
      "t": 259411.4879999999,
      "d": 1764.703999999998,
      "v": 75
    },
    {
      "midi": 64,
      "hit": false,
      "t": 259411.4879999999,
      "d": 1764.703999999998,
      "v": 75
    },
    {
      "midi": 45,
      "hit": false,
      "t": 259632.07599999747,
      "d": 110.29399999999441,
      "v": 84
    },
    {
      "midi": 45,
      "hit": false,
      "t": 259632.07599999808,
      "d": 64.3381666666537,
      "v": 100
    },
    {
      "midi": 64,
      "hit": false,
      "t": 259632.0759999997,
      "d": 71.23154166666791,
      "v": 120
    },
    {
      "midi": 33,
      "hit": false,
      "t": 259742.36999999746,
      "d": 130.97412500000792,
      "v": 84
    },
    {
      "midi": 45,
      "hit": false,
      "t": 259742.36999999807,
      "d": 64.3381666666537,
      "v": 100
    },
    {
      "midi": 45,
      "hit": false,
      "t": 259852.66399999746,
      "d": 220.58800000001793,
      "v": 84
    },
    {
      "midi": 33,
      "hit": false,
      "t": 259852.66399999807,
      "d": 204.50345833334723,
      "v": 100
    },
    {
      "midi": 64,
      "hit": false,
      "t": 259852.6639999997,
      "d": 234.37474999998813,
      "v": 117
    },
    {
      "midi": 33,
      "hit": false,
      "t": 260073.25199999748,
      "d": 110.29399999999441,
      "v": 84
    },
    {
      "midi": 45,
      "hit": false,
      "t": 260073.2519999981,
      "d": 64.3381666666537,
      "v": 100
    },
    {
      "midi": 62,
      "hit": false,
      "t": 260073.2519999997,
      "d": 248.16149999998743,
      "v": 119
    },
    {
      "midi": 45,
      "hit": false,
      "t": 260183.54599999747,
      "d": 120.63406250000116,
      "v": 84
    },
    {
      "midi": 45,
      "hit": false,
      "t": 260183.54599999808,
      "d": 64.3381666666537,
      "v": 100
    },
    {
      "midi": 33,
      "hit": false,
      "t": 260293.83999999746,
      "d": 220.58800000001793,
      "v": 84
    },
    {
      "midi": 33,
      "hit": false,
      "t": 260293.83999999808,
      "d": 211.39683333333232,
      "v": 100
    },
    {
      "midi": 64,
      "hit": false,
      "t": 260293.83999999968,
      "d": 179.22774999999092,
      "v": 119
    },
    {
      "midi": 45,
      "hit": false,
      "t": 260514.42799999748,
      "d": 110.29399999999441,
      "v": 84
    },
    {
      "midi": 45,
      "hit": false,
      "t": 260514.42799999806,
      "d": 64.3381666666537,
      "v": 100
    },
    {
      "midi": 65,
      "hit": false,
      "t": 260514.42799999967,
      "d": 220.58799999998882,
      "v": 122
    },
    {
      "midi": 33,
      "hit": false,
      "t": 260624.72199999748,
      "d": 124.08074999999371,
      "v": 84
    },
    {
      "midi": 45,
      "hit": false,
      "t": 260624.72199999806,
      "d": 64.3381666666537,
      "v": 100
    },
    {
      "midi": 45,
      "hit": false,
      "t": 260735.01599999747,
      "d": 232.07695833331672,
      "v": 84
    },
    {
      "midi": 33,
      "hit": false,
      "t": 260735.01599999805,
      "d": 174.63216666667722,
      "v": 100
    },
    {
      "midi": 64,
      "hit": false,
      "t": 260735.01599999965,
      "d": 220.58799999998882,
      "v": 123
    },
    {
      "midi": 33,
      "hit": false,
      "t": 260955.60399999746,
      "d": 110.29399999999441,
      "v": 84
    },
    {
      "midi": 45,
      "hit": false,
      "t": 260955.60399999807,
      "d": 64.3381666666537,
      "v": 100
    },
    {
      "midi": 62,
      "hit": false,
      "t": 260955.60399999964,
      "d": 220.58799999998882,
      "v": 123
    },
    {
      "midi": 45,
      "hit": false,
      "t": 261065.89799999745,
      "d": 110.29399999999441,
      "v": 84
    },
    {
      "midi": 45,
      "hit": false,
      "t": 261065.89799999807,
      "d": 64.3381666666537,
      "v": 100
    },
    {
      "midi": 80,
      "hit": false,
      "t": 261176.19199999995,
      "d": 196.46118750001187,
      "v": 98
    },
    {
      "midi": 79,
      "hit": false,
      "t": 261176.19199999995,
      "d": 205.65235416666837,
      "v": 98
    },
    {
      "midi": 79,
      "hit": false,
      "t": 261617.36799999996,
      "d": 197.61008333333302,
      "v": 81
    },
    {
      "midi": 79,
      "hit": false,
      "t": 262058.54399999997,
      "d": 157.39872916668537,
      "v": 64
    },
    {
      "midi": 79,
      "hit": false,
      "t": 262499.72,
      "d": 137.86749999999302,
      "v": 46
    },
    {
      "midi": 79,
      "hit": false,
      "t": 262940.89599999995,
      "d": 171.18547916668467,
      "v": 29
    },
    {
      "midi": 79,
      "hit": false,
      "t": 263382.072,
      "d": 95.35835416667396,
      "v": 11
    }
  ]
}