{
  "jsonPath": "Animes/Comic Party MIDI Collection/opening-theme.json",
  "path": "Animes\\Comic Party MIDI Collection\\Opening Theme.mid",
  "name": "Opening Theme",
  "difficulty": "Advanced",
  "bpm": 132.000132000132,
  "notes": [
    {
      "midi": 72,
      "hit": false,
      "t": 4016.391166666668,
      "d": 245.90149999999994,
      "v": 125
    },
    {
      "midi": 84,
      "hit": false,
      "t": 4016.391166666668,
      "d": 245.90149999999994,
      "v": 125
    },
    {
      "midi": 40,
      "hit": false,
      "t": 4016.391166666668,
      "d": 20.491791666666813,
      "v": 120
    },
    {
      "midi": 42,
      "hit": false,
      "t": 4016.391166666668,
      "d": 20.491791666666813,
      "v": 120
    },
    {
      "midi": 55,
      "hit": false,
      "t": 4016.3911666666686,
      "d": 963.1142083333339,
      "v": 100
    },
    {
      "midi": 58,
      "hit": false,
      "t": 4016.3911666666686,
      "d": 963.1142083333339,
      "v": 100
    },
    {
      "midi": 60,
      "hit": false,
      "t": 4016.3911666666686,
      "d": 963.1142083333339,
      "v": 100
    },
    {
      "midi": 63,
      "hit": false,
      "t": 4016.3911666666686,
      "d": 963.1142083333339,
      "v": 100
    },
    {
      "midi": 46,
      "hit": false,
      "t": 4016.391166666669,
      "d": 676.2291249999998,
      "v": 115
    },
    {
      "midi": 67,
      "hit": false,
      "t": 4508.194166666668,
      "d": 245.90149999999994,
      "v": 125
    },
    {
      "midi": 79,
      "hit": false,
      "t": 4508.194166666668,
      "d": 245.90149999999994,
      "v": 125
    },
    {
      "midi": 36,
      "hit": false,
      "t": 4508.194166666668,
      "d": 20.49179166666636,
      "v": 120
    },
    {
      "midi": 70,
      "hit": false,
      "t": 4999.997166666668,
      "d": 245.90149999999994,
      "v": 125
    },
    {
      "midi": 82,
      "hit": false,
      "t": 4999.997166666668,
      "d": 245.90149999999994,
      "v": 125
    },
    {
      "midi": 40,
      "hit": false,
      "t": 4999.997166666668,
      "d": 20.49179166666636,
      "v": 120
    },
    {
      "midi": 42,
      "hit": false,
      "t": 4999.997166666668,
      "d": 20.49179166666636,
      "v": 120
    },
    {
      "midi": 55,
      "hit": false,
      "t": 4999.997166666669,
      "d": 963.1142083333334,
      "v": 100
    },
    {
      "midi": 58,
      "hit": false,
      "t": 4999.997166666669,
      "d": 963.1142083333334,
      "v": 100
    },
    {
      "midi": 60,
      "hit": false,
      "t": 4999.997166666669,
      "d": 963.1142083333334,
      "v": 100
    },
    {
      "midi": 63,
      "hit": false,
      "t": 4999.997166666669,
      "d": 963.1142083333334,
      "v": 100
    },
    {
      "midi": 46,
      "hit": false,
      "t": 4999.997166666669,
      "d": 676.2291249999998,
      "v": 115
    },
    {
      "midi": 65,
      "hit": false,
      "t": 5491.800166666668,
      "d": 245.90149999999994,
      "v": 125
    },
    {
      "midi": 77,
      "hit": false,
      "t": 5491.800166666668,
      "d": 245.90149999999994,
      "v": 125
    },
    {
      "midi": 36,
      "hit": false,
      "t": 5491.800166666668,
      "d": 20.49179166666636,
      "v": 120
    },
    {
      "midi": 66,
      "hit": false,
      "t": 5737.701666666668,
      "d": 245.90149999999994,
      "v": 125
    },
    {
      "midi": 78,
      "hit": false,
      "t": 5737.701666666668,
      "d": 245.90149999999994,
      "v": 125
    },
    {
      "midi": 41,
      "hit": false,
      "t": 5737.701666666669,
      "d": 225.40970833333358,
      "v": 115
    },
    {
      "midi": 67,
      "hit": false,
      "t": 5983.603166666668,
      "d": 245.90149999999994,
      "v": 125
    },
    {
      "midi": 79,
      "hit": false,
      "t": 5983.603166666668,
      "d": 245.90149999999994,
      "v": 125
    },
    {
      "midi": 40,
      "hit": false,
      "t": 5983.603166666668,
      "d": 20.49179166666636,
      "v": 120
    },
    {
      "midi": 42,
      "hit": false,
      "t": 5983.603166666668,
      "d": 20.49179166666636,
      "v": 120
    },
    {
      "midi": 55,
      "hit": false,
      "t": 5983.603166666669,
      "d": 1454.9172083333333,
      "v": 100
    },
    {
      "midi": 58,
      "hit": false,
      "t": 5983.603166666669,
      "d": 1454.9172083333333,
      "v": 100
    },
    {
      "midi": 60,
      "hit": false,
      "t": 5983.603166666669,
      "d": 1454.9172083333333,
      "v": 100
    },
    {
      "midi": 63,
      "hit": false,
      "t": 5983.603166666669,
      "d": 1454.9172083333333,
      "v": 100
    },
    {
      "midi": 43,
      "hit": false,
      "t": 5983.603166666669,
      "d": 225.40970833333358,
      "v": 115
    },
    {
      "midi": 40,
      "hit": false,
      "t": 6229.504666666668,
      "d": 20.49179166666636,
      "v": 120
    },
    {
      "midi": 46,
      "hit": false,
      "t": 6229.5046666666685,
      "d": 225.40970833333358,
      "v": 115
    },
    {
      "midi": 55,
      "hit": false,
      "t": 6434.422583333335,
      "d": 491.8029999999999,
      "v": 80
    },
    {
      "midi": 58,
      "hit": false,
      "t": 6434.422583333335,
      "d": 491.8029999999999,
      "v": 80
    },
    {
      "midi": 63,
      "hit": false,
      "t": 6434.422583333335,
      "d": 491.8029999999999,
      "v": 80
    },
    {
      "midi": 58,
      "hit": false,
      "t": 6475.406166666668,
      "d": 491.8029999999999,
      "v": 90
    },
    {
      "midi": 63,
      "hit": false,
      "t": 6475.406166666668,
      "d": 491.8029999999999,
      "v": 90
    },
    {
      "midi": 67,
      "hit": false,
      "t": 6475.406166666668,
      "d": 491.8029999999999,
      "v": 90
    },
    {
      "midi": 36,
      "hit": false,
      "t": 6475.406166666668,
      "d": 20.49179166666636,
      "v": 120
    },
    {
      "midi": 84,
      "hit": false,
      "t": 6475.406166666668,
      "d": 491.8029999999999,
      "v": 100
    },
    {
      "midi": 36,
      "hit": false,
      "t": 6475.4061666666685,
      "d": 450.81941666666626,
      "v": 115
    },
    {
      "midi": 79,
      "hit": false,
      "t": 6475.406166666669,
      "d": 450.81941666666626,
      "v": 117
    },
    {
      "midi": 79,
      "hit": false,
      "t": 6475.406166666669,
      "d": 450.81941666666626,
      "v": 100
    },
    {
      "midi": 55,
      "hit": false,
      "t": 6926.225583333335,
      "d": 491.8029999999999,
      "v": 80
    },
    {
      "midi": 58,
      "hit": false,
      "t": 6926.225583333335,
      "d": 491.8029999999999,
      "v": 80
    },
    {
      "midi": 65,
      "hit": false,
      "t": 6926.225583333335,
      "d": 491.8029999999999,
      "v": 80
    },
    {
      "midi": 63,
      "hit": false,
      "t": 6967.209166666667,
      "d": 491.8029999999999,
      "v": 90
    },
    {
      "midi": 67,
      "hit": false,
      "t": 6967.209166666667,
      "d": 491.8029999999999,
      "v": 90
    },
    {
      "midi": 68,
      "hit": false,
      "t": 6967.209166666667,
      "d": 491.8029999999999,
      "v": 90
    },
    {
      "midi": 36,
      "hit": false,
      "t": 6967.209166666667,
      "d": 20.49179166666636,
      "v": 92
    },
    {
      "midi": 80,
      "hit": false,
      "t": 6967.209166666667,
      "d": 491.8029999999999,
      "v": 100
    },
    {
      "midi": 32,
      "hit": false,
      "t": 6967.209166666668,
      "d": 450.81941666666626,
      "v": 115
    },
    {
      "midi": 80,
      "hit": false,
      "t": 6967.209166666669,
      "d": 450.81941666666626,
      "v": 127
    },
    {
      "midi": 80,
      "hit": false,
      "t": 6967.209166666669,
      "d": 450.81941666666626,
      "v": 110
    },
    {
      "midi": 63,
      "hit": false,
      "t": 7418.028583333335,
      "d": 491.8029999999999,
      "v": 80
    },
    {
      "midi": 58,
      "hit": false,
      "t": 7418.028583333335,
      "d": 491.8029999999999,
      "v": 80
    },
    {
      "midi": 67,
      "hit": false,
      "t": 7418.028583333335,
      "d": 491.8029999999999,
      "v": 80
    },
    {
      "midi": 63,
      "hit": false,
      "t": 7459.012166666667,
      "d": 491.8029999999999,
      "v": 90
    },
    {
      "midi": 67,
      "hit": false,
      "t": 7459.012166666667,
      "d": 491.8029999999999,
      "v": 90
    },
    {
      "midi": 70,
      "hit": false,
      "t": 7459.012166666667,
      "d": 491.8029999999999,
      "v": 90
    },
    {
      "midi": 36,
      "hit": false,
      "t": 7459.012166666667,
      "d": 20.49179166666636,
      "v": 92
    },
    {
      "midi": 57,
      "hit": false,
      "t": 7459.012166666667,
      "d": 20.49179166666636,
      "v": 64
    },
    {
      "midi": 82,
      "hit": false,
      "t": 7459.012166666667,
      "d": 491.8029999999999,
      "v": 100
    },
    {
      "midi": 34,
      "hit": false,
      "t": 7459.012166666668,
      "d": 450.81941666666626,
      "v": 115
    },
    {
      "midi": 82,
      "hit": false,
      "t": 7459.012166666669,
      "d": 942.622416666667,
      "v": 117
    },
    {
      "midi": 82,
      "hit": false,
      "t": 7459.012166666669,
      "d": 942.622416666667,
      "v": 100
    },
    {
      "midi": 67,
      "hit": false,
      "t": 7909.8315833333345,
      "d": 491.8029999999999,
      "v": 80
    },
    {
      "midi": 60,
      "hit": false,
      "t": 7909.8315833333345,
      "d": 491.8029999999999,
      "v": 80
    },
    {
      "midi": 63,
      "hit": false,
      "t": 7909.8315833333345,
      "d": 491.8029999999999,
      "v": 80
    },
    {
      "midi": 58,
      "hit": false,
      "t": 7950.815166666667,
      "d": 5901.636,
      "v": 110
    },
    {
      "midi": 70,
      "hit": false,
      "t": 7950.815166666667,
      "d": 5901.636,
      "v": 110
    },
    {
      "midi": 63,
      "hit": false,
      "t": 7950.815166666667,
      "d": 245.90149999999994,
      "v": 90
    },
    {
      "midi": 68,
      "hit": false,
      "t": 7950.815166666667,
      "d": 245.90149999999994,
      "v": 90
    },
    {
      "midi": 72,
      "hit": false,
      "t": 7950.815166666667,
      "d": 245.90149999999994,
      "v": 90
    },
    {
      "midi": 49,
      "hit": false,
      "t": 7950.815166666667,
      "d": 20.49179166666636,
      "v": 64
    },
    {
      "midi": 36,
      "hit": false,
      "t": 7950.815166666667,
      "d": 20.49179166666636,
      "v": 92
    },
    {
      "midi": 63,
      "hit": false,
      "t": 7950.815166666667,
      "d": 20.49179166666636,
      "v": 106
    },
    {
      "midi": 75,
      "hit": false,
      "t": 7950.815166666668,
      "d": 983.6060000000007,
      "v": 95
    },
    {
      "midi": 32,
      "hit": false,
      "t": 7950.815166666668,
      "d": 450.81941666666626,
      "v": 105
    },
    {
      "midi": 75,
      "hit": false,
      "t": 7950.815166666669,
      "d": 2459.014999999992,
      "v": 95
    },
    {
      "midi": 68,
      "hit": false,
      "t": 7950.815166666669,
      "d": 2459.014999999992,
      "v": 95
    },
    {
      "midi": 72,
      "hit": false,
      "t": 7950.815166666669,
      "d": 3422.129208333323,
      "v": 95
    },
    {
      "midi": 63,
      "hit": false,
      "t": 7950.815166666669,
      "d": 3422.1292083333337,
      "v": 110
    },
    {
      "midi": 56,
      "hit": false,
      "t": 7950.815166666669,
      "d": 3422.1292083333337,
      "v": 110
    },
    {
      "midi": 60,
      "hit": false,
      "t": 7950.815166666669,
      "d": 3422.1292083333337,
      "v": 110
    },
    {
      "midi": 67,
      "hit": false,
      "t": 8401.634583333334,
      "d": 491.8029999999999,
      "v": 80
    },
    {
      "midi": 60,
      "hit": false,
      "t": 8401.634583333334,
      "d": 491.8029999999999,
      "v": 80
    },
    {
      "midi": 63,
      "hit": false,
      "t": 8401.634583333334,
      "d": 491.8029999999999,
      "v": 80
    },
    {
      "midi": 63,
      "hit": false,
      "t": 8442.618166666667,
      "d": 245.90149999999994,
      "v": 90
    },
    {
      "midi": 68,
      "hit": false,
      "t": 8442.618166666667,
      "d": 245.90149999999994,
      "v": 90
    },
    {
      "midi": 72,
      "hit": false,
      "t": 8442.618166666667,
      "d": 245.90149999999994,
      "v": 90
    },
    {
      "midi": 32,
      "hit": false,
      "t": 8442.618166666667,
      "d": 225.40970833333267,
      "v": 115
    },
    {
      "midi": 42,
      "hit": false,
      "t": 8442.618166666667,
      "d": 20.491791666667268,
      "v": 120
    },
    {
      "midi": 62,
      "hit": false,
      "t": 8442.618166666667,
      "d": 20.491791666667268,
      "v": 106
    },
    {
      "midi": 75,
      "hit": false,
      "t": 8442.618166666669,
      "d": 450.81941666666717,
      "v": 127
    },
    {
      "midi": 75,
      "hit": false,
      "t": 8442.618166666669,
      "d": 450.81941666666717,
      "v": 110
    },
    {
      "midi": 65,
      "hit": false,
      "t": 8893.437583333334,
      "d": 122.95074999999997,
      "v": 80
    },
    {
      "midi": 60,
      "hit": false,
      "t": 8893.437583333334,
      "d": 122.95074999999997,
      "v": 80
    },
    {
      "midi": 63,
      "hit": false,
      "t": 8893.437583333334,
      "d": 122.95074999999997,
      "v": 80
    },
    {
      "midi": 63,
      "hit": false,
      "t": 8934.421166666667,
      "d": 491.8029999999999,
      "v": 90
    },
    {
      "midi": 68,
      "hit": false,
      "t": 8934.421166666667,
      "d": 491.8029999999999,
      "v": 90
    },
    {
      "midi": 72,
      "hit": false,
      "t": 8934.421166666667,
      "d": 491.8029999999999,
      "v": 90
    },
    {
      "midi": 42,
      "hit": false,
      "t": 8934.421166666667,
      "d": 20.491791666667268,
      "v": 120
    },
    {
      "midi": 40,
      "hit": false,
      "t": 8934.421166666667,
      "d": 20.491791666667268,
      "v": 120
    },
    {
      "midi": 83,
      "hit": false,
      "t": 8934.421166666667,
      "d": 20.491791666667268,
      "v": 78
    },
    {
      "midi": 74,
      "hit": false,
      "t": 8934.421166666669,
      "d": 450.81941666666717,
      "v": 127
    },
    {
      "midi": 75,
      "hit": false,
      "t": 8934.421166666669,
      "d": 983.6059999999998,
      "v": 95
    },
    {
      "midi": 74,
      "hit": false,
      "t": 8934.421166666669,
      "d": 450.81941666666717,
      "v": 110
    },
    {
      "midi": 65,
      "hit": false,
      "t": 9016.388333333334,
      "d": 368.8522499999999,
      "v": 80
    },
    {
      "midi": 60,
      "hit": false,
      "t": 9016.388333333334,
      "d": 368.8522499999999,
      "v": 80
    },
    {
      "midi": 63,
      "hit": false,
      "t": 9016.388333333334,
      "d": 368.8522499999999,
      "v": 80
    },
    {
      "midi": 67,
      "hit": false,
      "t": 9385.240583333334,
      "d": 491.8029999999999,
      "v": 80
    },
    {
      "midi": 60,
      "hit": false,
      "t": 9385.240583333334,
      "d": 491.8029999999999,
      "v": 80
    },
    {
      "midi": 63,
      "hit": false,
      "t": 9385.240583333334,
      "d": 491.8029999999999,
      "v": 80
    },
    {
      "midi": 41,
      "hit": false,
      "t": 9426.224166666667,
      "d": 225.40970833333267,
      "v": 115
    },
    {
      "midi": 42,
      "hit": false,
      "t": 9426.224166666667,
      "d": 20.491791666667268,
      "v": 120
    },
    {
      "midi": 63,
      "hit": false,
      "t": 9426.224166666667,
      "d": 20.491791666667268,
      "v": 106
    },
    {
      "midi": 75,
      "hit": false,
      "t": 9426.224166666669,
      "d": 676.2291249999998,
      "v": 127
    },
    {
      "midi": 75,
      "hit": false,
      "t": 9426.224166666669,
      "d": 676.2291249999998,
      "v": 110
    },
    {
      "midi": 43,
      "hit": false,
      "t": 9672.125666666667,
      "d": 225.40970833333267,
      "v": 115
    },
    {
      "midi": 63,
      "hit": false,
      "t": 9918.027166666667,
      "d": 491.8029999999999,
      "v": 90
    },
    {
      "midi": 68,
      "hit": false,
      "t": 9918.027166666667,
      "d": 491.8029999999999,
      "v": 90
    },
    {
      "midi": 72,
      "hit": false,
      "t": 9918.027166666667,
      "d": 491.8029999999999,
      "v": 90
    },
    {
      "midi": 41,
      "hit": false,
      "t": 9918.027166666667,
      "d": 450.81941666666717,
      "v": 115
    },
    {
      "midi": 42,
      "hit": false,
      "t": 9918.027166666667,
      "d": 20.491791666667268,
      "v": 120
    },
    {
      "midi": 36,
      "hit": false,
      "t": 9918.027166666667,
      "d": 20.491791666667268,
      "v": 120
    },
    {
      "midi": 63,
      "hit": false,
      "t": 9918.027166666667,
      "d": 20.491791666667268,
      "v": 106
    },
    {
      "midi": 75,
      "hit": false,
      "t": 9918.027166666669,
      "d": 983.6059999999998,
      "v": 95
    },
    {
      "midi": 67,
      "hit": false,
      "t": 10368.846583333334,
      "d": 491.8029999999999,
      "v": 80
    },
    {
      "midi": 60,
      "hit": false,
      "t": 10368.846583333334,
      "d": 491.8029999999999,
      "v": 80
    },
    {
      "midi": 63,
      "hit": false,
      "t": 10368.846583333334,
      "d": 491.8029999999999,
      "v": 80
    },
    {
      "midi": 39,
      "hit": false,
      "t": 10409.830166666667,
      "d": 450.81941666666717,
      "v": 115
    },
    {
      "midi": 42,
      "hit": false,
      "t": 10409.830166666667,
      "d": 20.491791666667268,
      "v": 120
    },
    {
      "midi": 36,
      "hit": false,
      "t": 10409.830166666667,
      "d": 20.491791666667268,
      "v": 120
    },
    {
      "midi": 62,
      "hit": false,
      "t": 10409.830166666667,
      "d": 20.491791666667268,
      "v": 106
    },
    {
      "midi": 79,
      "hit": false,
      "t": 10409.830166666668,
      "d": 450.81941666666717,
      "v": 127
    },
    {
      "midi": 79,
      "hit": false,
      "t": 10409.830166666668,
      "d": 450.81941666666717,
      "v": 110
    },
    {
      "midi": 65,
      "hit": false,
      "t": 10860.649583333334,
      "d": 122.95074999999997,
      "v": 80
    },
    {
      "midi": 60,
      "hit": false,
      "t": 10860.649583333334,
      "d": 122.95074999999997,
      "v": 80
    },
    {
      "midi": 63,
      "hit": false,
      "t": 10860.649583333334,
      "d": 122.95074999999997,
      "v": 80
    },
    {
      "midi": 63,
      "hit": false,
      "t": 10901.633166666667,
      "d": 245.90149999999994,
      "v": 90
    },
    {
      "midi": 68,
      "hit": false,
      "t": 10901.633166666667,
      "d": 245.90149999999994,
      "v": 90
    },
    {
      "midi": 72,
      "hit": false,
      "t": 10901.633166666667,
      "d": 245.90149999999994,
      "v": 90
    },
    {
      "midi": 32,
      "hit": false,
      "t": 10901.633166666667,
      "d": 450.81941666666717,
      "v": 115
    },
    {
      "midi": 42,
      "hit": false,
      "t": 10901.633166666667,
      "d": 20.491791666667268,
      "v": 120
    },
    {
      "midi": 40,
      "hit": false,
      "t": 10901.633166666667,
      "d": 20.491791666667268,
      "v": 120
    },
    {
      "midi": 83,
      "hit": false,
      "t": 10901.633166666667,
      "d": 20.491791666667268,
      "v": 78
    },
    {
      "midi": 80,
      "hit": false,
      "t": 10901.633166666668,
      "d": 450.81941666666717,
      "v": 127
    },
    {
      "midi": 75,
      "hit": false,
      "t": 10901.633166666668,
      "d": 983.6059999999998,
      "v": 95
    },
    {
      "midi": 80,
      "hit": false,
      "t": 10901.633166666668,
      "d": 450.81941666666717,
      "v": 110
    },
    {
      "midi": 65,
      "hit": false,
      "t": 10983.600333333334,
      "d": 368.8522499999999,
      "v": 80
    },
    {
      "midi": 60,
      "hit": false,
      "t": 10983.600333333334,
      "d": 368.8522499999999,
      "v": 80
    },
    {
      "midi": 63,
      "hit": false,
      "t": 10983.600333333334,
      "d": 368.8522499999999,
      "v": 80
    },
    {
      "midi": 67,
      "hit": false,
      "t": 11352.452583333334,
      "d": 122.95074999999997,
      "v": 80
    },
    {
      "midi": 58,
      "hit": false,
      "t": 11352.452583333334,
      "d": 122.95074999999997,
      "v": 80
    },
    {
      "midi": 63,
      "hit": false,
      "t": 11352.452583333334,
      "d": 122.95074999999997,
      "v": 80
    },
    {
      "midi": 67,
      "hit": false,
      "t": 11393.43616666666,
      "d": 4303.276249999983,
      "v": 95
    },
    {
      "midi": 70,
      "hit": false,
      "t": 11393.43616666666,
      "d": 4303.276249999983,
      "v": 95
    },
    {
      "midi": 63,
      "hit": false,
      "t": 11393.436166666666,
      "d": 737.7044999999998,
      "v": 90
    },
    {
      "midi": 67,
      "hit": false,
      "t": 11393.436166666666,
      "d": 737.7044999999998,
      "v": 90
    },
    {
      "midi": 70,
      "hit": false,
      "t": 11393.436166666666,
      "d": 737.7044999999998,
      "v": 90
    },
    {
      "midi": 31,
      "hit": false,
      "t": 11393.436166666666,
      "d": 942.622416666667,
      "v": 105
    },
    {
      "midi": 42,
      "hit": false,
      "t": 11393.436166666666,
      "d": 20.491791666667268,
      "v": 120
    },
    {
      "midi": 36,
      "hit": false,
      "t": 11393.436166666666,
      "d": 20.491791666667268,
      "v": 120
    },
    {
      "midi": 63,
      "hit": false,
      "t": 11393.436166666666,
      "d": 20.491791666667268,
      "v": 106
    },
    {
      "midi": 82,
      "hit": false,
      "t": 11393.436166666668,
      "d": 942.622416666667,
      "v": 117
    },
    {
      "midi": 82,
      "hit": false,
      "t": 11393.436166666668,
      "d": 942.622416666667,
      "v": 100
    },
    {
      "midi": 63,
      "hit": false,
      "t": 11393.43616666667,
      "d": 4405.7352083333335,
      "v": 110
    },
    {
      "midi": 55,
      "hit": false,
      "t": 11393.43616666667,
      "d": 4405.7352083333335,
      "v": 110
    },
    {
      "midi": 58,
      "hit": false,
      "t": 11393.43616666667,
      "d": 4405.7352083333335,
      "v": 110
    },
    {
      "midi": 67,
      "hit": false,
      "t": 11475.403333333334,
      "d": 860.6552499999998,
      "v": 80
    },
    {
      "midi": 58,
      "hit": false,
      "t": 11475.403333333334,
      "d": 860.6552499999998,
      "v": 80
    },
    {
      "midi": 63,
      "hit": false,
      "t": 11475.403333333334,
      "d": 860.6552499999998,
      "v": 80
    },
    {
      "midi": 42,
      "hit": false,
      "t": 11885.239166666666,
      "d": 20.491791666667268,
      "v": 120
    },
    {
      "midi": 63,
      "hit": false,
      "t": 11885.239166666666,
      "d": 20.491791666667268,
      "v": 106
    },
    {
      "midi": 75,
      "hit": false,
      "t": 11885.239166666668,
      "d": 983.6059999999998,
      "v": 95
    },
    {
      "midi": 67,
      "hit": false,
      "t": 12336.058583333333,
      "d": 491.8029999999999,
      "v": 80
    },
    {
      "midi": 58,
      "hit": false,
      "t": 12336.058583333333,
      "d": 491.8029999999999,
      "v": 80
    },
    {
      "midi": 63,
      "hit": false,
      "t": 12336.058583333333,
      "d": 491.8029999999999,
      "v": 80
    },
    {
      "midi": 63,
      "hit": false,
      "t": 12377.042166666666,
      "d": 245.90149999999994,
      "v": 90
    },
    {
      "midi": 67,
      "hit": false,
      "t": 12377.042166666666,
      "d": 245.90149999999994,
      "v": 90
    },
    {
      "midi": 70,
      "hit": false,
      "t": 12377.042166666666,
      "d": 245.90149999999994,
      "v": 90
    },
    {
      "midi": 31,
      "hit": false,
      "t": 12377.042166666666,
      "d": 225.40970833333267,
      "v": 115
    },
    {
      "midi": 42,
      "hit": false,
      "t": 12377.042166666666,
      "d": 20.491791666667268,
      "v": 120
    },
    {
      "midi": 36,
      "hit": false,
      "t": 12377.042166666666,
      "d": 20.491791666667268,
      "v": 120
    },
    {
      "midi": 62,
      "hit": false,
      "t": 12377.042166666666,
      "d": 20.491791666667268,
      "v": 106
    },
    {
      "midi": 75,
      "hit": false,
      "t": 12377.042166666668,
      "d": 450.81941666666717,
      "v": 127
    },
    {
      "midi": 75,
      "hit": false,
      "t": 12377.042166666668,
      "d": 450.81941666666717,
      "v": 110
    },
    {
      "midi": 65,
      "hit": false,
      "t": 12827.861583333333,
      "d": 491.8029999999999,
      "v": 80
    },
    {
      "midi": 58,
      "hit": false,
      "t": 12827.861583333333,
      "d": 491.8029999999999,
      "v": 80
    },
    {
      "midi": 62,
      "hit": false,
      "t": 12827.861583333333,
      "d": 491.8029999999999,
      "v": 80
    },
    {
      "midi": 63,
      "hit": false,
      "t": 12868.845166666666,
      "d": 491.8029999999999,
      "v": 90
    },
    {
      "midi": 67,
      "hit": false,
      "t": 12868.845166666666,
      "d": 491.8029999999999,
      "v": 90
    },
    {
      "midi": 70,
      "hit": false,
      "t": 12868.845166666666,
      "d": 491.8029999999999,
      "v": 90
    },
    {
      "midi": 42,
      "hit": false,
      "t": 12868.845166666666,
      "d": 20.491791666667268,
      "v": 120
    },
    {
      "midi": 40,
      "hit": false,
      "t": 12868.845166666666,
      "d": 20.491791666667268,
      "v": 120
    },
    {
      "midi": 83,
      "hit": false,
      "t": 12868.845166666666,
      "d": 20.491791666667268,
      "v": 78
    },
    {
      "midi": 74,
      "hit": false,
      "t": 12868.845166666668,
      "d": 450.81941666666717,
      "v": 127
    },
    {
      "midi": 75,
      "hit": false,
      "t": 12868.845166666668,
      "d": 983.6059999999998,
      "v": 95
    },
    {
      "midi": 74,
      "hit": false,
      "t": 12868.845166666668,
      "d": 450.81941666666717,
      "v": 110
    },
    {
      "midi": 67,
      "hit": false,
      "t": 13319.664583333333,
      "d": 983.6059999999998,
      "v": 80
    },
    {
      "midi": 58,
      "hit": false,
      "t": 13319.664583333333,
      "d": 983.6059999999998,
      "v": 80
    },
    {
      "midi": 63,
      "hit": false,
      "t": 13319.664583333333,
      "d": 983.6059999999998,
      "v": 80
    },
    {
      "midi": 31,
      "hit": false,
      "t": 13360.648166666666,
      "d": 450.81941666666717,
      "v": 115
    },
    {
      "midi": 42,
      "hit": false,
      "t": 13360.648166666666,
      "d": 20.491791666667268,
      "v": 120
    },
    {
      "midi": 36,
      "hit": false,
      "t": 13360.648166666666,
      "d": 20.491791666667268,
      "v": 120
    },
    {
      "midi": 63,
      "hit": false,
      "t": 13360.648166666666,
      "d": 20.491791666667268,
      "v": 106
    },
    {
      "midi": 75,
      "hit": false,
      "t": 13360.648166666668,
      "d": 1352.4582499999997,
      "v": 127
    },
    {
      "midi": 75,
      "hit": false,
      "t": 13360.648166666668,
      "d": 1352.4582499999997,
      "v": 110
    },
    {
      "midi": 62,
      "hit": false,
      "t": 13606.549666666666,
      "d": 20.491791666667268,
      "v": 106
    },
    {
      "midi": 63,
      "hit": false,
      "t": 13852.451166666666,
      "d": 245.90149999999994,
      "v": 90
    },
    {
      "midi": 67,
      "hit": false,
      "t": 13852.451166666666,
      "d": 245.90149999999994,
      "v": 90
    },
    {
      "midi": 68,
      "hit": false,
      "t": 13852.451166666666,
      "d": 245.90149999999994,
      "v": 90
    },
    {
      "midi": 39,
      "hit": false,
      "t": 13852.451166666666,
      "d": 450.81941666666717,
      "v": 115
    },
    {
      "midi": 42,
      "hit": false,
      "t": 13852.451166666666,
      "d": 20.491791666667268,
      "v": 120
    },
    {
      "midi": 63,
      "hit": false,
      "t": 13852.451166666666,
      "d": 20.491791666667268,
      "v": 106
    },
    {
      "midi": 63,
      "hit": false,
      "t": 13852.451166666668,
      "d": 491.8029999999999,
      "v": 100
    },
    {
      "midi": 67,
      "hit": false,
      "t": 13852.451166666668,
      "d": 491.8029999999999,
      "v": 100
    },
    {
      "midi": 68,
      "hit": false,
      "t": 13852.451166666668,
      "d": 491.8029999999999,
      "v": 100
    },
    {
      "midi": 75,
      "hit": false,
      "t": 13852.451166666668,
      "d": 983.6059999999998,
      "v": 95
    },
    {
      "midi": 62,
      "hit": false,
      "t": 14098.352666666666,
      "d": 20.491791666667268,
      "v": 106
    },
    {
      "midi": 63,
      "hit": false,
      "t": 14344.254166666666,
      "d": 491.8029999999999,
      "v": 90
    },
    {
      "midi": 67,
      "hit": false,
      "t": 14344.254166666666,
      "d": 491.8029999999999,
      "v": 90
    },
    {
      "midi": 70,
      "hit": false,
      "t": 14344.254166666666,
      "d": 491.8029999999999,
      "v": 90
    },
    {
      "midi": 32,
      "hit": false,
      "t": 14344.254166666666,
      "d": 225.40970833333267,
      "v": 115
    },
    {
      "midi": 42,
      "hit": false,
      "t": 14344.254166666666,
      "d": 20.491791666667268,
      "v": 120
    },
    {
      "midi": 36,
      "hit": false,
      "t": 14344.254166666666,
      "d": 20.491791666667268,
      "v": 120
    },
    {
      "midi": 63,
      "hit": false,
      "t": 14344.254166666666,
      "d": 20.491791666667268,
      "v": 106
    },
    {
      "midi": 63,
      "hit": false,
      "t": 14344.254166666668,
      "d": 491.8029999999999,
      "v": 100
    },
    {
      "midi": 67,
      "hit": false,
      "t": 14344.254166666668,
      "d": 491.8029999999999,
      "v": 100
    },
    {
      "midi": 70,
      "hit": false,
      "t": 14344.254166666668,
      "d": 491.8029999999999,
      "v": 100
    },
    {
      "midi": 34,
      "hit": false,
      "t": 14590.155666666666,
      "d": 225.40970833333267,
      "v": 115
    },
    {
      "midi": 39,
      "hit": false,
      "t": 14836.057166666666,
      "d": 450.81941666666717,
      "v": 115
    },
    {
      "midi": 42,
      "hit": false,
      "t": 14836.057166666666,
      "d": 20.491791666667268,
      "v": 120
    },
    {
      "midi": 40,
      "hit": false,
      "t": 14836.057166666666,
      "d": 20.491791666667268,
      "v": 120
    },
    {
      "midi": 83,
      "hit": false,
      "t": 14836.057166666666,
      "d": 20.491791666667268,
      "v": 78
    },
    {
      "midi": 75,
      "hit": false,
      "t": 14836.057166666667,
      "d": 983.6059999999998,
      "v": 95
    },
    {
      "midi": 31,
      "hit": false,
      "t": 15327.860166666665,
      "d": 450.81941666666717,
      "v": 115
    },
    {
      "midi": 42,
      "hit": false,
      "t": 15327.860166666665,
      "d": 20.491791666667268,
      "v": 120
    },
    {
      "midi": 36,
      "hit": false,
      "t": 15327.860166666665,
      "d": 20.491791666667268,
      "v": 120
    },
    {
      "midi": 62,
      "hit": false,
      "t": 15327.860166666665,
      "d": 20.491791666667268,
      "v": 106
    },
    {
      "midi": 72,
      "hit": false,
      "t": 15327.860166666667,
      "d": 450.81941666666717,
      "v": 127
    },
    {
      "midi": 72,
      "hit": false,
      "t": 15327.860166666667,
      "d": 450.81941666666717,
      "v": 110
    },
    {
      "midi": 68,
      "hit": false,
      "t": 15819.663166666665,
      "d": 491.8029999999999,
      "v": 90
    },
    {
      "midi": 72,
      "hit": false,
      "t": 15819.663166666665,
      "d": 491.8029999999999,
      "v": 90
    },
    {
      "midi": 75,
      "hit": false,
      "t": 15819.663166666665,
      "d": 491.8029999999999,
      "v": 90
    },
    {
      "midi": 29,
      "hit": false,
      "t": 15819.663166666665,
      "d": 450.81941666666717,
      "v": 105
    },
    {
      "midi": 36,
      "hit": false,
      "t": 15819.663166666665,
      "d": 20.491791666667268,
      "v": 92
    },
    {
      "midi": 63,
      "hit": false,
      "t": 15819.663166666665,
      "d": 20.491791666667268,
      "v": 106
    },
    {
      "midi": 42,
      "hit": false,
      "t": 15819.663166666665,
      "d": 20.491791666667268,
      "v": 120
    },
    {
      "midi": 80,
      "hit": false,
      "t": 15819.663166666667,
      "d": 901.6388333333325,
      "v": 117
    },
    {
      "midi": 51,
      "hit": false,
      "t": 15819.663166666667,
      "d": 5409.8330000000005,
      "v": 110
    },
    {
      "midi": 63,
      "hit": false,
      "t": 15819.663166666667,
      "d": 5409.8330000000005,
      "v": 110
    },
    {
      "midi": 75,
      "hit": false,
      "t": 15819.663166666667,
      "d": 983.6060000000016,
      "v": 95
    },
    {
      "midi": 80,
      "hit": false,
      "t": 15819.663166666667,
      "d": 901.6388333333325,
      "v": 100
    },
    {
      "midi": 56,
      "hit": false,
      "t": 15819.66316666667,
      "d": 1946.720208333334,
      "v": 110
    },
    {
      "midi": 60,
      "hit": false,
      "t": 15819.66316666667,
      "d": 1946.720208333334,
      "v": 110
    },
    {
      "midi": 63,
      "hit": false,
      "t": 15819.66316666667,
      "d": 1946.720208333334,
      "v": 110
    },
    {
      "midi": 29,
      "hit": false,
      "t": 16311.466166666665,
      "d": 450.81941666666535,
      "v": 115
    },
    {
      "midi": 42,
      "hit": false,
      "t": 16311.466166666665,
      "d": 20.491791666667268,
      "v": 120
    },
    {
      "midi": 62,
      "hit": false,
      "t": 16311.466166666665,
      "d": 20.491791666667268,
      "v": 106
    },
    {
      "midi": 79,
      "hit": false,
      "t": 16803.269166666665,
      "d": 450.81941666666535,
      "v": 127
    },
    {
      "midi": 68,
      "hit": false,
      "t": 16803.269166666665,
      "d": 491.8029999999999,
      "v": 90
    },
    {
      "midi": 72,
      "hit": false,
      "t": 16803.269166666665,
      "d": 491.8029999999999,
      "v": 90
    },
    {
      "midi": 75,
      "hit": false,
      "t": 16803.269166666665,
      "d": 491.8029999999999,
      "v": 90
    },
    {
      "midi": 42,
      "hit": false,
      "t": 16803.269166666665,
      "d": 20.491791666667268,
      "v": 120
    },
    {
      "midi": 40,
      "hit": false,
      "t": 16803.269166666665,
      "d": 20.491791666667268,
      "v": 120
    },
    {
      "midi": 83,
      "hit": false,
      "t": 16803.269166666665,
      "d": 20.491791666667268,
      "v": 78
    },
    {
      "midi": 79,
      "hit": false,
      "t": 16803.269166666665,
      "d": 450.81941666666535,
      "v": 110
    },
    {
      "midi": 75,
      "hit": false,
      "t": 16803.26916666667,
      "d": 983.6059999999998,
      "v": 95
    },
    {
      "midi": 77,
      "hit": false,
      "t": 17295.072166666665,
      "d": 450.81941666666535,
      "v": 127
    },
    {
      "midi": 29,
      "hit": false,
      "t": 17295.072166666665,
      "d": 450.81941666666535,
      "v": 115
    },
    {
      "midi": 42,
      "hit": false,
      "t": 17295.072166666665,
      "d": 20.491791666667268,
      "v": 120
    },
    {
      "midi": 63,
      "hit": false,
      "t": 17295.072166666665,
      "d": 20.491791666667268,
      "v": 106
    },
    {
      "midi": 77,
      "hit": false,
      "t": 17295.072166666665,
      "d": 450.81941666666535,
      "v": 110
    },
    {
      "midi": 75,
      "hit": false,
      "t": 17786.875166666665,
      "d": 450.81941666666535,
      "v": 127
    },
    {
      "midi": 68,
      "hit": false,
      "t": 17786.875166666665,
      "d": 245.90149999999994,
      "v": 90
    },
    {
      "midi": 71,
      "hit": false,
      "t": 17786.875166666665,
      "d": 245.90149999999994,
      "v": 90
    },
    {
      "midi": 75,
      "hit": false,
      "t": 17786.875166666665,
      "d": 245.90149999999994,
      "v": 90
    },
    {
      "midi": 34,
      "hit": false,
      "t": 17786.875166666665,
      "d": 450.81941666666535,
      "v": 115
    },
    {
      "midi": 42,
      "hit": false,
      "t": 17786.875166666665,
      "d": 20.491791666667268,
      "v": 120
    },
    {
      "midi": 36,
      "hit": false,
      "t": 17786.875166666665,
      "d": 20.491791666667268,
      "v": 120
    },
    {
      "midi": 63,
      "hit": false,
      "t": 17786.875166666665,
      "d": 20.491791666667268,
      "v": 106
    },
    {
      "midi": 75,
      "hit": false,
      "t": 17786.875166666665,
      "d": 450.81941666666535,
      "v": 110
    },
    {
      "midi": 63,
      "hit": false,
      "t": 17786.87516666667,
      "d": 491.8029999999999,
      "v": 110
    },
    {
      "midi": 75,
      "hit": false,
      "t": 17786.87516666667,
      "d": 983.6059999999998,
      "v": 95
    },
    {
      "midi": 56,
      "hit": false,
      "t": 17786.875166666672,
      "d": 245.90149999999994,
      "v": 110
    },
    {
      "midi": 59,
      "hit": false,
      "t": 17786.875166666672,
      "d": 245.90149999999994,
      "v": 110
    },
    {
      "midi": 63,
      "hit": false,
      "t": 17786.875166666672,
      "d": 245.90149999999994,
      "v": 110
    },
    {
      "midi": 77,
      "hit": false,
      "t": 18278.678166666665,
      "d": 901.6388333333343,
      "v": 127
    },
    {
      "midi": 71,
      "hit": false,
      "t": 18278.678166666665,
      "d": 491.8029999999999,
      "v": 90
    },
    {
      "midi": 74,
      "hit": false,
      "t": 18278.678166666665,
      "d": 491.8029999999999,
      "v": 90
    },
    {
      "midi": 77,
      "hit": false,
      "t": 18278.678166666665,
      "d": 491.8029999999999,
      "v": 90
    },
    {
      "midi": 35,
      "hit": false,
      "t": 18278.678166666665,
      "d": 450.81941666666535,
      "v": 115
    },
    {
      "midi": 42,
      "hit": false,
      "t": 18278.678166666665,
      "d": 20.491791666667268,
      "v": 120
    },
    {
      "midi": 36,
      "hit": false,
      "t": 18278.678166666665,
      "d": 20.491791666667268,
      "v": 120
    },
    {
      "midi": 62,
      "hit": false,
      "t": 18278.678166666665,
      "d": 20.491791666667268,
      "v": 106
    },
    {
      "midi": 77,
      "hit": false,
      "t": 18278.678166666665,
      "d": 901.6388333333343,
      "v": 110
    },
    {
      "midi": 65,
      "hit": false,
      "t": 18278.67816666667,
      "d": 491.8029999999999,
      "v": 110
    },
    {
      "midi": 59,
      "hit": false,
      "t": 18278.678166666672,
      "d": 983.6059999999998,
      "v": 110
    },
    {
      "midi": 62,
      "hit": false,
      "t": 18278.678166666672,
      "d": 983.6059999999998,
      "v": 110
    },
    {
      "midi": 65,
      "hit": false,
      "t": 18278.678166666672,
      "d": 983.6059999999998,
      "v": 110
    },
    {
      "midi": 42,
      "hit": false,
      "t": 18770.481166666665,
      "d": 20.491791666667268,
      "v": 120
    },
    {
      "midi": 40,
      "hit": false,
      "t": 18770.481166666665,
      "d": 20.491791666667268,
      "v": 120
    },
    {
      "midi": 83,
      "hit": false,
      "t": 18770.481166666665,
      "d": 20.491791666667268,
      "v": 78
    },
    {
      "midi": 63,
      "hit": false,
      "t": 18770.48116666667,
      "d": 491.8029999999999,
      "v": 110
    },
    {
      "midi": 75,
      "hit": false,
      "t": 18770.48116666667,
      "d": 983.6059999999998,
      "v": 95
    },
    {
      "midi": 77,
      "hit": false,
      "t": 19262.284166666665,
      "d": 942.6224166666652,
      "v": 117
    },
    {
      "midi": 67,
      "hit": false,
      "t": 19262.284166666665,
      "d": 655.7373333333344,
      "v": 90
    },
    {
      "midi": 70,
      "hit": false,
      "t": 19262.284166666665,
      "d": 655.7373333333344,
      "v": 90
    },
    {
      "midi": 75,
      "hit": false,
      "t": 19262.284166666665,
      "d": 655.7373333333344,
      "v": 90
    },
    {
      "midi": 36,
      "hit": false,
      "t": 19262.284166666665,
      "d": 942.6224166666652,
      "v": 105
    },
    {
      "midi": 42,
      "hit": false,
      "t": 19262.284166666665,
      "d": 20.491791666667268,
      "v": 120
    },
    {
      "midi": 36,
      "hit": false,
      "t": 19262.284166666665,
      "d": 20.491791666667268,
      "v": 120
    },
    {
      "midi": 63,
      "hit": false,
      "t": 19262.284166666665,
      "d": 20.491791666667268,
      "v": 106
    },
    {
      "midi": 77,
      "hit": false,
      "t": 19262.284166666665,
      "d": 942.6224166666652,
      "v": 100
    },
    {
      "midi": 70,
      "hit": false,
      "t": 19262.284166666668,
      "d": 1967.2119999999995,
      "v": 110
    },
    {
      "midi": 55,
      "hit": false,
      "t": 19262.28416666667,
      "d": 1967.2119999999995,
      "v": 110
    },
    {
      "midi": 58,
      "hit": false,
      "t": 19262.28416666667,
      "d": 1967.2119999999995,
      "v": 110
    },
    {
      "midi": 63,
      "hit": false,
      "t": 19262.28416666667,
      "d": 1967.2119999999995,
      "v": 110
    },
    {
      "midi": 42,
      "hit": false,
      "t": 19754.087166666664,
      "d": 20.491791666667268,
      "v": 120
    },
    {
      "midi": 63,
      "hit": false,
      "t": 19754.087166666664,
      "d": 20.491791666667268,
      "v": 106
    },
    {
      "midi": 75,
      "hit": false,
      "t": 19754.087166666668,
      "d": 983.6059999999998,
      "v": 95
    },
    {
      "midi": 75,
      "hit": false,
      "t": 20245.890166666664,
      "d": 450.81941666666535,
      "v": 127
    },
    {
      "midi": 31,
      "hit": false,
      "t": 20245.890166666664,
      "d": 450.81941666666535,
      "v": 115
    },
    {
      "midi": 42,
      "hit": false,
      "t": 20245.890166666664,
      "d": 20.491791666667268,
      "v": 120
    },
    {
      "midi": 36,
      "hit": false,
      "t": 20245.890166666664,
      "d": 20.491791666667268,
      "v": 120
    },
    {
      "midi": 62,
      "hit": false,
      "t": 20245.890166666664,
      "d": 20.491791666667268,
      "v": 106
    },
    {
      "midi": 75,
      "hit": false,
      "t": 20245.890166666664,
      "d": 450.81941666666535,
      "v": 110
    },
    {
      "midi": 77,
      "hit": false,
      "t": 20737.693166666664,
      "d": 450.81941666666535,
      "v": 127
    },
    {
      "midi": 67,
      "hit": false,
      "t": 20737.693166666664,
      "d": 491.8029999999999,
      "v": 90
    },
    {
      "midi": 70,
      "hit": false,
      "t": 20737.693166666664,
      "d": 491.8029999999999,
      "v": 90
    },
    {
      "midi": 75,
      "hit": false,
      "t": 20737.693166666664,
      "d": 491.8029999999999,
      "v": 90
    },
    {
      "midi": 36,
      "hit": false,
      "t": 20737.693166666664,
      "d": 450.81941666666535,
      "v": 115
    },
    {
      "midi": 42,
      "hit": false,
      "t": 20737.693166666664,
      "d": 20.491791666667268,
      "v": 120
    },
    {
      "midi": 40,
      "hit": false,
      "t": 20737.693166666664,
      "d": 20.491791666667268,
      "v": 120
    },
    {
      "midi": 83,
      "hit": false,
      "t": 20737.693166666664,
      "d": 20.491791666667268,
      "v": 78
    },
    {
      "midi": 77,
      "hit": false,
      "t": 20737.693166666664,
      "d": 450.81941666666535,
      "v": 110
    },
    {
      "midi": 75,
      "hit": false,
      "t": 20737.693166666668,
      "d": 983.6059999999998,
      "v": 95
    },
    {
      "midi": 79,
      "hit": false,
      "t": 21229.496166666664,
      "d": 676.2291250000017,
      "v": 127
    },
    {
      "midi": 34,
      "hit": false,
      "t": 21229.496166666664,
      "d": 676.2291250000017,
      "v": 115
    },
    {
      "midi": 42,
      "hit": false,
      "t": 21229.496166666664,
      "d": 20.491791666667268,
      "v": 120
    },
    {
      "midi": 36,
      "hit": false,
      "t": 21229.496166666664,
      "d": 20.491791666667268,
      "v": 120
    },
    {
      "midi": 63,
      "hit": false,
      "t": 21229.496166666664,
      "d": 20.491791666667268,
      "v": 106
    },
    {
      "midi": 79,
      "hit": false,
      "t": 21229.496166666664,
      "d": 676.2291250000017,
      "v": 110
    },
    {
      "midi": 63,
      "hit": false,
      "t": 21229.496166666668,
      "d": 778.6880833333344,
      "v": 110
    },
    {
      "midi": 67,
      "hit": false,
      "t": 21229.496166666668,
      "d": 491.8029999999999,
      "v": 100
    },
    {
      "midi": 70,
      "hit": false,
      "t": 21229.496166666668,
      "d": 491.8029999999999,
      "v": 100
    },
    {
      "midi": 75,
      "hit": false,
      "t": 21229.496166666668,
      "d": 491.8029999999999,
      "v": 100
    },
    {
      "midi": 58,
      "hit": false,
      "t": 21229.49616666667,
      "d": 1946.7202083333323,
      "v": 110
    },
    {
      "midi": 62,
      "hit": false,
      "t": 21229.49616666667,
      "d": 1946.7202083333323,
      "v": 110
    },
    {
      "midi": 65,
      "hit": false,
      "t": 21229.49616666667,
      "d": 1946.7202083333323,
      "v": 110
    },
    {
      "midi": 62,
      "hit": false,
      "t": 21475.397666666664,
      "d": 20.491791666667268,
      "v": 106
    },
    {
      "midi": 70,
      "hit": false,
      "t": 21721.299166666664,
      "d": 245.90149999999994,
      "v": 90
    },
    {
      "midi": 74,
      "hit": false,
      "t": 21721.299166666664,
      "d": 245.90149999999994,
      "v": 90
    },
    {
      "midi": 77,
      "hit": false,
      "t": 21721.299166666664,
      "d": 245.90149999999994,
      "v": 90
    },
    {
      "midi": 42,
      "hit": false,
      "t": 21721.299166666664,
      "d": 20.491791666667268,
      "v": 120
    },
    {
      "midi": 63,
      "hit": false,
      "t": 21721.299166666664,
      "d": 20.491791666667268,
      "v": 106
    },
    {
      "midi": 75,
      "hit": false,
      "t": 21721.299166666668,
      "d": 983.6059999999998,
      "v": 95
    },
    {
      "midi": 62,
      "hit": false,
      "t": 21967.200666666664,
      "d": 20.491791666667268,
      "v": 106
    },
    {
      "midi": 55,
      "hit": false,
      "t": 22172.118583333333,
      "d": 491.8029999999999,
      "v": 80
    },
    {
      "midi": 58,
      "hit": false,
      "t": 22172.118583333333,
      "d": 491.8029999999999,
      "v": 80
    },
    {
      "midi": 63,
      "hit": false,
      "t": 22172.118583333333,
      "d": 491.8029999999999,
      "v": 80
    },
    {
      "midi": 70,
      "hit": false,
      "t": 22213.102166666664,
      "d": 491.8029999999999,
      "v": 90
    },
    {
      "midi": 74,
      "hit": false,
      "t": 22213.102166666664,
      "d": 491.8029999999999,
      "v": 90
    },
    {
      "midi": 77,
      "hit": false,
      "t": 22213.102166666664,
      "d": 491.8029999999999,
      "v": 90
    },
    {
      "midi": 42,
      "hit": false,
      "t": 22213.102166666664,
      "d": 20.491791666667268,
      "v": 120
    },
    {
      "midi": 36,
      "hit": false,
      "t": 22213.102166666664,
      "d": 20.491791666667268,
      "v": 120
    },
    {
      "midi": 63,
      "hit": false,
      "t": 22213.102166666664,
      "d": 20.491791666667268,
      "v": 106
    },
    {
      "midi": 79,
      "hit": false,
      "t": 22213.102166666667,
      "d": 450.81941666666535,
      "v": 127
    },
    {
      "midi": 70,
      "hit": false,
      "t": 22213.102166666667,
      "d": 491.8029999999999,
      "v": 100
    },
    {
      "midi": 74,
      "hit": false,
      "t": 22213.102166666667,
      "d": 491.8029999999999,
      "v": 100
    },
    {
      "midi": 77,
      "hit": false,
      "t": 22213.102166666667,
      "d": 491.8029999999999,
      "v": 100
    },
    {
      "midi": 27,
      "hit": false,
      "t": 22213.102166666667,
      "d": 676.2291250000017,
      "v": 115
    },
    {
      "midi": 79,
      "hit": false,
      "t": 22213.102166666667,
      "d": 450.81941666666535,
      "v": 110
    },
    {
      "midi": 55,
      "hit": false,
      "t": 22663.921583333333,
      "d": 491.8029999999999,
      "v": 80
    },
    {
      "midi": 58,
      "hit": false,
      "t": 22663.921583333333,
      "d": 491.8029999999999,
      "v": 80
    },
    {
      "midi": 65,
      "hit": false,
      "t": 22663.921583333333,
      "d": 491.8029999999999,
      "v": 80
    },
    {
      "midi": 40,
      "hit": false,
      "t": 22704.905166666664,
      "d": 20.491791666667268,
      "v": 120
    },
    {
      "midi": 46,
      "hit": false,
      "t": 22704.905166666664,
      "d": 20.491791666667268,
      "v": 120
    },
    {
      "midi": 83,
      "hit": false,
      "t": 22704.905166666664,
      "d": 20.491791666667268,
      "v": 78
    },
    {
      "midi": 80,
      "hit": false,
      "t": 22704.905166666667,
      "d": 450.81941666666535,
      "v": 127
    },
    {
      "midi": 75,
      "hit": false,
      "t": 22704.905166666667,
      "d": 983.6059999999998,
      "v": 95
    },
    {
      "midi": 80,
      "hit": false,
      "t": 22704.905166666667,
      "d": 450.81941666666535,
      "v": 110
    },
    {
      "midi": 58,
      "hit": false,
      "t": 23155.724583333333,
      "d": 512.2947916666672,
      "v": 80
    },
    {
      "midi": 67,
      "hit": false,
      "t": 23155.724583333333,
      "d": 983.6059999999998,
      "v": 80
    },
    {
      "midi": 63,
      "hit": false,
      "t": 23155.724583333333,
      "d": 983.6059999999998,
      "v": 80
    },
    {
      "midi": 36,
      "hit": false,
      "t": 23196.708166666664,
      "d": 20.491791666667268,
      "v": 120
    },
    {
      "midi": 62,
      "hit": false,
      "t": 23196.708166666664,
      "d": 20.491791666667268,
      "v": 106
    },
    {
      "midi": 82,
      "hit": false,
      "t": 23196.708166666667,
      "d": 942.6224166666652,
      "v": 117
    },
    {
      "midi": 82,
      "hit": false,
      "t": 23196.708166666667,
      "d": 942.6224166666652,
      "v": 100
    },
    {
      "midi": 63,
      "hit": false,
      "t": 23196.70816666667,
      "d": 3913.932208333332,
      "v": 110
    },
    {
      "midi": 56,
      "hit": false,
      "t": 23196.70816666667,
      "d": 3913.932208333332,
      "v": 110
    },
    {
      "midi": 60,
      "hit": false,
      "t": 23196.70816666667,
      "d": 3913.932208333332,
      "v": 110
    },
    {
      "midi": 32,
      "hit": false,
      "t": 23196.70816666667,
      "d": 450.81941666666535,
      "v": 115
    },
    {
      "midi": 60,
      "hit": false,
      "t": 23647.527583333333,
      "d": 491.8029999999999,
      "v": 80
    },
    {
      "midi": 75,
      "hit": false,
      "t": 23688.51116666664,
      "d": 2459.0150000000176,
      "v": 95
    },
    {
      "midi": 68,
      "hit": false,
      "t": 23688.51116666664,
      "d": 2459.0150000000176,
      "v": 95
    },
    {
      "midi": 72,
      "hit": false,
      "t": 23688.51116666664,
      "d": 3422.1292083333574,
      "v": 95
    },
    {
      "midi": 63,
      "hit": false,
      "t": 23688.511166666663,
      "d": 245.90149999999994,
      "v": 90
    },
    {
      "midi": 68,
      "hit": false,
      "t": 23688.511166666663,
      "d": 245.90149999999994,
      "v": 90
    },
    {
      "midi": 72,
      "hit": false,
      "t": 23688.511166666663,
      "d": 245.90149999999994,
      "v": 90
    },
    {
      "midi": 49,
      "hit": false,
      "t": 23688.511166666663,
      "d": 20.491791666667268,
      "v": 64
    },
    {
      "midi": 36,
      "hit": false,
      "t": 23688.511166666663,
      "d": 20.491791666667268,
      "v": 92
    },
    {
      "midi": 63,
      "hit": false,
      "t": 23688.511166666663,
      "d": 20.491791666667268,
      "v": 106
    },
    {
      "midi": 58,
      "hit": false,
      "t": 23688.511166666667,
      "d": 5901.636000000002,
      "v": 110
    },
    {
      "midi": 70,
      "hit": false,
      "t": 23688.511166666667,
      "d": 5901.636000000002,
      "v": 110
    },
    {
      "midi": 75,
      "hit": false,
      "t": 23688.511166666667,
      "d": 983.6059999999998,
      "v": 95
    },
    {
      "midi": 32,
      "hit": false,
      "t": 23688.51116666667,
      "d": 450.81941666666535,
      "v": 105
    },
    {
      "midi": 67,
      "hit": false,
      "t": 24139.330583333332,
      "d": 491.8029999999999,
      "v": 80
    },
    {
      "midi": 60,
      "hit": false,
      "t": 24139.330583333332,
      "d": 491.8029999999999,
      "v": 80
    },
    {
      "midi": 63,
      "hit": false,
      "t": 24139.330583333332,
      "d": 491.8029999999999,
      "v": 80
    },
    {
      "midi": 63,
      "hit": false,
      "t": 24180.314166666663,
      "d": 245.90149999999994,
      "v": 90
    },
    {
      "midi": 68,
      "hit": false,
      "t": 24180.314166666663,
      "d": 245.90149999999994,
      "v": 90
    },
    {
      "midi": 72,
      "hit": false,
      "t": 24180.314166666663,
      "d": 245.90149999999994,
      "v": 90
    },
    {
      "midi": 42,
      "hit": false,
      "t": 24180.314166666663,
      "d": 20.491791666667268,
      "v": 120
    },
    {
      "midi": 62,
      "hit": false,
      "t": 24180.314166666663,
      "d": 20.491791666667268,
      "v": 106
    },
    {
      "midi": 75,
      "hit": false,
      "t": 24180.314166666667,
      "d": 450.81941666666535,
      "v": 127
    },
    {
      "midi": 75,
      "hit": false,
      "t": 24180.314166666667,
      "d": 450.81941666666535,
      "v": 110
    },
    {
      "midi": 32,
      "hit": false,
      "t": 24180.31416666667,
      "d": 225.40970833333267,
      "v": 115
    },
    {
      "midi": 65,
      "hit": false,
      "t": 24631.133583333332,
      "d": 491.8029999999999,
      "v": 80
    },
    {
      "midi": 60,
      "hit": false,
      "t": 24631.133583333332,
      "d": 491.8029999999999,
      "v": 80
    },
    {
      "midi": 63,
      "hit": false,
      "t": 24631.133583333332,
      "d": 491.8029999999999,
      "v": 80
    },
    {
      "midi": 63,
      "hit": false,
      "t": 24672.117166666663,
      "d": 491.8029999999999,
      "v": 90
    },
    {
      "midi": 68,
      "hit": false,
      "t": 24672.117166666663,
      "d": 491.8029999999999,
      "v": 90
    },
    {
      "midi": 72,
      "hit": false,
      "t": 24672.117166666663,
      "d": 491.8029999999999,
      "v": 90
    },
    {
      "midi": 42,
      "hit": false,
      "t": 24672.117166666663,
      "d": 20.491791666667268,
      "v": 120
    },
    {
      "midi": 40,
      "hit": false,
      "t": 24672.117166666663,
      "d": 20.491791666667268,
      "v": 120
    },
    {
      "midi": 83,
      "hit": false,
      "t": 24672.117166666663,
      "d": 20.491791666667268,
      "v": 78
    },
    {
      "midi": 74,
      "hit": false,
      "t": 24672.117166666667,
      "d": 450.81941666666535,
      "v": 127
    },
    {
      "midi": 75,
      "hit": false,
      "t": 24672.117166666667,
      "d": 983.6059999999998,
      "v": 95
    },
    {
      "midi": 74,
      "hit": false,
      "t": 24672.117166666667,
      "d": 450.81941666666535,
      "v": 110
    },
    {
      "midi": 67,
      "hit": false,
      "t": 25122.936583333332,
      "d": 491.8029999999999,
      "v": 80
    },
    {
      "midi": 60,
      "hit": false,
      "t": 25122.936583333332,
      "d": 491.8029999999999,
      "v": 80
    },
    {
      "midi": 63,
      "hit": false,
      "t": 25122.936583333332,
      "d": 491.8029999999999,
      "v": 80
    },
    {
      "midi": 42,
      "hit": false,
      "t": 25163.920166666663,
      "d": 20.491791666667268,
      "v": 120
    },
    {
      "midi": 63,
      "hit": false,
      "t": 25163.920166666663,
      "d": 20.491791666667268,
      "v": 106
    },
    {
      "midi": 75,
      "hit": false,
      "t": 25163.920166666667,
      "d": 676.2291250000017,
      "v": 127
    },
    {
      "midi": 75,
      "hit": false,
      "t": 25163.920166666667,
      "d": 676.2291250000017,
      "v": 110
    },
    {
      "midi": 41,
      "hit": false,
      "t": 25163.92016666667,
      "d": 225.40970833333267,
      "v": 115
    },
    {
      "midi": 43,
      "hit": false,
      "t": 25409.82166666667,
      "d": 225.40970833333267,
      "v": 115
    },
    {
      "midi": 63,
      "hit": false,
      "t": 25655.723166666663,
      "d": 491.8029999999999,
      "v": 90
    },
    {
      "midi": 68,
      "hit": false,
      "t": 25655.723166666663,
      "d": 491.8029999999999,
      "v": 90
    },
    {
      "midi": 72,
      "hit": false,
      "t": 25655.723166666663,
      "d": 491.8029999999999,
      "v": 90
    },
    {
      "midi": 42,
      "hit": false,
      "t": 25655.723166666663,
      "d": 20.491791666667268,
      "v": 120
    },
    {
      "midi": 36,
      "hit": false,
      "t": 25655.723166666663,
      "d": 20.491791666667268,
      "v": 120
    },
    {
      "midi": 63,
      "hit": false,
      "t": 25655.723166666663,
      "d": 20.491791666667268,
      "v": 106
    },
    {
      "midi": 75,
      "hit": false,
      "t": 25655.723166666667,
      "d": 983.6059999999998,
      "v": 95
    },
    {
      "midi": 41,
      "hit": false,
      "t": 25655.72316666667,
      "d": 450.81941666666535,
      "v": 115
    },
    {
      "midi": 67,
      "hit": false,
      "t": 26106.542583333332,
      "d": 491.8029999999999,
      "v": 80
    },
    {
      "midi": 60,
      "hit": false,
      "t": 26106.542583333332,
      "d": 491.8029999999999,
      "v": 80
    },
    {
      "midi": 63,
      "hit": false,
      "t": 26106.542583333332,
      "d": 491.8029999999999,
      "v": 80
    },
    {
      "midi": 42,
      "hit": false,
      "t": 26147.526166666663,
      "d": 20.491791666667268,
      "v": 120
    },
    {
      "midi": 36,
      "hit": false,
      "t": 26147.526166666663,
      "d": 20.491791666667268,
      "v": 120
    },
    {
      "midi": 62,
      "hit": false,
      "t": 26147.526166666663,
      "d": 20.491791666667268,
      "v": 106
    },
    {
      "midi": 79,
      "hit": false,
      "t": 26147.52616666667,
      "d": 450.81941666666535,
      "v": 127
    },
    {
      "midi": 39,
      "hit": false,
      "t": 26147.52616666667,
      "d": 450.81941666666535,
      "v": 115
    },
    {
      "midi": 79,
      "hit": false,
      "t": 26147.52616666667,
      "d": 450.81941666666535,
      "v": 110
    },
    {
      "midi": 65,
      "hit": false,
      "t": 26598.345583333332,
      "d": 122.95074999999997,
      "v": 80
    },
    {
      "midi": 60,
      "hit": false,
      "t": 26598.345583333332,
      "d": 122.95074999999997,
      "v": 80
    },
    {
      "midi": 63,
      "hit": false,
      "t": 26598.345583333332,
      "d": 122.95074999999997,
      "v": 80
    },
    {
      "midi": 63,
      "hit": false,
      "t": 26639.329166666663,
      "d": 245.90149999999994,
      "v": 90
    },
    {
      "midi": 68,
      "hit": false,
      "t": 26639.329166666663,
      "d": 245.90149999999994,
      "v": 90
    },
    {
      "midi": 72,
      "hit": false,
      "t": 26639.329166666663,
      "d": 245.90149999999994,
      "v": 90
    },
    {
      "midi": 42,
      "hit": false,
      "t": 26639.329166666663,
      "d": 20.491791666667268,
      "v": 120
    },
    {
      "midi": 40,
      "hit": false,
      "t": 26639.329166666663,
      "d": 20.491791666667268,
      "v": 120
    },
    {
      "midi": 83,
      "hit": false,
      "t": 26639.329166666663,
      "d": 20.491791666667268,
      "v": 78
    },
    {
      "midi": 75,
      "hit": false,
      "t": 26639.329166666666,
      "d": 983.6059999999998,
      "v": 95
    },
    {
      "midi": 80,
      "hit": false,
      "t": 26639.32916666667,
      "d": 450.81941666666535,
      "v": 127
    },
    {
      "midi": 32,
      "hit": false,
      "t": 26639.32916666667,
      "d": 450.81941666666535,
      "v": 115
    },
    {
      "midi": 80,
      "hit": false,
      "t": 26639.32916666667,
      "d": 450.81941666666535,
      "v": 110
    },
    {
      "midi": 65,
      "hit": false,
      "t": 26721.296333333332,
      "d": 368.8522499999999,
      "v": 80
    },
    {
      "midi": 60,
      "hit": false,
      "t": 26721.296333333332,
      "d": 368.8522499999999,
      "v": 80
    },
    {
      "midi": 63,
      "hit": false,
      "t": 26721.296333333332,
      "d": 368.8522499999999,
      "v": 80
    },
    {
      "midi": 67,
      "hit": false,
      "t": 27090.14858333333,
      "d": 122.95074999999997,
      "v": 80
    },
    {
      "midi": 58,
      "hit": false,
      "t": 27090.14858333333,
      "d": 122.95074999999997,
      "v": 80
    },
    {
      "midi": 63,
      "hit": false,
      "t": 27090.14858333333,
      "d": 122.95074999999997,
      "v": 80
    },
    {
      "midi": 63,
      "hit": false,
      "t": 27131.132166666663,
      "d": 737.7044999999998,
      "v": 90
    },
    {
      "midi": 67,
      "hit": false,
      "t": 27131.132166666663,
      "d": 737.7044999999998,
      "v": 90
    },
    {
      "midi": 70,
      "hit": false,
      "t": 27131.132166666663,
      "d": 737.7044999999998,
      "v": 90
    },
    {
      "midi": 42,
      "hit": false,
      "t": 27131.132166666663,
      "d": 20.491791666667268,
      "v": 120
    },
    {
      "midi": 36,
      "hit": false,
      "t": 27131.132166666663,
      "d": 20.491791666667268,
      "v": 120
    },
    {
      "midi": 63,
      "hit": false,
      "t": 27131.132166666663,
      "d": 20.491791666667268,
      "v": 106
    },
    {
      "midi": 67,
      "hit": false,
      "t": 27131.132166666666,
      "d": 4303.276250000032,
      "v": 95
    },
    {
      "midi": 70,
      "hit": false,
      "t": 27131.132166666666,
      "d": 4303.276250000032,
      "v": 95
    },
    {
      "midi": 82,
      "hit": false,
      "t": 27131.13216666667,
      "d": 942.6224166666652,
      "v": 117
    },
    {
      "midi": 63,
      "hit": false,
      "t": 27131.13216666667,
      "d": 4405.735208333332,
      "v": 110
    },
    {
      "midi": 55,
      "hit": false,
      "t": 27131.13216666667,
      "d": 4405.735208333332,
      "v": 110
    },
    {
      "midi": 58,
      "hit": false,
      "t": 27131.13216666667,
      "d": 4405.735208333332,
      "v": 110
    },
    {
      "midi": 31,
      "hit": false,
      "t": 27131.13216666667,
      "d": 942.6224166666652,
      "v": 105
    },
    {
      "midi": 82,
      "hit": false,
      "t": 27131.13216666667,
      "d": 942.6224166666652,
      "v": 100
    },
    {
      "midi": 67,
      "hit": false,
      "t": 27213.09933333333,
      "d": 860.6552499999998,
      "v": 80
    },
    {
      "midi": 58,
      "hit": false,
      "t": 27213.09933333333,
      "d": 860.6552499999998,
      "v": 80
    },
    {
      "midi": 63,
      "hit": false,
      "t": 27213.09933333333,
      "d": 860.6552499999998,
      "v": 80
    },
    {
      "midi": 42,
      "hit": false,
      "t": 27622.935166666663,
      "d": 20.491791666667268,
      "v": 120
    },
    {
      "midi": 63,
      "hit": false,
      "t": 27622.935166666663,
      "d": 20.491791666667268,
      "v": 106
    },
    {
      "midi": 75,
      "hit": false,
      "t": 27622.935166666666,
      "d": 983.6059999999998,
      "v": 95
    },
    {
      "midi": 67,
      "hit": false,
      "t": 28073.75458333333,
      "d": 491.8029999999999,
      "v": 80
    },
    {
      "midi": 58,
      "hit": false,
      "t": 28073.75458333333,
      "d": 491.8029999999999,
      "v": 80
    },
    {
      "midi": 63,
      "hit": false,
      "t": 28073.75458333333,
      "d": 491.8029999999999,
      "v": 80
    },
    {
      "midi": 63,
      "hit": false,
      "t": 28114.738166666662,
      "d": 245.90149999999994,
      "v": 90
    },
    {
      "midi": 67,
      "hit": false,
      "t": 28114.738166666662,
      "d": 245.90149999999994,
      "v": 90
    },
    {
      "midi": 70,
      "hit": false,
      "t": 28114.738166666662,
      "d": 245.90149999999994,
      "v": 90
    },
    {
      "midi": 42,
      "hit": false,
      "t": 28114.738166666662,
      "d": 20.491791666667268,
      "v": 120
    },
    {
      "midi": 36,
      "hit": false,
      "t": 28114.738166666662,
      "d": 20.491791666667268,
      "v": 120
    },
    {
      "midi": 62,
      "hit": false,
      "t": 28114.738166666662,
      "d": 20.491791666667268,
      "v": 106
    },
    {
      "midi": 75,
      "hit": false,
      "t": 28114.73816666667,
      "d": 450.81941666666535,
      "v": 127
    },
    {
      "midi": 39,
      "hit": false,
      "t": 28114.73816666667,
      "d": 450.81941666666535,
      "v": 115
    },
    {
      "midi": 75,
      "hit": false,
      "t": 28114.73816666667,
      "d": 450.81941666666535,
      "v": 110
    },
    {
      "midi": 65,
      "hit": false,
      "t": 28565.55758333333,
      "d": 491.8029999999999,
      "v": 80
    },
    {
      "midi": 58,
      "hit": false,
      "t": 28565.55758333333,
      "d": 491.8029999999999,
      "v": 80
    },
    {
      "midi": 62,
      "hit": false,
      "t": 28565.55758333333,
      "d": 491.8029999999999,
      "v": 80
    },
    {
      "midi": 63,
      "hit": false,
      "t": 28606.541166666662,
      "d": 491.8029999999999,
      "v": 90
    },
    {
      "midi": 67,
      "hit": false,
      "t": 28606.541166666662,
      "d": 491.8029999999999,
      "v": 90
    },
    {
      "midi": 70,
      "hit": false,
      "t": 28606.541166666662,
      "d": 491.8029999999999,
      "v": 90
    },
    {
      "midi": 42,
      "hit": false,
      "t": 28606.541166666662,
      "d": 20.491791666667268,
      "v": 120
    },
    {
      "midi": 40,
      "hit": false,
      "t": 28606.541166666662,
      "d": 20.491791666667268,
      "v": 120
    },
    {
      "midi": 83,
      "hit": false,
      "t": 28606.541166666662,
      "d": 20.491791666667268,
      "v": 78
    },
    {
      "midi": 75,
      "hit": false,
      "t": 28606.541166666666,
      "d": 983.6059999999998,
      "v": 95
    },
    {
      "midi": 74,
      "hit": false,
      "t": 28606.54116666667,
      "d": 450.81941666666535,
      "v": 127
    },
    {
      "midi": 31,
      "hit": false,
      "t": 28606.54116666667,
      "d": 450.81941666666535,
      "v": 115
    },
    {
      "midi": 74,
      "hit": false,
      "t": 28606.54116666667,
      "d": 450.81941666666535,
      "v": 110
    },
    {
      "midi": 67,
      "hit": false,
      "t": 29057.36058333333,
      "d": 983.6059999999998,
      "v": 80
    },
    {
      "midi": 58,
      "hit": false,
      "t": 29057.36058333333,
      "d": 983.6059999999998,
      "v": 80
    },
    {
      "midi": 63,
      "hit": false,
      "t": 29057.36058333333,
      "d": 983.6059999999998,
      "v": 80
    },
    {
      "midi": 42,
      "hit": false,
      "t": 29098.344166666662,
      "d": 20.491791666667268,
      "v": 120
    },
    {
      "midi": 36,
      "hit": false,
      "t": 29098.344166666662,
      "d": 20.491791666667268,
      "v": 120
    },
    {
      "midi": 63,
      "hit": false,
      "t": 29098.344166666662,
      "d": 20.491791666667268,
      "v": 106
    },
    {
      "midi": 75,
      "hit": false,
      "t": 29098.34416666667,
      "d": 1127.048541666667,
      "v": 127
    },
    {
      "midi": 75,
      "hit": false,
      "t": 29098.34416666667,
      "d": 1127.048541666667,
      "v": 110
    },
    {
      "midi": 62,
      "hit": false,
      "t": 29344.245666666662,
      "d": 20.491791666667268,
      "v": 106
    },
    {
      "midi": 63,
      "hit": false,
      "t": 29590.147166666662,
      "d": 245.90149999999994,
      "v": 90
    },
    {
      "midi": 67,
      "hit": false,
      "t": 29590.147166666662,
      "d": 245.90149999999994,
      "v": 90
    },
    {
      "midi": 68,
      "hit": false,
      "t": 29590.147166666662,
      "d": 245.90149999999994,
      "v": 90
    },
    {
      "midi": 42,
      "hit": false,
      "t": 29590.147166666662,
      "d": 20.491791666667268,
      "v": 120
    },
    {
      "midi": 63,
      "hit": false,
      "t": 29590.147166666662,
      "d": 20.491791666667268,
      "v": 106
    },
    {
      "midi": 75,
      "hit": false,
      "t": 29590.147166666666,
      "d": 983.6059999999998,
      "v": 95
    },
    {
      "midi": 58,
      "hit": false,
      "t": 29590.14716666667,
      "d": 491.8029999999999,
      "v": 100
    },
    {
      "midi": 63,
      "hit": false,
      "t": 29590.14716666667,
      "d": 491.8029999999999,
      "v": 100
    },
    {
      "midi": 67,
      "hit": false,
      "t": 29590.14716666667,
      "d": 491.8029999999999,
      "v": 100
    },
    {
      "midi": 39,
      "hit": false,
      "t": 29590.14716666667,
      "d": 450.81941666666535,
      "v": 115
    },
    {
      "midi": 62,
      "hit": false,
      "t": 29836.048666666662,
      "d": 20.491791666667268,
      "v": 106
    },
    {
      "midi": 63,
      "hit": false,
      "t": 30081.950166666662,
      "d": 491.8029999999999,
      "v": 90
    },
    {
      "midi": 67,
      "hit": false,
      "t": 30081.950166666662,
      "d": 491.8029999999999,
      "v": 90
    },
    {
      "midi": 70,
      "hit": false,
      "t": 30081.950166666662,
      "d": 491.8029999999999,
      "v": 90
    },
    {
      "midi": 42,
      "hit": false,
      "t": 30081.950166666662,
      "d": 20.491791666667268,
      "v": 120
    },
    {
      "midi": 36,
      "hit": false,
      "t": 30081.950166666662,
      "d": 20.491791666667268,
      "v": 120
    },
    {
      "midi": 63,
      "hit": false,
      "t": 30081.950166666662,
      "d": 20.491791666667268,
      "v": 106
    },
    {
      "midi": 58,
      "hit": false,
      "t": 30081.95016666667,
      "d": 491.8029999999999,
      "v": 100
    },
    {
      "midi": 65,
      "hit": false,
      "t": 30081.95016666667,
      "d": 491.8029999999999,
      "v": 100
    },
    {
      "midi": 68,
      "hit": false,
      "t": 30081.95016666667,
      "d": 491.8029999999999,
      "v": 100
    },
    {
      "midi": 32,
      "hit": false,
      "t": 30081.95016666667,
      "d": 225.40970833333267,
      "v": 115
    },
    {
      "midi": 34,
      "hit": false,
      "t": 30327.85166666667,
      "d": 225.40970833333267,
      "v": 115
    },
    {
      "midi": 42,
      "hit": false,
      "t": 30573.753166666662,
      "d": 20.491791666667268,
      "v": 120
    },
    {
      "midi": 40,
      "hit": false,
      "t": 30573.753166666662,
      "d": 20.491791666667268,
      "v": 120
    },
    {
      "midi": 83,
      "hit": false,
      "t": 30573.753166666662,
      "d": 20.491791666667268,
      "v": 78
    },
    {
      "midi": 75,
      "hit": false,
      "t": 30573.753166666665,
      "d": 983.6059999999998,
      "v": 95
    },
    {
      "midi": 72,
      "hit": false,
      "t": 30573.75316666667,
      "d": 450.81941666666535,
      "v": 127
    },
    {
      "midi": 63,
      "hit": false,
      "t": 30573.75316666667,
      "d": 491.8029999999999,
      "v": 100
    },
    {
      "midi": 67,
      "hit": false,
      "t": 30573.75316666667,
      "d": 491.8029999999999,
      "v": 100
    },
    {
      "midi": 70,
      "hit": false,
      "t": 30573.75316666667,
      "d": 491.8029999999999,
      "v": 100
    },
    {
      "midi": 39,
      "hit": false,
      "t": 30573.75316666667,
      "d": 450.81941666666535,
      "v": 115
    },
    {
      "midi": 72,
      "hit": false,
      "t": 30573.75316666667,
      "d": 450.81941666666535,
      "v": 110
    },
    {
      "midi": 42,
      "hit": false,
      "t": 31065.55616666666,
      "d": 20.491791666667268,
      "v": 120
    },
    {
      "midi": 36,
      "hit": false,
      "t": 31065.55616666666,
      "d": 20.491791666667268,
      "v": 120
    },
    {
      "midi": 62,
      "hit": false,
      "t": 31065.55616666666,
      "d": 20.491791666667268,
      "v": 106
    },
    {
      "midi": 74,
      "hit": false,
      "t": 31065.55616666667,
      "d": 450.81941666666535,
      "v": 127
    },
    {
      "midi": 65,
      "hit": false,
      "t": 31065.55616666667,
      "d": 491.8029999999999,
      "v": 100
    },
    {
      "midi": 68,
      "hit": false,
      "t": 31065.55616666667,
      "d": 491.8029999999999,
      "v": 100
    },
    {
      "midi": 72,
      "hit": false,
      "t": 31065.55616666667,
      "d": 983.6059999999998,
      "v": 100
    },
    {
      "midi": 31,
      "hit": false,
      "t": 31065.55616666667,
      "d": 450.81941666666535,
      "v": 115
    },
    {
      "midi": 74,
      "hit": false,
      "t": 31065.55616666667,
      "d": 450.81941666666535,
      "v": 110
    },
    {
      "midi": 65,
      "hit": false,
      "t": 31557.35916666666,
      "d": 491.8029999999999,
      "v": 90
    },
    {
      "midi": 68,
      "hit": false,
      "t": 31557.35916666666,
      "d": 491.8029999999999,
      "v": 90
    },
    {
      "midi": 72,
      "hit": false,
      "t": 31557.35916666666,
      "d": 491.8029999999999,
      "v": 90
    },
    {
      "midi": 36,
      "hit": false,
      "t": 31557.35916666666,
      "d": 20.491791666667268,
      "v": 92
    },
    {
      "midi": 63,
      "hit": false,
      "t": 31557.35916666666,
      "d": 20.491791666667268,
      "v": 106
    },
    {
      "midi": 42,
      "hit": false,
      "t": 31557.35916666666,
      "d": 20.491791666667268,
      "v": 120
    },
    {
      "midi": 75,
      "hit": false,
      "t": 31557.359166666665,
      "d": 983.6059999999998,
      "v": 95
    },
    {
      "midi": 75,
      "hit": false,
      "t": 31557.35916666667,
      "d": 450.81941666666535,
      "v": 117
    },
    {
      "midi": 60,
      "hit": false,
      "t": 31557.35916666667,
      "d": 491.8029999999999,
      "v": 110
    },
    {
      "midi": 65,
      "hit": false,
      "t": 31557.35916666667,
      "d": 1946.7202083333323,
      "v": 110
    },
    {
      "midi": 56,
      "hit": false,
      "t": 31557.35916666667,
      "d": 1946.7202083333323,
      "v": 110
    },
    {
      "midi": 60,
      "hit": false,
      "t": 31557.35916666667,
      "d": 1946.7202083333323,
      "v": 110
    },
    {
      "midi": 29,
      "hit": false,
      "t": 31557.35916666667,
      "d": 450.81941666666535,
      "v": 105
    },
    {
      "midi": 75,
      "hit": false,
      "t": 31557.35916666667,
      "d": 450.81941666666535,
      "v": 100
    },
    {
      "midi": 42,
      "hit": false,
      "t": 32049.16216666666,
      "d": 20.491791666667268,
      "v": 120
    },
    {
      "midi": 62,
      "hit": false,
      "t": 32049.16216666666,
      "d": 20.491791666667268,
      "v": 106
    },
    {
      "midi": 77,
      "hit": false,
      "t": 32049.16216666667,
      "d": 450.81941666666535,
      "v": 127
    },
    {
      "midi": 62,
      "hit": false,
      "t": 32049.16216666667,
      "d": 491.8029999999999,
      "v": 110
    },
    {
      "midi": 74,
      "hit": false,
      "t": 32049.16216666667,
      "d": 491.8029999999999,
      "v": 110
    },
    {
      "midi": 29,
      "hit": false,
      "t": 32049.16216666667,
      "d": 901.6388333333307,
      "v": 115
    },
    {
      "midi": 77,
      "hit": false,
      "t": 32049.16216666667,
      "d": 450.81941666666535,
      "v": 110
    },
    {
      "midi": 65,
      "hit": false,
      "t": 32540.96516666666,
      "d": 491.8029999999999,
      "v": 90
    },
    {
      "midi": 68,
      "hit": false,
      "t": 32540.96516666666,
      "d": 491.8029999999999,
      "v": 90
    },
    {
      "midi": 72,
      "hit": false,
      "t": 32540.96516666666,
      "d": 491.8029999999999,
      "v": 90
    },
    {
      "midi": 42,
      "hit": false,
      "t": 32540.96516666666,
      "d": 20.491791666667268,
      "v": 120
    },
    {
      "midi": 40,
      "hit": false,
      "t": 32540.96516666666,
      "d": 20.491791666667268,
      "v": 120
    },
    {
      "midi": 83,
      "hit": false,
      "t": 32540.96516666666,
      "d": 20.491791666667268,
      "v": 78
    },
    {
      "midi": 75,
      "hit": false,
      "t": 32540.965166666665,
      "d": 983.6060000000034,
      "v": 95
    },
    {
      "midi": 79,
      "hit": false,
      "t": 32540.96516666667,
      "d": 450.81941666666535,
      "v": 127
    },
    {
      "midi": 63,
      "hit": false,
      "t": 32540.96516666667,
      "d": 491.8029999999999,
      "v": 110
    },
    {
      "midi": 75,
      "hit": false,
      "t": 32540.96516666667,
      "d": 491.8029999999999,
      "v": 110
    },
    {
      "midi": 79,
      "hit": false,
      "t": 32540.96516666667,
      "d": 450.81941666666535,
      "v": 110
    },
    {
      "midi": 42,
      "hit": false,
      "t": 33032.76816666666,
      "d": 20.491791666667268,
      "v": 120
    },
    {
      "midi": 63,
      "hit": false,
      "t": 33032.76816666666,
      "d": 20.491791666667268,
      "v": 106
    },
    {
      "midi": 80,
      "hit": false,
      "t": 33032.76816666667,
      "d": 450.81941666666535,
      "v": 127
    },
    {
      "midi": 65,
      "hit": false,
      "t": 33032.76816666667,
      "d": 491.8029999999999,
      "v": 110
    },
    {
      "midi": 77,
      "hit": false,
      "t": 33032.76816666667,
      "d": 491.8029999999999,
      "v": 110
    },
    {
      "midi": 29,
      "hit": false,
      "t": 33032.76816666667,
      "d": 450.81941666666535,
      "v": 115
    },
    {
      "midi": 80,
      "hit": false,
      "t": 33032.76816666667,
      "d": 450.81941666666535,
      "v": 110
    },
    {
      "midi": 63,
      "hit": false,
      "t": 33524.57116666666,
      "d": 491.8029999999999,
      "v": 90
    },
    {
      "midi": 68,
      "hit": false,
      "t": 33524.57116666666,
      "d": 491.8029999999999,
      "v": 90
    },
    {
      "midi": 72,
      "hit": false,
      "t": 33524.57116666666,
      "d": 491.8029999999999,
      "v": 90
    },
    {
      "midi": 42,
      "hit": false,
      "t": 33524.57116666666,
      "d": 20.491791666667268,
      "v": 120
    },
    {
      "midi": 36,
      "hit": false,
      "t": 33524.57116666666,
      "d": 20.491791666667268,
      "v": 120
    },
    {
      "midi": 63,
      "hit": false,
      "t": 33524.57116666666,
      "d": 20.491791666667268,
      "v": 106
    },
    {
      "midi": 82,
      "hit": false,
      "t": 33524.57116666667,
      "d": 450.81941666666535,
      "v": 127
    },
    {
      "midi": 67,
      "hit": false,
      "t": 33524.57116666667,
      "d": 491.8029999999999,
      "v": 110
    },
    {
      "midi": 79,
      "hit": false,
      "t": 33524.57116666667,
      "d": 491.8029999999999,
      "v": 110
    },
    {
      "midi": 72,
      "hit": false,
      "t": 33524.57116666667,
      "d": 1475.4089999999997,
      "v": 90
    },
    {
      "midi": 63,
      "hit": false,
      "t": 33524.57116666667,
      "d": 963.1142083333325,
      "v": 110
    },
    {
      "midi": 56,
      "hit": false,
      "t": 33524.57116666667,
      "d": 963.1142083333325,
      "v": 110
    },
    {
      "midi": 60,
      "hit": false,
      "t": 33524.57116666667,
      "d": 963.1142083333325,
      "v": 110
    },
    {
      "midi": 34,
      "hit": false,
      "t": 33524.57116666667,
      "d": 450.81941666666535,
      "v": 115
    },
    {
      "midi": 82,
      "hit": false,
      "t": 33524.57116666667,
      "d": 450.81941666666535,
      "v": 110
    },
    {
      "midi": 36,
      "hit": false,
      "t": 34016.37416666666,
      "d": 20.491791666667268,
      "v": 120
    },
    {
      "midi": 62,
      "hit": false,
      "t": 34016.37416666666,
      "d": 20.491791666667268,
      "v": 106
    },
    {
      "midi": 46,
      "hit": false,
      "t": 34016.37416666666,
      "d": 20.491791666667268,
      "v": 120
    },
    {
      "midi": 75,
      "hit": false,
      "t": 34016.37416666667,
      "d": 450.81941666666535,
      "v": 127
    },
    {
      "midi": 68,
      "hit": false,
      "t": 34016.37416666667,
      "d": 491.8029999999999,
      "v": 110
    },
    {
      "midi": 80,
      "hit": false,
      "t": 34016.37416666667,
      "d": 491.8029999999999,
      "v": 110
    },
    {
      "midi": 29,
      "hit": false,
      "t": 34016.37416666667,
      "d": 450.81941666666535,
      "v": 115
    },
    {
      "midi": 75,
      "hit": false,
      "t": 34016.37416666667,
      "d": 450.81941666666535,
      "v": 110
    },
    {
      "midi": 63,
      "hit": false,
      "t": 34508.17716666666,
      "d": 245.90149999999994,
      "v": 90
    },
    {
      "midi": 67,
      "hit": false,
      "t": 34508.17716666666,
      "d": 245.90149999999994,
      "v": 90
    },
    {
      "midi": 70,
      "hit": false,
      "t": 34508.17716666666,
      "d": 245.90149999999994,
      "v": 90
    },
    {
      "midi": 40,
      "hit": false,
      "t": 34508.17716666666,
      "d": 20.491791666667268,
      "v": 120
    },
    {
      "midi": 42,
      "hit": false,
      "t": 34508.17716666666,
      "d": 20.491791666667268,
      "v": 120
    },
    {
      "midi": 83,
      "hit": false,
      "t": 34508.17716666666,
      "d": 20.491791666667268,
      "v": 78
    },
    {
      "midi": 77,
      "hit": false,
      "t": 34508.17716666667,
      "d": 450.81941666666535,
      "v": 127
    },
    {
      "midi": 70,
      "hit": false,
      "t": 34508.17716666667,
      "d": 491.8029999999999,
      "v": 110
    },
    {
      "midi": 82,
      "hit": false,
      "t": 34508.17716666667,
      "d": 491.8029999999999,
      "v": 110
    },
    {
      "midi": 63,
      "hit": false,
      "t": 34508.17716666667,
      "d": 245.90149999999994,
      "v": 110
    },
    {
      "midi": 55,
      "hit": false,
      "t": 34508.17716666667,
      "d": 245.90149999999994,
      "v": 110
    },
    {
      "midi": 58,
      "hit": false,
      "t": 34508.17716666667,
      "d": 245.90149999999994,
      "v": 110
    },
    {
      "midi": 34,
      "hit": false,
      "t": 34508.17716666667,
      "d": 450.81941666666535,
      "v": 115
    },
    {
      "midi": 77,
      "hit": false,
      "t": 34508.17716666667,
      "d": 450.81941666666535,
      "v": 110
    },
    {
      "midi": 63,
      "hit": false,
      "t": 34999.98016666666,
      "d": 1004.097791666667,
      "v": 90
    },
    {
      "midi": 67,
      "hit": false,
      "t": 34999.98016666666,
      "d": 1004.097791666667,
      "v": 90
    },
    {
      "midi": 70,
      "hit": false,
      "t": 34999.98016666666,
      "d": 1004.097791666667,
      "v": 90
    },
    {
      "midi": 36,
      "hit": false,
      "t": 34999.98016666666,
      "d": 20.491791666667268,
      "v": 120
    },
    {
      "midi": 63,
      "hit": false,
      "t": 34999.98016666666,
      "d": 20.491791666667268,
      "v": 106
    },
    {
      "midi": 49,
      "hit": false,
      "t": 34999.98016666666,
      "d": 20.491791666667268,
      "v": 64
    },
    {
      "midi": 75,
      "hit": false,
      "t": 34999.98016666667,
      "d": 1967.2119999999995,
      "v": 117
    },
    {
      "midi": 63,
      "hit": false,
      "t": 34999.98016666667,
      "d": 2950.8179999999993,
      "v": 110
    },
    {
      "midi": 75,
      "hit": false,
      "t": 34999.98016666667,
      "d": 2950.8179999999993,
      "v": 110
    },
    {
      "midi": 75,
      "hit": false,
      "t": 34999.98016666667,
      "d": 737.7044999999998,
      "v": 90
    },
    {
      "midi": 63,
      "hit": false,
      "t": 34999.98016666667,
      "d": 2930.326208333332,
      "v": 110
    },
    {
      "midi": 55,
      "hit": false,
      "t": 34999.98016666667,
      "d": 2930.326208333332,
      "v": 110
    },
    {
      "midi": 58,
      "hit": false,
      "t": 34999.98016666667,
      "d": 2930.326208333332,
      "v": 110
    },
    {
      "midi": 27,
      "hit": false,
      "t": 34999.98016666667,
      "d": 2766.391875000001,
      "v": 105
    },
    {
      "midi": 75,
      "hit": false,
      "t": 34999.98016666667,
      "d": 1967.2119999999995,
      "v": 100
    },
    {
      "midi": 74,
      "hit": false,
      "t": 35737.68466666667,
      "d": 40.983583333334536,
      "v": 79
    },
    {
      "midi": 72,
      "hit": false,
      "t": 35778.66825,
      "d": 40.983583333334536,
      "v": 78
    },
    {
      "midi": 70,
      "hit": false,
      "t": 35819.65183333334,
      "d": 40.983583333334536,
      "v": 77
    },
    {
      "midi": 68,
      "hit": false,
      "t": 35860.63541666667,
      "d": 40.983583333334536,
      "v": 76
    },
    {
      "midi": 67,
      "hit": false,
      "t": 35901.619000000006,
      "d": 40.983583333334536,
      "v": 75
    },
    {
      "midi": 65,
      "hit": false,
      "t": 35942.60258333334,
      "d": 40.983583333334536,
      "v": 74
    },
    {
      "midi": 42,
      "hit": false,
      "t": 35983.58616666666,
      "d": 20.491791666667268,
      "v": 120
    },
    {
      "midi": 63,
      "hit": false,
      "t": 35983.586166666675,
      "d": 40.983583333334536,
      "v": 73
    },
    {
      "midi": 42,
      "hit": false,
      "t": 36967.19216666666,
      "d": 20.491791666667268,
      "v": 120
    },
    {
      "midi": 36,
      "hit": false,
      "t": 37458.99516666666,
      "d": 20.491791666667268,
      "v": 120
    },
    {
      "midi": 36,
      "hit": false,
      "t": 37950.79816666666,
      "d": 20.491791666667268,
      "v": 120
    },
    {
      "midi": 72,
      "hit": false,
      "t": 37950.79816666667,
      "d": 450.81941666666535,
      "v": 127
    },
    {
      "midi": 57,
      "hit": false,
      "t": 37950.79816666667,
      "d": 491.8029999999999,
      "v": 110
    },
    {
      "midi": 60,
      "hit": false,
      "t": 37950.79816666667,
      "d": 491.8029999999999,
      "v": 110
    },
    {
      "midi": 65,
      "hit": false,
      "t": 37950.79816666667,
      "d": 491.8029999999999,
      "v": 110
    },
    {
      "midi": 33,
      "hit": false,
      "t": 37950.79816666667,
      "d": 450.81941666666535,
      "v": 115
    },
    {
      "midi": 72,
      "hit": false,
      "t": 37950.79816666667,
      "d": 491.8029999999999,
      "v": 100
    },
    {
      "midi": 72,
      "hit": false,
      "t": 37950.79816666667,
      "d": 491.8029999999999,
      "v": 70
    },
    {
      "midi": 72,
      "hit": false,
      "t": 37950.79816666667,
      "d": 450.81941666666535,
      "v": 110
    },
    {
      "midi": 40,
      "hit": false,
      "t": 38442.60116666666,
      "d": 20.491791666667268,
      "v": 120
    },
    {
      "midi": 74,
      "hit": false,
      "t": 38442.60116666667,
      "d": 450.81941666666535,
      "v": 127
    },
    {
      "midi": 57,
      "hit": false,
      "t": 38442.60116666667,
      "d": 491.8029999999999,
      "v": 110
    },
    {
      "midi": 60,
      "hit": false,
      "t": 38442.60116666667,
      "d": 491.8029999999999,
      "v": 110
    },
    {
      "midi": 65,
      "hit": false,
      "t": 38442.60116666667,
      "d": 491.8029999999999,
      "v": 110
    },
    {
      "midi": 33,
      "hit": false,
      "t": 38442.60116666667,
      "d": 450.81941666666535,
      "v": 115
    },
    {
      "midi": 74,
      "hit": false,
      "t": 38442.60116666667,
      "d": 491.8029999999999,
      "v": 100
    },
    {
      "midi": 74,
      "hit": false,
      "t": 38442.60116666667,
      "d": 491.8029999999999,
      "v": 70
    },
    {
      "midi": 74,
      "hit": false,
      "t": 38442.60116666667,
      "d": 450.81941666666535,
      "v": 110
    },
    {
      "midi": 36,
      "hit": false,
      "t": 38934.40416666666,
      "d": 20.491791666667268,
      "v": 120
    },
    {
      "midi": 46,
      "hit": false,
      "t": 38934.40416666666,
      "d": 20.491791666667268,
      "v": 120
    },
    {
      "midi": 75,
      "hit": false,
      "t": 38934.40416666667,
      "d": 1618.8515416666633,
      "v": 117
    },
    {
      "midi": 56,
      "hit": false,
      "t": 38934.40416666667,
      "d": 2950.8179999999993,
      "v": 110
    },
    {
      "midi": 60,
      "hit": false,
      "t": 38934.40416666667,
      "d": 2950.8179999999993,
      "v": 110
    },
    {
      "midi": 63,
      "hit": false,
      "t": 38934.40416666667,
      "d": 2950.8179999999993,
      "v": 110
    },
    {
      "midi": 32,
      "hit": false,
      "t": 38934.40416666667,
      "d": 1393.4418333333306,
      "v": 105
    },
    {
      "midi": 75,
      "hit": false,
      "t": 38934.40416666667,
      "d": 491.8029999999999,
      "v": 100
    },
    {
      "midi": 75,
      "hit": false,
      "t": 38934.40416666667,
      "d": 491.8029999999999,
      "v": 70
    },
    {
      "midi": 75,
      "hit": false,
      "t": 38934.40416666667,
      "d": 1618.8515416666633,
      "v": 100
    },
    {
      "midi": 42,
      "hit": false,
      "t": 39426.20716666666,
      "d": 20.491791666667268,
      "v": 120
    },
    {
      "midi": 49,
      "hit": false,
      "t": 39426.20716666666,
      "d": 20.491791666667268,
      "v": 64
    },
    {
      "midi": 36,
      "hit": false,
      "t": 39426.20716666666,
      "d": 20.491791666667268,
      "v": 92
    },
    {
      "midi": 42,
      "hit": false,
      "t": 39918.01016666666,
      "d": 20.491791666667268,
      "v": 120
    },
    {
      "midi": 42,
      "hit": false,
      "t": 40409.81316666666,
      "d": 20.491791666667268,
      "v": 120
    },
    {
      "midi": 40,
      "hit": false,
      "t": 40409.81316666666,
      "d": 20.491791666667268,
      "v": 120
    },
    {
      "midi": 32,
      "hit": false,
      "t": 40409.81316666667,
      "d": 676.229124999998,
      "v": 115
    },
    {
      "midi": 63,
      "hit": false,
      "t": 40409.813166666674,
      "d": 491.8029999999999,
      "v": 95
    },
    {
      "midi": 67,
      "hit": false,
      "t": 40409.813166666674,
      "d": 491.8029999999999,
      "v": 95
    },
    {
      "midi": 42,
      "hit": false,
      "t": 40901.61616666666,
      "d": 20.491791666667268,
      "v": 120
    },
    {
      "midi": 75,
      "hit": false,
      "t": 40901.61616666667,
      "d": 450.81941666666535,
      "v": 127
    },
    {
      "midi": 75,
      "hit": false,
      "t": 40901.61616666667,
      "d": 450.81941666666535,
      "v": 110
    },
    {
      "midi": 36,
      "hit": false,
      "t": 41147.51766666666,
      "d": 20.491791666667268,
      "v": 92
    },
    {
      "midi": 27,
      "hit": false,
      "t": 41147.51766666667,
      "d": 225.40970833333267,
      "v": 115
    },
    {
      "midi": 42,
      "hit": false,
      "t": 41393.41916666666,
      "d": 20.491791666667268,
      "v": 120
    },
    {
      "midi": 36,
      "hit": false,
      "t": 41393.41916666666,
      "d": 20.491791666667268,
      "v": 120
    },
    {
      "midi": 75,
      "hit": false,
      "t": 41393.41916666667,
      "d": 450.81941666666535,
      "v": 127
    },
    {
      "midi": 31,
      "hit": false,
      "t": 41393.41916666667,
      "d": 450.81941666666535,
      "v": 115
    },
    {
      "midi": 75,
      "hit": false,
      "t": 41393.41916666667,
      "d": 450.81941666666535,
      "v": 110
    },
    {
      "midi": 42,
      "hit": false,
      "t": 41885.22216666666,
      "d": 20.491791666667268,
      "v": 120
    },
    {
      "midi": 36,
      "hit": false,
      "t": 41885.22216666666,
      "d": 20.491791666667268,
      "v": 92
    },
    {
      "midi": 72,
      "hit": false,
      "t": 41885.22216666667,
      "d": 450.81941666666535,
      "v": 127
    },
    {
      "midi": 56,
      "hit": false,
      "t": 41885.22216666667,
      "d": 1475.4089999999997,
      "v": 110
    },
    {
      "midi": 60,
      "hit": false,
      "t": 41885.22216666667,
      "d": 1475.4089999999997,
      "v": 110
    },
    {
      "midi": 63,
      "hit": false,
      "t": 41885.22216666667,
      "d": 1475.4089999999997,
      "v": 110
    },
    {
      "midi": 32,
      "hit": false,
      "t": 41885.22216666667,
      "d": 450.81941666666535,
      "v": 115
    },
    {
      "midi": 72,
      "hit": false,
      "t": 41885.22216666667,
      "d": 450.81941666666535,
      "v": 110
    },
    {
      "midi": 63,
      "hit": false,
      "t": 41885.222166666674,
      "d": 491.8029999999999,
      "v": 95
    },
    {
      "midi": 67,
      "hit": false,
      "t": 41885.222166666674,
      "d": 491.8029999999999,
      "v": 95
    },
    {
      "midi": 42,
      "hit": false,
      "t": 42377.02516666666,
      "d": 20.491791666667268,
      "v": 120
    },
    {
      "midi": 40,
      "hit": false,
      "t": 42377.02516666666,
      "d": 20.491791666667268,
      "v": 120
    },
    {
      "midi": 74,
      "hit": false,
      "t": 42377.025166666666,
      "d": 450.81941666666535,
      "v": 127
    },
    {
      "midi": 74,
      "hit": false,
      "t": 42377.025166666666,
      "d": 450.81941666666535,
      "v": 110
    },
    {
      "midi": 42,
      "hit": false,
      "t": 42868.82816666666,
      "d": 20.491791666667268,
      "v": 120
    },
    {
      "midi": 36,
      "hit": false,
      "t": 42868.82816666666,
      "d": 20.491791666667268,
      "v": 92
    },
    {
      "midi": 75,
      "hit": false,
      "t": 42868.828166666666,
      "d": 942.6224166666652,
      "v": 117
    },
    {
      "midi": 32,
      "hit": false,
      "t": 42868.828166666666,
      "d": 1393.4418333333306,
      "v": 105
    },
    {
      "midi": 75,
      "hit": false,
      "t": 42868.828166666666,
      "d": 942.6224166666652,
      "v": 100
    },
    {
      "midi": 42,
      "hit": false,
      "t": 43360.63116666666,
      "d": 20.491791666667268,
      "v": 120
    },
    {
      "midi": 36,
      "hit": false,
      "t": 43360.63116666666,
      "d": 20.491791666667268,
      "v": 92
    },
    {
      "midi": 56,
      "hit": false,
      "t": 43360.631166666666,
      "d": 2459.0149999999994,
      "v": 110
    },
    {
      "midi": 60,
      "hit": false,
      "t": 43360.631166666666,
      "d": 2459.0149999999994,
      "v": 110
    },
    {
      "midi": 63,
      "hit": false,
      "t": 43360.631166666666,
      "d": 2459.0149999999994,
      "v": 110
    },
    {
      "midi": 42,
      "hit": false,
      "t": 43852.43416666666,
      "d": 20.491791666667268,
      "v": 120
    },
    {
      "midi": 77,
      "hit": false,
      "t": 43852.434166666666,
      "d": 450.81941666666535,
      "v": 127
    },
    {
      "midi": 77,
      "hit": false,
      "t": 43852.434166666666,
      "d": 450.81941666666535,
      "v": 110
    },
    {
      "midi": 58,
      "hit": false,
      "t": 43852.43416666667,
      "d": 491.8029999999999,
      "v": 90
    },
    {
      "midi": 42,
      "hit": false,
      "t": 44344.23716666666,
      "d": 20.491791666667268,
      "v": 120
    },
    {
      "midi": 40,
      "hit": false,
      "t": 44344.23716666666,
      "d": 20.491791666667268,
      "v": 120
    },
    {
      "midi": 79,
      "hit": false,
      "t": 44344.237166666666,
      "d": 450.81941666666535,
      "v": 127
    },
    {
      "midi": 32,
      "hit": false,
      "t": 44344.237166666666,
      "d": 676.229124999998,
      "v": 115
    },
    {
      "midi": 79,
      "hit": false,
      "t": 44344.237166666666,
      "d": 450.81941666666535,
      "v": 110
    },
    {
      "midi": 60,
      "hit": false,
      "t": 44344.23716666667,
      "d": 491.8029999999999,
      "v": 90
    },
    {
      "midi": 42,
      "hit": false,
      "t": 44836.04016666666,
      "d": 20.491791666667268,
      "v": 120
    },
    {
      "midi": 77,
      "hit": false,
      "t": 44836.040166666666,
      "d": 676.229124999998,
      "v": 127
    },
    {
      "midi": 77,
      "hit": false,
      "t": 44836.040166666666,
      "d": 676.229124999998,
      "v": 110
    },
    {
      "midi": 63,
      "hit": false,
      "t": 44836.04016666667,
      "d": 491.8029999999999,
      "v": 95
    },
    {
      "midi": 67,
      "hit": false,
      "t": 44836.04016666667,
      "d": 491.8029999999999,
      "v": 95
    },
    {
      "midi": 36,
      "hit": false,
      "t": 45081.94166666666,
      "d": 20.491791666667268,
      "v": 92
    },
    {
      "midi": 27,
      "hit": false,
      "t": 45081.941666666666,
      "d": 225.40970833333267,
      "v": 115
    },
    {
      "midi": 42,
      "hit": false,
      "t": 45327.84316666666,
      "d": 20.491791666667268,
      "v": 120
    },
    {
      "midi": 36,
      "hit": false,
      "t": 45327.84316666666,
      "d": 20.491791666667268,
      "v": 120
    },
    {
      "midi": 32,
      "hit": false,
      "t": 45327.843166666666,
      "d": 225.40970833333267,
      "v": 115
    },
    {
      "midi": 36,
      "hit": false,
      "t": 45573.74466666666,
      "d": 20.491791666667268,
      "v": 92
    },
    {
      "midi": 34,
      "hit": false,
      "t": 45573.744666666666,
      "d": 225.40970833333267,
      "v": 115
    },
    {
      "midi": 42,
      "hit": false,
      "t": 45819.64616666666,
      "d": 20.491791666667268,
      "v": 120
    },
    {
      "midi": 36,
      "hit": false,
      "t": 45819.64616666666,
      "d": 20.491791666667268,
      "v": 120
    },
    {
      "midi": 70,
      "hit": false,
      "t": 45819.646166666666,
      "d": 450.81941666666535,
      "v": 127
    },
    {
      "midi": 56,
      "hit": false,
      "t": 45819.646166666666,
      "d": 1475.4089999999997,
      "v": 110
    },
    {
      "midi": 60,
      "hit": false,
      "t": 45819.646166666666,
      "d": 1475.4089999999997,
      "v": 110
    },
    {
      "midi": 63,
      "hit": false,
      "t": 45819.646166666666,
      "d": 1475.4089999999997,
      "v": 110
    },
    {
      "midi": 32,
      "hit": false,
      "t": 45819.646166666666,
      "d": 676.229124999998,
      "v": 115
    },
    {
      "midi": 70,
      "hit": false,
      "t": 45819.646166666666,
      "d": 450.81941666666535,
      "v": 110
    },
    {
      "midi": 42,
      "hit": false,
      "t": 46311.44916666666,
      "d": 20.491791666667268,
      "v": 120
    },
    {
      "midi": 40,
      "hit": false,
      "t": 46311.44916666666,
      "d": 20.491791666667268,
      "v": 120
    },
    {
      "midi": 72,
      "hit": false,
      "t": 46311.449166666665,
      "d": 450.81941666666535,
      "v": 127
    },
    {
      "midi": 72,
      "hit": false,
      "t": 46311.449166666665,
      "d": 450.81941666666535,
      "v": 110
    },
    {
      "midi": 63,
      "hit": false,
      "t": 46311.44916666667,
      "d": 491.8029999999999,
      "v": 95
    },
    {
      "midi": 67,
      "hit": false,
      "t": 46311.44916666667,
      "d": 491.8029999999999,
      "v": 95
    },
    {
      "midi": 42,
      "hit": false,
      "t": 46803.25216666666,
      "d": 20.491791666667268,
      "v": 120
    },
    {
      "midi": 36,
      "hit": false,
      "t": 46803.25216666666,
      "d": 20.491791666667268,
      "v": 120
    },
    {
      "midi": 74,
      "hit": false,
      "t": 46803.252166666665,
      "d": 1618.8515416666633,
      "v": 117
    },
    {
      "midi": 29,
      "hit": false,
      "t": 46803.252166666665,
      "d": 450.81941666666535,
      "v": 115
    },
    {
      "midi": 74,
      "hit": false,
      "t": 46803.252166666665,
      "d": 1618.8515416666633,
      "v": 100
    },
    {
      "midi": 42,
      "hit": false,
      "t": 47295.05516666666,
      "d": 20.491791666667268,
      "v": 120
    },
    {
      "midi": 36,
      "hit": false,
      "t": 47295.05516666666,
      "d": 20.491791666667268,
      "v": 92
    },
    {
      "midi": 58,
      "hit": false,
      "t": 47295.055166666665,
      "d": 2459.0149999999994,
      "v": 110
    },
    {
      "midi": 62,
      "hit": false,
      "t": 47295.055166666665,
      "d": 2459.0149999999994,
      "v": 110
    },
    {
      "midi": 65,
      "hit": false,
      "t": 47295.055166666665,
      "d": 2459.0149999999994,
      "v": 110
    },
    {
      "midi": 31,
      "hit": false,
      "t": 47295.055166666665,
      "d": 901.6388333333307,
      "v": 105
    },
    {
      "midi": 62,
      "hit": false,
      "t": 47295.05516666667,
      "d": 40.983583333334536,
      "v": 80
    },
    {
      "midi": 42,
      "hit": false,
      "t": 47786.85816666666,
      "d": 20.491791666667268,
      "v": 120
    },
    {
      "midi": 62,
      "hit": false,
      "t": 47786.85816666667,
      "d": 40.983583333334536,
      "v": 80
    },
    {
      "midi": 42,
      "hit": false,
      "t": 48278.66116666666,
      "d": 20.491791666667268,
      "v": 120
    },
    {
      "midi": 40,
      "hit": false,
      "t": 48278.66116666666,
      "d": 20.491791666667268,
      "v": 120
    },
    {
      "midi": 31,
      "hit": false,
      "t": 48278.661166666665,
      "d": 676.229124999998,
      "v": 115
    },
    {
      "midi": 62,
      "hit": false,
      "t": 48278.66116666667,
      "d": 491.8029999999999,
      "v": 95
    },
    {
      "midi": 65,
      "hit": false,
      "t": 48278.66116666667,
      "d": 491.8029999999999,
      "v": 95
    },
    {
      "midi": 42,
      "hit": false,
      "t": 48770.46416666666,
      "d": 20.491791666667268,
      "v": 120
    },
    {
      "midi": 74,
      "hit": false,
      "t": 48770.464166666665,
      "d": 450.81941666666535,
      "v": 127
    },
    {
      "midi": 74,
      "hit": false,
      "t": 48770.464166666665,
      "d": 450.81941666666535,
      "v": 110
    },
    {
      "midi": 36,
      "hit": false,
      "t": 49016.36566666666,
      "d": 20.491791666667268,
      "v": 92
    },
    {
      "midi": 26,
      "hit": false,
      "t": 49016.365666666665,
      "d": 225.40970833333267,
      "v": 115
    },
    {
      "midi": 42,
      "hit": false,
      "t": 49262.26716666666,
      "d": 20.491791666667268,
      "v": 120
    },
    {
      "midi": 36,
      "hit": false,
      "t": 49262.26716666666,
      "d": 20.491791666667268,
      "v": 120
    },
    {
      "midi": 74,
      "hit": false,
      "t": 49262.267166666665,
      "d": 450.81941666666535,
      "v": 127
    },
    {
      "midi": 30,
      "hit": false,
      "t": 49262.267166666665,
      "d": 450.81941666666535,
      "v": 115
    },
    {
      "midi": 74,
      "hit": false,
      "t": 49262.267166666665,
      "d": 450.81941666666535,
      "v": 110
    },
    {
      "midi": 42,
      "hit": false,
      "t": 49754.07016666666,
      "d": 20.491791666667268,
      "v": 120
    },
    {
      "midi": 36,
      "hit": false,
      "t": 49754.07016666666,
      "d": 20.491791666667268,
      "v": 92
    },
    {
      "midi": 70,
      "hit": false,
      "t": 49754.070166666665,
      "d": 450.81941666666535,
      "v": 127
    },
    {
      "midi": 58,
      "hit": false,
      "t": 49754.070166666665,
      "d": 1475.4089999999997,
      "v": 110
    },
    {
      "midi": 62,
      "hit": false,
      "t": 49754.070166666665,
      "d": 1475.4089999999997,
      "v": 110
    },
    {
      "midi": 65,
      "hit": false,
      "t": 49754.070166666665,
      "d": 1475.4089999999997,
      "v": 110
    },
    {
      "midi": 31,
      "hit": false,
      "t": 49754.070166666665,
      "d": 450.81941666666535,
      "v": 115
    },
    {
      "midi": 70,
      "hit": false,
      "t": 49754.070166666665,
      "d": 450.81941666666535,
      "v": 110
    },
    {
      "midi": 62,
      "hit": false,
      "t": 49754.07016666667,
      "d": 491.8029999999999,
      "v": 95
    },
    {
      "midi": 65,
      "hit": false,
      "t": 49754.07016666667,
      "d": 491.8029999999999,
      "v": 95
    },
    {
      "midi": 42,
      "hit": false,
      "t": 50245.87316666666,
      "d": 20.491791666667268,
      "v": 120
    },
    {
      "midi": 40,
      "hit": false,
      "t": 50245.87316666666,
      "d": 20.491791666667268,
      "v": 120
    },
    {
      "midi": 72,
      "hit": false,
      "t": 50245.873166666664,
      "d": 450.81941666666535,
      "v": 127
    },
    {
      "midi": 72,
      "hit": false,
      "t": 50245.873166666664,
      "d": 450.81941666666535,
      "v": 110
    },
    {
      "midi": 42,
      "hit": false,
      "t": 50737.67616666666,
      "d": 20.491791666667268,
      "v": 120
    },
    {
      "midi": 36,
      "hit": false,
      "t": 50737.67616666666,
      "d": 20.491791666667268,
      "v": 92
    },
    {
      "midi": 74,
      "hit": false,
      "t": 50737.676166666664,
      "d": 942.6224166666652,
      "v": 117
    },
    {
      "midi": 34,
      "hit": false,
      "t": 50737.676166666664,
      "d": 450.81941666666535,
      "v": 115
    },
    {
      "midi": 74,
      "hit": false,
      "t": 50737.676166666664,
      "d": 942.6224166666652,
      "v": 100
    },
    {
      "midi": 62,
      "hit": false,
      "t": 50737.67616666667,
      "d": 40.983583333334536,
      "v": 80
    },
    {
      "midi": 42,
      "hit": false,
      "t": 51229.47916666666,
      "d": 20.491791666667268,
      "v": 120
    },
    {
      "midi": 36,
      "hit": false,
      "t": 51229.47916666666,
      "d": 20.491791666667268,
      "v": 92
    },
    {
      "midi": 58,
      "hit": false,
      "t": 51229.479166666664,
      "d": 1475.4089999999997,
      "v": 110
    },
    {
      "midi": 62,
      "hit": false,
      "t": 51229.479166666664,
      "d": 1475.4089999999997,
      "v": 110
    },
    {
      "midi": 65,
      "hit": false,
      "t": 51229.479166666664,
      "d": 1475.4089999999997,
      "v": 110
    },
    {
      "midi": 36,
      "hit": false,
      "t": 51229.479166666664,
      "d": 368.85225000000355,
      "v": 105
    },
    {
      "midi": 62,
      "hit": false,
      "t": 51229.47916666667,
      "d": 491.8029999999999,
      "v": 95
    },
    {
      "midi": 65,
      "hit": false,
      "t": 51229.47916666667,
      "d": 491.8029999999999,
      "v": 95
    },
    {
      "midi": 42,
      "hit": false,
      "t": 51721.28216666666,
      "d": 20.491791666667268,
      "v": 120
    },
    {
      "midi": 75,
      "hit": false,
      "t": 51721.282166666664,
      "d": 450.81941666666535,
      "v": 127
    },
    {
      "midi": 75,
      "hit": false,
      "t": 51721.282166666664,
      "d": 450.81941666666535,
      "v": 110
    },
    {
      "midi": 34,
      "hit": false,
      "t": 51721.28216666667,
      "d": 450.81941666666535,
      "v": 115
    },
    {
      "midi": 42,
      "hit": false,
      "t": 52213.08516666666,
      "d": 20.491791666667268,
      "v": 120
    },
    {
      "midi": 40,
      "hit": false,
      "t": 52213.08516666666,
      "d": 20.491791666667268,
      "v": 120
    },
    {
      "midi": 74,
      "hit": false,
      "t": 52213.085166666664,
      "d": 450.81941666666535,
      "v": 127
    },
    {
      "midi": 74,
      "hit": false,
      "t": 52213.085166666664,
      "d": 450.81941666666535,
      "v": 110
    },
    {
      "midi": 31,
      "hit": false,
      "t": 52213.08516666667,
      "d": 450.81941666666535,
      "v": 115
    },
    {
      "midi": 42,
      "hit": false,
      "t": 52704.88816666666,
      "d": 20.491791666667268,
      "v": 120
    },
    {
      "midi": 72,
      "hit": false,
      "t": 52704.888166666664,
      "d": 676.229124999998,
      "v": 127
    },
    {
      "midi": 60,
      "hit": false,
      "t": 52704.888166666664,
      "d": 2459.0149999999994,
      "v": 110
    },
    {
      "midi": 63,
      "hit": false,
      "t": 52704.888166666664,
      "d": 2459.0149999999994,
      "v": 110
    },
    {
      "midi": 67,
      "hit": false,
      "t": 52704.888166666664,
      "d": 2459.0149999999994,
      "v": 110
    },
    {
      "midi": 72,
      "hit": false,
      "t": 52704.888166666664,
      "d": 676.229124999998,
      "v": 110
    },
    {
      "midi": 63,
      "hit": false,
      "t": 52704.88816666667,
      "d": 491.8029999999999,
      "v": 95
    },
    {
      "midi": 67,
      "hit": false,
      "t": 52704.88816666667,
      "d": 491.8029999999999,
      "v": 95
    },
    {
      "midi": 24,
      "hit": false,
      "t": 52704.88816666667,
      "d": 676.229124999998,
      "v": 115
    },
    {
      "midi": 36,
      "hit": false,
      "t": 52950.78966666666,
      "d": 20.491791666667268,
      "v": 92
    },
    {
      "midi": 42,
      "hit": false,
      "t": 53196.69116666666,
      "d": 20.491791666667268,
      "v": 120
    },
    {
      "midi": 36,
      "hit": false,
      "t": 53196.69116666666,
      "d": 20.491791666667268,
      "v": 120
    },
    {
      "midi": 36,
      "hit": false,
      "t": 53442.59266666666,
      "d": 20.491791666667268,
      "v": 92
    },
    {
      "midi": 36,
      "hit": false,
      "t": 53688.49416666666,
      "d": 20.491791666667268,
      "v": 120
    },
    {
      "midi": 46,
      "hit": false,
      "t": 53688.49416666666,
      "d": 20.491791666667268,
      "v": 120
    },
    {
      "midi": 72,
      "hit": false,
      "t": 53688.494166666664,
      "d": 450.81941666666535,
      "v": 127
    },
    {
      "midi": 72,
      "hit": false,
      "t": 53688.494166666664,
      "d": 450.81941666666535,
      "v": 110
    },
    {
      "midi": 24,
      "hit": false,
      "t": 53688.49416666667,
      "d": 676.229124999998,
      "v": 115
    },
    {
      "midi": 42,
      "hit": false,
      "t": 54180.297166666656,
      "d": 20.491791666667268,
      "v": 120
    },
    {
      "midi": 40,
      "hit": false,
      "t": 54180.297166666656,
      "d": 20.491791666667268,
      "v": 120
    },
    {
      "midi": 74,
      "hit": false,
      "t": 54180.29716666666,
      "d": 450.81941666666535,
      "v": 127
    },
    {
      "midi": 74,
      "hit": false,
      "t": 54180.29716666666,
      "d": 450.81941666666535,
      "v": 110
    },
    {
      "midi": 63,
      "hit": false,
      "t": 54180.29716666667,
      "d": 491.8029999999999,
      "v": 95
    },
    {
      "midi": 67,
      "hit": false,
      "t": 54180.29716666667,
      "d": 491.8029999999999,
      "v": 95
    },
    {
      "midi": 42,
      "hit": false,
      "t": 54672.100166666656,
      "d": 20.491791666667268,
      "v": 120
    },
    {
      "midi": 36,
      "hit": false,
      "t": 54672.100166666656,
      "d": 20.491791666667268,
      "v": 120
    },
    {
      "midi": 75,
      "hit": false,
      "t": 54672.10016666666,
      "d": 1844.2612500000032,
      "v": 117
    },
    {
      "midi": 75,
      "hit": false,
      "t": 54672.10016666666,
      "d": 1844.2612500000032,
      "v": 100
    },
    {
      "midi": 24,
      "hit": false,
      "t": 54672.10016666667,
      "d": 450.81941666666535,
      "v": 115
    },
    {
      "midi": 42,
      "hit": false,
      "t": 55163.903166666656,
      "d": 20.491791666667268,
      "v": 120
    },
    {
      "midi": 36,
      "hit": false,
      "t": 55163.903166666656,
      "d": 20.491791666667268,
      "v": 92
    },
    {
      "midi": 56,
      "hit": false,
      "t": 55163.90316666666,
      "d": 2459.0149999999994,
      "v": 110
    },
    {
      "midi": 60,
      "hit": false,
      "t": 55163.90316666666,
      "d": 2459.0149999999994,
      "v": 110
    },
    {
      "midi": 63,
      "hit": false,
      "t": 55163.90316666666,
      "d": 2459.0149999999994,
      "v": 110
    },
    {
      "midi": 63,
      "hit": false,
      "t": 55163.90316666667,
      "d": 40.983583333334536,
      "v": 80
    },
    {
      "midi": 29,
      "hit": false,
      "t": 55163.90316666667,
      "d": 901.6388333333307,
      "v": 105
    },
    {
      "midi": 42,
      "hit": false,
      "t": 55655.706166666656,
      "d": 20.491791666667268,
      "v": 120
    },
    {
      "midi": 63,
      "hit": false,
      "t": 55655.70616666667,
      "d": 40.983583333334536,
      "v": 80
    },
    {
      "midi": 42,
      "hit": false,
      "t": 56147.509166666656,
      "d": 20.491791666667268,
      "v": 120
    },
    {
      "midi": 40,
      "hit": false,
      "t": 56147.509166666656,
      "d": 20.491791666667268,
      "v": 120
    },
    {
      "midi": 63,
      "hit": false,
      "t": 56147.50916666667,
      "d": 491.8029999999999,
      "v": 95
    },
    {
      "midi": 67,
      "hit": false,
      "t": 56147.50916666667,
      "d": 491.8029999999999,
      "v": 95
    },
    {
      "midi": 29,
      "hit": false,
      "t": 56147.50916666667,
      "d": 676.229124999998,
      "v": 115
    },
    {
      "midi": 42,
      "hit": false,
      "t": 56639.312166666656,
      "d": 20.491791666667268,
      "v": 120
    },
    {
      "midi": 75,
      "hit": false,
      "t": 56639.31216666667,
      "d": 450.81941666666535,
      "v": 127
    },
    {
      "midi": 75,
      "hit": false,
      "t": 56639.31216666667,
      "d": 450.81941666666535,
      "v": 110
    },
    {
      "midi": 36,
      "hit": false,
      "t": 56885.213666666656,
      "d": 20.491791666667268,
      "v": 92
    },
    {
      "midi": 24,
      "hit": false,
      "t": 56885.21366666667,
      "d": 225.40970833333267,
      "v": 115
    },
    {
      "midi": 42,
      "hit": false,
      "t": 57131.115166666656,
      "d": 20.491791666667268,
      "v": 120
    },
    {
      "midi": 36,
      "hit": false,
      "t": 57131.115166666656,
      "d": 20.491791666667268,
      "v": 120
    },
    {
      "midi": 75,
      "hit": false,
      "t": 57131.11516666667,
      "d": 450.81941666666535,
      "v": 127
    },
    {
      "midi": 27,
      "hit": false,
      "t": 57131.11516666667,
      "d": 450.81941666666535,
      "v": 115
    },
    {
      "midi": 75,
      "hit": false,
      "t": 57131.11516666667,
      "d": 450.81941666666535,
      "v": 110
    },
    {
      "midi": 42,
      "hit": false,
      "t": 57622.918166666655,
      "d": 20.491791666667268,
      "v": 120
    },
    {
      "midi": 36,
      "hit": false,
      "t": 57622.918166666655,
      "d": 20.491791666667268,
      "v": 92
    },
    {
      "midi": 56,
      "hit": false,
      "t": 57622.91816666666,
      "d": 1475.4089999999997,
      "v": 110
    },
    {
      "midi": 60,
      "hit": false,
      "t": 57622.91816666666,
      "d": 1475.4089999999997,
      "v": 110
    },
    {
      "midi": 63,
      "hit": false,
      "t": 57622.91816666666,
      "d": 1475.4089999999997,
      "v": 110
    },
    {
      "midi": 72,
      "hit": false,
      "t": 57622.91816666667,
      "d": 450.81941666666535,
      "v": 127
    },
    {
      "midi": 63,
      "hit": false,
      "t": 57622.91816666667,
      "d": 491.8029999999999,
      "v": 95
    },
    {
      "midi": 67,
      "hit": false,
      "t": 57622.91816666667,
      "d": 491.8029999999999,
      "v": 95
    },
    {
      "midi": 29,
      "hit": false,
      "t": 57622.91816666667,
      "d": 450.81941666666535,
      "v": 115
    },
    {
      "midi": 72,
      "hit": false,
      "t": 57622.91816666667,
      "d": 450.81941666666535,
      "v": 110
    },
    {
      "midi": 42,
      "hit": false,
      "t": 58114.721166666655,
      "d": 20.491791666667268,
      "v": 120
    },
    {
      "midi": 40,
      "hit": false,
      "t": 58114.721166666655,
      "d": 20.491791666667268,
      "v": 120
    },
    {
      "midi": 74,
      "hit": false,
      "t": 58114.72116666667,
      "d": 450.81941666666535,
      "v": 127
    },
    {
      "midi": 74,
      "hit": false,
      "t": 58114.72116666667,
      "d": 450.81941666666535,
      "v": 110
    },
    {
      "midi": 42,
      "hit": false,
      "t": 58606.524166666655,
      "d": 20.491791666667268,
      "v": 120
    },
    {
      "midi": 36,
      "hit": false,
      "t": 58606.524166666655,
      "d": 20.491791666667268,
      "v": 92
    },
    {
      "midi": 75,
      "hit": false,
      "t": 58606.52416666667,
      "d": 942.6224166666652,
      "v": 117
    },
    {
      "midi": 63,
      "hit": false,
      "t": 58606.52416666667,
      "d": 40.983583333334536,
      "v": 80
    },
    {
      "midi": 34,
      "hit": false,
      "t": 58606.52416666667,
      "d": 1393.4418333333306,
      "v": 105
    },
    {
      "midi": 75,
      "hit": false,
      "t": 58606.52416666667,
      "d": 942.6224166666652,
      "v": 100
    },
    {
      "midi": 42,
      "hit": false,
      "t": 59098.327166666655,
      "d": 20.491791666667268,
      "v": 120
    },
    {
      "midi": 36,
      "hit": false,
      "t": 59098.327166666655,
      "d": 20.491791666667268,
      "v": 92
    },
    {
      "midi": 56,
      "hit": false,
      "t": 59098.32716666666,
      "d": 1475.4089999999997,
      "v": 110
    },
    {
      "midi": 60,
      "hit": false,
      "t": 59098.32716666666,
      "d": 1475.4089999999997,
      "v": 110
    },
    {
      "midi": 63,
      "hit": false,
      "t": 59098.32716666666,
      "d": 1475.4089999999997,
      "v": 110
    },
    {
      "midi": 65,
      "hit": false,
      "t": 59098.32716666667,
      "d": 491.8029999999999,
      "v": 95
    },
    {
      "midi": 68,
      "hit": false,
      "t": 59098.32716666667,
      "d": 491.8029999999999,
      "v": 95
    },
    {
      "midi": 42,
      "hit": false,
      "t": 59590.130166666655,
      "d": 20.491791666667268,
      "v": 120
    },
    {
      "midi": 77,
      "hit": false,
      "t": 59590.13016666667,
      "d": 450.81941666666535,
      "v": 127
    },
    {
      "midi": 77,
      "hit": false,
      "t": 59590.13016666667,
      "d": 450.81941666666535,
      "v": 110
    },
    {
      "midi": 42,
      "hit": false,
      "t": 60081.933166666655,
      "d": 20.491791666667268,
      "v": 120
    },
    {
      "midi": 40,
      "hit": false,
      "t": 60081.933166666655,
      "d": 20.491791666667268,
      "v": 120
    },
    {
      "midi": 79,
      "hit": false,
      "t": 60081.93316666667,
      "d": 450.81941666666535,
      "v": 127
    },
    {
      "midi": 34,
      "hit": false,
      "t": 60081.93316666667,
      "d": 676.229124999998,
      "v": 115
    },
    {
      "midi": 79,
      "hit": false,
      "t": 60081.93316666667,
      "d": 450.81941666666535,
      "v": 110
    },
    {
      "midi": 42,
      "hit": false,
      "t": 60573.736166666655,
      "d": 20.491791666667268,
      "v": 120
    },
    {
      "midi": 56,
      "hit": false,
      "t": 60573.73616666666,
      "d": 2459.0149999999994,
      "v": 110
    },
    {
      "midi": 62,
      "hit": false,
      "t": 60573.73616666666,
      "d": 2459.0149999999994,
      "v": 110
    },
    {
      "midi": 65,
      "hit": false,
      "t": 60573.73616666666,
      "d": 2459.0149999999994,
      "v": 110
    },
    {
      "midi": 77,
      "hit": false,
      "t": 60573.73616666667,
      "d": 676.229124999998,
      "v": 127
    },
    {
      "midi": 56,
      "hit": false,
      "t": 60573.73616666667,
      "d": 1352.4582500000033,
      "v": 95
    },
    {
      "midi": 65,
      "hit": false,
      "t": 60573.73616666667,
      "d": 1352.4582500000033,
      "v": 95
    },
    {
      "midi": 77,
      "hit": false,
      "t": 60573.73616666667,
      "d": 676.229124999998,
      "v": 110
    },
    {
      "midi": 36,
      "hit": false,
      "t": 60819.637666666655,
      "d": 20.491791666667268,
      "v": 92
    },
    {
      "midi": 29,
      "hit": false,
      "t": 60819.63766666667,
      "d": 225.40970833333267,
      "v": 115
    },
    {
      "midi": 42,
      "hit": false,
      "t": 61065.539166666655,
      "d": 20.491791666667268,
      "v": 120
    },
    {
      "midi": 36,
      "hit": false,
      "t": 61065.539166666655,
      "d": 20.491791666667268,
      "v": 120
    },
    {
      "midi": 31,
      "hit": false,
      "t": 61065.53916666667,
      "d": 450.81941666666535,
      "v": 115
    },
    {
      "midi": 36,
      "hit": false,
      "t": 61311.440666666655,
      "d": 20.491791666667268,
      "v": 92
    },
    {
      "midi": 36,
      "hit": false,
      "t": 61557.342166666655,
      "d": 20.491791666667268,
      "v": 120
    },
    {
      "midi": 46,
      "hit": false,
      "t": 61557.342166666655,
      "d": 20.491791666667268,
      "v": 120
    },
    {
      "midi": 79,
      "hit": false,
      "t": 61557.34216666667,
      "d": 450.81941666666535,
      "v": 127
    },
    {
      "midi": 55,
      "hit": false,
      "t": 61557.34216666667,
      "d": 491.8029999999999,
      "v": 110
    },
    {
      "midi": 67,
      "hit": false,
      "t": 61557.34216666667,
      "d": 491.8029999999999,
      "v": 110
    },
    {
      "midi": 34,
      "hit": false,
      "t": 61557.34216666667,
      "d": 450.81941666666535,
      "v": 115
    },
    {
      "midi": 79,
      "hit": false,
      "t": 61557.34216666667,
      "d": 450.81941666666535,
      "v": 110
    },
    {
      "midi": 42,
      "hit": false,
      "t": 62049.145166666654,
      "d": 20.491791666667268,
      "v": 120
    },
    {
      "midi": 40,
      "hit": false,
      "t": 62049.145166666654,
      "d": 20.491791666667268,
      "v": 120
    },
    {
      "midi": 80,
      "hit": false,
      "t": 62049.14516666667,
      "d": 450.81941666666535,
      "v": 127
    },
    {
      "midi": 56,
      "hit": false,
      "t": 62049.14516666667,
      "d": 491.8029999999999,
      "v": 110
    },
    {
      "midi": 68,
      "hit": false,
      "t": 62049.14516666667,
      "d": 491.8029999999999,
      "v": 110
    },
    {
      "midi": 80,
      "hit": false,
      "t": 62049.14516666667,
      "d": 450.81941666666535,
      "v": 110
    },
    {
      "midi": 56,
      "hit": false,
      "t": 62049.145166666676,
      "d": 491.8029999999999,
      "v": 95
    },
    {
      "midi": 62,
      "hit": false,
      "t": 62049.145166666676,
      "d": 491.8029999999999,
      "v": 95
    },
    {
      "midi": 42,
      "hit": false,
      "t": 62540.948166666654,
      "d": 20.491791666667268,
      "v": 120
    },
    {
      "midi": 36,
      "hit": false,
      "t": 62540.948166666654,
      "d": 20.491791666667268,
      "v": 120
    },
    {
      "midi": 82,
      "hit": false,
      "t": 62540.94816666667,
      "d": 1844.2612500000032,
      "v": 117
    },
    {
      "midi": 58,
      "hit": false,
      "t": 62540.94816666667,
      "d": 1967.2119999999995,
      "v": 110
    },
    {
      "midi": 70,
      "hit": false,
      "t": 62540.94816666667,
      "d": 1967.2119999999995,
      "v": 110
    },
    {
      "midi": 31,
      "hit": false,
      "t": 62540.94816666667,
      "d": 1844.2612500000032,
      "v": 105
    },
    {
      "midi": 82,
      "hit": false,
      "t": 62540.94816666667,
      "d": 1844.2612500000032,
      "v": 100
    },
    {
      "midi": 42,
      "hit": false,
      "t": 63032.751166666654,
      "d": 20.491791666667268,
      "v": 120
    },
    {
      "midi": 49,
      "hit": false,
      "t": 63032.751166666654,
      "d": 20.491791666667268,
      "v": 64
    },
    {
      "midi": 36,
      "hit": false,
      "t": 63032.751166666654,
      "d": 20.491791666667268,
      "v": 92
    },
    {
      "midi": 58,
      "hit": false,
      "t": 63032.75116666666,
      "d": 1475.4089999999997,
      "v": 110
    },
    {
      "midi": 62,
      "hit": false,
      "t": 63032.75116666666,
      "d": 1475.4089999999997,
      "v": 110
    },
    {
      "midi": 65,
      "hit": false,
      "t": 63032.75116666666,
      "d": 1475.4089999999997,
      "v": 110
    },
    {
      "midi": 65,
      "hit": false,
      "t": 63032.75116666667,
      "d": 491.8029999999999,
      "v": 110
    },
    {
      "midi": 58,
      "hit": false,
      "t": 63032.751166666676,
      "d": 491.8029999999999,
      "v": 95
    },
    {
      "midi": 65,
      "hit": false,
      "t": 63032.751166666676,
      "d": 491.8029999999999,
      "v": 95
    },
    {
      "midi": 42,
      "hit": false,
      "t": 63524.554166666654,
      "d": 20.491791666667268,
      "v": 120
    },
    {
      "midi": 62,
      "hit": false,
      "t": 63524.55416666667,
      "d": 491.8029999999999,
      "v": 110
    },
    {
      "midi": 42,
      "hit": false,
      "t": 64016.357166666654,
      "d": 20.491791666667268,
      "v": 120
    },
    {
      "midi": 40,
      "hit": false,
      "t": 64016.357166666654,
      "d": 20.491791666667268,
      "v": 120
    },
    {
      "midi": 63,
      "hit": false,
      "t": 64016.35716666667,
      "d": 491.8029999999999,
      "v": 110
    },
    {
      "midi": 58,
      "hit": false,
      "t": 64016.357166666676,
      "d": 491.8029999999999,
      "v": 95
    },
    {
      "midi": 65,
      "hit": false,
      "t": 64016.357166666676,
      "d": 491.8029999999999,
      "v": 95
    },
    {
      "midi": 42,
      "hit": false,
      "t": 64508.160166666654,
      "d": 20.491791666667268,
      "v": 120
    },
    {
      "midi": 36,
      "hit": false,
      "t": 64508.160166666654,
      "d": 20.491791666667268,
      "v": 92
    },
    {
      "midi": 58,
      "hit": false,
      "t": 64508.16016666666,
      "d": 2459.0150000000067,
      "v": 110
    },
    {
      "midi": 60,
      "hit": false,
      "t": 64508.16016666666,
      "d": 2459.0150000000067,
      "v": 110
    },
    {
      "midi": 64,
      "hit": false,
      "t": 64508.16016666666,
      "d": 2459.0150000000067,
      "v": 110
    },
    {
      "midi": 64,
      "hit": false,
      "t": 64508.16016666667,
      "d": 2459.0150000000285,
      "v": 110
    },
    {
      "midi": 58,
      "hit": false,
      "t": 64508.16016666667,
      "d": 1967.2119999999995,
      "v": 110
    },
    {
      "midi": 70,
      "hit": false,
      "t": 64508.16016666667,
      "d": 1967.2119999999995,
      "v": 110
    },
    {
      "midi": 82,
      "hit": false,
      "t": 64508.160166666676,
      "d": 450.81941666666535,
      "v": 127
    },
    {
      "midi": 24,
      "hit": false,
      "t": 64508.160166666676,
      "d": 1352.4582500000033,
      "v": 115
    },
    {
      "midi": 82,
      "hit": false,
      "t": 64508.160166666676,
      "d": 450.81941666666535,
      "v": 110
    },
    {
      "midi": 42,
      "hit": false,
      "t": 64999.963166666654,
      "d": 20.491791666667268,
      "v": 120
    },
    {
      "midi": 82,
      "hit": false,
      "t": 64999.963166666676,
      "d": 450.81941666666535,
      "v": 127
    },
    {
      "midi": 82,
      "hit": false,
      "t": 64999.963166666676,
      "d": 450.81941666666535,
      "v": 110
    },
    {
      "midi": 42,
      "hit": false,
      "t": 65491.76616666665,
      "d": 20.491791666667268,
      "v": 120
    },
    {
      "midi": 82,
      "hit": false,
      "t": 65491.766166666675,
      "d": 676.2291250000053,
      "v": 127
    },
    {
      "midi": 58,
      "hit": false,
      "t": 65491.766166666675,
      "d": 491.80300000000716,
      "v": 95
    },
    {
      "midi": 64,
      "hit": false,
      "t": 65491.766166666675,
      "d": 491.80300000000716,
      "v": 95
    },
    {
      "midi": 82,
      "hit": false,
      "t": 65491.766166666675,
      "d": 676.2291250000053,
      "v": 110
    },
    {
      "midi": 42,
      "hit": false,
      "t": 65983.56916666665,
      "d": 20.491791666659992,
      "v": 120
    },
    {
      "midi": 40,
      "hit": false,
      "t": 65983.56916666665,
      "d": 20.491791666659992,
      "v": 120
    },
    {
      "midi": 24,
      "hit": false,
      "t": 65983.56916666668,
      "d": 901.6388333333307,
      "v": 115
    },
    {
      "midi": 42,
      "hit": false,
      "t": 66475.37216666665,
      "d": 20.491791666659992,
      "v": 120
    },
    {
      "midi": 36,
      "hit": false,
      "t": 66475.37216666665,
      "d": 20.491791666659992,
      "v": 92
    },
    {
      "midi": 58,
      "hit": false,
      "t": 66475.37216666667,
      "d": 491.8029999999999,
      "v": 110
    },
    {
      "midi": 70,
      "hit": false,
      "t": 66475.37216666667,
      "d": 491.8029999999999,
      "v": 110
    },
    {
      "midi": 82,
      "hit": false,
      "t": 66475.37216666668,
      "d": 942.6224166666652,
      "v": 117
    },
    {
      "midi": 82,
      "hit": false,
      "t": 66475.37216666668,
      "d": 942.6224166666652,
      "v": 100
    },
    {
      "midi": 42,
      "hit": false,
      "t": 66967.17516666665,
      "d": 20.491791666659992,
      "v": 120
    },
    {
      "midi": 36,
      "hit": false,
      "t": 66967.17516666665,
      "d": 20.491791666659992,
      "v": 92
    },
    {
      "midi": 58,
      "hit": false,
      "t": 66967.17516666667,
      "d": 491.8029999999999,
      "v": 110
    },
    {
      "midi": 70,
      "hit": false,
      "t": 66967.17516666667,
      "d": 491.8029999999999,
      "v": 110
    },
    {
      "midi": 56,
      "hit": false,
      "t": 66967.17516666667,
      "d": 2459.0149999999994,
      "v": 110
    },
    {
      "midi": 60,
      "hit": false,
      "t": 66967.17516666667,
      "d": 2459.0149999999994,
      "v": 110
    },
    {
      "midi": 63,
      "hit": false,
      "t": 66967.17516666667,
      "d": 2459.0149999999994,
      "v": 110
    },
    {
      "midi": 58,
      "hit": false,
      "t": 66967.17516666668,
      "d": 1475.4089999999997,
      "v": 95
    },
    {
      "midi": 63,
      "hit": false,
      "t": 66967.17516666668,
      "d": 1475.4089999999997,
      "v": 95
    },
    {
      "midi": 29,
      "hit": false,
      "t": 66967.17516666668,
      "d": 450.81941666666535,
      "v": 105
    },
    {
      "midi": 63,
      "hit": false,
      "t": 66967.1751666667,
      "d": 1475.4090000000433,
      "v": 110
    },
    {
      "midi": 42,
      "hit": false,
      "t": 67458.97816666665,
      "d": 20.491791666659992,
      "v": 120
    },
    {
      "midi": 36,
      "hit": false,
      "t": 67458.97816666665,
      "d": 20.491791666659992,
      "v": 92
    },
    {
      "midi": 60,
      "hit": false,
      "t": 67458.97816666667,
      "d": 491.8029999999999,
      "v": 110
    },
    {
      "midi": 72,
      "hit": false,
      "t": 67458.97816666667,
      "d": 491.8029999999999,
      "v": 110
    },
    {
      "midi": 80,
      "hit": false,
      "t": 67458.97816666668,
      "d": 450.81941666666535,
      "v": 127
    },
    {
      "midi": 31,
      "hit": false,
      "t": 67458.97816666668,
      "d": 450.81941666666535,
      "v": 115
    },
    {
      "midi": 80,
      "hit": false,
      "t": 67458.97816666668,
      "d": 450.81941666666535,
      "v": 110
    },
    {
      "midi": 42,
      "hit": false,
      "t": 67950.78116666665,
      "d": 20.491791666659992,
      "v": 120
    },
    {
      "midi": 40,
      "hit": false,
      "t": 67950.78116666665,
      "d": 20.491791666659992,
      "v": 120
    },
    {
      "midi": 62,
      "hit": false,
      "t": 67950.78116666667,
      "d": 245.90150000000722,
      "v": 110
    },
    {
      "midi": 74,
      "hit": false,
      "t": 67950.78116666667,
      "d": 245.90150000000722,
      "v": 110
    },
    {
      "midi": 79,
      "hit": false,
      "t": 67950.78116666668,
      "d": 450.81941666666535,
      "v": 127
    },
    {
      "midi": 32,
      "hit": false,
      "t": 67950.78116666668,
      "d": 450.81941666666535,
      "v": 115
    },
    {
      "midi": 79,
      "hit": false,
      "t": 67950.78116666668,
      "d": 450.81941666666535,
      "v": 110
    },
    {
      "midi": 63,
      "hit": false,
      "t": 68196.68266666667,
      "d": 245.90150000000722,
      "v": 110
    },
    {
      "midi": 75,
      "hit": false,
      "t": 68196.68266666667,
      "d": 245.90150000000722,
      "v": 110
    },
    {
      "midi": 42,
      "hit": false,
      "t": 68442.58416666665,
      "d": 20.491791666659992,
      "v": 120
    },
    {
      "midi": 37,
      "hit": false,
      "t": 68442.58416666665,
      "d": 20.491791666659992,
      "v": 120
    },
    {
      "midi": 77,
      "hit": false,
      "t": 68442.58416666668,
      "d": 676.229124999998,
      "v": 127
    },
    {
      "midi": 65,
      "hit": false,
      "t": 68442.58416666668,
      "d": 491.8029999999999,
      "v": 110
    },
    {
      "midi": 77,
      "hit": false,
      "t": 68442.58416666668,
      "d": 491.8029999999999,
      "v": 110
    },
    {
      "midi": 34,
      "hit": false,
      "t": 68442.58416666668,
      "d": 676.229124999998,
      "v": 115
    },
    {
      "midi": 77,
      "hit": false,
      "t": 68442.58416666668,
      "d": 676.229124999998,
      "v": 110
    },
    {
      "midi": 40,
      "hit": false,
      "t": 69426.19016666665,
      "d": 20.491791666659992,
      "v": 106
    },
    {
      "midi": 57,
      "hit": false,
      "t": 69426.19016666667,
      "d": 491.8029999999999,
      "v": 110
    },
    {
      "midi": 60,
      "hit": false,
      "t": 69426.19016666667,
      "d": 491.8029999999999,
      "v": 110
    },
    {
      "midi": 65,
      "hit": false,
      "t": 69426.19016666667,
      "d": 491.8029999999999,
      "v": 110
    },
    {
      "midi": 72,
      "hit": false,
      "t": 69426.19016666667,
      "d": 491.8029999999999,
      "v": 100
    },
    {
      "midi": 72,
      "hit": false,
      "t": 69426.19016666667,
      "d": 491.8029999999999,
      "v": 70
    },
    {
      "midi": 72,
      "hit": false,
      "t": 69426.19016666668,
      "d": 450.81941666666535,
      "v": 127
    },
    {
      "midi": 33,
      "hit": false,
      "t": 69426.19016666668,
      "d": 450.81941666666535,
      "v": 115
    },
    {
      "midi": 72,
      "hit": false,
      "t": 69426.19016666668,
      "d": 450.81941666666535,
      "v": 110
    },
    {
      "midi": 40,
      "hit": false,
      "t": 69917.99316666665,
      "d": 20.491791666659992,
      "v": 106
    },
    {
      "midi": 57,
      "hit": false,
      "t": 69917.99316666667,
      "d": 491.8029999999999,
      "v": 110
    },
    {
      "midi": 60,
      "hit": false,
      "t": 69917.99316666667,
      "d": 491.8029999999999,
      "v": 110
    },
    {
      "midi": 65,
      "hit": false,
      "t": 69917.99316666667,
      "d": 491.8029999999999,
      "v": 110
    },
    {
      "midi": 74,
      "hit": false,
      "t": 69917.99316666667,
      "d": 491.8029999999999,
      "v": 100
    },
    {
      "midi": 74,
      "hit": false,
      "t": 69917.99316666667,
      "d": 491.8029999999999,
      "v": 70
    },
    {
      "midi": 74,
      "hit": false,
      "t": 69917.99316666668,
      "d": 450.81941666666535,
      "v": 127
    },
    {
      "midi": 33,
      "hit": false,
      "t": 69917.99316666668,
      "d": 450.81941666666535,
      "v": 115
    },
    {
      "midi": 74,
      "hit": false,
      "t": 69917.99316666668,
      "d": 450.81941666666535,
      "v": 110
    },
    {
      "midi": 36,
      "hit": false,
      "t": 70409.79616666665,
      "d": 20.491791666659992,
      "v": 92
    },
    {
      "midi": 49,
      "hit": false,
      "t": 70409.79616666665,
      "d": 20.491791666659992,
      "v": 64
    },
    {
      "midi": 56,
      "hit": false,
      "t": 70409.79616666667,
      "d": 491.8029999999999,
      "v": 110
    },
    {
      "midi": 60,
      "hit": false,
      "t": 70409.79616666667,
      "d": 491.8029999999999,
      "v": 110
    },
    {
      "midi": 63,
      "hit": false,
      "t": 70409.79616666667,
      "d": 491.8029999999999,
      "v": 110
    },
    {
      "midi": 75,
      "hit": false,
      "t": 70409.79616666667,
      "d": 491.8029999999999,
      "v": 100
    },
    {
      "midi": 75,
      "hit": false,
      "t": 70409.79616666667,
      "d": 491.8029999999999,
      "v": 70
    },
    {
      "midi": 75,
      "hit": false,
      "t": 70409.79616666668,
      "d": 1618.8515416666633,
      "v": 117
    },
    {
      "midi": 60,
      "hit": false,
      "t": 70409.79616666668,
      "d": 4405.735208333339,
      "v": 110
    },
    {
      "midi": 63,
      "hit": false,
      "t": 70409.79616666668,
      "d": 4405.735208333339,
      "v": 110
    },
    {
      "midi": 67,
      "hit": false,
      "t": 70409.79616666668,
      "d": 4405.735208333339,
      "v": 110
    },
    {
      "midi": 32,
      "hit": false,
      "t": 70409.79616666668,
      "d": 1393.4418333333306,
      "v": 105
    },
    {
      "midi": 75,
      "hit": false,
      "t": 70409.79616666668,
      "d": 1618.8515416666633,
      "v": 100
    },
    {
      "midi": 42,
      "hit": false,
      "t": 70901.59916666665,
      "d": 20.491791666659992,
      "v": 120
    },
    {
      "midi": 49,
      "hit": false,
      "t": 70901.59916666665,
      "d": 20.491791666659992,
      "v": 64
    },
    {
      "midi": 36,
      "hit": false,
      "t": 70901.59916666665,
      "d": 20.491791666659992,
      "v": 92
    },
    {
      "midi": 56,
      "hit": false,
      "t": 70901.59916666667,
      "d": 3934.423999999999,
      "v": 55
    },
    {
      "midi": 60,
      "hit": false,
      "t": 70901.59916666667,
      "d": 3934.423999999999,
      "v": 55
    },
    {
      "midi": 63,
      "hit": false,
      "t": 70901.59916666667,
      "d": 3934.423999999999,
      "v": 55
    },
    {
      "midi": 56,
      "hit": false,
      "t": 70901.59916666667,
      "d": 2459.0149999999994,
      "v": 110
    },
    {
      "midi": 60,
      "hit": false,
      "t": 70901.59916666667,
      "d": 2459.0149999999994,
      "v": 110
    },
    {
      "midi": 63,
      "hit": false,
      "t": 70901.59916666667,
      "d": 2459.0149999999994,
      "v": 110
    },
    {
      "midi": 86,
      "hit": false,
      "t": 70901.59916666668,
      "d": 61.47537499997998,
      "v": 70
    },
    {
      "midi": 87,
      "hit": false,
      "t": 70963.07454166666,
      "d": 1926.228416666665,
      "v": 70
    },
    {
      "midi": 42,
      "hit": false,
      "t": 71393.40216666665,
      "d": 20.491791666659992,
      "v": 120
    },
    {
      "midi": 42,
      "hit": false,
      "t": 71885.20516666665,
      "d": 20.491791666659992,
      "v": 120
    },
    {
      "midi": 40,
      "hit": false,
      "t": 71885.20516666665,
      "d": 20.491791666659992,
      "v": 120
    },
    {
      "midi": 63,
      "hit": false,
      "t": 71885.20516666668,
      "d": 491.8029999999999,
      "v": 95
    },
    {
      "midi": 67,
      "hit": false,
      "t": 71885.20516666668,
      "d": 491.8029999999999,
      "v": 95
    },
    {
      "midi": 32,
      "hit": false,
      "t": 71885.20516666668,
      "d": 676.229124999998,
      "v": 115
    },
    {
      "midi": 42,
      "hit": false,
      "t": 72377.00816666665,
      "d": 20.491791666659992,
      "v": 120
    },
    {
      "midi": 75,
      "hit": false,
      "t": 72377.00816666668,
      "d": 450.81941666666535,
      "v": 127
    },
    {
      "midi": 75,
      "hit": false,
      "t": 72377.00816666668,
      "d": 450.81941666666535,
      "v": 110
    },
    {
      "midi": 36,
      "hit": false,
      "t": 72622.90966666664,
      "d": 20.491791666659992,
      "v": 92
    },
    {
      "midi": 27,
      "hit": false,
      "t": 72622.90966666667,
      "d": 225.40970833333267,
      "v": 115
    },
    {
      "midi": 42,
      "hit": false,
      "t": 72868.81116666664,
      "d": 20.491791666659992,
      "v": 120
    },
    {
      "midi": 36,
      "hit": false,
      "t": 72868.81116666664,
      "d": 20.491791666659992,
      "v": 120
    },
    {
      "midi": 31,
      "hit": false,
      "t": 72868.81116666667,
      "d": 450.81941666666535,
      "v": 115
    },
    {
      "midi": 82,
      "hit": false,
      "t": 72868.81116666667,
      "d": 1967.2119999999995,
      "v": 90
    },
    {
      "midi": 75,
      "hit": false,
      "t": 72868.81116666668,
      "d": 450.81941666666535,
      "v": 127
    },
    {
      "midi": 75,
      "hit": false,
      "t": 72868.81116666668,
      "d": 450.81941666666535,
      "v": 110
    },
    {
      "midi": 42,
      "hit": false,
      "t": 73360.61416666664,
      "d": 20.491791666659992,
      "v": 120
    },
    {
      "midi": 36,
      "hit": false,
      "t": 73360.61416666664,
      "d": 20.491791666659992,
      "v": 92
    },
    {
      "midi": 56,
      "hit": false,
      "t": 73360.61416666667,
      "d": 1475.4089999999997,
      "v": 110
    },
    {
      "midi": 60,
      "hit": false,
      "t": 73360.61416666667,
      "d": 1475.4089999999997,
      "v": 110
    },
    {
      "midi": 63,
      "hit": false,
      "t": 73360.61416666667,
      "d": 1475.4089999999997,
      "v": 110
    },
    {
      "midi": 32,
      "hit": false,
      "t": 73360.61416666667,
      "d": 450.81941666666535,
      "v": 115
    },
    {
      "midi": 72,
      "hit": false,
      "t": 73360.61416666668,
      "d": 450.81941666666535,
      "v": 127
    },
    {
      "midi": 63,
      "hit": false,
      "t": 73360.61416666668,
      "d": 491.8029999999999,
      "v": 95
    },
    {
      "midi": 67,
      "hit": false,
      "t": 73360.61416666668,
      "d": 491.8029999999999,
      "v": 95
    },
    {
      "midi": 72,
      "hit": false,
      "t": 73360.61416666668,
      "d": 450.81941666666535,
      "v": 110
    },
    {
      "midi": 42,
      "hit": false,
      "t": 73852.41716666664,
      "d": 20.491791666659992,
      "v": 120
    },
    {
      "midi": 40,
      "hit": false,
      "t": 73852.41716666664,
      "d": 20.491791666659992,
      "v": 120
    },
    {
      "midi": 74,
      "hit": false,
      "t": 73852.41716666668,
      "d": 450.81941666666535,
      "v": 127
    },
    {
      "midi": 74,
      "hit": false,
      "t": 73852.41716666668,
      "d": 450.81941666666535,
      "v": 110
    },
    {
      "midi": 42,
      "hit": false,
      "t": 74344.22016666664,
      "d": 20.491791666659992,
      "v": 120
    },
    {
      "midi": 36,
      "hit": false,
      "t": 74344.22016666664,
      "d": 20.491791666659992,
      "v": 92
    },
    {
      "midi": 32,
      "hit": false,
      "t": 74344.22016666667,
      "d": 1393.4418333333306,
      "v": 105
    },
    {
      "midi": 75,
      "hit": false,
      "t": 74344.22016666668,
      "d": 942.6224166666652,
      "v": 127
    },
    {
      "midi": 75,
      "hit": false,
      "t": 74344.22016666668,
      "d": 942.6224166666652,
      "v": 110
    },
    {
      "midi": 42,
      "hit": false,
      "t": 74836.02316666664,
      "d": 20.491791666659992,
      "v": 120
    },
    {
      "midi": 36,
      "hit": false,
      "t": 74836.02316666664,
      "d": 20.491791666659992,
      "v": 92
    },
    {
      "midi": 56,
      "hit": false,
      "t": 74836.02316666667,
      "d": 3934.423999999999,
      "v": 55
    },
    {
      "midi": 60,
      "hit": false,
      "t": 74836.02316666667,
      "d": 3934.423999999999,
      "v": 55
    },
    {
      "midi": 63,
      "hit": false,
      "t": 74836.02316666667,
      "d": 3934.423999999999,
      "v": 55
    },
    {
      "midi": 56,
      "hit": false,
      "t": 74836.02316666667,
      "d": 2459.0149999999994,
      "v": 110
    },
    {
      "midi": 60,
      "hit": false,
      "t": 74836.02316666667,
      "d": 2459.0149999999994,
      "v": 110
    },
    {
      "midi": 63,
      "hit": false,
      "t": 74836.02316666667,
      "d": 2459.0149999999994,
      "v": 110
    },
    {
      "midi": 94,
      "hit": false,
      "t": 74836.02316666667,
      "d": 1967.2119999999995,
      "v": 90
    },
    {
      "midi": 42,
      "hit": false,
      "t": 75327.82616666664,
      "d": 20.491791666659992,
      "v": 120
    },
    {
      "midi": 77,
      "hit": false,
      "t": 75327.82616666668,
      "d": 450.81941666666535,
      "v": 127
    },
    {
      "midi": 58,
      "hit": false,
      "t": 75327.82616666668,
      "d": 491.8029999999999,
      "v": 90
    },
    {
      "midi": 77,
      "hit": false,
      "t": 75327.82616666668,
      "d": 450.81941666666535,
      "v": 110
    },
    {
      "midi": 42,
      "hit": false,
      "t": 75819.62916666664,
      "d": 20.491791666659992,
      "v": 120
    },
    {
      "midi": 40,
      "hit": false,
      "t": 75819.62916666664,
      "d": 20.491791666659992,
      "v": 120
    },
    {
      "midi": 32,
      "hit": false,
      "t": 75819.62916666667,
      "d": 676.229124999998,
      "v": 115
    },
    {
      "midi": 79,
      "hit": false,
      "t": 75819.62916666668,
      "d": 450.81941666666535,
      "v": 127
    },
    {
      "midi": 60,
      "hit": false,
      "t": 75819.62916666668,
      "d": 491.8029999999999,
      "v": 90
    },
    {
      "midi": 79,
      "hit": false,
      "t": 75819.62916666668,
      "d": 450.81941666666535,
      "v": 110
    },
    {
      "midi": 42,
      "hit": false,
      "t": 76311.43216666664,
      "d": 20.491791666659992,
      "v": 120
    },
    {
      "midi": 77,
      "hit": false,
      "t": 76311.43216666668,
      "d": 676.229124999998,
      "v": 127
    },
    {
      "midi": 63,
      "hit": false,
      "t": 76311.43216666668,
      "d": 491.8029999999999,
      "v": 95
    },
    {
      "midi": 67,
      "hit": false,
      "t": 76311.43216666668,
      "d": 491.8029999999999,
      "v": 95
    },
    {
      "midi": 77,
      "hit": false,
      "t": 76311.43216666668,
      "d": 676.229124999998,
      "v": 110
    },
    {
      "midi": 36,
      "hit": false,
      "t": 76557.33366666663,
      "d": 20.491791666659992,
      "v": 92
    },
    {
      "midi": 27,
      "hit": false,
      "t": 76557.33366666666,
      "d": 225.40970833333267,
      "v": 115
    },
    {
      "midi": 42,
      "hit": false,
      "t": 76803.23516666662,
      "d": 20.491791666659992,
      "v": 120
    },
    {
      "midi": 36,
      "hit": false,
      "t": 76803.23516666662,
      "d": 20.491791666659992,
      "v": 120
    },
    {
      "midi": 32,
      "hit": false,
      "t": 76803.23516666665,
      "d": 225.40970833333267,
      "v": 115
    },
    {
      "midi": 91,
      "hit": false,
      "t": 76803.23516666667,
      "d": 1967.2119999999995,
      "v": 90
    },
    {
      "midi": 36,
      "hit": false,
      "t": 77049.13666666661,
      "d": 20.491791666659992,
      "v": 92
    },
    {
      "midi": 34,
      "hit": false,
      "t": 77049.13666666664,
      "d": 225.40970833333267,
      "v": 115
    },
    {
      "midi": 42,
      "hit": false,
      "t": 77295.0381666666,
      "d": 20.491791666659992,
      "v": 120
    },
    {
      "midi": 36,
      "hit": false,
      "t": 77295.0381666666,
      "d": 20.491791666659992,
      "v": 120
    },
    {
      "midi": 32,
      "hit": false,
      "t": 77295.03816666664,
      "d": 676.229124999998,
      "v": 115
    },
    {
      "midi": 56,
      "hit": false,
      "t": 77295.03816666667,
      "d": 1475.4089999999997,
      "v": 110
    },
    {
      "midi": 60,
      "hit": false,
      "t": 77295.03816666667,
      "d": 1475.4089999999997,
      "v": 110
    },
    {
      "midi": 63,
      "hit": false,
      "t": 77295.03816666667,
      "d": 1475.4089999999997,
      "v": 110
    },
    {
      "midi": 70,
      "hit": false,
      "t": 77295.03816666668,
      "d": 450.81941666666535,
      "v": 127
    },
    {
      "midi": 70,
      "hit": false,
      "t": 77295.03816666668,
      "d": 450.81941666666535,
      "v": 110
    },
    {
      "midi": 63,
      "hit": false,
      "t": 77295.0381666667,
      "d": 491.8029999999999,
      "v": 110
    },
    {
      "midi": 67,
      "hit": false,
      "t": 77295.0381666667,
      "d": 491.8029999999999,
      "v": 110
    },
    {
      "midi": 70,
      "hit": false,
      "t": 77295.0381666667,
      "d": 491.8029999999999,
      "v": 110
    },
    {
      "midi": 42,
      "hit": false,
      "t": 77786.8411666666,
      "d": 20.491791666659992,
      "v": 120
    },
    {
      "midi": 40,
      "hit": false,
      "t": 77786.8411666666,
      "d": 20.491791666659992,
      "v": 120
    },
    {
      "midi": 72,
      "hit": false,
      "t": 77786.84116666668,
      "d": 450.81941666666535,
      "v": 127
    },
    {
      "midi": 63,
      "hit": false,
      "t": 77786.84116666668,
      "d": 491.8029999999999,
      "v": 95
    },
    {
      "midi": 67,
      "hit": false,
      "t": 77786.84116666668,
      "d": 491.8029999999999,
      "v": 95
    },
    {
      "midi": 72,
      "hit": false,
      "t": 77786.84116666668,
      "d": 450.81941666666535,
      "v": 110
    },
    {
      "midi": 42,
      "hit": false,
      "t": 78278.6441666666,
      "d": 20.491791666659992,
      "v": 120
    },
    {
      "midi": 36,
      "hit": false,
      "t": 78278.6441666666,
      "d": 20.491791666659992,
      "v": 120
    },
    {
      "midi": 29,
      "hit": false,
      "t": 78278.64416666664,
      "d": 450.81941666666535,
      "v": 115
    },
    {
      "midi": 74,
      "hit": false,
      "t": 78278.64416666668,
      "d": 1618.8515416666633,
      "v": 117
    },
    {
      "midi": 74,
      "hit": false,
      "t": 78278.64416666668,
      "d": 1618.8515416666633,
      "v": 100
    },
    {
      "midi": 58,
      "hit": false,
      "t": 78278.6441666667,
      "d": 4405.735208333339,
      "v": 110
    },
    {
      "midi": 62,
      "hit": false,
      "t": 78278.6441666667,
      "d": 4405.735208333339,
      "v": 110
    },
    {
      "midi": 65,
      "hit": false,
      "t": 78278.6441666667,
      "d": 4405.735208333339,
      "v": 110
    },
    {
      "midi": 42,
      "hit": false,
      "t": 78770.4471666666,
      "d": 20.491791666659992,
      "v": 120
    },
    {
      "midi": 36,
      "hit": false,
      "t": 78770.4471666666,
      "d": 20.491791666659992,
      "v": 92
    },
    {
      "midi": 31,
      "hit": false,
      "t": 78770.44716666664,
      "d": 901.6388333333307,
      "v": 105
    },
    {
      "midi": 58,
      "hit": false,
      "t": 78770.44716666666,
      "d": 3934.423999999999,
      "v": 55
    },
    {
      "midi": 62,
      "hit": false,
      "t": 78770.44716666666,
      "d": 3934.423999999999,
      "v": 55
    },
    {
      "midi": 65,
      "hit": false,
      "t": 78770.44716666666,
      "d": 3934.423999999999,
      "v": 55
    },
    {
      "midi": 58,
      "hit": false,
      "t": 78770.44716666666,
      "d": 2459.0149999999994,
      "v": 110
    },
    {
      "midi": 62,
      "hit": false,
      "t": 78770.44716666666,
      "d": 2459.0149999999994,
      "v": 110
    },
    {
      "midi": 65,
      "hit": false,
      "t": 78770.44716666666,
      "d": 2459.0149999999994,
      "v": 110
    },
    {
      "midi": 89,
      "hit": false,
      "t": 78770.44716666666,
      "d": 4426.226999999999,
      "v": 90
    },
    {
      "midi": 62,
      "hit": false,
      "t": 78770.44716666668,
      "d": 40.983583333334536,
      "v": 80
    },
    {
      "midi": 42,
      "hit": false,
      "t": 79262.2501666666,
      "d": 20.491791666659992,
      "v": 120
    },
    {
      "midi": 62,
      "hit": false,
      "t": 79262.25016666668,
      "d": 40.983583333334536,
      "v": 80
    },
    {
      "midi": 42,
      "hit": false,
      "t": 79754.0531666666,
      "d": 20.491791666659992,
      "v": 120
    },
    {
      "midi": 40,
      "hit": false,
      "t": 79754.0531666666,
      "d": 20.491791666659992,
      "v": 120
    },
    {
      "midi": 31,
      "hit": false,
      "t": 79754.05316666664,
      "d": 676.229124999998,
      "v": 115
    },
    {
      "midi": 62,
      "hit": false,
      "t": 79754.05316666668,
      "d": 491.8029999999999,
      "v": 95
    },
    {
      "midi": 65,
      "hit": false,
      "t": 79754.05316666668,
      "d": 491.8029999999999,
      "v": 95
    },
    {
      "midi": 42,
      "hit": false,
      "t": 80245.8561666666,
      "d": 20.491791666659992,
      "v": 120
    },
    {
      "midi": 74,
      "hit": false,
      "t": 80245.85616666668,
      "d": 450.81941666666535,
      "v": 127
    },
    {
      "midi": 74,
      "hit": false,
      "t": 80245.85616666668,
      "d": 450.81941666666535,
      "v": 110
    },
    {
      "midi": 36,
      "hit": false,
      "t": 80491.7576666666,
      "d": 20.491791666659992,
      "v": 92
    },
    {
      "midi": 26,
      "hit": false,
      "t": 80491.75766666663,
      "d": 225.40970833333267,
      "v": 115
    },
    {
      "midi": 42,
      "hit": false,
      "t": 80737.65916666659,
      "d": 20.491791666659992,
      "v": 120
    },
    {
      "midi": 36,
      "hit": false,
      "t": 80737.65916666659,
      "d": 20.491791666659992,
      "v": 120
    },
    {
      "midi": 30,
      "hit": false,
      "t": 80737.65916666662,
      "d": 450.81941666666535,
      "v": 115
    },
    {
      "midi": 74,
      "hit": false,
      "t": 80737.65916666668,
      "d": 450.81941666666535,
      "v": 127
    },
    {
      "midi": 74,
      "hit": false,
      "t": 80737.65916666668,
      "d": 450.81941666666535,
      "v": 110
    },
    {
      "midi": 42,
      "hit": false,
      "t": 81229.46216666659,
      "d": 20.491791666659992,
      "v": 120
    },
    {
      "midi": 36,
      "hit": false,
      "t": 81229.46216666659,
      "d": 20.491791666659992,
      "v": 92
    },
    {
      "midi": 31,
      "hit": false,
      "t": 81229.46216666662,
      "d": 450.81941666666535,
      "v": 115
    },
    {
      "midi": 58,
      "hit": false,
      "t": 81229.46216666666,
      "d": 1475.4089999999997,
      "v": 110
    },
    {
      "midi": 62,
      "hit": false,
      "t": 81229.46216666666,
      "d": 1475.4089999999997,
      "v": 110
    },
    {
      "midi": 65,
      "hit": false,
      "t": 81229.46216666666,
      "d": 1475.4089999999997,
      "v": 110
    },
    {
      "midi": 70,
      "hit": false,
      "t": 81229.46216666668,
      "d": 450.81941666666535,
      "v": 127
    },
    {
      "midi": 62,
      "hit": false,
      "t": 81229.46216666668,
      "d": 491.8029999999999,
      "v": 95
    },
    {
      "midi": 65,
      "hit": false,
      "t": 81229.46216666668,
      "d": 491.8029999999999,
      "v": 95
    },
    {
      "midi": 70,
      "hit": false,
      "t": 81229.46216666668,
      "d": 450.81941666666535,
      "v": 110
    },
    {
      "midi": 42,
      "hit": false,
      "t": 81721.26516666659,
      "d": 20.491791666659992,
      "v": 120
    },
    {
      "midi": 40,
      "hit": false,
      "t": 81721.26516666659,
      "d": 20.491791666659992,
      "v": 120
    },
    {
      "midi": 72,
      "hit": false,
      "t": 81721.26516666668,
      "d": 450.81941666666535,
      "v": 127
    },
    {
      "midi": 72,
      "hit": false,
      "t": 81721.26516666668,
      "d": 450.81941666666535,
      "v": 110
    },
    {
      "midi": 42,
      "hit": false,
      "t": 82213.06816666659,
      "d": 20.491791666659992,
      "v": 120
    },
    {
      "midi": 36,
      "hit": false,
      "t": 82213.06816666659,
      "d": 20.491791666659992,
      "v": 92
    },
    {
      "midi": 34,
      "hit": false,
      "t": 82213.06816666662,
      "d": 450.81941666666535,
      "v": 115
    },
    {
      "midi": 74,
      "hit": false,
      "t": 82213.06816666668,
      "d": 942.6224166666652,
      "v": 117
    },
    {
      "midi": 62,
      "hit": false,
      "t": 82213.06816666668,
      "d": 40.983583333334536,
      "v": 80
    },
    {
      "midi": 74,
      "hit": false,
      "t": 82213.06816666668,
      "d": 942.6224166666652,
      "v": 100
    },
    {
      "midi": 42,
      "hit": false,
      "t": 82704.87116666659,
      "d": 20.491791666659992,
      "v": 120
    },
    {
      "midi": 36,
      "hit": false,
      "t": 82704.87116666659,
      "d": 20.491791666659992,
      "v": 92
    },
    {
      "midi": 36,
      "hit": false,
      "t": 82704.87116666662,
      "d": 368.8522499999526,
      "v": 105
    },
    {
      "midi": 58,
      "hit": false,
      "t": 82704.87116666666,
      "d": 1475.4089999999997,
      "v": 55
    },
    {
      "midi": 62,
      "hit": false,
      "t": 82704.87116666666,
      "d": 1475.4089999999997,
      "v": 55
    },
    {
      "midi": 65,
      "hit": false,
      "t": 82704.87116666666,
      "d": 1475.4089999999997,
      "v": 55
    },
    {
      "midi": 58,
      "hit": false,
      "t": 82704.87116666666,
      "d": 1475.4089999999997,
      "v": 110
    },
    {
      "midi": 62,
      "hit": false,
      "t": 82704.87116666666,
      "d": 1475.4089999999997,
      "v": 110
    },
    {
      "midi": 65,
      "hit": false,
      "t": 82704.87116666666,
      "d": 1475.4089999999997,
      "v": 110
    },
    {
      "midi": 62,
      "hit": false,
      "t": 82704.87116666668,
      "d": 491.8029999999999,
      "v": 95
    },
    {
      "midi": 65,
      "hit": false,
      "t": 82704.87116666668,
      "d": 491.8029999999999,
      "v": 95
    },
    {
      "midi": 34,
      "hit": false,
      "t": 83196.67416666658,
      "d": 450.81941666666535,
      "v": 115
    },
    {
      "midi": 42,
      "hit": false,
      "t": 83196.67416666659,
      "d": 20.491791666659992,
      "v": 120
    },
    {
      "midi": 87,
      "hit": false,
      "t": 83196.67416666666,
      "d": 491.8029999999999,
      "v": 90
    },
    {
      "midi": 75,
      "hit": false,
      "t": 83196.67416666668,
      "d": 450.81941666666535,
      "v": 127
    },
    {
      "midi": 75,
      "hit": false,
      "t": 83196.67416666668,
      "d": 450.81941666666535,
      "v": 110
    },
    {
      "midi": 31,
      "hit": false,
      "t": 83688.47716666658,
      "d": 450.81941666666535,
      "v": 115
    },
    {
      "midi": 42,
      "hit": false,
      "t": 83688.47716666659,
      "d": 20.491791666659992,
      "v": 120
    },
    {
      "midi": 40,
      "hit": false,
      "t": 83688.47716666659,
      "d": 20.491791666659992,
      "v": 120
    },
    {
      "midi": 86,
      "hit": false,
      "t": 83688.47716666666,
      "d": 491.8029999999999,
      "v": 90
    },
    {
      "midi": 74,
      "hit": false,
      "t": 83688.47716666668,
      "d": 450.81941666666535,
      "v": 127
    },
    {
      "midi": 74,
      "hit": false,
      "t": 83688.47716666668,
      "d": 450.81941666666535,
      "v": 110
    },
    {
      "midi": 24,
      "hit": false,
      "t": 84180.28016666658,
      "d": 676.229124999998,
      "v": 115
    },
    {
      "midi": 42,
      "hit": false,
      "t": 84180.28016666659,
      "d": 20.491791666659992,
      "v": 120
    },
    {
      "midi": 60,
      "hit": false,
      "t": 84180.28016666666,
      "d": 2459.0149999999994,
      "v": 55
    },
    {
      "midi": 63,
      "hit": false,
      "t": 84180.28016666666,
      "d": 2459.0149999999994,
      "v": 55
    },
    {
      "midi": 67,
      "hit": false,
      "t": 84180.28016666666,
      "d": 2459.0149999999994,
      "v": 55
    },
    {
      "midi": 60,
      "hit": false,
      "t": 84180.28016666666,
      "d": 2459.0149999999994,
      "v": 110
    },
    {
      "midi": 63,
      "hit": false,
      "t": 84180.28016666666,
      "d": 2459.0149999999994,
      "v": 110
    },
    {
      "midi": 67,
      "hit": false,
      "t": 84180.28016666666,
      "d": 2459.0149999999994,
      "v": 110
    },
    {
      "midi": 87,
      "hit": false,
      "t": 84180.28016666666,
      "d": 4426.226999999999,
      "v": 90
    },
    {
      "midi": 72,
      "hit": false,
      "t": 84180.28016666668,
      "d": 676.229124999998,
      "v": 127
    },
    {
      "midi": 63,
      "hit": false,
      "t": 84180.28016666668,
      "d": 491.8029999999999,
      "v": 95
    },
    {
      "midi": 67,
      "hit": false,
      "t": 84180.28016666668,
      "d": 491.8029999999999,
      "v": 95
    },
    {
      "midi": 72,
      "hit": false,
      "t": 84180.28016666668,
      "d": 676.229124999998,
      "v": 110
    },
    {
      "midi": 36,
      "hit": false,
      "t": 84426.18166666658,
      "d": 20.491791666659992,
      "v": 92
    },
    {
      "midi": 42,
      "hit": false,
      "t": 84672.08316666658,
      "d": 20.491791666659992,
      "v": 120
    },
    {
      "midi": 36,
      "hit": false,
      "t": 84672.08316666658,
      "d": 20.491791666659992,
      "v": 120
    },
    {
      "midi": 36,
      "hit": false,
      "t": 84917.98466666657,
      "d": 20.491791666659992,
      "v": 92
    },
    {
      "midi": 36,
      "hit": false,
      "t": 85163.88616666656,
      "d": 20.491791666659992,
      "v": 120
    },
    {
      "midi": 42,
      "hit": false,
      "t": 85163.88616666656,
      "d": 20.491791666659992,
      "v": 120
    },
    {
      "midi": 24,
      "hit": false,
      "t": 85163.88616666658,
      "d": 676.229124999998,
      "v": 115
    },
    {
      "midi": 72,
      "hit": false,
      "t": 85163.88616666668,
      "d": 450.81941666666535,
      "v": 127
    },
    {
      "midi": 72,
      "hit": false,
      "t": 85163.88616666668,
      "d": 450.81941666666535,
      "v": 110
    },
    {
      "midi": 63,
      "hit": false,
      "t": 85163.88616666669,
      "d": 491.8029999999999,
      "v": 110
    },
    {
      "midi": 67,
      "hit": false,
      "t": 85163.88616666669,
      "d": 491.8029999999999,
      "v": 110
    },
    {
      "midi": 72,
      "hit": false,
      "t": 85163.88616666669,
      "d": 491.8029999999999,
      "v": 110
    },
    {
      "midi": 42,
      "hit": false,
      "t": 85655.68916666656,
      "d": 20.491791666659992,
      "v": 120
    },
    {
      "midi": 40,
      "hit": false,
      "t": 85655.68916666656,
      "d": 20.491791666659992,
      "v": 120
    },
    {
      "midi": 75,
      "hit": false,
      "t": 85655.68916666668,
      "d": 450.81941666666535,
      "v": 127
    },
    {
      "midi": 63,
      "hit": false,
      "t": 85655.68916666668,
      "d": 491.8029999999999,
      "v": 95
    },
    {
      "midi": 67,
      "hit": false,
      "t": 85655.68916666668,
      "d": 491.8029999999999,
      "v": 95
    },
    {
      "midi": 75,
      "hit": false,
      "t": 85655.68916666668,
      "d": 450.81941666666535,
      "v": 110
    },
    {
      "midi": 36,
      "hit": false,
      "t": 86147.49216666656,
      "d": 20.491791666659992,
      "v": 120
    },
    {
      "midi": 46,
      "hit": false,
      "t": 86147.49216666656,
      "d": 20.491791666659992,
      "v": 120
    },
    {
      "midi": 24,
      "hit": false,
      "t": 86147.49216666658,
      "d": 450.81941666666535,
      "v": 115
    },
    {
      "midi": 77,
      "hit": false,
      "t": 86147.49216666668,
      "d": 450.81941666666535,
      "v": 127
    },
    {
      "midi": 77,
      "hit": false,
      "t": 86147.49216666668,
      "d": 450.81941666666535,
      "v": 110
    },
    {
      "midi": 60,
      "hit": false,
      "t": 86147.49216666669,
      "d": 2950.8179999999993,
      "v": 110
    },
    {
      "midi": 63,
      "hit": false,
      "t": 86147.49216666669,
      "d": 2950.8179999999993,
      "v": 110
    },
    {
      "midi": 67,
      "hit": false,
      "t": 86147.49216666669,
      "d": 2950.8179999999993,
      "v": 110
    },
    {
      "midi": 42,
      "hit": false,
      "t": 86639.29516666656,
      "d": 20.491791666659992,
      "v": 120
    },
    {
      "midi": 36,
      "hit": false,
      "t": 86639.29516666656,
      "d": 20.491791666659992,
      "v": 92
    },
    {
      "midi": 32,
      "hit": false,
      "t": 86639.29516666658,
      "d": 901.6388333333307,
      "v": 105
    },
    {
      "midi": 56,
      "hit": false,
      "t": 86639.29516666666,
      "d": 3934.423999999999,
      "v": 55
    },
    {
      "midi": 60,
      "hit": false,
      "t": 86639.29516666666,
      "d": 3934.423999999999,
      "v": 55
    },
    {
      "midi": 63,
      "hit": false,
      "t": 86639.29516666666,
      "d": 3934.423999999999,
      "v": 55
    },
    {
      "midi": 56,
      "hit": false,
      "t": 86639.29516666666,
      "d": 2459.0149999999994,
      "v": 110
    },
    {
      "midi": 60,
      "hit": false,
      "t": 86639.29516666666,
      "d": 2459.0149999999994,
      "v": 110
    },
    {
      "midi": 63,
      "hit": false,
      "t": 86639.29516666666,
      "d": 2459.0149999999994,
      "v": 110
    },
    {
      "midi": 79,
      "hit": false,
      "t": 86639.29516666668,
      "d": 1352.458249999996,
      "v": 117
    },
    {
      "midi": 63,
      "hit": false,
      "t": 86639.29516666668,
      "d": 40.983583333334536,
      "v": 80
    },
    {
      "midi": 79,
      "hit": false,
      "t": 86639.29516666668,
      "d": 1352.458249999996,
      "v": 100
    },
    {
      "midi": 42,
      "hit": false,
      "t": 87131.09816666656,
      "d": 20.491791666659992,
      "v": 120
    },
    {
      "midi": 63,
      "hit": false,
      "t": 87131.09816666668,
      "d": 40.983583333334536,
      "v": 80
    },
    {
      "midi": 42,
      "hit": false,
      "t": 87622.90116666656,
      "d": 20.491791666659992,
      "v": 120
    },
    {
      "midi": 40,
      "hit": false,
      "t": 87622.90116666656,
      "d": 20.491791666659992,
      "v": 120
    },
    {
      "midi": 32,
      "hit": false,
      "t": 87622.90116666658,
      "d": 676.229124999998,
      "v": 115
    },
    {
      "midi": 63,
      "hit": false,
      "t": 87622.90116666668,
      "d": 491.8029999999999,
      "v": 95
    },
    {
      "midi": 67,
      "hit": false,
      "t": 87622.90116666668,
      "d": 491.8029999999999,
      "v": 95
    },
    {
      "midi": 42,
      "hit": false,
      "t": 88114.70416666656,
      "d": 20.491791666659992,
      "v": 120
    },
    {
      "midi": 79,
      "hit": false,
      "t": 88114.70416666668,
      "d": 450.81941666666535,
      "v": 127
    },
    {
      "midi": 79,
      "hit": false,
      "t": 88114.70416666668,
      "d": 450.81941666666535,
      "v": 110
    },
    {
      "midi": 36,
      "hit": false,
      "t": 88360.60566666655,
      "d": 20.491791666659992,
      "v": 92
    },
    {
      "midi": 27,
      "hit": false,
      "t": 88360.60566666657,
      "d": 225.40970833333267,
      "v": 115
    },
    {
      "midi": 42,
      "hit": false,
      "t": 88606.50716666655,
      "d": 20.491791666659992,
      "v": 120
    },
    {
      "midi": 36,
      "hit": false,
      "t": 88606.50716666655,
      "d": 20.491791666659992,
      "v": 120
    },
    {
      "midi": 31,
      "hit": false,
      "t": 88606.50716666656,
      "d": 450.81941666666535,
      "v": 115
    },
    {
      "midi": 82,
      "hit": false,
      "t": 88606.50716666666,
      "d": 1967.2119999999995,
      "v": 90
    },
    {
      "midi": 79,
      "hit": false,
      "t": 88606.50716666668,
      "d": 450.81941666666535,
      "v": 127
    },
    {
      "midi": 79,
      "hit": false,
      "t": 88606.50716666668,
      "d": 450.81941666666535,
      "v": 110
    },
    {
      "midi": 42,
      "hit": false,
      "t": 89098.31016666655,
      "d": 20.491791666659992,
      "v": 120
    },
    {
      "midi": 36,
      "hit": false,
      "t": 89098.31016666655,
      "d": 20.491791666659992,
      "v": 92
    },
    {
      "midi": 32,
      "hit": false,
      "t": 89098.31016666656,
      "d": 450.81941666666535,
      "v": 115
    },
    {
      "midi": 56,
      "hit": false,
      "t": 89098.31016666666,
      "d": 1475.4089999999997,
      "v": 110
    },
    {
      "midi": 60,
      "hit": false,
      "t": 89098.31016666666,
      "d": 1475.4089999999997,
      "v": 110
    },
    {
      "midi": 63,
      "hit": false,
      "t": 89098.31016666666,
      "d": 1475.4089999999997,
      "v": 110
    },
    {
      "midi": 77,
      "hit": false,
      "t": 89098.31016666668,
      "d": 450.81941666666535,
      "v": 127
    },
    {
      "midi": 63,
      "hit": false,
      "t": 89098.31016666668,
      "d": 491.8029999999999,
      "v": 95
    },
    {
      "midi": 67,
      "hit": false,
      "t": 89098.31016666668,
      "d": 491.8029999999999,
      "v": 95
    },
    {
      "midi": 77,
      "hit": false,
      "t": 89098.31016666668,
      "d": 450.81941666666535,
      "v": 110
    },
    {
      "midi": 55,
      "hit": false,
      "t": 89098.31016666669,
      "d": 491.8029999999999,
      "v": 110
    },
    {
      "midi": 67,
      "hit": false,
      "t": 89098.31016666669,
      "d": 491.8029999999999,
      "v": 110
    },
    {
      "midi": 42,
      "hit": false,
      "t": 89590.11316666655,
      "d": 20.491791666659992,
      "v": 120
    },
    {
      "midi": 40,
      "hit": false,
      "t": 89590.11316666655,
      "d": 20.491791666659992,
      "v": 120
    },
    {
      "midi": 75,
      "hit": false,
      "t": 89590.11316666668,
      "d": 450.81941666666535,
      "v": 127
    },
    {
      "midi": 75,
      "hit": false,
      "t": 89590.11316666668,
      "d": 450.81941666666535,
      "v": 110
    },
    {
      "midi": 56,
      "hit": false,
      "t": 89590.11316666669,
      "d": 491.8029999999999,
      "v": 110
    },
    {
      "midi": 68,
      "hit": false,
      "t": 89590.11316666669,
      "d": 491.8029999999999,
      "v": 110
    },
    {
      "midi": 42,
      "hit": false,
      "t": 90081.91616666655,
      "d": 20.491791666659992,
      "v": 120
    },
    {
      "midi": 36,
      "hit": false,
      "t": 90081.91616666655,
      "d": 20.491791666659992,
      "v": 92
    },
    {
      "midi": 29,
      "hit": false,
      "t": 90081.91616666656,
      "d": 450.81941666666535,
      "v": 115
    },
    {
      "midi": 79,
      "hit": false,
      "t": 90081.91616666668,
      "d": 450.81941666666535,
      "v": 127
    },
    {
      "midi": 63,
      "hit": false,
      "t": 90081.91616666668,
      "d": 40.983583333334536,
      "v": 80
    },
    {
      "midi": 79,
      "hit": false,
      "t": 90081.91616666668,
      "d": 450.81941666666535,
      "v": 110
    },
    {
      "midi": 58,
      "hit": false,
      "t": 90081.91616666669,
      "d": 491.8029999999999,
      "v": 110
    },
    {
      "midi": 70,
      "hit": false,
      "t": 90081.91616666669,
      "d": 491.8029999999999,
      "v": 110
    },
    {
      "midi": 42,
      "hit": false,
      "t": 90573.71916666655,
      "d": 20.491791666659992,
      "v": 120
    },
    {
      "midi": 36,
      "hit": false,
      "t": 90573.71916666655,
      "d": 20.491791666659992,
      "v": 92
    },
    {
      "midi": 31,
      "hit": false,
      "t": 90573.71916666656,
      "d": 1352.458249999996,
      "v": 105
    },
    {
      "midi": 58,
      "hit": false,
      "t": 90573.71916666666,
      "d": 1475.4089999999997,
      "v": 55
    },
    {
      "midi": 62,
      "hit": false,
      "t": 90573.71916666666,
      "d": 1475.4089999999997,
      "v": 55
    },
    {
      "midi": 65,
      "hit": false,
      "t": 90573.71916666666,
      "d": 1475.4089999999997,
      "v": 55
    },
    {
      "midi": 58,
      "hit": false,
      "t": 90573.71916666666,
      "d": 1475.4089999999997,
      "v": 110
    },
    {
      "midi": 62,
      "hit": false,
      "t": 90573.71916666666,
      "d": 1475.4089999999997,
      "v": 110
    },
    {
      "midi": 65,
      "hit": false,
      "t": 90573.71916666666,
      "d": 1475.4089999999997,
      "v": 110
    },
    {
      "midi": 94,
      "hit": false,
      "t": 90573.71916666666,
      "d": 491.8029999999999,
      "v": 90
    },
    {
      "midi": 77,
      "hit": false,
      "t": 90573.71916666668,
      "d": 676.229124999998,
      "v": 117
    },
    {
      "midi": 58,
      "hit": false,
      "t": 90573.71916666668,
      "d": 1352.458249999996,
      "v": 95
    },
    {
      "midi": 65,
      "hit": false,
      "t": 90573.71916666668,
      "d": 1352.458249999996,
      "v": 95
    },
    {
      "midi": 77,
      "hit": false,
      "t": 90573.71916666668,
      "d": 676.229124999998,
      "v": 100
    },
    {
      "midi": 62,
      "hit": false,
      "t": 90573.71916666669,
      "d": 1475.4089999999997,
      "v": 110
    },
    {
      "midi": 74,
      "hit": false,
      "t": 90573.71916666669,
      "d": 1475.4089999999997,
      "v": 110
    },
    {
      "midi": 42,
      "hit": false,
      "t": 91065.52216666655,
      "d": 20.491791666659992,
      "v": 120
    },
    {
      "midi": 89,
      "hit": false,
      "t": 91065.52216666666,
      "d": 491.8029999999999,
      "v": 90
    },
    {
      "midi": 42,
      "hit": false,
      "t": 91557.32516666655,
      "d": 20.491791666659992,
      "v": 120
    },
    {
      "midi": 40,
      "hit": false,
      "t": 91557.32516666655,
      "d": 20.491791666659992,
      "v": 120
    },
    {
      "midi": 86,
      "hit": false,
      "t": 91557.32516666666,
      "d": 491.8029999999999,
      "v": 90
    },
    {
      "midi": 82,
      "hit": false,
      "t": 91557.32516666668,
      "d": 450.81941666666535,
      "v": 127
    },
    {
      "midi": 82,
      "hit": false,
      "t": 91557.32516666668,
      "d": 450.81941666666535,
      "v": 110
    },
    {
      "midi": 42,
      "hit": false,
      "t": 92049.12816666655,
      "d": 20.491791666659992,
      "v": 120
    },
    {
      "midi": 24,
      "hit": false,
      "t": 92049.12816666656,
      "d": 676.229124999998,
      "v": 115
    },
    {
      "midi": 58,
      "hit": false,
      "t": 92049.12816666666,
      "d": 2459.0149999999994,
      "v": 55
    },
    {
      "midi": 60,
      "hit": false,
      "t": 92049.12816666666,
      "d": 2459.0149999999994,
      "v": 55
    },
    {
      "midi": 64,
      "hit": false,
      "t": 92049.12816666666,
      "d": 2459.0149999999994,
      "v": 55
    },
    {
      "midi": 58,
      "hit": false,
      "t": 92049.12816666666,
      "d": 2459.0149999999994,
      "v": 110
    },
    {
      "midi": 60,
      "hit": false,
      "t": 92049.12816666666,
      "d": 2459.0149999999994,
      "v": 110
    },
    {
      "midi": 64,
      "hit": false,
      "t": 92049.12816666666,
      "d": 2459.0149999999994,
      "v": 110
    },
    {
      "midi": 92,
      "hit": false,
      "t": 92049.12816666666,
      "d": 983.6059999999998,
      "v": 90
    },
    {
      "midi": 80,
      "hit": false,
      "t": 92049.12816666668,
      "d": 901.6388333333307,
      "v": 127
    },
    {
      "midi": 58,
      "hit": false,
      "t": 92049.12816666668,
      "d": 1352.458249999996,
      "v": 95
    },
    {
      "midi": 64,
      "hit": false,
      "t": 92049.12816666668,
      "d": 1352.458249999996,
      "v": 95
    },
    {
      "midi": 80,
      "hit": false,
      "t": 92049.12816666668,
      "d": 901.6388333333307,
      "v": 110
    },
    {
      "midi": 64,
      "hit": false,
      "t": 92049.12816666669,
      "d": 491.8029999999999,
      "v": 110
    },
    {
      "midi": 76,
      "hit": false,
      "t": 92049.12816666669,
      "d": 491.8029999999999,
      "v": 110
    },
    {
      "midi": 36,
      "hit": false,
      "t": 92295.02966666654,
      "d": 20.491791666659992,
      "v": 92
    },
    {
      "midi": 42,
      "hit": false,
      "t": 92540.93116666653,
      "d": 20.491791666659992,
      "v": 120
    },
    {
      "midi": 36,
      "hit": false,
      "t": 92540.93116666653,
      "d": 20.491791666659992,
      "v": 120
    },
    {
      "midi": 65,
      "hit": false,
      "t": 92540.93116666669,
      "d": 491.8029999999999,
      "v": 110
    },
    {
      "midi": 77,
      "hit": false,
      "t": 92540.93116666669,
      "d": 491.8029999999999,
      "v": 110
    },
    {
      "midi": 36,
      "hit": false,
      "t": 92786.83266666652,
      "d": 20.491791666659992,
      "v": 92
    },
    {
      "midi": 42,
      "hit": false,
      "t": 93032.73416666652,
      "d": 20.491791666659992,
      "v": 120
    },
    {
      "midi": 36,
      "hit": false,
      "t": 93032.73416666652,
      "d": 20.491791666659992,
      "v": 120
    },
    {
      "midi": 24,
      "hit": false,
      "t": 93032.73416666656,
      "d": 676.229124999998,
      "v": 115
    },
    {
      "midi": 91,
      "hit": false,
      "t": 93032.73416666666,
      "d": 1475.4089999999997,
      "v": 90
    },
    {
      "midi": 79,
      "hit": false,
      "t": 93032.73416666668,
      "d": 450.81941666666535,
      "v": 127
    },
    {
      "midi": 79,
      "hit": false,
      "t": 93032.73416666668,
      "d": 450.81941666666535,
      "v": 110
    },
    {
      "midi": 67,
      "hit": false,
      "t": 93032.73416666669,
      "d": 1475.4089999999997,
      "v": 110
    },
    {
      "midi": 79,
      "hit": false,
      "t": 93032.73416666669,
      "d": 1475.4089999999997,
      "v": 110
    },
    {
      "midi": 42,
      "hit": false,
      "t": 93524.53716666652,
      "d": 20.491791666659992,
      "v": 120
    },
    {
      "midi": 40,
      "hit": false,
      "t": 93524.53716666652,
      "d": 20.491791666659992,
      "v": 120
    },
    {
      "midi": 77,
      "hit": false,
      "t": 93524.53716666668,
      "d": 450.81941666666535,
      "v": 127
    },
    {
      "midi": 58,
      "hit": false,
      "t": 93524.53716666668,
      "d": 491.8029999999999,
      "v": 95
    },
    {
      "midi": 64,
      "hit": false,
      "t": 93524.53716666668,
      "d": 491.8029999999999,
      "v": 95
    },
    {
      "midi": 77,
      "hit": false,
      "t": 93524.53716666668,
      "d": 450.81941666666535,
      "v": 110
    },
    {
      "midi": 42,
      "hit": false,
      "t": 94016.34016666652,
      "d": 20.491791666659992,
      "v": 120
    },
    {
      "midi": 36,
      "hit": false,
      "t": 94016.34016666652,
      "d": 20.491791666659992,
      "v": 120
    },
    {
      "midi": 24,
      "hit": false,
      "t": 94016.34016666656,
      "d": 450.81941666666535,
      "v": 115
    },
    {
      "midi": 75,
      "hit": false,
      "t": 94016.34016666668,
      "d": 942.6224166666652,
      "v": 117
    },
    {
      "midi": 75,
      "hit": false,
      "t": 94016.34016666668,
      "d": 942.6224166666652,
      "v": 100
    },
    {
      "midi": 42,
      "hit": false,
      "t": 94508.14316666652,
      "d": 20.491791666659992,
      "v": 120
    },
    {
      "midi": 36,
      "hit": false,
      "t": 94508.14316666652,
      "d": 20.491791666659992,
      "v": 92
    },
    {
      "midi": 29,
      "hit": false,
      "t": 94508.14316666656,
      "d": 1434.4254166666651,
      "v": 105
    },
    {
      "midi": 56,
      "hit": false,
      "t": 94508.14316666666,
      "d": 3934.423999999999,
      "v": 55
    },
    {
      "midi": 60,
      "hit": false,
      "t": 94508.14316666666,
      "d": 3934.423999999999,
      "v": 55
    },
    {
      "midi": 65,
      "hit": false,
      "t": 94508.14316666666,
      "d": 3934.423999999999,
      "v": 55
    },
    {
      "midi": 56,
      "hit": false,
      "t": 94508.14316666666,
      "d": 1967.2119999999995,
      "v": 110
    },
    {
      "midi": 60,
      "hit": false,
      "t": 94508.14316666666,
      "d": 1967.2119999999995,
      "v": 110
    },
    {
      "midi": 65,
      "hit": false,
      "t": 94508.14316666666,
      "d": 1967.2119999999995,
      "v": 110
    },
    {
      "midi": 92,
      "hit": false,
      "t": 94508.14316666666,
      "d": 1475.4089999999997,
      "v": 90
    },
    {
      "midi": 58,
      "hit": false,
      "t": 94508.14316666668,
      "d": 491.8029999999999,
      "v": 95
    },
    {
      "midi": 65,
      "hit": false,
      "t": 94508.14316666668,
      "d": 491.8029999999999,
      "v": 95
    },
    {
      "midi": 72,
      "hit": false,
      "t": 94508.14316666669,
      "d": 676.229124999998,
      "v": 110
    },
    {
      "midi": 77,
      "hit": false,
      "t": 94508.14316666669,
      "d": 676.229124999998,
      "v": 110
    },
    {
      "midi": 80,
      "hit": false,
      "t": 94508.14316666669,
      "d": 676.229124999998,
      "v": 110
    },
    {
      "midi": 42,
      "hit": false,
      "t": 94999.94616666652,
      "d": 20.491791666659992,
      "v": 120
    },
    {
      "midi": 42,
      "hit": false,
      "t": 95491.74916666652,
      "d": 20.491791666659992,
      "v": 120
    },
    {
      "midi": 40,
      "hit": false,
      "t": 95491.74916666652,
      "d": 20.491791666659992,
      "v": 120
    },
    {
      "midi": 72,
      "hit": false,
      "t": 95491.74916666668,
      "d": 450.81941666666535,
      "v": 127
    },
    {
      "midi": 58,
      "hit": false,
      "t": 95491.74916666668,
      "d": 491.8029999999999,
      "v": 95
    },
    {
      "midi": 65,
      "hit": false,
      "t": 95491.74916666668,
      "d": 491.8029999999999,
      "v": 95
    },
    {
      "midi": 72,
      "hit": false,
      "t": 95491.74916666668,
      "d": 450.81941666666535,
      "v": 110
    },
    {
      "midi": 42,
      "hit": false,
      "t": 95983.55216666652,
      "d": 20.491791666659992,
      "v": 120
    },
    {
      "midi": 29,
      "hit": false,
      "t": 95983.55216666656,
      "d": 450.81941666666535,
      "v": 115
    },
    {
      "midi": 84,
      "hit": false,
      "t": 95983.55216666666,
      "d": 1475.4089999999997,
      "v": 90
    },
    {
      "midi": 75,
      "hit": false,
      "t": 95983.55216666668,
      "d": 450.81941666666535,
      "v": 127
    },
    {
      "midi": 75,
      "hit": false,
      "t": 95983.55216666668,
      "d": 450.81941666666535,
      "v": 110
    },
    {
      "midi": 65,
      "hit": false,
      "t": 95983.55216666669,
      "d": 491.8029999999999,
      "v": 110
    },
    {
      "midi": 68,
      "hit": false,
      "t": 95983.55216666669,
      "d": 491.8029999999999,
      "v": 110
    },
    {
      "midi": 72,
      "hit": false,
      "t": 95983.55216666669,
      "d": 491.8029999999999,
      "v": 110
    },
    {
      "midi": 36,
      "hit": false,
      "t": 96229.45366666651,
      "d": 20.491791666659992,
      "v": 92
    },
    {
      "midi": 42,
      "hit": false,
      "t": 96475.3551666665,
      "d": 20.491791666659992,
      "v": 120
    },
    {
      "midi": 36,
      "hit": false,
      "t": 96475.3551666665,
      "d": 20.491791666659992,
      "v": 120
    },
    {
      "midi": 34,
      "hit": false,
      "t": 96475.35516666656,
      "d": 1434.4254166666651,
      "v": 115
    },
    {
      "midi": 56,
      "hit": false,
      "t": 96475.35516666666,
      "d": 1967.2119999999995,
      "v": 110
    },
    {
      "midi": 60,
      "hit": false,
      "t": 96475.35516666666,
      "d": 1967.2119999999995,
      "v": 110
    },
    {
      "midi": 65,
      "hit": false,
      "t": 96475.35516666666,
      "d": 1967.2119999999995,
      "v": 110
    },
    {
      "midi": 74,
      "hit": false,
      "t": 96475.35516666668,
      "d": 901.6388333333307,
      "v": 127
    },
    {
      "midi": 74,
      "hit": false,
      "t": 96475.35516666668,
      "d": 901.6388333333307,
      "v": 110
    },
    {
      "midi": 36,
      "hit": false,
      "t": 96721.2566666665,
      "d": 20.491791666659992,
      "v": 92
    },
    {
      "midi": 36,
      "hit": false,
      "t": 96967.15816666649,
      "d": 20.491791666659992,
      "v": 120
    },
    {
      "midi": 42,
      "hit": false,
      "t": 96967.15816666649,
      "d": 20.491791666659992,
      "v": 120
    },
    {
      "midi": 58,
      "hit": false,
      "t": 96967.15816666668,
      "d": 491.8029999999999,
      "v": 95
    },
    {
      "midi": 65,
      "hit": false,
      "t": 96967.15816666668,
      "d": 491.8029999999999,
      "v": 95
    },
    {
      "midi": 65,
      "hit": false,
      "t": 96967.15816666669,
      "d": 491.8029999999999,
      "v": 110
    },
    {
      "midi": 67,
      "hit": false,
      "t": 96967.15816666669,
      "d": 491.8029999999999,
      "v": 110
    },
    {
      "midi": 70,
      "hit": false,
      "t": 96967.15816666669,
      "d": 491.8029999999999,
      "v": 110
    },
    {
      "midi": 42,
      "hit": false,
      "t": 97458.96116666649,
      "d": 20.491791666659992,
      "v": 120
    },
    {
      "midi": 40,
      "hit": false,
      "t": 97458.96116666649,
      "d": 20.491791666659992,
      "v": 120
    },
    {
      "midi": 92,
      "hit": false,
      "t": 97458.96116666666,
      "d": 983.6059999999998,
      "v": 90
    },
    {
      "midi": 75,
      "hit": false,
      "t": 97458.96116666668,
      "d": 450.81941666666535,
      "v": 127
    },
    {
      "midi": 75,
      "hit": false,
      "t": 97458.96116666668,
      "d": 450.81941666666535,
      "v": 110
    },
    {
      "midi": 36,
      "hit": false,
      "t": 97950.76416666649,
      "d": 20.491791666659992,
      "v": 120
    },
    {
      "midi": 46,
      "hit": false,
      "t": 97950.76416666649,
      "d": 20.491791666659992,
      "v": 120
    },
    {
      "midi": 34,
      "hit": false,
      "t": 97950.76416666656,
      "d": 450.81941666666535,
      "v": 115
    },
    {
      "midi": 77,
      "hit": false,
      "t": 97950.76416666668,
      "d": 450.81941666666535,
      "v": 127
    },
    {
      "midi": 77,
      "hit": false,
      "t": 97950.76416666668,
      "d": 450.81941666666535,
      "v": 110
    },
    {
      "midi": 58,
      "hit": false,
      "t": 97950.76416666669,
      "d": 491.8029999999999,
      "v": 110
    },
    {
      "midi": 63,
      "hit": false,
      "t": 97950.76416666669,
      "d": 491.8029999999999,
      "v": 110
    },
    {
      "midi": 68,
      "hit": false,
      "t": 97950.76416666669,
      "d": 491.8029999999999,
      "v": 110
    },
    {
      "midi": 42,
      "hit": false,
      "t": 98442.56716666649,
      "d": 20.491791666659992,
      "v": 120
    },
    {
      "midi": 36,
      "hit": false,
      "t": 98442.56716666649,
      "d": 20.491791666659992,
      "v": 92
    },
    {
      "midi": 27,
      "hit": false,
      "t": 98442.56716666656,
      "d": 1434.4254166666651,
      "v": 105
    },
    {
      "midi": 55,
      "hit": false,
      "t": 98442.56716666666,
      "d": 3934.423999999999,
      "v": 55
    },
    {
      "midi": 58,
      "hit": false,
      "t": 98442.56716666666,
      "d": 3934.423999999999,
      "v": 55
    },
    {
      "midi": 63,
      "hit": false,
      "t": 98442.56716666666,
      "d": 3934.423999999999,
      "v": 55
    },
    {
      "midi": 55,
      "hit": false,
      "t": 98442.56716666666,
      "d": 1967.2119999999995,
      "v": 110
    },
    {
      "midi": 58,
      "hit": false,
      "t": 98442.56716666666,
      "d": 1967.2119999999995,
      "v": 110
    },
    {
      "midi": 63,
      "hit": false,
      "t": 98442.56716666666,
      "d": 1967.2119999999995,
      "v": 110
    },
    {
      "midi": 91,
      "hit": false,
      "t": 98442.56716666666,
      "d": 3934.423999999999,
      "v": 90
    },
    {
      "midi": 75,
      "hit": false,
      "t": 98442.56716666667,
      "d": 450.81941666666535,
      "v": 117
    },
    {
      "midi": 75,
      "hit": false,
      "t": 98442.56716666667,
      "d": 450.81941666666535,
      "v": 100
    },
    {
      "midi": 42,
      "hit": false,
      "t": 98934.37016666649,
      "d": 20.491791666659992,
      "v": 120
    },
    {
      "midi": 75,
      "hit": false,
      "t": 98934.37016666667,
      "d": 1967.2119999999995,
      "v": 127
    },
    {
      "midi": 58,
      "hit": false,
      "t": 98934.37016666667,
      "d": 491.8029999999999,
      "v": 95
    },
    {
      "midi": 63,
      "hit": false,
      "t": 98934.37016666667,
      "d": 491.8029999999999,
      "v": 95
    },
    {
      "midi": 75,
      "hit": false,
      "t": 98934.37016666667,
      "d": 1967.2119999999995,
      "v": 110
    },
    {
      "midi": 58,
      "hit": false,
      "t": 98934.37016666669,
      "d": 491.8029999999999,
      "v": 110
    },
    {
      "midi": 63,
      "hit": false,
      "t": 98934.37016666669,
      "d": 491.8029999999999,
      "v": 110
    },
    {
      "midi": 67,
      "hit": false,
      "t": 98934.37016666669,
      "d": 491.8029999999999,
      "v": 110
    },
    {
      "midi": 42,
      "hit": false,
      "t": 99426.17316666649,
      "d": 20.491791666659992,
      "v": 120
    },
    {
      "midi": 40,
      "hit": false,
      "t": 99426.17316666649,
      "d": 20.491791666659992,
      "v": 120
    },
    {
      "midi": 42,
      "hit": false,
      "t": 99917.97616666649,
      "d": 20.491791666659992,
      "v": 120
    },
    {
      "midi": 39,
      "hit": false,
      "t": 99917.97616666656,
      "d": 225.40970833333267,
      "v": 115
    },
    {
      "midi": 56,
      "hit": false,
      "t": 99917.97616666667,
      "d": 491.8029999999999,
      "v": 95
    },
    {
      "midi": 60,
      "hit": false,
      "t": 99917.97616666667,
      "d": 491.8029999999999,
      "v": 95
    },
    {
      "midi": 56,
      "hit": false,
      "t": 99917.97616666669,
      "d": 491.8029999999999,
      "v": 110
    },
    {
      "midi": 60,
      "hit": false,
      "t": 99917.97616666669,
      "d": 491.8029999999999,
      "v": 110
    },
    {
      "midi": 65,
      "hit": false,
      "t": 99917.97616666669,
      "d": 491.8029999999999,
      "v": 110
    },
    {
      "midi": 36,
      "hit": false,
      "t": 100163.87766666648,
      "d": 20.491791666659992,
      "v": 92
    },
    {
      "midi": 41,
      "hit": false,
      "t": 100163.87766666655,
      "d": 696.7209166666726,
      "v": 115
    },
    {
      "midi": 42,
      "hit": false,
      "t": 100409.77916666647,
      "d": 20.491791666659992,
      "v": 120
    },
    {
      "midi": 36,
      "hit": false,
      "t": 100409.77916666647,
      "d": 20.491791666659992,
      "v": 120
    },
    {
      "midi": 55,
      "hit": false,
      "t": 100409.77916666666,
      "d": 1967.2119999999995,
      "v": 110
    },
    {
      "midi": 58,
      "hit": false,
      "t": 100409.77916666666,
      "d": 1967.2119999999995,
      "v": 110
    },
    {
      "midi": 63,
      "hit": false,
      "t": 100409.77916666666,
      "d": 1967.2119999999995,
      "v": 110
    },
    {
      "midi": 36,
      "hit": false,
      "t": 100655.68066666646,
      "d": 20.491791666659992,
      "v": 92
    },
    {
      "midi": 42,
      "hit": false,
      "t": 100901.58216666646,
      "d": 20.491791666659992,
      "v": 120
    },
    {
      "midi": 36,
      "hit": false,
      "t": 100901.58216666646,
      "d": 20.491791666659992,
      "v": 120
    },
    {
      "midi": 48,
      "hit": false,
      "t": 100901.58216666646,
      "d": 20.491791666659992,
      "v": 92
    },
    {
      "midi": 39,
      "hit": false,
      "t": 100901.58216666656,
      "d": 1434.4254166666651,
      "v": 115
    },
    {
      "midi": 58,
      "hit": false,
      "t": 100901.58216666667,
      "d": 491.8029999999999,
      "v": 95
    },
    {
      "midi": 63,
      "hit": false,
      "t": 100901.58216666667,
      "d": 491.8029999999999,
      "v": 95
    },
    {
      "midi": 58,
      "hit": false,
      "t": 100901.58216666669,
      "d": 1475.4089999999997,
      "v": 110
    },
    {
      "midi": 63,
      "hit": false,
      "t": 100901.58216666669,
      "d": 1475.4089999999997,
      "v": 110
    },
    {
      "midi": 67,
      "hit": false,
      "t": 100901.58216666669,
      "d": 1475.4089999999997,
      "v": 110
    },
    {
      "midi": 42,
      "hit": false,
      "t": 101393.38516666646,
      "d": 20.491791666659992,
      "v": 120
    },
    {
      "midi": 40,
      "hit": false,
      "t": 101393.38516666646,
      "d": 20.491791666659992,
      "v": 120
    },
    {
      "midi": 45,
      "hit": false,
      "t": 101393.38516666646,
      "d": 20.491791666659992,
      "v": 92
    },
    {
      "midi": 42,
      "hit": false,
      "t": 101885.18816666646,
      "d": 20.491791666659992,
      "v": 120
    },
    {
      "midi": 36,
      "hit": false,
      "t": 101885.18816666646,
      "d": 20.491791666659992,
      "v": 120
    },
    {
      "midi": 41,
      "hit": false,
      "t": 101885.18816666646,
      "d": 20.491791666659992,
      "v": 92
    },
    {
      "midi": 42,
      "hit": false,
      "t": 102376.99116666646,
      "d": 20.491791666659992,
      "v": 120
    },
    {
      "midi": 49,
      "hit": false,
      "t": 102376.99116666646,
      "d": 20.491791666659992,
      "v": 64
    },
    {
      "midi": 36,
      "hit": false,
      "t": 102376.99116666646,
      "d": 20.491791666659992,
      "v": 92
    },
    {
      "midi": 34,
      "hit": false,
      "t": 102376.99116666656,
      "d": 2028.687374999994,
      "v": 105
    },
    {
      "midi": 68,
      "hit": false,
      "t": 102376.99116666666,
      "d": 3934.423999999999,
      "v": 60
    },
    {
      "midi": 61,
      "hit": false,
      "t": 102376.99116666666,
      "d": 3934.423999999999,
      "v": 60
    },
    {
      "midi": 65,
      "hit": false,
      "t": 102376.99116666666,
      "d": 3934.423999999999,
      "v": 60
    },
    {
      "midi": 58,
      "hit": false,
      "t": 102376.99116666666,
      "d": 3934.423999999999,
      "v": 110
    },
    {
      "midi": 61,
      "hit": false,
      "t": 102376.99116666666,
      "d": 3934.423999999999,
      "v": 110
    },
    {
      "midi": 65,
      "hit": false,
      "t": 102376.99116666666,
      "d": 3934.423999999999,
      "v": 110
    },
    {
      "midi": 73,
      "hit": false,
      "t": 102376.99116666667,
      "d": 1352.458249999996,
      "v": 117
    },
    {
      "midi": 61,
      "hit": false,
      "t": 102376.99116666667,
      "d": 983.6059999999998,
      "v": 100
    },
    {
      "midi": 65,
      "hit": false,
      "t": 102376.99116666667,
      "d": 983.6059999999998,
      "v": 100
    },
    {
      "midi": 73,
      "hit": false,
      "t": 102376.99116666667,
      "d": 1352.458249999996,
      "v": 100
    },
    {
      "midi": 42,
      "hit": false,
      "t": 102868.79416666646,
      "d": 20.491791666659992,
      "v": 120
    },
    {
      "midi": 42,
      "hit": false,
      "t": 103360.59716666646,
      "d": 20.491791666659992,
      "v": 120
    },
    {
      "midi": 40,
      "hit": false,
      "t": 103360.59716666646,
      "d": 20.491791666659992,
      "v": 120
    },
    {
      "midi": 61,
      "hit": false,
      "t": 103360.59716666667,
      "d": 983.6059999999998,
      "v": 96
    },
    {
      "midi": 65,
      "hit": false,
      "t": 103360.59716666667,
      "d": 983.6059999999998,
      "v": 96
    },
    {
      "midi": 42,
      "hit": false,
      "t": 103852.40016666646,
      "d": 20.491791666659992,
      "v": 120
    },
    {
      "midi": 36,
      "hit": false,
      "t": 103852.40016666646,
      "d": 20.491791666659992,
      "v": 92
    },
    {
      "midi": 73,
      "hit": false,
      "t": 103852.40016666667,
      "d": 450.81941666666535,
      "v": 127
    },
    {
      "midi": 73,
      "hit": false,
      "t": 103852.40016666667,
      "d": 450.81941666666535,
      "v": 110
    },
    {
      "midi": 42,
      "hit": false,
      "t": 104344.20316666646,
      "d": 20.491791666659992,
      "v": 120
    },
    {
      "midi": 36,
      "hit": false,
      "t": 104344.20316666646,
      "d": 20.491791666659992,
      "v": 120
    },
    {
      "midi": 73,
      "hit": false,
      "t": 104344.20316666667,
      "d": 676.229124999998,
      "v": 127
    },
    {
      "midi": 61,
      "hit": false,
      "t": 104344.20316666667,
      "d": 983.6059999999998,
      "v": 92
    },
    {
      "midi": 65,
      "hit": false,
      "t": 104344.20316666667,
      "d": 983.6059999999998,
      "v": 92
    },
    {
      "midi": 73,
      "hit": false,
      "t": 104344.20316666667,
      "d": 676.229124999998,
      "v": 110
    },
    {
      "midi": 42,
      "hit": false,
      "t": 104836.00616666646,
      "d": 20.491791666659992,
      "v": 120
    },
    {
      "midi": 34,
      "hit": false,
      "t": 104836.00616666656,
      "d": 368.8522499999963,
      "v": 115
    },
    {
      "midi": 72,
      "hit": false,
      "t": 105081.90766666667,
      "d": 676.229124999998,
      "v": 127
    },
    {
      "midi": 72,
      "hit": false,
      "t": 105081.90766666667,
      "d": 676.229124999998,
      "v": 110
    },
    {
      "midi": 42,
      "hit": false,
      "t": 105327.80916666645,
      "d": 20.491791666659992,
      "v": 120
    },
    {
      "midi": 40,
      "hit": false,
      "t": 105327.80916666645,
      "d": 20.491791666659992,
      "v": 120
    },
    {
      "midi": 83,
      "hit": false,
      "t": 105327.80916666645,
      "d": 20.491791666659992,
      "v": 78
    },
    {
      "midi": 29,
      "hit": false,
      "t": 105327.80916666656,
      "d": 901.6388333333307,
      "v": 115
    },
    {
      "midi": 61,
      "hit": false,
      "t": 105327.80916666667,
      "d": 983.6059999999998,
      "v": 88
    },
    {
      "midi": 65,
      "hit": false,
      "t": 105327.80916666667,
      "d": 983.6059999999998,
      "v": 88
    },
    {
      "midi": 73,
      "hit": false,
      "t": 105327.80916666667,
      "d": 491.8029999999999,
      "v": 110
    },
    {
      "midi": 42,
      "hit": false,
      "t": 105819.61216666645,
      "d": 20.491791666659992,
      "v": 120
    },
    {
      "midi": 36,
      "hit": false,
      "t": 105819.61216666645,
      "d": 20.491791666659992,
      "v": 92
    },
    {
      "midi": 70,
      "hit": false,
      "t": 105819.61216666666,
      "d": 1393.4418333333306,
      "v": 117
    },
    {
      "midi": 70,
      "hit": false,
      "t": 105819.61216666666,
      "d": 1393.4418333333306,
      "v": 100
    },
    {
      "midi": 75,
      "hit": false,
      "t": 105819.61216666667,
      "d": 491.8029999999999,
      "v": 110
    },
    {
      "midi": 42,
      "hit": false,
      "t": 106311.41516666645,
      "d": 20.491791666659992,
      "v": 120
    },
    {
      "midi": 36,
      "hit": false,
      "t": 106311.41516666645,
      "d": 20.491791666659992,
      "v": 92
    },
    {
      "midi": 27,
      "hit": false,
      "t": 106311.41516666656,
      "d": 2868.8508333333302,
      "v": 105
    },
    {
      "midi": 68,
      "hit": false,
      "t": 106311.41516666666,
      "d": 3934.423999999999,
      "v": 60
    },
    {
      "midi": 61,
      "hit": false,
      "t": 106311.41516666666,
      "d": 3934.423999999999,
      "v": 60
    },
    {
      "midi": 65,
      "hit": false,
      "t": 106311.41516666666,
      "d": 3934.423999999999,
      "v": 60
    },
    {
      "midi": 58,
      "hit": false,
      "t": 106311.41516666666,
      "d": 3934.423999999999,
      "v": 110
    },
    {
      "midi": 61,
      "hit": false,
      "t": 106311.41516666666,
      "d": 3934.423999999999,
      "v": 110
    },
    {
      "midi": 65,
      "hit": false,
      "t": 106311.41516666666,
      "d": 3934.423999999999,
      "v": 110
    },
    {
      "midi": 61,
      "hit": false,
      "t": 106311.41516666667,
      "d": 983.6059999999998,
      "v": 85
    },
    {
      "midi": 65,
      "hit": false,
      "t": 106311.41516666667,
      "d": 983.6059999999998,
      "v": 85
    },
    {
      "midi": 77,
      "hit": false,
      "t": 106311.41516666667,
      "d": 983.6059999999998,
      "v": 110
    },
    {
      "midi": 42,
      "hit": false,
      "t": 106803.21816666645,
      "d": 20.491791666659992,
      "v": 120
    },
    {
      "midi": 42,
      "hit": false,
      "t": 107295.02116666645,
      "d": 20.491791666659992,
      "v": 120
    },
    {
      "midi": 40,
      "hit": false,
      "t": 107295.02116666645,
      "d": 20.491791666659992,
      "v": 120
    },
    {
      "midi": 73,
      "hit": false,
      "t": 107295.02116666666,
      "d": 901.6388333333307,
      "v": 127
    },
    {
      "midi": 73,
      "hit": false,
      "t": 107295.02116666666,
      "d": 901.6388333333307,
      "v": 110
    },
    {
      "midi": 61,
      "hit": false,
      "t": 107295.02116666667,
      "d": 983.6059999999998,
      "v": 81
    },
    {
      "midi": 65,
      "hit": false,
      "t": 107295.02116666667,
      "d": 983.6059999999998,
      "v": 81
    },
    {
      "midi": 73,
      "hit": false,
      "t": 107295.02116666667,
      "d": 983.6059999999998,
      "v": 110
    },
    {
      "midi": 42,
      "hit": false,
      "t": 107786.82416666645,
      "d": 20.491791666659992,
      "v": 120
    },
    {
      "midi": 36,
      "hit": false,
      "t": 107786.82416666645,
      "d": 20.491791666659992,
      "v": 92
    },
    {
      "midi": 42,
      "hit": false,
      "t": 108278.62716666645,
      "d": 20.491791666659992,
      "v": 120
    },
    {
      "midi": 36,
      "hit": false,
      "t": 108278.62716666645,
      "d": 20.491791666659992,
      "v": 120
    },
    {
      "midi": 77,
      "hit": false,
      "t": 108278.62716666666,
      "d": 901.6388333333307,
      "v": 127
    },
    {
      "midi": 77,
      "hit": false,
      "t": 108278.62716666666,
      "d": 901.6388333333307,
      "v": 110
    },
    {
      "midi": 61,
      "hit": false,
      "t": 108278.62716666667,
      "d": 1475.4089999999997,
      "v": 77
    },
    {
      "midi": 65,
      "hit": false,
      "t": 108278.62716666667,
      "d": 1475.4089999999997,
      "v": 77
    },
    {
      "midi": 80,
      "hit": false,
      "t": 108278.62716666667,
      "d": 983.6059999999998,
      "v": 110
    },
    {
      "midi": 42,
      "hit": false,
      "t": 108770.43016666645,
      "d": 20.491791666659992,
      "v": 120
    },
    {
      "midi": 37,
      "hit": false,
      "t": 108770.43016666645,
      "d": 20.491791666659992,
      "v": 120
    },
    {
      "midi": 40,
      "hit": false,
      "t": 109262.23316666645,
      "d": 20.491791666659992,
      "v": 120
    },
    {
      "midi": 46,
      "hit": false,
      "t": 109262.23316666645,
      "d": 20.491791666659992,
      "v": 120
    },
    {
      "midi": 83,
      "hit": false,
      "t": 109262.23316666645,
      "d": 20.491791666659992,
      "v": 78
    },
    {
      "midi": 34,
      "hit": false,
      "t": 109262.23316666656,
      "d": 901.6388333333307,
      "v": 115
    },
    {
      "midi": 79,
      "hit": false,
      "t": 109262.23316666666,
      "d": 901.6388333333307,
      "v": 127
    },
    {
      "midi": 79,
      "hit": false,
      "t": 109262.23316666666,
      "d": 901.6388333333307,
      "v": 110
    },
    {
      "midi": 82,
      "hit": false,
      "t": 109262.23316666667,
      "d": 983.6059999999998,
      "v": 110
    },
    {
      "midi": 42,
      "hit": false,
      "t": 110245.83916666645,
      "d": 20.491791666659992,
      "v": 120
    },
    {
      "midi": 36,
      "hit": false,
      "t": 110245.83916666645,
      "d": 20.491791666659992,
      "v": 92
    },
    {
      "midi": 32,
      "hit": false,
      "t": 110245.83916666656,
      "d": 3401.6374166666646,
      "v": 105
    },
    {
      "midi": 75,
      "hit": false,
      "t": 110245.83916666666,
      "d": 901.6388333333307,
      "v": 117
    },
    {
      "midi": 67,
      "hit": false,
      "t": 110245.83916666666,
      "d": 3934.423999999999,
      "v": 60
    },
    {
      "midi": 60,
      "hit": false,
      "t": 110245.83916666666,
      "d": 3934.423999999999,
      "v": 60
    },
    {
      "midi": 63,
      "hit": false,
      "t": 110245.83916666666,
      "d": 3934.423999999999,
      "v": 60
    },
    {
      "midi": 63,
      "hit": false,
      "t": 110245.83916666666,
      "d": 2459.0149999999994,
      "v": 110
    },
    {
      "midi": 60,
      "hit": false,
      "t": 110245.83916666666,
      "d": 3442.620999999999,
      "v": 110
    },
    {
      "midi": 67,
      "hit": false,
      "t": 110245.83916666666,
      "d": 3934.423999999999,
      "v": 110
    },
    {
      "midi": 70,
      "hit": false,
      "t": 110245.83916666666,
      "d": 7868.847999999765,
      "v": 95
    },
    {
      "midi": 75,
      "hit": false,
      "t": 110245.83916666666,
      "d": 901.6388333333307,
      "v": 100
    },
    {
      "midi": 63,
      "hit": false,
      "t": 110245.83916666667,
      "d": 983.6059999999998,
      "v": 100
    },
    {
      "midi": 67,
      "hit": false,
      "t": 110245.83916666667,
      "d": 983.6059999999998,
      "v": 100
    },
    {
      "midi": 79,
      "hit": false,
      "t": 110245.83916666667,
      "d": 983.6059999999998,
      "v": 110
    },
    {
      "midi": 42,
      "hit": false,
      "t": 110737.64216666645,
      "d": 20.491791666659992,
      "v": 120
    },
    {
      "midi": 42,
      "hit": false,
      "t": 111229.44516666645,
      "d": 20.491791666659992,
      "v": 120
    },
    {
      "midi": 40,
      "hit": false,
      "t": 111229.44516666645,
      "d": 20.491791666659992,
      "v": 120
    },
    {
      "midi": 77,
      "hit": false,
      "t": 111229.44516666666,
      "d": 450.81941666666535,
      "v": 127
    },
    {
      "midi": 77,
      "hit": false,
      "t": 111229.44516666666,
      "d": 450.81941666666535,
      "v": 110
    },
    {
      "midi": 63,
      "hit": false,
      "t": 111229.44516666667,
      "d": 983.6059999999998,
      "v": 96
    },
    {
      "midi": 67,
      "hit": false,
      "t": 111229.44516666667,
      "d": 983.6059999999998,
      "v": 96
    },
    {
      "midi": 42,
      "hit": false,
      "t": 111721.24816666645,
      "d": 20.491791666659992,
      "v": 120
    },
    {
      "midi": 36,
      "hit": false,
      "t": 111721.24816666645,
      "d": 20.491791666659992,
      "v": 92
    },
    {
      "midi": 75,
      "hit": false,
      "t": 111721.24816666666,
      "d": 901.6388333333307,
      "v": 127
    },
    {
      "midi": 56,
      "hit": false,
      "t": 111721.24816666666,
      "d": 983.6059999999998,
      "v": 110
    },
    {
      "midi": 75,
      "hit": false,
      "t": 111721.24816666666,
      "d": 901.6388333333307,
      "v": 110
    },
    {
      "midi": 42,
      "hit": false,
      "t": 112213.05116666645,
      "d": 20.491791666659992,
      "v": 120
    },
    {
      "midi": 36,
      "hit": false,
      "t": 112213.05116666645,
      "d": 20.491791666659992,
      "v": 120
    },
    {
      "midi": 63,
      "hit": false,
      "t": 112213.05116666667,
      "d": 983.6059999999998,
      "v": 92
    },
    {
      "midi": 67,
      "hit": false,
      "t": 112213.05116666667,
      "d": 983.6059999999998,
      "v": 92
    },
    {
      "midi": 60,
      "hit": false,
      "t": 112213.05116666669,
      "d": 1967.2119999999995,
      "v": 110
    },
    {
      "midi": 63,
      "hit": false,
      "t": 112213.05116666669,
      "d": 1967.2119999999995,
      "v": 110
    },
    {
      "midi": 68,
      "hit": false,
      "t": 112213.05116666669,
      "d": 1967.2119999999995,
      "v": 110
    },
    {
      "midi": 42,
      "hit": false,
      "t": 112704.85416666645,
      "d": 20.491791666659992,
      "v": 120
    },
    {
      "midi": 72,
      "hit": false,
      "t": 112704.85416666666,
      "d": 450.81941666666535,
      "v": 127
    },
    {
      "midi": 63,
      "hit": false,
      "t": 112704.85416666666,
      "d": 491.8029999999999,
      "v": 110
    },
    {
      "midi": 72,
      "hit": false,
      "t": 112704.85416666666,
      "d": 450.81941666666535,
      "v": 110
    },
    {
      "midi": 42,
      "hit": false,
      "t": 113196.65716666645,
      "d": 20.491791666659992,
      "v": 120
    },
    {
      "midi": 40,
      "hit": false,
      "t": 113196.65716666645,
      "d": 20.491791666659992,
      "v": 120
    },
    {
      "midi": 83,
      "hit": false,
      "t": 113196.65716666645,
      "d": 20.491791666659992,
      "v": 78
    },
    {
      "midi": 73,
      "hit": false,
      "t": 113196.65716666666,
      "d": 450.81941666666535,
      "v": 127
    },
    {
      "midi": 61,
      "hit": false,
      "t": 113196.65716666666,
      "d": 491.8029999999999,
      "v": 110
    },
    {
      "midi": 73,
      "hit": false,
      "t": 113196.65716666666,
      "d": 450.81941666666535,
      "v": 110
    },
    {
      "midi": 63,
      "hit": false,
      "t": 113196.65716666667,
      "d": 983.6059999999998,
      "v": 88
    },
    {
      "midi": 67,
      "hit": false,
      "t": 113196.65716666667,
      "d": 983.6059999999998,
      "v": 88
    },
    {
      "midi": 42,
      "hit": false,
      "t": 113688.46016666645,
      "d": 20.491791666659992,
      "v": 120
    },
    {
      "midi": 36,
      "hit": false,
      "t": 113688.46016666645,
      "d": 20.491791666659992,
      "v": 92
    },
    {
      "midi": 27,
      "hit": false,
      "t": 113688.46016666655,
      "d": 450.81941666666535,
      "v": 115
    },
    {
      "midi": 74,
      "hit": false,
      "t": 113688.46016666666,
      "d": 450.81941666666535,
      "v": 127
    },
    {
      "midi": 60,
      "hit": false,
      "t": 113688.46016666666,
      "d": 1967.2119999999995,
      "v": 110
    },
    {
      "midi": 74,
      "hit": false,
      "t": 113688.46016666666,
      "d": 450.81941666666535,
      "v": 110
    },
    {
      "midi": 42,
      "hit": false,
      "t": 114180.26316666645,
      "d": 20.491791666659992,
      "v": 120
    },
    {
      "midi": 36,
      "hit": false,
      "t": 114180.26316666645,
      "d": 20.491791666659992,
      "v": 92
    },
    {
      "midi": 32,
      "hit": false,
      "t": 114180.26316666655,
      "d": 2868.8508333333302,
      "v": 105
    },
    {
      "midi": 75,
      "hit": false,
      "t": 114180.26316666666,
      "d": 1475.4089999999997,
      "v": 117
    },
    {
      "midi": 67,
      "hit": false,
      "t": 114180.26316666666,
      "d": 3934.423999999999,
      "v": 60
    },
    {
      "midi": 60,
      "hit": false,
      "t": 114180.26316666666,
      "d": 3934.423999999999,
      "v": 60
    },
    {
      "midi": 63,
      "hit": false,
      "t": 114180.26316666666,
      "d": 3934.423999999999,
      "v": 60
    },
    {
      "midi": 75,
      "hit": false,
      "t": 114180.26316666666,
      "d": 1475.4089999999997,
      "v": 100
    },
    {
      "midi": 63,
      "hit": false,
      "t": 114180.26316666667,
      "d": 983.6059999999998,
      "v": 85
    },
    {
      "midi": 67,
      "hit": false,
      "t": 114180.26316666667,
      "d": 983.6059999999998,
      "v": 85
    },
    {
      "midi": 60,
      "hit": false,
      "t": 114180.26316666669,
      "d": 1967.2119999999995,
      "v": 110
    },
    {
      "midi": 63,
      "hit": false,
      "t": 114180.26316666669,
      "d": 1967.2119999999995,
      "v": 110
    },
    {
      "midi": 67,
      "hit": false,
      "t": 114180.26316666669,
      "d": 1967.2119999999995,
      "v": 110
    },
    {
      "midi": 42,
      "hit": false,
      "t": 114672.06616666645,
      "d": 20.491791666659992,
      "v": 120
    },
    {
      "midi": 42,
      "hit": false,
      "t": 115163.86916666645,
      "d": 20.491791666659992,
      "v": 120
    },
    {
      "midi": 40,
      "hit": false,
      "t": 115163.86916666645,
      "d": 20.491791666659992,
      "v": 120
    },
    {
      "midi": 63,
      "hit": false,
      "t": 115163.86916666667,
      "d": 983.6059999999998,
      "v": 81
    },
    {
      "midi": 67,
      "hit": false,
      "t": 115163.86916666667,
      "d": 983.6059999999998,
      "v": 81
    },
    {
      "midi": 42,
      "hit": false,
      "t": 115655.67216666645,
      "d": 20.491791666659992,
      "v": 120
    },
    {
      "midi": 36,
      "hit": false,
      "t": 115655.67216666645,
      "d": 20.491791666659992,
      "v": 92
    },
    {
      "midi": 56,
      "hit": false,
      "t": 115655.67216666666,
      "d": 1475.4089999999997,
      "v": 110
    },
    {
      "midi": 42,
      "hit": false,
      "t": 116147.47516666645,
      "d": 20.491791666659992,
      "v": 120
    },
    {
      "midi": 36,
      "hit": false,
      "t": 116147.47516666645,
      "d": 20.491791666659992,
      "v": 120
    },
    {
      "midi": 72,
      "hit": false,
      "t": 116147.47516666666,
      "d": 901.6388333333307,
      "v": 127
    },
    {
      "midi": 72,
      "hit": false,
      "t": 116147.47516666666,
      "d": 901.6388333333307,
      "v": 110
    },
    {
      "midi": 63,
      "hit": false,
      "t": 116147.47516666667,
      "d": 1475.4089999999997,
      "v": 77
    },
    {
      "midi": 67,
      "hit": false,
      "t": 116147.47516666667,
      "d": 1475.4089999999997,
      "v": 77
    },
    {
      "midi": 56,
      "hit": false,
      "t": 116147.47516666669,
      "d": 983.6059999999998,
      "v": 110
    },
    {
      "midi": 60,
      "hit": false,
      "t": 116147.47516666669,
      "d": 983.6059999999998,
      "v": 110
    },
    {
      "midi": 63,
      "hit": false,
      "t": 116147.47516666669,
      "d": 983.6059999999998,
      "v": 110
    },
    {
      "midi": 42,
      "hit": false,
      "t": 116639.27816666645,
      "d": 20.491791666659992,
      "v": 120
    },
    {
      "midi": 40,
      "hit": false,
      "t": 116639.27816666645,
      "d": 20.491791666659992,
      "v": 120
    },
    {
      "midi": 42,
      "hit": false,
      "t": 117131.08116666645,
      "d": 20.491791666659992,
      "v": 120
    },
    {
      "midi": 83,
      "hit": false,
      "t": 117131.08116666645,
      "d": 20.491791666659992,
      "v": 78
    },
    {
      "midi": 36,
      "hit": false,
      "t": 117131.08116666645,
      "d": 20.491791666659992,
      "v": 92
    },
    {
      "midi": 34,
      "hit": false,
      "t": 117131.08116666655,
      "d": 901.6388333333307,
      "v": 115
    },
    {
      "midi": 74,
      "hit": false,
      "t": 117131.08116666666,
      "d": 901.6388333333307,
      "v": 127
    },
    {
      "midi": 58,
      "hit": false,
      "t": 117131.08116666666,
      "d": 983.6059999999998,
      "v": 110
    },
    {
      "midi": 74,
      "hit": false,
      "t": 117131.08116666666,
      "d": 901.6388333333307,
      "v": 110
    },
    {
      "midi": 58,
      "hit": false,
      "t": 117131.08116666669,
      "d": 983.6059999999998,
      "v": 110
    },
    {
      "midi": 62,
      "hit": false,
      "t": 117131.08116666669,
      "d": 983.6059999999998,
      "v": 110
    },
    {
      "midi": 65,
      "hit": false,
      "t": 117131.08116666669,
      "d": 983.6059999999998,
      "v": 110
    },
    {
      "midi": 46,
      "hit": false,
      "t": 117622.88416666645,
      "d": 20.491791666659992,
      "v": 120
    },
    {
      "midi": 42,
      "hit": false,
      "t": 118114.68716666645,
      "d": 20.491791666659992,
      "v": 120
    },
    {
      "midi": 36,
      "hit": false,
      "t": 118114.68716666645,
      "d": 20.491791666659992,
      "v": 92
    },
    {
      "midi": 36,
      "hit": false,
      "t": 118114.68716666655,
      "d": 2377.0478333333303,
      "v": 105
    },
    {
      "midi": 75,
      "hit": false,
      "t": 118114.68716666666,
      "d": 1352.458249999996,
      "v": 117
    },
    {
      "midi": 60,
      "hit": false,
      "t": 118114.68716666666,
      "d": 3934.423999999999,
      "v": 60
    },
    {
      "midi": 63,
      "hit": false,
      "t": 118114.68716666666,
      "d": 3934.423999999999,
      "v": 60
    },
    {
      "midi": 67,
      "hit": false,
      "t": 118114.68716666666,
      "d": 3934.423999999999,
      "v": 60
    },
    {
      "midi": 60,
      "hit": false,
      "t": 118114.68716666666,
      "d": 3934.423999999999,
      "v": 110
    },
    {
      "midi": 63,
      "hit": false,
      "t": 118114.68716666666,
      "d": 3934.423999999999,
      "v": 110
    },
    {
      "midi": 67,
      "hit": false,
      "t": 118114.68716666666,
      "d": 3934.423999999999,
      "v": 110
    },
    {
      "midi": 75,
      "hit": false,
      "t": 118114.68716666666,
      "d": 1352.458249999996,
      "v": 100
    },
    {
      "midi": 63,
      "hit": false,
      "t": 118114.68716666667,
      "d": 983.6059999999998,
      "v": 100
    },
    {
      "midi": 67,
      "hit": false,
      "t": 118114.68716666667,
      "d": 983.6059999999998,
      "v": 100
    },
    {
      "midi": 67,
      "hit": false,
      "t": 118114.68716666668,
      "d": 2459.0149999999994,
      "v": 110
    },
    {
      "midi": 60,
      "hit": false,
      "t": 118114.68716666668,
      "d": 3934.423999999999,
      "v": 110
    },
    {
      "midi": 63,
      "hit": false,
      "t": 118114.68716666668,
      "d": 3934.423999999999,
      "v": 110
    },
    {
      "midi": 42,
      "hit": false,
      "t": 118606.49016666645,
      "d": 20.491791666659992,
      "v": 120
    },
    {
      "midi": 42,
      "hit": false,
      "t": 119098.29316666645,
      "d": 20.491791666659992,
      "v": 120
    },
    {
      "midi": 40,
      "hit": false,
      "t": 119098.29316666645,
      "d": 20.491791666659992,
      "v": 120
    },
    {
      "midi": 63,
      "hit": false,
      "t": 119098.29316666667,
      "d": 983.6059999999998,
      "v": 96
    },
    {
      "midi": 67,
      "hit": false,
      "t": 119098.29316666667,
      "d": 983.6059999999998,
      "v": 96
    },
    {
      "midi": 42,
      "hit": false,
      "t": 119590.09616666645,
      "d": 20.491791666659992,
      "v": 120
    },
    {
      "midi": 36,
      "hit": false,
      "t": 119590.09616666645,
      "d": 20.491791666659992,
      "v": 92
    },
    {
      "midi": 75,
      "hit": false,
      "t": 119590.09616666666,
      "d": 450.81941666666535,
      "v": 127
    },
    {
      "midi": 75,
      "hit": false,
      "t": 119590.09616666666,
      "d": 450.81941666666535,
      "v": 110
    },
    {
      "midi": 42,
      "hit": false,
      "t": 120081.89916666645,
      "d": 20.491791666659992,
      "v": 120
    },
    {
      "midi": 36,
      "hit": false,
      "t": 120081.89916666645,
      "d": 20.491791666659992,
      "v": 120
    },
    {
      "midi": 75,
      "hit": false,
      "t": 120081.89916666666,
      "d": 676.229124999998,
      "v": 127
    },
    {
      "midi": 75,
      "hit": false,
      "t": 120081.89916666666,
      "d": 676.229124999998,
      "v": 110
    },
    {
      "midi": 63,
      "hit": false,
      "t": 120081.89916666667,
      "d": 983.6059999999998,
      "v": 92
    },
    {
      "midi": 67,
      "hit": false,
      "t": 120081.89916666667,
      "d": 983.6059999999998,
      "v": 92
    },
    {
      "midi": 42,
      "hit": false,
      "t": 120573.70216666645,
      "d": 20.491791666659992,
      "v": 120
    },
    {
      "midi": 27,
      "hit": false,
      "t": 120573.70216666655,
      "d": 450.81941666666535,
      "v": 115
    },
    {
      "midi": 65,
      "hit": false,
      "t": 120573.70216666668,
      "d": 491.8029999999999,
      "v": 110
    },
    {
      "midi": 74,
      "hit": false,
      "t": 120819.60366666665,
      "d": 676.229124999998,
      "v": 127
    },
    {
      "midi": 74,
      "hit": false,
      "t": 120819.60366666665,
      "d": 676.229124999998,
      "v": 110
    },
    {
      "midi": 42,
      "hit": false,
      "t": 121065.50516666645,
      "d": 20.491791666659992,
      "v": 120
    },
    {
      "midi": 40,
      "hit": false,
      "t": 121065.50516666645,
      "d": 20.491791666659992,
      "v": 120
    },
    {
      "midi": 83,
      "hit": false,
      "t": 121065.50516666645,
      "d": 20.491791666659992,
      "v": 78
    },
    {
      "midi": 31,
      "hit": false,
      "t": 121065.50516666655,
      "d": 450.81941666666535,
      "v": 115
    },
    {
      "midi": 63,
      "hit": false,
      "t": 121065.50516666667,
      "d": 983.6059999999998,
      "v": 88
    },
    {
      "midi": 67,
      "hit": false,
      "t": 121065.50516666667,
      "d": 983.6059999999998,
      "v": 88
    },
    {
      "midi": 79,
      "hit": false,
      "t": 121065.50516666667,
      "d": 491.8029999999999,
      "v": 110
    },
    {
      "midi": 67,
      "hit": false,
      "t": 121065.50516666668,
      "d": 491.8029999999999,
      "v": 110
    },
    {
      "midi": 42,
      "hit": false,
      "t": 121557.30816666645,
      "d": 20.491791666659992,
      "v": 120
    },
    {
      "midi": 36,
      "hit": false,
      "t": 121557.30816666645,
      "d": 20.491791666659992,
      "v": 92
    },
    {
      "midi": 30,
      "hit": false,
      "t": 121557.30816666655,
      "d": 450.81941666666535,
      "v": 115
    },
    {
      "midi": 72,
      "hit": false,
      "t": 121557.30816666664,
      "d": 1393.4418333333306,
      "v": 117
    },
    {
      "midi": 72,
      "hit": false,
      "t": 121557.30816666664,
      "d": 1393.4418333333306,
      "v": 100
    },
    {
      "midi": 82,
      "hit": false,
      "t": 121557.30816666667,
      "d": 491.8029999999999,
      "v": 110
    },
    {
      "midi": 70,
      "hit": false,
      "t": 121557.30816666668,
      "d": 491.8029999999999,
      "v": 110
    },
    {
      "midi": 42,
      "hit": false,
      "t": 122049.11116666645,
      "d": 20.491791666659992,
      "v": 120
    },
    {
      "midi": 36,
      "hit": false,
      "t": 122049.11116666645,
      "d": 20.491791666659992,
      "v": 92
    },
    {
      "midi": 29,
      "hit": false,
      "t": 122049.11116666655,
      "d": 2868.8508333333302,
      "v": 105
    },
    {
      "midi": 60,
      "hit": false,
      "t": 122049.11116666665,
      "d": 3934.423999999999,
      "v": 60
    },
    {
      "midi": 63,
      "hit": false,
      "t": 122049.11116666665,
      "d": 3934.423999999999,
      "v": 60
    },
    {
      "midi": 67,
      "hit": false,
      "t": 122049.11116666665,
      "d": 3934.423999999999,
      "v": 60
    },
    {
      "midi": 60,
      "hit": false,
      "t": 122049.11116666665,
      "d": 3934.423999999999,
      "v": 110
    },
    {
      "midi": 63,
      "hit": false,
      "t": 122049.11116666665,
      "d": 3934.423999999999,
      "v": 110
    },
    {
      "midi": 67,
      "hit": false,
      "t": 122049.11116666665,
      "d": 3934.423999999999,
      "v": 110
    },
    {
      "midi": 63,
      "hit": false,
      "t": 122049.11116666667,
      "d": 983.6059999999998,
      "v": 85
    },
    {
      "midi": 67,
      "hit": false,
      "t": 122049.11116666667,
      "d": 983.6059999999998,
      "v": 85
    },
    {
      "midi": 84,
      "hit": false,
      "t": 122049.11116666667,
      "d": 983.6059999999998,
      "v": 110
    },
    {
      "midi": 63,
      "hit": false,
      "t": 122049.11116666668,
      "d": 3934.423999999999,
      "v": 110
    },
    {
      "midi": 69,
      "hit": false,
      "t": 122049.11116666668,
      "d": 3934.423999999999,
      "v": 110
    },
    {
      "midi": 72,
      "hit": false,
      "t": 122049.11116666668,
      "d": 3934.423999999999,
      "v": 110
    },
    {
      "midi": 42,
      "hit": false,
      "t": 122540.91416666645,
      "d": 20.491791666659992,
      "v": 120
    },
    {
      "midi": 42,
      "hit": false,
      "t": 123032.71716666645,
      "d": 20.491791666659992,
      "v": 120
    },
    {
      "midi": 40,
      "hit": false,
      "t": 123032.71716666645,
      "d": 20.491791666659992,
      "v": 120
    },
    {
      "midi": 74,
      "hit": false,
      "t": 123032.71716666664,
      "d": 901.6388333333307,
      "v": 127
    },
    {
      "midi": 74,
      "hit": false,
      "t": 123032.71716666664,
      "d": 901.6388333333307,
      "v": 110
    },
    {
      "midi": 63,
      "hit": false,
      "t": 123032.71716666667,
      "d": 983.6059999999998,
      "v": 81
    },
    {
      "midi": 67,
      "hit": false,
      "t": 123032.71716666667,
      "d": 983.6059999999998,
      "v": 81
    },
    {
      "midi": 81,
      "hit": false,
      "t": 123032.71716666667,
      "d": 983.6059999999998,
      "v": 110
    },
    {
      "midi": 42,
      "hit": false,
      "t": 123524.52016666645,
      "d": 20.491791666659992,
      "v": 120
    },
    {
      "midi": 36,
      "hit": false,
      "t": 123524.52016666645,
      "d": 20.491791666659992,
      "v": 92
    },
    {
      "midi": 42,
      "hit": false,
      "t": 124016.32316666645,
      "d": 20.491791666659992,
      "v": 120
    },
    {
      "midi": 36,
      "hit": false,
      "t": 124016.32316666645,
      "d": 20.491791666659992,
      "v": 120
    },
    {
      "midi": 75,
      "hit": false,
      "t": 124016.32316666664,
      "d": 450.81941666666535,
      "v": 127
    },
    {
      "midi": 75,
      "hit": false,
      "t": 124016.32316666664,
      "d": 450.81941666666535,
      "v": 110
    },
    {
      "midi": 63,
      "hit": false,
      "t": 124016.32316666667,
      "d": 1475.4089999999997,
      "v": 77
    },
    {
      "midi": 67,
      "hit": false,
      "t": 124016.32316666667,
      "d": 1475.4089999999997,
      "v": 77
    },
    {
      "midi": 75,
      "hit": false,
      "t": 124016.32316666667,
      "d": 983.6059999999998,
      "v": 110
    },
    {
      "midi": 42,
      "hit": false,
      "t": 124508.12616666645,
      "d": 20.491791666659992,
      "v": 120
    },
    {
      "midi": 37,
      "hit": false,
      "t": 124508.12616666645,
      "d": 20.491791666659992,
      "v": 120
    },
    {
      "midi": 77,
      "hit": false,
      "t": 124508.12616666664,
      "d": 901.6388333333307,
      "v": 127
    },
    {
      "midi": 77,
      "hit": false,
      "t": 124508.12616666664,
      "d": 901.6388333333307,
      "v": 110
    },
    {
      "midi": 40,
      "hit": false,
      "t": 124999.92916666645,
      "d": 20.491791666659992,
      "v": 120
    },
    {
      "midi": 46,
      "hit": false,
      "t": 124999.92916666645,
      "d": 20.491791666659992,
      "v": 120
    },
    {
      "midi": 83,
      "hit": false,
      "t": 124999.92916666645,
      "d": 20.491791666659992,
      "v": 78
    },
    {
      "midi": 29,
      "hit": false,
      "t": 124999.92916666655,
      "d": 901.6388333333307,
      "v": 115
    },
    {
      "midi": 77,
      "hit": false,
      "t": 124999.92916666667,
      "d": 983.6059999999998,
      "v": 110
    },
    {
      "midi": 76,
      "hit": false,
      "t": 125491.73216666664,
      "d": 450.81941666666535,
      "v": 127
    },
    {
      "midi": 76,
      "hit": false,
      "t": 125491.73216666664,
      "d": 450.81941666666535,
      "v": 110
    },
    {
      "midi": 42,
      "hit": false,
      "t": 125983.53516666645,
      "d": 20.491791666659992,
      "v": 120
    },
    {
      "midi": 49,
      "hit": false,
      "t": 125983.53516666645,
      "d": 20.491791666659992,
      "v": 64
    },
    {
      "midi": 36,
      "hit": false,
      "t": 125983.53516666645,
      "d": 20.491791666659992,
      "v": 92
    },
    {
      "midi": 34,
      "hit": false,
      "t": 125983.53516666655,
      "d": 1434.4254166666651,
      "v": 105
    },
    {
      "midi": 77,
      "hit": false,
      "t": 125983.53516666664,
      "d": 4918.029999999999,
      "v": 117
    },
    {
      "midi": 77,
      "hit": false,
      "t": 125983.53516666664,
      "d": 4918.029999999999,
      "v": 100
    },
    {
      "midi": 60,
      "hit": false,
      "t": 125983.53516666665,
      "d": 3442.620999999999,
      "v": 60
    },
    {
      "midi": 63,
      "hit": false,
      "t": 125983.53516666665,
      "d": 3442.620999999999,
      "v": 60
    },
    {
      "midi": 68,
      "hit": false,
      "t": 125983.53516666665,
      "d": 3442.620999999999,
      "v": 60
    },
    {
      "midi": 60,
      "hit": false,
      "t": 125983.53516666665,
      "d": 3442.620999999999,
      "v": 110
    },
    {
      "midi": 63,
      "hit": false,
      "t": 125983.53516666665,
      "d": 3442.620999999999,
      "v": 110
    },
    {
      "midi": 68,
      "hit": false,
      "t": 125983.53516666665,
      "d": 3442.620999999999,
      "v": 110
    },
    {
      "midi": 60,
      "hit": false,
      "t": 125983.53516666667,
      "d": 983.6059999999998,
      "v": 100
    },
    {
      "midi": 65,
      "hit": false,
      "t": 125983.53516666667,
      "d": 983.6059999999998,
      "v": 100
    },
    {
      "midi": 82,
      "hit": false,
      "t": 125983.53516666667,
      "d": 983.6059999999998,
      "v": 110
    },
    {
      "midi": 58,
      "hit": false,
      "t": 125983.53516666668,
      "d": 245.90150000000722,
      "v": 118
    },
    {
      "midi": 70,
      "hit": false,
      "t": 125983.53516666668,
      "d": 245.90150000000722,
      "v": 118
    },
    {
      "midi": 42,
      "hit": false,
      "t": 126475.33816666645,
      "d": 20.491791666659992,
      "v": 120
    },
    {
      "midi": 60,
      "hit": false,
      "t": 126475.3381666667,
      "d": 245.90150000000722,
      "v": 118
    },
    {
      "midi": 72,
      "hit": false,
      "t": 126475.3381666667,
      "d": 245.90150000000722,
      "v": 118
    },
    {
      "midi": 42,
      "hit": false,
      "t": 126967.14116666645,
      "d": 20.491791666659992,
      "v": 120
    },
    {
      "midi": 40,
      "hit": false,
      "t": 126967.14116666645,
      "d": 20.491791666659992,
      "v": 120
    },
    {
      "midi": 60,
      "hit": false,
      "t": 126967.14116666667,
      "d": 983.6059999999998,
      "v": 96
    },
    {
      "midi": 65,
      "hit": false,
      "t": 126967.14116666667,
      "d": 983.6059999999998,
      "v": 96
    },
    {
      "midi": 67,
      "hit": false,
      "t": 126967.14116666671,
      "d": 245.90150000000722,
      "v": 118
    },
    {
      "midi": 79,
      "hit": false,
      "t": 126967.14116666671,
      "d": 245.90150000000722,
      "v": 118
    },
    {
      "midi": 42,
      "hit": false,
      "t": 127458.94416666645,
      "d": 20.491791666659992,
      "v": 120
    },
    {
      "midi": 36,
      "hit": false,
      "t": 127458.94416666645,
      "d": 20.491791666659992,
      "v": 92
    },
    {
      "midi": 34,
      "hit": false,
      "t": 127458.94416666655,
      "d": 368.8522499999963,
      "v": 115
    },
    {
      "midi": 63,
      "hit": false,
      "t": 127458.94416666673,
      "d": 245.90150000000722,
      "v": 118
    },
    {
      "midi": 75,
      "hit": false,
      "t": 127458.94416666673,
      "d": 245.90150000000722,
      "v": 118
    },
    {
      "midi": 42,
      "hit": false,
      "t": 127950.74716666645,
      "d": 20.491791666659992,
      "v": 120
    },
    {
      "midi": 48,
      "hit": false,
      "t": 127950.74716666645,
      "d": 20.491791666659992,
      "v": 92
    },
    {
      "midi": 34,
      "hit": false,
      "t": 127950.74716666655,
      "d": 450.81941666666535,
      "v": 115
    },
    {
      "midi": 60,
      "hit": false,
      "t": 127950.74716666667,
      "d": 983.6059999999998,
      "v": 92
    },
    {
      "midi": 65,
      "hit": false,
      "t": 127950.74716666667,
      "d": 983.6059999999998,
      "v": 92
    },
    {
      "midi": 65,
      "hit": false,
      "t": 127950.74716666674,
      "d": 245.90150000000722,
      "v": 118
    },
    {
      "midi": 77,
      "hit": false,
      "t": 127950.74716666674,
      "d": 245.90150000000722,
      "v": 118
    },
    {
      "midi": 42,
      "hit": false,
      "t": 128442.55016666645,
      "d": 20.491791666659992,
      "v": 120
    },
    {
      "midi": 45,
      "hit": false,
      "t": 128442.55016666645,
      "d": 20.491791666659992,
      "v": 92
    },
    {
      "midi": 29,
      "hit": false,
      "t": 128442.55016666655,
      "d": 450.81941666666535,
      "v": 115
    },
    {
      "midi": 67,
      "hit": false,
      "t": 128442.55016666676,
      "d": 245.90150000000722,
      "v": 118
    },
    {
      "midi": 79,
      "hit": false,
      "t": 128442.55016666676,
      "d": 245.90150000000722,
      "v": 118
    },
    {
      "midi": 42,
      "hit": false,
      "t": 128934.35316666645,
      "d": 20.491791666659992,
      "v": 120
    },
    {
      "midi": 83,
      "hit": false,
      "t": 128934.35316666645,
      "d": 20.491791666659992,
      "v": 78
    },
    {
      "midi": 41,
      "hit": false,
      "t": 128934.35316666645,
      "d": 20.491791666659992,
      "v": 92
    },
    {
      "midi": 32,
      "hit": false,
      "t": 128934.35316666655,
      "d": 450.81941666666535,
      "v": 115
    },
    {
      "midi": 60,
      "hit": false,
      "t": 128934.35316666667,
      "d": 491.80300000001444,
      "v": 88
    },
    {
      "midi": 65,
      "hit": false,
      "t": 128934.35316666667,
      "d": 491.80300000001444,
      "v": 88
    },
    {
      "midi": 68,
      "hit": false,
      "t": 128934.35316666677,
      "d": 245.90150000000722,
      "v": 118
    },
    {
      "midi": 80,
      "hit": false,
      "t": 128934.35316666677,
      "d": 245.90150000000722,
      "v": 118
    },
    {
      "midi": 42,
      "hit": false,
      "t": 129426.15616666645,
      "d": 20.491791666659992,
      "v": 120
    },
    {
      "midi": 40,
      "hit": false,
      "t": 129426.15616666645,
      "d": 20.491791666659992,
      "v": 120
    },
    {
      "midi": 34,
      "hit": false,
      "t": 129426.15616666655,
      "d": 450.81941666666535,
      "v": 115
    },
    {
      "midi": 60,
      "hit": false,
      "t": 129426.15616666665,
      "d": 491.8029999999999,
      "v": 60
    },
    {
      "midi": 63,
      "hit": false,
      "t": 129426.15616666665,
      "d": 491.8029999999999,
      "v": 60
    },
    {
      "midi": 68,
      "hit": false,
      "t": 129426.15616666665,
      "d": 491.8029999999999,
      "v": 60
    },
    {
      "midi": 60,
      "hit": false,
      "t": 129426.15616666665,
      "d": 491.8029999999999,
      "v": 110
    },
    {
      "midi": 63,
      "hit": false,
      "t": 129426.15616666665,
      "d": 491.8029999999999,
      "v": 110
    },
    {
      "midi": 68,
      "hit": false,
      "t": 129426.15616666665,
      "d": 491.8029999999999,
      "v": 110
    },
    {
      "midi": 60,
      "hit": false,
      "t": 129426.15616666668,
      "d": 491.80300000001444,
      "v": 100
    },
    {
      "midi": 65,
      "hit": false,
      "t": 129426.15616666668,
      "d": 491.80300000001444,
      "v": 100
    },
    {
      "midi": 70,
      "hit": false,
      "t": 129426.15616666678,
      "d": 245.90150000000722,
      "v": 118
    },
    {
      "midi": 82,
      "hit": false,
      "t": 129426.15616666678,
      "d": 245.90150000000722,
      "v": 118
    },
    {
      "midi": 42,
      "hit": false,
      "t": 129917.95916666645,
      "d": 20.491791666659992,
      "v": 120
    },
    {
      "midi": 42,
      "hit": false,
      "t": 130409.76216666645,
      "d": 20.491791666659992,
      "v": 120
    },
    {
      "midi": 40,
      "hit": false,
      "t": 130409.76216666645,
      "d": 20.491791666659992,
      "v": 120
    },
    {
      "midi": 34,
      "hit": false,
      "t": 130409.76216666655,
      "d": 450.81941666666535,
      "v": 115
    },
    {
      "midi": 62,
      "hit": false,
      "t": 130409.76216666665,
      "d": 327.86866666666174,
      "v": 55
    },
    {
      "midi": 65,
      "hit": false,
      "t": 130409.76216666665,
      "d": 327.86866666666174,
      "v": 55
    },
    {
      "midi": 70,
      "hit": false,
      "t": 130409.76216666665,
      "d": 327.86866666666174,
      "v": 55
    },
    {
      "midi": 62,
      "hit": false,
      "t": 130409.76216666665,
      "d": 327.86866666666174,
      "v": 110
    },
    {
      "midi": 65,
      "hit": false,
      "t": 130409.76216666665,
      "d": 327.86866666666174,
      "v": 110
    },
    {
      "midi": 70,
      "hit": false,
      "t": 130409.76216666665,
      "d": 327.86866666666174,
      "v": 110
    },
    {
      "midi": 62,
      "hit": false,
      "t": 130409.7621666667,
      "d": 491.80300000001444,
      "v": 100
    },
    {
      "midi": 65,
      "hit": false,
      "t": 130409.7621666667,
      "d": 491.80300000001444,
      "v": 100
    },
    {
      "midi": 70,
      "hit": false,
      "t": 130409.7621666668,
      "d": 245.90150000000722,
      "v": 118
    },
    {
      "midi": 82,
      "hit": false,
      "t": 130409.7621666668,
      "d": 245.90150000000722,
      "v": 118
    },
    {
      "midi": 42,
      "hit": false,
      "t": 130901.56516666645,
      "d": 20.491791666659992,
      "v": 120
    },
    {
      "midi": 40,
      "hit": false,
      "t": 130901.56516666645,
      "d": 20.491791666659992,
      "v": 120
    },
    {
      "midi": 34,
      "hit": false,
      "t": 130901.56516666655,
      "d": 450.81941666666535,
      "v": 115
    },
    {
      "midi": 62,
      "hit": false,
      "t": 130901.56516666665,
      "d": 491.8029999999999,
      "v": 55
    },
    {
      "midi": 65,
      "hit": false,
      "t": 130901.56516666665,
      "d": 491.8029999999999,
      "v": 55
    },
    {
      "midi": 70,
      "hit": false,
      "t": 130901.56516666665,
      "d": 491.8029999999999,
      "v": 55
    },
    {
      "midi": 62,
      "hit": false,
      "t": 130901.56516666665,
      "d": 491.8029999999999,
      "v": 110
    },
    {
      "midi": 65,
      "hit": false,
      "t": 130901.56516666665,
      "d": 491.8029999999999,
      "v": 110
    },
    {
      "midi": 70,
      "hit": false,
      "t": 130901.56516666665,
      "d": 491.8029999999999,
      "v": 110
    },
    {
      "midi": 62,
      "hit": false,
      "t": 130901.56516666671,
      "d": 491.8029999999999,
      "v": 100
    },
    {
      "midi": 65,
      "hit": false,
      "t": 130901.56516666671,
      "d": 491.8029999999999,
      "v": 100
    },
    {
      "midi": 70,
      "hit": false,
      "t": 130901.56516666681,
      "d": 245.90150000000722,
      "v": 118
    },
    {
      "midi": 82,
      "hit": false,
      "t": 130901.56516666681,
      "d": 245.90150000000722,
      "v": 118
    },
    {
      "midi": 42,
      "hit": false,
      "t": 131885.17116666643,
      "d": 20.491791666659992,
      "v": 120
    },
    {
      "midi": 36,
      "hit": false,
      "t": 131885.17116666643,
      "d": 20.491791666659992,
      "v": 92
    },
    {
      "midi": 55,
      "hit": false,
      "t": 132335.99058333333,
      "d": 491.80300000001444,
      "v": 80
    },
    {
      "midi": 58,
      "hit": false,
      "t": 132335.99058333333,
      "d": 491.80300000001444,
      "v": 80
    },
    {
      "midi": 63,
      "hit": false,
      "t": 132335.99058333333,
      "d": 491.80300000001444,
      "v": 80
    },
    {
      "midi": 42,
      "hit": false,
      "t": 132376.97416666642,
      "d": 20.491791666659992,
      "v": 120
    },
    {
      "midi": 40,
      "hit": false,
      "t": 132376.97416666642,
      "d": 20.491791666659992,
      "v": 106
    },
    {
      "midi": 36,
      "hit": false,
      "t": 132376.97416666654,
      "d": 450.81941666666535,
      "v": 115
    },
    {
      "midi": 79,
      "hit": false,
      "t": 132376.97416666665,
      "d": 450.81941666666535,
      "v": 127
    },
    {
      "midi": 58,
      "hit": false,
      "t": 132376.97416666665,
      "d": 491.80300000001444,
      "v": 90
    },
    {
      "midi": 63,
      "hit": false,
      "t": 132376.97416666665,
      "d": 491.80300000001444,
      "v": 90
    },
    {
      "midi": 67,
      "hit": false,
      "t": 132376.97416666665,
      "d": 491.80300000001444,
      "v": 90
    },
    {
      "midi": 79,
      "hit": false,
      "t": 132376.97416666665,
      "d": 450.81941666666535,
      "v": 110
    },
    {
      "midi": 84,
      "hit": false,
      "t": 132376.97416666668,
      "d": 491.80300000001444,
      "v": 100
    },
    {
      "midi": 55,
      "hit": false,
      "t": 132827.79358333335,
      "d": 491.80300000001444,
      "v": 80
    },
    {
      "midi": 58,
      "hit": false,
      "t": 132827.79358333335,
      "d": 491.80300000001444,
      "v": 80
    },
    {
      "midi": 65,
      "hit": false,
      "t": 132827.79358333335,
      "d": 491.80300000001444,
      "v": 80
    },
    {
      "midi": 42,
      "hit": false,
      "t": 132868.7771666664,
      "d": 20.491791666659992,
      "v": 120
    },
    {
      "midi": 40,
      "hit": false,
      "t": 132868.7771666664,
      "d": 20.491791666659992,
      "v": 106
    },
    {
      "midi": 32,
      "hit": false,
      "t": 132868.77716666652,
      "d": 450.81941666666535,
      "v": 115
    },
    {
      "midi": 80,
      "hit": false,
      "t": 132868.77716666664,
      "d": 450.81941666666535,
      "v": 127
    },
    {
      "midi": 80,
      "hit": false,
      "t": 132868.77716666664,
      "d": 450.81941666666535,
      "v": 110
    },
    {
      "midi": 63,
      "hit": false,
      "t": 132868.77716666667,
      "d": 491.80300000001444,
      "v": 90
    },
    {
      "midi": 67,
      "hit": false,
      "t": 132868.77716666667,
      "d": 491.80300000001444,
      "v": 90
    },
    {
      "midi": 68,
      "hit": false,
      "t": 132868.77716666667,
      "d": 491.80300000001444,
      "v": 90
    },
    {
      "midi": 80,
      "hit": false,
      "t": 132868.7771666667,
      "d": 491.80300000001444,
      "v": 100
    },
    {
      "midi": 63,
      "hit": false,
      "t": 133319.59658333336,
      "d": 491.80300000001444,
      "v": 80
    },
    {
      "midi": 58,
      "hit": false,
      "t": 133319.59658333336,
      "d": 491.80300000001444,
      "v": 80
    },
    {
      "midi": 67,
      "hit": false,
      "t": 133319.59658333336,
      "d": 491.80300000001444,
      "v": 80
    },
    {
      "midi": 42,
      "hit": false,
      "t": 133360.5801666664,
      "d": 20.491791666659992,
      "v": 120
    },
    {
      "midi": 40,
      "hit": false,
      "t": 133360.5801666664,
      "d": 20.491791666659992,
      "v": 106
    },
    {
      "midi": 34,
      "hit": false,
      "t": 133360.5801666665,
      "d": 450.81941666666535,
      "v": 115
    },
    {
      "midi": 82,
      "hit": false,
      "t": 133360.58016666662,
      "d": 942.6224166666798,
      "v": 127
    },
    {
      "midi": 82,
      "hit": false,
      "t": 133360.58016666662,
      "d": 942.6224166666798,
      "v": 110
    },
    {
      "midi": 63,
      "hit": false,
      "t": 133360.58016666668,
      "d": 491.80300000001444,
      "v": 90
    },
    {
      "midi": 67,
      "hit": false,
      "t": 133360.58016666668,
      "d": 491.80300000001444,
      "v": 90
    },
    {
      "midi": 70,
      "hit": false,
      "t": 133360.58016666668,
      "d": 491.80300000001444,
      "v": 90
    },
    {
      "midi": 82,
      "hit": false,
      "t": 133360.5801666667,
      "d": 491.80300000001444,
      "v": 100
    },
    {
      "midi": 67,
      "hit": false,
      "t": 133811.39958333338,
      "d": 491.80300000001444,
      "v": 80
    },
    {
      "midi": 60,
      "hit": false,
      "t": 133811.39958333338,
      "d": 491.80300000001444,
      "v": 80
    },
    {
      "midi": 63,
      "hit": false,
      "t": 133811.39958333338,
      "d": 491.80300000001444,
      "v": 80
    },
    {
      "midi": 49,
      "hit": false,
      "t": 133852.38316666638,
      "d": 20.491791666659992,
      "v": 64
    },
    {
      "midi": 36,
      "hit": false,
      "t": 133852.38316666638,
      "d": 20.491791666659992,
      "v": 92
    },
    {
      "midi": 63,
      "hit": false,
      "t": 133852.38316666638,
      "d": 20.491791666659992,
      "v": 106
    },
    {
      "midi": 32,
      "hit": false,
      "t": 133852.3831666665,
      "d": 450.81941666666535,
      "v": 105
    },
    {
      "midi": 75,
      "hit": false,
      "t": 133852.3831666666,
      "d": 2459.015000000072,
      "v": 95
    },
    {
      "midi": 68,
      "hit": false,
      "t": 133852.3831666666,
      "d": 2459.015000000072,
      "v": 95
    },
    {
      "midi": 72,
      "hit": false,
      "t": 133852.3831666666,
      "d": 3422.129208333441,
      "v": 95
    },
    {
      "midi": 63,
      "hit": false,
      "t": 133852.38316666664,
      "d": 3422.1292083333246,
      "v": 110
    },
    {
      "midi": 56,
      "hit": false,
      "t": 133852.38316666664,
      "d": 3422.1292083333246,
      "v": 110
    },
    {
      "midi": 60,
      "hit": false,
      "t": 133852.38316666664,
      "d": 3422.1292083333246,
      "v": 110
    },
    {
      "midi": 63,
      "hit": false,
      "t": 133852.3831666667,
      "d": 245.90150000000722,
      "v": 90
    },
    {
      "midi": 68,
      "hit": false,
      "t": 133852.3831666667,
      "d": 245.90150000000722,
      "v": 90
    },
    {
      "midi": 72,
      "hit": false,
      "t": 133852.3831666667,
      "d": 245.90150000000722,
      "v": 90
    },
    {
      "midi": 75,
      "hit": false,
      "t": 133852.38316666672,
      "d": 983.6060000000289,
      "v": 95
    },
    {
      "midi": 58,
      "hit": false,
      "t": 133852.3831666668,
      "d": 5901.635999999999,
      "v": 110
    },
    {
      "midi": 70,
      "hit": false,
      "t": 133852.3831666668,
      "d": 5901.635999999999,
      "v": 110
    },
    {
      "midi": 67,
      "hit": false,
      "t": 134303.2025833334,
      "d": 491.80300000001444,
      "v": 80
    },
    {
      "midi": 60,
      "hit": false,
      "t": 134303.2025833334,
      "d": 491.80300000001444,
      "v": 80
    },
    {
      "midi": 63,
      "hit": false,
      "t": 134303.2025833334,
      "d": 491.80300000001444,
      "v": 80
    },
    {
      "midi": 42,
      "hit": false,
      "t": 134344.18616666636,
      "d": 20.491791666659992,
      "v": 120
    },
    {
      "midi": 62,
      "hit": false,
      "t": 134344.18616666636,
      "d": 20.491791666659992,
      "v": 106
    },
    {
      "midi": 32,
      "hit": false,
      "t": 134344.18616666648,
      "d": 225.40970833334723,
      "v": 115
    },
    {
      "midi": 75,
      "hit": false,
      "t": 134344.18616666662,
      "d": 450.81941666666535,
      "v": 127
    },
    {
      "midi": 75,
      "hit": false,
      "t": 134344.18616666662,
      "d": 450.81941666666535,
      "v": 110
    },
    {
      "midi": 63,
      "hit": false,
      "t": 134344.1861666667,
      "d": 245.90150000000722,
      "v": 90
    },
    {
      "midi": 68,
      "hit": false,
      "t": 134344.1861666667,
      "d": 245.90150000000722,
      "v": 90
    },
    {
      "midi": 72,
      "hit": false,
      "t": 134344.1861666667,
      "d": 245.90150000000722,
      "v": 90
    },
    {
      "midi": 65,
      "hit": false,
      "t": 134795.0055833334,
      "d": 122.95074999998906,
      "v": 80
    },
    {
      "midi": 60,
      "hit": false,
      "t": 134795.0055833334,
      "d": 122.95074999998906,
      "v": 80
    },
    {
      "midi": 63,
      "hit": false,
      "t": 134795.0055833334,
      "d": 122.95074999998906,
      "v": 80
    },
    {
      "midi": 42,
      "hit": false,
      "t": 134835.98916666635,
      "d": 20.491791666659992,
      "v": 120
    },
    {
      "midi": 40,
      "hit": false,
      "t": 134835.98916666635,
      "d": 20.491791666659992,
      "v": 120
    },
    {
      "midi": 83,
      "hit": false,
      "t": 134835.98916666635,
      "d": 20.491791666659992,
      "v": 78
    },
    {
      "midi": 74,
      "hit": false,
      "t": 134835.9891666666,
      "d": 450.81941666666535,
      "v": 127
    },
    {
      "midi": 74,
      "hit": false,
      "t": 134835.9891666666,
      "d": 450.81941666666535,
      "v": 110
    },
    {
      "midi": 63,
      "hit": false,
      "t": 134835.98916666672,
      "d": 491.80300000001444,
      "v": 90
    },
    {
      "midi": 68,
      "hit": false,
      "t": 134835.98916666672,
      "d": 491.80300000001444,
      "v": 90
    },
    {
      "midi": 72,
      "hit": false,
      "t": 134835.98916666672,
      "d": 491.80300000001444,
      "v": 90
    },
    {
      "midi": 75,
      "hit": false,
      "t": 134835.98916666675,
      "d": 983.6060000000289,
      "v": 95
    },
    {
      "midi": 65,
      "hit": false,
      "t": 134917.9563333334,
      "d": 368.8522499999963,
      "v": 80
    },
    {
      "midi": 60,
      "hit": false,
      "t": 134917.9563333334,
      "d": 368.8522499999963,
      "v": 80
    },
    {
      "midi": 63,
      "hit": false,
      "t": 134917.9563333334,
      "d": 368.8522499999963,
      "v": 80
    },
    {
      "midi": 67,
      "hit": false,
      "t": 135286.8085833334,
      "d": 491.80300000001444,
      "v": 80
    },
    {
      "midi": 60,
      "hit": false,
      "t": 135286.8085833334,
      "d": 491.80300000001444,
      "v": 80
    },
    {
      "midi": 63,
      "hit": false,
      "t": 135286.8085833334,
      "d": 491.80300000001444,
      "v": 80
    },
    {
      "midi": 42,
      "hit": false,
      "t": 135327.79216666633,
      "d": 20.491791666659992,
      "v": 120
    },
    {
      "midi": 63,
      "hit": false,
      "t": 135327.79216666633,
      "d": 20.491791666659992,
      "v": 106
    },
    {
      "midi": 41,
      "hit": false,
      "t": 135327.79216666648,
      "d": 225.40970833334723,
      "v": 115
    },
    {
      "midi": 75,
      "hit": false,
      "t": 135327.7921666666,
      "d": 676.2291250000126,
      "v": 127
    },
    {
      "midi": 75,
      "hit": false,
      "t": 135327.7921666666,
      "d": 676.2291250000126,
      "v": 110
    },
    {
      "midi": 43,
      "hit": false,
      "t": 135573.69366666648,
      "d": 225.40970833334723,
      "v": 115
    },
    {
      "midi": 42,
      "hit": false,
      "t": 135819.59516666632,
      "d": 20.491791666659992,
      "v": 120
    },
    {
      "midi": 36,
      "hit": false,
      "t": 135819.59516666632,
      "d": 20.491791666659992,
      "v": 120
    },
    {
      "midi": 63,
      "hit": false,
      "t": 135819.59516666632,
      "d": 20.491791666659992,
      "v": 106
    },
    {
      "midi": 41,
      "hit": false,
      "t": 135819.5951666665,
      "d": 450.81941666666535,
      "v": 115
    },
    {
      "midi": 63,
      "hit": false,
      "t": 135819.59516666675,
      "d": 491.80300000001444,
      "v": 90
    },
    {
      "midi": 68,
      "hit": false,
      "t": 135819.59516666675,
      "d": 491.80300000001444,
      "v": 90
    },
    {
      "midi": 72,
      "hit": false,
      "t": 135819.59516666675,
      "d": 491.80300000001444,
      "v": 90
    },
    {
      "midi": 75,
      "hit": false,
      "t": 135819.59516666678,
      "d": 983.6060000000289,
      "v": 95
    },
    {
      "midi": 67,
      "hit": false,
      "t": 136270.41458333342,
      "d": 491.80300000001444,
      "v": 80
    },
    {
      "midi": 60,
      "hit": false,
      "t": 136270.41458333342,
      "d": 491.80300000001444,
      "v": 80
    },
    {
      "midi": 63,
      "hit": false,
      "t": 136270.41458333342,
      "d": 491.80300000001444,
      "v": 80
    },
    {
      "midi": 42,
      "hit": false,
      "t": 136311.3981666663,
      "d": 20.491791666659992,
      "v": 120
    },
    {
      "midi": 36,
      "hit": false,
      "t": 136311.3981666663,
      "d": 20.491791666659992,
      "v": 120
    },
    {
      "midi": 62,
      "hit": false,
      "t": 136311.3981666663,
      "d": 20.491791666659992,
      "v": 106
    },
    {
      "midi": 39,
      "hit": false,
      "t": 136311.39816666648,
      "d": 450.81941666666535,
      "v": 115
    },
    {
      "midi": 79,
      "hit": false,
      "t": 136311.3981666666,
      "d": 450.81941666666535,
      "v": 127
    },
    {
      "midi": 79,
      "hit": false,
      "t": 136311.3981666666,
      "d": 450.81941666666535,
      "v": 110
    },
    {
      "midi": 65,
      "hit": false,
      "t": 136762.21758333343,
      "d": 122.95074999998906,
      "v": 80
    },
    {
      "midi": 60,
      "hit": false,
      "t": 136762.21758333343,
      "d": 122.95074999998906,
      "v": 80
    },
    {
      "midi": 63,
      "hit": false,
      "t": 136762.21758333343,
      "d": 122.95074999998906,
      "v": 80
    },
    {
      "midi": 42,
      "hit": false,
      "t": 136803.2011666663,
      "d": 20.491791666659992,
      "v": 120
    },
    {
      "midi": 40,
      "hit": false,
      "t": 136803.2011666663,
      "d": 20.491791666659992,
      "v": 120
    },
    {
      "midi": 83,
      "hit": false,
      "t": 136803.2011666663,
      "d": 20.491791666659992,
      "v": 78
    },
    {
      "midi": 32,
      "hit": false,
      "t": 136803.20116666646,
      "d": 450.81941666666535,
      "v": 115
    },
    {
      "midi": 80,
      "hit": false,
      "t": 136803.20116666658,
      "d": 450.81941666666535,
      "v": 127
    },
    {
      "midi": 80,
      "hit": false,
      "t": 136803.20116666658,
      "d": 450.81941666666535,
      "v": 110
    },
    {
      "midi": 63,
      "hit": false,
      "t": 136803.20116666678,
      "d": 245.90150000000722,
      "v": 90
    },
    {
      "midi": 68,
      "hit": false,
      "t": 136803.20116666678,
      "d": 245.90150000000722,
      "v": 90
    },
    {
      "midi": 72,
      "hit": false,
      "t": 136803.20116666678,
      "d": 245.90150000000722,
      "v": 90
    },
    {
      "midi": 75,
      "hit": false,
      "t": 136803.2011666668,
      "d": 983.6060000000289,
      "v": 95
    },
    {
      "midi": 65,
      "hit": false,
      "t": 136885.16833333342,
      "d": 368.8522499999963,
      "v": 80
    },
    {
      "midi": 60,
      "hit": false,
      "t": 136885.16833333342,
      "d": 368.8522499999963,
      "v": 80
    },
    {
      "midi": 63,
      "hit": false,
      "t": 136885.16833333342,
      "d": 368.8522499999963,
      "v": 80
    },
    {
      "midi": 67,
      "hit": false,
      "t": 137254.02058333342,
      "d": 122.95074999998906,
      "v": 80
    },
    {
      "midi": 58,
      "hit": false,
      "t": 137254.02058333342,
      "d": 122.95074999998906,
      "v": 80
    },
    {
      "midi": 63,
      "hit": false,
      "t": 137254.02058333342,
      "d": 122.95074999998906,
      "v": 80
    },
    {
      "midi": 42,
      "hit": false,
      "t": 137295.00416666627,
      "d": 20.491791666659992,
      "v": 120
    },
    {
      "midi": 36,
      "hit": false,
      "t": 137295.00416666627,
      "d": 20.491791666659992,
      "v": 120
    },
    {
      "midi": 63,
      "hit": false,
      "t": 137295.00416666627,
      "d": 20.491791666659992,
      "v": 106
    },
    {
      "midi": 31,
      "hit": false,
      "t": 137295.00416666645,
      "d": 942.6224166666798,
      "v": 105
    },
    {
      "midi": 82,
      "hit": false,
      "t": 137295.00416666656,
      "d": 942.6224166666798,
      "v": 117
    },
    {
      "midi": 82,
      "hit": false,
      "t": 137295.00416666656,
      "d": 942.6224166666798,
      "v": 100
    },
    {
      "midi": 63,
      "hit": false,
      "t": 137295.00416666662,
      "d": 4405.735208333324,
      "v": 110
    },
    {
      "midi": 55,
      "hit": false,
      "t": 137295.00416666662,
      "d": 4405.735208333324,
      "v": 110
    },
    {
      "midi": 58,
      "hit": false,
      "t": 137295.00416666662,
      "d": 4405.735208333324,
      "v": 110
    },
    {
      "midi": 67,
      "hit": false,
      "t": 137295.0041666667,
      "d": 4303.276250000112,
      "v": 95
    },
    {
      "midi": 70,
      "hit": false,
      "t": 137295.0041666667,
      "d": 4303.276250000112,
      "v": 95
    },
    {
      "midi": 63,
      "hit": false,
      "t": 137295.0041666668,
      "d": 737.7044999999925,
      "v": 90
    },
    {
      "midi": 67,
      "hit": false,
      "t": 137295.0041666668,
      "d": 737.7044999999925,
      "v": 90
    },
    {
      "midi": 70,
      "hit": false,
      "t": 137295.0041666668,
      "d": 737.7044999999925,
      "v": 90
    },
    {
      "midi": 67,
      "hit": false,
      "t": 137376.9713333334,
      "d": 860.6552500000107,
      "v": 80
    },
    {
      "midi": 58,
      "hit": false,
      "t": 137376.9713333334,
      "d": 860.6552500000107,
      "v": 80
    },
    {
      "midi": 63,
      "hit": false,
      "t": 137376.9713333334,
      "d": 860.6552500000107,
      "v": 80
    },
    {
      "midi": 42,
      "hit": false,
      "t": 137786.80716666626,
      "d": 20.491791666659992,
      "v": 120
    },
    {
      "midi": 63,
      "hit": false,
      "t": 137786.80716666626,
      "d": 20.491791666659992,
      "v": 106
    },
    {
      "midi": 75,
      "hit": false,
      "t": 137786.80716666684,
      "d": 983.6060000000289,
      "v": 95
    },
    {
      "midi": 67,
      "hit": false,
      "t": 138237.62658333342,
      "d": 491.80300000001444,
      "v": 80
    },
    {
      "midi": 58,
      "hit": false,
      "t": 138237.62658333342,
      "d": 491.80300000001444,
      "v": 80
    },
    {
      "midi": 63,
      "hit": false,
      "t": 138237.62658333342,
      "d": 491.80300000001444,
      "v": 80
    },
    {
      "midi": 42,
      "hit": false,
      "t": 138278.61016666624,
      "d": 20.491791666659992,
      "v": 120
    },
    {
      "midi": 36,
      "hit": false,
      "t": 138278.61016666624,
      "d": 20.491791666659992,
      "v": 120
    },
    {
      "midi": 62,
      "hit": false,
      "t": 138278.61016666624,
      "d": 20.491791666659992,
      "v": 106
    },
    {
      "midi": 29,
      "hit": false,
      "t": 138278.61016666645,
      "d": 450.81941666666535,
      "v": 115
    },
    {
      "midi": 75,
      "hit": false,
      "t": 138278.61016666656,
      "d": 450.81941666666535,
      "v": 127
    },
    {
      "midi": 75,
      "hit": false,
      "t": 138278.61016666656,
      "d": 450.81941666666535,
      "v": 110
    },
    {
      "midi": 63,
      "hit": false,
      "t": 138278.6101666668,
      "d": 245.90150000000722,
      "v": 90
    },
    {
      "midi": 67,
      "hit": false,
      "t": 138278.6101666668,
      "d": 245.90150000000722,
      "v": 90
    },
    {
      "midi": 70,
      "hit": false,
      "t": 138278.6101666668,
      "d": 245.90150000000722,
      "v": 90
    },
    {
      "midi": 65,
      "hit": false,
      "t": 138729.42958333343,
      "d": 491.80300000001444,
      "v": 80
    },
    {
      "midi": 58,
      "hit": false,
      "t": 138729.42958333343,
      "d": 491.80300000001444,
      "v": 80
    },
    {
      "midi": 62,
      "hit": false,
      "t": 138729.42958333343,
      "d": 491.80300000001444,
      "v": 80
    },
    {
      "midi": 42,
      "hit": false,
      "t": 138770.41316666623,
      "d": 20.491791666659992,
      "v": 120
    },
    {
      "midi": 40,
      "hit": false,
      "t": 138770.41316666623,
      "d": 20.491791666659992,
      "v": 120
    },
    {
      "midi": 83,
      "hit": false,
      "t": 138770.41316666623,
      "d": 20.491791666659992,
      "v": 78
    },
    {
      "midi": 31,
      "hit": false,
      "t": 138770.41316666643,
      "d": 450.81941666666535,
      "v": 115
    },
    {
      "midi": 74,
      "hit": false,
      "t": 138770.41316666655,
      "d": 450.81941666666535,
      "v": 127
    },
    {
      "midi": 74,
      "hit": false,
      "t": 138770.41316666655,
      "d": 450.81941666666535,
      "v": 110
    },
    {
      "midi": 63,
      "hit": false,
      "t": 138770.4131666668,
      "d": 491.80300000001444,
      "v": 90
    },
    {
      "midi": 67,
      "hit": false,
      "t": 138770.4131666668,
      "d": 491.80300000001444,
      "v": 90
    },
    {
      "midi": 70,
      "hit": false,
      "t": 138770.4131666668,
      "d": 491.80300000001444,
      "v": 90
    },
    {
      "midi": 75,
      "hit": false,
      "t": 138770.41316666687,
      "d": 983.6060000000289,
      "v": 95
    },
    {
      "midi": 67,
      "hit": false,
      "t": 139221.23258333345,
      "d": 983.6059999999998,
      "v": 80
    },
    {
      "midi": 58,
      "hit": false,
      "t": 139221.23258333345,
      "d": 983.6059999999998,
      "v": 80
    },
    {
      "midi": 63,
      "hit": false,
      "t": 139221.23258333345,
      "d": 983.6059999999998,
      "v": 80
    },
    {
      "midi": 42,
      "hit": false,
      "t": 139262.2161666662,
      "d": 20.491791666659992,
      "v": 120
    },
    {
      "midi": 36,
      "hit": false,
      "t": 139262.2161666662,
      "d": 20.491791666659992,
      "v": 120
    },
    {
      "midi": 63,
      "hit": false,
      "t": 139262.2161666662,
      "d": 20.491791666659992,
      "v": 106
    },
    {
      "midi": 75,
      "hit": false,
      "t": 139262.21616666653,
      "d": 1352.458249999996,
      "v": 127
    },
    {
      "midi": 75,
      "hit": false,
      "t": 139262.21616666653,
      "d": 1352.458249999996,
      "v": 110
    },
    {
      "midi": 62,
      "hit": false,
      "t": 139508.11766666622,
      "d": 20.491791666659992,
      "v": 106
    },
    {
      "midi": 42,
      "hit": false,
      "t": 139754.01916666623,
      "d": 20.491791666659992,
      "v": 120
    },
    {
      "midi": 63,
      "hit": false,
      "t": 139754.01916666623,
      "d": 20.491791666659992,
      "v": 106
    },
    {
      "midi": 39,
      "hit": false,
      "t": 139754.01916666643,
      "d": 450.81941666666535,
      "v": 115
    },
    {
      "midi": 63,
      "hit": false,
      "t": 139754.0191666668,
      "d": 491.80300000001444,
      "v": 100
    },
    {
      "midi": 67,
      "hit": false,
      "t": 139754.0191666668,
      "d": 491.80300000001444,
      "v": 100
    },
    {
      "midi": 68,
      "hit": false,
      "t": 139754.0191666668,
      "d": 491.80300000001444,
      "v": 100
    },
    {
      "midi": 63,
      "hit": false,
      "t": 139754.01916666684,
      "d": 245.90150000000722,
      "v": 90
    },
    {
      "midi": 67,
      "hit": false,
      "t": 139754.01916666684,
      "d": 245.90150000000722,
      "v": 90
    },
    {
      "midi": 68,
      "hit": false,
      "t": 139754.01916666684,
      "d": 245.90150000000722,
      "v": 90
    },
    {
      "midi": 75,
      "hit": false,
      "t": 139754.0191666669,
      "d": 983.6060000000289,
      "v": 95
    },
    {
      "midi": 62,
      "hit": false,
      "t": 139999.92066666624,
      "d": 20.491791666659992,
      "v": 106
    },
    {
      "midi": 42,
      "hit": false,
      "t": 140245.82216666624,
      "d": 20.491791666659992,
      "v": 120
    },
    {
      "midi": 36,
      "hit": false,
      "t": 140245.82216666624,
      "d": 20.491791666659992,
      "v": 120
    },
    {
      "midi": 63,
      "hit": false,
      "t": 140245.82216666624,
      "d": 20.491791666659992,
      "v": 106
    },
    {
      "midi": 32,
      "hit": false,
      "t": 140245.82216666642,
      "d": 225.40970833334723,
      "v": 115
    },
    {
      "midi": 63,
      "hit": false,
      "t": 140245.82216666683,
      "d": 491.80300000001444,
      "v": 100
    },
    {
      "midi": 67,
      "hit": false,
      "t": 140245.82216666683,
      "d": 491.80300000001444,
      "v": 100
    },
    {
      "midi": 70,
      "hit": false,
      "t": 140245.82216666683,
      "d": 491.80300000001444,
      "v": 100
    },
    {
      "midi": 63,
      "hit": false,
      "t": 140245.82216666685,
      "d": 491.80300000001444,
      "v": 90
    },
    {
      "midi": 67,
      "hit": false,
      "t": 140245.82216666685,
      "d": 491.80300000001444,
      "v": 90
    },
    {
      "midi": 70,
      "hit": false,
      "t": 140245.82216666685,
      "d": 491.80300000001444,
      "v": 90
    },
    {
      "midi": 34,
      "hit": false,
      "t": 140491.72366666642,
      "d": 225.40970833334723,
      "v": 115
    },
    {
      "midi": 42,
      "hit": false,
      "t": 140737.62516666623,
      "d": 20.491791666659992,
      "v": 120
    },
    {
      "midi": 40,
      "hit": false,
      "t": 140737.62516666623,
      "d": 20.491791666659992,
      "v": 120
    },
    {
      "midi": 83,
      "hit": false,
      "t": 140737.62516666623,
      "d": 20.491791666659992,
      "v": 78
    },
    {
      "midi": 39,
      "hit": false,
      "t": 140737.62516666643,
      "d": 450.81941666666535,
      "v": 115
    },
    {
      "midi": 75,
      "hit": false,
      "t": 140737.62516666693,
      "d": 983.6060000000289,
      "v": 95
    },
    {
      "midi": 42,
      "hit": false,
      "t": 141229.4281666662,
      "d": 20.491791666659992,
      "v": 120
    },
    {
      "midi": 36,
      "hit": false,
      "t": 141229.4281666662,
      "d": 20.491791666659992,
      "v": 120
    },
    {
      "midi": 62,
      "hit": false,
      "t": 141229.4281666662,
      "d": 20.491791666659992,
      "v": 106
    },
    {
      "midi": 31,
      "hit": false,
      "t": 141229.42816666642,
      "d": 450.81941666666535,
      "v": 115
    },
    {
      "midi": 72,
      "hit": false,
      "t": 141229.42816666653,
      "d": 450.81941666666535,
      "v": 127
    },
    {
      "midi": 72,
      "hit": false,
      "t": 141229.42816666653,
      "d": 450.81941666666535,
      "v": 110
    },
    {
      "midi": 36,
      "hit": false,
      "t": 141721.2311666662,
      "d": 20.491791666659992,
      "v": 92
    },
    {
      "midi": 63,
      "hit": false,
      "t": 141721.2311666662,
      "d": 20.491791666659992,
      "v": 106
    },
    {
      "midi": 42,
      "hit": false,
      "t": 141721.2311666662,
      "d": 20.491791666659992,
      "v": 120
    },
    {
      "midi": 29,
      "hit": false,
      "t": 141721.2311666664,
      "d": 450.81941666666535,
      "v": 105
    },
    {
      "midi": 80,
      "hit": false,
      "t": 141721.23116666652,
      "d": 901.6388333333307,
      "v": 117
    },
    {
      "midi": 80,
      "hit": false,
      "t": 141721.23116666652,
      "d": 901.6388333333307,
      "v": 100
    },
    {
      "midi": 56,
      "hit": false,
      "t": 141721.2311666666,
      "d": 1946.7202083333395,
      "v": 110
    },
    {
      "midi": 60,
      "hit": false,
      "t": 141721.2311666666,
      "d": 1946.7202083333395,
      "v": 110
    },
    {
      "midi": 63,
      "hit": false,
      "t": 141721.2311666666,
      "d": 1946.7202083333395,
      "v": 110
    },
    {
      "midi": 51,
      "hit": false,
      "t": 141721.23116666684,
      "d": 5409.833000000013,
      "v": 110
    },
    {
      "midi": 63,
      "hit": false,
      "t": 141721.23116666684,
      "d": 5409.833000000013,
      "v": 110
    },
    {
      "midi": 68,
      "hit": false,
      "t": 141721.23116666687,
      "d": 491.80300000001444,
      "v": 90
    },
    {
      "midi": 72,
      "hit": false,
      "t": 141721.23116666687,
      "d": 491.80300000001444,
      "v": 90
    },
    {
      "midi": 75,
      "hit": false,
      "t": 141721.23116666687,
      "d": 491.80300000001444,
      "v": 90
    },
    {
      "midi": 75,
      "hit": false,
      "t": 141721.23116666696,
      "d": 983.6060000000289,
      "v": 95
    },
    {
      "midi": 42,
      "hit": false,
      "t": 142213.03416666618,
      "d": 20.491791666659992,
      "v": 120
    },
    {
      "midi": 62,
      "hit": false,
      "t": 142213.03416666618,
      "d": 20.491791666659992,
      "v": 106
    },
    {
      "midi": 29,
      "hit": false,
      "t": 142213.0341666664,
      "d": 450.81941666666535,
      "v": 115
    },
    {
      "midi": 42,
      "hit": false,
      "t": 142704.83716666617,
      "d": 20.491791666659992,
      "v": 120
    },
    {
      "midi": 40,
      "hit": false,
      "t": 142704.83716666617,
      "d": 20.491791666659992,
      "v": 120
    },
    {
      "midi": 83,
      "hit": false,
      "t": 142704.83716666617,
      "d": 20.491791666659992,
      "v": 78
    },
    {
      "midi": 79,
      "hit": false,
      "t": 142704.83716666652,
      "d": 450.81941666666535,
      "v": 127
    },
    {
      "midi": 79,
      "hit": false,
      "t": 142704.83716666652,
      "d": 450.81941666666535,
      "v": 110
    },
    {
      "midi": 68,
      "hit": false,
      "t": 142704.8371666669,
      "d": 491.80300000001444,
      "v": 90
    },
    {
      "midi": 72,
      "hit": false,
      "t": 142704.8371666669,
      "d": 491.80300000001444,
      "v": 90
    },
    {
      "midi": 75,
      "hit": false,
      "t": 142704.8371666669,
      "d": 491.80300000001444,
      "v": 90
    },
    {
      "midi": 75,
      "hit": false,
      "t": 142704.83716666698,
      "d": 983.6060000000289,
      "v": 95
    },
    {
      "midi": 42,
      "hit": false,
      "t": 143196.64016666615,
      "d": 20.491791666659992,
      "v": 120
    },
    {
      "midi": 63,
      "hit": false,
      "t": 143196.64016666615,
      "d": 20.491791666659992,
      "v": 106
    },
    {
      "midi": 29,
      "hit": false,
      "t": 143196.6401666664,
      "d": 450.81941666666535,
      "v": 115
    },
    {
      "midi": 77,
      "hit": false,
      "t": 143196.6401666665,
      "d": 450.81941666666535,
      "v": 127
    },
    {
      "midi": 77,
      "hit": false,
      "t": 143196.6401666665,
      "d": 450.81941666666535,
      "v": 110
    },
    {
      "midi": 42,
      "hit": false,
      "t": 143688.44316666614,
      "d": 20.491791666659992,
      "v": 120
    },
    {
      "midi": 36,
      "hit": false,
      "t": 143688.44316666614,
      "d": 20.491791666659992,
      "v": 120
    },
    {
      "midi": 63,
      "hit": false,
      "t": 143688.44316666614,
      "d": 20.491791666659992,
      "v": 106
    },
    {
      "midi": 34,
      "hit": false,
      "t": 143688.44316666637,
      "d": 450.81941666666535,
      "v": 115
    },
    {
      "midi": 75,
      "hit": false,
      "t": 143688.4431666665,
      "d": 450.81941666666535,
      "v": 127
    },
    {
      "midi": 75,
      "hit": false,
      "t": 143688.4431666665,
      "d": 450.81941666666535,
      "v": 110
    },
    {
      "midi": 56,
      "hit": false,
      "t": 143688.4431666666,
      "d": 245.90150000000722,
      "v": 110
    },
    {
      "midi": 59,
      "hit": false,
      "t": 143688.4431666666,
      "d": 245.90150000000722,
      "v": 110
    },
    {
      "midi": 63,
      "hit": false,
      "t": 143688.4431666666,
      "d": 245.90150000000722,
      "v": 110
    },
    {
      "midi": 63,
      "hit": false,
      "t": 143688.44316666678,
      "d": 491.80300000001444,
      "v": 110
    },
    {
      "midi": 68,
      "hit": false,
      "t": 143688.44316666693,
      "d": 245.90150000000722,
      "v": 90
    },
    {
      "midi": 71,
      "hit": false,
      "t": 143688.44316666693,
      "d": 245.90150000000722,
      "v": 90
    },
    {
      "midi": 75,
      "hit": false,
      "t": 143688.44316666693,
      "d": 245.90150000000722,
      "v": 90
    },
    {
      "midi": 75,
      "hit": false,
      "t": 143688.443166667,
      "d": 983.6060000000289,
      "v": 95
    },
    {
      "midi": 42,
      "hit": false,
      "t": 144180.24616666613,
      "d": 20.491791666659992,
      "v": 120
    },
    {
      "midi": 36,
      "hit": false,
      "t": 144180.24616666613,
      "d": 20.491791666659992,
      "v": 120
    },
    {
      "midi": 62,
      "hit": false,
      "t": 144180.24616666613,
      "d": 20.491791666659992,
      "v": 106
    },
    {
      "midi": 35,
      "hit": false,
      "t": 144180.24616666636,
      "d": 450.81941666666535,
      "v": 115
    },
    {
      "midi": 77,
      "hit": false,
      "t": 144180.24616666647,
      "d": 901.6388333333307,
      "v": 127
    },
    {
      "midi": 77,
      "hit": false,
      "t": 144180.24616666647,
      "d": 901.6388333333307,
      "v": 110
    },
    {
      "midi": 59,
      "hit": false,
      "t": 144180.24616666662,
      "d": 983.6059999999998,
      "v": 110
    },
    {
      "midi": 62,
      "hit": false,
      "t": 144180.24616666662,
      "d": 983.6059999999998,
      "v": 110
    },
    {
      "midi": 65,
      "hit": false,
      "t": 144180.24616666662,
      "d": 983.6059999999998,
      "v": 110
    },
    {
      "midi": 65,
      "hit": false,
      "t": 144180.2461666668,
      "d": 491.80300000001444,
      "v": 110
    },
    {
      "midi": 71,
      "hit": false,
      "t": 144180.24616666694,
      "d": 491.80300000001444,
      "v": 90
    },
    {
      "midi": 74,
      "hit": false,
      "t": 144180.24616666694,
      "d": 491.80300000001444,
      "v": 90
    },
    {
      "midi": 77,
      "hit": false,
      "t": 144180.24616666694,
      "d": 491.80300000001444,
      "v": 90
    },
    {
      "midi": 42,
      "hit": false,
      "t": 144672.0491666661,
      "d": 20.491791666659992,
      "v": 120
    },
    {
      "midi": 40,
      "hit": false,
      "t": 144672.0491666661,
      "d": 20.491791666659992,
      "v": 120
    },
    {
      "midi": 83,
      "hit": false,
      "t": 144672.0491666661,
      "d": 20.491791666659992,
      "v": 78
    },
    {
      "midi": 63,
      "hit": false,
      "t": 144672.0491666668,
      "d": 491.80300000001444,
      "v": 110
    },
    {
      "midi": 75,
      "hit": false,
      "t": 144672.04916666704,
      "d": 983.6060000000289,
      "v": 95
    },
    {
      "midi": 42,
      "hit": false,
      "t": 145163.8521666661,
      "d": 20.491791666659992,
      "v": 120
    },
    {
      "midi": 36,
      "hit": false,
      "t": 145163.8521666661,
      "d": 20.491791666659992,
      "v": 120
    },
    {
      "midi": 63,
      "hit": false,
      "t": 145163.8521666661,
      "d": 20.491791666659992,
      "v": 106
    },
    {
      "midi": 36,
      "hit": false,
      "t": 145163.85216666636,
      "d": 942.6224166666798,
      "v": 105
    },
    {
      "midi": 77,
      "hit": false,
      "t": 145163.85216666647,
      "d": 942.6224166666798,
      "v": 117
    },
    {
      "midi": 77,
      "hit": false,
      "t": 145163.85216666647,
      "d": 942.6224166666798,
      "v": 100
    },
    {
      "midi": 55,
      "hit": false,
      "t": 145163.85216666662,
      "d": 1967.2119999999995,
      "v": 110
    },
    {
      "midi": 58,
      "hit": false,
      "t": 145163.85216666662,
      "d": 1967.2119999999995,
      "v": 110
    },
    {
      "midi": 63,
      "hit": false,
      "t": 145163.85216666662,
      "d": 1967.2119999999995,
      "v": 110
    },
    {
      "midi": 70,
      "hit": false,
      "t": 145163.85216666682,
      "d": 1967.2119999999995,
      "v": 110
    },
    {
      "midi": 67,
      "hit": false,
      "t": 145163.85216666697,
      "d": 655.7373333333235,
      "v": 90
    },
    {
      "midi": 70,
      "hit": false,
      "t": 145163.85216666697,
      "d": 655.7373333333235,
      "v": 90
    },
    {
      "midi": 75,
      "hit": false,
      "t": 145163.85216666697,
      "d": 655.7373333333235,
      "v": 90
    },
    {
      "midi": 42,
      "hit": false,
      "t": 145655.65516666608,
      "d": 20.491791666659992,
      "v": 120
    },
    {
      "midi": 63,
      "hit": false,
      "t": 145655.65516666608,
      "d": 20.491791666659992,
      "v": 106
    },
    {
      "midi": 75,
      "hit": false,
      "t": 145655.65516666707,
      "d": 983.6060000000289,
      "v": 95
    },
    {
      "midi": 42,
      "hit": false,
      "t": 146147.45816666607,
      "d": 20.491791666659992,
      "v": 120
    },
    {
      "midi": 36,
      "hit": false,
      "t": 146147.45816666607,
      "d": 20.491791666659992,
      "v": 120
    },
    {
      "midi": 62,
      "hit": false,
      "t": 146147.45816666607,
      "d": 20.491791666659992,
      "v": 106
    },
    {
      "midi": 31,
      "hit": false,
      "t": 146147.45816666636,
      "d": 450.81941666666535,
      "v": 115
    },
    {
      "midi": 75,
      "hit": false,
      "t": 146147.45816666647,
      "d": 450.81941666666535,
      "v": 127
    },
    {
      "midi": 75,
      "hit": false,
      "t": 146147.45816666647,
      "d": 450.81941666666535,
      "v": 110
    },
    {
      "midi": 42,
      "hit": false,
      "t": 146639.26116666605,
      "d": 20.491791666659992,
      "v": 120
    },
    {
      "midi": 40,
      "hit": false,
      "t": 146639.26116666605,
      "d": 20.491791666659992,
      "v": 120
    },
    {
      "midi": 83,
      "hit": false,
      "t": 146639.26116666605,
      "d": 20.491791666659992,
      "v": 78
    },
    {
      "midi": 36,
      "hit": false,
      "t": 146639.26116666634,
      "d": 450.81941666666535,
      "v": 115
    },
    {
      "midi": 77,
      "hit": false,
      "t": 146639.26116666646,
      "d": 450.81941666666535,
      "v": 127
    },
    {
      "midi": 77,
      "hit": false,
      "t": 146639.26116666646,
      "d": 450.81941666666535,
      "v": 110
    },
    {
      "midi": 67,
      "hit": false,
      "t": 146639.26116666695,
      "d": 491.80300000001444,
      "v": 90
    },
    {
      "midi": 70,
      "hit": false,
      "t": 146639.26116666695,
      "d": 491.80300000001444,
      "v": 90
    },
    {
      "midi": 75,
      "hit": false,
      "t": 146639.26116666695,
      "d": 491.80300000001444,
      "v": 90
    },
    {
      "midi": 75,
      "hit": false,
      "t": 146639.2611666671,
      "d": 983.6060000000289,
      "v": 95
    },
    {
      "midi": 42,
      "hit": false,
      "t": 147131.06416666604,
      "d": 20.491791666659992,
      "v": 120
    },
    {
      "midi": 36,
      "hit": false,
      "t": 147131.06416666604,
      "d": 20.491791666659992,
      "v": 120
    },
    {
      "midi": 63,
      "hit": false,
      "t": 147131.06416666604,
      "d": 20.491791666659992,
      "v": 106
    },
    {
      "midi": 34,
      "hit": false,
      "t": 147131.06416666633,
      "d": 676.2291250000126,
      "v": 115
    },
    {
      "midi": 79,
      "hit": false,
      "t": 147131.06416666645,
      "d": 676.2291250000126,
      "v": 127
    },
    {
      "midi": 79,
      "hit": false,
      "t": 147131.06416666645,
      "d": 676.2291250000126,
      "v": 110
    },
    {
      "midi": 58,
      "hit": false,
      "t": 147131.06416666662,
      "d": 1946.7202083333395,
      "v": 110
    },
    {
      "midi": 62,
      "hit": false,
      "t": 147131.06416666662,
      "d": 1946.7202083333395,
      "v": 110
    },
    {
      "midi": 65,
      "hit": false,
      "t": 147131.06416666662,
      "d": 1946.7202083333395,
      "v": 110
    },
    {
      "midi": 63,
      "hit": false,
      "t": 147131.06416666682,
      "d": 778.6880833333416,
      "v": 110
    },
    {
      "midi": 67,
      "hit": false,
      "t": 147131.06416666685,
      "d": 491.80300000001444,
      "v": 100
    },
    {
      "midi": 70,
      "hit": false,
      "t": 147131.06416666685,
      "d": 491.80300000001444,
      "v": 100
    },
    {
      "midi": 75,
      "hit": false,
      "t": 147131.06416666685,
      "d": 491.80300000001444,
      "v": 100
    },
    {
      "midi": 62,
      "hit": false,
      "t": 147376.96566666604,
      "d": 20.491791666659992,
      "v": 106
    },
    {
      "midi": 42,
      "hit": false,
      "t": 147622.86716666605,
      "d": 20.491791666659992,
      "v": 120
    },
    {
      "midi": 63,
      "hit": false,
      "t": 147622.86716666605,
      "d": 20.491791666659992,
      "v": 106
    },
    {
      "midi": 70,
      "hit": false,
      "t": 147622.86716666698,
      "d": 245.90150000000722,
      "v": 90
    },
    {
      "midi": 74,
      "hit": false,
      "t": 147622.86716666698,
      "d": 245.90150000000722,
      "v": 90
    },
    {
      "midi": 77,
      "hit": false,
      "t": 147622.86716666698,
      "d": 245.90150000000722,
      "v": 90
    },
    {
      "midi": 75,
      "hit": false,
      "t": 147622.86716666713,
      "d": 983.6060000000289,
      "v": 95
    },
    {
      "midi": 62,
      "hit": false,
      "t": 147868.76866666606,
      "d": 20.491791666659992,
      "v": 106
    },
    {
      "midi": 55,
      "hit": false,
      "t": 148073.68658333345,
      "d": 491.80300000001444,
      "v": 80
    },
    {
      "midi": 58,
      "hit": false,
      "t": 148073.68658333345,
      "d": 491.80300000001444,
      "v": 80
    },
    {
      "midi": 63,
      "hit": false,
      "t": 148073.68658333345,
      "d": 491.80300000001444,
      "v": 80
    },
    {
      "midi": 42,
      "hit": false,
      "t": 148114.67016666607,
      "d": 20.491791666659992,
      "v": 120
    },
    {
      "midi": 36,
      "hit": false,
      "t": 148114.67016666607,
      "d": 20.491791666659992,
      "v": 120
    },
    {
      "midi": 63,
      "hit": false,
      "t": 148114.67016666607,
      "d": 20.491791666659992,
      "v": 106
    },
    {
      "midi": 27,
      "hit": false,
      "t": 148114.67016666633,
      "d": 676.2291250000126,
      "v": 115
    },
    {
      "midi": 79,
      "hit": false,
      "t": 148114.67016666644,
      "d": 450.81941666666535,
      "v": 127
    },
    {
      "midi": 79,
      "hit": false,
      "t": 148114.67016666644,
      "d": 450.81941666666535,
      "v": 110
    },
    {
      "midi": 70,
      "hit": false,
      "t": 148114.67016666688,
      "d": 491.80300000001444,
      "v": 100
    },
    {
      "midi": 74,
      "hit": false,
      "t": 148114.67016666688,
      "d": 491.80300000001444,
      "v": 100
    },
    {
      "midi": 77,
      "hit": false,
      "t": 148114.67016666688,
      "d": 491.80300000001444,
      "v": 100
    },
    {
      "midi": 70,
      "hit": false,
      "t": 148114.670166667,
      "d": 491.80300000001444,
      "v": 90
    },
    {
      "midi": 74,
      "hit": false,
      "t": 148114.670166667,
      "d": 491.80300000001444,
      "v": 90
    },
    {
      "midi": 77,
      "hit": false,
      "t": 148114.670166667,
      "d": 491.80300000001444,
      "v": 90
    },
    {
      "midi": 55,
      "hit": false,
      "t": 148565.48958333346,
      "d": 491.80300000001444,
      "v": 80
    },
    {
      "midi": 58,
      "hit": false,
      "t": 148565.48958333346,
      "d": 491.80300000001444,
      "v": 80
    },
    {
      "midi": 65,
      "hit": false,
      "t": 148565.48958333346,
      "d": 491.80300000001444,
      "v": 80
    },
    {
      "midi": 40,
      "hit": false,
      "t": 148606.47316666605,
      "d": 20.491791666659992,
      "v": 120
    },
    {
      "midi": 46,
      "hit": false,
      "t": 148606.47316666605,
      "d": 20.491791666659992,
      "v": 120
    },
    {
      "midi": 83,
      "hit": false,
      "t": 148606.47316666605,
      "d": 20.491791666659992,
      "v": 78
    },
    {
      "midi": 80,
      "hit": false,
      "t": 148606.47316666643,
      "d": 450.81941666666535,
      "v": 127
    },
    {
      "midi": 80,
      "hit": false,
      "t": 148606.47316666643,
      "d": 450.81941666666535,
      "v": 110
    },
    {
      "midi": 75,
      "hit": false,
      "t": 148606.47316666716,
      "d": 983.6060000000289,
      "v": 95
    },
    {
      "midi": 58,
      "hit": false,
      "t": 149057.29258333347,
      "d": 512.2947916666744,
      "v": 80
    },
    {
      "midi": 67,
      "hit": false,
      "t": 149057.29258333347,
      "d": 983.6059999999998,
      "v": 80
    },
    {
      "midi": 63,
      "hit": false,
      "t": 149057.29258333347,
      "d": 983.6059999999998,
      "v": 80
    },
    {
      "midi": 36,
      "hit": false,
      "t": 149098.27616666604,
      "d": 20.491791666659992,
      "v": 120
    },
    {
      "midi": 62,
      "hit": false,
      "t": 149098.27616666604,
      "d": 20.491791666659992,
      "v": 106
    },
    {
      "midi": 32,
      "hit": false,
      "t": 149098.27616666633,
      "d": 450.81941666666535,
      "v": 115
    },
    {
      "midi": 82,
      "hit": false,
      "t": 149098.27616666642,
      "d": 942.6224166666798,
      "v": 117
    },
    {
      "midi": 82,
      "hit": false,
      "t": 149098.27616666642,
      "d": 942.6224166666798,
      "v": 100
    },
    {
      "midi": 63,
      "hit": false,
      "t": 149098.27616666662,
      "d": 3913.932208333339,
      "v": 110
    },
    {
      "midi": 56,
      "hit": false,
      "t": 149098.27616666662,
      "d": 3913.932208333339,
      "v": 110
    },
    {
      "midi": 60,
      "hit": false,
      "t": 149098.27616666662,
      "d": 3913.932208333339,
      "v": 110
    },
    {
      "midi": 60,
      "hit": false,
      "t": 149549.0955833335,
      "d": 491.80299999998533,
      "v": 80
    },
    {
      "midi": 49,
      "hit": false,
      "t": 149590.07916666602,
      "d": 20.491791666659992,
      "v": 64
    },
    {
      "midi": 36,
      "hit": false,
      "t": 149590.07916666602,
      "d": 20.491791666659992,
      "v": 92
    },
    {
      "midi": 63,
      "hit": false,
      "t": 149590.07916666602,
      "d": 20.491791666659992,
      "v": 106
    },
    {
      "midi": 32,
      "hit": false,
      "t": 149590.0791666663,
      "d": 450.81941666666535,
      "v": 105
    },
    {
      "midi": 75,
      "hit": false,
      "t": 149590.0791666668,
      "d": 2459.015000000072,
      "v": 95
    },
    {
      "midi": 68,
      "hit": false,
      "t": 149590.0791666668,
      "d": 2459.015000000072,
      "v": 95
    },
    {
      "midi": 72,
      "hit": false,
      "t": 149590.0791666668,
      "d": 3422.129208333441,
      "v": 95
    },
    {
      "midi": 58,
      "hit": false,
      "t": 149590.0791666669,
      "d": 5901.635999999999,
      "v": 110
    },
    {
      "midi": 70,
      "hit": false,
      "t": 149590.0791666669,
      "d": 5901.635999999999,
      "v": 110
    },
    {
      "midi": 63,
      "hit": false,
      "t": 149590.079166667,
      "d": 245.90150000000722,
      "v": 90
    },
    {
      "midi": 68,
      "hit": false,
      "t": 149590.079166667,
      "d": 245.90150000000722,
      "v": 90
    },
    {
      "midi": 72,
      "hit": false,
      "t": 149590.079166667,
      "d": 245.90150000000722,
      "v": 90
    },
    {
      "midi": 75,
      "hit": false,
      "t": 149590.0791666672,
      "d": 983.6060000000289,
      "v": 95
    },
    {
      "midi": 67,
      "hit": false,
      "t": 150040.89858333347,
      "d": 491.80300000001444,
      "v": 80
    },
    {
      "midi": 60,
      "hit": false,
      "t": 150040.89858333347,
      "d": 491.80300000001444,
      "v": 80
    },
    {
      "midi": 63,
      "hit": false,
      "t": 150040.89858333347,
      "d": 491.80300000001444,
      "v": 80
    },
    {
      "midi": 42,
      "hit": false,
      "t": 150081.882166666,
      "d": 20.491791666659992,
      "v": 120
    },
    {
      "midi": 62,
      "hit": false,
      "t": 150081.882166666,
      "d": 20.491791666659992,
      "v": 106
    },
    {
      "midi": 32,
      "hit": false,
      "t": 150081.8821666663,
      "d": 225.40970833334723,
      "v": 115
    },
    {
      "midi": 75,
      "hit": false,
      "t": 150081.88216666642,
      "d": 450.81941666666535,
      "v": 127
    },
    {
      "midi": 75,
      "hit": false,
      "t": 150081.88216666642,
      "d": 450.81941666666535,
      "v": 110
    },
    {
      "midi": 63,
      "hit": false,
      "t": 150081.88216666703,
      "d": 245.90150000000722,
      "v": 90
    },
    {
      "midi": 68,
      "hit": false,
      "t": 150081.88216666703,
      "d": 245.90150000000722,
      "v": 90
    },
    {
      "midi": 72,
      "hit": false,
      "t": 150081.88216666703,
      "d": 245.90150000000722,
      "v": 90
    },
    {
      "midi": 65,
      "hit": false,
      "t": 150532.7015833335,
      "d": 491.80300000001444,
      "v": 80
    },
    {
      "midi": 60,
      "hit": false,
      "t": 150532.7015833335,
      "d": 491.80300000001444,
      "v": 80
    },
    {
      "midi": 63,
      "hit": false,
      "t": 150532.7015833335,
      "d": 491.80300000001444,
      "v": 80
    },
    {
      "midi": 42,
      "hit": false,
      "t": 150573.685166666,
      "d": 20.491791666659992,
      "v": 120
    },
    {
      "midi": 40,
      "hit": false,
      "t": 150573.685166666,
      "d": 20.491791666659992,
      "v": 120
    },
    {
      "midi": 83,
      "hit": false,
      "t": 150573.685166666,
      "d": 20.491791666659992,
      "v": 78
    },
    {
      "midi": 74,
      "hit": false,
      "t": 150573.6851666664,
      "d": 450.81941666666535,
      "v": 127
    },
    {
      "midi": 74,
      "hit": false,
      "t": 150573.6851666664,
      "d": 450.81941666666535,
      "v": 110
    },
    {
      "midi": 63,
      "hit": false,
      "t": 150573.68516666704,
      "d": 491.80300000001444,
      "v": 90
    },
    {
      "midi": 68,
      "hit": false,
      "t": 150573.68516666704,
      "d": 491.80300000001444,
      "v": 90
    },
    {
      "midi": 72,
      "hit": false,
      "t": 150573.68516666704,
      "d": 491.80300000001444,
      "v": 90
    },
    {
      "midi": 75,
      "hit": false,
      "t": 150573.68516666722,
      "d": 983.6060000000289,
      "v": 95
    },
    {
      "midi": 67,
      "hit": false,
      "t": 151024.5045833335,
      "d": 491.80300000001444,
      "v": 80
    },
    {
      "midi": 60,
      "hit": false,
      "t": 151024.5045833335,
      "d": 491.80300000001444,
      "v": 80
    },
    {
      "midi": 63,
      "hit": false,
      "t": 151024.5045833335,
      "d": 491.80300000001444,
      "v": 80
    },
    {
      "midi": 42,
      "hit": false,
      "t": 151065.48816666598,
      "d": 20.491791666659992,
      "v": 120
    },
    {
      "midi": 63,
      "hit": false,
      "t": 151065.48816666598,
      "d": 20.491791666659992,
      "v": 106
    },
    {
      "midi": 41,
      "hit": false,
      "t": 151065.4881666663,
      "d": 225.40970833334723,
      "v": 115
    },
    {
      "midi": 75,
      "hit": false,
      "t": 151065.4881666664,
      "d": 676.2291250000126,
      "v": 127
    },
    {
      "midi": 75,
      "hit": false,
      "t": 151065.4881666664,
      "d": 676.2291250000126,
      "v": 110
    },
    {
      "midi": 43,
      "hit": false,
      "t": 151311.3896666663,
      "d": 225.40970833334723,
      "v": 115
    },
    {
      "midi": 42,
      "hit": false,
      "t": 151557.29116666596,
      "d": 20.491791666659992,
      "v": 120
    },
    {
      "midi": 36,
      "hit": false,
      "t": 151557.29116666596,
      "d": 20.491791666659992,
      "v": 120
    },
    {
      "midi": 63,
      "hit": false,
      "t": 151557.29116666596,
      "d": 20.491791666659992,
      "v": 106
    },
    {
      "midi": 41,
      "hit": false,
      "t": 151557.2911666663,
      "d": 450.81941666666535,
      "v": 115
    },
    {
      "midi": 63,
      "hit": false,
      "t": 151557.29116666707,
      "d": 491.80300000001444,
      "v": 90
    },
    {
      "midi": 68,
      "hit": false,
      "t": 151557.29116666707,
      "d": 491.80300000001444,
      "v": 90
    },
    {
      "midi": 72,
      "hit": false,
      "t": 151557.29116666707,
      "d": 491.80300000001444,
      "v": 90
    },
    {
      "midi": 75,
      "hit": false,
      "t": 151557.29116666724,
      "d": 983.6060000000289,
      "v": 95
    },
    {
      "midi": 67,
      "hit": false,
      "t": 152008.11058333353,
      "d": 491.80300000001444,
      "v": 80
    },
    {
      "midi": 60,
      "hit": false,
      "t": 152008.11058333353,
      "d": 491.80300000001444,
      "v": 80
    },
    {
      "midi": 63,
      "hit": false,
      "t": 152008.11058333353,
      "d": 491.80300000001444,
      "v": 80
    },
    {
      "midi": 42,
      "hit": false,
      "t": 152049.09416666595,
      "d": 20.491791666659992,
      "v": 120
    },
    {
      "midi": 36,
      "hit": false,
      "t": 152049.09416666595,
      "d": 20.491791666659992,
      "v": 120
    },
    {
      "midi": 62,
      "hit": false,
      "t": 152049.09416666595,
      "d": 20.491791666659992,
      "v": 106
    },
    {
      "midi": 39,
      "hit": false,
      "t": 152049.0941666663,
      "d": 450.81941666666535,
      "v": 115
    },
    {
      "midi": 79,
      "hit": false,
      "t": 152049.0941666664,
      "d": 450.81941666666535,
      "v": 127
    },
    {
      "midi": 79,
      "hit": false,
      "t": 152049.0941666664,
      "d": 450.81941666666535,
      "v": 110
    },
    {
      "midi": 65,
      "hit": false,
      "t": 152499.91358333355,
      "d": 122.95074999998906,
      "v": 80
    },
    {
      "midi": 60,
      "hit": false,
      "t": 152499.91358333355,
      "d": 122.95074999998906,
      "v": 80
    },
    {
      "midi": 63,
      "hit": false,
      "t": 152499.91358333355,
      "d": 122.95074999998906,
      "v": 80
    },
    {
      "midi": 42,
      "hit": false,
      "t": 152540.89716666593,
      "d": 20.491791666659992,
      "v": 120
    },
    {
      "midi": 40,
      "hit": false,
      "t": 152540.89716666593,
      "d": 20.491791666659992,
      "v": 120
    },
    {
      "midi": 83,
      "hit": false,
      "t": 152540.89716666593,
      "d": 20.491791666659992,
      "v": 78
    },
    {
      "midi": 32,
      "hit": false,
      "t": 152540.89716666628,
      "d": 450.81941666666535,
      "v": 115
    },
    {
      "midi": 80,
      "hit": false,
      "t": 152540.89716666637,
      "d": 450.81941666666535,
      "v": 127
    },
    {
      "midi": 80,
      "hit": false,
      "t": 152540.89716666637,
      "d": 450.81941666666535,
      "v": 110
    },
    {
      "midi": 63,
      "hit": false,
      "t": 152540.8971666671,
      "d": 245.90150000000722,
      "v": 90
    },
    {
      "midi": 68,
      "hit": false,
      "t": 152540.8971666671,
      "d": 245.90150000000722,
      "v": 90
    },
    {
      "midi": 72,
      "hit": false,
      "t": 152540.8971666671,
      "d": 245.90150000000722,
      "v": 90
    },
    {
      "midi": 75,
      "hit": false,
      "t": 152540.89716666727,
      "d": 983.6060000000289,
      "v": 95
    },
    {
      "midi": 65,
      "hit": false,
      "t": 152622.86433333353,
      "d": 368.8522499999963,
      "v": 80
    },
    {
      "midi": 60,
      "hit": false,
      "t": 152622.86433333353,
      "d": 368.8522499999963,
      "v": 80
    },
    {
      "midi": 63,
      "hit": false,
      "t": 152622.86433333353,
      "d": 368.8522499999963,
      "v": 80
    },
    {
      "midi": 67,
      "hit": false,
      "t": 152991.71658333353,
      "d": 122.95074999998906,
      "v": 80
    },
    {
      "midi": 58,
      "hit": false,
      "t": 152991.71658333353,
      "d": 122.95074999998906,
      "v": 80
    },
    {
      "midi": 63,
      "hit": false,
      "t": 152991.71658333353,
      "d": 122.95074999998906,
      "v": 80
    },
    {
      "midi": 42,
      "hit": false,
      "t": 153032.70016666592,
      "d": 20.491791666659992,
      "v": 120
    },
    {
      "midi": 36,
      "hit": false,
      "t": 153032.70016666592,
      "d": 20.491791666659992,
      "v": 120
    },
    {
      "midi": 63,
      "hit": false,
      "t": 153032.70016666592,
      "d": 20.491791666659992,
      "v": 106
    },
    {
      "midi": 31,
      "hit": false,
      "t": 153032.70016666627,
      "d": 942.6224166666798,
      "v": 105
    },
    {
      "midi": 82,
      "hit": false,
      "t": 153032.70016666636,
      "d": 942.6224166666798,
      "v": 117
    },
    {
      "midi": 82,
      "hit": false,
      "t": 153032.70016666636,
      "d": 942.6224166666798,
      "v": 100
    },
    {
      "midi": 63,
      "hit": false,
      "t": 153032.70016666662,
      "d": 4405.735208333324,
      "v": 110
    },
    {
      "midi": 55,
      "hit": false,
      "t": 153032.70016666662,
      "d": 4405.735208333324,
      "v": 110
    },
    {
      "midi": 58,
      "hit": false,
      "t": 153032.70016666662,
      "d": 4405.735208333324,
      "v": 110
    },
    {
      "midi": 67,
      "hit": false,
      "t": 153032.7001666669,
      "d": 4303.276250000112,
      "v": 95
    },
    {
      "midi": 70,
      "hit": false,
      "t": 153032.7001666669,
      "d": 4303.276250000112,
      "v": 95
    },
    {
      "midi": 63,
      "hit": false,
      "t": 153032.7001666671,
      "d": 737.7044999999925,
      "v": 90
    },
    {
      "midi": 67,
      "hit": false,
      "t": 153032.7001666671,
      "d": 737.7044999999925,
      "v": 90
    },
    {
      "midi": 70,
      "hit": false,
      "t": 153032.7001666671,
      "d": 737.7044999999925,
      "v": 90
    },
    {
      "midi": 67,
      "hit": false,
      "t": 153114.66733333352,
      "d": 860.6552500000107,
      "v": 80
    },
    {
      "midi": 58,
      "hit": false,
      "t": 153114.66733333352,
      "d": 860.6552500000107,
      "v": 80
    },
    {
      "midi": 63,
      "hit": false,
      "t": 153114.66733333352,
      "d": 860.6552500000107,
      "v": 80
    },
    {
      "midi": 42,
      "hit": false,
      "t": 153524.5031666659,
      "d": 20.491791666659992,
      "v": 120
    },
    {
      "midi": 63,
      "hit": false,
      "t": 153524.5031666659,
      "d": 20.491791666659992,
      "v": 106
    },
    {
      "midi": 75,
      "hit": false,
      "t": 153524.5031666673,
      "d": 983.6060000000289,
      "v": 95
    },
    {
      "midi": 67,
      "hit": false,
      "t": 153975.32258333353,
      "d": 491.80300000001444,
      "v": 80
    },
    {
      "midi": 58,
      "hit": false,
      "t": 153975.32258333353,
      "d": 491.80300000001444,
      "v": 80
    },
    {
      "midi": 63,
      "hit": false,
      "t": 153975.32258333353,
      "d": 491.80300000001444,
      "v": 80
    },
    {
      "midi": 42,
      "hit": false,
      "t": 154016.3061666659,
      "d": 20.491791666659992,
      "v": 120
    },
    {
      "midi": 36,
      "hit": false,
      "t": 154016.3061666659,
      "d": 20.491791666659992,
      "v": 120
    },
    {
      "midi": 62,
      "hit": false,
      "t": 154016.3061666659,
      "d": 20.491791666659992,
      "v": 106
    },
    {
      "midi": 31,
      "hit": false,
      "t": 154016.30616666627,
      "d": 225.40970833334723,
      "v": 115
    },
    {
      "midi": 75,
      "hit": false,
      "t": 154016.30616666636,
      "d": 450.81941666666535,
      "v": 127
    },
    {
      "midi": 75,
      "hit": false,
      "t": 154016.30616666636,
      "d": 450.81941666666535,
      "v": 110
    },
    {
      "midi": 63,
      "hit": false,
      "t": 154016.3061666671,
      "d": 245.90150000000722,
      "v": 90
    },
    {
      "midi": 67,
      "hit": false,
      "t": 154016.3061666671,
      "d": 245.90150000000722,
      "v": 90
    },
    {
      "midi": 70,
      "hit": false,
      "t": 154016.3061666671,
      "d": 245.90150000000722,
      "v": 90
    },
    {
      "midi": 65,
      "hit": false,
      "t": 154467.12558333355,
      "d": 491.80300000001444,
      "v": 80
    },
    {
      "midi": 58,
      "hit": false,
      "t": 154467.12558333355,
      "d": 491.80300000001444,
      "v": 80
    },
    {
      "midi": 62,
      "hit": false,
      "t": 154467.12558333355,
      "d": 491.80300000001444,
      "v": 80
    },
    {
      "midi": 42,
      "hit": false,
      "t": 154508.10916666588,
      "d": 20.491791666659992,
      "v": 120
    },
    {
      "midi": 40,
      "hit": false,
      "t": 154508.10916666588,
      "d": 20.491791666659992,
      "v": 120
    },
    {
      "midi": 83,
      "hit": false,
      "t": 154508.10916666588,
      "d": 20.491791666659992,
      "v": 78
    },
    {
      "midi": 74,
      "hit": false,
      "t": 154508.10916666634,
      "d": 450.81941666666535,
      "v": 127
    },
    {
      "midi": 74,
      "hit": false,
      "t": 154508.10916666634,
      "d": 450.81941666666535,
      "v": 110
    },
    {
      "midi": 63,
      "hit": false,
      "t": 154508.10916666713,
      "d": 491.80300000001444,
      "v": 90
    },
    {
      "midi": 67,
      "hit": false,
      "t": 154508.10916666713,
      "d": 491.80300000001444,
      "v": 90
    },
    {
      "midi": 70,
      "hit": false,
      "t": 154508.10916666713,
      "d": 491.80300000001444,
      "v": 90
    },
    {
      "midi": 75,
      "hit": false,
      "t": 154508.10916666733,
      "d": 983.6060000000289,
      "v": 95
    },
    {
      "midi": 67,
      "hit": false,
      "t": 154958.92858333356,
      "d": 983.6059999999998,
      "v": 80
    },
    {
      "midi": 58,
      "hit": false,
      "t": 154958.92858333356,
      "d": 983.6059999999998,
      "v": 80
    },
    {
      "midi": 63,
      "hit": false,
      "t": 154958.92858333356,
      "d": 983.6059999999998,
      "v": 80
    },
    {
      "midi": 42,
      "hit": false,
      "t": 154999.91216666586,
      "d": 20.491791666659992,
      "v": 120
    },
    {
      "midi": 36,
      "hit": false,
      "t": 154999.91216666586,
      "d": 20.491791666659992,
      "v": 120
    },
    {
      "midi": 63,
      "hit": false,
      "t": 154999.91216666586,
      "d": 20.491791666659992,
      "v": 106
    },
    {
      "midi": 31,
      "hit": false,
      "t": 154999.91216666627,
      "d": 450.81941666666535,
      "v": 115
    },
    {
      "midi": 75,
      "hit": false,
      "t": 154999.91216666633,
      "d": 1127.048541666678,
      "v": 127
    },
    {
      "midi": 75,
      "hit": false,
      "t": 154999.91216666633,
      "d": 1127.048541666678,
      "v": 110
    },
    {
      "midi": 62,
      "hit": false,
      "t": 155245.81366666587,
      "d": 20.491791666659992,
      "v": 106
    },
    {
      "midi": 42,
      "hit": false,
      "t": 155491.71516666588,
      "d": 20.491791666659992,
      "v": 120
    },
    {
      "midi": 63,
      "hit": false,
      "t": 155491.71516666588,
      "d": 20.491791666659992,
      "v": 106
    },
    {
      "midi": 31,
      "hit": false,
      "t": 155491.71516666625,
      "d": 450.81941666666535,
      "v": 115
    },
    {
      "midi": 58,
      "hit": false,
      "t": 155491.7151666669,
      "d": 491.80300000001444,
      "v": 100
    },
    {
      "midi": 63,
      "hit": false,
      "t": 155491.7151666669,
      "d": 491.80300000001444,
      "v": 100
    },
    {
      "midi": 67,
      "hit": false,
      "t": 155491.7151666669,
      "d": 491.80300000001444,
      "v": 100
    },
    {
      "midi": 63,
      "hit": false,
      "t": 155491.71516666716,
      "d": 245.90150000000722,
      "v": 90
    },
    {
      "midi": 67,
      "hit": false,
      "t": 155491.71516666716,
      "d": 245.90150000000722,
      "v": 90
    },
    {
      "midi": 68,
      "hit": false,
      "t": 155491.71516666716,
      "d": 245.90150000000722,
      "v": 90
    },
    {
      "midi": 75,
      "hit": false,
      "t": 155491.71516666736,
      "d": 983.6060000000289,
      "v": 95
    },
    {
      "midi": 62,
      "hit": false,
      "t": 155737.61666666588,
      "d": 20.491791666659992,
      "v": 106
    },
    {
      "midi": 42,
      "hit": false,
      "t": 155983.5181666659,
      "d": 20.491791666659992,
      "v": 120
    },
    {
      "midi": 36,
      "hit": false,
      "t": 155983.5181666659,
      "d": 20.491791666659992,
      "v": 120
    },
    {
      "midi": 63,
      "hit": false,
      "t": 155983.5181666659,
      "d": 20.491791666659992,
      "v": 106
    },
    {
      "midi": 34,
      "hit": false,
      "t": 155983.51816666624,
      "d": 450.81941666666535,
      "v": 115
    },
    {
      "midi": 58,
      "hit": false,
      "t": 155983.5181666669,
      "d": 491.80300000001444,
      "v": 100
    },
    {
      "midi": 65,
      "hit": false,
      "t": 155983.5181666669,
      "d": 491.80300000001444,
      "v": 100
    },
    {
      "midi": 68,
      "hit": false,
      "t": 155983.5181666669,
      "d": 491.80300000001444,
      "v": 100
    },
    {
      "midi": 63,
      "hit": false,
      "t": 155983.51816666717,
      "d": 491.80300000001444,
      "v": 90
    },
    {
      "midi": 67,
      "hit": false,
      "t": 155983.51816666717,
      "d": 491.80300000001444,
      "v": 90
    },
    {
      "midi": 70,
      "hit": false,
      "t": 155983.51816666717,
      "d": 491.80300000001444,
      "v": 90
    },
    {
      "midi": 42,
      "hit": false,
      "t": 156475.32116666588,
      "d": 20.491791666659992,
      "v": 120
    },
    {
      "midi": 40,
      "hit": false,
      "t": 156475.32116666588,
      "d": 20.491791666659992,
      "v": 120
    },
    {
      "midi": 83,
      "hit": false,
      "t": 156475.32116666588,
      "d": 20.491791666659992,
      "v": 78
    },
    {
      "midi": 27,
      "hit": false,
      "t": 156475.32116666622,
      "d": 450.81941666666535,
      "v": 115
    },
    {
      "midi": 72,
      "hit": false,
      "t": 156475.32116666634,
      "d": 450.81941666666535,
      "v": 127
    },
    {
      "midi": 72,
      "hit": false,
      "t": 156475.32116666634,
      "d": 450.81941666666535,
      "v": 110
    },
    {
      "midi": 63,
      "hit": false,
      "t": 156475.32116666692,
      "d": 491.80300000001444,
      "v": 100
    },
    {
      "midi": 67,
      "hit": false,
      "t": 156475.32116666692,
      "d": 491.80300000001444,
      "v": 100
    },
    {
      "midi": 70,
      "hit": false,
      "t": 156475.32116666692,
      "d": 491.80300000001444,
      "v": 100
    },
    {
      "midi": 75,
      "hit": false,
      "t": 156475.3211666674,
      "d": 983.6060000000289,
      "v": 95
    },
    {
      "midi": 42,
      "hit": false,
      "t": 156967.12416666586,
      "d": 20.491791666659992,
      "v": 120
    },
    {
      "midi": 36,
      "hit": false,
      "t": 156967.12416666586,
      "d": 20.491791666659992,
      "v": 120
    },
    {
      "midi": 62,
      "hit": false,
      "t": 156967.12416666586,
      "d": 20.491791666659992,
      "v": 106
    },
    {
      "midi": 31,
      "hit": false,
      "t": 156967.1241666662,
      "d": 450.81941666666535,
      "v": 115
    },
    {
      "midi": 74,
      "hit": false,
      "t": 156967.12416666633,
      "d": 450.81941666666535,
      "v": 127
    },
    {
      "midi": 74,
      "hit": false,
      "t": 156967.12416666633,
      "d": 450.81941666666535,
      "v": 110
    },
    {
      "midi": 65,
      "hit": false,
      "t": 156967.12416666694,
      "d": 491.80300000001444,
      "v": 100
    },
    {
      "midi": 68,
      "hit": false,
      "t": 156967.12416666694,
      "d": 491.80300000001444,
      "v": 100
    },
    {
      "midi": 72,
      "hit": false,
      "t": 156967.12416666694,
      "d": 983.6060000000289,
      "v": 100
    },
    {
      "midi": 36,
      "hit": false,
      "t": 157458.92716666585,
      "d": 20.491791666659992,
      "v": 92
    },
    {
      "midi": 63,
      "hit": false,
      "t": 157458.92716666585,
      "d": 20.491791666659992,
      "v": 106
    },
    {
      "midi": 42,
      "hit": false,
      "t": 157458.92716666585,
      "d": 20.491791666659992,
      "v": 120
    },
    {
      "midi": 29,
      "hit": false,
      "t": 157458.9271666662,
      "d": 450.81941666666535,
      "v": 105
    },
    {
      "midi": 75,
      "hit": false,
      "t": 157458.9271666663,
      "d": 450.81941666666535,
      "v": 117
    },
    {
      "midi": 75,
      "hit": false,
      "t": 157458.9271666663,
      "d": 450.81941666666535,
      "v": 100
    },
    {
      "midi": 65,
      "hit": false,
      "t": 157458.9271666666,
      "d": 1946.7202083333395,
      "v": 110
    },
    {
      "midi": 56,
      "hit": false,
      "t": 157458.9271666666,
      "d": 1946.7202083333395,
      "v": 110
    },
    {
      "midi": 60,
      "hit": false,
      "t": 157458.9271666666,
      "d": 1946.7202083333395,
      "v": 110
    },
    {
      "midi": 60,
      "hit": false,
      "t": 157458.92716666695,
      "d": 491.80300000001444,
      "v": 110
    },
    {
      "midi": 65,
      "hit": false,
      "t": 157458.92716666718,
      "d": 491.80300000001444,
      "v": 90
    },
    {
      "midi": 68,
      "hit": false,
      "t": 157458.92716666718,
      "d": 491.80300000001444,
      "v": 90
    },
    {
      "midi": 72,
      "hit": false,
      "t": 157458.92716666718,
      "d": 491.80300000001444,
      "v": 90
    },
    {
      "midi": 75,
      "hit": false,
      "t": 157458.92716666742,
      "d": 983.6060000000289,
      "v": 95
    },
    {
      "midi": 42,
      "hit": false,
      "t": 157950.73016666583,
      "d": 20.491791666659992,
      "v": 120
    },
    {
      "midi": 62,
      "hit": false,
      "t": 157950.73016666583,
      "d": 20.491791666659992,
      "v": 106
    },
    {
      "midi": 29,
      "hit": false,
      "t": 157950.73016666618,
      "d": 901.6388333333307,
      "v": 115
    },
    {
      "midi": 77,
      "hit": false,
      "t": 157950.7301666663,
      "d": 450.81941666666535,
      "v": 127
    },
    {
      "midi": 77,
      "hit": false,
      "t": 157950.7301666663,
      "d": 450.81941666666535,
      "v": 110
    },
    {
      "midi": 62,
      "hit": false,
      "t": 157950.73016666697,
      "d": 491.80300000001444,
      "v": 110
    },
    {
      "midi": 74,
      "hit": false,
      "t": 157950.73016666697,
      "d": 491.80300000001444,
      "v": 110
    },
    {
      "midi": 42,
      "hit": false,
      "t": 158442.53316666582,
      "d": 20.491791666659992,
      "v": 120
    },
    {
      "midi": 40,
      "hit": false,
      "t": 158442.53316666582,
      "d": 20.491791666659992,
      "v": 120
    },
    {
      "midi": 83,
      "hit": false,
      "t": 158442.53316666582,
      "d": 20.491791666659992,
      "v": 78
    },
    {
      "midi": 79,
      "hit": false,
      "t": 158442.53316666628,
      "d": 450.81941666666535,
      "v": 127
    },
    {
      "midi": 79,
      "hit": false,
      "t": 158442.53316666628,
      "d": 450.81941666666535,
      "v": 110
    },
    {
      "midi": 63,
      "hit": false,
      "t": 158442.53316666698,
      "d": 491.80300000001444,
      "v": 110
    },
    {
      "midi": 75,
      "hit": false,
      "t": 158442.53316666698,
      "d": 491.80300000001444,
      "v": 110
    },
    {
      "midi": 65,
      "hit": false,
      "t": 158442.5331666672,
      "d": 491.80300000001444,
      "v": 90
    },
    {
      "midi": 68,
      "hit": false,
      "t": 158442.5331666672,
      "d": 491.80300000001444,
      "v": 90
    },
    {
      "midi": 72,
      "hit": false,
      "t": 158442.5331666672,
      "d": 491.80300000001444,
      "v": 90
    },
    {
      "midi": 75,
      "hit": false,
      "t": 158442.53316666745,
      "d": 983.6060000000289,
      "v": 95
    },
    {
      "midi": 42,
      "hit": false,
      "t": 158934.3361666658,
      "d": 20.491791666659992,
      "v": 120
    },
    {
      "midi": 63,
      "hit": false,
      "t": 158934.3361666658,
      "d": 20.491791666659992,
      "v": 106
    },
    {
      "midi": 29,
      "hit": false,
      "t": 158934.33616666618,
      "d": 450.81941666666535,
      "v": 115
    },
    {
      "midi": 80,
      "hit": false,
      "t": 158934.33616666627,
      "d": 450.81941666666535,
      "v": 127
    },
    {
      "midi": 80,
      "hit": false,
      "t": 158934.33616666627,
      "d": 450.81941666666535,
      "v": 110
    },
    {
      "midi": 65,
      "hit": false,
      "t": 158934.336166667,
      "d": 491.80300000001444,
      "v": 110
    },
    {
      "midi": 77,
      "hit": false,
      "t": 158934.336166667,
      "d": 491.80300000001444,
      "v": 110
    },
    {
      "midi": 42,
      "hit": false,
      "t": 159426.1391666658,
      "d": 20.491791666659992,
      "v": 120
    },
    {
      "midi": 36,
      "hit": false,
      "t": 159426.1391666658,
      "d": 20.491791666659992,
      "v": 120
    },
    {
      "midi": 63,
      "hit": false,
      "t": 159426.1391666658,
      "d": 20.491791666659992,
      "v": 106
    },
    {
      "midi": 34,
      "hit": false,
      "t": 159426.13916666617,
      "d": 450.81941666666535,
      "v": 115
    },
    {
      "midi": 82,
      "hit": false,
      "t": 159426.13916666625,
      "d": 450.81941666666535,
      "v": 127
    },
    {
      "midi": 82,
      "hit": false,
      "t": 159426.13916666625,
      "d": 450.81941666666535,
      "v": 110
    },
    {
      "midi": 63,
      "hit": false,
      "t": 159426.1391666666,
      "d": 963.1142083333398,
      "v": 110
    },
    {
      "midi": 56,
      "hit": false,
      "t": 159426.1391666666,
      "d": 963.1142083333398,
      "v": 110
    },
    {
      "midi": 60,
      "hit": false,
      "t": 159426.1391666666,
      "d": 963.1142083333398,
      "v": 110
    },
    {
      "midi": 67,
      "hit": false,
      "t": 159426.139166667,
      "d": 491.80300000001444,
      "v": 110
    },
    {
      "midi": 79,
      "hit": false,
      "t": 159426.139166667,
      "d": 491.80300000001444,
      "v": 110
    },
    {
      "midi": 63,
      "hit": false,
      "t": 159426.13916666724,
      "d": 491.80300000001444,
      "v": 90
    },
    {
      "midi": 68,
      "hit": false,
      "t": 159426.13916666724,
      "d": 491.80300000001444,
      "v": 90
    },
    {
      "midi": 72,
      "hit": false,
      "t": 159426.13916666724,
      "d": 491.80300000001444,
      "v": 90
    },
    {
      "midi": 75,
      "hit": false,
      "t": 159426.13916666748,
      "d": 983.6060000000289,
      "v": 95
    },
    {
      "midi": 36,
      "hit": false,
      "t": 159917.94216666577,
      "d": 20.491791666659992,
      "v": 120
    },
    {
      "midi": 62,
      "hit": false,
      "t": 159917.94216666577,
      "d": 20.491791666659992,
      "v": 106
    },
    {
      "midi": 46,
      "hit": false,
      "t": 159917.94216666577,
      "d": 20.491791666659992,
      "v": 120
    },
    {
      "midi": 29,
      "hit": false,
      "t": 159917.94216666615,
      "d": 450.81941666666535,
      "v": 115
    },
    {
      "midi": 75,
      "hit": false,
      "t": 159917.94216666624,
      "d": 450.81941666666535,
      "v": 127
    },
    {
      "midi": 75,
      "hit": false,
      "t": 159917.94216666624,
      "d": 450.81941666666535,
      "v": 110
    },
    {
      "midi": 70,
      "hit": false,
      "t": 159917.94216666702,
      "d": 573.7701666666544,
      "v": 110
    },
    {
      "midi": 82,
      "hit": false,
      "t": 159917.94216666702,
      "d": 573.7701666666544,
      "v": 110
    },
    {
      "midi": 40,
      "hit": false,
      "t": 160409.74516666576,
      "d": 20.491791666659992,
      "v": 120
    },
    {
      "midi": 42,
      "hit": false,
      "t": 160409.74516666576,
      "d": 20.491791666659992,
      "v": 120
    },
    {
      "midi": 83,
      "hit": false,
      "t": 160409.74516666576,
      "d": 20.491791666659992,
      "v": 78
    },
    {
      "midi": 34,
      "hit": false,
      "t": 160409.74516666614,
      "d": 450.81941666666535,
      "v": 115
    },
    {
      "midi": 77,
      "hit": false,
      "t": 160409.74516666622,
      "d": 450.81941666666535,
      "v": 127
    },
    {
      "midi": 77,
      "hit": false,
      "t": 160409.74516666622,
      "d": 450.81941666666535,
      "v": 110
    },
    {
      "midi": 63,
      "hit": false,
      "t": 160409.7451666666,
      "d": 245.90150000000722,
      "v": 110
    },
    {
      "midi": 55,
      "hit": false,
      "t": 160409.7451666666,
      "d": 245.90150000000722,
      "v": 110
    },
    {
      "midi": 58,
      "hit": false,
      "t": 160409.7451666666,
      "d": 245.90150000000722,
      "v": 110
    },
    {
      "midi": 63,
      "hit": false,
      "t": 160409.74516666727,
      "d": 245.90150000000722,
      "v": 90
    },
    {
      "midi": 67,
      "hit": false,
      "t": 160409.74516666727,
      "d": 245.90150000000722,
      "v": 90
    },
    {
      "midi": 70,
      "hit": false,
      "t": 160409.74516666727,
      "d": 245.90150000000722,
      "v": 90
    },
    {
      "midi": 75,
      "hit": false,
      "t": 160409.7451666675,
      "d": 983.6060000000289,
      "v": 95
    },
    {
      "midi": 36,
      "hit": false,
      "t": 160901.54816666574,
      "d": 20.491791666659992,
      "v": 120
    },
    {
      "midi": 63,
      "hit": false,
      "t": 160901.54816666574,
      "d": 20.491791666659992,
      "v": 106
    },
    {
      "midi": 49,
      "hit": false,
      "t": 160901.54816666574,
      "d": 20.491791666659992,
      "v": 64
    },
    {
      "midi": 27,
      "hit": false,
      "t": 160901.54816666612,
      "d": 1926.2284166666795,
      "v": 105
    },
    {
      "midi": 75,
      "hit": false,
      "t": 160901.5481666662,
      "d": 1967.2119999999995,
      "v": 117
    },
    {
      "midi": 75,
      "hit": false,
      "t": 160901.5481666662,
      "d": 1967.2119999999995,
      "v": 100
    },
    {
      "midi": 63,
      "hit": false,
      "t": 160901.54816666662,
      "d": 3913.932208333339,
      "v": 110
    },
    {
      "midi": 55,
      "hit": false,
      "t": 160901.54816666662,
      "d": 3913.932208333339,
      "v": 110
    },
    {
      "midi": 58,
      "hit": false,
      "t": 160901.54816666662,
      "d": 3913.932208333339,
      "v": 110
    },
    {
      "midi": 75,
      "hit": false,
      "t": 160901.54816666702,
      "d": 655.7373333333235,
      "v": 110
    },
    {
      "midi": 87,
      "hit": false,
      "t": 160901.54816666702,
      "d": 655.7373333333235,
      "v": 110
    },
    {
      "midi": 63,
      "hit": false,
      "t": 160901.5481666673,
      "d": 512.2947916666744,
      "v": 90
    },
    {
      "midi": 67,
      "hit": false,
      "t": 160901.5481666673,
      "d": 512.2947916666744,
      "v": 90
    },
    {
      "midi": 70,
      "hit": false,
      "t": 160901.5481666673,
      "d": 512.2947916666744,
      "v": 90
    },
    {
      "midi": 36,
      "hit": false,
      "t": 161393.35116666573,
      "d": 20.491791666659992,
      "v": 92
    },
    {
      "midi": 63,
      "hit": false,
      "t": 161393.35116666573,
      "d": 20.491791666659992,
      "v": 106
    },
    {
      "midi": 42,
      "hit": false,
      "t": 161393.35116666573,
      "d": 20.491791666659992,
      "v": 120
    },
    {
      "midi": 75,
      "hit": false,
      "t": 161393.35116666753,
      "d": 983.6060000000289,
      "v": 95
    },
    {
      "midi": 42,
      "hit": false,
      "t": 161885.1541666657,
      "d": 20.491791666659992,
      "v": 120
    },
    {
      "midi": 62,
      "hit": false,
      "t": 161885.1541666657,
      "d": 20.491791666659992,
      "v": 106
    },
    {
      "midi": 67,
      "hit": false,
      "t": 161885.15416666702,
      "d": 225.40970833334723,
      "v": 110
    },
    {
      "midi": 79,
      "hit": false,
      "t": 161885.15416666702,
      "d": 225.40970833334723,
      "v": 110
    },
    {
      "midi": 42,
      "hit": false,
      "t": 162376.9571666657,
      "d": 20.491791666659992,
      "v": 120
    },
    {
      "midi": 40,
      "hit": false,
      "t": 162376.9571666657,
      "d": 20.491791666659992,
      "v": 120
    },
    {
      "midi": 83,
      "hit": false,
      "t": 162376.9571666657,
      "d": 20.491791666659992,
      "v": 78
    },
    {
      "midi": 70,
      "hit": false,
      "t": 162376.95716666704,
      "d": 225.40970833334723,
      "v": 110
    },
    {
      "midi": 82,
      "hit": false,
      "t": 162376.95716666704,
      "d": 225.40970833334723,
      "v": 110
    },
    {
      "midi": 75,
      "hit": false,
      "t": 162376.95716666756,
      "d": 983.6060000000289,
      "v": 95
    },
    {
      "midi": 63,
      "hit": false,
      "t": 162868.76016666568,
      "d": 20.491791666659992,
      "v": 106
    },
    {
      "midi": 37,
      "hit": false,
      "t": 162868.76016666568,
      "d": 20.491791666659992,
      "v": 120
    },
    {
      "midi": 41,
      "hit": false,
      "t": 162868.76016666612,
      "d": 225.40970833334723,
      "v": 115
    },
    {
      "midi": 65,
      "hit": false,
      "t": 162868.76016666705,
      "d": 225.40970833334723,
      "v": 110
    },
    {
      "midi": 77,
      "hit": false,
      "t": 162868.76016666705,
      "d": 225.40970833334723,
      "v": 110
    },
    {
      "midi": 37,
      "hit": false,
      "t": 163114.6616666657,
      "d": 20.491791666659992,
      "v": 120
    },
    {
      "midi": 43,
      "hit": false,
      "t": 163114.66166666613,
      "d": 225.40970833334723,
      "v": 115
    },
    {
      "midi": 66,
      "hit": false,
      "t": 163114.66166666706,
      "d": 225.40970833334723,
      "v": 110
    },
    {
      "midi": 78,
      "hit": false,
      "t": 163114.66166666706,
      "d": 225.40970833334723,
      "v": 110
    },
    {
      "midi": 63,
      "hit": false,
      "t": 163360.5631666657,
      "d": 20.491791666659992,
      "v": 106
    },
    {
      "midi": 37,
      "hit": false,
      "t": 163360.5631666657,
      "d": 20.491791666659992,
      "v": 120
    },
    {
      "midi": 36,
      "hit": false,
      "t": 163360.5631666657,
      "d": 20.491791666659992,
      "v": 92
    },
    {
      "midi": 41,
      "hit": false,
      "t": 163360.56316666614,
      "d": 450.81941666666535,
      "v": 115
    },
    {
      "midi": 67,
      "hit": false,
      "t": 163360.56316666707,
      "d": 225.40970833334723,
      "v": 110
    },
    {
      "midi": 79,
      "hit": false,
      "t": 163360.56316666707,
      "d": 225.40970833334723,
      "v": 110
    },
    {
      "midi": 75,
      "hit": false,
      "t": 163360.5631666676,
      "d": 983.6060000000289,
      "v": 95
    },
    {
      "midi": 55,
      "hit": false,
      "t": 163811.38258333356,
      "d": 491.80300000001444,
      "v": 80
    },
    {
      "midi": 58,
      "hit": false,
      "t": 163811.38258333356,
      "d": 491.80300000001444,
      "v": 80
    },
    {
      "midi": 63,
      "hit": false,
      "t": 163811.38258333356,
      "d": 491.80300000001444,
      "v": 80
    },
    {
      "midi": 62,
      "hit": false,
      "t": 163852.36616666568,
      "d": 20.491791666659992,
      "v": 106
    },
    {
      "midi": 37,
      "hit": false,
      "t": 163852.36616666568,
      "d": 20.491791666659992,
      "v": 120
    },
    {
      "midi": 36,
      "hit": false,
      "t": 163852.36616666612,
      "d": 450.81941666666535,
      "v": 115
    },
    {
      "midi": 79,
      "hit": false,
      "t": 163852.3661666662,
      "d": 450.81941666666535,
      "v": 127
    },
    {
      "midi": 79,
      "hit": false,
      "t": 163852.3661666662,
      "d": 450.81941666666535,
      "v": 110
    },
    {
      "midi": 84,
      "hit": false,
      "t": 163852.36616666673,
      "d": 491.80300000001444,
      "v": 100
    },
    {
      "midi": 58,
      "hit": false,
      "t": 163852.36616666729,
      "d": 491.80300000001444,
      "v": 90
    },
    {
      "midi": 63,
      "hit": false,
      "t": 163852.36616666729,
      "d": 491.80300000001444,
      "v": 90
    },
    {
      "midi": 67,
      "hit": false,
      "t": 163852.36616666729,
      "d": 491.80300000001444,
      "v": 90
    },
    {
      "midi": 55,
      "hit": false,
      "t": 164303.18558333357,
      "d": 491.80300000001444,
      "v": 80
    },
    {
      "midi": 58,
      "hit": false,
      "t": 164303.18558333357,
      "d": 491.80300000001444,
      "v": 80
    },
    {
      "midi": 65,
      "hit": false,
      "t": 164303.18558333357,
      "d": 491.80300000001444,
      "v": 80
    },
    {
      "midi": 83,
      "hit": false,
      "t": 164344.16916666567,
      "d": 20.491791666659992,
      "v": 78
    },
    {
      "midi": 37,
      "hit": false,
      "t": 164344.16916666567,
      "d": 20.491791666659992,
      "v": 120
    },
    {
      "midi": 32,
      "hit": false,
      "t": 164344.1691666661,
      "d": 450.81941666666535,
      "v": 115
    },
    {
      "midi": 80,
      "hit": false,
      "t": 164344.1691666662,
      "d": 450.81941666666535,
      "v": 127
    },
    {
      "midi": 80,
      "hit": false,
      "t": 164344.1691666662,
      "d": 450.81941666666535,
      "v": 110
    },
    {
      "midi": 80,
      "hit": false,
      "t": 164344.16916666675,
      "d": 491.80300000001444,
      "v": 100
    },
    {
      "midi": 63,
      "hit": false,
      "t": 164344.1691666673,
      "d": 491.80300000001444,
      "v": 90
    },
    {
      "midi": 67,
      "hit": false,
      "t": 164344.1691666673,
      "d": 491.80300000001444,
      "v": 90
    },
    {
      "midi": 68,
      "hit": false,
      "t": 164344.1691666673,
      "d": 491.80300000001444,
      "v": 90
    },
    {
      "midi": 75,
      "hit": false,
      "t": 164344.16916666762,
      "d": 983.6060000000289,
      "v": 95
    },
    {
      "midi": 63,
      "hit": false,
      "t": 164794.9885833336,
      "d": 491.80300000001444,
      "v": 80
    },
    {
      "midi": 58,
      "hit": false,
      "t": 164794.9885833336,
      "d": 491.80300000001444,
      "v": 80
    },
    {
      "midi": 67,
      "hit": false,
      "t": 164794.9885833336,
      "d": 491.80300000001444,
      "v": 80
    },
    {
      "midi": 36,
      "hit": false,
      "t": 164835.97216666566,
      "d": 20.491791666659992,
      "v": 120
    },
    {
      "midi": 46,
      "hit": false,
      "t": 164835.97216666566,
      "d": 20.491791666659992,
      "v": 120
    },
    {
      "midi": 63,
      "hit": false,
      "t": 164835.97216666566,
      "d": 20.491791666659992,
      "v": 106
    },
    {
      "midi": 34,
      "hit": false,
      "t": 164835.9721666661,
      "d": 450.81941666666535,
      "v": 115
    },
    {
      "midi": 82,
      "hit": false,
      "t": 164835.97216666618,
      "d": 942.6224166666798,
      "v": 127
    },
    {
      "midi": 82,
      "hit": false,
      "t": 164835.97216666618,
      "d": 942.6224166666798,
      "v": 110
    },
    {
      "midi": 63,
      "hit": false,
      "t": 164835.97216666662,
      "d": 3913.932208333339,
      "v": 110
    },
    {
      "midi": 56,
      "hit": false,
      "t": 164835.97216666662,
      "d": 3913.932208333339,
      "v": 110
    },
    {
      "midi": 60,
      "hit": false,
      "t": 164835.97216666662,
      "d": 3913.932208333339,
      "v": 110
    },
    {
      "midi": 82,
      "hit": false,
      "t": 164835.97216666676,
      "d": 491.80300000001444,
      "v": 100
    },
    {
      "midi": 63,
      "hit": false,
      "t": 164835.9721666673,
      "d": 491.80300000001444,
      "v": 90
    },
    {
      "midi": 67,
      "hit": false,
      "t": 164835.9721666673,
      "d": 491.80300000001444,
      "v": 90
    },
    {
      "midi": 70,
      "hit": false,
      "t": 164835.9721666673,
      "d": 491.80300000001444,
      "v": 90
    },
    {
      "midi": 67,
      "hit": false,
      "t": 165286.7915833336,
      "d": 491.80300000001444,
      "v": 80
    },
    {
      "midi": 60,
      "hit": false,
      "t": 165286.7915833336,
      "d": 491.80300000001444,
      "v": 80
    },
    {
      "midi": 63,
      "hit": false,
      "t": 165286.7915833336,
      "d": 491.80300000001444,
      "v": 80
    },
    {
      "midi": 49,
      "hit": false,
      "t": 165327.77516666564,
      "d": 20.491791666659992,
      "v": 64
    },
    {
      "midi": 36,
      "hit": false,
      "t": 165327.77516666564,
      "d": 20.491791666659992,
      "v": 92
    },
    {
      "midi": 63,
      "hit": false,
      "t": 165327.77516666564,
      "d": 20.491791666659992,
      "v": 106
    },
    {
      "midi": 32,
      "hit": false,
      "t": 165327.77516666608,
      "d": 450.81941666666535,
      "v": 105
    },
    {
      "midi": 75,
      "hit": false,
      "t": 165327.775166667,
      "d": 2459.015000000072,
      "v": 95
    },
    {
      "midi": 68,
      "hit": false,
      "t": 165327.775166667,
      "d": 2459.015000000072,
      "v": 95
    },
    {
      "midi": 72,
      "hit": false,
      "t": 165327.775166667,
      "d": 3422.129208333441,
      "v": 95
    },
    {
      "midi": 58,
      "hit": false,
      "t": 165327.77516666707,
      "d": 5901.635999999999,
      "v": 110
    },
    {
      "midi": 70,
      "hit": false,
      "t": 165327.77516666707,
      "d": 5901.635999999999,
      "v": 110
    },
    {
      "midi": 63,
      "hit": false,
      "t": 165327.77516666733,
      "d": 245.90150000000722,
      "v": 90
    },
    {
      "midi": 68,
      "hit": false,
      "t": 165327.77516666733,
      "d": 245.90150000000722,
      "v": 90
    },
    {
      "midi": 72,
      "hit": false,
      "t": 165327.77516666733,
      "d": 245.90150000000722,
      "v": 90
    },
    {
      "midi": 75,
      "hit": false,
      "t": 165327.77516666765,
      "d": 983.6060000000289,
      "v": 95
    },
    {
      "midi": 67,
      "hit": false,
      "t": 165778.59458333362,
      "d": 491.80300000001444,
      "v": 80
    },
    {
      "midi": 60,
      "hit": false,
      "t": 165778.59458333362,
      "d": 491.80300000001444,
      "v": 80
    },
    {
      "midi": 63,
      "hit": false,
      "t": 165778.59458333362,
      "d": 491.80300000001444,
      "v": 80
    },
    {
      "midi": 42,
      "hit": false,
      "t": 165819.57816666563,
      "d": 20.491791666659992,
      "v": 120
    },
    {
      "midi": 62,
      "hit": false,
      "t": 165819.57816666563,
      "d": 20.491791666659992,
      "v": 106
    },
    {
      "midi": 32,
      "hit": false,
      "t": 165819.57816666606,
      "d": 225.40970833334723,
      "v": 115
    },
    {
      "midi": 75,
      "hit": false,
      "t": 165819.57816666618,
      "d": 450.81941666666535,
      "v": 127
    },
    {
      "midi": 75,
      "hit": false,
      "t": 165819.57816666618,
      "d": 450.81941666666535,
      "v": 110
    },
    {
      "midi": 63,
      "hit": false,
      "t": 165819.57816666734,
      "d": 245.90150000000722,
      "v": 90
    },
    {
      "midi": 68,
      "hit": false,
      "t": 165819.57816666734,
      "d": 245.90150000000722,
      "v": 90
    },
    {
      "midi": 72,
      "hit": false,
      "t": 165819.57816666734,
      "d": 245.90150000000722,
      "v": 90
    },
    {
      "midi": 65,
      "hit": false,
      "t": 166270.39758333363,
      "d": 122.95074999998906,
      "v": 80
    },
    {
      "midi": 60,
      "hit": false,
      "t": 166270.39758333363,
      "d": 122.95074999998906,
      "v": 80
    },
    {
      "midi": 63,
      "hit": false,
      "t": 166270.39758333363,
      "d": 122.95074999998906,
      "v": 80
    },
    {
      "midi": 42,
      "hit": false,
      "t": 166311.3811666656,
      "d": 20.491791666659992,
      "v": 120
    },
    {
      "midi": 40,
      "hit": false,
      "t": 166311.3811666656,
      "d": 20.491791666659992,
      "v": 120
    },
    {
      "midi": 83,
      "hit": false,
      "t": 166311.3811666656,
      "d": 20.491791666659992,
      "v": 78
    },
    {
      "midi": 74,
      "hit": false,
      "t": 166311.38116666616,
      "d": 450.81941666666535,
      "v": 127
    },
    {
      "midi": 74,
      "hit": false,
      "t": 166311.38116666616,
      "d": 450.81941666666535,
      "v": 110
    },
    {
      "midi": 63,
      "hit": false,
      "t": 166311.38116666736,
      "d": 491.80300000001444,
      "v": 90
    },
    {
      "midi": 68,
      "hit": false,
      "t": 166311.38116666736,
      "d": 491.80300000001444,
      "v": 90
    },
    {
      "midi": 72,
      "hit": false,
      "t": 166311.38116666736,
      "d": 491.80300000001444,
      "v": 90
    },
    {
      "midi": 75,
      "hit": false,
      "t": 166311.38116666768,
      "d": 983.6060000000289,
      "v": 95
    },
    {
      "midi": 65,
      "hit": false,
      "t": 166393.34833333362,
      "d": 368.8522499999963,
      "v": 80
    },
    {
      "midi": 60,
      "hit": false,
      "t": 166393.34833333362,
      "d": 368.8522499999963,
      "v": 80
    },
    {
      "midi": 63,
      "hit": false,
      "t": 166393.34833333362,
      "d": 368.8522499999963,
      "v": 80
    },
    {
      "midi": 67,
      "hit": false,
      "t": 166762.20058333362,
      "d": 491.80300000001444,
      "v": 80
    },
    {
      "midi": 60,
      "hit": false,
      "t": 166762.20058333362,
      "d": 491.80300000001444,
      "v": 80
    },
    {
      "midi": 63,
      "hit": false,
      "t": 166762.20058333362,
      "d": 491.80300000001444,
      "v": 80
    },
    {
      "midi": 42,
      "hit": false,
      "t": 166803.1841666656,
      "d": 20.491791666659992,
      "v": 120
    },
    {
      "midi": 63,
      "hit": false,
      "t": 166803.1841666656,
      "d": 20.491791666659992,
      "v": 106
    },
    {
      "midi": 41,
      "hit": false,
      "t": 166803.18416666606,
      "d": 225.40970833334723,
      "v": 115
    },
    {
      "midi": 75,
      "hit": false,
      "t": 166803.18416666615,
      "d": 676.2291250000126,
      "v": 127
    },
    {
      "midi": 75,
      "hit": false,
      "t": 166803.18416666615,
      "d": 676.2291250000126,
      "v": 110
    },
    {
      "midi": 43,
      "hit": false,
      "t": 167049.08566666607,
      "d": 225.40970833334723,
      "v": 115
    },
    {
      "midi": 42,
      "hit": false,
      "t": 167294.98716666558,
      "d": 20.491791666659992,
      "v": 120
    },
    {
      "midi": 36,
      "hit": false,
      "t": 167294.98716666558,
      "d": 20.491791666659992,
      "v": 120
    },
    {
      "midi": 63,
      "hit": false,
      "t": 167294.98716666558,
      "d": 20.491791666659992,
      "v": 106
    },
    {
      "midi": 41,
      "hit": false,
      "t": 167294.98716666608,
      "d": 450.81941666666535,
      "v": 115
    },
    {
      "midi": 63,
      "hit": false,
      "t": 167294.9871666674,
      "d": 491.80300000001444,
      "v": 90
    },
    {
      "midi": 68,
      "hit": false,
      "t": 167294.9871666674,
      "d": 491.80300000001444,
      "v": 90
    },
    {
      "midi": 72,
      "hit": false,
      "t": 167294.9871666674,
      "d": 491.80300000001444,
      "v": 90
    },
    {
      "midi": 75,
      "hit": false,
      "t": 167294.9871666677,
      "d": 983.6060000000289,
      "v": 95
    },
    {
      "midi": 67,
      "hit": false,
      "t": 167745.80658333364,
      "d": 491.80300000001444,
      "v": 80
    },
    {
      "midi": 60,
      "hit": false,
      "t": 167745.80658333364,
      "d": 491.80300000001444,
      "v": 80
    },
    {
      "midi": 63,
      "hit": false,
      "t": 167745.80658333364,
      "d": 491.80300000001444,
      "v": 80
    },
    {
      "midi": 42,
      "hit": false,
      "t": 167786.79016666557,
      "d": 20.491791666659992,
      "v": 120
    },
    {
      "midi": 36,
      "hit": false,
      "t": 167786.79016666557,
      "d": 20.491791666659992,
      "v": 120
    },
    {
      "midi": 62,
      "hit": false,
      "t": 167786.79016666557,
      "d": 20.491791666659992,
      "v": 106
    },
    {
      "midi": 39,
      "hit": false,
      "t": 167786.79016666606,
      "d": 450.81941666666535,
      "v": 115
    },
    {
      "midi": 79,
      "hit": false,
      "t": 167786.79016666615,
      "d": 450.81941666666535,
      "v": 127
    },
    {
      "midi": 79,
      "hit": false,
      "t": 167786.79016666615,
      "d": 450.81941666666535,
      "v": 110
    },
    {
      "midi": 65,
      "hit": false,
      "t": 168237.60958333366,
      "d": 122.95074999998906,
      "v": 80
    },
    {
      "midi": 60,
      "hit": false,
      "t": 168237.60958333366,
      "d": 122.95074999998906,
      "v": 80
    },
    {
      "midi": 63,
      "hit": false,
      "t": 168237.60958333366,
      "d": 122.95074999998906,
      "v": 80
    },
    {
      "midi": 42,
      "hit": false,
      "t": 168278.59316666555,
      "d": 20.491791666659992,
      "v": 120
    },
    {
      "midi": 40,
      "hit": false,
      "t": 168278.59316666555,
      "d": 20.491791666659992,
      "v": 120
    },
    {
      "midi": 83,
      "hit": false,
      "t": 168278.59316666555,
      "d": 20.491791666659992,
      "v": 78
    },
    {
      "midi": 32,
      "hit": false,
      "t": 168278.59316666605,
      "d": 450.81941666666535,
      "v": 115
    },
    {
      "midi": 80,
      "hit": false,
      "t": 168278.59316666613,
      "d": 450.81941666666535,
      "v": 127
    },
    {
      "midi": 80,
      "hit": false,
      "t": 168278.59316666613,
      "d": 450.81941666666535,
      "v": 110
    },
    {
      "midi": 63,
      "hit": false,
      "t": 168278.59316666742,
      "d": 245.90150000000722,
      "v": 90
    },
    {
      "midi": 68,
      "hit": false,
      "t": 168278.59316666742,
      "d": 245.90150000000722,
      "v": 90
    },
    {
      "midi": 72,
      "hit": false,
      "t": 168278.59316666742,
      "d": 245.90150000000722,
      "v": 90
    },
    {
      "midi": 75,
      "hit": false,
      "t": 168278.59316666774,
      "d": 983.6060000000289,
      "v": 95
    },
    {
      "midi": 65,
      "hit": false,
      "t": 168360.56033333365,
      "d": 368.8522499999963,
      "v": 80
    },
    {
      "midi": 60,
      "hit": false,
      "t": 168360.56033333365,
      "d": 368.8522499999963,
      "v": 80
    },
    {
      "midi": 63,
      "hit": false,
      "t": 168360.56033333365,
      "d": 368.8522499999963,
      "v": 80
    },
    {
      "midi": 67,
      "hit": false,
      "t": 168729.41258333364,
      "d": 122.95074999998906,
      "v": 80
    },
    {
      "midi": 58,
      "hit": false,
      "t": 168729.41258333364,
      "d": 122.95074999998906,
      "v": 80
    },
    {
      "midi": 63,
      "hit": false,
      "t": 168729.41258333364,
      "d": 122.95074999998906,
      "v": 80
    },
    {
      "midi": 42,
      "hit": false,
      "t": 168770.39616666554,
      "d": 20.491791666659992,
      "v": 120
    },
    {
      "midi": 36,
      "hit": false,
      "t": 168770.39616666554,
      "d": 20.491791666659992,
      "v": 120
    },
    {
      "midi": 63,
      "hit": false,
      "t": 168770.39616666554,
      "d": 20.491791666659992,
      "v": 106
    },
    {
      "midi": 31,
      "hit": false,
      "t": 168770.39616666603,
      "d": 942.6224166666798,
      "v": 105
    },
    {
      "midi": 82,
      "hit": false,
      "t": 168770.39616666612,
      "d": 942.6224166666798,
      "v": 117
    },
    {
      "midi": 82,
      "hit": false,
      "t": 168770.39616666612,
      "d": 942.6224166666798,
      "v": 100
    },
    {
      "midi": 63,
      "hit": false,
      "t": 168770.39616666661,
      "d": 4405.735208333324,
      "v": 110
    },
    {
      "midi": 55,
      "hit": false,
      "t": 168770.39616666661,
      "d": 4405.735208333324,
      "v": 110
    },
    {
      "midi": 58,
      "hit": false,
      "t": 168770.39616666661,
      "d": 4405.735208333324,
      "v": 110
    },
    {
      "midi": 67,
      "hit": false,
      "t": 168770.3961666671,
      "d": 4303.276250000112,
      "v": 95
    },
    {
      "midi": 70,
      "hit": false,
      "t": 168770.3961666671,
      "d": 4303.276250000112,
      "v": 95
    },
    {
      "midi": 63,
      "hit": false,
      "t": 168770.39616666743,
      "d": 737.7044999999925,
      "v": 90
    },
    {
      "midi": 67,
      "hit": false,
      "t": 168770.39616666743,
      "d": 737.7044999999925,
      "v": 90
    },
    {
      "midi": 70,
      "hit": false,
      "t": 168770.39616666743,
      "d": 737.7044999999925,
      "v": 90
    },
    {
      "midi": 67,
      "hit": false,
      "t": 168852.36333333363,
      "d": 860.6552500000107,
      "v": 80
    },
    {
      "midi": 58,
      "hit": false,
      "t": 168852.36333333363,
      "d": 860.6552500000107,
      "v": 80
    },
    {
      "midi": 63,
      "hit": false,
      "t": 168852.36333333363,
      "d": 860.6552500000107,
      "v": 80
    },
    {
      "midi": 42,
      "hit": false,
      "t": 169262.19916666552,
      "d": 20.491791666659992,
      "v": 120
    },
    {
      "midi": 63,
      "hit": false,
      "t": 169262.19916666552,
      "d": 20.491791666659992,
      "v": 106
    },
    {
      "midi": 75,
      "hit": false,
      "t": 169262.19916666776,
      "d": 983.6060000000289,
      "v": 95
    },
    {
      "midi": 67,
      "hit": false,
      "t": 169713.01858333364,
      "d": 491.80300000001444,
      "v": 80
    },
    {
      "midi": 58,
      "hit": false,
      "t": 169713.01858333364,
      "d": 491.80300000001444,
      "v": 80
    },
    {
      "midi": 63,
      "hit": false,
      "t": 169713.01858333364,
      "d": 491.80300000001444,
      "v": 80
    },
    {
      "midi": 42,
      "hit": false,
      "t": 169754.0021666655,
      "d": 20.491791666659992,
      "v": 120
    },
    {
      "midi": 36,
      "hit": false,
      "t": 169754.0021666655,
      "d": 20.491791666659992,
      "v": 120
    },
    {
      "midi": 62,
      "hit": false,
      "t": 169754.0021666655,
      "d": 20.491791666659992,
      "v": 106
    },
    {
      "midi": 29,
      "hit": false,
      "t": 169754.00216666603,
      "d": 450.81941666666535,
      "v": 115
    },
    {
      "midi": 75,
      "hit": false,
      "t": 169754.00216666612,
      "d": 450.81941666666535,
      "v": 127
    },
    {
      "midi": 75,
      "hit": false,
      "t": 169754.00216666612,
      "d": 450.81941666666535,
      "v": 110
    },
    {
      "midi": 63,
      "hit": false,
      "t": 169754.00216666743,
      "d": 245.90150000000722,
      "v": 90
    },
    {
      "midi": 67,
      "hit": false,
      "t": 169754.00216666743,
      "d": 245.90150000000722,
      "v": 90
    },
    {
      "midi": 70,
      "hit": false,
      "t": 169754.00216666743,
      "d": 245.90150000000722,
      "v": 90
    },
    {
      "midi": 65,
      "hit": false,
      "t": 170204.82158333366,
      "d": 491.80300000001444,
      "v": 80
    },
    {
      "midi": 58,
      "hit": false,
      "t": 170204.82158333366,
      "d": 491.80300000001444,
      "v": 80
    },
    {
      "midi": 62,
      "hit": false,
      "t": 170204.82158333366,
      "d": 491.80300000001444,
      "v": 80
    },
    {
      "midi": 42,
      "hit": false,
      "t": 170245.8051666655,
      "d": 20.491791666659992,
      "v": 120
    },
    {
      "midi": 40,
      "hit": false,
      "t": 170245.8051666655,
      "d": 20.491791666659992,
      "v": 120
    },
    {
      "midi": 83,
      "hit": false,
      "t": 170245.8051666655,
      "d": 20.491791666659992,
      "v": 78
    },
    {
      "midi": 31,
      "hit": false,
      "t": 170245.80516666602,
      "d": 450.81941666666535,
      "v": 115
    },
    {
      "midi": 74,
      "hit": false,
      "t": 170245.8051666661,
      "d": 450.81941666666535,
      "v": 127
    },
    {
      "midi": 74,
      "hit": false,
      "t": 170245.8051666661,
      "d": 450.81941666666535,
      "v": 110
    },
    {
      "midi": 63,
      "hit": false,
      "t": 170245.80516666744,
      "d": 491.80300000001444,
      "v": 90
    },
    {
      "midi": 67,
      "hit": false,
      "t": 170245.80516666744,
      "d": 491.80300000001444,
      "v": 90
    },
    {
      "midi": 70,
      "hit": false,
      "t": 170245.80516666744,
      "d": 491.80300000001444,
      "v": 90
    },
    {
      "midi": 75,
      "hit": false,
      "t": 170245.8051666678,
      "d": 983.6060000000289,
      "v": 95
    },
    {
      "midi": 67,
      "hit": false,
      "t": 170696.62458333367,
      "d": 983.6059999999998,
      "v": 80
    },
    {
      "midi": 58,
      "hit": false,
      "t": 170696.62458333367,
      "d": 983.6059999999998,
      "v": 80
    },
    {
      "midi": 63,
      "hit": false,
      "t": 170696.62458333367,
      "d": 983.6059999999998,
      "v": 80
    },
    {
      "midi": 42,
      "hit": false,
      "t": 170737.60816666548,
      "d": 20.491791666659992,
      "v": 120
    },
    {
      "midi": 36,
      "hit": false,
      "t": 170737.60816666548,
      "d": 20.491791666659992,
      "v": 120
    },
    {
      "midi": 63,
      "hit": false,
      "t": 170737.60816666548,
      "d": 20.491791666659992,
      "v": 106
    },
    {
      "midi": 75,
      "hit": false,
      "t": 170737.6081666661,
      "d": 1352.458249999996,
      "v": 127
    },
    {
      "midi": 75,
      "hit": false,
      "t": 170737.6081666661,
      "d": 1352.458249999996,
      "v": 110
    },
    {
      "midi": 62,
      "hit": false,
      "t": 170983.5096666655,
      "d": 20.491791666659992,
      "v": 106
    },
    {
      "midi": 42,
      "hit": false,
      "t": 171229.4111666655,
      "d": 20.491791666659992,
      "v": 120
    },
    {
      "midi": 63,
      "hit": false,
      "t": 171229.4111666655,
      "d": 20.491791666659992,
      "v": 106
    },
    {
      "midi": 39,
      "hit": false,
      "t": 171229.41116666602,
      "d": 450.81941666666535,
      "v": 115
    },
    {
      "midi": 63,
      "hit": false,
      "t": 171229.41116666707,
      "d": 491.80300000001444,
      "v": 100
    },
    {
      "midi": 67,
      "hit": false,
      "t": 171229.41116666707,
      "d": 491.80300000001444,
      "v": 100
    },
    {
      "midi": 68,
      "hit": false,
      "t": 171229.41116666707,
      "d": 491.80300000001444,
      "v": 100
    },
    {
      "midi": 63,
      "hit": false,
      "t": 171229.41116666747,
      "d": 245.90150000000722,
      "v": 90
    },
    {
      "midi": 67,
      "hit": false,
      "t": 171229.41116666747,
      "d": 245.90150000000722,
      "v": 90
    },
    {
      "midi": 68,
      "hit": false,
      "t": 171229.41116666747,
      "d": 245.90150000000722,
      "v": 90
    },
    {
      "midi": 75,
      "hit": false,
      "t": 171229.41116666782,
      "d": 983.6060000000289,
      "v": 95
    },
    {
      "midi": 62,
      "hit": false,
      "t": 171475.3126666655,
      "d": 20.491791666659992,
      "v": 106
    },
    {
      "midi": 42,
      "hit": false,
      "t": 171721.2141666655,
      "d": 20.491791666659992,
      "v": 120
    },
    {
      "midi": 36,
      "hit": false,
      "t": 171721.2141666655,
      "d": 20.491791666659992,
      "v": 120
    },
    {
      "midi": 63,
      "hit": false,
      "t": 171721.2141666655,
      "d": 20.491791666659992,
      "v": 106
    },
    {
      "midi": 32,
      "hit": false,
      "t": 171721.214166666,
      "d": 225.40970833334723,
      "v": 115
    },
    {
      "midi": 63,
      "hit": false,
      "t": 171721.21416666708,
      "d": 491.80300000001444,
      "v": 100
    },
    {
      "midi": 67,
      "hit": false,
      "t": 171721.21416666708,
      "d": 491.80300000001444,
      "v": 100
    },
    {
      "midi": 70,
      "hit": false,
      "t": 171721.21416666708,
      "d": 491.80300000001444,
      "v": 100
    },
    {
      "midi": 63,
      "hit": false,
      "t": 171721.2141666675,
      "d": 491.80300000001444,
      "v": 90
    },
    {
      "midi": 67,
      "hit": false,
      "t": 171721.2141666675,
      "d": 491.80300000001444,
      "v": 90
    },
    {
      "midi": 70,
      "hit": false,
      "t": 171721.2141666675,
      "d": 491.80300000001444,
      "v": 90
    },
    {
      "midi": 34,
      "hit": false,
      "t": 171967.115666666,
      "d": 225.40970833334723,
      "v": 115
    },
    {
      "midi": 42,
      "hit": false,
      "t": 172213.0171666655,
      "d": 20.491791666659992,
      "v": 120
    },
    {
      "midi": 40,
      "hit": false,
      "t": 172213.0171666655,
      "d": 20.491791666659992,
      "v": 120
    },
    {
      "midi": 83,
      "hit": false,
      "t": 172213.0171666655,
      "d": 20.491791666659992,
      "v": 78
    },
    {
      "midi": 39,
      "hit": false,
      "t": 172213.01716666602,
      "d": 450.81941666666535,
      "v": 115
    },
    {
      "midi": 75,
      "hit": false,
      "t": 172213.01716666785,
      "d": 983.6060000000289,
      "v": 95
    },
    {
      "midi": 42,
      "hit": false,
      "t": 172704.82016666548,
      "d": 20.491791666659992,
      "v": 120
    },
    {
      "midi": 36,
      "hit": false,
      "t": 172704.82016666548,
      "d": 20.491791666659992,
      "v": 120
    },
    {
      "midi": 62,
      "hit": false,
      "t": 172704.82016666548,
      "d": 20.491791666659992,
      "v": 106
    },
    {
      "midi": 31,
      "hit": false,
      "t": 172704.820166666,
      "d": 450.81941666666535,
      "v": 115
    },
    {
      "midi": 72,
      "hit": false,
      "t": 172704.8201666661,
      "d": 450.81941666666535,
      "v": 127
    },
    {
      "midi": 72,
      "hit": false,
      "t": 172704.8201666661,
      "d": 450.81941666666535,
      "v": 110
    },
    {
      "midi": 36,
      "hit": false,
      "t": 173196.62316666546,
      "d": 20.491791666659992,
      "v": 92
    },
    {
      "midi": 63,
      "hit": false,
      "t": 173196.62316666546,
      "d": 20.491791666659992,
      "v": 106
    },
    {
      "midi": 42,
      "hit": false,
      "t": 173196.62316666546,
      "d": 20.491791666659992,
      "v": 120
    },
    {
      "midi": 29,
      "hit": false,
      "t": 173196.623166666,
      "d": 450.81941666666535,
      "v": 105
    },
    {
      "midi": 80,
      "hit": false,
      "t": 173196.62316666608,
      "d": 901.6388333333307,
      "v": 117
    },
    {
      "midi": 80,
      "hit": false,
      "t": 173196.62316666608,
      "d": 901.6388333333307,
      "v": 100
    },
    {
      "midi": 56,
      "hit": false,
      "t": 173196.6231666666,
      "d": 1946.7202083333395,
      "v": 110
    },
    {
      "midi": 60,
      "hit": false,
      "t": 173196.6231666666,
      "d": 1946.7202083333395,
      "v": 110
    },
    {
      "midi": 63,
      "hit": false,
      "t": 173196.6231666666,
      "d": 1946.7202083333395,
      "v": 110
    },
    {
      "midi": 51,
      "hit": false,
      "t": 173196.6231666671,
      "d": 5409.833000000013,
      "v": 110
    },
    {
      "midi": 63,
      "hit": false,
      "t": 173196.6231666671,
      "d": 5409.833000000013,
      "v": 110
    },
    {
      "midi": 68,
      "hit": false,
      "t": 173196.6231666675,
      "d": 491.80300000001444,
      "v": 90
    },
    {
      "midi": 72,
      "hit": false,
      "t": 173196.6231666675,
      "d": 491.80300000001444,
      "v": 90
    },
    {
      "midi": 75,
      "hit": false,
      "t": 173196.6231666675,
      "d": 491.80300000001444,
      "v": 90
    },
    {
      "midi": 75,
      "hit": false,
      "t": 173196.62316666788,
      "d": 983.6060000000289,
      "v": 95
    },
    {
      "midi": 42,
      "hit": false,
      "t": 173688.42616666545,
      "d": 20.491791666659992,
      "v": 120
    },
    {
      "midi": 62,
      "hit": false,
      "t": 173688.42616666545,
      "d": 20.491791666659992,
      "v": 106
    },
    {
      "midi": 29,
      "hit": false,
      "t": 173688.42616666597,
      "d": 450.81941666666535,
      "v": 115
    },
    {
      "midi": 42,
      "hit": false,
      "t": 174180.22916666543,
      "d": 20.491791666659992,
      "v": 120
    },
    {
      "midi": 40,
      "hit": false,
      "t": 174180.22916666543,
      "d": 20.491791666659992,
      "v": 120
    },
    {
      "midi": 83,
      "hit": false,
      "t": 174180.22916666543,
      "d": 20.491791666659992,
      "v": 78
    },
    {
      "midi": 79,
      "hit": false,
      "t": 174180.22916666607,
      "d": 450.81941666666535,
      "v": 127
    },
    {
      "midi": 79,
      "hit": false,
      "t": 174180.22916666607,
      "d": 450.81941666666535,
      "v": 110
    },
    {
      "midi": 68,
      "hit": false,
      "t": 174180.22916666753,
      "d": 491.80300000001444,
      "v": 90
    },
    {
      "midi": 72,
      "hit": false,
      "t": 174180.22916666753,
      "d": 491.80300000001444,
      "v": 90
    },
    {
      "midi": 75,
      "hit": false,
      "t": 174180.22916666753,
      "d": 491.80300000001444,
      "v": 90
    },
    {
      "midi": 75,
      "hit": false,
      "t": 174180.2291666679,
      "d": 983.6060000000289,
      "v": 95
    },
    {
      "midi": 42,
      "hit": false,
      "t": 174672.03216666542,
      "d": 20.491791666659992,
      "v": 120
    },
    {
      "midi": 63,
      "hit": false,
      "t": 174672.03216666542,
      "d": 20.491791666659992,
      "v": 106
    },
    {
      "midi": 29,
      "hit": false,
      "t": 174672.03216666597,
      "d": 450.81941666666535,
      "v": 115
    },
    {
      "midi": 77,
      "hit": false,
      "t": 174672.03216666606,
      "d": 450.81941666666535,
      "v": 127
    },
    {
      "midi": 77,
      "hit": false,
      "t": 174672.03216666606,
      "d": 450.81941666666535,
      "v": 110
    },
    {
      "midi": 42,
      "hit": false,
      "t": 175163.8351666654,
      "d": 20.491791666659992,
      "v": 120
    },
    {
      "midi": 36,
      "hit": false,
      "t": 175163.8351666654,
      "d": 20.491791666659992,
      "v": 120
    },
    {
      "midi": 63,
      "hit": false,
      "t": 175163.8351666654,
      "d": 20.491791666659992,
      "v": 106
    },
    {
      "midi": 34,
      "hit": false,
      "t": 175163.83516666596,
      "d": 450.81941666666535,
      "v": 115
    },
    {
      "midi": 75,
      "hit": false,
      "t": 175163.83516666605,
      "d": 450.81941666666535,
      "v": 127
    },
    {
      "midi": 75,
      "hit": false,
      "t": 175163.83516666605,
      "d": 450.81941666666535,
      "v": 110
    },
    {
      "midi": 56,
      "hit": false,
      "t": 175163.8351666666,
      "d": 245.90150000000722,
      "v": 110
    },
    {
      "midi": 59,
      "hit": false,
      "t": 175163.8351666666,
      "d": 245.90150000000722,
      "v": 110
    },
    {
      "midi": 63,
      "hit": false,
      "t": 175163.8351666666,
      "d": 245.90150000000722,
      "v": 110
    },
    {
      "midi": 63,
      "hit": false,
      "t": 175163.83516666683,
      "d": 491.80300000001444,
      "v": 110
    },
    {
      "midi": 68,
      "hit": false,
      "t": 175163.83516666756,
      "d": 245.90150000000722,
      "v": 90
    },
    {
      "midi": 71,
      "hit": false,
      "t": 175163.83516666756,
      "d": 245.90150000000722,
      "v": 90
    },
    {
      "midi": 75,
      "hit": false,
      "t": 175163.83516666756,
      "d": 245.90150000000722,
      "v": 90
    },
    {
      "midi": 75,
      "hit": false,
      "t": 175163.83516666794,
      "d": 983.6060000000289,
      "v": 95
    },
    {
      "midi": 42,
      "hit": false,
      "t": 175655.6381666654,
      "d": 20.491791666659992,
      "v": 120
    },
    {
      "midi": 36,
      "hit": false,
      "t": 175655.6381666654,
      "d": 20.491791666659992,
      "v": 120
    },
    {
      "midi": 62,
      "hit": false,
      "t": 175655.6381666654,
      "d": 20.491791666659992,
      "v": 106
    },
    {
      "midi": 35,
      "hit": false,
      "t": 175655.63816666594,
      "d": 450.81941666666535,
      "v": 115
    },
    {
      "midi": 77,
      "hit": false,
      "t": 175655.63816666603,
      "d": 901.6388333333307,
      "v": 127
    },
    {
      "midi": 77,
      "hit": false,
      "t": 175655.63816666603,
      "d": 901.6388333333307,
      "v": 110
    },
    {
      "midi": 59,
      "hit": false,
      "t": 175655.6381666666,
      "d": 983.6059999999998,
      "v": 110
    },
    {
      "midi": 62,
      "hit": false,
      "t": 175655.6381666666,
      "d": 983.6059999999998,
      "v": 110
    },
    {
      "midi": 65,
      "hit": false,
      "t": 175655.6381666666,
      "d": 983.6059999999998,
      "v": 110
    },
    {
      "midi": 65,
      "hit": false,
      "t": 175655.63816666685,
      "d": 491.80300000001444,
      "v": 110
    },
    {
      "midi": 71,
      "hit": false,
      "t": 175655.63816666757,
      "d": 491.80300000001444,
      "v": 90
    },
    {
      "midi": 74,
      "hit": false,
      "t": 175655.63816666757,
      "d": 491.80300000001444,
      "v": 90
    },
    {
      "midi": 77,
      "hit": false,
      "t": 175655.63816666757,
      "d": 491.80300000001444,
      "v": 90
    },
    {
      "midi": 42,
      "hit": false,
      "t": 176147.44116666538,
      "d": 20.491791666659992,
      "v": 120
    },
    {
      "midi": 40,
      "hit": false,
      "t": 176147.44116666538,
      "d": 20.491791666659992,
      "v": 120
    },
    {
      "midi": 83,
      "hit": false,
      "t": 176147.44116666538,
      "d": 20.491791666659992,
      "v": 78
    },
    {
      "midi": 63,
      "hit": false,
      "t": 176147.44116666686,
      "d": 491.80300000001444,
      "v": 110
    },
    {
      "midi": 75,
      "hit": false,
      "t": 176147.44116666797,
      "d": 983.6060000000289,
      "v": 95
    },
    {
      "midi": 42,
      "hit": false,
      "t": 176639.24416666536,
      "d": 20.491791666659992,
      "v": 120
    },
    {
      "midi": 36,
      "hit": false,
      "t": 176639.24416666536,
      "d": 20.491791666659992,
      "v": 120
    },
    {
      "midi": 63,
      "hit": false,
      "t": 176639.24416666536,
      "d": 20.491791666659992,
      "v": 106
    },
    {
      "midi": 36,
      "hit": false,
      "t": 176639.24416666594,
      "d": 942.6224166666798,
      "v": 105
    },
    {
      "midi": 77,
      "hit": false,
      "t": 176639.24416666603,
      "d": 942.6224166666798,
      "v": 117
    },
    {
      "midi": 77,
      "hit": false,
      "t": 176639.24416666603,
      "d": 942.6224166666798,
      "v": 100
    },
    {
      "midi": 55,
      "hit": false,
      "t": 176639.2441666666,
      "d": 1967.2119999999995,
      "v": 110
    },
    {
      "midi": 58,
      "hit": false,
      "t": 176639.2441666666,
      "d": 1967.2119999999995,
      "v": 110
    },
    {
      "midi": 63,
      "hit": false,
      "t": 176639.2441666666,
      "d": 1967.2119999999995,
      "v": 110
    },
    {
      "midi": 70,
      "hit": false,
      "t": 176639.24416666687,
      "d": 1967.2119999999995,
      "v": 110
    },
    {
      "midi": 67,
      "hit": false,
      "t": 176639.2441666676,
      "d": 655.7373333333235,
      "v": 90
    },
    {
      "midi": 70,
      "hit": false,
      "t": 176639.2441666676,
      "d": 655.7373333333235,
      "v": 90
    },
    {
      "midi": 75,
      "hit": false,
      "t": 176639.2441666676,
      "d": 655.7373333333235,
      "v": 90
    },
    {
      "midi": 42,
      "hit": false,
      "t": 177131.04716666535,
      "d": 20.491791666659992,
      "v": 120
    },
    {
      "midi": 63,
      "hit": false,
      "t": 177131.04716666535,
      "d": 20.491791666659992,
      "v": 106
    },
    {
      "midi": 75,
      "hit": false,
      "t": 177131.047166668,
      "d": 983.6060000000289,
      "v": 95
    },
    {
      "midi": 42,
      "hit": false,
      "t": 177622.85016666533,
      "d": 20.491791666659992,
      "v": 120
    },
    {
      "midi": 36,
      "hit": false,
      "t": 177622.85016666533,
      "d": 20.491791666659992,
      "v": 120
    },
    {
      "midi": 62,
      "hit": false,
      "t": 177622.85016666533,
      "d": 20.491791666659992,
      "v": 106
    },
    {
      "midi": 31,
      "hit": false,
      "t": 177622.85016666594,
      "d": 450.81941666666535,
      "v": 115
    },
    {
      "midi": 75,
      "hit": false,
      "t": 177622.85016666603,
      "d": 450.81941666666535,
      "v": 127
    },
    {
      "midi": 75,
      "hit": false,
      "t": 177622.85016666603,
      "d": 450.81941666666535,
      "v": 110
    },
    {
      "midi": 42,
      "hit": false,
      "t": 178114.65316666532,
      "d": 20.491791666659992,
      "v": 120
    },
    {
      "midi": 40,
      "hit": false,
      "t": 178114.65316666532,
      "d": 20.491791666659992,
      "v": 120
    },
    {
      "midi": 83,
      "hit": false,
      "t": 178114.65316666532,
      "d": 20.491791666659992,
      "v": 78
    },
    {
      "midi": 36,
      "hit": false,
      "t": 178114.65316666593,
      "d": 450.81941666666535,
      "v": 115
    },
    {
      "midi": 77,
      "hit": false,
      "t": 178114.65316666602,
      "d": 450.81941666666535,
      "v": 127
    },
    {
      "midi": 77,
      "hit": false,
      "t": 178114.65316666602,
      "d": 450.81941666666535,
      "v": 110
    },
    {
      "midi": 67,
      "hit": false,
      "t": 178114.6531666676,
      "d": 491.80300000001444,
      "v": 90
    },
    {
      "midi": 70,
      "hit": false,
      "t": 178114.6531666676,
      "d": 491.80300000001444,
      "v": 90
    },
    {
      "midi": 75,
      "hit": false,
      "t": 178114.6531666676,
      "d": 491.80300000001444,
      "v": 90
    },
    {
      "midi": 75,
      "hit": false,
      "t": 178114.65316666802,
      "d": 983.6060000000289,
      "v": 95
    },
    {
      "midi": 42,
      "hit": false,
      "t": 178606.4561666653,
      "d": 20.491791666659992,
      "v": 120
    },
    {
      "midi": 36,
      "hit": false,
      "t": 178606.4561666653,
      "d": 20.491791666659992,
      "v": 120
    },
    {
      "midi": 63,
      "hit": false,
      "t": 178606.4561666653,
      "d": 20.491791666659992,
      "v": 106
    },
    {
      "midi": 34,
      "hit": false,
      "t": 178606.4561666659,
      "d": 676.2291250000126,
      "v": 115
    },
    {
      "midi": 79,
      "hit": false,
      "t": 178606.456166666,
      "d": 676.2291250000126,
      "v": 127
    },
    {
      "midi": 79,
      "hit": false,
      "t": 178606.456166666,
      "d": 676.2291250000126,
      "v": 110
    },
    {
      "midi": 58,
      "hit": false,
      "t": 178606.4561666666,
      "d": 1946.7202083333395,
      "v": 110
    },
    {
      "midi": 62,
      "hit": false,
      "t": 178606.4561666666,
      "d": 1946.7202083333395,
      "v": 110
    },
    {
      "midi": 65,
      "hit": false,
      "t": 178606.4561666666,
      "d": 1946.7202083333395,
      "v": 110
    },
    {
      "midi": 63,
      "hit": false,
      "t": 178606.45616666687,
      "d": 778.6880833333416,
      "v": 110
    },
    {
      "midi": 67,
      "hit": false,
      "t": 178606.4561666671,
      "d": 491.80300000001444,
      "v": 100
    },
    {
      "midi": 70,
      "hit": false,
      "t": 178606.4561666671,
      "d": 491.80300000001444,
      "v": 100
    },
    {
      "midi": 75,
      "hit": false,
      "t": 178606.4561666671,
      "d": 491.80300000001444,
      "v": 100
    },
    {
      "midi": 62,
      "hit": false,
      "t": 178852.3576666653,
      "d": 20.491791666659992,
      "v": 106
    },
    {
      "midi": 42,
      "hit": false,
      "t": 179098.25916666532,
      "d": 20.491791666659992,
      "v": 120
    },
    {
      "midi": 63,
      "hit": false,
      "t": 179098.25916666532,
      "d": 20.491791666659992,
      "v": 106
    },
    {
      "midi": 70,
      "hit": false,
      "t": 179098.25916666762,
      "d": 245.90150000000722,
      "v": 90
    },
    {
      "midi": 74,
      "hit": false,
      "t": 179098.25916666762,
      "d": 245.90150000000722,
      "v": 90
    },
    {
      "midi": 77,
      "hit": false,
      "t": 179098.25916666762,
      "d": 245.90150000000722,
      "v": 90
    },
    {
      "midi": 75,
      "hit": false,
      "t": 179098.25916666805,
      "d": 983.6060000000289,
      "v": 95
    },
    {
      "midi": 62,
      "hit": false,
      "t": 179344.16066666532,
      "d": 20.491791666659992,
      "v": 106
    },
    {
      "midi": 55,
      "hit": false,
      "t": 179549.07858333367,
      "d": 491.80300000001444,
      "v": 80
    },
    {
      "midi": 58,
      "hit": false,
      "t": 179549.07858333367,
      "d": 491.80300000001444,
      "v": 80
    },
    {
      "midi": 63,
      "hit": false,
      "t": 179549.07858333367,
      "d": 491.80300000001444,
      "v": 80
    },
    {
      "midi": 42,
      "hit": false,
      "t": 179590.06216666533,
      "d": 20.491791666659992,
      "v": 120
    },
    {
      "midi": 36,
      "hit": false,
      "t": 179590.06216666533,
      "d": 20.491791666659992,
      "v": 120
    },
    {
      "midi": 63,
      "hit": false,
      "t": 179590.06216666533,
      "d": 20.491791666659992,
      "v": 106
    },
    {
      "midi": 27,
      "hit": false,
      "t": 179590.0621666659,
      "d": 676.2291250000126,
      "v": 115
    },
    {
      "midi": 79,
      "hit": false,
      "t": 179590.062166666,
      "d": 450.81941666666535,
      "v": 127
    },
    {
      "midi": 79,
      "hit": false,
      "t": 179590.062166666,
      "d": 450.81941666666535,
      "v": 110
    },
    {
      "midi": 70,
      "hit": false,
      "t": 179590.06216666714,
      "d": 491.80300000001444,
      "v": 100
    },
    {
      "midi": 74,
      "hit": false,
      "t": 179590.06216666714,
      "d": 491.80300000001444,
      "v": 100
    },
    {
      "midi": 77,
      "hit": false,
      "t": 179590.06216666714,
      "d": 491.80300000001444,
      "v": 100
    },
    {
      "midi": 70,
      "hit": false,
      "t": 179590.06216666763,
      "d": 491.80300000001444,
      "v": 90
    },
    {
      "midi": 74,
      "hit": false,
      "t": 179590.06216666763,
      "d": 491.80300000001444,
      "v": 90
    },
    {
      "midi": 77,
      "hit": false,
      "t": 179590.06216666763,
      "d": 491.80300000001444,
      "v": 90
    },
    {
      "midi": 55,
      "hit": false,
      "t": 180040.88158333368,
      "d": 491.80300000001444,
      "v": 80
    },
    {
      "midi": 58,
      "hit": false,
      "t": 180040.88158333368,
      "d": 491.80300000001444,
      "v": 80
    },
    {
      "midi": 65,
      "hit": false,
      "t": 180040.88158333368,
      "d": 491.80300000001444,
      "v": 80
    },
    {
      "midi": 40,
      "hit": false,
      "t": 180081.86516666532,
      "d": 20.491791666659992,
      "v": 120
    },
    {
      "midi": 46,
      "hit": false,
      "t": 180081.86516666532,
      "d": 20.491791666659992,
      "v": 120
    },
    {
      "midi": 83,
      "hit": false,
      "t": 180081.86516666532,
      "d": 20.491791666659992,
      "v": 78
    },
    {
      "midi": 80,
      "hit": false,
      "t": 180081.865166666,
      "d": 450.81941666666535,
      "v": 127
    },
    {
      "midi": 80,
      "hit": false,
      "t": 180081.865166666,
      "d": 450.81941666666535,
      "v": 110
    },
    {
      "midi": 75,
      "hit": false,
      "t": 180081.86516666808,
      "d": 983.6060000000289,
      "v": 95
    },
    {
      "midi": 58,
      "hit": false,
      "t": 180532.6845833337,
      "d": 512.2947916666744,
      "v": 80
    },
    {
      "midi": 67,
      "hit": false,
      "t": 180532.6845833337,
      "d": 983.6059999999998,
      "v": 80
    },
    {
      "midi": 63,
      "hit": false,
      "t": 180532.6845833337,
      "d": 983.6059999999998,
      "v": 80
    },
    {
      "midi": 36,
      "hit": false,
      "t": 180573.6681666653,
      "d": 20.491791666659992,
      "v": 120
    },
    {
      "midi": 62,
      "hit": false,
      "t": 180573.6681666653,
      "d": 20.491791666659992,
      "v": 106
    },
    {
      "midi": 32,
      "hit": false,
      "t": 180573.6681666659,
      "d": 450.81941666666535,
      "v": 115
    },
    {
      "midi": 82,
      "hit": false,
      "t": 180573.66816666597,
      "d": 942.6224166666798,
      "v": 117
    },
    {
      "midi": 82,
      "hit": false,
      "t": 180573.66816666597,
      "d": 942.6224166666798,
      "v": 100
    },
    {
      "midi": 63,
      "hit": false,
      "t": 180573.6681666666,
      "d": 3913.932208333339,
      "v": 110
    },
    {
      "midi": 56,
      "hit": false,
      "t": 180573.6681666666,
      "d": 3913.932208333339,
      "v": 110
    },
    {
      "midi": 60,
      "hit": false,
      "t": 180573.6681666666,
      "d": 3913.932208333339,
      "v": 110
    },
    {
      "midi": 60,
      "hit": false,
      "t": 181024.4875833337,
      "d": 491.80299999998533,
      "v": 80
    },
    {
      "midi": 49,
      "hit": false,
      "t": 181065.4711666653,
      "d": 20.491791666659992,
      "v": 64
    },
    {
      "midi": 36,
      "hit": false,
      "t": 181065.4711666653,
      "d": 20.491791666659992,
      "v": 92
    },
    {
      "midi": 63,
      "hit": false,
      "t": 181065.4711666653,
      "d": 20.491791666659992,
      "v": 106
    },
    {
      "midi": 32,
      "hit": false,
      "t": 181065.4711666659,
      "d": 450.81941666666535,
      "v": 105
    },
    {
      "midi": 58,
      "hit": false,
      "t": 181065.47116666715,
      "d": 5901.635999999999,
      "v": 110
    },
    {
      "midi": 70,
      "hit": false,
      "t": 181065.47116666715,
      "d": 5901.635999999999,
      "v": 110
    },
    {
      "midi": 75,
      "hit": false,
      "t": 181065.4711666672,
      "d": 2459.015000000072,
      "v": 95
    },
    {
      "midi": 68,
      "hit": false,
      "t": 181065.4711666672,
      "d": 2459.015000000072,
      "v": 95
    },
    {
      "midi": 72,
      "hit": false,
      "t": 181065.4711666672,
      "d": 3422.129208333441,
      "v": 95
    },
    {
      "midi": 63,
      "hit": false,
      "t": 181065.47116666764,
      "d": 245.90150000000722,
      "v": 90
    },
    {
      "midi": 68,
      "hit": false,
      "t": 181065.47116666764,
      "d": 245.90150000000722,
      "v": 90
    },
    {
      "midi": 72,
      "hit": false,
      "t": 181065.47116666764,
      "d": 245.90150000000722,
      "v": 90
    },
    {
      "midi": 75,
      "hit": false,
      "t": 181065.4711666681,
      "d": 983.6060000000289,
      "v": 95
    },
    {
      "midi": 67,
      "hit": false,
      "t": 181516.2905833337,
      "d": 491.80300000001444,
      "v": 80
    },
    {
      "midi": 60,
      "hit": false,
      "t": 181516.2905833337,
      "d": 491.80300000001444,
      "v": 80
    },
    {
      "midi": 63,
      "hit": false,
      "t": 181516.2905833337,
      "d": 491.80300000001444,
      "v": 80
    },
    {
      "midi": 42,
      "hit": false,
      "t": 181557.27416666527,
      "d": 20.491791666659992,
      "v": 120
    },
    {
      "midi": 62,
      "hit": false,
      "t": 181557.27416666527,
      "d": 20.491791666659992,
      "v": 106
    },
    {
      "midi": 32,
      "hit": false,
      "t": 181557.27416666588,
      "d": 225.40970833334723,
      "v": 115
    },
    {
      "midi": 75,
      "hit": false,
      "t": 181557.27416666597,
      "d": 450.81941666666535,
      "v": 127
    },
    {
      "midi": 75,
      "hit": false,
      "t": 181557.27416666597,
      "d": 450.81941666666535,
      "v": 110
    },
    {
      "midi": 63,
      "hit": false,
      "t": 181557.27416666766,
      "d": 245.90150000000722,
      "v": 90
    },
    {
      "midi": 68,
      "hit": false,
      "t": 181557.27416666766,
      "d": 245.90150000000722,
      "v": 90
    },
    {
      "midi": 72,
      "hit": false,
      "t": 181557.27416666766,
      "d": 245.90150000000722,
      "v": 90
    },
    {
      "midi": 65,
      "hit": false,
      "t": 182008.0935833337,
      "d": 491.80300000001444,
      "v": 80
    },
    {
      "midi": 60,
      "hit": false,
      "t": 182008.0935833337,
      "d": 491.80300000001444,
      "v": 80
    },
    {
      "midi": 63,
      "hit": false,
      "t": 182008.0935833337,
      "d": 491.80300000001444,
      "v": 80
    },
    {
      "midi": 42,
      "hit": false,
      "t": 182049.07716666526,
      "d": 20.491791666659992,
      "v": 120
    },
    {
      "midi": 40,
      "hit": false,
      "t": 182049.07716666526,
      "d": 20.491791666659992,
      "v": 120
    },
    {
      "midi": 83,
      "hit": false,
      "t": 182049.07716666526,
      "d": 20.491791666659992,
      "v": 78
    },
    {
      "midi": 74,
      "hit": false,
      "t": 182049.07716666596,
      "d": 450.81941666666535,
      "v": 127
    },
    {
      "midi": 74,
      "hit": false,
      "t": 182049.07716666596,
      "d": 450.81941666666535,
      "v": 110
    },
    {
      "midi": 63,
      "hit": false,
      "t": 182049.07716666767,
      "d": 491.80300000001444,
      "v": 90
    },
    {
      "midi": 68,
      "hit": false,
      "t": 182049.07716666767,
      "d": 491.80300000001444,
      "v": 90
    },
    {
      "midi": 72,
      "hit": false,
      "t": 182049.07716666767,
      "d": 491.80300000001444,
      "v": 90
    },
    {
      "midi": 75,
      "hit": false,
      "t": 182049.07716666814,
      "d": 983.6060000000289,
      "v": 95
    },
    {
      "midi": 67,
      "hit": false,
      "t": 182499.89658333373,
      "d": 491.80300000001444,
      "v": 80
    },
    {
      "midi": 60,
      "hit": false,
      "t": 182499.89658333373,
      "d": 491.80300000001444,
      "v": 80
    },
    {
      "midi": 63,
      "hit": false,
      "t": 182499.89658333373,
      "d": 491.80300000001444,
      "v": 80
    },
    {
      "midi": 42,
      "hit": false,
      "t": 182540.88016666524,
      "d": 20.491791666659992,
      "v": 120
    },
    {
      "midi": 63,
      "hit": false,
      "t": 182540.88016666524,
      "d": 20.491791666659992,
      "v": 106
    },
    {
      "midi": 41,
      "hit": false,
      "t": 182540.88016666588,
      "d": 225.40970833334723,
      "v": 115
    },
    {
      "midi": 75,
      "hit": false,
      "t": 182540.88016666594,
      "d": 676.2291250000126,
      "v": 127
    },
    {
      "midi": 75,
      "hit": false,
      "t": 182540.88016666594,
      "d": 676.2291250000126,
      "v": 110
    },
    {
      "midi": 43,
      "hit": false,
      "t": 182786.7816666659,
      "d": 225.40970833334723,
      "v": 115
    },
    {
      "midi": 42,
      "hit": false,
      "t": 183032.68316666523,
      "d": 20.491791666659992,
      "v": 120
    },
    {
      "midi": 36,
      "hit": false,
      "t": 183032.68316666523,
      "d": 20.491791666659992,
      "v": 120
    },
    {
      "midi": 63,
      "hit": false,
      "t": 183032.68316666523,
      "d": 20.491791666659992,
      "v": 106
    },
    {
      "midi": 41,
      "hit": false,
      "t": 183032.6831666659,
      "d": 450.81941666666535,
      "v": 115
    },
    {
      "midi": 63,
      "hit": false,
      "t": 183032.6831666677,
      "d": 491.80300000001444,
      "v": 90
    },
    {
      "midi": 68,
      "hit": false,
      "t": 183032.6831666677,
      "d": 491.80300000001444,
      "v": 90
    },
    {
      "midi": 72,
      "hit": false,
      "t": 183032.6831666677,
      "d": 491.80300000001444,
      "v": 90
    },
    {
      "midi": 75,
      "hit": false,
      "t": 183032.68316666817,
      "d": 983.6060000000289,
      "v": 95
    },
    {
      "midi": 67,
      "hit": false,
      "t": 183483.50258333376,
      "d": 491.80300000001444,
      "v": 80
    },
    {
      "midi": 60,
      "hit": false,
      "t": 183483.50258333376,
      "d": 491.80300000001444,
      "v": 80
    },
    {
      "midi": 63,
      "hit": false,
      "t": 183483.50258333376,
      "d": 491.80300000001444,
      "v": 80
    },
    {
      "midi": 42,
      "hit": false,
      "t": 183524.4861666652,
      "d": 20.491791666659992,
      "v": 120
    },
    {
      "midi": 36,
      "hit": false,
      "t": 183524.4861666652,
      "d": 20.491791666659992,
      "v": 120
    },
    {
      "midi": 62,
      "hit": false,
      "t": 183524.4861666652,
      "d": 20.491791666659992,
      "v": 106
    },
    {
      "midi": 39,
      "hit": false,
      "t": 183524.48616666588,
      "d": 450.81941666666535,
      "v": 115
    },
    {
      "midi": 79,
      "hit": false,
      "t": 183524.48616666594,
      "d": 450.81941666666535,
      "v": 127
    },
    {
      "midi": 79,
      "hit": false,
      "t": 183524.48616666594,
      "d": 450.81941666666535,
      "v": 110
    },
    {
      "midi": 65,
      "hit": false,
      "t": 183975.30558333377,
      "d": 122.95074999998906,
      "v": 80
    },
    {
      "midi": 60,
      "hit": false,
      "t": 183975.30558333377,
      "d": 122.95074999998906,
      "v": 80
    },
    {
      "midi": 63,
      "hit": false,
      "t": 183975.30558333377,
      "d": 122.95074999998906,
      "v": 80
    },
    {
      "midi": 42,
      "hit": false,
      "t": 184016.2891666652,
      "d": 20.491791666659992,
      "v": 120
    },
    {
      "midi": 40,
      "hit": false,
      "t": 184016.2891666652,
      "d": 20.491791666659992,
      "v": 120
    },
    {
      "midi": 83,
      "hit": false,
      "t": 184016.2891666652,
      "d": 20.491791666659992,
      "v": 78
    },
    {
      "midi": 32,
      "hit": false,
      "t": 184016.28916666587,
      "d": 450.81941666666535,
      "v": 115
    },
    {
      "midi": 80,
      "hit": false,
      "t": 184016.28916666593,
      "d": 450.81941666666535,
      "v": 127
    },
    {
      "midi": 80,
      "hit": false,
      "t": 184016.28916666593,
      "d": 450.81941666666535,
      "v": 110
    },
    {
      "midi": 63,
      "hit": false,
      "t": 184016.28916666773,
      "d": 245.90150000000722,
      "v": 90
    },
    {
      "midi": 68,
      "hit": false,
      "t": 184016.28916666773,
      "d": 245.90150000000722,
      "v": 90
    },
    {
      "midi": 72,
      "hit": false,
      "t": 184016.28916666773,
      "d": 245.90150000000722,
      "v": 90
    },
    {
      "midi": 75,
      "hit": false,
      "t": 184016.2891666682,
      "d": 983.6060000000289,
      "v": 95
    },
    {
      "midi": 65,
      "hit": false,
      "t": 184098.25633333376,
      "d": 368.8522499999963,
      "v": 80
    },
    {
      "midi": 60,
      "hit": false,
      "t": 184098.25633333376,
      "d": 368.8522499999963,
      "v": 80
    },
    {
      "midi": 63,
      "hit": false,
      "t": 184098.25633333376,
      "d": 368.8522499999963,
      "v": 80
    },
    {
      "midi": 67,
      "hit": false,
      "t": 184467.10858333376,
      "d": 122.95074999998906,
      "v": 80
    },
    {
      "midi": 58,
      "hit": false,
      "t": 184467.10858333376,
      "d": 122.95074999998906,
      "v": 80
    },
    {
      "midi": 63,
      "hit": false,
      "t": 184467.10858333376,
      "d": 122.95074999998906,
      "v": 80
    },
    {
      "midi": 42,
      "hit": false,
      "t": 184508.09216666518,
      "d": 20.491791666659992,
      "v": 120
    },
    {
      "midi": 36,
      "hit": false,
      "t": 184508.09216666518,
      "d": 20.491791666659992,
      "v": 120
    },
    {
      "midi": 63,
      "hit": false,
      "t": 184508.09216666518,
      "d": 20.491791666659992,
      "v": 106
    },
    {
      "midi": 31,
      "hit": false,
      "t": 184508.09216666585,
      "d": 942.6224166666798,
      "v": 105
    },
    {
      "midi": 82,
      "hit": false,
      "t": 184508.0921666659,
      "d": 942.6224166666798,
      "v": 117
    },
    {
      "midi": 82,
      "hit": false,
      "t": 184508.0921666659,
      "d": 942.6224166666798,
      "v": 100
    },
    {
      "midi": 63,
      "hit": false,
      "t": 184508.0921666666,
      "d": 4405.735208333324,
      "v": 110
    },
    {
      "midi": 55,
      "hit": false,
      "t": 184508.0921666666,
      "d": 4405.735208333324,
      "v": 110
    },
    {
      "midi": 58,
      "hit": false,
      "t": 184508.0921666666,
      "d": 4405.735208333324,
      "v": 110
    },
    {
      "midi": 67,
      "hit": false,
      "t": 184508.0921666673,
      "d": 4303.276250000112,
      "v": 95
    },
    {
      "midi": 70,
      "hit": false,
      "t": 184508.0921666673,
      "d": 4303.276250000112,
      "v": 95
    },
    {
      "midi": 63,
      "hit": false,
      "t": 184508.09216666775,
      "d": 737.7044999999925,
      "v": 90
    },
    {
      "midi": 67,
      "hit": false,
      "t": 184508.09216666775,
      "d": 737.7044999999925,
      "v": 90
    },
    {
      "midi": 70,
      "hit": false,
      "t": 184508.09216666775,
      "d": 737.7044999999925,
      "v": 90
    },
    {
      "midi": 67,
      "hit": false,
      "t": 184590.05933333375,
      "d": 860.6552500000107,
      "v": 80
    },
    {
      "midi": 58,
      "hit": false,
      "t": 184590.05933333375,
      "d": 860.6552500000107,
      "v": 80
    },
    {
      "midi": 63,
      "hit": false,
      "t": 184590.05933333375,
      "d": 860.6552500000107,
      "v": 80
    },
    {
      "midi": 42,
      "hit": false,
      "t": 184999.89516666517,
      "d": 20.491791666659992,
      "v": 120
    },
    {
      "midi": 63,
      "hit": false,
      "t": 184999.89516666517,
      "d": 20.491791666659992,
      "v": 106
    },
    {
      "midi": 75,
      "hit": false,
      "t": 184999.89516666823,
      "d": 983.6060000000289,
      "v": 95
    },
    {
      "midi": 67,
      "hit": false,
      "t": 185450.71458333376,
      "d": 491.80300000001444,
      "v": 80
    },
    {
      "midi": 58,
      "hit": false,
      "t": 185450.71458333376,
      "d": 491.80300000001444,
      "v": 80
    },
    {
      "midi": 63,
      "hit": false,
      "t": 185450.71458333376,
      "d": 491.80300000001444,
      "v": 80
    },
    {
      "midi": 42,
      "hit": false,
      "t": 185491.69816666516,
      "d": 20.491791666659992,
      "v": 120
    },
    {
      "midi": 36,
      "hit": false,
      "t": 185491.69816666516,
      "d": 20.491791666659992,
      "v": 120
    },
    {
      "midi": 62,
      "hit": false,
      "t": 185491.69816666516,
      "d": 20.491791666659992,
      "v": 106
    },
    {
      "midi": 31,
      "hit": false,
      "t": 185491.69816666585,
      "d": 225.40970833334723,
      "v": 115
    },
    {
      "midi": 75,
      "hit": false,
      "t": 185491.6981666659,
      "d": 450.81941666666535,
      "v": 127
    },
    {
      "midi": 75,
      "hit": false,
      "t": 185491.6981666659,
      "d": 450.81941666666535,
      "v": 110
    },
    {
      "midi": 63,
      "hit": false,
      "t": 185491.69816666775,
      "d": 245.90150000000722,
      "v": 90
    },
    {
      "midi": 67,
      "hit": false,
      "t": 185491.69816666775,
      "d": 245.90150000000722,
      "v": 90
    },
    {
      "midi": 70,
      "hit": false,
      "t": 185491.69816666775,
      "d": 245.90150000000722,
      "v": 90
    },
    {
      "midi": 65,
      "hit": false,
      "t": 185942.51758333377,
      "d": 491.80300000001444,
      "v": 80
    },
    {
      "midi": 58,
      "hit": false,
      "t": 185942.51758333377,
      "d": 491.80300000001444,
      "v": 80
    },
    {
      "midi": 62,
      "hit": false,
      "t": 185942.51758333377,
      "d": 491.80300000001444,
      "v": 80
    },
    {
      "midi": 42,
      "hit": false,
      "t": 185983.50116666514,
      "d": 20.491791666659992,
      "v": 120
    },
    {
      "midi": 40,
      "hit": false,
      "t": 185983.50116666514,
      "d": 20.491791666659992,
      "v": 120
    },
    {
      "midi": 83,
      "hit": false,
      "t": 185983.50116666514,
      "d": 20.491791666659992,
      "v": 78
    },
    {
      "midi": 74,
      "hit": false,
      "t": 185983.5011666659,
      "d": 450.81941666666535,
      "v": 127
    },
    {
      "midi": 74,
      "hit": false,
      "t": 185983.5011666659,
      "d": 450.81941666666535,
      "v": 110
    },
    {
      "midi": 63,
      "hit": false,
      "t": 185983.50116666776,
      "d": 491.80300000001444,
      "v": 90
    },
    {
      "midi": 67,
      "hit": false,
      "t": 185983.50116666776,
      "d": 491.80300000001444,
      "v": 90
    },
    {
      "midi": 70,
      "hit": false,
      "t": 185983.50116666776,
      "d": 491.80300000001444,
      "v": 90
    },
    {
      "midi": 75,
      "hit": false,
      "t": 185983.50116666825,
      "d": 983.6060000000289,
      "v": 95
    },
    {
      "midi": 67,
      "hit": false,
      "t": 186434.32058333379,
      "d": 983.6059999999998,
      "v": 80
    },
    {
      "midi": 58,
      "hit": false,
      "t": 186434.32058333379,
      "d": 983.6059999999998,
      "v": 80
    },
    {
      "midi": 63,
      "hit": false,
      "t": 186434.32058333379,
      "d": 983.6059999999998,
      "v": 80
    },
    {
      "midi": 42,
      "hit": false,
      "t": 186475.30416666513,
      "d": 20.491791666659992,
      "v": 120
    },
    {
      "midi": 36,
      "hit": false,
      "t": 186475.30416666513,
      "d": 20.491791666659992,
      "v": 120
    },
    {
      "midi": 63,
      "hit": false,
      "t": 186475.30416666513,
      "d": 20.491791666659992,
      "v": 106
    },
    {
      "midi": 31,
      "hit": false,
      "t": 186475.30416666585,
      "d": 450.81941666666535,
      "v": 115
    },
    {
      "midi": 75,
      "hit": false,
      "t": 186475.30416666588,
      "d": 1127.048541666678,
      "v": 127
    },
    {
      "midi": 75,
      "hit": false,
      "t": 186475.30416666588,
      "d": 1127.048541666678,
      "v": 110
    },
    {
      "midi": 62,
      "hit": false,
      "t": 186721.20566666513,
      "d": 20.491791666659992,
      "v": 106
    },
    {
      "midi": 42,
      "hit": false,
      "t": 186967.10716666514,
      "d": 20.491791666659992,
      "v": 120
    },
    {
      "midi": 63,
      "hit": false,
      "t": 186967.10716666514,
      "d": 20.491791666659992,
      "v": 106
    },
    {
      "midi": 34,
      "hit": false,
      "t": 186967.10716666584,
      "d": 225.40970833334723,
      "v": 115
    },
    {
      "midi": 58,
      "hit": false,
      "t": 186967.10716666715,
      "d": 491.80300000001444,
      "v": 100
    },
    {
      "midi": 63,
      "hit": false,
      "t": 186967.10716666715,
      "d": 491.80300000001444,
      "v": 100
    },
    {
      "midi": 67,
      "hit": false,
      "t": 186967.10716666715,
      "d": 491.80300000001444,
      "v": 100
    },
    {
      "midi": 63,
      "hit": false,
      "t": 186967.1071666678,
      "d": 245.90150000000722,
      "v": 90
    },
    {
      "midi": 67,
      "hit": false,
      "t": 186967.1071666678,
      "d": 245.90150000000722,
      "v": 90
    },
    {
      "midi": 68,
      "hit": false,
      "t": 186967.1071666678,
      "d": 245.90150000000722,
      "v": 90
    },
    {
      "midi": 75,
      "hit": false,
      "t": 186967.10716666828,
      "d": 983.6060000000289,
      "v": 95
    },
    {
      "midi": 62,
      "hit": false,
      "t": 187213.00866666515,
      "d": 20.491791666659992,
      "v": 106
    },
    {
      "midi": 36,
      "hit": false,
      "t": 187213.00866666585,
      "d": 225.40970833334723,
      "v": 115
    },
    {
      "midi": 42,
      "hit": false,
      "t": 187458.91016666515,
      "d": 20.491791666659992,
      "v": 120
    },
    {
      "midi": 36,
      "hit": false,
      "t": 187458.91016666515,
      "d": 20.491791666659992,
      "v": 120
    },
    {
      "midi": 63,
      "hit": false,
      "t": 187458.91016666515,
      "d": 20.491791666659992,
      "v": 106
    },
    {
      "midi": 39,
      "hit": false,
      "t": 187458.91016666585,
      "d": 450.81941666666535,
      "v": 115
    },
    {
      "midi": 58,
      "hit": false,
      "t": 187458.91016666716,
      "d": 491.80300000001444,
      "v": 100
    },
    {
      "midi": 65,
      "hit": false,
      "t": 187458.91016666716,
      "d": 491.80300000001444,
      "v": 100
    },
    {
      "midi": 68,
      "hit": false,
      "t": 187458.91016666716,
      "d": 491.80300000001444,
      "v": 100
    },
    {
      "midi": 63,
      "hit": false,
      "t": 187458.9101666678,
      "d": 491.80300000001444,
      "v": 90
    },
    {
      "midi": 67,
      "hit": false,
      "t": 187458.9101666678,
      "d": 491.80300000001444,
      "v": 90
    },
    {
      "midi": 70,
      "hit": false,
      "t": 187458.9101666678,
      "d": 491.80300000001444,
      "v": 90
    },
    {
      "midi": 42,
      "hit": false,
      "t": 187950.71316666514,
      "d": 20.491791666659992,
      "v": 120
    },
    {
      "midi": 40,
      "hit": false,
      "t": 187950.71316666514,
      "d": 20.491791666659992,
      "v": 120
    },
    {
      "midi": 83,
      "hit": false,
      "t": 187950.71316666514,
      "d": 20.491791666659992,
      "v": 78
    },
    {
      "midi": 41,
      "hit": false,
      "t": 187950.71316666584,
      "d": 450.81941666666535,
      "v": 115
    },
    {
      "midi": 72,
      "hit": false,
      "t": 187950.7131666659,
      "d": 450.81941666666535,
      "v": 127
    },
    {
      "midi": 72,
      "hit": false,
      "t": 187950.7131666659,
      "d": 450.81941666666535,
      "v": 110
    },
    {
      "midi": 63,
      "hit": false,
      "t": 187950.71316666718,
      "d": 491.80300000001444,
      "v": 100
    },
    {
      "midi": 67,
      "hit": false,
      "t": 187950.71316666718,
      "d": 491.80300000001444,
      "v": 100
    },
    {
      "midi": 70,
      "hit": false,
      "t": 187950.71316666718,
      "d": 491.80300000001444,
      "v": 100
    },
    {
      "midi": 75,
      "hit": false,
      "t": 187950.7131666683,
      "d": 983.6060000000289,
      "v": 95
    },
    {
      "midi": 42,
      "hit": false,
      "t": 188442.51616666513,
      "d": 20.491791666659992,
      "v": 120
    },
    {
      "midi": 36,
      "hit": false,
      "t": 188442.51616666513,
      "d": 20.491791666659992,
      "v": 120
    },
    {
      "midi": 62,
      "hit": false,
      "t": 188442.51616666513,
      "d": 20.491791666659992,
      "v": 106
    },
    {
      "midi": 39,
      "hit": false,
      "t": 188442.51616666582,
      "d": 450.81941666666535,
      "v": 115
    },
    {
      "midi": 74,
      "hit": false,
      "t": 188442.51616666588,
      "d": 450.81941666666535,
      "v": 127
    },
    {
      "midi": 74,
      "hit": false,
      "t": 188442.51616666588,
      "d": 450.81941666666535,
      "v": 110
    },
    {
      "midi": 65,
      "hit": false,
      "t": 188442.5161666672,
      "d": 491.80300000001444,
      "v": 100
    },
    {
      "midi": 68,
      "hit": false,
      "t": 188442.5161666672,
      "d": 491.80300000001444,
      "v": 100
    },
    {
      "midi": 72,
      "hit": false,
      "t": 188442.5161666672,
      "d": 983.6060000000289,
      "v": 100
    },
    {
      "midi": 49,
      "hit": false,
      "t": 188934.3191666651,
      "d": 20.491791666659992,
      "v": 64
    },
    {
      "midi": 36,
      "hit": false,
      "t": 188934.3191666651,
      "d": 20.491791666659992,
      "v": 92
    },
    {
      "midi": 63,
      "hit": false,
      "t": 188934.3191666651,
      "d": 20.491791666659992,
      "v": 106
    },
    {
      "midi": 41,
      "hit": false,
      "t": 188934.3191666658,
      "d": 1352.458249999996,
      "v": 105
    },
    {
      "midi": 75,
      "hit": false,
      "t": 188934.31916666587,
      "d": 450.81941666666535,
      "v": 117
    },
    {
      "midi": 75,
      "hit": false,
      "t": 188934.31916666587,
      "d": 450.81941666666535,
      "v": 100
    },
    {
      "midi": 65,
      "hit": false,
      "t": 188934.3191666666,
      "d": 491.80300000001444,
      "v": 110
    },
    {
      "midi": 56,
      "hit": false,
      "t": 188934.3191666666,
      "d": 491.80300000001444,
      "v": 110
    },
    {
      "midi": 60,
      "hit": false,
      "t": 188934.3191666666,
      "d": 491.80300000001444,
      "v": 110
    },
    {
      "midi": 60,
      "hit": false,
      "t": 188934.3191666672,
      "d": 491.80300000001444,
      "v": 110
    },
    {
      "midi": 65,
      "hit": false,
      "t": 188934.31916666782,
      "d": 491.80300000001444,
      "v": 90
    },
    {
      "midi": 68,
      "hit": false,
      "t": 188934.31916666782,
      "d": 491.80300000001444,
      "v": 90
    },
    {
      "midi": 72,
      "hit": false,
      "t": 188934.31916666782,
      "d": 491.80300000001444,
      "v": 90
    },
    {
      "midi": 75,
      "hit": false,
      "t": 188934.31916666834,
      "d": 983.6060000000289,
      "v": 95
    },
    {
      "midi": 42,
      "hit": false,
      "t": 189426.1221666651,
      "d": 20.491791666659992,
      "v": 120
    },
    {
      "midi": 62,
      "hit": false,
      "t": 189426.1221666651,
      "d": 20.491791666659992,
      "v": 106
    },
    {
      "midi": 77,
      "hit": false,
      "t": 189426.12216666585,
      "d": 450.81941666666535,
      "v": 127
    },
    {
      "midi": 77,
      "hit": false,
      "t": 189426.12216666585,
      "d": 450.81941666666535,
      "v": 110
    },
    {
      "midi": 62,
      "hit": false,
      "t": 189426.12216666722,
      "d": 491.80300000001444,
      "v": 110
    },
    {
      "midi": 74,
      "hit": false,
      "t": 189426.12216666722,
      "d": 491.80300000001444,
      "v": 110
    },
    {
      "midi": 42,
      "hit": false,
      "t": 189917.92516666508,
      "d": 20.491791666659992,
      "v": 120
    },
    {
      "midi": 40,
      "hit": false,
      "t": 189917.92516666508,
      "d": 20.491791666659992,
      "v": 120
    },
    {
      "midi": 83,
      "hit": false,
      "t": 189917.92516666508,
      "d": 20.491791666659992,
      "v": 78
    },
    {
      "midi": 79,
      "hit": false,
      "t": 189917.92516666584,
      "d": 450.81941666666535,
      "v": 127
    },
    {
      "midi": 79,
      "hit": false,
      "t": 189917.92516666584,
      "d": 450.81941666666535,
      "v": 110
    },
    {
      "midi": 65,
      "hit": false,
      "t": 189917.92516666662,
      "d": 491.80300000001444,
      "v": 110
    },
    {
      "midi": 56,
      "hit": false,
      "t": 189917.92516666662,
      "d": 491.80300000001444,
      "v": 110
    },
    {
      "midi": 60,
      "hit": false,
      "t": 189917.92516666662,
      "d": 491.80300000001444,
      "v": 110
    },
    {
      "midi": 63,
      "hit": false,
      "t": 189917.92516666724,
      "d": 491.80300000001444,
      "v": 110
    },
    {
      "midi": 75,
      "hit": false,
      "t": 189917.92516666724,
      "d": 491.80300000001444,
      "v": 110
    },
    {
      "midi": 65,
      "hit": false,
      "t": 189917.92516666785,
      "d": 491.80300000001444,
      "v": 90
    },
    {
      "midi": 68,
      "hit": false,
      "t": 189917.92516666785,
      "d": 491.80300000001444,
      "v": 90
    },
    {
      "midi": 72,
      "hit": false,
      "t": 189917.92516666785,
      "d": 491.80300000001444,
      "v": 90
    },
    {
      "midi": 75,
      "hit": false,
      "t": 189917.92516666837,
      "d": 983.6060000000289,
      "v": 95
    },
    {
      "midi": 42,
      "hit": false,
      "t": 190409.72816666507,
      "d": 20.491791666659992,
      "v": 120
    },
    {
      "midi": 63,
      "hit": false,
      "t": 190409.72816666507,
      "d": 20.491791666659992,
      "v": 106
    },
    {
      "midi": 36,
      "hit": false,
      "t": 190409.72816666507,
      "d": 20.491791666659992,
      "v": 92
    },
    {
      "midi": 41,
      "hit": false,
      "t": 190409.7281666658,
      "d": 450.81941666666535,
      "v": 115
    },
    {
      "midi": 80,
      "hit": false,
      "t": 190409.72816666582,
      "d": 450.81941666666535,
      "v": 127
    },
    {
      "midi": 80,
      "hit": false,
      "t": 190409.72816666582,
      "d": 450.81941666666535,
      "v": 110
    },
    {
      "midi": 65,
      "hit": false,
      "t": 190409.72816666725,
      "d": 491.80300000001444,
      "v": 110
    },
    {
      "midi": 77,
      "hit": false,
      "t": 190409.72816666725,
      "d": 491.80300000001444,
      "v": 110
    },
    {
      "midi": 36,
      "hit": false,
      "t": 190655.62966666507,
      "d": 20.491791666659992,
      "v": 92
    },
    {
      "midi": 42,
      "hit": false,
      "t": 190901.53116666508,
      "d": 20.491791666659992,
      "v": 120
    },
    {
      "midi": 36,
      "hit": false,
      "t": 190901.53116666508,
      "d": 20.491791666659992,
      "v": 120
    },
    {
      "midi": 63,
      "hit": false,
      "t": 190901.53116666508,
      "d": 20.491791666659992,
      "v": 106
    },
    {
      "midi": 34,
      "hit": false,
      "t": 190901.53116666578,
      "d": 1352.458249999996,
      "v": 115
    },
    {
      "midi": 82,
      "hit": false,
      "t": 190901.5311666658,
      "d": 450.81941666666535,
      "v": 127
    },
    {
      "midi": 82,
      "hit": false,
      "t": 190901.5311666658,
      "d": 450.81941666666535,
      "v": 110
    },
    {
      "midi": 63,
      "hit": false,
      "t": 190901.53116666665,
      "d": 491.80300000001444,
      "v": 110
    },
    {
      "midi": 56,
      "hit": false,
      "t": 190901.53116666665,
      "d": 491.80300000001444,
      "v": 110
    },
    {
      "midi": 58,
      "hit": false,
      "t": 190901.53116666665,
      "d": 491.80300000001444,
      "v": 110
    },
    {
      "midi": 67,
      "hit": false,
      "t": 190901.53116666726,
      "d": 491.80300000001444,
      "v": 110
    },
    {
      "midi": 79,
      "hit": false,
      "t": 190901.53116666726,
      "d": 491.80300000001444,
      "v": 110
    },
    {
      "midi": 65,
      "hit": false,
      "t": 190901.53116666788,
      "d": 491.80300000001444,
      "v": 90
    },
    {
      "midi": 70,
      "hit": false,
      "t": 190901.53116666788,
      "d": 491.80300000001444,
      "v": 90
    },
    {
      "midi": 74,
      "hit": false,
      "t": 190901.53116666788,
      "d": 491.80300000001444,
      "v": 90
    },
    {
      "midi": 75,
      "hit": false,
      "t": 190901.5311666684,
      "d": 983.6060000000289,
      "v": 90
    },
    {
      "midi": 42,
      "hit": false,
      "t": 191393.33416666507,
      "d": 20.491791666659992,
      "v": 120
    },
    {
      "midi": 36,
      "hit": false,
      "t": 191393.33416666507,
      "d": 20.491791666659992,
      "v": 120
    },
    {
      "midi": 62,
      "hit": false,
      "t": 191393.33416666507,
      "d": 20.491791666659992,
      "v": 106
    },
    {
      "midi": 75,
      "hit": false,
      "t": 191393.3341666658,
      "d": 450.81941666666535,
      "v": 127
    },
    {
      "midi": 75,
      "hit": false,
      "t": 191393.3341666658,
      "d": 450.81941666666535,
      "v": 110
    },
    {
      "midi": 70,
      "hit": false,
      "t": 191393.33416666728,
      "d": 676.2291250000126,
      "v": 110
    },
    {
      "midi": 82,
      "hit": false,
      "t": 191393.33416666728,
      "d": 676.2291250000126,
      "v": 110
    },
    {
      "midi": 42,
      "hit": false,
      "t": 191885.13716666505,
      "d": 20.491791666659992,
      "v": 120
    },
    {
      "midi": 40,
      "hit": false,
      "t": 191885.13716666505,
      "d": 20.491791666659992,
      "v": 120
    },
    {
      "midi": 83,
      "hit": false,
      "t": 191885.13716666505,
      "d": 20.491791666659992,
      "v": 78
    },
    {
      "midi": 77,
      "hit": false,
      "t": 191885.13716666578,
      "d": 450.81941666666535,
      "v": 127
    },
    {
      "midi": 77,
      "hit": false,
      "t": 191885.13716666578,
      "d": 450.81941666666535,
      "v": 110
    },
    {
      "midi": 63,
      "hit": false,
      "t": 191885.13716666668,
      "d": 245.90150000000722,
      "v": 110
    },
    {
      "midi": 56,
      "hit": false,
      "t": 191885.13716666668,
      "d": 245.90150000000722,
      "v": 110
    },
    {
      "midi": 58,
      "hit": false,
      "t": 191885.13716666668,
      "d": 245.90150000000722,
      "v": 110
    },
    {
      "midi": 65,
      "hit": false,
      "t": 191885.1371666679,
      "d": 245.90150000000722,
      "v": 90
    },
    {
      "midi": 70,
      "hit": false,
      "t": 191885.1371666679,
      "d": 245.90150000000722,
      "v": 90
    },
    {
      "midi": 74,
      "hit": false,
      "t": 191885.1371666679,
      "d": 245.90150000000722,
      "v": 90
    },
    {
      "midi": 75,
      "hit": false,
      "t": 191885.13716666843,
      "d": 491.80300000001444,
      "v": 90
    },
    {
      "midi": 42,
      "hit": false,
      "t": 192376.94016666504,
      "d": 20.491791666659992,
      "v": 120
    },
    {
      "midi": 36,
      "hit": false,
      "t": 192376.94016666504,
      "d": 20.491791666659992,
      "v": 120
    },
    {
      "midi": 63,
      "hit": false,
      "t": 192376.94016666504,
      "d": 20.491791666659992,
      "v": 106
    },
    {
      "midi": 75,
      "hit": false,
      "t": 192376.94016666576,
      "d": 3934.423999999999,
      "v": 117
    },
    {
      "midi": 39,
      "hit": false,
      "t": 192376.94016666576,
      "d": 450.81941666666535,
      "v": 115
    },
    {
      "midi": 75,
      "hit": false,
      "t": 192376.94016666576,
      "d": 3934.423999999999,
      "v": 100
    },
    {
      "midi": 63,
      "hit": false,
      "t": 192376.9401666667,
      "d": 512.2947916666744,
      "v": 110
    },
    {
      "midi": 56,
      "hit": false,
      "t": 192376.9401666667,
      "d": 512.2947916666744,
      "v": 110
    },
    {
      "midi": 58,
      "hit": false,
      "t": 192376.9401666667,
      "d": 512.2947916666744,
      "v": 110
    },
    {
      "midi": 70,
      "hit": false,
      "t": 192376.94016666728,
      "d": 512.2947916666744,
      "v": 110
    },
    {
      "midi": 75,
      "hit": false,
      "t": 192376.94016666728,
      "d": 512.2947916666744,
      "v": 110
    },
    {
      "midi": 80,
      "hit": false,
      "t": 192376.94016666728,
      "d": 512.2947916666744,
      "v": 110
    },
    {
      "midi": 75,
      "hit": false,
      "t": 192376.94016666792,
      "d": 512.2947916666744,
      "v": 90
    },
    {
      "midi": 68,
      "hit": false,
      "t": 192376.94016666792,
      "d": 512.2947916666744,
      "v": 90
    },
    {
      "midi": 70,
      "hit": false,
      "t": 192376.94016666792,
      "d": 512.2947916666744,
      "v": 90
    },
    {
      "midi": 75,
      "hit": false,
      "t": 192376.94016666844,
      "d": 737.7044999999925,
      "v": 90
    },
    {
      "midi": 42,
      "hit": false,
      "t": 193360.54616666504,
      "d": 20.491791666659992,
      "v": 120
    },
    {
      "midi": 36,
      "hit": false,
      "t": 193360.54616666504,
      "d": 20.491791666659992,
      "v": 92
    },
    {
      "midi": 40,
      "hit": false,
      "t": 193360.54616666504,
      "d": 20.491791666659992,
      "v": 92
    },
    {
      "midi": 27,
      "hit": false,
      "t": 193360.54616666576,
      "d": 450.81941666666535,
      "v": 115
    },
    {
      "midi": 58,
      "hit": false,
      "t": 193360.5461666667,
      "d": 512.2947916666744,
      "v": 110
    },
    {
      "midi": 63,
      "hit": false,
      "t": 193360.5461666667,
      "d": 512.2947916666744,
      "v": 110
    },
    {
      "midi": 56,
      "hit": false,
      "t": 193360.5461666667,
      "d": 512.2947916666744,
      "v": 110
    },
    {
      "midi": 70,
      "hit": false,
      "t": 193360.54616666728,
      "d": 512.2947916666744,
      "v": 110
    },
    {
      "midi": 75,
      "hit": false,
      "t": 193360.54616666728,
      "d": 512.2947916666744,
      "v": 110
    },
    {
      "midi": 80,
      "hit": false,
      "t": 193360.54616666728,
      "d": 512.2947916666744,
      "v": 110
    },
    {
      "midi": 70,
      "hit": false,
      "t": 193360.54616666792,
      "d": 512.2947916666744,
      "v": 90
    },
    {
      "midi": 75,
      "hit": false,
      "t": 193360.54616666792,
      "d": 512.2947916666744,
      "v": 90
    },
    {
      "midi": 68,
      "hit": false,
      "t": 193360.54616666792,
      "d": 512.2947916666744,
      "v": 90
    },
    {
      "midi": 75,
      "hit": false,
      "t": 193360.54616666844,
      "d": 512.2947916666744,
      "v": 90
    },
    {
      "midi": 36,
      "hit": false,
      "t": 194344.15216666504,
      "d": 20.491791666659992,
      "v": 92
    },
    {
      "midi": 46,
      "hit": false,
      "t": 194344.15216666504,
      "d": 20.491791666659992,
      "v": 120
    },
    {
      "midi": 40,
      "hit": false,
      "t": 194344.15216666504,
      "d": 20.491791666659992,
      "v": 92
    },
    {
      "midi": 27,
      "hit": false,
      "t": 194344.15216666576,
      "d": 4426.2270000000135,
      "v": 115
    },
    {
      "midi": 58,
      "hit": false,
      "t": 194344.1521666667,
      "d": 4426.22700000013,
      "v": 110
    },
    {
      "midi": 63,
      "hit": false,
      "t": 194344.1521666667,
      "d": 4426.22700000013,
      "v": 110
    },
    {
      "midi": 55,
      "hit": false,
      "t": 194344.1521666667,
      "d": 4426.22700000013,
      "v": 110
    },
    {
      "midi": 70,
      "hit": false,
      "t": 194344.15216666728,
      "d": 4426.2270000000135,
      "v": 110
    },
    {
      "midi": 75,
      "hit": false,
      "t": 194344.15216666728,
      "d": 4426.2270000000135,
      "v": 110
    },
    {
      "midi": 79,
      "hit": false,
      "t": 194344.15216666728,
      "d": 4426.2270000000135,
      "v": 110
    },
    {
      "midi": 70,
      "hit": false,
      "t": 194344.15216666792,
      "d": 4426.22700000013,
      "v": 90
    },
    {
      "midi": 75,
      "hit": false,
      "t": 194344.15216666792,
      "d": 4426.22700000013,
      "v": 90
    },
    {
      "midi": 67,
      "hit": false,
      "t": 194344.15216666792,
      "d": 4426.22700000013,
      "v": 90
    },
    {
      "midi": 75,
      "hit": false,
      "t": 194344.15216666844,
      "d": 4426.2270000000135,
      "v": 90
    }
  ]
}