{
  "jsonPath": "Jazz/Latin Jazz/Pete Escovedo/fantasy.json",
  "path": "Jazz\\Latin Jazz\\Pete Escovedo\\Fantasy.mid",
  "name": "Fantasy",
  "difficulty": "Advanced",
  "bpm": 80,
  "notes": [
    {
      "midi": 79,
      "hit": false,
      "t": 2790.692,
      "d": 523.2547500000001,
      "v": 120
    },
    {
      "midi": 83,
      "hit": false,
      "t": 2790.692,
      "d": 683.138145833333,
      "v": 127
    },
    {
      "midi": 88,
      "hit": false,
      "t": 2790.692,
      "d": 1031.974645833333,
      "v": 122
    },
    {
      "midi": 76,
      "hit": false,
      "t": 2790.692,
      "d": 1264.532312499999,
      "v": 127
    },
    {
      "midi": 71,
      "hit": false,
      "t": 2790.692,
      "d": 2434.5880729166665,
      "v": 86
    },
    {
      "midi": 79,
      "hit": false,
      "t": 3321.214177083333,
      "d": 152.61596874999987,
      "v": 104
    },
    {
      "midi": 79,
      "hit": false,
      "t": 3495.632427083333,
      "d": 327.03421875000004,
      "v": 88
    },
    {
      "midi": 83,
      "hit": false,
      "t": 3495.632427083333,
      "d": 327.03421875000004,
      "v": 123
    },
    {
      "midi": 79,
      "hit": false,
      "t": 3829.934072916666,
      "d": 290.69708333333256,
      "v": 101
    },
    {
      "midi": 88,
      "hit": false,
      "t": 3829.934072916666,
      "d": 290.69708333333256,
      "v": 111
    },
    {
      "midi": 83,
      "hit": false,
      "t": 3837.201499999999,
      "d": 276.1622291666663,
      "v": 93
    },
    {
      "midi": 81,
      "hit": false,
      "t": 4178.7705729166655,
      "d": 610.4638749999995,
      "v": 114
    },
    {
      "midi": 86,
      "hit": false,
      "t": 4178.7705729166655,
      "d": 624.9987291666657,
      "v": 120
    },
    {
      "midi": 74,
      "hit": false,
      "t": 4186.037999999999,
      "d": 654.0684374999992,
      "v": 101
    },
    {
      "midi": 78,
      "hit": false,
      "t": 4186.037999999999,
      "d": 675.8707187499995,
      "v": 98
    },
    {
      "midi": 88,
      "hit": false,
      "t": 4883.710999999998,
      "d": 319.7667916666669,
      "v": 125
    },
    {
      "midi": 81,
      "hit": false,
      "t": 4883.710999999998,
      "d": 595.9290208333332,
      "v": 125
    },
    {
      "midi": 76,
      "hit": false,
      "t": 4883.710999999998,
      "d": 617.7313020833335,
      "v": 107
    },
    {
      "midi": 78,
      "hit": false,
      "t": 4890.978427083332,
      "d": 668.6032916666672,
      "v": 100
    },
    {
      "midi": 74,
      "hit": false,
      "t": 5232.547499999999,
      "d": 334.30164583333317,
      "v": 103
    },
    {
      "midi": 86,
      "hit": false,
      "t": 5239.814927083332,
      "d": 348.83650000000034,
      "v": 116
    },
    {
      "midi": 79,
      "hit": false,
      "t": 5588.651427083332,
      "d": 639.5335833333338,
      "v": 105
    },
    {
      "midi": 88,
      "hit": false,
      "t": 5588.651427083332,
      "d": 1024.7072187500007,
      "v": 116
    },
    {
      "midi": 76,
      "hit": false,
      "t": 5588.651427083332,
      "d": 1031.9746458333339,
      "v": 109
    },
    {
      "midi": 83,
      "hit": false,
      "t": 5588.651427083332,
      "d": 1235.462604166667,
      "v": 120
    },
    {
      "midi": 76,
      "hit": false,
      "t": 5588.651427083333,
      "d": 1010.1723645833335,
      "v": 89
    },
    {
      "midi": 79,
      "hit": false,
      "t": 6286.324427083333,
      "d": 327.03421875000004,
      "v": 103
    },
    {
      "midi": 74,
      "hit": false,
      "t": 6620.626072916667,
      "d": 196.22053125000002,
      "v": 89
    },
    {
      "midi": 79,
      "hit": false,
      "t": 6627.893499999999,
      "d": 305.23193749999973,
      "v": 123
    },
    {
      "midi": 88,
      "hit": false,
      "t": 6627.893499999999,
      "d": 305.23193749999973,
      "v": 109
    },
    {
      "midi": 76,
      "hit": false,
      "t": 6635.160927083332,
      "d": 268.89480208333316,
      "v": 99
    },
    {
      "midi": 72,
      "hit": false,
      "t": 6795.044322916667,
      "d": 196.22053125000093,
      "v": 84
    },
    {
      "midi": 71,
      "hit": false,
      "t": 6969.462572916667,
      "d": 1191.8580416666673,
      "v": 86
    },
    {
      "midi": 78,
      "hit": false,
      "t": 6976.729999999999,
      "d": 639.5335833333329,
      "v": 103
    },
    {
      "midi": 81,
      "hit": false,
      "t": 6976.729999999999,
      "d": 1206.3928958333317,
      "v": 114
    },
    {
      "midi": 74,
      "hit": false,
      "t": 6983.997427083332,
      "d": 617.7313020833335,
      "v": 93
    },
    {
      "midi": 86,
      "hit": false,
      "t": 6983.997427083332,
      "d": 617.7313020833335,
      "v": 114
    },
    {
      "midi": 84,
      "hit": false,
      "t": 7674.402999999998,
      "d": 363.3713541666657,
      "v": 115
    },
    {
      "midi": 78,
      "hit": false,
      "t": 7674.402999999998,
      "d": 639.533583333332,
      "v": 101
    },
    {
      "midi": 72,
      "hit": false,
      "t": 7674.402999999998,
      "d": 668.6032916666663,
      "v": 85
    },
    {
      "midi": 71,
      "hit": false,
      "t": 8015.972072916665,
      "d": 305.23193749999973,
      "v": 93
    },
    {
      "midi": 83,
      "hit": false,
      "t": 8023.239499999998,
      "d": 290.69708333333256,
      "v": 125
    },
    {
      "midi": 76,
      "hit": false,
      "t": 8372.075999999997,
      "d": 1344.4740104166685,
      "v": 126
    },
    {
      "midi": 73,
      "hit": false,
      "t": 8372.076000000001,
      "d": 1046.5095000000001,
      "v": 80
    },
    {
      "midi": 73,
      "hit": false,
      "t": 8379.343427083331,
      "d": 617.7313020833335,
      "v": 126
    },
    {
      "midi": 85,
      "hit": false,
      "t": 8379.343427083331,
      "d": 646.801010416666,
      "v": 126
    },
    {
      "midi": 81,
      "hit": false,
      "t": 8379.343427083331,
      "d": 654.0684375000001,
      "v": 126
    },
    {
      "midi": 81,
      "hit": false,
      "t": 9069.748999999998,
      "d": 261.62737500000003,
      "v": 120
    },
    {
      "midi": 71,
      "hit": false,
      "t": 9069.748999999998,
      "d": 305.23193750000064,
      "v": 103
    },
    {
      "midi": 83,
      "hit": false,
      "t": 9069.748999999998,
      "d": 624.9987291666675,
      "v": 127
    },
    {
      "midi": 73,
      "hit": false,
      "t": 9404.050645833331,
      "d": 327.03421875000095,
      "v": 117
    },
    {
      "midi": 81,
      "hit": false,
      "t": 9411.318072916665,
      "d": 305.23193750000064,
      "v": 117
    },
    {
      "midi": 85,
      "hit": false,
      "t": 9411.318072916665,
      "d": 334.30164583333317,
      "v": 117
    },
    {
      "midi": 71,
      "hit": false,
      "t": 9425.852927083335,
      "d": 138.08111458333406,
      "v": 82
    },
    {
      "midi": 73,
      "hit": false,
      "t": 9585.73632291667,
      "d": 94.47655208333344,
      "v": 92
    },
    {
      "midi": 75,
      "hit": false,
      "t": 9760.154572916665,
      "d": 646.8010104166679,
      "v": 101
    },
    {
      "midi": 78,
      "hit": false,
      "t": 9767.421999999999,
      "d": 566.8593125000007,
      "v": 101
    },
    {
      "midi": 87,
      "hit": false,
      "t": 9767.421999999999,
      "d": 639.5335833333338,
      "v": 107
    },
    {
      "midi": 83,
      "hit": false,
      "t": 9767.421999999999,
      "d": 763.0798437499998,
      "v": 127
    },
    {
      "midi": 73,
      "hit": false,
      "t": 9774.689427083336,
      "d": 1140.9860520833336,
      "v": 86
    },
    {
      "midi": 85,
      "hit": false,
      "t": 10472.362427083332,
      "d": 297.9645104166666,
      "v": 111
    },
    {
      "midi": 73,
      "hit": false,
      "t": 10472.362427083332,
      "d": 327.0342187499991,
      "v": 98
    },
    {
      "midi": 78,
      "hit": false,
      "t": 10472.362427083332,
      "d": 610.4638749999995,
      "v": 93
    },
    {
      "midi": 87,
      "hit": false,
      "t": 10813.931499999997,
      "d": 247.09252083333377,
      "v": 111
    },
    {
      "midi": 75,
      "hit": false,
      "t": 10813.931499999997,
      "d": 334.301645833335,
      "v": 98
    },
    {
      "midi": 83,
      "hit": false,
      "t": 11162.767999999998,
      "d": 1228.195177083333,
      "v": 127
    },
    {
      "midi": 81,
      "hit": false,
      "t": 11162.767999999998,
      "d": 1257.2648854166655,
      "v": 123
    },
    {
      "midi": 76,
      "hit": false,
      "t": 11162.767999999998,
      "d": 1293.602020833332,
      "v": 127
    },
    {
      "midi": 88,
      "hit": false,
      "t": 11162.767999999998,
      "d": 1322.6717291666646,
      "v": 123
    },
    {
      "midi": 71,
      "hit": false,
      "t": 11162.768000000004,
      "d": 3982.5500416666673,
      "v": 95
    },
    {
      "midi": 76,
      "hit": false,
      "t": 12550.846572916664,
      "d": 668.6032916666682,
      "v": 103
    },
    {
      "midi": 88,
      "hit": false,
      "t": 12550.846572916664,
      "d": 668.6032916666682,
      "v": 125
    },
    {
      "midi": 80,
      "hit": false,
      "t": 12558.113999999998,
      "d": 654.0684375000001,
      "v": 127
    },
    {
      "midi": 83,
      "hit": false,
      "t": 12558.113999999998,
      "d": 654.0684375000001,
      "v": 127
    },
    {
      "midi": 88,
      "hit": false,
      "t": 13248.519572916664,
      "d": 683.1381458333344,
      "v": 123
    },
    {
      "midi": 76,
      "hit": false,
      "t": 13255.786999999998,
      "d": 624.9987291666675,
      "v": 102
    },
    {
      "midi": 83,
      "hit": false,
      "t": 13255.786999999998,
      "d": 639.5335833333338,
      "v": 123
    },
    {
      "midi": 78,
      "hit": false,
      "t": 13255.786999999998,
      "d": 654.0684375000001,
      "v": 99
    },
    {
      "midi": 76,
      "hit": false,
      "t": 13953.46,
      "d": 2129.356135416667,
      "v": 102
    },
    {
      "midi": 83,
      "hit": false,
      "t": 13960.727427083333,
      "d": 1896.7984687499993,
      "v": 127
    },
    {
      "midi": 80,
      "hit": false,
      "t": 13960.727427083333,
      "d": 2274.704677083333,
      "v": 103
    },
    {
      "midi": 88,
      "hit": false,
      "t": 13960.727427083333,
      "d": 2281.972104166667,
      "v": 127
    },
    {
      "midi": 76,
      "hit": false,
      "t": 17747.0569375,
      "d": 87.20912499999758,
      "v": 122
    },
    {
      "midi": 79,
      "hit": false,
      "t": 17805.196354166666,
      "d": 79.94169791666718,
      "v": 99
    },
    {
      "midi": 76,
      "hit": false,
      "t": 17834.266062500006,
      "d": 87.20912499999758,
      "v": 50
    },
    {
      "midi": 81,
      "hit": false,
      "t": 17848.800916666667,
      "d": 72.67427083333314,
      "v": 127
    },
    {
      "midi": 79,
      "hit": false,
      "t": 17892.40547916667,
      "d": 79.94169791666718,
      "v": 40
    },
    {
      "midi": 83,
      "hit": false,
      "t": 17899.67290625,
      "d": 50.87198958333465,
      "v": 127
    },
    {
      "midi": 88,
      "hit": false,
      "t": 17936.01004166667,
      "d": 58.139416666668694,
      "v": 127
    },
    {
      "midi": 81,
      "hit": false,
      "t": 17936.010041666672,
      "d": 72.67427083333314,
      "v": 54
    },
    {
      "midi": 91,
      "hit": false,
      "t": 17979.61460416667,
      "d": 58.139416666668694,
      "v": 127
    },
    {
      "midi": 83,
      "hit": false,
      "t": 17986.882031250007,
      "d": 50.87198958333465,
      "v": 60
    },
    {
      "midi": 88,
      "hit": false,
      "t": 18023.219166666673,
      "d": 58.139416666668694,
      "v": 51
    },
    {
      "midi": 93,
      "hit": false,
      "t": 18030.486593750004,
      "d": 58.139416666665056,
      "v": 127
    },
    {
      "midi": 95,
      "hit": false,
      "t": 18066.82372916667,
      "d": 58.139416666665056,
      "v": 127
    },
    {
      "midi": 91,
      "hit": false,
      "t": 18066.823729166674,
      "d": 58.139416666668694,
      "v": 51
    },
    {
      "midi": 98,
      "hit": false,
      "t": 18088.62601041667,
      "d": 72.67427083333314,
      "v": 127
    },
    {
      "midi": 93,
      "hit": false,
      "t": 18117.69571875001,
      "d": 58.139416666665056,
      "v": 56
    },
    {
      "midi": 100,
      "hit": false,
      "t": 18139.498000000003,
      "d": 203.48795833333133,
      "v": 127
    },
    {
      "midi": 95,
      "hit": false,
      "t": 18154.032854166675,
      "d": 58.139416666665056,
      "v": 58
    },
    {
      "midi": 98,
      "hit": false,
      "t": 18175.835135416673,
      "d": 72.67427083333314,
      "v": 54
    },
    {
      "midi": 98,
      "hit": false,
      "t": 18183.1025625,
      "d": 65.4068437499991,
      "v": 127
    },
    {
      "midi": 100,
      "hit": false,
      "t": 18226.707125000008,
      "d": 203.48795833333133,
      "v": 61
    },
    {
      "midi": 95,
      "hit": false,
      "t": 18241.241979166665,
      "d": 65.40684375000274,
      "v": 127
    },
    {
      "midi": 98,
      "hit": false,
      "t": 18270.311687500005,
      "d": 65.4068437499991,
      "v": 56
    },
    {
      "midi": 93,
      "hit": false,
      "t": 18299.381395833334,
      "d": 50.87198958333465,
      "v": 127
    },
    {
      "midi": 95,
      "hit": false,
      "t": 18328.45110416667,
      "d": 65.40684375000274,
      "v": 62
    },
    {
      "midi": 91,
      "hit": false,
      "t": 18350.25338541667,
      "d": 50.87198958333465,
      "v": 122
    },
    {
      "midi": 93,
      "hit": false,
      "t": 18386.59052083334,
      "d": 50.87198958333465,
      "v": 51
    },
    {
      "midi": 90,
      "hit": false,
      "t": 18393.85794791667,
      "d": 50.87198958333465,
      "v": 122
    },
    {
      "midi": 91,
      "hit": false,
      "t": 18437.462510416673,
      "d": 50.87198958333465,
      "v": 50
    },
    {
      "midi": 88,
      "hit": false,
      "t": 18451.997364583338,
      "d": 79.94169791666718,
      "v": 127
    },
    {
      "midi": 90,
      "hit": false,
      "t": 18481.067072916674,
      "d": 50.87198958333465,
      "v": 50
    },
    {
      "midi": 93,
      "hit": false,
      "t": 18531.939062500005,
      "d": 58.139416666665056,
      "v": 127
    },
    {
      "midi": 88,
      "hit": false,
      "t": 18539.206489583343,
      "d": 79.94169791666718,
      "v": 58
    },
    {
      "midi": 91,
      "hit": false,
      "t": 18590.07847916667,
      "d": 58.139416666668694,
      "v": 127
    },
    {
      "midi": 93,
      "hit": false,
      "t": 18619.14818750001,
      "d": 58.139416666665056,
      "v": 60
    },
    {
      "midi": 90,
      "hit": false,
      "t": 18640.950468750005,
      "d": 65.40684375000274,
      "v": 119
    },
    {
      "midi": 91,
      "hit": false,
      "t": 18677.287604166675,
      "d": 58.139416666668694,
      "v": 54
    },
    {
      "midi": 88,
      "hit": false,
      "t": 18699.089885416673,
      "d": 58.139416666668694,
      "v": 127
    },
    {
      "midi": 90,
      "hit": false,
      "t": 18728.15959375001,
      "d": 65.40684375000274,
      "v": 49
    },
    {
      "midi": 86,
      "hit": false,
      "t": 18749.961875000008,
      "d": 65.4068437499991,
      "v": 122
    },
    {
      "midi": 88,
      "hit": false,
      "t": 18786.29901041668,
      "d": 58.139416666668694,
      "v": 54
    },
    {
      "midi": 83,
      "hit": false,
      "t": 18815.368718750007,
      "d": 152.61596875000396,
      "v": 122
    },
    {
      "midi": 86,
      "hit": false,
      "t": 18837.171000000013,
      "d": 65.4068437499991,
      "v": 50
    },
    {
      "midi": 86,
      "hit": false,
      "t": 18866.240708333342,
      "d": 50.87198958333465,
      "v": 127
    },
    {
      "midi": 83,
      "hit": false,
      "t": 18902.577843750012,
      "d": 152.61596875000396,
      "v": 50
    },
    {
      "midi": 88,
      "hit": false,
      "t": 18917.112697916677,
      "d": 58.139416666668694,
      "v": 127
    },
    {
      "midi": 86,
      "hit": false,
      "t": 18953.449833333347,
      "d": 50.87198958333465,
      "v": 55
    },
    {
      "midi": 90,
      "hit": false,
      "t": 18967.98468750001,
      "d": 72.67427083333314,
      "v": 127
    },
    {
      "midi": 88,
      "hit": false,
      "t": 19004.32182291668,
      "d": 58.139416666668694,
      "v": 62
    },
    {
      "midi": 90,
      "hit": false,
      "t": 19055.193812500016,
      "d": 72.67427083333314,
      "v": 54
    },
    {
      "midi": 91,
      "hit": false,
      "t": 19062.461239583343,
      "d": 72.67427083333314,
      "v": 125
    },
    {
      "midi": 90,
      "hit": false,
      "t": 19120.600656250008,
      "d": 65.40684375000274,
      "v": 122
    },
    {
      "midi": 91,
      "hit": false,
      "t": 19149.670364583348,
      "d": 72.67427083333314,
      "v": 51
    },
    {
      "midi": 88,
      "hit": false,
      "t": 19171.472645833343,
      "d": 58.139416666668694,
      "v": 122
    },
    {
      "midi": 90,
      "hit": false,
      "t": 19207.809781250013,
      "d": 65.40684375000274,
      "v": 50
    },
    {
      "midi": 86,
      "hit": false,
      "t": 19229.61206250001,
      "d": 50.87198958333465,
      "v": 120
    },
    {
      "midi": 88,
      "hit": false,
      "t": 19258.681770833347,
      "d": 58.139416666668694,
      "v": 50
    },
    {
      "midi": 83,
      "hit": false,
      "t": 19273.216625000012,
      "d": 72.67427083333678,
      "v": 127
    },
    {
      "midi": 86,
      "hit": false,
      "t": 19316.821187500016,
      "d": 50.87198958333465,
      "v": 49
    },
    {
      "midi": 81,
      "hit": false,
      "t": 19331.35604166668,
      "d": 50.87198958333465,
      "v": 127
    },
    {
      "midi": 83,
      "hit": false,
      "t": 19360.425750000017,
      "d": 72.67427083333678,
      "v": 58
    },
    {
      "midi": 79,
      "hit": false,
      "t": 19374.96060416668,
      "d": 58.139416666668694,
      "v": 120
    },
    {
      "midi": 81,
      "hit": false,
      "t": 19418.565166666685,
      "d": 50.87198958333465,
      "v": 57
    },
    {
      "midi": 76,
      "hit": false,
      "t": 19433.10002083335,
      "d": 58.139416666668694,
      "v": 127
    },
    {
      "midi": 79,
      "hit": false,
      "t": 19462.169729166686,
      "d": 58.139416666668694,
      "v": 49
    },
    {
      "midi": 74,
      "hit": false,
      "t": 19483.972010416684,
      "d": 43.60456250000061,
      "v": 127
    },
    {
      "midi": 76,
      "hit": false,
      "t": 19520.309145833355,
      "d": 58.139416666668694,
      "v": 51
    },
    {
      "midi": 76,
      "hit": false,
      "t": 19534.84400000002,
      "d": 138.08111458333224,
      "v": 127
    },
    {
      "midi": 74,
      "hit": false,
      "t": 19571.18113541669,
      "d": 43.60456250000061,
      "v": 49
    },
    {
      "midi": 76,
      "hit": false,
      "t": 19622.053125000024,
      "d": 254.359947916666,
      "v": 48
    },
    {
      "midi": 64,
      "hit": false,
      "t": 38560.96810416667,
      "d": 174.41824999999517,
      "v": 105
    },
    {
      "midi": 66,
      "hit": false,
      "t": 38735.386354166665,
      "d": 174.41825000000244,
      "v": 92
    },
    {
      "midi": 67,
      "hit": false,
      "t": 38909.80460416667,
      "d": 857.5563958333369,
      "v": 105
    },
    {
      "midi": 69,
      "hit": false,
      "t": 39076.95542708336,
      "d": 1140.9860520833317,
      "v": 79
    },
    {
      "midi": 72,
      "hit": false,
      "t": 39076.95542708336,
      "d": 1249.9974583333315,
      "v": 77
    },
    {
      "midi": 67,
      "hit": false,
      "t": 39076.95542708336,
      "d": 1300.869447916666,
      "v": 74
    },
    {
      "midi": 64,
      "hit": false,
      "t": 39076.95542708336,
      "d": 1380.8111458333296,
      "v": 78
    },
    {
      "midi": 69,
      "hit": false,
      "t": 39767.361000000004,
      "d": 341.5690729166672,
      "v": 100
    },
    {
      "midi": 67,
      "hit": false,
      "t": 40108.93007291667,
      "d": 196.22053125000093,
      "v": 92
    },
    {
      "midi": 66,
      "hit": false,
      "t": 40305.15060416667,
      "d": 1002.9049375000031,
      "v": 87
    },
    {
      "midi": 74,
      "hit": false,
      "t": 40450.49914583336,
      "d": 1380.8111458333296,
      "v": 77
    },
    {
      "midi": 69,
      "hit": false,
      "t": 40457.76657291669,
      "d": 1431.683135416657,
      "v": 74
    },
    {
      "midi": 71,
      "hit": false,
      "t": 40457.76657291669,
      "d": 1446.217989583325,
      "v": 86
    },
    {
      "midi": 66,
      "hit": false,
      "t": 40465.03400000002,
      "d": 1409.8808541666585,
      "v": 79
    },
    {
      "midi": 64,
      "hit": false,
      "t": 41322.590395833344,
      "d": 174.41825000000244,
      "v": 94
    },
    {
      "midi": 66,
      "hit": false,
      "t": 41497.008645833346,
      "d": 196.22053125000093,
      "v": 89
    },
    {
      "midi": 67,
      "hit": false,
      "t": 41693.22917708335,
      "d": 850.2889687499992,
      "v": 104
    },
    {
      "midi": 72,
      "hit": false,
      "t": 41853.11257291669,
      "d": 1417.148281249989,
      "v": 76
    },
    {
      "midi": 64,
      "hit": false,
      "t": 41860.38000000002,
      "d": 1431.683135416657,
      "v": 87
    },
    {
      "midi": 67,
      "hit": false,
      "t": 41867.64742708335,
      "d": 1431.683135416657,
      "v": 78
    },
    {
      "midi": 69,
      "hit": false,
      "t": 42543.518145833346,
      "d": 348.8364999999976,
      "v": 100
    },
    {
      "midi": 67,
      "hit": false,
      "t": 42892.354645833344,
      "d": 196.22053125000093,
      "v": 95
    },
    {
      "midi": 66,
      "hit": false,
      "t": 43088.575177083345,
      "d": 1031.974645833332,
      "v": 88
    },
    {
      "midi": 66,
      "hit": false,
      "t": 43262.99342708335,
      "d": 1366.2762916666543,
      "v": 108
    },
    {
      "midi": 69,
      "hit": false,
      "t": 43262.99342708335,
      "d": 1388.0785729166528,
      "v": 84
    },
    {
      "midi": 74,
      "hit": false,
      "t": 43270.26085416668,
      "d": 1337.2065833333254,
      "v": 86
    },
    {
      "midi": 64,
      "hit": false,
      "t": 44120.54982291668,
      "d": 174.41825000000244,
      "v": 92
    },
    {
      "midi": 66,
      "hit": false,
      "t": 44294.96807291668,
      "d": 188.95310416666325,
      "v": 89
    },
    {
      "midi": 67,
      "hit": false,
      "t": 44483.92117708334,
      "d": 864.8238229166673,
      "v": 98
    },
    {
      "midi": 72,
      "hit": false,
      "t": 44643.80457291667,
      "d": 1388.0785729166673,
      "v": 71
    },
    {
      "midi": 64,
      "hit": false,
      "t": 44643.80457291667,
      "d": 1417.1482812500035,
      "v": 82
    },
    {
      "midi": 67,
      "hit": false,
      "t": 44643.80457291667,
      "d": 1431.6831354166716,
      "v": 76
    },
    {
      "midi": 69,
      "hit": false,
      "t": 45348.74500000001,
      "d": 341.5690729166672,
      "v": 99
    },
    {
      "midi": 67,
      "hit": false,
      "t": 45690.31407291668,
      "d": 167.15082291666477,
      "v": 92
    },
    {
      "midi": 66,
      "hit": false,
      "t": 45857.46489583334,
      "d": 341.5690729166672,
      "v": 88
    },
    {
      "midi": 66,
      "hit": false,
      "t": 46031.88314583334,
      "d": 1395.346000000005,
      "v": 74
    },
    {
      "midi": 74,
      "hit": false,
      "t": 46031.88314583334,
      "d": 1395.346000000005,
      "v": 87
    },
    {
      "midi": 69,
      "hit": false,
      "t": 46031.88314583334,
      "d": 2819.761708333339,
      "v": 81
    },
    {
      "midi": 66,
      "hit": false,
      "t": 46206.30139583334,
      "d": 305.23193750000064,
      "v": 98
    },
    {
      "midi": 64,
      "hit": false,
      "t": 46511.53333333334,
      "d": 109.01140624999971,
      "v": 78
    },
    {
      "midi": 66,
      "hit": false,
      "t": 46620.54473958334,
      "d": 87.20912500000122,
      "v": 83
    },
    {
      "midi": 64,
      "hit": false,
      "t": 46707.75386458334,
      "d": 552.3244583333362,
      "v": 88
    },
    {
      "midi": 62,
      "hit": false,
      "t": 47260.07832291668,
      "d": 174.41825000000244,
      "v": 93
    },
    {
      "midi": 83,
      "hit": false,
      "t": 47427.22914583335,
      "d": 1700.5779374999984,
      "v": 98
    },
    {
      "midi": 71,
      "hit": false,
      "t": 47434.49657291667,
      "d": 2521.7971979166687,
      "v": 87
    },
    {
      "midi": 76,
      "hit": false,
      "t": 47434.49657291667,
      "d": 2543.599479166667,
      "v": 89
    },
    {
      "midi": 64,
      "hit": false,
      "t": 47434.49657291668,
      "d": 341.5690729166672,
      "v": 98
    },
    {
      "midi": 86,
      "hit": false,
      "t": 47507.17084375001,
      "d": 138.08111458333588,
      "v": 90
    },
    {
      "midi": 88,
      "hit": false,
      "t": 47579.845114583346,
      "d": 116.27883333333011,
      "v": 97
    },
    {
      "midi": 93,
      "hit": false,
      "t": 47652.51938541668,
      "d": 1460.7528437500005,
      "v": 96
    },
    {
      "midi": 62,
      "hit": false,
      "t": 47776.06564583335,
      "d": 174.41825000000244,
      "v": 93
    },
    {
      "midi": 86,
      "hit": false,
      "t": 47783.33307291668,
      "d": 1402.6134270833354,
      "v": 89
    },
    {
      "midi": 64,
      "hit": false,
      "t": 47950.48389583335,
      "d": 1722.3802187499969,
      "v": 95
    },
    {
      "midi": 68,
      "hit": false,
      "t": 48822.57514583334,
      "d": 1380.8111458333296,
      "v": 70
    },
    {
      "midi": 64,
      "hit": false,
      "t": 49709.20125000001,
      "d": 174.41825000000244,
      "v": 93
    },
    {
      "midi": 67,
      "hit": false,
      "t": 49709.20125000001,
      "d": 174.41825000000244,
      "v": 99
    },
    {
      "midi": 66,
      "hit": false,
      "t": 49883.619500000015,
      "d": 174.41825000000244,
      "v": 90
    },
    {
      "midi": 69,
      "hit": false,
      "t": 49883.619500000015,
      "d": 174.41825000000244,
      "v": 100
    },
    {
      "midi": 67,
      "hit": false,
      "t": 50058.03775000002,
      "d": 872.0912499999977,
      "v": 95
    },
    {
      "midi": 71,
      "hit": false,
      "t": 50058.03775000002,
      "d": 872.0912499999977,
      "v": 100
    },
    {
      "midi": 69,
      "hit": false,
      "t": 50239.723427083336,
      "d": 1090.114062499997,
      "v": 77
    },
    {
      "midi": 72,
      "hit": false,
      "t": 50239.723427083336,
      "d": 1300.869447916666,
      "v": 71
    },
    {
      "midi": 64,
      "hit": false,
      "t": 50239.723427083336,
      "d": 1402.6134270833209,
      "v": 82
    },
    {
      "midi": 67,
      "hit": false,
      "t": 50239.723427083336,
      "d": 1417.148281249989,
      "v": 70
    },
    {
      "midi": 69,
      "hit": false,
      "t": 50930.129000000015,
      "d": 348.8364999999976,
      "v": 102
    },
    {
      "midi": 72,
      "hit": false,
      "t": 50930.129000000015,
      "d": 348.8364999999976,
      "v": 108
    },
    {
      "midi": 67,
      "hit": false,
      "t": 51278.96550000001,
      "d": 174.41825000000244,
      "v": 95
    },
    {
      "midi": 71,
      "hit": false,
      "t": 51278.96550000001,
      "d": 174.41825000000244,
      "v": 107
    },
    {
      "midi": 66,
      "hit": false,
      "t": 51453.383750000015,
      "d": 1046.5095000000001,
      "v": 81
    },
    {
      "midi": 69,
      "hit": false,
      "t": 51453.383750000015,
      "d": 1046.5095000000001,
      "v": 107
    },
    {
      "midi": 74,
      "hit": false,
      "t": 51620.534572916666,
      "d": 1228.1951770833257,
      "v": 77
    },
    {
      "midi": 66,
      "hit": false,
      "t": 51627.801999999996,
      "d": 1388.07857291666,
      "v": 71
    },
    {
      "midi": 69,
      "hit": false,
      "t": 51635.06942708333,
      "d": 1184.5906145833287,
      "v": 70
    },
    {
      "midi": 71,
      "hit": false,
      "t": 51635.06942708333,
      "d": 1228.195177083333,
      "v": 77
    },
    {
      "midi": 64,
      "hit": false,
      "t": 52499.893250000016,
      "d": 174.41825000000244,
      "v": 92
    },
    {
      "midi": 67,
      "hit": false,
      "t": 52499.893250000016,
      "d": 174.41825000000244,
      "v": 104
    },
    {
      "midi": 66,
      "hit": false,
      "t": 52674.31150000002,
      "d": 174.41825000000244,
      "v": 90
    },
    {
      "midi": 69,
      "hit": false,
      "t": 52674.31150000002,
      "d": 174.41825000000244,
      "v": 104
    },
    {
      "midi": 67,
      "hit": false,
      "t": 52848.72975000002,
      "d": 872.0912499999977,
      "v": 106
    },
    {
      "midi": 71,
      "hit": false,
      "t": 52848.72975000002,
      "d": 872.0912499999977,
      "v": 103
    },
    {
      "midi": 67,
      "hit": false,
      "t": 53030.415427083324,
      "d": 1359.0088645833312,
      "v": 73
    },
    {
      "midi": 64,
      "hit": false,
      "t": 53030.415427083324,
      "d": 1373.5437187499992,
      "v": 81
    },
    {
      "midi": 72,
      "hit": false,
      "t": 53037.682854166655,
      "d": 1315.4043020833342,
      "v": 75
    },
    {
      "midi": 69,
      "hit": false,
      "t": 53720.82100000002,
      "d": 348.8364999999976,
      "v": 101
    },
    {
      "midi": 72,
      "hit": false,
      "t": 53720.82100000002,
      "d": 348.8364999999976,
      "v": 101
    },
    {
      "midi": 67,
      "hit": false,
      "t": 54069.657500000016,
      "d": 174.41825000000244,
      "v": 89
    },
    {
      "midi": 71,
      "hit": false,
      "t": 54069.657500000016,
      "d": 174.41825000000244,
      "v": 101
    },
    {
      "midi": 66,
      "hit": false,
      "t": 54244.07575000002,
      "d": 1097.3814895833348,
      "v": 93
    },
    {
      "midi": 69,
      "hit": false,
      "t": 54244.07575000002,
      "d": 1097.3814895833348,
      "v": 101
    },
    {
      "midi": 74,
      "hit": false,
      "t": 54403.95914583332,
      "d": 1395.3459999999977,
      "v": 82
    },
    {
      "midi": 69,
      "hit": false,
      "t": 54403.95914583332,
      "d": 1417.1482812499962,
      "v": 79
    },
    {
      "midi": 66,
      "hit": false,
      "t": 54403.95914583332,
      "d": 1438.9505624999947,
      "v": 80
    },
    {
      "midi": 64,
      "hit": false,
      "t": 55341.45723958335,
      "d": 232.5576666666675,
      "v": 99
    },
    {
      "midi": 66,
      "hit": false,
      "t": 55574.01490625002,
      "d": 239.8250937499979,
      "v": 99
    },
    {
      "midi": 72,
      "hit": false,
      "t": 55806.57257291665,
      "d": 1380.811145833337,
      "v": 76
    },
    {
      "midi": 64,
      "hit": false,
      "t": 55806.57257291665,
      "d": 1388.0785729166673,
      "v": 86
    },
    {
      "midi": 67,
      "hit": false,
      "t": 55806.57257291665,
      "d": 1395.3459999999977,
      "v": 83
    },
    {
      "midi": 67,
      "hit": false,
      "t": 55813.84000000002,
      "d": 893.8935312500034,
      "v": 99
    },
    {
      "midi": 64,
      "hit": false,
      "t": 56707.73353125002,
      "d": 268.89480208333407,
      "v": 95
    },
    {
      "midi": 60,
      "hit": false,
      "t": 56976.628333333356,
      "d": 239.8250937499979,
      "v": 98
    },
    {
      "midi": 66,
      "hit": false,
      "t": 57194.65114583332,
      "d": 1061.044354166661,
      "v": 81
    },
    {
      "midi": 74,
      "hit": false,
      "t": 57194.65114583332,
      "d": 1191.8580416666591,
      "v": 87
    },
    {
      "midi": 69,
      "hit": false,
      "t": 57194.65114583332,
      "d": 1380.8111458333224,
      "v": 82
    },
    {
      "midi": 69,
      "hit": false,
      "t": 57216.453427083354,
      "d": 915.6958125000019,
      "v": 100
    },
    {
      "midi": 66,
      "hit": false,
      "t": 58132.149239583356,
      "d": 239.8250937499979,
      "v": 98
    },
    {
      "midi": 62,
      "hit": false,
      "t": 58371.97433333335,
      "d": 239.8250937499979,
      "v": 100
    },
    {
      "midi": 66,
      "hit": false,
      "t": 58604.53199999998,
      "d": 1039.2420729166624,
      "v": 77
    },
    {
      "midi": 71,
      "hit": false,
      "t": 58611.79942708331,
      "d": 1140.9860520833317,
      "v": 87
    },
    {
      "midi": 64,
      "hit": false,
      "t": 58611.79942708331,
      "d": 1344.474010416663,
      "v": 78
    },
    {
      "midi": 71,
      "hit": false,
      "t": 58611.79942708335,
      "d": 2267.4372499999954,
      "v": 103
    },
    {
      "midi": 71,
      "hit": false,
      "t": 59992.61057291664,
      "d": 1199.1254687499968,
      "v": 85
    },
    {
      "midi": 63,
      "hit": false,
      "t": 59992.61057291664,
      "d": 1206.3928958333272,
      "v": 84
    },
    {
      "midi": 66,
      "hit": false,
      "t": 59999.87799999997,
      "d": 1206.3928958333272,
      "v": 84
    },
    {
      "midi": 61,
      "hit": false,
      "t": 60871.96925000002,
      "d": 523.2547500000001,
      "v": 127
    },
    {
      "midi": 66,
      "hit": false,
      "t": 60871.96925000002,
      "d": 523.2547500000001,
      "v": 127
    },
    {
      "midi": 69,
      "hit": false,
      "t": 60871.96925000002,
      "d": 523.2547500000001,
      "v": 120
    },
    {
      "midi": 59,
      "hit": false,
      "t": 61395.22400000002,
      "d": 1213.6603229166649,
      "v": 118
    },
    {
      "midi": 64,
      "hit": false,
      "t": 61395.22400000002,
      "d": 1213.6603229166649,
      "v": 127
    },
    {
      "midi": 67,
      "hit": false,
      "t": 61395.22400000002,
      "d": 1220.9277499999953,
      "v": 120
    },
    {
      "midi": 59,
      "hit": false,
      "t": 62616.15175000001,
      "d": 174.41825000000244,
      "v": 106
    },
    {
      "midi": 64,
      "hit": false,
      "t": 62616.15175000001,
      "d": 174.41825000000244,
      "v": 127
    },
    {
      "midi": 61,
      "hit": false,
      "t": 62790.570000000014,
      "d": 1213.6603229166649,
      "v": 127
    },
    {
      "midi": 66,
      "hit": false,
      "t": 62790.570000000014,
      "d": 1213.6603229166649,
      "v": 118
    },
    {
      "midi": 69,
      "hit": false,
      "t": 62790.570000000014,
      "d": 1220.9277499999953,
      "v": 115
    },
    {
      "midi": 59,
      "hit": false,
      "t": 64011.49775000001,
      "d": 174.41825000000244,
      "v": 99
    },
    {
      "midi": 61,
      "hit": false,
      "t": 64011.49775000001,
      "d": 174.41825000000244,
      "v": 110
    },
    {
      "midi": 66,
      "hit": false,
      "t": 64011.49775000001,
      "d": 174.41825000000244,
      "v": 124
    },
    {
      "midi": 62,
      "hit": false,
      "t": 64185.91600000001,
      "d": 348.8364999999976,
      "v": 101
    },
    {
      "midi": 67,
      "hit": false,
      "t": 64185.91600000001,
      "d": 348.8364999999976,
      "v": 107
    },
    {
      "midi": 71,
      "hit": false,
      "t": 64185.91600000001,
      "d": 348.8364999999976,
      "v": 99
    },
    {
      "midi": 61,
      "hit": false,
      "t": 64534.75250000001,
      "d": 174.41825000000244,
      "v": 105
    },
    {
      "midi": 66,
      "hit": false,
      "t": 64534.75250000001,
      "d": 174.41825000000244,
      "v": 99
    },
    {
      "midi": 69,
      "hit": false,
      "t": 64534.75250000001,
      "d": 174.41825000000244,
      "v": 94
    },
    {
      "midi": 62,
      "hit": false,
      "t": 64709.17075000001,
      "d": 1744.1825000000026,
      "v": 103
    },
    {
      "midi": 67,
      "hit": false,
      "t": 64709.17075000001,
      "d": 1744.1825000000026,
      "v": 110
    },
    {
      "midi": 71,
      "hit": false,
      "t": 64709.17075000001,
      "d": 1744.1825000000026,
      "v": 113
    },
    {
      "midi": 61,
      "hit": false,
      "t": 66453.35325000001,
      "d": 523.2547499999928,
      "v": 127
    },
    {
      "midi": 66,
      "hit": false,
      "t": 66453.35325000001,
      "d": 523.2547499999928,
      "v": 127
    },
    {
      "midi": 69,
      "hit": false,
      "t": 66453.35325000001,
      "d": 523.2547499999928,
      "v": 120
    },
    {
      "midi": 59,
      "hit": false,
      "t": 66976.60800000001,
      "d": 1213.6603229166649,
      "v": 118
    },
    {
      "midi": 64,
      "hit": false,
      "t": 66976.60800000001,
      "d": 1213.6603229166649,
      "v": 124
    },
    {
      "midi": 67,
      "hit": false,
      "t": 66976.60800000001,
      "d": 1220.9277500000026,
      "v": 113
    },
    {
      "midi": 59,
      "hit": false,
      "t": 68197.53575000001,
      "d": 174.41825000000244,
      "v": 101
    },
    {
      "midi": 64,
      "hit": false,
      "t": 68197.53575000001,
      "d": 174.41825000000244,
      "v": 93
    },
    {
      "midi": 61,
      "hit": false,
      "t": 68371.95400000001,
      "d": 1213.6603229166649,
      "v": 120
    },
    {
      "midi": 66,
      "hit": false,
      "t": 68371.95400000001,
      "d": 1213.6603229166649,
      "v": 127
    },
    {
      "midi": 69,
      "hit": false,
      "t": 68371.95400000001,
      "d": 1220.9277500000026,
      "v": 120
    },
    {
      "midi": 59,
      "hit": false,
      "t": 69592.88175000002,
      "d": 174.41825000000244,
      "v": 99
    },
    {
      "midi": 61,
      "hit": false,
      "t": 69592.88175000002,
      "d": 174.41825000000244,
      "v": 105
    },
    {
      "midi": 66,
      "hit": false,
      "t": 69592.88175000002,
      "d": 174.41825000000244,
      "v": 96
    },
    {
      "midi": 62,
      "hit": false,
      "t": 69767.30000000002,
      "d": 348.8365000000049,
      "v": 106
    },
    {
      "midi": 67,
      "hit": false,
      "t": 69767.30000000002,
      "d": 348.8365000000049,
      "v": 96
    },
    {
      "midi": 71,
      "hit": false,
      "t": 69767.30000000002,
      "d": 348.8365000000049,
      "v": 110
    },
    {
      "midi": 61,
      "hit": false,
      "t": 70116.13650000002,
      "d": 174.41825000000244,
      "v": 95
    },
    {
      "midi": 66,
      "hit": false,
      "t": 70116.13650000002,
      "d": 174.41825000000244,
      "v": 95
    },
    {
      "midi": 69,
      "hit": false,
      "t": 70116.13650000002,
      "d": 174.41825000000244,
      "v": 97
    },
    {
      "midi": 62,
      "hit": false,
      "t": 70290.55475000002,
      "d": 1744.1824999999953,
      "v": 107
    },
    {
      "midi": 67,
      "hit": false,
      "t": 70290.55475000002,
      "d": 1744.1824999999953,
      "v": 115
    },
    {
      "midi": 71,
      "hit": false,
      "t": 70290.55475000002,
      "d": 1744.1824999999953,
      "v": 110
    },
    {
      "midi": 61,
      "hit": false,
      "t": 72034.73725000002,
      "d": 523.2547500000073,
      "v": 107
    },
    {
      "midi": 66,
      "hit": false,
      "t": 72034.73725000002,
      "d": 523.2547500000073,
      "v": 127
    },
    {
      "midi": 69,
      "hit": false,
      "t": 72034.73725000002,
      "d": 523.2547500000073,
      "v": 107
    },
    {
      "midi": 59,
      "hit": false,
      "t": 72557.99200000003,
      "d": 515.9873229166697,
      "v": 115
    },
    {
      "midi": 67,
      "hit": false,
      "t": 72557.99200000003,
      "d": 523.2547500000073,
      "v": 115
    },
    {
      "midi": 64,
      "hit": false,
      "t": 72557.99200000003,
      "d": 1395.3460000000196,
      "v": 106
    },
    {
      "midi": 59,
      "hit": false,
      "t": 73081.24675000003,
      "d": 515.9873229166697,
      "v": 124
    },
    {
      "midi": 60,
      "hit": false,
      "t": 73081.24675000003,
      "d": 523.2547500000073,
      "v": 115
    },
    {
      "midi": 59,
      "hit": false,
      "t": 73604.50150000004,
      "d": 348.8365000000049,
      "v": 115
    },
    {
      "midi": 61,
      "hit": false,
      "t": 73953.33800000005,
      "d": 1213.6603229166649,
      "v": 105
    },
    {
      "midi": 66,
      "hit": false,
      "t": 73953.33800000005,
      "d": 1213.6603229166649,
      "v": 124
    },
    {
      "midi": 69,
      "hit": false,
      "t": 73953.33800000005,
      "d": 1220.9277500000026,
      "v": 115
    },
    {
      "midi": 59,
      "hit": false,
      "t": 75174.26575000005,
      "d": 174.41825000000244,
      "v": 101
    },
    {
      "midi": 61,
      "hit": false,
      "t": 75174.26575000005,
      "d": 174.41825000000244,
      "v": 105
    },
    {
      "midi": 66,
      "hit": false,
      "t": 75174.26575000005,
      "d": 174.41825000000244,
      "v": 113
    },
    {
      "midi": 62,
      "hit": false,
      "t": 75348.68400000005,
      "d": 348.8365000000049,
      "v": 110
    },
    {
      "midi": 67,
      "hit": false,
      "t": 75348.68400000005,
      "d": 348.8365000000049,
      "v": 105
    },
    {
      "midi": 71,
      "hit": false,
      "t": 75348.68400000005,
      "d": 348.8365000000049,
      "v": 115
    },
    {
      "midi": 61,
      "hit": false,
      "t": 75697.52050000006,
      "d": 174.41825000000244,
      "v": 91
    },
    {
      "midi": 66,
      "hit": false,
      "t": 75697.52050000006,
      "d": 174.41825000000244,
      "v": 87
    },
    {
      "midi": 69,
      "hit": false,
      "t": 75697.52050000006,
      "d": 174.41825000000244,
      "v": 96
    },
    {
      "midi": 62,
      "hit": false,
      "t": 75871.93875000006,
      "d": 1736.9150729166722,
      "v": 113
    },
    {
      "midi": 67,
      "hit": false,
      "t": 75871.93875000006,
      "d": 1744.18250000001,
      "v": 105
    },
    {
      "midi": 71,
      "hit": false,
      "t": 75871.93875000006,
      "d": 1744.18250000001,
      "v": 113
    },
    {
      "midi": 66,
      "hit": false,
      "t": 77616.12125000007,
      "d": 515.9873229166697,
      "v": 115
    },
    {
      "midi": 62,
      "hit": false,
      "t": 77616.12125000007,
      "d": 523.2547500000073,
      "v": 120
    },
    {
      "midi": 69,
      "hit": false,
      "t": 77616.12125000007,
      "d": 523.2547500000073,
      "v": 113
    },
    {
      "midi": 64,
      "hit": false,
      "t": 78139.37600000008,
      "d": 2790.6919999999955,
      "v": 127
    },
    {
      "midi": 66,
      "hit": false,
      "t": 78139.37600000008,
      "d": 5581.383999999991,
      "v": 127
    },
    {
      "midi": 71,
      "hit": false,
      "t": 78139.37600000008,
      "d": 5581.383999999991,
      "v": 127
    },
    {
      "midi": 63,
      "hit": false,
      "t": 80930.06800000007,
      "d": 2790.6919999999955,
      "v": 127
    },
    {
      "midi": 64,
      "hit": false,
      "t": 94360.27325000007,
      "d": 167.15082291666477,
      "v": 97
    },
    {
      "midi": 66,
      "hit": false,
      "t": 94527.42407291674,
      "d": 188.95310416666325,
      "v": 88
    },
    {
      "midi": 67,
      "hit": false,
      "t": 94716.3771770834,
      "d": 850.2889687499992,
      "v": 99
    },
    {
      "midi": 69,
      "hit": false,
      "t": 94890.7954270833,
      "d": 1140.9860520833317,
      "v": 79
    },
    {
      "midi": 72,
      "hit": false,
      "t": 94890.7954270833,
      "d": 1249.9974583333387,
      "v": 77
    },
    {
      "midi": 67,
      "hit": false,
      "t": 94890.7954270833,
      "d": 1300.8694479166734,
      "v": 74
    },
    {
      "midi": 64,
      "hit": false,
      "t": 94890.7954270833,
      "d": 1380.8111458333442,
      "v": 78
    },
    {
      "midi": 69,
      "hit": false,
      "t": 95566.6661458334,
      "d": 363.3713541666657,
      "v": 110
    },
    {
      "midi": 67,
      "hit": false,
      "t": 95930.03750000006,
      "d": 181.68567708334012,
      "v": 95
    },
    {
      "midi": 66,
      "hit": false,
      "t": 96111.7231770834,
      "d": 1053.7769270833378,
      "v": 115
    },
    {
      "midi": 74,
      "hit": false,
      "t": 96264.3391458333,
      "d": 1380.8111458333442,
      "v": 77
    },
    {
      "midi": 69,
      "hit": false,
      "t": 96271.60657291664,
      "d": 1431.6831354166789,
      "v": 74
    },
    {
      "midi": 71,
      "hit": false,
      "t": 96271.60657291664,
      "d": 1446.2179895833397,
      "v": 86
    },
    {
      "midi": 66,
      "hit": false,
      "t": 96278.87399999998,
      "d": 1409.8808541666804,
      "v": 79
    },
    {
      "midi": 64,
      "hit": false,
      "t": 97165.50010416674,
      "d": 167.15082291666477,
      "v": 115
    },
    {
      "midi": 66,
      "hit": false,
      "t": 97332.6509270834,
      "d": 181.68567708334012,
      "v": 99
    },
    {
      "midi": 67,
      "hit": false,
      "t": 97514.33660416675,
      "d": 850.2889687499992,
      "v": 105
    },
    {
      "midi": 72,
      "hit": false,
      "t": 97666.95257291665,
      "d": 1417.148281250018,
      "v": 76
    },
    {
      "midi": 64,
      "hit": false,
      "t": 97674.21999999999,
      "d": 1431.6831354166789,
      "v": 87
    },
    {
      "midi": 67,
      "hit": false,
      "t": 97681.48742708332,
      "d": 1213.6603229166649,
      "v": 78
    },
    {
      "midi": 69,
      "hit": false,
      "t": 98364.62557291675,
      "d": 348.8365000000049,
      "v": 109
    },
    {
      "midi": 67,
      "hit": false,
      "t": 98713.46207291675,
      "d": 188.95310416666325,
      "v": 105
    },
    {
      "midi": 66,
      "hit": false,
      "t": 98902.41517708341,
      "d": 1024.7072187500016,
      "v": 112
    },
    {
      "midi": 66,
      "hit": false,
      "t": 99076.83342708333,
      "d": 1286.334593749998,
      "v": 108
    },
    {
      "midi": 69,
      "hit": false,
      "t": 99076.83342708333,
      "d": 1308.1368749999965,
      "v": 84
    },
    {
      "midi": 74,
      "hit": false,
      "t": 99084.10085416667,
      "d": 1337.2065833333327,
      "v": 86
    },
    {
      "midi": 64,
      "hit": false,
      "t": 99927.12239583342,
      "d": 174.41825000000244,
      "v": 105
    },
    {
      "midi": 66,
      "hit": false,
      "t": 100101.54064583342,
      "d": 188.95310416666325,
      "v": 109
    },
    {
      "midi": 67,
      "hit": false,
      "t": 100290.49375000008,
      "d": 690.4055729166721,
      "v": 97
    },
    {
      "midi": 72,
      "hit": false,
      "t": 100457.64457291667,
      "d": 1388.0785729166673,
      "v": 71
    },
    {
      "midi": 64,
      "hit": false,
      "t": 100457.64457291667,
      "d": 1417.1482812500035,
      "v": 82
    },
    {
      "midi": 67,
      "hit": false,
      "t": 100457.64457291667,
      "d": 1431.6831354166643,
      "v": 76
    },
    {
      "midi": 69,
      "hit": false,
      "t": 100980.89932291675,
      "d": 356.103927083328,
      "v": 101
    },
    {
      "midi": 67,
      "hit": false,
      "t": 101337.00325000008,
      "d": 334.30164583332953,
      "v": 110
    },
    {
      "midi": 66,
      "hit": false,
      "t": 101671.30489583341,
      "d": 697.6729999999952,
      "v": 112
    },
    {
      "midi": 66,
      "hit": false,
      "t": 101845.72314583334,
      "d": 1395.3459999999905,
      "v": 74
    },
    {
      "midi": 74,
      "hit": false,
      "t": 101845.72314583334,
      "d": 1395.3459999999905,
      "v": 87
    },
    {
      "midi": 69,
      "hit": false,
      "t": 101845.72314583334,
      "d": 2819.7617083333316,
      "v": 81
    },
    {
      "midi": 64,
      "hit": false,
      "t": 102368.9778958334,
      "d": 370.6387812500034,
      "v": 103
    },
    {
      "midi": 62,
      "hit": false,
      "t": 102739.61667708341,
      "d": 508.719895833332,
      "v": 96
    },
    {
      "midi": 83,
      "hit": false,
      "t": 103241.06914583335,
      "d": 1700.5779374999838,
      "v": 98
    },
    {
      "midi": 71,
      "hit": false,
      "t": 103248.33657291667,
      "d": 2521.797197916676,
      "v": 87
    },
    {
      "midi": 76,
      "hit": false,
      "t": 103248.33657291667,
      "d": 2543.5994791666744,
      "v": 89
    },
    {
      "midi": 64,
      "hit": false,
      "t": 103248.33657291674,
      "d": 356.103927083328,
      "v": 113
    },
    {
      "midi": 86,
      "hit": false,
      "t": 103321.01084375002,
      "d": 138.0811145833286,
      "v": 90
    },
    {
      "midi": 88,
      "hit": false,
      "t": 103393.68511458335,
      "d": 116.27883333333011,
      "v": 97
    },
    {
      "midi": 93,
      "hit": false,
      "t": 103466.35938541668,
      "d": 1460.752843749986,
      "v": 96
    },
    {
      "midi": 86,
      "hit": false,
      "t": 103597.17307291667,
      "d": 1402.6134270833281,
      "v": 89
    },
    {
      "midi": 62,
      "hit": false,
      "t": 103604.44050000007,
      "d": 188.95310416666325,
      "v": 109
    },
    {
      "midi": 64,
      "hit": false,
      "t": 103793.39360416673,
      "d": 1722.3802187499969,
      "v": 115
    },
    {
      "midi": 68,
      "hit": false,
      "t": 104636.41514583334,
      "d": 1380.8111458333442,
      "v": 70
    },
    {
      "midi": 64,
      "hit": false,
      "t": 105523.04125000007,
      "d": 174.41825000000244,
      "v": 113
    },
    {
      "midi": 67,
      "hit": false,
      "t": 105523.04125000007,
      "d": 174.41825000000244,
      "v": 106
    },
    {
      "midi": 66,
      "hit": false,
      "t": 105697.45950000007,
      "d": 174.41825000000244,
      "v": 110
    },
    {
      "midi": 69,
      "hit": false,
      "t": 105697.45950000007,
      "d": 174.41825000000244,
      "v": 105
    },
    {
      "midi": 67,
      "hit": false,
      "t": 105871.87775000007,
      "d": 872.0912499999977,
      "v": 115
    },
    {
      "midi": 71,
      "hit": false,
      "t": 105871.87775000007,
      "d": 872.0912499999977,
      "v": 106
    },
    {
      "midi": 69,
      "hit": false,
      "t": 106053.56342708335,
      "d": 1090.114062499997,
      "v": 77
    },
    {
      "midi": 67,
      "hit": false,
      "t": 106053.56342708335,
      "d": 1155.5209062499925,
      "v": 70
    },
    {
      "midi": 72,
      "hit": false,
      "t": 106053.56342708335,
      "d": 1300.8694479166588,
      "v": 71
    },
    {
      "midi": 64,
      "hit": false,
      "t": 106053.56342708335,
      "d": 1402.6134270833281,
      "v": 82
    },
    {
      "midi": 69,
      "hit": false,
      "t": 106743.96900000007,
      "d": 348.8365000000049,
      "v": 115
    },
    {
      "midi": 72,
      "hit": false,
      "t": 106743.96900000007,
      "d": 348.8365000000049,
      "v": 108
    },
    {
      "midi": 67,
      "hit": false,
      "t": 107092.80550000007,
      "d": 174.41825000000244,
      "v": 95
    },
    {
      "midi": 71,
      "hit": false,
      "t": 107092.80550000007,
      "d": 174.41825000000244,
      "v": 112
    },
    {
      "midi": 66,
      "hit": false,
      "t": 107267.22375000008,
      "d": 1046.5095000000001,
      "v": 114
    },
    {
      "midi": 69,
      "hit": false,
      "t": 107267.22375000008,
      "d": 1046.5095000000001,
      "v": 112
    },
    {
      "midi": 74,
      "hit": false,
      "t": 107434.37457291668,
      "d": 1228.1951770833402,
      "v": 77
    },
    {
      "midi": 69,
      "hit": false,
      "t": 107448.90942708334,
      "d": 1184.5906145833433,
      "v": 70
    },
    {
      "midi": 64,
      "hit": false,
      "t": 108313.73325000008,
      "d": 174.41825000000244,
      "v": 108
    },
    {
      "midi": 67,
      "hit": false,
      "t": 108313.73325000008,
      "d": 174.41825000000244,
      "v": 105
    },
    {
      "midi": 66,
      "hit": false,
      "t": 108488.15150000008,
      "d": 174.41825000000244,
      "v": 97
    },
    {
      "midi": 69,
      "hit": false,
      "t": 108488.15150000008,
      "d": 174.41825000000244,
      "v": 105
    },
    {
      "midi": 67,
      "hit": false,
      "t": 108662.56975000008,
      "d": 872.0912499999977,
      "v": 106
    },
    {
      "midi": 71,
      "hit": false,
      "t": 108662.56975000008,
      "d": 872.0912499999977,
      "v": 106
    },
    {
      "midi": 67,
      "hit": false,
      "t": 108844.25542708336,
      "d": 1359.0088645833457,
      "v": 73
    },
    {
      "midi": 64,
      "hit": false,
      "t": 108844.25542708336,
      "d": 1373.5437187500065,
      "v": 81
    },
    {
      "midi": 72,
      "hit": false,
      "t": 108851.5228541667,
      "d": 1315.4043020833342,
      "v": 75
    },
    {
      "midi": 69,
      "hit": false,
      "t": 109534.66100000008,
      "d": 348.8365000000049,
      "v": 111
    },
    {
      "midi": 72,
      "hit": false,
      "t": 109534.66100000008,
      "d": 348.8365000000049,
      "v": 103
    },
    {
      "midi": 67,
      "hit": false,
      "t": 109883.49750000008,
      "d": 174.41825000000244,
      "v": 106
    },
    {
      "midi": 71,
      "hit": false,
      "t": 109883.49750000008,
      "d": 174.41825000000244,
      "v": 106
    },
    {
      "midi": 66,
      "hit": false,
      "t": 110057.91575000009,
      "d": 1053.7769270833378,
      "v": 113
    },
    {
      "midi": 69,
      "hit": false,
      "t": 110057.91575000009,
      "d": 1053.7769270833378,
      "v": 106
    },
    {
      "midi": 74,
      "hit": false,
      "t": 110217.79914583337,
      "d": 1395.346000000005,
      "v": 82
    },
    {
      "midi": 66,
      "hit": false,
      "t": 110217.79914583337,
      "d": 1438.9505625000165,
      "v": 80
    },
    {
      "midi": 64,
      "hit": false,
      "t": 111118.96010416676,
      "d": 261.6273749999964,
      "v": 103
    },
    {
      "midi": 66,
      "hit": false,
      "t": 111380.58747916676,
      "d": 254.35994791667326,
      "v": 110
    },
    {
      "midi": 72,
      "hit": false,
      "t": 111620.41257291671,
      "d": 1380.8111458333442,
      "v": 76
    },
    {
      "midi": 64,
      "hit": false,
      "t": 111620.41257291671,
      "d": 1388.0785729166819,
      "v": 86
    },
    {
      "midi": 67,
      "hit": false,
      "t": 111620.41257291671,
      "d": 1395.3460000000196,
      "v": 83
    },
    {
      "midi": 67,
      "hit": false,
      "t": 111634.94742708343,
      "d": 850.2889687499992,
      "v": 106
    },
    {
      "midi": 64,
      "hit": false,
      "t": 112485.23639583343,
      "d": 283.4296562499949,
      "v": 103
    },
    {
      "midi": 60,
      "hit": false,
      "t": 112768.66605208343,
      "d": 276.16222916667175,
      "v": 110
    },
    {
      "midi": 66,
      "hit": false,
      "t": 113008.4911458334,
      "d": 1061.0443541666755,
      "v": 81
    },
    {
      "midi": 74,
      "hit": false,
      "t": 113008.4911458334,
      "d": 1191.858041666681,
      "v": 87
    },
    {
      "midi": 69,
      "hit": false,
      "t": 113008.4911458334,
      "d": 1380.8111458333442,
      "v": 82
    },
    {
      "midi": 69,
      "hit": false,
      "t": 113044.8282812501,
      "d": 857.5563958333369,
      "v": 113
    },
    {
      "midi": 66,
      "hit": false,
      "t": 113902.38467708344,
      "d": 276.16222916667175,
      "v": 118
    },
    {
      "midi": 62,
      "hit": false,
      "t": 114178.5469062501,
      "d": 283.4296562499949,
      "v": 97
    },
    {
      "midi": 71,
      "hit": false,
      "t": 114461.9765625001,
      "d": 2223.8326875000057,
      "v": 127
    },
    {
      "midi": 61,
      "hit": false,
      "t": 116685.80925000011,
      "d": 523.2547499999928,
      "v": 127
    },
    {
      "midi": 66,
      "hit": false,
      "t": 116685.80925000011,
      "d": 523.2547499999928,
      "v": 127
    },
    {
      "midi": 69,
      "hit": false,
      "t": 116685.80925000011,
      "d": 523.2547499999928,
      "v": 112
    },
    {
      "midi": 59,
      "hit": false,
      "t": 117209.0640000001,
      "d": 515.9873229166697,
      "v": 118
    },
    {
      "midi": 67,
      "hit": false,
      "t": 117209.0640000001,
      "d": 523.2547500000073,
      "v": 115
    },
    {
      "midi": 64,
      "hit": false,
      "t": 117209.0640000001,
      "d": 1395.3460000000196,
      "v": 127
    },
    {
      "midi": 59,
      "hit": false,
      "t": 117732.31875000011,
      "d": 515.9873229166697,
      "v": 118
    },
    {
      "midi": 60,
      "hit": false,
      "t": 117732.31875000011,
      "d": 523.2547500000073,
      "v": 118
    },
    {
      "midi": 59,
      "hit": false,
      "t": 118255.57350000012,
      "d": 348.8365000000049,
      "v": 118
    },
    {
      "midi": 61,
      "hit": false,
      "t": 118604.41000000012,
      "d": 1213.6603229166649,
      "v": 127
    },
    {
      "midi": 66,
      "hit": false,
      "t": 118604.41000000012,
      "d": 1213.6603229166649,
      "v": 118
    },
    {
      "midi": 69,
      "hit": false,
      "t": 118604.41000000012,
      "d": 1220.9277500000026,
      "v": 110
    },
    {
      "midi": 59,
      "hit": false,
      "t": 119825.33775000012,
      "d": 174.41825000000244,
      "v": 99
    },
    {
      "midi": 61,
      "hit": false,
      "t": 119825.33775000012,
      "d": 174.41825000000244,
      "v": 110
    },
    {
      "midi": 66,
      "hit": false,
      "t": 119825.33775000012,
      "d": 174.41825000000244,
      "v": 124
    },
    {
      "midi": 62,
      "hit": false,
      "t": 119999.75600000012,
      "d": 348.8365000000049,
      "v": 101
    },
    {
      "midi": 67,
      "hit": false,
      "t": 119999.75600000012,
      "d": 348.8365000000049,
      "v": 107
    },
    {
      "midi": 71,
      "hit": false,
      "t": 119999.75600000012,
      "d": 348.8365000000049,
      "v": 99
    },
    {
      "midi": 61,
      "hit": false,
      "t": 120348.59250000013,
      "d": 174.41825000000244,
      "v": 105
    },
    {
      "midi": 66,
      "hit": false,
      "t": 120348.59250000013,
      "d": 174.41825000000244,
      "v": 99
    },
    {
      "midi": 69,
      "hit": false,
      "t": 120348.59250000013,
      "d": 174.41825000000244,
      "v": 94
    },
    {
      "midi": 62,
      "hit": false,
      "t": 120523.01075000013,
      "d": 1744.1824999999953,
      "v": 103
    },
    {
      "midi": 67,
      "hit": false,
      "t": 120523.01075000013,
      "d": 1744.1824999999953,
      "v": 110
    },
    {
      "midi": 71,
      "hit": false,
      "t": 120523.01075000013,
      "d": 1744.1824999999953,
      "v": 113
    },
    {
      "midi": 61,
      "hit": false,
      "t": 122267.19325000013,
      "d": 523.2547499999928,
      "v": 127
    },
    {
      "midi": 66,
      "hit": false,
      "t": 122267.19325000013,
      "d": 523.2547499999928,
      "v": 127
    },
    {
      "midi": 69,
      "hit": false,
      "t": 122267.19325000013,
      "d": 523.2547499999928,
      "v": 120
    },
    {
      "midi": 59,
      "hit": false,
      "t": 122790.44800000012,
      "d": 1213.6603229166649,
      "v": 118
    },
    {
      "midi": 64,
      "hit": false,
      "t": 122790.44800000012,
      "d": 1213.6603229166649,
      "v": 124
    },
    {
      "midi": 67,
      "hit": false,
      "t": 122790.44800000012,
      "d": 1220.9277500000026,
      "v": 113
    },
    {
      "midi": 59,
      "hit": false,
      "t": 124011.37575000012,
      "d": 174.41825000000244,
      "v": 101
    },
    {
      "midi": 64,
      "hit": false,
      "t": 124011.37575000012,
      "d": 174.41825000000244,
      "v": 93
    },
    {
      "midi": 61,
      "hit": false,
      "t": 124185.79400000013,
      "d": 1213.6603229166649,
      "v": 120
    },
    {
      "midi": 66,
      "hit": false,
      "t": 124185.79400000013,
      "d": 1213.6603229166649,
      "v": 127
    },
    {
      "midi": 69,
      "hit": false,
      "t": 124185.79400000013,
      "d": 1220.9277500000026,
      "v": 110
    },
    {
      "midi": 59,
      "hit": false,
      "t": 125406.72175000013,
      "d": 174.41825000000244,
      "v": 99
    },
    {
      "midi": 61,
      "hit": false,
      "t": 125406.72175000013,
      "d": 174.41825000000244,
      "v": 105
    },
    {
      "midi": 66,
      "hit": false,
      "t": 125406.72175000013,
      "d": 174.41825000000244,
      "v": 96
    },
    {
      "midi": 62,
      "hit": false,
      "t": 125581.14000000013,
      "d": 348.8365000000049,
      "v": 106
    },
    {
      "midi": 67,
      "hit": false,
      "t": 125581.14000000013,
      "d": 348.8365000000049,
      "v": 96
    },
    {
      "midi": 71,
      "hit": false,
      "t": 125581.14000000013,
      "d": 348.8365000000049,
      "v": 110
    },
    {
      "midi": 61,
      "hit": false,
      "t": 125929.97650000014,
      "d": 174.41825000000244,
      "v": 95
    },
    {
      "midi": 66,
      "hit": false,
      "t": 125929.97650000014,
      "d": 174.41825000000244,
      "v": 95
    },
    {
      "midi": 69,
      "hit": false,
      "t": 125929.97650000014,
      "d": 174.41825000000244,
      "v": 97
    },
    {
      "midi": 62,
      "hit": false,
      "t": 126104.39475000014,
      "d": 1744.1824999999953,
      "v": 107
    },
    {
      "midi": 67,
      "hit": false,
      "t": 126104.39475000014,
      "d": 1744.1824999999953,
      "v": 115
    },
    {
      "midi": 71,
      "hit": false,
      "t": 126104.39475000014,
      "d": 1744.1824999999953,
      "v": 110
    },
    {
      "midi": 61,
      "hit": false,
      "t": 127848.57725000013,
      "d": 523.2547500000073,
      "v": 107
    },
    {
      "midi": 66,
      "hit": false,
      "t": 127848.57725000013,
      "d": 523.2547500000073,
      "v": 127
    },
    {
      "midi": 69,
      "hit": false,
      "t": 127848.57725000013,
      "d": 523.2547500000073,
      "v": 107
    },
    {
      "midi": 59,
      "hit": false,
      "t": 128371.83200000014,
      "d": 1213.6603229166649,
      "v": 115
    },
    {
      "midi": 67,
      "hit": false,
      "t": 128371.83200000014,
      "d": 1220.9277500000026,
      "v": 115
    },
    {
      "midi": 64,
      "hit": false,
      "t": 128371.83200000014,
      "d": 1395.346000000005,
      "v": 106
    },
    {
      "midi": 59,
      "hit": false,
      "t": 129592.75975000014,
      "d": 174.41825000000244,
      "v": 113
    },
    {
      "midi": 66,
      "hit": false,
      "t": 129767.17800000015,
      "d": 515.9873229166697,
      "v": 124
    },
    {
      "midi": 61,
      "hit": false,
      "t": 129767.17800000015,
      "d": 523.2547500000073,
      "v": 105
    },
    {
      "midi": 69,
      "hit": false,
      "t": 129767.17800000015,
      "d": 523.2547500000073,
      "v": 115
    },
    {
      "midi": 66,
      "hit": false,
      "t": 130290.43275000015,
      "d": 690.4055729166721,
      "v": 110
    },
    {
      "midi": 57,
      "hit": false,
      "t": 130290.43275000015,
      "d": 697.6730000000098,
      "v": 105
    },
    {
      "midi": 62,
      "hit": false,
      "t": 130290.43275000015,
      "d": 697.6730000000098,
      "v": 124
    },
    {
      "midi": 59,
      "hit": false,
      "t": 130988.10575000016,
      "d": 174.4182499999879,
      "v": 101
    },
    {
      "midi": 61,
      "hit": false,
      "t": 130988.10575000016,
      "d": 174.4182499999879,
      "v": 105
    },
    {
      "midi": 66,
      "hit": false,
      "t": 130988.10575000016,
      "d": 174.4182499999879,
      "v": 113
    },
    {
      "midi": 62,
      "hit": false,
      "t": 131162.52400000015,
      "d": 348.8365000000049,
      "v": 110
    },
    {
      "midi": 67,
      "hit": false,
      "t": 131162.52400000015,
      "d": 348.8365000000049,
      "v": 105
    },
    {
      "midi": 71,
      "hit": false,
      "t": 131162.52400000015,
      "d": 348.8365000000049,
      "v": 115
    },
    {
      "midi": 61,
      "hit": false,
      "t": 131511.36050000016,
      "d": 174.4182499999879,
      "v": 91
    },
    {
      "midi": 66,
      "hit": false,
      "t": 131511.36050000016,
      "d": 174.4182499999879,
      "v": 87
    },
    {
      "midi": 69,
      "hit": false,
      "t": 131511.36050000016,
      "d": 174.4182499999879,
      "v": 96
    },
    {
      "midi": 62,
      "hit": false,
      "t": 131685.77875000014,
      "d": 1736.9150729166577,
      "v": 113
    },
    {
      "midi": 67,
      "hit": false,
      "t": 131685.77875000014,
      "d": 1744.1824999999953,
      "v": 105
    },
    {
      "midi": 71,
      "hit": false,
      "t": 131685.77875000014,
      "d": 1744.1824999999953,
      "v": 113
    },
    {
      "midi": 66,
      "hit": false,
      "t": 133429.96125000014,
      "d": 515.9873229166551,
      "v": 115
    },
    {
      "midi": 62,
      "hit": false,
      "t": 133429.96125000014,
      "d": 523.2547499999928,
      "v": 120
    },
    {
      "midi": 69,
      "hit": false,
      "t": 133429.96125000014,
      "d": 523.2547499999928,
      "v": 113
    },
    {
      "midi": 64,
      "hit": false,
      "t": 133953.21600000013,
      "d": 2790.69200000001,
      "v": 127
    },
    {
      "midi": 66,
      "hit": false,
      "t": 133953.21600000013,
      "d": 5232.547500000015,
      "v": 127
    },
    {
      "midi": 71,
      "hit": false,
      "t": 133953.21600000013,
      "d": 5232.547500000015,
      "v": 127
    },
    {
      "midi": 63,
      "hit": false,
      "t": 136743.90800000014,
      "d": 2441.855500000005,
      "v": 127
    },
    {
      "midi": 52,
      "hit": false,
      "t": 139185.76350000015,
      "d": 174.4182499999879,
      "v": 113
    },
    {
      "midi": 64,
      "hit": false,
      "t": 139185.76350000015,
      "d": 174.4182499999879,
      "v": 115
    },
    {
      "midi": 54,
      "hit": false,
      "t": 139360.18175000013,
      "d": 174.4182499999879,
      "v": 113
    },
    {
      "midi": 66,
      "hit": false,
      "t": 139360.18175000013,
      "d": 174.4182499999879,
      "v": 113
    },
    {
      "midi": 55,
      "hit": false,
      "t": 139534.60000000012,
      "d": 1046.5095000000147,
      "v": 112
    },
    {
      "midi": 67,
      "hit": false,
      "t": 139534.60000000012,
      "d": 1046.5095000000147,
      "v": 113
    },
    {
      "midi": 52,
      "hit": false,
      "t": 140581.10950000014,
      "d": 174.4182499999879,
      "v": 113
    },
    {
      "midi": 64,
      "hit": false,
      "t": 140581.10950000014,
      "d": 174.4182499999879,
      "v": 113
    },
    {
      "midi": 54,
      "hit": false,
      "t": 140755.52775000012,
      "d": 174.4182499999879,
      "v": 114
    },
    {
      "midi": 66,
      "hit": false,
      "t": 140755.52775000012,
      "d": 174.4182499999879,
      "v": 113
    },
    {
      "midi": 55,
      "hit": false,
      "t": 140929.9460000001,
      "d": 1046.5094999999856,
      "v": 115
    },
    {
      "midi": 67,
      "hit": false,
      "t": 140929.9460000001,
      "d": 1046.5094999999856,
      "v": 113
    },
    {
      "midi": 52,
      "hit": false,
      "t": 141976.4555000001,
      "d": 174.4182499999879,
      "v": 114
    },
    {
      "midi": 64,
      "hit": false,
      "t": 141976.4555000001,
      "d": 174.4182499999879,
      "v": 114
    },
    {
      "midi": 54,
      "hit": false,
      "t": 142150.8737500001,
      "d": 174.4182499999879,
      "v": 114
    },
    {
      "midi": 66,
      "hit": false,
      "t": 142150.8737500001,
      "d": 174.4182499999879,
      "v": 114
    },
    {
      "midi": 55,
      "hit": false,
      "t": 142325.29200000007,
      "d": 690.4055729166721,
      "v": 114
    },
    {
      "midi": 67,
      "hit": false,
      "t": 142325.29200000007,
      "d": 690.4055729166721,
      "v": 114
    },
    {
      "midi": 55,
      "hit": false,
      "t": 143022.96500000008,
      "d": 515.9873229166551,
      "v": 114
    },
    {
      "midi": 67,
      "hit": false,
      "t": 143022.96500000008,
      "d": 515.9873229166551,
      "v": 114
    },
    {
      "midi": 55,
      "hit": false,
      "t": 143546.21975000008,
      "d": 348.8365000000049,
      "v": 114
    },
    {
      "midi": 67,
      "hit": false,
      "t": 143546.21975000008,
      "d": 348.8365000000049,
      "v": 114
    },
    {
      "midi": 57,
      "hit": false,
      "t": 143895.05625000008,
      "d": 174.4182499999879,
      "v": 113
    },
    {
      "midi": 69,
      "hit": false,
      "t": 143895.05625000008,
      "d": 174.4182499999879,
      "v": 114
    },
    {
      "midi": 54,
      "hit": false,
      "t": 144069.47450000007,
      "d": 697.6730000000098,
      "v": 113
    },
    {
      "midi": 66,
      "hit": false,
      "t": 144069.47450000007,
      "d": 697.6730000000098,
      "v": 114
    },
    {
      "midi": 50,
      "hit": false,
      "t": 144767.14750000008,
      "d": 174.4182499999879,
      "v": 117
    },
    {
      "midi": 62,
      "hit": false,
      "t": 144767.14750000008,
      "d": 174.4182499999879,
      "v": 117
    },
    {
      "midi": 52,
      "hit": false,
      "t": 144941.56575000007,
      "d": 174.4182499999879,
      "v": 117
    },
    {
      "midi": 64,
      "hit": false,
      "t": 144941.56575000007,
      "d": 174.4182499999879,
      "v": 117
    },
    {
      "midi": 54,
      "hit": false,
      "t": 145115.98400000005,
      "d": 690.4055729166721,
      "v": 117
    },
    {
      "midi": 66,
      "hit": false,
      "t": 145115.98400000005,
      "d": 690.4055729166721,
      "v": 117
    },
    {
      "midi": 54,
      "hit": false,
      "t": 145813.65700000006,
      "d": 515.9873229166551,
      "v": 116
    },
    {
      "midi": 66,
      "hit": false,
      "t": 145813.65700000006,
      "d": 515.9873229166551,
      "v": 117
    },
    {
      "midi": 54,
      "hit": false,
      "t": 146336.91175000006,
      "d": 348.8365000000049,
      "v": 110
    },
    {
      "midi": 66,
      "hit": false,
      "t": 146336.91175000006,
      "d": 348.8365000000049,
      "v": 117
    },
    {
      "midi": 55,
      "hit": false,
      "t": 146685.74825000006,
      "d": 174.4182499999879,
      "v": 111
    },
    {
      "midi": 67,
      "hit": false,
      "t": 146685.74825000006,
      "d": 174.4182499999879,
      "v": 117
    },
    {
      "midi": 52,
      "hit": false,
      "t": 146860.16650000005,
      "d": 697.6730000000098,
      "v": 111
    },
    {
      "midi": 64,
      "hit": false,
      "t": 146860.16650000005,
      "d": 697.6730000000098,
      "v": 117
    },
    {
      "midi": 48,
      "hit": false,
      "t": 147557.83950000006,
      "d": 174.4182499999879,
      "v": 115
    },
    {
      "midi": 60,
      "hit": false,
      "t": 147557.83950000006,
      "d": 174.4182499999879,
      "v": 115
    },
    {
      "midi": 50,
      "hit": false,
      "t": 147732.25775000005,
      "d": 174.4182499999879,
      "v": 116
    },
    {
      "midi": 62,
      "hit": false,
      "t": 147732.25775000005,
      "d": 174.4182499999879,
      "v": 116
    },
    {
      "midi": 52,
      "hit": false,
      "t": 147906.67600000004,
      "d": 1046.5094999999856,
      "v": 116
    },
    {
      "midi": 64,
      "hit": false,
      "t": 147906.67600000004,
      "d": 1046.5094999999856,
      "v": 116
    },
    {
      "midi": 48,
      "hit": false,
      "t": 148953.18550000002,
      "d": 174.4182499999879,
      "v": 115
    },
    {
      "midi": 60,
      "hit": false,
      "t": 148953.18550000002,
      "d": 174.4182499999879,
      "v": 115
    },
    {
      "midi": 50,
      "hit": false,
      "t": 149127.60375,
      "d": 174.4182499999879,
      "v": 115
    },
    {
      "midi": 62,
      "hit": false,
      "t": 149127.60375,
      "d": 174.4182499999879,
      "v": 115
    },
    {
      "midi": 52,
      "hit": false,
      "t": 149302.022,
      "d": 690.4055729166721,
      "v": 115
    },
    {
      "midi": 64,
      "hit": false,
      "t": 149302.022,
      "d": 690.4055729166721,
      "v": 115
    },
    {
      "midi": 52,
      "hit": false,
      "t": 149999.695,
      "d": 515.9873229166551,
      "v": 115
    },
    {
      "midi": 64,
      "hit": false,
      "t": 149999.695,
      "d": 515.9873229166551,
      "v": 115
    },
    {
      "midi": 52,
      "hit": false,
      "t": 150522.94975,
      "d": 348.8365000000049,
      "v": 123
    },
    {
      "midi": 64,
      "hit": false,
      "t": 150522.94975,
      "d": 348.8365000000049,
      "v": 123
    },
    {
      "midi": 54,
      "hit": false,
      "t": 150871.78625,
      "d": 174.4182499999879,
      "v": 123
    },
    {
      "midi": 66,
      "hit": false,
      "t": 150871.78625,
      "d": 174.4182499999879,
      "v": 123
    },
    {
      "midi": 51,
      "hit": false,
      "t": 151046.2045,
      "d": 1046.5094999999856,
      "v": 123
    },
    {
      "midi": 63,
      "hit": false,
      "t": 151046.2045,
      "d": 1046.5094999999856,
      "v": 123
    },
    {
      "midi": 52,
      "hit": false,
      "t": 152092.71399999998,
      "d": 697.6730000000098,
      "v": 114
    },
    {
      "midi": 64,
      "hit": false,
      "t": 152092.71399999998,
      "d": 697.6730000000098,
      "v": 114
    },
    {
      "midi": 54,
      "hit": false,
      "t": 152790.387,
      "d": 697.6730000000098,
      "v": 115
    },
    {
      "midi": 66,
      "hit": false,
      "t": 152790.387,
      "d": 697.6730000000098,
      "v": 115
    },
    {
      "midi": 55,
      "hit": false,
      "t": 153488.06,
      "d": 1046.5094999999856,
      "v": 115
    },
    {
      "midi": 67,
      "hit": false,
      "t": 153488.06,
      "d": 1046.5094999999856,
      "v": 115
    },
    {
      "midi": 52,
      "hit": false,
      "t": 154534.56949999998,
      "d": 174.4182499999879,
      "v": 115
    },
    {
      "midi": 64,
      "hit": false,
      "t": 154534.56949999998,
      "d": 174.4182499999879,
      "v": 115
    },
    {
      "midi": 54,
      "hit": false,
      "t": 154708.98774999997,
      "d": 174.4182499999879,
      "v": 115
    },
    {
      "midi": 66,
      "hit": false,
      "t": 154708.98774999997,
      "d": 174.4182499999879,
      "v": 115
    },
    {
      "midi": 55,
      "hit": false,
      "t": 154883.40599999996,
      "d": 1046.5094999999856,
      "v": 115
    },
    {
      "midi": 67,
      "hit": false,
      "t": 154883.40599999996,
      "d": 1046.5094999999856,
      "v": 115
    },
    {
      "midi": 52,
      "hit": false,
      "t": 155929.91549999994,
      "d": 174.4182499999879,
      "v": 115
    },
    {
      "midi": 64,
      "hit": false,
      "t": 155929.91549999994,
      "d": 174.4182499999879,
      "v": 115
    },
    {
      "midi": 54,
      "hit": false,
      "t": 156104.33374999993,
      "d": 174.4182499999879,
      "v": 115
    },
    {
      "midi": 66,
      "hit": false,
      "t": 156104.33374999993,
      "d": 174.4182499999879,
      "v": 115
    },
    {
      "midi": 55,
      "hit": false,
      "t": 156278.75199999992,
      "d": 690.4055729166721,
      "v": 115
    },
    {
      "midi": 67,
      "hit": false,
      "t": 156278.75199999992,
      "d": 690.4055729166721,
      "v": 115
    },
    {
      "midi": 55,
      "hit": false,
      "t": 156976.42499999993,
      "d": 515.9873229166551,
      "v": 114
    },
    {
      "midi": 67,
      "hit": false,
      "t": 156976.42499999993,
      "d": 515.9873229166551,
      "v": 114
    },
    {
      "midi": 55,
      "hit": false,
      "t": 157499.67974999992,
      "d": 348.8365000000049,
      "v": 113
    },
    {
      "midi": 67,
      "hit": false,
      "t": 157499.67974999992,
      "d": 348.8365000000049,
      "v": 113
    },
    {
      "midi": 57,
      "hit": false,
      "t": 157848.51624999993,
      "d": 174.4182499999879,
      "v": 113
    },
    {
      "midi": 69,
      "hit": false,
      "t": 157848.51624999993,
      "d": 174.4182499999879,
      "v": 113
    },
    {
      "midi": 54,
      "hit": false,
      "t": 158022.93449999992,
      "d": 697.6730000000098,
      "v": 113
    },
    {
      "midi": 66,
      "hit": false,
      "t": 158022.93449999992,
      "d": 697.6730000000098,
      "v": 113
    },
    {
      "midi": 50,
      "hit": false,
      "t": 158720.60749999993,
      "d": 174.4182499999879,
      "v": 112
    },
    {
      "midi": 62,
      "hit": false,
      "t": 158720.60749999993,
      "d": 174.4182499999879,
      "v": 112
    },
    {
      "midi": 52,
      "hit": false,
      "t": 158895.0257499999,
      "d": 174.4182499999879,
      "v": 112
    },
    {
      "midi": 64,
      "hit": false,
      "t": 158895.0257499999,
      "d": 174.4182499999879,
      "v": 112
    },
    {
      "midi": 54,
      "hit": false,
      "t": 159069.4439999999,
      "d": 690.4055729166721,
      "v": 112
    },
    {
      "midi": 66,
      "hit": false,
      "t": 159069.4439999999,
      "d": 690.4055729166721,
      "v": 112
    },
    {
      "midi": 54,
      "hit": false,
      "t": 159767.1169999999,
      "d": 348.8365000000049,
      "v": 112
    },
    {
      "midi": 66,
      "hit": false,
      "t": 159767.1169999999,
      "d": 348.8365000000049,
      "v": 112
    },
    {
      "midi": 52,
      "hit": false,
      "t": 160115.95349999992,
      "d": 174.4182499999879,
      "v": 112
    },
    {
      "midi": 64,
      "hit": false,
      "t": 160115.95349999992,
      "d": 174.4182499999879,
      "v": 112
    },
    {
      "midi": 54,
      "hit": false,
      "t": 160290.3717499999,
      "d": 348.8365000000049,
      "v": 112
    },
    {
      "midi": 66,
      "hit": false,
      "t": 160290.3717499999,
      "d": 348.8365000000049,
      "v": 112
    },
    {
      "midi": 55,
      "hit": false,
      "t": 160639.2082499999,
      "d": 174.4182499999879,
      "v": 113
    },
    {
      "midi": 67,
      "hit": false,
      "t": 160639.2082499999,
      "d": 174.4182499999879,
      "v": 113
    },
    {
      "midi": 52,
      "hit": false,
      "t": 160813.6264999999,
      "d": 697.6730000000098,
      "v": 113
    },
    {
      "midi": 64,
      "hit": false,
      "t": 160813.6264999999,
      "d": 697.6730000000098,
      "v": 113
    },
    {
      "midi": 48,
      "hit": false,
      "t": 161511.2994999999,
      "d": 174.4182499999879,
      "v": 114
    },
    {
      "midi": 60,
      "hit": false,
      "t": 161511.2994999999,
      "d": 174.4182499999879,
      "v": 114
    },
    {
      "midi": 50,
      "hit": false,
      "t": 161685.7177499999,
      "d": 174.4182499999879,
      "v": 114
    },
    {
      "midi": 62,
      "hit": false,
      "t": 161685.7177499999,
      "d": 174.4182499999879,
      "v": 114
    },
    {
      "midi": 52,
      "hit": false,
      "t": 161860.13599999988,
      "d": 1046.5094999999856,
      "v": 112
    },
    {
      "midi": 64,
      "hit": false,
      "t": 161860.13599999988,
      "d": 1046.5094999999856,
      "v": 112
    },
    {
      "midi": 48,
      "hit": false,
      "t": 162906.64549999987,
      "d": 174.4182499999879,
      "v": 113
    },
    {
      "midi": 60,
      "hit": false,
      "t": 162906.64549999987,
      "d": 174.4182499999879,
      "v": 113
    },
    {
      "midi": 50,
      "hit": false,
      "t": 163081.06374999986,
      "d": 174.4182499999879,
      "v": 113
    },
    {
      "midi": 62,
      "hit": false,
      "t": 163081.06374999986,
      "d": 174.4182499999879,
      "v": 113
    },
    {
      "midi": 52,
      "hit": false,
      "t": 163255.48199999984,
      "d": 690.4055729166721,
      "v": 114
    },
    {
      "midi": 64,
      "hit": false,
      "t": 163255.48199999984,
      "d": 690.4055729166721,
      "v": 114
    },
    {
      "midi": 52,
      "hit": false,
      "t": 163953.15499999985,
      "d": 515.9873229166551,
      "v": 114
    },
    {
      "midi": 64,
      "hit": false,
      "t": 163953.15499999985,
      "d": 515.9873229166551,
      "v": 114
    },
    {
      "midi": 52,
      "hit": false,
      "t": 164476.40974999985,
      "d": 348.8365000000049,
      "v": 117
    },
    {
      "midi": 64,
      "hit": false,
      "t": 164476.40974999985,
      "d": 348.8365000000049,
      "v": 117
    },
    {
      "midi": 51,
      "hit": false,
      "t": 164825.24624999985,
      "d": 174.4182499999879,
      "v": 112
    },
    {
      "midi": 63,
      "hit": false,
      "t": 164825.24624999985,
      "d": 174.4182499999879,
      "v": 112
    },
    {
      "midi": 47,
      "hit": false,
      "t": 164999.66449999984,
      "d": 2441.855500000005,
      "v": 113
    },
    {
      "midi": 59,
      "hit": false,
      "t": 164999.66449999984,
      "d": 2441.855500000005,
      "v": 113
    },
    {
      "midi": 59,
      "hit": false,
      "t": 165348.50100000008,
      "d": 697.6730000000098,
      "v": 122
    },
    {
      "midi": 71,
      "hit": false,
      "t": 166046.1740000001,
      "d": 697.6730000000098,
      "v": 122
    },
    {
      "midi": 70,
      "hit": false,
      "t": 166743.8470000001,
      "d": 174.4182499999879,
      "v": 118
    },
    {
      "midi": 71,
      "hit": false,
      "t": 166918.26525000008,
      "d": 174.4182499999879,
      "v": 108
    },
    {
      "midi": 70,
      "hit": false,
      "t": 167092.68350000007,
      "d": 348.8365000000049,
      "v": 93
    },
    {
      "midi": 66,
      "hit": false,
      "t": 167441.52000000008,
      "d": 1395.3459999999905,
      "v": 127
    },
    {
      "midi": 54,
      "hit": false,
      "t": 168836.86599999983,
      "d": 1395.3459999999905,
      "v": 114
    },
    {
      "midi": 57,
      "hit": false,
      "t": 168836.86599999983,
      "d": 1395.3459999999905,
      "v": 114
    },
    {
      "midi": 66,
      "hit": false,
      "t": 168836.86599999983,
      "d": 1395.3459999999905,
      "v": 114
    },
    {
      "midi": 55,
      "hit": false,
      "t": 170232.21199999982,
      "d": 697.6730000000098,
      "v": 127
    },
    {
      "midi": 58,
      "hit": false,
      "t": 170232.21199999982,
      "d": 697.6730000000098,
      "v": 96
    },
    {
      "midi": 67,
      "hit": false,
      "t": 170232.21199999982,
      "d": 697.6730000000098,
      "v": 127
    },
    {
      "midi": 57,
      "hit": false,
      "t": 170929.88499999983,
      "d": 697.6730000000098,
      "v": 127
    },
    {
      "midi": 60,
      "hit": false,
      "t": 170929.88499999983,
      "d": 697.6730000000098,
      "v": 99
    },
    {
      "midi": 69,
      "hit": false,
      "t": 170929.88499999983,
      "d": 697.6730000000098,
      "v": 127
    },
    {
      "midi": 58,
      "hit": false,
      "t": 171627.55799999984,
      "d": 1039.242072916677,
      "v": 127
    },
    {
      "midi": 62,
      "hit": false,
      "t": 171627.55799999984,
      "d": 1046.5095000000147,
      "v": 101
    },
    {
      "midi": 70,
      "hit": false,
      "t": 171627.55799999984,
      "d": 1046.5095000000147,
      "v": 127
    },
    {
      "midi": 55,
      "hit": false,
      "t": 172674.06749999986,
      "d": 174.4182499999879,
      "v": 118
    },
    {
      "midi": 58,
      "hit": false,
      "t": 172674.06749999986,
      "d": 174.4182499999879,
      "v": 104
    },
    {
      "midi": 67,
      "hit": false,
      "t": 172674.06749999986,
      "d": 174.4182499999879,
      "v": 118
    },
    {
      "midi": 57,
      "hit": false,
      "t": 172848.48574999985,
      "d": 174.4182499999879,
      "v": 107
    },
    {
      "midi": 60,
      "hit": false,
      "t": 172848.48574999985,
      "d": 174.4182499999879,
      "v": 104
    },
    {
      "midi": 69,
      "hit": false,
      "t": 172848.48574999985,
      "d": 174.4182499999879,
      "v": 107
    },
    {
      "midi": 58,
      "hit": false,
      "t": 173022.90399999983,
      "d": 1039.242072916677,
      "v": 127
    },
    {
      "midi": 62,
      "hit": false,
      "t": 173022.90399999983,
      "d": 1046.5095000000147,
      "v": 104
    },
    {
      "midi": 70,
      "hit": false,
      "t": 173022.90399999983,
      "d": 1046.5095000000147,
      "v": 127
    },
    {
      "midi": 55,
      "hit": false,
      "t": 174069.41349999985,
      "d": 174.4182499999879,
      "v": 106
    },
    {
      "midi": 58,
      "hit": false,
      "t": 174069.41349999985,
      "d": 174.4182499999879,
      "v": 103
    },
    {
      "midi": 67,
      "hit": false,
      "t": 174069.41349999985,
      "d": 174.4182499999879,
      "v": 106
    },
    {
      "midi": 57,
      "hit": false,
      "t": 174243.83174999984,
      "d": 174.4182499999879,
      "v": 113
    },
    {
      "midi": 60,
      "hit": false,
      "t": 174243.83174999984,
      "d": 174.4182499999879,
      "v": 101
    },
    {
      "midi": 69,
      "hit": false,
      "t": 174243.83174999984,
      "d": 174.4182499999879,
      "v": 113
    },
    {
      "midi": 58,
      "hit": false,
      "t": 174418.24999999983,
      "d": 690.4055729166721,
      "v": 127
    },
    {
      "midi": 62,
      "hit": false,
      "t": 174418.24999999983,
      "d": 690.4055729166721,
      "v": 101
    },
    {
      "midi": 70,
      "hit": false,
      "t": 174418.24999999983,
      "d": 690.4055729166721,
      "v": 127
    },
    {
      "midi": 58,
      "hit": false,
      "t": 175115.92299999984,
      "d": 341.5690729166672,
      "v": 127
    },
    {
      "midi": 70,
      "hit": false,
      "t": 175115.92299999984,
      "d": 341.5690729166672,
      "v": 127
    },
    {
      "midi": 62,
      "hit": false,
      "t": 175115.92299999984,
      "d": 348.8365000000049,
      "v": 102
    },
    {
      "midi": 58,
      "hit": false,
      "t": 175464.75949999984,
      "d": 167.15082291667932,
      "v": 107
    },
    {
      "midi": 70,
      "hit": false,
      "t": 175464.75949999984,
      "d": 167.15082291667932,
      "v": 107
    },
    {
      "midi": 60,
      "hit": false,
      "t": 175464.75949999984,
      "d": 174.418250000017,
      "v": 102
    },
    {
      "midi": 58,
      "hit": false,
      "t": 175639.17774999986,
      "d": 348.8365000000049,
      "v": 124
    },
    {
      "midi": 62,
      "hit": false,
      "t": 175639.17774999986,
      "d": 348.8365000000049,
      "v": 102
    },
    {
      "midi": 70,
      "hit": false,
      "t": 175639.17774999986,
      "d": 348.8365000000049,
      "v": 124
    },
    {
      "midi": 60,
      "hit": false,
      "t": 175988.01424999986,
      "d": 167.15082291667932,
      "v": 115
    },
    {
      "midi": 63,
      "hit": false,
      "t": 175988.01424999986,
      "d": 174.418250000017,
      "v": 102
    },
    {
      "midi": 72,
      "hit": false,
      "t": 175988.01424999986,
      "d": 174.418250000017,
      "v": 115
    },
    {
      "midi": 57,
      "hit": false,
      "t": 176162.43249999988,
      "d": 690.4055729166721,
      "v": 99
    },
    {
      "midi": 60,
      "hit": false,
      "t": 176162.43249999988,
      "d": 697.6730000000098,
      "v": 102
    },
    {
      "midi": 69,
      "hit": false,
      "t": 176162.43249999988,
      "d": 697.6730000000098,
      "v": 99
    },
    {
      "midi": 53,
      "hit": false,
      "t": 176860.1054999999,
      "d": 174.4182499999879,
      "v": 89
    },
    {
      "midi": 57,
      "hit": false,
      "t": 176860.1054999999,
      "d": 174.4182499999879,
      "v": 101
    },
    {
      "midi": 65,
      "hit": false,
      "t": 176860.1054999999,
      "d": 174.4182499999879,
      "v": 89
    },
    {
      "midi": 55,
      "hit": false,
      "t": 177034.52374999988,
      "d": 174.4182499999879,
      "v": 115
    },
    {
      "midi": 58,
      "hit": false,
      "t": 177034.52374999988,
      "d": 174.4182499999879,
      "v": 102
    },
    {
      "midi": 67,
      "hit": false,
      "t": 177034.52374999988,
      "d": 174.4182499999879,
      "v": 115
    },
    {
      "midi": 57,
      "hit": false,
      "t": 177208.94199999986,
      "d": 690.4055729166721,
      "v": 127
    },
    {
      "midi": 60,
      "hit": false,
      "t": 177208.94199999986,
      "d": 690.4055729166721,
      "v": 102
    },
    {
      "midi": 69,
      "hit": false,
      "t": 177208.94199999986,
      "d": 690.4055729166721,
      "v": 127
    },
    {
      "midi": 57,
      "hit": false,
      "t": 177906.61499999987,
      "d": 515.9873229166551,
      "v": 124
    },
    {
      "midi": 60,
      "hit": false,
      "t": 177906.61499999987,
      "d": 515.9873229166551,
      "v": 106
    },
    {
      "midi": 69,
      "hit": false,
      "t": 177906.61499999987,
      "d": 515.9873229166551,
      "v": 124
    },
    {
      "midi": 57,
      "hit": false,
      "t": 178429.86974999987,
      "d": 348.8365000000049,
      "v": 115
    },
    {
      "midi": 60,
      "hit": false,
      "t": 178429.86974999987,
      "d": 348.8365000000049,
      "v": 108
    },
    {
      "midi": 69,
      "hit": false,
      "t": 178429.86974999987,
      "d": 348.8365000000049,
      "v": 115
    },
    {
      "midi": 58,
      "hit": false,
      "t": 178778.70624999987,
      "d": 167.15082291667932,
      "v": 118
    },
    {
      "midi": 62,
      "hit": false,
      "t": 178778.70624999987,
      "d": 174.418250000017,
      "v": 109
    },
    {
      "midi": 70,
      "hit": false,
      "t": 178778.70624999987,
      "d": 174.418250000017,
      "v": 118
    },
    {
      "midi": 55,
      "hit": false,
      "t": 178953.1244999999,
      "d": 690.4055729166721,
      "v": 118
    },
    {
      "midi": 58,
      "hit": false,
      "t": 178953.1244999999,
      "d": 697.6730000000098,
      "v": 109
    },
    {
      "midi": 67,
      "hit": false,
      "t": 178953.1244999999,
      "d": 697.6730000000098,
      "v": 118
    },
    {
      "midi": 51,
      "hit": false,
      "t": 179650.7974999999,
      "d": 174.4182499999879,
      "v": 106
    },
    {
      "midi": 55,
      "hit": false,
      "t": 179650.7974999999,
      "d": 174.4182499999879,
      "v": 110
    },
    {
      "midi": 63,
      "hit": false,
      "t": 179650.7974999999,
      "d": 174.4182499999879,
      "v": 106
    },
    {
      "midi": 53,
      "hit": false,
      "t": 179825.2157499999,
      "d": 174.4182499999879,
      "v": 106
    },
    {
      "midi": 57,
      "hit": false,
      "t": 179825.2157499999,
      "d": 174.4182499999879,
      "v": 110
    },
    {
      "midi": 65,
      "hit": false,
      "t": 179825.2157499999,
      "d": 174.4182499999879,
      "v": 106
    },
    {
      "midi": 55,
      "hit": false,
      "t": 179999.63399999987,
      "d": 1039.242072916677,
      "v": 110
    },
    {
      "midi": 58,
      "hit": false,
      "t": 179999.63399999987,
      "d": 1046.5095000000147,
      "v": 110
    },
    {
      "midi": 67,
      "hit": false,
      "t": 179999.63399999987,
      "d": 1046.5095000000147,
      "v": 110
    },
    {
      "midi": 51,
      "hit": false,
      "t": 181046.1434999999,
      "d": 174.4182499999879,
      "v": 95
    },
    {
      "midi": 55,
      "hit": false,
      "t": 181046.1434999999,
      "d": 174.4182499999879,
      "v": 113
    },
    {
      "midi": 63,
      "hit": false,
      "t": 181046.1434999999,
      "d": 174.4182499999879,
      "v": 95
    },
    {
      "midi": 53,
      "hit": false,
      "t": 181220.56174999988,
      "d": 174.4182499999879,
      "v": 103
    },
    {
      "midi": 57,
      "hit": false,
      "t": 181220.56174999988,
      "d": 174.4182499999879,
      "v": 114
    },
    {
      "midi": 65,
      "hit": false,
      "t": 181220.56174999988,
      "d": 174.4182499999879,
      "v": 103
    },
    {
      "midi": 55,
      "hit": false,
      "t": 181394.97999999986,
      "d": 690.4055729166721,
      "v": 115
    },
    {
      "midi": 58,
      "hit": false,
      "t": 181394.97999999986,
      "d": 690.4055729166721,
      "v": 114
    },
    {
      "midi": 67,
      "hit": false,
      "t": 181394.97999999986,
      "d": 690.4055729166721,
      "v": 115
    },
    {
      "midi": 55,
      "hit": false,
      "t": 182092.65299999987,
      "d": 348.8365000000049,
      "v": 107
    },
    {
      "midi": 58,
      "hit": false,
      "t": 182092.65299999987,
      "d": 348.8365000000049,
      "v": 108
    },
    {
      "midi": 67,
      "hit": false,
      "t": 182092.65299999987,
      "d": 348.8365000000049,
      "v": 107
    },
    {
      "midi": 54,
      "hit": false,
      "t": 182441.48949999988,
      "d": 174.4182499999879,
      "v": 103
    },
    {
      "midi": 57,
      "hit": false,
      "t": 182441.48949999988,
      "d": 174.4182499999879,
      "v": 108
    },
    {
      "midi": 66,
      "hit": false,
      "t": 182441.48949999988,
      "d": 174.4182499999879,
      "v": 103
    },
    {
      "midi": 55,
      "hit": false,
      "t": 182615.90774999987,
      "d": 348.8365000000049,
      "v": 110
    },
    {
      "midi": 58,
      "hit": false,
      "t": 182615.90774999987,
      "d": 348.8365000000049,
      "v": 108
    },
    {
      "midi": 67,
      "hit": false,
      "t": 182615.90774999987,
      "d": 348.8365000000049,
      "v": 110
    },
    {
      "midi": 54,
      "hit": false,
      "t": 182964.74424999987,
      "d": 167.15082291667932,
      "v": 99
    },
    {
      "midi": 57,
      "hit": false,
      "t": 182964.74424999987,
      "d": 174.418250000017,
      "v": 108
    },
    {
      "midi": 66,
      "hit": false,
      "t": 182964.74424999987,
      "d": 174.418250000017,
      "v": 99
    },
    {
      "midi": 50,
      "hit": false,
      "t": 183139.1624999999,
      "d": 3837.2014999999956,
      "v": 118
    },
    {
      "midi": 54,
      "hit": false,
      "t": 183139.1624999999,
      "d": 3837.2014999999956,
      "v": 108
    },
    {
      "midi": 62,
      "hit": false,
      "t": 183139.1624999999,
      "d": 3837.2014999999956,
      "v": 118
    },
    {
      "midi": 55,
      "hit": false,
      "t": 186976.36399999988,
      "d": 697.6730000000098,
      "v": 127
    },
    {
      "midi": 58,
      "hit": false,
      "t": 186976.36399999988,
      "d": 697.6730000000098,
      "v": 109
    },
    {
      "midi": 67,
      "hit": false,
      "t": 186976.36399999988,
      "d": 697.6730000000098,
      "v": 127
    },
    {
      "midi": 57,
      "hit": false,
      "t": 187674.0369999999,
      "d": 697.6730000000098,
      "v": 127
    },
    {
      "midi": 60,
      "hit": false,
      "t": 187674.0369999999,
      "d": 697.6730000000098,
      "v": 111
    },
    {
      "midi": 69,
      "hit": false,
      "t": 187674.0369999999,
      "d": 697.6730000000098,
      "v": 127
    },
    {
      "midi": 58,
      "hit": false,
      "t": 188371.7099999999,
      "d": 1039.242072916677,
      "v": 127
    },
    {
      "midi": 62,
      "hit": false,
      "t": 188371.7099999999,
      "d": 1046.5095000000147,
      "v": 110
    },
    {
      "midi": 70,
      "hit": false,
      "t": 188371.7099999999,
      "d": 1046.5095000000147,
      "v": 127
    },
    {
      "midi": 55,
      "hit": false,
      "t": 189418.21949999992,
      "d": 174.4182499999879,
      "v": 124
    },
    {
      "midi": 58,
      "hit": false,
      "t": 189418.21949999992,
      "d": 174.4182499999879,
      "v": 109
    },
    {
      "midi": 67,
      "hit": false,
      "t": 189418.21949999992,
      "d": 174.4182499999879,
      "v": 124
    },
    {
      "midi": 57,
      "hit": false,
      "t": 189592.6377499999,
      "d": 174.4182499999879,
      "v": 127
    },
    {
      "midi": 60,
      "hit": false,
      "t": 189592.6377499999,
      "d": 174.4182499999879,
      "v": 109
    },
    {
      "midi": 69,
      "hit": false,
      "t": 189592.6377499999,
      "d": 174.4182499999879,
      "v": 127
    },
    {
      "midi": 58,
      "hit": false,
      "t": 189767.0559999999,
      "d": 1039.242072916677,
      "v": 127
    },
    {
      "midi": 62,
      "hit": false,
      "t": 189767.0559999999,
      "d": 1046.5095000000147,
      "v": 109
    },
    {
      "midi": 70,
      "hit": false,
      "t": 189767.0559999999,
      "d": 1046.5095000000147,
      "v": 127
    },
    {
      "midi": 55,
      "hit": false,
      "t": 190813.5654999999,
      "d": 174.4182499999879,
      "v": 103
    },
    {
      "midi": 58,
      "hit": false,
      "t": 190813.5654999999,
      "d": 174.4182499999879,
      "v": 104
    },
    {
      "midi": 67,
      "hit": false,
      "t": 190813.5654999999,
      "d": 174.4182499999879,
      "v": 103
    },
    {
      "midi": 57,
      "hit": false,
      "t": 190987.9837499999,
      "d": 174.4182499999879,
      "v": 118
    },
    {
      "midi": 60,
      "hit": false,
      "t": 190987.9837499999,
      "d": 174.4182499999879,
      "v": 104
    },
    {
      "midi": 69,
      "hit": false,
      "t": 190987.9837499999,
      "d": 174.4182499999879,
      "v": 118
    },
    {
      "midi": 58,
      "hit": false,
      "t": 191162.40199999989,
      "d": 690.4055729166721,
      "v": 127
    },
    {
      "midi": 62,
      "hit": false,
      "t": 191162.40199999989,
      "d": 690.4055729166721,
      "v": 105
    },
    {
      "midi": 70,
      "hit": false,
      "t": 191162.40199999989,
      "d": 690.4055729166721,
      "v": 127
    },
    {
      "midi": 70,
      "hit": false,
      "t": 191860.0749999999,
      "d": 341.5690729166672,
      "v": 127
    },
    {
      "midi": 62,
      "hit": false,
      "t": 191860.0749999999,
      "d": 348.8365000000049,
      "v": 105
    },
    {
      "midi": 58,
      "hit": false,
      "t": 191860.0749999999,
      "d": 515.9873229166842,
      "v": 127
    },
    {
      "midi": 70,
      "hit": false,
      "t": 192208.9114999999,
      "d": 167.15082291667932,
      "v": 127
    },
    {
      "midi": 60,
      "hit": false,
      "t": 192208.9114999999,
      "d": 174.418250000017,
      "v": 105
    },
    {
      "midi": 58,
      "hit": false,
      "t": 192383.32974999992,
      "d": 348.8365000000049,
      "v": 127
    },
    {
      "midi": 62,
      "hit": false,
      "t": 192383.32974999992,
      "d": 348.8365000000049,
      "v": 105
    },
    {
      "midi": 70,
      "hit": false,
      "t": 192383.32974999992,
      "d": 348.8365000000049,
      "v": 127
    },
    {
      "midi": 60,
      "hit": false,
      "t": 192732.16624999992,
      "d": 167.15082291667932,
      "v": 110
    },
    {
      "midi": 63,
      "hit": false,
      "t": 192732.16624999992,
      "d": 174.418250000017,
      "v": 105
    },
    {
      "midi": 72,
      "hit": false,
      "t": 192732.16624999992,
      "d": 174.418250000017,
      "v": 110
    },
    {
      "midi": 57,
      "hit": false,
      "t": 192906.58449999994,
      "d": 690.4055729166721,
      "v": 103
    },
    {
      "midi": 60,
      "hit": false,
      "t": 192906.58449999994,
      "d": 697.6730000000098,
      "v": 105
    },
    {
      "midi": 69,
      "hit": false,
      "t": 192906.58449999994,
      "d": 697.6730000000098,
      "v": 103
    },
    {
      "midi": 53,
      "hit": false,
      "t": 193604.25749999995,
      "d": 174.4182499999879,
      "v": 96
    },
    {
      "midi": 57,
      "hit": false,
      "t": 193604.25749999995,
      "d": 174.4182499999879,
      "v": 105
    },
    {
      "midi": 65,
      "hit": false,
      "t": 193604.25749999995,
      "d": 174.4182499999879,
      "v": 96
    },
    {
      "midi": 55,
      "hit": false,
      "t": 193778.67574999994,
      "d": 174.4182499999879,
      "v": 115
    },
    {
      "midi": 58,
      "hit": false,
      "t": 193778.67574999994,
      "d": 174.4182499999879,
      "v": 105
    },
    {
      "midi": 67,
      "hit": false,
      "t": 193778.67574999994,
      "d": 174.4182499999879,
      "v": 115
    },
    {
      "midi": 53,
      "hit": false,
      "t": 193953.09399999992,
      "d": 690.4055729166721,
      "v": 120
    },
    {
      "midi": 60,
      "hit": false,
      "t": 193953.09399999992,
      "d": 690.4055729166721,
      "v": 105
    },
    {
      "midi": 69,
      "hit": false,
      "t": 193953.09399999992,
      "d": 690.4055729166721,
      "v": 120
    },
    {
      "midi": 53,
      "hit": false,
      "t": 194650.76699999993,
      "d": 341.5690729166672,
      "v": 120
    },
    {
      "midi": 69,
      "hit": false,
      "t": 194650.76699999993,
      "d": 341.5690729166672,
      "v": 120
    },
    {
      "midi": 60,
      "hit": false,
      "t": 194650.76699999993,
      "d": 348.8365000000049,
      "v": 105
    },
    {
      "midi": 53,
      "hit": false,
      "t": 194999.60349999994,
      "d": 167.15082291667932,
      "v": 120
    },
    {
      "midi": 69,
      "hit": false,
      "t": 194999.60349999994,
      "d": 167.15082291667932,
      "v": 124
    },
    {
      "midi": 58,
      "hit": false,
      "t": 194999.60349999994,
      "d": 174.418250000017,
      "v": 108
    },
    {
      "midi": 53,
      "hit": false,
      "t": 195174.02174999996,
      "d": 348.8365000000049,
      "v": 124
    },
    {
      "midi": 60,
      "hit": false,
      "t": 195174.02174999996,
      "d": 348.8365000000049,
      "v": 106
    },
    {
      "midi": 69,
      "hit": false,
      "t": 195174.02174999996,
      "d": 348.8365000000049,
      "v": 124
    },
    {
      "midi": 55,
      "hit": false,
      "t": 195522.85824999996,
      "d": 174.4182499999879,
      "v": 127
    },
    {
      "midi": 62,
      "hit": false,
      "t": 195522.85824999996,
      "d": 174.4182499999879,
      "v": 108
    },
    {
      "midi": 70,
      "hit": false,
      "t": 195522.85824999996,
      "d": 174.4182499999879,
      "v": 127
    },
    {
      "midi": 51,
      "hit": false,
      "t": 195697.27649999995,
      "d": 690.4055729166721,
      "v": 115
    },
    {
      "midi": 58,
      "hit": false,
      "t": 195697.27649999995,
      "d": 697.6730000000098,
      "v": 110
    },
    {
      "midi": 67,
      "hit": false,
      "t": 195697.27649999995,
      "d": 697.6730000000098,
      "v": 115
    },
    {
      "midi": 51,
      "hit": false,
      "t": 196394.94949999996,
      "d": 174.4182499999879,
      "v": 107
    },
    {
      "midi": 55,
      "hit": false,
      "t": 196394.94949999996,
      "d": 174.4182499999879,
      "v": 111
    },
    {
      "midi": 63,
      "hit": false,
      "t": 196394.94949999996,
      "d": 174.4182499999879,
      "v": 107
    },
    {
      "midi": 53,
      "hit": false,
      "t": 196569.36774999995,
      "d": 174.4182499999879,
      "v": 103
    },
    {
      "midi": 57,
      "hit": false,
      "t": 196569.36774999995,
      "d": 174.4182499999879,
      "v": 111
    },
    {
      "midi": 65,
      "hit": false,
      "t": 196569.36774999995,
      "d": 174.4182499999879,
      "v": 103
    },
    {
      "midi": 55,
      "hit": false,
      "t": 196743.78599999993,
      "d": 1039.242072916677,
      "v": 110
    },
    {
      "midi": 58,
      "hit": false,
      "t": 196743.78599999993,
      "d": 1046.5095000000147,
      "v": 111
    },
    {
      "midi": 67,
      "hit": false,
      "t": 196743.78599999993,
      "d": 1046.5095000000147,
      "v": 110
    },
    {
      "midi": 51,
      "hit": false,
      "t": 197790.29549999995,
      "d": 174.4182499999879,
      "v": 124
    },
    {
      "midi": 55,
      "hit": false,
      "t": 197790.29549999995,
      "d": 174.4182499999879,
      "v": 108
    },
    {
      "midi": 63,
      "hit": false,
      "t": 197790.29549999995,
      "d": 174.4182499999879,
      "v": 124
    },
    {
      "midi": 53,
      "hit": false,
      "t": 197964.71374999994,
      "d": 174.4182499999879,
      "v": 105
    },
    {
      "midi": 57,
      "hit": false,
      "t": 197964.71374999994,
      "d": 174.4182499999879,
      "v": 109
    },
    {
      "midi": 65,
      "hit": false,
      "t": 197964.71374999994,
      "d": 174.4182499999879,
      "v": 105
    },
    {
      "midi": 55,
      "hit": false,
      "t": 198139.13199999993,
      "d": 690.4055729166721,
      "v": 113
    },
    {
      "midi": 58,
      "hit": false,
      "t": 198139.13199999993,
      "d": 690.4055729166721,
      "v": 109
    },
    {
      "midi": 67,
      "hit": false,
      "t": 198139.13199999993,
      "d": 690.4055729166721,
      "v": 113
    },
    {
      "midi": 55,
      "hit": false,
      "t": 198836.80499999993,
      "d": 515.9873229166551,
      "v": 113
    },
    {
      "midi": 58,
      "hit": false,
      "t": 198836.80499999993,
      "d": 515.9873229166551,
      "v": 107
    },
    {
      "midi": 67,
      "hit": false,
      "t": 198836.80499999993,
      "d": 515.9873229166551,
      "v": 113
    },
    {
      "midi": 55,
      "hit": false,
      "t": 199360.05974999993,
      "d": 348.8365000000049,
      "v": 110
    },
    {
      "midi": 58,
      "hit": false,
      "t": 199360.05974999993,
      "d": 348.8365000000049,
      "v": 106
    },
    {
      "midi": 67,
      "hit": false,
      "t": 199360.05974999993,
      "d": 348.8365000000049,
      "v": 110
    },
    {
      "midi": 57,
      "hit": false,
      "t": 199708.89624999993,
      "d": 167.15082291667932,
      "v": 106
    },
    {
      "midi": 60,
      "hit": false,
      "t": 199708.89624999993,
      "d": 174.418250000017,
      "v": 106
    },
    {
      "midi": 69,
      "hit": false,
      "t": 199708.89624999993,
      "d": 174.418250000017,
      "v": 106
    },
    {
      "midi": 54,
      "hit": false,
      "t": 199883.31449999995,
      "d": 2441.855500000005,
      "v": 127
    },
    {
      "midi": 57,
      "hit": false,
      "t": 199883.31449999995,
      "d": 2441.855500000005,
      "v": 106
    },
    {
      "midi": 66,
      "hit": false,
      "t": 199883.31449999995,
      "d": 2441.855500000005,
      "v": 127
    },
    {
      "midi": 74,
      "hit": false,
      "t": 200740.87089583342,
      "d": 334.30164583332953,
      "v": 109
    },
    {
      "midi": 75,
      "hit": false,
      "t": 201111.5096770834,
      "d": 210.7553854166763,
      "v": 96
    },
    {
      "midi": 74,
      "hit": false,
      "t": 201467.61360416675,
      "d": 297.96451041667024,
      "v": 118
    },
    {
      "midi": 79,
      "hit": false,
      "t": 201816.45010416675,
      "d": 254.35994791667326,
      "v": 96
    },
    {
      "midi": 81,
      "hit": false,
      "t": 202136.21689583344,
      "d": 174.4182499999879,
      "v": 97
    },
    {
      "midi": 55,
      "hit": false,
      "t": 202325.16999999995,
      "d": 1388.0785729166528,
      "v": 97
    },
    {
      "midi": 58,
      "hit": false,
      "t": 202325.16999999995,
      "d": 1388.0785729166528,
      "v": 97
    },
    {
      "midi": 67,
      "hit": false,
      "t": 202325.16999999995,
      "d": 1388.0785729166528,
      "v": 97
    },
    {
      "midi": 82,
      "hit": false,
      "t": 202339.70485416675,
      "d": 203.4879583333386,
      "v": 108
    },
    {
      "midi": 81,
      "hit": false,
      "t": 202543.19281250008,
      "d": 174.4182499999879,
      "v": 95
    },
    {
      "midi": 84,
      "hit": false,
      "t": 202862.95960416674,
      "d": 145.34854166666628,
      "v": 100
    },
    {
      "midi": 82,
      "hit": false,
      "t": 203037.37785416673,
      "d": 436.04562499999884,
      "v": 122
    },
    {
      "midi": 84,
      "hit": false,
      "t": 203531.5628958334,
      "d": 138.0811145833286,
      "v": 89
    },
    {
      "midi": 86,
      "hit": false,
      "t": 203713.24857291672,
      "d": 981.1026562500047,
      "v": 121
    },
    {
      "midi": 55,
      "hit": false,
      "t": 203720.51599999995,
      "d": 697.6730000000098,
      "v": 127
    },
    {
      "midi": 58,
      "hit": false,
      "t": 203720.51599999995,
      "d": 697.6730000000098,
      "v": 104
    },
    {
      "midi": 67,
      "hit": false,
      "t": 203720.51599999995,
      "d": 697.6730000000098,
      "v": 127
    },
    {
      "midi": 57,
      "hit": false,
      "t": 204418.18899999995,
      "d": 697.6730000000098,
      "v": 127
    },
    {
      "midi": 60,
      "hit": false,
      "t": 204418.18899999995,
      "d": 697.6730000000098,
      "v": 104
    },
    {
      "midi": 69,
      "hit": false,
      "t": 204418.18899999995,
      "d": 697.6730000000098,
      "v": 127
    },
    {
      "midi": 91,
      "hit": false,
      "t": 205094.05971875007,
      "d": 348.8365000000049,
      "v": 122
    },
    {
      "midi": 58,
      "hit": false,
      "t": 205115.86199999996,
      "d": 1039.242072916677,
      "v": 127
    },
    {
      "midi": 62,
      "hit": false,
      "t": 205115.86199999996,
      "d": 1046.5095000000147,
      "v": 103
    },
    {
      "midi": 70,
      "hit": false,
      "t": 205115.86199999996,
      "d": 1046.5095000000147,
      "v": 127
    },
    {
      "midi": 89,
      "hit": false,
      "t": 205421.09393750006,
      "d": 79.94169791665627,
      "v": 75
    },
    {
      "midi": 88,
      "hit": false,
      "t": 205471.9659270834,
      "d": 87.20912499996484,
      "v": 68
    },
    {
      "midi": 86,
      "hit": false,
      "t": 205530.10534375004,
      "d": 72.67427083331859,
      "v": 74
    },
    {
      "midi": 84,
      "hit": false,
      "t": 205588.24476041668,
      "d": 65.40684375001001,
      "v": 74
    },
    {
      "midi": 83,
      "hit": false,
      "t": 205639.11675000002,
      "d": 72.67427083334769,
      "v": 81
    },
    {
      "midi": 81,
      "hit": false,
      "t": 205697.2561666667,
      "d": 65.40684375001001,
      "v": 69
    },
    {
      "midi": 79,
      "hit": false,
      "t": 205740.86072916668,
      "d": 58.139416666701436,
      "v": 74
    },
    {
      "midi": 77,
      "hit": false,
      "t": 205784.4652916667,
      "d": 43.60456249999697,
      "v": 69
    },
    {
      "midi": 55,
      "hit": false,
      "t": 206162.37149999998,
      "d": 174.4182499999879,
      "v": 107
    },
    {
      "midi": 58,
      "hit": false,
      "t": 206162.37149999998,
      "d": 174.4182499999879,
      "v": 102
    },
    {
      "midi": 67,
      "hit": false,
      "t": 206162.37149999998,
      "d": 174.4182499999879,
      "v": 107
    },
    {
      "midi": 57,
      "hit": false,
      "t": 206336.78974999997,
      "d": 174.4182499999879,
      "v": 113
    },
    {
      "midi": 60,
      "hit": false,
      "t": 206336.78974999997,
      "d": 174.4182499999879,
      "v": 102
    },
    {
      "midi": 69,
      "hit": false,
      "t": 206336.78974999997,
      "d": 174.4182499999879,
      "v": 113
    },
    {
      "midi": 58,
      "hit": false,
      "t": 206511.20799999996,
      "d": 1039.242072916677,
      "v": 127
    },
    {
      "midi": 62,
      "hit": false,
      "t": 206511.20799999996,
      "d": 1046.5095000000147,
      "v": 103
    },
    {
      "midi": 70,
      "hit": false,
      "t": 206511.20799999996,
      "d": 1046.5095000000147,
      "v": 127
    },
    {
      "midi": 55,
      "hit": false,
      "t": 207557.71749999997,
      "d": 174.4182499999879,
      "v": 105
    },
    {
      "midi": 58,
      "hit": false,
      "t": 207557.71749999997,
      "d": 174.4182499999879,
      "v": 106
    },
    {
      "midi": 67,
      "hit": false,
      "t": 207557.71749999997,
      "d": 174.4182499999879,
      "v": 105
    },
    {
      "midi": 57,
      "hit": false,
      "t": 207732.13574999996,
      "d": 174.4182499999879,
      "v": 113
    },
    {
      "midi": 60,
      "hit": false,
      "t": 207732.13574999996,
      "d": 174.4182499999879,
      "v": 106
    },
    {
      "midi": 69,
      "hit": false,
      "t": 207732.13574999996,
      "d": 174.4182499999879,
      "v": 113
    },
    {
      "midi": 58,
      "hit": false,
      "t": 207906.55399999995,
      "d": 690.4055729166721,
      "v": 127
    },
    {
      "midi": 62,
      "hit": false,
      "t": 207906.55399999995,
      "d": 690.4055729166721,
      "v": 107
    },
    {
      "midi": 70,
      "hit": false,
      "t": 207906.55399999995,
      "d": 690.4055729166721,
      "v": 127
    },
    {
      "midi": 58,
      "hit": false,
      "t": 208604.22699999996,
      "d": 515.9873229166551,
      "v": 127
    },
    {
      "midi": 62,
      "hit": false,
      "t": 208604.22699999996,
      "d": 515.9873229166551,
      "v": 108
    },
    {
      "midi": 70,
      "hit": false,
      "t": 208604.22699999996,
      "d": 515.9873229166551,
      "v": 127
    },
    {
      "midi": 58,
      "hit": false,
      "t": 209127.48174999995,
      "d": 348.8365000000049,
      "v": 127
    },
    {
      "midi": 62,
      "hit": false,
      "t": 209127.48174999995,
      "d": 348.8365000000049,
      "v": 107
    },
    {
      "midi": 70,
      "hit": false,
      "t": 209127.48174999995,
      "d": 348.8365000000049,
      "v": 127
    },
    {
      "midi": 60,
      "hit": false,
      "t": 209476.31824999995,
      "d": 167.15082291667932,
      "v": 113
    },
    {
      "midi": 63,
      "hit": false,
      "t": 209476.31824999995,
      "d": 174.418250000017,
      "v": 105
    },
    {
      "midi": 72,
      "hit": false,
      "t": 209476.31824999995,
      "d": 174.418250000017,
      "v": 113
    },
    {
      "midi": 57,
      "hit": false,
      "t": 209650.73649999997,
      "d": 690.4055729166721,
      "v": 110
    },
    {
      "midi": 60,
      "hit": false,
      "t": 209650.73649999997,
      "d": 697.6730000000098,
      "v": 113
    },
    {
      "midi": 69,
      "hit": false,
      "t": 209650.73649999997,
      "d": 697.6730000000098,
      "v": 110
    },
    {
      "midi": 53,
      "hit": false,
      "t": 210348.40949999998,
      "d": 174.4182499999879,
      "v": 94
    },
    {
      "midi": 57,
      "hit": false,
      "t": 210348.40949999998,
      "d": 174.4182499999879,
      "v": 106
    },
    {
      "midi": 65,
      "hit": false,
      "t": 210348.40949999998,
      "d": 174.4182499999879,
      "v": 94
    },
    {
      "midi": 55,
      "hit": false,
      "t": 210522.82774999997,
      "d": 174.4182499999879,
      "v": 115
    },
    {
      "midi": 58,
      "hit": false,
      "t": 210522.82774999997,
      "d": 174.4182499999879,
      "v": 106
    },
    {
      "midi": 67,
      "hit": false,
      "t": 210522.82774999997,
      "d": 174.4182499999879,
      "v": 115
    },
    {
      "midi": 57,
      "hit": false,
      "t": 210697.24599999996,
      "d": 690.4055729166721,
      "v": 120
    },
    {
      "midi": 60,
      "hit": false,
      "t": 210697.24599999996,
      "d": 690.4055729166721,
      "v": 107
    },
    {
      "midi": 69,
      "hit": false,
      "t": 210697.24599999996,
      "d": 690.4055729166721,
      "v": 120
    },
    {
      "midi": 57,
      "hit": false,
      "t": 211394.91899999997,
      "d": 515.9873229166551,
      "v": 127
    },
    {
      "midi": 60,
      "hit": false,
      "t": 211394.91899999997,
      "d": 515.9873229166551,
      "v": 108
    },
    {
      "midi": 69,
      "hit": false,
      "t": 211394.91899999997,
      "d": 515.9873229166551,
      "v": 127
    },
    {
      "midi": 57,
      "hit": false,
      "t": 211918.17374999996,
      "d": 348.8365000000049,
      "v": 118
    },
    {
      "midi": 60,
      "hit": false,
      "t": 211918.17374999996,
      "d": 348.8365000000049,
      "v": 109
    },
    {
      "midi": 69,
      "hit": false,
      "t": 211918.17374999996,
      "d": 348.8365000000049,
      "v": 118
    },
    {
      "midi": 58,
      "hit": false,
      "t": 212267.01024999996,
      "d": 167.15082291667932,
      "v": 124
    },
    {
      "midi": 62,
      "hit": false,
      "t": 212267.01024999996,
      "d": 174.418250000017,
      "v": 109
    },
    {
      "midi": 70,
      "hit": false,
      "t": 212267.01024999996,
      "d": 174.418250000017,
      "v": 124
    },
    {
      "midi": 55,
      "hit": false,
      "t": 212441.42849999998,
      "d": 690.4055729166721,
      "v": 124
    },
    {
      "midi": 58,
      "hit": false,
      "t": 212441.42849999998,
      "d": 697.6730000000098,
      "v": 109
    },
    {
      "midi": 67,
      "hit": false,
      "t": 212441.42849999998,
      "d": 697.6730000000098,
      "v": 124
    },
    {
      "midi": 51,
      "hit": false,
      "t": 213139.1015,
      "d": 174.4182499999879,
      "v": 103
    },
    {
      "midi": 55,
      "hit": false,
      "t": 213139.1015,
      "d": 174.4182499999879,
      "v": 111
    },
    {
      "midi": 63,
      "hit": false,
      "t": 213139.1015,
      "d": 174.4182499999879,
      "v": 103
    },
    {
      "midi": 53,
      "hit": false,
      "t": 213313.51974999998,
      "d": 174.4182499999879,
      "v": 101
    },
    {
      "midi": 57,
      "hit": false,
      "t": 213313.51974999998,
      "d": 174.4182499999879,
      "v": 111
    },
    {
      "midi": 65,
      "hit": false,
      "t": 213313.51974999998,
      "d": 174.4182499999879,
      "v": 101
    },
    {
      "midi": 55,
      "hit": false,
      "t": 213487.93799999997,
      "d": 1039.242072916677,
      "v": 115
    },
    {
      "midi": 58,
      "hit": false,
      "t": 213487.93799999997,
      "d": 1046.5095000000147,
      "v": 111
    },
    {
      "midi": 67,
      "hit": false,
      "t": 213487.93799999997,
      "d": 1046.5095000000147,
      "v": 115
    },
    {
      "midi": 51,
      "hit": false,
      "t": 214534.44749999998,
      "d": 174.4182499999879,
      "v": 113
    },
    {
      "midi": 55,
      "hit": false,
      "t": 214534.44749999998,
      "d": 174.4182499999879,
      "v": 111
    },
    {
      "midi": 63,
      "hit": false,
      "t": 214534.44749999998,
      "d": 174.4182499999879,
      "v": 113
    },
    {
      "midi": 53,
      "hit": false,
      "t": 214708.86574999997,
      "d": 174.4182499999879,
      "v": 99
    },
    {
      "midi": 57,
      "hit": false,
      "t": 214708.86574999997,
      "d": 174.4182499999879,
      "v": 111
    },
    {
      "midi": 65,
      "hit": false,
      "t": 214708.86574999997,
      "d": 174.4182499999879,
      "v": 99
    },
    {
      "midi": 55,
      "hit": false,
      "t": 214883.28399999996,
      "d": 690.4055729166721,
      "v": 113
    },
    {
      "midi": 58,
      "hit": false,
      "t": 214883.28399999996,
      "d": 690.4055729166721,
      "v": 110
    },
    {
      "midi": 67,
      "hit": false,
      "t": 214883.28399999996,
      "d": 690.4055729166721,
      "v": 113
    },
    {
      "midi": 55,
      "hit": false,
      "t": 215580.95699999997,
      "d": 515.9873229166551,
      "v": 118
    },
    {
      "midi": 58,
      "hit": false,
      "t": 215580.95699999997,
      "d": 515.9873229166551,
      "v": 109
    },
    {
      "midi": 67,
      "hit": false,
      "t": 215580.95699999997,
      "d": 515.9873229166551,
      "v": 118
    },
    {
      "midi": 55,
      "hit": false,
      "t": 216104.21174999996,
      "d": 348.8365000000049,
      "v": 113
    },
    {
      "midi": 58,
      "hit": false,
      "t": 216104.21174999996,
      "d": 348.8365000000049,
      "v": 109
    },
    {
      "midi": 67,
      "hit": false,
      "t": 216104.21174999996,
      "d": 348.8365000000049,
      "v": 113
    },
    {
      "midi": 54,
      "hit": false,
      "t": 216453.04824999996,
      "d": 167.15082291667932,
      "v": 109
    },
    {
      "midi": 57,
      "hit": false,
      "t": 216453.04824999996,
      "d": 174.418250000017,
      "v": 106
    },
    {
      "midi": 66,
      "hit": false,
      "t": 216453.04824999996,
      "d": 174.418250000017,
      "v": 106
    },
    {
      "midi": 50,
      "hit": false,
      "t": 216627.46649999998,
      "d": 3837.2014999999956,
      "v": 109
    },
    {
      "midi": 54,
      "hit": false,
      "t": 216627.46649999998,
      "d": 3837.2014999999956,
      "v": 120
    },
    {
      "midi": 62,
      "hit": false,
      "t": 216627.46649999998,
      "d": 3837.2014999999956,
      "v": 120
    },
    {
      "midi": 62,
      "hit": false,
      "t": 216830.95445833338,
      "d": 508.7198958333465,
      "v": 127
    },
    {
      "midi": 67,
      "hit": false,
      "t": 217368.74406250005,
      "d": 436.04562499999884,
      "v": 121
    },
    {
      "midi": 69,
      "hit": false,
      "t": 217870.19653125005,
      "d": 479.6501874999958,
      "v": 118
    },
    {
      "midi": 70,
      "hit": false,
      "t": 218386.1838541667,
      "d": 465.11533333332045,
      "v": 127
    },
    {
      "midi": 72,
      "hit": false,
      "t": 218916.70603125004,
      "d": 443.3130520833365,
      "v": 121
    },
    {
      "midi": 74,
      "hit": false,
      "t": 219425.4259270834,
      "d": 486.9176145833335,
      "v": 127
    },
    {
      "midi": 75,
      "hit": false,
      "t": 219941.41325000004,
      "d": 450.5804791666742,
      "v": 118
    },
    {
      "midi": 74,
      "hit": false,
      "t": 220471.9354270833,
      "d": 501.45246875000885,
      "v": 124
    },
    {
      "midi": 74,
      "hit": false,
      "t": 220471.93542708337,
      "d": 465.11533333332045,
      "v": 124
    },
    {
      "midi": 72,
      "hit": false,
      "t": 220973.38789583332,
      "d": 406.9759166666772,
      "v": 121
    },
    {
      "midi": 72,
      "hit": false,
      "t": 220973.38789583335,
      "d": 305.2319375000079,
      "v": 121
    },
    {
      "midi": 70,
      "hit": false,
      "t": 221380.3638125,
      "d": 268.8948020833195,
      "v": 127
    },
    {
      "midi": 70,
      "hit": false,
      "t": 221380.36381250003,
      "d": 210.7553854166763,
      "v": 127
    },
    {
      "midi": 72,
      "hit": false,
      "t": 221649.25861458332,
      "d": 247.09252083333558,
      "v": 91
    },
    {
      "midi": 72,
      "hit": false,
      "t": 221649.25861458338,
      "d": 196.22053125000093,
      "v": 91
    },
    {
      "midi": 74,
      "hit": false,
      "t": 221896.35113541665,
      "d": 1329.9391562500095,
      "v": 127
    },
    {
      "midi": 74,
      "hit": false,
      "t": 221896.3511354167,
      "d": 1126.451197916671,
      "v": 127
    },
    {
      "midi": 79,
      "hit": false,
      "t": 223938.49814583332,
      "d": 704.9404270833475,
      "v": 127
    },
    {
      "midi": 79,
      "hit": false,
      "t": 223938.49814583338,
      "d": 704.9404270833475,
      "v": 127
    },
    {
      "midi": 77,
      "hit": false,
      "t": 224643.43857291667,
      "d": 508.7198958333465,
      "v": 127
    },
    {
      "midi": 77,
      "hit": false,
      "t": 224643.43857291673,
      "d": 494.18504166667117,
      "v": 127
    },
    {
      "midi": 72,
      "hit": false,
      "t": 225152.15846875,
      "d": 523.2547499999928,
      "v": 110
    },
    {
      "midi": 72,
      "hit": false,
      "t": 225152.15846875007,
      "d": 530.5221770833305,
      "v": 110
    },
    {
      "midi": 77,
      "hit": false,
      "t": 225675.41321875,
      "d": 363.37135416668025,
      "v": 127
    },
    {
      "midi": 77,
      "hit": false,
      "t": 225675.41321875007,
      "d": 356.10392708334257,
      "v": 127
    },
    {
      "midi": 74,
      "hit": false,
      "t": 226038.7845729167,
      "d": 1329.9391562500095,
      "v": 127
    },
    {
      "midi": 74,
      "hit": false,
      "t": 226038.78457291675,
      "d": 1329.9391562500095,
      "v": 127
    },
    {
      "midi": 65,
      "hit": false,
      "t": 228117.26871875004,
      "d": 181.68567708332557,
      "v": 122
    },
    {
      "midi": 65,
      "hit": false,
      "t": 228117.2687187501,
      "d": 159.88339583334164,
      "v": 122
    },
    {
      "midi": 67,
      "hit": false,
      "t": 228298.95439583337,
      "d": 174.4182499999879,
      "v": 118
    },
    {
      "midi": 67,
      "hit": false,
      "t": 228298.95439583345,
      "d": 130.81368749999092,
      "v": 118
    },
    {
      "midi": 69,
      "hit": false,
      "t": 228473.37264583335,
      "d": 174.4182499999879,
      "v": 114
    },
    {
      "midi": 69,
      "hit": false,
      "t": 228473.37264583344,
      "d": 196.22053125000093,
      "v": 114
    },
    {
      "midi": 65,
      "hit": false,
      "t": 228647.79089583334,
      "d": 203.4879583333386,
      "v": 89
    },
    {
      "midi": 65,
      "hit": false,
      "t": 228647.79089583343,
      "d": 174.418250000017,
      "v": 89
    },
    {
      "midi": 67,
      "hit": false,
      "t": 228851.27885416668,
      "d": 319.76679166665417,
      "v": 127
    },
    {
      "midi": 67,
      "hit": false,
      "t": 228851.27885416677,
      "d": 305.2319375000079,
      "v": 127
    },
    {
      "midi": 72,
      "hit": false,
      "t": 229171.04564583334,
      "d": 2427.3206458333298,
      "v": 118
    },
    {
      "midi": 72,
      "hit": false,
      "t": 229171.04564583345,
      "d": 2071.216718749987,
      "v": 118
    },
    {
      "midi": 73,
      "hit": false,
      "t": 231598.36629166667,
      "d": 1438.9505624999874,
      "v": 127
    },
    {
      "midi": 73,
      "hit": false,
      "t": 231598.36629166678,
      "d": 1402.6134270833281,
      "v": 127
    },
    {
      "midi": 74,
      "hit": false,
      "t": 233037.31685416665,
      "d": 4120.63115624999,
      "v": 124
    },
    {
      "midi": 74,
      "hit": false,
      "t": 233037.31685416677,
      "d": 2122.088708333322,
      "v": 124
    },
    {
      "midi": 79,
      "hit": false,
      "t": 238909.39793750003,
      "d": 87.20912499999395,
      "v": 115
    },
    {
      "midi": 82,
      "hit": false,
      "t": 238967.5373541667,
      "d": 79.94169791665627,
      "v": 94
    },
    {
      "midi": 79,
      "hit": false,
      "t": 238996.6070625001,
      "d": 87.20912499999395,
      "v": 50
    },
    {
      "midi": 84,
      "hit": false,
      "t": 239011.1419166667,
      "d": 72.67427083334769,
      "v": 122
    },
    {
      "midi": 82,
      "hit": false,
      "t": 239054.74647916676,
      "d": 79.94169791665627,
      "v": 40
    },
    {
      "midi": 86,
      "hit": false,
      "t": 239062.01390625004,
      "d": 50.87198958336376,
      "v": 127
    },
    {
      "midi": 91,
      "hit": false,
      "t": 239098.35104166673,
      "d": 58.13941666667233,
      "v": 120
    },
    {
      "midi": 84,
      "hit": false,
      "t": 239098.35104166676,
      "d": 72.67427083334769,
      "v": 54
    },
    {
      "midi": 94,
      "hit": false,
      "t": 239141.95560416672,
      "d": 58.13941666667233,
      "v": 120
    },
    {
      "midi": 86,
      "hit": false,
      "t": 239149.2230312501,
      "d": 50.87198958336376,
      "v": 60
    },
    {
      "midi": 91,
      "hit": false,
      "t": 239185.56016666678,
      "d": 58.13941666667233,
      "v": 51
    },
    {
      "midi": 96,
      "hit": false,
      "t": 239192.82759375006,
      "d": 58.13941666667233,
      "v": 127
    },
    {
      "midi": 98,
      "hit": false,
      "t": 239229.16472916672,
      "d": 58.13941666667233,
      "v": 127
    },
    {
      "midi": 94,
      "hit": false,
      "t": 239229.16472916678,
      "d": 58.13941666667233,
      "v": 51
    },
    {
      "midi": 101,
      "hit": false,
      "t": 239250.96701041673,
      "d": 72.67427083334769,
      "v": 124
    },
    {
      "midi": 96,
      "hit": false,
      "t": 239280.0367187501,
      "d": 58.13941666667233,
      "v": 56
    },
    {
      "midi": 103,
      "hit": false,
      "t": 239301.83900000007,
      "d": 203.48795833336771,
      "v": 127
    },
    {
      "midi": 98,
      "hit": false,
      "t": 239316.37385416677,
      "d": 58.13941666667233,
      "v": 58
    },
    {
      "midi": 101,
      "hit": false,
      "t": 239338.17613541678,
      "d": 72.67427083334769,
      "v": 54
    },
    {
      "midi": 101,
      "hit": false,
      "t": 239345.4435625001,
      "d": 65.40684375001001,
      "v": 127
    },
    {
      "midi": 103,
      "hit": false,
      "t": 239389.04812500012,
      "d": 203.48795833336771,
      "v": 61
    },
    {
      "midi": 98,
      "hit": false,
      "t": 239403.58297916676,
      "d": 65.40684375001001,
      "v": 127
    },
    {
      "midi": 101,
      "hit": false,
      "t": 239432.65268750014,
      "d": 65.40684375001001,
      "v": 56
    },
    {
      "midi": 96,
      "hit": false,
      "t": 239461.72239583344,
      "d": 50.87198958333465,
      "v": 120
    },
    {
      "midi": 98,
      "hit": false,
      "t": 239490.79210416682,
      "d": 65.40684375001001,
      "v": 62
    },
    {
      "midi": 94,
      "hit": false,
      "t": 239512.59438541677,
      "d": 50.87198958333465,
      "v": 115
    },
    {
      "midi": 96,
      "hit": false,
      "t": 239548.9315208335,
      "d": 50.87198958333465,
      "v": 51
    },
    {
      "midi": 93,
      "hit": false,
      "t": 239556.19894791677,
      "d": 50.87198958333465,
      "v": 115
    },
    {
      "midi": 94,
      "hit": false,
      "t": 239599.80351041682,
      "d": 50.87198958333465,
      "v": 50
    },
    {
      "midi": 91,
      "hit": false,
      "t": 239614.33836458344,
      "d": 79.94169791665627,
      "v": 127
    },
    {
      "midi": 93,
      "hit": false,
      "t": 239643.40807291682,
      "d": 50.87198958333465,
      "v": 50
    },
    {
      "midi": 96,
      "hit": false,
      "t": 239694.2800625001,
      "d": 58.13941666667233,
      "v": 127
    },
    {
      "midi": 91,
      "hit": false,
      "t": 239701.5474895835,
      "d": 79.94169791665627,
      "v": 58
    },
    {
      "midi": 94,
      "hit": false,
      "t": 239752.41947916677,
      "d": 58.13941666667233,
      "v": 124
    },
    {
      "midi": 96,
      "hit": false,
      "t": 239781.48918750015,
      "d": 58.13941666667233,
      "v": 60
    },
    {
      "midi": 93,
      "hit": false,
      "t": 239803.2914687501,
      "d": 65.40684375001001,
      "v": 111
    },
    {
      "midi": 94,
      "hit": false,
      "t": 239839.62860416682,
      "d": 58.13941666667233,
      "v": 54
    },
    {
      "midi": 91,
      "hit": false,
      "t": 239861.43088541678,
      "d": 58.13941666667233,
      "v": 122
    },
    {
      "midi": 93,
      "hit": false,
      "t": 239890.50059375016,
      "d": 65.40684375001001,
      "v": 49
    },
    {
      "midi": 89,
      "hit": false,
      "t": 239912.3028750001,
      "d": 65.40684375001001,
      "v": 115
    },
    {
      "midi": 91,
      "hit": false,
      "t": 239948.64001041683,
      "d": 58.13941666667233,
      "v": 54
    },
    {
      "midi": 86,
      "hit": false,
      "t": 239977.70971875012,
      "d": 152.61596875000396,
      "v": 115
    },
    {
      "midi": 89,
      "hit": false,
      "t": 239999.51200000016,
      "d": 65.40684375001001,
      "v": 50
    },
    {
      "midi": 89,
      "hit": false,
      "t": 240028.58170833346,
      "d": 50.87198958333465,
      "v": 126
    },
    {
      "midi": 86,
      "hit": false,
      "t": 240064.91884375017,
      "d": 152.61596875000396,
      "v": 50
    },
    {
      "midi": 91,
      "hit": false,
      "t": 240079.4536979168,
      "d": 58.13941666667233,
      "v": 127
    },
    {
      "midi": 89,
      "hit": false,
      "t": 240115.7908333335,
      "d": 50.87198958333465,
      "v": 55
    },
    {
      "midi": 93,
      "hit": false,
      "t": 240130.32568750012,
      "d": 72.67427083334769,
      "v": 124
    },
    {
      "midi": 91,
      "hit": false,
      "t": 240166.66282291684,
      "d": 58.13941666667233,
      "v": 62
    },
    {
      "midi": 93,
      "hit": false,
      "t": 240217.53481250018,
      "d": 72.67427083334769,
      "v": 54
    },
    {
      "midi": 94,
      "hit": false,
      "t": 240224.80223958349,
      "d": 72.67427083334769,
      "v": 117
    },
    {
      "midi": 93,
      "hit": false,
      "t": 240282.94165625016,
      "d": 65.40684375001001,
      "v": 115
    },
    {
      "midi": 94,
      "hit": false,
      "t": 240312.01136458354,
      "d": 72.67427083334769,
      "v": 51
    },
    {
      "midi": 91,
      "hit": false,
      "t": 240333.8136458335,
      "d": 58.13941666667233,
      "v": 115
    },
    {
      "midi": 93,
      "hit": false,
      "t": 240370.1507812502,
      "d": 65.40684375001001,
      "v": 50
    },
    {
      "midi": 89,
      "hit": false,
      "t": 240391.95306250016,
      "d": 50.87198958333465,
      "v": 113
    },
    {
      "midi": 91,
      "hit": false,
      "t": 240421.02277083354,
      "d": 58.13941666667233,
      "v": 50
    },
    {
      "midi": 86,
      "hit": false,
      "t": 240435.55762500016,
      "d": 72.67427083334769,
      "v": 127
    },
    {
      "midi": 89,
      "hit": false,
      "t": 240479.16218750022,
      "d": 50.87198958333465,
      "v": 49
    },
    {
      "midi": 84,
      "hit": false,
      "t": 240493.69704166683,
      "d": 50.87198958333465,
      "v": 127
    },
    {
      "midi": 86,
      "hit": false,
      "t": 240522.7667500002,
      "d": 72.67427083334769,
      "v": 58
    },
    {
      "midi": 82,
      "hit": false,
      "t": 240537.30160416683,
      "d": 58.13941666667233,
      "v": 113
    },
    {
      "midi": 84,
      "hit": false,
      "t": 240580.9061666669,
      "d": 50.87198958333465,
      "v": 57
    },
    {
      "midi": 79,
      "hit": false,
      "t": 240595.4410208335,
      "d": 58.13941666667233,
      "v": 120
    },
    {
      "midi": 82,
      "hit": false,
      "t": 240624.51072916688,
      "d": 58.13941666667233,
      "v": 49
    },
    {
      "midi": 77,
      "hit": false,
      "t": 240646.31301041684,
      "d": 43.60456249999697,
      "v": 124
    },
    {
      "midi": 79,
      "hit": false,
      "t": 240682.65014583356,
      "d": 58.13941666667233,
      "v": 51
    },
    {
      "midi": 79,
      "hit": false,
      "t": 240697.18500000017,
      "d": 254.35994791667326,
      "v": 127
    },
    {
      "midi": 77,
      "hit": false,
      "t": 240733.5221354169,
      "d": 43.60456249999697,
      "v": 49
    },
    {
      "midi": 79,
      "hit": false,
      "t": 240784.39412500022,
      "d": 254.35994791667326,
      "v": 48
    }
  ]
}