{
  "jsonPath": "Rock/Italian Pop Rock/Zucchero/baila-sexy-thing.json",
  "path": "Rock\\Italian Pop Rock\\Zucchero\\Baila Sexy Thing.mid",
  "name": "Baila Sexy Thing",
  "difficulty": "Advanced",
  "bpm": 121.00043156820593,
  "notes": [
    {
      "midi": 55,
      "hit": false,
      "t": 5702.459000000001,
      "d": 351.23841666666704,
      "v": 123
    },
    {
      "midi": 65,
      "hit": false,
      "t": 5702.459000000001,
      "d": 374.482135416667,
      "v": 127
    },
    {
      "midi": 58,
      "hit": false,
      "t": 5702.459000000001,
      "d": 379.64740625000013,
      "v": 116
    },
    {
      "midi": 43,
      "hit": false,
      "t": 5950.392000000001,
      "d": 201.44556250000005,
      "v": 112
    },
    {
      "midi": 55,
      "hit": false,
      "t": 6198.325000000001,
      "d": 72.31379166666648,
      "v": 91
    },
    {
      "midi": 62,
      "hit": false,
      "t": 6443.675364583334,
      "d": 111.05332291666673,
      "v": 116
    },
    {
      "midi": 58,
      "hit": false,
      "t": 6443.675364583334,
      "d": 118.80122916666642,
      "v": 104
    },
    {
      "midi": 43,
      "hit": false,
      "t": 6443.675364583334,
      "d": 235.01982291666627,
      "v": 115
    },
    {
      "midi": 55,
      "hit": false,
      "t": 6446.258000000001,
      "d": 113.63595833333329,
      "v": 102
    },
    {
      "midi": 55,
      "hit": false,
      "t": 6691.608364583334,
      "d": 90.39223958333332,
      "v": 99
    },
    {
      "midi": 55,
      "hit": false,
      "t": 6939.541364583334,
      "d": 113.63595833333329,
      "v": 102
    },
    {
      "midi": 58,
      "hit": false,
      "t": 6939.541364583334,
      "d": 118.80122916666642,
      "v": 97
    },
    {
      "midi": 62,
      "hit": false,
      "t": 6939.541364583334,
      "d": 136.87967708333326,
      "v": 112
    },
    {
      "midi": 43,
      "hit": false,
      "t": 6939.541364583334,
      "d": 224.68928125000002,
      "v": 109
    },
    {
      "midi": 55,
      "hit": false,
      "t": 7187.474364583334,
      "d": 90.39223958333332,
      "v": 119
    },
    {
      "midi": 60,
      "hit": false,
      "t": 7187.474364583334,
      "d": 116.21859374999985,
      "v": 127
    },
    {
      "midi": 64,
      "hit": false,
      "t": 7187.474364583334,
      "d": 126.5491354166661,
      "v": 127
    },
    {
      "midi": 43,
      "hit": false,
      "t": 7435.407364583333,
      "d": 258.26354166666624,
      "v": 115
    },
    {
      "midi": 55,
      "hit": false,
      "t": 7685.923,
      "d": 92.97487499999988,
      "v": 99
    },
    {
      "midi": 58,
      "hit": false,
      "t": 7931.273364583333,
      "d": 108.47068750000017,
      "v": 96
    },
    {
      "midi": 62,
      "hit": false,
      "t": 7931.273364583333,
      "d": 116.21859374999985,
      "v": 109
    },
    {
      "midi": 43,
      "hit": false,
      "t": 7931.273364583333,
      "d": 245.35036458333343,
      "v": 117
    },
    {
      "midi": 55,
      "hit": false,
      "t": 7933.856,
      "d": 108.47068750000017,
      "v": 87
    },
    {
      "midi": 55,
      "hit": false,
      "t": 8179.206364583333,
      "d": 92.97487499999988,
      "v": 98
    },
    {
      "midi": 58,
      "hit": false,
      "t": 8179.206364583333,
      "d": 105.8880520833336,
      "v": 102
    },
    {
      "midi": 62,
      "hit": false,
      "t": 8179.206364583333,
      "d": 116.21859374999985,
      "v": 115
    },
    {
      "midi": 62,
      "hit": false,
      "t": 8427.139364583332,
      "d": 85.2269687500011,
      "v": 124
    },
    {
      "midi": 43,
      "hit": false,
      "t": 8427.139364583332,
      "d": 237.60245833333465,
      "v": 113
    },
    {
      "midi": 58,
      "hit": false,
      "t": 8429.722,
      "d": 51.65270833333307,
      "v": 110
    },
    {
      "midi": 55,
      "hit": false,
      "t": 8429.722,
      "d": 56.81797916666619,
      "v": 108
    },
    {
      "midi": 55,
      "hit": false,
      "t": 8677.655,
      "d": 454.54383333333317,
      "v": 126
    },
    {
      "midi": 60,
      "hit": false,
      "t": 8677.655,
      "d": 454.54383333333317,
      "v": 127
    },
    {
      "midi": 64,
      "hit": false,
      "t": 8680.237635416668,
      "d": 446.7959270833326,
      "v": 127
    },
    {
      "midi": 43,
      "hit": false,
      "t": 8923.005364583334,
      "d": 245.35036458333343,
      "v": 114
    },
    {
      "midi": 55,
      "hit": false,
      "t": 9176.103635416668,
      "d": 54.23534375000054,
      "v": 96
    },
    {
      "midi": 43,
      "hit": false,
      "t": 9418.871364583336,
      "d": 204.0281979166666,
      "v": 119
    },
    {
      "midi": 62,
      "hit": false,
      "t": 9418.871364583336,
      "d": 214.35873958333286,
      "v": 126
    },
    {
      "midi": 65,
      "hit": false,
      "t": 9418.871364583336,
      "d": 214.35873958333286,
      "v": 127
    },
    {
      "midi": 55,
      "hit": false,
      "t": 9666.804364583335,
      "d": 379.64740625000013,
      "v": 109
    },
    {
      "midi": 43,
      "hit": false,
      "t": 9917.320000000002,
      "d": 201.44556250000096,
      "v": 115
    },
    {
      "midi": 55,
      "hit": false,
      "t": 10162.670364583335,
      "d": 121.38386458333298,
      "v": 113
    },
    {
      "midi": 62,
      "hit": false,
      "t": 10410.603364583334,
      "d": 204.0281979166666,
      "v": 127
    },
    {
      "midi": 65,
      "hit": false,
      "t": 10410.603364583334,
      "d": 206.61083333333409,
      "v": 127
    },
    {
      "midi": 43,
      "hit": false,
      "t": 10410.603364583334,
      "d": 235.01982291666718,
      "v": 118
    },
    {
      "midi": 55,
      "hit": false,
      "t": 10658.536364583335,
      "d": 154.9581249999992,
      "v": 120
    },
    {
      "midi": 43,
      "hit": false,
      "t": 10906.469364583334,
      "d": 224.6892812499991,
      "v": 112
    },
    {
      "midi": 58,
      "hit": false,
      "t": 11154.402364583333,
      "d": 121.3838645833348,
      "v": 127
    },
    {
      "midi": 65,
      "hit": false,
      "t": 11154.402364583333,
      "d": 139.46231250000164,
      "v": 127
    },
    {
      "midi": 62,
      "hit": false,
      "t": 11162.150270833334,
      "d": 121.3838645833348,
      "v": 106
    },
    {
      "midi": 43,
      "hit": false,
      "t": 11402.335364583334,
      "d": 258.26354166666715,
      "v": 114
    },
    {
      "midi": 55,
      "hit": false,
      "t": 11655.433635416668,
      "d": 121.38386458333298,
      "v": 107
    },
    {
      "midi": 43,
      "hit": false,
      "t": 11898.201364583334,
      "d": 245.35036458333525,
      "v": 111
    },
    {
      "midi": 62,
      "hit": false,
      "t": 11903.366635416667,
      "d": 206.61083333333409,
      "v": 123
    },
    {
      "midi": 65,
      "hit": false,
      "t": 11903.366635416667,
      "d": 209.19346875000156,
      "v": 122
    },
    {
      "midi": 60,
      "hit": false,
      "t": 12391.48472916667,
      "d": 247.9330000000009,
      "v": 127
    },
    {
      "midi": 64,
      "hit": false,
      "t": 12391.48472916667,
      "d": 247.9330000000009,
      "v": 122
    },
    {
      "midi": 43,
      "hit": false,
      "t": 12394.067364583338,
      "d": 237.60245833333283,
      "v": 116
    },
    {
      "midi": 55,
      "hit": false,
      "t": 12639.417729166671,
      "d": 157.54076041666667,
      "v": 120
    },
    {
      "midi": 43,
      "hit": false,
      "t": 12889.933364583338,
      "d": 245.35036458333707,
      "v": 119
    },
    {
      "midi": 59,
      "hit": false,
      "t": 12892.516000000005,
      "d": 80.06169791666798,
      "v": 101
    },
    {
      "midi": 62,
      "hit": false,
      "t": 12895.098635416673,
      "d": 80.06169791666798,
      "v": 102
    },
    {
      "midi": 55,
      "hit": false,
      "t": 13145.614270833341,
      "d": 333.159968750002,
      "v": 127
    },
    {
      "midi": 60,
      "hit": false,
      "t": 13148.196906250008,
      "d": 348.6557812500014,
      "v": 127
    },
    {
      "midi": 64,
      "hit": false,
      "t": 13150.779541666676,
      "d": 340.9078750000008,
      "v": 127
    },
    {
      "midi": 43,
      "hit": false,
      "t": 13385.799364583343,
      "d": 204.0281979166666,
      "v": 117
    },
    {
      "midi": 58,
      "hit": false,
      "t": 13646.645541666676,
      "d": 408.0563958333332,
      "v": 114
    },
    {
      "midi": 62,
      "hit": false,
      "t": 13646.645541666676,
      "d": 415.8043020833338,
      "v": 127
    },
    {
      "midi": 43,
      "hit": false,
      "t": 13884.248000000009,
      "d": 201.44556250000096,
      "v": 115
    },
    {
      "midi": 55,
      "hit": false,
      "t": 14132.18100000001,
      "d": 129.13177083333358,
      "v": 109
    },
    {
      "midi": 43,
      "hit": false,
      "t": 14377.531364583343,
      "d": 235.01982291666718,
      "v": 113
    },
    {
      "midi": 55,
      "hit": false,
      "t": 14380.11400000001,
      "d": 111.05332291666673,
      "v": 98
    },
    {
      "midi": 58,
      "hit": false,
      "t": 14380.11400000001,
      "d": 162.7060312499998,
      "v": 103
    },
    {
      "midi": 65,
      "hit": false,
      "t": 14380.11400000001,
      "d": 183.3671145833323,
      "v": 124
    },
    {
      "midi": 55,
      "hit": false,
      "t": 14630.629635416677,
      "d": 105.8880520833336,
      "v": 75
    },
    {
      "midi": 55,
      "hit": false,
      "t": 14873.397364583345,
      "d": 152.37548958333355,
      "v": 116
    },
    {
      "midi": 43,
      "hit": false,
      "t": 14873.397364583345,
      "d": 224.68928125000093,
      "v": 111
    },
    {
      "midi": 58,
      "hit": false,
      "t": 15126.495635416679,
      "d": 206.61083333333409,
      "v": 112
    },
    {
      "midi": 65,
      "hit": false,
      "t": 15126.495635416679,
      "d": 235.01982291666718,
      "v": 126
    },
    {
      "midi": 43,
      "hit": false,
      "t": 15369.263364583347,
      "d": 258.26354166666715,
      "v": 108
    },
    {
      "midi": 55,
      "hit": false,
      "t": 15619.779000000013,
      "d": 108.47068750000108,
      "v": 97
    },
    {
      "midi": 43,
      "hit": false,
      "t": 15865.129364583348,
      "d": 245.35036458333343,
      "v": 118
    },
    {
      "midi": 55,
      "hit": false,
      "t": 16110.479729166682,
      "d": 129.13177083333358,
      "v": 107
    },
    {
      "midi": 58,
      "hit": false,
      "t": 16358.412729166683,
      "d": 165.28866666666545,
      "v": 107
    },
    {
      "midi": 55,
      "hit": false,
      "t": 16360.99536458335,
      "d": 108.47068749999926,
      "v": 91
    },
    {
      "midi": 65,
      "hit": false,
      "t": 16360.99536458335,
      "d": 183.36711458333048,
      "v": 125
    },
    {
      "midi": 43,
      "hit": false,
      "t": 16360.99536458335,
      "d": 237.6024583333292,
      "v": 111
    },
    {
      "midi": 55,
      "hit": false,
      "t": 16608.928364583346,
      "d": 105.8880520833336,
      "v": 74
    },
    {
      "midi": 55,
      "hit": false,
      "t": 16854.27872916668,
      "d": 152.37548958333355,
      "v": 120
    },
    {
      "midi": 43,
      "hit": false,
      "t": 16856.861364583347,
      "d": 245.35036458333343,
      "v": 119
    },
    {
      "midi": 63,
      "hit": false,
      "t": 17102.21172916668,
      "d": 33.57426041666622,
      "v": 113
    },
    {
      "midi": 60,
      "hit": false,
      "t": 17104.794364583347,
      "d": 281.5072604166635,
      "v": 127
    },
    {
      "midi": 64,
      "hit": false,
      "t": 17117.70754166668,
      "d": 253.09827083332857,
      "v": 127
    },
    {
      "midi": 43,
      "hit": false,
      "t": 17352.727364583345,
      "d": 204.0281979166648,
      "v": 121
    },
    {
      "midi": 61,
      "hit": false,
      "t": 17590.329822916676,
      "d": 36.15689583333369,
      "v": 117
    },
    {
      "midi": 58,
      "hit": false,
      "t": 17590.329822916676,
      "d": 297.0030729166683,
      "v": 113
    },
    {
      "midi": 55,
      "hit": false,
      "t": 17600.660364583342,
      "d": 105.8880520833336,
      "v": 97
    },
    {
      "midi": 62,
      "hit": false,
      "t": 17603.24300000001,
      "d": 400.30848958333445,
      "v": 127
    },
    {
      "midi": 43,
      "hit": false,
      "t": 17851.17600000001,
      "d": 201.44556250000096,
      "v": 117
    },
    {
      "midi": 55,
      "hit": false,
      "t": 18096.526364583344,
      "d": 100.72278124999866,
      "v": 105
    },
    {
      "midi": 60,
      "hit": false,
      "t": 18328.963552083344,
      "d": 320.24679166666465,
      "v": 127
    },
    {
      "midi": 55,
      "hit": false,
      "t": 18344.459364583345,
      "d": 87.80960416666494,
      "v": 96
    },
    {
      "midi": 43,
      "hit": false,
      "t": 18344.459364583345,
      "d": 235.01982291666354,
      "v": 120
    },
    {
      "midi": 55,
      "hit": false,
      "t": 18592.392364583342,
      "d": 85.2269687500011,
      "v": 89
    },
    {
      "midi": 55,
      "hit": false,
      "t": 18840.325364583343,
      "d": 90.39223958333241,
      "v": 112
    },
    {
      "midi": 43,
      "hit": false,
      "t": 18840.325364583343,
      "d": 224.6892812499973,
      "v": 111
    },
    {
      "midi": 55,
      "hit": false,
      "t": 19090.841000000008,
      "d": 77.47906250000233,
      "v": 110
    },
    {
      "midi": 62,
      "hit": false,
      "t": 19096.006270833343,
      "d": 134.29704166666852,
      "v": 126
    },
    {
      "midi": 55,
      "hit": false,
      "t": 19336.191364583345,
      "d": 87.80960416666494,
      "v": 98
    },
    {
      "midi": 43,
      "hit": false,
      "t": 19336.191364583345,
      "d": 258.26354166666715,
      "v": 112
    },
    {
      "midi": 58,
      "hit": false,
      "t": 19578.95909375001,
      "d": 162.70603125000343,
      "v": 114
    },
    {
      "midi": 55,
      "hit": false,
      "t": 19584.124364583346,
      "d": 85.2269687500011,
      "v": 100
    },
    {
      "midi": 43,
      "hit": false,
      "t": 19832.057364583346,
      "d": 245.35036458333343,
      "v": 114
    },
    {
      "midi": 55,
      "hit": false,
      "t": 20327.92336458335,
      "d": 85.2269687500011,
      "v": 95
    },
    {
      "midi": 43,
      "hit": false,
      "t": 20327.92336458335,
      "d": 237.60245833333101,
      "v": 117
    },
    {
      "midi": 65,
      "hit": false,
      "t": 20330.506000000016,
      "d": 123.96649999999863,
      "v": 127
    },
    {
      "midi": 55,
      "hit": false,
      "t": 20575.856364583346,
      "d": 85.2269687500011,
      "v": 85
    },
    {
      "midi": 55,
      "hit": false,
      "t": 20823.789364583346,
      "d": 74.89642708333486,
      "v": 108
    },
    {
      "midi": 43,
      "hit": false,
      "t": 20823.789364583346,
      "d": 245.35036458333343,
      "v": 115
    },
    {
      "midi": 55,
      "hit": false,
      "t": 21069.13972916668,
      "d": 77.47906249999869,
      "v": 107
    },
    {
      "midi": 64,
      "hit": false,
      "t": 21079.470270833346,
      "d": 276.3419895833322,
      "v": 127
    },
    {
      "midi": 60,
      "hit": false,
      "t": 21079.470270833346,
      "d": 278.92462499999965,
      "v": 127
    },
    {
      "midi": 55,
      "hit": false,
      "t": 21319.655364583345,
      "d": 103.30541666666613,
      "v": 101
    },
    {
      "midi": 43,
      "hit": false,
      "t": 21319.655364583345,
      "d": 204.0281979166648,
      "v": 119
    },
    {
      "midi": 55,
      "hit": false,
      "t": 21567.588364583342,
      "d": 85.2269687500011,
      "v": 102
    },
    {
      "midi": 58,
      "hit": false,
      "t": 21572.753635416677,
      "d": 255.68090624999968,
      "v": 113
    },
    {
      "midi": 62,
      "hit": false,
      "t": 21572.753635416677,
      "d": 271.1767187500009,
      "v": 127
    },
    {
      "midi": 43,
      "hit": false,
      "t": 21818.10400000001,
      "d": 201.44556250000096,
      "v": 116
    },
    {
      "midi": 55,
      "hit": false,
      "t": 22066.03700000001,
      "d": 72.31379166666738,
      "v": 88
    },
    {
      "midi": 58,
      "hit": false,
      "t": 22311.387364583345,
      "d": 118.80122916667096,
      "v": 104
    },
    {
      "midi": 43,
      "hit": false,
      "t": 22311.387364583345,
      "d": 235.01982291667082,
      "v": 120
    },
    {
      "midi": 55,
      "hit": false,
      "t": 22313.970000000012,
      "d": 113.63595833333602,
      "v": 103
    },
    {
      "midi": 65,
      "hit": false,
      "t": 22319.135270833347,
      "d": 111.05332291666855,
      "v": 111
    },
    {
      "midi": 55,
      "hit": false,
      "t": 22559.32036458335,
      "d": 90.39223958333241,
      "v": 99
    },
    {
      "midi": 55,
      "hit": false,
      "t": 22807.253364583346,
      "d": 113.63595833333238,
      "v": 100
    },
    {
      "midi": 43,
      "hit": false,
      "t": 22807.253364583346,
      "d": 224.6892812499973,
      "v": 110
    },
    {
      "midi": 65,
      "hit": false,
      "t": 23052.603729166676,
      "d": 123.96650000000227,
      "v": 115
    },
    {
      "midi": 55,
      "hit": false,
      "t": 23055.186364583344,
      "d": 90.39223958333241,
      "v": 122
    },
    {
      "midi": 62,
      "hit": false,
      "t": 23055.186364583344,
      "d": 116.21859374999985,
      "v": 113
    },
    {
      "midi": 43,
      "hit": false,
      "t": 23303.119364583345,
      "d": 258.26354166666715,
      "v": 108
    },
    {
      "midi": 55,
      "hit": false,
      "t": 23305.702000000012,
      "d": 196.28029166666602,
      "v": 100
    },
    {
      "midi": 65,
      "hit": false,
      "t": 23548.469729166678,
      "d": 123.96650000000227,
      "v": 110
    },
    {
      "midi": 55,
      "hit": false,
      "t": 23551.052364583345,
      "d": 90.39223958333241,
      "v": 124
    },
    {
      "midi": 62,
      "hit": false,
      "t": 23551.052364583345,
      "d": 116.21859374999985,
      "v": 112
    },
    {
      "midi": 43,
      "hit": false,
      "t": 23798.985364583346,
      "d": 245.35036458333343,
      "v": 115
    },
    {
      "midi": 55,
      "hit": false,
      "t": 23801.568000000014,
      "d": 108.47068750000108,
      "v": 86
    },
    {
      "midi": 55,
      "hit": false,
      "t": 24046.918364583347,
      "d": 92.97487499999988,
      "v": 100
    },
    {
      "midi": 65,
      "hit": false,
      "t": 24294.85136458335,
      "d": 173.03657291666605,
      "v": 127
    },
    {
      "midi": 43,
      "hit": false,
      "t": 24294.85136458335,
      "d": 237.60245833333101,
      "v": 118
    },
    {
      "midi": 55,
      "hit": false,
      "t": 24297.434000000016,
      "d": 56.81797916666619,
      "v": 108
    },
    {
      "midi": 62,
      "hit": false,
      "t": 24297.434000000016,
      "d": 160.12339583333232,
      "v": 127
    },
    {
      "midi": 55,
      "hit": false,
      "t": 24545.367000000013,
      "d": 108.47068750000108,
      "v": 90
    },
    {
      "midi": 60,
      "hit": false,
      "t": 24550.532270833348,
      "d": 513.9444479166668,
      "v": 127
    },
    {
      "midi": 64,
      "hit": false,
      "t": 24550.532270833348,
      "d": 532.0228958333319,
      "v": 122
    },
    {
      "midi": 55,
      "hit": false,
      "t": 24782.969458333348,
      "d": 111.05332291666491,
      "v": 91
    },
    {
      "midi": 43,
      "hit": false,
      "t": 24790.717364583346,
      "d": 245.35036458333343,
      "v": 119
    },
    {
      "midi": 55,
      "hit": false,
      "t": 25030.902458333345,
      "d": 92.97487499999988,
      "v": 94
    },
    {
      "midi": 55,
      "hit": false,
      "t": 25281.418093750013,
      "d": 59.40061458333366,
      "v": 114
    },
    {
      "midi": 60,
      "hit": false,
      "t": 25284.00072916668,
      "d": 170.45393749999857,
      "v": 126
    },
    {
      "midi": 64,
      "hit": false,
      "t": 25284.00072916668,
      "d": 173.03657291666605,
      "v": 117
    },
    {
      "midi": 43,
      "hit": false,
      "t": 25286.583364583348,
      "d": 204.0281979166648,
      "v": 119
    },
    {
      "midi": 55,
      "hit": false,
      "t": 25526.768458333347,
      "d": 111.05332291666491,
      "v": 88
    },
    {
      "midi": 62,
      "hit": false,
      "t": 25534.516364583345,
      "d": 157.54076041666485,
      "v": 122
    },
    {
      "midi": 55,
      "hit": false,
      "t": 25779.866729166675,
      "d": 108.47068750000108,
      "v": 89
    },
    {
      "midi": 43,
      "hit": false,
      "t": 25785.03200000001,
      "d": 201.44556250000096,
      "v": 112
    },
    {
      "midi": 55,
      "hit": false,
      "t": 26027.799729166676,
      "d": 92.97487499999988,
      "v": 95
    },
    {
      "midi": 55,
      "hit": false,
      "t": 26278.315364583344,
      "d": 59.40061458333366,
      "v": 115
    },
    {
      "midi": 43,
      "hit": false,
      "t": 26278.315364583344,
      "d": 235.01982291667082,
      "v": 115
    },
    {
      "midi": 62,
      "hit": false,
      "t": 26280.898000000012,
      "d": 185.94974999999977,
      "v": 127
    },
    {
      "midi": 58,
      "hit": false,
      "t": 26280.898000000012,
      "d": 193.69765625000218,
      "v": 118
    },
    {
      "midi": 65,
      "hit": false,
      "t": 26283.48063541668,
      "d": 188.53238541666724,
      "v": 126
    },
    {
      "midi": 55,
      "hit": false,
      "t": 26526.24836458335,
      "d": 108.47068750000108,
      "v": 89
    },
    {
      "midi": 55,
      "hit": false,
      "t": 26774.18136458335,
      "d": 108.47068750000108,
      "v": 86
    },
    {
      "midi": 43,
      "hit": false,
      "t": 26774.18136458335,
      "d": 224.68928125000093,
      "v": 108
    },
    {
      "midi": 58,
      "hit": false,
      "t": 27014.366458333352,
      "d": 147.21021875000224,
      "v": 106
    },
    {
      "midi": 62,
      "hit": false,
      "t": 27016.94909375002,
      "d": 152.37548958333355,
      "v": 125
    },
    {
      "midi": 65,
      "hit": false,
      "t": 27016.94909375002,
      "d": 157.5407604166685,
      "v": 127
    },
    {
      "midi": 55,
      "hit": false,
      "t": 27022.114364583354,
      "d": 90.39223958333241,
      "v": 99
    },
    {
      "midi": 55,
      "hit": false,
      "t": 27270.047364583355,
      "d": 59.40061458333366,
      "v": 113
    },
    {
      "midi": 43,
      "hit": false,
      "t": 27270.047364583355,
      "d": 258.2635416666708,
      "v": 109
    },
    {
      "midi": 55,
      "hit": false,
      "t": 27517.980364583356,
      "d": 108.47068750000471,
      "v": 90
    },
    {
      "midi": 58,
      "hit": false,
      "t": 27520.563000000024,
      "d": 123.96650000000591,
      "v": 103
    },
    {
      "midi": 65,
      "hit": false,
      "t": 27523.14563541669,
      "d": 126.54913541667338,
      "v": 124
    },
    {
      "midi": 62,
      "hit": false,
      "t": 27525.72827083336,
      "d": 103.30541666666977,
      "v": 120
    },
    {
      "midi": 43,
      "hit": false,
      "t": 27765.913364583364,
      "d": 245.35036458333343,
      "v": 119
    },
    {
      "midi": 55,
      "hit": false,
      "t": 27771.0786354167,
      "d": 111.05332291666491,
      "v": 88
    },
    {
      "midi": 55,
      "hit": false,
      "t": 28019.011635416697,
      "d": 92.97487499999988,
      "v": 100
    },
    {
      "midi": 62,
      "hit": false,
      "t": 28256.61409375003,
      "d": 162.70603125000343,
      "v": 127
    },
    {
      "midi": 65,
      "hit": false,
      "t": 28256.61409375003,
      "d": 173.03657291666968,
      "v": 123
    },
    {
      "midi": 43,
      "hit": false,
      "t": 28261.779364583366,
      "d": 237.60245833333465,
      "v": 118
    },
    {
      "midi": 55,
      "hit": false,
      "t": 28264.362000000034,
      "d": 59.40061458333366,
      "v": 109
    },
    {
      "midi": 60,
      "hit": false,
      "t": 28507.1297291667,
      "d": 516.5270833333343,
      "v": 122
    },
    {
      "midi": 64,
      "hit": false,
      "t": 28507.1297291667,
      "d": 534.6055312499993,
      "v": 125
    },
    {
      "midi": 55,
      "hit": false,
      "t": 28512.295000000035,
      "d": 111.05332291666491,
      "v": 87
    },
    {
      "midi": 43,
      "hit": false,
      "t": 28757.645364583364,
      "d": 245.35036458333343,
      "v": 118
    },
    {
      "midi": 55,
      "hit": false,
      "t": 28760.228000000032,
      "d": 108.47068750000108,
      "v": 92
    },
    {
      "midi": 55,
      "hit": false,
      "t": 29008.161000000033,
      "d": 92.97487499999988,
      "v": 127
    },
    {
      "midi": 62,
      "hit": false,
      "t": 29248.34609375003,
      "d": 260.84617708333826,
      "v": 119
    },
    {
      "midi": 65,
      "hit": false,
      "t": 29248.34609375003,
      "d": 260.84617708333826,
      "v": 123
    },
    {
      "midi": 43,
      "hit": false,
      "t": 29253.511364583366,
      "d": 204.02819791666843,
      "v": 120
    },
    {
      "midi": 55,
      "hit": false,
      "t": 29256.094000000034,
      "d": 59.40061458333366,
      "v": 113
    },
    {
      "midi": 55,
      "hit": false,
      "t": 29504.027000000035,
      "d": 237.60245833333465,
      "v": 127
    },
    {
      "midi": 43,
      "hit": false,
      "t": 29751.960000000036,
      "d": 201.44556250000096,
      "v": 116
    },
    {
      "midi": 55,
      "hit": false,
      "t": 29999.893000000036,
      "d": 129.13177083333358,
      "v": 104
    },
    {
      "midi": 43,
      "hit": false,
      "t": 30245.24336458337,
      "d": 235.01982291666718,
      "v": 114
    },
    {
      "midi": 55,
      "hit": false,
      "t": 30247.826000000037,
      "d": 111.05332291666491,
      "v": 94
    },
    {
      "midi": 58,
      "hit": false,
      "t": 30247.826000000037,
      "d": 162.7060312499998,
      "v": 103
    },
    {
      "midi": 65,
      "hit": false,
      "t": 30247.826000000037,
      "d": 183.3671145833323,
      "v": 119
    },
    {
      "midi": 55,
      "hit": false,
      "t": 30498.341635416702,
      "d": 105.8880520833336,
      "v": 75
    },
    {
      "midi": 55,
      "hit": false,
      "t": 30741.109364583368,
      "d": 152.37548958333355,
      "v": 119
    },
    {
      "midi": 43,
      "hit": false,
      "t": 30741.109364583368,
      "d": 224.68928125000093,
      "v": 113
    },
    {
      "midi": 58,
      "hit": false,
      "t": 30994.207635416704,
      "d": 206.61083333333227,
      "v": 116
    },
    {
      "midi": 65,
      "hit": false,
      "t": 30994.207635416704,
      "d": 235.01982291666718,
      "v": 126
    },
    {
      "midi": 43,
      "hit": false,
      "t": 31236.97536458337,
      "d": 258.2635416666708,
      "v": 111
    },
    {
      "midi": 62,
      "hit": false,
      "t": 31244.72327083337,
      "d": 227.2719166666684,
      "v": 105
    },
    {
      "midi": 55,
      "hit": false,
      "t": 31487.49100000004,
      "d": 108.47068750000108,
      "v": 105
    },
    {
      "midi": 62,
      "hit": false,
      "t": 31490.073635416706,
      "d": 105.8880520833336,
      "v": 92
    },
    {
      "midi": 43,
      "hit": false,
      "t": 31732.84136458337,
      "d": 245.35036458333707,
      "v": 117
    },
    {
      "midi": 58,
      "hit": false,
      "t": 31738.006635416707,
      "d": 178.201843750001,
      "v": 106
    },
    {
      "midi": 65,
      "hit": false,
      "t": 31740.589270833374,
      "d": 209.19346874999974,
      "v": 125
    },
    {
      "midi": 55,
      "hit": false,
      "t": 31980.774364583376,
      "d": 129.13177083333358,
      "v": 104
    },
    {
      "midi": 55,
      "hit": false,
      "t": 32228.707364583377,
      "d": 111.05332291666491,
      "v": 96
    },
    {
      "midi": 43,
      "hit": false,
      "t": 32228.707364583377,
      "d": 237.60245833333101,
      "v": 114
    },
    {
      "midi": 65,
      "hit": false,
      "t": 32236.455270833376,
      "d": 180.78447916666482,
      "v": 124
    },
    {
      "midi": 58,
      "hit": false,
      "t": 32236.455270833376,
      "d": 185.94974999999977,
      "v": 105
    },
    {
      "midi": 55,
      "hit": false,
      "t": 32476.640364583374,
      "d": 105.8880520833336,
      "v": 72
    },
    {
      "midi": 55,
      "hit": false,
      "t": 32724.573364583375,
      "d": 152.37548958333355,
      "v": 121
    },
    {
      "midi": 43,
      "hit": false,
      "t": 32724.573364583375,
      "d": 245.35036458333343,
      "v": 116
    },
    {
      "midi": 58,
      "hit": false,
      "t": 32727.156000000043,
      "d": 61.983250000001135,
      "v": 86
    },
    {
      "midi": 62,
      "hit": false,
      "t": 32727.156000000043,
      "d": 90.39223958333241,
      "v": 107
    },
    {
      "midi": 64,
      "hit": false,
      "t": 32980.25427083338,
      "d": 413.22166666666453,
      "v": 127
    },
    {
      "midi": 60,
      "hit": false,
      "t": 32980.25427083338,
      "d": 426.13484374999825,
      "v": 127
    },
    {
      "midi": 43,
      "hit": false,
      "t": 33220.43936458338,
      "d": 204.02819791666843,
      "v": 120
    },
    {
      "midi": 63,
      "hit": false,
      "t": 33445.12864583338,
      "d": 36.15689583333733,
      "v": 116
    },
    {
      "midi": 60,
      "hit": false,
      "t": 33463.20709375005,
      "d": 240.1850937499985,
      "v": 119
    },
    {
      "midi": 55,
      "hit": false,
      "t": 33468.37236458338,
      "d": 108.47068749999744,
      "v": 99
    },
    {
      "midi": 64,
      "hit": false,
      "t": 33473.53763541672,
      "d": 229.8545520833286,
      "v": 127
    },
    {
      "midi": 62,
      "hit": false,
      "t": 33718.88800000004,
      "d": 162.70603125000343,
      "v": 120
    },
    {
      "midi": 43,
      "hit": false,
      "t": 33718.88800000004,
      "d": 201.4455625000046,
      "v": 111
    },
    {
      "midi": 58,
      "hit": false,
      "t": 33724.05327083338,
      "d": 85.2269687500011,
      "v": 92
    },
    {
      "midi": 55,
      "hit": false,
      "t": 33731.80117708338,
      "d": 85.2269687500011,
      "v": 88
    },
    {
      "midi": 55,
      "hit": false,
      "t": 33971.98627083338,
      "d": 85.2269687500011,
      "v": 85
    },
    {
      "midi": 43,
      "hit": false,
      "t": 34212.17136458338,
      "d": 235.01982291667082,
      "v": 117
    },
    {
      "midi": 58,
      "hit": false,
      "t": 34217.336635416716,
      "d": 147.2102187499986,
      "v": 108
    },
    {
      "midi": 62,
      "hit": false,
      "t": 34222.50190625005,
      "d": 147.2102187499986,
      "v": 127
    },
    {
      "midi": 55,
      "hit": false,
      "t": 34460.104364583385,
      "d": 85.2269687500011,
      "v": 87
    },
    {
      "midi": 43,
      "hit": false,
      "t": 34708.03736458339,
      "d": 224.68928125000093,
      "v": 114
    },
    {
      "midi": 58,
      "hit": false,
      "t": 34715.78527083339,
      "d": 144.62758333333477,
      "v": 126
    },
    {
      "midi": 62,
      "hit": false,
      "t": 34950.80509375006,
      "d": 204.02819791666843,
      "v": 127
    },
    {
      "midi": 65,
      "hit": false,
      "t": 34950.80509375006,
      "d": 204.02819791666843,
      "v": 125
    },
    {
      "midi": 55,
      "hit": false,
      "t": 34958.55300000006,
      "d": 77.47906250000233,
      "v": 110
    },
    {
      "midi": 55,
      "hit": false,
      "t": 35203.90336458339,
      "d": 87.80960416666494,
      "v": 94
    },
    {
      "midi": 43,
      "hit": false,
      "t": 35203.90336458339,
      "d": 258.26354166666715,
      "v": 109
    },
    {
      "midi": 62,
      "hit": false,
      "t": 35206.486000000055,
      "d": 211.7761041666672,
      "v": 124
    },
    {
      "midi": 58,
      "hit": false,
      "t": 35214.233906250054,
      "d": 69.73115625000355,
      "v": 67
    },
    {
      "midi": 55,
      "hit": false,
      "t": 35451.83636458339,
      "d": 85.2269687500011,
      "v": 104
    },
    {
      "midi": 58,
      "hit": false,
      "t": 35451.83636458339,
      "d": 108.47068750000471,
      "v": 95
    },
    {
      "midi": 62,
      "hit": false,
      "t": 35451.83636458339,
      "d": 113.63595833333966,
      "v": 122
    },
    {
      "midi": 43,
      "hit": false,
      "t": 35699.76936458339,
      "d": 245.35036458333343,
      "v": 111
    },
    {
      "midi": 55,
      "hit": false,
      "t": 35707.51727083339,
      "d": 85.2269687500011,
      "v": 100
    },
    {
      "midi": 55,
      "hit": false,
      "t": 35955.4502708334,
      "d": 82.64433333333,
      "v": 90
    },
    {
      "midi": 58,
      "hit": false,
      "t": 36182.72218750006,
      "d": 196.28029166666238,
      "v": 103
    },
    {
      "midi": 65,
      "hit": false,
      "t": 36185.304822916725,
      "d": 204.02819791666843,
      "v": 125
    },
    {
      "midi": 62,
      "hit": false,
      "t": 36187.88745833339,
      "d": 209.19346875000338,
      "v": 120
    },
    {
      "midi": 55,
      "hit": false,
      "t": 36195.63536458339,
      "d": 85.2269687500011,
      "v": 101
    },
    {
      "midi": 43,
      "hit": false,
      "t": 36195.63536458339,
      "d": 237.60245833333465,
      "v": 113
    },
    {
      "midi": 55,
      "hit": false,
      "t": 36443.56836458339,
      "d": 85.2269687500011,
      "v": 88
    },
    {
      "midi": 55,
      "hit": false,
      "t": 36691.5013645834,
      "d": 74.89642708333122,
      "v": 112
    },
    {
      "midi": 43,
      "hit": false,
      "t": 36691.5013645834,
      "d": 245.35036458333343,
      "v": 120
    },
    {
      "midi": 55,
      "hit": false,
      "t": 36936.85172916673,
      "d": 77.47906250000233,
      "v": 101
    },
    {
      "midi": 64,
      "hit": false,
      "t": 36947.1822708334,
      "d": 170.4539375000022,
      "v": 127
    },
    {
      "midi": 55,
      "hit": false,
      "t": 37187.367364583406,
      "d": 103.30541666666977,
      "v": 101
    },
    {
      "midi": 43,
      "hit": false,
      "t": 37187.367364583406,
      "d": 204.02819791666843,
      "v": 118
    },
    {
      "midi": 55,
      "hit": false,
      "t": 37435.30036458341,
      "d": 85.2269687500011,
      "v": 103
    },
    {
      "midi": 43,
      "hit": false,
      "t": 37685.81600000008,
      "d": 201.44556249999732,
      "v": 116
    },
    {
      "midi": 55,
      "hit": false,
      "t": 37926.00109375008,
      "d": 105.8880520833336,
      "v": 114
    },
    {
      "midi": 62,
      "hit": false,
      "t": 38171.35145833341,
      "d": 149.79285416666244,
      "v": 127
    },
    {
      "midi": 58,
      "hit": false,
      "t": 38173.934093750075,
      "d": 113.63595833333238,
      "v": 106
    },
    {
      "midi": 43,
      "hit": false,
      "t": 38179.09936458341,
      "d": 235.01982291666354,
      "v": 119
    },
    {
      "midi": 55,
      "hit": false,
      "t": 38427.03236458341,
      "d": 113.63595833333238,
      "v": 123
    },
    {
      "midi": 55,
      "hit": false,
      "t": 38672.38272916674,
      "d": 167.8713020833311,
      "v": 121
    },
    {
      "midi": 43,
      "hit": false,
      "t": 38674.965364583404,
      "d": 224.68928125000093,
      "v": 109
    },
    {
      "midi": 62,
      "hit": false,
      "t": 38922.89836458341,
      "d": 178.201843750001,
      "v": 127
    },
    {
      "midi": 58,
      "hit": false,
      "t": 38925.48100000007,
      "d": 165.28866666666727,
      "v": 109
    },
    {
      "midi": 43,
      "hit": false,
      "t": 39170.83136458341,
      "d": 258.26354166666715,
      "v": 114
    },
    {
      "midi": 55,
      "hit": false,
      "t": 39421.34700000008,
      "d": 129.13177083332994,
      "v": 120
    },
    {
      "midi": 43,
      "hit": false,
      "t": 39666.697364583415,
      "d": 245.35036458333343,
      "v": 112
    },
    {
      "midi": 55,
      "hit": false,
      "t": 39669.28000000008,
      "d": 160.12339583333232,
      "v": 127
    },
    {
      "midi": 62,
      "hit": false,
      "t": 39669.28000000008,
      "d": 211.7761041666672,
      "v": 127
    },
    {
      "midi": 55,
      "hit": false,
      "t": 40152.23282291675,
      "d": 136.87967708332872,
      "v": 122
    },
    {
      "midi": 60,
      "hit": false,
      "t": 40154.81545833341,
      "d": 147.2102187499986,
      "v": 127
    },
    {
      "midi": 43,
      "hit": false,
      "t": 40162.56336458341,
      "d": 237.60245833333465,
      "v": 113
    },
    {
      "midi": 64,
      "hit": false,
      "t": 40407.91372916674,
      "d": 204.02819791666843,
      "v": 112
    },
    {
      "midi": 55,
      "hit": false,
      "t": 40413.07900000008,
      "d": 191.1150208333347,
      "v": 119
    },
    {
      "midi": 60,
      "hit": false,
      "t": 40413.07900000008,
      "d": 206.61083333333227,
      "v": 127
    },
    {
      "midi": 43,
      "hit": false,
      "t": 40658.42936458341,
      "d": 245.35036458333343,
      "v": 113
    },
    {
      "midi": 55,
      "hit": false,
      "t": 40919.27554166674,
      "d": 64.5658854166686,
      "v": 94
    },
    {
      "midi": 60,
      "hit": false,
      "t": 40919.27554166674,
      "d": 72.31379166666738,
      "v": 108
    },
    {
      "midi": 43,
      "hit": false,
      "t": 41154.29536458341,
      "d": 204.02819791666116,
      "v": 120
    },
    {
      "midi": 55,
      "hit": false,
      "t": 41156.87800000008,
      "d": 142.04494791666366,
      "v": 127
    },
    {
      "midi": 62,
      "hit": false,
      "t": 41156.87800000008,
      "d": 227.27191666666477,
      "v": 127
    },
    {
      "midi": 65,
      "hit": false,
      "t": 41159.46063541674,
      "d": 173.03657291666605,
      "v": 109
    },
    {
      "midi": 55,
      "hit": false,
      "t": 41404.811000000074,
      "d": 289.25516666666226,
      "v": 125
    },
    {
      "midi": 43,
      "hit": false,
      "t": 41652.74400000007,
      "d": 201.44556249999732,
      "v": 118
    },
    {
      "midi": 55,
      "hit": false,
      "t": 41898.094364583405,
      "d": 131.71440625000105,
      "v": 124
    },
    {
      "midi": 62,
      "hit": false,
      "t": 42143.44472916674,
      "d": 154.95812499999738,
      "v": 127
    },
    {
      "midi": 65,
      "hit": false,
      "t": 42143.44472916674,
      "d": 154.95812499999738,
      "v": 127
    },
    {
      "midi": 43,
      "hit": false,
      "t": 42146.0273645834,
      "d": 235.01982291666354,
      "v": 116
    },
    {
      "midi": 55,
      "hit": false,
      "t": 42391.377729166736,
      "d": 170.4539375000022,
      "v": 123
    },
    {
      "midi": 43,
      "hit": false,
      "t": 42641.893364583404,
      "d": 224.68928125000093,
      "v": 115
    },
    {
      "midi": 62,
      "hit": false,
      "t": 42892.40900000007,
      "d": 149.7928541666697,
      "v": 127
    },
    {
      "midi": 65,
      "hit": false,
      "t": 42892.40900000007,
      "d": 149.7928541666697,
      "v": 127
    },
    {
      "midi": 43,
      "hit": false,
      "t": 43137.759364583406,
      "d": 258.26354166666715,
      "v": 115
    },
    {
      "midi": 55,
      "hit": false,
      "t": 43377.944458333404,
      "d": 154.95812500000466,
      "v": 114
    },
    {
      "midi": 43,
      "hit": false,
      "t": 43633.62536458341,
      "d": 245.35036458333343,
      "v": 111
    },
    {
      "midi": 55,
      "hit": false,
      "t": 43636.20800000007,
      "d": 175.61920833332988,
      "v": 121
    },
    {
      "midi": 60,
      "hit": false,
      "t": 43636.20800000007,
      "d": 175.61920833332988,
      "v": 122
    },
    {
      "midi": 64,
      "hit": false,
      "t": 43636.20800000007,
      "d": 185.94974999999977,
      "v": 123
    },
    {
      "midi": 43,
      "hit": false,
      "t": 44129.49136458341,
      "d": 237.60245833332738,
      "v": 113
    },
    {
      "midi": 55,
      "hit": false,
      "t": 44137.23927083341,
      "d": 170.45393749999494,
      "v": 112
    },
    {
      "midi": 64,
      "hit": false,
      "t": 44137.23927083341,
      "d": 170.45393749999494,
      "v": 127
    },
    {
      "midi": 60,
      "hit": false,
      "t": 44139.82190625007,
      "d": 160.12339583333232,
      "v": 126
    },
    {
      "midi": 43,
      "hit": false,
      "t": 44625.357364583404,
      "d": 245.35036458333343,
      "v": 119
    },
    {
      "midi": 63,
      "hit": false,
      "t": 44881.03827083341,
      "d": 116.21859375000349,
      "v": 99
    },
    {
      "midi": 75,
      "hit": false,
      "t": 44881.03827083341,
      "d": 116.21859375000349,
      "v": 97
    },
    {
      "midi": 64,
      "hit": false,
      "t": 44999.839500000075,
      "d": 144.62758333334205,
      "v": 111
    },
    {
      "midi": 76,
      "hit": false,
      "t": 44999.839500000075,
      "d": 144.62758333334205,
      "v": 111
    },
    {
      "midi": 72,
      "hit": false,
      "t": 45110.89282291674,
      "d": 348.6557812500032,
      "v": 108
    },
    {
      "midi": 43,
      "hit": false,
      "t": 45121.22336458341,
      "d": 204.02819791666843,
      "v": 118
    },
    {
      "midi": 43,
      "hit": false,
      "t": 45619.67200000008,
      "d": 201.44556249999732,
      "v": 113
    },
    {
      "midi": 55,
      "hit": false,
      "t": 45867.605000000076,
      "d": 72.31379166666738,
      "v": 91
    },
    {
      "midi": 58,
      "hit": false,
      "t": 46112.95536458341,
      "d": 74.89642708333122,
      "v": 99
    },
    {
      "midi": 43,
      "hit": false,
      "t": 46112.95536458341,
      "d": 235.01982291666354,
      "v": 113
    },
    {
      "midi": 55,
      "hit": false,
      "t": 46115.53800000007,
      "d": 113.63595833333238,
      "v": 104
    },
    {
      "midi": 65,
      "hit": false,
      "t": 46120.70327083341,
      "d": 67.14852083333244,
      "v": 125
    },
    {
      "midi": 55,
      "hit": false,
      "t": 46360.88836458341,
      "d": 90.39223958333605,
      "v": 96
    },
    {
      "midi": 55,
      "hit": false,
      "t": 46608.82136458341,
      "d": 113.63595833333238,
      "v": 99
    },
    {
      "midi": 43,
      "hit": false,
      "t": 46608.82136458341,
      "d": 224.68928125000093,
      "v": 109
    },
    {
      "midi": 55,
      "hit": false,
      "t": 46856.754364583416,
      "d": 90.39223958333605,
      "v": 120
    },
    {
      "midi": 58,
      "hit": false,
      "t": 46856.754364583416,
      "d": 198.8629270833335,
      "v": 110
    },
    {
      "midi": 43,
      "hit": false,
      "t": 47104.68736458341,
      "d": 258.26354166666715,
      "v": 108
    },
    {
      "midi": 55,
      "hit": false,
      "t": 47107.27000000008,
      "d": 196.28029166666965,
      "v": 100
    },
    {
      "midi": 55,
      "hit": false,
      "t": 47352.62036458341,
      "d": 90.39223958333605,
      "v": 121
    },
    {
      "midi": 60,
      "hit": false,
      "t": 47592.805458333416,
      "d": 142.04494791666366,
      "v": 108
    },
    {
      "midi": 64,
      "hit": false,
      "t": 47595.38809375008,
      "d": 144.62758333333477,
      "v": 112
    },
    {
      "midi": 43,
      "hit": false,
      "t": 47600.553364583415,
      "d": 245.35036458333343,
      "v": 118
    },
    {
      "midi": 55,
      "hit": false,
      "t": 47603.13600000008,
      "d": 108.47068749999744,
      "v": 90
    },
    {
      "midi": 55,
      "hit": false,
      "t": 47848.48636458341,
      "d": 92.97487499999988,
      "v": 101
    },
    {
      "midi": 64,
      "hit": false,
      "t": 48093.836729166745,
      "d": 152.37548958333355,
      "v": 108
    },
    {
      "midi": 60,
      "hit": false,
      "t": 48093.836729166745,
      "d": 160.12339583333232,
      "v": 103
    },
    {
      "midi": 43,
      "hit": false,
      "t": 48096.41936458341,
      "d": 237.60245833333465,
      "v": 113
    },
    {
      "midi": 55,
      "hit": false,
      "t": 48099.00200000007,
      "d": 56.81797916666983,
      "v": 108
    },
    {
      "midi": 55,
      "hit": false,
      "t": 48346.93500000008,
      "d": 108.47068749999744,
      "v": 90
    },
    {
      "midi": 55,
      "hit": false,
      "t": 48584.537458333405,
      "d": 111.05332291666855,
      "v": 92
    },
    {
      "midi": 43,
      "hit": false,
      "t": 48592.285364583404,
      "d": 245.3503645833407,
      "v": 113
    },
    {
      "midi": 55,
      "hit": false,
      "t": 48832.47045833341,
      "d": 92.97487499999988,
      "v": 98
    },
    {
      "midi": 62,
      "hit": false,
      "t": 48837.635729166745,
      "d": 387.3953124999971,
      "v": 127
    },
    {
      "midi": 55,
      "hit": false,
      "t": 49082.98609375008,
      "d": 59.40061458333366,
      "v": 109
    },
    {
      "midi": 43,
      "hit": false,
      "t": 49088.15136458341,
      "d": 204.02819791666116,
      "v": 119
    },
    {
      "midi": 62,
      "hit": false,
      "t": 49325.75382291674,
      "d": 131.71440625000105,
      "v": 125
    },
    {
      "midi": 55,
      "hit": false,
      "t": 49328.336458333404,
      "d": 111.05332291666855,
      "v": 91
    },
    {
      "midi": 55,
      "hit": false,
      "t": 49581.43472916674,
      "d": 108.47068750000471,
      "v": 91
    },
    {
      "midi": 43,
      "hit": false,
      "t": 49586.60000000008,
      "d": 201.4455625000046,
      "v": 115
    },
    {
      "midi": 55,
      "hit": false,
      "t": 49829.36772916675,
      "d": 92.97487499999988,
      "v": 99
    },
    {
      "midi": 55,
      "hit": false,
      "t": 50079.88336458342,
      "d": 59.40061458333366,
      "v": 113
    },
    {
      "midi": 43,
      "hit": false,
      "t": 50079.88336458342,
      "d": 235.01982291666354,
      "v": 118
    },
    {
      "midi": 58,
      "hit": false,
      "t": 50082.46600000008,
      "d": 160.1233958333396,
      "v": 109
    },
    {
      "midi": 65,
      "hit": false,
      "t": 50082.46600000008,
      "d": 175.61920833333716,
      "v": 125
    },
    {
      "midi": 62,
      "hit": false,
      "t": 50082.46600000008,
      "d": 178.201843750001,
      "v": 125
    },
    {
      "midi": 55,
      "hit": false,
      "t": 50327.816364583414,
      "d": 108.47068749999744,
      "v": 88
    },
    {
      "midi": 55,
      "hit": false,
      "t": 50575.74936458341,
      "d": 108.47068749999744,
      "v": 86
    },
    {
      "midi": 43,
      "hit": false,
      "t": 50575.74936458341,
      "d": 224.68928125000093,
      "v": 115
    },
    {
      "midi": 55,
      "hit": false,
      "t": 50823.682364583416,
      "d": 90.39223958332877,
      "v": 101
    },
    {
      "midi": 58,
      "hit": false,
      "t": 50823.682364583416,
      "d": 392.56058333333203,
      "v": 111
    },
    {
      "midi": 62,
      "hit": false,
      "t": 50826.26500000008,
      "d": 392.56058333333203,
      "v": 127
    },
    {
      "midi": 65,
      "hit": false,
      "t": 50826.26500000008,
      "d": 392.56058333333203,
      "v": 127
    },
    {
      "midi": 55,
      "hit": false,
      "t": 51071.61536458341,
      "d": 59.40061458333366,
      "v": 111
    },
    {
      "midi": 43,
      "hit": false,
      "t": 51071.61536458341,
      "d": 258.26354166666715,
      "v": 112
    },
    {
      "midi": 58,
      "hit": false,
      "t": 51316.965729166746,
      "d": 116.21859375000349,
      "v": 117
    },
    {
      "midi": 65,
      "hit": false,
      "t": 51319.54836458341,
      "d": 87.80960416667222,
      "v": 111
    },
    {
      "midi": 62,
      "hit": false,
      "t": 51319.54836458341,
      "d": 103.30541666666977,
      "v": 122
    },
    {
      "midi": 55,
      "hit": false,
      "t": 51319.54836458341,
      "d": 108.47068750000471,
      "v": 88
    },
    {
      "midi": 43,
      "hit": false,
      "t": 51567.481364583415,
      "d": 245.35036458333343,
      "v": 112
    },
    {
      "midi": 55,
      "hit": false,
      "t": 51572.64663541675,
      "d": 111.05332291666855,
      "v": 87
    },
    {
      "midi": 55,
      "hit": false,
      "t": 51820.57963541675,
      "d": 92.97487499999988,
      "v": 100
    },
    {
      "midi": 43,
      "hit": false,
      "t": 52063.34736458342,
      "d": 237.60245833333465,
      "v": 117
    },
    {
      "midi": 55,
      "hit": false,
      "t": 52065.93000000008,
      "d": 59.40061458333366,
      "v": 109
    },
    {
      "midi": 58,
      "hit": false,
      "t": 52065.93000000008,
      "d": 131.71440625000105,
      "v": 102
    },
    {
      "midi": 62,
      "hit": false,
      "t": 52068.512635416744,
      "d": 142.04494791667094,
      "v": 122
    },
    {
      "midi": 55,
      "hit": false,
      "t": 52313.863000000085,
      "d": 111.05332291666855,
      "v": 91
    },
    {
      "midi": 62,
      "hit": false,
      "t": 52554.04809375008,
      "d": 222.10664583332982,
      "v": 113
    },
    {
      "midi": 58,
      "hit": false,
      "t": 52554.04809375008,
      "d": 260.8461770833237,
      "v": 98
    },
    {
      "midi": 43,
      "hit": false,
      "t": 52559.21336458342,
      "d": 245.35036458332615,
      "v": 120
    },
    {
      "midi": 55,
      "hit": false,
      "t": 52561.79600000008,
      "d": 108.47068749999744,
      "v": 88
    },
    {
      "midi": 55,
      "hit": false,
      "t": 52809.72900000008,
      "d": 92.97487499999261,
      "v": 86
    },
    {
      "midi": 64,
      "hit": false,
      "t": 52809.72900000008,
      "d": 387.3953124999898,
      "v": 108
    },
    {
      "midi": 60,
      "hit": false,
      "t": 52812.31163541674,
      "d": 384.812677083326,
      "v": 113
    },
    {
      "midi": 43,
      "hit": false,
      "t": 53055.079364583406,
      "d": 204.02819791666116,
      "v": 117
    },
    {
      "midi": 55,
      "hit": false,
      "t": 53057.66200000007,
      "d": 59.40061458333366,
      "v": 113
    },
    {
      "midi": 55,
      "hit": false,
      "t": 53305.59500000007,
      "d": 87.80960416666494,
      "v": 111
    },
    {
      "midi": 60,
      "hit": false,
      "t": 53310.7602708334,
      "d": 165.28866666666,
      "v": 124
    },
    {
      "midi": 64,
      "hit": false,
      "t": 53310.7602708334,
      "d": 167.87130208332383,
      "v": 123
    },
    {
      "midi": 43,
      "hit": false,
      "t": 53553.52800000006,
      "d": 201.44556249999005,
      "v": 115
    },
    {
      "midi": 58,
      "hit": false,
      "t": 53556.11063541672,
      "d": 183.36711458332866,
      "v": 94
    },
    {
      "midi": 62,
      "hit": false,
      "t": 53558.693270833384,
      "d": 175.61920833332988,
      "v": 119
    },
    {
      "midi": 55,
      "hit": false,
      "t": 53801.46100000005,
      "d": 129.13177083332994,
      "v": 109
    },
    {
      "midi": 43,
      "hit": false,
      "t": 54046.81136458338,
      "d": 235.01982291666354,
      "v": 117
    },
    {
      "midi": 55,
      "hit": false,
      "t": 54049.394000000044,
      "d": 111.05332291666855,
      "v": 93
    },
    {
      "midi": 58,
      "hit": false,
      "t": 54049.394000000044,
      "d": 160.12339583333232,
      "v": 116
    },
    {
      "midi": 65,
      "hit": false,
      "t": 54049.394000000044,
      "d": 173.03657291666605,
      "v": 124
    },
    {
      "midi": 55,
      "hit": false,
      "t": 54299.90963541671,
      "d": 105.8880520833336,
      "v": 71
    },
    {
      "midi": 55,
      "hit": false,
      "t": 54542.67736458338,
      "d": 152.37548958333355,
      "v": 121
    },
    {
      "midi": 43,
      "hit": false,
      "t": 54542.67736458338,
      "d": 224.68928125000093,
      "v": 115
    },
    {
      "midi": 58,
      "hit": false,
      "t": 54798.358270833385,
      "d": 92.97487499999988,
      "v": 109
    },
    {
      "midi": 65,
      "hit": false,
      "t": 54798.358270833385,
      "d": 126.5491354166661,
      "v": 126
    },
    {
      "midi": 43,
      "hit": false,
      "t": 55038.543364583384,
      "d": 258.26354166666715,
      "v": 113
    },
    {
      "midi": 55,
      "hit": false,
      "t": 55289.05900000005,
      "d": 108.47068749999744,
      "v": 104
    },
    {
      "midi": 58,
      "hit": false,
      "t": 55294.22427083339,
      "d": 175.61920833332988,
      "v": 105
    },
    {
      "midi": 65,
      "hit": false,
      "t": 55296.80690625005,
      "d": 173.03657291666605,
      "v": 119
    },
    {
      "midi": 43,
      "hit": false,
      "t": 55534.409364583385,
      "d": 245.35036458333343,
      "v": 113
    },
    {
      "midi": 55,
      "hit": false,
      "t": 55542.157270833384,
      "d": 111.05332291666855,
      "v": 95
    },
    {
      "midi": 55,
      "hit": false,
      "t": 55782.34236458338,
      "d": 129.13177083332994,
      "v": 107
    },
    {
      "midi": 55,
      "hit": false,
      "t": 56030.27536458338,
      "d": 111.05332291666855,
      "v": 92
    },
    {
      "midi": 43,
      "hit": false,
      "t": 56030.27536458338,
      "d": 237.60245833333465,
      "v": 114
    },
    {
      "midi": 65,
      "hit": false,
      "t": 56040.60590625005,
      "d": 204.02819791666116,
      "v": 122
    },
    {
      "midi": 58,
      "hit": false,
      "t": 56043.188541666714,
      "d": 173.03657291666605,
      "v": 108
    },
    {
      "midi": 55,
      "hit": false,
      "t": 56278.208364583385,
      "d": 105.8880520833336,
      "v": 70
    },
    {
      "midi": 55,
      "hit": false,
      "t": 56526.14136458338,
      "d": 152.37548958333355,
      "v": 118
    },
    {
      "midi": 43,
      "hit": false,
      "t": 56526.14136458338,
      "d": 245.35036458333343,
      "v": 113
    },
    {
      "midi": 64,
      "hit": false,
      "t": 56776.65700000005,
      "d": 315.0815208333297,
      "v": 114
    },
    {
      "midi": 60,
      "hit": false,
      "t": 56781.822270833385,
      "d": 307.3336145833309,
      "v": 119
    },
    {
      "midi": 43,
      "hit": false,
      "t": 57022.00736458338,
      "d": 204.02819791666116,
      "v": 119
    },
    {
      "midi": 63,
      "hit": false,
      "t": 57246.69664583338,
      "d": 36.15689583333733,
      "v": 115
    },
    {
      "midi": 55,
      "hit": false,
      "t": 57269.94036458338,
      "d": 108.47068749999744,
      "v": 98
    },
    {
      "midi": 60,
      "hit": false,
      "t": 57269.94036458338,
      "d": 240.1850937499985,
      "v": 126
    },
    {
      "midi": 64,
      "hit": false,
      "t": 57272.523000000045,
      "d": 229.85455208333588,
      "v": 126
    },
    {
      "midi": 58,
      "hit": false,
      "t": 57520.45600000005,
      "d": 82.64433333333727,
      "v": 92
    },
    {
      "midi": 62,
      "hit": false,
      "t": 57520.45600000005,
      "d": 162.70603125000343,
      "v": 120
    },
    {
      "midi": 43,
      "hit": false,
      "t": 57520.45600000005,
      "d": 201.4455625000046,
      "v": 114
    },
    {
      "midi": 55,
      "hit": false,
      "t": 57533.36917708338,
      "d": 85.2269687500011,
      "v": 87
    },
    {
      "midi": 55,
      "hit": false,
      "t": 57773.55427083339,
      "d": 85.2269687500011,
      "v": 91
    },
    {
      "midi": 62,
      "hit": false,
      "t": 58013.73936458339,
      "d": 214.35873958332377,
      "v": 112
    },
    {
      "midi": 43,
      "hit": false,
      "t": 58013.73936458339,
      "d": 235.01982291665627,
      "v": 116
    },
    {
      "midi": 58,
      "hit": false,
      "t": 58016.32200000005,
      "d": 175.61920833332988,
      "v": 110
    },
    {
      "midi": 65,
      "hit": false,
      "t": 58016.32200000005,
      "d": 196.28029166666238,
      "v": 125
    },
    {
      "midi": 55,
      "hit": false,
      "t": 58261.67236458338,
      "d": 85.2269687500011,
      "v": 89
    },
    {
      "midi": 43,
      "hit": false,
      "t": 58509.60536458338,
      "d": 224.68928125000093,
      "v": 112
    },
    {
      "midi": 55,
      "hit": false,
      "t": 58760.12100000005,
      "d": 77.47906250000233,
      "v": 109
    },
    {
      "midi": 62,
      "hit": false,
      "t": 58760.12100000005,
      "d": 351.23841666666704,
      "v": 105
    },
    {
      "midi": 58,
      "hit": false,
      "t": 58760.12100000005,
      "d": 382.2300416666694,
      "v": 107
    },
    {
      "midi": 65,
      "hit": false,
      "t": 58760.12100000005,
      "d": 389.9779479166682,
      "v": 126
    },
    {
      "midi": 55,
      "hit": false,
      "t": 59005.47136458338,
      "d": 87.80960416666494,
      "v": 95
    },
    {
      "midi": 43,
      "hit": false,
      "t": 59005.47136458338,
      "d": 258.26354166666715,
      "v": 113
    },
    {
      "midi": 55,
      "hit": false,
      "t": 59253.40436458339,
      "d": 85.22696874999383,
      "v": 103
    },
    {
      "midi": 62,
      "hit": false,
      "t": 59253.40436458339,
      "d": 100.72278124999139,
      "v": 121
    },
    {
      "midi": 58,
      "hit": false,
      "t": 59255.98700000005,
      "d": 69.73115624999627,
      "v": 113
    },
    {
      "midi": 65,
      "hit": false,
      "t": 59255.98700000005,
      "d": 95.55751041666372,
      "v": 119
    },
    {
      "midi": 43,
      "hit": false,
      "t": 59501.33736458338,
      "d": 245.35036458333343,
      "v": 116
    },
    {
      "midi": 58,
      "hit": false,
      "t": 59501.33736458338,
      "d": 247.93299999999726,
      "v": 102
    },
    {
      "midi": 62,
      "hit": false,
      "t": 59503.92000000004,
      "d": 245.35036458333343,
      "v": 123
    },
    {
      "midi": 55,
      "hit": false,
      "t": 59509.08527083338,
      "d": 85.2269687500011,
      "v": 96
    },
    {
      "midi": 55,
      "hit": false,
      "t": 59757.018270833374,
      "d": 82.64433333333,
      "v": 88
    },
    {
      "midi": 55,
      "hit": false,
      "t": 59997.20336458337,
      "d": 85.22696874999383,
      "v": 94
    },
    {
      "midi": 43,
      "hit": false,
      "t": 59997.20336458337,
      "d": 237.60245833332738,
      "v": 118
    },
    {
      "midi": 58,
      "hit": false,
      "t": 59997.20336458337,
      "d": 281.5072604166635,
      "v": 115
    },
    {
      "midi": 62,
      "hit": false,
      "t": 59999.78600000004,
      "d": 253.0982708333322,
      "v": 120
    },
    {
      "midi": 55,
      "hit": false,
      "t": 60245.13636458337,
      "d": 85.2269687500011,
      "v": 86
    },
    {
      "midi": 60,
      "hit": false,
      "t": 60245.13636458337,
      "d": 271.1767187499936,
      "v": 114
    },
    {
      "midi": 64,
      "hit": false,
      "t": 60247.719000000034,
      "d": 242.7677291666696,
      "v": 112
    },
    {
      "midi": 55,
      "hit": false,
      "t": 60493.06936458337,
      "d": 74.89642708333122,
      "v": 107
    },
    {
      "midi": 43,
      "hit": false,
      "t": 60493.06936458337,
      "d": 245.35036458333343,
      "v": 115
    },
    {
      "midi": 62,
      "hit": false,
      "t": 60493.06936458337,
      "d": 271.1767187499936,
      "v": 119
    },
    {
      "midi": 58,
      "hit": false,
      "t": 60495.65200000003,
      "d": 242.7677291666696,
      "v": 105
    },
    {
      "midi": 55,
      "hit": false,
      "t": 60738.4197291667,
      "d": 77.47906249999505,
      "v": 100
    },
    {
      "midi": 60,
      "hit": false,
      "t": 60741.002364583364,
      "d": 260.846177083331,
      "v": 112
    },
    {
      "midi": 64,
      "hit": false,
      "t": 60743.58500000003,
      "d": 242.7677291666696,
      "v": 105
    },
    {
      "midi": 55,
      "hit": false,
      "t": 60988.93536458336,
      "d": 103.30541666666977,
      "v": 100
    },
    {
      "midi": 43,
      "hit": false,
      "t": 60988.93536458336,
      "d": 204.02819791666843,
      "v": 122
    },
    {
      "midi": 58,
      "hit": false,
      "t": 60988.93536458336,
      "d": 216.94137500000215,
      "v": 106
    },
    {
      "midi": 62,
      "hit": false,
      "t": 60988.93536458336,
      "d": 229.85455208333588,
      "v": 125
    },
    {
      "midi": 55,
      "hit": false,
      "t": 61236.868364583366,
      "d": 85.2269687500011,
      "v": 103
    },
    {
      "midi": 62,
      "hit": false,
      "t": 61239.45100000001,
      "d": 245.35036458333343,
      "v": 1
    },
    {
      "midi": 63,
      "hit": false,
      "t": 61487.384000000005,
      "d": 983.9840937499976,
      "v": 1
    },
    {
      "midi": 55,
      "hit": false,
      "t": 61487.384000000035,
      "d": 426.13484374999825,
      "v": 127
    },
    {
      "midi": 58,
      "hit": false,
      "t": 61487.384000000035,
      "d": 1172.5164791666684,
      "v": 115
    },
    {
      "midi": 60,
      "hit": false,
      "t": 61487.384000000035,
      "d": 1177.6817500000034,
      "v": 127
    },
    {
      "midi": 63,
      "hit": false,
      "t": 61487.384000000035,
      "d": 1182.8470208333383,
      "v": 115
    },
    {
      "midi": 55,
      "hit": false,
      "t": 62226.0177291667,
      "d": 322.82942708333576,
      "v": 125
    },
    {
      "midi": 55,
      "hit": false,
      "t": 62727.04900000004,
      "d": 284.0898958333346,
      "v": 127
    },
    {
      "midi": 58,
      "hit": false,
      "t": 62732.21427083338,
      "d": 346.0731458333321,
      "v": 110
    },
    {
      "midi": 60,
      "hit": false,
      "t": 62732.21427083338,
      "d": 351.23841666666704,
      "v": 126
    },
    {
      "midi": 63,
      "hit": false,
      "t": 62734.79690625004,
      "d": 343.49051041666826,
      "v": 104
    },
    {
      "midi": 55,
      "hit": false,
      "t": 63222.915000000045,
      "d": 196.28029166666238,
      "v": 127
    },
    {
      "midi": 60,
      "hit": false,
      "t": 63225.49763541671,
      "d": 149.7928541666697,
      "v": 121
    },
    {
      "midi": 58,
      "hit": false,
      "t": 63225.49763541671,
      "d": 152.37548958333355,
      "v": 106
    },
    {
      "midi": 63,
      "hit": false,
      "t": 63225.49763541671,
      "d": 160.12339583333232,
      "v": 107
    },
    {
      "midi": 53,
      "hit": false,
      "t": 63713.615729166704,
      "d": 276.3419895833358,
      "v": 125
    },
    {
      "midi": 60,
      "hit": false,
      "t": 63958.96609375004,
      "d": 470.03964583333436,
      "v": 120
    },
    {
      "midi": 57,
      "hit": false,
      "t": 63958.96609375004,
      "d": 472.6222812499982,
      "v": 117
    },
    {
      "midi": 65,
      "hit": false,
      "t": 63958.96609375004,
      "d": 477.78755208333314,
      "v": 120
    },
    {
      "midi": 63,
      "hit": false,
      "t": 63966.714,
      "d": 741.2163645833352,
      "v": 1
    },
    {
      "midi": 53,
      "hit": false,
      "t": 64224.9775416667,
      "d": 297.0030729166683,
      "v": 127
    },
    {
      "midi": 62,
      "hit": false,
      "t": 64710.513,
      "d": 245.35036458333343,
      "v": 1
    },
    {
      "midi": 57,
      "hit": false,
      "t": 64710.513000000035,
      "d": 304.7509791666598,
      "v": 124
    },
    {
      "midi": 65,
      "hit": false,
      "t": 64713.0956354167,
      "d": 214.35873958333104,
      "v": 116
    },
    {
      "midi": 60,
      "hit": false,
      "t": 64713.0956354167,
      "d": 286.6725312499984,
      "v": 125
    },
    {
      "midi": 63,
      "hit": false,
      "t": 64958.445999999996,
      "d": 741.2163645833352,
      "v": 1
    },
    {
      "midi": 53,
      "hit": false,
      "t": 64958.44600000003,
      "d": 211.77610416665993,
      "v": 127
    },
    {
      "midi": 62,
      "hit": false,
      "t": 65206.37900000002,
      "d": 697.3115624999991,
      "v": 126
    },
    {
      "midi": 55,
      "hit": false,
      "t": 65208.96163541669,
      "d": 694.7289270833353,
      "v": 123
    },
    {
      "midi": 58,
      "hit": false,
      "t": 65208.96163541669,
      "d": 694.7289270833353,
      "v": 110
    },
    {
      "midi": 62,
      "hit": false,
      "t": 65702.245,
      "d": 983.9840937499976,
      "v": 1
    },
    {
      "midi": 55,
      "hit": false,
      "t": 65947.59536458335,
      "d": 271.1767187499936,
      "v": 123
    },
    {
      "midi": 58,
      "hit": false,
      "t": 65952.76063541668,
      "d": 294.4204374999972,
      "v": 112
    },
    {
      "midi": 62,
      "hit": false,
      "t": 65952.76063541668,
      "d": 317.6641562500008,
      "v": 127
    },
    {
      "midi": 55,
      "hit": false,
      "t": 66693.97700000001,
      "d": 237.60245833333465,
      "v": 127
    },
    {
      "midi": 58,
      "hit": false,
      "t": 66693.97700000001,
      "d": 263.4288125000021,
      "v": 113
    },
    {
      "midi": 62,
      "hit": false,
      "t": 66693.97700000001,
      "d": 271.17671875000815,
      "v": 127
    },
    {
      "midi": 53,
      "hit": false,
      "t": 67184.6777291667,
      "d": 503.6139062500006,
      "v": 123
    },
    {
      "midi": 58,
      "hit": false,
      "t": 67184.6777291667,
      "d": 511.36181250000664,
      "v": 119
    },
    {
      "midi": 62,
      "hit": false,
      "t": 67184.6777291667,
      "d": 513.9444479166705,
      "v": 127
    },
    {
      "midi": 58,
      "hit": false,
      "t": 67933.64200000004,
      "d": 325.41206250000687,
      "v": 110
    },
    {
      "midi": 62,
      "hit": false,
      "t": 67933.64200000004,
      "d": 333.1599687500129,
      "v": 127
    },
    {
      "midi": 53,
      "hit": false,
      "t": 67933.64200000004,
      "d": 338.3252395833406,
      "v": 121
    },
    {
      "midi": 60,
      "hit": false,
      "t": 68672.27572916671,
      "d": 327.9946979166707,
      "v": 127
    },
    {
      "midi": 62,
      "hit": false,
      "t": 68674.85836458337,
      "d": 312.49888541667315,
      "v": 127
    },
    {
      "midi": 53,
      "hit": false,
      "t": 68674.85836458337,
      "d": 327.9946979166707,
      "v": 116
    },
    {
      "midi": 53,
      "hit": false,
      "t": 69173.30700000004,
      "d": 439.048020833332,
      "v": 127
    },
    {
      "midi": 58,
      "hit": false,
      "t": 69173.30700000004,
      "d": 444.21329166665964,
      "v": 116
    },
    {
      "midi": 60,
      "hit": false,
      "t": 69173.30700000004,
      "d": 446.7959270833235,
      "v": 127
    },
    {
      "midi": 53,
      "hit": false,
      "t": 69917.10600000003,
      "d": 351.23841666665976,
      "v": 117
    },
    {
      "midi": 57,
      "hit": false,
      "t": 69917.10600000003,
      "d": 356.4036874999874,
      "v": 124
    },
    {
      "midi": 60,
      "hit": false,
      "t": 69917.10600000003,
      "d": 382.23004166665487,
      "v": 127
    },
    {
      "midi": 53,
      "hit": false,
      "t": 70660.90500000001,
      "d": 247.93300000000454,
      "v": 127
    },
    {
      "midi": 65,
      "hit": false,
      "t": 70660.90500000001,
      "d": 374.4821354166779,
      "v": 127
    },
    {
      "midi": 60,
      "hit": false,
      "t": 70660.90500000001,
      "d": 389.9779479166755,
      "v": 127
    },
    {
      "midi": 57,
      "hit": false,
      "t": 70660.90500000001,
      "d": 392.5605833333393,
      "v": 123
    },
    {
      "midi": 53,
      "hit": false,
      "t": 71156.77100000002,
      "d": 201.44556249999732,
      "v": 126
    },
    {
      "midi": 50,
      "hit": false,
      "t": 71655.21963541668,
      "d": 266.0114479166514,
      "v": 127
    },
    {
      "midi": 54,
      "hit": false,
      "t": 71657.80227083334,
      "d": 237.6024583333201,
      "v": 94
    },
    {
      "midi": 57,
      "hit": false,
      "t": 71662.96754166667,
      "d": 201.44556249999732,
      "v": 122
    },
    {
      "midi": 60,
      "hit": false,
      "t": 71662.96754166667,
      "d": 232.43718749999243,
      "v": 121
    },
    {
      "midi": 50,
      "hit": false,
      "t": 72153.66827083334,
      "d": 268.59408333332976,
      "v": 120
    },
    {
      "midi": 57,
      "hit": false,
      "t": 72156.25090625,
      "d": 312.49888541667315,
      "v": 127
    },
    {
      "midi": 65,
      "hit": false,
      "t": 72156.25090625,
      "d": 325.41206250000687,
      "v": 127
    },
    {
      "midi": 60,
      "hit": false,
      "t": 72156.25090625,
      "d": 327.9946979166707,
      "v": 127
    },
    {
      "midi": 60,
      "hit": false,
      "t": 72639.20372916668,
      "d": 82.64433333333,
      "v": 117
    },
    {
      "midi": 57,
      "hit": false,
      "t": 72641.78636458334,
      "d": 72.31379166666011,
      "v": 117
    },
    {
      "midi": 50,
      "hit": false,
      "t": 72644.369,
      "d": 299.5857083333249,
      "v": 127
    },
    {
      "midi": 57,
      "hit": false,
      "t": 72884.55409375,
      "d": 183.36711458332138,
      "v": 116
    },
    {
      "midi": 65,
      "hit": false,
      "t": 72884.55409375,
      "d": 276.34198958332126,
      "v": 127
    },
    {
      "midi": 60,
      "hit": false,
      "t": 72887.13672916667,
      "d": 408.05639583333686,
      "v": 127
    },
    {
      "midi": 57,
      "hit": false,
      "t": 73135.06972916666,
      "d": 139.4623125000071,
      "v": 124
    },
    {
      "midi": 50,
      "hit": false,
      "t": 73140.23499999999,
      "d": 198.86292708334804,
      "v": 127
    },
    {
      "midi": 65,
      "hit": false,
      "t": 73377.83745833334,
      "d": 245.3503645833407,
      "v": 127
    },
    {
      "midi": 57,
      "hit": false,
      "t": 73380.42009375,
      "d": 235.01982291667082,
      "v": 127
    },
    {
      "midi": 60,
      "hit": false,
      "t": 73380.42009375,
      "d": 245.3503645833407,
      "v": 127
    },
    {
      "midi": 50,
      "hit": false,
      "t": 73388.168,
      "d": 289.25516666666954,
      "v": 127
    },
    {
      "midi": 65,
      "hit": false,
      "t": 73876.28609375001,
      "d": 242.76772916666232,
      "v": 127
    },
    {
      "midi": 60,
      "hit": false,
      "t": 73876.28609375001,
      "d": 253.0982708333322,
      "v": 127
    },
    {
      "midi": 57,
      "hit": false,
      "t": 73878.86872916667,
      "d": 240.1850937499985,
      "v": 127
    },
    {
      "midi": 50,
      "hit": false,
      "t": 73884.034,
      "d": 286.6725312500057,
      "v": 127
    },
    {
      "midi": 65,
      "hit": false,
      "t": 74374.73472916667,
      "d": 165.28866666666,
      "v": 127
    },
    {
      "midi": 60,
      "hit": false,
      "t": 74377.31736458333,
      "d": 149.79285416666244,
      "v": 127
    },
    {
      "midi": 57,
      "hit": false,
      "t": 74377.31736458333,
      "d": 162.70603124999616,
      "v": 127
    },
    {
      "midi": 50,
      "hit": false,
      "t": 74379.9,
      "d": 129.1317708333372,
      "v": 127
    },
    {
      "midi": 57,
      "hit": false,
      "t": 74630.41563541666,
      "d": 224.68928125000093,
      "v": 127
    },
    {
      "midi": 65,
      "hit": false,
      "t": 74630.41563541666,
      "d": 242.76772916667687,
      "v": 127
    },
    {
      "midi": 60,
      "hit": false,
      "t": 74630.41563541666,
      "d": 247.93300000000454,
      "v": 127
    },
    {
      "midi": 50,
      "hit": false,
      "t": 74632.99827083333,
      "d": 229.85455208334315,
      "v": 127
    },
    {
      "midi": 65,
      "hit": false,
      "t": 75118.53372916667,
      "d": 170.45393749998766,
      "v": 127
    },
    {
      "midi": 60,
      "hit": false,
      "t": 75121.11636458333,
      "d": 178.20184374997916,
      "v": 127
    },
    {
      "midi": 57,
      "hit": false,
      "t": 75121.11636458333,
      "d": 183.36711458330683,
      "v": 127
    },
    {
      "midi": 50,
      "hit": false,
      "t": 75123.699,
      "d": 170.45393749998766,
      "v": 127
    },
    {
      "midi": 62,
      "hit": false,
      "t": 75862.33272916664,
      "d": 294.42043750001176,
      "v": 127
    },
    {
      "midi": 55,
      "hit": false,
      "t": 75862.33272916664,
      "d": 426.1348437500128,
      "v": 127
    },
    {
      "midi": 58,
      "hit": false,
      "t": 75862.33272916664,
      "d": 439.0480208333465,
      "v": 117
    },
    {
      "midi": 60,
      "hit": false,
      "t": 76110.26572916664,
      "d": 185.94975000001432,
      "v": 117
    },
    {
      "midi": 60,
      "hit": false,
      "t": 76600.96645833332,
      "d": 173.03657291666605,
      "v": 123
    },
    {
      "midi": 55,
      "hit": false,
      "t": 76603.54909374999,
      "d": 173.03657291666605,
      "v": 125
    },
    {
      "midi": 58,
      "hit": false,
      "t": 76606.13172916665,
      "d": 191.115020833342,
      "v": 115
    },
    {
      "midi": 51,
      "hit": false,
      "t": 77099.41509375,
      "d": 366.7342291666573,
      "v": 112
    },
    {
      "midi": 55,
      "hit": false,
      "t": 77101.99772916666,
      "d": 387.3953124999971,
      "v": 127
    },
    {
      "midi": 58,
      "hit": false,
      "t": 77101.99772916666,
      "d": 402.89112499999464,
      "v": 117
    },
    {
      "midi": 58,
      "hit": false,
      "t": 77856.12727083331,
      "d": 516.5270833333198,
      "v": 117
    },
    {
      "midi": 63,
      "hit": false,
      "t": 77858.70990624998,
      "d": 526.8576249999896,
      "v": 118
    },
    {
      "midi": 55,
      "hit": false,
      "t": 77861.29254166664,
      "d": 196.28029166666965,
      "v": 125
    },
    {
      "midi": 55,
      "hit": false,
      "t": 78122.13871874998,
      "d": 245.35036458332615,
      "v": 125
    },
    {
      "midi": 63,
      "hit": false,
      "t": 78346.828,
      "d": 989.1493645833398,
      "v": 1
    },
    {
      "midi": 67,
      "hit": false,
      "t": 78346.828,
      "d": 989.1493645833398,
      "v": 1
    },
    {
      "midi": 55,
      "hit": false,
      "t": 78594.76099999997,
      "d": 263.42881249998754,
      "v": 124
    },
    {
      "midi": 58,
      "hit": false,
      "t": 78599.9262708333,
      "d": 245.35036458332615,
      "v": 117
    },
    {
      "midi": 63,
      "hit": false,
      "t": 78599.9262708333,
      "d": 253.0982708333322,
      "v": 122
    },
    {
      "midi": 62,
      "hit": false,
      "t": 79338.56,
      "d": 983.9840937499976,
      "v": 1
    },
    {
      "midi": 65,
      "hit": false,
      "t": 79338.56,
      "d": 983.9840937499976,
      "v": 1
    },
    {
      "midi": 62,
      "hit": false,
      "t": 79818.93018749995,
      "d": 291.8378020833334,
      "v": 127
    },
    {
      "midi": 53,
      "hit": false,
      "t": 79824.09545833328,
      "d": 374.4821354166779,
      "v": 127
    },
    {
      "midi": 58,
      "hit": false,
      "t": 79826.67809374994,
      "d": 400.30848958334536,
      "v": 122
    },
    {
      "midi": 60,
      "hit": false,
      "t": 80074.61109374995,
      "d": 157.5407604166685,
      "v": 122
    },
    {
      "midi": 53,
      "hit": false,
      "t": 81074.09099999994,
      "d": 209.19346875000338,
      "v": 126
    },
    {
      "midi": 58,
      "hit": false,
      "t": 81074.09099999994,
      "d": 222.1066458333371,
      "v": 119
    },
    {
      "midi": 60,
      "hit": false,
      "t": 81074.09099999994,
      "d": 227.27191666666477,
      "v": 126
    },
    {
      "midi": 57,
      "hit": false,
      "t": 81322.02399999995,
      "d": 222.1066458333371,
      "v": 127
    },
    {
      "midi": 60,
      "hit": false,
      "t": 81322.02399999995,
      "d": 237.60245833333465,
      "v": 127
    },
    {
      "midi": 53,
      "hit": false,
      "t": 81324.60663541661,
      "d": 232.43718750000698,
      "v": 122
    },
    {
      "midi": 53,
      "hit": false,
      "t": 81810.14209374995,
      "d": 237.6024583333201,
      "v": 122
    },
    {
      "midi": 60,
      "hit": false,
      "t": 81812.72472916661,
      "d": 216.94137499999488,
      "v": 127
    },
    {
      "midi": 57,
      "hit": false,
      "t": 81812.72472916661,
      "d": 235.01982291665627,
      "v": 127
    },
    {
      "midi": 53,
      "hit": false,
      "t": 82313.75599999994,
      "d": 152.37548958332627,
      "v": 127
    },
    {
      "midi": 57,
      "hit": false,
      "t": 82313.75599999994,
      "d": 154.9581249999901,
      "v": 126
    },
    {
      "midi": 48,
      "hit": false,
      "t": 82313.75599999994,
      "d": 170.45393749998766,
      "v": 122
    },
    {
      "midi": 48,
      "hit": false,
      "t": 82564.27163541659,
      "d": 157.5407604166685,
      "v": 114
    },
    {
      "midi": 57,
      "hit": false,
      "t": 82564.27163541659,
      "d": 180.7844791666721,
      "v": 119
    },
    {
      "midi": 53,
      "hit": false,
      "t": 82566.85427083325,
      "d": 157.5407604166685,
      "v": 122
    },
    {
      "midi": 53,
      "hit": false,
      "t": 83060.1376354166,
      "d": 165.28866666667454,
      "v": 115
    },
    {
      "midi": 57,
      "hit": false,
      "t": 83067.8855416666,
      "d": 167.87130208333838,
      "v": 125
    },
    {
      "midi": 60,
      "hit": false,
      "t": 83070.46817708327,
      "d": 183.36711458333593,
      "v": 121
    },
    {
      "midi": 62,
      "hit": false,
      "t": 83801.35399999993,
      "d": 291.8378020833334,
      "v": 127
    },
    {
      "midi": 58,
      "hit": false,
      "t": 83801.35399999993,
      "d": 392.5605833333393,
      "v": 111
    },
    {
      "midi": 55,
      "hit": false,
      "t": 83801.35399999993,
      "d": 431.3001145833405,
      "v": 123
    },
    {
      "midi": 60,
      "hit": false,
      "t": 84051.8696354166,
      "d": 167.87130208333838,
      "v": 115
    },
    {
      "midi": 55,
      "hit": false,
      "t": 84539.9877291666,
      "d": 206.61083333333954,
      "v": 116
    },
    {
      "midi": 58,
      "hit": false,
      "t": 84539.9877291666,
      "d": 216.94137500000943,
      "v": 116
    },
    {
      "midi": 60,
      "hit": false,
      "t": 84539.9877291666,
      "d": 216.94137500000943,
      "v": 126
    },
    {
      "midi": 51,
      "hit": false,
      "t": 85046.18427083328,
      "d": 284.0898958333273,
      "v": 110
    },
    {
      "midi": 58,
      "hit": false,
      "t": 85046.18427083328,
      "d": 299.5857083333249,
      "v": 117
    },
    {
      "midi": 55,
      "hit": false,
      "t": 85048.76690624995,
      "d": 281.5072604166635,
      "v": 126
    },
    {
      "midi": 65,
      "hit": false,
      "t": 85539.46763541661,
      "d": 209.19346875000338,
      "v": 118
    },
    {
      "midi": 55,
      "hit": false,
      "t": 85542.05027083328,
      "d": 206.61083333333954,
      "v": 123
    },
    {
      "midi": 58,
      "hit": false,
      "t": 85542.05027083328,
      "d": 206.61083333333954,
      "v": 105
    },
    {
      "midi": 65,
      "hit": false,
      "t": 85779.65272916661,
      "d": 201.44556249999732,
      "v": 124
    },
    {
      "midi": 58,
      "hit": false,
      "t": 85779.65272916661,
      "d": 219.5240104166587,
      "v": 113
    },
    {
      "midi": 55,
      "hit": false,
      "t": 85782.23536458328,
      "d": 214.35873958333104,
      "v": 121
    },
    {
      "midi": 63,
      "hit": false,
      "t": 86280.684,
      "d": 1237.0823645833298,
      "v": 1
    },
    {
      "midi": 67,
      "hit": false,
      "t": 86280.684,
      "d": 1237.0823645833298,
      "v": 1
    },
    {
      "midi": 62,
      "hit": false,
      "t": 87520.34899999999,
      "d": 983.9840937499976,
      "v": 1
    },
    {
      "midi": 65,
      "hit": false,
      "t": 87520.34899999999,
      "d": 983.9840937499976,
      "v": 1
    },
    {
      "midi": 62,
      "hit": false,
      "t": 87763.1167291666,
      "d": 317.6641562500008,
      "v": 127
    },
    {
      "midi": 53,
      "hit": false,
      "t": 87763.1167291666,
      "d": 423.5522083333344,
      "v": 116
    },
    {
      "midi": 58,
      "hit": false,
      "t": 87763.1167291666,
      "d": 436.46538541666814,
      "v": 110
    },
    {
      "midi": 60,
      "hit": false,
      "t": 88016.21499999994,
      "d": 157.5407604166685,
      "v": 121
    },
    {
      "midi": 53,
      "hit": false,
      "t": 88501.75045833328,
      "d": 242.76772916666232,
      "v": 113
    },
    {
      "midi": 58,
      "hit": false,
      "t": 88501.75045833328,
      "d": 263.4288125000021,
      "v": 110
    },
    {
      "midi": 62,
      "hit": false,
      "t": 88504.33309374994,
      "d": 271.17671875000815,
      "v": 122
    },
    {
      "midi": 53,
      "hit": false,
      "t": 89013.11227083328,
      "d": 247.93299999999,
      "v": 114
    },
    {
      "midi": 58,
      "hit": false,
      "t": 89015.69490624995,
      "d": 240.1850937499985,
      "v": 110
    },
    {
      "midi": 60,
      "hit": false,
      "t": 89015.69490624995,
      "d": 255.68090624999604,
      "v": 113
    },
    {
      "midi": 62,
      "hit": false,
      "t": 89754.3286354166,
      "d": 188.5323854166636,
      "v": 122
    },
    {
      "midi": 57,
      "hit": false,
      "t": 89754.3286354166,
      "d": 436.4653854166536,
      "v": 127
    },
    {
      "midi": 53,
      "hit": false,
      "t": 89756.91127083327,
      "d": 405.4737604166585,
      "v": 125
    },
    {
      "midi": 60,
      "hit": false,
      "t": 89999.67899999993,
      "d": 193.69765624999127,
      "v": 116
    },
    {
      "midi": 53,
      "hit": false,
      "t": 90735.73009374992,
      "d": 193.69765624999127,
      "v": 117
    },
    {
      "midi": 62,
      "hit": false,
      "t": 90738.31272916659,
      "d": 204.02819791666116,
      "v": 127
    },
    {
      "midi": 57,
      "hit": false,
      "t": 90738.31272916659,
      "d": 209.19346874998882,
      "v": 127
    },
    {
      "midi": 60,
      "hit": false,
      "t": 90991.4109999999,
      "d": 260.84617708333826,
      "v": 113
    },
    {
      "midi": 53,
      "hit": false,
      "t": 90993.99363541657,
      "d": 235.01982291667082,
      "v": 116
    },
    {
      "midi": 57,
      "hit": false,
      "t": 90993.99363541657,
      "d": 245.3503645833407,
      "v": 113
    },
    {
      "midi": 43,
      "hit": false,
      "t": 91239.34399999991,
      "d": 201.44556249999732,
      "v": 112
    },
    {
      "midi": 55,
      "hit": false,
      "t": 91479.52909374991,
      "d": 105.8880520833336,
      "v": 115
    },
    {
      "midi": 62,
      "hit": false,
      "t": 91724.87945833325,
      "d": 149.79285416666244,
      "v": 126
    },
    {
      "midi": 58,
      "hit": false,
      "t": 91727.46209374991,
      "d": 113.6359583333251,
      "v": 107
    },
    {
      "midi": 43,
      "hit": false,
      "t": 91732.62736458324,
      "d": 235.01982291667082,
      "v": 113
    },
    {
      "midi": 55,
      "hit": false,
      "t": 91980.56036458325,
      "d": 113.63595833333966,
      "v": 118
    },
    {
      "midi": 55,
      "hit": false,
      "t": 92225.91072916659,
      "d": 167.87130208332383,
      "v": 119
    },
    {
      "midi": 43,
      "hit": false,
      "t": 92228.49336458325,
      "d": 224.68928124998638,
      "v": 111
    },
    {
      "midi": 62,
      "hit": false,
      "t": 92476.42636458324,
      "d": 178.2018437499937,
      "v": 127
    },
    {
      "midi": 58,
      "hit": false,
      "t": 92479.0089999999,
      "d": 165.28866666666,
      "v": 107
    },
    {
      "midi": 43,
      "hit": false,
      "t": 92724.35936458323,
      "d": 258.2635416666744,
      "v": 110
    },
    {
      "midi": 55,
      "hit": false,
      "t": 92974.8749999999,
      "d": 129.1317708333372,
      "v": 120
    },
    {
      "midi": 43,
      "hit": false,
      "t": 93220.22536458324,
      "d": 245.35036458332615,
      "v": 113
    },
    {
      "midi": 55,
      "hit": false,
      "t": 93222.8079999999,
      "d": 160.12339583333232,
      "v": 127
    },
    {
      "midi": 62,
      "hit": false,
      "t": 93222.8079999999,
      "d": 211.7761041666672,
      "v": 127
    },
    {
      "midi": 55,
      "hit": false,
      "t": 93705.76082291656,
      "d": 136.87967708334327,
      "v": 118
    },
    {
      "midi": 60,
      "hit": false,
      "t": 93708.34345833323,
      "d": 147.21021875001315,
      "v": 127
    },
    {
      "midi": 43,
      "hit": false,
      "t": 93716.09136458323,
      "d": 237.60245833333465,
      "v": 116
    },
    {
      "midi": 64,
      "hit": false,
      "t": 93961.44172916657,
      "d": 204.02819791666116,
      "v": 110
    },
    {
      "midi": 55,
      "hit": false,
      "t": 93966.6069999999,
      "d": 191.11502083332743,
      "v": 117
    },
    {
      "midi": 60,
      "hit": false,
      "t": 93966.6069999999,
      "d": 206.61083333333954,
      "v": 126
    },
    {
      "midi": 43,
      "hit": false,
      "t": 94211.95736458324,
      "d": 245.35036458332615,
      "v": 117
    },
    {
      "midi": 55,
      "hit": false,
      "t": 94472.80354166657,
      "d": 64.5658854166686,
      "v": 90
    },
    {
      "midi": 60,
      "hit": false,
      "t": 94472.80354166657,
      "d": 72.31379166667466,
      "v": 110
    },
    {
      "midi": 43,
      "hit": false,
      "t": 94707.82336458324,
      "d": 204.0281979166757,
      "v": 117
    },
    {
      "midi": 55,
      "hit": false,
      "t": 94710.4059999999,
      "d": 142.04494791667094,
      "v": 124
    },
    {
      "midi": 62,
      "hit": false,
      "t": 94710.4059999999,
      "d": 227.27191666667932,
      "v": 127
    },
    {
      "midi": 65,
      "hit": false,
      "t": 94712.98863541656,
      "d": 173.0365729166806,
      "v": 107
    },
    {
      "midi": 55,
      "hit": false,
      "t": 94958.33899999992,
      "d": 289.25516666666954,
      "v": 123
    },
    {
      "midi": 43,
      "hit": false,
      "t": 95206.27199999992,
      "d": 201.44556249999732,
      "v": 115
    },
    {
      "midi": 55,
      "hit": false,
      "t": 95451.62236458325,
      "d": 131.71440625000105,
      "v": 120
    },
    {
      "midi": 62,
      "hit": false,
      "t": 95696.97272916659,
      "d": 154.9581249999901,
      "v": 127
    },
    {
      "midi": 65,
      "hit": false,
      "t": 95696.97272916659,
      "d": 154.9581249999901,
      "v": 127
    },
    {
      "midi": 43,
      "hit": false,
      "t": 95699.55536458326,
      "d": 235.01982291665627,
      "v": 113
    },
    {
      "midi": 55,
      "hit": false,
      "t": 95944.90572916658,
      "d": 170.4539375000022,
      "v": 123
    },
    {
      "midi": 43,
      "hit": false,
      "t": 96195.42136458325,
      "d": 224.68928125000093,
      "v": 112
    },
    {
      "midi": 62,
      "hit": false,
      "t": 96445.93699999992,
      "d": 149.79285416666244,
      "v": 127
    },
    {
      "midi": 65,
      "hit": false,
      "t": 96445.93699999992,
      "d": 149.79285416666244,
      "v": 127
    },
    {
      "midi": 43,
      "hit": false,
      "t": 96691.28736458324,
      "d": 258.2635416666599,
      "v": 108
    },
    {
      "midi": 55,
      "hit": false,
      "t": 96931.47245833324,
      "d": 154.9581249999901,
      "v": 107
    },
    {
      "midi": 43,
      "hit": false,
      "t": 97187.15336458324,
      "d": 245.35036458332615,
      "v": 117
    },
    {
      "midi": 55,
      "hit": false,
      "t": 97189.7359999999,
      "d": 175.61920833332988,
      "v": 116
    },
    {
      "midi": 60,
      "hit": false,
      "t": 97189.7359999999,
      "d": 175.61920833332988,
      "v": 120
    },
    {
      "midi": 64,
      "hit": false,
      "t": 97189.7359999999,
      "d": 185.94974999999977,
      "v": 127
    },
    {
      "midi": 43,
      "hit": false,
      "t": 97683.01936458323,
      "d": 237.60245833333465,
      "v": 114
    },
    {
      "midi": 55,
      "hit": false,
      "t": 97690.76727083324,
      "d": 170.4539375000022,
      "v": 116
    },
    {
      "midi": 64,
      "hit": false,
      "t": 97690.76727083324,
      "d": 170.4539375000022,
      "v": 127
    },
    {
      "midi": 60,
      "hit": false,
      "t": 97693.3499062499,
      "d": 160.12339583333232,
      "v": 127
    },
    {
      "midi": 43,
      "hit": false,
      "t": 98178.88536458323,
      "d": 245.35036458332615,
      "v": 117
    },
    {
      "midi": 63,
      "hit": false,
      "t": 98434.56627083322,
      "d": 116.21859375000349,
      "v": 99
    },
    {
      "midi": 75,
      "hit": false,
      "t": 98434.56627083322,
      "d": 116.21859375000349,
      "v": 102
    },
    {
      "midi": 64,
      "hit": false,
      "t": 98553.36749999989,
      "d": 144.62758333333477,
      "v": 114
    },
    {
      "midi": 76,
      "hit": false,
      "t": 98553.36749999989,
      "d": 144.62758333333477,
      "v": 111
    },
    {
      "midi": 72,
      "hit": false,
      "t": 98664.42082291655,
      "d": 348.6557812500105,
      "v": 110
    },
    {
      "midi": 43,
      "hit": false,
      "t": 98674.75136458322,
      "d": 204.0281979166757,
      "v": 121
    },
    {
      "midi": 43,
      "hit": false,
      "t": 99173.1999999999,
      "d": 201.44556249999732,
      "v": 117
    },
    {
      "midi": 62,
      "hit": false,
      "t": 99173.19999999998,
      "d": 493.2833645833307,
      "v": 1
    },
    {
      "midi": 43,
      "hit": false,
      "t": 99666.48336458323,
      "d": 235.01982291667082,
      "v": 114
    },
    {
      "midi": 58,
      "hit": false,
      "t": 99669.06599999998,
      "d": 493.2833645833307,
      "v": 1
    },
    {
      "midi": 62,
      "hit": false,
      "t": 99674.23127083323,
      "d": 258.2635416666744,
      "v": 127
    },
    {
      "midi": 65,
      "hit": false,
      "t": 99676.8139062499,
      "d": 245.3503645833407,
      "v": 122
    },
    {
      "midi": 55,
      "hit": false,
      "t": 99924.7469062499,
      "d": 289.25516666666954,
      "v": 127
    },
    {
      "midi": 43,
      "hit": false,
      "t": 100162.34936458324,
      "d": 224.68928125000093,
      "v": 108
    },
    {
      "midi": 62,
      "hit": false,
      "t": 100164.93199999997,
      "d": 493.2833645833307,
      "v": 1
    },
    {
      "midi": 62,
      "hit": false,
      "t": 100446.43926041656,
      "d": 320.24679166666465,
      "v": 127
    },
    {
      "midi": 58,
      "hit": false,
      "t": 100449.02189583323,
      "d": 307.3336145833309,
      "v": 113
    },
    {
      "midi": 43,
      "hit": false,
      "t": 100658.21536458323,
      "d": 258.2635416666599,
      "v": 109
    },
    {
      "midi": 58,
      "hit": false,
      "t": 100660.79799999997,
      "d": 741.2163645833352,
      "v": 1
    },
    {
      "midi": 55,
      "hit": false,
      "t": 100919.06154166655,
      "d": 268.5940833333443,
      "v": 127
    },
    {
      "midi": 43,
      "hit": false,
      "t": 101154.08136458322,
      "d": 245.3503645833407,
      "v": 116
    },
    {
      "midi": 55,
      "hit": false,
      "t": 101402.01436458323,
      "d": 92.97487499999988,
      "v": 95
    },
    {
      "midi": 62,
      "hit": false,
      "t": 101404.59699999997,
      "d": 245.35036458332615,
      "v": 1
    },
    {
      "midi": 43,
      "hit": false,
      "t": 101649.94736458323,
      "d": 237.60245833333465,
      "v": 114
    },
    {
      "midi": 55,
      "hit": false,
      "t": 101652.5299999999,
      "d": 56.817979166677105,
      "v": 109
    },
    {
      "midi": 58,
      "hit": false,
      "t": 101652.52999999996,
      "d": 245.35036458332615,
      "v": 1
    },
    {
      "midi": 64,
      "hit": false,
      "t": 101662.86054166657,
      "d": 284.08989583334187,
      "v": 127
    },
    {
      "midi": 60,
      "hit": false,
      "t": 101662.86054166657,
      "d": 289.25516666666954,
      "v": 127
    },
    {
      "midi": 55,
      "hit": false,
      "t": 101900.4629999999,
      "d": 108.47068749999744,
      "v": 91
    },
    {
      "midi": 62,
      "hit": false,
      "t": 101900.46299999995,
      "d": 741.2163645833352,
      "v": 1
    },
    {
      "midi": 55,
      "hit": false,
      "t": 102138.06545833324,
      "d": 111.05332291667582,
      "v": 90
    },
    {
      "midi": 43,
      "hit": false,
      "t": 102145.81336458324,
      "d": 245.35036458332615,
      "v": 117
    },
    {
      "midi": 55,
      "hit": false,
      "t": 102385.99845833324,
      "d": 92.97487499998533,
      "v": 98
    },
    {
      "midi": 60,
      "hit": false,
      "t": 102396.3289999999,
      "d": 266.0114479166514,
      "v": 127
    },
    {
      "midi": 64,
      "hit": false,
      "t": 102398.91163541656,
      "d": 260.8461770833237,
      "v": 122
    },
    {
      "midi": 55,
      "hit": false,
      "t": 102636.5140937499,
      "d": 59.40061458332639,
      "v": 113
    },
    {
      "midi": 43,
      "hit": false,
      "t": 102641.67936458322,
      "d": 204.02819791666116,
      "v": 120
    },
    {
      "midi": 58,
      "hit": false,
      "t": 102644.26199999994,
      "d": 983.9840937499976,
      "v": 1
    },
    {
      "midi": 55,
      "hit": false,
      "t": 102881.86445833322,
      "d": 111.05332291666127,
      "v": 93
    },
    {
      "midi": 58,
      "hit": false,
      "t": 102881.86445833322,
      "d": 232.43718749999243,
      "v": 117
    },
    {
      "midi": 62,
      "hit": false,
      "t": 102881.86445833322,
      "d": 235.01982291665627,
      "v": 127
    },
    {
      "midi": 55,
      "hit": false,
      "t": 103134.96272916654,
      "d": 108.47068749999744,
      "v": 87
    },
    {
      "midi": 43,
      "hit": false,
      "t": 103140.12799999987,
      "d": 201.44556249999732,
      "v": 117
    },
    {
      "midi": 55,
      "hit": false,
      "t": 103382.89572916653,
      "d": 92.97487499999988,
      "v": 98
    },
    {
      "midi": 43,
      "hit": false,
      "t": 103633.4113645832,
      "d": 235.01982291665627,
      "v": 117
    },
    {
      "midi": 65,
      "hit": false,
      "t": 103651.48981249986,
      "d": 227.27191666666477,
      "v": 127
    },
    {
      "midi": 62,
      "hit": false,
      "t": 103654.07244791652,
      "d": 260.84617708333826,
      "v": 127
    },
    {
      "midi": 55,
      "hit": false,
      "t": 103881.34436458319,
      "d": 240.18509375001304,
      "v": 124
    },
    {
      "midi": 55,
      "hit": false,
      "t": 104129.2773645832,
      "d": 108.47068749999744,
      "v": 90
    },
    {
      "midi": 43,
      "hit": false,
      "t": 104129.2773645832,
      "d": 224.68928125000093,
      "v": 112
    },
    {
      "midi": 55,
      "hit": false,
      "t": 104377.21036458321,
      "d": 90.39223958333605,
      "v": 97
    },
    {
      "midi": 65,
      "hit": false,
      "t": 104400.45408333321,
      "d": 193.69765625000582,
      "v": 127
    },
    {
      "midi": 62,
      "hit": false,
      "t": 104403.03671874988,
      "d": 204.0281979166757,
      "v": 127
    },
    {
      "midi": 55,
      "hit": false,
      "t": 104625.14336458321,
      "d": 59.40061458332639,
      "v": 115
    },
    {
      "midi": 43,
      "hit": false,
      "t": 104625.14336458321,
      "d": 258.2635416666599,
      "v": 109
    },
    {
      "midi": 60,
      "hit": false,
      "t": 104860.16318749987,
      "d": 294.4204374999972,
      "v": 127
    },
    {
      "midi": 55,
      "hit": false,
      "t": 104873.0763645832,
      "d": 108.47068749999744,
      "v": 87
    },
    {
      "midi": 43,
      "hit": false,
      "t": 105121.00936458321,
      "d": 245.35036458332615,
      "v": 116
    },
    {
      "midi": 55,
      "hit": false,
      "t": 105126.17463541654,
      "d": 111.05332291666127,
      "v": 86
    },
    {
      "midi": 55,
      "hit": false,
      "t": 105374.10763541654,
      "d": 92.97487499999988,
      "v": 96
    },
    {
      "midi": 43,
      "hit": false,
      "t": 105616.8753645832,
      "d": 237.6024583333201,
      "v": 112
    },
    {
      "midi": 55,
      "hit": false,
      "t": 105619.45799999987,
      "d": 59.40061458332639,
      "v": 109
    },
    {
      "midi": 64,
      "hit": false,
      "t": 105671.1107083332,
      "d": 235.01982291665627,
      "v": 127
    },
    {
      "midi": 60,
      "hit": false,
      "t": 105676.27597916653,
      "d": 227.27191666666477,
      "v": 127
    },
    {
      "midi": 55,
      "hit": false,
      "t": 105867.39099999986,
      "d": 111.05332291666127,
      "v": 89
    },
    {
      "midi": 43,
      "hit": false,
      "t": 106112.74136458318,
      "d": 245.35036458332615,
      "v": 115
    },
    {
      "midi": 55,
      "hit": false,
      "t": 106115.32399999985,
      "d": 108.47068749999744,
      "v": 91
    },
    {
      "midi": 55,
      "hit": false,
      "t": 106363.25699999984,
      "d": 92.97487499998533,
      "v": 83
    },
    {
      "midi": 60,
      "hit": false,
      "t": 106368.42227083317,
      "d": 191.11502083332743,
      "v": 126
    },
    {
      "midi": 67,
      "hit": false,
      "t": 106373.5875416665,
      "d": 222.10664583332255,
      "v": 127
    },
    {
      "midi": 64,
      "hit": false,
      "t": 106376.17017708316,
      "d": 214.35873958333104,
      "v": 126
    },
    {
      "midi": 43,
      "hit": false,
      "t": 106608.60736458315,
      "d": 204.02819791666116,
      "v": 116
    },
    {
      "midi": 55,
      "hit": false,
      "t": 106611.18999999981,
      "d": 59.40061458332639,
      "v": 110
    },
    {
      "midi": 55,
      "hit": false,
      "t": 106859.12299999982,
      "d": 87.80960416667222,
      "v": 116
    },
    {
      "midi": 43,
      "hit": false,
      "t": 107107.05599999982,
      "d": 201.44556249999732,
      "v": 111
    },
    {
      "midi": 55,
      "hit": false,
      "t": 107354.98899999983,
      "d": 129.1317708333372,
      "v": 105
    },
    {
      "midi": 58,
      "hit": false,
      "t": 107597.7567291665,
      "d": 278.92462499997055,
      "v": 115
    },
    {
      "midi": 43,
      "hit": false,
      "t": 107600.33936458317,
      "d": 235.01982291665627,
      "v": 114
    },
    {
      "midi": 62,
      "hit": false,
      "t": 107600.33936458317,
      "d": 271.17671874997905,
      "v": 127
    },
    {
      "midi": 55,
      "hit": false,
      "t": 107602.92199999983,
      "d": 111.05332291666127,
      "v": 95
    },
    {
      "midi": 55,
      "hit": false,
      "t": 107853.43763541649,
      "d": 105.88805208331905,
      "v": 73
    },
    {
      "midi": 55,
      "hit": false,
      "t": 108096.20536458313,
      "d": 152.37548958332627,
      "v": 121
    },
    {
      "midi": 43,
      "hit": false,
      "t": 108096.20536458313,
      "d": 224.68928124998638,
      "v": 112
    },
    {
      "midi": 58,
      "hit": false,
      "t": 108354.4689062498,
      "d": 297.0030729166465,
      "v": 110
    },
    {
      "midi": 65,
      "hit": false,
      "t": 108357.05154166646,
      "d": 289.255166666655,
      "v": 120
    },
    {
      "midi": 55,
      "hit": false,
      "t": 108586.90609374979,
      "d": 105.88805208331905,
      "v": 103
    },
    {
      "midi": 43,
      "hit": false,
      "t": 108592.07136458311,
      "d": 258.2635416666599,
      "v": 112
    },
    {
      "midi": 65,
      "hit": false,
      "t": 108837.42172916644,
      "d": 227.27191666666477,
      "v": 126
    },
    {
      "midi": 58,
      "hit": false,
      "t": 108842.58699999977,
      "d": 224.68928125000093,
      "v": 110
    },
    {
      "midi": 43,
      "hit": false,
      "t": 109087.93736458311,
      "d": 245.3503645833407,
      "v": 116
    },
    {
      "midi": 55,
      "hit": false,
      "t": 109095.68527083311,
      "d": 111.05332291666127,
      "v": 96
    },
    {
      "midi": 55,
      "hit": false,
      "t": 109335.87036458311,
      "d": 129.1317708333372,
      "v": 108
    },
    {
      "midi": 55,
      "hit": false,
      "t": 109583.80336458312,
      "d": 111.05332291666127,
      "v": 93
    },
    {
      "midi": 43,
      "hit": false,
      "t": 109583.80336458312,
      "d": 237.60245833333465,
      "v": 118
    },
    {
      "midi": 60,
      "hit": false,
      "t": 109588.96863541644,
      "d": 250.51563541668293,
      "v": 127
    },
    {
      "midi": 64,
      "hit": false,
      "t": 109588.96863541644,
      "d": 250.51563541668293,
      "v": 127
    },
    {
      "midi": 55,
      "hit": false,
      "t": 109831.73636458312,
      "d": 105.8880520833336,
      "v": 72
    },
    {
      "midi": 55,
      "hit": false,
      "t": 110079.66936458313,
      "d": 152.37548958332627,
      "v": 120
    },
    {
      "midi": 43,
      "hit": false,
      "t": 110079.66936458313,
      "d": 245.35036458332615,
      "v": 115
    },
    {
      "midi": 60,
      "hit": false,
      "t": 110330.18499999978,
      "d": 242.76772916666232,
      "v": 127
    },
    {
      "midi": 64,
      "hit": false,
      "t": 110330.18499999978,
      "d": 258.2635416666599,
      "v": 127
    },
    {
      "midi": 43,
      "hit": false,
      "t": 110575.5353645831,
      "d": 204.02819791666116,
      "v": 121
    },
    {
      "midi": 55,
      "hit": false,
      "t": 110823.4683645831,
      "d": 108.47068749999744,
      "v": 98
    },
    {
      "midi": 65,
      "hit": false,
      "t": 110826.05099999976,
      "d": 361.56895833332965,
      "v": 127
    },
    {
      "midi": 58,
      "hit": false,
      "t": 110828.63363541642,
      "d": 346.0731458333321,
      "v": 115
    },
    {
      "midi": 62,
      "hit": false,
      "t": 110828.63363541642,
      "d": 358.9863229166658,
      "v": 119
    },
    {
      "midi": 43,
      "hit": false,
      "t": 111073.98399999976,
      "d": 201.44556249999732,
      "v": 111
    },
    {
      "midi": 55,
      "hit": false,
      "t": 111086.8971770831,
      "d": 85.22696874999383,
      "v": 88
    },
    {
      "midi": 55,
      "hit": false,
      "t": 111327.0822708331,
      "d": 85.22696874999383,
      "v": 92
    },
    {
      "midi": 43,
      "hit": false,
      "t": 111567.2673645831,
      "d": 235.01982291667082,
      "v": 117
    },
    {
      "midi": 65,
      "hit": false,
      "t": 111580.18054166643,
      "d": 358.9863229166658,
      "v": 127
    },
    {
      "midi": 55,
      "hit": false,
      "t": 111815.2003645831,
      "d": 85.22696874999383,
      "v": 90
    },
    {
      "midi": 43,
      "hit": false,
      "t": 112063.13336458309,
      "d": 224.68928125000093,
      "v": 109
    },
    {
      "midi": 58,
      "hit": false,
      "t": 112311.0663645831,
      "d": 377.06477083334175,
      "v": 123
    },
    {
      "midi": 55,
      "hit": false,
      "t": 112313.64899999976,
      "d": 77.47906250000233,
      "v": 112
    },
    {
      "midi": 65,
      "hit": false,
      "t": 112313.64899999976,
      "d": 167.87130208333838,
      "v": 127
    },
    {
      "midi": 55,
      "hit": false,
      "t": 112558.9993645831,
      "d": 87.80960416667222,
      "v": 99
    },
    {
      "midi": 62,
      "hit": false,
      "t": 112558.9993645831,
      "d": 178.20184375000827,
      "v": 127
    },
    {
      "midi": 43,
      "hit": false,
      "t": 112558.9993645831,
      "d": 258.2635416666744,
      "v": 114
    },
    {
      "midi": 55,
      "hit": false,
      "t": 112806.9323645831,
      "d": 85.22696875000838,
      "v": 98
    },
    {
      "midi": 65,
      "hit": false,
      "t": 112809.51499999977,
      "d": 167.87130208333838,
      "v": 126
    },
    {
      "midi": 58,
      "hit": false,
      "t": 112809.51499999977,
      "d": 175.61920833334443,
      "v": 119
    },
    {
      "midi": 43,
      "hit": false,
      "t": 113054.86536458311,
      "d": 245.3503645833116,
      "v": 111
    },
    {
      "midi": 64,
      "hit": false,
      "t": 113057.44799999977,
      "d": 237.6024583333201,
      "v": 123
    },
    {
      "midi": 60,
      "hit": false,
      "t": 113057.44799999977,
      "d": 247.93299999997544,
      "v": 114
    },
    {
      "midi": 55,
      "hit": false,
      "t": 113062.6132708331,
      "d": 85.22696874999383,
      "v": 101
    },
    {
      "midi": 55,
      "hit": false,
      "t": 113310.54627083307,
      "d": 82.64433333333,
      "v": 89
    },
    {
      "midi": 55,
      "hit": false,
      "t": 113550.73136458307,
      "d": 85.22696874999383,
      "v": 94
    },
    {
      "midi": 43,
      "hit": false,
      "t": 113550.73136458307,
      "d": 237.6024583333201,
      "v": 111
    },
    {
      "midi": 60,
      "hit": false,
      "t": 113550.73136458307,
      "d": 333.1599687499838,
      "v": 127
    },
    {
      "midi": 64,
      "hit": false,
      "t": 113550.73136458307,
      "d": 346.07314583331754,
      "v": 123
    },
    {
      "midi": 55,
      "hit": false,
      "t": 113798.66436458306,
      "d": 85.22696874999383,
      "v": 85
    },
    {
      "midi": 55,
      "hit": false,
      "t": 114046.59736458305,
      "d": 74.89642708332394,
      "v": 111
    },
    {
      "midi": 43,
      "hit": false,
      "t": 114046.59736458305,
      "d": 245.35036458332615,
      "v": 119
    },
    {
      "midi": 60,
      "hit": false,
      "t": 114049.17999999972,
      "d": 92.97487499999988,
      "v": 92
    },
    {
      "midi": 64,
      "hit": false,
      "t": 114049.17999999972,
      "d": 92.97487499999988,
      "v": 96
    },
    {
      "midi": 55,
      "hit": false,
      "t": 114291.94772916638,
      "d": 77.47906249998778,
      "v": 106
    },
    {
      "midi": 64,
      "hit": false,
      "t": 114297.1129999997,
      "d": 325.4120624999923,
      "v": 127
    },
    {
      "midi": 60,
      "hit": false,
      "t": 114297.1129999997,
      "d": 327.99469791665615,
      "v": 127
    },
    {
      "midi": 55,
      "hit": false,
      "t": 114542.46336458303,
      "d": 103.30541666666977,
      "v": 104
    },
    {
      "midi": 43,
      "hit": false,
      "t": 114542.46336458303,
      "d": 204.0281979166757,
      "v": 116
    },
    {
      "midi": 55,
      "hit": false,
      "t": 114790.39636458304,
      "d": 85.22696874999383,
      "v": 99
    },
    {
      "midi": 60,
      "hit": false,
      "t": 114790.39636458304,
      "d": 183.36711458332138,
      "v": 126
    },
    {
      "midi": 64,
      "hit": false,
      "t": 114790.39636458304,
      "d": 196.2802916666551,
      "v": 127
    },
    {
      "midi": 62,
      "hit": false,
      "t": 114792.97899999995,
      "d": 245.35036458332615,
      "v": 1
    },
    {
      "midi": 55,
      "hit": false,
      "t": 115040.91199999969,
      "d": 426.13484374999825,
      "v": 127
    },
    {
      "midi": 58,
      "hit": false,
      "t": 115040.91199999969,
      "d": 1172.5164791666612,
      "v": 113
    },
    {
      "midi": 60,
      "hit": false,
      "t": 115040.91199999969,
      "d": 1177.6817499999888,
      "v": 126
    },
    {
      "midi": 63,
      "hit": false,
      "t": 115040.91199999969,
      "d": 1182.8470208333165,
      "v": 112
    },
    {
      "midi": 63,
      "hit": false,
      "t": 115040.91199999994,
      "d": 983.9840937499976,
      "v": 1
    },
    {
      "midi": 55,
      "hit": false,
      "t": 115779.54572916636,
      "d": 322.8294270833285,
      "v": 124
    },
    {
      "midi": 55,
      "hit": false,
      "t": 116280.57699999967,
      "d": 284.0898958333273,
      "v": 127
    },
    {
      "midi": 58,
      "hit": false,
      "t": 116285.742270833,
      "d": 346.0731458333321,
      "v": 105
    },
    {
      "midi": 60,
      "hit": false,
      "t": 116285.742270833,
      "d": 351.23841666665976,
      "v": 119
    },
    {
      "midi": 63,
      "hit": false,
      "t": 116288.32490624966,
      "d": 343.49051041666826,
      "v": 106
    },
    {
      "midi": 55,
      "hit": false,
      "t": 116776.44299999966,
      "d": 196.28029166666965,
      "v": 127
    },
    {
      "midi": 60,
      "hit": false,
      "t": 116779.02563541633,
      "d": 149.79285416666244,
      "v": 125
    },
    {
      "midi": 58,
      "hit": false,
      "t": 116779.02563541633,
      "d": 152.37548958332627,
      "v": 109
    },
    {
      "midi": 63,
      "hit": false,
      "t": 116779.02563541633,
      "d": 160.12339583333232,
      "v": 113
    },
    {
      "midi": 53,
      "hit": false,
      "t": 117267.14372916633,
      "d": 276.34198958332126,
      "v": 125
    },
    {
      "midi": 60,
      "hit": false,
      "t": 117512.49409374966,
      "d": 470.0396458333271,
      "v": 118
    },
    {
      "midi": 57,
      "hit": false,
      "t": 117512.49409374966,
      "d": 472.6222812499909,
      "v": 115
    },
    {
      "midi": 65,
      "hit": false,
      "t": 117512.49409374966,
      "d": 477.7875520833186,
      "v": 121
    },
    {
      "midi": 63,
      "hit": false,
      "t": 117520.24199999994,
      "d": 741.2163645833352,
      "v": 1
    },
    {
      "midi": 53,
      "hit": false,
      "t": 117778.50554166632,
      "d": 297.0030729166465,
      "v": 127
    },
    {
      "midi": 57,
      "hit": false,
      "t": 118264.04099999963,
      "d": 304.75097916665254,
      "v": 124
    },
    {
      "midi": 62,
      "hit": false,
      "t": 118264.04099999994,
      "d": 245.35036458332615,
      "v": 1
    },
    {
      "midi": 65,
      "hit": false,
      "t": 118266.6236354163,
      "d": 214.35873958333104,
      "v": 118
    },
    {
      "midi": 60,
      "hit": false,
      "t": 118266.6236354163,
      "d": 286.67253124999115,
      "v": 122
    },
    {
      "midi": 53,
      "hit": false,
      "t": 118511.97399999962,
      "d": 211.7761041666672,
      "v": 127
    },
    {
      "midi": 63,
      "hit": false,
      "t": 118511.97399999993,
      "d": 741.2163645833352,
      "v": 1
    },
    {
      "midi": 62,
      "hit": false,
      "t": 118759.90699999963,
      "d": 697.3115624999919,
      "v": 127
    },
    {
      "midi": 55,
      "hit": false,
      "t": 118762.48963541629,
      "d": 694.728927083328,
      "v": 125
    },
    {
      "midi": 58,
      "hit": false,
      "t": 118762.48963541629,
      "d": 694.728927083328,
      "v": 117
    },
    {
      "midi": 62,
      "hit": false,
      "t": 119255.77299999993,
      "d": 983.9840937499976,
      "v": 1
    },
    {
      "midi": 55,
      "hit": false,
      "t": 119501.12336458295,
      "d": 271.1767187499936,
      "v": 126
    },
    {
      "midi": 58,
      "hit": false,
      "t": 119506.28863541628,
      "d": 294.4204374999972,
      "v": 115
    },
    {
      "midi": 62,
      "hit": false,
      "t": 119506.28863541628,
      "d": 317.6641562500008,
      "v": 127
    },
    {
      "midi": 55,
      "hit": false,
      "t": 120247.50499999961,
      "d": 237.60245833333465,
      "v": 127
    },
    {
      "midi": 58,
      "hit": false,
      "t": 120247.50499999961,
      "d": 263.4288125000021,
      "v": 113
    },
    {
      "midi": 62,
      "hit": false,
      "t": 120247.50499999961,
      "d": 271.17671875000815,
      "v": 127
    },
    {
      "midi": 53,
      "hit": false,
      "t": 120738.2057291663,
      "d": 503.6139062500006,
      "v": 120
    },
    {
      "midi": 58,
      "hit": false,
      "t": 120738.2057291663,
      "d": 511.36181250000664,
      "v": 115
    },
    {
      "midi": 62,
      "hit": false,
      "t": 120738.2057291663,
      "d": 513.9444479166705,
      "v": 127
    },
    {
      "midi": 58,
      "hit": false,
      "t": 121487.16999999963,
      "d": 325.41206250000687,
      "v": 110
    },
    {
      "midi": 62,
      "hit": false,
      "t": 121487.16999999963,
      "d": 333.1599687500129,
      "v": 127
    },
    {
      "midi": 53,
      "hit": false,
      "t": 121487.16999999963,
      "d": 338.3252395833406,
      "v": 116
    },
    {
      "midi": 60,
      "hit": false,
      "t": 122225.8037291663,
      "d": 327.9946979166707,
      "v": 127
    },
    {
      "midi": 62,
      "hit": false,
      "t": 122228.38636458297,
      "d": 312.49888541667315,
      "v": 127
    },
    {
      "midi": 53,
      "hit": false,
      "t": 122228.38636458297,
      "d": 327.9946979166707,
      "v": 117
    },
    {
      "midi": 53,
      "hit": false,
      "t": 122726.83499999964,
      "d": 439.048020833332,
      "v": 127
    },
    {
      "midi": 58,
      "hit": false,
      "t": 122726.83499999964,
      "d": 444.21329166665964,
      "v": 120
    },
    {
      "midi": 60,
      "hit": false,
      "t": 122726.83499999964,
      "d": 446.7959270833235,
      "v": 127
    },
    {
      "midi": 53,
      "hit": false,
      "t": 123470.63399999963,
      "d": 351.23841666665976,
      "v": 119
    },
    {
      "midi": 57,
      "hit": false,
      "t": 123470.63399999963,
      "d": 356.4036874999874,
      "v": 124
    },
    {
      "midi": 60,
      "hit": false,
      "t": 123470.63399999963,
      "d": 382.23004166665487,
      "v": 122
    },
    {
      "midi": 53,
      "hit": false,
      "t": 124214.43299999961,
      "d": 247.93300000000454,
      "v": 127
    },
    {
      "midi": 65,
      "hit": false,
      "t": 124214.43299999961,
      "d": 374.4821354166779,
      "v": 127
    },
    {
      "midi": 60,
      "hit": false,
      "t": 124214.43299999961,
      "d": 389.9779479166755,
      "v": 126
    },
    {
      "midi": 57,
      "hit": false,
      "t": 124214.43299999961,
      "d": 392.5605833333393,
      "v": 127
    },
    {
      "midi": 53,
      "hit": false,
      "t": 124710.29899999962,
      "d": 201.44556249999732,
      "v": 123
    },
    {
      "midi": 50,
      "hit": false,
      "t": 125208.74763541628,
      "d": 266.0114479166514,
      "v": 127
    },
    {
      "midi": 54,
      "hit": false,
      "t": 125211.33027083294,
      "d": 237.6024583333201,
      "v": 96
    },
    {
      "midi": 57,
      "hit": false,
      "t": 125216.49554166627,
      "d": 201.44556249999732,
      "v": 120
    },
    {
      "midi": 60,
      "hit": false,
      "t": 125216.49554166627,
      "d": 232.43718749999243,
      "v": 119
    },
    {
      "midi": 50,
      "hit": false,
      "t": 125707.19627083294,
      "d": 268.59408333332976,
      "v": 125
    },
    {
      "midi": 57,
      "hit": false,
      "t": 125709.7789062496,
      "d": 312.49888541667315,
      "v": 127
    },
    {
      "midi": 65,
      "hit": false,
      "t": 125709.7789062496,
      "d": 325.41206250000687,
      "v": 127
    },
    {
      "midi": 60,
      "hit": false,
      "t": 125709.7789062496,
      "d": 327.9946979166707,
      "v": 127
    },
    {
      "midi": 60,
      "hit": false,
      "t": 126192.73172916628,
      "d": 82.64433333333,
      "v": 114
    },
    {
      "midi": 57,
      "hit": false,
      "t": 126195.31436458294,
      "d": 72.31379166666011,
      "v": 117
    },
    {
      "midi": 50,
      "hit": false,
      "t": 126197.8969999996,
      "d": 299.5857083333249,
      "v": 127
    },
    {
      "midi": 57,
      "hit": false,
      "t": 126438.0820937496,
      "d": 183.36711458332138,
      "v": 120
    },
    {
      "midi": 65,
      "hit": false,
      "t": 126438.0820937496,
      "d": 276.34198958332126,
      "v": 127
    },
    {
      "midi": 60,
      "hit": false,
      "t": 126440.66472916627,
      "d": 408.05639583333686,
      "v": 127
    },
    {
      "midi": 57,
      "hit": false,
      "t": 126688.59772916626,
      "d": 139.4623125000071,
      "v": 125
    },
    {
      "midi": 50,
      "hit": false,
      "t": 126693.76299999958,
      "d": 198.86292708334804,
      "v": 127
    },
    {
      "midi": 65,
      "hit": false,
      "t": 126931.36545833293,
      "d": 245.3503645833407,
      "v": 127
    },
    {
      "midi": 57,
      "hit": false,
      "t": 126933.9480937496,
      "d": 235.01982291667082,
      "v": 127
    },
    {
      "midi": 60,
      "hit": false,
      "t": 126933.9480937496,
      "d": 245.3503645833407,
      "v": 127
    },
    {
      "midi": 50,
      "hit": false,
      "t": 126941.6959999996,
      "d": 289.25516666666954,
      "v": 127
    },
    {
      "midi": 65,
      "hit": false,
      "t": 127429.8140937496,
      "d": 242.76772916666232,
      "v": 127
    },
    {
      "midi": 60,
      "hit": false,
      "t": 127429.8140937496,
      "d": 253.0982708333322,
      "v": 127
    },
    {
      "midi": 57,
      "hit": false,
      "t": 127432.39672916627,
      "d": 240.1850937499985,
      "v": 127
    },
    {
      "midi": 50,
      "hit": false,
      "t": 127437.5619999996,
      "d": 286.6725312500057,
      "v": 127
    },
    {
      "midi": 65,
      "hit": false,
      "t": 127928.26272916626,
      "d": 165.28866666666,
      "v": 127
    },
    {
      "midi": 60,
      "hit": false,
      "t": 127930.84536458293,
      "d": 149.79285416666244,
      "v": 127
    },
    {
      "midi": 57,
      "hit": false,
      "t": 127930.84536458293,
      "d": 162.70603124999616,
      "v": 127
    },
    {
      "midi": 50,
      "hit": false,
      "t": 127933.42799999959,
      "d": 129.1317708333372,
      "v": 127
    },
    {
      "midi": 57,
      "hit": false,
      "t": 128183.94363541626,
      "d": 224.68928125000093,
      "v": 127
    },
    {
      "midi": 65,
      "hit": false,
      "t": 128183.94363541626,
      "d": 242.76772916667687,
      "v": 127
    },
    {
      "midi": 60,
      "hit": false,
      "t": 128183.94363541626,
      "d": 247.93300000000454,
      "v": 127
    },
    {
      "midi": 50,
      "hit": false,
      "t": 128186.52627083292,
      "d": 229.85455208334315,
      "v": 125
    },
    {
      "midi": 65,
      "hit": false,
      "t": 128672.06172916626,
      "d": 170.45393749998766,
      "v": 127
    },
    {
      "midi": 60,
      "hit": false,
      "t": 128674.64436458293,
      "d": 178.20184374997916,
      "v": 127
    },
    {
      "midi": 57,
      "hit": false,
      "t": 128674.64436458293,
      "d": 183.36711458330683,
      "v": 127
    },
    {
      "midi": 50,
      "hit": false,
      "t": 128677.22699999959,
      "d": 170.45393749998766,
      "v": 126
    },
    {
      "midi": 62,
      "hit": false,
      "t": 129415.86072916623,
      "d": 294.42043750001176,
      "v": 127
    },
    {
      "midi": 55,
      "hit": false,
      "t": 129415.86072916623,
      "d": 426.1348437500128,
      "v": 127
    },
    {
      "midi": 58,
      "hit": false,
      "t": 129415.86072916623,
      "d": 439.0480208333465,
      "v": 121
    },
    {
      "midi": 60,
      "hit": false,
      "t": 129663.79372916624,
      "d": 185.94975000001432,
      "v": 122
    },
    {
      "midi": 60,
      "hit": false,
      "t": 130154.49445833292,
      "d": 173.03657291666605,
      "v": 127
    },
    {
      "midi": 55,
      "hit": false,
      "t": 130157.07709374958,
      "d": 173.03657291666605,
      "v": 121
    },
    {
      "midi": 58,
      "hit": false,
      "t": 130159.65972916625,
      "d": 191.115020833342,
      "v": 115
    },
    {
      "midi": 51,
      "hit": false,
      "t": 130652.94309374959,
      "d": 366.7342291666573,
      "v": 107
    },
    {
      "midi": 55,
      "hit": false,
      "t": 130655.52572916626,
      "d": 387.3953124999971,
      "v": 127
    },
    {
      "midi": 58,
      "hit": false,
      "t": 130655.52572916626,
      "d": 402.89112499999464,
      "v": 117
    },
    {
      "midi": 58,
      "hit": false,
      "t": 131409.6552708329,
      "d": 516.5270833333489,
      "v": 121
    },
    {
      "midi": 63,
      "hit": false,
      "t": 131412.2379062496,
      "d": 526.8576250000042,
      "v": 122
    },
    {
      "midi": 55,
      "hit": false,
      "t": 131414.82054166627,
      "d": 196.2802916666551,
      "v": 127
    },
    {
      "midi": 55,
      "hit": false,
      "t": 131675.6667187496,
      "d": 245.3503645833407,
      "v": 122
    },
    {
      "midi": 63,
      "hit": false,
      "t": 131900.3559999999,
      "d": 989.1493645833398,
      "v": 1
    },
    {
      "midi": 67,
      "hit": false,
      "t": 131900.3559999999,
      "d": 989.1493645833398,
      "v": 1
    },
    {
      "midi": 55,
      "hit": false,
      "t": 132148.28899999958,
      "d": 263.4288125000021,
      "v": 123
    },
    {
      "midi": 58,
      "hit": false,
      "t": 132153.4542708329,
      "d": 245.3503645833407,
      "v": 117
    },
    {
      "midi": 63,
      "hit": false,
      "t": 132153.4542708329,
      "d": 253.09827083334676,
      "v": 117
    },
    {
      "midi": 62,
      "hit": false,
      "t": 132892.08799999993,
      "d": 983.9840937500121,
      "v": 1
    },
    {
      "midi": 65,
      "hit": false,
      "t": 132892.08799999993,
      "d": 983.9840937500121,
      "v": 1
    },
    {
      "midi": 62,
      "hit": false,
      "t": 133372.45818749958,
      "d": 291.8378020833188,
      "v": 127
    },
    {
      "midi": 53,
      "hit": false,
      "t": 133377.6234583329,
      "d": 374.4821354166488,
      "v": 127
    },
    {
      "midi": 58,
      "hit": false,
      "t": 133380.20609374958,
      "d": 400.30848958331626,
      "v": 122
    },
    {
      "midi": 60,
      "hit": false,
      "t": 133628.13909374957,
      "d": 157.54076041665394,
      "v": 124
    },
    {
      "midi": 53,
      "hit": false,
      "t": 134627.61899999957,
      "d": 209.19346874998882,
      "v": 127
    },
    {
      "midi": 58,
      "hit": false,
      "t": 134627.61899999957,
      "d": 222.10664583332255,
      "v": 119
    },
    {
      "midi": 60,
      "hit": false,
      "t": 134627.61899999957,
      "d": 227.2719166666502,
      "v": 126
    },
    {
      "midi": 57,
      "hit": false,
      "t": 134875.55199999956,
      "d": 222.10664583335165,
      "v": 127
    },
    {
      "midi": 60,
      "hit": false,
      "t": 134875.55199999956,
      "d": 237.60245833336376,
      "v": 127
    },
    {
      "midi": 53,
      "hit": false,
      "t": 134878.13463541624,
      "d": 232.43718750000698,
      "v": 124
    },
    {
      "midi": 53,
      "hit": false,
      "t": 135363.6700937496,
      "d": 237.60245833333465,
      "v": 123
    },
    {
      "midi": 60,
      "hit": false,
      "t": 135366.25272916627,
      "d": 216.94137499999488,
      "v": 127
    },
    {
      "midi": 57,
      "hit": false,
      "t": 135366.25272916627,
      "d": 235.01982291665627,
      "v": 127
    },
    {
      "midi": 53,
      "hit": false,
      "t": 135867.2839999996,
      "d": 152.37548958332627,
      "v": 127
    },
    {
      "midi": 57,
      "hit": false,
      "t": 135867.2839999996,
      "d": 154.95812500000466,
      "v": 127
    },
    {
      "midi": 48,
      "hit": false,
      "t": 135867.2839999996,
      "d": 170.45393750001676,
      "v": 122
    },
    {
      "midi": 48,
      "hit": false,
      "t": 136117.7996354163,
      "d": 157.54076041668304,
      "v": 115
    },
    {
      "midi": 57,
      "hit": false,
      "t": 136117.7996354163,
      "d": 180.7844791667012,
      "v": 123
    },
    {
      "midi": 53,
      "hit": false,
      "t": 136120.38227083298,
      "d": 157.54076041668304,
      "v": 123
    },
    {
      "midi": 53,
      "hit": false,
      "t": 136613.66563541634,
      "d": 165.2886666666891,
      "v": 117
    },
    {
      "midi": 57,
      "hit": false,
      "t": 136621.41354166635,
      "d": 167.87130208333838,
      "v": 122
    },
    {
      "midi": 60,
      "hit": false,
      "t": 136623.99617708303,
      "d": 183.36711458332138,
      "v": 123
    },
    {
      "midi": 62,
      "hit": false,
      "t": 137354.8819999997,
      "d": 291.8378020833479,
      "v": 127
    },
    {
      "midi": 58,
      "hit": false,
      "t": 137354.8819999997,
      "d": 392.5605833333393,
      "v": 112
    },
    {
      "midi": 55,
      "hit": false,
      "t": 137354.8819999997,
      "d": 431.3001145833405,
      "v": 121
    },
    {
      "midi": 60,
      "hit": false,
      "t": 137605.39763541636,
      "d": 167.87130208333838,
      "v": 118
    },
    {
      "midi": 55,
      "hit": false,
      "t": 138093.51572916636,
      "d": 206.61083333333954,
      "v": 115
    },
    {
      "midi": 58,
      "hit": false,
      "t": 138093.51572916636,
      "d": 216.94137499999488,
      "v": 118
    },
    {
      "midi": 60,
      "hit": false,
      "t": 138093.51572916636,
      "d": 216.94137499999488,
      "v": 122
    },
    {
      "midi": 51,
      "hit": false,
      "t": 138599.71227083303,
      "d": 284.08989583334187,
      "v": 106
    },
    {
      "midi": 58,
      "hit": false,
      "t": 138599.71227083303,
      "d": 299.585708333354,
      "v": 120
    },
    {
      "midi": 55,
      "hit": false,
      "t": 138602.2949062497,
      "d": 281.5072604166635,
      "v": 127
    },
    {
      "midi": 65,
      "hit": false,
      "t": 139092.9956354164,
      "d": 209.19346875001793,
      "v": 116
    },
    {
      "midi": 55,
      "hit": false,
      "t": 139095.57827083307,
      "d": 206.61083333333954,
      "v": 122
    },
    {
      "midi": 58,
      "hit": false,
      "t": 139095.57827083307,
      "d": 206.61083333333954,
      "v": 106
    },
    {
      "midi": 65,
      "hit": false,
      "t": 139333.1807291664,
      "d": 201.44556250001187,
      "v": 124
    },
    {
      "midi": 58,
      "hit": false,
      "t": 139333.1807291664,
      "d": 219.52401041670237,
      "v": 109
    },
    {
      "midi": 55,
      "hit": false,
      "t": 139335.76336458308,
      "d": 214.3587395833456,
      "v": 120
    },
    {
      "midi": 63,
      "hit": false,
      "t": 139834.21199999994,
      "d": 1237.0823645833298,
      "v": 1
    },
    {
      "midi": 67,
      "hit": false,
      "t": 139834.21199999994,
      "d": 1237.0823645833298,
      "v": 1
    },
    {
      "midi": 62,
      "hit": false,
      "t": 141073.87699999995,
      "d": 983.9840937500121,
      "v": 1
    },
    {
      "midi": 65,
      "hit": false,
      "t": 141073.87699999995,
      "d": 983.9840937500121,
      "v": 1
    },
    {
      "midi": 62,
      "hit": false,
      "t": 141316.64472916644,
      "d": 317.66415625001537,
      "v": 127
    },
    {
      "midi": 53,
      "hit": false,
      "t": 141316.64472916644,
      "d": 423.5522083333635,
      "v": 118
    },
    {
      "midi": 58,
      "hit": false,
      "t": 141316.64472916644,
      "d": 436.46538541669725,
      "v": 107
    },
    {
      "midi": 60,
      "hit": false,
      "t": 141569.74299999978,
      "d": 157.54076041668304,
      "v": 121
    },
    {
      "midi": 53,
      "hit": false,
      "t": 142055.27845833314,
      "d": 242.76772916669142,
      "v": 115
    },
    {
      "midi": 58,
      "hit": false,
      "t": 142055.27845833314,
      "d": 263.4288125000312,
      "v": 103
    },
    {
      "midi": 62,
      "hit": false,
      "t": 142057.86109374982,
      "d": 271.17671875000815,
      "v": 127
    },
    {
      "midi": 53,
      "hit": false,
      "t": 142566.64027083316,
      "d": 247.9330000000191,
      "v": 109
    },
    {
      "midi": 58,
      "hit": false,
      "t": 142569.22290624984,
      "d": 240.18509375001304,
      "v": 112
    },
    {
      "midi": 60,
      "hit": false,
      "t": 142569.22290624984,
      "d": 255.68090624999604,
      "v": 110
    },
    {
      "midi": 62,
      "hit": false,
      "t": 143307.8566354165,
      "d": 188.53238541667815,
      "v": 126
    },
    {
      "midi": 57,
      "hit": false,
      "t": 143307.8566354165,
      "d": 436.46538541669725,
      "v": 127
    },
    {
      "midi": 53,
      "hit": false,
      "t": 143310.4392708332,
      "d": 405.47376041667303,
      "v": 125
    },
    {
      "midi": 60,
      "hit": false,
      "t": 143553.20699999985,
      "d": 193.69765625003492,
      "v": 118
    },
    {
      "midi": 53,
      "hit": false,
      "t": 144289.25809374987,
      "d": 193.69765625000582,
      "v": 118
    },
    {
      "midi": 62,
      "hit": false,
      "t": 144291.84072916655,
      "d": 204.02819791666116,
      "v": 124
    },
    {
      "midi": 57,
      "hit": false,
      "t": 144291.84072916655,
      "d": 209.19346874998882,
      "v": 127
    },
    {
      "midi": 60,
      "hit": false,
      "t": 144544.93899999987,
      "d": 260.8461770833237,
      "v": 116
    },
    {
      "midi": 53,
      "hit": false,
      "t": 144547.52163541655,
      "d": 235.01982291665627,
      "v": 111
    },
    {
      "midi": 57,
      "hit": false,
      "t": 144547.52163541655,
      "d": 245.3503645833116,
      "v": 111
    },
    {
      "midi": 62,
      "hit": false,
      "t": 145283.57272916654,
      "d": 294.4204374999972,
      "v": 127
    },
    {
      "midi": 55,
      "hit": false,
      "t": 145283.57272916654,
      "d": 426.1348437499837,
      "v": 127
    },
    {
      "midi": 58,
      "hit": false,
      "t": 145283.57272916654,
      "d": 439.0480208333174,
      "v": 124
    },
    {
      "midi": 60,
      "hit": false,
      "t": 145531.50572916653,
      "d": 185.94974999999977,
      "v": 117
    },
    {
      "midi": 60,
      "hit": false,
      "t": 146022.20645833318,
      "d": 173.03657291669515,
      "v": 123
    },
    {
      "midi": 55,
      "hit": false,
      "t": 146024.78909374986,
      "d": 173.03657291669515,
      "v": 121
    },
    {
      "midi": 58,
      "hit": false,
      "t": 146027.37172916654,
      "d": 191.11502083335654,
      "v": 114
    },
    {
      "midi": 51,
      "hit": false,
      "t": 146520.6550937499,
      "d": 366.73422916667187,
      "v": 106
    },
    {
      "midi": 55,
      "hit": false,
      "t": 146523.23772916658,
      "d": 387.39531249998254,
      "v": 127
    },
    {
      "midi": 58,
      "hit": false,
      "t": 146523.23772916658,
      "d": 402.89112499999464,
      "v": 121
    },
    {
      "midi": 58,
      "hit": false,
      "t": 147277.36727083323,
      "d": 516.5270833333489,
      "v": 120
    },
    {
      "midi": 63,
      "hit": false,
      "t": 147279.9499062499,
      "d": 526.8576250000042,
      "v": 124
    },
    {
      "midi": 55,
      "hit": false,
      "t": 147282.5325416666,
      "d": 196.2802916666551,
      "v": 122
    },
    {
      "midi": 55,
      "hit": false,
      "t": 147543.3787187499,
      "d": 245.3503645833407,
      "v": 124
    },
    {
      "midi": 63,
      "hit": false,
      "t": 147768.06799999997,
      "d": 1237.0823645833298,
      "v": 1
    },
    {
      "midi": 67,
      "hit": false,
      "t": 147768.06799999997,
      "d": 1237.0823645833298,
      "v": 1
    },
    {
      "midi": 55,
      "hit": false,
      "t": 148016.0009999999,
      "d": 263.4288125000021,
      "v": 127
    },
    {
      "midi": 58,
      "hit": false,
      "t": 148021.16627083323,
      "d": 245.3503645833407,
      "v": 115
    },
    {
      "midi": 63,
      "hit": false,
      "t": 148021.16627083323,
      "d": 253.09827083334676,
      "v": 121
    },
    {
      "midi": 62,
      "hit": false,
      "t": 149007.73299999998,
      "d": 983.9840937500121,
      "v": 1
    },
    {
      "midi": 65,
      "hit": false,
      "t": 149007.73299999998,
      "d": 983.9840937500121,
      "v": 1
    },
    {
      "midi": 62,
      "hit": false,
      "t": 149240.1701874999,
      "d": 291.8378020833188,
      "v": 127
    },
    {
      "midi": 53,
      "hit": false,
      "t": 149245.33545833323,
      "d": 374.4821354166488,
      "v": 127
    },
    {
      "midi": 58,
      "hit": false,
      "t": 149247.9180937499,
      "d": 400.30848958331626,
      "v": 120
    },
    {
      "midi": 60,
      "hit": false,
      "t": 149495.8510937499,
      "d": 157.54076041665394,
      "v": 125
    },
    {
      "midi": 53,
      "hit": false,
      "t": 150495.3309999999,
      "d": 209.19346874998882,
      "v": 126
    },
    {
      "midi": 58,
      "hit": false,
      "t": 150495.3309999999,
      "d": 222.10664583332255,
      "v": 115
    },
    {
      "midi": 60,
      "hit": false,
      "t": 150495.3309999999,
      "d": 227.2719166666502,
      "v": 127
    },
    {
      "midi": 57,
      "hit": false,
      "t": 150743.26399999988,
      "d": 222.10664583335165,
      "v": 127
    },
    {
      "midi": 60,
      "hit": false,
      "t": 150743.26399999988,
      "d": 237.60245833336376,
      "v": 122
    },
    {
      "midi": 53,
      "hit": false,
      "t": 150745.84663541656,
      "d": 232.43718750000698,
      "v": 122
    },
    {
      "midi": 53,
      "hit": false,
      "t": 151231.3820937499,
      "d": 237.60245833333465,
      "v": 122
    },
    {
      "midi": 60,
      "hit": false,
      "t": 151233.9647291666,
      "d": 216.94137499999488,
      "v": 127
    },
    {
      "midi": 57,
      "hit": false,
      "t": 151233.9647291666,
      "d": 235.01982291665627,
      "v": 127
    },
    {
      "midi": 53,
      "hit": false,
      "t": 151734.99599999993,
      "d": 152.37548958332627,
      "v": 127
    },
    {
      "midi": 57,
      "hit": false,
      "t": 151734.99599999993,
      "d": 154.95812500000466,
      "v": 126
    },
    {
      "midi": 48,
      "hit": false,
      "t": 151734.99599999993,
      "d": 170.45393750001676,
      "v": 122
    },
    {
      "midi": 48,
      "hit": false,
      "t": 151985.51163541662,
      "d": 157.54076041668304,
      "v": 117
    },
    {
      "midi": 57,
      "hit": false,
      "t": 151985.51163541662,
      "d": 180.7844791667012,
      "v": 124
    },
    {
      "midi": 53,
      "hit": false,
      "t": 151988.0942708333,
      "d": 157.54076041668304,
      "v": 127
    },
    {
      "midi": 53,
      "hit": false,
      "t": 152481.37763541666,
      "d": 165.2886666666891,
      "v": 116
    },
    {
      "midi": 57,
      "hit": false,
      "t": 152489.12554166667,
      "d": 167.87130208333838,
      "v": 123
    },
    {
      "midi": 60,
      "hit": false,
      "t": 152491.70817708335,
      "d": 183.36711458332138,
      "v": 123
    },
    {
      "midi": 62,
      "hit": false,
      "t": 153222.594,
      "d": 291.8378020833479,
      "v": 126
    },
    {
      "midi": 58,
      "hit": false,
      "t": 153222.594,
      "d": 392.5605833333393,
      "v": 116
    },
    {
      "midi": 55,
      "hit": false,
      "t": 153222.594,
      "d": 431.3001145833405,
      "v": 119
    },
    {
      "midi": 60,
      "hit": false,
      "t": 153473.10963541668,
      "d": 167.87130208333838,
      "v": 114
    },
    {
      "midi": 55,
      "hit": false,
      "t": 153961.22772916668,
      "d": 206.61083333333954,
      "v": 113
    },
    {
      "midi": 58,
      "hit": false,
      "t": 153961.22772916668,
      "d": 216.94137499999488,
      "v": 116
    },
    {
      "midi": 60,
      "hit": false,
      "t": 153961.22772916668,
      "d": 216.94137499999488,
      "v": 127
    },
    {
      "midi": 51,
      "hit": false,
      "t": 154467.42427083335,
      "d": 284.08989583334187,
      "v": 110
    },
    {
      "midi": 58,
      "hit": false,
      "t": 154467.42427083335,
      "d": 299.585708333354,
      "v": 120
    },
    {
      "midi": 55,
      "hit": false,
      "t": 154470.00690625003,
      "d": 281.5072604166635,
      "v": 127
    },
    {
      "midi": 65,
      "hit": false,
      "t": 154960.7076354167,
      "d": 209.19346875001793,
      "v": 118
    },
    {
      "midi": 55,
      "hit": false,
      "t": 154963.2902708334,
      "d": 206.61083333333954,
      "v": 121
    },
    {
      "midi": 58,
      "hit": false,
      "t": 154963.2902708334,
      "d": 206.61083333333954,
      "v": 104
    },
    {
      "midi": 65,
      "hit": false,
      "t": 155200.89272916672,
      "d": 201.44556250001187,
      "v": 121
    },
    {
      "midi": 58,
      "hit": false,
      "t": 155200.89272916672,
      "d": 219.52401041670237,
      "v": 113
    },
    {
      "midi": 55,
      "hit": false,
      "t": 155203.4753645834,
      "d": 214.3587395833456,
      "v": 123
    },
    {
      "midi": 63,
      "hit": false,
      "t": 155701.924,
      "d": 989.1493645833398,
      "v": 1
    },
    {
      "midi": 67,
      "hit": false,
      "t": 155701.924,
      "d": 989.1493645833398,
      "v": 1
    },
    {
      "midi": 62,
      "hit": false,
      "t": 156693.65600000002,
      "d": 983.9840937500121,
      "v": 1
    },
    {
      "midi": 65,
      "hit": false,
      "t": 156693.65600000002,
      "d": 983.9840937500121,
      "v": 1
    },
    {
      "midi": 62,
      "hit": false,
      "t": 157184.35672916676,
      "d": 317.66415625001537,
      "v": 124
    },
    {
      "midi": 53,
      "hit": false,
      "t": 157184.35672916676,
      "d": 423.5522083333635,
      "v": 120
    },
    {
      "midi": 58,
      "hit": false,
      "t": 157184.35672916676,
      "d": 436.46538541669725,
      "v": 111
    },
    {
      "midi": 60,
      "hit": false,
      "t": 157437.4550000001,
      "d": 157.54076041668304,
      "v": 122
    },
    {
      "midi": 53,
      "hit": false,
      "t": 157922.99045833346,
      "d": 242.76772916669142,
      "v": 116
    },
    {
      "midi": 58,
      "hit": false,
      "t": 157922.99045833346,
      "d": 263.4288125000312,
      "v": 110
    },
    {
      "midi": 62,
      "hit": false,
      "t": 157925.57309375014,
      "d": 271.17671875000815,
      "v": 127
    },
    {
      "midi": 53,
      "hit": false,
      "t": 158434.35227083348,
      "d": 247.9330000000191,
      "v": 116
    },
    {
      "midi": 58,
      "hit": false,
      "t": 158436.93490625016,
      "d": 240.18509375001304,
      "v": 109
    },
    {
      "midi": 60,
      "hit": false,
      "t": 158436.93490625016,
      "d": 255.68090624999604,
      "v": 112
    },
    {
      "midi": 62,
      "hit": false,
      "t": 159175.56863541683,
      "d": 188.53238541667815,
      "v": 121
    },
    {
      "midi": 57,
      "hit": false,
      "t": 159175.56863541683,
      "d": 436.46538541669725,
      "v": 127
    },
    {
      "midi": 53,
      "hit": false,
      "t": 159178.1512708335,
      "d": 405.47376041667303,
      "v": 127
    },
    {
      "midi": 60,
      "hit": false,
      "t": 159420.91900000017,
      "d": 193.69765625003492,
      "v": 117
    },
    {
      "midi": 53,
      "hit": false,
      "t": 160156.9700937502,
      "d": 193.69765625000582,
      "v": 116
    },
    {
      "midi": 62,
      "hit": false,
      "t": 160159.55272916687,
      "d": 204.02819791666116,
      "v": 125
    },
    {
      "midi": 57,
      "hit": false,
      "t": 160159.55272916687,
      "d": 209.19346874998882,
      "v": 127
    },
    {
      "midi": 60,
      "hit": false,
      "t": 160412.6510000002,
      "d": 260.8461770833237,
      "v": 111
    },
    {
      "midi": 53,
      "hit": false,
      "t": 160415.23363541687,
      "d": 235.01982291665627,
      "v": 116
    },
    {
      "midi": 57,
      "hit": false,
      "t": 160415.23363541687,
      "d": 245.3503645833116,
      "v": 116
    },
    {
      "midi": 43,
      "hit": false,
      "t": 160660.58400000018,
      "d": 201.44556250001187,
      "v": 115
    },
    {
      "midi": 55,
      "hit": false,
      "t": 160900.7690937502,
      "d": 105.88805208331905,
      "v": 117
    },
    {
      "midi": 62,
      "hit": false,
      "t": 161146.1194583335,
      "d": 149.792854166677,
      "v": 127
    },
    {
      "midi": 58,
      "hit": false,
      "t": 161148.70209375018,
      "d": 113.6359583333251,
      "v": 104
    },
    {
      "midi": 43,
      "hit": false,
      "t": 161153.8673645835,
      "d": 235.01982291668537,
      "v": 119
    },
    {
      "midi": 55,
      "hit": false,
      "t": 161401.80036458353,
      "d": 113.6359583333251,
      "v": 116
    },
    {
      "midi": 55,
      "hit": false,
      "t": 161647.15072916684,
      "d": 167.87130208333838,
      "v": 119
    },
    {
      "midi": 43,
      "hit": false,
      "t": 161649.73336458352,
      "d": 224.68928125000093,
      "v": 115
    },
    {
      "midi": 62,
      "hit": false,
      "t": 161897.6663645835,
      "d": 178.2018437499937,
      "v": 127
    },
    {
      "midi": 58,
      "hit": false,
      "t": 161900.24900000019,
      "d": 165.28866666666,
      "v": 112
    },
    {
      "midi": 43,
      "hit": false,
      "t": 162145.5993645835,
      "d": 258.2635416666744,
      "v": 112
    },
    {
      "midi": 55,
      "hit": false,
      "t": 162396.11500000017,
      "d": 129.1317708333372,
      "v": 122
    },
    {
      "midi": 43,
      "hit": false,
      "t": 162641.4653645835,
      "d": 245.3503645833407,
      "v": 114
    },
    {
      "midi": 55,
      "hit": false,
      "t": 162644.04800000018,
      "d": 160.12339583333232,
      "v": 127
    },
    {
      "midi": 62,
      "hit": false,
      "t": 162644.04800000018,
      "d": 211.7761041666672,
      "v": 127
    },
    {
      "midi": 55,
      "hit": false,
      "t": 163127.00082291686,
      "d": 136.87967708334327,
      "v": 118
    },
    {
      "midi": 60,
      "hit": false,
      "t": 163129.58345833354,
      "d": 147.2102187499986,
      "v": 127
    },
    {
      "midi": 43,
      "hit": false,
      "t": 163137.33136458354,
      "d": 237.60245833333465,
      "v": 115
    },
    {
      "midi": 64,
      "hit": false,
      "t": 163382.68172916688,
      "d": 204.02819791666116,
      "v": 108
    },
    {
      "midi": 55,
      "hit": false,
      "t": 163387.8470000002,
      "d": 191.11502083332743,
      "v": 120
    },
    {
      "midi": 60,
      "hit": false,
      "t": 163387.8470000002,
      "d": 206.61083333333954,
      "v": 127
    },
    {
      "midi": 43,
      "hit": false,
      "t": 163633.19736458355,
      "d": 245.3503645833407,
      "v": 116
    },
    {
      "midi": 55,
      "hit": false,
      "t": 163894.0435416669,
      "d": 64.5658854166686,
      "v": 94
    },
    {
      "midi": 60,
      "hit": false,
      "t": 163894.0435416669,
      "d": 72.31379166667466,
      "v": 111
    },
    {
      "midi": 43,
      "hit": false,
      "t": 164129.0633645836,
      "d": 204.02819791669026,
      "v": 124
    },
    {
      "midi": 55,
      "hit": false,
      "t": 164131.64600000027,
      "d": 142.04494791667094,
      "v": 126
    },
    {
      "midi": 62,
      "hit": false,
      "t": 164131.64600000027,
      "d": 227.27191666667932,
      "v": 127
    },
    {
      "midi": 65,
      "hit": false,
      "t": 164134.22863541695,
      "d": 173.03657291666605,
      "v": 107
    },
    {
      "midi": 55,
      "hit": false,
      "t": 164379.5790000003,
      "d": 289.25516666666954,
      "v": 123
    },
    {
      "midi": 43,
      "hit": false,
      "t": 164627.51200000028,
      "d": 201.44556250001187,
      "v": 115
    },
    {
      "midi": 55,
      "hit": false,
      "t": 164872.86236458362,
      "d": 131.7144062499865,
      "v": 119
    },
    {
      "midi": 62,
      "hit": false,
      "t": 165118.21272916693,
      "d": 154.95812500000466,
      "v": 127
    },
    {
      "midi": 65,
      "hit": false,
      "t": 165118.21272916693,
      "d": 154.95812500000466,
      "v": 127
    },
    {
      "midi": 43,
      "hit": false,
      "t": 165120.7953645836,
      "d": 235.01982291665627,
      "v": 118
    },
    {
      "midi": 55,
      "hit": false,
      "t": 165366.14572916692,
      "d": 170.45393749998766,
      "v": 124
    },
    {
      "midi": 43,
      "hit": false,
      "t": 165616.6613645836,
      "d": 224.68928125000093,
      "v": 114
    },
    {
      "midi": 62,
      "hit": false,
      "t": 165867.17700000026,
      "d": 149.792854166677,
      "v": 127
    },
    {
      "midi": 65,
      "hit": false,
      "t": 165867.17700000026,
      "d": 149.792854166677,
      "v": 127
    },
    {
      "midi": 43,
      "hit": false,
      "t": 166112.5273645836,
      "d": 258.2635416666744,
      "v": 108
    },
    {
      "midi": 55,
      "hit": false,
      "t": 166352.7124583336,
      "d": 154.95812500000466,
      "v": 109
    },
    {
      "midi": 43,
      "hit": false,
      "t": 166608.3933645836,
      "d": 245.3503645833407,
      "v": 117
    },
    {
      "midi": 55,
      "hit": false,
      "t": 166610.9760000003,
      "d": 175.61920833334443,
      "v": 117
    },
    {
      "midi": 60,
      "hit": false,
      "t": 166610.9760000003,
      "d": 175.61920833334443,
      "v": 120
    },
    {
      "midi": 64,
      "hit": false,
      "t": 166610.9760000003,
      "d": 185.94974999999977,
      "v": 127
    },
    {
      "midi": 43,
      "hit": false,
      "t": 167104.25936458362,
      "d": 237.60245833336376,
      "v": 114
    },
    {
      "midi": 55,
      "hit": false,
      "t": 167112.00727083362,
      "d": 170.45393750001676,
      "v": 112
    },
    {
      "midi": 64,
      "hit": false,
      "t": 167112.00727083362,
      "d": 170.45393750001676,
      "v": 127
    },
    {
      "midi": 60,
      "hit": false,
      "t": 167114.5899062503,
      "d": 160.12339583333232,
      "v": 127
    },
    {
      "midi": 43,
      "hit": false,
      "t": 167600.12536458366,
      "d": 245.3503645833407,
      "v": 117
    },
    {
      "midi": 63,
      "hit": false,
      "t": 167855.80627083365,
      "d": 116.21859375000349,
      "v": 97
    },
    {
      "midi": 75,
      "hit": false,
      "t": 167855.80627083365,
      "d": 116.21859375000349,
      "v": 100
    },
    {
      "midi": 64,
      "hit": false,
      "t": 167974.60750000033,
      "d": 144.62758333332022,
      "v": 110
    },
    {
      "midi": 76,
      "hit": false,
      "t": 167974.60750000033,
      "d": 144.62758333332022,
      "v": 118
    },
    {
      "midi": 72,
      "hit": false,
      "t": 168085.660822917,
      "d": 348.6557812499814,
      "v": 109
    },
    {
      "midi": 43,
      "hit": false,
      "t": 168095.99136458366,
      "d": 204.02819791666116,
      "v": 121
    },
    {
      "midi": 43,
      "hit": false,
      "t": 168594.44000000032,
      "d": 201.44556250001187,
      "v": 112
    },
    {
      "midi": 55,
      "hit": false,
      "t": 168834.62509375034,
      "d": 105.88805208331905,
      "v": 118
    },
    {
      "midi": 62,
      "hit": false,
      "t": 169079.97545833365,
      "d": 149.792854166677,
      "v": 127
    },
    {
      "midi": 58,
      "hit": false,
      "t": 169082.55809375033,
      "d": 113.6359583333251,
      "v": 105
    },
    {
      "midi": 43,
      "hit": false,
      "t": 169087.72336458365,
      "d": 235.01982291668537,
      "v": 115
    },
    {
      "midi": 55,
      "hit": false,
      "t": 169335.65636458367,
      "d": 113.6359583333251,
      "v": 117
    },
    {
      "midi": 55,
      "hit": false,
      "t": 169581.00672916698,
      "d": 167.87130208333838,
      "v": 125
    },
    {
      "midi": 43,
      "hit": false,
      "t": 169583.58936458366,
      "d": 224.68928125000093,
      "v": 113
    },
    {
      "midi": 62,
      "hit": false,
      "t": 169831.52236458365,
      "d": 178.2018437499937,
      "v": 127
    },
    {
      "midi": 58,
      "hit": false,
      "t": 169834.10500000033,
      "d": 165.28866666666,
      "v": 112
    },
    {
      "midi": 43,
      "hit": false,
      "t": 170079.45536458364,
      "d": 258.2635416666744,
      "v": 112
    },
    {
      "midi": 55,
      "hit": false,
      "t": 170329.9710000003,
      "d": 129.1317708333372,
      "v": 121
    },
    {
      "midi": 43,
      "hit": false,
      "t": 170575.32136458365,
      "d": 245.3503645833407,
      "v": 113
    },
    {
      "midi": 55,
      "hit": false,
      "t": 170577.90400000033,
      "d": 160.12339583333232,
      "v": 127
    },
    {
      "midi": 62,
      "hit": false,
      "t": 170577.90400000033,
      "d": 211.7761041666672,
      "v": 127
    },
    {
      "midi": 55,
      "hit": false,
      "t": 171060.856822917,
      "d": 136.87967708334327,
      "v": 120
    },
    {
      "midi": 60,
      "hit": false,
      "t": 171063.43945833368,
      "d": 147.2102187499986,
      "v": 127
    },
    {
      "midi": 43,
      "hit": false,
      "t": 171071.1873645837,
      "d": 237.60245833333465,
      "v": 116
    },
    {
      "midi": 64,
      "hit": false,
      "t": 171316.53772916703,
      "d": 204.02819791666116,
      "v": 106
    },
    {
      "midi": 55,
      "hit": false,
      "t": 171321.70300000036,
      "d": 191.11502083332743,
      "v": 117
    },
    {
      "midi": 60,
      "hit": false,
      "t": 171321.70300000036,
      "d": 206.61083333333954,
      "v": 127
    },
    {
      "midi": 43,
      "hit": false,
      "t": 171567.0533645837,
      "d": 245.3503645833407,
      "v": 118
    },
    {
      "midi": 55,
      "hit": false,
      "t": 171827.89954166705,
      "d": 64.5658854166686,
      "v": 94
    },
    {
      "midi": 60,
      "hit": false,
      "t": 171827.89954166705,
      "d": 72.31379166667466,
      "v": 112
    },
    {
      "midi": 43,
      "hit": false,
      "t": 172062.91936458374,
      "d": 204.02819791669026,
      "v": 116
    },
    {
      "midi": 55,
      "hit": false,
      "t": 172065.50200000042,
      "d": 142.04494791667094,
      "v": 122
    },
    {
      "midi": 62,
      "hit": false,
      "t": 172065.50200000042,
      "d": 227.27191666667932,
      "v": 127
    },
    {
      "midi": 65,
      "hit": false,
      "t": 172068.0846354171,
      "d": 173.03657291666605,
      "v": 110
    },
    {
      "midi": 55,
      "hit": false,
      "t": 172313.43500000043,
      "d": 289.25516666666954,
      "v": 125
    },
    {
      "midi": 43,
      "hit": false,
      "t": 172561.36800000042,
      "d": 201.44556250001187,
      "v": 114
    },
    {
      "midi": 55,
      "hit": false,
      "t": 172806.71836458376,
      "d": 131.7144062499865,
      "v": 121
    },
    {
      "midi": 62,
      "hit": false,
      "t": 173052.06872916708,
      "d": 154.95812500000466,
      "v": 127
    },
    {
      "midi": 65,
      "hit": false,
      "t": 173052.06872916708,
      "d": 154.95812500000466,
      "v": 127
    },
    {
      "midi": 43,
      "hit": false,
      "t": 173054.65136458375,
      "d": 235.01982291665627,
      "v": 118
    },
    {
      "midi": 55,
      "hit": false,
      "t": 173300.00172916707,
      "d": 170.45393749998766,
      "v": 122
    },
    {
      "midi": 43,
      "hit": false,
      "t": 173550.51736458373,
      "d": 224.68928125000093,
      "v": 115
    },
    {
      "midi": 62,
      "hit": false,
      "t": 173801.0330000004,
      "d": 149.792854166677,
      "v": 127
    },
    {
      "midi": 65,
      "hit": false,
      "t": 173801.0330000004,
      "d": 149.792854166677,
      "v": 127
    },
    {
      "midi": 43,
      "hit": false,
      "t": 174046.38336458374,
      "d": 258.2635416666744,
      "v": 114
    },
    {
      "midi": 55,
      "hit": false,
      "t": 174286.56845833376,
      "d": 154.95812500000466,
      "v": 112
    },
    {
      "midi": 43,
      "hit": false,
      "t": 174542.24936458375,
      "d": 245.3503645833407,
      "v": 117
    },
    {
      "midi": 55,
      "hit": false,
      "t": 174544.83200000043,
      "d": 175.61920833334443,
      "v": 116
    },
    {
      "midi": 60,
      "hit": false,
      "t": 174544.83200000043,
      "d": 175.61920833334443,
      "v": 122
    },
    {
      "midi": 64,
      "hit": false,
      "t": 174544.83200000043,
      "d": 185.94974999999977,
      "v": 127
    },
    {
      "midi": 43,
      "hit": false,
      "t": 175038.11536458376,
      "d": 237.60245833336376,
      "v": 115
    },
    {
      "midi": 55,
      "hit": false,
      "t": 175045.86327083377,
      "d": 170.45393750001676,
      "v": 113
    },
    {
      "midi": 64,
      "hit": false,
      "t": 175045.86327083377,
      "d": 170.45393750001676,
      "v": 127
    },
    {
      "midi": 60,
      "hit": false,
      "t": 175048.44590625045,
      "d": 160.12339583333232,
      "v": 127
    },
    {
      "midi": 43,
      "hit": false,
      "t": 175533.9813645838,
      "d": 245.3503645833407,
      "v": 119
    },
    {
      "midi": 63,
      "hit": false,
      "t": 175789.6622708338,
      "d": 116.21859375000349,
      "v": 104
    },
    {
      "midi": 75,
      "hit": false,
      "t": 175789.6622708338,
      "d": 116.21859375000349,
      "v": 102
    },
    {
      "midi": 64,
      "hit": false,
      "t": 175908.46350000048,
      "d": 144.62758333332022,
      "v": 114
    },
    {
      "midi": 76,
      "hit": false,
      "t": 175908.46350000048,
      "d": 144.62758333332022,
      "v": 114
    },
    {
      "midi": 72,
      "hit": false,
      "t": 176019.51682291715,
      "d": 348.6557812499814,
      "v": 108
    },
    {
      "midi": 43,
      "hit": false,
      "t": 176029.8473645838,
      "d": 204.02819791666116,
      "v": 119
    },
    {
      "midi": 62,
      "hit": false,
      "t": 192886.70872916715,
      "d": 294.4204374999972,
      "v": 127
    },
    {
      "midi": 55,
      "hit": false,
      "t": 192886.70872916715,
      "d": 426.1348437499837,
      "v": 127
    },
    {
      "midi": 58,
      "hit": false,
      "t": 192886.70872916715,
      "d": 439.0480208333174,
      "v": 118
    },
    {
      "midi": 60,
      "hit": false,
      "t": 193134.64172916714,
      "d": 185.94974999999977,
      "v": 121
    },
    {
      "midi": 60,
      "hit": false,
      "t": 193625.3424583338,
      "d": 173.03657291669515,
      "v": 125
    },
    {
      "midi": 55,
      "hit": false,
      "t": 193627.92509375047,
      "d": 173.03657291669515,
      "v": 124
    },
    {
      "midi": 58,
      "hit": false,
      "t": 193630.50772916715,
      "d": 191.11502083335654,
      "v": 111
    },
    {
      "midi": 51,
      "hit": false,
      "t": 194123.7910937505,
      "d": 366.73422916667187,
      "v": 106
    },
    {
      "midi": 55,
      "hit": false,
      "t": 194126.3737291672,
      "d": 387.39531249998254,
      "v": 127
    },
    {
      "midi": 58,
      "hit": false,
      "t": 194126.3737291672,
      "d": 402.89112499999464,
      "v": 122
    },
    {
      "midi": 58,
      "hit": false,
      "t": 194880.50327083384,
      "d": 516.5270833333489,
      "v": 118
    },
    {
      "midi": 63,
      "hit": false,
      "t": 194883.08590625052,
      "d": 526.8576250000042,
      "v": 123
    },
    {
      "midi": 55,
      "hit": false,
      "t": 194885.6685416672,
      "d": 196.2802916666551,
      "v": 122
    },
    {
      "midi": 55,
      "hit": false,
      "t": 195146.51471875052,
      "d": 245.3503645833407,
      "v": 127
    },
    {
      "midi": 63,
      "hit": false,
      "t": 195371.20400000003,
      "d": 989.1493645833398,
      "v": 1
    },
    {
      "midi": 67,
      "hit": false,
      "t": 195371.20400000003,
      "d": 989.1493645833398,
      "v": 1
    },
    {
      "midi": 55,
      "hit": false,
      "t": 195619.1370000005,
      "d": 263.4288125000021,
      "v": 126
    },
    {
      "midi": 58,
      "hit": false,
      "t": 195624.30227083384,
      "d": 245.3503645833407,
      "v": 119
    },
    {
      "midi": 63,
      "hit": false,
      "t": 195624.30227083384,
      "d": 253.09827083334676,
      "v": 124
    },
    {
      "midi": 62,
      "hit": false,
      "t": 196362.93600000005,
      "d": 983.9840937500121,
      "v": 1
    },
    {
      "midi": 65,
      "hit": false,
      "t": 196362.93600000005,
      "d": 983.9840937500121,
      "v": 1
    },
    {
      "midi": 62,
      "hit": false,
      "t": 196843.3061875005,
      "d": 291.8378020833188,
      "v": 127
    },
    {
      "midi": 53,
      "hit": false,
      "t": 196848.47145833384,
      "d": 374.4821354166488,
      "v": 127
    },
    {
      "midi": 58,
      "hit": false,
      "t": 196851.0540937505,
      "d": 400.30848958331626,
      "v": 117
    },
    {
      "midi": 60,
      "hit": false,
      "t": 197098.9870937505,
      "d": 157.54076041665394,
      "v": 119
    },
    {
      "midi": 53,
      "hit": false,
      "t": 198098.4670000005,
      "d": 209.19346874998882,
      "v": 127
    },
    {
      "midi": 58,
      "hit": false,
      "t": 198098.4670000005,
      "d": 222.10664583332255,
      "v": 116
    },
    {
      "midi": 60,
      "hit": false,
      "t": 198098.4670000005,
      "d": 227.2719166666502,
      "v": 127
    },
    {
      "midi": 57,
      "hit": false,
      "t": 198346.4000000005,
      "d": 222.10664583335165,
      "v": 127
    },
    {
      "midi": 60,
      "hit": false,
      "t": 198346.4000000005,
      "d": 237.60245833336376,
      "v": 127
    },
    {
      "midi": 53,
      "hit": false,
      "t": 198348.98263541717,
      "d": 232.43718750000698,
      "v": 126
    },
    {
      "midi": 53,
      "hit": false,
      "t": 198834.51809375052,
      "d": 237.60245833333465,
      "v": 120
    },
    {
      "midi": 60,
      "hit": false,
      "t": 198837.1007291672,
      "d": 216.94137499999488,
      "v": 123
    },
    {
      "midi": 57,
      "hit": false,
      "t": 198837.1007291672,
      "d": 235.01982291665627,
      "v": 127
    },
    {
      "midi": 53,
      "hit": false,
      "t": 199338.13200000054,
      "d": 152.37548958332627,
      "v": 127
    },
    {
      "midi": 57,
      "hit": false,
      "t": 199338.13200000054,
      "d": 154.95812500000466,
      "v": 127
    },
    {
      "midi": 48,
      "hit": false,
      "t": 199338.13200000054,
      "d": 170.45393750001676,
      "v": 125
    },
    {
      "midi": 48,
      "hit": false,
      "t": 199588.64763541723,
      "d": 157.54076041668304,
      "v": 114
    },
    {
      "midi": 57,
      "hit": false,
      "t": 199588.64763541723,
      "d": 180.7844791667012,
      "v": 119
    },
    {
      "midi": 53,
      "hit": false,
      "t": 199591.2302708339,
      "d": 157.54076041668304,
      "v": 127
    },
    {
      "midi": 53,
      "hit": false,
      "t": 200084.51363541727,
      "d": 165.2886666666891,
      "v": 114
    },
    {
      "midi": 57,
      "hit": false,
      "t": 200092.26154166728,
      "d": 167.87130208333838,
      "v": 125
    },
    {
      "midi": 60,
      "hit": false,
      "t": 200094.84417708396,
      "d": 183.36711458332138,
      "v": 118
    },
    {
      "midi": 62,
      "hit": false,
      "t": 200825.73000000062,
      "d": 291.8378020833479,
      "v": 127
    },
    {
      "midi": 58,
      "hit": false,
      "t": 200825.73000000062,
      "d": 392.5605833333393,
      "v": 111
    },
    {
      "midi": 55,
      "hit": false,
      "t": 200825.73000000062,
      "d": 431.3001145833405,
      "v": 124
    },
    {
      "midi": 60,
      "hit": false,
      "t": 201076.2456354173,
      "d": 167.87130208333838,
      "v": 120
    },
    {
      "midi": 55,
      "hit": false,
      "t": 201564.3637291673,
      "d": 206.61083333333954,
      "v": 118
    },
    {
      "midi": 58,
      "hit": false,
      "t": 201564.3637291673,
      "d": 216.94137499999488,
      "v": 116
    },
    {
      "midi": 60,
      "hit": false,
      "t": 201564.3637291673,
      "d": 216.94137499999488,
      "v": 126
    },
    {
      "midi": 51,
      "hit": false,
      "t": 202070.56027083396,
      "d": 284.08989583334187,
      "v": 112
    },
    {
      "midi": 58,
      "hit": false,
      "t": 202070.56027083396,
      "d": 299.585708333354,
      "v": 121
    },
    {
      "midi": 55,
      "hit": false,
      "t": 202073.14290625064,
      "d": 281.5072604166635,
      "v": 127
    },
    {
      "midi": 65,
      "hit": false,
      "t": 202563.84363541732,
      "d": 209.19346875001793,
      "v": 123
    },
    {
      "midi": 55,
      "hit": false,
      "t": 202566.426270834,
      "d": 206.61083333333954,
      "v": 125
    },
    {
      "midi": 58,
      "hit": false,
      "t": 202566.426270834,
      "d": 206.61083333333954,
      "v": 108
    },
    {
      "midi": 65,
      "hit": false,
      "t": 202804.02872916733,
      "d": 201.44556250001187,
      "v": 126
    },
    {
      "midi": 58,
      "hit": false,
      "t": 202804.02872916733,
      "d": 219.52401041670237,
      "v": 112
    },
    {
      "midi": 55,
      "hit": false,
      "t": 202806.611364584,
      "d": 214.3587395833456,
      "v": 124
    },
    {
      "midi": 63,
      "hit": false,
      "t": 203305.06000000006,
      "d": 1237.0823645833298,
      "v": 1
    },
    {
      "midi": 67,
      "hit": false,
      "t": 203305.06000000006,
      "d": 1237.0823645833298,
      "v": 1
    },
    {
      "midi": 62,
      "hit": false,
      "t": 204544.72500000006,
      "d": 983.9840937500121,
      "v": 1
    },
    {
      "midi": 65,
      "hit": false,
      "t": 204544.72500000006,
      "d": 983.9840937500121,
      "v": 1
    },
    {
      "midi": 62,
      "hit": false,
      "t": 204787.49272916737,
      "d": 317.66415625001537,
      "v": 127
    },
    {
      "midi": 53,
      "hit": false,
      "t": 204787.49272916737,
      "d": 423.5522083333635,
      "v": 117
    },
    {
      "midi": 58,
      "hit": false,
      "t": 204787.49272916737,
      "d": 436.46538541669725,
      "v": 106
    },
    {
      "midi": 60,
      "hit": false,
      "t": 205040.5910000007,
      "d": 157.54076041668304,
      "v": 120
    },
    {
      "midi": 53,
      "hit": false,
      "t": 205526.12645833407,
      "d": 242.76772916669142,
      "v": 113
    },
    {
      "midi": 58,
      "hit": false,
      "t": 205526.12645833407,
      "d": 263.4288125000312,
      "v": 106
    },
    {
      "midi": 62,
      "hit": false,
      "t": 205528.70909375075,
      "d": 271.17671875000815,
      "v": 127
    },
    {
      "midi": 53,
      "hit": false,
      "t": 206037.4882708341,
      "d": 247.9330000000191,
      "v": 115
    },
    {
      "midi": 58,
      "hit": false,
      "t": 206040.07090625077,
      "d": 240.18509375001304,
      "v": 107
    },
    {
      "midi": 60,
      "hit": false,
      "t": 206040.07090625077,
      "d": 255.68090624999604,
      "v": 110
    },
    {
      "midi": 62,
      "hit": false,
      "t": 206778.70463541744,
      "d": 188.53238541667815,
      "v": 124
    },
    {
      "midi": 57,
      "hit": false,
      "t": 206778.70463541744,
      "d": 436.46538541669725,
      "v": 127
    },
    {
      "midi": 53,
      "hit": false,
      "t": 206781.28727083412,
      "d": 405.47376041667303,
      "v": 127
    },
    {
      "midi": 60,
      "hit": false,
      "t": 207024.05500000078,
      "d": 193.69765625003492,
      "v": 123
    },
    {
      "midi": 53,
      "hit": false,
      "t": 207760.1060937508,
      "d": 193.69765625000582,
      "v": 123
    },
    {
      "midi": 62,
      "hit": false,
      "t": 207762.68872916748,
      "d": 204.02819791666116,
      "v": 122
    },
    {
      "midi": 57,
      "hit": false,
      "t": 207762.68872916748,
      "d": 209.19346874998882,
      "v": 127
    },
    {
      "midi": 60,
      "hit": false,
      "t": 208015.7870000008,
      "d": 260.8461770833237,
      "v": 113
    },
    {
      "midi": 53,
      "hit": false,
      "t": 208018.36963541748,
      "d": 235.01982291665627,
      "v": 114
    },
    {
      "midi": 57,
      "hit": false,
      "t": 208018.36963541748,
      "d": 245.3503645833116,
      "v": 111
    },
    {
      "midi": 62,
      "hit": false,
      "t": 208754.42072916747,
      "d": 294.4204374999972,
      "v": 127
    },
    {
      "midi": 55,
      "hit": false,
      "t": 208754.42072916747,
      "d": 426.1348437499837,
      "v": 127
    },
    {
      "midi": 58,
      "hit": false,
      "t": 208754.42072916747,
      "d": 439.0480208333174,
      "v": 118
    },
    {
      "midi": 60,
      "hit": false,
      "t": 209002.35372916746,
      "d": 185.94974999999977,
      "v": 119
    },
    {
      "midi": 60,
      "hit": false,
      "t": 209493.0544583341,
      "d": 173.03657291669515,
      "v": 124
    },
    {
      "midi": 55,
      "hit": false,
      "t": 209495.6370937508,
      "d": 173.03657291669515,
      "v": 125
    },
    {
      "midi": 58,
      "hit": false,
      "t": 209498.21972916747,
      "d": 191.11502083335654,
      "v": 116
    },
    {
      "midi": 51,
      "hit": false,
      "t": 209991.50309375083,
      "d": 366.73422916667187,
      "v": 111
    },
    {
      "midi": 55,
      "hit": false,
      "t": 209994.0857291675,
      "d": 387.39531249998254,
      "v": 127
    },
    {
      "midi": 58,
      "hit": false,
      "t": 209994.0857291675,
      "d": 402.89112499999464,
      "v": 124
    },
    {
      "midi": 58,
      "hit": false,
      "t": 210748.21527083416,
      "d": 516.5270833333489,
      "v": 123
    },
    {
      "midi": 63,
      "hit": false,
      "t": 210750.79790625084,
      "d": 526.8576250000042,
      "v": 120
    },
    {
      "midi": 55,
      "hit": false,
      "t": 210753.38054166752,
      "d": 196.2802916666551,
      "v": 125
    },
    {
      "midi": 55,
      "hit": false,
      "t": 211014.22671875084,
      "d": 245.3503645833407,
      "v": 122
    },
    {
      "midi": 63,
      "hit": false,
      "t": 211238.91600000008,
      "d": 1237.0823645833298,
      "v": 1
    },
    {
      "midi": 67,
      "hit": false,
      "t": 211238.91600000008,
      "d": 1237.0823645833298,
      "v": 1
    },
    {
      "midi": 55,
      "hit": false,
      "t": 211486.84900000083,
      "d": 263.4288125000021,
      "v": 127
    },
    {
      "midi": 58,
      "hit": false,
      "t": 211492.01427083416,
      "d": 245.3503645833407,
      "v": 120
    },
    {
      "midi": 63,
      "hit": false,
      "t": 211492.01427083416,
      "d": 253.09827083334676,
      "v": 121
    },
    {
      "midi": 62,
      "hit": false,
      "t": 212478.5810000001,
      "d": 983.9840937500121,
      "v": 1
    },
    {
      "midi": 65,
      "hit": false,
      "t": 212478.5810000001,
      "d": 983.9840937500121,
      "v": 1
    },
    {
      "midi": 62,
      "hit": false,
      "t": 212711.01818750083,
      "d": 291.8378020833188,
      "v": 127
    },
    {
      "midi": 53,
      "hit": false,
      "t": 212716.18345833416,
      "d": 374.4821354166488,
      "v": 127
    },
    {
      "midi": 58,
      "hit": false,
      "t": 212718.76609375083,
      "d": 400.30848958331626,
      "v": 121
    },
    {
      "midi": 60,
      "hit": false,
      "t": 212966.69909375082,
      "d": 157.54076041665394,
      "v": 120
    },
    {
      "midi": 53,
      "hit": false,
      "t": 213966.17900000082,
      "d": 209.19346874998882,
      "v": 127
    },
    {
      "midi": 58,
      "hit": false,
      "t": 213966.17900000082,
      "d": 222.10664583332255,
      "v": 120
    },
    {
      "midi": 60,
      "hit": false,
      "t": 213966.17900000082,
      "d": 227.2719166666502,
      "v": 127
    },
    {
      "midi": 57,
      "hit": false,
      "t": 214214.1120000008,
      "d": 222.10664583335165,
      "v": 127
    },
    {
      "midi": 60,
      "hit": false,
      "t": 214214.1120000008,
      "d": 237.60245833336376,
      "v": 127
    },
    {
      "midi": 53,
      "hit": false,
      "t": 214216.6946354175,
      "d": 232.43718750000698,
      "v": 127
    },
    {
      "midi": 53,
      "hit": false,
      "t": 214702.23009375084,
      "d": 237.60245833333465,
      "v": 124
    },
    {
      "midi": 60,
      "hit": false,
      "t": 214704.81272916752,
      "d": 216.94137499999488,
      "v": 122
    },
    {
      "midi": 57,
      "hit": false,
      "t": 214704.81272916752,
      "d": 235.01982291665627,
      "v": 127
    },
    {
      "midi": 53,
      "hit": false,
      "t": 215205.84400000086,
      "d": 152.37548958332627,
      "v": 127
    },
    {
      "midi": 57,
      "hit": false,
      "t": 215205.84400000086,
      "d": 154.95812500000466,
      "v": 127
    },
    {
      "midi": 48,
      "hit": false,
      "t": 215205.84400000086,
      "d": 170.45393750001676,
      "v": 124
    },
    {
      "midi": 48,
      "hit": false,
      "t": 215456.35963541755,
      "d": 157.54076041668304,
      "v": 116
    },
    {
      "midi": 57,
      "hit": false,
      "t": 215456.35963541755,
      "d": 180.7844791667012,
      "v": 121
    },
    {
      "midi": 53,
      "hit": false,
      "t": 215458.94227083423,
      "d": 157.54076041668304,
      "v": 125
    },
    {
      "midi": 53,
      "hit": false,
      "t": 215952.2256354176,
      "d": 165.2886666666891,
      "v": 117
    },
    {
      "midi": 57,
      "hit": false,
      "t": 215959.9735416676,
      "d": 167.87130208333838,
      "v": 121
    },
    {
      "midi": 60,
      "hit": false,
      "t": 215962.55617708428,
      "d": 183.36711458332138,
      "v": 120
    },
    {
      "midi": 62,
      "hit": false,
      "t": 216693.44200000094,
      "d": 291.8378020833479,
      "v": 127
    },
    {
      "midi": 58,
      "hit": false,
      "t": 216693.44200000094,
      "d": 392.5605833333393,
      "v": 113
    },
    {
      "midi": 55,
      "hit": false,
      "t": 216693.44200000094,
      "d": 431.3001145833405,
      "v": 125
    },
    {
      "midi": 60,
      "hit": false,
      "t": 216943.9576354176,
      "d": 167.87130208333838,
      "v": 118
    },
    {
      "midi": 55,
      "hit": false,
      "t": 217432.0757291676,
      "d": 206.61083333333954,
      "v": 117
    },
    {
      "midi": 58,
      "hit": false,
      "t": 217432.0757291676,
      "d": 216.94137499999488,
      "v": 114
    },
    {
      "midi": 60,
      "hit": false,
      "t": 217432.0757291676,
      "d": 216.94137499999488,
      "v": 124
    },
    {
      "midi": 51,
      "hit": false,
      "t": 217938.27227083428,
      "d": 284.08989583334187,
      "v": 108
    },
    {
      "midi": 58,
      "hit": false,
      "t": 217938.27227083428,
      "d": 299.585708333354,
      "v": 122
    },
    {
      "midi": 55,
      "hit": false,
      "t": 217940.85490625096,
      "d": 281.5072604166635,
      "v": 127
    },
    {
      "midi": 65,
      "hit": false,
      "t": 218431.55563541764,
      "d": 209.19346875001793,
      "v": 122
    },
    {
      "midi": 55,
      "hit": false,
      "t": 218434.13827083432,
      "d": 206.61083333333954,
      "v": 123
    },
    {
      "midi": 58,
      "hit": false,
      "t": 218434.13827083432,
      "d": 206.61083333333954,
      "v": 109
    },
    {
      "midi": 65,
      "hit": false,
      "t": 218671.74072916765,
      "d": 201.44556250001187,
      "v": 119
    },
    {
      "midi": 58,
      "hit": false,
      "t": 218671.74072916765,
      "d": 219.52401041670237,
      "v": 108
    },
    {
      "midi": 55,
      "hit": false,
      "t": 218674.32336458433,
      "d": 214.3587395833456,
      "v": 123
    },
    {
      "midi": 63,
      "hit": false,
      "t": 219172.7720000001,
      "d": 989.1493645833398,
      "v": 1
    },
    {
      "midi": 67,
      "hit": false,
      "t": 219172.7720000001,
      "d": 989.1493645833398,
      "v": 1
    },
    {
      "midi": 62,
      "hit": false,
      "t": 220164.50400000013,
      "d": 792.8690729166556,
      "v": 1
    },
    {
      "midi": 65,
      "hit": false,
      "t": 220164.50400000013,
      "d": 792.8690729166556,
      "v": 1
    },
    {
      "midi": 62,
      "hit": false,
      "t": 220655.2047291677,
      "d": 317.66415625001537,
      "v": 122
    },
    {
      "midi": 53,
      "hit": false,
      "t": 220655.2047291677,
      "d": 423.5522083333635,
      "v": 113
    },
    {
      "midi": 58,
      "hit": false,
      "t": 220655.2047291677,
      "d": 436.46538541669725,
      "v": 109
    },
    {
      "midi": 60,
      "hit": false,
      "t": 220908.30300000103,
      "d": 157.54076041668304,
      "v": 120
    },
    {
      "midi": 53,
      "hit": false,
      "t": 221393.8384583344,
      "d": 242.76772916669142,
      "v": 117
    },
    {
      "midi": 58,
      "hit": false,
      "t": 221393.8384583344,
      "d": 263.4288125000312,
      "v": 108
    },
    {
      "midi": 62,
      "hit": false,
      "t": 221396.42109375107,
      "d": 271.17671875000815,
      "v": 122
    },
    {
      "midi": 53,
      "hit": false,
      "t": 221905.2002708344,
      "d": 247.9330000000191,
      "v": 116
    },
    {
      "midi": 58,
      "hit": false,
      "t": 221907.7829062511,
      "d": 240.18509375001304,
      "v": 112
    },
    {
      "midi": 60,
      "hit": false,
      "t": 221907.7829062511,
      "d": 255.68090624999604,
      "v": 113
    },
    {
      "midi": 62,
      "hit": false,
      "t": 222646.41663541776,
      "d": 188.53238541667815,
      "v": 123
    },
    {
      "midi": 57,
      "hit": false,
      "t": 222646.41663541776,
      "d": 436.46538541669725,
      "v": 127
    },
    {
      "midi": 53,
      "hit": false,
      "t": 222648.99927083444,
      "d": 405.47376041667303,
      "v": 127
    },
    {
      "midi": 60,
      "hit": false,
      "t": 222891.7670000011,
      "d": 193.69765625003492,
      "v": 118
    },
    {
      "midi": 53,
      "hit": false,
      "t": 223627.81809375112,
      "d": 193.69765625000582,
      "v": 117
    },
    {
      "midi": 62,
      "hit": false,
      "t": 223630.4007291678,
      "d": 204.02819791666116,
      "v": 124
    },
    {
      "midi": 57,
      "hit": false,
      "t": 223630.4007291678,
      "d": 209.19346874998882,
      "v": 126
    },
    {
      "midi": 60,
      "hit": false,
      "t": 223883.49900000112,
      "d": 260.8461770833237,
      "v": 114
    },
    {
      "midi": 53,
      "hit": false,
      "t": 223886.0816354178,
      "d": 235.01982291665627,
      "v": 113
    },
    {
      "midi": 57,
      "hit": false,
      "t": 223886.0816354178,
      "d": 245.3503645833116,
      "v": 113
    },
    {
      "midi": 43,
      "hit": false,
      "t": 224131.4320000011,
      "d": 201.44556250001187,
      "v": 118
    },
    {
      "midi": 55,
      "hit": false,
      "t": 224371.61709375112,
      "d": 105.88805208331905,
      "v": 120
    },
    {
      "midi": 62,
      "hit": false,
      "t": 224616.96745833443,
      "d": 149.792854166677,
      "v": 126
    },
    {
      "midi": 58,
      "hit": false,
      "t": 224619.5500937511,
      "d": 113.6359583333251,
      "v": 110
    },
    {
      "midi": 43,
      "hit": false,
      "t": 224624.71536458444,
      "d": 235.01982291668537,
      "v": 119
    },
    {
      "midi": 55,
      "hit": false,
      "t": 224872.64836458446,
      "d": 113.6359583333251,
      "v": 120
    },
    {
      "midi": 55,
      "hit": false,
      "t": 225117.99872916777,
      "d": 167.87130208333838,
      "v": 119
    },
    {
      "midi": 43,
      "hit": false,
      "t": 225120.58136458445,
      "d": 224.68928125000093,
      "v": 113
    },
    {
      "midi": 62,
      "hit": false,
      "t": 225368.51436458444,
      "d": 178.2018437499937,
      "v": 127
    },
    {
      "midi": 58,
      "hit": false,
      "t": 225371.09700000111,
      "d": 165.28866666666,
      "v": 107
    },
    {
      "midi": 43,
      "hit": false,
      "t": 225616.44736458443,
      "d": 258.2635416666744,
      "v": 112
    },
    {
      "midi": 55,
      "hit": false,
      "t": 225866.9630000011,
      "d": 129.1317708333372,
      "v": 116
    },
    {
      "midi": 43,
      "hit": false,
      "t": 226112.31336458444,
      "d": 245.3503645833407,
      "v": 116
    },
    {
      "midi": 55,
      "hit": false,
      "t": 226114.8960000011,
      "d": 160.12339583333232,
      "v": 126
    },
    {
      "midi": 62,
      "hit": false,
      "t": 226114.8960000011,
      "d": 211.7761041666672,
      "v": 127
    },
    {
      "midi": 55,
      "hit": false,
      "t": 226597.8488229178,
      "d": 136.87967708334327,
      "v": 117
    },
    {
      "midi": 60,
      "hit": false,
      "t": 226600.43145833447,
      "d": 147.2102187499986,
      "v": 127
    },
    {
      "midi": 43,
      "hit": false,
      "t": 226608.17936458447,
      "d": 237.60245833333465,
      "v": 117
    },
    {
      "midi": 64,
      "hit": false,
      "t": 226853.5297291678,
      "d": 204.02819791666116,
      "v": 108
    },
    {
      "midi": 55,
      "hit": false,
      "t": 226858.69500000114,
      "d": 191.11502083332743,
      "v": 119
    },
    {
      "midi": 60,
      "hit": false,
      "t": 226858.69500000114,
      "d": 206.61083333333954,
      "v": 127
    },
    {
      "midi": 43,
      "hit": false,
      "t": 227104.04536458448,
      "d": 245.3503645833407,
      "v": 119
    },
    {
      "midi": 55,
      "hit": false,
      "t": 227364.89154166784,
      "d": 64.5658854166686,
      "v": 94
    },
    {
      "midi": 60,
      "hit": false,
      "t": 227364.89154166784,
      "d": 72.31379166667466,
      "v": 110
    },
    {
      "midi": 43,
      "hit": false,
      "t": 227599.91136458452,
      "d": 204.02819791669026,
      "v": 119
    },
    {
      "midi": 55,
      "hit": false,
      "t": 227602.4940000012,
      "d": 142.04494791667094,
      "v": 127
    },
    {
      "midi": 62,
      "hit": false,
      "t": 227602.4940000012,
      "d": 227.27191666667932,
      "v": 127
    },
    {
      "midi": 65,
      "hit": false,
      "t": 227605.07663541788,
      "d": 173.03657291666605,
      "v": 109
    },
    {
      "midi": 55,
      "hit": false,
      "t": 227850.42700000122,
      "d": 289.25516666666954,
      "v": 123
    },
    {
      "midi": 43,
      "hit": false,
      "t": 228098.3600000012,
      "d": 201.44556250001187,
      "v": 116
    },
    {
      "midi": 55,
      "hit": false,
      "t": 228343.71036458455,
      "d": 131.7144062499865,
      "v": 124
    },
    {
      "midi": 62,
      "hit": false,
      "t": 228589.06072916786,
      "d": 154.95812500000466,
      "v": 127
    },
    {
      "midi": 65,
      "hit": false,
      "t": 228589.06072916786,
      "d": 154.95812500000466,
      "v": 127
    },
    {
      "midi": 43,
      "hit": false,
      "t": 228591.64336458454,
      "d": 235.01982291665627,
      "v": 116
    },
    {
      "midi": 55,
      "hit": false,
      "t": 228836.99372916785,
      "d": 170.45393749998766,
      "v": 116
    },
    {
      "midi": 43,
      "hit": false,
      "t": 229087.50936458452,
      "d": 224.68928125000093,
      "v": 111
    },
    {
      "midi": 62,
      "hit": false,
      "t": 229338.0250000012,
      "d": 149.792854166677,
      "v": 127
    },
    {
      "midi": 65,
      "hit": false,
      "t": 229338.0250000012,
      "d": 149.792854166677,
      "v": 127
    },
    {
      "midi": 43,
      "hit": false,
      "t": 229583.37536458453,
      "d": 258.2635416666744,
      "v": 112
    },
    {
      "midi": 55,
      "hit": false,
      "t": 229823.56045833454,
      "d": 154.95812500000466,
      "v": 112
    },
    {
      "midi": 43,
      "hit": false,
      "t": 230079.24136458454,
      "d": 245.3503645833407,
      "v": 112
    },
    {
      "midi": 55,
      "hit": false,
      "t": 230081.82400000122,
      "d": 175.61920833334443,
      "v": 120
    },
    {
      "midi": 60,
      "hit": false,
      "t": 230081.82400000122,
      "d": 175.61920833334443,
      "v": 122
    },
    {
      "midi": 64,
      "hit": false,
      "t": 230081.82400000122,
      "d": 185.94974999999977,
      "v": 126
    },
    {
      "midi": 43,
      "hit": false,
      "t": 230575.10736458455,
      "d": 237.60245833336376,
      "v": 117
    },
    {
      "midi": 55,
      "hit": false,
      "t": 230582.85527083455,
      "d": 170.45393750001676,
      "v": 114
    },
    {
      "midi": 64,
      "hit": false,
      "t": 230582.85527083455,
      "d": 170.45393750001676,
      "v": 127
    },
    {
      "midi": 60,
      "hit": false,
      "t": 230585.43790625123,
      "d": 160.12339583333232,
      "v": 127
    },
    {
      "midi": 43,
      "hit": false,
      "t": 231070.97336458458,
      "d": 245.3503645833407,
      "v": 117
    },
    {
      "midi": 63,
      "hit": false,
      "t": 231326.65427083458,
      "d": 116.21859375000349,
      "v": 103
    },
    {
      "midi": 75,
      "hit": false,
      "t": 231326.65427083458,
      "d": 116.21859375000349,
      "v": 98
    },
    {
      "midi": 64,
      "hit": false,
      "t": 231445.45550000126,
      "d": 144.62758333332022,
      "v": 116
    },
    {
      "midi": 76,
      "hit": false,
      "t": 231445.45550000126,
      "d": 144.62758333332022,
      "v": 115
    },
    {
      "midi": 72,
      "hit": false,
      "t": 231556.50882291794,
      "d": 348.6557812499814,
      "v": 106
    },
    {
      "midi": 43,
      "hit": false,
      "t": 231566.8393645846,
      "d": 204.02819791666116,
      "v": 117
    },
    {
      "midi": 43,
      "hit": false,
      "t": 232065.28800000125,
      "d": 201.44556250001187,
      "v": 116
    },
    {
      "midi": 55,
      "hit": false,
      "t": 232305.47309375126,
      "d": 105.88805208331905,
      "v": 117
    },
    {
      "midi": 62,
      "hit": false,
      "t": 232550.82345833458,
      "d": 149.792854166677,
      "v": 127
    },
    {
      "midi": 58,
      "hit": false,
      "t": 232553.40609375125,
      "d": 113.6359583333251,
      "v": 110
    },
    {
      "midi": 43,
      "hit": false,
      "t": 232558.57136458458,
      "d": 235.01982291668537,
      "v": 120
    },
    {
      "midi": 55,
      "hit": false,
      "t": 232806.5043645846,
      "d": 113.6359583333251,
      "v": 119
    },
    {
      "midi": 55,
      "hit": false,
      "t": 233051.8547291679,
      "d": 167.87130208333838,
      "v": 123
    },
    {
      "midi": 43,
      "hit": false,
      "t": 233054.4373645846,
      "d": 224.68928125000093,
      "v": 110
    },
    {
      "midi": 62,
      "hit": false,
      "t": 233302.37036458458,
      "d": 178.2018437499937,
      "v": 127
    },
    {
      "midi": 58,
      "hit": false,
      "t": 233304.95300000126,
      "d": 165.28866666666,
      "v": 113
    },
    {
      "midi": 43,
      "hit": false,
      "t": 233550.30336458457,
      "d": 258.2635416666744,
      "v": 115
    },
    {
      "midi": 55,
      "hit": false,
      "t": 233800.81900000124,
      "d": 129.1317708333372,
      "v": 120
    },
    {
      "midi": 43,
      "hit": false,
      "t": 234046.16936458458,
      "d": 245.3503645833407,
      "v": 116
    },
    {
      "midi": 55,
      "hit": false,
      "t": 234048.75200000126,
      "d": 160.12339583333232,
      "v": 126
    },
    {
      "midi": 62,
      "hit": false,
      "t": 234048.75200000126,
      "d": 211.7761041666672,
      "v": 127
    },
    {
      "midi": 55,
      "hit": false,
      "t": 234531.70482291793,
      "d": 136.87967708334327,
      "v": 120
    },
    {
      "midi": 60,
      "hit": false,
      "t": 234534.2874583346,
      "d": 147.2102187499986,
      "v": 127
    },
    {
      "midi": 43,
      "hit": false,
      "t": 234542.03536458462,
      "d": 237.60245833333465,
      "v": 115
    },
    {
      "midi": 64,
      "hit": false,
      "t": 234787.38572916796,
      "d": 204.02819791666116,
      "v": 109
    },
    {
      "midi": 55,
      "hit": false,
      "t": 234792.5510000013,
      "d": 191.11502083332743,
      "v": 122
    },
    {
      "midi": 60,
      "hit": false,
      "t": 234792.5510000013,
      "d": 206.61083333333954,
      "v": 127
    },
    {
      "midi": 43,
      "hit": false,
      "t": 235037.90136458463,
      "d": 245.3503645833407,
      "v": 115
    },
    {
      "midi": 55,
      "hit": false,
      "t": 235298.74754166798,
      "d": 64.5658854166686,
      "v": 94
    },
    {
      "midi": 60,
      "hit": false,
      "t": 235298.74754166798,
      "d": 72.31379166667466,
      "v": 112
    },
    {
      "midi": 43,
      "hit": false,
      "t": 235533.76736458467,
      "d": 204.02819791669026,
      "v": 117
    },
    {
      "midi": 55,
      "hit": false,
      "t": 235536.35000000134,
      "d": 142.04494791667094,
      "v": 127
    },
    {
      "midi": 62,
      "hit": false,
      "t": 235536.35000000134,
      "d": 227.27191666667932,
      "v": 127
    },
    {
      "midi": 65,
      "hit": false,
      "t": 235538.93263541802,
      "d": 173.03657291666605,
      "v": 107
    },
    {
      "midi": 55,
      "hit": false,
      "t": 235784.28300000136,
      "d": 245.3503645833407,
      "v": 122
    },
    {
      "midi": 55,
      "hit": false,
      "t": 236032.21600000138,
      "d": 41.32216666667955,
      "v": 124
    },
    {
      "midi": 58,
      "hit": false,
      "t": 236032.21600000138,
      "d": 878.096041666693,
      "v": 103
    },
    {
      "midi": 62,
      "hit": false,
      "t": 236032.21600000138,
      "d": 909.0876666666882,
      "v": 127
    },
    {
      "midi": 58,
      "hit": false,
      "t": 237023.9480000014,
      "d": 924.5834791666421,
      "v": 104
    },
    {
      "midi": 53,
      "hit": false,
      "t": 237029.11327083473,
      "d": 906.5050312499807,
      "v": 119
    },
    {
      "midi": 62,
      "hit": false,
      "t": 237034.27854166806,
      "d": 888.4265833333193,
      "v": 127
    },
    {
      "midi": 58,
      "hit": false,
      "t": 238031.17581250137,
      "d": 1601.2339583333815,
      "v": 117
    },
    {
      "midi": 62,
      "hit": false,
      "t": 238033.75844791805,
      "d": 1596.0686875000247,
      "v": 127
    },
    {
      "midi": 67,
      "hit": false,
      "t": 238036.34108333473,
      "d": 1580.5728750000126,
      "v": 127
    },
    {
      "midi": 58,
      "hit": false,
      "t": 241504.8204479181,
      "d": 276.3419895833649,
      "v": 116
    },
    {
      "midi": 67,
      "hit": false,
      "t": 241507.40308333476,
      "d": 273.75935416668653,
      "v": 127
    },
    {
      "midi": 62,
      "hit": false,
      "t": 241522.89889583478,
      "d": 266.0114479166805,
      "v": 127
    }
  ]
}