{
  "jsonPath": "Rock/Dance Rock/The Beautiful South/love-is.json",
  "path": "Rock\\Dance Rock\\The Beautiful South\\Love Is.mid",
  "name": "Love Is",
  "difficulty": "Advanced",
  "bpm": 120,
  "notes": [
    {
      "midi": 65,
      "hit": false,
      "t": 86500,
      "d": 983.3333333333285,
      "v": 85
    },
    {
      "midi": 57,
      "hit": false,
      "t": 86516.66666666667,
      "d": 833.3333333333285,
      "v": 83
    },
    {
      "midi": 60,
      "hit": false,
      "t": 86516.66666666667,
      "d": 983.3333333333285,
      "v": 85
    },
    {
      "midi": 41,
      "hit": false,
      "t": 86516.66666666667,
      "d": 1333.3333333333285,
      "v": 91
    },
    {
      "midi": 53,
      "hit": false,
      "t": 87483.33333333333,
      "d": 316.6666666666715,
      "v": 68
    },
    {
      "midi": 69,
      "hit": false,
      "t": 87700,
      "d": 233.33333333332848,
      "v": 96
    },
    {
      "midi": 65,
      "hit": false,
      "t": 87700,
      "d": 450,
      "v": 93
    },
    {
      "midi": 60,
      "hit": false,
      "t": 87716.66666666667,
      "d": 433.3333333333285,
      "v": 96
    },
    {
      "midi": 50,
      "hit": false,
      "t": 88200,
      "d": 66.66666666667152,
      "v": 47
    },
    {
      "midi": 59,
      "hit": false,
      "t": 88433.33333333334,
      "d": 833.333333333343,
      "v": 93
    },
    {
      "midi": 67,
      "hit": false,
      "t": 88433.33333333334,
      "d": 833.333333333343,
      "v": 96
    },
    {
      "midi": 43,
      "hit": false,
      "t": 88433.33333333334,
      "d": 1233.333333333343,
      "v": 97
    },
    {
      "midi": 62,
      "hit": false,
      "t": 88433.33333333334,
      "d": 1350.0000000000146,
      "v": 93
    },
    {
      "midi": 67,
      "hit": false,
      "t": 89366.66666666669,
      "d": 416.6666666666715,
      "v": 28
    },
    {
      "midi": 59,
      "hit": false,
      "t": 89383.33333333336,
      "d": 333.3333333333285,
      "v": 47
    },
    {
      "midi": 59,
      "hit": false,
      "t": 89916.66666666669,
      "d": 116.66666666667152,
      "v": 66
    },
    {
      "midi": 67,
      "hit": false,
      "t": 89916.66666666669,
      "d": 133.33333333334303,
      "v": 64
    },
    {
      "midi": 62,
      "hit": false,
      "t": 90116.6666666667,
      "d": 149.99999999998545,
      "v": 69
    },
    {
      "midi": 45,
      "hit": false,
      "t": 90150.00000000003,
      "d": 83.33333333332848,
      "v": 33
    },
    {
      "midi": 57,
      "hit": false,
      "t": 90350.00000000001,
      "d": 883.333333333343,
      "v": 96
    },
    {
      "midi": 62,
      "hit": false,
      "t": 90350.00000000001,
      "d": 900.0000000000146,
      "v": 85
    },
    {
      "midi": 66,
      "hit": false,
      "t": 90350.00000000001,
      "d": 916.6666666666861,
      "v": 88
    },
    {
      "midi": 38,
      "hit": false,
      "t": 90366.66666666669,
      "d": 1550.0000000000146,
      "v": 88
    },
    {
      "midi": 50,
      "hit": false,
      "t": 90383.33333333336,
      "d": 1800.0000000000146,
      "v": 83
    },
    {
      "midi": 57,
      "hit": false,
      "t": 91350.00000000003,
      "d": 300,
      "v": 62
    },
    {
      "midi": 62,
      "hit": false,
      "t": 91350.00000000003,
      "d": 433.3333333333285,
      "v": 71
    },
    {
      "midi": 66,
      "hit": false,
      "t": 91350.00000000003,
      "d": 583.333333333343,
      "v": 65
    },
    {
      "midi": 62,
      "hit": false,
      "t": 91816.66666666669,
      "d": 83.33333333334303,
      "v": 33
    },
    {
      "midi": 57,
      "hit": false,
      "t": 91833.33333333336,
      "d": 150.00000000001455,
      "v": 64
    },
    {
      "midi": 38,
      "hit": false,
      "t": 92083.33333333337,
      "d": 183.33333333332848,
      "v": 83
    },
    {
      "midi": 59,
      "hit": false,
      "t": 92316.6666666667,
      "d": 616.6666666666715,
      "v": 88
    },
    {
      "midi": 57,
      "hit": false,
      "t": 92316.6666666667,
      "d": 800,
      "v": 88
    },
    {
      "midi": 64,
      "hit": false,
      "t": 92316.6666666667,
      "d": 933.3333333333285,
      "v": 85
    },
    {
      "midi": 40,
      "hit": false,
      "t": 92316.6666666667,
      "d": 1500,
      "v": 96
    },
    {
      "midi": 52,
      "hit": false,
      "t": 93266.6666666667,
      "d": 716.666666666657,
      "v": 59
    },
    {
      "midi": 64,
      "hit": false,
      "t": 93500.00000000003,
      "d": 66.66666666667152,
      "v": 60
    },
    {
      "midi": 59,
      "hit": false,
      "t": 93516.6666666667,
      "d": 33.33333333332848,
      "v": 44
    },
    {
      "midi": 57,
      "hit": false,
      "t": 93516.6666666667,
      "d": 50,
      "v": 37
    },
    {
      "midi": 57,
      "hit": false,
      "t": 93750.00000000003,
      "d": 200,
      "v": 76
    },
    {
      "midi": 59,
      "hit": false,
      "t": 93750.00000000003,
      "d": 233.33333333332848,
      "v": 85
    },
    {
      "midi": 64,
      "hit": false,
      "t": 93750.00000000003,
      "d": 283.3333333333285,
      "v": 80
    },
    {
      "midi": 40,
      "hit": false,
      "t": 94000.00000000003,
      "d": 150,
      "v": 71
    },
    {
      "midi": 60,
      "hit": false,
      "t": 94250.00000000003,
      "d": 550,
      "v": 91
    },
    {
      "midi": 64,
      "hit": false,
      "t": 94250.00000000003,
      "d": 583.3333333333285,
      "v": 91
    },
    {
      "midi": 57,
      "hit": false,
      "t": 94250.00000000003,
      "d": 666.666666666657,
      "v": 91
    },
    {
      "midi": 45,
      "hit": false,
      "t": 94250.00000000003,
      "d": 1449.9999999999854,
      "v": 88
    },
    {
      "midi": 69,
      "hit": false,
      "t": 95183.33333333336,
      "d": 483.3333333333285,
      "v": 93
    },
    {
      "midi": 60,
      "hit": false,
      "t": 95183.33333333336,
      "d": 566.666666666657,
      "v": 85
    },
    {
      "midi": 64,
      "hit": false,
      "t": 95183.33333333336,
      "d": 583.3333333333285,
      "v": 85
    },
    {
      "midi": 57,
      "hit": false,
      "t": 95666.66666666669,
      "d": 83.33333333332848,
      "v": 64
    },
    {
      "midi": 45,
      "hit": false,
      "t": 95916.66666666669,
      "d": 116.66666666667152,
      "v": 74
    },
    {
      "midi": 67,
      "hit": false,
      "t": 96166.6666666667,
      "d": 683.333333333343,
      "v": 93
    },
    {
      "midi": 59,
      "hit": false,
      "t": 96166.6666666667,
      "d": 816.6666666666715,
      "v": 93
    },
    {
      "midi": 62,
      "hit": false,
      "t": 96166.6666666667,
      "d": 850,
      "v": 93
    },
    {
      "midi": 47,
      "hit": false,
      "t": 96183.33333333337,
      "d": 1266.666666666657,
      "v": 88
    },
    {
      "midi": 55,
      "hit": false,
      "t": 97116.6666666667,
      "d": 366.66666666665697,
      "v": 74
    },
    {
      "midi": 59,
      "hit": false,
      "t": 97116.6666666667,
      "d": 449.99999999998545,
      "v": 74
    },
    {
      "midi": 62,
      "hit": false,
      "t": 97116.6666666667,
      "d": 499.99999999998545,
      "v": 78
    },
    {
      "midi": 67,
      "hit": false,
      "t": 97600.00000000001,
      "d": 150,
      "v": 51
    },
    {
      "midi": 43,
      "hit": false,
      "t": 97833.33333333334,
      "d": 150,
      "v": 61
    },
    {
      "midi": 55,
      "hit": false,
      "t": 98066.66666666667,
      "d": 416.6666666666715,
      "v": 96
    },
    {
      "midi": 60,
      "hit": false,
      "t": 98066.66666666667,
      "d": 483.33333333334303,
      "v": 88
    },
    {
      "midi": 64,
      "hit": false,
      "t": 98066.66666666667,
      "d": 516.6666666666715,
      "v": 85
    },
    {
      "midi": 36,
      "hit": false,
      "t": 98066.66666666667,
      "d": 1033.3333333333721,
      "v": 83
    },
    {
      "midi": 48,
      "hit": false,
      "t": 98083.33333333334,
      "d": 683.333333333343,
      "v": 83
    },
    {
      "midi": 64,
      "hit": false,
      "t": 98683.33333333334,
      "d": 116.66666666668607,
      "v": 46
    },
    {
      "midi": 60,
      "hit": false,
      "t": 98700.00000000001,
      "d": 83.33333333334303,
      "v": 46
    },
    {
      "midi": 67,
      "hit": false,
      "t": 98700.00000000001,
      "d": 116.66666666668607,
      "v": 52
    },
    {
      "midi": 60,
      "hit": false,
      "t": 98983.33333333337,
      "d": 550,
      "v": 93
    },
    {
      "midi": 64,
      "hit": false,
      "t": 98983.33333333337,
      "d": 550,
      "v": 96
    },
    {
      "midi": 67,
      "hit": false,
      "t": 98983.33333333337,
      "d": 566.6666666666715,
      "v": 93
    },
    {
      "midi": 48,
      "hit": false,
      "t": 99000.00000000004,
      "d": 200,
      "v": 72
    },
    {
      "midi": 55,
      "hit": false,
      "t": 99450.00000000004,
      "d": 33.33333333332848,
      "v": 71
    },
    {
      "midi": 47,
      "hit": false,
      "t": 99700.00000000004,
      "d": 166.66666666667152,
      "v": 64
    },
    {
      "midi": 59,
      "hit": false,
      "t": 99966.66666666672,
      "d": 116.66666666665697,
      "v": 96
    },
    {
      "midi": 64,
      "hit": false,
      "t": 99966.66666666672,
      "d": 166.66666666665697,
      "v": 85
    },
    {
      "midi": 68,
      "hit": false,
      "t": 99966.66666666672,
      "d": 183.33333333332848,
      "v": 79
    },
    {
      "midi": 52,
      "hit": false,
      "t": 99966.66666666672,
      "d": 316.66666666665697,
      "v": 80
    },
    {
      "midi": 40,
      "hit": false,
      "t": 99966.66666666672,
      "d": 1616.6666666666715,
      "v": 88
    },
    {
      "midi": 64,
      "hit": false,
      "t": 100416.6666666667,
      "d": 50,
      "v": 66
    },
    {
      "midi": 68,
      "hit": false,
      "t": 100666.6666666667,
      "d": 66.66666666667152,
      "v": 71
    },
    {
      "midi": 71,
      "hit": false,
      "t": 100666.6666666667,
      "d": 66.66666666667152,
      "v": 74
    },
    {
      "midi": 76,
      "hit": false,
      "t": 100666.6666666667,
      "d": 66.66666666667152,
      "v": 78
    },
    {
      "midi": 64,
      "hit": false,
      "t": 100666.6666666667,
      "d": 83.33333333334303,
      "v": 80
    },
    {
      "midi": 76,
      "hit": false,
      "t": 100916.66666666672,
      "d": 350,
      "v": 91
    },
    {
      "midi": 68,
      "hit": false,
      "t": 100916.66666666672,
      "d": 450,
      "v": 99
    },
    {
      "midi": 71,
      "hit": false,
      "t": 100916.66666666672,
      "d": 500,
      "v": 96
    },
    {
      "midi": 52,
      "hit": false,
      "t": 100933.33333333339,
      "d": 200,
      "v": 85
    },
    {
      "midi": 64,
      "hit": false,
      "t": 100933.33333333339,
      "d": 300,
      "v": 97
    },
    {
      "midi": 64,
      "hit": false,
      "t": 101450.00000000004,
      "d": 66.66666666667152,
      "v": 83
    },
    {
      "midi": 52,
      "hit": false,
      "t": 101666.66666666672,
      "d": 116.66666666667152,
      "v": 80
    },
    {
      "midi": 60,
      "hit": false,
      "t": 101916.66666666673,
      "d": 366.6666666666715,
      "v": 85
    },
    {
      "midi": 64,
      "hit": false,
      "t": 101916.66666666673,
      "d": 600.0000000000146,
      "v": 91
    },
    {
      "midi": 69,
      "hit": false,
      "t": 101933.3333333334,
      "d": 800.0000000000146,
      "v": 96
    },
    {
      "midi": 45,
      "hit": false,
      "t": 101950.00000000007,
      "d": 1800.000000000029,
      "v": 96
    },
    {
      "midi": 60,
      "hit": false,
      "t": 102400.00000000007,
      "d": 116.66666666667152,
      "v": 32
    },
    {
      "midi": 64,
      "hit": false,
      "t": 102633.33333333342,
      "d": 133.33333333334303,
      "v": 55
    },
    {
      "midi": 60,
      "hit": false,
      "t": 102650.00000000009,
      "d": 100,
      "v": 44
    },
    {
      "midi": 60,
      "hit": false,
      "t": 102883.33333333343,
      "d": 300,
      "v": 80
    },
    {
      "midi": 64,
      "hit": false,
      "t": 102883.33333333343,
      "d": 533.3333333333285,
      "v": 85
    },
    {
      "midi": 69,
      "hit": false,
      "t": 102883.33333333343,
      "d": 550,
      "v": 91
    },
    {
      "midi": 60,
      "hit": false,
      "t": 103383.33333333343,
      "d": 66.66666666667152,
      "v": 51
    },
    {
      "midi": 71,
      "hit": false,
      "t": 103833.33333333343,
      "d": 366.6666666666715,
      "v": 88
    },
    {
      "midi": 67,
      "hit": false,
      "t": 103833.33333333343,
      "d": 566.6666666666861,
      "v": 85
    },
    {
      "midi": 62,
      "hit": false,
      "t": 103850.0000000001,
      "d": 466.6666666666715,
      "v": 93
    },
    {
      "midi": 43,
      "hit": false,
      "t": 103850.0000000001,
      "d": 1733.333333333343,
      "v": 96
    },
    {
      "midi": 59,
      "hit": false,
      "t": 104300.0000000001,
      "d": 83.33333333334303,
      "v": 50
    },
    {
      "midi": 62,
      "hit": false,
      "t": 104516.66666666679,
      "d": 83.33333333332848,
      "v": 66
    },
    {
      "midi": 62,
      "hit": false,
      "t": 104800.00000000012,
      "d": 283.3333333333285,
      "v": 91
    },
    {
      "midi": 67,
      "hit": false,
      "t": 104800.00000000012,
      "d": 566.666666666657,
      "v": 91
    },
    {
      "midi": 59,
      "hit": false,
      "t": 104800.00000000012,
      "d": 633.3333333333285,
      "v": 96
    },
    {
      "midi": 62,
      "hit": false,
      "t": 105283.33333333344,
      "d": 250,
      "v": 83
    },
    {
      "midi": 64,
      "hit": false,
      "t": 105516.66666666677,
      "d": 166.66666666667152,
      "v": 76
    },
    {
      "midi": 45,
      "hit": false,
      "t": 105533.33333333344,
      "d": 150,
      "v": 61
    },
    {
      "midi": 38,
      "hit": false,
      "t": 105766.66666666677,
      "d": 1683.3333333333721,
      "v": 83
    },
    {
      "midi": 62,
      "hit": false,
      "t": 105783.33333333344,
      "d": 316.6666666666715,
      "v": 83
    },
    {
      "midi": 57,
      "hit": false,
      "t": 105783.33333333344,
      "d": 716.6666666666715,
      "v": 88
    },
    {
      "midi": 66,
      "hit": false,
      "t": 105783.33333333344,
      "d": 716.6666666666715,
      "v": 92
    },
    {
      "midi": 50,
      "hit": false,
      "t": 105783.33333333344,
      "d": 1600.000000000029,
      "v": 80
    },
    {
      "midi": 62,
      "hit": false,
      "t": 106483.33333333344,
      "d": 133.33333333334303,
      "v": 64
    },
    {
      "midi": 69,
      "hit": false,
      "t": 106733.33333333346,
      "d": 650.0000000000146,
      "v": 93
    },
    {
      "midi": 66,
      "hit": false,
      "t": 106733.33333333346,
      "d": 833.3333333333576,
      "v": 88
    },
    {
      "midi": 62,
      "hit": false,
      "t": 106733.33333333346,
      "d": 866.6666666666861,
      "v": 85
    },
    {
      "midi": 57,
      "hit": false,
      "t": 107200.00000000013,
      "d": 166.66666666667152,
      "v": 74
    },
    {
      "midi": 45,
      "hit": false,
      "t": 107466.66666666682,
      "d": 200,
      "v": 61
    },
    {
      "midi": 64,
      "hit": false,
      "t": 107683.33333333349,
      "d": 850,
      "v": 80
    },
    {
      "midi": 59,
      "hit": false,
      "t": 107700.00000000016,
      "d": 500,
      "v": 85
    },
    {
      "midi": 40,
      "hit": false,
      "t": 107700.00000000016,
      "d": 1516.666666666657,
      "v": 83
    },
    {
      "midi": 52,
      "hit": false,
      "t": 107700.00000000016,
      "d": 1866.6666666666715,
      "v": 83
    },
    {
      "midi": 59,
      "hit": false,
      "t": 108400.00000000016,
      "d": 100,
      "v": 48
    },
    {
      "midi": 59,
      "hit": false,
      "t": 108633.33333333349,
      "d": 400,
      "v": 71
    },
    {
      "midi": 64,
      "hit": false,
      "t": 108633.33333333349,
      "d": 650,
      "v": 76
    },
    {
      "midi": 67,
      "hit": false,
      "t": 108650.00000000016,
      "d": 616.666666666657,
      "v": 78
    },
    {
      "midi": 59,
      "hit": false,
      "t": 109133.33333333349,
      "d": 116.66666666665697,
      "v": 61
    },
    {
      "midi": 40,
      "hit": false,
      "t": 109400.00000000016,
      "d": 116.66666666667152,
      "v": 64
    },
    {
      "midi": 69,
      "hit": false,
      "t": 109616.66666666683,
      "d": 800,
      "v": 96
    },
    {
      "midi": 60,
      "hit": false,
      "t": 109616.66666666683,
      "d": 833.3333333333285,
      "v": 91
    },
    {
      "midi": 65,
      "hit": false,
      "t": 109616.66666666683,
      "d": 833.3333333333285,
      "v": 83
    },
    {
      "midi": 41,
      "hit": false,
      "t": 109616.66666666683,
      "d": 1850.0000000000146,
      "v": 91
    },
    {
      "midi": 69,
      "hit": false,
      "t": 110583.33333333349,
      "d": 500.00000000001455,
      "v": 80
    },
    {
      "midi": 60,
      "hit": false,
      "t": 110600.00000000016,
      "d": 666.6666666666861,
      "v": 72
    },
    {
      "midi": 57,
      "hit": false,
      "t": 111016.66666666683,
      "d": 133.33333333334303,
      "v": 64
    },
    {
      "midi": 65,
      "hit": false,
      "t": 111250.00000000017,
      "d": 150,
      "v": 64
    },
    {
      "midi": 67,
      "hit": false,
      "t": 111533.33333333352,
      "d": 900.0000000000146,
      "v": 88
    },
    {
      "midi": 59,
      "hit": false,
      "t": 111533.33333333352,
      "d": 916.6666666666861,
      "v": 88
    },
    {
      "midi": 62,
      "hit": false,
      "t": 111533.33333333352,
      "d": 933.3333333333576,
      "v": 83
    },
    {
      "midi": 64,
      "hit": false,
      "t": 111533.33333333352,
      "d": 1650.0000000000146,
      "v": 85
    },
    {
      "midi": 40,
      "hit": false,
      "t": 111550.00000000019,
      "d": 1966.666666666686,
      "v": 80
    },
    {
      "midi": 52,
      "hit": false,
      "t": 111566.66666666686,
      "d": 1866.6666666666715,
      "v": 83
    },
    {
      "midi": 62,
      "hit": false,
      "t": 112500.0000000002,
      "d": 683.3333333333285,
      "v": 62
    },
    {
      "midi": 59,
      "hit": false,
      "t": 112500.0000000002,
      "d": 716.666666666657,
      "v": 60
    },
    {
      "midi": 67,
      "hit": false,
      "t": 112500.0000000002,
      "d": 866.666666666657,
      "v": 48
    },
    {
      "midi": 45,
      "hit": false,
      "t": 113450.0000000002,
      "d": 3583.3333333333285,
      "v": 83
    },
    {
      "midi": 57,
      "hit": false,
      "t": 113466.66666666688,
      "d": 1150,
      "v": 91
    },
    {
      "midi": 60,
      "hit": false,
      "t": 113466.66666666688,
      "d": 1350,
      "v": 88
    },
    {
      "midi": 64,
      "hit": false,
      "t": 113466.66666666688,
      "d": 1600,
      "v": 88
    },
    {
      "midi": 59,
      "hit": false,
      "t": 114900.0000000002,
      "d": 233.33333333332848,
      "v": 55
    },
    {
      "midi": 60,
      "hit": false,
      "t": 115100.0000000002,
      "d": 233.33333333332848,
      "v": 56
    },
    {
      "midi": 33,
      "hit": false,
      "t": 115383.33333333353,
      "d": 1883.333333333343,
      "v": 80
    },
    {
      "midi": 60,
      "hit": false,
      "t": 115383.33333333353,
      "d": 1883.333333333343,
      "v": 64
    },
    {
      "midi": 64,
      "hit": false,
      "t": 115400.0000000002,
      "d": 1083.3333333333285,
      "v": 68
    },
    {
      "midi": 69,
      "hit": false,
      "t": 115400.0000000002,
      "d": 1800,
      "v": 78
    },
    {
      "midi": 57,
      "hit": false,
      "t": 115400.0000000002,
      "d": 1816.6666666666715,
      "v": 71
    },
    {
      "midi": 64,
      "hit": false,
      "t": 142266.66666666686,
      "d": 1283.333333333314,
      "v": 85
    },
    {
      "midi": 45,
      "hit": false,
      "t": 142266.66666666686,
      "d": 1433.333333333314,
      "v": 91
    },
    {
      "midi": 57,
      "hit": false,
      "t": 142283.33333333352,
      "d": 850,
      "v": 93
    },
    {
      "midi": 60,
      "hit": false,
      "t": 142283.33333333352,
      "d": 916.666666666657,
      "v": 88
    },
    {
      "midi": 60,
      "hit": false,
      "t": 143266.66666666683,
      "d": 133.33333333334303,
      "v": 20
    },
    {
      "midi": 64,
      "hit": false,
      "t": 143716.66666666683,
      "d": 116.66666666665697,
      "v": 59
    },
    {
      "midi": 60,
      "hit": false,
      "t": 143733.3333333335,
      "d": 66.66666666665697,
      "v": 49
    },
    {
      "midi": 57,
      "hit": false,
      "t": 143750.00000000015,
      "d": 50,
      "v": 24
    },
    {
      "midi": 52,
      "hit": false,
      "t": 143983.3333333335,
      "d": 150,
      "v": 40
    },
    {
      "midi": 59,
      "hit": false,
      "t": 144183.3333333335,
      "d": 1350,
      "v": 83
    },
    {
      "midi": 67,
      "hit": false,
      "t": 144183.3333333335,
      "d": 1350,
      "v": 88
    },
    {
      "midi": 62,
      "hit": false,
      "t": 144183.3333333335,
      "d": 1366.666666666657,
      "v": 85
    },
    {
      "midi": 45,
      "hit": false,
      "t": 144183.3333333335,
      "d": 1533.333333333314,
      "v": 76
    },
    {
      "midi": 55,
      "hit": false,
      "t": 144183.3333333335,
      "d": 1566.6666666666279,
      "v": 78
    },
    {
      "midi": 67,
      "hit": false,
      "t": 145650.00000000015,
      "d": 83.33333333331393,
      "v": 50
    },
    {
      "midi": 59,
      "hit": false,
      "t": 145650.00000000015,
      "d": 116.66666666662786,
      "v": 44
    },
    {
      "midi": 62,
      "hit": false,
      "t": 145650.00000000015,
      "d": 233.33333333328483,
      "v": 56
    },
    {
      "midi": 60,
      "hit": false,
      "t": 146100.0000000001,
      "d": 400,
      "v": 78
    },
    {
      "midi": 65,
      "hit": false,
      "t": 146100.0000000001,
      "d": 500,
      "v": 76
    },
    {
      "midi": 57,
      "hit": false,
      "t": 146116.66666666674,
      "d": 300,
      "v": 80
    },
    {
      "midi": 53,
      "hit": false,
      "t": 146133.3333333334,
      "d": 616.6666666666861,
      "v": 69
    },
    {
      "midi": 45,
      "hit": false,
      "t": 146133.3333333334,
      "d": 1583.3333333333721,
      "v": 80
    },
    {
      "midi": 69,
      "hit": false,
      "t": 147100.0000000001,
      "d": 533.333333333343,
      "v": 91
    },
    {
      "midi": 60,
      "hit": false,
      "t": 147100.0000000001,
      "d": 616.6666666666861,
      "v": 78
    },
    {
      "midi": 65,
      "hit": false,
      "t": 147100.0000000001,
      "d": 633.333333333343,
      "v": 76
    },
    {
      "midi": 57,
      "hit": false,
      "t": 148066.66666666677,
      "d": 683.3333333333139,
      "v": 80
    },
    {
      "midi": 60,
      "hit": false,
      "t": 148066.66666666677,
      "d": 849.9999999999709,
      "v": 78
    },
    {
      "midi": 64,
      "hit": false,
      "t": 148066.66666666677,
      "d": 866.6666666666279,
      "v": 74
    },
    {
      "midi": 45,
      "hit": false,
      "t": 148083.33333333343,
      "d": 1500,
      "v": 83
    },
    {
      "midi": 52,
      "hit": false,
      "t": 149316.66666666674,
      "d": 2233.333333333343,
      "v": 48
    },
    {
      "midi": 62,
      "hit": false,
      "t": 149500.0000000001,
      "d": 166.66666666668607,
      "v": 83
    },
    {
      "midi": 71,
      "hit": false,
      "t": 149500.0000000001,
      "d": 200.0000000000291,
      "v": 88
    },
    {
      "midi": 72,
      "hit": false,
      "t": 149716.66666666677,
      "d": 166.66666666665697,
      "v": 76
    },
    {
      "midi": 64,
      "hit": false,
      "t": 149716.66666666677,
      "d": 1249.999999999971,
      "v": 76
    },
    {
      "midi": 69,
      "hit": false,
      "t": 149983.33333333343,
      "d": 1433.333333333314,
      "v": 85
    },
    {
      "midi": 60,
      "hit": false,
      "t": 150000.0000000001,
      "d": 1033.333333333314,
      "v": 88
    },
    {
      "midi": 45,
      "hit": false,
      "t": 150000.0000000001,
      "d": 1550,
      "v": 80
    },
    {
      "midi": 57,
      "hit": false,
      "t": 150966.66666666674,
      "d": 350,
      "v": 49
    },
    {
      "midi": 64,
      "hit": false,
      "t": 151450.0000000001,
      "d": 166.66666666665697,
      "v": 53
    },
    {
      "midi": 69,
      "hit": false,
      "t": 151666.66666666674,
      "d": 150,
      "v": 71
    },
    {
      "midi": 62,
      "hit": false,
      "t": 151916.66666666674,
      "d": 400,
      "v": 93
    },
    {
      "midi": 59,
      "hit": false,
      "t": 151916.66666666674,
      "d": 666.666666666657,
      "v": 91
    },
    {
      "midi": 67,
      "hit": false,
      "t": 151916.66666666674,
      "d": 683.3333333333139,
      "v": 93
    },
    {
      "midi": 43,
      "hit": false,
      "t": 151916.66666666674,
      "d": 1399.999999999971,
      "v": 91
    },
    {
      "midi": 62,
      "hit": false,
      "t": 152583.3333333334,
      "d": 83.33333333331393,
      "v": 49
    },
    {
      "midi": 71,
      "hit": false,
      "t": 152833.33333333337,
      "d": 350,
      "v": 78
    },
    {
      "midi": 62,
      "hit": false,
      "t": 152833.33333333337,
      "d": 483.33333333334303,
      "v": 78
    },
    {
      "midi": 67,
      "hit": false,
      "t": 152850.00000000003,
      "d": 500.0000000000291,
      "v": 78
    },
    {
      "midi": 59,
      "hit": false,
      "t": 153350.00000000006,
      "d": 100,
      "v": 52
    },
    {
      "midi": 61,
      "hit": false,
      "t": 153550.00000000006,
      "d": 66.66666666665697,
      "v": 36
    },
    {
      "midi": 57,
      "hit": false,
      "t": 153800.00000000006,
      "d": 333.33333333334303,
      "v": 97
    },
    {
      "midi": 41,
      "hit": false,
      "t": 153800.00000000006,
      "d": 600,
      "v": 85
    },
    {
      "midi": 48,
      "hit": false,
      "t": 153800.00000000006,
      "d": 616.666666666657,
      "v": 71
    },
    {
      "midi": 60,
      "hit": false,
      "t": 153800.00000000006,
      "d": 683.3333333333139,
      "v": 93
    },
    {
      "midi": 65,
      "hit": false,
      "t": 153800.00000000006,
      "d": 683.3333333333139,
      "v": 88
    },
    {
      "midi": 57,
      "hit": false,
      "t": 154333.3333333334,
      "d": 183.33333333331393,
      "v": 52
    },
    {
      "midi": 52,
      "hit": false,
      "t": 154750.00000000006,
      "d": 350,
      "v": 80
    },
    {
      "midi": 55,
      "hit": false,
      "t": 154750.00000000006,
      "d": 383.33333333334303,
      "v": 88
    },
    {
      "midi": 40,
      "hit": false,
      "t": 154750.00000000006,
      "d": 416.66666666668607,
      "v": 80
    },
    {
      "midi": 59,
      "hit": false,
      "t": 154750.00000000006,
      "d": 416.66666666668607,
      "v": 91
    },
    {
      "midi": 64,
      "hit": false,
      "t": 154750.00000000006,
      "d": 466.66666666668607,
      "v": 88
    },
    {
      "midi": 62,
      "hit": false,
      "t": 155700.0000000001,
      "d": 650,
      "v": 93
    },
    {
      "midi": 66,
      "hit": false,
      "t": 155700.0000000001,
      "d": 1033.333333333314,
      "v": 92
    },
    {
      "midi": 38,
      "hit": false,
      "t": 155700.0000000001,
      "d": 1466.666666666657,
      "v": 85
    },
    {
      "midi": 57,
      "hit": false,
      "t": 155716.66666666674,
      "d": 683.333333333343,
      "v": 96
    },
    {
      "midi": 50,
      "hit": false,
      "t": 155716.66666666674,
      "d": 750,
      "v": 85
    },
    {
      "midi": 50,
      "hit": false,
      "t": 156666.66666666674,
      "d": 350,
      "v": 56
    },
    {
      "midi": 62,
      "hit": false,
      "t": 157150.0000000001,
      "d": 66.66666666665697,
      "v": 48
    },
    {
      "midi": 38,
      "hit": false,
      "t": 157350.0000000001,
      "d": 1450,
      "v": 72
    },
    {
      "midi": 45,
      "hit": false,
      "t": 157450.0000000001,
      "d": 1233.333333333343,
      "v": 68
    },
    {
      "midi": 50,
      "hit": false,
      "t": 157550.0000000001,
      "d": 883.333333333343,
      "v": 80
    },
    {
      "midi": 57,
      "hit": false,
      "t": 157583.33333333343,
      "d": 1716.666666666657,
      "v": 71
    },
    {
      "midi": 62,
      "hit": false,
      "t": 157600.0000000001,
      "d": 1700,
      "v": 69
    },
    {
      "midi": 66,
      "hit": false,
      "t": 157633.33333333343,
      "d": 1666.666666666657,
      "v": 96
    },
    {
      "midi": 69,
      "hit": false,
      "t": 157650.0000000001,
      "d": 1650,
      "v": 93
    },
    {
      "midi": 57,
      "hit": false,
      "t": 159566.66666666674,
      "d": 933.3333333333139,
      "v": 85
    },
    {
      "midi": 60,
      "hit": false,
      "t": 159566.66666666674,
      "d": 999.9999999999709,
      "v": 88
    },
    {
      "midi": 64,
      "hit": false,
      "t": 159566.66666666674,
      "d": 1099.999999999971,
      "v": 85
    },
    {
      "midi": 45,
      "hit": false,
      "t": 159566.66666666674,
      "d": 1816.6666666666279,
      "v": 88
    },
    {
      "midi": 69,
      "hit": false,
      "t": 161033.33333333337,
      "d": 250,
      "v": 83
    },
    {
      "midi": 64,
      "hit": false,
      "t": 161033.33333333337,
      "d": 400,
      "v": 69
    },
    {
      "midi": 60,
      "hit": false,
      "t": 161050.00000000003,
      "d": 350,
      "v": 69
    },
    {
      "midi": 52,
      "hit": false,
      "t": 161283.33333333337,
      "d": 233.33333333331393,
      "v": 64
    },
    {
      "midi": 59,
      "hit": false,
      "t": 161516.6666666667,
      "d": 783.333333333343,
      "v": 91
    },
    {
      "midi": 55,
      "hit": false,
      "t": 161516.6666666667,
      "d": 850,
      "v": 60
    },
    {
      "midi": 62,
      "hit": false,
      "t": 161516.6666666667,
      "d": 933.333333333343,
      "v": 88
    },
    {
      "midi": 67,
      "hit": false,
      "t": 161516.6666666667,
      "d": 1116.666666666657,
      "v": 88
    },
    {
      "midi": 45,
      "hit": false,
      "t": 161516.6666666667,
      "d": 1416.666666666657,
      "v": 83
    },
    {
      "midi": 57,
      "hit": false,
      "t": 162516.6666666667,
      "d": 150,
      "v": 56
    },
    {
      "midi": 71,
      "hit": false,
      "t": 162683.33333333334,
      "d": 366.66666666665697,
      "v": 83
    },
    {
      "midi": 62,
      "hit": false,
      "t": 162700,
      "d": 516.6666666666861,
      "v": 91
    },
    {
      "midi": 57,
      "hit": false,
      "t": 162933.33333333334,
      "d": 100,
      "v": 66
    },
    {
      "midi": 53,
      "hit": false,
      "t": 163133.33333333334,
      "d": 200,
      "v": 60
    },
    {
      "midi": 67,
      "hit": false,
      "t": 163183.33333333334,
      "d": 150,
      "v": 71
    },
    {
      "midi": 60,
      "hit": false,
      "t": 163416.6666666667,
      "d": 1233.333333333343,
      "v": 91
    },
    {
      "midi": 65,
      "hit": false,
      "t": 163416.6666666667,
      "d": 1383.333333333343,
      "v": 91
    },
    {
      "midi": 45,
      "hit": false,
      "t": 163416.6666666667,
      "d": 1583.333333333343,
      "v": 85
    },
    {
      "midi": 69,
      "hit": false,
      "t": 163416.6666666667,
      "d": 1683.333333333343,
      "v": 96
    },
    {
      "midi": 60,
      "hit": false,
      "t": 164883.33333333337,
      "d": 300,
      "v": 66
    },
    {
      "midi": 65,
      "hit": false,
      "t": 165066.6666666667,
      "d": 150.0000000000291,
      "v": 71
    },
    {
      "midi": 67,
      "hit": false,
      "t": 165316.66666666672,
      "d": 833.3333333333139,
      "v": 88
    },
    {
      "midi": 62,
      "hit": false,
      "t": 165333.33333333337,
      "d": 333.33333333331393,
      "v": 91
    },
    {
      "midi": 59,
      "hit": false,
      "t": 165333.33333333337,
      "d": 516.666666666657,
      "v": 93
    },
    {
      "midi": 45,
      "hit": false,
      "t": 165333.33333333337,
      "d": 1683.333333333314,
      "v": 83
    },
    {
      "midi": 62,
      "hit": false,
      "t": 166016.6666666667,
      "d": 83.33333333334303,
      "v": 48
    },
    {
      "midi": 71,
      "hit": false,
      "t": 166283.33333333337,
      "d": 583.3333333333139,
      "v": 91
    },
    {
      "midi": 62,
      "hit": false,
      "t": 166300.00000000003,
      "d": 750,
      "v": 97
    },
    {
      "midi": 59,
      "hit": false,
      "t": 166800.00000000003,
      "d": 100,
      "v": 36
    },
    {
      "midi": 52,
      "hit": false,
      "t": 167000.00000000003,
      "d": 2233.333333333343,
      "v": 61
    },
    {
      "midi": 45,
      "hit": false,
      "t": 167250.00000000003,
      "d": 1650,
      "v": 76
    },
    {
      "midi": 69,
      "hit": false,
      "t": 167250.00000000003,
      "d": 1750,
      "v": 97
    },
    {
      "midi": 60,
      "hit": false,
      "t": 167250.00000000003,
      "d": 1800,
      "v": 93
    },
    {
      "midi": 64,
      "hit": false,
      "t": 167250.00000000003,
      "d": 1833.333333333343,
      "v": 93
    },
    {
      "midi": 55,
      "hit": false,
      "t": 169033.33333333337,
      "d": 583.3333333333139,
      "v": 43
    },
    {
      "midi": 62,
      "hit": false,
      "t": 169183.33333333337,
      "d": 516.666666666657,
      "v": 85
    },
    {
      "midi": 67,
      "hit": false,
      "t": 169183.33333333337,
      "d": 716.6666666666279,
      "v": 91
    },
    {
      "midi": 47,
      "hit": false,
      "t": 169183.33333333337,
      "d": 1716.6666666666279,
      "v": 83
    },
    {
      "midi": 59,
      "hit": false,
      "t": 169216.66666666672,
      "d": 549.9999999999709,
      "v": 91
    },
    {
      "midi": 55,
      "hit": false,
      "t": 169816.6666666667,
      "d": 583.3333333333139,
      "v": 51
    },
    {
      "midi": 62,
      "hit": false,
      "t": 169883.33333333334,
      "d": 83.33333333331393,
      "v": 52
    },
    {
      "midi": 71,
      "hit": false,
      "t": 170133.3333333333,
      "d": 450.0000000000291,
      "v": 91
    },
    {
      "midi": 62,
      "hit": false,
      "t": 170133.3333333333,
      "d": 766.6666666666861,
      "v": 93
    },
    {
      "midi": 59,
      "hit": false,
      "t": 170616.6666666667,
      "d": 216.66666666665697,
      "v": 72
    },
    {
      "midi": 55,
      "hit": false,
      "t": 170650.00000000003,
      "d": 116.66666666665697,
      "v": 48
    },
    {
      "midi": 52,
      "hit": false,
      "t": 170850,
      "d": 283.33333333334303,
      "v": 52
    },
    {
      "midi": 64,
      "hit": false,
      "t": 171100,
      "d": 1383.333333333343,
      "v": 91
    },
    {
      "midi": 67,
      "hit": false,
      "t": 171100,
      "d": 1400,
      "v": 96
    },
    {
      "midi": 48,
      "hit": false,
      "t": 171100,
      "d": 1966.666666666657,
      "v": 78
    },
    {
      "midi": 60,
      "hit": false,
      "t": 171133.33333333334,
      "d": 1583.333333333314,
      "v": 88
    },
    {
      "midi": 55,
      "hit": false,
      "t": 172750,
      "d": 150,
      "v": 59
    },
    {
      "midi": 72,
      "hit": false,
      "t": 173016.66666666666,
      "d": 283.33333333334303,
      "v": 93
    },
    {
      "midi": 64,
      "hit": false,
      "t": 173016.66666666666,
      "d": 1233.3333333333721,
      "v": 96
    },
    {
      "midi": 45,
      "hit": false,
      "t": 173016.66666666666,
      "d": 1933.333333333343,
      "v": 80
    },
    {
      "midi": 52,
      "hit": false,
      "t": 173500,
      "d": 850.0000000000291,
      "v": 53
    },
    {
      "midi": 71,
      "hit": false,
      "t": 173533.33333333334,
      "d": 66.66666666665697,
      "v": 56
    },
    {
      "midi": 60,
      "hit": false,
      "t": 173783.33333333334,
      "d": 750,
      "v": 85
    },
    {
      "midi": 69,
      "hit": false,
      "t": 173783.33333333334,
      "d": 1000,
      "v": 93
    },
    {
      "midi": 57,
      "hit": false,
      "t": 174116.6666666667,
      "d": 150,
      "v": 37
    },
    {
      "midi": 64,
      "hit": false,
      "t": 174466.6666666667,
      "d": 333.33333333331393,
      "v": 66
    },
    {
      "midi": 52,
      "hit": false,
      "t": 174650,
      "d": 283.33333333334303,
      "v": 40
    },
    {
      "midi": 57,
      "hit": false,
      "t": 174733.33333333334,
      "d": 150,
      "v": 59
    },
    {
      "midi": 69,
      "hit": false,
      "t": 174950,
      "d": 1716.666666666657,
      "v": 96
    },
    {
      "midi": 65,
      "hit": false,
      "t": 174950,
      "d": 1800,
      "v": 91
    },
    {
      "midi": 62,
      "hit": false,
      "t": 174950,
      "d": 1833.333333333343,
      "v": 88
    },
    {
      "midi": 50,
      "hit": false,
      "t": 174950,
      "d": 1916.666666666686,
      "v": 71
    },
    {
      "midi": 62,
      "hit": false,
      "t": 176883.33333333334,
      "d": 516.666666666657,
      "v": 88
    },
    {
      "midi": 59,
      "hit": false,
      "t": 176883.33333333334,
      "d": 716.666666666657,
      "v": 93
    },
    {
      "midi": 67,
      "hit": false,
      "t": 176883.33333333334,
      "d": 866.666666666657,
      "v": 85
    },
    {
      "midi": 55,
      "hit": false,
      "t": 176883.33333333334,
      "d": 1283.333333333343,
      "v": 76
    },
    {
      "midi": 62,
      "hit": false,
      "t": 177583.33333333334,
      "d": 150,
      "v": 62
    },
    {
      "midi": 71,
      "hit": false,
      "t": 177833.33333333334,
      "d": 716.6666666666861,
      "v": 93
    },
    {
      "midi": 62,
      "hit": false,
      "t": 177833.33333333334,
      "d": 800.0000000000291,
      "v": 85
    },
    {
      "midi": 65,
      "hit": false,
      "t": 177833.33333333334,
      "d": 850.0000000000291,
      "v": 88
    },
    {
      "midi": 59,
      "hit": false,
      "t": 178350.00000000003,
      "d": 166.66666666665697,
      "v": 71
    },
    {
      "midi": 52,
      "hit": false,
      "t": 178600.00000000003,
      "d": 233.33333333331393,
      "v": 64
    },
    {
      "midi": 48,
      "hit": false,
      "t": 178800.00000000003,
      "d": 1949.999999999971,
      "v": 74
    },
    {
      "midi": 60,
      "hit": false,
      "t": 178816.6666666667,
      "d": 1683.333333333314,
      "v": 93
    },
    {
      "midi": 64,
      "hit": false,
      "t": 178816.6666666667,
      "d": 1699.999999999971,
      "v": 93
    },
    {
      "midi": 67,
      "hit": false,
      "t": 178816.6666666667,
      "d": 1799.999999999971,
      "v": 93
    },
    {
      "midi": 55,
      "hit": false,
      "t": 180350,
      "d": 166.66666666665697,
      "v": 50
    },
    {
      "midi": 64,
      "hit": false,
      "t": 180700,
      "d": 166.66666666665697,
      "v": 91
    },
    {
      "midi": 69,
      "hit": false,
      "t": 180700,
      "d": 766.6666666666861,
      "v": 88
    },
    {
      "midi": 45,
      "hit": false,
      "t": 180700,
      "d": 1833.3333333333721,
      "v": 91
    },
    {
      "midi": 60,
      "hit": false,
      "t": 180716.66666666666,
      "d": 233.33333333334303,
      "v": 91
    },
    {
      "midi": 52,
      "hit": false,
      "t": 180950,
      "d": 1316.666666666686,
      "v": 76
    },
    {
      "midi": 59,
      "hit": false,
      "t": 181200,
      "d": 150,
      "v": 64
    },
    {
      "midi": 60,
      "hit": false,
      "t": 181433.33333333334,
      "d": 800,
      "v": 96
    },
    {
      "midi": 57,
      "hit": false,
      "t": 181666.6666666667,
      "d": 400,
      "v": 76
    },
    {
      "midi": 64,
      "hit": false,
      "t": 181900.00000000003,
      "d": 466.66666666665697,
      "v": 76
    },
    {
      "midi": 67,
      "hit": false,
      "t": 182183.33333333334,
      "d": 300.0000000000291,
      "v": 85
    },
    {
      "midi": 57,
      "hit": false,
      "t": 182266.6666666667,
      "d": 150,
      "v": 51
    },
    {
      "midi": 52,
      "hit": false,
      "t": 182450.00000000003,
      "d": 216.66666666668607,
      "v": 64
    },
    {
      "midi": 62,
      "hit": false,
      "t": 182683.33333333337,
      "d": 1300,
      "v": 91
    },
    {
      "midi": 50,
      "hit": false,
      "t": 182683.33333333337,
      "d": 1333.333333333343,
      "v": 78
    },
    {
      "midi": 69,
      "hit": false,
      "t": 182683.33333333337,
      "d": 1516.666666666686,
      "v": 96
    },
    {
      "midi": 65,
      "hit": false,
      "t": 182683.33333333337,
      "d": 1783.3333333333721,
      "v": 85
    },
    {
      "midi": 62,
      "hit": false,
      "t": 184066.66666666672,
      "d": 366.66666666668607,
      "v": 60
    },
    {
      "midi": 50,
      "hit": false,
      "t": 184350.00000000006,
      "d": 250,
      "v": 56
    },
    {
      "midi": 67,
      "hit": false,
      "t": 184550.0000000001,
      "d": 1666.6666666665988,
      "v": 91
    },
    {
      "midi": 59,
      "hit": false,
      "t": 184566.66666666674,
      "d": 1549.9999999999418,
      "v": 88
    },
    {
      "midi": 64,
      "hit": false,
      "t": 184566.66666666674,
      "d": 1766.6666666665988,
      "v": 88
    },
    {
      "midi": 52,
      "hit": false,
      "t": 184583.3333333334,
      "d": 1466.6666666666279,
      "v": 83
    },
    {
      "midi": 55,
      "hit": false,
      "t": 185600.00000000006,
      "d": 66.66666666665697,
      "v": 21
    },
    {
      "midi": 55,
      "hit": false,
      "t": 185983.33333333337,
      "d": 149.9999999999709,
      "v": 57
    },
    {
      "midi": 52,
      "hit": false,
      "t": 186233.33333333334,
      "d": 300,
      "v": 64
    },
    {
      "midi": 60,
      "hit": false,
      "t": 186500,
      "d": 1533.333333333343,
      "v": 91
    },
    {
      "midi": 64,
      "hit": false,
      "t": 186500,
      "d": 1533.333333333343,
      "v": 96
    },
    {
      "midi": 69,
      "hit": false,
      "t": 186500,
      "d": 1533.333333333343,
      "v": 97
    },
    {
      "midi": 45,
      "hit": false,
      "t": 186500,
      "d": 2099.999999999971,
      "v": 88
    },
    {
      "midi": 57,
      "hit": false,
      "t": 187933.33333333334,
      "d": 83.33333333334303,
      "v": 64
    },
    {
      "midi": 52,
      "hit": false,
      "t": 188133.33333333334,
      "d": 66.66666666665697,
      "v": 56
    },
    {
      "midi": 60,
      "hit": false,
      "t": 188150,
      "d": 133.33333333334303,
      "v": 64
    },
    {
      "midi": 69,
      "hit": false,
      "t": 188166.66666666666,
      "d": 83.33333333334303,
      "v": 64
    },
    {
      "midi": 64,
      "hit": false,
      "t": 188166.66666666666,
      "d": 133.33333333334303,
      "v": 66
    },
    {
      "midi": 69,
      "hit": false,
      "t": 188416.66666666666,
      "d": 433.33333333331393,
      "v": 96
    },
    {
      "midi": 64,
      "hit": false,
      "t": 188416.66666666666,
      "d": 599.9999999999709,
      "v": 91
    },
    {
      "midi": 60,
      "hit": false,
      "t": 188416.66666666666,
      "d": 633.3333333333139,
      "v": 91
    },
    {
      "midi": 52,
      "hit": false,
      "t": 188433.3333333333,
      "d": 116.66666666665697,
      "v": 85
    },
    {
      "midi": 69,
      "hit": false,
      "t": 189399.99999999997,
      "d": 316.66666666665697,
      "v": 99
    },
    {
      "midi": 60,
      "hit": false,
      "t": 189399.99999999997,
      "d": 383.33333333331393,
      "v": 96
    },
    {
      "midi": 64,
      "hit": false,
      "t": 189399.99999999997,
      "d": 399.9999999999709,
      "v": 99
    },
    {
      "midi": 59,
      "hit": false,
      "t": 189849.99999999994,
      "d": 300,
      "v": 93
    },
    {
      "midi": 62,
      "hit": false,
      "t": 189849.99999999994,
      "d": 300,
      "v": 96
    },
    {
      "midi": 67,
      "hit": false,
      "t": 189849.99999999994,
      "d": 300,
      "v": 93
    },
    {
      "midi": 57,
      "hit": false,
      "t": 190333.33333333328,
      "d": 850,
      "v": 83
    },
    {
      "midi": 65,
      "hit": false,
      "t": 190333.33333333328,
      "d": 983.333333333343,
      "v": 85
    },
    {
      "midi": 60,
      "hit": false,
      "t": 190333.33333333328,
      "d": 1000,
      "v": 85
    },
    {
      "midi": 41,
      "hit": false,
      "t": 190333.33333333328,
      "d": 1350,
      "v": 91
    },
    {
      "midi": 53,
      "hit": false,
      "t": 191316.66666666663,
      "d": 316.66666666665697,
      "v": 68
    },
    {
      "midi": 69,
      "hit": false,
      "t": 191533.33333333328,
      "d": 233.33333333334303,
      "v": 96
    },
    {
      "midi": 65,
      "hit": false,
      "t": 191533.33333333328,
      "d": 433.33333333334303,
      "v": 93
    },
    {
      "midi": 60,
      "hit": false,
      "t": 191533.33333333328,
      "d": 450,
      "v": 96
    },
    {
      "midi": 50,
      "hit": false,
      "t": 192016.66666666663,
      "d": 83.33333333334303,
      "v": 47
    },
    {
      "midi": 59,
      "hit": false,
      "t": 192266.66666666663,
      "d": 816.666666666657,
      "v": 93
    },
    {
      "midi": 67,
      "hit": false,
      "t": 192266.66666666663,
      "d": 833.3333333333139,
      "v": 96
    },
    {
      "midi": 43,
      "hit": false,
      "t": 192266.66666666663,
      "d": 1233.333333333314,
      "v": 97
    },
    {
      "midi": 62,
      "hit": false,
      "t": 192266.66666666663,
      "d": 1333.333333333314,
      "v": 93
    },
    {
      "midi": 59,
      "hit": false,
      "t": 193199.99999999994,
      "d": 333.33333333334303,
      "v": 47
    },
    {
      "midi": 67,
      "hit": false,
      "t": 193199.99999999994,
      "d": 400,
      "v": 28
    },
    {
      "midi": 59,
      "hit": false,
      "t": 193733.33333333328,
      "d": 133.33333333334303,
      "v": 66
    },
    {
      "midi": 67,
      "hit": false,
      "t": 193733.33333333328,
      "d": 150,
      "v": 64
    },
    {
      "midi": 62,
      "hit": false,
      "t": 193933.33333333328,
      "d": 150,
      "v": 69
    },
    {
      "midi": 45,
      "hit": false,
      "t": 193966.66666666663,
      "d": 100,
      "v": 33
    },
    {
      "midi": 66,
      "hit": false,
      "t": 194166.66666666663,
      "d": 916.6666666666279,
      "v": 88
    },
    {
      "midi": 57,
      "hit": false,
      "t": 194183.33333333328,
      "d": 866.666666666657,
      "v": 96
    },
    {
      "midi": 62,
      "hit": false,
      "t": 194183.33333333328,
      "d": 883.3333333333139,
      "v": 85
    },
    {
      "midi": 38,
      "hit": false,
      "t": 194199.99999999994,
      "d": 1549.999999999971,
      "v": 88
    },
    {
      "midi": 50,
      "hit": false,
      "t": 194199.99999999994,
      "d": 1799.999999999971,
      "v": 83
    },
    {
      "midi": 57,
      "hit": false,
      "t": 195166.6666666666,
      "d": 316.66666666665697,
      "v": 62
    },
    {
      "midi": 62,
      "hit": false,
      "t": 195166.6666666666,
      "d": 433.33333333331393,
      "v": 71
    },
    {
      "midi": 66,
      "hit": false,
      "t": 195166.6666666666,
      "d": 599.9999999999709,
      "v": 65
    },
    {
      "midi": 62,
      "hit": false,
      "t": 195649.9999999999,
      "d": 66.66666666665697,
      "v": 33
    },
    {
      "midi": 57,
      "hit": false,
      "t": 195666.66666666657,
      "d": 133.33333333334303,
      "v": 64
    },
    {
      "midi": 38,
      "hit": false,
      "t": 195899.9999999999,
      "d": 200,
      "v": 83
    },
    {
      "midi": 59,
      "hit": false,
      "t": 196149.9999999999,
      "d": 599.9999999999709,
      "v": 88
    },
    {
      "midi": 57,
      "hit": false,
      "t": 196149.9999999999,
      "d": 799.9999999999709,
      "v": 88
    },
    {
      "midi": 64,
      "hit": false,
      "t": 196149.9999999999,
      "d": 916.6666666666279,
      "v": 85
    },
    {
      "midi": 40,
      "hit": false,
      "t": 196149.9999999999,
      "d": 1483.3333333332848,
      "v": 96
    },
    {
      "midi": 52,
      "hit": false,
      "t": 197083.3333333332,
      "d": 716.666666666657,
      "v": 59
    },
    {
      "midi": 59,
      "hit": false,
      "t": 197333.3333333332,
      "d": 50,
      "v": 44
    },
    {
      "midi": 64,
      "hit": false,
      "t": 197333.3333333332,
      "d": 66.66666666665697,
      "v": 60
    },
    {
      "midi": 57,
      "hit": false,
      "t": 197349.99999999985,
      "d": 33.333333333343035,
      "v": 37
    },
    {
      "midi": 57,
      "hit": false,
      "t": 197583.3333333332,
      "d": 200,
      "v": 76
    },
    {
      "midi": 59,
      "hit": false,
      "t": 197583.3333333332,
      "d": 216.66666666665697,
      "v": 85
    },
    {
      "midi": 64,
      "hit": false,
      "t": 197583.3333333332,
      "d": 266.66666666665697,
      "v": 80
    },
    {
      "midi": 40,
      "hit": false,
      "t": 197816.6666666665,
      "d": 166.66666666668607,
      "v": 71
    },
    {
      "midi": 60,
      "hit": false,
      "t": 198066.66666666654,
      "d": 566.666666666657,
      "v": 91
    },
    {
      "midi": 64,
      "hit": false,
      "t": 198066.66666666654,
      "d": 583.3333333333139,
      "v": 91
    },
    {
      "midi": 57,
      "hit": false,
      "t": 198066.66666666654,
      "d": 683.3333333333139,
      "v": 91
    },
    {
      "midi": 45,
      "hit": false,
      "t": 198066.66666666654,
      "d": 1449.999999999971,
      "v": 88
    },
    {
      "midi": 69,
      "hit": false,
      "t": 198999.99999999985,
      "d": 483.33333333331393,
      "v": 93
    },
    {
      "midi": 64,
      "hit": false,
      "t": 198999.99999999985,
      "d": 600,
      "v": 85
    },
    {
      "midi": 60,
      "hit": false,
      "t": 199016.6666666665,
      "d": 550,
      "v": 85
    },
    {
      "midi": 57,
      "hit": false,
      "t": 199483.33333333317,
      "d": 83.33333333334303,
      "v": 64
    },
    {
      "midi": 45,
      "hit": false,
      "t": 199733.3333333332,
      "d": 133.33333333334303,
      "v": 74
    },
    {
      "midi": 67,
      "hit": false,
      "t": 199983.3333333332,
      "d": 700,
      "v": 93
    },
    {
      "midi": 59,
      "hit": false,
      "t": 199983.3333333332,
      "d": 833.333333333343,
      "v": 93
    },
    {
      "midi": 62,
      "hit": false,
      "t": 199983.3333333332,
      "d": 850,
      "v": 93
    },
    {
      "midi": 47,
      "hit": false,
      "t": 199999.99999999985,
      "d": 1266.666666666686,
      "v": 88
    },
    {
      "midi": 55,
      "hit": false,
      "t": 200933.3333333332,
      "d": 366.66666666668607,
      "v": 74
    },
    {
      "midi": 59,
      "hit": false,
      "t": 200933.3333333332,
      "d": 450.0000000000291,
      "v": 74
    },
    {
      "midi": 62,
      "hit": false,
      "t": 200933.3333333332,
      "d": 516.6666666667152,
      "v": 78
    },
    {
      "midi": 67,
      "hit": false,
      "t": 201416.66666666657,
      "d": 166.66666666668607,
      "v": 51
    },
    {
      "midi": 43,
      "hit": false,
      "t": 201649.9999999999,
      "d": 150,
      "v": 61
    },
    {
      "midi": 55,
      "hit": false,
      "t": 201883.33333333326,
      "d": 433.33333333331393,
      "v": 96
    },
    {
      "midi": 60,
      "hit": false,
      "t": 201883.33333333326,
      "d": 499.9999999999709,
      "v": 88
    },
    {
      "midi": 64,
      "hit": false,
      "t": 201883.33333333326,
      "d": 516.6666666666279,
      "v": 85
    },
    {
      "midi": 36,
      "hit": false,
      "t": 201883.33333333326,
      "d": 1033.333333333314,
      "v": 83
    },
    {
      "midi": 48,
      "hit": false,
      "t": 201899.9999999999,
      "d": 683.3333333333139,
      "v": 83
    },
    {
      "midi": 64,
      "hit": false,
      "t": 202499.99999999988,
      "d": 116.66666666668607,
      "v": 46
    },
    {
      "midi": 60,
      "hit": false,
      "t": 202533.33333333323,
      "d": 83.33333333334303,
      "v": 46
    },
    {
      "midi": 67,
      "hit": false,
      "t": 202533.33333333323,
      "d": 100,
      "v": 52
    },
    {
      "midi": 60,
      "hit": false,
      "t": 202816.66666666657,
      "d": 533.333333333343,
      "v": 93
    },
    {
      "midi": 64,
      "hit": false,
      "t": 202816.66666666657,
      "d": 550,
      "v": 96
    },
    {
      "midi": 67,
      "hit": false,
      "t": 202816.66666666657,
      "d": 550,
      "v": 93
    },
    {
      "midi": 48,
      "hit": false,
      "t": 202833.33333333323,
      "d": 183.33333333334303,
      "v": 72
    },
    {
      "midi": 55,
      "hit": false,
      "t": 203266.66666666657,
      "d": 50,
      "v": 71
    },
    {
      "midi": 47,
      "hit": false,
      "t": 203533.33333333323,
      "d": 150,
      "v": 64
    },
    {
      "midi": 64,
      "hit": false,
      "t": 203783.33333333323,
      "d": 166.66666666665697,
      "v": 85
    },
    {
      "midi": 68,
      "hit": false,
      "t": 203783.33333333323,
      "d": 200,
      "v": 79
    },
    {
      "midi": 59,
      "hit": false,
      "t": 203799.99999999988,
      "d": 100,
      "v": 96
    },
    {
      "midi": 52,
      "hit": false,
      "t": 203799.99999999988,
      "d": 300,
      "v": 80
    },
    {
      "midi": 40,
      "hit": false,
      "t": 203799.99999999988,
      "d": 1600.000000000029,
      "v": 88
    },
    {
      "midi": 64,
      "hit": false,
      "t": 204233.33333333323,
      "d": 50,
      "v": 66
    },
    {
      "midi": 64,
      "hit": false,
      "t": 204483.33333333323,
      "d": 83.33333333334303,
      "v": 80
    },
    {
      "midi": 68,
      "hit": false,
      "t": 204483.33333333323,
      "d": 83.33333333334303,
      "v": 71
    },
    {
      "midi": 71,
      "hit": false,
      "t": 204483.33333333323,
      "d": 83.33333333334303,
      "v": 74
    },
    {
      "midi": 76,
      "hit": false,
      "t": 204483.33333333323,
      "d": 83.33333333334303,
      "v": 78
    },
    {
      "midi": 52,
      "hit": false,
      "t": 204749.9999999999,
      "d": 200,
      "v": 85
    },
    {
      "midi": 64,
      "hit": false,
      "t": 204749.9999999999,
      "d": 316.66666666665697,
      "v": 97
    },
    {
      "midi": 76,
      "hit": false,
      "t": 204749.9999999999,
      "d": 350,
      "v": 91
    },
    {
      "midi": 68,
      "hit": false,
      "t": 204749.9999999999,
      "d": 450,
      "v": 99
    },
    {
      "midi": 71,
      "hit": false,
      "t": 204749.9999999999,
      "d": 483.33333333334303,
      "v": 96
    },
    {
      "midi": 64,
      "hit": false,
      "t": 205266.6666666666,
      "d": 66.66666666665697,
      "v": 83
    },
    {
      "midi": 52,
      "hit": false,
      "t": 205499.9999999999,
      "d": 116.66666666665697,
      "v": 80
    },
    {
      "midi": 60,
      "hit": false,
      "t": 205733.33333333323,
      "d": 366.66666666665697,
      "v": 85
    },
    {
      "midi": 64,
      "hit": false,
      "t": 205733.33333333323,
      "d": 616.666666666657,
      "v": 91
    },
    {
      "midi": 69,
      "hit": false,
      "t": 205749.99999999988,
      "d": 816.6666666666861,
      "v": 96
    },
    {
      "midi": 45,
      "hit": false,
      "t": 205766.66666666654,
      "d": 1800.000000000029,
      "v": 96
    },
    {
      "midi": 60,
      "hit": false,
      "t": 206216.66666666654,
      "d": 133.33333333334303,
      "v": 32
    },
    {
      "midi": 64,
      "hit": false,
      "t": 206449.99999999988,
      "d": 150.0000000000291,
      "v": 55
    },
    {
      "midi": 60,
      "hit": false,
      "t": 206483.33333333323,
      "d": 83.33333333334303,
      "v": 44
    },
    {
      "midi": 64,
      "hit": false,
      "t": 206699.9999999999,
      "d": 550,
      "v": 85
    },
    {
      "midi": 60,
      "hit": false,
      "t": 206716.66666666657,
      "d": 300,
      "v": 80
    },
    {
      "midi": 69,
      "hit": false,
      "t": 206716.66666666657,
      "d": 533.333333333343,
      "v": 91
    },
    {
      "midi": 60,
      "hit": false,
      "t": 207199.9999999999,
      "d": 66.66666666665697,
      "v": 51
    },
    {
      "midi": 71,
      "hit": false,
      "t": 207666.66666666657,
      "d": 350,
      "v": 88
    },
    {
      "midi": 62,
      "hit": false,
      "t": 207666.66666666657,
      "d": 466.66666666665697,
      "v": 93
    },
    {
      "midi": 67,
      "hit": false,
      "t": 207666.66666666657,
      "d": 549.9999999999709,
      "v": 85
    },
    {
      "midi": 43,
      "hit": false,
      "t": 207666.66666666657,
      "d": 1733.3333333332848,
      "v": 96
    },
    {
      "midi": 59,
      "hit": false,
      "t": 208116.66666666657,
      "d": 83.33333333331393,
      "v": 50
    },
    {
      "midi": 62,
      "hit": false,
      "t": 208333.3333333332,
      "d": 83.33333333334303,
      "v": 66
    },
    {
      "midi": 62,
      "hit": false,
      "t": 208633.3333333332,
      "d": 266.66666666665697,
      "v": 91
    },
    {
      "midi": 67,
      "hit": false,
      "t": 208633.3333333332,
      "d": 550,
      "v": 91
    },
    {
      "midi": 59,
      "hit": false,
      "t": 208633.3333333332,
      "d": 616.666666666657,
      "v": 96
    },
    {
      "midi": 62,
      "hit": false,
      "t": 209099.99999999985,
      "d": 250,
      "v": 83
    },
    {
      "midi": 64,
      "hit": false,
      "t": 209349.99999999985,
      "d": 150,
      "v": 76
    },
    {
      "midi": 45,
      "hit": false,
      "t": 209349.99999999985,
      "d": 166.66666666665697,
      "v": 61
    },
    {
      "midi": 38,
      "hit": false,
      "t": 209583.3333333332,
      "d": 1699.9999999999127,
      "v": 83
    },
    {
      "midi": 62,
      "hit": false,
      "t": 209599.99999999985,
      "d": 333.33333333331393,
      "v": 83
    },
    {
      "midi": 57,
      "hit": false,
      "t": 209599.99999999985,
      "d": 716.6666666666279,
      "v": 88
    },
    {
      "midi": 66,
      "hit": false,
      "t": 209599.99999999985,
      "d": 716.6666666666279,
      "v": 92
    },
    {
      "midi": 50,
      "hit": false,
      "t": 209599.99999999985,
      "d": 1616.6666666665988,
      "v": 80
    },
    {
      "midi": 62,
      "hit": false,
      "t": 210299.99999999983,
      "d": 133.33333333331393,
      "v": 64
    },
    {
      "midi": 69,
      "hit": false,
      "t": 210549.9999999998,
      "d": 650,
      "v": 93
    },
    {
      "midi": 66,
      "hit": false,
      "t": 210549.9999999998,
      "d": 849.9999999999709,
      "v": 88
    },
    {
      "midi": 62,
      "hit": false,
      "t": 210549.9999999998,
      "d": 883.3333333333139,
      "v": 85
    },
    {
      "midi": 57,
      "hit": false,
      "t": 211033.33333333314,
      "d": 166.66666666665697,
      "v": 74
    },
    {
      "midi": 45,
      "hit": false,
      "t": 211283.3333333331,
      "d": 216.66666666665697,
      "v": 61
    },
    {
      "midi": 59,
      "hit": false,
      "t": 211516.66666666642,
      "d": 500,
      "v": 85
    },
    {
      "midi": 64,
      "hit": false,
      "t": 211516.66666666642,
      "d": 850,
      "v": 80
    },
    {
      "midi": 40,
      "hit": false,
      "t": 211516.66666666642,
      "d": 1516.666666666657,
      "v": 83
    },
    {
      "midi": 52,
      "hit": false,
      "t": 211516.66666666642,
      "d": 1883.333333333314,
      "v": 83
    },
    {
      "midi": 59,
      "hit": false,
      "t": 212216.66666666642,
      "d": 116.66666666665697,
      "v": 48
    },
    {
      "midi": 59,
      "hit": false,
      "t": 212466.66666666642,
      "d": 383.33333333331393,
      "v": 71
    },
    {
      "midi": 64,
      "hit": false,
      "t": 212466.66666666642,
      "d": 633.3333333333139,
      "v": 76
    },
    {
      "midi": 67,
      "hit": false,
      "t": 212483.33333333308,
      "d": 600,
      "v": 78
    },
    {
      "midi": 59,
      "hit": false,
      "t": 212949.99999999974,
      "d": 133.33333333334303,
      "v": 61
    },
    {
      "midi": 40,
      "hit": false,
      "t": 213216.6666666664,
      "d": 133.33333333334303,
      "v": 64
    },
    {
      "midi": 69,
      "hit": false,
      "t": 213449.99999999974,
      "d": 783.3333333333139,
      "v": 96
    },
    {
      "midi": 60,
      "hit": false,
      "t": 213449.99999999974,
      "d": 833.3333333333139,
      "v": 91
    },
    {
      "midi": 65,
      "hit": false,
      "t": 213449.99999999974,
      "d": 833.3333333333139,
      "v": 83
    },
    {
      "midi": 41,
      "hit": false,
      "t": 213449.99999999974,
      "d": 1833.333333333314,
      "v": 91
    },
    {
      "midi": 69,
      "hit": false,
      "t": 214416.6666666664,
      "d": 499.9999999999709,
      "v": 80
    },
    {
      "midi": 60,
      "hit": false,
      "t": 214433.33333333305,
      "d": 666.666666666657,
      "v": 72
    },
    {
      "midi": 57,
      "hit": false,
      "t": 214849.9999999997,
      "d": 116.66666666665697,
      "v": 64
    },
    {
      "midi": 65,
      "hit": false,
      "t": 215066.66666666637,
      "d": 166.66666666668607,
      "v": 64
    },
    {
      "midi": 67,
      "hit": false,
      "t": 215366.66666666637,
      "d": 883.333333333343,
      "v": 88
    },
    {
      "midi": 59,
      "hit": false,
      "t": 215366.66666666637,
      "d": 900,
      "v": 88
    },
    {
      "midi": 62,
      "hit": false,
      "t": 215366.66666666637,
      "d": 916.666666666657,
      "v": 83
    },
    {
      "midi": 64,
      "hit": false,
      "t": 215366.66666666637,
      "d": 1633.333333333314,
      "v": 85
    },
    {
      "midi": 40,
      "hit": false,
      "t": 215366.66666666637,
      "d": 1966.666666666657,
      "v": 80
    },
    {
      "midi": 52,
      "hit": false,
      "t": 215399.9999999997,
      "d": 1866.666666666657,
      "v": 83
    },
    {
      "midi": 67,
      "hit": false,
      "t": 216316.66666666637,
      "d": 866.666666666657,
      "v": 48
    },
    {
      "midi": 62,
      "hit": false,
      "t": 216333.33333333302,
      "d": 666.666666666657,
      "v": 62
    },
    {
      "midi": 59,
      "hit": false,
      "t": 216333.33333333302,
      "d": 716.666666666657,
      "v": 60
    },
    {
      "midi": 45,
      "hit": false,
      "t": 217266.66666666637,
      "d": 3583.333333333343,
      "v": 83
    },
    {
      "midi": 60,
      "hit": false,
      "t": 217283.33333333302,
      "d": 1350,
      "v": 88
    },
    {
      "midi": 64,
      "hit": false,
      "t": 217283.33333333302,
      "d": 1616.666666666686,
      "v": 88
    },
    {
      "midi": 57,
      "hit": false,
      "t": 217299.99999999968,
      "d": 1150,
      "v": 91
    },
    {
      "midi": 59,
      "hit": false,
      "t": 218716.66666666637,
      "d": 250,
      "v": 55
    },
    {
      "midi": 60,
      "hit": false,
      "t": 218933.33333333302,
      "d": 216.66666666668607,
      "v": 56
    },
    {
      "midi": 33,
      "hit": false,
      "t": 219199.9999999997,
      "d": 1883.333333333343,
      "v": 80
    },
    {
      "midi": 60,
      "hit": false,
      "t": 219199.9999999997,
      "d": 1900,
      "v": 64
    },
    {
      "midi": 64,
      "hit": false,
      "t": 219216.66666666637,
      "d": 1083.333333333343,
      "v": 68
    },
    {
      "midi": 69,
      "hit": false,
      "t": 219216.66666666637,
      "d": 1800,
      "v": 78
    },
    {
      "midi": 57,
      "hit": false,
      "t": 219216.66666666637,
      "d": 1833.333333333343,
      "v": 71
    },
    {
      "midi": 57,
      "hit": false,
      "t": 221099.9999999997,
      "d": 833.3333333333139,
      "v": 83
    },
    {
      "midi": 60,
      "hit": false,
      "t": 221099.9999999997,
      "d": 999.9999999999709,
      "v": 85
    },
    {
      "midi": 41,
      "hit": false,
      "t": 221099.9999999997,
      "d": 1349.999999999971,
      "v": 91
    },
    {
      "midi": 53,
      "hit": false,
      "t": 222083.33333333302,
      "d": 300,
      "v": 68
    },
    {
      "midi": 69,
      "hit": false,
      "t": 222299.99999999968,
      "d": 216.66666666665697,
      "v": 96
    },
    {
      "midi": 60,
      "hit": false,
      "t": 222299.99999999968,
      "d": 433.33333333331393,
      "v": 96
    },
    {
      "midi": 65,
      "hit": false,
      "t": 222299.99999999968,
      "d": 433.33333333331393,
      "v": 93
    },
    {
      "midi": 50,
      "hit": false,
      "t": 222783.333333333,
      "d": 83.33333333334303,
      "v": 47
    },
    {
      "midi": 59,
      "hit": false,
      "t": 223016.66666666634,
      "d": 833.3333333333139,
      "v": 93
    },
    {
      "midi": 67,
      "hit": false,
      "t": 223016.66666666634,
      "d": 833.3333333333139,
      "v": 96
    },
    {
      "midi": 43,
      "hit": false,
      "t": 223016.66666666634,
      "d": 1233.333333333314,
      "v": 97
    },
    {
      "midi": 62,
      "hit": false,
      "t": 223016.66666666634,
      "d": 1349.999999999971,
      "v": 93
    },
    {
      "midi": 59,
      "hit": false,
      "t": 223966.6666666663,
      "d": 333.33333333334303,
      "v": 47
    },
    {
      "midi": 67,
      "hit": false,
      "t": 223966.6666666663,
      "d": 400,
      "v": 28
    },
    {
      "midi": 59,
      "hit": false,
      "t": 224499.99999999965,
      "d": 116.66666666665697,
      "v": 66
    },
    {
      "midi": 67,
      "hit": false,
      "t": 224499.99999999965,
      "d": 133.33333333331393,
      "v": 64
    },
    {
      "midi": 62,
      "hit": false,
      "t": 224699.99999999962,
      "d": 150.0000000000291,
      "v": 69
    },
    {
      "midi": 45,
      "hit": false,
      "t": 224733.33333333296,
      "d": 83.33333333334303,
      "v": 33
    },
    {
      "midi": 66,
      "hit": false,
      "t": 224933.333333333,
      "d": 916.6666666666279,
      "v": 88
    },
    {
      "midi": 57,
      "hit": false,
      "t": 224949.99999999965,
      "d": 866.666666666657,
      "v": 96
    },
    {
      "midi": 62,
      "hit": false,
      "t": 224949.99999999965,
      "d": 883.3333333333139,
      "v": 85
    },
    {
      "midi": 38,
      "hit": false,
      "t": 224966.6666666663,
      "d": 1533.3333333332848,
      "v": 88
    },
    {
      "midi": 50,
      "hit": false,
      "t": 224966.6666666663,
      "d": 1799.9999999999418,
      "v": 83
    },
    {
      "midi": 57,
      "hit": false,
      "t": 225933.33333333296,
      "d": 316.66666666665697,
      "v": 62
    },
    {
      "midi": 62,
      "hit": false,
      "t": 225933.33333333296,
      "d": 433.33333333331393,
      "v": 71
    },
    {
      "midi": 66,
      "hit": false,
      "t": 225933.33333333296,
      "d": 583.3333333332848,
      "v": 65
    },
    {
      "midi": 62,
      "hit": false,
      "t": 226416.66666666628,
      "d": 66.66666666665697,
      "v": 33
    },
    {
      "midi": 57,
      "hit": false,
      "t": 226433.33333333294,
      "d": 133.33333333331393,
      "v": 64
    },
    {
      "midi": 38,
      "hit": false,
      "t": 226666.66666666625,
      "d": 200,
      "v": 83
    },
    {
      "midi": 59,
      "hit": false,
      "t": 226899.9999999996,
      "d": 616.666666666657,
      "v": 88
    },
    {
      "midi": 57,
      "hit": false,
      "t": 226899.9999999996,
      "d": 800,
      "v": 88
    },
    {
      "midi": 64,
      "hit": false,
      "t": 226899.9999999996,
      "d": 933.333333333343,
      "v": 85
    },
    {
      "midi": 40,
      "hit": false,
      "t": 226899.9999999996,
      "d": 1499.999999999971,
      "v": 96
    },
    {
      "midi": 52,
      "hit": false,
      "t": 227849.9999999996,
      "d": 716.666666666657,
      "v": 59
    },
    {
      "midi": 59,
      "hit": false,
      "t": 228099.9999999996,
      "d": 33.33333333331393,
      "v": 44
    },
    {
      "midi": 64,
      "hit": false,
      "t": 228099.9999999996,
      "d": 49.999999999970896,
      "v": 60
    },
    {
      "midi": 57,
      "hit": false,
      "t": 228116.66666666625,
      "d": 33.33333333331393,
      "v": 37
    },
    {
      "midi": 57,
      "hit": false,
      "t": 228333.3333333329,
      "d": 200,
      "v": 76
    },
    {
      "midi": 59,
      "hit": false,
      "t": 228333.3333333329,
      "d": 233.33333333334303,
      "v": 85
    },
    {
      "midi": 64,
      "hit": false,
      "t": 228333.3333333329,
      "d": 283.33333333334303,
      "v": 80
    },
    {
      "midi": 40,
      "hit": false,
      "t": 228583.3333333329,
      "d": 150,
      "v": 71
    },
    {
      "midi": 60,
      "hit": false,
      "t": 228833.3333333329,
      "d": 550,
      "v": 91
    },
    {
      "midi": 64,
      "hit": false,
      "t": 228833.3333333329,
      "d": 583.333333333343,
      "v": 91
    },
    {
      "midi": 57,
      "hit": false,
      "t": 228833.3333333329,
      "d": 683.333333333343,
      "v": 91
    },
    {
      "midi": 45,
      "hit": false,
      "t": 228833.3333333329,
      "d": 1450.000000000029,
      "v": 88
    },
    {
      "midi": 69,
      "hit": false,
      "t": 229766.66666666625,
      "d": 483.33333333334303,
      "v": 93
    },
    {
      "midi": 60,
      "hit": false,
      "t": 229766.66666666625,
      "d": 566.6666666666861,
      "v": 85
    },
    {
      "midi": 64,
      "hit": false,
      "t": 229766.66666666625,
      "d": 600.0000000000291,
      "v": 85
    },
    {
      "midi": 57,
      "hit": false,
      "t": 230249.9999999996,
      "d": 83.33333333334303,
      "v": 64
    },
    {
      "midi": 45,
      "hit": false,
      "t": 230499.99999999962,
      "d": 116.66666666665697,
      "v": 74
    },
    {
      "midi": 67,
      "hit": false,
      "t": 230749.9999999996,
      "d": 683.3333333333139,
      "v": 93
    },
    {
      "midi": 59,
      "hit": false,
      "t": 230749.9999999996,
      "d": 833.3333333333139,
      "v": 93
    },
    {
      "midi": 62,
      "hit": false,
      "t": 230749.9999999996,
      "d": 849.9999999999709,
      "v": 93
    },
    {
      "midi": 47,
      "hit": false,
      "t": 230766.66666666625,
      "d": 1266.666666666657,
      "v": 88
    },
    {
      "midi": 55,
      "hit": false,
      "t": 231699.99999999956,
      "d": 366.66666666668607,
      "v": 74
    },
    {
      "midi": 59,
      "hit": false,
      "t": 231699.99999999956,
      "d": 450.0000000000291,
      "v": 74
    },
    {
      "midi": 62,
      "hit": false,
      "t": 231699.99999999956,
      "d": 516.6666666667152,
      "v": 78
    },
    {
      "midi": 67,
      "hit": false,
      "t": 232183.33333333294,
      "d": 150,
      "v": 51
    },
    {
      "midi": 43,
      "hit": false,
      "t": 232416.66666666628,
      "d": 150,
      "v": 61
    },
    {
      "midi": 55,
      "hit": false,
      "t": 232649.99999999962,
      "d": 433.33333333331393,
      "v": 96
    },
    {
      "midi": 60,
      "hit": false,
      "t": 232649.99999999962,
      "d": 483.33333333331393,
      "v": 88
    },
    {
      "midi": 64,
      "hit": false,
      "t": 232649.99999999962,
      "d": 516.666666666657,
      "v": 85
    },
    {
      "midi": 36,
      "hit": false,
      "t": 232649.99999999962,
      "d": 1033.3333333332557,
      "v": 83
    },
    {
      "midi": 48,
      "hit": false,
      "t": 232666.66666666628,
      "d": 683.3333333333139,
      "v": 83
    },
    {
      "midi": 64,
      "hit": false,
      "t": 233266.66666666628,
      "d": 116.66666666662786,
      "v": 46
    },
    {
      "midi": 60,
      "hit": false,
      "t": 233283.33333333294,
      "d": 83.33333333331393,
      "v": 46
    },
    {
      "midi": 67,
      "hit": false,
      "t": 233283.33333333294,
      "d": 116.66666666662786,
      "v": 52
    },
    {
      "midi": 60,
      "hit": false,
      "t": 233566.66666666622,
      "d": 550,
      "v": 93
    },
    {
      "midi": 64,
      "hit": false,
      "t": 233566.66666666622,
      "d": 550,
      "v": 96
    },
    {
      "midi": 67,
      "hit": false,
      "t": 233566.66666666622,
      "d": 566.666666666657,
      "v": 93
    },
    {
      "midi": 48,
      "hit": false,
      "t": 233583.33333333288,
      "d": 200,
      "v": 72
    },
    {
      "midi": 55,
      "hit": false,
      "t": 234033.33333333288,
      "d": 50,
      "v": 71
    },
    {
      "midi": 47,
      "hit": false,
      "t": 234299.99999999953,
      "d": 150,
      "v": 64
    },
    {
      "midi": 59,
      "hit": false,
      "t": 234549.99999999953,
      "d": 116.66666666668607,
      "v": 96
    },
    {
      "midi": 64,
      "hit": false,
      "t": 234549.99999999953,
      "d": 166.66666666668607,
      "v": 85
    },
    {
      "midi": 68,
      "hit": false,
      "t": 234549.99999999953,
      "d": 183.33333333334303,
      "v": 79
    },
    {
      "midi": 52,
      "hit": false,
      "t": 234549.99999999953,
      "d": 316.66666666668607,
      "v": 80
    },
    {
      "midi": 40,
      "hit": false,
      "t": 234549.99999999953,
      "d": 1616.6666666667152,
      "v": 88
    },
    {
      "midi": 64,
      "hit": false,
      "t": 234999.99999999956,
      "d": 50,
      "v": 66
    },
    {
      "midi": 64,
      "hit": false,
      "t": 235249.99999999956,
      "d": 83.33333333334303,
      "v": 80
    },
    {
      "midi": 68,
      "hit": false,
      "t": 235249.99999999956,
      "d": 83.33333333334303,
      "v": 71
    },
    {
      "midi": 71,
      "hit": false,
      "t": 235249.99999999956,
      "d": 83.33333333334303,
      "v": 74
    },
    {
      "midi": 76,
      "hit": false,
      "t": 235249.99999999956,
      "d": 83.33333333334303,
      "v": 78
    },
    {
      "midi": 52,
      "hit": false,
      "t": 235516.66666666625,
      "d": 200,
      "v": 85
    },
    {
      "midi": 64,
      "hit": false,
      "t": 235516.66666666625,
      "d": 300,
      "v": 97
    },
    {
      "midi": 76,
      "hit": false,
      "t": 235516.66666666625,
      "d": 333.33333333334303,
      "v": 91
    },
    {
      "midi": 68,
      "hit": false,
      "t": 235516.66666666625,
      "d": 450,
      "v": 99
    },
    {
      "midi": 71,
      "hit": false,
      "t": 235516.66666666625,
      "d": 483.33333333334303,
      "v": 96
    },
    {
      "midi": 64,
      "hit": false,
      "t": 236033.33333333294,
      "d": 66.66666666665697,
      "v": 83
    },
    {
      "midi": 52,
      "hit": false,
      "t": 236249.9999999996,
      "d": 133.33333333334303,
      "v": 80
    },
    {
      "midi": 60,
      "hit": false,
      "t": 236499.9999999996,
      "d": 366.66666666665697,
      "v": 85
    },
    {
      "midi": 64,
      "hit": false,
      "t": 236499.9999999996,
      "d": 599.9999999999709,
      "v": 91
    },
    {
      "midi": 69,
      "hit": false,
      "t": 236516.66666666625,
      "d": 799.9999999999709,
      "v": 96
    },
    {
      "midi": 45,
      "hit": false,
      "t": 236533.3333333329,
      "d": 1799.999999999971,
      "v": 96
    },
    {
      "midi": 60,
      "hit": false,
      "t": 236983.3333333329,
      "d": 116.66666666665697,
      "v": 32
    },
    {
      "midi": 64,
      "hit": false,
      "t": 237216.66666666622,
      "d": 150,
      "v": 55
    },
    {
      "midi": 60,
      "hit": false,
      "t": 237233.33333333288,
      "d": 100,
      "v": 44
    },
    {
      "midi": 60,
      "hit": false,
      "t": 237466.66666666622,
      "d": 316.66666666665697,
      "v": 80
    },
    {
      "midi": 64,
      "hit": false,
      "t": 237466.66666666622,
      "d": 550,
      "v": 85
    },
    {
      "midi": 69,
      "hit": false,
      "t": 237466.66666666622,
      "d": 550,
      "v": 91
    },
    {
      "midi": 60,
      "hit": false,
      "t": 237966.66666666622,
      "d": 66.66666666665697,
      "v": 51
    },
    {
      "midi": 71,
      "hit": false,
      "t": 238433.33333333288,
      "d": 350,
      "v": 88
    },
    {
      "midi": 62,
      "hit": false,
      "t": 238433.33333333288,
      "d": 466.66666666665697,
      "v": 93
    },
    {
      "midi": 67,
      "hit": false,
      "t": 238433.33333333288,
      "d": 549.9999999999709,
      "v": 85
    },
    {
      "midi": 43,
      "hit": false,
      "t": 238433.33333333288,
      "d": 1733.333333333314,
      "v": 96
    },
    {
      "midi": 59,
      "hit": false,
      "t": 238883.33333333288,
      "d": 83.33333333331393,
      "v": 50
    },
    {
      "midi": 62,
      "hit": false,
      "t": 239099.9999999995,
      "d": 83.33333333334303,
      "v": 66
    },
    {
      "midi": 62,
      "hit": false,
      "t": 239383.33333333285,
      "d": 283.33333333334303,
      "v": 91
    },
    {
      "midi": 67,
      "hit": false,
      "t": 239383.33333333285,
      "d": 566.6666666666861,
      "v": 91
    },
    {
      "midi": 59,
      "hit": false,
      "t": 239383.33333333285,
      "d": 633.333333333343,
      "v": 96
    },
    {
      "midi": 62,
      "hit": false,
      "t": 239866.6666666662,
      "d": 250,
      "v": 83
    },
    {
      "midi": 64,
      "hit": false,
      "t": 240116.6666666662,
      "d": 150,
      "v": 76
    },
    {
      "midi": 45,
      "hit": false,
      "t": 240116.6666666662,
      "d": 166.66666666665697,
      "v": 61
    },
    {
      "midi": 38,
      "hit": false,
      "t": 240349.99999999953,
      "d": 1683.3333333332557,
      "v": 83
    },
    {
      "midi": 62,
      "hit": false,
      "t": 240366.6666666662,
      "d": 333.33333333331393,
      "v": 83
    },
    {
      "midi": 57,
      "hit": false,
      "t": 240366.6666666662,
      "d": 716.6666666666279,
      "v": 88
    },
    {
      "midi": 66,
      "hit": false,
      "t": 240366.6666666662,
      "d": 716.6666666666279,
      "v": 92
    },
    {
      "midi": 50,
      "hit": false,
      "t": 240366.6666666662,
      "d": 1616.6666666665988,
      "v": 80
    },
    {
      "midi": 62,
      "hit": false,
      "t": 241066.66666666616,
      "d": 133.33333333331393,
      "v": 64
    },
    {
      "midi": 69,
      "hit": false,
      "t": 241316.66666666613,
      "d": 650,
      "v": 93
    },
    {
      "midi": 66,
      "hit": false,
      "t": 241316.66666666613,
      "d": 849.9999999999709,
      "v": 88
    },
    {
      "midi": 62,
      "hit": false,
      "t": 241316.66666666613,
      "d": 883.3333333333139,
      "v": 85
    },
    {
      "midi": 57,
      "hit": false,
      "t": 241783.3333333328,
      "d": 183.33333333334303,
      "v": 74
    },
    {
      "midi": 45,
      "hit": false,
      "t": 242049.99999999945,
      "d": 200,
      "v": 61
    },
    {
      "midi": 64,
      "hit": false,
      "t": 242266.6666666661,
      "d": 850,
      "v": 80
    },
    {
      "midi": 59,
      "hit": false,
      "t": 242283.33333333276,
      "d": 500,
      "v": 85
    },
    {
      "midi": 40,
      "hit": false,
      "t": 242283.33333333276,
      "d": 1516.666666666686,
      "v": 83
    },
    {
      "midi": 52,
      "hit": false,
      "t": 242283.33333333276,
      "d": 1866.666666666657,
      "v": 83
    },
    {
      "midi": 59,
      "hit": false,
      "t": 242983.33333333276,
      "d": 100,
      "v": 48
    },
    {
      "midi": 59,
      "hit": false,
      "t": 243233.33333333276,
      "d": 383.33333333334303,
      "v": 71
    },
    {
      "midi": 67,
      "hit": false,
      "t": 243233.33333333276,
      "d": 616.6666666666861,
      "v": 78
    },
    {
      "midi": 64,
      "hit": false,
      "t": 243233.33333333276,
      "d": 633.333333333343,
      "v": 76
    },
    {
      "midi": 59,
      "hit": false,
      "t": 243716.6666666661,
      "d": 133.33333333334303,
      "v": 61
    },
    {
      "midi": 40,
      "hit": false,
      "t": 243983.33333333276,
      "d": 116.66666666665697,
      "v": 64
    },
    {
      "midi": 69,
      "hit": false,
      "t": 244216.66666666607,
      "d": 783.3333333333139,
      "v": 96
    },
    {
      "midi": 60,
      "hit": false,
      "t": 244216.66666666607,
      "d": 833.3333333333139,
      "v": 91
    },
    {
      "midi": 65,
      "hit": false,
      "t": 244216.66666666607,
      "d": 833.3333333333139,
      "v": 83
    },
    {
      "midi": 41,
      "hit": false,
      "t": 244216.66666666607,
      "d": 1833.3333333332848,
      "v": 91
    },
    {
      "midi": 69,
      "hit": false,
      "t": 245166.66666666605,
      "d": 516.666666666657,
      "v": 80
    },
    {
      "midi": 60,
      "hit": false,
      "t": 245183.3333333327,
      "d": 683.333333333343,
      "v": 72
    },
    {
      "midi": 57,
      "hit": false,
      "t": 245599.99999999936,
      "d": 133.33333333334303,
      "v": 64
    },
    {
      "midi": 65,
      "hit": false,
      "t": 245833.3333333327,
      "d": 150,
      "v": 64
    },
    {
      "midi": 67,
      "hit": false,
      "t": 246133.33333333267,
      "d": 883.3333333333139,
      "v": 88
    },
    {
      "midi": 59,
      "hit": false,
      "t": 246133.33333333267,
      "d": 899.9999999999709,
      "v": 88
    },
    {
      "midi": 62,
      "hit": false,
      "t": 246133.33333333267,
      "d": 916.6666666666279,
      "v": 83
    },
    {
      "midi": 64,
      "hit": false,
      "t": 246133.33333333267,
      "d": 1633.3333333332848,
      "v": 85
    },
    {
      "midi": 40,
      "hit": false,
      "t": 246133.33333333267,
      "d": 1966.6666666665988,
      "v": 80
    },
    {
      "midi": 52,
      "hit": false,
      "t": 246149.99999999933,
      "d": 1866.6666666666279,
      "v": 83
    },
    {
      "midi": 67,
      "hit": false,
      "t": 247083.33333333264,
      "d": 866.666666666657,
      "v": 48
    },
    {
      "midi": 62,
      "hit": false,
      "t": 247099.9999999993,
      "d": 666.666666666657,
      "v": 62
    },
    {
      "midi": 59,
      "hit": false,
      "t": 247099.9999999993,
      "d": 700,
      "v": 60
    },
    {
      "midi": 45,
      "hit": false,
      "t": 248033.33333333262,
      "d": 3583.333333333343,
      "v": 83
    },
    {
      "midi": 57,
      "hit": false,
      "t": 248049.99999999927,
      "d": 1166.666666666657,
      "v": 91
    },
    {
      "midi": 60,
      "hit": false,
      "t": 248049.99999999927,
      "d": 1350,
      "v": 88
    },
    {
      "midi": 64,
      "hit": false,
      "t": 248049.99999999927,
      "d": 1600,
      "v": 88
    },
    {
      "midi": 59,
      "hit": false,
      "t": 249483.33333333262,
      "d": 233.33333333334303,
      "v": 55
    },
    {
      "midi": 60,
      "hit": false,
      "t": 249683.33333333262,
      "d": 233.33333333334303,
      "v": 56
    },
    {
      "midi": 33,
      "hit": false,
      "t": 249966.66666666596,
      "d": 1883.333333333314,
      "v": 80
    },
    {
      "midi": 60,
      "hit": false,
      "t": 249966.66666666596,
      "d": 1899.999999999971,
      "v": 64
    },
    {
      "midi": 64,
      "hit": false,
      "t": 249983.33333333262,
      "d": 1083.333333333343,
      "v": 68
    },
    {
      "midi": 69,
      "hit": false,
      "t": 249983.33333333262,
      "d": 1800,
      "v": 78
    },
    {
      "midi": 57,
      "hit": false,
      "t": 249983.33333333262,
      "d": 1816.666666666657,
      "v": 71
    },
    {
      "midi": 45,
      "hit": false,
      "t": 251933.3333333326,
      "d": 1483.3333333332848,
      "v": 88
    },
    {
      "midi": 64,
      "hit": false,
      "t": 251949.99999999924,
      "d": 533.333333333343,
      "v": 91
    },
    {
      "midi": 60,
      "hit": false,
      "t": 251949.99999999924,
      "d": 733.333333333343,
      "v": 83
    },
    {
      "midi": 69,
      "hit": false,
      "t": 251949.99999999924,
      "d": 800,
      "v": 93
    },
    {
      "midi": 57,
      "hit": false,
      "t": 252816.6666666659,
      "d": 450,
      "v": 66
    },
    {
      "midi": 72,
      "hit": false,
      "t": 253316.6666666659,
      "d": 66.66666666665697,
      "v": 44
    },
    {
      "midi": 64,
      "hit": false,
      "t": 253316.6666666659,
      "d": 83.33333333331393,
      "v": 52
    },
    {
      "midi": 60,
      "hit": false,
      "t": 253533.33333333253,
      "d": 50,
      "v": 39
    },
    {
      "midi": 57,
      "hit": false,
      "t": 253533.33333333253,
      "d": 83.33333333334303,
      "v": 72
    },
    {
      "midi": 43,
      "hit": false,
      "t": 253766.66666666587,
      "d": 999.9999999999709,
      "v": 88
    },
    {
      "midi": 71,
      "hit": false,
      "t": 253783.33333333253,
      "d": 300,
      "v": 85
    },
    {
      "midi": 62,
      "hit": false,
      "t": 253783.33333333253,
      "d": 999.9999999999709,
      "v": 91
    },
    {
      "midi": 55,
      "hit": false,
      "t": 254033.33333333253,
      "d": 116.66666666665697,
      "v": 60
    },
    {
      "midi": 59,
      "hit": false,
      "t": 254733.33333333253,
      "d": 483.3333333332848,
      "v": 85
    },
    {
      "midi": 67,
      "hit": false,
      "t": 254733.33333333253,
      "d": 616.6666666666279,
      "v": 88
    },
    {
      "midi": 55,
      "hit": false,
      "t": 254749.99999999919,
      "d": 149.9999999999709,
      "v": 71
    },
    {
      "midi": 62,
      "hit": false,
      "t": 255249.99999999916,
      "d": 100,
      "v": 51
    },
    {
      "midi": 54,
      "hit": false,
      "t": 255416.6666666658,
      "d": 133.33333333334303,
      "v": 65
    },
    {
      "midi": 50,
      "hit": false,
      "t": 255683.3333333325,
      "d": 1733.333333333314,
      "v": 88
    },
    {
      "midi": 62,
      "hit": false,
      "t": 255699.99999999916,
      "d": 866.666666666657,
      "v": 80
    },
    {
      "midi": 66,
      "hit": false,
      "t": 255699.99999999916,
      "d": 866.666666666657,
      "v": 88
    },
    {
      "midi": 54,
      "hit": false,
      "t": 256183.33333333247,
      "d": 883.333333333343,
      "v": 62
    },
    {
      "midi": 69,
      "hit": false,
      "t": 256666.6666666658,
      "d": 516.666666666657,
      "v": 83
    },
    {
      "midi": 66,
      "hit": false,
      "t": 256666.6666666658,
      "d": 650,
      "v": 79
    },
    {
      "midi": 62,
      "hit": false,
      "t": 256666.6666666658,
      "d": 716.666666666657,
      "v": 76
    },
    {
      "midi": 57,
      "hit": false,
      "t": 257133.33333333247,
      "d": 150,
      "v": 55
    },
    {
      "midi": 54,
      "hit": false,
      "t": 257366.6666666658,
      "d": 133.33333333334303,
      "v": 60
    },
    {
      "midi": 59,
      "hit": false,
      "t": 257616.6666666658,
      "d": 333.33333333334303,
      "v": 83
    },
    {
      "midi": 64,
      "hit": false,
      "t": 257616.6666666658,
      "d": 450,
      "v": 80
    },
    {
      "midi": 67,
      "hit": false,
      "t": 257616.6666666658,
      "d": 566.666666666657,
      "v": 85
    },
    {
      "midi": 52,
      "hit": false,
      "t": 257649.99999999916,
      "d": 1549.9999999999418,
      "v": 91
    },
    {
      "midi": 55,
      "hit": false,
      "t": 258133.33333333247,
      "d": 166.66666666665697,
      "v": 43
    },
    {
      "midi": 64,
      "hit": false,
      "t": 258316.66666666578,
      "d": 100,
      "v": 39
    },
    {
      "midi": 71,
      "hit": false,
      "t": 258583.33333333244,
      "d": 483.33333333334303,
      "v": 85
    },
    {
      "midi": 64,
      "hit": false,
      "t": 258583.33333333244,
      "d": 633.3333333333139,
      "v": 88
    },
    {
      "midi": 67,
      "hit": false,
      "t": 259083.33333333244,
      "d": 283.33333333331393,
      "v": 57
    },
    {
      "midi": 60,
      "hit": false,
      "t": 259566.66666666575,
      "d": 216.66666666668607,
      "v": 71
    },
    {
      "midi": 65,
      "hit": false,
      "t": 259566.66666666575,
      "d": 283.33333333334303,
      "v": 76
    },
    {
      "midi": 69,
      "hit": false,
      "t": 259566.66666666575,
      "d": 316.66666666668607,
      "v": 88
    },
    {
      "midi": 53,
      "hit": false,
      "t": 259566.66666666575,
      "d": 1283.333333333314,
      "v": 85
    },
    {
      "midi": 57,
      "hit": false,
      "t": 260033.33333333244,
      "d": 733.3333333333139,
      "v": 60
    },
    {
      "midi": 67,
      "hit": false,
      "t": 260249.9999999991,
      "d": 216.66666666665697,
      "v": 50
    },
    {
      "midi": 69,
      "hit": false,
      "t": 260533.3333333324,
      "d": 250,
      "v": 85
    },
    {
      "midi": 60,
      "hit": false,
      "t": 260566.66666666575,
      "d": 83.33333333334303,
      "v": 25
    },
    {
      "midi": 72,
      "hit": false,
      "t": 260749.9999999991,
      "d": 516.666666666657,
      "v": 78
    },
    {
      "midi": 77,
      "hit": false,
      "t": 261033.3333333324,
      "d": 150,
      "v": 72
    },
    {
      "midi": 52,
      "hit": false,
      "t": 261333.3333333324,
      "d": 1400.000000000029,
      "v": 76
    },
    {
      "midi": 59,
      "hit": false,
      "t": 261416.66666666573,
      "d": 950.0000000000291,
      "v": 74
    },
    {
      "midi": 64,
      "hit": false,
      "t": 261516.66666666573,
      "d": 533.333333333343,
      "v": 80
    },
    {
      "midi": 67,
      "hit": false,
      "t": 261599.99999999907,
      "d": 1633.3333333333721,
      "v": 64
    },
    {
      "midi": 71,
      "hit": false,
      "t": 261633.3333333324,
      "d": 1500.000000000029,
      "v": 85
    },
    {
      "midi": 76,
      "hit": false,
      "t": 261749.99999999907,
      "d": 1483.3333333333721,
      "v": 91
    },
    {
      "midi": 64,
      "hit": false,
      "t": 267249.9999999991,
      "d": 1266.666666666686,
      "v": 85
    },
    {
      "midi": 45,
      "hit": false,
      "t": 267249.9999999991,
      "d": 1416.666666666686,
      "v": 91
    },
    {
      "midi": 57,
      "hit": false,
      "t": 267266.6666666658,
      "d": 833.3333333333139,
      "v": 93
    },
    {
      "midi": 60,
      "hit": false,
      "t": 267266.6666666658,
      "d": 900,
      "v": 88
    },
    {
      "midi": 60,
      "hit": false,
      "t": 268233.3333333325,
      "d": 150,
      "v": 20
    },
    {
      "midi": 64,
      "hit": false,
      "t": 268683.3333333325,
      "d": 116.66666666668607,
      "v": 59
    },
    {
      "midi": 57,
      "hit": false,
      "t": 268716.6666666658,
      "d": 50,
      "v": 24
    },
    {
      "midi": 60,
      "hit": false,
      "t": 268716.6666666658,
      "d": 66.66666666668607,
      "v": 49
    },
    {
      "midi": 52,
      "hit": false,
      "t": 268949.9999999992,
      "d": 166.66666666668607,
      "v": 40
    },
    {
      "midi": 59,
      "hit": false,
      "t": 269149.9999999992,
      "d": 1350,
      "v": 83
    },
    {
      "midi": 67,
      "hit": false,
      "t": 269149.9999999992,
      "d": 1366.666666666686,
      "v": 88
    },
    {
      "midi": 62,
      "hit": false,
      "t": 269149.9999999992,
      "d": 1383.3333333333721,
      "v": 85
    },
    {
      "midi": 45,
      "hit": false,
      "t": 269149.9999999992,
      "d": 1533.3333333333721,
      "v": 76
    },
    {
      "midi": 55,
      "hit": false,
      "t": 269149.9999999992,
      "d": 1566.666666666686,
      "v": 78
    },
    {
      "midi": 67,
      "hit": false,
      "t": 270616.6666666659,
      "d": 100,
      "v": 50
    },
    {
      "midi": 59,
      "hit": false,
      "t": 270616.6666666659,
      "d": 116.66666666668607,
      "v": 44
    },
    {
      "midi": 62,
      "hit": false,
      "t": 270616.6666666659,
      "d": 233.33333333337214,
      "v": 56
    },
    {
      "midi": 57,
      "hit": false,
      "t": 271083.3333333326,
      "d": 316.66666666668607,
      "v": 80
    },
    {
      "midi": 60,
      "hit": false,
      "t": 271083.3333333326,
      "d": 383.33333333337214,
      "v": 78
    },
    {
      "midi": 65,
      "hit": false,
      "t": 271083.3333333326,
      "d": 483.33333333337214,
      "v": 76
    },
    {
      "midi": 53,
      "hit": false,
      "t": 271099.9999999993,
      "d": 633.3333333333721,
      "v": 69
    },
    {
      "midi": 45,
      "hit": false,
      "t": 271099.9999999993,
      "d": 1600.0000000000582,
      "v": 80
    },
    {
      "midi": 69,
      "hit": false,
      "t": 272066.666666666,
      "d": 550,
      "v": 91
    },
    {
      "midi": 60,
      "hit": false,
      "t": 272066.666666666,
      "d": 616.6666666666861,
      "v": 78
    },
    {
      "midi": 65,
      "hit": false,
      "t": 272066.666666666,
      "d": 650.0000000000582,
      "v": 76
    },
    {
      "midi": 57,
      "hit": false,
      "t": 273033.33333333273,
      "d": 683.3333333333721,
      "v": 80
    },
    {
      "midi": 64,
      "hit": false,
      "t": 273033.33333333273,
      "d": 866.6666666667443,
      "v": 74
    },
    {
      "midi": 60,
      "hit": false,
      "t": 273049.9999999994,
      "d": 833.3333333333721,
      "v": 78
    },
    {
      "midi": 45,
      "hit": false,
      "t": 273049.9999999994,
      "d": 1500.0000000001164,
      "v": 83
    },
    {
      "midi": 52,
      "hit": false,
      "t": 274299.9999999995,
      "d": 2233.3333333334303,
      "v": 48
    },
    {
      "midi": 71,
      "hit": false,
      "t": 274466.66666666616,
      "d": 216.66666666668607,
      "v": 88
    },
    {
      "midi": 62,
      "hit": false,
      "t": 274483.33333333285,
      "d": 166.66666666668607,
      "v": 83
    },
    {
      "midi": 72,
      "hit": false,
      "t": 274699.99999999953,
      "d": 166.66666666668607,
      "v": 76
    },
    {
      "midi": 64,
      "hit": false,
      "t": 274699.99999999953,
      "d": 1233.3333333333721,
      "v": 76
    },
    {
      "midi": 69,
      "hit": false,
      "t": 274949.99999999953,
      "d": 1433.3333333333721,
      "v": 85
    },
    {
      "midi": 60,
      "hit": false,
      "t": 274966.6666666662,
      "d": 1033.3333333333721,
      "v": 88
    },
    {
      "midi": 45,
      "hit": false,
      "t": 274966.6666666662,
      "d": 1566.666666666686,
      "v": 80
    },
    {
      "midi": 57,
      "hit": false,
      "t": 275933.3333333329,
      "d": 366.66666666668607,
      "v": 49
    },
    {
      "midi": 64,
      "hit": false,
      "t": 276416.6666666662,
      "d": 166.66666666668607,
      "v": 53
    },
    {
      "midi": 69,
      "hit": false,
      "t": 276649.9999999996,
      "d": 150,
      "v": 71
    },
    {
      "midi": 59,
      "hit": false,
      "t": 276883.3333333329,
      "d": 666.6666666666861,
      "v": 91
    },
    {
      "midi": 43,
      "hit": false,
      "t": 276883.3333333329,
      "d": 1400.0000000000582,
      "v": 91
    },
    {
      "midi": 62,
      "hit": false,
      "t": 276899.9999999996,
      "d": 400,
      "v": 93
    },
    {
      "midi": 67,
      "hit": false,
      "t": 276899.9999999996,
      "d": 666.6666666666861,
      "v": 93
    },
    {
      "midi": 62,
      "hit": false,
      "t": 277549.9999999996,
      "d": 83.33333333337214,
      "v": 49
    },
    {
      "midi": 71,
      "hit": false,
      "t": 277816.6666666663,
      "d": 350,
      "v": 78
    },
    {
      "midi": 62,
      "hit": false,
      "t": 277816.6666666663,
      "d": 466.66666666668607,
      "v": 78
    },
    {
      "midi": 67,
      "hit": false,
      "t": 277816.6666666663,
      "d": 500,
      "v": 78
    },
    {
      "midi": 59,
      "hit": false,
      "t": 278333.33333333296,
      "d": 83.33333333331393,
      "v": 52
    },
    {
      "midi": 61,
      "hit": false,
      "t": 278516.6666666663,
      "d": 66.66666666668607,
      "v": 36
    },
    {
      "midi": 57,
      "hit": false,
      "t": 278783.33333333296,
      "d": 316.66666666668607,
      "v": 97
    },
    {
      "midi": 41,
      "hit": false,
      "t": 278783.33333333296,
      "d": 583.3333333333721,
      "v": 85
    },
    {
      "midi": 48,
      "hit": false,
      "t": 278783.33333333296,
      "d": 600.0000000000582,
      "v": 71
    },
    {
      "midi": 60,
      "hit": false,
      "t": 278783.33333333296,
      "d": 683.3333333334303,
      "v": 93
    },
    {
      "midi": 65,
      "hit": false,
      "t": 278783.33333333296,
      "d": 683.3333333334303,
      "v": 88
    },
    {
      "midi": 57,
      "hit": false,
      "t": 279266.66666666634,
      "d": 183.33333333337214,
      "v": 52
    },
    {
      "midi": 52,
      "hit": false,
      "t": 279733.3333333331,
      "d": 366.66666666668607,
      "v": 80
    },
    {
      "midi": 55,
      "hit": false,
      "t": 279733.3333333331,
      "d": 383.33333333337214,
      "v": 88
    },
    {
      "midi": 40,
      "hit": false,
      "t": 279733.3333333331,
      "d": 433.33333333337214,
      "v": 80
    },
    {
      "midi": 59,
      "hit": false,
      "t": 279733.3333333331,
      "d": 433.33333333337214,
      "v": 91
    },
    {
      "midi": 64,
      "hit": false,
      "t": 279733.3333333331,
      "d": 483.33333333337214,
      "v": 88
    },
    {
      "midi": 45,
      "hit": false,
      "t": 280766.66666666645,
      "d": 1300.0000000000582,
      "v": 99
    },
    {
      "midi": 52,
      "hit": false,
      "t": 280999.99999999977,
      "d": 1116.6666666667443,
      "v": 74
    },
    {
      "midi": 57,
      "hit": false,
      "t": 281283.3333333331,
      "d": 866.6666666667443,
      "v": 88
    },
    {
      "midi": 59,
      "hit": false,
      "t": 281499.99999999977,
      "d": 116.66666666668607,
      "v": 72
    },
    {
      "midi": 60,
      "hit": false,
      "t": 281733.33333333314,
      "d": 150,
      "v": 76
    },
    {
      "midi": 64,
      "hit": false,
      "t": 281933.33333333314,
      "d": 66.66666666668607,
      "v": 66
    },
    {
      "midi": 69,
      "hit": false,
      "t": 282283.33333333314,
      "d": 50,
      "v": 38
    },
    {
      "midi": 57,
      "hit": false,
      "t": 282683.33333333314,
      "d": 1200,
      "v": 62
    },
    {
      "midi": 60,
      "hit": false,
      "t": 282783.33333333314,
      "d": 1066.666666666686,
      "v": 61
    },
    {
      "midi": 64,
      "hit": false,
      "t": 282866.66666666645,
      "d": 966.6666666666861,
      "v": 78
    },
    {
      "midi": 81,
      "hit": false,
      "t": 283016.66666666645,
      "d": 116.66666666668607,
      "v": 55
    },
    {
      "midi": 84,
      "hit": false,
      "t": 283199.9999999998,
      "d": 33.33333333331393,
      "v": 2
    },
    {
      "midi": 88,
      "hit": false,
      "t": 283266.66666666645,
      "d": 116.66666666668607,
      "v": 56
    },
    {
      "midi": 93,
      "hit": false,
      "t": 283416.66666666645,
      "d": 66.66666666668607,
      "v": 96
    }
  ]
}