{
  "jsonPath": "Unknown/Unknown/PP Arnold/angel-of-the-morning-original.json",
  "path": "Unknown\\Unknown\\PP Arnold\\Angel Of The Morning - Original.mid",
  "name": "Angel Of The Morning - Original",
  "difficulty": "Advanced",
  "bpm": 86.00054467011624,
  "notes": [
    {
      "midi": 56,
      "hit": false,
      "t": 18920.2275,
      "d": 150.92148437500146,
      "v": 103
    },
    {
      "midi": 60,
      "hit": false,
      "t": 18920.2275,
      "d": 150.92148437500146,
      "v": 102
    },
    {
      "midi": 63,
      "hit": false,
      "t": 18920.2275,
      "d": 150.92148437500146,
      "v": 104
    },
    {
      "midi": 56,
      "hit": false,
      "t": 19090.680000000004,
      "d": 246.8010156249984,
      "v": 92
    },
    {
      "midi": 60,
      "hit": false,
      "t": 19090.680000000004,
      "d": 246.8010156249984,
      "v": 90
    },
    {
      "midi": 63,
      "hit": false,
      "t": 19090.680000000004,
      "d": 271.6586718749968,
      "v": 91
    },
    {
      "midi": 60,
      "hit": false,
      "t": 19431.585,
      "d": 37.28648437499942,
      "v": 82
    },
    {
      "midi": 63,
      "hit": false,
      "t": 19431.585,
      "d": 44.388671875,
      "v": 63
    },
    {
      "midi": 56,
      "hit": false,
      "t": 19431.585,
      "d": 58.593046875001164,
      "v": 73
    },
    {
      "midi": 63,
      "hit": false,
      "t": 19602.0375,
      "d": 47.93976562500029,
      "v": 82
    },
    {
      "midi": 60,
      "hit": false,
      "t": 19602.0375,
      "d": 58.593046875001164,
      "v": 85
    },
    {
      "midi": 56,
      "hit": false,
      "t": 19602.0375,
      "d": 65.69523437500175,
      "v": 82
    },
    {
      "midi": 56,
      "hit": false,
      "t": 19772.49,
      "d": 44.388671875,
      "v": 102
    },
    {
      "midi": 60,
      "hit": false,
      "t": 19772.49,
      "d": 44.388671875,
      "v": 98
    },
    {
      "midi": 63,
      "hit": false,
      "t": 19772.49,
      "d": 72.79742187499869,
      "v": 100
    },
    {
      "midi": 60,
      "hit": false,
      "t": 19942.9425,
      "d": 101.20617187500102,
      "v": 83
    },
    {
      "midi": 56,
      "hit": false,
      "t": 19942.9425,
      "d": 140.26820312500058,
      "v": 85
    },
    {
      "midi": 63,
      "hit": false,
      "t": 19942.9425,
      "d": 197.0857031250016,
      "v": 83
    },
    {
      "midi": 56,
      "hit": false,
      "t": 20283.847500000003,
      "d": 150.92148437500146,
      "v": 105
    },
    {
      "midi": 60,
      "hit": false,
      "t": 20283.847500000003,
      "d": 150.92148437500146,
      "v": 106
    },
    {
      "midi": 63,
      "hit": false,
      "t": 20283.847500000003,
      "d": 150.92148437500146,
      "v": 113
    },
    {
      "midi": 61,
      "hit": false,
      "t": 20454.300000000007,
      "d": 168.67695312499927,
      "v": 98
    },
    {
      "midi": 56,
      "hit": false,
      "t": 20454.300000000007,
      "d": 197.08570312499796,
      "v": 98
    },
    {
      "midi": 65,
      "hit": false,
      "t": 20454.300000000007,
      "d": 246.8010156249984,
      "v": 97
    },
    {
      "midi": 65,
      "hit": false,
      "t": 20795.205000000005,
      "d": 19.5310156250016,
      "v": 70
    },
    {
      "midi": 61,
      "hit": false,
      "t": 20795.205000000005,
      "d": 44.388671875,
      "v": 87
    },
    {
      "midi": 56,
      "hit": false,
      "t": 20795.205000000005,
      "d": 65.69523437500175,
      "v": 111
    },
    {
      "midi": 56,
      "hit": false,
      "t": 20965.65750000001,
      "d": 55.04195312500087,
      "v": 63
    },
    {
      "midi": 61,
      "hit": false,
      "t": 20965.65750000001,
      "d": 55.04195312500087,
      "v": 84
    },
    {
      "midi": 65,
      "hit": false,
      "t": 20965.65750000001,
      "d": 83.45070312499956,
      "v": 81
    },
    {
      "midi": 56,
      "hit": false,
      "t": 21136.110000000008,
      "d": 58.593046875001164,
      "v": 97
    },
    {
      "midi": 61,
      "hit": false,
      "t": 21136.110000000008,
      "d": 72.79742187500233,
      "v": 113
    },
    {
      "midi": 65,
      "hit": false,
      "t": 21136.110000000008,
      "d": 87.00179687500349,
      "v": 106
    },
    {
      "midi": 65,
      "hit": false,
      "t": 21306.56250000001,
      "d": 115.41054687499854,
      "v": 87
    },
    {
      "midi": 56,
      "hit": false,
      "t": 21306.56250000001,
      "d": 140.26820312499694,
      "v": 67
    },
    {
      "midi": 61,
      "hit": false,
      "t": 21306.56250000001,
      "d": 189.98351562499738,
      "v": 79
    },
    {
      "midi": 58,
      "hit": false,
      "t": 21647.46750000001,
      "d": 371.0892968750013,
      "v": 94
    },
    {
      "midi": 67,
      "hit": false,
      "t": 21647.46750000001,
      "d": 388.84476562500276,
      "v": 120
    },
    {
      "midi": 63,
      "hit": false,
      "t": 21647.46750000001,
      "d": 399.49804687500364,
      "v": 120
    },
    {
      "midi": 63,
      "hit": false,
      "t": 22158.82500000001,
      "d": 115.41054687499854,
      "v": 100
    },
    {
      "midi": 67,
      "hit": false,
      "t": 22158.82500000001,
      "d": 129.6149218749997,
      "v": 111
    },
    {
      "midi": 58,
      "hit": false,
      "t": 22329.27750000001,
      "d": 72.79742187499869,
      "v": 69
    },
    {
      "midi": 58,
      "hit": false,
      "t": 22499.73000000001,
      "d": 55.04195312500087,
      "v": 94
    },
    {
      "midi": 63,
      "hit": false,
      "t": 22499.73000000001,
      "d": 55.04195312500087,
      "v": 93
    },
    {
      "midi": 67,
      "hit": false,
      "t": 22499.73000000001,
      "d": 189.98351562500102,
      "v": 98
    },
    {
      "midi": 62,
      "hit": false,
      "t": 22670.18250000001,
      "d": 143.81929687500087,
      "v": 106
    },
    {
      "midi": 58,
      "hit": false,
      "t": 22670.18250000001,
      "d": 172.22804687499956,
      "v": 89
    },
    {
      "midi": 66,
      "hit": false,
      "t": 22670.18250000001,
      "d": 197.08570312499796,
      "v": 107
    },
    {
      "midi": 61,
      "hit": false,
      "t": 23011.08750000001,
      "d": 150.92148437500146,
      "v": 119
    },
    {
      "midi": 56,
      "hit": false,
      "t": 23011.08750000001,
      "d": 158.02367187500204,
      "v": 119
    },
    {
      "midi": 65,
      "hit": false,
      "t": 23011.08750000001,
      "d": 253.90320312500262,
      "v": 111
    },
    {
      "midi": 61,
      "hit": false,
      "t": 23181.54000000001,
      "d": 58.593046875001164,
      "v": 90
    },
    {
      "midi": 56,
      "hit": false,
      "t": 23224.15312500001,
      "d": 72.79742187499869,
      "v": 84
    },
    {
      "midi": 61,
      "hit": false,
      "t": 23295.17500000001,
      "d": 58.593046875001164,
      "v": 90
    },
    {
      "midi": 65,
      "hit": false,
      "t": 23298.72609375001,
      "d": 72.79742187500233,
      "v": 82
    },
    {
      "midi": 56,
      "hit": false,
      "t": 23351.99250000001,
      "d": 58.593046875001164,
      "v": 66
    },
    {
      "midi": 65,
      "hit": false,
      "t": 23423.014375000013,
      "d": 44.388671875,
      "v": 85
    },
    {
      "midi": 61,
      "hit": false,
      "t": 23423.014375000013,
      "d": 62.144140625001455,
      "v": 89
    },
    {
      "midi": 56,
      "hit": false,
      "t": 23447.87203125001,
      "d": 90.55289062500378,
      "v": 74
    },
    {
      "midi": 65,
      "hit": false,
      "t": 23554.404843750017,
      "d": 33.735390625002765,
      "v": 89
    },
    {
      "midi": 61,
      "hit": false,
      "t": 23554.404843750017,
      "d": 40.83757812500335,
      "v": 62
    },
    {
      "midi": 56,
      "hit": false,
      "t": 23572.16031250002,
      "d": 62.144140625001455,
      "v": 69
    },
    {
      "midi": 61,
      "hit": false,
      "t": 23639.63109375002,
      "d": 51.49085937500058,
      "v": 85
    },
    {
      "midi": 65,
      "hit": false,
      "t": 23650.28437500002,
      "d": 44.388671875,
      "v": 87
    },
    {
      "midi": 56,
      "hit": false,
      "t": 23692.89750000002,
      "d": 58.593046875001164,
      "v": 74
    },
    {
      "midi": 61,
      "hit": false,
      "t": 23760.368281250023,
      "d": 44.388671875,
      "v": 84
    },
    {
      "midi": 65,
      "hit": false,
      "t": 23763.919375000023,
      "d": 44.388671875,
      "v": 84
    },
    {
      "midi": 56,
      "hit": false,
      "t": 23792.328125000022,
      "d": 87.00179687500349,
      "v": 67
    },
    {
      "midi": 61,
      "hit": false,
      "t": 23866.901093750024,
      "d": 40.83757812499971,
      "v": 82
    },
    {
      "midi": 65,
      "hit": false,
      "t": 23866.901093750024,
      "d": 44.388671875,
      "v": 87
    },
    {
      "midi": 56,
      "hit": false,
      "t": 23930.820781250026,
      "d": 72.79742187500233,
      "v": 67
    },
    {
      "midi": 61,
      "hit": false,
      "t": 23987.638281250027,
      "d": 37.286484375003056,
      "v": 62
    },
    {
      "midi": 65,
      "hit": false,
      "t": 23991.189375000027,
      "d": 23.08210937500189,
      "v": 76
    },
    {
      "midi": 56,
      "hit": false,
      "t": 24062.21125000003,
      "d": 158.02367187500568,
      "v": 68
    },
    {
      "midi": 61,
      "hit": false,
      "t": 24083.51781250003,
      "d": 23.08210937500189,
      "v": 58
    },
    {
      "midi": 65,
      "hit": false,
      "t": 24094.171093750032,
      "d": 23.08210937500189,
      "v": 75
    },
    {
      "midi": 61,
      "hit": false,
      "t": 24190.050625000033,
      "d": 23.08210937500189,
      "v": 68
    },
    {
      "midi": 65,
      "hit": false,
      "t": 24197.152812500033,
      "d": 33.735390625002765,
      "v": 80
    },
    {
      "midi": 56,
      "hit": false,
      "t": 24271.725781250036,
      "d": 62.144140625001455,
      "v": 69
    },
    {
      "midi": 61,
      "hit": false,
      "t": 24289.481250000037,
      "d": 37.28648437499942,
      "v": 71
    },
    {
      "midi": 65,
      "hit": false,
      "t": 24300.134531250038,
      "d": 37.28648437499942,
      "v": 74
    },
    {
      "midi": 65,
      "hit": false,
      "t": 24378.258593750037,
      "d": 55.041953124997235,
      "v": 79
    },
    {
      "midi": 61,
      "hit": false,
      "t": 24403.116250000036,
      "d": 94.1039843749968,
      "v": 70
    },
    {
      "midi": 56,
      "hit": false,
      "t": 24406.667343750036,
      "d": 126.06382812499942,
      "v": 38
    },
    {
      "midi": 65,
      "hit": false,
      "t": 24463.484843750033,
      "d": 55.04195312500087,
      "v": 84
    },
    {
      "midi": 56,
      "hit": false,
      "t": 24545.160000000036,
      "d": 669.3811718750003,
      "v": 85
    },
    {
      "midi": 63,
      "hit": false,
      "t": 24545.160000000036,
      "d": 669.3811718750003,
      "v": 106
    },
    {
      "midi": 60,
      "hit": false,
      "t": 24545.160000000036,
      "d": 680.0344531250012,
      "v": 122
    },
    {
      "midi": 56,
      "hit": false,
      "t": 25567.875000000036,
      "d": 47.93976562500029,
      "v": 79
    },
    {
      "midi": 60,
      "hit": false,
      "t": 25567.875000000036,
      "d": 47.93976562500029,
      "v": 104
    },
    {
      "midi": 63,
      "hit": false,
      "t": 25567.875000000036,
      "d": 104.75726562500131,
      "v": 86
    },
    {
      "midi": 56,
      "hit": false,
      "t": 25908.78000000004,
      "d": 669.3811718750003,
      "v": 101
    },
    {
      "midi": 65,
      "hit": false,
      "t": 25908.78000000004,
      "d": 669.3811718750003,
      "v": 111
    },
    {
      "midi": 61,
      "hit": false,
      "t": 25908.78000000004,
      "d": 672.9322656250006,
      "v": 108
    },
    {
      "midi": 56,
      "hit": false,
      "t": 26931.49500000004,
      "d": 30.184296874998836,
      "v": 95
    },
    {
      "midi": 61,
      "hit": false,
      "t": 26931.49500000004,
      "d": 55.041953124997235,
      "v": 93
    },
    {
      "midi": 65,
      "hit": false,
      "t": 26931.49500000004,
      "d": 55.041953124997235,
      "v": 103
    },
    {
      "midi": 58,
      "hit": false,
      "t": 27272.400000000038,
      "d": 594.8082031250015,
      "v": 116
    },
    {
      "midi": 67,
      "hit": false,
      "t": 27272.400000000038,
      "d": 605.4614843750023,
      "v": 103
    },
    {
      "midi": 63,
      "hit": false,
      "t": 27272.400000000038,
      "d": 612.5636718750029,
      "v": 100
    },
    {
      "midi": 63,
      "hit": false,
      "t": 28295.11500000004,
      "d": 65.69523437500175,
      "v": 95
    },
    {
      "midi": 58,
      "hit": false,
      "t": 28295.11500000004,
      "d": 72.79742187500233,
      "v": 90
    },
    {
      "midi": 67,
      "hit": false,
      "t": 28295.11500000004,
      "d": 87.00179687500349,
      "v": 102
    },
    {
      "midi": 56,
      "hit": false,
      "t": 28636.020000000044,
      "d": 161.5747656249987,
      "v": 111
    },
    {
      "midi": 61,
      "hit": false,
      "t": 28636.020000000044,
      "d": 285.86304687499796,
      "v": 91
    },
    {
      "midi": 65,
      "hit": false,
      "t": 28636.020000000044,
      "d": 328.4761718749978,
      "v": 108
    },
    {
      "midi": 56,
      "hit": false,
      "t": 28976.925000000043,
      "d": 87.00179687499985,
      "v": 89
    },
    {
      "midi": 61,
      "hit": false,
      "t": 29147.377500000042,
      "d": 55.04195312500087,
      "v": 96
    },
    {
      "midi": 65,
      "hit": false,
      "t": 29317.83000000004,
      "d": 214.84117187499942,
      "v": 124
    },
    {
      "midi": 61,
      "hit": false,
      "t": 29488.28250000004,
      "d": 321.3739843750009,
      "v": 79
    },
    {
      "midi": 56,
      "hit": false,
      "t": 29658.73500000004,
      "d": 186.43242187500073,
      "v": 87
    },
    {
      "midi": 56,
      "hit": false,
      "t": 29999.640000000043,
      "d": 530.8885156249999,
      "v": 101
    },
    {
      "midi": 60,
      "hit": false,
      "t": 29999.640000000043,
      "d": 548.6439843750013,
      "v": 102
    },
    {
      "midi": 63,
      "hit": false,
      "t": 29999.640000000043,
      "d": 569.950546875003,
      "v": 107
    },
    {
      "midi": 60,
      "hit": false,
      "t": 30681.450000000044,
      "d": 349.78273437499956,
      "v": 100
    },
    {
      "midi": 63,
      "hit": false,
      "t": 30681.450000000044,
      "d": 367.538203125001,
      "v": 92
    },
    {
      "midi": 56,
      "hit": false,
      "t": 30681.450000000044,
      "d": 388.84476562500276,
      "v": 85
    },
    {
      "midi": 56,
      "hit": false,
      "t": 31192.807500000046,
      "d": 47.93976562500029,
      "v": 59
    },
    {
      "midi": 63,
      "hit": false,
      "t": 31192.807500000046,
      "d": 65.69523437500175,
      "v": 62
    },
    {
      "midi": 60,
      "hit": false,
      "t": 31192.807500000046,
      "d": 72.79742187500233,
      "v": 96
    },
    {
      "midi": 56,
      "hit": false,
      "t": 31363.26000000005,
      "d": 58.593046875001164,
      "v": 89
    },
    {
      "midi": 61,
      "hit": false,
      "t": 31363.26000000005,
      "d": 58.593046875001164,
      "v": 100
    },
    {
      "midi": 65,
      "hit": false,
      "t": 31363.26000000005,
      "d": 65.69523437500175,
      "v": 111
    },
    {
      "midi": 65,
      "hit": false,
      "t": 31533.712500000052,
      "d": 37.28648437499942,
      "v": 64
    },
    {
      "midi": 56,
      "hit": false,
      "t": 31533.712500000052,
      "d": 44.388671875,
      "v": 69
    },
    {
      "midi": 61,
      "hit": false,
      "t": 31533.712500000052,
      "d": 44.388671875,
      "v": 76
    },
    {
      "midi": 56,
      "hit": false,
      "t": 31704.16500000005,
      "d": 101.20617187500102,
      "v": 55
    },
    {
      "midi": 61,
      "hit": false,
      "t": 31704.16500000005,
      "d": 122.51273437500276,
      "v": 60
    },
    {
      "midi": 65,
      "hit": false,
      "t": 31704.16500000005,
      "d": 200.6367968750019,
      "v": 70
    },
    {
      "midi": 61,
      "hit": false,
      "t": 32045.070000000054,
      "d": 140.26820312500058,
      "v": 95
    },
    {
      "midi": 56,
      "hit": false,
      "t": 32045.070000000054,
      "d": 143.81929687500087,
      "v": 91
    },
    {
      "midi": 65,
      "hit": false,
      "t": 32045.070000000054,
      "d": 143.81929687500087,
      "v": 105
    },
    {
      "midi": 56,
      "hit": false,
      "t": 32385.975000000057,
      "d": 150.92148437500146,
      "v": 113
    },
    {
      "midi": 65,
      "hit": false,
      "t": 32385.975000000057,
      "d": 172.2280468750032,
      "v": 113
    },
    {
      "midi": 61,
      "hit": false,
      "t": 32385.975000000057,
      "d": 225.49445312500393,
      "v": 107
    },
    {
      "midi": 58,
      "hit": false,
      "t": 32726.88000000006,
      "d": 548.6439843750013,
      "v": 111
    },
    {
      "midi": 67,
      "hit": false,
      "t": 32726.88000000006,
      "d": 548.6439843750013,
      "v": 115
    },
    {
      "midi": 63,
      "hit": false,
      "t": 32726.88000000006,
      "d": 555.7461718750019,
      "v": 114
    },
    {
      "midi": 63,
      "hit": false,
      "t": 33408.69000000006,
      "d": 356.8849218749965,
      "v": 85
    },
    {
      "midi": 58,
      "hit": false,
      "t": 33408.69000000006,
      "d": 360.4360156249968,
      "v": 86
    },
    {
      "midi": 67,
      "hit": false,
      "t": 33408.69000000006,
      "d": 385.29367187499884,
      "v": 89
    },
    {
      "midi": 58,
      "hit": false,
      "t": 33920.04750000006,
      "d": 55.04195312500087,
      "v": 76
    },
    {
      "midi": 63,
      "hit": false,
      "t": 33920.04750000006,
      "d": 76.34851562500262,
      "v": 83
    },
    {
      "midi": 67,
      "hit": false,
      "t": 33920.04750000006,
      "d": 76.34851562500262,
      "v": 92
    },
    {
      "midi": 61,
      "hit": false,
      "t": 34090.50000000006,
      "d": 55.04195312500087,
      "v": 84
    },
    {
      "midi": 65,
      "hit": false,
      "t": 34090.50000000006,
      "d": 58.593046875001164,
      "v": 97
    },
    {
      "midi": 56,
      "hit": false,
      "t": 34090.50000000006,
      "d": 65.69523437500175,
      "v": 97
    },
    {
      "midi": 61,
      "hit": false,
      "t": 34260.95250000006,
      "d": 44.388671875,
      "v": 85
    },
    {
      "midi": 56,
      "hit": false,
      "t": 34260.95250000006,
      "d": 55.04195312500087,
      "v": 76
    },
    {
      "midi": 65,
      "hit": false,
      "t": 34260.95250000006,
      "d": 55.04195312500087,
      "v": 97
    },
    {
      "midi": 61,
      "hit": false,
      "t": 34431.40500000006,
      "d": 83.4507031250032,
      "v": 87
    },
    {
      "midi": 56,
      "hit": false,
      "t": 34431.40500000006,
      "d": 111.85945312500553,
      "v": 86
    },
    {
      "midi": 65,
      "hit": false,
      "t": 34431.40500000006,
      "d": 111.85945312500553,
      "v": 101
    },
    {
      "midi": 61,
      "hit": false,
      "t": 34772.31000000006,
      "d": 111.85945312499825,
      "v": 104
    },
    {
      "midi": 56,
      "hit": false,
      "t": 34772.31000000006,
      "d": 129.6149218749997,
      "v": 104
    },
    {
      "midi": 65,
      "hit": false,
      "t": 34772.31000000006,
      "d": 229.04554687500058,
      "v": 103
    },
    {
      "midi": 61,
      "hit": false,
      "t": 35113.21500000006,
      "d": 129.6149218749997,
      "v": 90
    },
    {
      "midi": 65,
      "hit": false,
      "t": 35113.21500000006,
      "d": 129.6149218749997,
      "v": 102
    },
    {
      "midi": 56,
      "hit": false,
      "t": 35113.21500000006,
      "d": 143.81929687500087,
      "v": 90
    },
    {
      "midi": 61,
      "hit": false,
      "t": 35454.12000000006,
      "d": 140.26820312500058,
      "v": 105
    },
    {
      "midi": 58,
      "hit": false,
      "t": 35454.12000000006,
      "d": 207.73898437499884,
      "v": 113
    },
    {
      "midi": 65,
      "hit": false,
      "t": 35454.12000000006,
      "d": 1248.2094531249968,
      "v": 110
    },
    {
      "midi": 58,
      "hit": false,
      "t": 35795.02500000006,
      "d": 520.2352343749953,
      "v": 97
    },
    {
      "midi": 53,
      "hit": false,
      "t": 36135.93000000006,
      "d": 640.972421874998,
      "v": 95
    },
    {
      "midi": 58,
      "hit": false,
      "t": 36476.83500000006,
      "d": 229.04554687500058,
      "v": 90
    },
    {
      "midi": 56,
      "hit": false,
      "t": 36817.740000000056,
      "d": 388.8447656249991,
      "v": 106
    },
    {
      "midi": 61,
      "hit": false,
      "t": 36817.740000000056,
      "d": 1173.6364843750052,
      "v": 119
    },
    {
      "midi": 65,
      "hit": false,
      "t": 36817.740000000056,
      "d": 1173.6364843750052,
      "v": 117
    },
    {
      "midi": 56,
      "hit": false,
      "t": 37329.097500000054,
      "d": 150.92148437500146,
      "v": 116
    },
    {
      "midi": 53,
      "hit": false,
      "t": 37499.550000000054,
      "d": 257.4542968750029,
      "v": 117
    },
    {
      "midi": 56,
      "hit": false,
      "t": 37840.45500000006,
      "d": 150.92148437500146,
      "v": 109
    },
    {
      "midi": 58,
      "hit": false,
      "t": 38181.36000000006,
      "d": 566.3994531249991,
      "v": 125
    },
    {
      "midi": 67,
      "hit": false,
      "t": 38181.36000000006,
      "d": 577.052734375,
      "v": 108
    },
    {
      "midi": 63,
      "hit": false,
      "t": 38181.36000000006,
      "d": 594.8082031250015,
      "v": 109
    },
    {
      "midi": 67,
      "hit": false,
      "t": 38863.170000000064,
      "d": 292.96523437499854,
      "v": 111
    },
    {
      "midi": 63,
      "hit": false,
      "t": 38863.170000000064,
      "d": 321.3739843750009,
      "v": 124
    },
    {
      "midi": 58,
      "hit": false,
      "t": 38863.170000000064,
      "d": 342.6805468750026,
      "v": 115
    },
    {
      "midi": 58,
      "hit": false,
      "t": 39374.52750000007,
      "d": 37.28648437499942,
      "v": 82
    },
    {
      "midi": 63,
      "hit": false,
      "t": 39374.52750000007,
      "d": 37.28648437499942,
      "v": 92
    },
    {
      "midi": 67,
      "hit": false,
      "t": 39374.52750000007,
      "d": 65.69523437500175,
      "v": 97
    },
    {
      "midi": 63,
      "hit": false,
      "t": 39544.98000000007,
      "d": 87.00179687500349,
      "v": 124
    },
    {
      "midi": 58,
      "hit": false,
      "t": 39544.98000000007,
      "d": 104.75726562500495,
      "v": 106
    },
    {
      "midi": 67,
      "hit": false,
      "t": 39544.98000000007,
      "d": 225.49445312500757,
      "v": 118
    },
    {
      "midi": 63,
      "hit": false,
      "t": 39715.432500000075,
      "d": 19.531015624997963,
      "v": 57
    },
    {
      "midi": 68,
      "hit": false,
      "t": 39885.885000000075,
      "d": 292.96523437499854,
      "v": 125
    },
    {
      "midi": 63,
      "hit": false,
      "t": 39885.885000000075,
      "d": 328.47617187500146,
      "v": 125
    },
    {
      "midi": 58,
      "hit": false,
      "t": 39885.885000000075,
      "d": 356.8849218750038,
      "v": 111
    },
    {
      "midi": 63,
      "hit": false,
      "t": 40397.24250000008,
      "d": 349.7827343750032,
      "v": 121
    },
    {
      "midi": 58,
      "hit": false,
      "t": 40397.24250000008,
      "d": 406.6002343750006,
      "v": 112
    },
    {
      "midi": 67,
      "hit": false,
      "t": 40397.24250000008,
      "d": 474.07101562499884,
      "v": 111
    },
    {
      "midi": 58,
      "hit": false,
      "t": 40908.60000000008,
      "d": 616.1147656250032,
      "v": 107
    },
    {
      "midi": 61,
      "hit": false,
      "t": 40908.60000000008,
      "d": 616.1147656250032,
      "v": 97
    },
    {
      "midi": 65,
      "hit": false,
      "t": 40908.60000000008,
      "d": 616.1147656250032,
      "v": 107
    },
    {
      "midi": 61,
      "hit": false,
      "t": 41590.41000000008,
      "d": 406.6002343750006,
      "v": 97
    },
    {
      "midi": 58,
      "hit": false,
      "t": 41590.41000000008,
      "d": 413.70242187500116,
      "v": 100
    },
    {
      "midi": 65,
      "hit": false,
      "t": 41590.41000000008,
      "d": 413.70242187500116,
      "v": 105
    },
    {
      "midi": 58,
      "hit": false,
      "t": 42101.76750000008,
      "d": 58.593046875001164,
      "v": 76
    },
    {
      "midi": 65,
      "hit": false,
      "t": 42101.76750000008,
      "d": 65.69523437500175,
      "v": 95
    },
    {
      "midi": 61,
      "hit": false,
      "t": 42101.76750000008,
      "d": 72.79742187500233,
      "v": 81
    },
    {
      "midi": 58,
      "hit": false,
      "t": 42272.22000000008,
      "d": 83.4507031250032,
      "v": 99
    },
    {
      "midi": 61,
      "hit": false,
      "t": 42272.22000000008,
      "d": 94.10398437500407,
      "v": 96
    },
    {
      "midi": 65,
      "hit": false,
      "t": 42272.22000000008,
      "d": 101.20617187500466,
      "v": 108
    },
    {
      "midi": 58,
      "hit": false,
      "t": 42442.67250000009,
      "d": 72.79742187500233,
      "v": 62
    },
    {
      "midi": 61,
      "hit": false,
      "t": 42442.67250000009,
      "d": 72.79742187500233,
      "v": 84
    },
    {
      "midi": 65,
      "hit": false,
      "t": 42442.67250000009,
      "d": 94.10398437500407,
      "v": 108
    },
    {
      "midi": 61,
      "hit": false,
      "t": 42613.125000000095,
      "d": 186.4324218749971,
      "v": 75
    },
    {
      "midi": 58,
      "hit": false,
      "t": 42613.125000000095,
      "d": 200.63679687499825,
      "v": 73
    },
    {
      "midi": 65,
      "hit": false,
      "t": 42613.125000000095,
      "d": 200.63679687499825,
      "v": 93
    },
    {
      "midi": 61,
      "hit": false,
      "t": 42954.03000000009,
      "d": 158.02367187500204,
      "v": 115
    },
    {
      "midi": 58,
      "hit": false,
      "t": 42954.03000000009,
      "d": 186.43242187500437,
      "v": 117
    },
    {
      "midi": 65,
      "hit": false,
      "t": 42954.03000000009,
      "d": 218.39226562500698,
      "v": 123
    },
    {
      "midi": 65,
      "hit": false,
      "t": 43294.9350000001,
      "d": 225.4944531250003,
      "v": 114
    },
    {
      "midi": 58,
      "hit": false,
      "t": 43294.9350000001,
      "d": 229.04554687500058,
      "v": 108
    },
    {
      "midi": 61,
      "hit": false,
      "t": 43294.9350000001,
      "d": 236.14773437500116,
      "v": 111
    },
    {
      "midi": 58,
      "hit": false,
      "t": 43635.8400000001,
      "d": 555.7461718749983,
      "v": 108
    },
    {
      "midi": 67,
      "hit": false,
      "t": 43635.8400000001,
      "d": 566.3994531249991,
      "v": 124
    },
    {
      "midi": 63,
      "hit": false,
      "t": 43635.8400000001,
      "d": 569.9505468749994,
      "v": 124
    },
    {
      "midi": 63,
      "hit": false,
      "t": 44317.650000000096,
      "d": 360.4360156249968,
      "v": 90
    },
    {
      "midi": 67,
      "hit": false,
      "t": 44317.650000000096,
      "d": 395.9469531249997,
      "v": 95
    },
    {
      "midi": 58,
      "hit": false,
      "t": 44317.650000000096,
      "d": 399.498046875,
      "v": 85
    },
    {
      "midi": 58,
      "hit": false,
      "t": 44829.007500000094,
      "d": 58.593046875001164,
      "v": 94
    },
    {
      "midi": 63,
      "hit": false,
      "t": 44829.007500000094,
      "d": 65.69523437500175,
      "v": 92
    },
    {
      "midi": 67,
      "hit": false,
      "t": 44829.007500000094,
      "d": 158.02367187500204,
      "v": 98
    },
    {
      "midi": 61,
      "hit": false,
      "t": 44999.460000000094,
      "d": 367.5382031249974,
      "v": 118
    },
    {
      "midi": 65,
      "hit": false,
      "t": 44999.460000000094,
      "d": 367.5382031249974,
      "v": 113
    },
    {
      "midi": 56,
      "hit": false,
      "t": 44999.460000000094,
      "d": 388.8447656249991,
      "v": 119
    },
    {
      "midi": 68,
      "hit": false,
      "t": 45340.36500000009,
      "d": 87.00179687500349,
      "v": 127
    },
    {
      "midi": 58,
      "hit": false,
      "t": 45681.2700000001,
      "d": 65.69523437500175,
      "v": 121
    },
    {
      "midi": 63,
      "hit": false,
      "t": 45681.2700000001,
      "d": 76.34851562500262,
      "v": 95
    },
    {
      "midi": 67,
      "hit": false,
      "t": 45681.2700000001,
      "d": 626.7680468749968,
      "v": 114
    },
    {
      "midi": 70,
      "hit": false,
      "t": 45681.2700000001,
      "d": 662.2789843749997,
      "v": 92
    },
    {
      "midi": 58,
      "hit": false,
      "t": 45851.7225000001,
      "d": 72.79742187500233,
      "v": 115
    },
    {
      "midi": 63,
      "hit": false,
      "t": 45851.7225000001,
      "d": 484.7242968749997,
      "v": 74
    },
    {
      "midi": 58,
      "hit": false,
      "t": 46022.1750000001,
      "d": 321.3739843750009,
      "v": 125
    },
    {
      "midi": 72,
      "hit": false,
      "t": 46363.080000000096,
      "d": 158.02367187499476,
      "v": 97
    },
    {
      "midi": 75,
      "hit": false,
      "t": 46363.080000000096,
      "d": 158.02367187499476,
      "v": 111
    },
    {
      "midi": 80,
      "hit": false,
      "t": 46363.080000000096,
      "d": 158.02367187499476,
      "v": 110
    },
    {
      "midi": 63,
      "hit": false,
      "t": 46703.98500000001,
      "d": 1528.745859374998,
      "v": 1
    },
    {
      "midi": 68,
      "hit": false,
      "t": 46703.98500000001,
      "d": 1528.745859374998,
      "v": 1
    },
    {
      "midi": 72,
      "hit": false,
      "t": 46703.98500000001,
      "d": 1528.745859374998,
      "v": 1
    },
    {
      "midi": 72,
      "hit": false,
      "t": 47044.890000000094,
      "d": 158.02367187500204,
      "v": 101
    },
    {
      "midi": 75,
      "hit": false,
      "t": 47044.890000000094,
      "d": 158.02367187500204,
      "v": 112
    },
    {
      "midi": 80,
      "hit": false,
      "t": 47044.890000000094,
      "d": 158.02367187500204,
      "v": 116
    },
    {
      "midi": 73,
      "hit": false,
      "t": 47726.70000000009,
      "d": 158.02367187500204,
      "v": 98
    },
    {
      "midi": 77,
      "hit": false,
      "t": 47726.70000000009,
      "d": 158.02367187500204,
      "v": 104
    },
    {
      "midi": 80,
      "hit": false,
      "t": 47726.70000000009,
      "d": 158.02367187500204,
      "v": 97
    },
    {
      "midi": 61,
      "hit": false,
      "t": 48238.0575,
      "d": 506.03085937500146,
      "v": 1
    },
    {
      "midi": 65,
      "hit": false,
      "t": 48238.0575,
      "d": 506.03085937500146,
      "v": 1
    },
    {
      "midi": 68,
      "hit": false,
      "t": 48238.0575,
      "d": 506.03085937500146,
      "v": 1
    },
    {
      "midi": 73,
      "hit": false,
      "t": 48408.5100000001,
      "d": 158.02367187500204,
      "v": 95
    },
    {
      "midi": 77,
      "hit": false,
      "t": 48408.5100000001,
      "d": 158.02367187500204,
      "v": 103
    },
    {
      "midi": 80,
      "hit": false,
      "t": 48408.5100000001,
      "d": 158.02367187500204,
      "v": 98
    },
    {
      "midi": 63,
      "hit": false,
      "t": 48749.415,
      "d": 165.12585937500262,
      "v": 1
    },
    {
      "midi": 67,
      "hit": false,
      "t": 48749.415,
      "d": 165.12585937500262,
      "v": 1
    },
    {
      "midi": 70,
      "hit": false,
      "t": 48749.415,
      "d": 165.12585937500262,
      "v": 1
    },
    {
      "midi": 63,
      "hit": false,
      "t": 48919.8675,
      "d": 676.4833593750009,
      "v": 1
    },
    {
      "midi": 68,
      "hit": false,
      "t": 48919.8675,
      "d": 676.4833593750009,
      "v": 1
    },
    {
      "midi": 72,
      "hit": false,
      "t": 48919.8675,
      "d": 676.4833593750009,
      "v": 1
    },
    {
      "midi": 75,
      "hit": false,
      "t": 49090.320000000094,
      "d": 158.02367187500204,
      "v": 107
    },
    {
      "midi": 79,
      "hit": false,
      "t": 49090.320000000094,
      "d": 158.02367187500204,
      "v": 103
    },
    {
      "midi": 82,
      "hit": false,
      "t": 49090.320000000094,
      "d": 158.02367187500204,
      "v": 107
    },
    {
      "midi": 61,
      "hit": false,
      "t": 49601.6775,
      "d": 846.9358593750003,
      "v": 1
    },
    {
      "midi": 67,
      "hit": false,
      "t": 49601.6775,
      "d": 846.9358593750003,
      "v": 1
    },
    {
      "midi": 70,
      "hit": false,
      "t": 49601.6775,
      "d": 846.9358593750003,
      "v": 1
    },
    {
      "midi": 75,
      "hit": false,
      "t": 49772.1300000001,
      "d": 158.02367187500204,
      "v": 97
    },
    {
      "midi": 79,
      "hit": false,
      "t": 49772.1300000001,
      "d": 158.02367187500204,
      "v": 104
    },
    {
      "midi": 82,
      "hit": false,
      "t": 49772.1300000001,
      "d": 158.02367187500204,
      "v": 104
    },
    {
      "midi": 61,
      "hit": false,
      "t": 50453.939999999995,
      "d": 676.4833593750009,
      "v": 1
    },
    {
      "midi": 65,
      "hit": false,
      "t": 50453.939999999995,
      "d": 676.4833593750009,
      "v": 1
    },
    {
      "midi": 68,
      "hit": false,
      "t": 50453.939999999995,
      "d": 676.4833593750009,
      "v": 1
    },
    {
      "midi": 73,
      "hit": false,
      "t": 50453.9400000001,
      "d": 158.02367187500204,
      "v": 101
    },
    {
      "midi": 77,
      "hit": false,
      "t": 50453.9400000001,
      "d": 158.02367187500204,
      "v": 107
    },
    {
      "midi": 80,
      "hit": false,
      "t": 50453.9400000001,
      "d": 158.02367187500204,
      "v": 95
    },
    {
      "midi": 61,
      "hit": false,
      "t": 51135.74999999999,
      "d": 1017.3883593749997,
      "v": 1
    },
    {
      "midi": 67,
      "hit": false,
      "t": 51135.74999999999,
      "d": 1017.3883593749997,
      "v": 1
    },
    {
      "midi": 70,
      "hit": false,
      "t": 51135.74999999999,
      "d": 1017.3883593749997,
      "v": 1
    },
    {
      "midi": 75,
      "hit": false,
      "t": 51135.750000000095,
      "d": 158.02367187500204,
      "v": 98
    },
    {
      "midi": 79,
      "hit": false,
      "t": 51135.750000000095,
      "d": 158.02367187500204,
      "v": 105
    },
    {
      "midi": 82,
      "hit": false,
      "t": 51135.750000000095,
      "d": 158.02367187500204,
      "v": 105
    },
    {
      "midi": 72,
      "hit": false,
      "t": 51817.56000000009,
      "d": 158.02367187500204,
      "v": 96
    },
    {
      "midi": 75,
      "hit": false,
      "t": 51817.56000000009,
      "d": 158.02367187500204,
      "v": 109
    },
    {
      "midi": 80,
      "hit": false,
      "t": 51817.56000000009,
      "d": 158.02367187500204,
      "v": 111
    },
    {
      "midi": 63,
      "hit": false,
      "t": 52158.46499999999,
      "d": 1358.2933593749985,
      "v": 1
    },
    {
      "midi": 68,
      "hit": false,
      "t": 52158.46499999999,
      "d": 1358.2933593749985,
      "v": 1
    },
    {
      "midi": 72,
      "hit": false,
      "t": 52158.46499999999,
      "d": 1358.2933593749985,
      "v": 1
    },
    {
      "midi": 72,
      "hit": false,
      "t": 52499.3700000001,
      "d": 158.02367187500204,
      "v": 98
    },
    {
      "midi": 75,
      "hit": false,
      "t": 52499.3700000001,
      "d": 158.02367187500204,
      "v": 118
    },
    {
      "midi": 80,
      "hit": false,
      "t": 52499.3700000001,
      "d": 158.02367187500204,
      "v": 107
    },
    {
      "midi": 73,
      "hit": false,
      "t": 53181.1800000001,
      "d": 158.02367187500204,
      "v": 99
    },
    {
      "midi": 77,
      "hit": false,
      "t": 53181.1800000001,
      "d": 158.02367187500204,
      "v": 97
    },
    {
      "midi": 80,
      "hit": false,
      "t": 53181.1800000001,
      "d": 158.02367187500204,
      "v": 101
    },
    {
      "midi": 73,
      "hit": false,
      "t": 53351.6325000001,
      "d": 158.02367187500204,
      "v": 80
    },
    {
      "midi": 77,
      "hit": false,
      "t": 53351.6325000001,
      "d": 158.02367187500204,
      "v": 104
    },
    {
      "midi": 80,
      "hit": false,
      "t": 53351.6325000001,
      "d": 158.02367187500204,
      "v": 88
    },
    {
      "midi": 60,
      "hit": false,
      "t": 53522.084999999985,
      "d": 165.12585937500262,
      "v": 1
    },
    {
      "midi": 65,
      "hit": false,
      "t": 53522.084999999985,
      "d": 165.12585937500262,
      "v": 1
    },
    {
      "midi": 68,
      "hit": false,
      "t": 53522.084999999985,
      "d": 165.12585937500262,
      "v": 1
    },
    {
      "midi": 61,
      "hit": false,
      "t": 53692.537499999984,
      "d": 506.03085937500146,
      "v": 1
    },
    {
      "midi": 67,
      "hit": false,
      "t": 53692.537499999984,
      "d": 506.03085937500146,
      "v": 1
    },
    {
      "midi": 70,
      "hit": false,
      "t": 53692.537499999984,
      "d": 506.03085937500146,
      "v": 1
    },
    {
      "midi": 73,
      "hit": false,
      "t": 53862.99000000011,
      "d": 158.02367187500204,
      "v": 103
    },
    {
      "midi": 77,
      "hit": false,
      "t": 53862.99000000011,
      "d": 158.02367187500204,
      "v": 102
    },
    {
      "midi": 80,
      "hit": false,
      "t": 53862.99000000011,
      "d": 158.02367187500204,
      "v": 86
    },
    {
      "midi": 63,
      "hit": false,
      "t": 54203.89499999998,
      "d": 846.9358593750003,
      "v": 1
    },
    {
      "midi": 68,
      "hit": false,
      "t": 54203.89499999998,
      "d": 846.9358593750003,
      "v": 1
    },
    {
      "midi": 72,
      "hit": false,
      "t": 54203.89499999998,
      "d": 846.9358593750003,
      "v": 1
    },
    {
      "midi": 75,
      "hit": false,
      "t": 54544.800000000105,
      "d": 328.47617187500146,
      "v": 96
    },
    {
      "midi": 79,
      "hit": false,
      "t": 54544.800000000105,
      "d": 328.47617187500146,
      "v": 102
    },
    {
      "midi": 82,
      "hit": false,
      "t": 54544.800000000105,
      "d": 328.47617187500146,
      "v": 101
    },
    {
      "midi": 61,
      "hit": false,
      "t": 55056.15749999998,
      "d": 846.9358593750003,
      "v": 1
    },
    {
      "midi": 67,
      "hit": false,
      "t": 55056.15749999998,
      "d": 846.9358593750003,
      "v": 1
    },
    {
      "midi": 70,
      "hit": false,
      "t": 55056.15749999998,
      "d": 846.9358593750003,
      "v": 1
    },
    {
      "midi": 75,
      "hit": false,
      "t": 55226.61000000011,
      "d": 158.02367187500204,
      "v": 102
    },
    {
      "midi": 79,
      "hit": false,
      "t": 55226.61000000011,
      "d": 158.02367187500204,
      "v": 114
    },
    {
      "midi": 82,
      "hit": false,
      "t": 55226.61000000011,
      "d": 158.02367187500204,
      "v": 101
    },
    {
      "midi": 61,
      "hit": false,
      "t": 55908.41999999998,
      "d": 676.4833593750009,
      "v": 1
    },
    {
      "midi": 65,
      "hit": false,
      "t": 55908.41999999998,
      "d": 676.4833593750009,
      "v": 1
    },
    {
      "midi": 68,
      "hit": false,
      "t": 55908.41999999998,
      "d": 676.4833593750009,
      "v": 1
    },
    {
      "midi": 73,
      "hit": false,
      "t": 55908.420000000115,
      "d": 158.02367187500204,
      "v": 79
    },
    {
      "midi": 77,
      "hit": false,
      "t": 55908.420000000115,
      "d": 158.02367187500204,
      "v": 103
    },
    {
      "midi": 80,
      "hit": false,
      "t": 55908.420000000115,
      "d": 158.02367187500204,
      "v": 83
    },
    {
      "midi": 73,
      "hit": false,
      "t": 56249.32500000011,
      "d": 158.02367187500204,
      "v": 91
    },
    {
      "midi": 77,
      "hit": false,
      "t": 56249.32500000011,
      "d": 158.02367187500204,
      "v": 100
    },
    {
      "midi": 80,
      "hit": false,
      "t": 56249.32500000011,
      "d": 158.02367187500204,
      "v": 94
    },
    {
      "midi": 61,
      "hit": false,
      "t": 56590.229999999974,
      "d": 1017.3883593749997,
      "v": 1
    },
    {
      "midi": 67,
      "hit": false,
      "t": 56590.229999999974,
      "d": 1017.3883593749997,
      "v": 1
    },
    {
      "midi": 70,
      "hit": false,
      "t": 56590.229999999974,
      "d": 1017.3883593749997,
      "v": 1
    },
    {
      "midi": 75,
      "hit": false,
      "t": 56590.23000000011,
      "d": 158.02367187500204,
      "v": 105
    },
    {
      "midi": 79,
      "hit": false,
      "t": 56590.23000000011,
      "d": 328.47617187500146,
      "v": 110
    },
    {
      "midi": 82,
      "hit": false,
      "t": 56590.23000000011,
      "d": 328.47617187500146,
      "v": 101
    },
    {
      "midi": 72,
      "hit": false,
      "t": 57272.04000000012,
      "d": 321.3739843749936,
      "v": 110
    },
    {
      "midi": 75,
      "hit": false,
      "t": 57272.04000000012,
      "d": 328.4761718749942,
      "v": 106
    },
    {
      "midi": 80,
      "hit": false,
      "t": 57272.04000000012,
      "d": 328.4761718749942,
      "v": 105
    },
    {
      "midi": 63,
      "hit": false,
      "t": 57612.94499999997,
      "d": 1528.745859374998,
      "v": 1
    },
    {
      "midi": 68,
      "hit": false,
      "t": 57612.94499999997,
      "d": 1528.745859374998,
      "v": 1
    },
    {
      "midi": 72,
      "hit": false,
      "t": 57612.94499999997,
      "d": 1528.745859374998,
      "v": 1
    },
    {
      "midi": 72,
      "hit": false,
      "t": 57953.850000000115,
      "d": 158.02367187500204,
      "v": 90
    },
    {
      "midi": 75,
      "hit": false,
      "t": 57953.850000000115,
      "d": 158.02367187500204,
      "v": 108
    },
    {
      "midi": 80,
      "hit": false,
      "t": 57953.850000000115,
      "d": 158.02367187500204,
      "v": 104
    },
    {
      "midi": 73,
      "hit": false,
      "t": 58635.66000000011,
      "d": 158.02367187500204,
      "v": 91
    },
    {
      "midi": 77,
      "hit": false,
      "t": 58635.66000000011,
      "d": 158.02367187500204,
      "v": 101
    },
    {
      "midi": 80,
      "hit": false,
      "t": 58635.66000000011,
      "d": 158.02367187500204,
      "v": 93
    },
    {
      "midi": 61,
      "hit": false,
      "t": 59147.017499999965,
      "d": 506.03085937500146,
      "v": 1
    },
    {
      "midi": 65,
      "hit": false,
      "t": 59147.017499999965,
      "d": 506.03085937500146,
      "v": 1
    },
    {
      "midi": 73,
      "hit": false,
      "t": 59317.47000000012,
      "d": 158.02367187500204,
      "v": 87
    },
    {
      "midi": 77,
      "hit": false,
      "t": 59317.47000000012,
      "d": 158.02367187500204,
      "v": 96
    },
    {
      "midi": 80,
      "hit": false,
      "t": 59317.47000000012,
      "d": 158.02367187500204,
      "v": 85
    },
    {
      "midi": 63,
      "hit": false,
      "t": 59658.37499999996,
      "d": 165.12585937500262,
      "v": 1
    },
    {
      "midi": 67,
      "hit": false,
      "t": 59658.37499999996,
      "d": 165.12585937500262,
      "v": 1
    },
    {
      "midi": 70,
      "hit": false,
      "t": 59658.37499999996,
      "d": 165.12585937500262,
      "v": 1
    },
    {
      "midi": 63,
      "hit": false,
      "t": 59828.82749999996,
      "d": 676.4833593750009,
      "v": 1
    },
    {
      "midi": 68,
      "hit": false,
      "t": 59828.82749999996,
      "d": 676.4833593750009,
      "v": 1
    },
    {
      "midi": 72,
      "hit": false,
      "t": 59828.82749999996,
      "d": 676.4833593750009,
      "v": 1
    },
    {
      "midi": 75,
      "hit": false,
      "t": 59999.280000000115,
      "d": 150.92148437500146,
      "v": 101
    },
    {
      "midi": 82,
      "hit": false,
      "t": 59999.280000000115,
      "d": 150.92148437500146,
      "v": 101
    },
    {
      "midi": 79,
      "hit": false,
      "t": 59999.280000000115,
      "d": 158.02367187500204,
      "v": 105
    },
    {
      "midi": 61,
      "hit": false,
      "t": 60510.63749999996,
      "d": 846.9358593750003,
      "v": 1
    },
    {
      "midi": 67,
      "hit": false,
      "t": 60510.63749999996,
      "d": 846.9358593750003,
      "v": 1
    },
    {
      "midi": 70,
      "hit": false,
      "t": 60510.63749999996,
      "d": 846.9358593750003,
      "v": 1
    },
    {
      "midi": 75,
      "hit": false,
      "t": 60681.09000000012,
      "d": 158.02367187500204,
      "v": 87
    },
    {
      "midi": 79,
      "hit": false,
      "t": 60681.09000000012,
      "d": 158.02367187500204,
      "v": 94
    },
    {
      "midi": 82,
      "hit": false,
      "t": 60681.09000000012,
      "d": 158.02367187500204,
      "v": 88
    },
    {
      "midi": 61,
      "hit": false,
      "t": 61362.89999999996,
      "d": 676.4833593750009,
      "v": 1
    },
    {
      "midi": 65,
      "hit": false,
      "t": 61362.89999999996,
      "d": 676.4833593750009,
      "v": 1
    },
    {
      "midi": 68,
      "hit": false,
      "t": 61362.89999999996,
      "d": 676.4833593750009,
      "v": 1
    },
    {
      "midi": 73,
      "hit": false,
      "t": 61362.900000000125,
      "d": 158.02367187500204,
      "v": 100
    },
    {
      "midi": 77,
      "hit": false,
      "t": 61362.900000000125,
      "d": 158.02367187500204,
      "v": 100
    },
    {
      "midi": 80,
      "hit": false,
      "t": 61362.900000000125,
      "d": 158.02367187500204,
      "v": 97
    },
    {
      "midi": 61,
      "hit": false,
      "t": 62044.709999999955,
      "d": 676.4833593750009,
      "v": 1
    },
    {
      "midi": 67,
      "hit": false,
      "t": 62044.709999999955,
      "d": 676.4833593750009,
      "v": 1
    },
    {
      "midi": 70,
      "hit": false,
      "t": 62044.709999999955,
      "d": 676.4833593750009,
      "v": 1
    },
    {
      "midi": 75,
      "hit": false,
      "t": 62044.71000000013,
      "d": 158.02367187500204,
      "v": 93
    },
    {
      "midi": 79,
      "hit": false,
      "t": 62044.71000000013,
      "d": 158.02367187500204,
      "v": 96
    },
    {
      "midi": 82,
      "hit": false,
      "t": 62044.71000000013,
      "d": 158.02367187500204,
      "v": 102
    },
    {
      "midi": 68,
      "hit": false,
      "t": 62726.52000000013,
      "d": 2544.358671875001,
      "v": 100
    },
    {
      "midi": 73,
      "hit": false,
      "t": 62726.52000000013,
      "d": 2544.358671875001,
      "v": 108
    },
    {
      "midi": 77,
      "hit": false,
      "t": 62726.52000000013,
      "d": 2544.358671875001,
      "v": 95
    },
    {
      "midi": 60,
      "hit": false,
      "t": 73635.47999999995,
      "d": 1358.2933593750058,
      "v": 1
    },
    {
      "midi": 68,
      "hit": false,
      "t": 73635.47999999995,
      "d": 1358.2933593750058,
      "v": 1
    },
    {
      "midi": 61,
      "hit": false,
      "t": 74999.09999999996,
      "d": 1358.2933593750058,
      "v": 1
    },
    {
      "midi": 70,
      "hit": false,
      "t": 74999.09999999996,
      "d": 1358.2933593750058,
      "v": 1
    },
    {
      "midi": 63,
      "hit": false,
      "t": 76362.71999999997,
      "d": 1358.2933593750058,
      "v": 1
    },
    {
      "midi": 72,
      "hit": false,
      "t": 76362.71999999997,
      "d": 1358.2933593750058,
      "v": 1
    },
    {
      "midi": 61,
      "hit": false,
      "t": 77726.33999999998,
      "d": 1358.2933593750058,
      "v": 1
    },
    {
      "midi": 70,
      "hit": false,
      "t": 77726.33999999998,
      "d": 1358.2933593750058,
      "v": 1
    },
    {
      "midi": 56,
      "hit": false,
      "t": 78919.50750000012,
      "d": 150.92148437499418,
      "v": 107
    },
    {
      "midi": 60,
      "hit": false,
      "t": 78919.50750000012,
      "d": 150.92148437499418,
      "v": 101
    },
    {
      "midi": 63,
      "hit": false,
      "t": 78919.50750000012,
      "d": 150.92148437499418,
      "v": 105
    },
    {
      "midi": 60,
      "hit": false,
      "t": 79089.95999999999,
      "d": 1017.388359375007,
      "v": 1
    },
    {
      "midi": 68,
      "hit": false,
      "t": 79089.95999999999,
      "d": 1017.388359375007,
      "v": 1
    },
    {
      "midi": 56,
      "hit": false,
      "t": 79089.96000000012,
      "d": 246.80101562499476,
      "v": 88
    },
    {
      "midi": 60,
      "hit": false,
      "t": 79089.96000000012,
      "d": 246.80101562499476,
      "v": 94
    },
    {
      "midi": 63,
      "hit": false,
      "t": 79089.96000000012,
      "d": 271.6586718749895,
      "v": 89
    },
    {
      "midi": 60,
      "hit": false,
      "t": 79430.8650000001,
      "d": 37.28648437499942,
      "v": 85
    },
    {
      "midi": 63,
      "hit": false,
      "t": 79430.8650000001,
      "d": 44.388671875,
      "v": 66
    },
    {
      "midi": 56,
      "hit": false,
      "t": 79430.8650000001,
      "d": 58.593046875001164,
      "v": 71
    },
    {
      "midi": 63,
      "hit": false,
      "t": 79601.3175000001,
      "d": 47.939765624993015,
      "v": 88
    },
    {
      "midi": 60,
      "hit": false,
      "t": 79601.3175000001,
      "d": 58.59304687498661,
      "v": 81
    },
    {
      "midi": 56,
      "hit": false,
      "t": 79601.3175000001,
      "d": 65.6952343749872,
      "v": 87
    },
    {
      "midi": 56,
      "hit": false,
      "t": 79771.77000000009,
      "d": 44.388671875,
      "v": 98
    },
    {
      "midi": 60,
      "hit": false,
      "t": 79771.77000000009,
      "d": 44.388671875,
      "v": 98
    },
    {
      "midi": 63,
      "hit": false,
      "t": 79771.77000000009,
      "d": 72.79742187500233,
      "v": 99
    },
    {
      "midi": 60,
      "hit": false,
      "t": 79942.22250000009,
      "d": 101.20617187500466,
      "v": 83
    },
    {
      "midi": 56,
      "hit": false,
      "t": 79942.22250000009,
      "d": 140.26820312500058,
      "v": 81
    },
    {
      "midi": 63,
      "hit": false,
      "t": 79942.22250000009,
      "d": 197.08570312500524,
      "v": 83
    },
    {
      "midi": 56,
      "hit": false,
      "t": 80283.12750000009,
      "d": 150.92148437499418,
      "v": 107
    },
    {
      "midi": 60,
      "hit": false,
      "t": 80283.12750000009,
      "d": 150.92148437499418,
      "v": 109
    },
    {
      "midi": 63,
      "hit": false,
      "t": 80283.12750000009,
      "d": 150.92148437499418,
      "v": 109
    },
    {
      "midi": 61,
      "hit": false,
      "t": 80453.58000000009,
      "d": 168.6769531250029,
      "v": 98
    },
    {
      "midi": 56,
      "hit": false,
      "t": 80453.58000000009,
      "d": 197.08570312500524,
      "v": 93
    },
    {
      "midi": 65,
      "hit": false,
      "t": 80453.58000000009,
      "d": 246.8010156250093,
      "v": 93
    },
    {
      "midi": 65,
      "hit": false,
      "t": 80794.4850000001,
      "d": 19.53101562500524,
      "v": 73
    },
    {
      "midi": 61,
      "hit": false,
      "t": 80794.4850000001,
      "d": 44.388671875,
      "v": 88
    },
    {
      "midi": 56,
      "hit": false,
      "t": 80794.4850000001,
      "d": 65.69523437500175,
      "v": 105
    },
    {
      "midi": 56,
      "hit": false,
      "t": 80964.9375000001,
      "d": 55.0419531249936,
      "v": 68
    },
    {
      "midi": 61,
      "hit": false,
      "t": 80964.9375000001,
      "d": 55.0419531249936,
      "v": 82
    },
    {
      "midi": 65,
      "hit": false,
      "t": 80964.9375000001,
      "d": 83.45070312499593,
      "v": 81
    },
    {
      "midi": 56,
      "hit": false,
      "t": 81135.3900000001,
      "d": 58.593046875001164,
      "v": 95
    },
    {
      "midi": 61,
      "hit": false,
      "t": 81135.3900000001,
      "d": 72.79742187500233,
      "v": 117
    },
    {
      "midi": 65,
      "hit": false,
      "t": 81135.3900000001,
      "d": 87.00179687500349,
      "v": 107
    },
    {
      "midi": 65,
      "hit": false,
      "t": 81305.8425000001,
      "d": 115.41054687500582,
      "v": 88
    },
    {
      "midi": 56,
      "hit": false,
      "t": 81305.8425000001,
      "d": 140.26820312500058,
      "v": 67
    },
    {
      "midi": 61,
      "hit": false,
      "t": 81305.8425000001,
      "d": 189.98351562500466,
      "v": 78
    },
    {
      "midi": 58,
      "hit": false,
      "t": 81646.7475000001,
      "d": 371.0892968749977,
      "v": 93
    },
    {
      "midi": 67,
      "hit": false,
      "t": 81646.7475000001,
      "d": 388.84476562499185,
      "v": 117
    },
    {
      "midi": 63,
      "hit": false,
      "t": 81646.7475000001,
      "d": 399.49804687498545,
      "v": 118
    },
    {
      "midi": 63,
      "hit": false,
      "t": 82158.10500000008,
      "d": 115.41054687500582,
      "v": 103
    },
    {
      "midi": 67,
      "hit": false,
      "t": 82158.10500000008,
      "d": 129.61492187500698,
      "v": 106
    },
    {
      "midi": 58,
      "hit": false,
      "t": 82328.5575000001,
      "d": 72.79742187500233,
      "v": 72
    },
    {
      "midi": 58,
      "hit": false,
      "t": 82499.0100000001,
      "d": 55.0419531249936,
      "v": 90
    },
    {
      "midi": 63,
      "hit": false,
      "t": 82499.0100000001,
      "d": 55.0419531249936,
      "v": 87
    },
    {
      "midi": 67,
      "hit": false,
      "t": 82499.0100000001,
      "d": 189.98351562500466,
      "v": 99
    },
    {
      "midi": 62,
      "hit": false,
      "t": 82669.4625000001,
      "d": 143.81929687500815,
      "v": 100
    },
    {
      "midi": 58,
      "hit": false,
      "t": 82669.4625000001,
      "d": 172.22804687501048,
      "v": 88
    },
    {
      "midi": 66,
      "hit": false,
      "t": 82669.4625000001,
      "d": 197.08570312500524,
      "v": 110
    },
    {
      "midi": 61,
      "hit": false,
      "t": 83010.3675000001,
      "d": 150.92148437499418,
      "v": 117
    },
    {
      "midi": 56,
      "hit": false,
      "t": 83010.3675000001,
      "d": 158.02367187499476,
      "v": 123
    },
    {
      "midi": 65,
      "hit": false,
      "t": 83010.3675000001,
      "d": 253.90320312499534,
      "v": 108
    },
    {
      "midi": 61,
      "hit": false,
      "t": 83180.8200000001,
      "d": 58.593046875001164,
      "v": 88
    },
    {
      "midi": 56,
      "hit": false,
      "t": 83223.4331250001,
      "d": 72.79742187498778,
      "v": 81
    },
    {
      "midi": 61,
      "hit": false,
      "t": 83294.45500000009,
      "d": 58.59304687498661,
      "v": 83
    },
    {
      "midi": 65,
      "hit": false,
      "t": 83298.00609375008,
      "d": 72.79742187498778,
      "v": 86
    },
    {
      "midi": 56,
      "hit": false,
      "t": 83351.27250000008,
      "d": 58.59304687498661,
      "v": 68
    },
    {
      "midi": 65,
      "hit": false,
      "t": 83422.29437500007,
      "d": 44.388671875,
      "v": 83
    },
    {
      "midi": 61,
      "hit": false,
      "t": 83422.29437500007,
      "d": 62.14414062499418,
      "v": 89
    },
    {
      "midi": 56,
      "hit": false,
      "t": 83447.15203125007,
      "d": 90.55289062499651,
      "v": 75
    },
    {
      "midi": 65,
      "hit": false,
      "t": 83553.68484375006,
      "d": 33.73539062499185,
      "v": 90
    },
    {
      "midi": 61,
      "hit": false,
      "t": 83553.68484375006,
      "d": 40.83757812499243,
      "v": 68
    },
    {
      "midi": 56,
      "hit": false,
      "t": 83571.44031250005,
      "d": 62.14414062499418,
      "v": 74
    },
    {
      "midi": 61,
      "hit": false,
      "t": 83638.91109375005,
      "d": 51.49085937500058,
      "v": 83
    },
    {
      "midi": 65,
      "hit": false,
      "t": 83649.56437500005,
      "d": 44.388671875,
      "v": 89
    },
    {
      "midi": 56,
      "hit": false,
      "t": 83692.17750000005,
      "d": 58.593046875001164,
      "v": 76
    },
    {
      "midi": 61,
      "hit": false,
      "t": 83759.64828125005,
      "d": 44.388671875,
      "v": 88
    },
    {
      "midi": 65,
      "hit": false,
      "t": 83763.19937500004,
      "d": 44.388671875,
      "v": 83
    },
    {
      "midi": 56,
      "hit": false,
      "t": 83791.60812500004,
      "d": 87.00179687500349,
      "v": 69
    },
    {
      "midi": 61,
      "hit": false,
      "t": 83866.18109375004,
      "d": 40.837578125006985,
      "v": 80
    },
    {
      "midi": 65,
      "hit": false,
      "t": 83866.18109375004,
      "d": 44.388671875,
      "v": 89
    },
    {
      "midi": 56,
      "hit": false,
      "t": 83930.10078125005,
      "d": 72.79742187500233,
      "v": 66
    },
    {
      "midi": 61,
      "hit": false,
      "t": 83986.91828125005,
      "d": 37.286484374984866,
      "v": 62
    },
    {
      "midi": 65,
      "hit": false,
      "t": 83990.46937500004,
      "d": 23.082109374998254,
      "v": 77
    },
    {
      "midi": 56,
      "hit": false,
      "t": 84061.49125000004,
      "d": 158.02367187499476,
      "v": 67
    },
    {
      "midi": 61,
      "hit": false,
      "t": 84082.79781250004,
      "d": 23.082109374998254,
      "v": 59
    },
    {
      "midi": 65,
      "hit": false,
      "t": 84093.45109375003,
      "d": 23.082109374998254,
      "v": 77
    },
    {
      "midi": 61,
      "hit": false,
      "t": 84189.33062500003,
      "d": 23.082109374998254,
      "v": 72
    },
    {
      "midi": 65,
      "hit": false,
      "t": 84196.43281250003,
      "d": 33.73539062499185,
      "v": 82
    },
    {
      "midi": 56,
      "hit": false,
      "t": 84271.00578125003,
      "d": 62.14414062499418,
      "v": 68
    },
    {
      "midi": 61,
      "hit": false,
      "t": 84288.76125000003,
      "d": 37.28648437499942,
      "v": 70
    },
    {
      "midi": 65,
      "hit": false,
      "t": 84299.41453125002,
      "d": 37.28648437499942,
      "v": 77
    },
    {
      "midi": 65,
      "hit": false,
      "t": 84377.53859375003,
      "d": 55.0419531249936,
      "v": 79
    },
    {
      "midi": 61,
      "hit": false,
      "t": 84402.39625000002,
      "d": 94.10398437500407,
      "v": 75
    },
    {
      "midi": 56,
      "hit": false,
      "t": 84405.94734375001,
      "d": 126.06382812501397,
      "v": 43
    },
    {
      "midi": 65,
      "hit": false,
      "t": 84462.76484375002,
      "d": 55.04195312500815,
      "v": 78
    },
    {
      "midi": 60,
      "hit": false,
      "t": 84544.44,
      "d": 1358.2933593750058,
      "v": 1
    },
    {
      "midi": 68,
      "hit": false,
      "t": 84544.44,
      "d": 1358.2933593750058,
      "v": 1
    },
    {
      "midi": 56,
      "hit": false,
      "t": 84544.44000000003,
      "d": 669.381171874993,
      "v": 88
    },
    {
      "midi": 63,
      "hit": false,
      "t": 84544.44000000003,
      "d": 669.381171874993,
      "v": 111
    },
    {
      "midi": 60,
      "hit": false,
      "t": 84544.44000000003,
      "d": 680.0344531249866,
      "v": 119
    },
    {
      "midi": 56,
      "hit": false,
      "t": 85567.15500000001,
      "d": 47.939765624993015,
      "v": 82
    },
    {
      "midi": 60,
      "hit": false,
      "t": 85567.15500000001,
      "d": 47.939765624993015,
      "v": 104
    },
    {
      "midi": 63,
      "hit": false,
      "t": 85567.15500000001,
      "d": 104.75726562499767,
      "v": 89
    },
    {
      "midi": 56,
      "hit": false,
      "t": 85908.06000000001,
      "d": 669.381171874993,
      "v": 98
    },
    {
      "midi": 65,
      "hit": false,
      "t": 85908.06000000001,
      "d": 669.381171874993,
      "v": 108
    },
    {
      "midi": 61,
      "hit": false,
      "t": 85908.06000000001,
      "d": 672.932265624986,
      "v": 109
    },
    {
      "midi": 61,
      "hit": false,
      "t": 85908.06000000001,
      "d": 1358.2933593750058,
      "v": 1
    },
    {
      "midi": 70,
      "hit": false,
      "t": 85908.06000000001,
      "d": 1358.2933593750058,
      "v": 1
    },
    {
      "midi": 56,
      "hit": false,
      "t": 86930.775,
      "d": 30.184296874998836,
      "v": 97
    },
    {
      "midi": 61,
      "hit": false,
      "t": 86930.775,
      "d": 55.0419531249936,
      "v": 96
    },
    {
      "midi": 65,
      "hit": false,
      "t": 86930.775,
      "d": 55.0419531249936,
      "v": 111
    },
    {
      "midi": 58,
      "hit": false,
      "t": 87271.68,
      "d": 594.8082031249942,
      "v": 121
    },
    {
      "midi": 67,
      "hit": false,
      "t": 87271.68,
      "d": 605.4614843749878,
      "v": 102
    },
    {
      "midi": 63,
      "hit": false,
      "t": 87271.68,
      "d": 612.5636718749884,
      "v": 104
    },
    {
      "midi": 63,
      "hit": false,
      "t": 87271.68000000002,
      "d": 1358.2933593750058,
      "v": 1
    },
    {
      "midi": 72,
      "hit": false,
      "t": 87271.68000000002,
      "d": 1358.2933593750058,
      "v": 1
    },
    {
      "midi": 63,
      "hit": false,
      "t": 88294.39499999997,
      "d": 65.69523437500175,
      "v": 97
    },
    {
      "midi": 58,
      "hit": false,
      "t": 88294.39499999997,
      "d": 72.79742187500233,
      "v": 91
    },
    {
      "midi": 67,
      "hit": false,
      "t": 88294.39499999997,
      "d": 87.00179687500349,
      "v": 100
    },
    {
      "midi": 56,
      "hit": false,
      "t": 88635.29999999997,
      "d": 161.57476562500233,
      "v": 112
    },
    {
      "midi": 61,
      "hit": false,
      "t": 88635.29999999997,
      "d": 285.86304687500524,
      "v": 92
    },
    {
      "midi": 65,
      "hit": false,
      "t": 88635.29999999997,
      "d": 328.47617187500873,
      "v": 115
    },
    {
      "midi": 61,
      "hit": false,
      "t": 88635.30000000003,
      "d": 1358.2933593750058,
      "v": 1
    },
    {
      "midi": 70,
      "hit": false,
      "t": 88635.30000000003,
      "d": 1358.2933593750058,
      "v": 1
    },
    {
      "midi": 56,
      "hit": false,
      "t": 88976.20499999999,
      "d": 87.00179687500349,
      "v": 90
    },
    {
      "midi": 61,
      "hit": false,
      "t": 89146.65749999999,
      "d": 55.0419531249936,
      "v": 95
    },
    {
      "midi": 65,
      "hit": false,
      "t": 89317.10999999999,
      "d": 214.84117187499942,
      "v": 125
    },
    {
      "midi": 61,
      "hit": false,
      "t": 89487.56249999999,
      "d": 321.3739843749936,
      "v": 80
    },
    {
      "midi": 56,
      "hit": false,
      "t": 89658.01499999998,
      "d": 186.4324218749971,
      "v": 87
    },
    {
      "midi": 56,
      "hit": false,
      "t": 89998.91999999998,
      "d": 530.8885156250035,
      "v": 100
    },
    {
      "midi": 60,
      "hit": false,
      "t": 89998.91999999998,
      "d": 548.6439843749977,
      "v": 109
    },
    {
      "midi": 63,
      "hit": false,
      "t": 89998.91999999998,
      "d": 569.9505468749994,
      "v": 106
    },
    {
      "midi": 60,
      "hit": false,
      "t": 89998.92000000004,
      "d": 1017.388359375007,
      "v": 1
    },
    {
      "midi": 68,
      "hit": false,
      "t": 89998.92000000004,
      "d": 1017.388359375007,
      "v": 1
    },
    {
      "midi": 60,
      "hit": false,
      "t": 90680.72999999998,
      "d": 349.7827343749959,
      "v": 101
    },
    {
      "midi": 63,
      "hit": false,
      "t": 90680.72999999998,
      "d": 367.5382031249901,
      "v": 94
    },
    {
      "midi": 56,
      "hit": false,
      "t": 90680.72999999998,
      "d": 388.84476562499185,
      "v": 85
    },
    {
      "midi": 56,
      "hit": false,
      "t": 91192.08749999998,
      "d": 47.939765624993015,
      "v": 60
    },
    {
      "midi": 63,
      "hit": false,
      "t": 91192.08749999998,
      "d": 65.6952343749872,
      "v": 66
    },
    {
      "midi": 60,
      "hit": false,
      "t": 91192.08749999998,
      "d": 72.79742187498778,
      "v": 89
    },
    {
      "midi": 56,
      "hit": false,
      "t": 91362.53999999996,
      "d": 58.593046875001164,
      "v": 82
    },
    {
      "midi": 61,
      "hit": false,
      "t": 91362.53999999996,
      "d": 58.593046875001164,
      "v": 97
    },
    {
      "midi": 65,
      "hit": false,
      "t": 91362.53999999996,
      "d": 65.69523437500175,
      "v": 105
    },
    {
      "midi": 65,
      "hit": false,
      "t": 91532.99249999996,
      "d": 37.28648437499942,
      "v": 67
    },
    {
      "midi": 56,
      "hit": false,
      "t": 91532.99249999996,
      "d": 44.388671875,
      "v": 76
    },
    {
      "midi": 61,
      "hit": false,
      "t": 91532.99249999996,
      "d": 44.388671875,
      "v": 72
    },
    {
      "midi": 56,
      "hit": false,
      "t": 91703.44499999996,
      "d": 101.20617187500466,
      "v": 56
    },
    {
      "midi": 61,
      "hit": false,
      "t": 91703.44499999996,
      "d": 122.5127343750064,
      "v": 53
    },
    {
      "midi": 65,
      "hit": false,
      "t": 91703.44499999996,
      "d": 200.6367968750128,
      "v": 71
    },
    {
      "midi": 61,
      "hit": false,
      "t": 92044.34999999998,
      "d": 140.26820312500058,
      "v": 93
    },
    {
      "midi": 56,
      "hit": false,
      "t": 92044.34999999998,
      "d": 143.8192968749936,
      "v": 92
    },
    {
      "midi": 65,
      "hit": false,
      "t": 92044.34999999998,
      "d": 143.8192968749936,
      "v": 106
    },
    {
      "midi": 56,
      "hit": false,
      "t": 92385.25499999998,
      "d": 150.92148437499418,
      "v": 113
    },
    {
      "midi": 65,
      "hit": false,
      "t": 92385.25499999998,
      "d": 172.22804687499593,
      "v": 114
    },
    {
      "midi": 61,
      "hit": false,
      "t": 92385.25499999998,
      "d": 225.49445312499302,
      "v": 113
    },
    {
      "midi": 58,
      "hit": false,
      "t": 92726.15999999997,
      "d": 548.6439843749977,
      "v": 109
    },
    {
      "midi": 67,
      "hit": false,
      "t": 92726.15999999997,
      "d": 548.6439843749977,
      "v": 117
    },
    {
      "midi": 63,
      "hit": false,
      "t": 92726.15999999997,
      "d": 555.7461718749983,
      "v": 119
    },
    {
      "midi": 63,
      "hit": false,
      "t": 93407.96999999997,
      "d": 356.8849218749965,
      "v": 84
    },
    {
      "midi": 58,
      "hit": false,
      "t": 93407.96999999997,
      "d": 360.4360156249895,
      "v": 91
    },
    {
      "midi": 67,
      "hit": false,
      "t": 93407.96999999997,
      "d": 385.2936718749843,
      "v": 93
    },
    {
      "midi": 58,
      "hit": false,
      "t": 93919.32749999996,
      "d": 55.0419531249936,
      "v": 79
    },
    {
      "midi": 63,
      "hit": false,
      "t": 93919.32749999996,
      "d": 76.34851562499534,
      "v": 81
    },
    {
      "midi": 67,
      "hit": false,
      "t": 93919.32749999996,
      "d": 76.34851562499534,
      "v": 95
    },
    {
      "midi": 61,
      "hit": false,
      "t": 94089.77999999996,
      "d": 55.0419531249936,
      "v": 127
    },
    {
      "midi": 65,
      "hit": false,
      "t": 94089.77999999996,
      "d": 58.59304687498661,
      "v": 127
    },
    {
      "midi": 56,
      "hit": false,
      "t": 94089.77999999996,
      "d": 65.6952343749872,
      "v": 127
    },
    {
      "midi": 68,
      "hit": false,
      "t": 94089.77999999996,
      "d": 395.9469531249779,
      "v": 127
    },
    {
      "midi": 61,
      "hit": false,
      "t": 94260.23249999994,
      "d": 44.388671875,
      "v": 88
    },
    {
      "midi": 56,
      "hit": false,
      "t": 94260.23249999994,
      "d": 55.0419531249936,
      "v": 73
    },
    {
      "midi": 65,
      "hit": false,
      "t": 94260.23249999994,
      "d": 55.0419531249936,
      "v": 96
    },
    {
      "midi": 61,
      "hit": false,
      "t": 94430.68499999994,
      "d": 83.45070312499593,
      "v": 93
    },
    {
      "midi": 56,
      "hit": false,
      "t": 94430.68499999994,
      "d": 111.85945312499825,
      "v": 85
    },
    {
      "midi": 65,
      "hit": false,
      "t": 94430.68499999994,
      "d": 111.85945312499825,
      "v": 101
    },
    {
      "midi": 68,
      "hit": false,
      "t": 94544.31999999993,
      "d": 328.47617187500873,
      "v": 127
    },
    {
      "midi": 61,
      "hit": false,
      "t": 94771.58999999994,
      "d": 111.85945312499825,
      "v": 106
    },
    {
      "midi": 56,
      "hit": false,
      "t": 94771.58999999994,
      "d": 129.61492187499243,
      "v": 107
    },
    {
      "midi": 65,
      "hit": false,
      "t": 94771.58999999994,
      "d": 229.04554687498603,
      "v": 106
    },
    {
      "midi": 68,
      "hit": false,
      "t": 94998.85999999993,
      "d": 385.29367187499884,
      "v": 126
    },
    {
      "midi": 61,
      "hit": false,
      "t": 95112.49499999992,
      "d": 129.61492187500698,
      "v": 91
    },
    {
      "midi": 65,
      "hit": false,
      "t": 95112.49499999992,
      "d": 129.61492187500698,
      "v": 98
    },
    {
      "midi": 56,
      "hit": false,
      "t": 95112.49499999992,
      "d": 143.81929687500815,
      "v": 91
    },
    {
      "midi": 61,
      "hit": false,
      "t": 95453.39999999992,
      "d": 140.26820312500058,
      "v": 104
    },
    {
      "midi": 58,
      "hit": false,
      "t": 95453.39999999992,
      "d": 207.73898437499884,
      "v": 112
    },
    {
      "midi": 65,
      "hit": false,
      "t": 95453.39999999992,
      "d": 1248.2094531249895,
      "v": 116
    },
    {
      "midi": 58,
      "hit": false,
      "t": 95453.40000000005,
      "d": 1351.1911718750052,
      "v": 1
    },
    {
      "midi": 68,
      "hit": false,
      "t": 95453.40000000005,
      "d": 1351.1911718750052,
      "v": 1
    },
    {
      "midi": 61,
      "hit": false,
      "t": 95453.40000000005,
      "d": 2714.811171875015,
      "v": 1
    },
    {
      "midi": 65,
      "hit": false,
      "t": 95453.40000000005,
      "d": 2714.811171875015,
      "v": 1
    },
    {
      "midi": 58,
      "hit": false,
      "t": 95794.30499999992,
      "d": 520.2352343749953,
      "v": 98
    },
    {
      "midi": 53,
      "hit": false,
      "t": 96135.20999999992,
      "d": 640.9724218749907,
      "v": 95
    },
    {
      "midi": 58,
      "hit": false,
      "t": 96476.11499999992,
      "d": 229.04554687498603,
      "v": 88
    },
    {
      "midi": 56,
      "hit": false,
      "t": 96817.01999999992,
      "d": 388.8447656250064,
      "v": 110
    },
    {
      "midi": 61,
      "hit": false,
      "t": 96817.01999999992,
      "d": 1173.6364843750052,
      "v": 120
    },
    {
      "midi": 65,
      "hit": false,
      "t": 96817.01999999992,
      "d": 1173.6364843750052,
      "v": 117
    },
    {
      "midi": 70,
      "hit": false,
      "t": 96817.02000000006,
      "d": 1351.1911718750052,
      "v": 1
    },
    {
      "midi": 56,
      "hit": false,
      "t": 97328.37749999993,
      "d": 150.92148437499418,
      "v": 116
    },
    {
      "midi": 53,
      "hit": false,
      "t": 97498.82999999993,
      "d": 257.4542968750029,
      "v": 114
    },
    {
      "midi": 56,
      "hit": false,
      "t": 97839.73499999993,
      "d": 150.92148437499418,
      "v": 106
    },
    {
      "midi": 58,
      "hit": false,
      "t": 98180.63999999993,
      "d": 566.3994531250064,
      "v": 124
    },
    {
      "midi": 67,
      "hit": false,
      "t": 98180.63999999993,
      "d": 577.052734375,
      "v": 111
    },
    {
      "midi": 63,
      "hit": false,
      "t": 98180.63999999993,
      "d": 594.8082031249942,
      "v": 110
    },
    {
      "midi": 72,
      "hit": false,
      "t": 98180.64000000007,
      "d": 1351.1911718750052,
      "v": 1
    },
    {
      "midi": 67,
      "hit": false,
      "t": 98180.64000000007,
      "d": 1692.096171875004,
      "v": 1
    },
    {
      "midi": 63,
      "hit": false,
      "t": 98180.64000000007,
      "d": 1862.5486718750035,
      "v": 1
    },
    {
      "midi": 67,
      "hit": false,
      "t": 98862.44999999992,
      "d": 292.9652343750058,
      "v": 112
    },
    {
      "midi": 63,
      "hit": false,
      "t": 98862.44999999992,
      "d": 321.37398437500815,
      "v": 124
    },
    {
      "midi": 58,
      "hit": false,
      "t": 98862.44999999992,
      "d": 342.6805468750099,
      "v": 114
    },
    {
      "midi": 58,
      "hit": false,
      "t": 99373.80749999994,
      "d": 37.28648437499942,
      "v": 83
    },
    {
      "midi": 63,
      "hit": false,
      "t": 99373.80749999994,
      "d": 37.28648437499942,
      "v": 87
    },
    {
      "midi": 67,
      "hit": false,
      "t": 99373.80749999994,
      "d": 65.69523437500175,
      "v": 103
    },
    {
      "midi": 63,
      "hit": false,
      "t": 99544.25999999994,
      "d": 87.00179687500349,
      "v": 122
    },
    {
      "midi": 58,
      "hit": false,
      "t": 99544.25999999994,
      "d": 104.75726562499767,
      "v": 108
    },
    {
      "midi": 67,
      "hit": false,
      "t": 99544.25999999994,
      "d": 225.49445312500757,
      "v": 111
    },
    {
      "midi": 75,
      "hit": false,
      "t": 99544.26000000008,
      "d": 498.9286718749936,
      "v": 1
    },
    {
      "midi": 63,
      "hit": false,
      "t": 99714.71249999994,
      "d": 19.53101562500524,
      "v": 59
    },
    {
      "midi": 68,
      "hit": false,
      "t": 99885.16499999995,
      "d": 292.9652343750058,
      "v": 127
    },
    {
      "midi": 63,
      "hit": false,
      "t": 99885.16499999995,
      "d": 328.47617187500873,
      "v": 125
    },
    {
      "midi": 58,
      "hit": false,
      "t": 99885.16499999995,
      "d": 356.88492187501106,
      "v": 109
    },
    {
      "midi": 63,
      "hit": false,
      "t": 100396.52249999996,
      "d": 349.7827343749959,
      "v": 123
    },
    {
      "midi": 58,
      "hit": false,
      "t": 100396.52249999996,
      "d": 406.6002343750006,
      "v": 110
    },
    {
      "midi": 67,
      "hit": false,
      "t": 100396.52249999996,
      "d": 474.07101562499884,
      "v": 110
    },
    {
      "midi": 58,
      "hit": false,
      "t": 100907.87999999996,
      "d": 616.1147656249959,
      "v": 104
    },
    {
      "midi": 61,
      "hit": false,
      "t": 100907.87999999996,
      "d": 616.1147656249959,
      "v": 93
    },
    {
      "midi": 65,
      "hit": false,
      "t": 100907.87999999996,
      "d": 616.1147656249959,
      "v": 111
    },
    {
      "midi": 58,
      "hit": false,
      "t": 100907.88000000008,
      "d": 1351.1911718750052,
      "v": 1
    },
    {
      "midi": 61,
      "hit": false,
      "t": 100907.88000000008,
      "d": 2714.8111718750006,
      "v": 1
    },
    {
      "midi": 65,
      "hit": false,
      "t": 100907.88000000008,
      "d": 2714.8111718750006,
      "v": 1
    },
    {
      "midi": 68,
      "hit": false,
      "t": 100907.88000000008,
      "d": 2714.8111718750006,
      "v": 1
    },
    {
      "midi": 61,
      "hit": false,
      "t": 101589.68999999996,
      "d": 406.6002343750006,
      "v": 96
    },
    {
      "midi": 58,
      "hit": false,
      "t": 101589.68999999996,
      "d": 413.70242187500116,
      "v": 97
    },
    {
      "midi": 65,
      "hit": false,
      "t": 101589.68999999996,
      "d": 413.70242187500116,
      "v": 111
    },
    {
      "midi": 58,
      "hit": false,
      "t": 102101.04749999996,
      "d": 58.593046875001164,
      "v": 76
    },
    {
      "midi": 65,
      "hit": false,
      "t": 102101.04749999996,
      "d": 65.69523437500175,
      "v": 91
    },
    {
      "midi": 61,
      "hit": false,
      "t": 102101.04749999996,
      "d": 72.79742187500233,
      "v": 85
    },
    {
      "midi": 58,
      "hit": false,
      "t": 102271.49999999996,
      "d": 83.45070312499593,
      "v": 97
    },
    {
      "midi": 61,
      "hit": false,
      "t": 102271.49999999996,
      "d": 94.10398437498952,
      "v": 96
    },
    {
      "midi": 65,
      "hit": false,
      "t": 102271.49999999996,
      "d": 101.2061718749901,
      "v": 106
    },
    {
      "midi": 58,
      "hit": false,
      "t": 102441.95249999994,
      "d": 72.79742187500233,
      "v": 67
    },
    {
      "midi": 61,
      "hit": false,
      "t": 102441.95249999994,
      "d": 72.79742187500233,
      "v": 83
    },
    {
      "midi": 65,
      "hit": false,
      "t": 102441.95249999994,
      "d": 94.10398437500407,
      "v": 104
    },
    {
      "midi": 61,
      "hit": false,
      "t": 102612.40499999994,
      "d": 186.4324218749971,
      "v": 80
    },
    {
      "midi": 58,
      "hit": false,
      "t": 102612.40499999994,
      "d": 200.63679687499825,
      "v": 78
    },
    {
      "midi": 65,
      "hit": false,
      "t": 102612.40499999994,
      "d": 200.63679687499825,
      "v": 94
    },
    {
      "midi": 61,
      "hit": false,
      "t": 102953.30999999994,
      "d": 158.02367187499476,
      "v": 111
    },
    {
      "midi": 58,
      "hit": false,
      "t": 102953.30999999994,
      "d": 186.4324218749971,
      "v": 119
    },
    {
      "midi": 65,
      "hit": false,
      "t": 102953.30999999994,
      "d": 218.39226562499243,
      "v": 120
    },
    {
      "midi": 65,
      "hit": false,
      "t": 103294.21499999994,
      "d": 225.49445312499302,
      "v": 109
    },
    {
      "midi": 58,
      "hit": false,
      "t": 103294.21499999994,
      "d": 229.04554687498603,
      "v": 108
    },
    {
      "midi": 61,
      "hit": false,
      "t": 103294.21499999994,
      "d": 236.1477343749866,
      "v": 111
    },
    {
      "midi": 58,
      "hit": false,
      "t": 103635.11999999992,
      "d": 555.7461718749983,
      "v": 108
    },
    {
      "midi": 67,
      "hit": false,
      "t": 103635.11999999992,
      "d": 566.3994531249919,
      "v": 118
    },
    {
      "midi": 63,
      "hit": false,
      "t": 103635.11999999992,
      "d": 569.9505468749849,
      "v": 127
    },
    {
      "midi": 63,
      "hit": false,
      "t": 103635.12000000008,
      "d": 1869.650859375004,
      "v": 1
    },
    {
      "midi": 67,
      "hit": false,
      "t": 103635.12000000008,
      "d": 1869.650859375004,
      "v": 1
    },
    {
      "midi": 70,
      "hit": false,
      "t": 103635.12000000008,
      "d": 1869.650859375004,
      "v": 1
    },
    {
      "midi": 63,
      "hit": false,
      "t": 104316.9299999999,
      "d": 360.4360156250041,
      "v": 89
    },
    {
      "midi": 67,
      "hit": false,
      "t": 104316.9299999999,
      "d": 395.946953125007,
      "v": 97
    },
    {
      "midi": 58,
      "hit": false,
      "t": 104316.9299999999,
      "d": 399.498046875,
      "v": 90
    },
    {
      "midi": 58,
      "hit": false,
      "t": 104828.2874999999,
      "d": 58.593046875001164,
      "v": 96
    },
    {
      "midi": 63,
      "hit": false,
      "t": 104828.2874999999,
      "d": 65.69523437500175,
      "v": 97
    },
    {
      "midi": 67,
      "hit": false,
      "t": 104828.2874999999,
      "d": 158.02367187499476,
      "v": 96
    },
    {
      "midi": 61,
      "hit": false,
      "t": 104998.7399999999,
      "d": 367.53820312500466,
      "v": 120
    },
    {
      "midi": 65,
      "hit": false,
      "t": 104998.7399999999,
      "d": 367.53820312500466,
      "v": 117
    },
    {
      "midi": 56,
      "hit": false,
      "t": 104998.7399999999,
      "d": 388.8447656250064,
      "v": 119
    },
    {
      "midi": 68,
      "hit": false,
      "t": 105339.6449999999,
      "d": 87.00179687500349,
      "v": 104
    },
    {
      "midi": 80,
      "hit": false,
      "t": 105339.6449999999,
      "d": 321.37398437500815,
      "v": 112
    },
    {
      "midi": 58,
      "hit": false,
      "t": 105680.54999999992,
      "d": 65.69523437500175,
      "v": 119
    },
    {
      "midi": 63,
      "hit": false,
      "t": 105680.54999999992,
      "d": 76.34851562499534,
      "v": 95
    },
    {
      "midi": 67,
      "hit": false,
      "t": 105680.54999999992,
      "d": 626.7680468749895,
      "v": 108
    },
    {
      "midi": 70,
      "hit": false,
      "t": 105680.54999999992,
      "d": 662.2789843749924,
      "v": 96
    },
    {
      "midi": 58,
      "hit": false,
      "t": 105851.00249999992,
      "d": 72.79742187500233,
      "v": 114
    },
    {
      "midi": 68,
      "hit": false,
      "t": 105851.00249999992,
      "d": 321.3739843749936,
      "v": 93
    },
    {
      "midi": 80,
      "hit": false,
      "t": 105851.00249999992,
      "d": 321.3739843749936,
      "v": 116
    },
    {
      "midi": 63,
      "hit": false,
      "t": 105851.00249999992,
      "d": 484.72429687499243,
      "v": 76
    },
    {
      "midi": 58,
      "hit": false,
      "t": 106021.45499999991,
      "d": 321.3739843749936,
      "v": 124
    },
    {
      "midi": 56,
      "hit": false,
      "t": 106362.35999999991,
      "d": 1180.7386718750058,
      "v": 91
    },
    {
      "midi": 60,
      "hit": false,
      "t": 106362.35999999991,
      "d": 1180.7386718750058,
      "v": 96
    },
    {
      "midi": 63,
      "hit": false,
      "t": 106362.35999999991,
      "d": 1180.7386718750058,
      "v": 76
    },
    {
      "midi": 68,
      "hit": false,
      "t": 106362.35999999991,
      "d": 1180.7386718750058,
      "v": 110
    },
    {
      "midi": 80,
      "hit": false,
      "t": 106362.35999999991,
      "d": 1180.7386718750058,
      "v": 114
    },
    {
      "midi": 63,
      "hit": false,
      "t": 106703.26500000009,
      "d": 1528.7458593750052,
      "v": 1
    },
    {
      "midi": 68,
      "hit": false,
      "t": 106703.26500000009,
      "d": 1528.7458593750052,
      "v": 1
    },
    {
      "midi": 72,
      "hit": false,
      "t": 106703.26500000009,
      "d": 1528.7458593750052,
      "v": 1
    },
    {
      "midi": 65,
      "hit": false,
      "t": 107725.97999999992,
      "d": 662.2789843749924,
      "v": 90
    },
    {
      "midi": 56,
      "hit": false,
      "t": 107725.97999999992,
      "d": 669.381171874993,
      "v": 76
    },
    {
      "midi": 61,
      "hit": false,
      "t": 107725.97999999992,
      "d": 669.381171874993,
      "v": 75
    },
    {
      "midi": 68,
      "hit": false,
      "t": 108066.88499999992,
      "d": 328.4761718749942,
      "v": 101
    },
    {
      "midi": 80,
      "hit": false,
      "t": 108066.88499999992,
      "d": 328.4761718749942,
      "v": 102
    },
    {
      "midi": 61,
      "hit": false,
      "t": 108237.3375000001,
      "d": 506.0308593749942,
      "v": 1
    },
    {
      "midi": 65,
      "hit": false,
      "t": 108237.3375000001,
      "d": 506.0308593749942,
      "v": 1
    },
    {
      "midi": 68,
      "hit": false,
      "t": 108237.3375000001,
      "d": 506.0308593749942,
      "v": 1
    },
    {
      "midi": 56,
      "hit": false,
      "t": 108407.78999999992,
      "d": 669.381171874993,
      "v": 74
    },
    {
      "midi": 61,
      "hit": false,
      "t": 108407.78999999992,
      "d": 669.381171874993,
      "v": 78
    },
    {
      "midi": 65,
      "hit": false,
      "t": 108407.78999999992,
      "d": 669.381171874993,
      "v": 75
    },
    {
      "midi": 68,
      "hit": false,
      "t": 108578.24249999992,
      "d": 491.826484374993,
      "v": 104
    },
    {
      "midi": 80,
      "hit": false,
      "t": 108578.24249999992,
      "d": 662.2789843749924,
      "v": 104
    },
    {
      "midi": 63,
      "hit": false,
      "t": 108748.6950000001,
      "d": 165.12585937499534,
      "v": 1
    },
    {
      "midi": 67,
      "hit": false,
      "t": 108748.6950000001,
      "d": 165.12585937499534,
      "v": 1
    },
    {
      "midi": 70,
      "hit": false,
      "t": 108748.6950000001,
      "d": 165.12585937499534,
      "v": 1
    },
    {
      "midi": 63,
      "hit": false,
      "t": 108919.1475000001,
      "d": 676.4833593749936,
      "v": 1
    },
    {
      "midi": 68,
      "hit": false,
      "t": 108919.1475000001,
      "d": 676.4833593749936,
      "v": 1
    },
    {
      "midi": 72,
      "hit": false,
      "t": 108919.1475000001,
      "d": 676.4833593749936,
      "v": 1
    },
    {
      "midi": 67,
      "hit": false,
      "t": 109089.59999999992,
      "d": 662.2789843749924,
      "v": 91
    },
    {
      "midi": 58,
      "hit": false,
      "t": 109089.59999999992,
      "d": 1010.2861718749919,
      "v": 99
    },
    {
      "midi": 63,
      "hit": false,
      "t": 109089.59999999992,
      "d": 1010.2861718749919,
      "v": 95
    },
    {
      "midi": 61,
      "hit": false,
      "t": 109600.95750000009,
      "d": 846.935859374993,
      "v": 1
    },
    {
      "midi": 67,
      "hit": false,
      "t": 109600.95750000009,
      "d": 846.935859374993,
      "v": 1
    },
    {
      "midi": 70,
      "hit": false,
      "t": 109600.95750000009,
      "d": 846.935859374993,
      "v": 1
    },
    {
      "midi": 67,
      "hit": false,
      "t": 109771.40999999992,
      "d": 498.9286718749936,
      "v": 105
    },
    {
      "midi": 79,
      "hit": false,
      "t": 109771.40999999992,
      "d": 498.9286718749936,
      "v": 107
    },
    {
      "midi": 56,
      "hit": false,
      "t": 110453.21999999991,
      "d": 662.2789843749924,
      "v": 74
    },
    {
      "midi": 61,
      "hit": false,
      "t": 110453.21999999991,
      "d": 662.2789843749924,
      "v": 79
    },
    {
      "midi": 65,
      "hit": false,
      "t": 110453.21999999991,
      "d": 662.2789843749924,
      "v": 78
    },
    {
      "midi": 61,
      "hit": false,
      "t": 110453.22000000009,
      "d": 676.4833593749936,
      "v": 1
    },
    {
      "midi": 65,
      "hit": false,
      "t": 110453.22000000009,
      "d": 676.4833593749936,
      "v": 1
    },
    {
      "midi": 68,
      "hit": false,
      "t": 110453.22000000009,
      "d": 676.4833593749936,
      "v": 1
    },
    {
      "midi": 68,
      "hit": false,
      "t": 110623.67249999991,
      "d": 491.826484374993,
      "v": 99
    },
    {
      "midi": 80,
      "hit": false,
      "t": 110623.67249999991,
      "d": 491.826484374993,
      "v": 101
    },
    {
      "midi": 67,
      "hit": false,
      "t": 111135.02999999991,
      "d": 150.92148437499418,
      "v": 83
    },
    {
      "midi": 58,
      "hit": false,
      "t": 111135.02999999991,
      "d": 491.826484374993,
      "v": 77
    },
    {
      "midi": 63,
      "hit": false,
      "t": 111135.02999999991,
      "d": 491.826484374993,
      "v": 81
    },
    {
      "midi": 61,
      "hit": false,
      "t": 111135.03000000009,
      "d": 1017.388359375007,
      "v": 1
    },
    {
      "midi": 67,
      "hit": false,
      "t": 111135.03000000009,
      "d": 1017.388359375007,
      "v": 1
    },
    {
      "midi": 70,
      "hit": false,
      "t": 111135.03000000009,
      "d": 1017.388359375007,
      "v": 1
    },
    {
      "midi": 67,
      "hit": false,
      "t": 111305.48249999991,
      "d": 491.826484374993,
      "v": 80
    },
    {
      "midi": 79,
      "hit": false,
      "t": 111305.48249999991,
      "d": 491.826484374993,
      "v": 106
    },
    {
      "midi": 56,
      "hit": false,
      "t": 111816.83999999991,
      "d": 662.278984375007,
      "v": 70
    },
    {
      "midi": 60,
      "hit": false,
      "t": 111816.83999999991,
      "d": 662.278984375007,
      "v": 87
    },
    {
      "midi": 63,
      "hit": false,
      "t": 111816.83999999991,
      "d": 662.278984375007,
      "v": 82
    },
    {
      "midi": 63,
      "hit": false,
      "t": 112157.7450000001,
      "d": 1358.2933593750058,
      "v": 1
    },
    {
      "midi": 68,
      "hit": false,
      "t": 112157.7450000001,
      "d": 1358.2933593750058,
      "v": 1
    },
    {
      "midi": 72,
      "hit": false,
      "t": 112157.7450000001,
      "d": 1358.2933593750058,
      "v": 1
    },
    {
      "midi": 56,
      "hit": false,
      "t": 112498.64999999992,
      "d": 662.2789843749924,
      "v": 80
    },
    {
      "midi": 60,
      "hit": false,
      "t": 112498.64999999992,
      "d": 662.2789843749924,
      "v": 81
    },
    {
      "midi": 63,
      "hit": false,
      "t": 112498.64999999992,
      "d": 662.2789843749924,
      "v": 83
    },
    {
      "midi": 68,
      "hit": false,
      "t": 112839.55499999992,
      "d": 832.7314843749919,
      "v": 100
    },
    {
      "midi": 80,
      "hit": false,
      "t": 112839.55499999992,
      "d": 832.7314843749919,
      "v": 101
    },
    {
      "midi": 56,
      "hit": false,
      "t": 113180.45999999992,
      "d": 662.2789843749924,
      "v": 79
    },
    {
      "midi": 61,
      "hit": false,
      "t": 113180.45999999992,
      "d": 662.2789843749924,
      "v": 74
    },
    {
      "midi": 65,
      "hit": false,
      "t": 113180.45999999992,
      "d": 662.2789843749924,
      "v": 79
    },
    {
      "midi": 60,
      "hit": false,
      "t": 113521.3650000001,
      "d": 165.12585937499534,
      "v": 1
    },
    {
      "midi": 65,
      "hit": false,
      "t": 113521.3650000001,
      "d": 165.12585937499534,
      "v": 1
    },
    {
      "midi": 68,
      "hit": false,
      "t": 113521.3650000001,
      "d": 165.12585937499534,
      "v": 1
    },
    {
      "midi": 61,
      "hit": false,
      "t": 113691.8175000001,
      "d": 506.0308593749942,
      "v": 1
    },
    {
      "midi": 67,
      "hit": false,
      "t": 113691.8175000001,
      "d": 506.0308593749942,
      "v": 1
    },
    {
      "midi": 70,
      "hit": false,
      "t": 113691.8175000001,
      "d": 506.0308593749942,
      "v": 1
    },
    {
      "midi": 56,
      "hit": false,
      "t": 113862.26999999992,
      "d": 662.2789843749924,
      "v": 80
    },
    {
      "midi": 61,
      "hit": false,
      "t": 113862.26999999992,
      "d": 662.2789843749924,
      "v": 78
    },
    {
      "midi": 65,
      "hit": false,
      "t": 113862.26999999992,
      "d": 662.2789843749924,
      "v": 81
    },
    {
      "midi": 68,
      "hit": false,
      "t": 114203.17499999992,
      "d": 832.7314843749919,
      "v": 100
    },
    {
      "midi": 80,
      "hit": false,
      "t": 114203.17499999992,
      "d": 832.7314843749919,
      "v": 107
    },
    {
      "midi": 63,
      "hit": false,
      "t": 114203.1750000001,
      "d": 846.935859374993,
      "v": 1
    },
    {
      "midi": 68,
      "hit": false,
      "t": 114203.1750000001,
      "d": 846.935859374993,
      "v": 1
    },
    {
      "midi": 72,
      "hit": false,
      "t": 114203.1750000001,
      "d": 846.935859374993,
      "v": 1
    },
    {
      "midi": 58,
      "hit": false,
      "t": 114544.07999999991,
      "d": 662.2789843749924,
      "v": 82
    },
    {
      "midi": 63,
      "hit": false,
      "t": 114544.07999999991,
      "d": 662.2789843749924,
      "v": 85
    },
    {
      "midi": 67,
      "hit": false,
      "t": 114544.07999999991,
      "d": 662.2789843749924,
      "v": 81
    },
    {
      "midi": 61,
      "hit": false,
      "t": 115055.4375000001,
      "d": 846.935859374993,
      "v": 1
    },
    {
      "midi": 67,
      "hit": false,
      "t": 115055.4375000001,
      "d": 846.935859374993,
      "v": 1
    },
    {
      "midi": 70,
      "hit": false,
      "t": 115055.4375000001,
      "d": 846.935859374993,
      "v": 1
    },
    {
      "midi": 58,
      "hit": false,
      "t": 115225.88999999991,
      "d": 662.2789843749924,
      "v": 86
    },
    {
      "midi": 63,
      "hit": false,
      "t": 115225.88999999991,
      "d": 662.2789843749924,
      "v": 88
    },
    {
      "midi": 67,
      "hit": false,
      "t": 115225.88999999991,
      "d": 662.2789843749924,
      "v": 82
    },
    {
      "midi": 68,
      "hit": false,
      "t": 115566.79499999991,
      "d": 832.7314843749919,
      "v": 105
    },
    {
      "midi": 80,
      "hit": false,
      "t": 115566.79499999991,
      "d": 832.7314843749919,
      "v": 101
    },
    {
      "midi": 56,
      "hit": false,
      "t": 115907.69999999991,
      "d": 662.2789843749924,
      "v": 81
    },
    {
      "midi": 61,
      "hit": false,
      "t": 115907.69999999991,
      "d": 662.2789843749924,
      "v": 89
    },
    {
      "midi": 65,
      "hit": false,
      "t": 115907.69999999991,
      "d": 662.2789843749924,
      "v": 86
    },
    {
      "midi": 61,
      "hit": false,
      "t": 115907.7000000001,
      "d": 676.4833593749936,
      "v": 1
    },
    {
      "midi": 65,
      "hit": false,
      "t": 115907.7000000001,
      "d": 676.4833593749936,
      "v": 1
    },
    {
      "midi": 68,
      "hit": false,
      "t": 115907.7000000001,
      "d": 676.4833593749936,
      "v": 1
    },
    {
      "midi": 58,
      "hit": false,
      "t": 116589.50999999991,
      "d": 662.2789843749924,
      "v": 91
    },
    {
      "midi": 63,
      "hit": false,
      "t": 116589.50999999991,
      "d": 662.2789843749924,
      "v": 82
    },
    {
      "midi": 67,
      "hit": false,
      "t": 116589.50999999991,
      "d": 662.2789843749924,
      "v": 87
    },
    {
      "midi": 61,
      "hit": false,
      "t": 116589.5100000001,
      "d": 1017.388359375007,
      "v": 1
    },
    {
      "midi": 67,
      "hit": false,
      "t": 116589.5100000001,
      "d": 1017.388359375007,
      "v": 1
    },
    {
      "midi": 70,
      "hit": false,
      "t": 116589.5100000001,
      "d": 1017.388359375007,
      "v": 1
    },
    {
      "midi": 70,
      "hit": false,
      "t": 116930.4149999999,
      "d": 328.4761718749942,
      "v": 102
    },
    {
      "midi": 82,
      "hit": false,
      "t": 116930.4149999999,
      "d": 328.4761718749942,
      "v": 105
    },
    {
      "midi": 56,
      "hit": false,
      "t": 117271.3199999999,
      "d": 498.9286718749936,
      "v": 78
    },
    {
      "midi": 63,
      "hit": false,
      "t": 117271.3199999999,
      "d": 498.9286718749936,
      "v": 71
    },
    {
      "midi": 60,
      "hit": false,
      "t": 117271.3199999999,
      "d": 662.2789843749924,
      "v": 85
    },
    {
      "midi": 68,
      "hit": false,
      "t": 117612.2249999999,
      "d": 662.2789843749924,
      "v": 95
    },
    {
      "midi": 80,
      "hit": false,
      "t": 117612.2249999999,
      "d": 662.2789843749924,
      "v": 106
    },
    {
      "midi": 63,
      "hit": false,
      "t": 117612.22500000011,
      "d": 1528.7458593750052,
      "v": 1
    },
    {
      "midi": 68,
      "hit": false,
      "t": 117612.22500000011,
      "d": 1528.7458593750052,
      "v": 1
    },
    {
      "midi": 72,
      "hit": false,
      "t": 117612.22500000011,
      "d": 1528.7458593750052,
      "v": 1
    },
    {
      "midi": 56,
      "hit": false,
      "t": 117953.1299999999,
      "d": 498.9286718749936,
      "v": 57
    },
    {
      "midi": 60,
      "hit": false,
      "t": 117953.1299999999,
      "d": 498.9286718749936,
      "v": 79
    },
    {
      "midi": 63,
      "hit": false,
      "t": 117953.1299999999,
      "d": 662.2789843749924,
      "v": 65
    },
    {
      "midi": 68,
      "hit": false,
      "t": 118294.0349999999,
      "d": 498.9286718749936,
      "v": 97
    },
    {
      "midi": 80,
      "hit": false,
      "t": 118294.0349999999,
      "d": 498.9286718749936,
      "v": 90
    },
    {
      "midi": 61,
      "hit": false,
      "t": 118634.9399999999,
      "d": 662.2789843749924,
      "v": 90
    },
    {
      "midi": 65,
      "hit": false,
      "t": 118634.9399999999,
      "d": 662.2789843749924,
      "v": 78
    },
    {
      "midi": 56,
      "hit": false,
      "t": 118634.9399999999,
      "d": 669.381171874993,
      "v": 85
    },
    {
      "midi": 68,
      "hit": false,
      "t": 118975.8449999999,
      "d": 498.9286718749936,
      "v": 87
    },
    {
      "midi": 80,
      "hit": false,
      "t": 118975.8449999999,
      "d": 498.9286718749936,
      "v": 91
    },
    {
      "midi": 61,
      "hit": false,
      "t": 119146.29750000012,
      "d": 506.0308593749942,
      "v": 1
    },
    {
      "midi": 65,
      "hit": false,
      "t": 119146.29750000012,
      "d": 506.0308593749942,
      "v": 1
    },
    {
      "midi": 56,
      "hit": false,
      "t": 119316.7499999999,
      "d": 498.9286718749936,
      "v": 80
    },
    {
      "midi": 61,
      "hit": false,
      "t": 119316.7499999999,
      "d": 498.9286718749936,
      "v": 74
    },
    {
      "midi": 65,
      "hit": false,
      "t": 119316.7499999999,
      "d": 498.9286718749936,
      "v": 80
    },
    {
      "midi": 68,
      "hit": false,
      "t": 119657.6549999999,
      "d": 328.4761718749942,
      "v": 89
    },
    {
      "midi": 80,
      "hit": false,
      "t": 119657.6549999999,
      "d": 328.4761718749942,
      "v": 78
    },
    {
      "midi": 63,
      "hit": false,
      "t": 119657.65500000012,
      "d": 165.12585937499534,
      "v": 1
    },
    {
      "midi": 67,
      "hit": false,
      "t": 119657.65500000012,
      "d": 165.12585937499534,
      "v": 1
    },
    {
      "midi": 70,
      "hit": false,
      "t": 119657.65500000012,
      "d": 165.12585937499534,
      "v": 1
    },
    {
      "midi": 63,
      "hit": false,
      "t": 119828.10750000011,
      "d": 676.4833593749936,
      "v": 1
    },
    {
      "midi": 68,
      "hit": false,
      "t": 119828.10750000011,
      "d": 676.4833593749936,
      "v": 1
    },
    {
      "midi": 72,
      "hit": false,
      "t": 119828.10750000011,
      "d": 676.4833593749936,
      "v": 1
    },
    {
      "midi": 67,
      "hit": false,
      "t": 119998.5599999999,
      "d": 328.4761718749942,
      "v": 82
    },
    {
      "midi": 63,
      "hit": false,
      "t": 119998.5599999999,
      "d": 662.2789843749924,
      "v": 73
    },
    {
      "midi": 58,
      "hit": false,
      "t": 119998.5599999999,
      "d": 669.381171874993,
      "v": 72
    },
    {
      "midi": 68,
      "hit": false,
      "t": 120339.4649999999,
      "d": 328.4761718749942,
      "v": 73
    },
    {
      "midi": 80,
      "hit": false,
      "t": 120339.4649999999,
      "d": 498.9286718749936,
      "v": 85
    },
    {
      "midi": 61,
      "hit": false,
      "t": 120509.91750000011,
      "d": 846.935859374993,
      "v": 1
    },
    {
      "midi": 67,
      "hit": false,
      "t": 120509.91750000011,
      "d": 846.935859374993,
      "v": 1
    },
    {
      "midi": 70,
      "hit": false,
      "t": 120509.91750000011,
      "d": 846.935859374993,
      "v": 1
    },
    {
      "midi": 67,
      "hit": false,
      "t": 120680.3699999999,
      "d": 328.4761718749942,
      "v": 80
    },
    {
      "midi": 58,
      "hit": false,
      "t": 120680.3699999999,
      "d": 669.381171874993,
      "v": 80
    },
    {
      "midi": 63,
      "hit": false,
      "t": 120680.3699999999,
      "d": 669.381171874993,
      "v": 75
    },
    {
      "midi": 68,
      "hit": false,
      "t": 121021.27499999989,
      "d": 328.4761718749942,
      "v": 74
    },
    {
      "midi": 80,
      "hit": false,
      "t": 121021.27499999989,
      "d": 328.4761718749942,
      "v": 86
    },
    {
      "midi": 65,
      "hit": false,
      "t": 121362.17999999989,
      "d": 498.9286718749936,
      "v": 85
    },
    {
      "midi": 56,
      "hit": false,
      "t": 121362.17999999989,
      "d": 669.381171874993,
      "v": 81
    },
    {
      "midi": 61,
      "hit": false,
      "t": 121362.17999999989,
      "d": 669.381171874993,
      "v": 81
    },
    {
      "midi": 61,
      "hit": false,
      "t": 121362.18000000011,
      "d": 676.4833593749936,
      "v": 1
    },
    {
      "midi": 65,
      "hit": false,
      "t": 121362.18000000011,
      "d": 676.4833593749936,
      "v": 1
    },
    {
      "midi": 68,
      "hit": false,
      "t": 121362.18000000011,
      "d": 676.4833593749936,
      "v": 1
    },
    {
      "midi": 68,
      "hit": false,
      "t": 121703.08499999989,
      "d": 328.4761718749942,
      "v": 79
    },
    {
      "midi": 80,
      "hit": false,
      "t": 121703.08499999989,
      "d": 328.4761718749942,
      "v": 94
    },
    {
      "midi": 58,
      "hit": false,
      "t": 122043.98999999989,
      "d": 669.381171874993,
      "v": 77
    },
    {
      "midi": 63,
      "hit": false,
      "t": 122043.98999999989,
      "d": 669.381171874993,
      "v": 82
    },
    {
      "midi": 61,
      "hit": false,
      "t": 122043.9900000001,
      "d": 676.4833593749936,
      "v": 1
    },
    {
      "midi": 67,
      "hit": false,
      "t": 122043.9900000001,
      "d": 676.4833593749936,
      "v": 1
    },
    {
      "midi": 70,
      "hit": false,
      "t": 122043.9900000001,
      "d": 676.4833593749936,
      "v": 1
    },
    {
      "midi": 67,
      "hit": false,
      "t": 122384.89499999989,
      "d": 328.4761718749942,
      "v": 76
    },
    {
      "midi": 79,
      "hit": false,
      "t": 122384.89499999989,
      "d": 328.4761718749942,
      "v": 96
    },
    {
      "midi": 65,
      "hit": false,
      "t": 122725.79999999989,
      "d": 328.4761718749942,
      "v": 91
    },
    {
      "midi": 56,
      "hit": false,
      "t": 122725.79999999989,
      "d": 498.9286718749936,
      "v": 89
    },
    {
      "midi": 61,
      "hit": false,
      "t": 122725.79999999989,
      "d": 498.9286718749936,
      "v": 90
    },
    {
      "midi": 77,
      "hit": false,
      "t": 122725.79999999989,
      "d": 4760.241171874994,
      "v": 89
    },
    {
      "midi": 56,
      "hit": false,
      "t": 123407.60999999988,
      "d": 4078.431171874996,
      "v": 76
    },
    {
      "midi": 61,
      "hit": false,
      "t": 123407.60999999988,
      "d": 4078.431171874996,
      "v": 78
    },
    {
      "midi": 65,
      "hit": false,
      "t": 123407.60999999988,
      "d": 4078.431171874996,
      "v": 75
    },
    {
      "midi": 73,
      "hit": false,
      "t": 123407.60999999988,
      "d": 4078.431171874996,
      "v": 82
    },
    {
      "midi": 63,
      "hit": false,
      "t": 155793.5850000001,
      "d": 1528.7458593749907,
      "v": 1
    },
    {
      "midi": 68,
      "hit": false,
      "t": 155793.5850000001,
      "d": 1528.7458593749907,
      "v": 1
    },
    {
      "midi": 72,
      "hit": false,
      "t": 155793.5850000001,
      "d": 1528.7458593749907,
      "v": 1
    },
    {
      "midi": 61,
      "hit": false,
      "t": 157327.6575000001,
      "d": 506.0308593749942,
      "v": 1
    },
    {
      "midi": 65,
      "hit": false,
      "t": 157327.6575000001,
      "d": 506.0308593749942,
      "v": 1
    },
    {
      "midi": 68,
      "hit": false,
      "t": 157327.6575000001,
      "d": 506.0308593749942,
      "v": 1
    },
    {
      "midi": 63,
      "hit": false,
      "t": 157839.01500000007,
      "d": 165.12585937499534,
      "v": 1
    },
    {
      "midi": 67,
      "hit": false,
      "t": 157839.01500000007,
      "d": 165.12585937499534,
      "v": 1
    },
    {
      "midi": 70,
      "hit": false,
      "t": 157839.01500000007,
      "d": 165.12585937499534,
      "v": 1
    },
    {
      "midi": 63,
      "hit": false,
      "t": 158009.46750000006,
      "d": 676.4833593750081,
      "v": 1
    },
    {
      "midi": 68,
      "hit": false,
      "t": 158009.46750000006,
      "d": 676.4833593750081,
      "v": 1
    },
    {
      "midi": 72,
      "hit": false,
      "t": 158009.46750000006,
      "d": 676.4833593750081,
      "v": 1
    },
    {
      "midi": 61,
      "hit": false,
      "t": 158691.27750000005,
      "d": 846.935859374993,
      "v": 1
    },
    {
      "midi": 67,
      "hit": false,
      "t": 158691.27750000005,
      "d": 846.935859374993,
      "v": 1
    },
    {
      "midi": 70,
      "hit": false,
      "t": 158691.27750000005,
      "d": 846.935859374993,
      "v": 1
    },
    {
      "midi": 61,
      "hit": false,
      "t": 159543.54000000004,
      "d": 676.4833593750081,
      "v": 1
    },
    {
      "midi": 65,
      "hit": false,
      "t": 159543.54000000004,
      "d": 676.4833593750081,
      "v": 1
    },
    {
      "midi": 68,
      "hit": false,
      "t": 159543.54000000004,
      "d": 676.4833593750081,
      "v": 1
    },
    {
      "midi": 61,
      "hit": false,
      "t": 160225.35000000003,
      "d": 1017.388359375007,
      "v": 1
    },
    {
      "midi": 67,
      "hit": false,
      "t": 160225.35000000003,
      "d": 1017.388359375007,
      "v": 1
    },
    {
      "midi": 70,
      "hit": false,
      "t": 160225.35000000003,
      "d": 1017.388359375007,
      "v": 1
    },
    {
      "midi": 63,
      "hit": false,
      "t": 161248.06500000003,
      "d": 1358.2933593750058,
      "v": 1
    },
    {
      "midi": 68,
      "hit": false,
      "t": 161248.06500000003,
      "d": 1358.2933593750058,
      "v": 1
    },
    {
      "midi": 72,
      "hit": false,
      "t": 161248.06500000003,
      "d": 1358.2933593750058,
      "v": 1
    },
    {
      "midi": 60,
      "hit": false,
      "t": 162611.68500000003,
      "d": 165.12585937499534,
      "v": 1
    },
    {
      "midi": 65,
      "hit": false,
      "t": 162611.68500000003,
      "d": 165.12585937499534,
      "v": 1
    },
    {
      "midi": 68,
      "hit": false,
      "t": 162611.68500000003,
      "d": 165.12585937499534,
      "v": 1
    },
    {
      "midi": 61,
      "hit": false,
      "t": 162782.1375,
      "d": 506.0308593749942,
      "v": 1
    },
    {
      "midi": 67,
      "hit": false,
      "t": 162782.1375,
      "d": 506.0308593749942,
      "v": 1
    },
    {
      "midi": 70,
      "hit": false,
      "t": 162782.1375,
      "d": 506.0308593749942,
      "v": 1
    },
    {
      "midi": 63,
      "hit": false,
      "t": 163293.495,
      "d": 846.935859374993,
      "v": 1
    },
    {
      "midi": 68,
      "hit": false,
      "t": 163293.495,
      "d": 846.935859374993,
      "v": 1
    },
    {
      "midi": 72,
      "hit": false,
      "t": 163293.495,
      "d": 846.935859374993,
      "v": 1
    },
    {
      "midi": 61,
      "hit": false,
      "t": 164145.75749999998,
      "d": 846.935859374993,
      "v": 1
    },
    {
      "midi": 67,
      "hit": false,
      "t": 164145.75749999998,
      "d": 846.935859374993,
      "v": 1
    },
    {
      "midi": 70,
      "hit": false,
      "t": 164145.75749999998,
      "d": 846.935859374993,
      "v": 1
    },
    {
      "midi": 61,
      "hit": false,
      "t": 164998.01999999996,
      "d": 676.4833593750081,
      "v": 1
    },
    {
      "midi": 65,
      "hit": false,
      "t": 164998.01999999996,
      "d": 676.4833593750081,
      "v": 1
    },
    {
      "midi": 68,
      "hit": false,
      "t": 164998.01999999996,
      "d": 676.4833593750081,
      "v": 1
    },
    {
      "midi": 61,
      "hit": false,
      "t": 165679.82999999996,
      "d": 1017.388359375007,
      "v": 1
    },
    {
      "midi": 67,
      "hit": false,
      "t": 165679.82999999996,
      "d": 1017.388359375007,
      "v": 1
    },
    {
      "midi": 70,
      "hit": false,
      "t": 165679.82999999996,
      "d": 1017.388359375007,
      "v": 1
    },
    {
      "midi": 63,
      "hit": false,
      "t": 166702.54499999995,
      "d": 1528.7458593749907,
      "v": 1
    },
    {
      "midi": 68,
      "hit": false,
      "t": 166702.54499999995,
      "d": 1528.7458593749907,
      "v": 1
    },
    {
      "midi": 72,
      "hit": false,
      "t": 166702.54499999995,
      "d": 1528.7458593749907,
      "v": 1
    },
    {
      "midi": 61,
      "hit": false,
      "t": 168236.61749999993,
      "d": 506.0308593749942,
      "v": 1
    },
    {
      "midi": 65,
      "hit": false,
      "t": 168236.61749999993,
      "d": 506.0308593749942,
      "v": 1
    },
    {
      "midi": 63,
      "hit": false,
      "t": 168747.97499999992,
      "d": 165.12585937499534,
      "v": 1
    },
    {
      "midi": 67,
      "hit": false,
      "t": 168747.97499999992,
      "d": 165.12585937499534,
      "v": 1
    },
    {
      "midi": 70,
      "hit": false,
      "t": 168747.97499999992,
      "d": 165.12585937499534,
      "v": 1
    },
    {
      "midi": 63,
      "hit": false,
      "t": 168918.4274999999,
      "d": 676.4833593750081,
      "v": 1
    },
    {
      "midi": 68,
      "hit": false,
      "t": 168918.4274999999,
      "d": 676.4833593750081,
      "v": 1
    },
    {
      "midi": 72,
      "hit": false,
      "t": 168918.4274999999,
      "d": 676.4833593750081,
      "v": 1
    },
    {
      "midi": 61,
      "hit": false,
      "t": 169600.2374999999,
      "d": 846.935859374993,
      "v": 1
    },
    {
      "midi": 67,
      "hit": false,
      "t": 169600.2374999999,
      "d": 846.935859374993,
      "v": 1
    },
    {
      "midi": 70,
      "hit": false,
      "t": 169600.2374999999,
      "d": 846.935859374993,
      "v": 1
    },
    {
      "midi": 61,
      "hit": false,
      "t": 170452.49999999988,
      "d": 676.4833593750081,
      "v": 1
    },
    {
      "midi": 65,
      "hit": false,
      "t": 170452.49999999988,
      "d": 676.4833593750081,
      "v": 1
    },
    {
      "midi": 68,
      "hit": false,
      "t": 170452.49999999988,
      "d": 676.4833593750081,
      "v": 1
    },
    {
      "midi": 61,
      "hit": false,
      "t": 171134.30999999988,
      "d": 676.4833593750081,
      "v": 1
    },
    {
      "midi": 67,
      "hit": false,
      "t": 171134.30999999988,
      "d": 676.4833593750081,
      "v": 1
    },
    {
      "midi": 70,
      "hit": false,
      "t": 171134.30999999988,
      "d": 676.4833593750081,
      "v": 1
    },
    {
      "midi": 63,
      "hit": false,
      "t": 172157.02499999988,
      "d": 1528.7458593749907,
      "v": 1
    },
    {
      "midi": 68,
      "hit": false,
      "t": 172157.02499999988,
      "d": 1528.7458593749907,
      "v": 1
    },
    {
      "midi": 72,
      "hit": false,
      "t": 172157.02499999988,
      "d": 1528.7458593749907,
      "v": 1
    },
    {
      "midi": 61,
      "hit": false,
      "t": 173691.09749999986,
      "d": 506.0308593749942,
      "v": 1
    },
    {
      "midi": 65,
      "hit": false,
      "t": 173691.09749999986,
      "d": 506.0308593749942,
      "v": 1
    },
    {
      "midi": 68,
      "hit": false,
      "t": 173691.09749999986,
      "d": 506.0308593749942,
      "v": 1
    },
    {
      "midi": 63,
      "hit": false,
      "t": 174202.45499999984,
      "d": 165.12585937499534,
      "v": 1
    },
    {
      "midi": 67,
      "hit": false,
      "t": 174202.45499999984,
      "d": 165.12585937499534,
      "v": 1
    },
    {
      "midi": 70,
      "hit": false,
      "t": 174202.45499999984,
      "d": 165.12585937499534,
      "v": 1
    },
    {
      "midi": 63,
      "hit": false,
      "t": 174372.90749999983,
      "d": 676.4833593750081,
      "v": 1
    },
    {
      "midi": 68,
      "hit": false,
      "t": 174372.90749999983,
      "d": 676.4833593750081,
      "v": 1
    },
    {
      "midi": 72,
      "hit": false,
      "t": 174372.90749999983,
      "d": 676.4833593750081,
      "v": 1
    },
    {
      "midi": 61,
      "hit": false,
      "t": 175054.71749999982,
      "d": 846.935859374993,
      "v": 1
    },
    {
      "midi": 67,
      "hit": false,
      "t": 175054.71749999982,
      "d": 846.935859374993,
      "v": 1
    },
    {
      "midi": 70,
      "hit": false,
      "t": 175054.71749999982,
      "d": 846.935859374993,
      "v": 1
    },
    {
      "midi": 61,
      "hit": false,
      "t": 175906.9799999998,
      "d": 676.4833593750081,
      "v": 1
    },
    {
      "midi": 65,
      "hit": false,
      "t": 175906.9799999998,
      "d": 676.4833593750081,
      "v": 1
    },
    {
      "midi": 68,
      "hit": false,
      "t": 175906.9799999998,
      "d": 676.4833593750081,
      "v": 1
    },
    {
      "midi": 61,
      "hit": false,
      "t": 176588.7899999998,
      "d": 1017.388359375007,
      "v": 1
    },
    {
      "midi": 67,
      "hit": false,
      "t": 176588.7899999998,
      "d": 1017.388359375007,
      "v": 1
    },
    {
      "midi": 70,
      "hit": false,
      "t": 176588.7899999998,
      "d": 1017.388359375007,
      "v": 1
    },
    {
      "midi": 63,
      "hit": false,
      "t": 177611.5049999998,
      "d": 1358.2933593750058,
      "v": 1
    },
    {
      "midi": 68,
      "hit": false,
      "t": 177611.5049999998,
      "d": 1358.2933593750058,
      "v": 1
    },
    {
      "midi": 72,
      "hit": false,
      "t": 177611.5049999998,
      "d": 1358.2933593750058,
      "v": 1
    },
    {
      "midi": 60,
      "hit": false,
      "t": 178975.1249999998,
      "d": 165.12585937499534,
      "v": 1
    },
    {
      "midi": 65,
      "hit": false,
      "t": 178975.1249999998,
      "d": 165.12585937499534,
      "v": 1
    },
    {
      "midi": 68,
      "hit": false,
      "t": 178975.1249999998,
      "d": 165.12585937499534,
      "v": 1
    },
    {
      "midi": 61,
      "hit": false,
      "t": 179145.57749999978,
      "d": 506.0308593749942,
      "v": 1
    },
    {
      "midi": 67,
      "hit": false,
      "t": 179145.57749999978,
      "d": 506.0308593749942,
      "v": 1
    },
    {
      "midi": 70,
      "hit": false,
      "t": 179145.57749999978,
      "d": 506.0308593749942,
      "v": 1
    },
    {
      "midi": 63,
      "hit": false,
      "t": 179656.93499999976,
      "d": 846.935859374993,
      "v": 1
    },
    {
      "midi": 68,
      "hit": false,
      "t": 179656.93499999976,
      "d": 846.935859374993,
      "v": 1
    },
    {
      "midi": 72,
      "hit": false,
      "t": 179656.93499999976,
      "d": 846.935859374993,
      "v": 1
    },
    {
      "midi": 61,
      "hit": false,
      "t": 180509.19749999975,
      "d": 846.935859374993,
      "v": 1
    },
    {
      "midi": 67,
      "hit": false,
      "t": 180509.19749999975,
      "d": 846.935859374993,
      "v": 1
    },
    {
      "midi": 70,
      "hit": false,
      "t": 180509.19749999975,
      "d": 846.935859374993,
      "v": 1
    },
    {
      "midi": 61,
      "hit": false,
      "t": 181361.45999999973,
      "d": 676.4833593750081,
      "v": 1
    },
    {
      "midi": 65,
      "hit": false,
      "t": 181361.45999999973,
      "d": 676.4833593750081,
      "v": 1
    },
    {
      "midi": 68,
      "hit": false,
      "t": 181361.45999999973,
      "d": 676.4833593750081,
      "v": 1
    },
    {
      "midi": 61,
      "hit": false,
      "t": 182043.26999999973,
      "d": 1017.388359375007,
      "v": 1
    },
    {
      "midi": 67,
      "hit": false,
      "t": 182043.26999999973,
      "d": 1017.388359375007,
      "v": 1
    },
    {
      "midi": 70,
      "hit": false,
      "t": 182043.26999999973,
      "d": 1017.388359375007,
      "v": 1
    },
    {
      "midi": 63,
      "hit": false,
      "t": 183065.98499999972,
      "d": 1528.7458593749907,
      "v": 1
    },
    {
      "midi": 68,
      "hit": false,
      "t": 183065.98499999972,
      "d": 1528.7458593749907,
      "v": 1
    },
    {
      "midi": 72,
      "hit": false,
      "t": 183065.98499999972,
      "d": 1528.7458593749907,
      "v": 1
    },
    {
      "midi": 61,
      "hit": false,
      "t": 184600.0574999997,
      "d": 506.0308593749942,
      "v": 1
    },
    {
      "midi": 65,
      "hit": false,
      "t": 184600.0574999997,
      "d": 506.0308593749942,
      "v": 1
    },
    {
      "midi": 63,
      "hit": false,
      "t": 185111.4149999997,
      "d": 165.12585937499534,
      "v": 1
    },
    {
      "midi": 67,
      "hit": false,
      "t": 185111.4149999997,
      "d": 165.12585937499534,
      "v": 1
    },
    {
      "midi": 70,
      "hit": false,
      "t": 185111.4149999997,
      "d": 165.12585937499534,
      "v": 1
    },
    {
      "midi": 63,
      "hit": false,
      "t": 185281.86749999967,
      "d": 676.4833593750081,
      "v": 1
    },
    {
      "midi": 68,
      "hit": false,
      "t": 185281.86749999967,
      "d": 676.4833593750081,
      "v": 1
    },
    {
      "midi": 72,
      "hit": false,
      "t": 185281.86749999967,
      "d": 676.4833593750081,
      "v": 1
    },
    {
      "midi": 61,
      "hit": false,
      "t": 185963.67749999967,
      "d": 846.935859374993,
      "v": 1
    },
    {
      "midi": 67,
      "hit": false,
      "t": 185963.67749999967,
      "d": 846.935859374993,
      "v": 1
    },
    {
      "midi": 70,
      "hit": false,
      "t": 185963.67749999967,
      "d": 846.935859374993,
      "v": 1
    },
    {
      "midi": 61,
      "hit": false,
      "t": 186815.93999999965,
      "d": 676.4833593750081,
      "v": 1
    },
    {
      "midi": 65,
      "hit": false,
      "t": 186815.93999999965,
      "d": 676.4833593750081,
      "v": 1
    },
    {
      "midi": 68,
      "hit": false,
      "t": 186815.93999999965,
      "d": 676.4833593750081,
      "v": 1
    },
    {
      "midi": 61,
      "hit": false,
      "t": 187497.74999999965,
      "d": 676.4833593750081,
      "v": 1
    },
    {
      "midi": 67,
      "hit": false,
      "t": 187497.74999999965,
      "d": 676.4833593750081,
      "v": 1
    },
    {
      "midi": 70,
      "hit": false,
      "t": 187497.74999999965,
      "d": 676.4833593750081,
      "v": 1
    },
    {
      "midi": 63,
      "hit": false,
      "t": 188520.46499999965,
      "d": 1528.7458593749907,
      "v": 1
    },
    {
      "midi": 68,
      "hit": false,
      "t": 188520.46499999965,
      "d": 1528.7458593749907,
      "v": 1
    },
    {
      "midi": 72,
      "hit": false,
      "t": 188520.46499999965,
      "d": 1528.7458593749907,
      "v": 1
    },
    {
      "midi": 61,
      "hit": false,
      "t": 190054.53749999963,
      "d": 506.0308593749942,
      "v": 1
    },
    {
      "midi": 65,
      "hit": false,
      "t": 190054.53749999963,
      "d": 506.0308593749942,
      "v": 1
    },
    {
      "midi": 68,
      "hit": false,
      "t": 190054.53749999963,
      "d": 506.0308593749942,
      "v": 1
    },
    {
      "midi": 63,
      "hit": false,
      "t": 190565.8949999996,
      "d": 165.12585937499534,
      "v": 1
    },
    {
      "midi": 67,
      "hit": false,
      "t": 190565.8949999996,
      "d": 165.12585937499534,
      "v": 1
    },
    {
      "midi": 70,
      "hit": false,
      "t": 190565.8949999996,
      "d": 165.12585937499534,
      "v": 1
    },
    {
      "midi": 63,
      "hit": false,
      "t": 190736.3474999996,
      "d": 676.4833593750081,
      "v": 1
    },
    {
      "midi": 68,
      "hit": false,
      "t": 190736.3474999996,
      "d": 676.4833593750081,
      "v": 1
    },
    {
      "midi": 72,
      "hit": false,
      "t": 190736.3474999996,
      "d": 676.4833593750081,
      "v": 1
    },
    {
      "midi": 61,
      "hit": false,
      "t": 191418.1574999996,
      "d": 846.935859374993,
      "v": 1
    },
    {
      "midi": 67,
      "hit": false,
      "t": 191418.1574999996,
      "d": 846.935859374993,
      "v": 1
    },
    {
      "midi": 70,
      "hit": false,
      "t": 191418.1574999996,
      "d": 846.935859374993,
      "v": 1
    },
    {
      "midi": 61,
      "hit": false,
      "t": 192270.41999999958,
      "d": 676.4833593750081,
      "v": 1
    },
    {
      "midi": 65,
      "hit": false,
      "t": 192270.41999999958,
      "d": 676.4833593750081,
      "v": 1
    },
    {
      "midi": 68,
      "hit": false,
      "t": 192270.41999999958,
      "d": 676.4833593750081,
      "v": 1
    },
    {
      "midi": 61,
      "hit": false,
      "t": 192952.22999999957,
      "d": 1017.388359375007,
      "v": 1
    },
    {
      "midi": 67,
      "hit": false,
      "t": 192952.22999999957,
      "d": 1017.388359375007,
      "v": 1
    },
    {
      "midi": 70,
      "hit": false,
      "t": 192952.22999999957,
      "d": 1017.388359375007,
      "v": 1
    },
    {
      "midi": 63,
      "hit": false,
      "t": 193974.94499999957,
      "d": 1358.2933593750058,
      "v": 1
    },
    {
      "midi": 68,
      "hit": false,
      "t": 193974.94499999957,
      "d": 1358.2933593750058,
      "v": 1
    },
    {
      "midi": 72,
      "hit": false,
      "t": 193974.94499999957,
      "d": 1358.2933593750058,
      "v": 1
    },
    {
      "midi": 60,
      "hit": false,
      "t": 195338.56499999957,
      "d": 165.12585937499534,
      "v": 1
    },
    {
      "midi": 65,
      "hit": false,
      "t": 195338.56499999957,
      "d": 165.12585937499534,
      "v": 1
    },
    {
      "midi": 68,
      "hit": false,
      "t": 195338.56499999957,
      "d": 165.12585937499534,
      "v": 1
    },
    {
      "midi": 61,
      "hit": false,
      "t": 195509.01749999955,
      "d": 506.0308593749942,
      "v": 1
    },
    {
      "midi": 67,
      "hit": false,
      "t": 195509.01749999955,
      "d": 506.0308593749942,
      "v": 1
    },
    {
      "midi": 70,
      "hit": false,
      "t": 195509.01749999955,
      "d": 506.0308593749942,
      "v": 1
    },
    {
      "midi": 63,
      "hit": false,
      "t": 196020.37499999953,
      "d": 846.935859374993,
      "v": 1
    },
    {
      "midi": 68,
      "hit": false,
      "t": 196020.37499999953,
      "d": 846.935859374993,
      "v": 1
    },
    {
      "midi": 72,
      "hit": false,
      "t": 196020.37499999953,
      "d": 846.935859374993,
      "v": 1
    },
    {
      "midi": 61,
      "hit": false,
      "t": 196872.63749999952,
      "d": 846.935859374993,
      "v": 1
    },
    {
      "midi": 67,
      "hit": false,
      "t": 196872.63749999952,
      "d": 846.935859374993,
      "v": 1
    },
    {
      "midi": 70,
      "hit": false,
      "t": 196872.63749999952,
      "d": 846.935859374993,
      "v": 1
    },
    {
      "midi": 61,
      "hit": false,
      "t": 197724.8999999995,
      "d": 676.4833593750081,
      "v": 1
    },
    {
      "midi": 65,
      "hit": false,
      "t": 197724.8999999995,
      "d": 676.4833593750081,
      "v": 1
    },
    {
      "midi": 68,
      "hit": false,
      "t": 197724.8999999995,
      "d": 676.4833593750081,
      "v": 1
    },
    {
      "midi": 61,
      "hit": false,
      "t": 198406.7099999995,
      "d": 1017.388359375007,
      "v": 1
    },
    {
      "midi": 67,
      "hit": false,
      "t": 198406.7099999995,
      "d": 1017.388359375007,
      "v": 1
    },
    {
      "midi": 70,
      "hit": false,
      "t": 198406.7099999995,
      "d": 1017.388359375007,
      "v": 1
    }
  ]
}