{
  "jsonPath": "Rock/Classic Rock/Pure Prairie League/amie.json",
  "path": "Rock\\Classic Rock\\Pure Prairie League\\Amie.mid",
  "name": "Amie",
  "difficulty": "Advanced",
  "bpm": 172.99990485005233,
  "notes": [
    {
      "midi": 64,
      "hit": false,
      "t": 1387.2839999999999,
      "d": 190.75154999999995,
      "v": 72
    },
    {
      "midi": 69,
      "hit": false,
      "t": 1387.2839999999999,
      "d": 199.42207499999995,
      "v": 89
    },
    {
      "midi": 57,
      "hit": false,
      "t": 1387.2839999999999,
      "d": 255.78048749999994,
      "v": 98
    },
    {
      "midi": 69,
      "hit": false,
      "t": 1734.1049999999998,
      "d": 85.26016249999998,
      "v": 102
    },
    {
      "midi": 57,
      "hit": false,
      "t": 1734.1049999999998,
      "d": 96.82086249999998,
      "v": 98
    },
    {
      "midi": 64,
      "hit": false,
      "t": 1734.1049999999998,
      "d": 96.82086249999998,
      "v": 93
    },
    {
      "midi": 69,
      "hit": false,
      "t": 2080.926,
      "d": 70.80928750000021,
      "v": 72
    },
    {
      "midi": 64,
      "hit": false,
      "t": 2080.926,
      "d": 82.3699875000002,
      "v": 60
    },
    {
      "midi": 57,
      "hit": false,
      "t": 2312.1400000000003,
      "d": 69.36419999999998,
      "v": 85
    },
    {
      "midi": 64,
      "hit": false,
      "t": 2427.7470000000003,
      "d": 60.693674999999985,
      "v": 76
    },
    {
      "midi": 69,
      "hit": false,
      "t": 2427.7470000000003,
      "d": 72.25437499999998,
      "v": 93
    },
    {
      "midi": 57,
      "hit": false,
      "t": 2658.9610000000002,
      "d": 66.47402499999998,
      "v": 85
    },
    {
      "midi": 64,
      "hit": false,
      "t": 2774.568,
      "d": 62.13876250000021,
      "v": 56
    },
    {
      "midi": 69,
      "hit": false,
      "t": 2774.568,
      "d": 63.58385000000044,
      "v": 80
    },
    {
      "midi": 57,
      "hit": false,
      "t": 3121.3890000000006,
      "d": 65.02893750000021,
      "v": 85
    },
    {
      "midi": 64,
      "hit": false,
      "t": 3121.3890000000006,
      "d": 65.02893750000021,
      "v": 68
    },
    {
      "midi": 69,
      "hit": false,
      "t": 3121.3890000000006,
      "d": 67.91911250000021,
      "v": 93
    },
    {
      "midi": 69,
      "hit": false,
      "t": 3468.210000000001,
      "d": 62.13876250000021,
      "v": 60
    },
    {
      "midi": 57,
      "hit": false,
      "t": 3699.4240000000013,
      "d": 73.69946250000021,
      "v": 98
    },
    {
      "midi": 69,
      "hit": false,
      "t": 3815.0310000000018,
      "d": 69.36419999999998,
      "v": 98
    },
    {
      "midi": 64,
      "hit": false,
      "t": 3815.0310000000018,
      "d": 72.25437499999998,
      "v": 80
    },
    {
      "midi": 69,
      "hit": false,
      "t": 4161.852000000002,
      "d": 62.13876249999976,
      "v": 80
    },
    {
      "midi": 64,
      "hit": false,
      "t": 4161.852000000002,
      "d": 76.58963750000021,
      "v": 68
    },
    {
      "midi": 69,
      "hit": false,
      "t": 4508.673000000002,
      "d": 63.583849999999984,
      "v": 93
    },
    {
      "midi": 64,
      "hit": false,
      "t": 4508.673000000002,
      "d": 69.36419999999998,
      "v": 76
    },
    {
      "midi": 57,
      "hit": false,
      "t": 4508.673000000002,
      "d": 82.3699875000002,
      "v": 93
    },
    {
      "midi": 69,
      "hit": false,
      "t": 4855.4940000000015,
      "d": 72.25437500000044,
      "v": 68
    },
    {
      "midi": 64,
      "hit": false,
      "t": 4855.4940000000015,
      "d": 76.58963750000021,
      "v": 56
    },
    {
      "midi": 57,
      "hit": false,
      "t": 5086.708000000001,
      "d": 70.80928750000021,
      "v": 93
    },
    {
      "midi": 69,
      "hit": false,
      "t": 5202.315000000001,
      "d": 56.35841249999976,
      "v": 89
    },
    {
      "midi": 64,
      "hit": false,
      "t": 5202.315000000001,
      "d": 60.69367499999953,
      "v": 62
    },
    {
      "midi": 57,
      "hit": false,
      "t": 5317.922000000001,
      "d": 56.35841249999976,
      "v": 68
    },
    {
      "midi": 64,
      "hit": false,
      "t": 5433.529000000001,
      "d": 50.57806249999976,
      "v": 59
    },
    {
      "midi": 69,
      "hit": false,
      "t": 5433.529000000001,
      "d": 50.57806249999976,
      "v": 85
    },
    {
      "midi": 64,
      "hit": false,
      "t": 5549.136000000001,
      "d": 63.583849999999984,
      "v": 76
    },
    {
      "midi": 69,
      "hit": false,
      "t": 5549.136000000001,
      "d": 63.583849999999984,
      "v": 89
    },
    {
      "midi": 69,
      "hit": false,
      "t": 5895.957000000001,
      "d": 66.47402500000044,
      "v": 93
    },
    {
      "midi": 57,
      "hit": false,
      "t": 5895.957000000001,
      "d": 78.03472500000044,
      "v": 76
    },
    {
      "midi": 64,
      "hit": false,
      "t": 5895.957000000001,
      "d": 78.03472500000044,
      "v": 80
    },
    {
      "midi": 64,
      "hit": false,
      "t": 6242.778000000002,
      "d": 56.35841249999976,
      "v": 46
    },
    {
      "midi": 69,
      "hit": false,
      "t": 6242.778000000002,
      "d": 63.583849999999984,
      "v": 72
    },
    {
      "midi": 57,
      "hit": false,
      "t": 6473.992000000002,
      "d": 70.80928750000021,
      "v": 72
    },
    {
      "midi": 69,
      "hit": false,
      "t": 6589.599000000002,
      "d": 60.69367500000044,
      "v": 89
    },
    {
      "midi": 64,
      "hit": false,
      "t": 6589.599000000002,
      "d": 73.69946250000066,
      "v": 72
    },
    {
      "midi": 69,
      "hit": false,
      "t": 6936.420000000003,
      "d": 53.468237500000214,
      "v": 72
    },
    {
      "midi": 64,
      "hit": false,
      "t": 6936.420000000003,
      "d": 57.803499999999985,
      "v": 49
    },
    {
      "midi": 57,
      "hit": false,
      "t": 6936.420000000003,
      "d": 85.26016249999975,
      "v": 93
    },
    {
      "midi": 57,
      "hit": false,
      "t": 7283.241000000003,
      "d": 62.13876249999976,
      "v": 62
    },
    {
      "midi": 64,
      "hit": false,
      "t": 7283.241000000003,
      "d": 76.58963750000021,
      "v": 85
    },
    {
      "midi": 69,
      "hit": false,
      "t": 7283.241000000003,
      "d": 76.58963750000021,
      "v": 107
    },
    {
      "midi": 64,
      "hit": false,
      "t": 7630.062000000003,
      "d": 62.13876249999976,
      "v": 55
    },
    {
      "midi": 69,
      "hit": false,
      "t": 7630.062000000003,
      "d": 65.02893750000021,
      "v": 80
    },
    {
      "midi": 57,
      "hit": false,
      "t": 7861.276000000003,
      "d": 76.58963750000021,
      "v": 93
    },
    {
      "midi": 64,
      "hit": false,
      "t": 7976.8830000000025,
      "d": 63.583849999999984,
      "v": 72
    },
    {
      "midi": 69,
      "hit": false,
      "t": 7976.8830000000025,
      "d": 63.583849999999984,
      "v": 89
    },
    {
      "midi": 57,
      "hit": false,
      "t": 8208.097000000003,
      "d": 70.80928750000021,
      "v": 89
    },
    {
      "midi": 69,
      "hit": false,
      "t": 8323.704000000003,
      "d": 63.58385000000089,
      "v": 89
    },
    {
      "midi": 64,
      "hit": false,
      "t": 8323.704000000003,
      "d": 79.47981250000157,
      "v": 68
    },
    {
      "midi": 69,
      "hit": false,
      "t": 8670.525000000005,
      "d": 66.47402499999953,
      "v": 93
    },
    {
      "midi": 57,
      "hit": false,
      "t": 8670.525000000005,
      "d": 72.25437500000044,
      "v": 85
    },
    {
      "midi": 64,
      "hit": false,
      "t": 8670.525000000005,
      "d": 73.69946250000066,
      "v": 76
    },
    {
      "midi": 69,
      "hit": false,
      "t": 9017.346000000005,
      "d": 70.80928750000021,
      "v": 85
    },
    {
      "midi": 64,
      "hit": false,
      "t": 9017.346000000005,
      "d": 79.47981249999975,
      "v": 60
    },
    {
      "midi": 57,
      "hit": false,
      "t": 9248.560000000005,
      "d": 72.25437500000044,
      "v": 76
    },
    {
      "midi": 69,
      "hit": false,
      "t": 9364.167000000005,
      "d": 65.0289374999993,
      "v": 93
    },
    {
      "midi": 64,
      "hit": false,
      "t": 9364.167000000005,
      "d": 73.69946249999884,
      "v": 72
    },
    {
      "midi": 69,
      "hit": false,
      "t": 9710.988000000003,
      "d": 62.13876250000067,
      "v": 89
    },
    {
      "midi": 64,
      "hit": false,
      "t": 9710.988000000003,
      "d": 73.69946250000066,
      "v": 72
    },
    {
      "midi": 57,
      "hit": false,
      "t": 9710.988000000003,
      "d": 83.81507500000043,
      "v": 85
    },
    {
      "midi": 57,
      "hit": false,
      "t": 10057.809000000003,
      "d": 56.35841249999976,
      "v": 72
    },
    {
      "midi": 69,
      "hit": false,
      "t": 10057.809000000003,
      "d": 63.583849999999074,
      "v": 98
    },
    {
      "midi": 64,
      "hit": false,
      "t": 10057.809000000003,
      "d": 78.03472499999953,
      "v": 80
    },
    {
      "midi": 69,
      "hit": false,
      "t": 10404.630000000003,
      "d": 69.36419999999998,
      "v": 85
    },
    {
      "midi": 64,
      "hit": false,
      "t": 10404.630000000003,
      "d": 80.92489999999998,
      "v": 64
    },
    {
      "midi": 57,
      "hit": false,
      "t": 10635.844000000003,
      "d": 79.47981249999975,
      "v": 93
    },
    {
      "midi": 64,
      "hit": false,
      "t": 10751.451000000003,
      "d": 73.69946250000066,
      "v": 60
    },
    {
      "midi": 69,
      "hit": false,
      "t": 10751.451000000003,
      "d": 75.14455000000089,
      "v": 89
    },
    {
      "midi": 57,
      "hit": false,
      "t": 10982.665000000005,
      "d": 72.25437500000044,
      "v": 93
    },
    {
      "midi": 69,
      "hit": false,
      "t": 11098.272000000004,
      "d": 67.91911249999976,
      "v": 89
    },
    {
      "midi": 64,
      "hit": false,
      "t": 11098.272000000004,
      "d": 78.03472499999953,
      "v": 60
    },
    {
      "midi": 57,
      "hit": false,
      "t": 11445.093000000004,
      "d": 70.80928750000021,
      "v": 93
    },
    {
      "midi": 64,
      "hit": false,
      "t": 11445.093000000004,
      "d": 73.69946250000066,
      "v": 72
    },
    {
      "midi": 69,
      "hit": false,
      "t": 11445.093000000004,
      "d": 75.14455000000089,
      "v": 102
    },
    {
      "midi": 69,
      "hit": false,
      "t": 11791.914000000006,
      "d": 63.58385000000089,
      "v": 85
    },
    {
      "midi": 64,
      "hit": false,
      "t": 11791.914000000006,
      "d": 79.47981250000157,
      "v": 59
    },
    {
      "midi": 69,
      "hit": false,
      "t": 12138.735000000008,
      "d": 67.91911249999976,
      "v": 93
    },
    {
      "midi": 64,
      "hit": false,
      "t": 12138.735000000008,
      "d": 69.36419999999998,
      "v": 64
    },
    {
      "midi": 57,
      "hit": false,
      "t": 12138.735000000008,
      "d": 109.82665000000088,
      "v": 98
    },
    {
      "midi": 61,
      "hit": false,
      "t": 12832.37700000001,
      "d": 1010.1161625000004,
      "v": 98
    },
    {
      "midi": 64,
      "hit": false,
      "t": 12832.37700000001,
      "d": 1014.4514250000011,
      "v": 102
    },
    {
      "midi": 57,
      "hit": false,
      "t": 12832.37700000001,
      "d": 1039.0179125000013,
      "v": 89
    },
    {
      "midi": 43,
      "hit": false,
      "t": 13872.840000000011,
      "d": 85.26016250000066,
      "v": 93
    },
    {
      "midi": 59,
      "hit": false,
      "t": 14219.661000000011,
      "d": 332.37012499999946,
      "v": 93
    },
    {
      "midi": 55,
      "hit": false,
      "t": 14219.661000000011,
      "d": 397.39906249999876,
      "v": 89
    },
    {
      "midi": 62,
      "hit": false,
      "t": 14219.661000000011,
      "d": 419.07537499999853,
      "v": 93
    },
    {
      "midi": 54,
      "hit": false,
      "t": 14913.303000000009,
      "d": 306.35855000000083,
      "v": 76
    },
    {
      "midi": 57,
      "hit": false,
      "t": 14913.303000000009,
      "d": 307.80363750000106,
      "v": 89
    },
    {
      "midi": 62,
      "hit": false,
      "t": 14913.303000000009,
      "d": 339.5955625000006,
      "v": 98
    },
    {
      "midi": 64,
      "hit": false,
      "t": 15606.945000000009,
      "d": 962.4282750000002,
      "v": 89
    },
    {
      "midi": 61,
      "hit": false,
      "t": 15606.945000000009,
      "d": 981.2144124999995,
      "v": 85
    },
    {
      "midi": 45,
      "hit": false,
      "t": 15606.945000000009,
      "d": 989.8849375000009,
      "v": 102
    },
    {
      "midi": 57,
      "hit": false,
      "t": 15606.945000000009,
      "d": 998.5554625000022,
      "v": 89
    },
    {
      "midi": 59,
      "hit": false,
      "t": 16994.22900000001,
      "d": 309.2487250000013,
      "v": 85
    },
    {
      "midi": 62,
      "hit": false,
      "t": 16994.22900000001,
      "d": 338.1504750000022,
      "v": 93
    },
    {
      "midi": 55,
      "hit": false,
      "t": 16994.22900000001,
      "d": 341.04065000000264,
      "v": 76
    },
    {
      "midi": 57,
      "hit": false,
      "t": 17687.871000000014,
      "d": 313.58398749999833,
      "v": 85
    },
    {
      "midi": 62,
      "hit": false,
      "t": 17687.871000000014,
      "d": 328.03486249999696,
      "v": 85
    },
    {
      "midi": 54,
      "hit": false,
      "t": 17687.871000000014,
      "d": 329.4799499999972,
      "v": 72
    },
    {
      "midi": 52,
      "hit": false,
      "t": 18034.69200000001,
      "d": 890.173899999998,
      "v": 49
    },
    {
      "midi": 45,
      "hit": false,
      "t": 18034.69200000001,
      "d": 913.295299999998,
      "v": 68
    },
    {
      "midi": 64,
      "hit": false,
      "t": 18034.69200000001,
      "d": 920.5207374999991,
      "v": 60
    },
    {
      "midi": 61,
      "hit": false,
      "t": 18034.69200000001,
      "d": 924.8559999999998,
      "v": 62
    },
    {
      "midi": 57,
      "hit": false,
      "t": 18034.69200000001,
      "d": 949.4224875,
      "v": 55
    },
    {
      "midi": 59,
      "hit": false,
      "t": 19421.97600000001,
      "d": 284.68223750000107,
      "v": 59
    },
    {
      "midi": 55,
      "hit": false,
      "t": 19421.97600000001,
      "d": 307.80363750000106,
      "v": 57
    },
    {
      "midi": 62,
      "hit": false,
      "t": 19421.97600000001,
      "d": 315.0290750000022,
      "v": 52
    },
    {
      "midi": 43,
      "hit": false,
      "t": 19421.97600000001,
      "d": 317.91925000000265,
      "v": 56
    },
    {
      "midi": 62,
      "hit": false,
      "t": 20115.618000000013,
      "d": 290.462587500002,
      "v": 46
    },
    {
      "midi": 57,
      "hit": false,
      "t": 20115.618000000013,
      "d": 296.2429375000029,
      "v": 72
    },
    {
      "midi": 54,
      "hit": false,
      "t": 20115.618000000013,
      "d": 303.468375000004,
      "v": 57
    },
    {
      "midi": 50,
      "hit": false,
      "t": 20115.618000000013,
      "d": 333.81521250000515,
      "v": 72
    },
    {
      "midi": 61,
      "hit": false,
      "t": 20809.26000000002,
      "d": 874.2779375000027,
      "v": 60
    },
    {
      "midi": 52,
      "hit": false,
      "t": 20809.26000000002,
      "d": 882.9484625000041,
      "v": 62
    },
    {
      "midi": 64,
      "hit": false,
      "t": 20809.26000000002,
      "d": 882.9484625000041,
      "v": 62
    },
    {
      "midi": 45,
      "hit": false,
      "t": 20809.26000000002,
      "d": 884.3935500000043,
      "v": 62
    },
    {
      "midi": 57,
      "hit": false,
      "t": 20809.26000000002,
      "d": 893.0640750000057,
      "v": 62
    },
    {
      "midi": 59,
      "hit": false,
      "t": 22196.544000000024,
      "d": 291.9076750000022,
      "v": 59
    },
    {
      "midi": 62,
      "hit": false,
      "t": 22196.544000000024,
      "d": 297.6880250000031,
      "v": 62
    },
    {
      "midi": 43,
      "hit": false,
      "t": 22196.544000000024,
      "d": 300.57820000000356,
      "v": 76
    },
    {
      "midi": 55,
      "hit": false,
      "t": 22196.544000000024,
      "d": 304.91346250000424,
      "v": 64
    },
    {
      "midi": 57,
      "hit": false,
      "t": 22890.18600000003,
      "d": 342.48573749999923,
      "v": 80
    },
    {
      "midi": 62,
      "hit": false,
      "t": 22890.18600000003,
      "d": 359.8267874999983,
      "v": 72
    },
    {
      "midi": 54,
      "hit": false,
      "t": 22890.18600000003,
      "d": 361.27187499999854,
      "v": 60
    },
    {
      "midi": 50,
      "hit": false,
      "t": 22890.18600000003,
      "d": 387.283449999999,
      "v": 85
    },
    {
      "midi": 52,
      "hit": false,
      "t": 23583.828000000027,
      "d": 959.5380999999979,
      "v": 62
    },
    {
      "midi": 64,
      "hit": false,
      "t": 23583.828000000027,
      "d": 959.5380999999979,
      "v": 72
    },
    {
      "midi": 61,
      "hit": false,
      "t": 23583.828000000027,
      "d": 975.4340624999968,
      "v": 68
    },
    {
      "midi": 45,
      "hit": false,
      "t": 23583.828000000027,
      "d": 991.3300249999957,
      "v": 85
    },
    {
      "midi": 57,
      "hit": false,
      "t": 23583.828000000027,
      "d": 997.1103749999966,
      "v": 68
    },
    {
      "midi": 59,
      "hit": false,
      "t": 24971.112000000026,
      "d": 297.68802499999947,
      "v": 64
    },
    {
      "midi": 62,
      "hit": false,
      "t": 24971.112000000026,
      "d": 312.1388999999981,
      "v": 62
    },
    {
      "midi": 43,
      "hit": false,
      "t": 24971.112000000026,
      "d": 322.2545124999997,
      "v": 76
    },
    {
      "midi": 55,
      "hit": false,
      "t": 24971.112000000026,
      "d": 322.2545124999997,
      "v": 62
    },
    {
      "midi": 57,
      "hit": false,
      "t": 25664.754000000026,
      "d": 328.0348625000006,
      "v": 72
    },
    {
      "midi": 54,
      "hit": false,
      "t": 25664.754000000026,
      "d": 332.3701250000013,
      "v": 62
    },
    {
      "midi": 62,
      "hit": false,
      "t": 25664.754000000026,
      "d": 343.9308250000031,
      "v": 57
    },
    {
      "midi": 64,
      "hit": false,
      "t": 26358.39600000003,
      "d": 1137.2838625000004,
      "v": 64
    },
    {
      "midi": 52,
      "hit": false,
      "t": 26358.39600000003,
      "d": 1138.7289500000006,
      "v": 62
    },
    {
      "midi": 61,
      "hit": false,
      "t": 26358.39600000003,
      "d": 1141.619125000001,
      "v": 68
    },
    {
      "midi": 45,
      "hit": false,
      "t": 26358.39600000003,
      "d": 1154.6249124999995,
      "v": 85
    },
    {
      "midi": 57,
      "hit": false,
      "t": 26358.39600000003,
      "d": 1156.0699999999997,
      "v": 68
    },
    {
      "midi": 52,
      "hit": false,
      "t": 27745.68000000003,
      "d": 784.6825124999996,
      "v": 47
    },
    {
      "midi": 57,
      "hit": false,
      "t": 27745.68000000003,
      "d": 790.4628625000005,
      "v": 51
    },
    {
      "midi": 45,
      "hit": false,
      "t": 27745.68000000003,
      "d": 796.2432125000014,
      "v": 72
    },
    {
      "midi": 61,
      "hit": false,
      "t": 27745.68000000003,
      "d": 797.6883000000016,
      "v": 62
    },
    {
      "midi": 57,
      "hit": false,
      "t": 29132.964000000033,
      "d": 2170.521424999999,
      "v": 53
    },
    {
      "midi": 66,
      "hit": false,
      "t": 29132.964000000033,
      "d": 2176.301775,
      "v": 60
    },
    {
      "midi": 62,
      "hit": false,
      "t": 29132.964000000033,
      "d": 2195.087912499999,
      "v": 72
    },
    {
      "midi": 50,
      "hit": false,
      "t": 29132.964000000033,
      "d": 2229.770012500001,
      "v": 76
    },
    {
      "midi": 64,
      "hit": false,
      "t": 31907.532000000032,
      "d": 1742.775525000001,
      "v": 60
    },
    {
      "midi": 55,
      "hit": false,
      "t": 31907.532000000032,
      "d": 1776.0125375000025,
      "v": 52
    },
    {
      "midi": 60,
      "hit": false,
      "t": 31907.532000000032,
      "d": 1783.237975,
      "v": 62
    },
    {
      "midi": 48,
      "hit": false,
      "t": 31907.532000000032,
      "d": 1796.2437624999984,
      "v": 62
    },
    {
      "midi": 57,
      "hit": false,
      "t": 34682.100000000035,
      "d": 2394.5099875000014,
      "v": 76
    },
    {
      "midi": 66,
      "hit": false,
      "t": 34682.100000000035,
      "d": 2410.4059500000003,
      "v": 72
    },
    {
      "midi": 62,
      "hit": false,
      "t": 34682.100000000035,
      "d": 2417.631387499998,
      "v": 89
    },
    {
      "midi": 64,
      "hit": false,
      "t": 37456.668000000034,
      "d": 1916.1860250000027,
      "v": 62
    },
    {
      "midi": 67,
      "hit": false,
      "t": 37456.668000000034,
      "d": 1924.856550000004,
      "v": 57
    },
    {
      "midi": 60,
      "hit": false,
      "t": 37456.668000000034,
      "d": 1943.6426875000034,
      "v": 55
    },
    {
      "midi": 55,
      "hit": false,
      "t": 37456.668000000034,
      "d": 1979.7698750000054,
      "v": 48
    },
    {
      "midi": 48,
      "hit": false,
      "t": 37456.668000000034,
      "d": 2005.7814500000022,
      "v": 53
    },
    {
      "midi": 64,
      "hit": false,
      "t": 40231.23600000004,
      "d": 2472.5447125000064,
      "v": 76
    },
    {
      "midi": 56,
      "hit": false,
      "t": 40231.23600000004,
      "d": 2638.729775000007,
      "v": 68
    },
    {
      "midi": 59,
      "hit": false,
      "t": 40231.23600000004,
      "d": 2647.4003000000084,
      "v": 80
    },
    {
      "midi": 52,
      "hit": false,
      "t": 42658.983000000044,
      "d": 342.4857375000065,
      "v": 89
    },
    {
      "midi": 56,
      "hit": false,
      "t": 43005.80400000005,
      "d": 2430.637174999996,
      "v": 56
    },
    {
      "midi": 59,
      "hit": false,
      "t": 43005.80400000005,
      "d": 2446.533137499995,
      "v": 76
    },
    {
      "midi": 64,
      "hit": false,
      "t": 43005.80400000005,
      "d": 2469.6545374999987,
      "v": 72
    },
    {
      "midi": 40,
      "hit": false,
      "t": 44393.08800000005,
      "d": 1059.2491374999954,
      "v": 76
    },
    {
      "midi": 64,
      "hit": false,
      "t": 45780.37200000005,
      "d": 1725.4344749999946,
      "v": 62
    },
    {
      "midi": 69,
      "hit": false,
      "t": 45780.37200000005,
      "d": 1754.3362249999918,
      "v": 60
    },
    {
      "midi": 52,
      "hit": false,
      "t": 45780.37200000005,
      "d": 1760.1165749999927,
      "v": 57
    },
    {
      "midi": 61,
      "hit": false,
      "t": 45780.37200000005,
      "d": 1764.4518374999898,
      "v": 56
    },
    {
      "midi": 45,
      "hit": false,
      "t": 45780.37200000005,
      "d": 1812.1397249999864,
      "v": 64
    },
    {
      "midi": 59,
      "hit": false,
      "t": 48554.94000000003,
      "d": 372.83257500000036,
      "v": 56
    },
    {
      "midi": 62,
      "hit": false,
      "t": 48554.94000000003,
      "d": 380.05801249999786,
      "v": 37
    },
    {
      "midi": 43,
      "hit": false,
      "t": 48554.94000000003,
      "d": 390.1736249999958,
      "v": 62
    },
    {
      "midi": 55,
      "hit": false,
      "t": 48554.94000000003,
      "d": 398.84414999999717,
      "v": 53
    },
    {
      "midi": 62,
      "hit": false,
      "t": 49942.22400000003,
      "d": 351.1562625000006,
      "v": 64
    },
    {
      "midi": 57,
      "hit": false,
      "t": 49942.22400000003,
      "d": 374.2776625000042,
      "v": 72
    },
    {
      "midi": 54,
      "hit": false,
      "t": 49942.22400000003,
      "d": 381.5031000000017,
      "v": 62
    },
    {
      "midi": 50,
      "hit": false,
      "t": 49942.22400000003,
      "d": 394.5088875000001,
      "v": 64
    },
    {
      "midi": 52,
      "hit": false,
      "t": 51329.50800000004,
      "d": 1770.232187499998,
      "v": 42
    },
    {
      "midi": 45,
      "hit": false,
      "t": 51329.50800000004,
      "d": 1826.590599999996,
      "v": 62
    },
    {
      "midi": 64,
      "hit": false,
      "t": 51329.50800000004,
      "d": 1845.3767374999952,
      "v": 46
    },
    {
      "midi": 61,
      "hit": false,
      "t": 51329.50800000004,
      "d": 1865.6079624999984,
      "v": 59
    },
    {
      "midi": 57,
      "hit": false,
      "t": 51329.50800000004,
      "d": 1880.0588375000007,
      "v": 56
    },
    {
      "midi": 43,
      "hit": false,
      "t": 54104.076000000045,
      "d": 500.0002749999985,
      "v": 62
    },
    {
      "midi": 59,
      "hit": false,
      "t": 54104.076000000045,
      "d": 515.8962374999974,
      "v": 68
    },
    {
      "midi": 62,
      "hit": false,
      "t": 54104.076000000045,
      "d": 527.4569374999992,
      "v": 62
    },
    {
      "midi": 55,
      "hit": false,
      "t": 54104.076000000045,
      "d": 543.352899999998,
      "v": 60
    },
    {
      "midi": 57,
      "hit": false,
      "t": 55491.360000000044,
      "d": 342.48573749999923,
      "v": 80
    },
    {
      "midi": 54,
      "hit": false,
      "t": 55491.360000000044,
      "d": 352.6013499999972,
      "v": 60
    },
    {
      "midi": 62,
      "hit": false,
      "t": 55491.360000000044,
      "d": 372.83257500000036,
      "v": 80
    },
    {
      "midi": 50,
      "hit": false,
      "t": 55491.360000000044,
      "d": 388.7285374999992,
      "v": 76
    },
    {
      "midi": 62,
      "hit": false,
      "t": 56878.644000000044,
      "d": 1638.7292249999955,
      "v": 85
    },
    {
      "midi": 66,
      "hit": false,
      "t": 56878.644000000044,
      "d": 1654.6251874999944,
      "v": 72
    },
    {
      "midi": 59,
      "hit": false,
      "t": 56878.644000000044,
      "d": 1663.2957124999957,
      "v": 68
    },
    {
      "midi": 47,
      "hit": false,
      "t": 56878.644000000044,
      "d": 1674.8564124999975,
      "v": 72
    },
    {
      "midi": 56,
      "hit": false,
      "t": 59653.21200000004,
      "d": 2492.7759375000023,
      "v": 60
    },
    {
      "midi": 59,
      "hit": false,
      "t": 59653.21200000004,
      "d": 2501.4464625000037,
      "v": 72
    },
    {
      "midi": 52,
      "hit": false,
      "t": 59653.21200000004,
      "d": 2507.2268125000046,
      "v": 72
    },
    {
      "midi": 64,
      "hit": false,
      "t": 59653.21200000004,
      "d": 2527.458037500008,
      "v": 68
    },
    {
      "midi": 61,
      "hit": false,
      "t": 62774.60100000005,
      "d": 1010.1161625000022,
      "v": 98
    },
    {
      "midi": 64,
      "hit": false,
      "t": 62774.60100000005,
      "d": 1014.4514249999993,
      "v": 102
    },
    {
      "midi": 57,
      "hit": false,
      "t": 62774.60100000005,
      "d": 1039.0179124999995,
      "v": 89
    },
    {
      "midi": 43,
      "hit": false,
      "t": 63815.06400000005,
      "d": 85.26016250000248,
      "v": 93
    },
    {
      "midi": 59,
      "hit": false,
      "t": 64161.88500000005,
      "d": 332.3701250000013,
      "v": 93
    },
    {
      "midi": 55,
      "hit": false,
      "t": 64161.88500000005,
      "d": 397.3990625000006,
      "v": 89
    },
    {
      "midi": 62,
      "hit": false,
      "t": 64161.88500000005,
      "d": 419.07537500000035,
      "v": 93
    },
    {
      "midi": 54,
      "hit": false,
      "t": 64855.52700000005,
      "d": 306.3585499999972,
      "v": 76
    },
    {
      "midi": 57,
      "hit": false,
      "t": 64855.52700000005,
      "d": 307.8036374999938,
      "v": 89
    },
    {
      "midi": 62,
      "hit": false,
      "t": 64855.52700000005,
      "d": 339.5955624999915,
      "v": 98
    },
    {
      "midi": 64,
      "hit": false,
      "t": 65549.16900000004,
      "d": 962.4282749999984,
      "v": 89
    },
    {
      "midi": 61,
      "hit": false,
      "t": 65549.16900000004,
      "d": 981.214412500005,
      "v": 85
    },
    {
      "midi": 45,
      "hit": false,
      "t": 65549.16900000004,
      "d": 989.8849374999991,
      "v": 102
    },
    {
      "midi": 57,
      "hit": false,
      "t": 65549.16900000004,
      "d": 998.5554624999932,
      "v": 89
    },
    {
      "midi": 59,
      "hit": false,
      "t": 66936.45300000004,
      "d": 309.24872499999765,
      "v": 85
    },
    {
      "midi": 62,
      "hit": false,
      "t": 66936.45300000004,
      "d": 338.1504750000022,
      "v": 93
    },
    {
      "midi": 55,
      "hit": false,
      "t": 66936.45300000004,
      "d": 341.04064999999537,
      "v": 76
    },
    {
      "midi": 57,
      "hit": false,
      "t": 67630.09500000003,
      "d": 313.5839874999947,
      "v": 85
    },
    {
      "midi": 62,
      "hit": false,
      "t": 67630.09500000003,
      "d": 328.0348624999897,
      "v": 85
    },
    {
      "midi": 54,
      "hit": false,
      "t": 67630.09500000003,
      "d": 329.47994999999355,
      "v": 72
    },
    {
      "midi": 52,
      "hit": false,
      "t": 67976.91600000003,
      "d": 890.1739000000089,
      "v": 49
    },
    {
      "midi": 45,
      "hit": false,
      "t": 67976.91600000003,
      "d": 913.2953000000125,
      "v": 68
    },
    {
      "midi": 64,
      "hit": false,
      "t": 67976.91600000003,
      "d": 920.5207375000173,
      "v": 60
    },
    {
      "midi": 61,
      "hit": false,
      "t": 67976.91600000003,
      "d": 924.8560000000143,
      "v": 62
    },
    {
      "midi": 57,
      "hit": false,
      "t": 67976.91600000003,
      "d": 949.4224875000073,
      "v": 55
    },
    {
      "midi": 59,
      "hit": false,
      "t": 69364.20000000003,
      "d": 284.6822375000047,
      "v": 59
    },
    {
      "midi": 55,
      "hit": false,
      "t": 69364.20000000003,
      "d": 307.80363750000834,
      "v": 57
    },
    {
      "midi": 62,
      "hit": false,
      "t": 69364.20000000003,
      "d": 315.0290750000131,
      "v": 52
    },
    {
      "midi": 43,
      "hit": false,
      "t": 69364.20000000003,
      "d": 317.9192500000063,
      "v": 56
    },
    {
      "midi": 62,
      "hit": false,
      "t": 70057.84200000003,
      "d": 290.46258749999106,
      "v": 46
    },
    {
      "midi": 57,
      "hit": false,
      "t": 70057.84200000003,
      "d": 296.24293749999197,
      "v": 72
    },
    {
      "midi": 54,
      "hit": false,
      "t": 70057.84200000003,
      "d": 303.46837499999674,
      "v": 57
    },
    {
      "midi": 50,
      "hit": false,
      "t": 70057.84200000003,
      "d": 333.8152124999906,
      "v": 72
    },
    {
      "midi": 61,
      "hit": false,
      "t": 70751.48400000003,
      "d": 874.2779374999955,
      "v": 60
    },
    {
      "midi": 52,
      "hit": false,
      "t": 70751.48400000003,
      "d": 882.9484624999895,
      "v": 62
    },
    {
      "midi": 64,
      "hit": false,
      "t": 70751.48400000003,
      "d": 882.9484624999895,
      "v": 62
    },
    {
      "midi": 45,
      "hit": false,
      "t": 70751.48400000003,
      "d": 884.3935499999934,
      "v": 62
    },
    {
      "midi": 57,
      "hit": false,
      "t": 70751.48400000003,
      "d": 893.0640749999875,
      "v": 62
    },
    {
      "midi": 59,
      "hit": false,
      "t": 72138.76800000003,
      "d": 291.9076749999949,
      "v": 59
    },
    {
      "midi": 62,
      "hit": false,
      "t": 72138.76800000003,
      "d": 297.68802499999583,
      "v": 62
    },
    {
      "midi": 43,
      "hit": false,
      "t": 72138.76800000003,
      "d": 300.578199999989,
      "v": 76
    },
    {
      "midi": 55,
      "hit": false,
      "t": 72138.76800000003,
      "d": 304.91346249998605,
      "v": 64
    },
    {
      "midi": 57,
      "hit": false,
      "t": 72832.41000000002,
      "d": 342.48573749999923,
      "v": 80
    },
    {
      "midi": 62,
      "hit": false,
      "t": 72832.41000000002,
      "d": 359.82678750000196,
      "v": 72
    },
    {
      "midi": 54,
      "hit": false,
      "t": 72832.41000000002,
      "d": 361.2718750000058,
      "v": 60
    },
    {
      "midi": 50,
      "hit": false,
      "t": 72832.41000000002,
      "d": 387.28345000000263,
      "v": 85
    },
    {
      "midi": 52,
      "hit": false,
      "t": 73526.05200000003,
      "d": 959.5381000000052,
      "v": 62
    },
    {
      "midi": 64,
      "hit": false,
      "t": 73526.05200000003,
      "d": 959.5381000000052,
      "v": 72
    },
    {
      "midi": 61,
      "hit": false,
      "t": 73526.05200000003,
      "d": 975.4340625000041,
      "v": 68
    },
    {
      "midi": 45,
      "hit": false,
      "t": 73526.05200000003,
      "d": 991.3300250000029,
      "v": 85
    },
    {
      "midi": 57,
      "hit": false,
      "t": 73526.05200000003,
      "d": 997.1103750000038,
      "v": 68
    },
    {
      "midi": 59,
      "hit": false,
      "t": 74913.33600000002,
      "d": 297.6880250000104,
      "v": 64
    },
    {
      "midi": 62,
      "hit": false,
      "t": 74913.33600000002,
      "d": 312.1389000000054,
      "v": 62
    },
    {
      "midi": 43,
      "hit": false,
      "t": 74913.33600000002,
      "d": 322.25451250000333,
      "v": 76
    },
    {
      "midi": 55,
      "hit": false,
      "t": 74913.33600000002,
      "d": 322.25451250000333,
      "v": 62
    },
    {
      "midi": 57,
      "hit": false,
      "t": 75606.97800000002,
      "d": 328.0348624999897,
      "v": 72
    },
    {
      "midi": 54,
      "hit": false,
      "t": 75606.97800000002,
      "d": 332.37012499998673,
      "v": 62
    },
    {
      "midi": 62,
      "hit": false,
      "t": 75606.97800000002,
      "d": 343.93082499998854,
      "v": 57
    },
    {
      "midi": 64,
      "hit": false,
      "t": 76300.62000000001,
      "d": 1137.2838625000004,
      "v": 64
    },
    {
      "midi": 52,
      "hit": false,
      "t": 76300.62000000001,
      "d": 1138.7289500000043,
      "v": 62
    },
    {
      "midi": 61,
      "hit": false,
      "t": 76300.62000000001,
      "d": 1141.6191249999974,
      "v": 68
    },
    {
      "midi": 45,
      "hit": false,
      "t": 76300.62000000001,
      "d": 1154.6249125000031,
      "v": 85
    },
    {
      "midi": 57,
      "hit": false,
      "t": 76300.62000000001,
      "d": 1156.070000000007,
      "v": 68
    },
    {
      "midi": 52,
      "hit": false,
      "t": 77687.90400000001,
      "d": 784.6825125000032,
      "v": 47
    },
    {
      "midi": 57,
      "hit": false,
      "t": 77687.90400000001,
      "d": 790.4628625000041,
      "v": 51
    },
    {
      "midi": 45,
      "hit": false,
      "t": 77687.90400000001,
      "d": 796.243212500005,
      "v": 72
    },
    {
      "midi": 61,
      "hit": false,
      "t": 77687.90400000001,
      "d": 797.6883000000089,
      "v": 62
    },
    {
      "midi": 57,
      "hit": false,
      "t": 79075.18800000002,
      "d": 2170.521424999999,
      "v": 53
    },
    {
      "midi": 66,
      "hit": false,
      "t": 79075.18800000002,
      "d": 2176.301775,
      "v": 60
    },
    {
      "midi": 62,
      "hit": false,
      "t": 79075.18800000002,
      "d": 2195.0879125000065,
      "v": 72
    },
    {
      "midi": 50,
      "hit": false,
      "t": 79075.18800000002,
      "d": 2229.770012500012,
      "v": 76
    },
    {
      "midi": 64,
      "hit": false,
      "t": 81849.75600000004,
      "d": 1742.7755250000046,
      "v": 60
    },
    {
      "midi": 55,
      "hit": false,
      "t": 81849.75600000004,
      "d": 1776.0125375000061,
      "v": 52
    },
    {
      "midi": 60,
      "hit": false,
      "t": 81849.75600000004,
      "d": 1783.237975000011,
      "v": 62
    },
    {
      "midi": 48,
      "hit": false,
      "t": 81849.75600000004,
      "d": 1796.2437625000166,
      "v": 62
    },
    {
      "midi": 57,
      "hit": false,
      "t": 84624.32400000004,
      "d": 2394.5099875000014,
      "v": 76
    },
    {
      "midi": 66,
      "hit": false,
      "t": 84624.32400000004,
      "d": 2410.4059500000003,
      "v": 72
    },
    {
      "midi": 62,
      "hit": false,
      "t": 84624.32400000004,
      "d": 2417.631387500005,
      "v": 89
    },
    {
      "midi": 64,
      "hit": false,
      "t": 87398.89200000004,
      "d": 1916.1860250000027,
      "v": 62
    },
    {
      "midi": 67,
      "hit": false,
      "t": 87398.89200000004,
      "d": 1924.8565499999968,
      "v": 57
    },
    {
      "midi": 60,
      "hit": false,
      "t": 87398.89200000004,
      "d": 1943.6426875000034,
      "v": 55
    },
    {
      "midi": 55,
      "hit": false,
      "t": 87398.89200000004,
      "d": 1979.7698749999981,
      "v": 48
    },
    {
      "midi": 48,
      "hit": false,
      "t": 87398.89200000004,
      "d": 2005.781449999995,
      "v": 53
    },
    {
      "midi": 64,
      "hit": false,
      "t": 90173.46000000002,
      "d": 2472.5447125000064,
      "v": 76
    },
    {
      "midi": 56,
      "hit": false,
      "t": 90173.46000000002,
      "d": 2638.729775,
      "v": 68
    },
    {
      "midi": 59,
      "hit": false,
      "t": 90173.46000000002,
      "d": 2647.400299999994,
      "v": 80
    },
    {
      "midi": 52,
      "hit": false,
      "t": 92601.20700000002,
      "d": 342.4857374999847,
      "v": 89
    },
    {
      "midi": 56,
      "hit": false,
      "t": 92948.028,
      "d": 2430.637174999996,
      "v": 56
    },
    {
      "midi": 59,
      "hit": false,
      "t": 92948.028,
      "d": 2446.533137499995,
      "v": 76
    },
    {
      "midi": 64,
      "hit": false,
      "t": 92948.028,
      "d": 2469.6545374999987,
      "v": 72
    },
    {
      "midi": 40,
      "hit": false,
      "t": 94335.312,
      "d": 1059.2491374999954,
      "v": 76
    },
    {
      "midi": 64,
      "hit": false,
      "t": 95722.596,
      "d": 1725.4344750000018,
      "v": 62
    },
    {
      "midi": 69,
      "hit": false,
      "t": 95722.596,
      "d": 1754.3362250000064,
      "v": 60
    },
    {
      "midi": 52,
      "hit": false,
      "t": 95722.596,
      "d": 1760.1165750000073,
      "v": 57
    },
    {
      "midi": 61,
      "hit": false,
      "t": 95722.596,
      "d": 1764.4518375000043,
      "v": 56
    },
    {
      "midi": 45,
      "hit": false,
      "t": 95722.596,
      "d": 1812.139725000001,
      "v": 64
    },
    {
      "midi": 59,
      "hit": false,
      "t": 98497.164,
      "d": 372.83257500000764,
      "v": 56
    },
    {
      "midi": 62,
      "hit": false,
      "t": 98497.164,
      "d": 380.0580125000124,
      "v": 37
    },
    {
      "midi": 43,
      "hit": false,
      "t": 98497.164,
      "d": 390.17362500001036,
      "v": 62
    },
    {
      "midi": 55,
      "hit": false,
      "t": 98497.164,
      "d": 398.84415000000445,
      "v": 53
    },
    {
      "midi": 62,
      "hit": false,
      "t": 99884.448,
      "d": 351.1562624999933,
      "v": 64
    },
    {
      "midi": 57,
      "hit": false,
      "t": 99884.448,
      "d": 374.27766249999695,
      "v": 72
    },
    {
      "midi": 54,
      "hit": false,
      "t": 99884.448,
      "d": 381.5031000000017,
      "v": 62
    },
    {
      "midi": 50,
      "hit": false,
      "t": 99884.448,
      "d": 394.5088875000074,
      "v": 64
    },
    {
      "midi": 52,
      "hit": false,
      "t": 101271.732,
      "d": 1770.2321874999907,
      "v": 42
    },
    {
      "midi": 45,
      "hit": false,
      "t": 101271.732,
      "d": 1826.590599999996,
      "v": 62
    },
    {
      "midi": 64,
      "hit": false,
      "t": 101271.732,
      "d": 1845.3767375000025,
      "v": 46
    },
    {
      "midi": 61,
      "hit": false,
      "t": 101271.732,
      "d": 1865.6079624999984,
      "v": 59
    },
    {
      "midi": 57,
      "hit": false,
      "t": 101271.732,
      "d": 1880.0588374999934,
      "v": 56
    },
    {
      "midi": 43,
      "hit": false,
      "t": 104046.3,
      "d": 500.0002749999985,
      "v": 62
    },
    {
      "midi": 59,
      "hit": false,
      "t": 104046.3,
      "d": 515.8962374999974,
      "v": 68
    },
    {
      "midi": 62,
      "hit": false,
      "t": 104046.3,
      "d": 527.4569374999992,
      "v": 62
    },
    {
      "midi": 55,
      "hit": false,
      "t": 104046.3,
      "d": 543.352899999998,
      "v": 60
    },
    {
      "midi": 57,
      "hit": false,
      "t": 105433.584,
      "d": 342.48573749999923,
      "v": 80
    },
    {
      "midi": 54,
      "hit": false,
      "t": 105433.584,
      "d": 352.6013499999972,
      "v": 60
    },
    {
      "midi": 62,
      "hit": false,
      "t": 105433.584,
      "d": 372.8325749999931,
      "v": 80
    },
    {
      "midi": 50,
      "hit": false,
      "t": 105433.584,
      "d": 388.72853749999194,
      "v": 76
    },
    {
      "midi": 62,
      "hit": false,
      "t": 106820.86799999999,
      "d": 1638.7292250000028,
      "v": 85
    },
    {
      "midi": 66,
      "hit": false,
      "t": 106820.86799999999,
      "d": 1654.6251875000016,
      "v": 72
    },
    {
      "midi": 59,
      "hit": false,
      "t": 106820.86799999999,
      "d": 1663.2957124999957,
      "v": 68
    },
    {
      "midi": 47,
      "hit": false,
      "t": 106820.86799999999,
      "d": 1674.8564124999975,
      "v": 72
    },
    {
      "midi": 56,
      "hit": false,
      "t": 109595.43599999999,
      "d": 2492.7759375000023,
      "v": 60
    },
    {
      "midi": 59,
      "hit": false,
      "t": 109595.43599999999,
      "d": 2501.4464624999964,
      "v": 72
    },
    {
      "midi": 52,
      "hit": false,
      "t": 109595.43599999999,
      "d": 2507.2268124999973,
      "v": 72
    },
    {
      "midi": 64,
      "hit": false,
      "t": 109595.43599999999,
      "d": 2527.458037499993,
      "v": 68
    },
    {
      "midi": 61,
      "hit": false,
      "t": 112716.82499999998,
      "d": 1010.116162499995,
      "v": 98
    },
    {
      "midi": 64,
      "hit": false,
      "t": 112716.82499999998,
      "d": 1014.451424999992,
      "v": 102
    },
    {
      "midi": 57,
      "hit": false,
      "t": 112716.82499999998,
      "d": 1039.017912499985,
      "v": 89
    },
    {
      "midi": 43,
      "hit": false,
      "t": 113757.28799999997,
      "d": 85.2601624999952,
      "v": 93
    },
    {
      "midi": 59,
      "hit": false,
      "t": 114104.10899999997,
      "d": 332.3701250000013,
      "v": 93
    },
    {
      "midi": 55,
      "hit": false,
      "t": 114104.10899999997,
      "d": 397.3990625000006,
      "v": 89
    },
    {
      "midi": 62,
      "hit": false,
      "t": 114104.10899999997,
      "d": 419.07537500000035,
      "v": 93
    },
    {
      "midi": 54,
      "hit": false,
      "t": 114797.75099999997,
      "d": 306.35855000000447,
      "v": 76
    },
    {
      "midi": 57,
      "hit": false,
      "t": 114797.75099999997,
      "d": 307.80363750000834,
      "v": 89
    },
    {
      "midi": 62,
      "hit": false,
      "t": 114797.75099999997,
      "d": 339.59556250000605,
      "v": 98
    },
    {
      "midi": 64,
      "hit": false,
      "t": 115491.39299999998,
      "d": 962.4282749999984,
      "v": 89
    },
    {
      "midi": 61,
      "hit": false,
      "t": 115491.39299999998,
      "d": 981.214412500005,
      "v": 85
    },
    {
      "midi": 45,
      "hit": false,
      "t": 115491.39299999998,
      "d": 989.8849374999991,
      "v": 102
    },
    {
      "midi": 57,
      "hit": false,
      "t": 115491.39299999998,
      "d": 998.5554624999932,
      "v": 89
    },
    {
      "midi": 59,
      "hit": false,
      "t": 116878.67699999998,
      "d": 309.24872499999765,
      "v": 85
    },
    {
      "midi": 62,
      "hit": false,
      "t": 116878.67699999998,
      "d": 338.1504750000022,
      "v": 93
    },
    {
      "midi": 55,
      "hit": false,
      "t": 116878.67699999998,
      "d": 341.04064999999537,
      "v": 76
    },
    {
      "midi": 57,
      "hit": false,
      "t": 117572.31899999997,
      "d": 313.5839874999947,
      "v": 85
    },
    {
      "midi": 62,
      "hit": false,
      "t": 117572.31899999997,
      "d": 328.0348624999897,
      "v": 85
    },
    {
      "midi": 54,
      "hit": false,
      "t": 117572.31899999997,
      "d": 329.47994999999355,
      "v": 72
    },
    {
      "midi": 52,
      "hit": false,
      "t": 117919.13999999997,
      "d": 890.1739000000089,
      "v": 49
    },
    {
      "midi": 45,
      "hit": false,
      "t": 117919.13999999997,
      "d": 913.2953000000125,
      "v": 68
    },
    {
      "midi": 64,
      "hit": false,
      "t": 117919.13999999997,
      "d": 920.5207375000173,
      "v": 60
    },
    {
      "midi": 61,
      "hit": false,
      "t": 117919.13999999997,
      "d": 924.8560000000143,
      "v": 62
    },
    {
      "midi": 57,
      "hit": false,
      "t": 117919.13999999997,
      "d": 949.4224875000073,
      "v": 55
    },
    {
      "midi": 59,
      "hit": false,
      "t": 119306.42399999997,
      "d": 284.6822375000047,
      "v": 59
    },
    {
      "midi": 55,
      "hit": false,
      "t": 119306.42399999997,
      "d": 307.80363750000834,
      "v": 57
    },
    {
      "midi": 62,
      "hit": false,
      "t": 119306.42399999997,
      "d": 315.0290750000131,
      "v": 52
    },
    {
      "midi": 43,
      "hit": false,
      "t": 119306.42399999997,
      "d": 317.9192500000063,
      "v": 56
    },
    {
      "midi": 62,
      "hit": false,
      "t": 120000.06599999998,
      "d": 290.46258749999106,
      "v": 46
    },
    {
      "midi": 57,
      "hit": false,
      "t": 120000.06599999998,
      "d": 296.24293749999197,
      "v": 72
    },
    {
      "midi": 54,
      "hit": false,
      "t": 120000.06599999998,
      "d": 303.46837499999674,
      "v": 57
    },
    {
      "midi": 50,
      "hit": false,
      "t": 120000.06599999998,
      "d": 333.8152124999906,
      "v": 72
    },
    {
      "midi": 61,
      "hit": false,
      "t": 120693.70799999997,
      "d": 874.2779374999955,
      "v": 60
    },
    {
      "midi": 52,
      "hit": false,
      "t": 120693.70799999997,
      "d": 882.9484624999895,
      "v": 62
    },
    {
      "midi": 64,
      "hit": false,
      "t": 120693.70799999997,
      "d": 882.9484624999895,
      "v": 62
    },
    {
      "midi": 45,
      "hit": false,
      "t": 120693.70799999997,
      "d": 884.3935499999934,
      "v": 62
    },
    {
      "midi": 57,
      "hit": false,
      "t": 120693.70799999997,
      "d": 893.0640749999875,
      "v": 62
    },
    {
      "midi": 59,
      "hit": false,
      "t": 122080.99199999997,
      "d": 291.9076749999949,
      "v": 59
    },
    {
      "midi": 62,
      "hit": false,
      "t": 122080.99199999997,
      "d": 297.68802499999583,
      "v": 62
    },
    {
      "midi": 43,
      "hit": false,
      "t": 122080.99199999997,
      "d": 300.578199999989,
      "v": 76
    },
    {
      "midi": 55,
      "hit": false,
      "t": 122080.99199999997,
      "d": 304.91346249998605,
      "v": 64
    },
    {
      "midi": 57,
      "hit": false,
      "t": 122774.63399999996,
      "d": 342.48573749999923,
      "v": 80
    },
    {
      "midi": 62,
      "hit": false,
      "t": 122774.63399999996,
      "d": 359.82678750000196,
      "v": 72
    },
    {
      "midi": 54,
      "hit": false,
      "t": 122774.63399999996,
      "d": 361.2718750000058,
      "v": 60
    },
    {
      "midi": 50,
      "hit": false,
      "t": 122774.63399999996,
      "d": 387.28345000000263,
      "v": 85
    },
    {
      "midi": 52,
      "hit": false,
      "t": 123468.27599999997,
      "d": 959.5381000000052,
      "v": 62
    },
    {
      "midi": 64,
      "hit": false,
      "t": 123468.27599999997,
      "d": 959.5381000000052,
      "v": 72
    },
    {
      "midi": 61,
      "hit": false,
      "t": 123468.27599999997,
      "d": 975.4340625000041,
      "v": 68
    },
    {
      "midi": 45,
      "hit": false,
      "t": 123468.27599999997,
      "d": 991.3300250000029,
      "v": 85
    },
    {
      "midi": 57,
      "hit": false,
      "t": 123468.27599999997,
      "d": 997.1103750000038,
      "v": 68
    },
    {
      "midi": 59,
      "hit": false,
      "t": 124855.55999999997,
      "d": 297.6880250000104,
      "v": 64
    },
    {
      "midi": 62,
      "hit": false,
      "t": 124855.55999999997,
      "d": 312.1389000000054,
      "v": 62
    },
    {
      "midi": 43,
      "hit": false,
      "t": 124855.55999999997,
      "d": 322.25451250000333,
      "v": 76
    },
    {
      "midi": 55,
      "hit": false,
      "t": 124855.55999999997,
      "d": 322.25451250000333,
      "v": 62
    },
    {
      "midi": 57,
      "hit": false,
      "t": 125549.20199999996,
      "d": 328.0348624999897,
      "v": 72
    },
    {
      "midi": 54,
      "hit": false,
      "t": 125549.20199999996,
      "d": 332.37012499998673,
      "v": 62
    },
    {
      "midi": 62,
      "hit": false,
      "t": 125549.20199999996,
      "d": 343.93082499998854,
      "v": 57
    },
    {
      "midi": 64,
      "hit": false,
      "t": 126242.84399999995,
      "d": 1137.2838625000004,
      "v": 64
    },
    {
      "midi": 52,
      "hit": false,
      "t": 126242.84399999995,
      "d": 1138.7289500000043,
      "v": 62
    },
    {
      "midi": 61,
      "hit": false,
      "t": 126242.84399999995,
      "d": 1141.6191249999974,
      "v": 68
    },
    {
      "midi": 45,
      "hit": false,
      "t": 126242.84399999995,
      "d": 1154.6249125000031,
      "v": 85
    },
    {
      "midi": 57,
      "hit": false,
      "t": 126242.84399999995,
      "d": 1156.070000000007,
      "v": 68
    },
    {
      "midi": 52,
      "hit": false,
      "t": 127630.12799999995,
      "d": 784.6825125000032,
      "v": 47
    },
    {
      "midi": 57,
      "hit": false,
      "t": 127630.12799999995,
      "d": 790.4628625000041,
      "v": 51
    },
    {
      "midi": 45,
      "hit": false,
      "t": 127630.12799999995,
      "d": 796.243212500005,
      "v": 72
    },
    {
      "midi": 61,
      "hit": false,
      "t": 127630.12799999995,
      "d": 797.6883000000089,
      "v": 62
    },
    {
      "midi": 57,
      "hit": false,
      "t": 129017.41199999997,
      "d": 2170.521424999999,
      "v": 53
    },
    {
      "midi": 66,
      "hit": false,
      "t": 129017.41199999997,
      "d": 2176.3017749999854,
      "v": 60
    },
    {
      "midi": 62,
      "hit": false,
      "t": 129017.41199999997,
      "d": 2195.0879124999774,
      "v": 72
    },
    {
      "midi": 50,
      "hit": false,
      "t": 129017.41199999997,
      "d": 2229.770012499983,
      "v": 76
    },
    {
      "midi": 64,
      "hit": false,
      "t": 131791.97999999995,
      "d": 1742.7755250000046,
      "v": 60
    },
    {
      "midi": 55,
      "hit": false,
      "t": 131791.97999999995,
      "d": 1776.0125375000061,
      "v": 52
    },
    {
      "midi": 60,
      "hit": false,
      "t": 131791.97999999995,
      "d": 1783.2379749999964,
      "v": 62
    },
    {
      "midi": 48,
      "hit": false,
      "t": 131791.97999999995,
      "d": 1796.243762500002,
      "v": 62
    },
    {
      "midi": 57,
      "hit": false,
      "t": 134566.54799999995,
      "d": 2394.5099875000014,
      "v": 76
    },
    {
      "midi": 66,
      "hit": false,
      "t": 134566.54799999995,
      "d": 2410.405950000015,
      "v": 72
    },
    {
      "midi": 62,
      "hit": false,
      "t": 134566.54799999995,
      "d": 2417.631387500005,
      "v": 89
    },
    {
      "midi": 64,
      "hit": false,
      "t": 137341.11599999995,
      "d": 1916.1860249999736,
      "v": 62
    },
    {
      "midi": 67,
      "hit": false,
      "t": 137341.11599999995,
      "d": 1924.8565499999677,
      "v": 57
    },
    {
      "midi": 60,
      "hit": false,
      "t": 137341.11599999995,
      "d": 1943.6426874999597,
      "v": 55
    },
    {
      "midi": 55,
      "hit": false,
      "t": 137341.11599999995,
      "d": 1979.769874999969,
      "v": 48
    },
    {
      "midi": 48,
      "hit": false,
      "t": 137341.11599999995,
      "d": 2005.7814499999804,
      "v": 53
    },
    {
      "midi": 64,
      "hit": false,
      "t": 140115.68399999992,
      "d": 2472.5447125000064,
      "v": 76
    },
    {
      "midi": 56,
      "hit": false,
      "t": 140115.68399999992,
      "d": 2638.7297750000143,
      "v": 68
    },
    {
      "midi": 59,
      "hit": false,
      "t": 140115.68399999992,
      "d": 2647.4003000000084,
      "v": 80
    },
    {
      "midi": 52,
      "hit": false,
      "t": 142543.43099999992,
      "d": 342.4857375000138,
      "v": 89
    },
    {
      "midi": 56,
      "hit": false,
      "t": 142890.25199999995,
      "d": 2430.6371750000108,
      "v": 56
    },
    {
      "midi": 59,
      "hit": false,
      "t": 142890.25199999995,
      "d": 2446.533137500024,
      "v": 76
    },
    {
      "midi": 64,
      "hit": false,
      "t": 142890.25199999995,
      "d": 2469.654537500028,
      "v": 72
    },
    {
      "midi": 40,
      "hit": false,
      "t": 144277.53599999996,
      "d": 1059.24913750001,
      "v": 76
    },
    {
      "midi": 64,
      "hit": false,
      "t": 145664.81999999998,
      "d": 1725.4344749999873,
      "v": 62
    },
    {
      "midi": 69,
      "hit": false,
      "t": 145664.81999999998,
      "d": 1754.3362249999773,
      "v": 60
    },
    {
      "midi": 52,
      "hit": false,
      "t": 145664.81999999998,
      "d": 1760.1165749999636,
      "v": 57
    },
    {
      "midi": 61,
      "hit": false,
      "t": 145664.81999999998,
      "d": 1764.4518374999752,
      "v": 56
    },
    {
      "midi": 45,
      "hit": false,
      "t": 145664.81999999998,
      "d": 1812.1397249999864,
      "v": 64
    },
    {
      "midi": 59,
      "hit": false,
      "t": 148439.38799999998,
      "d": 372.83257499997853,
      "v": 56
    },
    {
      "midi": 62,
      "hit": false,
      "t": 148439.38799999998,
      "d": 380.05801249996875,
      "v": 37
    },
    {
      "midi": 43,
      "hit": false,
      "t": 148439.38799999998,
      "d": 390.1736249999667,
      "v": 62
    },
    {
      "midi": 55,
      "hit": false,
      "t": 148439.38799999998,
      "d": 398.8441499999608,
      "v": 53
    },
    {
      "midi": 62,
      "hit": false,
      "t": 149826.67199999993,
      "d": 351.15626250000787,
      "v": 64
    },
    {
      "midi": 57,
      "hit": false,
      "t": 149826.67199999993,
      "d": 374.2776625000115,
      "v": 72
    },
    {
      "midi": 54,
      "hit": false,
      "t": 149826.67199999993,
      "d": 381.5031000000017,
      "v": 62
    },
    {
      "midi": 50,
      "hit": false,
      "t": 149826.67199999993,
      "d": 394.5088875000074,
      "v": 64
    },
    {
      "midi": 52,
      "hit": false,
      "t": 151213.95599999995,
      "d": 1770.2321874999907,
      "v": 42
    },
    {
      "midi": 45,
      "hit": false,
      "t": 151213.95599999995,
      "d": 1826.590599999996,
      "v": 62
    },
    {
      "midi": 64,
      "hit": false,
      "t": 151213.95599999995,
      "d": 1845.376737499988,
      "v": 46
    },
    {
      "midi": 61,
      "hit": false,
      "t": 151213.95599999995,
      "d": 1865.6079624999838,
      "v": 59
    },
    {
      "midi": 57,
      "hit": false,
      "t": 151213.95599999995,
      "d": 1880.0588374999934,
      "v": 56
    },
    {
      "midi": 43,
      "hit": false,
      "t": 153988.52399999992,
      "d": 500.0002749999985,
      "v": 62
    },
    {
      "midi": 59,
      "hit": false,
      "t": 153988.52399999992,
      "d": 515.8962375000119,
      "v": 68
    },
    {
      "midi": 62,
      "hit": false,
      "t": 153988.52399999992,
      "d": 527.4569375000137,
      "v": 62
    },
    {
      "midi": 55,
      "hit": false,
      "t": 153988.52399999992,
      "d": 543.3529000000271,
      "v": 60
    },
    {
      "midi": 57,
      "hit": false,
      "t": 155375.80799999993,
      "d": 342.4857375000138,
      "v": 80
    },
    {
      "midi": 54,
      "hit": false,
      "t": 155375.80799999993,
      "d": 352.60135000001173,
      "v": 60
    },
    {
      "midi": 62,
      "hit": false,
      "t": 155375.80799999993,
      "d": 372.83257500000764,
      "v": 80
    },
    {
      "midi": 50,
      "hit": false,
      "t": 155375.80799999993,
      "d": 388.72853750002105,
      "v": 76
    },
    {
      "midi": 62,
      "hit": false,
      "t": 156763.09199999995,
      "d": 1638.7292249999882,
      "v": 85
    },
    {
      "midi": 66,
      "hit": false,
      "t": 156763.09199999995,
      "d": 1654.6251875000016,
      "v": 72
    },
    {
      "midi": 59,
      "hit": false,
      "t": 156763.09199999995,
      "d": 1663.2957124999957,
      "v": 68
    },
    {
      "midi": 47,
      "hit": false,
      "t": 156763.09199999995,
      "d": 1674.8564124999975,
      "v": 72
    },
    {
      "midi": 56,
      "hit": false,
      "t": 159537.65999999995,
      "d": 2492.7759375000023,
      "v": 60
    },
    {
      "midi": 59,
      "hit": false,
      "t": 159537.65999999995,
      "d": 2501.4464624999964,
      "v": 72
    },
    {
      "midi": 52,
      "hit": false,
      "t": 159537.65999999995,
      "d": 2507.2268124999828,
      "v": 72
    },
    {
      "midi": 64,
      "hit": false,
      "t": 159537.65999999995,
      "d": 2527.4580374999787,
      "v": 68
    },
    {
      "midi": 64,
      "hit": false,
      "t": 162659.0489999999,
      "d": 962.428275000013,
      "v": 89
    },
    {
      "midi": 61,
      "hit": false,
      "t": 162659.0489999999,
      "d": 981.214412500005,
      "v": 85
    },
    {
      "midi": 45,
      "hit": false,
      "t": 162659.0489999999,
      "d": 989.8849374999991,
      "v": 102
    },
    {
      "midi": 57,
      "hit": false,
      "t": 162659.0489999999,
      "d": 998.5554624999932,
      "v": 89
    },
    {
      "midi": 59,
      "hit": false,
      "t": 164046.3329999999,
      "d": 309.2487250000122,
      "v": 85
    },
    {
      "midi": 62,
      "hit": false,
      "t": 164046.3329999999,
      "d": 338.1504750000022,
      "v": 93
    },
    {
      "midi": 55,
      "hit": false,
      "t": 164046.3329999999,
      "d": 341.0406500000099,
      "v": 76
    },
    {
      "midi": 57,
      "hit": false,
      "t": 164739.97499999992,
      "d": 313.5839874999947,
      "v": 85
    },
    {
      "midi": 62,
      "hit": false,
      "t": 164739.97499999992,
      "d": 328.03486250000424,
      "v": 85
    },
    {
      "midi": 54,
      "hit": false,
      "t": 164739.97499999992,
      "d": 329.4799500000081,
      "v": 72
    },
    {
      "midi": 52,
      "hit": false,
      "t": 165086.79599999991,
      "d": 890.1738999999943,
      "v": 49
    },
    {
      "midi": 45,
      "hit": false,
      "t": 165086.79599999991,
      "d": 913.295299999998,
      "v": 68
    },
    {
      "midi": 64,
      "hit": false,
      "t": 165086.79599999991,
      "d": 920.5207374999882,
      "v": 60
    },
    {
      "midi": 61,
      "hit": false,
      "t": 165086.79599999991,
      "d": 924.8559999999998,
      "v": 62
    },
    {
      "midi": 57,
      "hit": false,
      "t": 165086.79599999991,
      "d": 949.4224875000073,
      "v": 55
    },
    {
      "midi": 59,
      "hit": false,
      "t": 166474.07999999993,
      "d": 284.6822374999756,
      "v": 59
    },
    {
      "midi": 55,
      "hit": false,
      "t": 166474.07999999993,
      "d": 307.80363749997923,
      "v": 57
    },
    {
      "midi": 62,
      "hit": false,
      "t": 166474.07999999993,
      "d": 315.02907499996945,
      "v": 52
    },
    {
      "midi": 43,
      "hit": false,
      "t": 166474.07999999993,
      "d": 317.9192499999772,
      "v": 56
    },
    {
      "midi": 62,
      "hit": false,
      "t": 167167.7219999999,
      "d": 290.46258749999106,
      "v": 46
    },
    {
      "midi": 57,
      "hit": false,
      "t": 167167.7219999999,
      "d": 296.2429374999774,
      "v": 72
    },
    {
      "midi": 54,
      "hit": false,
      "t": 167167.7219999999,
      "d": 303.46837499996764,
      "v": 57
    },
    {
      "midi": 50,
      "hit": false,
      "t": 167167.7219999999,
      "d": 333.8152124999615,
      "v": 72
    },
    {
      "midi": 61,
      "hit": false,
      "t": 167861.36399999983,
      "d": 874.27793750001,
      "v": 60
    },
    {
      "midi": 52,
      "hit": false,
      "t": 167861.36399999983,
      "d": 882.9484625000041,
      "v": 62
    },
    {
      "midi": 64,
      "hit": false,
      "t": 167861.36399999983,
      "d": 882.9484625000041,
      "v": 62
    },
    {
      "midi": 45,
      "hit": false,
      "t": 167861.36399999983,
      "d": 884.393550000008,
      "v": 62
    },
    {
      "midi": 57,
      "hit": false,
      "t": 167861.36399999983,
      "d": 893.064075000002,
      "v": 62
    },
    {
      "midi": 59,
      "hit": false,
      "t": 169248.6479999998,
      "d": 291.9076749999949,
      "v": 59
    },
    {
      "midi": 62,
      "hit": false,
      "t": 169248.6479999998,
      "d": 297.6880249999813,
      "v": 62
    },
    {
      "midi": 43,
      "hit": false,
      "t": 169248.6479999998,
      "d": 300.578199999989,
      "v": 76
    },
    {
      "midi": 55,
      "hit": false,
      "t": 169248.6479999998,
      "d": 304.9134625000006,
      "v": 64
    },
    {
      "midi": 57,
      "hit": false,
      "t": 169942.2899999998,
      "d": 342.4857374999847,
      "v": 80
    },
    {
      "midi": 62,
      "hit": false,
      "t": 169942.2899999998,
      "d": 359.82678749997285,
      "v": 72
    },
    {
      "midi": 54,
      "hit": false,
      "t": 169942.2899999998,
      "d": 361.2718749999767,
      "v": 60
    },
    {
      "midi": 50,
      "hit": false,
      "t": 169942.2899999998,
      "d": 387.2834499999881,
      "v": 85
    },
    {
      "midi": 52,
      "hit": false,
      "t": 170635.9319999998,
      "d": 959.5381000000052,
      "v": 62
    },
    {
      "midi": 64,
      "hit": false,
      "t": 170635.9319999998,
      "d": 959.5381000000052,
      "v": 72
    },
    {
      "midi": 61,
      "hit": false,
      "t": 170635.9319999998,
      "d": 975.4340625000186,
      "v": 68
    },
    {
      "midi": 45,
      "hit": false,
      "t": 170635.9319999998,
      "d": 991.330025000032,
      "v": 85
    },
    {
      "midi": 57,
      "hit": false,
      "t": 170635.9319999998,
      "d": 997.1103750000184,
      "v": 68
    },
    {
      "midi": 59,
      "hit": false,
      "t": 172023.2159999998,
      "d": 297.6880250000104,
      "v": 64
    },
    {
      "midi": 62,
      "hit": false,
      "t": 172023.2159999998,
      "d": 312.13890000001993,
      "v": 62
    },
    {
      "midi": 43,
      "hit": false,
      "t": 172023.2159999998,
      "d": 322.2545125000179,
      "v": 76
    },
    {
      "midi": 55,
      "hit": false,
      "t": 172023.2159999998,
      "d": 322.2545125000179,
      "v": 62
    },
    {
      "midi": 57,
      "hit": false,
      "t": 172716.85799999983,
      "d": 328.03486250000424,
      "v": 72
    },
    {
      "midi": 54,
      "hit": false,
      "t": 172716.85799999983,
      "d": 332.37012500001583,
      "v": 62
    },
    {
      "midi": 62,
      "hit": false,
      "t": 172716.85799999983,
      "d": 343.93082500001765,
      "v": 57
    },
    {
      "midi": 64,
      "hit": false,
      "t": 173410.49999999985,
      "d": 1137.283862500015,
      "v": 64
    },
    {
      "midi": 52,
      "hit": false,
      "t": 173410.49999999985,
      "d": 1138.7289500000188,
      "v": 62
    },
    {
      "midi": 61,
      "hit": false,
      "t": 173410.49999999985,
      "d": 1141.6191250000265,
      "v": 68
    },
    {
      "midi": 45,
      "hit": false,
      "t": 173410.49999999985,
      "d": 1154.6249125000322,
      "v": 85
    },
    {
      "midi": 57,
      "hit": false,
      "t": 173410.49999999985,
      "d": 1156.070000000036,
      "v": 68
    },
    {
      "midi": 52,
      "hit": false,
      "t": 174797.7839999999,
      "d": 784.6825125000032,
      "v": 47
    },
    {
      "midi": 57,
      "hit": false,
      "t": 174797.7839999999,
      "d": 790.4628624999896,
      "v": 51
    },
    {
      "midi": 45,
      "hit": false,
      "t": 174797.7839999999,
      "d": 796.2432124999759,
      "v": 72
    },
    {
      "midi": 61,
      "hit": false,
      "t": 174797.7839999999,
      "d": 797.6882999999798,
      "v": 62
    },
    {
      "midi": 57,
      "hit": false,
      "t": 176185.06799999988,
      "d": 2170.5214249999844,
      "v": 53
    },
    {
      "midi": 66,
      "hit": false,
      "t": 176185.06799999988,
      "d": 2176.301774999971,
      "v": 60
    },
    {
      "midi": 62,
      "hit": false,
      "t": 176185.06799999988,
      "d": 2195.087912499963,
      "v": 72
    },
    {
      "midi": 50,
      "hit": false,
      "t": 176185.06799999988,
      "d": 2229.7700124999683,
      "v": 76
    },
    {
      "midi": 64,
      "hit": false,
      "t": 178959.63599999985,
      "d": 1742.7755250000046,
      "v": 60
    },
    {
      "midi": 55,
      "hit": false,
      "t": 178959.63599999985,
      "d": 1776.0125375000061,
      "v": 52
    },
    {
      "midi": 60,
      "hit": false,
      "t": 178959.63599999985,
      "d": 1783.2379749999964,
      "v": 62
    },
    {
      "midi": 48,
      "hit": false,
      "t": 178959.63599999985,
      "d": 1796.243762500002,
      "v": 62
    },
    {
      "midi": 57,
      "hit": false,
      "t": 181734.20399999985,
      "d": 2394.5099875000014,
      "v": 76
    },
    {
      "midi": 66,
      "hit": false,
      "t": 181734.20399999985,
      "d": 2410.405950000015,
      "v": 72
    },
    {
      "midi": 62,
      "hit": false,
      "t": 181734.20399999985,
      "d": 2417.631387500005,
      "v": 89
    },
    {
      "midi": 64,
      "hit": false,
      "t": 184508.77199999985,
      "d": 1916.1860249999736,
      "v": 62
    },
    {
      "midi": 67,
      "hit": false,
      "t": 184508.77199999985,
      "d": 1924.8565499999677,
      "v": 57
    },
    {
      "midi": 60,
      "hit": false,
      "t": 184508.77199999985,
      "d": 1943.6426874999597,
      "v": 55
    },
    {
      "midi": 55,
      "hit": false,
      "t": 184508.77199999985,
      "d": 1979.769874999969,
      "v": 48
    },
    {
      "midi": 48,
      "hit": false,
      "t": 184508.77199999985,
      "d": 2005.7814499999804,
      "v": 53
    },
    {
      "midi": 64,
      "hit": false,
      "t": 187283.33999999982,
      "d": 2472.5447125000064,
      "v": 76
    },
    {
      "midi": 56,
      "hit": false,
      "t": 187283.33999999982,
      "d": 2638.7297750000143,
      "v": 68
    },
    {
      "midi": 59,
      "hit": false,
      "t": 187283.33999999982,
      "d": 2647.4003000000084,
      "v": 80
    },
    {
      "midi": 52,
      "hit": false,
      "t": 189711.08699999982,
      "d": 342.4857375000138,
      "v": 89
    },
    {
      "midi": 56,
      "hit": false,
      "t": 190057.90799999985,
      "d": 2430.6371750000108,
      "v": 56
    },
    {
      "midi": 59,
      "hit": false,
      "t": 190057.90799999985,
      "d": 2446.533137500024,
      "v": 76
    },
    {
      "midi": 64,
      "hit": false,
      "t": 190057.90799999985,
      "d": 2469.654537500028,
      "v": 72
    },
    {
      "midi": 40,
      "hit": false,
      "t": 191445.19199999986,
      "d": 1059.24913750001,
      "v": 76
    },
    {
      "midi": 64,
      "hit": false,
      "t": 192832.47599999988,
      "d": 1725.4344749999873,
      "v": 62
    },
    {
      "midi": 69,
      "hit": false,
      "t": 192832.47599999988,
      "d": 1754.3362249999773,
      "v": 60
    },
    {
      "midi": 52,
      "hit": false,
      "t": 192832.47599999988,
      "d": 1760.1165749999636,
      "v": 57
    },
    {
      "midi": 61,
      "hit": false,
      "t": 192832.47599999988,
      "d": 1764.4518374999752,
      "v": 56
    },
    {
      "midi": 45,
      "hit": false,
      "t": 192832.47599999988,
      "d": 1812.1397249999864,
      "v": 64
    },
    {
      "midi": 59,
      "hit": false,
      "t": 195607.04399999988,
      "d": 372.83257499997853,
      "v": 56
    },
    {
      "midi": 62,
      "hit": false,
      "t": 195607.04399999988,
      "d": 380.05801249996875,
      "v": 37
    },
    {
      "midi": 43,
      "hit": false,
      "t": 195607.04399999988,
      "d": 390.1736249999667,
      "v": 62
    },
    {
      "midi": 55,
      "hit": false,
      "t": 195607.04399999988,
      "d": 398.8441499999608,
      "v": 53
    },
    {
      "midi": 62,
      "hit": false,
      "t": 196994.32799999983,
      "d": 351.15626250000787,
      "v": 64
    },
    {
      "midi": 57,
      "hit": false,
      "t": 196994.32799999983,
      "d": 374.2776625000115,
      "v": 72
    },
    {
      "midi": 54,
      "hit": false,
      "t": 196994.32799999983,
      "d": 381.5031000000017,
      "v": 62
    },
    {
      "midi": 50,
      "hit": false,
      "t": 196994.32799999983,
      "d": 394.5088875000074,
      "v": 64
    },
    {
      "midi": 52,
      "hit": false,
      "t": 198381.61199999985,
      "d": 1770.2321874999907,
      "v": 42
    },
    {
      "midi": 45,
      "hit": false,
      "t": 198381.61199999985,
      "d": 1826.590599999996,
      "v": 62
    },
    {
      "midi": 64,
      "hit": false,
      "t": 198381.61199999985,
      "d": 1845.376737499988,
      "v": 46
    },
    {
      "midi": 61,
      "hit": false,
      "t": 198381.61199999985,
      "d": 1865.6079624999838,
      "v": 59
    },
    {
      "midi": 57,
      "hit": false,
      "t": 198381.61199999985,
      "d": 1880.0588374999934,
      "v": 56
    },
    {
      "midi": 43,
      "hit": false,
      "t": 201156.17999999982,
      "d": 500.0002749999985,
      "v": 62
    },
    {
      "midi": 59,
      "hit": false,
      "t": 201156.17999999982,
      "d": 515.8962375000119,
      "v": 68
    },
    {
      "midi": 62,
      "hit": false,
      "t": 201156.17999999982,
      "d": 527.4569375000137,
      "v": 62
    },
    {
      "midi": 55,
      "hit": false,
      "t": 201156.17999999982,
      "d": 543.3529000000271,
      "v": 60
    },
    {
      "midi": 57,
      "hit": false,
      "t": 202543.46399999983,
      "d": 342.4857375000138,
      "v": 80
    },
    {
      "midi": 54,
      "hit": false,
      "t": 202543.46399999983,
      "d": 352.60135000001173,
      "v": 60
    },
    {
      "midi": 62,
      "hit": false,
      "t": 202543.46399999983,
      "d": 372.83257500000764,
      "v": 80
    },
    {
      "midi": 50,
      "hit": false,
      "t": 202543.46399999983,
      "d": 388.72853750002105,
      "v": 76
    },
    {
      "midi": 62,
      "hit": false,
      "t": 203930.74799999985,
      "d": 1638.7292249999882,
      "v": 85
    },
    {
      "midi": 66,
      "hit": false,
      "t": 203930.74799999985,
      "d": 1654.6251875000016,
      "v": 72
    },
    {
      "midi": 59,
      "hit": false,
      "t": 203930.74799999985,
      "d": 1663.2957124999957,
      "v": 68
    },
    {
      "midi": 47,
      "hit": false,
      "t": 203930.74799999985,
      "d": 1674.8564124999975,
      "v": 72
    },
    {
      "midi": 56,
      "hit": false,
      "t": 206705.31599999985,
      "d": 2492.7759375000023,
      "v": 60
    },
    {
      "midi": 59,
      "hit": false,
      "t": 206705.31599999985,
      "d": 2501.4464624999964,
      "v": 72
    },
    {
      "midi": 52,
      "hit": false,
      "t": 206705.31599999985,
      "d": 2507.2268124999828,
      "v": 72
    },
    {
      "midi": 64,
      "hit": false,
      "t": 206705.31599999985,
      "d": 2527.4580374999787,
      "v": 68
    },
    {
      "midi": 64,
      "hit": false,
      "t": 209479.88399999982,
      "d": 1725.4344749999873,
      "v": 62
    },
    {
      "midi": 69,
      "hit": false,
      "t": 209479.88399999982,
      "d": 1754.3362249999773,
      "v": 60
    },
    {
      "midi": 52,
      "hit": false,
      "t": 209479.88399999982,
      "d": 1760.1165749999636,
      "v": 57
    },
    {
      "midi": 61,
      "hit": false,
      "t": 209479.88399999982,
      "d": 1764.4518374999752,
      "v": 56
    },
    {
      "midi": 45,
      "hit": false,
      "t": 209479.88399999982,
      "d": 1812.1397249999864,
      "v": 64
    },
    {
      "midi": 59,
      "hit": false,
      "t": 212254.45199999982,
      "d": 372.83257499997853,
      "v": 56
    },
    {
      "midi": 62,
      "hit": false,
      "t": 212254.45199999982,
      "d": 380.05801249996875,
      "v": 37
    },
    {
      "midi": 43,
      "hit": false,
      "t": 212254.45199999982,
      "d": 390.1736249999667,
      "v": 62
    },
    {
      "midi": 55,
      "hit": false,
      "t": 212254.45199999982,
      "d": 398.8441499999608,
      "v": 53
    },
    {
      "midi": 62,
      "hit": false,
      "t": 213641.73599999977,
      "d": 351.15626250000787,
      "v": 64
    },
    {
      "midi": 57,
      "hit": false,
      "t": 213641.73599999977,
      "d": 374.2776625000115,
      "v": 72
    },
    {
      "midi": 54,
      "hit": false,
      "t": 213641.73599999977,
      "d": 381.5031000000017,
      "v": 62
    },
    {
      "midi": 50,
      "hit": false,
      "t": 213641.73599999977,
      "d": 394.5088875000074,
      "v": 64
    },
    {
      "midi": 52,
      "hit": false,
      "t": 215029.0199999998,
      "d": 1770.2321874999907,
      "v": 42
    },
    {
      "midi": 45,
      "hit": false,
      "t": 215029.0199999998,
      "d": 1826.590599999996,
      "v": 62
    },
    {
      "midi": 64,
      "hit": false,
      "t": 215029.0199999998,
      "d": 1845.376737499988,
      "v": 46
    },
    {
      "midi": 61,
      "hit": false,
      "t": 215029.0199999998,
      "d": 1865.6079624999838,
      "v": 59
    },
    {
      "midi": 57,
      "hit": false,
      "t": 215029.0199999998,
      "d": 1880.0588374999934,
      "v": 56
    },
    {
      "midi": 43,
      "hit": false,
      "t": 217803.58799999976,
      "d": 500.0002749999985,
      "v": 62
    },
    {
      "midi": 59,
      "hit": false,
      "t": 217803.58799999976,
      "d": 515.8962375000119,
      "v": 68
    },
    {
      "midi": 62,
      "hit": false,
      "t": 217803.58799999976,
      "d": 527.4569375000137,
      "v": 62
    },
    {
      "midi": 55,
      "hit": false,
      "t": 217803.58799999976,
      "d": 543.3529000000271,
      "v": 60
    },
    {
      "midi": 57,
      "hit": false,
      "t": 219190.87199999977,
      "d": 342.4857375000138,
      "v": 80
    },
    {
      "midi": 54,
      "hit": false,
      "t": 219190.87199999977,
      "d": 352.60135000001173,
      "v": 60
    },
    {
      "midi": 62,
      "hit": false,
      "t": 219190.87199999977,
      "d": 372.83257500000764,
      "v": 80
    },
    {
      "midi": 50,
      "hit": false,
      "t": 219190.87199999977,
      "d": 388.72853750002105,
      "v": 76
    },
    {
      "midi": 62,
      "hit": false,
      "t": 220578.15599999978,
      "d": 1638.7292249999882,
      "v": 85
    },
    {
      "midi": 66,
      "hit": false,
      "t": 220578.15599999978,
      "d": 1654.6251875000016,
      "v": 72
    },
    {
      "midi": 59,
      "hit": false,
      "t": 220578.15599999978,
      "d": 1663.2957124999957,
      "v": 68
    },
    {
      "midi": 47,
      "hit": false,
      "t": 220578.15599999978,
      "d": 1674.8564124999975,
      "v": 72
    },
    {
      "midi": 56,
      "hit": false,
      "t": 223352.72399999978,
      "d": 2492.7759375000023,
      "v": 60
    },
    {
      "midi": 59,
      "hit": false,
      "t": 223352.72399999978,
      "d": 2501.4464624999964,
      "v": 72
    },
    {
      "midi": 52,
      "hit": false,
      "t": 223352.72399999978,
      "d": 2507.2268124999828,
      "v": 72
    },
    {
      "midi": 64,
      "hit": false,
      "t": 223352.72399999978,
      "d": 2527.4580374999787,
      "v": 68
    },
    {
      "midi": 52,
      "hit": false,
      "t": 226127.29199999975,
      "d": 1848.2669124999957,
      "v": 89
    },
    {
      "midi": 57,
      "hit": false,
      "t": 226127.29199999975,
      "d": 2697.978362499998,
      "v": 72
    },
    {
      "midi": 45,
      "hit": false,
      "t": 238612.84799999977,
      "d": 3812.1408250000095,
      "v": 93
    },
    {
      "midi": 52,
      "hit": false,
      "t": 242774.69999999978,
      "d": 1848.2669124999957,
      "v": 89
    },
    {
      "midi": 57,
      "hit": false,
      "t": 242774.69999999978,
      "d": 2697.978362499969,
      "v": 72
    },
    {
      "midi": 45,
      "hit": false,
      "t": 242774.69999999978,
      "d": 2774.56799999997,
      "v": 93
    }
  ]
}