{
  "jsonPath": "Unknown/Unknown/Red Fox Grey Fox/bring-back-the-coast.json",
  "path": "Unknown\\Unknown\\Red Fox Grey Fox\\Bring Back The Coast.mid",
  "name": "Bring Back The Coast",
  "difficulty": "Advanced",
  "bpm": 64.99999458333379,
  "notes": [
    {
      "midi": 74,
      "hit": false,
      "t": 99692.31599999999,
      "d": 2951.9233229166566,
      "v": 105
    },
    {
      "midi": 86,
      "hit": false,
      "t": 99692.31599999999,
      "d": 2965.3848624999955,
      "v": 110
    },
    {
      "midi": 62,
      "hit": false,
      "t": 99692.31599999999,
      "d": 2967.307939583334,
      "v": 127
    },
    {
      "midi": 74,
      "hit": false,
      "t": 102923.08549999999,
      "d": 96.15385416665231,
      "v": 103
    },
    {
      "midi": 86,
      "hit": false,
      "t": 102944.23934791665,
      "d": 107.69231666665291,
      "v": 70
    },
    {
      "midi": 62,
      "hit": false,
      "t": 102948.08550208331,
      "d": 75.00000624998938,
      "v": 127
    },
    {
      "midi": 74,
      "hit": false,
      "t": 103153.85474999997,
      "d": 111.53847083332948,
      "v": 105
    },
    {
      "midi": 62,
      "hit": false,
      "t": 103157.70090416663,
      "d": 69.23077500000363,
      "v": 127
    },
    {
      "midi": 86,
      "hit": false,
      "t": 103163.47013541663,
      "d": 90.38462291666656,
      "v": 88
    },
    {
      "midi": 74,
      "hit": false,
      "t": 103384.62399999997,
      "d": 2932.692552083332,
      "v": 103
    },
    {
      "midi": 62,
      "hit": false,
      "t": 103390.39323124997,
      "d": 2928.84639791667,
      "v": 127
    },
    {
      "midi": 86,
      "hit": false,
      "t": 103390.39323124997,
      "d": 2940.3848604166706,
      "v": 102
    },
    {
      "midi": 74,
      "hit": false,
      "t": 106615.39349999998,
      "d": 107.69231666666747,
      "v": 99
    },
    {
      "midi": 62,
      "hit": false,
      "t": 106617.31657708331,
      "d": 69.23077499998908,
      "v": 125
    },
    {
      "midi": 86,
      "hit": false,
      "t": 106621.16273124998,
      "d": 90.38462291666656,
      "v": 90
    },
    {
      "midi": 62,
      "hit": false,
      "t": 106821.16274791665,
      "d": 75.00000625000393,
      "v": 121
    },
    {
      "midi": 86,
      "hit": false,
      "t": 106838.47044166665,
      "d": 90.38462291666656,
      "v": 78
    },
    {
      "midi": 74,
      "hit": false,
      "t": 106840.39351874999,
      "d": 115.3846249999915,
      "v": 93
    },
    {
      "midi": 86,
      "hit": false,
      "t": 107063.47046041665,
      "d": 2961.5387083333335,
      "v": 90
    },
    {
      "midi": 62,
      "hit": false,
      "t": 107067.31661458331,
      "d": 2944.2310145833326,
      "v": 127
    },
    {
      "midi": 74,
      "hit": false,
      "t": 107073.08584583331,
      "d": 2971.1540937500104,
      "v": 99
    },
    {
      "midi": 62,
      "hit": false,
      "t": 110294.23996041666,
      "d": 73.07692916666565,
      "v": 95
    },
    {
      "midi": 86,
      "hit": false,
      "t": 110301.93226875,
      "d": 88.46154583332827,
      "v": 70
    },
    {
      "midi": 74,
      "hit": false,
      "t": 110307.7015,
      "d": 107.69231666666747,
      "v": 93
    },
    {
      "midi": 62,
      "hit": false,
      "t": 110500.00920833333,
      "d": 82.69231458334252,
      "v": 121
    },
    {
      "midi": 86,
      "hit": false,
      "t": 110513.47074791667,
      "d": 98.07693125000515,
      "v": 78
    },
    {
      "midi": 74,
      "hit": false,
      "t": 110519.23997916667,
      "d": 121.15385625000636,
      "v": 99
    },
    {
      "midi": 74,
      "hit": false,
      "t": 110726.93230416668,
      "d": 1888.4616958333063,
      "v": 103
    },
    {
      "midi": 86,
      "hit": false,
      "t": 110732.70153541668,
      "d": 1892.3078499999683,
      "v": 98
    },
    {
      "midi": 62,
      "hit": false,
      "t": 110736.54768958334,
      "d": 1576.923208333319,
      "v": 127
    },
    {
      "midi": 72,
      "hit": false,
      "t": 112605.77861458332,
      "d": 1857.6924624999956,
      "v": 95
    },
    {
      "midi": 84,
      "hit": false,
      "t": 112617.31707708332,
      "d": 1846.153999999995,
      "v": 84
    },
    {
      "midi": 60,
      "hit": false,
      "t": 112621.16323124999,
      "d": 1842.307845833333,
      "v": 127
    },
    {
      "midi": 77,
      "hit": false,
      "t": 114461.54799999998,
      "d": 2819.2310041666788,
      "v": 126
    },
    {
      "midi": 89,
      "hit": false,
      "t": 114461.54799999998,
      "d": 2821.154081250017,
      "v": 127
    },
    {
      "midi": 65,
      "hit": false,
      "t": 114461.54799999998,
      "d": 2846.1540833333565,
      "v": 120
    },
    {
      "midi": 79,
      "hit": false,
      "t": 117692.3175,
      "d": 82.69231458332797,
      "v": 116
    },
    {
      "midi": 91,
      "hit": false,
      "t": 117692.3175,
      "d": 82.69231458332797,
      "v": 120
    },
    {
      "midi": 67,
      "hit": false,
      "t": 117692.3175,
      "d": 107.69231666666747,
      "v": 116
    },
    {
      "midi": 76,
      "hit": false,
      "t": 117923.08675,
      "d": 76.92308333332767,
      "v": 126
    },
    {
      "midi": 64,
      "hit": false,
      "t": 117923.08675,
      "d": 88.46154583332827,
      "v": 104
    },
    {
      "midi": 88,
      "hit": false,
      "t": 117923.08675,
      "d": 88.46154583332827,
      "v": 112
    },
    {
      "midi": 77,
      "hit": false,
      "t": 118153.856,
      "d": 2944.231014583318,
      "v": 116
    },
    {
      "midi": 65,
      "hit": false,
      "t": 118153.856,
      "d": 2946.1540916666563,
      "v": 120
    },
    {
      "midi": 89,
      "hit": false,
      "t": 118153.856,
      "d": 2961.538708333319,
      "v": 120
    },
    {
      "midi": 65,
      "hit": false,
      "t": 121384.62549999998,
      "d": 76.92308333332767,
      "v": 90
    },
    {
      "midi": 77,
      "hit": false,
      "t": 121384.62549999998,
      "d": 90.38462291666656,
      "v": 98
    },
    {
      "midi": 89,
      "hit": false,
      "t": 121384.62549999998,
      "d": 96.15385416666686,
      "v": 108
    },
    {
      "midi": 77,
      "hit": false,
      "t": 121615.39474999998,
      "d": 88.46154583332827,
      "v": 112
    },
    {
      "midi": 65,
      "hit": false,
      "t": 121615.39474999998,
      "d": 96.15385416666686,
      "v": 120
    },
    {
      "midi": 89,
      "hit": false,
      "t": 121615.39474999998,
      "d": 105.76923958332918,
      "v": 116
    },
    {
      "midi": 65,
      "hit": false,
      "t": 121846.16399999998,
      "d": 2980.7694791666727,
      "v": 126
    },
    {
      "midi": 77,
      "hit": false,
      "t": 121846.16399999998,
      "d": 2990.384864583335,
      "v": 120
    },
    {
      "midi": 89,
      "hit": false,
      "t": 121846.16399999998,
      "d": 3001.9233270833356,
      "v": 126
    },
    {
      "midi": 65,
      "hit": false,
      "t": 125076.93349999998,
      "d": 80.76923750000424,
      "v": 108
    },
    {
      "midi": 77,
      "hit": false,
      "t": 125076.93349999998,
      "d": 90.38462291666656,
      "v": 108
    },
    {
      "midi": 89,
      "hit": false,
      "t": 125076.93349999998,
      "d": 90.38462291666656,
      "v": 126
    },
    {
      "midi": 77,
      "hit": false,
      "t": 125307.70274999998,
      "d": 92.30770000000484,
      "v": 104
    },
    {
      "midi": 65,
      "hit": false,
      "t": 125307.70274999998,
      "d": 98.07693125000515,
      "v": 108
    },
    {
      "midi": 89,
      "hit": false,
      "t": 125307.70274999998,
      "d": 98.07693125000515,
      "v": 116
    },
    {
      "midi": 77,
      "hit": false,
      "t": 125538.472,
      "d": 1369.2308833333373,
      "v": 127
    },
    {
      "midi": 89,
      "hit": false,
      "t": 125538.472,
      "d": 1384.6154999999999,
      "v": 126
    },
    {
      "midi": 65,
      "hit": false,
      "t": 125538.472,
      "d": 1396.1539625000005,
      "v": 126
    },
    {
      "midi": 67,
      "hit": false,
      "t": 127384.62599999999,
      "d": 1694.2309104166634,
      "v": 126
    },
    {
      "midi": 79,
      "hit": false,
      "t": 127384.62599999999,
      "d": 1701.923218750002,
      "v": 112
    },
    {
      "midi": 91,
      "hit": false,
      "t": 127384.62599999999,
      "d": 1703.8462958333403,
      "v": 120
    },
    {
      "midi": 91,
      "hit": false,
      "t": 129244.24153958332,
      "d": 1861.5386166666722,
      "v": 112
    },
    {
      "midi": 67,
      "hit": false,
      "t": 129244.24153958332,
      "d": 1875.000156250011,
      "v": 126
    },
    {
      "midi": 79,
      "hit": false,
      "t": 129246.16461666666,
      "d": 1888.46169583335,
      "v": 120
    },
    {
      "midi": 65,
      "hit": false,
      "t": 131540.39557708334,
      "d": 309.61541041664896,
      "v": 127
    },
    {
      "midi": 89,
      "hit": false,
      "t": 131542.31865416668,
      "d": 278.8461770833237,
      "v": 108
    },
    {
      "midi": 77,
      "hit": false,
      "t": 131544.24173125002,
      "d": 236.53848124999786,
      "v": 108
    },
    {
      "midi": 79,
      "hit": false,
      "t": 132003.85715416665,
      "d": 240.38463541667443,
      "v": 116
    },
    {
      "midi": 91,
      "hit": false,
      "t": 132003.85715416665,
      "d": 267.3077145833522,
      "v": 120
    },
    {
      "midi": 67,
      "hit": false,
      "t": 132003.85715416665,
      "d": 298.07694791667745,
      "v": 120
    },
    {
      "midi": 81,
      "hit": false,
      "t": 132453.85719166667,
      "d": 182.6923229166714,
      "v": 104
    },
    {
      "midi": 93,
      "hit": false,
      "t": 132455.78026875,
      "d": 184.61540000000969,
      "v": 116
    },
    {
      "midi": 69,
      "hit": false,
      "t": 132455.78026875,
      "d": 226.92309583333554,
      "v": 127
    },
    {
      "midi": 89,
      "hit": false,
      "t": 132936.54953958336,
      "d": 1853.8463083333045,
      "v": 116
    },
    {
      "midi": 65,
      "hit": false,
      "t": 132936.54953958336,
      "d": 1873.0770791666291,
      "v": 127
    },
    {
      "midi": 77,
      "hit": false,
      "t": 132942.31877083334,
      "d": 1869.2309249999817,
      "v": 112
    },
    {
      "midi": 62,
      "hit": false,
      "t": 135223.08819166667,
      "d": 317.3077187500312,
      "v": 116
    },
    {
      "midi": 86,
      "hit": false,
      "t": 135226.93434583335,
      "d": 315.3846416666929,
      "v": 116
    },
    {
      "midi": 74,
      "hit": false,
      "t": 135234.62665416667,
      "d": 269.2307916666905,
      "v": 116
    },
    {
      "midi": 76,
      "hit": false,
      "t": 135675.01130625003,
      "d": 269.2307916666905,
      "v": 108
    },
    {
      "midi": 88,
      "hit": false,
      "t": 135675.01130625003,
      "d": 307.6923333333689,
      "v": 126
    },
    {
      "midi": 64,
      "hit": false,
      "t": 135678.8574604167,
      "d": 361.53849166669534,
      "v": 104
    },
    {
      "midi": 89,
      "hit": false,
      "t": 136125.01134375008,
      "d": 186.53847708331887,
      "v": 116
    },
    {
      "midi": 77,
      "hit": false,
      "t": 136128.85749791676,
      "d": 200.00001666662865,
      "v": 112
    },
    {
      "midi": 65,
      "hit": false,
      "t": 136128.85749791676,
      "d": 367.3077229166229,
      "v": 126
    },
    {
      "midi": 88,
      "hit": false,
      "t": 136605.78061458337,
      "d": 1598.077056250011,
      "v": 108
    },
    {
      "midi": 64,
      "hit": false,
      "t": 136609.62676875005,
      "d": 1625.0001354166598,
      "v": 108
    },
    {
      "midi": 76,
      "hit": false,
      "t": 136609.62676875005,
      "d": 1630.7693666666455,
      "v": 116
    },
    {
      "midi": 60,
      "hit": false,
      "t": 138913.47311458335,
      "d": 321.15387291664956,
      "v": 112
    },
    {
      "midi": 84,
      "hit": false,
      "t": 138919.24234583334,
      "d": 267.3077145833231,
      "v": 112
    },
    {
      "midi": 72,
      "hit": false,
      "t": 138923.0885,
      "d": 223.07694166665897,
      "v": 112
    },
    {
      "midi": 88,
      "hit": false,
      "t": 139369.24238333333,
      "d": 221.1538645833498,
      "v": 112
    },
    {
      "midi": 76,
      "hit": false,
      "t": 139375.01161458332,
      "d": 178.84616875002393,
      "v": 108
    },
    {
      "midi": 64,
      "hit": false,
      "t": 139376.93469166665,
      "d": 225.00001875002636,
      "v": 104
    },
    {
      "midi": 89,
      "hit": false,
      "t": 139823.088575,
      "d": 226.92309583333554,
      "v": 108
    },
    {
      "midi": 65,
      "hit": false,
      "t": 139828.85780625,
      "d": 219.2307875000115,
      "v": 126
    },
    {
      "midi": 77,
      "hit": false,
      "t": 139828.85780625,
      "d": 230.7692500000121,
      "v": 112
    },
    {
      "midi": 64,
      "hit": false,
      "t": 140313.47323125,
      "d": 1350.0001124999835,
      "v": 98
    },
    {
      "midi": 88,
      "hit": false,
      "t": 140317.3193854167,
      "d": 1338.461649999983,
      "v": 116
    },
    {
      "midi": 76,
      "hit": false,
      "t": 140317.3193854167,
      "d": 1351.9231895832927,
      "v": 112
    },
    {
      "midi": 62,
      "hit": false,
      "t": 142138.4733833333,
      "d": 1675.0001395833388,
      "v": 120
    },
    {
      "midi": 86,
      "hit": false,
      "t": 142138.4733833333,
      "d": 1680.7693708333245,
      "v": 98
    },
    {
      "midi": 74,
      "hit": false,
      "t": 142140.39646041664,
      "d": 1671.1539854166622,
      "v": 112
    },
    {
      "midi": 86,
      "hit": false,
      "t": 143994.24276874997,
      "d": 2275.000189583341,
      "v": 111
    },
    {
      "midi": 74,
      "hit": false,
      "t": 143996.1658458333,
      "d": 2267.307881250017,
      "v": 115
    },
    {
      "midi": 62,
      "hit": false,
      "t": 143996.1658458333,
      "d": 2303.846345833328,
      "v": 115
    },
    {
      "midi": 64,
      "hit": false,
      "t": 146753.8583833333,
      "d": 546.1538916666468,
      "v": 90
    },
    {
      "midi": 76,
      "hit": false,
      "t": 146761.55069166663,
      "d": 523.0769666666456,
      "v": 112
    },
    {
      "midi": 88,
      "hit": false,
      "t": 146761.55069166663,
      "d": 546.1538916666468,
      "v": 116
    },
    {
      "midi": 65,
      "hit": false,
      "t": 147707.70461666663,
      "d": 2957.692554166686,
      "v": 120
    },
    {
      "midi": 89,
      "hit": false,
      "t": 147711.5507708333,
      "d": 2936.538706250023,
      "v": 116
    },
    {
      "midi": 77,
      "hit": false,
      "t": 147713.47384791664,
      "d": 2932.6925520833465,
      "v": 108
    },
    {
      "midi": 89,
      "hit": false,
      "t": 150919.24334583333,
      "d": 125.00001041666837,
      "v": 88
    },
    {
      "midi": 65,
      "hit": false,
      "t": 150923.0895,
      "d": 117.30770208331523,
      "v": 112
    },
    {
      "midi": 77,
      "hit": false,
      "t": 150932.70488541666,
      "d": 86.53846874998999,
      "v": 94
    },
    {
      "midi": 91,
      "hit": false,
      "t": 151140.39721041665,
      "d": 109.6153937499912,
      "v": 116
    },
    {
      "midi": 79,
      "hit": false,
      "t": 151146.16644166663,
      "d": 90.38462291666656,
      "v": 98
    },
    {
      "midi": 67,
      "hit": false,
      "t": 151148.08951874997,
      "d": 98.0769312499906,
      "v": 116
    },
    {
      "midi": 69,
      "hit": false,
      "t": 151384.62799999997,
      "d": 1388.461654166662,
      "v": 127
    },
    {
      "midi": 93,
      "hit": false,
      "t": 151390.39723124995,
      "d": 1344.2308812499978,
      "v": 116
    },
    {
      "midi": 81,
      "hit": false,
      "t": 151390.39723124995,
      "d": 1369.2308833333373,
      "v": 120
    },
    {
      "midi": 67,
      "hit": false,
      "t": 153223.08969166662,
      "d": 1392.3078083333385,
      "v": 108
    },
    {
      "midi": 79,
      "hit": false,
      "t": 153232.7050770833,
      "d": 1396.153962500015,
      "v": 108
    },
    {
      "midi": 91,
      "hit": false,
      "t": 153234.62815416662,
      "d": 1371.1539604166755,
      "v": 116
    },
    {
      "midi": 65,
      "hit": false,
      "t": 155092.32061666664,
      "d": 3150.0002625000197,
      "v": 120
    },
    {
      "midi": 77,
      "hit": false,
      "t": 155096.1667708333,
      "d": 3098.0771812500025,
      "v": 112
    },
    {
      "midi": 89,
      "hit": false,
      "t": 155096.1667708333,
      "d": 3136.538722916681,
      "v": 120
    },
    {
      "midi": 86,
      "hit": false,
      "t": 224340.40331041664,
      "d": 509.6154270833358,
      "v": 116
    },
    {
      "midi": 74,
      "hit": false,
      "t": 224342.32638749998,
      "d": 503.84619583332096,
      "v": 126
    },
    {
      "midi": 62,
      "hit": false,
      "t": 224346.17254166666,
      "d": 521.1538895833073,
      "v": 116
    },
    {
      "midi": 62,
      "hit": false,
      "t": 225111.5572208333,
      "d": 80.76923750000424,
      "v": 100
    },
    {
      "midi": 74,
      "hit": false,
      "t": 225121.17260624995,
      "d": 80.76923750000424,
      "v": 112
    },
    {
      "midi": 86,
      "hit": false,
      "t": 225121.17260624995,
      "d": 90.38462291666656,
      "v": 116
    },
    {
      "midi": 86,
      "hit": false,
      "t": 225294.24954374996,
      "d": 2734.615612499998,
      "v": 126
    },
    {
      "midi": 62,
      "hit": false,
      "t": 225294.24954374996,
      "d": 2738.4617666666745,
      "v": 116
    },
    {
      "midi": 74,
      "hit": false,
      "t": 225298.09569791664,
      "d": 2723.0771499999973,
      "v": 116
    },
    {
      "midi": 74,
      "hit": false,
      "t": 228461.55749999997,
      "d": 92.30770000000484,
      "v": 100
    },
    {
      "midi": 86,
      "hit": false,
      "t": 228465.40365416664,
      "d": 94.23077708334313,
      "v": 104
    },
    {
      "midi": 62,
      "hit": false,
      "t": 228473.09596249997,
      "d": 84.61539166668081,
      "v": 94
    },
    {
      "midi": 62,
      "hit": false,
      "t": 228676.94213333333,
      "d": 98.0769312499906,
      "v": 108
    },
    {
      "midi": 86,
      "hit": false,
      "t": 228676.94213333333,
      "d": 103.84616249997634,
      "v": 108
    },
    {
      "midi": 74,
      "hit": false,
      "t": 228682.71136458332,
      "d": 88.46154583332827,
      "v": 104
    },
    {
      "midi": 62,
      "hit": false,
      "t": 228903.86522916664,
      "d": 1250.0001041665964,
      "v": 116
    },
    {
      "midi": 86,
      "hit": false,
      "t": 228909.63446041662,
      "d": 1234.6154874999484,
      "v": 116
    },
    {
      "midi": 74,
      "hit": false,
      "t": 228915.4036916666,
      "d": 1240.3847187499632,
      "v": 126
    },
    {
      "midi": 60,
      "hit": false,
      "t": 230596.1730624999,
      "d": 59.61538958334131,
      "v": 88
    },
    {
      "midi": 84,
      "hit": false,
      "t": 230596.1730624999,
      "d": 69.23077500000363,
      "v": 116
    },
    {
      "midi": 72,
      "hit": false,
      "t": 230600.01921666658,
      "d": 65.38462083332706,
      "v": 112
    },
    {
      "midi": 84,
      "hit": false,
      "t": 230750.0192291666,
      "d": 1636.5385979166604,
      "v": 120
    },
    {
      "midi": 60,
      "hit": false,
      "t": 230751.94230624993,
      "d": 1651.9232145833084,
      "v": 126
    },
    {
      "midi": 72,
      "hit": false,
      "t": 230759.63461458325,
      "d": 1619.230904166674,
      "v": 112
    },
    {
      "midi": 65,
      "hit": false,
      "t": 232655.7886187499,
      "d": 2378.8463520833466,
      "v": 126
    },
    {
      "midi": 89,
      "hit": false,
      "t": 232659.6347729166,
      "d": 2334.6155791666824,
      "v": 120
    },
    {
      "midi": 77,
      "hit": false,
      "t": 232663.48092708326,
      "d": 2336.5386562499916,
      "v": 126
    },
    {
      "midi": 77,
      "hit": false,
      "t": 235423.0965416666,
      "d": 461.5385000000242,
      "v": 126
    },
    {
      "midi": 65,
      "hit": false,
      "t": 235423.0965416666,
      "d": 475.0000395833631,
      "v": 127
    },
    {
      "midi": 89,
      "hit": false,
      "t": 235425.01961874994,
      "d": 475.0000395833631,
      "v": 127
    },
    {
      "midi": 65,
      "hit": false,
      "t": 236155.78891041662,
      "d": 69.23077500000363,
      "v": 116
    },
    {
      "midi": 89,
      "hit": false,
      "t": 236159.6350645833,
      "d": 76.92308333332767,
      "v": 116
    },
    {
      "midi": 77,
      "hit": false,
      "t": 236167.32737291662,
      "d": 67.30769791666535,
      "v": 120
    },
    {
      "midi": 89,
      "hit": false,
      "t": 236332.71200208328,
      "d": 2536.5386729166785,
      "v": 126
    },
    {
      "midi": 77,
      "hit": false,
      "t": 236336.55815624996,
      "d": 2496.154054166662,
      "v": 120
    },
    {
      "midi": 65,
      "hit": false,
      "t": 236336.55815624996,
      "d": 2509.6155937500007,
      "v": 127
    },
    {
      "midi": 77,
      "hit": false,
      "t": 239544.25073124995,
      "d": 92.30770000000484,
      "v": 108
    },
    {
      "midi": 89,
      "hit": false,
      "t": 239548.09688541663,
      "d": 100.00000833332888,
      "v": 127
    },
    {
      "midi": 65,
      "hit": false,
      "t": 239550.01996249997,
      "d": 86.53846874998999,
      "v": 126
    },
    {
      "midi": 65,
      "hit": false,
      "t": 239746.17382499995,
      "d": 94.23077708331402,
      "v": 116
    },
    {
      "midi": 89,
      "hit": false,
      "t": 239753.86613333327,
      "d": 96.15385416665231,
      "v": 120
    },
    {
      "midi": 77,
      "hit": false,
      "t": 239759.63536458326,
      "d": 80.76923750000424,
      "v": 116
    },
    {
      "midi": 77,
      "hit": false,
      "t": 239975.0199979166,
      "d": 2265.3848041666497,
      "v": 127
    },
    {
      "midi": 89,
      "hit": false,
      "t": 239975.0199979166,
      "d": 2303.846345833328,
      "v": 126
    },
    {
      "midi": 65,
      "hit": false,
      "t": 239976.94307499993,
      "d": 2321.1540395833144,
      "v": 127
    },
    {
      "midi": 77,
      "hit": false,
      "t": 242773.09715416658,
      "d": 515.3846583333216,
      "v": 126
    },
    {
      "midi": 89,
      "hit": false,
      "t": 242773.09715416658,
      "d": 526.9231208333222,
      "v": 127
    },
    {
      "midi": 65,
      "hit": false,
      "t": 242778.86638541656,
      "d": 521.1538895833364,
      "v": 126
    },
    {
      "midi": 65,
      "hit": false,
      "t": 243511.55875416656,
      "d": 84.6153916666517,
      "v": 116
    },
    {
      "midi": 89,
      "hit": false,
      "t": 243511.55875416656,
      "d": 86.53846874998999,
      "v": 126
    },
    {
      "midi": 77,
      "hit": false,
      "t": 243513.4818312499,
      "d": 76.92308333332767,
      "v": 120
    },
    {
      "midi": 77,
      "hit": false,
      "t": 243698.09723124988,
      "d": 1134.6154791666777,
      "v": 127
    },
    {
      "midi": 89,
      "hit": false,
      "t": 243698.09723124988,
      "d": 1148.0770187500166,
      "v": 127
    },
    {
      "midi": 65,
      "hit": false,
      "t": 243698.09723124988,
      "d": 1150.0000958333549,
      "v": 127
    },
    {
      "midi": 67,
      "hit": false,
      "t": 245342.3281374999,
      "d": 82.69231458334252,
      "v": 104
    },
    {
      "midi": 79,
      "hit": false,
      "t": 245346.17429166657,
      "d": 78.84616041666595,
      "v": 116
    },
    {
      "midi": 91,
      "hit": false,
      "t": 245348.0973687499,
      "d": 80.76923750000424,
      "v": 100
    },
    {
      "midi": 91,
      "hit": false,
      "t": 245500.02045833325,
      "d": 163.46155208334676,
      "v": 112
    },
    {
      "midi": 79,
      "hit": false,
      "t": 245503.86661249993,
      "d": 173.07693750000908,
      "v": 120
    },
    {
      "midi": 67,
      "hit": false,
      "t": 245503.86661249993,
      "d": 251.92309791667503,
      "v": 120
    },
    {
      "midi": 88,
      "hit": false,
      "t": 245963.48203541661,
      "d": 100.00000833335798,
      "v": 116
    },
    {
      "midi": 76,
      "hit": false,
      "t": 245967.3281895833,
      "d": 86.53846875001909,
      "v": 116
    },
    {
      "midi": 64,
      "hit": false,
      "t": 245980.78972916663,
      "d": 101.92308541666716,
      "v": 88
    },
    {
      "midi": 84,
      "hit": false,
      "t": 246259.63590624995,
      "d": 25.000002083339496,
      "v": 40
    },
    {
      "midi": 84,
      "hit": false,
      "t": 246438.48207499995,
      "d": 978.846235416655,
      "v": 120
    },
    {
      "midi": 72,
      "hit": false,
      "t": 246446.17438333327,
      "d": 971.1539270833309,
      "v": 127
    },
    {
      "midi": 60,
      "hit": false,
      "t": 246448.0974604166,
      "d": 980.7693124999932,
      "v": 126
    },
    {
      "midi": 62,
      "hit": false,
      "t": 288936.56253958325,
      "d": 238.46155833336525,
      "v": 104
    },
    {
      "midi": 65,
      "hit": false,
      "t": 289865.4087708333,
      "d": 851.9231479166192,
      "v": 100
    },
    {
      "midi": 60,
      "hit": false,
      "t": 291059.63963958324,
      "d": 278.8461770833819,
      "v": 100
    },
    {
      "midi": 72,
      "hit": false,
      "t": 291059.63963958324,
      "d": 282.6923312500585,
      "v": 98
    },
    {
      "midi": 70,
      "hit": false,
      "t": 291351.94735624996,
      "d": 151.92308958334615,
      "v": 92
    },
    {
      "midi": 58,
      "hit": false,
      "t": 291361.5627416666,
      "d": 142.30770416668383,
      "v": 52
    },
    {
      "midi": 58,
      "hit": false,
      "t": 291634.63968749996,
      "d": 121.1538562499918,
      "v": 64
    },
    {
      "midi": 70,
      "hit": false,
      "t": 291636.5627645833,
      "d": 100.00000833335798,
      "v": 98
    },
    {
      "midi": 72,
      "hit": false,
      "t": 291742.3320041666,
      "d": 1151.9231729166931,
      "v": 94
    },
    {
      "midi": 60,
      "hit": false,
      "t": 291746.1781583333,
      "d": 1150.0000958333258,
      "v": 82
    },
    {
      "midi": 65,
      "hit": false,
      "t": 293069.2551916666,
      "d": 1200.0001000000047,
      "v": 88
    },
    {
      "midi": 60,
      "hit": false,
      "t": 293076.94749999995,
      "d": 1207.6924083332997,
      "v": 90
    },
    {
      "midi": 58,
      "hit": false,
      "t": 294884.6399583332,
      "d": 236.53848124999786,
      "v": 104
    },
    {
      "midi": 57,
      "hit": false,
      "t": 295107.7168999999,
      "d": 171.1538604166708,
      "v": 116
    },
    {
      "midi": 57,
      "hit": false,
      "t": 295359.6399979165,
      "d": 121.1538562499918,
      "v": 94
    },
    {
      "midi": 58,
      "hit": false,
      "t": 295451.94769791653,
      "d": 1192.3077916666516,
      "v": 92
    },
    {
      "midi": 53,
      "hit": false,
      "t": 296778.8708854165,
      "d": 140.38462708331645,
      "v": 104
    },
    {
      "midi": 58,
      "hit": false,
      "t": 297226.94784583314,
      "d": 1669.230908333324,
      "v": 98
    },
    {
      "midi": 29,
      "hit": false,
      "t": 299115.40954166645,
      "d": 3917.3080187499872,
      "v": 112
    },
    {
      "midi": 41,
      "hit": false,
      "t": 299117.33261874976,
      "d": 3923.077250000031,
      "v": 98
    },
    {
      "midi": 55,
      "hit": false,
      "t": 300000.02499999973,
      "d": 230.7692500000121,
      "v": 92
    },
    {
      "midi": 57,
      "hit": false,
      "t": 300203.87117083307,
      "d": 328.8461812500027,
      "v": 86
    },
    {
      "midi": 65,
      "hit": false,
      "t": 300528.8711979164,
      "d": 2496.154054166691,
      "v": 95
    }
  ]
}