{
  "jsonPath": "Rock/Soft Rock/Barry Manilow/copacabana-at-the-copa.json",
  "path": "Rock\\Soft Rock\\Barry Manilow\\Copacabana (At The Copa).mid",
  "name": "Copacabana (At The Copa)",
  "difficulty": "Advanced",
  "bpm": 117.99990166674861,
  "notes": [
    {
      "midi": 39,
      "hit": false,
      "t": 17288.149999999998,
      "d": 238.34765625,
      "v": 60
    },
    {
      "midi": 40,
      "hit": false,
      "t": 17542.387499999997,
      "d": 238.34765625,
      "v": 60
    },
    {
      "midi": 41,
      "hit": false,
      "t": 17796.624999999996,
      "d": 238.34765625,
      "v": 60
    },
    {
      "midi": 42,
      "hit": false,
      "t": 18050.862499999996,
      "d": 227.75442708333503,
      "v": 60
    },
    {
      "midi": 62,
      "hit": false,
      "t": 18305.1,
      "d": 365.46640625000146,
      "v": 60
    },
    {
      "midi": 65,
      "hit": false,
      "t": 18305.1,
      "d": 365.46640625000146,
      "v": 60
    },
    {
      "midi": 67,
      "hit": false,
      "t": 18305.1,
      "d": 365.46640625000146,
      "v": 60
    },
    {
      "midi": 70,
      "hit": false,
      "t": 18305.1,
      "d": 365.46640625000146,
      "v": 60
    },
    {
      "midi": 62,
      "hit": false,
      "t": 18686.45625,
      "d": 238.34765625,
      "v": 60
    },
    {
      "midi": 65,
      "hit": false,
      "t": 18686.45625,
      "d": 238.34765625,
      "v": 60
    },
    {
      "midi": 67,
      "hit": false,
      "t": 18686.45625,
      "d": 238.34765625,
      "v": 60
    },
    {
      "midi": 70,
      "hit": false,
      "t": 18686.45625,
      "d": 238.34765625,
      "v": 60
    },
    {
      "midi": 62,
      "hit": false,
      "t": 19067.8125,
      "d": 365.46640625000146,
      "v": 60
    },
    {
      "midi": 65,
      "hit": false,
      "t": 19067.8125,
      "d": 365.46640625000146,
      "v": 60
    },
    {
      "midi": 67,
      "hit": false,
      "t": 19067.8125,
      "d": 365.46640625000146,
      "v": 60
    },
    {
      "midi": 70,
      "hit": false,
      "t": 19067.8125,
      "d": 365.46640625000146,
      "v": 60
    },
    {
      "midi": 65,
      "hit": false,
      "t": 19576.287500000002,
      "d": 365.46640625000146,
      "v": 60
    },
    {
      "midi": 67,
      "hit": false,
      "t": 19576.287500000002,
      "d": 365.46640625000146,
      "v": 60
    },
    {
      "midi": 70,
      "hit": false,
      "t": 19576.287500000002,
      "d": 365.46640625000146,
      "v": 60
    },
    {
      "midi": 74,
      "hit": false,
      "t": 19576.287500000002,
      "d": 365.46640625000146,
      "v": 60
    },
    {
      "midi": 64,
      "hit": false,
      "t": 19957.643750000003,
      "d": 238.34765625,
      "v": 60
    },
    {
      "midi": 66,
      "hit": false,
      "t": 19957.643750000003,
      "d": 238.34765625,
      "v": 60
    },
    {
      "midi": 69,
      "hit": false,
      "t": 19957.643750000003,
      "d": 238.34765625,
      "v": 60
    },
    {
      "midi": 73,
      "hit": false,
      "t": 19957.643750000003,
      "d": 238.34765625,
      "v": 60
    },
    {
      "midi": 63,
      "hit": false,
      "t": 20339.000000000004,
      "d": 365.46640625000146,
      "v": 60
    },
    {
      "midi": 65,
      "hit": false,
      "t": 20339.000000000004,
      "d": 365.46640625000146,
      "v": 60
    },
    {
      "midi": 68,
      "hit": false,
      "t": 20339.000000000004,
      "d": 365.46640625000146,
      "v": 60
    },
    {
      "midi": 72,
      "hit": false,
      "t": 20339.000000000004,
      "d": 365.46640625000146,
      "v": 60
    },
    {
      "midi": 63,
      "hit": false,
      "t": 20720.356250000004,
      "d": 238.34765625,
      "v": 60
    },
    {
      "midi": 65,
      "hit": false,
      "t": 20720.356250000004,
      "d": 238.34765625,
      "v": 60
    },
    {
      "midi": 68,
      "hit": false,
      "t": 20720.356250000004,
      "d": 238.34765625,
      "v": 60
    },
    {
      "midi": 72,
      "hit": false,
      "t": 20720.356250000004,
      "d": 238.34765625,
      "v": 60
    },
    {
      "midi": 63,
      "hit": false,
      "t": 21101.712500000005,
      "d": 365.46640625000146,
      "v": 60
    },
    {
      "midi": 65,
      "hit": false,
      "t": 21101.712500000005,
      "d": 365.46640625000146,
      "v": 60
    },
    {
      "midi": 68,
      "hit": false,
      "t": 21101.712500000005,
      "d": 365.46640625000146,
      "v": 60
    },
    {
      "midi": 72,
      "hit": false,
      "t": 21101.712500000005,
      "d": 365.46640625000146,
      "v": 60
    },
    {
      "midi": 63,
      "hit": false,
      "t": 21610.187500000007,
      "d": 365.46640625000146,
      "v": 60
    },
    {
      "midi": 65,
      "hit": false,
      "t": 21610.187500000007,
      "d": 365.46640625000146,
      "v": 60
    },
    {
      "midi": 68,
      "hit": false,
      "t": 21610.187500000007,
      "d": 365.46640625000146,
      "v": 60
    },
    {
      "midi": 72,
      "hit": false,
      "t": 21610.187500000007,
      "d": 365.46640625000146,
      "v": 60
    },
    {
      "midi": 64,
      "hit": false,
      "t": 21991.543750000008,
      "d": 238.34765625,
      "v": 60
    },
    {
      "midi": 66,
      "hit": false,
      "t": 21991.543750000008,
      "d": 238.34765625,
      "v": 60
    },
    {
      "midi": 69,
      "hit": false,
      "t": 21991.543750000008,
      "d": 238.34765625,
      "v": 60
    },
    {
      "midi": 73,
      "hit": false,
      "t": 21991.543750000008,
      "d": 238.34765625,
      "v": 60
    },
    {
      "midi": 62,
      "hit": false,
      "t": 22372.90000000001,
      "d": 365.46640625000146,
      "v": 60
    },
    {
      "midi": 65,
      "hit": false,
      "t": 22372.90000000001,
      "d": 365.46640625000146,
      "v": 60
    },
    {
      "midi": 67,
      "hit": false,
      "t": 22372.90000000001,
      "d": 365.46640625000146,
      "v": 60
    },
    {
      "midi": 70,
      "hit": false,
      "t": 22372.90000000001,
      "d": 365.46640625000146,
      "v": 60
    },
    {
      "midi": 62,
      "hit": false,
      "t": 22754.25625000001,
      "d": 238.34765625,
      "v": 60
    },
    {
      "midi": 65,
      "hit": false,
      "t": 22754.25625000001,
      "d": 238.34765625,
      "v": 60
    },
    {
      "midi": 67,
      "hit": false,
      "t": 22754.25625000001,
      "d": 238.34765625,
      "v": 60
    },
    {
      "midi": 70,
      "hit": false,
      "t": 22754.25625000001,
      "d": 238.34765625,
      "v": 60
    },
    {
      "midi": 62,
      "hit": false,
      "t": 23135.61250000001,
      "d": 365.46640625000146,
      "v": 60
    },
    {
      "midi": 65,
      "hit": false,
      "t": 23135.61250000001,
      "d": 365.46640625000146,
      "v": 60
    },
    {
      "midi": 67,
      "hit": false,
      "t": 23135.61250000001,
      "d": 365.46640625000146,
      "v": 60
    },
    {
      "midi": 70,
      "hit": false,
      "t": 23135.61250000001,
      "d": 365.46640625000146,
      "v": 60
    },
    {
      "midi": 65,
      "hit": false,
      "t": 23644.087500000012,
      "d": 365.46640625000146,
      "v": 60
    },
    {
      "midi": 67,
      "hit": false,
      "t": 23644.087500000012,
      "d": 365.46640625000146,
      "v": 60
    },
    {
      "midi": 70,
      "hit": false,
      "t": 23644.087500000012,
      "d": 365.46640625000146,
      "v": 60
    },
    {
      "midi": 74,
      "hit": false,
      "t": 23644.087500000012,
      "d": 365.46640625000146,
      "v": 60
    },
    {
      "midi": 64,
      "hit": false,
      "t": 24025.443750000013,
      "d": 238.34765625,
      "v": 60
    },
    {
      "midi": 66,
      "hit": false,
      "t": 24025.443750000013,
      "d": 238.34765625,
      "v": 60
    },
    {
      "midi": 69,
      "hit": false,
      "t": 24025.443750000013,
      "d": 238.34765625,
      "v": 60
    },
    {
      "midi": 73,
      "hit": false,
      "t": 24025.443750000013,
      "d": 238.34765625,
      "v": 60
    },
    {
      "midi": 65,
      "hit": false,
      "t": 24406.800000000014,
      "d": 365.46640625000146,
      "v": 60
    },
    {
      "midi": 68,
      "hit": false,
      "t": 24406.800000000014,
      "d": 365.46640625000146,
      "v": 60
    },
    {
      "midi": 72,
      "hit": false,
      "t": 24406.800000000014,
      "d": 365.46640625000146,
      "v": 60
    },
    {
      "midi": 66,
      "hit": false,
      "t": 24788.156250000015,
      "d": 238.34765625,
      "v": 60
    },
    {
      "midi": 69,
      "hit": false,
      "t": 24788.156250000015,
      "d": 238.34765625,
      "v": 60
    },
    {
      "midi": 73,
      "hit": false,
      "t": 24788.156250000015,
      "d": 238.34765625,
      "v": 60
    },
    {
      "midi": 65,
      "hit": false,
      "t": 25169.512500000015,
      "d": 111.22890624999854,
      "v": 60
    },
    {
      "midi": 67,
      "hit": false,
      "t": 25169.512500000015,
      "d": 111.22890624999854,
      "v": 60
    },
    {
      "midi": 70,
      "hit": false,
      "t": 25169.512500000015,
      "d": 111.22890624999854,
      "v": 60
    },
    {
      "midi": 74,
      "hit": false,
      "t": 25169.512500000015,
      "d": 111.22890624999854,
      "v": 60
    },
    {
      "midi": 55,
      "hit": false,
      "t": 25677.987499999996,
      "d": 238.34765625,
      "v": 100
    },
    {
      "midi": 58,
      "hit": false,
      "t": 25932.224999999995,
      "d": 238.34765625,
      "v": 100
    },
    {
      "midi": 60,
      "hit": false,
      "t": 26186.462499999994,
      "d": 238.34765625,
      "v": 100
    },
    {
      "midi": 63,
      "hit": false,
      "t": 26440.699999999993,
      "d": 365.46640625000146,
      "v": 100
    },
    {
      "midi": 56,
      "hit": false,
      "t": 26440.700000000015,
      "d": 1001.0601562500015,
      "v": 60
    },
    {
      "midi": 60,
      "hit": false,
      "t": 26440.700000000015,
      "d": 1001.0601562500015,
      "v": 60
    },
    {
      "midi": 63,
      "hit": false,
      "t": 26440.700000000015,
      "d": 1001.0601562500015,
      "v": 60
    },
    {
      "midi": 56,
      "hit": false,
      "t": 26822.056249999994,
      "d": 238.34765625,
      "v": 100
    },
    {
      "midi": 56,
      "hit": false,
      "t": 27457.650000000016,
      "d": 1001.0601562500015,
      "v": 60
    },
    {
      "midi": 62,
      "hit": false,
      "t": 27457.650000000016,
      "d": 1001.0601562500015,
      "v": 60
    },
    {
      "midi": 65,
      "hit": false,
      "t": 27457.650000000016,
      "d": 1001.0601562500015,
      "v": 60
    },
    {
      "midi": 63,
      "hit": false,
      "t": 27711.887499999993,
      "d": 238.34765625,
      "v": 100
    },
    {
      "midi": 62,
      "hit": false,
      "t": 27966.124999999993,
      "d": 238.34765625,
      "v": 100
    },
    {
      "midi": 60,
      "hit": false,
      "t": 28220.362499999992,
      "d": 238.34765625,
      "v": 100
    },
    {
      "midi": 62,
      "hit": false,
      "t": 28474.59999999999,
      "d": 365.46640625000146,
      "v": 100
    },
    {
      "midi": 58,
      "hit": false,
      "t": 28474.600000000017,
      "d": 1001.0601562500015,
      "v": 60
    },
    {
      "midi": 62,
      "hit": false,
      "t": 28474.600000000017,
      "d": 1001.0601562500015,
      "v": 60
    },
    {
      "midi": 65,
      "hit": false,
      "t": 28474.600000000017,
      "d": 1001.0601562500015,
      "v": 60
    },
    {
      "midi": 55,
      "hit": false,
      "t": 28855.956249999992,
      "d": 238.34765625,
      "v": 100
    },
    {
      "midi": 55,
      "hit": false,
      "t": 29491.550000000017,
      "d": 1001.0601562500015,
      "v": 60
    },
    {
      "midi": 58,
      "hit": false,
      "t": 29491.550000000017,
      "d": 1001.0601562500015,
      "v": 60
    },
    {
      "midi": 62,
      "hit": false,
      "t": 29491.550000000017,
      "d": 1001.0601562500015,
      "v": 60
    },
    {
      "midi": 55,
      "hit": false,
      "t": 29745.78749999999,
      "d": 238.34765625,
      "v": 100
    },
    {
      "midi": 58,
      "hit": false,
      "t": 30000.02499999999,
      "d": 238.34765625,
      "v": 100
    },
    {
      "midi": 60,
      "hit": false,
      "t": 30254.26249999999,
      "d": 238.34765625,
      "v": 100
    },
    {
      "midi": 62,
      "hit": false,
      "t": 30508.49999999999,
      "d": 238.34765625,
      "v": 100
    },
    {
      "midi": 57,
      "hit": false,
      "t": 30508.50000000002,
      "d": 1001.0601562500015,
      "v": 60
    },
    {
      "midi": 60,
      "hit": false,
      "t": 30508.50000000002,
      "d": 1001.0601562500015,
      "v": 60
    },
    {
      "midi": 63,
      "hit": false,
      "t": 30508.50000000002,
      "d": 1001.0601562500015,
      "v": 60
    },
    {
      "midi": 63,
      "hit": false,
      "t": 30762.73749999999,
      "d": 238.34765625,
      "v": 100
    },
    {
      "midi": 62,
      "hit": false,
      "t": 31016.974999999988,
      "d": 238.34765625,
      "v": 100
    },
    {
      "midi": 63,
      "hit": false,
      "t": 31271.212499999987,
      "d": 111.22890624999854,
      "v": 100
    },
    {
      "midi": 62,
      "hit": false,
      "t": 31398.331249999985,
      "d": 619.7039062500007,
      "v": 100
    },
    {
      "midi": 57,
      "hit": false,
      "t": 31525.45000000002,
      "d": 1001.0601562500015,
      "v": 60
    },
    {
      "midi": 60,
      "hit": false,
      "t": 31525.45000000002,
      "d": 1001.0601562500015,
      "v": 60
    },
    {
      "midi": 62,
      "hit": false,
      "t": 31525.45000000002,
      "d": 1001.0601562500015,
      "v": 60
    },
    {
      "midi": 66,
      "hit": false,
      "t": 31525.45000000002,
      "d": 1001.0601562500015,
      "v": 60
    },
    {
      "midi": 57,
      "hit": false,
      "t": 32033.924999999985,
      "d": 238.34765625,
      "v": 100
    },
    {
      "midi": 54,
      "hit": false,
      "t": 32288.162499999984,
      "d": 111.22890624999854,
      "v": 100
    },
    {
      "midi": 57,
      "hit": false,
      "t": 32415.28124999998,
      "d": 365.4664062499978,
      "v": 100
    },
    {
      "midi": 55,
      "hit": false,
      "t": 32542.40000000002,
      "d": 1001.0601562499978,
      "v": 60
    },
    {
      "midi": 58,
      "hit": false,
      "t": 32542.40000000002,
      "d": 1001.0601562499978,
      "v": 60
    },
    {
      "midi": 62,
      "hit": false,
      "t": 32542.40000000002,
      "d": 1001.0601562499978,
      "v": 60
    },
    {
      "midi": 57,
      "hit": false,
      "t": 32796.63749999998,
      "d": 238.34765625,
      "v": 100
    },
    {
      "midi": 57,
      "hit": false,
      "t": 33050.874999999985,
      "d": 238.34765625,
      "v": 100
    },
    {
      "midi": 55,
      "hit": false,
      "t": 33305.11249999999,
      "d": 111.22890624999854,
      "v": 100
    },
    {
      "midi": 57,
      "hit": false,
      "t": 33432.23124999999,
      "d": 238.34765625,
      "v": 100
    },
    {
      "midi": 55,
      "hit": false,
      "t": 33559.35000000002,
      "d": 1001.0601562500015,
      "v": 60
    },
    {
      "midi": 58,
      "hit": false,
      "t": 33559.35000000002,
      "d": 1001.0601562500015,
      "v": 60
    },
    {
      "midi": 62,
      "hit": false,
      "t": 33559.35000000002,
      "d": 1001.0601562500015,
      "v": 60
    },
    {
      "midi": 55,
      "hit": false,
      "t": 33813.58749999999,
      "d": 238.34765625,
      "v": 100
    },
    {
      "midi": 58,
      "hit": false,
      "t": 34067.82499999999,
      "d": 238.34765625,
      "v": 100
    },
    {
      "midi": 60,
      "hit": false,
      "t": 34322.06249999999,
      "d": 238.34765625,
      "v": 100
    },
    {
      "midi": 63,
      "hit": false,
      "t": 34576.299999999996,
      "d": 365.46640625000146,
      "v": 100
    },
    {
      "midi": 56,
      "hit": false,
      "t": 34576.300000000025,
      "d": 1001.0601562500015,
      "v": 60
    },
    {
      "midi": 60,
      "hit": false,
      "t": 34576.300000000025,
      "d": 1001.0601562500015,
      "v": 60
    },
    {
      "midi": 63,
      "hit": false,
      "t": 34576.300000000025,
      "d": 1001.0601562500015,
      "v": 60
    },
    {
      "midi": 56,
      "hit": false,
      "t": 34957.65625,
      "d": 238.34765625,
      "v": 100
    },
    {
      "midi": 62,
      "hit": false,
      "t": 35593.25000000003,
      "d": 1001.0601562500015,
      "v": 60
    },
    {
      "midi": 65,
      "hit": false,
      "t": 35593.25000000003,
      "d": 1001.0601562500015,
      "v": 60
    },
    {
      "midi": 68,
      "hit": false,
      "t": 35593.25000000003,
      "d": 1001.0601562500015,
      "v": 60
    },
    {
      "midi": 63,
      "hit": false,
      "t": 35847.4875,
      "d": 238.34765625,
      "v": 100
    },
    {
      "midi": 62,
      "hit": false,
      "t": 36101.725000000006,
      "d": 238.34765625,
      "v": 100
    },
    {
      "midi": 60,
      "hit": false,
      "t": 36355.96250000001,
      "d": 238.34765625,
      "v": 100
    },
    {
      "midi": 62,
      "hit": false,
      "t": 36610.20000000001,
      "d": 365.46640625000146,
      "v": 100
    },
    {
      "midi": 58,
      "hit": false,
      "t": 36610.20000000003,
      "d": 1001.0601562500015,
      "v": 60
    },
    {
      "midi": 62,
      "hit": false,
      "t": 36610.20000000003,
      "d": 1001.0601562500015,
      "v": 60
    },
    {
      "midi": 67,
      "hit": false,
      "t": 36610.20000000003,
      "d": 1001.0601562500015,
      "v": 60
    },
    {
      "midi": 55,
      "hit": false,
      "t": 36991.556250000016,
      "d": 365.46640625000146,
      "v": 100
    },
    {
      "midi": 58,
      "hit": false,
      "t": 37627.15000000004,
      "d": 1001.0601562500015,
      "v": 60
    },
    {
      "midi": 62,
      "hit": false,
      "t": 37627.15000000004,
      "d": 1001.0601562500015,
      "v": 60
    },
    {
      "midi": 65,
      "hit": false,
      "t": 37627.15000000004,
      "d": 1001.0601562500015,
      "v": 60
    },
    {
      "midi": 55,
      "hit": false,
      "t": 37881.38750000002,
      "d": 238.34765625,
      "v": 100
    },
    {
      "midi": 58,
      "hit": false,
      "t": 38135.62500000002,
      "d": 238.34765625,
      "v": 100
    },
    {
      "midi": 60,
      "hit": false,
      "t": 38389.862500000025,
      "d": 238.34765625,
      "v": 100
    },
    {
      "midi": 62,
      "hit": false,
      "t": 38644.10000000003,
      "d": 238.34765625,
      "v": 100
    },
    {
      "midi": 55,
      "hit": false,
      "t": 38644.10000000004,
      "d": 1001.0601562500015,
      "v": 60
    },
    {
      "midi": 60,
      "hit": false,
      "t": 38644.10000000004,
      "d": 1001.0601562500015,
      "v": 60
    },
    {
      "midi": 63,
      "hit": false,
      "t": 38644.10000000004,
      "d": 1001.0601562500015,
      "v": 60
    },
    {
      "midi": 63,
      "hit": false,
      "t": 38898.33750000003,
      "d": 238.34765625,
      "v": 100
    },
    {
      "midi": 62,
      "hit": false,
      "t": 39152.57500000003,
      "d": 111.22890624999854,
      "v": 100
    },
    {
      "midi": 63,
      "hit": false,
      "t": 39279.693750000035,
      "d": 238.34765625,
      "v": 100
    },
    {
      "midi": 62,
      "hit": false,
      "t": 39533.93125000004,
      "d": 619.7039062499971,
      "v": 100
    },
    {
      "midi": 54,
      "hit": false,
      "t": 39661.05000000005,
      "d": 1001.0601562500015,
      "v": 60
    },
    {
      "midi": 57,
      "hit": false,
      "t": 39661.05000000005,
      "d": 1001.0601562500015,
      "v": 60
    },
    {
      "midi": 60,
      "hit": false,
      "t": 39661.05000000005,
      "d": 1001.0601562500015,
      "v": 60
    },
    {
      "midi": 62,
      "hit": false,
      "t": 39661.05000000005,
      "d": 1001.0601562500015,
      "v": 60
    },
    {
      "midi": 58,
      "hit": false,
      "t": 40169.52500000004,
      "d": 238.34765625,
      "v": 100
    },
    {
      "midi": 54,
      "hit": false,
      "t": 40423.76250000004,
      "d": 238.34765625,
      "v": 100
    },
    {
      "midi": 55,
      "hit": false,
      "t": 40678.000000000044,
      "d": 238.34765625,
      "v": 100
    },
    {
      "midi": 55,
      "hit": false,
      "t": 40678.00000000005,
      "d": 1001.0601562500015,
      "v": 60
    },
    {
      "midi": 58,
      "hit": false,
      "t": 40678.00000000005,
      "d": 1001.0601562500015,
      "v": 60
    },
    {
      "midi": 62,
      "hit": false,
      "t": 40678.00000000005,
      "d": 1001.0601562500015,
      "v": 60
    },
    {
      "midi": 57,
      "hit": false,
      "t": 40932.23750000005,
      "d": 238.34765625,
      "v": 100
    },
    {
      "midi": 58,
      "hit": false,
      "t": 41186.47500000005,
      "d": 111.22890624999854,
      "v": 100
    },
    {
      "midi": 60,
      "hit": false,
      "t": 41313.59375000005,
      "d": 238.34765625,
      "v": 100
    },
    {
      "midi": 62,
      "hit": false,
      "t": 41567.831250000054,
      "d": 365.46640625000146,
      "v": 100
    },
    {
      "midi": 58,
      "hit": false,
      "t": 41694.950000000055,
      "d": 1001.0601562500015,
      "v": 60
    },
    {
      "midi": 62,
      "hit": false,
      "t": 41694.950000000055,
      "d": 1001.0601562500015,
      "v": 60
    },
    {
      "midi": 67,
      "hit": false,
      "t": 41694.950000000055,
      "d": 1001.0601562500015,
      "v": 60
    },
    {
      "midi": 58,
      "hit": false,
      "t": 41949.18750000006,
      "d": 238.34765625,
      "v": 100
    },
    {
      "midi": 55,
      "hit": false,
      "t": 42203.42500000006,
      "d": 238.34765625,
      "v": 100
    },
    {
      "midi": 50,
      "hit": false,
      "t": 42457.662500000064,
      "d": 238.34765625,
      "v": 100
    },
    {
      "midi": 57,
      "hit": false,
      "t": 42711.90000000006,
      "d": 365.46640625000146,
      "v": 60
    },
    {
      "midi": 60,
      "hit": false,
      "t": 42711.90000000006,
      "d": 365.46640625000146,
      "v": 60
    },
    {
      "midi": 63,
      "hit": false,
      "t": 42711.90000000006,
      "d": 365.46640625000146,
      "v": 60
    },
    {
      "midi": 54,
      "hit": false,
      "t": 42711.90000000007,
      "d": 365.46640625000146,
      "v": 100
    },
    {
      "midi": 57,
      "hit": false,
      "t": 43093.256250000064,
      "d": 238.34765625,
      "v": 60
    },
    {
      "midi": 62,
      "hit": false,
      "t": 43093.256250000064,
      "d": 238.34765625,
      "v": 60
    },
    {
      "midi": 66,
      "hit": false,
      "t": 43093.256250000064,
      "d": 238.34765625,
      "v": 60
    },
    {
      "midi": 57,
      "hit": false,
      "t": 43093.25625000007,
      "d": 365.46640625000146,
      "v": 100
    },
    {
      "midi": 58,
      "hit": false,
      "t": 43474.61250000006,
      "d": 111.22890624999854,
      "v": 60
    },
    {
      "midi": 62,
      "hit": false,
      "t": 43474.61250000006,
      "d": 111.22890624999854,
      "v": 60
    },
    {
      "midi": 67,
      "hit": false,
      "t": 43474.61250000006,
      "d": 111.22890624999854,
      "v": 60
    },
    {
      "midi": 55,
      "hit": false,
      "t": 43474.612500000076,
      "d": 111.22890624999854,
      "v": 100
    },
    {
      "midi": 58,
      "hit": false,
      "t": 43983.087500000074,
      "d": 238.34765625,
      "v": 100
    },
    {
      "midi": 55,
      "hit": false,
      "t": 44237.32500000008,
      "d": 238.34765625,
      "v": 100
    },
    {
      "midi": 50,
      "hit": false,
      "t": 44491.56250000008,
      "d": 238.34765625,
      "v": 100
    },
    {
      "midi": 57,
      "hit": false,
      "t": 44745.80000000006,
      "d": 365.46640625000146,
      "v": 60
    },
    {
      "midi": 60,
      "hit": false,
      "t": 44745.80000000006,
      "d": 365.46640625000146,
      "v": 60
    },
    {
      "midi": 63,
      "hit": false,
      "t": 44745.80000000006,
      "d": 365.46640625000146,
      "v": 60
    },
    {
      "midi": 54,
      "hit": false,
      "t": 44745.80000000008,
      "d": 365.46640625000146,
      "v": 100
    },
    {
      "midi": 62,
      "hit": false,
      "t": 45127.156250000065,
      "d": 238.34765625,
      "v": 60
    },
    {
      "midi": 66,
      "hit": false,
      "t": 45127.156250000065,
      "d": 238.34765625,
      "v": 60
    },
    {
      "midi": 69,
      "hit": false,
      "t": 45127.156250000065,
      "d": 238.34765625,
      "v": 60
    },
    {
      "midi": 57,
      "hit": false,
      "t": 45127.15625000009,
      "d": 365.46640625000146,
      "v": 100
    },
    {
      "midi": 62,
      "hit": false,
      "t": 45508.51250000006,
      "d": 111.22890624999854,
      "v": 60
    },
    {
      "midi": 67,
      "hit": false,
      "t": 45508.51250000006,
      "d": 111.22890624999854,
      "v": 60
    },
    {
      "midi": 70,
      "hit": false,
      "t": 45508.51250000006,
      "d": 111.22890624999854,
      "v": 60
    },
    {
      "midi": 55,
      "hit": false,
      "t": 45508.51250000009,
      "d": 238.34765625,
      "v": 100
    },
    {
      "midi": 55,
      "hit": false,
      "t": 46271.22500000009,
      "d": 238.34765625,
      "v": 100
    },
    {
      "midi": 50,
      "hit": false,
      "t": 46525.462500000096,
      "d": 238.34765625,
      "v": 100
    },
    {
      "midi": 63,
      "hit": false,
      "t": 46779.70000000006,
      "d": 873.94140625,
      "v": 60
    },
    {
      "midi": 67,
      "hit": false,
      "t": 46779.70000000006,
      "d": 873.94140625,
      "v": 60
    },
    {
      "midi": 72,
      "hit": false,
      "t": 46779.70000000006,
      "d": 873.94140625,
      "v": 60
    },
    {
      "midi": 51,
      "hit": false,
      "t": 46779.7000000001,
      "d": 137.71197916667006,
      "v": 100
    },
    {
      "midi": 53,
      "hit": false,
      "t": 46949.19166666677,
      "d": 143.0085937499971,
      "v": 100
    },
    {
      "midi": 55,
      "hit": false,
      "t": 47118.68333333343,
      "d": 143.0085937499971,
      "v": 100
    },
    {
      "midi": 57,
      "hit": false,
      "t": 47288.17500000009,
      "d": 238.34765625,
      "v": 100
    },
    {
      "midi": 58,
      "hit": false,
      "t": 47542.41250000009,
      "d": 238.34765625,
      "v": 100
    },
    {
      "midi": 62,
      "hit": false,
      "t": 47796.65000000006,
      "d": 873.94140625,
      "v": 60
    },
    {
      "midi": 66,
      "hit": false,
      "t": 47796.65000000006,
      "d": 873.94140625,
      "v": 60
    },
    {
      "midi": 69,
      "hit": false,
      "t": 47796.65000000006,
      "d": 873.94140625,
      "v": 60
    },
    {
      "midi": 72,
      "hit": false,
      "t": 47796.65000000006,
      "d": 873.94140625,
      "v": 60
    },
    {
      "midi": 60,
      "hit": false,
      "t": 47796.650000000096,
      "d": 238.34765625,
      "v": 100
    },
    {
      "midi": 57,
      "hit": false,
      "t": 48050.8875000001,
      "d": 238.34765625,
      "v": 100
    },
    {
      "midi": 60,
      "hit": false,
      "t": 48305.1250000001,
      "d": 238.34765625,
      "v": 100
    },
    {
      "midi": 60,
      "hit": false,
      "t": 48559.362500000105,
      "d": 238.34765625,
      "v": 100
    },
    {
      "midi": 67,
      "hit": false,
      "t": 48813.60000000006,
      "d": 365.46640625000146,
      "v": 60
    },
    {
      "midi": 70,
      "hit": false,
      "t": 48813.60000000006,
      "d": 365.46640625000146,
      "v": 60
    },
    {
      "midi": 74,
      "hit": false,
      "t": 48813.60000000006,
      "d": 365.46640625000146,
      "v": 60
    },
    {
      "midi": 62,
      "hit": false,
      "t": 48813.60000000011,
      "d": 492.5851562500029,
      "v": 100
    },
    {
      "midi": 66,
      "hit": false,
      "t": 49322.075000000055,
      "d": 365.46640625000146,
      "v": 60
    },
    {
      "midi": 69,
      "hit": false,
      "t": 49322.075000000055,
      "d": 365.46640625000146,
      "v": 60
    },
    {
      "midi": 74,
      "hit": false,
      "t": 49322.075000000055,
      "d": 365.46640625000146,
      "v": 60
    },
    {
      "midi": 62,
      "hit": false,
      "t": 49322.07500000011,
      "d": 492.5851562500029,
      "v": 100
    },
    {
      "midi": 65,
      "hit": false,
      "t": 49830.550000000054,
      "d": 111.22890624999854,
      "v": 60
    },
    {
      "midi": 68,
      "hit": false,
      "t": 49830.550000000054,
      "d": 111.22890624999854,
      "v": 60
    },
    {
      "midi": 74,
      "hit": false,
      "t": 49830.550000000054,
      "d": 111.22890624999854,
      "v": 60
    },
    {
      "midi": 62,
      "hit": false,
      "t": 49830.55000000012,
      "d": 492.5851562500029,
      "v": 100
    },
    {
      "midi": 60,
      "hit": false,
      "t": 50339.025000000125,
      "d": 238.34765625,
      "v": 100
    },
    {
      "midi": 62,
      "hit": false,
      "t": 50593.26250000013,
      "d": 111.22890624999854,
      "v": 100
    },
    {
      "midi": 56,
      "hit": false,
      "t": 50847.50000000005,
      "d": 1001.0601562500015,
      "v": 60
    },
    {
      "midi": 60,
      "hit": false,
      "t": 50847.50000000005,
      "d": 1001.0601562500015,
      "v": 60
    },
    {
      "midi": 63,
      "hit": false,
      "t": 50847.50000000005,
      "d": 1001.0601562500015,
      "v": 60
    },
    {
      "midi": 63,
      "hit": false,
      "t": 50847.500000000124,
      "d": 365.46640625000146,
      "v": 100
    },
    {
      "midi": 56,
      "hit": false,
      "t": 51228.85625000013,
      "d": 238.34765625,
      "v": 100
    },
    {
      "midi": 56,
      "hit": false,
      "t": 51864.450000000055,
      "d": 1001.0601562500015,
      "v": 60
    },
    {
      "midi": 60,
      "hit": false,
      "t": 51864.450000000055,
      "d": 1001.0601562500015,
      "v": 60
    },
    {
      "midi": 65,
      "hit": false,
      "t": 51864.450000000055,
      "d": 1001.0601562500015,
      "v": 60
    },
    {
      "midi": 63,
      "hit": false,
      "t": 52118.68750000013,
      "d": 238.34765625,
      "v": 100
    },
    {
      "midi": 62,
      "hit": false,
      "t": 52372.925000000134,
      "d": 238.34765625,
      "v": 100
    },
    {
      "midi": 60,
      "hit": false,
      "t": 52627.16250000014,
      "d": 238.34765625,
      "v": 100
    },
    {
      "midi": 58,
      "hit": false,
      "t": 52881.40000000006,
      "d": 1001.0601562500015,
      "v": 60
    },
    {
      "midi": 62,
      "hit": false,
      "t": 52881.40000000006,
      "d": 1001.0601562500015,
      "v": 60
    },
    {
      "midi": 65,
      "hit": false,
      "t": 52881.40000000006,
      "d": 1001.0601562500015,
      "v": 60
    },
    {
      "midi": 62,
      "hit": false,
      "t": 52881.40000000014,
      "d": 365.46640625000146,
      "v": 100
    },
    {
      "midi": 55,
      "hit": false,
      "t": 53262.756250000144,
      "d": 365.46640625000146,
      "v": 100
    },
    {
      "midi": 55,
      "hit": false,
      "t": 53898.350000000064,
      "d": 1001.0601562500015,
      "v": 60
    },
    {
      "midi": 58,
      "hit": false,
      "t": 53898.350000000064,
      "d": 1001.0601562500015,
      "v": 60
    },
    {
      "midi": 62,
      "hit": false,
      "t": 53898.350000000064,
      "d": 1001.0601562500015,
      "v": 60
    },
    {
      "midi": 55,
      "hit": false,
      "t": 54661.062500000146,
      "d": 238.34765625,
      "v": 100
    },
    {
      "midi": 56,
      "hit": false,
      "t": 54915.30000000007,
      "d": 1001.0601562500015,
      "v": 60
    },
    {
      "midi": 60,
      "hit": false,
      "t": 54915.30000000007,
      "d": 1001.0601562500015,
      "v": 60
    },
    {
      "midi": 63,
      "hit": false,
      "t": 54915.30000000007,
      "d": 1001.0601562500015,
      "v": 60
    },
    {
      "midi": 56,
      "hit": false,
      "t": 54915.30000000015,
      "d": 365.46640625000146,
      "v": 100
    },
    {
      "midi": 58,
      "hit": false,
      "t": 55296.65625000015,
      "d": 365.46640625000146,
      "v": 100
    },
    {
      "midi": 60,
      "hit": false,
      "t": 55678.01250000016,
      "d": 238.34765625,
      "v": 100
    },
    {
      "midi": 60,
      "hit": false,
      "t": 55932.25000000007,
      "d": 1001.0601562500015,
      "v": 60
    },
    {
      "midi": 63,
      "hit": false,
      "t": 55932.25000000007,
      "d": 1001.0601562500015,
      "v": 60
    },
    {
      "midi": 65,
      "hit": false,
      "t": 55932.25000000007,
      "d": 1001.0601562500015,
      "v": 60
    },
    {
      "midi": 63,
      "hit": false,
      "t": 55932.25000000016,
      "d": 365.46640625000146,
      "v": 100
    },
    {
      "midi": 62,
      "hit": false,
      "t": 56313.606250000164,
      "d": 365.46640625000146,
      "v": 100
    },
    {
      "midi": 60,
      "hit": false,
      "t": 56694.96250000017,
      "d": 238.34765625,
      "v": 100
    },
    {
      "midi": 55,
      "hit": false,
      "t": 56949.20000000008,
      "d": 1001.0601562500015,
      "v": 60
    },
    {
      "midi": 58,
      "hit": false,
      "t": 56949.20000000008,
      "d": 1001.0601562500015,
      "v": 60
    },
    {
      "midi": 62,
      "hit": false,
      "t": 56949.20000000008,
      "d": 1001.0601562500015,
      "v": 60
    },
    {
      "midi": 62,
      "hit": false,
      "t": 56949.20000000017,
      "d": 365.46640625000146,
      "v": 100
    },
    {
      "midi": 55,
      "hit": false,
      "t": 57330.556250000176,
      "d": 365.46640625000146,
      "v": 100
    },
    {
      "midi": 58,
      "hit": false,
      "t": 58220.38750000008,
      "d": 365.46640625000146,
      "v": 60
    },
    {
      "midi": 62,
      "hit": false,
      "t": 58220.38750000008,
      "d": 365.46640625000146,
      "v": 60
    },
    {
      "midi": 65,
      "hit": false,
      "t": 58220.38750000008,
      "d": 365.46640625000146,
      "v": 60
    },
    {
      "midi": 62,
      "hit": false,
      "t": 58220.38750000018,
      "d": 492.5851562500029,
      "v": 100
    },
    {
      "midi": 60,
      "hit": false,
      "t": 58728.862500000076,
      "d": 254.2375000000029,
      "v": 60
    },
    {
      "midi": 58,
      "hit": false,
      "t": 58728.862500000076,
      "d": 365.46640625000146,
      "v": 60
    },
    {
      "midi": 64,
      "hit": false,
      "t": 58728.862500000076,
      "d": 365.46640625000146,
      "v": 60
    },
    {
      "midi": 60,
      "hit": false,
      "t": 58728.862500000185,
      "d": 238.34765625,
      "v": 100
    },
    {
      "midi": 60,
      "hit": false,
      "t": 58983.10000000008,
      "d": 111.22890624999854,
      "v": 60
    },
    {
      "midi": 56,
      "hit": false,
      "t": 58983.10000000008,
      "d": 1001.0601562500015,
      "v": 60
    },
    {
      "midi": 63,
      "hit": false,
      "t": 58983.10000000008,
      "d": 1001.0601562500015,
      "v": 60
    },
    {
      "midi": 63,
      "hit": false,
      "t": 58983.10000000019,
      "d": 365.46640625000146,
      "v": 100
    },
    {
      "midi": 56,
      "hit": false,
      "t": 59364.45625000019,
      "d": 365.46640625000146,
      "v": 100
    },
    {
      "midi": 60,
      "hit": false,
      "t": 60000.05000000008,
      "d": 1001.0601562500015,
      "v": 60
    },
    {
      "midi": 63,
      "hit": false,
      "t": 60000.05000000008,
      "d": 1001.0601562500015,
      "v": 60
    },
    {
      "midi": 65,
      "hit": false,
      "t": 60000.05000000008,
      "d": 1001.0601562500015,
      "v": 60
    },
    {
      "midi": 63,
      "hit": false,
      "t": 60254.287500000195,
      "d": 238.34765625,
      "v": 100
    },
    {
      "midi": 62,
      "hit": false,
      "t": 60508.5250000002,
      "d": 238.34765625,
      "v": 100
    },
    {
      "midi": 60,
      "hit": false,
      "t": 60762.7625000002,
      "d": 238.34765625,
      "v": 100
    },
    {
      "midi": 58,
      "hit": false,
      "t": 61017.00000000009,
      "d": 746.8226562499985,
      "v": 60
    },
    {
      "midi": 62,
      "hit": false,
      "t": 61017.00000000009,
      "d": 746.8226562499985,
      "v": 60
    },
    {
      "midi": 65,
      "hit": false,
      "t": 61017.00000000009,
      "d": 746.8226562499985,
      "v": 60
    },
    {
      "midi": 62,
      "hit": false,
      "t": 61017.000000000204,
      "d": 746.8226562499985,
      "v": 100
    },
    {
      "midi": 58,
      "hit": false,
      "t": 61779.71250000009,
      "d": 1255.297656249997,
      "v": 60
    },
    {
      "midi": 60,
      "hit": false,
      "t": 61779.71250000009,
      "d": 1255.297656249997,
      "v": 60
    },
    {
      "midi": 64,
      "hit": false,
      "t": 61779.71250000009,
      "d": 1255.297656249997,
      "v": 60
    },
    {
      "midi": 60,
      "hit": false,
      "t": 61779.712500000205,
      "d": 1001.0601562500015,
      "v": 100
    },
    {
      "midi": 56,
      "hit": false,
      "t": 63050.90000000009,
      "d": 1001.0601562500015,
      "v": 60
    },
    {
      "midi": 60,
      "hit": false,
      "t": 63050.90000000009,
      "d": 1001.0601562500015,
      "v": 60
    },
    {
      "midi": 63,
      "hit": false,
      "t": 63050.90000000009,
      "d": 1001.0601562500015,
      "v": 60
    },
    {
      "midi": 63,
      "hit": false,
      "t": 63050.900000000205,
      "d": 365.46640625000146,
      "v": 100
    },
    {
      "midi": 62,
      "hit": false,
      "t": 63432.25625000021,
      "d": 365.46640625000146,
      "v": 100
    },
    {
      "midi": 63,
      "hit": false,
      "t": 63813.612500000214,
      "d": 238.34765625,
      "v": 100
    },
    {
      "midi": 56,
      "hit": false,
      "t": 64067.85000000009,
      "d": 1001.0601562500015,
      "v": 60
    },
    {
      "midi": 58,
      "hit": false,
      "t": 64067.85000000009,
      "d": 1001.0601562500015,
      "v": 60
    },
    {
      "midi": 62,
      "hit": false,
      "t": 64067.85000000009,
      "d": 1001.0601562500015,
      "v": 60
    },
    {
      "midi": 62,
      "hit": false,
      "t": 64067.85000000022,
      "d": 365.46640625000146,
      "v": 100
    },
    {
      "midi": 60,
      "hit": false,
      "t": 64449.20625000022,
      "d": 365.46640625000146,
      "v": 100
    },
    {
      "midi": 62,
      "hit": false,
      "t": 64830.562500000226,
      "d": 238.34765625,
      "v": 100
    },
    {
      "midi": 58,
      "hit": false,
      "t": 65084.8000000001,
      "d": 1001.0601562500015,
      "v": 60
    },
    {
      "midi": 62,
      "hit": false,
      "t": 65084.8000000001,
      "d": 1001.0601562500015,
      "v": 60
    },
    {
      "midi": 65,
      "hit": false,
      "t": 65084.8000000001,
      "d": 1001.0601562500015,
      "v": 60
    },
    {
      "midi": 60,
      "hit": false,
      "t": 65084.80000000023,
      "d": 365.46640625000146,
      "v": 100
    },
    {
      "midi": 58,
      "hit": false,
      "t": 65466.15625000023,
      "d": 365.4664062499942,
      "v": 100
    },
    {
      "midi": 60,
      "hit": false,
      "t": 65847.51250000023,
      "d": 238.34765625,
      "v": 100
    },
    {
      "midi": 58,
      "hit": false,
      "t": 66101.7500000001,
      "d": 873.94140625,
      "v": 60
    },
    {
      "midi": 60,
      "hit": false,
      "t": 66101.7500000001,
      "d": 873.94140625,
      "v": 60
    },
    {
      "midi": 64,
      "hit": false,
      "t": 66101.7500000001,
      "d": 873.94140625,
      "v": 60
    },
    {
      "midi": 62,
      "hit": false,
      "t": 66101.75000000023,
      "d": 238.34765625,
      "v": 100
    },
    {
      "midi": 58,
      "hit": false,
      "t": 66355.98750000024,
      "d": 238.34765625,
      "v": 100
    },
    {
      "midi": 60,
      "hit": false,
      "t": 66610.22500000024,
      "d": 238.34765625,
      "v": 100
    },
    {
      "midi": 62,
      "hit": false,
      "t": 66864.46250000024,
      "d": 238.34765625,
      "v": 100
    },
    {
      "midi": 41,
      "hit": false,
      "t": 67118.7000000001,
      "d": 111.22890625000582,
      "v": 60
    },
    {
      "midi": 63,
      "hit": false,
      "t": 67118.70000000024,
      "d": 746.8226562500058,
      "v": 100
    },
    {
      "midi": 43,
      "hit": false,
      "t": 67372.9375000001,
      "d": 111.22890625000582,
      "v": 60
    },
    {
      "midi": 44,
      "hit": false,
      "t": 67627.1750000001,
      "d": 111.22890625000582,
      "v": 60
    },
    {
      "midi": 45,
      "hit": false,
      "t": 67881.41250000011,
      "d": 111.22890625000582,
      "v": 60
    },
    {
      "midi": 60,
      "hit": false,
      "t": 67881.41250000025,
      "d": 1255.297656249997,
      "v": 100
    },
    {
      "midi": 46,
      "hit": false,
      "t": 68135.65000000011,
      "d": 111.22890625000582,
      "v": 60
    },
    {
      "midi": 47,
      "hit": false,
      "t": 68389.88750000011,
      "d": 111.22890625000582,
      "v": 60
    },
    {
      "midi": 48,
      "hit": false,
      "t": 68644.12500000012,
      "d": 111.22890625000582,
      "v": 60
    },
    {
      "midi": 49,
      "hit": false,
      "t": 68898.36250000012,
      "d": 111.22890625000582,
      "v": 60
    },
    {
      "midi": 50,
      "hit": false,
      "t": 69152.60000000012,
      "d": 2018.0101562500058,
      "v": 60
    },
    {
      "midi": 74,
      "hit": false,
      "t": 69152.60000000012,
      "d": 2018.0101562500058,
      "v": 60
    },
    {
      "midi": 55,
      "hit": false,
      "t": 70423.78750000025,
      "d": 238.34765625,
      "v": 100
    },
    {
      "midi": 54,
      "hit": false,
      "t": 70678.02500000026,
      "d": 238.34765625,
      "v": 100
    },
    {
      "midi": 51,
      "hit": false,
      "t": 70932.26250000026,
      "d": 238.34765625,
      "v": 100
    },
    {
      "midi": 62,
      "hit": false,
      "t": 71186.50000000013,
      "d": 365.4664062499942,
      "v": 60
    },
    {
      "midi": 65,
      "hit": false,
      "t": 71186.50000000013,
      "d": 365.4664062499942,
      "v": 60
    },
    {
      "midi": 67,
      "hit": false,
      "t": 71186.50000000013,
      "d": 365.4664062499942,
      "v": 60
    },
    {
      "midi": 70,
      "hit": false,
      "t": 71186.50000000013,
      "d": 365.4664062499942,
      "v": 60
    },
    {
      "midi": 50,
      "hit": false,
      "t": 71186.50000000026,
      "d": 1763.772656250003,
      "v": 100
    },
    {
      "midi": 62,
      "hit": false,
      "t": 71567.85625000013,
      "d": 238.34765625,
      "v": 60
    },
    {
      "midi": 65,
      "hit": false,
      "t": 71567.85625000013,
      "d": 238.34765625,
      "v": 60
    },
    {
      "midi": 67,
      "hit": false,
      "t": 71567.85625000013,
      "d": 238.34765625,
      "v": 60
    },
    {
      "midi": 70,
      "hit": false,
      "t": 71567.85625000013,
      "d": 238.34765625,
      "v": 60
    },
    {
      "midi": 62,
      "hit": false,
      "t": 71949.21250000013,
      "d": 365.4664062499942,
      "v": 60
    },
    {
      "midi": 65,
      "hit": false,
      "t": 71949.21250000013,
      "d": 365.4664062499942,
      "v": 60
    },
    {
      "midi": 67,
      "hit": false,
      "t": 71949.21250000013,
      "d": 365.4664062499942,
      "v": 60
    },
    {
      "midi": 70,
      "hit": false,
      "t": 71949.21250000013,
      "d": 365.4664062499942,
      "v": 60
    },
    {
      "midi": 65,
      "hit": false,
      "t": 72457.68750000012,
      "d": 365.4664062499942,
      "v": 60
    },
    {
      "midi": 67,
      "hit": false,
      "t": 72457.68750000012,
      "d": 365.4664062499942,
      "v": 60
    },
    {
      "midi": 70,
      "hit": false,
      "t": 72457.68750000012,
      "d": 365.4664062499942,
      "v": 60
    },
    {
      "midi": 74,
      "hit": false,
      "t": 72457.68750000012,
      "d": 365.4664062499942,
      "v": 60
    },
    {
      "midi": 64,
      "hit": false,
      "t": 72839.04375000011,
      "d": 238.34765625,
      "v": 60
    },
    {
      "midi": 66,
      "hit": false,
      "t": 72839.04375000011,
      "d": 238.34765625,
      "v": 60
    },
    {
      "midi": 69,
      "hit": false,
      "t": 72839.04375000011,
      "d": 238.34765625,
      "v": 60
    },
    {
      "midi": 73,
      "hit": false,
      "t": 72839.04375000011,
      "d": 238.34765625,
      "v": 60
    },
    {
      "midi": 63,
      "hit": false,
      "t": 73220.40000000011,
      "d": 365.4664062499942,
      "v": 60
    },
    {
      "midi": 65,
      "hit": false,
      "t": 73220.40000000011,
      "d": 365.4664062499942,
      "v": 60
    },
    {
      "midi": 68,
      "hit": false,
      "t": 73220.40000000011,
      "d": 365.4664062499942,
      "v": 60
    },
    {
      "midi": 72,
      "hit": false,
      "t": 73220.40000000011,
      "d": 365.4664062499942,
      "v": 60
    },
    {
      "midi": 63,
      "hit": false,
      "t": 73601.75625000011,
      "d": 238.34765625,
      "v": 60
    },
    {
      "midi": 65,
      "hit": false,
      "t": 73601.75625000011,
      "d": 238.34765625,
      "v": 60
    },
    {
      "midi": 68,
      "hit": false,
      "t": 73601.75625000011,
      "d": 238.34765625,
      "v": 60
    },
    {
      "midi": 72,
      "hit": false,
      "t": 73601.75625000011,
      "d": 238.34765625,
      "v": 60
    },
    {
      "midi": 63,
      "hit": false,
      "t": 73983.1125000001,
      "d": 365.4664062499942,
      "v": 60
    },
    {
      "midi": 65,
      "hit": false,
      "t": 73983.1125000001,
      "d": 365.4664062499942,
      "v": 60
    },
    {
      "midi": 68,
      "hit": false,
      "t": 73983.1125000001,
      "d": 365.4664062499942,
      "v": 60
    },
    {
      "midi": 72,
      "hit": false,
      "t": 73983.1125000001,
      "d": 365.4664062499942,
      "v": 60
    },
    {
      "midi": 63,
      "hit": false,
      "t": 74491.5875000001,
      "d": 365.4664062499942,
      "v": 60
    },
    {
      "midi": 65,
      "hit": false,
      "t": 74491.5875000001,
      "d": 365.4664062499942,
      "v": 60
    },
    {
      "midi": 68,
      "hit": false,
      "t": 74491.5875000001,
      "d": 365.4664062499942,
      "v": 60
    },
    {
      "midi": 72,
      "hit": false,
      "t": 74491.5875000001,
      "d": 365.4664062499942,
      "v": 60
    },
    {
      "midi": 64,
      "hit": false,
      "t": 74872.9437500001,
      "d": 238.34765625,
      "v": 60
    },
    {
      "midi": 66,
      "hit": false,
      "t": 74872.9437500001,
      "d": 238.34765625,
      "v": 60
    },
    {
      "midi": 69,
      "hit": false,
      "t": 74872.9437500001,
      "d": 238.34765625,
      "v": 60
    },
    {
      "midi": 73,
      "hit": false,
      "t": 74872.9437500001,
      "d": 238.34765625,
      "v": 60
    },
    {
      "midi": 62,
      "hit": false,
      "t": 75254.30000000009,
      "d": 365.4664062499942,
      "v": 60
    },
    {
      "midi": 65,
      "hit": false,
      "t": 75254.30000000009,
      "d": 365.4664062499942,
      "v": 60
    },
    {
      "midi": 67,
      "hit": false,
      "t": 75254.30000000009,
      "d": 365.4664062499942,
      "v": 60
    },
    {
      "midi": 70,
      "hit": false,
      "t": 75254.30000000009,
      "d": 365.4664062499942,
      "v": 60
    },
    {
      "midi": 62,
      "hit": false,
      "t": 75635.65625000009,
      "d": 238.34765625,
      "v": 60
    },
    {
      "midi": 65,
      "hit": false,
      "t": 75635.65625000009,
      "d": 238.34765625,
      "v": 60
    },
    {
      "midi": 67,
      "hit": false,
      "t": 75635.65625000009,
      "d": 238.34765625,
      "v": 60
    },
    {
      "midi": 70,
      "hit": false,
      "t": 75635.65625000009,
      "d": 238.34765625,
      "v": 60
    },
    {
      "midi": 62,
      "hit": false,
      "t": 76017.01250000008,
      "d": 365.4664062499942,
      "v": 60
    },
    {
      "midi": 65,
      "hit": false,
      "t": 76017.01250000008,
      "d": 365.4664062499942,
      "v": 60
    },
    {
      "midi": 67,
      "hit": false,
      "t": 76017.01250000008,
      "d": 365.4664062499942,
      "v": 60
    },
    {
      "midi": 70,
      "hit": false,
      "t": 76017.01250000008,
      "d": 365.4664062499942,
      "v": 60
    },
    {
      "midi": 65,
      "hit": false,
      "t": 76525.48750000008,
      "d": 365.4664062499942,
      "v": 60
    },
    {
      "midi": 67,
      "hit": false,
      "t": 76525.48750000008,
      "d": 365.4664062499942,
      "v": 60
    },
    {
      "midi": 70,
      "hit": false,
      "t": 76525.48750000008,
      "d": 365.4664062499942,
      "v": 60
    },
    {
      "midi": 74,
      "hit": false,
      "t": 76525.48750000008,
      "d": 365.4664062499942,
      "v": 60
    },
    {
      "midi": 64,
      "hit": false,
      "t": 76906.84375000007,
      "d": 238.34765625,
      "v": 60
    },
    {
      "midi": 66,
      "hit": false,
      "t": 76906.84375000007,
      "d": 238.34765625,
      "v": 60
    },
    {
      "midi": 69,
      "hit": false,
      "t": 76906.84375000007,
      "d": 238.34765625,
      "v": 60
    },
    {
      "midi": 73,
      "hit": false,
      "t": 76906.84375000007,
      "d": 238.34765625,
      "v": 60
    },
    {
      "midi": 65,
      "hit": false,
      "t": 77288.20000000007,
      "d": 365.4664062499942,
      "v": 60
    },
    {
      "midi": 68,
      "hit": false,
      "t": 77288.20000000007,
      "d": 365.4664062499942,
      "v": 60
    },
    {
      "midi": 72,
      "hit": false,
      "t": 77288.20000000007,
      "d": 365.4664062499942,
      "v": 60
    },
    {
      "midi": 66,
      "hit": false,
      "t": 77669.55625000007,
      "d": 238.34765625,
      "v": 60
    },
    {
      "midi": 69,
      "hit": false,
      "t": 77669.55625000007,
      "d": 238.34765625,
      "v": 60
    },
    {
      "midi": 73,
      "hit": false,
      "t": 77669.55625000007,
      "d": 238.34765625,
      "v": 60
    },
    {
      "midi": 65,
      "hit": false,
      "t": 78050.91250000006,
      "d": 111.22890625000582,
      "v": 60
    },
    {
      "midi": 67,
      "hit": false,
      "t": 78050.91250000006,
      "d": 111.22890625000582,
      "v": 60
    },
    {
      "midi": 70,
      "hit": false,
      "t": 78050.91250000006,
      "d": 111.22890625000582,
      "v": 60
    },
    {
      "midi": 74,
      "hit": false,
      "t": 78050.91250000006,
      "d": 111.22890625000582,
      "v": 60
    },
    {
      "midi": 55,
      "hit": false,
      "t": 78559.38750000026,
      "d": 238.34765625,
      "v": 100
    },
    {
      "midi": 58,
      "hit": false,
      "t": 78813.62500000026,
      "d": 238.34765625,
      "v": 100
    },
    {
      "midi": 60,
      "hit": false,
      "t": 79067.86250000026,
      "d": 238.34765625,
      "v": 100
    },
    {
      "midi": 56,
      "hit": false,
      "t": 79322.10000000006,
      "d": 1001.0601562499942,
      "v": 60
    },
    {
      "midi": 60,
      "hit": false,
      "t": 79322.10000000006,
      "d": 1001.0601562499942,
      "v": 60
    },
    {
      "midi": 63,
      "hit": false,
      "t": 79322.10000000006,
      "d": 1001.0601562499942,
      "v": 60
    },
    {
      "midi": 63,
      "hit": false,
      "t": 79322.10000000027,
      "d": 365.4664062499942,
      "v": 100
    },
    {
      "midi": 56,
      "hit": false,
      "t": 79703.45625000026,
      "d": 238.34765625,
      "v": 100
    },
    {
      "midi": 56,
      "hit": false,
      "t": 80339.05000000006,
      "d": 1001.0601562499942,
      "v": 60
    },
    {
      "midi": 62,
      "hit": false,
      "t": 80339.05000000006,
      "d": 1001.0601562499942,
      "v": 60
    },
    {
      "midi": 65,
      "hit": false,
      "t": 80339.05000000006,
      "d": 1001.0601562499942,
      "v": 60
    },
    {
      "midi": 63,
      "hit": false,
      "t": 80593.28750000027,
      "d": 238.34765625,
      "v": 100
    },
    {
      "midi": 62,
      "hit": false,
      "t": 80847.52500000027,
      "d": 238.34765625,
      "v": 100
    },
    {
      "midi": 60,
      "hit": false,
      "t": 81101.76250000027,
      "d": 238.34765625,
      "v": 100
    },
    {
      "midi": 58,
      "hit": false,
      "t": 81356.00000000006,
      "d": 1001.0601562499942,
      "v": 60
    },
    {
      "midi": 62,
      "hit": false,
      "t": 81356.00000000006,
      "d": 1001.0601562499942,
      "v": 60
    },
    {
      "midi": 65,
      "hit": false,
      "t": 81356.00000000006,
      "d": 1001.0601562499942,
      "v": 60
    },
    {
      "midi": 62,
      "hit": false,
      "t": 81356.00000000028,
      "d": 365.4664062499942,
      "v": 100
    },
    {
      "midi": 55,
      "hit": false,
      "t": 81737.35625000027,
      "d": 238.34765625,
      "v": 100
    },
    {
      "midi": 55,
      "hit": false,
      "t": 82372.95000000006,
      "d": 1001.0601562499942,
      "v": 60
    },
    {
      "midi": 58,
      "hit": false,
      "t": 82372.95000000006,
      "d": 1001.0601562499942,
      "v": 60
    },
    {
      "midi": 62,
      "hit": false,
      "t": 82372.95000000006,
      "d": 1001.0601562499942,
      "v": 60
    },
    {
      "midi": 55,
      "hit": false,
      "t": 82627.18750000028,
      "d": 238.34765625,
      "v": 100
    },
    {
      "midi": 58,
      "hit": false,
      "t": 82881.42500000028,
      "d": 238.34765625,
      "v": 100
    },
    {
      "midi": 60,
      "hit": false,
      "t": 83135.66250000028,
      "d": 238.34765625,
      "v": 100
    },
    {
      "midi": 57,
      "hit": false,
      "t": 83389.90000000005,
      "d": 1001.0601562499942,
      "v": 60
    },
    {
      "midi": 60,
      "hit": false,
      "t": 83389.90000000005,
      "d": 1001.0601562499942,
      "v": 60
    },
    {
      "midi": 63,
      "hit": false,
      "t": 83389.90000000005,
      "d": 1001.0601562499942,
      "v": 60
    },
    {
      "midi": 62,
      "hit": false,
      "t": 83389.90000000029,
      "d": 238.34765625,
      "v": 100
    },
    {
      "midi": 63,
      "hit": false,
      "t": 83644.13750000029,
      "d": 238.34765625,
      "v": 100
    },
    {
      "midi": 62,
      "hit": false,
      "t": 83898.37500000029,
      "d": 238.34765625,
      "v": 100
    },
    {
      "midi": 63,
      "hit": false,
      "t": 84152.6125000003,
      "d": 111.22890625000582,
      "v": 100
    },
    {
      "midi": 62,
      "hit": false,
      "t": 84279.7312500003,
      "d": 619.7039062499971,
      "v": 100
    },
    {
      "midi": 57,
      "hit": false,
      "t": 84406.85000000005,
      "d": 1001.0601562499942,
      "v": 60
    },
    {
      "midi": 60,
      "hit": false,
      "t": 84406.85000000005,
      "d": 1001.0601562499942,
      "v": 60
    },
    {
      "midi": 62,
      "hit": false,
      "t": 84406.85000000005,
      "d": 1001.0601562499942,
      "v": 60
    },
    {
      "midi": 66,
      "hit": false,
      "t": 84406.85000000005,
      "d": 1001.0601562499942,
      "v": 60
    },
    {
      "midi": 57,
      "hit": false,
      "t": 84915.3250000003,
      "d": 238.34765625,
      "v": 100
    },
    {
      "midi": 54,
      "hit": false,
      "t": 85169.5625000003,
      "d": 111.22890625000582,
      "v": 100
    },
    {
      "midi": 57,
      "hit": false,
      "t": 85296.68125000031,
      "d": 365.4664062499942,
      "v": 100
    },
    {
      "midi": 55,
      "hit": false,
      "t": 85423.80000000005,
      "d": 1001.0601562499942,
      "v": 60
    },
    {
      "midi": 58,
      "hit": false,
      "t": 85423.80000000005,
      "d": 1001.0601562499942,
      "v": 60
    },
    {
      "midi": 62,
      "hit": false,
      "t": 85423.80000000005,
      "d": 1001.0601562499942,
      "v": 60
    },
    {
      "midi": 57,
      "hit": false,
      "t": 85678.03750000031,
      "d": 238.34765625,
      "v": 100
    },
    {
      "midi": 57,
      "hit": false,
      "t": 85932.27500000031,
      "d": 238.34765625,
      "v": 100
    },
    {
      "midi": 55,
      "hit": false,
      "t": 86186.51250000032,
      "d": 111.22890625000582,
      "v": 100
    },
    {
      "midi": 57,
      "hit": false,
      "t": 86313.63125000033,
      "d": 238.34765625,
      "v": 100
    },
    {
      "midi": 55,
      "hit": false,
      "t": 86440.75000000004,
      "d": 1001.0601562499942,
      "v": 60
    },
    {
      "midi": 58,
      "hit": false,
      "t": 86440.75000000004,
      "d": 1001.0601562499942,
      "v": 60
    },
    {
      "midi": 62,
      "hit": false,
      "t": 86440.75000000004,
      "d": 1001.0601562499942,
      "v": 60
    },
    {
      "midi": 55,
      "hit": false,
      "t": 86694.98750000032,
      "d": 238.34765625,
      "v": 100
    },
    {
      "midi": 58,
      "hit": false,
      "t": 86949.22500000033,
      "d": 238.34765625,
      "v": 100
    },
    {
      "midi": 60,
      "hit": false,
      "t": 87203.46250000033,
      "d": 238.34765625,
      "v": 100
    },
    {
      "midi": 56,
      "hit": false,
      "t": 87457.70000000004,
      "d": 1001.0601562499942,
      "v": 60
    },
    {
      "midi": 60,
      "hit": false,
      "t": 87457.70000000004,
      "d": 1001.0601562499942,
      "v": 60
    },
    {
      "midi": 63,
      "hit": false,
      "t": 87457.70000000004,
      "d": 1001.0601562499942,
      "v": 60
    },
    {
      "midi": 63,
      "hit": false,
      "t": 87457.70000000033,
      "d": 365.4664062499942,
      "v": 100
    },
    {
      "midi": 56,
      "hit": false,
      "t": 87839.05625000033,
      "d": 238.34765625,
      "v": 100
    },
    {
      "midi": 62,
      "hit": false,
      "t": 88474.65000000004,
      "d": 1001.0601562499942,
      "v": 60
    },
    {
      "midi": 65,
      "hit": false,
      "t": 88474.65000000004,
      "d": 1001.0601562499942,
      "v": 60
    },
    {
      "midi": 68,
      "hit": false,
      "t": 88474.65000000004,
      "d": 1001.0601562499942,
      "v": 60
    },
    {
      "midi": 63,
      "hit": false,
      "t": 88728.88750000033,
      "d": 238.34765625,
      "v": 100
    },
    {
      "midi": 62,
      "hit": false,
      "t": 88983.12500000033,
      "d": 238.34765625,
      "v": 100
    },
    {
      "midi": 60,
      "hit": false,
      "t": 89237.36250000034,
      "d": 238.34765625,
      "v": 100
    },
    {
      "midi": 58,
      "hit": false,
      "t": 89491.60000000003,
      "d": 1001.0601562499942,
      "v": 60
    },
    {
      "midi": 62,
      "hit": false,
      "t": 89491.60000000003,
      "d": 1001.0601562499942,
      "v": 60
    },
    {
      "midi": 67,
      "hit": false,
      "t": 89491.60000000003,
      "d": 1001.0601562499942,
      "v": 60
    },
    {
      "midi": 62,
      "hit": false,
      "t": 89491.60000000034,
      "d": 365.4664062499942,
      "v": 100
    },
    {
      "midi": 55,
      "hit": false,
      "t": 89872.95625000034,
      "d": 365.4664062499942,
      "v": 100
    },
    {
      "midi": 58,
      "hit": false,
      "t": 90508.55000000003,
      "d": 1001.0601562499942,
      "v": 60
    },
    {
      "midi": 62,
      "hit": false,
      "t": 90508.55000000003,
      "d": 1001.0601562499942,
      "v": 60
    },
    {
      "midi": 65,
      "hit": false,
      "t": 90508.55000000003,
      "d": 1001.0601562499942,
      "v": 60
    },
    {
      "midi": 55,
      "hit": false,
      "t": 90762.78750000033,
      "d": 238.34765625,
      "v": 100
    },
    {
      "midi": 58,
      "hit": false,
      "t": 91017.02500000033,
      "d": 238.34765625,
      "v": 100
    },
    {
      "midi": 60,
      "hit": false,
      "t": 91271.26250000033,
      "d": 238.34765625,
      "v": 100
    },
    {
      "midi": 55,
      "hit": false,
      "t": 91525.50000000003,
      "d": 1001.0601562499942,
      "v": 60
    },
    {
      "midi": 60,
      "hit": false,
      "t": 91525.50000000003,
      "d": 1001.0601562499942,
      "v": 60
    },
    {
      "midi": 63,
      "hit": false,
      "t": 91525.50000000003,
      "d": 1001.0601562499942,
      "v": 60
    },
    {
      "midi": 62,
      "hit": false,
      "t": 91525.50000000033,
      "d": 238.34765625,
      "v": 100
    },
    {
      "midi": 63,
      "hit": false,
      "t": 91779.73750000034,
      "d": 238.34765625,
      "v": 100
    },
    {
      "midi": 62,
      "hit": false,
      "t": 92033.97500000034,
      "d": 111.22890625000582,
      "v": 100
    },
    {
      "midi": 63,
      "hit": false,
      "t": 92161.09375000035,
      "d": 238.34765625,
      "v": 100
    },
    {
      "midi": 62,
      "hit": false,
      "t": 92415.33125000035,
      "d": 619.7039062499971,
      "v": 100
    },
    {
      "midi": 54,
      "hit": false,
      "t": 92542.45000000003,
      "d": 1001.0601562499942,
      "v": 60
    },
    {
      "midi": 57,
      "hit": false,
      "t": 92542.45000000003,
      "d": 1001.0601562499942,
      "v": 60
    },
    {
      "midi": 60,
      "hit": false,
      "t": 92542.45000000003,
      "d": 1001.0601562499942,
      "v": 60
    },
    {
      "midi": 62,
      "hit": false,
      "t": 92542.45000000003,
      "d": 1001.0601562499942,
      "v": 60
    },
    {
      "midi": 58,
      "hit": false,
      "t": 93050.92500000035,
      "d": 238.34765625,
      "v": 100
    },
    {
      "midi": 54,
      "hit": false,
      "t": 93305.16250000036,
      "d": 238.34765625,
      "v": 100
    },
    {
      "midi": 55,
      "hit": false,
      "t": 93559.40000000002,
      "d": 1001.0601562499942,
      "v": 60
    },
    {
      "midi": 58,
      "hit": false,
      "t": 93559.40000000002,
      "d": 1001.0601562499942,
      "v": 60
    },
    {
      "midi": 62,
      "hit": false,
      "t": 93559.40000000002,
      "d": 1001.0601562499942,
      "v": 60
    },
    {
      "midi": 55,
      "hit": false,
      "t": 93559.40000000036,
      "d": 238.34765625,
      "v": 100
    },
    {
      "midi": 57,
      "hit": false,
      "t": 93813.63750000036,
      "d": 238.34765625,
      "v": 100
    },
    {
      "midi": 58,
      "hit": false,
      "t": 94067.87500000036,
      "d": 111.22890625000582,
      "v": 100
    },
    {
      "midi": 60,
      "hit": false,
      "t": 94194.99375000037,
      "d": 238.34765625,
      "v": 100
    },
    {
      "midi": 62,
      "hit": false,
      "t": 94449.23125000038,
      "d": 365.4664062499942,
      "v": 100
    },
    {
      "midi": 58,
      "hit": false,
      "t": 94576.35000000002,
      "d": 1001.0601562499942,
      "v": 60
    },
    {
      "midi": 62,
      "hit": false,
      "t": 94576.35000000002,
      "d": 1001.0601562499942,
      "v": 60
    },
    {
      "midi": 67,
      "hit": false,
      "t": 94576.35000000002,
      "d": 1001.0601562499942,
      "v": 60
    },
    {
      "midi": 58,
      "hit": false,
      "t": 94830.58750000037,
      "d": 238.34765625,
      "v": 100
    },
    {
      "midi": 55,
      "hit": false,
      "t": 95084.82500000038,
      "d": 238.34765625,
      "v": 100
    },
    {
      "midi": 50,
      "hit": false,
      "t": 95339.06250000038,
      "d": 238.34765625,
      "v": 100
    },
    {
      "midi": 57,
      "hit": false,
      "t": 95593.30000000002,
      "d": 365.4664062499942,
      "v": 60
    },
    {
      "midi": 60,
      "hit": false,
      "t": 95593.30000000002,
      "d": 365.4664062499942,
      "v": 60
    },
    {
      "midi": 63,
      "hit": false,
      "t": 95593.30000000002,
      "d": 365.4664062499942,
      "v": 60
    },
    {
      "midi": 54,
      "hit": false,
      "t": 95593.30000000038,
      "d": 365.4664062499942,
      "v": 100
    },
    {
      "midi": 57,
      "hit": false,
      "t": 95974.65625000001,
      "d": 238.34765625,
      "v": 60
    },
    {
      "midi": 62,
      "hit": false,
      "t": 95974.65625000001,
      "d": 238.34765625,
      "v": 60
    },
    {
      "midi": 66,
      "hit": false,
      "t": 95974.65625000001,
      "d": 238.34765625,
      "v": 60
    },
    {
      "midi": 57,
      "hit": false,
      "t": 95974.65625000038,
      "d": 365.4664062499942,
      "v": 100
    },
    {
      "midi": 58,
      "hit": false,
      "t": 96356.01250000001,
      "d": 111.22890625000582,
      "v": 60
    },
    {
      "midi": 62,
      "hit": false,
      "t": 96356.01250000001,
      "d": 111.22890625000582,
      "v": 60
    },
    {
      "midi": 67,
      "hit": false,
      "t": 96356.01250000001,
      "d": 111.22890625000582,
      "v": 60
    },
    {
      "midi": 55,
      "hit": false,
      "t": 96356.01250000038,
      "d": 111.22890625000582,
      "v": 100
    },
    {
      "midi": 58,
      "hit": false,
      "t": 96864.48750000038,
      "d": 238.34765625,
      "v": 100
    },
    {
      "midi": 55,
      "hit": false,
      "t": 97118.72500000038,
      "d": 238.34765625,
      "v": 100
    },
    {
      "midi": 50,
      "hit": false,
      "t": 97372.96250000039,
      "d": 238.34765625,
      "v": 100
    },
    {
      "midi": 57,
      "hit": false,
      "t": 97627.20000000001,
      "d": 365.4664062499942,
      "v": 60
    },
    {
      "midi": 60,
      "hit": false,
      "t": 97627.20000000001,
      "d": 365.4664062499942,
      "v": 60
    },
    {
      "midi": 63,
      "hit": false,
      "t": 97627.20000000001,
      "d": 365.4664062499942,
      "v": 60
    },
    {
      "midi": 54,
      "hit": false,
      "t": 97627.20000000039,
      "d": 365.4664062499942,
      "v": 100
    },
    {
      "midi": 62,
      "hit": false,
      "t": 98008.55625000001,
      "d": 238.34765625,
      "v": 60
    },
    {
      "midi": 66,
      "hit": false,
      "t": 98008.55625000001,
      "d": 238.34765625,
      "v": 60
    },
    {
      "midi": 69,
      "hit": false,
      "t": 98008.55625000001,
      "d": 238.34765625,
      "v": 60
    },
    {
      "midi": 57,
      "hit": false,
      "t": 98008.55625000039,
      "d": 365.4664062499942,
      "v": 100
    },
    {
      "midi": 62,
      "hit": false,
      "t": 98389.9125,
      "d": 111.22890625000582,
      "v": 60
    },
    {
      "midi": 67,
      "hit": false,
      "t": 98389.9125,
      "d": 111.22890625000582,
      "v": 60
    },
    {
      "midi": 70,
      "hit": false,
      "t": 98389.9125,
      "d": 111.22890625000582,
      "v": 60
    },
    {
      "midi": 55,
      "hit": false,
      "t": 98389.91250000038,
      "d": 238.34765625,
      "v": 100
    },
    {
      "midi": 55,
      "hit": false,
      "t": 99152.62500000038,
      "d": 238.34765625,
      "v": 100
    },
    {
      "midi": 50,
      "hit": false,
      "t": 99406.86250000038,
      "d": 238.34765625,
      "v": 100
    },
    {
      "midi": 63,
      "hit": false,
      "t": 99661.1,
      "d": 873.94140625,
      "v": 60
    },
    {
      "midi": 67,
      "hit": false,
      "t": 99661.1,
      "d": 873.94140625,
      "v": 60
    },
    {
      "midi": 72,
      "hit": false,
      "t": 99661.1,
      "d": 873.94140625,
      "v": 60
    },
    {
      "midi": 51,
      "hit": false,
      "t": 99661.10000000038,
      "d": 137.7119791666628,
      "v": 100
    },
    {
      "midi": 53,
      "hit": false,
      "t": 99830.59166666705,
      "d": 143.0085937499971,
      "v": 100
    },
    {
      "midi": 55,
      "hit": false,
      "t": 100000.08333333372,
      "d": 143.0085937499971,
      "v": 100
    },
    {
      "midi": 57,
      "hit": false,
      "t": 100169.57500000039,
      "d": 238.34765625,
      "v": 100
    },
    {
      "midi": 58,
      "hit": false,
      "t": 100423.8125000004,
      "d": 238.34765625,
      "v": 100
    },
    {
      "midi": 62,
      "hit": false,
      "t": 100678.05,
      "d": 873.94140625,
      "v": 60
    },
    {
      "midi": 66,
      "hit": false,
      "t": 100678.05,
      "d": 873.94140625,
      "v": 60
    },
    {
      "midi": 69,
      "hit": false,
      "t": 100678.05,
      "d": 873.94140625,
      "v": 60
    },
    {
      "midi": 72,
      "hit": false,
      "t": 100678.05,
      "d": 873.94140625,
      "v": 60
    },
    {
      "midi": 60,
      "hit": false,
      "t": 100678.0500000004,
      "d": 238.34765625,
      "v": 100
    },
    {
      "midi": 57,
      "hit": false,
      "t": 100932.2875000004,
      "d": 238.34765625,
      "v": 100
    },
    {
      "midi": 60,
      "hit": false,
      "t": 101186.5250000004,
      "d": 238.34765625,
      "v": 100
    },
    {
      "midi": 60,
      "hit": false,
      "t": 101440.7625000004,
      "d": 238.34765625,
      "v": 100
    },
    {
      "midi": 67,
      "hit": false,
      "t": 101695,
      "d": 365.4664062499942,
      "v": 60
    },
    {
      "midi": 70,
      "hit": false,
      "t": 101695,
      "d": 365.4664062499942,
      "v": 60
    },
    {
      "midi": 74,
      "hit": false,
      "t": 101695,
      "d": 365.4664062499942,
      "v": 60
    },
    {
      "midi": 62,
      "hit": false,
      "t": 101695.00000000041,
      "d": 492.5851562500029,
      "v": 100
    },
    {
      "midi": 66,
      "hit": false,
      "t": 102203.47499999999,
      "d": 365.4664062499942,
      "v": 60
    },
    {
      "midi": 69,
      "hit": false,
      "t": 102203.47499999999,
      "d": 365.4664062499942,
      "v": 60
    },
    {
      "midi": 74,
      "hit": false,
      "t": 102203.47499999999,
      "d": 365.4664062499942,
      "v": 60
    },
    {
      "midi": 62,
      "hit": false,
      "t": 102203.47500000041,
      "d": 492.5851562500029,
      "v": 100
    },
    {
      "midi": 65,
      "hit": false,
      "t": 102711.94999999998,
      "d": 111.22890625000582,
      "v": 60
    },
    {
      "midi": 68,
      "hit": false,
      "t": 102711.94999999998,
      "d": 111.22890625000582,
      "v": 60
    },
    {
      "midi": 74,
      "hit": false,
      "t": 102711.94999999998,
      "d": 111.22890625000582,
      "v": 60
    },
    {
      "midi": 62,
      "hit": false,
      "t": 102711.95000000042,
      "d": 492.5851562500029,
      "v": 100
    },
    {
      "midi": 60,
      "hit": false,
      "t": 103220.42500000042,
      "d": 238.34765625,
      "v": 100
    },
    {
      "midi": 62,
      "hit": false,
      "t": 103474.66250000043,
      "d": 111.22890625000582,
      "v": 100
    },
    {
      "midi": 56,
      "hit": false,
      "t": 103728.9,
      "d": 1001.0601562499942,
      "v": 60
    },
    {
      "midi": 60,
      "hit": false,
      "t": 103728.9,
      "d": 1001.0601562499942,
      "v": 60
    },
    {
      "midi": 63,
      "hit": false,
      "t": 103728.9,
      "d": 1001.0601562499942,
      "v": 60
    },
    {
      "midi": 63,
      "hit": false,
      "t": 103728.90000000043,
      "d": 365.4664062499942,
      "v": 100
    },
    {
      "midi": 56,
      "hit": false,
      "t": 104110.25625000043,
      "d": 238.34765625,
      "v": 100
    },
    {
      "midi": 56,
      "hit": false,
      "t": 104745.84999999999,
      "d": 1001.0601562499942,
      "v": 60
    },
    {
      "midi": 60,
      "hit": false,
      "t": 104745.84999999999,
      "d": 1001.0601562499942,
      "v": 60
    },
    {
      "midi": 65,
      "hit": false,
      "t": 104745.84999999999,
      "d": 1001.0601562499942,
      "v": 60
    },
    {
      "midi": 63,
      "hit": false,
      "t": 105000.08750000043,
      "d": 238.34765625,
      "v": 100
    },
    {
      "midi": 62,
      "hit": false,
      "t": 105254.32500000043,
      "d": 238.34765625,
      "v": 100
    },
    {
      "midi": 60,
      "hit": false,
      "t": 105508.56250000044,
      "d": 238.34765625,
      "v": 100
    },
    {
      "midi": 58,
      "hit": false,
      "t": 105762.79999999999,
      "d": 1001.0601562499942,
      "v": 60
    },
    {
      "midi": 62,
      "hit": false,
      "t": 105762.79999999999,
      "d": 1001.0601562499942,
      "v": 60
    },
    {
      "midi": 65,
      "hit": false,
      "t": 105762.79999999999,
      "d": 1001.0601562499942,
      "v": 60
    },
    {
      "midi": 62,
      "hit": false,
      "t": 105762.80000000044,
      "d": 365.4664062499942,
      "v": 100
    },
    {
      "midi": 55,
      "hit": false,
      "t": 106144.15625000044,
      "d": 365.4664062499942,
      "v": 100
    },
    {
      "midi": 55,
      "hit": false,
      "t": 106779.74999999999,
      "d": 1001.0601562499942,
      "v": 60
    },
    {
      "midi": 58,
      "hit": false,
      "t": 106779.74999999999,
      "d": 1001.0601562499942,
      "v": 60
    },
    {
      "midi": 62,
      "hit": false,
      "t": 106779.74999999999,
      "d": 1001.0601562499942,
      "v": 60
    },
    {
      "midi": 55,
      "hit": false,
      "t": 107542.46250000043,
      "d": 238.34765625,
      "v": 100
    },
    {
      "midi": 56,
      "hit": false,
      "t": 107796.69999999998,
      "d": 1001.0601562499942,
      "v": 60
    },
    {
      "midi": 60,
      "hit": false,
      "t": 107796.69999999998,
      "d": 1001.0601562499942,
      "v": 60
    },
    {
      "midi": 63,
      "hit": false,
      "t": 107796.69999999998,
      "d": 1001.0601562499942,
      "v": 60
    },
    {
      "midi": 56,
      "hit": false,
      "t": 107796.70000000043,
      "d": 365.4664062499942,
      "v": 100
    },
    {
      "midi": 58,
      "hit": false,
      "t": 108178.05625000043,
      "d": 365.4664062499942,
      "v": 100
    },
    {
      "midi": 60,
      "hit": false,
      "t": 108559.41250000043,
      "d": 238.34765625,
      "v": 100
    },
    {
      "midi": 60,
      "hit": false,
      "t": 108813.64999999998,
      "d": 1001.0601562499942,
      "v": 60
    },
    {
      "midi": 63,
      "hit": false,
      "t": 108813.64999999998,
      "d": 1001.0601562499942,
      "v": 60
    },
    {
      "midi": 65,
      "hit": false,
      "t": 108813.64999999998,
      "d": 1001.0601562499942,
      "v": 60
    },
    {
      "midi": 63,
      "hit": false,
      "t": 108813.65000000043,
      "d": 365.4664062499942,
      "v": 100
    },
    {
      "midi": 62,
      "hit": false,
      "t": 109195.00625000043,
      "d": 365.4664062499942,
      "v": 100
    },
    {
      "midi": 60,
      "hit": false,
      "t": 109576.36250000042,
      "d": 238.34765625,
      "v": 100
    },
    {
      "midi": 55,
      "hit": false,
      "t": 109830.59999999998,
      "d": 1001.0601562499942,
      "v": 60
    },
    {
      "midi": 58,
      "hit": false,
      "t": 109830.59999999998,
      "d": 1001.0601562499942,
      "v": 60
    },
    {
      "midi": 62,
      "hit": false,
      "t": 109830.59999999998,
      "d": 1001.0601562499942,
      "v": 60
    },
    {
      "midi": 62,
      "hit": false,
      "t": 109830.60000000043,
      "d": 365.4664062499942,
      "v": 100
    },
    {
      "midi": 55,
      "hit": false,
      "t": 110211.95625000042,
      "d": 365.4664062499942,
      "v": 100
    },
    {
      "midi": 58,
      "hit": false,
      "t": 111101.78749999998,
      "d": 365.4664062499942,
      "v": 60
    },
    {
      "midi": 62,
      "hit": false,
      "t": 111101.78749999998,
      "d": 365.4664062499942,
      "v": 60
    },
    {
      "midi": 65,
      "hit": false,
      "t": 111101.78749999998,
      "d": 365.4664062499942,
      "v": 60
    },
    {
      "midi": 62,
      "hit": false,
      "t": 111101.78750000041,
      "d": 492.5851562500029,
      "v": 100
    },
    {
      "midi": 60,
      "hit": false,
      "t": 111610.26249999997,
      "d": 254.2375000000029,
      "v": 60
    },
    {
      "midi": 58,
      "hit": false,
      "t": 111610.26249999997,
      "d": 365.46640625000873,
      "v": 60
    },
    {
      "midi": 64,
      "hit": false,
      "t": 111610.26249999997,
      "d": 365.46640625000873,
      "v": 60
    },
    {
      "midi": 60,
      "hit": false,
      "t": 111610.26250000042,
      "d": 238.34765625,
      "v": 100
    },
    {
      "midi": 60,
      "hit": false,
      "t": 111864.49999999997,
      "d": 111.22890625000582,
      "v": 60
    },
    {
      "midi": 56,
      "hit": false,
      "t": 111864.49999999997,
      "d": 1001.0601562500087,
      "v": 60
    },
    {
      "midi": 63,
      "hit": false,
      "t": 111864.49999999997,
      "d": 1001.0601562500087,
      "v": 60
    },
    {
      "midi": 63,
      "hit": false,
      "t": 111864.50000000042,
      "d": 365.4664062499942,
      "v": 100
    },
    {
      "midi": 56,
      "hit": false,
      "t": 112245.85625000042,
      "d": 365.4664062499942,
      "v": 100
    },
    {
      "midi": 60,
      "hit": false,
      "t": 112881.44999999998,
      "d": 1001.0601562499942,
      "v": 60
    },
    {
      "midi": 63,
      "hit": false,
      "t": 112881.44999999998,
      "d": 1001.0601562499942,
      "v": 60
    },
    {
      "midi": 65,
      "hit": false,
      "t": 112881.44999999998,
      "d": 1001.0601562499942,
      "v": 60
    },
    {
      "midi": 63,
      "hit": false,
      "t": 113135.68750000041,
      "d": 238.34765625,
      "v": 100
    },
    {
      "midi": 62,
      "hit": false,
      "t": 113389.92500000041,
      "d": 238.34765625,
      "v": 100
    },
    {
      "midi": 60,
      "hit": false,
      "t": 113644.16250000041,
      "d": 238.34765625,
      "v": 100
    },
    {
      "midi": 58,
      "hit": false,
      "t": 113898.39999999998,
      "d": 746.8226562500058,
      "v": 60
    },
    {
      "midi": 62,
      "hit": false,
      "t": 113898.39999999998,
      "d": 746.8226562500058,
      "v": 60
    },
    {
      "midi": 65,
      "hit": false,
      "t": 113898.39999999998,
      "d": 746.8226562500058,
      "v": 60
    },
    {
      "midi": 62,
      "hit": false,
      "t": 113898.40000000042,
      "d": 746.8226562500058,
      "v": 100
    },
    {
      "midi": 58,
      "hit": false,
      "t": 114661.11249999999,
      "d": 1255.297656249997,
      "v": 60
    },
    {
      "midi": 60,
      "hit": false,
      "t": 114661.11249999999,
      "d": 1255.297656249997,
      "v": 60
    },
    {
      "midi": 64,
      "hit": false,
      "t": 114661.11249999999,
      "d": 1255.297656249997,
      "v": 60
    },
    {
      "midi": 60,
      "hit": false,
      "t": 114661.11250000042,
      "d": 1001.0601562499942,
      "v": 100
    },
    {
      "midi": 56,
      "hit": false,
      "t": 115932.29999999999,
      "d": 1001.0601562499942,
      "v": 60
    },
    {
      "midi": 60,
      "hit": false,
      "t": 115932.29999999999,
      "d": 1001.0601562499942,
      "v": 60
    },
    {
      "midi": 63,
      "hit": false,
      "t": 115932.29999999999,
      "d": 1001.0601562499942,
      "v": 60
    },
    {
      "midi": 63,
      "hit": false,
      "t": 115932.30000000042,
      "d": 365.4664062499942,
      "v": 100
    },
    {
      "midi": 62,
      "hit": false,
      "t": 116313.65625000042,
      "d": 365.4664062499942,
      "v": 100
    },
    {
      "midi": 63,
      "hit": false,
      "t": 116695.01250000042,
      "d": 238.34765625,
      "v": 100
    },
    {
      "midi": 56,
      "hit": false,
      "t": 116949.24999999999,
      "d": 1001.0601562499942,
      "v": 60
    },
    {
      "midi": 58,
      "hit": false,
      "t": 116949.24999999999,
      "d": 1001.0601562499942,
      "v": 60
    },
    {
      "midi": 62,
      "hit": false,
      "t": 116949.24999999999,
      "d": 1001.0601562499942,
      "v": 60
    },
    {
      "midi": 62,
      "hit": false,
      "t": 116949.25000000042,
      "d": 365.4664062499942,
      "v": 100
    },
    {
      "midi": 60,
      "hit": false,
      "t": 117330.60625000042,
      "d": 365.4664062499942,
      "v": 100
    },
    {
      "midi": 62,
      "hit": false,
      "t": 117711.96250000042,
      "d": 238.34765625,
      "v": 100
    },
    {
      "midi": 58,
      "hit": false,
      "t": 117966.19999999998,
      "d": 1001.0601562499942,
      "v": 60
    },
    {
      "midi": 62,
      "hit": false,
      "t": 117966.19999999998,
      "d": 1001.0601562499942,
      "v": 60
    },
    {
      "midi": 65,
      "hit": false,
      "t": 117966.19999999998,
      "d": 1001.0601562499942,
      "v": 60
    },
    {
      "midi": 60,
      "hit": false,
      "t": 117966.20000000042,
      "d": 365.4664062499942,
      "v": 100
    },
    {
      "midi": 58,
      "hit": false,
      "t": 118347.55625000042,
      "d": 365.4664062499942,
      "v": 100
    },
    {
      "midi": 60,
      "hit": false,
      "t": 118728.91250000041,
      "d": 238.34765625,
      "v": 100
    },
    {
      "midi": 58,
      "hit": false,
      "t": 118983.14999999998,
      "d": 873.94140625,
      "v": 60
    },
    {
      "midi": 60,
      "hit": false,
      "t": 118983.14999999998,
      "d": 873.94140625,
      "v": 60
    },
    {
      "midi": 64,
      "hit": false,
      "t": 118983.14999999998,
      "d": 873.94140625,
      "v": 60
    },
    {
      "midi": 62,
      "hit": false,
      "t": 118983.15000000042,
      "d": 238.34765625,
      "v": 100
    },
    {
      "midi": 58,
      "hit": false,
      "t": 119237.38750000042,
      "d": 238.34765625,
      "v": 100
    },
    {
      "midi": 60,
      "hit": false,
      "t": 119491.62500000042,
      "d": 238.34765625,
      "v": 100
    },
    {
      "midi": 62,
      "hit": false,
      "t": 119745.86250000042,
      "d": 238.34765625,
      "v": 100
    },
    {
      "midi": 41,
      "hit": false,
      "t": 120000.09999999998,
      "d": 111.22890625000582,
      "v": 60
    },
    {
      "midi": 63,
      "hit": false,
      "t": 120000.10000000043,
      "d": 746.8226562500058,
      "v": 100
    },
    {
      "midi": 43,
      "hit": false,
      "t": 120254.33749999998,
      "d": 111.22890625000582,
      "v": 60
    },
    {
      "midi": 44,
      "hit": false,
      "t": 120508.57499999998,
      "d": 111.22890625000582,
      "v": 60
    },
    {
      "midi": 45,
      "hit": false,
      "t": 120762.81249999999,
      "d": 111.22890625000582,
      "v": 60
    },
    {
      "midi": 60,
      "hit": false,
      "t": 120762.81250000044,
      "d": 1255.297656249997,
      "v": 100
    },
    {
      "midi": 46,
      "hit": false,
      "t": 121017.04999999999,
      "d": 111.22890625000582,
      "v": 60
    },
    {
      "midi": 47,
      "hit": false,
      "t": 121271.28749999999,
      "d": 111.22890625000582,
      "v": 60
    },
    {
      "midi": 48,
      "hit": false,
      "t": 121525.525,
      "d": 111.22890625000582,
      "v": 60
    },
    {
      "midi": 49,
      "hit": false,
      "t": 121779.7625,
      "d": 111.22890625000582,
      "v": 60
    },
    {
      "midi": 50,
      "hit": false,
      "t": 122034,
      "d": 2018.0101562500058,
      "v": 60
    },
    {
      "midi": 74,
      "hit": false,
      "t": 122034,
      "d": 2018.0101562500058,
      "v": 60
    },
    {
      "midi": 55,
      "hit": false,
      "t": 123305.18750000044,
      "d": 238.34765625,
      "v": 100
    },
    {
      "midi": 54,
      "hit": false,
      "t": 123559.42500000044,
      "d": 238.34765625,
      "v": 100
    },
    {
      "midi": 51,
      "hit": false,
      "t": 123813.66250000044,
      "d": 238.34765625,
      "v": 100
    },
    {
      "midi": 62,
      "hit": false,
      "t": 124067.90000000001,
      "d": 365.4664062499942,
      "v": 60
    },
    {
      "midi": 65,
      "hit": false,
      "t": 124067.90000000001,
      "d": 365.4664062499942,
      "v": 60
    },
    {
      "midi": 67,
      "hit": false,
      "t": 124067.90000000001,
      "d": 365.4664062499942,
      "v": 60
    },
    {
      "midi": 70,
      "hit": false,
      "t": 124067.90000000001,
      "d": 365.4664062499942,
      "v": 60
    },
    {
      "midi": 50,
      "hit": false,
      "t": 124067.90000000045,
      "d": 1763.772656250003,
      "v": 100
    },
    {
      "midi": 62,
      "hit": false,
      "t": 124449.25625,
      "d": 238.34765625,
      "v": 60
    },
    {
      "midi": 65,
      "hit": false,
      "t": 124449.25625,
      "d": 238.34765625,
      "v": 60
    },
    {
      "midi": 67,
      "hit": false,
      "t": 124449.25625,
      "d": 238.34765625,
      "v": 60
    },
    {
      "midi": 70,
      "hit": false,
      "t": 124449.25625,
      "d": 238.34765625,
      "v": 60
    },
    {
      "midi": 98,
      "hit": false,
      "t": 124576.37499999999,
      "d": 116.52552083334012,
      "v": 60
    },
    {
      "midi": 96,
      "hit": false,
      "t": 124703.49375,
      "d": 116.52552083334012,
      "v": 60
    },
    {
      "midi": 62,
      "hit": false,
      "t": 124830.6125,
      "d": 365.4664062499942,
      "v": 60
    },
    {
      "midi": 65,
      "hit": false,
      "t": 124830.6125,
      "d": 365.4664062499942,
      "v": 60
    },
    {
      "midi": 67,
      "hit": false,
      "t": 124830.6125,
      "d": 365.4664062499942,
      "v": 60
    },
    {
      "midi": 70,
      "hit": false,
      "t": 124830.6125,
      "d": 365.4664062499942,
      "v": 60
    },
    {
      "midi": 94,
      "hit": false,
      "t": 124830.6125,
      "d": 116.52552083334012,
      "v": 60
    },
    {
      "midi": 91,
      "hit": false,
      "t": 124957.73125000001,
      "d": 116.52552083334012,
      "v": 60
    },
    {
      "midi": 98,
      "hit": false,
      "t": 125084.85000000002,
      "d": 254.2375000000029,
      "v": 60
    },
    {
      "midi": 65,
      "hit": false,
      "t": 125339.0875,
      "d": 365.4664062499942,
      "v": 60
    },
    {
      "midi": 67,
      "hit": false,
      "t": 125339.0875,
      "d": 365.4664062499942,
      "v": 60
    },
    {
      "midi": 70,
      "hit": false,
      "t": 125339.0875,
      "d": 365.4664062499942,
      "v": 60
    },
    {
      "midi": 74,
      "hit": false,
      "t": 125339.0875,
      "d": 365.4664062499942,
      "v": 60
    },
    {
      "midi": 64,
      "hit": false,
      "t": 125720.44374999999,
      "d": 238.34765625,
      "v": 60
    },
    {
      "midi": 66,
      "hit": false,
      "t": 125720.44374999999,
      "d": 238.34765625,
      "v": 60
    },
    {
      "midi": 69,
      "hit": false,
      "t": 125720.44374999999,
      "d": 238.34765625,
      "v": 60
    },
    {
      "midi": 73,
      "hit": false,
      "t": 125720.44374999999,
      "d": 238.34765625,
      "v": 60
    },
    {
      "midi": 63,
      "hit": false,
      "t": 126101.79999999999,
      "d": 365.4664062499942,
      "v": 60
    },
    {
      "midi": 65,
      "hit": false,
      "t": 126101.79999999999,
      "d": 365.4664062499942,
      "v": 60
    },
    {
      "midi": 68,
      "hit": false,
      "t": 126101.79999999999,
      "d": 365.4664062499942,
      "v": 60
    },
    {
      "midi": 72,
      "hit": false,
      "t": 126101.79999999999,
      "d": 365.4664062499942,
      "v": 60
    },
    {
      "midi": 91,
      "hit": false,
      "t": 126356.03750000002,
      "d": 105.93229166667152,
      "v": 60
    },
    {
      "midi": 63,
      "hit": false,
      "t": 126483.15624999999,
      "d": 238.34765625,
      "v": 60
    },
    {
      "midi": 65,
      "hit": false,
      "t": 126483.15624999999,
      "d": 238.34765625,
      "v": 60
    },
    {
      "midi": 68,
      "hit": false,
      "t": 126483.15624999999,
      "d": 238.34765625,
      "v": 60
    },
    {
      "midi": 72,
      "hit": false,
      "t": 126483.15624999999,
      "d": 238.34765625,
      "v": 60
    },
    {
      "midi": 89,
      "hit": false,
      "t": 126483.15625000003,
      "d": 116.52552083334012,
      "v": 60
    },
    {
      "midi": 87,
      "hit": false,
      "t": 126610.27500000004,
      "d": 116.52552083334012,
      "v": 60
    },
    {
      "midi": 84,
      "hit": false,
      "t": 126737.39375000005,
      "d": 116.52552083334012,
      "v": 60
    },
    {
      "midi": 63,
      "hit": false,
      "t": 126864.51249999998,
      "d": 365.4664062499942,
      "v": 60
    },
    {
      "midi": 65,
      "hit": false,
      "t": 126864.51249999998,
      "d": 365.4664062499942,
      "v": 60
    },
    {
      "midi": 68,
      "hit": false,
      "t": 126864.51249999998,
      "d": 365.4664062499942,
      "v": 60
    },
    {
      "midi": 72,
      "hit": false,
      "t": 126864.51249999998,
      "d": 365.4664062499942,
      "v": 60
    },
    {
      "midi": 84,
      "hit": false,
      "t": 126864.51250000006,
      "d": 116.52552083334012,
      "v": 60
    },
    {
      "midi": 82,
      "hit": false,
      "t": 126991.63125000006,
      "d": 116.52552083334012,
      "v": 60
    },
    {
      "midi": 84,
      "hit": false,
      "t": 127118.75000000007,
      "d": 116.52552083334012,
      "v": 60
    },
    {
      "midi": 82,
      "hit": false,
      "t": 127245.86875000008,
      "d": 116.52552083334012,
      "v": 60
    },
    {
      "midi": 63,
      "hit": false,
      "t": 127372.98749999997,
      "d": 365.4664062499942,
      "v": 60
    },
    {
      "midi": 65,
      "hit": false,
      "t": 127372.98749999997,
      "d": 365.4664062499942,
      "v": 60
    },
    {
      "midi": 68,
      "hit": false,
      "t": 127372.98749999997,
      "d": 365.4664062499942,
      "v": 60
    },
    {
      "midi": 72,
      "hit": false,
      "t": 127372.98749999997,
      "d": 365.4664062499942,
      "v": 60
    },
    {
      "midi": 79,
      "hit": false,
      "t": 127372.98750000009,
      "d": 116.52552083334012,
      "v": 60
    },
    {
      "midi": 77,
      "hit": false,
      "t": 127500.1062500001,
      "d": 116.52552083334012,
      "v": 60
    },
    {
      "midi": 79,
      "hit": false,
      "t": 127627.22500000011,
      "d": 254.2375000000029,
      "v": 60
    },
    {
      "midi": 64,
      "hit": false,
      "t": 127754.34374999997,
      "d": 238.34765625,
      "v": 60
    },
    {
      "midi": 66,
      "hit": false,
      "t": 127754.34374999997,
      "d": 238.34765625,
      "v": 60
    },
    {
      "midi": 69,
      "hit": false,
      "t": 127754.34374999997,
      "d": 238.34765625,
      "v": 60
    },
    {
      "midi": 73,
      "hit": false,
      "t": 127754.34374999997,
      "d": 238.34765625,
      "v": 60
    },
    {
      "midi": 62,
      "hit": false,
      "t": 128135.69999999997,
      "d": 365.4664062499942,
      "v": 60
    },
    {
      "midi": 65,
      "hit": false,
      "t": 128135.69999999997,
      "d": 365.4664062499942,
      "v": 60
    },
    {
      "midi": 67,
      "hit": false,
      "t": 128135.69999999997,
      "d": 365.4664062499942,
      "v": 60
    },
    {
      "midi": 70,
      "hit": false,
      "t": 128135.69999999997,
      "d": 365.4664062499942,
      "v": 60
    },
    {
      "midi": 62,
      "hit": false,
      "t": 128517.05624999997,
      "d": 238.34765625,
      "v": 60
    },
    {
      "midi": 65,
      "hit": false,
      "t": 128517.05624999997,
      "d": 238.34765625,
      "v": 60
    },
    {
      "midi": 67,
      "hit": false,
      "t": 128517.05624999997,
      "d": 238.34765625,
      "v": 60
    },
    {
      "midi": 70,
      "hit": false,
      "t": 128517.05624999997,
      "d": 238.34765625,
      "v": 60
    },
    {
      "midi": 62,
      "hit": false,
      "t": 128898.41249999996,
      "d": 365.4664062499942,
      "v": 60
    },
    {
      "midi": 65,
      "hit": false,
      "t": 128898.41249999996,
      "d": 365.4664062499942,
      "v": 60
    },
    {
      "midi": 67,
      "hit": false,
      "t": 128898.41249999996,
      "d": 365.4664062499942,
      "v": 60
    },
    {
      "midi": 70,
      "hit": false,
      "t": 128898.41249999996,
      "d": 365.4664062499942,
      "v": 60
    },
    {
      "midi": 65,
      "hit": false,
      "t": 129406.88749999995,
      "d": 365.4664062499942,
      "v": 60
    },
    {
      "midi": 67,
      "hit": false,
      "t": 129406.88749999995,
      "d": 365.4664062499942,
      "v": 60
    },
    {
      "midi": 70,
      "hit": false,
      "t": 129406.88749999995,
      "d": 365.4664062499942,
      "v": 60
    },
    {
      "midi": 74,
      "hit": false,
      "t": 129406.88749999995,
      "d": 365.4664062499942,
      "v": 60
    },
    {
      "midi": 64,
      "hit": false,
      "t": 129788.24374999995,
      "d": 238.34765625,
      "v": 60
    },
    {
      "midi": 66,
      "hit": false,
      "t": 129788.24374999995,
      "d": 238.34765625,
      "v": 60
    },
    {
      "midi": 69,
      "hit": false,
      "t": 129788.24374999995,
      "d": 238.34765625,
      "v": 60
    },
    {
      "midi": 73,
      "hit": false,
      "t": 129788.24374999995,
      "d": 238.34765625,
      "v": 60
    },
    {
      "midi": 63,
      "hit": false,
      "t": 130169.59999999995,
      "d": 365.4664062499942,
      "v": 60
    },
    {
      "midi": 65,
      "hit": false,
      "t": 130169.59999999995,
      "d": 365.4664062499942,
      "v": 60
    },
    {
      "midi": 68,
      "hit": false,
      "t": 130169.59999999995,
      "d": 365.4664062499942,
      "v": 60
    },
    {
      "midi": 72,
      "hit": false,
      "t": 130169.59999999995,
      "d": 365.4664062499942,
      "v": 60
    },
    {
      "midi": 63,
      "hit": false,
      "t": 130550.95624999994,
      "d": 238.34765625,
      "v": 60
    },
    {
      "midi": 65,
      "hit": false,
      "t": 130550.95624999994,
      "d": 238.34765625,
      "v": 60
    },
    {
      "midi": 68,
      "hit": false,
      "t": 130550.95624999994,
      "d": 238.34765625,
      "v": 60
    },
    {
      "midi": 72,
      "hit": false,
      "t": 130550.95624999994,
      "d": 238.34765625,
      "v": 60
    },
    {
      "midi": 63,
      "hit": false,
      "t": 130932.31249999994,
      "d": 365.4664062499942,
      "v": 60
    },
    {
      "midi": 65,
      "hit": false,
      "t": 130932.31249999994,
      "d": 365.4664062499942,
      "v": 60
    },
    {
      "midi": 68,
      "hit": false,
      "t": 130932.31249999994,
      "d": 365.4664062499942,
      "v": 60
    },
    {
      "midi": 72,
      "hit": false,
      "t": 130932.31249999994,
      "d": 365.4664062499942,
      "v": 60
    },
    {
      "midi": 63,
      "hit": false,
      "t": 131440.78749999995,
      "d": 365.4664062499942,
      "v": 60
    },
    {
      "midi": 65,
      "hit": false,
      "t": 131440.78749999995,
      "d": 365.4664062499942,
      "v": 60
    },
    {
      "midi": 68,
      "hit": false,
      "t": 131440.78749999995,
      "d": 365.4664062499942,
      "v": 60
    },
    {
      "midi": 72,
      "hit": false,
      "t": 131440.78749999995,
      "d": 365.4664062499942,
      "v": 60
    },
    {
      "midi": 64,
      "hit": false,
      "t": 131822.14374999993,
      "d": 238.34765625,
      "v": 60
    },
    {
      "midi": 66,
      "hit": false,
      "t": 131822.14374999993,
      "d": 238.34765625,
      "v": 60
    },
    {
      "midi": 69,
      "hit": false,
      "t": 131822.14374999993,
      "d": 238.34765625,
      "v": 60
    },
    {
      "midi": 73,
      "hit": false,
      "t": 131822.14374999993,
      "d": 238.34765625,
      "v": 60
    },
    {
      "midi": 58,
      "hit": false,
      "t": 132203.49999999994,
      "d": 2780.72265625,
      "v": 60
    },
    {
      "midi": 62,
      "hit": false,
      "t": 132203.49999999994,
      "d": 2780.72265625,
      "v": 60
    },
    {
      "midi": 65,
      "hit": false,
      "t": 132203.49999999994,
      "d": 2780.72265625,
      "v": 60
    },
    {
      "midi": 69,
      "hit": false,
      "t": 132203.49999999994,
      "d": 2780.72265625,
      "v": 60
    },
    {
      "midi": 93,
      "hit": false,
      "t": 132208.79661458344,
      "d": 21.18645833330811,
      "v": 69
    },
    {
      "midi": 91,
      "hit": false,
      "t": 132214.09322916676,
      "d": 21.18645833330811,
      "v": 69
    },
    {
      "midi": 89,
      "hit": false,
      "t": 132282.94921875006,
      "d": 21.186458333337214,
      "v": 66
    },
    {
      "midi": 88,
      "hit": false,
      "t": 132325.32213541673,
      "d": 21.186458333337214,
      "v": 64
    },
    {
      "midi": 86,
      "hit": false,
      "t": 132372.99166666673,
      "d": 21.186458333337214,
      "v": 62
    },
    {
      "midi": 84,
      "hit": false,
      "t": 132410.06796875005,
      "d": 21.186458333337214,
      "v": 60
    },
    {
      "midi": 83,
      "hit": false,
      "t": 132452.44088541673,
      "d": 21.186458333337214,
      "v": 58
    },
    {
      "midi": 81,
      "hit": false,
      "t": 132494.8138020834,
      "d": 21.186458333337214,
      "v": 56
    },
    {
      "midi": 79,
      "hit": false,
      "t": 132531.89010416673,
      "d": 21.186458333337214,
      "v": 54
    },
    {
      "midi": 77,
      "hit": false,
      "t": 132568.96640625005,
      "d": 21.186458333337214,
      "v": 52
    },
    {
      "midi": 76,
      "hit": false,
      "t": 132606.04270833338,
      "d": 21.186458333337214,
      "v": 51
    },
    {
      "midi": 74,
      "hit": false,
      "t": 132643.1190104167,
      "d": 21.186458333337214,
      "v": 49
    },
    {
      "midi": 72,
      "hit": false,
      "t": 132674.8986979167,
      "d": 21.186458333337214,
      "v": 47
    },
    {
      "midi": 71,
      "hit": false,
      "t": 132706.67838541672,
      "d": 21.186458333337214,
      "v": 46
    },
    {
      "midi": 69,
      "hit": false,
      "t": 132743.75468750004,
      "d": 21.186458333337214,
      "v": 44
    },
    {
      "midi": 67,
      "hit": false,
      "t": 132786.12760416672,
      "d": 21.186458333337214,
      "v": 42
    },
    {
      "midi": 58,
      "hit": false,
      "t": 135254.34999999995,
      "d": 365.4664062499942,
      "v": 60
    },
    {
      "midi": 62,
      "hit": false,
      "t": 135254.34999999995,
      "d": 365.4664062499942,
      "v": 60
    },
    {
      "midi": 65,
      "hit": false,
      "t": 135254.34999999995,
      "d": 365.4664062499942,
      "v": 60
    },
    {
      "midi": 69,
      "hit": false,
      "t": 135254.34999999995,
      "d": 365.4664062499942,
      "v": 60
    },
    {
      "midi": 59,
      "hit": false,
      "t": 135635.70624999993,
      "d": 365.4664062499942,
      "v": 60
    },
    {
      "midi": 63,
      "hit": false,
      "t": 135635.70624999993,
      "d": 365.4664062499942,
      "v": 60
    },
    {
      "midi": 66,
      "hit": false,
      "t": 135635.70624999993,
      "d": 365.4664062499942,
      "v": 60
    },
    {
      "midi": 70,
      "hit": false,
      "t": 135635.70624999993,
      "d": 365.4664062499942,
      "v": 60
    },
    {
      "midi": 60,
      "hit": false,
      "t": 136017.0624999999,
      "d": 238.34765625,
      "v": 60
    },
    {
      "midi": 64,
      "hit": false,
      "t": 136017.0624999999,
      "d": 238.34765625,
      "v": 60
    },
    {
      "midi": 67,
      "hit": false,
      "t": 136017.0624999999,
      "d": 238.34765625,
      "v": 60
    },
    {
      "midi": 71,
      "hit": false,
      "t": 136017.0624999999,
      "d": 238.34765625,
      "v": 60
    },
    {
      "midi": 61,
      "hit": false,
      "t": 136271.2999999999,
      "d": 746.8226562500058,
      "v": 60
    },
    {
      "midi": 65,
      "hit": false,
      "t": 136271.2999999999,
      "d": 746.8226562500058,
      "v": 60
    },
    {
      "midi": 68,
      "hit": false,
      "t": 136271.2999999999,
      "d": 746.8226562500058,
      "v": 60
    },
    {
      "midi": 72,
      "hit": false,
      "t": 136271.2999999999,
      "d": 746.8226562500058,
      "v": 60
    },
    {
      "midi": 61,
      "hit": false,
      "t": 137034.0124999999,
      "d": 2145.12890625,
      "v": 60
    },
    {
      "midi": 65,
      "hit": false,
      "t": 137034.0124999999,
      "d": 2145.12890625,
      "v": 60
    },
    {
      "midi": 68,
      "hit": false,
      "t": 137034.0124999999,
      "d": 2145.12890625,
      "v": 60
    },
    {
      "midi": 72,
      "hit": false,
      "t": 137034.0124999999,
      "d": 2145.12890625,
      "v": 60
    },
    {
      "midi": 61,
      "hit": false,
      "t": 139322.1499999999,
      "d": 365.4664062499942,
      "v": 60
    },
    {
      "midi": 65,
      "hit": false,
      "t": 139322.1499999999,
      "d": 365.4664062499942,
      "v": 60
    },
    {
      "midi": 68,
      "hit": false,
      "t": 139322.1499999999,
      "d": 365.4664062499942,
      "v": 60
    },
    {
      "midi": 72,
      "hit": false,
      "t": 139322.1499999999,
      "d": 365.4664062499942,
      "v": 60
    },
    {
      "midi": 62,
      "hit": false,
      "t": 139703.5062499999,
      "d": 365.4664062499942,
      "v": 60
    },
    {
      "midi": 66,
      "hit": false,
      "t": 139703.5062499999,
      "d": 365.4664062499942,
      "v": 60
    },
    {
      "midi": 69,
      "hit": false,
      "t": 139703.5062499999,
      "d": 365.4664062499942,
      "v": 60
    },
    {
      "midi": 73,
      "hit": false,
      "t": 139703.5062499999,
      "d": 365.4664062499942,
      "v": 60
    },
    {
      "midi": 63,
      "hit": false,
      "t": 140084.86249999987,
      "d": 238.34765625,
      "v": 60
    },
    {
      "midi": 67,
      "hit": false,
      "t": 140084.86249999987,
      "d": 238.34765625,
      "v": 60
    },
    {
      "midi": 70,
      "hit": false,
      "t": 140084.86249999987,
      "d": 238.34765625,
      "v": 60
    },
    {
      "midi": 74,
      "hit": false,
      "t": 140084.86249999987,
      "d": 238.34765625,
      "v": 60
    },
    {
      "midi": 64,
      "hit": false,
      "t": 140339.09999999986,
      "d": 619.7039062500116,
      "v": 60
    },
    {
      "midi": 68,
      "hit": false,
      "t": 140339.09999999986,
      "d": 619.7039062500116,
      "v": 60
    },
    {
      "midi": 71,
      "hit": false,
      "t": 140339.09999999986,
      "d": 619.7039062500116,
      "v": 60
    },
    {
      "midi": 75,
      "hit": false,
      "t": 140339.09999999986,
      "d": 619.7039062500116,
      "v": 60
    },
    {
      "midi": 64,
      "hit": false,
      "t": 141101.81249999988,
      "d": 2145.12890625,
      "v": 60
    },
    {
      "midi": 68,
      "hit": false,
      "t": 141101.81249999988,
      "d": 2145.12890625,
      "v": 60
    },
    {
      "midi": 71,
      "hit": false,
      "t": 141101.81249999988,
      "d": 2145.12890625,
      "v": 60
    },
    {
      "midi": 75,
      "hit": false,
      "t": 141101.81249999988,
      "d": 2145.12890625,
      "v": 60
    },
    {
      "midi": 64,
      "hit": false,
      "t": 143389.9499999999,
      "d": 365.4664062499942,
      "v": 60
    },
    {
      "midi": 68,
      "hit": false,
      "t": 143389.9499999999,
      "d": 365.4664062499942,
      "v": 60
    },
    {
      "midi": 71,
      "hit": false,
      "t": 143389.9499999999,
      "d": 365.4664062499942,
      "v": 60
    },
    {
      "midi": 75,
      "hit": false,
      "t": 143389.9499999999,
      "d": 365.4664062499942,
      "v": 60
    },
    {
      "midi": 63,
      "hit": false,
      "t": 143771.30624999988,
      "d": 365.4664062499942,
      "v": 60
    },
    {
      "midi": 67,
      "hit": false,
      "t": 143771.30624999988,
      "d": 365.4664062499942,
      "v": 60
    },
    {
      "midi": 70,
      "hit": false,
      "t": 143771.30624999988,
      "d": 365.4664062499942,
      "v": 60
    },
    {
      "midi": 74,
      "hit": false,
      "t": 143771.30624999988,
      "d": 365.4664062499942,
      "v": 60
    },
    {
      "midi": 62,
      "hit": false,
      "t": 144152.66249999986,
      "d": 238.34765625,
      "v": 60
    },
    {
      "midi": 66,
      "hit": false,
      "t": 144152.66249999986,
      "d": 238.34765625,
      "v": 60
    },
    {
      "midi": 69,
      "hit": false,
      "t": 144152.66249999986,
      "d": 238.34765625,
      "v": 60
    },
    {
      "midi": 73,
      "hit": false,
      "t": 144152.66249999986,
      "d": 238.34765625,
      "v": 60
    },
    {
      "midi": 61,
      "hit": false,
      "t": 144406.89999999985,
      "d": 2907.841406249994,
      "v": 60
    },
    {
      "midi": 65,
      "hit": false,
      "t": 144406.89999999985,
      "d": 2907.841406249994,
      "v": 60
    },
    {
      "midi": 68,
      "hit": false,
      "t": 144406.89999999985,
      "d": 2907.841406249994,
      "v": 60
    },
    {
      "midi": 72,
      "hit": false,
      "t": 144406.89999999985,
      "d": 2907.841406249994,
      "v": 60
    },
    {
      "midi": 61,
      "hit": false,
      "t": 147457.74999999985,
      "d": 365.4664062499942,
      "v": 60
    },
    {
      "midi": 65,
      "hit": false,
      "t": 147457.74999999985,
      "d": 365.4664062499942,
      "v": 60
    },
    {
      "midi": 68,
      "hit": false,
      "t": 147457.74999999985,
      "d": 365.4664062499942,
      "v": 60
    },
    {
      "midi": 72,
      "hit": false,
      "t": 147457.74999999985,
      "d": 365.4664062499942,
      "v": 60
    },
    {
      "midi": 60,
      "hit": false,
      "t": 147839.10624999984,
      "d": 365.4664062499942,
      "v": 60
    },
    {
      "midi": 64,
      "hit": false,
      "t": 147839.10624999984,
      "d": 365.4664062499942,
      "v": 60
    },
    {
      "midi": 67,
      "hit": false,
      "t": 147839.10624999984,
      "d": 365.4664062499942,
      "v": 60
    },
    {
      "midi": 71,
      "hit": false,
      "t": 147839.10624999984,
      "d": 365.4664062499942,
      "v": 60
    },
    {
      "midi": 59,
      "hit": false,
      "t": 148220.46249999982,
      "d": 238.34765625,
      "v": 60
    },
    {
      "midi": 63,
      "hit": false,
      "t": 148220.46249999982,
      "d": 238.34765625,
      "v": 60
    },
    {
      "midi": 66,
      "hit": false,
      "t": 148220.46249999982,
      "d": 238.34765625,
      "v": 60
    },
    {
      "midi": 70,
      "hit": false,
      "t": 148220.46249999982,
      "d": 238.34765625,
      "v": 60
    },
    {
      "midi": 58,
      "hit": false,
      "t": 148474.6999999998,
      "d": 2018.0101562500058,
      "v": 60
    },
    {
      "midi": 62,
      "hit": false,
      "t": 148474.6999999998,
      "d": 2018.0101562500058,
      "v": 60
    },
    {
      "midi": 65,
      "hit": false,
      "t": 148474.6999999998,
      "d": 2018.0101562500058,
      "v": 60
    },
    {
      "midi": 69,
      "hit": false,
      "t": 148474.6999999998,
      "d": 2018.0101562500058,
      "v": 60
    },
    {
      "midi": 57,
      "hit": false,
      "t": 150508.5999999998,
      "d": 2018.0101562500058,
      "v": 60
    },
    {
      "midi": 61,
      "hit": false,
      "t": 150508.5999999998,
      "d": 2018.0101562500058,
      "v": 60
    },
    {
      "midi": 64,
      "hit": false,
      "t": 150508.5999999998,
      "d": 2018.0101562500058,
      "v": 60
    },
    {
      "midi": 68,
      "hit": false,
      "t": 150508.5999999998,
      "d": 2018.0101562500058,
      "v": 60
    },
    {
      "midi": 56,
      "hit": false,
      "t": 152542.4999999998,
      "d": 365.4664062499942,
      "v": 60
    },
    {
      "midi": 60,
      "hit": false,
      "t": 152542.4999999998,
      "d": 365.4664062499942,
      "v": 60
    },
    {
      "midi": 63,
      "hit": false,
      "t": 152542.4999999998,
      "d": 365.4664062499942,
      "v": 60
    },
    {
      "midi": 67,
      "hit": false,
      "t": 152542.4999999998,
      "d": 365.4664062499942,
      "v": 60
    },
    {
      "midi": 60,
      "hit": false,
      "t": 152923.85624999978,
      "d": 238.34765625,
      "v": 60
    },
    {
      "midi": 63,
      "hit": false,
      "t": 152923.85624999978,
      "d": 238.34765625,
      "v": 60
    },
    {
      "midi": 67,
      "hit": false,
      "t": 152923.85624999978,
      "d": 238.34765625,
      "v": 60
    },
    {
      "midi": 56,
      "hit": false,
      "t": 153305.2124999998,
      "d": 365.4664062499942,
      "v": 60
    },
    {
      "midi": 60,
      "hit": false,
      "t": 153305.2124999998,
      "d": 365.4664062499942,
      "v": 60
    },
    {
      "midi": 63,
      "hit": false,
      "t": 153305.2124999998,
      "d": 365.4664062499942,
      "v": 60
    },
    {
      "midi": 67,
      "hit": false,
      "t": 153305.2124999998,
      "d": 365.4664062499942,
      "v": 60
    },
    {
      "midi": 56,
      "hit": false,
      "t": 153813.6874999998,
      "d": 365.4664062499942,
      "v": 60
    },
    {
      "midi": 60,
      "hit": false,
      "t": 153813.6874999998,
      "d": 365.4664062499942,
      "v": 60
    },
    {
      "midi": 63,
      "hit": false,
      "t": 153813.6874999998,
      "d": 365.4664062499942,
      "v": 60
    },
    {
      "midi": 67,
      "hit": false,
      "t": 153813.6874999998,
      "d": 365.4664062499942,
      "v": 60
    },
    {
      "midi": 57,
      "hit": false,
      "t": 154195.04374999978,
      "d": 238.34765625,
      "v": 60
    },
    {
      "midi": 61,
      "hit": false,
      "t": 154195.04374999978,
      "d": 238.34765625,
      "v": 60
    },
    {
      "midi": 64,
      "hit": false,
      "t": 154195.04374999978,
      "d": 238.34765625,
      "v": 60
    },
    {
      "midi": 68,
      "hit": false,
      "t": 154195.04374999978,
      "d": 238.34765625,
      "v": 60
    },
    {
      "midi": 58,
      "hit": false,
      "t": 154576.3999999998,
      "d": 365.4664062499942,
      "v": 60
    },
    {
      "midi": 62,
      "hit": false,
      "t": 154576.3999999998,
      "d": 365.4664062499942,
      "v": 60
    },
    {
      "midi": 65,
      "hit": false,
      "t": 154576.3999999998,
      "d": 365.4664062499942,
      "v": 60
    },
    {
      "midi": 69,
      "hit": false,
      "t": 154576.3999999998,
      "d": 365.4664062499942,
      "v": 60
    },
    {
      "midi": 62,
      "hit": false,
      "t": 154957.75624999977,
      "d": 238.34765625,
      "v": 60
    },
    {
      "midi": 65,
      "hit": false,
      "t": 154957.75624999977,
      "d": 238.34765625,
      "v": 60
    },
    {
      "midi": 69,
      "hit": false,
      "t": 154957.75624999977,
      "d": 238.34765625,
      "v": 60
    },
    {
      "midi": 58,
      "hit": false,
      "t": 155339.11249999978,
      "d": 365.4664062499942,
      "v": 60
    },
    {
      "midi": 62,
      "hit": false,
      "t": 155339.11249999978,
      "d": 365.4664062499942,
      "v": 60
    },
    {
      "midi": 65,
      "hit": false,
      "t": 155339.11249999978,
      "d": 365.4664062499942,
      "v": 60
    },
    {
      "midi": 69,
      "hit": false,
      "t": 155339.11249999978,
      "d": 365.4664062499942,
      "v": 60
    },
    {
      "midi": 58,
      "hit": false,
      "t": 155847.5874999998,
      "d": 365.4664062499942,
      "v": 60
    },
    {
      "midi": 62,
      "hit": false,
      "t": 155847.5874999998,
      "d": 365.4664062499942,
      "v": 60
    },
    {
      "midi": 65,
      "hit": false,
      "t": 155847.5874999998,
      "d": 365.4664062499942,
      "v": 60
    },
    {
      "midi": 69,
      "hit": false,
      "t": 155847.5874999998,
      "d": 365.4664062499942,
      "v": 60
    },
    {
      "midi": 57,
      "hit": false,
      "t": 156228.94374999977,
      "d": 238.34765625,
      "v": 60
    },
    {
      "midi": 61,
      "hit": false,
      "t": 156228.94374999977,
      "d": 238.34765625,
      "v": 60
    },
    {
      "midi": 64,
      "hit": false,
      "t": 156228.94374999977,
      "d": 238.34765625,
      "v": 60
    },
    {
      "midi": 68,
      "hit": false,
      "t": 156228.94374999977,
      "d": 238.34765625,
      "v": 60
    },
    {
      "midi": 56,
      "hit": false,
      "t": 156610.29999999978,
      "d": 365.4664062499942,
      "v": 60
    },
    {
      "midi": 60,
      "hit": false,
      "t": 156610.29999999978,
      "d": 365.4664062499942,
      "v": 60
    },
    {
      "midi": 63,
      "hit": false,
      "t": 156610.29999999978,
      "d": 365.4664062499942,
      "v": 60
    },
    {
      "midi": 67,
      "hit": false,
      "t": 156610.29999999978,
      "d": 365.4664062499942,
      "v": 60
    },
    {
      "midi": 56,
      "hit": false,
      "t": 156991.65624999977,
      "d": 238.34765625,
      "v": 60
    },
    {
      "midi": 60,
      "hit": false,
      "t": 156991.65624999977,
      "d": 238.34765625,
      "v": 60
    },
    {
      "midi": 63,
      "hit": false,
      "t": 156991.65624999977,
      "d": 238.34765625,
      "v": 60
    },
    {
      "midi": 67,
      "hit": false,
      "t": 156991.65624999977,
      "d": 238.34765625,
      "v": 60
    },
    {
      "midi": 60,
      "hit": false,
      "t": 157373.01249999978,
      "d": 365.4664062499942,
      "v": 60
    },
    {
      "midi": 63,
      "hit": false,
      "t": 157373.01249999978,
      "d": 365.4664062499942,
      "v": 60
    },
    {
      "midi": 67,
      "hit": false,
      "t": 157373.01249999978,
      "d": 365.4664062499942,
      "v": 60
    },
    {
      "midi": 56,
      "hit": false,
      "t": 157881.48749999978,
      "d": 365.4664062499942,
      "v": 60
    },
    {
      "midi": 60,
      "hit": false,
      "t": 157881.48749999978,
      "d": 365.4664062499942,
      "v": 60
    },
    {
      "midi": 63,
      "hit": false,
      "t": 157881.48749999978,
      "d": 365.4664062499942,
      "v": 60
    },
    {
      "midi": 67,
      "hit": false,
      "t": 157881.48749999978,
      "d": 365.4664062499942,
      "v": 60
    },
    {
      "midi": 61,
      "hit": false,
      "t": 158262.84374999977,
      "d": 238.34765625,
      "v": 60
    },
    {
      "midi": 64,
      "hit": false,
      "t": 158262.84374999977,
      "d": 238.34765625,
      "v": 60
    },
    {
      "midi": 68,
      "hit": false,
      "t": 158262.84374999977,
      "d": 238.34765625,
      "v": 60
    },
    {
      "midi": 58,
      "hit": false,
      "t": 158644.19999999978,
      "d": 365.4664062499942,
      "v": 60
    },
    {
      "midi": 62,
      "hit": false,
      "t": 158644.19999999978,
      "d": 365.4664062499942,
      "v": 60
    },
    {
      "midi": 65,
      "hit": false,
      "t": 158644.19999999978,
      "d": 365.4664062499942,
      "v": 60
    },
    {
      "midi": 69,
      "hit": false,
      "t": 158644.19999999978,
      "d": 365.4664062499942,
      "v": 60
    },
    {
      "midi": 58,
      "hit": false,
      "t": 159025.55624999976,
      "d": 238.34765625,
      "v": 75
    },
    {
      "midi": 62,
      "hit": false,
      "t": 159025.55624999976,
      "d": 238.34765625,
      "v": 75
    },
    {
      "midi": 65,
      "hit": false,
      "t": 159025.55624999976,
      "d": 238.34765625,
      "v": 75
    },
    {
      "midi": 69,
      "hit": false,
      "t": 159025.55624999976,
      "d": 238.34765625,
      "v": 75
    },
    {
      "midi": 65,
      "hit": false,
      "t": 159406.91249999977,
      "d": 153.60182291668025,
      "v": 75
    },
    {
      "midi": 62,
      "hit": false,
      "t": 159406.91249999977,
      "d": 174.78828125001746,
      "v": 75
    },
    {
      "midi": 69,
      "hit": false,
      "t": 159406.91249999977,
      "d": 174.78828125001746,
      "v": 75
    },
    {
      "midi": 58,
      "hit": false,
      "t": 159406.91249999977,
      "d": 185.38151041668607,
      "v": 75
    },
    {
      "midi": 55,
      "hit": false,
      "t": 159915.38750000045,
      "d": 238.34765625,
      "v": 100
    },
    {
      "midi": 58,
      "hit": false,
      "t": 160169.62500000044,
      "d": 238.34765625,
      "v": 100
    },
    {
      "midi": 60,
      "hit": false,
      "t": 160423.86250000042,
      "d": 238.34765625,
      "v": 100
    },
    {
      "midi": 56,
      "hit": false,
      "t": 160678.0999999998,
      "d": 1001.0601562499942,
      "v": 60
    },
    {
      "midi": 60,
      "hit": false,
      "t": 160678.0999999998,
      "d": 1001.0601562499942,
      "v": 60
    },
    {
      "midi": 63,
      "hit": false,
      "t": 160678.0999999998,
      "d": 1001.0601562499942,
      "v": 60
    },
    {
      "midi": 63,
      "hit": false,
      "t": 160678.1000000004,
      "d": 365.4664062499942,
      "v": 100
    },
    {
      "midi": 56,
      "hit": false,
      "t": 161059.4562500004,
      "d": 238.34765625,
      "v": 100
    },
    {
      "midi": 56,
      "hit": false,
      "t": 161695.04999999978,
      "d": 1001.0601562499942,
      "v": 60
    },
    {
      "midi": 62,
      "hit": false,
      "t": 161695.04999999978,
      "d": 1001.0601562499942,
      "v": 60
    },
    {
      "midi": 65,
      "hit": false,
      "t": 161695.04999999978,
      "d": 1001.0601562499942,
      "v": 60
    },
    {
      "midi": 63,
      "hit": false,
      "t": 161949.28750000038,
      "d": 238.34765625,
      "v": 100
    },
    {
      "midi": 62,
      "hit": false,
      "t": 162203.52500000037,
      "d": 238.34765625,
      "v": 100
    },
    {
      "midi": 60,
      "hit": false,
      "t": 162457.76250000036,
      "d": 238.34765625,
      "v": 100
    },
    {
      "midi": 58,
      "hit": false,
      "t": 162711.99999999977,
      "d": 1001.0601562499942,
      "v": 60
    },
    {
      "midi": 62,
      "hit": false,
      "t": 162711.99999999977,
      "d": 1001.0601562499942,
      "v": 60
    },
    {
      "midi": 65,
      "hit": false,
      "t": 162711.99999999977,
      "d": 1001.0601562499942,
      "v": 60
    },
    {
      "midi": 62,
      "hit": false,
      "t": 162712.00000000035,
      "d": 365.4664062499942,
      "v": 100
    },
    {
      "midi": 55,
      "hit": false,
      "t": 163093.35625000033,
      "d": 238.34765625,
      "v": 100
    },
    {
      "midi": 55,
      "hit": false,
      "t": 163728.94999999975,
      "d": 1001.0601562499942,
      "v": 60
    },
    {
      "midi": 58,
      "hit": false,
      "t": 163728.94999999975,
      "d": 1001.0601562499942,
      "v": 60
    },
    {
      "midi": 62,
      "hit": false,
      "t": 163728.94999999975,
      "d": 1001.0601562499942,
      "v": 60
    },
    {
      "midi": 55,
      "hit": false,
      "t": 163983.18750000032,
      "d": 238.34765625,
      "v": 100
    },
    {
      "midi": 58,
      "hit": false,
      "t": 164237.4250000003,
      "d": 238.34765625,
      "v": 100
    },
    {
      "midi": 60,
      "hit": false,
      "t": 164491.6625000003,
      "d": 238.34765625,
      "v": 100
    },
    {
      "midi": 57,
      "hit": false,
      "t": 164745.89999999973,
      "d": 1001.0601562499942,
      "v": 60
    },
    {
      "midi": 60,
      "hit": false,
      "t": 164745.89999999973,
      "d": 1001.0601562499942,
      "v": 60
    },
    {
      "midi": 63,
      "hit": false,
      "t": 164745.89999999973,
      "d": 1001.0601562499942,
      "v": 60
    },
    {
      "midi": 62,
      "hit": false,
      "t": 164745.90000000029,
      "d": 238.34765625,
      "v": 100
    },
    {
      "midi": 63,
      "hit": false,
      "t": 165000.13750000027,
      "d": 238.34765625,
      "v": 100
    },
    {
      "midi": 62,
      "hit": false,
      "t": 165254.37500000026,
      "d": 238.34765625,
      "v": 100
    },
    {
      "midi": 63,
      "hit": false,
      "t": 165508.61250000025,
      "d": 111.22890625000582,
      "v": 100
    },
    {
      "midi": 62,
      "hit": false,
      "t": 165635.73125000024,
      "d": 619.7039062500116,
      "v": 100
    },
    {
      "midi": 57,
      "hit": false,
      "t": 165762.84999999971,
      "d": 1001.0601562499942,
      "v": 60
    },
    {
      "midi": 60,
      "hit": false,
      "t": 165762.84999999971,
      "d": 1001.0601562499942,
      "v": 60
    },
    {
      "midi": 62,
      "hit": false,
      "t": 165762.84999999971,
      "d": 1001.0601562499942,
      "v": 60
    },
    {
      "midi": 66,
      "hit": false,
      "t": 165762.84999999971,
      "d": 1001.0601562499942,
      "v": 60
    },
    {
      "midi": 57,
      "hit": false,
      "t": 166271.32500000024,
      "d": 238.34765625,
      "v": 100
    },
    {
      "midi": 54,
      "hit": false,
      "t": 166525.56250000023,
      "d": 111.22890625000582,
      "v": 100
    },
    {
      "midi": 57,
      "hit": false,
      "t": 166652.68125000023,
      "d": 365.4664062499942,
      "v": 100
    },
    {
      "midi": 55,
      "hit": false,
      "t": 166779.7999999997,
      "d": 1001.0601562499942,
      "v": 60
    },
    {
      "midi": 58,
      "hit": false,
      "t": 166779.7999999997,
      "d": 1001.0601562499942,
      "v": 60
    },
    {
      "midi": 62,
      "hit": false,
      "t": 166779.7999999997,
      "d": 1001.0601562499942,
      "v": 60
    },
    {
      "midi": 57,
      "hit": false,
      "t": 167034.0375000002,
      "d": 238.34765625,
      "v": 100
    },
    {
      "midi": 57,
      "hit": false,
      "t": 167288.2750000002,
      "d": 238.34765625,
      "v": 100
    },
    {
      "midi": 55,
      "hit": false,
      "t": 167542.5125000002,
      "d": 111.22890625000582,
      "v": 100
    },
    {
      "midi": 57,
      "hit": false,
      "t": 167669.63125000018,
      "d": 238.34765625,
      "v": 100
    },
    {
      "midi": 55,
      "hit": false,
      "t": 167796.74999999968,
      "d": 1001.0601562499942,
      "v": 60
    },
    {
      "midi": 58,
      "hit": false,
      "t": 167796.74999999968,
      "d": 1001.0601562499942,
      "v": 60
    },
    {
      "midi": 62,
      "hit": false,
      "t": 167796.74999999968,
      "d": 1001.0601562499942,
      "v": 60
    },
    {
      "midi": 55,
      "hit": false,
      "t": 168050.9875000002,
      "d": 238.34765625,
      "v": 100
    },
    {
      "midi": 58,
      "hit": false,
      "t": 168305.22500000018,
      "d": 238.34765625,
      "v": 100
    },
    {
      "midi": 60,
      "hit": false,
      "t": 168559.46250000017,
      "d": 238.34765625,
      "v": 100
    },
    {
      "midi": 56,
      "hit": false,
      "t": 168813.69999999966,
      "d": 1001.0601562499942,
      "v": 60
    },
    {
      "midi": 60,
      "hit": false,
      "t": 168813.69999999966,
      "d": 1001.0601562499942,
      "v": 60
    },
    {
      "midi": 63,
      "hit": false,
      "t": 168813.69999999966,
      "d": 1001.0601562499942,
      "v": 60
    },
    {
      "midi": 63,
      "hit": false,
      "t": 168813.70000000016,
      "d": 365.4664062499942,
      "v": 100
    },
    {
      "midi": 56,
      "hit": false,
      "t": 169195.05625000014,
      "d": 238.34765625,
      "v": 100
    },
    {
      "midi": 62,
      "hit": false,
      "t": 169830.64999999964,
      "d": 1001.0601562499942,
      "v": 60
    },
    {
      "midi": 65,
      "hit": false,
      "t": 169830.64999999964,
      "d": 1001.0601562499942,
      "v": 60
    },
    {
      "midi": 68,
      "hit": false,
      "t": 169830.64999999964,
      "d": 1001.0601562499942,
      "v": 60
    },
    {
      "midi": 63,
      "hit": false,
      "t": 170084.88750000013,
      "d": 238.34765625,
      "v": 100
    },
    {
      "midi": 62,
      "hit": false,
      "t": 170339.12500000012,
      "d": 238.34765625,
      "v": 100
    },
    {
      "midi": 60,
      "hit": false,
      "t": 170593.3625000001,
      "d": 238.34765625,
      "v": 100
    },
    {
      "midi": 58,
      "hit": false,
      "t": 170847.59999999963,
      "d": 1001.0601562499942,
      "v": 60
    },
    {
      "midi": 62,
      "hit": false,
      "t": 170847.59999999963,
      "d": 1001.0601562499942,
      "v": 60
    },
    {
      "midi": 67,
      "hit": false,
      "t": 170847.59999999963,
      "d": 1001.0601562499942,
      "v": 60
    },
    {
      "midi": 62,
      "hit": false,
      "t": 170847.6000000001,
      "d": 365.4664062499942,
      "v": 100
    },
    {
      "midi": 55,
      "hit": false,
      "t": 171228.95625000008,
      "d": 365.4664062499942,
      "v": 100
    },
    {
      "midi": 58,
      "hit": false,
      "t": 171864.5499999996,
      "d": 1001.0601562499942,
      "v": 60
    },
    {
      "midi": 62,
      "hit": false,
      "t": 171864.5499999996,
      "d": 1001.0601562499942,
      "v": 60
    },
    {
      "midi": 65,
      "hit": false,
      "t": 171864.5499999996,
      "d": 1001.0601562499942,
      "v": 60
    },
    {
      "midi": 55,
      "hit": false,
      "t": 172118.78750000006,
      "d": 238.34765625,
      "v": 100
    },
    {
      "midi": 58,
      "hit": false,
      "t": 172373.02500000005,
      "d": 238.34765625,
      "v": 100
    },
    {
      "midi": 60,
      "hit": false,
      "t": 172627.26250000004,
      "d": 238.34765625,
      "v": 100
    },
    {
      "midi": 55,
      "hit": false,
      "t": 172881.4999999996,
      "d": 1001.0601562499942,
      "v": 60
    },
    {
      "midi": 60,
      "hit": false,
      "t": 172881.4999999996,
      "d": 1001.0601562499942,
      "v": 60
    },
    {
      "midi": 63,
      "hit": false,
      "t": 172881.4999999996,
      "d": 1001.0601562499942,
      "v": 60
    },
    {
      "midi": 62,
      "hit": false,
      "t": 172881.50000000003,
      "d": 238.34765625,
      "v": 100
    },
    {
      "midi": 63,
      "hit": false,
      "t": 173135.73750000002,
      "d": 238.34765625,
      "v": 100
    },
    {
      "midi": 62,
      "hit": false,
      "t": 173389.975,
      "d": 111.22890625000582,
      "v": 100
    },
    {
      "midi": 63,
      "hit": false,
      "t": 173517.09375,
      "d": 238.34765625,
      "v": 100
    },
    {
      "midi": 62,
      "hit": false,
      "t": 173771.33125,
      "d": 619.7039062500116,
      "v": 100
    },
    {
      "midi": 54,
      "hit": false,
      "t": 173898.44999999958,
      "d": 1001.0601562499942,
      "v": 60
    },
    {
      "midi": 57,
      "hit": false,
      "t": 173898.44999999958,
      "d": 1001.0601562499942,
      "v": 60
    },
    {
      "midi": 60,
      "hit": false,
      "t": 173898.44999999958,
      "d": 1001.0601562499942,
      "v": 60
    },
    {
      "midi": 62,
      "hit": false,
      "t": 173898.44999999958,
      "d": 1001.0601562499942,
      "v": 60
    },
    {
      "midi": 58,
      "hit": false,
      "t": 174406.925,
      "d": 238.34765625,
      "v": 100
    },
    {
      "midi": 54,
      "hit": false,
      "t": 174661.16249999998,
      "d": 238.34765625,
      "v": 100
    },
    {
      "midi": 55,
      "hit": false,
      "t": 174915.39999999956,
      "d": 1001.0601562499942,
      "v": 60
    },
    {
      "midi": 58,
      "hit": false,
      "t": 174915.39999999956,
      "d": 1001.0601562499942,
      "v": 60
    },
    {
      "midi": 62,
      "hit": false,
      "t": 174915.39999999956,
      "d": 1001.0601562499942,
      "v": 60
    },
    {
      "midi": 55,
      "hit": false,
      "t": 174915.39999999997,
      "d": 238.34765625,
      "v": 100
    },
    {
      "midi": 57,
      "hit": false,
      "t": 175169.63749999995,
      "d": 238.34765625,
      "v": 100
    },
    {
      "midi": 58,
      "hit": false,
      "t": 175423.87499999994,
      "d": 111.22890625000582,
      "v": 100
    },
    {
      "midi": 60,
      "hit": false,
      "t": 175550.99374999994,
      "d": 238.34765625,
      "v": 100
    },
    {
      "midi": 62,
      "hit": false,
      "t": 175805.23124999992,
      "d": 365.4664062499942,
      "v": 100
    },
    {
      "midi": 58,
      "hit": false,
      "t": 175932.34999999954,
      "d": 1001.0601562499942,
      "v": 60
    },
    {
      "midi": 62,
      "hit": false,
      "t": 175932.34999999954,
      "d": 1001.0601562499942,
      "v": 60
    },
    {
      "midi": 67,
      "hit": false,
      "t": 175932.34999999954,
      "d": 1001.0601562499942,
      "v": 60
    },
    {
      "midi": 58,
      "hit": false,
      "t": 176186.5874999999,
      "d": 238.34765625,
      "v": 100
    },
    {
      "midi": 55,
      "hit": false,
      "t": 176440.8249999999,
      "d": 238.34765625,
      "v": 100
    },
    {
      "midi": 50,
      "hit": false,
      "t": 176695.06249999988,
      "d": 238.34765625,
      "v": 100
    },
    {
      "midi": 57,
      "hit": false,
      "t": 176949.29999999952,
      "d": 365.4664062499942,
      "v": 60
    },
    {
      "midi": 60,
      "hit": false,
      "t": 176949.29999999952,
      "d": 365.4664062499942,
      "v": 60
    },
    {
      "midi": 63,
      "hit": false,
      "t": 176949.29999999952,
      "d": 365.4664062499942,
      "v": 60
    },
    {
      "midi": 54,
      "hit": false,
      "t": 176949.29999999987,
      "d": 365.4664062499942,
      "v": 100
    },
    {
      "midi": 57,
      "hit": false,
      "t": 177330.6562499995,
      "d": 238.34765625,
      "v": 60
    },
    {
      "midi": 62,
      "hit": false,
      "t": 177330.6562499995,
      "d": 238.34765625,
      "v": 60
    },
    {
      "midi": 66,
      "hit": false,
      "t": 177330.6562499995,
      "d": 238.34765625,
      "v": 60
    },
    {
      "midi": 57,
      "hit": false,
      "t": 177330.65624999985,
      "d": 365.4664062499942,
      "v": 100
    },
    {
      "midi": 58,
      "hit": false,
      "t": 177712.01249999952,
      "d": 111.22890625000582,
      "v": 60
    },
    {
      "midi": 62,
      "hit": false,
      "t": 177712.01249999952,
      "d": 111.22890625000582,
      "v": 60
    },
    {
      "midi": 67,
      "hit": false,
      "t": 177712.01249999952,
      "d": 111.22890625000582,
      "v": 60
    },
    {
      "midi": 55,
      "hit": false,
      "t": 177712.01249999984,
      "d": 111.22890625000582,
      "v": 100
    },
    {
      "midi": 58,
      "hit": false,
      "t": 178220.48749999984,
      "d": 238.34765625,
      "v": 100
    },
    {
      "midi": 55,
      "hit": false,
      "t": 178474.72499999983,
      "d": 238.34765625,
      "v": 100
    },
    {
      "midi": 50,
      "hit": false,
      "t": 178728.96249999982,
      "d": 238.34765625,
      "v": 100
    },
    {
      "midi": 57,
      "hit": false,
      "t": 178983.19999999952,
      "d": 365.4664062499942,
      "v": 60
    },
    {
      "midi": 60,
      "hit": false,
      "t": 178983.19999999952,
      "d": 365.4664062499942,
      "v": 60
    },
    {
      "midi": 63,
      "hit": false,
      "t": 178983.19999999952,
      "d": 365.4664062499942,
      "v": 60
    },
    {
      "midi": 54,
      "hit": false,
      "t": 178983.1999999998,
      "d": 365.4664062499942,
      "v": 100
    },
    {
      "midi": 62,
      "hit": false,
      "t": 179364.5562499995,
      "d": 238.34765625,
      "v": 60
    },
    {
      "midi": 66,
      "hit": false,
      "t": 179364.5562499995,
      "d": 238.34765625,
      "v": 60
    },
    {
      "midi": 69,
      "hit": false,
      "t": 179364.5562499995,
      "d": 238.34765625,
      "v": 60
    },
    {
      "midi": 57,
      "hit": false,
      "t": 179364.5562499998,
      "d": 365.4664062499942,
      "v": 100
    },
    {
      "midi": 62,
      "hit": false,
      "t": 179745.9124999995,
      "d": 111.22890625000582,
      "v": 60
    },
    {
      "midi": 67,
      "hit": false,
      "t": 179745.9124999995,
      "d": 111.22890625000582,
      "v": 60
    },
    {
      "midi": 70,
      "hit": false,
      "t": 179745.9124999995,
      "d": 111.22890625000582,
      "v": 60
    },
    {
      "midi": 55,
      "hit": false,
      "t": 179745.91249999977,
      "d": 238.34765625,
      "v": 100
    },
    {
      "midi": 55,
      "hit": false,
      "t": 180508.62499999977,
      "d": 238.34765625,
      "v": 100
    },
    {
      "midi": 50,
      "hit": false,
      "t": 180762.86249999976,
      "d": 238.34765625,
      "v": 100
    },
    {
      "midi": 63,
      "hit": false,
      "t": 181017.0999999995,
      "d": 873.94140625,
      "v": 60
    },
    {
      "midi": 67,
      "hit": false,
      "t": 181017.0999999995,
      "d": 873.94140625,
      "v": 60
    },
    {
      "midi": 72,
      "hit": false,
      "t": 181017.0999999995,
      "d": 873.94140625,
      "v": 60
    },
    {
      "midi": 51,
      "hit": false,
      "t": 181017.09999999974,
      "d": 137.7119791666628,
      "v": 100
    },
    {
      "midi": 53,
      "hit": false,
      "t": 181186.5916666664,
      "d": 143.00859375001164,
      "v": 100
    },
    {
      "midi": 55,
      "hit": false,
      "t": 181356.08333333308,
      "d": 143.00859375001164,
      "v": 100
    },
    {
      "midi": 57,
      "hit": false,
      "t": 181525.57499999975,
      "d": 238.34765625,
      "v": 100
    },
    {
      "midi": 58,
      "hit": false,
      "t": 181779.81249999974,
      "d": 238.34765625,
      "v": 100
    },
    {
      "midi": 62,
      "hit": false,
      "t": 182034.04999999952,
      "d": 873.94140625,
      "v": 60
    },
    {
      "midi": 66,
      "hit": false,
      "t": 182034.04999999952,
      "d": 873.94140625,
      "v": 60
    },
    {
      "midi": 69,
      "hit": false,
      "t": 182034.04999999952,
      "d": 873.94140625,
      "v": 60
    },
    {
      "midi": 72,
      "hit": false,
      "t": 182034.04999999952,
      "d": 873.94140625,
      "v": 60
    },
    {
      "midi": 60,
      "hit": false,
      "t": 182034.04999999973,
      "d": 238.34765625,
      "v": 100
    },
    {
      "midi": 57,
      "hit": false,
      "t": 182288.28749999971,
      "d": 238.34765625,
      "v": 100
    },
    {
      "midi": 60,
      "hit": false,
      "t": 182542.5249999997,
      "d": 238.34765625,
      "v": 100
    },
    {
      "midi": 60,
      "hit": false,
      "t": 182796.7624999997,
      "d": 238.34765625,
      "v": 100
    },
    {
      "midi": 67,
      "hit": false,
      "t": 183050.99999999953,
      "d": 365.4664062499942,
      "v": 60
    },
    {
      "midi": 70,
      "hit": false,
      "t": 183050.99999999953,
      "d": 365.4664062499942,
      "v": 60
    },
    {
      "midi": 74,
      "hit": false,
      "t": 183050.99999999953,
      "d": 365.4664062499942,
      "v": 60
    },
    {
      "midi": 62,
      "hit": false,
      "t": 183050.99999999968,
      "d": 492.58515624998836,
      "v": 100
    },
    {
      "midi": 66,
      "hit": false,
      "t": 183559.47499999954,
      "d": 365.4664062499942,
      "v": 60
    },
    {
      "midi": 69,
      "hit": false,
      "t": 183559.47499999954,
      "d": 365.4664062499942,
      "v": 60
    },
    {
      "midi": 74,
      "hit": false,
      "t": 183559.47499999954,
      "d": 365.4664062499942,
      "v": 60
    },
    {
      "midi": 62,
      "hit": false,
      "t": 183559.47499999966,
      "d": 492.58515624998836,
      "v": 100
    },
    {
      "midi": 65,
      "hit": false,
      "t": 184067.94999999955,
      "d": 111.22890625000582,
      "v": 60
    },
    {
      "midi": 68,
      "hit": false,
      "t": 184067.94999999955,
      "d": 111.22890625000582,
      "v": 60
    },
    {
      "midi": 74,
      "hit": false,
      "t": 184067.94999999955,
      "d": 111.22890625000582,
      "v": 60
    },
    {
      "midi": 62,
      "hit": false,
      "t": 184067.94999999963,
      "d": 492.58515624998836,
      "v": 100
    },
    {
      "midi": 60,
      "hit": false,
      "t": 184576.4249999996,
      "d": 238.34765625,
      "v": 100
    },
    {
      "midi": 62,
      "hit": false,
      "t": 184830.6624999996,
      "d": 111.22890625000582,
      "v": 100
    },
    {
      "midi": 56,
      "hit": false,
      "t": 185084.89999999956,
      "d": 1001.0601562499942,
      "v": 60
    },
    {
      "midi": 60,
      "hit": false,
      "t": 185084.89999999956,
      "d": 1001.0601562499942,
      "v": 60
    },
    {
      "midi": 63,
      "hit": false,
      "t": 185084.89999999956,
      "d": 1001.0601562499942,
      "v": 60
    },
    {
      "midi": 63,
      "hit": false,
      "t": 185084.89999999962,
      "d": 365.4664062499942,
      "v": 100
    },
    {
      "midi": 56,
      "hit": false,
      "t": 185466.2562499996,
      "d": 238.34765625,
      "v": 100
    },
    {
      "midi": 56,
      "hit": false,
      "t": 186101.84999999954,
      "d": 1001.0601562499942,
      "v": 60
    },
    {
      "midi": 60,
      "hit": false,
      "t": 186101.84999999954,
      "d": 1001.0601562499942,
      "v": 60
    },
    {
      "midi": 65,
      "hit": false,
      "t": 186101.84999999954,
      "d": 1001.0601562499942,
      "v": 60
    },
    {
      "midi": 63,
      "hit": false,
      "t": 186356.0874999996,
      "d": 238.34765625,
      "v": 100
    },
    {
      "midi": 62,
      "hit": false,
      "t": 186610.32499999958,
      "d": 238.34765625,
      "v": 100
    },
    {
      "midi": 60,
      "hit": false,
      "t": 186864.56249999956,
      "d": 238.34765625,
      "v": 100
    },
    {
      "midi": 58,
      "hit": false,
      "t": 187118.79999999952,
      "d": 1001.0601562499942,
      "v": 60
    },
    {
      "midi": 62,
      "hit": false,
      "t": 187118.79999999952,
      "d": 1001.0601562499942,
      "v": 60
    },
    {
      "midi": 65,
      "hit": false,
      "t": 187118.79999999952,
      "d": 1001.0601562499942,
      "v": 60
    },
    {
      "midi": 62,
      "hit": false,
      "t": 187118.79999999955,
      "d": 365.4664062499942,
      "v": 100
    },
    {
      "midi": 55,
      "hit": false,
      "t": 187500.15624999953,
      "d": 365.4664062499942,
      "v": 100
    },
    {
      "midi": 55,
      "hit": false,
      "t": 188135.7499999995,
      "d": 1001.0601562499942,
      "v": 60
    },
    {
      "midi": 58,
      "hit": false,
      "t": 188135.7499999995,
      "d": 1001.0601562499942,
      "v": 60
    },
    {
      "midi": 62,
      "hit": false,
      "t": 188135.7499999995,
      "d": 1001.0601562499942,
      "v": 60
    },
    {
      "midi": 55,
      "hit": false,
      "t": 188898.46249999953,
      "d": 238.34765625,
      "v": 100
    },
    {
      "midi": 56,
      "hit": false,
      "t": 189152.6999999995,
      "d": 1001.0601562499942,
      "v": 60
    },
    {
      "midi": 60,
      "hit": false,
      "t": 189152.6999999995,
      "d": 1001.0601562499942,
      "v": 60
    },
    {
      "midi": 63,
      "hit": false,
      "t": 189152.6999999995,
      "d": 1001.0601562499942,
      "v": 60
    },
    {
      "midi": 56,
      "hit": false,
      "t": 189152.69999999952,
      "d": 365.4664062499942,
      "v": 100
    },
    {
      "midi": 58,
      "hit": false,
      "t": 189534.0562499995,
      "d": 365.4664062499942,
      "v": 100
    },
    {
      "midi": 60,
      "hit": false,
      "t": 189915.41249999948,
      "d": 238.34765625,
      "v": 100
    },
    {
      "midi": 60,
      "hit": false,
      "t": 190169.64999999947,
      "d": 1001.0601562499942,
      "v": 60
    },
    {
      "midi": 63,
      "hit": false,
      "t": 190169.64999999947,
      "d": 1001.0601562499942,
      "v": 60
    },
    {
      "midi": 65,
      "hit": false,
      "t": 190169.64999999947,
      "d": 1001.0601562499942,
      "v": 60
    },
    {
      "midi": 63,
      "hit": false,
      "t": 190169.64999999947,
      "d": 365.4664062499942,
      "v": 100
    },
    {
      "midi": 62,
      "hit": false,
      "t": 190551.00624999945,
      "d": 365.4664062499942,
      "v": 100
    },
    {
      "midi": 60,
      "hit": false,
      "t": 190932.36249999944,
      "d": 238.34765625,
      "v": 100
    },
    {
      "midi": 62,
      "hit": false,
      "t": 191186.59999999942,
      "d": 365.4664062499942,
      "v": 100
    },
    {
      "midi": 55,
      "hit": false,
      "t": 191186.59999999945,
      "d": 1001.0601562499942,
      "v": 60
    },
    {
      "midi": 58,
      "hit": false,
      "t": 191186.59999999945,
      "d": 1001.0601562499942,
      "v": 60
    },
    {
      "midi": 62,
      "hit": false,
      "t": 191186.59999999945,
      "d": 1001.0601562499942,
      "v": 60
    },
    {
      "midi": 55,
      "hit": false,
      "t": 191567.9562499994,
      "d": 365.4664062499942,
      "v": 100
    },
    {
      "midi": 62,
      "hit": false,
      "t": 192457.7874999994,
      "d": 492.58515624998836,
      "v": 100
    },
    {
      "midi": 58,
      "hit": false,
      "t": 192457.78749999945,
      "d": 365.4664062499942,
      "v": 60
    },
    {
      "midi": 62,
      "hit": false,
      "t": 192457.78749999945,
      "d": 365.4664062499942,
      "v": 60
    },
    {
      "midi": 65,
      "hit": false,
      "t": 192457.78749999945,
      "d": 365.4664062499942,
      "v": 60
    },
    {
      "midi": 60,
      "hit": false,
      "t": 192966.26249999937,
      "d": 238.34765625,
      "v": 100
    },
    {
      "midi": 60,
      "hit": false,
      "t": 192966.26249999946,
      "d": 254.23749999998836,
      "v": 60
    },
    {
      "midi": 58,
      "hit": false,
      "t": 192966.26249999946,
      "d": 365.4664062499942,
      "v": 60
    },
    {
      "midi": 64,
      "hit": false,
      "t": 192966.26249999946,
      "d": 365.4664062499942,
      "v": 60
    },
    {
      "midi": 63,
      "hit": false,
      "t": 193220.49999999936,
      "d": 365.4664062499942,
      "v": 100
    },
    {
      "midi": 60,
      "hit": false,
      "t": 193220.49999999945,
      "d": 111.22890625000582,
      "v": 60
    },
    {
      "midi": 56,
      "hit": false,
      "t": 193220.49999999945,
      "d": 1001.0601562499942,
      "v": 60
    },
    {
      "midi": 63,
      "hit": false,
      "t": 193220.49999999945,
      "d": 1001.0601562499942,
      "v": 60
    },
    {
      "midi": 56,
      "hit": false,
      "t": 193601.85624999934,
      "d": 365.4664062499942,
      "v": 100
    },
    {
      "midi": 60,
      "hit": false,
      "t": 194237.44999999943,
      "d": 1001.0601562499942,
      "v": 60
    },
    {
      "midi": 63,
      "hit": false,
      "t": 194237.44999999943,
      "d": 1001.0601562499942,
      "v": 60
    },
    {
      "midi": 65,
      "hit": false,
      "t": 194237.44999999943,
      "d": 1001.0601562499942,
      "v": 60
    },
    {
      "midi": 63,
      "hit": false,
      "t": 194491.68749999933,
      "d": 238.34765625,
      "v": 100
    },
    {
      "midi": 62,
      "hit": false,
      "t": 194745.92499999932,
      "d": 238.34765625,
      "v": 100
    },
    {
      "midi": 60,
      "hit": false,
      "t": 195000.1624999993,
      "d": 238.34765625,
      "v": 100
    },
    {
      "midi": 62,
      "hit": false,
      "t": 195254.3999999993,
      "d": 746.8226562500058,
      "v": 100
    },
    {
      "midi": 58,
      "hit": false,
      "t": 195254.3999999994,
      "d": 746.8226562500058,
      "v": 60
    },
    {
      "midi": 62,
      "hit": false,
      "t": 195254.3999999994,
      "d": 746.8226562500058,
      "v": 60
    },
    {
      "midi": 65,
      "hit": false,
      "t": 195254.3999999994,
      "d": 746.8226562500058,
      "v": 60
    },
    {
      "midi": 60,
      "hit": false,
      "t": 196017.1124999993,
      "d": 1001.0601562499942,
      "v": 100
    },
    {
      "midi": 58,
      "hit": false,
      "t": 196017.1124999994,
      "d": 1255.2976562500116,
      "v": 60
    },
    {
      "midi": 60,
      "hit": false,
      "t": 196017.1124999994,
      "d": 1255.2976562500116,
      "v": 60
    },
    {
      "midi": 64,
      "hit": false,
      "t": 196017.1124999994,
      "d": 1255.2976562500116,
      "v": 60
    },
    {
      "midi": 63,
      "hit": false,
      "t": 197288.2999999993,
      "d": 365.4664062499942,
      "v": 100
    },
    {
      "midi": 56,
      "hit": false,
      "t": 197288.2999999994,
      "d": 1001.0601562499942,
      "v": 60
    },
    {
      "midi": 60,
      "hit": false,
      "t": 197288.2999999994,
      "d": 1001.0601562499942,
      "v": 60
    },
    {
      "midi": 63,
      "hit": false,
      "t": 197288.2999999994,
      "d": 1001.0601562499942,
      "v": 60
    },
    {
      "midi": 62,
      "hit": false,
      "t": 197669.65624999927,
      "d": 365.4664062499942,
      "v": 100
    },
    {
      "midi": 63,
      "hit": false,
      "t": 198051.01249999925,
      "d": 238.34765625,
      "v": 100
    },
    {
      "midi": 62,
      "hit": false,
      "t": 198305.24999999924,
      "d": 365.4664062499942,
      "v": 100
    },
    {
      "midi": 56,
      "hit": false,
      "t": 198305.2499999994,
      "d": 1001.0601562499942,
      "v": 60
    },
    {
      "midi": 58,
      "hit": false,
      "t": 198305.2499999994,
      "d": 1001.0601562499942,
      "v": 60
    },
    {
      "midi": 62,
      "hit": false,
      "t": 198305.2499999994,
      "d": 1001.0601562499942,
      "v": 60
    },
    {
      "midi": 60,
      "hit": false,
      "t": 198686.60624999923,
      "d": 365.4664062499942,
      "v": 100
    },
    {
      "midi": 62,
      "hit": false,
      "t": 199067.9624999992,
      "d": 238.34765625,
      "v": 100
    },
    {
      "midi": 60,
      "hit": false,
      "t": 199322.1999999992,
      "d": 365.4664062499942,
      "v": 100
    },
    {
      "midi": 58,
      "hit": false,
      "t": 199322.19999999937,
      "d": 1001.0601562499942,
      "v": 60
    },
    {
      "midi": 62,
      "hit": false,
      "t": 199322.19999999937,
      "d": 1001.0601562499942,
      "v": 60
    },
    {
      "midi": 65,
      "hit": false,
      "t": 199322.19999999937,
      "d": 1001.0601562499942,
      "v": 60
    },
    {
      "midi": 58,
      "hit": false,
      "t": 199703.55624999918,
      "d": 365.4664062499942,
      "v": 100
    },
    {
      "midi": 60,
      "hit": false,
      "t": 200084.91249999916,
      "d": 238.34765625,
      "v": 100
    },
    {
      "midi": 62,
      "hit": false,
      "t": 200339.14999999915,
      "d": 238.34765625,
      "v": 100
    },
    {
      "midi": 58,
      "hit": false,
      "t": 200339.14999999935,
      "d": 873.94140625,
      "v": 60
    },
    {
      "midi": 60,
      "hit": false,
      "t": 200339.14999999935,
      "d": 873.94140625,
      "v": 60
    },
    {
      "midi": 64,
      "hit": false,
      "t": 200339.14999999935,
      "d": 873.94140625,
      "v": 60
    },
    {
      "midi": 58,
      "hit": false,
      "t": 200593.38749999914,
      "d": 238.34765625,
      "v": 100
    },
    {
      "midi": 60,
      "hit": false,
      "t": 200847.62499999913,
      "d": 238.34765625,
      "v": 100
    },
    {
      "midi": 62,
      "hit": false,
      "t": 201101.86249999912,
      "d": 238.34765625,
      "v": 100
    },
    {
      "midi": 63,
      "hit": false,
      "t": 201356.0999999991,
      "d": 746.8226562500058,
      "v": 100
    },
    {
      "midi": 41,
      "hit": false,
      "t": 201356.09999999937,
      "d": 111.22890625000582,
      "v": 60
    },
    {
      "midi": 43,
      "hit": false,
      "t": 201610.33749999938,
      "d": 111.22890625000582,
      "v": 60
    },
    {
      "midi": 44,
      "hit": false,
      "t": 201864.5749999994,
      "d": 111.22890625000582,
      "v": 60
    },
    {
      "midi": 60,
      "hit": false,
      "t": 202118.8124999991,
      "d": 1255.2976562500116,
      "v": 100
    },
    {
      "midi": 45,
      "hit": false,
      "t": 202118.81249999942,
      "d": 111.22890625000582,
      "v": 60
    },
    {
      "midi": 46,
      "hit": false,
      "t": 202373.04999999944,
      "d": 111.22890625000582,
      "v": 60
    },
    {
      "midi": 47,
      "hit": false,
      "t": 202627.28749999945,
      "d": 111.22890625000582,
      "v": 60
    },
    {
      "midi": 48,
      "hit": false,
      "t": 202881.52499999947,
      "d": 111.22890625000582,
      "v": 60
    },
    {
      "midi": 49,
      "hit": false,
      "t": 203135.7624999995,
      "d": 111.22890625000582,
      "v": 60
    },
    {
      "midi": 50,
      "hit": false,
      "t": 203389.9999999995,
      "d": 2018.0101562500058,
      "v": 60
    },
    {
      "midi": 74,
      "hit": false,
      "t": 203389.9999999995,
      "d": 2018.0101562500058,
      "v": 60
    },
    {
      "midi": 55,
      "hit": false,
      "t": 204152.71249999912,
      "d": 492.58515624998836,
      "v": 100
    },
    {
      "midi": 54,
      "hit": false,
      "t": 204661.1874999991,
      "d": 492.58515624998836,
      "v": 100
    },
    {
      "midi": 51,
      "hit": false,
      "t": 205169.66249999907,
      "d": 238.34765625,
      "v": 100
    },
    {
      "midi": 50,
      "hit": false,
      "t": 205423.89999999906,
      "d": 1763.7726562499884,
      "v": 100
    },
    {
      "midi": 62,
      "hit": false,
      "t": 205423.8999999995,
      "d": 365.4664062499942,
      "v": 60
    },
    {
      "midi": 65,
      "hit": false,
      "t": 205423.8999999995,
      "d": 365.4664062499942,
      "v": 60
    },
    {
      "midi": 67,
      "hit": false,
      "t": 205423.8999999995,
      "d": 365.4664062499942,
      "v": 60
    },
    {
      "midi": 70,
      "hit": false,
      "t": 205423.8999999995,
      "d": 365.4664062499942,
      "v": 60
    },
    {
      "midi": 62,
      "hit": false,
      "t": 205805.25624999948,
      "d": 238.34765625,
      "v": 60
    },
    {
      "midi": 65,
      "hit": false,
      "t": 205805.25624999948,
      "d": 238.34765625,
      "v": 60
    },
    {
      "midi": 67,
      "hit": false,
      "t": 205805.25624999948,
      "d": 238.34765625,
      "v": 60
    },
    {
      "midi": 70,
      "hit": false,
      "t": 205805.25624999948,
      "d": 238.34765625,
      "v": 60
    },
    {
      "midi": 62,
      "hit": false,
      "t": 206186.6124999995,
      "d": 365.4664062499942,
      "v": 60
    },
    {
      "midi": 65,
      "hit": false,
      "t": 206186.6124999995,
      "d": 365.4664062499942,
      "v": 60
    },
    {
      "midi": 67,
      "hit": false,
      "t": 206186.6124999995,
      "d": 365.4664062499942,
      "v": 60
    },
    {
      "midi": 70,
      "hit": false,
      "t": 206186.6124999995,
      "d": 365.4664062499942,
      "v": 60
    },
    {
      "midi": 65,
      "hit": false,
      "t": 206695.0874999995,
      "d": 365.4664062499942,
      "v": 60
    },
    {
      "midi": 67,
      "hit": false,
      "t": 206695.0874999995,
      "d": 365.4664062499942,
      "v": 60
    },
    {
      "midi": 70,
      "hit": false,
      "t": 206695.0874999995,
      "d": 365.4664062499942,
      "v": 60
    },
    {
      "midi": 74,
      "hit": false,
      "t": 206695.0874999995,
      "d": 365.4664062499942,
      "v": 60
    },
    {
      "midi": 64,
      "hit": false,
      "t": 207076.44374999948,
      "d": 238.34765625,
      "v": 60
    },
    {
      "midi": 66,
      "hit": false,
      "t": 207076.44374999948,
      "d": 238.34765625,
      "v": 60
    },
    {
      "midi": 69,
      "hit": false,
      "t": 207076.44374999948,
      "d": 238.34765625,
      "v": 60
    },
    {
      "midi": 73,
      "hit": false,
      "t": 207076.44374999948,
      "d": 238.34765625,
      "v": 60
    },
    {
      "midi": 63,
      "hit": false,
      "t": 207457.7999999995,
      "d": 365.4664062499942,
      "v": 60
    },
    {
      "midi": 65,
      "hit": false,
      "t": 207457.7999999995,
      "d": 365.4664062499942,
      "v": 60
    },
    {
      "midi": 68,
      "hit": false,
      "t": 207457.7999999995,
      "d": 365.4664062499942,
      "v": 60
    },
    {
      "midi": 72,
      "hit": false,
      "t": 207457.7999999995,
      "d": 365.4664062499942,
      "v": 60
    },
    {
      "midi": 63,
      "hit": false,
      "t": 207839.15624999948,
      "d": 238.34765625,
      "v": 60
    },
    {
      "midi": 65,
      "hit": false,
      "t": 207839.15624999948,
      "d": 238.34765625,
      "v": 60
    },
    {
      "midi": 68,
      "hit": false,
      "t": 207839.15624999948,
      "d": 238.34765625,
      "v": 60
    },
    {
      "midi": 72,
      "hit": false,
      "t": 207839.15624999948,
      "d": 238.34765625,
      "v": 60
    },
    {
      "midi": 55,
      "hit": false,
      "t": 207966.27499999906,
      "d": 492.58515624998836,
      "v": 100
    },
    {
      "midi": 63,
      "hit": false,
      "t": 208220.5124999995,
      "d": 365.4664062499942,
      "v": 60
    },
    {
      "midi": 65,
      "hit": false,
      "t": 208220.5124999995,
      "d": 365.4664062499942,
      "v": 60
    },
    {
      "midi": 68,
      "hit": false,
      "t": 208220.5124999995,
      "d": 365.4664062499942,
      "v": 60
    },
    {
      "midi": 72,
      "hit": false,
      "t": 208220.5124999995,
      "d": 365.4664062499942,
      "v": 60
    },
    {
      "midi": 53,
      "hit": false,
      "t": 208474.74999999904,
      "d": 492.58515624998836,
      "v": 100
    },
    {
      "midi": 63,
      "hit": false,
      "t": 208728.9874999995,
      "d": 365.4664062499942,
      "v": 60
    },
    {
      "midi": 65,
      "hit": false,
      "t": 208728.9874999995,
      "d": 365.4664062499942,
      "v": 60
    },
    {
      "midi": 68,
      "hit": false,
      "t": 208728.9874999995,
      "d": 365.4664062499942,
      "v": 60
    },
    {
      "midi": 72,
      "hit": false,
      "t": 208728.9874999995,
      "d": 365.4664062499942,
      "v": 60
    },
    {
      "midi": 51,
      "hit": false,
      "t": 208983.22499999902,
      "d": 492.58515624998836,
      "v": 100
    },
    {
      "midi": 64,
      "hit": false,
      "t": 209110.34374999948,
      "d": 238.34765625,
      "v": 60
    },
    {
      "midi": 66,
      "hit": false,
      "t": 209110.34374999948,
      "d": 238.34765625,
      "v": 60
    },
    {
      "midi": 69,
      "hit": false,
      "t": 209110.34374999948,
      "d": 238.34765625,
      "v": 60
    },
    {
      "midi": 73,
      "hit": false,
      "t": 209110.34374999948,
      "d": 238.34765625,
      "v": 60
    },
    {
      "midi": 50,
      "hit": false,
      "t": 209491.699999999,
      "d": 1763.7726562499884,
      "v": 100
    },
    {
      "midi": 62,
      "hit": false,
      "t": 209491.6999999995,
      "d": 365.4664062499942,
      "v": 60
    },
    {
      "midi": 65,
      "hit": false,
      "t": 209491.6999999995,
      "d": 365.4664062499942,
      "v": 60
    },
    {
      "midi": 67,
      "hit": false,
      "t": 209491.6999999995,
      "d": 365.4664062499942,
      "v": 60
    },
    {
      "midi": 70,
      "hit": false,
      "t": 209491.6999999995,
      "d": 365.4664062499942,
      "v": 60
    },
    {
      "midi": 62,
      "hit": false,
      "t": 209873.05624999947,
      "d": 238.34765625,
      "v": 60
    },
    {
      "midi": 65,
      "hit": false,
      "t": 209873.05624999947,
      "d": 238.34765625,
      "v": 60
    },
    {
      "midi": 67,
      "hit": false,
      "t": 209873.05624999947,
      "d": 238.34765625,
      "v": 60
    },
    {
      "midi": 70,
      "hit": false,
      "t": 209873.05624999947,
      "d": 238.34765625,
      "v": 60
    },
    {
      "midi": 62,
      "hit": false,
      "t": 210254.41249999948,
      "d": 365.4664062499942,
      "v": 60
    },
    {
      "midi": 65,
      "hit": false,
      "t": 210254.41249999948,
      "d": 365.4664062499942,
      "v": 60
    },
    {
      "midi": 67,
      "hit": false,
      "t": 210254.41249999948,
      "d": 365.4664062499942,
      "v": 60
    },
    {
      "midi": 70,
      "hit": false,
      "t": 210254.41249999948,
      "d": 365.4664062499942,
      "v": 60
    },
    {
      "midi": 65,
      "hit": false,
      "t": 210762.8874999995,
      "d": 365.4664062499942,
      "v": 60
    },
    {
      "midi": 67,
      "hit": false,
      "t": 210762.8874999995,
      "d": 365.4664062499942,
      "v": 60
    },
    {
      "midi": 70,
      "hit": false,
      "t": 210762.8874999995,
      "d": 365.4664062499942,
      "v": 60
    },
    {
      "midi": 74,
      "hit": false,
      "t": 210762.8874999995,
      "d": 365.4664062499942,
      "v": 60
    },
    {
      "midi": 64,
      "hit": false,
      "t": 211144.24374999947,
      "d": 238.34765625,
      "v": 60
    },
    {
      "midi": 66,
      "hit": false,
      "t": 211144.24374999947,
      "d": 238.34765625,
      "v": 60
    },
    {
      "midi": 69,
      "hit": false,
      "t": 211144.24374999947,
      "d": 238.34765625,
      "v": 60
    },
    {
      "midi": 73,
      "hit": false,
      "t": 211144.24374999947,
      "d": 238.34765625,
      "v": 60
    },
    {
      "midi": 63,
      "hit": false,
      "t": 211525.59999999948,
      "d": 365.4664062499942,
      "v": 60
    },
    {
      "midi": 65,
      "hit": false,
      "t": 211525.59999999948,
      "d": 365.4664062499942,
      "v": 60
    },
    {
      "midi": 68,
      "hit": false,
      "t": 211525.59999999948,
      "d": 365.4664062499942,
      "v": 60
    },
    {
      "midi": 72,
      "hit": false,
      "t": 211525.59999999948,
      "d": 365.4664062499942,
      "v": 60
    },
    {
      "midi": 63,
      "hit": false,
      "t": 211906.95624999946,
      "d": 238.34765625,
      "v": 60
    },
    {
      "midi": 65,
      "hit": false,
      "t": 211906.95624999946,
      "d": 238.34765625,
      "v": 60
    },
    {
      "midi": 68,
      "hit": false,
      "t": 211906.95624999946,
      "d": 238.34765625,
      "v": 60
    },
    {
      "midi": 72,
      "hit": false,
      "t": 211906.95624999946,
      "d": 238.34765625,
      "v": 60
    },
    {
      "midi": 63,
      "hit": false,
      "t": 212288.31249999948,
      "d": 365.4664062499942,
      "v": 60
    },
    {
      "midi": 65,
      "hit": false,
      "t": 212288.31249999948,
      "d": 365.4664062499942,
      "v": 60
    },
    {
      "midi": 68,
      "hit": false,
      "t": 212288.31249999948,
      "d": 365.4664062499942,
      "v": 60
    },
    {
      "midi": 72,
      "hit": false,
      "t": 212288.31249999948,
      "d": 365.4664062499942,
      "v": 60
    },
    {
      "midi": 63,
      "hit": false,
      "t": 212796.78749999948,
      "d": 365.4664062499942,
      "v": 60
    },
    {
      "midi": 65,
      "hit": false,
      "t": 212796.78749999948,
      "d": 365.4664062499942,
      "v": 60
    },
    {
      "midi": 68,
      "hit": false,
      "t": 212796.78749999948,
      "d": 365.4664062499942,
      "v": 60
    },
    {
      "midi": 72,
      "hit": false,
      "t": 212796.78749999948,
      "d": 365.4664062499942,
      "v": 60
    },
    {
      "midi": 64,
      "hit": false,
      "t": 213178.14374999946,
      "d": 238.34765625,
      "v": 60
    },
    {
      "midi": 66,
      "hit": false,
      "t": 213178.14374999946,
      "d": 238.34765625,
      "v": 60
    },
    {
      "midi": 69,
      "hit": false,
      "t": 213178.14374999946,
      "d": 238.34765625,
      "v": 60
    },
    {
      "midi": 73,
      "hit": false,
      "t": 213178.14374999946,
      "d": 238.34765625,
      "v": 60
    },
    {
      "midi": 62,
      "hit": false,
      "t": 213559.49999999948,
      "d": 365.4664062499942,
      "v": 60
    },
    {
      "midi": 65,
      "hit": false,
      "t": 213559.49999999948,
      "d": 365.4664062499942,
      "v": 60
    },
    {
      "midi": 67,
      "hit": false,
      "t": 213559.49999999948,
      "d": 365.4664062499942,
      "v": 60
    },
    {
      "midi": 70,
      "hit": false,
      "t": 213559.49999999948,
      "d": 365.4664062499942,
      "v": 60
    },
    {
      "midi": 62,
      "hit": false,
      "t": 213940.85624999946,
      "d": 238.34765625,
      "v": 60
    },
    {
      "midi": 65,
      "hit": false,
      "t": 213940.85624999946,
      "d": 238.34765625,
      "v": 60
    },
    {
      "midi": 67,
      "hit": false,
      "t": 213940.85624999946,
      "d": 238.34765625,
      "v": 60
    },
    {
      "midi": 70,
      "hit": false,
      "t": 213940.85624999946,
      "d": 238.34765625,
      "v": 60
    },
    {
      "midi": 62,
      "hit": false,
      "t": 214322.21249999947,
      "d": 365.4664062499942,
      "v": 60
    },
    {
      "midi": 65,
      "hit": false,
      "t": 214322.21249999947,
      "d": 365.4664062499942,
      "v": 60
    },
    {
      "midi": 67,
      "hit": false,
      "t": 214322.21249999947,
      "d": 365.4664062499942,
      "v": 60
    },
    {
      "midi": 70,
      "hit": false,
      "t": 214322.21249999947,
      "d": 365.4664062499942,
      "v": 60
    },
    {
      "midi": 65,
      "hit": false,
      "t": 214830.68749999948,
      "d": 365.4664062499942,
      "v": 60
    },
    {
      "midi": 67,
      "hit": false,
      "t": 214830.68749999948,
      "d": 365.4664062499942,
      "v": 60
    },
    {
      "midi": 70,
      "hit": false,
      "t": 214830.68749999948,
      "d": 365.4664062499942,
      "v": 60
    },
    {
      "midi": 74,
      "hit": false,
      "t": 214830.68749999948,
      "d": 365.4664062499942,
      "v": 60
    },
    {
      "midi": 64,
      "hit": false,
      "t": 215212.04374999946,
      "d": 238.34765625,
      "v": 60
    },
    {
      "midi": 66,
      "hit": false,
      "t": 215212.04374999946,
      "d": 238.34765625,
      "v": 60
    },
    {
      "midi": 69,
      "hit": false,
      "t": 215212.04374999946,
      "d": 238.34765625,
      "v": 60
    },
    {
      "midi": 73,
      "hit": false,
      "t": 215212.04374999946,
      "d": 238.34765625,
      "v": 60
    },
    {
      "midi": 63,
      "hit": false,
      "t": 215593.39999999947,
      "d": 365.4664062499942,
      "v": 60
    },
    {
      "midi": 65,
      "hit": false,
      "t": 215593.39999999947,
      "d": 365.4664062499942,
      "v": 60
    },
    {
      "midi": 68,
      "hit": false,
      "t": 215593.39999999947,
      "d": 365.4664062499942,
      "v": 60
    },
    {
      "midi": 72,
      "hit": false,
      "t": 215593.39999999947,
      "d": 365.4664062499942,
      "v": 60
    },
    {
      "midi": 63,
      "hit": false,
      "t": 215974.75624999945,
      "d": 238.34765625,
      "v": 60
    },
    {
      "midi": 65,
      "hit": false,
      "t": 215974.75624999945,
      "d": 238.34765625,
      "v": 60
    },
    {
      "midi": 68,
      "hit": false,
      "t": 215974.75624999945,
      "d": 238.34765625,
      "v": 60
    },
    {
      "midi": 72,
      "hit": false,
      "t": 215974.75624999945,
      "d": 238.34765625,
      "v": 60
    },
    {
      "midi": 63,
      "hit": false,
      "t": 216356.11249999946,
      "d": 365.4664062499942,
      "v": 60
    },
    {
      "midi": 65,
      "hit": false,
      "t": 216356.11249999946,
      "d": 365.4664062499942,
      "v": 60
    },
    {
      "midi": 68,
      "hit": false,
      "t": 216356.11249999946,
      "d": 365.4664062499942,
      "v": 60
    },
    {
      "midi": 72,
      "hit": false,
      "t": 216356.11249999946,
      "d": 365.4664062499942,
      "v": 60
    },
    {
      "midi": 72,
      "hit": false,
      "t": 216610.35000000003,
      "d": 116.52552083332557,
      "v": 60
    },
    {
      "midi": 77,
      "hit": false,
      "t": 216610.35000000003,
      "d": 116.52552083332557,
      "v": 60
    },
    {
      "midi": 70,
      "hit": false,
      "t": 216737.46875000003,
      "d": 116.52552083332557,
      "v": 60
    },
    {
      "midi": 75,
      "hit": false,
      "t": 216737.46875000003,
      "d": 116.52552083332557,
      "v": 60
    },
    {
      "midi": 63,
      "hit": false,
      "t": 216864.58749999947,
      "d": 365.4664062499942,
      "v": 60
    },
    {
      "midi": 65,
      "hit": false,
      "t": 216864.58749999947,
      "d": 365.4664062499942,
      "v": 60
    },
    {
      "midi": 68,
      "hit": false,
      "t": 216864.58749999947,
      "d": 365.4664062499942,
      "v": 60
    },
    {
      "midi": 72,
      "hit": false,
      "t": 216864.58749999947,
      "d": 365.4664062499942,
      "v": 60
    },
    {
      "midi": 67,
      "hit": false,
      "t": 216864.58750000002,
      "d": 116.52552083332557,
      "v": 60
    },
    {
      "midi": 72,
      "hit": false,
      "t": 216864.58750000002,
      "d": 116.52552083332557,
      "v": 60
    },
    {
      "midi": 70,
      "hit": false,
      "t": 216991.70625000002,
      "d": 116.52552083332557,
      "v": 60
    },
    {
      "midi": 75,
      "hit": false,
      "t": 216991.70625000002,
      "d": 116.52552083332557,
      "v": 60
    },
    {
      "midi": 72,
      "hit": false,
      "t": 217118.825,
      "d": 116.52552083332557,
      "v": 60
    },
    {
      "midi": 77,
      "hit": false,
      "t": 217118.825,
      "d": 116.52552083332557,
      "v": 60
    },
    {
      "midi": 64,
      "hit": false,
      "t": 217245.94374999945,
      "d": 238.34765625,
      "v": 60
    },
    {
      "midi": 66,
      "hit": false,
      "t": 217245.94374999945,
      "d": 238.34765625,
      "v": 60
    },
    {
      "midi": 69,
      "hit": false,
      "t": 217245.94374999945,
      "d": 238.34765625,
      "v": 60
    },
    {
      "midi": 73,
      "hit": false,
      "t": 217245.94374999945,
      "d": 238.34765625,
      "v": 60
    },
    {
      "midi": 62,
      "hit": false,
      "t": 217627.29999999946,
      "d": 365.4664062499942,
      "v": 60
    },
    {
      "midi": 65,
      "hit": false,
      "t": 217627.29999999946,
      "d": 365.4664062499942,
      "v": 60
    },
    {
      "midi": 67,
      "hit": false,
      "t": 217627.29999999946,
      "d": 365.4664062499942,
      "v": 60
    },
    {
      "midi": 70,
      "hit": false,
      "t": 217627.29999999946,
      "d": 365.4664062499942,
      "v": 60
    },
    {
      "midi": 62,
      "hit": false,
      "t": 218008.65624999945,
      "d": 238.34765625,
      "v": 60
    },
    {
      "midi": 65,
      "hit": false,
      "t": 218008.65624999945,
      "d": 238.34765625,
      "v": 60
    },
    {
      "midi": 67,
      "hit": false,
      "t": 218008.65624999945,
      "d": 238.34765625,
      "v": 60
    },
    {
      "midi": 70,
      "hit": false,
      "t": 218008.65624999945,
      "d": 238.34765625,
      "v": 60
    },
    {
      "midi": 62,
      "hit": false,
      "t": 218390.01249999946,
      "d": 365.4664062499942,
      "v": 60
    },
    {
      "midi": 65,
      "hit": false,
      "t": 218390.01249999946,
      "d": 365.4664062499942,
      "v": 60
    },
    {
      "midi": 67,
      "hit": false,
      "t": 218390.01249999946,
      "d": 365.4664062499942,
      "v": 60
    },
    {
      "midi": 70,
      "hit": false,
      "t": 218390.01249999946,
      "d": 365.4664062499942,
      "v": 60
    },
    {
      "midi": 74,
      "hit": false,
      "t": 218644.25,
      "d": 116.52552083332557,
      "v": 60
    },
    {
      "midi": 79,
      "hit": false,
      "t": 218644.25,
      "d": 116.52552083332557,
      "v": 60
    },
    {
      "midi": 72,
      "hit": false,
      "t": 218771.36875,
      "d": 116.52552083332557,
      "v": 60
    },
    {
      "midi": 77,
      "hit": false,
      "t": 218771.36875,
      "d": 116.52552083332557,
      "v": 60
    },
    {
      "midi": 65,
      "hit": false,
      "t": 218898.48749999946,
      "d": 365.4664062499942,
      "v": 60
    },
    {
      "midi": 67,
      "hit": false,
      "t": 218898.48749999946,
      "d": 365.4664062499942,
      "v": 60
    },
    {
      "midi": 70,
      "hit": false,
      "t": 218898.48749999946,
      "d": 365.4664062499942,
      "v": 60
    },
    {
      "midi": 74,
      "hit": false,
      "t": 218898.48749999946,
      "d": 365.4664062499942,
      "v": 60
    },
    {
      "midi": 69,
      "hit": false,
      "t": 218898.4875,
      "d": 116.52552083332557,
      "v": 60
    },
    {
      "midi": 74,
      "hit": false,
      "t": 218898.4875,
      "d": 116.52552083332557,
      "v": 60
    },
    {
      "midi": 72,
      "hit": false,
      "t": 219025.60624999998,
      "d": 116.52552083332557,
      "v": 60
    },
    {
      "midi": 77,
      "hit": false,
      "t": 219025.60624999998,
      "d": 116.52552083332557,
      "v": 60
    },
    {
      "midi": 74,
      "hit": false,
      "t": 219152.72499999998,
      "d": 116.52552083332557,
      "v": 60
    },
    {
      "midi": 79,
      "hit": false,
      "t": 219152.72499999998,
      "d": 116.52552083332557,
      "v": 60
    },
    {
      "midi": 64,
      "hit": false,
      "t": 219279.84374999945,
      "d": 238.34765625,
      "v": 60
    },
    {
      "midi": 66,
      "hit": false,
      "t": 219279.84374999945,
      "d": 238.34765625,
      "v": 60
    },
    {
      "midi": 69,
      "hit": false,
      "t": 219279.84374999945,
      "d": 238.34765625,
      "v": 60
    },
    {
      "midi": 73,
      "hit": false,
      "t": 219279.84374999945,
      "d": 238.34765625,
      "v": 60
    },
    {
      "midi": 63,
      "hit": false,
      "t": 219661.19999999946,
      "d": 365.4664062499942,
      "v": 60
    },
    {
      "midi": 65,
      "hit": false,
      "t": 219661.19999999946,
      "d": 365.4664062499942,
      "v": 60
    },
    {
      "midi": 68,
      "hit": false,
      "t": 219661.19999999946,
      "d": 365.4664062499942,
      "v": 60
    },
    {
      "midi": 72,
      "hit": false,
      "t": 219661.19999999946,
      "d": 365.4664062499942,
      "v": 60
    },
    {
      "midi": 63,
      "hit": false,
      "t": 220042.55624999944,
      "d": 238.34765625,
      "v": 60
    },
    {
      "midi": 65,
      "hit": false,
      "t": 220042.55624999944,
      "d": 238.34765625,
      "v": 60
    },
    {
      "midi": 68,
      "hit": false,
      "t": 220042.55624999944,
      "d": 238.34765625,
      "v": 60
    },
    {
      "midi": 72,
      "hit": false,
      "t": 220042.55624999944,
      "d": 238.34765625,
      "v": 60
    },
    {
      "midi": 63,
      "hit": false,
      "t": 220423.91249999945,
      "d": 365.4664062499942,
      "v": 60
    },
    {
      "midi": 65,
      "hit": false,
      "t": 220423.91249999945,
      "d": 365.4664062499942,
      "v": 60
    },
    {
      "midi": 68,
      "hit": false,
      "t": 220423.91249999945,
      "d": 365.4664062499942,
      "v": 60
    },
    {
      "midi": 72,
      "hit": false,
      "t": 220423.91249999945,
      "d": 365.4664062499942,
      "v": 60
    },
    {
      "midi": 72,
      "hit": false,
      "t": 220678.14999999997,
      "d": 116.52552083332557,
      "v": 60
    },
    {
      "midi": 77,
      "hit": false,
      "t": 220678.14999999997,
      "d": 116.52552083332557,
      "v": 60
    },
    {
      "midi": 70,
      "hit": false,
      "t": 220805.26874999996,
      "d": 116.52552083332557,
      "v": 60
    },
    {
      "midi": 75,
      "hit": false,
      "t": 220805.26874999996,
      "d": 116.52552083332557,
      "v": 60
    },
    {
      "midi": 63,
      "hit": false,
      "t": 220932.38749999946,
      "d": 365.4664062499942,
      "v": 60
    },
    {
      "midi": 65,
      "hit": false,
      "t": 220932.38749999946,
      "d": 365.4664062499942,
      "v": 60
    },
    {
      "midi": 68,
      "hit": false,
      "t": 220932.38749999946,
      "d": 365.4664062499942,
      "v": 60
    },
    {
      "midi": 72,
      "hit": false,
      "t": 220932.38749999946,
      "d": 365.4664062499942,
      "v": 60
    },
    {
      "midi": 67,
      "hit": false,
      "t": 220932.38749999995,
      "d": 116.52552083332557,
      "v": 60
    },
    {
      "midi": 72,
      "hit": false,
      "t": 220932.38749999995,
      "d": 116.52552083332557,
      "v": 60
    },
    {
      "midi": 70,
      "hit": false,
      "t": 221059.50624999995,
      "d": 116.52552083332557,
      "v": 60
    },
    {
      "midi": 75,
      "hit": false,
      "t": 221059.50624999995,
      "d": 116.52552083332557,
      "v": 60
    },
    {
      "midi": 72,
      "hit": false,
      "t": 221186.62499999994,
      "d": 116.52552083332557,
      "v": 60
    },
    {
      "midi": 77,
      "hit": false,
      "t": 221186.62499999994,
      "d": 116.52552083332557,
      "v": 60
    },
    {
      "midi": 64,
      "hit": false,
      "t": 221313.74374999944,
      "d": 238.34765625,
      "v": 60
    },
    {
      "midi": 66,
      "hit": false,
      "t": 221313.74374999944,
      "d": 238.34765625,
      "v": 60
    },
    {
      "midi": 69,
      "hit": false,
      "t": 221313.74374999944,
      "d": 238.34765625,
      "v": 60
    },
    {
      "midi": 73,
      "hit": false,
      "t": 221313.74374999944,
      "d": 238.34765625,
      "v": 60
    },
    {
      "midi": 55,
      "hit": false,
      "t": 221695.09999999945,
      "d": 111.22890625000582,
      "v": 60
    },
    {
      "midi": 58,
      "hit": false,
      "t": 221695.09999999945,
      "d": 111.22890625000582,
      "v": 60
    },
    {
      "midi": 62,
      "hit": false,
      "t": 221695.09999999945,
      "d": 111.22890625000582,
      "v": 60
    },
    {
      "midi": 65,
      "hit": false,
      "t": 221695.09999999945,
      "d": 111.22890625000582,
      "v": 60
    },
    {
      "midi": 77,
      "hit": false,
      "t": 221695.09999999995,
      "d": 116.52552083332557,
      "v": 60
    },
    {
      "midi": 81,
      "hit": false,
      "t": 221695.09999999995,
      "d": 116.52552083332557,
      "v": 60
    },
    {
      "midi": 39,
      "hit": false,
      "t": 228813.74999999945,
      "d": 238.34765625,
      "v": 77
    },
    {
      "midi": 40,
      "hit": false,
      "t": 229067.98749999944,
      "d": 238.34765625,
      "v": 88
    },
    {
      "midi": 41,
      "hit": false,
      "t": 229322.22499999942,
      "d": 238.34765625,
      "v": 94
    },
    {
      "midi": 42,
      "hit": false,
      "t": 229576.4624999994,
      "d": 238.34765625,
      "v": 92
    },
    {
      "midi": 62,
      "hit": false,
      "t": 229830.6999999994,
      "d": 365.4664062499942,
      "v": 60
    },
    {
      "midi": 65,
      "hit": false,
      "t": 229830.6999999994,
      "d": 365.4664062499942,
      "v": 60
    },
    {
      "midi": 67,
      "hit": false,
      "t": 229830.6999999994,
      "d": 365.4664062499942,
      "v": 60
    },
    {
      "midi": 70,
      "hit": false,
      "t": 229830.6999999994,
      "d": 365.4664062499942,
      "v": 60
    },
    {
      "midi": 62,
      "hit": false,
      "t": 230212.05624999938,
      "d": 238.34765625,
      "v": 60
    },
    {
      "midi": 65,
      "hit": false,
      "t": 230212.05624999938,
      "d": 238.34765625,
      "v": 60
    },
    {
      "midi": 67,
      "hit": false,
      "t": 230212.05624999938,
      "d": 238.34765625,
      "v": 60
    },
    {
      "midi": 70,
      "hit": false,
      "t": 230212.05624999938,
      "d": 238.34765625,
      "v": 60
    },
    {
      "midi": 62,
      "hit": false,
      "t": 230593.4124999994,
      "d": 365.4664062499942,
      "v": 60
    },
    {
      "midi": 65,
      "hit": false,
      "t": 230593.4124999994,
      "d": 365.4664062499942,
      "v": 60
    },
    {
      "midi": 67,
      "hit": false,
      "t": 230593.4124999994,
      "d": 365.4664062499942,
      "v": 60
    },
    {
      "midi": 70,
      "hit": false,
      "t": 230593.4124999994,
      "d": 365.4664062499942,
      "v": 60
    },
    {
      "midi": 65,
      "hit": false,
      "t": 231101.8874999994,
      "d": 365.4664062499942,
      "v": 60
    },
    {
      "midi": 67,
      "hit": false,
      "t": 231101.8874999994,
      "d": 365.4664062499942,
      "v": 60
    },
    {
      "midi": 70,
      "hit": false,
      "t": 231101.8874999994,
      "d": 365.4664062499942,
      "v": 60
    },
    {
      "midi": 74,
      "hit": false,
      "t": 231101.8874999994,
      "d": 365.4664062499942,
      "v": 60
    },
    {
      "midi": 64,
      "hit": false,
      "t": 231483.24374999938,
      "d": 238.34765625,
      "v": 60
    },
    {
      "midi": 66,
      "hit": false,
      "t": 231483.24374999938,
      "d": 238.34765625,
      "v": 60
    },
    {
      "midi": 69,
      "hit": false,
      "t": 231483.24374999938,
      "d": 238.34765625,
      "v": 60
    },
    {
      "midi": 73,
      "hit": false,
      "t": 231483.24374999938,
      "d": 238.34765625,
      "v": 60
    },
    {
      "midi": 63,
      "hit": false,
      "t": 231864.5999999994,
      "d": 365.4664062499942,
      "v": 60
    },
    {
      "midi": 65,
      "hit": false,
      "t": 231864.5999999994,
      "d": 365.4664062499942,
      "v": 60
    },
    {
      "midi": 68,
      "hit": false,
      "t": 231864.5999999994,
      "d": 365.4664062499942,
      "v": 60
    },
    {
      "midi": 72,
      "hit": false,
      "t": 231864.5999999994,
      "d": 365.4664062499942,
      "v": 60
    },
    {
      "midi": 63,
      "hit": false,
      "t": 232245.95624999938,
      "d": 238.34765625,
      "v": 60
    },
    {
      "midi": 65,
      "hit": false,
      "t": 232245.95624999938,
      "d": 238.34765625,
      "v": 60
    },
    {
      "midi": 68,
      "hit": false,
      "t": 232245.95624999938,
      "d": 238.34765625,
      "v": 60
    },
    {
      "midi": 72,
      "hit": false,
      "t": 232245.95624999938,
      "d": 238.34765625,
      "v": 60
    },
    {
      "midi": 63,
      "hit": false,
      "t": 232627.3124999994,
      "d": 365.4664062500233,
      "v": 60
    },
    {
      "midi": 65,
      "hit": false,
      "t": 232627.3124999994,
      "d": 365.4664062500233,
      "v": 60
    },
    {
      "midi": 68,
      "hit": false,
      "t": 232627.3124999994,
      "d": 365.4664062500233,
      "v": 60
    },
    {
      "midi": 72,
      "hit": false,
      "t": 232627.3124999994,
      "d": 365.4664062500233,
      "v": 60
    },
    {
      "midi": 63,
      "hit": false,
      "t": 233135.78749999942,
      "d": 365.4664062500524,
      "v": 60
    },
    {
      "midi": 65,
      "hit": false,
      "t": 233135.78749999942,
      "d": 365.4664062500524,
      "v": 60
    },
    {
      "midi": 68,
      "hit": false,
      "t": 233135.78749999942,
      "d": 365.4664062500524,
      "v": 60
    },
    {
      "midi": 72,
      "hit": false,
      "t": 233135.78749999942,
      "d": 365.4664062500524,
      "v": 60
    },
    {
      "midi": 64,
      "hit": false,
      "t": 233517.14374999946,
      "d": 238.34765625,
      "v": 60
    },
    {
      "midi": 66,
      "hit": false,
      "t": 233517.14374999946,
      "d": 238.34765625,
      "v": 60
    },
    {
      "midi": 69,
      "hit": false,
      "t": 233517.14374999946,
      "d": 238.34765625,
      "v": 60
    },
    {
      "midi": 73,
      "hit": false,
      "t": 233517.14374999946,
      "d": 238.34765625,
      "v": 60
    },
    {
      "midi": 62,
      "hit": false,
      "t": 233898.49999999913,
      "d": 492.58515625001746,
      "v": 100
    },
    {
      "midi": 62,
      "hit": false,
      "t": 233898.49999999945,
      "d": 365.4664062500233,
      "v": 60
    },
    {
      "midi": 65,
      "hit": false,
      "t": 233898.49999999945,
      "d": 365.4664062500233,
      "v": 60
    },
    {
      "midi": 67,
      "hit": false,
      "t": 233898.49999999945,
      "d": 365.4664062500233,
      "v": 60
    },
    {
      "midi": 70,
      "hit": false,
      "t": 233898.49999999945,
      "d": 365.4664062500233,
      "v": 60
    },
    {
      "midi": 62,
      "hit": false,
      "t": 234279.85624999946,
      "d": 238.3476562500291,
      "v": 60
    },
    {
      "midi": 65,
      "hit": false,
      "t": 234279.85624999946,
      "d": 238.3476562500291,
      "v": 60
    },
    {
      "midi": 67,
      "hit": false,
      "t": 234279.85624999946,
      "d": 238.3476562500291,
      "v": 60
    },
    {
      "midi": 70,
      "hit": false,
      "t": 234279.85624999946,
      "d": 238.3476562500291,
      "v": 60
    },
    {
      "midi": 61,
      "hit": false,
      "t": 234406.97499999913,
      "d": 238.34765625,
      "v": 100
    },
    {
      "midi": 62,
      "hit": false,
      "t": 234661.21249999912,
      "d": 1255.2976562499825,
      "v": 100
    },
    {
      "midi": 62,
      "hit": false,
      "t": 234661.21249999947,
      "d": 365.4664062499942,
      "v": 60
    },
    {
      "midi": 65,
      "hit": false,
      "t": 234661.21249999947,
      "d": 365.4664062499942,
      "v": 60
    },
    {
      "midi": 67,
      "hit": false,
      "t": 234661.21249999947,
      "d": 365.4664062499942,
      "v": 60
    },
    {
      "midi": 70,
      "hit": false,
      "t": 234661.21249999947,
      "d": 365.4664062499942,
      "v": 60
    },
    {
      "midi": 65,
      "hit": false,
      "t": 235169.68749999945,
      "d": 365.4664062499651,
      "v": 60
    },
    {
      "midi": 67,
      "hit": false,
      "t": 235169.68749999945,
      "d": 365.4664062499651,
      "v": 60
    },
    {
      "midi": 70,
      "hit": false,
      "t": 235169.68749999945,
      "d": 365.4664062499651,
      "v": 60
    },
    {
      "midi": 74,
      "hit": false,
      "t": 235169.68749999945,
      "d": 365.4664062499651,
      "v": 60
    },
    {
      "midi": 64,
      "hit": false,
      "t": 235551.0437499994,
      "d": 238.3476562500291,
      "v": 60
    },
    {
      "midi": 66,
      "hit": false,
      "t": 235551.0437499994,
      "d": 238.3476562500291,
      "v": 60
    },
    {
      "midi": 69,
      "hit": false,
      "t": 235551.0437499994,
      "d": 238.3476562500291,
      "v": 60
    },
    {
      "midi": 73,
      "hit": false,
      "t": 235551.0437499994,
      "d": 238.3476562500291,
      "v": 60
    },
    {
      "midi": 63,
      "hit": false,
      "t": 235932.39999999944,
      "d": 365.4664062499942,
      "v": 60
    },
    {
      "midi": 65,
      "hit": false,
      "t": 235932.39999999944,
      "d": 365.4664062499942,
      "v": 60
    },
    {
      "midi": 68,
      "hit": false,
      "t": 235932.39999999944,
      "d": 365.4664062499942,
      "v": 60
    },
    {
      "midi": 72,
      "hit": false,
      "t": 235932.39999999944,
      "d": 365.4664062499942,
      "v": 60
    },
    {
      "midi": 63,
      "hit": false,
      "t": 236313.75624999942,
      "d": 238.34765625,
      "v": 60
    },
    {
      "midi": 65,
      "hit": false,
      "t": 236313.75624999942,
      "d": 238.34765625,
      "v": 60
    },
    {
      "midi": 68,
      "hit": false,
      "t": 236313.75624999942,
      "d": 238.34765625,
      "v": 60
    },
    {
      "midi": 72,
      "hit": false,
      "t": 236313.75624999942,
      "d": 238.34765625,
      "v": 60
    },
    {
      "midi": 63,
      "hit": false,
      "t": 236695.1124999994,
      "d": 365.4664062499942,
      "v": 60
    },
    {
      "midi": 65,
      "hit": false,
      "t": 236695.1124999994,
      "d": 365.4664062499942,
      "v": 60
    },
    {
      "midi": 68,
      "hit": false,
      "t": 236695.1124999994,
      "d": 365.4664062499942,
      "v": 60
    },
    {
      "midi": 72,
      "hit": false,
      "t": 236695.1124999994,
      "d": 365.4664062499942,
      "v": 60
    },
    {
      "midi": 63,
      "hit": false,
      "t": 237203.5874999994,
      "d": 365.4664062499942,
      "v": 60
    },
    {
      "midi": 65,
      "hit": false,
      "t": 237203.5874999994,
      "d": 365.4664062499942,
      "v": 60
    },
    {
      "midi": 68,
      "hit": false,
      "t": 237203.5874999994,
      "d": 365.4664062499942,
      "v": 60
    },
    {
      "midi": 72,
      "hit": false,
      "t": 237203.5874999994,
      "d": 365.4664062499942,
      "v": 60
    },
    {
      "midi": 64,
      "hit": false,
      "t": 237584.9437499994,
      "d": 238.34765625,
      "v": 60
    },
    {
      "midi": 66,
      "hit": false,
      "t": 237584.9437499994,
      "d": 238.34765625,
      "v": 60
    },
    {
      "midi": 69,
      "hit": false,
      "t": 237584.9437499994,
      "d": 238.34765625,
      "v": 60
    },
    {
      "midi": 73,
      "hit": false,
      "t": 237584.9437499994,
      "d": 238.34765625,
      "v": 60
    },
    {
      "midi": 62,
      "hit": false,
      "t": 237966.29999999912,
      "d": 492.58515624998836,
      "v": 100
    },
    {
      "midi": 62,
      "hit": false,
      "t": 237966.2999999994,
      "d": 365.4664062499942,
      "v": 60
    },
    {
      "midi": 65,
      "hit": false,
      "t": 237966.2999999994,
      "d": 365.4664062499942,
      "v": 60
    },
    {
      "midi": 67,
      "hit": false,
      "t": 237966.2999999994,
      "d": 365.4664062499942,
      "v": 60
    },
    {
      "midi": 70,
      "hit": false,
      "t": 237966.2999999994,
      "d": 365.4664062499942,
      "v": 60
    },
    {
      "midi": 62,
      "hit": false,
      "t": 238347.6562499994,
      "d": 238.34765625,
      "v": 60
    },
    {
      "midi": 65,
      "hit": false,
      "t": 238347.6562499994,
      "d": 238.34765625,
      "v": 60
    },
    {
      "midi": 67,
      "hit": false,
      "t": 238347.6562499994,
      "d": 238.34765625,
      "v": 60
    },
    {
      "midi": 70,
      "hit": false,
      "t": 238347.6562499994,
      "d": 238.34765625,
      "v": 60
    },
    {
      "midi": 61,
      "hit": false,
      "t": 238474.7749999991,
      "d": 238.34765625,
      "v": 100
    },
    {
      "midi": 62,
      "hit": false,
      "t": 238729.01249999908,
      "d": 1255.2976562500116,
      "v": 100
    },
    {
      "midi": 62,
      "hit": false,
      "t": 238729.0124999994,
      "d": 365.4664062499942,
      "v": 60
    },
    {
      "midi": 65,
      "hit": false,
      "t": 238729.0124999994,
      "d": 365.4664062499942,
      "v": 60
    },
    {
      "midi": 67,
      "hit": false,
      "t": 238729.0124999994,
      "d": 365.4664062499942,
      "v": 60
    },
    {
      "midi": 70,
      "hit": false,
      "t": 238729.0124999994,
      "d": 365.4664062499942,
      "v": 60
    },
    {
      "midi": 65,
      "hit": false,
      "t": 239237.4874999994,
      "d": 365.4664062499942,
      "v": 60
    },
    {
      "midi": 67,
      "hit": false,
      "t": 239237.4874999994,
      "d": 365.4664062499942,
      "v": 60
    },
    {
      "midi": 70,
      "hit": false,
      "t": 239237.4874999994,
      "d": 365.4664062499942,
      "v": 60
    },
    {
      "midi": 74,
      "hit": false,
      "t": 239237.4874999994,
      "d": 365.4664062499942,
      "v": 60
    },
    {
      "midi": 64,
      "hit": false,
      "t": 239618.8437499994,
      "d": 238.34765625,
      "v": 60
    },
    {
      "midi": 66,
      "hit": false,
      "t": 239618.8437499994,
      "d": 238.34765625,
      "v": 60
    },
    {
      "midi": 69,
      "hit": false,
      "t": 239618.8437499994,
      "d": 238.34765625,
      "v": 60
    },
    {
      "midi": 73,
      "hit": false,
      "t": 239618.8437499994,
      "d": 238.34765625,
      "v": 60
    },
    {
      "midi": 63,
      "hit": false,
      "t": 240000.1999999994,
      "d": 365.4664062499942,
      "v": 60
    },
    {
      "midi": 65,
      "hit": false,
      "t": 240000.1999999994,
      "d": 365.4664062499942,
      "v": 60
    },
    {
      "midi": 68,
      "hit": false,
      "t": 240000.1999999994,
      "d": 365.4664062499942,
      "v": 60
    },
    {
      "midi": 72,
      "hit": false,
      "t": 240000.1999999994,
      "d": 365.4664062499942,
      "v": 60
    },
    {
      "midi": 63,
      "hit": false,
      "t": 240381.55624999938,
      "d": 238.34765625,
      "v": 60
    },
    {
      "midi": 65,
      "hit": false,
      "t": 240381.55624999938,
      "d": 238.34765625,
      "v": 60
    },
    {
      "midi": 68,
      "hit": false,
      "t": 240381.55624999938,
      "d": 238.34765625,
      "v": 60
    },
    {
      "midi": 72,
      "hit": false,
      "t": 240381.55624999938,
      "d": 238.34765625,
      "v": 60
    },
    {
      "midi": 63,
      "hit": false,
      "t": 240762.9124999994,
      "d": 365.4664062499942,
      "v": 60
    },
    {
      "midi": 65,
      "hit": false,
      "t": 240762.9124999994,
      "d": 365.4664062499942,
      "v": 60
    },
    {
      "midi": 68,
      "hit": false,
      "t": 240762.9124999994,
      "d": 365.4664062499942,
      "v": 60
    },
    {
      "midi": 72,
      "hit": false,
      "t": 240762.9124999994,
      "d": 365.4664062499942,
      "v": 60
    },
    {
      "midi": 63,
      "hit": false,
      "t": 241271.3874999994,
      "d": 365.4664062499942,
      "v": 60
    },
    {
      "midi": 65,
      "hit": false,
      "t": 241271.3874999994,
      "d": 365.4664062499942,
      "v": 60
    },
    {
      "midi": 68,
      "hit": false,
      "t": 241271.3874999994,
      "d": 365.4664062499942,
      "v": 60
    },
    {
      "midi": 72,
      "hit": false,
      "t": 241271.3874999994,
      "d": 365.4664062499942,
      "v": 60
    },
    {
      "midi": 64,
      "hit": false,
      "t": 241652.74374999938,
      "d": 238.34765625,
      "v": 60
    },
    {
      "midi": 66,
      "hit": false,
      "t": 241652.74374999938,
      "d": 238.34765625,
      "v": 60
    },
    {
      "midi": 69,
      "hit": false,
      "t": 241652.74374999938,
      "d": 238.34765625,
      "v": 60
    },
    {
      "midi": 73,
      "hit": false,
      "t": 241652.74374999938,
      "d": 238.34765625,
      "v": 60
    },
    {
      "midi": 62,
      "hit": false,
      "t": 242034.0999999991,
      "d": 492.58515624998836,
      "v": 100
    },
    {
      "midi": 62,
      "hit": false,
      "t": 242034.0999999994,
      "d": 365.4664062499942,
      "v": 60
    },
    {
      "midi": 65,
      "hit": false,
      "t": 242034.0999999994,
      "d": 365.4664062499942,
      "v": 60
    },
    {
      "midi": 67,
      "hit": false,
      "t": 242034.0999999994,
      "d": 365.4664062499942,
      "v": 60
    },
    {
      "midi": 70,
      "hit": false,
      "t": 242034.0999999994,
      "d": 365.4664062499942,
      "v": 60
    },
    {
      "midi": 62,
      "hit": false,
      "t": 242415.45624999938,
      "d": 238.34765625,
      "v": 60
    },
    {
      "midi": 65,
      "hit": false,
      "t": 242415.45624999938,
      "d": 238.34765625,
      "v": 60
    },
    {
      "midi": 67,
      "hit": false,
      "t": 242415.45624999938,
      "d": 238.34765625,
      "v": 60
    },
    {
      "midi": 70,
      "hit": false,
      "t": 242415.45624999938,
      "d": 238.34765625,
      "v": 60
    },
    {
      "midi": 61,
      "hit": false,
      "t": 242542.57499999908,
      "d": 238.34765625,
      "v": 100
    },
    {
      "midi": 62,
      "hit": false,
      "t": 242796.81249999907,
      "d": 1128.1789062499884,
      "v": 100
    },
    {
      "midi": 62,
      "hit": false,
      "t": 242796.8124999994,
      "d": 365.4664062499942,
      "v": 60
    },
    {
      "midi": 65,
      "hit": false,
      "t": 242796.8124999994,
      "d": 365.4664062499942,
      "v": 60
    },
    {
      "midi": 67,
      "hit": false,
      "t": 242796.8124999994,
      "d": 365.4664062499942,
      "v": 60
    },
    {
      "midi": 70,
      "hit": false,
      "t": 242796.8124999994,
      "d": 365.4664062499942,
      "v": 60
    },
    {
      "midi": 65,
      "hit": false,
      "t": 243305.2874999994,
      "d": 365.4664062499942,
      "v": 60
    },
    {
      "midi": 67,
      "hit": false,
      "t": 243305.2874999994,
      "d": 365.4664062499942,
      "v": 60
    },
    {
      "midi": 70,
      "hit": false,
      "t": 243305.2874999994,
      "d": 365.4664062499942,
      "v": 60
    },
    {
      "midi": 74,
      "hit": false,
      "t": 243305.2874999994,
      "d": 365.4664062499942,
      "v": 60
    },
    {
      "midi": 64,
      "hit": false,
      "t": 243686.64374999938,
      "d": 238.34765625,
      "v": 60
    },
    {
      "midi": 66,
      "hit": false,
      "t": 243686.64374999938,
      "d": 238.34765625,
      "v": 60
    },
    {
      "midi": 69,
      "hit": false,
      "t": 243686.64374999938,
      "d": 238.34765625,
      "v": 60
    },
    {
      "midi": 73,
      "hit": false,
      "t": 243686.64374999938,
      "d": 238.34765625,
      "v": 60
    },
    {
      "midi": 68,
      "hit": false,
      "t": 244067.9999999994,
      "d": 365.4664062499942,
      "v": 60
    },
    {
      "midi": 72,
      "hit": false,
      "t": 244067.9999999994,
      "d": 365.4664062499942,
      "v": 60
    },
    {
      "midi": 75,
      "hit": false,
      "t": 244067.9999999994,
      "d": 365.4664062499942,
      "v": 60
    },
    {
      "midi": 77,
      "hit": false,
      "t": 244067.9999999994,
      "d": 365.4664062499942,
      "v": 60
    },
    {
      "midi": 69,
      "hit": false,
      "t": 244449.35624999937,
      "d": 238.34765625,
      "v": 60
    },
    {
      "midi": 73,
      "hit": false,
      "t": 244449.35624999937,
      "d": 238.34765625,
      "v": 60
    },
    {
      "midi": 76,
      "hit": false,
      "t": 244449.35624999937,
      "d": 238.34765625,
      "v": 60
    },
    {
      "midi": 78,
      "hit": false,
      "t": 244449.35624999937,
      "d": 238.34765625,
      "v": 60
    },
    {
      "midi": 70,
      "hit": false,
      "t": 244830.71249999938,
      "d": 195.97473958332557,
      "v": 60
    },
    {
      "midi": 74,
      "hit": false,
      "t": 244830.71249999938,
      "d": 195.97473958332557,
      "v": 60
    },
    {
      "midi": 67,
      "hit": false,
      "t": 244830.71249999938,
      "d": 206.56796874999418,
      "v": 60
    },
    {
      "midi": 79,
      "hit": false,
      "t": 244830.71249999938,
      "d": 206.56796874999418,
      "v": 60
    }
  ]
}