{
  "jsonPath": "Rock/Soft Rock/Barry Manilow/lay-me-down.json",
  "path": "Rock\\Soft Rock\\Barry Manilow\\Lay Me Down.mid",
  "name": "Lay Me Down",
  "difficulty": "Advanced",
  "bpm": 78.000078000078,
  "notes": [
    {
      "midi": 72,
      "hit": false,
      "t": 6400,
      "d": 346.66666666666697,
      "v": 85
    },
    {
      "midi": 41,
      "hit": false,
      "t": 6400,
      "d": 3200,
      "v": 59
    },
    {
      "midi": 53,
      "hit": false,
      "t": 6400,
      "d": 3133.333333333334,
      "v": 114
    },
    {
      "midi": 65,
      "hit": false,
      "t": 6400,
      "d": 3326.666666666666,
      "v": 114
    },
    {
      "midi": 60,
      "hit": false,
      "t": 6400,
      "d": 3373.333333333332,
      "v": 114
    },
    {
      "midi": 60,
      "hit": false,
      "t": 6433.333333333333,
      "d": 2086.666666666667,
      "v": 90
    },
    {
      "midi": 69,
      "hit": false,
      "t": 6440,
      "d": 1526.666666666667,
      "v": 114
    },
    {
      "midi": 69,
      "hit": false,
      "t": 6600,
      "d": 1046.666666666667,
      "v": 75
    },
    {
      "midi": 57,
      "hit": false,
      "t": 6600,
      "d": 3000,
      "v": 59
    },
    {
      "midi": 65,
      "hit": false,
      "t": 6800,
      "d": 946.666666666667,
      "v": 64
    },
    {
      "midi": 69,
      "hit": false,
      "t": 8000,
      "d": 606.6666666666661,
      "v": 114
    },
    {
      "midi": 70,
      "hit": false,
      "t": 8400,
      "d": 1020,
      "v": 114
    },
    {
      "midi": 60,
      "hit": false,
      "t": 8600,
      "d": 1000,
      "v": 83
    },
    {
      "midi": 65,
      "hit": false,
      "t": 8800,
      "d": 413.33333333333394,
      "v": 48
    },
    {
      "midi": 69,
      "hit": false,
      "t": 9000,
      "d": 440,
      "v": 74
    },
    {
      "midi": 72,
      "hit": false,
      "t": 9200,
      "d": 300,
      "v": 73
    },
    {
      "midi": 69,
      "hit": false,
      "t": 9200,
      "d": 546.6666666666661,
      "v": 114
    },
    {
      "midi": 77,
      "hit": false,
      "t": 9400,
      "d": 200,
      "v": 71
    },
    {
      "midi": 53,
      "hit": false,
      "t": 9600,
      "d": 566.6666666666661,
      "v": 71
    },
    {
      "midi": 60,
      "hit": false,
      "t": 9600,
      "d": 2146.666666666666,
      "v": 71
    },
    {
      "midi": 63,
      "hit": false,
      "t": 9600,
      "d": 2466.666666666666,
      "v": 71
    },
    {
      "midi": 63,
      "hit": false,
      "t": 9600,
      "d": 1173.3333333333321,
      "v": 114
    },
    {
      "midi": 53,
      "hit": false,
      "t": 9600,
      "d": 3106.6666666666642,
      "v": 114
    },
    {
      "midi": 67,
      "hit": false,
      "t": 9600,
      "d": 3279.999999999998,
      "v": 114
    },
    {
      "midi": 72,
      "hit": false,
      "t": 9640,
      "d": 933.3333333333321,
      "v": 114
    },
    {
      "midi": 55,
      "hit": false,
      "t": 10000,
      "d": 506.66666666666606,
      "v": 71
    },
    {
      "midi": 51,
      "hit": false,
      "t": 10400,
      "d": 533.3333333333339,
      "v": 71
    },
    {
      "midi": 72,
      "hit": false,
      "t": 10799.999999999998,
      "d": 546.6666666666661,
      "v": 114
    },
    {
      "midi": 55,
      "hit": false,
      "t": 10800,
      "d": 506.66666666666606,
      "v": 71
    },
    {
      "midi": 70,
      "hit": false,
      "t": 11199.999999999998,
      "d": 500,
      "v": 114
    },
    {
      "midi": 53,
      "hit": false,
      "t": 11200,
      "d": 506.66666666666606,
      "v": 71
    },
    {
      "midi": 69,
      "hit": false,
      "t": 11599.999999999998,
      "d": 1020,
      "v": 114
    },
    {
      "midi": 55,
      "hit": false,
      "t": 11600,
      "d": 546.6666666666661,
      "v": 71
    },
    {
      "midi": 60,
      "hit": false,
      "t": 12000,
      "d": 306.66666666666606,
      "v": 71
    },
    {
      "midi": 51,
      "hit": false,
      "t": 12000,
      "d": 400,
      "v": 71
    },
    {
      "midi": 62,
      "hit": false,
      "t": 12200,
      "d": 373.33333333333394,
      "v": 71
    },
    {
      "midi": 65,
      "hit": false,
      "t": 12399.999999999998,
      "d": 2653.333333333334,
      "v": 114
    },
    {
      "midi": 55,
      "hit": false,
      "t": 12400,
      "d": 400,
      "v": 68
    },
    {
      "midi": 63,
      "hit": false,
      "t": 12400,
      "d": 400,
      "v": 71
    },
    {
      "midi": 57,
      "hit": false,
      "t": 12799.999999999998,
      "d": 3133.333333333334,
      "v": 114
    },
    {
      "midi": 53,
      "hit": false,
      "t": 12799.999999999998,
      "d": 3346.666666666666,
      "v": 114
    },
    {
      "midi": 46,
      "hit": false,
      "t": 12799.999999999998,
      "d": 3460,
      "v": 114
    },
    {
      "midi": 46,
      "hit": false,
      "t": 12800,
      "d": 800,
      "v": 71
    },
    {
      "midi": 50,
      "hit": false,
      "t": 13200,
      "d": 800,
      "v": 71
    },
    {
      "midi": 53,
      "hit": false,
      "t": 13600,
      "d": 1200,
      "v": 71
    },
    {
      "midi": 57,
      "hit": false,
      "t": 14000,
      "d": 800,
      "v": 71
    },
    {
      "midi": 62,
      "hit": false,
      "t": 14400,
      "d": 800,
      "v": 71
    },
    {
      "midi": 53,
      "hit": false,
      "t": 14800,
      "d": 1200,
      "v": 65
    },
    {
      "midi": 62,
      "hit": false,
      "t": 15199.999999999998,
      "d": 393.33333333333394,
      "v": 114
    },
    {
      "midi": 57,
      "hit": false,
      "t": 15200,
      "d": 800,
      "v": 71
    },
    {
      "midi": 65,
      "hit": false,
      "t": 15599.999999999998,
      "d": 3739.999999999998,
      "v": 114
    },
    {
      "midi": 62,
      "hit": false,
      "t": 15600,
      "d": 400,
      "v": 71
    },
    {
      "midi": 57,
      "hit": false,
      "t": 15999.999999999998,
      "d": 1566.666666666666,
      "v": 114
    },
    {
      "midi": 60,
      "hit": false,
      "t": 15999.999999999998,
      "d": 1779.9999999999982,
      "v": 114
    },
    {
      "midi": 50,
      "hit": false,
      "t": 15999.999999999998,
      "d": 1846.666666666666,
      "v": 114
    },
    {
      "midi": 50,
      "hit": false,
      "t": 16000,
      "d": 600,
      "v": 68
    },
    {
      "midi": 60,
      "hit": false,
      "t": 16000,
      "d": 1600,
      "v": 71
    },
    {
      "midi": 65,
      "hit": false,
      "t": 16000,
      "d": 1600,
      "v": 71
    },
    {
      "midi": 57,
      "hit": false,
      "t": 16400,
      "d": 573.3333333333321,
      "v": 71
    },
    {
      "midi": 53,
      "hit": false,
      "t": 16800,
      "d": 553.3333333333321,
      "v": 71
    },
    {
      "midi": 57,
      "hit": false,
      "t": 17200,
      "d": 400,
      "v": 71
    },
    {
      "midi": 59,
      "hit": false,
      "t": 17599.999999999996,
      "d": 1686.6666666666679,
      "v": 114
    },
    {
      "midi": 53,
      "hit": false,
      "t": 17599.999999999996,
      "d": 1706.6666666666679,
      "v": 114
    },
    {
      "midi": 43,
      "hit": false,
      "t": 17599.999999999996,
      "d": 1753.3333333333321,
      "v": 114
    },
    {
      "midi": 43,
      "hit": false,
      "t": 17600,
      "d": 560,
      "v": 71
    },
    {
      "midi": 62,
      "hit": false,
      "t": 17600,
      "d": 1000,
      "v": 71
    },
    {
      "midi": 50,
      "hit": false,
      "t": 18000,
      "d": 533.3333333333321,
      "v": 66
    },
    {
      "midi": 55,
      "hit": false,
      "t": 18400,
      "d": 333.3333333333321,
      "v": 67
    },
    {
      "midi": 47,
      "hit": false,
      "t": 18400,
      "d": 573.3333333333321,
      "v": 71
    },
    {
      "midi": 57,
      "hit": false,
      "t": 18600,
      "d": 373.3333333333321,
      "v": 71
    },
    {
      "midi": 59,
      "hit": false,
      "t": 18800,
      "d": 346.6666666666679,
      "v": 71
    },
    {
      "midi": 50,
      "hit": false,
      "t": 18800,
      "d": 400,
      "v": 71
    },
    {
      "midi": 62,
      "hit": false,
      "t": 19000,
      "d": 200,
      "v": 71
    },
    {
      "midi": 67,
      "hit": false,
      "t": 19119.999999999996,
      "d": 140,
      "v": 104
    },
    {
      "midi": 48,
      "hit": false,
      "t": 19199.999999999996,
      "d": 3146.6666666666642,
      "v": 114
    },
    {
      "midi": 48,
      "hit": false,
      "t": 19200,
      "d": 3200,
      "v": 71
    },
    {
      "midi": 69,
      "hit": false,
      "t": 19239.999999999996,
      "d": 1046.6666666666642,
      "v": 114
    },
    {
      "midi": 57,
      "hit": false,
      "t": 19600,
      "d": 800,
      "v": 71
    },
    {
      "midi": 60,
      "hit": false,
      "t": 20000,
      "d": 800,
      "v": 71
    },
    {
      "midi": 60,
      "hit": false,
      "t": 20399.999999999993,
      "d": 393.3333333333321,
      "v": 114
    },
    {
      "midi": 57,
      "hit": false,
      "t": 20400,
      "d": 800,
      "v": 68
    },
    {
      "midi": 65,
      "hit": false,
      "t": 20799.999999999993,
      "d": 920,
      "v": 114
    },
    {
      "midi": 65,
      "hit": false,
      "t": 20800,
      "d": 800,
      "v": 71
    },
    {
      "midi": 60,
      "hit": false,
      "t": 21200,
      "d": 800,
      "v": 69
    },
    {
      "midi": 69,
      "hit": false,
      "t": 21599.999999999993,
      "d": 993.3333333333321,
      "v": 114
    },
    {
      "midi": 57,
      "hit": false,
      "t": 21600,
      "d": 800,
      "v": 71
    },
    {
      "midi": 60,
      "hit": false,
      "t": 22000,
      "d": 400,
      "v": 71
    },
    {
      "midi": 62,
      "hit": false,
      "t": 22399.999999999993,
      "d": 3093.3333333333358,
      "v": 114
    },
    {
      "midi": 48,
      "hit": false,
      "t": 22399.999999999993,
      "d": 3320.0000000000036,
      "v": 114
    },
    {
      "midi": 48,
      "hit": false,
      "t": 22400,
      "d": 800,
      "v": 71
    },
    {
      "midi": 58,
      "hit": false,
      "t": 22400,
      "d": 1613.3333333333321,
      "v": 71
    },
    {
      "midi": 65,
      "hit": false,
      "t": 22400,
      "d": 1613.3333333333321,
      "v": 71
    },
    {
      "midi": 70,
      "hit": false,
      "t": 22439.999999999993,
      "d": 866.6666666666679,
      "v": 114
    },
    {
      "midi": 55,
      "hit": false,
      "t": 22800,
      "d": 800,
      "v": 63
    },
    {
      "midi": 67,
      "hit": false,
      "t": 23199.999999999993,
      "d": 973.3333333333321,
      "v": 114
    },
    {
      "midi": 53,
      "hit": false,
      "t": 23200,
      "d": 813.3333333333321,
      "v": 71
    },
    {
      "midi": 55,
      "hit": false,
      "t": 23600,
      "d": 800,
      "v": 71
    },
    {
      "midi": 65,
      "hit": false,
      "t": 23999.999999999993,
      "d": 886.6666666666679,
      "v": 114
    },
    {
      "midi": 48,
      "hit": false,
      "t": 24013.333333333332,
      "d": 786.6666666666679,
      "v": 71
    },
    {
      "midi": 62,
      "hit": false,
      "t": 24013.333333333332,
      "d": 786.6666666666679,
      "v": 71
    },
    {
      "midi": 55,
      "hit": false,
      "t": 24400,
      "d": 800,
      "v": 71
    },
    {
      "midi": 64,
      "hit": false,
      "t": 24799.999999999993,
      "d": 973.3333333333358,
      "v": 114
    },
    {
      "midi": 53,
      "hit": false,
      "t": 24800,
      "d": 800,
      "v": 71
    },
    {
      "midi": 65,
      "hit": false,
      "t": 24800,
      "d": 800,
      "v": 71
    },
    {
      "midi": 55,
      "hit": false,
      "t": 25200,
      "d": 400,
      "v": 71
    },
    {
      "midi": 67,
      "hit": false,
      "t": 25200,
      "d": 400,
      "v": 71
    },
    {
      "midi": 62,
      "hit": false,
      "t": 25599.999999999996,
      "d": 1773.3333333333321,
      "v": 114
    },
    {
      "midi": 57,
      "hit": false,
      "t": 25599.999999999996,
      "d": 3353.333333333332,
      "v": 114
    },
    {
      "midi": 53,
      "hit": false,
      "t": 25599.999999999996,
      "d": 3373.333333333332,
      "v": 114
    },
    {
      "midi": 46,
      "hit": false,
      "t": 25599.999999999996,
      "d": 3393.333333333332,
      "v": 114
    },
    {
      "midi": 46,
      "hit": false,
      "t": 25600,
      "d": 800,
      "v": 71
    },
    {
      "midi": 57,
      "hit": false,
      "t": 25600,
      "d": 1613.3333333333321,
      "v": 71
    },
    {
      "midi": 62,
      "hit": false,
      "t": 25600,
      "d": 1613.3333333333321,
      "v": 71
    },
    {
      "midi": 65,
      "hit": false,
      "t": 25633.33333333333,
      "d": 1666.6666666666679,
      "v": 114
    },
    {
      "midi": 53,
      "hit": false,
      "t": 26000,
      "d": 800,
      "v": 63
    },
    {
      "midi": 50,
      "hit": false,
      "t": 26400,
      "d": 813.3333333333321,
      "v": 71
    },
    {
      "midi": 53,
      "hit": false,
      "t": 26800,
      "d": 800,
      "v": 71
    },
    {
      "midi": 69,
      "hit": false,
      "t": 27199.999999999996,
      "d": 953.3333333333321,
      "v": 114
    },
    {
      "midi": 46,
      "hit": false,
      "t": 27213.333333333332,
      "d": 786.6666666666679,
      "v": 71
    },
    {
      "midi": 58,
      "hit": false,
      "t": 27213.333333333332,
      "d": 786.6666666666679,
      "v": 71
    },
    {
      "midi": 74,
      "hit": false,
      "t": 27233.33333333333,
      "d": 886.6666666666679,
      "v": 114
    },
    {
      "midi": 53,
      "hit": false,
      "t": 27600,
      "d": 800,
      "v": 71
    },
    {
      "midi": 60,
      "hit": false,
      "t": 27600,
      "d": 800,
      "v": 71
    },
    {
      "midi": 62,
      "hit": false,
      "t": 27999.999999999996,
      "d": 993.3333333333321,
      "v": 114
    },
    {
      "midi": 50,
      "hit": false,
      "t": 28000,
      "d": 800,
      "v": 71
    },
    {
      "midi": 62,
      "hit": false,
      "t": 28000,
      "d": 800,
      "v": 71
    },
    {
      "midi": 53,
      "hit": false,
      "t": 28400,
      "d": 400,
      "v": 71
    },
    {
      "midi": 65,
      "hit": false,
      "t": 28400,
      "d": 400,
      "v": 71
    },
    {
      "midi": 60,
      "hit": false,
      "t": 28799.999999999996,
      "d": 1566.6666666666642,
      "v": 114
    },
    {
      "midi": 55,
      "hit": false,
      "t": 28799.999999999996,
      "d": 1739.9999999999964,
      "v": 114
    },
    {
      "midi": 45,
      "hit": false,
      "t": 28799.999999999996,
      "d": 1793.3333333333285,
      "v": 114
    },
    {
      "midi": 52,
      "hit": false,
      "t": 28800,
      "d": 766.6666666666679,
      "v": 45
    },
    {
      "midi": 55,
      "hit": false,
      "t": 28800,
      "d": 766.6666666666679,
      "v": 65
    },
    {
      "midi": 60,
      "hit": false,
      "t": 28800,
      "d": 800,
      "v": 64
    },
    {
      "midi": 45,
      "hit": false,
      "t": 28800,
      "d": 1600,
      "v": 60
    },
    {
      "midi": 64,
      "hit": false,
      "t": 28839.999999999996,
      "d": 1526.6666666666642,
      "v": 114
    },
    {
      "midi": 40,
      "hit": false,
      "t": 29200,
      "d": 1200,
      "v": 57
    },
    {
      "midi": 48,
      "hit": false,
      "t": 30000,
      "d": 400,
      "v": 60
    },
    {
      "midi": 42,
      "hit": false,
      "t": 30399.999999999993,
      "d": 1653.3333333333321,
      "v": 114
    },
    {
      "midi": 57,
      "hit": false,
      "t": 30399.999999999993,
      "d": 1653.3333333333321,
      "v": 114
    },
    {
      "midi": 60,
      "hit": false,
      "t": 30399.999999999993,
      "d": 1666.6666666666642,
      "v": 114
    },
    {
      "midi": 42,
      "hit": false,
      "t": 30400,
      "d": 733.3333333333321,
      "v": 70
    },
    {
      "midi": 57,
      "hit": false,
      "t": 30400,
      "d": 1600,
      "v": 70
    },
    {
      "midi": 63,
      "hit": false,
      "t": 30439.999999999993,
      "d": 1566.6666666666679,
      "v": 114
    },
    {
      "midi": 48,
      "hit": false,
      "t": 30800,
      "d": 786.6666666666679,
      "v": 70
    },
    {
      "midi": 69,
      "hit": false,
      "t": 31199.999999999993,
      "d": 786.6666666666679,
      "v": 114
    },
    {
      "midi": 45,
      "hit": false,
      "t": 31200,
      "d": 766.6666666666679,
      "v": 70
    },
    {
      "midi": 48,
      "hit": false,
      "t": 31600,
      "d": 400,
      "v": 70
    },
    {
      "midi": 53,
      "hit": false,
      "t": 31999.999999999993,
      "d": 1533.3333333333358,
      "v": 114
    },
    {
      "midi": 58,
      "hit": false,
      "t": 31999.999999999993,
      "d": 1533.3333333333358,
      "v": 114
    },
    {
      "midi": 62,
      "hit": false,
      "t": 31999.999999999993,
      "d": 1566.6666666666715,
      "v": 114
    },
    {
      "midi": 43,
      "hit": false,
      "t": 31999.999999999993,
      "d": 3426.666666666679,
      "v": 114
    },
    {
      "midi": 55,
      "hit": false,
      "t": 32000,
      "d": 820,
      "v": 61
    },
    {
      "midi": 65,
      "hit": false,
      "t": 32000,
      "d": 1606.6666666666642,
      "v": 71
    },
    {
      "midi": 43,
      "hit": false,
      "t": 32000,
      "d": 3200,
      "v": 26
    },
    {
      "midi": 70,
      "hit": false,
      "t": 32039.999999999993,
      "d": 353.3333333333321,
      "v": 114
    },
    {
      "midi": 70,
      "hit": false,
      "t": 32399.999999999993,
      "d": 1893.333333333343,
      "v": 114
    },
    {
      "midi": 38,
      "hit": false,
      "t": 32400,
      "d": 2800,
      "v": 58
    },
    {
      "midi": 55,
      "hit": false,
      "t": 33200,
      "d": 800,
      "v": 55
    },
    {
      "midi": 58,
      "hit": false,
      "t": 33600,
      "d": 1480,
      "v": 114
    },
    {
      "midi": 53,
      "hit": false,
      "t": 33600,
      "d": 1740,
      "v": 114
    },
    {
      "midi": 62,
      "hit": false,
      "t": 33600,
      "d": 1753.3333333333358,
      "v": 114
    },
    {
      "midi": 58,
      "hit": false,
      "t": 33606.666666666664,
      "d": 433.33333333333576,
      "v": 72
    },
    {
      "midi": 65,
      "hit": false,
      "t": 34000,
      "d": 1200,
      "v": 81
    },
    {
      "midi": 62,
      "hit": false,
      "t": 34400,
      "d": 800,
      "v": 48
    },
    {
      "midi": 70,
      "hit": false,
      "t": 34400,
      "d": 393.33333333333576,
      "v": 114
    },
    {
      "midi": 55,
      "hit": false,
      "t": 34800,
      "d": 400,
      "v": 56
    },
    {
      "midi": 69,
      "hit": false,
      "t": 34800,
      "d": 593.3333333333358,
      "v": 114
    },
    {
      "midi": 58,
      "hit": false,
      "t": 35166.666666666664,
      "d": 800.0000000000073,
      "v": 114
    },
    {
      "midi": 48,
      "hit": false,
      "t": 35200,
      "d": 800,
      "v": 71
    },
    {
      "midi": 64,
      "hit": false,
      "t": 35200,
      "d": 2000,
      "v": 71
    },
    {
      "midi": 60,
      "hit": false,
      "t": 35200,
      "d": 886.6666666666715,
      "v": 114
    },
    {
      "midi": 55,
      "hit": false,
      "t": 35200,
      "d": 3146.6666666666715,
      "v": 114
    },
    {
      "midi": 48,
      "hit": false,
      "t": 35200,
      "d": 3306.6666666666715,
      "v": 114
    },
    {
      "midi": 67,
      "hit": false,
      "t": 35240,
      "d": 520.0000000000073,
      "v": 114
    },
    {
      "midi": 55,
      "hit": false,
      "t": 35600,
      "d": 800,
      "v": 69
    },
    {
      "midi": 64,
      "hit": false,
      "t": 35600.00000000001,
      "d": 1026.6666666666715,
      "v": 114
    },
    {
      "midi": 52,
      "hit": false,
      "t": 36000,
      "d": 806.6666666666642,
      "v": 71
    },
    {
      "midi": 58,
      "hit": false,
      "t": 36000.00000000001,
      "d": 553.3333333333358,
      "v": 114
    },
    {
      "midi": 55,
      "hit": false,
      "t": 36400,
      "d": 406.66666666666424,
      "v": 67
    },
    {
      "midi": 60,
      "hit": false,
      "t": 36400.00000000001,
      "d": 393.33333333333576,
      "v": 114
    },
    {
      "midi": 58,
      "hit": false,
      "t": 36800.00000000001,
      "d": 786.6666666666642,
      "v": 114
    },
    {
      "midi": 64,
      "hit": false,
      "t": 36800.00000000001,
      "d": 940,
      "v": 114
    },
    {
      "midi": 52,
      "hit": false,
      "t": 36806.666666666664,
      "d": 793.3333333333358,
      "v": 71
    },
    {
      "midi": 67,
      "hit": false,
      "t": 36806.666666666664,
      "d": 1593.3333333333358,
      "v": 71
    },
    {
      "midi": 60,
      "hit": false,
      "t": 36840.00000000001,
      "d": 906.6666666666642,
      "v": 114
    },
    {
      "midi": 58,
      "hit": false,
      "t": 37200,
      "d": 800,
      "v": 71
    },
    {
      "midi": 55,
      "hit": false,
      "t": 37600,
      "d": 800,
      "v": 67
    },
    {
      "midi": 65,
      "hit": false,
      "t": 37600.00000000001,
      "d": 540,
      "v": 114
    },
    {
      "midi": 58,
      "hit": false,
      "t": 38000,
      "d": 400,
      "v": 71
    },
    {
      "midi": 60,
      "hit": false,
      "t": 38000.00000000001,
      "d": 393.3333333333285,
      "v": 114
    },
    {
      "midi": 67,
      "hit": false,
      "t": 38033.33333333334,
      "d": 606.6666666666642,
      "v": 114
    },
    {
      "midi": 53,
      "hit": false,
      "t": 38400,
      "d": 820,
      "v": 61
    },
    {
      "midi": 64,
      "hit": false,
      "t": 38400,
      "d": 1606.6666666666642,
      "v": 71
    },
    {
      "midi": 41,
      "hit": false,
      "t": 38400,
      "d": 3200,
      "v": 26
    },
    {
      "midi": 57,
      "hit": false,
      "t": 38400,
      "d": 1513.333333333343,
      "v": 114
    },
    {
      "midi": 60,
      "hit": false,
      "t": 38400,
      "d": 1546.6666666666788,
      "v": 114
    },
    {
      "midi": 64,
      "hit": false,
      "t": 38400,
      "d": 1546.6666666666788,
      "v": 114
    },
    {
      "midi": 41,
      "hit": false,
      "t": 38400,
      "d": 3353.3333333333503,
      "v": 114
    },
    {
      "midi": 55,
      "hit": false,
      "t": 38400,
      "d": 3373.3333333333503,
      "v": 114
    },
    {
      "midi": 69,
      "hit": false,
      "t": 38433.333333333336,
      "d": 360.0000000000073,
      "v": 114
    },
    {
      "midi": 36,
      "hit": false,
      "t": 38800,
      "d": 2800,
      "v": 58
    },
    {
      "midi": 69,
      "hit": false,
      "t": 38800.00000000001,
      "d": 1493.333333333343,
      "v": 114
    },
    {
      "midi": 53,
      "hit": false,
      "t": 39600,
      "d": 800,
      "v": 55
    },
    {
      "midi": 57,
      "hit": false,
      "t": 40000.000000000015,
      "d": 1546.6666666666642,
      "v": 114
    },
    {
      "midi": 60,
      "hit": false,
      "t": 40000.000000000015,
      "d": 1793.3333333333358,
      "v": 114
    },
    {
      "midi": 57,
      "hit": false,
      "t": 40006.666666666664,
      "d": 433.33333333333576,
      "v": 72
    },
    {
      "midi": 64,
      "hit": false,
      "t": 40033.33333333335,
      "d": 1740,
      "v": 114
    },
    {
      "midi": 64,
      "hit": false,
      "t": 40400,
      "d": 1200,
      "v": 81
    },
    {
      "midi": 69,
      "hit": false,
      "t": 40400.000000000015,
      "d": 573.3333333333358,
      "v": 114
    },
    {
      "midi": 60,
      "hit": false,
      "t": 40800,
      "d": 800,
      "v": 48
    },
    {
      "midi": 67,
      "hit": false,
      "t": 40800.000000000015,
      "d": 540,
      "v": 114
    },
    {
      "midi": 53,
      "hit": false,
      "t": 41200,
      "d": 400,
      "v": 56
    },
    {
      "midi": 65,
      "hit": false,
      "t": 41200.000000000015,
      "d": 1306.6666666666715,
      "v": 114
    },
    {
      "midi": 81,
      "hit": false,
      "t": 41600,
      "d": 920,
      "v": 51
    },
    {
      "midi": 69,
      "hit": false,
      "t": 41600,
      "d": 933.3333333333358,
      "v": 36
    },
    {
      "midi": 74,
      "hit": false,
      "t": 41600,
      "d": 933.3333333333358,
      "v": 61
    },
    {
      "midi": 77,
      "hit": false,
      "t": 41600,
      "d": 933.3333333333358,
      "v": 54
    },
    {
      "midi": 50,
      "hit": false,
      "t": 41600,
      "d": 3200,
      "v": 58
    },
    {
      "midi": 57,
      "hit": false,
      "t": 41600.000000000015,
      "d": 786.6666666666715,
      "v": 114
    },
    {
      "midi": 50,
      "hit": false,
      "t": 41600.000000000015,
      "d": 1566.6666666666642,
      "v": 114
    },
    {
      "midi": 38,
      "hit": false,
      "t": 41600.000000000015,
      "d": 1893.3333333333285,
      "v": 114
    },
    {
      "midi": 62,
      "hit": false,
      "t": 41633.33333333335,
      "d": 920,
      "v": 114
    },
    {
      "midi": 57,
      "hit": false,
      "t": 42000,
      "d": 1080,
      "v": 58
    },
    {
      "midi": 65,
      "hit": false,
      "t": 42400,
      "d": 1240,
      "v": 56
    },
    {
      "midi": 57,
      "hit": false,
      "t": 42400.00000000002,
      "d": 506.66666666665697,
      "v": 114
    },
    {
      "midi": 74,
      "hit": false,
      "t": 42800,
      "d": 806.6666666666642,
      "v": 75
    },
    {
      "midi": 81,
      "hit": false,
      "t": 42800,
      "d": 806.6666666666642,
      "v": 68
    },
    {
      "midi": 77,
      "hit": false,
      "t": 42800,
      "d": 820,
      "v": 70
    },
    {
      "midi": 69,
      "hit": false,
      "t": 42800,
      "d": 840,
      "v": 62
    },
    {
      "midi": 62,
      "hit": false,
      "t": 42800.000000000015,
      "d": 393.3333333333285,
      "v": 114
    },
    {
      "midi": 67,
      "hit": false,
      "t": 43200.00000000001,
      "d": 1093.3333333333358,
      "v": 114
    },
    {
      "midi": 50,
      "hit": false,
      "t": 43200.00000000001,
      "d": 1580,
      "v": 114
    },
    {
      "midi": 57,
      "hit": false,
      "t": 43600,
      "d": 1200,
      "v": 56
    },
    {
      "midi": 65,
      "hit": false,
      "t": 44000,
      "d": 800,
      "v": 68
    },
    {
      "midi": 65,
      "hit": false,
      "t": 44000.00000000001,
      "d": 786.6666666666642,
      "v": 114
    },
    {
      "midi": 69,
      "hit": false,
      "t": 44200,
      "d": 413.33333333333576,
      "v": 54
    },
    {
      "midi": 74,
      "hit": false,
      "t": 44600,
      "d": 200,
      "v": 75
    },
    {
      "midi": 43,
      "hit": false,
      "t": 44800,
      "d": 800,
      "v": 71
    },
    {
      "midi": 53,
      "hit": false,
      "t": 44800,
      "d": 1613.3333333333358,
      "v": 71
    },
    {
      "midi": 58,
      "hit": false,
      "t": 44800,
      "d": 1613.3333333333358,
      "v": 71
    },
    {
      "midi": 53,
      "hit": false,
      "t": 44800.00000000001,
      "d": 1533.3333333333358,
      "v": 114
    },
    {
      "midi": 58,
      "hit": false,
      "t": 44800.00000000001,
      "d": 1533.3333333333358,
      "v": 114
    },
    {
      "midi": 43,
      "hit": false,
      "t": 44800.00000000001,
      "d": 3340,
      "v": 114
    },
    {
      "midi": 62,
      "hit": false,
      "t": 44840.00000000001,
      "d": 26.66666666666424,
      "v": 114
    },
    {
      "midi": 50,
      "hit": false,
      "t": 45200,
      "d": 800,
      "v": 63
    },
    {
      "midi": 46,
      "hit": false,
      "t": 45600,
      "d": 813.3333333333358,
      "v": 71
    },
    {
      "midi": 67,
      "hit": false,
      "t": 45600.00000000001,
      "d": 393.33333333333576,
      "v": 114
    },
    {
      "midi": 50,
      "hit": false,
      "t": 46000,
      "d": 800,
      "v": 71
    },
    {
      "midi": 67,
      "hit": false,
      "t": 46000.00000000001,
      "d": 1133.3333333333358,
      "v": 114
    },
    {
      "midi": 58,
      "hit": false,
      "t": 46400.00000000001,
      "d": 1533.3333333333358,
      "v": 114
    },
    {
      "midi": 53,
      "hit": false,
      "t": 46400.00000000001,
      "d": 1720,
      "v": 114
    },
    {
      "midi": 62,
      "hit": false,
      "t": 46400.00000000001,
      "d": 1720,
      "v": 114
    },
    {
      "midi": 43,
      "hit": false,
      "t": 46413.333333333336,
      "d": 786.6666666666642,
      "v": 71
    },
    {
      "midi": 55,
      "hit": false,
      "t": 46413.333333333336,
      "d": 786.6666666666642,
      "v": 71
    },
    {
      "midi": 50,
      "hit": false,
      "t": 46800,
      "d": 800,
      "v": 71
    },
    {
      "midi": 57,
      "hit": false,
      "t": 46800,
      "d": 800,
      "v": 71
    },
    {
      "midi": 46,
      "hit": false,
      "t": 47200,
      "d": 800,
      "v": 71
    },
    {
      "midi": 58,
      "hit": false,
      "t": 47200,
      "d": 800,
      "v": 71
    },
    {
      "midi": 67,
      "hit": false,
      "t": 47200.00000000001,
      "d": 573.3333333333358,
      "v": 114
    },
    {
      "midi": 50,
      "hit": false,
      "t": 47600,
      "d": 400,
      "v": 71
    },
    {
      "midi": 62,
      "hit": false,
      "t": 47600,
      "d": 400,
      "v": 71
    },
    {
      "midi": 65,
      "hit": false,
      "t": 47600.00000000001,
      "d": 520,
      "v": 114
    },
    {
      "midi": 58,
      "hit": false,
      "t": 48000.00000000001,
      "d": 1753.3333333333358,
      "v": 114
    },
    {
      "midi": 48,
      "hit": false,
      "t": 48000.00000000001,
      "d": 3320,
      "v": 114
    },
    {
      "midi": 55,
      "hit": false,
      "t": 48000.00000000001,
      "d": 3320,
      "v": 114
    },
    {
      "midi": 64,
      "hit": false,
      "t": 48006.666666666664,
      "d": 846.6666666666642,
      "v": 58
    },
    {
      "midi": 67,
      "hit": false,
      "t": 48013.33333333333,
      "d": 833.3333333333358,
      "v": 51
    },
    {
      "midi": 70,
      "hit": false,
      "t": 48013.33333333333,
      "d": 846.6666666666642,
      "v": 53
    },
    {
      "midi": 62,
      "hit": false,
      "t": 48013.33333333333,
      "d": 873.3333333333285,
      "v": 39
    },
    {
      "midi": 55,
      "hit": false,
      "t": 48019.99999999999,
      "d": 913.3333333333285,
      "v": 39
    },
    {
      "midi": 48,
      "hit": false,
      "t": 48033.33333333333,
      "d": 853.3333333333285,
      "v": 36
    },
    {
      "midi": 67,
      "hit": false,
      "t": 48040.00000000001,
      "d": 520,
      "v": 114
    },
    {
      "midi": 60,
      "hit": false,
      "t": 48400.00000000001,
      "d": 506.66666666666424,
      "v": 114
    },
    {
      "midi": 64,
      "hit": false,
      "t": 48800.00000000001,
      "d": 746.6666666666642,
      "v": 114
    },
    {
      "midi": 62,
      "hit": false,
      "t": 49206.66666666666,
      "d": 1393.3333333333358,
      "v": 49
    },
    {
      "midi": 67,
      "hit": false,
      "t": 49206.66666666666,
      "d": 1993.3333333333358,
      "v": 50
    },
    {
      "midi": 70,
      "hit": false,
      "t": 49206.66666666666,
      "d": 1993.3333333333358,
      "v": 68
    },
    {
      "midi": 64,
      "hit": false,
      "t": 49219.99999999999,
      "d": 1980,
      "v": 63
    },
    {
      "midi": 62,
      "hit": false,
      "t": 49600.00000000001,
      "d": 886.6666666666642,
      "v": 114
    },
    {
      "midi": 64,
      "hit": false,
      "t": 49640.00000000001,
      "d": 886.6666666666642,
      "v": 114
    },
    {
      "midi": 48,
      "hit": false,
      "t": 49986.66666666666,
      "d": 1213.3333333333358,
      "v": 32
    },
    {
      "midi": 58,
      "hit": false,
      "t": 50400.00000000001,
      "d": 593.3333333333358,
      "v": 114
    },
    {
      "midi": 55,
      "hit": false,
      "t": 50439.99999999999,
      "d": 760,
      "v": 57
    },
    {
      "midi": 60,
      "hit": false,
      "t": 50800.00000000001,
      "d": 573.3333333333358,
      "v": 114
    },
    {
      "midi": 62,
      "hit": false,
      "t": 50819.99999999999,
      "d": 380,
      "v": 78
    },
    {
      "midi": 72,
      "hit": false,
      "t": 51199.99999999999,
      "d": 346.66666666666424,
      "v": 85
    },
    {
      "midi": 50,
      "hit": false,
      "t": 51199.99999999999,
      "d": 3200,
      "v": 59
    },
    {
      "midi": 69,
      "hit": false,
      "t": 51200.00000000001,
      "d": 920,
      "v": 114
    },
    {
      "midi": 50,
      "hit": false,
      "t": 51200.00000000001,
      "d": 3286.6666666666715,
      "v": 114
    },
    {
      "midi": 60,
      "hit": false,
      "t": 51233.33333333333,
      "d": 2086.6666666666642,
      "v": 90
    },
    {
      "midi": 67,
      "hit": false,
      "t": 51246.66666666667,
      "d": 1026.6666666666715,
      "v": 114
    },
    {
      "midi": 64,
      "hit": false,
      "t": 51246.66666666667,
      "d": 1046.6666666666715,
      "v": 114
    },
    {
      "midi": 67,
      "hit": false,
      "t": 51399.99999999999,
      "d": 1046.6666666666642,
      "v": 75
    },
    {
      "midi": 55,
      "hit": false,
      "t": 51399.99999999999,
      "d": 3000,
      "v": 59
    },
    {
      "midi": 64,
      "hit": false,
      "t": 51599.99999999999,
      "d": 946.6666666666642,
      "v": 64
    },
    {
      "midi": 72,
      "hit": false,
      "t": 52000.00000000001,
      "d": 553.3333333333358,
      "v": 114
    },
    {
      "midi": 57,
      "hit": false,
      "t": 52000.00000000001,
      "d": 2486.6666666666715,
      "v": 114
    },
    {
      "midi": 69,
      "hit": false,
      "t": 52400.00000000001,
      "d": 886.6666666666642,
      "v": 114
    },
    {
      "midi": 67,
      "hit": false,
      "t": 52440.00000000001,
      "d": 2000,
      "v": 114
    },
    {
      "midi": 64,
      "hit": false,
      "t": 52440.00000000001,
      "d": 2033.3333333333358,
      "v": 114
    },
    {
      "midi": 60,
      "hit": false,
      "t": 52800.00000000001,
      "d": 1633.3333333333358,
      "v": 114
    },
    {
      "midi": 72,
      "hit": false,
      "t": 53200.00000000001,
      "d": 506.66666666666424,
      "v": 114
    },
    {
      "midi": 60,
      "hit": false,
      "t": 53399.99999999999,
      "d": 1000,
      "v": 83
    },
    {
      "midi": 64,
      "hit": false,
      "t": 53599.99999999999,
      "d": 413.33333333333576,
      "v": 48
    },
    {
      "midi": 69,
      "hit": false,
      "t": 53600.00000000001,
      "d": 540,
      "v": 114
    },
    {
      "midi": 67,
      "hit": false,
      "t": 53799.99999999999,
      "d": 440,
      "v": 74
    },
    {
      "midi": 72,
      "hit": false,
      "t": 53999.99999999999,
      "d": 300,
      "v": 73
    },
    {
      "midi": 71,
      "hit": false,
      "t": 54000.00000000001,
      "d": 1320.0000000000073,
      "v": 114
    },
    {
      "midi": 74,
      "hit": false,
      "t": 54033.33333333334,
      "d": 1266.6666666666715,
      "v": 114
    },
    {
      "midi": 76,
      "hit": false,
      "t": 54199.99999999999,
      "d": 200,
      "v": 71
    },
    {
      "midi": 45,
      "hit": false,
      "t": 54399.99999999999,
      "d": 733.3333333333358,
      "v": 70
    },
    {
      "midi": 67,
      "hit": false,
      "t": 54399.99999999999,
      "d": 1600,
      "v": 70
    },
    {
      "midi": 45,
      "hit": false,
      "t": 54400.00000000001,
      "d": 2226.6666666666715,
      "v": 114
    },
    {
      "midi": 59,
      "hit": false,
      "t": 54799.99999999999,
      "d": 786.6666666666642,
      "v": 70
    },
    {
      "midi": 55,
      "hit": false,
      "t": 54800.000000000015,
      "d": 1133.3333333333358,
      "v": 114
    },
    {
      "midi": 55,
      "hit": false,
      "t": 55199.99999999999,
      "d": 766.6666666666642,
      "v": 70
    },
    {
      "midi": 64,
      "hit": false,
      "t": 55200.000000000015,
      "d": 393.33333333333576,
      "v": 114
    },
    {
      "midi": 59,
      "hit": false,
      "t": 55599.99999999999,
      "d": 400,
      "v": 70
    },
    {
      "midi": 67,
      "hit": false,
      "t": 55600.000000000015,
      "d": 1133.3333333333285,
      "v": 114
    },
    {
      "midi": 71,
      "hit": false,
      "t": 55633.33333333335,
      "d": 1286.666666666657,
      "v": 114
    },
    {
      "midi": 43,
      "hit": false,
      "t": 55999.99999999999,
      "d": 733.3333333333358,
      "v": 70
    },
    {
      "midi": 58,
      "hit": false,
      "t": 55999.99999999999,
      "d": 1600,
      "v": 70
    },
    {
      "midi": 52,
      "hit": false,
      "t": 56000.000000000015,
      "d": 1653.3333333333285,
      "v": 114
    },
    {
      "midi": 50,
      "hit": false,
      "t": 56399.99999999999,
      "d": 786.6666666666642,
      "v": 70
    },
    {
      "midi": 46,
      "hit": false,
      "t": 56799.99999999999,
      "d": 766.6666666666642,
      "v": 70
    },
    {
      "midi": 67,
      "hit": false,
      "t": 56800.00000000001,
      "d": 553.3333333333358,
      "v": 114
    },
    {
      "midi": 45,
      "hit": false,
      "t": 56800.00000000001,
      "d": 906.6666666666715,
      "v": 114
    },
    {
      "midi": 50,
      "hit": false,
      "t": 57199.99999999999,
      "d": 400,
      "v": 70
    },
    {
      "midi": 69,
      "hit": false,
      "t": 57200.00000000001,
      "d": 393.33333333333576,
      "v": 114
    },
    {
      "midi": 43,
      "hit": false,
      "t": 57599.99999999999,
      "d": 566.6666666666642,
      "v": 71
    },
    {
      "midi": 53,
      "hit": false,
      "t": 57599.99999999999,
      "d": 2146.6666666666642,
      "v": 71
    },
    {
      "midi": 58,
      "hit": false,
      "t": 57599.99999999999,
      "d": 2466.6666666666642,
      "v": 71
    },
    {
      "midi": 58,
      "hit": false,
      "t": 57600.00000000001,
      "d": 1480.0000000000073,
      "v": 114
    },
    {
      "midi": 62,
      "hit": false,
      "t": 57600.00000000001,
      "d": 1546.6666666666715,
      "v": 114
    },
    {
      "midi": 65,
      "hit": false,
      "t": 57600.00000000001,
      "d": 1566.6666666666715,
      "v": 114
    },
    {
      "midi": 53,
      "hit": false,
      "t": 57600.00000000001,
      "d": 3353.3333333333285,
      "v": 114
    },
    {
      "midi": 43,
      "hit": false,
      "t": 57600.00000000001,
      "d": 3373.3333333333285,
      "v": 114
    },
    {
      "midi": 70,
      "hit": false,
      "t": 57640.00000000001,
      "d": 886.6666666666715,
      "v": 114
    },
    {
      "midi": 50,
      "hit": false,
      "t": 57999.99999999999,
      "d": 506.66666666666424,
      "v": 71
    },
    {
      "midi": 46,
      "hit": false,
      "t": 58399.99999999999,
      "d": 533.3333333333358,
      "v": 71
    },
    {
      "midi": 69,
      "hit": false,
      "t": 58400.000000000015,
      "d": 606.6666666666642,
      "v": 114
    },
    {
      "midi": 50,
      "hit": false,
      "t": 58799.99999999999,
      "d": 506.66666666666424,
      "v": 71
    },
    {
      "midi": 70,
      "hit": false,
      "t": 58800.000000000015,
      "d": 993.3333333333358,
      "v": 114
    },
    {
      "midi": 43,
      "hit": false,
      "t": 59199.99999999999,
      "d": 506.66666666666424,
      "v": 71
    },
    {
      "midi": 62,
      "hit": false,
      "t": 59200.000000000015,
      "d": 1513.3333333333285,
      "v": 114
    },
    {
      "midi": 65,
      "hit": false,
      "t": 59233.33333333335,
      "d": 1719.9999999999854,
      "v": 114
    },
    {
      "midi": 50,
      "hit": false,
      "t": 59599.99999999999,
      "d": 546.6666666666642,
      "v": 71
    },
    {
      "midi": 69,
      "hit": false,
      "t": 59600.000000000015,
      "d": 906.6666666666642,
      "v": 114
    },
    {
      "midi": 55,
      "hit": false,
      "t": 59999.99999999999,
      "d": 306.66666666666424,
      "v": 71
    },
    {
      "midi": 46,
      "hit": false,
      "t": 59999.99999999999,
      "d": 400,
      "v": 71
    },
    {
      "midi": 57,
      "hit": false,
      "t": 60199.99999999999,
      "d": 373.33333333333576,
      "v": 71
    },
    {
      "midi": 50,
      "hit": false,
      "t": 60399.99999999999,
      "d": 400,
      "v": 68
    },
    {
      "midi": 58,
      "hit": false,
      "t": 60399.99999999999,
      "d": 400,
      "v": 71
    },
    {
      "midi": 67,
      "hit": false,
      "t": 60400.000000000015,
      "d": 393.3333333333285,
      "v": 114
    },
    {
      "midi": 67,
      "hit": false,
      "t": 60799.99999999999,
      "d": 1200,
      "v": 64
    },
    {
      "midi": 64,
      "hit": false,
      "t": 60799.99999999999,
      "d": 1240,
      "v": 65
    },
    {
      "midi": 48,
      "hit": false,
      "t": 60799.99999999999,
      "d": 1246.6666666666642,
      "v": 38
    },
    {
      "midi": 55,
      "hit": false,
      "t": 60799.99999999999,
      "d": 1246.6666666666642,
      "v": 44
    },
    {
      "midi": 58,
      "hit": false,
      "t": 60799.99999999999,
      "d": 1320,
      "v": 42
    },
    {
      "midi": 58,
      "hit": false,
      "t": 60800.00000000001,
      "d": 66.66666666666424,
      "v": 114
    },
    {
      "midi": 62,
      "hit": false,
      "t": 60800.00000000001,
      "d": 1566.6666666666642,
      "v": 114
    },
    {
      "midi": 55,
      "hit": false,
      "t": 60800.00000000001,
      "d": 3286.6666666666715,
      "v": 114
    },
    {
      "midi": 48,
      "hit": false,
      "t": 60800.00000000001,
      "d": 3320.0000000000073,
      "v": 114
    },
    {
      "midi": 64,
      "hit": false,
      "t": 60840.00000000001,
      "d": 1526.6666666666642,
      "v": 114
    },
    {
      "midi": 74,
      "hit": false,
      "t": 61999.99999999999,
      "d": 1160,
      "v": 73
    },
    {
      "midi": 58,
      "hit": false,
      "t": 62400.00000000001,
      "d": 866.6666666666642,
      "v": 114
    },
    {
      "midi": 62,
      "hit": false,
      "t": 62400.00000000001,
      "d": 953.3333333333358,
      "v": 114
    },
    {
      "midi": 64,
      "hit": false,
      "t": 62433.33333333334,
      "d": 906.6666666666642,
      "v": 114
    },
    {
      "midi": 62,
      "hit": false,
      "t": 63199.99999999999,
      "d": 746.6666666666642,
      "v": 73
    },
    {
      "midi": 65,
      "hit": false,
      "t": 63200.00000000001,
      "d": 573.3333333333358,
      "v": 114
    },
    {
      "midi": 64,
      "hit": false,
      "t": 63399.99999999999,
      "d": 566.6666666666642,
      "v": 75
    },
    {
      "midi": 67,
      "hit": false,
      "t": 63599.99999999999,
      "d": 240,
      "v": 71
    },
    {
      "midi": 67,
      "hit": false,
      "t": 63600.00000000001,
      "d": 553.333333333343,
      "v": 114
    },
    {
      "midi": 74,
      "hit": false,
      "t": 63799.99999999999,
      "d": 200,
      "v": 90
    },
    {
      "midi": 52,
      "hit": false,
      "t": 63999.99999999999,
      "d": 560,
      "v": 71
    },
    {
      "midi": 64,
      "hit": false,
      "t": 63999.99999999999,
      "d": 1000,
      "v": 71
    },
    {
      "midi": 62,
      "hit": false,
      "t": 64000.00000000001,
      "d": 1720.0000000000073,
      "v": 114
    },
    {
      "midi": 57,
      "hit": false,
      "t": 64000.00000000001,
      "d": 1740.0000000000073,
      "v": 114
    },
    {
      "midi": 52,
      "hit": false,
      "t": 64000.00000000001,
      "d": 1773.3333333333358,
      "v": 114
    },
    {
      "midi": 40,
      "hit": false,
      "t": 64000.00000000001,
      "d": 1860.0000000000073,
      "v": 114
    },
    {
      "midi": 69,
      "hit": false,
      "t": 64033.33333333334,
      "d": 753.333333333343,
      "v": 114
    },
    {
      "midi": 57,
      "hit": false,
      "t": 64799.99999999999,
      "d": 333.33333333333576,
      "v": 67
    },
    {
      "midi": 50,
      "hit": false,
      "t": 64799.99999999999,
      "d": 573.3333333333358,
      "v": 71
    },
    {
      "midi": 69,
      "hit": false,
      "t": 64800.00000000002,
      "d": 606.6666666666642,
      "v": 114
    },
    {
      "midi": 59,
      "hit": false,
      "t": 64999.99999999999,
      "d": 373.33333333333576,
      "v": 71
    },
    {
      "midi": 62,
      "hit": false,
      "t": 65199.99999999999,
      "d": 346.66666666666424,
      "v": 71
    },
    {
      "midi": 52,
      "hit": false,
      "t": 65199.99999999999,
      "d": 399.9999999999927,
      "v": 71
    },
    {
      "midi": 67,
      "hit": false,
      "t": 65200.00000000002,
      "d": 1373.3333333333212,
      "v": 114
    },
    {
      "midi": 64,
      "hit": false,
      "t": 65399.99999999999,
      "d": 199.99999999999272,
      "v": 71
    },
    {
      "midi": 45,
      "hit": false,
      "t": 65599.99999999999,
      "d": 560,
      "v": 71
    },
    {
      "midi": 64,
      "hit": false,
      "t": 65599.99999999999,
      "d": 1000,
      "v": 71
    },
    {
      "midi": 55,
      "hit": false,
      "t": 65600.00000000001,
      "d": 1720,
      "v": 114
    },
    {
      "midi": 61,
      "hit": false,
      "t": 65600.00000000001,
      "d": 1740,
      "v": 114
    },
    {
      "midi": 45,
      "hit": false,
      "t": 65600.00000000001,
      "d": 1773.3333333333285,
      "v": 114
    },
    {
      "midi": 52,
      "hit": false,
      "t": 65999.99999999999,
      "d": 533.3333333333285,
      "v": 66
    },
    {
      "midi": 57,
      "hit": false,
      "t": 66399.99999999999,
      "d": 333.3333333333285,
      "v": 67
    },
    {
      "midi": 49,
      "hit": false,
      "t": 66399.99999999999,
      "d": 573.3333333333285,
      "v": 71
    },
    {
      "midi": 69,
      "hit": false,
      "t": 66400.00000000001,
      "d": 540,
      "v": 114
    },
    {
      "midi": 59,
      "hit": false,
      "t": 66599.99999999999,
      "d": 373.3333333333285,
      "v": 71
    },
    {
      "midi": 61,
      "hit": false,
      "t": 66799.99999999999,
      "d": 346.6666666666715,
      "v": 71
    },
    {
      "midi": 52,
      "hit": false,
      "t": 66799.99999999999,
      "d": 400,
      "v": 71
    },
    {
      "midi": 65,
      "hit": false,
      "t": 66800.00000000001,
      "d": 1353.3333333333285,
      "v": 114
    },
    {
      "midi": 64,
      "hit": false,
      "t": 66999.99999999999,
      "d": 200,
      "v": 71
    },
    {
      "midi": 46,
      "hit": false,
      "t": 67199.99999999999,
      "d": 560,
      "v": 71
    },
    {
      "midi": 65,
      "hit": false,
      "t": 67199.99999999999,
      "d": 1000,
      "v": 71
    },
    {
      "midi": 58,
      "hit": false,
      "t": 67200.00000000001,
      "d": 786.666666666657,
      "v": 114
    },
    {
      "midi": 46,
      "hit": false,
      "t": 67200.00000000001,
      "d": 1933.3333333333285,
      "v": 114
    },
    {
      "midi": 62,
      "hit": false,
      "t": 67240.00000000001,
      "d": 886.666666666657,
      "v": 114
    },
    {
      "midi": 53,
      "hit": false,
      "t": 67599.99999999999,
      "d": 533.3333333333285,
      "v": 66
    },
    {
      "midi": 58,
      "hit": false,
      "t": 67999.99999999999,
      "d": 333.3333333333285,
      "v": 67
    },
    {
      "midi": 50,
      "hit": false,
      "t": 67999.99999999999,
      "d": 573.3333333333285,
      "v": 71
    },
    {
      "midi": 58,
      "hit": false,
      "t": 68000,
      "d": 573.333333333343,
      "v": 114
    },
    {
      "midi": 60,
      "hit": false,
      "t": 68199.99999999999,
      "d": 373.3333333333285,
      "v": 71
    },
    {
      "midi": 62,
      "hit": false,
      "t": 68399.99999999999,
      "d": 346.6666666666715,
      "v": 71
    },
    {
      "midi": 53,
      "hit": false,
      "t": 68399.99999999999,
      "d": 400,
      "v": 71
    },
    {
      "midi": 62,
      "hit": false,
      "t": 68400.00000000001,
      "d": 553.3333333333285,
      "v": 114
    },
    {
      "midi": 65,
      "hit": false,
      "t": 68599.99999999999,
      "d": 200,
      "v": 71
    },
    {
      "midi": 53,
      "hit": false,
      "t": 68799.99999999999,
      "d": 766.6666666666715,
      "v": 45
    },
    {
      "midi": 56,
      "hit": false,
      "t": 68799.99999999999,
      "d": 766.6666666666715,
      "v": 65
    },
    {
      "midi": 62,
      "hit": false,
      "t": 68799.99999999999,
      "d": 800,
      "v": 64
    },
    {
      "midi": 35,
      "hit": false,
      "t": 68799.99999999999,
      "d": 1600,
      "v": 60
    },
    {
      "midi": 65,
      "hit": false,
      "t": 68800.00000000001,
      "d": 393.3333333333285,
      "v": 114
    },
    {
      "midi": 41,
      "hit": false,
      "t": 69199.99999999999,
      "d": 1200,
      "v": 57
    },
    {
      "midi": 35,
      "hit": false,
      "t": 69200.00000000001,
      "d": 1173.3333333333285,
      "v": 114
    },
    {
      "midi": 47,
      "hit": false,
      "t": 69200.00000000001,
      "d": 1173.3333333333285,
      "v": 114
    },
    {
      "midi": 59,
      "hit": false,
      "t": 69200.00000000001,
      "d": 1173.3333333333285,
      "v": 114
    },
    {
      "midi": 62,
      "hit": false,
      "t": 69200.00000000001,
      "d": 1173.3333333333285,
      "v": 114
    },
    {
      "midi": 65,
      "hit": false,
      "t": 69240.00000000001,
      "d": 1080,
      "v": 114
    },
    {
      "midi": 47,
      "hit": false,
      "t": 69599.99999999999,
      "d": 800,
      "v": 60
    },
    {
      "midi": 50,
      "hit": false,
      "t": 69999.99999999999,
      "d": 400,
      "v": 60
    },
    {
      "midi": 57,
      "hit": false,
      "t": 70400.00000000001,
      "d": 1480,
      "v": 114
    },
    {
      "midi": 60,
      "hit": false,
      "t": 70400.00000000001,
      "d": 1513.3333333333285,
      "v": 114
    },
    {
      "midi": 65,
      "hit": false,
      "t": 70400.00000000001,
      "d": 1546.666666666657,
      "v": 114
    },
    {
      "midi": 48,
      "hit": false,
      "t": 70400.00000000001,
      "d": 3133.333333333314,
      "v": 114
    },
    {
      "midi": 36,
      "hit": false,
      "t": 70400.00000000001,
      "d": 3339.9999999999854,
      "v": 114
    },
    {
      "midi": 69,
      "hit": false,
      "t": 70406.66666666666,
      "d": 840,
      "v": 58
    },
    {
      "midi": 72,
      "hit": false,
      "t": 70413.33333333333,
      "d": 846.666666666657,
      "v": 53
    },
    {
      "midi": 65,
      "hit": false,
      "t": 70413.33333333333,
      "d": 873.3333333333285,
      "v": 39
    },
    {
      "midi": 57,
      "hit": false,
      "t": 70420,
      "d": 913.3333333333285,
      "v": 39
    },
    {
      "midi": 36,
      "hit": false,
      "t": 70433.33333333333,
      "d": 853.3333333333285,
      "v": 36
    },
    {
      "midi": 69,
      "hit": false,
      "t": 70440.00000000001,
      "d": 746.6666666666715,
      "v": 114
    },
    {
      "midi": 69,
      "hit": false,
      "t": 71200.00000000001,
      "d": 393.3333333333285,
      "v": 114
    },
    {
      "midi": 69,
      "hit": false,
      "t": 71600.00000000001,
      "d": 1113.333333333314,
      "v": 114
    },
    {
      "midi": 65,
      "hit": false,
      "t": 71606.66666666666,
      "d": 1393.3333333333285,
      "v": 49
    },
    {
      "midi": 69,
      "hit": false,
      "t": 71606.66666666666,
      "d": 1993.3333333333285,
      "v": 50
    },
    {
      "midi": 72,
      "hit": false,
      "t": 71606.66666666666,
      "d": 1993.3333333333285,
      "v": 68
    },
    {
      "midi": 60,
      "hit": false,
      "t": 72000,
      "d": 1686.6666666666715,
      "v": 114
    },
    {
      "midi": 57,
      "hit": false,
      "t": 72000,
      "d": 1773.3333333333285,
      "v": 114
    },
    {
      "midi": 65,
      "hit": false,
      "t": 72040,
      "d": 1513.3333333333285,
      "v": 114
    },
    {
      "midi": 36,
      "hit": false,
      "t": 72386.66666666666,
      "d": 1213.3333333333285,
      "v": 32
    },
    {
      "midi": 69,
      "hit": false,
      "t": 72800,
      "d": 573.3333333333285,
      "v": 114
    },
    {
      "midi": 57,
      "hit": false,
      "t": 72839.99999999999,
      "d": 760,
      "v": 57
    },
    {
      "midi": 70,
      "hit": false,
      "t": 73200,
      "d": 1406.666666666657,
      "v": 114
    },
    {
      "midi": 65,
      "hit": false,
      "t": 73219.99999999999,
      "d": 380,
      "v": 78
    },
    {
      "midi": 36,
      "hit": false,
      "t": 73599.99999999999,
      "d": 726.6666666666715,
      "v": 72
    },
    {
      "midi": 58,
      "hit": false,
      "t": 73599.99999999999,
      "d": 1093.3333333333285,
      "v": 72
    },
    {
      "midi": 53,
      "hit": false,
      "t": 73599.99999999999,
      "d": 1146.666666666657,
      "v": 72
    },
    {
      "midi": 58,
      "hit": false,
      "t": 73600,
      "d": 786.666666666657,
      "v": 114
    },
    {
      "midi": 62,
      "hit": false,
      "t": 73600,
      "d": 1619.9999999999854,
      "v": 114
    },
    {
      "midi": 55,
      "hit": false,
      "t": 73600,
      "d": 3319.9999999999854,
      "v": 114
    },
    {
      "midi": 48,
      "hit": false,
      "t": 73600,
      "d": 3353.333333333314,
      "v": 114
    },
    {
      "midi": 50,
      "hit": false,
      "t": 73999.99999999999,
      "d": 693.3333333333285,
      "v": 58
    },
    {
      "midi": 46,
      "hit": false,
      "t": 74399.99999999999,
      "d": 706.666666666657,
      "v": 72
    },
    {
      "midi": 62,
      "hit": false,
      "t": 74399.99999999999,
      "d": 799.9999999999854,
      "v": 72
    },
    {
      "midi": 67,
      "hit": false,
      "t": 74399.99999999999,
      "d": 553.3333333333285,
      "v": 114
    },
    {
      "midi": 50,
      "hit": false,
      "t": 74799.99999999997,
      "d": 680,
      "v": 72
    },
    {
      "midi": 65,
      "hit": false,
      "t": 74799.99999999999,
      "d": 473.3333333333285,
      "v": 114
    },
    {
      "midi": 55,
      "hit": false,
      "t": 75199.99999999997,
      "d": 666.6666666666715,
      "v": 72
    },
    {
      "midi": 36,
      "hit": false,
      "t": 75199.99999999997,
      "d": 680,
      "v": 71
    },
    {
      "midi": 58,
      "hit": false,
      "t": 75199.99999999999,
      "d": 1773.3333333333285,
      "v": 114
    },
    {
      "midi": 62,
      "hit": false,
      "t": 75239.99999999999,
      "d": 1580,
      "v": 114
    },
    {
      "midi": 50,
      "hit": false,
      "t": 75599.99999999997,
      "d": 706.6666666666715,
      "v": 67
    },
    {
      "midi": 57,
      "hit": false,
      "t": 75599.99999999997,
      "d": 706.6666666666715,
      "v": 72
    },
    {
      "midi": 46,
      "hit": false,
      "t": 75999.99999999997,
      "d": 680,
      "v": 72
    },
    {
      "midi": 58,
      "hit": false,
      "t": 75999.99999999997,
      "d": 693.3333333333285,
      "v": 72
    },
    {
      "midi": 64,
      "hit": false,
      "t": 75999.99999999999,
      "d": 553.3333333333285,
      "v": 114
    },
    {
      "midi": 50,
      "hit": false,
      "t": 76399.99999999997,
      "d": 400,
      "v": 72
    },
    {
      "midi": 62,
      "hit": false,
      "t": 76399.99999999997,
      "d": 400,
      "v": 72
    },
    {
      "midi": 65,
      "hit": false,
      "t": 76399.99999999999,
      "d": 1966.666666666657,
      "v": 114
    },
    {
      "midi": 46,
      "hit": false,
      "t": 76799.99999999997,
      "d": 726.6666666666715,
      "v": 72
    },
    {
      "midi": 62,
      "hit": false,
      "t": 76799.99999999997,
      "d": 1093.3333333333285,
      "v": 72
    },
    {
      "midi": 57,
      "hit": false,
      "t": 76799.99999999997,
      "d": 1146.666666666657,
      "v": 72
    },
    {
      "midi": 57,
      "hit": false,
      "t": 76799.99999999999,
      "d": 1566.666666666657,
      "v": 114
    },
    {
      "midi": 53,
      "hit": false,
      "t": 76799.99999999999,
      "d": 3339.999999999971,
      "v": 114
    },
    {
      "midi": 46,
      "hit": false,
      "t": 76799.99999999999,
      "d": 3393.3333333332994,
      "v": 114
    },
    {
      "midi": 62,
      "hit": false,
      "t": 76839.99999999999,
      "d": 1526.666666666657,
      "v": 114
    },
    {
      "midi": 53,
      "hit": false,
      "t": 77199.99999999997,
      "d": 693.3333333333285,
      "v": 58
    },
    {
      "midi": 50,
      "hit": false,
      "t": 77599.99999999997,
      "d": 706.666666666657,
      "v": 72
    },
    {
      "midi": 65,
      "hit": false,
      "t": 77599.99999999997,
      "d": 799.9999999999854,
      "v": 72
    },
    {
      "midi": 53,
      "hit": false,
      "t": 77999.99999999996,
      "d": 680,
      "v": 72
    },
    {
      "midi": 58,
      "hit": false,
      "t": 78399.99999999996,
      "d": 666.6666666666715,
      "v": 72
    },
    {
      "midi": 46,
      "hit": false,
      "t": 78399.99999999996,
      "d": 680,
      "v": 71
    },
    {
      "midi": 62,
      "hit": false,
      "t": 78399.99999999997,
      "d": 786.666666666657,
      "v": 114
    },
    {
      "midi": 57,
      "hit": false,
      "t": 78399.99999999997,
      "d": 1026.666666666657,
      "v": 114
    },
    {
      "midi": 65,
      "hit": false,
      "t": 78433.3333333333,
      "d": 906.666666666657,
      "v": 114
    },
    {
      "midi": 53,
      "hit": false,
      "t": 78799.99999999996,
      "d": 706.6666666666715,
      "v": 67
    },
    {
      "midi": 60,
      "hit": false,
      "t": 78799.99999999996,
      "d": 706.6666666666715,
      "v": 72
    },
    {
      "midi": 50,
      "hit": false,
      "t": 79199.99999999996,
      "d": 680,
      "v": 72
    },
    {
      "midi": 62,
      "hit": false,
      "t": 79199.99999999996,
      "d": 693.3333333333285,
      "v": 72
    },
    {
      "midi": 62,
      "hit": false,
      "t": 79199.99999999996,
      "d": 506.6666666666715,
      "v": 114
    },
    {
      "midi": 53,
      "hit": false,
      "t": 79599.99999999996,
      "d": 400,
      "v": 72
    },
    {
      "midi": 65,
      "hit": false,
      "t": 79599.99999999996,
      "d": 400,
      "v": 72
    },
    {
      "midi": 69,
      "hit": false,
      "t": 79599.99999999996,
      "d": 606.666666666657,
      "v": 114
    },
    {
      "midi": 64,
      "hit": false,
      "t": 79999.99999999996,
      "d": 1200,
      "v": 64
    },
    {
      "midi": 60,
      "hit": false,
      "t": 79999.99999999996,
      "d": 1240,
      "v": 65
    },
    {
      "midi": 45,
      "hit": false,
      "t": 79999.99999999996,
      "d": 1246.6666666666715,
      "v": 38
    },
    {
      "midi": 52,
      "hit": false,
      "t": 79999.99999999996,
      "d": 1246.6666666666715,
      "v": 44
    },
    {
      "midi": 55,
      "hit": false,
      "t": 79999.99999999996,
      "d": 1320,
      "v": 42
    },
    {
      "midi": 60,
      "hit": false,
      "t": 79999.99999999996,
      "d": 1173.3333333333285,
      "v": 114
    },
    {
      "midi": 64,
      "hit": false,
      "t": 79999.99999999996,
      "d": 1173.3333333333285,
      "v": 114
    },
    {
      "midi": 55,
      "hit": false,
      "t": 79999.99999999996,
      "d": 3113.333333333343,
      "v": 114
    },
    {
      "midi": 52,
      "hit": false,
      "t": 79999.99999999996,
      "d": 3233.3333333333285,
      "v": 114
    },
    {
      "midi": 45,
      "hit": false,
      "t": 79999.99999999996,
      "d": 3253.3333333333285,
      "v": 114
    },
    {
      "midi": 67,
      "hit": false,
      "t": 80039.99999999996,
      "d": 1140,
      "v": 114
    },
    {
      "midi": 69,
      "hit": false,
      "t": 81199.99999999996,
      "d": 1160,
      "v": 73
    },
    {
      "midi": 60,
      "hit": false,
      "t": 81199.99999999996,
      "d": 393.3333333333285,
      "v": 114
    },
    {
      "midi": 60,
      "hit": false,
      "t": 81599.99999999996,
      "d": 1046.6666666666715,
      "v": 114
    },
    {
      "midi": 64,
      "hit": false,
      "t": 81639.99999999996,
      "d": 746.6666666666715,
      "v": 114
    },
    {
      "midi": 57,
      "hit": false,
      "t": 82399.99999999996,
      "d": 746.6666666666715,
      "v": 73
    },
    {
      "midi": 64,
      "hit": false,
      "t": 82399.99999999996,
      "d": 786.6666666666715,
      "v": 114
    },
    {
      "midi": 60,
      "hit": false,
      "t": 82599.99999999996,
      "d": 566.6666666666715,
      "v": 75
    },
    {
      "midi": 64,
      "hit": false,
      "t": 82799.99999999996,
      "d": 240,
      "v": 71
    },
    {
      "midi": 69,
      "hit": false,
      "t": 82999.99999999996,
      "d": 200,
      "v": 90
    },
    {
      "midi": 43,
      "hit": false,
      "t": 83199.99999999996,
      "d": 566.6666666666715,
      "v": 71
    },
    {
      "midi": 53,
      "hit": false,
      "t": 83199.99999999996,
      "d": 2146.6666666666715,
      "v": 71
    },
    {
      "midi": 58,
      "hit": false,
      "t": 83199.99999999996,
      "d": 2466.6666666666715,
      "v": 71
    },
    {
      "midi": 58,
      "hit": false,
      "t": 83199.99999999996,
      "d": 1566.666666666657,
      "v": 114
    },
    {
      "midi": 62,
      "hit": false,
      "t": 83199.99999999996,
      "d": 1566.666666666657,
      "v": 114
    },
    {
      "midi": 55,
      "hit": false,
      "t": 83199.99999999996,
      "d": 3133.333333333343,
      "v": 114
    },
    {
      "midi": 50,
      "hit": false,
      "t": 83199.99999999996,
      "d": 3306.666666666686,
      "v": 114
    },
    {
      "midi": 43,
      "hit": false,
      "t": 83199.99999999996,
      "d": 3393.3333333333576,
      "v": 114
    },
    {
      "midi": 65,
      "hit": false,
      "t": 83239.99999999996,
      "d": 1526.666666666657,
      "v": 114
    },
    {
      "midi": 50,
      "hit": false,
      "t": 83599.99999999996,
      "d": 506.6666666666715,
      "v": 71
    },
    {
      "midi": 46,
      "hit": false,
      "t": 83999.99999999996,
      "d": 533.3333333333285,
      "v": 71
    },
    {
      "midi": 50,
      "hit": false,
      "t": 84399.99999999996,
      "d": 506.6666666666715,
      "v": 71
    },
    {
      "midi": 62,
      "hit": false,
      "t": 84799.99999999994,
      "d": 786.6666666666715,
      "v": 114
    },
    {
      "midi": 58,
      "hit": false,
      "t": 84799.99999999994,
      "d": 993.333333333343,
      "v": 114
    },
    {
      "midi": 43,
      "hit": false,
      "t": 84799.99999999996,
      "d": 506.6666666666715,
      "v": 71
    },
    {
      "midi": 65,
      "hit": false,
      "t": 84839.99999999994,
      "d": 886.6666666666715,
      "v": 114
    },
    {
      "midi": 50,
      "hit": false,
      "t": 85199.99999999996,
      "d": 546.6666666666715,
      "v": 71
    },
    {
      "midi": 62,
      "hit": false,
      "t": 85599.99999999994,
      "d": 606.6666666666861,
      "v": 114
    },
    {
      "midi": 55,
      "hit": false,
      "t": 85599.99999999996,
      "d": 306.6666666666715,
      "v": 71
    },
    {
      "midi": 46,
      "hit": false,
      "t": 85599.99999999996,
      "d": 400,
      "v": 71
    },
    {
      "midi": 57,
      "hit": false,
      "t": 85799.99999999996,
      "d": 373.3333333333285,
      "v": 71
    },
    {
      "midi": 50,
      "hit": false,
      "t": 85999.99999999996,
      "d": 400,
      "v": 68
    },
    {
      "midi": 58,
      "hit": false,
      "t": 85999.99999999996,
      "d": 400,
      "v": 71
    },
    {
      "midi": 65,
      "hit": false,
      "t": 85999.99999999996,
      "d": 573.3333333333576,
      "v": 114
    },
    {
      "midi": 45,
      "hit": false,
      "t": 86399.99999999996,
      "d": 733.3333333333285,
      "v": 70
    },
    {
      "midi": 60,
      "hit": false,
      "t": 86399.99999999996,
      "d": 1600,
      "v": 70
    },
    {
      "midi": 60,
      "hit": false,
      "t": 86399.99999999997,
      "d": 1566.6666666666715,
      "v": 114
    },
    {
      "midi": 64,
      "hit": false,
      "t": 86399.99999999997,
      "d": 1566.6666666666715,
      "v": 114
    },
    {
      "midi": 45,
      "hit": false,
      "t": 86399.99999999997,
      "d": 1753.333333333343,
      "v": 114
    },
    {
      "midi": 55,
      "hit": false,
      "t": 86399.99999999997,
      "d": 1793.333333333343,
      "v": 114
    },
    {
      "midi": 67,
      "hit": false,
      "t": 86439.99999999997,
      "d": 1686.6666666666715,
      "v": 114
    },
    {
      "midi": 52,
      "hit": false,
      "t": 86799.99999999996,
      "d": 786.6666666666715,
      "v": 70
    },
    {
      "midi": 48,
      "hit": false,
      "t": 87199.99999999996,
      "d": 766.6666666666715,
      "v": 70
    },
    {
      "midi": 52,
      "hit": false,
      "t": 87599.99999999996,
      "d": 400,
      "v": 70
    },
    {
      "midi": 42,
      "hit": false,
      "t": 87999.99999999996,
      "d": 733.3333333333285,
      "v": 70
    },
    {
      "midi": 57,
      "hit": false,
      "t": 87999.99999999996,
      "d": 1600,
      "v": 70
    },
    {
      "midi": 60,
      "hit": false,
      "t": 87999.99999999997,
      "d": 1633.333333333343,
      "v": 114
    },
    {
      "midi": 42,
      "hit": false,
      "t": 87999.99999999997,
      "d": 1706.666666666686,
      "v": 114
    },
    {
      "midi": 57,
      "hit": false,
      "t": 87999.99999999997,
      "d": 1773.333333333343,
      "v": 114
    },
    {
      "midi": 63,
      "hit": false,
      "t": 88039.99999999997,
      "d": 1600.0000000000146,
      "v": 114
    },
    {
      "midi": 48,
      "hit": false,
      "t": 88399.99999999996,
      "d": 786.6666666666715,
      "v": 70
    },
    {
      "midi": 45,
      "hit": false,
      "t": 88799.99999999996,
      "d": 766.6666666666715,
      "v": 70
    },
    {
      "midi": 69,
      "hit": false,
      "t": 88799.99999999999,
      "d": 540,
      "v": 114
    },
    {
      "midi": 48,
      "hit": false,
      "t": 89199.99999999996,
      "d": 400,
      "v": 70
    },
    {
      "midi": 67,
      "hit": false,
      "t": 89199.99999999999,
      "d": 520,
      "v": 114
    },
    {
      "midi": 43,
      "hit": false,
      "t": 89599.99999999996,
      "d": 800,
      "v": 71
    },
    {
      "midi": 58,
      "hit": false,
      "t": 89599.99999999996,
      "d": 2000,
      "v": 71
    },
    {
      "midi": 53,
      "hit": false,
      "t": 89599.99999999999,
      "d": 1533.3333333333285,
      "v": 114
    },
    {
      "midi": 58,
      "hit": false,
      "t": 89599.99999999999,
      "d": 1533.3333333333285,
      "v": 114
    },
    {
      "midi": 62,
      "hit": false,
      "t": 89599.99999999999,
      "d": 1566.666666666657,
      "v": 114
    },
    {
      "midi": 43,
      "hit": false,
      "t": 89599.99999999999,
      "d": 3426.6666666666424,
      "v": 114
    },
    {
      "midi": 70,
      "hit": false,
      "t": 89639.99999999999,
      "d": 353.3333333333285,
      "v": 114
    },
    {
      "midi": 50,
      "hit": false,
      "t": 89999.99999999996,
      "d": 800,
      "v": 69
    },
    {
      "midi": 70,
      "hit": false,
      "t": 89999.99999999999,
      "d": 1893.333333333314,
      "v": 114
    },
    {
      "midi": 46,
      "hit": false,
      "t": 90399.99999999996,
      "d": 806.6666666666715,
      "v": 71
    },
    {
      "midi": 50,
      "hit": false,
      "t": 90799.99999999996,
      "d": 406.6666666666715,
      "v": 67
    },
    {
      "midi": 58,
      "hit": false,
      "t": 91199.99999999997,
      "d": 1480,
      "v": 114
    },
    {
      "midi": 53,
      "hit": false,
      "t": 91199.99999999997,
      "d": 1740,
      "v": 114
    },
    {
      "midi": 62,
      "hit": false,
      "t": 91199.99999999997,
      "d": 1753.3333333333285,
      "v": 114
    },
    {
      "midi": 46,
      "hit": false,
      "t": 91206.66666666663,
      "d": 793.3333333333285,
      "v": 71
    },
    {
      "midi": 62,
      "hit": false,
      "t": 91206.66666666663,
      "d": 1593.3333333333285,
      "v": 71
    },
    {
      "midi": 53,
      "hit": false,
      "t": 91599.99999999996,
      "d": 800,
      "v": 71
    },
    {
      "midi": 50,
      "hit": false,
      "t": 91999.99999999996,
      "d": 800,
      "v": 67
    },
    {
      "midi": 70,
      "hit": false,
      "t": 91999.99999999997,
      "d": 393.3333333333285,
      "v": 114
    },
    {
      "midi": 53,
      "hit": false,
      "t": 92399.99999999996,
      "d": 400,
      "v": 71
    },
    {
      "midi": 69,
      "hit": false,
      "t": 92399.99999999997,
      "d": 593.3333333333285,
      "v": 114
    },
    {
      "midi": 58,
      "hit": false,
      "t": 92766.66666666664,
      "d": 799.9999999999854,
      "v": 114
    },
    {
      "midi": 55,
      "hit": false,
      "t": 92799.99999999996,
      "d": 766.6666666666715,
      "v": 45
    },
    {
      "midi": 58,
      "hit": false,
      "t": 92799.99999999996,
      "d": 766.6666666666715,
      "v": 65
    },
    {
      "midi": 64,
      "hit": false,
      "t": 92799.99999999996,
      "d": 800,
      "v": 64
    },
    {
      "midi": 36,
      "hit": false,
      "t": 92799.99999999996,
      "d": 2840,
      "v": 60
    },
    {
      "midi": 60,
      "hit": false,
      "t": 92799.99999999997,
      "d": 886.666666666657,
      "v": 114
    },
    {
      "midi": 55,
      "hit": false,
      "t": 92799.99999999997,
      "d": 3146.666666666657,
      "v": 114
    },
    {
      "midi": 48,
      "hit": false,
      "t": 92799.99999999997,
      "d": 3306.666666666657,
      "v": 114
    },
    {
      "midi": 67,
      "hit": false,
      "t": 92839.99999999997,
      "d": 519.9999999999854,
      "v": 114
    },
    {
      "midi": 43,
      "hit": false,
      "t": 93199.99999999996,
      "d": 2480,
      "v": 57
    },
    {
      "midi": 64,
      "hit": false,
      "t": 93199.99999999996,
      "d": 1026.666666666657,
      "v": 114
    },
    {
      "midi": 48,
      "hit": false,
      "t": 93599.99999999996,
      "d": 2133.3333333333285,
      "v": 60
    },
    {
      "midi": 58,
      "hit": false,
      "t": 93599.99999999996,
      "d": 553.3333333333285,
      "v": 114
    },
    {
      "midi": 52,
      "hit": false,
      "t": 93999.99999999996,
      "d": 806.6666666666715,
      "v": 60
    },
    {
      "midi": 60,
      "hit": false,
      "t": 93999.99999999996,
      "d": 393.3333333333285,
      "v": 114
    },
    {
      "midi": 55,
      "hit": false,
      "t": 94399.99999999996,
      "d": 440,
      "v": 64
    },
    {
      "midi": 58,
      "hit": false,
      "t": 94399.99999999996,
      "d": 786.6666666666715,
      "v": 114
    },
    {
      "midi": 64,
      "hit": false,
      "t": 94399.99999999996,
      "d": 940,
      "v": 114
    },
    {
      "midi": 60,
      "hit": false,
      "t": 94439.99999999996,
      "d": 906.6666666666715,
      "v": 114
    },
    {
      "midi": 58,
      "hit": false,
      "t": 94799.99999999996,
      "d": 366.6666666666715,
      "v": 79
    },
    {
      "midi": 60,
      "hit": false,
      "t": 95199.99999999996,
      "d": 420,
      "v": 66
    },
    {
      "midi": 65,
      "hit": false,
      "t": 95199.99999999996,
      "d": 540,
      "v": 114
    },
    {
      "midi": 55,
      "hit": false,
      "t": 95599.99999999996,
      "d": 93.33333333332848,
      "v": 65
    },
    {
      "midi": 60,
      "hit": false,
      "t": 95599.99999999996,
      "d": 393.33333333334303,
      "v": 114
    },
    {
      "midi": 67,
      "hit": false,
      "t": 95633.33333333328,
      "d": 606.6666666666715,
      "v": 114
    },
    {
      "midi": 69,
      "hit": false,
      "t": 95999.99999999996,
      "d": 346.6666666666715,
      "v": 85
    },
    {
      "midi": 41,
      "hit": false,
      "t": 95999.99999999996,
      "d": 3200,
      "v": 59
    },
    {
      "midi": 57,
      "hit": false,
      "t": 95999.99999999997,
      "d": 1513.333333333314,
      "v": 114
    },
    {
      "midi": 60,
      "hit": false,
      "t": 95999.99999999997,
      "d": 1546.6666666666424,
      "v": 114
    },
    {
      "midi": 64,
      "hit": false,
      "t": 95999.99999999997,
      "d": 1546.6666666666424,
      "v": 114
    },
    {
      "midi": 41,
      "hit": false,
      "t": 95999.99999999997,
      "d": 3353.3333333332994,
      "v": 114
    },
    {
      "midi": 55,
      "hit": false,
      "t": 95999.99999999997,
      "d": 3373.3333333332994,
      "v": 114
    },
    {
      "midi": 57,
      "hit": false,
      "t": 96033.33333333328,
      "d": 2086.6666666666715,
      "v": 90
    },
    {
      "midi": 69,
      "hit": false,
      "t": 96033.3333333333,
      "d": 359.99999999998545,
      "v": 114
    },
    {
      "midi": 67,
      "hit": false,
      "t": 96199.99999999996,
      "d": 1046.6666666666715,
      "v": 75
    },
    {
      "midi": 53,
      "hit": false,
      "t": 96199.99999999996,
      "d": 3000,
      "v": 59
    },
    {
      "midi": 60,
      "hit": false,
      "t": 96399.99999999996,
      "d": 946.6666666666715,
      "v": 64
    },
    {
      "midi": 69,
      "hit": false,
      "t": 96399.99999999996,
      "d": 1493.333333333314,
      "v": 114
    },
    {
      "midi": 57,
      "hit": false,
      "t": 97599.99999999994,
      "d": 1546.6666666666715,
      "v": 114
    },
    {
      "midi": 60,
      "hit": false,
      "t": 97599.99999999994,
      "d": 1793.3333333333285,
      "v": 114
    },
    {
      "midi": 64,
      "hit": false,
      "t": 97633.33333333327,
      "d": 1740,
      "v": 114
    },
    {
      "midi": 69,
      "hit": false,
      "t": 97999.99999999994,
      "d": 573.3333333333285,
      "v": 114
    },
    {
      "midi": 57,
      "hit": false,
      "t": 98199.99999999996,
      "d": 1000,
      "v": 83
    },
    {
      "midi": 67,
      "hit": false,
      "t": 98399.99999999994,
      "d": 540,
      "v": 114
    },
    {
      "midi": 60,
      "hit": false,
      "t": 98399.99999999996,
      "d": 413.3333333333285,
      "v": 48
    },
    {
      "midi": 67,
      "hit": false,
      "t": 98599.99999999996,
      "d": 440,
      "v": 74
    },
    {
      "midi": 65,
      "hit": false,
      "t": 98799.99999999994,
      "d": 1306.666666666657,
      "v": 114
    },
    {
      "midi": 69,
      "hit": false,
      "t": 98799.99999999996,
      "d": 300,
      "v": 73
    },
    {
      "midi": 72,
      "hit": false,
      "t": 98999.99999999996,
      "d": 200,
      "v": 71
    },
    {
      "midi": 57,
      "hit": false,
      "t": 99199.99999999994,
      "d": 786.666666666657,
      "v": 114
    },
    {
      "midi": 50,
      "hit": false,
      "t": 99199.99999999994,
      "d": 1566.6666666666715,
      "v": 114
    },
    {
      "midi": 38,
      "hit": false,
      "t": 99199.99999999994,
      "d": 1893.333333333343,
      "v": 114
    },
    {
      "midi": 50,
      "hit": false,
      "t": 99199.99999999996,
      "d": 800,
      "v": 71
    },
    {
      "midi": 65,
      "hit": false,
      "t": 99199.99999999996,
      "d": 2000,
      "v": 71
    },
    {
      "midi": 62,
      "hit": false,
      "t": 99233.33333333327,
      "d": 920,
      "v": 114
    },
    {
      "midi": 57,
      "hit": false,
      "t": 99599.99999999996,
      "d": 800,
      "v": 69
    },
    {
      "midi": 57,
      "hit": false,
      "t": 99999.99999999993,
      "d": 506.66666666668607,
      "v": 114
    },
    {
      "midi": 53,
      "hit": false,
      "t": 99999.99999999996,
      "d": 806.6666666666715,
      "v": 71
    },
    {
      "midi": 62,
      "hit": false,
      "t": 100399.99999999994,
      "d": 393.33333333334303,
      "v": 114
    },
    {
      "midi": 57,
      "hit": false,
      "t": 100399.99999999996,
      "d": 406.6666666666715,
      "v": 67
    },
    {
      "midi": 67,
      "hit": false,
      "t": 100799.99999999996,
      "d": 1093.3333333333285,
      "v": 114
    },
    {
      "midi": 50,
      "hit": false,
      "t": 100799.99999999996,
      "d": 1580,
      "v": 114
    },
    {
      "midi": 53,
      "hit": false,
      "t": 100806.66666666663,
      "d": 793.3333333333285,
      "v": 71
    },
    {
      "midi": 69,
      "hit": false,
      "t": 100806.66666666663,
      "d": 1593.3333333333285,
      "v": 71
    },
    {
      "midi": 62,
      "hit": false,
      "t": 101199.99999999996,
      "d": 800,
      "v": 71
    },
    {
      "midi": 57,
      "hit": false,
      "t": 101599.99999999996,
      "d": 800,
      "v": 67
    },
    {
      "midi": 65,
      "hit": false,
      "t": 101599.99999999996,
      "d": 786.6666666666715,
      "v": 114
    },
    {
      "midi": 62,
      "hit": false,
      "t": 101999.99999999996,
      "d": 400,
      "v": 71
    },
    {
      "midi": 43,
      "hit": false,
      "t": 102399.99999999996,
      "d": 800,
      "v": 71
    },
    {
      "midi": 53,
      "hit": false,
      "t": 102399.99999999996,
      "d": 1613.3333333333285,
      "v": 71
    },
    {
      "midi": 58,
      "hit": false,
      "t": 102399.99999999996,
      "d": 1613.3333333333285,
      "v": 71
    },
    {
      "midi": 53,
      "hit": false,
      "t": 102399.99999999996,
      "d": 1533.3333333333285,
      "v": 114
    },
    {
      "midi": 58,
      "hit": false,
      "t": 102399.99999999996,
      "d": 1533.3333333333285,
      "v": 114
    },
    {
      "midi": 43,
      "hit": false,
      "t": 102399.99999999996,
      "d": 3340,
      "v": 114
    },
    {
      "midi": 62,
      "hit": false,
      "t": 102439.99999999996,
      "d": 26.666666666671517,
      "v": 114
    },
    {
      "midi": 50,
      "hit": false,
      "t": 102799.99999999996,
      "d": 800,
      "v": 63
    },
    {
      "midi": 46,
      "hit": false,
      "t": 103199.99999999996,
      "d": 813.3333333333285,
      "v": 71
    },
    {
      "midi": 67,
      "hit": false,
      "t": 103199.99999999996,
      "d": 393.3333333333285,
      "v": 114
    },
    {
      "midi": 50,
      "hit": false,
      "t": 103599.99999999996,
      "d": 800,
      "v": 71
    },
    {
      "midi": 67,
      "hit": false,
      "t": 103599.99999999996,
      "d": 1133.3333333333285,
      "v": 114
    },
    {
      "midi": 58,
      "hit": false,
      "t": 103999.99999999996,
      "d": 1533.3333333333285,
      "v": 114
    },
    {
      "midi": 53,
      "hit": false,
      "t": 103999.99999999996,
      "d": 1720,
      "v": 114
    },
    {
      "midi": 62,
      "hit": false,
      "t": 103999.99999999996,
      "d": 1720,
      "v": 114
    },
    {
      "midi": 43,
      "hit": false,
      "t": 104013.33333333328,
      "d": 786.6666666666715,
      "v": 71
    },
    {
      "midi": 55,
      "hit": false,
      "t": 104013.33333333328,
      "d": 786.6666666666715,
      "v": 71
    },
    {
      "midi": 50,
      "hit": false,
      "t": 104399.99999999996,
      "d": 800,
      "v": 71
    },
    {
      "midi": 57,
      "hit": false,
      "t": 104399.99999999996,
      "d": 800,
      "v": 71
    },
    {
      "midi": 46,
      "hit": false,
      "t": 104799.99999999996,
      "d": 800,
      "v": 71
    },
    {
      "midi": 58,
      "hit": false,
      "t": 104799.99999999996,
      "d": 800,
      "v": 71
    },
    {
      "midi": 67,
      "hit": false,
      "t": 104799.99999999996,
      "d": 573.3333333333285,
      "v": 114
    },
    {
      "midi": 50,
      "hit": false,
      "t": 105199.99999999996,
      "d": 400,
      "v": 71
    },
    {
      "midi": 62,
      "hit": false,
      "t": 105199.99999999996,
      "d": 400,
      "v": 71
    },
    {
      "midi": 65,
      "hit": false,
      "t": 105199.99999999996,
      "d": 520,
      "v": 114
    },
    {
      "midi": 55,
      "hit": false,
      "t": 105599.99999999996,
      "d": 766.6666666666715,
      "v": 45
    },
    {
      "midi": 58,
      "hit": false,
      "t": 105599.99999999996,
      "d": 766.6666666666715,
      "v": 65
    },
    {
      "midi": 64,
      "hit": false,
      "t": 105599.99999999996,
      "d": 800,
      "v": 64
    },
    {
      "midi": 36,
      "hit": false,
      "t": 105599.99999999996,
      "d": 2840,
      "v": 60
    },
    {
      "midi": 58,
      "hit": false,
      "t": 105599.99999999996,
      "d": 1753.3333333333285,
      "v": 114
    },
    {
      "midi": 48,
      "hit": false,
      "t": 105599.99999999996,
      "d": 3320,
      "v": 114
    },
    {
      "midi": 55,
      "hit": false,
      "t": 105599.99999999996,
      "d": 3320,
      "v": 114
    },
    {
      "midi": 67,
      "hit": false,
      "t": 105639.99999999996,
      "d": 520,
      "v": 114
    },
    {
      "midi": 43,
      "hit": false,
      "t": 105999.99999999996,
      "d": 2480,
      "v": 57
    },
    {
      "midi": 60,
      "hit": false,
      "t": 105999.99999999996,
      "d": 506.6666666666715,
      "v": 114
    },
    {
      "midi": 48,
      "hit": false,
      "t": 106399.99999999996,
      "d": 2133.3333333333285,
      "v": 60
    },
    {
      "midi": 64,
      "hit": false,
      "t": 106399.99999999996,
      "d": 746.6666666666715,
      "v": 114
    },
    {
      "midi": 52,
      "hit": false,
      "t": 106799.99999999996,
      "d": 806.6666666666715,
      "v": 60
    },
    {
      "midi": 55,
      "hit": false,
      "t": 107199.99999999996,
      "d": 440,
      "v": 64
    },
    {
      "midi": 62,
      "hit": false,
      "t": 107199.99999999996,
      "d": 886.6666666666715,
      "v": 114
    },
    {
      "midi": 64,
      "hit": false,
      "t": 107239.99999999996,
      "d": 886.6666666666715,
      "v": 114
    },
    {
      "midi": 58,
      "hit": false,
      "t": 107599.99999999996,
      "d": 366.6666666666715,
      "v": 79
    },
    {
      "midi": 62,
      "hit": false,
      "t": 107999.99999999996,
      "d": 420,
      "v": 66
    },
    {
      "midi": 58,
      "hit": false,
      "t": 107999.99999999996,
      "d": 593.3333333333285,
      "v": 114
    },
    {
      "midi": 55,
      "hit": false,
      "t": 108399.99999999996,
      "d": 93.33333333332848,
      "v": 65
    },
    {
      "midi": 60,
      "hit": false,
      "t": 108399.99999999996,
      "d": 573.3333333333285,
      "v": 114
    },
    {
      "midi": 50,
      "hit": false,
      "t": 108799.99999999996,
      "d": 566.6666666666715,
      "v": 71
    },
    {
      "midi": 60,
      "hit": false,
      "t": 108799.99999999996,
      "d": 2146.6666666666715,
      "v": 71
    },
    {
      "midi": 64,
      "hit": false,
      "t": 108799.99999999996,
      "d": 2466.6666666666715,
      "v": 71
    },
    {
      "midi": 69,
      "hit": false,
      "t": 108799.99999999996,
      "d": 920,
      "v": 114
    },
    {
      "midi": 50,
      "hit": false,
      "t": 108799.99999999996,
      "d": 3286.666666666657,
      "v": 114
    },
    {
      "midi": 67,
      "hit": false,
      "t": 108846.66666666663,
      "d": 1026.666666666657,
      "v": 114
    },
    {
      "midi": 64,
      "hit": false,
      "t": 108846.66666666663,
      "d": 1046.666666666657,
      "v": 114
    },
    {
      "midi": 55,
      "hit": false,
      "t": 109199.99999999996,
      "d": 506.6666666666715,
      "v": 71
    },
    {
      "midi": 52,
      "hit": false,
      "t": 109599.99999999996,
      "d": 533.3333333333285,
      "v": 71
    },
    {
      "midi": 72,
      "hit": false,
      "t": 109599.99999999996,
      "d": 553.3333333333285,
      "v": 114
    },
    {
      "midi": 57,
      "hit": false,
      "t": 109599.99999999996,
      "d": 2486.666666666657,
      "v": 114
    },
    {
      "midi": 55,
      "hit": false,
      "t": 109999.99999999996,
      "d": 506.6666666666715,
      "v": 71
    },
    {
      "midi": 69,
      "hit": false,
      "t": 109999.99999999996,
      "d": 886.6666666666715,
      "v": 114
    },
    {
      "midi": 67,
      "hit": false,
      "t": 110039.99999999996,
      "d": 2000,
      "v": 114
    },
    {
      "midi": 64,
      "hit": false,
      "t": 110039.99999999996,
      "d": 2033.3333333333285,
      "v": 114
    },
    {
      "midi": 50,
      "hit": false,
      "t": 110399.99999999996,
      "d": 506.6666666666715,
      "v": 71
    },
    {
      "midi": 60,
      "hit": false,
      "t": 110399.99999999996,
      "d": 1633.3333333333285,
      "v": 114
    },
    {
      "midi": 55,
      "hit": false,
      "t": 110799.99999999996,
      "d": 546.6666666666715,
      "v": 71
    },
    {
      "midi": 72,
      "hit": false,
      "t": 110799.99999999996,
      "d": 506.6666666666715,
      "v": 114
    },
    {
      "midi": 60,
      "hit": false,
      "t": 111199.99999999996,
      "d": 306.6666666666715,
      "v": 71
    },
    {
      "midi": 52,
      "hit": false,
      "t": 111199.99999999996,
      "d": 400,
      "v": 71
    },
    {
      "midi": 69,
      "hit": false,
      "t": 111199.99999999996,
      "d": 540,
      "v": 114
    },
    {
      "midi": 62,
      "hit": false,
      "t": 111399.99999999996,
      "d": 373.3333333333285,
      "v": 71
    },
    {
      "midi": 55,
      "hit": false,
      "t": 111599.99999999996,
      "d": 400,
      "v": 68
    },
    {
      "midi": 64,
      "hit": false,
      "t": 111599.99999999996,
      "d": 400,
      "v": 71
    },
    {
      "midi": 71,
      "hit": false,
      "t": 111599.99999999996,
      "d": 1319.9999999999854,
      "v": 114
    },
    {
      "midi": 74,
      "hit": false,
      "t": 111633.33333333328,
      "d": 1266.666666666657,
      "v": 114
    },
    {
      "midi": 52,
      "hit": false,
      "t": 111999.99999999996,
      "d": 766.6666666666715,
      "v": 45
    },
    {
      "midi": 55,
      "hit": false,
      "t": 111999.99999999996,
      "d": 766.6666666666715,
      "v": 65
    },
    {
      "midi": 62,
      "hit": false,
      "t": 111999.99999999996,
      "d": 800,
      "v": 64
    },
    {
      "midi": 33,
      "hit": false,
      "t": 111999.99999999996,
      "d": 1600,
      "v": 60
    },
    {
      "midi": 45,
      "hit": false,
      "t": 111999.99999999996,
      "d": 2226.666666666657,
      "v": 114
    },
    {
      "midi": 55,
      "hit": false,
      "t": 112399.99999999994,
      "d": 1133.3333333333285,
      "v": 114
    },
    {
      "midi": 35,
      "hit": false,
      "t": 112399.99999999996,
      "d": 1200,
      "v": 57
    },
    {
      "midi": 64,
      "hit": false,
      "t": 112799.99999999994,
      "d": 393.3333333333285,
      "v": 114
    },
    {
      "midi": 45,
      "hit": false,
      "t": 112799.99999999996,
      "d": 800,
      "v": 60
    },
    {
      "midi": 67,
      "hit": false,
      "t": 113199.99999999994,
      "d": 1133.333333333343,
      "v": 114
    },
    {
      "midi": 50,
      "hit": false,
      "t": 113199.99999999996,
      "d": 400,
      "v": 60
    },
    {
      "midi": 71,
      "hit": false,
      "t": 113233.33333333327,
      "d": 1286.666666666686,
      "v": 114
    },
    {
      "midi": 52,
      "hit": false,
      "t": 113599.99999999994,
      "d": 1653.333333333343,
      "v": 114
    },
    {
      "midi": 55,
      "hit": false,
      "t": 113599.99999999996,
      "d": 820,
      "v": 61
    },
    {
      "midi": 43,
      "hit": false,
      "t": 113599.99999999996,
      "d": 1600,
      "v": 26
    },
    {
      "midi": 65,
      "hit": false,
      "t": 113599.99999999996,
      "d": 1600,
      "v": 71
    },
    {
      "midi": 38,
      "hit": false,
      "t": 113999.99999999996,
      "d": 1200,
      "v": 58
    },
    {
      "midi": 67,
      "hit": false,
      "t": 114399.99999999996,
      "d": 553.3333333333285,
      "v": 114
    },
    {
      "midi": 45,
      "hit": false,
      "t": 114399.99999999996,
      "d": 906.666666666657,
      "v": 114
    },
    {
      "midi": 55,
      "hit": false,
      "t": 114799.99999999996,
      "d": 400,
      "v": 55
    },
    {
      "midi": 69,
      "hit": false,
      "t": 114799.99999999996,
      "d": 393.3333333333285,
      "v": 114
    },
    {
      "midi": 43,
      "hit": false,
      "t": 115199.99999999996,
      "d": 800,
      "v": 71
    },
    {
      "midi": 58,
      "hit": false,
      "t": 115199.99999999996,
      "d": 2000,
      "v": 71
    },
    {
      "midi": 58,
      "hit": false,
      "t": 115199.99999999996,
      "d": 1479.9999999999854,
      "v": 114
    },
    {
      "midi": 62,
      "hit": false,
      "t": 115199.99999999996,
      "d": 1546.666666666657,
      "v": 114
    },
    {
      "midi": 65,
      "hit": false,
      "t": 115199.99999999996,
      "d": 1566.666666666657,
      "v": 114
    },
    {
      "midi": 53,
      "hit": false,
      "t": 115199.99999999996,
      "d": 3353.333333333343,
      "v": 114
    },
    {
      "midi": 43,
      "hit": false,
      "t": 115199.99999999996,
      "d": 3373.333333333343,
      "v": 114
    },
    {
      "midi": 70,
      "hit": false,
      "t": 115239.99999999996,
      "d": 886.666666666657,
      "v": 114
    },
    {
      "midi": 50,
      "hit": false,
      "t": 115599.99999999996,
      "d": 800,
      "v": 69
    },
    {
      "midi": 69,
      "hit": false,
      "t": 115999.99999999994,
      "d": 606.6666666666715,
      "v": 114
    },
    {
      "midi": 46,
      "hit": false,
      "t": 115999.99999999996,
      "d": 806.6666666666715,
      "v": 71
    },
    {
      "midi": 70,
      "hit": false,
      "t": 116399.99999999994,
      "d": 993.3333333333285,
      "v": 114
    },
    {
      "midi": 50,
      "hit": false,
      "t": 116399.99999999996,
      "d": 406.6666666666715,
      "v": 67
    },
    {
      "midi": 62,
      "hit": false,
      "t": 116799.99999999994,
      "d": 1513.333333333343,
      "v": 114
    },
    {
      "midi": 46,
      "hit": false,
      "t": 116806.66666666663,
      "d": 793.3333333333285,
      "v": 71
    },
    {
      "midi": 62,
      "hit": false,
      "t": 116806.66666666663,
      "d": 1593.3333333333285,
      "v": 71
    },
    {
      "midi": 65,
      "hit": false,
      "t": 116833.33333333327,
      "d": 1720.000000000029,
      "v": 114
    },
    {
      "midi": 69,
      "hit": false,
      "t": 117199.99999999994,
      "d": 906.6666666666715,
      "v": 114
    },
    {
      "midi": 53,
      "hit": false,
      "t": 117199.99999999996,
      "d": 800,
      "v": 71
    },
    {
      "midi": 50,
      "hit": false,
      "t": 117599.99999999996,
      "d": 800,
      "v": 67
    },
    {
      "midi": 67,
      "hit": false,
      "t": 117999.99999999994,
      "d": 393.33333333334303,
      "v": 114
    },
    {
      "midi": 53,
      "hit": false,
      "t": 117999.99999999996,
      "d": 400,
      "v": 71
    },
    {
      "midi": 67,
      "hit": false,
      "t": 118399.99999999996,
      "d": 1200,
      "v": 64
    },
    {
      "midi": 64,
      "hit": false,
      "t": 118399.99999999996,
      "d": 1240,
      "v": 65
    },
    {
      "midi": 48,
      "hit": false,
      "t": 118399.99999999996,
      "d": 1246.6666666666715,
      "v": 38
    },
    {
      "midi": 55,
      "hit": false,
      "t": 118399.99999999996,
      "d": 1246.6666666666715,
      "v": 44
    },
    {
      "midi": 58,
      "hit": false,
      "t": 118399.99999999996,
      "d": 1320,
      "v": 42
    },
    {
      "midi": 58,
      "hit": false,
      "t": 118399.99999999996,
      "d": 66.66666666667152,
      "v": 114
    },
    {
      "midi": 62,
      "hit": false,
      "t": 118399.99999999996,
      "d": 1566.6666666666715,
      "v": 114
    },
    {
      "midi": 55,
      "hit": false,
      "t": 118399.99999999996,
      "d": 3286.666666666657,
      "v": 114
    },
    {
      "midi": 48,
      "hit": false,
      "t": 118399.99999999996,
      "d": 3319.9999999999854,
      "v": 114
    },
    {
      "midi": 64,
      "hit": false,
      "t": 118439.99999999996,
      "d": 1526.6666666666715,
      "v": 114
    },
    {
      "midi": 74,
      "hit": false,
      "t": 119599.99999999996,
      "d": 1160,
      "v": 73
    },
    {
      "midi": 58,
      "hit": false,
      "t": 119999.99999999996,
      "d": 866.6666666666715,
      "v": 114
    },
    {
      "midi": 62,
      "hit": false,
      "t": 119999.99999999996,
      "d": 953.3333333333285,
      "v": 114
    },
    {
      "midi": 64,
      "hit": false,
      "t": 120033.33333333328,
      "d": 906.6666666666715,
      "v": 114
    },
    {
      "midi": 62,
      "hit": false,
      "t": 120799.99999999996,
      "d": 746.6666666666715,
      "v": 73
    },
    {
      "midi": 65,
      "hit": false,
      "t": 120799.99999999996,
      "d": 573.3333333333285,
      "v": 114
    },
    {
      "midi": 64,
      "hit": false,
      "t": 120999.99999999996,
      "d": 566.6666666666715,
      "v": 75
    },
    {
      "midi": 67,
      "hit": false,
      "t": 121199.99999999996,
      "d": 240,
      "v": 71
    },
    {
      "midi": 67,
      "hit": false,
      "t": 121199.99999999996,
      "d": 553.3333333333139,
      "v": 114
    },
    {
      "midi": 74,
      "hit": false,
      "t": 121399.99999999996,
      "d": 200,
      "v": 90
    },
    {
      "midi": 52,
      "hit": false,
      "t": 121599.99999999996,
      "d": 820,
      "v": 61
    },
    {
      "midi": 40,
      "hit": false,
      "t": 121599.99999999996,
      "d": 1600,
      "v": 26
    },
    {
      "midi": 64,
      "hit": false,
      "t": 121599.99999999996,
      "d": 1600,
      "v": 71
    },
    {
      "midi": 62,
      "hit": false,
      "t": 121599.99999999996,
      "d": 1719.999999999971,
      "v": 114
    },
    {
      "midi": 57,
      "hit": false,
      "t": 121599.99999999996,
      "d": 1739.999999999971,
      "v": 114
    },
    {
      "midi": 52,
      "hit": false,
      "t": 121599.99999999996,
      "d": 1773.3333333332994,
      "v": 114
    },
    {
      "midi": 40,
      "hit": false,
      "t": 121599.99999999996,
      "d": 1859.999999999971,
      "v": 114
    },
    {
      "midi": 69,
      "hit": false,
      "t": 121633.33333333328,
      "d": 753.3333333333139,
      "v": 114
    },
    {
      "midi": 69,
      "hit": false,
      "t": 122399.99999999993,
      "d": 606.6666666666715,
      "v": 114
    },
    {
      "midi": 67,
      "hit": false,
      "t": 122799.99999999993,
      "d": 1373.3333333333285,
      "v": 114
    },
    {
      "midi": 52,
      "hit": false,
      "t": 122799.99999999996,
      "d": 400,
      "v": 55
    },
    {
      "midi": 55,
      "hit": false,
      "t": 123199.99999999993,
      "d": 1720,
      "v": 114
    },
    {
      "midi": 61,
      "hit": false,
      "t": 123199.99999999993,
      "d": 1740,
      "v": 114
    },
    {
      "midi": 45,
      "hit": false,
      "t": 123199.99999999993,
      "d": 1773.3333333333285,
      "v": 114
    },
    {
      "midi": 45,
      "hit": false,
      "t": 123199.99999999996,
      "d": 600,
      "v": 68
    },
    {
      "midi": 55,
      "hit": false,
      "t": 123199.99999999996,
      "d": 1600,
      "v": 71
    },
    {
      "midi": 61,
      "hit": false,
      "t": 123199.99999999996,
      "d": 1600,
      "v": 71
    },
    {
      "midi": 52,
      "hit": false,
      "t": 123599.99999999996,
      "d": 573.3333333333285,
      "v": 71
    },
    {
      "midi": 69,
      "hit": false,
      "t": 123999.99999999993,
      "d": 540,
      "v": 114
    },
    {
      "midi": 49,
      "hit": false,
      "t": 123999.99999999996,
      "d": 553.3333333333285,
      "v": 71
    },
    {
      "midi": 65,
      "hit": false,
      "t": 124399.99999999993,
      "d": 1353.3333333333285,
      "v": 114
    },
    {
      "midi": 52,
      "hit": false,
      "t": 124399.99999999996,
      "d": 400,
      "v": 71
    },
    {
      "midi": 58,
      "hit": false,
      "t": 124799.99999999993,
      "d": 786.666666666657,
      "v": 114
    },
    {
      "midi": 46,
      "hit": false,
      "t": 124799.99999999993,
      "d": 1933.3333333333285,
      "v": 114
    },
    {
      "midi": 53,
      "hit": false,
      "t": 124799.99999999996,
      "d": 820,
      "v": 61
    },
    {
      "midi": 34,
      "hit": false,
      "t": 124799.99999999996,
      "d": 1600,
      "v": 26
    },
    {
      "midi": 65,
      "hit": false,
      "t": 124799.99999999996,
      "d": 1600,
      "v": 71
    },
    {
      "midi": 62,
      "hit": false,
      "t": 124839.99999999993,
      "d": 886.666666666657,
      "v": 114
    },
    {
      "midi": 41,
      "hit": false,
      "t": 125199.99999999996,
      "d": 1200,
      "v": 58
    },
    {
      "midi": 58,
      "hit": false,
      "t": 125599.99999999991,
      "d": 573.333333333343,
      "v": 114
    },
    {
      "midi": 46,
      "hit": false,
      "t": 125599.99999999996,
      "d": 800,
      "v": 54
    },
    {
      "midi": 62,
      "hit": false,
      "t": 125999.99999999993,
      "d": 553.3333333333285,
      "v": 114
    },
    {
      "midi": 53,
      "hit": false,
      "t": 125999.99999999996,
      "d": 400,
      "v": 55
    },
    {
      "midi": 65,
      "hit": false,
      "t": 126399.99999999993,
      "d": 393.3333333333285,
      "v": 114
    },
    {
      "midi": 53,
      "hit": false,
      "t": 126399.99999999996,
      "d": 820,
      "v": 61
    },
    {
      "midi": 35,
      "hit": false,
      "t": 126399.99999999996,
      "d": 1600,
      "v": 26
    },
    {
      "midi": 62,
      "hit": false,
      "t": 126399.99999999996,
      "d": 1600,
      "v": 71
    },
    {
      "midi": 35,
      "hit": false,
      "t": 126799.99999999993,
      "d": 1173.3333333333285,
      "v": 114
    },
    {
      "midi": 47,
      "hit": false,
      "t": 126799.99999999993,
      "d": 1173.3333333333285,
      "v": 114
    },
    {
      "midi": 59,
      "hit": false,
      "t": 126799.99999999993,
      "d": 1173.3333333333285,
      "v": 114
    },
    {
      "midi": 62,
      "hit": false,
      "t": 126799.99999999993,
      "d": 1173.3333333333285,
      "v": 114
    },
    {
      "midi": 41,
      "hit": false,
      "t": 126799.99999999996,
      "d": 1200,
      "v": 58
    },
    {
      "midi": 65,
      "hit": false,
      "t": 126839.99999999993,
      "d": 1080,
      "v": 114
    },
    {
      "midi": 47,
      "hit": false,
      "t": 127199.99999999996,
      "d": 800,
      "v": 54
    },
    {
      "midi": 53,
      "hit": false,
      "t": 127599.99999999996,
      "d": 400,
      "v": 55
    },
    {
      "midi": 57,
      "hit": false,
      "t": 127999.99999999993,
      "d": 1480,
      "v": 114
    },
    {
      "midi": 60,
      "hit": false,
      "t": 127999.99999999993,
      "d": 1513.3333333333285,
      "v": 114
    },
    {
      "midi": 65,
      "hit": false,
      "t": 127999.99999999993,
      "d": 1546.666666666657,
      "v": 114
    },
    {
      "midi": 48,
      "hit": false,
      "t": 127999.99999999993,
      "d": 3133.3333333333285,
      "v": 114
    },
    {
      "midi": 36,
      "hit": false,
      "t": 127999.99999999993,
      "d": 3339.9999999999854,
      "v": 114
    },
    {
      "midi": 48,
      "hit": false,
      "t": 127999.99999999996,
      "d": 566.6666666666715,
      "v": 71
    },
    {
      "midi": 65,
      "hit": false,
      "t": 127999.99999999996,
      "d": 2146.6666666666715,
      "v": 71
    },
    {
      "midi": 69,
      "hit": false,
      "t": 127999.99999999996,
      "d": 2466.6666666666715,
      "v": 71
    },
    {
      "midi": 69,
      "hit": false,
      "t": 128039.99999999993,
      "d": 746.6666666666715,
      "v": 114
    },
    {
      "midi": 60,
      "hit": false,
      "t": 128399.99999999996,
      "d": 506.6666666666715,
      "v": 71
    },
    {
      "midi": 69,
      "hit": false,
      "t": 128799.99999999993,
      "d": 393.3333333333285,
      "v": 114
    },
    {
      "midi": 57,
      "hit": false,
      "t": 128799.99999999996,
      "d": 533.3333333333285,
      "v": 71
    },
    {
      "midi": 69,
      "hit": false,
      "t": 129199.99999999993,
      "d": 1113.333333333314,
      "v": 114
    },
    {
      "midi": 60,
      "hit": false,
      "t": 129199.99999999996,
      "d": 506.6666666666715,
      "v": 71
    },
    {
      "midi": 60,
      "hit": false,
      "t": 129599.99999999991,
      "d": 1686.666666666657,
      "v": 114
    },
    {
      "midi": 57,
      "hit": false,
      "t": 129599.99999999991,
      "d": 1773.333333333343,
      "v": 114
    },
    {
      "midi": 48,
      "hit": false,
      "t": 129599.99999999996,
      "d": 506.6666666666715,
      "v": 71
    },
    {
      "midi": 65,
      "hit": false,
      "t": 129639.99999999991,
      "d": 1513.333333333343,
      "v": 114
    },
    {
      "midi": 60,
      "hit": false,
      "t": 129999.99999999996,
      "d": 546.6666666666715,
      "v": 71
    },
    {
      "midi": 69,
      "hit": false,
      "t": 130399.99999999991,
      "d": 573.3333333333285,
      "v": 114
    },
    {
      "midi": 65,
      "hit": false,
      "t": 130399.99999999996,
      "d": 306.6666666666715,
      "v": 71
    },
    {
      "midi": 57,
      "hit": false,
      "t": 130399.99999999996,
      "d": 400,
      "v": 71
    },
    {
      "midi": 67,
      "hit": false,
      "t": 130599.99999999996,
      "d": 373.3333333333285,
      "v": 71
    },
    {
      "midi": 70,
      "hit": false,
      "t": 130799.99999999991,
      "d": 1406.666666666686,
      "v": 114
    },
    {
      "midi": 60,
      "hit": false,
      "t": 130799.99999999996,
      "d": 399.99999999998545,
      "v": 68
    },
    {
      "midi": 69,
      "hit": false,
      "t": 130799.99999999996,
      "d": 399.99999999998545,
      "v": 71
    },
    {
      "midi": 58,
      "hit": false,
      "t": 131199.9999999999,
      "d": 786.6666666666861,
      "v": 114
    },
    {
      "midi": 62,
      "hit": false,
      "t": 131199.9999999999,
      "d": 1620.000000000029,
      "v": 114
    },
    {
      "midi": 55,
      "hit": false,
      "t": 131199.9999999999,
      "d": 3320.000000000029,
      "v": 114
    },
    {
      "midi": 48,
      "hit": false,
      "t": 131199.9999999999,
      "d": 3353.333333333372,
      "v": 114
    },
    {
      "midi": 55,
      "hit": false,
      "t": 131199.99999999994,
      "d": 766.666666666657,
      "v": 45
    },
    {
      "midi": 58,
      "hit": false,
      "t": 131199.99999999994,
      "d": 766.666666666657,
      "v": 65
    },
    {
      "midi": 65,
      "hit": false,
      "t": 131199.99999999994,
      "d": 800,
      "v": 64
    },
    {
      "midi": 36,
      "hit": false,
      "t": 131199.99999999994,
      "d": 2840,
      "v": 60
    },
    {
      "midi": 38,
      "hit": false,
      "t": 131599.99999999994,
      "d": 2480,
      "v": 57
    },
    {
      "midi": 67,
      "hit": false,
      "t": 131999.99999999994,
      "d": 553.333333333343,
      "v": 114
    },
    {
      "midi": 53,
      "hit": false,
      "t": 132399.99999999994,
      "d": 806.666666666657,
      "v": 60
    },
    {
      "midi": 65,
      "hit": false,
      "t": 132399.99999999994,
      "d": 473.33333333334303,
      "v": 114
    },
    {
      "midi": 55,
      "hit": false,
      "t": 132799.99999999994,
      "d": 440,
      "v": 64
    },
    {
      "midi": 58,
      "hit": false,
      "t": 132799.99999999994,
      "d": 1773.333333333343,
      "v": 114
    },
    {
      "midi": 58,
      "hit": false,
      "t": 133199.99999999994,
      "d": 366.66666666665697,
      "v": 79
    },
    {
      "midi": 62,
      "hit": false,
      "t": 133599.99999999994,
      "d": 420,
      "v": 66
    },
    {
      "midi": 64,
      "hit": false,
      "t": 133599.99999999994,
      "d": 553.333333333343,
      "v": 114
    },
    {
      "midi": 55,
      "hit": false,
      "t": 133999.99999999994,
      "d": 93.33333333334303,
      "v": 65
    },
    {
      "midi": 65,
      "hit": false,
      "t": 133999.99999999994,
      "d": 1460.000000000029,
      "v": 114
    },
    {
      "midi": 34,
      "hit": false,
      "t": 134399.99999999994,
      "d": 333.33333333334303,
      "v": 60
    },
    {
      "midi": 53,
      "hit": false,
      "t": 134399.99999999994,
      "d": 333.33333333334303,
      "v": 45
    },
    {
      "midi": 57,
      "hit": false,
      "t": 134399.99999999994,
      "d": 333.33333333334303,
      "v": 65
    },
    {
      "midi": 62,
      "hit": false,
      "t": 134399.99999999994,
      "d": 333.33333333334303,
      "v": 64
    },
    {
      "midi": 62,
      "hit": false,
      "t": 134399.99999999994,
      "d": 20,
      "v": 114
    },
    {
      "midi": 53,
      "hit": false,
      "t": 134399.99999999994,
      "d": 993.333333333343,
      "v": 114
    },
    {
      "midi": 57,
      "hit": false,
      "t": 134399.99999999994,
      "d": 1006.6666666666861,
      "v": 114
    },
    {
      "midi": 46,
      "hit": false,
      "t": 134399.99999999994,
      "d": 1046.666666666686,
      "v": 114
    },
    {
      "midi": 69,
      "hit": false,
      "t": 134439.99999999994,
      "d": 1006.6666666666861,
      "v": 114
    },
    {
      "midi": 52,
      "hit": false,
      "t": 134799.99999999994,
      "d": 1153.333333333343,
      "v": 45
    },
    {
      "midi": 55,
      "hit": false,
      "t": 134799.99999999994,
      "d": 1153.333333333343,
      "v": 65
    },
    {
      "midi": 60,
      "hit": false,
      "t": 134799.99999999994,
      "d": 1186.666666666686,
      "v": 64
    },
    {
      "midi": 45,
      "hit": false,
      "t": 134799.99999999994,
      "d": 1986.666666666686,
      "v": 60
    },
    {
      "midi": 40,
      "hit": false,
      "t": 135599.99999999994,
      "d": 1200.000000000029,
      "v": 57
    },
    {
      "midi": 45,
      "hit": false,
      "t": 135599.99999999997,
      "d": 1320,
      "v": 114
    },
    {
      "midi": 52,
      "hit": false,
      "t": 135599.99999999997,
      "d": 1340,
      "v": 114
    },
    {
      "midi": 55,
      "hit": false,
      "t": 135599.99999999997,
      "d": 1340,
      "v": 114
    },
    {
      "midi": 60,
      "hit": false,
      "t": 135599.99999999997,
      "d": 1340,
      "v": 114
    },
    {
      "midi": 67,
      "hit": false,
      "t": 135599.99999999997,
      "d": 1393.333333333343,
      "v": 114
    },
    {
      "midi": 48,
      "hit": false,
      "t": 136399.99999999997,
      "d": 400,
      "v": 60
    },
    {
      "midi": 43,
      "hit": false,
      "t": 136799.99999999997,
      "d": 800,
      "v": 67
    },
    {
      "midi": 53,
      "hit": false,
      "t": 136799.99999999997,
      "d": 800,
      "v": 72
    },
    {
      "midi": 58,
      "hit": false,
      "t": 136799.99999999997,
      "d": 800,
      "v": 72
    },
    {
      "midi": 50,
      "hit": false,
      "t": 136799.99999999997,
      "d": 2940,
      "v": 114
    },
    {
      "midi": 43,
      "hit": false,
      "t": 136799.99999999997,
      "d": 2993.333333333343,
      "v": 114
    },
    {
      "midi": 53,
      "hit": false,
      "t": 136799.99999999997,
      "d": 3006.666666666686,
      "v": 114
    },
    {
      "midi": 58,
      "hit": false,
      "t": 136799.99999999997,
      "d": 4033.333333333372,
      "v": 114
    },
    {
      "midi": 65,
      "hit": false,
      "t": 136839.99999999997,
      "d": 2466.666666666657,
      "v": 114
    },
    {
      "midi": 50,
      "hit": false,
      "t": 137199.99999999997,
      "d": 400,
      "v": 72
    },
    {
      "midi": 43,
      "hit": false,
      "t": 137599.99999999997,
      "d": 726.666666666657,
      "v": 72
    },
    {
      "midi": 58,
      "hit": false,
      "t": 137599.99999999997,
      "d": 1093.333333333343,
      "v": 72
    },
    {
      "midi": 53,
      "hit": false,
      "t": 137599.99999999997,
      "d": 1146.666666666686,
      "v": 72
    },
    {
      "midi": 50,
      "hit": false,
      "t": 137999.99999999997,
      "d": 693.333333333343,
      "v": 58
    },
    {
      "midi": 46,
      "hit": false,
      "t": 138399.99999999997,
      "d": 706.6666666666861,
      "v": 72
    },
    {
      "midi": 62,
      "hit": false,
      "t": 138399.99999999997,
      "d": 800.0000000000291,
      "v": 72
    },
    {
      "midi": 50,
      "hit": false,
      "t": 138800,
      "d": 680,
      "v": 72
    },
    {
      "midi": 67,
      "hit": false,
      "t": 139199.99999999997,
      "d": 1093.3333333333721,
      "v": 114
    },
    {
      "midi": 55,
      "hit": false,
      "t": 139200,
      "d": 666.666666666657,
      "v": 72
    },
    {
      "midi": 43,
      "hit": false,
      "t": 139200,
      "d": 680,
      "v": 71
    },
    {
      "midi": 50,
      "hit": false,
      "t": 139600,
      "d": 706.666666666657,
      "v": 67
    },
    {
      "midi": 57,
      "hit": false,
      "t": 139600,
      "d": 706.666666666657,
      "v": 72
    },
    {
      "midi": 46,
      "hit": false,
      "t": 140000,
      "d": 680,
      "v": 72
    },
    {
      "midi": 58,
      "hit": false,
      "t": 140000,
      "d": 693.333333333343,
      "v": 72
    },
    {
      "midi": 36,
      "hit": false,
      "t": 140000,
      "d": 1233.333333333343,
      "v": 114
    },
    {
      "midi": 50,
      "hit": false,
      "t": 140400,
      "d": 400,
      "v": 72
    },
    {
      "midi": 62,
      "hit": false,
      "t": 140400,
      "d": 400,
      "v": 72
    },
    {
      "midi": 65,
      "hit": false,
      "t": 140400,
      "d": 393.33333333334303,
      "v": 114
    },
    {
      "midi": 55,
      "hit": false,
      "t": 140760,
      "d": 1533.333333333343,
      "v": 114
    },
    {
      "midi": 53,
      "hit": false,
      "t": 140800,
      "d": 3200,
      "v": 71
    },
    {
      "midi": 57,
      "hit": false,
      "t": 140800,
      "d": 1566.666666666657,
      "v": 114
    },
    {
      "midi": 60,
      "hit": false,
      "t": 140800,
      "d": 1566.666666666657,
      "v": 114
    },
    {
      "midi": 48,
      "hit": false,
      "t": 140800,
      "d": 2193.333333333343,
      "v": 114
    },
    {
      "midi": 41,
      "hit": false,
      "t": 140800,
      "d": 2240,
      "v": 114
    },
    {
      "midi": 65,
      "hit": false,
      "t": 140840,
      "d": 4680.000000000029,
      "v": 114
    },
    {
      "midi": 57,
      "hit": false,
      "t": 141200,
      "d": 2800,
      "v": 65
    },
    {
      "midi": 60,
      "hit": false,
      "t": 141600,
      "d": 1200,
      "v": 71
    },
    {
      "midi": 67,
      "hit": false,
      "t": 142000,
      "d": 800,
      "v": 71
    },
    {
      "midi": 55,
      "hit": false,
      "t": 142360,
      "d": 1533.333333333343,
      "v": 114
    },
    {
      "midi": 69,
      "hit": false,
      "t": 142400,
      "d": 800,
      "v": 71
    },
    {
      "midi": 60,
      "hit": false,
      "t": 142400,
      "d": 1546.666666666686,
      "v": 114
    },
    {
      "midi": 57,
      "hit": false,
      "t": 142400,
      "d": 1706.666666666686,
      "v": 114
    },
    {
      "midi": 60,
      "hit": false,
      "t": 142800,
      "d": 1200,
      "v": 71
    },
    {
      "midi": 67,
      "hit": false,
      "t": 143200,
      "d": 400,
      "v": 71
    },
    {
      "midi": 41,
      "hit": false,
      "t": 143200,
      "d": 573.333333333343,
      "v": 114
    },
    {
      "midi": 69,
      "hit": false,
      "t": 143600,
      "d": 400,
      "v": 71
    },
    {
      "midi": 43,
      "hit": false,
      "t": 143600,
      "d": 626.6666666666861,
      "v": 114
    },
    {
      "midi": 45,
      "hit": false,
      "t": 144000,
      "d": 3200,
      "v": 71
    },
    {
      "midi": 55,
      "hit": false,
      "t": 144000.00000000003,
      "d": 1566.666666666657,
      "v": 114
    },
    {
      "midi": 60,
      "hit": false,
      "t": 144000.00000000003,
      "d": 1566.666666666657,
      "v": 114
    },
    {
      "midi": 45,
      "hit": false,
      "t": 144000.00000000003,
      "d": 1753.333333333343,
      "v": 114
    },
    {
      "midi": 57,
      "hit": false,
      "t": 144400,
      "d": 800,
      "v": 71
    },
    {
      "midi": 60,
      "hit": false,
      "t": 144800,
      "d": 800,
      "v": 71
    },
    {
      "midi": 57,
      "hit": false,
      "t": 145200,
      "d": 800,
      "v": 68
    },
    {
      "midi": 65,
      "hit": false,
      "t": 145600,
      "d": 800,
      "v": 71
    },
    {
      "midi": 55,
      "hit": false,
      "t": 145600.00000000003,
      "d": 866.666666666657,
      "v": 114
    },
    {
      "midi": 60,
      "hit": false,
      "t": 145600.00000000003,
      "d": 1600,
      "v": 114
    },
    {
      "midi": 69,
      "hit": false,
      "t": 145633.33333333337,
      "d": 660,
      "v": 114
    },
    {
      "midi": 60,
      "hit": false,
      "t": 146000,
      "d": 800,
      "v": 69
    },
    {
      "midi": 70,
      "hit": false,
      "t": 146133.33333333337,
      "d": 733.3333333333139,
      "v": 114
    },
    {
      "midi": 57,
      "hit": false,
      "t": 146400,
      "d": 800,
      "v": 71
    },
    {
      "midi": 45,
      "hit": false,
      "t": 146400.00000000003,
      "d": 853.333333333343,
      "v": 114
    },
    {
      "midi": 72,
      "hit": false,
      "t": 146666.6666666667,
      "d": 520,
      "v": 114
    },
    {
      "midi": 60,
      "hit": false,
      "t": 146800,
      "d": 400,
      "v": 71
    },
    {
      "midi": 69,
      "hit": false,
      "t": 147200,
      "d": 346.66666666665697,
      "v": 85
    },
    {
      "midi": 46,
      "hit": false,
      "t": 147200,
      "d": 3200,
      "v": 59
    },
    {
      "midi": 65,
      "hit": false,
      "t": 147200.00000000003,
      "d": 66.66666666668607,
      "v": 114
    },
    {
      "midi": 57,
      "hit": false,
      "t": 147200.00000000003,
      "d": 1566.666666666686,
      "v": 114
    },
    {
      "midi": 62,
      "hit": false,
      "t": 147200.00000000003,
      "d": 1566.666666666686,
      "v": 114
    },
    {
      "midi": 46,
      "hit": false,
      "t": 147200.00000000003,
      "d": 3113.333333333372,
      "v": 114
    },
    {
      "midi": 57,
      "hit": false,
      "t": 147233.33333333334,
      "d": 2086.666666666657,
      "v": 90
    },
    {
      "midi": 72,
      "hit": false,
      "t": 147240.00000000003,
      "d": 2086.666666666686,
      "v": 114
    },
    {
      "midi": 65,
      "hit": false,
      "t": 147400,
      "d": 1046.666666666657,
      "v": 75
    },
    {
      "midi": 53,
      "hit": false,
      "t": 147400,
      "d": 3000,
      "v": 59
    },
    {
      "midi": 58,
      "hit": false,
      "t": 147600,
      "d": 946.666666666657,
      "v": 64
    },
    {
      "midi": 62,
      "hit": false,
      "t": 148800.00000000006,
      "d": 1546.666666666686,
      "v": 114
    },
    {
      "midi": 57,
      "hit": false,
      "t": 148800.00000000006,
      "d": 1773.333333333343,
      "v": 114
    },
    {
      "midi": 57,
      "hit": false,
      "t": 149400,
      "d": 1000,
      "v": 83
    },
    {
      "midi": 58,
      "hit": false,
      "t": 149600,
      "d": 413.33333333334303,
      "v": 48
    },
    {
      "midi": 74,
      "hit": false,
      "t": 149600.00000000006,
      "d": 553.333333333343,
      "v": 114
    },
    {
      "midi": 65,
      "hit": false,
      "t": 149800,
      "d": 440,
      "v": 74
    },
    {
      "midi": 69,
      "hit": false,
      "t": 150000,
      "d": 300,
      "v": 73
    },
    {
      "midi": 65,
      "hit": false,
      "t": 150000.00000000006,
      "d": 466.66666666668607,
      "v": 114
    },
    {
      "midi": 72,
      "hit": false,
      "t": 150200,
      "d": 200,
      "v": 71
    },
    {
      "midi": 46,
      "hit": false,
      "t": 150400,
      "d": 566.666666666657,
      "v": 71
    },
    {
      "midi": 58,
      "hit": false,
      "t": 150400,
      "d": 2146.666666666657,
      "v": 71
    },
    {
      "midi": 62,
      "hit": false,
      "t": 150400,
      "d": 2466.666666666657,
      "v": 71
    },
    {
      "midi": 58,
      "hit": false,
      "t": 150400.0000000001,
      "d": 786.666666666657,
      "v": 114
    },
    {
      "midi": 62,
      "hit": false,
      "t": 150400.0000000001,
      "d": 886.666666666657,
      "v": 114
    },
    {
      "midi": 46,
      "hit": false,
      "t": 150400.0000000001,
      "d": 1533.333333333314,
      "v": 114
    },
    {
      "midi": 53,
      "hit": false,
      "t": 150400.0000000001,
      "d": 3306.666666666628,
      "v": 114
    },
    {
      "midi": 70,
      "hit": false,
      "t": 150440.0000000001,
      "d": 953.3333333333139,
      "v": 114
    },
    {
      "midi": 53,
      "hit": false,
      "t": 150800,
      "d": 506.66666666665697,
      "v": 71
    },
    {
      "midi": 50,
      "hit": false,
      "t": 151200,
      "d": 533.333333333343,
      "v": 71
    },
    {
      "midi": 58,
      "hit": false,
      "t": 151200.0000000001,
      "d": 573.3333333333139,
      "v": 114
    },
    {
      "midi": 53,
      "hit": false,
      "t": 151600,
      "d": 506.66666666665697,
      "v": 71
    },
    {
      "midi": 62,
      "hit": false,
      "t": 151600.00000000006,
      "d": 953.333333333343,
      "v": 114
    },
    {
      "midi": 46,
      "hit": false,
      "t": 152000,
      "d": 506.66666666665697,
      "v": 71
    },
    {
      "midi": 46,
      "hit": false,
      "t": 152000.00000000006,
      "d": 1826.666666666657,
      "v": 114
    },
    {
      "midi": 53,
      "hit": false,
      "t": 152400,
      "d": 546.666666666657,
      "v": 71
    },
    {
      "midi": 65,
      "hit": false,
      "t": 152400.00000000006,
      "d": 520,
      "v": 114
    },
    {
      "midi": 58,
      "hit": false,
      "t": 152800,
      "d": 306.66666666665697,
      "v": 71
    },
    {
      "midi": 50,
      "hit": false,
      "t": 152800,
      "d": 400,
      "v": 71
    },
    {
      "midi": 70,
      "hit": false,
      "t": 152800.00000000006,
      "d": 786.666666666657,
      "v": 114
    },
    {
      "midi": 60,
      "hit": false,
      "t": 153000,
      "d": 373.33333333334303,
      "v": 71
    },
    {
      "midi": 53,
      "hit": false,
      "t": 153200,
      "d": 400,
      "v": 68
    },
    {
      "midi": 62,
      "hit": false,
      "t": 153200,
      "d": 400,
      "v": 71
    },
    {
      "midi": 48,
      "hit": false,
      "t": 153600,
      "d": 726.666666666657,
      "v": 72
    },
    {
      "midi": 69,
      "hit": false,
      "t": 153600,
      "d": 1093.333333333343,
      "v": 72
    },
    {
      "midi": 65,
      "hit": false,
      "t": 153600,
      "d": 1146.666666666686,
      "v": 72
    },
    {
      "midi": 69,
      "hit": false,
      "t": 153600.00000000006,
      "d": 733.3333333333139,
      "v": 114
    },
    {
      "midi": 65,
      "hit": false,
      "t": 153600.00000000006,
      "d": 1546.666666666657,
      "v": 114
    },
    {
      "midi": 60,
      "hit": false,
      "t": 153600.00000000006,
      "d": 1839.999999999971,
      "v": 114
    },
    {
      "midi": 48,
      "hit": false,
      "t": 153600.00000000006,
      "d": 2226.666666666628,
      "v": 114
    },
    {
      "midi": 72,
      "hit": false,
      "t": 153640.00000000006,
      "d": 919.9999999999709,
      "v": 114
    },
    {
      "midi": 60,
      "hit": false,
      "t": 154000,
      "d": 693.333333333343,
      "v": 58
    },
    {
      "midi": 57,
      "hit": false,
      "t": 154400,
      "d": 706.6666666666861,
      "v": 72
    },
    {
      "midi": 72,
      "hit": false,
      "t": 154400,
      "d": 800.0000000000291,
      "v": 72
    },
    {
      "midi": 69,
      "hit": false,
      "t": 154400.00000000003,
      "d": 553.333333333343,
      "v": 114
    },
    {
      "midi": 60,
      "hit": false,
      "t": 154800.00000000003,
      "d": 680,
      "v": 72
    },
    {
      "midi": 72,
      "hit": false,
      "t": 154800.00000000003,
      "d": 393.33333333334303,
      "v": 114
    },
    {
      "midi": 65,
      "hit": false,
      "t": 155200.00000000003,
      "d": 666.666666666657,
      "v": 72
    },
    {
      "midi": 48,
      "hit": false,
      "t": 155200.00000000003,
      "d": 680,
      "v": 71
    },
    {
      "midi": 69,
      "hit": false,
      "t": 155200.00000000003,
      "d": 1666.666666666686,
      "v": 114
    },
    {
      "midi": 72,
      "hit": false,
      "t": 155240.00000000003,
      "d": 906.666666666657,
      "v": 114
    },
    {
      "midi": 60,
      "hit": false,
      "t": 155600.00000000003,
      "d": 706.666666666657,
      "v": 67
    },
    {
      "midi": 67,
      "hit": false,
      "t": 155600.00000000003,
      "d": 706.666666666657,
      "v": 72
    },
    {
      "midi": 57,
      "hit": false,
      "t": 156000.00000000003,
      "d": 680,
      "v": 72
    },
    {
      "midi": 69,
      "hit": false,
      "t": 156000.00000000003,
      "d": 693.333333333343,
      "v": 72
    },
    {
      "midi": 77,
      "hit": false,
      "t": 156000.00000000003,
      "d": 540,
      "v": 114
    },
    {
      "midi": 48,
      "hit": false,
      "t": 156000.00000000003,
      "d": 920.0000000000291,
      "v": 114
    },
    {
      "midi": 60,
      "hit": false,
      "t": 156400.00000000003,
      "d": 400,
      "v": 72
    },
    {
      "midi": 72,
      "hit": false,
      "t": 156400.00000000003,
      "d": 400,
      "v": 72
    },
    {
      "midi": 74,
      "hit": false,
      "t": 156400.00000000003,
      "d": 1006.6666666666861,
      "v": 114
    },
    {
      "midi": 64,
      "hit": false,
      "t": 156760.00000000003,
      "d": 1753.3333333334012,
      "v": 114
    },
    {
      "midi": 50,
      "hit": false,
      "t": 156800.00000000003,
      "d": 560,
      "v": 71
    },
    {
      "midi": 69,
      "hit": false,
      "t": 156800.00000000003,
      "d": 1000,
      "v": 71
    },
    {
      "midi": 65,
      "hit": false,
      "t": 156800.00000000003,
      "d": 53.333333333343035,
      "v": 114
    },
    {
      "midi": 57,
      "hit": false,
      "t": 156800.00000000003,
      "d": 1533.3333333333721,
      "v": 114
    },
    {
      "midi": 50,
      "hit": false,
      "t": 156800.00000000003,
      "d": 1546.6666666667152,
      "v": 114
    },
    {
      "midi": 57,
      "hit": false,
      "t": 157200.00000000003,
      "d": 533.333333333343,
      "v": 66
    },
    {
      "midi": 72,
      "hit": false,
      "t": 157200.00000000006,
      "d": 506.66666666665697,
      "v": 114
    },
    {
      "midi": 62,
      "hit": false,
      "t": 157600.00000000003,
      "d": 333.33333333334303,
      "v": 67
    },
    {
      "midi": 53,
      "hit": false,
      "t": 157600.00000000003,
      "d": 573.333333333343,
      "v": 71
    },
    {
      "midi": 69,
      "hit": false,
      "t": 157600.00000000006,
      "d": 313.33333333334303,
      "v": 114
    },
    {
      "midi": 64,
      "hit": false,
      "t": 157800.00000000003,
      "d": 373.33333333334303,
      "v": 71
    },
    {
      "midi": 67,
      "hit": false,
      "t": 157800.00000000006,
      "d": 313.33333333334303,
      "v": 114
    },
    {
      "midi": 65,
      "hit": false,
      "t": 158000.00000000003,
      "d": 346.66666666665697,
      "v": 71
    },
    {
      "midi": 57,
      "hit": false,
      "t": 158000.00000000003,
      "d": 400,
      "v": 71
    },
    {
      "midi": 65,
      "hit": false,
      "t": 158000.00000000006,
      "d": 553.3333333333721,
      "v": 114
    },
    {
      "midi": 69,
      "hit": false,
      "t": 158200.00000000003,
      "d": 200,
      "v": 71
    },
    {
      "midi": 50,
      "hit": false,
      "t": 158400.00000000003,
      "d": 733.333333333343,
      "v": 70
    },
    {
      "midi": 65,
      "hit": false,
      "t": 158400.00000000003,
      "d": 1600,
      "v": 70
    },
    {
      "midi": 57,
      "hit": false,
      "t": 158400.0000000001,
      "d": 786.6666666666861,
      "v": 114
    },
    {
      "midi": 50,
      "hit": false,
      "t": 158400.0000000001,
      "d": 1620,
      "v": 114
    },
    {
      "midi": 62,
      "hit": false,
      "t": 158433.33333333343,
      "d": 906.6666666666861,
      "v": 114
    },
    {
      "midi": 57,
      "hit": false,
      "t": 158800.00000000003,
      "d": 786.666666666657,
      "v": 70
    },
    {
      "midi": 53,
      "hit": false,
      "t": 159200.00000000003,
      "d": 766.666666666657,
      "v": 70
    },
    {
      "midi": 60,
      "hit": false,
      "t": 159200.00000000012,
      "d": 626.666666666657,
      "v": 114
    },
    {
      "midi": 57,
      "hit": false,
      "t": 159600.00000000003,
      "d": 400,
      "v": 70
    },
    {
      "midi": 58,
      "hit": false,
      "t": 159600.00000000012,
      "d": 393.33333333331393,
      "v": 114
    },
    {
      "midi": 59,
      "hit": false,
      "t": 160000.0000000001,
      "d": 33.333333333343035,
      "v": 114
    },
    {
      "midi": 43,
      "hit": false,
      "t": 160000.0000000001,
      "d": 2193.333333333343,
      "v": 114
    },
    {
      "midi": 53,
      "hit": false,
      "t": 160000.0000000001,
      "d": 2260,
      "v": 114
    },
    {
      "midi": 65,
      "hit": false,
      "t": 160006.6666666667,
      "d": 846.666666666657,
      "v": 58
    },
    {
      "midi": 67,
      "hit": false,
      "t": 160013.33333333334,
      "d": 833.333333333343,
      "v": 51
    },
    {
      "midi": 71,
      "hit": false,
      "t": 160013.33333333334,
      "d": 846.666666666657,
      "v": 53
    },
    {
      "midi": 62,
      "hit": false,
      "t": 160013.33333333334,
      "d": 873.3333333333139,
      "v": 39
    },
    {
      "midi": 55,
      "hit": false,
      "t": 160020,
      "d": 913.3333333333139,
      "v": 39
    },
    {
      "midi": 43,
      "hit": false,
      "t": 160033.33333333334,
      "d": 853.3333333333139,
      "v": 36
    },
    {
      "midi": 59,
      "hit": false,
      "t": 160080.0000000001,
      "d": 1426.666666666657,
      "v": 114
    },
    {
      "midi": 62,
      "hit": false,
      "t": 160400.0000000001,
      "d": 553.333333333343,
      "v": 114
    },
    {
      "midi": 65,
      "hit": false,
      "t": 160800.0000000001,
      "d": 393.33333333334303,
      "v": 114
    },
    {
      "midi": 65,
      "hit": false,
      "t": 161200.0000000001,
      "d": 593.333333333343,
      "v": 114
    },
    {
      "midi": 62,
      "hit": false,
      "t": 161206.66666666666,
      "d": 1393.333333333343,
      "v": 49
    },
    {
      "midi": 67,
      "hit": false,
      "t": 161206.66666666666,
      "d": 1993.333333333343,
      "v": 50
    },
    {
      "midi": 71,
      "hit": false,
      "t": 161206.66666666666,
      "d": 1993.333333333343,
      "v": 68
    },
    {
      "midi": 65,
      "hit": false,
      "t": 161220,
      "d": 1980,
      "v": 63
    },
    {
      "midi": 59,
      "hit": false,
      "t": 161600.0000000001,
      "d": 1600,
      "v": 114
    },
    {
      "midi": 67,
      "hit": false,
      "t": 161633.33333333343,
      "d": 506.66666666665697,
      "v": 114
    },
    {
      "midi": 43,
      "hit": false,
      "t": 161986.66666666666,
      "d": 1213.333333333343,
      "v": 32
    },
    {
      "midi": 69,
      "hit": false,
      "t": 162000.0000000001,
      "d": 646.666666666657,
      "v": 114
    },
    {
      "midi": 67,
      "hit": false,
      "t": 162400.0000000001,
      "d": 786.666666666657,
      "v": 114
    },
    {
      "midi": 43,
      "hit": false,
      "t": 162400.0000000001,
      "d": 920,
      "v": 114
    },
    {
      "midi": 55,
      "hit": false,
      "t": 162440,
      "d": 760,
      "v": 57
    },
    {
      "midi": 62,
      "hit": false,
      "t": 162820,
      "d": 380,
      "v": 78
    },
    {
      "midi": 48,
      "hit": false,
      "t": 163200,
      "d": 3200,
      "v": 71
    },
    {
      "midi": 62,
      "hit": false,
      "t": 163200.0000000001,
      "d": 33.333333333343035,
      "v": 114
    },
    {
      "midi": 58,
      "hit": false,
      "t": 163200.0000000001,
      "d": 1493.333333333343,
      "v": 114
    },
    {
      "midi": 36,
      "hit": false,
      "t": 163200.0000000001,
      "d": 2313.333333333343,
      "v": 114
    },
    {
      "midi": 65,
      "hit": false,
      "t": 163240.0000000001,
      "d": 1533.333333333343,
      "v": 114
    },
    {
      "midi": 50,
      "hit": false,
      "t": 163600,
      "d": 2800,
      "v": 65
    },
    {
      "midi": 53,
      "hit": false,
      "t": 164000,
      "d": 1200,
      "v": 71
    },
    {
      "midi": 58,
      "hit": false,
      "t": 164400,
      "d": 800,
      "v": 71
    },
    {
      "midi": 69,
      "hit": false,
      "t": 164400.0000000001,
      "d": 333.33333333334303,
      "v": 114
    },
    {
      "midi": 67,
      "hit": false,
      "t": 164600.0000000001,
      "d": 366.66666666668607,
      "v": 114
    },
    {
      "midi": 62,
      "hit": false,
      "t": 164800,
      "d": 800,
      "v": 71
    },
    {
      "midi": 48,
      "hit": false,
      "t": 164800.0000000001,
      "d": 953.3333333333721,
      "v": 114
    },
    {
      "midi": 62,
      "hit": false,
      "t": 164800.0000000001,
      "d": 1686.666666666686,
      "v": 114
    },
    {
      "midi": 58,
      "hit": false,
      "t": 164800.0000000001,
      "d": 1753.333333333343,
      "v": 114
    },
    {
      "midi": 65,
      "hit": false,
      "t": 164833.33333333343,
      "d": 753.333333333343,
      "v": 114
    },
    {
      "midi": 53,
      "hit": false,
      "t": 165200,
      "d": 1200,
      "v": 71
    },
    {
      "midi": 58,
      "hit": false,
      "t": 165600,
      "d": 400,
      "v": 71
    },
    {
      "midi": 65,
      "hit": false,
      "t": 165600.00000000012,
      "d": 520,
      "v": 114
    },
    {
      "midi": 36,
      "hit": false,
      "t": 165600.00000000012,
      "d": 1113.333333333314,
      "v": 114
    },
    {
      "midi": 62,
      "hit": false,
      "t": 166000,
      "d": 400,
      "v": 71
    },
    {
      "midi": 60,
      "hit": false,
      "t": 166000.00000000012,
      "d": 1946.666666666657,
      "v": 114
    },
    {
      "midi": 53,
      "hit": false,
      "t": 166400,
      "d": 800,
      "v": 71
    },
    {
      "midi": 65,
      "hit": false,
      "t": 166400,
      "d": 1613.333333333343,
      "v": 71
    },
    {
      "midi": 69,
      "hit": false,
      "t": 166400,
      "d": 1613.333333333343,
      "v": 71
    },
    {
      "midi": 57,
      "hit": false,
      "t": 166400.00000000012,
      "d": 1566.666666666657,
      "v": 114
    },
    {
      "midi": 41,
      "hit": false,
      "t": 166400.00000000012,
      "d": 3113.333333333314,
      "v": 114
    },
    {
      "midi": 53,
      "hit": false,
      "t": 166400.00000000012,
      "d": 3219.999999999971,
      "v": 114
    },
    {
      "midi": 48,
      "hit": false,
      "t": 166400.00000000012,
      "d": 3253.333333333314,
      "v": 114
    },
    {
      "midi": 60,
      "hit": false,
      "t": 166800,
      "d": 800,
      "v": 63
    },
    {
      "midi": 57,
      "hit": false,
      "t": 167200,
      "d": 813.333333333343,
      "v": 71
    },
    {
      "midi": 60,
      "hit": false,
      "t": 167600,
      "d": 800,
      "v": 71
    },
    {
      "midi": 60,
      "hit": false,
      "t": 168000.00000000012,
      "d": 906.666666666657,
      "v": 114
    },
    {
      "midi": 57,
      "hit": false,
      "t": 168000.00000000012,
      "d": 1753.333333333314,
      "v": 114
    },
    {
      "midi": 53,
      "hit": false,
      "t": 168013.33333333334,
      "d": 786.666666666657,
      "v": 71
    },
    {
      "midi": 65,
      "hit": false,
      "t": 168013.33333333334,
      "d": 786.666666666657,
      "v": 71
    },
    {
      "midi": 60,
      "hit": false,
      "t": 168400,
      "d": 800,
      "v": 71
    },
    {
      "midi": 67,
      "hit": false,
      "t": 168400,
      "d": 800,
      "v": 71
    },
    {
      "midi": 57,
      "hit": false,
      "t": 168800,
      "d": 800,
      "v": 71
    },
    {
      "midi": 69,
      "hit": false,
      "t": 168800,
      "d": 800,
      "v": 71
    },
    {
      "midi": 65,
      "hit": false,
      "t": 168800.00000000012,
      "d": 993.3333333333139,
      "v": 114
    },
    {
      "midi": 60,
      "hit": false,
      "t": 169200,
      "d": 400,
      "v": 71
    },
    {
      "midi": 72,
      "hit": false,
      "t": 169200,
      "d": 400,
      "v": 71
    },
    {
      "midi": 53,
      "hit": false,
      "t": 169600,
      "d": 726.666666666657,
      "v": 72
    },
    {
      "midi": 67,
      "hit": false,
      "t": 169600,
      "d": 1093.333333333343,
      "v": 72
    },
    {
      "midi": 63,
      "hit": false,
      "t": 169600,
      "d": 1146.666666666686,
      "v": 72
    },
    {
      "midi": 55,
      "hit": false,
      "t": 169600.0000000001,
      "d": 1493.333333333343,
      "v": 114
    },
    {
      "midi": 58,
      "hit": false,
      "t": 169600.0000000001,
      "d": 1533.333333333343,
      "v": 114
    },
    {
      "midi": 41,
      "hit": false,
      "t": 169600.0000000001,
      "d": 3180.000000000029,
      "v": 114
    },
    {
      "midi": 63,
      "hit": false,
      "t": 169633.33333333343,
      "d": 1026.666666666657,
      "v": 114
    },
    {
      "midi": 58,
      "hit": false,
      "t": 170000,
      "d": 693.333333333343,
      "v": 58
    },
    {
      "midi": 55,
      "hit": false,
      "t": 170400,
      "d": 706.6666666666861,
      "v": 72
    },
    {
      "midi": 70,
      "hit": false,
      "t": 170400,
      "d": 800.0000000000291,
      "v": 72
    },
    {
      "midi": 58,
      "hit": false,
      "t": 170800.00000000003,
      "d": 680,
      "v": 72
    },
    {
      "midi": 60,
      "hit": false,
      "t": 170800.0000000001,
      "d": 520,
      "v": 114
    },
    {
      "midi": 63,
      "hit": false,
      "t": 171200.00000000003,
      "d": 666.666666666657,
      "v": 72
    },
    {
      "midi": 53,
      "hit": false,
      "t": 171200.00000000003,
      "d": 680,
      "v": 71
    },
    {
      "midi": 58,
      "hit": false,
      "t": 171200.0000000001,
      "d": 1580.000000000029,
      "v": 114
    },
    {
      "midi": 55,
      "hit": false,
      "t": 171200.0000000001,
      "d": 1633.3333333333721,
      "v": 114
    },
    {
      "midi": 63,
      "hit": false,
      "t": 171200.0000000001,
      "d": 1653.3333333333721,
      "v": 114
    },
    {
      "midi": 68,
      "hit": false,
      "t": 171233.33333333343,
      "d": 313.33333333331393,
      "v": 114
    },
    {
      "midi": 67,
      "hit": false,
      "t": 171400.0000000001,
      "d": 333.33333333334303,
      "v": 114
    },
    {
      "midi": 58,
      "hit": false,
      "t": 171600.00000000003,
      "d": 706.666666666657,
      "v": 67
    },
    {
      "midi": 65,
      "hit": false,
      "t": 171600.00000000003,
      "d": 706.666666666657,
      "v": 72
    },
    {
      "midi": 65,
      "hit": false,
      "t": 171600.0000000001,
      "d": 786.6666666666861,
      "v": 114
    },
    {
      "midi": 55,
      "hit": false,
      "t": 172000.00000000003,
      "d": 680,
      "v": 72
    },
    {
      "midi": 67,
      "hit": false,
      "t": 172000.00000000003,
      "d": 693.333333333343,
      "v": 72
    },
    {
      "midi": 58,
      "hit": false,
      "t": 172400.00000000003,
      "d": 400,
      "v": 72
    },
    {
      "midi": 70,
      "hit": false,
      "t": 172400.00000000003,
      "d": 400,
      "v": 72
    },
    {
      "midi": 65,
      "hit": false,
      "t": 172400.00000000012,
      "d": 393.33333333334303,
      "v": 114
    },
    {
      "midi": 46,
      "hit": false,
      "t": 172800.00000000003,
      "d": 800,
      "v": 71
    },
    {
      "midi": 57,
      "hit": false,
      "t": 172800.00000000003,
      "d": 1613.333333333343,
      "v": 71
    },
    {
      "midi": 62,
      "hit": false,
      "t": 172800.00000000003,
      "d": 1613.333333333343,
      "v": 71
    },
    {
      "midi": 57,
      "hit": false,
      "t": 172800.00000000012,
      "d": 1566.666666666686,
      "v": 114
    },
    {
      "midi": 62,
      "hit": false,
      "t": 172800.00000000012,
      "d": 1566.666666666686,
      "v": 114
    },
    {
      "midi": 46,
      "hit": false,
      "t": 172800.00000000012,
      "d": 3113.3333333334012,
      "v": 114
    },
    {
      "midi": 53,
      "hit": false,
      "t": 172800.00000000012,
      "d": 3253.3333333334012,
      "v": 114
    },
    {
      "midi": 65,
      "hit": false,
      "t": 172840.00000000012,
      "d": 1526.666666666686,
      "v": 114
    },
    {
      "midi": 53,
      "hit": false,
      "t": 173200.00000000003,
      "d": 800,
      "v": 63
    },
    {
      "midi": 50,
      "hit": false,
      "t": 173600.00000000003,
      "d": 813.333333333343,
      "v": 71
    },
    {
      "midi": 53,
      "hit": false,
      "t": 174000.00000000003,
      "d": 800,
      "v": 71
    },
    {
      "midi": 62,
      "hit": false,
      "t": 174400.00000000015,
      "d": 786.6666666666861,
      "v": 114
    },
    {
      "midi": 57,
      "hit": false,
      "t": 174400.00000000015,
      "d": 1006.6666666666861,
      "v": 114
    },
    {
      "midi": 46,
      "hit": false,
      "t": 174413.33333333337,
      "d": 786.666666666657,
      "v": 71
    },
    {
      "midi": 58,
      "hit": false,
      "t": 174413.33333333337,
      "d": 786.666666666657,
      "v": 71
    },
    {
      "midi": 65,
      "hit": false,
      "t": 174433.3333333335,
      "d": 886.6666666666861,
      "v": 114
    },
    {
      "midi": 53,
      "hit": false,
      "t": 174800.00000000003,
      "d": 800,
      "v": 71
    },
    {
      "midi": 60,
      "hit": false,
      "t": 174800.00000000003,
      "d": 800,
      "v": 71
    },
    {
      "midi": 50,
      "hit": false,
      "t": 175200.00000000003,
      "d": 800,
      "v": 71
    },
    {
      "midi": 62,
      "hit": false,
      "t": 175200.00000000003,
      "d": 800,
      "v": 71
    },
    {
      "midi": 62,
      "hit": false,
      "t": 175200.00000000017,
      "d": 520,
      "v": 114
    },
    {
      "midi": 53,
      "hit": false,
      "t": 175600.00000000003,
      "d": 400,
      "v": 71
    },
    {
      "midi": 65,
      "hit": false,
      "t": 175600.00000000003,
      "d": 400,
      "v": 71
    },
    {
      "midi": 68,
      "hit": false,
      "t": 175600.00000000017,
      "d": 333.33333333334303,
      "v": 114
    },
    {
      "midi": 67,
      "hit": false,
      "t": 175800.00000000017,
      "d": 366.66666666668607,
      "v": 114
    },
    {
      "midi": 35,
      "hit": false,
      "t": 176000.00000000003,
      "d": 800,
      "v": 71
    },
    {
      "midi": 62,
      "hit": false,
      "t": 176000.00000000017,
      "d": 953.3333333333721,
      "v": 114
    },
    {
      "midi": 55,
      "hit": false,
      "t": 176000.00000000017,
      "d": 3286.6666666667443,
      "v": 114
    },
    {
      "midi": 47,
      "hit": false,
      "t": 176000.00000000017,
      "d": 3373.3333333334012,
      "v": 114
    },
    {
      "midi": 65,
      "hit": false,
      "t": 176033.33333333352,
      "d": 906.6666666666861,
      "v": 114
    },
    {
      "midi": 47,
      "hit": false,
      "t": 176400.00000000003,
      "d": 800,
      "v": 71
    },
    {
      "midi": 50,
      "hit": false,
      "t": 176800.00000000003,
      "d": 1200,
      "v": 71
    },
    {
      "midi": 59,
      "hit": false,
      "t": 176800.0000000002,
      "d": 486.66666666665697,
      "v": 114
    },
    {
      "midi": 53,
      "hit": false,
      "t": 177200.00000000003,
      "d": 800,
      "v": 71
    },
    {
      "midi": 62,
      "hit": false,
      "t": 177200.0000000002,
      "d": 953.333333333343,
      "v": 114
    },
    {
      "midi": 59,
      "hit": false,
      "t": 177600.00000000003,
      "d": 800,
      "v": 71
    },
    {
      "midi": 50,
      "hit": false,
      "t": 178000.00000000003,
      "d": 1200,
      "v": 65
    },
    {
      "midi": 65,
      "hit": false,
      "t": 178000.0000000002,
      "d": 553.333333333343,
      "v": 114
    },
    {
      "midi": 53,
      "hit": false,
      "t": 178400.00000000003,
      "d": 800,
      "v": 71
    },
    {
      "midi": 67,
      "hit": false,
      "t": 178400.0000000002,
      "d": 786.6666666666861,
      "v": 114
    },
    {
      "midi": 59,
      "hit": false,
      "t": 178800.00000000003,
      "d": 400,
      "v": 71
    },
    {
      "midi": 57,
      "hit": false,
      "t": 179200.00000000003,
      "d": 820,
      "v": 61
    },
    {
      "midi": 69,
      "hit": false,
      "t": 179200.00000000003,
      "d": 1606.666666666657,
      "v": 71
    },
    {
      "midi": 36,
      "hit": false,
      "t": 179200.00000000003,
      "d": 3200,
      "v": 26
    },
    {
      "midi": 60,
      "hit": false,
      "t": 179200.00000000023,
      "d": 1546.666666666686,
      "v": 114
    },
    {
      "midi": 65,
      "hit": false,
      "t": 179200.00000000023,
      "d": 1546.666666666686,
      "v": 114
    },
    {
      "midi": 48,
      "hit": false,
      "t": 179200.00000000023,
      "d": 3320,
      "v": 114
    },
    {
      "midi": 69,
      "hit": false,
      "t": 179233.33333333358,
      "d": 753.333333333343,
      "v": 114
    },
    {
      "midi": 69,
      "hit": false,
      "t": 180000.00000000026,
      "d": 393.33333333334303,
      "v": 114
    },
    {
      "midi": 57,
      "hit": false,
      "t": 180400.00000000003,
      "d": 800,
      "v": 55
    },
    {
      "midi": 69,
      "hit": false,
      "t": 180400.00000000026,
      "d": 393.33333333331393,
      "v": 114
    },
    {
      "midi": 65,
      "hit": false,
      "t": 180800.00000000023,
      "d": 1566.666666666657,
      "v": 114
    },
    {
      "midi": 60,
      "hit": false,
      "t": 180800.00000000023,
      "d": 1686.666666666657,
      "v": 114
    },
    {
      "midi": 60,
      "hit": false,
      "t": 180806.6666666667,
      "d": 433.33333333334303,
      "v": 72
    },
    {
      "midi": 69,
      "hit": false,
      "t": 180840.00000000023,
      "d": 920,
      "v": 114
    },
    {
      "midi": 69,
      "hit": false,
      "t": 181200.00000000003,
      "d": 1200,
      "v": 81
    },
    {
      "midi": 65,
      "hit": false,
      "t": 181600.00000000003,
      "d": 800,
      "v": 48
    },
    {
      "midi": 70,
      "hit": false,
      "t": 181600.00000000023,
      "d": 393.33333333334303,
      "v": 114
    },
    {
      "midi": 57,
      "hit": false,
      "t": 182000.00000000003,
      "d": 400,
      "v": 56
    },
    {
      "midi": 69,
      "hit": false,
      "t": 182000.00000000023,
      "d": 606.666666666657,
      "v": 114
    },
    {
      "midi": 48,
      "hit": false,
      "t": 182400.00000000003,
      "d": 560,
      "v": 71
    },
    {
      "midi": 72,
      "hit": false,
      "t": 182400.00000000003,
      "d": 1000,
      "v": 71
    },
    {
      "midi": 64,
      "hit": false,
      "t": 182400.00000000023,
      "d": 786.666666666657,
      "v": 114
    },
    {
      "midi": 57,
      "hit": false,
      "t": 182400.00000000023,
      "d": 1513.333333333343,
      "v": 114
    },
    {
      "midi": 50,
      "hit": false,
      "t": 182400.00000000023,
      "d": 3233.333333333343,
      "v": 114
    },
    {
      "midi": 65,
      "hit": false,
      "t": 182446.6666666669,
      "d": 740,
      "v": 114
    },
    {
      "midi": 60,
      "hit": false,
      "t": 182800.00000000003,
      "d": 533.333333333343,
      "v": 66
    },
    {
      "midi": 65,
      "hit": false,
      "t": 183200.00000000003,
      "d": 333.33333333334303,
      "v": 67
    },
    {
      "midi": 57,
      "hit": false,
      "t": 183200.00000000003,
      "d": 573.333333333343,
      "v": 71
    },
    {
      "midi": 64,
      "hit": false,
      "t": 183200.00000000023,
      "d": 573.333333333343,
      "v": 114
    },
    {
      "midi": 67,
      "hit": false,
      "t": 183400.00000000003,
      "d": 373.33333333334303,
      "v": 71
    },
    {
      "midi": 69,
      "hit": false,
      "t": 183600.00000000003,
      "d": 346.66666666665697,
      "v": 71
    },
    {
      "midi": 60,
      "hit": false,
      "t": 183600.00000000003,
      "d": 400,
      "v": 71
    },
    {
      "midi": 65,
      "hit": false,
      "t": 183600.00000000023,
      "d": 520,
      "v": 114
    },
    {
      "midi": 72,
      "hit": false,
      "t": 183800.00000000003,
      "d": 200,
      "v": 71
    },
    {
      "midi": 50,
      "hit": false,
      "t": 184000.00000000003,
      "d": 733.333333333343,
      "v": 70
    },
    {
      "midi": 65,
      "hit": false,
      "t": 184000.00000000003,
      "d": 1600,
      "v": 70
    },
    {
      "midi": 62,
      "hit": false,
      "t": 184000.00000000023,
      "d": 466.66666666665697,
      "v": 114
    },
    {
      "midi": 57,
      "hit": false,
      "t": 184000.00000000023,
      "d": 1633.333333333343,
      "v": 114
    },
    {
      "midi": 57,
      "hit": false,
      "t": 184400.00000000003,
      "d": 786.666666666657,
      "v": 70
    },
    {
      "midi": 62,
      "hit": false,
      "t": 184533.33333333355,
      "d": 653.333333333343,
      "v": 114
    },
    {
      "midi": 53,
      "hit": false,
      "t": 184800.00000000003,
      "d": 766.666666666657,
      "v": 70
    },
    {
      "midi": 65,
      "hit": false,
      "t": 185066.6666666669,
      "d": 453.33333333334303,
      "v": 114
    },
    {
      "midi": 57,
      "hit": false,
      "t": 185200.00000000003,
      "d": 400,
      "v": 70
    },
    {
      "midi": 57,
      "hit": false,
      "t": 185600.00000000003,
      "d": 766.666666666657,
      "v": 45
    },
    {
      "midi": 60,
      "hit": false,
      "t": 185600.00000000003,
      "d": 766.666666666657,
      "v": 65
    },
    {
      "midi": 65,
      "hit": false,
      "t": 185600.00000000003,
      "d": 800,
      "v": 64
    },
    {
      "midi": 43,
      "hit": false,
      "t": 185600.00000000003,
      "d": 1600,
      "v": 60
    },
    {
      "midi": 60,
      "hit": false,
      "t": 185600.00000000023,
      "d": 1566.666666666686,
      "v": 114
    },
    {
      "midi": 65,
      "hit": false,
      "t": 185600.00000000023,
      "d": 1566.666666666686,
      "v": 114
    },
    {
      "midi": 43,
      "hit": false,
      "t": 185600.00000000023,
      "d": 2593.333333333372,
      "v": 114
    },
    {
      "midi": 53,
      "hit": false,
      "t": 185600.00000000023,
      "d": 2680.000000000029,
      "v": 114
    },
    {
      "midi": 62,
      "hit": false,
      "t": 185646.66666666692,
      "d": 1520,
      "v": 114
    },
    {
      "midi": 67,
      "hit": false,
      "t": 185646.66666666692,
      "d": 1520,
      "v": 114
    },
    {
      "midi": 38,
      "hit": false,
      "t": 186000.00000000003,
      "d": 1200,
      "v": 57
    },
    {
      "midi": 53,
      "hit": false,
      "t": 186800.00000000003,
      "d": 400,
      "v": 60
    },
    {
      "midi": 43,
      "hit": false,
      "t": 187200.00000000003,
      "d": 733.333333333343,
      "v": 70
    },
    {
      "midi": 59,
      "hit": false,
      "t": 187200.00000000003,
      "d": 1600,
      "v": 70
    },
    {
      "midi": 59,
      "hit": false,
      "t": 187200.00000000026,
      "d": 1533.333333333343,
      "v": 114
    },
    {
      "midi": 62,
      "hit": false,
      "t": 187200.00000000026,
      "d": 1533.333333333343,
      "v": 114
    },
    {
      "midi": 50,
      "hit": false,
      "t": 187600.00000000003,
      "d": 786.666666666657,
      "v": 70
    },
    {
      "midi": 47,
      "hit": false,
      "t": 188000.00000000003,
      "d": 766.666666666657,
      "v": 70
    },
    {
      "midi": 68,
      "hit": false,
      "t": 188000.00000000026,
      "d": 333.33333333334303,
      "v": 114
    },
    {
      "midi": 67,
      "hit": false,
      "t": 188200.00000000026,
      "d": 333.33333333334303,
      "v": 114
    },
    {
      "midi": 50,
      "hit": false,
      "t": 188400.00000000003,
      "d": 400,
      "v": 70
    },
    {
      "midi": 65,
      "hit": false,
      "t": 188400.00000000026,
      "d": 506.66666666668607,
      "v": 114
    },
    {
      "midi": 43,
      "hit": false,
      "t": 188400.00000000026,
      "d": 660.0000000000291,
      "v": 114
    },
    {
      "midi": 53,
      "hit": false,
      "t": 188800.00000000003,
      "d": 766.666666666657,
      "v": 45
    },
    {
      "midi": 58,
      "hit": false,
      "t": 188800.00000000003,
      "d": 766.666666666657,
      "v": 65
    },
    {
      "midi": 62,
      "hit": false,
      "t": 188800.00000000003,
      "d": 800,
      "v": 64
    },
    {
      "midi": 36,
      "hit": false,
      "t": 188800.00000000003,
      "d": 2840,
      "v": 60
    },
    {
      "midi": 58,
      "hit": false,
      "t": 188800.00000000026,
      "d": 1080.000000000029,
      "v": 114
    },
    {
      "midi": 55,
      "hit": false,
      "t": 188800.00000000026,
      "d": 3200.000000000029,
      "v": 114
    },
    {
      "midi": 48,
      "hit": false,
      "t": 188800.00000000026,
      "d": 3286.666666666715,
      "v": 114
    },
    {
      "midi": 62,
      "hit": false,
      "t": 188833.3333333336,
      "d": 1046.666666666686,
      "v": 114
    },
    {
      "midi": 41,
      "hit": false,
      "t": 189200.00000000003,
      "d": 2480,
      "v": 57
    },
    {
      "midi": 48,
      "hit": false,
      "t": 189600.00000000003,
      "d": 2133.333333333343,
      "v": 60
    },
    {
      "midi": 50,
      "hit": false,
      "t": 190000.00000000003,
      "d": 806.666666666657,
      "v": 60
    },
    {
      "midi": 62,
      "hit": false,
      "t": 190000.0000000003,
      "d": 606.6666666666861,
      "v": 114
    },
    {
      "midi": 53,
      "hit": false,
      "t": 190400.00000000003,
      "d": 440,
      "v": 64
    },
    {
      "midi": 58,
      "hit": false,
      "t": 190400.0000000003,
      "d": 1793.333333333343,
      "v": 114
    },
    {
      "midi": 65,
      "hit": false,
      "t": 190433.33333333363,
      "d": 680,
      "v": 114
    },
    {
      "midi": 58,
      "hit": false,
      "t": 190800.00000000003,
      "d": 366.66666666665697,
      "v": 79
    },
    {
      "midi": 62,
      "hit": false,
      "t": 191200.00000000003,
      "d": 420,
      "v": 66
    },
    {
      "midi": 65,
      "hit": false,
      "t": 191200.0000000003,
      "d": 706.666666666657,
      "v": 114
    },
    {
      "midi": 53,
      "hit": false,
      "t": 191600.00000000003,
      "d": 93.33333333334303,
      "v": 65
    },
    {
      "midi": 41,
      "hit": false,
      "t": 191920.0000000003,
      "d": 80,
      "v": 114
    },
    {
      "midi": 53,
      "hit": false,
      "t": 192000.00000000003,
      "d": 566.666666666657,
      "v": 71
    },
    {
      "midi": 65,
      "hit": false,
      "t": 192000.00000000003,
      "d": 2146.666666666657,
      "v": 71
    },
    {
      "midi": 69,
      "hit": false,
      "t": 192000.00000000003,
      "d": 2466.666666666657,
      "v": 71
    },
    {
      "midi": 62,
      "hit": false,
      "t": 192000.0000000003,
      "d": 1093.333333333343,
      "v": 114
    },
    {
      "midi": 65,
      "hit": false,
      "t": 192033.33333333363,
      "d": 1060,
      "v": 114
    },
    {
      "midi": 41,
      "hit": false,
      "t": 192033.33333333363,
      "d": 3373.333333333343,
      "v": 114
    },
    {
      "midi": 60,
      "hit": false,
      "t": 192400.00000000003,
      "d": 506.66666666665697,
      "v": 71
    },
    {
      "midi": 48,
      "hit": false,
      "t": 192400.0000000003,
      "d": 573.333333333343,
      "v": 114
    },
    {
      "midi": 57,
      "hit": false,
      "t": 192800.00000000003,
      "d": 533.333333333343,
      "v": 71
    },
    {
      "midi": 53,
      "hit": false,
      "t": 192800.0000000003,
      "d": 1740,
      "v": 114
    },
    {
      "midi": 60,
      "hit": false,
      "t": 193200.00000000003,
      "d": 506.66666666665697,
      "v": 71
    },
    {
      "midi": 60,
      "hit": false,
      "t": 193200.0000000003,
      "d": 393.33333333334303,
      "v": 114
    },
    {
      "midi": 53,
      "hit": false,
      "t": 193600.00000000003,
      "d": 506.66666666665697,
      "v": 71
    },
    {
      "midi": 60,
      "hit": false,
      "t": 193600.0000000003,
      "d": 1720.000000000029,
      "v": 114
    },
    {
      "midi": 65,
      "hit": false,
      "t": 193600.0000000003,
      "d": 1806.666666666686,
      "v": 114
    },
    {
      "midi": 69,
      "hit": false,
      "t": 193640.0000000003,
      "d": 1666.666666666686,
      "v": 114
    },
    {
      "midi": 60,
      "hit": false,
      "t": 194000.00000000003,
      "d": 546.666666666657,
      "v": 71
    },
    {
      "midi": 65,
      "hit": false,
      "t": 194400.00000000003,
      "d": 306.66666666665697,
      "v": 71
    },
    {
      "midi": 57,
      "hit": false,
      "t": 194400.00000000003,
      "d": 400,
      "v": 71
    },
    {
      "midi": 57,
      "hit": false,
      "t": 194400.0000000003,
      "d": 466.66666666665697,
      "v": 114
    },
    {
      "midi": 67,
      "hit": false,
      "t": 194600.00000000003,
      "d": 373.33333333334303,
      "v": 71
    },
    {
      "midi": 60,
      "hit": false,
      "t": 194800.00000000003,
      "d": 400,
      "v": 68
    },
    {
      "midi": 69,
      "hit": false,
      "t": 194800.00000000003,
      "d": 400,
      "v": 71
    },
    {
      "midi": 48,
      "hit": false,
      "t": 194800.0000000003,
      "d": 486.66666666668607,
      "v": 114
    },
    {
      "midi": 70,
      "hit": false,
      "t": 195200.00000000003,
      "d": 346.66666666665697,
      "v": 85
    },
    {
      "midi": 41,
      "hit": false,
      "t": 195200.00000000003,
      "d": 3200,
      "v": 59
    },
    {
      "midi": 63,
      "hit": false,
      "t": 195200.0000000003,
      "d": 1026.666666666686,
      "v": 114
    },
    {
      "midi": 67,
      "hit": false,
      "t": 195200.0000000003,
      "d": 1080.000000000029,
      "v": 114
    },
    {
      "midi": 58,
      "hit": false,
      "t": 195200.0000000003,
      "d": 1533.3333333333721,
      "v": 114
    },
    {
      "midi": 53,
      "hit": false,
      "t": 195200.0000000003,
      "d": 3200.000000000029,
      "v": 114
    },
    {
      "midi": 58,
      "hit": false,
      "t": 195233.33333333337,
      "d": 2086.666666666657,
      "v": 90
    },
    {
      "midi": 70,
      "hit": false,
      "t": 195233.33333333363,
      "d": 1026.666666666686,
      "v": 114
    },
    {
      "midi": 67,
      "hit": false,
      "t": 195400.00000000003,
      "d": 1046.666666666657,
      "v": 75
    },
    {
      "midi": 55,
      "hit": false,
      "t": 195400.00000000003,
      "d": 3000,
      "v": 59
    },
    {
      "midi": 63,
      "hit": false,
      "t": 195600.00000000003,
      "d": 946.666666666657,
      "v": 64
    },
    {
      "midi": 63,
      "hit": false,
      "t": 196400.00000000032,
      "d": 520,
      "v": 114
    },
    {
      "midi": 58,
      "hit": false,
      "t": 196800.00000000032,
      "d": 1620,
      "v": 114
    },
    {
      "midi": 70,
      "hit": false,
      "t": 196840.00000000032,
      "d": 906.666666666657,
      "v": 114
    },
    {
      "midi": 58,
      "hit": false,
      "t": 197400.00000000003,
      "d": 1000,
      "v": 83
    },
    {
      "midi": 63,
      "hit": false,
      "t": 197600.00000000003,
      "d": 413.33333333334303,
      "v": 48
    },
    {
      "midi": 67,
      "hit": false,
      "t": 197600.00000000032,
      "d": 786.666666666657,
      "v": 114
    },
    {
      "midi": 67,
      "hit": false,
      "t": 197800.00000000003,
      "d": 440,
      "v": 74
    },
    {
      "midi": 70,
      "hit": false,
      "t": 198000.00000000003,
      "d": 300,
      "v": 73
    },
    {
      "midi": 75,
      "hit": false,
      "t": 198200.00000000003,
      "d": 200,
      "v": 71
    },
    {
      "midi": 46,
      "hit": false,
      "t": 198400.00000000003,
      "d": 800,
      "v": 71
    },
    {
      "midi": 57,
      "hit": false,
      "t": 198400.00000000003,
      "d": 1613.333333333343,
      "v": 71
    },
    {
      "midi": 62,
      "hit": false,
      "t": 198400.00000000003,
      "d": 1613.333333333343,
      "v": 71
    },
    {
      "midi": 57,
      "hit": false,
      "t": 198400.00000000032,
      "d": 786.6666666666861,
      "v": 114
    },
    {
      "midi": 62,
      "hit": false,
      "t": 198400.00000000032,
      "d": 1060.000000000029,
      "v": 114
    },
    {
      "midi": 46,
      "hit": false,
      "t": 198400.00000000032,
      "d": 3373.333333333372,
      "v": 114
    },
    {
      "midi": 65,
      "hit": false,
      "t": 198433.33333333366,
      "d": 1046.666666666686,
      "v": 114
    },
    {
      "midi": 53,
      "hit": false,
      "t": 198800.00000000003,
      "d": 800,
      "v": 63
    },
    {
      "midi": 50,
      "hit": false,
      "t": 199200.00000000003,
      "d": 813.333333333343,
      "v": 71
    },
    {
      "midi": 57,
      "hit": false,
      "t": 199200.00000000035,
      "d": 713.333333333343,
      "v": 114
    },
    {
      "midi": 53,
      "hit": false,
      "t": 199600.00000000003,
      "d": 800,
      "v": 71
    },
    {
      "midi": 62,
      "hit": false,
      "t": 199600.00000000035,
      "d": 393.33333333334303,
      "v": 114
    },
    {
      "midi": 57,
      "hit": false,
      "t": 200000.00000000035,
      "d": 1773.333333333343,
      "v": 114
    },
    {
      "midi": 62,
      "hit": false,
      "t": 200000.00000000035,
      "d": 1806.666666666686,
      "v": 114
    },
    {
      "midi": 46,
      "hit": false,
      "t": 200013.33333333337,
      "d": 786.666666666657,
      "v": 71
    },
    {
      "midi": 58,
      "hit": false,
      "t": 200013.33333333337,
      "d": 786.666666666657,
      "v": 71
    },
    {
      "midi": 65,
      "hit": false,
      "t": 200033.3333333337,
      "d": 920,
      "v": 114
    },
    {
      "midi": 53,
      "hit": false,
      "t": 200400.00000000003,
      "d": 800,
      "v": 71
    },
    {
      "midi": 60,
      "hit": false,
      "t": 200400.00000000003,
      "d": 800,
      "v": 71
    },
    {
      "midi": 50,
      "hit": false,
      "t": 200800.00000000003,
      "d": 800,
      "v": 71
    },
    {
      "midi": 62,
      "hit": false,
      "t": 200800.00000000003,
      "d": 800,
      "v": 71
    },
    {
      "midi": 69,
      "hit": false,
      "t": 200800.00000000035,
      "d": 1006.6666666666861,
      "v": 114
    },
    {
      "midi": 53,
      "hit": false,
      "t": 201200.00000000003,
      "d": 400,
      "v": 71
    },
    {
      "midi": 65,
      "hit": false,
      "t": 201200.00000000003,
      "d": 400,
      "v": 71
    },
    {
      "midi": 52,
      "hit": false,
      "t": 201600.00000000003,
      "d": 766.666666666657,
      "v": 45
    },
    {
      "midi": 55,
      "hit": false,
      "t": 201600.00000000003,
      "d": 766.666666666657,
      "v": 65
    },
    {
      "midi": 60,
      "hit": false,
      "t": 201600.00000000003,
      "d": 800,
      "v": 64
    },
    {
      "midi": 45,
      "hit": false,
      "t": 201600.00000000003,
      "d": 1600,
      "v": 60
    },
    {
      "midi": 60,
      "hit": false,
      "t": 201600.00000000035,
      "d": 1566.666666666686,
      "v": 114
    },
    {
      "midi": 64,
      "hit": false,
      "t": 201600.00000000035,
      "d": 1566.666666666686,
      "v": 114
    },
    {
      "midi": 45,
      "hit": false,
      "t": 201600.00000000035,
      "d": 1773.3333333333721,
      "v": 114
    },
    {
      "midi": 55,
      "hit": false,
      "t": 201600.00000000035,
      "d": 1826.6666666667152,
      "v": 114
    },
    {
      "midi": 67,
      "hit": false,
      "t": 201640.00000000035,
      "d": 1526.666666666686,
      "v": 114
    },
    {
      "midi": 40,
      "hit": false,
      "t": 202000.00000000003,
      "d": 1200,
      "v": 57
    },
    {
      "midi": 48,
      "hit": false,
      "t": 202800.00000000003,
      "d": 400,
      "v": 60
    },
    {
      "midi": 63,
      "hit": false,
      "t": 203160.00000000038,
      "d": 1620.000000000029,
      "v": 114
    },
    {
      "midi": 54,
      "hit": false,
      "t": 203200.00000000003,
      "d": 766.666666666657,
      "v": 45
    },
    {
      "midi": 57,
      "hit": false,
      "t": 203200.00000000003,
      "d": 766.666666666657,
      "v": 65
    },
    {
      "midi": 63,
      "hit": false,
      "t": 203200.00000000003,
      "d": 800,
      "v": 64
    },
    {
      "midi": 42,
      "hit": false,
      "t": 203200.00000000003,
      "d": 1600,
      "v": 60
    },
    {
      "midi": 42,
      "hit": false,
      "t": 203200.00000000038,
      "d": 1580.000000000029,
      "v": 114
    },
    {
      "midi": 60,
      "hit": false,
      "t": 203200.00000000038,
      "d": 1620.000000000029,
      "v": 114
    },
    {
      "midi": 66,
      "hit": false,
      "t": 203200.00000000038,
      "d": 1686.666666666686,
      "v": 114
    },
    {
      "midi": 57,
      "hit": false,
      "t": 203200.00000000038,
      "d": 1773.3333333333721,
      "v": 114
    },
    {
      "midi": 36,
      "hit": false,
      "t": 203600.00000000003,
      "d": 1200,
      "v": 57
    },
    {
      "midi": 69,
      "hit": false,
      "t": 204000.0000000004,
      "d": 940,
      "v": 114
    },
    {
      "midi": 51,
      "hit": false,
      "t": 204400.00000000003,
      "d": 400,
      "v": 60
    },
    {
      "midi": 43,
      "hit": false,
      "t": 204800.00000000003,
      "d": 566.666666666657,
      "v": 71
    },
    {
      "midi": 53,
      "hit": false,
      "t": 204800.00000000003,
      "d": 2146.666666666657,
      "v": 71
    },
    {
      "midi": 58,
      "hit": false,
      "t": 204800.00000000003,
      "d": 2466.666666666657,
      "v": 71
    },
    {
      "midi": 53,
      "hit": false,
      "t": 204800.0000000004,
      "d": 1533.333333333343,
      "v": 114
    },
    {
      "midi": 58,
      "hit": false,
      "t": 204800.0000000004,
      "d": 1533.333333333343,
      "v": 114
    },
    {
      "midi": 62,
      "hit": false,
      "t": 204800.0000000004,
      "d": 1566.666666666686,
      "v": 114
    },
    {
      "midi": 43,
      "hit": false,
      "t": 204800.0000000004,
      "d": 3426.666666666715,
      "v": 114
    },
    {
      "midi": 70,
      "hit": false,
      "t": 204840.0000000004,
      "d": 353.33333333334303,
      "v": 114
    },
    {
      "midi": 50,
      "hit": false,
      "t": 205200.00000000003,
      "d": 506.66666666665697,
      "v": 71
    },
    {
      "midi": 70,
      "hit": false,
      "t": 205200.0000000004,
      "d": 1893.3333333333721,
      "v": 114
    },
    {
      "midi": 46,
      "hit": false,
      "t": 205600.00000000003,
      "d": 533.333333333343,
      "v": 71
    },
    {
      "midi": 50,
      "hit": false,
      "t": 206000.00000000003,
      "d": 506.66666666665697,
      "v": 71
    },
    {
      "midi": 43,
      "hit": false,
      "t": 206400.00000000003,
      "d": 506.66666666665697,
      "v": 71
    },
    {
      "midi": 58,
      "hit": false,
      "t": 206400.00000000044,
      "d": 1480,
      "v": 114
    },
    {
      "midi": 53,
      "hit": false,
      "t": 206400.00000000044,
      "d": 1740,
      "v": 114
    },
    {
      "midi": 62,
      "hit": false,
      "t": 206400.00000000044,
      "d": 1753.333333333343,
      "v": 114
    },
    {
      "midi": 50,
      "hit": false,
      "t": 206800.00000000003,
      "d": 546.666666666657,
      "v": 71
    },
    {
      "midi": 55,
      "hit": false,
      "t": 207200.00000000003,
      "d": 306.66666666665697,
      "v": 71
    },
    {
      "midi": 46,
      "hit": false,
      "t": 207200.00000000003,
      "d": 400,
      "v": 71
    },
    {
      "midi": 70,
      "hit": false,
      "t": 207200.00000000044,
      "d": 393.33333333334303,
      "v": 114
    },
    {
      "midi": 57,
      "hit": false,
      "t": 207400.00000000003,
      "d": 373.33333333334303,
      "v": 71
    },
    {
      "midi": 50,
      "hit": false,
      "t": 207600.00000000003,
      "d": 400,
      "v": 68
    },
    {
      "midi": 58,
      "hit": false,
      "t": 207600.00000000003,
      "d": 400,
      "v": 71
    },
    {
      "midi": 69,
      "hit": false,
      "t": 207600.00000000044,
      "d": 593.333333333343,
      "v": 114
    },
    {
      "midi": 58,
      "hit": false,
      "t": 207966.6666666671,
      "d": 800.0000000000291,
      "v": 114
    },
    {
      "midi": 48,
      "hit": false,
      "t": 208000.00000000003,
      "d": 566.666666666657,
      "v": 71
    },
    {
      "midi": 58,
      "hit": false,
      "t": 208000.00000000003,
      "d": 2146.666666666657,
      "v": 71
    },
    {
      "midi": 64,
      "hit": false,
      "t": 208000.00000000003,
      "d": 2466.666666666657,
      "v": 71
    },
    {
      "midi": 60,
      "hit": false,
      "t": 208000.00000000044,
      "d": 886.6666666666861,
      "v": 114
    },
    {
      "midi": 55,
      "hit": false,
      "t": 208000.00000000044,
      "d": 3146.666666666686,
      "v": 114
    },
    {
      "midi": 48,
      "hit": false,
      "t": 208000.00000000044,
      "d": 3306.666666666686,
      "v": 114
    },
    {
      "midi": 67,
      "hit": false,
      "t": 208040.00000000044,
      "d": 520.0000000000291,
      "v": 114
    },
    {
      "midi": 55,
      "hit": false,
      "t": 208400.00000000003,
      "d": 506.66666666665697,
      "v": 71
    },
    {
      "midi": 64,
      "hit": false,
      "t": 208400.00000000047,
      "d": 1026.666666666686,
      "v": 114
    },
    {
      "midi": 52,
      "hit": false,
      "t": 208800.00000000003,
      "d": 533.333333333343,
      "v": 71
    },
    {
      "midi": 58,
      "hit": false,
      "t": 208800.00000000047,
      "d": 553.333333333343,
      "v": 114
    },
    {
      "midi": 55,
      "hit": false,
      "t": 209200.00000000003,
      "d": 506.66666666665697,
      "v": 71
    },
    {
      "midi": 60,
      "hit": false,
      "t": 209200.00000000047,
      "d": 393.33333333334303,
      "v": 114
    },
    {
      "midi": 48,
      "hit": false,
      "t": 209600.00000000003,
      "d": 506.66666666665697,
      "v": 71
    },
    {
      "midi": 58,
      "hit": false,
      "t": 209600.00000000047,
      "d": 786.666666666657,
      "v": 114
    },
    {
      "midi": 64,
      "hit": false,
      "t": 209600.00000000047,
      "d": 940,
      "v": 114
    },
    {
      "midi": 60,
      "hit": false,
      "t": 209640.00000000047,
      "d": 906.666666666657,
      "v": 114
    },
    {
      "midi": 55,
      "hit": false,
      "t": 210000.00000000003,
      "d": 546.666666666657,
      "v": 71
    },
    {
      "midi": 60,
      "hit": false,
      "t": 210400.00000000003,
      "d": 306.66666666665697,
      "v": 71
    },
    {
      "midi": 52,
      "hit": false,
      "t": 210400.00000000003,
      "d": 400,
      "v": 71
    },
    {
      "midi": 65,
      "hit": false,
      "t": 210400.00000000047,
      "d": 540,
      "v": 114
    },
    {
      "midi": 62,
      "hit": false,
      "t": 210600.00000000003,
      "d": 373.33333333334303,
      "v": 71
    },
    {
      "midi": 55,
      "hit": false,
      "t": 210800.00000000003,
      "d": 400,
      "v": 68
    },
    {
      "midi": 64,
      "hit": false,
      "t": 210800.00000000003,
      "d": 400,
      "v": 71
    },
    {
      "midi": 60,
      "hit": false,
      "t": 210800.00000000047,
      "d": 393.33333333331393,
      "v": 114
    },
    {
      "midi": 67,
      "hit": false,
      "t": 210833.3333333338,
      "d": 606.666666666657,
      "v": 114
    },
    {
      "midi": 57,
      "hit": false,
      "t": 211200.00000000044,
      "d": 1513.3333333333721,
      "v": 114
    },
    {
      "midi": 60,
      "hit": false,
      "t": 211200.00000000044,
      "d": 1546.6666666667152,
      "v": 114
    },
    {
      "midi": 64,
      "hit": false,
      "t": 211200.00000000044,
      "d": 1546.6666666667152,
      "v": 114
    },
    {
      "midi": 41,
      "hit": false,
      "t": 211200.00000000044,
      "d": 3353.3333333334012,
      "v": 114
    },
    {
      "midi": 55,
      "hit": false,
      "t": 211200.00000000044,
      "d": 3373.3333333334012,
      "v": 114
    },
    {
      "midi": 64,
      "hit": false,
      "t": 211206.6666666667,
      "d": 846.666666666657,
      "v": 58
    },
    {
      "midi": 67,
      "hit": false,
      "t": 211213.33333333334,
      "d": 833.333333333343,
      "v": 51
    },
    {
      "midi": 69,
      "hit": false,
      "t": 211213.33333333334,
      "d": 846.666666666657,
      "v": 53
    },
    {
      "midi": 60,
      "hit": false,
      "t": 211213.33333333334,
      "d": 873.3333333333139,
      "v": 39
    },
    {
      "midi": 53,
      "hit": false,
      "t": 211220,
      "d": 913.3333333333139,
      "v": 39
    },
    {
      "midi": 41,
      "hit": false,
      "t": 211233.33333333334,
      "d": 853.3333333333139,
      "v": 36
    },
    {
      "midi": 69,
      "hit": false,
      "t": 211233.33333333378,
      "d": 360.0000000000291,
      "v": 114
    },
    {
      "midi": 69,
      "hit": false,
      "t": 211600.00000000047,
      "d": 1493.3333333333721,
      "v": 114
    },
    {
      "midi": 60,
      "hit": false,
      "t": 212406.66666666666,
      "d": 1393.333333333343,
      "v": 49
    },
    {
      "midi": 67,
      "hit": false,
      "t": 212406.66666666666,
      "d": 1993.333333333343,
      "v": 50
    },
    {
      "midi": 69,
      "hit": false,
      "t": 212406.66666666666,
      "d": 1993.333333333343,
      "v": 68
    },
    {
      "midi": 64,
      "hit": false,
      "t": 212420,
      "d": 1980,
      "v": 63
    },
    {
      "midi": 57,
      "hit": false,
      "t": 212800.0000000005,
      "d": 1546.666666666657,
      "v": 114
    },
    {
      "midi": 60,
      "hit": false,
      "t": 212800.0000000005,
      "d": 1793.333333333343,
      "v": 114
    },
    {
      "midi": 64,
      "hit": false,
      "t": 212833.33333333384,
      "d": 1740,
      "v": 114
    },
    {
      "midi": 41,
      "hit": false,
      "t": 213186.66666666666,
      "d": 1213.333333333343,
      "v": 32
    },
    {
      "midi": 69,
      "hit": false,
      "t": 213200.0000000005,
      "d": 573.333333333343,
      "v": 114
    },
    {
      "midi": 67,
      "hit": false,
      "t": 213600.0000000005,
      "d": 540,
      "v": 114
    },
    {
      "midi": 53,
      "hit": false,
      "t": 213640,
      "d": 760,
      "v": 57
    },
    {
      "midi": 65,
      "hit": false,
      "t": 214000.0000000005,
      "d": 1306.666666666686,
      "v": 114
    },
    {
      "midi": 60,
      "hit": false,
      "t": 214020,
      "d": 380,
      "v": 78
    },
    {
      "midi": 69,
      "hit": false,
      "t": 214400,
      "d": 1200,
      "v": 64
    },
    {
      "midi": 50,
      "hit": false,
      "t": 214400,
      "d": 1246.666666666657,
      "v": 38
    },
    {
      "midi": 57,
      "hit": false,
      "t": 214400,
      "d": 1246.666666666657,
      "v": 44
    },
    {
      "midi": 62,
      "hit": false,
      "t": 214400,
      "d": 1320,
      "v": 42
    },
    {
      "midi": 57,
      "hit": false,
      "t": 214400.0000000005,
      "d": 786.6666666666861,
      "v": 114
    },
    {
      "midi": 50,
      "hit": false,
      "t": 214400.0000000005,
      "d": 1566.666666666657,
      "v": 114
    },
    {
      "midi": 38,
      "hit": false,
      "t": 214400.0000000005,
      "d": 1893.333333333314,
      "v": 114
    },
    {
      "midi": 62,
      "hit": false,
      "t": 214433.33333333384,
      "d": 920,
      "v": 114
    },
    {
      "midi": 57,
      "hit": false,
      "t": 215200.00000000052,
      "d": 506.66666666662786,
      "v": 114
    },
    {
      "midi": 77,
      "hit": false,
      "t": 215600,
      "d": 1160,
      "v": 73
    },
    {
      "midi": 62,
      "hit": false,
      "t": 215600.0000000005,
      "d": 393.33333333331393,
      "v": 114
    },
    {
      "midi": 67,
      "hit": false,
      "t": 216000.00000000047,
      "d": 1093.333333333343,
      "v": 114
    },
    {
      "midi": 50,
      "hit": false,
      "t": 216000.00000000047,
      "d": 1580,
      "v": 114
    },
    {
      "midi": 65,
      "hit": false,
      "t": 216800,
      "d": 746.666666666657,
      "v": 73
    },
    {
      "midi": 65,
      "hit": false,
      "t": 216800.00000000047,
      "d": 786.666666666657,
      "v": 114
    },
    {
      "midi": 69,
      "hit": false,
      "t": 217000,
      "d": 440,
      "v": 75
    },
    {
      "midi": 77,
      "hit": false,
      "t": 217400,
      "d": 200,
      "v": 90
    },
    {
      "midi": 43,
      "hit": false,
      "t": 217600,
      "d": 800,
      "v": 71
    },
    {
      "midi": 53,
      "hit": false,
      "t": 217600.00000000047,
      "d": 1533.333333333343,
      "v": 114
    },
    {
      "midi": 58,
      "hit": false,
      "t": 217600.00000000047,
      "d": 1533.333333333343,
      "v": 114
    },
    {
      "midi": 43,
      "hit": false,
      "t": 217600.00000000047,
      "d": 3340,
      "v": 114
    },
    {
      "midi": 62,
      "hit": false,
      "t": 217640.00000000047,
      "d": 26.666666666656965,
      "v": 114
    },
    {
      "midi": 46,
      "hit": false,
      "t": 218000,
      "d": 800,
      "v": 71
    },
    {
      "midi": 50,
      "hit": false,
      "t": 218400,
      "d": 1200,
      "v": 71
    },
    {
      "midi": 67,
      "hit": false,
      "t": 218400.00000000047,
      "d": 393.33333333334303,
      "v": 114
    },
    {
      "midi": 53,
      "hit": false,
      "t": 218800,
      "d": 800,
      "v": 71
    },
    {
      "midi": 67,
      "hit": false,
      "t": 218800.00000000047,
      "d": 1133.333333333343,
      "v": 114
    },
    {
      "midi": 58,
      "hit": false,
      "t": 219200,
      "d": 800,
      "v": 71
    },
    {
      "midi": 58,
      "hit": false,
      "t": 219200.00000000047,
      "d": 1533.333333333343,
      "v": 114
    },
    {
      "midi": 53,
      "hit": false,
      "t": 219200.00000000047,
      "d": 1720,
      "v": 114
    },
    {
      "midi": 62,
      "hit": false,
      "t": 219200.00000000047,
      "d": 1720,
      "v": 114
    },
    {
      "midi": 50,
      "hit": false,
      "t": 219600,
      "d": 1200,
      "v": 65
    },
    {
      "midi": 53,
      "hit": false,
      "t": 220000,
      "d": 800,
      "v": 71
    },
    {
      "midi": 67,
      "hit": false,
      "t": 220000.00000000047,
      "d": 573.333333333343,
      "v": 114
    },
    {
      "midi": 58,
      "hit": false,
      "t": 220400,
      "d": 400,
      "v": 71
    },
    {
      "midi": 65,
      "hit": false,
      "t": 220400.00000000047,
      "d": 520,
      "v": 114
    },
    {
      "midi": 55,
      "hit": false,
      "t": 220800,
      "d": 766.666666666657,
      "v": 45
    },
    {
      "midi": 58,
      "hit": false,
      "t": 220800,
      "d": 766.666666666657,
      "v": 65
    },
    {
      "midi": 64,
      "hit": false,
      "t": 220800,
      "d": 800,
      "v": 64
    },
    {
      "midi": 36,
      "hit": false,
      "t": 220800,
      "d": 2840,
      "v": 60
    },
    {
      "midi": 58,
      "hit": false,
      "t": 220800.00000000047,
      "d": 1753.333333333343,
      "v": 114
    },
    {
      "midi": 48,
      "hit": false,
      "t": 220800.00000000047,
      "d": 3320,
      "v": 114
    },
    {
      "midi": 55,
      "hit": false,
      "t": 220800.00000000047,
      "d": 3320,
      "v": 114
    },
    {
      "midi": 67,
      "hit": false,
      "t": 220840.00000000047,
      "d": 520,
      "v": 114
    },
    {
      "midi": 43,
      "hit": false,
      "t": 221200,
      "d": 2480,
      "v": 57
    },
    {
      "midi": 60,
      "hit": false,
      "t": 221200.00000000047,
      "d": 506.66666666665697,
      "v": 114
    },
    {
      "midi": 48,
      "hit": false,
      "t": 221600,
      "d": 2133.333333333343,
      "v": 60
    },
    {
      "midi": 64,
      "hit": false,
      "t": 221600.00000000047,
      "d": 746.666666666657,
      "v": 114
    },
    {
      "midi": 52,
      "hit": false,
      "t": 222000,
      "d": 806.666666666657,
      "v": 60
    },
    {
      "midi": 55,
      "hit": false,
      "t": 222400,
      "d": 440,
      "v": 64
    },
    {
      "midi": 62,
      "hit": false,
      "t": 222400.00000000047,
      "d": 886.666666666657,
      "v": 114
    },
    {
      "midi": 64,
      "hit": false,
      "t": 222440.00000000047,
      "d": 886.666666666657,
      "v": 114
    },
    {
      "midi": 58,
      "hit": false,
      "t": 222800,
      "d": 366.66666666665697,
      "v": 79
    },
    {
      "midi": 62,
      "hit": false,
      "t": 223200,
      "d": 420,
      "v": 66
    },
    {
      "midi": 58,
      "hit": false,
      "t": 223200.00000000047,
      "d": 593.333333333343,
      "v": 114
    },
    {
      "midi": 55,
      "hit": false,
      "t": 223600,
      "d": 93.33333333334303,
      "v": 65
    },
    {
      "midi": 60,
      "hit": false,
      "t": 223600.00000000047,
      "d": 573.333333333343,
      "v": 114
    },
    {
      "midi": 55,
      "hit": false,
      "t": 224000,
      "d": 820,
      "v": 61
    },
    {
      "midi": 67,
      "hit": false,
      "t": 224000,
      "d": 1606.666666666657,
      "v": 71
    },
    {
      "midi": 38,
      "hit": false,
      "t": 224000,
      "d": 3200,
      "v": 26
    },
    {
      "midi": 69,
      "hit": false,
      "t": 224000.00000000047,
      "d": 920,
      "v": 114
    },
    {
      "midi": 50,
      "hit": false,
      "t": 224000.00000000047,
      "d": 3286.666666666686,
      "v": 114
    },
    {
      "midi": 67,
      "hit": false,
      "t": 224046.66666666712,
      "d": 1026.666666666686,
      "v": 114
    },
    {
      "midi": 64,
      "hit": false,
      "t": 224046.66666666712,
      "d": 1046.666666666686,
      "v": 114
    },
    {
      "midi": 43,
      "hit": false,
      "t": 224400,
      "d": 2800,
      "v": 58
    },
    {
      "midi": 50,
      "hit": false,
      "t": 224800,
      "d": 2400,
      "v": 54
    },
    {
      "midi": 72,
      "hit": false,
      "t": 224800.00000000047,
      "d": 553.333333333343,
      "v": 114
    },
    {
      "midi": 57,
      "hit": false,
      "t": 224800.00000000047,
      "d": 2486.666666666686,
      "v": 114
    },
    {
      "midi": 55,
      "hit": false,
      "t": 225200,
      "d": 800,
      "v": 55
    },
    {
      "midi": 69,
      "hit": false,
      "t": 225200.00000000047,
      "d": 886.666666666657,
      "v": 114
    },
    {
      "midi": 67,
      "hit": false,
      "t": 225240.00000000047,
      "d": 2000,
      "v": 114
    },
    {
      "midi": 64,
      "hit": false,
      "t": 225240.00000000047,
      "d": 2033.333333333343,
      "v": 114
    },
    {
      "midi": 60,
      "hit": false,
      "t": 225600.00000000047,
      "d": 1633.333333333343,
      "v": 114
    },
    {
      "midi": 60,
      "hit": false,
      "t": 225606.66666666666,
      "d": 433.33333333334303,
      "v": 72
    },
    {
      "midi": 67,
      "hit": false,
      "t": 226000,
      "d": 1200,
      "v": 81
    },
    {
      "midi": 72,
      "hit": false,
      "t": 226000.00000000047,
      "d": 506.66666666665697,
      "v": 114
    },
    {
      "midi": 64,
      "hit": false,
      "t": 226400,
      "d": 800,
      "v": 48
    },
    {
      "midi": 69,
      "hit": false,
      "t": 226400.00000000047,
      "d": 540,
      "v": 114
    },
    {
      "midi": 55,
      "hit": false,
      "t": 226800,
      "d": 400,
      "v": 56
    },
    {
      "midi": 71,
      "hit": false,
      "t": 226800.00000000047,
      "d": 1320.000000000029,
      "v": 114
    },
    {
      "midi": 74,
      "hit": false,
      "t": 226833.3333333338,
      "d": 1266.666666666686,
      "v": 114
    },
    {
      "midi": 45,
      "hit": false,
      "t": 227200,
      "d": 560,
      "v": 71
    },
    {
      "midi": 71,
      "hit": false,
      "t": 227200,
      "d": 1000,
      "v": 71
    },
    {
      "midi": 45,
      "hit": false,
      "t": 227200.00000000047,
      "d": 2226.666666666686,
      "v": 114
    },
    {
      "midi": 59,
      "hit": false,
      "t": 227600,
      "d": 533.333333333343,
      "v": 66
    },
    {
      "midi": 55,
      "hit": false,
      "t": 227600.0000000005,
      "d": 1133.333333333343,
      "v": 114
    },
    {
      "midi": 64,
      "hit": false,
      "t": 228000,
      "d": 333.33333333334303,
      "v": 67
    },
    {
      "midi": 55,
      "hit": false,
      "t": 228000,
      "d": 573.333333333343,
      "v": 71
    },
    {
      "midi": 64,
      "hit": false,
      "t": 228000.0000000005,
      "d": 393.33333333334303,
      "v": 114
    },
    {
      "midi": 66,
      "hit": false,
      "t": 228200,
      "d": 373.33333333334303,
      "v": 71
    },
    {
      "midi": 67,
      "hit": false,
      "t": 228400,
      "d": 346.66666666665697,
      "v": 71
    },
    {
      "midi": 59,
      "hit": false,
      "t": 228400,
      "d": 400,
      "v": 71
    },
    {
      "midi": 67,
      "hit": false,
      "t": 228400.0000000005,
      "d": 1133.333333333314,
      "v": 114
    },
    {
      "midi": 71,
      "hit": false,
      "t": 228433.33333333384,
      "d": 1286.6666666666279,
      "v": 114
    },
    {
      "midi": 71,
      "hit": false,
      "t": 228600,
      "d": 200,
      "v": 71
    },
    {
      "midi": 43,
      "hit": false,
      "t": 228800,
      "d": 600,
      "v": 68
    },
    {
      "midi": 53,
      "hit": false,
      "t": 228800,
      "d": 1600,
      "v": 71
    },
    {
      "midi": 58,
      "hit": false,
      "t": 228800,
      "d": 1600,
      "v": 71
    },
    {
      "midi": 52,
      "hit": false,
      "t": 228800.0000000005,
      "d": 1653.333333333314,
      "v": 114
    },
    {
      "midi": 50,
      "hit": false,
      "t": 229200,
      "d": 573.333333333343,
      "v": 71
    },
    {
      "midi": 46,
      "hit": false,
      "t": 229600,
      "d": 553.333333333343,
      "v": 71
    },
    {
      "midi": 67,
      "hit": false,
      "t": 229600.00000000047,
      "d": 553.333333333343,
      "v": 114
    },
    {
      "midi": 45,
      "hit": false,
      "t": 229600.00000000047,
      "d": 906.6666666666861,
      "v": 114
    },
    {
      "midi": 50,
      "hit": false,
      "t": 230000,
      "d": 400,
      "v": 71
    },
    {
      "midi": 69,
      "hit": false,
      "t": 230000.00000000047,
      "d": 393.33333333334303,
      "v": 114
    },
    {
      "midi": 43,
      "hit": false,
      "t": 230400,
      "d": 566.666666666657,
      "v": 71
    },
    {
      "midi": 53,
      "hit": false,
      "t": 230400,
      "d": 2146.666666666657,
      "v": 71
    },
    {
      "midi": 58,
      "hit": false,
      "t": 230400,
      "d": 2466.666666666657,
      "v": 71
    },
    {
      "midi": 58,
      "hit": false,
      "t": 230400.00000000047,
      "d": 1480.000000000029,
      "v": 114
    },
    {
      "midi": 62,
      "hit": false,
      "t": 230400.00000000047,
      "d": 1546.666666666686,
      "v": 114
    },
    {
      "midi": 65,
      "hit": false,
      "t": 230400.00000000047,
      "d": 1566.666666666686,
      "v": 114
    },
    {
      "midi": 53,
      "hit": false,
      "t": 230400.00000000047,
      "d": 3353.333333333314,
      "v": 114
    },
    {
      "midi": 43,
      "hit": false,
      "t": 230400.00000000047,
      "d": 3373.333333333314,
      "v": 114
    },
    {
      "midi": 70,
      "hit": false,
      "t": 230440.00000000047,
      "d": 886.6666666666861,
      "v": 114
    },
    {
      "midi": 50,
      "hit": false,
      "t": 230800,
      "d": 506.66666666665697,
      "v": 71
    },
    {
      "midi": 46,
      "hit": false,
      "t": 231200,
      "d": 533.333333333343,
      "v": 71
    },
    {
      "midi": 69,
      "hit": false,
      "t": 231200.0000000005,
      "d": 606.666666666657,
      "v": 114
    },
    {
      "midi": 50,
      "hit": false,
      "t": 231600,
      "d": 506.66666666665697,
      "v": 71
    },
    {
      "midi": 70,
      "hit": false,
      "t": 231600.0000000005,
      "d": 993.333333333343,
      "v": 114
    },
    {
      "midi": 43,
      "hit": false,
      "t": 232000,
      "d": 506.66666666665697,
      "v": 71
    },
    {
      "midi": 62,
      "hit": false,
      "t": 232000.0000000005,
      "d": 1513.333333333314,
      "v": 114
    },
    {
      "midi": 65,
      "hit": false,
      "t": 232033.33333333384,
      "d": 1719.9999999999418,
      "v": 114
    },
    {
      "midi": 50,
      "hit": false,
      "t": 232400,
      "d": 546.666666666657,
      "v": 71
    },
    {
      "midi": 69,
      "hit": false,
      "t": 232400.0000000005,
      "d": 906.666666666657,
      "v": 114
    },
    {
      "midi": 55,
      "hit": false,
      "t": 232800,
      "d": 306.66666666665697,
      "v": 71
    },
    {
      "midi": 46,
      "hit": false,
      "t": 232800,
      "d": 400,
      "v": 71
    },
    {
      "midi": 57,
      "hit": false,
      "t": 233000,
      "d": 373.33333333334303,
      "v": 71
    },
    {
      "midi": 50,
      "hit": false,
      "t": 233200,
      "d": 400,
      "v": 68
    },
    {
      "midi": 58,
      "hit": false,
      "t": 233200,
      "d": 400,
      "v": 71
    },
    {
      "midi": 67,
      "hit": false,
      "t": 233200.0000000005,
      "d": 393.33333333331393,
      "v": 114
    },
    {
      "midi": 76,
      "hit": false,
      "t": 233600,
      "d": 920,
      "v": 51
    },
    {
      "midi": 67,
      "hit": false,
      "t": 233600,
      "d": 933.333333333343,
      "v": 36
    },
    {
      "midi": 70,
      "hit": false,
      "t": 233600,
      "d": 933.333333333343,
      "v": 61
    },
    {
      "midi": 74,
      "hit": false,
      "t": 233600,
      "d": 933.333333333343,
      "v": 54
    },
    {
      "midi": 48,
      "hit": false,
      "t": 233600,
      "d": 3200,
      "v": 58
    },
    {
      "midi": 58,
      "hit": false,
      "t": 233600.00000000047,
      "d": 66.66666666665697,
      "v": 114
    },
    {
      "midi": 62,
      "hit": false,
      "t": 233600.00000000047,
      "d": 1566.666666666657,
      "v": 114
    },
    {
      "midi": 55,
      "hit": false,
      "t": 233600.00000000047,
      "d": 3286.666666666686,
      "v": 114
    },
    {
      "midi": 48,
      "hit": false,
      "t": 233600.00000000047,
      "d": 3320.000000000029,
      "v": 114
    },
    {
      "midi": 64,
      "hit": false,
      "t": 233640.00000000047,
      "d": 1526.666666666657,
      "v": 114
    },
    {
      "midi": 55,
      "hit": false,
      "t": 234000,
      "d": 1080,
      "v": 58
    },
    {
      "midi": 62,
      "hit": false,
      "t": 234400,
      "d": 1240,
      "v": 56
    },
    {
      "midi": 70,
      "hit": false,
      "t": 234800,
      "d": 806.666666666657,
      "v": 75
    },
    {
      "midi": 76,
      "hit": false,
      "t": 234800,
      "d": 806.666666666657,
      "v": 68
    },
    {
      "midi": 74,
      "hit": false,
      "t": 234800,
      "d": 820,
      "v": 70
    },
    {
      "midi": 67,
      "hit": false,
      "t": 234800,
      "d": 840,
      "v": 62
    },
    {
      "midi": 58,
      "hit": false,
      "t": 235200.00000000047,
      "d": 866.666666666657,
      "v": 114
    },
    {
      "midi": 62,
      "hit": false,
      "t": 235200.00000000047,
      "d": 953.333333333343,
      "v": 114
    },
    {
      "midi": 64,
      "hit": false,
      "t": 235233.3333333338,
      "d": 906.666666666657,
      "v": 114
    },
    {
      "midi": 55,
      "hit": false,
      "t": 235600,
      "d": 1200,
      "v": 56
    },
    {
      "midi": 62,
      "hit": false,
      "t": 236000,
      "d": 800,
      "v": 68
    },
    {
      "midi": 65,
      "hit": false,
      "t": 236000.00000000047,
      "d": 573.333333333343,
      "v": 114
    },
    {
      "midi": 64,
      "hit": false,
      "t": 236200,
      "d": 413.33333333334303,
      "v": 54
    },
    {
      "midi": 67,
      "hit": false,
      "t": 236400,
      "d": 240,
      "v": 51
    },
    {
      "midi": 67,
      "hit": false,
      "t": 236400.00000000047,
      "d": 553.3333333333721,
      "v": 114
    },
    {
      "midi": 70,
      "hit": false,
      "t": 236600,
      "d": 200,
      "v": 75
    },
    {
      "midi": 52,
      "hit": false,
      "t": 236800,
      "d": 733.333333333343,
      "v": 70
    },
    {
      "midi": 62,
      "hit": false,
      "t": 236800,
      "d": 1600,
      "v": 70
    },
    {
      "midi": 62,
      "hit": false,
      "t": 236800.00000000047,
      "d": 1720.0000000000582,
      "v": 114
    },
    {
      "midi": 57,
      "hit": false,
      "t": 236800.00000000047,
      "d": 1740.0000000000582,
      "v": 114
    },
    {
      "midi": 52,
      "hit": false,
      "t": 236800.00000000047,
      "d": 1773.3333333334012,
      "v": 114
    },
    {
      "midi": 40,
      "hit": false,
      "t": 236800.00000000047,
      "d": 1860.0000000000582,
      "v": 114
    },
    {
      "midi": 69,
      "hit": false,
      "t": 236833.3333333338,
      "d": 753.3333333333721,
      "v": 114
    },
    {
      "midi": 50,
      "hit": false,
      "t": 237600,
      "d": 766.666666666657,
      "v": 70
    },
    {
      "midi": 69,
      "hit": false,
      "t": 237600.00000000052,
      "d": 606.666666666657,
      "v": 114
    },
    {
      "midi": 52,
      "hit": false,
      "t": 238000,
      "d": 400,
      "v": 70
    },
    {
      "midi": 67,
      "hit": false,
      "t": 238000.00000000052,
      "d": 1373.333333333343,
      "v": 114
    },
    {
      "midi": 45,
      "hit": false,
      "t": 238400,
      "d": 560,
      "v": 71
    },
    {
      "midi": 64,
      "hit": false,
      "t": 238400,
      "d": 1000,
      "v": 71
    },
    {
      "midi": 55,
      "hit": false,
      "t": 238400.00000000052,
      "d": 1720,
      "v": 114
    },
    {
      "midi": 61,
      "hit": false,
      "t": 238400.00000000052,
      "d": 1740,
      "v": 114
    },
    {
      "midi": 45,
      "hit": false,
      "t": 238400.00000000052,
      "d": 1773.333333333343,
      "v": 114
    },
    {
      "midi": 52,
      "hit": false,
      "t": 238800,
      "d": 533.333333333343,
      "v": 66
    },
    {
      "midi": 57,
      "hit": false,
      "t": 239200,
      "d": 333.33333333334303,
      "v": 67
    },
    {
      "midi": 49,
      "hit": false,
      "t": 239200,
      "d": 573.333333333343,
      "v": 71
    },
    {
      "midi": 69,
      "hit": false,
      "t": 239200.00000000052,
      "d": 540,
      "v": 114
    },
    {
      "midi": 59,
      "hit": false,
      "t": 239400,
      "d": 373.33333333334303,
      "v": 71
    },
    {
      "midi": 61,
      "hit": false,
      "t": 239600,
      "d": 346.66666666665697,
      "v": 71
    },
    {
      "midi": 52,
      "hit": false,
      "t": 239600,
      "d": 400,
      "v": 71
    },
    {
      "midi": 65,
      "hit": false,
      "t": 239600.00000000052,
      "d": 1353.333333333343,
      "v": 114
    },
    {
      "midi": 64,
      "hit": false,
      "t": 239800,
      "d": 200,
      "v": 71
    },
    {
      "midi": 53,
      "hit": false,
      "t": 240000,
      "d": 820,
      "v": 61
    },
    {
      "midi": 34,
      "hit": false,
      "t": 240000,
      "d": 1600,
      "v": 26
    },
    {
      "midi": 65,
      "hit": false,
      "t": 240000,
      "d": 1600,
      "v": 71
    },
    {
      "midi": 58,
      "hit": false,
      "t": 240000.00000000052,
      "d": 786.6666666666861,
      "v": 114
    },
    {
      "midi": 46,
      "hit": false,
      "t": 240000.00000000052,
      "d": 1933.333333333343,
      "v": 114
    },
    {
      "midi": 62,
      "hit": false,
      "t": 240040.00000000052,
      "d": 886.6666666666861,
      "v": 114
    },
    {
      "midi": 41,
      "hit": false,
      "t": 240400,
      "d": 1200,
      "v": 58
    },
    {
      "midi": 46,
      "hit": false,
      "t": 240800,
      "d": 800,
      "v": 54
    },
    {
      "midi": 58,
      "hit": false,
      "t": 240800.00000000055,
      "d": 573.3333333333139,
      "v": 114
    },
    {
      "midi": 53,
      "hit": false,
      "t": 241200,
      "d": 400,
      "v": 55
    },
    {
      "midi": 62,
      "hit": false,
      "t": 241200.00000000052,
      "d": 553.333333333343,
      "v": 114
    },
    {
      "midi": 47,
      "hit": false,
      "t": 241600,
      "d": 733.333333333343,
      "v": 70
    },
    {
      "midi": 62,
      "hit": false,
      "t": 241600,
      "d": 1600,
      "v": 70
    },
    {
      "midi": 65,
      "hit": false,
      "t": 241600.00000000052,
      "d": 393.33333333334303,
      "v": 114
    },
    {
      "midi": 53,
      "hit": false,
      "t": 242000,
      "d": 786.666666666657,
      "v": 70
    },
    {
      "midi": 35,
      "hit": false,
      "t": 242000.00000000052,
      "d": 1173.333333333343,
      "v": 114
    },
    {
      "midi": 47,
      "hit": false,
      "t": 242000.00000000052,
      "d": 1173.333333333343,
      "v": 114
    },
    {
      "midi": 59,
      "hit": false,
      "t": 242000.00000000052,
      "d": 1173.333333333343,
      "v": 114
    },
    {
      "midi": 62,
      "hit": false,
      "t": 242000.00000000052,
      "d": 1173.333333333343,
      "v": 114
    },
    {
      "midi": 65,
      "hit": false,
      "t": 242040.00000000052,
      "d": 1080,
      "v": 114
    },
    {
      "midi": 50,
      "hit": false,
      "t": 242400,
      "d": 766.666666666657,
      "v": 70
    },
    {
      "midi": 53,
      "hit": false,
      "t": 242800,
      "d": 400,
      "v": 70
    },
    {
      "midi": 48,
      "hit": false,
      "t": 243200,
      "d": 800,
      "v": 71
    },
    {
      "midi": 65,
      "hit": false,
      "t": 243200,
      "d": 1613.333333333343,
      "v": 71
    },
    {
      "midi": 69,
      "hit": false,
      "t": 243200,
      "d": 1613.333333333343,
      "v": 71
    },
    {
      "midi": 57,
      "hit": false,
      "t": 243200.00000000052,
      "d": 1480,
      "v": 114
    },
    {
      "midi": 60,
      "hit": false,
      "t": 243200.00000000052,
      "d": 1513.333333333343,
      "v": 114
    },
    {
      "midi": 65,
      "hit": false,
      "t": 243200.00000000052,
      "d": 1546.666666666686,
      "v": 114
    },
    {
      "midi": 48,
      "hit": false,
      "t": 243200.00000000052,
      "d": 3133.333333333372,
      "v": 114
    },
    {
      "midi": 36,
      "hit": false,
      "t": 243200.00000000052,
      "d": 3340.000000000029,
      "v": 114
    },
    {
      "midi": 69,
      "hit": false,
      "t": 243240.00000000052,
      "d": 746.666666666657,
      "v": 114
    },
    {
      "midi": 60,
      "hit": false,
      "t": 243600,
      "d": 800,
      "v": 63
    },
    {
      "midi": 57,
      "hit": false,
      "t": 244000,
      "d": 813.333333333343,
      "v": 71
    },
    {
      "midi": 69,
      "hit": false,
      "t": 244000.00000000052,
      "d": 393.33333333334303,
      "v": 114
    },
    {
      "midi": 60,
      "hit": false,
      "t": 244400,
      "d": 800,
      "v": 71
    },
    {
      "midi": 69,
      "hit": false,
      "t": 244400.00000000052,
      "d": 1113.3333333333721,
      "v": 114
    },
    {
      "midi": 60,
      "hit": false,
      "t": 244800.00000000055,
      "d": 1686.666666666657,
      "v": 114
    },
    {
      "midi": 57,
      "hit": false,
      "t": 244800.00000000055,
      "d": 1773.333333333343,
      "v": 114
    },
    {
      "midi": 48,
      "hit": false,
      "t": 244813.33333333334,
      "d": 786.666666666657,
      "v": 71
    },
    {
      "midi": 65,
      "hit": false,
      "t": 244813.33333333334,
      "d": 786.666666666657,
      "v": 71
    },
    {
      "midi": 65,
      "hit": false,
      "t": 244840.00000000055,
      "d": 1513.333333333343,
      "v": 114
    },
    {
      "midi": 60,
      "hit": false,
      "t": 245200,
      "d": 800,
      "v": 71
    },
    {
      "midi": 67,
      "hit": false,
      "t": 245200,
      "d": 800,
      "v": 71
    },
    {
      "midi": 57,
      "hit": false,
      "t": 245600,
      "d": 800,
      "v": 71
    },
    {
      "midi": 69,
      "hit": false,
      "t": 245600,
      "d": 800,
      "v": 71
    },
    {
      "midi": 69,
      "hit": false,
      "t": 245600.00000000055,
      "d": 573.333333333343,
      "v": 114
    },
    {
      "midi": 60,
      "hit": false,
      "t": 246000,
      "d": 400,
      "v": 71
    },
    {
      "midi": 72,
      "hit": false,
      "t": 246000,
      "d": 400,
      "v": 71
    },
    {
      "midi": 70,
      "hit": false,
      "t": 246000.00000000055,
      "d": 1406.666666666686,
      "v": 114
    },
    {
      "midi": 77,
      "hit": false,
      "t": 246400,
      "d": 920,
      "v": 51
    },
    {
      "midi": 67,
      "hit": false,
      "t": 246400,
      "d": 933.333333333343,
      "v": 36
    },
    {
      "midi": 70,
      "hit": false,
      "t": 246400,
      "d": 933.333333333343,
      "v": 61
    },
    {
      "midi": 74,
      "hit": false,
      "t": 246400,
      "d": 933.333333333343,
      "v": 54
    },
    {
      "midi": 36,
      "hit": false,
      "t": 246400,
      "d": 3200,
      "v": 58
    },
    {
      "midi": 58,
      "hit": false,
      "t": 246400.00000000055,
      "d": 786.6666666666861,
      "v": 114
    },
    {
      "midi": 62,
      "hit": false,
      "t": 246400.00000000055,
      "d": 1620.000000000029,
      "v": 114
    },
    {
      "midi": 55,
      "hit": false,
      "t": 246400.00000000055,
      "d": 3320.000000000029,
      "v": 114
    },
    {
      "midi": 48,
      "hit": false,
      "t": 246400.00000000055,
      "d": 3353.333333333372,
      "v": 114
    },
    {
      "midi": 55,
      "hit": false,
      "t": 246800,
      "d": 1080,
      "v": 58
    },
    {
      "midi": 62,
      "hit": false,
      "t": 247200,
      "d": 1240,
      "v": 56
    },
    {
      "midi": 67,
      "hit": false,
      "t": 247200.00000000058,
      "d": 553.333333333343,
      "v": 114
    },
    {
      "midi": 70,
      "hit": false,
      "t": 247600,
      "d": 806.666666666657,
      "v": 75
    },
    {
      "midi": 77,
      "hit": false,
      "t": 247600,
      "d": 806.666666666657,
      "v": 68
    },
    {
      "midi": 74,
      "hit": false,
      "t": 247600,
      "d": 820,
      "v": 70
    },
    {
      "midi": 67,
      "hit": false,
      "t": 247600,
      "d": 840,
      "v": 62
    },
    {
      "midi": 65,
      "hit": false,
      "t": 247600.00000000058,
      "d": 473.33333333334303,
      "v": 114
    },
    {
      "midi": 58,
      "hit": false,
      "t": 248000.00000000058,
      "d": 1773.333333333343,
      "v": 114
    },
    {
      "midi": 55,
      "hit": false,
      "t": 248400,
      "d": 1200,
      "v": 56
    },
    {
      "midi": 62,
      "hit": false,
      "t": 248800,
      "d": 800,
      "v": 68
    },
    {
      "midi": 64,
      "hit": false,
      "t": 248800.00000000058,
      "d": 553.333333333343,
      "v": 114
    },
    {
      "midi": 65,
      "hit": false,
      "t": 249000,
      "d": 413.33333333334303,
      "v": 54
    },
    {
      "midi": 67,
      "hit": false,
      "t": 249200,
      "d": 240,
      "v": 51
    },
    {
      "midi": 65,
      "hit": false,
      "t": 249200.00000000058,
      "d": 1460.000000000029,
      "v": 114
    },
    {
      "midi": 70,
      "hit": false,
      "t": 249400,
      "d": 200,
      "v": 75
    },
    {
      "midi": 34,
      "hit": false,
      "t": 249600,
      "d": 333.33333333334303,
      "v": 60
    },
    {
      "midi": 53,
      "hit": false,
      "t": 249600,
      "d": 333.33333333334303,
      "v": 45
    },
    {
      "midi": 57,
      "hit": false,
      "t": 249600,
      "d": 333.33333333334303,
      "v": 65
    },
    {
      "midi": 62,
      "hit": false,
      "t": 249600,
      "d": 333.33333333334303,
      "v": 64
    },
    {
      "midi": 62,
      "hit": false,
      "t": 249600.00000000058,
      "d": 20,
      "v": 114
    },
    {
      "midi": 53,
      "hit": false,
      "t": 249600.00000000058,
      "d": 993.333333333343,
      "v": 114
    },
    {
      "midi": 57,
      "hit": false,
      "t": 249600.00000000058,
      "d": 1006.6666666666861,
      "v": 114
    },
    {
      "midi": 46,
      "hit": false,
      "t": 249600.00000000058,
      "d": 1046.666666666686,
      "v": 114
    },
    {
      "midi": 69,
      "hit": false,
      "t": 249640.00000000058,
      "d": 1006.6666666666861,
      "v": 114
    },
    {
      "midi": 52,
      "hit": false,
      "t": 250000,
      "d": 1206.666666666657,
      "v": 61
    },
    {
      "midi": 45,
      "hit": false,
      "t": 250000,
      "d": 1986.666666666657,
      "v": 26
    },
    {
      "midi": 60,
      "hit": false,
      "t": 250000,
      "d": 1986.666666666657,
      "v": 71
    },
    {
      "midi": 40,
      "hit": false,
      "t": 250800,
      "d": 1200,
      "v": 58
    },
    {
      "midi": 45,
      "hit": false,
      "t": 250800.0000000006,
      "d": 1320,
      "v": 114
    },
    {
      "midi": 52,
      "hit": false,
      "t": 250800.0000000006,
      "d": 1340,
      "v": 114
    },
    {
      "midi": 55,
      "hit": false,
      "t": 250800.0000000006,
      "d": 1340,
      "v": 114
    },
    {
      "midi": 60,
      "hit": false,
      "t": 250800.0000000006,
      "d": 1340,
      "v": 114
    },
    {
      "midi": 67,
      "hit": false,
      "t": 250800.0000000006,
      "d": 1393.333333333343,
      "v": 114
    },
    {
      "midi": 52,
      "hit": false,
      "t": 251600,
      "d": 400,
      "v": 55
    },
    {
      "midi": 43,
      "hit": false,
      "t": 252000,
      "d": 800,
      "v": 67
    },
    {
      "midi": 53,
      "hit": false,
      "t": 252000,
      "d": 800,
      "v": 72
    },
    {
      "midi": 58,
      "hit": false,
      "t": 252000,
      "d": 800,
      "v": 72
    },
    {
      "midi": 50,
      "hit": false,
      "t": 252000.0000000006,
      "d": 2940,
      "v": 114
    },
    {
      "midi": 43,
      "hit": false,
      "t": 252000.0000000006,
      "d": 2993.333333333343,
      "v": 114
    },
    {
      "midi": 53,
      "hit": false,
      "t": 252000.0000000006,
      "d": 3006.666666666686,
      "v": 114
    },
    {
      "midi": 58,
      "hit": false,
      "t": 252000.0000000006,
      "d": 4033.333333333372,
      "v": 114
    },
    {
      "midi": 65,
      "hit": false,
      "t": 252040.0000000006,
      "d": 2466.666666666657,
      "v": 114
    },
    {
      "midi": 50,
      "hit": false,
      "t": 252400,
      "d": 400,
      "v": 72
    },
    {
      "midi": 65,
      "hit": false,
      "t": 252806.66666666666,
      "d": 846.666666666657,
      "v": 58
    },
    {
      "midi": 67,
      "hit": false,
      "t": 252813.3333333333,
      "d": 833.333333333343,
      "v": 51
    },
    {
      "midi": 70,
      "hit": false,
      "t": 252813.3333333333,
      "d": 846.666666666657,
      "v": 53
    },
    {
      "midi": 62,
      "hit": false,
      "t": 252813.3333333333,
      "d": 873.3333333333139,
      "v": 39
    },
    {
      "midi": 55,
      "hit": false,
      "t": 252819.99999999997,
      "d": 913.3333333333139,
      "v": 39
    },
    {
      "midi": 43,
      "hit": false,
      "t": 252833.3333333333,
      "d": 853.3333333333139,
      "v": 36
    },
    {
      "midi": 62,
      "hit": false,
      "t": 254006.66666666663,
      "d": 1393.333333333343,
      "v": 49
    },
    {
      "midi": 67,
      "hit": false,
      "t": 254006.66666666663,
      "d": 1993.333333333343,
      "v": 50
    },
    {
      "midi": 70,
      "hit": false,
      "t": 254006.66666666663,
      "d": 1993.333333333343,
      "v": 68
    },
    {
      "midi": 65,
      "hit": false,
      "t": 254019.99999999997,
      "d": 1980,
      "v": 63
    },
    {
      "midi": 67,
      "hit": false,
      "t": 254400.0000000006,
      "d": 1093.3333333333721,
      "v": 114
    },
    {
      "midi": 43,
      "hit": false,
      "t": 254786.66666666663,
      "d": 1213.333333333343,
      "v": 32
    },
    {
      "midi": 36,
      "hit": false,
      "t": 255200.00000000064,
      "d": 1233.333333333343,
      "v": 114
    },
    {
      "midi": 55,
      "hit": false,
      "t": 255239.99999999997,
      "d": 760,
      "v": 57
    },
    {
      "midi": 65,
      "hit": false,
      "t": 255600.00000000064,
      "d": 393.33333333334303,
      "v": 114
    },
    {
      "midi": 62,
      "hit": false,
      "t": 255619.99999999997,
      "d": 380,
      "v": 78
    },
    {
      "midi": 55,
      "hit": false,
      "t": 255960.00000000064,
      "d": 1533.333333333343,
      "v": 114
    },
    {
      "midi": 53,
      "hit": false,
      "t": 255999.99999999997,
      "d": 3200,
      "v": 71
    },
    {
      "midi": 57,
      "hit": false,
      "t": 256000.00000000064,
      "d": 1566.666666666657,
      "v": 114
    },
    {
      "midi": 60,
      "hit": false,
      "t": 256000.00000000064,
      "d": 1566.666666666657,
      "v": 114
    },
    {
      "midi": 48,
      "hit": false,
      "t": 256000.00000000064,
      "d": 2193.333333333343,
      "v": 114
    },
    {
      "midi": 41,
      "hit": false,
      "t": 256000.00000000064,
      "d": 2240,
      "v": 114
    },
    {
      "midi": 65,
      "hit": false,
      "t": 256040.00000000064,
      "d": 4680.000000000029,
      "v": 114
    },
    {
      "midi": 57,
      "hit": false,
      "t": 256399.99999999997,
      "d": 2800,
      "v": 65
    },
    {
      "midi": 60,
      "hit": false,
      "t": 256799.99999999997,
      "d": 1200,
      "v": 71
    },
    {
      "midi": 67,
      "hit": false,
      "t": 257199.99999999997,
      "d": 800,
      "v": 71
    },
    {
      "midi": 55,
      "hit": false,
      "t": 257560.00000000064,
      "d": 1533.333333333343,
      "v": 114
    },
    {
      "midi": 69,
      "hit": false,
      "t": 257599.99999999997,
      "d": 800,
      "v": 71
    },
    {
      "midi": 60,
      "hit": false,
      "t": 257600.00000000064,
      "d": 1546.666666666686,
      "v": 114
    },
    {
      "midi": 57,
      "hit": false,
      "t": 257600.00000000064,
      "d": 1706.666666666686,
      "v": 114
    },
    {
      "midi": 60,
      "hit": false,
      "t": 257999.99999999997,
      "d": 1200,
      "v": 71
    },
    {
      "midi": 67,
      "hit": false,
      "t": 258399.99999999997,
      "d": 400,
      "v": 71
    },
    {
      "midi": 41,
      "hit": false,
      "t": 258400.00000000064,
      "d": 573.333333333343,
      "v": 114
    },
    {
      "midi": 69,
      "hit": false,
      "t": 258799.99999999997,
      "d": 400,
      "v": 71
    },
    {
      "midi": 43,
      "hit": false,
      "t": 258800.00000000064,
      "d": 626.6666666666861,
      "v": 114
    },
    {
      "midi": 45,
      "hit": false,
      "t": 259199.99999999997,
      "d": 800,
      "v": 71
    },
    {
      "midi": 65,
      "hit": false,
      "t": 259199.99999999997,
      "d": 1613.333333333343,
      "v": 71
    },
    {
      "midi": 69,
      "hit": false,
      "t": 259199.99999999997,
      "d": 1613.333333333343,
      "v": 71
    },
    {
      "midi": 55,
      "hit": false,
      "t": 259200.00000000067,
      "d": 1566.666666666657,
      "v": 114
    },
    {
      "midi": 60,
      "hit": false,
      "t": 259200.00000000067,
      "d": 1566.666666666657,
      "v": 114
    },
    {
      "midi": 45,
      "hit": false,
      "t": 259200.00000000067,
      "d": 1753.333333333343,
      "v": 114
    },
    {
      "midi": 60,
      "hit": false,
      "t": 259599.99999999997,
      "d": 800,
      "v": 63
    },
    {
      "midi": 57,
      "hit": false,
      "t": 259999.99999999997,
      "d": 813.333333333343,
      "v": 71
    },
    {
      "midi": 60,
      "hit": false,
      "t": 260399.99999999997,
      "d": 800,
      "v": 71
    },
    {
      "midi": 55,
      "hit": false,
      "t": 260800.00000000067,
      "d": 866.666666666657,
      "v": 114
    },
    {
      "midi": 60,
      "hit": false,
      "t": 260800.00000000067,
      "d": 1599.999999999971,
      "v": 114
    },
    {
      "midi": 45,
      "hit": false,
      "t": 260813.3333333333,
      "d": 786.666666666657,
      "v": 71
    },
    {
      "midi": 65,
      "hit": false,
      "t": 260813.3333333333,
      "d": 786.666666666657,
      "v": 71
    },
    {
      "midi": 69,
      "hit": false,
      "t": 260833.333333334,
      "d": 660,
      "v": 114
    },
    {
      "midi": 60,
      "hit": false,
      "t": 261199.99999999997,
      "d": 800,
      "v": 71
    },
    {
      "midi": 67,
      "hit": false,
      "t": 261199.99999999997,
      "d": 800,
      "v": 71
    },
    {
      "midi": 70,
      "hit": false,
      "t": 261333.333333334,
      "d": 733.3333333333139,
      "v": 114
    },
    {
      "midi": 57,
      "hit": false,
      "t": 261599.99999999997,
      "d": 800.0000000000291,
      "v": 71
    },
    {
      "midi": 69,
      "hit": false,
      "t": 261599.99999999997,
      "d": 800.0000000000291,
      "v": 71
    },
    {
      "midi": 45,
      "hit": false,
      "t": 261600.00000000067,
      "d": 853.3333333332848,
      "v": 114
    },
    {
      "midi": 72,
      "hit": false,
      "t": 261866.66666666733,
      "d": 520,
      "v": 114
    },
    {
      "midi": 60,
      "hit": false,
      "t": 261999.99999999997,
      "d": 400.0000000000291,
      "v": 71
    },
    {
      "midi": 72,
      "hit": false,
      "t": 261999.99999999997,
      "d": 400.0000000000291,
      "v": 71
    },
    {
      "midi": 46,
      "hit": false,
      "t": 262400,
      "d": 3200,
      "v": 71
    },
    {
      "midi": 65,
      "hit": false,
      "t": 262400.00000000064,
      "d": 66.66666666662786,
      "v": 114
    },
    {
      "midi": 57,
      "hit": false,
      "t": 262400.00000000064,
      "d": 1566.6666666666279,
      "v": 114
    },
    {
      "midi": 62,
      "hit": false,
      "t": 262400.00000000064,
      "d": 1566.6666666666279,
      "v": 114
    },
    {
      "midi": 46,
      "hit": false,
      "t": 262400.00000000064,
      "d": 3113.3333333332557,
      "v": 114
    },
    {
      "midi": 72,
      "hit": false,
      "t": 262440.00000000064,
      "d": 2086.666666666628,
      "v": 114
    },
    {
      "midi": 50,
      "hit": false,
      "t": 262800,
      "d": 800,
      "v": 71
    },
    {
      "midi": 53,
      "hit": false,
      "t": 263200,
      "d": 800,
      "v": 71
    },
    {
      "midi": 50,
      "hit": false,
      "t": 263600,
      "d": 800,
      "v": 68
    },
    {
      "midi": 58,
      "hit": false,
      "t": 264000,
      "d": 800,
      "v": 71
    },
    {
      "midi": 62,
      "hit": false,
      "t": 264000.0000000006,
      "d": 1546.6666666666279,
      "v": 114
    },
    {
      "midi": 57,
      "hit": false,
      "t": 264000.0000000006,
      "d": 1773.333333333314,
      "v": 114
    },
    {
      "midi": 53,
      "hit": false,
      "t": 264400,
      "d": 800,
      "v": 69
    },
    {
      "midi": 50,
      "hit": false,
      "t": 264800,
      "d": 800,
      "v": 71
    },
    {
      "midi": 74,
      "hit": false,
      "t": 264800.0000000006,
      "d": 553.3333333333139,
      "v": 114
    },
    {
      "midi": 53,
      "hit": false,
      "t": 265200,
      "d": 400,
      "v": 71
    },
    {
      "midi": 65,
      "hit": false,
      "t": 265200.0000000006,
      "d": 466.66666666662786,
      "v": 114
    },
    {
      "midi": 46,
      "hit": false,
      "t": 265600,
      "d": 3200,
      "v": 71
    },
    {
      "midi": 58,
      "hit": false,
      "t": 265600.0000000005,
      "d": 786.6666666666861,
      "v": 114
    },
    {
      "midi": 62,
      "hit": false,
      "t": 265600.0000000005,
      "d": 886.6666666666861,
      "v": 114
    },
    {
      "midi": 46,
      "hit": false,
      "t": 265600.0000000005,
      "d": 1533.3333333333721,
      "v": 114
    },
    {
      "midi": 53,
      "hit": false,
      "t": 265600.0000000005,
      "d": 3306.6666666667443,
      "v": 114
    },
    {
      "midi": 70,
      "hit": false,
      "t": 265640.0000000005,
      "d": 953.3333333333721,
      "v": 114
    },
    {
      "midi": 50,
      "hit": false,
      "t": 266000,
      "d": 2800,
      "v": 65
    },
    {
      "midi": 53,
      "hit": false,
      "t": 266400,
      "d": 1200,
      "v": 71
    },
    {
      "midi": 58,
      "hit": false,
      "t": 266400.0000000005,
      "d": 573.3333333333721,
      "v": 114
    },
    {
      "midi": 58,
      "hit": false,
      "t": 266800,
      "d": 800,
      "v": 71
    },
    {
      "midi": 62,
      "hit": false,
      "t": 266800.0000000006,
      "d": 953.3333333333139,
      "v": 114
    },
    {
      "midi": 62,
      "hit": false,
      "t": 267200,
      "d": 800,
      "v": 71
    },
    {
      "midi": 46,
      "hit": false,
      "t": 267200.0000000006,
      "d": 1826.666666666686,
      "v": 114
    },
    {
      "midi": 53,
      "hit": false,
      "t": 267600,
      "d": 1200,
      "v": 71
    },
    {
      "midi": 65,
      "hit": false,
      "t": 267600.0000000006,
      "d": 520,
      "v": 114
    },
    {
      "midi": 58,
      "hit": false,
      "t": 268000,
      "d": 400,
      "v": 71
    },
    {
      "midi": 70,
      "hit": false,
      "t": 268000.0000000006,
      "d": 786.6666666666861,
      "v": 114
    },
    {
      "midi": 62,
      "hit": false,
      "t": 268400,
      "d": 400,
      "v": 71
    },
    {
      "midi": 79,
      "hit": false,
      "t": 268800,
      "d": 413.33333333331393,
      "v": 49
    },
    {
      "midi": 81,
      "hit": false,
      "t": 268800,
      "d": 420,
      "v": 68
    },
    {
      "midi": 84,
      "hit": false,
      "t": 268800,
      "d": 426.66666666668607,
      "v": 55
    },
    {
      "midi": 77,
      "hit": false,
      "t": 268800,
      "d": 473.33333333337214,
      "v": 62
    },
    {
      "midi": 53,
      "hit": false,
      "t": 268800,
      "d": 1726.6666666667443,
      "v": 58
    },
    {
      "midi": 69,
      "hit": false,
      "t": 268800.0000000006,
      "d": 733.3333333333721,
      "v": 114
    },
    {
      "midi": 65,
      "hit": false,
      "t": 268800.0000000006,
      "d": 1546.666666666686,
      "v": 114
    },
    {
      "midi": 60,
      "hit": false,
      "t": 268800.0000000006,
      "d": 1840.0000000000582,
      "v": 114
    },
    {
      "midi": 48,
      "hit": false,
      "t": 268800.0000000006,
      "d": 2226.6666666667443,
      "v": 114
    },
    {
      "midi": 72,
      "hit": false,
      "t": 268840.0000000006,
      "d": 920.0000000000582,
      "v": 114
    },
    {
      "midi": 60,
      "hit": false,
      "t": 269200,
      "d": 326.6666666667443,
      "v": 67
    },
    {
      "midi": 77,
      "hit": false,
      "t": 269600.00000000006,
      "d": 446.66666666668607,
      "v": 68
    },
    {
      "midi": 79,
      "hit": false,
      "t": 269600.00000000006,
      "d": 446.66666666668607,
      "v": 72
    },
    {
      "midi": 81,
      "hit": false,
      "t": 269600.00000000006,
      "d": 453.33333333337214,
      "v": 71
    },
    {
      "midi": 84,
      "hit": false,
      "t": 269600.00000000006,
      "d": 460.0000000000582,
      "v": 73
    },
    {
      "midi": 69,
      "hit": false,
      "t": 269600.00000000064,
      "d": 553.3333333333139,
      "v": 114
    },
    {
      "midi": 60,
      "hit": false,
      "t": 270000.00000000006,
      "d": 433.33333333337214,
      "v": 64
    },
    {
      "midi": 72,
      "hit": false,
      "t": 270000.00000000064,
      "d": 393.33333333331393,
      "v": 114
    },
    {
      "midi": 84,
      "hit": false,
      "t": 270400.0000000001,
      "d": 226.66666666662786,
      "v": 58
    },
    {
      "midi": 79,
      "hit": false,
      "t": 270400.0000000001,
      "d": 246.66666666662786,
      "v": 61
    },
    {
      "midi": 81,
      "hit": false,
      "t": 270400.0000000001,
      "d": 253.33333333331393,
      "v": 59
    },
    {
      "midi": 77,
      "hit": false,
      "t": 270400.0000000001,
      "d": 280,
      "v": 62
    },
    {
      "midi": 65,
      "hit": false,
      "t": 270400.0000000001,
      "d": 433.33333333331393,
      "v": 58
    },
    {
      "midi": 69,
      "hit": false,
      "t": 270400.00000000064,
      "d": 1666.6666666666279,
      "v": 114
    },
    {
      "midi": 72,
      "hit": false,
      "t": 270440.00000000064,
      "d": 906.6666666666861,
      "v": 114
    },
    {
      "midi": 60,
      "hit": false,
      "t": 270800.0000000001,
      "d": 1200,
      "v": 76
    },
    {
      "midi": 65,
      "hit": false,
      "t": 271200.0000000001,
      "d": 293.33333333331393,
      "v": 73
    },
    {
      "midi": 77,
      "hit": false,
      "t": 271200.00000000064,
      "d": 540,
      "v": 114
    },
    {
      "midi": 48,
      "hit": false,
      "t": 271200.00000000064,
      "d": 919.9999999999418,
      "v": 114
    },
    {
      "midi": 67,
      "hit": false,
      "t": 271400.0000000001,
      "d": 260,
      "v": 53
    },
    {
      "midi": 69,
      "hit": false,
      "t": 271600.0000000001,
      "d": 240,
      "v": 79
    },
    {
      "midi": 74,
      "hit": false,
      "t": 271600.00000000064,
      "d": 1006.6666666666279,
      "v": 114
    },
    {
      "midi": 72,
      "hit": false,
      "t": 271800.0000000001,
      "d": 200,
      "v": 80
    },
    {
      "midi": 64,
      "hit": false,
      "t": 271960.00000000064,
      "d": 1753.3333333331975,
      "v": 114
    },
    {
      "midi": 57,
      "hit": false,
      "t": 272000.0000000001,
      "d": 820,
      "v": 61
    },
    {
      "midi": 38,
      "hit": false,
      "t": 272000.0000000001,
      "d": 1600,
      "v": 26
    },
    {
      "midi": 69,
      "hit": false,
      "t": 272000.0000000001,
      "d": 1600,
      "v": 71
    },
    {
      "midi": 65,
      "hit": false,
      "t": 272000.00000000064,
      "d": 53.33333333331393,
      "v": 114
    },
    {
      "midi": 57,
      "hit": false,
      "t": 272000.00000000064,
      "d": 1533.3333333332557,
      "v": 114
    },
    {
      "midi": 50,
      "hit": false,
      "t": 272000.00000000064,
      "d": 1546.6666666665697,
      "v": 114
    },
    {
      "midi": 45,
      "hit": false,
      "t": 272400.0000000001,
      "d": 1200,
      "v": 58
    },
    {
      "midi": 72,
      "hit": false,
      "t": 272400.0000000006,
      "d": 506.66666666668607,
      "v": 114
    },
    {
      "midi": 50,
      "hit": false,
      "t": 272800.0000000001,
      "d": 800,
      "v": 54
    },
    {
      "midi": 69,
      "hit": false,
      "t": 272800.0000000006,
      "d": 313.33333333331393,
      "v": 114
    },
    {
      "midi": 67,
      "hit": false,
      "t": 273000.0000000006,
      "d": 313.33333333331393,
      "v": 114
    },
    {
      "midi": 57,
      "hit": false,
      "t": 273200.0000000001,
      "d": 400,
      "v": 55
    },
    {
      "midi": 65,
      "hit": false,
      "t": 273200.0000000006,
      "d": 553.3333333332557,
      "v": 114
    },
    {
      "midi": 57,
      "hit": false,
      "t": 273600.0000000001,
      "d": 766.6666666666861,
      "v": 45
    },
    {
      "midi": 62,
      "hit": false,
      "t": 273600.0000000001,
      "d": 766.6666666666861,
      "v": 65
    },
    {
      "midi": 65,
      "hit": false,
      "t": 273600.0000000001,
      "d": 800,
      "v": 64
    },
    {
      "midi": 38,
      "hit": false,
      "t": 273600.0000000001,
      "d": 1600,
      "v": 60
    },
    {
      "midi": 57,
      "hit": false,
      "t": 273600.0000000005,
      "d": 786.6666666666279,
      "v": 114
    },
    {
      "midi": 50,
      "hit": false,
      "t": 273600.0000000005,
      "d": 1620,
      "v": 114
    },
    {
      "midi": 62,
      "hit": false,
      "t": 273633.33333333384,
      "d": 906.6666666666279,
      "v": 114
    },
    {
      "midi": 45,
      "hit": false,
      "t": 274000.0000000001,
      "d": 1200,
      "v": 57
    },
    {
      "midi": 50,
      "hit": false,
      "t": 274400.0000000001,
      "d": 800,
      "v": 60
    },
    {
      "midi": 60,
      "hit": false,
      "t": 274400.00000000047,
      "d": 626.6666666666861,
      "v": 114
    },
    {
      "midi": 53,
      "hit": false,
      "t": 274800.0000000001,
      "d": 400,
      "v": 60
    },
    {
      "midi": 58,
      "hit": false,
      "t": 274800.00000000047,
      "d": 393.33333333337214,
      "v": 114
    },
    {
      "midi": 43,
      "hit": false,
      "t": 275200.0000000001,
      "d": 566.6666666666861,
      "v": 71
    },
    {
      "midi": 53,
      "hit": false,
      "t": 275200.0000000001,
      "d": 2146.666666666686,
      "v": 71
    },
    {
      "midi": 59,
      "hit": false,
      "t": 275200.0000000001,
      "d": 2466.666666666686,
      "v": 71
    },
    {
      "midi": 59,
      "hit": false,
      "t": 275200.0000000005,
      "d": 33.33333333331393,
      "v": 114
    },
    {
      "midi": 43,
      "hit": false,
      "t": 275200.0000000005,
      "d": 2193.333333333314,
      "v": 114
    },
    {
      "midi": 53,
      "hit": false,
      "t": 275200.0000000005,
      "d": 2260,
      "v": 114
    },
    {
      "midi": 59,
      "hit": false,
      "t": 275280.0000000005,
      "d": 1426.666666666686,
      "v": 114
    },
    {
      "midi": 50,
      "hit": false,
      "t": 275600.0000000001,
      "d": 506.66666666668607,
      "v": 71
    },
    {
      "midi": 62,
      "hit": false,
      "t": 275600.0000000005,
      "d": 553.3333333333139,
      "v": 114
    },
    {
      "midi": 47,
      "hit": false,
      "t": 276000.0000000001,
      "d": 533.3333333333139,
      "v": 71
    },
    {
      "midi": 65,
      "hit": false,
      "t": 276000.0000000005,
      "d": 393.33333333331393,
      "v": 114
    },
    {
      "midi": 50,
      "hit": false,
      "t": 276400.0000000001,
      "d": 506.66666666668607,
      "v": 71
    },
    {
      "midi": 65,
      "hit": false,
      "t": 276400.0000000005,
      "d": 593.3333333333139,
      "v": 114
    },
    {
      "midi": 43,
      "hit": false,
      "t": 276800.0000000001,
      "d": 506.66666666668607,
      "v": 71
    },
    {
      "midi": 59,
      "hit": false,
      "t": 276800.0000000005,
      "d": 1600,
      "v": 114
    },
    {
      "midi": 67,
      "hit": false,
      "t": 276833.33333333384,
      "d": 506.66666666668607,
      "v": 114
    },
    {
      "midi": 50,
      "hit": false,
      "t": 277200.0000000001,
      "d": 546.6666666666861,
      "v": 71
    },
    {
      "midi": 69,
      "hit": false,
      "t": 277200.0000000005,
      "d": 646.6666666666861,
      "v": 114
    },
    {
      "midi": 55,
      "hit": false,
      "t": 277600.0000000001,
      "d": 306.66666666668607,
      "v": 71
    },
    {
      "midi": 47,
      "hit": false,
      "t": 277600.0000000001,
      "d": 400,
      "v": 71
    },
    {
      "midi": 67,
      "hit": false,
      "t": 277600.0000000005,
      "d": 786.6666666666861,
      "v": 114
    },
    {
      "midi": 43,
      "hit": false,
      "t": 277600.0000000005,
      "d": 920,
      "v": 114
    },
    {
      "midi": 57,
      "hit": false,
      "t": 277800.0000000001,
      "d": 373.33333333331393,
      "v": 71
    },
    {
      "midi": 50,
      "hit": false,
      "t": 278000.0000000001,
      "d": 400,
      "v": 68
    },
    {
      "midi": 59,
      "hit": false,
      "t": 278000.0000000001,
      "d": 400,
      "v": 71
    },
    {
      "midi": 72,
      "hit": false,
      "t": 278400.0000000001,
      "d": 413.33333333331393,
      "v": 49
    },
    {
      "midi": 74,
      "hit": false,
      "t": 278400.0000000001,
      "d": 420,
      "v": 68
    },
    {
      "midi": 77,
      "hit": false,
      "t": 278400.0000000001,
      "d": 426.66666666668607,
      "v": 55
    },
    {
      "midi": 70,
      "hit": false,
      "t": 278400.0000000001,
      "d": 473.33333333337214,
      "v": 62
    },
    {
      "midi": 46,
      "hit": false,
      "t": 278400.0000000001,
      "d": 1726.6666666667443,
      "v": 58
    },
    {
      "midi": 62,
      "hit": false,
      "t": 278400.0000000005,
      "d": 33.33333333331393,
      "v": 114
    },
    {
      "midi": 58,
      "hit": false,
      "t": 278400.0000000005,
      "d": 1493.333333333314,
      "v": 114
    },
    {
      "midi": 36,
      "hit": false,
      "t": 278400.0000000005,
      "d": 2313.333333333314,
      "v": 114
    },
    {
      "midi": 65,
      "hit": false,
      "t": 278440.0000000005,
      "d": 1533.333333333314,
      "v": 114
    },
    {
      "midi": 53,
      "hit": false,
      "t": 278800.0000000001,
      "d": 326.6666666667443,
      "v": 67
    },
    {
      "midi": 70,
      "hit": false,
      "t": 279200.0000000002,
      "d": 446.66666666668607,
      "v": 68
    },
    {
      "midi": 72,
      "hit": false,
      "t": 279200.0000000002,
      "d": 446.66666666668607,
      "v": 72
    },
    {
      "midi": 74,
      "hit": false,
      "t": 279200.0000000002,
      "d": 453.33333333337214,
      "v": 71
    },
    {
      "midi": 77,
      "hit": false,
      "t": 279200.0000000002,
      "d": 460.0000000000582,
      "v": 73
    },
    {
      "midi": 53,
      "hit": false,
      "t": 279600.0000000002,
      "d": 433.33333333337214,
      "v": 64
    },
    {
      "midi": 69,
      "hit": false,
      "t": 279600.0000000005,
      "d": 333.33333333331393,
      "v": 114
    },
    {
      "midi": 67,
      "hit": false,
      "t": 279800.0000000005,
      "d": 366.66666666662786,
      "v": 114
    },
    {
      "midi": 77,
      "hit": false,
      "t": 280000.00000000023,
      "d": 226.66666666662786,
      "v": 58
    },
    {
      "midi": 72,
      "hit": false,
      "t": 280000.00000000023,
      "d": 246.66666666662786,
      "v": 61
    },
    {
      "midi": 74,
      "hit": false,
      "t": 280000.00000000023,
      "d": 253.33333333331393,
      "v": 59
    },
    {
      "midi": 70,
      "hit": false,
      "t": 280000.00000000023,
      "d": 280,
      "v": 62
    },
    {
      "midi": 58,
      "hit": false,
      "t": 280000.00000000023,
      "d": 433.33333333331393,
      "v": 58
    },
    {
      "midi": 48,
      "hit": false,
      "t": 280000.0000000005,
      "d": 953.3333333332557,
      "v": 114
    },
    {
      "midi": 62,
      "hit": false,
      "t": 280000.0000000005,
      "d": 1686.6666666666279,
      "v": 114
    },
    {
      "midi": 58,
      "hit": false,
      "t": 280000.0000000005,
      "d": 1753.333333333314,
      "v": 114
    },
    {
      "midi": 65,
      "hit": false,
      "t": 280033.33333333384,
      "d": 753.3333333333139,
      "v": 114
    },
    {
      "midi": 53,
      "hit": false,
      "t": 280400.00000000023,
      "d": 1200,
      "v": 76
    },
    {
      "midi": 58,
      "hit": false,
      "t": 280800.00000000023,
      "d": 293.33333333331393,
      "v": 73
    },
    {
      "midi": 65,
      "hit": false,
      "t": 280800.00000000047,
      "d": 520,
      "v": 114
    },
    {
      "midi": 36,
      "hit": false,
      "t": 280800.00000000047,
      "d": 1113.3333333333721,
      "v": 114
    },
    {
      "midi": 60,
      "hit": false,
      "t": 281000.00000000023,
      "d": 260,
      "v": 53
    },
    {
      "midi": 62,
      "hit": false,
      "t": 281200.00000000023,
      "d": 240,
      "v": 79
    },
    {
      "midi": 60,
      "hit": false,
      "t": 281200.00000000047,
      "d": 1946.666666666686,
      "v": 114
    },
    {
      "midi": 65,
      "hit": false,
      "t": 281400.00000000023,
      "d": 200,
      "v": 80
    },
    {
      "midi": 53,
      "hit": false,
      "t": 281600.00000000023,
      "d": 3200,
      "v": 71
    },
    {
      "midi": 57,
      "hit": false,
      "t": 281600.00000000047,
      "d": 1566.666666666686,
      "v": 114
    },
    {
      "midi": 41,
      "hit": false,
      "t": 281600.00000000047,
      "d": 3113.333333333372,
      "v": 114
    },
    {
      "midi": 53,
      "hit": false,
      "t": 281600.00000000047,
      "d": 3220.000000000058,
      "v": 114
    },
    {
      "midi": 48,
      "hit": false,
      "t": 281600.00000000047,
      "d": 3253.333333333372,
      "v": 114
    },
    {
      "midi": 57,
      "hit": false,
      "t": 282000.00000000023,
      "d": 2800,
      "v": 65
    },
    {
      "midi": 60,
      "hit": false,
      "t": 282400.00000000023,
      "d": 1200,
      "v": 71
    },
    {
      "midi": 65,
      "hit": false,
      "t": 282800.00000000023,
      "d": 800,
      "v": 71
    },
    {
      "midi": 69,
      "hit": false,
      "t": 283200.00000000023,
      "d": 800,
      "v": 71
    },
    {
      "midi": 60,
      "hit": false,
      "t": 283200.00000000047,
      "d": 906.6666666666861,
      "v": 114
    },
    {
      "midi": 57,
      "hit": false,
      "t": 283200.00000000047,
      "d": 1753.3333333333721,
      "v": 114
    },
    {
      "midi": 60,
      "hit": false,
      "t": 283600.00000000023,
      "d": 1200,
      "v": 71
    },
    {
      "midi": 65,
      "hit": false,
      "t": 284000.00000000023,
      "d": 400,
      "v": 71
    },
    {
      "midi": 65,
      "hit": false,
      "t": 284000.00000000047,
      "d": 993.3333333333721,
      "v": 114
    },
    {
      "midi": 69,
      "hit": false,
      "t": 284400.00000000023,
      "d": 400,
      "v": 71
    },
    {
      "midi": 53,
      "hit": false,
      "t": 284800.00000000023,
      "d": 3200,
      "v": 71
    },
    {
      "midi": 55,
      "hit": false,
      "t": 284800.0000000005,
      "d": 1493.333333333314,
      "v": 114
    },
    {
      "midi": 58,
      "hit": false,
      "t": 284800.0000000005,
      "d": 1533.333333333314,
      "v": 114
    },
    {
      "midi": 41,
      "hit": false,
      "t": 284800.0000000005,
      "d": 3179.999999999942,
      "v": 114
    },
    {
      "midi": 63,
      "hit": false,
      "t": 284833.33333333384,
      "d": 1026.666666666686,
      "v": 114
    },
    {
      "midi": 55,
      "hit": false,
      "t": 285200.00000000023,
      "d": 2800,
      "v": 65
    },
    {
      "midi": 58,
      "hit": false,
      "t": 285600.00000000023,
      "d": 1200,
      "v": 71
    },
    {
      "midi": 63,
      "hit": false,
      "t": 286000.00000000023,
      "d": 800,
      "v": 71
    },
    {
      "midi": 60,
      "hit": false,
      "t": 286000.0000000005,
      "d": 520,
      "v": 114
    },
    {
      "midi": 67,
      "hit": false,
      "t": 286400.00000000023,
      "d": 800,
      "v": 71
    },
    {
      "midi": 58,
      "hit": false,
      "t": 286400.0000000005,
      "d": 1579.9999999999418,
      "v": 114
    },
    {
      "midi": 55,
      "hit": false,
      "t": 286400.0000000005,
      "d": 1633.3333333332557,
      "v": 114
    },
    {
      "midi": 63,
      "hit": false,
      "t": 286400.0000000005,
      "d": 1653.3333333332557,
      "v": 114
    },
    {
      "midi": 68,
      "hit": false,
      "t": 286433.33333333384,
      "d": 313.33333333337214,
      "v": 114
    },
    {
      "midi": 67,
      "hit": false,
      "t": 286600.0000000005,
      "d": 333.33333333331393,
      "v": 114
    },
    {
      "midi": 58,
      "hit": false,
      "t": 286800.00000000023,
      "d": 1200,
      "v": 71
    },
    {
      "midi": 65,
      "hit": false,
      "t": 286800.0000000005,
      "d": 786.6666666666279,
      "v": 114
    },
    {
      "midi": 63,
      "hit": false,
      "t": 287200.00000000023,
      "d": 400,
      "v": 71
    },
    {
      "midi": 67,
      "hit": false,
      "t": 287600.00000000023,
      "d": 400,
      "v": 71
    },
    {
      "midi": 65,
      "hit": false,
      "t": 287600.00000000047,
      "d": 393.33333333331393,
      "v": 114
    },
    {
      "midi": 53,
      "hit": false,
      "t": 288000.00000000023,
      "d": 766.6666666666861,
      "v": 45
    },
    {
      "midi": 57,
      "hit": false,
      "t": 288000.00000000023,
      "d": 766.6666666666861,
      "v": 65
    },
    {
      "midi": 62,
      "hit": false,
      "t": 288000.00000000023,
      "d": 800,
      "v": 64
    },
    {
      "midi": 34,
      "hit": false,
      "t": 288000.00000000023,
      "d": 2840,
      "v": 60
    },
    {
      "midi": 57,
      "hit": false,
      "t": 288000.00000000047,
      "d": 1566.6666666666279,
      "v": 114
    },
    {
      "midi": 62,
      "hit": false,
      "t": 288000.00000000047,
      "d": 1566.6666666666279,
      "v": 114
    },
    {
      "midi": 46,
      "hit": false,
      "t": 288000.00000000047,
      "d": 3113.3333333331975,
      "v": 114
    },
    {
      "midi": 53,
      "hit": false,
      "t": 288000.00000000047,
      "d": 3253.3333333331975,
      "v": 114
    },
    {
      "midi": 65,
      "hit": false,
      "t": 288040.00000000047,
      "d": 1526.6666666666279,
      "v": 114
    },
    {
      "midi": 41,
      "hit": false,
      "t": 288400.00000000023,
      "d": 2480,
      "v": 57
    },
    {
      "midi": 46,
      "hit": false,
      "t": 288800.00000000023,
      "d": 2133.333333333314,
      "v": 60
    },
    {
      "midi": 50,
      "hit": false,
      "t": 289200.00000000023,
      "d": 806.6666666666861,
      "v": 60
    },
    {
      "midi": 53,
      "hit": false,
      "t": 289600.00000000023,
      "d": 440,
      "v": 64
    },
    {
      "midi": 62,
      "hit": false,
      "t": 289600.0000000004,
      "d": 786.6666666666279,
      "v": 114
    },
    {
      "midi": 57,
      "hit": false,
      "t": 289600.0000000004,
      "d": 1006.6666666666279,
      "v": 114
    },
    {
      "midi": 65,
      "hit": false,
      "t": 289633.3333333337,
      "d": 886.6666666666279,
      "v": 114
    },
    {
      "midi": 57,
      "hit": false,
      "t": 290000.00000000023,
      "d": 366.66666666668607,
      "v": 79
    },
    {
      "midi": 58,
      "hit": false,
      "t": 290400.00000000023,
      "d": 420,
      "v": 66
    },
    {
      "midi": 62,
      "hit": false,
      "t": 290400.00000000035,
      "d": 520,
      "v": 114
    },
    {
      "midi": 53,
      "hit": false,
      "t": 290800.00000000023,
      "d": 93.33333333331393,
      "v": 65
    },
    {
      "midi": 68,
      "hit": false,
      "t": 290800.00000000035,
      "d": 333.33333333331393,
      "v": 114
    },
    {
      "midi": 67,
      "hit": false,
      "t": 291000.00000000035,
      "d": 366.66666666662786,
      "v": 114
    },
    {
      "midi": 55,
      "hit": false,
      "t": 291200.00000000023,
      "d": 766.6666666666861,
      "v": 45
    },
    {
      "midi": 59,
      "hit": false,
      "t": 291200.00000000023,
      "d": 766.6666666666861,
      "v": 65
    },
    {
      "midi": 65,
      "hit": false,
      "t": 291200.00000000023,
      "d": 800,
      "v": 64
    },
    {
      "midi": 35,
      "hit": false,
      "t": 291200.00000000023,
      "d": 2840,
      "v": 60
    },
    {
      "midi": 62,
      "hit": false,
      "t": 291200.00000000035,
      "d": 953.3333333332557,
      "v": 114
    },
    {
      "midi": 55,
      "hit": false,
      "t": 291200.00000000035,
      "d": 3286.666666666628,
      "v": 114
    },
    {
      "midi": 47,
      "hit": false,
      "t": 291200.00000000035,
      "d": 3373.333333333314,
      "v": 114
    },
    {
      "midi": 65,
      "hit": false,
      "t": 291233.33333333366,
      "d": 906.6666666666279,
      "v": 114
    },
    {
      "midi": 38,
      "hit": false,
      "t": 291600.00000000023,
      "d": 2480,
      "v": 57
    },
    {
      "midi": 59,
      "hit": false,
      "t": 292000.0000000003,
      "d": 486.66666666668607,
      "v": 114
    },
    {
      "midi": 53,
      "hit": false,
      "t": 292400.00000000023,
      "d": 806.6666666666861,
      "v": 60
    },
    {
      "midi": 62,
      "hit": false,
      "t": 292400.0000000003,
      "d": 953.3333333333139,
      "v": 114
    },
    {
      "midi": 55,
      "hit": false,
      "t": 292800.00000000023,
      "d": 440,
      "v": 64
    },
    {
      "midi": 59,
      "hit": false,
      "t": 293200.00000000023,
      "d": 366.66666666668607,
      "v": 79
    },
    {
      "midi": 65,
      "hit": false,
      "t": 293200.0000000003,
      "d": 553.3333333333139,
      "v": 114
    },
    {
      "midi": 62,
      "hit": false,
      "t": 293600.00000000023,
      "d": 420,
      "v": 66
    },
    {
      "midi": 67,
      "hit": false,
      "t": 293600.0000000003,
      "d": 953.3333333333721,
      "v": 114
    },
    {
      "midi": 55,
      "hit": false,
      "t": 294000.00000000023,
      "d": 93.33333333331393,
      "v": 65
    },
    {
      "midi": 48,
      "hit": false,
      "t": 294400.00000000023,
      "d": 800,
      "v": 71
    },
    {
      "midi": 60,
      "hit": false,
      "t": 294400.0000000003,
      "d": 1546.666666666686,
      "v": 114
    },
    {
      "midi": 65,
      "hit": false,
      "t": 294400.0000000003,
      "d": 1546.666666666686,
      "v": 114
    },
    {
      "midi": 48,
      "hit": false,
      "t": 294400.0000000003,
      "d": 3353.333333333372,
      "v": 114
    },
    {
      "midi": 69,
      "hit": false,
      "t": 294440.0000000003,
      "d": 746.6666666666861,
      "v": 114
    },
    {
      "midi": 57,
      "hit": false,
      "t": 294800.00000000023,
      "d": 800,
      "v": 71
    },
    {
      "midi": 60,
      "hit": false,
      "t": 295200.00000000023,
      "d": 1200,
      "v": 71
    },
    {
      "midi": 69,
      "hit": false,
      "t": 295200.0000000003,
      "d": 393.33333333331393,
      "v": 114
    },
    {
      "midi": 65,
      "hit": false,
      "t": 295600.00000000023,
      "d": 800,
      "v": 71
    },
    {
      "midi": 69,
      "hit": false,
      "t": 295600.0000000003,
      "d": 393.33333333337214,
      "v": 114
    },
    {
      "midi": 69,
      "hit": false,
      "t": 296000.00000000023,
      "d": 800,
      "v": 71
    },
    {
      "midi": 65,
      "hit": false,
      "t": 296000.00000000035,
      "d": 1580,
      "v": 114
    },
    {
      "midi": 60,
      "hit": false,
      "t": 296000.00000000035,
      "d": 1753.333333333314,
      "v": 114
    },
    {
      "midi": 69,
      "hit": false,
      "t": 296040.00000000035,
      "d": 886.6666666666861,
      "v": 114
    },
    {
      "midi": 60,
      "hit": false,
      "t": 296400.00000000023,
      "d": 1200,
      "v": 65
    },
    {
      "midi": 65,
      "hit": false,
      "t": 296800.00000000023,
      "d": 800,
      "v": 71
    },
    {
      "midi": 70,
      "hit": false,
      "t": 296800.00000000035,
      "d": 660,
      "v": 114
    },
    {
      "midi": 69,
      "hit": false,
      "t": 297200.00000000023,
      "d": 400,
      "v": 71
    },
    {
      "midi": 69,
      "hit": false,
      "t": 297200.00000000035,
      "d": 520,
      "v": 114
    },
    {
      "midi": 50,
      "hit": false,
      "t": 297600.00000000023,
      "d": 733.3333333333139,
      "v": 70
    },
    {
      "midi": 65,
      "hit": false,
      "t": 297600.00000000023,
      "d": 1600,
      "v": 70
    },
    {
      "midi": 64,
      "hit": false,
      "t": 297600.00000000035,
      "d": 786.6666666666279,
      "v": 114
    },
    {
      "midi": 57,
      "hit": false,
      "t": 297600.00000000035,
      "d": 1493.3333333332557,
      "v": 114
    },
    {
      "midi": 50,
      "hit": false,
      "t": 297600.00000000035,
      "d": 3286.6666666665697,
      "v": 114
    },
    {
      "midi": 65,
      "hit": false,
      "t": 297646.66666666704,
      "d": 886.6666666665697,
      "v": 114
    },
    {
      "midi": 57,
      "hit": false,
      "t": 298000.00000000023,
      "d": 786.6666666666861,
      "v": 70
    },
    {
      "midi": 53,
      "hit": false,
      "t": 298400.00000000023,
      "d": 766.6666666666861,
      "v": 70
    },
    {
      "midi": 64,
      "hit": false,
      "t": 298400.0000000003,
      "d": 540,
      "v": 114
    },
    {
      "midi": 57,
      "hit": false,
      "t": 298800.00000000023,
      "d": 400,
      "v": 70
    },
    {
      "midi": 65,
      "hit": false,
      "t": 298800.0000000003,
      "d": 573.3333333333139,
      "v": 114
    },
    {
      "midi": 57,
      "hit": false,
      "t": 299200.00000000023,
      "d": 766.6666666666861,
      "v": 45
    },
    {
      "midi": 62,
      "hit": false,
      "t": 299200.00000000023,
      "d": 766.6666666666861,
      "v": 65
    },
    {
      "midi": 65,
      "hit": false,
      "t": 299200.00000000023,
      "d": 800,
      "v": 64
    },
    {
      "midi": 38,
      "hit": false,
      "t": 299200.00000000023,
      "d": 1600,
      "v": 60
    },
    {
      "midi": 62,
      "hit": false,
      "t": 299200.0000000003,
      "d": 433.33333333331393,
      "v": 114
    },
    {
      "midi": 57,
      "hit": false,
      "t": 299200.0000000003,
      "d": 1619.9999999999418,
      "v": 114
    },
    {
      "midi": 45,
      "hit": false,
      "t": 299600.00000000023,
      "d": 1200,
      "v": 57
    },
    {
      "midi": 62,
      "hit": false,
      "t": 299733.3333333336,
      "d": 680,
      "v": 114
    },
    {
      "midi": 50,
      "hit": false,
      "t": 300000.00000000023,
      "d": 800,
      "v": 60
    },
    {
      "midi": 65,
      "hit": false,
      "t": 300266.6666666669,
      "d": 520,
      "v": 114
    },
    {
      "midi": 53,
      "hit": false,
      "t": 300400.00000000023,
      "d": 400,
      "v": 60
    },
    {
      "midi": 43,
      "hit": false,
      "t": 300800.00000000023,
      "d": 600,
      "v": 68
    },
    {
      "midi": 53,
      "hit": false,
      "t": 300800.00000000023,
      "d": 1600,
      "v": 71
    },
    {
      "midi": 60,
      "hit": false,
      "t": 300800.00000000023,
      "d": 1600,
      "v": 71
    },
    {
      "midi": 62,
      "hit": false,
      "t": 300800.00000000023,
      "d": 1480,
      "v": 114
    },
    {
      "midi": 65,
      "hit": false,
      "t": 300800.00000000023,
      "d": 1546.666666666686,
      "v": 114
    },
    {
      "midi": 43,
      "hit": false,
      "t": 300800.00000000023,
      "d": 2593.333333333314,
      "v": 114
    },
    {
      "midi": 53,
      "hit": false,
      "t": 300800.00000000023,
      "d": 2626.666666666686,
      "v": 114
    },
    {
      "midi": 60,
      "hit": false,
      "t": 300846.6666666669,
      "d": 740,
      "v": 114
    },
    {
      "midi": 67,
      "hit": false,
      "t": 300846.6666666669,
      "d": 2433.333333333314,
      "v": 114
    },
    {
      "midi": 50,
      "hit": false,
      "t": 301200.00000000023,
      "d": 573.3333333333139,
      "v": 71
    },
    {
      "midi": 48,
      "hit": false,
      "t": 301600.00000000023,
      "d": 553.3333333333139,
      "v": 71
    },
    {
      "midi": 60,
      "hit": false,
      "t": 301600.00000000023,
      "d": 786.6666666666861,
      "v": 114
    },
    {
      "midi": 50,
      "hit": false,
      "t": 302000.00000000023,
      "d": 400,
      "v": 71
    },
    {
      "midi": 57,
      "hit": false,
      "t": 302400.00000000023,
      "d": 820,
      "v": 61
    },
    {
      "midi": 43,
      "hit": false,
      "t": 302400.00000000023,
      "d": 1600,
      "v": 26
    },
    {
      "midi": 65,
      "hit": false,
      "t": 302400.00000000023,
      "d": 1600,
      "v": 71
    },
    {
      "midi": 59,
      "hit": false,
      "t": 302400.00000000023,
      "d": 1546.666666666686,
      "v": 114
    },
    {
      "midi": 62,
      "hit": false,
      "t": 302400.00000000023,
      "d": 1566.666666666686,
      "v": 114
    },
    {
      "midi": 38,
      "hit": false,
      "t": 302800.00000000023,
      "d": 1200,
      "v": 58
    },
    {
      "midi": 68,
      "hit": false,
      "t": 303200.00000000023,
      "d": 333.33333333337214,
      "v": 114
    },
    {
      "midi": 67,
      "hit": false,
      "t": 303400.00000000023,
      "d": 313.33333333337214,
      "v": 114
    },
    {
      "midi": 57,
      "hit": false,
      "t": 303600.00000000023,
      "d": 400,
      "v": 55
    },
    {
      "midi": 65,
      "hit": false,
      "t": 303600.0000000003,
      "d": 539.9999999999418,
      "v": 114
    },
    {
      "midi": 43,
      "hit": false,
      "t": 303600.0000000003,
      "d": 606.6666666666279,
      "v": 114
    },
    {
      "midi": 53,
      "hit": false,
      "t": 304000.00000000023,
      "d": 766.6666666666861,
      "v": 45
    },
    {
      "midi": 58,
      "hit": false,
      "t": 304000.00000000023,
      "d": 766.6666666666861,
      "v": 65
    },
    {
      "midi": 62,
      "hit": false,
      "t": 304000.00000000023,
      "d": 800,
      "v": 64
    },
    {
      "midi": 36,
      "hit": false,
      "t": 304000.00000000023,
      "d": 2840,
      "v": 60
    },
    {
      "midi": 48,
      "hit": false,
      "t": 304000.00000000023,
      "d": 3286.666666666686,
      "v": 114
    },
    {
      "midi": 58,
      "hit": false,
      "t": 304000.00000000023,
      "d": 3286.666666666686,
      "v": 114
    },
    {
      "midi": 53,
      "hit": false,
      "t": 304000.00000000023,
      "d": 3320,
      "v": 114
    },
    {
      "midi": 36,
      "hit": false,
      "t": 304000.00000000023,
      "d": 3460,
      "v": 114
    },
    {
      "midi": 62,
      "hit": false,
      "t": 304040.00000000023,
      "d": 3266.666666666686,
      "v": 114
    },
    {
      "midi": 41,
      "hit": false,
      "t": 304400.00000000023,
      "d": 2480,
      "v": 57
    },
    {
      "midi": 48,
      "hit": false,
      "t": 304800.00000000023,
      "d": 2133.333333333314,
      "v": 60
    },
    {
      "midi": 50,
      "hit": false,
      "t": 305200.00000000023,
      "d": 806.6666666666861,
      "v": 60
    },
    {
      "midi": 53,
      "hit": false,
      "t": 305600.00000000023,
      "d": 440,
      "v": 64
    },
    {
      "midi": 65,
      "hit": false,
      "t": 305600.00000000023,
      "d": 1566.666666666686,
      "v": 114
    },
    {
      "midi": 58,
      "hit": false,
      "t": 306000.00000000023,
      "d": 366.66666666668607,
      "v": 79
    },
    {
      "midi": 62,
      "hit": false,
      "t": 306400.00000000023,
      "d": 420,
      "v": 66
    },
    {
      "midi": 53,
      "hit": false,
      "t": 306800.00000000023,
      "d": 93.33333333331393,
      "v": 65
    },
    {
      "midi": 65,
      "hit": false,
      "t": 307200.00000000023,
      "d": 3133.333333333314,
      "v": 114
    },
    {
      "midi": 53,
      "hit": false,
      "t": 310400.00000000023,
      "d": 766.6666666666861,
      "v": 45
    },
    {
      "midi": 57,
      "hit": false,
      "t": 310400.00000000023,
      "d": 766.6666666666861,
      "v": 65
    },
    {
      "midi": 62,
      "hit": false,
      "t": 310400.00000000023,
      "d": 800,
      "v": 64
    },
    {
      "midi": 34,
      "hit": false,
      "t": 310400.00000000023,
      "d": 2840,
      "v": 60
    },
    {
      "midi": 57,
      "hit": false,
      "t": 310400.00000000023,
      "d": 1566.666666666686,
      "v": 114
    },
    {
      "midi": 62,
      "hit": false,
      "t": 310400.00000000023,
      "d": 2206.666666666686,
      "v": 114
    },
    {
      "midi": 53,
      "hit": false,
      "t": 310400.00000000023,
      "d": 3200,
      "v": 114
    },
    {
      "midi": 46,
      "hit": false,
      "t": 310400.00000000023,
      "d": 3233.333333333314,
      "v": 114
    },
    {
      "midi": 65,
      "hit": false,
      "t": 310400.00000000023,
      "d": 3233.333333333314,
      "v": 114
    },
    {
      "midi": 69,
      "hit": false,
      "t": 310440.00000000023,
      "d": 3200,
      "v": 114
    },
    {
      "midi": 41,
      "hit": false,
      "t": 310800.00000000023,
      "d": 2480,
      "v": 57
    },
    {
      "midi": 46,
      "hit": false,
      "t": 311200.00000000023,
      "d": 2133.333333333314,
      "v": 60
    },
    {
      "midi": 50,
      "hit": false,
      "t": 311600.00000000023,
      "d": 806.6666666666861,
      "v": 60
    },
    {
      "midi": 53,
      "hit": false,
      "t": 312000.00000000023,
      "d": 440,
      "v": 64
    },
    {
      "midi": 57,
      "hit": false,
      "t": 312000.00000000023,
      "d": 1633.333333333314,
      "v": 114
    },
    {
      "midi": 57,
      "hit": false,
      "t": 312400.00000000023,
      "d": 366.66666666668607,
      "v": 79
    },
    {
      "midi": 58,
      "hit": false,
      "t": 312800.00000000023,
      "d": 420,
      "v": 66
    },
    {
      "midi": 62,
      "hit": false,
      "t": 312800.00000000023,
      "d": 786.6666666666861,
      "v": 114
    },
    {
      "midi": 53,
      "hit": false,
      "t": 313200.00000000023,
      "d": 93.33333333331393,
      "v": 65
    },
    {
      "midi": 67,
      "hit": false,
      "t": 313600.00000000023,
      "d": 346.66666666668607,
      "v": 85
    },
    {
      "midi": 45,
      "hit": false,
      "t": 313600.00000000023,
      "d": 3200,
      "v": 59
    },
    {
      "midi": 55,
      "hit": false,
      "t": 313600.00000000023,
      "d": 1566.666666666686,
      "v": 114
    },
    {
      "midi": 60,
      "hit": false,
      "t": 313600.00000000023,
      "d": 2173.333333333314,
      "v": 114
    },
    {
      "midi": 52,
      "hit": false,
      "t": 313600.00000000023,
      "d": 3320,
      "v": 114
    },
    {
      "midi": 45,
      "hit": false,
      "t": 313600.00000000023,
      "d": 3393.333333333372,
      "v": 114
    },
    {
      "midi": 64,
      "hit": false,
      "t": 313600.00000000023,
      "d": 3406.666666666686,
      "v": 114
    },
    {
      "midi": 55,
      "hit": false,
      "t": 313633.33333333355,
      "d": 2086.666666666686,
      "v": 90
    },
    {
      "midi": 67,
      "hit": false,
      "t": 313640.00000000023,
      "d": 3286.666666666686,
      "v": 114
    },
    {
      "midi": 64,
      "hit": false,
      "t": 313800.00000000023,
      "d": 1046.666666666686,
      "v": 75
    },
    {
      "midi": 52,
      "hit": false,
      "t": 313800.00000000023,
      "d": 3000,
      "v": 59
    },
    {
      "midi": 57,
      "hit": false,
      "t": 314000.00000000023,
      "d": 946.6666666666861,
      "v": 64
    },
    {
      "midi": 55,
      "hit": false,
      "t": 315200.00000000023,
      "d": 1793.3333333333721,
      "v": 114
    },
    {
      "midi": 55,
      "hit": false,
      "t": 315800.00000000023,
      "d": 1000,
      "v": 83
    },
    {
      "midi": 57,
      "hit": false,
      "t": 316000.00000000023,
      "d": 413.33333333331393,
      "v": 48
    },
    {
      "midi": 60,
      "hit": false,
      "t": 316000.00000000023,
      "d": 1026.666666666686,
      "v": 114
    },
    {
      "midi": 64,
      "hit": false,
      "t": 316200.00000000023,
      "d": 440,
      "v": 74
    },
    {
      "midi": 67,
      "hit": false,
      "t": 316400.00000000023,
      "d": 300,
      "v": 73
    },
    {
      "midi": 69,
      "hit": false,
      "t": 316600.00000000023,
      "d": 200,
      "v": 71
    },
    {
      "midi": 77,
      "hit": false,
      "t": 316800.00000000023,
      "d": 920,
      "v": 51
    },
    {
      "midi": 67,
      "hit": false,
      "t": 316800.00000000023,
      "d": 933.3333333333139,
      "v": 36
    },
    {
      "midi": 70,
      "hit": false,
      "t": 316800.00000000023,
      "d": 933.3333333333139,
      "v": 61
    },
    {
      "midi": 74,
      "hit": false,
      "t": 316800.00000000023,
      "d": 933.3333333333139,
      "v": 54
    },
    {
      "midi": 43,
      "hit": false,
      "t": 316800.00000000023,
      "d": 3200,
      "v": 58
    },
    {
      "midi": 43,
      "hit": false,
      "t": 316800.00000000023,
      "d": 1566.666666666686,
      "v": 114
    },
    {
      "midi": 50,
      "hit": false,
      "t": 316800.00000000023,
      "d": 1566.666666666686,
      "v": 114
    },
    {
      "midi": 53,
      "hit": false,
      "t": 316800.00000000023,
      "d": 1566.666666666686,
      "v": 114
    },
    {
      "midi": 62,
      "hit": false,
      "t": 316800.00000000023,
      "d": 1566.666666666686,
      "v": 114
    },
    {
      "midi": 58,
      "hit": false,
      "t": 316800.00000000023,
      "d": 2206.666666666686,
      "v": 114
    },
    {
      "midi": 65,
      "hit": false,
      "t": 316840.00000000023,
      "d": 1526.666666666686,
      "v": 114
    },
    {
      "midi": 55,
      "hit": false,
      "t": 317200.00000000023,
      "d": 1080,
      "v": 58
    },
    {
      "midi": 62,
      "hit": false,
      "t": 317600.00000000023,
      "d": 1240,
      "v": 56
    },
    {
      "midi": 70,
      "hit": false,
      "t": 318000.00000000023,
      "d": 806.6666666666861,
      "v": 75
    },
    {
      "midi": 77,
      "hit": false,
      "t": 318000.00000000023,
      "d": 806.6666666666861,
      "v": 68
    },
    {
      "midi": 74,
      "hit": false,
      "t": 318000.00000000023,
      "d": 820,
      "v": 70
    },
    {
      "midi": 67,
      "hit": false,
      "t": 318000.00000000023,
      "d": 840,
      "v": 62
    },
    {
      "midi": 53,
      "hit": false,
      "t": 318400.00000000023,
      "d": 786.6666666666861,
      "v": 114
    },
    {
      "midi": 55,
      "hit": false,
      "t": 318800.00000000023,
      "d": 1200,
      "v": 56
    },
    {
      "midi": 62,
      "hit": false,
      "t": 319200.00000000023,
      "d": 800,
      "v": 68
    },
    {
      "midi": 58,
      "hit": false,
      "t": 319200.00000000023,
      "d": 953.3333333333139,
      "v": 114
    },
    {
      "midi": 65,
      "hit": false,
      "t": 319400.00000000023,
      "d": 413.33333333331393,
      "v": 54
    },
    {
      "midi": 67,
      "hit": false,
      "t": 319600.00000000023,
      "d": 240,
      "v": 51
    },
    {
      "midi": 70,
      "hit": false,
      "t": 319800.00000000023,
      "d": 200,
      "v": 75
    },
    {
      "midi": 41,
      "hit": false,
      "t": 319920.00000000023,
      "d": 80,
      "v": 114
    },
    {
      "midi": 69,
      "hit": false,
      "t": 320006.6666666669,
      "d": 840,
      "v": 58
    },
    {
      "midi": 72,
      "hit": false,
      "t": 320013.3333333336,
      "d": 846.6666666666279,
      "v": 53
    },
    {
      "midi": 67,
      "hit": false,
      "t": 320013.3333333336,
      "d": 873.3333333333139,
      "v": 39
    },
    {
      "midi": 57,
      "hit": false,
      "t": 320020.0000000003,
      "d": 913.3333333333139,
      "v": 39
    },
    {
      "midi": 41,
      "hit": false,
      "t": 320033.33333333355,
      "d": 3320.000000000058,
      "v": 114
    },
    {
      "midi": 41,
      "hit": false,
      "t": 320033.3333333336,
      "d": 853.3333333333139,
      "v": 36
    },
    {
      "midi": 48,
      "hit": false,
      "t": 320266.66666666686,
      "d": 433.33333333337214,
      "v": 114
    },
    {
      "midi": 55,
      "hit": false,
      "t": 320533.33333333355,
      "d": 2486.6666666667443,
      "v": 114
    },
    {
      "midi": 57,
      "hit": false,
      "t": 320800.00000000023,
      "d": 553.3333333333721,
      "v": 114
    },
    {
      "midi": 60,
      "hit": false,
      "t": 321066.6666666669,
      "d": 326.66666666668607,
      "v": 114
    },
    {
      "midi": 67,
      "hit": false,
      "t": 321206.6666666669,
      "d": 1393.333333333314,
      "v": 49
    },
    {
      "midi": 69,
      "hit": false,
      "t": 321206.6666666669,
      "d": 1993.333333333314,
      "v": 50
    },
    {
      "midi": 72,
      "hit": false,
      "t": 321206.6666666669,
      "d": 1993.333333333314,
      "v": 68
    },
    {
      "midi": 67,
      "hit": false,
      "t": 321333.3333333336,
      "d": 260,
      "v": 114
    },
    {
      "midi": 69,
      "hit": false,
      "t": 321600.0000000003,
      "d": 393.33333333337214,
      "v": 114
    },
    {
      "midi": 72,
      "hit": false,
      "t": 321866.666666667,
      "d": 400,
      "v": 114
    },
    {
      "midi": 41,
      "hit": false,
      "t": 321986.6666666669,
      "d": 1213.333333333314,
      "v": 32
    },
    {
      "midi": 79,
      "hit": false,
      "t": 322133.33333333366,
      "d": 379.9999999999418,
      "v": 114
    },
    {
      "midi": 81,
      "hit": false,
      "t": 322400.0000000003,
      "d": 920,
      "v": 114
    },
    {
      "midi": 57,
      "hit": false,
      "t": 322440.00000000023,
      "d": 760,
      "v": 57
    },
    {
      "midi": 67,
      "hit": false,
      "t": 322820.00000000023,
      "d": 380,
      "v": 78
    },
    {
      "midi": 53,
      "hit": false,
      "t": 323200.00000000023,
      "d": 3013.333333333372,
      "v": 79
    },
    {
      "midi": 57,
      "hit": false,
      "t": 323600.00000000023,
      "d": 5620.000000000116,
      "v": 67
    },
    {
      "midi": 60,
      "hit": false,
      "t": 324000.00000000023,
      "d": 5246.6666666668025,
      "v": 69
    },
    {
      "midi": 65,
      "hit": false,
      "t": 324400.00000000023,
      "d": 520,
      "v": 72
    },
    {
      "midi": 72,
      "hit": false,
      "t": 324800.00000000023,
      "d": 466.66666666668607,
      "v": 69
    },
    {
      "midi": 65,
      "hit": false,
      "t": 325200.00000000023,
      "d": 986.6666666666861,
      "v": 70
    },
    {
      "midi": 69,
      "hit": false,
      "t": 326006.6666666669,
      "d": 206.66666666668607,
      "v": 70
    },
    {
      "midi": 72,
      "hit": false,
      "t": 326206.6666666669,
      "d": 153.33333333337214,
      "v": 90
    },
    {
      "midi": 65,
      "hit": false,
      "t": 326406.666666667,
      "d": 2986.666666666686,
      "v": 90
    },
    {
      "midi": 69,
      "hit": false,
      "t": 326426.666666667,
      "d": 3100,
      "v": 90
    },
    {
      "midi": 53,
      "hit": false,
      "t": 326426.666666667,
      "d": 3126.666666666686,
      "v": 90
    },
    {
      "midi": 77,
      "hit": false,
      "t": 326433.33333333366,
      "d": 2826.666666666686,
      "v": 69
    },
    {
      "midi": 72,
      "hit": false,
      "t": 326473.33333333366,
      "d": 3126.666666666686,
      "v": 90
    }
  ]
}