{
  "jsonPath": "Rock/Soft Rock/Barry Manilow/somewhere-in-the-night.json",
  "path": "Rock\\Soft Rock\\Barry Manilow\\Somewhere In The Night.mid",
  "name": "Somewhere In The Night",
  "difficulty": "Advanced",
  "bpm": 200,
  "notes": [
    {
      "midi": 65,
      "hit": false,
      "t": 10434.768,
      "d": 733.6946250000001,
      "v": 93
    },
    {
      "midi": 74,
      "hit": false,
      "t": 10434.768,
      "d": 778.9844166666662,
      "v": 106
    },
    {
      "midi": 58,
      "hit": false,
      "t": 10434.768,
      "d": 2998.184208333332,
      "v": 82
    },
    {
      "midi": 74,
      "hit": false,
      "t": 11304.332,
      "d": 443.8399583333321,
      "v": 97
    },
    {
      "midi": 65,
      "hit": false,
      "t": 11304.332,
      "d": 475.54281249999804,
      "v": 91
    },
    {
      "midi": 75,
      "hit": false,
      "t": 11739.114,
      "d": 466.4848541666652,
      "v": 93
    },
    {
      "midi": 67,
      "hit": false,
      "t": 11739.114,
      "d": 543.477499999999,
      "v": 78
    },
    {
      "midi": 74,
      "hit": false,
      "t": 12173.895999999999,
      "d": 878.6219583333332,
      "v": 81
    },
    {
      "midi": 65,
      "hit": false,
      "t": 12173.895999999999,
      "d": 910.3248124999991,
      "v": 95
    },
    {
      "midi": 63,
      "hit": false,
      "t": 13043.46,
      "d": 384.96322916666577,
      "v": 80
    },
    {
      "midi": 72,
      "hit": false,
      "t": 13043.46,
      "d": 489.12975000000006,
      "v": 94
    },
    {
      "midi": 62,
      "hit": false,
      "t": 13478.241999999998,
      "d": 434.78200000000106,
      "v": 82
    },
    {
      "midi": 70,
      "hit": false,
      "t": 13478.241999999998,
      "d": 480.0717916666672,
      "v": 83
    },
    {
      "midi": 64,
      "hit": false,
      "t": 13913.024,
      "d": 819.7452291666668,
      "v": 80
    },
    {
      "midi": 58,
      "hit": false,
      "t": 13913.024,
      "d": 2726.4454583333336,
      "v": 84
    },
    {
      "midi": 72,
      "hit": false,
      "t": 13913.024,
      "d": 3514.4878333333345,
      "v": 100
    },
    {
      "midi": 60,
      "hit": false,
      "t": 14782.588,
      "d": 448.36893749999945,
      "v": 93
    },
    {
      "midi": 62,
      "hit": false,
      "t": 15217.369999999999,
      "d": 516.3036250000005,
      "v": 93
    },
    {
      "midi": 64,
      "hit": false,
      "t": 15652.152,
      "d": 1304.3459999999995,
      "v": 90
    },
    {
      "midi": 65,
      "hit": false,
      "t": 16521.716,
      "d": 480.0717916666654,
      "v": 82
    },
    {
      "midi": 67,
      "hit": false,
      "t": 16956.498,
      "d": 484.60077083333454,
      "v": 81
    },
    {
      "midi": 66,
      "hit": false,
      "t": 17391.28,
      "d": 887.6799166666679,
      "v": 94
    },
    {
      "midi": 58,
      "hit": false,
      "t": 17391.28,
      "d": 3106.8797083333375,
      "v": 85
    },
    {
      "midi": 51,
      "hit": false,
      "t": 17391.28,
      "d": 3129.5246041666724,
      "v": 84
    },
    {
      "midi": 63,
      "hit": false,
      "t": 18260.844,
      "d": 652.1729999999989,
      "v": 92
    },
    {
      "midi": 66,
      "hit": false,
      "t": 18695.626,
      "d": 384.9632291666676,
      "v": 94
    },
    {
      "midi": 75,
      "hit": false,
      "t": 19130.408,
      "d": 335.1444583333323,
      "v": 95
    },
    {
      "midi": 66,
      "hit": false,
      "t": 19130.408,
      "d": 357.7893541666672,
      "v": 89
    },
    {
      "midi": 75,
      "hit": false,
      "t": 19565.19,
      "d": 443.8399583333339,
      "v": 94
    },
    {
      "midi": 66,
      "hit": false,
      "t": 19565.19,
      "d": 883.1509375000023,
      "v": 83
    },
    {
      "midi": 74,
      "hit": false,
      "t": 19999.971999999998,
      "d": 489.1297500000037,
      "v": 91
    },
    {
      "midi": 70,
      "hit": false,
      "t": 20434.754,
      "d": 448.3689375000031,
      "v": 90
    },
    {
      "midi": 62,
      "hit": false,
      "t": 20869.536000000004,
      "d": 887.6799166666642,
      "v": 80
    },
    {
      "midi": 46,
      "hit": false,
      "t": 20869.536000000004,
      "d": 1607.787604166664,
      "v": 85
    },
    {
      "midi": 65,
      "hit": false,
      "t": 20869.536000000004,
      "d": 2685.6846458333275,
      "v": 86
    },
    {
      "midi": 60,
      "hit": false,
      "t": 21739.100000000002,
      "d": 452.89791666666497,
      "v": 96
    },
    {
      "midi": 62,
      "hit": false,
      "t": 22173.882,
      "d": 480.0717916666654,
      "v": 97
    },
    {
      "midi": 58,
      "hit": false,
      "t": 22608.664,
      "d": 448.36893749999945,
      "v": 87
    },
    {
      "midi": 46,
      "hit": false,
      "t": 22608.664,
      "d": 1286.230083333332,
      "v": 92
    },
    {
      "midi": 53,
      "hit": false,
      "t": 23043.446,
      "d": 1367.7517083333296,
      "v": 84
    },
    {
      "midi": 58,
      "hit": false,
      "t": 23478.228,
      "d": 923.9117499999993,
      "v": 82
    },
    {
      "midi": 41,
      "hit": false,
      "t": 23913.01,
      "d": 493.6587291666656,
      "v": 85
    },
    {
      "midi": 60,
      "hit": false,
      "t": 23913.01,
      "d": 529.890562499997,
      "v": 85
    },
    {
      "midi": 62,
      "hit": false,
      "t": 24347.791999999998,
      "d": 425.72404166666456,
      "v": 102
    },
    {
      "midi": 46,
      "hit": false,
      "t": 24347.791999999998,
      "d": 2830.6119791666642,
      "v": 79
    },
    {
      "midi": 53,
      "hit": false,
      "t": 24782.573999999997,
      "d": 1381.3386458333298,
      "v": 84
    },
    {
      "midi": 57,
      "hit": false,
      "t": 25217.355999999996,
      "d": 480.0717916666654,
      "v": 83
    },
    {
      "midi": 62,
      "hit": false,
      "t": 25652.137999999995,
      "d": 371.3762916666674,
      "v": 84
    },
    {
      "midi": 62,
      "hit": false,
      "t": 26086.919999999995,
      "d": 457.42689583333413,
      "v": 97
    },
    {
      "midi": 53,
      "hit": false,
      "t": 26521.701999999994,
      "d": 896.7378750000025,
      "v": 85
    },
    {
      "midi": 57,
      "hit": false,
      "t": 26956.483999999997,
      "d": 434.78199999999924,
      "v": 77
    },
    {
      "midi": 46,
      "hit": false,
      "t": 27391.265999999996,
      "d": 384.9632291666676,
      "v": 77
    },
    {
      "midi": 62,
      "hit": false,
      "t": 27391.265999999996,
      "d": 507.2456666666658,
      "v": 86
    },
    {
      "midi": 65,
      "hit": false,
      "t": 27826.047999999995,
      "d": 425.7240416666682,
      "v": 102
    },
    {
      "midi": 53,
      "hit": false,
      "t": 28260.829999999998,
      "d": 1381.3386458333298,
      "v": 81
    },
    {
      "midi": 57,
      "hit": false,
      "t": 28695.611999999997,
      "d": 480.0717916666654,
      "v": 71
    },
    {
      "midi": 60,
      "hit": false,
      "t": 29130.393999999997,
      "d": 371.3762916666674,
      "v": 91
    },
    {
      "midi": 65,
      "hit": false,
      "t": 29565.175999999996,
      "d": 457.42689583333413,
      "v": 97
    },
    {
      "midi": 53,
      "hit": false,
      "t": 29999.957999999995,
      "d": 896.7378750000025,
      "v": 85
    },
    {
      "midi": 57,
      "hit": false,
      "t": 30434.739999999998,
      "d": 434.78199999999924,
      "v": 84
    },
    {
      "midi": 60,
      "hit": false,
      "t": 30869.521999999997,
      "d": 507.2456666666658,
      "v": 86
    },
    {
      "midi": 62,
      "hit": false,
      "t": 31304.303999999996,
      "d": 434.78199999999924,
      "v": 82
    },
    {
      "midi": 57,
      "hit": false,
      "t": 31739.085999999996,
      "d": 525.3615833333315,
      "v": 82
    },
    {
      "midi": 58,
      "hit": false,
      "t": 32173.867999999995,
      "d": 439.31097916666477,
      "v": 79
    },
    {
      "midi": 60,
      "hit": false,
      "t": 32608.649999999994,
      "d": 461.95587499999965,
      "v": 90
    },
    {
      "midi": 55,
      "hit": false,
      "t": 33043.43199999999,
      "d": 425.7240416666682,
      "v": 88
    },
    {
      "midi": 58,
      "hit": false,
      "t": 33478.21399999999,
      "d": 434.78199999999924,
      "v": 91
    },
    {
      "midi": 55,
      "hit": false,
      "t": 33912.99599999999,
      "d": 869.5639999999985,
      "v": 88
    },
    {
      "midi": 60,
      "hit": false,
      "t": 34782.55999999999,
      "d": 484.60077083333454,
      "v": 77
    },
    {
      "midi": 62,
      "hit": false,
      "t": 35217.34199999999,
      "d": 434.78199999999924,
      "v": 87
    },
    {
      "midi": 63,
      "hit": false,
      "t": 35652.12399999999,
      "d": 457.42689583333413,
      "v": 87
    },
    {
      "midi": 65,
      "hit": false,
      "t": 36086.90599999999,
      "d": 443.8399583333303,
      "v": 91
    },
    {
      "midi": 67,
      "hit": false,
      "t": 36521.68799999999,
      "d": 434.78199999999924,
      "v": 94
    },
    {
      "midi": 60,
      "hit": false,
      "t": 36956.46999999999,
      "d": 484.60077083333454,
      "v": 77
    },
    {
      "midi": 63,
      "hit": false,
      "t": 37391.251999999986,
      "d": 434.78199999999924,
      "v": 87
    },
    {
      "midi": 67,
      "hit": false,
      "t": 37826.033999999985,
      "d": 434.78199999999924,
      "v": 87
    },
    {
      "midi": 67,
      "hit": false,
      "t": 38260.815999999984,
      "d": 457.42689583333413,
      "v": 95
    },
    {
      "midi": 55,
      "hit": false,
      "t": 38695.59799999998,
      "d": 502.7166874999966,
      "v": 89
    },
    {
      "midi": 60,
      "hit": false,
      "t": 39130.37999999998,
      "d": 443.8399583333303,
      "v": 99
    },
    {
      "midi": 63,
      "hit": false,
      "t": 39565.16199999998,
      "d": 384.96322916666395,
      "v": 83
    },
    {
      "midi": 68,
      "hit": false,
      "t": 39999.94399999998,
      "d": 883.150937499995,
      "v": 101
    },
    {
      "midi": 69,
      "hit": false,
      "t": 40869.50799999998,
      "d": 661.2309583333335,
      "v": 105
    },
    {
      "midi": 70,
      "hit": false,
      "t": 41739.07199999998,
      "d": 439.31097916666477,
      "v": 93
    },
    {
      "midi": 58,
      "hit": false,
      "t": 42173.85399999998,
      "d": 480.071791666669,
      "v": 90
    },
    {
      "midi": 62,
      "hit": false,
      "t": 42608.63599999998,
      "d": 416.66608333333716,
      "v": 82
    },
    {
      "midi": 67,
      "hit": false,
      "t": 43043.41799999998,
      "d": 403.0791458333333,
      "v": 81
    },
    {
      "midi": 67,
      "hit": false,
      "t": 43478.19999999998,
      "d": 484.60077083333454,
      "v": 84
    },
    {
      "midi": 58,
      "hit": false,
      "t": 43912.98199999998,
      "d": 475.5428124999962,
      "v": 85
    },
    {
      "midi": 62,
      "hit": false,
      "t": 44347.76399999998,
      "d": 466.4848541666652,
      "v": 79
    },
    {
      "midi": 67,
      "hit": false,
      "t": 44782.54599999998,
      "d": 475.5428124999962,
      "v": 85
    },
    {
      "midi": 58,
      "hit": false,
      "t": 45217.32799999998,
      "d": 448.3689374999958,
      "v": 71
    },
    {
      "midi": 62,
      "hit": false,
      "t": 45217.32799999998,
      "d": 452.89791666666133,
      "v": 84
    },
    {
      "midi": 70,
      "hit": false,
      "t": 46086.89199999997,
      "d": 892.2088958333334,
      "v": 93
    },
    {
      "midi": 74,
      "hit": false,
      "t": 46086.89199999997,
      "d": 964.6725625000036,
      "v": 98
    },
    {
      "midi": 70,
      "hit": false,
      "t": 46086.892,
      "d": 792.5713541666701,
      "v": 74
    },
    {
      "midi": 74,
      "hit": false,
      "t": 46086.892,
      "d": 869.5640000000058,
      "v": 84
    },
    {
      "midi": 69,
      "hit": false,
      "t": 46956.45599999997,
      "d": 942.0276666666759,
      "v": 92
    },
    {
      "midi": 72,
      "hit": false,
      "t": 46956.45599999997,
      "d": 946.5566458333415,
      "v": 91
    },
    {
      "midi": 72,
      "hit": false,
      "t": 46956.456000000006,
      "d": 865.035020833333,
      "v": 85
    },
    {
      "midi": 69,
      "hit": false,
      "t": 46956.456000000006,
      "d": 883.150937499995,
      "v": 86
    },
    {
      "midi": 67,
      "hit": false,
      "t": 47826.019999999975,
      "d": 715.5787083333344,
      "v": 91
    },
    {
      "midi": 70,
      "hit": false,
      "t": 47826.019999999975,
      "d": 715.5787083333344,
      "v": 91
    },
    {
      "midi": 67,
      "hit": false,
      "t": 47826.020000000004,
      "d": 851.4480833333291,
      "v": 84
    },
    {
      "midi": 70,
      "hit": false,
      "t": 47826.020000000004,
      "d": 855.9770624999946,
      "v": 91
    },
    {
      "midi": 55,
      "hit": false,
      "t": 48695.58399999997,
      "d": 923.9117499999993,
      "v": 65
    },
    {
      "midi": 58,
      "hit": false,
      "t": 48695.58399999997,
      "d": 1032.607250000001,
      "v": 61
    },
    {
      "midi": 51,
      "hit": false,
      "t": 48695.58399999997,
      "d": 1050.7231666666703,
      "v": 62
    },
    {
      "midi": 51,
      "hit": false,
      "t": 48695.583999999995,
      "d": 978.2595000000001,
      "v": 60
    },
    {
      "midi": 46,
      "hit": false,
      "t": 48695.583999999995,
      "d": 1055.2521458333358,
      "v": 61
    },
    {
      "midi": 55,
      "hit": false,
      "t": 48695.583999999995,
      "d": 1105.070916666671,
      "v": 65
    },
    {
      "midi": 52,
      "hit": false,
      "t": 49999.92999999998,
      "d": 95.10856249999779,
      "v": 59
    },
    {
      "midi": 53,
      "hit": false,
      "t": 49999.92999999998,
      "d": 1585.1427083333328,
      "v": 61
    },
    {
      "midi": 50,
      "hit": false,
      "t": 49999.92999999998,
      "d": 1730.070041666666,
      "v": 69
    },
    {
      "midi": 58,
      "hit": false,
      "t": 49999.92999999998,
      "d": 1757.2439166666663,
      "v": 66
    },
    {
      "midi": 50,
      "hit": false,
      "t": 49999.93,
      "d": 1634.9614791666681,
      "v": 80
    },
    {
      "midi": 46,
      "hit": false,
      "t": 49999.93,
      "d": 1644.0194374999992,
      "v": 56
    },
    {
      "midi": 53,
      "hit": false,
      "t": 49999.93,
      "d": 1644.0194374999992,
      "v": 68
    },
    {
      "midi": 50,
      "hit": false,
      "t": 52173.839999999975,
      "d": 951.0856249999997,
      "v": 70
    },
    {
      "midi": 48,
      "hit": false,
      "t": 52173.839999999975,
      "d": 1005.4333750000005,
      "v": 65
    },
    {
      "midi": 54,
      "hit": false,
      "t": 52173.839999999975,
      "d": 1032.607250000001,
      "v": 59
    },
    {
      "midi": 50,
      "hit": false,
      "t": 52173.84,
      "d": 792.5713541666701,
      "v": 64
    },
    {
      "midi": 48,
      "hit": false,
      "t": 52173.84,
      "d": 806.1582916666666,
      "v": 68
    },
    {
      "midi": 54,
      "hit": false,
      "t": 52173.84,
      "d": 810.6872708333321,
      "v": 63
    },
    {
      "midi": 55,
      "hit": false,
      "t": 53478.18599999997,
      "d": 620.4701458333366,
      "v": 65
    },
    {
      "midi": 52,
      "hit": false,
      "t": 53478.18599999997,
      "d": 638.5860625000059,
      "v": 69
    },
    {
      "midi": 48,
      "hit": false,
      "t": 53478.18599999997,
      "d": 661.2309583333408,
      "v": 62
    },
    {
      "midi": 55,
      "hit": false,
      "t": 53478.185999999994,
      "d": 502.7166874999966,
      "v": 69
    },
    {
      "midi": 46,
      "hit": false,
      "t": 53478.185999999994,
      "d": 511.77464583332767,
      "v": 66
    },
    {
      "midi": 50,
      "hit": false,
      "t": 53478.185999999994,
      "d": 529.890562499997,
      "v": 72
    },
    {
      "midi": 54,
      "hit": false,
      "t": 54347.74999999998,
      "d": 756.3395208333313,
      "v": 65
    },
    {
      "midi": 57,
      "hit": false,
      "t": 54347.74999999998,
      "d": 833.332166666667,
      "v": 65
    },
    {
      "midi": 50,
      "hit": false,
      "t": 54347.74999999998,
      "d": 837.8611458333326,
      "v": 66
    },
    {
      "midi": 54,
      "hit": false,
      "t": 54347.74999999999,
      "d": 701.9917708333305,
      "v": 70
    },
    {
      "midi": 50,
      "hit": false,
      "t": 54347.74999999999,
      "d": 747.2815625000003,
      "v": 81
    },
    {
      "midi": 57,
      "hit": false,
      "t": 54347.74999999999,
      "d": 788.0423749999973,
      "v": 71
    },
    {
      "midi": 62,
      "hit": false,
      "t": 55652.095999999976,
      "d": 738.2236041666692,
      "v": 79
    },
    {
      "midi": 67,
      "hit": false,
      "t": 55652.095999999976,
      "d": 760.8685000000041,
      "v": 94
    },
    {
      "midi": 50,
      "hit": false,
      "t": 55652.09599999999,
      "d": 1286.2300833333356,
      "v": 70
    },
    {
      "midi": 55,
      "hit": false,
      "t": 55652.09599999999,
      "d": 1299.8170208333322,
      "v": 70
    },
    {
      "midi": 58,
      "hit": false,
      "t": 55652.09599999999,
      "d": 1413.0414999999994,
      "v": 69
    },
    {
      "midi": 67,
      "hit": false,
      "t": 56521.65999999998,
      "d": 688.404833333334,
      "v": 81
    },
    {
      "midi": 74,
      "hit": false,
      "t": 56521.65999999998,
      "d": 692.9338124999995,
      "v": 79
    },
    {
      "midi": 70,
      "hit": false,
      "t": 56521.65999999998,
      "d": 733.6946249999964,
      "v": 77
    },
    {
      "midi": 62,
      "hit": false,
      "t": 57391.22399999998,
      "d": 561.5934166666702,
      "v": 56
    },
    {
      "midi": 65,
      "hit": false,
      "t": 57391.22399999998,
      "d": 756.3395208333386,
      "v": 78
    },
    {
      "midi": 69,
      "hit": false,
      "t": 57391.22399999998,
      "d": 756.3395208333386,
      "v": 76
    },
    {
      "midi": 53,
      "hit": false,
      "t": 57391.22399999999,
      "d": 1032.607250000001,
      "v": 71
    },
    {
      "midi": 57,
      "hit": false,
      "t": 57391.22399999999,
      "d": 1100.5419374999983,
      "v": 65
    },
    {
      "midi": 65,
      "hit": false,
      "t": 58260.787999999986,
      "d": 579.7093333333323,
      "v": 78
    },
    {
      "midi": 69,
      "hit": false,
      "t": 58260.787999999986,
      "d": 697.462791666665,
      "v": 78
    },
    {
      "midi": 74,
      "hit": false,
      "t": 58260.787999999986,
      "d": 720.1076874999999,
      "v": 70
    },
    {
      "midi": 63,
      "hit": false,
      "t": 59130.351999999984,
      "d": 819.7452291666632,
      "v": 74
    },
    {
      "midi": 67,
      "hit": false,
      "t": 59130.351999999984,
      "d": 824.2742083333287,
      "v": 67
    },
    {
      "midi": 58,
      "hit": false,
      "t": 59130.351999999984,
      "d": 1281.7011041666701,
      "v": 59
    },
    {
      "midi": 55,
      "hit": false,
      "t": 59130.351999999984,
      "d": 1299.8170208333395,
      "v": 64
    },
    {
      "midi": 62,
      "hit": false,
      "t": 59130.351999999984,
      "d": 1326.99089583334,
      "v": 65
    },
    {
      "midi": 51,
      "hit": false,
      "t": 59130.351999999984,
      "d": 1336.048854166671,
      "v": 66
    },
    {
      "midi": 70,
      "hit": false,
      "t": 59999.91599999998,
      "d": 724.6366666666654,
      "v": 73
    },
    {
      "midi": 74,
      "hit": false,
      "t": 59999.91599999998,
      "d": 747.2815625000003,
      "v": 82
    },
    {
      "midi": 67,
      "hit": false,
      "t": 59999.91599999998,
      "d": 756.3395208333313,
      "v": 72
    },
    {
      "midi": 70,
      "hit": false,
      "t": 60869.47999999998,
      "d": 135.86937500000204,
      "v": 65
    },
    {
      "midi": 65,
      "hit": false,
      "t": 60869.47999999998,
      "d": 149.4563124999986,
      "v": 74
    },
    {
      "midi": 75,
      "hit": false,
      "t": 60869.47999999998,
      "d": 158.51427083332965,
      "v": 66
    },
    {
      "midi": 51,
      "hit": false,
      "t": 60869.47999999999,
      "d": 163.04325000000244,
      "v": 54
    },
    {
      "midi": 55,
      "hit": false,
      "t": 60869.47999999999,
      "d": 167.57222916666797,
      "v": 70
    },
    {
      "midi": 58,
      "hit": false,
      "t": 60869.47999999999,
      "d": 167.57222916666797,
      "v": 52
    },
    {
      "midi": 70,
      "hit": false,
      "t": 61304.26199999998,
      "d": 701.9917708333305,
      "v": 77
    },
    {
      "midi": 65,
      "hit": false,
      "t": 61304.26199999998,
      "d": 711.0497291666616,
      "v": 73
    },
    {
      "midi": 75,
      "hit": false,
      "t": 61304.26199999998,
      "d": 760.8684999999969,
      "v": 90
    },
    {
      "midi": 55,
      "hit": false,
      "t": 61304.26199999999,
      "d": 788.0423749999973,
      "v": 81
    },
    {
      "midi": 58,
      "hit": false,
      "t": 61304.26199999999,
      "d": 801.6293124999938,
      "v": 63
    },
    {
      "midi": 51,
      "hit": false,
      "t": 61304.26199999999,
      "d": 819.7452291666632,
      "v": 60
    },
    {
      "midi": 74,
      "hit": false,
      "t": 62173.82599999998,
      "d": 3451.0821249999935,
      "v": 80
    },
    {
      "midi": 70,
      "hit": false,
      "t": 62173.82599999998,
      "d": 3455.6111041666663,
      "v": 65
    },
    {
      "midi": 72,
      "hit": false,
      "t": 62173.82599999998,
      "d": 3455.6111041666663,
      "v": 71
    },
    {
      "midi": 65,
      "hit": false,
      "t": 62173.82599999998,
      "d": 3505.4298749999944,
      "v": 66
    },
    {
      "midi": 46,
      "hit": false,
      "t": 62608.60799999998,
      "d": 978.2595000000001,
      "v": 62
    },
    {
      "midi": 46,
      "hit": false,
      "t": 63912.953999999976,
      "d": 176.630187499999,
      "v": 66
    },
    {
      "midi": 46,
      "hit": false,
      "t": 64347.735999999975,
      "d": 1779.888812499994,
      "v": 65
    },
    {
      "midi": 51,
      "hit": false,
      "t": 66086.86399999997,
      "d": 1132.2447916666715,
      "v": 68
    },
    {
      "midi": 70,
      "hit": false,
      "t": 66956.42799999997,
      "d": 778.9844166666735,
      "v": 73
    },
    {
      "midi": 74,
      "hit": false,
      "t": 66956.42799999997,
      "d": 778.9844166666735,
      "v": 84
    },
    {
      "midi": 67,
      "hit": false,
      "t": 66956.42799999997,
      "d": 783.5133958333463,
      "v": 83
    },
    {
      "midi": 53,
      "hit": false,
      "t": 67825.99199999998,
      "d": 969.2015416666691,
      "v": 71
    },
    {
      "midi": 72,
      "hit": false,
      "t": 68695.55599999998,
      "d": 851.4480833333364,
      "v": 84
    },
    {
      "midi": 69,
      "hit": false,
      "t": 68695.55599999998,
      "d": 860.5060416666674,
      "v": 84
    },
    {
      "midi": 65,
      "hit": false,
      "t": 68695.55599999998,
      "d": 869.5639999999985,
      "v": 79
    },
    {
      "midi": 50,
      "hit": false,
      "t": 69565.11999999998,
      "d": 996.3754166666622,
      "v": 81
    },
    {
      "midi": 74,
      "hit": false,
      "t": 70434.68399999998,
      "d": 955.6146041666652,
      "v": 75
    },
    {
      "midi": 65,
      "hit": false,
      "t": 70434.68399999998,
      "d": 960.143583333338,
      "v": 63
    },
    {
      "midi": 69,
      "hit": false,
      "t": 70434.68399999998,
      "d": 969.2015416666691,
      "v": 70
    },
    {
      "midi": 72,
      "hit": false,
      "t": 70434.68399999998,
      "d": 969.2015416666691,
      "v": 71
    },
    {
      "midi": 50,
      "hit": false,
      "t": 70869.46599999997,
      "d": 163.04325000000244,
      "v": 76
    },
    {
      "midi": 50,
      "hit": false,
      "t": 71304.24799999998,
      "d": 1132.2447916666715,
      "v": 62
    },
    {
      "midi": 72,
      "hit": false,
      "t": 72173.81199999998,
      "d": 865.0350208333402,
      "v": 82
    },
    {
      "midi": 74,
      "hit": false,
      "t": 72173.81199999998,
      "d": 865.0350208333402,
      "v": 79
    },
    {
      "midi": 65,
      "hit": false,
      "t": 72173.81199999998,
      "d": 887.6799166666751,
      "v": 74
    },
    {
      "midi": 69,
      "hit": false,
      "t": 72173.81199999998,
      "d": 887.6799166666751,
      "v": 75
    },
    {
      "midi": 55,
      "hit": false,
      "t": 73043.37599999999,
      "d": 1236.4113125000003,
      "v": 69
    },
    {
      "midi": 43,
      "hit": false,
      "t": 73043.37599999999,
      "d": 1259.0562083333352,
      "v": 63
    },
    {
      "midi": 74,
      "hit": false,
      "t": 73912.93999999999,
      "d": 801.6293125000084,
      "v": 69
    },
    {
      "midi": 70,
      "hit": false,
      "t": 73912.93999999999,
      "d": 815.2162500000122,
      "v": 57
    },
    {
      "midi": 79,
      "hit": false,
      "t": 73912.93999999999,
      "d": 824.2742083333433,
      "v": 68
    },
    {
      "midi": 67,
      "hit": false,
      "t": 73912.93999999999,
      "d": 833.3321666666743,
      "v": 62
    },
    {
      "midi": 41,
      "hit": false,
      "t": 74782.504,
      "d": 896.7378749999916,
      "v": 64
    },
    {
      "midi": 53,
      "hit": false,
      "t": 74782.504,
      "d": 1458.3312916666619,
      "v": 72
    },
    {
      "midi": 74,
      "hit": false,
      "t": 75652.068,
      "d": 874.0929791666713,
      "v": 81
    },
    {
      "midi": 65,
      "hit": false,
      "t": 75652.068,
      "d": 887.6799166666751,
      "v": 82
    },
    {
      "midi": 69,
      "hit": false,
      "t": 75652.068,
      "d": 887.6799166666751,
      "v": 76
    },
    {
      "midi": 77,
      "hit": false,
      "t": 75652.068,
      "d": 901.266854166679,
      "v": 75
    },
    {
      "midi": 51,
      "hit": false,
      "t": 76521.632,
      "d": 1263.585187500008,
      "v": 74
    },
    {
      "midi": 74,
      "hit": false,
      "t": 77391.19600000001,
      "d": 457.42689583332685,
      "v": 83
    },
    {
      "midi": 67,
      "hit": false,
      "t": 77391.19600000001,
      "d": 466.4848541666579,
      "v": 67
    },
    {
      "midi": 70,
      "hit": false,
      "t": 77391.19600000001,
      "d": 498.1877083333238,
      "v": 65
    },
    {
      "midi": 75,
      "hit": false,
      "t": 78260.76,
      "d": 163.04325000000244,
      "v": 74
    },
    {
      "midi": 53,
      "hit": false,
      "t": 78260.76,
      "d": 167.57222916667524,
      "v": 76
    },
    {
      "midi": 70,
      "hit": false,
      "t": 78260.76,
      "d": 167.57222916667524,
      "v": 72
    },
    {
      "midi": 75,
      "hit": false,
      "t": 78695.542,
      "d": 874.0929791666713,
      "v": 74
    },
    {
      "midi": 70,
      "hit": false,
      "t": 78695.542,
      "d": 887.6799166666751,
      "v": 71
    },
    {
      "midi": 53,
      "hit": false,
      "t": 78695.542,
      "d": 928.4407291666721,
      "v": 72
    },
    {
      "midi": 60,
      "hit": false,
      "t": 79999.888,
      "d": 905.7958333333372,
      "v": 74
    },
    {
      "midi": 72,
      "hit": false,
      "t": 79999.888,
      "d": 2581.5181250000023,
      "v": 64
    },
    {
      "midi": 70,
      "hit": false,
      "t": 79999.888,
      "d": 2590.5760833333334,
      "v": 61
    },
    {
      "midi": 74,
      "hit": false,
      "t": 79999.888,
      "d": 2590.5760833333334,
      "v": 72
    },
    {
      "midi": 65,
      "hit": false,
      "t": 79999.888,
      "d": 2617.7499583333265,
      "v": 68
    },
    {
      "midi": 58,
      "hit": false,
      "t": 80869.452,
      "d": 828.8031875000015,
      "v": 70
    },
    {
      "midi": 57,
      "hit": false,
      "t": 81739.016,
      "d": 923.9117499999993,
      "v": 79
    },
    {
      "midi": 58,
      "hit": false,
      "t": 82608.58,
      "d": 896.7378749999916,
      "v": 86
    },
    {
      "midi": 67,
      "hit": false,
      "t": 83478.144,
      "d": 1082.426020833329,
      "v": 70
    },
    {
      "midi": 70,
      "hit": false,
      "t": 83478.144,
      "d": 1114.1288749999949,
      "v": 70
    },
    {
      "midi": 63,
      "hit": false,
      "t": 83478.144,
      "d": 1173.0056041666685,
      "v": 70
    },
    {
      "midi": 74,
      "hit": false,
      "t": 83478.144,
      "d": 1173.0056041666685,
      "v": 73
    },
    {
      "midi": 51,
      "hit": false,
      "t": 83478.144,
      "d": 1761.7728958333319,
      "v": 71
    },
    {
      "midi": 69,
      "hit": false,
      "t": 85217.272,
      "d": 973.7305208333419,
      "v": 67
    },
    {
      "midi": 63,
      "hit": false,
      "t": 85217.272,
      "d": 1046.1941875000048,
      "v": 42
    },
    {
      "midi": 72,
      "hit": false,
      "t": 85217.272,
      "d": 1046.1941875000048,
      "v": 69
    },
    {
      "midi": 53,
      "hit": false,
      "t": 85217.272,
      "d": 1716.4831041666766,
      "v": 66
    },
    {
      "midi": 69,
      "hit": false,
      "t": 86956.40000000001,
      "d": 2608.6919999999955,
      "v": 70
    },
    {
      "midi": 62,
      "hit": false,
      "t": 86956.40000000001,
      "d": 2658.5107708333235,
      "v": 58
    },
    {
      "midi": 65,
      "hit": false,
      "t": 86956.40000000001,
      "d": 2658.5107708333235,
      "v": 59
    },
    {
      "midi": 72,
      "hit": false,
      "t": 86956.40000000001,
      "d": 2699.2715833333205,
      "v": 66
    },
    {
      "midi": 50,
      "hit": false,
      "t": 86956.40000000001,
      "d": 3546.1906874999986,
      "v": 64
    },
    {
      "midi": 62,
      "hit": false,
      "t": 90434.656,
      "d": 1308.8749791666778,
      "v": 65
    },
    {
      "midi": 67,
      "hit": false,
      "t": 90434.656,
      "d": 1326.99089583334,
      "v": 75
    },
    {
      "midi": 70,
      "hit": false,
      "t": 90434.656,
      "d": 1336.048854166671,
      "v": 66
    },
    {
      "midi": 55,
      "hit": false,
      "t": 90434.656,
      "d": 1784.4177916666813,
      "v": 74
    },
    {
      "midi": 69,
      "hit": false,
      "t": 92173.78400000001,
      "d": 1023.5492916666699,
      "v": 67
    },
    {
      "midi": 65,
      "hit": false,
      "t": 92173.78400000001,
      "d": 1037.1362291666737,
      "v": 66
    },
    {
      "midi": 62,
      "hit": false,
      "t": 92173.78400000001,
      "d": 1064.3101041666669,
      "v": 59
    },
    {
      "midi": 53,
      "hit": false,
      "t": 92173.78400000001,
      "d": 1725.5410624999931,
      "v": 64
    },
    {
      "midi": 58,
      "hit": false,
      "t": 93912.91200000001,
      "d": 892.2088958333334,
      "v": 77
    },
    {
      "midi": 67,
      "hit": false,
      "t": 93912.91200000001,
      "d": 3057.060937500006,
      "v": 88
    },
    {
      "midi": 51,
      "hit": false,
      "t": 93912.91200000001,
      "d": 3306.154791666675,
      "v": 67
    },
    {
      "midi": 60,
      "hit": false,
      "t": 94782.47600000001,
      "d": 461.95587499999965,
      "v": 68
    },
    {
      "midi": 62,
      "hit": false,
      "t": 95217.25800000002,
      "d": 552.5354583333246,
      "v": 63
    },
    {
      "midi": 60,
      "hit": false,
      "t": 95652.04000000001,
      "d": 946.5566458333342,
      "v": 61
    },
    {
      "midi": 62,
      "hit": false,
      "t": 96521.604,
      "d": 452.89791666668316,
      "v": 74
    },
    {
      "midi": 63,
      "hit": false,
      "t": 96956.38600000001,
      "d": 344.202416666667,
      "v": 61
    },
    {
      "midi": 55,
      "hit": false,
      "t": 97391.16800000002,
      "d": 837.8611458333326,
      "v": 75
    },
    {
      "midi": 58,
      "hit": false,
      "t": 97391.16800000002,
      "d": 855.9770624999946,
      "v": 66
    },
    {
      "midi": 51,
      "hit": false,
      "t": 97391.16800000002,
      "d": 878.6219583333295,
      "v": 60
    },
    {
      "midi": 39,
      "hit": false,
      "t": 97391.16800000002,
      "d": 996.3754166666622,
      "v": 77
    },
    {
      "midi": 55,
      "hit": false,
      "t": 98695.51400000001,
      "d": 973.7305208333273,
      "v": 78
    },
    {
      "midi": 58,
      "hit": false,
      "t": 98695.51400000001,
      "d": 987.3174583333312,
      "v": 65
    },
    {
      "midi": 51,
      "hit": false,
      "t": 98695.51400000001,
      "d": 991.846437500004,
      "v": 63
    },
    {
      "midi": 39,
      "hit": false,
      "t": 98695.51400000001,
      "d": 2133.149187499992,
      "v": 103
    },
    {
      "midi": 55,
      "hit": false,
      "t": 99999.86000000002,
      "d": 502.7166874999966,
      "v": 83
    },
    {
      "midi": 58,
      "hit": false,
      "t": 99999.86000000002,
      "d": 511.77464583332767,
      "v": 79
    },
    {
      "midi": 63,
      "hit": false,
      "t": 99999.86000000002,
      "d": 520.8326041666587,
      "v": 83
    },
    {
      "midi": 67,
      "hit": false,
      "t": 99999.86000000002,
      "d": 529.8905624999898,
      "v": 82
    },
    {
      "midi": 57,
      "hit": false,
      "t": 100869.424,
      "d": 1426.628437499996,
      "v": 84
    },
    {
      "midi": 60,
      "hit": false,
      "t": 100869.424,
      "d": 1508.1500624999899,
      "v": 87
    },
    {
      "midi": 65,
      "hit": false,
      "t": 100869.424,
      "d": 1621.3745416666497,
      "v": 81
    },
    {
      "midi": 41,
      "hit": false,
      "t": 100869.424,
      "d": 1721.0120833333203,
      "v": 85
    },
    {
      "midi": 55,
      "hit": false,
      "t": 102608.55199999998,
      "d": 806.1582916666666,
      "v": 77
    },
    {
      "midi": 60,
      "hit": false,
      "t": 102608.55199999998,
      "d": 837.8611458333326,
      "v": 81
    },
    {
      "midi": 63,
      "hit": false,
      "t": 102608.55199999998,
      "d": 851.4480833333364,
      "v": 72
    },
    {
      "midi": 43,
      "hit": false,
      "t": 102608.55199999998,
      "d": 946.5566458333342,
      "v": 74
    },
    {
      "midi": 57,
      "hit": false,
      "t": 103478.11599999998,
      "d": 579.7093333333323,
      "v": 90
    },
    {
      "midi": 65,
      "hit": false,
      "t": 103478.11599999998,
      "d": 665.7599374999991,
      "v": 87
    },
    {
      "midi": 60,
      "hit": false,
      "t": 103478.11599999998,
      "d": 692.9338124999922,
      "v": 82
    },
    {
      "midi": 45,
      "hit": false,
      "t": 103478.11599999998,
      "d": 860.5060416666529,
      "v": 90
    },
    {
      "midi": 46,
      "hit": false,
      "t": 104347.67999999996,
      "d": 1816.1206458333327,
      "v": 88
    },
    {
      "midi": 62,
      "hit": false,
      "t": 104347.67999999996,
      "d": 3016.300125000009,
      "v": 81
    },
    {
      "midi": 58,
      "hit": false,
      "t": 104347.67999999996,
      "d": 3115.9376666666794,
      "v": 66
    },
    {
      "midi": 65,
      "hit": false,
      "t": 104347.67999999996,
      "d": 3129.5246041666833,
      "v": 94
    },
    {
      "midi": 48,
      "hit": false,
      "t": 106086.80799999996,
      "d": 874.0929791666713,
      "v": 71
    },
    {
      "midi": 50,
      "hit": false,
      "t": 106956.37199999996,
      "d": 955.6146041666943,
      "v": 92
    },
    {
      "midi": 77,
      "hit": false,
      "t": 107825.93599999999,
      "d": 403.0791458333406,
      "v": 75
    },
    {
      "midi": 67,
      "hit": false,
      "t": 107825.93599999999,
      "d": 407.6081250000134,
      "v": 64
    },
    {
      "midi": 39,
      "hit": false,
      "t": 107825.93599999999,
      "d": 810.6872708333394,
      "v": 82
    },
    {
      "midi": 70,
      "hit": false,
      "t": 107825.93599999999,
      "d": 3251.807041666674,
      "v": 67
    },
    {
      "midi": 67,
      "hit": false,
      "t": 108260.718,
      "d": 2807.9670833333366,
      "v": 93
    },
    {
      "midi": 75,
      "hit": false,
      "t": 108260.718,
      "d": 2821.5540208333405,
      "v": 89
    },
    {
      "midi": 39,
      "hit": false,
      "t": 108695.5,
      "d": 656.701979166668,
      "v": 65
    },
    {
      "midi": 39,
      "hit": false,
      "t": 109565.064,
      "d": 742.7525833333348,
      "v": 72
    },
    {
      "midi": 39,
      "hit": false,
      "t": 110434.628,
      "d": 711.0497291666688,
      "v": 86
    },
    {
      "midi": 70,
      "hit": false,
      "t": 111304.192,
      "d": 2536.2283333333326,
      "v": 76
    },
    {
      "midi": 74,
      "hit": false,
      "t": 111304.192,
      "d": 2540.7573125000054,
      "v": 83
    },
    {
      "midi": 46,
      "hit": false,
      "t": 111304.192,
      "d": 2545.286291666678,
      "v": 79
    },
    {
      "midi": 65,
      "hit": false,
      "t": 111304.192,
      "d": 2549.815270833351,
      "v": 80
    },
    {
      "midi": 65,
      "hit": false,
      "t": 118260.70400000001,
      "d": 733.6946250000037,
      "v": 93
    },
    {
      "midi": 74,
      "hit": false,
      "t": 118260.70400000001,
      "d": 778.9844166666735,
      "v": 106
    },
    {
      "midi": 58,
      "hit": false,
      "t": 118260.70400000001,
      "d": 2998.1842083333468,
      "v": 82
    },
    {
      "midi": 74,
      "hit": false,
      "t": 119130.26800000003,
      "d": 443.83995833333756,
      "v": 97
    },
    {
      "midi": 65,
      "hit": false,
      "t": 119130.26800000003,
      "d": 475.5428125000035,
      "v": 91
    },
    {
      "midi": 75,
      "hit": false,
      "t": 119565.05000000003,
      "d": 466.4848541666579,
      "v": 93
    },
    {
      "midi": 67,
      "hit": false,
      "t": 119565.05000000003,
      "d": 543.4774999999936,
      "v": 78
    },
    {
      "midi": 74,
      "hit": false,
      "t": 119999.83200000002,
      "d": 878.6219583333295,
      "v": 81
    },
    {
      "midi": 65,
      "hit": false,
      "t": 119999.83200000002,
      "d": 910.3248124999955,
      "v": 95
    },
    {
      "midi": 63,
      "hit": false,
      "t": 120869.39600000002,
      "d": 384.96322916666395,
      "v": 80
    },
    {
      "midi": 72,
      "hit": false,
      "t": 120869.39600000002,
      "d": 489.12975000000733,
      "v": 94
    },
    {
      "midi": 62,
      "hit": false,
      "t": 121304.17800000003,
      "d": 434.7820000000065,
      "v": 82
    },
    {
      "midi": 70,
      "hit": false,
      "t": 121304.17800000003,
      "d": 480.0717916666763,
      "v": 83
    },
    {
      "midi": 64,
      "hit": false,
      "t": 121738.96000000004,
      "d": 819.7452291666705,
      "v": 80
    },
    {
      "midi": 58,
      "hit": false,
      "t": 121738.96000000004,
      "d": 2726.4454583333427,
      "v": 84
    },
    {
      "midi": 72,
      "hit": false,
      "t": 121738.96000000004,
      "d": 3514.487833333362,
      "v": 100
    },
    {
      "midi": 60,
      "hit": false,
      "t": 122608.52400000003,
      "d": 448.36893750001036,
      "v": 93
    },
    {
      "midi": 62,
      "hit": false,
      "t": 123043.30600000004,
      "d": 516.3036250000005,
      "v": 93
    },
    {
      "midi": 64,
      "hit": false,
      "t": 123478.08800000005,
      "d": 1304.346000000005,
      "v": 90
    },
    {
      "midi": 65,
      "hit": false,
      "t": 124347.65200000005,
      "d": 480.0717916666763,
      "v": 82
    },
    {
      "midi": 67,
      "hit": false,
      "t": 124782.43400000005,
      "d": 484.6007708333491,
      "v": 81
    },
    {
      "midi": 66,
      "hit": false,
      "t": 125217.21600000006,
      "d": 887.6799166666751,
      "v": 94
    },
    {
      "midi": 58,
      "hit": false,
      "t": 125217.21600000006,
      "d": 3106.879708333334,
      "v": 85
    },
    {
      "midi": 51,
      "hit": false,
      "t": 125217.21600000006,
      "d": 3129.5246041666687,
      "v": 84
    },
    {
      "midi": 63,
      "hit": false,
      "t": 126086.78000000007,
      "d": 652.1729999999952,
      "v": 92
    },
    {
      "midi": 66,
      "hit": false,
      "t": 126521.56200000006,
      "d": 384.96322916666395,
      "v": 94
    },
    {
      "midi": 75,
      "hit": false,
      "t": 126956.34400000006,
      "d": 335.14445833333593,
      "v": 95
    },
    {
      "midi": 66,
      "hit": false,
      "t": 126956.34400000006,
      "d": 357.7893541666708,
      "v": 89
    },
    {
      "midi": 75,
      "hit": false,
      "t": 127391.12600000006,
      "d": 443.83995833333756,
      "v": 94
    },
    {
      "midi": 66,
      "hit": false,
      "t": 127391.12600000006,
      "d": 883.1509375000023,
      "v": 83
    },
    {
      "midi": 74,
      "hit": false,
      "t": 127825.90800000007,
      "d": 489.1297499999928,
      "v": 91
    },
    {
      "midi": 70,
      "hit": false,
      "t": 128260.69000000006,
      "d": 448.36893750001036,
      "v": 90
    },
    {
      "midi": 46,
      "hit": false,
      "t": 128695.47200000007,
      "d": 2943.8364583333314,
      "v": 71
    },
    {
      "midi": 34,
      "hit": false,
      "t": 128695.47200000007,
      "d": 2966.4813541666663,
      "v": 70
    },
    {
      "midi": 41,
      "hit": false,
      "t": 131738.94600000005,
      "d": 498.1877083333384,
      "v": 68
    },
    {
      "midi": 46,
      "hit": false,
      "t": 132173.72800000006,
      "d": 3034.416041666671,
      "v": 64
    },
    {
      "midi": 34,
      "hit": false,
      "t": 132173.72800000006,
      "d": 3052.531958333362,
      "v": 64
    },
    {
      "midi": 41,
      "hit": false,
      "t": 135217.20200000008,
      "d": 493.6587291666656,
      "v": 66
    },
    {
      "midi": 38,
      "hit": false,
      "t": 135651.98400000008,
      "d": 2513.5834374999977,
      "v": 67
    },
    {
      "midi": 50,
      "hit": false,
      "t": 135651.98400000008,
      "d": 2563.4022083333402,
      "v": 59
    },
    {
      "midi": 62,
      "hit": false,
      "t": 139130.24000000008,
      "d": 1793.4757499999832,
      "v": 69
    },
    {
      "midi": 43,
      "hit": false,
      "t": 139130.24000000008,
      "d": 3568.8355833333044,
      "v": 62
    },
    {
      "midi": 57,
      "hit": false,
      "t": 140869.36800000007,
      "d": 475.5428124999744,
      "v": 76
    },
    {
      "midi": 58,
      "hit": false,
      "t": 141304.15000000005,
      "d": 471.0138333333307,
      "v": 91
    },
    {
      "midi": 60,
      "hit": false,
      "t": 141738.93200000006,
      "d": 457.4268958333123,
      "v": 95
    },
    {
      "midi": 62,
      "hit": false,
      "t": 142173.71400000004,
      "d": 443.8399583333521,
      "v": 94
    },
    {
      "midi": 63,
      "hit": false,
      "t": 142608.49600000004,
      "d": 2536.2283333333326,
      "v": 96
    },
    {
      "midi": 36,
      "hit": false,
      "t": 142608.49600000004,
      "d": 2549.815270833322,
      "v": 66
    },
    {
      "midi": 58,
      "hit": false,
      "t": 153043.26400000002,
      "d": 448.3689374999958,
      "v": 71
    },
    {
      "midi": 62,
      "hit": false,
      "t": 153043.26400000002,
      "d": 452.8979166666686,
      "v": 84
    },
    {
      "midi": 70,
      "hit": false,
      "t": 153912.82799999998,
      "d": 792.5713541666628,
      "v": 74
    },
    {
      "midi": 74,
      "hit": false,
      "t": 153912.82799999998,
      "d": 869.5639999999839,
      "v": 84
    },
    {
      "midi": 70,
      "hit": false,
      "t": 153912.82800000004,
      "d": 892.2088958333479,
      "v": 93
    },
    {
      "midi": 74,
      "hit": false,
      "t": 153912.82800000004,
      "d": 964.6725625000254,
      "v": 98
    },
    {
      "midi": 72,
      "hit": false,
      "t": 154782.39199999996,
      "d": 865.0350208333402,
      "v": 85
    },
    {
      "midi": 69,
      "hit": false,
      "t": 154782.39199999996,
      "d": 883.1509375000023,
      "v": 86
    },
    {
      "midi": 69,
      "hit": false,
      "t": 154782.39200000005,
      "d": 942.0276666666905,
      "v": 92
    },
    {
      "midi": 72,
      "hit": false,
      "t": 154782.39200000005,
      "d": 946.5566458333633,
      "v": 91
    },
    {
      "midi": 67,
      "hit": false,
      "t": 155651.95599999998,
      "d": 851.4480833333218,
      "v": 84
    },
    {
      "midi": 70,
      "hit": false,
      "t": 155651.95599999998,
      "d": 855.9770624999946,
      "v": 91
    },
    {
      "midi": 67,
      "hit": false,
      "t": 155651.95600000006,
      "d": 715.5787083333416,
      "v": 91
    },
    {
      "midi": 70,
      "hit": false,
      "t": 155651.95600000006,
      "d": 715.5787083333416,
      "v": 91
    },
    {
      "midi": 55,
      "hit": false,
      "t": 156521.52000000008,
      "d": 923.9117499999993,
      "v": 65
    },
    {
      "midi": 58,
      "hit": false,
      "t": 156521.52000000008,
      "d": 1032.607250000001,
      "v": 61
    },
    {
      "midi": 51,
      "hit": false,
      "t": 156521.52000000008,
      "d": 1050.723166666663,
      "v": 62
    },
    {
      "midi": 52,
      "hit": false,
      "t": 157825.86600000007,
      "d": 95.10856250001234,
      "v": 59
    },
    {
      "midi": 53,
      "hit": false,
      "t": 157825.86600000007,
      "d": 1585.1427083333547,
      "v": 61
    },
    {
      "midi": 50,
      "hit": false,
      "t": 157825.86600000007,
      "d": 1730.0700416666805,
      "v": 69
    },
    {
      "midi": 58,
      "hit": false,
      "t": 157825.86600000007,
      "d": 1757.2439166666882,
      "v": 66
    },
    {
      "midi": 50,
      "hit": false,
      "t": 159999.7760000001,
      "d": 951.085625000007,
      "v": 70
    },
    {
      "midi": 48,
      "hit": false,
      "t": 159999.7760000001,
      "d": 1005.4333749999932,
      "v": 65
    },
    {
      "midi": 54,
      "hit": false,
      "t": 159999.7760000001,
      "d": 1032.607250000001,
      "v": 59
    },
    {
      "midi": 55,
      "hit": false,
      "t": 161304.1220000001,
      "d": 620.4701458333293,
      "v": 65
    },
    {
      "midi": 52,
      "hit": false,
      "t": 161304.1220000001,
      "d": 638.5860624999914,
      "v": 69
    },
    {
      "midi": 48,
      "hit": false,
      "t": 161304.1220000001,
      "d": 661.2309583333263,
      "v": 62
    },
    {
      "midi": 54,
      "hit": false,
      "t": 162173.68600000007,
      "d": 756.3395208333386,
      "v": 65
    },
    {
      "midi": 57,
      "hit": false,
      "t": 162173.68600000007,
      "d": 833.3321666666598,
      "v": 65
    },
    {
      "midi": 50,
      "hit": false,
      "t": 162173.68600000007,
      "d": 837.8611458333326,
      "v": 66
    },
    {
      "midi": 58,
      "hit": false,
      "t": 163478.03200000006,
      "d": 1376.809666666668,
      "v": 57
    },
    {
      "midi": 62,
      "hit": false,
      "t": 163478.03200000006,
      "d": 1399.4545625000028,
      "v": 67
    },
    {
      "midi": 55,
      "hit": false,
      "t": 163478.03200000006,
      "d": 1408.5125208333484,
      "v": 60
    },
    {
      "midi": 67,
      "hit": false,
      "t": 163478.03200000006,
      "d": 1449.2733333333454,
      "v": 57
    },
    {
      "midi": 43,
      "hit": false,
      "t": 163478.03200000006,
      "d": 1807.0626875000307,
      "v": 67
    },
    {
      "midi": 62,
      "hit": false,
      "t": 165217.1600000001,
      "d": 1191.1215208333451,
      "v": 65
    },
    {
      "midi": 58,
      "hit": false,
      "t": 165217.1600000001,
      "d": 1236.411312500015,
      "v": 53
    },
    {
      "midi": 55,
      "hit": false,
      "t": 165217.1600000001,
      "d": 1263.5851875000226,
      "v": 56
    },
    {
      "midi": 65,
      "hit": false,
      "t": 165217.1600000001,
      "d": 1290.7590625000303,
      "v": 57
    },
    {
      "midi": 41,
      "hit": false,
      "t": 165217.1600000001,
      "d": 1793.4757500000123,
      "v": 67
    },
    {
      "midi": 60,
      "hit": false,
      "t": 166956.28800000012,
      "d": 1177.5345833333267,
      "v": 56
    },
    {
      "midi": 55,
      "hit": false,
      "t": 166956.28800000012,
      "d": 1182.0635624999995,
      "v": 67
    },
    {
      "midi": 58,
      "hit": false,
      "t": 166956.28800000012,
      "d": 1191.1215208333451,
      "v": 63
    },
    {
      "midi": 63,
      "hit": false,
      "t": 166956.28800000012,
      "d": 1191.1215208333451,
      "v": 58
    },
    {
      "midi": 39,
      "hit": false,
      "t": 166956.28800000012,
      "d": 1739.128000000026,
      "v": 74
    },
    {
      "midi": 58,
      "hit": false,
      "t": 168695.41600000014,
      "d": 1336.048854166671,
      "v": 53
    },
    {
      "midi": 62,
      "hit": false,
      "t": 168695.41600000014,
      "d": 1340.5778333333437,
      "v": 61
    },
    {
      "midi": 43,
      "hit": false,
      "t": 168695.41600000014,
      "d": 1354.164770833333,
      "v": 61
    },
    {
      "midi": 55,
      "hit": false,
      "t": 169999.76200000013,
      "d": 49.81877083334257,
      "v": 65
    },
    {
      "midi": 52,
      "hit": false,
      "t": 169999.76200000013,
      "d": 3061.5899166666786,
      "v": 64
    },
    {
      "midi": 60,
      "hit": false,
      "t": 169999.76200000013,
      "d": 3066.1188958333514,
      "v": 79
    },
    {
      "midi": 36,
      "hit": false,
      "t": 169999.76200000013,
      "d": 3840.574333333352,
      "v": 76
    },
    {
      "midi": 60,
      "hit": false,
      "t": 170434.54399999997,
      "d": 833.3321666666598,
      "v": 65
    },
    {
      "midi": 52,
      "hit": false,
      "t": 170434.54399999997,
      "d": 837.8611458333326,
      "v": 49
    },
    {
      "midi": 55,
      "hit": false,
      "t": 170434.54399999997,
      "d": 842.3901250000054,
      "v": 71
    },
    {
      "midi": 52,
      "hit": false,
      "t": 171304.10799999998,
      "d": 507.24566666665487,
      "v": 65
    },
    {
      "midi": 55,
      "hit": false,
      "t": 171304.10799999998,
      "d": 543.477499999979,
      "v": 76
    },
    {
      "midi": 60,
      "hit": false,
      "t": 171304.10799999998,
      "d": 543.477499999979,
      "v": 74
    },
    {
      "midi": 55,
      "hit": false,
      "t": 171956.28099999996,
      "d": 104.16652083332883,
      "v": 70
    },
    {
      "midi": 52,
      "hit": false,
      "t": 171956.28099999996,
      "d": 117.75345833331812,
      "v": 65
    },
    {
      "midi": 60,
      "hit": false,
      "t": 171956.28099999996,
      "d": 321.557520833303,
      "v": 65
    },
    {
      "midi": 55,
      "hit": false,
      "t": 172173.67199999993,
      "d": 122.28243749999092,
      "v": 82
    },
    {
      "midi": 52,
      "hit": false,
      "t": 172173.67199999993,
      "d": 140.398354166653,
      "v": 62
    },
    {
      "midi": 55,
      "hit": false,
      "t": 172608.4539999999,
      "d": 874.0929791666567,
      "v": 83
    },
    {
      "midi": 52,
      "hit": false,
      "t": 172608.4539999999,
      "d": 883.1509375000023,
      "v": 60
    },
    {
      "midi": 60,
      "hit": false,
      "t": 172608.4539999999,
      "d": 887.6799166666751,
      "v": 67
    },
    {
      "midi": 60,
      "hit": false,
      "t": 173912.79999999993,
      "d": 1277.1721250000119,
      "v": 76
    },
    {
      "midi": 53,
      "hit": false,
      "t": 173912.79999999993,
      "d": 1295.288041666674,
      "v": 67
    },
    {
      "midi": 57,
      "hit": false,
      "t": 173912.79999999993,
      "d": 1299.8170208333468,
      "v": 77
    },
    {
      "midi": 57,
      "hit": false,
      "t": 173912.80000000016,
      "d": 1082.4260208333435,
      "v": 70
    },
    {
      "midi": 60,
      "hit": false,
      "t": 173912.80000000016,
      "d": 1086.9550000000163,
      "v": 80
    },
    {
      "midi": 53,
      "hit": false,
      "t": 173912.80000000016,
      "d": 1096.012958333362,
      "v": 64
    },
    {
      "midi": 64,
      "hit": false,
      "t": 173912.80000000016,
      "d": 1136.7737708333589,
      "v": 65
    },
    {
      "midi": 41,
      "hit": false,
      "t": 173912.80000000016,
      "d": 1784.4177916666958,
      "v": 74
    },
    {
      "midi": 62,
      "hit": false,
      "t": 175651.92799999996,
      "d": 1091.48397916666,
      "v": 60
    },
    {
      "midi": 59,
      "hit": false,
      "t": 175651.92799999996,
      "d": 1100.5419375000056,
      "v": 67
    },
    {
      "midi": 53,
      "hit": false,
      "t": 175651.92799999996,
      "d": 1114.1288749999949,
      "v": 62
    },
    {
      "midi": 55,
      "hit": false,
      "t": 175651.92799999996,
      "d": 1127.7158124999842,
      "v": 77
    },
    {
      "midi": 59,
      "hit": false,
      "t": 175651.9280000002,
      "d": 1091.48397916666,
      "v": 77
    },
    {
      "midi": 53,
      "hit": false,
      "t": 175651.9280000002,
      "d": 1096.0129583333328,
      "v": 77
    },
    {
      "midi": 55,
      "hit": false,
      "t": 175651.9280000002,
      "d": 1096.0129583333328,
      "v": 78
    },
    {
      "midi": 43,
      "hit": false,
      "t": 175651.9280000002,
      "d": 1100.5419375000056,
      "v": 80
    },
    {
      "midi": 62,
      "hit": false,
      "t": 175651.9280000002,
      "d": 1105.0709166666784,
      "v": 75
    },
    {
      "midi": 55,
      "hit": false,
      "t": 177391.05599999995,
      "d": 2219.1997916666733,
      "v": 79
    },
    {
      "midi": 59,
      "hit": false,
      "t": 177391.05599999995,
      "d": 2219.1997916666733,
      "v": 68
    },
    {
      "midi": 52,
      "hit": false,
      "t": 177391.05599999995,
      "d": 2228.257750000019,
      "v": 69
    },
    {
      "midi": 62,
      "hit": false,
      "t": 177391.05599999995,
      "d": 2241.844687500008,
      "v": 70
    },
    {
      "midi": 67,
      "hit": false,
      "t": 177391.05600000022,
      "d": 905.7958333333372,
      "v": 87
    },
    {
      "midi": 59,
      "hit": false,
      "t": 177391.05600000022,
      "d": 928.4407291666721,
      "v": 92
    },
    {
      "midi": 64,
      "hit": false,
      "t": 177391.05600000022,
      "d": 946.5566458333342,
      "v": 92
    },
    {
      "midi": 79,
      "hit": false,
      "t": 178043.22900000022,
      "d": 99.63754166665603,
      "v": 103
    },
    {
      "midi": 76,
      "hit": false,
      "t": 178043.22900000022,
      "d": 104.16652083332883,
      "v": 97
    },
    {
      "midi": 83,
      "hit": false,
      "t": 178043.22900000022,
      "d": 108.69550000000163,
      "v": 110
    },
    {
      "midi": 79,
      "hit": false,
      "t": 178260.62000000023,
      "d": 602.3542291666672,
      "v": 110
    },
    {
      "midi": 83,
      "hit": false,
      "t": 178260.62000000023,
      "d": 615.9411666666565,
      "v": 103
    },
    {
      "midi": 76,
      "hit": false,
      "t": 178260.62000000023,
      "d": 629.5281041666458,
      "v": 99
    },
    {
      "midi": 64,
      "hit": false,
      "t": 178912.7930000002,
      "d": 113.22447916667443,
      "v": 86
    },
    {
      "midi": 55,
      "hit": false,
      "t": 178912.7930000002,
      "d": 131.34039583333652,
      "v": 77
    },
    {
      "midi": 59,
      "hit": false,
      "t": 178912.7930000002,
      "d": 131.34039583333652,
      "v": 83
    },
    {
      "midi": 55,
      "hit": false,
      "t": 179130.1840000002,
      "d": 1096.0129583333328,
      "v": 85
    },
    {
      "midi": 59,
      "hit": false,
      "t": 179130.1840000002,
      "d": 1096.0129583333328,
      "v": 99
    },
    {
      "midi": 64,
      "hit": false,
      "t": 179130.1840000002,
      "d": 1100.5419375000056,
      "v": 93
    },
    {
      "midi": 52,
      "hit": false,
      "t": 180869.31199999995,
      "d": 1431.1574166666542,
      "v": 72
    },
    {
      "midi": 57,
      "hit": false,
      "t": 180869.31199999995,
      "d": 1444.7443541666435,
      "v": 76
    },
    {
      "midi": 60,
      "hit": false,
      "t": 180869.31199999995,
      "d": 1449.2733333333163,
      "v": 70
    },
    {
      "midi": 45,
      "hit": false,
      "t": 180869.3120000002,
      "d": 1014.4913333333388,
      "v": 85
    },
    {
      "midi": 64,
      "hit": false,
      "t": 180869.3120000002,
      "d": 1721.012083333364,
      "v": 67
    },
    {
      "midi": 69,
      "hit": false,
      "t": 180869.3120000002,
      "d": 1725.5410625000368,
      "v": 74
    },
    {
      "midi": 72,
      "hit": false,
      "t": 180869.3120000002,
      "d": 1788.9467708333686,
      "v": 74
    },
    {
      "midi": 45,
      "hit": false,
      "t": 182173.65800000023,
      "d": 498.1877083333384,
      "v": 81
    },
    {
      "midi": 55,
      "hit": false,
      "t": 182608.43999999994,
      "d": 1254.527229166677,
      "v": 82
    },
    {
      "midi": 52,
      "hit": false,
      "t": 182608.43999999994,
      "d": 1277.1721250000119,
      "v": 68
    },
    {
      "midi": 59,
      "hit": false,
      "t": 182608.43999999994,
      "d": 1290.7590625000012,
      "v": 71
    },
    {
      "midi": 43,
      "hit": false,
      "t": 182608.44000000024,
      "d": 969.2015416666691,
      "v": 82
    },
    {
      "midi": 67,
      "hit": false,
      "t": 182608.44000000024,
      "d": 1304.3459999999905,
      "v": 87
    },
    {
      "midi": 64,
      "hit": false,
      "t": 182608.44000000024,
      "d": 1399.4545625000028,
      "v": 83
    },
    {
      "midi": 71,
      "hit": false,
      "t": 182608.44000000024,
      "d": 1761.7728958333319,
      "v": 75
    },
    {
      "midi": 43,
      "hit": false,
      "t": 183912.78600000023,
      "d": 507.245666666684,
      "v": 90
    },
    {
      "midi": 53,
      "hit": false,
      "t": 184347.56799999994,
      "d": 2952.894416666677,
      "v": 66
    },
    {
      "midi": 57,
      "hit": false,
      "t": 184347.56799999994,
      "d": 2961.9523750000226,
      "v": 71
    },
    {
      "midi": 48,
      "hit": false,
      "t": 184347.56799999994,
      "d": 2975.539312500012,
      "v": 56
    },
    {
      "midi": 41,
      "hit": false,
      "t": 184347.56800000023,
      "d": 928.4407291666721,
      "v": 88
    },
    {
      "midi": 69,
      "hit": false,
      "t": 184347.56800000023,
      "d": 3274.451937500009,
      "v": 68
    },
    {
      "midi": 60,
      "hit": false,
      "t": 184347.56800000023,
      "d": 3278.980916666682,
      "v": 61
    },
    {
      "midi": 65,
      "hit": false,
      "t": 184347.56800000023,
      "d": 3278.980916666682,
      "v": 77
    },
    {
      "midi": 41,
      "hit": false,
      "t": 185651.91400000025,
      "d": 212.86202083333046,
      "v": 78
    },
    {
      "midi": 41,
      "hit": false,
      "t": 186086.69600000026,
      "d": 937.4986874999886,
      "v": 98
    },
    {
      "midi": 41,
      "hit": false,
      "t": 187391.04200000025,
      "d": 258.15181250000023,
      "v": 81
    },
    {
      "midi": 41,
      "hit": false,
      "t": 187825.82400000026,
      "d": 389.49220833333675,
      "v": 87
    },
    {
      "midi": 36,
      "hit": false,
      "t": 188260.60600000026,
      "d": 230.97793749999255,
      "v": 90
    },
    {
      "midi": 38,
      "hit": false,
      "t": 188477.99700000026,
      "d": 172.1012083333335,
      "v": 65
    },
    {
      "midi": 69,
      "hit": false,
      "t": 188695.38800000027,
      "d": 203.80406250001397,
      "v": 85
    },
    {
      "midi": 41,
      "hit": false,
      "t": 188695.38800000027,
      "d": 208.33304166668677,
      "v": 117
    },
    {
      "midi": 65,
      "hit": false,
      "t": 188695.38800000027,
      "d": 208.33304166668677,
      "v": 76
    },
    {
      "midi": 72,
      "hit": false,
      "t": 188695.38800000027,
      "d": 230.97793750002165,
      "v": 80
    },
    {
      "midi": 41,
      "hit": false,
      "t": 189130.1700000003,
      "d": 837.8611458333326,
      "v": 98
    },
    {
      "midi": 36,
      "hit": false,
      "t": 189999.73400000032,
      "d": 212.86202083333046,
      "v": 104
    },
    {
      "midi": 38,
      "hit": false,
      "t": 190217.12500000032,
      "d": 149.4563124999986,
      "v": 80
    },
    {
      "midi": 65,
      "hit": false,
      "t": 190434.51600000032,
      "d": 276.2677291666623,
      "v": 75
    },
    {
      "midi": 41,
      "hit": false,
      "t": 190434.51600000032,
      "d": 280.7967083333351,
      "v": 119
    },
    {
      "midi": 69,
      "hit": false,
      "t": 190434.51600000032,
      "d": 289.8546666666807,
      "v": 85
    },
    {
      "midi": 72,
      "hit": false,
      "t": 190434.51600000032,
      "d": 294.3836458333535,
      "v": 83
    },
    {
      "midi": 41,
      "hit": false,
      "t": 190869.29800000033,
      "d": 230.97793749999255,
      "v": 117
    },
    {
      "midi": 67,
      "hit": false,
      "t": 192173.64400000032,
      "d": 788.04237499999,
      "v": 84
    },
    {
      "midi": 71,
      "hit": false,
      "t": 192173.64400000032,
      "d": 788.04237499999,
      "v": 88
    },
    {
      "midi": 67,
      "hit": false,
      "t": 193912.77200000032,
      "d": 312.4995624999865,
      "v": 88
    },
    {
      "midi": 74,
      "hit": false,
      "t": 193912.77200000032,
      "d": 326.0864999999758,
      "v": 86
    },
    {
      "midi": 71,
      "hit": false,
      "t": 193912.77200000032,
      "d": 330.6154791666486,
      "v": 92
    },
    {
      "midi": 67,
      "hit": false,
      "t": 195651.90000000029,
      "d": 294.3836458333244,
      "v": 97
    },
    {
      "midi": 72,
      "hit": false,
      "t": 195651.90000000029,
      "d": 303.44160416667,
      "v": 89
    },
    {
      "midi": 76,
      "hit": false,
      "t": 195651.90000000029,
      "d": 312.4995625000156,
      "v": 86
    },
    {
      "midi": 70,
      "hit": false,
      "t": 197391.0280000003,
      "d": 285.3256875000079,
      "v": 78
    },
    {
      "midi": 67,
      "hit": false,
      "t": 197391.0280000003,
      "d": 303.44160416667,
      "v": 104
    },
    {
      "midi": 72,
      "hit": false,
      "t": 197391.0280000003,
      "d": 303.44160416667,
      "v": 86
    },
    {
      "midi": 76,
      "hit": false,
      "t": 197391.0280000003,
      "d": 317.0285416666593,
      "v": 98
    },
    {
      "midi": 41,
      "hit": false,
      "t": 198260.5920000003,
      "d": 991.846437500004,
      "v": 82
    },
    {
      "midi": 57,
      "hit": false,
      "t": 198260.5920000003,
      "d": 1096.0129583333328,
      "v": 88
    },
    {
      "midi": 60,
      "hit": false,
      "t": 198260.5920000003,
      "d": 1114.1288749999949,
      "v": 81
    },
    {
      "midi": 67,
      "hit": false,
      "t": 198260.5920000003,
      "d": 1118.6578541666677,
      "v": 66
    },
    {
      "midi": 41,
      "hit": false,
      "t": 199564.9380000003,
      "d": 1997.2798124999972,
      "v": 78
    },
    {
      "midi": 60,
      "hit": false,
      "t": 199564.9380000003,
      "d": 2001.80879166667,
      "v": 98
    },
    {
      "midi": 65,
      "hit": false,
      "t": 199564.9380000003,
      "d": 2001.80879166667,
      "v": 81
    },
    {
      "midi": 57,
      "hit": false,
      "t": 199564.9380000003,
      "d": 2006.3377708333428,
      "v": 92
    },
    {
      "midi": 36,
      "hit": false,
      "t": 201738.8480000003,
      "d": 389.49220833333675,
      "v": 93
    },
    {
      "midi": 48,
      "hit": false,
      "t": 201738.8480000003,
      "d": 887.6799166666751,
      "v": 86
    },
    {
      "midi": 55,
      "hit": false,
      "t": 202608.4120000003,
      "d": 217.39100000000326,
      "v": 82
    },
    {
      "midi": 59,
      "hit": false,
      "t": 202608.4120000003,
      "d": 230.97793749999255,
      "v": 78
    },
    {
      "midi": 64,
      "hit": false,
      "t": 202608.4120000003,
      "d": 249.09385416665464,
      "v": 71
    },
    {
      "midi": 47,
      "hit": false,
      "t": 202608.4120000003,
      "d": 887.679916666646,
      "v": 85
    },
    {
      "midi": 45,
      "hit": false,
      "t": 203477.9760000003,
      "d": 887.679916666646,
      "v": 83
    },
    {
      "midi": 55,
      "hit": false,
      "t": 204347.54000000027,
      "d": 172.1012083333335,
      "v": 75
    },
    {
      "midi": 64,
      "hit": false,
      "t": 204347.54000000027,
      "d": 208.33304166665766,
      "v": 71
    },
    {
      "midi": 60,
      "hit": false,
      "t": 204347.54000000027,
      "d": 212.86202083333046,
      "v": 89
    },
    {
      "midi": 47,
      "hit": false,
      "t": 204347.54000000027,
      "d": 434.7820000000065,
      "v": 88
    },
    {
      "midi": 48,
      "hit": false,
      "t": 204782.32200000028,
      "d": 475.5428125000035,
      "v": 84
    },
    {
      "midi": 43,
      "hit": false,
      "t": 205217.10400000028,
      "d": 869.5639999999839,
      "v": 84
    },
    {
      "midi": 55,
      "hit": false,
      "t": 206086.66800000027,
      "d": 425.7240416666609,
      "v": 77
    },
    {
      "midi": 43,
      "hit": false,
      "t": 206521.45000000027,
      "d": 330.6154791666777,
      "v": 69
    },
    {
      "midi": 43,
      "hit": false,
      "t": 206956.23200000028,
      "d": 1730.0700416666805,
      "v": 81
    },
    {
      "midi": 45,
      "hit": false,
      "t": 208695.3600000003,
      "d": 1503.6210833333316,
      "v": 92
    },
    {
      "midi": 64,
      "hit": false,
      "t": 209564.92400000032,
      "d": 217.39100000000326,
      "v": 83
    },
    {
      "midi": 69,
      "hit": false,
      "t": 209564.92400000032,
      "d": 230.97793749999255,
      "v": 74
    },
    {
      "midi": 72,
      "hit": false,
      "t": 209564.92400000032,
      "d": 249.09385416665464,
      "v": 80
    },
    {
      "midi": 45,
      "hit": false,
      "t": 210434.4880000003,
      "d": 1680.251270833338,
      "v": 90
    },
    {
      "midi": 64,
      "hit": false,
      "t": 211304.05200000032,
      "d": 221.91997916667606,
      "v": 89
    },
    {
      "midi": 69,
      "hit": false,
      "t": 211304.05200000032,
      "d": 226.44895833334886,
      "v": 97
    },
    {
      "midi": 72,
      "hit": false,
      "t": 211304.05200000032,
      "d": 280.7967083333351,
      "v": 92
    },
    {
      "midi": 40,
      "hit": false,
      "t": 212173.6160000003,
      "d": 887.6799166666751,
      "v": 87
    },
    {
      "midi": 64,
      "hit": false,
      "t": 213043.1800000003,
      "d": 226.44895833331975,
      "v": 81
    },
    {
      "midi": 67,
      "hit": false,
      "t": 213043.1800000003,
      "d": 235.50691666666535,
      "v": 85
    },
    {
      "midi": 71,
      "hit": false,
      "t": 213043.1800000003,
      "d": 249.09385416665464,
      "v": 79
    },
    {
      "midi": 52,
      "hit": false,
      "t": 213043.1800000003,
      "d": 425.7240416666609,
      "v": 86
    },
    {
      "midi": 40,
      "hit": false,
      "t": 213477.96200000032,
      "d": 267.20977083334583,
      "v": 93
    },
    {
      "midi": 40,
      "hit": false,
      "t": 213912.74400000033,
      "d": 240.03589583333815,
      "v": 77
    },
    {
      "midi": 40,
      "hit": false,
      "t": 214347.52600000033,
      "d": 412.13710416667163,
      "v": 86
    },
    {
      "midi": 64,
      "hit": false,
      "t": 214782.30800000034,
      "d": 203.80406250001397,
      "v": 97
    },
    {
      "midi": 67,
      "hit": false,
      "t": 214782.30800000034,
      "d": 217.39100000000326,
      "v": 94
    },
    {
      "midi": 71,
      "hit": false,
      "t": 214782.30800000034,
      "d": 226.44895833334886,
      "v": 86
    },
    {
      "midi": 52,
      "hit": false,
      "t": 214782.30800000034,
      "d": 416.66608333334443,
      "v": 108
    },
    {
      "midi": 40,
      "hit": false,
      "t": 215217.09000000035,
      "d": 366.84731250000186,
      "v": 119
    },
    {
      "midi": 38,
      "hit": false,
      "t": 215651.87200000035,
      "d": 484.60077083332,
      "v": 112
    },
    {
      "midi": 40,
      "hit": false,
      "t": 216231.58133333368,
      "d": 407.60812499999884,
      "v": 119
    },
    {
      "midi": 41,
      "hit": false,
      "t": 216811.29066666702,
      "d": 475.5428125000035,
      "v": 106
    },
    {
      "midi": 42,
      "hit": false,
      "t": 217391.00000000035,
      "d": 588.7672916666779,
      "v": 108
    },
    {
      "midi": 38,
      "hit": false,
      "t": 217970.70933333368,
      "d": 516.3036250000005,
      "v": 114
    },
    {
      "midi": 42,
      "hit": false,
      "t": 218550.418666667,
      "d": 421.1950624999881,
      "v": 117
    },
    {
      "midi": 43,
      "hit": false,
      "t": 219130.12800000035,
      "d": 783.5133958333463,
      "v": 101
    },
    {
      "midi": 43,
      "hit": false,
      "t": 219999.69200000036,
      "d": 153.9852916666714,
      "v": 98
    },
    {
      "midi": 43,
      "hit": false,
      "t": 220434.47400000037,
      "d": 1517.208020833321,
      "v": 112
    },
    {
      "midi": 48,
      "hit": false,
      "t": 222608.38400000034,
      "d": 1245.4692708333314,
      "v": 110
    },
    {
      "midi": 36,
      "hit": false,
      "t": 222608.38400000034,
      "d": 1263.5851874999935,
      "v": 92
    },
    {
      "midi": 43,
      "hit": false,
      "t": 223912.73000000033,
      "d": 398.55016666665324,
      "v": 99
    },
    {
      "midi": 36,
      "hit": false,
      "t": 224347.5120000003,
      "d": 380.43424999999115,
      "v": 92
    },
    {
      "midi": 48,
      "hit": false,
      "t": 224347.5120000003,
      "d": 403.07914583332604,
      "v": 89
    },
    {
      "midi": 43,
      "hit": false,
      "t": 224782.29400000031,
      "d": 439.3109791666793,
      "v": 87
    },
    {
      "midi": 48,
      "hit": false,
      "t": 225217.07600000032,
      "d": 407.60812499999884,
      "v": 104
    },
    {
      "midi": 36,
      "hit": false,
      "t": 225217.07600000032,
      "d": 412.13710416667163,
      "v": 99
    },
    {
      "midi": 43,
      "hit": false,
      "t": 225651.85800000033,
      "d": 448.3689374999958,
      "v": 97
    },
    {
      "midi": 36,
      "hit": false,
      "t": 226086.64000000033,
      "d": 3478.255999999994,
      "v": 95
    },
    {
      "midi": 48,
      "hit": false,
      "t": 226086.64000000033,
      "d": 3478.255999999994,
      "v": 110
    }
  ]
}