{
  "jsonPath": "Rock/Soft Rock/Barry Manilow/this-ones-for-you.json",
  "path": "Rock\\Soft Rock\\Barry Manilow\\This Ones For You.mid",
  "name": "This Ones For You",
  "difficulty": "Advanced",
  "bpm": 65.00013541694878,
  "notes": [
    {
      "midi": 60,
      "hit": false,
      "t": 7384.6,
      "d": 738.46,
      "v": 92
    },
    {
      "midi": 64,
      "hit": false,
      "t": 7384.6,
      "d": 738.46,
      "v": 94
    },
    {
      "midi": 45,
      "hit": false,
      "t": 7384.6,
      "d": 1476.92,
      "v": 90
    },
    {
      "midi": 67,
      "hit": false,
      "t": 8307.675000000001,
      "d": 184.61499999999978,
      "v": 90
    },
    {
      "midi": 71,
      "hit": false,
      "t": 8307.675000000001,
      "d": 184.61499999999978,
      "v": 78
    },
    {
      "midi": 66,
      "hit": false,
      "t": 8538.44375,
      "d": 184.61499999999978,
      "v": 94
    },
    {
      "midi": 69,
      "hit": false,
      "t": 8538.44375,
      "d": 184.61499999999978,
      "v": 87
    },
    {
      "midi": 67,
      "hit": false,
      "t": 8769.2125,
      "d": 184.61499999999978,
      "v": 86
    },
    {
      "midi": 71,
      "hit": false,
      "t": 8769.2125,
      "d": 184.61499999999978,
      "v": 90
    },
    {
      "midi": 66,
      "hit": false,
      "t": 8999.981249999999,
      "d": 369.22999999999956,
      "v": 96
    },
    {
      "midi": 69,
      "hit": false,
      "t": 8999.981249999999,
      "d": 369.22999999999956,
      "v": 90
    },
    {
      "midi": 45,
      "hit": false,
      "t": 9230.75,
      "d": 1476.92,
      "v": 77
    },
    {
      "midi": 64,
      "hit": false,
      "t": 9461.51875,
      "d": 369.22999999999956,
      "v": 79
    },
    {
      "midi": 67,
      "hit": false,
      "t": 9461.51875,
      "d": 369.22999999999956,
      "v": 83
    },
    {
      "midi": 59,
      "hit": false,
      "t": 9923.05625,
      "d": 184.61499999999978,
      "v": 78
    },
    {
      "midi": 62,
      "hit": false,
      "t": 9923.05625,
      "d": 184.61499999999978,
      "v": 90
    },
    {
      "midi": 60,
      "hit": false,
      "t": 10153.824999999999,
      "d": 369.22999999999956,
      "v": 99
    },
    {
      "midi": 64,
      "hit": false,
      "t": 10153.824999999999,
      "d": 369.22999999999956,
      "v": 80
    },
    {
      "midi": 62,
      "hit": false,
      "t": 10615.3625,
      "d": 369.22999999999956,
      "v": 90
    },
    {
      "midi": 66,
      "hit": false,
      "t": 10615.3625,
      "d": 369.22999999999956,
      "v": 91
    },
    {
      "midi": 59,
      "hit": false,
      "t": 11076.9,
      "d": 1476.92,
      "v": 85
    },
    {
      "midi": 62,
      "hit": false,
      "t": 11076.9,
      "d": 1476.92,
      "v": 90
    },
    {
      "midi": 40,
      "hit": false,
      "t": 11076.9,
      "d": 1476.92,
      "v": 85
    },
    {
      "midi": 55,
      "hit": false,
      "t": 11076.9,
      "d": 1476.92,
      "v": 76
    },
    {
      "midi": 59,
      "hit": false,
      "t": 12923.05,
      "d": 738.4599999999991,
      "v": 95
    },
    {
      "midi": 62,
      "hit": false,
      "t": 12923.05,
      "d": 738.4599999999991,
      "v": 87
    },
    {
      "midi": 45,
      "hit": false,
      "t": 12923.05,
      "d": 1476.92,
      "v": 82
    },
    {
      "midi": 55,
      "hit": false,
      "t": 12923.05,
      "d": 1476.92,
      "v": 92
    },
    {
      "midi": 59,
      "hit": false,
      "t": 13846.124999999998,
      "d": 738.460000000001,
      "v": 93
    },
    {
      "midi": 61,
      "hit": false,
      "t": 13846.124999999998,
      "d": 738.460000000001,
      "v": 99
    },
    {
      "midi": 59,
      "hit": false,
      "t": 14769.199999999999,
      "d": 369.22999999999956,
      "v": 96
    },
    {
      "midi": 64,
      "hit": false,
      "t": 14769.199999999999,
      "d": 369.22999999999956,
      "v": 90
    },
    {
      "midi": 66,
      "hit": false,
      "t": 14769.199999999999,
      "d": 369.22999999999956,
      "v": 97
    },
    {
      "midi": 42,
      "hit": false,
      "t": 14769.199999999999,
      "d": 1476.92,
      "v": 90
    },
    {
      "midi": 58,
      "hit": false,
      "t": 15461.506249999999,
      "d": 653.8447916666664,
      "v": 93
    },
    {
      "midi": 64,
      "hit": false,
      "t": 15461.506249999999,
      "d": 653.8447916666664,
      "v": 99
    },
    {
      "midi": 66,
      "hit": false,
      "t": 15461.506249999999,
      "d": 653.8447916666664,
      "v": 81
    },
    {
      "midi": 47,
      "hit": false,
      "t": 16615.35,
      "d": 1292.3050000000003,
      "v": 91
    },
    {
      "midi": 54,
      "hit": false,
      "t": 16615.35,
      "d": 1292.3050000000003,
      "v": 76
    },
    {
      "midi": 57,
      "hit": false,
      "t": 17076.887499999997,
      "d": 184.6150000000016,
      "v": 90
    },
    {
      "midi": 62,
      "hit": false,
      "t": 17307.65625,
      "d": 184.6150000000016,
      "v": 105
    },
    {
      "midi": 69,
      "hit": false,
      "t": 17538.425000000003,
      "d": 369.22999999999956,
      "v": 81
    },
    {
      "midi": 66,
      "hit": false,
      "t": 17999.9625,
      "d": 369.22999999999956,
      "v": 76
    },
    {
      "midi": 47,
      "hit": false,
      "t": 18230.731249999997,
      "d": 184.6150000000016,
      "v": 89
    },
    {
      "midi": 59,
      "hit": false,
      "t": 18461.5,
      "d": 1476.9199999999983,
      "v": 86
    },
    {
      "midi": 40,
      "hit": false,
      "t": 18461.5,
      "d": 1476.9199999999983,
      "v": 88
    },
    {
      "midi": 55,
      "hit": false,
      "t": 18461.5,
      "d": 1476.9199999999983,
      "v": 77
    },
    {
      "midi": 59,
      "hit": false,
      "t": 20307.649999999998,
      "d": 738.4599999999991,
      "v": 90
    },
    {
      "midi": 62,
      "hit": false,
      "t": 20307.649999999998,
      "d": 738.4599999999991,
      "v": 103
    },
    {
      "midi": 45,
      "hit": false,
      "t": 20307.649999999998,
      "d": 1476.920000000002,
      "v": 93
    },
    {
      "midi": 55,
      "hit": false,
      "t": 20307.649999999998,
      "d": 1476.920000000002,
      "v": 89
    },
    {
      "midi": 59,
      "hit": false,
      "t": 21230.725,
      "d": 738.4599999999991,
      "v": 100
    },
    {
      "midi": 61,
      "hit": false,
      "t": 21230.725,
      "d": 738.4599999999991,
      "v": 91
    },
    {
      "midi": 64,
      "hit": false,
      "t": 22153.8,
      "d": 1476.920000000002,
      "v": 85
    },
    {
      "midi": 54,
      "hit": false,
      "t": 22153.8,
      "d": 738.4599999999991,
      "v": 94
    },
    {
      "midi": 59,
      "hit": false,
      "t": 22153.8,
      "d": 738.4599999999991,
      "v": 90
    },
    {
      "midi": 54,
      "hit": false,
      "t": 23076.875,
      "d": 738.4599999999991,
      "v": 90
    },
    {
      "midi": 58,
      "hit": false,
      "t": 23076.875,
      "d": 738.4599999999991,
      "v": 88
    },
    {
      "midi": 62,
      "hit": false,
      "t": 23999.95,
      "d": 738.4599999999991,
      "v": 103
    },
    {
      "midi": 66,
      "hit": false,
      "t": 23999.95,
      "d": 738.4599999999991,
      "v": 84
    },
    {
      "midi": 47,
      "hit": false,
      "t": 23999.95,
      "d": 738.4599999999991,
      "v": 83
    },
    {
      "midi": 57,
      "hit": false,
      "t": 23999.95,
      "d": 738.4599999999991,
      "v": 102
    },
    {
      "midi": 60,
      "hit": false,
      "t": 24923.025,
      "d": 423.07604166666715,
      "v": 89
    },
    {
      "midi": 64,
      "hit": false,
      "t": 24923.025,
      "d": 423.07604166666715,
      "v": 88
    },
    {
      "midi": 47,
      "hit": false,
      "t": 24923.025,
      "d": 738.4599999999991,
      "v": 89
    },
    {
      "midi": 55,
      "hit": false,
      "t": 24923.025,
      "d": 738.4599999999991,
      "v": 101
    },
    {
      "midi": 62,
      "hit": false,
      "t": 25846.100000000002,
      "d": 1476.920000000002,
      "v": 90
    },
    {
      "midi": 45,
      "hit": false,
      "t": 25846.100000000002,
      "d": 184.6150000000016,
      "v": 96
    },
    {
      "midi": 50,
      "hit": false,
      "t": 26076.868750000005,
      "d": 184.6150000000016,
      "v": 100
    },
    {
      "midi": 59,
      "hit": false,
      "t": 26307.637500000008,
      "d": 369.22999999999956,
      "v": 89
    },
    {
      "midi": 50,
      "hit": false,
      "t": 26769.175000000007,
      "d": 369.22999999999956,
      "v": 89
    },
    {
      "midi": 43,
      "hit": false,
      "t": 27230.712500000005,
      "d": 369.22999999999956,
      "v": 89
    },
    {
      "midi": 62,
      "hit": false,
      "t": 27692.250000000004,
      "d": 738.4599999999991,
      "v": 89
    },
    {
      "midi": 45,
      "hit": false,
      "t": 27692.250000000004,
      "d": 1476.920000000002,
      "v": 82
    },
    {
      "midi": 55,
      "hit": false,
      "t": 27692.250000000004,
      "d": 1476.920000000002,
      "v": 87
    },
    {
      "midi": 61,
      "hit": false,
      "t": 28615.325000000004,
      "d": 423.07604166666715,
      "v": 95
    },
    {
      "midi": 64,
      "hit": false,
      "t": 29538.400000000005,
      "d": 1476.920000000002,
      "v": 90
    },
    {
      "midi": 54,
      "hit": false,
      "t": 29538.400000000005,
      "d": 738.4599999999991,
      "v": 100
    },
    {
      "midi": 59,
      "hit": false,
      "t": 29538.400000000005,
      "d": 738.4599999999991,
      "v": 102
    },
    {
      "midi": 54,
      "hit": false,
      "t": 30461.475000000006,
      "d": 738.4599999999991,
      "v": 77
    },
    {
      "midi": 58,
      "hit": false,
      "t": 30461.475000000006,
      "d": 738.4599999999991,
      "v": 104
    },
    {
      "midi": 62,
      "hit": false,
      "t": 31384.550000000007,
      "d": 738.4599999999991,
      "v": 82
    },
    {
      "midi": 66,
      "hit": false,
      "t": 31384.550000000007,
      "d": 738.4599999999991,
      "v": 86
    },
    {
      "midi": 47,
      "hit": false,
      "t": 31384.550000000007,
      "d": 738.4599999999991,
      "v": 79
    },
    {
      "midi": 57,
      "hit": false,
      "t": 31384.550000000007,
      "d": 738.4599999999991,
      "v": 82
    },
    {
      "midi": 60,
      "hit": false,
      "t": 32307.625000000007,
      "d": 423.07604166666715,
      "v": 81
    },
    {
      "midi": 64,
      "hit": false,
      "t": 32307.625000000007,
      "d": 423.07604166666715,
      "v": 90
    },
    {
      "midi": 45,
      "hit": false,
      "t": 32307.625000000007,
      "d": 738.4599999999991,
      "v": 91
    },
    {
      "midi": 55,
      "hit": false,
      "t": 32307.625000000007,
      "d": 738.4599999999991,
      "v": 87
    },
    {
      "midi": 62,
      "hit": false,
      "t": 33230.700000000004,
      "d": 738.4599999999991,
      "v": 92
    },
    {
      "midi": 66,
      "hit": false,
      "t": 33230.700000000004,
      "d": 738.4599999999991,
      "v": 101
    },
    {
      "midi": 43,
      "hit": false,
      "t": 33230.700000000004,
      "d": 738.4599999999991,
      "v": 96
    },
    {
      "midi": 59,
      "hit": false,
      "t": 33230.700000000004,
      "d": 738.4599999999991,
      "v": 90
    },
    {
      "midi": 62,
      "hit": false,
      "t": 34153.775,
      "d": 369.2300000000032,
      "v": 90
    },
    {
      "midi": 45,
      "hit": false,
      "t": 34153.775,
      "d": 738.4599999999991,
      "v": 91
    },
    {
      "midi": 55,
      "hit": false,
      "t": 34153.775,
      "d": 738.4599999999991,
      "v": 85
    },
    {
      "midi": 61,
      "hit": false,
      "t": 34615.31250000001,
      "d": 369.2300000000032,
      "v": 100
    },
    {
      "midi": 42,
      "hit": false,
      "t": 35076.85,
      "d": 738.4599999999991,
      "v": 75
    },
    {
      "midi": 57,
      "hit": false,
      "t": 35076.85,
      "d": 738.4599999999991,
      "v": 88
    },
    {
      "midi": 64,
      "hit": false,
      "t": 35076.85000000001,
      "d": 738.4599999999991,
      "v": 89
    },
    {
      "midi": 47,
      "hit": false,
      "t": 35999.924999999996,
      "d": 738.4599999999991,
      "v": 90
    },
    {
      "midi": 57,
      "hit": false,
      "t": 35999.924999999996,
      "d": 738.4599999999991,
      "v": 78
    },
    {
      "midi": 62,
      "hit": false,
      "t": 35999.92500000001,
      "d": 738.4599999999991,
      "v": 86
    },
    {
      "midi": 40,
      "hit": false,
      "t": 36922.99999999999,
      "d": 553.8450000000012,
      "v": 84
    },
    {
      "midi": 55,
      "hit": false,
      "t": 36922.99999999999,
      "d": 553.8450000000012,
      "v": 96
    },
    {
      "midi": 62,
      "hit": false,
      "t": 36923.00000000001,
      "d": 553.8450000000012,
      "v": 90
    },
    {
      "midi": 45,
      "hit": false,
      "t": 37615.306249999994,
      "d": 923.0749999999971,
      "v": 90
    },
    {
      "midi": 55,
      "hit": false,
      "t": 37615.306249999994,
      "d": 923.0749999999971,
      "v": 87
    },
    {
      "midi": 59,
      "hit": false,
      "t": 37615.30625000001,
      "d": 923.0749999999971,
      "v": 93
    },
    {
      "midi": 50,
      "hit": false,
      "t": 38769.149999999994,
      "d": 1107.6900000000023,
      "v": 103
    },
    {
      "midi": 64,
      "hit": false,
      "t": 38769.15000000001,
      "d": 553.8450000000012,
      "v": 91
    },
    {
      "midi": 67,
      "hit": false,
      "t": 38769.15000000001,
      "d": 553.8450000000012,
      "v": 84
    },
    {
      "midi": 62,
      "hit": false,
      "t": 39461.45625000001,
      "d": 553.8450000000012,
      "v": 98
    },
    {
      "midi": 66,
      "hit": false,
      "t": 39461.45625000001,
      "d": 553.8450000000012,
      "v": 101
    },
    {
      "midi": 50,
      "hit": false,
      "t": 40153.7625,
      "d": 923.0749999999971,
      "v": 90
    },
    {
      "midi": 61,
      "hit": false,
      "t": 40153.76250000001,
      "d": 738.4599999999991,
      "v": 89
    },
    {
      "midi": 64,
      "hit": false,
      "t": 40153.76250000001,
      "d": 738.4599999999991,
      "v": 90
    },
    {
      "midi": 62,
      "hit": false,
      "t": 41076.83750000001,
      "d": 1292.3050000000003,
      "v": 99
    },
    {
      "midi": 66,
      "hit": false,
      "t": 41076.83750000001,
      "d": 1292.3050000000003,
      "v": 77
    },
    {
      "midi": 45,
      "hit": false,
      "t": 41307.60625,
      "d": 184.61499999999796,
      "v": 90
    },
    {
      "midi": 50,
      "hit": false,
      "t": 41538.37499999999,
      "d": 184.61499999999796,
      "v": 94
    },
    {
      "midi": 57,
      "hit": false,
      "t": 41769.14374999999,
      "d": 184.61499999999796,
      "v": 94
    },
    {
      "midi": 50,
      "hit": false,
      "t": 41999.912499999984,
      "d": 184.61499999999796,
      "v": 99
    },
    {
      "midi": 47,
      "hit": false,
      "t": 42230.68124999998,
      "d": 184.61499999999796,
      "v": 90
    },
    {
      "midi": 40,
      "hit": false,
      "t": 42461.449999999975,
      "d": 1476.9199999999983,
      "v": 84
    },
    {
      "midi": 55,
      "hit": false,
      "t": 42461.449999999975,
      "d": 1476.9199999999983,
      "v": 88
    },
    {
      "midi": 59,
      "hit": false,
      "t": 42461.45000000001,
      "d": 1476.9199999999983,
      "v": 77
    },
    {
      "midi": 62,
      "hit": false,
      "t": 42461.45000000001,
      "d": 1476.9199999999983,
      "v": 79
    },
    {
      "midi": 45,
      "hit": false,
      "t": 44307.59999999998,
      "d": 1476.9199999999983,
      "v": 90
    },
    {
      "midi": 55,
      "hit": false,
      "t": 44307.59999999998,
      "d": 1476.9199999999983,
      "v": 90
    },
    {
      "midi": 59,
      "hit": false,
      "t": 44307.60000000001,
      "d": 738.4599999999991,
      "v": 91
    },
    {
      "midi": 62,
      "hit": false,
      "t": 44307.60000000001,
      "d": 738.4599999999991,
      "v": 99
    },
    {
      "midi": 59,
      "hit": false,
      "t": 45230.67500000001,
      "d": 738.4599999999991,
      "v": 96
    },
    {
      "midi": 61,
      "hit": false,
      "t": 45230.67500000001,
      "d": 738.4599999999991,
      "v": 81
    },
    {
      "midi": 42,
      "hit": false,
      "t": 46153.74999999998,
      "d": 1476.9199999999983,
      "v": 88
    },
    {
      "midi": 59,
      "hit": false,
      "t": 46153.75000000001,
      "d": 369.2300000000032,
      "v": 94
    },
    {
      "midi": 64,
      "hit": false,
      "t": 46153.75000000001,
      "d": 369.2300000000032,
      "v": 78
    },
    {
      "midi": 66,
      "hit": false,
      "t": 46153.75000000001,
      "d": 369.2300000000032,
      "v": 89
    },
    {
      "midi": 58,
      "hit": false,
      "t": 46846.056250000016,
      "d": 653.8447916666701,
      "v": 90
    },
    {
      "midi": 64,
      "hit": false,
      "t": 46846.056250000016,
      "d": 653.8447916666701,
      "v": 77
    },
    {
      "midi": 66,
      "hit": false,
      "t": 46846.056250000016,
      "d": 653.8447916666701,
      "v": 90
    },
    {
      "midi": 47,
      "hit": false,
      "t": 47999.89999999998,
      "d": 1292.3050000000003,
      "v": 99
    },
    {
      "midi": 54,
      "hit": false,
      "t": 47999.89999999998,
      "d": 1292.3050000000003,
      "v": 92
    },
    {
      "midi": 57,
      "hit": false,
      "t": 48461.437500000015,
      "d": 184.61499999999796,
      "v": 91
    },
    {
      "midi": 62,
      "hit": false,
      "t": 48692.20625000001,
      "d": 184.61499999999796,
      "v": 88
    },
    {
      "midi": 69,
      "hit": false,
      "t": 48922.975000000006,
      "d": 369.2300000000032,
      "v": 79
    },
    {
      "midi": 66,
      "hit": false,
      "t": 49384.51250000001,
      "d": 369.2300000000032,
      "v": 79
    },
    {
      "midi": 47,
      "hit": false,
      "t": 49615.28124999998,
      "d": 184.61499999999796,
      "v": 103
    },
    {
      "midi": 40,
      "hit": false,
      "t": 49846.049999999974,
      "d": 1476.9199999999983,
      "v": 99
    },
    {
      "midi": 55,
      "hit": false,
      "t": 49846.049999999974,
      "d": 1476.9199999999983,
      "v": 88
    },
    {
      "midi": 59,
      "hit": false,
      "t": 49846.05000000002,
      "d": 1476.9199999999983,
      "v": 89
    },
    {
      "midi": 45,
      "hit": false,
      "t": 51692.199999999975,
      "d": 1476.9199999999983,
      "v": 84
    },
    {
      "midi": 55,
      "hit": false,
      "t": 51692.199999999975,
      "d": 1476.9199999999983,
      "v": 90
    },
    {
      "midi": 59,
      "hit": false,
      "t": 51692.20000000002,
      "d": 738.4599999999991,
      "v": 100
    },
    {
      "midi": 62,
      "hit": false,
      "t": 51692.20000000002,
      "d": 738.4599999999991,
      "v": 87
    },
    {
      "midi": 59,
      "hit": false,
      "t": 52615.275000000016,
      "d": 738.4599999999991,
      "v": 90
    },
    {
      "midi": 61,
      "hit": false,
      "t": 52615.275000000016,
      "d": 738.4599999999991,
      "v": 83
    },
    {
      "midi": 54,
      "hit": false,
      "t": 53538.34999999998,
      "d": 738.4599999999991,
      "v": 90
    },
    {
      "midi": 59,
      "hit": false,
      "t": 53538.34999999998,
      "d": 738.4599999999991,
      "v": 104
    },
    {
      "midi": 64,
      "hit": false,
      "t": 53538.35000000001,
      "d": 1476.9199999999983,
      "v": 97
    },
    {
      "midi": 54,
      "hit": false,
      "t": 54461.424999999974,
      "d": 738.4599999999991,
      "v": 90
    },
    {
      "midi": 58,
      "hit": false,
      "t": 54461.424999999974,
      "d": 738.4599999999991,
      "v": 89
    },
    {
      "midi": 47,
      "hit": false,
      "t": 55384.49999999997,
      "d": 738.4599999999991,
      "v": 104
    },
    {
      "midi": 57,
      "hit": false,
      "t": 55384.49999999997,
      "d": 738.4599999999991,
      "v": 94
    },
    {
      "midi": 62,
      "hit": false,
      "t": 55384.500000000015,
      "d": 738.4599999999991,
      "v": 78
    },
    {
      "midi": 66,
      "hit": false,
      "t": 55384.500000000015,
      "d": 738.4599999999991,
      "v": 100
    },
    {
      "midi": 47,
      "hit": false,
      "t": 56307.57499999997,
      "d": 738.4599999999991,
      "v": 102
    },
    {
      "midi": 55,
      "hit": false,
      "t": 56307.57499999997,
      "d": 738.4599999999991,
      "v": 85
    },
    {
      "midi": 60,
      "hit": false,
      "t": 56307.57500000001,
      "d": 423.07604166666715,
      "v": 79
    },
    {
      "midi": 64,
      "hit": false,
      "t": 56307.57500000001,
      "d": 423.07604166666715,
      "v": 79
    },
    {
      "midi": 45,
      "hit": false,
      "t": 57230.649999999965,
      "d": 184.61499999999796,
      "v": 83
    },
    {
      "midi": 62,
      "hit": false,
      "t": 57230.65000000001,
      "d": 1476.9199999999983,
      "v": 89
    },
    {
      "midi": 50,
      "hit": false,
      "t": 57461.41874999996,
      "d": 184.61499999999796,
      "v": 82
    },
    {
      "midi": 59,
      "hit": false,
      "t": 57692.187499999956,
      "d": 369.2300000000032,
      "v": 95
    },
    {
      "midi": 50,
      "hit": false,
      "t": 58153.72499999996,
      "d": 369.2300000000032,
      "v": 90
    },
    {
      "midi": 43,
      "hit": false,
      "t": 58615.26249999997,
      "d": 369.2300000000032,
      "v": 81
    },
    {
      "midi": 45,
      "hit": false,
      "t": 59076.799999999974,
      "d": 1476.9199999999983,
      "v": 90
    },
    {
      "midi": 55,
      "hit": false,
      "t": 59076.799999999974,
      "d": 1476.9199999999983,
      "v": 90
    },
    {
      "midi": 62,
      "hit": false,
      "t": 59076.80000000001,
      "d": 738.4599999999991,
      "v": 90
    },
    {
      "midi": 61,
      "hit": false,
      "t": 59999.87500000001,
      "d": 423.07604166666715,
      "v": 97
    },
    {
      "midi": 54,
      "hit": false,
      "t": 60922.949999999975,
      "d": 738.4599999999991,
      "v": 82
    },
    {
      "midi": 59,
      "hit": false,
      "t": 60922.949999999975,
      "d": 738.4599999999991,
      "v": 94
    },
    {
      "midi": 64,
      "hit": false,
      "t": 60922.950000000004,
      "d": 1476.9199999999983,
      "v": 84
    },
    {
      "midi": 54,
      "hit": false,
      "t": 61846.02499999997,
      "d": 738.4599999999991,
      "v": 97
    },
    {
      "midi": 58,
      "hit": false,
      "t": 61846.02499999997,
      "d": 738.4599999999991,
      "v": 89
    },
    {
      "midi": 47,
      "hit": false,
      "t": 62769.09999999997,
      "d": 738.4599999999991,
      "v": 90
    },
    {
      "midi": 57,
      "hit": false,
      "t": 62769.09999999997,
      "d": 738.4599999999991,
      "v": 76
    },
    {
      "midi": 62,
      "hit": false,
      "t": 62769.100000000006,
      "d": 738.4599999999991,
      "v": 79
    },
    {
      "midi": 66,
      "hit": false,
      "t": 62769.100000000006,
      "d": 738.4599999999991,
      "v": 83
    },
    {
      "midi": 45,
      "hit": false,
      "t": 63692.17499999997,
      "d": 738.4599999999991,
      "v": 90
    },
    {
      "midi": 55,
      "hit": false,
      "t": 63692.17499999997,
      "d": 738.4599999999991,
      "v": 103
    },
    {
      "midi": 60,
      "hit": false,
      "t": 63692.175,
      "d": 423.07604166666715,
      "v": 92
    },
    {
      "midi": 64,
      "hit": false,
      "t": 63692.175,
      "d": 423.07604166666715,
      "v": 96
    },
    {
      "midi": 43,
      "hit": false,
      "t": 64615.24999999996,
      "d": 738.4599999999991,
      "v": 99
    },
    {
      "midi": 59,
      "hit": false,
      "t": 64615.24999999996,
      "d": 738.4599999999991,
      "v": 104
    },
    {
      "midi": 62,
      "hit": false,
      "t": 64615.25,
      "d": 738.4599999999991,
      "v": 84
    },
    {
      "midi": 66,
      "hit": false,
      "t": 64615.25,
      "d": 738.4599999999991,
      "v": 90
    },
    {
      "midi": 45,
      "hit": false,
      "t": 65538.32499999997,
      "d": 738.4600000000064,
      "v": 98
    },
    {
      "midi": 55,
      "hit": false,
      "t": 65538.32499999997,
      "d": 738.4600000000064,
      "v": 85
    },
    {
      "midi": 62,
      "hit": false,
      "t": 65538.325,
      "d": 369.2299999999959,
      "v": 91
    },
    {
      "midi": 61,
      "hit": false,
      "t": 65999.86249999999,
      "d": 369.2299999999959,
      "v": 101
    },
    {
      "midi": 64,
      "hit": false,
      "t": 66461.39999999998,
      "d": 738.4600000000064,
      "v": 91
    },
    {
      "midi": 42,
      "hit": false,
      "t": 66461.39999999998,
      "d": 738.4600000000064,
      "v": 95
    },
    {
      "midi": 57,
      "hit": false,
      "t": 66461.39999999998,
      "d": 738.4600000000064,
      "v": 77
    },
    {
      "midi": 62,
      "hit": false,
      "t": 67384.47499999999,
      "d": 738.4600000000064,
      "v": 83
    },
    {
      "midi": 47,
      "hit": false,
      "t": 67384.47499999999,
      "d": 738.4600000000064,
      "v": 89
    },
    {
      "midi": 57,
      "hit": false,
      "t": 67384.47499999999,
      "d": 738.4600000000064,
      "v": 102
    },
    {
      "midi": 62,
      "hit": false,
      "t": 68307.55,
      "d": 553.8450000000012,
      "v": 95
    },
    {
      "midi": 40,
      "hit": false,
      "t": 68307.55,
      "d": 553.8450000000012,
      "v": 95
    },
    {
      "midi": 55,
      "hit": false,
      "t": 68307.55,
      "d": 553.8450000000012,
      "v": 86
    },
    {
      "midi": 59,
      "hit": false,
      "t": 68999.85625,
      "d": 923.0749999999971,
      "v": 87
    },
    {
      "midi": 45,
      "hit": false,
      "t": 68999.85625,
      "d": 923.0749999999971,
      "v": 86
    },
    {
      "midi": 55,
      "hit": false,
      "t": 68999.85625,
      "d": 923.0749999999971,
      "v": 97
    },
    {
      "midi": 64,
      "hit": false,
      "t": 70153.7,
      "d": 553.8450000000012,
      "v": 84
    },
    {
      "midi": 67,
      "hit": false,
      "t": 70153.7,
      "d": 553.8450000000012,
      "v": 90
    },
    {
      "midi": 50,
      "hit": false,
      "t": 70153.7,
      "d": 738.4600000000064,
      "v": 91
    },
    {
      "midi": 62,
      "hit": false,
      "t": 70846.00624999999,
      "d": 553.8450000000012,
      "v": 92
    },
    {
      "midi": 66,
      "hit": false,
      "t": 70846.00624999999,
      "d": 553.8450000000012,
      "v": 95
    },
    {
      "midi": 50,
      "hit": false,
      "t": 71076.77500000001,
      "d": 369.2299999999959,
      "v": 90
    },
    {
      "midi": 61,
      "hit": false,
      "t": 71538.31249999999,
      "d": 738.4600000000064,
      "v": 90
    },
    {
      "midi": 64,
      "hit": false,
      "t": 71538.31249999999,
      "d": 738.4600000000064,
      "v": 91
    },
    {
      "midi": 50,
      "hit": false,
      "t": 71538.3125,
      "d": 369.2299999999959,
      "v": 98
    },
    {
      "midi": 50,
      "hit": false,
      "t": 71999.84999999999,
      "d": 738.4600000000064,
      "v": 88
    },
    {
      "midi": 62,
      "hit": false,
      "t": 72461.3875,
      "d": 1107.6900000000023,
      "v": 94
    },
    {
      "midi": 66,
      "hit": false,
      "t": 72461.3875,
      "d": 1107.6900000000023,
      "v": 93
    },
    {
      "midi": 50,
      "hit": false,
      "t": 72922.925,
      "d": 369.2299999999959,
      "v": 90
    },
    {
      "midi": 49,
      "hit": false,
      "t": 73384.4625,
      "d": 369.2299999999959,
      "v": 94
    },
    {
      "midi": 47,
      "hit": false,
      "t": 73845.99999999999,
      "d": 1476.9199999999983,
      "v": 88
    },
    {
      "midi": 62,
      "hit": false,
      "t": 73846,
      "d": 1476.9199999999983,
      "v": 99
    },
    {
      "midi": 66,
      "hit": false,
      "t": 73846,
      "d": 1476.9199999999983,
      "v": 90
    },
    {
      "midi": 69,
      "hit": false,
      "t": 73846,
      "d": 1476.9199999999983,
      "v": 87
    },
    {
      "midi": 57,
      "hit": false,
      "t": 73846,
      "d": 1846.1499999999942,
      "v": 67
    },
    {
      "midi": 62,
      "hit": false,
      "t": 73846,
      "d": 1846.1499999999942,
      "v": 63
    },
    {
      "midi": 40,
      "hit": false,
      "t": 75692.14999999998,
      "d": 1476.9199999999983,
      "v": 92
    },
    {
      "midi": 62,
      "hit": false,
      "t": 75692.15,
      "d": 738.4600000000064,
      "v": 86
    },
    {
      "midi": 66,
      "hit": false,
      "t": 75692.15,
      "d": 738.4600000000064,
      "v": 93
    },
    {
      "midi": 69,
      "hit": false,
      "t": 75692.15,
      "d": 738.4600000000064,
      "v": 95
    },
    {
      "midi": 57,
      "hit": false,
      "t": 75692.15,
      "d": 1846.1499999999942,
      "v": 52
    },
    {
      "midi": 62,
      "hit": false,
      "t": 75692.15,
      "d": 1846.1499999999942,
      "v": 73
    },
    {
      "midi": 66,
      "hit": false,
      "t": 75692.15,
      "d": 1846.1499999999942,
      "v": 58
    },
    {
      "midi": 59,
      "hit": false,
      "t": 76615.22499999999,
      "d": 923.0749999999971,
      "v": 50
    },
    {
      "midi": 66,
      "hit": false,
      "t": 76615.225,
      "d": 738.4600000000064,
      "v": 96
    },
    {
      "midi": 69,
      "hit": false,
      "t": 76615.225,
      "d": 738.4600000000064,
      "v": 79
    },
    {
      "midi": 45,
      "hit": false,
      "t": 77538.29999999997,
      "d": 1107.6900000000023,
      "v": 92
    },
    {
      "midi": 61,
      "hit": false,
      "t": 77538.29999999999,
      "d": 138.46124999999302,
      "v": 34
    },
    {
      "midi": 56,
      "hit": false,
      "t": 77538.29999999999,
      "d": 738.4599999999919,
      "v": 58
    },
    {
      "midi": 57,
      "hit": false,
      "t": 77538.29999999999,
      "d": 1846.1500000000087,
      "v": 39
    },
    {
      "midi": 64,
      "hit": false,
      "t": 77538.29999999999,
      "d": 1846.1500000000087,
      "v": 66
    },
    {
      "midi": 64,
      "hit": false,
      "t": 77538.30000000002,
      "d": 738.4600000000064,
      "v": 80
    },
    {
      "midi": 68,
      "hit": false,
      "t": 77538.30000000002,
      "d": 738.4600000000064,
      "v": 87
    },
    {
      "midi": 56,
      "hit": false,
      "t": 78461.37499999999,
      "d": 923.0750000000116,
      "v": 64
    },
    {
      "midi": 64,
      "hit": false,
      "t": 78461.37500000003,
      "d": 738.4600000000064,
      "v": 92
    },
    {
      "midi": 68,
      "hit": false,
      "t": 78461.37500000003,
      "d": 738.4600000000064,
      "v": 77
    },
    {
      "midi": 45,
      "hit": false,
      "t": 78922.91249999998,
      "d": 369.2299999999959,
      "v": 88
    },
    {
      "midi": 61,
      "hit": false,
      "t": 78922.91249999999,
      "d": 461.5375000000058,
      "v": 51
    },
    {
      "midi": 50,
      "hit": false,
      "t": 79384.44999999997,
      "d": 1107.6900000000023,
      "v": 91
    },
    {
      "midi": 66,
      "hit": false,
      "t": 79384.45,
      "d": 138.46124999999302,
      "v": 34
    },
    {
      "midi": 61,
      "hit": false,
      "t": 79384.45,
      "d": 738.4599999999919,
      "v": 58
    },
    {
      "midi": 62,
      "hit": false,
      "t": 79384.45,
      "d": 1307.6895833333256,
      "v": 39
    },
    {
      "midi": 69,
      "hit": false,
      "t": 79384.45,
      "d": 1307.6895833333256,
      "v": 66
    },
    {
      "midi": 61,
      "hit": false,
      "t": 79384.45000000004,
      "d": 738.4600000000064,
      "v": 90
    },
    {
      "midi": 66,
      "hit": false,
      "t": 79384.45000000004,
      "d": 738.4600000000064,
      "v": 88
    },
    {
      "midi": 69,
      "hit": false,
      "t": 79384.45000000004,
      "d": 738.4600000000064,
      "v": 97
    },
    {
      "midi": 61,
      "hit": false,
      "t": 80307.525,
      "d": 384.6145833333285,
      "v": 64
    },
    {
      "midi": 61,
      "hit": false,
      "t": 80307.52500000005,
      "d": 738.4600000000064,
      "v": 79
    },
    {
      "midi": 66,
      "hit": false,
      "t": 80307.52500000005,
      "d": 738.4600000000064,
      "v": 83
    },
    {
      "midi": 69,
      "hit": false,
      "t": 80307.52500000005,
      "d": 738.4600000000064,
      "v": 89
    },
    {
      "midi": 49,
      "hit": false,
      "t": 80769.06249999997,
      "d": 369.2299999999959,
      "v": 90
    },
    {
      "midi": 57,
      "hit": false,
      "t": 80769.06249999999,
      "d": 2292.3029166666674,
      "v": 67
    },
    {
      "midi": 62,
      "hit": false,
      "t": 80769.06249999999,
      "d": 2292.3029166666674,
      "v": 63
    },
    {
      "midi": 47,
      "hit": false,
      "t": 81230.59999999996,
      "d": 1476.9199999999983,
      "v": 102
    },
    {
      "midi": 62,
      "hit": false,
      "t": 81230.60000000006,
      "d": 738.4600000000064,
      "v": 88
    },
    {
      "midi": 66,
      "hit": false,
      "t": 81230.60000000006,
      "d": 738.4600000000064,
      "v": 97
    },
    {
      "midi": 62,
      "hit": false,
      "t": 82153.67500000008,
      "d": 738.4600000000064,
      "v": 96
    },
    {
      "midi": 66,
      "hit": false,
      "t": 82153.67500000008,
      "d": 738.4600000000064,
      "v": 93
    },
    {
      "midi": 49,
      "hit": false,
      "t": 83076.74999999996,
      "d": 1107.6900000000023,
      "v": 79
    },
    {
      "midi": 59,
      "hit": false,
      "t": 83076.74999999999,
      "d": 923.0749999999971,
      "v": 67
    },
    {
      "midi": 65,
      "hit": false,
      "t": 83076.74999999999,
      "d": 923.0749999999971,
      "v": 63
    },
    {
      "midi": 62,
      "hit": false,
      "t": 83076.75000000009,
      "d": 738.4600000000064,
      "v": 99
    },
    {
      "midi": 65,
      "hit": false,
      "t": 83076.75000000009,
      "d": 738.4600000000064,
      "v": 100
    },
    {
      "midi": 56,
      "hit": false,
      "t": 83999.82499999998,
      "d": 923.0750000000116,
      "v": 73
    },
    {
      "midi": 61,
      "hit": false,
      "t": 83999.8250000001,
      "d": 738.4600000000064,
      "v": 93
    },
    {
      "midi": 65,
      "hit": false,
      "t": 83999.8250000001,
      "d": 738.4600000000064,
      "v": 90
    },
    {
      "midi": 65,
      "hit": false,
      "t": 84453.67020833332,
      "d": 469.2297916666721,
      "v": 55
    },
    {
      "midi": 49,
      "hit": false,
      "t": 84461.36249999996,
      "d": 369.2299999999959,
      "v": 75
    },
    {
      "midi": 42,
      "hit": false,
      "t": 84922.89999999995,
      "d": 553.8450000000012,
      "v": 89
    },
    {
      "midi": 57,
      "hit": false,
      "t": 84922.9,
      "d": 615.3833333333314,
      "v": 67
    },
    {
      "midi": 66,
      "hit": false,
      "t": 84922.9,
      "d": 615.3833333333314,
      "v": 63
    },
    {
      "midi": 61,
      "hit": false,
      "t": 84922.90000000011,
      "d": 553.8450000000012,
      "v": 97
    },
    {
      "midi": 66,
      "hit": false,
      "t": 84922.90000000011,
      "d": 553.8450000000012,
      "v": 78
    },
    {
      "midi": 37,
      "hit": false,
      "t": 85615.20624999994,
      "d": 369.2299999999959,
      "v": 76
    },
    {
      "midi": 59,
      "hit": false,
      "t": 85615.20624999999,
      "d": 615.3833333333314,
      "v": 67
    },
    {
      "midi": 64,
      "hit": false,
      "t": 85615.20624999999,
      "d": 615.3833333333314,
      "v": 63
    },
    {
      "midi": 64,
      "hit": false,
      "t": 85615.2062500001,
      "d": 553.8450000000012,
      "v": 82
    },
    {
      "midi": 68,
      "hit": false,
      "t": 85615.2062500001,
      "d": 553.8450000000012,
      "v": 90
    },
    {
      "midi": 37,
      "hit": false,
      "t": 86076.74374999994,
      "d": 184.61500000000524,
      "v": 103
    },
    {
      "midi": 42,
      "hit": false,
      "t": 86307.51249999994,
      "d": 738.4600000000064,
      "v": 92
    },
    {
      "midi": 59,
      "hit": false,
      "t": 86307.51249999998,
      "d": 1369.2279166666704,
      "v": 67
    },
    {
      "midi": 64,
      "hit": false,
      "t": 86307.51249999998,
      "d": 1369.2279166666704,
      "v": 63
    },
    {
      "midi": 64,
      "hit": false,
      "t": 86307.5125000001,
      "d": 1107.6900000000023,
      "v": 99
    },
    {
      "midi": 71,
      "hit": false,
      "t": 86307.5125000001,
      "d": 1107.6900000000023,
      "v": 93
    },
    {
      "midi": 49,
      "hit": false,
      "t": 87230.58749999995,
      "d": 369.2299999999959,
      "v": 90
    },
    {
      "midi": 54,
      "hit": false,
      "t": 87692.12499999994,
      "d": 184.61500000000524,
      "v": 79
    },
    {
      "midi": 58,
      "hit": false,
      "t": 87692.12499999999,
      "d": 923.0750000000116,
      "v": 73
    },
    {
      "midi": 64,
      "hit": false,
      "t": 87692.1250000001,
      "d": 738.4600000000064,
      "v": 87
    },
    {
      "midi": 70,
      "hit": false,
      "t": 87692.1250000001,
      "d": 738.4600000000064,
      "v": 76
    },
    {
      "midi": 49,
      "hit": false,
      "t": 87922.89374999994,
      "d": 184.61500000000524,
      "v": 91
    },
    {
      "midi": 64,
      "hit": false,
      "t": 88145.97020833332,
      "d": 469.2297916666721,
      "v": 55
    },
    {
      "midi": 42,
      "hit": false,
      "t": 88153.66249999995,
      "d": 369.2299999999959,
      "v": 85
    },
    {
      "midi": 47,
      "hit": false,
      "t": 88615.19999999994,
      "d": 1476.9199999999983,
      "v": 91
    },
    {
      "midi": 57,
      "hit": false,
      "t": 88615.2,
      "d": 1846.1499999999942,
      "v": 67
    },
    {
      "midi": 62,
      "hit": false,
      "t": 88615.2,
      "d": 1846.1499999999942,
      "v": 63
    },
    {
      "midi": 62,
      "hit": false,
      "t": 88615.20000000011,
      "d": 738.4600000000064,
      "v": 90
    },
    {
      "midi": 66,
      "hit": false,
      "t": 88615.20000000011,
      "d": 738.4600000000064,
      "v": 97
    },
    {
      "midi": 69,
      "hit": false,
      "t": 88615.20000000011,
      "d": 738.4600000000064,
      "v": 81
    },
    {
      "midi": 62,
      "hit": false,
      "t": 89538.27500000013,
      "d": 738.4600000000064,
      "v": 100
    },
    {
      "midi": 66,
      "hit": false,
      "t": 89538.27500000013,
      "d": 738.4600000000064,
      "v": 92
    },
    {
      "midi": 69,
      "hit": false,
      "t": 89538.27500000013,
      "d": 738.4600000000064,
      "v": 90
    },
    {
      "midi": 40,
      "hit": false,
      "t": 90461.34999999993,
      "d": 1476.9199999999983,
      "v": 85
    },
    {
      "midi": 57,
      "hit": false,
      "t": 90461.34999999999,
      "d": 1307.6895833333401,
      "v": 67
    },
    {
      "midi": 62,
      "hit": false,
      "t": 90461.34999999999,
      "d": 1307.6895833333401,
      "v": 63
    },
    {
      "midi": 66,
      "hit": false,
      "t": 90461.35000000014,
      "d": 738.4600000000064,
      "v": 102
    },
    {
      "midi": 69,
      "hit": false,
      "t": 90461.35000000014,
      "d": 738.4600000000064,
      "v": 93
    },
    {
      "midi": 66,
      "hit": false,
      "t": 91384.42500000015,
      "d": 738.4600000000064,
      "v": 97
    },
    {
      "midi": 69,
      "hit": false,
      "t": 91384.42500000015,
      "d": 738.4600000000064,
      "v": 105
    },
    {
      "midi": 56,
      "hit": false,
      "t": 91845.9625,
      "d": 2292.3029166666674,
      "v": 67
    },
    {
      "midi": 61,
      "hit": false,
      "t": 91845.9625,
      "d": 2292.3029166666674,
      "v": 63
    },
    {
      "midi": 45,
      "hit": false,
      "t": 92307.49999999993,
      "d": 1107.6900000000023,
      "v": 82
    },
    {
      "midi": 64,
      "hit": false,
      "t": 92307.50000000016,
      "d": 738.4600000000064,
      "v": 79
    },
    {
      "midi": 68,
      "hit": false,
      "t": 92307.50000000016,
      "d": 738.4600000000064,
      "v": 105
    },
    {
      "midi": 64,
      "hit": false,
      "t": 93230.57500000017,
      "d": 738.4600000000064,
      "v": 98
    },
    {
      "midi": 68,
      "hit": false,
      "t": 93230.57500000017,
      "d": 738.4600000000064,
      "v": 92
    },
    {
      "midi": 45,
      "hit": false,
      "t": 93692.11249999993,
      "d": 369.2299999999959,
      "v": 102
    },
    {
      "midi": 38,
      "hit": false,
      "t": 94153.64999999992,
      "d": 1107.6900000000023,
      "v": 92
    },
    {
      "midi": 61,
      "hit": false,
      "t": 94153.65,
      "d": 1846.1499999999942,
      "v": 52
    },
    {
      "midi": 66,
      "hit": false,
      "t": 94153.65,
      "d": 1846.1499999999942,
      "v": 73
    },
    {
      "midi": 69,
      "hit": false,
      "t": 94153.65,
      "d": 1846.1499999999942,
      "v": 58
    },
    {
      "midi": 61,
      "hit": false,
      "t": 94153.65000000018,
      "d": 738.4600000000064,
      "v": 90
    },
    {
      "midi": 66,
      "hit": false,
      "t": 94153.65000000018,
      "d": 738.4600000000064,
      "v": 98
    },
    {
      "midi": 69,
      "hit": false,
      "t": 94153.65000000018,
      "d": 738.4600000000064,
      "v": 92
    },
    {
      "midi": 62,
      "hit": false,
      "t": 95076.72499999999,
      "d": 923.0749999999971,
      "v": 50
    },
    {
      "midi": 61,
      "hit": false,
      "t": 95076.7250000002,
      "d": 738.4600000000064,
      "v": 89
    },
    {
      "midi": 66,
      "hit": false,
      "t": 95076.7250000002,
      "d": 738.4600000000064,
      "v": 94
    },
    {
      "midi": 69,
      "hit": false,
      "t": 95076.7250000002,
      "d": 738.4600000000064,
      "v": 102
    },
    {
      "midi": 40,
      "hit": false,
      "t": 95538.26249999992,
      "d": 184.61500000000524,
      "v": 82
    },
    {
      "midi": 42,
      "hit": false,
      "t": 95769.03124999993,
      "d": 184.61500000000524,
      "v": 90
    },
    {
      "midi": 43,
      "hit": false,
      "t": 95999.79999999993,
      "d": 1292.304999999993,
      "v": 86
    },
    {
      "midi": 59,
      "hit": false,
      "t": 95999.79999999999,
      "d": 1846.1499999999942,
      "v": 52
    },
    {
      "midi": 66,
      "hit": false,
      "t": 95999.79999999999,
      "d": 1846.1499999999942,
      "v": 73
    },
    {
      "midi": 69,
      "hit": false,
      "t": 95999.79999999999,
      "d": 1846.1499999999942,
      "v": 58
    },
    {
      "midi": 62,
      "hit": false,
      "t": 95999.8000000002,
      "d": 738.4600000000064,
      "v": 80
    },
    {
      "midi": 66,
      "hit": false,
      "t": 95999.8000000002,
      "d": 738.4600000000064,
      "v": 91
    },
    {
      "midi": 62,
      "hit": false,
      "t": 96922.87499999999,
      "d": 923.0749999999971,
      "v": 50
    },
    {
      "midi": 62,
      "hit": false,
      "t": 96922.87500000022,
      "d": 738.4600000000064,
      "v": 86
    },
    {
      "midi": 66,
      "hit": false,
      "t": 96922.87500000022,
      "d": 738.4600000000064,
      "v": 86
    },
    {
      "midi": 42,
      "hit": false,
      "t": 97615.18124999992,
      "d": 184.61500000000524,
      "v": 90
    },
    {
      "midi": 40,
      "hit": false,
      "t": 97845.94999999992,
      "d": 738.4600000000064,
      "v": 86
    },
    {
      "midi": 55,
      "hit": false,
      "t": 97845.94999999998,
      "d": 1846.1499999999942,
      "v": 52
    },
    {
      "midi": 62,
      "hit": false,
      "t": 97845.94999999998,
      "d": 1846.1499999999942,
      "v": 73
    },
    {
      "midi": 64,
      "hit": false,
      "t": 97845.94999999998,
      "d": 1846.1499999999942,
      "v": 58
    },
    {
      "midi": 62,
      "hit": false,
      "t": 97845.95000000023,
      "d": 738.4600000000064,
      "v": 90
    },
    {
      "midi": 67,
      "hit": false,
      "t": 97845.95000000023,
      "d": 738.4600000000064,
      "v": 100
    },
    {
      "midi": 40,
      "hit": false,
      "t": 98769.02499999994,
      "d": 184.61500000000524,
      "v": 92
    },
    {
      "midi": 59,
      "hit": false,
      "t": 98769.02499999998,
      "d": 923.0749999999971,
      "v": 50
    },
    {
      "midi": 62,
      "hit": false,
      "t": 98769.02500000024,
      "d": 738.4600000000064,
      "v": 90
    },
    {
      "midi": 67,
      "hit": false,
      "t": 98769.02500000024,
      "d": 738.4600000000064,
      "v": 90
    },
    {
      "midi": 40,
      "hit": false,
      "t": 98999.79374999994,
      "d": 184.61500000000524,
      "v": 91
    },
    {
      "midi": 40,
      "hit": false,
      "t": 99230.56249999994,
      "d": 184.61500000000524,
      "v": 85
    },
    {
      "midi": 40,
      "hit": false,
      "t": 99461.33124999994,
      "d": 184.61500000000524,
      "v": 96
    },
    {
      "midi": 42,
      "hit": false,
      "t": 99692.09999999995,
      "d": 1292.304999999993,
      "v": 103
    },
    {
      "midi": 58,
      "hit": false,
      "t": 99692.09999999998,
      "d": 1846.1499999999942,
      "v": 52
    },
    {
      "midi": 64,
      "hit": false,
      "t": 99692.09999999998,
      "d": 1846.1499999999942,
      "v": 73
    },
    {
      "midi": 66,
      "hit": false,
      "t": 99692.09999999998,
      "d": 1846.1499999999942,
      "v": 58
    },
    {
      "midi": 64,
      "hit": false,
      "t": 99692.10000000025,
      "d": 738.4600000000064,
      "v": 85
    },
    {
      "midi": 66,
      "hit": false,
      "t": 99692.10000000025,
      "d": 738.4600000000064,
      "v": 85
    },
    {
      "midi": 61,
      "hit": false,
      "t": 100615.17499999997,
      "d": 923.0749999999971,
      "v": 50
    },
    {
      "midi": 64,
      "hit": false,
      "t": 100615.17500000026,
      "d": 738.4600000000064,
      "v": 89
    },
    {
      "midi": 66,
      "hit": false,
      "t": 100615.17500000026,
      "d": 738.4600000000064,
      "v": 83
    },
    {
      "midi": 37,
      "hit": false,
      "t": 101307.48124999994,
      "d": 184.61500000000524,
      "v": 89
    },
    {
      "midi": 42,
      "hit": false,
      "t": 101538.24999999994,
      "d": 738.4600000000064,
      "v": 93
    },
    {
      "midi": 58,
      "hit": false,
      "t": 101538.24999999997,
      "d": 1846.1499999999942,
      "v": 67
    },
    {
      "midi": 64,
      "hit": false,
      "t": 101538.24999999997,
      "d": 1846.1499999999942,
      "v": 63
    },
    {
      "midi": 64,
      "hit": false,
      "t": 101538.25000000028,
      "d": 1346.1510416666715,
      "v": 89
    },
    {
      "midi": 67,
      "hit": false,
      "t": 101538.25000000028,
      "d": 1346.1510416666715,
      "v": 89
    },
    {
      "midi": 70,
      "hit": false,
      "t": 101538.25000000028,
      "d": 1346.1510416666715,
      "v": 93
    },
    {
      "midi": 42,
      "hit": false,
      "t": 102461.32499999995,
      "d": 369.2299999999959,
      "v": 82
    },
    {
      "midi": 42,
      "hit": false,
      "t": 102922.86249999994,
      "d": 369.2299999999959,
      "v": 76
    },
    {
      "midi": 47,
      "hit": false,
      "t": 103384.39999999994,
      "d": 1661.5350000000035,
      "v": 98
    },
    {
      "midi": 57,
      "hit": false,
      "t": 103384.39999999997,
      "d": 1846.1499999999942,
      "v": 67
    },
    {
      "midi": 62,
      "hit": false,
      "t": 103384.39999999997,
      "d": 1846.1499999999942,
      "v": 63
    },
    {
      "midi": 57,
      "hit": false,
      "t": 104307.47499999993,
      "d": 738.4600000000064,
      "v": 90
    },
    {
      "midi": 62,
      "hit": false,
      "t": 104307.47500000028,
      "d": 184.61500000000524,
      "v": 81
    },
    {
      "midi": 66,
      "hit": false,
      "t": 104307.47500000028,
      "d": 184.61500000000524,
      "v": 93
    },
    {
      "midi": 71,
      "hit": false,
      "t": 104307.47500000028,
      "d": 184.61500000000524,
      "v": 89
    },
    {
      "midi": 73,
      "hit": false,
      "t": 104538.24375000029,
      "d": 184.61500000000524,
      "v": 80
    },
    {
      "midi": 74,
      "hit": false,
      "t": 104769.01250000029,
      "d": 369.2299999999959,
      "v": 96
    },
    {
      "midi": 45,
      "hit": false,
      "t": 105230.54999999994,
      "d": 1661.5350000000035,
      "v": 90
    },
    {
      "midi": 55,
      "hit": false,
      "t": 105230.54999999996,
      "d": 1307.6895833333401,
      "v": 67
    },
    {
      "midi": 60,
      "hit": false,
      "t": 105230.54999999996,
      "d": 1307.6895833333401,
      "v": 63
    },
    {
      "midi": 64,
      "hit": false,
      "t": 105230.55000000028,
      "d": 738.4600000000064,
      "v": 79
    },
    {
      "midi": 67,
      "hit": false,
      "t": 105230.55000000028,
      "d": 738.4600000000064,
      "v": 90
    },
    {
      "midi": 72,
      "hit": false,
      "t": 105230.55000000028,
      "d": 738.4600000000064,
      "v": 93
    },
    {
      "midi": 52,
      "hit": false,
      "t": 105461.31874999995,
      "d": 184.61500000000524,
      "v": 96
    },
    {
      "midi": 55,
      "hit": false,
      "t": 105692.08749999995,
      "d": 184.61500000000524,
      "v": 92
    },
    {
      "midi": 60,
      "hit": false,
      "t": 105922.85624999995,
      "d": 923.0749999999971,
      "v": 89
    },
    {
      "midi": 76,
      "hit": false,
      "t": 106153.62500000029,
      "d": 184.61500000000524,
      "v": 101
    },
    {
      "midi": 79,
      "hit": false,
      "t": 106153.62500000029,
      "d": 184.61500000000524,
      "v": 86
    },
    {
      "midi": 74,
      "hit": false,
      "t": 106384.3937500003,
      "d": 184.61500000000524,
      "v": 90
    },
    {
      "midi": 78,
      "hit": false,
      "t": 106384.3937500003,
      "d": 184.61500000000524,
      "v": 83
    },
    {
      "midi": 59,
      "hit": false,
      "t": 106615.16249999996,
      "d": 2292.3029166666674,
      "v": 52
    },
    {
      "midi": 66,
      "hit": false,
      "t": 106615.16249999996,
      "d": 2292.3029166666674,
      "v": 73
    },
    {
      "midi": 69,
      "hit": false,
      "t": 106615.16249999996,
      "d": 2292.3029166666674,
      "v": 58
    },
    {
      "midi": 72,
      "hit": false,
      "t": 106615.1625000003,
      "d": 369.2299999999959,
      "v": 91
    },
    {
      "midi": 76,
      "hit": false,
      "t": 106615.1625000003,
      "d": 369.2299999999959,
      "v": 88
    },
    {
      "midi": 43,
      "hit": false,
      "t": 107076.69999999995,
      "d": 1661.5350000000035,
      "v": 97
    },
    {
      "midi": 71,
      "hit": false,
      "t": 107076.70000000029,
      "d": 738.4600000000064,
      "v": 90
    },
    {
      "midi": 74,
      "hit": false,
      "t": 107076.70000000029,
      "d": 738.4600000000064,
      "v": 89
    },
    {
      "midi": 78,
      "hit": false,
      "t": 107076.70000000029,
      "d": 738.4600000000064,
      "v": 83
    },
    {
      "midi": 50,
      "hit": false,
      "t": 107307.46874999996,
      "d": 184.61500000000524,
      "v": 76
    },
    {
      "midi": 55,
      "hit": false,
      "t": 107538.23749999996,
      "d": 184.61500000000524,
      "v": 91
    },
    {
      "midi": 59,
      "hit": false,
      "t": 107769.00624999996,
      "d": 923.0749999999971,
      "v": 102
    },
    {
      "midi": 62,
      "hit": false,
      "t": 107999.77499999997,
      "d": 923.0749999999971,
      "v": 50
    },
    {
      "midi": 66,
      "hit": false,
      "t": 107999.7750000003,
      "d": 369.2299999999959,
      "v": 83
    },
    {
      "midi": 71,
      "hit": false,
      "t": 107999.7750000003,
      "d": 369.2299999999959,
      "v": 90
    },
    {
      "midi": 74,
      "hit": false,
      "t": 107999.7750000003,
      "d": 369.2299999999959,
      "v": 89
    },
    {
      "midi": 62,
      "hit": false,
      "t": 108461.31250000029,
      "d": 369.2299999999959,
      "v": 104
    },
    {
      "midi": 66,
      "hit": false,
      "t": 108461.31250000029,
      "d": 369.2299999999959,
      "v": 93
    },
    {
      "midi": 71,
      "hit": false,
      "t": 108461.31250000029,
      "d": 369.2299999999959,
      "v": 90
    },
    {
      "midi": 42,
      "hit": false,
      "t": 108922.84999999996,
      "d": 184.61500000000524,
      "v": 95
    },
    {
      "midi": 57,
      "hit": false,
      "t": 108922.84999999996,
      "d": 1846.1499999999942,
      "v": 52
    },
    {
      "midi": 64,
      "hit": false,
      "t": 108922.84999999996,
      "d": 1846.1499999999942,
      "v": 73
    },
    {
      "midi": 66,
      "hit": false,
      "t": 108922.84999999996,
      "d": 1846.1499999999942,
      "v": 58
    },
    {
      "midi": 61,
      "hit": false,
      "t": 108922.85000000028,
      "d": 1807.6885416666628,
      "v": 90
    },
    {
      "midi": 64,
      "hit": false,
      "t": 108922.85000000028,
      "d": 1807.6885416666628,
      "v": 84
    },
    {
      "midi": 69,
      "hit": false,
      "t": 108922.85000000028,
      "d": 1807.6885416666628,
      "v": 90
    },
    {
      "midi": 49,
      "hit": false,
      "t": 109153.61874999997,
      "d": 184.61500000000524,
      "v": 80
    },
    {
      "midi": 52,
      "hit": false,
      "t": 109384.38749999997,
      "d": 184.61500000000524,
      "v": 97
    },
    {
      "midi": 57,
      "hit": false,
      "t": 109615.15624999997,
      "d": 1107.6899999999878,
      "v": 83
    },
    {
      "midi": 61,
      "hit": false,
      "t": 109845.92499999996,
      "d": 923.0749999999971,
      "v": 50
    },
    {
      "midi": 42,
      "hit": false,
      "t": 109845.92499999997,
      "d": 369.2299999999959,
      "v": 87
    },
    {
      "midi": 49,
      "hit": false,
      "t": 110307.46249999997,
      "d": 369.2299999999959,
      "v": 94
    },
    {
      "midi": 40,
      "hit": false,
      "t": 110768.99999999996,
      "d": 1476.9199999999983,
      "v": 92
    },
    {
      "midi": 55,
      "hit": false,
      "t": 110768.99999999996,
      "d": 1476.9199999999983,
      "v": 86
    },
    {
      "midi": 59,
      "hit": false,
      "t": 110769.00000000028,
      "d": 1476.9199999999983,
      "v": 89
    },
    {
      "midi": 62,
      "hit": false,
      "t": 110769.00000000028,
      "d": 1476.9199999999983,
      "v": 83
    },
    {
      "midi": 45,
      "hit": false,
      "t": 112615.14999999995,
      "d": 1476.9199999999983,
      "v": 79
    },
    {
      "midi": 55,
      "hit": false,
      "t": 112615.14999999995,
      "d": 1476.9199999999983,
      "v": 90
    },
    {
      "midi": 59,
      "hit": false,
      "t": 112615.15000000027,
      "d": 738.4600000000064,
      "v": 90
    },
    {
      "midi": 62,
      "hit": false,
      "t": 112615.15000000027,
      "d": 738.4600000000064,
      "v": 85
    },
    {
      "midi": 59,
      "hit": false,
      "t": 113538.22500000028,
      "d": 738.4600000000064,
      "v": 103
    },
    {
      "midi": 61,
      "hit": false,
      "t": 113538.22500000028,
      "d": 738.4600000000064,
      "v": 87
    },
    {
      "midi": 42,
      "hit": false,
      "t": 114461.29999999994,
      "d": 1476.9199999999983,
      "v": 81
    },
    {
      "midi": 59,
      "hit": false,
      "t": 114461.3000000003,
      "d": 369.2299999999959,
      "v": 87
    },
    {
      "midi": 64,
      "hit": false,
      "t": 114461.3000000003,
      "d": 369.2299999999959,
      "v": 89
    },
    {
      "midi": 66,
      "hit": false,
      "t": 114461.3000000003,
      "d": 369.2299999999959,
      "v": 99
    },
    {
      "midi": 58,
      "hit": false,
      "t": 115153.60625000029,
      "d": 653.8447916666628,
      "v": 91
    },
    {
      "midi": 64,
      "hit": false,
      "t": 115153.60625000029,
      "d": 653.8447916666628,
      "v": 85
    },
    {
      "midi": 66,
      "hit": false,
      "t": 115153.60625000029,
      "d": 653.8447916666628,
      "v": 98
    },
    {
      "midi": 47,
      "hit": false,
      "t": 116307.44999999994,
      "d": 1292.304999999993,
      "v": 88
    },
    {
      "midi": 54,
      "hit": false,
      "t": 116307.44999999994,
      "d": 1292.304999999993,
      "v": 90
    },
    {
      "midi": 57,
      "hit": false,
      "t": 116768.98750000028,
      "d": 184.61500000000524,
      "v": 92
    },
    {
      "midi": 62,
      "hit": false,
      "t": 116999.75625000028,
      "d": 184.61500000000524,
      "v": 90
    },
    {
      "midi": 69,
      "hit": false,
      "t": 117230.52500000029,
      "d": 369.2299999999959,
      "v": 102
    },
    {
      "midi": 66,
      "hit": false,
      "t": 117692.06250000028,
      "d": 369.2299999999959,
      "v": 96
    },
    {
      "midi": 47,
      "hit": false,
      "t": 117922.83124999993,
      "d": 184.61500000000524,
      "v": 91
    },
    {
      "midi": 40,
      "hit": false,
      "t": 118153.59999999993,
      "d": 1476.9199999999983,
      "v": 88
    },
    {
      "midi": 55,
      "hit": false,
      "t": 118153.59999999993,
      "d": 1476.9199999999983,
      "v": 80
    },
    {
      "midi": 59,
      "hit": false,
      "t": 118153.60000000027,
      "d": 1476.9199999999983,
      "v": 101
    },
    {
      "midi": 45,
      "hit": false,
      "t": 119999.74999999993,
      "d": 1476.9199999999983,
      "v": 84
    },
    {
      "midi": 55,
      "hit": false,
      "t": 119999.74999999993,
      "d": 1476.9199999999983,
      "v": 88
    },
    {
      "midi": 59,
      "hit": false,
      "t": 119999.75000000026,
      "d": 738.4600000000064,
      "v": 83
    },
    {
      "midi": 62,
      "hit": false,
      "t": 119999.75000000026,
      "d": 738.4600000000064,
      "v": 84
    },
    {
      "midi": 59,
      "hit": false,
      "t": 120922.82500000027,
      "d": 738.4600000000064,
      "v": 90
    },
    {
      "midi": 61,
      "hit": false,
      "t": 120922.82500000027,
      "d": 738.4600000000064,
      "v": 90
    },
    {
      "midi": 54,
      "hit": false,
      "t": 121845.89999999992,
      "d": 738.4600000000064,
      "v": 90
    },
    {
      "midi": 59,
      "hit": false,
      "t": 121845.89999999992,
      "d": 738.4600000000064,
      "v": 86
    },
    {
      "midi": 64,
      "hit": false,
      "t": 121845.90000000029,
      "d": 1476.9199999999983,
      "v": 84
    },
    {
      "midi": 54,
      "hit": false,
      "t": 122768.97499999993,
      "d": 738.4600000000064,
      "v": 103
    },
    {
      "midi": 58,
      "hit": false,
      "t": 122768.97499999993,
      "d": 738.4600000000064,
      "v": 86
    },
    {
      "midi": 47,
      "hit": false,
      "t": 123692.04999999994,
      "d": 738.4600000000064,
      "v": 76
    },
    {
      "midi": 57,
      "hit": false,
      "t": 123692.04999999994,
      "d": 738.4600000000064,
      "v": 87
    },
    {
      "midi": 62,
      "hit": false,
      "t": 123692.05000000028,
      "d": 738.4600000000064,
      "v": 99
    },
    {
      "midi": 66,
      "hit": false,
      "t": 123692.05000000028,
      "d": 738.4600000000064,
      "v": 81
    },
    {
      "midi": 47,
      "hit": false,
      "t": 124615.12499999996,
      "d": 738.4600000000064,
      "v": 85
    },
    {
      "midi": 55,
      "hit": false,
      "t": 124615.12499999996,
      "d": 738.4600000000064,
      "v": 90
    },
    {
      "midi": 60,
      "hit": false,
      "t": 124615.12500000029,
      "d": 423.0760416666599,
      "v": 92
    },
    {
      "midi": 64,
      "hit": false,
      "t": 124615.12500000029,
      "d": 423.0760416666599,
      "v": 91
    },
    {
      "midi": 45,
      "hit": false,
      "t": 125538.19999999997,
      "d": 184.61500000000524,
      "v": 94
    },
    {
      "midi": 62,
      "hit": false,
      "t": 125538.20000000029,
      "d": 1476.9199999999983,
      "v": 93
    },
    {
      "midi": 50,
      "hit": false,
      "t": 125768.96874999997,
      "d": 184.61500000000524,
      "v": 99
    },
    {
      "midi": 59,
      "hit": false,
      "t": 125999.73749999997,
      "d": 369.2299999999959,
      "v": 94
    },
    {
      "midi": 50,
      "hit": false,
      "t": 126461.27499999997,
      "d": 369.2299999999959,
      "v": 79
    },
    {
      "midi": 43,
      "hit": false,
      "t": 126922.81249999996,
      "d": 369.2299999999959,
      "v": 86
    },
    {
      "midi": 45,
      "hit": false,
      "t": 127384.34999999995,
      "d": 1476.9199999999983,
      "v": 86
    },
    {
      "midi": 55,
      "hit": false,
      "t": 127384.34999999995,
      "d": 1476.9199999999983,
      "v": 90
    },
    {
      "midi": 62,
      "hit": false,
      "t": 127384.35000000028,
      "d": 738.4600000000064,
      "v": 90
    },
    {
      "midi": 61,
      "hit": false,
      "t": 128307.4250000003,
      "d": 423.0760416666599,
      "v": 90
    },
    {
      "midi": 54,
      "hit": false,
      "t": 129230.49999999994,
      "d": 738.4600000000064,
      "v": 91
    },
    {
      "midi": 59,
      "hit": false,
      "t": 129230.49999999994,
      "d": 738.4600000000064,
      "v": 82
    },
    {
      "midi": 64,
      "hit": false,
      "t": 129230.50000000029,
      "d": 1476.9199999999983,
      "v": 93
    },
    {
      "midi": 54,
      "hit": false,
      "t": 130153.57499999995,
      "d": 738.4600000000064,
      "v": 89
    },
    {
      "midi": 58,
      "hit": false,
      "t": 130153.57499999995,
      "d": 738.4600000000064,
      "v": 88
    },
    {
      "midi": 47,
      "hit": false,
      "t": 131076.64999999997,
      "d": 738.4599999999919,
      "v": 89
    },
    {
      "midi": 57,
      "hit": false,
      "t": 131076.64999999997,
      "d": 738.4599999999919,
      "v": 86
    },
    {
      "midi": 62,
      "hit": false,
      "t": 131076.65000000029,
      "d": 738.4599999999919,
      "v": 90
    },
    {
      "midi": 66,
      "hit": false,
      "t": 131076.65000000029,
      "d": 738.4599999999919,
      "v": 90
    },
    {
      "midi": 45,
      "hit": false,
      "t": 131999.72499999995,
      "d": 738.4599999999919,
      "v": 86
    },
    {
      "midi": 55,
      "hit": false,
      "t": 131999.72499999995,
      "d": 738.4599999999919,
      "v": 100
    },
    {
      "midi": 60,
      "hit": false,
      "t": 131999.72500000027,
      "d": 423.0760416666744,
      "v": 90
    },
    {
      "midi": 64,
      "hit": false,
      "t": 131999.72500000027,
      "d": 423.0760416666744,
      "v": 92
    },
    {
      "midi": 43,
      "hit": false,
      "t": 132922.79999999993,
      "d": 738.4599999999919,
      "v": 100
    },
    {
      "midi": 59,
      "hit": false,
      "t": 132922.79999999993,
      "d": 738.4599999999919,
      "v": 90
    },
    {
      "midi": 62,
      "hit": false,
      "t": 132922.80000000028,
      "d": 738.4599999999919,
      "v": 88
    },
    {
      "midi": 66,
      "hit": false,
      "t": 132922.80000000028,
      "d": 738.4599999999919,
      "v": 85
    },
    {
      "midi": 45,
      "hit": false,
      "t": 133845.8749999999,
      "d": 738.4599999999919,
      "v": 90
    },
    {
      "midi": 55,
      "hit": false,
      "t": 133845.8749999999,
      "d": 738.4599999999919,
      "v": 101
    },
    {
      "midi": 62,
      "hit": false,
      "t": 133845.87500000026,
      "d": 369.2300000000105,
      "v": 85
    },
    {
      "midi": 61,
      "hit": false,
      "t": 134307.41250000027,
      "d": 369.2300000000105,
      "v": 76
    },
    {
      "midi": 42,
      "hit": false,
      "t": 134768.9499999999,
      "d": 738.4599999999919,
      "v": 79
    },
    {
      "midi": 57,
      "hit": false,
      "t": 134768.9499999999,
      "d": 738.4599999999919,
      "v": 89
    },
    {
      "midi": 64,
      "hit": false,
      "t": 134768.95000000027,
      "d": 738.4599999999919,
      "v": 90
    },
    {
      "midi": 47,
      "hit": false,
      "t": 135692.02499999988,
      "d": 738.4599999999919,
      "v": 75
    },
    {
      "midi": 57,
      "hit": false,
      "t": 135692.02499999988,
      "d": 738.4599999999919,
      "v": 90
    },
    {
      "midi": 62,
      "hit": false,
      "t": 135692.02500000026,
      "d": 738.4599999999919,
      "v": 87
    },
    {
      "midi": 40,
      "hit": false,
      "t": 136615.09999999986,
      "d": 553.8450000000012,
      "v": 94
    },
    {
      "midi": 55,
      "hit": false,
      "t": 136615.09999999986,
      "d": 553.8450000000012,
      "v": 87
    },
    {
      "midi": 62,
      "hit": false,
      "t": 136615.10000000024,
      "d": 553.8450000000012,
      "v": 101
    },
    {
      "midi": 45,
      "hit": false,
      "t": 137307.40624999985,
      "d": 923.0750000000116,
      "v": 95
    },
    {
      "midi": 55,
      "hit": false,
      "t": 137307.40624999985,
      "d": 923.0750000000116,
      "v": 91
    },
    {
      "midi": 59,
      "hit": false,
      "t": 137307.40625000023,
      "d": 923.0750000000116,
      "v": 92
    },
    {
      "midi": 50,
      "hit": false,
      "t": 138461.24999999985,
      "d": 738.4599999999919,
      "v": 103
    },
    {
      "midi": 64,
      "hit": false,
      "t": 138461.25000000023,
      "d": 553.8450000000012,
      "v": 87
    },
    {
      "midi": 67,
      "hit": false,
      "t": 138461.25000000023,
      "d": 553.8450000000012,
      "v": 90
    },
    {
      "midi": 62,
      "hit": false,
      "t": 139153.55625000023,
      "d": 553.8450000000012,
      "v": 90
    },
    {
      "midi": 66,
      "hit": false,
      "t": 139153.55625000023,
      "d": 553.8450000000012,
      "v": 89
    },
    {
      "midi": 50,
      "hit": false,
      "t": 139384.32499999984,
      "d": 369.2300000000105,
      "v": 95
    },
    {
      "midi": 50,
      "hit": false,
      "t": 139845.86249999984,
      "d": 369.2300000000105,
      "v": 87
    },
    {
      "midi": 61,
      "hit": false,
      "t": 139845.86250000022,
      "d": 738.4599999999919,
      "v": 77
    },
    {
      "midi": 64,
      "hit": false,
      "t": 139845.86250000022,
      "d": 738.4599999999919,
      "v": 93
    },
    {
      "midi": 50,
      "hit": false,
      "t": 140307.39999999985,
      "d": 738.4599999999919,
      "v": 86
    },
    {
      "midi": 62,
      "hit": false,
      "t": 140768.9375000002,
      "d": 1107.6900000000023,
      "v": 95
    },
    {
      "midi": 66,
      "hit": false,
      "t": 140768.9375000002,
      "d": 1107.6900000000023,
      "v": 90
    },
    {
      "midi": 50,
      "hit": false,
      "t": 141230.47499999983,
      "d": 369.2300000000105,
      "v": 78
    },
    {
      "midi": 49,
      "hit": false,
      "t": 141692.01249999984,
      "d": 369.2300000000105,
      "v": 92
    },
    {
      "midi": 47,
      "hit": false,
      "t": 142153.54999999984,
      "d": 1476.9200000000128,
      "v": 90
    },
    {
      "midi": 57,
      "hit": false,
      "t": 142153.54999999996,
      "d": 1846.1500000000233,
      "v": 52
    },
    {
      "midi": 62,
      "hit": false,
      "t": 142153.54999999996,
      "d": 1846.1500000000233,
      "v": 73
    },
    {
      "midi": 66,
      "hit": false,
      "t": 142153.54999999996,
      "d": 1846.1500000000233,
      "v": 58
    },
    {
      "midi": 62,
      "hit": false,
      "t": 142153.5500000002,
      "d": 1476.9200000000128,
      "v": 91
    },
    {
      "midi": 66,
      "hit": false,
      "t": 142153.5500000002,
      "d": 1476.9200000000128,
      "v": 90
    },
    {
      "midi": 69,
      "hit": false,
      "t": 142153.5500000002,
      "d": 1476.9200000000128,
      "v": 88
    },
    {
      "midi": 59,
      "hit": false,
      "t": 143076.62499999997,
      "d": 923.0750000000116,
      "v": 50
    },
    {
      "midi": 40,
      "hit": false,
      "t": 143999.69999999987,
      "d": 1476.9200000000128,
      "v": 99
    },
    {
      "midi": 62,
      "hit": false,
      "t": 143999.69999999998,
      "d": 138.46124999999302,
      "v": 34
    },
    {
      "midi": 57,
      "hit": false,
      "t": 143999.69999999998,
      "d": 738.4599999999919,
      "v": 58
    },
    {
      "midi": 59,
      "hit": false,
      "t": 143999.69999999998,
      "d": 1846.1499999999942,
      "v": 39
    },
    {
      "midi": 66,
      "hit": false,
      "t": 143999.69999999998,
      "d": 1846.1499999999942,
      "v": 66
    },
    {
      "midi": 62,
      "hit": false,
      "t": 143999.70000000022,
      "d": 738.4599999999919,
      "v": 80
    },
    {
      "midi": 66,
      "hit": false,
      "t": 143999.70000000022,
      "d": 738.4599999999919,
      "v": 94
    },
    {
      "midi": 69,
      "hit": false,
      "t": 143999.70000000022,
      "d": 738.4599999999919,
      "v": 87
    },
    {
      "midi": 57,
      "hit": false,
      "t": 144922.77499999997,
      "d": 923.0750000000116,
      "v": 64
    },
    {
      "midi": 66,
      "hit": false,
      "t": 144922.7750000002,
      "d": 738.4599999999919,
      "v": 102
    },
    {
      "midi": 69,
      "hit": false,
      "t": 144922.7750000002,
      "d": 738.4599999999919,
      "v": 96
    },
    {
      "midi": 62,
      "hit": false,
      "t": 145384.31249999997,
      "d": 461.5375000000058,
      "v": 51
    },
    {
      "midi": 45,
      "hit": false,
      "t": 145845.8499999999,
      "d": 1107.6900000000023,
      "v": 102
    },
    {
      "midi": 56,
      "hit": false,
      "t": 145845.84999999998,
      "d": 1846.1499999999942,
      "v": 67
    },
    {
      "midi": 61,
      "hit": false,
      "t": 145845.84999999998,
      "d": 1846.1499999999942,
      "v": 63
    },
    {
      "midi": 64,
      "hit": false,
      "t": 145845.85000000018,
      "d": 738.4599999999919,
      "v": 82
    },
    {
      "midi": 68,
      "hit": false,
      "t": 145845.85000000018,
      "d": 738.4599999999919,
      "v": 89
    },
    {
      "midi": 64,
      "hit": false,
      "t": 146768.92500000016,
      "d": 738.4599999999919,
      "v": 95
    },
    {
      "midi": 68,
      "hit": false,
      "t": 146768.92500000016,
      "d": 738.4599999999919,
      "v": 77
    },
    {
      "midi": 45,
      "hit": false,
      "t": 147230.46249999988,
      "d": 369.2300000000105,
      "v": 89
    },
    {
      "midi": 50,
      "hit": false,
      "t": 147691.99999999988,
      "d": 1107.6900000000023,
      "v": 94
    },
    {
      "midi": 61,
      "hit": false,
      "t": 147691.99999999997,
      "d": 1846.1500000000233,
      "v": 52
    },
    {
      "midi": 66,
      "hit": false,
      "t": 147691.99999999997,
      "d": 1846.1500000000233,
      "v": 73
    },
    {
      "midi": 69,
      "hit": false,
      "t": 147691.99999999997,
      "d": 1846.1500000000233,
      "v": 58
    },
    {
      "midi": 61,
      "hit": false,
      "t": 147692.00000000015,
      "d": 738.4599999999919,
      "v": 93
    },
    {
      "midi": 66,
      "hit": false,
      "t": 147692.00000000015,
      "d": 738.4599999999919,
      "v": 91
    },
    {
      "midi": 69,
      "hit": false,
      "t": 147692.00000000015,
      "d": 738.4599999999919,
      "v": 87
    },
    {
      "midi": 62,
      "hit": false,
      "t": 148615.07499999998,
      "d": 923.0750000000116,
      "v": 50
    },
    {
      "midi": 61,
      "hit": false,
      "t": 148615.07500000013,
      "d": 738.4599999999919,
      "v": 101
    },
    {
      "midi": 66,
      "hit": false,
      "t": 148615.07500000013,
      "d": 738.4599999999919,
      "v": 91
    },
    {
      "midi": 69,
      "hit": false,
      "t": 148615.07500000013,
      "d": 738.4599999999919,
      "v": 95
    },
    {
      "midi": 49,
      "hit": false,
      "t": 149076.61249999987,
      "d": 369.2300000000105,
      "v": 91
    },
    {
      "midi": 47,
      "hit": false,
      "t": 149538.14999999988,
      "d": 1476.9200000000128,
      "v": 99
    },
    {
      "midi": 57,
      "hit": false,
      "t": 149538.15,
      "d": 1846.1499999999942,
      "v": 67
    },
    {
      "midi": 62,
      "hit": false,
      "t": 149538.15,
      "d": 1846.1499999999942,
      "v": 63
    },
    {
      "midi": 62,
      "hit": false,
      "t": 149538.1500000001,
      "d": 738.4599999999919,
      "v": 81
    },
    {
      "midi": 66,
      "hit": false,
      "t": 149538.1500000001,
      "d": 738.4599999999919,
      "v": 89
    },
    {
      "midi": 62,
      "hit": false,
      "t": 150461.2250000001,
      "d": 738.4599999999919,
      "v": 79
    },
    {
      "midi": 66,
      "hit": false,
      "t": 150461.2250000001,
      "d": 738.4599999999919,
      "v": 90
    },
    {
      "midi": 49,
      "hit": false,
      "t": 151384.2999999999,
      "d": 1107.6900000000023,
      "v": 81
    },
    {
      "midi": 59,
      "hit": false,
      "t": 151384.3,
      "d": 923.0750000000116,
      "v": 67
    },
    {
      "midi": 65,
      "hit": false,
      "t": 151384.3,
      "d": 923.0750000000116,
      "v": 63
    },
    {
      "midi": 62,
      "hit": false,
      "t": 151384.30000000008,
      "d": 738.4599999999919,
      "v": 89
    },
    {
      "midi": 65,
      "hit": false,
      "t": 151384.30000000008,
      "d": 738.4599999999919,
      "v": 90
    },
    {
      "midi": 56,
      "hit": false,
      "t": 152307.375,
      "d": 923.0750000000116,
      "v": 67
    },
    {
      "midi": 65,
      "hit": false,
      "t": 152307.375,
      "d": 923.0750000000116,
      "v": 63
    },
    {
      "midi": 61,
      "hit": false,
      "t": 152307.37500000006,
      "d": 738.4599999999919,
      "v": 101
    },
    {
      "midi": 65,
      "hit": false,
      "t": 152307.37500000006,
      "d": 738.4599999999919,
      "v": 82
    },
    {
      "midi": 49,
      "hit": false,
      "t": 152768.9124999999,
      "d": 369.2300000000105,
      "v": 93
    },
    {
      "midi": 42,
      "hit": false,
      "t": 153230.4499999999,
      "d": 553.8450000000012,
      "v": 97
    },
    {
      "midi": 57,
      "hit": false,
      "t": 153230.45,
      "d": 615.3833333333314,
      "v": 67
    },
    {
      "midi": 66,
      "hit": false,
      "t": 153230.45,
      "d": 615.3833333333314,
      "v": 63
    },
    {
      "midi": 61,
      "hit": false,
      "t": 153230.45000000004,
      "d": 553.8450000000012,
      "v": 102
    },
    {
      "midi": 66,
      "hit": false,
      "t": 153230.45000000004,
      "d": 553.8450000000012,
      "v": 89
    },
    {
      "midi": 37,
      "hit": false,
      "t": 153922.7562499999,
      "d": 369.2300000000105,
      "v": 90
    },
    {
      "midi": 59,
      "hit": false,
      "t": 153922.75625,
      "d": 615.3833333333314,
      "v": 67
    },
    {
      "midi": 64,
      "hit": false,
      "t": 153922.75625,
      "d": 615.3833333333314,
      "v": 63
    },
    {
      "midi": 64,
      "hit": false,
      "t": 153922.75625000003,
      "d": 553.8450000000012,
      "v": 89
    },
    {
      "midi": 68,
      "hit": false,
      "t": 153922.75625000003,
      "d": 553.8450000000012,
      "v": 88
    },
    {
      "midi": 37,
      "hit": false,
      "t": 154384.2937499999,
      "d": 184.6149999999907,
      "v": 90
    },
    {
      "midi": 42,
      "hit": false,
      "t": 154615.06249999988,
      "d": 738.4599999999919,
      "v": 96
    },
    {
      "midi": 59,
      "hit": false,
      "t": 154615.0625,
      "d": 1369.2279166666558,
      "v": 67
    },
    {
      "midi": 64,
      "hit": false,
      "t": 154615.0625,
      "d": 1369.2279166666558,
      "v": 63
    },
    {
      "midi": 64,
      "hit": false,
      "t": 154615.06250000003,
      "d": 1107.6900000000023,
      "v": 90
    },
    {
      "midi": 71,
      "hit": false,
      "t": 154615.06250000003,
      "d": 1107.6900000000023,
      "v": 86
    },
    {
      "midi": 49,
      "hit": false,
      "t": 155538.13749999987,
      "d": 369.2300000000105,
      "v": 93
    },
    {
      "midi": 54,
      "hit": false,
      "t": 155999.67499999987,
      "d": 184.6149999999907,
      "v": 101
    },
    {
      "midi": 58,
      "hit": false,
      "t": 155999.675,
      "d": 923.0750000000116,
      "v": 67
    },
    {
      "midi": 64,
      "hit": false,
      "t": 155999.675,
      "d": 923.0750000000116,
      "v": 63
    },
    {
      "midi": 64,
      "hit": false,
      "t": 155999.67500000002,
      "d": 738.4599999999919,
      "v": 92
    },
    {
      "midi": 70,
      "hit": false,
      "t": 155999.67500000002,
      "d": 738.4599999999919,
      "v": 99
    },
    {
      "midi": 49,
      "hit": false,
      "t": 156230.44374999986,
      "d": 184.6149999999907,
      "v": 96
    },
    {
      "midi": 42,
      "hit": false,
      "t": 156461.21249999985,
      "d": 369.2300000000105,
      "v": 82
    },
    {
      "midi": 47,
      "hit": false,
      "t": 156922.74999999985,
      "d": 1476.9200000000128,
      "v": 85
    },
    {
      "midi": 62,
      "hit": false,
      "t": 156922.75,
      "d": 738.4599999999919,
      "v": 103
    },
    {
      "midi": 66,
      "hit": false,
      "t": 156922.75,
      "d": 738.4599999999919,
      "v": 93
    },
    {
      "midi": 69,
      "hit": false,
      "t": 156922.75,
      "d": 738.4599999999919,
      "v": 91
    },
    {
      "midi": 57,
      "hit": false,
      "t": 156922.75,
      "d": 1846.1499999999942,
      "v": 67
    },
    {
      "midi": 62,
      "hit": false,
      "t": 156922.75,
      "d": 1846.1499999999942,
      "v": 63
    },
    {
      "midi": 62,
      "hit": false,
      "t": 157845.82499999998,
      "d": 738.4599999999919,
      "v": 86
    },
    {
      "midi": 66,
      "hit": false,
      "t": 157845.82499999998,
      "d": 738.4599999999919,
      "v": 82
    },
    {
      "midi": 69,
      "hit": false,
      "t": 157845.82499999998,
      "d": 738.4599999999919,
      "v": 90
    },
    {
      "midi": 40,
      "hit": false,
      "t": 158768.89999999988,
      "d": 1476.9200000000128,
      "v": 97
    },
    {
      "midi": 66,
      "hit": false,
      "t": 158768.89999999997,
      "d": 738.4599999999919,
      "v": 90
    },
    {
      "midi": 69,
      "hit": false,
      "t": 158768.89999999997,
      "d": 738.4599999999919,
      "v": 103
    },
    {
      "midi": 57,
      "hit": false,
      "t": 158768.9,
      "d": 1846.1499999999942,
      "v": 67
    },
    {
      "midi": 62,
      "hit": false,
      "t": 158768.9,
      "d": 1846.1499999999942,
      "v": 63
    },
    {
      "midi": 66,
      "hit": false,
      "t": 159691.97499999995,
      "d": 738.4599999999919,
      "v": 97
    },
    {
      "midi": 69,
      "hit": false,
      "t": 159691.97499999995,
      "d": 738.4599999999919,
      "v": 76
    },
    {
      "midi": 45,
      "hit": false,
      "t": 160615.0499999999,
      "d": 1107.6900000000023,
      "v": 79
    },
    {
      "midi": 64,
      "hit": false,
      "t": 160615.04999999993,
      "d": 738.4599999999919,
      "v": 99
    },
    {
      "midi": 68,
      "hit": false,
      "t": 160615.04999999993,
      "d": 738.4599999999919,
      "v": 90
    },
    {
      "midi": 56,
      "hit": false,
      "t": 160615.05,
      "d": 1846.1499999999942,
      "v": 67
    },
    {
      "midi": 61,
      "hit": false,
      "t": 160615.05,
      "d": 1846.1499999999942,
      "v": 63
    },
    {
      "midi": 64,
      "hit": false,
      "t": 161538.1249999999,
      "d": 738.4599999999919,
      "v": 99
    },
    {
      "midi": 68,
      "hit": false,
      "t": 161538.1249999999,
      "d": 738.4599999999919,
      "v": 76
    },
    {
      "midi": 45,
      "hit": false,
      "t": 161999.6624999999,
      "d": 369.2300000000105,
      "v": 93
    },
    {
      "midi": 61,
      "hit": false,
      "t": 162461.1999999999,
      "d": 738.4599999999919,
      "v": 101
    },
    {
      "midi": 66,
      "hit": false,
      "t": 162461.1999999999,
      "d": 738.4599999999919,
      "v": 92
    },
    {
      "midi": 69,
      "hit": false,
      "t": 162461.1999999999,
      "d": 738.4599999999919,
      "v": 75
    },
    {
      "midi": 50,
      "hit": false,
      "t": 162461.1999999999,
      "d": 1107.6900000000023,
      "v": 89
    },
    {
      "midi": 61,
      "hit": false,
      "t": 162461.19999999998,
      "d": 1307.6895833333547,
      "v": 52
    },
    {
      "midi": 66,
      "hit": false,
      "t": 162461.19999999998,
      "d": 1307.6895833333547,
      "v": 73
    },
    {
      "midi": 69,
      "hit": false,
      "t": 162461.19999999998,
      "d": 1307.6895833333547,
      "v": 58
    },
    {
      "midi": 61,
      "hit": false,
      "t": 163384.27499999988,
      "d": 738.4599999999919,
      "v": 90
    },
    {
      "midi": 66,
      "hit": false,
      "t": 163384.27499999988,
      "d": 738.4599999999919,
      "v": 88
    },
    {
      "midi": 69,
      "hit": false,
      "t": 163384.27499999988,
      "d": 738.4599999999919,
      "v": 104
    },
    {
      "midi": 62,
      "hit": false,
      "t": 163384.275,
      "d": 384.61458333334303,
      "v": 50
    },
    {
      "midi": 47,
      "hit": false,
      "t": 163845.81249999988,
      "d": 184.6149999999907,
      "v": 91
    },
    {
      "midi": 66,
      "hit": false,
      "t": 163845.8125,
      "d": 584.6141666666663,
      "v": 34
    },
    {
      "midi": 59,
      "hit": false,
      "t": 163845.8125,
      "d": 1184.6129166666651,
      "v": 58
    },
    {
      "midi": 62,
      "hit": false,
      "t": 163845.8125,
      "d": 1769.2270833333314,
      "v": 39
    },
    {
      "midi": 69,
      "hit": false,
      "t": 163845.8125,
      "d": 1769.2270833333314,
      "v": 66
    },
    {
      "midi": 45,
      "hit": false,
      "t": 164076.58124999987,
      "d": 184.6149999999907,
      "v": 79
    },
    {
      "midi": 62,
      "hit": false,
      "t": 164307.34999999986,
      "d": 738.4599999999919,
      "v": 78
    },
    {
      "midi": 66,
      "hit": false,
      "t": 164307.34999999986,
      "d": 738.4599999999919,
      "v": 82
    },
    {
      "midi": 43,
      "hit": false,
      "t": 164307.34999999986,
      "d": 1292.304999999993,
      "v": 76
    },
    {
      "midi": 62,
      "hit": false,
      "t": 165230.42499999984,
      "d": 738.4599999999919,
      "v": 98
    },
    {
      "midi": 66,
      "hit": false,
      "t": 165230.42499999984,
      "d": 738.4599999999919,
      "v": 90
    },
    {
      "midi": 59,
      "hit": false,
      "t": 165230.425,
      "d": 384.61458333334303,
      "v": 64
    },
    {
      "midi": 55,
      "hit": false,
      "t": 165691.9625,
      "d": 1769.2270833333314,
      "v": 52
    },
    {
      "midi": 62,
      "hit": false,
      "t": 165691.9625,
      "d": 1769.2270833333314,
      "v": 73
    },
    {
      "midi": 64,
      "hit": false,
      "t": 165691.9625,
      "d": 1769.2270833333314,
      "v": 58
    },
    {
      "midi": 42,
      "hit": false,
      "t": 165922.73124999987,
      "d": 184.6149999999907,
      "v": 96
    },
    {
      "midi": 62,
      "hit": false,
      "t": 166153.49999999983,
      "d": 738.4599999999919,
      "v": 102
    },
    {
      "midi": 67,
      "hit": false,
      "t": 166153.49999999983,
      "d": 738.4599999999919,
      "v": 90
    },
    {
      "midi": 40,
      "hit": false,
      "t": 166153.49999999985,
      "d": 738.4599999999919,
      "v": 78
    },
    {
      "midi": 62,
      "hit": false,
      "t": 167076.5749999998,
      "d": 738.4599999999919,
      "v": 87
    },
    {
      "midi": 67,
      "hit": false,
      "t": 167076.5749999998,
      "d": 738.4599999999919,
      "v": 88
    },
    {
      "midi": 40,
      "hit": false,
      "t": 167076.57499999984,
      "d": 184.6149999999907,
      "v": 102
    },
    {
      "midi": 59,
      "hit": false,
      "t": 167076.57499999998,
      "d": 384.61458333334303,
      "v": 50
    },
    {
      "midi": 40,
      "hit": false,
      "t": 167307.34374999983,
      "d": 184.6149999999907,
      "v": 90
    },
    {
      "midi": 40,
      "hit": false,
      "t": 167538.1124999998,
      "d": 184.6149999999907,
      "v": 91
    },
    {
      "midi": 58,
      "hit": false,
      "t": 167538.1125,
      "d": 2292.3029166666674,
      "v": 52
    },
    {
      "midi": 64,
      "hit": false,
      "t": 167538.1125,
      "d": 2292.3029166666674,
      "v": 73
    },
    {
      "midi": 66,
      "hit": false,
      "t": 167538.1125,
      "d": 2292.3029166666674,
      "v": 58
    },
    {
      "midi": 40,
      "hit": false,
      "t": 167768.8812499998,
      "d": 184.6149999999907,
      "v": 94
    },
    {
      "midi": 64,
      "hit": false,
      "t": 167999.6499999998,
      "d": 738.4599999999919,
      "v": 87
    },
    {
      "midi": 70,
      "hit": false,
      "t": 167999.6499999998,
      "d": 738.4599999999919,
      "v": 90
    },
    {
      "midi": 42,
      "hit": false,
      "t": 167999.6499999998,
      "d": 1292.304999999993,
      "v": 90
    },
    {
      "midi": 64,
      "hit": false,
      "t": 168922.72499999977,
      "d": 738.4599999999919,
      "v": 98
    },
    {
      "midi": 70,
      "hit": false,
      "t": 168922.72499999977,
      "d": 738.4599999999919,
      "v": 91
    },
    {
      "midi": 61,
      "hit": false,
      "t": 168922.72499999998,
      "d": 923.0750000000116,
      "v": 50
    },
    {
      "midi": 37,
      "hit": false,
      "t": 169615.0312499998,
      "d": 184.6149999999907,
      "v": 85
    },
    {
      "midi": 64,
      "hit": false,
      "t": 169845.79999999976,
      "d": 884.6135416666802,
      "v": 79
    },
    {
      "midi": 67,
      "hit": false,
      "t": 169845.79999999976,
      "d": 884.6135416666802,
      "v": 81
    },
    {
      "midi": 70,
      "hit": false,
      "t": 169845.79999999976,
      "d": 884.6135416666802,
      "v": 90
    },
    {
      "midi": 42,
      "hit": false,
      "t": 169845.79999999978,
      "d": 738.4599999999919,
      "v": 92
    },
    {
      "midi": 58,
      "hit": false,
      "t": 169845.8,
      "d": 1846.1499999999942,
      "v": 67
    },
    {
      "midi": 64,
      "hit": false,
      "t": 169845.8,
      "d": 1846.1499999999942,
      "v": 63
    },
    {
      "midi": 42,
      "hit": false,
      "t": 170768.87499999977,
      "d": 738.4599999999919,
      "v": 89
    },
    {
      "midi": 35,
      "hit": false,
      "t": 171691.94999999975,
      "d": 1107.6900000000023,
      "v": 97
    },
    {
      "midi": 62,
      "hit": false,
      "t": 171691.94999999978,
      "d": 738.4599999999919,
      "v": 98
    },
    {
      "midi": 66,
      "hit": false,
      "t": 171691.94999999978,
      "d": 738.4599999999919,
      "v": 105
    },
    {
      "midi": 69,
      "hit": false,
      "t": 171691.94999999978,
      "d": 738.4599999999919,
      "v": 90
    },
    {
      "midi": 57,
      "hit": false,
      "t": 171691.94999999998,
      "d": 1846.1499999999942,
      "v": 67
    },
    {
      "midi": 62,
      "hit": false,
      "t": 171691.94999999998,
      "d": 1846.1499999999942,
      "v": 63
    },
    {
      "midi": 66,
      "hit": false,
      "t": 172615.02499999976,
      "d": 738.4599999999919,
      "v": 98
    },
    {
      "midi": 69,
      "hit": false,
      "t": 172615.02499999976,
      "d": 738.4599999999919,
      "v": 90
    },
    {
      "midi": 42,
      "hit": false,
      "t": 173076.56249999974,
      "d": 369.2300000000105,
      "v": 90
    },
    {
      "midi": 66,
      "hit": false,
      "t": 173538.09999999974,
      "d": 738.4599999999919,
      "v": 90
    },
    {
      "midi": 69,
      "hit": false,
      "t": 173538.09999999974,
      "d": 738.4599999999919,
      "v": 94
    },
    {
      "midi": 74,
      "hit": false,
      "t": 173538.09999999974,
      "d": 738.4599999999919,
      "v": 90
    },
    {
      "midi": 40,
      "hit": false,
      "t": 173538.09999999974,
      "d": 1107.6900000000023,
      "v": 75
    },
    {
      "midi": 57,
      "hit": false,
      "t": 173538.09999999998,
      "d": 1846.1499999999942,
      "v": 67
    },
    {
      "midi": 62,
      "hit": false,
      "t": 173538.09999999998,
      "d": 1846.1499999999942,
      "v": 63
    },
    {
      "midi": 66,
      "hit": false,
      "t": 174461.17499999973,
      "d": 738.4599999999919,
      "v": 92
    },
    {
      "midi": 69,
      "hit": false,
      "t": 174461.17499999973,
      "d": 738.4599999999919,
      "v": 79
    },
    {
      "midi": 40,
      "hit": false,
      "t": 174922.71249999973,
      "d": 369.2300000000105,
      "v": 98
    },
    {
      "midi": 64,
      "hit": false,
      "t": 175384.2499999997,
      "d": 738.4599999999919,
      "v": 78
    },
    {
      "midi": 68,
      "hit": false,
      "t": 175384.2499999997,
      "d": 738.4599999999919,
      "v": 90
    },
    {
      "midi": 45,
      "hit": false,
      "t": 175384.24999999974,
      "d": 1107.6900000000023,
      "v": 86
    },
    {
      "midi": 56,
      "hit": false,
      "t": 175384.24999999997,
      "d": 1846.1499999999942,
      "v": 67
    },
    {
      "midi": 61,
      "hit": false,
      "t": 175384.24999999997,
      "d": 1846.1499999999942,
      "v": 63
    },
    {
      "midi": 64,
      "hit": false,
      "t": 176307.3249999997,
      "d": 738.4599999999919,
      "v": 90
    },
    {
      "midi": 68,
      "hit": false,
      "t": 176307.3249999997,
      "d": 738.4599999999919,
      "v": 92
    },
    {
      "midi": 47,
      "hit": false,
      "t": 176768.86249999973,
      "d": 184.6149999999907,
      "v": 78
    },
    {
      "midi": 49,
      "hit": false,
      "t": 176999.63124999971,
      "d": 184.6149999999907,
      "v": 94
    },
    {
      "midi": 61,
      "hit": false,
      "t": 177230.39999999967,
      "d": 738.4599999999919,
      "v": 90
    },
    {
      "midi": 66,
      "hit": false,
      "t": 177230.39999999967,
      "d": 738.4599999999919,
      "v": 97
    },
    {
      "midi": 69,
      "hit": false,
      "t": 177230.39999999967,
      "d": 738.4599999999919,
      "v": 90
    },
    {
      "midi": 50,
      "hit": false,
      "t": 177230.3999999997,
      "d": 1107.6900000000023,
      "v": 88
    },
    {
      "midi": 61,
      "hit": false,
      "t": 177230.39999999997,
      "d": 1846.1499999999942,
      "v": 67
    },
    {
      "midi": 66,
      "hit": false,
      "t": 177230.39999999997,
      "d": 1846.1499999999942,
      "v": 63
    },
    {
      "midi": 61,
      "hit": false,
      "t": 178153.47499999966,
      "d": 738.4599999999919,
      "v": 91
    },
    {
      "midi": 66,
      "hit": false,
      "t": 178153.47499999966,
      "d": 738.4599999999919,
      "v": 103
    },
    {
      "midi": 69,
      "hit": false,
      "t": 178153.47499999966,
      "d": 738.4599999999919,
      "v": 88
    },
    {
      "midi": 49,
      "hit": false,
      "t": 178615.0124999997,
      "d": 369.2300000000105,
      "v": 79
    },
    {
      "midi": 62,
      "hit": false,
      "t": 179076.54999999964,
      "d": 738.4599999999919,
      "v": 90
    },
    {
      "midi": 66,
      "hit": false,
      "t": 179076.54999999964,
      "d": 738.4599999999919,
      "v": 78
    },
    {
      "midi": 47,
      "hit": false,
      "t": 179076.5499999997,
      "d": 1476.9200000000128,
      "v": 99
    },
    {
      "midi": 62,
      "hit": false,
      "t": 179076.54999999996,
      "d": 138.46124999999302,
      "v": 34
    },
    {
      "midi": 57,
      "hit": false,
      "t": 179076.54999999996,
      "d": 738.4599999999919,
      "v": 58
    },
    {
      "midi": 59,
      "hit": false,
      "t": 179076.54999999996,
      "d": 1846.1499999999942,
      "v": 39
    },
    {
      "midi": 66,
      "hit": false,
      "t": 179076.54999999996,
      "d": 1846.1499999999942,
      "v": 66
    },
    {
      "midi": 62,
      "hit": false,
      "t": 179999.62499999962,
      "d": 738.4599999999919,
      "v": 98
    },
    {
      "midi": 66,
      "hit": false,
      "t": 179999.62499999962,
      "d": 738.4599999999919,
      "v": 83
    },
    {
      "midi": 57,
      "hit": false,
      "t": 179999.62499999994,
      "d": 923.0750000000116,
      "v": 64
    },
    {
      "midi": 62,
      "hit": false,
      "t": 180461.16249999995,
      "d": 461.5375000000058,
      "v": 51
    },
    {
      "midi": 65,
      "hit": false,
      "t": 180922.6999999996,
      "d": 738.4599999999919,
      "v": 92
    },
    {
      "midi": 71,
      "hit": false,
      "t": 180922.6999999996,
      "d": 738.4599999999919,
      "v": 90
    },
    {
      "midi": 49,
      "hit": false,
      "t": 180922.69999999972,
      "d": 1107.6900000000023,
      "v": 89
    },
    {
      "midi": 59,
      "hit": false,
      "t": 180922.69999999995,
      "d": 923.0750000000116,
      "v": 67
    },
    {
      "midi": 65,
      "hit": false,
      "t": 180922.69999999995,
      "d": 923.0750000000116,
      "v": 63
    },
    {
      "midi": 65,
      "hit": false,
      "t": 181845.7749999996,
      "d": 738.4599999999919,
      "v": 89
    },
    {
      "midi": 59,
      "hit": false,
      "t": 181845.77499999997,
      "d": 923.0750000000116,
      "v": 73
    },
    {
      "midi": 65,
      "hit": false,
      "t": 182299.6202083333,
      "d": 469.2297916666721,
      "v": 55
    },
    {
      "midi": 41,
      "hit": false,
      "t": 182307.3124999997,
      "d": 369.2300000000105,
      "v": 78
    },
    {
      "midi": 66,
      "hit": false,
      "t": 182768.84999999957,
      "d": 553.8450000000012,
      "v": 85
    },
    {
      "midi": 69,
      "hit": false,
      "t": 182768.84999999957,
      "d": 553.8450000000012,
      "v": 81
    },
    {
      "midi": 42,
      "hit": false,
      "t": 182768.84999999971,
      "d": 553.8450000000012,
      "v": 91
    },
    {
      "midi": 57,
      "hit": false,
      "t": 182768.84999999998,
      "d": 615.3833333333314,
      "v": 67
    },
    {
      "midi": 66,
      "hit": false,
      "t": 182768.84999999998,
      "d": 615.3833333333314,
      "v": 63
    },
    {
      "midi": 64,
      "hit": false,
      "t": 183461.15624999956,
      "d": 553.8450000000012,
      "v": 93
    },
    {
      "midi": 68,
      "hit": false,
      "t": 183461.15624999956,
      "d": 553.8450000000012,
      "v": 95
    },
    {
      "midi": 37,
      "hit": false,
      "t": 183461.1562499997,
      "d": 369.2300000000105,
      "v": 96
    },
    {
      "midi": 59,
      "hit": false,
      "t": 183461.15624999997,
      "d": 1138.4591666666674,
      "v": 73
    },
    {
      "midi": 37,
      "hit": false,
      "t": 183922.69374999971,
      "d": 184.6149999999907,
      "v": 90
    },
    {
      "midi": 64,
      "hit": false,
      "t": 184145.7702083333,
      "d": 469.2297916666721,
      "v": 55
    },
    {
      "midi": 64,
      "hit": false,
      "t": 184153.46249999956,
      "d": 1107.6900000000023,
      "v": 90
    },
    {
      "midi": 71,
      "hit": false,
      "t": 184153.46249999956,
      "d": 1107.6900000000023,
      "v": 87
    },
    {
      "midi": 42,
      "hit": false,
      "t": 184153.4624999997,
      "d": 738.4599999999919,
      "v": 90
    },
    {
      "midi": 59,
      "hit": false,
      "t": 184614.99999999997,
      "d": 384.61458333334303,
      "v": 67
    },
    {
      "midi": 64,
      "hit": false,
      "t": 184614.99999999997,
      "d": 384.61458333334303,
      "v": 63
    },
    {
      "midi": 37,
      "hit": false,
      "t": 185076.5374999997,
      "d": 369.2300000000105,
      "v": 99
    },
    {
      "midi": 58,
      "hit": false,
      "t": 185076.53749999998,
      "d": 1369.227916666685,
      "v": 73
    },
    {
      "midi": 64,
      "hit": false,
      "t": 185538.07499999955,
      "d": 738.4599999999919,
      "v": 83
    },
    {
      "midi": 70,
      "hit": false,
      "t": 185538.07499999955,
      "d": 738.4599999999919,
      "v": 91
    },
    {
      "midi": 42,
      "hit": false,
      "t": 185538.0749999997,
      "d": 369.2300000000105,
      "v": 91
    },
    {
      "midi": 64,
      "hit": false,
      "t": 185991.92020833332,
      "d": 469.2297916666721,
      "v": 55
    },
    {
      "midi": 42,
      "hit": false,
      "t": 185999.6124999997,
      "d": 369.2300000000105,
      "v": 87
    },
    {
      "midi": 62,
      "hit": false,
      "t": 186461.14999999953,
      "d": 738.4599999999919,
      "v": 95
    },
    {
      "midi": 66,
      "hit": false,
      "t": 186461.14999999953,
      "d": 738.4599999999919,
      "v": 98
    },
    {
      "midi": 69,
      "hit": false,
      "t": 186461.14999999953,
      "d": 738.4599999999919,
      "v": 98
    },
    {
      "midi": 35,
      "hit": false,
      "t": 186461.1499999997,
      "d": 1107.6900000000023,
      "v": 91
    },
    {
      "midi": 57,
      "hit": false,
      "t": 186461.15,
      "d": 1846.1500000000233,
      "v": 52
    },
    {
      "midi": 62,
      "hit": false,
      "t": 186461.15,
      "d": 1846.1500000000233,
      "v": 73
    },
    {
      "midi": 66,
      "hit": false,
      "t": 186461.15,
      "d": 1846.1500000000233,
      "v": 58
    },
    {
      "midi": 66,
      "hit": false,
      "t": 187384.2249999995,
      "d": 738.4599999999919,
      "v": 98
    },
    {
      "midi": 69,
      "hit": false,
      "t": 187384.2249999995,
      "d": 738.4599999999919,
      "v": 100
    },
    {
      "midi": 59,
      "hit": false,
      "t": 187384.225,
      "d": 923.0750000000116,
      "v": 50
    },
    {
      "midi": 42,
      "hit": false,
      "t": 187845.7624999997,
      "d": 369.2300000000105,
      "v": 91
    },
    {
      "midi": 66,
      "hit": false,
      "t": 188307.2999999995,
      "d": 738.4599999999919,
      "v": 90
    },
    {
      "midi": 69,
      "hit": false,
      "t": 188307.2999999995,
      "d": 738.4599999999919,
      "v": 91
    },
    {
      "midi": 74,
      "hit": false,
      "t": 188307.2999999995,
      "d": 738.4599999999919,
      "v": 82
    },
    {
      "midi": 40,
      "hit": false,
      "t": 188307.2999999997,
      "d": 1107.6900000000023,
      "v": 93
    },
    {
      "midi": 57,
      "hit": false,
      "t": 188307.30000000002,
      "d": 1846.1500000000233,
      "v": 67
    },
    {
      "midi": 62,
      "hit": false,
      "t": 188307.30000000002,
      "d": 1846.1500000000233,
      "v": 63
    },
    {
      "midi": 66,
      "hit": false,
      "t": 189230.37499999948,
      "d": 738.4599999999919,
      "v": 88
    },
    {
      "midi": 69,
      "hit": false,
      "t": 189230.37499999948,
      "d": 738.4599999999919,
      "v": 90
    },
    {
      "midi": 40,
      "hit": false,
      "t": 189691.9124999997,
      "d": 369.2300000000105,
      "v": 90
    },
    {
      "midi": 64,
      "hit": false,
      "t": 190153.44999999946,
      "d": 738.4599999999919,
      "v": 89
    },
    {
      "midi": 68,
      "hit": false,
      "t": 190153.44999999946,
      "d": 738.4599999999919,
      "v": 90
    },
    {
      "midi": 45,
      "hit": false,
      "t": 190153.4499999997,
      "d": 1107.6900000000023,
      "v": 87
    },
    {
      "midi": 56,
      "hit": false,
      "t": 190153.45000000004,
      "d": 1307.6895833333547,
      "v": 52
    },
    {
      "midi": 61,
      "hit": false,
      "t": 190153.45000000004,
      "d": 1307.6895833333547,
      "v": 73
    },
    {
      "midi": 64,
      "hit": false,
      "t": 190153.45000000004,
      "d": 1307.6895833333547,
      "v": 58
    },
    {
      "midi": 64,
      "hit": false,
      "t": 191076.52499999944,
      "d": 738.4599999999919,
      "v": 89
    },
    {
      "midi": 68,
      "hit": false,
      "t": 191076.52499999944,
      "d": 738.4599999999919,
      "v": 94
    },
    {
      "midi": 57,
      "hit": false,
      "t": 191076.52500000005,
      "d": 384.61458333334303,
      "v": 50
    },
    {
      "midi": 47,
      "hit": false,
      "t": 191538.06249999968,
      "d": 184.6149999999907,
      "v": 87
    },
    {
      "midi": 61,
      "hit": false,
      "t": 191538.06250000006,
      "d": 2292.3029166666965,
      "v": 52
    },
    {
      "midi": 66,
      "hit": false,
      "t": 191538.06250000006,
      "d": 2292.3029166666965,
      "v": 73
    },
    {
      "midi": 69,
      "hit": false,
      "t": 191538.06250000006,
      "d": 2292.3029166666965,
      "v": 58
    },
    {
      "midi": 49,
      "hit": false,
      "t": 191768.83124999967,
      "d": 184.6149999999907,
      "v": 91
    },
    {
      "midi": 61,
      "hit": false,
      "t": 191999.59999999942,
      "d": 738.4599999999919,
      "v": 90
    },
    {
      "midi": 66,
      "hit": false,
      "t": 191999.59999999942,
      "d": 738.4599999999919,
      "v": 85
    },
    {
      "midi": 69,
      "hit": false,
      "t": 191999.59999999942,
      "d": 738.4599999999919,
      "v": 88
    },
    {
      "midi": 50,
      "hit": false,
      "t": 191999.59999999966,
      "d": 1107.6900000000023,
      "v": 78
    },
    {
      "midi": 61,
      "hit": false,
      "t": 192922.6749999994,
      "d": 738.4599999999919,
      "v": 82
    },
    {
      "midi": 66,
      "hit": false,
      "t": 192922.6749999994,
      "d": 738.4599999999919,
      "v": 85
    },
    {
      "midi": 69,
      "hit": false,
      "t": 192922.6749999994,
      "d": 738.4599999999919,
      "v": 90
    },
    {
      "midi": 62,
      "hit": false,
      "t": 192922.67500000008,
      "d": 923.0750000000116,
      "v": 50
    },
    {
      "midi": 49,
      "hit": false,
      "t": 193384.21249999964,
      "d": 369.2300000000105,
      "v": 89
    },
    {
      "midi": 62,
      "hit": false,
      "t": 193845.7499999994,
      "d": 738.4599999999919,
      "v": 93
    },
    {
      "midi": 66,
      "hit": false,
      "t": 193845.7499999994,
      "d": 738.4599999999919,
      "v": 90
    },
    {
      "midi": 47,
      "hit": false,
      "t": 193845.74999999965,
      "d": 1476.9200000000128,
      "v": 91
    },
    {
      "midi": 62,
      "hit": false,
      "t": 193845.7500000001,
      "d": 138.46124999999302,
      "v": 34
    },
    {
      "midi": 57,
      "hit": false,
      "t": 193845.7500000001,
      "d": 738.4599999999919,
      "v": 58
    },
    {
      "midi": 59,
      "hit": false,
      "t": 193845.7500000001,
      "d": 1307.6895833333256,
      "v": 39
    },
    {
      "midi": 66,
      "hit": false,
      "t": 193845.7500000001,
      "d": 1307.6895833333256,
      "v": 66
    },
    {
      "midi": 62,
      "hit": false,
      "t": 194768.82499999937,
      "d": 738.4599999999919,
      "v": 90
    },
    {
      "midi": 66,
      "hit": false,
      "t": 194768.82499999937,
      "d": 738.4599999999919,
      "v": 78
    },
    {
      "midi": 57,
      "hit": false,
      "t": 194768.82500000007,
      "d": 384.61458333334303,
      "v": 64
    },
    {
      "midi": 59,
      "hit": false,
      "t": 195230.36250000008,
      "d": 1369.227916666685,
      "v": 67
    },
    {
      "midi": 65,
      "hit": false,
      "t": 195230.36250000008,
      "d": 1369.227916666685,
      "v": 63
    },
    {
      "midi": 65,
      "hit": false,
      "t": 195691.89999999935,
      "d": 738.4599999999919,
      "v": 90
    },
    {
      "midi": 71,
      "hit": false,
      "t": 195691.89999999935,
      "d": 738.4599999999919,
      "v": 90
    },
    {
      "midi": 49,
      "hit": false,
      "t": 195691.89999999967,
      "d": 1107.6900000000023,
      "v": 98
    },
    {
      "midi": 65,
      "hit": false,
      "t": 196614.97499999934,
      "d": 738.4599999999919,
      "v": 84
    },
    {
      "midi": 59,
      "hit": false,
      "t": 196614.9750000001,
      "d": 923.0750000000116,
      "v": 67
    },
    {
      "midi": 65,
      "hit": false,
      "t": 196614.9750000001,
      "d": 923.0750000000116,
      "v": 63
    },
    {
      "midi": 41,
      "hit": false,
      "t": 197076.51249999966,
      "d": 369.2300000000105,
      "v": 95
    },
    {
      "midi": 66,
      "hit": false,
      "t": 197538.04999999932,
      "d": 553.8450000000012,
      "v": 102
    },
    {
      "midi": 69,
      "hit": false,
      "t": 197538.04999999932,
      "d": 553.8450000000012,
      "v": 94
    },
    {
      "midi": 42,
      "hit": false,
      "t": 197538.04999999967,
      "d": 553.8450000000012,
      "v": 100
    },
    {
      "midi": 57,
      "hit": false,
      "t": 197538.0500000001,
      "d": 615.3833333333314,
      "v": 67
    },
    {
      "midi": 66,
      "hit": false,
      "t": 197538.0500000001,
      "d": 615.3833333333314,
      "v": 63
    },
    {
      "midi": 64,
      "hit": false,
      "t": 198230.3562499993,
      "d": 553.8450000000012,
      "v": 102
    },
    {
      "midi": 68,
      "hit": false,
      "t": 198230.3562499993,
      "d": 553.8450000000012,
      "v": 84
    },
    {
      "midi": 37,
      "hit": false,
      "t": 198230.35624999966,
      "d": 369.2299999999814,
      "v": 92
    },
    {
      "midi": 59,
      "hit": false,
      "t": 198230.3562500001,
      "d": 1138.4591666666674,
      "v": 73
    },
    {
      "midi": 37,
      "hit": false,
      "t": 198691.89374999964,
      "d": 184.6149999999907,
      "v": 90
    },
    {
      "midi": 64,
      "hit": false,
      "t": 198914.97020833343,
      "d": 469.2297916666721,
      "v": 55
    },
    {
      "midi": 64,
      "hit": false,
      "t": 198922.6624999993,
      "d": 1107.6900000000023,
      "v": 90
    },
    {
      "midi": 71,
      "hit": false,
      "t": 198922.6624999993,
      "d": 1107.6900000000023,
      "v": 90
    },
    {
      "midi": 42,
      "hit": false,
      "t": 198922.66249999963,
      "d": 738.4599999999919,
      "v": 90
    },
    {
      "midi": 59,
      "hit": false,
      "t": 199384.2000000001,
      "d": 923.0750000000116,
      "v": 67
    },
    {
      "midi": 64,
      "hit": false,
      "t": 199384.2000000001,
      "d": 923.0750000000116,
      "v": 63
    },
    {
      "midi": 37,
      "hit": false,
      "t": 199845.7374999996,
      "d": 369.2300000000105,
      "v": 78
    },
    {
      "midi": 64,
      "hit": false,
      "t": 200307.2749999993,
      "d": 738.4599999999919,
      "v": 75
    },
    {
      "midi": 70,
      "hit": false,
      "t": 200307.2749999993,
      "d": 738.4599999999919,
      "v": 92
    },
    {
      "midi": 42,
      "hit": false,
      "t": 200307.27499999962,
      "d": 369.2300000000105,
      "v": 90
    },
    {
      "midi": 58,
      "hit": false,
      "t": 200307.2750000001,
      "d": 923.0750000000116,
      "v": 67
    },
    {
      "midi": 64,
      "hit": false,
      "t": 200307.2750000001,
      "d": 923.0750000000116,
      "v": 63
    },
    {
      "midi": 42,
      "hit": false,
      "t": 200768.81249999962,
      "d": 369.2300000000105,
      "v": 86
    }
  ]
}