{
  "jsonPath": "Rock/Alternative Metal/Good Charlotte/i-just-wanna-live.json",
  "path": "Rock\\Alternative Metal\\Good Charlotte\\I Just Wanna Live.mid",
  "name": "I Just Wanna Live",
  "difficulty": "Advanced",
  "bpm": 110.00091667430561,
  "notes": [
    {
      "midi": 55,
      "hit": false,
      "t": 5454.4800000000005,
      "d": 1193.1675000000005,
      "v": 70
    },
    {
      "midi": 59,
      "hit": false,
      "t": 5454.4800000000005,
      "d": 1193.1675000000005,
      "v": 70
    },
    {
      "midi": 62,
      "hit": false,
      "t": 5454.4800000000005,
      "d": 1193.1675000000005,
      "v": 70
    },
    {
      "midi": 67,
      "hit": false,
      "t": 5454.4800000000005,
      "d": 1193.1675000000005,
      "v": 70
    },
    {
      "midi": 74,
      "hit": false,
      "t": 5454.4800000000005,
      "d": 2727.2399999999934,
      "v": 116
    },
    {
      "midi": 74,
      "hit": false,
      "t": 5454.4800000000005,
      "d": 2705.9334375000008,
      "v": 49
    },
    {
      "midi": 55,
      "hit": false,
      "t": 5454.4800000000005,
      "d": 2755.648750000001,
      "v": 49
    },
    {
      "midi": 71,
      "hit": false,
      "t": 5454.4800000000005,
      "d": 5347.947187500001,
      "v": 49
    },
    {
      "midi": 79,
      "hit": false,
      "t": 5454.4800000000005,
      "d": 8352.1725,
      "v": 49
    },
    {
      "midi": 31,
      "hit": false,
      "t": 5454.4800000000005,
      "d": 767.0362500000001,
      "v": 88
    },
    {
      "midi": 31,
      "hit": false,
      "t": 6477.195000000001,
      "d": 255.67875000000004,
      "v": 86
    },
    {
      "midi": 31,
      "hit": false,
      "t": 6818.1,
      "d": 767.0362500000001,
      "v": 86
    },
    {
      "midi": 55,
      "hit": false,
      "t": 7159.005000000001,
      "d": 340.90499999999975,
      "v": 60
    },
    {
      "midi": 59,
      "hit": false,
      "t": 7499.910000000001,
      "d": 340.90499999999975,
      "v": 65
    },
    {
      "midi": 62,
      "hit": false,
      "t": 7840.8150000000005,
      "d": 340.90499999999975,
      "v": 70
    },
    {
      "midi": 31,
      "hit": false,
      "t": 7840.8150000000005,
      "d": 255.67875000000004,
      "v": 94
    },
    {
      "midi": 52,
      "hit": false,
      "t": 8011.267500000001,
      "d": 2879.9370312500005,
      "v": 58
    },
    {
      "midi": 76,
      "hit": false,
      "t": 8011.267500000001,
      "d": 5759.8740625,
      "v": 58
    },
    {
      "midi": 76,
      "hit": false,
      "t": 8181.719999999994,
      "d": 4080.206718749998,
      "v": 110
    },
    {
      "midi": 52,
      "hit": false,
      "t": 8181.72,
      "d": 1193.1675000000005,
      "v": 70
    },
    {
      "midi": 55,
      "hit": false,
      "t": 8181.72,
      "d": 1193.1675000000005,
      "v": 70
    },
    {
      "midi": 59,
      "hit": false,
      "t": 8181.72,
      "d": 1193.1675000000005,
      "v": 70
    },
    {
      "midi": 64,
      "hit": false,
      "t": 8181.72,
      "d": 1193.1675000000005,
      "v": 70
    },
    {
      "midi": 40,
      "hit": false,
      "t": 8181.72,
      "d": 767.0362500000001,
      "v": 99
    },
    {
      "midi": 40,
      "hit": false,
      "t": 9204.435,
      "d": 255.67874999999913,
      "v": 94
    },
    {
      "midi": 40,
      "hit": false,
      "t": 9545.339999999998,
      "d": 767.0362499999992,
      "v": 94
    },
    {
      "midi": 52,
      "hit": false,
      "t": 9886.245,
      "d": 340.90500000000065,
      "v": 70
    },
    {
      "midi": 55,
      "hit": false,
      "t": 10227.150000000001,
      "d": 681.8099999999995,
      "v": 75
    },
    {
      "midi": 59,
      "hit": false,
      "t": 10227.150000000001,
      "d": 681.8099999999995,
      "v": 75
    },
    {
      "midi": 64,
      "hit": false,
      "t": 10227.150000000001,
      "d": 681.8099999999995,
      "v": 75
    },
    {
      "midi": 40,
      "hit": false,
      "t": 10568.054999999997,
      "d": 255.67874999999913,
      "v": 82
    },
    {
      "midi": 36,
      "hit": false,
      "t": 10908.959999999995,
      "d": 767.0362499999992,
      "v": 86
    },
    {
      "midi": 55,
      "hit": false,
      "t": 10908.960000000001,
      "d": 1193.1674999999996,
      "v": 70
    },
    {
      "midi": 60,
      "hit": false,
      "t": 10908.960000000001,
      "d": 1193.1674999999996,
      "v": 70
    },
    {
      "midi": 64,
      "hit": false,
      "t": 10908.960000000001,
      "d": 1193.1674999999996,
      "v": 70
    },
    {
      "midi": 72,
      "hit": false,
      "t": 10908.960000000001,
      "d": 2702.3823437499996,
      "v": 55
    },
    {
      "midi": 48,
      "hit": false,
      "t": 10908.960000000001,
      "d": 2851.528281249999,
      "v": 60
    },
    {
      "midi": 36,
      "hit": false,
      "t": 11931.674999999994,
      "d": 255.67874999999913,
      "v": 91
    },
    {
      "midi": 78,
      "hit": false,
      "t": 12272.579999999993,
      "d": 976.5507812499945,
      "v": 116
    },
    {
      "midi": 36,
      "hit": false,
      "t": 12272.579999999993,
      "d": 767.0362499999992,
      "v": 101
    },
    {
      "midi": 79,
      "hit": false,
      "t": 13295.294999999987,
      "d": 355.109375,
      "v": 113
    },
    {
      "midi": 36,
      "hit": false,
      "t": 13295.294999999991,
      "d": 255.67874999999913,
      "v": 75
    },
    {
      "midi": 78,
      "hit": false,
      "t": 13636.199999999988,
      "d": 1438.1929687499996,
      "v": 116
    },
    {
      "midi": 38,
      "hit": false,
      "t": 13636.19999999999,
      "d": 767.0362499999992,
      "v": 86
    },
    {
      "midi": 57,
      "hit": false,
      "t": 13636.2,
      "d": 1193.1674999999996,
      "v": 70
    },
    {
      "midi": 62,
      "hit": false,
      "t": 13636.2,
      "d": 1193.1674999999996,
      "v": 70
    },
    {
      "midi": 66,
      "hit": false,
      "t": 13636.2,
      "d": 1193.1674999999996,
      "v": 70
    },
    {
      "midi": 69,
      "hit": false,
      "t": 13636.2,
      "d": 1193.1674999999996,
      "v": 70
    },
    {
      "midi": 69,
      "hit": false,
      "t": 13636.2,
      "d": 2741.444374999999,
      "v": 21
    },
    {
      "midi": 50,
      "hit": false,
      "t": 13636.2,
      "d": 2947.407812499998,
      "v": 52
    },
    {
      "midi": 78,
      "hit": false,
      "t": 13636.2,
      "d": 3004.225312499999,
      "v": 34
    },
    {
      "midi": 74,
      "hit": false,
      "t": 13636.2,
      "d": 4683.892656249998,
      "v": 51
    },
    {
      "midi": 38,
      "hit": false,
      "t": 14658.914999999988,
      "d": 255.67874999999913,
      "v": 94
    },
    {
      "midi": 74,
      "hit": false,
      "t": 14999.819999999987,
      "d": 1363.6199999999972,
      "v": 107
    },
    {
      "midi": 38,
      "hit": false,
      "t": 14999.819999999987,
      "d": 767.0362499999992,
      "v": 103
    },
    {
      "midi": 57,
      "hit": false,
      "t": 15340.725,
      "d": 340.90500000000065,
      "v": 60
    },
    {
      "midi": 62,
      "hit": false,
      "t": 15681.630000000001,
      "d": 340.90500000000065,
      "v": 65
    },
    {
      "midi": 38,
      "hit": false,
      "t": 16022.534999999985,
      "d": 255.67874999999913,
      "v": 85
    },
    {
      "midi": 66,
      "hit": false,
      "t": 16022.535000000002,
      "d": 340.90500000000065,
      "v": 70
    },
    {
      "midi": 71,
      "hit": false,
      "t": 16363.439999999984,
      "d": 2677.5246874999975,
      "v": 98
    },
    {
      "midi": 31,
      "hit": false,
      "t": 16363.439999999984,
      "d": 767.036250000001,
      "v": 96
    },
    {
      "midi": 55,
      "hit": false,
      "t": 16363.440000000002,
      "d": 1193.1674999999996,
      "v": 70
    },
    {
      "midi": 59,
      "hit": false,
      "t": 16363.440000000002,
      "d": 1193.1674999999996,
      "v": 70
    },
    {
      "midi": 62,
      "hit": false,
      "t": 16363.440000000002,
      "d": 1193.1674999999996,
      "v": 70
    },
    {
      "midi": 67,
      "hit": false,
      "t": 16363.440000000002,
      "d": 1193.1674999999996,
      "v": 70
    },
    {
      "midi": 71,
      "hit": false,
      "t": 16533.892499999998,
      "d": 1906.9373437499999,
      "v": 34
    },
    {
      "midi": 55,
      "hit": false,
      "t": 16533.892499999998,
      "d": 2183.9226562500007,
      "v": 31
    },
    {
      "midi": 62,
      "hit": false,
      "t": 16739.8559375,
      "d": 198.86125000000175,
      "v": 102
    },
    {
      "midi": 62,
      "hit": false,
      "t": 17059.454375,
      "d": 209.51453124999898,
      "v": 68
    },
    {
      "midi": 62,
      "hit": false,
      "t": 17361.29734375,
      "d": 163.35031249999884,
      "v": 80
    },
    {
      "midi": 31,
      "hit": false,
      "t": 17386.154999999984,
      "d": 255.67874999999913,
      "v": 94
    },
    {
      "midi": 62,
      "hit": false,
      "t": 17702.20234375,
      "d": 223.71890625000015,
      "v": 87
    },
    {
      "midi": 31,
      "hit": false,
      "t": 17727.059999999983,
      "d": 767.036250000001,
      "v": 98
    },
    {
      "midi": 55,
      "hit": false,
      "t": 18067.965,
      "d": 340.90499999999884,
      "v": 70
    },
    {
      "midi": 62,
      "hit": false,
      "t": 18071.51609375,
      "d": 390.6203124999993,
      "v": 78
    },
    {
      "midi": 55,
      "hit": false,
      "t": 18408.87,
      "d": 681.8100000000013,
      "v": 75
    },
    {
      "midi": 59,
      "hit": false,
      "t": 18408.87,
      "d": 681.8100000000013,
      "v": 75
    },
    {
      "midi": 62,
      "hit": false,
      "t": 18408.87,
      "d": 681.8100000000013,
      "v": 75
    },
    {
      "midi": 62,
      "hit": false,
      "t": 18589.97578125,
      "d": 102.98171875000116,
      "v": 74
    },
    {
      "midi": 31,
      "hit": false,
      "t": 18749.774999999983,
      "d": 255.67874999999913,
      "v": 84
    },
    {
      "midi": 62,
      "hit": false,
      "t": 18806.5925,
      "d": 131.39046874999985,
      "v": 80
    },
    {
      "midi": 64,
      "hit": false,
      "t": 19055.169062499997,
      "d": 330.2517187500016,
      "v": 91
    },
    {
      "midi": 40,
      "hit": false,
      "t": 19090.679999999982,
      "d": 767.036250000001,
      "v": 97
    },
    {
      "midi": 55,
      "hit": false,
      "t": 19090.68,
      "d": 1193.1674999999996,
      "v": 70
    },
    {
      "midi": 59,
      "hit": false,
      "t": 19090.68,
      "d": 1193.1674999999996,
      "v": 70
    },
    {
      "midi": 64,
      "hit": false,
      "t": 19090.68,
      "d": 1193.1674999999996,
      "v": 70
    },
    {
      "midi": 64,
      "hit": false,
      "t": 19545.219999999998,
      "d": 383.5181249999987,
      "v": 89
    },
    {
      "midi": 64,
      "hit": false,
      "t": 20021.066562499997,
      "d": 117.18609374999869,
      "v": 68
    },
    {
      "midi": 40,
      "hit": false,
      "t": 20113.394999999982,
      "d": 255.67874999999913,
      "v": 92
    },
    {
      "midi": 64,
      "hit": false,
      "t": 20234.132187499996,
      "d": 113.6349999999984,
      "v": 80
    },
    {
      "midi": 40,
      "hit": false,
      "t": 20454.29999999998,
      "d": 767.036250000001,
      "v": 87
    },
    {
      "midi": 64,
      "hit": false,
      "t": 20472.055468749993,
      "d": 159.79921874999854,
      "v": 85
    },
    {
      "midi": 64,
      "hit": false,
      "t": 20777.449531249993,
      "d": 369.31375000000116,
      "v": 82
    },
    {
      "midi": 67,
      "hit": false,
      "t": 21129.007812499993,
      "d": 326.7006250000013,
      "v": 78
    },
    {
      "midi": 64,
      "hit": false,
      "t": 21437.952968749993,
      "d": 401.27359375000015,
      "v": 61
    },
    {
      "midi": 40,
      "hit": false,
      "t": 21477.01499999998,
      "d": 255.67874999999913,
      "v": 75
    },
    {
      "midi": 62,
      "hit": false,
      "t": 21807.266718749994,
      "d": 397.72249999999985,
      "v": 82
    },
    {
      "midi": 31,
      "hit": false,
      "t": 21817.91999999998,
      "d": 767.036250000001,
      "v": 104
    },
    {
      "midi": 55,
      "hit": false,
      "t": 21817.92,
      "d": 1193.1674999999996,
      "v": 70
    },
    {
      "midi": 59,
      "hit": false,
      "t": 21817.92,
      "d": 1193.1674999999996,
      "v": 70
    },
    {
      "midi": 62,
      "hit": false,
      "t": 21817.92,
      "d": 1193.1674999999996,
      "v": 70
    },
    {
      "midi": 67,
      "hit": false,
      "t": 21817.92,
      "d": 1193.1674999999996,
      "v": 70
    },
    {
      "midi": 62,
      "hit": false,
      "t": 22304.419843749994,
      "d": 379.9670312499984,
      "v": 78
    },
    {
      "midi": 62,
      "hit": false,
      "t": 22769.613124999993,
      "d": 131.39046874999985,
      "v": 68
    },
    {
      "midi": 31,
      "hit": false,
      "t": 22840.63499999998,
      "d": 255.67874999999913,
      "v": 90
    },
    {
      "midi": 62,
      "hit": false,
      "t": 22982.678749999992,
      "d": 110.08390625000175,
      "v": 66
    },
    {
      "midi": 31,
      "hit": false,
      "t": 23181.53999999998,
      "d": 767.036250000001,
      "v": 104
    },
    {
      "midi": 62,
      "hit": false,
      "t": 23192.193281249994,
      "d": 252.12765624999884,
      "v": 82
    },
    {
      "midi": 55,
      "hit": false,
      "t": 23522.444999999996,
      "d": 340.90499999999884,
      "v": 60
    },
    {
      "midi": 62,
      "hit": false,
      "t": 23547.302656249994,
      "d": 465.19328125000175,
      "v": 78
    },
    {
      "midi": 59,
      "hit": false,
      "t": 23863.349999999995,
      "d": 340.90499999999884,
      "v": 65
    },
    {
      "midi": 62,
      "hit": false,
      "t": 24076.415624999998,
      "d": 99.43062500000087,
      "v": 68
    },
    {
      "midi": 31,
      "hit": false,
      "t": 24204.25499999998,
      "d": 255.67874999999913,
      "v": 85
    },
    {
      "midi": 62,
      "hit": false,
      "t": 24204.254999999994,
      "d": 340.90499999999884,
      "v": 70
    },
    {
      "midi": 62,
      "hit": false,
      "t": 24271.72578125,
      "d": 287.63859375000175,
      "v": 72
    },
    {
      "midi": 40,
      "hit": false,
      "t": 24545.159999999978,
      "d": 767.036250000001,
      "v": 101
    },
    {
      "midi": 52,
      "hit": false,
      "t": 24545.159999999993,
      "d": 1193.1674999999996,
      "v": 70
    },
    {
      "midi": 55,
      "hit": false,
      "t": 24545.159999999993,
      "d": 1193.1674999999996,
      "v": 70
    },
    {
      "midi": 59,
      "hit": false,
      "t": 24545.159999999993,
      "d": 1193.1674999999996,
      "v": 70
    },
    {
      "midi": 64,
      "hit": false,
      "t": 24545.159999999993,
      "d": 1193.1674999999996,
      "v": 70
    },
    {
      "midi": 64,
      "hit": false,
      "t": 24545.16,
      "d": 1232.2295312500028,
      "v": 93
    },
    {
      "midi": 40,
      "hit": false,
      "t": 25567.874999999978,
      "d": 255.67874999999913,
      "v": 81
    },
    {
      "midi": 64,
      "hit": false,
      "t": 25869.717968750003,
      "d": 1384.9265625000007,
      "v": 80
    },
    {
      "midi": 40,
      "hit": false,
      "t": 25908.779999999977,
      "d": 767.036250000001,
      "v": 98
    },
    {
      "midi": 52,
      "hit": false,
      "t": 26249.68499999999,
      "d": 340.90499999999884,
      "v": 70
    },
    {
      "midi": 55,
      "hit": false,
      "t": 26590.58999999999,
      "d": 681.8100000000013,
      "v": 75
    },
    {
      "midi": 59,
      "hit": false,
      "t": 26590.58999999999,
      "d": 681.8100000000013,
      "v": 75
    },
    {
      "midi": 64,
      "hit": false,
      "t": 26590.58999999999,
      "d": 681.8100000000013,
      "v": 75
    },
    {
      "midi": 40,
      "hit": false,
      "t": 26931.494999999977,
      "d": 255.67874999999913,
      "v": 83
    },
    {
      "midi": 33,
      "hit": false,
      "t": 27272.399999999976,
      "d": 767.036250000001,
      "v": 104
    },
    {
      "midi": 57,
      "hit": false,
      "t": 27272.39999999999,
      "d": 1193.1674999999996,
      "v": 70
    },
    {
      "midi": 60,
      "hit": false,
      "t": 27272.39999999999,
      "d": 1193.1674999999996,
      "v": 70
    },
    {
      "midi": 64,
      "hit": false,
      "t": 27272.39999999999,
      "d": 1193.1674999999996,
      "v": 70
    },
    {
      "midi": 69,
      "hit": false,
      "t": 27272.39999999999,
      "d": 1193.1674999999996,
      "v": 70
    },
    {
      "midi": 60,
      "hit": false,
      "t": 27595.549531250002,
      "d": 482.94874999999956,
      "v": 68
    },
    {
      "midi": 60,
      "hit": false,
      "t": 28160.1734375,
      "d": 117.18609374999869,
      "v": 68
    },
    {
      "midi": 33,
      "hit": false,
      "t": 28295.114999999976,
      "d": 255.67874999999913,
      "v": 93
    },
    {
      "midi": 60,
      "hit": false,
      "t": 28362.58578125,
      "d": 110.08390625000175,
      "v": 66
    },
    {
      "midi": 60,
      "hit": false,
      "t": 28554.34484375,
      "d": 266.33203125,
      "v": 74
    },
    {
      "midi": 33,
      "hit": false,
      "t": 28636.019999999975,
      "d": 767.036250000001,
      "v": 96
    },
    {
      "midi": 60,
      "hit": false,
      "t": 28916.55640625,
      "d": 195.31015625000146,
      "v": 74
    },
    {
      "midi": 57,
      "hit": false,
      "t": 28976.92499999999,
      "d": 340.90499999999884,
      "v": 60
    },
    {
      "midi": 60,
      "hit": false,
      "t": 29236.154843750002,
      "d": 195.31015625000146,
      "v": 66
    },
    {
      "midi": 60,
      "hit": false,
      "t": 29317.829999999987,
      "d": 340.90499999999884,
      "v": 65
    },
    {
      "midi": 60,
      "hit": false,
      "t": 29587.713125000002,
      "d": 411.926875000001,
      "v": 57
    },
    {
      "midi": 33,
      "hit": false,
      "t": 29658.734999999975,
      "d": 255.67874999999913,
      "v": 91
    },
    {
      "midi": 64,
      "hit": false,
      "t": 29658.734999999986,
      "d": 340.90499999999884,
      "v": 70
    },
    {
      "midi": 62,
      "hit": false,
      "t": 29985.435625000002,
      "d": 344.45609375000276,
      "v": 80
    },
    {
      "midi": 38,
      "hit": false,
      "t": 29999.639999999974,
      "d": 767.036250000001,
      "v": 101
    },
    {
      "midi": 57,
      "hit": false,
      "t": 29999.639999999985,
      "d": 1193.1674999999996,
      "v": 70
    },
    {
      "midi": 62,
      "hit": false,
      "t": 29999.639999999985,
      "d": 1193.1674999999996,
      "v": 70
    },
    {
      "midi": 66,
      "hit": false,
      "t": 29999.639999999985,
      "d": 1193.1674999999996,
      "v": 70
    },
    {
      "midi": 69,
      "hit": false,
      "t": 29999.639999999985,
      "d": 1193.1674999999996,
      "v": 70
    },
    {
      "midi": 62,
      "hit": false,
      "t": 30439.975625000006,
      "d": 397.72249999999985,
      "v": 80
    },
    {
      "midi": 62,
      "hit": false,
      "t": 30944.230937500008,
      "d": 127.83937499999956,
      "v": 72
    },
    {
      "midi": 38,
      "hit": false,
      "t": 31022.354999999974,
      "d": 255.67874999999913,
      "v": 79
    },
    {
      "midi": 62,
      "hit": false,
      "t": 31160.847656250007,
      "d": 120.73718749999898,
      "v": 68
    },
    {
      "midi": 62,
      "hit": false,
      "t": 31356.157812500005,
      "d": 280.53640625000116,
      "v": 76
    },
    {
      "midi": 38,
      "hit": false,
      "t": 31363.259999999973,
      "d": 767.036250000001,
      "v": 85
    },
    {
      "midi": 62,
      "hit": false,
      "t": 31700.613906250008,
      "d": 177.5546875,
      "v": 80
    },
    {
      "midi": 62,
      "hit": false,
      "t": 32030.86562500001,
      "d": 159.79921874999854,
      "v": 64
    },
    {
      "midi": 62,
      "hit": false,
      "t": 32354.015156250007,
      "d": 369.3137499999975,
      "v": 60
    },
    {
      "midi": 38,
      "hit": false,
      "t": 32385.974999999973,
      "d": 255.67874999999913,
      "v": 84
    },
    {
      "midi": 66,
      "hit": false,
      "t": 32698.471250000006,
      "d": 454.53999999999724,
      "v": 89
    },
    {
      "midi": 38,
      "hit": false,
      "t": 32726.879999999972,
      "d": 767.036250000001,
      "v": 85
    },
    {
      "midi": 57,
      "hit": false,
      "t": 32726.879999999983,
      "d": 1193.1675000000032,
      "v": 70
    },
    {
      "midi": 62,
      "hit": false,
      "t": 32726.879999999983,
      "d": 1193.1675000000032,
      "v": 70
    },
    {
      "midi": 66,
      "hit": false,
      "t": 32726.879999999983,
      "d": 1193.1675000000032,
      "v": 70
    },
    {
      "midi": 69,
      "hit": false,
      "t": 32726.879999999983,
      "d": 1193.1675000000032,
      "v": 70
    },
    {
      "midi": 62,
      "hit": false,
      "t": 33188.522187500006,
      "d": 419.02906249999796,
      "v": 72
    },
    {
      "midi": 62,
      "hit": false,
      "t": 33706.981875000005,
      "d": 110.08390625000175,
      "v": 76
    },
    {
      "midi": 38,
      "hit": false,
      "t": 33749.59499999997,
      "d": 255.67874999999913,
      "v": 93
    },
    {
      "midi": 62,
      "hit": false,
      "t": 33895.189843750006,
      "d": 149.14593749999767,
      "v": 82
    },
    {
      "midi": 38,
      "hit": false,
      "t": 34090.49999999997,
      "d": 767.0362499999974,
      "v": 100
    },
    {
      "midi": 62,
      "hit": false,
      "t": 34115.35765625,
      "d": 301.8429687500029,
      "v": 82
    },
    {
      "midi": 57,
      "hit": false,
      "t": 34431.404999999984,
      "d": 340.90499999999884,
      "v": 60
    },
    {
      "midi": 57,
      "hit": false,
      "t": 34456.26265625001,
      "d": 202.41234375000204,
      "v": 91
    },
    {
      "midi": 57,
      "hit": false,
      "t": 34758.10562500001,
      "d": 337.35390624999854,
      "v": 68
    },
    {
      "midi": 62,
      "hit": false,
      "t": 34772.30999999998,
      "d": 340.90499999999884,
      "v": 65
    },
    {
      "midi": 59,
      "hit": false,
      "t": 35074.15296875001,
      "d": 202.41234375000204,
      "v": 93
    },
    {
      "midi": 38,
      "hit": false,
      "t": 35113.21499999997,
      "d": 255.67874999999913,
      "v": 80
    },
    {
      "midi": 66,
      "hit": false,
      "t": 35113.21499999998,
      "d": 340.90499999999884,
      "v": 70
    },
    {
      "midi": 31,
      "hit": false,
      "t": 35454.119999999966,
      "d": 767.0362499999974,
      "v": 89
    },
    {
      "midi": 55,
      "hit": false,
      "t": 35454.11999999998,
      "d": 1193.1675000000032,
      "v": 70
    },
    {
      "midi": 59,
      "hit": false,
      "t": 35454.11999999998,
      "d": 1193.1675000000032,
      "v": 70
    },
    {
      "midi": 62,
      "hit": false,
      "t": 35454.11999999998,
      "d": 1193.1675000000032,
      "v": 70
    },
    {
      "midi": 67,
      "hit": false,
      "t": 35454.11999999998,
      "d": 1193.1675000000032,
      "v": 70
    },
    {
      "midi": 59,
      "hit": false,
      "t": 35454.12000000001,
      "d": 2585.196250000001,
      "v": 95
    },
    {
      "midi": 31,
      "hit": false,
      "t": 36476.83499999996,
      "d": 255.67874999999913,
      "v": 79
    },
    {
      "midi": 31,
      "hit": false,
      "t": 36817.73999999996,
      "d": 767.0362499999974,
      "v": 86
    },
    {
      "midi": 55,
      "hit": false,
      "t": 37158.64499999998,
      "d": 340.90499999999884,
      "v": 70
    },
    {
      "midi": 55,
      "hit": false,
      "t": 37499.54999999998,
      "d": 681.8099999999977,
      "v": 75
    },
    {
      "midi": 59,
      "hit": false,
      "t": 37499.54999999998,
      "d": 681.8099999999977,
      "v": 75
    },
    {
      "midi": 62,
      "hit": false,
      "t": 37499.54999999998,
      "d": 681.8099999999977,
      "v": 75
    },
    {
      "midi": 31,
      "hit": false,
      "t": 37840.45499999996,
      "d": 255.67874999999913,
      "v": 86
    },
    {
      "midi": 31,
      "hit": false,
      "t": 38181.35999999996,
      "d": 767.0362499999974,
      "v": 80
    },
    {
      "midi": 55,
      "hit": false,
      "t": 38181.35999999998,
      "d": 1193.1675000000032,
      "v": 70
    },
    {
      "midi": 59,
      "hit": false,
      "t": 38181.35999999998,
      "d": 1193.1675000000032,
      "v": 70
    },
    {
      "midi": 62,
      "hit": false,
      "t": 38181.35999999998,
      "d": 1193.1675000000032,
      "v": 70
    },
    {
      "midi": 67,
      "hit": false,
      "t": 38181.35999999998,
      "d": 1193.1675000000032,
      "v": 70
    },
    {
      "midi": 67,
      "hit": false,
      "t": 38181.36,
      "d": 2031.225625000072,
      "v": 87
    },
    {
      "midi": 67,
      "hit": false,
      "t": 38532.91828125001,
      "d": 252.12765624999884,
      "v": 80
    },
    {
      "midi": 67,
      "hit": false,
      "t": 38880.92546875001,
      "d": 163.35031249999884,
      "v": 70
    },
    {
      "midi": 67,
      "hit": false,
      "t": 39193.42171875,
      "d": 184.65687500000058,
      "v": 62
    },
    {
      "midi": 31,
      "hit": false,
      "t": 39204.07499999995,
      "d": 255.67874999999913,
      "v": 77
    },
    {
      "midi": 67,
      "hit": false,
      "t": 39537.8778125,
      "d": 184.65687500000058,
      "v": 72
    },
    {
      "midi": 31,
      "hit": false,
      "t": 39544.97999999995,
      "d": 767.0362499999974,
      "v": 101
    },
    {
      "midi": 67,
      "hit": false,
      "t": 39885.885,
      "d": 525.5618749999994,
      "v": 80
    },
    {
      "midi": 66,
      "hit": false,
      "t": 40226.79000000007,
      "d": 720.8720312500227,
      "v": 87
    },
    {
      "midi": 69,
      "hit": false,
      "t": 40404.3446875,
      "d": 120.73718750000262,
      "v": 64
    },
    {
      "midi": 31,
      "hit": false,
      "t": 40567.69499999995,
      "d": 255.67874999999913,
      "v": 84
    },
    {
      "midi": 69,
      "hit": false,
      "t": 40617.410312500004,
      "d": 245.02546874999825,
      "v": 63
    },
    {
      "midi": 71,
      "hit": false,
      "t": 40855.33359375,
      "d": 422.58015624999825,
      "v": 64
    },
    {
      "midi": 40,
      "hit": false,
      "t": 40908.59999999995,
      "d": 767.0362499999974,
      "v": 102
    },
    {
      "midi": 52,
      "hit": false,
      "t": 40908.599999999984,
      "d": 1193.1675000000032,
      "v": 70
    },
    {
      "midi": 55,
      "hit": false,
      "t": 40908.599999999984,
      "d": 1193.1675000000032,
      "v": 70
    },
    {
      "midi": 59,
      "hit": false,
      "t": 40908.599999999984,
      "d": 1193.1675000000032,
      "v": 70
    },
    {
      "midi": 64,
      "hit": false,
      "t": 40908.599999999984,
      "d": 1193.1675000000032,
      "v": 70
    },
    {
      "midi": 67,
      "hit": false,
      "t": 40908.599999999984,
      "d": 1193.1675000000032,
      "v": 70
    },
    {
      "midi": 67,
      "hit": false,
      "t": 40908.60000000009,
      "d": 2048.9810937500297,
      "v": 81
    },
    {
      "midi": 71,
      "hit": false,
      "t": 41370.2421875,
      "d": 301.8429687500029,
      "v": 55
    },
    {
      "midi": 71,
      "hit": false,
      "t": 41821.23109375,
      "d": 131.3904687500035,
      "v": 61
    },
    {
      "midi": 40,
      "hit": false,
      "t": 41931.314999999944,
      "d": 255.67874999999913,
      "v": 75
    },
    {
      "midi": 71,
      "hit": false,
      "t": 42052.052187500005,
      "d": 120.73718750000262,
      "v": 78
    },
    {
      "midi": 40,
      "hit": false,
      "t": 42272.21999999994,
      "d": 767.0362499999974,
      "v": 102
    },
    {
      "midi": 71,
      "hit": false,
      "t": 42272.22000000001,
      "d": 262.7809374999997,
      "v": 85
    },
    {
      "midi": 71,
      "hit": false,
      "t": 42623.77828125001,
      "d": 287.63859375000175,
      "v": 78
    },
    {
      "midi": 69,
      "hit": false,
      "t": 42922.07015625001,
      "d": 198.86125000000175,
      "v": 64
    },
    {
      "midi": 66,
      "hit": false,
      "t": 42954.03000000012,
      "d": 681.8100000000122,
      "v": 95
    },
    {
      "midi": 69,
      "hit": false,
      "t": 43287.83281250001,
      "d": 351.5582812499997,
      "v": 78
    },
    {
      "midi": 40,
      "hit": false,
      "t": 43294.93499999994,
      "d": 255.67874999999913,
      "v": 85
    },
    {
      "midi": 40,
      "hit": false,
      "t": 43635.83999999994,
      "d": 767.0362499999974,
      "v": 89
    },
    {
      "midi": 55,
      "hit": false,
      "t": 43635.83999999999,
      "d": 1193.1675000000032,
      "v": 70
    },
    {
      "midi": 59,
      "hit": false,
      "t": 43635.83999999999,
      "d": 1193.1675000000032,
      "v": 70
    },
    {
      "midi": 64,
      "hit": false,
      "t": 43635.83999999999,
      "d": 1193.1675000000032,
      "v": 70
    },
    {
      "midi": 67,
      "hit": false,
      "t": 43635.840000000135,
      "d": 1363.620000000068,
      "v": 93
    },
    {
      "midi": 67,
      "hit": false,
      "t": 43660.69765625001,
      "d": 351.5582812499997,
      "v": 87
    },
    {
      "midi": 67,
      "hit": false,
      "t": 44115.237656250014,
      "d": 273.4342187500006,
      "v": 87
    },
    {
      "midi": 67,
      "hit": false,
      "t": 44541.36890625001,
      "d": 110.08390625000175,
      "v": 78
    },
    {
      "midi": 40,
      "hit": false,
      "t": 44658.554999999935,
      "d": 255.67874999999913,
      "v": 78
    },
    {
      "midi": 67,
      "hit": false,
      "t": 44757.985625000016,
      "d": 113.63500000000204,
      "v": 80
    },
    {
      "midi": 67,
      "hit": false,
      "t": 44971.05125000002,
      "d": 195.31015625000146,
      "v": 91
    },
    {
      "midi": 40,
      "hit": false,
      "t": 44999.459999999934,
      "d": 767.0362499999974,
      "v": 95
    },
    {
      "midi": 71,
      "hit": false,
      "t": 44999.4600000002,
      "d": 518.4596875000279,
      "v": 87
    },
    {
      "midi": 67,
      "hit": false,
      "t": 45279.99640625002,
      "d": 365.7626562500009,
      "v": 87
    },
    {
      "midi": 55,
      "hit": false,
      "t": 45340.36499999999,
      "d": 340.90499999999884,
      "v": 60
    },
    {
      "midi": 76,
      "hit": false,
      "t": 45510.81750000023,
      "d": 511.35750000002736,
      "v": 87
    },
    {
      "midi": 66,
      "hit": false,
      "t": 45613.79921875002,
      "d": 372.86484375000146,
      "v": 85
    },
    {
      "midi": 59,
      "hit": false,
      "t": 45681.26999999999,
      "d": 340.90499999999884,
      "v": 65
    },
    {
      "midi": 67,
      "hit": false,
      "t": 45965.35750000002,
      "d": 376.41593750000175,
      "v": 89
    },
    {
      "midi": 40,
      "hit": false,
      "t": 46022.17499999993,
      "d": 255.67874999999913,
      "v": 80
    },
    {
      "midi": 64,
      "hit": false,
      "t": 46022.17499999999,
      "d": 340.90499999999884,
      "v": 70
    },
    {
      "midi": 71,
      "hit": false,
      "t": 46022.17500000026,
      "d": 426.1312500000131,
      "v": 64
    },
    {
      "midi": 66,
      "hit": false,
      "t": 46348.87562500002,
      "d": 1271.2915625000023,
      "v": 102
    },
    {
      "midi": 35,
      "hit": false,
      "t": 46363.07999999993,
      "d": 767.0362499999974,
      "v": 96
    },
    {
      "midi": 47,
      "hit": false,
      "t": 46363.07999999999,
      "d": 1193.1675000000032,
      "v": 70
    },
    {
      "midi": 54,
      "hit": false,
      "t": 46363.07999999999,
      "d": 1193.1675000000032,
      "v": 70
    },
    {
      "midi": 59,
      "hit": false,
      "t": 46363.07999999999,
      "d": 1193.1675000000032,
      "v": 70
    },
    {
      "midi": 62,
      "hit": false,
      "t": 46363.07999999999,
      "d": 1193.1675000000032,
      "v": 70
    },
    {
      "midi": 66,
      "hit": false,
      "t": 46363.07999999999,
      "d": 1193.1675000000032,
      "v": 70
    },
    {
      "midi": 74,
      "hit": false,
      "t": 46363.08000000027,
      "d": 1874.9775000000736,
      "v": 75
    },
    {
      "midi": 35,
      "hit": false,
      "t": 47385.794999999925,
      "d": 255.67874999999913,
      "v": 92
    },
    {
      "midi": 66,
      "hit": false,
      "t": 47716.046718750025,
      "d": 1416.8864062499997,
      "v": 85
    },
    {
      "midi": 35,
      "hit": false,
      "t": 47726.699999999924,
      "d": 767.0362499999974,
      "v": 94
    },
    {
      "midi": 47,
      "hit": false,
      "t": 48067.60499999999,
      "d": 340.90499999999884,
      "v": 70
    },
    {
      "midi": 71,
      "hit": false,
      "t": 48238.057500000345,
      "d": 468.7443750000166,
      "v": 66
    },
    {
      "midi": 54,
      "hit": false,
      "t": 48408.50999999999,
      "d": 681.8099999999977,
      "v": 75
    },
    {
      "midi": 59,
      "hit": false,
      "t": 48408.50999999999,
      "d": 681.8099999999977,
      "v": 75
    },
    {
      "midi": 62,
      "hit": false,
      "t": 48408.50999999999,
      "d": 681.8099999999977,
      "v": 75
    },
    {
      "midi": 66,
      "hit": false,
      "t": 48408.50999999999,
      "d": 681.8099999999977,
      "v": 75
    },
    {
      "midi": 35,
      "hit": false,
      "t": 48749.41499999992,
      "d": 255.67874999999913,
      "v": 86
    },
    {
      "midi": 66,
      "hit": false,
      "t": 48749.415000000365,
      "d": 369.31375000000844,
      "v": 66
    },
    {
      "midi": 36,
      "hit": false,
      "t": 49090.31999999992,
      "d": 767.0362499999974,
      "v": 98
    },
    {
      "midi": 55,
      "hit": false,
      "t": 49090.319999999985,
      "d": 1193.1675000000032,
      "v": 70
    },
    {
      "midi": 60,
      "hit": false,
      "t": 49090.319999999985,
      "d": 1193.1675000000032,
      "v": 70
    },
    {
      "midi": 64,
      "hit": false,
      "t": 49090.319999999985,
      "d": 1193.1675000000032,
      "v": 70
    },
    {
      "midi": 67,
      "hit": false,
      "t": 49090.319999999985,
      "d": 1193.1675000000032,
      "v": 70
    },
    {
      "midi": 64,
      "hit": false,
      "t": 49090.32000000037,
      "d": 2624.2582812499895,
      "v": 72
    },
    {
      "midi": 64,
      "hit": false,
      "t": 49495.144687500026,
      "d": 436.7845312499994,
      "v": 80
    },
    {
      "midi": 64,
      "hit": false,
      "t": 50017.155468750025,
      "d": 124.28828125000291,
      "v": 76
    },
    {
      "midi": 36,
      "hit": false,
      "t": 50113.034999999916,
      "d": 255.67874999999913,
      "v": 89
    },
    {
      "midi": 64,
      "hit": false,
      "t": 50240.87437500003,
      "d": 127.8393750000032,
      "v": 87
    },
    {
      "midi": 36,
      "hit": false,
      "t": 50453.939999999915,
      "d": 767.0362499999974,
      "v": 89
    },
    {
      "midi": 64,
      "hit": false,
      "t": 50464.59328125003,
      "d": 177.5546875,
      "v": 82
    },
    {
      "midi": 55,
      "hit": false,
      "t": 50794.84499999999,
      "d": 340.90499999999884,
      "v": 60
    },
    {
      "midi": 64,
      "hit": false,
      "t": 50794.84500000003,
      "d": 191.75906250000116,
      "v": 78
    },
    {
      "midi": 64,
      "hit": false,
      "t": 51110.892343750034,
      "d": 184.65687500000058,
      "v": 78
    },
    {
      "midi": 60,
      "hit": false,
      "t": 51135.749999999985,
      "d": 340.90499999999884,
      "v": 65
    },
    {
      "midi": 64,
      "hit": false,
      "t": 51426.93968750004,
      "d": 372.86484375000146,
      "v": 78
    },
    {
      "midi": 36,
      "hit": false,
      "t": 51476.65499999991,
      "d": 255.67874999999913,
      "v": 80
    },
    {
      "midi": 64,
      "hit": false,
      "t": 51476.654999999984,
      "d": 340.90499999999884,
      "v": 70
    },
    {
      "midi": 38,
      "hit": false,
      "t": 51817.55999999991,
      "d": 767.0362499999974,
      "v": 97
    },
    {
      "midi": 50,
      "hit": false,
      "t": 51817.55999999998,
      "d": 1193.1675000000032,
      "v": 70
    },
    {
      "midi": 57,
      "hit": false,
      "t": 51817.55999999998,
      "d": 1193.1675000000032,
      "v": 70
    },
    {
      "midi": 62,
      "hit": false,
      "t": 51817.55999999998,
      "d": 1193.1675000000032,
      "v": 70
    },
    {
      "midi": 66,
      "hit": false,
      "t": 51817.55999999998,
      "d": 1193.1675000000032,
      "v": 70
    },
    {
      "midi": 66,
      "hit": false,
      "t": 51817.56000000037,
      "d": 653.4012500000026,
      "v": 72
    },
    {
      "midi": 66,
      "hit": false,
      "t": 51821.11109375004,
      "d": 344.4560937499991,
      "v": 85
    },
    {
      "midi": 66,
      "hit": false,
      "t": 52282.75328125004,
      "d": 333.80281249999825,
      "v": 85
    },
    {
      "midi": 74,
      "hit": false,
      "t": 52499.370000000374,
      "d": 2059.6343750000233,
      "v": 66
    },
    {
      "midi": 66,
      "hit": false,
      "t": 52733.742187500044,
      "d": 117.18609375000233,
      "v": 78
    },
    {
      "midi": 38,
      "hit": false,
      "t": 52840.27499999991,
      "d": 255.67874999999913,
      "v": 84
    },
    {
      "midi": 66,
      "hit": false,
      "t": 52957.46109375005,
      "d": 113.63500000000204,
      "v": 78
    },
    {
      "midi": 38,
      "hit": false,
      "t": 53181.179999999906,
      "d": 767.0362499999974,
      "v": 96
    },
    {
      "midi": 66,
      "hit": false,
      "t": 53184.73109375005,
      "d": 241.47437499999796,
      "v": 70
    },
    {
      "midi": 50,
      "hit": false,
      "t": 53522.084999999985,
      "d": 340.90499999999884,
      "v": 70
    },
    {
      "midi": 66,
      "hit": false,
      "t": 53525.63609375005,
      "d": 227.2699999999968,
      "v": 64
    },
    {
      "midi": 66,
      "hit": false,
      "t": 53838.13234375005,
      "d": 134.9415624999965,
      "v": 70
    },
    {
      "midi": 50,
      "hit": false,
      "t": 53862.98999999998,
      "d": 681.8099999999977,
      "v": 75
    },
    {
      "midi": 57,
      "hit": false,
      "t": 53862.98999999998,
      "d": 681.8099999999977,
      "v": 75
    },
    {
      "midi": 62,
      "hit": false,
      "t": 53862.98999999998,
      "d": 681.8099999999977,
      "v": 75
    },
    {
      "midi": 66,
      "hit": false,
      "t": 53862.98999999998,
      "d": 681.8099999999977,
      "v": 75
    },
    {
      "midi": 69,
      "hit": false,
      "t": 53862.98999999998,
      "d": 681.8099999999977,
      "v": 75
    },
    {
      "midi": 66,
      "hit": false,
      "t": 54147.07750000004,
      "d": 209.51453125000262,
      "v": 78
    },
    {
      "midi": 38,
      "hit": false,
      "t": 54203.8949999999,
      "d": 255.67874999999913,
      "v": 87
    },
    {
      "midi": 69,
      "hit": false,
      "t": 54505.73796875004,
      "d": 333.80281249999825,
      "v": 100
    },
    {
      "midi": 38,
      "hit": false,
      "t": 54544.7999999999,
      "d": 767.0362499999974,
      "v": 85
    },
    {
      "midi": 57,
      "hit": false,
      "t": 54544.79999999998,
      "d": 1193.1675000000032,
      "v": 70
    },
    {
      "midi": 62,
      "hit": false,
      "t": 54544.79999999998,
      "d": 1193.1675000000032,
      "v": 70
    },
    {
      "midi": 66,
      "hit": false,
      "t": 54544.79999999998,
      "d": 1193.1675000000032,
      "v": 70
    },
    {
      "midi": 69,
      "hit": false,
      "t": 54544.79999999998,
      "d": 1193.1675000000032,
      "v": 70
    },
    {
      "midi": 72,
      "hit": false,
      "t": 54544.800000000396,
      "d": 2073.8387500000244,
      "v": 69
    },
    {
      "midi": 69,
      "hit": false,
      "t": 54967.380156250045,
      "d": 355.109375,
      "v": 85
    },
    {
      "midi": 69,
      "hit": false,
      "t": 55464.53328125004,
      "d": 110.08390625000175,
      "v": 80
    },
    {
      "midi": 38,
      "hit": false,
      "t": 55567.5149999999,
      "d": 255.67874999999913,
      "v": 94
    },
    {
      "midi": 69,
      "hit": false,
      "t": 55684.701093750045,
      "d": 113.63500000000204,
      "v": 74
    },
    {
      "midi": 38,
      "hit": false,
      "t": 55908.4199999999,
      "d": 767.0362499999974,
      "v": 102
    },
    {
      "midi": 69,
      "hit": false,
      "t": 55915.52218750005,
      "d": 216.6167187500032,
      "v": 78
    },
    {
      "midi": 50,
      "hit": false,
      "t": 56249.32499999998,
      "d": 340.90499999999884,
      "v": 70
    },
    {
      "midi": 69,
      "hit": false,
      "t": 56267.08046875005,
      "d": 188.20796875000087,
      "v": 70
    },
    {
      "midi": 69,
      "hit": false,
      "t": 56579.57671875005,
      "d": 383.51812499999505,
      "v": 68
    },
    {
      "midi": 57,
      "hit": false,
      "t": 56590.22999999998,
      "d": 681.8099999999977,
      "v": 75
    },
    {
      "midi": 62,
      "hit": false,
      "t": 56590.22999999998,
      "d": 681.8099999999977,
      "v": 75
    },
    {
      "midi": 66,
      "hit": false,
      "t": 56590.22999999998,
      "d": 681.8099999999977,
      "v": 75
    },
    {
      "midi": 66,
      "hit": false,
      "t": 56590.23000000042,
      "d": 621.44140625,
      "v": 55
    },
    {
      "midi": 71,
      "hit": false,
      "t": 56916.93062500005,
      "d": 397.7224999999962,
      "v": 89
    },
    {
      "midi": 38,
      "hit": false,
      "t": 56931.13499999989,
      "d": 255.67874999999913,
      "v": 93
    },
    {
      "midi": 69,
      "hit": false,
      "t": 57264.93781250005,
      "d": 1345.8645312500012,
      "v": 91
    },
    {
      "midi": 31,
      "hit": false,
      "t": 57272.03999999989,
      "d": 767.0362499999974,
      "v": 91
    },
    {
      "midi": 55,
      "hit": false,
      "t": 57272.03999999998,
      "d": 1193.1675000000032,
      "v": 70
    },
    {
      "midi": 59,
      "hit": false,
      "t": 57272.03999999998,
      "d": 1193.1675000000032,
      "v": 70
    },
    {
      "midi": 62,
      "hit": false,
      "t": 57272.03999999998,
      "d": 1193.1675000000032,
      "v": 70
    },
    {
      "midi": 69,
      "hit": false,
      "t": 57272.04000000042,
      "d": 1381.375468750026,
      "v": 66
    },
    {
      "midi": 31,
      "hit": false,
      "t": 58294.75499999989,
      "d": 255.67874999999913,
      "v": 76
    },
    {
      "midi": 67,
      "hit": false,
      "t": 58585.94468750005,
      "d": 3263.4551562500055,
      "v": 95
    },
    {
      "midi": 31,
      "hit": false,
      "t": 58635.65999999989,
      "d": 767.0362499999974,
      "v": 92
    },
    {
      "midi": 67,
      "hit": false,
      "t": 58635.66000000045,
      "d": 3792.568125000056,
      "v": 64
    },
    {
      "midi": 55,
      "hit": false,
      "t": 58976.56499999998,
      "d": 340.90499999999884,
      "v": 70
    },
    {
      "midi": 55,
      "hit": false,
      "t": 59317.46999999998,
      "d": 681.8099999999977,
      "v": 75
    },
    {
      "midi": 59,
      "hit": false,
      "t": 59317.46999999998,
      "d": 681.8099999999977,
      "v": 75
    },
    {
      "midi": 62,
      "hit": false,
      "t": 59317.46999999998,
      "d": 681.8099999999977,
      "v": 75
    },
    {
      "midi": 67,
      "hit": false,
      "t": 59317.46999999998,
      "d": 681.8099999999977,
      "v": 75
    },
    {
      "midi": 31,
      "hit": false,
      "t": 59658.37499999988,
      "d": 255.67874999999913,
      "v": 78
    },
    {
      "midi": 31,
      "hit": false,
      "t": 59999.27999999988,
      "d": 767.0362499999974,
      "v": 102
    },
    {
      "midi": 55,
      "hit": false,
      "t": 59999.27999999998,
      "d": 1193.1675000000032,
      "v": 70
    },
    {
      "midi": 59,
      "hit": false,
      "t": 59999.27999999998,
      "d": 1193.1675000000032,
      "v": 70
    },
    {
      "midi": 62,
      "hit": false,
      "t": 59999.27999999998,
      "d": 1193.1675000000032,
      "v": 70
    },
    {
      "midi": 67,
      "hit": false,
      "t": 59999.27999999998,
      "d": 1193.1675000000032,
      "v": 70
    },
    {
      "midi": 31,
      "hit": false,
      "t": 61021.99499999988,
      "d": 255.67874999999913,
      "v": 88
    },
    {
      "midi": 31,
      "hit": false,
      "t": 61362.89999999988,
      "d": 767.0362499999974,
      "v": 100
    },
    {
      "midi": 67,
      "hit": false,
      "t": 61977.23921875006,
      "d": 756.3829687500038,
      "v": 87
    },
    {
      "midi": 31,
      "hit": false,
      "t": 62385.614999999874,
      "d": 255.67874999999913,
      "v": 94
    },
    {
      "midi": 36,
      "hit": false,
      "t": 62726.51999999987,
      "d": 767.0362499999974,
      "v": 92
    },
    {
      "midi": 55,
      "hit": false,
      "t": 62726.51999999998,
      "d": 1193.1675000000032,
      "v": 70
    },
    {
      "midi": 60,
      "hit": false,
      "t": 62726.51999999998,
      "d": 1193.1675000000032,
      "v": 70
    },
    {
      "midi": 64,
      "hit": false,
      "t": 62726.51999999998,
      "d": 1193.1675000000032,
      "v": 70
    },
    {
      "midi": 67,
      "hit": false,
      "t": 62726.51999999998,
      "d": 1193.1675000000032,
      "v": 70
    },
    {
      "midi": 67,
      "hit": false,
      "t": 62726.520000000004,
      "d": 2727.2400000000052,
      "v": 61
    },
    {
      "midi": 72,
      "hit": false,
      "t": 62726.520000000004,
      "d": 2727.2400000000052,
      "v": 61
    },
    {
      "midi": 76,
      "hit": false,
      "t": 62726.520000000004,
      "d": 2727.2400000000052,
      "v": 61
    },
    {
      "midi": 48,
      "hit": false,
      "t": 62726.520000000004,
      "d": 5454.479999999996,
      "v": 61
    },
    {
      "midi": 60,
      "hit": false,
      "t": 62726.520000000004,
      "d": 5454.479999999996,
      "v": 61
    },
    {
      "midi": 64,
      "hit": false,
      "t": 62726.52000000006,
      "d": 3728.6484375,
      "v": 85
    },
    {
      "midi": 36,
      "hit": false,
      "t": 63749.23499999987,
      "d": 255.67874999999913,
      "v": 91
    },
    {
      "midi": 79,
      "hit": false,
      "t": 63749.2350000005,
      "d": 838.0581250000323,
      "v": 75
    },
    {
      "midi": 36,
      "hit": false,
      "t": 64090.13999999987,
      "d": 767.0362499999974,
      "v": 96
    },
    {
      "midi": 78,
      "hit": false,
      "t": 64601.497500000536,
      "d": 472.2954687500169,
      "v": 87
    },
    {
      "midi": 36,
      "hit": false,
      "t": 65112.854999999865,
      "d": 255.67874999999913,
      "v": 85
    },
    {
      "midi": 76,
      "hit": false,
      "t": 65112.855000000556,
      "d": 394.1714062500105,
      "v": 78
    },
    {
      "midi": 69,
      "hit": false,
      "t": 65396.942500000005,
      "d": 2773.4042187500017,
      "v": 63
    },
    {
      "midi": 74,
      "hit": false,
      "t": 65428.90234375001,
      "d": 8288.252812499974,
      "v": 70
    },
    {
      "midi": 78,
      "hit": false,
      "t": 65436.00453125001,
      "d": 8132.00468749999,
      "v": 35
    },
    {
      "midi": 36,
      "hit": false,
      "t": 65453.759999999864,
      "d": 767.0362500000047,
      "v": 85
    },
    {
      "midi": 57,
      "hit": false,
      "t": 65453.75999999999,
      "d": 1193.1675000000032,
      "v": 70
    },
    {
      "midi": 62,
      "hit": false,
      "t": 65453.75999999999,
      "d": 1193.1675000000032,
      "v": 70
    },
    {
      "midi": 66,
      "hit": false,
      "t": 65453.75999999999,
      "d": 1193.1675000000032,
      "v": 70
    },
    {
      "midi": 78,
      "hit": false,
      "t": 65453.76000000057,
      "d": 4619.972968749957,
      "v": 72
    },
    {
      "midi": 36,
      "hit": false,
      "t": 66476.47499999987,
      "d": 255.6787500000064,
      "v": 88
    },
    {
      "midi": 66,
      "hit": false,
      "t": 66483.57718750006,
      "d": 248.57656249999127,
      "v": 91
    },
    {
      "midi": 67,
      "hit": false,
      "t": 66678.88734375006,
      "d": 287.6385937499872,
      "v": 87
    },
    {
      "midi": 36,
      "hit": false,
      "t": 66817.37999999989,
      "d": 767.0362500000047,
      "v": 89
    },
    {
      "midi": 69,
      "hit": false,
      "t": 66920.36171875005,
      "d": 383.5181250000023,
      "v": 89
    },
    {
      "midi": 57,
      "hit": false,
      "t": 67158.28499999999,
      "d": 340.90499999999884,
      "v": 60
    },
    {
      "midi": 69,
      "hit": false,
      "t": 67385.55500000005,
      "d": 408.3757812499971,
      "v": 91
    },
    {
      "midi": 62,
      "hit": false,
      "t": 67499.18999999999,
      "d": 340.90499999999884,
      "v": 65
    },
    {
      "midi": 66,
      "hit": false,
      "t": 67783.27750000005,
      "d": 447.437812499993,
      "v": 76
    },
    {
      "midi": 36,
      "hit": false,
      "t": 67840.0949999999,
      "d": 255.6787500000064,
      "v": 94
    },
    {
      "midi": 66,
      "hit": false,
      "t": 67840.09499999999,
      "d": 340.90499999999884,
      "v": 70
    },
    {
      "midi": 71,
      "hit": false,
      "t": 68138.38687500001,
      "d": 5315.987343749992,
      "v": 68
    },
    {
      "midi": 59,
      "hit": false,
      "t": 68145.48906250001,
      "d": 5557.4617187499825,
      "v": 74
    },
    {
      "midi": 35,
      "hit": false,
      "t": 68180.99999999991,
      "d": 767.0362500000047,
      "v": 93
    },
    {
      "midi": 59,
      "hit": false,
      "t": 68180.99999999999,
      "d": 1193.167499999996,
      "v": 70
    },
    {
      "midi": 62,
      "hit": false,
      "t": 68180.99999999999,
      "d": 1193.167499999996,
      "v": 70
    },
    {
      "midi": 66,
      "hit": false,
      "t": 68180.99999999999,
      "d": 1193.167499999996,
      "v": 70
    },
    {
      "midi": 71,
      "hit": false,
      "t": 68180.99999999999,
      "d": 1193.167499999996,
      "v": 70
    },
    {
      "midi": 62,
      "hit": false,
      "t": 68198.75546875005,
      "d": 1445.2951562499948,
      "v": 102
    },
    {
      "midi": 35,
      "hit": false,
      "t": 69203.71499999992,
      "d": 255.6787500000064,
      "v": 86
    },
    {
      "midi": 35,
      "hit": false,
      "t": 69544.61999999994,
      "d": 767.0362500000047,
      "v": 98
    },
    {
      "midi": 59,
      "hit": false,
      "t": 69644.05062500005,
      "d": 3600.809062500004,
      "v": 95
    },
    {
      "midi": 47,
      "hit": false,
      "t": 69885.52499999998,
      "d": 340.90499999999884,
      "v": 70
    },
    {
      "midi": 76,
      "hit": false,
      "t": 69885.52500000053,
      "d": 681.8099999999977,
      "v": 84
    },
    {
      "midi": 59,
      "hit": false,
      "t": 70226.42999999998,
      "d": 681.8099999999977,
      "v": 75
    },
    {
      "midi": 62,
      "hit": false,
      "t": 70226.42999999998,
      "d": 681.8099999999977,
      "v": 75
    },
    {
      "midi": 66,
      "hit": false,
      "t": 70226.42999999998,
      "d": 681.8099999999977,
      "v": 75
    },
    {
      "midi": 71,
      "hit": false,
      "t": 70226.42999999998,
      "d": 681.8099999999977,
      "v": 75
    },
    {
      "midi": 35,
      "hit": false,
      "t": 70567.33499999995,
      "d": 255.6787500000064,
      "v": 78
    },
    {
      "midi": 74,
      "hit": false,
      "t": 70567.33500000053,
      "d": 1644.156406249982,
      "v": 69
    },
    {
      "midi": 47,
      "hit": false,
      "t": 70904.68890625,
      "d": 2801.8129687499895,
      "v": 74
    },
    {
      "midi": 35,
      "hit": false,
      "t": 70908.23999999996,
      "d": 767.0362500000047,
      "v": 89
    },
    {
      "midi": 59,
      "hit": false,
      "t": 70908.23999999998,
      "d": 1193.167499999996,
      "v": 70
    },
    {
      "midi": 62,
      "hit": false,
      "t": 70908.23999999998,
      "d": 1193.167499999996,
      "v": 70
    },
    {
      "midi": 66,
      "hit": false,
      "t": 70908.23999999998,
      "d": 1193.167499999996,
      "v": 70
    },
    {
      "midi": 71,
      "hit": false,
      "t": 70908.23999999998,
      "d": 1193.167499999996,
      "v": 70
    },
    {
      "midi": 35,
      "hit": false,
      "t": 71930.95499999997,
      "d": 255.6787500000064,
      "v": 87
    },
    {
      "midi": 35,
      "hit": false,
      "t": 72271.85999999999,
      "d": 767.0362500000047,
      "v": 88
    },
    {
      "midi": 66,
      "hit": false,
      "t": 72271.86000000051,
      "d": 1022.7149999999383,
      "v": 98
    },
    {
      "midi": 59,
      "hit": false,
      "t": 72612.76499999997,
      "d": 340.90499999999884,
      "v": 60
    },
    {
      "midi": 62,
      "hit": false,
      "t": 72953.66999999997,
      "d": 340.90499999999884,
      "v": 65
    },
    {
      "midi": 62,
      "hit": false,
      "t": 73262.61515625005,
      "d": 422.58015624999825,
      "v": 87
    },
    {
      "midi": 66,
      "hit": false,
      "t": 73294.57499999997,
      "d": 340.90499999999884,
      "v": 70
    },
    {
      "midi": 35,
      "hit": false,
      "t": 73294.575,
      "d": 255.6787500000064,
      "v": 81
    },
    {
      "midi": 71,
      "hit": false,
      "t": 73294.57500000045,
      "d": 369.31375000000116,
      "v": 75
    },
    {
      "midi": 45,
      "hit": false,
      "t": 73635.47999999997,
      "d": 284.0874999999942,
      "v": 70
    },
    {
      "midi": 57,
      "hit": false,
      "t": 73635.47999999997,
      "d": 284.0874999999942,
      "v": 70
    },
    {
      "midi": 60,
      "hit": false,
      "t": 73635.47999999997,
      "d": 284.0874999999942,
      "v": 70
    },
    {
      "midi": 64,
      "hit": false,
      "t": 73635.47999999997,
      "d": 284.0874999999942,
      "v": 70
    },
    {
      "midi": 69,
      "hit": false,
      "t": 73635.47999999997,
      "d": 284.0874999999942,
      "v": 70
    },
    {
      "midi": 33,
      "hit": false,
      "t": 73635.48000000001,
      "d": 767.0362500000047,
      "v": 97
    },
    {
      "midi": 72,
      "hit": false,
      "t": 73635.48000000045,
      "d": 1363.6199999999517,
      "v": 75
    },
    {
      "midi": 60,
      "hit": false,
      "t": 73639.03109375005,
      "d": 1083.0835937499942,
      "v": 95
    },
    {
      "midi": 57,
      "hit": false,
      "t": 73656.7865625,
      "d": 1335.211249999964,
      "v": 56
    },
    {
      "midi": 72,
      "hit": false,
      "t": 73656.7865625,
      "d": 1377.8243749999674,
      "v": 45
    },
    {
      "midi": 69,
      "hit": false,
      "t": 73656.7865625,
      "d": 2727.2399999999616,
      "v": 13
    },
    {
      "midi": 76,
      "hit": false,
      "t": 73670.9909375,
      "d": 1374.2732812499598,
      "v": 59
    },
    {
      "midi": 45,
      "hit": false,
      "t": 73976.38499999997,
      "d": 340.90499999999884,
      "v": 70
    },
    {
      "midi": 57,
      "hit": false,
      "t": 74317.28999999996,
      "d": 340.90499999999884,
      "v": 60
    },
    {
      "midi": 67,
      "hit": false,
      "t": 74647.54171875004,
      "d": 379.96703124999476,
      "v": 93
    },
    {
      "midi": 57,
      "hit": false,
      "t": 74658.19499999996,
      "d": 284.0874999999942,
      "v": 65
    },
    {
      "midi": 60,
      "hit": false,
      "t": 74658.19499999996,
      "d": 284.0874999999942,
      "v": 65
    },
    {
      "midi": 64,
      "hit": false,
      "t": 74658.19499999996,
      "d": 284.0874999999942,
      "v": 65
    },
    {
      "midi": 69,
      "hit": false,
      "t": 74658.19499999996,
      "d": 284.0874999999942,
      "v": 65
    },
    {
      "midi": 33,
      "hit": false,
      "t": 74658.19500000002,
      "d": 255.6787500000064,
      "v": 80
    },
    {
      "midi": 78,
      "hit": false,
      "t": 74952.93578124998,
      "d": 1576.6856249999691,
      "v": 52
    },
    {
      "midi": 66,
      "hit": false,
      "t": 74952.93578125004,
      "d": 419.02906250000524,
      "v": 80
    },
    {
      "midi": 74,
      "hit": false,
      "t": 74956.48687499997,
      "d": 4243.557031249962,
      "v": 54
    },
    {
      "midi": 50,
      "hit": false,
      "t": 74967.14015624997,
      "d": 1463.050624999989,
      "v": 61
    },
    {
      "midi": 57,
      "hit": false,
      "t": 74999.09999999996,
      "d": 284.0874999999942,
      "v": 70
    },
    {
      "midi": 62,
      "hit": false,
      "t": 74999.09999999996,
      "d": 284.0874999999942,
      "v": 70
    },
    {
      "midi": 66,
      "hit": false,
      "t": 74999.09999999996,
      "d": 284.0874999999942,
      "v": 70
    },
    {
      "midi": 38,
      "hit": false,
      "t": 74999.10000000003,
      "d": 767.0362500000047,
      "v": 85
    },
    {
      "midi": 71,
      "hit": false,
      "t": 74999.1000000004,
      "d": 997.8573437500017,
      "v": 64
    },
    {
      "midi": 64,
      "hit": false,
      "t": 75329.35171875004,
      "d": 326.7006250000122,
      "v": 98
    },
    {
      "midi": 66,
      "hit": false,
      "t": 75634.74578125005,
      "d": 397.7225000000035,
      "v": 87
    },
    {
      "midi": 57,
      "hit": false,
      "t": 75680.90999999996,
      "d": 284.0874999999942,
      "v": 70
    },
    {
      "midi": 62,
      "hit": false,
      "t": 75982.75296875005,
      "d": 390.6203125000029,
      "v": 98
    },
    {
      "midi": 62,
      "hit": false,
      "t": 76021.81499999996,
      "d": 284.0874999999942,
      "v": 60
    },
    {
      "midi": 38,
      "hit": false,
      "t": 76021.81500000005,
      "d": 255.6787500000064,
      "v": 84
    },
    {
      "midi": 72,
      "hit": false,
      "t": 76021.8150000004,
      "d": 369.3137500000157,
      "v": 74
    },
    {
      "midi": 55,
      "hit": false,
      "t": 76362.71999999996,
      "d": 284.0874999999942,
      "v": 70
    },
    {
      "midi": 59,
      "hit": false,
      "t": 76362.71999999996,
      "d": 284.0874999999942,
      "v": 70
    },
    {
      "midi": 62,
      "hit": false,
      "t": 76362.71999999996,
      "d": 284.0874999999942,
      "v": 70
    },
    {
      "midi": 31,
      "hit": false,
      "t": 76362.72000000006,
      "d": 767.0362500000047,
      "v": 104
    },
    {
      "midi": 74,
      "hit": false,
      "t": 76362.72000000041,
      "d": 3167.575624999896,
      "v": 84
    },
    {
      "midi": 59,
      "hit": false,
      "t": 76366.27109375005,
      "d": 2855.079375000001,
      "v": 102
    },
    {
      "midi": 71,
      "hit": false,
      "t": 76391.12874999996,
      "d": 2599.40062499998,
      "v": 70
    },
    {
      "midi": 55,
      "hit": false,
      "t": 76398.23093749996,
      "d": 2713.035624999975,
      "v": 61
    },
    {
      "midi": 55,
      "hit": false,
      "t": 76703.62499999996,
      "d": 340.90499999999884,
      "v": 60
    },
    {
      "midi": 55,
      "hit": false,
      "t": 77044.52999999996,
      "d": 340.90499999999884,
      "v": 65
    },
    {
      "midi": 74,
      "hit": false,
      "t": 77044.52999999998,
      "d": 681.8099999999686,
      "v": 95
    },
    {
      "midi": 59,
      "hit": false,
      "t": 77385.43499999995,
      "d": 340.90499999999884,
      "v": 60
    },
    {
      "midi": 31,
      "hit": false,
      "t": 77385.43500000007,
      "d": 255.6787500000064,
      "v": 92
    },
    {
      "midi": 67,
      "hit": false,
      "t": 77634.01156249995,
      "d": 4211.597187499981,
      "v": 66
    },
    {
      "midi": 59,
      "hit": false,
      "t": 77726.33999999995,
      "d": 284.0874999999942,
      "v": 70
    },
    {
      "midi": 62,
      "hit": false,
      "t": 77726.33999999995,
      "d": 284.0874999999942,
      "v": 70
    },
    {
      "midi": 65,
      "hit": false,
      "t": 77726.33999999995,
      "d": 284.0874999999942,
      "v": 70
    },
    {
      "midi": 67,
      "hit": false,
      "t": 77726.33999999995,
      "d": 284.0874999999942,
      "v": 70
    },
    {
      "midi": 79,
      "hit": false,
      "t": 77726.33999999995,
      "d": 681.809999999954,
      "v": 95
    },
    {
      "midi": 31,
      "hit": false,
      "t": 77726.34000000008,
      "d": 767.0362500000047,
      "v": 104
    },
    {
      "midi": 77,
      "hit": false,
      "t": 78408.1499999999,
      "d": 699.5654687499919,
      "v": 98
    },
    {
      "midi": 59,
      "hit": false,
      "t": 78408.14999999995,
      "d": 284.0874999999942,
      "v": 70
    },
    {
      "midi": 62,
      "hit": false,
      "t": 78749.05499999995,
      "d": 284.0874999999942,
      "v": 60
    },
    {
      "midi": 31,
      "hit": false,
      "t": 78749.0550000001,
      "d": 255.6787500000064,
      "v": 78
    },
    {
      "midi": 48,
      "hit": false,
      "t": 79050.89796874994,
      "d": 2837.323906249978,
      "v": 61
    },
    {
      "midi": 76,
      "hit": false,
      "t": 79089.9599999999,
      "d": 2734.3421874999767,
      "v": 98
    },
    {
      "midi": 55,
      "hit": false,
      "t": 79089.95999999995,
      "d": 1193.167499999996,
      "v": 70
    },
    {
      "midi": 60,
      "hit": false,
      "t": 79089.95999999995,
      "d": 1193.167499999996,
      "v": 70
    },
    {
      "midi": 64,
      "hit": false,
      "t": 79089.95999999995,
      "d": 1193.167499999996,
      "v": 70
    },
    {
      "midi": 36,
      "hit": false,
      "t": 79089.96000000011,
      "d": 767.0362500000047,
      "v": 86
    },
    {
      "midi": 76,
      "hit": false,
      "t": 79111.26656249994,
      "d": 2766.3020312499866,
      "v": 50
    },
    {
      "midi": 72,
      "hit": false,
      "t": 79121.91984374993,
      "d": 2762.7509374999936,
      "v": 58
    },
    {
      "midi": 64,
      "hit": false,
      "t": 79469.92703125006,
      "d": 312.4962499999965,
      "v": 105
    },
    {
      "midi": 60,
      "hit": false,
      "t": 79764.66781250006,
      "d": 379.96703124999476,
      "v": 80
    },
    {
      "midi": 62,
      "hit": false,
      "t": 80059.40859375005,
      "d": 440.335625000007,
      "v": 93
    },
    {
      "midi": 36,
      "hit": false,
      "t": 80112.67500000012,
      "d": 255.6787500000064,
      "v": 83
    },
    {
      "midi": 64,
      "hit": false,
      "t": 80407.41578125006,
      "d": 422.58015624999825,
      "v": 85
    },
    {
      "midi": 36,
      "hit": false,
      "t": 80453.58000000013,
      "d": 767.0362500000047,
      "v": 97
    },
    {
      "midi": 66,
      "hit": false,
      "t": 80744.76968750005,
      "d": 369.31375000000116,
      "v": 87
    },
    {
      "midi": 48,
      "hit": false,
      "t": 80794.48499999994,
      "d": 340.90499999999884,
      "v": 70
    },
    {
      "midi": 67,
      "hit": false,
      "t": 81106.98125000006,
      "d": 408.37578125001164,
      "v": 91
    },
    {
      "midi": 48,
      "hit": false,
      "t": 81135.38999999994,
      "d": 681.8099999999977,
      "v": 75
    },
    {
      "midi": 55,
      "hit": false,
      "t": 81135.38999999994,
      "d": 681.8099999999977,
      "v": 75
    },
    {
      "midi": 60,
      "hit": false,
      "t": 81135.38999999994,
      "d": 681.8099999999977,
      "v": 75
    },
    {
      "midi": 64,
      "hit": false,
      "t": 81135.38999999994,
      "d": 681.8099999999977,
      "v": 75
    },
    {
      "midi": 69,
      "hit": false,
      "t": 81458.53953125006,
      "d": 394.1714062500105,
      "v": 100
    },
    {
      "midi": 36,
      "hit": false,
      "t": 81476.29500000014,
      "d": 255.6787500000064,
      "v": 88
    },
    {
      "midi": 59,
      "hit": false,
      "t": 81806.54671874993,
      "d": 2851.528281250008,
      "v": 60
    },
    {
      "midi": 74,
      "hit": false,
      "t": 81817.19999999988,
      "d": 340.90499999999884,
      "v": 87
    },
    {
      "midi": 78,
      "hit": false,
      "t": 81817.19999999988,
      "d": 340.90499999999884,
      "v": 87
    },
    {
      "midi": 47,
      "hit": false,
      "t": 81817.19999999994,
      "d": 1193.167499999996,
      "v": 70
    },
    {
      "midi": 54,
      "hit": false,
      "t": 81817.19999999994,
      "d": 1193.167499999996,
      "v": 70
    },
    {
      "midi": 59,
      "hit": false,
      "t": 81817.19999999994,
      "d": 1193.167499999996,
      "v": 70
    },
    {
      "midi": 62,
      "hit": false,
      "t": 81817.19999999994,
      "d": 1193.167499999996,
      "v": 70
    },
    {
      "midi": 66,
      "hit": false,
      "t": 81817.19999999994,
      "d": 1193.167499999996,
      "v": 70
    },
    {
      "midi": 35,
      "hit": false,
      "t": 81817.20000000016,
      "d": 767.0362500000047,
      "v": 88
    },
    {
      "midi": 71,
      "hit": false,
      "t": 81831.40437500007,
      "d": 1402.6820312500058,
      "v": 113
    },
    {
      "midi": 71,
      "hit": false,
      "t": 81845.60874999993,
      "d": 2716.5867187500116,
      "v": 70
    },
    {
      "midi": 74,
      "hit": false,
      "t": 81845.60874999993,
      "d": 2840.8750000000146,
      "v": 57
    },
    {
      "midi": 71,
      "hit": false,
      "t": 82158.10499999988,
      "d": 340.9049999999843,
      "v": 84
    },
    {
      "midi": 74,
      "hit": false,
      "t": 82158.10499999988,
      "d": 340.9049999999843,
      "v": 84
    },
    {
      "midi": 66,
      "hit": false,
      "t": 82499.00999999986,
      "d": 340.9049999999843,
      "v": 87
    },
    {
      "midi": 71,
      "hit": false,
      "t": 82499.00999999986,
      "d": 340.9049999999843,
      "v": 87
    },
    {
      "midi": 62,
      "hit": false,
      "t": 82839.91499999985,
      "d": 340.90499999999884,
      "v": 90
    },
    {
      "midi": 66,
      "hit": false,
      "t": 82839.91499999985,
      "d": 340.90499999999884,
      "v": 90
    },
    {
      "midi": 35,
      "hit": false,
      "t": 82839.91500000017,
      "d": 255.6787500000064,
      "v": 77
    },
    {
      "midi": 66,
      "hit": false,
      "t": 83166.61562499992,
      "d": 1317.4557812500134,
      "v": 52
    },
    {
      "midi": 66,
      "hit": false,
      "t": 83180.81999999985,
      "d": 340.9049999999843,
      "v": 87
    },
    {
      "midi": 71,
      "hit": false,
      "t": 83180.81999999985,
      "d": 340.9049999999843,
      "v": 87
    },
    {
      "midi": 47,
      "hit": false,
      "t": 83180.81999999992,
      "d": 1061.777031250007,
      "v": 74
    },
    {
      "midi": 35,
      "hit": false,
      "t": 83180.82000000018,
      "d": 767.0362500000047,
      "v": 91
    },
    {
      "midi": 66,
      "hit": false,
      "t": 83237.63750000007,
      "d": 1658.3607812499977,
      "v": 98
    },
    {
      "midi": 71,
      "hit": false,
      "t": 83521.72499999983,
      "d": 340.9049999999843,
      "v": 87
    },
    {
      "midi": 74,
      "hit": false,
      "t": 83521.72499999983,
      "d": 340.9049999999843,
      "v": 87
    },
    {
      "midi": 74,
      "hit": false,
      "t": 83862.62999999982,
      "d": 340.9049999999843,
      "v": 90
    },
    {
      "midi": 78,
      "hit": false,
      "t": 83862.62999999982,
      "d": 340.9049999999843,
      "v": 90
    },
    {
      "midi": 86,
      "hit": false,
      "t": 84203.5349999998,
      "d": 340.90499999999884,
      "v": 90
    },
    {
      "midi": 78,
      "hit": false,
      "t": 84203.5349999998,
      "d": 351.55828124999243,
      "v": 90
    },
    {
      "midi": 35,
      "hit": false,
      "t": 84203.53500000019,
      "d": 255.6787500000064,
      "v": 80
    },
    {
      "midi": 76,
      "hit": false,
      "t": 84544.4399999998,
      "d": 1363.6199999999953,
      "v": 93
    },
    {
      "midi": 84,
      "hit": false,
      "t": 84544.4399999998,
      "d": 1363.6199999999953,
      "v": 93
    },
    {
      "midi": 57,
      "hit": false,
      "t": 84544.43999999993,
      "d": 284.0874999999942,
      "v": 70
    },
    {
      "midi": 60,
      "hit": false,
      "t": 84544.43999999993,
      "d": 284.0874999999942,
      "v": 70
    },
    {
      "midi": 64,
      "hit": false,
      "t": 84544.43999999993,
      "d": 284.0874999999942,
      "v": 70
    },
    {
      "midi": 33,
      "hit": false,
      "t": 84544.4400000002,
      "d": 767.0362500000047,
      "v": 101
    },
    {
      "midi": 57,
      "hit": false,
      "t": 84583.50203124994,
      "d": 1363.6199999999953,
      "v": 63
    },
    {
      "midi": 72,
      "hit": false,
      "t": 84590.60421874994,
      "d": 1360.0689062499878,
      "v": 64
    },
    {
      "midi": 69,
      "hit": false,
      "t": 84643.87062499994,
      "d": 2737.8932812499843,
      "v": 52
    },
    {
      "midi": 45,
      "hit": false,
      "t": 84885.34499999993,
      "d": 340.90499999999884,
      "v": 70
    },
    {
      "midi": 64,
      "hit": false,
      "t": 84935.06031250006,
      "d": 454.5399999999936,
      "v": 100
    },
    {
      "midi": 57,
      "hit": false,
      "t": 85226.24999999993,
      "d": 340.90499999999884,
      "v": 60
    },
    {
      "midi": 64,
      "hit": false,
      "t": 85474.82656250006,
      "d": 142.0437499999971,
      "v": 89
    },
    {
      "midi": 45,
      "hit": false,
      "t": 85567.15499999993,
      "d": 284.0874999999942,
      "v": 65
    },
    {
      "midi": 57,
      "hit": false,
      "t": 85567.15499999993,
      "d": 284.0874999999942,
      "v": 65
    },
    {
      "midi": 60,
      "hit": false,
      "t": 85567.15499999993,
      "d": 284.0874999999942,
      "v": 65
    },
    {
      "midi": 64,
      "hit": false,
      "t": 85567.15499999993,
      "d": 284.0874999999942,
      "v": 65
    },
    {
      "midi": 69,
      "hit": false,
      "t": 85567.15499999993,
      "d": 284.0874999999942,
      "v": 65
    },
    {
      "midi": 33,
      "hit": false,
      "t": 85567.15500000022,
      "d": 255.6787500000064,
      "v": 79
    },
    {
      "midi": 64,
      "hit": false,
      "t": 85716.30093750005,
      "d": 305.3940624999959,
      "v": 89
    },
    {
      "midi": 50,
      "hit": false,
      "t": 85893.85562499994,
      "d": 1519.868124999979,
      "v": 57
    },
    {
      "midi": 74,
      "hit": false,
      "t": 85904.50890624993,
      "d": 5209.454531249969,
      "v": 66
    },
    {
      "midi": 78,
      "hit": false,
      "t": 85908.0599999998,
      "d": 1022.7149999999674,
      "v": 90
    },
    {
      "midi": 86,
      "hit": false,
      "t": 85908.0599999998,
      "d": 1022.7149999999674,
      "v": 90
    },
    {
      "midi": 57,
      "hit": false,
      "t": 85908.05999999992,
      "d": 284.0874999999942,
      "v": 70
    },
    {
      "midi": 62,
      "hit": false,
      "t": 85908.05999999992,
      "d": 284.0874999999942,
      "v": 70
    },
    {
      "midi": 66,
      "hit": false,
      "t": 85908.05999999992,
      "d": 284.0874999999942,
      "v": 70
    },
    {
      "midi": 38,
      "hit": false,
      "t": 85908.06000000023,
      "d": 767.0362500000047,
      "v": 100
    },
    {
      "midi": 66,
      "hit": false,
      "t": 85982.63296875005,
      "d": 202.41234374999476,
      "v": 102
    },
    {
      "midi": 66,
      "hit": false,
      "t": 86298.68031250004,
      "d": 333.80281249999825,
      "v": 74
    },
    {
      "midi": 57,
      "hit": false,
      "t": 86589.86999999992,
      "d": 284.0874999999942,
      "v": 70
    },
    {
      "midi": 64,
      "hit": false,
      "t": 86607.62546875005,
      "d": 348.00718749998487,
      "v": 100
    },
    {
      "midi": 62,
      "hit": false,
      "t": 86909.46843750004,
      "d": 333.80281249999825,
      "v": 98
    },
    {
      "midi": 76,
      "hit": false,
      "t": 86930.77499999976,
      "d": 170.45249999999942,
      "v": 84
    },
    {
      "midi": 84,
      "hit": false,
      "t": 86930.77499999976,
      "d": 340.9049999999843,
      "v": 84
    },
    {
      "midi": 62,
      "hit": false,
      "t": 86930.77499999992,
      "d": 284.0874999999942,
      "v": 60
    },
    {
      "midi": 38,
      "hit": false,
      "t": 86930.77500000024,
      "d": 255.6787500000064,
      "v": 86
    },
    {
      "midi": 78,
      "hit": false,
      "t": 87101.22749999976,
      "d": 259.22984374998487,
      "v": 95
    },
    {
      "midi": 67,
      "hit": false,
      "t": 87253.92453125003,
      "d": 2574.54296875,
      "v": 85
    },
    {
      "midi": 83,
      "hit": false,
      "t": 87271.67999999975,
      "d": 2897.6924999999756,
      "v": 95
    },
    {
      "midi": 79,
      "hit": false,
      "t": 87271.67999999975,
      "d": 2972.2654687499744,
      "v": 95
    },
    {
      "midi": 55,
      "hit": false,
      "t": 87271.67999999992,
      "d": 1193.167499999996,
      "v": 70
    },
    {
      "midi": 59,
      "hit": false,
      "t": 87271.67999999992,
      "d": 1193.167499999996,
      "v": 70
    },
    {
      "midi": 62,
      "hit": false,
      "t": 87271.67999999992,
      "d": 1193.167499999996,
      "v": 70
    },
    {
      "midi": 31,
      "hit": false,
      "t": 87271.68000000025,
      "d": 767.0362500000047,
      "v": 100
    },
    {
      "midi": 71,
      "hit": false,
      "t": 87356.90624999993,
      "d": 3767.710468749967,
      "v": 47
    },
    {
      "midi": 55,
      "hit": false,
      "t": 87392.41718749992,
      "d": 3739.301718749979,
      "v": 54
    },
    {
      "midi": 67,
      "hit": false,
      "t": 87506.05218749991,
      "d": 3554.644843749993,
      "v": 33
    },
    {
      "midi": 31,
      "hit": false,
      "t": 88294.39500000027,
      "d": 255.6787500000064,
      "v": 80
    },
    {
      "midi": 31,
      "hit": false,
      "t": 88635.30000000028,
      "d": 767.0362500000047,
      "v": 98
    },
    {
      "midi": 55,
      "hit": false,
      "t": 88976.20499999991,
      "d": 340.90499999999884,
      "v": 60
    },
    {
      "midi": 59,
      "hit": false,
      "t": 89317.10999999991,
      "d": 340.90499999999884,
      "v": 65
    },
    {
      "midi": 62,
      "hit": false,
      "t": 89658.01499999991,
      "d": 340.90499999999884,
      "v": 70
    },
    {
      "midi": 31,
      "hit": false,
      "t": 89658.01500000029,
      "d": 255.6787500000064,
      "v": 78
    },
    {
      "midi": 55,
      "hit": false,
      "t": 89998.91999999991,
      "d": 1193.167499999996,
      "v": 70
    },
    {
      "midi": 59,
      "hit": false,
      "t": 89998.91999999991,
      "d": 1193.167499999996,
      "v": 70
    },
    {
      "midi": 62,
      "hit": false,
      "t": 89998.91999999991,
      "d": 1193.167499999996,
      "v": 70
    },
    {
      "midi": 67,
      "hit": false,
      "t": 89998.91999999991,
      "d": 1193.167499999996,
      "v": 70
    },
    {
      "midi": 59,
      "hit": false,
      "t": 89998.92,
      "d": 1676.1162499999919,
      "v": 89
    },
    {
      "midi": 31,
      "hit": false,
      "t": 89998.9200000003,
      "d": 767.0362500000047,
      "v": 99
    },
    {
      "midi": 62,
      "hit": false,
      "t": 90339.825,
      "d": 486.4998437500035,
      "v": 64
    },
    {
      "midi": 62,
      "hit": false,
      "t": 90350.47828125003,
      "d": 230.8210937499971,
      "v": 95
    },
    {
      "midi": 67,
      "hit": false,
      "t": 90680.73,
      "d": 458.09109375000116,
      "v": 87
    },
    {
      "midi": 62,
      "hit": false,
      "t": 90684.28109375003,
      "d": 237.92328124999767,
      "v": 80
    },
    {
      "midi": 62,
      "hit": false,
      "t": 91010.98171875003,
      "d": 195.31015624999418,
      "v": 85
    },
    {
      "midi": 71,
      "hit": false,
      "t": 91021.635,
      "d": 358.660468749993,
      "v": 87
    },
    {
      "midi": 31,
      "hit": false,
      "t": 91021.63500000031,
      "d": 255.6787500000064,
      "v": 86
    },
    {
      "midi": 62,
      "hit": false,
      "t": 91327.02906250002,
      "d": 330.25171875000524,
      "v": 82
    },
    {
      "midi": 74,
      "hit": false,
      "t": 91362.54,
      "d": 767.0362500000047,
      "v": 89
    },
    {
      "midi": 31,
      "hit": false,
      "t": 91362.54000000033,
      "d": 767.0362500000047,
      "v": 90
    },
    {
      "midi": 55,
      "hit": false,
      "t": 91703.4449999999,
      "d": 340.90499999999884,
      "v": 70
    },
    {
      "midi": 71,
      "hit": false,
      "t": 91703.44499999999,
      "d": 383.5181250000023,
      "v": 64
    },
    {
      "midi": 62,
      "hit": false,
      "t": 91735.40484375003,
      "d": 419.02906250000524,
      "v": 82
    },
    {
      "midi": 55,
      "hit": false,
      "t": 92044.3499999999,
      "d": 681.8099999999977,
      "v": 75
    },
    {
      "midi": 59,
      "hit": false,
      "t": 92044.3499999999,
      "d": 681.8099999999977,
      "v": 75
    },
    {
      "midi": 62,
      "hit": false,
      "t": 92044.3499999999,
      "d": 681.8099999999977,
      "v": 75
    },
    {
      "midi": 67,
      "hit": false,
      "t": 92044.3499999999,
      "d": 681.8099999999977,
      "v": 75
    },
    {
      "midi": 67,
      "hit": false,
      "t": 92044.34999999999,
      "d": 419.0290625000198,
      "v": 82
    },
    {
      "midi": 62,
      "hit": false,
      "t": 92246.76234375003,
      "d": 106.53281249999418,
      "v": 76
    },
    {
      "midi": 71,
      "hit": false,
      "t": 92385.255,
      "d": 454.54000000000815,
      "v": 87
    },
    {
      "midi": 31,
      "hit": false,
      "t": 92385.25500000034,
      "d": 255.6787500000064,
      "v": 82
    },
    {
      "midi": 62,
      "hit": false,
      "t": 92445.62359375002,
      "d": 301.8429687500029,
      "v": 82
    },
    {
      "midi": 55,
      "hit": false,
      "t": 92726.1599999999,
      "d": 1193.167499999996,
      "v": 70
    },
    {
      "midi": 59,
      "hit": false,
      "t": 92726.1599999999,
      "d": 1193.167499999996,
      "v": 70
    },
    {
      "midi": 64,
      "hit": false,
      "t": 92726.1599999999,
      "d": 1193.167499999996,
      "v": 70
    },
    {
      "midi": 64,
      "hit": false,
      "t": 92726.16000000002,
      "d": 660.5034374999959,
      "v": 50
    },
    {
      "midi": 64,
      "hit": false,
      "t": 92726.16000000002,
      "d": 301.8429687500029,
      "v": 93
    },
    {
      "midi": 40,
      "hit": false,
      "t": 92726.16000000035,
      "d": 767.0362500000047,
      "v": 86
    },
    {
      "midi": 67,
      "hit": false,
      "t": 93067.06500000002,
      "d": 706.6676562499924,
      "v": 91
    },
    {
      "midi": 64,
      "hit": false,
      "t": 93127.43359375001,
      "d": 205.96343750000233,
      "v": 89
    },
    {
      "midi": 71,
      "hit": false,
      "t": 93407.97000000002,
      "d": 376.4159374999872,
      "v": 82
    },
    {
      "midi": 64,
      "hit": false,
      "t": 93418.62328125002,
      "d": 156.24812499999825,
      "v": 80
    },
    {
      "midi": 64,
      "hit": false,
      "t": 93688.50640625002,
      "d": 213.0656250000029,
      "v": 74
    },
    {
      "midi": 76,
      "hit": false,
      "t": 93748.87500000001,
      "d": 852.2624999999825,
      "v": 60
    },
    {
      "midi": 40,
      "hit": false,
      "t": 93748.87500000036,
      "d": 255.6787500000064,
      "v": 76
    },
    {
      "midi": 64,
      "hit": false,
      "t": 94075.57562500003,
      "d": 170.45249999999942,
      "v": 87
    },
    {
      "midi": 71,
      "hit": false,
      "t": 94089.78,
      "d": 777.6895312499983,
      "v": 80
    },
    {
      "midi": 40,
      "hit": false,
      "t": 94089.78000000038,
      "d": 767.0362500000047,
      "v": 91
    },
    {
      "midi": 64,
      "hit": false,
      "t": 94402.27625000002,
      "d": 365.7626562499936,
      "v": 80
    },
    {
      "midi": 52,
      "hit": false,
      "t": 94430.6849999999,
      "d": 340.90499999999884,
      "v": 70
    },
    {
      "midi": 67,
      "hit": false,
      "t": 94430.685,
      "d": 369.31375000000116,
      "v": 82
    },
    {
      "midi": 67,
      "hit": false,
      "t": 94757.38562500002,
      "d": 372.8648437499942,
      "v": 82
    },
    {
      "midi": 55,
      "hit": false,
      "t": 94771.5899999999,
      "d": 681.8099999999977,
      "v": 75
    },
    {
      "midi": 59,
      "hit": false,
      "t": 94771.5899999999,
      "d": 681.8099999999977,
      "v": 75
    },
    {
      "midi": 64,
      "hit": false,
      "t": 94771.5899999999,
      "d": 681.8099999999977,
      "v": 75
    },
    {
      "midi": 64,
      "hit": false,
      "t": 94771.59,
      "d": 443.88671875,
      "v": 66
    },
    {
      "midi": 67,
      "hit": false,
      "t": 95112.495,
      "d": 323.14953125000466,
      "v": 89
    },
    {
      "midi": 40,
      "hit": false,
      "t": 95112.49500000039,
      "d": 255.6787500000064,
      "v": 87
    },
    {
      "midi": 64,
      "hit": false,
      "t": 95123.14828125002,
      "d": 379.9670312500093,
      "v": 87
    },
    {
      "midi": 55,
      "hit": false,
      "t": 95453.39999999989,
      "d": 1193.167499999996,
      "v": 70
    },
    {
      "midi": 59,
      "hit": false,
      "t": 95453.39999999989,
      "d": 1193.167499999996,
      "v": 70
    },
    {
      "midi": 62,
      "hit": false,
      "t": 95453.39999999989,
      "d": 1193.167499999996,
      "v": 70
    },
    {
      "midi": 59,
      "hit": false,
      "t": 95453.4,
      "d": 404.8246875000041,
      "v": 89
    },
    {
      "midi": 31,
      "hit": false,
      "t": 95453.4000000004,
      "d": 767.0362500000047,
      "v": 95
    },
    {
      "midi": 62,
      "hit": false,
      "t": 95474.70656250003,
      "d": 319.5984374999971,
      "v": 91
    },
    {
      "midi": 62,
      "hit": false,
      "t": 95794.305,
      "d": 607.2370312499988,
      "v": 76
    },
    {
      "midi": 62,
      "hit": false,
      "t": 95872.42906250003,
      "d": 411.92687500000466,
      "v": 89
    },
    {
      "midi": 67,
      "hit": false,
      "t": 96135.20999999999,
      "d": 355.109375,
      "v": 87
    },
    {
      "midi": 62,
      "hit": false,
      "t": 96369.58218750004,
      "d": 124.28828125000291,
      "v": 85
    },
    {
      "midi": 71,
      "hit": false,
      "t": 96476.11499999999,
      "d": 436.7845312499994,
      "v": 80
    },
    {
      "midi": 31,
      "hit": false,
      "t": 96476.11500000041,
      "d": 255.6787500000064,
      "v": 94
    },
    {
      "midi": 62,
      "hit": false,
      "t": 96575.54562500004,
      "d": 110.08390625000175,
      "v": 76
    },
    {
      "midi": 62,
      "hit": false,
      "t": 96770.85578125005,
      "d": 230.8210937499971,
      "v": 85
    },
    {
      "midi": 74,
      "hit": false,
      "t": 96817.01999999999,
      "d": 717.3209375000006,
      "v": 87
    },
    {
      "midi": 31,
      "hit": false,
      "t": 96817.02000000043,
      "d": 767.0362500000047,
      "v": 100
    },
    {
      "midi": 62,
      "hit": false,
      "t": 97122.41406250004,
      "d": 159.79921875000582,
      "v": 85
    },
    {
      "midi": 55,
      "hit": false,
      "t": 97157.92499999989,
      "d": 340.90499999999884,
      "v": 70
    },
    {
      "midi": 71,
      "hit": false,
      "t": 97157.92499999999,
      "d": 419.02906250000524,
      "v": 74
    },
    {
      "midi": 62,
      "hit": false,
      "t": 97427.80812500005,
      "d": 383.5181250000023,
      "v": 60
    },
    {
      "midi": 55,
      "hit": false,
      "t": 97498.82999999989,
      "d": 681.8099999999977,
      "v": 75
    },
    {
      "midi": 59,
      "hit": false,
      "t": 97498.82999999989,
      "d": 681.8099999999977,
      "v": 75
    },
    {
      "midi": 62,
      "hit": false,
      "t": 97498.82999999989,
      "d": 681.8099999999977,
      "v": 75
    },
    {
      "midi": 67,
      "hit": false,
      "t": 97498.82999999999,
      "d": 358.66046875000757,
      "v": 89
    },
    {
      "midi": 64,
      "hit": false,
      "t": 97790.01968750005,
      "d": 262.780937500007,
      "v": 87
    },
    {
      "midi": 71,
      "hit": false,
      "t": 97839.735,
      "d": 365.7626562499936,
      "v": 60
    },
    {
      "midi": 31,
      "hit": false,
      "t": 97839.73500000044,
      "d": 255.6787500000064,
      "v": 79
    },
    {
      "midi": 64,
      "hit": false,
      "t": 98162.88453125006,
      "d": 1246.433906249993,
      "v": 98
    },
    {
      "midi": 52,
      "hit": false,
      "t": 98180.63999999988,
      "d": 1193.167499999996,
      "v": 70
    },
    {
      "midi": 55,
      "hit": false,
      "t": 98180.63999999988,
      "d": 1193.167499999996,
      "v": 70
    },
    {
      "midi": 59,
      "hit": false,
      "t": 98180.63999999988,
      "d": 1193.167499999996,
      "v": 70
    },
    {
      "midi": 64,
      "hit": false,
      "t": 98180.63999999988,
      "d": 1193.167499999996,
      "v": 70
    },
    {
      "midi": 64,
      "hit": false,
      "t": 98180.64,
      "d": 461.6421874999942,
      "v": 82
    },
    {
      "midi": 40,
      "hit": false,
      "t": 98180.64000000045,
      "d": 767.0362500000047,
      "v": 85
    },
    {
      "midi": 67,
      "hit": false,
      "t": 98521.545,
      "d": 415.4779687499977,
      "v": 80
    },
    {
      "midi": 71,
      "hit": false,
      "t": 98862.45,
      "d": 340.90499999999884,
      "v": 85
    },
    {
      "midi": 76,
      "hit": false,
      "t": 99203.355,
      "d": 727.9742187499942,
      "v": 85
    },
    {
      "midi": 40,
      "hit": false,
      "t": 99203.35500000046,
      "d": 255.6787500000064,
      "v": 85
    },
    {
      "midi": 64,
      "hit": false,
      "t": 99533.60671875006,
      "d": 1285.4959375000035,
      "v": 87
    },
    {
      "midi": 71,
      "hit": false,
      "t": 99544.26,
      "d": 632.0946874999936,
      "v": 82
    },
    {
      "midi": 40,
      "hit": false,
      "t": 99544.26000000047,
      "d": 767.0362500000047,
      "v": 100
    },
    {
      "midi": 67,
      "hit": false,
      "t": 99885.165,
      "d": 355.109375,
      "v": 82
    },
    {
      "midi": 64,
      "hit": false,
      "t": 100226.06999999999,
      "d": 429.68234374999884,
      "v": 82
    },
    {
      "midi": 67,
      "hit": false,
      "t": 100566.97499999999,
      "d": 294.7407812500023,
      "v": 87
    },
    {
      "midi": 40,
      "hit": false,
      "t": 100566.97500000049,
      "d": 255.6787500000064,
      "v": 78
    },
    {
      "midi": 57,
      "hit": false,
      "t": 100907.87999999987,
      "d": 1193.167499999996,
      "v": 70
    },
    {
      "midi": 60,
      "hit": false,
      "t": 100907.87999999987,
      "d": 1193.167499999996,
      "v": 70
    },
    {
      "midi": 64,
      "hit": false,
      "t": 100907.87999999987,
      "d": 1193.167499999996,
      "v": 70
    },
    {
      "midi": 69,
      "hit": false,
      "t": 100907.87999999987,
      "d": 1193.167499999996,
      "v": 70
    },
    {
      "midi": 57,
      "hit": false,
      "t": 100907.87999999999,
      "d": 422.58015624999825,
      "v": 87
    },
    {
      "midi": 33,
      "hit": false,
      "t": 100907.8800000005,
      "d": 767.0362500000047,
      "v": 101
    },
    {
      "midi": 60,
      "hit": false,
      "t": 101248.78499999999,
      "d": 546.8684375000012,
      "v": 70
    },
    {
      "midi": 60,
      "hit": false,
      "t": 101287.84703125006,
      "d": 223.7189062499965,
      "v": 74
    },
    {
      "midi": 64,
      "hit": false,
      "t": 101589.68999999999,
      "d": 397.7225000000035,
      "v": 85
    },
    {
      "midi": 60,
      "hit": false,
      "t": 101593.24109375005,
      "d": 177.5546875,
      "v": 59
    },
    {
      "midi": 60,
      "hit": false,
      "t": 101891.53296875005,
      "d": 248.57656250000582,
      "v": 66
    },
    {
      "midi": 69,
      "hit": false,
      "t": 101930.59499999999,
      "d": 394.1714062499959,
      "v": 80
    },
    {
      "midi": 33,
      "hit": false,
      "t": 101930.59500000051,
      "d": 255.6787500000064,
      "v": 92
    },
    {
      "midi": 60,
      "hit": false,
      "t": 102264.39781250006,
      "d": 252.12765624999884,
      "v": 78
    },
    {
      "midi": 72,
      "hit": false,
      "t": 102271.49999999999,
      "d": 834.5070312500029,
      "v": 85
    },
    {
      "midi": 33,
      "hit": false,
      "t": 102271.50000000052,
      "d": 767.0362500000047,
      "v": 90
    },
    {
      "midi": 57,
      "hit": false,
      "t": 102612.40499999987,
      "d": 340.90499999999884,
      "v": 60
    },
    {
      "midi": 69,
      "hit": false,
      "t": 102612.40499999998,
      "d": 688.9121874999983,
      "v": 72
    },
    {
      "midi": 60,
      "hit": false,
      "t": 102633.71156250006,
      "d": 390.6203125000029,
      "v": 89
    },
    {
      "midi": 60,
      "hit": false,
      "t": 102953.30999999987,
      "d": 340.90499999999884,
      "v": 65
    },
    {
      "midi": 64,
      "hit": false,
      "t": 102953.30999999998,
      "d": 401.2735937499965,
      "v": 85
    },
    {
      "midi": 60,
      "hit": false,
      "t": 103130.86468750006,
      "d": 198.86125000000175,
      "v": 70
    },
    {
      "midi": 64,
      "hit": false,
      "t": 103294.21499999987,
      "d": 340.90499999999884,
      "v": 70
    },
    {
      "midi": 60,
      "hit": false,
      "t": 103294.21499999998,
      "d": 255.67874999999185,
      "v": 80
    },
    {
      "midi": 33,
      "hit": false,
      "t": 103294.21500000053,
      "d": 255.6787500000064,
      "v": 77
    },
    {
      "midi": 62,
      "hit": false,
      "t": 103340.37921875005,
      "d": 124.28828125000291,
      "v": 89
    },
    {
      "midi": 62,
      "hit": false,
      "t": 103567.64921875006,
      "d": 383.5181250000023,
      "v": 85
    },
    {
      "midi": 54,
      "hit": false,
      "t": 103635.11999999986,
      "d": 1193.167499999996,
      "v": 70
    },
    {
      "midi": 57,
      "hit": false,
      "t": 103635.11999999986,
      "d": 1193.167499999996,
      "v": 70
    },
    {
      "midi": 62,
      "hit": false,
      "t": 103635.11999999986,
      "d": 1193.167499999996,
      "v": 70
    },
    {
      "midi": 62,
      "hit": false,
      "t": 103635.11999999998,
      "d": 419.02906250000524,
      "v": 95
    },
    {
      "midi": 38,
      "hit": false,
      "t": 103635.12000000055,
      "d": 767.0362500000047,
      "v": 89
    },
    {
      "midi": 66,
      "hit": false,
      "t": 103976.02499999998,
      "d": 379.9670312500093,
      "v": 82
    },
    {
      "midi": 62,
      "hit": false,
      "t": 104022.18921875006,
      "d": 262.780937500007,
      "v": 87
    },
    {
      "midi": 69,
      "hit": false,
      "t": 104316.93,
      "d": 319.5984374999971,
      "v": 74
    },
    {
      "midi": 62,
      "hit": false,
      "t": 104355.99203125008,
      "d": 170.45249999999942,
      "v": 70
    },
    {
      "midi": 62,
      "hit": false,
      "t": 104625.87515625007,
      "d": 163.35031249999884,
      "v": 68
    },
    {
      "midi": 74,
      "hit": false,
      "t": 104657.83499999999,
      "d": 497.1531249999971,
      "v": 85
    },
    {
      "midi": 38,
      "hit": false,
      "t": 104657.83500000056,
      "d": 255.6787500000064,
      "v": 82
    },
    {
      "midi": 62,
      "hit": false,
      "t": 104980.98453125007,
      "d": 205.96343750000233,
      "v": 66
    },
    {
      "midi": 69,
      "hit": false,
      "t": 104998.73999999999,
      "d": 461.6421874999942,
      "v": 82
    },
    {
      "midi": 38,
      "hit": false,
      "t": 104998.74000000057,
      "d": 767.0362500000047,
      "v": 93
    },
    {
      "midi": 54,
      "hit": false,
      "t": 105339.64499999986,
      "d": 340.90499999999884,
      "v": 60
    },
    {
      "midi": 66,
      "hit": false,
      "t": 105339.64499999999,
      "d": 401.2735937499965,
      "v": 82
    },
    {
      "midi": 62,
      "hit": false,
      "t": 105339.64500000008,
      "d": 195.31015624999418,
      "v": 82
    },
    {
      "midi": 62,
      "hit": false,
      "t": 105659.24343750007,
      "d": 209.51453124999534,
      "v": 87
    },
    {
      "midi": 57,
      "hit": false,
      "t": 105680.54999999986,
      "d": 340.90499999999884,
      "v": 65
    },
    {
      "midi": 62,
      "hit": false,
      "t": 105680.54999999999,
      "d": 419.02906250000524,
      "v": 78
    },
    {
      "midi": 62,
      "hit": false,
      "t": 105964.63750000007,
      "d": 404.8246875000041,
      "v": 72
    },
    {
      "midi": 62,
      "hit": false,
      "t": 106021.45499999986,
      "d": 340.90499999999884,
      "v": 70
    },
    {
      "midi": 66,
      "hit": false,
      "t": 106021.45499999999,
      "d": 397.72250000001804,
      "v": 85
    },
    {
      "midi": 38,
      "hit": false,
      "t": 106021.45500000058,
      "d": 255.6787500000064,
      "v": 94
    },
    {
      "midi": 66,
      "hit": false,
      "t": 106333.95125000007,
      "d": 376.41593750000175,
      "v": 100
    },
    {
      "midi": 50,
      "hit": false,
      "t": 106362.35999999986,
      "d": 1193.167499999996,
      "v": 70
    },
    {
      "midi": 54,
      "hit": false,
      "t": 106362.35999999986,
      "d": 1193.167499999996,
      "v": 70
    },
    {
      "midi": 57,
      "hit": false,
      "t": 106362.35999999986,
      "d": 1193.167499999996,
      "v": 70
    },
    {
      "midi": 62,
      "hit": false,
      "t": 106362.35999999986,
      "d": 1193.167499999996,
      "v": 70
    },
    {
      "midi": 62,
      "hit": false,
      "t": 106362.36,
      "d": 479.3976562500029,
      "v": 91
    },
    {
      "midi": 38,
      "hit": false,
      "t": 106362.3600000006,
      "d": 767.0362500000047,
      "v": 77
    },
    {
      "midi": 66,
      "hit": false,
      "t": 106703.265,
      "d": 720.8720312499936,
      "v": 89
    },
    {
      "midi": 62,
      "hit": false,
      "t": 106713.91828125007,
      "d": 504.2553124999977,
      "v": 93
    },
    {
      "midi": 69,
      "hit": false,
      "t": 107044.17,
      "d": 340.90499999999884,
      "v": 87
    },
    {
      "midi": 62,
      "hit": false,
      "t": 107321.15531250006,
      "d": 102.98171875000116,
      "v": 82
    },
    {
      "midi": 74,
      "hit": false,
      "t": 107385.075,
      "d": 561.0728125000023,
      "v": 85
    },
    {
      "midi": 38,
      "hit": false,
      "t": 107385.07500000061,
      "d": 255.6787500000064,
      "v": 93
    },
    {
      "midi": 62,
      "hit": false,
      "t": 107505.81218750007,
      "d": 131.3904687500035,
      "v": 87
    },
    {
      "midi": 62,
      "hit": false,
      "t": 107694.02015625007,
      "d": 337.3539062500058,
      "v": 89
    },
    {
      "midi": 69,
      "hit": false,
      "t": 107725.98,
      "d": 472.2954687500023,
      "v": 82
    },
    {
      "midi": 38,
      "hit": false,
      "t": 107725.98000000062,
      "d": 767.0362500000047,
      "v": 85
    },
    {
      "midi": 57,
      "hit": false,
      "t": 108063.33390625007,
      "d": 191.75906250000116,
      "v": 93
    },
    {
      "midi": 54,
      "hit": false,
      "t": 108066.88499999985,
      "d": 340.90499999999884,
      "v": 60
    },
    {
      "midi": 66,
      "hit": false,
      "t": 108066.885,
      "d": 379.96703124999476,
      "v": 85
    },
    {
      "midi": 57,
      "hit": false,
      "t": 108365.17687500008,
      "d": 379.9670312500093,
      "v": 87
    },
    {
      "midi": 57,
      "hit": false,
      "t": 108407.78999999985,
      "d": 340.90499999999884,
      "v": 65
    },
    {
      "midi": 62,
      "hit": false,
      "t": 108407.79,
      "d": 415.4779687499977,
      "v": 76
    },
    {
      "midi": 59,
      "hit": false,
      "t": 108709.63296875008,
      "d": 252.12765624999884,
      "v": 100
    },
    {
      "midi": 62,
      "hit": false,
      "t": 108748.69499999985,
      "d": 340.90499999999884,
      "v": 70
    },
    {
      "midi": 66,
      "hit": false,
      "t": 108748.69499999999,
      "d": 305.3940624999959,
      "v": 95
    },
    {
      "midi": 38,
      "hit": false,
      "t": 108748.69500000063,
      "d": 255.6787500000064,
      "v": 75
    },
    {
      "midi": 59,
      "hit": false,
      "t": 109082.49781250008,
      "d": 2823.119531250006,
      "v": 87
    },
    {
      "midi": 55,
      "hit": false,
      "t": 109089.59999999985,
      "d": 1193.167499999996,
      "v": 70
    },
    {
      "midi": 59,
      "hit": false,
      "t": 109089.59999999985,
      "d": 1193.167499999996,
      "v": 70
    },
    {
      "midi": 62,
      "hit": false,
      "t": 109089.59999999985,
      "d": 1193.167499999996,
      "v": 70
    },
    {
      "midi": 55,
      "hit": false,
      "t": 109089.59999999999,
      "d": 443.88671875,
      "v": 93
    },
    {
      "midi": 31,
      "hit": false,
      "t": 109089.60000000065,
      "d": 767.0362500000047,
      "v": 97
    },
    {
      "midi": 59,
      "hit": false,
      "t": 109430.50499999999,
      "d": 440.33562499999243,
      "v": 78
    },
    {
      "midi": 62,
      "hit": false,
      "t": 109771.40999999999,
      "d": 422.58015624999825,
      "v": 95
    },
    {
      "midi": 67,
      "hit": false,
      "t": 110112.31499999999,
      "d": 326.7006249999977,
      "v": 59
    },
    {
      "midi": 31,
      "hit": false,
      "t": 110112.31500000066,
      "d": 255.6787500000064,
      "v": 84
    },
    {
      "midi": 71,
      "hit": false,
      "t": 110453.21999999999,
      "d": 1051.1237499999988,
      "v": 70
    },
    {
      "midi": 31,
      "hit": false,
      "t": 110453.22000000067,
      "d": 767.0362500000047,
      "v": 100
    },
    {
      "midi": 55,
      "hit": false,
      "t": 110794.12499999984,
      "d": 340.90499999999884,
      "v": 70
    },
    {
      "midi": 67,
      "hit": false,
      "t": 110794.12499999999,
      "d": 877.1201562499919,
      "v": 80
    },
    {
      "midi": 55,
      "hit": false,
      "t": 111135.02999999984,
      "d": 681.8099999999977,
      "v": 75
    },
    {
      "midi": 59,
      "hit": false,
      "t": 111135.02999999984,
      "d": 681.8099999999977,
      "v": 75
    },
    {
      "midi": 62,
      "hit": false,
      "t": 111135.02999999984,
      "d": 681.8099999999977,
      "v": 75
    },
    {
      "midi": 67,
      "hit": false,
      "t": 111135.02999999984,
      "d": 681.8099999999977,
      "v": 75
    },
    {
      "midi": 62,
      "hit": false,
      "t": 111135.02999999998,
      "d": 422.58015624999825,
      "v": 95
    },
    {
      "midi": 59,
      "hit": false,
      "t": 111475.93499999998,
      "d": 362.2115625000006,
      "v": 80
    },
    {
      "midi": 31,
      "hit": false,
      "t": 111475.93500000068,
      "d": 255.6787500000064,
      "v": 91
    },
    {
      "midi": 55,
      "hit": false,
      "t": 111816.83999999984,
      "d": 1193.167499999996,
      "v": 70
    },
    {
      "midi": 59,
      "hit": false,
      "t": 111816.83999999984,
      "d": 1193.167499999996,
      "v": 70
    },
    {
      "midi": 62,
      "hit": false,
      "t": 111816.83999999984,
      "d": 1193.167499999996,
      "v": 70
    },
    {
      "midi": 67,
      "hit": false,
      "t": 111816.83999999984,
      "d": 1193.167499999996,
      "v": 70
    },
    {
      "midi": 55,
      "hit": false,
      "t": 111816.83999999998,
      "d": 603.6859375000058,
      "v": 85
    },
    {
      "midi": 31,
      "hit": false,
      "t": 111816.8400000007,
      "d": 767.0362500000047,
      "v": 81
    },
    {
      "midi": 55,
      "hit": false,
      "t": 111838.14656250001,
      "d": 2006.367968749997,
      "v": 91
    },
    {
      "midi": 59,
      "hit": false,
      "t": 112157.74499999998,
      "d": 1072.4303125000151,
      "v": 82
    },
    {
      "midi": 67,
      "hit": false,
      "t": 112189.70484375008,
      "d": 465.19328125000175,
      "v": 100
    },
    {
      "midi": 62,
      "hit": false,
      "t": 112498.65,
      "d": 479.3976562500029,
      "v": 91
    },
    {
      "midi": 67,
      "hit": false,
      "t": 112743.67546875008,
      "d": 102.98171875000116,
      "v": 76
    },
    {
      "midi": 67,
      "hit": false,
      "t": 112839.555,
      "d": 394.1714062499959,
      "v": 78
    },
    {
      "midi": 31,
      "hit": false,
      "t": 112839.5550000007,
      "d": 255.6787500000064,
      "v": 94
    },
    {
      "midi": 67,
      "hit": false,
      "t": 112946.08781250007,
      "d": 102.98171875000116,
      "v": 76
    },
    {
      "midi": 67,
      "hit": false,
      "t": 113166.25562500008,
      "d": 170.45249999999942,
      "v": 87
    },
    {
      "midi": 71,
      "hit": false,
      "t": 113180.45999999999,
      "d": 756.3829687499965,
      "v": 82
    },
    {
      "midi": 31,
      "hit": false,
      "t": 113180.46000000072,
      "d": 767.0362500000047,
      "v": 92
    },
    {
      "midi": 67,
      "hit": false,
      "t": 113475.20078125008,
      "d": 223.7189062499965,
      "v": 89
    },
    {
      "midi": 67,
      "hit": false,
      "t": 113521.36499999999,
      "d": 426.13124999999127,
      "v": 80
    },
    {
      "midi": 67,
      "hit": false,
      "t": 113769.94156250008,
      "d": 383.5181249999878,
      "v": 68
    },
    {
      "midi": 54,
      "hit": false,
      "t": 113833.86125000002,
      "d": 742.1785937499953,
      "v": 72
    },
    {
      "midi": 62,
      "hit": false,
      "t": 113862.26999999999,
      "d": 387.06921874999534,
      "v": 87
    },
    {
      "midi": 69,
      "hit": false,
      "t": 114128.60203125008,
      "d": 387.06921874999534,
      "v": 89
    },
    {
      "midi": 67,
      "hit": false,
      "t": 114203.17499999999,
      "d": 369.31375000000116,
      "v": 85
    },
    {
      "midi": 31,
      "hit": false,
      "t": 114203.17500000073,
      "d": 255.6787500000064,
      "v": 86
    },
    {
      "midi": 71,
      "hit": false,
      "t": 114473.05812500007,
      "d": 369.31375000000116,
      "v": 93
    },
    {
      "midi": 52,
      "hit": false,
      "t": 114544.07999999983,
      "d": 1193.167499999996,
      "v": 70
    },
    {
      "midi": 55,
      "hit": false,
      "t": 114544.07999999983,
      "d": 1193.167499999996,
      "v": 70
    },
    {
      "midi": 59,
      "hit": false,
      "t": 114544.07999999983,
      "d": 1193.167499999996,
      "v": 70
    },
    {
      "midi": 64,
      "hit": false,
      "t": 114544.07999999983,
      "d": 1193.167499999996,
      "v": 70
    },
    {
      "midi": 67,
      "hit": false,
      "t": 114544.07999999983,
      "d": 1193.167499999996,
      "v": 70
    },
    {
      "midi": 59,
      "hit": false,
      "t": 114544.07999999999,
      "d": 529.1129687499924,
      "v": 89
    },
    {
      "midi": 40,
      "hit": false,
      "t": 114544.08000000074,
      "d": 767.0362500000047,
      "v": 91
    },
    {
      "midi": 55,
      "hit": false,
      "t": 114561.83546875001,
      "d": 4026.9403124999953,
      "v": 89
    },
    {
      "midi": 64,
      "hit": false,
      "t": 114884.98499999999,
      "d": 1178.9631249999948,
      "v": 66
    },
    {
      "midi": 71,
      "hit": false,
      "t": 114931.14921875007,
      "d": 365.7626562499936,
      "v": 89
    },
    {
      "midi": 67,
      "hit": false,
      "t": 115225.88999999998,
      "d": 397.7225000000035,
      "v": 76
    },
    {
      "midi": 71,
      "hit": false,
      "t": 115435.40453125007,
      "d": 99.4306249999936,
      "v": 82
    },
    {
      "midi": 71,
      "hit": false,
      "t": 115566.79499999998,
      "d": 344.45609374999185,
      "v": 87
    },
    {
      "midi": 40,
      "hit": false,
      "t": 115566.79500000075,
      "d": 255.6787500000064,
      "v": 88
    },
    {
      "midi": 71,
      "hit": false,
      "t": 115648.47015625006,
      "d": 74.57296874999884,
      "v": 87
    },
    {
      "midi": 71,
      "hit": false,
      "t": 115822.47375000005,
      "d": 149.14593749999767,
      "v": 91
    },
    {
      "midi": 76,
      "hit": false,
      "t": 115907.69999999998,
      "d": 717.3209375000006,
      "v": 89
    },
    {
      "midi": 40,
      "hit": false,
      "t": 115907.70000000077,
      "d": 767.0362500000047,
      "v": 96
    },
    {
      "midi": 71,
      "hit": false,
      "t": 116166.92984375004,
      "d": 312.4962499999965,
      "v": 87
    },
    {
      "midi": 55,
      "hit": false,
      "t": 116248.60499999982,
      "d": 340.90499999999884,
      "v": 60
    },
    {
      "midi": 71,
      "hit": false,
      "t": 116248.60499999998,
      "d": 561.0728125000023,
      "v": 82
    },
    {
      "midi": 69,
      "hit": false,
      "t": 116493.63046875004,
      "d": 234.37218750000466,
      "v": 70
    },
    {
      "midi": 59,
      "hit": false,
      "t": 116589.50999999982,
      "d": 340.90499999999884,
      "v": 65
    },
    {
      "midi": 67,
      "hit": false,
      "t": 116589.50999999998,
      "d": 383.5181250000023,
      "v": 91
    },
    {
      "midi": 69,
      "hit": false,
      "t": 116877.14859375004,
      "d": 454.54000000000815,
      "v": 85
    },
    {
      "midi": 64,
      "hit": false,
      "t": 116930.41499999982,
      "d": 340.90499999999884,
      "v": 70
    },
    {
      "midi": 64,
      "hit": false,
      "t": 116930.41499999998,
      "d": 337.3539062500058,
      "v": 85
    },
    {
      "midi": 40,
      "hit": false,
      "t": 116930.41500000078,
      "d": 255.6787500000064,
      "v": 84
    },
    {
      "midi": 55,
      "hit": false,
      "t": 117271.31999999982,
      "d": 1193.167499999996,
      "v": 70
    },
    {
      "midi": 59,
      "hit": false,
      "t": 117271.31999999982,
      "d": 1193.167499999996,
      "v": 70
    },
    {
      "midi": 64,
      "hit": false,
      "t": 117271.31999999982,
      "d": 1193.167499999996,
      "v": 70
    },
    {
      "midi": 59,
      "hit": false,
      "t": 117271.31999999998,
      "d": 443.88671875,
      "v": 82
    },
    {
      "midi": 40,
      "hit": false,
      "t": 117271.3200000008,
      "d": 767.0362500000047,
      "v": 91
    },
    {
      "midi": 67,
      "hit": false,
      "t": 117281.97328125004,
      "d": 372.86484375000873,
      "v": 95
    },
    {
      "midi": 64,
      "hit": false,
      "t": 117612.22499999998,
      "d": 710.21875,
      "v": 89
    },
    {
      "midi": 67,
      "hit": false,
      "t": 117740.06437500006,
      "d": 323.14953125000466,
      "v": 82
    },
    {
      "midi": 67,
      "hit": false,
      "t": 117953.12999999998,
      "d": 749.2807812499959,
      "v": 91
    },
    {
      "midi": 67,
      "hit": false,
      "t": 118205.25765625006,
      "d": 120.73718749999534,
      "v": 93
    },
    {
      "midi": 71,
      "hit": false,
      "t": 118294.03499999997,
      "d": 376.41593750000175,
      "v": 82
    },
    {
      "midi": 40,
      "hit": false,
      "t": 118294.0350000008,
      "d": 255.6787500000064,
      "v": 79
    },
    {
      "midi": 67,
      "hit": false,
      "t": 118421.87437500006,
      "d": 106.53281249999418,
      "v": 80
    },
    {
      "midi": 67,
      "hit": false,
      "t": 118606.53125000006,
      "d": 216.61671874999593,
      "v": 80
    },
    {
      "midi": 76,
      "hit": false,
      "t": 118634.93999999997,
      "d": 834.5070312500029,
      "v": 91
    },
    {
      "midi": 40,
      "hit": false,
      "t": 118634.94000000082,
      "d": 767.0362500000047,
      "v": 101
    },
    {
      "midi": 59,
      "hit": false,
      "t": 118656.2465625,
      "d": 543.3173437499936,
      "v": 95
    },
    {
      "midi": 67,
      "hit": false,
      "t": 118958.08953125005,
      "d": 358.66046875000757,
      "v": 85
    },
    {
      "midi": 52,
      "hit": false,
      "t": 118975.84499999981,
      "d": 340.90499999999884,
      "v": 70
    },
    {
      "midi": 71,
      "hit": false,
      "t": 118975.84499999997,
      "d": 752.8318749999889,
      "v": 74
    },
    {
      "midi": 64,
      "hit": false,
      "t": 119153.3996875,
      "d": 543.3173437500081,
      "v": 91
    },
    {
      "midi": 66,
      "hit": false,
      "t": 119288.34125000006,
      "d": 372.86484375000873,
      "v": 78
    },
    {
      "midi": 55,
      "hit": false,
      "t": 119316.74999999981,
      "d": 681.8099999999977,
      "v": 75
    },
    {
      "midi": 59,
      "hit": false,
      "t": 119316.74999999981,
      "d": 681.8099999999977,
      "v": 75
    },
    {
      "midi": 64,
      "hit": false,
      "t": 119316.74999999981,
      "d": 681.8099999999977,
      "v": 75
    },
    {
      "midi": 67,
      "hit": false,
      "t": 119316.74999999997,
      "d": 365.7626562499936,
      "v": 98
    },
    {
      "midi": 67,
      "hit": false,
      "t": 119618.59296875006,
      "d": 372.86484375000873,
      "v": 87
    },
    {
      "midi": 59,
      "hit": false,
      "t": 119639.89953125,
      "d": 436.7845312499994,
      "v": 98
    },
    {
      "midi": 64,
      "hit": false,
      "t": 119657.65499999997,
      "d": 365.76265624997905,
      "v": 68
    },
    {
      "midi": 40,
      "hit": false,
      "t": 119657.65500000083,
      "d": 255.6787500000064,
      "v": 76
    },
    {
      "midi": 66,
      "hit": false,
      "t": 119984.35562500007,
      "d": 1203.820781250004,
      "v": 105
    },
    {
      "midi": 54,
      "hit": false,
      "t": 119998.55999999981,
      "d": 1193.167499999996,
      "v": 70
    },
    {
      "midi": 59,
      "hit": false,
      "t": 119998.55999999981,
      "d": 1193.167499999996,
      "v": 70
    },
    {
      "midi": 62,
      "hit": false,
      "t": 119998.55999999981,
      "d": 1193.167499999996,
      "v": 70
    },
    {
      "midi": 59,
      "hit": false,
      "t": 119998.55999999995,
      "d": 429.68234374999884,
      "v": 100
    },
    {
      "midi": 35,
      "hit": false,
      "t": 119998.56000000084,
      "d": 767.0362500000047,
      "v": 101
    },
    {
      "midi": 62,
      "hit": false,
      "t": 120058.92859375001,
      "d": 2013.4701562499831,
      "v": 89
    },
    {
      "midi": 62,
      "hit": false,
      "t": 120339.46499999995,
      "d": 436.7845312499994,
      "v": 82
    },
    {
      "midi": 66,
      "hit": false,
      "t": 120680.36999999995,
      "d": 450.9889062500006,
      "v": 91
    },
    {
      "midi": 71,
      "hit": false,
      "t": 121021.27499999995,
      "d": 351.55828124999243,
      "v": 80
    },
    {
      "midi": 35,
      "hit": false,
      "t": 121021.27500000085,
      "d": 255.6787500000064,
      "v": 84
    },
    {
      "midi": 74,
      "hit": false,
      "t": 121362.17999999995,
      "d": 486.4998437500035,
      "v": 63
    },
    {
      "midi": 35,
      "hit": false,
      "t": 121362.18000000087,
      "d": 767.0362500000047,
      "v": 88
    },
    {
      "midi": 66,
      "hit": false,
      "t": 121369.28218750007,
      "d": 1672.5651562499988,
      "v": 102
    },
    {
      "midi": 71,
      "hit": false,
      "t": 121703.08499999995,
      "d": 497.1531249999971,
      "v": 62
    },
    {
      "midi": 66,
      "hit": false,
      "t": 122043.98999999995,
      "d": 436.7845312499994,
      "v": 85
    },
    {
      "midi": 59,
      "hit": false,
      "t": 122054.64328125,
      "d": 326.7006249999977,
      "v": 91
    },
    {
      "midi": 54,
      "hit": false,
      "t": 122352.93515625,
      "d": 394.1714062500105,
      "v": 62
    },
    {
      "midi": 62,
      "hit": false,
      "t": 122384.89499999995,
      "d": 372.8648437499942,
      "v": 68
    },
    {
      "midi": 35,
      "hit": false,
      "t": 122384.89500000088,
      "d": 255.6787500000064,
      "v": 77
    },
    {
      "midi": 52,
      "hit": false,
      "t": 122711.595625,
      "d": 2791.1596875000105,
      "v": 89
    },
    {
      "midi": 55,
      "hit": false,
      "t": 122725.7999999998,
      "d": 1193.167499999996,
      "v": 70
    },
    {
      "midi": 60,
      "hit": false,
      "t": 122725.7999999998,
      "d": 1193.167499999996,
      "v": 70
    },
    {
      "midi": 64,
      "hit": false,
      "t": 122725.7999999998,
      "d": 1193.167499999996,
      "v": 70
    },
    {
      "midi": 67,
      "hit": false,
      "t": 122725.7999999998,
      "d": 1193.167499999996,
      "v": 70
    },
    {
      "midi": 57,
      "hit": false,
      "t": 122725.79999999994,
      "d": 450.9889062500006,
      "v": 89
    },
    {
      "midi": 36,
      "hit": false,
      "t": 122725.80000000089,
      "d": 767.0362500000047,
      "v": 97
    },
    {
      "midi": 60,
      "hit": false,
      "t": 123066.70499999994,
      "d": 514.9085937500058,
      "v": 74
    },
    {
      "midi": 64,
      "hit": false,
      "t": 123066.70500000006,
      "d": 458.09109375000116,
      "v": 87
    },
    {
      "midi": 64,
      "hit": false,
      "t": 123407.60999999994,
      "d": 397.72250000001804,
      "v": 93
    },
    {
      "midi": 64,
      "hit": false,
      "t": 123613.57343750006,
      "d": 134.9415624999965,
      "v": 82
    },
    {
      "midi": 67,
      "hit": false,
      "t": 123748.51499999996,
      "d": 379.96703124999476,
      "v": 89
    },
    {
      "midi": 36,
      "hit": false,
      "t": 123748.5150000009,
      "d": 255.6787500000064,
      "v": 85
    },
    {
      "midi": 64,
      "hit": false,
      "t": 123819.53687500006,
      "d": 134.9415624999965,
      "v": 76
    },
    {
      "midi": 64,
      "hit": false,
      "t": 124057.46015625006,
      "d": 248.57656250000582,
      "v": 89
    },
    {
      "midi": 72,
      "hit": false,
      "t": 124089.41999999995,
      "d": 767.0362500000047,
      "v": 82
    },
    {
      "midi": 36,
      "hit": false,
      "t": 124089.42000000092,
      "d": 767.0362500000047,
      "v": 91
    },
    {
      "midi": 64,
      "hit": false,
      "t": 124380.60968750007,
      "d": 170.45249999999942,
      "v": 89
    },
    {
      "midi": 55,
      "hit": false,
      "t": 124430.3249999998,
      "d": 340.90499999999884,
      "v": 60
    },
    {
      "midi": 67,
      "hit": false,
      "t": 124430.32499999995,
      "d": 450.9889062500006,
      "v": 87
    },
    {
      "midi": 64,
      "hit": false,
      "t": 124728.61687500007,
      "d": 191.75906250000116,
      "v": 82
    },
    {
      "midi": 60,
      "hit": false,
      "t": 124771.22999999979,
      "d": 340.90499999999884,
      "v": 65
    },
    {
      "midi": 64,
      "hit": false,
      "t": 124771.22999999995,
      "d": 717.3209375000006,
      "v": 93
    },
    {
      "midi": 64,
      "hit": false,
      "t": 125108.58390625006,
      "d": 397.7225000000035,
      "v": 63
    },
    {
      "midi": 64,
      "hit": false,
      "t": 125112.13499999979,
      "d": 340.90499999999884,
      "v": 70
    },
    {
      "midi": 36,
      "hit": false,
      "t": 125112.13500000093,
      "d": 255.6787500000064,
      "v": 89
    },
    {
      "midi": 57,
      "hit": false,
      "t": 125453.03999999979,
      "d": 1193.167499999996,
      "v": 70
    },
    {
      "midi": 62,
      "hit": false,
      "t": 125453.03999999979,
      "d": 1193.167499999996,
      "v": 70
    },
    {
      "midi": 66,
      "hit": false,
      "t": 125453.03999999979,
      "d": 1193.167499999996,
      "v": 70
    },
    {
      "midi": 62,
      "hit": false,
      "t": 125453.03999999995,
      "d": 419.02906250000524,
      "v": 91
    },
    {
      "midi": 38,
      "hit": false,
      "t": 125453.04000000094,
      "d": 767.0362500000047,
      "v": 97
    },
    {
      "midi": 66,
      "hit": false,
      "t": 125463.69328125006,
      "d": 305.3940625000105,
      "v": 85
    },
    {
      "midi": 54,
      "hit": false,
      "t": 125474.34656250001,
      "d": 688.9121874999983,
      "v": 59
    },
    {
      "midi": 66,
      "hit": false,
      "t": 125793.94499999995,
      "d": 397.72250000001804,
      "v": 85
    },
    {
      "midi": 66,
      "hit": false,
      "t": 125889.82453125007,
      "d": 344.4560937500064,
      "v": 80
    },
    {
      "midi": 62,
      "hit": false,
      "t": 126095.78796875001,
      "d": 2144.860625000001,
      "v": 98
    },
    {
      "midi": 69,
      "hit": false,
      "t": 126134.84999999996,
      "d": 323.14953125000466,
      "v": 87
    },
    {
      "midi": 66,
      "hit": false,
      "t": 126358.56890625008,
      "d": 110.08390625000175,
      "v": 74
    },
    {
      "midi": 74,
      "hit": false,
      "t": 126475.75499999996,
      "d": 465.19328125000175,
      "v": 98
    },
    {
      "midi": 38,
      "hit": false,
      "t": 126475.75500000095,
      "d": 255.6787500000064,
      "v": 91
    },
    {
      "midi": 66,
      "hit": false,
      "t": 126568.08343750007,
      "d": 99.4306249999936,
      "v": 72
    },
    {
      "midi": 66,
      "hit": false,
      "t": 126763.39359375006,
      "d": 266.33203125,
      "v": 80
    },
    {
      "midi": 69,
      "hit": false,
      "t": 126816.65999999996,
      "d": 479.3976562500029,
      "v": 87
    },
    {
      "midi": 38,
      "hit": false,
      "t": 126816.66000000096,
      "d": 767.0362500000047,
      "v": 90
    },
    {
      "midi": 66,
      "hit": false,
      "t": 127139.80953125007,
      "d": 166.9014062500064,
      "v": 82
    },
    {
      "midi": 57,
      "hit": false,
      "t": 127157.56499999978,
      "d": 340.90499999999884,
      "v": 60
    },
    {
      "midi": 66,
      "hit": false,
      "t": 127157.56499999996,
      "d": 401.2735937499965,
      "v": 85
    },
    {
      "midi": 66,
      "hit": false,
      "t": 127455.85687500007,
      "d": 166.9014062500064,
      "v": 82
    },
    {
      "midi": 62,
      "hit": false,
      "t": 127498.46999999978,
      "d": 340.90499999999884,
      "v": 65
    },
    {
      "midi": 62,
      "hit": false,
      "t": 127498.46999999996,
      "d": 429.68234374999884,
      "v": 82
    },
    {
      "midi": 66,
      "hit": false,
      "t": 127796.76187500008,
      "d": 337.35390624999127,
      "v": 85
    },
    {
      "midi": 66,
      "hit": false,
      "t": 127839.37499999978,
      "d": 340.90499999999884,
      "v": 70
    },
    {
      "midi": 66,
      "hit": false,
      "t": 127839.37499999996,
      "d": 333.80281249999825,
      "v": 93
    },
    {
      "midi": 38,
      "hit": false,
      "t": 127839.37500000097,
      "d": 255.6787500000064,
      "v": 87
    },
    {
      "midi": 69,
      "hit": false,
      "t": 128130.56468750008,
      "d": 408.3757812499971,
      "v": 91
    },
    {
      "midi": 57,
      "hit": false,
      "t": 128180.27999999978,
      "d": 1193.167499999996,
      "v": 70
    },
    {
      "midi": 62,
      "hit": false,
      "t": 128180.27999999978,
      "d": 1193.167499999996,
      "v": 70
    },
    {
      "midi": 66,
      "hit": false,
      "t": 128180.27999999978,
      "d": 1193.167499999996,
      "v": 70
    },
    {
      "midi": 69,
      "hit": false,
      "t": 128180.27999999978,
      "d": 1193.167499999996,
      "v": 70
    },
    {
      "midi": 57,
      "hit": false,
      "t": 128180.27999999996,
      "d": 433.23343749999185,
      "v": 93
    },
    {
      "midi": 38,
      "hit": false,
      "t": 128180.28000000099,
      "d": 767.0362500000047,
      "v": 90
    },
    {
      "midi": 60,
      "hit": false,
      "t": 128198.03546875001,
      "d": 2038.3278124999924,
      "v": 80
    },
    {
      "midi": 62,
      "hit": false,
      "t": 128521.18499999995,
      "d": 507.80640625000524,
      "v": 82
    },
    {
      "midi": 69,
      "hit": false,
      "t": 128663.22875000008,
      "d": 326.7006249999977,
      "v": 102
    },
    {
      "midi": 66,
      "hit": false,
      "t": 128862.08999999995,
      "d": 440.335625000007,
      "v": 93
    },
    {
      "midi": 69,
      "hit": false,
      "t": 129092.91109375008,
      "d": 110.08390625000175,
      "v": 68
    },
    {
      "midi": 69,
      "hit": false,
      "t": 129202.99499999997,
      "d": 394.1714062499959,
      "v": 87
    },
    {
      "midi": 38,
      "hit": false,
      "t": 129202.995000001,
      "d": 255.6787500000064,
      "v": 90
    },
    {
      "midi": 69,
      "hit": false,
      "t": 129302.42562500008,
      "d": 102.98171875000116,
      "v": 62
    },
    {
      "midi": 69,
      "hit": false,
      "t": 129483.53140625008,
      "d": 195.31015624999418,
      "v": 78
    },
    {
      "midi": 74,
      "hit": false,
      "t": 129543.89999999997,
      "d": 482.9487499999959,
      "v": 87
    },
    {
      "midi": 38,
      "hit": false,
      "t": 129543.90000000101,
      "d": 767.0362500000047,
      "v": 101
    },
    {
      "midi": 69,
      "hit": false,
      "t": 129838.64078125008,
      "d": 184.65687500000058,
      "v": 85
    },
    {
      "midi": 57,
      "hit": false,
      "t": 129884.80499999977,
      "d": 340.90499999999884,
      "v": 60
    },
    {
      "midi": 69,
      "hit": false,
      "t": 129884.80499999996,
      "d": 458.09109375000116,
      "v": 87
    },
    {
      "midi": 69,
      "hit": false,
      "t": 130168.89250000009,
      "d": 376.41593750000175,
      "v": 85
    },
    {
      "midi": 54,
      "hit": false,
      "t": 130218.6078125,
      "d": 720.8720312499936,
      "v": 80
    },
    {
      "midi": 62,
      "hit": false,
      "t": 130225.70999999977,
      "d": 340.90499999999884,
      "v": 65
    },
    {
      "midi": 66,
      "hit": false,
      "t": 130225.70999999996,
      "d": 390.6203125000029,
      "v": 91
    },
    {
      "midi": 71,
      "hit": false,
      "t": 130520.4507812501,
      "d": 376.4159374999872,
      "v": 87
    },
    {
      "midi": 66,
      "hit": false,
      "t": 130566.61499999977,
      "d": 340.90499999999884,
      "v": 70
    },
    {
      "midi": 62,
      "hit": false,
      "t": 130566.61499999996,
      "d": 330.25171875000524,
      "v": 89
    },
    {
      "midi": 38,
      "hit": false,
      "t": 130566.61500000102,
      "d": 255.6787500000064,
      "v": 94
    },
    {
      "midi": 69,
      "hit": false,
      "t": 130886.21343750009,
      "d": 1367.1710937499884,
      "v": 98
    },
    {
      "midi": 57,
      "hit": false,
      "t": 130893.315625,
      "d": 1413.3353124999994,
      "v": 95
    },
    {
      "midi": 55,
      "hit": false,
      "t": 130907.51999999977,
      "d": 1193.167499999996,
      "v": 70
    },
    {
      "midi": 59,
      "hit": false,
      "t": 130907.51999999977,
      "d": 1193.167499999996,
      "v": 70
    },
    {
      "midi": 62,
      "hit": false,
      "t": 130907.51999999977,
      "d": 1193.167499999996,
      "v": 70
    },
    {
      "midi": 55,
      "hit": false,
      "t": 130907.51999999996,
      "d": 369.31375000000116,
      "v": 85
    },
    {
      "midi": 31,
      "hit": false,
      "t": 130907.52000000104,
      "d": 767.0362500000047,
      "v": 101
    },
    {
      "midi": 59,
      "hit": false,
      "t": 131248.42499999996,
      "d": 447.437812499993,
      "v": 89
    },
    {
      "midi": 62,
      "hit": false,
      "t": 131589.32999999996,
      "d": 433.23343749999185,
      "v": 98
    },
    {
      "midi": 67,
      "hit": false,
      "t": 131930.23499999996,
      "d": 372.8648437499942,
      "v": 85
    },
    {
      "midi": 31,
      "hit": false,
      "t": 131930.23500000103,
      "d": 255.67874999999185,
      "v": 77
    },
    {
      "midi": 67,
      "hit": false,
      "t": 132210.77140625007,
      "d": 3409.0500000000175,
      "v": 89
    },
    {
      "midi": 55,
      "hit": false,
      "t": 132256.935625,
      "d": 3987.878281249985,
      "v": 82
    },
    {
      "midi": 71,
      "hit": false,
      "t": 132271.13999999996,
      "d": 788.3428124999919,
      "v": 87
    },
    {
      "midi": 31,
      "hit": false,
      "t": 132271.14000000103,
      "d": 767.0362500000047,
      "v": 94
    },
    {
      "midi": 67,
      "hit": false,
      "t": 132612.04499999995,
      "d": 845.1603124999965,
      "v": 70
    },
    {
      "midi": 62,
      "hit": false,
      "t": 132952.94999999995,
      "d": 447.437812499993,
      "v": 70
    },
    {
      "midi": 59,
      "hit": false,
      "t": 133293.85499999995,
      "d": 372.8648437499942,
      "v": 78
    },
    {
      "midi": 31,
      "hit": false,
      "t": 133293.85500000103,
      "d": 255.67874999999185,
      "v": 94
    },
    {
      "midi": 55,
      "hit": false,
      "t": 133634.75999999978,
      "d": 1193.1675000000105,
      "v": 70
    },
    {
      "midi": 59,
      "hit": false,
      "t": 133634.75999999978,
      "d": 1193.1675000000105,
      "v": 70
    },
    {
      "midi": 62,
      "hit": false,
      "t": 133634.75999999978,
      "d": 1193.1675000000105,
      "v": 70
    },
    {
      "midi": 67,
      "hit": false,
      "t": 133634.75999999978,
      "d": 1193.1675000000105,
      "v": 70
    },
    {
      "midi": 55,
      "hit": false,
      "t": 133634.75999999995,
      "d": 436.78453124998487,
      "v": 76
    },
    {
      "midi": 31,
      "hit": false,
      "t": 133634.76000000103,
      "d": 767.0362500000047,
      "v": 85
    },
    {
      "midi": 59,
      "hit": false,
      "t": 133975.66499999995,
      "d": 504.2553124999977,
      "v": 80
    },
    {
      "midi": 62,
      "hit": false,
      "t": 134316.56999999995,
      "d": 770.5873437499977,
      "v": 95
    },
    {
      "midi": 67,
      "hit": false,
      "t": 134657.47499999995,
      "d": 440.335625000007,
      "v": 78
    },
    {
      "midi": 31,
      "hit": false,
      "t": 134657.47500000102,
      "d": 255.67874999999185,
      "v": 87
    },
    {
      "midi": 71,
      "hit": false,
      "t": 134998.37999999995,
      "d": 710.21875,
      "v": 85
    },
    {
      "midi": 31,
      "hit": false,
      "t": 134998.38000000102,
      "d": 767.0362500000047,
      "v": 85
    },
    {
      "midi": 55,
      "hit": false,
      "t": 135339.2849999998,
      "d": 340.90499999999884,
      "v": 60
    },
    {
      "midi": 67,
      "hit": false,
      "t": 135339.28499999995,
      "d": 600.1348437500128,
      "v": 82
    },
    {
      "midi": 59,
      "hit": false,
      "t": 135680.1899999998,
      "d": 340.90499999999884,
      "v": 65
    },
    {
      "midi": 62,
      "hit": false,
      "t": 135680.18999999994,
      "d": 422.5801562500419,
      "v": 85
    },
    {
      "midi": 67,
      "hit": false,
      "t": 135964.27750000008,
      "d": 419.0290624999907,
      "v": 85
    },
    {
      "midi": 62,
      "hit": false,
      "t": 136021.0949999998,
      "d": 340.90499999999884,
      "v": 70
    },
    {
      "midi": 59,
      "hit": false,
      "t": 136021.09499999997,
      "d": 276.98531250000815,
      "v": 98
    },
    {
      "midi": 31,
      "hit": false,
      "t": 136021.09500000102,
      "d": 255.67874999999185,
      "v": 92
    },
    {
      "midi": 55,
      "hit": false,
      "t": 136361.9999999998,
      "d": 1193.1675000000105,
      "v": 70
    },
    {
      "midi": 60,
      "hit": false,
      "t": 136361.9999999998,
      "d": 1193.1675000000105,
      "v": 70
    },
    {
      "midi": 64,
      "hit": false,
      "t": 136361.9999999998,
      "d": 1193.1675000000105,
      "v": 70
    },
    {
      "midi": 67,
      "hit": false,
      "t": 136361.9999999998,
      "d": 1193.1675000000105,
      "v": 70
    },
    {
      "midi": 67,
      "hit": false,
      "t": 136361.99999999988,
      "d": 2727.2399999999616,
      "v": 61
    },
    {
      "midi": 72,
      "hit": false,
      "t": 136361.99999999988,
      "d": 2727.2399999999616,
      "v": 61
    },
    {
      "midi": 76,
      "hit": false,
      "t": 136361.99999999988,
      "d": 2727.2399999999616,
      "v": 61
    },
    {
      "midi": 48,
      "hit": false,
      "t": 136361.99999999988,
      "d": 5454.479999999952,
      "v": 61
    },
    {
      "midi": 60,
      "hit": false,
      "t": 136361.99999999988,
      "d": 5454.479999999952,
      "v": 61
    },
    {
      "midi": 60,
      "hit": false,
      "t": 136361.99999999997,
      "d": 450.98890624998603,
      "v": 87
    },
    {
      "midi": 36,
      "hit": false,
      "t": 136362.00000000102,
      "d": 767.0362500000047,
      "v": 102
    },
    {
      "midi": 64,
      "hit": false,
      "t": 136390.40875000006,
      "d": 3341.5792187500047,
      "v": 102
    },
    {
      "midi": 64,
      "hit": false,
      "t": 136702.90499999997,
      "d": 1125.6967187499977,
      "v": 80
    },
    {
      "midi": 67,
      "hit": false,
      "t": 137043.80999999997,
      "d": 454.54000000000815,
      "v": 95
    },
    {
      "midi": 72,
      "hit": false,
      "t": 137384.71499999997,
      "d": 383.5181250000023,
      "v": 85
    },
    {
      "midi": 36,
      "hit": false,
      "t": 137384.71500000102,
      "d": 255.67874999999185,
      "v": 84
    },
    {
      "midi": 67,
      "hit": false,
      "t": 137683.006875,
      "d": 589.4815625000047,
      "v": 87
    },
    {
      "midi": 76,
      "hit": false,
      "t": 137725.61999999997,
      "d": 901.9778125000012,
      "v": 91
    },
    {
      "midi": 36,
      "hit": false,
      "t": 137725.620000001,
      "d": 767.0362500000047,
      "v": 96
    },
    {
      "midi": 72,
      "hit": false,
      "t": 138066.52499999997,
      "d": 855.8135937500047,
      "v": 80
    },
    {
      "midi": 66,
      "hit": false,
      "t": 138212.11984375,
      "d": 536.2151562500221,
      "v": 82
    },
    {
      "midi": 67,
      "hit": false,
      "t": 138407.42999999996,
      "d": 411.92687500000466,
      "v": 80
    },
    {
      "midi": 64,
      "hit": false,
      "t": 138695.06859375,
      "d": 475.84656250002445,
      "v": 87
    },
    {
      "midi": 64,
      "hit": false,
      "t": 138748.33499999996,
      "d": 351.558281250007,
      "v": 100
    },
    {
      "midi": 36,
      "hit": false,
      "t": 138748.335000001,
      "d": 255.67874999999185,
      "v": 76
    },
    {
      "midi": 69,
      "hit": false,
      "t": 139032.42249999987,
      "d": 2773.404218749958,
      "v": 63
    },
    {
      "midi": 74,
      "hit": false,
      "t": 139064.38234374986,
      "d": 8288.252812499966,
      "v": 70
    },
    {
      "midi": 78,
      "hit": false,
      "t": 139071.48453124985,
      "d": 8132.0046874999825,
      "v": 35
    },
    {
      "midi": 57,
      "hit": false,
      "t": 139089.23999999982,
      "d": 1193.1675000000105,
      "v": 70
    },
    {
      "midi": 62,
      "hit": false,
      "t": 139089.23999999982,
      "d": 1193.1675000000105,
      "v": 70
    },
    {
      "midi": 66,
      "hit": false,
      "t": 139089.23999999982,
      "d": 1193.1675000000105,
      "v": 70
    },
    {
      "midi": 62,
      "hit": false,
      "t": 139089.23999999996,
      "d": 1338.762343749986,
      "v": 102
    },
    {
      "midi": 36,
      "hit": false,
      "t": 139089.240000001,
      "d": 767.0362500000047,
      "v": 85
    },
    {
      "midi": 66,
      "hit": false,
      "t": 139114.09765625003,
      "d": 3749.9550000000163,
      "v": 89
    },
    {
      "midi": 66,
      "hit": false,
      "t": 139430.14499999996,
      "d": 216.61671875001048,
      "v": 57
    },
    {
      "midi": 66,
      "hit": false,
      "t": 139692.92593750005,
      "d": 450.98890625001513,
      "v": 93
    },
    {
      "midi": 69,
      "hit": false,
      "t": 139771.04999999996,
      "d": 433.23343749999185,
      "v": 80
    },
    {
      "midi": 67,
      "hit": false,
      "t": 140087.09734375007,
      "d": 401.2735937500256,
      "v": 98
    },
    {
      "midi": 74,
      "hit": false,
      "t": 140111.95499999996,
      "d": 376.4159374999872,
      "v": 82
    },
    {
      "midi": 36,
      "hit": false,
      "t": 140111.955000001,
      "d": 255.67874999999185,
      "v": 80
    },
    {
      "midi": 69,
      "hit": false,
      "t": 140435.10453125008,
      "d": 362.21156250001513,
      "v": 85
    },
    {
      "midi": 69,
      "hit": false,
      "t": 140452.85999999996,
      "d": 493.6020312499895,
      "v": 78
    },
    {
      "midi": 36,
      "hit": false,
      "t": 140452.860000001,
      "d": 767.0362500000047,
      "v": 88
    },
    {
      "midi": 48,
      "hit": false,
      "t": 140793.76499999984,
      "d": 340.90499999999884,
      "v": 70
    },
    {
      "midi": 66,
      "hit": false,
      "t": 140793.76499999996,
      "d": 358.660468749993,
      "v": 89
    },
    {
      "midi": 69,
      "hit": false,
      "t": 140925.1554687501,
      "d": 482.9487500000105,
      "v": 91
    },
    {
      "midi": 48,
      "hit": false,
      "t": 141134.66999999984,
      "d": 681.8099999999977,
      "v": 75
    },
    {
      "midi": 57,
      "hit": false,
      "t": 141134.66999999984,
      "d": 681.8099999999977,
      "v": 75
    },
    {
      "midi": 62,
      "hit": false,
      "t": 141134.66999999984,
      "d": 681.8099999999977,
      "v": 75
    },
    {
      "midi": 66,
      "hit": false,
      "t": 141134.66999999984,
      "d": 681.8099999999977,
      "v": 75
    },
    {
      "midi": 62,
      "hit": false,
      "t": 141134.66999999995,
      "d": 419.0290624999907,
      "v": 76
    },
    {
      "midi": 66,
      "hit": false,
      "t": 141418.75750000012,
      "d": 401.2735937499965,
      "v": 95
    },
    {
      "midi": 66,
      "hit": false,
      "t": 141475.57499999995,
      "d": 337.3539062500058,
      "v": 85
    },
    {
      "midi": 36,
      "hit": false,
      "t": 141475.575000001,
      "d": 255.67874999999185,
      "v": 92
    },
    {
      "midi": 71,
      "hit": false,
      "t": 141773.86687499983,
      "d": 5315.987343749992,
      "v": 68
    },
    {
      "midi": 59,
      "hit": false,
      "t": 141780.96906249982,
      "d": 5557.461718750012,
      "v": 74
    },
    {
      "midi": 54,
      "hit": false,
      "t": 141816.47999999984,
      "d": 1193.1675000000105,
      "v": 70
    },
    {
      "midi": 59,
      "hit": false,
      "t": 141816.47999999984,
      "d": 1193.1675000000105,
      "v": 70
    },
    {
      "midi": 62,
      "hit": false,
      "t": 141816.47999999984,
      "d": 1193.1675000000105,
      "v": 70
    },
    {
      "midi": 59,
      "hit": false,
      "t": 141816.47999999995,
      "d": 433.23343749999185,
      "v": 82
    },
    {
      "midi": 35,
      "hit": false,
      "t": 141816.480000001,
      "d": 767.0362500000047,
      "v": 96
    },
    {
      "midi": 62,
      "hit": false,
      "t": 141823.5821875001,
      "d": 1363.6199999999953,
      "v": 105
    },
    {
      "midi": 62,
      "hit": false,
      "t": 142157.38499999995,
      "d": 493.6020312499895,
      "v": 82
    },
    {
      "midi": 66,
      "hit": false,
      "t": 142498.28999999995,
      "d": 440.335625000007,
      "v": 93
    },
    {
      "midi": 71,
      "hit": false,
      "t": 142839.19499999995,
      "d": 394.1714062500105,
      "v": 82
    },
    {
      "midi": 35,
      "hit": false,
      "t": 142839.195000001,
      "d": 255.67874999999185,
      "v": 85
    },
    {
      "midi": 74,
      "hit": false,
      "t": 143180.09999999995,
      "d": 589.4815625000047,
      "v": 85
    },
    {
      "midi": 35,
      "hit": false,
      "t": 143180.100000001,
      "d": 767.0362500000047,
      "v": 99
    },
    {
      "midi": 59,
      "hit": false,
      "t": 143183.65109375012,
      "d": 3618.5645312499837,
      "v": 98
    },
    {
      "midi": 66,
      "hit": false,
      "t": 143222.71312500004,
      "d": 568.1750000000175,
      "v": 85
    },
    {
      "midi": 47,
      "hit": false,
      "t": 143521.00499999986,
      "d": 340.90499999999884,
      "v": 70
    },
    {
      "midi": 71,
      "hit": false,
      "t": 143521.00499999995,
      "d": 525.5618749999849,
      "v": 66
    },
    {
      "midi": 64,
      "hit": false,
      "t": 143709.21296875004,
      "d": 497.15312500001164,
      "v": 91
    },
    {
      "midi": 54,
      "hit": false,
      "t": 143861.90999999986,
      "d": 681.8099999999977,
      "v": 75
    },
    {
      "midi": 59,
      "hit": false,
      "t": 143861.90999999986,
      "d": 681.8099999999977,
      "v": 75
    },
    {
      "midi": 62,
      "hit": false,
      "t": 143861.90999999986,
      "d": 681.8099999999977,
      "v": 75
    },
    {
      "midi": 66,
      "hit": false,
      "t": 143861.90999999995,
      "d": 436.78453124998487,
      "v": 85
    },
    {
      "midi": 62,
      "hit": false,
      "t": 144185.05953125007,
      "d": 1711.6271874999802,
      "v": 93
    },
    {
      "midi": 62,
      "hit": false,
      "t": 144202.81499999994,
      "d": 319.59843749998254,
      "v": 100
    },
    {
      "midi": 35,
      "hit": false,
      "t": 144202.815000001,
      "d": 255.67874999999185,
      "v": 85
    },
    {
      "midi": 47,
      "hit": false,
      "t": 144540.16890624983,
      "d": 2801.8129687499895,
      "v": 74
    },
    {
      "midi": 54,
      "hit": false,
      "t": 144543.71999999986,
      "d": 1193.1675000000105,
      "v": 70
    },
    {
      "midi": 59,
      "hit": false,
      "t": 144543.71999999986,
      "d": 1193.1675000000105,
      "v": 70
    },
    {
      "midi": 62,
      "hit": false,
      "t": 144543.71999999986,
      "d": 1193.1675000000105,
      "v": 70
    },
    {
      "midi": 59,
      "hit": false,
      "t": 144543.7199999999,
      "d": 415.4779687499977,
      "v": 93
    },
    {
      "midi": 35,
      "hit": false,
      "t": 144543.720000001,
      "d": 767.0362500000047,
      "v": 86
    },
    {
      "midi": 62,
      "hit": false,
      "t": 144884.6249999999,
      "d": 603.6859375000058,
      "v": 87
    },
    {
      "midi": 66,
      "hit": false,
      "t": 145225.5299999999,
      "d": 436.78453124998487,
      "v": 85
    },
    {
      "midi": 71,
      "hit": false,
      "t": 145566.4349999999,
      "d": 433.23343749999185,
      "v": 89
    },
    {
      "midi": 35,
      "hit": false,
      "t": 145566.435000001,
      "d": 255.67874999999185,
      "v": 82
    },
    {
      "midi": 54,
      "hit": false,
      "t": 145893.13562500005,
      "d": 1118.5945312500116,
      "v": 89
    },
    {
      "midi": 74,
      "hit": false,
      "t": 145907.3399999999,
      "d": 465.1932812499872,
      "v": 87
    },
    {
      "midi": 35,
      "hit": false,
      "t": 145907.340000001,
      "d": 767.0362500000047,
      "v": 100
    },
    {
      "midi": 47,
      "hit": false,
      "t": 146248.24499999988,
      "d": 340.90499999999884,
      "v": 70
    },
    {
      "midi": 71,
      "hit": false,
      "t": 146248.2449999999,
      "d": 482.9487500000105,
      "v": 80
    },
    {
      "midi": 54,
      "hit": false,
      "t": 146589.14999999988,
      "d": 681.8099999999977,
      "v": 75
    },
    {
      "midi": 59,
      "hit": false,
      "t": 146589.14999999988,
      "d": 681.8099999999977,
      "v": 75
    },
    {
      "midi": 62,
      "hit": false,
      "t": 146589.14999999988,
      "d": 681.8099999999977,
      "v": 75
    },
    {
      "midi": 66,
      "hit": false,
      "t": 146589.1499999999,
      "d": 419.0290624999907,
      "v": 85
    },
    {
      "midi": 62,
      "hit": false,
      "t": 146841.2776562501,
      "d": 429.68234374999884,
      "v": 82
    },
    {
      "midi": 62,
      "hit": false,
      "t": 146930.0549999999,
      "d": 326.7006249999977,
      "v": 98
    },
    {
      "midi": 35,
      "hit": false,
      "t": 146930.05500000098,
      "d": 255.67874999999185,
      "v": 89
    },
    {
      "midi": 59,
      "hit": false,
      "t": 146958.46375000005,
      "d": 355.109375,
      "v": 91
    },
    {
      "midi": 60,
      "hit": false,
      "t": 147256.7556250001,
      "d": 1107.9412500000035,
      "v": 98
    },
    {
      "midi": 45,
      "hit": false,
      "t": 147270.95999999988,
      "d": 284.0874999999942,
      "v": 70
    },
    {
      "midi": 57,
      "hit": false,
      "t": 147270.95999999988,
      "d": 284.0874999999942,
      "v": 70
    },
    {
      "midi": 60,
      "hit": false,
      "t": 147270.95999999988,
      "d": 284.0874999999942,
      "v": 70
    },
    {
      "midi": 64,
      "hit": false,
      "t": 147270.95999999988,
      "d": 284.0874999999942,
      "v": 70
    },
    {
      "midi": 69,
      "hit": false,
      "t": 147270.95999999988,
      "d": 284.0874999999942,
      "v": 70
    },
    {
      "midi": 57,
      "hit": false,
      "t": 147270.9599999999,
      "d": 358.660468749993,
      "v": 89
    },
    {
      "midi": 33,
      "hit": false,
      "t": 147270.96000000098,
      "d": 767.0362500000047,
      "v": 104
    },
    {
      "midi": 57,
      "hit": false,
      "t": 147292.26656249983,
      "d": 1335.2112500000221,
      "v": 56
    },
    {
      "midi": 72,
      "hit": false,
      "t": 147292.26656249983,
      "d": 1377.8243750000256,
      "v": 45
    },
    {
      "midi": 69,
      "hit": false,
      "t": 147292.26656249983,
      "d": 2727.24000000002,
      "v": 13
    },
    {
      "midi": 60,
      "hit": false,
      "t": 147292.26656250007,
      "d": 1363.6199999999662,
      "v": 100
    },
    {
      "midi": 76,
      "hit": false,
      "t": 147306.47093749983,
      "d": 1374.2732812500326,
      "v": 59
    },
    {
      "midi": 60,
      "hit": false,
      "t": 147611.8649999999,
      "d": 486.4998437500035,
      "v": 85
    },
    {
      "midi": 57,
      "hit": false,
      "t": 147952.76999999987,
      "d": 284.0874999999942,
      "v": 70
    },
    {
      "midi": 64,
      "hit": false,
      "t": 147952.7699999999,
      "d": 472.2954687500023,
      "v": 89
    },
    {
      "midi": 60,
      "hit": false,
      "t": 148293.67499999987,
      "d": 284.0874999999942,
      "v": 60
    },
    {
      "midi": 69,
      "hit": false,
      "t": 148293.6749999999,
      "d": 543.3173437500081,
      "v": 82
    },
    {
      "midi": 33,
      "hit": false,
      "t": 148293.67500000098,
      "d": 255.67874999999185,
      "v": 94
    },
    {
      "midi": 67,
      "hit": false,
      "t": 148300.77718750012,
      "d": 387.06921874999534,
      "v": 98
    },
    {
      "midi": 78,
      "hit": false,
      "t": 148588.41578124985,
      "d": 1576.6856249999837,
      "v": 52
    },
    {
      "midi": 74,
      "hit": false,
      "t": 148591.96687499984,
      "d": 4243.557031250006,
      "v": 54
    },
    {
      "midi": 50,
      "hit": false,
      "t": 148602.62015624985,
      "d": 1463.0506249999744,
      "v": 61
    },
    {
      "midi": 66,
      "hit": false,
      "t": 148627.47781250012,
      "d": 337.3539062499767,
      "v": 89
    },
    {
      "midi": 57,
      "hit": false,
      "t": 148634.57999999987,
      "d": 284.0874999999942,
      "v": 70
    },
    {
      "midi": 62,
      "hit": false,
      "t": 148634.57999999987,
      "d": 284.0874999999942,
      "v": 70
    },
    {
      "midi": 66,
      "hit": false,
      "t": 148634.57999999987,
      "d": 284.0874999999942,
      "v": 70
    },
    {
      "midi": 69,
      "hit": false,
      "t": 148634.57999999987,
      "d": 284.0874999999942,
      "v": 70
    },
    {
      "midi": 38,
      "hit": false,
      "t": 148634.58000000098,
      "d": 767.0362500000047,
      "v": 87
    },
    {
      "midi": 59,
      "hit": false,
      "t": 148648.78437500005,
      "d": 1036.9193749999977,
      "v": 91
    },
    {
      "midi": 62,
      "hit": false,
      "t": 148805.0324999999,
      "d": 440.3356249999779,
      "v": 62
    },
    {
      "midi": 64,
      "hit": false,
      "t": 148929.3207812501,
      "d": 401.2735937499674,
      "v": 100
    },
    {
      "midi": 50,
      "hit": false,
      "t": 148975.48499999987,
      "d": 340.90499999999884,
      "v": 60
    },
    {
      "midi": 66,
      "hit": false,
      "t": 148975.4849999999,
      "d": 330.2517187499907,
      "v": 80
    },
    {
      "midi": 66,
      "hit": false,
      "t": 149280.87906250008,
      "d": 355.109375,
      "v": 82
    },
    {
      "midi": 57,
      "hit": false,
      "t": 149316.38999999987,
      "d": 340.90499999999884,
      "v": 65
    },
    {
      "midi": 69,
      "hit": false,
      "t": 149316.3899999999,
      "d": 333.8028125000128,
      "v": 85
    },
    {
      "midi": 62,
      "hit": false,
      "t": 149621.78406250008,
      "d": 447.437812499993,
      "v": 98
    },
    {
      "midi": 60,
      "hit": false,
      "t": 149628.88625000004,
      "d": 443.88671875,
      "v": 80
    },
    {
      "midi": 62,
      "hit": false,
      "t": 149657.29499999987,
      "d": 340.90499999999884,
      "v": 60
    },
    {
      "midi": 74,
      "hit": false,
      "t": 149657.2949999999,
      "d": 465.1932812499872,
      "v": 91
    },
    {
      "midi": 38,
      "hit": false,
      "t": 149657.29500000097,
      "d": 255.67874999999185,
      "v": 85
    },
    {
      "midi": 59,
      "hit": false,
      "t": 149980.44453125008,
      "d": 2776.9553125000093,
      "v": 78
    },
    {
      "midi": 55,
      "hit": false,
      "t": 149998.19999999987,
      "d": 284.0874999999942,
      "v": 70
    },
    {
      "midi": 59,
      "hit": false,
      "t": 149998.19999999987,
      "d": 284.0874999999942,
      "v": 70
    },
    {
      "midi": 62,
      "hit": false,
      "t": 149998.19999999987,
      "d": 284.0874999999942,
      "v": 70
    },
    {
      "midi": 67,
      "hit": false,
      "t": 149998.1999999999,
      "d": 301.84296874998836,
      "v": 82
    },
    {
      "midi": 31,
      "hit": false,
      "t": 149998.20000000097,
      "d": 767.0362500000047,
      "v": 98
    },
    {
      "midi": 62,
      "hit": false,
      "t": 150015.95546875003,
      "d": 557.5217187500093,
      "v": 98
    },
    {
      "midi": 71,
      "hit": false,
      "t": 150026.60874999984,
      "d": 2599.4006250000093,
      "v": 70
    },
    {
      "midi": 55,
      "hit": false,
      "t": 150033.71093749983,
      "d": 2713.0356250000186,
      "v": 61
    },
    {
      "midi": 71,
      "hit": false,
      "t": 150339.1049999999,
      "d": 497.15312500001164,
      "v": 85
    },
    {
      "midi": 74,
      "hit": false,
      "t": 150680.00999999972,
      "d": 681.810000000085,
      "v": 90
    },
    {
      "midi": 55,
      "hit": false,
      "t": 150680.00999999986,
      "d": 284.0874999999942,
      "v": 70
    },
    {
      "midi": 74,
      "hit": false,
      "t": 150680.0099999999,
      "d": 348.00718749998487,
      "v": 89
    },
    {
      "midi": 62,
      "hit": false,
      "t": 150680.01000000004,
      "d": 727.9742187499942,
      "v": 89
    },
    {
      "midi": 59,
      "hit": false,
      "t": 151020.91499999986,
      "d": 284.0874999999942,
      "v": 60
    },
    {
      "midi": 79,
      "hit": false,
      "t": 151020.9149999999,
      "d": 571.7260937500105,
      "v": 98
    },
    {
      "midi": 31,
      "hit": false,
      "t": 151020.91500000097,
      "d": 255.67874999999185,
      "v": 84
    },
    {
      "midi": 67,
      "hit": false,
      "t": 151269.49156249984,
      "d": 4211.5971875000105,
      "v": 66
    },
    {
      "midi": 67,
      "hit": false,
      "t": 151347.61562500003,
      "d": 756.3829687499965,
      "v": 95
    },
    {
      "midi": 79,
      "hit": false,
      "t": 151361.8199999998,
      "d": 681.8100000000268,
      "v": 87
    },
    {
      "midi": 55,
      "hit": false,
      "t": 151361.81999999986,
      "d": 284.0874999999942,
      "v": 70
    },
    {
      "midi": 59,
      "hit": false,
      "t": 151361.81999999986,
      "d": 284.0874999999942,
      "v": 70
    },
    {
      "midi": 62,
      "hit": false,
      "t": 151361.81999999986,
      "d": 284.0874999999942,
      "v": 70
    },
    {
      "midi": 65,
      "hit": false,
      "t": 151361.81999999986,
      "d": 284.0874999999942,
      "v": 70
    },
    {
      "midi": 67,
      "hit": false,
      "t": 151361.81999999986,
      "d": 284.0874999999942,
      "v": 70
    },
    {
      "midi": 74,
      "hit": false,
      "t": 151361.8199999999,
      "d": 433.23343749999185,
      "v": 89
    },
    {
      "midi": 31,
      "hit": false,
      "t": 151361.82000000097,
      "d": 767.0362500000047,
      "v": 89
    },
    {
      "midi": 55,
      "hit": false,
      "t": 151702.72499999986,
      "d": 340.90499999999884,
      "v": 70
    },
    {
      "midi": 71,
      "hit": false,
      "t": 151702.7249999999,
      "d": 376.4159374999872,
      "v": 95
    },
    {
      "midi": 77,
      "hit": false,
      "t": 152043.62999999983,
      "d": 699.565468750021,
      "v": 93
    },
    {
      "midi": 59,
      "hit": false,
      "t": 152043.62999999986,
      "d": 340.90499999999884,
      "v": 60
    },
    {
      "midi": 67,
      "hit": false,
      "t": 152043.6299999999,
      "d": 383.5181250000023,
      "v": 102
    },
    {
      "midi": 65,
      "hit": false,
      "t": 152054.28328125004,
      "d": 667.6056249999965,
      "v": 98
    },
    {
      "midi": 55,
      "hit": false,
      "t": 152384.53499999986,
      "d": 284.0874999999942,
      "v": 65
    },
    {
      "midi": 59,
      "hit": false,
      "t": 152384.53499999986,
      "d": 284.0874999999942,
      "v": 65
    },
    {
      "midi": 62,
      "hit": false,
      "t": 152384.53499999986,
      "d": 284.0874999999942,
      "v": 65
    },
    {
      "midi": 65,
      "hit": false,
      "t": 152384.53499999986,
      "d": 284.0874999999942,
      "v": 65
    },
    {
      "midi": 67,
      "hit": false,
      "t": 152384.53499999986,
      "d": 284.0874999999942,
      "v": 65
    },
    {
      "midi": 71,
      "hit": false,
      "t": 152384.5349999999,
      "d": 280.53640625000116,
      "v": 100
    },
    {
      "midi": 31,
      "hit": false,
      "t": 152384.53500000096,
      "d": 255.67874999999185,
      "v": 85
    },
    {
      "midi": 48,
      "hit": false,
      "t": 152686.37796874985,
      "d": 2837.323906249978,
      "v": 61
    },
    {
      "midi": 64,
      "hit": false,
      "t": 152721.88890625004,
      "d": 2720.1378125000047,
      "v": 100
    },
    {
      "midi": 48,
      "hit": false,
      "t": 152725.43999999986,
      "d": 1193.1675000000105,
      "v": 70
    },
    {
      "midi": 55,
      "hit": false,
      "t": 152725.43999999986,
      "d": 1193.1675000000105,
      "v": 70
    },
    {
      "midi": 60,
      "hit": false,
      "t": 152725.43999999986,
      "d": 1193.1675000000105,
      "v": 70
    },
    {
      "midi": 64,
      "hit": false,
      "t": 152725.43999999986,
      "d": 1193.1675000000105,
      "v": 70
    },
    {
      "midi": 76,
      "hit": false,
      "t": 152725.43999999986,
      "d": 2734.3421874999767,
      "v": 93
    },
    {
      "midi": 60,
      "hit": false,
      "t": 152725.4399999999,
      "d": 383.5181250000023,
      "v": 76
    },
    {
      "midi": 36,
      "hit": false,
      "t": 152725.44000000096,
      "d": 767.0362500000047,
      "v": 99
    },
    {
      "midi": 76,
      "hit": false,
      "t": 152746.74656249984,
      "d": 2766.302031250001,
      "v": 50
    },
    {
      "midi": 72,
      "hit": false,
      "t": 152757.39984374985,
      "d": 2762.750937499979,
      "v": 58
    },
    {
      "midi": 64,
      "hit": false,
      "t": 153062.7939062501,
      "d": 337.3539062499767,
      "v": 98
    },
    {
      "midi": 64,
      "hit": false,
      "t": 153066.34499999988,
      "d": 454.54000000000815,
      "v": 87
    },
    {
      "midi": 60,
      "hit": false,
      "t": 153364.63687500008,
      "d": 397.7224999999744,
      "v": 100
    },
    {
      "midi": 67,
      "hit": false,
      "t": 153407.24999999988,
      "d": 387.06921874999534,
      "v": 95
    },
    {
      "midi": 62,
      "hit": false,
      "t": 153698.43968750007,
      "d": 429.68234374996973,
      "v": 105
    },
    {
      "midi": 72,
      "hit": false,
      "t": 153748.15499999988,
      "d": 742.1785937499953,
      "v": 85
    },
    {
      "midi": 36,
      "hit": false,
      "t": 153748.15500000096,
      "d": 255.67874999999185,
      "v": 85
    },
    {
      "midi": 64,
      "hit": false,
      "t": 154035.79359375004,
      "d": 447.437812499993,
      "v": 89
    },
    {
      "midi": 67,
      "hit": false,
      "t": 154089.05999999988,
      "d": 401.2735937499965,
      "v": 91
    },
    {
      "midi": 36,
      "hit": false,
      "t": 154089.06000000096,
      "d": 767.0362500000047,
      "v": 85
    },
    {
      "midi": 66,
      "hit": false,
      "t": 154398.00515625003,
      "d": 326.7006249999977,
      "v": 89
    },
    {
      "midi": 64,
      "hit": false,
      "t": 154429.96499999988,
      "d": 376.4159374999872,
      "v": 82
    },
    {
      "midi": 67,
      "hit": false,
      "t": 154742.46125000002,
      "d": 358.660468749993,
      "v": 100
    },
    {
      "midi": 60,
      "hit": false,
      "t": 154770.86999999988,
      "d": 333.8028124999837,
      "v": 89
    },
    {
      "midi": 69,
      "hit": false,
      "t": 155044.30421875,
      "d": 404.8246875000186,
      "v": 102
    },
    {
      "midi": 64,
      "hit": false,
      "t": 155111.77499999985,
      "d": 305.3940625000105,
      "v": 89
    },
    {
      "midi": 36,
      "hit": false,
      "t": 155111.77500000095,
      "d": 255.67874999999185,
      "v": 81
    },
    {
      "midi": 71,
      "hit": false,
      "t": 155420.72015625003,
      "d": 1473.7039062500116,
      "v": 113
    },
    {
      "midi": 59,
      "hit": false,
      "t": 155442.02671874984,
      "d": 2851.52828124995,
      "v": 60
    },
    {
      "midi": 74,
      "hit": false,
      "t": 155452.67999999985,
      "d": 340.90499999999884,
      "v": 84
    },
    {
      "midi": 78,
      "hit": false,
      "t": 155452.67999999985,
      "d": 340.90499999999884,
      "v": 84
    },
    {
      "midi": 59,
      "hit": false,
      "t": 155452.67999999985,
      "d": 461.6421874999942,
      "v": 85
    },
    {
      "midi": 54,
      "hit": false,
      "t": 155452.67999999988,
      "d": 1193.1675000000105,
      "v": 70
    },
    {
      "midi": 59,
      "hit": false,
      "t": 155452.67999999988,
      "d": 1193.1675000000105,
      "v": 70
    },
    {
      "midi": 62,
      "hit": false,
      "t": 155452.67999999988,
      "d": 1193.1675000000105,
      "v": 70
    },
    {
      "midi": 66,
      "hit": false,
      "t": 155452.67999999988,
      "d": 1193.1675000000105,
      "v": 70
    },
    {
      "midi": 35,
      "hit": false,
      "t": 155452.68000000095,
      "d": 767.0362500000047,
      "v": 99
    },
    {
      "midi": 71,
      "hit": false,
      "t": 155481.08874999985,
      "d": 2716.5867187499534,
      "v": 70
    },
    {
      "midi": 74,
      "hit": false,
      "t": 155481.08874999985,
      "d": 2840.874999999942,
      "v": 57
    },
    {
      "midi": 71,
      "hit": false,
      "t": 155793.58499999985,
      "d": 340.90500000002794,
      "v": 84
    },
    {
      "midi": 74,
      "hit": false,
      "t": 155793.58499999985,
      "d": 340.90500000002794,
      "v": 84
    },
    {
      "midi": 62,
      "hit": false,
      "t": 155793.58499999985,
      "d": 532.6640625,
      "v": 82
    },
    {
      "midi": 66,
      "hit": false,
      "t": 156134.48999999985,
      "d": 461.6421874999942,
      "v": 93
    },
    {
      "midi": 66,
      "hit": false,
      "t": 156134.48999999987,
      "d": 340.90499999999884,
      "v": 90
    },
    {
      "midi": 71,
      "hit": false,
      "t": 156134.48999999987,
      "d": 340.90499999999884,
      "v": 90
    },
    {
      "midi": 71,
      "hit": false,
      "t": 156475.39499999984,
      "d": 411.92687500000466,
      "v": 85
    },
    {
      "midi": 62,
      "hit": false,
      "t": 156475.39499999987,
      "d": 340.90499999999884,
      "v": 87
    },
    {
      "midi": 66,
      "hit": false,
      "t": 156475.39499999987,
      "d": 340.90499999999884,
      "v": 87
    },
    {
      "midi": 35,
      "hit": false,
      "t": 156475.39500000095,
      "d": 255.67874999999185,
      "v": 90
    },
    {
      "midi": 66,
      "hit": false,
      "t": 156802.0956249998,
      "d": 1317.4557812499988,
      "v": 52
    },
    {
      "midi": 47,
      "hit": false,
      "t": 156816.2999999998,
      "d": 1061.777031250007,
      "v": 74
    },
    {
      "midi": 74,
      "hit": false,
      "t": 156816.29999999984,
      "d": 706.667656250007,
      "v": 89
    },
    {
      "midi": 66,
      "hit": false,
      "t": 156816.29999999987,
      "d": 340.90499999999884,
      "v": 84
    },
    {
      "midi": 71,
      "hit": false,
      "t": 156816.29999999987,
      "d": 340.90499999999884,
      "v": 84
    },
    {
      "midi": 35,
      "hit": false,
      "t": 156816.30000000095,
      "d": 767.0362500000047,
      "v": 100
    },
    {
      "midi": 66,
      "hit": false,
      "t": 156869.56640625003,
      "d": 1658.3607812499977,
      "v": 113
    },
    {
      "midi": 71,
      "hit": false,
      "t": 157157.20499999984,
      "d": 486.4998437500035,
      "v": 78
    },
    {
      "midi": 71,
      "hit": false,
      "t": 157157.20499999987,
      "d": 340.90500000002794,
      "v": 84
    },
    {
      "midi": 74,
      "hit": false,
      "t": 157157.20499999987,
      "d": 340.90500000002794,
      "v": 84
    },
    {
      "midi": 47,
      "hit": false,
      "t": 157157.2049999999,
      "d": 340.90499999999884,
      "v": 70
    },
    {
      "midi": 66,
      "hit": false,
      "t": 157498.10999999984,
      "d": 429.68234374999884,
      "v": 82
    },
    {
      "midi": 54,
      "hit": false,
      "t": 157498.1099999999,
      "d": 681.8099999999977,
      "v": 75
    },
    {
      "midi": 59,
      "hit": false,
      "t": 157498.1099999999,
      "d": 681.8099999999977,
      "v": 75
    },
    {
      "midi": 62,
      "hit": false,
      "t": 157498.1099999999,
      "d": 681.8099999999977,
      "v": 75
    },
    {
      "midi": 74,
      "hit": false,
      "t": 157498.1099999999,
      "d": 340.90500000002794,
      "v": 84
    },
    {
      "midi": 78,
      "hit": false,
      "t": 157498.1099999999,
      "d": 340.90500000002794,
      "v": 84
    },
    {
      "midi": 62,
      "hit": false,
      "t": 157839.01499999984,
      "d": 319.59843750001164,
      "v": 82
    },
    {
      "midi": 86,
      "hit": false,
      "t": 157839.01499999993,
      "d": 340.90500000002794,
      "v": 87
    },
    {
      "midi": 78,
      "hit": false,
      "t": 157839.01499999993,
      "d": 351.5582812500361,
      "v": 87
    },
    {
      "midi": 35,
      "hit": false,
      "t": 157839.01500000095,
      "d": 255.67874999999185,
      "v": 86
    },
    {
      "midi": 57,
      "hit": false,
      "t": 158179.91999999984,
      "d": 379.9670312500093,
      "v": 98
    },
    {
      "midi": 45,
      "hit": false,
      "t": 158179.9199999999,
      "d": 1193.1675000000105,
      "v": 75
    },
    {
      "midi": 57,
      "hit": false,
      "t": 158179.9199999999,
      "d": 1193.1675000000105,
      "v": 75
    },
    {
      "midi": 60,
      "hit": false,
      "t": 158179.9199999999,
      "d": 1193.1675000000105,
      "v": 75
    },
    {
      "midi": 64,
      "hit": false,
      "t": 158179.9199999999,
      "d": 1193.1675000000105,
      "v": 75
    },
    {
      "midi": 69,
      "hit": false,
      "t": 158179.9199999999,
      "d": 1193.1675000000105,
      "v": 75
    },
    {
      "midi": 76,
      "hit": false,
      "t": 158179.91999999995,
      "d": 1363.6200000000827,
      "v": 84
    },
    {
      "midi": 84,
      "hit": false,
      "t": 158179.91999999995,
      "d": 1363.6200000000827,
      "v": 84
    },
    {
      "midi": 33,
      "hit": false,
      "t": 158179.92000000094,
      "d": 767.0362500000047,
      "v": 99
    },
    {
      "midi": 57,
      "hit": false,
      "t": 158218.9820312498,
      "d": 1363.6200000000244,
      "v": 63
    },
    {
      "midi": 72,
      "hit": false,
      "t": 158226.08421874978,
      "d": 1360.0689062500314,
      "v": 64
    },
    {
      "midi": 69,
      "hit": false,
      "t": 158279.3506249998,
      "d": 2737.893281250028,
      "v": 52
    },
    {
      "midi": 64,
      "hit": false,
      "t": 158506.62062500004,
      "d": 287.6385937499872,
      "v": 91
    },
    {
      "midi": 60,
      "hit": false,
      "t": 158520.82499999984,
      "d": 763.4851562499825,
      "v": 80
    },
    {
      "midi": 64,
      "hit": false,
      "t": 158861.72999999984,
      "d": 387.06921874999534,
      "v": 91
    },
    {
      "midi": 64,
      "hit": false,
      "t": 158883.03656250003,
      "d": 237.92328124999767,
      "v": 85
    },
    {
      "midi": 67,
      "hit": false,
      "t": 159202.63499999983,
      "d": 379.9670312500093,
      "v": 87
    },
    {
      "midi": 33,
      "hit": false,
      "t": 159202.63500000094,
      "d": 255.67874999999185,
      "v": 75
    },
    {
      "midi": 64,
      "hit": false,
      "t": 159213.28828125002,
      "d": 369.31375000000116,
      "v": 82
    },
    {
      "midi": 50,
      "hit": false,
      "t": 159529.3356249998,
      "d": 1519.8681250000081,
      "v": 57
    },
    {
      "midi": 66,
      "hit": false,
      "t": 159532.88671875003,
      "d": 269.883124999993,
      "v": 93
    },
    {
      "midi": 74,
      "hit": false,
      "t": 159539.9889062498,
      "d": 5209.454531249998,
      "v": 66
    },
    {
      "midi": 62,
      "hit": false,
      "t": 159543.53999999983,
      "d": 475.84656249999534,
      "v": 62
    },
    {
      "midi": 50,
      "hit": false,
      "t": 159543.53999999992,
      "d": 1193.1675000000105,
      "v": 75
    },
    {
      "midi": 57,
      "hit": false,
      "t": 159543.53999999992,
      "d": 1193.1675000000105,
      "v": 75
    },
    {
      "midi": 62,
      "hit": false,
      "t": 159543.53999999992,
      "d": 1193.1675000000105,
      "v": 75
    },
    {
      "midi": 66,
      "hit": false,
      "t": 159543.53999999992,
      "d": 1193.1675000000105,
      "v": 75
    },
    {
      "midi": 78,
      "hit": false,
      "t": 159543.54000000004,
      "d": 1022.7150000001129,
      "v": 84
    },
    {
      "midi": 86,
      "hit": false,
      "t": 159543.54000000004,
      "d": 1022.7150000001129,
      "v": 84
    },
    {
      "midi": 38,
      "hit": false,
      "t": 159543.54000000094,
      "d": 767.0362500000047,
      "v": 91
    },
    {
      "midi": 66,
      "hit": false,
      "t": 159884.44499999983,
      "d": 443.88671875,
      "v": 85
    },
    {
      "midi": 66,
      "hit": false,
      "t": 159909.30265625002,
      "d": 429.68234374999884,
      "v": 89
    },
    {
      "midi": 69,
      "hit": false,
      "t": 160225.34999999983,
      "d": 379.9670312500093,
      "v": 98
    },
    {
      "midi": 64,
      "hit": false,
      "t": 160260.86093750002,
      "d": 326.7006249999977,
      "v": 102
    },
    {
      "midi": 62,
      "hit": false,
      "t": 160562.70390625,
      "d": 379.9670312500093,
      "v": 100
    },
    {
      "midi": 74,
      "hit": false,
      "t": 160566.25499999983,
      "d": 504.2553124999977,
      "v": 98
    },
    {
      "midi": 76,
      "hit": false,
      "t": 160566.25500000015,
      "d": 170.45249999998487,
      "v": 81
    },
    {
      "midi": 84,
      "hit": false,
      "t": 160566.25500000015,
      "d": 340.90499999996973,
      "v": 81
    },
    {
      "midi": 38,
      "hit": false,
      "t": 160566.25500000094,
      "d": 255.67874999999185,
      "v": 93
    },
    {
      "midi": 78,
      "hit": false,
      "t": 160736.70750000014,
      "d": 259.22984374998487,
      "v": 81
    },
    {
      "midi": 67,
      "hit": false,
      "t": 160907.15999999983,
      "d": 458.09109375000116,
      "v": 80
    },
    {
      "midi": 55,
      "hit": false,
      "t": 160907.15999999995,
      "d": 1193.1675000000105,
      "v": 70
    },
    {
      "midi": 59,
      "hit": false,
      "t": 160907.15999999995,
      "d": 1193.1675000000105,
      "v": 70
    },
    {
      "midi": 62,
      "hit": false,
      "t": 160907.15999999995,
      "d": 1193.1675000000105,
      "v": 70
    },
    {
      "midi": 83,
      "hit": false,
      "t": 160907.16000000012,
      "d": 2897.692500000121,
      "v": 93
    },
    {
      "midi": 79,
      "hit": false,
      "t": 160907.16000000012,
      "d": 2972.26546875012,
      "v": 93
    },
    {
      "midi": 31,
      "hit": false,
      "t": 160907.16000000093,
      "d": 767.0362500000047,
      "v": 92
    },
    {
      "midi": 67,
      "hit": false,
      "t": 160910.71109375003,
      "d": 3039.736249999987,
      "v": 110
    },
    {
      "midi": 71,
      "hit": false,
      "t": 160992.3862499998,
      "d": 3767.7104687500105,
      "v": 47
    },
    {
      "midi": 55,
      "hit": false,
      "t": 161027.89718749982,
      "d": 3739.301718749979,
      "v": 54
    },
    {
      "midi": 67,
      "hit": false,
      "t": 161141.5321874998,
      "d": 3554.644843749993,
      "v": 33
    },
    {
      "midi": 71,
      "hit": false,
      "t": 161248.06499999983,
      "d": 472.2954687500023,
      "v": 62
    },
    {
      "midi": 74,
      "hit": false,
      "t": 161588.96999999983,
      "d": 340.90499999999884,
      "v": 70
    },
    {
      "midi": 79,
      "hit": false,
      "t": 161929.87499999983,
      "d": 553.9706249999872,
      "v": 85
    },
    {
      "midi": 31,
      "hit": false,
      "t": 161929.87500000093,
      "d": 255.67874999999185,
      "v": 84
    },
    {
      "midi": 74,
      "hit": false,
      "t": 162270.77999999982,
      "d": 465.1932812499872,
      "v": 82
    },
    {
      "midi": 31,
      "hit": false,
      "t": 162270.78000000093,
      "d": 767.0362500000047,
      "v": 102
    },
    {
      "midi": 71,
      "hit": false,
      "t": 162611.68499999982,
      "d": 372.8648437499942,
      "v": 87
    },
    {
      "midi": 55,
      "hit": false,
      "t": 162611.68499999997,
      "d": 340.90499999999884,
      "v": 60
    },
    {
      "midi": 67,
      "hit": false,
      "t": 162952.58999999982,
      "d": 408.37578125001164,
      "v": 70
    },
    {
      "midi": 59,
      "hit": false,
      "t": 162952.58999999997,
      "d": 340.90499999999884,
      "v": 65
    },
    {
      "midi": 71,
      "hit": false,
      "t": 163293.49499999982,
      "d": 369.31375000000116,
      "v": 76
    },
    {
      "midi": 62,
      "hit": false,
      "t": 163293.49499999997,
      "d": 340.90499999999884,
      "v": 70
    },
    {
      "midi": 31,
      "hit": false,
      "t": 163293.49500000093,
      "d": 255.67874999999185,
      "v": 90
    },
    {
      "midi": 55,
      "hit": false,
      "t": 163634.39999999997,
      "d": 1193.1675000000105,
      "v": 70
    },
    {
      "midi": 59,
      "hit": false,
      "t": 163634.39999999997,
      "d": 1193.1675000000105,
      "v": 70
    },
    {
      "midi": 62,
      "hit": false,
      "t": 163634.39999999997,
      "d": 1193.1675000000105,
      "v": 70
    },
    {
      "midi": 67,
      "hit": false,
      "t": 163634.39999999997,
      "d": 1193.1675000000105,
      "v": 70
    },
    {
      "midi": 43,
      "hit": false,
      "t": 163634.40000000002,
      "d": 2744.995468749985,
      "v": 39
    },
    {
      "midi": 62,
      "hit": false,
      "t": 163634.40000000002,
      "d": 2784.0574999999953,
      "v": 45
    },
    {
      "midi": 55,
      "hit": false,
      "t": 163634.40000000002,
      "d": 10845.040312500001,
      "v": 31
    },
    {
      "midi": 59,
      "hit": false,
      "t": 163634.40000000002,
      "d": 11111.372343750001,
      "v": 52
    },
    {
      "midi": 31,
      "hit": false,
      "t": 163634.40000000093,
      "d": 767.0362500000047,
      "v": 104
    },
    {
      "midi": 62,
      "hit": false,
      "t": 163975.30499999982,
      "d": 486.4998437500035,
      "v": 64
    },
    {
      "midi": 62,
      "hit": false,
      "t": 163996.6115625,
      "d": 454.54000000000815,
      "v": 87
    },
    {
      "midi": 67,
      "hit": false,
      "t": 164316.20999999982,
      "d": 458.09109375000116,
      "v": 87
    },
    {
      "midi": 62,
      "hit": false,
      "t": 164529.275625,
      "d": 152.6970312499907,
      "v": 70
    },
    {
      "midi": 71,
      "hit": false,
      "t": 164657.11499999982,
      "d": 358.660468749993,
      "v": 87
    },
    {
      "midi": 31,
      "hit": false,
      "t": 164657.11500000092,
      "d": 255.67874999999185,
      "v": 86
    },
    {
      "midi": 62,
      "hit": false,
      "t": 164756.545625,
      "d": 131.3904687500035,
      "v": 72
    },
    {
      "midi": 62,
      "hit": false,
      "t": 164983.815625,
      "d": 301.84296874998836,
      "v": 98
    },
    {
      "midi": 74,
      "hit": false,
      "t": 164998.01999999981,
      "d": 767.0362500000047,
      "v": 89
    },
    {
      "midi": 31,
      "hit": false,
      "t": 164998.02000000092,
      "d": 767.0362500000047,
      "v": 103
    },
    {
      "midi": 71,
      "hit": false,
      "t": 165338.9249999998,
      "d": 383.5181250000023,
      "v": 64
    },
    {
      "midi": 55,
      "hit": false,
      "t": 165338.925,
      "d": 340.90499999999884,
      "v": 60
    },
    {
      "midi": 62,
      "hit": false,
      "t": 165356.68046874998,
      "d": 202.4123437500093,
      "v": 76
    },
    {
      "midi": 62,
      "hit": false,
      "t": 165662.07453125,
      "d": 287.6385937499872,
      "v": 87
    },
    {
      "midi": 67,
      "hit": false,
      "t": 165679.8299999998,
      "d": 419.0290624999907,
      "v": 82
    },
    {
      "midi": 59,
      "hit": false,
      "t": 165679.83,
      "d": 340.90499999999884,
      "v": 65
    },
    {
      "midi": 71,
      "hit": false,
      "t": 166020.7349999998,
      "d": 454.54000000000815,
      "v": 87
    },
    {
      "midi": 62,
      "hit": false,
      "t": 166020.735,
      "d": 340.90499999999884,
      "v": 70
    },
    {
      "midi": 31,
      "hit": false,
      "t": 166020.73500000092,
      "d": 255.67874999999185,
      "v": 94
    },
    {
      "midi": 62,
      "hit": false,
      "t": 166027.83718749997,
      "d": 379.9670312500093,
      "v": 87
    },
    {
      "midi": 64,
      "hit": false,
      "t": 166361.6399999998,
      "d": 660.5034375000105,
      "v": 50
    },
    {
      "midi": 52,
      "hit": false,
      "t": 166361.63999999998,
      "d": 1193.1675000000105,
      "v": 70
    },
    {
      "midi": 55,
      "hit": false,
      "t": 166361.63999999998,
      "d": 1193.1675000000105,
      "v": 70
    },
    {
      "midi": 59,
      "hit": false,
      "t": 166361.63999999998,
      "d": 1193.1675000000105,
      "v": 70
    },
    {
      "midi": 64,
      "hit": false,
      "t": 166361.63999999998,
      "d": 1193.1675000000105,
      "v": 70
    },
    {
      "midi": 67,
      "hit": false,
      "t": 166361.63999999998,
      "d": 1193.1675000000105,
      "v": 70
    },
    {
      "midi": 64,
      "hit": false,
      "t": 166361.64,
      "d": 2808.9151562500047,
      "v": 56
    },
    {
      "midi": 40,
      "hit": false,
      "t": 166361.64,
      "d": 2840.875,
      "v": 60
    },
    {
      "midi": 40,
      "hit": false,
      "t": 166361.64000000092,
      "d": 767.0362500000047,
      "v": 103
    },
    {
      "midi": 64,
      "hit": false,
      "t": 166379.39546874998,
      "d": 411.92687500000466,
      "v": 93
    },
    {
      "midi": 67,
      "hit": false,
      "t": 166702.5449999998,
      "d": 706.667656250007,
      "v": 91
    },
    {
      "midi": 64,
      "hit": false,
      "t": 166851.69093749998,
      "d": 401.2735937499965,
      "v": 87
    },
    {
      "midi": 71,
      "hit": false,
      "t": 167043.4499999998,
      "d": 376.4159375000163,
      "v": 82
    },
    {
      "midi": 64,
      "hit": false,
      "t": 167359.49734374997,
      "d": 113.63500000000931,
      "v": 89
    },
    {
      "midi": 76,
      "hit": false,
      "t": 167384.3549999998,
      "d": 852.2625000000407,
      "v": 60
    },
    {
      "midi": 40,
      "hit": false,
      "t": 167384.3550000009,
      "d": 255.67874999999185,
      "v": 87
    },
    {
      "midi": 64,
      "hit": false,
      "t": 167569.01187499997,
      "d": 117.18609375000233,
      "v": 89
    },
    {
      "midi": 71,
      "hit": false,
      "t": 167725.25999999983,
      "d": 777.6895312500419,
      "v": 80
    },
    {
      "midi": 40,
      "hit": false,
      "t": 167725.2600000009,
      "d": 767.0362500000047,
      "v": 87
    },
    {
      "midi": 64,
      "hit": false,
      "t": 167757.21984374998,
      "d": 188.20796875000815,
      "v": 85
    },
    {
      "midi": 64,
      "hit": false,
      "t": 168041.30734374997,
      "d": 390.62031249998836,
      "v": 85
    },
    {
      "midi": 67,
      "hit": false,
      "t": 168066.16499999983,
      "d": 369.31375000003027,
      "v": 82
    },
    {
      "midi": 52,
      "hit": false,
      "t": 168066.165,
      "d": 340.90499999999884,
      "v": 70
    },
    {
      "midi": 64,
      "hit": false,
      "t": 168407.06999999986,
      "d": 443.8867187500291,
      "v": 66
    },
    {
      "midi": 52,
      "hit": false,
      "t": 168407.07,
      "d": 681.8099999999977,
      "v": 75
    },
    {
      "midi": 55,
      "hit": false,
      "t": 168407.07,
      "d": 681.8099999999977,
      "v": 75
    },
    {
      "midi": 59,
      "hit": false,
      "t": 168407.07,
      "d": 681.8099999999977,
      "v": 75
    },
    {
      "midi": 64,
      "hit": false,
      "t": 168407.07,
      "d": 681.8099999999977,
      "v": 75
    },
    {
      "midi": 67,
      "hit": false,
      "t": 168407.07,
      "d": 681.8099999999977,
      "v": 75
    },
    {
      "midi": 67,
      "hit": false,
      "t": 168428.37656249997,
      "d": 394.1714062499814,
      "v": 82
    },
    {
      "midi": 69,
      "hit": false,
      "t": 168435.47874999995,
      "d": 163.35031249999884,
      "v": 82
    },
    {
      "midi": 67,
      "hit": false,
      "t": 168747.9749999999,
      "d": 323.14953125000466,
      "v": 89
    },
    {
      "midi": 40,
      "hit": false,
      "t": 168747.9750000009,
      "d": 255.67874999999185,
      "v": 78
    },
    {
      "midi": 64,
      "hit": false,
      "t": 168762.17937499995,
      "d": 365.76265625000815,
      "v": 102
    },
    {
      "midi": 59,
      "hit": false,
      "t": 169088.8799999999,
      "d": 404.8246874999895,
      "v": 89
    },
    {
      "midi": 55,
      "hit": false,
      "t": 169088.88,
      "d": 1193.1675000000105,
      "v": 70
    },
    {
      "midi": 59,
      "hit": false,
      "t": 169088.88,
      "d": 1193.1675000000105,
      "v": 70
    },
    {
      "midi": 62,
      "hit": false,
      "t": 169088.88,
      "d": 1193.1675000000105,
      "v": 70
    },
    {
      "midi": 67,
      "hit": false,
      "t": 169088.88,
      "d": 1193.1675000000105,
      "v": 70
    },
    {
      "midi": 62,
      "hit": false,
      "t": 169088.88,
      "d": 2720.1378125000338,
      "v": 62
    },
    {
      "midi": 43,
      "hit": false,
      "t": 169088.88,
      "d": 2773.4042187500163,
      "v": 64
    },
    {
      "midi": 31,
      "hit": false,
      "t": 169088.8800000009,
      "d": 767.0362500000047,
      "v": 92
    },
    {
      "midi": 62,
      "hit": false,
      "t": 169099.53328124995,
      "d": 394.1714062500105,
      "v": 102
    },
    {
      "midi": 62,
      "hit": false,
      "t": 169429.7849999999,
      "d": 607.2370312499988,
      "v": 76
    },
    {
      "midi": 62,
      "hit": false,
      "t": 169582.48203124997,
      "d": 390.62031249998836,
      "v": 95
    },
    {
      "midi": 67,
      "hit": false,
      "t": 169770.6899999999,
      "d": 355.109375,
      "v": 87
    },
    {
      "midi": 62,
      "hit": false,
      "t": 170065.43078124995,
      "d": 131.3904687500035,
      "v": 85
    },
    {
      "midi": 71,
      "hit": false,
      "t": 170111.59499999988,
      "d": 436.78453124998487,
      "v": 80
    },
    {
      "midi": 31,
      "hit": false,
      "t": 170111.5950000009,
      "d": 255.67874999999185,
      "v": 89
    },
    {
      "midi": 62,
      "hit": false,
      "t": 170271.39421874995,
      "d": 127.83937500001048,
      "v": 76
    },
    {
      "midi": 74,
      "hit": false,
      "t": 170452.49999999988,
      "d": 717.320937499986,
      "v": 87
    },
    {
      "midi": 31,
      "hit": false,
      "t": 170452.5000000009,
      "d": 767.0362500000047,
      "v": 102
    },
    {
      "midi": 62,
      "hit": false,
      "t": 170470.25546874997,
      "d": 294.7407812500023,
      "v": 89
    },
    {
      "midi": 71,
      "hit": false,
      "t": 170793.40499999988,
      "d": 419.0290624999907,
      "v": 74
    },
    {
      "midi": 55,
      "hit": false,
      "t": 170793.40500000003,
      "d": 340.90499999999884,
      "v": 70
    },
    {
      "midi": 62,
      "hit": false,
      "t": 170832.46703124998,
      "d": 174.00359375000698,
      "v": 82
    },
    {
      "midi": 62,
      "hit": false,
      "t": 171123.65671875,
      "d": 344.45609374999185,
      "v": 85
    },
    {
      "midi": 67,
      "hit": false,
      "t": 171134.30999999988,
      "d": 358.660468749993,
      "v": 89
    },
    {
      "midi": 55,
      "hit": false,
      "t": 171134.31000000003,
      "d": 681.8099999999977,
      "v": 75
    },
    {
      "midi": 59,
      "hit": false,
      "t": 171134.31000000003,
      "d": 681.8099999999977,
      "v": 75
    },
    {
      "midi": 62,
      "hit": false,
      "t": 171134.31000000003,
      "d": 681.8099999999977,
      "v": 75
    },
    {
      "midi": 67,
      "hit": false,
      "t": 171134.31000000003,
      "d": 795.445000000007,
      "v": 63
    },
    {
      "midi": 64,
      "hit": false,
      "t": 171436.15296875,
      "d": 284.0874999999942,
      "v": 98
    },
    {
      "midi": 71,
      "hit": false,
      "t": 171475.21499999988,
      "d": 365.76265625000815,
      "v": 60
    },
    {
      "midi": 31,
      "hit": false,
      "t": 171475.2150000009,
      "d": 255.67874999999185,
      "v": 90
    },
    {
      "midi": 64,
      "hit": false,
      "t": 171816.11999999988,
      "d": 461.6421874999942,
      "v": 82
    },
    {
      "midi": 55,
      "hit": false,
      "t": 171816.12000000002,
      "d": 1193.1675000000105,
      "v": 70
    },
    {
      "midi": 59,
      "hit": false,
      "t": 171816.12000000002,
      "d": 1193.1675000000105,
      "v": 70
    },
    {
      "midi": 64,
      "hit": false,
      "t": 171816.12000000002,
      "d": 1193.1675000000105,
      "v": 70
    },
    {
      "midi": 67,
      "hit": false,
      "t": 171816.12000000002,
      "d": 1193.1675000000105,
      "v": 70
    },
    {
      "midi": 52,
      "hit": false,
      "t": 171816.12000000002,
      "d": 2769.853124999994,
      "v": 66
    },
    {
      "midi": 64,
      "hit": false,
      "t": 171816.12000000002,
      "d": 5589.421562500007,
      "v": 38
    },
    {
      "midi": 40,
      "hit": false,
      "t": 171816.1200000009,
      "d": 767.0362500000047,
      "v": 90
    },
    {
      "midi": 64,
      "hit": false,
      "t": 171823.22218749998,
      "d": 2819.568437500013,
      "v": 105
    },
    {
      "midi": 67,
      "hit": false,
      "t": 172157.02499999988,
      "d": 415.4779687499977,
      "v": 80
    },
    {
      "midi": 71,
      "hit": false,
      "t": 172497.92999999988,
      "d": 340.90499999999884,
      "v": 85
    },
    {
      "midi": 76,
      "hit": false,
      "t": 172838.83499999988,
      "d": 727.9742187499942,
      "v": 85
    },
    {
      "midi": 40,
      "hit": false,
      "t": 172838.8350000009,
      "d": 255.67874999999185,
      "v": 85
    },
    {
      "midi": 40,
      "hit": false,
      "t": 173009.28750000003,
      "d": 1502.1126562499849,
      "v": 66
    },
    {
      "midi": 71,
      "hit": false,
      "t": 173179.73999999987,
      "d": 632.0946875000081,
      "v": 82
    },
    {
      "midi": 40,
      "hit": false,
      "t": 173179.7400000009,
      "d": 767.0362500000047,
      "v": 99
    },
    {
      "midi": 67,
      "hit": false,
      "t": 173520.64499999987,
      "d": 355.109375,
      "v": 82
    },
    {
      "midi": 52,
      "hit": false,
      "t": 173520.64500000005,
      "d": 340.90499999999884,
      "v": 70
    },
    {
      "midi": 64,
      "hit": false,
      "t": 173861.54999999987,
      "d": 429.68234374999884,
      "v": 82
    },
    {
      "midi": 52,
      "hit": false,
      "t": 173861.55000000005,
      "d": 681.8099999999977,
      "v": 75
    },
    {
      "midi": 55,
      "hit": false,
      "t": 173861.55000000005,
      "d": 681.8099999999977,
      "v": 75
    },
    {
      "midi": 59,
      "hit": false,
      "t": 173861.55000000005,
      "d": 681.8099999999977,
      "v": 75
    },
    {
      "midi": 64,
      "hit": false,
      "t": 173861.55000000005,
      "d": 681.8099999999977,
      "v": 75
    },
    {
      "midi": 67,
      "hit": false,
      "t": 174202.45499999987,
      "d": 294.7407812500023,
      "v": 87
    },
    {
      "midi": 40,
      "hit": false,
      "t": 174202.4550000009,
      "d": 255.67874999999185,
      "v": 93
    },
    {
      "midi": 57,
      "hit": false,
      "t": 174543.35999999987,
      "d": 422.5801562500128,
      "v": 87
    },
    {
      "midi": 55,
      "hit": false,
      "t": 174543.36000000002,
      "d": 2727.24000000002,
      "v": 51
    },
    {
      "midi": 48,
      "hit": false,
      "t": 174543.36000000002,
      "d": 2812.466250000027,
      "v": 54
    },
    {
      "midi": 60,
      "hit": false,
      "t": 174543.36000000002,
      "d": 2876.3859375000175,
      "v": 57
    },
    {
      "midi": 45,
      "hit": false,
      "t": 174543.36000000004,
      "d": 1193.1675000000105,
      "v": 70
    },
    {
      "midi": 57,
      "hit": false,
      "t": 174543.36000000004,
      "d": 1193.1675000000105,
      "v": 70
    },
    {
      "midi": 60,
      "hit": false,
      "t": 174543.36000000004,
      "d": 1193.1675000000105,
      "v": 70
    },
    {
      "midi": 64,
      "hit": false,
      "t": 174543.36000000004,
      "d": 1193.1675000000105,
      "v": 70
    },
    {
      "midi": 69,
      "hit": false,
      "t": 174543.36000000004,
      "d": 1193.1675000000105,
      "v": 70
    },
    {
      "midi": 33,
      "hit": false,
      "t": 174543.3600000009,
      "d": 767.0362500000047,
      "v": 88
    },
    {
      "midi": 60,
      "hit": false,
      "t": 174884.26499999987,
      "d": 546.8684375000303,
      "v": 70
    },
    {
      "midi": 60,
      "hit": false,
      "t": 174898.469375,
      "d": 287.6385937499872,
      "v": 87
    },
    {
      "midi": 64,
      "hit": false,
      "t": 175225.1699999999,
      "d": 397.7225000000035,
      "v": 85
    },
    {
      "midi": 60,
      "hit": false,
      "t": 175271.33421874998,
      "d": 209.51453124999534,
      "v": 87
    },
    {
      "midi": 69,
      "hit": false,
      "t": 175566.0749999999,
      "d": 394.1714062500105,
      "v": 80
    },
    {
      "midi": 33,
      "hit": false,
      "t": 175566.07500000088,
      "d": 255.67874999999185,
      "v": 91
    },
    {
      "midi": 60,
      "hit": false,
      "t": 175569.62609374998,
      "d": 205.96343750000233,
      "v": 87
    },
    {
      "midi": 60,
      "hit": false,
      "t": 175889.22453125,
      "d": 266.33203125,
      "v": 93
    },
    {
      "midi": 72,
      "hit": false,
      "t": 175906.9799999999,
      "d": 834.5070312499884,
      "v": 85
    },
    {
      "midi": 33,
      "hit": false,
      "t": 175906.98000000088,
      "d": 767.0362500000047,
      "v": 87
    },
    {
      "midi": 69,
      "hit": false,
      "t": 176247.8849999999,
      "d": 688.9121874999837,
      "v": 72
    },
    {
      "midi": 57,
      "hit": false,
      "t": 176247.88500000007,
      "d": 340.90499999999884,
      "v": 60
    },
    {
      "midi": 60,
      "hit": false,
      "t": 176269.1915625,
      "d": 419.0290624999907,
      "v": 102
    },
    {
      "midi": 64,
      "hit": false,
      "t": 176588.7899999999,
      "d": 401.2735937499965,
      "v": 85
    },
    {
      "midi": 60,
      "hit": false,
      "t": 176588.79000000007,
      "d": 340.90499999999884,
      "v": 65
    },
    {
      "midi": 60,
      "hit": false,
      "t": 176791.20234375,
      "d": 117.18609375000233,
      "v": 87
    },
    {
      "midi": 60,
      "hit": false,
      "t": 176929.6949999999,
      "d": 255.67874999999185,
      "v": 80
    },
    {
      "midi": 64,
      "hit": false,
      "t": 176929.69500000007,
      "d": 340.90499999999884,
      "v": 70
    },
    {
      "midi": 33,
      "hit": false,
      "t": 176929.69500000088,
      "d": 255.67874999999185,
      "v": 80
    },
    {
      "midi": 60,
      "hit": false,
      "t": 177004.26796874998,
      "d": 330.2517187499907,
      "v": 98
    },
    {
      "midi": 62,
      "hit": false,
      "t": 177270.5999999999,
      "d": 419.0290624999907,
      "v": 95
    },
    {
      "midi": 38,
      "hit": false,
      "t": 177270.60000000003,
      "d": 2684.626874999987,
      "v": 53
    },
    {
      "midi": 57,
      "hit": false,
      "t": 177270.60000000003,
      "d": 5284.0274999999965,
      "v": 32
    },
    {
      "midi": 66,
      "hit": false,
      "t": 177270.60000000003,
      "d": 5568.114999999991,
      "v": 41
    },
    {
      "midi": 62,
      "hit": false,
      "t": 177270.60000000003,
      "d": 10894.75562499999,
      "v": 64
    },
    {
      "midi": 57,
      "hit": false,
      "t": 177270.60000000006,
      "d": 1193.1675000000105,
      "v": 70
    },
    {
      "midi": 62,
      "hit": false,
      "t": 177270.60000000006,
      "d": 1193.1675000000105,
      "v": 70
    },
    {
      "midi": 66,
      "hit": false,
      "t": 177270.60000000006,
      "d": 1193.1675000000105,
      "v": 70
    },
    {
      "midi": 69,
      "hit": false,
      "t": 177270.60000000006,
      "d": 1193.1675000000105,
      "v": 70
    },
    {
      "midi": 38,
      "hit": false,
      "t": 177270.60000000088,
      "d": 767.0362500000047,
      "v": 89
    },
    {
      "midi": 62,
      "hit": false,
      "t": 177288.35546874997,
      "d": 245.0254687499837,
      "v": 100
    },
    {
      "midi": 66,
      "hit": false,
      "t": 177611.5049999999,
      "d": 379.9670312500093,
      "v": 82
    },
    {
      "midi": 62,
      "hit": false,
      "t": 177661.22031249997,
      "d": 436.78453125001397,
      "v": 80
    },
    {
      "midi": 69,
      "hit": false,
      "t": 177952.4099999999,
      "d": 319.59843750001164,
      "v": 74
    },
    {
      "midi": 62,
      "hit": false,
      "t": 178200.98656249998,
      "d": 131.3904687500035,
      "v": 82
    },
    {
      "midi": 74,
      "hit": false,
      "t": 178293.3149999999,
      "d": 497.15312500001164,
      "v": 85
    },
    {
      "midi": 38,
      "hit": false,
      "t": 178293.31500000088,
      "d": 255.67874999999185,
      "v": 86
    },
    {
      "midi": 62,
      "hit": false,
      "t": 178421.15437499998,
      "d": 138.49265624998952,
      "v": 95
    },
    {
      "midi": 62,
      "hit": false,
      "t": 178627.1178125,
      "d": 525.5618749999849,
      "v": 91
    },
    {
      "midi": 69,
      "hit": false,
      "t": 178634.21999999988,
      "d": 461.6421874999942,
      "v": 82
    },
    {
      "midi": 60,
      "hit": false,
      "t": 178634.21999999997,
      "d": 49.71531249998952,
      "v": 68
    },
    {
      "midi": 38,
      "hit": false,
      "t": 178634.22000000087,
      "d": 767.0362500000047,
      "v": 99
    },
    {
      "midi": 66,
      "hit": false,
      "t": 178975.12499999988,
      "d": 401.2735937499965,
      "v": 82
    },
    {
      "midi": 57,
      "hit": false,
      "t": 178975.1250000001,
      "d": 340.90499999999884,
      "v": 60
    },
    {
      "midi": 62,
      "hit": false,
      "t": 179316.02999999988,
      "d": 419.0290624999907,
      "v": 78
    },
    {
      "midi": 62,
      "hit": false,
      "t": 179316.02999999997,
      "d": 184.65687499998603,
      "v": 100
    },
    {
      "midi": 62,
      "hit": false,
      "t": 179316.0300000001,
      "d": 340.90499999999884,
      "v": 65
    },
    {
      "midi": 62,
      "hit": false,
      "t": 179617.87296874996,
      "d": 401.2735937499965,
      "v": 85
    },
    {
      "midi": 66,
      "hit": false,
      "t": 179656.93499999988,
      "d": 397.7225000000035,
      "v": 85
    },
    {
      "midi": 66,
      "hit": false,
      "t": 179656.93500000008,
      "d": 340.90499999999884,
      "v": 70
    },
    {
      "midi": 38,
      "hit": false,
      "t": 179656.93500000087,
      "d": 255.67874999999185,
      "v": 91
    },
    {
      "midi": 66,
      "hit": false,
      "t": 179994.28890624995,
      "d": 454.54000000000815,
      "v": 105
    },
    {
      "midi": 62,
      "hit": false,
      "t": 179997.83999999988,
      "d": 479.39765624998836,
      "v": 91
    },
    {
      "midi": 50,
      "hit": false,
      "t": 179997.84000000003,
      "d": 2847.977187499986,
      "v": 57
    },
    {
      "midi": 69,
      "hit": false,
      "t": 179997.84000000003,
      "d": 2904.7946874999907,
      "v": 53
    },
    {
      "midi": 57,
      "hit": false,
      "t": 179997.84000000008,
      "d": 1193.1675000000105,
      "v": 70
    },
    {
      "midi": 62,
      "hit": false,
      "t": 179997.84000000008,
      "d": 1193.1675000000105,
      "v": 70
    },
    {
      "midi": 66,
      "hit": false,
      "t": 179997.84000000008,
      "d": 1193.1675000000105,
      "v": 70
    },
    {
      "midi": 69,
      "hit": false,
      "t": 179997.84000000008,
      "d": 1193.1675000000105,
      "v": 70
    },
    {
      "midi": 38,
      "hit": false,
      "t": 179997.84000000087,
      "d": 767.0362500000047,
      "v": 83
    },
    {
      "midi": 66,
      "hit": false,
      "t": 180338.74499999988,
      "d": 720.8720312500081,
      "v": 89
    },
    {
      "midi": 62,
      "hit": false,
      "t": 180438.17562499995,
      "d": 617.890312500007,
      "v": 102
    },
    {
      "midi": 69,
      "hit": false,
      "t": 180679.64999999988,
      "d": 340.90499999999884,
      "v": 87
    },
    {
      "midi": 74,
      "hit": false,
      "t": 181020.55499999988,
      "d": 561.0728125000023,
      "v": 85
    },
    {
      "midi": 38,
      "hit": false,
      "t": 181020.55500000087,
      "d": 255.67874999999185,
      "v": 75
    },
    {
      "midi": 62,
      "hit": false,
      "t": 181141.29218749996,
      "d": 127.83937500001048,
      "v": 100
    },
    {
      "midi": 62,
      "hit": false,
      "t": 181357.90890624997,
      "d": 372.8648437499942,
      "v": 98
    },
    {
      "midi": 69,
      "hit": false,
      "t": 181361.45999999988,
      "d": 472.2954687500023,
      "v": 82
    },
    {
      "midi": 38,
      "hit": false,
      "t": 181361.46000000002,
      "d": 1413.335312500014,
      "v": 57
    },
    {
      "midi": 38,
      "hit": false,
      "t": 181361.46000000086,
      "d": 767.0362500000047,
      "v": 96
    },
    {
      "midi": 66,
      "hit": false,
      "t": 181702.36499999987,
      "d": 379.9670312500093,
      "v": 85
    },
    {
      "midi": 50,
      "hit": false,
      "t": 181702.3650000001,
      "d": 340.90499999999884,
      "v": 70
    },
    {
      "midi": 57,
      "hit": false,
      "t": 181734.32484374996,
      "d": 429.68234374999884,
      "v": 102
    },
    {
      "midi": 62,
      "hit": false,
      "t": 182043.26999999987,
      "d": 415.4779687499977,
      "v": 76
    },
    {
      "midi": 57,
      "hit": false,
      "t": 182043.2700000001,
      "d": 681.8099999999977,
      "v": 75
    },
    {
      "midi": 62,
      "hit": false,
      "t": 182043.2700000001,
      "d": 681.8099999999977,
      "v": 75
    },
    {
      "midi": 66,
      "hit": false,
      "t": 182043.2700000001,
      "d": 681.8099999999977,
      "v": 75
    },
    {
      "midi": 69,
      "hit": false,
      "t": 182043.2700000001,
      "d": 681.8099999999977,
      "v": 75
    },
    {
      "midi": 57,
      "hit": false,
      "t": 182259.88671874994,
      "d": 241.4743749999907,
      "v": 89
    },
    {
      "midi": 66,
      "hit": false,
      "t": 182384.17499999987,
      "d": 305.3940625000105,
      "v": 95
    },
    {
      "midi": 38,
      "hit": false,
      "t": 182384.17500000086,
      "d": 255.67874999999185,
      "v": 76
    },
    {
      "midi": 59,
      "hit": false,
      "t": 182483.60562499994,
      "d": 142.04374999998254,
      "v": 100
    },
    {
      "midi": 59,
      "hit": false,
      "t": 182721.5289062499,
      "d": 3128.513593749987,
      "v": 95
    },
    {
      "midi": 55,
      "hit": false,
      "t": 182725.07999999987,
      "d": 443.88671875,
      "v": 93
    },
    {
      "midi": 67,
      "hit": false,
      "t": 182725.08000000005,
      "d": 4815.283124999987,
      "v": 27
    },
    {
      "midi": 43,
      "hit": false,
      "t": 182725.08000000005,
      "d": 5600.074843749986,
      "v": 51
    },
    {
      "midi": 59,
      "hit": false,
      "t": 182725.08000000005,
      "d": 8210.128749999974,
      "v": 54
    },
    {
      "midi": 55,
      "hit": false,
      "t": 182725.0800000001,
      "d": 1193.1675000000105,
      "v": 70
    },
    {
      "midi": 59,
      "hit": false,
      "t": 182725.0800000001,
      "d": 1193.1675000000105,
      "v": 70
    },
    {
      "midi": 62,
      "hit": false,
      "t": 182725.0800000001,
      "d": 1193.1675000000105,
      "v": 70
    },
    {
      "midi": 31,
      "hit": false,
      "t": 182725.08000000086,
      "d": 767.0362500000047,
      "v": 102
    },
    {
      "midi": 59,
      "hit": false,
      "t": 183065.98499999987,
      "d": 440.335625000007,
      "v": 78
    },
    {
      "midi": 62,
      "hit": false,
      "t": 183406.88999999987,
      "d": 422.5801562500128,
      "v": 95
    },
    {
      "midi": 67,
      "hit": false,
      "t": 183747.79499999987,
      "d": 326.7006250000268,
      "v": 59
    },
    {
      "midi": 31,
      "hit": false,
      "t": 183747.79500000086,
      "d": 255.67874999999185,
      "v": 88
    },
    {
      "midi": 71,
      "hit": false,
      "t": 184088.6999999999,
      "d": 1051.1237499999988,
      "v": 70
    },
    {
      "midi": 31,
      "hit": false,
      "t": 184088.70000000086,
      "d": 767.0362500000047,
      "v": 100
    },
    {
      "midi": 67,
      "hit": false,
      "t": 184429.6049999999,
      "d": 877.120156250021,
      "v": 80
    },
    {
      "midi": 62,
      "hit": false,
      "t": 184770.5099999999,
      "d": 422.5801562500128,
      "v": 95
    },
    {
      "midi": 59,
      "hit": false,
      "t": 185111.4149999999,
      "d": 362.21156250001513,
      "v": 80
    },
    {
      "midi": 31,
      "hit": false,
      "t": 185111.41500000085,
      "d": 255.67874999999185,
      "v": 82
    },
    {
      "midi": 55,
      "hit": false,
      "t": 185452.31999999992,
      "d": 603.6859375000058,
      "v": 85
    },
    {
      "midi": 55,
      "hit": false,
      "t": 185452.32000000012,
      "d": 1193.1675000000105,
      "v": 70
    },
    {
      "midi": 59,
      "hit": false,
      "t": 185452.32000000012,
      "d": 1193.1675000000105,
      "v": 70
    },
    {
      "midi": 62,
      "hit": false,
      "t": 185452.32000000012,
      "d": 1193.1675000000105,
      "v": 70
    },
    {
      "midi": 67,
      "hit": false,
      "t": 185452.32000000024,
      "d": 2084.4920312500617,
      "v": 93
    },
    {
      "midi": 31,
      "hit": false,
      "t": 185452.32000000085,
      "d": 767.0362500000047,
      "v": 84
    },
    {
      "midi": 59,
      "hit": false,
      "t": 185793.22499999992,
      "d": 1072.430312499986,
      "v": 82
    },
    {
      "midi": 67,
      "hit": false,
      "t": 185800.3271874999,
      "d": 262.7809374999779,
      "v": 107
    },
    {
      "midi": 67,
      "hit": false,
      "t": 186134.1299999999,
      "d": 191.75906250000116,
      "v": 85
    },
    {
      "midi": 62,
      "hit": false,
      "t": 186134.12999999992,
      "d": 479.39765624998836,
      "v": 91
    },
    {
      "midi": 67,
      "hit": false,
      "t": 186443.0751562499,
      "d": 184.65687499998603,
      "v": 91
    },
    {
      "midi": 67,
      "hit": false,
      "t": 186475.03499999992,
      "d": 394.1714062499814,
      "v": 78
    },
    {
      "midi": 31,
      "hit": false,
      "t": 186475.03500000085,
      "d": 255.67874999999185,
      "v": 80
    },
    {
      "midi": 67,
      "hit": false,
      "t": 186769.7757812499,
      "d": 209.51453124999534,
      "v": 89
    },
    {
      "midi": 71,
      "hit": false,
      "t": 186815.93999999992,
      "d": 756.3829687499674,
      "v": 82
    },
    {
      "midi": 31,
      "hit": false,
      "t": 186815.94000000085,
      "d": 767.0362500000047,
      "v": 98
    },
    {
      "midi": 67,
      "hit": false,
      "t": 187114.23187499988,
      "d": 358.6604687500221,
      "v": 93
    },
    {
      "midi": 67,
      "hit": false,
      "t": 187156.84499999988,
      "d": 426.1312500000058,
      "v": 80
    },
    {
      "midi": 55,
      "hit": false,
      "t": 187156.84500000015,
      "d": 340.90499999999884,
      "v": 70
    },
    {
      "midi": 69,
      "hit": false,
      "t": 187433.8303124999,
      "d": 205.96343750000233,
      "v": 89
    },
    {
      "midi": 62,
      "hit": false,
      "t": 187497.74999999988,
      "d": 387.06921874999534,
      "v": 87
    },
    {
      "midi": 66,
      "hit": false,
      "t": 187497.75000000003,
      "d": 919.7332812499953,
      "v": 59
    },
    {
      "midi": 55,
      "hit": false,
      "t": 187497.75000000015,
      "d": 681.8099999999977,
      "v": 75
    },
    {
      "midi": 59,
      "hit": false,
      "t": 187497.75000000015,
      "d": 681.8099999999977,
      "v": 75
    },
    {
      "midi": 62,
      "hit": false,
      "t": 187497.75000000015,
      "d": 681.8099999999977,
      "v": 75
    },
    {
      "midi": 66,
      "hit": false,
      "t": 187497.75000000032,
      "d": 681.8099999999977,
      "v": 93
    },
    {
      "midi": 69,
      "hit": false,
      "t": 187813.7973437499,
      "d": 419.0290624999907,
      "v": 107
    },
    {
      "midi": 67,
      "hit": false,
      "t": 187838.65499999988,
      "d": 369.31375000000116,
      "v": 85
    },
    {
      "midi": 31,
      "hit": false,
      "t": 187838.65500000084,
      "d": 255.67874999999185,
      "v": 93
    },
    {
      "midi": 59,
      "hit": false,
      "t": 188179.55999999988,
      "d": 529.112968750007,
      "v": 89
    },
    {
      "midi": 64,
      "hit": false,
      "t": 188179.56000000003,
      "d": 5337.293906249979,
      "v": 60
    },
    {
      "midi": 40,
      "hit": false,
      "t": 188179.56000000003,
      "d": 5546.808437499974,
      "v": 58
    },
    {
      "midi": 67,
      "hit": false,
      "t": 188179.56000000003,
      "d": 5550.359531249967,
      "v": 53
    },
    {
      "midi": 55,
      "hit": false,
      "t": 188179.56000000014,
      "d": 1193.1675000000105,
      "v": 70
    },
    {
      "midi": 59,
      "hit": false,
      "t": 188179.56000000014,
      "d": 1193.1675000000105,
      "v": 70
    },
    {
      "midi": 64,
      "hit": false,
      "t": 188179.56000000014,
      "d": 1193.1675000000105,
      "v": 70
    },
    {
      "midi": 67,
      "hit": false,
      "t": 188179.56000000014,
      "d": 1193.1675000000105,
      "v": 70
    },
    {
      "midi": 67,
      "hit": false,
      "t": 188179.56000000032,
      "d": 2098.6964062499756,
      "v": 95
    },
    {
      "midi": 40,
      "hit": false,
      "t": 188179.56000000084,
      "d": 767.0362500000047,
      "v": 100
    },
    {
      "midi": 71,
      "hit": false,
      "t": 188186.6621874999,
      "d": 355.109375,
      "v": 100
    },
    {
      "midi": 64,
      "hit": false,
      "t": 188520.46499999988,
      "d": 1178.9631249999802,
      "v": 66
    },
    {
      "midi": 71,
      "hit": false,
      "t": 188651.85546874988,
      "d": 326.7006249999977,
      "v": 102
    },
    {
      "midi": 67,
      "hit": false,
      "t": 188861.36999999988,
      "d": 397.7225000000035,
      "v": 76
    },
    {
      "midi": 71,
      "hit": false,
      "t": 189102.84437499987,
      "d": 110.0839062499872,
      "v": 98
    },
    {
      "midi": 71,
      "hit": false,
      "t": 189202.27499999988,
      "d": 344.45609374999185,
      "v": 87
    },
    {
      "midi": 40,
      "hit": false,
      "t": 189202.27500000084,
      "d": 255.67874999999185,
      "v": 93
    },
    {
      "midi": 71,
      "hit": false,
      "t": 189308.80781249984,
      "d": 131.3904687500035,
      "v": 93
    },
    {
      "midi": 71,
      "hit": false,
      "t": 189521.87343749986,
      "d": 216.61671875001048,
      "v": 100
    },
    {
      "midi": 76,
      "hit": false,
      "t": 189543.17999999988,
      "d": 717.3209374999569,
      "v": 89
    },
    {
      "midi": 40,
      "hit": false,
      "t": 189543.18000000084,
      "d": 767.0362500000047,
      "v": 90
    },
    {
      "midi": 71,
      "hit": false,
      "t": 189852.12515624988,
      "d": 355.109375,
      "v": 100
    },
    {
      "midi": 71,
      "hit": false,
      "t": 189884.08499999985,
      "d": 561.0728124999732,
      "v": 82
    },
    {
      "midi": 55,
      "hit": false,
      "t": 189884.08500000017,
      "d": 340.90499999999884,
      "v": 60
    },
    {
      "midi": 69,
      "hit": false,
      "t": 190157.5192187499,
      "d": 237.92328124999767,
      "v": 98
    },
    {
      "midi": 67,
      "hit": false,
      "t": 190224.98999999985,
      "d": 383.5181249999732,
      "v": 91
    },
    {
      "midi": 59,
      "hit": false,
      "t": 190224.99000000017,
      "d": 340.90499999999884,
      "v": 65
    },
    {
      "midi": 66,
      "hit": false,
      "t": 190224.9900000003,
      "d": 681.8100000000268,
      "v": 93
    },
    {
      "midi": 69,
      "hit": false,
      "t": 190516.17968749988,
      "d": 440.335625000007,
      "v": 98
    },
    {
      "midi": 64,
      "hit": false,
      "t": 190565.89499999981,
      "d": 337.3539062500058,
      "v": 85
    },
    {
      "midi": 64,
      "hit": false,
      "t": 190565.89500000016,
      "d": 340.90499999999884,
      "v": 70
    },
    {
      "midi": 40,
      "hit": false,
      "t": 190565.89500000083,
      "d": 255.67874999999185,
      "v": 86
    },
    {
      "midi": 59,
      "hit": false,
      "t": 190906.7999999998,
      "d": 443.88671875,
      "v": 82
    },
    {
      "midi": 52,
      "hit": false,
      "t": 190906.80000000002,
      "d": 2879.9370312499814,
      "v": 49
    },
    {
      "midi": 71,
      "hit": false,
      "t": 190906.80000000002,
      "d": 5603.62593749995,
      "v": 48
    },
    {
      "midi": 52,
      "hit": false,
      "t": 190906.80000000016,
      "d": 1193.1675000000105,
      "v": 70
    },
    {
      "midi": 55,
      "hit": false,
      "t": 190906.80000000016,
      "d": 1193.1675000000105,
      "v": 70
    },
    {
      "midi": 59,
      "hit": false,
      "t": 190906.80000000016,
      "d": 1193.1675000000105,
      "v": 70
    },
    {
      "midi": 64,
      "hit": false,
      "t": 190906.80000000016,
      "d": 1193.1675000000105,
      "v": 70
    },
    {
      "midi": 67,
      "hit": false,
      "t": 190906.80000000016,
      "d": 1193.1675000000105,
      "v": 70
    },
    {
      "midi": 67,
      "hit": false,
      "t": 190906.80000000034,
      "d": 1363.6200000000827,
      "v": 87
    },
    {
      "midi": 40,
      "hit": false,
      "t": 190906.80000000083,
      "d": 767.0362500000047,
      "v": 80
    },
    {
      "midi": 67,
      "hit": false,
      "t": 190910.3510937499,
      "d": 355.109375,
      "v": 102
    },
    {
      "midi": 64,
      "hit": false,
      "t": 191247.7049999998,
      "d": 710.21875,
      "v": 89
    },
    {
      "midi": 67,
      "hit": false,
      "t": 191382.6465624999,
      "d": 326.7006249999977,
      "v": 87
    },
    {
      "midi": 67,
      "hit": false,
      "t": 191588.6099999998,
      "d": 749.2807812499814,
      "v": 91
    },
    {
      "midi": 67,
      "hit": false,
      "t": 191826.5332812499,
      "d": 113.63500000000931,
      "v": 89
    },
    {
      "midi": 71,
      "hit": false,
      "t": 191929.5149999998,
      "d": 376.4159374999872,
      "v": 82
    },
    {
      "midi": 40,
      "hit": false,
      "t": 191929.51500000083,
      "d": 255.67874999999185,
      "v": 87
    },
    {
      "midi": 67,
      "hit": false,
      "t": 192050.2521874999,
      "d": 102.98171875000116,
      "v": 80
    },
    {
      "midi": 67,
      "hit": false,
      "t": 192242.0112499999,
      "d": 252.12765624999884,
      "v": 87
    },
    {
      "midi": 76,
      "hit": false,
      "t": 192270.4199999998,
      "d": 834.5070312499593,
      "v": 91
    },
    {
      "midi": 71,
      "hit": false,
      "t": 192270.42000000042,
      "d": 490.0509374999965,
      "v": 87
    },
    {
      "midi": 40,
      "hit": false,
      "t": 192270.42000000083,
      "d": 767.0362500000047,
      "v": 98
    },
    {
      "midi": 67,
      "hit": false,
      "t": 192568.7118749999,
      "d": 387.06921874999534,
      "v": 87
    },
    {
      "midi": 71,
      "hit": false,
      "t": 192611.32499999978,
      "d": 752.8318750000035,
      "v": 74
    },
    {
      "midi": 52,
      "hit": false,
      "t": 192611.3250000002,
      "d": 340.90499999999884,
      "v": 70
    },
    {
      "midi": 76,
      "hit": false,
      "t": 192781.7775000004,
      "d": 511.3575000000128,
      "v": 90
    },
    {
      "midi": 66,
      "hit": false,
      "t": 192920.2701562499,
      "d": 351.5582812499779,
      "v": 105
    },
    {
      "midi": 67,
      "hit": false,
      "t": 192952.22999999978,
      "d": 365.76265625000815,
      "v": 98
    },
    {
      "midi": 55,
      "hit": false,
      "t": 192952.23000000019,
      "d": 681.8099999999977,
      "v": 75
    },
    {
      "midi": 59,
      "hit": false,
      "t": 192952.23000000019,
      "d": 681.8099999999977,
      "v": 75
    },
    {
      "midi": 64,
      "hit": false,
      "t": 192952.23000000019,
      "d": 681.8099999999977,
      "v": 75
    },
    {
      "midi": 67,
      "hit": false,
      "t": 193257.62406249988,
      "d": 440.335625000007,
      "v": 98
    },
    {
      "midi": 64,
      "hit": false,
      "t": 193293.13499999978,
      "d": 365.76265625000815,
      "v": 68
    },
    {
      "midi": 71,
      "hit": false,
      "t": 193293.13500000042,
      "d": 433.23343750005006,
      "v": 90
    },
    {
      "midi": 40,
      "hit": false,
      "t": 193293.13500000082,
      "d": 255.67874999999185,
      "v": 93
    },
    {
      "midi": 59,
      "hit": false,
      "t": 193634.03999999978,
      "d": 429.68234374999884,
      "v": 100
    },
    {
      "midi": 62,
      "hit": false,
      "t": 193634.04,
      "d": 2539.0320312499825,
      "v": 53
    },
    {
      "midi": 47,
      "hit": false,
      "t": 193634.04,
      "d": 2720.1378124999756,
      "v": 66
    },
    {
      "midi": 66,
      "hit": false,
      "t": 193634.04,
      "d": 2769.853124999965,
      "v": 49
    },
    {
      "midi": 54,
      "hit": false,
      "t": 193634.04000000018,
      "d": 1193.1675000000105,
      "v": 70
    },
    {
      "midi": 59,
      "hit": false,
      "t": 193634.04000000018,
      "d": 1193.1675000000105,
      "v": 70
    },
    {
      "midi": 62,
      "hit": false,
      "t": 193634.04000000018,
      "d": 1193.1675000000105,
      "v": 70
    },
    {
      "midi": 74,
      "hit": false,
      "t": 193634.04000000044,
      "d": 2045.4300000000803,
      "v": 87
    },
    {
      "midi": 35,
      "hit": false,
      "t": 193634.04000000082,
      "d": 767.0362500000047,
      "v": 102
    },
    {
      "midi": 66,
      "hit": false,
      "t": 193655.34656249988,
      "d": 1214.4740624999977,
      "v": 107
    },
    {
      "midi": 62,
      "hit": false,
      "t": 193974.94499999977,
      "d": 436.78453124998487,
      "v": 82
    },
    {
      "midi": 66,
      "hit": false,
      "t": 194315.84999999977,
      "d": 450.98890624998603,
      "v": 91
    },
    {
      "midi": 71,
      "hit": false,
      "t": 194656.75499999977,
      "d": 351.558281250007,
      "v": 80
    },
    {
      "midi": 35,
      "hit": false,
      "t": 194656.75500000082,
      "d": 255.67874999999185,
      "v": 79
    },
    {
      "midi": 66,
      "hit": false,
      "t": 194972.80234374988,
      "d": 1775.546875,
      "v": 91
    },
    {
      "midi": 74,
      "hit": false,
      "t": 194997.65999999977,
      "d": 486.4998437500035,
      "v": 63
    },
    {
      "midi": 35,
      "hit": false,
      "t": 194997.66000000082,
      "d": 767.0362500000047,
      "v": 100
    },
    {
      "midi": 71,
      "hit": false,
      "t": 195338.56499999977,
      "d": 497.15312500001164,
      "v": 62
    },
    {
      "midi": 54,
      "hit": false,
      "t": 195338.5650000002,
      "d": 340.90499999999884,
      "v": 60
    },
    {
      "midi": 66,
      "hit": false,
      "t": 195679.46999999977,
      "d": 436.78453124998487,
      "v": 85
    },
    {
      "midi": 59,
      "hit": false,
      "t": 195679.4700000002,
      "d": 340.90499999999884,
      "v": 65
    },
    {
      "midi": 71,
      "hit": false,
      "t": 195679.47000000053,
      "d": 340.90499999999884,
      "v": 84
    },
    {
      "midi": 62,
      "hit": false,
      "t": 196020.37499999977,
      "d": 372.8648437499942,
      "v": 68
    },
    {
      "midi": 62,
      "hit": false,
      "t": 196020.3750000002,
      "d": 340.90499999999884,
      "v": 70
    },
    {
      "midi": 66,
      "hit": false,
      "t": 196020.37500000052,
      "d": 355.109375,
      "v": 81
    },
    {
      "midi": 35,
      "hit": false,
      "t": 196020.37500000081,
      "d": 255.67874999999185,
      "v": 82
    },
    {
      "midi": 57,
      "hit": false,
      "t": 196361.27999999977,
      "d": 450.98890624998603,
      "v": 89
    },
    {
      "midi": 64,
      "hit": false,
      "t": 196361.27999999997,
      "d": 2656.218124999985,
      "v": 60
    },
    {
      "midi": 45,
      "hit": false,
      "t": 196361.27999999997,
      "d": 2670.422499999986,
      "v": 53
    },
    {
      "midi": 72,
      "hit": false,
      "t": 196361.27999999997,
      "d": 2734.3421874999767,
      "v": 44
    },
    {
      "midi": 69,
      "hit": false,
      "t": 196361.27999999997,
      "d": 8252.741874999978,
      "v": 47
    },
    {
      "midi": 55,
      "hit": false,
      "t": 196361.2800000002,
      "d": 1193.1675000000105,
      "v": 70
    },
    {
      "midi": 60,
      "hit": false,
      "t": 196361.2800000002,
      "d": 1193.1675000000105,
      "v": 70
    },
    {
      "midi": 64,
      "hit": false,
      "t": 196361.2800000002,
      "d": 1193.1675000000105,
      "v": 70
    },
    {
      "midi": 67,
      "hit": false,
      "t": 196361.2800000002,
      "d": 1193.1675000000105,
      "v": 70
    },
    {
      "midi": 64,
      "hit": false,
      "t": 196361.28000000052,
      "d": 2684.6268750000745,
      "v": 81
    },
    {
      "midi": 36,
      "hit": false,
      "t": 196361.2800000008,
      "d": 767.0362500000047,
      "v": 91
    },
    {
      "midi": 60,
      "hit": false,
      "t": 196702.18499999976,
      "d": 514.9085937500058,
      "v": 74
    },
    {
      "midi": 64,
      "hit": false,
      "t": 196755.45140624986,
      "d": 213.06562499998836,
      "v": 102
    },
    {
      "midi": 64,
      "hit": false,
      "t": 197043.08999999976,
      "d": 397.7225000000035,
      "v": 93
    },
    {
      "midi": 64,
      "hit": false,
      "t": 197064.39656249984,
      "d": 205.96343750000233,
      "v": 102
    },
    {
      "midi": 64,
      "hit": false,
      "t": 197348.48406249983,
      "d": 198.8612499999872,
      "v": 100
    },
    {
      "midi": 67,
      "hit": false,
      "t": 197383.99499999976,
      "d": 379.9670312500093,
      "v": 89
    },
    {
      "midi": 36,
      "hit": false,
      "t": 197383.9950000008,
      "d": 255.67874999999185,
      "v": 90
    },
    {
      "midi": 64,
      "hit": false,
      "t": 197696.49124999982,
      "d": 237.92328124999767,
      "v": 82
    },
    {
      "midi": 72,
      "hit": false,
      "t": 197724.89999999976,
      "d": 767.0362500000047,
      "v": 82
    },
    {
      "midi": 36,
      "hit": false,
      "t": 197724.9000000008,
      "d": 767.0362500000047,
      "v": 97
    },
    {
      "midi": 64,
      "hit": false,
      "t": 198048.04953124982,
      "d": 429.68234374999884,
      "v": 89
    },
    {
      "midi": 67,
      "hit": false,
      "t": 198065.80499999976,
      "d": 450.98890625001513,
      "v": 87
    },
    {
      "midi": 64,
      "hit": false,
      "t": 198406.70999999976,
      "d": 717.3209375000151,
      "v": 93
    },
    {
      "midi": 64,
      "hit": false,
      "t": 198591.36687499983,
      "d": 131.3904687500035,
      "v": 91
    },
    {
      "midi": 36,
      "hit": false,
      "t": 198747.6150000008,
      "d": 255.67874999999185,
      "v": 91
    },
    {
      "midi": 64,
      "hit": false,
      "t": 198797.33031249983,
      "d": 276.98531250000815,
      "v": 74
    },
    {
      "midi": 66,
      "hit": false,
      "t": 199035.25359374983,
      "d": 316.0473437500186,
      "v": 102
    },
    {
      "midi": 62,
      "hit": false,
      "t": 199088.5199999998,
      "d": 419.0290624999907,
      "v": 91
    },
    {
      "midi": 66,
      "hit": false,
      "t": 199088.51999999996,
      "d": 5500.644218749978,
      "v": 53
    },
    {
      "midi": 38,
      "hit": false,
      "t": 199088.51999999996,
      "d": 5564.563906249998,
      "v": 58
    },
    {
      "midi": 50,
      "hit": false,
      "t": 199088.52000000022,
      "d": 1193.1675000000105,
      "v": 70
    },
    {
      "midi": 54,
      "hit": false,
      "t": 199088.52000000022,
      "d": 1193.1675000000105,
      "v": 70
    },
    {
      "midi": 57,
      "hit": false,
      "t": 199088.52000000022,
      "d": 1193.1675000000105,
      "v": 70
    },
    {
      "midi": 62,
      "hit": false,
      "t": 199088.52000000022,
      "d": 1193.1675000000105,
      "v": 70
    },
    {
      "midi": 66,
      "hit": false,
      "t": 199088.52000000022,
      "d": 1193.1675000000105,
      "v": 70
    },
    {
      "midi": 66,
      "hit": false,
      "t": 199088.5200000006,
      "d": 696.014375000057,
      "v": 75
    },
    {
      "midi": 38,
      "hit": false,
      "t": 199088.5200000008,
      "d": 767.0362500000047,
      "v": 93
    },
    {
      "midi": 66,
      "hit": false,
      "t": 199429.42499999978,
      "d": 397.7225000000035,
      "v": 85
    },
    {
      "midi": 66,
      "hit": false,
      "t": 199493.34468749986,
      "d": 390.62031249998836,
      "v": 98
    },
    {
      "midi": 69,
      "hit": false,
      "t": 199770.32999999978,
      "d": 323.14953125000466,
      "v": 87
    },
    {
      "midi": 74,
      "hit": false,
      "t": 199770.33000000066,
      "d": 2052.532187500008,
      "v": 87
    },
    {
      "midi": 66,
      "hit": false,
      "t": 200015.35546874985,
      "d": 145.59484375000466,
      "v": 85
    },
    {
      "midi": 74,
      "hit": false,
      "t": 200111.23499999978,
      "d": 465.1932812499872,
      "v": 98
    },
    {
      "midi": 38,
      "hit": false,
      "t": 200111.2350000008,
      "d": 255.67874999999185,
      "v": 89
    },
    {
      "midi": 66,
      "hit": false,
      "t": 200249.72765624986,
      "d": 106.53281249999418,
      "v": 80
    },
    {
      "midi": 66,
      "hit": false,
      "t": 200427.28234374986,
      "d": 237.92328124999767,
      "v": 82
    },
    {
      "midi": 69,
      "hit": false,
      "t": 200452.13999999978,
      "d": 479.39765624998836,
      "v": 87
    },
    {
      "midi": 74,
      "hit": false,
      "t": 200452.13999999996,
      "d": 1328.109062500007,
      "v": 54
    },
    {
      "midi": 62,
      "hit": false,
      "t": 200452.13999999996,
      "d": 9428.153906249965,
      "v": 32
    },
    {
      "midi": 38,
      "hit": false,
      "t": 200452.1400000008,
      "d": 767.0362500000047,
      "v": 88
    },
    {
      "midi": 66,
      "hit": false,
      "t": 200789.49390624985,
      "d": 181.10578124999302,
      "v": 80
    },
    {
      "midi": 66,
      "hit": false,
      "t": 200793.04499999978,
      "d": 401.2735937499965,
      "v": 85
    },
    {
      "midi": 54,
      "hit": false,
      "t": 200793.04500000025,
      "d": 340.90499999999884,
      "v": 60
    },
    {
      "midi": 66,
      "hit": false,
      "t": 201091.33687499983,
      "d": 174.00359375000698,
      "v": 82
    },
    {
      "midi": 62,
      "hit": false,
      "t": 201133.94999999978,
      "d": 429.68234374999884,
      "v": 82
    },
    {
      "midi": 57,
      "hit": false,
      "t": 201133.95000000024,
      "d": 340.90499999999884,
      "v": 65
    },
    {
      "midi": 66,
      "hit": false,
      "t": 201407.38421874985,
      "d": 344.45609374999185,
      "v": 82
    },
    {
      "midi": 66,
      "hit": false,
      "t": 201474.85499999978,
      "d": 333.8028125000128,
      "v": 93
    },
    {
      "midi": 62,
      "hit": false,
      "t": 201474.85500000024,
      "d": 340.90499999999884,
      "v": 70
    },
    {
      "midi": 38,
      "hit": false,
      "t": 201474.8550000008,
      "d": 255.67874999999185,
      "v": 91
    },
    {
      "midi": 69,
      "hit": false,
      "t": 201762.49359374985,
      "d": 404.8246874999895,
      "v": 105
    },
    {
      "midi": 57,
      "hit": false,
      "t": 201815.75999999978,
      "d": 433.23343749999185,
      "v": 93
    },
    {
      "midi": 72,
      "hit": false,
      "t": 201815.75999999995,
      "d": 2844.426093749993,
      "v": 63
    },
    {
      "midi": 50,
      "hit": false,
      "t": 201815.76000000024,
      "d": 1193.1675000000105,
      "v": 70
    },
    {
      "midi": 54,
      "hit": false,
      "t": 201815.76000000024,
      "d": 1193.1675000000105,
      "v": 70
    },
    {
      "midi": 57,
      "hit": false,
      "t": 201815.76000000024,
      "d": 1193.1675000000105,
      "v": 70
    },
    {
      "midi": 62,
      "hit": false,
      "t": 201815.76000000024,
      "d": 1193.1675000000105,
      "v": 70
    },
    {
      "midi": 66,
      "hit": false,
      "t": 201815.76000000024,
      "d": 1193.1675000000105,
      "v": 70
    },
    {
      "midi": 72,
      "hit": false,
      "t": 201815.76000000068,
      "d": 2034.7767187499849,
      "v": 84
    },
    {
      "midi": 38,
      "hit": false,
      "t": 201815.7600000008,
      "d": 767.0362500000047,
      "v": 93
    },
    {
      "midi": 62,
      "hit": false,
      "t": 202156.66499999978,
      "d": 507.8064062499907,
      "v": 82
    },
    {
      "midi": 69,
      "hit": false,
      "t": 202259.64671874983,
      "d": 323.14953125000466,
      "v": 98
    },
    {
      "midi": 66,
      "hit": false,
      "t": 202497.56999999977,
      "d": 440.335625000007,
      "v": 93
    },
    {
      "midi": 69,
      "hit": false,
      "t": 202717.73781249984,
      "d": 106.53281249999418,
      "v": 87
    },
    {
      "midi": 69,
      "hit": false,
      "t": 202838.47499999977,
      "d": 394.1714062500105,
      "v": 87
    },
    {
      "midi": 38,
      "hit": false,
      "t": 202838.4750000008,
      "d": 255.67874999999185,
      "v": 91
    },
    {
      "midi": 69,
      "hit": false,
      "t": 202923.70124999984,
      "d": 102.98171875000116,
      "v": 80
    },
    {
      "midi": 69,
      "hit": false,
      "t": 203094.15374999985,
      "d": 227.26999999998952,
      "v": 82
    },
    {
      "midi": 74,
      "hit": false,
      "t": 203179.37999999977,
      "d": 482.9487500000105,
      "v": 87
    },
    {
      "midi": 38,
      "hit": false,
      "t": 203179.3800000008,
      "d": 767.0362500000047,
      "v": 100
    },
    {
      "midi": 69,
      "hit": false,
      "t": 203427.95656249984,
      "d": 170.45250000001397,
      "v": 93
    },
    {
      "midi": 69,
      "hit": false,
      "t": 203520.28499999977,
      "d": 458.09109375000116,
      "v": 87
    },
    {
      "midi": 54,
      "hit": false,
      "t": 203520.28500000027,
      "d": 340.90499999999884,
      "v": 60
    },
    {
      "midi": 69,
      "hit": false,
      "t": 203733.35062499985,
      "d": 429.68234374999884,
      "v": 87
    },
    {
      "midi": 66,
      "hit": false,
      "t": 203861.18999999977,
      "d": 390.62031249998836,
      "v": 91
    },
    {
      "midi": 57,
      "hit": false,
      "t": 203861.19000000026,
      "d": 340.90499999999884,
      "v": 65
    },
    {
      "midi": 66,
      "hit": false,
      "t": 203861.19000000067,
      "d": 681.8100000000559,
      "v": 81
    },
    {
      "midi": 71,
      "hit": false,
      "t": 204116.86874999985,
      "d": 379.9670312500093,
      "v": 87
    },
    {
      "midi": 62,
      "hit": false,
      "t": 204202.09499999977,
      "d": 330.2517187499907,
      "v": 89
    },
    {
      "midi": 62,
      "hit": false,
      "t": 204202.09500000026,
      "d": 340.90499999999884,
      "v": 70
    },
    {
      "midi": 38,
      "hit": false,
      "t": 204202.0950000008,
      "d": 255.67874999999185,
      "v": 83
    },
    {
      "midi": 69,
      "hit": false,
      "t": 204525.24453124986,
      "d": 1431.0907812500081,
      "v": 102
    },
    {
      "midi": 55,
      "hit": false,
      "t": 204542.99999999977,
      "d": 369.31375000000116,
      "v": 85
    },
    {
      "midi": 43,
      "hit": false,
      "t": 204542.99999999994,
      "d": 5507.746406249993,
      "v": 57
    },
    {
      "midi": 71,
      "hit": false,
      "t": 204542.99999999994,
      "d": 5521.950781249994,
      "v": 57
    },
    {
      "midi": 67,
      "hit": false,
      "t": 204542.99999999994,
      "d": 8284.701718750002,
      "v": 55
    },
    {
      "midi": 55,
      "hit": false,
      "t": 204543.00000000026,
      "d": 1193.1675000000105,
      "v": 70
    },
    {
      "midi": 59,
      "hit": false,
      "t": 204543.00000000026,
      "d": 1193.1675000000105,
      "v": 70
    },
    {
      "midi": 62,
      "hit": false,
      "t": 204543.00000000026,
      "d": 1193.1675000000105,
      "v": 70
    },
    {
      "midi": 69,
      "hit": false,
      "t": 204543.00000000073,
      "d": 1409.7842187499919,
      "v": 81
    },
    {
      "midi": 31,
      "hit": false,
      "t": 204543.0000000008,
      "d": 767.0362500000047,
      "v": 90
    },
    {
      "midi": 59,
      "hit": false,
      "t": 204883.90499999977,
      "d": 447.437812499993,
      "v": 89
    },
    {
      "midi": 62,
      "hit": false,
      "t": 205224.80999999976,
      "d": 433.23343749999185,
      "v": 98
    },
    {
      "midi": 67,
      "hit": false,
      "t": 205565.71499999976,
      "d": 372.8648437499942,
      "v": 85
    },
    {
      "midi": 31,
      "hit": false,
      "t": 205565.71500000078,
      "d": 255.67874999999185,
      "v": 93
    },
    {
      "midi": 71,
      "hit": false,
      "t": 205906.61999999976,
      "d": 788.3428124999919,
      "v": 87
    },
    {
      "midi": 31,
      "hit": false,
      "t": 205906.62000000078,
      "d": 767.0362500000047,
      "v": 91
    },
    {
      "midi": 67,
      "hit": false,
      "t": 205910.17109374987,
      "d": 3558.195937499986,
      "v": 102
    },
    {
      "midi": 67,
      "hit": false,
      "t": 205920.82437500072,
      "d": 3888.4476562501513,
      "v": 84
    },
    {
      "midi": 67,
      "hit": false,
      "t": 206247.52499999976,
      "d": 845.1603124999965,
      "v": 70
    },
    {
      "midi": 55,
      "hit": false,
      "t": 206247.52500000029,
      "d": 340.90499999999884,
      "v": 60
    },
    {
      "midi": 62,
      "hit": false,
      "t": 206588.42999999976,
      "d": 447.437812499993,
      "v": 70
    },
    {
      "midi": 59,
      "hit": false,
      "t": 206588.43000000028,
      "d": 340.90499999999884,
      "v": 65
    },
    {
      "midi": 59,
      "hit": false,
      "t": 206929.33499999976,
      "d": 372.8648437499942,
      "v": 78
    },
    {
      "midi": 62,
      "hit": false,
      "t": 206929.33500000028,
      "d": 340.90499999999884,
      "v": 70
    },
    {
      "midi": 31,
      "hit": false,
      "t": 206929.33500000078,
      "d": 255.67874999999185,
      "v": 81
    },
    {
      "midi": 55,
      "hit": false,
      "t": 207270.23999999976,
      "d": 436.78453124998487,
      "v": 76
    },
    {
      "midi": 31,
      "hit": false,
      "t": 207270.23999999993,
      "d": 2780.5064062500023,
      "v": 70
    },
    {
      "midi": 55,
      "hit": false,
      "t": 207270.24000000028,
      "d": 1193.1675000000105,
      "v": 70
    },
    {
      "midi": 59,
      "hit": false,
      "t": 207270.24000000028,
      "d": 1193.1675000000105,
      "v": 70
    },
    {
      "midi": 62,
      "hit": false,
      "t": 207270.24000000028,
      "d": 1193.1675000000105,
      "v": 70
    },
    {
      "midi": 31,
      "hit": false,
      "t": 207270.24000000078,
      "d": 767.0362500000047,
      "v": 88
    },
    {
      "midi": 59,
      "hit": false,
      "t": 207611.14499999976,
      "d": 504.2553124999977,
      "v": 80
    },
    {
      "midi": 62,
      "hit": false,
      "t": 207952.04999999976,
      "d": 770.5873437499977,
      "v": 95
    },
    {
      "midi": 67,
      "hit": false,
      "t": 208292.95499999975,
      "d": 440.335625000007,
      "v": 78
    },
    {
      "midi": 31,
      "hit": false,
      "t": 208292.95500000077,
      "d": 255.67874999999185,
      "v": 90
    },
    {
      "midi": 71,
      "hit": false,
      "t": 208633.85999999975,
      "d": 710.21875,
      "v": 85
    },
    {
      "midi": 31,
      "hit": false,
      "t": 208633.86000000077,
      "d": 767.0362500000047,
      "v": 95
    },
    {
      "midi": 67,
      "hit": false,
      "t": 208974.76499999975,
      "d": 600.1348437500128,
      "v": 82
    },
    {
      "midi": 55,
      "hit": false,
      "t": 208974.7650000003,
      "d": 340.90499999999884,
      "v": 70
    },
    {
      "midi": 62,
      "hit": false,
      "t": 209315.66999999975,
      "d": 422.5801562500419,
      "v": 85
    },
    {
      "midi": 55,
      "hit": false,
      "t": 209315.6700000003,
      "d": 681.8099999999977,
      "v": 75
    },
    {
      "midi": 59,
      "hit": false,
      "t": 209315.6700000003,
      "d": 681.8099999999977,
      "v": 75
    },
    {
      "midi": 62,
      "hit": false,
      "t": 209315.6700000003,
      "d": 681.8099999999977,
      "v": 75
    },
    {
      "midi": 67,
      "hit": false,
      "t": 209599.75749999986,
      "d": 440.335625000007,
      "v": 100
    },
    {
      "midi": 59,
      "hit": false,
      "t": 209656.57499999978,
      "d": 276.98531250000815,
      "v": 98
    },
    {
      "midi": 31,
      "hit": false,
      "t": 209656.57500000077,
      "d": 255.67874999999185,
      "v": 89
    },
    {
      "midi": 60,
      "hit": false,
      "t": 209997.47999999978,
      "d": 450.98890624998603,
      "v": 87
    },
    {
      "midi": 67,
      "hit": false,
      "t": 209997.4799999998,
      "d": 2727.2399999999616,
      "v": 61
    },
    {
      "midi": 72,
      "hit": false,
      "t": 209997.4799999998,
      "d": 2727.2399999999616,
      "v": 61
    },
    {
      "midi": 76,
      "hit": false,
      "t": 209997.4799999998,
      "d": 2727.2399999999616,
      "v": 61
    },
    {
      "midi": 48,
      "hit": false,
      "t": 209997.4799999998,
      "d": 5454.479999999952,
      "v": 61
    },
    {
      "midi": 60,
      "hit": false,
      "t": 209997.4799999998,
      "d": 5454.479999999952,
      "v": 61
    },
    {
      "midi": 64,
      "hit": false,
      "t": 209997.47999999992,
      "d": 2730.791093750013,
      "v": 35
    },
    {
      "midi": 72,
      "hit": false,
      "t": 209997.47999999992,
      "d": 2933.203437500022,
      "v": 53
    },
    {
      "midi": 36,
      "hit": false,
      "t": 209997.47999999992,
      "d": 5497.093125000014,
      "v": 58
    },
    {
      "midi": 55,
      "hit": false,
      "t": 209997.4800000003,
      "d": 1193.1675000000105,
      "v": 70
    },
    {
      "midi": 60,
      "hit": false,
      "t": 209997.4800000003,
      "d": 1193.1675000000105,
      "v": 70
    },
    {
      "midi": 64,
      "hit": false,
      "t": 209997.4800000003,
      "d": 1193.1675000000105,
      "v": 70
    },
    {
      "midi": 36,
      "hit": false,
      "t": 209997.48000000077,
      "d": 767.0362500000047,
      "v": 98
    },
    {
      "midi": 64,
      "hit": false,
      "t": 210040.09312499987,
      "d": 3412.6010937500105,
      "v": 107
    },
    {
      "midi": 36,
      "hit": false,
      "t": 211020.19500000076,
      "d": 255.67874999999185,
      "v": 76
    },
    {
      "midi": 79,
      "hit": false,
      "t": 211020.19500000088,
      "d": 870.0179687500931,
      "v": 95
    },
    {
      "midi": 36,
      "hit": false,
      "t": 211361.10000000076,
      "d": 767.0362500000047,
      "v": 101
    },
    {
      "midi": 48,
      "hit": false,
      "t": 211702.00500000032,
      "d": 340.90499999999884,
      "v": 70
    },
    {
      "midi": 78,
      "hit": false,
      "t": 211872.45750000098,
      "d": 536.2151562500512,
      "v": 93
    },
    {
      "midi": 55,
      "hit": false,
      "t": 212042.91000000032,
      "d": 681.8099999999977,
      "v": 75
    },
    {
      "midi": 60,
      "hit": false,
      "t": 212042.91000000032,
      "d": 681.8099999999977,
      "v": 75
    },
    {
      "midi": 64,
      "hit": false,
      "t": 212042.91000000032,
      "d": 681.8099999999977,
      "v": 75
    },
    {
      "midi": 67,
      "hit": false,
      "t": 212042.91000000032,
      "d": 681.8099999999977,
      "v": 75
    },
    {
      "midi": 36,
      "hit": false,
      "t": 212383.81500000076,
      "d": 255.67874999999185,
      "v": 87
    },
    {
      "midi": 76,
      "hit": false,
      "t": 212383.81500000105,
      "d": 376.4159375000163,
      "v": 93
    },
    {
      "midi": 69,
      "hit": false,
      "t": 212667.9024999998,
      "d": 2773.404218749958,
      "v": 63
    },
    {
      "midi": 74,
      "hit": false,
      "t": 212699.8623437498,
      "d": 8288.252812499966,
      "v": 70
    },
    {
      "midi": 78,
      "hit": false,
      "t": 212706.96453124977,
      "d": 8132.0046874999825,
      "v": 35
    },
    {
      "midi": 69,
      "hit": false,
      "t": 212724.71999999994,
      "d": 2670.422499999986,
      "v": 53
    },
    {
      "midi": 66,
      "hit": false,
      "t": 212724.71999999994,
      "d": 8263.395156249986,
      "v": 66
    },
    {
      "midi": 48,
      "hit": false,
      "t": 212724.72000000032,
      "d": 1193.1675000000105,
      "v": 70
    },
    {
      "midi": 57,
      "hit": false,
      "t": 212724.72000000032,
      "d": 1193.1675000000105,
      "v": 70
    },
    {
      "midi": 62,
      "hit": false,
      "t": 212724.72000000032,
      "d": 1193.1675000000105,
      "v": 70
    },
    {
      "midi": 66,
      "hit": false,
      "t": 212724.72000000032,
      "d": 1193.1675000000105,
      "v": 70
    },
    {
      "midi": 69,
      "hit": false,
      "t": 212724.72000000032,
      "d": 1193.1675000000105,
      "v": 70
    },
    {
      "midi": 36,
      "hit": false,
      "t": 212724.72000000076,
      "d": 767.0362500000047,
      "v": 91
    },
    {
      "midi": 78,
      "hit": false,
      "t": 212724.72000000108,
      "d": 4651.932812500134,
      "v": 93
    },
    {
      "midi": 66,
      "hit": false,
      "t": 213424.28546874988,
      "d": 355.109375,
      "v": 98
    },
    {
      "midi": 67,
      "hit": false,
      "t": 213740.33281249987,
      "d": 394.1714062500105,
      "v": 95
    },
    {
      "midi": 36,
      "hit": false,
      "t": 213747.43500000075,
      "d": 255.67874999999185,
      "v": 93
    },
    {
      "midi": 69,
      "hit": false,
      "t": 214067.03343749986,
      "d": 365.76265625000815,
      "v": 98
    },
    {
      "midi": 62,
      "hit": false,
      "t": 214088.33999999994,
      "d": 6679.607343749987,
      "v": 64
    },
    {
      "midi": 36,
      "hit": false,
      "t": 214088.34000000075,
      "d": 767.0362500000047,
      "v": 96
    },
    {
      "midi": 57,
      "hit": false,
      "t": 214429.24500000034,
      "d": 340.90499999999884,
      "v": 60
    },
    {
      "midi": 69,
      "hit": false,
      "t": 214557.08437499986,
      "d": 514.9085937500058,
      "v": 102
    },
    {
      "midi": 62,
      "hit": false,
      "t": 214770.15000000034,
      "d": 340.90499999999884,
      "v": 65
    },
    {
      "midi": 66,
      "hit": false,
      "t": 215079.09515624985,
      "d": 387.06921874999534,
      "v": 89
    },
    {
      "midi": 66,
      "hit": false,
      "t": 215111.05500000034,
      "d": 340.90499999999884,
      "v": 70
    },
    {
      "midi": 36,
      "hit": false,
      "t": 215111.05500000075,
      "d": 255.67874999999185,
      "v": 90
    },
    {
      "midi": 71,
      "hit": false,
      "t": 215409.34687499976,
      "d": 5315.987343749992,
      "v": 68
    },
    {
      "midi": 59,
      "hit": false,
      "t": 215416.44906249974,
      "d": 5557.461718750012,
      "v": 74
    },
    {
      "midi": 47,
      "hit": false,
      "t": 215451.95999999993,
      "d": 5575.217187500006,
      "v": 58
    },
    {
      "midi": 71,
      "hit": false,
      "t": 215451.95999999993,
      "d": 5575.217187500006,
      "v": 53
    },
    {
      "midi": 47,
      "hit": false,
      "t": 215451.96000000034,
      "d": 1193.1675000000105,
      "v": 70
    },
    {
      "midi": 54,
      "hit": false,
      "t": 215451.96000000034,
      "d": 1193.1675000000105,
      "v": 70
    },
    {
      "midi": 59,
      "hit": false,
      "t": 215451.96000000034,
      "d": 1193.1675000000105,
      "v": 70
    },
    {
      "midi": 62,
      "hit": false,
      "t": 215451.96000000034,
      "d": 1193.1675000000105,
      "v": 70
    },
    {
      "midi": 66,
      "hit": false,
      "t": 215451.96000000034,
      "d": 1193.1675000000105,
      "v": 70
    },
    {
      "midi": 35,
      "hit": false,
      "t": 215451.96000000075,
      "d": 767.0362500000047,
      "v": 89
    },
    {
      "midi": 62,
      "hit": false,
      "t": 215462.61328124985,
      "d": 1370.7221874999814,
      "v": 95
    },
    {
      "midi": 35,
      "hit": false,
      "t": 216474.67500000075,
      "d": 255.67874999999185,
      "v": 76
    },
    {
      "midi": 59,
      "hit": false,
      "t": 216801.37562499984,
      "d": 3671.8309374999953,
      "v": 95
    },
    {
      "midi": 35,
      "hit": false,
      "t": 216815.58000000074,
      "d": 767.0362500000047,
      "v": 98
    },
    {
      "midi": 54,
      "hit": false,
      "t": 217156.48500000036,
      "d": 340.90499999999884,
      "v": 60
    },
    {
      "midi": 76,
      "hit": false,
      "t": 217326.93750000122,
      "d": 511.3575000000419,
      "v": 87
    },
    {
      "midi": 59,
      "hit": false,
      "t": 217497.39000000036,
      "d": 340.90499999999884,
      "v": 65
    },
    {
      "midi": 62,
      "hit": false,
      "t": 217838.29500000036,
      "d": 340.90499999999884,
      "v": 70
    },
    {
      "midi": 35,
      "hit": false,
      "t": 217838.29500000074,
      "d": 255.67874999999185,
      "v": 83
    },
    {
      "midi": 74,
      "hit": false,
      "t": 217838.29500000126,
      "d": 1690.3206250000803,
      "v": 87
    },
    {
      "midi": 47,
      "hit": false,
      "t": 218175.64890624976,
      "d": 2801.8129687499895,
      "v": 74
    },
    {
      "midi": 54,
      "hit": false,
      "t": 218179.20000000036,
      "d": 1193.1675000000105,
      "v": 70
    },
    {
      "midi": 59,
      "hit": false,
      "t": 218179.20000000036,
      "d": 1193.1675000000105,
      "v": 70
    },
    {
      "midi": 62,
      "hit": false,
      "t": 218179.20000000036,
      "d": 1193.1675000000105,
      "v": 70
    },
    {
      "midi": 66,
      "hit": false,
      "t": 218179.20000000036,
      "d": 1193.1675000000105,
      "v": 70
    },
    {
      "midi": 35,
      "hit": false,
      "t": 218179.20000000074,
      "d": 767.0362500000047,
      "v": 78
    },
    {
      "midi": 35,
      "hit": false,
      "t": 219201.91500000074,
      "d": 255.67874999999185,
      "v": 92
    },
    {
      "midi": 35,
      "hit": false,
      "t": 219542.82000000073,
      "d": 767.0362500000047,
      "v": 104
    },
    {
      "midi": 66,
      "hit": false,
      "t": 219542.82000000135,
      "d": 1033.368281250121,
      "v": 95
    },
    {
      "midi": 62,
      "hit": false,
      "t": 220554.88171874985,
      "d": 362.21156249998603,
      "v": 105
    },
    {
      "midi": 35,
      "hit": false,
      "t": 220565.53500000073,
      "d": 255.67874999999185,
      "v": 85
    },
    {
      "midi": 71,
      "hit": false,
      "t": 220565.53500000146,
      "d": 369.31375000003027,
      "v": 93
    },
    {
      "midi": 60,
      "hit": false,
      "t": 220895.78671874985,
      "d": 1274.8426562499662,
      "v": 93
    },
    {
      "midi": 64,
      "hit": false,
      "t": 220906.43999999992,
      "d": 1335.2112500000221,
      "v": 57
    },
    {
      "midi": 45,
      "hit": false,
      "t": 220906.43999999992,
      "d": 1352.9667187500163,
      "v": 51
    },
    {
      "midi": 72,
      "hit": false,
      "t": 220906.43999999992,
      "d": 1448.8462500000314,
      "v": 23
    },
    {
      "midi": 69,
      "hit": false,
      "t": 220906.43999999992,
      "d": 2872.8348437500244,
      "v": 60
    },
    {
      "midi": 45,
      "hit": false,
      "t": 220906.44000000038,
      "d": 284.0874999999942,
      "v": 70
    },
    {
      "midi": 57,
      "hit": false,
      "t": 220906.44000000038,
      "d": 284.0874999999942,
      "v": 70
    },
    {
      "midi": 60,
      "hit": false,
      "t": 220906.44000000038,
      "d": 284.0874999999942,
      "v": 70
    },
    {
      "midi": 64,
      "hit": false,
      "t": 220906.44000000038,
      "d": 284.0874999999942,
      "v": 70
    },
    {
      "midi": 33,
      "hit": false,
      "t": 220906.44000000073,
      "d": 767.0362500000047,
      "v": 88
    },
    {
      "midi": 72,
      "hit": false,
      "t": 220906.4400000015,
      "d": 1363.6200000000827,
      "v": 101
    },
    {
      "midi": 57,
      "hit": false,
      "t": 220927.74656249976,
      "d": 1335.2112500000221,
      "v": 56
    },
    {
      "midi": 72,
      "hit": false,
      "t": 220927.74656249976,
      "d": 1377.8243750000256,
      "v": 45
    },
    {
      "midi": 69,
      "hit": false,
      "t": 220927.74656249976,
      "d": 2727.24000000002,
      "v": 13
    },
    {
      "midi": 76,
      "hit": false,
      "t": 220941.95093749976,
      "d": 1374.2732812500326,
      "v": 59
    },
    {
      "midi": 45,
      "hit": false,
      "t": 221247.34500000038,
      "d": 340.90499999999884,
      "v": 70
    },
    {
      "midi": 57,
      "hit": false,
      "t": 221588.25000000038,
      "d": 340.90499999999884,
      "v": 60
    },
    {
      "midi": 45,
      "hit": false,
      "t": 221929.15500000038,
      "d": 284.0874999999942,
      "v": 65
    },
    {
      "midi": 57,
      "hit": false,
      "t": 221929.15500000038,
      "d": 284.0874999999942,
      "v": 65
    },
    {
      "midi": 60,
      "hit": false,
      "t": 221929.15500000038,
      "d": 284.0874999999942,
      "v": 65
    },
    {
      "midi": 64,
      "hit": false,
      "t": 221929.15500000038,
      "d": 284.0874999999942,
      "v": 65
    },
    {
      "midi": 69,
      "hit": false,
      "t": 221929.15500000038,
      "d": 284.0874999999942,
      "v": 65
    },
    {
      "midi": 33,
      "hit": false,
      "t": 221929.15500000073,
      "d": 255.67874999999185,
      "v": 87
    },
    {
      "midi": 67,
      "hit": false,
      "t": 221957.56374999983,
      "d": 337.3539062499767,
      "v": 105
    },
    {
      "midi": 78,
      "hit": false,
      "t": 222223.89578124977,
      "d": 1576.6856249999837,
      "v": 52
    },
    {
      "midi": 74,
      "hit": false,
      "t": 222227.44687499976,
      "d": 4243.557031250006,
      "v": 54
    },
    {
      "midi": 50,
      "hit": false,
      "t": 222238.10015624977,
      "d": 1463.0506249999744,
      "v": 61
    },
    {
      "midi": 66,
      "hit": false,
      "t": 222245.2023437498,
      "d": 369.31374999997206,
      "v": 91
    },
    {
      "midi": 66,
      "hit": false,
      "t": 222270.05999999994,
      "d": 1484.3571875000198,
      "v": 46
    },
    {
      "midi": 38,
      "hit": false,
      "t": 222270.05999999994,
      "d": 1487.9082812500128,
      "v": 68
    },
    {
      "midi": 57,
      "hit": false,
      "t": 222270.06000000038,
      "d": 284.0874999999942,
      "v": 70
    },
    {
      "midi": 62,
      "hit": false,
      "t": 222270.06000000038,
      "d": 284.0874999999942,
      "v": 70
    },
    {
      "midi": 66,
      "hit": false,
      "t": 222270.06000000038,
      "d": 284.0874999999942,
      "v": 70
    },
    {
      "midi": 69,
      "hit": false,
      "t": 222270.06000000038,
      "d": 284.0874999999942,
      "v": 70
    },
    {
      "midi": 38,
      "hit": false,
      "t": 222270.06000000073,
      "d": 767.0362500000047,
      "v": 90
    },
    {
      "midi": 71,
      "hit": false,
      "t": 222270.06000000157,
      "d": 1040.470468750078,
      "v": 93
    },
    {
      "midi": 64,
      "hit": false,
      "t": 222568.3518749998,
      "d": 394.1714062499814,
      "v": 93
    },
    {
      "midi": 50,
      "hit": false,
      "t": 222610.96500000037,
      "d": 340.90499999999884,
      "v": 70
    },
    {
      "midi": 66,
      "hit": false,
      "t": 222912.80796874978,
      "d": 433.23343749999185,
      "v": 107
    },
    {
      "midi": 57,
      "hit": false,
      "t": 222951.87000000037,
      "d": 340.90499999999884,
      "v": 60
    },
    {
      "midi": 62,
      "hit": false,
      "t": 223282.12171874978,
      "d": 358.660468749993,
      "v": 93
    },
    {
      "midi": 57,
      "hit": false,
      "t": 223292.77500000037,
      "d": 284.0874999999942,
      "v": 65
    },
    {
      "midi": 62,
      "hit": false,
      "t": 223292.77500000037,
      "d": 284.0874999999942,
      "v": 65
    },
    {
      "midi": 66,
      "hit": false,
      "t": 223292.77500000037,
      "d": 284.0874999999942,
      "v": 65
    },
    {
      "midi": 38,
      "hit": false,
      "t": 223292.77500000072,
      "d": 255.67874999999185,
      "v": 77
    },
    {
      "midi": 72,
      "hit": false,
      "t": 223292.77500000165,
      "d": 379.9670312500384,
      "v": 95
    },
    {
      "midi": 62,
      "hit": false,
      "t": 223463.22749999995,
      "d": 3078.7982812499977,
      "v": 61
    },
    {
      "midi": 67,
      "hit": false,
      "t": 223633.67999999996,
      "d": 1882.079687499965,
      "v": 52
    },
    {
      "midi": 43,
      "hit": false,
      "t": 223633.67999999996,
      "d": 2698.8312499999593,
      "v": 57
    },
    {
      "midi": 71,
      "hit": false,
      "t": 223633.67999999996,
      "d": 2780.506406249973,
      "v": 70
    },
    {
      "midi": 55,
      "hit": false,
      "t": 223633.68000000037,
      "d": 284.0874999999942,
      "v": 70
    },
    {
      "midi": 59,
      "hit": false,
      "t": 223633.68000000037,
      "d": 284.0874999999942,
      "v": 70
    },
    {
      "midi": 62,
      "hit": false,
      "t": 223633.68000000037,
      "d": 284.0874999999942,
      "v": 70
    },
    {
      "midi": 31,
      "hit": false,
      "t": 223633.68000000072,
      "d": 767.0362500000047,
      "v": 92
    },
    {
      "midi": 59,
      "hit": false,
      "t": 223644.33328124977,
      "d": 2997.123125000013,
      "v": 105
    },
    {
      "midi": 71,
      "hit": false,
      "t": 223662.08874999976,
      "d": 2599.4006250000093,
      "v": 70
    },
    {
      "midi": 55,
      "hit": false,
      "t": 223669.19093749975,
      "d": 2713.0356250000186,
      "v": 61
    },
    {
      "midi": 62,
      "hit": false,
      "t": 224265.77468750032,
      "d": 731.5253125000745,
      "v": 101
    },
    {
      "midi": 55,
      "hit": false,
      "t": 224315.49000000037,
      "d": 284.0874999999942,
      "v": 70
    },
    {
      "midi": 74,
      "hit": false,
      "t": 224315.4900000017,
      "d": 681.8100000000559,
      "v": 95
    },
    {
      "midi": 59,
      "hit": false,
      "t": 224656.39500000037,
      "d": 284.0874999999942,
      "v": 60
    },
    {
      "midi": 31,
      "hit": false,
      "t": 224656.39500000072,
      "d": 255.67874999999185,
      "v": 79
    },
    {
      "midi": 67,
      "hit": false,
      "t": 224904.97156249976,
      "d": 4211.5971875000105,
      "v": 66
    },
    {
      "midi": 55,
      "hit": false,
      "t": 224997.30000000037,
      "d": 1193.1675000000105,
      "v": 75
    },
    {
      "midi": 59,
      "hit": false,
      "t": 224997.30000000037,
      "d": 1193.1675000000105,
      "v": 75
    },
    {
      "midi": 62,
      "hit": false,
      "t": 224997.30000000037,
      "d": 1193.1675000000105,
      "v": 75
    },
    {
      "midi": 65,
      "hit": false,
      "t": 224997.30000000037,
      "d": 1193.1675000000105,
      "v": 75
    },
    {
      "midi": 67,
      "hit": false,
      "t": 224997.30000000037,
      "d": 1193.1675000000105,
      "v": 75
    },
    {
      "midi": 67,
      "hit": false,
      "t": 224997.3000000004,
      "d": 696.0143750000861,
      "v": 112
    },
    {
      "midi": 31,
      "hit": false,
      "t": 224997.30000000072,
      "d": 767.0362500000047,
      "v": 92
    },
    {
      "midi": 79,
      "hit": false,
      "t": 224997.30000000176,
      "d": 681.8099999998813,
      "v": 98
    },
    {
      "midi": 65,
      "hit": false,
      "t": 225679.10999999993,
      "d": 603.6859375000058,
      "v": 63
    },
    {
      "midi": 77,
      "hit": false,
      "t": 225679.11000000164,
      "d": 699.5654687499919,
      "v": 107
    },
    {
      "midi": 65,
      "hit": false,
      "t": 225693.31437500048,
      "d": 674.7078125000116,
      "v": 99
    },
    {
      "midi": 31,
      "hit": false,
      "t": 226020.0150000007,
      "d": 255.67874999999185,
      "v": 80
    },
    {
      "midi": 48,
      "hit": false,
      "t": 226321.85796874977,
      "d": 2837.323906249978,
      "v": 61
    },
    {
      "midi": 64,
      "hit": false,
      "t": 226360.91999999993,
      "d": 2439.6014062500326,
      "v": 74
    },
    {
      "midi": 36,
      "hit": false,
      "t": 226360.91999999993,
      "d": 2673.9735937500373,
      "v": 51
    },
    {
      "midi": 67,
      "hit": false,
      "t": 226360.91999999993,
      "d": 2872.8348437500536,
      "v": 59
    },
    {
      "midi": 48,
      "hit": false,
      "t": 226360.9200000004,
      "d": 1193.1675000000105,
      "v": 70
    },
    {
      "midi": 55,
      "hit": false,
      "t": 226360.9200000004,
      "d": 1193.1675000000105,
      "v": 70
    },
    {
      "midi": 60,
      "hit": false,
      "t": 226360.9200000004,
      "d": 1193.1675000000105,
      "v": 70
    },
    {
      "midi": 64,
      "hit": false,
      "t": 226360.9200000004,
      "d": 1193.1675000000105,
      "v": 70
    },
    {
      "midi": 67,
      "hit": false,
      "t": 226360.9200000004,
      "d": 1193.1675000000105,
      "v": 70
    },
    {
      "midi": 36,
      "hit": false,
      "t": 226360.9200000007,
      "d": 767.0362500000047,
      "v": 85
    },
    {
      "midi": 76,
      "hit": false,
      "t": 226360.92000000164,
      "d": 2734.3421874999767,
      "v": 98
    },
    {
      "midi": 64,
      "hit": false,
      "t": 226368.0221875005,
      "d": 2840.8750000001455,
      "v": 89
    },
    {
      "midi": 76,
      "hit": false,
      "t": 226382.22656249977,
      "d": 2766.302031250001,
      "v": 50
    },
    {
      "midi": 72,
      "hit": false,
      "t": 226392.87984374978,
      "d": 2762.750937499979,
      "v": 58
    },
    {
      "midi": 64,
      "hit": false,
      "t": 226705.37609374977,
      "d": 319.59843749998254,
      "v": 100
    },
    {
      "midi": 60,
      "hit": false,
      "t": 226989.46359374977,
      "d": 415.4779687499977,
      "v": 89
    },
    {
      "midi": 62,
      "hit": false,
      "t": 227337.47078124975,
      "d": 408.37578125001164,
      "v": 100
    },
    {
      "midi": 36,
      "hit": false,
      "t": 227383.6350000007,
      "d": 255.67874999999185,
      "v": 88
    },
    {
      "midi": 64,
      "hit": false,
      "t": 227681.92687499977,
      "d": 408.37578125001164,
      "v": 100
    },
    {
      "midi": 48,
      "hit": false,
      "t": 227724.53999999995,
      "d": 1168.3098437500012,
      "v": 44
    },
    {
      "midi": 60,
      "hit": false,
      "t": 227724.53999999995,
      "d": 1434.6418750000303,
      "v": 48
    },
    {
      "midi": 36,
      "hit": false,
      "t": 227724.5400000007,
      "d": 767.0362500000047,
      "v": 98
    },
    {
      "midi": 66,
      "hit": false,
      "t": 228005.07640624978,
      "d": 365.76265625000815,
      "v": 87
    },
    {
      "midi": 48,
      "hit": false,
      "t": 228065.4450000004,
      "d": 340.90499999999884,
      "v": 70
    },
    {
      "midi": 67,
      "hit": false,
      "t": 228374.39015624978,
      "d": 372.8648437499942,
      "v": 100
    },
    {
      "midi": 55,
      "hit": false,
      "t": 228406.3500000004,
      "d": 681.8099999999977,
      "v": 75
    },
    {
      "midi": 60,
      "hit": false,
      "t": 228406.3500000004,
      "d": 681.8099999999977,
      "v": 75
    },
    {
      "midi": 64,
      "hit": false,
      "t": 228406.3500000004,
      "d": 681.8099999999977,
      "v": 75
    },
    {
      "midi": 67,
      "hit": false,
      "t": 228406.3500000004,
      "d": 681.8099999999977,
      "v": 75
    },
    {
      "midi": 69,
      "hit": false,
      "t": 228690.43749999977,
      "d": 404.8246875000186,
      "v": 93
    },
    {
      "midi": 36,
      "hit": false,
      "t": 228747.2550000007,
      "d": 255.67874999999185,
      "v": 90
    },
    {
      "midi": 71,
      "hit": false,
      "t": 229066.85343749978,
      "d": 1441.7440624999872,
      "v": 113
    },
    {
      "midi": 59,
      "hit": false,
      "t": 229077.50671874976,
      "d": 2851.52828124995,
      "v": 60
    },
    {
      "midi": 47,
      "hit": false,
      "t": 229088.15999999997,
      "d": 2453.8057812500047,
      "v": 37
    },
    {
      "midi": 35,
      "hit": false,
      "t": 229088.15999999997,
      "d": 2517.7254687499953,
      "v": 74
    },
    {
      "midi": 62,
      "hit": false,
      "t": 229088.15999999997,
      "d": 2553.2364062499837,
      "v": 57
    },
    {
      "midi": 66,
      "hit": false,
      "t": 229088.15999999997,
      "d": 2574.542968749971,
      "v": 61
    },
    {
      "midi": 54,
      "hit": false,
      "t": 229088.1600000004,
      "d": 1193.1675000000105,
      "v": 70
    },
    {
      "midi": 59,
      "hit": false,
      "t": 229088.1600000004,
      "d": 1193.1675000000105,
      "v": 70
    },
    {
      "midi": 62,
      "hit": false,
      "t": 229088.1600000004,
      "d": 1193.1675000000105,
      "v": 70
    },
    {
      "midi": 66,
      "hit": false,
      "t": 229088.1600000004,
      "d": 1193.1675000000105,
      "v": 70
    },
    {
      "midi": 35,
      "hit": false,
      "t": 229088.1600000007,
      "d": 767.0362500000047,
      "v": 89
    },
    {
      "midi": 74,
      "hit": false,
      "t": 229088.16000000163,
      "d": 340.90499999999884,
      "v": 87
    },
    {
      "midi": 78,
      "hit": false,
      "t": 229088.16000000163,
      "d": 340.90499999999884,
      "v": 87
    },
    {
      "midi": 71,
      "hit": false,
      "t": 229116.56874999977,
      "d": 2716.5867187499534,
      "v": 70
    },
    {
      "midi": 74,
      "hit": false,
      "t": 229116.56874999977,
      "d": 2840.874999999942,
      "v": 57
    },
    {
      "midi": 71,
      "hit": false,
      "t": 229429.06500000163,
      "d": 340.90500000002794,
      "v": 90
    },
    {
      "midi": 74,
      "hit": false,
      "t": 229429.06500000163,
      "d": 340.90500000002794,
      "v": 90
    },
    {
      "midi": 66,
      "hit": false,
      "t": 229769.97000000166,
      "d": 340.90499999999884,
      "v": 87
    },
    {
      "midi": 71,
      "hit": false,
      "t": 229769.97000000166,
      "d": 340.90499999999884,
      "v": 87
    },
    {
      "midi": 35,
      "hit": false,
      "t": 230110.8750000007,
      "d": 255.67874999999185,
      "v": 82
    },
    {
      "midi": 62,
      "hit": false,
      "t": 230110.87500000166,
      "d": 340.90499999999884,
      "v": 84
    },
    {
      "midi": 66,
      "hit": false,
      "t": 230110.87500000166,
      "d": 340.90499999999884,
      "v": 84
    },
    {
      "midi": 66,
      "hit": false,
      "t": 230437.57562499974,
      "d": 1317.4557812499988,
      "v": 52
    },
    {
      "midi": 47,
      "hit": false,
      "t": 230451.77999999974,
      "d": 1061.777031250007,
      "v": 74
    },
    {
      "midi": 59,
      "hit": false,
      "t": 230451.77999999997,
      "d": 1548.2768749999523,
      "v": 44
    },
    {
      "midi": 35,
      "hit": false,
      "t": 230451.7800000007,
      "d": 767.0362500000047,
      "v": 87
    },
    {
      "midi": 66,
      "hit": false,
      "t": 230451.78000000166,
      "d": 340.90499999999884,
      "v": 84
    },
    {
      "midi": 71,
      "hit": false,
      "t": 230451.78000000166,
      "d": 340.90499999999884,
      "v": 84
    },
    {
      "midi": 66,
      "hit": false,
      "t": 230487.29093749978,
      "d": 1700.973906249972,
      "v": 107
    },
    {
      "midi": 71,
      "hit": false,
      "t": 230792.68500000166,
      "d": 340.90500000002794,
      "v": 81
    },
    {
      "midi": 74,
      "hit": false,
      "t": 230792.68500000166,
      "d": 340.90500000002794,
      "v": 81
    },
    {
      "midi": 74,
      "hit": false,
      "t": 231133.59000000168,
      "d": 340.90500000002794,
      "v": 78
    },
    {
      "midi": 78,
      "hit": false,
      "t": 231133.59000000168,
      "d": 340.90500000002794,
      "v": 78
    },
    {
      "midi": 35,
      "hit": false,
      "t": 231474.4950000007,
      "d": 255.67874999999185,
      "v": 89
    },
    {
      "midi": 86,
      "hit": false,
      "t": 231474.4950000017,
      "d": 340.90500000002794,
      "v": 78
    },
    {
      "midi": 78,
      "hit": false,
      "t": 231474.4950000017,
      "d": 351.5582812500361,
      "v": 78
    },
    {
      "midi": 60,
      "hit": false,
      "t": 231815.39999999994,
      "d": 1235.7806249999849,
      "v": 53
    },
    {
      "midi": 45,
      "hit": false,
      "t": 231815.39999999994,
      "d": 1455.9484374999884,
      "v": 39
    },
    {
      "midi": 33,
      "hit": false,
      "t": 231815.39999999994,
      "d": 1463.0506249999744,
      "v": 38
    },
    {
      "midi": 64,
      "hit": false,
      "t": 231815.39999999994,
      "d": 1484.3571874999616,
      "v": 52
    },
    {
      "midi": 57,
      "hit": false,
      "t": 231815.40000000043,
      "d": 284.0874999999942,
      "v": 70
    },
    {
      "midi": 60,
      "hit": false,
      "t": 231815.40000000043,
      "d": 284.0874999999942,
      "v": 70
    },
    {
      "midi": 64,
      "hit": false,
      "t": 231815.40000000043,
      "d": 284.0874999999942,
      "v": 70
    },
    {
      "midi": 69,
      "hit": false,
      "t": 231815.40000000043,
      "d": 284.0874999999942,
      "v": 70
    },
    {
      "midi": 33,
      "hit": false,
      "t": 231815.4000000007,
      "d": 767.0362500000047,
      "v": 93
    },
    {
      "midi": 76,
      "hit": false,
      "t": 231815.40000000174,
      "d": 1363.6200000000827,
      "v": 90
    },
    {
      "midi": 84,
      "hit": false,
      "t": 231815.40000000174,
      "d": 1363.6200000000827,
      "v": 90
    },
    {
      "midi": 57,
      "hit": false,
      "t": 231854.4620312497,
      "d": 1363.6200000000244,
      "v": 63
    },
    {
      "midi": 72,
      "hit": false,
      "t": 231861.5642187497,
      "d": 1360.0689062500314,
      "v": 64
    },
    {
      "midi": 69,
      "hit": false,
      "t": 231914.8306249997,
      "d": 2737.893281250028,
      "v": 52
    },
    {
      "midi": 45,
      "hit": false,
      "t": 232156.30500000043,
      "d": 340.90499999999884,
      "v": 70
    },
    {
      "midi": 64,
      "hit": false,
      "t": 232166.95828124977,
      "d": 252.12765624999884,
      "v": 91
    },
    {
      "midi": 57,
      "hit": false,
      "t": 232497.21000000043,
      "d": 340.90499999999884,
      "v": 60
    },
    {
      "midi": 64,
      "hit": false,
      "t": 232511.41437499976,
      "d": 195.31015624999418,
      "v": 87
    },
    {
      "midi": 64,
      "hit": false,
      "t": 232831.01281249974,
      "d": 369.31375000000116,
      "v": 87
    },
    {
      "midi": 45,
      "hit": false,
      "t": 232838.11500000043,
      "d": 284.0874999999942,
      "v": 65
    },
    {
      "midi": 57,
      "hit": false,
      "t": 232838.11500000043,
      "d": 284.0874999999942,
      "v": 65
    },
    {
      "midi": 60,
      "hit": false,
      "t": 232838.11500000043,
      "d": 284.0874999999942,
      "v": 65
    },
    {
      "midi": 64,
      "hit": false,
      "t": 232838.11500000043,
      "d": 284.0874999999942,
      "v": 65
    },
    {
      "midi": 33,
      "hit": false,
      "t": 232838.1150000007,
      "d": 255.67874999999185,
      "v": 79
    },
    {
      "midi": 66,
      "hit": false,
      "t": 233161.26453124973,
      "d": 223.7189062499965,
      "v": 80
    },
    {
      "midi": 50,
      "hit": false,
      "t": 233164.81562499973,
      "d": 1519.8681250000081,
      "v": 57
    },
    {
      "midi": 74,
      "hit": false,
      "t": 233175.46890624973,
      "d": 6139.841093750001,
      "v": 66
    },
    {
      "midi": 57,
      "hit": false,
      "t": 233179.01999999993,
      "d": 1207.3718749999534,
      "v": 11
    },
    {
      "midi": 38,
      "hit": false,
      "t": 233179.01999999993,
      "d": 1388.4776562499756,
      "v": 59
    },
    {
      "midi": 66,
      "hit": false,
      "t": 233179.01999999993,
      "d": 1466.6017187499674,
      "v": 38
    },
    {
      "midi": 62,
      "hit": false,
      "t": 233179.01999999993,
      "d": 6136.289999999979,
      "v": 58
    },
    {
      "midi": 57,
      "hit": false,
      "t": 233179.02000000043,
      "d": 284.0874999999942,
      "v": 70
    },
    {
      "midi": 62,
      "hit": false,
      "t": 233179.02000000043,
      "d": 284.0874999999942,
      "v": 70
    },
    {
      "midi": 66,
      "hit": false,
      "t": 233179.02000000043,
      "d": 284.0874999999942,
      "v": 70
    },
    {
      "midi": 38,
      "hit": false,
      "t": 233179.0200000007,
      "d": 767.0362500000047,
      "v": 87
    },
    {
      "midi": 78,
      "hit": false,
      "t": 233179.02000000182,
      "d": 1022.7150000001129,
      "v": 93
    },
    {
      "midi": 86,
      "hit": false,
      "t": 233179.02000000182,
      "d": 1022.7150000001129,
      "v": 93
    },
    {
      "midi": 66,
      "hit": false,
      "t": 233519.92499999973,
      "d": 433.23343750002095,
      "v": 85
    },
    {
      "midi": 50,
      "hit": false,
      "t": 233519.92500000042,
      "d": 340.90499999999884,
      "v": 70
    },
    {
      "midi": 57,
      "hit": false,
      "t": 233860.83000000042,
      "d": 340.90499999999884,
      "v": 60
    },
    {
      "midi": 64,
      "hit": false,
      "t": 233871.48328124973,
      "d": 330.2517187500198,
      "v": 100
    },
    {
      "midi": 62,
      "hit": false,
      "t": 234176.87734374974,
      "d": 387.06921874999534,
      "v": 100
    },
    {
      "midi": 57,
      "hit": false,
      "t": 234201.73500000042,
      "d": 284.0874999999942,
      "v": 65
    },
    {
      "midi": 62,
      "hit": false,
      "t": 234201.73500000042,
      "d": 284.0874999999942,
      "v": 65
    },
    {
      "midi": 66,
      "hit": false,
      "t": 234201.73500000042,
      "d": 284.0874999999942,
      "v": 65
    },
    {
      "midi": 69,
      "hit": false,
      "t": 234201.73500000042,
      "d": 284.0874999999942,
      "v": 65
    },
    {
      "midi": 38,
      "hit": false,
      "t": 234201.73500000068,
      "d": 255.67874999999185,
      "v": 76
    },
    {
      "midi": 76,
      "hit": false,
      "t": 234201.73500000194,
      "d": 170.45249999998487,
      "v": 93
    },
    {
      "midi": 84,
      "hit": false,
      "t": 234201.73500000194,
      "d": 340.90499999996973,
      "v": 93
    },
    {
      "midi": 78,
      "hit": false,
      "t": 234372.18750000192,
      "d": 259.22984374998487,
      "v": 93
    },
    {
      "midi": 67,
      "hit": false,
      "t": 234542.63999999975,
      "d": 4957.326874999999,
      "v": 105
    },
    {
      "midi": 43,
      "hit": false,
      "t": 234542.6399999999,
      "d": 4772.670000000013,
      "v": 38
    },
    {
      "midi": 59,
      "hit": false,
      "t": 234542.6399999999,
      "d": 4772.670000000013,
      "v": 30
    },
    {
      "midi": 67,
      "hit": false,
      "t": 234542.6399999999,
      "d": 4772.670000000013,
      "v": 43
    },
    {
      "midi": 55,
      "hit": false,
      "t": 234542.64000000042,
      "d": 1193.1675000000105,
      "v": 70
    },
    {
      "midi": 59,
      "hit": false,
      "t": 234542.64000000042,
      "d": 1193.1675000000105,
      "v": 70
    },
    {
      "midi": 62,
      "hit": false,
      "t": 234542.64000000042,
      "d": 1193.1675000000105,
      "v": 70
    },
    {
      "midi": 31,
      "hit": false,
      "t": 234542.64000000068,
      "d": 767.0362500000047,
      "v": 101
    },
    {
      "midi": 79,
      "hit": false,
      "t": 234542.6400000019,
      "d": 4772.670000000158,
      "v": 93
    },
    {
      "midi": 83,
      "hit": false,
      "t": 234542.6400000019,
      "d": 4772.670000000158,
      "v": 93
    },
    {
      "midi": 71,
      "hit": false,
      "t": 234627.86624999973,
      "d": 4687.443750000006,
      "v": 47
    },
    {
      "midi": 55,
      "hit": false,
      "t": 234663.37718749975,
      "d": 4651.932812499988,
      "v": 54
    },
    {
      "midi": 67,
      "hit": false,
      "t": 234777.01218749973,
      "d": 4538.297812500008,
      "v": 33
    },
    {
      "midi": 31,
      "hit": false,
      "t": 235565.35500000068,
      "d": 255.67874999999185,
      "v": 86
    },
    {
      "midi": 31,
      "hit": false,
      "t": 235906.26000000068,
      "d": 767.0362500000047,
      "v": 86
    },
    {
      "midi": 55,
      "hit": false,
      "t": 236247.16500000044,
      "d": 340.90499999999884,
      "v": 60
    },
    {
      "midi": 59,
      "hit": false,
      "t": 236588.07000000044,
      "d": 340.90499999999884,
      "v": 65
    },
    {
      "midi": 62,
      "hit": false,
      "t": 236928.97500000044,
      "d": 340.90499999999884,
      "v": 70
    },
    {
      "midi": 31,
      "hit": false,
      "t": 236928.97500000068,
      "d": 255.67874999999185,
      "v": 93
    },
    {
      "midi": 59,
      "hit": false,
      "t": 237269.88000000044,
      "d": 2045.429999999993,
      "v": 58
    },
    {
      "midi": 62,
      "hit": false,
      "t": 237269.88000000044,
      "d": 2045.429999999993,
      "v": 58
    },
    {
      "midi": 67,
      "hit": false,
      "t": 237269.88000000044,
      "d": 2045.429999999993,
      "v": 58
    },
    {
      "midi": 31,
      "hit": false,
      "t": 237269.88000000067,
      "d": 2045.429999999993,
      "v": 93
    }
  ]
}