{
  "jsonPath": "Animes/Wish MIDI Collection/theme.json",
  "path": "Animes\\Wish MIDI Collection\\Theme.mid",
  "name": "Theme",
  "difficulty": "Advanced",
  "bpm": 100,
  "notes": [
    {
      "midi": 65,
      "hit": false,
      "t": 0,
      "d": 143.75,
      "v": 110
    },
    {
      "midi": 67,
      "hit": false,
      "t": 150,
      "d": 143.75,
      "v": 110
    },
    {
      "midi": 69,
      "hit": false,
      "t": 300,
      "d": 293.75,
      "v": 110
    },
    {
      "midi": 72,
      "hit": false,
      "t": 600,
      "d": 293.75,
      "v": 110
    },
    {
      "midi": 67,
      "hit": false,
      "t": 900,
      "d": 293.75,
      "v": 110
    },
    {
      "midi": 69,
      "hit": false,
      "t": 1200,
      "d": 293.75,
      "v": 110
    },
    {
      "midi": 65,
      "hit": false,
      "t": 1500,
      "d": 800,
      "v": 110
    },
    {
      "midi": 62,
      "hit": false,
      "t": 2400,
      "d": 143.75,
      "v": 110
    },
    {
      "midi": 64,
      "hit": false,
      "t": 2550,
      "d": 143.75,
      "v": 110
    },
    {
      "midi": 65,
      "hit": false,
      "t": 2700,
      "d": 293.75,
      "v": 110
    },
    {
      "midi": 69,
      "hit": false,
      "t": 3000,
      "d": 293.75,
      "v": 110
    },
    {
      "midi": 64,
      "hit": false,
      "t": 3300,
      "d": 293.75,
      "v": 110
    },
    {
      "midi": 69,
      "hit": false,
      "t": 3600,
      "d": 293.75,
      "v": 110
    },
    {
      "midi": 62,
      "hit": false,
      "t": 3900,
      "d": 1050,
      "v": 110
    },
    {
      "midi": 72,
      "hit": false,
      "t": 4800,
      "d": 293.75,
      "v": 110
    },
    {
      "midi": 69,
      "hit": false,
      "t": 5100,
      "d": 500,
      "v": 110
    },
    {
      "midi": 53,
      "hit": false,
      "t": 5100,
      "d": 1050,
      "v": 110
    },
    {
      "midi": 60,
      "hit": false,
      "t": 5100,
      "d": 1050,
      "v": 110
    },
    {
      "midi": 45,
      "hit": false,
      "t": 5100,
      "d": 500,
      "v": 60
    },
    {
      "midi": 76,
      "hit": false,
      "t": 5700,
      "d": 293.75,
      "v": 110
    },
    {
      "midi": 45,
      "hit": false,
      "t": 5700,
      "d": 500,
      "v": 60
    },
    {
      "midi": 69,
      "hit": false,
      "t": 6000,
      "d": 293.75,
      "v": 110
    },
    {
      "midi": 69,
      "hit": false,
      "t": 6300,
      "d": 800,
      "v": 110
    },
    {
      "midi": 48,
      "hit": false,
      "t": 6300,
      "d": 1050,
      "v": 110
    },
    {
      "midi": 53,
      "hit": false,
      "t": 6300,
      "d": 1050,
      "v": 110
    },
    {
      "midi": 45,
      "hit": false,
      "t": 6300,
      "d": 443.75,
      "v": 60
    },
    {
      "midi": 45,
      "hit": false,
      "t": 6750,
      "d": 143.75,
      "v": 60
    },
    {
      "midi": 45,
      "hit": false,
      "t": 6900,
      "d": 500,
      "v": 60
    },
    {
      "midi": 65,
      "hit": false,
      "t": 7200,
      "d": 143.75,
      "v": 110
    },
    {
      "midi": 67,
      "hit": false,
      "t": 7350,
      "d": 143.75,
      "v": 110
    },
    {
      "midi": 69,
      "hit": false,
      "t": 7500,
      "d": 293.75,
      "v": 110
    },
    {
      "midi": 57,
      "hit": false,
      "t": 7500,
      "d": 500,
      "v": 110
    },
    {
      "midi": 60,
      "hit": false,
      "t": 7500,
      "d": 500,
      "v": 110
    },
    {
      "midi": 45,
      "hit": false,
      "t": 7500,
      "d": 500,
      "v": 60
    },
    {
      "midi": 72,
      "hit": false,
      "t": 7800,
      "d": 293.75,
      "v": 110
    },
    {
      "midi": 67,
      "hit": false,
      "t": 8100,
      "d": 293.75,
      "v": 110
    },
    {
      "midi": 55,
      "hit": false,
      "t": 8100,
      "d": 500,
      "v": 110
    },
    {
      "midi": 58,
      "hit": false,
      "t": 8100,
      "d": 500,
      "v": 110
    },
    {
      "midi": 45,
      "hit": false,
      "t": 8100,
      "d": 500,
      "v": 60
    },
    {
      "midi": 69,
      "hit": false,
      "t": 8400,
      "d": 293.75,
      "v": 110
    },
    {
      "midi": 65,
      "hit": false,
      "t": 8700,
      "d": 800,
      "v": 110
    },
    {
      "midi": 53,
      "hit": false,
      "t": 8700,
      "d": 1050,
      "v": 110
    },
    {
      "midi": 57,
      "hit": false,
      "t": 8700,
      "d": 1050,
      "v": 110
    },
    {
      "midi": 45,
      "hit": false,
      "t": 8700,
      "d": 443.75,
      "v": 60
    },
    {
      "midi": 45,
      "hit": false,
      "t": 9150,
      "d": 143.75,
      "v": 60
    },
    {
      "midi": 45,
      "hit": false,
      "t": 9300,
      "d": 500,
      "v": 60
    },
    {
      "midi": 62,
      "hit": false,
      "t": 9600,
      "d": 143.75,
      "v": 110
    },
    {
      "midi": 64,
      "hit": false,
      "t": 9750,
      "d": 143.75,
      "v": 110
    },
    {
      "midi": 65,
      "hit": false,
      "t": 9900,
      "d": 293.75,
      "v": 110
    },
    {
      "midi": 46,
      "hit": false,
      "t": 9900,
      "d": 500,
      "v": 110
    },
    {
      "midi": 50,
      "hit": false,
      "t": 9900,
      "d": 500,
      "v": 110
    },
    {
      "midi": 45,
      "hit": false,
      "t": 9900,
      "d": 500,
      "v": 60
    },
    {
      "midi": 69,
      "hit": false,
      "t": 10200,
      "d": 293.75,
      "v": 110
    },
    {
      "midi": 64,
      "hit": false,
      "t": 10500,
      "d": 293.75,
      "v": 110
    },
    {
      "midi": 48,
      "hit": false,
      "t": 10500,
      "d": 500,
      "v": 110
    },
    {
      "midi": 52,
      "hit": false,
      "t": 10500,
      "d": 500,
      "v": 110
    },
    {
      "midi": 45,
      "hit": false,
      "t": 10500,
      "d": 500,
      "v": 60
    },
    {
      "midi": 69,
      "hit": false,
      "t": 10800,
      "d": 293.75,
      "v": 110
    },
    {
      "midi": 62,
      "hit": false,
      "t": 11100,
      "d": 800,
      "v": 110
    },
    {
      "midi": 50,
      "hit": false,
      "t": 11100,
      "d": 1050,
      "v": 110
    },
    {
      "midi": 53,
      "hit": false,
      "t": 11100,
      "d": 1050,
      "v": 110
    },
    {
      "midi": 45,
      "hit": false,
      "t": 11100,
      "d": 443.75,
      "v": 60
    },
    {
      "midi": 45,
      "hit": false,
      "t": 11550,
      "d": 143.75,
      "v": 60
    },
    {
      "midi": 45,
      "hit": false,
      "t": 11700,
      "d": 500,
      "v": 60
    },
    {
      "midi": 60,
      "hit": false,
      "t": 12000,
      "d": 293.75,
      "v": 110
    },
    {
      "midi": 60,
      "hit": false,
      "t": 12300,
      "d": 500,
      "v": 110
    },
    {
      "midi": 53,
      "hit": false,
      "t": 12300,
      "d": 1050,
      "v": 110
    },
    {
      "midi": 57,
      "hit": false,
      "t": 12300,
      "d": 1050,
      "v": 110
    },
    {
      "midi": 45,
      "hit": false,
      "t": 12300,
      "d": 500,
      "v": 60
    },
    {
      "midi": 65,
      "hit": false,
      "t": 12900,
      "d": 500,
      "v": 110
    },
    {
      "midi": 45,
      "hit": false,
      "t": 12900,
      "d": 500,
      "v": 60
    },
    {
      "midi": 67,
      "hit": false,
      "t": 13500,
      "d": 800,
      "v": 110
    },
    {
      "midi": 52,
      "hit": false,
      "t": 13500,
      "d": 1050,
      "v": 110
    },
    {
      "midi": 60,
      "hit": false,
      "t": 13500,
      "d": 1050,
      "v": 110
    },
    {
      "midi": 45,
      "hit": false,
      "t": 13500,
      "d": 143.75,
      "v": 60
    },
    {
      "midi": 45,
      "hit": false,
      "t": 13650,
      "d": 293.75,
      "v": 60
    },
    {
      "midi": 45,
      "hit": false,
      "t": 13950,
      "d": 143.75,
      "v": 60
    },
    {
      "midi": 45,
      "hit": false,
      "t": 14100,
      "d": 500,
      "v": 60
    },
    {
      "midi": 72,
      "hit": false,
      "t": 14400,
      "d": 293.75,
      "v": 110
    },
    {
      "midi": 69,
      "hit": false,
      "t": 14700,
      "d": 500,
      "v": 110
    },
    {
      "midi": 53,
      "hit": false,
      "t": 14700,
      "d": 1050,
      "v": 110
    },
    {
      "midi": 60,
      "hit": false,
      "t": 14700,
      "d": 1050,
      "v": 110
    },
    {
      "midi": 45,
      "hit": false,
      "t": 14700,
      "d": 500,
      "v": 60
    },
    {
      "midi": 76,
      "hit": false,
      "t": 15300,
      "d": 293.75,
      "v": 110
    },
    {
      "midi": 45,
      "hit": false,
      "t": 15300,
      "d": 500,
      "v": 60
    },
    {
      "midi": 69,
      "hit": false,
      "t": 15600,
      "d": 293.75,
      "v": 110
    },
    {
      "midi": 69,
      "hit": false,
      "t": 15900,
      "d": 800,
      "v": 110
    },
    {
      "midi": 48,
      "hit": false,
      "t": 15900,
      "d": 1050,
      "v": 110
    },
    {
      "midi": 53,
      "hit": false,
      "t": 15900,
      "d": 1050,
      "v": 110
    },
    {
      "midi": 45,
      "hit": false,
      "t": 15900,
      "d": 443.75,
      "v": 60
    },
    {
      "midi": 45,
      "hit": false,
      "t": 16350,
      "d": 143.75,
      "v": 60
    },
    {
      "midi": 45,
      "hit": false,
      "t": 16500,
      "d": 500,
      "v": 60
    },
    {
      "midi": 65,
      "hit": false,
      "t": 16800,
      "d": 143.75,
      "v": 110
    },
    {
      "midi": 67,
      "hit": false,
      "t": 16950,
      "d": 143.75,
      "v": 110
    },
    {
      "midi": 69,
      "hit": false,
      "t": 17100,
      "d": 293.75,
      "v": 110
    },
    {
      "midi": 57,
      "hit": false,
      "t": 17100,
      "d": 500,
      "v": 110
    },
    {
      "midi": 60,
      "hit": false,
      "t": 17100,
      "d": 500,
      "v": 110
    },
    {
      "midi": 45,
      "hit": false,
      "t": 17100,
      "d": 500,
      "v": 60
    },
    {
      "midi": 72,
      "hit": false,
      "t": 17400,
      "d": 293.75,
      "v": 110
    },
    {
      "midi": 67,
      "hit": false,
      "t": 17700,
      "d": 293.75,
      "v": 110
    },
    {
      "midi": 55,
      "hit": false,
      "t": 17700,
      "d": 500,
      "v": 110
    },
    {
      "midi": 58,
      "hit": false,
      "t": 17700,
      "d": 500,
      "v": 110
    },
    {
      "midi": 45,
      "hit": false,
      "t": 17700,
      "d": 500,
      "v": 60
    },
    {
      "midi": 69,
      "hit": false,
      "t": 18000,
      "d": 293.75,
      "v": 110
    },
    {
      "midi": 65,
      "hit": false,
      "t": 18300,
      "d": 800,
      "v": 110
    },
    {
      "midi": 53,
      "hit": false,
      "t": 18300,
      "d": 1050,
      "v": 110
    },
    {
      "midi": 57,
      "hit": false,
      "t": 18300,
      "d": 1050,
      "v": 110
    },
    {
      "midi": 45,
      "hit": false,
      "t": 18300,
      "d": 443.75,
      "v": 60
    },
    {
      "midi": 45,
      "hit": false,
      "t": 18750,
      "d": 143.75,
      "v": 60
    },
    {
      "midi": 45,
      "hit": false,
      "t": 18900,
      "d": 500,
      "v": 60
    },
    {
      "midi": 62,
      "hit": false,
      "t": 19200,
      "d": 143.75,
      "v": 110
    },
    {
      "midi": 64,
      "hit": false,
      "t": 19350,
      "d": 143.75,
      "v": 110
    },
    {
      "midi": 65,
      "hit": false,
      "t": 19500,
      "d": 293.75,
      "v": 110
    },
    {
      "midi": 46,
      "hit": false,
      "t": 19500,
      "d": 500,
      "v": 110
    },
    {
      "midi": 50,
      "hit": false,
      "t": 19500,
      "d": 500,
      "v": 110
    },
    {
      "midi": 45,
      "hit": false,
      "t": 19500,
      "d": 500,
      "v": 60
    },
    {
      "midi": 69,
      "hit": false,
      "t": 19800,
      "d": 293.75,
      "v": 110
    },
    {
      "midi": 64,
      "hit": false,
      "t": 20100,
      "d": 293.75,
      "v": 110
    },
    {
      "midi": 48,
      "hit": false,
      "t": 20100,
      "d": 500,
      "v": 110
    },
    {
      "midi": 52,
      "hit": false,
      "t": 20100,
      "d": 500,
      "v": 110
    },
    {
      "midi": 45,
      "hit": false,
      "t": 20100,
      "d": 500,
      "v": 60
    },
    {
      "midi": 69,
      "hit": false,
      "t": 20400,
      "d": 293.75,
      "v": 110
    },
    {
      "midi": 62,
      "hit": false,
      "t": 20700,
      "d": 800,
      "v": 110
    },
    {
      "midi": 50,
      "hit": false,
      "t": 20700,
      "d": 1050,
      "v": 110
    },
    {
      "midi": 53,
      "hit": false,
      "t": 20700,
      "d": 1050,
      "v": 110
    },
    {
      "midi": 45,
      "hit": false,
      "t": 20700,
      "d": 443.75,
      "v": 60
    },
    {
      "midi": 45,
      "hit": false,
      "t": 21150,
      "d": 143.75,
      "v": 60
    },
    {
      "midi": 45,
      "hit": false,
      "t": 21300,
      "d": 500,
      "v": 60
    },
    {
      "midi": 60,
      "hit": false,
      "t": 21600,
      "d": 293.75,
      "v": 110
    },
    {
      "midi": 72,
      "hit": false,
      "t": 21900,
      "d": 2250,
      "v": 110
    },
    {
      "midi": 53,
      "hit": false,
      "t": 21900,
      "d": 2250,
      "v": 110
    },
    {
      "midi": 57,
      "hit": false,
      "t": 21900,
      "d": 2250,
      "v": 110
    },
    {
      "midi": 72,
      "hit": false,
      "t": 21900,
      "d": 143.75,
      "v": 110
    },
    {
      "midi": 45,
      "hit": false,
      "t": 21900,
      "d": 500,
      "v": 60
    },
    {
      "midi": 70,
      "hit": false,
      "t": 22050,
      "d": 143.75,
      "v": 110
    },
    {
      "midi": 69,
      "hit": false,
      "t": 22200,
      "d": 143.75,
      "v": 110
    },
    {
      "midi": 67,
      "hit": false,
      "t": 22350,
      "d": 650,
      "v": 110
    },
    {
      "midi": 45,
      "hit": false,
      "t": 22500,
      "d": 500,
      "v": 60
    },
    {
      "midi": 45,
      "hit": false,
      "t": 23100,
      "d": 143.75,
      "v": 60
    },
    {
      "midi": 45,
      "hit": false,
      "t": 23250,
      "d": 293.75,
      "v": 60
    },
    {
      "midi": 45,
      "hit": false,
      "t": 23550,
      "d": 143.75,
      "v": 60
    },
    {
      "midi": 45,
      "hit": false,
      "t": 23700,
      "d": 500,
      "v": 60
    },
    {
      "midi": 76,
      "hit": false,
      "t": 24300,
      "d": 143.75,
      "v": 110
    },
    {
      "midi": 38,
      "hit": false,
      "t": 24300,
      "d": 500,
      "v": 60
    },
    {
      "midi": 73,
      "hit": false,
      "t": 24450,
      "d": 143.75,
      "v": 110
    },
    {
      "midi": 71,
      "hit": false,
      "t": 24600,
      "d": 143.75,
      "v": 110
    },
    {
      "midi": 69,
      "hit": false,
      "t": 24750,
      "d": 650,
      "v": 110
    },
    {
      "midi": 38,
      "hit": false,
      "t": 24900,
      "d": 500,
      "v": 60
    },
    {
      "midi": 38,
      "hit": false,
      "t": 25500,
      "d": 143.75,
      "v": 60
    },
    {
      "midi": 38,
      "hit": false,
      "t": 25650,
      "d": 293.75,
      "v": 60
    },
    {
      "midi": 38,
      "hit": false,
      "t": 25950,
      "d": 143.75,
      "v": 60
    },
    {
      "midi": 38,
      "hit": false,
      "t": 26100,
      "d": 500,
      "v": 60
    },
    {
      "midi": 69,
      "hit": false,
      "t": 26700,
      "d": 800,
      "v": 110
    },
    {
      "midi": 50,
      "hit": false,
      "t": 26700,
      "d": 1050,
      "v": 110
    },
    {
      "midi": 57,
      "hit": false,
      "t": 26700,
      "d": 1050,
      "v": 110
    },
    {
      "midi": 37,
      "hit": false,
      "t": 26700,
      "d": 500,
      "v": 60
    },
    {
      "midi": 37,
      "hit": false,
      "t": 27300,
      "d": 500,
      "v": 60
    },
    {
      "midi": 74,
      "hit": false,
      "t": 27600,
      "d": 293.75,
      "v": 110
    },
    {
      "midi": 68,
      "hit": false,
      "t": 27900,
      "d": 800,
      "v": 110
    },
    {
      "midi": 50,
      "hit": false,
      "t": 27900,
      "d": 1050,
      "v": 110
    },
    {
      "midi": 56,
      "hit": false,
      "t": 27900,
      "d": 1050,
      "v": 110
    },
    {
      "midi": 37,
      "hit": false,
      "t": 27900,
      "d": 443.75,
      "v": 60
    },
    {
      "midi": 37,
      "hit": false,
      "t": 28350,
      "d": 143.75,
      "v": 60
    },
    {
      "midi": 61,
      "hit": false,
      "t": 28500,
      "d": 500,
      "v": 60
    },
    {
      "midi": 74,
      "hit": false,
      "t": 28800,
      "d": 293.75,
      "v": 110
    },
    {
      "midi": 67,
      "hit": false,
      "t": 29100,
      "d": 293.75,
      "v": 110
    },
    {
      "midi": 52,
      "hit": false,
      "t": 29100,
      "d": 1050,
      "v": 110
    },
    {
      "midi": 55,
      "hit": false,
      "t": 29100,
      "d": 1050,
      "v": 110
    },
    {
      "midi": 37,
      "hit": false,
      "t": 29100,
      "d": 500,
      "v": 60
    },
    {
      "midi": 66,
      "hit": false,
      "t": 29400,
      "d": 293.75,
      "v": 110
    },
    {
      "midi": 62,
      "hit": false,
      "t": 29700,
      "d": 293.75,
      "v": 110
    },
    {
      "midi": 37,
      "hit": false,
      "t": 29700,
      "d": 500,
      "v": 60
    },
    {
      "midi": 59,
      "hit": false,
      "t": 30000,
      "d": 293.75,
      "v": 110
    },
    {
      "midi": 62,
      "hit": false,
      "t": 30300,
      "d": 1050,
      "v": 110
    },
    {
      "midi": 50,
      "hit": false,
      "t": 30300,
      "d": 1050,
      "v": 110
    },
    {
      "midi": 57,
      "hit": false,
      "t": 30300,
      "d": 1050,
      "v": 110
    },
    {
      "midi": 37,
      "hit": false,
      "t": 30300,
      "d": 443.75,
      "v": 60
    },
    {
      "midi": 37,
      "hit": false,
      "t": 30750,
      "d": 143.75,
      "v": 60
    },
    {
      "midi": 61,
      "hit": false,
      "t": 30900,
      "d": 500,
      "v": 60
    },
    {
      "midi": 69,
      "hit": false,
      "t": 31500,
      "d": 800,
      "v": 110
    },
    {
      "midi": 50,
      "hit": false,
      "t": 31500,
      "d": 1050,
      "v": 110
    },
    {
      "midi": 57,
      "hit": false,
      "t": 31500,
      "d": 1050,
      "v": 110
    },
    {
      "midi": 37,
      "hit": false,
      "t": 31500,
      "d": 500,
      "v": 60
    },
    {
      "midi": 37,
      "hit": false,
      "t": 32100,
      "d": 500,
      "v": 60
    },
    {
      "midi": 74,
      "hit": false,
      "t": 32400,
      "d": 293.75,
      "v": 110
    },
    {
      "midi": 68,
      "hit": false,
      "t": 32700,
      "d": 800,
      "v": 110
    },
    {
      "midi": 50,
      "hit": false,
      "t": 32700,
      "d": 1050,
      "v": 110
    },
    {
      "midi": 56,
      "hit": false,
      "t": 32700,
      "d": 1050,
      "v": 110
    },
    {
      "midi": 37,
      "hit": false,
      "t": 32700,
      "d": 443.75,
      "v": 60
    },
    {
      "midi": 37,
      "hit": false,
      "t": 33150,
      "d": 143.75,
      "v": 60
    },
    {
      "midi": 61,
      "hit": false,
      "t": 33300,
      "d": 500,
      "v": 60
    },
    {
      "midi": 74,
      "hit": false,
      "t": 33600,
      "d": 293.75,
      "v": 110
    },
    {
      "midi": 67,
      "hit": false,
      "t": 33900,
      "d": 293.75,
      "v": 110
    },
    {
      "midi": 52,
      "hit": false,
      "t": 33900,
      "d": 1050,
      "v": 110
    },
    {
      "midi": 55,
      "hit": false,
      "t": 33900,
      "d": 1050,
      "v": 110
    },
    {
      "midi": 37,
      "hit": false,
      "t": 33900,
      "d": 500,
      "v": 60
    },
    {
      "midi": 66,
      "hit": false,
      "t": 34200,
      "d": 293.75,
      "v": 110
    },
    {
      "midi": 62,
      "hit": false,
      "t": 34500,
      "d": 293.75,
      "v": 110
    },
    {
      "midi": 37,
      "hit": false,
      "t": 34500,
      "d": 500,
      "v": 60
    },
    {
      "midi": 69,
      "hit": false,
      "t": 34800,
      "d": 1100,
      "v": 110
    },
    {
      "midi": 50,
      "hit": false,
      "t": 35100,
      "d": 1050,
      "v": 110
    },
    {
      "midi": 57,
      "hit": false,
      "t": 35100,
      "d": 1050,
      "v": 110
    },
    {
      "midi": 37,
      "hit": false,
      "t": 35100,
      "d": 443.75,
      "v": 60
    },
    {
      "midi": 37,
      "hit": false,
      "t": 35550,
      "d": 143.75,
      "v": 60
    },
    {
      "midi": 61,
      "hit": false,
      "t": 35700,
      "d": 500,
      "v": 60
    },
    {
      "midi": 62,
      "hit": false,
      "t": 36000,
      "d": 143.75,
      "v": 110
    },
    {
      "midi": 64,
      "hit": false,
      "t": 36150,
      "d": 143.75,
      "v": 110
    },
    {
      "midi": 62,
      "hit": false,
      "t": 36300,
      "d": 293.75,
      "v": 110
    },
    {
      "midi": 66,
      "hit": false,
      "t": 36300,
      "d": 293.75,
      "v": 110
    },
    {
      "midi": 45,
      "hit": false,
      "t": 36300,
      "d": 293.75,
      "v": 110
    },
    {
      "midi": 50,
      "hit": false,
      "t": 36300,
      "d": 293.75,
      "v": 110
    },
    {
      "midi": 37,
      "hit": false,
      "t": 36300,
      "d": 500,
      "v": 60
    },
    {
      "midi": 62,
      "hit": false,
      "t": 36600,
      "d": 293.75,
      "v": 110
    },
    {
      "midi": 66,
      "hit": false,
      "t": 36600,
      "d": 293.75,
      "v": 110
    },
    {
      "midi": 45,
      "hit": false,
      "t": 36600,
      "d": 293.75,
      "v": 110
    },
    {
      "midi": 50,
      "hit": false,
      "t": 36600,
      "d": 293.75,
      "v": 110
    },
    {
      "midi": 62,
      "hit": false,
      "t": 36900,
      "d": 293.75,
      "v": 110
    },
    {
      "midi": 66,
      "hit": false,
      "t": 36900,
      "d": 293.75,
      "v": 110
    },
    {
      "midi": 45,
      "hit": false,
      "t": 36900,
      "d": 293.75,
      "v": 110
    },
    {
      "midi": 50,
      "hit": false,
      "t": 36900,
      "d": 293.75,
      "v": 110
    },
    {
      "midi": 37,
      "hit": false,
      "t": 36900,
      "d": 500,
      "v": 60
    },
    {
      "midi": 62,
      "hit": false,
      "t": 37200,
      "d": 293.75,
      "v": 110
    },
    {
      "midi": 66,
      "hit": false,
      "t": 37200,
      "d": 293.75,
      "v": 110
    },
    {
      "midi": 45,
      "hit": false,
      "t": 37200,
      "d": 293.75,
      "v": 110
    },
    {
      "midi": 50,
      "hit": false,
      "t": 37200,
      "d": 293.75,
      "v": 110
    },
    {
      "midi": 62,
      "hit": false,
      "t": 37500,
      "d": 143.75,
      "v": 110
    },
    {
      "midi": 66,
      "hit": false,
      "t": 37500,
      "d": 143.75,
      "v": 110
    },
    {
      "midi": 45,
      "hit": false,
      "t": 37500,
      "d": 500,
      "v": 110
    },
    {
      "midi": 50,
      "hit": false,
      "t": 37500,
      "d": 500,
      "v": 110
    },
    {
      "midi": 37,
      "hit": false,
      "t": 37500,
      "d": 500,
      "v": 60
    },
    {
      "midi": 67,
      "hit": false,
      "t": 37650,
      "d": 143.75,
      "v": 110
    },
    {
      "midi": 66,
      "hit": false,
      "t": 37800,
      "d": 593.75,
      "v": 110
    },
    {
      "midi": 69,
      "hit": false,
      "t": 37800,
      "d": 593.75,
      "v": 110
    },
    {
      "midi": 49,
      "hit": false,
      "t": 38100,
      "d": 500,
      "v": 110
    },
    {
      "midi": 52,
      "hit": false,
      "t": 38100,
      "d": 500,
      "v": 110
    },
    {
      "midi": 37,
      "hit": false,
      "t": 38100,
      "d": 500,
      "v": 60
    },
    {
      "midi": 62,
      "hit": false,
      "t": 38400,
      "d": 143.75,
      "v": 110
    },
    {
      "midi": 64,
      "hit": false,
      "t": 38550,
      "d": 143.75,
      "v": 110
    },
    {
      "midi": 62,
      "hit": false,
      "t": 38700,
      "d": 293.75,
      "v": 110
    },
    {
      "midi": 66,
      "hit": false,
      "t": 38700,
      "d": 293.75,
      "v": 110
    },
    {
      "midi": 45,
      "hit": false,
      "t": 38700,
      "d": 293.75,
      "v": 110
    },
    {
      "midi": 50,
      "hit": false,
      "t": 38700,
      "d": 293.75,
      "v": 110
    },
    {
      "midi": 37,
      "hit": false,
      "t": 38700,
      "d": 500,
      "v": 60
    },
    {
      "midi": 62,
      "hit": false,
      "t": 39000,
      "d": 293.75,
      "v": 110
    },
    {
      "midi": 66,
      "hit": false,
      "t": 39000,
      "d": 293.75,
      "v": 110
    },
    {
      "midi": 45,
      "hit": false,
      "t": 39000,
      "d": 293.75,
      "v": 110
    },
    {
      "midi": 50,
      "hit": false,
      "t": 39000,
      "d": 293.75,
      "v": 110
    },
    {
      "midi": 62,
      "hit": false,
      "t": 39300,
      "d": 293.75,
      "v": 110
    },
    {
      "midi": 66,
      "hit": false,
      "t": 39300,
      "d": 293.75,
      "v": 110
    },
    {
      "midi": 45,
      "hit": false,
      "t": 39300,
      "d": 293.75,
      "v": 110
    },
    {
      "midi": 50,
      "hit": false,
      "t": 39300,
      "d": 293.75,
      "v": 110
    },
    {
      "midi": 37,
      "hit": false,
      "t": 39300,
      "d": 500,
      "v": 60
    },
    {
      "midi": 62,
      "hit": false,
      "t": 39600,
      "d": 293.75,
      "v": 110
    },
    {
      "midi": 66,
      "hit": false,
      "t": 39600,
      "d": 293.75,
      "v": 110
    },
    {
      "midi": 45,
      "hit": false,
      "t": 39600,
      "d": 293.75,
      "v": 110
    },
    {
      "midi": 50,
      "hit": false,
      "t": 39600,
      "d": 293.75,
      "v": 110
    },
    {
      "midi": 62,
      "hit": false,
      "t": 39900,
      "d": 143.75,
      "v": 110
    },
    {
      "midi": 66,
      "hit": false,
      "t": 39900,
      "d": 143.75,
      "v": 110
    },
    {
      "midi": 45,
      "hit": false,
      "t": 39900,
      "d": 500,
      "v": 110
    },
    {
      "midi": 50,
      "hit": false,
      "t": 39900,
      "d": 500,
      "v": 110
    },
    {
      "midi": 37,
      "hit": false,
      "t": 39900,
      "d": 443.75,
      "v": 60
    },
    {
      "midi": 67,
      "hit": false,
      "t": 40050,
      "d": 143.75,
      "v": 110
    },
    {
      "midi": 61,
      "hit": false,
      "t": 40200,
      "d": 593.75,
      "v": 110
    },
    {
      "midi": 64,
      "hit": false,
      "t": 40200,
      "d": 593.75,
      "v": 110
    },
    {
      "midi": 37,
      "hit": false,
      "t": 40350,
      "d": 143.75,
      "v": 60
    },
    {
      "midi": 45,
      "hit": false,
      "t": 40500,
      "d": 500,
      "v": 110
    },
    {
      "midi": 49,
      "hit": false,
      "t": 40500,
      "d": 500,
      "v": 110
    },
    {
      "midi": 61,
      "hit": false,
      "t": 40500,
      "d": 500,
      "v": 60
    },
    {
      "midi": 61,
      "hit": false,
      "t": 40800,
      "d": 143.75,
      "v": 110
    },
    {
      "midi": 62,
      "hit": false,
      "t": 40950,
      "d": 143.75,
      "v": 110
    },
    {
      "midi": 61,
      "hit": false,
      "t": 41100,
      "d": 293.75,
      "v": 110
    },
    {
      "midi": 64,
      "hit": false,
      "t": 41100,
      "d": 293.75,
      "v": 110
    },
    {
      "midi": 45,
      "hit": false,
      "t": 41100,
      "d": 293.75,
      "v": 110
    },
    {
      "midi": 52,
      "hit": false,
      "t": 41100,
      "d": 293.75,
      "v": 110
    },
    {
      "midi": 37,
      "hit": false,
      "t": 41100,
      "d": 500,
      "v": 60
    },
    {
      "midi": 61,
      "hit": false,
      "t": 41400,
      "d": 293.75,
      "v": 110
    },
    {
      "midi": 64,
      "hit": false,
      "t": 41400,
      "d": 293.75,
      "v": 110
    },
    {
      "midi": 45,
      "hit": false,
      "t": 41400,
      "d": 293.75,
      "v": 110
    },
    {
      "midi": 52,
      "hit": false,
      "t": 41400,
      "d": 293.75,
      "v": 110
    },
    {
      "midi": 61,
      "hit": false,
      "t": 41700,
      "d": 293.75,
      "v": 110
    },
    {
      "midi": 64,
      "hit": false,
      "t": 41700,
      "d": 293.75,
      "v": 110
    },
    {
      "midi": 45,
      "hit": false,
      "t": 41700,
      "d": 293.75,
      "v": 110
    },
    {
      "midi": 52,
      "hit": false,
      "t": 41700,
      "d": 293.75,
      "v": 110
    },
    {
      "midi": 37,
      "hit": false,
      "t": 41700,
      "d": 500,
      "v": 60
    },
    {
      "midi": 61,
      "hit": false,
      "t": 42000,
      "d": 293.75,
      "v": 110
    },
    {
      "midi": 64,
      "hit": false,
      "t": 42000,
      "d": 293.75,
      "v": 110
    },
    {
      "midi": 45,
      "hit": false,
      "t": 42000,
      "d": 293.75,
      "v": 110
    },
    {
      "midi": 52,
      "hit": false,
      "t": 42000,
      "d": 293.75,
      "v": 110
    },
    {
      "midi": 61,
      "hit": false,
      "t": 42300,
      "d": 293.75,
      "v": 110
    },
    {
      "midi": 64,
      "hit": false,
      "t": 42300,
      "d": 293.75,
      "v": 110
    },
    {
      "midi": 45,
      "hit": false,
      "t": 42300,
      "d": 500,
      "v": 110
    },
    {
      "midi": 52,
      "hit": false,
      "t": 42300,
      "d": 500,
      "v": 110
    },
    {
      "midi": 37,
      "hit": false,
      "t": 42300,
      "d": 500,
      "v": 60
    },
    {
      "midi": 61,
      "hit": false,
      "t": 42600,
      "d": 293.75,
      "v": 110
    },
    {
      "midi": 67,
      "hit": false,
      "t": 42600,
      "d": 293.75,
      "v": 110
    },
    {
      "midi": 66,
      "hit": false,
      "t": 42900,
      "d": 293.75,
      "v": 110
    },
    {
      "midi": 46,
      "hit": false,
      "t": 42900,
      "d": 500,
      "v": 110
    },
    {
      "midi": 50,
      "hit": false,
      "t": 42900,
      "d": 500,
      "v": 110
    },
    {
      "midi": 37,
      "hit": false,
      "t": 42900,
      "d": 500,
      "v": 60
    },
    {
      "midi": 61,
      "hit": false,
      "t": 43200,
      "d": 293.75,
      "v": 110
    },
    {
      "midi": 64,
      "hit": false,
      "t": 43200,
      "d": 293.75,
      "v": 110
    },
    {
      "midi": 62,
      "hit": false,
      "t": 43500,
      "d": 1050,
      "v": 110
    },
    {
      "midi": 45,
      "hit": false,
      "t": 43500,
      "d": 1050,
      "v": 110
    },
    {
      "midi": 50,
      "hit": false,
      "t": 43500,
      "d": 1050,
      "v": 110
    },
    {
      "midi": 37,
      "hit": false,
      "t": 43500,
      "d": 500,
      "v": 60
    },
    {
      "midi": 37,
      "hit": false,
      "t": 44100,
      "d": 500,
      "v": 60
    },
    {
      "midi": 71,
      "hit": false,
      "t": 44700,
      "d": 293.75,
      "v": 110
    },
    {
      "midi": 37,
      "hit": false,
      "t": 44700,
      "d": 143.75,
      "v": 60
    },
    {
      "midi": 37,
      "hit": false,
      "t": 44850,
      "d": 293.75,
      "v": 60
    },
    {
      "midi": 69,
      "hit": false,
      "t": 45000,
      "d": 293.75,
      "v": 110
    },
    {
      "midi": 37,
      "hit": false,
      "t": 45150,
      "d": 143.75,
      "v": 60
    },
    {
      "midi": 66,
      "hit": false,
      "t": 45300,
      "d": 293.75,
      "v": 110
    },
    {
      "midi": 37,
      "hit": false,
      "t": 45300,
      "d": 500,
      "v": 60
    },
    {
      "midi": 62,
      "hit": false,
      "t": 45600,
      "d": 293.75,
      "v": 110
    },
    {
      "midi": 69,
      "hit": false,
      "t": 45900,
      "d": 800,
      "v": 110
    },
    {
      "midi": 50,
      "hit": false,
      "t": 45900,
      "d": 1050,
      "v": 110
    },
    {
      "midi": 57,
      "hit": false,
      "t": 45900,
      "d": 1050,
      "v": 110
    },
    {
      "midi": 37,
      "hit": false,
      "t": 45900,
      "d": 500,
      "v": 60
    },
    {
      "midi": 37,
      "hit": false,
      "t": 46500,
      "d": 500,
      "v": 60
    },
    {
      "midi": 74,
      "hit": false,
      "t": 46800,
      "d": 293.75,
      "v": 110
    },
    {
      "midi": 68,
      "hit": false,
      "t": 47100,
      "d": 800,
      "v": 110
    },
    {
      "midi": 50,
      "hit": false,
      "t": 47100,
      "d": 1050,
      "v": 110
    },
    {
      "midi": 56,
      "hit": false,
      "t": 47100,
      "d": 1050,
      "v": 110
    },
    {
      "midi": 37,
      "hit": false,
      "t": 47100,
      "d": 443.75,
      "v": 60
    },
    {
      "midi": 37,
      "hit": false,
      "t": 47550,
      "d": 143.75,
      "v": 60
    },
    {
      "midi": 61,
      "hit": false,
      "t": 47700,
      "d": 500,
      "v": 60
    },
    {
      "midi": 74,
      "hit": false,
      "t": 48000,
      "d": 293.75,
      "v": 110
    },
    {
      "midi": 67,
      "hit": false,
      "t": 48300,
      "d": 293.75,
      "v": 110
    },
    {
      "midi": 52,
      "hit": false,
      "t": 48300,
      "d": 1050,
      "v": 110
    },
    {
      "midi": 55,
      "hit": false,
      "t": 48300,
      "d": 1050,
      "v": 110
    },
    {
      "midi": 37,
      "hit": false,
      "t": 48300,
      "d": 500,
      "v": 60
    },
    {
      "midi": 66,
      "hit": false,
      "t": 48600,
      "d": 293.75,
      "v": 110
    },
    {
      "midi": 62,
      "hit": false,
      "t": 48900,
      "d": 293.75,
      "v": 110
    },
    {
      "midi": 37,
      "hit": false,
      "t": 48900,
      "d": 500,
      "v": 60
    },
    {
      "midi": 59,
      "hit": false,
      "t": 49200,
      "d": 293.75,
      "v": 110
    },
    {
      "midi": 62,
      "hit": false,
      "t": 49500,
      "d": 1050,
      "v": 110
    },
    {
      "midi": 50,
      "hit": false,
      "t": 49500,
      "d": 1050,
      "v": 110
    },
    {
      "midi": 57,
      "hit": false,
      "t": 49500,
      "d": 1050,
      "v": 110
    },
    {
      "midi": 37,
      "hit": false,
      "t": 49500,
      "d": 443.75,
      "v": 60
    },
    {
      "midi": 37,
      "hit": false,
      "t": 49950,
      "d": 143.75,
      "v": 60
    },
    {
      "midi": 61,
      "hit": false,
      "t": 50100,
      "d": 500,
      "v": 60
    },
    {
      "midi": 69,
      "hit": false,
      "t": 50700,
      "d": 800,
      "v": 110
    },
    {
      "midi": 50,
      "hit": false,
      "t": 50700,
      "d": 1050,
      "v": 110
    },
    {
      "midi": 57,
      "hit": false,
      "t": 50700,
      "d": 1050,
      "v": 110
    },
    {
      "midi": 37,
      "hit": false,
      "t": 50700,
      "d": 500,
      "v": 60
    },
    {
      "midi": 37,
      "hit": false,
      "t": 51300,
      "d": 500,
      "v": 60
    },
    {
      "midi": 74,
      "hit": false,
      "t": 51600,
      "d": 293.75,
      "v": 110
    },
    {
      "midi": 68,
      "hit": false,
      "t": 51900,
      "d": 800,
      "v": 110
    },
    {
      "midi": 50,
      "hit": false,
      "t": 51900,
      "d": 1050,
      "v": 110
    },
    {
      "midi": 56,
      "hit": false,
      "t": 51900,
      "d": 1050,
      "v": 110
    },
    {
      "midi": 37,
      "hit": false,
      "t": 51900,
      "d": 443.75,
      "v": 60
    },
    {
      "midi": 37,
      "hit": false,
      "t": 52350,
      "d": 143.75,
      "v": 60
    },
    {
      "midi": 61,
      "hit": false,
      "t": 52500,
      "d": 500,
      "v": 60
    },
    {
      "midi": 74,
      "hit": false,
      "t": 52800,
      "d": 293.75,
      "v": 110
    },
    {
      "midi": 67,
      "hit": false,
      "t": 53100,
      "d": 293.75,
      "v": 110
    },
    {
      "midi": 52,
      "hit": false,
      "t": 53100,
      "d": 1050,
      "v": 110
    },
    {
      "midi": 55,
      "hit": false,
      "t": 53100,
      "d": 1050,
      "v": 110
    },
    {
      "midi": 37,
      "hit": false,
      "t": 53100,
      "d": 500,
      "v": 60
    },
    {
      "midi": 66,
      "hit": false,
      "t": 53400,
      "d": 293.75,
      "v": 110
    },
    {
      "midi": 62,
      "hit": false,
      "t": 53700,
      "d": 293.75,
      "v": 110
    },
    {
      "midi": 37,
      "hit": false,
      "t": 53700,
      "d": 500,
      "v": 60
    },
    {
      "midi": 69,
      "hit": false,
      "t": 54000,
      "d": 800,
      "v": 110
    },
    {
      "midi": 50,
      "hit": false,
      "t": 54300,
      "d": 1050,
      "v": 110
    },
    {
      "midi": 57,
      "hit": false,
      "t": 54300,
      "d": 1050,
      "v": 110
    },
    {
      "midi": 37,
      "hit": false,
      "t": 54300,
      "d": 443.75,
      "v": 60
    },
    {
      "midi": 37,
      "hit": false,
      "t": 54750,
      "d": 143.75,
      "v": 60
    },
    {
      "midi": 61,
      "hit": false,
      "t": 54900,
      "d": 500,
      "v": 60
    },
    {
      "midi": 62,
      "hit": false,
      "t": 55200,
      "d": 143.75,
      "v": 110
    },
    {
      "midi": 64,
      "hit": false,
      "t": 55350,
      "d": 143.75,
      "v": 110
    },
    {
      "midi": 62,
      "hit": false,
      "t": 55500,
      "d": 293.75,
      "v": 110
    },
    {
      "midi": 66,
      "hit": false,
      "t": 55500,
      "d": 293.75,
      "v": 110
    },
    {
      "midi": 45,
      "hit": false,
      "t": 55500,
      "d": 293.75,
      "v": 110
    },
    {
      "midi": 50,
      "hit": false,
      "t": 55500,
      "d": 293.75,
      "v": 110
    },
    {
      "midi": 37,
      "hit": false,
      "t": 55500,
      "d": 500,
      "v": 60
    },
    {
      "midi": 62,
      "hit": false,
      "t": 55800,
      "d": 293.75,
      "v": 110
    },
    {
      "midi": 66,
      "hit": false,
      "t": 55800,
      "d": 293.75,
      "v": 110
    },
    {
      "midi": 45,
      "hit": false,
      "t": 55800,
      "d": 293.75,
      "v": 110
    },
    {
      "midi": 50,
      "hit": false,
      "t": 55800,
      "d": 293.75,
      "v": 110
    },
    {
      "midi": 62,
      "hit": false,
      "t": 56100,
      "d": 293.75,
      "v": 110
    },
    {
      "midi": 66,
      "hit": false,
      "t": 56100,
      "d": 293.75,
      "v": 110
    },
    {
      "midi": 45,
      "hit": false,
      "t": 56100,
      "d": 293.75,
      "v": 110
    },
    {
      "midi": 50,
      "hit": false,
      "t": 56100,
      "d": 293.75,
      "v": 110
    },
    {
      "midi": 37,
      "hit": false,
      "t": 56100,
      "d": 500,
      "v": 60
    },
    {
      "midi": 62,
      "hit": false,
      "t": 56400,
      "d": 293.75,
      "v": 110
    },
    {
      "midi": 66,
      "hit": false,
      "t": 56400,
      "d": 293.75,
      "v": 110
    },
    {
      "midi": 45,
      "hit": false,
      "t": 56400,
      "d": 293.75,
      "v": 110
    },
    {
      "midi": 50,
      "hit": false,
      "t": 56400,
      "d": 293.75,
      "v": 110
    },
    {
      "midi": 62,
      "hit": false,
      "t": 56700,
      "d": 143.75,
      "v": 110
    },
    {
      "midi": 66,
      "hit": false,
      "t": 56700,
      "d": 143.75,
      "v": 110
    },
    {
      "midi": 45,
      "hit": false,
      "t": 56700,
      "d": 500,
      "v": 110
    },
    {
      "midi": 50,
      "hit": false,
      "t": 56700,
      "d": 500,
      "v": 110
    },
    {
      "midi": 37,
      "hit": false,
      "t": 56700,
      "d": 500,
      "v": 60
    },
    {
      "midi": 67,
      "hit": false,
      "t": 56850,
      "d": 143.75,
      "v": 110
    },
    {
      "midi": 66,
      "hit": false,
      "t": 57000,
      "d": 593.75,
      "v": 110
    },
    {
      "midi": 69,
      "hit": false,
      "t": 57000,
      "d": 593.75,
      "v": 110
    },
    {
      "midi": 49,
      "hit": false,
      "t": 57300,
      "d": 500,
      "v": 110
    },
    {
      "midi": 52,
      "hit": false,
      "t": 57300,
      "d": 500,
      "v": 110
    },
    {
      "midi": 37,
      "hit": false,
      "t": 57300,
      "d": 500,
      "v": 60
    },
    {
      "midi": 62,
      "hit": false,
      "t": 57600,
      "d": 143.75,
      "v": 110
    },
    {
      "midi": 64,
      "hit": false,
      "t": 57750,
      "d": 143.75,
      "v": 110
    },
    {
      "midi": 62,
      "hit": false,
      "t": 57900,
      "d": 293.75,
      "v": 110
    },
    {
      "midi": 66,
      "hit": false,
      "t": 57900,
      "d": 293.75,
      "v": 110
    },
    {
      "midi": 45,
      "hit": false,
      "t": 57900,
      "d": 293.75,
      "v": 110
    },
    {
      "midi": 50,
      "hit": false,
      "t": 57900,
      "d": 293.75,
      "v": 110
    },
    {
      "midi": 37,
      "hit": false,
      "t": 57900,
      "d": 500,
      "v": 60
    },
    {
      "midi": 62,
      "hit": false,
      "t": 58200,
      "d": 293.75,
      "v": 110
    },
    {
      "midi": 66,
      "hit": false,
      "t": 58200,
      "d": 293.75,
      "v": 110
    },
    {
      "midi": 45,
      "hit": false,
      "t": 58200,
      "d": 293.75,
      "v": 110
    },
    {
      "midi": 50,
      "hit": false,
      "t": 58200,
      "d": 293.75,
      "v": 110
    },
    {
      "midi": 62,
      "hit": false,
      "t": 58500,
      "d": 293.75,
      "v": 110
    },
    {
      "midi": 66,
      "hit": false,
      "t": 58500,
      "d": 293.75,
      "v": 110
    },
    {
      "midi": 45,
      "hit": false,
      "t": 58500,
      "d": 293.75,
      "v": 110
    },
    {
      "midi": 50,
      "hit": false,
      "t": 58500,
      "d": 293.75,
      "v": 110
    },
    {
      "midi": 37,
      "hit": false,
      "t": 58500,
      "d": 500,
      "v": 60
    },
    {
      "midi": 62,
      "hit": false,
      "t": 58800,
      "d": 293.75,
      "v": 110
    },
    {
      "midi": 66,
      "hit": false,
      "t": 58800,
      "d": 293.75,
      "v": 110
    },
    {
      "midi": 45,
      "hit": false,
      "t": 58800,
      "d": 293.75,
      "v": 110
    },
    {
      "midi": 50,
      "hit": false,
      "t": 58800,
      "d": 293.75,
      "v": 110
    },
    {
      "midi": 62,
      "hit": false,
      "t": 59100,
      "d": 143.75,
      "v": 110
    },
    {
      "midi": 66,
      "hit": false,
      "t": 59100,
      "d": 143.75,
      "v": 110
    },
    {
      "midi": 45,
      "hit": false,
      "t": 59100,
      "d": 500,
      "v": 110
    },
    {
      "midi": 50,
      "hit": false,
      "t": 59100,
      "d": 500,
      "v": 110
    },
    {
      "midi": 37,
      "hit": false,
      "t": 59100,
      "d": 443.75,
      "v": 60
    },
    {
      "midi": 67,
      "hit": false,
      "t": 59250,
      "d": 143.75,
      "v": 110
    },
    {
      "midi": 61,
      "hit": false,
      "t": 59400,
      "d": 593.75,
      "v": 110
    },
    {
      "midi": 64,
      "hit": false,
      "t": 59400,
      "d": 593.75,
      "v": 110
    },
    {
      "midi": 37,
      "hit": false,
      "t": 59550,
      "d": 143.75,
      "v": 60
    },
    {
      "midi": 45,
      "hit": false,
      "t": 59700,
      "d": 500,
      "v": 110
    },
    {
      "midi": 49,
      "hit": false,
      "t": 59700,
      "d": 500,
      "v": 110
    },
    {
      "midi": 61,
      "hit": false,
      "t": 59700,
      "d": 500,
      "v": 60
    },
    {
      "midi": 61,
      "hit": false,
      "t": 60000,
      "d": 143.75,
      "v": 110
    },
    {
      "midi": 62,
      "hit": false,
      "t": 60150,
      "d": 143.75,
      "v": 110
    },
    {
      "midi": 61,
      "hit": false,
      "t": 60300,
      "d": 293.75,
      "v": 110
    },
    {
      "midi": 64,
      "hit": false,
      "t": 60300,
      "d": 293.75,
      "v": 110
    },
    {
      "midi": 45,
      "hit": false,
      "t": 60300,
      "d": 293.75,
      "v": 110
    },
    {
      "midi": 52,
      "hit": false,
      "t": 60300,
      "d": 293.75,
      "v": 110
    },
    {
      "midi": 37,
      "hit": false,
      "t": 60300,
      "d": 500,
      "v": 60
    },
    {
      "midi": 61,
      "hit": false,
      "t": 60600,
      "d": 293.75,
      "v": 110
    },
    {
      "midi": 64,
      "hit": false,
      "t": 60600,
      "d": 293.75,
      "v": 110
    },
    {
      "midi": 45,
      "hit": false,
      "t": 60600,
      "d": 293.75,
      "v": 110
    },
    {
      "midi": 52,
      "hit": false,
      "t": 60600,
      "d": 293.75,
      "v": 110
    },
    {
      "midi": 61,
      "hit": false,
      "t": 60900,
      "d": 293.75,
      "v": 110
    },
    {
      "midi": 64,
      "hit": false,
      "t": 60900,
      "d": 293.75,
      "v": 110
    },
    {
      "midi": 45,
      "hit": false,
      "t": 60900,
      "d": 293.75,
      "v": 110
    },
    {
      "midi": 52,
      "hit": false,
      "t": 60900,
      "d": 293.75,
      "v": 110
    },
    {
      "midi": 37,
      "hit": false,
      "t": 60900,
      "d": 500,
      "v": 60
    },
    {
      "midi": 61,
      "hit": false,
      "t": 61200,
      "d": 293.75,
      "v": 110
    },
    {
      "midi": 64,
      "hit": false,
      "t": 61200,
      "d": 293.75,
      "v": 110
    },
    {
      "midi": 45,
      "hit": false,
      "t": 61200,
      "d": 293.75,
      "v": 110
    },
    {
      "midi": 52,
      "hit": false,
      "t": 61200,
      "d": 293.75,
      "v": 110
    },
    {
      "midi": 64,
      "hit": false,
      "t": 61500,
      "d": 500,
      "v": 110
    },
    {
      "midi": 67,
      "hit": false,
      "t": 61500,
      "d": 500,
      "v": 110
    },
    {
      "midi": 45,
      "hit": false,
      "t": 61500,
      "d": 500,
      "v": 110
    },
    {
      "midi": 52,
      "hit": false,
      "t": 61500,
      "d": 500,
      "v": 110
    },
    {
      "midi": 37,
      "hit": false,
      "t": 61500,
      "d": 500,
      "v": 60
    },
    {
      "midi": 66,
      "hit": false,
      "t": 62100,
      "d": 500,
      "v": 110
    },
    {
      "midi": 69,
      "hit": false,
      "t": 62100,
      "d": 500,
      "v": 110
    },
    {
      "midi": 46,
      "hit": false,
      "t": 62100,
      "d": 500,
      "v": 110
    },
    {
      "midi": 50,
      "hit": false,
      "t": 62100,
      "d": 500,
      "v": 110
    },
    {
      "midi": 37,
      "hit": false,
      "t": 62100,
      "d": 500,
      "v": 60
    },
    {
      "midi": 59,
      "hit": false,
      "t": 62700,
      "d": 800,
      "v": 110
    },
    {
      "midi": 62,
      "hit": false,
      "t": 62700,
      "d": 800,
      "v": 110
    },
    {
      "midi": 47,
      "hit": false,
      "t": 62700,
      "d": 800,
      "v": 110
    },
    {
      "midi": 50,
      "hit": false,
      "t": 62700,
      "d": 800,
      "v": 110
    },
    {
      "midi": 37,
      "hit": false,
      "t": 62700,
      "d": 500,
      "v": 60
    },
    {
      "midi": 37,
      "hit": false,
      "t": 63300,
      "d": 500,
      "v": 60
    },
    {
      "midi": 59,
      "hit": false,
      "t": 63600,
      "d": 143.75,
      "v": 110
    },
    {
      "midi": 62,
      "hit": false,
      "t": 63750,
      "d": 143.75,
      "v": 110
    },
    {
      "midi": 61,
      "hit": false,
      "t": 63900,
      "d": 800,
      "v": 110
    },
    {
      "midi": 69,
      "hit": false,
      "t": 63900,
      "d": 800,
      "v": 110
    },
    {
      "midi": 49,
      "hit": false,
      "t": 63900,
      "d": 1050,
      "v": 110
    },
    {
      "midi": 52,
      "hit": false,
      "t": 63900,
      "d": 1050,
      "v": 110
    },
    {
      "midi": 37,
      "hit": false,
      "t": 63900,
      "d": 443.75,
      "v": 60
    },
    {
      "midi": 37,
      "hit": false,
      "t": 64350,
      "d": 143.75,
      "v": 60
    },
    {
      "midi": 61,
      "hit": false,
      "t": 64500,
      "d": 500,
      "v": 60
    },
    {
      "midi": 61,
      "hit": false,
      "t": 64800,
      "d": 293.75,
      "v": 110
    },
    {
      "midi": 59,
      "hit": false,
      "t": 65100,
      "d": 800,
      "v": 110
    },
    {
      "midi": 62,
      "hit": false,
      "t": 65100,
      "d": 800,
      "v": 110
    },
    {
      "midi": 47,
      "hit": false,
      "t": 65100,
      "d": 1050,
      "v": 110
    },
    {
      "midi": 50,
      "hit": false,
      "t": 65100,
      "d": 1050,
      "v": 110
    },
    {
      "midi": 37,
      "hit": false,
      "t": 65100,
      "d": 500,
      "v": 60
    },
    {
      "midi": 37,
      "hit": false,
      "t": 65700,
      "d": 500,
      "v": 60
    },
    {
      "midi": 59,
      "hit": false,
      "t": 66000,
      "d": 143.75,
      "v": 110
    },
    {
      "midi": 62,
      "hit": false,
      "t": 66150,
      "d": 143.75,
      "v": 110
    },
    {
      "midi": 61,
      "hit": false,
      "t": 66300,
      "d": 800,
      "v": 110
    },
    {
      "midi": 69,
      "hit": false,
      "t": 66300,
      "d": 800,
      "v": 110
    },
    {
      "midi": 49,
      "hit": false,
      "t": 66300,
      "d": 1050,
      "v": 110
    },
    {
      "midi": 52,
      "hit": false,
      "t": 66300,
      "d": 1050,
      "v": 110
    },
    {
      "midi": 37,
      "hit": false,
      "t": 66300,
      "d": 443.75,
      "v": 60
    },
    {
      "midi": 37,
      "hit": false,
      "t": 66750,
      "d": 143.75,
      "v": 60
    },
    {
      "midi": 61,
      "hit": false,
      "t": 66900,
      "d": 500,
      "v": 60
    },
    {
      "midi": 61,
      "hit": false,
      "t": 67200,
      "d": 293.75,
      "v": 110
    },
    {
      "midi": 59,
      "hit": false,
      "t": 67500,
      "d": 800,
      "v": 110
    },
    {
      "midi": 62,
      "hit": false,
      "t": 67500,
      "d": 800,
      "v": 110
    },
    {
      "midi": 47,
      "hit": false,
      "t": 67500,
      "d": 1050,
      "v": 110
    },
    {
      "midi": 50,
      "hit": false,
      "t": 67500,
      "d": 1050,
      "v": 110
    },
    {
      "midi": 37,
      "hit": false,
      "t": 67500,
      "d": 500,
      "v": 60
    },
    {
      "midi": 37,
      "hit": false,
      "t": 68100,
      "d": 500,
      "v": 60
    },
    {
      "midi": 59,
      "hit": false,
      "t": 68400,
      "d": 143.75,
      "v": 110
    },
    {
      "midi": 62,
      "hit": false,
      "t": 68550,
      "d": 143.75,
      "v": 110
    },
    {
      "midi": 67,
      "hit": false,
      "t": 68700,
      "d": 2900,
      "v": 110
    },
    {
      "midi": 46,
      "hit": false,
      "t": 68700,
      "d": 2900,
      "v": 110
    },
    {
      "midi": 55,
      "hit": false,
      "t": 68700,
      "d": 2900,
      "v": 110
    },
    {
      "midi": 62,
      "hit": false,
      "t": 68700,
      "d": 500,
      "v": 110
    },
    {
      "midi": 38,
      "hit": false,
      "t": 68700,
      "d": 500,
      "v": 60
    },
    {
      "midi": 67,
      "hit": false,
      "t": 69300,
      "d": 500,
      "v": 110
    },
    {
      "midi": 42,
      "hit": false,
      "t": 69300,
      "d": 500,
      "v": 60
    },
    {
      "midi": 69,
      "hit": false,
      "t": 69900,
      "d": 500,
      "v": 110
    },
    {
      "midi": 37,
      "hit": false,
      "t": 69900,
      "d": 443.75,
      "v": 60
    },
    {
      "midi": 37,
      "hit": false,
      "t": 70350,
      "d": 143.75,
      "v": 60
    },
    {
      "midi": 70,
      "hit": false,
      "t": 70500,
      "d": 500,
      "v": 110
    },
    {
      "midi": 61,
      "hit": false,
      "t": 70500,
      "d": 500,
      "v": 60
    },
    {
      "midi": 69,
      "hit": false,
      "t": 71100,
      "d": 500,
      "v": 110
    },
    {
      "midi": 38,
      "hit": false,
      "t": 71100,
      "d": 500,
      "v": 60
    },
    {
      "midi": 70,
      "hit": false,
      "t": 71700,
      "d": 500,
      "v": 110
    },
    {
      "midi": 42,
      "hit": false,
      "t": 71700,
      "d": 500,
      "v": 60
    },
    {
      "midi": 72,
      "hit": false,
      "t": 72300,
      "d": 500,
      "v": 110
    },
    {
      "midi": 37,
      "hit": false,
      "t": 72300,
      "d": 443.75,
      "v": 60
    },
    {
      "midi": 37,
      "hit": false,
      "t": 72750,
      "d": 143.75,
      "v": 60
    },
    {
      "midi": 74,
      "hit": false,
      "t": 72900,
      "d": 500,
      "v": 110
    },
    {
      "midi": 61,
      "hit": false,
      "t": 72900,
      "d": 500,
      "v": 60
    },
    {
      "midi": 72,
      "hit": false,
      "t": 73200,
      "d": 293.75,
      "v": 110
    },
    {
      "midi": 69,
      "hit": false,
      "t": 73500,
      "d": 500,
      "v": 110
    },
    {
      "midi": 53,
      "hit": false,
      "t": 73500,
      "d": 1050,
      "v": 110
    },
    {
      "midi": 60,
      "hit": false,
      "t": 73500,
      "d": 1050,
      "v": 110
    },
    {
      "midi": 45,
      "hit": false,
      "t": 73500,
      "d": 500,
      "v": 60
    },
    {
      "midi": 76,
      "hit": false,
      "t": 74100,
      "d": 293.75,
      "v": 110
    },
    {
      "midi": 45,
      "hit": false,
      "t": 74100,
      "d": 500,
      "v": 60
    },
    {
      "midi": 69,
      "hit": false,
      "t": 74400,
      "d": 293.75,
      "v": 110
    },
    {
      "midi": 69,
      "hit": false,
      "t": 74700,
      "d": 800,
      "v": 110
    },
    {
      "midi": 48,
      "hit": false,
      "t": 74700,
      "d": 1050,
      "v": 110
    },
    {
      "midi": 53,
      "hit": false,
      "t": 74700,
      "d": 1050,
      "v": 110
    },
    {
      "midi": 45,
      "hit": false,
      "t": 74700,
      "d": 443.75,
      "v": 60
    },
    {
      "midi": 45,
      "hit": false,
      "t": 75150,
      "d": 143.75,
      "v": 60
    },
    {
      "midi": 45,
      "hit": false,
      "t": 75300,
      "d": 500,
      "v": 60
    },
    {
      "midi": 65,
      "hit": false,
      "t": 75600,
      "d": 143.75,
      "v": 110
    },
    {
      "midi": 67,
      "hit": false,
      "t": 75750,
      "d": 143.75,
      "v": 110
    },
    {
      "midi": 69,
      "hit": false,
      "t": 75900,
      "d": 293.75,
      "v": 110
    },
    {
      "midi": 57,
      "hit": false,
      "t": 75900,
      "d": 500,
      "v": 110
    },
    {
      "midi": 60,
      "hit": false,
      "t": 75900,
      "d": 500,
      "v": 110
    },
    {
      "midi": 45,
      "hit": false,
      "t": 75900,
      "d": 500,
      "v": 60
    },
    {
      "midi": 72,
      "hit": false,
      "t": 76200,
      "d": 293.75,
      "v": 110
    },
    {
      "midi": 67,
      "hit": false,
      "t": 76500,
      "d": 293.75,
      "v": 110
    },
    {
      "midi": 55,
      "hit": false,
      "t": 76500,
      "d": 500,
      "v": 110
    },
    {
      "midi": 58,
      "hit": false,
      "t": 76500,
      "d": 500,
      "v": 110
    },
    {
      "midi": 45,
      "hit": false,
      "t": 76500,
      "d": 500,
      "v": 60
    },
    {
      "midi": 69,
      "hit": false,
      "t": 76800,
      "d": 293.75,
      "v": 110
    },
    {
      "midi": 65,
      "hit": false,
      "t": 77100,
      "d": 800,
      "v": 110
    },
    {
      "midi": 53,
      "hit": false,
      "t": 77100,
      "d": 1050,
      "v": 110
    },
    {
      "midi": 57,
      "hit": false,
      "t": 77100,
      "d": 1050,
      "v": 110
    },
    {
      "midi": 45,
      "hit": false,
      "t": 77100,
      "d": 443.75,
      "v": 60
    },
    {
      "midi": 45,
      "hit": false,
      "t": 77550,
      "d": 143.75,
      "v": 60
    },
    {
      "midi": 45,
      "hit": false,
      "t": 77700,
      "d": 500,
      "v": 60
    },
    {
      "midi": 62,
      "hit": false,
      "t": 78000,
      "d": 143.75,
      "v": 110
    },
    {
      "midi": 64,
      "hit": false,
      "t": 78150,
      "d": 143.75,
      "v": 110
    },
    {
      "midi": 65,
      "hit": false,
      "t": 78300,
      "d": 293.75,
      "v": 110
    },
    {
      "midi": 46,
      "hit": false,
      "t": 78300,
      "d": 500,
      "v": 110
    },
    {
      "midi": 50,
      "hit": false,
      "t": 78300,
      "d": 500,
      "v": 110
    },
    {
      "midi": 45,
      "hit": false,
      "t": 78300,
      "d": 500,
      "v": 60
    },
    {
      "midi": 69,
      "hit": false,
      "t": 78600,
      "d": 293.75,
      "v": 110
    },
    {
      "midi": 64,
      "hit": false,
      "t": 78900,
      "d": 293.75,
      "v": 110
    },
    {
      "midi": 48,
      "hit": false,
      "t": 78900,
      "d": 500,
      "v": 110
    },
    {
      "midi": 52,
      "hit": false,
      "t": 78900,
      "d": 500,
      "v": 110
    },
    {
      "midi": 45,
      "hit": false,
      "t": 78900,
      "d": 500,
      "v": 60
    },
    {
      "midi": 69,
      "hit": false,
      "t": 79200,
      "d": 293.75,
      "v": 110
    },
    {
      "midi": 62,
      "hit": false,
      "t": 79500,
      "d": 800,
      "v": 110
    },
    {
      "midi": 50,
      "hit": false,
      "t": 79500,
      "d": 1050,
      "v": 110
    },
    {
      "midi": 53,
      "hit": false,
      "t": 79500,
      "d": 1050,
      "v": 110
    },
    {
      "midi": 45,
      "hit": false,
      "t": 79500,
      "d": 443.75,
      "v": 60
    },
    {
      "midi": 45,
      "hit": false,
      "t": 79950,
      "d": 143.75,
      "v": 60
    },
    {
      "midi": 45,
      "hit": false,
      "t": 80100,
      "d": 500,
      "v": 60
    },
    {
      "midi": 60,
      "hit": false,
      "t": 80400,
      "d": 293.75,
      "v": 110
    },
    {
      "midi": 60,
      "hit": false,
      "t": 80700,
      "d": 500,
      "v": 110
    },
    {
      "midi": 53,
      "hit": false,
      "t": 80700,
      "d": 1050,
      "v": 110
    },
    {
      "midi": 57,
      "hit": false,
      "t": 80700,
      "d": 1050,
      "v": 110
    },
    {
      "midi": 45,
      "hit": false,
      "t": 80700,
      "d": 500,
      "v": 60
    },
    {
      "midi": 65,
      "hit": false,
      "t": 81300,
      "d": 500,
      "v": 110
    },
    {
      "midi": 45,
      "hit": false,
      "t": 81300,
      "d": 500,
      "v": 60
    },
    {
      "midi": 67,
      "hit": false,
      "t": 81900,
      "d": 800,
      "v": 110
    },
    {
      "midi": 52,
      "hit": false,
      "t": 81900,
      "d": 1050,
      "v": 110
    },
    {
      "midi": 60,
      "hit": false,
      "t": 81900,
      "d": 1050,
      "v": 110
    },
    {
      "midi": 45,
      "hit": false,
      "t": 81900,
      "d": 143.75,
      "v": 60
    },
    {
      "midi": 45,
      "hit": false,
      "t": 82050,
      "d": 293.75,
      "v": 60
    },
    {
      "midi": 45,
      "hit": false,
      "t": 82350,
      "d": 143.75,
      "v": 60
    },
    {
      "midi": 45,
      "hit": false,
      "t": 82500,
      "d": 500,
      "v": 60
    },
    {
      "midi": 72,
      "hit": false,
      "t": 82800,
      "d": 293.75,
      "v": 110
    },
    {
      "midi": 69,
      "hit": false,
      "t": 83100,
      "d": 500,
      "v": 110
    },
    {
      "midi": 53,
      "hit": false,
      "t": 83100,
      "d": 1050,
      "v": 110
    },
    {
      "midi": 60,
      "hit": false,
      "t": 83100,
      "d": 1050,
      "v": 110
    },
    {
      "midi": 45,
      "hit": false,
      "t": 83100,
      "d": 500,
      "v": 60
    },
    {
      "midi": 76,
      "hit": false,
      "t": 83700,
      "d": 293.75,
      "v": 110
    },
    {
      "midi": 45,
      "hit": false,
      "t": 83700,
      "d": 500,
      "v": 60
    },
    {
      "midi": 69,
      "hit": false,
      "t": 84000,
      "d": 293.75,
      "v": 110
    },
    {
      "midi": 69,
      "hit": false,
      "t": 84300,
      "d": 800,
      "v": 110
    },
    {
      "midi": 48,
      "hit": false,
      "t": 84300,
      "d": 1050,
      "v": 110
    },
    {
      "midi": 53,
      "hit": false,
      "t": 84300,
      "d": 1050,
      "v": 110
    },
    {
      "midi": 45,
      "hit": false,
      "t": 84300,
      "d": 443.75,
      "v": 60
    },
    {
      "midi": 45,
      "hit": false,
      "t": 84750,
      "d": 143.75,
      "v": 60
    },
    {
      "midi": 45,
      "hit": false,
      "t": 84900,
      "d": 500,
      "v": 60
    },
    {
      "midi": 65,
      "hit": false,
      "t": 85200,
      "d": 143.75,
      "v": 110
    },
    {
      "midi": 67,
      "hit": false,
      "t": 85350,
      "d": 143.75,
      "v": 110
    },
    {
      "midi": 69,
      "hit": false,
      "t": 85500,
      "d": 293.75,
      "v": 110
    },
    {
      "midi": 57,
      "hit": false,
      "t": 85500,
      "d": 500,
      "v": 110
    },
    {
      "midi": 60,
      "hit": false,
      "t": 85500,
      "d": 500,
      "v": 110
    },
    {
      "midi": 45,
      "hit": false,
      "t": 85500,
      "d": 500,
      "v": 60
    },
    {
      "midi": 72,
      "hit": false,
      "t": 85800,
      "d": 293.75,
      "v": 110
    },
    {
      "midi": 67,
      "hit": false,
      "t": 86100,
      "d": 293.75,
      "v": 110
    },
    {
      "midi": 55,
      "hit": false,
      "t": 86100,
      "d": 500,
      "v": 110
    },
    {
      "midi": 58,
      "hit": false,
      "t": 86100,
      "d": 500,
      "v": 110
    },
    {
      "midi": 45,
      "hit": false,
      "t": 86100,
      "d": 500,
      "v": 60
    },
    {
      "midi": 69,
      "hit": false,
      "t": 86400,
      "d": 143.75,
      "v": 110
    },
    {
      "midi": 67,
      "hit": false,
      "t": 86550,
      "d": 143.75,
      "v": 110
    },
    {
      "midi": 65,
      "hit": false,
      "t": 86700,
      "d": 800,
      "v": 110
    },
    {
      "midi": 53,
      "hit": false,
      "t": 86700,
      "d": 1050,
      "v": 110
    },
    {
      "midi": 57,
      "hit": false,
      "t": 86700,
      "d": 1050,
      "v": 110
    },
    {
      "midi": 45,
      "hit": false,
      "t": 86700,
      "d": 443.75,
      "v": 60
    },
    {
      "midi": 45,
      "hit": false,
      "t": 87150,
      "d": 143.75,
      "v": 60
    },
    {
      "midi": 45,
      "hit": false,
      "t": 87300,
      "d": 500,
      "v": 60
    },
    {
      "midi": 62,
      "hit": false,
      "t": 87600,
      "d": 143.75,
      "v": 110
    },
    {
      "midi": 64,
      "hit": false,
      "t": 87750,
      "d": 143.75,
      "v": 110
    },
    {
      "midi": 65,
      "hit": false,
      "t": 87900,
      "d": 293.75,
      "v": 110
    },
    {
      "midi": 46,
      "hit": false,
      "t": 87900,
      "d": 500,
      "v": 110
    },
    {
      "midi": 50,
      "hit": false,
      "t": 87900,
      "d": 500,
      "v": 110
    },
    {
      "midi": 45,
      "hit": false,
      "t": 87900,
      "d": 500,
      "v": 60
    },
    {
      "midi": 69,
      "hit": false,
      "t": 88200,
      "d": 293.75,
      "v": 110
    },
    {
      "midi": 64,
      "hit": false,
      "t": 88500,
      "d": 293.75,
      "v": 110
    },
    {
      "midi": 48,
      "hit": false,
      "t": 88500,
      "d": 500,
      "v": 110
    },
    {
      "midi": 52,
      "hit": false,
      "t": 88500,
      "d": 500,
      "v": 110
    },
    {
      "midi": 45,
      "hit": false,
      "t": 88500,
      "d": 500,
      "v": 60
    },
    {
      "midi": 69,
      "hit": false,
      "t": 88800,
      "d": 293.75,
      "v": 110
    },
    {
      "midi": 62,
      "hit": false,
      "t": 89100,
      "d": 800,
      "v": 110
    },
    {
      "midi": 50,
      "hit": false,
      "t": 89100,
      "d": 1050,
      "v": 110
    },
    {
      "midi": 53,
      "hit": false,
      "t": 89100,
      "d": 1050,
      "v": 110
    },
    {
      "midi": 45,
      "hit": false,
      "t": 89100,
      "d": 443.75,
      "v": 60
    },
    {
      "midi": 45,
      "hit": false,
      "t": 89550,
      "d": 143.75,
      "v": 60
    },
    {
      "midi": 45,
      "hit": false,
      "t": 89700,
      "d": 500,
      "v": 60
    },
    {
      "midi": 60,
      "hit": false,
      "t": 90000,
      "d": 293.75,
      "v": 110
    },
    {
      "midi": 72,
      "hit": false,
      "t": 90300,
      "d": 1700,
      "v": 110
    },
    {
      "midi": 53,
      "hit": false,
      "t": 90300,
      "d": 1700,
      "v": 110
    },
    {
      "midi": 57,
      "hit": false,
      "t": 90300,
      "d": 1700,
      "v": 110
    },
    {
      "midi": 69,
      "hit": false,
      "t": 90300,
      "d": 293.75,
      "v": 110
    },
    {
      "midi": 45,
      "hit": false,
      "t": 90300,
      "d": 500,
      "v": 60
    },
    {
      "midi": 70,
      "hit": false,
      "t": 90600,
      "d": 293.75,
      "v": 110
    },
    {
      "midi": 72,
      "hit": false,
      "t": 90900,
      "d": 293.75,
      "v": 110
    },
    {
      "midi": 45,
      "hit": false,
      "t": 90900,
      "d": 500,
      "v": 60
    },
    {
      "midi": 70,
      "hit": false,
      "t": 91200,
      "d": 293.75,
      "v": 110
    },
    {
      "midi": 69,
      "hit": false,
      "t": 91500,
      "d": 500,
      "v": 110
    },
    {
      "midi": 45,
      "hit": false,
      "t": 91500,
      "d": 143.75,
      "v": 60
    },
    {
      "midi": 45,
      "hit": false,
      "t": 91650,
      "d": 293.75,
      "v": 60
    },
    {
      "midi": 45,
      "hit": false,
      "t": 91950,
      "d": 143.75,
      "v": 60
    },
    {
      "midi": 45,
      "hit": false,
      "t": 92100,
      "d": 500,
      "v": 60
    },
    {
      "midi": 72,
      "hit": false,
      "t": 92400,
      "d": 293.75,
      "v": 110
    },
    {
      "midi": 68,
      "hit": false,
      "t": 92700,
      "d": 293.75,
      "v": 110
    },
    {
      "midi": 72,
      "hit": false,
      "t": 92700,
      "d": 293.75,
      "v": 110
    },
    {
      "midi": 48,
      "hit": false,
      "t": 92700,
      "d": 293.75,
      "v": 110
    },
    {
      "midi": 56,
      "hit": false,
      "t": 92700,
      "d": 293.75,
      "v": 110
    },
    {
      "midi": 38,
      "hit": false,
      "t": 92700,
      "d": 293.75,
      "v": 60
    },
    {
      "midi": 45,
      "hit": false,
      "t": 92700,
      "d": 293.75,
      "v": 60
    },
    {
      "midi": 67,
      "hit": false,
      "t": 93000,
      "d": 293.75,
      "v": 110
    },
    {
      "midi": 70,
      "hit": false,
      "t": 93000,
      "d": 293.75,
      "v": 110
    },
    {
      "midi": 46,
      "hit": false,
      "t": 93000,
      "d": 293.75,
      "v": 110
    },
    {
      "midi": 55,
      "hit": false,
      "t": 93000,
      "d": 293.75,
      "v": 110
    },
    {
      "midi": 45,
      "hit": false,
      "t": 93000,
      "d": 293.75,
      "v": 60
    },
    {
      "midi": 65,
      "hit": false,
      "t": 93300,
      "d": 293.75,
      "v": 110
    },
    {
      "midi": 68,
      "hit": false,
      "t": 93300,
      "d": 293.75,
      "v": 110
    },
    {
      "midi": 44,
      "hit": false,
      "t": 93300,
      "d": 293.75,
      "v": 110
    },
    {
      "midi": 53,
      "hit": false,
      "t": 93300,
      "d": 293.75,
      "v": 110
    },
    {
      "midi": 38,
      "hit": false,
      "t": 93300,
      "d": 293.75,
      "v": 60
    },
    {
      "midi": 45,
      "hit": false,
      "t": 93300,
      "d": 293.75,
      "v": 60
    },
    {
      "midi": 63,
      "hit": false,
      "t": 93600,
      "d": 293.75,
      "v": 110
    },
    {
      "midi": 67,
      "hit": false,
      "t": 93600,
      "d": 293.75,
      "v": 110
    },
    {
      "midi": 46,
      "hit": false,
      "t": 93600,
      "d": 293.75,
      "v": 110
    },
    {
      "midi": 50,
      "hit": false,
      "t": 93600,
      "d": 293.75,
      "v": 110
    },
    {
      "midi": 45,
      "hit": false,
      "t": 93600,
      "d": 143.75,
      "v": 60
    },
    {
      "midi": 45,
      "hit": false,
      "t": 93750,
      "d": 143.75,
      "v": 60
    },
    {
      "midi": 67,
      "hit": false,
      "t": 93900,
      "d": 293.75,
      "v": 110
    },
    {
      "midi": 70,
      "hit": false,
      "t": 93900,
      "d": 293.75,
      "v": 110
    },
    {
      "midi": 46,
      "hit": false,
      "t": 93900,
      "d": 293.75,
      "v": 110
    },
    {
      "midi": 55,
      "hit": false,
      "t": 93900,
      "d": 293.75,
      "v": 110
    },
    {
      "midi": 38,
      "hit": false,
      "t": 93900,
      "d": 293.75,
      "v": 60
    },
    {
      "midi": 45,
      "hit": false,
      "t": 93900,
      "d": 293.75,
      "v": 60
    },
    {
      "midi": 65,
      "hit": false,
      "t": 94200,
      "d": 293.75,
      "v": 110
    },
    {
      "midi": 68,
      "hit": false,
      "t": 94200,
      "d": 293.75,
      "v": 110
    },
    {
      "midi": 44,
      "hit": false,
      "t": 94200,
      "d": 293.75,
      "v": 110
    },
    {
      "midi": 53,
      "hit": false,
      "t": 94200,
      "d": 293.75,
      "v": 110
    },
    {
      "midi": 45,
      "hit": false,
      "t": 94200,
      "d": 293.75,
      "v": 60
    },
    {
      "midi": 67,
      "hit": false,
      "t": 94500,
      "d": 293.75,
      "v": 110
    },
    {
      "midi": 46,
      "hit": false,
      "t": 94500,
      "d": 293.75,
      "v": 110
    },
    {
      "midi": 50,
      "hit": false,
      "t": 94500,
      "d": 293.75,
      "v": 110
    },
    {
      "midi": 38,
      "hit": false,
      "t": 94500,
      "d": 293.75,
      "v": 60
    },
    {
      "midi": 45,
      "hit": false,
      "t": 94500,
      "d": 293.75,
      "v": 60
    },
    {
      "midi": 63,
      "hit": false,
      "t": 94800,
      "d": 293.75,
      "v": 110
    },
    {
      "midi": 51,
      "hit": false,
      "t": 94800,
      "d": 293.75,
      "v": 110
    },
    {
      "midi": 55,
      "hit": false,
      "t": 94800,
      "d": 293.75,
      "v": 110
    },
    {
      "midi": 45,
      "hit": false,
      "t": 94800,
      "d": 143.75,
      "v": 60
    },
    {
      "midi": 45,
      "hit": false,
      "t": 94950,
      "d": 143.75,
      "v": 60
    },
    {
      "midi": 60,
      "hit": false,
      "t": 95100,
      "d": 2000,
      "v": 110
    },
    {
      "midi": 48,
      "hit": false,
      "t": 95100,
      "d": 2000,
      "v": 110
    },
    {
      "midi": 38,
      "hit": false,
      "t": 95100,
      "d": 293.75,
      "v": 60
    },
    {
      "midi": 45,
      "hit": false,
      "t": 95100,
      "d": 293.75,
      "v": 60
    },
    {
      "midi": 45,
      "hit": false,
      "t": 95400,
      "d": 293.75,
      "v": 60
    },
    {
      "midi": 38,
      "hit": false,
      "t": 95700,
      "d": 293.75,
      "v": 60
    },
    {
      "midi": 45,
      "hit": false,
      "t": 95700,
      "d": 293.75,
      "v": 60
    },
    {
      "midi": 45,
      "hit": false,
      "t": 96000,
      "d": 143.75,
      "v": 60
    },
    {
      "midi": 45,
      "hit": false,
      "t": 96150,
      "d": 143.75,
      "v": 60
    },
    {
      "midi": 38,
      "hit": false,
      "t": 96300,
      "d": 293.75,
      "v": 60
    },
    {
      "midi": 45,
      "hit": false,
      "t": 96300,
      "d": 293.75,
      "v": 60
    },
    {
      "midi": 45,
      "hit": false,
      "t": 96600,
      "d": 293.75,
      "v": 60
    },
    {
      "midi": 38,
      "hit": false,
      "t": 96900,
      "d": 293.75,
      "v": 60
    },
    {
      "midi": 45,
      "hit": false,
      "t": 96900,
      "d": 293.75,
      "v": 60
    },
    {
      "midi": 60,
      "hit": false,
      "t": 97200,
      "d": 293.75,
      "v": 110
    },
    {
      "midi": 45,
      "hit": false,
      "t": 97200,
      "d": 143.75,
      "v": 60
    },
    {
      "midi": 45,
      "hit": false,
      "t": 97350,
      "d": 143.75,
      "v": 60
    },
    {
      "midi": 68,
      "hit": false,
      "t": 97500,
      "d": 293.75,
      "v": 110
    },
    {
      "midi": 72,
      "hit": false,
      "t": 97500,
      "d": 293.75,
      "v": 110
    },
    {
      "midi": 48,
      "hit": false,
      "t": 97500,
      "d": 293.75,
      "v": 110
    },
    {
      "midi": 56,
      "hit": false,
      "t": 97500,
      "d": 293.75,
      "v": 110
    },
    {
      "midi": 38,
      "hit": false,
      "t": 97500,
      "d": 293.75,
      "v": 60
    },
    {
      "midi": 45,
      "hit": false,
      "t": 97500,
      "d": 293.75,
      "v": 60
    },
    {
      "midi": 67,
      "hit": false,
      "t": 97800,
      "d": 293.75,
      "v": 110
    },
    {
      "midi": 70,
      "hit": false,
      "t": 97800,
      "d": 293.75,
      "v": 110
    },
    {
      "midi": 46,
      "hit": false,
      "t": 97800,
      "d": 293.75,
      "v": 110
    },
    {
      "midi": 55,
      "hit": false,
      "t": 97800,
      "d": 293.75,
      "v": 110
    },
    {
      "midi": 45,
      "hit": false,
      "t": 97800,
      "d": 293.75,
      "v": 60
    },
    {
      "midi": 65,
      "hit": false,
      "t": 98100,
      "d": 293.75,
      "v": 110
    },
    {
      "midi": 68,
      "hit": false,
      "t": 98100,
      "d": 293.75,
      "v": 110
    },
    {
      "midi": 44,
      "hit": false,
      "t": 98100,
      "d": 293.75,
      "v": 110
    },
    {
      "midi": 53,
      "hit": false,
      "t": 98100,
      "d": 293.75,
      "v": 110
    },
    {
      "midi": 38,
      "hit": false,
      "t": 98100,
      "d": 293.75,
      "v": 60
    },
    {
      "midi": 45,
      "hit": false,
      "t": 98100,
      "d": 293.75,
      "v": 60
    },
    {
      "midi": 63,
      "hit": false,
      "t": 98400,
      "d": 293.75,
      "v": 110
    },
    {
      "midi": 67,
      "hit": false,
      "t": 98400,
      "d": 293.75,
      "v": 110
    },
    {
      "midi": 46,
      "hit": false,
      "t": 98400,
      "d": 293.75,
      "v": 110
    },
    {
      "midi": 50,
      "hit": false,
      "t": 98400,
      "d": 293.75,
      "v": 110
    },
    {
      "midi": 45,
      "hit": false,
      "t": 98400,
      "d": 143.75,
      "v": 60
    },
    {
      "midi": 45,
      "hit": false,
      "t": 98550,
      "d": 143.75,
      "v": 60
    },
    {
      "midi": 67,
      "hit": false,
      "t": 98700,
      "d": 293.75,
      "v": 110
    },
    {
      "midi": 70,
      "hit": false,
      "t": 98700,
      "d": 293.75,
      "v": 110
    },
    {
      "midi": 46,
      "hit": false,
      "t": 98700,
      "d": 293.75,
      "v": 110
    },
    {
      "midi": 55,
      "hit": false,
      "t": 98700,
      "d": 293.75,
      "v": 110
    },
    {
      "midi": 38,
      "hit": false,
      "t": 98700,
      "d": 293.75,
      "v": 60
    },
    {
      "midi": 45,
      "hit": false,
      "t": 98700,
      "d": 293.75,
      "v": 60
    },
    {
      "midi": 65,
      "hit": false,
      "t": 99000,
      "d": 293.75,
      "v": 110
    },
    {
      "midi": 68,
      "hit": false,
      "t": 99000,
      "d": 293.75,
      "v": 110
    },
    {
      "midi": 44,
      "hit": false,
      "t": 99000,
      "d": 293.75,
      "v": 110
    },
    {
      "midi": 53,
      "hit": false,
      "t": 99000,
      "d": 293.75,
      "v": 110
    },
    {
      "midi": 45,
      "hit": false,
      "t": 99000,
      "d": 293.75,
      "v": 60
    },
    {
      "midi": 67,
      "hit": false,
      "t": 99300,
      "d": 293.75,
      "v": 110
    },
    {
      "midi": 46,
      "hit": false,
      "t": 99300,
      "d": 293.75,
      "v": 110
    },
    {
      "midi": 50,
      "hit": false,
      "t": 99300,
      "d": 293.75,
      "v": 110
    },
    {
      "midi": 38,
      "hit": false,
      "t": 99300,
      "d": 293.75,
      "v": 60
    },
    {
      "midi": 45,
      "hit": false,
      "t": 99300,
      "d": 293.75,
      "v": 60
    },
    {
      "midi": 63,
      "hit": false,
      "t": 99600,
      "d": 143.75,
      "v": 110
    },
    {
      "midi": 51,
      "hit": false,
      "t": 99600,
      "d": 293.75,
      "v": 110
    },
    {
      "midi": 55,
      "hit": false,
      "t": 99600,
      "d": 293.75,
      "v": 110
    },
    {
      "midi": 45,
      "hit": false,
      "t": 99600,
      "d": 143.75,
      "v": 60
    },
    {
      "midi": 65,
      "hit": false,
      "t": 99750,
      "d": 4800,
      "v": 110
    },
    {
      "midi": 45,
      "hit": false,
      "t": 99750,
      "d": 143.75,
      "v": 60
    },
    {
      "midi": 41,
      "hit": false,
      "t": 99900,
      "d": 4650,
      "v": 110
    },
    {
      "midi": 44,
      "hit": false,
      "t": 99900,
      "d": 4650,
      "v": 110
    },
    {
      "midi": 48,
      "hit": false,
      "t": 99900,
      "d": 4650,
      "v": 110
    },
    {
      "midi": 53,
      "hit": false,
      "t": 99900,
      "d": 4650,
      "v": 110
    },
    {
      "midi": 65,
      "hit": false,
      "t": 99900,
      "d": 293.75,
      "v": 110
    },
    {
      "midi": 38,
      "hit": false,
      "t": 99900,
      "d": 293.75,
      "v": 60
    },
    {
      "midi": 45,
      "hit": false,
      "t": 99900,
      "d": 293.75,
      "v": 60
    },
    {
      "midi": 68,
      "hit": false,
      "t": 100200,
      "d": 293.75,
      "v": 110
    },
    {
      "midi": 45,
      "hit": false,
      "t": 100200,
      "d": 293.75,
      "v": 60
    },
    {
      "midi": 72,
      "hit": false,
      "t": 100500,
      "d": 293.75,
      "v": 110
    },
    {
      "midi": 38,
      "hit": false,
      "t": 100500,
      "d": 293.75,
      "v": 60
    },
    {
      "midi": 45,
      "hit": false,
      "t": 100500,
      "d": 293.75,
      "v": 60
    },
    {
      "midi": 68,
      "hit": false,
      "t": 100800,
      "d": 293.75,
      "v": 110
    },
    {
      "midi": 45,
      "hit": false,
      "t": 100800,
      "d": 143.75,
      "v": 60
    },
    {
      "midi": 45,
      "hit": false,
      "t": 100950,
      "d": 143.75,
      "v": 60
    },
    {
      "midi": 67,
      "hit": false,
      "t": 101100,
      "d": 293.75,
      "v": 110
    },
    {
      "midi": 38,
      "hit": false,
      "t": 101100,
      "d": 293.75,
      "v": 60
    },
    {
      "midi": 45,
      "hit": false,
      "t": 101100,
      "d": 293.75,
      "v": 60
    },
    {
      "midi": 70,
      "hit": false,
      "t": 101400,
      "d": 293.75,
      "v": 110
    },
    {
      "midi": 45,
      "hit": false,
      "t": 101400,
      "d": 293.75,
      "v": 60
    },
    {
      "midi": 74,
      "hit": false,
      "t": 101700,
      "d": 293.75,
      "v": 110
    },
    {
      "midi": 38,
      "hit": false,
      "t": 101700,
      "d": 293.75,
      "v": 60
    },
    {
      "midi": 45,
      "hit": false,
      "t": 101700,
      "d": 293.75,
      "v": 60
    },
    {
      "midi": 70,
      "hit": false,
      "t": 102000,
      "d": 293.75,
      "v": 110
    },
    {
      "midi": 45,
      "hit": false,
      "t": 102000,
      "d": 143.75,
      "v": 60
    },
    {
      "midi": 45,
      "hit": false,
      "t": 102150,
      "d": 143.75,
      "v": 60
    },
    {
      "midi": 65,
      "hit": false,
      "t": 102300,
      "d": 293.75,
      "v": 110
    },
    {
      "midi": 68,
      "hit": false,
      "t": 102600,
      "d": 293.75,
      "v": 110
    },
    {
      "midi": 72,
      "hit": false,
      "t": 102900,
      "d": 293.75,
      "v": 110
    },
    {
      "midi": 68,
      "hit": false,
      "t": 103200,
      "d": 293.75,
      "v": 110
    },
    {
      "midi": 67,
      "hit": false,
      "t": 103500,
      "d": 293.75,
      "v": 110
    },
    {
      "midi": 70,
      "hit": false,
      "t": 103800,
      "d": 293.75,
      "v": 110
    },
    {
      "midi": 74,
      "hit": false,
      "t": 104100,
      "d": 293.75,
      "v": 110
    },
    {
      "midi": 65,
      "hit": false,
      "t": 104400,
      "d": 143.75,
      "v": 75
    },
    {
      "midi": 70,
      "hit": false,
      "t": 104400,
      "d": 293.75,
      "v": 110
    },
    {
      "midi": 67,
      "hit": false,
      "t": 104550,
      "d": 143.75,
      "v": 75
    },
    {
      "midi": 69,
      "hit": false,
      "t": 104700,
      "d": 293.75,
      "v": 75
    },
    {
      "midi": 72,
      "hit": false,
      "t": 105000,
      "d": 293.75,
      "v": 75
    },
    {
      "midi": 67,
      "hit": false,
      "t": 105300,
      "d": 293.75,
      "v": 75
    },
    {
      "midi": 69,
      "hit": false,
      "t": 105600,
      "d": 293.75,
      "v": 75
    },
    {
      "midi": 65,
      "hit": false,
      "t": 105900,
      "d": 800,
      "v": 75
    },
    {
      "midi": 62,
      "hit": false,
      "t": 106800,
      "d": 143.75,
      "v": 75
    },
    {
      "midi": 64,
      "hit": false,
      "t": 106950,
      "d": 143.75,
      "v": 75
    },
    {
      "midi": 65,
      "hit": false,
      "t": 107100,
      "d": 293.75,
      "v": 75
    },
    {
      "midi": 69,
      "hit": false,
      "t": 107400,
      "d": 293.75,
      "v": 75
    },
    {
      "midi": 64,
      "hit": false,
      "t": 107700,
      "d": 293.75,
      "v": 75
    },
    {
      "midi": 69,
      "hit": false,
      "t": 108000,
      "d": 293.75,
      "v": 75
    },
    {
      "midi": 62,
      "hit": false,
      "t": 108300,
      "d": 800,
      "v": 75
    },
    {
      "midi": 65,
      "hit": false,
      "t": 109200,
      "d": 143.75,
      "v": 60
    },
    {
      "midi": 67,
      "hit": false,
      "t": 109350,
      "d": 143.75,
      "v": 60
    },
    {
      "midi": 69,
      "hit": false,
      "t": 109500,
      "d": 293.75,
      "v": 60
    },
    {
      "midi": 72,
      "hit": false,
      "t": 109800,
      "d": 293.75,
      "v": 60
    },
    {
      "midi": 67,
      "hit": false,
      "t": 110100,
      "d": 293.75,
      "v": 60
    },
    {
      "midi": 69,
      "hit": false,
      "t": 110400,
      "d": 293.75,
      "v": 60
    },
    {
      "midi": 65,
      "hit": false,
      "t": 110700,
      "d": 800,
      "v": 60
    },
    {
      "midi": 62,
      "hit": false,
      "t": 111600,
      "d": 143.75,
      "v": 60
    },
    {
      "midi": 64,
      "hit": false,
      "t": 111750,
      "d": 143.75,
      "v": 60
    },
    {
      "midi": 65,
      "hit": false,
      "t": 111900,
      "d": 293.75,
      "v": 60
    },
    {
      "midi": 69,
      "hit": false,
      "t": 112200,
      "d": 293.75,
      "v": 60
    },
    {
      "midi": 64,
      "hit": false,
      "t": 112500,
      "d": 293.75,
      "v": 60
    },
    {
      "midi": 69,
      "hit": false,
      "t": 112800,
      "d": 293.75,
      "v": 60
    },
    {
      "midi": 62,
      "hit": false,
      "t": 113100,
      "d": 800,
      "v": 60
    },
    {
      "midi": 65,
      "hit": false,
      "t": 114000,
      "d": 143.75,
      "v": 45
    },
    {
      "midi": 67,
      "hit": false,
      "t": 114150,
      "d": 143.75,
      "v": 45
    },
    {
      "midi": 69,
      "hit": false,
      "t": 114300,
      "d": 293.75,
      "v": 45
    },
    {
      "midi": 72,
      "hit": false,
      "t": 114600,
      "d": 293.75,
      "v": 45
    },
    {
      "midi": 67,
      "hit": false,
      "t": 114900,
      "d": 293.75,
      "v": 45
    },
    {
      "midi": 69,
      "hit": false,
      "t": 115200,
      "d": 293.75,
      "v": 45
    },
    {
      "midi": 65,
      "hit": false,
      "t": 115500,
      "d": 800,
      "v": 45
    },
    {
      "midi": 62,
      "hit": false,
      "t": 116400,
      "d": 143.75,
      "v": 45
    },
    {
      "midi": 64,
      "hit": false,
      "t": 116550,
      "d": 143.75,
      "v": 45
    },
    {
      "midi": 65,
      "hit": false,
      "t": 116700,
      "d": 293.75,
      "v": 45
    },
    {
      "midi": 69,
      "hit": false,
      "t": 117000,
      "d": 293.75,
      "v": 45
    },
    {
      "midi": 64,
      "hit": false,
      "t": 117300,
      "d": 293.75,
      "v": 45
    },
    {
      "midi": 69,
      "hit": false,
      "t": 117600,
      "d": 293.75,
      "v": 45
    },
    {
      "midi": 62,
      "hit": false,
      "t": 117900,
      "d": 800,
      "v": 45
    }
  ]
}