{
  "jsonPath": "Unknown/Unknown/Adagio/erints-meg.json",
  "path": "Unknown\\Unknown\\Adagio\\Érints Meg.mid",
  "name": "Érints Meg",
  "difficulty": "Advanced",
  "bpm": 120,
  "notes": [
    {
      "midi": 45,
      "hit": false,
      "t": 7166.666666666667,
      "d": 450,
      "v": 114
    },
    {
      "midi": 64,
      "hit": false,
      "t": 7166.666666666667,
      "d": 450,
      "v": 125
    },
    {
      "midi": 71,
      "hit": false,
      "t": 7616.666666666667,
      "d": 499.9999999999991,
      "v": 122
    },
    {
      "midi": 52,
      "hit": false,
      "t": 7616.666666666667,
      "d": 2633.333333333331,
      "v": 78
    },
    {
      "midi": 69,
      "hit": false,
      "t": 8050,
      "d": 449.9999999999982,
      "v": 120
    },
    {
      "midi": 59,
      "hit": false,
      "t": 8083.333333333333,
      "d": 166.66666666666697,
      "v": 63
    },
    {
      "midi": 76,
      "hit": false,
      "t": 8466.666666666666,
      "d": 449.9999999999982,
      "v": 120
    },
    {
      "midi": 60,
      "hit": false,
      "t": 8483.333333333332,
      "d": 1516.666666666666,
      "v": 67
    },
    {
      "midi": 71,
      "hit": false,
      "t": 8916.666666666664,
      "d": 1333.333333333334,
      "v": 122
    },
    {
      "midi": 69,
      "hit": false,
      "t": 10283.333333333332,
      "d": 400,
      "v": 122
    },
    {
      "midi": 45,
      "hit": false,
      "t": 10699.999999999998,
      "d": 2983.333333333332,
      "v": 110
    },
    {
      "midi": 64,
      "hit": false,
      "t": 10716.666666666664,
      "d": 2716.666666666666,
      "v": 124
    },
    {
      "midi": 52,
      "hit": false,
      "t": 11166.666666666664,
      "d": 2466.666666666666,
      "v": 85
    },
    {
      "midi": 59,
      "hit": false,
      "t": 11616.666666666664,
      "d": 466.66666666666606,
      "v": 85
    },
    {
      "midi": 60,
      "hit": false,
      "t": 12066.666666666664,
      "d": 1350,
      "v": 87
    },
    {
      "midi": 64,
      "hit": false,
      "t": 14266.666666666664,
      "d": 450,
      "v": 124
    },
    {
      "midi": 41,
      "hit": false,
      "t": 14266.666666666664,
      "d": 466.66666666666606,
      "v": 120
    },
    {
      "midi": 71,
      "hit": false,
      "t": 14716.666666666664,
      "d": 516.6666666666661,
      "v": 124
    },
    {
      "midi": 48,
      "hit": false,
      "t": 14733.33333333333,
      "d": 66.66666666666606,
      "v": 85
    },
    {
      "midi": 69,
      "hit": false,
      "t": 15149.999999999996,
      "d": 483.33333333333394,
      "v": 114
    },
    {
      "midi": 76,
      "hit": false,
      "t": 15616.666666666664,
      "d": 500,
      "v": 117
    },
    {
      "midi": 57,
      "hit": false,
      "t": 15633.33333333333,
      "d": 1350.0000000000018,
      "v": 71
    },
    {
      "midi": 71,
      "hit": false,
      "t": 16083.33333333333,
      "d": 1266.6666666666697,
      "v": 114
    },
    {
      "midi": 69,
      "hit": false,
      "t": 17383.333333333332,
      "d": 433.3333333333321,
      "v": 125
    },
    {
      "midi": 38,
      "hit": false,
      "t": 17833.333333333332,
      "d": 466.66666666666424,
      "v": 120
    },
    {
      "midi": 62,
      "hit": false,
      "t": 17833.333333333332,
      "d": 2849.9999999999964,
      "v": 124
    },
    {
      "midi": 45,
      "hit": false,
      "t": 18266.666666666664,
      "d": 83.33333333333212,
      "v": 101
    },
    {
      "midi": 52,
      "hit": false,
      "t": 18733.33333333333,
      "d": 483.3333333333321,
      "v": 83
    },
    {
      "midi": 53,
      "hit": false,
      "t": 19183.33333333333,
      "d": 1433.3333333333321,
      "v": 83
    },
    {
      "midi": 50,
      "hit": false,
      "t": 19649.999999999993,
      "d": 966.6666666666679,
      "v": 70
    },
    {
      "midi": 43,
      "hit": false,
      "t": 21416.66666666666,
      "d": 116.66666666666788,
      "v": 114
    },
    {
      "midi": 65,
      "hit": false,
      "t": 21433.33333333333,
      "d": 450,
      "v": 125
    },
    {
      "midi": 71,
      "hit": false,
      "t": 21883.33333333333,
      "d": 483.33333333333576,
      "v": 124
    },
    {
      "midi": 50,
      "hit": false,
      "t": 21899.999999999996,
      "d": 2733.3333333333358,
      "v": 72
    },
    {
      "midi": 69,
      "hit": false,
      "t": 22316.666666666664,
      "d": 466.6666666666679,
      "v": 124
    },
    {
      "midi": 53,
      "hit": false,
      "t": 22333.333333333332,
      "d": 2366.666666666668,
      "v": 75
    },
    {
      "midi": 74,
      "hit": false,
      "t": 22766.666666666664,
      "d": 433.33333333333576,
      "v": 117
    },
    {
      "midi": 59,
      "hit": false,
      "t": 22766.666666666664,
      "d": 1866.6666666666679,
      "v": 64
    },
    {
      "midi": 71,
      "hit": false,
      "t": 23200,
      "d": 1366.6666666666679,
      "v": 114
    },
    {
      "midi": 69,
      "hit": false,
      "t": 24600,
      "d": 450,
      "v": 124
    },
    {
      "midi": 64,
      "hit": false,
      "t": 25050,
      "d": 2283.3333333333285,
      "v": 124
    },
    {
      "midi": 48,
      "hit": false,
      "t": 25050,
      "d": 2866.6666666666642,
      "v": 110
    },
    {
      "midi": 55,
      "hit": false,
      "t": 25466.666666666664,
      "d": 2400,
      "v": 81
    },
    {
      "midi": 59,
      "hit": false,
      "t": 25916.666666666664,
      "d": 1900,
      "v": 81
    },
    {
      "midi": 67,
      "hit": false,
      "t": 26349.999999999996,
      "d": 1350,
      "v": 87
    },
    {
      "midi": 62,
      "hit": false,
      "t": 27683.33333333333,
      "d": 433.33333333333576,
      "v": 125
    },
    {
      "midi": 64,
      "hit": false,
      "t": 28116.666666666664,
      "d": 433.33333333333576,
      "v": 120
    },
    {
      "midi": 60,
      "hit": false,
      "t": 28583.333333333332,
      "d": 2483.3333333333358,
      "v": 107
    },
    {
      "midi": 67,
      "hit": false,
      "t": 28583.333333333332,
      "d": 2683.3333333333358,
      "v": 110
    },
    {
      "midi": 41,
      "hit": false,
      "t": 28600,
      "d": 3133.3333333333358,
      "v": 110
    },
    {
      "midi": 48,
      "hit": false,
      "t": 29000,
      "d": 2716.666666666668,
      "v": 81
    },
    {
      "midi": 55,
      "hit": false,
      "t": 29433.333333333332,
      "d": 316.6666666666679,
      "v": 81
    },
    {
      "midi": 57,
      "hit": false,
      "t": 29900,
      "d": 1150,
      "v": 67
    },
    {
      "midi": 62,
      "hit": false,
      "t": 31266.666666666668,
      "d": 500.00000000000364,
      "v": 122
    },
    {
      "midi": 64,
      "hit": false,
      "t": 31750.000000000004,
      "d": 400,
      "v": 110
    },
    {
      "midi": 40,
      "hit": false,
      "t": 32266.666666666668,
      "d": 350,
      "v": 104
    },
    {
      "midi": 64,
      "hit": false,
      "t": 32266.666666666668,
      "d": 933.3333333333394,
      "v": 122
    },
    {
      "midi": 47,
      "hit": false,
      "t": 32566.666666666668,
      "d": 116.66666666666788,
      "v": 69
    },
    {
      "midi": 50,
      "hit": false,
      "t": 32816.66666666667,
      "d": 50,
      "v": 72
    },
    {
      "midi": 54,
      "hit": false,
      "t": 33066.66666666667,
      "d": 4250,
      "v": 66
    },
    {
      "midi": 57,
      "hit": false,
      "t": 33316.66666666667,
      "d": 4250,
      "v": 96
    },
    {
      "midi": 62,
      "hit": false,
      "t": 33566.66666666667,
      "d": 4250,
      "v": 96
    },
    {
      "midi": 66,
      "hit": false,
      "t": 33800.00000000001,
      "d": 133.33333333333576,
      "v": 104
    },
    {
      "midi": 69,
      "hit": false,
      "t": 34066.66666666668,
      "d": 83.33333333333576,
      "v": 101
    },
    {
      "midi": 74,
      "hit": false,
      "t": 34350.000000000015,
      "d": 266.66666666666424,
      "v": 75
    },
    {
      "midi": 78,
      "hit": false,
      "t": 34616.66666666668,
      "d": 566.6666666666642,
      "v": 74
    },
    {
      "midi": 81,
      "hit": false,
      "t": 34983.33333333334,
      "d": 400,
      "v": 80
    },
    {
      "midi": 86,
      "hit": false,
      "t": 35350.00000000001,
      "d": 233.33333333333576,
      "v": 74
    },
    {
      "midi": 88,
      "hit": false,
      "t": 35850.00000000001,
      "d": 2716.6666666666642,
      "v": 69
    },
    {
      "midi": 45,
      "hit": false,
      "t": 39633.333333333336,
      "d": 4250.000000000007,
      "v": 114
    },
    {
      "midi": 52,
      "hit": false,
      "t": 40183.333333333336,
      "d": 3900.0000000000073,
      "v": 85
    },
    {
      "midi": 57,
      "hit": false,
      "t": 40466.66666666667,
      "d": 2166.6666666666715,
      "v": 104
    },
    {
      "midi": 59,
      "hit": false,
      "t": 40683.333333333336,
      "d": 100,
      "v": 96
    },
    {
      "midi": 60,
      "hit": false,
      "t": 40900,
      "d": 183.33333333333576,
      "v": 110
    },
    {
      "midi": 64,
      "hit": false,
      "t": 41116.66666666667,
      "d": 83.33333333333576,
      "v": 96
    },
    {
      "midi": 69,
      "hit": false,
      "t": 41383.33333333334,
      "d": 166.66666666666424,
      "v": 96
    },
    {
      "midi": 71,
      "hit": false,
      "t": 41650.00000000001,
      "d": 183.33333333333576,
      "v": 85
    },
    {
      "midi": 72,
      "hit": false,
      "t": 41983.33333333334,
      "d": 133.33333333333576,
      "v": 55
    },
    {
      "midi": 76,
      "hit": false,
      "t": 42283.33333333334,
      "d": 83.33333333333576,
      "v": 54
    },
    {
      "midi": 81,
      "hit": false,
      "t": 42816.66666666668,
      "d": 2450,
      "v": 1
    },
    {
      "midi": 35,
      "hit": false,
      "t": 44833.33333333334,
      "d": 216.66666666667152,
      "v": 120
    },
    {
      "midi": 47,
      "hit": false,
      "t": 45366.66666666668,
      "d": 3299.999999999978,
      "v": 74
    },
    {
      "midi": 53,
      "hit": false,
      "t": 45616.66666666668,
      "d": 2966.6666666666497,
      "v": 85
    },
    {
      "midi": 57,
      "hit": false,
      "t": 45816.66666666668,
      "d": 2766.6666666666497,
      "v": 98
    },
    {
      "midi": 62,
      "hit": false,
      "t": 45983.33333333334,
      "d": 100,
      "v": 93
    },
    {
      "midi": 64,
      "hit": false,
      "t": 46150.00000000001,
      "d": 100,
      "v": 101
    },
    {
      "midi": 65,
      "hit": false,
      "t": 46316.66666666667,
      "d": 100,
      "v": 107
    },
    {
      "midi": 69,
      "hit": false,
      "t": 46450.00000000001,
      "d": 66.66666666666424,
      "v": 101
    },
    {
      "midi": 74,
      "hit": false,
      "t": 46650.00000000001,
      "d": 116.66666666666424,
      "v": 107
    },
    {
      "midi": 76,
      "hit": false,
      "t": 46833.333333333336,
      "d": 133.33333333333576,
      "v": 96
    },
    {
      "midi": 77,
      "hit": false,
      "t": 47033.333333333336,
      "d": 150,
      "v": 83
    },
    {
      "midi": 81,
      "hit": false,
      "t": 47200,
      "d": 66.66666666666424,
      "v": 83
    },
    {
      "midi": 86,
      "hit": false,
      "t": 47416.666666666664,
      "d": 250,
      "v": 85
    },
    {
      "midi": 88,
      "hit": false,
      "t": 47650,
      "d": 483.3333333333285,
      "v": 66
    },
    {
      "midi": 89,
      "hit": false,
      "t": 48033.33333333333,
      "d": 566.6666666666642,
      "v": 58
    },
    {
      "midi": 76,
      "hit": false,
      "t": 49216.66666666666,
      "d": 133.33333333333576,
      "v": 48
    },
    {
      "midi": 74,
      "hit": false,
      "t": 49283.33333333332,
      "d": 100.00000000000728,
      "v": 64
    },
    {
      "midi": 71,
      "hit": false,
      "t": 49316.66666666666,
      "d": 150,
      "v": 77
    },
    {
      "midi": 68,
      "hit": false,
      "t": 49399.99999999999,
      "d": 1100.0000000000073,
      "v": 82
    },
    {
      "midi": 64,
      "hit": false,
      "t": 49499.99999999999,
      "d": 1016.6666666666715,
      "v": 101
    },
    {
      "midi": 40,
      "hit": false,
      "t": 49533.33333333333,
      "d": 333.33333333333576,
      "v": 101
    },
    {
      "midi": 47,
      "hit": false,
      "t": 49833.33333333333,
      "d": 83.33333333333576,
      "v": 96
    },
    {
      "midi": 56,
      "hit": false,
      "t": 50166.666666666664,
      "d": 2666.666666666686,
      "v": 82
    },
    {
      "midi": 59,
      "hit": false,
      "t": 50400,
      "d": 2400.0000000000146,
      "v": 101
    },
    {
      "midi": 62,
      "hit": false,
      "t": 50600,
      "d": 2166.666666666679,
      "v": 96
    },
    {
      "midi": 64,
      "hit": false,
      "t": 50866.666666666664,
      "d": 83.33333333333576,
      "v": 89
    },
    {
      "midi": 65,
      "hit": false,
      "t": 51100,
      "d": 133.33333333333576,
      "v": 80
    },
    {
      "midi": 68,
      "hit": false,
      "t": 51316.66666666667,
      "d": 150,
      "v": 82
    },
    {
      "midi": 71,
      "hit": false,
      "t": 51550.00000000001,
      "d": 250,
      "v": 66
    },
    {
      "midi": 72,
      "hit": false,
      "t": 51883.33333333334,
      "d": 383.33333333333576,
      "v": 54
    },
    {
      "midi": 74,
      "hit": false,
      "t": 52283.33333333334,
      "d": 1550.0000000000073,
      "v": 47
    },
    {
      "midi": 45,
      "hit": false,
      "t": 53766.666666666686,
      "d": 4249.999999999985,
      "v": 101
    },
    {
      "midi": 52,
      "hit": false,
      "t": 54150.000000000015,
      "d": 4249.999999999993,
      "v": 101
    },
    {
      "midi": 57,
      "hit": false,
      "t": 54433.33333333334,
      "d": 4250,
      "v": 110
    },
    {
      "midi": 59,
      "hit": false,
      "t": 54650.00000000001,
      "d": 116.66666666666424,
      "v": 101
    },
    {
      "midi": 60,
      "hit": false,
      "t": 54883.333333333336,
      "d": 133.33333333333576,
      "v": 110
    },
    {
      "midi": 64,
      "hit": false,
      "t": 55066.66666666667,
      "d": 83.33333333333576,
      "v": 101
    },
    {
      "midi": 69,
      "hit": false,
      "t": 55333.33333333334,
      "d": 66.66666666666424,
      "v": 72
    },
    {
      "midi": 71,
      "hit": false,
      "t": 55566.66666666667,
      "d": 133.33333333333576,
      "v": 80
    },
    {
      "midi": 72,
      "hit": false,
      "t": 55850.00000000001,
      "d": 66.66666666666424,
      "v": 66
    },
    {
      "midi": 81,
      "hit": false,
      "t": 56500.00000000001,
      "d": 266.66666666666424,
      "v": 14
    },
    {
      "midi": 81,
      "hit": false,
      "t": 57616.66666666667,
      "d": 1883.333333333343,
      "v": 17
    },
    {
      "midi": 84,
      "hit": false,
      "t": 57716.66666666667,
      "d": 1900.0000000000073,
      "v": 49
    },
    {
      "midi": 88,
      "hit": false,
      "t": 57816.66666666667,
      "d": 1600.0000000000073,
      "v": 63
    },
    {
      "midi": 93,
      "hit": false,
      "t": 57916.66666666667,
      "d": 1783.333333333343,
      "v": 114
    },
    {
      "midi": 57,
      "hit": false,
      "t": 60733.33333333335,
      "d": 1666.6666666666642,
      "v": 91
    },
    {
      "midi": 60,
      "hit": false,
      "t": 60733.33333333335,
      "d": 1666.6666666666642,
      "v": 96
    },
    {
      "midi": 64,
      "hit": false,
      "t": 60733.33333333335,
      "d": 1733.3333333333358,
      "v": 96
    },
    {
      "midi": 52,
      "hit": false,
      "t": 62300.000000000015,
      "d": 133.33333333333576,
      "v": 83
    },
    {
      "midi": 57,
      "hit": false,
      "t": 62483.33333333335,
      "d": 633.3333333333358,
      "v": 98
    },
    {
      "midi": 60,
      "hit": false,
      "t": 62483.33333333335,
      "d": 716.6666666666715,
      "v": 101
    },
    {
      "midi": 65,
      "hit": false,
      "t": 62483.33333333335,
      "d": 750.0000000000073,
      "v": 110
    },
    {
      "midi": 50,
      "hit": false,
      "t": 62500.000000000015,
      "d": 1183.3333333333503,
      "v": 98
    },
    {
      "midi": 53,
      "hit": false,
      "t": 63366.66666666669,
      "d": 266.6666666666715,
      "v": 91
    },
    {
      "midi": 60,
      "hit": false,
      "t": 63600.00000000003,
      "d": 283.33333333333576,
      "v": 117
    },
    {
      "midi": 69,
      "hit": false,
      "t": 63600.00000000003,
      "d": 366.6666666666715,
      "v": 120
    },
    {
      "midi": 50,
      "hit": false,
      "t": 64033.333333333365,
      "d": 183.33333333333576,
      "v": 85
    },
    {
      "midi": 43,
      "hit": false,
      "t": 64266.6666666667,
      "d": 1149.9999999999927,
      "v": 107
    },
    {
      "midi": 71,
      "hit": false,
      "t": 64283.333333333365,
      "d": 1383.3333333333358,
      "v": 110
    },
    {
      "midi": 62,
      "hit": false,
      "t": 64300.00000000003,
      "d": 1600.0000000000146,
      "v": 114
    },
    {
      "midi": 55,
      "hit": false,
      "t": 65200.00000000003,
      "d": 116.66666666666424,
      "v": 63
    },
    {
      "midi": 59,
      "hit": false,
      "t": 65650.00000000003,
      "d": 33.333333333343035,
      "v": 47
    },
    {
      "midi": 52,
      "hit": false,
      "t": 65833.33333333337,
      "d": 100,
      "v": 81
    },
    {
      "midi": 60,
      "hit": false,
      "t": 66050.00000000003,
      "d": 483.3333333333285,
      "v": 98
    },
    {
      "midi": 64,
      "hit": false,
      "t": 66050.00000000003,
      "d": 583.3333333333285,
      "v": 101
    },
    {
      "midi": 48,
      "hit": false,
      "t": 66050.00000000003,
      "d": 1366.666666666657,
      "v": 104
    },
    {
      "midi": 60,
      "hit": false,
      "t": 66766.66666666669,
      "d": 33.33333333332848,
      "v": 53
    },
    {
      "midi": 55,
      "hit": false,
      "t": 67000.00000000001,
      "d": 216.66666666667152,
      "v": 69
    },
    {
      "midi": 72,
      "hit": false,
      "t": 67400.00000000001,
      "d": 216.66666666667152,
      "v": 117
    },
    {
      "midi": 64,
      "hit": false,
      "t": 67400.00000000001,
      "d": 466.6666666666715,
      "v": 117
    },
    {
      "midi": 71,
      "hit": false,
      "t": 67866.66666666669,
      "d": 850,
      "v": 104
    },
    {
      "midi": 47,
      "hit": false,
      "t": 67866.66666666669,
      "d": 1150,
      "v": 110
    },
    {
      "midi": 62,
      "hit": false,
      "t": 67883.33333333336,
      "d": 1250,
      "v": 117
    },
    {
      "midi": 59,
      "hit": false,
      "t": 69433.33333333336,
      "d": 50,
      "v": 62
    },
    {
      "midi": 65,
      "hit": false,
      "t": 69433.33333333336,
      "d": 50,
      "v": 71
    },
    {
      "midi": 59,
      "hit": false,
      "t": 69650.00000000003,
      "d": 866.6666666666715,
      "v": 117
    },
    {
      "midi": 65,
      "hit": false,
      "t": 69650.00000000003,
      "d": 1316.6666666666715,
      "v": 117
    },
    {
      "midi": 47,
      "hit": false,
      "t": 69666.6666666667,
      "d": 1400,
      "v": 114
    },
    {
      "midi": 53,
      "hit": false,
      "t": 70516.6666666667,
      "d": 116.66666666667152,
      "v": 80
    },
    {
      "midi": 59,
      "hit": false,
      "t": 70733.33333333337,
      "d": 83.33333333332848,
      "v": 78
    },
    {
      "midi": 62,
      "hit": false,
      "t": 70950.00000000003,
      "d": 83.33333333334303,
      "v": 85
    },
    {
      "midi": 53,
      "hit": false,
      "t": 71150.00000000003,
      "d": 133.33333333332848,
      "v": 89
    },
    {
      "midi": 69,
      "hit": false,
      "t": 71400.00000000003,
      "d": 966.6666666666715,
      "v": 122
    },
    {
      "midi": 62,
      "hit": false,
      "t": 71416.6666666667,
      "d": 850,
      "v": 114
    },
    {
      "midi": 52,
      "hit": false,
      "t": 71416.6666666667,
      "d": 1150,
      "v": 110
    },
    {
      "midi": 59,
      "hit": false,
      "t": 72333.33333333337,
      "d": 150,
      "v": 70
    },
    {
      "midi": 62,
      "hit": false,
      "t": 72516.6666666667,
      "d": 133.33333333332848,
      "v": 77
    },
    {
      "midi": 69,
      "hit": false,
      "t": 72733.33333333336,
      "d": 150,
      "v": 124
    },
    {
      "midi": 56,
      "hit": false,
      "t": 72950.00000000003,
      "d": 83.33333333332848,
      "v": 80
    },
    {
      "midi": 71,
      "hit": false,
      "t": 72950.00000000003,
      "d": 199.99999999998545,
      "v": 110
    },
    {
      "midi": 62,
      "hit": false,
      "t": 73183.33333333334,
      "d": 300.00000000001455,
      "v": 93
    },
    {
      "midi": 68,
      "hit": false,
      "t": 73183.33333333334,
      "d": 300.00000000001455,
      "v": 95
    },
    {
      "midi": 52,
      "hit": false,
      "t": 73200.00000000001,
      "d": 1200,
      "v": 101
    },
    {
      "midi": 56,
      "hit": false,
      "t": 73616.66666666669,
      "d": 699.9999999999854,
      "v": 82
    },
    {
      "midi": 64,
      "hit": false,
      "t": 73850.00000000001,
      "d": 83.33333333332848,
      "v": 77
    },
    {
      "midi": 76,
      "hit": false,
      "t": 74083.33333333334,
      "d": 116.66666666667152,
      "v": 104
    },
    {
      "midi": 59,
      "hit": false,
      "t": 74083.33333333334,
      "d": 300,
      "v": 83
    },
    {
      "midi": 74,
      "hit": false,
      "t": 74283.33333333334,
      "d": 116.66666666667152,
      "v": 107
    },
    {
      "midi": 76,
      "hit": false,
      "t": 74533.33333333334,
      "d": 383.3333333333285,
      "v": 120
    },
    {
      "midi": 60,
      "hit": false,
      "t": 74750.00000000001,
      "d": 83.33333333332848,
      "v": 66
    },
    {
      "midi": 64,
      "hit": false,
      "t": 74983.33333333334,
      "d": 766.666666666657,
      "v": 107
    },
    {
      "midi": 57,
      "hit": false,
      "t": 74983.33333333334,
      "d": 1099.9999999999854,
      "v": 93
    },
    {
      "midi": 72,
      "hit": false,
      "t": 74983.33333333334,
      "d": 1416.666666666657,
      "v": 101
    },
    {
      "midi": 60,
      "hit": false,
      "t": 75933.33333333333,
      "d": 200,
      "v": 56
    },
    {
      "midi": 60,
      "hit": false,
      "t": 76283.33333333333,
      "d": 66.66666666667152,
      "v": 1
    },
    {
      "midi": 57,
      "hit": false,
      "t": 76350,
      "d": 1650.0000000000146,
      "v": 74
    },
    {
      "midi": 50,
      "hit": false,
      "t": 76783.33333333334,
      "d": 1433.333333333343,
      "v": 104
    },
    {
      "midi": 77,
      "hit": false,
      "t": 77016.66666666667,
      "d": 100,
      "v": 85
    },
    {
      "midi": 76,
      "hit": false,
      "t": 77116.66666666667,
      "d": 133.33333333332848,
      "v": 83
    },
    {
      "midi": 77,
      "hit": false,
      "t": 77250,
      "d": 566.6666666666715,
      "v": 114
    },
    {
      "midi": 62,
      "hit": false,
      "t": 77650,
      "d": 366.66666666668607,
      "v": 93
    },
    {
      "midi": 65,
      "hit": false,
      "t": 77883.33333333334,
      "d": 116.66666666667152,
      "v": 85
    },
    {
      "midi": 69,
      "hit": false,
      "t": 78133.33333333336,
      "d": 166.66666666665697,
      "v": 122
    },
    {
      "midi": 72,
      "hit": false,
      "t": 78316.66666666669,
      "d": 216.66666666665697,
      "v": 120
    },
    {
      "midi": 55,
      "hit": false,
      "t": 78550.00000000001,
      "d": 1083.333333333343,
      "v": 104
    },
    {
      "midi": 71,
      "hit": false,
      "t": 78566.66666666669,
      "d": 1566.6666666666715,
      "v": 114
    },
    {
      "midi": 65,
      "hit": false,
      "t": 79233.33333333336,
      "d": 100,
      "v": 59
    },
    {
      "midi": 59,
      "hit": false,
      "t": 79483.33333333336,
      "d": 66.66666666667152,
      "v": 44
    },
    {
      "midi": 65,
      "hit": false,
      "t": 79916.66666666669,
      "d": 66.66666666667152,
      "v": 85
    },
    {
      "midi": 55,
      "hit": false,
      "t": 80083.33333333336,
      "d": 66.66666666667152,
      "v": 70
    },
    {
      "midi": 48,
      "hit": false,
      "t": 80333.33333333336,
      "d": 1416.666666666657,
      "v": 104
    },
    {
      "midi": 64,
      "hit": false,
      "t": 80550.00000000003,
      "d": 83.33333333332848,
      "v": 74
    },
    {
      "midi": 76,
      "hit": false,
      "t": 80783.33333333336,
      "d": 116.66666666667152,
      "v": 114
    },
    {
      "midi": 74,
      "hit": false,
      "t": 81000.00000000003,
      "d": 150,
      "v": 122
    },
    {
      "midi": 76,
      "hit": false,
      "t": 81233.33333333336,
      "d": 466.66666666665697,
      "v": 117
    },
    {
      "midi": 60,
      "hit": false,
      "t": 81433.33333333336,
      "d": 133.33333333332848,
      "v": 77
    },
    {
      "midi": 72,
      "hit": false,
      "t": 81666.66666666669,
      "d": 150,
      "v": 87
    },
    {
      "midi": 72,
      "hit": false,
      "t": 81883.33333333336,
      "d": 83.33333333332848,
      "v": 57
    },
    {
      "midi": 47,
      "hit": false,
      "t": 82116.66666666669,
      "d": 133.33333333332848,
      "v": 96
    },
    {
      "midi": 69,
      "hit": false,
      "t": 82116.66666666669,
      "d": 833.3333333333285,
      "v": 120
    },
    {
      "midi": 74,
      "hit": false,
      "t": 82116.66666666669,
      "d": 1333.3333333333285,
      "v": 114
    },
    {
      "midi": 65,
      "hit": false,
      "t": 83233.33333333334,
      "d": 116.66666666667152,
      "v": 56
    },
    {
      "midi": 69,
      "hit": false,
      "t": 83466.66666666669,
      "d": 150,
      "v": 83
    },
    {
      "midi": 74,
      "hit": false,
      "t": 83683.33333333336,
      "d": 183.33333333334303,
      "v": 96
    },
    {
      "midi": 77,
      "hit": false,
      "t": 83933.33333333337,
      "d": 366.6666666666715,
      "v": 104
    },
    {
      "midi": 69,
      "hit": false,
      "t": 83933.33333333337,
      "d": 1633.333333333343,
      "v": 122
    },
    {
      "midi": 74,
      "hit": false,
      "t": 84566.66666666672,
      "d": 1150,
      "v": 91
    },
    {
      "midi": 52,
      "hit": false,
      "t": 85716.66666666672,
      "d": 1366.666666666686,
      "v": 120
    },
    {
      "midi": 59,
      "hit": false,
      "t": 85916.66666666672,
      "d": 2816.6666666666715,
      "v": 89
    },
    {
      "midi": 64,
      "hit": false,
      "t": 86166.66666666672,
      "d": 66.66666666667152,
      "v": 83
    },
    {
      "midi": 69,
      "hit": false,
      "t": 86383.33333333339,
      "d": 150,
      "v": 117
    },
    {
      "midi": 71,
      "hit": false,
      "t": 86600.00000000006,
      "d": 50,
      "v": 101
    },
    {
      "midi": 64,
      "hit": false,
      "t": 86716.66666666673,
      "d": 216.66666666665697,
      "v": 66
    },
    {
      "midi": 76,
      "hit": false,
      "t": 86800.00000000006,
      "d": 150,
      "v": 110
    },
    {
      "midi": 83,
      "hit": false,
      "t": 87066.66666666673,
      "d": 50,
      "v": 72
    },
    {
      "midi": 81,
      "hit": false,
      "t": 87066.66666666673,
      "d": 133.33333333332848,
      "v": 98
    },
    {
      "midi": 83,
      "hit": false,
      "t": 87250.00000000006,
      "d": 166.66666666667152,
      "v": 96
    },
    {
      "midi": 88,
      "hit": false,
      "t": 87483.3333333334,
      "d": 316.66666666665697,
      "v": 110
    },
    {
      "midi": 52,
      "hit": false,
      "t": 87483.3333333334,
      "d": 1316.666666666657,
      "v": 104
    },
    {
      "midi": 80,
      "hit": false,
      "t": 87516.66666666673,
      "d": 366.66666666665697,
      "v": 116
    },
    {
      "midi": 62,
      "hit": false,
      "t": 88400.00000000006,
      "d": 250,
      "v": 101
    },
    {
      "midi": 65,
      "hit": false,
      "t": 88600.00000000006,
      "d": 516.6666666666715,
      "v": 98
    },
    {
      "midi": 71,
      "hit": false,
      "t": 88600.00000000006,
      "d": 516.6666666666715,
      "v": 107
    },
    {
      "midi": 74,
      "hit": false,
      "t": 88600.00000000006,
      "d": 516.6666666666715,
      "v": 110
    },
    {
      "midi": 68,
      "hit": false,
      "t": 88600.00000000006,
      "d": 550.0000000000146,
      "v": 110
    },
    {
      "midi": 62,
      "hit": false,
      "t": 88866.66666666673,
      "d": 66.66666666667152,
      "v": 65
    },
    {
      "midi": 59,
      "hit": false,
      "t": 89066.66666666673,
      "d": 66.66666666667152,
      "v": 71
    },
    {
      "midi": 64,
      "hit": false,
      "t": 89283.3333333334,
      "d": 1250,
      "v": 110
    },
    {
      "midi": 72,
      "hit": false,
      "t": 89283.3333333334,
      "d": 1300,
      "v": 110
    },
    {
      "midi": 69,
      "hit": false,
      "t": 89283.3333333334,
      "d": 1333.3333333333285,
      "v": 117
    },
    {
      "midi": 57,
      "hit": false,
      "t": 89283.3333333334,
      "d": 1566.666666666657,
      "v": 107
    },
    {
      "midi": 60,
      "hit": false,
      "t": 90766.66666666673,
      "d": 100,
      "v": 65
    },
    {
      "midi": 53,
      "hit": false,
      "t": 91033.3333333334,
      "d": 1333.3333333333285,
      "v": 107
    },
    {
      "midi": 77,
      "hit": false,
      "t": 91050.00000000007,
      "d": 283.3333333333285,
      "v": 114
    },
    {
      "midi": 69,
      "hit": false,
      "t": 91050.00000000007,
      "d": 333.3333333333285,
      "v": 124
    },
    {
      "midi": 76,
      "hit": false,
      "t": 91500.00000000007,
      "d": 66.66666666667152,
      "v": 80
    },
    {
      "midi": 77,
      "hit": false,
      "t": 91700.00000000007,
      "d": 466.66666666665697,
      "v": 114
    },
    {
      "midi": 69,
      "hit": false,
      "t": 91700.00000000007,
      "d": 983.3333333333285,
      "v": 120
    },
    {
      "midi": 60,
      "hit": false,
      "t": 92000.00000000007,
      "d": 83.33333333332848,
      "v": 33
    },
    {
      "midi": 65,
      "hit": false,
      "t": 92383.3333333334,
      "d": 133.33333333332848,
      "v": 61
    },
    {
      "midi": 57,
      "hit": false,
      "t": 92616.66666666673,
      "d": 83.33333333334303,
      "v": 72
    },
    {
      "midi": 65,
      "hit": false,
      "t": 92833.3333333334,
      "d": 1150,
      "v": 110
    },
    {
      "midi": 74,
      "hit": false,
      "t": 92833.3333333334,
      "d": 1150,
      "v": 104
    },
    {
      "midi": 69,
      "hit": false,
      "t": 92833.3333333334,
      "d": 1200,
      "v": 117
    },
    {
      "midi": 50,
      "hit": false,
      "t": 92833.3333333334,
      "d": 1550,
      "v": 110
    },
    {
      "midi": 62,
      "hit": false,
      "t": 93733.3333333334,
      "d": 133.33333333332848,
      "v": 77
    },
    {
      "midi": 57,
      "hit": false,
      "t": 94366.66666666673,
      "d": 100,
      "v": 78
    },
    {
      "midi": 71,
      "hit": false,
      "t": 94600.00000000006,
      "d": 683.3333333333285,
      "v": 110
    },
    {
      "midi": 74,
      "hit": false,
      "t": 94600.00000000006,
      "d": 1116.6666666666715,
      "v": 117
    },
    {
      "midi": 55,
      "hit": false,
      "t": 94600.00000000006,
      "d": 1383.3333333333285,
      "v": 101
    },
    {
      "midi": 67,
      "hit": false,
      "t": 95350.00000000006,
      "d": 100,
      "v": 49
    },
    {
      "midi": 62,
      "hit": false,
      "t": 95550.00000000006,
      "d": 316.6666666666715,
      "v": 91
    },
    {
      "midi": 67,
      "hit": false,
      "t": 95783.3333333334,
      "d": 116.66666666665697,
      "v": 78
    },
    {
      "midi": 69,
      "hit": false,
      "t": 95983.33333333339,
      "d": 233.33333333334303,
      "v": 124
    },
    {
      "midi": 71,
      "hit": false,
      "t": 96183.33333333339,
      "d": 150.00000000001455,
      "v": 107
    },
    {
      "midi": 59,
      "hit": false,
      "t": 96200.00000000006,
      "d": 66.66666666667152,
      "v": 56
    },
    {
      "midi": 71,
      "hit": false,
      "t": 96433.3333333334,
      "d": 366.6666666666715,
      "v": 101
    },
    {
      "midi": 74,
      "hit": false,
      "t": 96433.3333333334,
      "d": 400,
      "v": 107
    },
    {
      "midi": 65,
      "hit": false,
      "t": 96433.3333333334,
      "d": 583.3333333333285,
      "v": 96
    },
    {
      "midi": 55,
      "hit": false,
      "t": 96433.3333333334,
      "d": 1266.6666666666715,
      "v": 96
    },
    {
      "midi": 59,
      "hit": false,
      "t": 96883.3333333334,
      "d": 766.666666666657,
      "v": 63
    },
    {
      "midi": 71,
      "hit": false,
      "t": 97066.66666666673,
      "d": 83.33333333332848,
      "v": 91
    },
    {
      "midi": 77,
      "hit": false,
      "t": 97300.00000000006,
      "d": 383.33333333334303,
      "v": 110
    },
    {
      "midi": 71,
      "hit": false,
      "t": 97300.00000000006,
      "d": 600.0000000000291,
      "v": 114
    },
    {
      "midi": 62,
      "hit": false,
      "t": 97600.00000000006,
      "d": 66.66666666667152,
      "v": 54
    },
    {
      "midi": 76,
      "hit": false,
      "t": 97766.66666666674,
      "d": 116.66666666667152,
      "v": 64
    },
    {
      "midi": 77,
      "hit": false,
      "t": 97966.66666666676,
      "d": 166.66666666667152,
      "v": 89
    },
    {
      "midi": 55,
      "hit": false,
      "t": 98000.00000000009,
      "d": 66.66666666667152,
      "v": 63
    },
    {
      "midi": 71,
      "hit": false,
      "t": 98216.66666666676,
      "d": 400,
      "v": 110
    },
    {
      "midi": 76,
      "hit": false,
      "t": 98216.66666666676,
      "d": 933.3333333333285,
      "v": 104
    },
    {
      "midi": 48,
      "hit": false,
      "t": 98216.66666666676,
      "d": 1133.3333333333285,
      "v": 101
    },
    {
      "midi": 60,
      "hit": false,
      "t": 99116.66666666676,
      "d": 100,
      "v": 77
    },
    {
      "midi": 72,
      "hit": false,
      "t": 99316.66666666676,
      "d": 133.33333333332848,
      "v": 78
    },
    {
      "midi": 64,
      "hit": false,
      "t": 99550.00000000009,
      "d": 83.33333333332848,
      "v": 96
    },
    {
      "midi": 57,
      "hit": false,
      "t": 99766.66666666674,
      "d": 50,
      "v": 78
    },
    {
      "midi": 57,
      "hit": false,
      "t": 100016.66666666674,
      "d": 566.666666666657,
      "v": 104
    },
    {
      "midi": 62,
      "hit": false,
      "t": 100016.66666666674,
      "d": 799.9999999999854,
      "v": 117
    },
    {
      "midi": 69,
      "hit": false,
      "t": 100016.66666666674,
      "d": 966.666666666657,
      "v": 122
    },
    {
      "midi": 47,
      "hit": false,
      "t": 100016.66666666674,
      "d": 1066.666666666657,
      "v": 101
    },
    {
      "midi": 57,
      "hit": false,
      "t": 100866.66666666673,
      "d": 266.6666666666715,
      "v": 83
    },
    {
      "midi": 62,
      "hit": false,
      "t": 101083.3333333334,
      "d": 150,
      "v": 80
    },
    {
      "midi": 69,
      "hit": false,
      "t": 101316.66666666673,
      "d": 150,
      "v": 117
    },
    {
      "midi": 59,
      "hit": false,
      "t": 101533.3333333334,
      "d": 66.66666666667152,
      "v": 49
    },
    {
      "midi": 71,
      "hit": false,
      "t": 101533.3333333334,
      "d": 583.333333333343,
      "v": 89
    },
    {
      "midi": 68,
      "hit": false,
      "t": 101766.66666666673,
      "d": 166.66666666667152,
      "v": 89
    },
    {
      "midi": 62,
      "hit": false,
      "t": 101783.3333333334,
      "d": 133.33333333332848,
      "v": 74
    },
    {
      "midi": 52,
      "hit": false,
      "t": 101783.3333333334,
      "d": 1300,
      "v": 107
    },
    {
      "midi": 64,
      "hit": false,
      "t": 101800.00000000007,
      "d": 83.33333333332848,
      "v": 72
    },
    {
      "midi": 56,
      "hit": false,
      "t": 102000.00000000007,
      "d": 1116.6666666666715,
      "v": 99
    },
    {
      "midi": 68,
      "hit": false,
      "t": 102233.33333333342,
      "d": 116.66666666667152,
      "v": 110
    },
    {
      "midi": 71,
      "hit": false,
      "t": 102433.33333333342,
      "d": 150,
      "v": 107
    },
    {
      "midi": 74,
      "hit": false,
      "t": 102650.00000000009,
      "d": 83.33333333332848,
      "v": 101
    },
    {
      "midi": 59,
      "hit": false,
      "t": 102650.00000000009,
      "d": 399.99999999998545,
      "v": 91
    },
    {
      "midi": 76,
      "hit": false,
      "t": 102883.33333333342,
      "d": 133.33333333332848,
      "v": 117
    },
    {
      "midi": 77,
      "hit": false,
      "t": 103100.00000000007,
      "d": 150,
      "v": 117
    },
    {
      "midi": 76,
      "hit": false,
      "t": 103300.00000000007,
      "d": 83.33333333332848,
      "v": 87
    },
    {
      "midi": 77,
      "hit": false,
      "t": 103550.00000000007,
      "d": 1666.6666666666715,
      "v": 114
    },
    {
      "midi": 57,
      "hit": false,
      "t": 103550.00000000007,
      "d": 1800,
      "v": 117
    },
    {
      "midi": 64,
      "hit": false,
      "t": 104483.33333333342,
      "d": 150,
      "v": 74
    },
    {
      "midi": 81,
      "hit": false,
      "t": 105316.66666666674,
      "d": 550,
      "v": 120
    },
    {
      "midi": 53,
      "hit": false,
      "t": 105316.66666666674,
      "d": 1166.6666666666715,
      "v": 98
    },
    {
      "midi": 72,
      "hit": false,
      "t": 105316.66666666674,
      "d": 1183.333333333343,
      "v": 110
    },
    {
      "midi": 69,
      "hit": false,
      "t": 106000.00000000007,
      "d": 700.0000000000146,
      "v": 120
    },
    {
      "midi": 77,
      "hit": false,
      "t": 106000.00000000007,
      "d": 950.0000000000146,
      "v": 93
    },
    {
      "midi": 60,
      "hit": false,
      "t": 106266.66666666674,
      "d": 116.66666666667152,
      "v": 37
    },
    {
      "midi": 57,
      "hit": false,
      "t": 106883.33333333342,
      "d": 1500,
      "v": 63
    },
    {
      "midi": 65,
      "hit": false,
      "t": 107150.00000000009,
      "d": 1400,
      "v": 117
    },
    {
      "midi": 50,
      "hit": false,
      "t": 107150.00000000009,
      "d": 1650,
      "v": 98
    },
    {
      "midi": 74,
      "hit": false,
      "t": 107150.00000000009,
      "d": 1750,
      "v": 114
    },
    {
      "midi": 69,
      "hit": false,
      "t": 108500.00000000009,
      "d": 66.66666666667152,
      "v": 56
    },
    {
      "midi": 57,
      "hit": false,
      "t": 108666.66666666676,
      "d": 33.33333333332848,
      "v": 31
    },
    {
      "midi": 71,
      "hit": false,
      "t": 108916.66666666676,
      "d": 1366.6666666667006,
      "v": 110
    },
    {
      "midi": 55,
      "hit": false,
      "t": 108916.66666666676,
      "d": 1616.666666666686,
      "v": 110
    },
    {
      "midi": 67,
      "hit": false,
      "t": 108933.33333333343,
      "d": 1433.3333333333576,
      "v": 117
    },
    {
      "midi": 59,
      "hit": false,
      "t": 109850.0000000001,
      "d": 66.66666666667152,
      "v": 59
    },
    {
      "midi": 59,
      "hit": false,
      "t": 110083.33333333344,
      "d": 183.33333333334303,
      "v": 72
    },
    {
      "midi": 69,
      "hit": false,
      "t": 110250.00000000012,
      "d": 250,
      "v": 107
    },
    {
      "midi": 71,
      "hit": false,
      "t": 110450.00000000012,
      "d": 216.66666666665697,
      "v": 93
    },
    {
      "midi": 57,
      "hit": false,
      "t": 110466.66666666679,
      "d": 66.66666666665697,
      "v": 66
    },
    {
      "midi": 65,
      "hit": false,
      "t": 110716.66666666677,
      "d": 450,
      "v": 110
    },
    {
      "midi": 69,
      "hit": false,
      "t": 110716.66666666677,
      "d": 483.3333333333285,
      "v": 110
    },
    {
      "midi": 50,
      "hit": false,
      "t": 110716.66666666677,
      "d": 1416.6666666666715,
      "v": 107
    },
    {
      "midi": 57,
      "hit": false,
      "t": 111150.0000000001,
      "d": 1266.666666666686,
      "v": 62
    },
    {
      "midi": 77,
      "hit": false,
      "t": 111366.66666666677,
      "d": 566.6666666666715,
      "v": 117
    },
    {
      "midi": 69,
      "hit": false,
      "t": 111383.33333333344,
      "d": 933.333333333343,
      "v": 125
    },
    {
      "midi": 65,
      "hit": false,
      "t": 112050.00000000012,
      "d": 250,
      "v": 69
    },
    {
      "midi": 76,
      "hit": false,
      "t": 112500.00000000012,
      "d": 1366.6666666666715,
      "v": 114
    },
    {
      "midi": 52,
      "hit": false,
      "t": 112500.00000000012,
      "d": 1466.6666666666715,
      "v": 96
    },
    {
      "midi": 71,
      "hit": false,
      "t": 112500.00000000012,
      "d": 1516.6666666666715,
      "v": 110
    },
    {
      "midi": 68,
      "hit": false,
      "t": 112500.00000000012,
      "d": 1533.333333333343,
      "v": 121
    },
    {
      "midi": 64,
      "hit": false,
      "t": 113850.00000000012,
      "d": 200.00000000001455,
      "v": 69
    },
    {
      "midi": 56,
      "hit": false,
      "t": 114016.66666666679,
      "d": 183.33333333334303,
      "v": 58
    },
    {
      "midi": 56,
      "hit": false,
      "t": 114266.6666666668,
      "d": 2933.333333333372,
      "v": 31
    },
    {
      "midi": 62,
      "hit": false,
      "t": 114283.33333333347,
      "d": 583.333333333343,
      "v": 85
    },
    {
      "midi": 71,
      "hit": false,
      "t": 114283.33333333347,
      "d": 1066.6666666666715,
      "v": 104
    },
    {
      "midi": 68,
      "hit": false,
      "t": 114283.33333333347,
      "d": 1100.0000000000146,
      "v": 110
    },
    {
      "midi": 52,
      "hit": false,
      "t": 114283.33333333347,
      "d": 2933.333333333372,
      "v": 91
    },
    {
      "midi": 64,
      "hit": false,
      "t": 114300.00000000015,
      "d": 850,
      "v": 114
    },
    {
      "midi": 62,
      "hit": false,
      "t": 115200.00000000015,
      "d": 350.00000000001455,
      "v": 71
    },
    {
      "midi": 64,
      "hit": false,
      "t": 115366.66666666682,
      "d": 350.00000000001455,
      "v": 80
    },
    {
      "midi": 68,
      "hit": false,
      "t": 115600.00000000016,
      "d": 166.66666666667152,
      "v": 121
    },
    {
      "midi": 69,
      "hit": false,
      "t": 115800.00000000016,
      "d": 183.33333333332848,
      "v": 117
    },
    {
      "midi": 62,
      "hit": false,
      "t": 116050.00000000016,
      "d": 550,
      "v": 69
    },
    {
      "midi": 68,
      "hit": false,
      "t": 116050.00000000016,
      "d": 716.6666666666715,
      "v": 110
    },
    {
      "midi": 64,
      "hit": false,
      "t": 116050.00000000016,
      "d": 783.333333333343,
      "v": 117
    },
    {
      "midi": 71,
      "hit": false,
      "t": 116050.00000000016,
      "d": 883.333333333343,
      "v": 101
    },
    {
      "midi": 62,
      "hit": false,
      "t": 116950.00000000017,
      "d": 150,
      "v": 89
    },
    {
      "midi": 65,
      "hit": false,
      "t": 117150.00000000017,
      "d": 233.33333333334303,
      "v": 120
    },
    {
      "midi": 68,
      "hit": false,
      "t": 117150.00000000017,
      "d": 483.3333333333285,
      "v": 124
    },
    {
      "midi": 71,
      "hit": false,
      "t": 117166.66666666685,
      "d": 433.3333333333285,
      "v": 117
    },
    {
      "midi": 64,
      "hit": false,
      "t": 117416.66666666685,
      "d": 150,
      "v": 80
    },
    {
      "midi": 45,
      "hit": false,
      "t": 117633.3333333335,
      "d": 3283.333333333343,
      "v": 93
    },
    {
      "midi": 52,
      "hit": false,
      "t": 117700.00000000017,
      "d": 3266.6666666666715,
      "v": 81
    },
    {
      "midi": 57,
      "hit": false,
      "t": 117833.3333333335,
      "d": 850,
      "v": 93
    },
    {
      "midi": 60,
      "hit": false,
      "t": 117833.3333333335,
      "d": 1183.3333333333285,
      "v": 120
    },
    {
      "midi": 64,
      "hit": false,
      "t": 117833.3333333335,
      "d": 1200,
      "v": 120
    },
    {
      "midi": 69,
      "hit": false,
      "t": 117833.3333333335,
      "d": 3383.3333333333576,
      "v": 122
    },
    {
      "midi": 60,
      "hit": false,
      "t": 119200.00000000017,
      "d": 150,
      "v": 56
    },
    {
      "midi": 57,
      "hit": false,
      "t": 119400.00000000017,
      "d": 1366.6666666666715,
      "v": 80
    },
    {
      "midi": 64,
      "hit": false,
      "t": 119650.00000000017,
      "d": 1433.333333333343,
      "v": 96
    },
    {
      "midi": 60,
      "hit": false,
      "t": 119650.00000000017,
      "d": 1500.0000000000146,
      "v": 114
    },
    {
      "midi": 52,
      "hit": false,
      "t": 121450.00000000019,
      "d": 916.6666666666715,
      "v": 91
    },
    {
      "midi": 45,
      "hit": false,
      "t": 121450.00000000019,
      "d": 950,
      "v": 98
    },
    {
      "midi": 57,
      "hit": false,
      "t": 121450.00000000019,
      "d": 1100,
      "v": 104
    },
    {
      "midi": 60,
      "hit": false,
      "t": 121450.00000000019,
      "d": 1116.6666666666715,
      "v": 96
    },
    {
      "midi": 64,
      "hit": false,
      "t": 121450.00000000019,
      "d": 1116.6666666666715,
      "v": 104
    },
    {
      "midi": 45,
      "hit": false,
      "t": 122916.66666666686,
      "d": 200,
      "v": 81
    },
    {
      "midi": 59,
      "hit": false,
      "t": 123183.33333333353,
      "d": 1383.3333333333285,
      "v": 110
    },
    {
      "midi": 60,
      "hit": false,
      "t": 123183.33333333353,
      "d": 1400,
      "v": 104
    },
    {
      "midi": 57,
      "hit": false,
      "t": 123183.33333333353,
      "d": 1416.6666666666715,
      "v": 114
    },
    {
      "midi": 64,
      "hit": false,
      "t": 123183.33333333353,
      "d": 1450,
      "v": 110
    },
    {
      "midi": 52,
      "hit": false,
      "t": 124583.33333333353,
      "d": 83.33333333332848,
      "v": 49
    },
    {
      "midi": 45,
      "hit": false,
      "t": 124966.66666666686,
      "d": 1150.0000000000146,
      "v": 110
    },
    {
      "midi": 52,
      "hit": false,
      "t": 124966.66666666686,
      "d": 1150.0000000000146,
      "v": 110
    },
    {
      "midi": 57,
      "hit": false,
      "t": 124983.33333333353,
      "d": 966.6666666666715,
      "v": 117
    },
    {
      "midi": 60,
      "hit": false,
      "t": 124983.33333333353,
      "d": 1033.333333333343,
      "v": 114
    },
    {
      "midi": 64,
      "hit": false,
      "t": 124983.33333333353,
      "d": 1100.0000000000146,
      "v": 114
    },
    {
      "midi": 60,
      "hit": false,
      "t": 126316.66666666688,
      "d": 33.33333333332848,
      "v": 52
    },
    {
      "midi": 52,
      "hit": false,
      "t": 126533.33333333353,
      "d": 1416.6666666667006,
      "v": 62
    },
    {
      "midi": 60,
      "hit": false,
      "t": 126750.0000000002,
      "d": 66.66666666667152,
      "v": 72
    },
    {
      "midi": 45,
      "hit": false,
      "t": 126750.0000000002,
      "d": 1233.3333333333576,
      "v": 87
    },
    {
      "midi": 72,
      "hit": false,
      "t": 126966.66666666688,
      "d": 316.6666666666715,
      "v": 104
    },
    {
      "midi": 64,
      "hit": false,
      "t": 126966.66666666688,
      "d": 600.0000000000146,
      "v": 104
    },
    {
      "midi": 57,
      "hit": false,
      "t": 127216.66666666688,
      "d": 66.66666666667152,
      "v": 64
    },
    {
      "midi": 57,
      "hit": false,
      "t": 127450.00000000022,
      "d": 83.33333333334303,
      "v": 77
    },
    {
      "midi": 60,
      "hit": false,
      "t": 127466.66666666689,
      "d": 66.66666666667152,
      "v": 80
    },
    {
      "midi": 57,
      "hit": false,
      "t": 127683.33333333356,
      "d": 216.66666666667152,
      "v": 74
    },
    {
      "midi": 64,
      "hit": false,
      "t": 127700.00000000023,
      "d": 33.33333333332848,
      "v": 54
    },
    {
      "midi": 60,
      "hit": false,
      "t": 127900.00000000023,
      "d": 249.99999999998545,
      "v": 107
    },
    {
      "midi": 69,
      "hit": false,
      "t": 127900.00000000023,
      "d": 249.99999999998545,
      "v": 107
    },
    {
      "midi": 64,
      "hit": false,
      "t": 127900.00000000023,
      "d": 266.66666666665697,
      "v": 101
    },
    {
      "midi": 53,
      "hit": false,
      "t": 128116.66666666689,
      "d": 116.66666666667152,
      "v": 89
    },
    {
      "midi": 48,
      "hit": false,
      "t": 128316.66666666689,
      "d": 100,
      "v": 63
    },
    {
      "midi": 57,
      "hit": false,
      "t": 128550.00000000023,
      "d": 1166.6666666666715,
      "v": 117
    },
    {
      "midi": 60,
      "hit": false,
      "t": 128550.00000000023,
      "d": 1250,
      "v": 114
    },
    {
      "midi": 64,
      "hit": false,
      "t": 128550.00000000023,
      "d": 1366.6666666666715,
      "v": 114
    },
    {
      "midi": 48,
      "hit": false,
      "t": 128550.00000000023,
      "d": 3133.333333333343,
      "v": 104
    },
    {
      "midi": 41,
      "hit": false,
      "t": 128550.00000000023,
      "d": 3150,
      "v": 107
    },
    {
      "midi": 60,
      "hit": false,
      "t": 129916.6666666669,
      "d": 83.33333333334303,
      "v": 62
    },
    {
      "midi": 53,
      "hit": false,
      "t": 129933.33333333358,
      "d": 83.33333333334303,
      "v": 59
    },
    {
      "midi": 69,
      "hit": false,
      "t": 130083.33333333359,
      "d": 116.66666666667152,
      "v": 74
    },
    {
      "midi": 53,
      "hit": false,
      "t": 130083.33333333359,
      "d": 366.6666666666715,
      "v": 69
    },
    {
      "midi": 64,
      "hit": false,
      "t": 130100.00000000026,
      "d": 100,
      "v": 37
    },
    {
      "midi": 69,
      "hit": false,
      "t": 130333.33333333359,
      "d": 1183.3333333333576,
      "v": 110
    },
    {
      "midi": 60,
      "hit": false,
      "t": 130333.33333333359,
      "d": 1200.0000000000146,
      "v": 107
    },
    {
      "midi": 64,
      "hit": false,
      "t": 130333.33333333359,
      "d": 1216.6666666666715,
      "v": 104
    },
    {
      "midi": 57,
      "hit": false,
      "t": 131416.66666666692,
      "d": 66.66666666668607,
      "v": 37
    },
    {
      "midi": 53,
      "hit": false,
      "t": 131450.00000000026,
      "d": 183.33333333334303,
      "v": 89
    },
    {
      "midi": 69,
      "hit": false,
      "t": 131650.00000000026,
      "d": 333.33333333331393,
      "v": 104
    },
    {
      "midi": 60,
      "hit": false,
      "t": 131650.00000000026,
      "d": 366.66666666662786,
      "v": 96
    },
    {
      "midi": 64,
      "hit": false,
      "t": 131650.00000000026,
      "d": 366.66666666662786,
      "v": 93
    },
    {
      "midi": 57,
      "hit": false,
      "t": 131666.66666666692,
      "d": 333.33333333331393,
      "v": 110
    },
    {
      "midi": 45,
      "hit": false,
      "t": 131900.00000000023,
      "d": 166.66666666665697,
      "v": 74
    },
    {
      "midi": 38,
      "hit": false,
      "t": 132100.00000000023,
      "d": 1033.333333333314,
      "v": 104
    },
    {
      "midi": 57,
      "hit": false,
      "t": 132116.6666666669,
      "d": 933.333333333343,
      "v": 114
    },
    {
      "midi": 60,
      "hit": false,
      "t": 132116.6666666669,
      "d": 1050,
      "v": 104
    },
    {
      "midi": 65,
      "hit": false,
      "t": 132116.6666666669,
      "d": 1116.666666666686,
      "v": 104
    },
    {
      "midi": 50,
      "hit": false,
      "t": 133066.6666666669,
      "d": 133.33333333334303,
      "v": 66
    },
    {
      "midi": 57,
      "hit": false,
      "t": 133283.33333333358,
      "d": 133.33333333334303,
      "v": 83
    },
    {
      "midi": 60,
      "hit": false,
      "t": 133500.00000000026,
      "d": 150,
      "v": 101
    },
    {
      "midi": 50,
      "hit": false,
      "t": 133666.66666666692,
      "d": 116.66666666665697,
      "v": 87
    },
    {
      "midi": 65,
      "hit": false,
      "t": 133683.33333333358,
      "d": 116.66666666665697,
      "v": 93
    },
    {
      "midi": 65,
      "hit": false,
      "t": 133900.00000000023,
      "d": 449.9999999999709,
      "v": 110
    },
    {
      "midi": 43,
      "hit": false,
      "t": 133900.00000000023,
      "d": 1616.6666666666279,
      "v": 120
    },
    {
      "midi": 59,
      "hit": false,
      "t": 133916.6666666669,
      "d": 333.33333333331393,
      "v": 114
    },
    {
      "midi": 62,
      "hit": false,
      "t": 133916.6666666669,
      "d": 399.9999999999709,
      "v": 117
    },
    {
      "midi": 50,
      "hit": false,
      "t": 134366.66666666686,
      "d": 933.3333333333139,
      "v": 63
    },
    {
      "midi": 59,
      "hit": false,
      "t": 134533.33333333352,
      "d": 83.33333333334303,
      "v": 71
    },
    {
      "midi": 55,
      "hit": false,
      "t": 134800.0000000002,
      "d": 533.3333333333139,
      "v": 114
    },
    {
      "midi": 65,
      "hit": false,
      "t": 135266.66666666686,
      "d": 183.33333333331393,
      "v": 107
    },
    {
      "midi": 62,
      "hit": false,
      "t": 135266.66666666686,
      "d": 383.33333333334303,
      "v": 114
    },
    {
      "midi": 71,
      "hit": false,
      "t": 135283.33333333352,
      "d": 150,
      "v": 110
    },
    {
      "midi": 50,
      "hit": false,
      "t": 135483.33333333352,
      "d": 133.33333333334303,
      "v": 98
    },
    {
      "midi": 59,
      "hit": false,
      "t": 135733.33333333355,
      "d": 1150,
      "v": 114
    },
    {
      "midi": 48,
      "hit": false,
      "t": 135733.33333333355,
      "d": 1200,
      "v": 101
    },
    {
      "midi": 67,
      "hit": false,
      "t": 135733.33333333355,
      "d": 1416.666666666657,
      "v": 114
    },
    {
      "midi": 64,
      "hit": false,
      "t": 135733.33333333355,
      "d": 1666.666666666657,
      "v": 117
    },
    {
      "midi": 55,
      "hit": false,
      "t": 136800.0000000002,
      "d": 50,
      "v": 52
    },
    {
      "midi": 59,
      "hit": false,
      "t": 137100.0000000002,
      "d": 150,
      "v": 66
    },
    {
      "midi": 47,
      "hit": false,
      "t": 137283.33333333355,
      "d": 66.66666666665697,
      "v": 77
    },
    {
      "midi": 40,
      "hit": false,
      "t": 137500.0000000002,
      "d": 116.66666666668607,
      "v": 107
    },
    {
      "midi": 59,
      "hit": false,
      "t": 137516.66666666686,
      "d": 66.66666666668607,
      "v": 107
    },
    {
      "midi": 62,
      "hit": false,
      "t": 137516.66666666686,
      "d": 116.66666666668607,
      "v": 104
    },
    {
      "midi": 64,
      "hit": false,
      "t": 137516.66666666686,
      "d": 116.66666666668607,
      "v": 98
    },
    {
      "midi": 68,
      "hit": false,
      "t": 137516.66666666686,
      "d": 150.0000000000291,
      "v": 95
    },
    {
      "midi": 65,
      "hit": false,
      "t": 137916.6666666669,
      "d": 33.333333333343035,
      "v": 49
    },
    {
      "midi": 52,
      "hit": false,
      "t": 138100.00000000023,
      "d": 66.66666666665697,
      "v": 78
    },
    {
      "midi": 62,
      "hit": false,
      "t": 138100.00000000023,
      "d": 83.33333333331393,
      "v": 87
    },
    {
      "midi": 64,
      "hit": false,
      "t": 138150.00000000023,
      "d": 33.33333333331393,
      "v": 96
    },
    {
      "midi": 68,
      "hit": false,
      "t": 138150.00000000023,
      "d": 33.33333333331393,
      "v": 95
    },
    {
      "midi": 76,
      "hit": false,
      "t": 138150.00000000023,
      "d": 49.999999999970896,
      "v": 89
    },
    {
      "midi": 64,
      "hit": false,
      "t": 138366.66666666686,
      "d": 66.66666666665697,
      "v": 107
    },
    {
      "midi": 68,
      "hit": false,
      "t": 138366.66666666686,
      "d": 83.33333333331393,
      "v": 121
    },
    {
      "midi": 76,
      "hit": false,
      "t": 138366.66666666686,
      "d": 99.9999999999709,
      "v": 114
    },
    {
      "midi": 62,
      "hit": false,
      "t": 138383.33333333352,
      "d": 283.33333333331393,
      "v": 110
    },
    {
      "midi": 52,
      "hit": false,
      "t": 138383.33333333352,
      "d": 550,
      "v": 110
    },
    {
      "midi": 59,
      "hit": false,
      "t": 138633.3333333335,
      "d": 166.66666666668607,
      "v": 96
    },
    {
      "midi": 76,
      "hit": false,
      "t": 138816.66666666683,
      "d": 166.66666666668607,
      "v": 110
    },
    {
      "midi": 88,
      "hit": false,
      "t": 138816.66666666683,
      "d": 200.0000000000291,
      "v": 110
    },
    {
      "midi": 80,
      "hit": false,
      "t": 138816.66666666683,
      "d": 300.0000000000291,
      "v": 116
    },
    {
      "midi": 62,
      "hit": false,
      "t": 138850.00000000017,
      "d": 100,
      "v": 93
    },
    {
      "midi": 57,
      "hit": false,
      "t": 139033.33333333352,
      "d": 116.66666666668607,
      "v": 74
    },
    {
      "midi": 50,
      "hit": false,
      "t": 139266.66666666686,
      "d": 216.66666666668607,
      "v": 120
    },
    {
      "midi": 86,
      "hit": false,
      "t": 139266.66666666686,
      "d": 233.33333333334303,
      "v": 114
    },
    {
      "midi": 77,
      "hit": false,
      "t": 139266.66666666686,
      "d": 266.66666666668607,
      "v": 114
    },
    {
      "midi": 81,
      "hit": false,
      "t": 139266.66666666686,
      "d": 283.33333333334303,
      "v": 114
    },
    {
      "midi": 50,
      "hit": false,
      "t": 139666.66666666686,
      "d": 883.3333333333139,
      "v": 83
    },
    {
      "midi": 53,
      "hit": false,
      "t": 139783.33333333352,
      "d": 716.666666666657,
      "v": 93
    },
    {
      "midi": 57,
      "hit": false,
      "t": 139866.66666666686,
      "d": 933.3333333333139,
      "v": 107
    },
    {
      "midi": 62,
      "hit": false,
      "t": 139933.33333333352,
      "d": 83.33333333334303,
      "v": 96
    },
    {
      "midi": 65,
      "hit": false,
      "t": 140016.66666666686,
      "d": 100,
      "v": 83
    },
    {
      "midi": 69,
      "hit": false,
      "t": 140116.66666666686,
      "d": 66.66666666665697,
      "v": 110
    },
    {
      "midi": 74,
      "hit": false,
      "t": 140250.00000000017,
      "d": 83.33333333334303,
      "v": 120
    },
    {
      "midi": 77,
      "hit": false,
      "t": 140350.00000000017,
      "d": 66.66666666665697,
      "v": 93
    },
    {
      "midi": 81,
      "hit": false,
      "t": 140400.00000000017,
      "d": 66.66666666665697,
      "v": 110
    },
    {
      "midi": 86,
      "hit": false,
      "t": 140550.00000000017,
      "d": 66.66666666665697,
      "v": 110
    },
    {
      "midi": 89,
      "hit": false,
      "t": 140633.3333333335,
      "d": 83.33333333334303,
      "v": 98
    },
    {
      "midi": 93,
      "hit": false,
      "t": 140666.66666666683,
      "d": 83.33333333334303,
      "v": 110
    },
    {
      "midi": 98,
      "hit": false,
      "t": 140750.00000000017,
      "d": 50,
      "v": 117
    },
    {
      "midi": 57,
      "hit": false,
      "t": 141033.33333333352,
      "d": 1049.999999999971,
      "v": 104
    },
    {
      "midi": 50,
      "hit": false,
      "t": 141050.00000000017,
      "d": 1533.3333333332848,
      "v": 101
    },
    {
      "midi": 65,
      "hit": false,
      "t": 141466.66666666683,
      "d": 66.66666666665697,
      "v": 93
    },
    {
      "midi": 62,
      "hit": false,
      "t": 141600.00000000015,
      "d": 233.33333333334303,
      "v": 74
    },
    {
      "midi": 69,
      "hit": false,
      "t": 141683.3333333335,
      "d": 100,
      "v": 77
    },
    {
      "midi": 62,
      "hit": false,
      "t": 141933.3333333335,
      "d": 300,
      "v": 85
    },
    {
      "midi": 77,
      "hit": false,
      "t": 141933.3333333335,
      "d": 300,
      "v": 114
    },
    {
      "midi": 69,
      "hit": false,
      "t": 141933.3333333335,
      "d": 350,
      "v": 122
    },
    {
      "midi": 57,
      "hit": false,
      "t": 142183.3333333335,
      "d": 250,
      "v": 80
    },
    {
      "midi": 67,
      "hit": false,
      "t": 142350.00000000015,
      "d": 133.33333333334303,
      "v": 98
    },
    {
      "midi": 76,
      "hit": false,
      "t": 142350.00000000015,
      "d": 150,
      "v": 85
    },
    {
      "midi": 62,
      "hit": false,
      "t": 142383.3333333335,
      "d": 166.66666666665697,
      "v": 80
    },
    {
      "midi": 77,
      "hit": false,
      "t": 142566.6666666668,
      "d": 100,
      "v": 78
    },
    {
      "midi": 57,
      "hit": false,
      "t": 142566.6666666668,
      "d": 116.66666666665697,
      "v": 78
    },
    {
      "midi": 69,
      "hit": false,
      "t": 142566.6666666668,
      "d": 133.33333333331393,
      "v": 98
    },
    {
      "midi": 76,
      "hit": false,
      "t": 142833.33333333346,
      "d": 500,
      "v": 114
    },
    {
      "midi": 69,
      "hit": false,
      "t": 142833.33333333346,
      "d": 933.3333333333139,
      "v": 122
    },
    {
      "midi": 57,
      "hit": false,
      "t": 142833.33333333346,
      "d": 1216.666666666657,
      "v": 110
    },
    {
      "midi": 52,
      "hit": false,
      "t": 142833.33333333346,
      "d": 1250,
      "v": 104
    },
    {
      "midi": 64,
      "hit": false,
      "t": 143500.00000000012,
      "d": 150,
      "v": 49
    },
    {
      "midi": 60,
      "hit": false,
      "t": 143750.00000000012,
      "d": 300,
      "v": 64
    },
    {
      "midi": 71,
      "hit": false,
      "t": 143950.00000000012,
      "d": 533.333333333343,
      "v": 104
    },
    {
      "midi": 72,
      "hit": false,
      "t": 143950.00000000012,
      "d": 800,
      "v": 101
    },
    {
      "midi": 64,
      "hit": false,
      "t": 143950.00000000012,
      "d": 850,
      "v": 110
    },
    {
      "midi": 69,
      "hit": false,
      "t": 144433.33333333346,
      "d": 266.66666666665697,
      "v": 77
    },
    {
      "midi": 57,
      "hit": false,
      "t": 144633.33333333346,
      "d": 766.6666666666279,
      "v": 85
    },
    {
      "midi": 52,
      "hit": false,
      "t": 144633.33333333346,
      "d": 1200,
      "v": 96
    },
    {
      "midi": 64,
      "hit": false,
      "t": 145316.66666666677,
      "d": 66.66666666665697,
      "v": 85
    },
    {
      "midi": 60,
      "hit": false,
      "t": 145333.33333333343,
      "d": 33.333333333343035,
      "v": 47
    },
    {
      "midi": 57,
      "hit": false,
      "t": 145533.33333333343,
      "d": 266.66666666668607,
      "v": 78
    },
    {
      "midi": 64,
      "hit": false,
      "t": 145566.66666666677,
      "d": 50,
      "v": 63
    },
    {
      "midi": 60,
      "hit": false,
      "t": 145766.66666666677,
      "d": 400,
      "v": 107
    },
    {
      "midi": 69,
      "hit": false,
      "t": 145766.66666666677,
      "d": 483.33333333334303,
      "v": 117
    },
    {
      "midi": 64,
      "hit": false,
      "t": 145766.66666666677,
      "d": 500,
      "v": 114
    },
    {
      "midi": 57,
      "hit": false,
      "t": 146000.00000000012,
      "d": 66.66666666665697,
      "v": 63
    },
    {
      "midi": 53,
      "hit": false,
      "t": 146200.00000000012,
      "d": 133.33333333331393,
      "v": 81
    },
    {
      "midi": 57,
      "hit": false,
      "t": 146433.33333333343,
      "d": 666.666666666657,
      "v": 110
    },
    {
      "midi": 50,
      "hit": false,
      "t": 146433.33333333343,
      "d": 1250,
      "v": 98
    },
    {
      "midi": 65,
      "hit": false,
      "t": 146433.33333333343,
      "d": 1416.666666666657,
      "v": 110
    },
    {
      "midi": 69,
      "hit": false,
      "t": 146433.33333333343,
      "d": 1466.666666666657,
      "v": 114
    },
    {
      "midi": 62,
      "hit": false,
      "t": 146433.33333333343,
      "d": 1516.666666666657,
      "v": 114
    },
    {
      "midi": 56,
      "hit": false,
      "t": 147950.0000000001,
      "d": 100,
      "v": 91
    },
    {
      "midi": 59,
      "hit": false,
      "t": 148183.33333333343,
      "d": 1533.333333333343,
      "v": 117
    },
    {
      "midi": 62,
      "hit": false,
      "t": 148183.33333333343,
      "d": 1633.333333333343,
      "v": 104
    },
    {
      "midi": 68,
      "hit": false,
      "t": 148183.33333333343,
      "d": 1633.333333333343,
      "v": 110
    },
    {
      "midi": 64,
      "hit": false,
      "t": 148183.33333333343,
      "d": 1666.666666666686,
      "v": 104
    },
    {
      "midi": 52,
      "hit": false,
      "t": 148200.0000000001,
      "d": 1333.333333333343,
      "v": 107
    },
    {
      "midi": 52,
      "hit": false,
      "t": 149766.66666666677,
      "d": 100,
      "v": 67
    },
    {
      "midi": 60,
      "hit": false,
      "t": 149983.33333333343,
      "d": 549.9999999999709,
      "v": 110
    },
    {
      "midi": 64,
      "hit": false,
      "t": 149983.33333333343,
      "d": 616.6666666666279,
      "v": 110
    },
    {
      "midi": 69,
      "hit": false,
      "t": 149983.33333333343,
      "d": 766.6666666666279,
      "v": 120
    },
    {
      "midi": 45,
      "hit": false,
      "t": 149983.33333333343,
      "d": 2749.9999999999127,
      "v": 122
    },
    {
      "midi": 52,
      "hit": false,
      "t": 150450.0000000001,
      "d": 2166.6666666665988,
      "v": 80
    },
    {
      "midi": 59,
      "hit": false,
      "t": 150650.00000000006,
      "d": 100,
      "v": 70
    },
    {
      "midi": 60,
      "hit": false,
      "t": 150866.66666666672,
      "d": 150,
      "v": 104
    },
    {
      "midi": 64,
      "hit": false,
      "t": 151066.66666666672,
      "d": 50,
      "v": 93
    },
    {
      "midi": 71,
      "hit": false,
      "t": 151300.00000000006,
      "d": 166.66666666665697,
      "v": 117
    },
    {
      "midi": 72,
      "hit": false,
      "t": 151533.33333333337,
      "d": 1566.6666666666279,
      "v": 117
    },
    {
      "midi": 76,
      "hit": false,
      "t": 151783.33333333337,
      "d": 1333.3333333332848,
      "v": 101
    },
    {
      "midi": 57,
      "hit": false,
      "t": 151800.00000000003,
      "d": 116.66666666665697,
      "v": 71
    },
    {
      "midi": 57,
      "hit": false,
      "t": 153583.3333333333,
      "d": 1666.666666666657,
      "v": 91
    },
    {
      "midi": 60,
      "hit": false,
      "t": 153583.3333333333,
      "d": 1666.666666666657,
      "v": 96
    },
    {
      "midi": 64,
      "hit": false,
      "t": 153583.3333333333,
      "d": 1733.333333333343,
      "v": 96
    },
    {
      "midi": 52,
      "hit": false,
      "t": 155149.99999999997,
      "d": 133.33333333334303,
      "v": 83
    },
    {
      "midi": 57,
      "hit": false,
      "t": 155333.3333333333,
      "d": 633.333333333343,
      "v": 98
    },
    {
      "midi": 60,
      "hit": false,
      "t": 155333.3333333333,
      "d": 716.6666666666861,
      "v": 101
    },
    {
      "midi": 65,
      "hit": false,
      "t": 155333.3333333333,
      "d": 750.0000000000291,
      "v": 110
    },
    {
      "midi": 50,
      "hit": false,
      "t": 155349.99999999997,
      "d": 1183.3333333333721,
      "v": 98
    },
    {
      "midi": 53,
      "hit": false,
      "t": 156233.33333333334,
      "d": 250,
      "v": 91
    },
    {
      "midi": 60,
      "hit": false,
      "t": 156450,
      "d": 283.33333333334303,
      "v": 117
    },
    {
      "midi": 69,
      "hit": false,
      "t": 156450,
      "d": 366.66666666668607,
      "v": 120
    },
    {
      "midi": 50,
      "hit": false,
      "t": 156883.33333333334,
      "d": 183.33333333334303,
      "v": 85
    },
    {
      "midi": 43,
      "hit": false,
      "t": 157133.33333333334,
      "d": 1133.333333333314,
      "v": 107
    },
    {
      "midi": 71,
      "hit": false,
      "t": 157133.33333333334,
      "d": 1383.333333333314,
      "v": 110
    },
    {
      "midi": 62,
      "hit": false,
      "t": 157150,
      "d": 1599.999999999971,
      "v": 114
    },
    {
      "midi": 55,
      "hit": false,
      "t": 158050,
      "d": 116.66666666665697,
      "v": 63
    },
    {
      "midi": 59,
      "hit": false,
      "t": 158500,
      "d": 33.33333333331393,
      "v": 47
    },
    {
      "midi": 52,
      "hit": false,
      "t": 158683.3333333333,
      "d": 116.66666666665697,
      "v": 81
    },
    {
      "midi": 60,
      "hit": false,
      "t": 158899.99999999997,
      "d": 483.33333333334303,
      "v": 98
    },
    {
      "midi": 64,
      "hit": false,
      "t": 158899.99999999997,
      "d": 583.333333333343,
      "v": 101
    },
    {
      "midi": 48,
      "hit": false,
      "t": 158899.99999999997,
      "d": 1366.666666666686,
      "v": 104
    },
    {
      "midi": 60,
      "hit": false,
      "t": 159616.66666666666,
      "d": 33.333333333343035,
      "v": 53
    },
    {
      "midi": 55,
      "hit": false,
      "t": 159850,
      "d": 216.66666666665697,
      "v": 69
    },
    {
      "midi": 72,
      "hit": false,
      "t": 160250,
      "d": 216.66666666665697,
      "v": 117
    },
    {
      "midi": 64,
      "hit": false,
      "t": 160250,
      "d": 466.66666666665697,
      "v": 117
    },
    {
      "midi": 71,
      "hit": false,
      "t": 160716.66666666666,
      "d": 850,
      "v": 104
    },
    {
      "midi": 47,
      "hit": false,
      "t": 160716.66666666666,
      "d": 1150,
      "v": 110
    },
    {
      "midi": 62,
      "hit": false,
      "t": 160733.3333333333,
      "d": 1250,
      "v": 117
    },
    {
      "midi": 59,
      "hit": false,
      "t": 162283.3333333333,
      "d": 50,
      "v": 62
    },
    {
      "midi": 65,
      "hit": false,
      "t": 162283.3333333333,
      "d": 50,
      "v": 71
    },
    {
      "midi": 59,
      "hit": false,
      "t": 162499.99999999997,
      "d": 866.666666666657,
      "v": 117
    },
    {
      "midi": 65,
      "hit": false,
      "t": 162499.99999999997,
      "d": 1316.666666666657,
      "v": 117
    },
    {
      "midi": 47,
      "hit": false,
      "t": 162516.66666666663,
      "d": 1400,
      "v": 114
    },
    {
      "midi": 53,
      "hit": false,
      "t": 163366.66666666663,
      "d": 116.66666666665697,
      "v": 80
    },
    {
      "midi": 59,
      "hit": false,
      "t": 163583.33333333328,
      "d": 83.33333333334303,
      "v": 78
    },
    {
      "midi": 62,
      "hit": false,
      "t": 163799.99999999997,
      "d": 83.33333333331393,
      "v": 85
    },
    {
      "midi": 53,
      "hit": false,
      "t": 163999.99999999997,
      "d": 133.33333333334303,
      "v": 89
    },
    {
      "midi": 69,
      "hit": false,
      "t": 164249.99999999997,
      "d": 966.666666666657,
      "v": 122
    },
    {
      "midi": 62,
      "hit": false,
      "t": 164266.66666666663,
      "d": 850,
      "v": 114
    },
    {
      "midi": 52,
      "hit": false,
      "t": 164266.66666666663,
      "d": 1150,
      "v": 110
    },
    {
      "midi": 59,
      "hit": false,
      "t": 165183.33333333328,
      "d": 150,
      "v": 70
    },
    {
      "midi": 62,
      "hit": false,
      "t": 165366.66666666663,
      "d": 133.33333333334303,
      "v": 77
    },
    {
      "midi": 69,
      "hit": false,
      "t": 165599.99999999997,
      "d": 133.33333333334303,
      "v": 124
    },
    {
      "midi": 56,
      "hit": false,
      "t": 165799.99999999997,
      "d": 83.33333333334303,
      "v": 80
    },
    {
      "midi": 71,
      "hit": false,
      "t": 165799.99999999997,
      "d": 216.66666666668607,
      "v": 110
    },
    {
      "midi": 62,
      "hit": false,
      "t": 166033.3333333333,
      "d": 299.9999999999709,
      "v": 93
    },
    {
      "midi": 68,
      "hit": false,
      "t": 166033.3333333333,
      "d": 299.9999999999709,
      "v": 95
    },
    {
      "midi": 52,
      "hit": false,
      "t": 166049.99999999997,
      "d": 1200,
      "v": 101
    },
    {
      "midi": 56,
      "hit": false,
      "t": 166466.66666666663,
      "d": 700.0000000000291,
      "v": 82
    },
    {
      "midi": 64,
      "hit": false,
      "t": 166699.99999999997,
      "d": 83.33333333334303,
      "v": 77
    },
    {
      "midi": 76,
      "hit": false,
      "t": 166933.3333333333,
      "d": 116.66666666665697,
      "v": 104
    },
    {
      "midi": 59,
      "hit": false,
      "t": 166933.3333333333,
      "d": 300,
      "v": 83
    },
    {
      "midi": 74,
      "hit": false,
      "t": 167133.3333333333,
      "d": 116.66666666665697,
      "v": 107
    },
    {
      "midi": 76,
      "hit": false,
      "t": 167383.3333333333,
      "d": 383.33333333334303,
      "v": 120
    },
    {
      "midi": 60,
      "hit": false,
      "t": 167599.99999999997,
      "d": 83.33333333334303,
      "v": 66
    },
    {
      "midi": 64,
      "hit": false,
      "t": 167833.3333333333,
      "d": 766.6666666666861,
      "v": 107
    },
    {
      "midi": 57,
      "hit": false,
      "t": 167833.3333333333,
      "d": 1100.000000000029,
      "v": 93
    },
    {
      "midi": 72,
      "hit": false,
      "t": 167833.3333333333,
      "d": 1416.666666666686,
      "v": 101
    },
    {
      "midi": 60,
      "hit": false,
      "t": 168783.33333333334,
      "d": 200,
      "v": 56
    },
    {
      "midi": 60,
      "hit": false,
      "t": 169133.33333333334,
      "d": 66.66666666665697,
      "v": 1
    },
    {
      "midi": 57,
      "hit": false,
      "t": 169200,
      "d": 1649.999999999971,
      "v": 74
    },
    {
      "midi": 50,
      "hit": false,
      "t": 169633.3333333333,
      "d": 1433.333333333314,
      "v": 104
    },
    {
      "midi": 77,
      "hit": false,
      "t": 169866.66666666666,
      "d": 100,
      "v": 85
    },
    {
      "midi": 76,
      "hit": false,
      "t": 169966.66666666666,
      "d": 133.33333333334303,
      "v": 83
    },
    {
      "midi": 77,
      "hit": false,
      "t": 170100,
      "d": 566.666666666657,
      "v": 114
    },
    {
      "midi": 62,
      "hit": false,
      "t": 170500,
      "d": 366.66666666662786,
      "v": 93
    },
    {
      "midi": 65,
      "hit": false,
      "t": 170733.3333333333,
      "d": 116.66666666665697,
      "v": 85
    },
    {
      "midi": 69,
      "hit": false,
      "t": 170983.33333333328,
      "d": 166.66666666668607,
      "v": 122
    },
    {
      "midi": 72,
      "hit": false,
      "t": 171166.66666666663,
      "d": 216.66666666668607,
      "v": 120
    },
    {
      "midi": 55,
      "hit": false,
      "t": 171399.99999999997,
      "d": 1083.333333333314,
      "v": 104
    },
    {
      "midi": 71,
      "hit": false,
      "t": 171416.66666666663,
      "d": 1566.666666666657,
      "v": 114
    },
    {
      "midi": 65,
      "hit": false,
      "t": 172083.33333333328,
      "d": 100,
      "v": 59
    },
    {
      "midi": 59,
      "hit": false,
      "t": 172333.33333333328,
      "d": 66.66666666665697,
      "v": 44
    },
    {
      "midi": 65,
      "hit": false,
      "t": 172766.66666666663,
      "d": 66.66666666665697,
      "v": 85
    },
    {
      "midi": 55,
      "hit": false,
      "t": 172933.33333333328,
      "d": 66.66666666665697,
      "v": 70
    },
    {
      "midi": 48,
      "hit": false,
      "t": 173183.33333333328,
      "d": 1416.666666666686,
      "v": 104
    },
    {
      "midi": 64,
      "hit": false,
      "t": 173399.99999999994,
      "d": 83.33333333334303,
      "v": 74
    },
    {
      "midi": 76,
      "hit": false,
      "t": 173633.33333333328,
      "d": 116.66666666665697,
      "v": 114
    },
    {
      "midi": 74,
      "hit": false,
      "t": 173849.99999999994,
      "d": 150,
      "v": 122
    },
    {
      "midi": 76,
      "hit": false,
      "t": 174083.33333333328,
      "d": 466.66666666668607,
      "v": 117
    },
    {
      "midi": 60,
      "hit": false,
      "t": 174283.33333333328,
      "d": 133.33333333334303,
      "v": 77
    },
    {
      "midi": 72,
      "hit": false,
      "t": 174516.66666666663,
      "d": 150,
      "v": 87
    },
    {
      "midi": 72,
      "hit": false,
      "t": 174733.33333333328,
      "d": 83.33333333334303,
      "v": 57
    },
    {
      "midi": 47,
      "hit": false,
      "t": 174966.66666666663,
      "d": 133.33333333334303,
      "v": 96
    },
    {
      "midi": 69,
      "hit": false,
      "t": 174966.66666666663,
      "d": 833.333333333343,
      "v": 120
    },
    {
      "midi": 74,
      "hit": false,
      "t": 174966.66666666663,
      "d": 1333.3333333333721,
      "v": 114
    },
    {
      "midi": 65,
      "hit": false,
      "t": 176083.3333333333,
      "d": 133.33333333334303,
      "v": 56
    },
    {
      "midi": 69,
      "hit": false,
      "t": 176316.66666666666,
      "d": 150,
      "v": 83
    },
    {
      "midi": 74,
      "hit": false,
      "t": 176533.3333333333,
      "d": 183.33333333331393,
      "v": 96
    },
    {
      "midi": 77,
      "hit": false,
      "t": 176783.33333333328,
      "d": 366.66666666665697,
      "v": 104
    },
    {
      "midi": 69,
      "hit": false,
      "t": 176783.33333333328,
      "d": 1649.999999999971,
      "v": 122
    },
    {
      "midi": 74,
      "hit": false,
      "t": 177416.6666666666,
      "d": 1150,
      "v": 91
    },
    {
      "midi": 52,
      "hit": false,
      "t": 178566.6666666666,
      "d": 1366.6666666665988,
      "v": 120
    },
    {
      "midi": 59,
      "hit": false,
      "t": 178783.33333333326,
      "d": 2799.999999999971,
      "v": 89
    },
    {
      "midi": 64,
      "hit": false,
      "t": 179016.66666666657,
      "d": 66.66666666665697,
      "v": 83
    },
    {
      "midi": 69,
      "hit": false,
      "t": 179233.33333333323,
      "d": 150,
      "v": 117
    },
    {
      "midi": 71,
      "hit": false,
      "t": 179449.99999999988,
      "d": 50,
      "v": 101
    },
    {
      "midi": 64,
      "hit": false,
      "t": 179566.66666666654,
      "d": 216.66666666668607,
      "v": 66
    },
    {
      "midi": 76,
      "hit": false,
      "t": 179649.99999999988,
      "d": 150,
      "v": 110
    },
    {
      "midi": 83,
      "hit": false,
      "t": 179916.66666666654,
      "d": 50,
      "v": 72
    },
    {
      "midi": 81,
      "hit": false,
      "t": 179916.66666666654,
      "d": 133.33333333334303,
      "v": 98
    },
    {
      "midi": 83,
      "hit": false,
      "t": 180099.99999999988,
      "d": 166.66666666665697,
      "v": 96
    },
    {
      "midi": 88,
      "hit": false,
      "t": 180333.3333333332,
      "d": 316.66666666668607,
      "v": 110
    },
    {
      "midi": 52,
      "hit": false,
      "t": 180333.3333333332,
      "d": 1316.666666666686,
      "v": 104
    },
    {
      "midi": 80,
      "hit": false,
      "t": 180366.66666666654,
      "d": 366.66666666668607,
      "v": 116
    },
    {
      "midi": 62,
      "hit": false,
      "t": 181249.99999999988,
      "d": 250,
      "v": 101
    },
    {
      "midi": 65,
      "hit": false,
      "t": 181449.99999999988,
      "d": 516.666666666657,
      "v": 98
    },
    {
      "midi": 71,
      "hit": false,
      "t": 181449.99999999988,
      "d": 516.666666666657,
      "v": 107
    },
    {
      "midi": 74,
      "hit": false,
      "t": 181449.99999999988,
      "d": 516.666666666657,
      "v": 110
    },
    {
      "midi": 68,
      "hit": false,
      "t": 181449.99999999988,
      "d": 549.9999999999709,
      "v": 110
    },
    {
      "midi": 62,
      "hit": false,
      "t": 181716.66666666654,
      "d": 66.66666666665697,
      "v": 65
    },
    {
      "midi": 59,
      "hit": false,
      "t": 181916.66666666654,
      "d": 66.66666666665697,
      "v": 71
    },
    {
      "midi": 64,
      "hit": false,
      "t": 182133.3333333332,
      "d": 1250,
      "v": 110
    },
    {
      "midi": 72,
      "hit": false,
      "t": 182133.3333333332,
      "d": 1300,
      "v": 110
    },
    {
      "midi": 69,
      "hit": false,
      "t": 182133.3333333332,
      "d": 1333.333333333343,
      "v": 117
    },
    {
      "midi": 57,
      "hit": false,
      "t": 182133.3333333332,
      "d": 1566.666666666686,
      "v": 107
    },
    {
      "midi": 60,
      "hit": false,
      "t": 183616.66666666654,
      "d": 100,
      "v": 65
    },
    {
      "midi": 53,
      "hit": false,
      "t": 183883.3333333332,
      "d": 1333.333333333343,
      "v": 107
    },
    {
      "midi": 77,
      "hit": false,
      "t": 183899.99999999985,
      "d": 300,
      "v": 114
    },
    {
      "midi": 69,
      "hit": false,
      "t": 183899.99999999985,
      "d": 333.33333333334303,
      "v": 124
    },
    {
      "midi": 76,
      "hit": false,
      "t": 184349.99999999985,
      "d": 66.66666666665697,
      "v": 80
    },
    {
      "midi": 77,
      "hit": false,
      "t": 184549.99999999985,
      "d": 483.33333333334303,
      "v": 114
    },
    {
      "midi": 69,
      "hit": false,
      "t": 184549.99999999985,
      "d": 983.333333333343,
      "v": 120
    },
    {
      "midi": 60,
      "hit": false,
      "t": 184849.99999999985,
      "d": 83.33333333334303,
      "v": 33
    },
    {
      "midi": 65,
      "hit": false,
      "t": 185233.3333333332,
      "d": 133.33333333334303,
      "v": 61
    },
    {
      "midi": 57,
      "hit": false,
      "t": 185466.66666666654,
      "d": 83.33333333331393,
      "v": 72
    },
    {
      "midi": 65,
      "hit": false,
      "t": 185683.3333333332,
      "d": 1150,
      "v": 110
    },
    {
      "midi": 74,
      "hit": false,
      "t": 185683.3333333332,
      "d": 1150,
      "v": 104
    },
    {
      "midi": 69,
      "hit": false,
      "t": 185683.3333333332,
      "d": 1200,
      "v": 117
    },
    {
      "midi": 50,
      "hit": false,
      "t": 185683.3333333332,
      "d": 1550,
      "v": 110
    },
    {
      "midi": 62,
      "hit": false,
      "t": 186583.3333333332,
      "d": 133.33333333334303,
      "v": 77
    },
    {
      "midi": 57,
      "hit": false,
      "t": 187216.66666666654,
      "d": 100,
      "v": 78
    },
    {
      "midi": 71,
      "hit": false,
      "t": 187449.99999999988,
      "d": 683.333333333343,
      "v": 110
    },
    {
      "midi": 74,
      "hit": false,
      "t": 187449.99999999988,
      "d": 1116.666666666657,
      "v": 117
    },
    {
      "midi": 55,
      "hit": false,
      "t": 187449.99999999988,
      "d": 1383.333333333343,
      "v": 101
    },
    {
      "midi": 67,
      "hit": false,
      "t": 188199.99999999988,
      "d": 100,
      "v": 49
    },
    {
      "midi": 62,
      "hit": false,
      "t": 188399.99999999988,
      "d": 316.66666666665697,
      "v": 91
    },
    {
      "midi": 67,
      "hit": false,
      "t": 188633.3333333332,
      "d": 116.66666666668607,
      "v": 78
    },
    {
      "midi": 69,
      "hit": false,
      "t": 188833.33333333323,
      "d": 233.33333333331393,
      "v": 124
    },
    {
      "midi": 71,
      "hit": false,
      "t": 189033.33333333323,
      "d": 166.66666666665697,
      "v": 107
    },
    {
      "midi": 59,
      "hit": false,
      "t": 189049.99999999988,
      "d": 66.66666666665697,
      "v": 56
    },
    {
      "midi": 71,
      "hit": false,
      "t": 189283.33333333323,
      "d": 366.66666666665697,
      "v": 101
    },
    {
      "midi": 74,
      "hit": false,
      "t": 189283.33333333323,
      "d": 400,
      "v": 107
    },
    {
      "midi": 65,
      "hit": false,
      "t": 189283.33333333323,
      "d": 583.333333333343,
      "v": 96
    },
    {
      "midi": 55,
      "hit": false,
      "t": 189283.33333333323,
      "d": 1266.666666666657,
      "v": 96
    },
    {
      "midi": 59,
      "hit": false,
      "t": 189733.33333333323,
      "d": 783.333333333343,
      "v": 63
    },
    {
      "midi": 71,
      "hit": false,
      "t": 189916.66666666657,
      "d": 83.33333333334303,
      "v": 91
    },
    {
      "midi": 77,
      "hit": false,
      "t": 190149.9999999999,
      "d": 383.33333333331393,
      "v": 110
    },
    {
      "midi": 71,
      "hit": false,
      "t": 190149.9999999999,
      "d": 599.9999999999418,
      "v": 114
    },
    {
      "midi": 62,
      "hit": false,
      "t": 190449.9999999999,
      "d": 66.66666666665697,
      "v": 54
    },
    {
      "midi": 76,
      "hit": false,
      "t": 190616.66666666654,
      "d": 116.66666666665697,
      "v": 64
    },
    {
      "midi": 77,
      "hit": false,
      "t": 190816.6666666665,
      "d": 183.33333333334303,
      "v": 89
    },
    {
      "midi": 55,
      "hit": false,
      "t": 190849.99999999985,
      "d": 66.66666666665697,
      "v": 63
    },
    {
      "midi": 71,
      "hit": false,
      "t": 191066.6666666665,
      "d": 416.66666666665697,
      "v": 110
    },
    {
      "midi": 76,
      "hit": false,
      "t": 191066.6666666665,
      "d": 933.333333333343,
      "v": 104
    },
    {
      "midi": 48,
      "hit": false,
      "t": 191066.6666666665,
      "d": 1133.333333333343,
      "v": 101
    },
    {
      "midi": 60,
      "hit": false,
      "t": 191966.6666666665,
      "d": 100,
      "v": 77
    },
    {
      "midi": 72,
      "hit": false,
      "t": 192166.6666666665,
      "d": 150,
      "v": 78
    },
    {
      "midi": 64,
      "hit": false,
      "t": 192399.99999999985,
      "d": 83.33333333334303,
      "v": 96
    },
    {
      "midi": 57,
      "hit": false,
      "t": 192616.66666666654,
      "d": 50,
      "v": 78
    },
    {
      "midi": 57,
      "hit": false,
      "t": 192866.66666666654,
      "d": 566.6666666666861,
      "v": 104
    },
    {
      "midi": 62,
      "hit": false,
      "t": 192866.66666666654,
      "d": 800.0000000000291,
      "v": 117
    },
    {
      "midi": 69,
      "hit": false,
      "t": 192866.66666666654,
      "d": 966.6666666666861,
      "v": 122
    },
    {
      "midi": 47,
      "hit": false,
      "t": 192866.66666666654,
      "d": 1066.666666666686,
      "v": 101
    },
    {
      "midi": 57,
      "hit": false,
      "t": 193716.66666666657,
      "d": 266.66666666665697,
      "v": 83
    },
    {
      "midi": 62,
      "hit": false,
      "t": 193933.33333333323,
      "d": 150,
      "v": 80
    },
    {
      "midi": 69,
      "hit": false,
      "t": 194166.66666666657,
      "d": 166.66666666665697,
      "v": 117
    },
    {
      "midi": 71,
      "hit": false,
      "t": 194383.33333333323,
      "d": 583.3333333333139,
      "v": 89
    },
    {
      "midi": 59,
      "hit": false,
      "t": 194399.99999999988,
      "d": 50,
      "v": 49
    },
    {
      "midi": 68,
      "hit": false,
      "t": 194616.66666666657,
      "d": 166.66666666665697,
      "v": 89
    },
    {
      "midi": 62,
      "hit": false,
      "t": 194633.33333333323,
      "d": 133.33333333334303,
      "v": 74
    },
    {
      "midi": 52,
      "hit": false,
      "t": 194633.33333333323,
      "d": 1300.000000000029,
      "v": 107
    },
    {
      "midi": 64,
      "hit": false,
      "t": 194649.99999999988,
      "d": 83.33333333334303,
      "v": 72
    },
    {
      "midi": 56,
      "hit": false,
      "t": 194849.99999999988,
      "d": 1116.666666666686,
      "v": 99
    },
    {
      "midi": 68,
      "hit": false,
      "t": 195099.99999999988,
      "d": 100,
      "v": 110
    },
    {
      "midi": 71,
      "hit": false,
      "t": 195283.33333333323,
      "d": 150,
      "v": 107
    },
    {
      "midi": 74,
      "hit": false,
      "t": 195499.99999999988,
      "d": 83.33333333334303,
      "v": 101
    },
    {
      "midi": 59,
      "hit": false,
      "t": 195499.99999999988,
      "d": 400.0000000000291,
      "v": 91
    },
    {
      "midi": 76,
      "hit": false,
      "t": 195733.33333333323,
      "d": 133.33333333334303,
      "v": 117
    },
    {
      "midi": 77,
      "hit": false,
      "t": 195949.9999999999,
      "d": 150,
      "v": 117
    },
    {
      "midi": 76,
      "hit": false,
      "t": 196149.9999999999,
      "d": 83.33333333334303,
      "v": 87
    },
    {
      "midi": 77,
      "hit": false,
      "t": 196399.9999999999,
      "d": 1666.666666666657,
      "v": 114
    },
    {
      "midi": 57,
      "hit": false,
      "t": 196399.9999999999,
      "d": 1800,
      "v": 117
    },
    {
      "midi": 64,
      "hit": false,
      "t": 197333.33333333323,
      "d": 150,
      "v": 74
    },
    {
      "midi": 81,
      "hit": false,
      "t": 198166.66666666657,
      "d": 550,
      "v": 120
    },
    {
      "midi": 53,
      "hit": false,
      "t": 198166.66666666657,
      "d": 1166.666666666657,
      "v": 98
    },
    {
      "midi": 72,
      "hit": false,
      "t": 198166.66666666657,
      "d": 1183.333333333314,
      "v": 110
    },
    {
      "midi": 69,
      "hit": false,
      "t": 198849.9999999999,
      "d": 699.9999999999709,
      "v": 120
    },
    {
      "midi": 77,
      "hit": false,
      "t": 198849.9999999999,
      "d": 949.9999999999709,
      "v": 93
    },
    {
      "midi": 60,
      "hit": false,
      "t": 199116.66666666657,
      "d": 116.66666666665697,
      "v": 37
    },
    {
      "midi": 57,
      "hit": false,
      "t": 199749.99999999988,
      "d": 1483.333333333343,
      "v": 63
    },
    {
      "midi": 65,
      "hit": false,
      "t": 199999.99999999988,
      "d": 1400,
      "v": 117
    },
    {
      "midi": 50,
      "hit": false,
      "t": 199999.99999999988,
      "d": 1650,
      "v": 98
    },
    {
      "midi": 74,
      "hit": false,
      "t": 199999.99999999988,
      "d": 1750,
      "v": 114
    },
    {
      "midi": 69,
      "hit": false,
      "t": 201349.99999999988,
      "d": 66.66666666665697,
      "v": 56
    },
    {
      "midi": 57,
      "hit": false,
      "t": 201516.66666666654,
      "d": 33.333333333343035,
      "v": 31
    },
    {
      "midi": 71,
      "hit": false,
      "t": 201766.66666666654,
      "d": 1383.3333333332848,
      "v": 110
    },
    {
      "midi": 55,
      "hit": false,
      "t": 201766.66666666654,
      "d": 1616.6666666666279,
      "v": 110
    },
    {
      "midi": 67,
      "hit": false,
      "t": 201783.3333333332,
      "d": 1433.3333333332848,
      "v": 117
    },
    {
      "midi": 59,
      "hit": false,
      "t": 202699.99999999985,
      "d": 66.66666666665697,
      "v": 59
    },
    {
      "midi": 59,
      "hit": false,
      "t": 202933.33333333317,
      "d": 183.33333333331393,
      "v": 72
    },
    {
      "midi": 69,
      "hit": false,
      "t": 203099.99999999983,
      "d": 250,
      "v": 107
    },
    {
      "midi": 71,
      "hit": false,
      "t": 203299.99999999983,
      "d": 216.66666666668607,
      "v": 93
    },
    {
      "midi": 57,
      "hit": false,
      "t": 203316.66666666648,
      "d": 66.66666666668607,
      "v": 66
    },
    {
      "midi": 65,
      "hit": false,
      "t": 203549.99999999985,
      "d": 450,
      "v": 110
    },
    {
      "midi": 69,
      "hit": false,
      "t": 203549.99999999985,
      "d": 483.33333333334303,
      "v": 110
    },
    {
      "midi": 50,
      "hit": false,
      "t": 203549.99999999985,
      "d": 1416.6666666667152,
      "v": 107
    },
    {
      "midi": 57,
      "hit": false,
      "t": 203999.99999999985,
      "d": 1266.666666666686,
      "v": 62
    },
    {
      "midi": 77,
      "hit": false,
      "t": 204216.66666666654,
      "d": 566.6666666666861,
      "v": 117
    },
    {
      "midi": 69,
      "hit": false,
      "t": 204216.66666666654,
      "d": 933.333333333343,
      "v": 125
    },
    {
      "midi": 65,
      "hit": false,
      "t": 204883.33333333323,
      "d": 250,
      "v": 69
    },
    {
      "midi": 76,
      "hit": false,
      "t": 205333.3333333332,
      "d": 1366.666666666657,
      "v": 114
    },
    {
      "midi": 52,
      "hit": false,
      "t": 205333.3333333332,
      "d": 1450,
      "v": 96
    },
    {
      "midi": 68,
      "hit": false,
      "t": 205333.3333333332,
      "d": 1516.666666666657,
      "v": 121
    },
    {
      "midi": 71,
      "hit": false,
      "t": 205333.3333333332,
      "d": 1516.666666666657,
      "v": 110
    },
    {
      "midi": 64,
      "hit": false,
      "t": 206683.3333333332,
      "d": 200,
      "v": 69
    },
    {
      "midi": 56,
      "hit": false,
      "t": 206899.99999999985,
      "d": 183.33333333334303,
      "v": 58
    },
    {
      "midi": 62,
      "hit": false,
      "t": 207116.66666666654,
      "d": 600,
      "v": 85
    },
    {
      "midi": 64,
      "hit": false,
      "t": 207116.66666666654,
      "d": 866.666666666657,
      "v": 114
    },
    {
      "midi": 71,
      "hit": false,
      "t": 207116.66666666654,
      "d": 1066.666666666657,
      "v": 104
    },
    {
      "midi": 68,
      "hit": false,
      "t": 207116.66666666654,
      "d": 1100,
      "v": 110
    },
    {
      "midi": 56,
      "hit": false,
      "t": 207116.66666666654,
      "d": 2933.333333333314,
      "v": 31
    },
    {
      "midi": 52,
      "hit": false,
      "t": 207116.66666666654,
      "d": 2949.999999999971,
      "v": 91
    },
    {
      "midi": 62,
      "hit": false,
      "t": 208016.66666666654,
      "d": 350,
      "v": 71
    },
    {
      "midi": 64,
      "hit": false,
      "t": 208233.3333333332,
      "d": 366.66666666668607,
      "v": 80
    },
    {
      "midi": 68,
      "hit": false,
      "t": 208466.66666666654,
      "d": 166.66666666668607,
      "v": 121
    },
    {
      "midi": 69,
      "hit": false,
      "t": 208683.33333333323,
      "d": 200,
      "v": 117
    },
    {
      "midi": 62,
      "hit": false,
      "t": 208899.99999999988,
      "d": 550,
      "v": 69
    },
    {
      "midi": 68,
      "hit": false,
      "t": 208899.99999999988,
      "d": 716.666666666657,
      "v": 110
    },
    {
      "midi": 64,
      "hit": false,
      "t": 208899.99999999988,
      "d": 783.3333333333139,
      "v": 117
    },
    {
      "midi": 71,
      "hit": false,
      "t": 208899.99999999988,
      "d": 899.9999999999709,
      "v": 101
    },
    {
      "midi": 62,
      "hit": false,
      "t": 209799.99999999985,
      "d": 150,
      "v": 89
    },
    {
      "midi": 65,
      "hit": false,
      "t": 210016.6666666665,
      "d": 233.33333333334303,
      "v": 120
    },
    {
      "midi": 71,
      "hit": false,
      "t": 210016.6666666665,
      "d": 433.33333333334303,
      "v": 117
    },
    {
      "midi": 68,
      "hit": false,
      "t": 210016.6666666665,
      "d": 483.33333333334303,
      "v": 124
    },
    {
      "midi": 64,
      "hit": false,
      "t": 210249.99999999985,
      "d": 150,
      "v": 80
    },
    {
      "midi": 52,
      "hit": false,
      "t": 210466.6666666665,
      "d": 3266.666666666686,
      "v": 81
    },
    {
      "midi": 45,
      "hit": false,
      "t": 210466.6666666665,
      "d": 3283.333333333343,
      "v": 93
    },
    {
      "midi": 57,
      "hit": false,
      "t": 210699.99999999985,
      "d": 833.333333333343,
      "v": 93
    },
    {
      "midi": 60,
      "hit": false,
      "t": 210699.99999999985,
      "d": 1183.333333333343,
      "v": 120
    },
    {
      "midi": 64,
      "hit": false,
      "t": 210699.99999999985,
      "d": 1183.333333333343,
      "v": 120
    },
    {
      "midi": 69,
      "hit": false,
      "t": 210699.99999999985,
      "d": 3383.333333333314,
      "v": 122
    },
    {
      "midi": 60,
      "hit": false,
      "t": 212033.3333333332,
      "d": 150,
      "v": 56
    },
    {
      "midi": 57,
      "hit": false,
      "t": 212249.99999999985,
      "d": 1383.333333333343,
      "v": 80
    },
    {
      "midi": 64,
      "hit": false,
      "t": 212483.3333333332,
      "d": 1433.333333333314,
      "v": 96
    },
    {
      "midi": 60,
      "hit": false,
      "t": 212483.3333333332,
      "d": 1483.333333333314,
      "v": 114
    },
    {
      "midi": 62,
      "hit": false,
      "t": 214266.6666666665,
      "d": 583.333333333343,
      "v": 85
    },
    {
      "midi": 64,
      "hit": false,
      "t": 214266.6666666665,
      "d": 850,
      "v": 114
    },
    {
      "midi": 71,
      "hit": false,
      "t": 214266.6666666665,
      "d": 1066.666666666686,
      "v": 104
    },
    {
      "midi": 68,
      "hit": false,
      "t": 214266.6666666665,
      "d": 1100.000000000029,
      "v": 110
    },
    {
      "midi": 52,
      "hit": false,
      "t": 214266.6666666665,
      "d": 2933.333333333372,
      "v": 91
    },
    {
      "midi": 56,
      "hit": false,
      "t": 214266.6666666665,
      "d": 2933.333333333372,
      "v": 31
    },
    {
      "midi": 62,
      "hit": false,
      "t": 215149.99999999985,
      "d": 366.66666666668607,
      "v": 71
    },
    {
      "midi": 64,
      "hit": false,
      "t": 215383.3333333332,
      "d": 350.0000000000291,
      "v": 80
    },
    {
      "midi": 68,
      "hit": false,
      "t": 215599.99999999988,
      "d": 166.66666666668607,
      "v": 121
    },
    {
      "midi": 69,
      "hit": false,
      "t": 215833.33333333323,
      "d": 183.33333333334303,
      "v": 117
    },
    {
      "midi": 62,
      "hit": false,
      "t": 216049.9999999999,
      "d": 550,
      "v": 69
    },
    {
      "midi": 68,
      "hit": false,
      "t": 216049.9999999999,
      "d": 716.666666666657,
      "v": 110
    },
    {
      "midi": 64,
      "hit": false,
      "t": 216049.9999999999,
      "d": 783.3333333333139,
      "v": 117
    },
    {
      "midi": 71,
      "hit": false,
      "t": 216049.9999999999,
      "d": 883.3333333333139,
      "v": 101
    },
    {
      "midi": 62,
      "hit": false,
      "t": 216949.99999999988,
      "d": 150,
      "v": 89
    },
    {
      "midi": 65,
      "hit": false,
      "t": 217166.66666666654,
      "d": 233.33333333334303,
      "v": 120
    },
    {
      "midi": 71,
      "hit": false,
      "t": 217166.66666666654,
      "d": 433.33333333334303,
      "v": 117
    },
    {
      "midi": 68,
      "hit": false,
      "t": 217166.66666666654,
      "d": 483.33333333334303,
      "v": 124
    },
    {
      "midi": 64,
      "hit": false,
      "t": 217383.33333333323,
      "d": 150,
      "v": 80
    },
    {
      "midi": 45,
      "hit": false,
      "t": 217616.66666666654,
      "d": 3266.666666666686,
      "v": 93
    },
    {
      "midi": 52,
      "hit": false,
      "t": 217616.66666666654,
      "d": 3266.666666666686,
      "v": 81
    },
    {
      "midi": 57,
      "hit": false,
      "t": 217833.33333333323,
      "d": 850,
      "v": 93
    },
    {
      "midi": 60,
      "hit": false,
      "t": 217833.33333333323,
      "d": 1183.333333333343,
      "v": 120
    },
    {
      "midi": 64,
      "hit": false,
      "t": 217833.33333333323,
      "d": 1200,
      "v": 120
    },
    {
      "midi": 69,
      "hit": false,
      "t": 217833.33333333323,
      "d": 3383.333333333314,
      "v": 122
    },
    {
      "midi": 60,
      "hit": false,
      "t": 219166.66666666657,
      "d": 150,
      "v": 56
    },
    {
      "midi": 57,
      "hit": false,
      "t": 219399.9999999999,
      "d": 1366.666666666657,
      "v": 80
    },
    {
      "midi": 64,
      "hit": false,
      "t": 219616.66666666657,
      "d": 1433.333333333314,
      "v": 96
    },
    {
      "midi": 60,
      "hit": false,
      "t": 219616.66666666657,
      "d": 1499.999999999971,
      "v": 114
    },
    {
      "midi": 34,
      "hit": false,
      "t": 221433.3333333332,
      "d": 483.33333333334303,
      "v": 116
    },
    {
      "midi": 46,
      "hit": false,
      "t": 221433.3333333332,
      "d": 533.333333333343,
      "v": 116
    },
    {
      "midi": 58,
      "hit": false,
      "t": 221433.3333333332,
      "d": 650,
      "v": 124
    },
    {
      "midi": 62,
      "hit": false,
      "t": 221433.3333333332,
      "d": 700,
      "v": 120
    },
    {
      "midi": 65,
      "hit": false,
      "t": 221433.3333333332,
      "d": 716.666666666657,
      "v": 117
    },
    {
      "midi": 46,
      "hit": false,
      "t": 222316.6666666665,
      "d": 1933.333333333343,
      "v": 95
    },
    {
      "midi": 70,
      "hit": false,
      "t": 222366.6666666665,
      "d": 66.66666666665697,
      "v": 84
    },
    {
      "midi": 62,
      "hit": false,
      "t": 222383.33333333317,
      "d": 83.33333333334303,
      "v": 60
    },
    {
      "midi": 53,
      "hit": false,
      "t": 222716.6666666665,
      "d": 1500,
      "v": 93
    },
    {
      "midi": 65,
      "hit": false,
      "t": 222766.6666666665,
      "d": 83.33333333334303,
      "v": 96
    },
    {
      "midi": 58,
      "hit": false,
      "t": 223183.3333333332,
      "d": 366.66666666665697,
      "v": 104
    },
    {
      "midi": 74,
      "hit": false,
      "t": 223199.99999999985,
      "d": 766.666666666657,
      "v": 120
    },
    {
      "midi": 70,
      "hit": false,
      "t": 223199.99999999985,
      "d": 1116.666666666657,
      "v": 126
    },
    {
      "midi": 65,
      "hit": false,
      "t": 223199.99999999985,
      "d": 1133.333333333314,
      "v": 120
    },
    {
      "midi": 33,
      "hit": false,
      "t": 225083.33333333317,
      "d": 200,
      "v": 110
    },
    {
      "midi": 45,
      "hit": false,
      "t": 225083.33333333317,
      "d": 266.66666666665697,
      "v": 107
    },
    {
      "midi": 57,
      "hit": false,
      "t": 225083.33333333317,
      "d": 483.33333333331393,
      "v": 117
    },
    {
      "midi": 61,
      "hit": false,
      "t": 225083.33333333317,
      "d": 533.3333333333139,
      "v": 99
    },
    {
      "midi": 64,
      "hit": false,
      "t": 225083.33333333317,
      "d": 549.9999999999709,
      "v": 110
    },
    {
      "midi": 52,
      "hit": false,
      "t": 225699.9999999998,
      "d": 1800.000000000029,
      "v": 93
    },
    {
      "midi": 57,
      "hit": false,
      "t": 225933.33333333314,
      "d": 1583.333333333343,
      "v": 110
    },
    {
      "midi": 59,
      "hit": false,
      "t": 226099.9999999998,
      "d": 83.33333333334303,
      "v": 91
    },
    {
      "midi": 61,
      "hit": false,
      "t": 226283.33333333314,
      "d": 116.66666666665697,
      "v": 121
    },
    {
      "midi": 64,
      "hit": false,
      "t": 226466.66666666645,
      "d": 66.66666666665697,
      "v": 110
    },
    {
      "midi": 69,
      "hit": false,
      "t": 226666.66666666645,
      "d": 133.33333333334303,
      "v": 110
    },
    {
      "midi": 71,
      "hit": false,
      "t": 226866.66666666645,
      "d": 133.33333333334303,
      "v": 117
    },
    {
      "midi": 73,
      "hit": false,
      "t": 227049.9999999998,
      "d": 83.33333333334303,
      "v": 121
    },
    {
      "midi": 76,
      "hit": false,
      "t": 227266.66666666648,
      "d": 83.33333333334303,
      "v": 91
    },
    {
      "midi": 81,
      "hit": false,
      "t": 227499.99999999983,
      "d": 150,
      "v": 110
    },
    {
      "midi": 83,
      "hit": false,
      "t": 227766.66666666648,
      "d": 133.33333333334303,
      "v": 96
    },
    {
      "midi": 85,
      "hit": false,
      "t": 228099.99999999983,
      "d": 116.66666666665697,
      "v": 84
    },
    {
      "midi": 88,
      "hit": false,
      "t": 228583.33333333314,
      "d": 83.33333333334303,
      "v": 93
    },
    {
      "midi": 64,
      "hit": false,
      "t": 229066.66666666648,
      "d": 1050.000000000029,
      "v": 69
    },
    {
      "midi": 69,
      "hit": false,
      "t": 229149.99999999983,
      "d": 950.0000000000291,
      "v": 91
    },
    {
      "midi": 73,
      "hit": false,
      "t": 229249.99999999983,
      "d": 816.6666666666861,
      "v": 99
    },
    {
      "midi": 81,
      "hit": false,
      "t": 229383.33333333317,
      "d": 133.33333333334303,
      "v": 93
    },
    {
      "midi": 85,
      "hit": false,
      "t": 229466.6666666665,
      "d": 150,
      "v": 104
    },
    {
      "midi": 88,
      "hit": false,
      "t": 229583.33333333317,
      "d": 133.33333333334303,
      "v": 107
    },
    {
      "midi": 93,
      "hit": false,
      "t": 229699.99999999985,
      "d": 83.33333333331393,
      "v": 124
    },
    {
      "midi": 93,
      "hit": false,
      "t": 229816.6666666665,
      "d": 16.666666666656965,
      "v": 81
    }
  ]
}