{
  "jsonPath": "Soul/Instrumental Soul/The Mar-Keys/ive-been-loving-you-too-long-lp-version.json",
  "path": "Soul\\Instrumental Soul\\The Mar-Keys\\Ive Been Loving You Too Long (LP Version).mid",
  "name": "Ive Been Loving You Too Long (LP Version)",
  "difficulty": "Advanced",
  "bpm": 72.00002880001152,
  "notes": [
    {
      "midi": 57,
      "hit": false,
      "t": 4999.9980000000005,
      "d": 2031.2491874999996,
      "v": 62
    },
    {
      "midi": 64,
      "hit": false,
      "t": 5008.678552083334,
      "d": 1310.763364583333,
      "v": 67
    },
    {
      "midi": 69,
      "hit": false,
      "t": 5425.345052083334,
      "d": 399.305395833333,
      "v": 70
    },
    {
      "midi": 73,
      "hit": false,
      "t": 5815.969895833334,
      "d": 407.9859479166662,
      "v": 70
    },
    {
      "midi": 69,
      "hit": false,
      "t": 6232.636395833333,
      "d": 460.069260416667,
      "v": 72
    },
    {
      "midi": 76,
      "hit": false,
      "t": 6232.636395833333,
      "d": 1267.360604166668,
      "v": 76
    },
    {
      "midi": 73,
      "hit": false,
      "t": 6649.302895833333,
      "d": 486.11091666666744,
      "v": 66
    },
    {
      "midi": 69,
      "hit": false,
      "t": 7057.2888437500005,
      "d": 494.7914687500006,
      "v": 68
    },
    {
      "midi": 64,
      "hit": false,
      "t": 7499.997000000001,
      "d": 512.1525729166669,
      "v": 69
    },
    {
      "midi": 57,
      "hit": false,
      "t": 7499.997000000001,
      "d": 1432.29109375,
      "v": 67
    },
    {
      "midi": 69,
      "hit": false,
      "t": 7934.024604166668,
      "d": 381.9442916666676,
      "v": 73
    },
    {
      "midi": 73,
      "hit": false,
      "t": 8315.968895833335,
      "d": 399.305395833333,
      "v": 70
    },
    {
      "midi": 76,
      "hit": false,
      "t": 8732.635395833335,
      "d": 451.38870833333203,
      "v": 74
    },
    {
      "midi": 64,
      "hit": false,
      "t": 8732.635395833335,
      "d": 694.4441666666662,
      "v": 68
    },
    {
      "midi": 69,
      "hit": false,
      "t": 8741.315947916668,
      "d": 434.0276041666657,
      "v": 72
    },
    {
      "midi": 73,
      "hit": false,
      "t": 9149.301895833334,
      "d": 460.0692604166652,
      "v": 71
    },
    {
      "midi": 69,
      "hit": false,
      "t": 9565.968395833333,
      "d": 477.43036458333154,
      "v": 72
    },
    {
      "midi": 52,
      "hit": false,
      "t": 9999.996,
      "d": 2161.457468749997,
      "v": 71
    },
    {
      "midi": 64,
      "hit": false,
      "t": 10008.676552083332,
      "d": 815.9718958333324,
      "v": 67
    },
    {
      "midi": 68,
      "hit": false,
      "t": 10434.023604166665,
      "d": 416.66649999999936,
      "v": 66
    },
    {
      "midi": 71,
      "hit": false,
      "t": 10824.648447916665,
      "d": 416.66649999999936,
      "v": 83
    },
    {
      "midi": 68,
      "hit": false,
      "t": 11241.314947916664,
      "d": 434.0276041666657,
      "v": 66
    },
    {
      "midi": 76,
      "hit": false,
      "t": 11258.67605208333,
      "d": 998.2634895833326,
      "v": 70
    },
    {
      "midi": 71,
      "hit": false,
      "t": 11657.981447916663,
      "d": 425.3470520833325,
      "v": 80
    },
    {
      "midi": 68,
      "hit": false,
      "t": 12065.96739583333,
      "d": 520.833125000001,
      "v": 69
    },
    {
      "midi": 52,
      "hit": false,
      "t": 12508.67555208333,
      "d": 2482.6378958333316,
      "v": 73
    },
    {
      "midi": 64,
      "hit": false,
      "t": 12517.356104166663,
      "d": 555.5553333333337,
      "v": 67
    },
    {
      "midi": 68,
      "hit": false,
      "t": 12934.022604166665,
      "d": 399.305395833333,
      "v": 69
    },
    {
      "midi": 71,
      "hit": false,
      "t": 13333.327999999998,
      "d": 416.66649999999936,
      "v": 81
    },
    {
      "midi": 68,
      "hit": false,
      "t": 13749.994499999997,
      "d": 434.0276041666657,
      "v": 67
    },
    {
      "midi": 76,
      "hit": false,
      "t": 13758.67505208333,
      "d": 1189.235635416666,
      "v": 73
    },
    {
      "midi": 71,
      "hit": false,
      "t": 14184.022104166663,
      "d": 399.305395833333,
      "v": 81
    },
    {
      "midi": 68,
      "hit": false,
      "t": 14565.96639583333,
      "d": 451.38870833333203,
      "v": 68
    },
    {
      "midi": 57,
      "hit": false,
      "t": 14982.632895833329,
      "d": 2118.0547083333295,
      "v": 68
    },
    {
      "midi": 64,
      "hit": false,
      "t": 14991.313447916662,
      "d": 512.152572916666,
      "v": 69
    },
    {
      "midi": 69,
      "hit": false,
      "t": 15425.341052083328,
      "d": 416.66649999999936,
      "v": 75
    },
    {
      "midi": 73,
      "hit": false,
      "t": 15815.965895833328,
      "d": 416.66649999999936,
      "v": 69
    },
    {
      "midi": 76,
      "hit": false,
      "t": 16241.31294791666,
      "d": 694.4441666666644,
      "v": 73
    },
    {
      "midi": 69,
      "hit": false,
      "t": 16249.993499999993,
      "d": 416.66649999999936,
      "v": 72
    },
    {
      "midi": 73,
      "hit": false,
      "t": 16657.97944791666,
      "d": 442.70815624999886,
      "v": 71
    },
    {
      "midi": 69,
      "hit": false,
      "t": 17065.965395833326,
      "d": 486.1109166666647,
      "v": 72
    },
    {
      "midi": 57,
      "hit": false,
      "t": 17491.312447916658,
      "d": 2126.7352604166626,
      "v": 69
    },
    {
      "midi": 64,
      "hit": false,
      "t": 17499.99299999999,
      "d": 503.47202083333104,
      "v": 65
    },
    {
      "midi": 69,
      "hit": false,
      "t": 17916.65949999999,
      "d": 442.70815624999886,
      "v": 71
    },
    {
      "midi": 73,
      "hit": false,
      "t": 18333.32599999999,
      "d": 399.305395833333,
      "v": 70
    },
    {
      "midi": 69,
      "hit": false,
      "t": 18749.99249999999,
      "d": 416.66649999999936,
      "v": 72
    },
    {
      "midi": 76,
      "hit": false,
      "t": 18758.673052083323,
      "d": 425.3470520833325,
      "v": 71
    },
    {
      "midi": 73,
      "hit": false,
      "t": 19157.978447916656,
      "d": 434.0276041666657,
      "v": 70
    },
    {
      "midi": 69,
      "hit": false,
      "t": 19565.96439583332,
      "d": 425.3470520833325,
      "v": 71
    },
    {
      "midi": 52,
      "hit": false,
      "t": 19982.63089583332,
      "d": 1310.7633645833303,
      "v": 75
    },
    {
      "midi": 64,
      "hit": false,
      "t": 19991.311447916654,
      "d": 555.5553333333337,
      "v": 71
    },
    {
      "midi": 68,
      "hit": false,
      "t": 20434.019604166653,
      "d": 399.305395833333,
      "v": 66
    },
    {
      "midi": 71,
      "hit": false,
      "t": 20824.644447916653,
      "d": 425.3470520833325,
      "v": 82
    },
    {
      "midi": 68,
      "hit": false,
      "t": 21258.67205208332,
      "d": 425.3470520833325,
      "v": 68
    },
    {
      "midi": 76,
      "hit": false,
      "t": 21267.352604166652,
      "d": 416.66649999999936,
      "v": 74
    },
    {
      "midi": 71,
      "hit": false,
      "t": 21666.657999999985,
      "d": 425.3470520833325,
      "v": 82
    },
    {
      "midi": 68,
      "hit": false,
      "t": 22065.963395833318,
      "d": 494.7914687499979,
      "v": 69
    },
    {
      "midi": 64,
      "hit": false,
      "t": 22517.35210416665,
      "d": 486.1109166666647,
      "v": 76
    },
    {
      "midi": 68,
      "hit": false,
      "t": 22934.01860416665,
      "d": 381.9442916666667,
      "v": 70
    },
    {
      "midi": 71,
      "hit": false,
      "t": 23315.962895833316,
      "d": 425.3470520833325,
      "v": 80
    },
    {
      "midi": 76,
      "hit": false,
      "t": 23749.99049999998,
      "d": 416.66649999999936,
      "v": 77
    },
    {
      "midi": 68,
      "hit": false,
      "t": 23749.99049999998,
      "d": 425.3470520833325,
      "v": 72
    },
    {
      "midi": 71,
      "hit": false,
      "t": 24157.976447916648,
      "d": 425.3470520833325,
      "v": 75
    },
    {
      "midi": 68,
      "hit": false,
      "t": 24565.962395833314,
      "d": 468.74981249999837,
      "v": 66
    },
    {
      "midi": 64,
      "hit": false,
      "t": 25017.351104166646,
      "d": 486.1109166666647,
      "v": 67
    },
    {
      "midi": 57,
      "hit": false,
      "t": 25017.351104166646,
      "d": 2239.5824374999975,
      "v": 73
    },
    {
      "midi": 69,
      "hit": false,
      "t": 25434.017604166645,
      "d": 390.62484374999985,
      "v": 75
    },
    {
      "midi": 73,
      "hit": false,
      "t": 25815.961895833312,
      "d": 399.305395833333,
      "v": 72
    },
    {
      "midi": 69,
      "hit": false,
      "t": 26232.62839583331,
      "d": 460.0692604166652,
      "v": 73
    },
    {
      "midi": 76,
      "hit": false,
      "t": 26232.62839583331,
      "d": 486.1109166666647,
      "v": 72
    },
    {
      "midi": 73,
      "hit": false,
      "t": 26684.017104166644,
      "d": 399.305395833333,
      "v": 73
    },
    {
      "midi": 69,
      "hit": false,
      "t": 27065.96139583331,
      "d": 468.74981249999837,
      "v": 68
    },
    {
      "midi": 64,
      "hit": false,
      "t": 27491.308447916643,
      "d": 503.47202083333104,
      "v": 67
    },
    {
      "midi": 57,
      "hit": false,
      "t": 27491.308447916643,
      "d": 2560.7628645833283,
      "v": 66
    },
    {
      "midi": 69,
      "hit": false,
      "t": 27925.33605208331,
      "d": 407.9859479166662,
      "v": 71
    },
    {
      "midi": 73,
      "hit": false,
      "t": 28315.96089583331,
      "d": 390.62484374999985,
      "v": 68
    },
    {
      "midi": 76,
      "hit": false,
      "t": 28741.30794791664,
      "d": 442.70815624999886,
      "v": 77
    },
    {
      "midi": 64,
      "hit": false,
      "t": 28749.988499999974,
      "d": 399.305395833333,
      "v": 69
    },
    {
      "midi": 73,
      "hit": false,
      "t": 29149.293895833307,
      "d": 460.0692604166652,
      "v": 71
    },
    {
      "midi": 69,
      "hit": false,
      "t": 29565.960395833306,
      "d": 416.66649999999936,
      "v": 74
    },
    {
      "midi": 49,
      "hit": false,
      "t": 29999.987999999972,
      "d": 2135.415812499996,
      "v": 65
    },
    {
      "midi": 68,
      "hit": false,
      "t": 30017.34910416664,
      "d": 555.5553333333337,
      "v": 66
    },
    {
      "midi": 73,
      "hit": false,
      "t": 30442.69615624997,
      "d": 373.2637395833335,
      "v": 67
    },
    {
      "midi": 77,
      "hit": false,
      "t": 30824.640447916638,
      "d": 407.9859479166662,
      "v": 79
    },
    {
      "midi": 80,
      "hit": false,
      "t": 31249.98749999997,
      "d": 399.305395833333,
      "v": 76
    },
    {
      "midi": 68,
      "hit": false,
      "t": 31267.348604166637,
      "d": 512.1525729166679,
      "v": 63
    },
    {
      "midi": 77,
      "hit": false,
      "t": 31649.292895833303,
      "d": 407.9859479166662,
      "v": 76
    },
    {
      "midi": 73,
      "hit": false,
      "t": 32065.959395833303,
      "d": 416.66649999999936,
      "v": 78
    },
    {
      "midi": 68,
      "hit": false,
      "t": 32482.625895833302,
      "d": 590.2775416666664,
      "v": 68
    },
    {
      "midi": 49,
      "hit": false,
      "t": 32482.625895833302,
      "d": 2569.443416666665,
      "v": 73
    },
    {
      "midi": 73,
      "hit": false,
      "t": 32916.65349999997,
      "d": 434.0276041666657,
      "v": 75
    },
    {
      "midi": 77,
      "hit": false,
      "t": 33315.958895833304,
      "d": 312.49987500000134,
      "v": 75
    },
    {
      "midi": 80,
      "hit": false,
      "t": 33732.6253958333,
      "d": 407.98594791666983,
      "v": 73
    },
    {
      "midi": 68,
      "hit": false,
      "t": 33741.30594791664,
      "d": 486.1109166666647,
      "v": 66
    },
    {
      "midi": 77,
      "hit": false,
      "t": 34140.61134374997,
      "d": 460.06926041666156,
      "v": 78
    },
    {
      "midi": 73,
      "hit": false,
      "t": 34583.31949999997,
      "d": 434.0276041666657,
      "v": 76
    },
    {
      "midi": 69,
      "hit": false,
      "t": 35017.347104166634,
      "d": 503.47202083333104,
      "v": 71
    },
    {
      "midi": 50,
      "hit": false,
      "t": 35017.347104166634,
      "d": 2083.332499999997,
      "v": 91
    },
    {
      "midi": 74,
      "hit": false,
      "t": 35425.3330520833,
      "d": 399.3053958333403,
      "v": 75
    },
    {
      "midi": 78,
      "hit": false,
      "t": 35815.9578958333,
      "d": 364.58318750000035,
      "v": 71
    },
    {
      "midi": 74,
      "hit": false,
      "t": 36232.6243958333,
      "d": 381.9442916666667,
      "v": 69
    },
    {
      "midi": 81,
      "hit": false,
      "t": 36232.6243958333,
      "d": 442.7081562500025,
      "v": 73
    },
    {
      "midi": 69,
      "hit": false,
      "t": 36232.6243958333,
      "d": 529.5136770833342,
      "v": 67
    },
    {
      "midi": 78,
      "hit": false,
      "t": 36649.2908958333,
      "d": 451.38870833333203,
      "v": 67
    },
    {
      "midi": 74,
      "hit": false,
      "t": 37065.9573958333,
      "d": 486.110916666672,
      "v": 73
    },
    {
      "midi": 62,
      "hit": false,
      "t": 37482.6238958333,
      "d": 2413.193479166679,
      "v": 67
    },
    {
      "midi": 69,
      "hit": false,
      "t": 37491.304447916635,
      "d": 512.1525729166679,
      "v": 67
    },
    {
      "midi": 74,
      "hit": false,
      "t": 37934.01260416664,
      "d": 416.66649999999936,
      "v": 67
    },
    {
      "midi": 78,
      "hit": false,
      "t": 38315.956895833304,
      "d": 373.2637395833299,
      "v": 71
    },
    {
      "midi": 81,
      "hit": false,
      "t": 38749.98449999997,
      "d": 390.6248437500035,
      "v": 74
    },
    {
      "midi": 69,
      "hit": false,
      "t": 38758.66505208331,
      "d": 451.3887083333393,
      "v": 69
    },
    {
      "midi": 78,
      "hit": false,
      "t": 39149.28989583331,
      "d": 425.34705208333617,
      "v": 68
    },
    {
      "midi": 74,
      "hit": false,
      "t": 39574.636947916646,
      "d": 355.90263541666354,
      "v": 62
    },
    {
      "midi": 53,
      "hit": false,
      "t": 39999.983999999975,
      "d": 2144.096364583347,
      "v": 77
    },
    {
      "midi": 65,
      "hit": false,
      "t": 40017.34510416664,
      "d": 486.110916666672,
      "v": 73
    },
    {
      "midi": 69,
      "hit": false,
      "t": 40425.33105208331,
      "d": 407.98594791666983,
      "v": 73
    },
    {
      "midi": 72,
      "hit": false,
      "t": 40833.31699999998,
      "d": 399.305395833333,
      "v": 75
    },
    {
      "midi": 77,
      "hit": false,
      "t": 41232.622395833314,
      "d": 477.43036458334245,
      "v": 70
    },
    {
      "midi": 69,
      "hit": false,
      "t": 41241.30294791665,
      "d": 407.98594791666983,
      "v": 69
    },
    {
      "midi": 72,
      "hit": false,
      "t": 41649.28889583332,
      "d": 425.34705208333617,
      "v": 71
    },
    {
      "midi": 69,
      "hit": false,
      "t": 42057.27484374999,
      "d": 468.74981249999837,
      "v": 71
    },
    {
      "midi": 65,
      "hit": false,
      "t": 42482.62189583332,
      "d": 529.5136770833342,
      "v": 68
    },
    {
      "midi": 53,
      "hit": false,
      "t": 42482.62189583332,
      "d": 2508.6795520833402,
      "v": 67
    },
    {
      "midi": 69,
      "hit": false,
      "t": 42907.968947916655,
      "d": 399.305395833333,
      "v": 67
    },
    {
      "midi": 72,
      "hit": false,
      "t": 43315.954895833325,
      "d": 451.38870833333203,
      "v": 68
    },
    {
      "midi": 69,
      "hit": false,
      "t": 43767.34360416666,
      "d": 364.58318750000035,
      "v": 69
    },
    {
      "midi": 77,
      "hit": false,
      "t": 43767.34360416666,
      "d": 399.305395833333,
      "v": 75
    },
    {
      "midi": 72,
      "hit": false,
      "t": 44149.287895833324,
      "d": 434.0276041666657,
      "v": 82
    },
    {
      "midi": 69,
      "hit": false,
      "t": 44565.95439583332,
      "d": 416.66649999999936,
      "v": 81
    },
    {
      "midi": 64,
      "hit": false,
      "t": 44982.62089583332,
      "d": 503.4720208333383,
      "v": 71
    },
    {
      "midi": 57,
      "hit": false,
      "t": 44982.62089583332,
      "d": 1762.1520729166805,
      "v": 68
    },
    {
      "midi": 45,
      "hit": false,
      "t": 44991.30144791666,
      "d": 4722.220333333353,
      "v": 69
    },
    {
      "midi": 69,
      "hit": false,
      "t": 45425.329052083325,
      "d": 425.34705208333617,
      "v": 67
    },
    {
      "midi": 73,
      "hit": false,
      "t": 45824.63444791666,
      "d": 355.9026354166708,
      "v": 71
    },
    {
      "midi": 76,
      "hit": false,
      "t": 46232.62039583333,
      "d": 451.3887083333393,
      "v": 75
    },
    {
      "midi": 69,
      "hit": false,
      "t": 46241.300947916665,
      "d": 390.6248437500035,
      "v": 69
    },
    {
      "midi": 64,
      "hit": false,
      "t": 46241.300947916665,
      "d": 477.4303645833352,
      "v": 67
    },
    {
      "midi": 73,
      "hit": false,
      "t": 46649.286895833335,
      "d": 451.38870833333203,
      "v": 71
    },
    {
      "midi": 69,
      "hit": false,
      "t": 47065.953395833334,
      "d": 425.34705208333617,
      "v": 68
    },
    {
      "midi": 64,
      "hit": false,
      "t": 47482.61989583333,
      "d": 520.8331250000047,
      "v": 68
    },
    {
      "midi": 57,
      "hit": false,
      "t": 47482.61989583333,
      "d": 928.8190729166745,
      "v": 71
    },
    {
      "midi": 69,
      "hit": false,
      "t": 47907.96694791667,
      "d": 451.3887083333393,
      "v": 69
    },
    {
      "midi": 73,
      "hit": false,
      "t": 48315.95289583334,
      "d": 381.9442916666667,
      "v": 69
    },
    {
      "midi": 57,
      "hit": false,
      "t": 48732.61939583334,
      "d": 894.0968645833418,
      "v": 71
    },
    {
      "midi": 76,
      "hit": false,
      "t": 48749.980500000005,
      "d": 434.027604166673,
      "v": 71
    },
    {
      "midi": 69,
      "hit": false,
      "t": 48758.66105208334,
      "d": 425.34705208333617,
      "v": 71
    },
    {
      "midi": 64,
      "hit": false,
      "t": 48758.66105208334,
      "d": 503.4720208333383,
      "v": 67
    },
    {
      "midi": 73,
      "hit": false,
      "t": 49149.285895833345,
      "d": 416.66649999999936,
      "v": 70
    },
    {
      "midi": 69,
      "hit": false,
      "t": 49565.952395833345,
      "d": 425.34705208333617,
      "v": 70
    },
    {
      "midi": 64,
      "hit": false,
      "t": 49982.618895833344,
      "d": 642.360854166669,
      "v": 67
    },
    {
      "midi": 52,
      "hit": false,
      "t": 49982.618895833344,
      "d": 2126.735260416688,
      "v": 81
    },
    {
      "midi": 68,
      "hit": false,
      "t": 50425.32705208335,
      "d": 390.6248437500035,
      "v": 67
    },
    {
      "midi": 71,
      "hit": false,
      "t": 50815.95189583335,
      "d": 407.98594791666983,
      "v": 79
    },
    {
      "midi": 68,
      "hit": false,
      "t": 51241.298947916686,
      "d": 442.7081562500098,
      "v": 68
    },
    {
      "midi": 76,
      "hit": false,
      "t": 51249.97950000002,
      "d": 434.027604166673,
      "v": 75
    },
    {
      "midi": 71,
      "hit": false,
      "t": 51675.32655208336,
      "d": 399.3053958333403,
      "v": 80
    },
    {
      "midi": 68,
      "hit": false,
      "t": 52065.95139583336,
      "d": 477.4303645833352,
      "v": 69
    },
    {
      "midi": 64,
      "hit": false,
      "t": 52482.61789583336,
      "d": 486.1109166666647,
      "v": 67
    },
    {
      "midi": 52,
      "hit": false,
      "t": 52482.61789583336,
      "d": 2526.040656250014,
      "v": 75
    },
    {
      "midi": 68,
      "hit": false,
      "t": 52916.64550000003,
      "d": 399.305395833333,
      "v": 67
    },
    {
      "midi": 71,
      "hit": false,
      "t": 53315.95089583336,
      "d": 416.66649999999936,
      "v": 80
    },
    {
      "midi": 68,
      "hit": false,
      "t": 53741.2979479167,
      "d": 425.34705208334344,
      "v": 63
    },
    {
      "midi": 76,
      "hit": false,
      "t": 53749.978500000034,
      "d": 442.7081562500098,
      "v": 76
    },
    {
      "midi": 71,
      "hit": false,
      "t": 54157.964447916704,
      "d": 407.98594791666983,
      "v": 81
    },
    {
      "midi": 68,
      "hit": false,
      "t": 54565.95039583337,
      "d": 416.66649999999936,
      "v": 67
    },
    {
      "midi": 57,
      "hit": false,
      "t": 54982.61689583337,
      "d": 2161.4574687500062,
      "v": 71
    },
    {
      "midi": 64,
      "hit": false,
      "t": 54991.29744791671,
      "d": 486.1109166666647,
      "v": 67
    },
    {
      "midi": 69,
      "hit": false,
      "t": 55425.325052083375,
      "d": 425.3470520833289,
      "v": 71
    },
    {
      "midi": 73,
      "hit": false,
      "t": 55833.31100000004,
      "d": 399.305395833333,
      "v": 69
    },
    {
      "midi": 76,
      "hit": false,
      "t": 56241.29694791671,
      "d": 434.027604166673,
      "v": 71
    },
    {
      "midi": 69,
      "hit": false,
      "t": 56241.29694791671,
      "d": 451.3887083333393,
      "v": 74
    },
    {
      "midi": 73,
      "hit": false,
      "t": 56649.28289583338,
      "d": 468.74981249999837,
      "v": 68
    },
    {
      "midi": 69,
      "hit": false,
      "t": 57065.94939583338,
      "d": 434.027604166673,
      "v": 68
    },
    {
      "midi": 57,
      "hit": false,
      "t": 57482.615895833376,
      "d": 2170.1380208333503,
      "v": 71
    },
    {
      "midi": 64,
      "hit": false,
      "t": 57491.29644791671,
      "d": 486.110916666672,
      "v": 69
    },
    {
      "midi": 69,
      "hit": false,
      "t": 57925.324052083386,
      "d": 390.6248437499962,
      "v": 68
    },
    {
      "midi": 73,
      "hit": false,
      "t": 58315.94889583338,
      "d": 381.9442916666667,
      "v": 69
    },
    {
      "midi": 76,
      "hit": false,
      "t": 58732.61539583338,
      "d": 416.66649999999936,
      "v": 76
    },
    {
      "midi": 69,
      "hit": false,
      "t": 58732.61539583338,
      "d": 442.7081562500025,
      "v": 72
    },
    {
      "midi": 73,
      "hit": false,
      "t": 59149.28189583338,
      "d": 425.34705208334344,
      "v": 68
    },
    {
      "midi": 69,
      "hit": false,
      "t": 59565.94839583339,
      "d": 416.66650000000664,
      "v": 69
    },
    {
      "midi": 64,
      "hit": false,
      "t": 59982.614895833394,
      "d": 807.2913437500101,
      "v": 71
    },
    {
      "midi": 52,
      "hit": false,
      "t": 59982.614895833394,
      "d": 842.0135520833428,
      "v": 71
    },
    {
      "midi": 68,
      "hit": false,
      "t": 60407.96194791673,
      "d": 355.9026354166708,
      "v": 62
    },
    {
      "midi": 76,
      "hit": false,
      "t": 60407.96194791673,
      "d": 355.9026354166708,
      "v": 72
    },
    {
      "midi": 71,
      "hit": false,
      "t": 60416.64250000007,
      "d": 147.5693854166675,
      "v": 81
    },
    {
      "midi": 76,
      "hit": false,
      "t": 61249.97550000007,
      "d": 329.86097916667495,
      "v": 72
    },
    {
      "midi": 52,
      "hit": false,
      "t": 61249.97550000007,
      "d": 338.54153125001176,
      "v": 81
    },
    {
      "midi": 71,
      "hit": false,
      "t": 61258.65605208341,
      "d": 295.138770833335,
      "v": 94
    },
    {
      "midi": 68,
      "hit": false,
      "t": 61258.65605208341,
      "d": 321.18042708333815,
      "v": 68
    },
    {
      "midi": 64,
      "hit": false,
      "t": 61258.65605208341,
      "d": 347.2220833333413,
      "v": 72
    },
    {
      "midi": 71,
      "hit": false,
      "t": 61684.00310416675,
      "d": 234.37490624999919,
      "v": 84
    },
    {
      "midi": 68,
      "hit": false,
      "t": 61684.00310416675,
      "d": 295.138770833335,
      "v": 67
    },
    {
      "midi": 76,
      "hit": false,
      "t": 61684.00310416675,
      "d": 303.8193229166718,
      "v": 62
    },
    {
      "midi": 64,
      "hit": false,
      "t": 61684.00310416675,
      "d": 321.18042708333815,
      "v": 66
    },
    {
      "midi": 52,
      "hit": false,
      "t": 61684.00310416675,
      "d": 338.5415312500045,
      "v": 81
    },
    {
      "midi": 52,
      "hit": false,
      "t": 62482.61389583343,
      "d": 312.49987500000134,
      "v": 82
    },
    {
      "midi": 64,
      "hit": false,
      "t": 62482.61389583343,
      "d": 338.5415312500045,
      "v": 67
    },
    {
      "midi": 76,
      "hit": false,
      "t": 62482.61389583343,
      "d": 338.5415312500045,
      "v": 70
    },
    {
      "midi": 68,
      "hit": false,
      "t": 62482.61389583343,
      "d": 347.2220833333413,
      "v": 66
    },
    {
      "midi": 71,
      "hit": false,
      "t": 62491.29444791676,
      "d": 269.09711458333186,
      "v": 87
    },
    {
      "midi": 52,
      "hit": false,
      "t": 62899.28039583343,
      "d": 347.22208333334856,
      "v": 72
    },
    {
      "midi": 68,
      "hit": false,
      "t": 62916.6415000001,
      "d": 329.8609791666822,
      "v": 67
    },
    {
      "midi": 76,
      "hit": false,
      "t": 62925.32205208344,
      "d": 269.09711458333913,
      "v": 69
    },
    {
      "midi": 64,
      "hit": false,
      "t": 62934.00260416677,
      "d": 269.09711458333913,
      "v": 68
    },
    {
      "midi": 71,
      "hit": false,
      "t": 62934.00260416677,
      "d": 277.77766666667594,
      "v": 85
    },
    {
      "midi": 57,
      "hit": false,
      "t": 64999.97400000012,
      "d": 2031.2491874999978,
      "v": 62
    },
    {
      "midi": 64,
      "hit": false,
      "t": 65008.654552083455,
      "d": 1310.763364583334,
      "v": 67
    },
    {
      "midi": 69,
      "hit": false,
      "t": 65425.321052083455,
      "d": 399.305395833333,
      "v": 70
    },
    {
      "midi": 73,
      "hit": false,
      "t": 65815.94589583346,
      "d": 407.98594791666255,
      "v": 70
    },
    {
      "midi": 69,
      "hit": false,
      "t": 66232.61239583345,
      "d": 460.06926041666884,
      "v": 72
    },
    {
      "midi": 76,
      "hit": false,
      "t": 66232.61239583345,
      "d": 1267.3606041666644,
      "v": 76
    },
    {
      "midi": 73,
      "hit": false,
      "t": 66649.27889583346,
      "d": 486.11091666665743,
      "v": 66
    },
    {
      "midi": 69,
      "hit": false,
      "t": 67057.26484375012,
      "d": 494.7914687500015,
      "v": 68
    },
    {
      "midi": 64,
      "hit": false,
      "t": 67499.97300000011,
      "d": 512.1525729166751,
      "v": 69
    },
    {
      "midi": 57,
      "hit": false,
      "t": 67499.97300000011,
      "d": 1432.2910937500128,
      "v": 67
    },
    {
      "midi": 69,
      "hit": false,
      "t": 67934.0006041668,
      "d": 381.9442916666594,
      "v": 73
    },
    {
      "midi": 73,
      "hit": false,
      "t": 68315.94489583345,
      "d": 399.305395833333,
      "v": 70
    },
    {
      "midi": 76,
      "hit": false,
      "t": 68732.61139583346,
      "d": 451.3887083333393,
      "v": 74
    },
    {
      "midi": 64,
      "hit": false,
      "t": 68732.61139583346,
      "d": 694.444166666668,
      "v": 68
    },
    {
      "midi": 69,
      "hit": false,
      "t": 68741.29194791679,
      "d": 434.02760416668025,
      "v": 72
    },
    {
      "midi": 73,
      "hit": false,
      "t": 69149.27789583347,
      "d": 460.0692604166543,
      "v": 71
    },
    {
      "midi": 69,
      "hit": false,
      "t": 69565.94439583346,
      "d": 477.4303645833279,
      "v": 72
    },
    {
      "midi": 52,
      "hit": false,
      "t": 69999.97200000013,
      "d": 2161.457468750028,
      "v": 71
    },
    {
      "midi": 64,
      "hit": false,
      "t": 70008.65255208345,
      "d": 815.9718958333397,
      "v": 67
    },
    {
      "midi": 68,
      "hit": false,
      "t": 70433.99960416679,
      "d": 416.66650000000664,
      "v": 66
    },
    {
      "midi": 71,
      "hit": false,
      "t": 70824.6244479168,
      "d": 416.66650000000664,
      "v": 83
    },
    {
      "midi": 68,
      "hit": false,
      "t": 71241.2909479168,
      "d": 434.02760416668025,
      "v": 66
    },
    {
      "midi": 76,
      "hit": false,
      "t": 71258.65205208347,
      "d": 998.2634895833471,
      "v": 70
    },
    {
      "midi": 71,
      "hit": false,
      "t": 71657.95744791681,
      "d": 425.3470520833507,
      "v": 80
    },
    {
      "midi": 68,
      "hit": false,
      "t": 72065.94339583348,
      "d": 520.8331250000047,
      "v": 69
    },
    {
      "midi": 52,
      "hit": false,
      "t": 72508.6515520835,
      "d": 2482.637895833337,
      "v": 73
    },
    {
      "midi": 64,
      "hit": false,
      "t": 72517.33210416682,
      "d": 555.5553333333228,
      "v": 67
    },
    {
      "midi": 68,
      "hit": false,
      "t": 72933.99860416682,
      "d": 399.305395833333,
      "v": 69
    },
    {
      "midi": 71,
      "hit": false,
      "t": 73333.30400000015,
      "d": 416.66650000000664,
      "v": 81
    },
    {
      "midi": 68,
      "hit": false,
      "t": 73749.97050000016,
      "d": 434.0276041666657,
      "v": 67
    },
    {
      "midi": 76,
      "hit": false,
      "t": 73758.65105208349,
      "d": 1189.235635416684,
      "v": 73
    },
    {
      "midi": 71,
      "hit": false,
      "t": 74183.99810416682,
      "d": 399.3053958333476,
      "v": 81
    },
    {
      "midi": 68,
      "hit": false,
      "t": 74565.9423958335,
      "d": 451.3887083333393,
      "v": 68
    },
    {
      "midi": 57,
      "hit": false,
      "t": 74982.6088958335,
      "d": 2118.0547083333076,
      "v": 68
    },
    {
      "midi": 64,
      "hit": false,
      "t": 74991.28944791683,
      "d": 512.1525729166606,
      "v": 69
    },
    {
      "midi": 69,
      "hit": false,
      "t": 75425.3170520835,
      "d": 416.6664999999921,
      "v": 75
    },
    {
      "midi": 73,
      "hit": false,
      "t": 75815.94189583349,
      "d": 416.66650000000664,
      "v": 69
    },
    {
      "midi": 76,
      "hit": false,
      "t": 76241.28894791682,
      "d": 694.4441666666535,
      "v": 73
    },
    {
      "midi": 69,
      "hit": false,
      "t": 76249.96950000015,
      "d": 416.6664999999921,
      "v": 72
    },
    {
      "midi": 73,
      "hit": false,
      "t": 76657.95544791681,
      "d": 442.7081562499952,
      "v": 71
    },
    {
      "midi": 69,
      "hit": false,
      "t": 77065.94139583348,
      "d": 486.110916666672,
      "v": 72
    },
    {
      "midi": 57,
      "hit": false,
      "t": 77491.28844791681,
      "d": 2126.735260416681,
      "v": 69
    },
    {
      "midi": 64,
      "hit": false,
      "t": 77499.96900000014,
      "d": 503.4720208333456,
      "v": 65
    },
    {
      "midi": 69,
      "hit": false,
      "t": 77916.63550000015,
      "d": 442.7081562500098,
      "v": 71
    },
    {
      "midi": 73,
      "hit": false,
      "t": 78333.30200000016,
      "d": 399.305395833333,
      "v": 70
    },
    {
      "midi": 69,
      "hit": false,
      "t": 78749.96850000016,
      "d": 416.6664999999921,
      "v": 72
    },
    {
      "midi": 76,
      "hit": false,
      "t": 78758.64905208349,
      "d": 425.34705208333617,
      "v": 71
    },
    {
      "midi": 73,
      "hit": false,
      "t": 79157.95444791683,
      "d": 434.0276041666657,
      "v": 70
    },
    {
      "midi": 69,
      "hit": false,
      "t": 79565.94039583349,
      "d": 425.34705208333617,
      "v": 71
    },
    {
      "midi": 52,
      "hit": false,
      "t": 79982.6068958335,
      "d": 1310.763364583312,
      "v": 75
    },
    {
      "midi": 64,
      "hit": false,
      "t": 79991.28744791682,
      "d": 555.5553333333228,
      "v": 71
    },
    {
      "midi": 68,
      "hit": false,
      "t": 80433.99560416682,
      "d": 399.30539583331847,
      "v": 66
    },
    {
      "midi": 71,
      "hit": false,
      "t": 80824.62044791681,
      "d": 425.34705208333617,
      "v": 82
    },
    {
      "midi": 68,
      "hit": false,
      "t": 81258.64805208347,
      "d": 425.34705208333617,
      "v": 68
    },
    {
      "midi": 76,
      "hit": false,
      "t": 81267.3286041668,
      "d": 416.66650000000664,
      "v": 74
    },
    {
      "midi": 71,
      "hit": false,
      "t": 81666.63400000014,
      "d": 425.34705208333617,
      "v": 82
    },
    {
      "midi": 68,
      "hit": false,
      "t": 82065.93939583347,
      "d": 494.7914687500015,
      "v": 69
    },
    {
      "midi": 64,
      "hit": false,
      "t": 82517.32810416681,
      "d": 486.11091666665743,
      "v": 76
    },
    {
      "midi": 68,
      "hit": false,
      "t": 82933.9946041668,
      "d": 381.9442916666594,
      "v": 70
    },
    {
      "midi": 71,
      "hit": false,
      "t": 83315.93889583346,
      "d": 425.34705208333617,
      "v": 80
    },
    {
      "midi": 76,
      "hit": false,
      "t": 83749.96650000013,
      "d": 416.6664999999921,
      "v": 77
    },
    {
      "midi": 68,
      "hit": false,
      "t": 83749.96650000013,
      "d": 425.3470520833216,
      "v": 72
    },
    {
      "midi": 71,
      "hit": false,
      "t": 84157.95244791679,
      "d": 425.34705208333617,
      "v": 75
    },
    {
      "midi": 68,
      "hit": false,
      "t": 84565.93839583345,
      "d": 468.7498125000129,
      "v": 66
    },
    {
      "midi": 64,
      "hit": false,
      "t": 85017.32710416679,
      "d": 486.110916666672,
      "v": 67
    },
    {
      "midi": 57,
      "hit": false,
      "t": 85017.32710416679,
      "d": 2239.5824375000084,
      "v": 73
    },
    {
      "midi": 69,
      "hit": false,
      "t": 85433.9936041668,
      "d": 390.62484374998894,
      "v": 75
    },
    {
      "midi": 73,
      "hit": false,
      "t": 85815.93789583346,
      "d": 399.305395833333,
      "v": 72
    },
    {
      "midi": 69,
      "hit": false,
      "t": 86232.60439583346,
      "d": 460.06926041666884,
      "v": 73
    },
    {
      "midi": 76,
      "hit": false,
      "t": 86232.60439583346,
      "d": 486.110916666672,
      "v": 72
    },
    {
      "midi": 73,
      "hit": false,
      "t": 86683.9931041668,
      "d": 399.305395833333,
      "v": 73
    },
    {
      "midi": 69,
      "hit": false,
      "t": 87065.93739583346,
      "d": 468.74981249999837,
      "v": 68
    },
    {
      "midi": 64,
      "hit": false,
      "t": 87491.2844479168,
      "d": 503.47202083333104,
      "v": 67
    },
    {
      "midi": 57,
      "hit": false,
      "t": 87491.2844479168,
      "d": 2560.7628645833465,
      "v": 66
    },
    {
      "midi": 69,
      "hit": false,
      "t": 87925.31205208346,
      "d": 407.9859479166771,
      "v": 71
    },
    {
      "midi": 73,
      "hit": false,
      "t": 88315.93689583347,
      "d": 390.6248437500035,
      "v": 68
    },
    {
      "midi": 76,
      "hit": false,
      "t": 88741.2839479168,
      "d": 442.7081562499952,
      "v": 77
    },
    {
      "midi": 64,
      "hit": false,
      "t": 88749.96450000013,
      "d": 399.305395833333,
      "v": 69
    },
    {
      "midi": 73,
      "hit": false,
      "t": 89149.26989583347,
      "d": 460.06926041666884,
      "v": 71
    },
    {
      "midi": 69,
      "hit": false,
      "t": 89565.93639583347,
      "d": 416.6664999999921,
      "v": 74
    },
    {
      "midi": 49,
      "hit": false,
      "t": 89999.96400000014,
      "d": 2135.4158125000104,
      "v": 65
    },
    {
      "midi": 68,
      "hit": false,
      "t": 90017.32510416681,
      "d": 555.5553333333373,
      "v": 66
    },
    {
      "midi": 73,
      "hit": false,
      "t": 90442.67215625015,
      "d": 373.2637395833299,
      "v": 67
    },
    {
      "midi": 77,
      "hit": false,
      "t": 90824.61644791681,
      "d": 407.98594791666255,
      "v": 79
    },
    {
      "midi": 80,
      "hit": false,
      "t": 91249.96350000014,
      "d": 399.3053958333476,
      "v": 76
    },
    {
      "midi": 68,
      "hit": false,
      "t": 91267.32460416682,
      "d": 512.1525729166751,
      "v": 63
    },
    {
      "midi": 77,
      "hit": false,
      "t": 91649.26889583349,
      "d": 407.98594791666255,
      "v": 76
    },
    {
      "midi": 73,
      "hit": false,
      "t": 92065.93539583348,
      "d": 416.6664999999921,
      "v": 78
    },
    {
      "midi": 68,
      "hit": false,
      "t": 92482.60189583348,
      "d": 590.27754166667,
      "v": 68
    },
    {
      "midi": 49,
      "hit": false,
      "t": 92482.60189583348,
      "d": 2569.443416666676,
      "v": 73
    },
    {
      "midi": 73,
      "hit": false,
      "t": 92916.62950000014,
      "d": 434.0276041666657,
      "v": 75
    },
    {
      "midi": 77,
      "hit": false,
      "t": 93315.93489583347,
      "d": 312.49987499999406,
      "v": 75
    },
    {
      "midi": 80,
      "hit": false,
      "t": 93732.60139583347,
      "d": 407.98594791666255,
      "v": 73
    },
    {
      "midi": 68,
      "hit": false,
      "t": 93741.2819479168,
      "d": 486.110916666672,
      "v": 66
    },
    {
      "midi": 77,
      "hit": false,
      "t": 94140.58734375013,
      "d": 460.0692604166834,
      "v": 78
    },
    {
      "midi": 73,
      "hit": false,
      "t": 94583.29550000014,
      "d": 434.02760416668025,
      "v": 76
    },
    {
      "midi": 69,
      "hit": false,
      "t": 95017.32310416682,
      "d": 503.47202083333104,
      "v": 71
    },
    {
      "midi": 50,
      "hit": false,
      "t": 95017.32310416682,
      "d": 2083.3325000000186,
      "v": 91
    },
    {
      "midi": 74,
      "hit": false,
      "t": 95425.30905208348,
      "d": 399.305395833333,
      "v": 75
    },
    {
      "midi": 78,
      "hit": false,
      "t": 95815.93389583348,
      "d": 364.58318750000035,
      "v": 71
    },
    {
      "midi": 74,
      "hit": false,
      "t": 96232.60039583349,
      "d": 381.94429166667396,
      "v": 69
    },
    {
      "midi": 81,
      "hit": false,
      "t": 96232.60039583349,
      "d": 442.7081562500098,
      "v": 73
    },
    {
      "midi": 69,
      "hit": false,
      "t": 96232.60039583349,
      "d": 529.5136770833487,
      "v": 67
    },
    {
      "midi": 78,
      "hit": false,
      "t": 96649.2668958335,
      "d": 451.3887083333393,
      "v": 67
    },
    {
      "midi": 74,
      "hit": false,
      "t": 97065.9333958335,
      "d": 486.11091666665743,
      "v": 73
    },
    {
      "midi": 62,
      "hit": false,
      "t": 97482.5998958335,
      "d": 2413.1934791666718,
      "v": 67
    },
    {
      "midi": 69,
      "hit": false,
      "t": 97491.28044791683,
      "d": 512.1525729166751,
      "v": 67
    },
    {
      "midi": 74,
      "hit": false,
      "t": 97933.98860416684,
      "d": 416.6664999999921,
      "v": 67
    },
    {
      "midi": 78,
      "hit": false,
      "t": 98315.9328958335,
      "d": 373.2637395833299,
      "v": 71
    },
    {
      "midi": 81,
      "hit": false,
      "t": 98749.96050000016,
      "d": 390.6248437500035,
      "v": 74
    },
    {
      "midi": 69,
      "hit": false,
      "t": 98758.64105208349,
      "d": 451.3887083333393,
      "v": 69
    },
    {
      "midi": 78,
      "hit": false,
      "t": 99149.2658958335,
      "d": 425.34705208333617,
      "v": 68
    },
    {
      "midi": 74,
      "hit": false,
      "t": 99574.61294791683,
      "d": 355.9026354166708,
      "v": 62
    },
    {
      "midi": 53,
      "hit": false,
      "t": 99999.96000000017,
      "d": 2144.0963645833253,
      "v": 77
    },
    {
      "midi": 65,
      "hit": false,
      "t": 100017.32110416684,
      "d": 486.11091666665743,
      "v": 73
    },
    {
      "midi": 69,
      "hit": false,
      "t": 100425.3070520835,
      "d": 407.98594791666255,
      "v": 73
    },
    {
      "midi": 72,
      "hit": false,
      "t": 100833.29300000017,
      "d": 399.305395833333,
      "v": 75
    },
    {
      "midi": 77,
      "hit": false,
      "t": 101232.5983958335,
      "d": 477.4303645833279,
      "v": 70
    },
    {
      "midi": 69,
      "hit": false,
      "t": 101241.27894791683,
      "d": 407.98594791666255,
      "v": 69
    },
    {
      "midi": 72,
      "hit": false,
      "t": 101649.26489583349,
      "d": 425.34705208333617,
      "v": 71
    },
    {
      "midi": 69,
      "hit": false,
      "t": 102057.25084375015,
      "d": 468.74981249999837,
      "v": 71
    },
    {
      "midi": 65,
      "hit": false,
      "t": 102482.59789583349,
      "d": 529.5136770833196,
      "v": 68
    },
    {
      "midi": 53,
      "hit": false,
      "t": 102482.59789583349,
      "d": 2508.6795520833402,
      "v": 67
    },
    {
      "midi": 69,
      "hit": false,
      "t": 102907.94494791681,
      "d": 399.305395833333,
      "v": 67
    },
    {
      "midi": 72,
      "hit": false,
      "t": 103315.93089583347,
      "d": 451.3887083333393,
      "v": 68
    },
    {
      "midi": 69,
      "hit": false,
      "t": 103767.31960416681,
      "d": 364.58318750000035,
      "v": 69
    },
    {
      "midi": 77,
      "hit": false,
      "t": 103767.31960416681,
      "d": 399.3053958333476,
      "v": 75
    },
    {
      "midi": 72,
      "hit": false,
      "t": 104149.26389583349,
      "d": 434.02760416668025,
      "v": 82
    },
    {
      "midi": 69,
      "hit": false,
      "t": 104565.9303958335,
      "d": 416.66650000000664,
      "v": 81
    },
    {
      "midi": 64,
      "hit": false,
      "t": 104982.5968958335,
      "d": 503.47202083333104,
      "v": 71
    },
    {
      "midi": 57,
      "hit": false,
      "t": 104982.5968958335,
      "d": 1762.1520729166805,
      "v": 68
    },
    {
      "midi": 45,
      "hit": false,
      "t": 104991.27744791683,
      "d": 4722.22033333336,
      "v": 69
    },
    {
      "midi": 69,
      "hit": false,
      "t": 105425.3050520835,
      "d": 425.34705208333617,
      "v": 67
    },
    {
      "midi": 73,
      "hit": false,
      "t": 105824.61044791683,
      "d": 355.9026354166708,
      "v": 71
    },
    {
      "midi": 76,
      "hit": false,
      "t": 106232.5963958335,
      "d": 451.3887083333393,
      "v": 75
    },
    {
      "midi": 69,
      "hit": false,
      "t": 106241.27694791683,
      "d": 390.6248437500035,
      "v": 69
    },
    {
      "midi": 64,
      "hit": false,
      "t": 106241.27694791683,
      "d": 477.43036458334245,
      "v": 67
    },
    {
      "midi": 73,
      "hit": false,
      "t": 106649.26289583351,
      "d": 451.3887083333393,
      "v": 71
    },
    {
      "midi": 69,
      "hit": false,
      "t": 107065.92939583352,
      "d": 425.3470520833216,
      "v": 68
    },
    {
      "midi": 64,
      "hit": false,
      "t": 107482.59589583351,
      "d": 520.8331250000047,
      "v": 68
    },
    {
      "midi": 57,
      "hit": false,
      "t": 107482.59589583351,
      "d": 928.8190729166672,
      "v": 71
    },
    {
      "midi": 69,
      "hit": false,
      "t": 107907.94294791685,
      "d": 451.38870833332476,
      "v": 69
    },
    {
      "midi": 73,
      "hit": false,
      "t": 108315.92889583351,
      "d": 381.94429166667396,
      "v": 69
    },
    {
      "midi": 57,
      "hit": false,
      "t": 108732.59539583352,
      "d": 894.0968645833345,
      "v": 71
    },
    {
      "midi": 76,
      "hit": false,
      "t": 108749.95650000019,
      "d": 434.0276041666657,
      "v": 71
    },
    {
      "midi": 69,
      "hit": false,
      "t": 108758.63705208352,
      "d": 425.34705208333617,
      "v": 71
    },
    {
      "midi": 64,
      "hit": false,
      "t": 108758.63705208352,
      "d": 503.47202083333104,
      "v": 67
    },
    {
      "midi": 73,
      "hit": false,
      "t": 109149.26189583352,
      "d": 416.6664999999921,
      "v": 70
    },
    {
      "midi": 69,
      "hit": false,
      "t": 109565.92839583351,
      "d": 425.34705208333617,
      "v": 70
    },
    {
      "midi": 64,
      "hit": false,
      "t": 109982.59489583352,
      "d": 642.3608541666617,
      "v": 67
    },
    {
      "midi": 52,
      "hit": false,
      "t": 109982.59489583352,
      "d": 2126.7352604166517,
      "v": 81
    },
    {
      "midi": 68,
      "hit": false,
      "t": 110425.30305208352,
      "d": 390.6248437500035,
      "v": 67
    },
    {
      "midi": 71,
      "hit": false,
      "t": 110815.92789583352,
      "d": 407.98594791666255,
      "v": 79
    },
    {
      "midi": 68,
      "hit": false,
      "t": 111241.27494791686,
      "d": 442.7081562499952,
      "v": 68
    },
    {
      "midi": 76,
      "hit": false,
      "t": 111249.95550000019,
      "d": 434.0276041666657,
      "v": 75
    },
    {
      "midi": 71,
      "hit": false,
      "t": 111675.30255208352,
      "d": 399.30539583331847,
      "v": 80
    },
    {
      "midi": 68,
      "hit": false,
      "t": 112065.92739583351,
      "d": 477.4303645833279,
      "v": 69
    },
    {
      "midi": 64,
      "hit": false,
      "t": 112482.5938958335,
      "d": 486.110916666672,
      "v": 67
    },
    {
      "midi": 52,
      "hit": false,
      "t": 112482.5938958335,
      "d": 2526.0406562499993,
      "v": 75
    },
    {
      "midi": 68,
      "hit": false,
      "t": 112916.62150000017,
      "d": 399.305395833333,
      "v": 67
    },
    {
      "midi": 71,
      "hit": false,
      "t": 113315.9268958335,
      "d": 416.66650000000664,
      "v": 80
    },
    {
      "midi": 68,
      "hit": false,
      "t": 113741.27394791684,
      "d": 425.3470520833216,
      "v": 63
    },
    {
      "midi": 76,
      "hit": false,
      "t": 113749.95450000017,
      "d": 442.7081562499952,
      "v": 76
    },
    {
      "midi": 71,
      "hit": false,
      "t": 114157.94044791683,
      "d": 407.98594791666255,
      "v": 81
    },
    {
      "midi": 68,
      "hit": false,
      "t": 114565.92639583349,
      "d": 416.66650000000664,
      "v": 67
    },
    {
      "midi": 57,
      "hit": false,
      "t": 114982.5928958335,
      "d": 2161.457468750028,
      "v": 71
    },
    {
      "midi": 64,
      "hit": false,
      "t": 114991.27344791683,
      "d": 486.11091666668653,
      "v": 67
    },
    {
      "midi": 69,
      "hit": false,
      "t": 115425.30105208351,
      "d": 425.3470520833507,
      "v": 71
    },
    {
      "midi": 73,
      "hit": false,
      "t": 115833.28700000019,
      "d": 399.305395833333,
      "v": 69
    },
    {
      "midi": 76,
      "hit": false,
      "t": 116241.27294791685,
      "d": 434.0276041666657,
      "v": 71
    },
    {
      "midi": 69,
      "hit": false,
      "t": 116241.27294791685,
      "d": 451.3887083333393,
      "v": 74
    },
    {
      "midi": 73,
      "hit": false,
      "t": 116649.25889583351,
      "d": 468.7498125000129,
      "v": 68
    },
    {
      "midi": 69,
      "hit": false,
      "t": 117065.92539583352,
      "d": 434.0276041666657,
      "v": 68
    },
    {
      "midi": 57,
      "hit": false,
      "t": 117482.59189583352,
      "d": 2170.1380208333285,
      "v": 71
    },
    {
      "midi": 64,
      "hit": false,
      "t": 117491.27244791685,
      "d": 486.110916666672,
      "v": 69
    },
    {
      "midi": 69,
      "hit": false,
      "t": 117925.30005208352,
      "d": 390.6248437500035,
      "v": 68
    },
    {
      "midi": 73,
      "hit": false,
      "t": 118315.92489583352,
      "d": 381.9442916666594,
      "v": 69
    },
    {
      "midi": 76,
      "hit": false,
      "t": 118732.59139583351,
      "d": 416.66650000000664,
      "v": 76
    },
    {
      "midi": 69,
      "hit": false,
      "t": 118732.59139583351,
      "d": 442.7081562500098,
      "v": 72
    },
    {
      "midi": 73,
      "hit": false,
      "t": 119149.25789583352,
      "d": 425.34705208333617,
      "v": 68
    },
    {
      "midi": 69,
      "hit": false,
      "t": 119565.92439583353,
      "d": 416.6664999999921,
      "v": 69
    },
    {
      "midi": 65,
      "hit": false,
      "t": 120008.63255208352,
      "d": 555.5553333333373,
      "v": 67
    },
    {
      "midi": 69,
      "hit": false,
      "t": 120433.97960416686,
      "d": 451.3887083333393,
      "v": 72
    },
    {
      "midi": 72,
      "hit": false,
      "t": 120824.60444791686,
      "d": 460.06926041666884,
      "v": 76
    },
    {
      "midi": 77,
      "hit": false,
      "t": 121241.27094791687,
      "d": 477.4303645833279,
      "v": 73
    },
    {
      "midi": 72,
      "hit": false,
      "t": 121675.29855208354,
      "d": 425.3470520833216,
      "v": 79
    },
    {
      "midi": 69,
      "hit": false,
      "t": 122065.92339583352,
      "d": 468.74981249999837,
      "v": 67
    },
    {
      "midi": 65,
      "hit": false,
      "t": 122499.95100000019,
      "d": 477.4303645833279,
      "v": 69
    },
    {
      "midi": 69,
      "hit": false,
      "t": 122907.93694791685,
      "d": 442.7081562499952,
      "v": 73
    },
    {
      "midi": 72,
      "hit": false,
      "t": 123315.92289583352,
      "d": 468.74981249999837,
      "v": 77
    },
    {
      "midi": 77,
      "hit": false,
      "t": 123749.95050000018,
      "d": 460.0692604166543,
      "v": 79
    },
    {
      "midi": 72,
      "hit": false,
      "t": 124166.61700000017,
      "d": 416.6664999999921,
      "v": 72
    },
    {
      "midi": 69,
      "hit": false,
      "t": 124539.8807395835,
      "d": 364.58318750000035,
      "v": 62
    },
    {
      "midi": 46,
      "hit": false,
      "t": 125008.6305520835,
      "d": 1267.360604166679,
      "v": 67
    },
    {
      "midi": 58,
      "hit": false,
      "t": 125017.31110416683,
      "d": 1024.3051458333503,
      "v": 69
    },
    {
      "midi": 62,
      "hit": false,
      "t": 125433.97760416684,
      "d": 416.66650000000664,
      "v": 87
    },
    {
      "midi": 65,
      "hit": false,
      "t": 125833.28300000017,
      "d": 416.66650000000664,
      "v": 83
    },
    {
      "midi": 62,
      "hit": false,
      "t": 126249.94950000018,
      "d": 416.66650000000664,
      "v": 83
    },
    {
      "midi": 58,
      "hit": false,
      "t": 126249.94950000018,
      "d": 642.3608541666763,
      "v": 55
    },
    {
      "midi": 70,
      "hit": false,
      "t": 126249.94950000018,
      "d": 2057.2908437500155,
      "v": 69
    },
    {
      "midi": 53,
      "hit": false,
      "t": 126267.31060416685,
      "d": 1310.7633645833412,
      "v": 69
    },
    {
      "midi": 65,
      "hit": false,
      "t": 126649.25489583351,
      "d": 1180.5550833333546,
      "v": 84
    },
    {
      "midi": 62,
      "hit": false,
      "t": 127048.56029166686,
      "d": 494.7914687500015,
      "v": 85
    },
    {
      "midi": 58,
      "hit": false,
      "t": 127499.9490000002,
      "d": 850.6941041666723,
      "v": 69
    },
    {
      "midi": 46,
      "hit": false,
      "t": 127499.9490000002,
      "d": 1267.360604166679,
      "v": 78
    },
    {
      "midi": 62,
      "hit": false,
      "t": 127925.29605208353,
      "d": 451.3887083333393,
      "v": 76
    },
    {
      "midi": 65,
      "hit": false,
      "t": 128324.60144791687,
      "d": 434.02760416668025,
      "v": 79
    },
    {
      "midi": 70,
      "hit": false,
      "t": 128732.58739583354,
      "d": 659.7219583333354,
      "v": 79
    },
    {
      "midi": 58,
      "hit": false,
      "t": 128732.58739583354,
      "d": 720.4858229166712,
      "v": 66
    },
    {
      "midi": 53,
      "hit": false,
      "t": 128732.58739583354,
      "d": 920.1385208333377,
      "v": 79
    },
    {
      "midi": 65,
      "hit": false,
      "t": 129157.93444791688,
      "d": 538.1942291666637,
      "v": 76
    },
    {
      "midi": 62,
      "hit": false,
      "t": 129565.92039583354,
      "d": 477.43036458334245,
      "v": 80
    },
    {
      "midi": 53,
      "hit": false,
      "t": 129999.94800000021,
      "d": 1996.5269791666651,
      "v": 75
    },
    {
      "midi": 60,
      "hit": false,
      "t": 130017.30910416688,
      "d": 894.0968645833345,
      "v": 73
    },
    {
      "midi": 65,
      "hit": false,
      "t": 130416.61450000021,
      "d": 468.74981249999837,
      "v": 71
    },
    {
      "midi": 69,
      "hit": false,
      "t": 130807.23934375022,
      "d": 425.34705208333617,
      "v": 69
    },
    {
      "midi": 65,
      "hit": false,
      "t": 131232.58639583355,
      "d": 425.3470520833216,
      "v": 68
    },
    {
      "midi": 72,
      "hit": false,
      "t": 131232.58639583355,
      "d": 486.11091666665743,
      "v": 73
    },
    {
      "midi": 60,
      "hit": false,
      "t": 131241.26694791688,
      "d": 685.7636145833239,
      "v": 71
    },
    {
      "midi": 69,
      "hit": false,
      "t": 131666.6140000002,
      "d": 1032.9856979166798,
      "v": 75
    },
    {
      "midi": 65,
      "hit": false,
      "t": 132039.87773958355,
      "d": 512.1525729166751,
      "v": 72
    },
    {
      "midi": 60,
      "hit": false,
      "t": 132491.2664479169,
      "d": 755.2080312500184,
      "v": 68
    },
    {
      "midi": 53,
      "hit": false,
      "t": 132517.30810416688,
      "d": 1449.6521979166719,
      "v": 64
    },
    {
      "midi": 65,
      "hit": false,
      "t": 132942.65515625023,
      "d": 451.3887083333393,
      "v": 75
    },
    {
      "midi": 69,
      "hit": false,
      "t": 133341.96055208356,
      "d": 390.6248437500035,
      "v": 73
    },
    {
      "midi": 72,
      "hit": false,
      "t": 133732.58539583356,
      "d": 486.11091666665743,
      "v": 80
    },
    {
      "midi": 60,
      "hit": false,
      "t": 133741.2659479169,
      "d": 538.1942291666637,
      "v": 74
    },
    {
      "midi": 69,
      "hit": false,
      "t": 134183.97410416687,
      "d": 416.6665000000212,
      "v": 75
    },
    {
      "midi": 53,
      "hit": false,
      "t": 134227.37686458355,
      "d": 772.5691354166775,
      "v": 74
    },
    {
      "midi": 65,
      "hit": false,
      "t": 134565.91839583355,
      "d": 451.3887083333393,
      "v": 76
    },
    {
      "midi": 58,
      "hit": false,
      "t": 134999.94600000023,
      "d": 920.1385208333086,
      "v": 66
    },
    {
      "midi": 46,
      "hit": false,
      "t": 134999.94600000023,
      "d": 2057.2908437499427,
      "v": 69
    },
    {
      "midi": 62,
      "hit": false,
      "t": 135416.61250000022,
      "d": 407.98594791666255,
      "v": 82
    },
    {
      "midi": 65,
      "hit": false,
      "t": 135841.95955208354,
      "d": 364.5831874999858,
      "v": 71
    },
    {
      "midi": 70,
      "hit": false,
      "t": 136249.9455000002,
      "d": 1718.7493124999455,
      "v": 72
    },
    {
      "midi": 62,
      "hit": false,
      "t": 136267.30660416686,
      "d": 390.6248437500035,
      "v": 83
    },
    {
      "midi": 58,
      "hit": false,
      "t": 136267.30660416686,
      "d": 564.2358854166523,
      "v": 67
    },
    {
      "midi": 65,
      "hit": false,
      "t": 136675.29255208353,
      "d": 407.98594791663345,
      "v": 75
    },
    {
      "midi": 62,
      "hit": false,
      "t": 137039.8757395835,
      "d": 494.79146874998696,
      "v": 75
    },
    {
      "midi": 53,
      "hit": false,
      "t": 137065.9173958335,
      "d": 164.9304895833193,
      "v": 66
    },
    {
      "midi": 46,
      "hit": false,
      "t": 137473.90334375016,
      "d": 1310.763364583312,
      "v": 74
    },
    {
      "midi": 58,
      "hit": false,
      "t": 137491.26444791682,
      "d": 1006.9440416666621,
      "v": 67
    },
    {
      "midi": 62,
      "hit": false,
      "t": 137942.65315625016,
      "d": 425.3470520833216,
      "v": 76
    },
    {
      "midi": 65,
      "hit": false,
      "t": 138333.27800000014,
      "d": 381.94429166667396,
      "v": 71
    },
    {
      "midi": 70,
      "hit": false,
      "t": 138715.2222916668,
      "d": 746.5274791666598,
      "v": 72
    },
    {
      "midi": 58,
      "hit": false,
      "t": 138723.90284375014,
      "d": 616.3191979166586,
      "v": 63
    },
    {
      "midi": 53,
      "hit": false,
      "t": 138741.2639479168,
      "d": 1284.7217083333235,
      "v": 69
    },
    {
      "midi": 65,
      "hit": false,
      "t": 139175.29155208348,
      "d": 564.2358854166523,
      "v": 77
    },
    {
      "midi": 58,
      "hit": false,
      "t": 139591.95805208347,
      "d": 4105.901135416614,
      "v": 64
    },
    {
      "midi": 61,
      "hit": false,
      "t": 140017.3051041668,
      "d": 746.5274791666889,
      "v": 69
    },
    {
      "midi": 54,
      "hit": false,
      "t": 140017.3051041668,
      "d": 2204.860229166661,
      "v": 69
    },
    {
      "midi": 66,
      "hit": false,
      "t": 140025.98565625012,
      "d": 720.4858229167003,
      "v": 48
    },
    {
      "midi": 64,
      "hit": false,
      "t": 140460.0132604168,
      "d": 234.37490625001374,
      "v": 78
    },
    {
      "midi": 64,
      "hit": false,
      "t": 140850.6381041668,
      "d": 321.18042708333815,
      "v": 79
    },
    {
      "midi": 61,
      "hit": false,
      "t": 140850.6381041668,
      "d": 347.22208333332674,
      "v": 68
    },
    {
      "midi": 66,
      "hit": false,
      "t": 140850.6381041668,
      "d": 347.22208333332674,
      "v": 58
    },
    {
      "midi": 64,
      "hit": false,
      "t": 141267.3046041668,
      "d": 677.0830624999944,
      "v": 87
    },
    {
      "midi": 61,
      "hit": false,
      "t": 141267.3046041668,
      "d": 729.1663750000007,
      "v": 71
    },
    {
      "midi": 66,
      "hit": false,
      "t": 141267.3046041668,
      "d": 1171.8745312499814,
      "v": 67
    },
    {
      "midi": 64,
      "hit": false,
      "t": 142065.91539583346,
      "d": 329.8609791666677,
      "v": 75
    },
    {
      "midi": 61,
      "hit": false,
      "t": 142065.91539583346,
      "d": 347.22208333332674,
      "v": 66
    },
    {
      "midi": 54,
      "hit": false,
      "t": 142491.2624479168,
      "d": 1093.7495624999574,
      "v": 66
    },
    {
      "midi": 64,
      "hit": false,
      "t": 142499.94300000012,
      "d": 703.124718749983,
      "v": 84
    },
    {
      "midi": 66,
      "hit": false,
      "t": 142499.94300000012,
      "d": 711.8052708333125,
      "v": 67
    },
    {
      "midi": 61,
      "hit": false,
      "t": 142508.62355208345,
      "d": 329.8609791666677,
      "v": 69
    },
    {
      "midi": 61,
      "hit": false,
      "t": 142925.29005208344,
      "d": 286.4582187499909,
      "v": 49
    },
    {
      "midi": 66,
      "hit": false,
      "t": 143307.23434375008,
      "d": 347.22208333332674,
      "v": 60
    },
    {
      "midi": 61,
      "hit": false,
      "t": 143307.23434375008,
      "d": 355.90263541665627,
      "v": 65
    },
    {
      "midi": 64,
      "hit": false,
      "t": 143315.9148958334,
      "d": 312.4998750000086,
      "v": 75
    },
    {
      "midi": 58,
      "hit": false,
      "t": 143732.58139583343,
      "d": 1032.9856979166216,
      "v": 57
    },
    {
      "midi": 64,
      "hit": false,
      "t": 143741.26194791676,
      "d": 303.81932291665,
      "v": 87
    },
    {
      "midi": 61,
      "hit": false,
      "t": 143749.9425000001,
      "d": 303.81932291665,
      "v": 75
    },
    {
      "midi": 66,
      "hit": false,
      "t": 143749.9425000001,
      "d": 312.4998749999795,
      "v": 77
    },
    {
      "midi": 54,
      "hit": false,
      "t": 143749.9425000001,
      "d": 520.8331249999756,
      "v": 66
    },
    {
      "midi": 64,
      "hit": false,
      "t": 144183.97010416674,
      "d": 269.09711458333186,
      "v": 80
    },
    {
      "midi": 61,
      "hit": false,
      "t": 144183.97010416674,
      "d": 295.13877083332045,
      "v": 67
    },
    {
      "midi": 66,
      "hit": false,
      "t": 144183.97010416674,
      "d": 859.3746562499437,
      "v": 66
    },
    {
      "midi": 61,
      "hit": false,
      "t": 144565.9143958334,
      "d": 390.6248437500035,
      "v": 66
    },
    {
      "midi": 54,
      "hit": false,
      "t": 144565.9143958334,
      "d": 451.3887083333102,
      "v": 61
    },
    {
      "midi": 64,
      "hit": false,
      "t": 144574.59494791672,
      "d": 407.98594791666255,
      "v": 77
    },
    {
      "midi": 46,
      "hit": false,
      "t": 145008.62255208337,
      "d": 1241.3189479166758,
      "v": 68
    },
    {
      "midi": 58,
      "hit": false,
      "t": 145017.3031041667,
      "d": 1041.6662500000093,
      "v": 67
    },
    {
      "midi": 62,
      "hit": false,
      "t": 145433.9696041667,
      "d": 381.94429166667396,
      "v": 82
    },
    {
      "midi": 65,
      "hit": false,
      "t": 145824.5944479167,
      "d": 434.02760416668025,
      "v": 77
    },
    {
      "midi": 53,
      "hit": false,
      "t": 146241.26094791671,
      "d": 130.20828125000116,
      "v": 71
    },
    {
      "midi": 70,
      "hit": false,
      "t": 146241.26094791671,
      "d": 2065.9713958333596,
      "v": 70
    },
    {
      "midi": 62,
      "hit": false,
      "t": 146249.94150000004,
      "d": 407.98594791666255,
      "v": 89
    },
    {
      "midi": 58,
      "hit": false,
      "t": 146258.62205208337,
      "d": 703.1247187500121,
      "v": 64
    },
    {
      "midi": 65,
      "hit": false,
      "t": 146657.9274479167,
      "d": 1093.7495625000156,
      "v": 72
    },
    {
      "midi": 62,
      "hit": false,
      "t": 147065.9133958334,
      "d": 460.06926041666884,
      "v": 75
    },
    {
      "midi": 46,
      "hit": false,
      "t": 147499.94100000008,
      "d": 1267.3606041666353,
      "v": 71
    },
    {
      "midi": 58,
      "hit": false,
      "t": 147508.6215520834,
      "d": 928.8190729166672,
      "v": 67
    },
    {
      "midi": 62,
      "hit": false,
      "t": 147925.2880520834,
      "d": 407.98594791666255,
      "v": 75
    },
    {
      "midi": 65,
      "hit": false,
      "t": 148315.9128958334,
      "d": 434.02760416665114,
      "v": 71
    },
    {
      "midi": 70,
      "hit": false,
      "t": 148732.5793958334,
      "d": 1380.2077812499774,
      "v": 73
    },
    {
      "midi": 58,
      "hit": false,
      "t": 148749.94050000006,
      "d": 789.9302395833365,
      "v": 70
    },
    {
      "midi": 53,
      "hit": false,
      "t": 148749.94050000006,
      "d": 1241.3189479166467,
      "v": 72
    },
    {
      "midi": 65,
      "hit": false,
      "t": 149149.2458958334,
      "d": 407.98594791666255,
      "v": 74
    },
    {
      "midi": 62,
      "hit": false,
      "t": 149565.91239583338,
      "d": 477.4303645833279,
      "v": 75
    },
    {
      "midi": 54,
      "hit": false,
      "t": 149991.2594479167,
      "d": 2144.0963645833544,
      "v": 75
    },
    {
      "midi": 58,
      "hit": false,
      "t": 149999.94000000003,
      "d": 2065.9713958333596,
      "v": 66
    },
    {
      "midi": 61,
      "hit": false,
      "t": 150815.9118958334,
      "d": 920.1385208333377,
      "v": 72
    },
    {
      "midi": 70,
      "hit": false,
      "t": 151258.6200520834,
      "d": 1822.9159375000163,
      "v": 73
    },
    {
      "midi": 66,
      "hit": false,
      "t": 151657.92544791673,
      "d": 512.1525729166751,
      "v": 73
    },
    {
      "midi": 61,
      "hit": false,
      "t": 152065.9113958334,
      "d": 477.430364583357,
      "v": 72
    },
    {
      "midi": 58,
      "hit": false,
      "t": 152491.25844791674,
      "d": 920.1385208333377,
      "v": 64
    },
    {
      "midi": 54,
      "hit": false,
      "t": 152491.25844791674,
      "d": 1484.37440624999,
      "v": 71
    },
    {
      "midi": 61,
      "hit": false,
      "t": 152916.6055000001,
      "d": 468.74981249999837,
      "v": 71
    },
    {
      "midi": 66,
      "hit": false,
      "t": 153324.59144791675,
      "d": 321.18042708333815,
      "v": 71
    },
    {
      "midi": 70,
      "hit": false,
      "t": 153732.57739583342,
      "d": 1979.1658749999478,
      "v": 78
    },
    {
      "midi": 61,
      "hit": false,
      "t": 153749.93850000008,
      "d": 425.3470520833216,
      "v": 77
    },
    {
      "midi": 58,
      "hit": false,
      "t": 153749.93850000008,
      "d": 798.610791666666,
      "v": 69
    },
    {
      "midi": 66,
      "hit": false,
      "t": 154157.92444791674,
      "d": 434.02760416665114,
      "v": 82
    },
    {
      "midi": 54,
      "hit": false,
      "t": 154157.92444791674,
      "d": 876.7357604166318,
      "v": 70
    },
    {
      "midi": 61,
      "hit": false,
      "t": 154574.59094791673,
      "d": 442.7081562499807,
      "v": 71
    },
    {
      "midi": 58,
      "hit": false,
      "t": 155008.61855208338,
      "d": 1076.3884583333274,
      "v": 64
    },
    {
      "midi": 46,
      "hit": false,
      "t": 155008.61855208338,
      "d": 1258.6800520833058,
      "v": 68
    },
    {
      "midi": 62,
      "hit": false,
      "t": 155425.28505208337,
      "d": 390.6248437500035,
      "v": 81
    },
    {
      "midi": 65,
      "hit": false,
      "t": 155833.27100000004,
      "d": 399.305395833333,
      "v": 70
    },
    {
      "midi": 70,
      "hit": false,
      "t": 156249.93750000003,
      "d": 989.5829374999739,
      "v": 75
    },
    {
      "midi": 62,
      "hit": false,
      "t": 156258.61805208336,
      "d": 407.98594791666255,
      "v": 91
    },
    {
      "midi": 58,
      "hit": false,
      "t": 156258.61805208336,
      "d": 772.5691354166484,
      "v": 70
    },
    {
      "midi": 53,
      "hit": false,
      "t": 156258.61805208336,
      "d": 1232.6383958333172,
      "v": 73
    },
    {
      "midi": 65,
      "hit": false,
      "t": 156683.96510416668,
      "d": 364.5831874999858,
      "v": 70
    },
    {
      "midi": 62,
      "hit": false,
      "t": 157065.90939583333,
      "d": 486.11091666668653,
      "v": 75
    },
    {
      "midi": 46,
      "hit": false,
      "t": 157491.25644791668,
      "d": 1284.7217083333526,
      "v": 72
    },
    {
      "midi": 58,
      "hit": false,
      "t": 157508.61755208333,
      "d": 972.221833333344,
      "v": 67
    },
    {
      "midi": 62,
      "hit": false,
      "t": 157925.28405208336,
      "d": 381.94429166667396,
      "v": 71
    },
    {
      "midi": 65,
      "hit": false,
      "t": 158324.5894479167,
      "d": 390.6248437500035,
      "v": 67
    },
    {
      "midi": 70,
      "hit": false,
      "t": 158749.93650000004,
      "d": 928.8190729166381,
      "v": 76
    },
    {
      "midi": 58,
      "hit": false,
      "t": 158758.61705208337,
      "d": 633.6803020833177,
      "v": 70
    },
    {
      "midi": 53,
      "hit": false,
      "t": 158758.61705208337,
      "d": 1249.9994999999471,
      "v": 70
    },
    {
      "midi": 62,
      "hit": false,
      "t": 158767.2976041667,
      "d": 416.6664999999921,
      "v": 93
    },
    {
      "midi": 65,
      "hit": false,
      "t": 159166.60300000003,
      "d": 407.98594791666255,
      "v": 71
    },
    {
      "midi": 62,
      "hit": false,
      "t": 159591.95005208335,
      "d": 173.61104166664882,
      "v": 79
    },
    {
      "midi": 58,
      "hit": false,
      "t": 159982.57489583333,
      "d": 3489.5819374999846,
      "v": 10
    },
    {
      "midi": 61,
      "hit": false,
      "t": 160008.61655208332,
      "d": 329.8609791666677,
      "v": 66
    },
    {
      "midi": 64,
      "hit": false,
      "t": 160017.29710416665,
      "d": 312.4998750000086,
      "v": 76
    },
    {
      "midi": 54,
      "hit": false,
      "t": 160017.29710416665,
      "d": 1154.5134270832932,
      "v": 66
    },
    {
      "midi": 66,
      "hit": false,
      "t": 160017.29710416665,
      "d": 1206.5967395832995,
      "v": 70
    },
    {
      "midi": 64,
      "hit": false,
      "t": 160433.96360416664,
      "d": 260.4165625000023,
      "v": 66
    },
    {
      "midi": 61,
      "hit": false,
      "t": 160433.96360416664,
      "d": 338.5415312499972,
      "v": 58
    },
    {
      "midi": 64,
      "hit": false,
      "t": 160850.63010416663,
      "d": 295.13877083332045,
      "v": 79
    },
    {
      "midi": 61,
      "hit": false,
      "t": 160850.63010416663,
      "d": 355.90263541665627,
      "v": 61
    },
    {
      "midi": 64,
      "hit": false,
      "t": 161267.29660416662,
      "d": 277.7776666666614,
      "v": 89
    },
    {
      "midi": 61,
      "hit": false,
      "t": 161267.29660416662,
      "d": 720.4858229166712,
      "v": 71
    },
    {
      "midi": 54,
      "hit": false,
      "t": 161267.29660416662,
      "d": 920.1385208333377,
      "v": 66
    },
    {
      "midi": 66,
      "hit": false,
      "t": 161267.29660416662,
      "d": 2109.374156250007,
      "v": 61
    },
    {
      "midi": 64,
      "hit": false,
      "t": 161657.92144791663,
      "d": 286.4582187499909,
      "v": 76
    },
    {
      "midi": 61,
      "hit": false,
      "t": 162065.9073958333,
      "d": 364.5831875000149,
      "v": 69
    },
    {
      "midi": 64,
      "hit": false,
      "t": 162083.26849999995,
      "d": 295.13877083334955,
      "v": 82
    },
    {
      "midi": 54,
      "hit": false,
      "t": 162447.85168749996,
      "d": 624.9997499999881,
      "v": 65
    },
    {
      "midi": 64,
      "hit": false,
      "t": 162508.6155520833,
      "d": 295.13877083332045,
      "v": 83
    },
    {
      "midi": 61,
      "hit": false,
      "t": 162508.6155520833,
      "d": 946.1801770833554,
      "v": 72
    },
    {
      "midi": 64,
      "hit": false,
      "t": 162916.60149999996,
      "d": 503.4720208333456,
      "v": 80
    },
    {
      "midi": 54,
      "hit": false,
      "t": 163324.58744791662,
      "d": 772.5691354166775,
      "v": 69
    },
    {
      "midi": 70,
      "hit": false,
      "t": 163749.93449999997,
      "d": 1319.4439166666707,
      "v": 79
    },
    {
      "midi": 61,
      "hit": false,
      "t": 163758.6150520833,
      "d": 737.8469270833302,
      "v": 67
    },
    {
      "midi": 58,
      "hit": false,
      "t": 163767.29560416663,
      "d": 486.11091666665743,
      "v": 70
    },
    {
      "midi": 66,
      "hit": false,
      "t": 164175.2815520833,
      "d": 451.3887083333393,
      "v": 72
    },
    {
      "midi": 54,
      "hit": false,
      "t": 164183.96210416663,
      "d": 850.6941041666723,
      "v": 68
    },
    {
      "midi": 58,
      "hit": false,
      "t": 164583.26749999996,
      "d": 746.5274791666889,
      "v": 69
    },
    {
      "midi": 62,
      "hit": false,
      "t": 165008.6145520833,
      "d": 460.06926041669794,
      "v": 91
    },
    {
      "midi": 65,
      "hit": false,
      "t": 165017.29510416664,
      "d": 486.11091666671564,
      "v": 81
    },
    {
      "midi": 46,
      "hit": false,
      "t": 165017.29510416664,
      "d": 1241.318947916705,
      "v": 69
    },
    {
      "midi": 58,
      "hit": false,
      "t": 165433.96160416666,
      "d": 624.9997500000172,
      "v": 62
    },
    {
      "midi": 62,
      "hit": false,
      "t": 165841.94755208335,
      "d": 217.01380208332557,
      "v": 83
    },
    {
      "midi": 70,
      "hit": false,
      "t": 166249.9335,
      "d": 1380.2077812499774,
      "v": 71
    },
    {
      "midi": 62,
      "hit": false,
      "t": 166258.61405208334,
      "d": 460.06926041666884,
      "v": 93
    },
    {
      "midi": 58,
      "hit": false,
      "t": 166258.61405208334,
      "d": 798.610791666666,
      "v": 55
    },
    {
      "midi": 53,
      "hit": false,
      "t": 166267.29460416667,
      "d": 1215.2772916666581,
      "v": 80
    },
    {
      "midi": 65,
      "hit": false,
      "t": 166649.23889583335,
      "d": 546.8747812499932,
      "v": 74
    },
    {
      "midi": 62,
      "hit": false,
      "t": 167065.90539583334,
      "d": 486.11091666665743,
      "v": 77
    },
    {
      "midi": 58,
      "hit": false,
      "t": 167491.25244791666,
      "d": 989.5829374999739,
      "v": 68
    },
    {
      "midi": 46,
      "hit": false,
      "t": 167499.933,
      "d": 1293.402260416653,
      "v": 69
    },
    {
      "midi": 62,
      "hit": false,
      "t": 167925.2800520833,
      "d": 407.98594791666255,
      "v": 77
    },
    {
      "midi": 65,
      "hit": false,
      "t": 168333.26599999997,
      "d": 381.94429166667396,
      "v": 73
    },
    {
      "midi": 70,
      "hit": false,
      "t": 168732.5713958333,
      "d": 1562.499375000014,
      "v": 75
    },
    {
      "midi": 58,
      "hit": false,
      "t": 168741.25194791664,
      "d": 642.3608541666763,
      "v": 67
    },
    {
      "midi": 62,
      "hit": false,
      "t": 168749.93249999997,
      "d": 425.3470520833507,
      "v": 84
    },
    {
      "midi": 53,
      "hit": false,
      "t": 168749.93249999997,
      "d": 1232.6383958333463,
      "v": 81
    },
    {
      "midi": 65,
      "hit": false,
      "t": 169166.599,
      "d": 416.6664999999921,
      "v": 69
    },
    {
      "midi": 62,
      "hit": false,
      "t": 169565.90439583332,
      "d": 512.1525729166751,
      "v": 73
    },
    {
      "midi": 58,
      "hit": false,
      "t": 170017.29310416666,
      "d": 763.8885833333188,
      "v": 66
    },
    {
      "midi": 54,
      "hit": false,
      "t": 170017.29310416666,
      "d": 1163.1939791666518,
      "v": 68
    },
    {
      "midi": 61,
      "hit": false,
      "t": 170425.27905208332,
      "d": 425.3470520833216,
      "v": 73
    },
    {
      "midi": 66,
      "hit": false,
      "t": 170841.9455520833,
      "d": 347.22208333332674,
      "v": 72
    },
    {
      "midi": 70,
      "hit": false,
      "t": 171232.57039583332,
      "d": 2118.0547083333076,
      "v": 76
    },
    {
      "midi": 58,
      "hit": false,
      "t": 171241.25094791665,
      "d": 720.4858229166712,
      "v": 69
    },
    {
      "midi": 61,
      "hit": false,
      "t": 171249.93149999998,
      "d": 399.305395833333,
      "v": 80
    },
    {
      "midi": 54,
      "hit": false,
      "t": 171249.93149999998,
      "d": 885.4163125000196,
      "v": 69
    },
    {
      "midi": 66,
      "hit": false,
      "t": 171649.2368958333,
      "d": 1059.0273541666684,
      "v": 74
    },
    {
      "midi": 61,
      "hit": false,
      "t": 172065.90339583333,
      "d": 451.3887083333102,
      "v": 68
    },
    {
      "midi": 58,
      "hit": false,
      "t": 172491.25044791665,
      "d": 512.152572916646,
      "v": 68
    },
    {
      "midi": 54,
      "hit": false,
      "t": 172491.25044791665,
      "d": 1232.6383958333172,
      "v": 73
    },
    {
      "midi": 61,
      "hit": false,
      "t": 172925.2780520833,
      "d": 425.3470520833216,
      "v": 70
    },
    {
      "midi": 66,
      "hit": false,
      "t": 173324.58344791664,
      "d": 442.7081562500098,
      "v": 76
    },
    {
      "midi": 58,
      "hit": false,
      "t": 173333.26399999997,
      "d": 503.4720208333456,
      "v": 67
    },
    {
      "midi": 70,
      "hit": false,
      "t": 173758.61105208332,
      "d": 1484.3744062499609,
      "v": 78
    },
    {
      "midi": 61,
      "hit": false,
      "t": 173767.29160416665,
      "d": 434.02760416665114,
      "v": 78
    },
    {
      "midi": 54,
      "hit": false,
      "t": 173767.29160416665,
      "d": 555.5553333333228,
      "v": 79
    },
    {
      "midi": 66,
      "hit": false,
      "t": 174175.2775520833,
      "d": 425.3470520833216,
      "v": 75
    },
    {
      "midi": 58,
      "hit": false,
      "t": 174183.95810416664,
      "d": 425.3470520833216,
      "v": 66
    },
    {
      "midi": 61,
      "hit": false,
      "t": 174583.26349999997,
      "d": 434.02760416665114,
      "v": 72
    },
    {
      "midi": 54,
      "hit": false,
      "t": 174583.26349999997,
      "d": 451.3887083333102,
      "v": 68
    },
    {
      "midi": 46,
      "hit": false,
      "t": 174999.92999999996,
      "d": 1267.3606041666353,
      "v": 71
    },
    {
      "midi": 58,
      "hit": false,
      "t": 175008.6105520833,
      "d": 963.5412812499853,
      "v": 66
    },
    {
      "midi": 62,
      "hit": false,
      "t": 175425.2770520833,
      "d": 416.6664999999921,
      "v": 76
    },
    {
      "midi": 65,
      "hit": false,
      "t": 175841.94355208328,
      "d": 390.6248437500035,
      "v": 73
    },
    {
      "midi": 70,
      "hit": false,
      "t": 176258.61005208327,
      "d": 1996.5269791666942,
      "v": 79
    },
    {
      "midi": 62,
      "hit": false,
      "t": 176267.2906041666,
      "d": 425.3470520833216,
      "v": 98
    },
    {
      "midi": 58,
      "hit": false,
      "t": 176267.2906041666,
      "d": 842.0135520833428,
      "v": 73
    },
    {
      "midi": 53,
      "hit": false,
      "t": 176267.2906041666,
      "d": 1215.2772916666872,
      "v": 83
    },
    {
      "midi": 65,
      "hit": false,
      "t": 176683.9571041666,
      "d": 807.2913437500247,
      "v": 77
    },
    {
      "midi": 62,
      "hit": false,
      "t": 177065.90139583327,
      "d": 468.7498125000275,
      "v": 72
    },
    {
      "midi": 46,
      "hit": false,
      "t": 177491.24844791662,
      "d": 1310.7633645833412,
      "v": 71
    },
    {
      "midi": 58,
      "hit": false,
      "t": 177499.92899999995,
      "d": 989.582937500003,
      "v": 67
    },
    {
      "midi": 62,
      "hit": false,
      "t": 177925.2760520833,
      "d": 425.3470520833216,
      "v": 74
    },
    {
      "midi": 65,
      "hit": false,
      "t": 178333.26199999996,
      "d": 407.98594791666255,
      "v": 79
    },
    {
      "midi": 70,
      "hit": false,
      "t": 178758.60905208328,
      "d": 1128.4717708333337,
      "v": 76
    },
    {
      "midi": 62,
      "hit": false,
      "t": 178767.2896041666,
      "d": 381.94429166667396,
      "v": 98
    },
    {
      "midi": 58,
      "hit": false,
      "t": 178767.2896041666,
      "d": 685.7636145833239,
      "v": 73
    },
    {
      "midi": 53,
      "hit": false,
      "t": 178767.2896041666,
      "d": 1180.55508333334,
      "v": 77
    },
    {
      "midi": 65,
      "hit": false,
      "t": 179157.9144479166,
      "d": 529.5136770833342,
      "v": 76
    },
    {
      "midi": 62,
      "hit": false,
      "t": 179565.90039583328,
      "d": 321.18042708333815,
      "v": 79
    },
    {
      "midi": 54,
      "hit": false,
      "t": 179982.5668958333,
      "d": 954.8607291665976,
      "v": 65
    },
    {
      "midi": 58,
      "hit": false,
      "t": 179982.5668958333,
      "d": 2491.3184479165648,
      "v": 49
    },
    {
      "midi": 46,
      "hit": false,
      "t": 179991.24744791663,
      "d": 1310.7633645832539,
      "v": 62
    },
    {
      "midi": 66,
      "hit": false,
      "t": 180008.6085520833,
      "d": 130.20828125000116,
      "v": 69
    },
    {
      "midi": 64,
      "hit": false,
      "t": 180433.9556041666,
      "d": 286.4582187499909,
      "v": 75
    },
    {
      "midi": 61,
      "hit": false,
      "t": 180433.9556041666,
      "d": 312.4998749999795,
      "v": 61
    },
    {
      "midi": 64,
      "hit": false,
      "t": 180841.94155208324,
      "d": 312.4998749999795,
      "v": 81
    },
    {
      "midi": 61,
      "hit": false,
      "t": 180850.62210416657,
      "d": 321.18042708330904,
      "v": 70
    },
    {
      "midi": 66,
      "hit": false,
      "t": 180850.62210416657,
      "d": 321.18042708330904,
      "v": 71
    },
    {
      "midi": 64,
      "hit": false,
      "t": 181258.6080520832,
      "d": 286.45821875002,
      "v": 85
    },
    {
      "midi": 61,
      "hit": false,
      "t": 181258.6080520832,
      "d": 329.8609791666968,
      "v": 76
    },
    {
      "midi": 66,
      "hit": false,
      "t": 181258.6080520832,
      "d": 338.5415312500263,
      "v": 75
    },
    {
      "midi": 54,
      "hit": false,
      "t": 181258.6080520832,
      "d": 1189.2356354166695,
      "v": 69
    },
    {
      "midi": 61,
      "hit": false,
      "t": 181666.5939999999,
      "d": 763.8885833333188,
      "v": 54
    },
    {
      "midi": 64,
      "hit": false,
      "t": 181675.27455208322,
      "d": 312.4998750000086,
      "v": 71
    },
    {
      "midi": 66,
      "hit": false,
      "t": 181675.27455208322,
      "d": 329.8609791666677,
      "v": 44
    },
    {
      "midi": 64,
      "hit": false,
      "t": 182083.2604999999,
      "d": 338.5415312499972,
      "v": 78
    },
    {
      "midi": 66,
      "hit": false,
      "t": 182083.2604999999,
      "d": 355.90263541665627,
      "v": 65
    },
    {
      "midi": 61,
      "hit": false,
      "t": 182508.6075520832,
      "d": 1171.8745312500105,
      "v": 82
    },
    {
      "midi": 66,
      "hit": false,
      "t": 182508.6075520832,
      "d": 1171.8745312500105,
      "v": 82
    },
    {
      "midi": 58,
      "hit": false,
      "t": 182508.6075520832,
      "d": 5043.40076041664,
      "v": 67
    },
    {
      "midi": 64,
      "hit": false,
      "t": 182517.28810416654,
      "d": 286.4582187499909,
      "v": 91
    },
    {
      "midi": 54,
      "hit": false,
      "t": 182517.28810416654,
      "d": 1944.4436666666588,
      "v": 67
    },
    {
      "midi": 64,
      "hit": false,
      "t": 182925.2740520832,
      "d": 277.7776666666614,
      "v": 75
    },
    {
      "midi": 64,
      "hit": false,
      "t": 183333.25999999986,
      "d": 303.8193229166791,
      "v": 78
    },
    {
      "midi": 61,
      "hit": false,
      "t": 183749.92649999988,
      "d": 364.5831874999858,
      "v": 77
    },
    {
      "midi": 66,
      "hit": false,
      "t": 183749.92649999988,
      "d": 390.6248437499744,
      "v": 74
    },
    {
      "midi": 64,
      "hit": false,
      "t": 183758.6070520832,
      "d": 260.4165625000023,
      "v": 93
    },
    {
      "midi": 61,
      "hit": false,
      "t": 184175.2735520832,
      "d": 347.22208333332674,
      "v": 69
    },
    {
      "midi": 66,
      "hit": false,
      "t": 184175.2735520832,
      "d": 503.4720208333165,
      "v": 55
    },
    {
      "midi": 64,
      "hit": false,
      "t": 184183.95410416654,
      "d": 269.09711458333186,
      "v": 82
    },
    {
      "midi": 54,
      "hit": false,
      "t": 184565.8983958332,
      "d": 477.4303645833279,
      "v": 67
    },
    {
      "midi": 61,
      "hit": false,
      "t": 184574.57894791654,
      "d": 95.48607291665394,
      "v": 71
    },
    {
      "midi": 64,
      "hit": false,
      "t": 184583.25949999987,
      "d": 95.48607291665394,
      "v": 82
    },
    {
      "midi": 62,
      "hit": false,
      "t": 185008.6065520832,
      "d": 2517.3601041666698,
      "v": 93
    },
    {
      "midi": 65,
      "hit": false,
      "t": 185008.6065520832,
      "d": 2517.3601041666698,
      "v": 84
    },
    {
      "midi": 46,
      "hit": false,
      "t": 185008.6065520832,
      "d": 2543.4017604166584,
      "v": 81
    },
    {
      "midi": 70,
      "hit": false,
      "t": 185008.6065520832,
      "d": 2578.1239687500056,
      "v": 77
    }
  ]
}