{
  "jsonPath": "Rock/Neo Mellow/Norah Jones/lonestar.json",
  "path": "Rock\\Neo Mellow\\Norah Jones\\Lonestar.mid",
  "name": "Lonestar",
  "difficulty": "Advanced",
  "bpm": 87.00002175000543,
  "notes": [
    {
      "midi": 55,
      "hit": false,
      "t": 695.4021250000001,
      "d": 2540.2292500000003,
      "v": 127
    },
    {
      "midi": 60,
      "hit": false,
      "t": 695.4021250000001,
      "d": 2540.2292500000003,
      "v": 127
    },
    {
      "midi": 64,
      "hit": false,
      "t": 695.4021250000001,
      "d": 2540.2292500000003,
      "v": 127
    },
    {
      "midi": 48,
      "hit": false,
      "t": 712.6435,
      "d": 2522.9878750000003,
      "v": 127
    },
    {
      "midi": 43,
      "hit": false,
      "t": 3235.6313750000004,
      "d": 252.87350000000015,
      "v": 127
    },
    {
      "midi": 48,
      "hit": false,
      "t": 3488.5048750000005,
      "d": 2275.8615,
      "v": 127
    },
    {
      "midi": 55,
      "hit": false,
      "t": 4160.918500000001,
      "d": 632.1837500000001,
      "v": 127
    },
    {
      "midi": 60,
      "hit": false,
      "t": 4160.918500000001,
      "d": 632.1837500000001,
      "v": 127
    },
    {
      "midi": 64,
      "hit": false,
      "t": 4160.918500000001,
      "d": 632.1837500000001,
      "v": 127
    },
    {
      "midi": 64,
      "hit": false,
      "t": 5522.987125000001,
      "d": 488.5056249999998,
      "v": 127
    },
    {
      "midi": 55,
      "hit": false,
      "t": 6011.49275,
      "d": 155.1723750000001,
      "v": 127
    },
    {
      "midi": 48,
      "hit": false,
      "t": 6229.883500000001,
      "d": 2632.183250000001,
      "v": 127
    },
    {
      "midi": 55,
      "hit": false,
      "t": 6890.802875000001,
      "d": 137.93099999999959,
      "v": 127
    },
    {
      "midi": 60,
      "hit": false,
      "t": 6890.802875000001,
      "d": 137.93099999999959,
      "v": 127
    },
    {
      "midi": 64,
      "hit": false,
      "t": 6890.802875000001,
      "d": 137.93099999999959,
      "v": 127
    },
    {
      "midi": 55,
      "hit": false,
      "t": 8270.112875,
      "d": 149.42525000000023,
      "v": 127
    },
    {
      "midi": 60,
      "hit": false,
      "t": 8270.112875,
      "d": 149.42525000000023,
      "v": 127
    },
    {
      "midi": 64,
      "hit": false,
      "t": 8270.112875,
      "d": 149.42525000000023,
      "v": 127
    },
    {
      "midi": 41,
      "hit": false,
      "t": 8959.767875000001,
      "d": 1304.5973750000012,
      "v": 127
    },
    {
      "midi": 57,
      "hit": false,
      "t": 9649.422875000002,
      "d": 137.9310000000005,
      "v": 127
    },
    {
      "midi": 60,
      "hit": false,
      "t": 9649.422875000002,
      "d": 137.9310000000005,
      "v": 127
    },
    {
      "midi": 65,
      "hit": false,
      "t": 9649.422875000002,
      "d": 137.9310000000005,
      "v": 127
    },
    {
      "midi": 41,
      "hit": false,
      "t": 10350.572125000002,
      "d": 344.8274999999994,
      "v": 127
    },
    {
      "midi": 36,
      "hit": false,
      "t": 10821.836375000003,
      "d": 206.89650000000074,
      "v": 127
    },
    {
      "midi": 41,
      "hit": false,
      "t": 11028.732875000003,
      "d": 643.6779999999999,
      "v": 127
    },
    {
      "midi": 53,
      "hit": false,
      "t": 11264.365000000003,
      "d": 419.54012499999953,
      "v": 127
    },
    {
      "midi": 57,
      "hit": false,
      "t": 11511.491375000003,
      "d": 172.4137499999997,
      "v": 127
    },
    {
      "midi": 55,
      "hit": false,
      "t": 11718.387875000002,
      "d": 1379.3099999999995,
      "v": 127
    },
    {
      "midi": 67,
      "hit": false,
      "t": 11718.387875000002,
      "d": 1614.9421249999996,
      "v": 127
    },
    {
      "midi": 60,
      "hit": false,
      "t": 11729.882125000002,
      "d": 1488.5053750000006,
      "v": 127
    },
    {
      "midi": 64,
      "hit": false,
      "t": 11735.629250000002,
      "d": 1499.9996250000004,
      "v": 127
    },
    {
      "midi": 48,
      "hit": false,
      "t": 11735.629250000002,
      "d": 2333.3327500000014,
      "v": 127
    },
    {
      "midi": 55,
      "hit": false,
      "t": 13321.835750000002,
      "d": 3408.045124999997,
      "v": 127
    },
    {
      "midi": 60,
      "hit": false,
      "t": 13545.973625000002,
      "d": 1942.5282500000012,
      "v": 127
    },
    {
      "midi": 64,
      "hit": false,
      "t": 13775.858625000003,
      "d": 316.0918750000001,
      "v": 127
    },
    {
      "midi": 67,
      "hit": false,
      "t": 13994.249375000003,
      "d": 149.42525000000023,
      "v": 127
    },
    {
      "midi": 72,
      "hit": false,
      "t": 14224.134375000003,
      "d": 63.21837500000038,
      "v": 127
    },
    {
      "midi": 79,
      "hit": false,
      "t": 14448.272250000004,
      "d": 1057.4709999999995,
      "v": 127
    },
    {
      "midi": 74,
      "hit": false,
      "t": 14454.019375000003,
      "d": 114.9424999999992,
      "v": 127
    },
    {
      "midi": 76,
      "hit": false,
      "t": 14597.697500000002,
      "d": 505.7469999999994,
      "v": 127
    },
    {
      "midi": 48,
      "hit": false,
      "t": 14919.536500000002,
      "d": 1798.8501249999972,
      "v": 127
    },
    {
      "midi": 74,
      "hit": false,
      "t": 15143.674375000002,
      "d": 356.321750000001,
      "v": 127
    },
    {
      "midi": 60,
      "hit": false,
      "t": 15586.203000000003,
      "d": 655.1722499999978,
      "v": 127
    },
    {
      "midi": 72,
      "hit": false,
      "t": 15850.570750000003,
      "d": 1057.470999999994,
      "v": 127
    },
    {
      "midi": 67,
      "hit": false,
      "t": 15867.812125000002,
      "d": 97.70112499999959,
      "v": 127
    },
    {
      "midi": 69,
      "hit": false,
      "t": 16011.49025,
      "d": 522.988374999999,
      "v": 127
    },
    {
      "midi": 60,
      "hit": false,
      "t": 16327.582125,
      "d": 379.31024999999863,
      "v": 127
    },
    {
      "midi": 67,
      "hit": false,
      "t": 16551.72,
      "d": 321.8389999999963,
      "v": 127
    },
    {
      "midi": 55,
      "hit": false,
      "t": 17235.627875,
      "d": 1781.608750000003,
      "v": 127
    },
    {
      "midi": 59,
      "hit": false,
      "t": 17235.627875,
      "d": 1781.608750000003,
      "v": 127
    },
    {
      "midi": 62,
      "hit": false,
      "t": 17235.627875,
      "d": 1781.608750000003,
      "v": 127
    },
    {
      "midi": 43,
      "hit": false,
      "t": 17264.3635,
      "d": 1488.5053750000006,
      "v": 127
    },
    {
      "midi": 43,
      "hit": false,
      "t": 19074.707875,
      "d": 206.89649999999892,
      "v": 127
    },
    {
      "midi": 55,
      "hit": false,
      "t": 19304.592875,
      "d": 235.6321250000001,
      "v": 127
    },
    {
      "midi": 59,
      "hit": false,
      "t": 19304.592875,
      "d": 235.6321250000001,
      "v": 127
    },
    {
      "midi": 62,
      "hit": false,
      "t": 19304.592875,
      "d": 235.6321250000001,
      "v": 127
    },
    {
      "midi": 40,
      "hit": false,
      "t": 19994.247874999997,
      "d": 1304.5973750000012,
      "v": 127
    },
    {
      "midi": 56,
      "hit": false,
      "t": 20683.902874999996,
      "d": 137.9310000000005,
      "v": 127
    },
    {
      "midi": 59,
      "hit": false,
      "t": 20683.902874999996,
      "d": 137.9310000000005,
      "v": 127
    },
    {
      "midi": 64,
      "hit": false,
      "t": 20683.902874999996,
      "d": 137.9310000000005,
      "v": 127
    },
    {
      "midi": 35,
      "hit": false,
      "t": 21385.052125,
      "d": 344.8274999999994,
      "v": 127
    },
    {
      "midi": 40,
      "hit": false,
      "t": 21856.316375,
      "d": 206.89649999999892,
      "v": 127
    },
    {
      "midi": 64,
      "hit": false,
      "t": 22063.212874999997,
      "d": 643.6779999999999,
      "v": 127
    },
    {
      "midi": 59,
      "hit": false,
      "t": 22298.844999999998,
      "d": 419.54012499999953,
      "v": 127
    },
    {
      "midi": 56,
      "hit": false,
      "t": 22545.971374999997,
      "d": 172.4137499999997,
      "v": 127
    },
    {
      "midi": 45,
      "hit": false,
      "t": 22781.603499999997,
      "d": 1316.091625000001,
      "v": 127
    },
    {
      "midi": 57,
      "hit": false,
      "t": 23442.522875,
      "d": 137.9310000000005,
      "v": 127
    },
    {
      "midi": 60,
      "hit": false,
      "t": 23442.522875,
      "d": 137.9310000000005,
      "v": 127
    },
    {
      "midi": 64,
      "hit": false,
      "t": 23442.522875,
      "d": 137.9310000000005,
      "v": 127
    },
    {
      "midi": 60,
      "hit": false,
      "t": 24132.177874999998,
      "d": 977.0112499999959,
      "v": 127
    },
    {
      "midi": 64,
      "hit": false,
      "t": 24132.177874999998,
      "d": 977.0112499999959,
      "v": 127
    },
    {
      "midi": 43,
      "hit": false,
      "t": 24178.154874999997,
      "d": 1258.620374999995,
      "v": 127
    },
    {
      "midi": 57,
      "hit": false,
      "t": 25051.717874999995,
      "d": 57.47124999999869,
      "v": 127
    },
    {
      "midi": 57,
      "hit": false,
      "t": 25281.602874999993,
      "d": 166.66662499999802,
      "v": 127
    },
    {
      "midi": 50,
      "hit": false,
      "t": 25528.729249999993,
      "d": 2505.7465000000084,
      "v": 127
    },
    {
      "midi": 69,
      "hit": false,
      "t": 25534.476374999995,
      "d": 1367.8157500000052,
      "v": 120
    },
    {
      "midi": 62,
      "hit": false,
      "t": 25540.223499999996,
      "d": 1362.0686250000035,
      "v": 127
    },
    {
      "midi": 57,
      "hit": false,
      "t": 26649.418625,
      "d": 367.81600000000253,
      "v": 127
    },
    {
      "midi": 64,
      "hit": false,
      "t": 26902.292125,
      "d": 114.94250000000102,
      "v": 127
    },
    {
      "midi": 69,
      "hit": false,
      "t": 26902.292125,
      "d": 436.78150000000096,
      "v": 127
    },
    {
      "midi": 66,
      "hit": false,
      "t": 27017.234625,
      "d": 321.83899999999994,
      "v": 127
    },
    {
      "midi": 64,
      "hit": false,
      "t": 27339.073625,
      "d": 252.8735000000015,
      "v": 127
    },
    {
      "midi": 69,
      "hit": false,
      "t": 27339.073625,
      "d": 459.77000000000044,
      "v": 127
    },
    {
      "midi": 62,
      "hit": false,
      "t": 27591.947125000002,
      "d": 471.2642500000002,
      "v": 127
    },
    {
      "midi": 59,
      "hit": false,
      "t": 28063.211375000003,
      "d": 172.4137499999997,
      "v": 127
    },
    {
      "midi": 43,
      "hit": false,
      "t": 28287.349250000003,
      "d": 471.2642500000002,
      "v": 127
    },
    {
      "midi": 50,
      "hit": false,
      "t": 28758.613500000003,
      "d": 229.8849999999984,
      "v": 127
    },
    {
      "midi": 55,
      "hit": false,
      "t": 28988.4985,
      "d": 442.528624999999,
      "v": 127
    },
    {
      "midi": 50,
      "hit": false,
      "t": 29431.027125,
      "d": 218.39074999999866,
      "v": 127
    },
    {
      "midi": 55,
      "hit": false,
      "t": 29649.417875,
      "d": 442.528624999999,
      "v": 127
    },
    {
      "midi": 59,
      "hit": false,
      "t": 29649.417875,
      "d": 442.528624999999,
      "v": 127
    },
    {
      "midi": 62,
      "hit": false,
      "t": 29649.417875,
      "d": 442.528624999999,
      "v": 127
    },
    {
      "midi": 50,
      "hit": false,
      "t": 30109.187875,
      "d": 229.8849999999984,
      "v": 127
    },
    {
      "midi": 55,
      "hit": false,
      "t": 30339.072874999998,
      "d": 258.62062499999956,
      "v": 127
    },
    {
      "midi": 59,
      "hit": false,
      "t": 30339.072874999998,
      "d": 258.62062499999956,
      "v": 127
    },
    {
      "midi": 62,
      "hit": false,
      "t": 30339.072874999998,
      "d": 258.62062499999956,
      "v": 127
    },
    {
      "midi": 50,
      "hit": false,
      "t": 30821.831374999998,
      "d": 172.4137499999997,
      "v": 127
    },
    {
      "midi": 59,
      "hit": false,
      "t": 31028.727874999997,
      "d": 1839.0800000000017,
      "v": 127
    },
    {
      "midi": 40,
      "hit": false,
      "t": 31045.96925,
      "d": 1362.0686249999962,
      "v": 127
    },
    {
      "midi": 64,
      "hit": false,
      "t": 31488.497874999997,
      "d": 1109.1951249999984,
      "v": 127
    },
    {
      "midi": 68,
      "hit": false,
      "t": 32178.152874999996,
      "d": 419.54012499999953,
      "v": 127
    },
    {
      "midi": 40,
      "hit": false,
      "t": 32867.807875,
      "d": 206.89650000000256,
      "v": 127
    },
    {
      "midi": 56,
      "hit": false,
      "t": 33097.692875,
      "d": 160.9195000000036,
      "v": 127
    },
    {
      "midi": 59,
      "hit": false,
      "t": 33097.692875,
      "d": 160.9195000000036,
      "v": 127
    },
    {
      "midi": 64,
      "hit": false,
      "t": 33097.692875,
      "d": 160.9195000000036,
      "v": 127
    },
    {
      "midi": 60,
      "hit": false,
      "t": 33787.34787500001,
      "d": 977.0112500000032,
      "v": 127
    },
    {
      "midi": 64,
      "hit": false,
      "t": 33787.34787500001,
      "d": 977.0112500000032,
      "v": 127
    },
    {
      "midi": 45,
      "hit": false,
      "t": 33833.324875000006,
      "d": 1258.6203750000059,
      "v": 127
    },
    {
      "midi": 57,
      "hit": false,
      "t": 34706.88787500001,
      "d": 57.47125000000233,
      "v": 127
    },
    {
      "midi": 57,
      "hit": false,
      "t": 34936.77287500001,
      "d": 166.6666250000053,
      "v": 127
    },
    {
      "midi": 60,
      "hit": false,
      "t": 35166.65787500001,
      "d": 977.0112500000032,
      "v": 127
    },
    {
      "midi": 64,
      "hit": false,
      "t": 35166.65787500001,
      "d": 977.0112500000032,
      "v": 127
    },
    {
      "midi": 43,
      "hit": false,
      "t": 35212.63487500001,
      "d": 1258.6203750000059,
      "v": 127
    },
    {
      "midi": 57,
      "hit": false,
      "t": 36086.19787500001,
      "d": 57.47125000000233,
      "v": 127
    },
    {
      "midi": 57,
      "hit": false,
      "t": 36316.082875000015,
      "d": 166.6666250000053,
      "v": 127
    },
    {
      "midi": 50,
      "hit": false,
      "t": 36563.20925000002,
      "d": 471.2642500000002,
      "v": 127
    },
    {
      "midi": 57,
      "hit": false,
      "t": 37034.47350000002,
      "d": 229.88500000000204,
      "v": 127
    },
    {
      "midi": 62,
      "hit": false,
      "t": 37264.358500000024,
      "d": 442.528624999999,
      "v": 127
    },
    {
      "midi": 57,
      "hit": false,
      "t": 37706.88712500002,
      "d": 218.39074999999866,
      "v": 127
    },
    {
      "midi": 57,
      "hit": false,
      "t": 37925.27787500002,
      "d": 442.528624999999,
      "v": 127
    },
    {
      "midi": 62,
      "hit": false,
      "t": 37925.27787500002,
      "d": 442.528624999999,
      "v": 127
    },
    {
      "midi": 66,
      "hit": false,
      "t": 37925.27787500002,
      "d": 442.528624999999,
      "v": 127
    },
    {
      "midi": 57,
      "hit": false,
      "t": 38385.04787500002,
      "d": 229.88500000000204,
      "v": 127
    },
    {
      "midi": 57,
      "hit": false,
      "t": 38614.93287500002,
      "d": 258.6206250000032,
      "v": 127
    },
    {
      "midi": 62,
      "hit": false,
      "t": 38614.93287500002,
      "d": 258.6206250000032,
      "v": 127
    },
    {
      "midi": 66,
      "hit": false,
      "t": 38614.93287500002,
      "d": 258.6206250000032,
      "v": 127
    },
    {
      "midi": 57,
      "hit": false,
      "t": 39097.691375000024,
      "d": 172.4137499999997,
      "v": 127
    },
    {
      "midi": 57,
      "hit": false,
      "t": 39316.08212500002,
      "d": 2712.6429999999964,
      "v": 127
    },
    {
      "midi": 60,
      "hit": false,
      "t": 39316.08212500002,
      "d": 2712.6429999999964,
      "v": 127
    },
    {
      "midi": 65,
      "hit": false,
      "t": 39316.08212500002,
      "d": 2712.6429999999964,
      "v": 127
    },
    {
      "midi": 41,
      "hit": false,
      "t": 39333.32350000002,
      "d": 2620.6889999999985,
      "v": 127
    },
    {
      "midi": 43,
      "hit": false,
      "t": 42063.20787500002,
      "d": 1304.5973749999976,
      "v": 127
    },
    {
      "midi": 55,
      "hit": false,
      "t": 42752.86287500002,
      "d": 137.93099999999686,
      "v": 127
    },
    {
      "midi": 59,
      "hit": false,
      "t": 42752.86287500002,
      "d": 137.93099999999686,
      "v": 127
    },
    {
      "midi": 62,
      "hit": false,
      "t": 42752.86287500002,
      "d": 137.93099999999686,
      "v": 127
    },
    {
      "midi": 38,
      "hit": false,
      "t": 43454.01212500002,
      "d": 344.8274999999994,
      "v": 127
    },
    {
      "midi": 43,
      "hit": false,
      "t": 43925.27637500002,
      "d": 206.89650000000256,
      "v": 127
    },
    {
      "midi": 67,
      "hit": false,
      "t": 44132.172875000026,
      "d": 643.6779999999999,
      "v": 127
    },
    {
      "midi": 62,
      "hit": false,
      "t": 44367.80500000002,
      "d": 419.5401250000068,
      "v": 127
    },
    {
      "midi": 59,
      "hit": false,
      "t": 44614.93137500002,
      "d": 172.41375000000698,
      "v": 127
    },
    {
      "midi": 55,
      "hit": false,
      "t": 44821.82787500003,
      "d": 1379.310000000005,
      "v": 127
    },
    {
      "midi": 67,
      "hit": false,
      "t": 44821.82787500003,
      "d": 1614.9421250000087,
      "v": 127
    },
    {
      "midi": 60,
      "hit": false,
      "t": 44833.322125000035,
      "d": 1488.5053750000006,
      "v": 127
    },
    {
      "midi": 64,
      "hit": false,
      "t": 44839.06925000004,
      "d": 1499.9996249999967,
      "v": 127
    },
    {
      "midi": 48,
      "hit": false,
      "t": 44839.06925000004,
      "d": 2333.3327500000014,
      "v": 127
    },
    {
      "midi": 55,
      "hit": false,
      "t": 46425.27575000004,
      "d": 3408.045125000026,
      "v": 127
    },
    {
      "midi": 60,
      "hit": false,
      "t": 46649.41362500004,
      "d": 1942.528250000003,
      "v": 127
    },
    {
      "midi": 64,
      "hit": false,
      "t": 46879.29862500004,
      "d": 316.09187499999825,
      "v": 127
    },
    {
      "midi": 67,
      "hit": false,
      "t": 47097.68937500004,
      "d": 149.42525000000023,
      "v": 127
    },
    {
      "midi": 72,
      "hit": false,
      "t": 47327.57437500004,
      "d": 63.21837499999674,
      "v": 127
    },
    {
      "midi": 79,
      "hit": false,
      "t": 47551.71225000004,
      "d": 1057.471000000005,
      "v": 127
    },
    {
      "midi": 74,
      "hit": false,
      "t": 47557.45937500004,
      "d": 114.94249999999738,
      "v": 127
    },
    {
      "midi": 76,
      "hit": false,
      "t": 47701.13750000004,
      "d": 505.747000000003,
      "v": 127
    },
    {
      "midi": 48,
      "hit": false,
      "t": 48022.97650000004,
      "d": 1798.850125000019,
      "v": 127
    },
    {
      "midi": 74,
      "hit": false,
      "t": 48247.11437500004,
      "d": 356.3217500000028,
      "v": 127
    },
    {
      "midi": 60,
      "hit": false,
      "t": 48689.64300000005,
      "d": 655.1722500000033,
      "v": 127
    },
    {
      "midi": 72,
      "hit": false,
      "t": 48954.010750000045,
      "d": 1057.4710000000196,
      "v": 127
    },
    {
      "midi": 67,
      "hit": false,
      "t": 48971.25212500004,
      "d": 97.70112499999959,
      "v": 127
    },
    {
      "midi": 69,
      "hit": false,
      "t": 49114.93025000005,
      "d": 522.9883750000081,
      "v": 127
    },
    {
      "midi": 60,
      "hit": false,
      "t": 49431.022125000054,
      "d": 379.31025000000227,
      "v": 127
    },
    {
      "midi": 67,
      "hit": false,
      "t": 49655.160000000054,
      "d": 321.8390000000072,
      "v": 127
    },
    {
      "midi": 48,
      "hit": false,
      "t": 50356.309250000064,
      "d": 471.2642500000002,
      "v": 127
    },
    {
      "midi": 55,
      "hit": false,
      "t": 50827.573500000064,
      "d": 229.88500000000204,
      "v": 127
    },
    {
      "midi": 60,
      "hit": false,
      "t": 51057.458500000066,
      "d": 442.528624999999,
      "v": 127
    },
    {
      "midi": 55,
      "hit": false,
      "t": 51499.987125000065,
      "d": 218.39074999999866,
      "v": 127
    },
    {
      "midi": 55,
      "hit": false,
      "t": 51718.377875000064,
      "d": 442.528624999999,
      "v": 127
    },
    {
      "midi": 60,
      "hit": false,
      "t": 51718.377875000064,
      "d": 442.528624999999,
      "v": 127
    },
    {
      "midi": 64,
      "hit": false,
      "t": 51718.377875000064,
      "d": 442.528624999999,
      "v": 127
    },
    {
      "midi": 55,
      "hit": false,
      "t": 52178.14787500006,
      "d": 229.88500000000204,
      "v": 127
    },
    {
      "midi": 55,
      "hit": false,
      "t": 52408.03287500006,
      "d": 201.14937500000087,
      "v": 127
    },
    {
      "midi": 60,
      "hit": false,
      "t": 52408.03287500006,
      "d": 258.6206250000032,
      "v": 127
    },
    {
      "midi": 64,
      "hit": false,
      "t": 52408.03287500006,
      "d": 258.6206250000032,
      "v": 127
    },
    {
      "midi": 57,
      "hit": false,
      "t": 52908.032750000064,
      "d": 2902.298125000001,
      "v": 127
    },
    {
      "midi": 60,
      "hit": false,
      "t": 52908.032750000064,
      "d": 2902.298125000001,
      "v": 127
    },
    {
      "midi": 65,
      "hit": false,
      "t": 52908.032750000064,
      "d": 2902.298125000001,
      "v": 127
    },
    {
      "midi": 41,
      "hit": false,
      "t": 52925.27412500006,
      "d": 2810.3441250000033,
      "v": 127
    },
    {
      "midi": 48,
      "hit": false,
      "t": 55856.307875000064,
      "d": 1143.6778750000012,
      "v": 127
    },
    {
      "midi": 55,
      "hit": false,
      "t": 56545.96287500006,
      "d": 298.85050000000047,
      "v": 127
    },
    {
      "midi": 60,
      "hit": false,
      "t": 56545.96287500006,
      "d": 298.85050000000047,
      "v": 127
    },
    {
      "midi": 64,
      "hit": false,
      "t": 56545.96287500006,
      "d": 298.85050000000047,
      "v": 127
    },
    {
      "midi": 55,
      "hit": false,
      "t": 57022.974250000065,
      "d": 499.99987500000134,
      "v": 127
    },
    {
      "midi": 60,
      "hit": false,
      "t": 57022.974250000065,
      "d": 499.99987500000134,
      "v": 127
    },
    {
      "midi": 64,
      "hit": false,
      "t": 57022.974250000065,
      "d": 499.99987500000134,
      "v": 127
    },
    {
      "midi": 48,
      "hit": false,
      "t": 57247.112125000065,
      "d": 1114.94225,
      "v": 127
    },
    {
      "midi": 55,
      "hit": false,
      "t": 57925.27287500007,
      "d": 316.09187499999825,
      "v": 127
    },
    {
      "midi": 60,
      "hit": false,
      "t": 57925.27287500007,
      "d": 316.09187499999825,
      "v": 127
    },
    {
      "midi": 64,
      "hit": false,
      "t": 57925.27287500007,
      "d": 316.09187499999825,
      "v": 127
    },
    {
      "midi": 48,
      "hit": false,
      "t": 58637.916375000066,
      "d": 1660.919124999993,
      "v": 127
    },
    {
      "midi": 55,
      "hit": false,
      "t": 59304.582875000066,
      "d": 362.0688749999972,
      "v": 127
    },
    {
      "midi": 60,
      "hit": false,
      "t": 59304.582875000066,
      "d": 362.0688749999972,
      "v": 127
    },
    {
      "midi": 64,
      "hit": false,
      "t": 59304.582875000066,
      "d": 362.0688749999972,
      "v": 127
    },
    {
      "midi": 76,
      "hit": false,
      "t": 60005.73212500006,
      "d": 201.14937500000087,
      "v": 127
    },
    {
      "midi": 72,
      "hit": false,
      "t": 60206.88150000006,
      "d": 1074.7123750000028,
      "v": 127
    },
    {
      "midi": 67,
      "hit": false,
      "t": 60454.00787500006,
      "d": 787.3561250000057,
      "v": 127
    },
    {
      "midi": 60,
      "hit": false,
      "t": 60908.03075000006,
      "d": 356.3217500000028,
      "v": 127
    },
    {
      "midi": 55,
      "hit": false,
      "t": 61155.15712500006,
      "d": 183.90800000000309,
      "v": 127
    },
    {
      "midi": 43,
      "hit": false,
      "t": 61402.28350000006,
      "d": 2517.24074999999,
      "v": 127
    },
    {
      "midi": 71,
      "hit": false,
      "t": 61833.317875000066,
      "d": 275.862000000001,
      "v": 127
    },
    {
      "midi": 67,
      "hit": false,
      "t": 62109.17987500007,
      "d": 454.0228749999951,
      "v": 127
    },
    {
      "midi": 62,
      "hit": false,
      "t": 62522.972875000065,
      "d": 1339.0801249999931,
      "v": 127
    },
    {
      "midi": 67,
      "hit": false,
      "t": 63672.39787500006,
      "d": 229.88499999999476,
      "v": 127
    },
    {
      "midi": 71,
      "hit": false,
      "t": 63902.282875000055,
      "d": 97.70112499999959,
      "v": 127
    },
    {
      "midi": 52,
      "hit": false,
      "t": 64149.409250000055,
      "d": 471.2642500000002,
      "v": 127
    },
    {
      "midi": 59,
      "hit": false,
      "t": 64620.673500000055,
      "d": 229.88500000000204,
      "v": 127
    },
    {
      "midi": 64,
      "hit": false,
      "t": 64850.55850000006,
      "d": 442.528624999999,
      "v": 127
    },
    {
      "midi": 59,
      "hit": false,
      "t": 65293.08712500006,
      "d": 218.39074999999866,
      "v": 127
    },
    {
      "midi": 56,
      "hit": false,
      "t": 65511.477875000055,
      "d": 442.5286250000063,
      "v": 127
    },
    {
      "midi": 59,
      "hit": false,
      "t": 65511.477875000055,
      "d": 442.5286250000063,
      "v": 127
    },
    {
      "midi": 64,
      "hit": false,
      "t": 65511.477875000055,
      "d": 442.5286250000063,
      "v": 127
    },
    {
      "midi": 59,
      "hit": false,
      "t": 65971.24787500006,
      "d": 229.88499999999476,
      "v": 127
    },
    {
      "midi": 56,
      "hit": false,
      "t": 66201.13287500005,
      "d": 258.6206249999959,
      "v": 127
    },
    {
      "midi": 59,
      "hit": false,
      "t": 66201.13287500005,
      "d": 258.6206249999959,
      "v": 127
    },
    {
      "midi": 64,
      "hit": false,
      "t": 66201.13287500005,
      "d": 258.6206249999959,
      "v": 127
    },
    {
      "midi": 59,
      "hit": false,
      "t": 66683.89137500005,
      "d": 172.41375000000698,
      "v": 127
    },
    {
      "midi": 45,
      "hit": false,
      "t": 66919.52350000005,
      "d": 1316.091625000001,
      "v": 127
    },
    {
      "midi": 57,
      "hit": false,
      "t": 67580.44287500005,
      "d": 137.93099999999686,
      "v": 127
    },
    {
      "midi": 60,
      "hit": false,
      "t": 67580.44287500005,
      "d": 137.93099999999686,
      "v": 127
    },
    {
      "midi": 64,
      "hit": false,
      "t": 67580.44287500005,
      "d": 137.93099999999686,
      "v": 127
    },
    {
      "midi": 43,
      "hit": false,
      "t": 68298.83350000005,
      "d": 1316.091625000001,
      "v": 127
    },
    {
      "midi": 57,
      "hit": false,
      "t": 68959.75287500005,
      "d": 137.93099999999686,
      "v": 127
    },
    {
      "midi": 60,
      "hit": false,
      "t": 68959.75287500005,
      "d": 137.93099999999686,
      "v": 127
    },
    {
      "midi": 64,
      "hit": false,
      "t": 68959.75287500005,
      "d": 137.93099999999686,
      "v": 127
    },
    {
      "midi": 50,
      "hit": false,
      "t": 69649.40787500005,
      "d": 1304.5973749999976,
      "v": 127
    },
    {
      "midi": 57,
      "hit": false,
      "t": 70339.06287500005,
      "d": 137.93099999999686,
      "v": 127
    },
    {
      "midi": 62,
      "hit": false,
      "t": 70339.06287500005,
      "d": 137.93099999999686,
      "v": 127
    },
    {
      "midi": 66,
      "hit": false,
      "t": 70339.06287500005,
      "d": 137.93099999999686,
      "v": 127
    },
    {
      "midi": 50,
      "hit": false,
      "t": 71040.21212500005,
      "d": 344.8274999999994,
      "v": 127
    },
    {
      "midi": 45,
      "hit": false,
      "t": 71511.47637500004,
      "d": 206.89650000000256,
      "v": 127
    },
    {
      "midi": 50,
      "hit": false,
      "t": 71718.37287500004,
      "d": 643.6780000000144,
      "v": 127
    },
    {
      "midi": 54,
      "hit": false,
      "t": 71954.00500000005,
      "d": 419.5401250000141,
      "v": 127
    },
    {
      "midi": 57,
      "hit": false,
      "t": 72201.13137500006,
      "d": 172.41375000000698,
      "v": 127
    },
    {
      "midi": 55,
      "hit": false,
      "t": 72408.02787500006,
      "d": 1839.0800000000017,
      "v": 127
    },
    {
      "midi": 59,
      "hit": false,
      "t": 72408.02787500006,
      "d": 1839.0800000000017,
      "v": 127
    },
    {
      "midi": 62,
      "hit": false,
      "t": 72408.02787500006,
      "d": 1839.0800000000017,
      "v": 127
    },
    {
      "midi": 43,
      "hit": false,
      "t": 72436.76350000006,
      "d": 1603.447874999998,
      "v": 127
    },
    {
      "midi": 43,
      "hit": false,
      "t": 74247.10787500006,
      "d": 235.63212500000373,
      "v": 127
    },
    {
      "midi": 55,
      "hit": false,
      "t": 74482.74000000006,
      "d": 356.3217500000028,
      "v": 127
    },
    {
      "midi": 59,
      "hit": false,
      "t": 74482.74000000006,
      "d": 356.3217500000028,
      "v": 127
    },
    {
      "midi": 62,
      "hit": false,
      "t": 74482.74000000006,
      "d": 356.3217500000028,
      "v": 127
    },
    {
      "midi": 52,
      "hit": false,
      "t": 75183.88925000007,
      "d": 2505.7465000000084,
      "v": 127
    },
    {
      "midi": 71,
      "hit": false,
      "t": 75189.63637500006,
      "d": 1367.8157499999943,
      "v": 120
    },
    {
      "midi": 64,
      "hit": false,
      "t": 75195.38350000005,
      "d": 1362.0686249999999,
      "v": 127
    },
    {
      "midi": 59,
      "hit": false,
      "t": 76304.57862500005,
      "d": 367.81600000000617,
      "v": 127
    },
    {
      "midi": 66,
      "hit": false,
      "t": 76557.45212500005,
      "d": 114.94250000000466,
      "v": 127
    },
    {
      "midi": 71,
      "hit": false,
      "t": 76557.45212500005,
      "d": 436.7815000000119,
      "v": 127
    },
    {
      "midi": 68,
      "hit": false,
      "t": 76672.39462500006,
      "d": 321.8390000000072,
      "v": 127
    },
    {
      "midi": 66,
      "hit": false,
      "t": 76994.23362500007,
      "d": 252.8735000000015,
      "v": 127
    },
    {
      "midi": 71,
      "hit": false,
      "t": 76994.23362500007,
      "d": 459.7700000000041,
      "v": 127
    },
    {
      "midi": 64,
      "hit": false,
      "t": 77247.10712500007,
      "d": 471.26425000000745,
      "v": 127
    },
    {
      "midi": 61,
      "hit": false,
      "t": 77718.37137500008,
      "d": 172.41375000000698,
      "v": 127
    },
    {
      "midi": 45,
      "hit": false,
      "t": 77954.00350000008,
      "d": 1316.091625000001,
      "v": 127
    },
    {
      "midi": 57,
      "hit": false,
      "t": 78614.92287500008,
      "d": 137.93099999999686,
      "v": 127
    },
    {
      "midi": 60,
      "hit": false,
      "t": 78614.92287500008,
      "d": 137.93099999999686,
      "v": 127
    },
    {
      "midi": 64,
      "hit": false,
      "t": 78614.92287500008,
      "d": 137.93099999999686,
      "v": 127
    },
    {
      "midi": 57,
      "hit": false,
      "t": 79316.07212500008,
      "d": 1333.3329999999987,
      "v": 127
    },
    {
      "midi": 60,
      "hit": false,
      "t": 79316.07212500008,
      "d": 1333.3329999999987,
      "v": 127
    },
    {
      "midi": 64,
      "hit": false,
      "t": 79316.07212500008,
      "d": 1333.3329999999987,
      "v": 127
    },
    {
      "midi": 43,
      "hit": false,
      "t": 79321.81925000007,
      "d": 1229.8847499999974,
      "v": 127
    },
    {
      "midi": 50,
      "hit": false,
      "t": 80701.12925000007,
      "d": 2574.7119999999995,
      "v": 127
    },
    {
      "midi": 57,
      "hit": false,
      "t": 81373.54287500007,
      "d": 459.7700000000041,
      "v": 127
    },
    {
      "midi": 62,
      "hit": false,
      "t": 81373.54287500007,
      "d": 459.7700000000041,
      "v": 127
    },
    {
      "midi": 66,
      "hit": false,
      "t": 81373.54287500007,
      "d": 459.7700000000041,
      "v": 127
    },
    {
      "midi": 57,
      "hit": false,
      "t": 81833.31287500008,
      "d": 689.6549999999988,
      "v": 127
    },
    {
      "midi": 62,
      "hit": false,
      "t": 81833.31287500008,
      "d": 689.6549999999988,
      "v": 127
    },
    {
      "midi": 66,
      "hit": false,
      "t": 81833.31287500008,
      "d": 689.6549999999988,
      "v": 127
    },
    {
      "midi": 57,
      "hit": false,
      "t": 82522.96787500007,
      "d": 229.88499999999476,
      "v": 127
    },
    {
      "midi": 57,
      "hit": false,
      "t": 82752.85287500007,
      "d": 655.1722500000033,
      "v": 127
    },
    {
      "midi": 62,
      "hit": false,
      "t": 82752.85287500007,
      "d": 655.1722500000033,
      "v": 127
    },
    {
      "midi": 66,
      "hit": false,
      "t": 82752.85287500007,
      "d": 655.1722500000033,
      "v": 127
    },
    {
      "midi": 53,
      "hit": false,
      "t": 83459.74925000007,
      "d": 471.2642499999929,
      "v": 127
    },
    {
      "midi": 60,
      "hit": false,
      "t": 83931.01350000006,
      "d": 229.88499999999476,
      "v": 127
    },
    {
      "midi": 65,
      "hit": false,
      "t": 84160.89850000005,
      "d": 442.5286250000063,
      "v": 127
    },
    {
      "midi": 60,
      "hit": false,
      "t": 84603.42712500006,
      "d": 218.39075000000594,
      "v": 127
    },
    {
      "midi": 57,
      "hit": false,
      "t": 84821.81787500007,
      "d": 442.5286250000063,
      "v": 127
    },
    {
      "midi": 60,
      "hit": false,
      "t": 84821.81787500007,
      "d": 442.5286250000063,
      "v": 127
    },
    {
      "midi": 65,
      "hit": false,
      "t": 84821.81787500007,
      "d": 442.5286250000063,
      "v": 127
    },
    {
      "midi": 60,
      "hit": false,
      "t": 85281.58787500007,
      "d": 229.88499999999476,
      "v": 127
    },
    {
      "midi": 57,
      "hit": false,
      "t": 85511.47287500006,
      "d": 258.6206249999959,
      "v": 127
    },
    {
      "midi": 60,
      "hit": false,
      "t": 85511.47287500006,
      "d": 258.6206249999959,
      "v": 127
    },
    {
      "midi": 65,
      "hit": false,
      "t": 85511.47287500006,
      "d": 258.6206249999959,
      "v": 127
    },
    {
      "midi": 60,
      "hit": false,
      "t": 85994.23137500006,
      "d": 172.41375000000698,
      "v": 127
    },
    {
      "midi": 55,
      "hit": false,
      "t": 86201.12787500006,
      "d": 1839.0800000000017,
      "v": 127
    },
    {
      "midi": 59,
      "hit": false,
      "t": 86201.12787500006,
      "d": 1839.0800000000017,
      "v": 127
    },
    {
      "midi": 62,
      "hit": false,
      "t": 86201.12787500006,
      "d": 1839.0800000000017,
      "v": 127
    },
    {
      "midi": 43,
      "hit": false,
      "t": 86229.86350000006,
      "d": 1603.447874999998,
      "v": 127
    },
    {
      "midi": 43,
      "hit": false,
      "t": 88040.20787500007,
      "d": 235.63212500000373,
      "v": 127
    },
    {
      "midi": 55,
      "hit": false,
      "t": 88275.84000000007,
      "d": 356.3217500000028,
      "v": 127
    },
    {
      "midi": 59,
      "hit": false,
      "t": 88275.84000000007,
      "d": 356.3217500000028,
      "v": 127
    },
    {
      "midi": 62,
      "hit": false,
      "t": 88275.84000000007,
      "d": 356.3217500000028,
      "v": 127
    },
    {
      "midi": 48,
      "hit": false,
      "t": 88959.74787500007,
      "d": 1143.677874999994,
      "v": 127
    },
    {
      "midi": 55,
      "hit": false,
      "t": 89649.40287500007,
      "d": 298.85050000000047,
      "v": 127
    },
    {
      "midi": 60,
      "hit": false,
      "t": 89649.40287500007,
      "d": 298.85050000000047,
      "v": 127
    },
    {
      "midi": 64,
      "hit": false,
      "t": 89649.40287500007,
      "d": 298.85050000000047,
      "v": 127
    },
    {
      "midi": 55,
      "hit": false,
      "t": 90126.41425000007,
      "d": 499.99987499999406,
      "v": 127
    },
    {
      "midi": 60,
      "hit": false,
      "t": 90126.41425000007,
      "d": 499.99987499999406,
      "v": 127
    },
    {
      "midi": 64,
      "hit": false,
      "t": 90126.41425000007,
      "d": 499.99987499999406,
      "v": 127
    },
    {
      "midi": 48,
      "hit": false,
      "t": 90350.55212500007,
      "d": 1114.9422499999928,
      "v": 127
    },
    {
      "midi": 55,
      "hit": false,
      "t": 91028.71287500007,
      "d": 316.09187499999825,
      "v": 127
    },
    {
      "midi": 60,
      "hit": false,
      "t": 91028.71287500007,
      "d": 316.09187499999825,
      "v": 127
    },
    {
      "midi": 64,
      "hit": false,
      "t": 91028.71287500007,
      "d": 316.09187499999825,
      "v": 127
    },
    {
      "midi": 48,
      "hit": false,
      "t": 91741.35637500006,
      "d": 1660.9191250000003,
      "v": 127
    },
    {
      "midi": 55,
      "hit": false,
      "t": 92408.02287500007,
      "d": 362.0688749999972,
      "v": 127
    },
    {
      "midi": 60,
      "hit": false,
      "t": 92408.02287500007,
      "d": 362.0688749999972,
      "v": 127
    },
    {
      "midi": 64,
      "hit": false,
      "t": 92408.02287500007,
      "d": 362.0688749999972,
      "v": 127
    },
    {
      "midi": 76,
      "hit": false,
      "t": 93109.17212500007,
      "d": 201.1493749999936,
      "v": 127
    },
    {
      "midi": 72,
      "hit": false,
      "t": 93310.32150000006,
      "d": 1074.7123750000028,
      "v": 127
    },
    {
      "midi": 67,
      "hit": false,
      "t": 93557.44787500006,
      "d": 787.3561250000057,
      "v": 127
    },
    {
      "midi": 60,
      "hit": false,
      "t": 94011.47075000005,
      "d": 356.32175000001735,
      "v": 127
    },
    {
      "midi": 55,
      "hit": false,
      "t": 94258.59712500006,
      "d": 183.90800000001036,
      "v": 127
    },
    {
      "midi": 60,
      "hit": false,
      "t": 94476.98787500006,
      "d": 1839.0800000000017,
      "v": 127
    },
    {
      "midi": 48,
      "hit": false,
      "t": 94494.22925000006,
      "d": 1362.0686249999999,
      "v": 127
    },
    {
      "midi": 64,
      "hit": false,
      "t": 94936.75787500007,
      "d": 1109.1951249999984,
      "v": 127
    },
    {
      "midi": 67,
      "hit": false,
      "t": 95626.41287500007,
      "d": 419.54012499999953,
      "v": 127
    },
    {
      "midi": 48,
      "hit": false,
      "t": 96316.06787500007,
      "d": 206.89650000000256,
      "v": 127
    },
    {
      "midi": 55,
      "hit": false,
      "t": 96545.95287500008,
      "d": 160.9195000000036,
      "v": 127
    },
    {
      "midi": 60,
      "hit": false,
      "t": 96545.95287500008,
      "d": 160.9195000000036,
      "v": 127
    },
    {
      "midi": 64,
      "hit": false,
      "t": 96545.95287500008,
      "d": 160.9195000000036,
      "v": 127
    },
    {
      "midi": 41,
      "hit": false,
      "t": 97264.34350000008,
      "d": 2632.183250000002,
      "v": 127
    },
    {
      "midi": 57,
      "hit": false,
      "t": 97925.26287500007,
      "d": 137.93099999999686,
      "v": 127
    },
    {
      "midi": 60,
      "hit": false,
      "t": 97925.26287500007,
      "d": 137.93099999999686,
      "v": 127
    },
    {
      "midi": 65,
      "hit": false,
      "t": 97925.26287500007,
      "d": 137.93099999999686,
      "v": 127
    },
    {
      "midi": 57,
      "hit": false,
      "t": 99304.57287500007,
      "d": 149.42525000000023,
      "v": 127
    },
    {
      "midi": 60,
      "hit": false,
      "t": 99304.57287500007,
      "d": 149.42525000000023,
      "v": 127
    },
    {
      "midi": 65,
      "hit": false,
      "t": 99304.57287500007,
      "d": 149.42525000000023,
      "v": 127
    },
    {
      "midi": 67,
      "hit": false,
      "t": 99994.22787500008,
      "d": 689.6549999999988,
      "v": 127
    },
    {
      "midi": 48,
      "hit": false,
      "t": 99994.22787500008,
      "d": 1304.5973749999976,
      "v": 127
    },
    {
      "midi": 55,
      "hit": false,
      "t": 100683.88287500008,
      "d": 137.93099999999686,
      "v": 127
    },
    {
      "midi": 60,
      "hit": false,
      "t": 100683.88287500008,
      "d": 137.93099999999686,
      "v": 127
    },
    {
      "midi": 64,
      "hit": false,
      "t": 100683.88287500008,
      "d": 137.93099999999686,
      "v": 127
    },
    {
      "midi": 48,
      "hit": false,
      "t": 101385.03212500009,
      "d": 344.8274999999994,
      "v": 127
    },
    {
      "midi": 55,
      "hit": false,
      "t": 101844.80212500009,
      "d": 201.1493749999936,
      "v": 127
    },
    {
      "midi": 55,
      "hit": false,
      "t": 102045.95150000008,
      "d": 270.1148749999993,
      "v": 127
    },
    {
      "midi": 60,
      "hit": false,
      "t": 102045.95150000008,
      "d": 270.1148749999993,
      "v": 127
    },
    {
      "midi": 64,
      "hit": false,
      "t": 102045.95150000008,
      "d": 270.1148749999993,
      "v": 127
    },
    {
      "midi": 72,
      "hit": false,
      "t": 102086.18137500009,
      "d": 229.88499999999476,
      "v": 127
    },
    {
      "midi": 67,
      "hit": false,
      "t": 102316.06637500008,
      "d": 212.64362499999697,
      "v": 127
    },
    {
      "midi": 64,
      "hit": false,
      "t": 102528.71000000008,
      "d": 241.37924999999814,
      "v": 127
    },
    {
      "midi": 67,
      "hit": false,
      "t": 102770.08925000008,
      "d": 660.9193749999977,
      "v": 127
    },
    {
      "midi": 48,
      "hit": false,
      "t": 102798.82487500008,
      "d": 1660.9191250000003,
      "v": 127
    },
    {
      "midi": 55,
      "hit": false,
      "t": 103442.50287500008,
      "d": 362.0688749999972,
      "v": 127
    },
    {
      "midi": 60,
      "hit": false,
      "t": 103442.50287500008,
      "d": 362.0688749999972,
      "v": 127
    },
    {
      "midi": 64,
      "hit": false,
      "t": 103442.50287500008,
      "d": 362.0688749999972,
      "v": 127
    },
    {
      "midi": 55,
      "hit": false,
      "t": 103925.26137500007,
      "d": 218.39075000000594,
      "v": 127
    },
    {
      "midi": 60,
      "hit": false,
      "t": 103925.26137500007,
      "d": 218.39075000000594,
      "v": 127
    },
    {
      "midi": 64,
      "hit": false,
      "t": 103925.26137500007,
      "d": 218.39075000000594,
      "v": 127
    },
    {
      "midi": 55,
      "hit": false,
      "t": 104614.91637500007,
      "d": 126.43674999999348,
      "v": 127
    },
    {
      "midi": 64,
      "hit": false,
      "t": 104821.81287500006,
      "d": 528.7355000000098,
      "v": 127
    },
    {
      "midi": 60,
      "hit": false,
      "t": 105045.95075000006,
      "d": 356.3217500000028,
      "v": 127
    },
    {
      "midi": 55,
      "hit": false,
      "t": 105293.07712500007,
      "d": 183.9079999999958,
      "v": 127
    },
    {
      "midi": 55,
      "hit": false,
      "t": 105511.46787500006,
      "d": 1781.6087499999994,
      "v": 127
    },
    {
      "midi": 59,
      "hit": false,
      "t": 105511.46787500006,
      "d": 1781.6087499999994,
      "v": 127
    },
    {
      "midi": 62,
      "hit": false,
      "t": 105511.46787500006,
      "d": 1781.6087499999994,
      "v": 127
    },
    {
      "midi": 43,
      "hit": false,
      "t": 105540.20350000006,
      "d": 1488.5053749999934,
      "v": 127
    },
    {
      "midi": 43,
      "hit": false,
      "t": 107350.54787500006,
      "d": 206.89650000000256,
      "v": 127
    },
    {
      "midi": 55,
      "hit": false,
      "t": 107580.43287500007,
      "d": 235.63212500000373,
      "v": 127
    },
    {
      "midi": 59,
      "hit": false,
      "t": 107580.43287500007,
      "d": 235.63212500000373,
      "v": 127
    },
    {
      "midi": 62,
      "hit": false,
      "t": 107580.43287500007,
      "d": 235.63212500000373,
      "v": 127
    },
    {
      "midi": 52,
      "hit": false,
      "t": 108287.32925000007,
      "d": 471.2642499999929,
      "v": 127
    },
    {
      "midi": 59,
      "hit": false,
      "t": 108758.59350000006,
      "d": 229.88499999999476,
      "v": 127
    },
    {
      "midi": 64,
      "hit": false,
      "t": 108988.47850000006,
      "d": 442.5286250000063,
      "v": 127
    },
    {
      "midi": 59,
      "hit": false,
      "t": 109431.00712500006,
      "d": 218.39075000000594,
      "v": 127
    },
    {
      "midi": 56,
      "hit": false,
      "t": 109649.39787500007,
      "d": 442.5286250000063,
      "v": 127
    },
    {
      "midi": 59,
      "hit": false,
      "t": 109649.39787500007,
      "d": 442.5286250000063,
      "v": 127
    },
    {
      "midi": 64,
      "hit": false,
      "t": 109649.39787500007,
      "d": 442.5286250000063,
      "v": 127
    },
    {
      "midi": 59,
      "hit": false,
      "t": 110109.16787500007,
      "d": 229.88499999999476,
      "v": 127
    },
    {
      "midi": 56,
      "hit": false,
      "t": 110339.05287500007,
      "d": 258.6206249999959,
      "v": 127
    },
    {
      "midi": 59,
      "hit": false,
      "t": 110339.05287500007,
      "d": 258.6206249999959,
      "v": 127
    },
    {
      "midi": 64,
      "hit": false,
      "t": 110339.05287500007,
      "d": 258.6206249999959,
      "v": 127
    },
    {
      "midi": 59,
      "hit": false,
      "t": 110821.81137500006,
      "d": 172.41375000000698,
      "v": 127
    },
    {
      "midi": 60,
      "hit": false,
      "t": 111028.70787500007,
      "d": 977.0112499999959,
      "v": 127
    },
    {
      "midi": 64,
      "hit": false,
      "t": 111028.70787500007,
      "d": 977.0112499999959,
      "v": 127
    },
    {
      "midi": 45,
      "hit": false,
      "t": 111074.68487500006,
      "d": 1258.6203749999986,
      "v": 127
    },
    {
      "midi": 57,
      "hit": false,
      "t": 111948.24787500006,
      "d": 57.47125000000233,
      "v": 127
    },
    {
      "midi": 57,
      "hit": false,
      "t": 112178.13287500007,
      "d": 166.66662499999802,
      "v": 127
    },
    {
      "midi": 57,
      "hit": false,
      "t": 112408.01787500006,
      "d": 1344.827250000002,
      "v": 127
    },
    {
      "midi": 60,
      "hit": false,
      "t": 112408.01787500006,
      "d": 1344.827250000002,
      "v": 127
    },
    {
      "midi": 64,
      "hit": false,
      "t": 112408.01787500006,
      "d": 1344.827250000002,
      "v": 127
    },
    {
      "midi": 43,
      "hit": false,
      "t": 112436.75350000006,
      "d": 1247.1261249999952,
      "v": 127
    },
    {
      "midi": 50,
      "hit": false,
      "t": 113804.56925000006,
      "d": 2505.7465000000084,
      "v": 127
    },
    {
      "midi": 69,
      "hit": false,
      "t": 113810.31637500005,
      "d": 1367.8157499999943,
      "v": 120
    },
    {
      "midi": 62,
      "hit": false,
      "t": 113816.06350000005,
      "d": 1362.0686249999999,
      "v": 127
    },
    {
      "midi": 57,
      "hit": false,
      "t": 114925.25862500005,
      "d": 367.81600000000617,
      "v": 127
    },
    {
      "midi": 64,
      "hit": false,
      "t": 115178.13212500005,
      "d": 114.94250000000466,
      "v": 127
    },
    {
      "midi": 69,
      "hit": false,
      "t": 115178.13212500005,
      "d": 436.7815000000119,
      "v": 127
    },
    {
      "midi": 66,
      "hit": false,
      "t": 115293.07462500005,
      "d": 321.8390000000072,
      "v": 127
    },
    {
      "midi": 64,
      "hit": false,
      "t": 115614.91362500006,
      "d": 252.8735000000015,
      "v": 127
    },
    {
      "midi": 69,
      "hit": false,
      "t": 115614.91362500006,
      "d": 459.7700000000041,
      "v": 127
    },
    {
      "midi": 62,
      "hit": false,
      "t": 115867.78712500006,
      "d": 471.26425000000745,
      "v": 127
    },
    {
      "midi": 59,
      "hit": false,
      "t": 116339.05137500007,
      "d": 172.41375000000698,
      "v": 127
    },
    {
      "midi": 43,
      "hit": false,
      "t": 116563.18925000007,
      "d": 2574.7119999999995,
      "v": 127
    },
    {
      "midi": 55,
      "hit": false,
      "t": 117235.60287500007,
      "d": 459.7700000000041,
      "v": 127
    },
    {
      "midi": 59,
      "hit": false,
      "t": 117235.60287500007,
      "d": 459.7700000000041,
      "v": 127
    },
    {
      "midi": 62,
      "hit": false,
      "t": 117235.60287500007,
      "d": 459.7700000000041,
      "v": 127
    },
    {
      "midi": 55,
      "hit": false,
      "t": 117695.37287500007,
      "d": 689.6549999999988,
      "v": 127
    },
    {
      "midi": 59,
      "hit": false,
      "t": 117695.37287500007,
      "d": 689.6549999999988,
      "v": 127
    },
    {
      "midi": 62,
      "hit": false,
      "t": 117695.37287500007,
      "d": 689.6549999999988,
      "v": 127
    },
    {
      "midi": 59,
      "hit": false,
      "t": 118385.02787500007,
      "d": 229.88499999999476,
      "v": 127
    },
    {
      "midi": 55,
      "hit": false,
      "t": 118614.91287500007,
      "d": 655.1722500000033,
      "v": 127
    },
    {
      "midi": 59,
      "hit": false,
      "t": 118614.91287500007,
      "d": 655.1722500000033,
      "v": 127
    },
    {
      "midi": 62,
      "hit": false,
      "t": 118614.91287500007,
      "d": 655.1722500000033,
      "v": 127
    },
    {
      "midi": 40,
      "hit": false,
      "t": 119333.30350000007,
      "d": 2632.183250000002,
      "v": 127
    },
    {
      "midi": 56,
      "hit": false,
      "t": 119994.22287500006,
      "d": 137.93099999999686,
      "v": 127
    },
    {
      "midi": 59,
      "hit": false,
      "t": 119994.22287500006,
      "d": 137.93099999999686,
      "v": 127
    },
    {
      "midi": 64,
      "hit": false,
      "t": 119994.22287500006,
      "d": 137.93099999999686,
      "v": 127
    },
    {
      "midi": 56,
      "hit": false,
      "t": 121373.53287500006,
      "d": 149.42525000000023,
      "v": 127
    },
    {
      "midi": 59,
      "hit": false,
      "t": 121373.53287500006,
      "d": 149.42525000000023,
      "v": 127
    },
    {
      "midi": 64,
      "hit": false,
      "t": 121373.53287500006,
      "d": 149.42525000000023,
      "v": 127
    },
    {
      "midi": 57,
      "hit": false,
      "t": 122063.18787500008,
      "d": 477.0113749999873,
      "v": 127
    },
    {
      "midi": 60,
      "hit": false,
      "t": 122063.18787500008,
      "d": 477.0113749999873,
      "v": 127
    },
    {
      "midi": 64,
      "hit": false,
      "t": 122063.18787500008,
      "d": 477.0113749999873,
      "v": 127
    },
    {
      "midi": 45,
      "hit": false,
      "t": 122080.42925000007,
      "d": 316.09187499999825,
      "v": 127
    },
    {
      "midi": 45,
      "hit": false,
      "t": 122522.95787500007,
      "d": 241.37924999999814,
      "v": 127
    },
    {
      "midi": 57,
      "hit": false,
      "t": 122770.08425000006,
      "d": 252.8735000000015,
      "v": 127
    },
    {
      "midi": 60,
      "hit": false,
      "t": 122770.08425000006,
      "d": 252.8735000000015,
      "v": 127
    },
    {
      "midi": 64,
      "hit": false,
      "t": 122770.08425000006,
      "d": 252.8735000000015,
      "v": 127
    },
    {
      "midi": 60,
      "hit": false,
      "t": 123442.49787500006,
      "d": 977.0112499999959,
      "v": 127
    },
    {
      "midi": 64,
      "hit": false,
      "t": 123442.49787500006,
      "d": 977.0112499999959,
      "v": 127
    },
    {
      "midi": 43,
      "hit": false,
      "t": 123488.47487500006,
      "d": 1258.6203749999986,
      "v": 127
    },
    {
      "midi": 57,
      "hit": false,
      "t": 124362.03787500005,
      "d": 57.47125000000233,
      "v": 127
    },
    {
      "midi": 57,
      "hit": false,
      "t": 124591.92287500006,
      "d": 166.66662499999802,
      "v": 127
    },
    {
      "midi": 57,
      "hit": false,
      "t": 124833.30212500006,
      "d": 2712.6429999999964,
      "v": 127
    },
    {
      "midi": 62,
      "hit": false,
      "t": 124833.30212500006,
      "d": 2712.6429999999964,
      "v": 127
    },
    {
      "midi": 66,
      "hit": false,
      "t": 124833.30212500006,
      "d": 2712.6429999999964,
      "v": 127
    },
    {
      "midi": 50,
      "hit": false,
      "t": 124850.54350000006,
      "d": 2620.6889999999985,
      "v": 127
    },
    {
      "midi": 53,
      "hit": false,
      "t": 127597.66925000005,
      "d": 471.2642499999929,
      "v": 127
    },
    {
      "midi": 60,
      "hit": false,
      "t": 128068.93350000004,
      "d": 229.88499999999476,
      "v": 127
    },
    {
      "midi": 65,
      "hit": false,
      "t": 128298.81850000004,
      "d": 442.5286250000063,
      "v": 127
    },
    {
      "midi": 60,
      "hit": false,
      "t": 128741.34712500004,
      "d": 218.39075000000594,
      "v": 127
    },
    {
      "midi": 57,
      "hit": false,
      "t": 128959.73787500005,
      "d": 442.5286250000063,
      "v": 127
    },
    {
      "midi": 60,
      "hit": false,
      "t": 128959.73787500005,
      "d": 442.5286250000063,
      "v": 127
    },
    {
      "midi": 65,
      "hit": false,
      "t": 128959.73787500005,
      "d": 442.5286250000063,
      "v": 127
    },
    {
      "midi": 60,
      "hit": false,
      "t": 129419.50787500005,
      "d": 229.88499999999476,
      "v": 127
    },
    {
      "midi": 57,
      "hit": false,
      "t": 129649.39287500005,
      "d": 258.6206249999959,
      "v": 127
    },
    {
      "midi": 60,
      "hit": false,
      "t": 129649.39287500005,
      "d": 258.6206249999959,
      "v": 127
    },
    {
      "midi": 65,
      "hit": false,
      "t": 129649.39287500005,
      "d": 258.6206249999959,
      "v": 127
    },
    {
      "midi": 60,
      "hit": false,
      "t": 130132.15137500004,
      "d": 172.41375000000698,
      "v": 127
    },
    {
      "midi": 55,
      "hit": false,
      "t": 130350.54212500005,
      "d": 2712.6429999999964,
      "v": 127
    },
    {
      "midi": 59,
      "hit": false,
      "t": 130350.54212500005,
      "d": 2712.6429999999964,
      "v": 127
    },
    {
      "midi": 62,
      "hit": false,
      "t": 130350.54212500005,
      "d": 2712.6429999999964,
      "v": 127
    },
    {
      "midi": 43,
      "hit": false,
      "t": 130367.78350000005,
      "d": 2620.689000000013,
      "v": 127
    },
    {
      "midi": 48,
      "hit": false,
      "t": 133097.66787500004,
      "d": 2160.9189999999944,
      "v": 127
    },
    {
      "midi": 55,
      "hit": false,
      "t": 133787.32287500004,
      "d": 137.9310000000114,
      "v": 127
    },
    {
      "midi": 60,
      "hit": false,
      "t": 133787.32287500004,
      "d": 137.9310000000114,
      "v": 127
    },
    {
      "midi": 64,
      "hit": false,
      "t": 133787.32287500004,
      "d": 137.9310000000114,
      "v": 127
    },
    {
      "midi": 55,
      "hit": false,
      "t": 135166.63287500004,
      "d": 149.42525000000023,
      "v": 127
    },
    {
      "midi": 60,
      "hit": false,
      "t": 135166.63287500004,
      "d": 149.42525000000023,
      "v": 127
    },
    {
      "midi": 64,
      "hit": false,
      "t": 135166.63287500004,
      "d": 149.42525000000023,
      "v": 127
    },
    {
      "midi": 48,
      "hit": false,
      "t": 135902.26487500005,
      "d": 1660.919125000015,
      "v": 127
    },
    {
      "midi": 55,
      "hit": false,
      "t": 136545.94287500007,
      "d": 362.0688749999972,
      "v": 127
    },
    {
      "midi": 60,
      "hit": false,
      "t": 136545.94287500007,
      "d": 362.0688749999972,
      "v": 127
    },
    {
      "midi": 64,
      "hit": false,
      "t": 136545.94287500007,
      "d": 362.0688749999972,
      "v": 127
    },
    {
      "midi": 55,
      "hit": false,
      "t": 137028.70137500006,
      "d": 218.39074999999139,
      "v": 127
    },
    {
      "midi": 60,
      "hit": false,
      "t": 137028.70137500006,
      "d": 218.39074999999139,
      "v": 127
    },
    {
      "midi": 64,
      "hit": false,
      "t": 137028.70137500006,
      "d": 218.39074999999139,
      "v": 127
    },
    {
      "midi": 55,
      "hit": false,
      "t": 137718.35637500006,
      "d": 126.43674999999348,
      "v": 127
    },
    {
      "midi": 55,
      "hit": false,
      "t": 137925.25287500006,
      "d": 160.91949999998906,
      "v": 127
    },
    {
      "midi": 60,
      "hit": false,
      "t": 137925.25287500006,
      "d": 160.91949999998906,
      "v": 127
    },
    {
      "midi": 64,
      "hit": false,
      "t": 137925.25287500006,
      "d": 160.91949999998906,
      "v": 127
    },
    {
      "midi": 48,
      "hit": false,
      "t": 138632.14925000005,
      "d": 2505.7464999999793,
      "v": 127
    },
    {
      "midi": 67,
      "hit": false,
      "t": 138637.89637500004,
      "d": 1367.8157499999797,
      "v": 120
    },
    {
      "midi": 60,
      "hit": false,
      "t": 138643.64350000003,
      "d": 1362.0686249999853,
      "v": 127
    },
    {
      "midi": 55,
      "hit": false,
      "t": 139752.83862500003,
      "d": 367.8159999999916,
      "v": 127
    },
    {
      "midi": 62,
      "hit": false,
      "t": 140005.71212500002,
      "d": 114.94250000000466,
      "v": 127
    },
    {
      "midi": 67,
      "hit": false,
      "t": 140005.71212500002,
      "d": 436.7815000000119,
      "v": 127
    },
    {
      "midi": 64,
      "hit": false,
      "t": 140120.65462500002,
      "d": 321.8390000000072,
      "v": 127
    },
    {
      "midi": 62,
      "hit": false,
      "t": 140442.49362500003,
      "d": 252.87349999998696,
      "v": 127
    },
    {
      "midi": 67,
      "hit": false,
      "t": 140442.49362500003,
      "d": 459.7699999999895,
      "v": 127
    },
    {
      "midi": 60,
      "hit": false,
      "t": 140695.36712500002,
      "d": 471.26425000000745,
      "v": 127
    },
    {
      "midi": 57,
      "hit": false,
      "t": 141166.63137500003,
      "d": 172.41375000000698,
      "v": 127
    },
    {
      "midi": 60,
      "hit": false,
      "t": 141373.52787500003,
      "d": 1839.0800000000163,
      "v": 127
    },
    {
      "midi": 41,
      "hit": false,
      "t": 141390.76925000004,
      "d": 1362.0686250000144,
      "v": 127
    },
    {
      "midi": 65,
      "hit": false,
      "t": 141833.29787500005,
      "d": 1109.1951249999984,
      "v": 127
    },
    {
      "midi": 69,
      "hit": false,
      "t": 142522.95287500005,
      "d": 419.54012499999953,
      "v": 127
    },
    {
      "midi": 41,
      "hit": false,
      "t": 143212.60787500005,
      "d": 206.89650000000256,
      "v": 127
    },
    {
      "midi": 57,
      "hit": false,
      "t": 143442.49287500005,
      "d": 160.91949999998906,
      "v": 127
    },
    {
      "midi": 60,
      "hit": false,
      "t": 143442.49287500005,
      "d": 160.91949999998906,
      "v": 127
    },
    {
      "midi": 65,
      "hit": false,
      "t": 143442.49287500005,
      "d": 160.91949999998906,
      "v": 127
    },
    {
      "midi": 48,
      "hit": false,
      "t": 144132.14787500005,
      "d": 1304.597375000012,
      "v": 127
    },
    {
      "midi": 55,
      "hit": false,
      "t": 144821.80287500005,
      "d": 137.9310000000114,
      "v": 127
    },
    {
      "midi": 60,
      "hit": false,
      "t": 144821.80287500005,
      "d": 137.9310000000114,
      "v": 127
    },
    {
      "midi": 64,
      "hit": false,
      "t": 144821.80287500005,
      "d": 137.9310000000114,
      "v": 127
    },
    {
      "midi": 43,
      "hit": false,
      "t": 145522.95212500007,
      "d": 1114.9422500000219,
      "v": 127
    },
    {
      "midi": 55,
      "hit": false,
      "t": 146201.11287500008,
      "d": 149.42525000000023,
      "v": 127
    },
    {
      "midi": 60,
      "hit": false,
      "t": 146201.11287500008,
      "d": 149.42525000000023,
      "v": 127
    },
    {
      "midi": 64,
      "hit": false,
      "t": 146201.11287500008,
      "d": 149.42525000000023,
      "v": 127
    },
    {
      "midi": 48,
      "hit": false,
      "t": 146936.7448750001,
      "d": 1660.919125000015,
      "v": 127
    },
    {
      "midi": 55,
      "hit": false,
      "t": 147580.4228750001,
      "d": 362.0688749999972,
      "v": 127
    },
    {
      "midi": 60,
      "hit": false,
      "t": 147580.4228750001,
      "d": 362.0688749999972,
      "v": 127
    },
    {
      "midi": 64,
      "hit": false,
      "t": 147580.4228750001,
      "d": 362.0688749999972,
      "v": 127
    },
    {
      "midi": 55,
      "hit": false,
      "t": 148063.1813750001,
      "d": 218.39074999999139,
      "v": 127
    },
    {
      "midi": 60,
      "hit": false,
      "t": 148063.1813750001,
      "d": 218.39074999999139,
      "v": 127
    },
    {
      "midi": 64,
      "hit": false,
      "t": 148063.1813750001,
      "d": 218.39074999999139,
      "v": 127
    },
    {
      "midi": 55,
      "hit": false,
      "t": 148752.8363750001,
      "d": 126.43674999999348,
      "v": 127
    },
    {
      "midi": 48,
      "hit": false,
      "t": 148959.7328750001,
      "d": 528.7354999999807,
      "v": 127
    },
    {
      "midi": 52,
      "hit": false,
      "t": 149183.8707500001,
      "d": 356.3217500000028,
      "v": 127
    },
    {
      "midi": 55,
      "hit": false,
      "t": 149430.99712500008,
      "d": 183.9079999999958,
      "v": 127
    },
    {
      "midi": 43,
      "hit": false,
      "t": 149678.12350000007,
      "d": 2517.240749999968,
      "v": 127
    },
    {
      "midi": 71,
      "hit": false,
      "t": 150109.15787500006,
      "d": 275.8619999999937,
      "v": 127
    },
    {
      "midi": 67,
      "hit": false,
      "t": 150385.01987500006,
      "d": 454.0228749999951,
      "v": 127
    },
    {
      "midi": 62,
      "hit": false,
      "t": 150798.81287500006,
      "d": 1339.0801249999786,
      "v": 127
    },
    {
      "midi": 67,
      "hit": false,
      "t": 151948.23787500005,
      "d": 229.8849999999802,
      "v": 127
    },
    {
      "midi": 71,
      "hit": false,
      "t": 152178.12287500003,
      "d": 97.70112500002142,
      "v": 127
    },
    {
      "midi": 52,
      "hit": false,
      "t": 152425.24925000005,
      "d": 2505.7464999999793,
      "v": 127
    },
    {
      "midi": 71,
      "hit": false,
      "t": 152430.99637500005,
      "d": 1367.8157499999797,
      "v": 120
    },
    {
      "midi": 64,
      "hit": false,
      "t": 152436.74350000004,
      "d": 1362.0686249999853,
      "v": 127
    },
    {
      "midi": 59,
      "hit": false,
      "t": 153545.93862500004,
      "d": 367.8159999999916,
      "v": 127
    },
    {
      "midi": 66,
      "hit": false,
      "t": 153798.81212500003,
      "d": 114.94250000000466,
      "v": 127
    },
    {
      "midi": 71,
      "hit": false,
      "t": 153798.81212500003,
      "d": 436.7815000000119,
      "v": 127
    },
    {
      "midi": 68,
      "hit": false,
      "t": 153913.75462500003,
      "d": 321.8390000000072,
      "v": 127
    },
    {
      "midi": 66,
      "hit": false,
      "t": 154235.59362500004,
      "d": 252.87349999998696,
      "v": 127
    },
    {
      "midi": 71,
      "hit": false,
      "t": 154235.59362500004,
      "d": 459.7699999999895,
      "v": 127
    },
    {
      "midi": 64,
      "hit": false,
      "t": 154488.46712500002,
      "d": 471.26425000000745,
      "v": 127
    },
    {
      "midi": 61,
      "hit": false,
      "t": 154959.73137500003,
      "d": 172.41375000000698,
      "v": 127
    },
    {
      "midi": 57,
      "hit": false,
      "t": 155166.62787500003,
      "d": 477.01137500003097,
      "v": 127
    },
    {
      "midi": 60,
      "hit": false,
      "t": 155166.62787500003,
      "d": 477.01137500003097,
      "v": 127
    },
    {
      "midi": 64,
      "hit": false,
      "t": 155166.62787500003,
      "d": 477.01137500003097,
      "v": 127
    },
    {
      "midi": 45,
      "hit": false,
      "t": 155183.86925000005,
      "d": 316.0918750000128,
      "v": 127
    },
    {
      "midi": 45,
      "hit": false,
      "t": 155626.39787500005,
      "d": 241.37924999999814,
      "v": 127
    },
    {
      "midi": 57,
      "hit": false,
      "t": 155873.52425000005,
      "d": 252.87349999998696,
      "v": 127
    },
    {
      "midi": 60,
      "hit": false,
      "t": 155873.52425000005,
      "d": 252.87349999998696,
      "v": 127
    },
    {
      "midi": 64,
      "hit": false,
      "t": 155873.52425000005,
      "d": 252.87349999998696,
      "v": 127
    },
    {
      "midi": 60,
      "hit": false,
      "t": 156545.93787500003,
      "d": 977.0112500000105,
      "v": 127
    },
    {
      "midi": 64,
      "hit": false,
      "t": 156545.93787500003,
      "d": 977.0112500000105,
      "v": 127
    },
    {
      "midi": 43,
      "hit": false,
      "t": 156591.91487500005,
      "d": 1258.6203749999986,
      "v": 127
    },
    {
      "midi": 57,
      "hit": false,
      "t": 157465.47787500004,
      "d": 57.47125000000233,
      "v": 127
    },
    {
      "midi": 57,
      "hit": false,
      "t": 157695.36287500005,
      "d": 166.66662499998347,
      "v": 127
    },
    {
      "midi": 50,
      "hit": false,
      "t": 157942.48925000004,
      "d": 2505.7464999999793,
      "v": 127
    },
    {
      "midi": 69,
      "hit": false,
      "t": 157948.23637500004,
      "d": 1367.8157499999797,
      "v": 120
    },
    {
      "midi": 62,
      "hit": false,
      "t": 157953.98350000003,
      "d": 1362.0686249999853,
      "v": 127
    },
    {
      "midi": 57,
      "hit": false,
      "t": 159063.17862500003,
      "d": 367.8159999999916,
      "v": 127
    },
    {
      "midi": 64,
      "hit": false,
      "t": 159316.05212500002,
      "d": 114.94250000000466,
      "v": 127
    },
    {
      "midi": 69,
      "hit": false,
      "t": 159316.05212500002,
      "d": 436.7815000000119,
      "v": 127
    },
    {
      "midi": 66,
      "hit": false,
      "t": 159430.99462500002,
      "d": 321.8390000000072,
      "v": 127
    },
    {
      "midi": 64,
      "hit": false,
      "t": 159752.83362500003,
      "d": 252.87349999998696,
      "v": 127
    },
    {
      "midi": 69,
      "hit": false,
      "t": 159752.83362500003,
      "d": 459.7699999999895,
      "v": 127
    },
    {
      "midi": 62,
      "hit": false,
      "t": 160005.70712500002,
      "d": 471.26425000000745,
      "v": 127
    },
    {
      "midi": 59,
      "hit": false,
      "t": 160476.97137500002,
      "d": 172.41375000000698,
      "v": 127
    },
    {
      "midi": 62,
      "hit": false,
      "t": 160683.86787500003,
      "d": 1839.0800000000163,
      "v": 127
    },
    {
      "midi": 43,
      "hit": false,
      "t": 160701.10925000004,
      "d": 1362.0686250000144,
      "v": 127
    },
    {
      "midi": 67,
      "hit": false,
      "t": 161143.63787500004,
      "d": 1109.1951249999984,
      "v": 127
    },
    {
      "midi": 71,
      "hit": false,
      "t": 161833.29287500004,
      "d": 419.54012499999953,
      "v": 127
    },
    {
      "midi": 43,
      "hit": false,
      "t": 162522.94787500004,
      "d": 206.89650000000256,
      "v": 127
    },
    {
      "midi": 55,
      "hit": false,
      "t": 162752.83287500005,
      "d": 160.91949999998906,
      "v": 127
    },
    {
      "midi": 59,
      "hit": false,
      "t": 162752.83287500005,
      "d": 160.91949999998906,
      "v": 127
    },
    {
      "midi": 62,
      "hit": false,
      "t": 162752.83287500005,
      "d": 160.91949999998906,
      "v": 127
    },
    {
      "midi": 56,
      "hit": false,
      "t": 163442.48787500005,
      "d": 1839.0800000000163,
      "v": 127
    },
    {
      "midi": 59,
      "hit": false,
      "t": 163442.48787500005,
      "d": 1839.0800000000163,
      "v": 127
    },
    {
      "midi": 64,
      "hit": false,
      "t": 163442.48787500005,
      "d": 1839.0800000000163,
      "v": 127
    },
    {
      "midi": 52,
      "hit": false,
      "t": 163471.22350000005,
      "d": 1603.4478750000126,
      "v": 127
    },
    {
      "midi": 52,
      "hit": false,
      "t": 165281.56787500007,
      "d": 235.63212500000373,
      "v": 127
    },
    {
      "midi": 56,
      "hit": false,
      "t": 165517.20000000007,
      "d": 356.3217500000028,
      "v": 127
    },
    {
      "midi": 59,
      "hit": false,
      "t": 165517.20000000007,
      "d": 356.3217500000028,
      "v": 127
    },
    {
      "midi": 64,
      "hit": false,
      "t": 165517.20000000007,
      "d": 356.3217500000028,
      "v": 127
    },
    {
      "midi": 60,
      "hit": false,
      "t": 166201.10787500007,
      "d": 977.0112500000105,
      "v": 127
    },
    {
      "midi": 64,
      "hit": false,
      "t": 166201.10787500007,
      "d": 977.0112500000105,
      "v": 127
    },
    {
      "midi": 45,
      "hit": false,
      "t": 166247.0848750001,
      "d": 1258.6203749999986,
      "v": 127
    },
    {
      "midi": 57,
      "hit": false,
      "t": 167120.64787500008,
      "d": 57.47125000000233,
      "v": 127
    },
    {
      "midi": 57,
      "hit": false,
      "t": 167350.5328750001,
      "d": 166.66662499998347,
      "v": 127
    },
    {
      "midi": 57,
      "hit": false,
      "t": 167580.41787500007,
      "d": 477.01137500003097,
      "v": 127
    },
    {
      "midi": 60,
      "hit": false,
      "t": 167580.41787500007,
      "d": 477.01137500003097,
      "v": 127
    },
    {
      "midi": 64,
      "hit": false,
      "t": 167580.41787500007,
      "d": 477.01137500003097,
      "v": 127
    },
    {
      "midi": 43,
      "hit": false,
      "t": 167597.65925000008,
      "d": 316.0918750000128,
      "v": 127
    },
    {
      "midi": 43,
      "hit": false,
      "t": 168040.1878750001,
      "d": 241.37924999999814,
      "v": 127
    },
    {
      "midi": 57,
      "hit": false,
      "t": 168287.31425000008,
      "d": 252.87349999998696,
      "v": 127
    },
    {
      "midi": 60,
      "hit": false,
      "t": 168287.31425000008,
      "d": 252.87349999998696,
      "v": 127
    },
    {
      "midi": 64,
      "hit": false,
      "t": 168287.31425000008,
      "d": 252.87349999998696,
      "v": 127
    },
    {
      "midi": 50,
      "hit": false,
      "t": 168976.96925000008,
      "d": 2505.7464999999793,
      "v": 127
    },
    {
      "midi": 69,
      "hit": false,
      "t": 168982.71637500008,
      "d": 1367.8157499999797,
      "v": 120
    },
    {
      "midi": 62,
      "hit": false,
      "t": 168988.46350000007,
      "d": 1362.0686249999853,
      "v": 127
    },
    {
      "midi": 57,
      "hit": false,
      "t": 170097.65862500007,
      "d": 367.8159999999916,
      "v": 127
    },
    {
      "midi": 64,
      "hit": false,
      "t": 170350.53212500006,
      "d": 114.94250000000466,
      "v": 127
    },
    {
      "midi": 69,
      "hit": false,
      "t": 170350.53212500006,
      "d": 436.7815000000119,
      "v": 127
    },
    {
      "midi": 66,
      "hit": false,
      "t": 170465.47462500006,
      "d": 321.8390000000072,
      "v": 127
    },
    {
      "midi": 64,
      "hit": false,
      "t": 170787.31362500007,
      "d": 252.87349999998696,
      "v": 127
    },
    {
      "midi": 69,
      "hit": false,
      "t": 170787.31362500007,
      "d": 459.7699999999895,
      "v": 127
    },
    {
      "midi": 62,
      "hit": false,
      "t": 171040.18712500005,
      "d": 471.26425000000745,
      "v": 127
    },
    {
      "midi": 59,
      "hit": false,
      "t": 171511.45137500006,
      "d": 172.41375000000698,
      "v": 127
    },
    {
      "midi": 57,
      "hit": false,
      "t": 171718.34787500006,
      "d": 1839.0800000000163,
      "v": 127
    },
    {
      "midi": 60,
      "hit": false,
      "t": 171718.34787500006,
      "d": 1839.0800000000163,
      "v": 127
    },
    {
      "midi": 65,
      "hit": false,
      "t": 171718.34787500006,
      "d": 1839.0800000000163,
      "v": 127
    },
    {
      "midi": 53,
      "hit": false,
      "t": 171747.08350000007,
      "d": 1603.4478750000126,
      "v": 127
    },
    {
      "midi": 53,
      "hit": false,
      "t": 173557.42787500008,
      "d": 235.63212500000373,
      "v": 127
    },
    {
      "midi": 57,
      "hit": false,
      "t": 173793.06000000008,
      "d": 356.3217500000028,
      "v": 127
    },
    {
      "midi": 60,
      "hit": false,
      "t": 173793.06000000008,
      "d": 356.3217500000028,
      "v": 127
    },
    {
      "midi": 65,
      "hit": false,
      "t": 173793.06000000008,
      "d": 356.3217500000028,
      "v": 127
    },
    {
      "midi": 62,
      "hit": false,
      "t": 174476.9678750001,
      "d": 1839.0800000000163,
      "v": 127
    },
    {
      "midi": 43,
      "hit": false,
      "t": 174494.2092500001,
      "d": 1362.0686250000144,
      "v": 127
    },
    {
      "midi": 67,
      "hit": false,
      "t": 174936.7378750001,
      "d": 1109.1951249999984,
      "v": 127
    },
    {
      "midi": 71,
      "hit": false,
      "t": 175626.3928750001,
      "d": 419.54012499999953,
      "v": 127
    },
    {
      "midi": 43,
      "hit": false,
      "t": 176316.0478750001,
      "d": 206.89650000000256,
      "v": 127
    },
    {
      "midi": 55,
      "hit": false,
      "t": 176545.93287500012,
      "d": 160.91949999998906,
      "v": 127
    },
    {
      "midi": 59,
      "hit": false,
      "t": 176545.93287500012,
      "d": 160.91949999998906,
      "v": 127
    },
    {
      "midi": 62,
      "hit": false,
      "t": 176545.93287500012,
      "d": 160.91949999998906,
      "v": 127
    },
    {
      "midi": 60,
      "hit": false,
      "t": 177235.5878750001,
      "d": 977.0112500000105,
      "v": 127
    },
    {
      "midi": 64,
      "hit": false,
      "t": 177235.5878750001,
      "d": 977.0112500000105,
      "v": 127
    },
    {
      "midi": 45,
      "hit": false,
      "t": 177281.56487500013,
      "d": 1258.6203749999986,
      "v": 127
    },
    {
      "midi": 57,
      "hit": false,
      "t": 178155.12787500012,
      "d": 57.47125000000233,
      "v": 127
    },
    {
      "midi": 57,
      "hit": false,
      "t": 178385.01287500013,
      "d": 166.66662499998347,
      "v": 127
    },
    {
      "midi": 57,
      "hit": false,
      "t": 178614.8978750001,
      "d": 477.01137500003097,
      "v": 127
    },
    {
      "midi": 60,
      "hit": false,
      "t": 178614.8978750001,
      "d": 477.01137500003097,
      "v": 127
    },
    {
      "midi": 64,
      "hit": false,
      "t": 178614.8978750001,
      "d": 477.01137500003097,
      "v": 127
    },
    {
      "midi": 43,
      "hit": false,
      "t": 178632.13925000012,
      "d": 316.0918750000128,
      "v": 127
    },
    {
      "midi": 43,
      "hit": false,
      "t": 179074.66787500013,
      "d": 241.37924999999814,
      "v": 127
    },
    {
      "midi": 57,
      "hit": false,
      "t": 179321.79425000012,
      "d": 252.87349999998696,
      "v": 127
    },
    {
      "midi": 60,
      "hit": false,
      "t": 179321.79425000012,
      "d": 252.87349999998696,
      "v": 127
    },
    {
      "midi": 64,
      "hit": false,
      "t": 179321.79425000012,
      "d": 252.87349999998696,
      "v": 127
    },
    {
      "midi": 57,
      "hit": false,
      "t": 179994.2078750001,
      "d": 477.01137500003097,
      "v": 127
    },
    {
      "midi": 62,
      "hit": false,
      "t": 179994.2078750001,
      "d": 477.01137500003097,
      "v": 127
    },
    {
      "midi": 66,
      "hit": false,
      "t": 179994.2078750001,
      "d": 477.01137500003097,
      "v": 127
    },
    {
      "midi": 50,
      "hit": false,
      "t": 180011.44925000012,
      "d": 442.5286250000063,
      "v": 127
    },
    {
      "midi": 50,
      "hit": false,
      "t": 180471.21925000014,
      "d": 298.85050000000047,
      "v": 127
    },
    {
      "midi": 57,
      "hit": false,
      "t": 180476.96637500013,
      "d": 258.6206250000105,
      "v": 127
    },
    {
      "midi": 62,
      "hit": false,
      "t": 180476.96637500013,
      "d": 258.6206250000105,
      "v": 127
    },
    {
      "midi": 66,
      "hit": false,
      "t": 180476.96637500013,
      "d": 258.6206250000105,
      "v": 127
    },
    {
      "midi": 50,
      "hit": false,
      "t": 181143.63287500013,
      "d": 1132.1836250000051,
      "v": 127
    },
    {
      "midi": 57,
      "hit": false,
      "t": 181195.35700000013,
      "d": 1310.3445000000065,
      "v": 127
    },
    {
      "midi": 62,
      "hit": false,
      "t": 181195.35700000013,
      "d": 1310.3445000000065,
      "v": 127
    },
    {
      "midi": 66,
      "hit": false,
      "t": 181195.35700000013,
      "d": 1310.3445000000065,
      "v": 127
    },
    {
      "midi": 50,
      "hit": false,
      "t": 182522.94287500015,
      "d": 137.9310000000114,
      "v": 127
    },
    {
      "midi": 60,
      "hit": false,
      "t": 182752.82787500016,
      "d": 1839.0800000000163,
      "v": 127
    },
    {
      "midi": 41,
      "hit": false,
      "t": 182770.06925000018,
      "d": 1362.0686250000144,
      "v": 127
    },
    {
      "midi": 65,
      "hit": false,
      "t": 183212.59787500018,
      "d": 1109.1951249999984,
      "v": 127
    },
    {
      "midi": 69,
      "hit": false,
      "t": 183902.25287500018,
      "d": 419.54012499999953,
      "v": 127
    },
    {
      "midi": 41,
      "hit": false,
      "t": 184591.90787500018,
      "d": 206.89650000000256,
      "v": 127
    },
    {
      "midi": 57,
      "hit": false,
      "t": 184821.7928750002,
      "d": 160.91949999998906,
      "v": 127
    },
    {
      "midi": 60,
      "hit": false,
      "t": 184821.7928750002,
      "d": 160.91949999998906,
      "v": 127
    },
    {
      "midi": 65,
      "hit": false,
      "t": 184821.7928750002,
      "d": 160.91949999998906,
      "v": 127
    },
    {
      "midi": 55,
      "hit": false,
      "t": 185511.4478750002,
      "d": 2643.6774999999907,
      "v": 127
    },
    {
      "midi": 59,
      "hit": false,
      "t": 185511.4478750002,
      "d": 2643.6774999999907,
      "v": 127
    },
    {
      "midi": 62,
      "hit": false,
      "t": 185511.4478750002,
      "d": 2643.6774999999907,
      "v": 127
    },
    {
      "midi": 43,
      "hit": false,
      "t": 185540.1835000002,
      "d": 2643.6774999999907,
      "v": 127
    },
    {
      "midi": 55,
      "hit": false,
      "t": 188270.06787500018,
      "d": 1839.0800000000163,
      "v": 127
    },
    {
      "midi": 60,
      "hit": false,
      "t": 188270.06787500018,
      "d": 1839.0800000000163,
      "v": 127
    },
    {
      "midi": 64,
      "hit": false,
      "t": 188270.06787500018,
      "d": 1839.0800000000163,
      "v": 127
    },
    {
      "midi": 48,
      "hit": false,
      "t": 188298.80350000018,
      "d": 1603.4478750000126,
      "v": 127
    },
    {
      "midi": 48,
      "hit": false,
      "t": 190109.1478750002,
      "d": 235.63212500000373,
      "v": 127
    },
    {
      "midi": 55,
      "hit": false,
      "t": 190344.7800000002,
      "d": 356.3217500000028,
      "v": 127
    },
    {
      "midi": 60,
      "hit": false,
      "t": 190344.7800000002,
      "d": 356.3217500000028,
      "v": 127
    },
    {
      "midi": 64,
      "hit": false,
      "t": 190344.7800000002,
      "d": 356.3217500000028,
      "v": 127
    },
    {
      "midi": 55,
      "hit": false,
      "t": 191028.6878750002,
      "d": 2649.424625000014,
      "v": 127
    },
    {
      "midi": 60,
      "hit": false,
      "t": 191028.6878750002,
      "d": 2649.424625000014,
      "v": 127
    },
    {
      "midi": 64,
      "hit": false,
      "t": 191028.6878750002,
      "d": 2649.424625000014,
      "v": 127
    },
    {
      "midi": 48,
      "hit": false,
      "t": 191028.6878750002,
      "d": 2660.918875000003,
      "v": 127
    },
    {
      "midi": 55,
      "hit": false,
      "t": 193787.3078750002,
      "d": 195.40225000001374,
      "v": 127
    },
    {
      "midi": 60,
      "hit": false,
      "t": 193787.3078750002,
      "d": 195.40225000001374,
      "v": 127
    },
    {
      "midi": 64,
      "hit": false,
      "t": 193787.3078750002,
      "d": 195.40225000001374,
      "v": 127
    },
    {
      "midi": 36,
      "hit": false,
      "t": 194247.07787500022,
      "d": 120.68962499999907,
      "v": 127
    },
    {
      "midi": 43,
      "hit": false,
      "t": 194476.96287500023,
      "d": 183.9079999999958,
      "v": 127
    },
    {
      "midi": 48,
      "hit": false,
      "t": 195166.61787500023,
      "d": 557.4711249999818,
      "v": 127
    },
    {
      "midi": 36,
      "hit": false,
      "t": 195178.11212500022,
      "d": 517.2412499999919,
      "v": 127
    },
    {
      "midi": 55,
      "hit": false,
      "t": 195189.6063750002,
      "d": 586.2067500000121,
      "v": 127
    },
    {
      "midi": 60,
      "hit": false,
      "t": 195189.6063750002,
      "d": 586.2067500000121,
      "v": 127
    },
    {
      "midi": 64,
      "hit": false,
      "t": 195189.6063750002,
      "d": 586.2067500000121,
      "v": 127
    }
  ]
}