{
  "jsonPath": "Animes/Kanon MIDI Collection/2-steps-toward.json",
  "path": "Animes\\Kanon MIDI Collection\\2- Steps Toward.mid",
  "name": "2- Steps Toward",
  "difficulty": "Advanced",
  "bpm": 72.00002880001152,
  "notes": [
    {
      "midi": 47,
      "hit": false,
      "t": 0,
      "d": 294.1175,
      "v": 80
    },
    {
      "midi": 54,
      "hit": false,
      "t": 294.1175,
      "d": 294.1175,
      "v": 80
    },
    {
      "midi": 61,
      "hit": false,
      "t": 588.235,
      "d": 294.11749999999995,
      "v": 80
    },
    {
      "midi": 63,
      "hit": false,
      "t": 882.3525,
      "d": 1470.5875,
      "v": 80
    },
    {
      "midi": 71,
      "hit": false,
      "t": 1470.5875,
      "d": 588.2350000000001,
      "v": 98
    },
    {
      "midi": 78,
      "hit": false,
      "t": 1470.5875,
      "d": 588.2350000000001,
      "v": 98
    },
    {
      "midi": 75,
      "hit": false,
      "t": 1470.5875,
      "d": 588.2350000000001,
      "v": 98
    },
    {
      "midi": 71,
      "hit": false,
      "t": 2058.8225,
      "d": 294.11749999999984,
      "v": 98
    },
    {
      "midi": 78,
      "hit": false,
      "t": 2058.8225,
      "d": 294.11749999999984,
      "v": 98
    },
    {
      "midi": 75,
      "hit": false,
      "t": 2058.8225,
      "d": 294.11749999999984,
      "v": 98
    },
    {
      "midi": 46,
      "hit": false,
      "t": 2352.94,
      "d": 294.11749999999984,
      "v": 80
    },
    {
      "midi": 54,
      "hit": false,
      "t": 2647.0575,
      "d": 294.11749999999984,
      "v": 80
    },
    {
      "midi": 58,
      "hit": false,
      "t": 2941.1749999999997,
      "d": 294.11749999999984,
      "v": 80
    },
    {
      "midi": 61,
      "hit": false,
      "t": 3235.2924999999996,
      "d": 1470.5874999999996,
      "v": 80
    },
    {
      "midi": 71,
      "hit": false,
      "t": 3823.5275,
      "d": 588.2349999999997,
      "v": 98
    },
    {
      "midi": 80,
      "hit": false,
      "t": 3823.5275,
      "d": 588.2349999999997,
      "v": 98
    },
    {
      "midi": 75,
      "hit": false,
      "t": 3823.5275,
      "d": 588.2349999999997,
      "v": 98
    },
    {
      "midi": 70,
      "hit": false,
      "t": 4411.7625,
      "d": 294.1175000000003,
      "v": 98
    },
    {
      "midi": 78,
      "hit": false,
      "t": 4411.7625,
      "d": 294.1175000000003,
      "v": 98
    },
    {
      "midi": 73,
      "hit": false,
      "t": 4411.7625,
      "d": 294.1175000000003,
      "v": 98
    },
    {
      "midi": 44,
      "hit": false,
      "t": 4705.879999999999,
      "d": 294.1175000000003,
      "v": 80
    },
    {
      "midi": 51,
      "hit": false,
      "t": 4999.9974999999995,
      "d": 294.1175000000003,
      "v": 80
    },
    {
      "midi": 58,
      "hit": false,
      "t": 5294.115,
      "d": 294.1175000000003,
      "v": 80
    },
    {
      "midi": 59,
      "hit": false,
      "t": 5588.2325,
      "d": 1470.5874999999996,
      "v": 80
    },
    {
      "midi": 71,
      "hit": false,
      "t": 6176.467500000001,
      "d": 588.2349999999997,
      "v": 98
    },
    {
      "midi": 78,
      "hit": false,
      "t": 6176.467500000001,
      "d": 588.2349999999997,
      "v": 98
    },
    {
      "midi": 75,
      "hit": false,
      "t": 6176.467500000001,
      "d": 588.2349999999997,
      "v": 98
    },
    {
      "midi": 71,
      "hit": false,
      "t": 6764.7025,
      "d": 294.1175000000003,
      "v": 98
    },
    {
      "midi": 78,
      "hit": false,
      "t": 6764.7025,
      "d": 294.1175000000003,
      "v": 98
    },
    {
      "midi": 75,
      "hit": false,
      "t": 6764.7025,
      "d": 294.1175000000003,
      "v": 98
    },
    {
      "midi": 40,
      "hit": false,
      "t": 7058.82,
      "d": 294.1175000000003,
      "v": 80
    },
    {
      "midi": 47,
      "hit": false,
      "t": 7352.9375,
      "d": 294.1175000000003,
      "v": 80
    },
    {
      "midi": 54,
      "hit": false,
      "t": 7647.055,
      "d": 294.1175000000003,
      "v": 80
    },
    {
      "midi": 56,
      "hit": false,
      "t": 7941.172500000001,
      "d": 588.2350000000006,
      "v": 80
    },
    {
      "midi": 71,
      "hit": false,
      "t": 8529.407500000001,
      "d": 588.2350000000006,
      "v": 98
    },
    {
      "midi": 80,
      "hit": false,
      "t": 8529.407500000001,
      "d": 588.2350000000006,
      "v": 98
    },
    {
      "midi": 75,
      "hit": false,
      "t": 8529.407500000001,
      "d": 588.2350000000006,
      "v": 98
    },
    {
      "midi": 59,
      "hit": false,
      "t": 8529.407500000001,
      "d": 294.1175000000003,
      "v": 80
    },
    {
      "midi": 56,
      "hit": false,
      "t": 8823.525000000001,
      "d": 294.1175000000003,
      "v": 80
    },
    {
      "midi": 70,
      "hit": false,
      "t": 9117.642500000002,
      "d": 294.1175000000003,
      "v": 98
    },
    {
      "midi": 78,
      "hit": false,
      "t": 9117.642500000002,
      "d": 294.1175000000003,
      "v": 98
    },
    {
      "midi": 73,
      "hit": false,
      "t": 9117.642500000002,
      "d": 294.1175000000003,
      "v": 98
    },
    {
      "midi": 54,
      "hit": false,
      "t": 9117.642500000002,
      "d": 294.1175000000003,
      "v": 80
    },
    {
      "midi": 47,
      "hit": false,
      "t": 9411.760000000002,
      "d": 294.1175000000003,
      "v": 80
    },
    {
      "midi": 54,
      "hit": false,
      "t": 9705.877500000002,
      "d": 294.1175000000003,
      "v": 80
    },
    {
      "midi": 61,
      "hit": false,
      "t": 9999.995000000003,
      "d": 294.1175000000003,
      "v": 80
    },
    {
      "midi": 63,
      "hit": false,
      "t": 10294.112500000003,
      "d": 1470.5874999999996,
      "v": 80
    },
    {
      "midi": 71,
      "hit": false,
      "t": 10882.347500000002,
      "d": 588.2350000000006,
      "v": 98
    },
    {
      "midi": 78,
      "hit": false,
      "t": 10882.347500000002,
      "d": 588.2350000000006,
      "v": 98
    },
    {
      "midi": 75,
      "hit": false,
      "t": 10882.347500000002,
      "d": 588.2350000000006,
      "v": 98
    },
    {
      "midi": 71,
      "hit": false,
      "t": 11470.582500000002,
      "d": 294.1175000000003,
      "v": 98
    },
    {
      "midi": 78,
      "hit": false,
      "t": 11470.582500000002,
      "d": 294.1175000000003,
      "v": 98
    },
    {
      "midi": 75,
      "hit": false,
      "t": 11470.582500000002,
      "d": 294.1175000000003,
      "v": 98
    },
    {
      "midi": 46,
      "hit": false,
      "t": 11764.700000000003,
      "d": 294.1175000000003,
      "v": 80
    },
    {
      "midi": 54,
      "hit": false,
      "t": 12058.817500000003,
      "d": 294.1175000000003,
      "v": 80
    },
    {
      "midi": 58,
      "hit": false,
      "t": 12352.935000000003,
      "d": 294.1175000000003,
      "v": 80
    },
    {
      "midi": 61,
      "hit": false,
      "t": 12647.052500000003,
      "d": 294.1175000000003,
      "v": 80
    },
    {
      "midi": 44,
      "hit": false,
      "t": 12941.170000000004,
      "d": 294.1175000000003,
      "v": 80
    },
    {
      "midi": 71,
      "hit": false,
      "t": 13235.287500000002,
      "d": 588.2350000000006,
      "v": 98
    },
    {
      "midi": 80,
      "hit": false,
      "t": 13235.287500000002,
      "d": 588.2350000000006,
      "v": 98
    },
    {
      "midi": 75,
      "hit": false,
      "t": 13235.287500000002,
      "d": 588.2350000000006,
      "v": 98
    },
    {
      "midi": 51,
      "hit": false,
      "t": 13235.287500000004,
      "d": 294.1175000000003,
      "v": 80
    },
    {
      "midi": 56,
      "hit": false,
      "t": 13529.405000000004,
      "d": 294.1175000000003,
      "v": 80
    },
    {
      "midi": 70,
      "hit": false,
      "t": 13823.522500000003,
      "d": 294.1175000000003,
      "v": 98
    },
    {
      "midi": 78,
      "hit": false,
      "t": 13823.522500000003,
      "d": 294.1175000000003,
      "v": 98
    },
    {
      "midi": 73,
      "hit": false,
      "t": 13823.522500000003,
      "d": 294.1175000000003,
      "v": 98
    },
    {
      "midi": 59,
      "hit": false,
      "t": 13823.522500000005,
      "d": 294.1175000000003,
      "v": 80
    },
    {
      "midi": 40,
      "hit": false,
      "t": 14117.640000000005,
      "d": 294.1175000000003,
      "v": 80
    },
    {
      "midi": 47,
      "hit": false,
      "t": 14411.757500000005,
      "d": 294.1175000000003,
      "v": 80
    },
    {
      "midi": 54,
      "hit": false,
      "t": 14705.875000000005,
      "d": 294.1175000000003,
      "v": 80
    },
    {
      "midi": 56,
      "hit": false,
      "t": 14999.992500000006,
      "d": 588.2350000000006,
      "v": 80
    },
    {
      "midi": 71,
      "hit": false,
      "t": 15588.227500000003,
      "d": 588.2350000000006,
      "v": 98
    },
    {
      "midi": 78,
      "hit": false,
      "t": 15588.227500000003,
      "d": 588.2350000000006,
      "v": 98
    },
    {
      "midi": 75,
      "hit": false,
      "t": 15588.227500000003,
      "d": 588.2350000000006,
      "v": 98
    },
    {
      "midi": 52,
      "hit": false,
      "t": 15588.227500000006,
      "d": 294.1175000000003,
      "v": 80
    },
    {
      "midi": 56,
      "hit": false,
      "t": 15882.345000000007,
      "d": 294.1175000000003,
      "v": 80
    },
    {
      "midi": 71,
      "hit": false,
      "t": 16176.462500000003,
      "d": 294.1174999999985,
      "v": 98
    },
    {
      "midi": 78,
      "hit": false,
      "t": 16176.462500000003,
      "d": 294.1174999999985,
      "v": 98
    },
    {
      "midi": 75,
      "hit": false,
      "t": 16176.462500000003,
      "d": 294.1174999999985,
      "v": 98
    },
    {
      "midi": 59,
      "hit": false,
      "t": 16176.462500000007,
      "d": 294.1174999999985,
      "v": 80
    },
    {
      "midi": 42,
      "hit": false,
      "t": 16470.580000000005,
      "d": 294.1175000000003,
      "v": 80
    },
    {
      "midi": 49,
      "hit": false,
      "t": 16764.697500000006,
      "d": 294.1175000000003,
      "v": 80
    },
    {
      "midi": 54,
      "hit": false,
      "t": 17058.815000000006,
      "d": 294.1175000000003,
      "v": 80
    },
    {
      "midi": 58,
      "hit": false,
      "t": 17352.932500000006,
      "d": 588.2350000000006,
      "v": 80
    },
    {
      "midi": 71,
      "hit": false,
      "t": 17941.167500000003,
      "d": 588.2350000000006,
      "v": 98
    },
    {
      "midi": 80,
      "hit": false,
      "t": 17941.167500000003,
      "d": 588.2350000000006,
      "v": 98
    },
    {
      "midi": 75,
      "hit": false,
      "t": 17941.167500000003,
      "d": 588.2350000000006,
      "v": 98
    },
    {
      "midi": 54,
      "hit": false,
      "t": 17941.167500000007,
      "d": 294.1175000000003,
      "v": 80
    },
    {
      "midi": 58,
      "hit": false,
      "t": 18235.285000000007,
      "d": 294.1175000000003,
      "v": 80
    },
    {
      "midi": 70,
      "hit": false,
      "t": 18529.402500000004,
      "d": 294.1175000000003,
      "v": 98
    },
    {
      "midi": 78,
      "hit": false,
      "t": 18529.402500000004,
      "d": 294.1175000000003,
      "v": 98
    },
    {
      "midi": 73,
      "hit": false,
      "t": 18529.402500000004,
      "d": 294.1175000000003,
      "v": 98
    },
    {
      "midi": 61,
      "hit": false,
      "t": 18529.402500000007,
      "d": 294.1175000000003,
      "v": 80
    },
    {
      "midi": 47,
      "hit": false,
      "t": 18823.520000000008,
      "d": 294.1175000000003,
      "v": 80
    },
    {
      "midi": 66,
      "hit": false,
      "t": 19117.637500000004,
      "d": 294.1175000000003,
      "v": 98
    },
    {
      "midi": 75,
      "hit": false,
      "t": 19117.637500000004,
      "d": 294.1175000000003,
      "v": 98
    },
    {
      "midi": 54,
      "hit": false,
      "t": 19117.637500000008,
      "d": 294.1175000000003,
      "v": 80
    },
    {
      "midi": 75,
      "hit": false,
      "t": 19411.755000000005,
      "d": 147.05875000000015,
      "v": 98
    },
    {
      "midi": 59,
      "hit": false,
      "t": 19411.75500000001,
      "d": 294.1175000000003,
      "v": 80
    },
    {
      "midi": 73,
      "hit": false,
      "t": 19558.813750000005,
      "d": 294.1175000000003,
      "v": 98
    },
    {
      "midi": 61,
      "hit": false,
      "t": 19705.87250000001,
      "d": 294.1175000000003,
      "v": 80
    },
    {
      "midi": 75,
      "hit": false,
      "t": 19852.931250000005,
      "d": 441.17625000000044,
      "v": 98
    },
    {
      "midi": 63,
      "hit": false,
      "t": 19999.99000000001,
      "d": 588.2350000000006,
      "v": 80
    },
    {
      "midi": 76,
      "hit": false,
      "t": 20294.107500000006,
      "d": 294.1175000000003,
      "v": 98
    },
    {
      "midi": 78,
      "hit": false,
      "t": 20588.225000000006,
      "d": 294.1175000000003,
      "v": 98
    },
    {
      "midi": 59,
      "hit": false,
      "t": 20588.22500000001,
      "d": 588.2350000000006,
      "v": 80
    },
    {
      "midi": 75,
      "hit": false,
      "t": 20882.342500000006,
      "d": 294.1175000000003,
      "v": 98
    },
    {
      "midi": 73,
      "hit": false,
      "t": 21176.460000000006,
      "d": 294.1175000000003,
      "v": 98
    },
    {
      "midi": 46,
      "hit": false,
      "t": 21176.46000000001,
      "d": 294.1175000000003,
      "v": 80
    },
    {
      "midi": 75,
      "hit": false,
      "t": 21470.577500000007,
      "d": 294.1175000000003,
      "v": 98
    },
    {
      "midi": 54,
      "hit": false,
      "t": 21470.57750000001,
      "d": 294.1175000000003,
      "v": 80
    },
    {
      "midi": 73,
      "hit": false,
      "t": 21764.695000000007,
      "d": 147.05875000000015,
      "v": 98
    },
    {
      "midi": 58,
      "hit": false,
      "t": 21764.69500000001,
      "d": 294.1175000000003,
      "v": 80
    },
    {
      "midi": 68,
      "hit": false,
      "t": 21911.753750000007,
      "d": 294.1175000000003,
      "v": 98
    },
    {
      "midi": 61,
      "hit": false,
      "t": 22058.81250000001,
      "d": 294.1175000000003,
      "v": 80
    },
    {
      "midi": 71,
      "hit": false,
      "t": 22205.871250000007,
      "d": 1323.5287500000013,
      "v": 98
    },
    {
      "midi": 44,
      "hit": false,
      "t": 22352.93000000001,
      "d": 294.1175000000003,
      "v": 80
    },
    {
      "midi": 51,
      "hit": false,
      "t": 22647.04750000001,
      "d": 294.1175000000003,
      "v": 80
    },
    {
      "midi": 56,
      "hit": false,
      "t": 22941.16500000001,
      "d": 294.1175000000003,
      "v": 80
    },
    {
      "midi": 59,
      "hit": false,
      "t": 23235.282500000012,
      "d": 294.1175000000003,
      "v": 80
    },
    {
      "midi": 40,
      "hit": false,
      "t": 23529.400000000012,
      "d": 294.1175000000003,
      "v": 80
    },
    {
      "midi": 75,
      "hit": false,
      "t": 23823.51750000001,
      "d": 294.1175000000003,
      "v": 98
    },
    {
      "midi": 47,
      "hit": false,
      "t": 23823.517500000013,
      "d": 294.1175000000003,
      "v": 80
    },
    {
      "midi": 75,
      "hit": false,
      "t": 24117.63500000001,
      "d": 147.05875000000015,
      "v": 98
    },
    {
      "midi": 54,
      "hit": false,
      "t": 24117.635000000013,
      "d": 294.1175000000003,
      "v": 80
    },
    {
      "midi": 76,
      "hit": false,
      "t": 24264.69375000001,
      "d": 294.1175000000003,
      "v": 98
    },
    {
      "midi": 56,
      "hit": false,
      "t": 24411.752500000013,
      "d": 294.1175000000003,
      "v": 80
    },
    {
      "midi": 75,
      "hit": false,
      "t": 24558.81125000001,
      "d": 441.17625000000044,
      "v": 98
    },
    {
      "midi": 59,
      "hit": false,
      "t": 24705.870000000014,
      "d": 294.1175000000003,
      "v": 80
    },
    {
      "midi": 73,
      "hit": false,
      "t": 24999.98750000001,
      "d": 294.1175000000003,
      "v": 98
    },
    {
      "midi": 56,
      "hit": false,
      "t": 24999.987500000014,
      "d": 294.1175000000003,
      "v": 80
    },
    {
      "midi": 71,
      "hit": false,
      "t": 25294.10500000001,
      "d": 294.1175000000003,
      "v": 98
    },
    {
      "midi": 52,
      "hit": false,
      "t": 25294.105000000014,
      "d": 294.1175000000003,
      "v": 80
    },
    {
      "midi": 73,
      "hit": false,
      "t": 25588.22250000001,
      "d": 294.1175000000003,
      "v": 98
    },
    {
      "midi": 56,
      "hit": false,
      "t": 25588.222500000014,
      "d": 294.1175000000003,
      "v": 80
    },
    {
      "midi": 71,
      "hit": false,
      "t": 25882.34000000001,
      "d": 588.2350000000006,
      "v": 98
    },
    {
      "midi": 42,
      "hit": false,
      "t": 25882.340000000015,
      "d": 294.1175000000003,
      "v": 80
    },
    {
      "midi": 49,
      "hit": false,
      "t": 26176.457500000015,
      "d": 294.1175000000003,
      "v": 80
    },
    {
      "midi": 70,
      "hit": false,
      "t": 26470.57500000001,
      "d": 588.2350000000006,
      "v": 98
    },
    {
      "midi": 54,
      "hit": false,
      "t": 26470.575000000015,
      "d": 294.1175000000003,
      "v": 80
    },
    {
      "midi": 58,
      "hit": false,
      "t": 26764.692500000016,
      "d": 294.1175000000003,
      "v": 80
    },
    {
      "midi": 68,
      "hit": false,
      "t": 27058.810000000012,
      "d": 588.2350000000006,
      "v": 98
    },
    {
      "midi": 61,
      "hit": false,
      "t": 27058.810000000016,
      "d": 294.1175000000003,
      "v": 80
    },
    {
      "midi": 58,
      "hit": false,
      "t": 27352.927500000016,
      "d": 294.1175000000003,
      "v": 80
    },
    {
      "midi": 70,
      "hit": false,
      "t": 27647.045000000013,
      "d": 588.2350000000006,
      "v": 98
    },
    {
      "midi": 54,
      "hit": false,
      "t": 27647.045000000016,
      "d": 294.1175000000003,
      "v": 80
    },
    {
      "midi": 49,
      "hit": false,
      "t": 27941.162500000017,
      "d": 294.1175000000003,
      "v": 80
    },
    {
      "midi": 47,
      "hit": false,
      "t": 28235.280000000017,
      "d": 294.1175000000003,
      "v": 80
    },
    {
      "midi": 66,
      "hit": false,
      "t": 28529.397500000014,
      "d": 294.1175000000003,
      "v": 98
    },
    {
      "midi": 75,
      "hit": false,
      "t": 28529.397500000014,
      "d": 294.1175000000003,
      "v": 98
    },
    {
      "midi": 54,
      "hit": false,
      "t": 28529.397500000017,
      "d": 294.1175000000003,
      "v": 80
    },
    {
      "midi": 75,
      "hit": false,
      "t": 28823.515000000014,
      "d": 147.05875000000015,
      "v": 98
    },
    {
      "midi": 59,
      "hit": false,
      "t": 28823.515000000018,
      "d": 294.1175000000003,
      "v": 80
    },
    {
      "midi": 73,
      "hit": false,
      "t": 28970.573750000014,
      "d": 294.1175000000003,
      "v": 98
    },
    {
      "midi": 61,
      "hit": false,
      "t": 29117.632500000018,
      "d": 294.1175000000003,
      "v": 80
    },
    {
      "midi": 75,
      "hit": false,
      "t": 29264.691250000014,
      "d": 441.17625000000044,
      "v": 98
    },
    {
      "midi": 63,
      "hit": false,
      "t": 29411.75000000002,
      "d": 588.2350000000006,
      "v": 80
    },
    {
      "midi": 76,
      "hit": false,
      "t": 29705.867500000015,
      "d": 294.1175000000003,
      "v": 98
    },
    {
      "midi": 78,
      "hit": false,
      "t": 29999.985000000015,
      "d": 294.1175000000003,
      "v": 98
    },
    {
      "midi": 59,
      "hit": false,
      "t": 29999.98500000002,
      "d": 588.2350000000006,
      "v": 80
    },
    {
      "midi": 75,
      "hit": false,
      "t": 30294.102500000015,
      "d": 294.1175000000003,
      "v": 98
    },
    {
      "midi": 73,
      "hit": false,
      "t": 30588.220000000016,
      "d": 294.1175000000003,
      "v": 98
    },
    {
      "midi": 46,
      "hit": false,
      "t": 30588.22000000002,
      "d": 294.1175000000003,
      "v": 80
    },
    {
      "midi": 75,
      "hit": false,
      "t": 30882.337500000016,
      "d": 294.1175000000003,
      "v": 98
    },
    {
      "midi": 54,
      "hit": false,
      "t": 30882.33750000002,
      "d": 294.1175000000003,
      "v": 80
    },
    {
      "midi": 73,
      "hit": false,
      "t": 31176.455000000016,
      "d": 147.05875000000015,
      "v": 98
    },
    {
      "midi": 58,
      "hit": false,
      "t": 31176.45500000002,
      "d": 294.1175000000003,
      "v": 80
    },
    {
      "midi": 68,
      "hit": false,
      "t": 31323.513750000016,
      "d": 294.1175000000003,
      "v": 98
    },
    {
      "midi": 61,
      "hit": false,
      "t": 31470.57250000002,
      "d": 294.1175000000003,
      "v": 80
    },
    {
      "midi": 71,
      "hit": false,
      "t": 31617.631250000017,
      "d": 1323.5287500000013,
      "v": 98
    },
    {
      "midi": 44,
      "hit": false,
      "t": 31764.69000000002,
      "d": 294.1175000000003,
      "v": 80
    },
    {
      "midi": 51,
      "hit": false,
      "t": 32058.80750000002,
      "d": 294.1175000000003,
      "v": 80
    },
    {
      "midi": 56,
      "hit": false,
      "t": 32352.92500000002,
      "d": 294.1175000000003,
      "v": 80
    },
    {
      "midi": 59,
      "hit": false,
      "t": 32647.04250000002,
      "d": 294.11749999999665,
      "v": 80
    },
    {
      "midi": 40,
      "hit": false,
      "t": 32941.16000000002,
      "d": 294.1175000000003,
      "v": 80
    },
    {
      "midi": 78,
      "hit": false,
      "t": 33235.27750000002,
      "d": 294.1175000000003,
      "v": 98
    },
    {
      "midi": 47,
      "hit": false,
      "t": 33235.27750000002,
      "d": 294.1175000000003,
      "v": 80
    },
    {
      "midi": 78,
      "hit": false,
      "t": 33529.39500000002,
      "d": 294.1175000000003,
      "v": 98
    },
    {
      "midi": 54,
      "hit": false,
      "t": 33529.39500000002,
      "d": 294.1175000000003,
      "v": 80
    },
    {
      "midi": 83,
      "hit": false,
      "t": 33823.51250000002,
      "d": 294.1175000000003,
      "v": 98
    },
    {
      "midi": 56,
      "hit": false,
      "t": 33823.51250000002,
      "d": 588.2350000000006,
      "v": 80
    },
    {
      "midi": 83,
      "hit": false,
      "t": 34117.63000000002,
      "d": 294.1175000000003,
      "v": 98
    },
    {
      "midi": 82,
      "hit": false,
      "t": 34411.74750000002,
      "d": 147.0587499999965,
      "v": 98
    },
    {
      "midi": 52,
      "hit": false,
      "t": 34411.74750000002,
      "d": 294.1175000000003,
      "v": 80
    },
    {
      "midi": 80,
      "hit": false,
      "t": 34558.806250000016,
      "d": 441.1762499999968,
      "v": 98
    },
    {
      "midi": 56,
      "hit": false,
      "t": 34705.86500000002,
      "d": 294.1175000000003,
      "v": 80
    },
    {
      "midi": 82,
      "hit": false,
      "t": 34999.98250000001,
      "d": 294.1175000000003,
      "v": 98
    },
    {
      "midi": 59,
      "hit": false,
      "t": 34999.98250000002,
      "d": 294.1175000000003,
      "v": 80
    },
    {
      "midi": 78,
      "hit": false,
      "t": 35294.10000000001,
      "d": 882.3525000000009,
      "v": 98
    },
    {
      "midi": 42,
      "hit": false,
      "t": 35294.10000000002,
      "d": 294.1175000000003,
      "v": 80
    },
    {
      "midi": 49,
      "hit": false,
      "t": 35588.21750000002,
      "d": 294.1175000000003,
      "v": 80
    },
    {
      "midi": 54,
      "hit": false,
      "t": 35882.33500000002,
      "d": 294.1175000000003,
      "v": 80
    },
    {
      "midi": 75,
      "hit": false,
      "t": 36176.452500000014,
      "d": 147.0587499999965,
      "v": 98
    },
    {
      "midi": 58,
      "hit": false,
      "t": 36176.45250000002,
      "d": 294.1175000000003,
      "v": 80
    },
    {
      "midi": 78,
      "hit": false,
      "t": 36323.51125000001,
      "d": 147.0587499999965,
      "v": 98
    },
    {
      "midi": 80,
      "hit": false,
      "t": 36470.57000000001,
      "d": 294.1175000000003,
      "v": 98
    },
    {
      "midi": 61,
      "hit": false,
      "t": 36470.57000000002,
      "d": 294.1175000000003,
      "v": 80
    },
    {
      "midi": 78,
      "hit": false,
      "t": 36764.68750000001,
      "d": 294.1175000000003,
      "v": 98
    },
    {
      "midi": 58,
      "hit": false,
      "t": 36764.68750000002,
      "d": 588.2350000000006,
      "v": 80
    },
    {
      "midi": 75,
      "hit": false,
      "t": 37058.80500000001,
      "d": 147.0587499999965,
      "v": 98
    },
    {
      "midi": 73,
      "hit": false,
      "t": 37205.863750000004,
      "d": 441.1762499999968,
      "v": 98
    },
    {
      "midi": 54,
      "hit": false,
      "t": 37352.92250000002,
      "d": 294.1175000000003,
      "v": 80
    },
    {
      "midi": 71,
      "hit": false,
      "t": 37647.04,
      "d": 882.3525000000009,
      "v": 98
    },
    {
      "midi": 40,
      "hit": false,
      "t": 37647.04000000002,
      "d": 294.1175000000003,
      "v": 80
    },
    {
      "midi": 47,
      "hit": false,
      "t": 37941.15750000002,
      "d": 294.1175000000003,
      "v": 80
    },
    {
      "midi": 54,
      "hit": false,
      "t": 38235.27500000002,
      "d": 294.1175000000003,
      "v": 80
    },
    {
      "midi": 68,
      "hit": false,
      "t": 38529.3925,
      "d": 147.0587499999965,
      "v": 98
    },
    {
      "midi": 56,
      "hit": false,
      "t": 38529.39250000002,
      "d": 588.2350000000006,
      "v": 80
    },
    {
      "midi": 71,
      "hit": false,
      "t": 38676.45125,
      "d": 147.0587499999965,
      "v": 98
    },
    {
      "midi": 73,
      "hit": false,
      "t": 38823.509999999995,
      "d": 294.1175000000003,
      "v": 98
    },
    {
      "midi": 71,
      "hit": false,
      "t": 39117.627499999995,
      "d": 147.0587499999965,
      "v": 98
    },
    {
      "midi": 52,
      "hit": false,
      "t": 39117.627500000024,
      "d": 294.1175000000003,
      "v": 80
    },
    {
      "midi": 70,
      "hit": false,
      "t": 39264.68624999999,
      "d": 294.1175000000003,
      "v": 98
    },
    {
      "midi": 56,
      "hit": false,
      "t": 39411.745000000024,
      "d": 294.1175000000003,
      "v": 80
    },
    {
      "midi": 71,
      "hit": false,
      "t": 39558.80374999999,
      "d": 147.0587499999965,
      "v": 98
    },
    {
      "midi": 73,
      "hit": false,
      "t": 39705.86249999999,
      "d": 294.1175000000003,
      "v": 98
    },
    {
      "midi": 59,
      "hit": false,
      "t": 39705.862500000025,
      "d": 294.1175000000003,
      "v": 80
    },
    {
      "midi": 75,
      "hit": false,
      "t": 39999.97999999999,
      "d": 882.3525000000009,
      "v": 98
    },
    {
      "midi": 39,
      "hit": false,
      "t": 39999.980000000025,
      "d": 294.1175000000003,
      "v": 80
    },
    {
      "midi": 46,
      "hit": false,
      "t": 40294.097500000025,
      "d": 294.1175000000003,
      "v": 80
    },
    {
      "midi": 51,
      "hit": false,
      "t": 40588.215000000026,
      "d": 294.1175000000003,
      "v": 80
    },
    {
      "midi": 75,
      "hit": false,
      "t": 40882.33249999999,
      "d": 147.0587499999965,
      "v": 98
    },
    {
      "midi": 54,
      "hit": false,
      "t": 40882.332500000026,
      "d": 588.2350000000006,
      "v": 80
    },
    {
      "midi": 75,
      "hit": false,
      "t": 41029.391249999986,
      "d": 147.0587499999965,
      "v": 98
    },
    {
      "midi": 76,
      "hit": false,
      "t": 41176.44999999998,
      "d": 294.1175000000003,
      "v": 98
    },
    {
      "midi": 75,
      "hit": false,
      "t": 41470.56749999998,
      "d": 147.0587499999965,
      "v": 98
    },
    {
      "midi": 51,
      "hit": false,
      "t": 41470.56750000003,
      "d": 294.1175000000003,
      "v": 80
    },
    {
      "midi": 73,
      "hit": false,
      "t": 41617.62624999998,
      "d": 441.1762499999968,
      "v": 98
    },
    {
      "midi": 54,
      "hit": false,
      "t": 41764.68500000003,
      "d": 294.1175000000003,
      "v": 80
    },
    {
      "midi": 75,
      "hit": false,
      "t": 42058.802499999976,
      "d": 294.1175000000003,
      "v": 98
    },
    {
      "midi": 58,
      "hit": false,
      "t": 42058.80250000003,
      "d": 294.1175000000003,
      "v": 80
    },
    {
      "midi": 71,
      "hit": false,
      "t": 42352.91999999998,
      "d": 882.3525000000009,
      "v": 98
    },
    {
      "midi": 37,
      "hit": false,
      "t": 42352.92000000003,
      "d": 294.1175000000003,
      "v": 80
    },
    {
      "midi": 44,
      "hit": false,
      "t": 42647.03750000003,
      "d": 294.1175000000003,
      "v": 80
    },
    {
      "midi": 51,
      "hit": false,
      "t": 42941.15500000003,
      "d": 294.1175000000003,
      "v": 80
    },
    {
      "midi": 68,
      "hit": false,
      "t": 43235.27249999998,
      "d": 147.0587499999965,
      "v": 98
    },
    {
      "midi": 52,
      "hit": false,
      "t": 43235.27250000003,
      "d": 588.2350000000006,
      "v": 80
    },
    {
      "midi": 71,
      "hit": false,
      "t": 43382.331249999974,
      "d": 147.0587499999965,
      "v": 98
    },
    {
      "midi": 73,
      "hit": false,
      "t": 43529.38999999997,
      "d": 294.1175000000003,
      "v": 98
    },
    {
      "midi": 71,
      "hit": false,
      "t": 43823.50749999997,
      "d": 147.0587499999965,
      "v": 98
    },
    {
      "midi": 49,
      "hit": false,
      "t": 43823.50750000003,
      "d": 294.1175000000003,
      "v": 80
    },
    {
      "midi": 70,
      "hit": false,
      "t": 43970.56624999997,
      "d": 294.1175000000003,
      "v": 98
    },
    {
      "midi": 52,
      "hit": false,
      "t": 44117.62500000003,
      "d": 294.1175000000003,
      "v": 80
    },
    {
      "midi": 71,
      "hit": false,
      "t": 44264.68374999997,
      "d": 147.0587499999965,
      "v": 98
    },
    {
      "midi": 73,
      "hit": false,
      "t": 44411.742499999964,
      "d": 294.1175000000003,
      "v": 98
    },
    {
      "midi": 56,
      "hit": false,
      "t": 44411.74250000003,
      "d": 294.1175000000003,
      "v": 80
    },
    {
      "midi": 78,
      "hit": false,
      "t": 44705.859999999964,
      "d": 882.3525000000009,
      "v": 98
    },
    {
      "midi": 39,
      "hit": false,
      "t": 44705.86000000003,
      "d": 294.1175000000003,
      "v": 80
    },
    {
      "midi": 46,
      "hit": false,
      "t": 44999.97750000003,
      "d": 294.1175000000003,
      "v": 80
    },
    {
      "midi": 51,
      "hit": false,
      "t": 45294.09500000003,
      "d": 294.1175000000003,
      "v": 80
    },
    {
      "midi": 78,
      "hit": false,
      "t": 45588.212499999965,
      "d": 147.0587499999965,
      "v": 98
    },
    {
      "midi": 54,
      "hit": false,
      "t": 45588.21250000003,
      "d": 588.2350000000006,
      "v": 80
    },
    {
      "midi": 78,
      "hit": false,
      "t": 45735.27124999996,
      "d": 147.0587499999965,
      "v": 98
    },
    {
      "midi": 80,
      "hit": false,
      "t": 45882.32999999996,
      "d": 294.1175000000003,
      "v": 98
    },
    {
      "midi": 78,
      "hit": false,
      "t": 46176.44749999996,
      "d": 294.1175000000003,
      "v": 98
    },
    {
      "midi": 51,
      "hit": false,
      "t": 46176.44750000003,
      "d": 294.1175000000003,
      "v": 80
    },
    {
      "midi": 75,
      "hit": false,
      "t": 46470.56499999996,
      "d": 147.0587499999965,
      "v": 98
    },
    {
      "midi": 54,
      "hit": false,
      "t": 46470.56500000003,
      "d": 294.1175000000003,
      "v": 80
    },
    {
      "midi": 73,
      "hit": false,
      "t": 46617.623749999955,
      "d": 441.1762499999968,
      "v": 98
    },
    {
      "midi": 58,
      "hit": false,
      "t": 46764.68250000003,
      "d": 294.1175000000003,
      "v": 80
    },
    {
      "midi": 71,
      "hit": false,
      "t": 47058.79999999995,
      "d": 882.3525000000009,
      "v": 98
    },
    {
      "midi": 40,
      "hit": false,
      "t": 47058.80000000003,
      "d": 294.1175000000003,
      "v": 80
    },
    {
      "midi": 47,
      "hit": false,
      "t": 47352.91750000003,
      "d": 294.1175000000003,
      "v": 80
    },
    {
      "midi": 54,
      "hit": false,
      "t": 47647.03500000003,
      "d": 294.1175000000003,
      "v": 80
    },
    {
      "midi": 68,
      "hit": false,
      "t": 47941.15249999995,
      "d": 147.0587499999965,
      "v": 98
    },
    {
      "midi": 56,
      "hit": false,
      "t": 47941.15250000003,
      "d": 588.2350000000006,
      "v": 80
    },
    {
      "midi": 71,
      "hit": false,
      "t": 48088.21124999995,
      "d": 147.0587499999965,
      "v": 98
    },
    {
      "midi": 73,
      "hit": false,
      "t": 48235.269999999946,
      "d": 294.1175000000003,
      "v": 98
    },
    {
      "midi": 71,
      "hit": false,
      "t": 48529.387499999946,
      "d": 147.0587499999965,
      "v": 98
    },
    {
      "midi": 52,
      "hit": false,
      "t": 48529.38750000003,
      "d": 294.1175000000003,
      "v": 80
    },
    {
      "midi": 70,
      "hit": false,
      "t": 48676.44624999994,
      "d": 294.1175000000003,
      "v": 98
    },
    {
      "midi": 56,
      "hit": false,
      "t": 48823.505000000034,
      "d": 294.1175000000003,
      "v": 80
    },
    {
      "midi": 71,
      "hit": false,
      "t": 48970.56374999994,
      "d": 147.0587499999965,
      "v": 98
    },
    {
      "midi": 73,
      "hit": false,
      "t": 49117.62249999994,
      "d": 294.1175000000003,
      "v": 98
    },
    {
      "midi": 59,
      "hit": false,
      "t": 49117.622500000034,
      "d": 294.1175000000003,
      "v": 80
    },
    {
      "midi": 75,
      "hit": false,
      "t": 49411.73999999994,
      "d": 882.3525000000009,
      "v": 98
    },
    {
      "midi": 39,
      "hit": false,
      "t": 49411.740000000034,
      "d": 294.1175000000003,
      "v": 80
    },
    {
      "midi": 46,
      "hit": false,
      "t": 49705.857500000035,
      "d": 294.1175000000003,
      "v": 80
    },
    {
      "midi": 54,
      "hit": false,
      "t": 49999.975000000035,
      "d": 294.1175000000003,
      "v": 80
    },
    {
      "midi": 75,
      "hit": false,
      "t": 50294.09249999994,
      "d": 147.0587499999965,
      "v": 98
    },
    {
      "midi": 51,
      "hit": false,
      "t": 50294.092500000035,
      "d": 294.1175000000003,
      "v": 80
    },
    {
      "midi": 75,
      "hit": false,
      "t": 50441.15124999994,
      "d": 147.0587499999965,
      "v": 98
    },
    {
      "midi": 69,
      "hit": false,
      "t": 50588.209999999934,
      "d": 39.21566666666331,
      "v": 98
    },
    {
      "midi": 42,
      "hit": false,
      "t": 50588.210000000036,
      "d": 294.1175000000003,
      "v": 80
    },
    {
      "midi": 76,
      "hit": false,
      "t": 50627.4256666666,
      "d": 549.01933333333,
      "v": 98
    },
    {
      "midi": 51,
      "hit": false,
      "t": 50882.327500000036,
      "d": 294.1175000000003,
      "v": 80
    },
    {
      "midi": 69,
      "hit": false,
      "t": 51176.44499999993,
      "d": 39.21566666666331,
      "v": 98
    },
    {
      "midi": 57,
      "hit": false,
      "t": 51176.445000000036,
      "d": 294.1175000000003,
      "v": 80
    },
    {
      "midi": 78,
      "hit": false,
      "t": 51215.66066666659,
      "d": 549.01933333333,
      "v": 98
    },
    {
      "midi": 61,
      "hit": false,
      "t": 51470.56250000004,
      "d": 294.1175000000003,
      "v": 80
    },
    {
      "midi": 64,
      "hit": false,
      "t": 51764.67999999992,
      "d": 1911.7637499999983,
      "v": 98
    },
    {
      "midi": 71,
      "hit": false,
      "t": 51764.67999999992,
      "d": 1911.7637499999983,
      "v": 98
    },
    {
      "midi": 68,
      "hit": false,
      "t": 51764.67999999992,
      "d": 1911.7637499999983,
      "v": 98
    },
    {
      "midi": 52,
      "hit": false,
      "t": 51764.68000000004,
      "d": 2352.9400000000023,
      "v": 80
    },
    {
      "midi": 59,
      "hit": false,
      "t": 51764.68000000004,
      "d": 2352.9400000000023,
      "v": 80
    },
    {
      "midi": 56,
      "hit": false,
      "t": 51764.68000000004,
      "d": 2352.9400000000023,
      "v": 80
    },
    {
      "midi": 71,
      "hit": false,
      "t": 53676.44374999992,
      "d": 147.0587499999965,
      "v": 98
    },
    {
      "midi": 70,
      "hit": false,
      "t": 53823.502499999915,
      "d": 147.0587499999965,
      "v": 98
    },
    {
      "midi": 71,
      "hit": false,
      "t": 53970.56124999991,
      "d": 147.0587499999965,
      "v": 98
    },
    {
      "midi": 73,
      "hit": false,
      "t": 54117.61999999991,
      "d": 2352.9400000000023,
      "v": 98
    },
    {
      "midi": 42,
      "hit": false,
      "t": 54117.62000000004,
      "d": 294.1175000000003,
      "v": 80
    },
    {
      "midi": 49,
      "hit": false,
      "t": 54411.73750000004,
      "d": 294.1175000000003,
      "v": 80
    },
    {
      "midi": 54,
      "hit": false,
      "t": 54705.85500000004,
      "d": 294.1175000000003,
      "v": 80
    },
    {
      "midi": 58,
      "hit": false,
      "t": 54999.97250000004,
      "d": 294.1175000000003,
      "v": 80
    },
    {
      "midi": 61,
      "hit": false,
      "t": 55294.09000000004,
      "d": 1176.4700000000012,
      "v": 80
    },
    {
      "midi": 47,
      "hit": false,
      "t": 56470.56000000004,
      "d": 294.1175000000003,
      "v": 80
    },
    {
      "midi": 54,
      "hit": false,
      "t": 56764.67750000004,
      "d": 294.1175000000003,
      "v": 80
    },
    {
      "midi": 61,
      "hit": false,
      "t": 57058.79500000004,
      "d": 294.1175000000003,
      "v": 80
    },
    {
      "midi": 63,
      "hit": false,
      "t": 57352.91250000004,
      "d": 588.2350000000006,
      "v": 80
    },
    {
      "midi": 59,
      "hit": false,
      "t": 57941.14750000004,
      "d": 294.1175000000003,
      "v": 80
    },
    {
      "midi": 63,
      "hit": false,
      "t": 58235.26500000004,
      "d": 588.2350000000006,
      "v": 80
    },
    {
      "midi": 47,
      "hit": false,
      "t": 58823.500000000044,
      "d": 294.1175000000003,
      "v": 80
    },
    {
      "midi": 54,
      "hit": false,
      "t": 59117.617500000044,
      "d": 294.1175000000003,
      "v": 80
    },
    {
      "midi": 61,
      "hit": false,
      "t": 59411.735000000044,
      "d": 294.1175000000003,
      "v": 80
    },
    {
      "midi": 63,
      "hit": false,
      "t": 59705.852500000045,
      "d": 588.2350000000006,
      "v": 80
    },
    {
      "midi": 59,
      "hit": false,
      "t": 60294.087500000045,
      "d": 294.1175000000003,
      "v": 80
    },
    {
      "midi": 63,
      "hit": false,
      "t": 60588.205000000045,
      "d": 588.2350000000006,
      "v": 80
    },
    {
      "midi": 47,
      "hit": false,
      "t": 61176.440000000046,
      "d": 294.1175000000003,
      "v": 80
    },
    {
      "midi": 75,
      "hit": false,
      "t": 61470.55749999991,
      "d": 294.1175000000003,
      "v": 98
    },
    {
      "midi": 54,
      "hit": false,
      "t": 61470.557500000046,
      "d": 294.1175000000003,
      "v": 80
    },
    {
      "midi": 75,
      "hit": false,
      "t": 61764.67499999991,
      "d": 147.0587499999965,
      "v": 98
    },
    {
      "midi": 59,
      "hit": false,
      "t": 61764.67500000005,
      "d": 294.1175000000003,
      "v": 80
    },
    {
      "midi": 73,
      "hit": false,
      "t": 61911.733749999905,
      "d": 294.1175000000003,
      "v": 98
    },
    {
      "midi": 61,
      "hit": false,
      "t": 62058.79250000005,
      "d": 294.1175000000003,
      "v": 80
    },
    {
      "midi": 75,
      "hit": false,
      "t": 62205.851249999905,
      "d": 441.1762499999968,
      "v": 98
    },
    {
      "midi": 63,
      "hit": false,
      "t": 62352.91000000005,
      "d": 294.1175000000003,
      "v": 80
    },
    {
      "midi": 76,
      "hit": false,
      "t": 62647.0274999999,
      "d": 294.1175000000003,
      "v": 98
    },
    {
      "midi": 54,
      "hit": false,
      "t": 62647.02750000005,
      "d": 294.1175000000003,
      "v": 80
    },
    {
      "midi": 78,
      "hit": false,
      "t": 62941.1449999999,
      "d": 294.1175000000003,
      "v": 98
    },
    {
      "midi": 59,
      "hit": false,
      "t": 62941.14500000005,
      "d": 294.1175000000003,
      "v": 80
    },
    {
      "midi": 75,
      "hit": false,
      "t": 63235.2624999999,
      "d": 294.1175000000003,
      "v": 98
    },
    {
      "midi": 63,
      "hit": false,
      "t": 63235.26250000005,
      "d": 294.1175000000003,
      "v": 80
    },
    {
      "midi": 73,
      "hit": false,
      "t": 63529.3799999999,
      "d": 294.1175000000003,
      "v": 98
    },
    {
      "midi": 46,
      "hit": false,
      "t": 63529.38000000005,
      "d": 294.1175000000003,
      "v": 80
    },
    {
      "midi": 75,
      "hit": false,
      "t": 63823.4974999999,
      "d": 294.1175000000003,
      "v": 98
    },
    {
      "midi": 54,
      "hit": false,
      "t": 63823.49750000005,
      "d": 294.1175000000003,
      "v": 80
    },
    {
      "midi": 73,
      "hit": false,
      "t": 64117.6149999999,
      "d": 147.0587499999965,
      "v": 98
    },
    {
      "midi": 58,
      "hit": false,
      "t": 64117.61500000005,
      "d": 294.1175000000003,
      "v": 80
    },
    {
      "midi": 68,
      "hit": false,
      "t": 64264.6737499999,
      "d": 294.1175000000003,
      "v": 98
    },
    {
      "midi": 61,
      "hit": false,
      "t": 64411.73250000005,
      "d": 294.1175000000003,
      "v": 80
    },
    {
      "midi": 71,
      "hit": false,
      "t": 64558.7912499999,
      "d": 1323.528750000005,
      "v": 98
    },
    {
      "midi": 44,
      "hit": false,
      "t": 64705.85000000005,
      "d": 294.1175000000003,
      "v": 80
    },
    {
      "midi": 51,
      "hit": false,
      "t": 64999.96750000005,
      "d": 294.1175000000003,
      "v": 80
    },
    {
      "midi": 58,
      "hit": false,
      "t": 65294.08500000005,
      "d": 294.117499999993,
      "v": 80
    },
    {
      "midi": 59,
      "hit": false,
      "t": 65588.20250000004,
      "d": 294.117499999993,
      "v": 80
    },
    {
      "midi": 40,
      "hit": false,
      "t": 65882.32000000004,
      "d": 294.117499999993,
      "v": 80
    },
    {
      "midi": 75,
      "hit": false,
      "t": 66176.4374999999,
      "d": 294.117499999993,
      "v": 98
    },
    {
      "midi": 59,
      "hit": false,
      "t": 66176.43750000003,
      "d": 294.117499999993,
      "v": 80
    },
    {
      "midi": 75,
      "hit": false,
      "t": 66470.55499999989,
      "d": 147.0587499999965,
      "v": 98
    },
    {
      "midi": 54,
      "hit": false,
      "t": 66470.55500000002,
      "d": 294.117499999993,
      "v": 80
    },
    {
      "midi": 76,
      "hit": false,
      "t": 66617.61374999989,
      "d": 294.117499999993,
      "v": 98
    },
    {
      "midi": 52,
      "hit": false,
      "t": 66764.67250000002,
      "d": 588.2350000000006,
      "v": 80
    },
    {
      "midi": 59,
      "hit": false,
      "t": 66764.67250000002,
      "d": 588.2350000000006,
      "v": 80
    },
    {
      "midi": 56,
      "hit": false,
      "t": 66764.67250000002,
      "d": 588.2350000000006,
      "v": 80
    },
    {
      "midi": 75,
      "hit": false,
      "t": 66911.73124999988,
      "d": 441.1762500000041,
      "v": 98
    },
    {
      "midi": 73,
      "hit": false,
      "t": 67352.90749999988,
      "d": 294.117499999993,
      "v": 98
    },
    {
      "midi": 47,
      "hit": false,
      "t": 67352.90750000002,
      "d": 294.117499999993,
      "v": 80
    },
    {
      "midi": 71,
      "hit": false,
      "t": 67647.02499999988,
      "d": 294.117499999993,
      "v": 98
    },
    {
      "midi": 52,
      "hit": false,
      "t": 67647.02500000001,
      "d": 294.117499999993,
      "v": 80
    },
    {
      "midi": 73,
      "hit": false,
      "t": 67941.14249999987,
      "d": 294.117499999993,
      "v": 98
    },
    {
      "midi": 56,
      "hit": false,
      "t": 67941.1425,
      "d": 294.117499999993,
      "v": 80
    },
    {
      "midi": 71,
      "hit": false,
      "t": 68235.25999999986,
      "d": 588.2350000000006,
      "v": 98
    },
    {
      "midi": 42,
      "hit": false,
      "t": 68235.26,
      "d": 294.117499999993,
      "v": 80
    },
    {
      "midi": 49,
      "hit": false,
      "t": 68529.37749999999,
      "d": 294.117499999993,
      "v": 80
    },
    {
      "midi": 70,
      "hit": false,
      "t": 68823.49499999986,
      "d": 588.2350000000006,
      "v": 98
    },
    {
      "midi": 56,
      "hit": false,
      "t": 68823.49499999998,
      "d": 294.117499999993,
      "v": 80
    },
    {
      "midi": 54,
      "hit": false,
      "t": 69117.61249999997,
      "d": 294.117499999993,
      "v": 80
    },
    {
      "midi": 58,
      "hit": false,
      "t": 69117.61249999997,
      "d": 294.117499999993,
      "v": 80
    },
    {
      "midi": 68,
      "hit": false,
      "t": 69411.72999999986,
      "d": 588.2350000000006,
      "v": 98
    },
    {
      "midi": 49,
      "hit": false,
      "t": 69411.72999999997,
      "d": 294.117499999993,
      "v": 80
    },
    {
      "midi": 54,
      "hit": false,
      "t": 69705.84749999996,
      "d": 294.117499999993,
      "v": 80
    },
    {
      "midi": 70,
      "hit": false,
      "t": 69999.96499999987,
      "d": 588.2350000000006,
      "v": 98
    },
    {
      "midi": 58,
      "hit": false,
      "t": 69999.96499999995,
      "d": 294.117499999993,
      "v": 80
    },
    {
      "midi": 61,
      "hit": false,
      "t": 70294.08249999995,
      "d": 294.117499999993,
      "v": 80
    },
    {
      "midi": 47,
      "hit": false,
      "t": 70588.19999999994,
      "d": 294.117499999993,
      "v": 80
    },
    {
      "midi": 75,
      "hit": false,
      "t": 70882.31749999986,
      "d": 294.117499999993,
      "v": 98
    },
    {
      "midi": 54,
      "hit": false,
      "t": 70882.31749999993,
      "d": 294.117499999993,
      "v": 80
    },
    {
      "midi": 75,
      "hit": false,
      "t": 71176.43499999985,
      "d": 147.0587499999965,
      "v": 98
    },
    {
      "midi": 61,
      "hit": false,
      "t": 71176.43499999992,
      "d": 294.117499999993,
      "v": 80
    },
    {
      "midi": 73,
      "hit": false,
      "t": 71323.49374999985,
      "d": 294.117499999993,
      "v": 98
    },
    {
      "midi": 59,
      "hit": false,
      "t": 71470.55249999992,
      "d": 588.2350000000006,
      "v": 80
    },
    {
      "midi": 63,
      "hit": false,
      "t": 71470.55249999992,
      "d": 588.2350000000006,
      "v": 80
    },
    {
      "midi": 75,
      "hit": false,
      "t": 71617.61124999984,
      "d": 441.1762500000041,
      "v": 98
    },
    {
      "midi": 76,
      "hit": false,
      "t": 72058.78749999985,
      "d": 294.117499999993,
      "v": 98
    },
    {
      "midi": 54,
      "hit": false,
      "t": 72058.78749999992,
      "d": 294.117499999993,
      "v": 80
    },
    {
      "midi": 78,
      "hit": false,
      "t": 72352.90499999984,
      "d": 294.117499999993,
      "v": 98
    },
    {
      "midi": 59,
      "hit": false,
      "t": 72352.90499999991,
      "d": 294.117499999993,
      "v": 80
    },
    {
      "midi": 75,
      "hit": false,
      "t": 72647.02249999983,
      "d": 294.117499999993,
      "v": 98
    },
    {
      "midi": 63,
      "hit": false,
      "t": 72647.0224999999,
      "d": 294.117499999993,
      "v": 80
    },
    {
      "midi": 73,
      "hit": false,
      "t": 72941.13999999982,
      "d": 294.117499999993,
      "v": 98
    },
    {
      "midi": 46,
      "hit": false,
      "t": 72941.1399999999,
      "d": 294.117499999993,
      "v": 80
    },
    {
      "midi": 75,
      "hit": false,
      "t": 73235.25749999982,
      "d": 294.117499999993,
      "v": 98
    },
    {
      "midi": 54,
      "hit": false,
      "t": 73235.25749999989,
      "d": 294.117499999993,
      "v": 80
    },
    {
      "midi": 73,
      "hit": false,
      "t": 73529.37499999981,
      "d": 147.0587499999965,
      "v": 98
    },
    {
      "midi": 58,
      "hit": false,
      "t": 73529.37499999988,
      "d": 294.117499999993,
      "v": 80
    },
    {
      "midi": 68,
      "hit": false,
      "t": 73676.43374999981,
      "d": 294.117499999993,
      "v": 98
    },
    {
      "midi": 61,
      "hit": false,
      "t": 73823.49249999988,
      "d": 294.117499999993,
      "v": 80
    },
    {
      "midi": 71,
      "hit": false,
      "t": 73970.5512499998,
      "d": 1323.5287499999977,
      "v": 98
    },
    {
      "midi": 44,
      "hit": false,
      "t": 74117.60999999987,
      "d": 294.117499999993,
      "v": 80
    },
    {
      "midi": 51,
      "hit": false,
      "t": 74411.72749999986,
      "d": 294.117499999993,
      "v": 80
    },
    {
      "midi": 58,
      "hit": false,
      "t": 74705.84499999986,
      "d": 294.117499999993,
      "v": 80
    },
    {
      "midi": 59,
      "hit": false,
      "t": 74999.96249999985,
      "d": 294.117499999993,
      "v": 80
    },
    {
      "midi": 40,
      "hit": false,
      "t": 75294.07999999984,
      "d": 294.117499999993,
      "v": 80
    },
    {
      "midi": 78,
      "hit": false,
      "t": 75588.19749999979,
      "d": 294.117499999993,
      "v": 98
    },
    {
      "midi": 59,
      "hit": false,
      "t": 75588.19749999983,
      "d": 294.117499999993,
      "v": 80
    },
    {
      "midi": 78,
      "hit": false,
      "t": 75882.31499999978,
      "d": 294.117499999993,
      "v": 98
    },
    {
      "midi": 54,
      "hit": false,
      "t": 75882.31499999983,
      "d": 294.117499999993,
      "v": 80
    },
    {
      "midi": 83,
      "hit": false,
      "t": 76176.43249999978,
      "d": 294.117499999993,
      "v": 98
    },
    {
      "midi": 52,
      "hit": false,
      "t": 76176.43249999982,
      "d": 588.2350000000006,
      "v": 80
    },
    {
      "midi": 59,
      "hit": false,
      "t": 76176.43249999982,
      "d": 588.2350000000006,
      "v": 80
    },
    {
      "midi": 56,
      "hit": false,
      "t": 76176.43249999982,
      "d": 588.2350000000006,
      "v": 80
    },
    {
      "midi": 83,
      "hit": false,
      "t": 76470.54999999977,
      "d": 294.117499999993,
      "v": 98
    },
    {
      "midi": 82,
      "hit": false,
      "t": 76764.66749999976,
      "d": 147.0587499999965,
      "v": 98
    },
    {
      "midi": 47,
      "hit": false,
      "t": 76764.66749999982,
      "d": 294.117499999993,
      "v": 80
    },
    {
      "midi": 80,
      "hit": false,
      "t": 76911.72624999976,
      "d": 441.1762500000041,
      "v": 98
    },
    {
      "midi": 52,
      "hit": false,
      "t": 77058.78499999981,
      "d": 294.117499999993,
      "v": 80
    },
    {
      "midi": 82,
      "hit": false,
      "t": 77352.90249999976,
      "d": 294.117499999993,
      "v": 98
    },
    {
      "midi": 56,
      "hit": false,
      "t": 77352.90249999981,
      "d": 294.117499999993,
      "v": 80
    },
    {
      "midi": 78,
      "hit": false,
      "t": 77647.01999999976,
      "d": 882.3524999999936,
      "v": 98
    },
    {
      "midi": 42,
      "hit": false,
      "t": 77647.0199999998,
      "d": 294.117499999993,
      "v": 80
    },
    {
      "midi": 49,
      "hit": false,
      "t": 77941.1374999998,
      "d": 294.117499999993,
      "v": 80
    },
    {
      "midi": 56,
      "hit": false,
      "t": 78235.25499999979,
      "d": 294.117499999993,
      "v": 80
    },
    {
      "midi": 75,
      "hit": false,
      "t": 78529.37249999975,
      "d": 147.0587499999965,
      "v": 98
    },
    {
      "midi": 54,
      "hit": false,
      "t": 78529.37249999978,
      "d": 588.2350000000006,
      "v": 80
    },
    {
      "midi": 58,
      "hit": false,
      "t": 78529.37249999978,
      "d": 588.2350000000006,
      "v": 80
    },
    {
      "midi": 78,
      "hit": false,
      "t": 78676.43124999975,
      "d": 147.0587499999965,
      "v": 98
    },
    {
      "midi": 80,
      "hit": false,
      "t": 78823.48999999974,
      "d": 294.117499999993,
      "v": 98
    },
    {
      "midi": 78,
      "hit": false,
      "t": 79117.60749999974,
      "d": 294.117499999993,
      "v": 98
    },
    {
      "midi": 54,
      "hit": false,
      "t": 79117.60749999978,
      "d": 294.117499999993,
      "v": 80
    },
    {
      "midi": 75,
      "hit": false,
      "t": 79411.72499999973,
      "d": 147.0587499999965,
      "v": 98
    },
    {
      "midi": 58,
      "hit": false,
      "t": 79411.72499999977,
      "d": 294.117499999993,
      "v": 80
    },
    {
      "midi": 73,
      "hit": false,
      "t": 79558.78374999973,
      "d": 441.1762500000041,
      "v": 98
    },
    {
      "midi": 61,
      "hit": false,
      "t": 79705.84249999977,
      "d": 294.117499999993,
      "v": 80
    },
    {
      "midi": 71,
      "hit": false,
      "t": 79999.95999999973,
      "d": 882.3524999999936,
      "v": 98
    },
    {
      "midi": 40,
      "hit": false,
      "t": 79999.95999999976,
      "d": 294.117499999993,
      "v": 80
    },
    {
      "midi": 47,
      "hit": false,
      "t": 80294.07749999975,
      "d": 294.117499999993,
      "v": 80
    },
    {
      "midi": 54,
      "hit": false,
      "t": 80588.19499999975,
      "d": 294.117499999993,
      "v": 80
    },
    {
      "midi": 68,
      "hit": false,
      "t": 80882.31249999972,
      "d": 147.0587499999965,
      "v": 98
    },
    {
      "midi": 56,
      "hit": false,
      "t": 80882.31249999974,
      "d": 588.2350000000006,
      "v": 80
    },
    {
      "midi": 59,
      "hit": false,
      "t": 80882.31249999974,
      "d": 588.2350000000006,
      "v": 80
    },
    {
      "midi": 71,
      "hit": false,
      "t": 81029.37124999972,
      "d": 147.0587499999965,
      "v": 98
    },
    {
      "midi": 73,
      "hit": false,
      "t": 81176.42999999972,
      "d": 294.117499999993,
      "v": 98
    },
    {
      "midi": 71,
      "hit": false,
      "t": 81470.54749999971,
      "d": 147.0587499999965,
      "v": 98
    },
    {
      "midi": 47,
      "hit": false,
      "t": 81470.54749999974,
      "d": 294.117499999993,
      "v": 80
    },
    {
      "midi": 70,
      "hit": false,
      "t": 81617.6062499997,
      "d": 294.117499999993,
      "v": 98
    },
    {
      "midi": 52,
      "hit": false,
      "t": 81764.66499999973,
      "d": 294.117499999993,
      "v": 80
    },
    {
      "midi": 71,
      "hit": false,
      "t": 81911.7237499997,
      "d": 147.0587499999965,
      "v": 98
    },
    {
      "midi": 73,
      "hit": false,
      "t": 82058.7824999997,
      "d": 294.117499999993,
      "v": 98
    },
    {
      "midi": 56,
      "hit": false,
      "t": 82058.78249999972,
      "d": 294.117499999993,
      "v": 80
    },
    {
      "midi": 59,
      "hit": false,
      "t": 82058.78249999972,
      "d": 294.117499999993,
      "v": 80
    },
    {
      "midi": 75,
      "hit": false,
      "t": 82352.89999999969,
      "d": 882.3524999999936,
      "v": 98
    },
    {
      "midi": 39,
      "hit": false,
      "t": 82352.89999999972,
      "d": 294.117499999993,
      "v": 80
    },
    {
      "midi": 46,
      "hit": false,
      "t": 82647.01749999971,
      "d": 294.117499999993,
      "v": 80
    },
    {
      "midi": 51,
      "hit": false,
      "t": 82941.1349999997,
      "d": 294.117499999993,
      "v": 80
    },
    {
      "midi": 75,
      "hit": false,
      "t": 83235.25249999968,
      "d": 147.0587499999965,
      "v": 98
    },
    {
      "midi": 54,
      "hit": false,
      "t": 83235.2524999997,
      "d": 588.2350000000006,
      "v": 80
    },
    {
      "midi": 58,
      "hit": false,
      "t": 83235.2524999997,
      "d": 588.2350000000006,
      "v": 80
    },
    {
      "midi": 75,
      "hit": false,
      "t": 83382.31124999968,
      "d": 147.0587499999965,
      "v": 98
    },
    {
      "midi": 76,
      "hit": false,
      "t": 83529.36999999968,
      "d": 294.117499999993,
      "v": 98
    },
    {
      "midi": 75,
      "hit": false,
      "t": 83823.48749999967,
      "d": 147.0587499999965,
      "v": 98
    },
    {
      "midi": 46,
      "hit": false,
      "t": 83823.4874999997,
      "d": 294.117499999993,
      "v": 80
    },
    {
      "midi": 73,
      "hit": false,
      "t": 83970.54624999966,
      "d": 441.1762500000041,
      "v": 98
    },
    {
      "midi": 51,
      "hit": false,
      "t": 84117.60499999969,
      "d": 294.117499999993,
      "v": 80
    },
    {
      "midi": 75,
      "hit": false,
      "t": 84411.72249999967,
      "d": 294.117499999993,
      "v": 98
    },
    {
      "midi": 54,
      "hit": false,
      "t": 84411.72249999968,
      "d": 294.117499999993,
      "v": 80
    },
    {
      "midi": 71,
      "hit": false,
      "t": 84705.83999999966,
      "d": 882.3524999999936,
      "v": 98
    },
    {
      "midi": 37,
      "hit": false,
      "t": 84705.83999999968,
      "d": 294.117499999993,
      "v": 80
    },
    {
      "midi": 44,
      "hit": false,
      "t": 84999.95749999967,
      "d": 294.117499999993,
      "v": 80
    },
    {
      "midi": 51,
      "hit": false,
      "t": 85294.07499999966,
      "d": 294.117499999993,
      "v": 80
    },
    {
      "midi": 68,
      "hit": false,
      "t": 85588.19249999966,
      "d": 147.0587499999965,
      "v": 98
    },
    {
      "midi": 52,
      "hit": false,
      "t": 85588.19249999966,
      "d": 588.2350000000006,
      "v": 80
    },
    {
      "midi": 56,
      "hit": false,
      "t": 85588.19249999966,
      "d": 588.2350000000006,
      "v": 80
    },
    {
      "midi": 71,
      "hit": false,
      "t": 85735.25124999965,
      "d": 147.0587499999965,
      "v": 98
    },
    {
      "midi": 73,
      "hit": false,
      "t": 85882.30999999965,
      "d": 294.117499999993,
      "v": 98
    },
    {
      "midi": 71,
      "hit": false,
      "t": 86176.42749999964,
      "d": 147.0587499999965,
      "v": 98
    },
    {
      "midi": 44,
      "hit": false,
      "t": 86176.42749999966,
      "d": 294.117499999993,
      "v": 80
    },
    {
      "midi": 70,
      "hit": false,
      "t": 86323.48624999964,
      "d": 294.117499999993,
      "v": 98
    },
    {
      "midi": 49,
      "hit": false,
      "t": 86470.54499999965,
      "d": 294.117499999993,
      "v": 80
    },
    {
      "midi": 71,
      "hit": false,
      "t": 86617.60374999963,
      "d": 147.0587499999965,
      "v": 98
    },
    {
      "midi": 73,
      "hit": false,
      "t": 86764.66249999963,
      "d": 294.117499999993,
      "v": 98
    },
    {
      "midi": 52,
      "hit": false,
      "t": 86764.66249999964,
      "d": 294.117499999993,
      "v": 80
    },
    {
      "midi": 78,
      "hit": false,
      "t": 87058.77999999962,
      "d": 882.3524999999936,
      "v": 98
    },
    {
      "midi": 39,
      "hit": false,
      "t": 87058.77999999964,
      "d": 294.117499999993,
      "v": 80
    },
    {
      "midi": 46,
      "hit": false,
      "t": 87352.89749999963,
      "d": 294.117499999993,
      "v": 80
    },
    {
      "midi": 51,
      "hit": false,
      "t": 87647.01499999962,
      "d": 294.117499999993,
      "v": 80
    },
    {
      "midi": 78,
      "hit": false,
      "t": 87941.13249999961,
      "d": 147.0587499999965,
      "v": 98
    },
    {
      "midi": 54,
      "hit": false,
      "t": 87941.13249999961,
      "d": 588.2350000000006,
      "v": 80
    },
    {
      "midi": 58,
      "hit": false,
      "t": 87941.13249999961,
      "d": 588.2350000000006,
      "v": 80
    },
    {
      "midi": 78,
      "hit": false,
      "t": 88088.19124999961,
      "d": 147.0587499999965,
      "v": 98
    },
    {
      "midi": 80,
      "hit": false,
      "t": 88235.2499999996,
      "d": 294.117499999993,
      "v": 98
    },
    {
      "midi": 78,
      "hit": false,
      "t": 88529.3674999996,
      "d": 294.117499999993,
      "v": 98
    },
    {
      "midi": 46,
      "hit": false,
      "t": 88529.36749999961,
      "d": 294.117499999993,
      "v": 80
    },
    {
      "midi": 75,
      "hit": false,
      "t": 88823.4849999996,
      "d": 147.0587499999965,
      "v": 98
    },
    {
      "midi": 51,
      "hit": false,
      "t": 88823.48499999961,
      "d": 294.117499999993,
      "v": 80
    },
    {
      "midi": 73,
      "hit": false,
      "t": 88970.54374999959,
      "d": 441.1762500000041,
      "v": 98
    },
    {
      "midi": 54,
      "hit": false,
      "t": 89117.6024999996,
      "d": 294.117499999993,
      "v": 80
    },
    {
      "midi": 71,
      "hit": false,
      "t": 89411.7199999996,
      "d": 882.3524999999936,
      "v": 98
    },
    {
      "midi": 40,
      "hit": false,
      "t": 89411.7199999996,
      "d": 294.117499999993,
      "v": 80
    },
    {
      "midi": 47,
      "hit": false,
      "t": 89705.83749999959,
      "d": 294.117499999993,
      "v": 80
    },
    {
      "midi": 54,
      "hit": false,
      "t": 89999.95499999958,
      "d": 294.117499999993,
      "v": 80
    },
    {
      "midi": 59,
      "hit": false,
      "t": 90294.07249999957,
      "d": 588.2350000000006,
      "v": 80
    },
    {
      "midi": 56,
      "hit": false,
      "t": 90294.07249999957,
      "d": 588.2350000000006,
      "v": 80
    },
    {
      "midi": 68,
      "hit": false,
      "t": 90294.07249999959,
      "d": 147.0587499999965,
      "v": 98
    },
    {
      "midi": 71,
      "hit": false,
      "t": 90441.13124999958,
      "d": 147.0587499999965,
      "v": 98
    },
    {
      "midi": 73,
      "hit": false,
      "t": 90588.18999999958,
      "d": 294.117499999993,
      "v": 98
    },
    {
      "midi": 71,
      "hit": false,
      "t": 90882.30749999957,
      "d": 147.0587499999965,
      "v": 98
    },
    {
      "midi": 47,
      "hit": false,
      "t": 90882.30749999957,
      "d": 294.117499999993,
      "v": 80
    },
    {
      "midi": 70,
      "hit": false,
      "t": 91029.36624999957,
      "d": 294.117499999993,
      "v": 98
    },
    {
      "midi": 52,
      "hit": false,
      "t": 91176.42499999957,
      "d": 294.117499999993,
      "v": 80
    },
    {
      "midi": 71,
      "hit": false,
      "t": 91323.48374999956,
      "d": 147.0587499999965,
      "v": 98
    },
    {
      "midi": 73,
      "hit": false,
      "t": 91470.54249999956,
      "d": 294.117499999993,
      "v": 98
    },
    {
      "midi": 56,
      "hit": false,
      "t": 91470.54249999956,
      "d": 294.117499999993,
      "v": 80
    },
    {
      "midi": 75,
      "hit": false,
      "t": 91764.65999999955,
      "d": 882.3524999999936,
      "v": 98
    },
    {
      "midi": 39,
      "hit": false,
      "t": 91764.65999999955,
      "d": 294.117499999993,
      "v": 80
    },
    {
      "midi": 46,
      "hit": false,
      "t": 92058.77749999955,
      "d": 294.117499999993,
      "v": 80
    },
    {
      "midi": 51,
      "hit": false,
      "t": 92352.89499999954,
      "d": 294.117499999993,
      "v": 80
    },
    {
      "midi": 54,
      "hit": false,
      "t": 92647.01249999953,
      "d": 294.117499999993,
      "v": 80
    },
    {
      "midi": 75,
      "hit": false,
      "t": 92647.01249999955,
      "d": 147.0587499999965,
      "v": 98
    },
    {
      "midi": 75,
      "hit": false,
      "t": 92794.07124999954,
      "d": 147.0587499999965,
      "v": 98
    },
    {
      "midi": 42,
      "hit": false,
      "t": 92941.12999999952,
      "d": 294.117499999993,
      "v": 80
    },
    {
      "midi": 69,
      "hit": false,
      "t": 92941.12999999954,
      "d": 39.215666666670586,
      "v": 98
    },
    {
      "midi": 76,
      "hit": false,
      "t": 92980.34566666621,
      "d": 549.01933333333,
      "v": 98
    },
    {
      "midi": 51,
      "hit": false,
      "t": 93235.24749999952,
      "d": 294.117499999993,
      "v": 80
    },
    {
      "midi": 57,
      "hit": false,
      "t": 93529.36499999951,
      "d": 294.117499999993,
      "v": 80
    },
    {
      "midi": 69,
      "hit": false,
      "t": 93529.36499999954,
      "d": 39.215666666670586,
      "v": 98
    },
    {
      "midi": 78,
      "hit": false,
      "t": 93568.58066666621,
      "d": 549.01933333333,
      "v": 98
    },
    {
      "midi": 61,
      "hit": false,
      "t": 93823.4824999995,
      "d": 294.117499999993,
      "v": 80
    },
    {
      "midi": 52,
      "hit": false,
      "t": 94117.5999999995,
      "d": 2352.9400000000023,
      "v": 80
    },
    {
      "midi": 59,
      "hit": false,
      "t": 94117.5999999995,
      "d": 2352.9400000000023,
      "v": 80
    },
    {
      "midi": 56,
      "hit": false,
      "t": 94117.5999999995,
      "d": 2352.9400000000023,
      "v": 80
    },
    {
      "midi": 64,
      "hit": false,
      "t": 94117.59999999954,
      "d": 1911.7637499999983,
      "v": 98
    },
    {
      "midi": 71,
      "hit": false,
      "t": 94117.59999999954,
      "d": 1911.7637499999983,
      "v": 98
    },
    {
      "midi": 68,
      "hit": false,
      "t": 94117.59999999954,
      "d": 1911.7637499999983,
      "v": 98
    },
    {
      "midi": 71,
      "hit": false,
      "t": 96029.36374999954,
      "d": 147.0587499999965,
      "v": 98
    },
    {
      "midi": 70,
      "hit": false,
      "t": 96176.42249999953,
      "d": 147.0587499999965,
      "v": 98
    },
    {
      "midi": 71,
      "hit": false,
      "t": 96323.48124999953,
      "d": 147.0587499999965,
      "v": 98
    },
    {
      "midi": 42,
      "hit": false,
      "t": 96470.5399999995,
      "d": 294.117499999993,
      "v": 80
    },
    {
      "midi": 66,
      "hit": false,
      "t": 96470.53999999953,
      "d": 24.509791666670935,
      "v": 98
    },
    {
      "midi": 70,
      "hit": false,
      "t": 96495.0497916662,
      "d": 24.509791666670935,
      "v": 98
    },
    {
      "midi": 73,
      "hit": false,
      "t": 96519.55958333287,
      "d": 2303.9204166666605,
      "v": 98
    },
    {
      "midi": 49,
      "hit": false,
      "t": 96764.65749999949,
      "d": 294.117499999993,
      "v": 80
    },
    {
      "midi": 54,
      "hit": false,
      "t": 97058.77499999948,
      "d": 294.117499999993,
      "v": 80
    },
    {
      "midi": 58,
      "hit": false,
      "t": 97352.89249999948,
      "d": 294.117499999993,
      "v": 80
    },
    {
      "midi": 61,
      "hit": false,
      "t": 97647.00999999947,
      "d": 1176.4700000000012,
      "v": 80
    },
    {
      "midi": 47,
      "hit": false,
      "t": 98823.47999999947,
      "d": 294.117499999993,
      "v": 80
    },
    {
      "midi": 54,
      "hit": false,
      "t": 99117.59749999947,
      "d": 294.117499999993,
      "v": 80
    },
    {
      "midi": 61,
      "hit": false,
      "t": 99411.71499999946,
      "d": 294.117499999993,
      "v": 80
    },
    {
      "midi": 63,
      "hit": false,
      "t": 99705.83249999945,
      "d": 588.2350000000006,
      "v": 80
    },
    {
      "midi": 54,
      "hit": false,
      "t": 100294.06749999945,
      "d": 294.117499999993,
      "v": 80
    },
    {
      "midi": 71,
      "hit": false,
      "t": 100294.06749999952,
      "d": 588.2350000000006,
      "v": 98
    },
    {
      "midi": 78,
      "hit": false,
      "t": 100294.06749999952,
      "d": 588.2350000000006,
      "v": 98
    },
    {
      "midi": 75,
      "hit": false,
      "t": 100294.06749999952,
      "d": 588.2350000000006,
      "v": 98
    },
    {
      "midi": 59,
      "hit": false,
      "t": 100588.18499999944,
      "d": 294.117499999993,
      "v": 80
    },
    {
      "midi": 63,
      "hit": false,
      "t": 100882.30249999944,
      "d": 294.117499999993,
      "v": 80
    },
    {
      "midi": 71,
      "hit": false,
      "t": 100882.30249999953,
      "d": 294.117499999993,
      "v": 98
    },
    {
      "midi": 78,
      "hit": false,
      "t": 100882.30249999953,
      "d": 294.117499999993,
      "v": 98
    },
    {
      "midi": 75,
      "hit": false,
      "t": 100882.30249999953,
      "d": 294.117499999993,
      "v": 98
    },
    {
      "midi": 46,
      "hit": false,
      "t": 101176.41999999943,
      "d": 294.117499999993,
      "v": 80
    },
    {
      "midi": 54,
      "hit": false,
      "t": 101470.53749999942,
      "d": 294.117499999993,
      "v": 80
    },
    {
      "midi": 58,
      "hit": false,
      "t": 101764.65499999942,
      "d": 294.117499999993,
      "v": 80
    },
    {
      "midi": 61,
      "hit": false,
      "t": 102058.77249999941,
      "d": 294.117499999993,
      "v": 80
    },
    {
      "midi": 44,
      "hit": false,
      "t": 102352.8899999994,
      "d": 294.117499999993,
      "v": 80
    },
    {
      "midi": 51,
      "hit": false,
      "t": 102647.0074999994,
      "d": 294.117499999993,
      "v": 80
    },
    {
      "midi": 71,
      "hit": false,
      "t": 102647.00749999951,
      "d": 588.2350000000006,
      "v": 98
    },
    {
      "midi": 80,
      "hit": false,
      "t": 102647.00749999951,
      "d": 588.2350000000006,
      "v": 98
    },
    {
      "midi": 75,
      "hit": false,
      "t": 102647.00749999951,
      "d": 588.2350000000006,
      "v": 98
    },
    {
      "midi": 58,
      "hit": false,
      "t": 102941.12499999939,
      "d": 294.117499999993,
      "v": 80
    },
    {
      "midi": 59,
      "hit": false,
      "t": 103235.24249999938,
      "d": 294.117499999993,
      "v": 80
    },
    {
      "midi": 70,
      "hit": false,
      "t": 103235.24249999951,
      "d": 294.117499999993,
      "v": 98
    },
    {
      "midi": 78,
      "hit": false,
      "t": 103235.24249999951,
      "d": 294.117499999993,
      "v": 98
    },
    {
      "midi": 73,
      "hit": false,
      "t": 103235.24249999951,
      "d": 294.117499999993,
      "v": 98
    },
    {
      "midi": 40,
      "hit": false,
      "t": 103529.35999999937,
      "d": 294.117499999993,
      "v": 80
    },
    {
      "midi": 47,
      "hit": false,
      "t": 103823.47749999937,
      "d": 294.117499999993,
      "v": 80
    },
    {
      "midi": 54,
      "hit": false,
      "t": 104117.59499999936,
      "d": 294.117499999993,
      "v": 80
    },
    {
      "midi": 56,
      "hit": false,
      "t": 104411.71249999935,
      "d": 588.2350000000006,
      "v": 80
    },
    {
      "midi": 52,
      "hit": false,
      "t": 104999.94749999935,
      "d": 294.117499999993,
      "v": 80
    },
    {
      "midi": 71,
      "hit": false,
      "t": 104999.9474999995,
      "d": 588.2350000000006,
      "v": 98
    },
    {
      "midi": 78,
      "hit": false,
      "t": 104999.9474999995,
      "d": 588.2350000000006,
      "v": 98
    },
    {
      "midi": 75,
      "hit": false,
      "t": 104999.9474999995,
      "d": 588.2350000000006,
      "v": 98
    },
    {
      "midi": 56,
      "hit": false,
      "t": 105294.06499999935,
      "d": 294.117499999993,
      "v": 80
    },
    {
      "midi": 59,
      "hit": false,
      "t": 105588.18249999934,
      "d": 294.117499999993,
      "v": 80
    },
    {
      "midi": 71,
      "hit": false,
      "t": 105588.1824999995,
      "d": 294.117499999993,
      "v": 98
    },
    {
      "midi": 78,
      "hit": false,
      "t": 105588.1824999995,
      "d": 294.117499999993,
      "v": 98
    },
    {
      "midi": 75,
      "hit": false,
      "t": 105588.1824999995,
      "d": 294.117499999993,
      "v": 98
    },
    {
      "midi": 42,
      "hit": false,
      "t": 105882.29999999933,
      "d": 294.117499999993,
      "v": 80
    },
    {
      "midi": 49,
      "hit": false,
      "t": 106176.41749999933,
      "d": 294.117499999993,
      "v": 80
    },
    {
      "midi": 54,
      "hit": false,
      "t": 106470.53499999932,
      "d": 294.117499999993,
      "v": 80
    },
    {
      "midi": 58,
      "hit": false,
      "t": 106764.65249999931,
      "d": 294.117499999993,
      "v": 80
    },
    {
      "midi": 61,
      "hit": false,
      "t": 107058.7699999993,
      "d": 294.117499999993,
      "v": 80
    },
    {
      "midi": 58,
      "hit": false,
      "t": 107352.8874999993,
      "d": 294.117499999993,
      "v": 80
    },
    {
      "midi": 71,
      "hit": false,
      "t": 107352.88749999949,
      "d": 588.2350000000006,
      "v": 98
    },
    {
      "midi": 80,
      "hit": false,
      "t": 107352.88749999949,
      "d": 588.2350000000006,
      "v": 98
    },
    {
      "midi": 75,
      "hit": false,
      "t": 107352.88749999949,
      "d": 588.2350000000006,
      "v": 98
    },
    {
      "midi": 54,
      "hit": false,
      "t": 107647.00499999929,
      "d": 294.117499999993,
      "v": 80
    },
    {
      "midi": 58,
      "hit": false,
      "t": 107941.12249999928,
      "d": 294.117499999993,
      "v": 80
    },
    {
      "midi": 70,
      "hit": false,
      "t": 107941.12249999949,
      "d": 294.117499999993,
      "v": 98
    },
    {
      "midi": 78,
      "hit": false,
      "t": 107941.12249999949,
      "d": 294.117499999993,
      "v": 98
    },
    {
      "midi": 73,
      "hit": false,
      "t": 107941.12249999949,
      "d": 294.117499999993,
      "v": 98
    },
    {
      "midi": 35,
      "hit": false,
      "t": 108235.23999999928,
      "d": 294.117499999993,
      "v": 80
    },
    {
      "midi": 71,
      "hit": false,
      "t": 108235.23999999948,
      "d": 58.8234999999986,
      "v": 98
    },
    {
      "midi": 75,
      "hit": false,
      "t": 108294.06349999948,
      "d": 58.8234999999986,
      "v": 98
    },
    {
      "midi": 78,
      "hit": false,
      "t": 108352.88699999948,
      "d": 4588.232999999993,
      "v": 98
    },
    {
      "midi": 42,
      "hit": false,
      "t": 108529.35749999927,
      "d": 294.117499999993,
      "v": 80
    },
    {
      "midi": 47,
      "hit": false,
      "t": 108823.47499999926,
      "d": 294.117499999993,
      "v": 80
    },
    {
      "midi": 51,
      "hit": false,
      "t": 109117.59249999926,
      "d": 294.117499999993,
      "v": 80
    },
    {
      "midi": 54,
      "hit": false,
      "t": 109411.70999999925,
      "d": 294.117499999993,
      "v": 80
    },
    {
      "midi": 59,
      "hit": false,
      "t": 109705.82749999924,
      "d": 294.117499999993,
      "v": 80
    },
    {
      "midi": 63,
      "hit": false,
      "t": 109999.94499999924,
      "d": 294.117499999993,
      "v": 80
    },
    {
      "midi": 66,
      "hit": false,
      "t": 110294.06249999923,
      "d": 294.117499999993,
      "v": 80
    },
    {
      "midi": 71,
      "hit": false,
      "t": 110588.17999999922,
      "d": 1176.4700000000012,
      "v": 80
    },
    {
      "midi": 83,
      "hit": false,
      "t": 111764.64999999922,
      "d": 3529.4100000000035,
      "v": 80
    }
  ]
}