{
  "jsonPath": "Animes/Kanon MIDI Collection/fuyu-no-hanabi.json",
  "path": "Animes\\Kanon MIDI Collection\\Fuyu no Hanabi.mid",
  "name": "Fuyu no Hanabi",
  "difficulty": "Advanced",
  "bpm": 100,
  "notes": [
    {
      "midi": 76,
      "hit": false,
      "t": 0,
      "d": 500,
      "v": 98
    },
    {
      "midi": 80,
      "hit": false,
      "t": 0,
      "d": 500,
      "v": 98
    },
    {
      "midi": 76,
      "hit": false,
      "t": 500,
      "d": 500,
      "v": 98
    },
    {
      "midi": 73,
      "hit": false,
      "t": 1000,
      "d": 500,
      "v": 98
    },
    {
      "midi": 71,
      "hit": false,
      "t": 1500,
      "d": 500,
      "v": 98
    },
    {
      "midi": 73,
      "hit": false,
      "t": 2000,
      "d": 500,
      "v": 98
    },
    {
      "midi": 80,
      "hit": false,
      "t": 2500,
      "d": 500,
      "v": 98
    },
    {
      "midi": 73,
      "hit": false,
      "t": 3000,
      "d": 500,
      "v": 98
    },
    {
      "midi": 80,
      "hit": false,
      "t": 3000,
      "d": 500,
      "v": 98
    },
    {
      "midi": 76,
      "hit": false,
      "t": 3500,
      "d": 500,
      "v": 98
    },
    {
      "midi": 73,
      "hit": false,
      "t": 4000,
      "d": 500,
      "v": 98
    },
    {
      "midi": 71,
      "hit": false,
      "t": 4500,
      "d": 500,
      "v": 98
    },
    {
      "midi": 73,
      "hit": false,
      "t": 5000,
      "d": 500,
      "v": 98
    },
    {
      "midi": 80,
      "hit": false,
      "t": 5500,
      "d": 500,
      "v": 98
    },
    {
      "midi": 76,
      "hit": false,
      "t": 6000,
      "d": 500,
      "v": 98
    },
    {
      "midi": 80,
      "hit": false,
      "t": 6000,
      "d": 500,
      "v": 98
    },
    {
      "midi": 76,
      "hit": false,
      "t": 6500,
      "d": 500,
      "v": 98
    },
    {
      "midi": 73,
      "hit": false,
      "t": 7000,
      "d": 500,
      "v": 98
    },
    {
      "midi": 71,
      "hit": false,
      "t": 7500,
      "d": 500,
      "v": 98
    },
    {
      "midi": 73,
      "hit": false,
      "t": 8000,
      "d": 500,
      "v": 98
    },
    {
      "midi": 80,
      "hit": false,
      "t": 8500,
      "d": 500,
      "v": 98
    },
    {
      "midi": 73,
      "hit": false,
      "t": 9000,
      "d": 500,
      "v": 98
    },
    {
      "midi": 80,
      "hit": false,
      "t": 9000,
      "d": 500,
      "v": 98
    },
    {
      "midi": 78,
      "hit": false,
      "t": 9000,
      "d": 500,
      "v": 98
    },
    {
      "midi": 76,
      "hit": false,
      "t": 9500,
      "d": 500,
      "v": 98
    },
    {
      "midi": 73,
      "hit": false,
      "t": 10000,
      "d": 500,
      "v": 98
    },
    {
      "midi": 71,
      "hit": false,
      "t": 10500,
      "d": 500,
      "v": 98
    },
    {
      "midi": 73,
      "hit": false,
      "t": 11000,
      "d": 500,
      "v": 98
    },
    {
      "midi": 80,
      "hit": false,
      "t": 11500,
      "d": 500,
      "v": 98
    },
    {
      "midi": 76,
      "hit": false,
      "t": 12000,
      "d": 500,
      "v": 98
    },
    {
      "midi": 56,
      "hit": false,
      "t": 12000,
      "d": 3000,
      "v": 80
    },
    {
      "midi": 68,
      "hit": false,
      "t": 12000,
      "d": 3000,
      "v": 80
    },
    {
      "midi": 66,
      "hit": false,
      "t": 12000,
      "d": 3000,
      "v": 80
    },
    {
      "midi": 75,
      "hit": false,
      "t": 12500,
      "d": 500,
      "v": 98
    },
    {
      "midi": 73,
      "hit": false,
      "t": 13000,
      "d": 500,
      "v": 98
    },
    {
      "midi": 71,
      "hit": false,
      "t": 13500,
      "d": 500,
      "v": 98
    },
    {
      "midi": 73,
      "hit": false,
      "t": 14000,
      "d": 500,
      "v": 98
    },
    {
      "midi": 76,
      "hit": false,
      "t": 14500,
      "d": 500,
      "v": 98
    },
    {
      "midi": 76,
      "hit": false,
      "t": 15000,
      "d": 500,
      "v": 98
    },
    {
      "midi": 68,
      "hit": false,
      "t": 15000,
      "d": 3000,
      "v": 80
    },
    {
      "midi": 75,
      "hit": false,
      "t": 15500,
      "d": 500,
      "v": 98
    },
    {
      "midi": 73,
      "hit": false,
      "t": 16000,
      "d": 500,
      "v": 98
    },
    {
      "midi": 71,
      "hit": false,
      "t": 16500,
      "d": 500,
      "v": 98
    },
    {
      "midi": 73,
      "hit": false,
      "t": 17000,
      "d": 500,
      "v": 98
    },
    {
      "midi": 76,
      "hit": false,
      "t": 17500,
      "d": 500,
      "v": 98
    },
    {
      "midi": 76,
      "hit": false,
      "t": 18000,
      "d": 500,
      "v": 98
    },
    {
      "midi": 66,
      "hit": false,
      "t": 18000,
      "d": 3000,
      "v": 80
    },
    {
      "midi": 75,
      "hit": false,
      "t": 18500,
      "d": 500,
      "v": 98
    },
    {
      "midi": 73,
      "hit": false,
      "t": 19000,
      "d": 500,
      "v": 98
    },
    {
      "midi": 71,
      "hit": false,
      "t": 19500,
      "d": 500,
      "v": 98
    },
    {
      "midi": 73,
      "hit": false,
      "t": 20000,
      "d": 500,
      "v": 98
    },
    {
      "midi": 76,
      "hit": false,
      "t": 20500,
      "d": 500,
      "v": 98
    },
    {
      "midi": 76,
      "hit": false,
      "t": 21000,
      "d": 500,
      "v": 98
    },
    {
      "midi": 56,
      "hit": false,
      "t": 21000,
      "d": 1000,
      "v": 80
    },
    {
      "midi": 68,
      "hit": false,
      "t": 21000,
      "d": 1000,
      "v": 80
    },
    {
      "midi": 59,
      "hit": false,
      "t": 21000,
      "d": 1000,
      "v": 80
    },
    {
      "midi": 75,
      "hit": false,
      "t": 21500,
      "d": 500,
      "v": 98
    },
    {
      "midi": 73,
      "hit": false,
      "t": 22000,
      "d": 500,
      "v": 98
    },
    {
      "midi": 66,
      "hit": false,
      "t": 22000,
      "d": 2000,
      "v": 80
    },
    {
      "midi": 71,
      "hit": false,
      "t": 22500,
      "d": 500,
      "v": 98
    },
    {
      "midi": 68,
      "hit": false,
      "t": 23000,
      "d": 1000,
      "v": 98
    },
    {
      "midi": 76,
      "hit": false,
      "t": 24000,
      "d": 500,
      "v": 98
    },
    {
      "midi": 80,
      "hit": false,
      "t": 24000,
      "d": 500,
      "v": 98
    },
    {
      "midi": 76,
      "hit": false,
      "t": 24500,
      "d": 500,
      "v": 98
    },
    {
      "midi": 73,
      "hit": false,
      "t": 25000,
      "d": 500,
      "v": 98
    },
    {
      "midi": 71,
      "hit": false,
      "t": 25500,
      "d": 500,
      "v": 98
    },
    {
      "midi": 73,
      "hit": false,
      "t": 26000,
      "d": 500,
      "v": 98
    },
    {
      "midi": 80,
      "hit": false,
      "t": 26500,
      "d": 500,
      "v": 98
    },
    {
      "midi": 73,
      "hit": false,
      "t": 27000,
      "d": 500,
      "v": 98
    },
    {
      "midi": 80,
      "hit": false,
      "t": 27000,
      "d": 500,
      "v": 98
    },
    {
      "midi": 76,
      "hit": false,
      "t": 27500,
      "d": 500,
      "v": 98
    },
    {
      "midi": 73,
      "hit": false,
      "t": 28000,
      "d": 500,
      "v": 98
    },
    {
      "midi": 71,
      "hit": false,
      "t": 28500,
      "d": 500,
      "v": 98
    },
    {
      "midi": 73,
      "hit": false,
      "t": 29000,
      "d": 500,
      "v": 98
    },
    {
      "midi": 80,
      "hit": false,
      "t": 29500,
      "d": 500,
      "v": 98
    },
    {
      "midi": 73,
      "hit": false,
      "t": 30000,
      "d": 500,
      "v": 98
    },
    {
      "midi": 80,
      "hit": false,
      "t": 30000,
      "d": 500,
      "v": 98
    },
    {
      "midi": 76,
      "hit": false,
      "t": 30000,
      "d": 500,
      "v": 98
    },
    {
      "midi": 76,
      "hit": false,
      "t": 30500,
      "d": 500,
      "v": 98
    },
    {
      "midi": 73,
      "hit": false,
      "t": 31000,
      "d": 500,
      "v": 98
    },
    {
      "midi": 71,
      "hit": false,
      "t": 31500,
      "d": 500,
      "v": 98
    },
    {
      "midi": 73,
      "hit": false,
      "t": 32000,
      "d": 500,
      "v": 98
    },
    {
      "midi": 80,
      "hit": false,
      "t": 32500,
      "d": 500,
      "v": 98
    },
    {
      "midi": 78,
      "hit": false,
      "t": 33000,
      "d": 500,
      "v": 98
    },
    {
      "midi": 80,
      "hit": false,
      "t": 33000,
      "d": 500,
      "v": 98
    },
    {
      "midi": 73,
      "hit": false,
      "t": 33000,
      "d": 1000,
      "v": 80
    },
    {
      "midi": 76,
      "hit": false,
      "t": 33500,
      "d": 500,
      "v": 98
    },
    {
      "midi": 73,
      "hit": false,
      "t": 34000,
      "d": 500,
      "v": 98
    },
    {
      "midi": 68,
      "hit": false,
      "t": 34000,
      "d": 1000,
      "v": 80
    },
    {
      "midi": 71,
      "hit": false,
      "t": 34500,
      "d": 500,
      "v": 98
    },
    {
      "midi": 83,
      "hit": false,
      "t": 35000,
      "d": 500,
      "v": 98
    },
    {
      "midi": 73,
      "hit": false,
      "t": 35000,
      "d": 1000,
      "v": 80
    },
    {
      "midi": 80,
      "hit": false,
      "t": 35500,
      "d": 500,
      "v": 98
    },
    {
      "midi": 76,
      "hit": false,
      "t": 36000,
      "d": 500,
      "v": 98
    },
    {
      "midi": 56,
      "hit": false,
      "t": 36000,
      "d": 1000,
      "v": 80
    },
    {
      "midi": 68,
      "hit": false,
      "t": 36000,
      "d": 1000,
      "v": 80
    },
    {
      "midi": 66,
      "hit": false,
      "t": 36000,
      "d": 1000,
      "v": 80
    },
    {
      "midi": 75,
      "hit": false,
      "t": 36500,
      "d": 500,
      "v": 98
    },
    {
      "midi": 73,
      "hit": false,
      "t": 37000,
      "d": 500,
      "v": 98
    },
    {
      "midi": 63,
      "hit": false,
      "t": 37000,
      "d": 2000,
      "v": 80
    },
    {
      "midi": 71,
      "hit": false,
      "t": 37500,
      "d": 500,
      "v": 98
    },
    {
      "midi": 73,
      "hit": false,
      "t": 38000,
      "d": 500,
      "v": 98
    },
    {
      "midi": 76,
      "hit": false,
      "t": 38500,
      "d": 500,
      "v": 98
    },
    {
      "midi": 76,
      "hit": false,
      "t": 39000,
      "d": 500,
      "v": 98
    },
    {
      "midi": 56,
      "hit": false,
      "t": 39000,
      "d": 1000,
      "v": 80
    },
    {
      "midi": 75,
      "hit": false,
      "t": 39500,
      "d": 500,
      "v": 98
    },
    {
      "midi": 73,
      "hit": false,
      "t": 40000,
      "d": 500,
      "v": 98
    },
    {
      "midi": 59,
      "hit": false,
      "t": 40000,
      "d": 2000,
      "v": 80
    },
    {
      "midi": 71,
      "hit": false,
      "t": 40500,
      "d": 500,
      "v": 98
    },
    {
      "midi": 73,
      "hit": false,
      "t": 41000,
      "d": 500,
      "v": 98
    },
    {
      "midi": 76,
      "hit": false,
      "t": 41500,
      "d": 500,
      "v": 98
    },
    {
      "midi": 76,
      "hit": false,
      "t": 42000,
      "d": 500,
      "v": 98
    },
    {
      "midi": 56,
      "hit": false,
      "t": 42000,
      "d": 1000,
      "v": 80
    },
    {
      "midi": 66,
      "hit": false,
      "t": 42000,
      "d": 1000,
      "v": 80
    },
    {
      "midi": 75,
      "hit": false,
      "t": 42500,
      "d": 500,
      "v": 98
    },
    {
      "midi": 73,
      "hit": false,
      "t": 43000,
      "d": 500,
      "v": 98
    },
    {
      "midi": 59,
      "hit": false,
      "t": 43000,
      "d": 2000,
      "v": 80
    },
    {
      "midi": 63,
      "hit": false,
      "t": 43000,
      "d": 2000,
      "v": 80
    },
    {
      "midi": 71,
      "hit": false,
      "t": 43500,
      "d": 500,
      "v": 98
    },
    {
      "midi": 73,
      "hit": false,
      "t": 44000,
      "d": 500,
      "v": 98
    },
    {
      "midi": 76,
      "hit": false,
      "t": 44500,
      "d": 500,
      "v": 98
    },
    {
      "midi": 76,
      "hit": false,
      "t": 45000,
      "d": 500,
      "v": 98
    },
    {
      "midi": 56,
      "hit": false,
      "t": 45000,
      "d": 1000,
      "v": 80
    },
    {
      "midi": 66,
      "hit": false,
      "t": 45000,
      "d": 1000,
      "v": 80
    },
    {
      "midi": 75,
      "hit": false,
      "t": 45500,
      "d": 500,
      "v": 98
    },
    {
      "midi": 73,
      "hit": false,
      "t": 46000,
      "d": 500,
      "v": 98
    },
    {
      "midi": 59,
      "hit": false,
      "t": 46000,
      "d": 2000,
      "v": 80
    },
    {
      "midi": 68,
      "hit": false,
      "t": 46000,
      "d": 2000,
      "v": 80
    },
    {
      "midi": 71,
      "hit": false,
      "t": 46500,
      "d": 500,
      "v": 98
    },
    {
      "midi": 68,
      "hit": false,
      "t": 47000,
      "d": 1000,
      "v": 98
    },
    {
      "midi": 71,
      "hit": false,
      "t": 48000,
      "d": 500,
      "v": 98
    },
    {
      "midi": 57,
      "hit": false,
      "t": 48000,
      "d": 1000,
      "v": 80
    },
    {
      "midi": 69,
      "hit": false,
      "t": 48500,
      "d": 500,
      "v": 98
    },
    {
      "midi": 69,
      "hit": false,
      "t": 49000,
      "d": 500,
      "v": 98
    },
    {
      "midi": 64,
      "hit": false,
      "t": 49000,
      "d": 1000,
      "v": 80
    },
    {
      "midi": 69,
      "hit": false,
      "t": 49500,
      "d": 500,
      "v": 98
    },
    {
      "midi": 71,
      "hit": false,
      "t": 50000,
      "d": 500,
      "v": 98
    },
    {
      "midi": 61,
      "hit": false,
      "t": 50000,
      "d": 1000,
      "v": 80
    },
    {
      "midi": 76,
      "hit": false,
      "t": 50500,
      "d": 500,
      "v": 98
    },
    {
      "midi": 75,
      "hit": false,
      "t": 51000,
      "d": 1000,
      "v": 98
    },
    {
      "midi": 56,
      "hit": false,
      "t": 51000,
      "d": 1000,
      "v": 80
    },
    {
      "midi": 66,
      "hit": false,
      "t": 51000,
      "d": 1000,
      "v": 80
    },
    {
      "midi": 71,
      "hit": false,
      "t": 52000,
      "d": 500,
      "v": 98
    },
    {
      "midi": 59,
      "hit": false,
      "t": 52000,
      "d": 2000,
      "v": 80
    },
    {
      "midi": 66,
      "hit": false,
      "t": 52000,
      "d": 2000,
      "v": 80
    },
    {
      "midi": 68,
      "hit": false,
      "t": 52500,
      "d": 500,
      "v": 98
    },
    {
      "midi": 71,
      "hit": false,
      "t": 53000,
      "d": 1000,
      "v": 98
    },
    {
      "midi": 71,
      "hit": false,
      "t": 54000,
      "d": 500,
      "v": 98
    },
    {
      "midi": 49,
      "hit": false,
      "t": 54000,
      "d": 1000,
      "v": 80
    },
    {
      "midi": 69,
      "hit": false,
      "t": 54500,
      "d": 500,
      "v": 98
    },
    {
      "midi": 69,
      "hit": false,
      "t": 55000,
      "d": 500,
      "v": 98
    },
    {
      "midi": 57,
      "hit": false,
      "t": 55000,
      "d": 1000,
      "v": 80
    },
    {
      "midi": 64,
      "hit": false,
      "t": 55000,
      "d": 1000,
      "v": 80
    },
    {
      "midi": 69,
      "hit": false,
      "t": 55500,
      "d": 500,
      "v": 98
    },
    {
      "midi": 71,
      "hit": false,
      "t": 56000,
      "d": 500,
      "v": 98
    },
    {
      "midi": 64,
      "hit": false,
      "t": 56000,
      "d": 1000,
      "v": 80
    },
    {
      "midi": 78,
      "hit": false,
      "t": 56500,
      "d": 500,
      "v": 98
    },
    {
      "midi": 80,
      "hit": false,
      "t": 57000,
      "d": 1000,
      "v": 98
    },
    {
      "midi": 68,
      "hit": false,
      "t": 57000,
      "d": 1000,
      "v": 98
    },
    {
      "midi": 59,
      "hit": false,
      "t": 57000,
      "d": 1000,
      "v": 80
    },
    {
      "midi": 78,
      "hit": false,
      "t": 58000,
      "d": 500,
      "v": 98
    },
    {
      "midi": 63,
      "hit": false,
      "t": 58000,
      "d": 1000,
      "v": 80
    },
    {
      "midi": 76,
      "hit": false,
      "t": 58500,
      "d": 500,
      "v": 98
    },
    {
      "midi": 78,
      "hit": false,
      "t": 59000,
      "d": 1000,
      "v": 98
    },
    {
      "midi": 66,
      "hit": false,
      "t": 59000,
      "d": 1000,
      "v": 80
    },
    {
      "midi": 69,
      "hit": false,
      "t": 60000,
      "d": 1000,
      "v": 98
    },
    {
      "midi": 80,
      "hit": false,
      "t": 60000,
      "d": 1000,
      "v": 98
    },
    {
      "midi": 57,
      "hit": false,
      "t": 60000,
      "d": 1000,
      "v": 80
    },
    {
      "midi": 69,
      "hit": false,
      "t": 61000,
      "d": 500,
      "v": 98
    },
    {
      "midi": 80,
      "hit": false,
      "t": 61000,
      "d": 500,
      "v": 98
    },
    {
      "midi": 64,
      "hit": false,
      "t": 61000,
      "d": 1000,
      "v": 80
    },
    {
      "midi": 78,
      "hit": false,
      "t": 61500,
      "d": 500,
      "v": 98
    },
    {
      "midi": 80,
      "hit": false,
      "t": 62000,
      "d": 500,
      "v": 98
    },
    {
      "midi": 68,
      "hit": false,
      "t": 62000,
      "d": 1000,
      "v": 80
    },
    {
      "midi": 83,
      "hit": false,
      "t": 62500,
      "d": 500,
      "v": 98
    },
    {
      "midi": 75,
      "hit": false,
      "t": 63000,
      "d": 1000,
      "v": 98
    },
    {
      "midi": 78,
      "hit": false,
      "t": 63000,
      "d": 1000,
      "v": 98
    },
    {
      "midi": 59,
      "hit": false,
      "t": 63000,
      "d": 1000,
      "v": 80
    },
    {
      "midi": 76,
      "hit": false,
      "t": 64000,
      "d": 500,
      "v": 98
    },
    {
      "midi": 63,
      "hit": false,
      "t": 64000,
      "d": 1000,
      "v": 80
    },
    {
      "midi": 75,
      "hit": false,
      "t": 64500,
      "d": 500,
      "v": 98
    },
    {
      "midi": 71,
      "hit": false,
      "t": 65000,
      "d": 500,
      "v": 98
    },
    {
      "midi": 68,
      "hit": false,
      "t": 65000,
      "d": 1000,
      "v": 80
    },
    {
      "midi": 68,
      "hit": false,
      "t": 65500,
      "d": 500,
      "v": 98
    },
    {
      "midi": 68,
      "hit": false,
      "t": 66000,
      "d": 1000,
      "v": 98
    },
    {
      "midi": 73,
      "hit": false,
      "t": 66000,
      "d": 1000,
      "v": 98
    },
    {
      "midi": 65,
      "hit": false,
      "t": 66000,
      "d": 1000,
      "v": 80
    },
    {
      "midi": 73,
      "hit": false,
      "t": 67000,
      "d": 1000,
      "v": 98
    },
    {
      "midi": 78,
      "hit": false,
      "t": 67000,
      "d": 1000,
      "v": 98
    },
    {
      "midi": 66,
      "hit": false,
      "t": 67000,
      "d": 2000,
      "v": 80
    },
    {
      "midi": 73,
      "hit": false,
      "t": 68000,
      "d": 1000,
      "v": 98
    },
    {
      "midi": 80,
      "hit": false,
      "t": 68000,
      "d": 1000,
      "v": 98
    },
    {
      "midi": 77,
      "hit": false,
      "t": 68000,
      "d": 1000,
      "v": 98
    },
    {
      "midi": 73,
      "hit": false,
      "t": 69000,
      "d": 3000,
      "v": 98
    },
    {
      "midi": 77,
      "hit": false,
      "t": 69000,
      "d": 3000,
      "v": 98
    },
    {
      "midi": 68,
      "hit": false,
      "t": 69000,
      "d": 3000,
      "v": 80
    },
    {
      "midi": 92,
      "hit": false,
      "t": 72000,
      "d": 500,
      "v": 98
    },
    {
      "midi": 69,
      "hit": false,
      "t": 72000,
      "d": 500,
      "v": 80
    },
    {
      "midi": 88,
      "hit": false,
      "t": 72500,
      "d": 500,
      "v": 98
    },
    {
      "midi": 73,
      "hit": false,
      "t": 72500,
      "d": 500,
      "v": 80
    },
    {
      "midi": 85,
      "hit": false,
      "t": 73000,
      "d": 500,
      "v": 98
    },
    {
      "midi": 76,
      "hit": false,
      "t": 73000,
      "d": 500,
      "v": 80
    },
    {
      "midi": 83,
      "hit": false,
      "t": 73500,
      "d": 500,
      "v": 98
    },
    {
      "midi": 73,
      "hit": false,
      "t": 73500,
      "d": 500,
      "v": 80
    },
    {
      "midi": 85,
      "hit": false,
      "t": 74000,
      "d": 500,
      "v": 98
    },
    {
      "midi": 80,
      "hit": false,
      "t": 74000,
      "d": 500,
      "v": 80
    },
    {
      "midi": 92,
      "hit": false,
      "t": 74500,
      "d": 500,
      "v": 98
    },
    {
      "midi": 76,
      "hit": false,
      "t": 74500,
      "d": 500,
      "v": 80
    },
    {
      "midi": 92,
      "hit": false,
      "t": 75000,
      "d": 500,
      "v": 98
    },
    {
      "midi": 69,
      "hit": false,
      "t": 75000,
      "d": 500,
      "v": 80
    },
    {
      "midi": 88,
      "hit": false,
      "t": 75500,
      "d": 500,
      "v": 98
    },
    {
      "midi": 73,
      "hit": false,
      "t": 75500,
      "d": 500,
      "v": 80
    },
    {
      "midi": 85,
      "hit": false,
      "t": 76000,
      "d": 500,
      "v": 98
    },
    {
      "midi": 76,
      "hit": false,
      "t": 76000,
      "d": 500,
      "v": 80
    },
    {
      "midi": 83,
      "hit": false,
      "t": 76500,
      "d": 500,
      "v": 98
    },
    {
      "midi": 73,
      "hit": false,
      "t": 76500,
      "d": 500,
      "v": 80
    },
    {
      "midi": 85,
      "hit": false,
      "t": 77000,
      "d": 500,
      "v": 98
    },
    {
      "midi": 80,
      "hit": false,
      "t": 77000,
      "d": 500,
      "v": 80
    },
    {
      "midi": 92,
      "hit": false,
      "t": 77500,
      "d": 500,
      "v": 98
    },
    {
      "midi": 76,
      "hit": false,
      "t": 77500,
      "d": 500,
      "v": 80
    },
    {
      "midi": 92,
      "hit": false,
      "t": 78000,
      "d": 500,
      "v": 98
    },
    {
      "midi": 69,
      "hit": false,
      "t": 78000,
      "d": 500,
      "v": 80
    },
    {
      "midi": 88,
      "hit": false,
      "t": 78500,
      "d": 500,
      "v": 98
    },
    {
      "midi": 73,
      "hit": false,
      "t": 78500,
      "d": 500,
      "v": 80
    },
    {
      "midi": 85,
      "hit": false,
      "t": 79000,
      "d": 500,
      "v": 98
    },
    {
      "midi": 76,
      "hit": false,
      "t": 79000,
      "d": 500,
      "v": 80
    },
    {
      "midi": 83,
      "hit": false,
      "t": 79500,
      "d": 500,
      "v": 98
    },
    {
      "midi": 73,
      "hit": false,
      "t": 79500,
      "d": 500,
      "v": 80
    },
    {
      "midi": 85,
      "hit": false,
      "t": 80000,
      "d": 500,
      "v": 98
    },
    {
      "midi": 80,
      "hit": false,
      "t": 80000,
      "d": 500,
      "v": 80
    },
    {
      "midi": 92,
      "hit": false,
      "t": 80500,
      "d": 500,
      "v": 98
    },
    {
      "midi": 76,
      "hit": false,
      "t": 80500,
      "d": 500,
      "v": 80
    },
    {
      "midi": 92,
      "hit": false,
      "t": 81000,
      "d": 500,
      "v": 98
    },
    {
      "midi": 69,
      "hit": false,
      "t": 81000,
      "d": 500,
      "v": 80
    },
    {
      "midi": 88,
      "hit": false,
      "t": 81500,
      "d": 500,
      "v": 98
    },
    {
      "midi": 73,
      "hit": false,
      "t": 81500,
      "d": 500,
      "v": 80
    },
    {
      "midi": 85,
      "hit": false,
      "t": 82000,
      "d": 500,
      "v": 98
    },
    {
      "midi": 76,
      "hit": false,
      "t": 82000,
      "d": 500,
      "v": 80
    },
    {
      "midi": 83,
      "hit": false,
      "t": 82500,
      "d": 500,
      "v": 98
    },
    {
      "midi": 73,
      "hit": false,
      "t": 82500,
      "d": 500,
      "v": 80
    },
    {
      "midi": 85,
      "hit": false,
      "t": 83000,
      "d": 500,
      "v": 98
    },
    {
      "midi": 80,
      "hit": false,
      "t": 83000,
      "d": 500,
      "v": 80
    },
    {
      "midi": 92,
      "hit": false,
      "t": 83500,
      "d": 500,
      "v": 98
    },
    {
      "midi": 76,
      "hit": false,
      "t": 83500,
      "d": 500,
      "v": 80
    },
    {
      "midi": 88,
      "hit": false,
      "t": 84000,
      "d": 500,
      "v": 98
    },
    {
      "midi": 68,
      "hit": false,
      "t": 84000,
      "d": 500,
      "v": 80
    },
    {
      "midi": 87,
      "hit": false,
      "t": 84500,
      "d": 500,
      "v": 98
    },
    {
      "midi": 71,
      "hit": false,
      "t": 84500,
      "d": 500,
      "v": 80
    },
    {
      "midi": 85,
      "hit": false,
      "t": 85000,
      "d": 500,
      "v": 98
    },
    {
      "midi": 75,
      "hit": false,
      "t": 85000,
      "d": 500,
      "v": 80
    },
    {
      "midi": 83,
      "hit": false,
      "t": 85500,
      "d": 500,
      "v": 98
    },
    {
      "midi": 71,
      "hit": false,
      "t": 85500,
      "d": 500,
      "v": 80
    },
    {
      "midi": 85,
      "hit": false,
      "t": 86000,
      "d": 500,
      "v": 98
    },
    {
      "midi": 78,
      "hit": false,
      "t": 86000,
      "d": 500,
      "v": 80
    },
    {
      "midi": 88,
      "hit": false,
      "t": 86500,
      "d": 500,
      "v": 98
    },
    {
      "midi": 75,
      "hit": false,
      "t": 86500,
      "d": 500,
      "v": 80
    },
    {
      "midi": 88,
      "hit": false,
      "t": 87000,
      "d": 500,
      "v": 98
    },
    {
      "midi": 68,
      "hit": false,
      "t": 87000,
      "d": 500,
      "v": 80
    },
    {
      "midi": 87,
      "hit": false,
      "t": 87500,
      "d": 500,
      "v": 98
    },
    {
      "midi": 71,
      "hit": false,
      "t": 87500,
      "d": 500,
      "v": 80
    },
    {
      "midi": 85,
      "hit": false,
      "t": 88000,
      "d": 500,
      "v": 98
    },
    {
      "midi": 75,
      "hit": false,
      "t": 88000,
      "d": 500,
      "v": 80
    },
    {
      "midi": 83,
      "hit": false,
      "t": 88500,
      "d": 500,
      "v": 98
    },
    {
      "midi": 71,
      "hit": false,
      "t": 88500,
      "d": 500,
      "v": 80
    },
    {
      "midi": 85,
      "hit": false,
      "t": 89000,
      "d": 500,
      "v": 98
    },
    {
      "midi": 78,
      "hit": false,
      "t": 89000,
      "d": 500,
      "v": 80
    },
    {
      "midi": 88,
      "hit": false,
      "t": 89500,
      "d": 500,
      "v": 98
    },
    {
      "midi": 75,
      "hit": false,
      "t": 89500,
      "d": 500,
      "v": 80
    },
    {
      "midi": 88,
      "hit": false,
      "t": 90000,
      "d": 500,
      "v": 98
    },
    {
      "midi": 68,
      "hit": false,
      "t": 90000,
      "d": 500,
      "v": 80
    },
    {
      "midi": 87,
      "hit": false,
      "t": 90500,
      "d": 500,
      "v": 98
    },
    {
      "midi": 71,
      "hit": false,
      "t": 90500,
      "d": 500,
      "v": 80
    },
    {
      "midi": 85,
      "hit": false,
      "t": 91000,
      "d": 500,
      "v": 98
    },
    {
      "midi": 75,
      "hit": false,
      "t": 91000,
      "d": 500,
      "v": 80
    },
    {
      "midi": 83,
      "hit": false,
      "t": 91500,
      "d": 500,
      "v": 98
    },
    {
      "midi": 71,
      "hit": false,
      "t": 91500,
      "d": 500,
      "v": 80
    },
    {
      "midi": 85,
      "hit": false,
      "t": 92000,
      "d": 500,
      "v": 98
    },
    {
      "midi": 78,
      "hit": false,
      "t": 92000,
      "d": 500,
      "v": 80
    },
    {
      "midi": 88,
      "hit": false,
      "t": 92500,
      "d": 500,
      "v": 98
    },
    {
      "midi": 75,
      "hit": false,
      "t": 92500,
      "d": 500,
      "v": 80
    },
    {
      "midi": 88,
      "hit": false,
      "t": 93000,
      "d": 500,
      "v": 98
    },
    {
      "midi": 68,
      "hit": false,
      "t": 93000,
      "d": 500,
      "v": 80
    },
    {
      "midi": 87,
      "hit": false,
      "t": 93500,
      "d": 500,
      "v": 98
    },
    {
      "midi": 71,
      "hit": false,
      "t": 93500,
      "d": 500,
      "v": 80
    },
    {
      "midi": 85,
      "hit": false,
      "t": 94000,
      "d": 500,
      "v": 98
    },
    {
      "midi": 75,
      "hit": false,
      "t": 94000,
      "d": 500,
      "v": 80
    },
    {
      "midi": 83,
      "hit": false,
      "t": 94500,
      "d": 500,
      "v": 98
    },
    {
      "midi": 71,
      "hit": false,
      "t": 94500,
      "d": 500,
      "v": 80
    },
    {
      "midi": 80,
      "hit": false,
      "t": 95000,
      "d": 500,
      "v": 98
    },
    {
      "midi": 75,
      "hit": false,
      "t": 95000,
      "d": 1000,
      "v": 80
    },
    {
      "midi": 78,
      "hit": false,
      "t": 95500,
      "d": 500,
      "v": 98
    },
    {
      "midi": 92,
      "hit": false,
      "t": 96000,
      "d": 500,
      "v": 98
    },
    {
      "midi": 69,
      "hit": false,
      "t": 96000,
      "d": 500,
      "v": 80
    },
    {
      "midi": 88,
      "hit": false,
      "t": 96500,
      "d": 500,
      "v": 98
    },
    {
      "midi": 73,
      "hit": false,
      "t": 96500,
      "d": 500,
      "v": 80
    },
    {
      "midi": 85,
      "hit": false,
      "t": 97000,
      "d": 500,
      "v": 98
    },
    {
      "midi": 76,
      "hit": false,
      "t": 97000,
      "d": 500,
      "v": 80
    },
    {
      "midi": 83,
      "hit": false,
      "t": 97500,
      "d": 500,
      "v": 98
    },
    {
      "midi": 73,
      "hit": false,
      "t": 97500,
      "d": 500,
      "v": 80
    },
    {
      "midi": 85,
      "hit": false,
      "t": 98000,
      "d": 500,
      "v": 98
    },
    {
      "midi": 80,
      "hit": false,
      "t": 98000,
      "d": 500,
      "v": 80
    },
    {
      "midi": 92,
      "hit": false,
      "t": 98500,
      "d": 500,
      "v": 98
    },
    {
      "midi": 76,
      "hit": false,
      "t": 98500,
      "d": 500,
      "v": 80
    },
    {
      "midi": 92,
      "hit": false,
      "t": 99000,
      "d": 500,
      "v": 98
    },
    {
      "midi": 69,
      "hit": false,
      "t": 99000,
      "d": 500,
      "v": 80
    },
    {
      "midi": 88,
      "hit": false,
      "t": 99500,
      "d": 500,
      "v": 98
    },
    {
      "midi": 73,
      "hit": false,
      "t": 99500,
      "d": 500,
      "v": 80
    },
    {
      "midi": 85,
      "hit": false,
      "t": 100000,
      "d": 500,
      "v": 98
    },
    {
      "midi": 76,
      "hit": false,
      "t": 100000,
      "d": 500,
      "v": 80
    },
    {
      "midi": 83,
      "hit": false,
      "t": 100500,
      "d": 500,
      "v": 98
    },
    {
      "midi": 73,
      "hit": false,
      "t": 100500,
      "d": 500,
      "v": 80
    },
    {
      "midi": 85,
      "hit": false,
      "t": 101000,
      "d": 500,
      "v": 98
    },
    {
      "midi": 80,
      "hit": false,
      "t": 101000,
      "d": 500,
      "v": 80
    },
    {
      "midi": 92,
      "hit": false,
      "t": 101500,
      "d": 500,
      "v": 98
    },
    {
      "midi": 76,
      "hit": false,
      "t": 101500,
      "d": 500,
      "v": 80
    },
    {
      "midi": 92,
      "hit": false,
      "t": 102000,
      "d": 500,
      "v": 98
    },
    {
      "midi": 69,
      "hit": false,
      "t": 102000,
      "d": 500,
      "v": 80
    },
    {
      "midi": 88,
      "hit": false,
      "t": 102500,
      "d": 500,
      "v": 98
    },
    {
      "midi": 73,
      "hit": false,
      "t": 102500,
      "d": 500,
      "v": 80
    },
    {
      "midi": 85,
      "hit": false,
      "t": 103000,
      "d": 500,
      "v": 98
    },
    {
      "midi": 76,
      "hit": false,
      "t": 103000,
      "d": 500,
      "v": 80
    },
    {
      "midi": 83,
      "hit": false,
      "t": 103500,
      "d": 500,
      "v": 98
    },
    {
      "midi": 73,
      "hit": false,
      "t": 103500,
      "d": 500,
      "v": 80
    },
    {
      "midi": 85,
      "hit": false,
      "t": 104000,
      "d": 500,
      "v": 98
    },
    {
      "midi": 80,
      "hit": false,
      "t": 104000,
      "d": 500,
      "v": 80
    },
    {
      "midi": 92,
      "hit": false,
      "t": 104500,
      "d": 500,
      "v": 98
    },
    {
      "midi": 76,
      "hit": false,
      "t": 104500,
      "d": 500,
      "v": 80
    },
    {
      "midi": 92,
      "hit": false,
      "t": 105000,
      "d": 500,
      "v": 98
    },
    {
      "midi": 69,
      "hit": false,
      "t": 105000,
      "d": 500,
      "v": 80
    },
    {
      "midi": 88,
      "hit": false,
      "t": 105500,
      "d": 500,
      "v": 98
    },
    {
      "midi": 73,
      "hit": false,
      "t": 105500,
      "d": 500,
      "v": 80
    },
    {
      "midi": 85,
      "hit": false,
      "t": 106000,
      "d": 500,
      "v": 98
    },
    {
      "midi": 76,
      "hit": false,
      "t": 106000,
      "d": 500,
      "v": 80
    },
    {
      "midi": 83,
      "hit": false,
      "t": 106500,
      "d": 500,
      "v": 98
    },
    {
      "midi": 73,
      "hit": false,
      "t": 106500,
      "d": 500,
      "v": 80
    },
    {
      "midi": 95,
      "hit": false,
      "t": 107000,
      "d": 500,
      "v": 98
    },
    {
      "midi": 80,
      "hit": false,
      "t": 107000,
      "d": 500,
      "v": 80
    },
    {
      "midi": 92,
      "hit": false,
      "t": 107500,
      "d": 500,
      "v": 98
    },
    {
      "midi": 76,
      "hit": false,
      "t": 107500,
      "d": 500,
      "v": 80
    },
    {
      "midi": 88,
      "hit": false,
      "t": 108000,
      "d": 500,
      "v": 98
    },
    {
      "midi": 68,
      "hit": false,
      "t": 108000,
      "d": 500,
      "v": 80
    },
    {
      "midi": 87,
      "hit": false,
      "t": 108500,
      "d": 500,
      "v": 98
    },
    {
      "midi": 71,
      "hit": false,
      "t": 108500,
      "d": 500,
      "v": 80
    },
    {
      "midi": 85,
      "hit": false,
      "t": 109000,
      "d": 500,
      "v": 98
    },
    {
      "midi": 75,
      "hit": false,
      "t": 109000,
      "d": 500,
      "v": 80
    },
    {
      "midi": 83,
      "hit": false,
      "t": 109500,
      "d": 500,
      "v": 98
    },
    {
      "midi": 71,
      "hit": false,
      "t": 109500,
      "d": 500,
      "v": 80
    },
    {
      "midi": 85,
      "hit": false,
      "t": 110000,
      "d": 500,
      "v": 98
    },
    {
      "midi": 78,
      "hit": false,
      "t": 110000,
      "d": 500,
      "v": 80
    },
    {
      "midi": 88,
      "hit": false,
      "t": 110500,
      "d": 500,
      "v": 98
    },
    {
      "midi": 75,
      "hit": false,
      "t": 110500,
      "d": 500,
      "v": 80
    },
    {
      "midi": 88,
      "hit": false,
      "t": 111000,
      "d": 500,
      "v": 98
    },
    {
      "midi": 68,
      "hit": false,
      "t": 111000,
      "d": 500,
      "v": 80
    },
    {
      "midi": 87,
      "hit": false,
      "t": 111500,
      "d": 500,
      "v": 98
    },
    {
      "midi": 71,
      "hit": false,
      "t": 111500,
      "d": 500,
      "v": 80
    },
    {
      "midi": 85,
      "hit": false,
      "t": 112000,
      "d": 500,
      "v": 98
    },
    {
      "midi": 75,
      "hit": false,
      "t": 112000,
      "d": 500,
      "v": 80
    },
    {
      "midi": 83,
      "hit": false,
      "t": 112500,
      "d": 500,
      "v": 98
    },
    {
      "midi": 71,
      "hit": false,
      "t": 112500,
      "d": 500,
      "v": 80
    },
    {
      "midi": 85,
      "hit": false,
      "t": 113000,
      "d": 500,
      "v": 98
    },
    {
      "midi": 78,
      "hit": false,
      "t": 113000,
      "d": 500,
      "v": 80
    },
    {
      "midi": 88,
      "hit": false,
      "t": 113500,
      "d": 500,
      "v": 98
    },
    {
      "midi": 75,
      "hit": false,
      "t": 113500,
      "d": 500,
      "v": 80
    },
    {
      "midi": 88,
      "hit": false,
      "t": 114000,
      "d": 500,
      "v": 98
    },
    {
      "midi": 68,
      "hit": false,
      "t": 114000,
      "d": 500,
      "v": 80
    },
    {
      "midi": 87,
      "hit": false,
      "t": 114500,
      "d": 500,
      "v": 98
    },
    {
      "midi": 71,
      "hit": false,
      "t": 114500,
      "d": 500,
      "v": 80
    },
    {
      "midi": 85,
      "hit": false,
      "t": 115000,
      "d": 500,
      "v": 98
    },
    {
      "midi": 75,
      "hit": false,
      "t": 115000,
      "d": 500,
      "v": 80
    },
    {
      "midi": 83,
      "hit": false,
      "t": 115500,
      "d": 500,
      "v": 98
    },
    {
      "midi": 71,
      "hit": false,
      "t": 115500,
      "d": 500,
      "v": 80
    },
    {
      "midi": 85,
      "hit": false,
      "t": 116000,
      "d": 500,
      "v": 98
    },
    {
      "midi": 78,
      "hit": false,
      "t": 116000,
      "d": 500,
      "v": 80
    },
    {
      "midi": 88,
      "hit": false,
      "t": 116500,
      "d": 500,
      "v": 98
    },
    {
      "midi": 75,
      "hit": false,
      "t": 116500,
      "d": 500,
      "v": 80
    },
    {
      "midi": 88,
      "hit": false,
      "t": 117000,
      "d": 500,
      "v": 98
    },
    {
      "midi": 68,
      "hit": false,
      "t": 117000,
      "d": 500,
      "v": 80
    },
    {
      "midi": 87,
      "hit": false,
      "t": 117500,
      "d": 500,
      "v": 98
    },
    {
      "midi": 71,
      "hit": false,
      "t": 117500,
      "d": 500,
      "v": 80
    },
    {
      "midi": 85,
      "hit": false,
      "t": 118000,
      "d": 500,
      "v": 98
    },
    {
      "midi": 75,
      "hit": false,
      "t": 118000,
      "d": 500,
      "v": 80
    },
    {
      "midi": 83,
      "hit": false,
      "t": 118500,
      "d": 500,
      "v": 98
    },
    {
      "midi": 71,
      "hit": false,
      "t": 118500,
      "d": 500,
      "v": 80
    },
    {
      "midi": 80,
      "hit": false,
      "t": 119000,
      "d": 500,
      "v": 98
    },
    {
      "midi": 75,
      "hit": false,
      "t": 119000,
      "d": 1000,
      "v": 80
    },
    {
      "midi": 78,
      "hit": false,
      "t": 119500,
      "d": 500,
      "v": 98
    },
    {
      "midi": 83,
      "hit": false,
      "t": 120000,
      "d": 500,
      "v": 98
    },
    {
      "midi": 57,
      "hit": false,
      "t": 120000,
      "d": 500,
      "v": 80
    },
    {
      "midi": 81,
      "hit": false,
      "t": 120500,
      "d": 500,
      "v": 98
    },
    {
      "midi": 64,
      "hit": false,
      "t": 120500,
      "d": 500,
      "v": 80
    },
    {
      "midi": 81,
      "hit": false,
      "t": 121000,
      "d": 500,
      "v": 98
    },
    {
      "midi": 71,
      "hit": false,
      "t": 121000,
      "d": 500,
      "v": 80
    },
    {
      "midi": 81,
      "hit": false,
      "t": 121500,
      "d": 500,
      "v": 98
    },
    {
      "midi": 73,
      "hit": false,
      "t": 121500,
      "d": 500,
      "v": 80
    },
    {
      "midi": 83,
      "hit": false,
      "t": 122000,
      "d": 500,
      "v": 98
    },
    {
      "midi": 69,
      "hit": false,
      "t": 122000,
      "d": 500,
      "v": 80
    },
    {
      "midi": 88,
      "hit": false,
      "t": 122500,
      "d": 500,
      "v": 98
    },
    {
      "midi": 73,
      "hit": false,
      "t": 122500,
      "d": 500,
      "v": 80
    },
    {
      "midi": 87,
      "hit": false,
      "t": 123000,
      "d": 1000,
      "v": 98
    },
    {
      "midi": 56,
      "hit": false,
      "t": 123000,
      "d": 500,
      "v": 80
    },
    {
      "midi": 63,
      "hit": false,
      "t": 123500,
      "d": 500,
      "v": 80
    },
    {
      "midi": 83,
      "hit": false,
      "t": 124000,
      "d": 500,
      "v": 98
    },
    {
      "midi": 68,
      "hit": false,
      "t": 124000,
      "d": 500,
      "v": 80
    },
    {
      "midi": 80,
      "hit": false,
      "t": 124500,
      "d": 500,
      "v": 98
    },
    {
      "midi": 71,
      "hit": false,
      "t": 124500,
      "d": 500,
      "v": 80
    },
    {
      "midi": 83,
      "hit": false,
      "t": 125000,
      "d": 1000,
      "v": 98
    },
    {
      "midi": 68,
      "hit": false,
      "t": 125000,
      "d": 500,
      "v": 80
    },
    {
      "midi": 63,
      "hit": false,
      "t": 125500,
      "d": 500,
      "v": 80
    },
    {
      "midi": 83,
      "hit": false,
      "t": 126000,
      "d": 500,
      "v": 98
    },
    {
      "midi": 49,
      "hit": false,
      "t": 126000,
      "d": 500,
      "v": 80
    },
    {
      "midi": 81,
      "hit": false,
      "t": 126500,
      "d": 500,
      "v": 98
    },
    {
      "midi": 56,
      "hit": false,
      "t": 126500,
      "d": 500,
      "v": 80
    },
    {
      "midi": 81,
      "hit": false,
      "t": 127000,
      "d": 500,
      "v": 98
    },
    {
      "midi": 61,
      "hit": false,
      "t": 127000,
      "d": 500,
      "v": 80
    },
    {
      "midi": 81,
      "hit": false,
      "t": 127500,
      "d": 500,
      "v": 98
    },
    {
      "midi": 64,
      "hit": false,
      "t": 127500,
      "d": 500,
      "v": 80
    },
    {
      "midi": 83,
      "hit": false,
      "t": 128000,
      "d": 500,
      "v": 98
    },
    {
      "midi": 68,
      "hit": false,
      "t": 128000,
      "d": 500,
      "v": 80
    },
    {
      "midi": 90,
      "hit": false,
      "t": 128500,
      "d": 500,
      "v": 98
    },
    {
      "midi": 69,
      "hit": false,
      "t": 128500,
      "d": 500,
      "v": 80
    },
    {
      "midi": 92,
      "hit": false,
      "t": 129000,
      "d": 1000,
      "v": 98
    },
    {
      "midi": 56,
      "hit": false,
      "t": 129000,
      "d": 500,
      "v": 80
    },
    {
      "midi": 63,
      "hit": false,
      "t": 129500,
      "d": 500,
      "v": 80
    },
    {
      "midi": 90,
      "hit": false,
      "t": 130000,
      "d": 500,
      "v": 98
    },
    {
      "midi": 68,
      "hit": false,
      "t": 130000,
      "d": 500,
      "v": 80
    },
    {
      "midi": 88,
      "hit": false,
      "t": 130500,
      "d": 500,
      "v": 98
    },
    {
      "midi": 75,
      "hit": false,
      "t": 130500,
      "d": 500,
      "v": 80
    },
    {
      "midi": 90,
      "hit": false,
      "t": 131000,
      "d": 1000,
      "v": 98
    },
    {
      "midi": 68,
      "hit": false,
      "t": 131000,
      "d": 500,
      "v": 80
    },
    {
      "midi": 63,
      "hit": false,
      "t": 131500,
      "d": 500,
      "v": 80
    },
    {
      "midi": 92,
      "hit": false,
      "t": 132000,
      "d": 1000,
      "v": 98
    },
    {
      "midi": 57,
      "hit": false,
      "t": 132000,
      "d": 500,
      "v": 80
    },
    {
      "midi": 64,
      "hit": false,
      "t": 132500,
      "d": 500,
      "v": 80
    },
    {
      "midi": 92,
      "hit": false,
      "t": 133000,
      "d": 500,
      "v": 98
    },
    {
      "midi": 73,
      "hit": false,
      "t": 133000,
      "d": 500,
      "v": 80
    },
    {
      "midi": 90,
      "hit": false,
      "t": 133500,
      "d": 500,
      "v": 98
    },
    {
      "midi": 69,
      "hit": false,
      "t": 133500,
      "d": 500,
      "v": 80
    },
    {
      "midi": 92,
      "hit": false,
      "t": 134000,
      "d": 500,
      "v": 98
    },
    {
      "midi": 76,
      "hit": false,
      "t": 134000,
      "d": 500,
      "v": 80
    },
    {
      "midi": 95,
      "hit": false,
      "t": 134500,
      "d": 500,
      "v": 98
    },
    {
      "midi": 73,
      "hit": false,
      "t": 134500,
      "d": 500,
      "v": 80
    },
    {
      "midi": 90,
      "hit": false,
      "t": 135000,
      "d": 1000,
      "v": 98
    },
    {
      "midi": 56,
      "hit": false,
      "t": 135000,
      "d": 500,
      "v": 80
    },
    {
      "midi": 63,
      "hit": false,
      "t": 135500,
      "d": 500,
      "v": 80
    },
    {
      "midi": 88,
      "hit": false,
      "t": 136000,
      "d": 500,
      "v": 98
    },
    {
      "midi": 71,
      "hit": false,
      "t": 136000,
      "d": 500,
      "v": 80
    },
    {
      "midi": 87,
      "hit": false,
      "t": 136500,
      "d": 500,
      "v": 98
    },
    {
      "midi": 68,
      "hit": false,
      "t": 136500,
      "d": 500,
      "v": 80
    },
    {
      "midi": 83,
      "hit": false,
      "t": 137000,
      "d": 500,
      "v": 98
    },
    {
      "midi": 75,
      "hit": false,
      "t": 137000,
      "d": 500,
      "v": 80
    },
    {
      "midi": 80,
      "hit": false,
      "t": 137500,
      "d": 500,
      "v": 98
    },
    {
      "midi": 71,
      "hit": false,
      "t": 137500,
      "d": 500,
      "v": 80
    },
    {
      "midi": 77,
      "hit": false,
      "t": 138000,
      "d": 66.66666666665697,
      "v": 98
    },
    {
      "midi": 49,
      "hit": false,
      "t": 138000,
      "d": 500,
      "v": 80
    },
    {
      "midi": 80,
      "hit": false,
      "t": 138066.66666666666,
      "d": 66.66666666665697,
      "v": 98
    },
    {
      "midi": 85,
      "hit": false,
      "t": 138133.3333333333,
      "d": 858.333333333343,
      "v": 98
    },
    {
      "midi": 68,
      "hit": false,
      "t": 138500,
      "d": 500,
      "v": 80
    },
    {
      "midi": 85,
      "hit": false,
      "t": 138991.66666666666,
      "d": 66.66666666665697,
      "v": 98
    },
    {
      "midi": 65,
      "hit": false,
      "t": 139000,
      "d": 500,
      "v": 80
    },
    {
      "midi": 90,
      "hit": false,
      "t": 139058.3333333333,
      "d": 933.333333333343,
      "v": 98
    },
    {
      "midi": 61,
      "hit": false,
      "t": 139500,
      "d": 500,
      "v": 80
    },
    {
      "midi": 85,
      "hit": false,
      "t": 139991.66666666666,
      "d": 66.66666666665697,
      "v": 98
    },
    {
      "midi": 65,
      "hit": false,
      "t": 140000,
      "d": 500,
      "v": 80
    },
    {
      "midi": 89,
      "hit": false,
      "t": 140058.3333333333,
      "d": 66.66666666665697,
      "v": 98
    },
    {
      "midi": 92,
      "hit": false,
      "t": 140124.99999999997,
      "d": 858.333333333343,
      "v": 98
    },
    {
      "midi": 68,
      "hit": false,
      "t": 140500,
      "d": 500,
      "v": 80
    },
    {
      "midi": 80,
      "hit": false,
      "t": 140983.3333333333,
      "d": 66.66666666665697,
      "v": 98
    },
    {
      "midi": 73,
      "hit": false,
      "t": 141000,
      "d": 3000,
      "v": 80
    },
    {
      "midi": 85,
      "hit": false,
      "t": 141049.99999999997,
      "d": 66.66666666665697,
      "v": 98
    },
    {
      "midi": 89,
      "hit": false,
      "t": 141116.66666666663,
      "d": 2858.333333333343,
      "v": 98
    },
    {
      "midi": 45,
      "hit": false,
      "t": 144000,
      "d": 500,
      "v": 80
    },
    {
      "midi": 76,
      "hit": false,
      "t": 144474.99999999997,
      "d": 500,
      "v": 98
    },
    {
      "midi": 52,
      "hit": false,
      "t": 144500,
      "d": 500,
      "v": 80
    },
    {
      "midi": 78,
      "hit": false,
      "t": 144974.99999999997,
      "d": 500,
      "v": 98
    },
    {
      "midi": 59,
      "hit": false,
      "t": 145000,
      "d": 500,
      "v": 80
    },
    {
      "midi": 80,
      "hit": false,
      "t": 145474.99999999997,
      "d": 5000,
      "v": 98
    },
    {
      "midi": 61,
      "hit": false,
      "t": 145500,
      "d": 2000,
      "v": 80
    },
    {
      "midi": 57,
      "hit": false,
      "t": 147500,
      "d": 500,
      "v": 80
    },
    {
      "midi": 61,
      "hit": false,
      "t": 148000,
      "d": 500,
      "v": 80
    },
    {
      "midi": 64,
      "hit": false,
      "t": 148500,
      "d": 500,
      "v": 80
    },
    {
      "midi": 61,
      "hit": false,
      "t": 149000,
      "d": 500,
      "v": 80
    },
    {
      "midi": 64,
      "hit": false,
      "t": 149500,
      "d": 500,
      "v": 80
    },
    {
      "midi": 68,
      "hit": false,
      "t": 150000,
      "d": 500,
      "v": 80
    },
    {
      "midi": 45,
      "hit": false,
      "t": 150500,
      "d": 500,
      "v": 80
    },
    {
      "midi": 52,
      "hit": false,
      "t": 151000,
      "d": 500,
      "v": 80
    },
    {
      "midi": 59,
      "hit": false,
      "t": 151500,
      "d": 500,
      "v": 80
    },
    {
      "midi": 61,
      "hit": false,
      "t": 152000,
      "d": 2000,
      "v": 80
    },
    {
      "midi": 83,
      "hit": false,
      "t": 153974.99999999997,
      "d": 2000,
      "v": 98
    },
    {
      "midi": 57,
      "hit": false,
      "t": 154000,
      "d": 500,
      "v": 80
    },
    {
      "midi": 61,
      "hit": false,
      "t": 154500,
      "d": 500,
      "v": 80
    },
    {
      "midi": 64,
      "hit": false,
      "t": 155000,
      "d": 500,
      "v": 80
    },
    {
      "midi": 61,
      "hit": false,
      "t": 155500,
      "d": 500,
      "v": 80
    },
    {
      "midi": 85,
      "hit": false,
      "t": 155974.99999999997,
      "d": 1000,
      "v": 98
    },
    {
      "midi": 64,
      "hit": false,
      "t": 156000,
      "d": 500,
      "v": 80
    },
    {
      "midi": 68,
      "hit": false,
      "t": 156500,
      "d": 500,
      "v": 80
    },
    {
      "midi": 78,
      "hit": false,
      "t": 156974.99999999997,
      "d": 5750,
      "v": 98
    },
    {
      "midi": 44,
      "hit": false,
      "t": 157000,
      "d": 500,
      "v": 80
    },
    {
      "midi": 51,
      "hit": false,
      "t": 157500,
      "d": 500,
      "v": 80
    },
    {
      "midi": 58,
      "hit": false,
      "t": 158000,
      "d": 500,
      "v": 80
    },
    {
      "midi": 59,
      "hit": false,
      "t": 158500,
      "d": 2000,
      "v": 80
    },
    {
      "midi": 56,
      "hit": false,
      "t": 160500,
      "d": 500,
      "v": 80
    },
    {
      "midi": 59,
      "hit": false,
      "t": 161000,
      "d": 500,
      "v": 80
    },
    {
      "midi": 63,
      "hit": false,
      "t": 161500,
      "d": 500,
      "v": 80
    },
    {
      "midi": 59,
      "hit": false,
      "t": 162000,
      "d": 500,
      "v": 80
    },
    {
      "midi": 63,
      "hit": false,
      "t": 162500,
      "d": 500,
      "v": 80
    },
    {
      "midi": 76,
      "hit": false,
      "t": 162724.99999999997,
      "d": 250,
      "v": 98
    },
    {
      "midi": 75,
      "hit": false,
      "t": 162974.99999999997,
      "d": 250,
      "v": 98
    },
    {
      "midi": 66,
      "hit": false,
      "t": 163000,
      "d": 500,
      "v": 80
    },
    {
      "midi": 73,
      "hit": false,
      "t": 163224.99999999997,
      "d": 250,
      "v": 98
    },
    {
      "midi": 71,
      "hit": false,
      "t": 163474.99999999997,
      "d": 3500,
      "v": 98
    },
    {
      "midi": 44,
      "hit": false,
      "t": 163500,
      "d": 500,
      "v": 80
    },
    {
      "midi": 51,
      "hit": false,
      "t": 164000,
      "d": 500,
      "v": 80
    },
    {
      "midi": 58,
      "hit": false,
      "t": 164500,
      "d": 500,
      "v": 80
    },
    {
      "midi": 59,
      "hit": false,
      "t": 165000,
      "d": 2000,
      "v": 80
    },
    {
      "midi": 78,
      "hit": false,
      "t": 166974.99999999997,
      "d": 2000,
      "v": 98
    },
    {
      "midi": 56,
      "hit": false,
      "t": 167000,
      "d": 500,
      "v": 80
    },
    {
      "midi": 59,
      "hit": false,
      "t": 167500,
      "d": 500,
      "v": 80
    },
    {
      "midi": 63,
      "hit": false,
      "t": 168000,
      "d": 500,
      "v": 80
    },
    {
      "midi": 59,
      "hit": false,
      "t": 168500,
      "d": 500,
      "v": 80
    },
    {
      "midi": 83,
      "hit": false,
      "t": 168974.99999999997,
      "d": 1000,
      "v": 98
    },
    {
      "midi": 63,
      "hit": false,
      "t": 169000,
      "d": 500,
      "v": 80
    },
    {
      "midi": 66,
      "hit": false,
      "t": 169500,
      "d": 500,
      "v": 80
    },
    {
      "midi": 45,
      "hit": false,
      "t": 170000,
      "d": 500,
      "v": 80
    },
    {
      "midi": 76,
      "hit": false,
      "t": 170474.99999999997,
      "d": 500,
      "v": 98
    },
    {
      "midi": 52,
      "hit": false,
      "t": 170500,
      "d": 500,
      "v": 80
    },
    {
      "midi": 78,
      "hit": false,
      "t": 170974.99999999997,
      "d": 500,
      "v": 98
    },
    {
      "midi": 59,
      "hit": false,
      "t": 171000,
      "d": 500,
      "v": 80
    },
    {
      "midi": 80,
      "hit": false,
      "t": 171474.99999999997,
      "d": 5000,
      "v": 98
    },
    {
      "midi": 61,
      "hit": false,
      "t": 171500,
      "d": 2000,
      "v": 80
    },
    {
      "midi": 57,
      "hit": false,
      "t": 173500,
      "d": 500,
      "v": 80
    },
    {
      "midi": 61,
      "hit": false,
      "t": 174000,
      "d": 500,
      "v": 80
    },
    {
      "midi": 64,
      "hit": false,
      "t": 174500,
      "d": 500,
      "v": 80
    },
    {
      "midi": 61,
      "hit": false,
      "t": 175000,
      "d": 500,
      "v": 80
    },
    {
      "midi": 64,
      "hit": false,
      "t": 175500,
      "d": 500,
      "v": 80
    },
    {
      "midi": 68,
      "hit": false,
      "t": 176000,
      "d": 500,
      "v": 80
    },
    {
      "midi": 45,
      "hit": false,
      "t": 176500,
      "d": 500,
      "v": 80
    },
    {
      "midi": 73,
      "hit": false,
      "t": 176974.99999999997,
      "d": 500,
      "v": 98
    },
    {
      "midi": 52,
      "hit": false,
      "t": 177000,
      "d": 500,
      "v": 80
    },
    {
      "midi": 76,
      "hit": false,
      "t": 177474.99999999997,
      "d": 500,
      "v": 98
    },
    {
      "midi": 59,
      "hit": false,
      "t": 177500,
      "d": 500,
      "v": 80
    },
    {
      "midi": 78,
      "hit": false,
      "t": 177974.99999999997,
      "d": 2000,
      "v": 98
    },
    {
      "midi": 61,
      "hit": false,
      "t": 178000,
      "d": 2000,
      "v": 80
    },
    {
      "midi": 80,
      "hit": false,
      "t": 179974.99999999997,
      "d": 1500,
      "v": 98
    },
    {
      "midi": 57,
      "hit": false,
      "t": 180000,
      "d": 500,
      "v": 80
    },
    {
      "midi": 61,
      "hit": false,
      "t": 180500,
      "d": 500,
      "v": 80
    },
    {
      "midi": 64,
      "hit": false,
      "t": 181000,
      "d": 500,
      "v": 80
    },
    {
      "midi": 71,
      "hit": false,
      "t": 181474.99999999997,
      "d": 500,
      "v": 98
    },
    {
      "midi": 61,
      "hit": false,
      "t": 181500,
      "d": 500,
      "v": 80
    },
    {
      "midi": 73,
      "hit": false,
      "t": 181974.99999999997,
      "d": 500,
      "v": 98
    },
    {
      "midi": 64,
      "hit": false,
      "t": 182000,
      "d": 500,
      "v": 80
    },
    {
      "midi": 80,
      "hit": false,
      "t": 182474.99999999997,
      "d": 500,
      "v": 98
    },
    {
      "midi": 68,
      "hit": false,
      "t": 182500,
      "d": 500,
      "v": 80
    },
    {
      "midi": 78,
      "hit": false,
      "t": 182974.99999999997,
      "d": 3500,
      "v": 98
    },
    {
      "midi": 44,
      "hit": false,
      "t": 183000,
      "d": 500,
      "v": 80
    },
    {
      "midi": 51,
      "hit": false,
      "t": 183500,
      "d": 500,
      "v": 80
    },
    {
      "midi": 58,
      "hit": false,
      "t": 184000,
      "d": 500,
      "v": 80
    },
    {
      "midi": 59,
      "hit": false,
      "t": 184500,
      "d": 2000,
      "v": 80
    },
    {
      "midi": 83,
      "hit": false,
      "t": 186474.99999999997,
      "d": 3000,
      "v": 98
    },
    {
      "midi": 56,
      "hit": false,
      "t": 186500,
      "d": 500,
      "v": 80
    },
    {
      "midi": 59,
      "hit": false,
      "t": 187000,
      "d": 500,
      "v": 80
    },
    {
      "midi": 63,
      "hit": false,
      "t": 187500,
      "d": 500,
      "v": 80
    },
    {
      "midi": 59,
      "hit": false,
      "t": 188000,
      "d": 500,
      "v": 80
    },
    {
      "midi": 63,
      "hit": false,
      "t": 188500,
      "d": 500,
      "v": 80
    },
    {
      "midi": 66,
      "hit": false,
      "t": 189000,
      "d": 500,
      "v": 80
    },
    {
      "midi": 44,
      "hit": false,
      "t": 189500,
      "d": 500,
      "v": 80
    },
    {
      "midi": 68,
      "hit": false,
      "t": 189974.99999999997,
      "d": 500,
      "v": 98
    },
    {
      "midi": 51,
      "hit": false,
      "t": 190000,
      "d": 500,
      "v": 80
    },
    {
      "midi": 71,
      "hit": false,
      "t": 190474.99999999997,
      "d": 500,
      "v": 98
    },
    {
      "midi": 58,
      "hit": false,
      "t": 190500,
      "d": 500,
      "v": 80
    },
    {
      "midi": 71,
      "hit": false,
      "t": 190974.99999999997,
      "d": 500,
      "v": 98
    },
    {
      "midi": 59,
      "hit": false,
      "t": 191000,
      "d": 1500,
      "v": 80
    },
    {
      "midi": 73,
      "hit": false,
      "t": 191474.99999999997,
      "d": 1000,
      "v": 98
    },
    {
      "midi": 76,
      "hit": false,
      "t": 192474.99999999997,
      "d": 2000,
      "v": 98
    },
    {
      "midi": 56,
      "hit": false,
      "t": 192500,
      "d": 500,
      "v": 80
    },
    {
      "midi": 59,
      "hit": false,
      "t": 193000,
      "d": 500,
      "v": 80
    },
    {
      "midi": 63,
      "hit": false,
      "t": 193500,
      "d": 500,
      "v": 80
    },
    {
      "midi": 59,
      "hit": false,
      "t": 194000,
      "d": 500,
      "v": 80
    },
    {
      "midi": 75,
      "hit": false,
      "t": 194474.99999999997,
      "d": 1000,
      "v": 98
    },
    {
      "midi": 66,
      "hit": false,
      "t": 194500,
      "d": 500,
      "v": 80
    },
    {
      "midi": 63,
      "hit": false,
      "t": 195000,
      "d": 500,
      "v": 80
    },
    {
      "midi": 45,
      "hit": false,
      "t": 195500,
      "d": 500,
      "v": 80
    },
    {
      "midi": 80,
      "hit": false,
      "t": 195974.99999999997,
      "d": 500,
      "v": 98
    },
    {
      "midi": 52,
      "hit": false,
      "t": 196000,
      "d": 500,
      "v": 80
    },
    {
      "midi": 81,
      "hit": false,
      "t": 196474.99999999997,
      "d": 500,
      "v": 98
    },
    {
      "midi": 59,
      "hit": false,
      "t": 196500,
      "d": 500,
      "v": 80
    },
    {
      "midi": 83,
      "hit": false,
      "t": 196974.99999999997,
      "d": 500,
      "v": 98
    },
    {
      "midi": 61,
      "hit": false,
      "t": 197000,
      "d": 500,
      "v": 80
    },
    {
      "midi": 78,
      "hit": false,
      "t": 197474.99999999997,
      "d": 1000,
      "v": 98
    },
    {
      "midi": 64,
      "hit": false,
      "t": 197500,
      "d": 500,
      "v": 80
    },
    {
      "midi": 61,
      "hit": false,
      "t": 198000,
      "d": 500,
      "v": 80
    },
    {
      "midi": 75,
      "hit": false,
      "t": 198474.99999999997,
      "d": 1000,
      "v": 98
    },
    {
      "midi": 44,
      "hit": false,
      "t": 198500,
      "d": 500,
      "v": 80
    },
    {
      "midi": 51,
      "hit": false,
      "t": 199000,
      "d": 500,
      "v": 80
    },
    {
      "midi": 71,
      "hit": false,
      "t": 199474.99999999997,
      "d": 1000,
      "v": 98
    },
    {
      "midi": 58,
      "hit": false,
      "t": 199500,
      "d": 500,
      "v": 80
    },
    {
      "midi": 59,
      "hit": false,
      "t": 200000,
      "d": 500,
      "v": 80
    },
    {
      "midi": 78,
      "hit": false,
      "t": 200474.99999999997,
      "d": 1000,
      "v": 98
    },
    {
      "midi": 63,
      "hit": false,
      "t": 200500,
      "d": 500,
      "v": 80
    },
    {
      "midi": 59,
      "hit": false,
      "t": 201000,
      "d": 500,
      "v": 80
    },
    {
      "midi": 42,
      "hit": false,
      "t": 201500,
      "d": 500,
      "v": 80
    },
    {
      "midi": 80,
      "hit": false,
      "t": 201974.99999999997,
      "d": 500,
      "v": 98
    },
    {
      "midi": 49,
      "hit": false,
      "t": 202000,
      "d": 500,
      "v": 80
    },
    {
      "midi": 81,
      "hit": false,
      "t": 202474.99999999997,
      "d": 500,
      "v": 98
    },
    {
      "midi": 56,
      "hit": false,
      "t": 202500,
      "d": 500,
      "v": 80
    },
    {
      "midi": 83,
      "hit": false,
      "t": 202974.99999999997,
      "d": 500,
      "v": 98
    },
    {
      "midi": 57,
      "hit": false,
      "t": 203000,
      "d": 500,
      "v": 80
    },
    {
      "midi": 78,
      "hit": false,
      "t": 203474.99999999997,
      "d": 1000,
      "v": 98
    },
    {
      "midi": 61,
      "hit": false,
      "t": 203500,
      "d": 500,
      "v": 80
    },
    {
      "midi": 57,
      "hit": false,
      "t": 204000,
      "d": 500,
      "v": 80
    },
    {
      "midi": 83,
      "hit": false,
      "t": 204474.99999999997,
      "d": 1000,
      "v": 98
    },
    {
      "midi": 44,
      "hit": false,
      "t": 204500,
      "d": 500,
      "v": 80
    },
    {
      "midi": 51,
      "hit": false,
      "t": 205000,
      "d": 500,
      "v": 80
    },
    {
      "midi": 85,
      "hit": false,
      "t": 205474.99999999997,
      "d": 1000,
      "v": 98
    },
    {
      "midi": 58,
      "hit": false,
      "t": 205500,
      "d": 500,
      "v": 80
    },
    {
      "midi": 59,
      "hit": false,
      "t": 206000,
      "d": 500,
      "v": 80
    },
    {
      "midi": 83,
      "hit": false,
      "t": 206474.99999999997,
      "d": 1000,
      "v": 98
    },
    {
      "midi": 63,
      "hit": false,
      "t": 206500,
      "d": 500,
      "v": 80
    },
    {
      "midi": 59,
      "hit": false,
      "t": 207000,
      "d": 500,
      "v": 80
    },
    {
      "midi": 45,
      "hit": false,
      "t": 207500,
      "d": 500,
      "v": 80
    },
    {
      "midi": 80,
      "hit": false,
      "t": 207974.99999999997,
      "d": 500,
      "v": 98
    },
    {
      "midi": 52,
      "hit": false,
      "t": 208000,
      "d": 500,
      "v": 80
    },
    {
      "midi": 81,
      "hit": false,
      "t": 208474.99999999997,
      "d": 500,
      "v": 98
    },
    {
      "midi": 61,
      "hit": false,
      "t": 208500,
      "d": 500,
      "v": 80
    },
    {
      "midi": 64,
      "hit": false,
      "t": 208500,
      "d": 500,
      "v": 80
    },
    {
      "midi": 83,
      "hit": false,
      "t": 208974.99999999997,
      "d": 500,
      "v": 98
    },
    {
      "midi": 57,
      "hit": false,
      "t": 209000,
      "d": 500,
      "v": 80
    },
    {
      "midi": 78,
      "hit": false,
      "t": 209474.99999999997,
      "d": 1000,
      "v": 98
    },
    {
      "midi": 64,
      "hit": false,
      "t": 209500,
      "d": 500,
      "v": 80
    },
    {
      "midi": 69,
      "hit": false,
      "t": 209500,
      "d": 500,
      "v": 80
    },
    {
      "midi": 68,
      "hit": false,
      "t": 209500,
      "d": 500,
      "v": 80
    },
    {
      "midi": 49,
      "hit": false,
      "t": 210000,
      "d": 500,
      "v": 80
    },
    {
      "midi": 68,
      "hit": false,
      "t": 210474.99999999997,
      "d": 1000,
      "v": 98
    },
    {
      "midi": 75,
      "hit": false,
      "t": 210474.99999999997,
      "d": 1000,
      "v": 98
    },
    {
      "midi": 44,
      "hit": false,
      "t": 210500,
      "d": 500,
      "v": 80
    },
    {
      "midi": 51,
      "hit": false,
      "t": 211000,
      "d": 500,
      "v": 80
    },
    {
      "midi": 63,
      "hit": false,
      "t": 211474.99999999997,
      "d": 1000,
      "v": 98
    },
    {
      "midi": 71,
      "hit": false,
      "t": 211474.99999999997,
      "d": 1000,
      "v": 98
    },
    {
      "midi": 64,
      "hit": false,
      "t": 211474.99999999997,
      "d": 1000,
      "v": 98
    },
    {
      "midi": 56,
      "hit": false,
      "t": 211500,
      "d": 500,
      "v": 80
    },
    {
      "midi": 63,
      "hit": false,
      "t": 212000,
      "d": 500,
      "v": 80
    },
    {
      "midi": 71,
      "hit": false,
      "t": 212474.99999999997,
      "d": 1000,
      "v": 98
    },
    {
      "midi": 78,
      "hit": false,
      "t": 212474.99999999997,
      "d": 1000,
      "v": 98
    },
    {
      "midi": 59,
      "hit": false,
      "t": 212500,
      "d": 500,
      "v": 80
    },
    {
      "midi": 56,
      "hit": false,
      "t": 213000,
      "d": 500,
      "v": 80
    },
    {
      "midi": 77,
      "hit": false,
      "t": 213474.99999999997,
      "d": 66.66666666665697,
      "v": 98
    },
    {
      "midi": 61,
      "hit": false,
      "t": 213500,
      "d": 1000,
      "v": 80
    },
    {
      "midi": 65,
      "hit": false,
      "t": 213500,
      "d": 1000,
      "v": 80
    },
    {
      "midi": 80,
      "hit": false,
      "t": 213541.66666666663,
      "d": 66.66666666665697,
      "v": 98
    },
    {
      "midi": 85,
      "hit": false,
      "t": 213608.33333333328,
      "d": 2858.333333333343,
      "v": 98
    },
    {
      "midi": 61,
      "hit": false,
      "t": 214500,
      "d": 1000,
      "v": 80
    },
    {
      "midi": 66,
      "hit": false,
      "t": 214500,
      "d": 1000,
      "v": 80
    },
    {
      "midi": 61,
      "hit": false,
      "t": 215500,
      "d": 1000,
      "v": 80
    },
    {
      "midi": 68,
      "hit": false,
      "t": 215500,
      "d": 1000,
      "v": 80
    },
    {
      "midi": 73,
      "hit": false,
      "t": 216466.66666666663,
      "d": 4000,
      "v": 98
    },
    {
      "midi": 77,
      "hit": false,
      "t": 216466.66666666663,
      "d": 4000,
      "v": 98
    },
    {
      "midi": 61,
      "hit": false,
      "t": 216500,
      "d": 6000,
      "v": 80
    },
    {
      "midi": 68,
      "hit": false,
      "t": 216500,
      "d": 6000,
      "v": 80
    },
    {
      "midi": 65,
      "hit": false,
      "t": 216500,
      "d": 6000,
      "v": 80
    },
    {
      "midi": 82,
      "hit": false,
      "t": 220466.66666666663,
      "d": 500,
      "v": 98
    },
    {
      "midi": 83,
      "hit": false,
      "t": 220966.66666666663,
      "d": 500,
      "v": 98
    },
    {
      "midi": 85,
      "hit": false,
      "t": 221466.66666666663,
      "d": 1500,
      "v": 98
    },
    {
      "midi": 57,
      "hit": false,
      "t": 222500,
      "d": 1000,
      "v": 80
    },
    {
      "midi": 83,
      "hit": false,
      "t": 222966.66666666663,
      "d": 500,
      "v": 98
    },
    {
      "midi": 80,
      "hit": false,
      "t": 223466.66666666663,
      "d": 500,
      "v": 98
    },
    {
      "midi": 61,
      "hit": false,
      "t": 223500,
      "d": 1000,
      "v": 80
    },
    {
      "midi": 76,
      "hit": false,
      "t": 223966.66666666663,
      "d": 1000,
      "v": 98
    },
    {
      "midi": 68,
      "hit": false,
      "t": 224500,
      "d": 1000,
      "v": 80
    },
    {
      "midi": 73,
      "hit": false,
      "t": 224966.66666666663,
      "d": 500,
      "v": 98
    },
    {
      "midi": 85,
      "hit": false,
      "t": 225466.66666666663,
      "d": 500,
      "v": 98
    },
    {
      "midi": 57,
      "hit": false,
      "t": 225500,
      "d": 1000,
      "v": 80
    },
    {
      "midi": 83,
      "hit": false,
      "t": 225966.66666666663,
      "d": 500,
      "v": 98
    },
    {
      "midi": 80,
      "hit": false,
      "t": 226466.66666666663,
      "d": 500,
      "v": 98
    },
    {
      "midi": 61,
      "hit": false,
      "t": 226500,
      "d": 1000,
      "v": 80
    },
    {
      "midi": 76,
      "hit": false,
      "t": 226966.66666666663,
      "d": 1000,
      "v": 98
    },
    {
      "midi": 68,
      "hit": false,
      "t": 227500,
      "d": 1000,
      "v": 80
    },
    {
      "midi": 73,
      "hit": false,
      "t": 227966.66666666663,
      "d": 500,
      "v": 98
    },
    {
      "midi": 85,
      "hit": false,
      "t": 228466.66666666663,
      "d": 500,
      "v": 98
    },
    {
      "midi": 59,
      "hit": false,
      "t": 228500,
      "d": 1000,
      "v": 80
    },
    {
      "midi": 83,
      "hit": false,
      "t": 228966.66666666663,
      "d": 500,
      "v": 98
    },
    {
      "midi": 80,
      "hit": false,
      "t": 229466.66666666663,
      "d": 500,
      "v": 98
    },
    {
      "midi": 61,
      "hit": false,
      "t": 229500,
      "d": 1000,
      "v": 80
    },
    {
      "midi": 76,
      "hit": false,
      "t": 229966.66666666663,
      "d": 1000,
      "v": 98
    },
    {
      "midi": 66,
      "hit": false,
      "t": 230500,
      "d": 1000,
      "v": 80
    },
    {
      "midi": 71,
      "hit": false,
      "t": 230966.66666666663,
      "d": 500,
      "v": 98
    },
    {
      "midi": 73,
      "hit": false,
      "t": 231466.66666666663,
      "d": 500,
      "v": 98
    },
    {
      "midi": 59,
      "hit": false,
      "t": 231500,
      "d": 1000,
      "v": 80
    },
    {
      "midi": 78,
      "hit": false,
      "t": 231966.66666666663,
      "d": 500,
      "v": 98
    },
    {
      "midi": 71,
      "hit": false,
      "t": 232466.66666666663,
      "d": 1000,
      "v": 98
    },
    {
      "midi": 66,
      "hit": false,
      "t": 232500,
      "d": 2000,
      "v": 80
    },
    {
      "midi": 70,
      "hit": false,
      "t": 233466.66666666663,
      "d": 500,
      "v": 98
    },
    {
      "midi": 71,
      "hit": false,
      "t": 233966.66666666663,
      "d": 500,
      "v": 98
    },
    {
      "midi": 71,
      "hit": false,
      "t": 234466.66666666663,
      "d": 500,
      "v": 98
    },
    {
      "midi": 56,
      "hit": false,
      "t": 234500,
      "d": 1000,
      "v": 80
    },
    {
      "midi": 66,
      "hit": false,
      "t": 234966.66666666663,
      "d": 500,
      "v": 98
    },
    {
      "midi": 70,
      "hit": false,
      "t": 235466.66666666663,
      "d": 1500,
      "v": 98
    },
    {
      "midi": 61,
      "hit": false,
      "t": 235500,
      "d": 1000,
      "v": 80
    },
    {
      "midi": 66,
      "hit": false,
      "t": 236500,
      "d": 1000,
      "v": 80
    },
    {
      "midi": 70,
      "hit": false,
      "t": 236966.66666666663,
      "d": 500,
      "v": 98
    },
    {
      "midi": 71,
      "hit": false,
      "t": 237466.66666666663,
      "d": 500,
      "v": 98
    },
    {
      "midi": 56,
      "hit": false,
      "t": 237500,
      "d": 1000,
      "v": 80
    },
    {
      "midi": 66,
      "hit": false,
      "t": 237966.66666666663,
      "d": 500,
      "v": 98
    },
    {
      "midi": 70,
      "hit": false,
      "t": 238466.66666666663,
      "d": 1500,
      "v": 98
    },
    {
      "midi": 61,
      "hit": false,
      "t": 238500,
      "d": 1000,
      "v": 80
    },
    {
      "midi": 66,
      "hit": false,
      "t": 239500,
      "d": 1000,
      "v": 80
    },
    {
      "midi": 70,
      "hit": false,
      "t": 239966.66666666663,
      "d": 500,
      "v": 98
    },
    {
      "midi": 71,
      "hit": false,
      "t": 240466.66666666663,
      "d": 500,
      "v": 98
    },
    {
      "midi": 49,
      "hit": false,
      "t": 240500,
      "d": 1000,
      "v": 80
    },
    {
      "midi": 66,
      "hit": false,
      "t": 240966.66666666663,
      "d": 500,
      "v": 98
    },
    {
      "midi": 70,
      "hit": false,
      "t": 241466.66666666663,
      "d": 1000,
      "v": 98
    },
    {
      "midi": 49,
      "hit": false,
      "t": 241500,
      "d": 2000,
      "v": 80
    },
    {
      "midi": 66,
      "hit": false,
      "t": 242466.66666666663,
      "d": 1000,
      "v": 98
    },
    {
      "midi": 71,
      "hit": false,
      "t": 242466.66666666663,
      "d": 1000,
      "v": 98
    },
    {
      "midi": 68,
      "hit": false,
      "t": 243466.66666666663,
      "d": 1500,
      "v": 98
    },
    {
      "midi": 73,
      "hit": false,
      "t": 243466.66666666663,
      "d": 1500,
      "v": 98
    },
    {
      "midi": 61,
      "hit": false,
      "t": 244500,
      "d": 1000,
      "v": 80
    },
    {
      "midi": 82,
      "hit": false,
      "t": 244966.66666666663,
      "d": 500,
      "v": 98
    },
    {
      "midi": 83,
      "hit": false,
      "t": 245466.66666666663,
      "d": 500,
      "v": 98
    },
    {
      "midi": 61,
      "hit": false,
      "t": 245500,
      "d": 1000,
      "v": 80
    },
    {
      "midi": 85,
      "hit": false,
      "t": 245966.66666666663,
      "d": 500,
      "v": 98
    },
    {
      "midi": 85,
      "hit": false,
      "t": 246466.66666666663,
      "d": 500,
      "v": 98
    },
    {
      "midi": 57,
      "hit": false,
      "t": 246500,
      "d": 1000,
      "v": 80
    },
    {
      "midi": 83,
      "hit": false,
      "t": 246966.66666666663,
      "d": 500,
      "v": 98
    },
    {
      "midi": 80,
      "hit": false,
      "t": 247466.66666666663,
      "d": 500,
      "v": 98
    },
    {
      "midi": 61,
      "hit": false,
      "t": 247500,
      "d": 1000,
      "v": 80
    },
    {
      "midi": 76,
      "hit": false,
      "t": 247966.66666666663,
      "d": 1000,
      "v": 98
    },
    {
      "midi": 68,
      "hit": false,
      "t": 248500,
      "d": 1000,
      "v": 80
    },
    {
      "midi": 73,
      "hit": false,
      "t": 248966.66666666663,
      "d": 500,
      "v": 98
    },
    {
      "midi": 85,
      "hit": false,
      "t": 249466.66666666663,
      "d": 500,
      "v": 98
    },
    {
      "midi": 57,
      "hit": false,
      "t": 249500,
      "d": 1000,
      "v": 80
    },
    {
      "midi": 83,
      "hit": false,
      "t": 249966.66666666663,
      "d": 500,
      "v": 98
    },
    {
      "midi": 80,
      "hit": false,
      "t": 250466.66666666663,
      "d": 500,
      "v": 98
    },
    {
      "midi": 61,
      "hit": false,
      "t": 250500,
      "d": 1000,
      "v": 80
    },
    {
      "midi": 76,
      "hit": false,
      "t": 250966.66666666663,
      "d": 1000,
      "v": 98
    },
    {
      "midi": 68,
      "hit": false,
      "t": 251500,
      "d": 1000,
      "v": 80
    },
    {
      "midi": 71,
      "hit": false,
      "t": 251966.66666666663,
      "d": 500,
      "v": 98
    },
    {
      "midi": 85,
      "hit": false,
      "t": 252466.66666666663,
      "d": 500,
      "v": 98
    },
    {
      "midi": 59,
      "hit": false,
      "t": 252500,
      "d": 1000,
      "v": 80
    },
    {
      "midi": 83,
      "hit": false,
      "t": 252966.66666666663,
      "d": 500,
      "v": 98
    },
    {
      "midi": 80,
      "hit": false,
      "t": 253466.66666666663,
      "d": 500,
      "v": 98
    },
    {
      "midi": 61,
      "hit": false,
      "t": 253500,
      "d": 1000,
      "v": 80
    },
    {
      "midi": 76,
      "hit": false,
      "t": 253966.66666666663,
      "d": 1000,
      "v": 98
    },
    {
      "midi": 66,
      "hit": false,
      "t": 254500,
      "d": 1000,
      "v": 80
    },
    {
      "midi": 71,
      "hit": false,
      "t": 254966.66666666663,
      "d": 500,
      "v": 98
    },
    {
      "midi": 73,
      "hit": false,
      "t": 255466.66666666663,
      "d": 500,
      "v": 98
    },
    {
      "midi": 59,
      "hit": false,
      "t": 255500,
      "d": 1000,
      "v": 80
    },
    {
      "midi": 78,
      "hit": false,
      "t": 255966.66666666663,
      "d": 500,
      "v": 98
    },
    {
      "midi": 71,
      "hit": false,
      "t": 256466.66666666663,
      "d": 1000,
      "v": 98
    },
    {
      "midi": 66,
      "hit": false,
      "t": 256500,
      "d": 1000,
      "v": 80
    },
    {
      "midi": 70,
      "hit": false,
      "t": 257466.66666666663,
      "d": 500,
      "v": 98
    },
    {
      "midi": 66,
      "hit": false,
      "t": 257500,
      "d": 1000,
      "v": 80
    },
    {
      "midi": 71,
      "hit": false,
      "t": 257966.66666666663,
      "d": 500,
      "v": 98
    },
    {
      "midi": 71,
      "hit": false,
      "t": 258466.66666666663,
      "d": 500,
      "v": 98
    },
    {
      "midi": 56,
      "hit": false,
      "t": 258500,
      "d": 1000,
      "v": 80
    },
    {
      "midi": 66,
      "hit": false,
      "t": 258966.66666666663,
      "d": 500,
      "v": 98
    },
    {
      "midi": 70,
      "hit": false,
      "t": 259466.66666666663,
      "d": 1500,
      "v": 98
    },
    {
      "midi": 61,
      "hit": false,
      "t": 259500,
      "d": 1000,
      "v": 80
    },
    {
      "midi": 66,
      "hit": false,
      "t": 260500,
      "d": 1000,
      "v": 80
    },
    {
      "midi": 70,
      "hit": false,
      "t": 260966.66666666663,
      "d": 500,
      "v": 98
    },
    {
      "midi": 71,
      "hit": false,
      "t": 261466.66666666663,
      "d": 500,
      "v": 98
    },
    {
      "midi": 56,
      "hit": false,
      "t": 261500,
      "d": 1000,
      "v": 80
    },
    {
      "midi": 66,
      "hit": false,
      "t": 261966.66666666663,
      "d": 500,
      "v": 98
    },
    {
      "midi": 70,
      "hit": false,
      "t": 262466.6666666666,
      "d": 1500,
      "v": 98
    },
    {
      "midi": 61,
      "hit": false,
      "t": 262500,
      "d": 1000,
      "v": 80
    },
    {
      "midi": 66,
      "hit": false,
      "t": 263500,
      "d": 1000,
      "v": 80
    },
    {
      "midi": 70,
      "hit": false,
      "t": 263966.6666666666,
      "d": 500,
      "v": 98
    },
    {
      "midi": 73,
      "hit": false,
      "t": 264466.6666666666,
      "d": 1000,
      "v": 98
    },
    {
      "midi": 65,
      "hit": false,
      "t": 264500,
      "d": 1000,
      "v": 80
    },
    {
      "midi": 78,
      "hit": false,
      "t": 265466.6666666666,
      "d": 1000,
      "v": 98
    },
    {
      "midi": 66,
      "hit": false,
      "t": 265500,
      "d": 1000,
      "v": 80
    },
    {
      "midi": 80,
      "hit": false,
      "t": 266466.6666666666,
      "d": 1000,
      "v": 98
    },
    {
      "midi": 68,
      "hit": false,
      "t": 266500,
      "d": 1000,
      "v": 80
    },
    {
      "midi": 77,
      "hit": false,
      "t": 267466.6666666666,
      "d": 3000,
      "v": 98
    },
    {
      "midi": 68,
      "hit": false,
      "t": 267500,
      "d": 3000,
      "v": 80
    },
    {
      "midi": 73,
      "hit": false,
      "t": 270466.6666666666,
      "d": 1000,
      "v": 83
    },
    {
      "midi": 78,
      "hit": false,
      "t": 271466.6666666666,
      "d": 1000,
      "v": 78
    },
    {
      "midi": 80,
      "hit": false,
      "t": 272466.6666666666,
      "d": 1000,
      "v": 73
    },
    {
      "midi": 77,
      "hit": false,
      "t": 273466.6666666666,
      "d": 41.66666666668607,
      "v": 68
    },
    {
      "midi": 80,
      "hit": false,
      "t": 273508.3333333333,
      "d": 41.66666666668607,
      "v": 68
    },
    {
      "midi": 85,
      "hit": false,
      "t": 273550,
      "d": 5916.666666666686,
      "v": 68
    }
  ]
}