{
  "jsonPath": "Rock/Death Metal/Dark Tranquillity/the-treason-wall.json",
  "path": "Rock\\Death Metal\\Dark Tranquillity\\The Treason Wall.mid",
  "name": "The Treason Wall",
  "difficulty": "Intermediate",
  "bpm": 185.0007554197513,
  "notes": [
    {
      "midi": 61,
      "hit": false,
      "t": 22053.964,
      "d": 162.16149999999834,
      "v": 95
    },
    {
      "midi": 85,
      "hit": false,
      "t": 22053.964,
      "d": 162.16149999999834,
      "v": 95
    },
    {
      "midi": 64,
      "hit": false,
      "t": 22216.1255,
      "d": 162.16149999999834,
      "v": 95
    },
    {
      "midi": 68,
      "hit": false,
      "t": 22378.286999999997,
      "d": 162.16149999999834,
      "v": 95
    },
    {
      "midi": 88,
      "hit": false,
      "t": 22540.448499999995,
      "d": 162.16149999999834,
      "v": 95
    },
    {
      "midi": 64,
      "hit": false,
      "t": 22702.609999999993,
      "d": 162.16149999999834,
      "v": 95
    },
    {
      "midi": 68,
      "hit": false,
      "t": 22864.77149999999,
      "d": 162.16149999999834,
      "v": 95
    },
    {
      "midi": 87,
      "hit": false,
      "t": 23026.93299999999,
      "d": 162.16149999999834,
      "v": 95
    },
    {
      "midi": 64,
      "hit": false,
      "t": 23189.09449999999,
      "d": 162.16149999999834,
      "v": 95
    },
    {
      "midi": 85,
      "hit": false,
      "t": 23351.255999999987,
      "d": 162.16149999999834,
      "v": 95
    },
    {
      "midi": 68,
      "hit": false,
      "t": 23513.417499999985,
      "d": 81.08075000000099,
      "v": 95
    },
    {
      "midi": 80,
      "hit": false,
      "t": 23675.578999999987,
      "d": 162.16149999999834,
      "v": 95
    },
    {
      "midi": 68,
      "hit": false,
      "t": 23837.740499999985,
      "d": 162.16149999999834,
      "v": 95
    },
    {
      "midi": 61,
      "hit": false,
      "t": 23999.901999999984,
      "d": 162.16149999999834,
      "v": 95
    },
    {
      "midi": 85,
      "hit": false,
      "t": 23999.901999999984,
      "d": 162.16149999999834,
      "v": 95
    },
    {
      "midi": 64,
      "hit": false,
      "t": 24162.063499999982,
      "d": 162.16149999999834,
      "v": 95
    },
    {
      "midi": 68,
      "hit": false,
      "t": 24324.22499999998,
      "d": 162.16149999999834,
      "v": 95
    },
    {
      "midi": 88,
      "hit": false,
      "t": 24486.38649999998,
      "d": 162.16149999999834,
      "v": 95
    },
    {
      "midi": 64,
      "hit": false,
      "t": 24648.547999999977,
      "d": 162.16149999999834,
      "v": 95
    },
    {
      "midi": 68,
      "hit": false,
      "t": 24810.709499999975,
      "d": 162.16149999999834,
      "v": 95
    },
    {
      "midi": 87,
      "hit": false,
      "t": 24972.870999999974,
      "d": 162.16149999999834,
      "v": 95
    },
    {
      "midi": 64,
      "hit": false,
      "t": 25135.032499999972,
      "d": 162.16149999999834,
      "v": 95
    },
    {
      "midi": 85,
      "hit": false,
      "t": 25297.19399999997,
      "d": 162.16149999999834,
      "v": 95
    },
    {
      "midi": 68,
      "hit": false,
      "t": 25459.35549999997,
      "d": 81.08075000000099,
      "v": 95
    },
    {
      "midi": 80,
      "hit": false,
      "t": 25621.51699999997,
      "d": 162.16149999999834,
      "v": 95
    },
    {
      "midi": 68,
      "hit": false,
      "t": 25783.67849999997,
      "d": 162.16149999999834,
      "v": 95
    },
    {
      "midi": 57,
      "hit": false,
      "t": 25945.839999999967,
      "d": 162.16149999999834,
      "v": 95
    },
    {
      "midi": 85,
      "hit": false,
      "t": 25945.839999999967,
      "d": 162.16149999999834,
      "v": 95
    },
    {
      "midi": 61,
      "hit": false,
      "t": 26108.001499999966,
      "d": 162.16149999999834,
      "v": 95
    },
    {
      "midi": 64,
      "hit": false,
      "t": 26270.162999999964,
      "d": 162.16149999999834,
      "v": 95
    },
    {
      "midi": 88,
      "hit": false,
      "t": 26432.324499999962,
      "d": 162.16149999999834,
      "v": 95
    },
    {
      "midi": 61,
      "hit": false,
      "t": 26594.48599999996,
      "d": 162.16149999999834,
      "v": 95
    },
    {
      "midi": 64,
      "hit": false,
      "t": 26756.64749999996,
      "d": 162.16149999999834,
      "v": 95
    },
    {
      "midi": 87,
      "hit": false,
      "t": 26918.808999999957,
      "d": 162.16149999999834,
      "v": 95
    },
    {
      "midi": 61,
      "hit": false,
      "t": 27080.970499999956,
      "d": 162.16149999999834,
      "v": 95
    },
    {
      "midi": 85,
      "hit": false,
      "t": 27243.131999999954,
      "d": 162.16149999999834,
      "v": 95
    },
    {
      "midi": 64,
      "hit": false,
      "t": 27405.293499999952,
      "d": 162.16149999999834,
      "v": 95
    },
    {
      "midi": 80,
      "hit": false,
      "t": 27567.45499999995,
      "d": 162.16149999999834,
      "v": 95
    },
    {
      "midi": 64,
      "hit": false,
      "t": 27729.61649999995,
      "d": 162.16149999999834,
      "v": 95
    },
    {
      "midi": 59,
      "hit": false,
      "t": 27891.777999999947,
      "d": 162.16149999999834,
      "v": 95
    },
    {
      "midi": 83,
      "hit": false,
      "t": 27891.777999999947,
      "d": 162.16149999999834,
      "v": 95
    },
    {
      "midi": 63,
      "hit": false,
      "t": 28053.939499999946,
      "d": 162.16149999999834,
      "v": 95
    },
    {
      "midi": 68,
      "hit": false,
      "t": 28216.100999999944,
      "d": 162.16149999999834,
      "v": 95
    },
    {
      "midi": 80,
      "hit": false,
      "t": 28378.262499999943,
      "d": 162.16149999999834,
      "v": 95
    },
    {
      "midi": 63,
      "hit": false,
      "t": 28540.42399999994,
      "d": 162.16149999999834,
      "v": 95
    },
    {
      "midi": 68,
      "hit": false,
      "t": 28702.58549999994,
      "d": 162.16149999999834,
      "v": 95
    },
    {
      "midi": 87,
      "hit": false,
      "t": 28864.746999999938,
      "d": 162.16149999999834,
      "v": 95
    },
    {
      "midi": 63,
      "hit": false,
      "t": 29026.908499999936,
      "d": 162.16149999999834,
      "v": 95
    },
    {
      "midi": 88,
      "hit": false,
      "t": 29189.069999999934,
      "d": 162.16149999999834,
      "v": 95
    },
    {
      "midi": 68,
      "hit": false,
      "t": 29351.231499999933,
      "d": 162.16149999999834,
      "v": 95
    },
    {
      "midi": 87,
      "hit": false,
      "t": 29513.39299999993,
      "d": 162.16149999999834,
      "v": 95
    },
    {
      "midi": 68,
      "hit": false,
      "t": 29675.55449999993,
      "d": 162.16149999999834,
      "v": 95
    },
    {
      "midi": 61,
      "hit": false,
      "t": 29837.715999999928,
      "d": 162.16149999999834,
      "v": 95
    },
    {
      "midi": 85,
      "hit": false,
      "t": 29837.715999999928,
      "d": 162.16149999999834,
      "v": 95
    },
    {
      "midi": 64,
      "hit": false,
      "t": 29999.877499999926,
      "d": 162.16149999999834,
      "v": 95
    },
    {
      "midi": 68,
      "hit": false,
      "t": 30162.038999999924,
      "d": 162.16149999999834,
      "v": 95
    },
    {
      "midi": 88,
      "hit": false,
      "t": 30324.200499999923,
      "d": 162.16149999999834,
      "v": 95
    },
    {
      "midi": 64,
      "hit": false,
      "t": 30486.36199999992,
      "d": 162.16149999999834,
      "v": 95
    },
    {
      "midi": 68,
      "hit": false,
      "t": 30648.52349999992,
      "d": 162.16149999999834,
      "v": 95
    },
    {
      "midi": 87,
      "hit": false,
      "t": 30810.684999999918,
      "d": 162.16149999999834,
      "v": 95
    },
    {
      "midi": 64,
      "hit": false,
      "t": 30972.846499999916,
      "d": 162.16149999999834,
      "v": 95
    },
    {
      "midi": 85,
      "hit": false,
      "t": 31135.007999999914,
      "d": 162.16149999999834,
      "v": 95
    },
    {
      "midi": 68,
      "hit": false,
      "t": 31297.169499999913,
      "d": 81.08075000000099,
      "v": 95
    },
    {
      "midi": 80,
      "hit": false,
      "t": 31459.330999999915,
      "d": 162.16149999999834,
      "v": 95
    },
    {
      "midi": 68,
      "hit": false,
      "t": 31621.492499999913,
      "d": 162.16149999999834,
      "v": 95
    },
    {
      "midi": 61,
      "hit": false,
      "t": 31783.65399999991,
      "d": 162.16149999999834,
      "v": 95
    },
    {
      "midi": 85,
      "hit": false,
      "t": 31783.65399999991,
      "d": 162.16149999999834,
      "v": 95
    },
    {
      "midi": 64,
      "hit": false,
      "t": 31945.81549999991,
      "d": 162.16149999999834,
      "v": 95
    },
    {
      "midi": 68,
      "hit": false,
      "t": 32107.976999999908,
      "d": 162.16149999999834,
      "v": 95
    },
    {
      "midi": 88,
      "hit": false,
      "t": 32270.138499999906,
      "d": 162.16149999999834,
      "v": 95
    },
    {
      "midi": 64,
      "hit": false,
      "t": 32432.299999999905,
      "d": 162.16149999999834,
      "v": 95
    },
    {
      "midi": 68,
      "hit": false,
      "t": 32594.461499999903,
      "d": 162.16149999999834,
      "v": 95
    },
    {
      "midi": 87,
      "hit": false,
      "t": 32756.6229999999,
      "d": 162.16149999999834,
      "v": 95
    },
    {
      "midi": 64,
      "hit": false,
      "t": 32918.7844999999,
      "d": 162.16150000000198,
      "v": 95
    },
    {
      "midi": 85,
      "hit": false,
      "t": 33080.9459999999,
      "d": 162.16150000000198,
      "v": 95
    },
    {
      "midi": 68,
      "hit": false,
      "t": 33243.107499999904,
      "d": 81.08075000000099,
      "v": 95
    },
    {
      "midi": 80,
      "hit": false,
      "t": 33405.268999999906,
      "d": 162.16150000000198,
      "v": 95
    },
    {
      "midi": 68,
      "hit": false,
      "t": 33567.43049999991,
      "d": 162.16150000000198,
      "v": 95
    },
    {
      "midi": 57,
      "hit": false,
      "t": 33729.59199999991,
      "d": 162.16150000000198,
      "v": 95
    },
    {
      "midi": 85,
      "hit": false,
      "t": 33729.59199999991,
      "d": 162.16150000000198,
      "v": 95
    },
    {
      "midi": 61,
      "hit": false,
      "t": 33891.75349999991,
      "d": 162.16150000000198,
      "v": 95
    },
    {
      "midi": 64,
      "hit": false,
      "t": 34053.91499999991,
      "d": 162.16150000000198,
      "v": 95
    },
    {
      "midi": 88,
      "hit": false,
      "t": 34216.076499999916,
      "d": 162.16150000000198,
      "v": 95
    },
    {
      "midi": 61,
      "hit": false,
      "t": 34378.23799999992,
      "d": 162.16150000000198,
      "v": 95
    },
    {
      "midi": 64,
      "hit": false,
      "t": 34540.39949999992,
      "d": 162.16150000000198,
      "v": 95
    },
    {
      "midi": 87,
      "hit": false,
      "t": 34702.56099999992,
      "d": 162.16150000000198,
      "v": 95
    },
    {
      "midi": 61,
      "hit": false,
      "t": 34864.72249999992,
      "d": 162.16150000000198,
      "v": 95
    },
    {
      "midi": 85,
      "hit": false,
      "t": 35026.883999999925,
      "d": 162.16150000000198,
      "v": 95
    },
    {
      "midi": 64,
      "hit": false,
      "t": 35189.04549999993,
      "d": 162.16150000000198,
      "v": 95
    },
    {
      "midi": 80,
      "hit": false,
      "t": 35351.20699999993,
      "d": 162.16150000000198,
      "v": 95
    },
    {
      "midi": 64,
      "hit": false,
      "t": 35513.36849999993,
      "d": 162.16150000000198,
      "v": 95
    },
    {
      "midi": 59,
      "hit": false,
      "t": 35675.52999999993,
      "d": 162.16150000000198,
      "v": 95
    },
    {
      "midi": 83,
      "hit": false,
      "t": 35675.52999999993,
      "d": 162.16150000000198,
      "v": 95
    },
    {
      "midi": 63,
      "hit": false,
      "t": 35837.691499999935,
      "d": 162.16150000000198,
      "v": 95
    },
    {
      "midi": 68,
      "hit": false,
      "t": 35999.85299999994,
      "d": 162.16150000000198,
      "v": 95
    },
    {
      "midi": 80,
      "hit": false,
      "t": 36162.01449999994,
      "d": 162.16150000000198,
      "v": 95
    },
    {
      "midi": 63,
      "hit": false,
      "t": 36324.17599999994,
      "d": 162.16150000000198,
      "v": 95
    },
    {
      "midi": 68,
      "hit": false,
      "t": 36486.33749999994,
      "d": 162.16150000000198,
      "v": 95
    },
    {
      "midi": 87,
      "hit": false,
      "t": 36648.498999999945,
      "d": 162.16150000000198,
      "v": 95
    },
    {
      "midi": 63,
      "hit": false,
      "t": 36810.66049999995,
      "d": 162.16150000000198,
      "v": 95
    },
    {
      "midi": 88,
      "hit": false,
      "t": 36972.82199999995,
      "d": 162.16150000000198,
      "v": 95
    },
    {
      "midi": 68,
      "hit": false,
      "t": 37134.98349999995,
      "d": 162.16150000000198,
      "v": 95
    },
    {
      "midi": 87,
      "hit": false,
      "t": 37297.14499999995,
      "d": 162.16150000000198,
      "v": 95
    },
    {
      "midi": 68,
      "hit": false,
      "t": 37459.306499999955,
      "d": 162.16150000000198,
      "v": 95
    },
    {
      "midi": 61,
      "hit": false,
      "t": 37621.46799999996,
      "d": 162.16150000000198,
      "v": 95
    },
    {
      "midi": 85,
      "hit": false,
      "t": 37621.46799999996,
      "d": 162.16150000000198,
      "v": 95
    },
    {
      "midi": 64,
      "hit": false,
      "t": 37783.62949999996,
      "d": 162.16150000000198,
      "v": 95
    },
    {
      "midi": 68,
      "hit": false,
      "t": 37945.79099999996,
      "d": 162.16150000000198,
      "v": 95
    },
    {
      "midi": 88,
      "hit": false,
      "t": 38107.95249999996,
      "d": 162.16150000000198,
      "v": 95
    },
    {
      "midi": 64,
      "hit": false,
      "t": 38270.113999999965,
      "d": 162.16150000000198,
      "v": 95
    },
    {
      "midi": 68,
      "hit": false,
      "t": 38432.27549999997,
      "d": 162.16150000000198,
      "v": 95
    },
    {
      "midi": 87,
      "hit": false,
      "t": 38594.43699999997,
      "d": 162.16150000000198,
      "v": 95
    },
    {
      "midi": 64,
      "hit": false,
      "t": 38756.59849999997,
      "d": 162.16150000000198,
      "v": 95
    },
    {
      "midi": 85,
      "hit": false,
      "t": 38918.75999999997,
      "d": 162.16150000000198,
      "v": 95
    },
    {
      "midi": 68,
      "hit": false,
      "t": 39080.921499999975,
      "d": 81.08075000000099,
      "v": 95
    },
    {
      "midi": 80,
      "hit": false,
      "t": 39243.08299999998,
      "d": 162.16150000000198,
      "v": 95
    },
    {
      "midi": 68,
      "hit": false,
      "t": 39405.24449999998,
      "d": 162.16150000000198,
      "v": 95
    },
    {
      "midi": 61,
      "hit": false,
      "t": 39567.40599999998,
      "d": 162.16150000000198,
      "v": 95
    },
    {
      "midi": 85,
      "hit": false,
      "t": 39567.40599999998,
      "d": 162.16150000000198,
      "v": 95
    },
    {
      "midi": 64,
      "hit": false,
      "t": 39729.56749999998,
      "d": 162.16150000000198,
      "v": 95
    },
    {
      "midi": 68,
      "hit": false,
      "t": 39891.728999999985,
      "d": 162.16150000000198,
      "v": 95
    },
    {
      "midi": 88,
      "hit": false,
      "t": 40053.89049999999,
      "d": 162.16150000000198,
      "v": 95
    },
    {
      "midi": 64,
      "hit": false,
      "t": 40216.05199999999,
      "d": 162.16150000000198,
      "v": 95
    },
    {
      "midi": 68,
      "hit": false,
      "t": 40378.21349999999,
      "d": 162.16150000000198,
      "v": 95
    },
    {
      "midi": 87,
      "hit": false,
      "t": 40540.37499999999,
      "d": 162.16150000000198,
      "v": 95
    },
    {
      "midi": 64,
      "hit": false,
      "t": 40702.536499999995,
      "d": 162.16150000000198,
      "v": 95
    },
    {
      "midi": 85,
      "hit": false,
      "t": 40864.698,
      "d": 162.16150000000198,
      "v": 95
    },
    {
      "midi": 68,
      "hit": false,
      "t": 41026.8595,
      "d": 81.08075000000099,
      "v": 95
    },
    {
      "midi": 80,
      "hit": false,
      "t": 41189.021,
      "d": 162.16150000000198,
      "v": 95
    },
    {
      "midi": 68,
      "hit": false,
      "t": 41351.1825,
      "d": 162.16150000000198,
      "v": 95
    },
    {
      "midi": 57,
      "hit": false,
      "t": 41513.344000000005,
      "d": 162.16150000000198,
      "v": 95
    },
    {
      "midi": 85,
      "hit": false,
      "t": 41513.344000000005,
      "d": 162.16150000000198,
      "v": 95
    },
    {
      "midi": 61,
      "hit": false,
      "t": 41675.50550000001,
      "d": 162.16150000000198,
      "v": 95
    },
    {
      "midi": 64,
      "hit": false,
      "t": 41837.66700000001,
      "d": 162.16150000000198,
      "v": 95
    },
    {
      "midi": 88,
      "hit": false,
      "t": 41999.82850000001,
      "d": 162.16150000000198,
      "v": 95
    },
    {
      "midi": 61,
      "hit": false,
      "t": 42161.99000000001,
      "d": 162.16150000000198,
      "v": 95
    },
    {
      "midi": 64,
      "hit": false,
      "t": 42324.151500000014,
      "d": 162.16150000000198,
      "v": 95
    },
    {
      "midi": 87,
      "hit": false,
      "t": 42486.31300000002,
      "d": 162.16150000000198,
      "v": 95
    },
    {
      "midi": 61,
      "hit": false,
      "t": 42648.47450000002,
      "d": 162.16150000000198,
      "v": 95
    },
    {
      "midi": 85,
      "hit": false,
      "t": 42810.63600000002,
      "d": 162.16150000000198,
      "v": 95
    },
    {
      "midi": 64,
      "hit": false,
      "t": 42972.79750000002,
      "d": 162.16150000000198,
      "v": 95
    },
    {
      "midi": 80,
      "hit": false,
      "t": 43134.959000000024,
      "d": 162.16150000000198,
      "v": 95
    },
    {
      "midi": 64,
      "hit": false,
      "t": 43297.12050000003,
      "d": 162.16150000000198,
      "v": 95
    },
    {
      "midi": 59,
      "hit": false,
      "t": 43459.28200000003,
      "d": 162.16150000000198,
      "v": 95
    },
    {
      "midi": 83,
      "hit": false,
      "t": 43459.28200000003,
      "d": 162.16150000000198,
      "v": 95
    },
    {
      "midi": 63,
      "hit": false,
      "t": 43621.44350000003,
      "d": 162.16150000000198,
      "v": 95
    },
    {
      "midi": 68,
      "hit": false,
      "t": 43783.60500000003,
      "d": 162.16150000000198,
      "v": 95
    },
    {
      "midi": 80,
      "hit": false,
      "t": 43945.766500000034,
      "d": 162.16150000000198,
      "v": 95
    },
    {
      "midi": 63,
      "hit": false,
      "t": 44107.928000000036,
      "d": 162.16150000000198,
      "v": 95
    },
    {
      "midi": 68,
      "hit": false,
      "t": 44270.08950000004,
      "d": 162.16150000000198,
      "v": 95
    },
    {
      "midi": 87,
      "hit": false,
      "t": 44432.25100000004,
      "d": 162.16150000000198,
      "v": 95
    },
    {
      "midi": 63,
      "hit": false,
      "t": 44594.41250000004,
      "d": 162.16150000000198,
      "v": 95
    },
    {
      "midi": 88,
      "hit": false,
      "t": 44756.574000000044,
      "d": 162.16150000000198,
      "v": 95
    },
    {
      "midi": 68,
      "hit": false,
      "t": 44918.735500000046,
      "d": 162.16150000000198,
      "v": 95
    },
    {
      "midi": 87,
      "hit": false,
      "t": 45080.89700000005,
      "d": 162.16150000000198,
      "v": 95
    },
    {
      "midi": 68,
      "hit": false,
      "t": 45243.05850000005,
      "d": 162.16150000000198,
      "v": 95
    },
    {
      "midi": 76,
      "hit": false,
      "t": 88053.69450000006,
      "d": 486.48450000000594,
      "v": 95
    },
    {
      "midi": 75,
      "hit": false,
      "t": 88540.17900000006,
      "d": 324.32300000000396,
      "v": 95
    },
    {
      "midi": 76,
      "hit": false,
      "t": 88864.50200000007,
      "d": 324.32300000000396,
      "v": 95
    },
    {
      "midi": 73,
      "hit": false,
      "t": 89188.82500000007,
      "d": 972.9689999999973,
      "v": 95
    },
    {
      "midi": 73,
      "hit": false,
      "t": 90161.79400000007,
      "d": 162.16150000000198,
      "v": 95
    },
    {
      "midi": 75,
      "hit": false,
      "t": 90323.95550000007,
      "d": 162.16150000000198,
      "v": 95
    },
    {
      "midi": 76,
      "hit": false,
      "t": 90486.11700000007,
      "d": 162.16150000000198,
      "v": 95
    },
    {
      "midi": 78,
      "hit": false,
      "t": 90648.27850000007,
      "d": 486.48450000000594,
      "v": 95
    },
    {
      "midi": 76,
      "hit": false,
      "t": 91134.76300000008,
      "d": 324.32300000000396,
      "v": 95
    },
    {
      "midi": 78,
      "hit": false,
      "t": 91459.08600000008,
      "d": 324.32300000000396,
      "v": 95
    },
    {
      "midi": 75,
      "hit": false,
      "t": 91783.40900000009,
      "d": 162.16150000000198,
      "v": 95
    },
    {
      "midi": 75,
      "hit": false,
      "t": 91945.57050000009,
      "d": 486.48450000000594,
      "v": 95
    },
    {
      "midi": 81,
      "hit": false,
      "t": 92432.0550000001,
      "d": 486.48450000000594,
      "v": 95
    },
    {
      "midi": 81,
      "hit": false,
      "t": 92918.5395000001,
      "d": 324.32300000000396,
      "v": 95
    },
    {
      "midi": 81,
      "hit": false,
      "t": 93242.8625000001,
      "d": 7.432402083330089,
      "v": 95
    },
    {
      "midi": 80,
      "hit": false,
      "t": 93729.3470000001,
      "d": 324.32300000000396,
      "v": 95
    },
    {
      "midi": 78,
      "hit": false,
      "t": 94053.6700000001,
      "d": 324.32300000000396,
      "v": 95
    },
    {
      "midi": 80,
      "hit": false,
      "t": 94377.9930000001,
      "d": 1135.1304999999993,
      "v": 95
    },
    {
      "midi": 78,
      "hit": false,
      "t": 95513.1235000001,
      "d": 162.16150000000198,
      "v": 95
    },
    {
      "midi": 76,
      "hit": false,
      "t": 95675.2850000001,
      "d": 162.16150000000198,
      "v": 95
    },
    {
      "midi": 75,
      "hit": false,
      "t": 95837.44650000011,
      "d": 486.48450000000594,
      "v": 95
    },
    {
      "midi": 80,
      "hit": false,
      "t": 96323.93100000011,
      "d": 486.48450000000594,
      "v": 95
    },
    {
      "midi": 75,
      "hit": false,
      "t": 96810.41550000012,
      "d": 324.32300000000396,
      "v": 95
    },
    {
      "midi": 76,
      "hit": false,
      "t": 97134.73850000012,
      "d": 162.16150000000198,
      "v": 95
    },
    {
      "midi": 75,
      "hit": false,
      "t": 97296.90000000013,
      "d": 162.16150000000198,
      "v": 95
    },
    {
      "midi": 73,
      "hit": false,
      "t": 97459.06150000013,
      "d": 972.9689999999391,
      "v": 95
    },
    {
      "midi": 76,
      "hit": false,
      "t": 98432.03050000007,
      "d": 486.48450000000594,
      "v": 95
    },
    {
      "midi": 75,
      "hit": false,
      "t": 98918.51500000007,
      "d": 324.32300000000396,
      "v": 95
    },
    {
      "midi": 76,
      "hit": false,
      "t": 99242.83800000008,
      "d": 324.32300000000396,
      "v": 95
    },
    {
      "midi": 73,
      "hit": false,
      "t": 99567.16100000008,
      "d": 972.9689999999973,
      "v": 95
    },
    {
      "midi": 73,
      "hit": false,
      "t": 100540.13000000008,
      "d": 162.16150000000198,
      "v": 95
    },
    {
      "midi": 75,
      "hit": false,
      "t": 100702.29150000008,
      "d": 162.16150000000198,
      "v": 95
    },
    {
      "midi": 76,
      "hit": false,
      "t": 100864.45300000008,
      "d": 162.16150000000198,
      "v": 95
    },
    {
      "midi": 78,
      "hit": false,
      "t": 101026.61450000008,
      "d": 486.48450000000594,
      "v": 95
    },
    {
      "midi": 76,
      "hit": false,
      "t": 101513.09900000009,
      "d": 324.32300000000396,
      "v": 95
    },
    {
      "midi": 78,
      "hit": false,
      "t": 101837.4220000001,
      "d": 324.32300000000396,
      "v": 95
    },
    {
      "midi": 75,
      "hit": false,
      "t": 102161.7450000001,
      "d": 162.16150000000198,
      "v": 95
    },
    {
      "midi": 75,
      "hit": false,
      "t": 102323.9065000001,
      "d": 486.48450000000594,
      "v": 95
    },
    {
      "midi": 81,
      "hit": false,
      "t": 102810.3910000001,
      "d": 486.48450000000594,
      "v": 95
    },
    {
      "midi": 81,
      "hit": false,
      "t": 103296.87550000011,
      "d": 324.32300000000396,
      "v": 95
    },
    {
      "midi": 81,
      "hit": false,
      "t": 103621.19850000012,
      "d": 7.432402083330089,
      "v": 95
    },
    {
      "midi": 80,
      "hit": false,
      "t": 104107.6830000001,
      "d": 324.32300000000396,
      "v": 95
    },
    {
      "midi": 78,
      "hit": false,
      "t": 104432.00600000011,
      "d": 324.32300000000396,
      "v": 95
    },
    {
      "midi": 80,
      "hit": false,
      "t": 104756.32900000011,
      "d": 1135.1304999999993,
      "v": 95
    },
    {
      "midi": 78,
      "hit": false,
      "t": 105891.45950000011,
      "d": 162.16150000000198,
      "v": 95
    },
    {
      "midi": 76,
      "hit": false,
      "t": 106053.62100000012,
      "d": 162.16150000000198,
      "v": 95
    },
    {
      "midi": 75,
      "hit": false,
      "t": 106215.78250000012,
      "d": 486.48450000000594,
      "v": 95
    },
    {
      "midi": 80,
      "hit": false,
      "t": 106702.26700000012,
      "d": 486.48450000000594,
      "v": 95
    },
    {
      "midi": 75,
      "hit": false,
      "t": 107188.75150000013,
      "d": 324.32300000000396,
      "v": 95
    },
    {
      "midi": 76,
      "hit": false,
      "t": 107513.07450000013,
      "d": 162.16150000000198,
      "v": 95
    },
    {
      "midi": 75,
      "hit": false,
      "t": 107675.23600000014,
      "d": 162.16150000000198,
      "v": 95
    },
    {
      "midi": 73,
      "hit": false,
      "t": 107837.39750000014,
      "d": 972.9689999999391,
      "v": 95
    },
    {
      "midi": 61,
      "hit": false,
      "t": 108810.36650000008,
      "d": 162.16150000000198,
      "v": 95
    },
    {
      "midi": 85,
      "hit": false,
      "t": 108810.36650000008,
      "d": 162.16150000000198,
      "v": 95
    },
    {
      "midi": 64,
      "hit": false,
      "t": 108972.52800000008,
      "d": 162.16150000000198,
      "v": 95
    },
    {
      "midi": 68,
      "hit": false,
      "t": 109134.68950000008,
      "d": 162.16150000000198,
      "v": 95
    },
    {
      "midi": 88,
      "hit": false,
      "t": 109296.85100000008,
      "d": 162.16150000000198,
      "v": 95
    },
    {
      "midi": 64,
      "hit": false,
      "t": 109459.01250000008,
      "d": 162.16150000000198,
      "v": 95
    },
    {
      "midi": 68,
      "hit": false,
      "t": 109621.17400000009,
      "d": 162.16150000000198,
      "v": 95
    },
    {
      "midi": 87,
      "hit": false,
      "t": 109783.33550000009,
      "d": 162.16150000000198,
      "v": 95
    },
    {
      "midi": 64,
      "hit": false,
      "t": 109945.49700000009,
      "d": 162.16150000000198,
      "v": 95
    },
    {
      "midi": 85,
      "hit": false,
      "t": 110107.65850000009,
      "d": 162.16150000000198,
      "v": 95
    },
    {
      "midi": 68,
      "hit": false,
      "t": 110269.8200000001,
      "d": 81.08074999999371,
      "v": 95
    },
    {
      "midi": 80,
      "hit": false,
      "t": 110431.98150000008,
      "d": 162.16150000000198,
      "v": 95
    },
    {
      "midi": 68,
      "hit": false,
      "t": 110594.14300000008,
      "d": 162.16150000000198,
      "v": 95
    },
    {
      "midi": 61,
      "hit": false,
      "t": 110756.30450000009,
      "d": 162.16150000000198,
      "v": 95
    },
    {
      "midi": 85,
      "hit": false,
      "t": 110756.30450000009,
      "d": 162.16150000000198,
      "v": 95
    },
    {
      "midi": 64,
      "hit": false,
      "t": 110918.46600000009,
      "d": 162.16150000000198,
      "v": 95
    },
    {
      "midi": 68,
      "hit": false,
      "t": 111080.62750000009,
      "d": 162.16150000000198,
      "v": 95
    },
    {
      "midi": 88,
      "hit": false,
      "t": 111242.78900000009,
      "d": 162.16150000000198,
      "v": 95
    },
    {
      "midi": 64,
      "hit": false,
      "t": 111404.9505000001,
      "d": 162.16150000000198,
      "v": 95
    },
    {
      "midi": 68,
      "hit": false,
      "t": 111567.1120000001,
      "d": 162.16150000000198,
      "v": 95
    },
    {
      "midi": 87,
      "hit": false,
      "t": 111729.2735000001,
      "d": 162.16150000000198,
      "v": 95
    },
    {
      "midi": 64,
      "hit": false,
      "t": 111891.4350000001,
      "d": 162.16150000000198,
      "v": 95
    },
    {
      "midi": 85,
      "hit": false,
      "t": 112053.5965000001,
      "d": 162.16150000000198,
      "v": 95
    },
    {
      "midi": 68,
      "hit": false,
      "t": 112215.7580000001,
      "d": 81.08074999999371,
      "v": 95
    },
    {
      "midi": 80,
      "hit": false,
      "t": 112377.91950000009,
      "d": 162.16150000000198,
      "v": 95
    },
    {
      "midi": 68,
      "hit": false,
      "t": 112540.0810000001,
      "d": 162.16150000000198,
      "v": 95
    },
    {
      "midi": 57,
      "hit": false,
      "t": 112702.2425000001,
      "d": 162.16150000000198,
      "v": 95
    },
    {
      "midi": 85,
      "hit": false,
      "t": 112702.2425000001,
      "d": 162.16150000000198,
      "v": 95
    },
    {
      "midi": 61,
      "hit": false,
      "t": 112864.4040000001,
      "d": 162.16150000000198,
      "v": 95
    },
    {
      "midi": 64,
      "hit": false,
      "t": 113026.5655000001,
      "d": 162.16150000000198,
      "v": 95
    },
    {
      "midi": 88,
      "hit": false,
      "t": 113188.7270000001,
      "d": 162.16150000000198,
      "v": 95
    },
    {
      "midi": 61,
      "hit": false,
      "t": 113350.8885000001,
      "d": 162.16150000000198,
      "v": 95
    },
    {
      "midi": 64,
      "hit": false,
      "t": 113513.0500000001,
      "d": 162.16150000000198,
      "v": 95
    },
    {
      "midi": 87,
      "hit": false,
      "t": 113675.2115000001,
      "d": 162.16150000000198,
      "v": 95
    },
    {
      "midi": 61,
      "hit": false,
      "t": 113837.37300000011,
      "d": 162.16150000000198,
      "v": 95
    },
    {
      "midi": 85,
      "hit": false,
      "t": 113999.53450000011,
      "d": 162.16150000000198,
      "v": 95
    },
    {
      "midi": 64,
      "hit": false,
      "t": 114161.69600000011,
      "d": 162.16150000000198,
      "v": 95
    },
    {
      "midi": 80,
      "hit": false,
      "t": 114323.85750000011,
      "d": 162.16150000000198,
      "v": 95
    },
    {
      "midi": 64,
      "hit": false,
      "t": 114486.01900000012,
      "d": 162.16150000000198,
      "v": 95
    },
    {
      "midi": 59,
      "hit": false,
      "t": 114648.18050000012,
      "d": 162.16150000000198,
      "v": 95
    },
    {
      "midi": 83,
      "hit": false,
      "t": 114648.18050000012,
      "d": 162.16150000000198,
      "v": 95
    },
    {
      "midi": 63,
      "hit": false,
      "t": 114810.34200000012,
      "d": 162.16150000000198,
      "v": 95
    },
    {
      "midi": 68,
      "hit": false,
      "t": 114972.50350000012,
      "d": 162.16150000000198,
      "v": 95
    },
    {
      "midi": 80,
      "hit": false,
      "t": 115134.66500000012,
      "d": 162.16150000000198,
      "v": 95
    },
    {
      "midi": 63,
      "hit": false,
      "t": 115296.82650000013,
      "d": 162.16150000000198,
      "v": 95
    },
    {
      "midi": 68,
      "hit": false,
      "t": 115458.98800000013,
      "d": 162.16150000000198,
      "v": 95
    },
    {
      "midi": 87,
      "hit": false,
      "t": 115621.14950000013,
      "d": 162.16150000000198,
      "v": 95
    },
    {
      "midi": 63,
      "hit": false,
      "t": 115783.31100000013,
      "d": 162.16150000000198,
      "v": 95
    },
    {
      "midi": 88,
      "hit": false,
      "t": 115945.47250000013,
      "d": 162.16150000000198,
      "v": 95
    },
    {
      "midi": 68,
      "hit": false,
      "t": 116107.63400000014,
      "d": 162.16150000000198,
      "v": 95
    },
    {
      "midi": 87,
      "hit": false,
      "t": 116269.79550000014,
      "d": 162.16150000000198,
      "v": 95
    },
    {
      "midi": 68,
      "hit": false,
      "t": 116431.95700000014,
      "d": 162.16150000000198,
      "v": 95
    },
    {
      "midi": 61,
      "hit": false,
      "t": 116594.11850000014,
      "d": 162.16150000000198,
      "v": 95
    },
    {
      "midi": 85,
      "hit": false,
      "t": 116594.11850000014,
      "d": 162.16150000000198,
      "v": 95
    },
    {
      "midi": 64,
      "hit": false,
      "t": 116756.28000000014,
      "d": 162.16150000000198,
      "v": 95
    },
    {
      "midi": 68,
      "hit": false,
      "t": 116918.44150000015,
      "d": 162.16150000000198,
      "v": 95
    },
    {
      "midi": 88,
      "hit": false,
      "t": 117080.60300000015,
      "d": 162.16150000000198,
      "v": 95
    },
    {
      "midi": 64,
      "hit": false,
      "t": 117242.76450000015,
      "d": 162.16150000000198,
      "v": 95
    },
    {
      "midi": 68,
      "hit": false,
      "t": 117404.92600000015,
      "d": 162.16150000000198,
      "v": 95
    },
    {
      "midi": 87,
      "hit": false,
      "t": 117567.08750000015,
      "d": 162.16150000000198,
      "v": 95
    },
    {
      "midi": 64,
      "hit": false,
      "t": 117729.24900000016,
      "d": 162.16150000000198,
      "v": 95
    },
    {
      "midi": 85,
      "hit": false,
      "t": 117891.41050000016,
      "d": 162.16150000000198,
      "v": 95
    },
    {
      "midi": 68,
      "hit": false,
      "t": 118053.57200000016,
      "d": 81.08074999999371,
      "v": 95
    },
    {
      "midi": 80,
      "hit": false,
      "t": 118215.73350000015,
      "d": 162.16150000000198,
      "v": 95
    },
    {
      "midi": 68,
      "hit": false,
      "t": 118377.89500000015,
      "d": 162.16150000000198,
      "v": 95
    },
    {
      "midi": 61,
      "hit": false,
      "t": 118540.05650000015,
      "d": 162.16150000000198,
      "v": 95
    },
    {
      "midi": 85,
      "hit": false,
      "t": 118540.05650000015,
      "d": 162.16150000000198,
      "v": 95
    },
    {
      "midi": 64,
      "hit": false,
      "t": 118702.21800000015,
      "d": 162.16150000000198,
      "v": 95
    },
    {
      "midi": 68,
      "hit": false,
      "t": 118864.37950000016,
      "d": 162.16150000000198,
      "v": 95
    },
    {
      "midi": 88,
      "hit": false,
      "t": 119026.54100000016,
      "d": 162.16150000000198,
      "v": 95
    },
    {
      "midi": 64,
      "hit": false,
      "t": 119188.70250000016,
      "d": 162.16150000000198,
      "v": 95
    },
    {
      "midi": 68,
      "hit": false,
      "t": 119350.86400000016,
      "d": 162.16150000000198,
      "v": 95
    },
    {
      "midi": 87,
      "hit": false,
      "t": 119513.02550000016,
      "d": 162.16150000000198,
      "v": 95
    },
    {
      "midi": 64,
      "hit": false,
      "t": 119675.18700000017,
      "d": 162.16150000000198,
      "v": 95
    },
    {
      "midi": 85,
      "hit": false,
      "t": 119837.34850000017,
      "d": 162.16150000000198,
      "v": 95
    },
    {
      "midi": 68,
      "hit": false,
      "t": 119999.51000000017,
      "d": 81.08074999999371,
      "v": 95
    },
    {
      "midi": 80,
      "hit": false,
      "t": 120161.67150000016,
      "d": 162.16150000000198,
      "v": 95
    },
    {
      "midi": 68,
      "hit": false,
      "t": 120323.83300000016,
      "d": 162.16150000000198,
      "v": 95
    },
    {
      "midi": 57,
      "hit": false,
      "t": 120485.99450000016,
      "d": 162.16150000000198,
      "v": 95
    },
    {
      "midi": 85,
      "hit": false,
      "t": 120485.99450000016,
      "d": 162.16150000000198,
      "v": 95
    },
    {
      "midi": 61,
      "hit": false,
      "t": 120648.15600000016,
      "d": 162.16150000000198,
      "v": 95
    },
    {
      "midi": 64,
      "hit": false,
      "t": 120810.31750000016,
      "d": 162.16150000000198,
      "v": 95
    },
    {
      "midi": 88,
      "hit": false,
      "t": 120972.47900000017,
      "d": 162.16150000000198,
      "v": 95
    },
    {
      "midi": 61,
      "hit": false,
      "t": 121134.64050000017,
      "d": 162.16150000000198,
      "v": 95
    },
    {
      "midi": 64,
      "hit": false,
      "t": 121296.80200000017,
      "d": 162.16150000000198,
      "v": 95
    },
    {
      "midi": 87,
      "hit": false,
      "t": 121458.96350000017,
      "d": 162.16150000000198,
      "v": 95
    },
    {
      "midi": 61,
      "hit": false,
      "t": 121621.12500000017,
      "d": 162.16150000000198,
      "v": 95
    },
    {
      "midi": 85,
      "hit": false,
      "t": 121783.28650000018,
      "d": 162.16150000000198,
      "v": 95
    },
    {
      "midi": 64,
      "hit": false,
      "t": 121945.44800000018,
      "d": 162.16150000000198,
      "v": 95
    },
    {
      "midi": 80,
      "hit": false,
      "t": 122107.60950000018,
      "d": 162.16150000000198,
      "v": 95
    },
    {
      "midi": 64,
      "hit": false,
      "t": 122269.77100000018,
      "d": 162.16150000000198,
      "v": 95
    },
    {
      "midi": 59,
      "hit": false,
      "t": 122431.93250000018,
      "d": 162.16150000000198,
      "v": 95
    },
    {
      "midi": 83,
      "hit": false,
      "t": 122431.93250000018,
      "d": 162.16150000000198,
      "v": 95
    },
    {
      "midi": 63,
      "hit": false,
      "t": 122594.09400000019,
      "d": 162.16150000000198,
      "v": 95
    },
    {
      "midi": 68,
      "hit": false,
      "t": 122756.25550000019,
      "d": 162.16150000000198,
      "v": 95
    },
    {
      "midi": 80,
      "hit": false,
      "t": 122918.41700000019,
      "d": 162.16150000000198,
      "v": 95
    },
    {
      "midi": 63,
      "hit": false,
      "t": 123080.57850000019,
      "d": 162.16150000000198,
      "v": 95
    },
    {
      "midi": 68,
      "hit": false,
      "t": 123242.7400000002,
      "d": 162.16150000000198,
      "v": 95
    },
    {
      "midi": 87,
      "hit": false,
      "t": 123404.9015000002,
      "d": 162.16150000000198,
      "v": 95
    },
    {
      "midi": 63,
      "hit": false,
      "t": 123567.0630000002,
      "d": 162.16150000000198,
      "v": 95
    },
    {
      "midi": 88,
      "hit": false,
      "t": 123729.2245000002,
      "d": 162.16150000000198,
      "v": 95
    },
    {
      "midi": 68,
      "hit": false,
      "t": 123891.3860000002,
      "d": 162.16150000000198,
      "v": 95
    },
    {
      "midi": 87,
      "hit": false,
      "t": 124053.5475000002,
      "d": 162.16150000000198,
      "v": 95
    },
    {
      "midi": 68,
      "hit": false,
      "t": 124215.7090000002,
      "d": 162.16150000000198,
      "v": 95
    },
    {
      "midi": 61,
      "hit": false,
      "t": 124377.87050000021,
      "d": 162.16150000000198,
      "v": 95
    },
    {
      "midi": 85,
      "hit": false,
      "t": 124377.87050000021,
      "d": 162.16150000000198,
      "v": 95
    },
    {
      "midi": 64,
      "hit": false,
      "t": 124540.03200000021,
      "d": 162.16150000000198,
      "v": 95
    },
    {
      "midi": 68,
      "hit": false,
      "t": 124702.19350000021,
      "d": 162.16150000000198,
      "v": 95
    },
    {
      "midi": 88,
      "hit": false,
      "t": 124864.35500000021,
      "d": 162.16150000000198,
      "v": 95
    },
    {
      "midi": 64,
      "hit": false,
      "t": 125026.51650000022,
      "d": 162.16150000000198,
      "v": 95
    },
    {
      "midi": 68,
      "hit": false,
      "t": 125188.67800000022,
      "d": 162.16150000000198,
      "v": 95
    },
    {
      "midi": 87,
      "hit": false,
      "t": 125350.83950000022,
      "d": 162.16150000000198,
      "v": 95
    },
    {
      "midi": 64,
      "hit": false,
      "t": 125513.00100000022,
      "d": 162.16150000000198,
      "v": 95
    },
    {
      "midi": 85,
      "hit": false,
      "t": 125675.16250000022,
      "d": 162.16150000000198,
      "v": 95
    },
    {
      "midi": 68,
      "hit": false,
      "t": 125837.32400000023,
      "d": 81.08074999999371,
      "v": 95
    },
    {
      "midi": 80,
      "hit": false,
      "t": 125999.48550000021,
      "d": 162.16150000000198,
      "v": 95
    },
    {
      "midi": 68,
      "hit": false,
      "t": 126161.64700000022,
      "d": 162.16150000000198,
      "v": 95
    },
    {
      "midi": 61,
      "hit": false,
      "t": 126323.80850000022,
      "d": 162.16150000000198,
      "v": 95
    },
    {
      "midi": 85,
      "hit": false,
      "t": 126323.80850000022,
      "d": 162.16150000000198,
      "v": 95
    },
    {
      "midi": 64,
      "hit": false,
      "t": 126485.97000000022,
      "d": 162.16150000000198,
      "v": 95
    },
    {
      "midi": 68,
      "hit": false,
      "t": 126648.13150000022,
      "d": 162.16150000000198,
      "v": 95
    },
    {
      "midi": 88,
      "hit": false,
      "t": 126810.29300000022,
      "d": 162.16150000000198,
      "v": 95
    },
    {
      "midi": 64,
      "hit": false,
      "t": 126972.45450000023,
      "d": 162.16150000000198,
      "v": 95
    },
    {
      "midi": 68,
      "hit": false,
      "t": 127134.61600000023,
      "d": 162.16150000000198,
      "v": 95
    },
    {
      "midi": 87,
      "hit": false,
      "t": 127296.77750000023,
      "d": 162.16150000000198,
      "v": 95
    },
    {
      "midi": 64,
      "hit": false,
      "t": 127458.93900000023,
      "d": 162.16150000000198,
      "v": 95
    },
    {
      "midi": 85,
      "hit": false,
      "t": 127621.10050000023,
      "d": 162.16150000000198,
      "v": 95
    },
    {
      "midi": 68,
      "hit": false,
      "t": 127783.26200000024,
      "d": 81.08074999999371,
      "v": 95
    },
    {
      "midi": 80,
      "hit": false,
      "t": 127945.42350000022,
      "d": 162.16150000000198,
      "v": 95
    },
    {
      "midi": 68,
      "hit": false,
      "t": 128107.58500000022,
      "d": 162.16150000000198,
      "v": 95
    },
    {
      "midi": 57,
      "hit": false,
      "t": 128269.74650000023,
      "d": 162.16150000000198,
      "v": 95
    },
    {
      "midi": 85,
      "hit": false,
      "t": 128269.74650000023,
      "d": 162.16150000000198,
      "v": 95
    },
    {
      "midi": 61,
      "hit": false,
      "t": 128431.90800000023,
      "d": 162.16150000000198,
      "v": 95
    },
    {
      "midi": 64,
      "hit": false,
      "t": 128594.06950000023,
      "d": 162.16150000000198,
      "v": 95
    },
    {
      "midi": 88,
      "hit": false,
      "t": 128756.23100000023,
      "d": 162.16150000000198,
      "v": 95
    },
    {
      "midi": 61,
      "hit": false,
      "t": 128918.39250000023,
      "d": 162.16150000000198,
      "v": 95
    },
    {
      "midi": 64,
      "hit": false,
      "t": 129080.55400000024,
      "d": 162.16150000000198,
      "v": 95
    },
    {
      "midi": 87,
      "hit": false,
      "t": 129242.71550000024,
      "d": 162.16150000000198,
      "v": 95
    },
    {
      "midi": 61,
      "hit": false,
      "t": 129404.87700000024,
      "d": 162.16150000000198,
      "v": 95
    },
    {
      "midi": 85,
      "hit": false,
      "t": 129567.03850000024,
      "d": 162.16150000000198,
      "v": 95
    },
    {
      "midi": 64,
      "hit": false,
      "t": 129729.20000000024,
      "d": 162.16150000000198,
      "v": 95
    },
    {
      "midi": 80,
      "hit": false,
      "t": 129891.36150000025,
      "d": 162.16150000000198,
      "v": 95
    },
    {
      "midi": 64,
      "hit": false,
      "t": 130053.52300000025,
      "d": 162.16150000000198,
      "v": 95
    },
    {
      "midi": 59,
      "hit": false,
      "t": 130215.68450000025,
      "d": 162.16150000000198,
      "v": 95
    },
    {
      "midi": 83,
      "hit": false,
      "t": 130215.68450000025,
      "d": 162.16150000000198,
      "v": 95
    },
    {
      "midi": 63,
      "hit": false,
      "t": 130377.84600000025,
      "d": 162.16150000000198,
      "v": 95
    },
    {
      "midi": 68,
      "hit": false,
      "t": 130540.00750000025,
      "d": 162.16150000000198,
      "v": 95
    },
    {
      "midi": 80,
      "hit": false,
      "t": 130702.16900000026,
      "d": 162.16150000000198,
      "v": 95
    },
    {
      "midi": 63,
      "hit": false,
      "t": 130864.33050000026,
      "d": 162.16150000000198,
      "v": 95
    },
    {
      "midi": 68,
      "hit": false,
      "t": 131026.49200000026,
      "d": 162.16149999998743,
      "v": 95
    },
    {
      "midi": 87,
      "hit": false,
      "t": 131188.65350000025,
      "d": 162.16149999998743,
      "v": 95
    },
    {
      "midi": 63,
      "hit": false,
      "t": 131350.81500000024,
      "d": 162.16149999998743,
      "v": 95
    },
    {
      "midi": 88,
      "hit": false,
      "t": 131512.97650000022,
      "d": 162.16149999998743,
      "v": 95
    },
    {
      "midi": 68,
      "hit": false,
      "t": 131675.1380000002,
      "d": 162.16149999998743,
      "v": 95
    },
    {
      "midi": 87,
      "hit": false,
      "t": 131837.2995000002,
      "d": 162.16149999998743,
      "v": 95
    },
    {
      "midi": 68,
      "hit": false,
      "t": 131999.46100000018,
      "d": 162.16149999998743,
      "v": 95
    },
    {
      "midi": 76,
      "hit": false,
      "t": 189080.30900000018,
      "d": 486.4844999999914,
      "v": 95
    },
    {
      "midi": 75,
      "hit": false,
      "t": 189566.79350000017,
      "d": 324.32300000000396,
      "v": 95
    },
    {
      "midi": 76,
      "hit": false,
      "t": 189891.11650000018,
      "d": 324.32300000000396,
      "v": 95
    },
    {
      "midi": 73,
      "hit": false,
      "t": 190215.43950000018,
      "d": 972.9690000000119,
      "v": 95
    },
    {
      "midi": 73,
      "hit": false,
      "t": 191188.4085000002,
      "d": 162.16149999998743,
      "v": 95
    },
    {
      "midi": 75,
      "hit": false,
      "t": 191350.57000000018,
      "d": 162.16149999998743,
      "v": 95
    },
    {
      "midi": 76,
      "hit": false,
      "t": 191512.73150000017,
      "d": 162.16149999998743,
      "v": 95
    },
    {
      "midi": 78,
      "hit": false,
      "t": 191674.89300000016,
      "d": 486.4844999999914,
      "v": 95
    },
    {
      "midi": 76,
      "hit": false,
      "t": 192161.37750000015,
      "d": 324.32300000000396,
      "v": 95
    },
    {
      "midi": 78,
      "hit": false,
      "t": 192485.70050000015,
      "d": 324.32300000000396,
      "v": 95
    },
    {
      "midi": 75,
      "hit": false,
      "t": 192810.02350000016,
      "d": 162.16149999998743,
      "v": 95
    },
    {
      "midi": 75,
      "hit": false,
      "t": 192972.18500000014,
      "d": 486.4844999999914,
      "v": 95
    },
    {
      "midi": 81,
      "hit": false,
      "t": 193458.66950000013,
      "d": 486.4844999999914,
      "v": 95
    },
    {
      "midi": 81,
      "hit": false,
      "t": 193945.15400000013,
      "d": 324.32300000000396,
      "v": 95
    },
    {
      "midi": 81,
      "hit": false,
      "t": 194269.47700000013,
      "d": 7.432402083330089,
      "v": 95
    },
    {
      "midi": 80,
      "hit": false,
      "t": 194755.96150000012,
      "d": 324.32300000000396,
      "v": 95
    },
    {
      "midi": 78,
      "hit": false,
      "t": 195080.28450000013,
      "d": 324.32300000000396,
      "v": 95
    },
    {
      "midi": 80,
      "hit": false,
      "t": 195404.60750000013,
      "d": 1135.1304999999993,
      "v": 95
    },
    {
      "midi": 78,
      "hit": false,
      "t": 196539.73800000013,
      "d": 162.16149999998743,
      "v": 95
    },
    {
      "midi": 76,
      "hit": false,
      "t": 196701.89950000012,
      "d": 162.16149999998743,
      "v": 95
    },
    {
      "midi": 75,
      "hit": false,
      "t": 196864.0610000001,
      "d": 486.4844999999914,
      "v": 95
    },
    {
      "midi": 80,
      "hit": false,
      "t": 197350.5455000001,
      "d": 486.4844999999914,
      "v": 95
    },
    {
      "midi": 75,
      "hit": false,
      "t": 197837.0300000001,
      "d": 324.32300000000396,
      "v": 95
    },
    {
      "midi": 76,
      "hit": false,
      "t": 198161.3530000001,
      "d": 162.16149999998743,
      "v": 95
    },
    {
      "midi": 75,
      "hit": false,
      "t": 198323.51450000008,
      "d": 162.16149999998743,
      "v": 95
    },
    {
      "midi": 73,
      "hit": false,
      "t": 198485.67600000006,
      "d": 972.9689999999537,
      "v": 95
    },
    {
      "midi": 76,
      "hit": false,
      "t": 199458.64500000002,
      "d": 486.4844999999914,
      "v": 95
    },
    {
      "midi": 75,
      "hit": false,
      "t": 199945.1295,
      "d": 324.32300000000396,
      "v": 95
    },
    {
      "midi": 76,
      "hit": false,
      "t": 200269.4525,
      "d": 324.32300000000396,
      "v": 95
    },
    {
      "midi": 73,
      "hit": false,
      "t": 200593.77550000002,
      "d": 972.9690000000119,
      "v": 95
    },
    {
      "midi": 73,
      "hit": false,
      "t": 201566.74450000003,
      "d": 162.16149999998743,
      "v": 95
    },
    {
      "midi": 75,
      "hit": false,
      "t": 201728.90600000002,
      "d": 162.16149999998743,
      "v": 95
    },
    {
      "midi": 76,
      "hit": false,
      "t": 201891.0675,
      "d": 162.16149999998743,
      "v": 95
    },
    {
      "midi": 78,
      "hit": false,
      "t": 202053.229,
      "d": 486.4844999999914,
      "v": 95
    },
    {
      "midi": 76,
      "hit": false,
      "t": 202539.71349999998,
      "d": 324.32300000000396,
      "v": 95
    },
    {
      "midi": 78,
      "hit": false,
      "t": 202864.0365,
      "d": 324.32300000000396,
      "v": 95
    },
    {
      "midi": 75,
      "hit": false,
      "t": 203188.3595,
      "d": 162.16149999998743,
      "v": 95
    },
    {
      "midi": 75,
      "hit": false,
      "t": 203350.52099999998,
      "d": 486.4844999999914,
      "v": 95
    },
    {
      "midi": 81,
      "hit": false,
      "t": 203837.00549999997,
      "d": 486.4844999999914,
      "v": 95
    },
    {
      "midi": 81,
      "hit": false,
      "t": 204323.48999999996,
      "d": 324.32300000000396,
      "v": 95
    },
    {
      "midi": 81,
      "hit": false,
      "t": 204647.81299999997,
      "d": 7.432402083330089,
      "v": 95
    },
    {
      "midi": 80,
      "hit": false,
      "t": 205134.29749999996,
      "d": 324.32300000000396,
      "v": 95
    },
    {
      "midi": 78,
      "hit": false,
      "t": 205458.62049999996,
      "d": 324.32300000000396,
      "v": 95
    },
    {
      "midi": 80,
      "hit": false,
      "t": 205782.94349999996,
      "d": 1135.1304999999993,
      "v": 95
    },
    {
      "midi": 78,
      "hit": false,
      "t": 206918.07399999996,
      "d": 162.16149999998743,
      "v": 95
    },
    {
      "midi": 76,
      "hit": false,
      "t": 207080.23549999995,
      "d": 162.16149999998743,
      "v": 95
    },
    {
      "midi": 75,
      "hit": false,
      "t": 207242.39699999994,
      "d": 486.4844999999914,
      "v": 95
    },
    {
      "midi": 80,
      "hit": false,
      "t": 207728.88149999993,
      "d": 486.4844999999914,
      "v": 95
    },
    {
      "midi": 75,
      "hit": false,
      "t": 208215.36599999992,
      "d": 324.32300000000396,
      "v": 95
    },
    {
      "midi": 76,
      "hit": false,
      "t": 208539.68899999993,
      "d": 162.16149999998743,
      "v": 95
    },
    {
      "midi": 75,
      "hit": false,
      "t": 208701.8504999999,
      "d": 162.16149999998743,
      "v": 95
    },
    {
      "midi": 73,
      "hit": false,
      "t": 208864.0119999999,
      "d": 972.9689999999537,
      "v": 95
    }
  ]
}