{
  "jsonPath": "Soundtracks/Video Game Music/Ys Book/ys-book-i-ii-feena.json",
  "path": "Soundtracks\\Video Game Music\\Ys Book\\Ys_Book_I__II_Feena.mid",
  "name": "Ys_Book_I__II_Feena",
  "difficulty": "Advanced",
  "bpm": 65.99999340000066,
  "notes": [
    {
      "midi": 71,
      "hit": false,
      "t": 0,
      "d": 909.091,
      "v": 100
    },
    {
      "midi": 64,
      "hit": false,
      "t": 0,
      "d": 3636.364,
      "v": 100
    },
    {
      "midi": 61,
      "hit": false,
      "t": 0,
      "d": 3636.364,
      "v": 100
    },
    {
      "midi": 69,
      "hit": false,
      "t": 909.091,
      "d": 909.091,
      "v": 100
    },
    {
      "midi": 68,
      "hit": false,
      "t": 1818.182,
      "d": 909.0910000000001,
      "v": 100
    },
    {
      "midi": 66,
      "hit": false,
      "t": 2727.273,
      "d": 909.0909999999999,
      "v": 100
    },
    {
      "midi": 69,
      "hit": false,
      "t": 3636.364,
      "d": 909.0909999999999,
      "v": 100
    },
    {
      "midi": 60,
      "hit": false,
      "t": 3636.364,
      "d": 3636.364000000001,
      "v": 100
    },
    {
      "midi": 68,
      "hit": false,
      "t": 4545.455,
      "d": 909.0910000000003,
      "v": 100
    },
    {
      "midi": 66,
      "hit": false,
      "t": 5454.546,
      "d": 909.0910000000003,
      "v": 100
    },
    {
      "midi": 64,
      "hit": false,
      "t": 6363.637000000001,
      "d": 909.0910000000003,
      "v": 100
    },
    {
      "midi": 71,
      "hit": false,
      "t": 7272.728000000001,
      "d": 909.0910000000003,
      "v": 100
    },
    {
      "midi": 64,
      "hit": false,
      "t": 7272.728000000001,
      "d": 3636.3640000000014,
      "v": 100
    },
    {
      "midi": 61,
      "hit": false,
      "t": 7272.728000000001,
      "d": 3636.3640000000014,
      "v": 100
    },
    {
      "midi": 69,
      "hit": false,
      "t": 8181.819000000001,
      "d": 909.0910000000003,
      "v": 100
    },
    {
      "midi": 68,
      "hit": false,
      "t": 9090.910000000002,
      "d": 909.0910000000003,
      "v": 100
    },
    {
      "midi": 66,
      "hit": false,
      "t": 10000.001000000002,
      "d": 909.0910000000003,
      "v": 100
    },
    {
      "midi": 69,
      "hit": false,
      "t": 10909.092000000002,
      "d": 909.0910000000003,
      "v": 100
    },
    {
      "midi": 60,
      "hit": false,
      "t": 10909.092000000002,
      "d": 3636.3640000000014,
      "v": 100
    },
    {
      "midi": 68,
      "hit": false,
      "t": 11818.183000000003,
      "d": 909.0910000000003,
      "v": 100
    },
    {
      "midi": 66,
      "hit": false,
      "t": 12727.274000000003,
      "d": 909.0910000000003,
      "v": 100
    },
    {
      "midi": 64,
      "hit": false,
      "t": 13636.365000000003,
      "d": 909.0910000000003,
      "v": 100
    },
    {
      "midi": 59,
      "hit": false,
      "t": 14545.456,
      "d": 7272.728000000001,
      "v": 100
    },
    {
      "midi": 66,
      "hit": false,
      "t": 14545.456,
      "d": 7272.728000000001,
      "v": 100
    },
    {
      "midi": 64,
      "hit": false,
      "t": 14545.456000000004,
      "d": 1818.1820000000007,
      "v": 100
    },
    {
      "midi": 63,
      "hit": false,
      "t": 16363.638000000004,
      "d": 1818.1819999999989,
      "v": 100
    },
    {
      "midi": 61,
      "hit": false,
      "t": 18181.820000000003,
      "d": 1818.1820000000007,
      "v": 100
    },
    {
      "midi": 63,
      "hit": false,
      "t": 20000.002000000004,
      "d": 1818.1820000000007,
      "v": 100
    },
    {
      "midi": 66,
      "hit": false,
      "t": 21818.184,
      "d": 7272.727999999999,
      "v": 100
    },
    {
      "midi": 35,
      "hit": false,
      "t": 21818.184,
      "d": 7272.727999999999,
      "v": 100
    },
    {
      "midi": 47,
      "hit": false,
      "t": 21818.184,
      "d": 7272.727999999999,
      "v": 100
    },
    {
      "midi": 59,
      "hit": false,
      "t": 21818.184,
      "d": 7272.727999999999,
      "v": 100
    },
    {
      "midi": 64,
      "hit": false,
      "t": 21818.184000000005,
      "d": 1818.1820000000007,
      "v": 100
    },
    {
      "midi": 63,
      "hit": false,
      "t": 23636.366000000005,
      "d": 1818.1820000000007,
      "v": 100
    },
    {
      "midi": 61,
      "hit": false,
      "t": 25454.548000000006,
      "d": 1818.1820000000007,
      "v": 100
    },
    {
      "midi": 63,
      "hit": false,
      "t": 27272.730000000007,
      "d": 1818.1820000000007,
      "v": 100
    },
    {
      "midi": 40,
      "hit": false,
      "t": 29090.912,
      "d": 3636.3640000000014,
      "v": 100
    },
    {
      "midi": 52,
      "hit": false,
      "t": 29090.912,
      "d": 3636.3640000000014,
      "v": 100
    },
    {
      "midi": 62,
      "hit": false,
      "t": 30000.003,
      "d": 227.2727500000001,
      "v": 100
    },
    {
      "midi": 67,
      "hit": false,
      "t": 30000.003,
      "d": 227.2727500000001,
      "v": 100
    },
    {
      "midi": 62,
      "hit": false,
      "t": 30227.27575,
      "d": 454.5455000000002,
      "v": 100
    },
    {
      "midi": 67,
      "hit": false,
      "t": 30227.27575,
      "d": 454.5455000000002,
      "v": 100
    },
    {
      "midi": 67,
      "hit": false,
      "t": 30681.82125,
      "d": 2045.4547500000008,
      "v": 100
    },
    {
      "midi": 62,
      "hit": false,
      "t": 30681.82125,
      "d": 2045.4547500000008,
      "v": 100
    },
    {
      "midi": 40,
      "hit": false,
      "t": 32727.276,
      "d": 3636.3639999999905,
      "v": 100
    },
    {
      "midi": 52,
      "hit": false,
      "t": 32727.276,
      "d": 3636.3639999999905,
      "v": 100
    },
    {
      "midi": 67,
      "hit": false,
      "t": 33636.367,
      "d": 227.27274999999645,
      "v": 100
    },
    {
      "midi": 62,
      "hit": false,
      "t": 33636.367,
      "d": 227.27274999999645,
      "v": 100
    },
    {
      "midi": 67,
      "hit": false,
      "t": 33863.639749999995,
      "d": 454.5455000000002,
      "v": 100
    },
    {
      "midi": 62,
      "hit": false,
      "t": 33863.639749999995,
      "d": 454.5455000000002,
      "v": 100
    },
    {
      "midi": 67,
      "hit": false,
      "t": 34318.185249999995,
      "d": 2045.4547499999971,
      "v": 100
    },
    {
      "midi": 62,
      "hit": false,
      "t": 34318.185249999995,
      "d": 2045.4547499999971,
      "v": 100
    },
    {
      "midi": 52,
      "hit": false,
      "t": 36363.63999999999,
      "d": 3181.818499999994,
      "v": 100
    },
    {
      "midi": 40,
      "hit": false,
      "t": 36363.63999999999,
      "d": 3181.818499999994,
      "v": 100
    },
    {
      "midi": 78,
      "hit": false,
      "t": 36363.64000000001,
      "d": 227.27274999999645,
      "v": 100
    },
    {
      "midi": 76,
      "hit": false,
      "t": 36590.91275,
      "d": 227.27274999999645,
      "v": 100
    },
    {
      "midi": 78,
      "hit": false,
      "t": 36818.1855,
      "d": 227.27274999999645,
      "v": 100
    },
    {
      "midi": 83,
      "hit": false,
      "t": 37045.458249999996,
      "d": 227.27274999999645,
      "v": 100
    },
    {
      "midi": 78,
      "hit": false,
      "t": 37272.73099999999,
      "d": 1818.1820000000007,
      "v": 100
    },
    {
      "midi": 67,
      "hit": false,
      "t": 37272.73099999999,
      "d": 227.27274999999645,
      "v": 100
    },
    {
      "midi": 62,
      "hit": false,
      "t": 37272.73099999999,
      "d": 227.27274999999645,
      "v": 100
    },
    {
      "midi": 62,
      "hit": false,
      "t": 37500.00374999999,
      "d": 454.5455000000002,
      "v": 100
    },
    {
      "midi": 67,
      "hit": false,
      "t": 37500.00374999999,
      "d": 454.5455000000002,
      "v": 100
    },
    {
      "midi": 62,
      "hit": false,
      "t": 37954.54924999999,
      "d": 2045.4547499999971,
      "v": 100
    },
    {
      "midi": 67,
      "hit": false,
      "t": 37954.54924999999,
      "d": 2045.4547499999971,
      "v": 100
    },
    {
      "midi": 76,
      "hit": false,
      "t": 39090.91299999999,
      "d": 909.0910000000003,
      "v": 100
    },
    {
      "midi": 47,
      "hit": false,
      "t": 39545.458499999986,
      "d": 454.5455000000002,
      "v": 100
    },
    {
      "midi": 52,
      "hit": false,
      "t": 40000.003999999986,
      "d": 3181.818499999994,
      "v": 100
    },
    {
      "midi": 40,
      "hit": false,
      "t": 40000.003999999986,
      "d": 3181.818499999994,
      "v": 100
    },
    {
      "midi": 78,
      "hit": false,
      "t": 40000.00399999999,
      "d": 227.27274999999645,
      "v": 100
    },
    {
      "midi": 76,
      "hit": false,
      "t": 40227.27674999999,
      "d": 227.27274999999645,
      "v": 100
    },
    {
      "midi": 78,
      "hit": false,
      "t": 40454.54949999999,
      "d": 227.27274999999645,
      "v": 100
    },
    {
      "midi": 83,
      "hit": false,
      "t": 40681.82224999998,
      "d": 227.27274999999645,
      "v": 100
    },
    {
      "midi": 78,
      "hit": false,
      "t": 40909.09499999998,
      "d": 1818.1820000000007,
      "v": 100
    },
    {
      "midi": 67,
      "hit": false,
      "t": 40909.09499999999,
      "d": 227.27274999999645,
      "v": 100
    },
    {
      "midi": 62,
      "hit": false,
      "t": 40909.09499999999,
      "d": 227.27274999999645,
      "v": 100
    },
    {
      "midi": 67,
      "hit": false,
      "t": 41136.36774999998,
      "d": 454.5455000000002,
      "v": 100
    },
    {
      "midi": 62,
      "hit": false,
      "t": 41136.36774999998,
      "d": 454.5455000000002,
      "v": 100
    },
    {
      "midi": 67,
      "hit": false,
      "t": 41590.91324999998,
      "d": 2045.4547499999971,
      "v": 100
    },
    {
      "midi": 62,
      "hit": false,
      "t": 41590.91324999998,
      "d": 2045.4547499999971,
      "v": 100
    },
    {
      "midi": 74,
      "hit": false,
      "t": 42727.27699999998,
      "d": 909.0910000000003,
      "v": 100
    },
    {
      "midi": 52,
      "hit": false,
      "t": 43181.82249999998,
      "d": 454.5455000000002,
      "v": 100
    },
    {
      "midi": 40,
      "hit": false,
      "t": 43181.82249999998,
      "d": 454.5455000000002,
      "v": 100
    },
    {
      "midi": 76,
      "hit": false,
      "t": 43636.36799999998,
      "d": 909.0910000000003,
      "v": 100
    },
    {
      "midi": 53,
      "hit": false,
      "t": 43636.36799999998,
      "d": 3181.818499999994,
      "v": 100
    },
    {
      "midi": 41,
      "hit": false,
      "t": 43636.36799999998,
      "d": 3181.818499999994,
      "v": 100
    },
    {
      "midi": 81,
      "hit": false,
      "t": 44545.45899999998,
      "d": 2727.273000000001,
      "v": 100
    },
    {
      "midi": 67,
      "hit": false,
      "t": 44545.45899999998,
      "d": 227.27274999999645,
      "v": 100
    },
    {
      "midi": 60,
      "hit": false,
      "t": 44545.45899999998,
      "d": 227.27274999999645,
      "v": 100
    },
    {
      "midi": 67,
      "hit": false,
      "t": 44772.73174999998,
      "d": 454.5455000000002,
      "v": 100
    },
    {
      "midi": 60,
      "hit": false,
      "t": 44772.73174999998,
      "d": 454.5455000000002,
      "v": 100
    },
    {
      "midi": 67,
      "hit": false,
      "t": 45227.27724999998,
      "d": 2045.4547499999971,
      "v": 100
    },
    {
      "midi": 60,
      "hit": false,
      "t": 45227.27724999998,
      "d": 2045.4547499999971,
      "v": 100
    },
    {
      "midi": 48,
      "hit": false,
      "t": 46818.186499999974,
      "d": 454.5455000000002,
      "v": 100
    },
    {
      "midi": 53,
      "hit": false,
      "t": 47272.731999999975,
      "d": 3181.818499999994,
      "v": 100
    },
    {
      "midi": 41,
      "hit": false,
      "t": 47272.731999999975,
      "d": 3181.818499999994,
      "v": 100
    },
    {
      "midi": 67,
      "hit": false,
      "t": 48181.822999999975,
      "d": 227.27274999999645,
      "v": 100
    },
    {
      "midi": 60,
      "hit": false,
      "t": 48181.822999999975,
      "d": 227.27274999999645,
      "v": 100
    },
    {
      "midi": 67,
      "hit": false,
      "t": 48409.09574999997,
      "d": 454.5455000000002,
      "v": 100
    },
    {
      "midi": 60,
      "hit": false,
      "t": 48409.09574999997,
      "d": 454.5455000000002,
      "v": 100
    },
    {
      "midi": 60,
      "hit": false,
      "t": 48863.64124999997,
      "d": 2045.4547499999971,
      "v": 100
    },
    {
      "midi": 67,
      "hit": false,
      "t": 48863.64124999997,
      "d": 2045.4547499999971,
      "v": 100
    },
    {
      "midi": 53,
      "hit": false,
      "t": 50454.55049999997,
      "d": 454.5455000000002,
      "v": 100
    },
    {
      "midi": 41,
      "hit": false,
      "t": 50454.55049999997,
      "d": 454.5455000000002,
      "v": 100
    },
    {
      "midi": 52,
      "hit": false,
      "t": 50909.09599999997,
      "d": 3181.818499999994,
      "v": 100
    },
    {
      "midi": 40,
      "hit": false,
      "t": 50909.09599999997,
      "d": 3181.818499999994,
      "v": 100
    },
    {
      "midi": 78,
      "hit": false,
      "t": 50909.09599999998,
      "d": 227.27274999999645,
      "v": 100
    },
    {
      "midi": 76,
      "hit": false,
      "t": 51136.36874999998,
      "d": 227.27274999999645,
      "v": 100
    },
    {
      "midi": 78,
      "hit": false,
      "t": 51363.641499999976,
      "d": 227.27274999999645,
      "v": 100
    },
    {
      "midi": 83,
      "hit": false,
      "t": 51590.91424999997,
      "d": 227.27274999999645,
      "v": 100
    },
    {
      "midi": 78,
      "hit": false,
      "t": 51818.18699999997,
      "d": 1818.1820000000007,
      "v": 100
    },
    {
      "midi": 62,
      "hit": false,
      "t": 51818.18699999997,
      "d": 227.27274999999645,
      "v": 100
    },
    {
      "midi": 67,
      "hit": false,
      "t": 51818.18699999997,
      "d": 227.27274999999645,
      "v": 100
    },
    {
      "midi": 67,
      "hit": false,
      "t": 52045.459749999965,
      "d": 454.5455000000002,
      "v": 100
    },
    {
      "midi": 62,
      "hit": false,
      "t": 52045.459749999965,
      "d": 454.5455000000002,
      "v": 100
    },
    {
      "midi": 67,
      "hit": false,
      "t": 52500.005249999966,
      "d": 2045.4547499999971,
      "v": 100
    },
    {
      "midi": 62,
      "hit": false,
      "t": 52500.005249999966,
      "d": 2045.4547499999971,
      "v": 100
    },
    {
      "midi": 76,
      "hit": false,
      "t": 53636.36899999997,
      "d": 909.0910000000003,
      "v": 100
    },
    {
      "midi": 47,
      "hit": false,
      "t": 54090.91449999996,
      "d": 454.5455000000002,
      "v": 100
    },
    {
      "midi": 52,
      "hit": false,
      "t": 54545.45999999996,
      "d": 3181.818499999994,
      "v": 100
    },
    {
      "midi": 40,
      "hit": false,
      "t": 54545.45999999996,
      "d": 3181.818499999994,
      "v": 100
    },
    {
      "midi": 78,
      "hit": false,
      "t": 54545.45999999997,
      "d": 227.27274999999645,
      "v": 100
    },
    {
      "midi": 76,
      "hit": false,
      "t": 54772.73274999997,
      "d": 227.27274999999645,
      "v": 100
    },
    {
      "midi": 78,
      "hit": false,
      "t": 55000.00549999996,
      "d": 227.27274999999645,
      "v": 100
    },
    {
      "midi": 83,
      "hit": false,
      "t": 55227.27824999996,
      "d": 227.27274999999645,
      "v": 100
    },
    {
      "midi": 78,
      "hit": false,
      "t": 55454.550999999956,
      "d": 1818.1820000000007,
      "v": 100
    },
    {
      "midi": 67,
      "hit": false,
      "t": 55454.55099999996,
      "d": 227.27274999999645,
      "v": 100
    },
    {
      "midi": 62,
      "hit": false,
      "t": 55454.55099999996,
      "d": 227.27274999999645,
      "v": 100
    },
    {
      "midi": 67,
      "hit": false,
      "t": 55681.82374999996,
      "d": 454.5455000000002,
      "v": 100
    },
    {
      "midi": 62,
      "hit": false,
      "t": 55681.82374999996,
      "d": 454.5455000000002,
      "v": 100
    },
    {
      "midi": 62,
      "hit": false,
      "t": 56136.36924999996,
      "d": 2045.4547499999971,
      "v": 100
    },
    {
      "midi": 67,
      "hit": false,
      "t": 56136.36924999996,
      "d": 2045.4547499999971,
      "v": 100
    },
    {
      "midi": 74,
      "hit": false,
      "t": 57272.73299999996,
      "d": 909.0910000000003,
      "v": 100
    },
    {
      "midi": 52,
      "hit": false,
      "t": 57727.27849999996,
      "d": 454.5455000000002,
      "v": 100
    },
    {
      "midi": 40,
      "hit": false,
      "t": 57727.27849999996,
      "d": 454.5455000000002,
      "v": 100
    },
    {
      "midi": 76,
      "hit": false,
      "t": 58181.82399999996,
      "d": 909.0910000000003,
      "v": 100
    },
    {
      "midi": 53,
      "hit": false,
      "t": 58181.82399999996,
      "d": 3181.818499999994,
      "v": 100
    },
    {
      "midi": 41,
      "hit": false,
      "t": 58181.82399999996,
      "d": 3181.818499999994,
      "v": 100
    },
    {
      "midi": 69,
      "hit": false,
      "t": 59090.91499999996,
      "d": 1818.1820000000007,
      "v": 100
    },
    {
      "midi": 67,
      "hit": false,
      "t": 59090.91499999996,
      "d": 227.27274999999645,
      "v": 100
    },
    {
      "midi": 60,
      "hit": false,
      "t": 59090.91499999996,
      "d": 227.27274999999645,
      "v": 100
    },
    {
      "midi": 67,
      "hit": false,
      "t": 59318.187749999954,
      "d": 454.5455000000002,
      "v": 100
    },
    {
      "midi": 60,
      "hit": false,
      "t": 59318.187749999954,
      "d": 454.5455000000002,
      "v": 100
    },
    {
      "midi": 67,
      "hit": false,
      "t": 59772.733249999954,
      "d": 2045.4547499999971,
      "v": 100
    },
    {
      "midi": 60,
      "hit": false,
      "t": 59772.733249999954,
      "d": 2045.4547499999971,
      "v": 100
    },
    {
      "midi": 72,
      "hit": false,
      "t": 60909.09699999996,
      "d": 909.0910000000003,
      "v": 100
    },
    {
      "midi": 48,
      "hit": false,
      "t": 61363.64249999995,
      "d": 454.5455000000002,
      "v": 100
    },
    {
      "midi": 53,
      "hit": false,
      "t": 61818.18799999995,
      "d": 3181.818499999994,
      "v": 100
    },
    {
      "midi": 41,
      "hit": false,
      "t": 61818.18799999995,
      "d": 3181.818499999994,
      "v": 100
    },
    {
      "midi": 76,
      "hit": false,
      "t": 61818.18799999996,
      "d": 909.0910000000003,
      "v": 100
    },
    {
      "midi": 67,
      "hit": false,
      "t": 62727.27899999995,
      "d": 227.27274999999645,
      "v": 100
    },
    {
      "midi": 60,
      "hit": false,
      "t": 62727.27899999995,
      "d": 227.27274999999645,
      "v": 100
    },
    {
      "midi": 69,
      "hit": false,
      "t": 62727.27899999996,
      "d": 1818.1820000000007,
      "v": 100
    },
    {
      "midi": 67,
      "hit": false,
      "t": 62954.55174999995,
      "d": 454.5455000000002,
      "v": 100
    },
    {
      "midi": 60,
      "hit": false,
      "t": 62954.55174999995,
      "d": 454.5455000000002,
      "v": 100
    },
    {
      "midi": 67,
      "hit": false,
      "t": 63409.09724999995,
      "d": 2045.4547499999971,
      "v": 100
    },
    {
      "midi": 60,
      "hit": false,
      "t": 63409.09724999995,
      "d": 2045.4547499999971,
      "v": 100
    },
    {
      "midi": 74,
      "hit": false,
      "t": 64545.46099999996,
      "d": 909.0910000000003,
      "v": 100
    },
    {
      "midi": 53,
      "hit": false,
      "t": 65000.006499999945,
      "d": 454.5455000000002,
      "v": 100
    },
    {
      "midi": 41,
      "hit": false,
      "t": 65000.006499999945,
      "d": 454.5455000000002,
      "v": 100
    },
    {
      "midi": 52,
      "hit": false,
      "t": 65454.551999999945,
      "d": 3636.363999999994,
      "v": 100
    },
    {
      "midi": 40,
      "hit": false,
      "t": 65454.551999999945,
      "d": 3636.363999999994,
      "v": 100
    },
    {
      "midi": 71,
      "hit": false,
      "t": 65454.55199999996,
      "d": 3636.363999999994,
      "v": 100
    },
    {
      "midi": 59,
      "hit": false,
      "t": 65454.55199999996,
      "d": 3636.363999999994,
      "v": 100
    },
    {
      "midi": 64,
      "hit": false,
      "t": 65454.55199999996,
      "d": 3636.363999999994,
      "v": 100
    },
    {
      "midi": 66,
      "hit": false,
      "t": 65454.55199999996,
      "d": 3636.363999999994,
      "v": 100
    },
    {
      "midi": 52,
      "hit": false,
      "t": 69090.91599999994,
      "d": 3636.3640000000014,
      "v": 100
    },
    {
      "midi": 40,
      "hit": false,
      "t": 69090.91599999994,
      "d": 3636.3640000000014,
      "v": 100
    },
    {
      "midi": 71,
      "hit": false,
      "t": 69090.91599999995,
      "d": 3636.3640000000014,
      "v": 100
    },
    {
      "midi": 66,
      "hit": false,
      "t": 69090.91599999995,
      "d": 3636.3640000000014,
      "v": 100
    },
    {
      "midi": 67,
      "hit": false,
      "t": 69090.91599999995,
      "d": 3636.3640000000014,
      "v": 100
    },
    {
      "midi": 69,
      "hit": false,
      "t": 69090.91599999995,
      "d": 3636.3640000000014,
      "v": 100
    },
    {
      "midi": 40,
      "hit": false,
      "t": 72727.27999999994,
      "d": 3636.3640000000014,
      "v": 100
    },
    {
      "midi": 52,
      "hit": false,
      "t": 72727.27999999994,
      "d": 3636.3640000000014,
      "v": 100
    },
    {
      "midi": 74,
      "hit": false,
      "t": 72727.27999999996,
      "d": 3636.3640000000014,
      "v": 100
    },
    {
      "midi": 66,
      "hit": false,
      "t": 72727.27999999996,
      "d": 3636.3640000000014,
      "v": 100
    },
    {
      "midi": 69,
      "hit": false,
      "t": 72727.27999999996,
      "d": 3636.3640000000014,
      "v": 100
    },
    {
      "midi": 71,
      "hit": false,
      "t": 72727.27999999996,
      "d": 3636.3640000000014,
      "v": 100
    },
    {
      "midi": 52,
      "hit": false,
      "t": 76363.64399999994,
      "d": 3636.3640000000014,
      "v": 100
    },
    {
      "midi": 40,
      "hit": false,
      "t": 76363.64399999994,
      "d": 3636.3640000000014,
      "v": 100
    },
    {
      "midi": 79,
      "hit": false,
      "t": 76363.64399999996,
      "d": 3636.3640000000014,
      "v": 100
    },
    {
      "midi": 69,
      "hit": false,
      "t": 76363.64399999996,
      "d": 3636.3640000000014,
      "v": 100
    },
    {
      "midi": 71,
      "hit": false,
      "t": 76363.64399999996,
      "d": 3636.3640000000014,
      "v": 100
    },
    {
      "midi": 74,
      "hit": false,
      "t": 76363.64399999996,
      "d": 3636.3640000000014,
      "v": 100
    },
    {
      "midi": 41,
      "hit": false,
      "t": 80000.00799999994,
      "d": 3636.364000000045,
      "v": 100
    },
    {
      "midi": 76,
      "hit": false,
      "t": 80000.00799999996,
      "d": 227.27275000000373,
      "v": 100
    },
    {
      "midi": 74,
      "hit": false,
      "t": 80227.28074999996,
      "d": 227.27275000000373,
      "v": 100
    },
    {
      "midi": 57,
      "hit": false,
      "t": 80454.55349999994,
      "d": 227.27275000000373,
      "v": 100
    },
    {
      "midi": 76,
      "hit": false,
      "t": 80454.55349999997,
      "d": 1363.6364999999932,
      "v": 100
    },
    {
      "midi": 53,
      "hit": false,
      "t": 80681.82624999994,
      "d": 227.27275000000373,
      "v": 100
    },
    {
      "midi": 64,
      "hit": false,
      "t": 80909.09899999994,
      "d": 227.27275000000373,
      "v": 100
    },
    {
      "midi": 60,
      "hit": false,
      "t": 81136.37174999995,
      "d": 227.27275000000373,
      "v": 100
    },
    {
      "midi": 57,
      "hit": false,
      "t": 81363.64449999995,
      "d": 227.27275000000373,
      "v": 100
    },
    {
      "midi": 53,
      "hit": false,
      "t": 81590.91724999995,
      "d": 227.27275000000373,
      "v": 100
    },
    {
      "midi": 69,
      "hit": false,
      "t": 81818.18999999996,
      "d": 454.5454999999929,
      "v": 100
    },
    {
      "midi": 64,
      "hit": false,
      "t": 81818.18999999996,
      "d": 227.27275000000373,
      "v": 100
    },
    {
      "midi": 60,
      "hit": false,
      "t": 82045.46274999996,
      "d": 227.27275000000373,
      "v": 100
    },
    {
      "midi": 71,
      "hit": false,
      "t": 82272.73549999995,
      "d": 454.5454999999929,
      "v": 100
    },
    {
      "midi": 57,
      "hit": false,
      "t": 82272.73549999997,
      "d": 227.27275000000373,
      "v": 100
    },
    {
      "midi": 53,
      "hit": false,
      "t": 82500.00824999997,
      "d": 227.27275000000373,
      "v": 100
    },
    {
      "midi": 72,
      "hit": false,
      "t": 82727.28099999994,
      "d": 454.5454999999929,
      "v": 100
    },
    {
      "midi": 64,
      "hit": false,
      "t": 82727.28099999997,
      "d": 227.27275000000373,
      "v": 100
    },
    {
      "midi": 60,
      "hit": false,
      "t": 82954.55374999998,
      "d": 227.27275000000373,
      "v": 100
    },
    {
      "midi": 74,
      "hit": false,
      "t": 83181.82649999994,
      "d": 454.5454999999929,
      "v": 100
    },
    {
      "midi": 57,
      "hit": false,
      "t": 83181.82649999998,
      "d": 227.27275000000373,
      "v": 100
    },
    {
      "midi": 53,
      "hit": false,
      "t": 83409.09924999998,
      "d": 227.27275000000373,
      "v": 100
    },
    {
      "midi": 76,
      "hit": false,
      "t": 83636.37199999993,
      "d": 227.27275000000373,
      "v": 100
    },
    {
      "midi": 41,
      "hit": false,
      "t": 83636.37199999999,
      "d": 3636.364000000045,
      "v": 100
    },
    {
      "midi": 74,
      "hit": false,
      "t": 83863.64474999993,
      "d": 227.27275000000373,
      "v": 100
    },
    {
      "midi": 76,
      "hit": false,
      "t": 84090.91749999994,
      "d": 1363.6364999999932,
      "v": 100
    },
    {
      "midi": 57,
      "hit": false,
      "t": 84090.91749999998,
      "d": 227.27275000000373,
      "v": 100
    },
    {
      "midi": 53,
      "hit": false,
      "t": 84318.19024999999,
      "d": 227.27275000000373,
      "v": 100
    },
    {
      "midi": 64,
      "hit": false,
      "t": 84545.46299999999,
      "d": 227.27275000000373,
      "v": 100
    },
    {
      "midi": 60,
      "hit": false,
      "t": 84772.73574999999,
      "d": 227.27275000000373,
      "v": 100
    },
    {
      "midi": 57,
      "hit": false,
      "t": 85000.0085,
      "d": 227.27275000000373,
      "v": 100
    },
    {
      "midi": 53,
      "hit": false,
      "t": 85227.28125,
      "d": 227.27275000000373,
      "v": 100
    },
    {
      "midi": 69,
      "hit": false,
      "t": 85454.55399999993,
      "d": 454.5454999999929,
      "v": 100
    },
    {
      "midi": 64,
      "hit": false,
      "t": 85454.554,
      "d": 227.27275000000373,
      "v": 100
    },
    {
      "midi": 60,
      "hit": false,
      "t": 85681.82675000001,
      "d": 227.27275000000373,
      "v": 100
    },
    {
      "midi": 71,
      "hit": false,
      "t": 85909.09949999992,
      "d": 454.5454999999929,
      "v": 100
    },
    {
      "midi": 57,
      "hit": false,
      "t": 85909.09950000001,
      "d": 227.27275000000373,
      "v": 100
    },
    {
      "midi": 53,
      "hit": false,
      "t": 86136.37225000001,
      "d": 227.27275000000373,
      "v": 100
    },
    {
      "midi": 72,
      "hit": false,
      "t": 86363.64499999992,
      "d": 454.5454999999929,
      "v": 100
    },
    {
      "midi": 64,
      "hit": false,
      "t": 86363.64500000002,
      "d": 227.27275000000373,
      "v": 100
    },
    {
      "midi": 60,
      "hit": false,
      "t": 86590.91775000002,
      "d": 227.27275000000373,
      "v": 100
    },
    {
      "midi": 76,
      "hit": false,
      "t": 86818.19049999991,
      "d": 454.5454999999929,
      "v": 100
    },
    {
      "midi": 57,
      "hit": false,
      "t": 86818.19050000003,
      "d": 227.27275000000373,
      "v": 100
    },
    {
      "midi": 53,
      "hit": false,
      "t": 87045.46325000003,
      "d": 227.27275000000373,
      "v": 100
    },
    {
      "midi": 74,
      "hit": false,
      "t": 87272.7359999999,
      "d": 227.27275000000373,
      "v": 100
    },
    {
      "midi": 40,
      "hit": false,
      "t": 87272.73600000003,
      "d": 3636.364000000045,
      "v": 100
    },
    {
      "midi": 72,
      "hit": false,
      "t": 87500.0087499999,
      "d": 227.27275000000373,
      "v": 100
    },
    {
      "midi": 74,
      "hit": false,
      "t": 87727.28149999991,
      "d": 1363.6364999999932,
      "v": 100
    },
    {
      "midi": 55,
      "hit": false,
      "t": 87727.28150000003,
      "d": 227.27275000000373,
      "v": 100
    },
    {
      "midi": 52,
      "hit": false,
      "t": 87954.55425000003,
      "d": 227.27275000000373,
      "v": 100
    },
    {
      "midi": 62,
      "hit": false,
      "t": 88181.82700000003,
      "d": 227.27275000000373,
      "v": 100
    },
    {
      "midi": 59,
      "hit": false,
      "t": 88409.09975000004,
      "d": 227.27275000000373,
      "v": 100
    },
    {
      "midi": 55,
      "hit": false,
      "t": 88636.37250000004,
      "d": 227.27275000000373,
      "v": 100
    },
    {
      "midi": 52,
      "hit": false,
      "t": 88863.64525000005,
      "d": 227.27275000000373,
      "v": 100
    },
    {
      "midi": 67,
      "hit": false,
      "t": 89090.9179999999,
      "d": 454.5454999999929,
      "v": 100
    },
    {
      "midi": 62,
      "hit": false,
      "t": 89090.91800000005,
      "d": 227.27275000000373,
      "v": 100
    },
    {
      "midi": 59,
      "hit": false,
      "t": 89318.19075000005,
      "d": 227.27275000000373,
      "v": 100
    },
    {
      "midi": 69,
      "hit": false,
      "t": 89545.4634999999,
      "d": 454.5454999999929,
      "v": 100
    },
    {
      "midi": 55,
      "hit": false,
      "t": 89545.46350000006,
      "d": 227.27275000000373,
      "v": 100
    },
    {
      "midi": 52,
      "hit": false,
      "t": 89772.73625000006,
      "d": 227.27275000000373,
      "v": 100
    },
    {
      "midi": 71,
      "hit": false,
      "t": 90000.00899999989,
      "d": 454.5454999999929,
      "v": 100
    },
    {
      "midi": 62,
      "hit": false,
      "t": 90000.00900000006,
      "d": 227.27275000000373,
      "v": 100
    },
    {
      "midi": 59,
      "hit": false,
      "t": 90227.28175000007,
      "d": 227.27275000000373,
      "v": 100
    },
    {
      "midi": 72,
      "hit": false,
      "t": 90454.55449999988,
      "d": 454.5454999999929,
      "v": 100
    },
    {
      "midi": 55,
      "hit": false,
      "t": 90454.55450000007,
      "d": 227.27275000000373,
      "v": 100
    },
    {
      "midi": 52,
      "hit": false,
      "t": 90681.82725000007,
      "d": 227.27275000000373,
      "v": 100
    },
    {
      "midi": 74,
      "hit": false,
      "t": 90909.09999999987,
      "d": 227.27275000000373,
      "v": 100
    },
    {
      "midi": 40,
      "hit": false,
      "t": 90909.10000000008,
      "d": 3636.364000000045,
      "v": 100
    },
    {
      "midi": 72,
      "hit": false,
      "t": 91136.37274999988,
      "d": 227.27275000000373,
      "v": 100
    },
    {
      "midi": 74,
      "hit": false,
      "t": 91363.64549999988,
      "d": 1363.6364999999932,
      "v": 100
    },
    {
      "midi": 55,
      "hit": false,
      "t": 91363.64550000007,
      "d": 227.27275000000373,
      "v": 100
    },
    {
      "midi": 52,
      "hit": false,
      "t": 91590.91825000008,
      "d": 227.27275000000373,
      "v": 100
    },
    {
      "midi": 62,
      "hit": false,
      "t": 91818.19100000008,
      "d": 227.27275000000373,
      "v": 100
    },
    {
      "midi": 59,
      "hit": false,
      "t": 92045.46375000008,
      "d": 227.27275000000373,
      "v": 100
    },
    {
      "midi": 55,
      "hit": false,
      "t": 92272.73650000009,
      "d": 227.27275000000373,
      "v": 100
    },
    {
      "midi": 52,
      "hit": false,
      "t": 92500.00925000009,
      "d": 227.27275000000373,
      "v": 100
    },
    {
      "midi": 67,
      "hit": false,
      "t": 92727.28199999988,
      "d": 454.5454999999929,
      "v": 100
    },
    {
      "midi": 62,
      "hit": false,
      "t": 92727.2820000001,
      "d": 227.27275000000373,
      "v": 100
    },
    {
      "midi": 59,
      "hit": false,
      "t": 92954.5547500001,
      "d": 227.27275000000373,
      "v": 100
    },
    {
      "midi": 69,
      "hit": false,
      "t": 93181.82749999987,
      "d": 454.5454999999929,
      "v": 100
    },
    {
      "midi": 55,
      "hit": false,
      "t": 93181.8275000001,
      "d": 227.27275000000373,
      "v": 100
    },
    {
      "midi": 52,
      "hit": false,
      "t": 93409.1002500001,
      "d": 227.27275000000373,
      "v": 100
    },
    {
      "midi": 71,
      "hit": false,
      "t": 93636.37299999986,
      "d": 454.5454999999929,
      "v": 100
    },
    {
      "midi": 62,
      "hit": false,
      "t": 93636.37300000011,
      "d": 227.27275000000373,
      "v": 100
    },
    {
      "midi": 59,
      "hit": false,
      "t": 93863.64575000011,
      "d": 227.27275000000373,
      "v": 100
    },
    {
      "midi": 74,
      "hit": false,
      "t": 94090.91849999985,
      "d": 454.5454999999929,
      "v": 100
    },
    {
      "midi": 55,
      "hit": false,
      "t": 94090.91850000012,
      "d": 227.27275000000373,
      "v": 100
    },
    {
      "midi": 52,
      "hit": false,
      "t": 94318.19125000012,
      "d": 227.27275000000373,
      "v": 100
    },
    {
      "midi": 76,
      "hit": false,
      "t": 94545.46399999985,
      "d": 227.27275000000373,
      "v": 100
    },
    {
      "midi": 41,
      "hit": false,
      "t": 94545.46400000012,
      "d": 3636.364000000045,
      "v": 100
    },
    {
      "midi": 74,
      "hit": false,
      "t": 94772.73674999985,
      "d": 227.27275000000373,
      "v": 100
    },
    {
      "midi": 76,
      "hit": false,
      "t": 95000.00949999985,
      "d": 1363.6364999999932,
      "v": 100
    },
    {
      "midi": 57,
      "hit": false,
      "t": 95000.00950000012,
      "d": 227.27275000000373,
      "v": 100
    },
    {
      "midi": 53,
      "hit": false,
      "t": 95227.28225000012,
      "d": 227.27275000000373,
      "v": 100
    },
    {
      "midi": 64,
      "hit": false,
      "t": 95454.55500000012,
      "d": 227.27275000000373,
      "v": 100
    },
    {
      "midi": 60,
      "hit": false,
      "t": 95681.82775000013,
      "d": 227.27275000000373,
      "v": 100
    },
    {
      "midi": 57,
      "hit": false,
      "t": 95909.10050000013,
      "d": 227.27275000000373,
      "v": 100
    },
    {
      "midi": 53,
      "hit": false,
      "t": 96136.37325000014,
      "d": 227.27275000000373,
      "v": 100
    },
    {
      "midi": 69,
      "hit": false,
      "t": 96363.64599999985,
      "d": 454.5454999999929,
      "v": 100
    },
    {
      "midi": 64,
      "hit": false,
      "t": 96363.64600000014,
      "d": 227.27275000000373,
      "v": 100
    },
    {
      "midi": 60,
      "hit": false,
      "t": 96590.91875000014,
      "d": 227.27275000000373,
      "v": 100
    },
    {
      "midi": 71,
      "hit": false,
      "t": 96818.19149999984,
      "d": 454.5454999999929,
      "v": 100
    },
    {
      "midi": 57,
      "hit": false,
      "t": 96818.19150000015,
      "d": 227.27275000000373,
      "v": 100
    },
    {
      "midi": 53,
      "hit": false,
      "t": 97045.46425000015,
      "d": 227.27275000000373,
      "v": 100
    },
    {
      "midi": 72,
      "hit": false,
      "t": 97272.73699999983,
      "d": 454.5454999999929,
      "v": 100
    },
    {
      "midi": 64,
      "hit": false,
      "t": 97272.73700000015,
      "d": 227.27275000000373,
      "v": 100
    },
    {
      "midi": 60,
      "hit": false,
      "t": 97500.00975000016,
      "d": 227.27275000000373,
      "v": 100
    },
    {
      "midi": 74,
      "hit": false,
      "t": 97727.28249999983,
      "d": 454.5454999999929,
      "v": 100
    },
    {
      "midi": 57,
      "hit": false,
      "t": 97727.28250000016,
      "d": 227.27275000000373,
      "v": 100
    },
    {
      "midi": 53,
      "hit": false,
      "t": 97954.55525000016,
      "d": 227.27275000000373,
      "v": 100
    },
    {
      "midi": 76,
      "hit": false,
      "t": 98181.82799999982,
      "d": 227.27275000000373,
      "v": 100
    },
    {
      "midi": 41,
      "hit": false,
      "t": 98181.82800000017,
      "d": 3636.364000000045,
      "v": 100
    },
    {
      "midi": 74,
      "hit": false,
      "t": 98409.10074999982,
      "d": 227.27275000000373,
      "v": 100
    },
    {
      "midi": 76,
      "hit": false,
      "t": 98636.37349999983,
      "d": 1363.6364999999932,
      "v": 100
    },
    {
      "midi": 57,
      "hit": false,
      "t": 98636.37350000016,
      "d": 227.27275000000373,
      "v": 100
    },
    {
      "midi": 53,
      "hit": false,
      "t": 98863.64625000017,
      "d": 227.27275000000373,
      "v": 100
    },
    {
      "midi": 64,
      "hit": false,
      "t": 99090.91900000017,
      "d": 227.27275000000373,
      "v": 100
    },
    {
      "midi": 60,
      "hit": false,
      "t": 99318.19175000017,
      "d": 227.27275000000373,
      "v": 100
    },
    {
      "midi": 57,
      "hit": false,
      "t": 99545.46450000018,
      "d": 227.27275000000373,
      "v": 100
    },
    {
      "midi": 53,
      "hit": false,
      "t": 99772.73725000018,
      "d": 227.27275000000373,
      "v": 100
    },
    {
      "midi": 69,
      "hit": false,
      "t": 100000.00999999982,
      "d": 454.5454999999929,
      "v": 100
    },
    {
      "midi": 64,
      "hit": false,
      "t": 100000.01000000018,
      "d": 227.27275000000373,
      "v": 100
    },
    {
      "midi": 60,
      "hit": false,
      "t": 100227.28275000019,
      "d": 227.27275000000373,
      "v": 100
    },
    {
      "midi": 71,
      "hit": false,
      "t": 100454.55549999981,
      "d": 454.5454999999929,
      "v": 100
    },
    {
      "midi": 57,
      "hit": false,
      "t": 100454.55550000019,
      "d": 227.27275000000373,
      "v": 100
    },
    {
      "midi": 53,
      "hit": false,
      "t": 100681.8282500002,
      "d": 227.27275000000373,
      "v": 100
    },
    {
      "midi": 72,
      "hit": false,
      "t": 100909.1009999998,
      "d": 454.5454999999929,
      "v": 100
    },
    {
      "midi": 64,
      "hit": false,
      "t": 100909.1010000002,
      "d": 227.27275000000373,
      "v": 100
    },
    {
      "midi": 60,
      "hit": false,
      "t": 101136.3737500002,
      "d": 227.27275000000373,
      "v": 100
    },
    {
      "midi": 76,
      "hit": false,
      "t": 101363.6464999998,
      "d": 454.5454999999929,
      "v": 100
    },
    {
      "midi": 57,
      "hit": false,
      "t": 101363.6465000002,
      "d": 227.27275000000373,
      "v": 100
    },
    {
      "midi": 53,
      "hit": false,
      "t": 101590.91925000021,
      "d": 227.27275000000373,
      "v": 100
    },
    {
      "midi": 74,
      "hit": false,
      "t": 101818.19199999979,
      "d": 227.27275000000373,
      "v": 100
    },
    {
      "midi": 40,
      "hit": false,
      "t": 101818.19200000021,
      "d": 3636.364000000045,
      "v": 100
    },
    {
      "midi": 72,
      "hit": false,
      "t": 102045.4647499998,
      "d": 227.27275000000373,
      "v": 100
    },
    {
      "midi": 74,
      "hit": false,
      "t": 102272.7374999998,
      "d": 1363.6364999999932,
      "v": 100
    },
    {
      "midi": 55,
      "hit": false,
      "t": 102272.7375000002,
      "d": 227.27275000000373,
      "v": 100
    },
    {
      "midi": 52,
      "hit": false,
      "t": 102500.01025000021,
      "d": 227.27275000000373,
      "v": 100
    },
    {
      "midi": 62,
      "hit": false,
      "t": 102727.28300000021,
      "d": 227.27275000000373,
      "v": 100
    },
    {
      "midi": 59,
      "hit": false,
      "t": 102954.55575000022,
      "d": 227.27275000000373,
      "v": 100
    },
    {
      "midi": 55,
      "hit": false,
      "t": 103181.82850000022,
      "d": 227.27275000000373,
      "v": 100
    },
    {
      "midi": 52,
      "hit": false,
      "t": 103409.10125000023,
      "d": 227.27275000000373,
      "v": 100
    },
    {
      "midi": 79,
      "hit": false,
      "t": 103636.37399999979,
      "d": 454.5454999999929,
      "v": 100
    },
    {
      "midi": 62,
      "hit": false,
      "t": 103636.37400000023,
      "d": 227.27275000000373,
      "v": 100
    },
    {
      "midi": 59,
      "hit": false,
      "t": 103863.64675000023,
      "d": 227.27275000000373,
      "v": 100
    },
    {
      "midi": 81,
      "hit": false,
      "t": 104090.91949999979,
      "d": 454.5454999999929,
      "v": 100
    },
    {
      "midi": 55,
      "hit": false,
      "t": 104090.91950000024,
      "d": 227.27275000000373,
      "v": 100
    },
    {
      "midi": 52,
      "hit": false,
      "t": 104318.19225000024,
      "d": 227.27275000000373,
      "v": 100
    },
    {
      "midi": 83,
      "hit": false,
      "t": 104545.46499999978,
      "d": 454.5454999999929,
      "v": 100
    },
    {
      "midi": 62,
      "hit": false,
      "t": 104545.46500000024,
      "d": 227.27275000000373,
      "v": 100
    },
    {
      "midi": 59,
      "hit": false,
      "t": 104772.73775000025,
      "d": 227.27275000000373,
      "v": 100
    },
    {
      "midi": 84,
      "hit": false,
      "t": 105000.01049999977,
      "d": 454.5454999999929,
      "v": 100
    },
    {
      "midi": 55,
      "hit": false,
      "t": 105000.01050000025,
      "d": 227.27275000000373,
      "v": 100
    },
    {
      "midi": 52,
      "hit": false,
      "t": 105227.28325000026,
      "d": 227.27275000000373,
      "v": 100
    },
    {
      "midi": 81,
      "hit": false,
      "t": 105454.55599999976,
      "d": 227.27275000000373,
      "v": 100
    },
    {
      "midi": 83,
      "hit": false,
      "t": 105454.55599999976,
      "d": 909.0910000000149,
      "v": 100
    },
    {
      "midi": 86,
      "hit": false,
      "t": 105454.55599999976,
      "d": 909.0910000000149,
      "v": 100
    },
    {
      "midi": 52,
      "hit": false,
      "t": 105454.55600000026,
      "d": 7272.728000000003,
      "v": 100
    },
    {
      "midi": 40,
      "hit": false,
      "t": 105454.55600000026,
      "d": 7272.728000000003,
      "v": 100
    },
    {
      "midi": 79,
      "hit": false,
      "t": 105681.82874999977,
      "d": 227.27275000000373,
      "v": 100
    },
    {
      "midi": 76,
      "hit": false,
      "t": 105909.10149999977,
      "d": 227.27275000000373,
      "v": 100
    },
    {
      "midi": 74,
      "hit": false,
      "t": 106136.37424999978,
      "d": 227.27275000000373,
      "v": 100
    },
    {
      "midi": 79,
      "hit": false,
      "t": 106363.64699999978,
      "d": 227.27275000000373,
      "v": 100
    },
    {
      "midi": 83,
      "hit": false,
      "t": 106363.64699999978,
      "d": 909.0910000000149,
      "v": 100
    },
    {
      "midi": 76,
      "hit": false,
      "t": 106590.91974999978,
      "d": 227.27275000000373,
      "v": 100
    },
    {
      "midi": 74,
      "hit": false,
      "t": 106818.19249999979,
      "d": 227.27275000000373,
      "v": 100
    },
    {
      "midi": 71,
      "hit": false,
      "t": 107045.46524999979,
      "d": 227.27275000000373,
      "v": 100
    },
    {
      "midi": 74,
      "hit": false,
      "t": 107272.7379999998,
      "d": 227.27275000000373,
      "v": 100
    },
    {
      "midi": 79,
      "hit": false,
      "t": 107272.7379999998,
      "d": 909.0910000000149,
      "v": 100
    },
    {
      "midi": 71,
      "hit": false,
      "t": 107500.0107499998,
      "d": 227.27275000000373,
      "v": 100
    },
    {
      "midi": 67,
      "hit": false,
      "t": 107727.2834999998,
      "d": 227.27275000000373,
      "v": 100
    },
    {
      "midi": 64,
      "hit": false,
      "t": 107954.5562499998,
      "d": 227.27275000000373,
      "v": 100
    },
    {
      "midi": 71,
      "hit": false,
      "t": 108181.82899999981,
      "d": 2727.273000000001,
      "v": 100
    },
    {
      "midi": 74,
      "hit": false,
      "t": 108181.82899999981,
      "d": 2727.273000000001,
      "v": 100
    },
    {
      "midi": 40,
      "hit": false,
      "t": 112727.28400000026,
      "d": 3636.363999999987,
      "v": 100
    },
    {
      "midi": 52,
      "hit": false,
      "t": 112727.28400000026,
      "d": 3636.363999999987,
      "v": 100
    },
    {
      "midi": 62,
      "hit": false,
      "t": 113636.37500000026,
      "d": 227.27275000000373,
      "v": 100
    },
    {
      "midi": 67,
      "hit": false,
      "t": 113636.37500000026,
      "d": 227.27275000000373,
      "v": 100
    },
    {
      "midi": 62,
      "hit": false,
      "t": 113863.64775000027,
      "d": 454.5454999999929,
      "v": 100
    },
    {
      "midi": 67,
      "hit": false,
      "t": 113863.64775000027,
      "d": 454.5454999999929,
      "v": 100
    },
    {
      "midi": 67,
      "hit": false,
      "t": 114318.19325000026,
      "d": 2045.4547499999899,
      "v": 100
    },
    {
      "midi": 62,
      "hit": false,
      "t": 114318.19325000026,
      "d": 2045.4547499999899,
      "v": 100
    },
    {
      "midi": 40,
      "hit": false,
      "t": 116363.64800000025,
      "d": 3636.363999999987,
      "v": 100
    },
    {
      "midi": 52,
      "hit": false,
      "t": 116363.64800000025,
      "d": 3636.363999999987,
      "v": 100
    },
    {
      "midi": 67,
      "hit": false,
      "t": 117272.73900000025,
      "d": 227.27275000000373,
      "v": 100
    },
    {
      "midi": 62,
      "hit": false,
      "t": 117272.73900000025,
      "d": 227.27275000000373,
      "v": 100
    },
    {
      "midi": 67,
      "hit": false,
      "t": 117500.01175000025,
      "d": 454.5454999999929,
      "v": 100
    },
    {
      "midi": 62,
      "hit": false,
      "t": 117500.01175000025,
      "d": 454.5454999999929,
      "v": 100
    },
    {
      "midi": 67,
      "hit": false,
      "t": 117954.55725000025,
      "d": 2045.4547499999899,
      "v": 100
    },
    {
      "midi": 62,
      "hit": false,
      "t": 117954.55725000025,
      "d": 2045.4547499999899,
      "v": 100
    },
    {
      "midi": 78,
      "hit": false,
      "t": 120000.01199999981,
      "d": 227.27275000000373,
      "v": 100
    },
    {
      "midi": 52,
      "hit": false,
      "t": 120000.01200000024,
      "d": 3181.818499999994,
      "v": 100
    },
    {
      "midi": 40,
      "hit": false,
      "t": 120000.01200000024,
      "d": 3181.818499999994,
      "v": 100
    },
    {
      "midi": 76,
      "hit": false,
      "t": 120227.28474999982,
      "d": 227.27275000000373,
      "v": 100
    },
    {
      "midi": 78,
      "hit": false,
      "t": 120454.55749999982,
      "d": 227.27275000000373,
      "v": 100
    },
    {
      "midi": 83,
      "hit": false,
      "t": 120681.83024999982,
      "d": 227.27275000000373,
      "v": 100
    },
    {
      "midi": 78,
      "hit": false,
      "t": 120909.10299999983,
      "d": 1818.1820000000007,
      "v": 100
    },
    {
      "midi": 67,
      "hit": false,
      "t": 120909.10300000024,
      "d": 227.27275000000373,
      "v": 100
    },
    {
      "midi": 62,
      "hit": false,
      "t": 120909.10300000024,
      "d": 227.27275000000373,
      "v": 100
    },
    {
      "midi": 62,
      "hit": false,
      "t": 121136.37575000024,
      "d": 454.5454999999929,
      "v": 100
    },
    {
      "midi": 67,
      "hit": false,
      "t": 121136.37575000024,
      "d": 454.5454999999929,
      "v": 100
    },
    {
      "midi": 62,
      "hit": false,
      "t": 121590.92125000023,
      "d": 2045.4547499999899,
      "v": 100
    },
    {
      "midi": 67,
      "hit": false,
      "t": 121590.92125000023,
      "d": 2045.4547499999899,
      "v": 100
    },
    {
      "midi": 76,
      "hit": false,
      "t": 122727.28499999983,
      "d": 909.0910000000003,
      "v": 100
    },
    {
      "midi": 47,
      "hit": false,
      "t": 123181.83050000023,
      "d": 454.5454999999929,
      "v": 100
    },
    {
      "midi": 78,
      "hit": false,
      "t": 123636.37599999983,
      "d": 227.27275000000373,
      "v": 100
    },
    {
      "midi": 52,
      "hit": false,
      "t": 123636.37600000022,
      "d": 3181.818499999994,
      "v": 100
    },
    {
      "midi": 40,
      "hit": false,
      "t": 123636.37600000022,
      "d": 3181.818499999994,
      "v": 100
    },
    {
      "midi": 76,
      "hit": false,
      "t": 123863.64874999983,
      "d": 227.27275000000373,
      "v": 100
    },
    {
      "midi": 78,
      "hit": false,
      "t": 124090.92149999984,
      "d": 227.27275000000373,
      "v": 100
    },
    {
      "midi": 83,
      "hit": false,
      "t": 124318.19424999984,
      "d": 227.27275000000373,
      "v": 100
    },
    {
      "midi": 78,
      "hit": false,
      "t": 124545.46699999984,
      "d": 1818.1820000000007,
      "v": 100
    },
    {
      "midi": 67,
      "hit": false,
      "t": 124545.46700000022,
      "d": 227.27275000000373,
      "v": 100
    },
    {
      "midi": 62,
      "hit": false,
      "t": 124545.46700000022,
      "d": 227.27275000000373,
      "v": 100
    },
    {
      "midi": 67,
      "hit": false,
      "t": 124772.73975000023,
      "d": 454.5454999999929,
      "v": 100
    },
    {
      "midi": 62,
      "hit": false,
      "t": 124772.73975000023,
      "d": 454.5454999999929,
      "v": 100
    },
    {
      "midi": 67,
      "hit": false,
      "t": 125227.28525000022,
      "d": 2045.4547499999899,
      "v": 100
    },
    {
      "midi": 62,
      "hit": false,
      "t": 125227.28525000022,
      "d": 2045.4547499999899,
      "v": 100
    },
    {
      "midi": 74,
      "hit": false,
      "t": 126363.64899999984,
      "d": 909.0910000000003,
      "v": 100
    },
    {
      "midi": 52,
      "hit": false,
      "t": 126818.19450000022,
      "d": 454.5454999999929,
      "v": 100
    },
    {
      "midi": 40,
      "hit": false,
      "t": 126818.19450000022,
      "d": 454.5454999999929,
      "v": 100
    },
    {
      "midi": 76,
      "hit": false,
      "t": 127272.73999999985,
      "d": 909.0910000000003,
      "v": 100
    },
    {
      "midi": 53,
      "hit": false,
      "t": 127272.74000000021,
      "d": 3181.818499999994,
      "v": 100
    },
    {
      "midi": 41,
      "hit": false,
      "t": 127272.74000000021,
      "d": 3181.818499999994,
      "v": 100
    },
    {
      "midi": 81,
      "hit": false,
      "t": 128181.83099999985,
      "d": 2727.273000000001,
      "v": 100
    },
    {
      "midi": 67,
      "hit": false,
      "t": 128181.83100000021,
      "d": 227.27275000000373,
      "v": 100
    },
    {
      "midi": 60,
      "hit": false,
      "t": 128181.83100000021,
      "d": 227.27275000000373,
      "v": 100
    },
    {
      "midi": 67,
      "hit": false,
      "t": 128409.10375000021,
      "d": 454.5454999999929,
      "v": 100
    },
    {
      "midi": 60,
      "hit": false,
      "t": 128409.10375000021,
      "d": 454.5454999999929,
      "v": 100
    },
    {
      "midi": 67,
      "hit": false,
      "t": 128863.6492500002,
      "d": 2045.4547499999899,
      "v": 100
    },
    {
      "midi": 60,
      "hit": false,
      "t": 128863.6492500002,
      "d": 2045.4547499999899,
      "v": 100
    },
    {
      "midi": 48,
      "hit": false,
      "t": 130454.5585000002,
      "d": 454.5454999999929,
      "v": 100
    },
    {
      "midi": 53,
      "hit": false,
      "t": 130909.1040000002,
      "d": 3181.818499999994,
      "v": 100
    },
    {
      "midi": 41,
      "hit": false,
      "t": 130909.1040000002,
      "d": 3181.818499999994,
      "v": 100
    },
    {
      "midi": 67,
      "hit": false,
      "t": 131818.19500000018,
      "d": 227.27275000000373,
      "v": 100
    },
    {
      "midi": 60,
      "hit": false,
      "t": 131818.19500000018,
      "d": 227.27275000000373,
      "v": 100
    },
    {
      "midi": 67,
      "hit": false,
      "t": 132045.46775000019,
      "d": 454.54550000000745,
      "v": 100
    },
    {
      "midi": 60,
      "hit": false,
      "t": 132045.46775000019,
      "d": 454.54550000000745,
      "v": 100
    },
    {
      "midi": 60,
      "hit": false,
      "t": 132500.0132500002,
      "d": 2045.4547500000044,
      "v": 100
    },
    {
      "midi": 67,
      "hit": false,
      "t": 132500.0132500002,
      "d": 2045.4547500000044,
      "v": 100
    },
    {
      "midi": 53,
      "hit": false,
      "t": 134090.9225000002,
      "d": 454.54550000000745,
      "v": 100
    },
    {
      "midi": 41,
      "hit": false,
      "t": 134090.9225000002,
      "d": 454.54550000000745,
      "v": 100
    },
    {
      "midi": 78,
      "hit": false,
      "t": 134545.46799999985,
      "d": 227.27275000000373,
      "v": 100
    },
    {
      "midi": 52,
      "hit": false,
      "t": 134545.4680000002,
      "d": 3181.818499999994,
      "v": 100
    },
    {
      "midi": 40,
      "hit": false,
      "t": 134545.4680000002,
      "d": 3181.818499999994,
      "v": 100
    },
    {
      "midi": 76,
      "hit": false,
      "t": 134772.74074999985,
      "d": 227.27275000000373,
      "v": 100
    },
    {
      "midi": 78,
      "hit": false,
      "t": 135000.01349999986,
      "d": 227.27275000000373,
      "v": 100
    },
    {
      "midi": 83,
      "hit": false,
      "t": 135227.28624999986,
      "d": 227.27275000000373,
      "v": 100
    },
    {
      "midi": 78,
      "hit": false,
      "t": 135454.55899999986,
      "d": 1818.1820000000007,
      "v": 100
    },
    {
      "midi": 62,
      "hit": false,
      "t": 135454.55900000018,
      "d": 227.27275000000373,
      "v": 100
    },
    {
      "midi": 67,
      "hit": false,
      "t": 135454.55900000018,
      "d": 227.27275000000373,
      "v": 100
    },
    {
      "midi": 67,
      "hit": false,
      "t": 135681.8317500002,
      "d": 454.54550000000745,
      "v": 100
    },
    {
      "midi": 62,
      "hit": false,
      "t": 135681.8317500002,
      "d": 454.54550000000745,
      "v": 100
    },
    {
      "midi": 67,
      "hit": false,
      "t": 136136.3772500002,
      "d": 2045.4547500000044,
      "v": 100
    },
    {
      "midi": 62,
      "hit": false,
      "t": 136136.3772500002,
      "d": 2045.4547500000044,
      "v": 100
    },
    {
      "midi": 76,
      "hit": false,
      "t": 137272.74099999986,
      "d": 909.0909999999858,
      "v": 100
    },
    {
      "midi": 47,
      "hit": false,
      "t": 137727.2865000002,
      "d": 454.54550000000745,
      "v": 100
    },
    {
      "midi": 78,
      "hit": false,
      "t": 138181.83199999985,
      "d": 227.27275000000373,
      "v": 100
    },
    {
      "midi": 52,
      "hit": false,
      "t": 138181.8320000002,
      "d": 3181.818499999994,
      "v": 100
    },
    {
      "midi": 40,
      "hit": false,
      "t": 138181.8320000002,
      "d": 3181.818499999994,
      "v": 100
    },
    {
      "midi": 76,
      "hit": false,
      "t": 138409.10474999985,
      "d": 227.27275000000373,
      "v": 100
    },
    {
      "midi": 78,
      "hit": false,
      "t": 138636.37749999986,
      "d": 227.27275000000373,
      "v": 100
    },
    {
      "midi": 83,
      "hit": false,
      "t": 138863.65024999986,
      "d": 227.27275000000373,
      "v": 100
    },
    {
      "midi": 78,
      "hit": false,
      "t": 139090.92299999986,
      "d": 1818.1820000000007,
      "v": 100
    },
    {
      "midi": 67,
      "hit": false,
      "t": 139090.92300000018,
      "d": 227.27275000000373,
      "v": 100
    },
    {
      "midi": 62,
      "hit": false,
      "t": 139090.92300000018,
      "d": 227.27275000000373,
      "v": 100
    },
    {
      "midi": 67,
      "hit": false,
      "t": 139318.1957500002,
      "d": 454.54550000000745,
      "v": 100
    },
    {
      "midi": 62,
      "hit": false,
      "t": 139318.1957500002,
      "d": 454.54550000000745,
      "v": 100
    },
    {
      "midi": 62,
      "hit": false,
      "t": 139772.7412500002,
      "d": 2045.4547500000044,
      "v": 100
    },
    {
      "midi": 67,
      "hit": false,
      "t": 139772.7412500002,
      "d": 2045.4547500000044,
      "v": 100
    },
    {
      "midi": 74,
      "hit": false,
      "t": 140909.10499999986,
      "d": 909.0909999999858,
      "v": 100
    },
    {
      "midi": 52,
      "hit": false,
      "t": 141363.6505000002,
      "d": 454.54550000000745,
      "v": 100
    },
    {
      "midi": 40,
      "hit": false,
      "t": 141363.6505000002,
      "d": 454.54550000000745,
      "v": 100
    },
    {
      "midi": 76,
      "hit": false,
      "t": 141818.19599999985,
      "d": 909.0909999999858,
      "v": 100
    },
    {
      "midi": 53,
      "hit": false,
      "t": 141818.1960000002,
      "d": 3181.818499999994,
      "v": 100
    },
    {
      "midi": 41,
      "hit": false,
      "t": 141818.1960000002,
      "d": 3181.818499999994,
      "v": 100
    },
    {
      "midi": 69,
      "hit": false,
      "t": 142727.28699999984,
      "d": 1818.1820000000007,
      "v": 100
    },
    {
      "midi": 67,
      "hit": false,
      "t": 142727.2870000002,
      "d": 227.27275000000373,
      "v": 100
    },
    {
      "midi": 60,
      "hit": false,
      "t": 142727.2870000002,
      "d": 227.27275000000373,
      "v": 100
    },
    {
      "midi": 67,
      "hit": false,
      "t": 142954.5597500002,
      "d": 454.54550000000745,
      "v": 100
    },
    {
      "midi": 60,
      "hit": false,
      "t": 142954.5597500002,
      "d": 454.54550000000745,
      "v": 100
    },
    {
      "midi": 67,
      "hit": false,
      "t": 143409.1052500002,
      "d": 2045.4547500000044,
      "v": 100
    },
    {
      "midi": 60,
      "hit": false,
      "t": 143409.1052500002,
      "d": 2045.4547500000044,
      "v": 100
    },
    {
      "midi": 72,
      "hit": false,
      "t": 144545.46899999984,
      "d": 909.0909999999858,
      "v": 100
    },
    {
      "midi": 48,
      "hit": false,
      "t": 145000.0145000002,
      "d": 454.54550000000745,
      "v": 100
    },
    {
      "midi": 76,
      "hit": false,
      "t": 145454.55999999982,
      "d": 909.0909999999858,
      "v": 100
    },
    {
      "midi": 53,
      "hit": false,
      "t": 145454.5600000002,
      "d": 3181.818499999994,
      "v": 100
    },
    {
      "midi": 41,
      "hit": false,
      "t": 145454.5600000002,
      "d": 3181.818499999994,
      "v": 100
    },
    {
      "midi": 69,
      "hit": false,
      "t": 146363.6509999998,
      "d": 1818.1820000000007,
      "v": 100
    },
    {
      "midi": 67,
      "hit": false,
      "t": 146363.6510000002,
      "d": 227.27275000000373,
      "v": 100
    },
    {
      "midi": 60,
      "hit": false,
      "t": 146363.6510000002,
      "d": 227.27275000000373,
      "v": 100
    },
    {
      "midi": 67,
      "hit": false,
      "t": 146590.9237500002,
      "d": 454.54550000000745,
      "v": 100
    },
    {
      "midi": 60,
      "hit": false,
      "t": 146590.9237500002,
      "d": 454.54550000000745,
      "v": 100
    },
    {
      "midi": 67,
      "hit": false,
      "t": 147045.4692500002,
      "d": 2045.4547500000044,
      "v": 100
    },
    {
      "midi": 60,
      "hit": false,
      "t": 147045.4692500002,
      "d": 2045.4547500000044,
      "v": 100
    },
    {
      "midi": 74,
      "hit": false,
      "t": 148181.8329999998,
      "d": 909.0909999999858,
      "v": 100
    },
    {
      "midi": 53,
      "hit": false,
      "t": 148636.3785000002,
      "d": 454.54550000000745,
      "v": 100
    },
    {
      "midi": 41,
      "hit": false,
      "t": 148636.3785000002,
      "d": 454.54550000000745,
      "v": 100
    },
    {
      "midi": 71,
      "hit": false,
      "t": 149090.9239999998,
      "d": 3636.3640000000014,
      "v": 100
    },
    {
      "midi": 59,
      "hit": false,
      "t": 149090.9239999998,
      "d": 3636.3640000000014,
      "v": 100
    },
    {
      "midi": 64,
      "hit": false,
      "t": 149090.9239999998,
      "d": 3636.3640000000014,
      "v": 100
    },
    {
      "midi": 66,
      "hit": false,
      "t": 149090.9239999998,
      "d": 3636.3640000000014,
      "v": 100
    },
    {
      "midi": 52,
      "hit": false,
      "t": 149090.9240000002,
      "d": 3636.3640000000014,
      "v": 100
    },
    {
      "midi": 40,
      "hit": false,
      "t": 149090.9240000002,
      "d": 3636.3640000000014,
      "v": 100
    },
    {
      "midi": 71,
      "hit": false,
      "t": 152727.2879999998,
      "d": 3636.3640000000014,
      "v": 100
    },
    {
      "midi": 66,
      "hit": false,
      "t": 152727.2879999998,
      "d": 3636.3640000000014,
      "v": 100
    },
    {
      "midi": 67,
      "hit": false,
      "t": 152727.2879999998,
      "d": 3636.3640000000014,
      "v": 100
    },
    {
      "midi": 69,
      "hit": false,
      "t": 152727.2879999998,
      "d": 3636.3640000000014,
      "v": 100
    },
    {
      "midi": 52,
      "hit": false,
      "t": 152727.2880000002,
      "d": 3636.3640000000014,
      "v": 100
    },
    {
      "midi": 40,
      "hit": false,
      "t": 152727.2880000002,
      "d": 3636.3640000000014,
      "v": 100
    },
    {
      "midi": 74,
      "hit": false,
      "t": 156363.6519999998,
      "d": 3636.3640000000014,
      "v": 100
    },
    {
      "midi": 66,
      "hit": false,
      "t": 156363.6519999998,
      "d": 3636.3640000000014,
      "v": 100
    },
    {
      "midi": 69,
      "hit": false,
      "t": 156363.6519999998,
      "d": 3636.3640000000014,
      "v": 100
    },
    {
      "midi": 71,
      "hit": false,
      "t": 156363.6519999998,
      "d": 3636.3640000000014,
      "v": 100
    },
    {
      "midi": 40,
      "hit": false,
      "t": 156363.6520000002,
      "d": 3636.3640000000014,
      "v": 100
    },
    {
      "midi": 52,
      "hit": false,
      "t": 156363.6520000002,
      "d": 3636.3640000000014,
      "v": 100
    },
    {
      "midi": 79,
      "hit": false,
      "t": 160000.0159999998,
      "d": 3636.3640000000014,
      "v": 100
    },
    {
      "midi": 69,
      "hit": false,
      "t": 160000.0159999998,
      "d": 3636.3640000000014,
      "v": 100
    },
    {
      "midi": 71,
      "hit": false,
      "t": 160000.0159999998,
      "d": 3636.3640000000014,
      "v": 100
    },
    {
      "midi": 74,
      "hit": false,
      "t": 160000.0159999998,
      "d": 3636.3640000000014,
      "v": 100
    },
    {
      "midi": 52,
      "hit": false,
      "t": 160000.0160000002,
      "d": 3636.3640000000014,
      "v": 100
    },
    {
      "midi": 40,
      "hit": false,
      "t": 160000.0160000002,
      "d": 3636.3640000000014,
      "v": 100
    },
    {
      "midi": 76,
      "hit": false,
      "t": 163636.3799999998,
      "d": 227.27275000000373,
      "v": 100
    },
    {
      "midi": 41,
      "hit": false,
      "t": 163636.3800000002,
      "d": 3636.3640000000596,
      "v": 100
    },
    {
      "midi": 74,
      "hit": false,
      "t": 163863.6527499998,
      "d": 227.27275000000373,
      "v": 100
    },
    {
      "midi": 76,
      "hit": false,
      "t": 164090.9254999998,
      "d": 1363.6364999999932,
      "v": 100
    },
    {
      "midi": 57,
      "hit": false,
      "t": 164090.92550000022,
      "d": 227.27275000000373,
      "v": 100
    },
    {
      "midi": 53,
      "hit": false,
      "t": 164318.19825000022,
      "d": 227.27275000000373,
      "v": 100
    },
    {
      "midi": 64,
      "hit": false,
      "t": 164545.47100000022,
      "d": 227.27275000000373,
      "v": 100
    },
    {
      "midi": 60,
      "hit": false,
      "t": 164772.74375000023,
      "d": 227.27275000000373,
      "v": 100
    },
    {
      "midi": 57,
      "hit": false,
      "t": 165000.01650000023,
      "d": 227.27275000000373,
      "v": 100
    },
    {
      "midi": 53,
      "hit": false,
      "t": 165227.28925000023,
      "d": 227.27275000000373,
      "v": 100
    },
    {
      "midi": 69,
      "hit": false,
      "t": 165454.5619999998,
      "d": 454.54550000000745,
      "v": 100
    },
    {
      "midi": 64,
      "hit": false,
      "t": 165454.56200000024,
      "d": 227.27275000000373,
      "v": 100
    },
    {
      "midi": 60,
      "hit": false,
      "t": 165681.83475000024,
      "d": 227.27275000000373,
      "v": 100
    },
    {
      "midi": 71,
      "hit": false,
      "t": 165909.1074999998,
      "d": 454.54550000000745,
      "v": 100
    },
    {
      "midi": 57,
      "hit": false,
      "t": 165909.10750000025,
      "d": 227.27275000000373,
      "v": 100
    },
    {
      "midi": 53,
      "hit": false,
      "t": 166136.38025000025,
      "d": 227.27275000000373,
      "v": 100
    },
    {
      "midi": 72,
      "hit": false,
      "t": 166363.65299999982,
      "d": 454.54550000000745,
      "v": 100
    },
    {
      "midi": 64,
      "hit": false,
      "t": 166363.65300000025,
      "d": 227.27275000000373,
      "v": 100
    },
    {
      "midi": 60,
      "hit": false,
      "t": 166590.92575000026,
      "d": 227.27275000000373,
      "v": 100
    },
    {
      "midi": 74,
      "hit": false,
      "t": 166818.19849999982,
      "d": 454.54550000000745,
      "v": 100
    },
    {
      "midi": 57,
      "hit": false,
      "t": 166818.19850000026,
      "d": 227.27275000000373,
      "v": 100
    },
    {
      "midi": 53,
      "hit": false,
      "t": 167045.47125000026,
      "d": 227.27275000000373,
      "v": 100
    },
    {
      "midi": 76,
      "hit": false,
      "t": 167272.74399999983,
      "d": 227.27275000000373,
      "v": 100
    },
    {
      "midi": 41,
      "hit": false,
      "t": 167272.74400000027,
      "d": 3636.3640000000596,
      "v": 100
    },
    {
      "midi": 74,
      "hit": false,
      "t": 167500.01674999984,
      "d": 227.27275000000373,
      "v": 100
    },
    {
      "midi": 76,
      "hit": false,
      "t": 167727.28949999984,
      "d": 1363.6364999999932,
      "v": 100
    },
    {
      "midi": 57,
      "hit": false,
      "t": 167727.28950000028,
      "d": 227.27275000000373,
      "v": 100
    },
    {
      "midi": 53,
      "hit": false,
      "t": 167954.56225000028,
      "d": 227.27275000000373,
      "v": 100
    },
    {
      "midi": 64,
      "hit": false,
      "t": 168181.83500000028,
      "d": 227.27275000000373,
      "v": 100
    },
    {
      "midi": 60,
      "hit": false,
      "t": 168409.1077500003,
      "d": 227.27275000000373,
      "v": 100
    },
    {
      "midi": 57,
      "hit": false,
      "t": 168636.3805000003,
      "d": 227.27275000000373,
      "v": 100
    },
    {
      "midi": 53,
      "hit": false,
      "t": 168863.6532500003,
      "d": 227.27275000000373,
      "v": 100
    },
    {
      "midi": 69,
      "hit": false,
      "t": 169090.92599999983,
      "d": 454.54550000000745,
      "v": 100
    },
    {
      "midi": 64,
      "hit": false,
      "t": 169090.9260000003,
      "d": 227.27275000000373,
      "v": 100
    },
    {
      "midi": 60,
      "hit": false,
      "t": 169318.1987500003,
      "d": 227.27275000000373,
      "v": 100
    },
    {
      "midi": 71,
      "hit": false,
      "t": 169545.47149999984,
      "d": 454.54550000000745,
      "v": 100
    },
    {
      "midi": 57,
      "hit": false,
      "t": 169545.4715000003,
      "d": 227.27275000000373,
      "v": 100
    },
    {
      "midi": 53,
      "hit": false,
      "t": 169772.7442500003,
      "d": 227.27275000000373,
      "v": 100
    },
    {
      "midi": 72,
      "hit": false,
      "t": 170000.01699999985,
      "d": 454.54550000000745,
      "v": 100
    },
    {
      "midi": 64,
      "hit": false,
      "t": 170000.0170000003,
      "d": 227.27275000000373,
      "v": 100
    },
    {
      "midi": 60,
      "hit": false,
      "t": 170227.28975000032,
      "d": 227.27275000000373,
      "v": 100
    },
    {
      "midi": 76,
      "hit": false,
      "t": 170454.56249999985,
      "d": 454.54550000000745,
      "v": 100
    },
    {
      "midi": 57,
      "hit": false,
      "t": 170454.56250000032,
      "d": 227.27275000000373,
      "v": 100
    },
    {
      "midi": 53,
      "hit": false,
      "t": 170681.83525000032,
      "d": 227.27275000000373,
      "v": 100
    },
    {
      "midi": 74,
      "hit": false,
      "t": 170909.10799999986,
      "d": 227.27275000000373,
      "v": 100
    },
    {
      "midi": 40,
      "hit": false,
      "t": 170909.10800000033,
      "d": 3636.3640000000596,
      "v": 100
    },
    {
      "midi": 72,
      "hit": false,
      "t": 171136.38074999987,
      "d": 227.27275000000373,
      "v": 100
    },
    {
      "midi": 74,
      "hit": false,
      "t": 171363.65349999987,
      "d": 1363.6364999999932,
      "v": 100
    },
    {
      "midi": 55,
      "hit": false,
      "t": 171363.65350000034,
      "d": 227.27275000000373,
      "v": 100
    },
    {
      "midi": 52,
      "hit": false,
      "t": 171590.92625000034,
      "d": 227.27275000000373,
      "v": 100
    },
    {
      "midi": 62,
      "hit": false,
      "t": 171818.19900000034,
      "d": 227.27275000000373,
      "v": 100
    },
    {
      "midi": 59,
      "hit": false,
      "t": 172045.47175000035,
      "d": 227.27275000000373,
      "v": 100
    },
    {
      "midi": 55,
      "hit": false,
      "t": 172272.74450000035,
      "d": 227.27275000000373,
      "v": 100
    },
    {
      "midi": 52,
      "hit": false,
      "t": 172500.01725000035,
      "d": 227.27275000000373,
      "v": 100
    },
    {
      "midi": 67,
      "hit": false,
      "t": 172727.28999999986,
      "d": 454.54550000000745,
      "v": 100
    },
    {
      "midi": 62,
      "hit": false,
      "t": 172727.29000000036,
      "d": 227.27275000000373,
      "v": 100
    },
    {
      "midi": 59,
      "hit": false,
      "t": 172954.56275000036,
      "d": 227.27275000000373,
      "v": 100
    },
    {
      "midi": 69,
      "hit": false,
      "t": 173181.83549999987,
      "d": 454.54550000000745,
      "v": 100
    },
    {
      "midi": 55,
      "hit": false,
      "t": 173181.83550000036,
      "d": 227.27275000000373,
      "v": 100
    },
    {
      "midi": 52,
      "hit": false,
      "t": 173409.10825000037,
      "d": 227.27275000000373,
      "v": 100
    },
    {
      "midi": 71,
      "hit": false,
      "t": 173636.38099999988,
      "d": 454.54550000000745,
      "v": 100
    },
    {
      "midi": 62,
      "hit": false,
      "t": 173636.38100000037,
      "d": 227.27275000000373,
      "v": 100
    },
    {
      "midi": 59,
      "hit": false,
      "t": 173863.65375000038,
      "d": 227.27275000000373,
      "v": 100
    },
    {
      "midi": 72,
      "hit": false,
      "t": 174090.92649999988,
      "d": 454.54550000000745,
      "v": 100
    },
    {
      "midi": 55,
      "hit": false,
      "t": 174090.92650000038,
      "d": 227.27275000000373,
      "v": 100
    },
    {
      "midi": 52,
      "hit": false,
      "t": 174318.19925000038,
      "d": 227.27275000000373,
      "v": 100
    },
    {
      "midi": 74,
      "hit": false,
      "t": 174545.4719999999,
      "d": 227.27275000000373,
      "v": 100
    },
    {
      "midi": 40,
      "hit": false,
      "t": 174545.4720000004,
      "d": 3636.3640000000596,
      "v": 100
    },
    {
      "midi": 72,
      "hit": false,
      "t": 174772.7447499999,
      "d": 227.27275000000373,
      "v": 100
    },
    {
      "midi": 74,
      "hit": false,
      "t": 175000.0174999999,
      "d": 1363.6364999999932,
      "v": 100
    },
    {
      "midi": 55,
      "hit": false,
      "t": 175000.0175000004,
      "d": 227.27275000000373,
      "v": 100
    },
    {
      "midi": 52,
      "hit": false,
      "t": 175227.2902500004,
      "d": 227.27275000000373,
      "v": 100
    },
    {
      "midi": 62,
      "hit": false,
      "t": 175454.5630000004,
      "d": 227.27275000000373,
      "v": 100
    },
    {
      "midi": 59,
      "hit": false,
      "t": 175681.8357500004,
      "d": 227.27275000000373,
      "v": 100
    },
    {
      "midi": 55,
      "hit": false,
      "t": 175909.1085000004,
      "d": 227.27275000000373,
      "v": 100
    },
    {
      "midi": 52,
      "hit": false,
      "t": 176136.3812500004,
      "d": 227.27275000000373,
      "v": 100
    },
    {
      "midi": 67,
      "hit": false,
      "t": 176363.6539999999,
      "d": 454.54550000000745,
      "v": 100
    },
    {
      "midi": 62,
      "hit": false,
      "t": 176363.65400000042,
      "d": 227.27275000000373,
      "v": 100
    },
    {
      "midi": 59,
      "hit": false,
      "t": 176590.92675000042,
      "d": 227.27275000000373,
      "v": 100
    },
    {
      "midi": 69,
      "hit": false,
      "t": 176818.1994999999,
      "d": 454.54550000000745,
      "v": 100
    },
    {
      "midi": 55,
      "hit": false,
      "t": 176818.19950000042,
      "d": 227.27275000000373,
      "v": 100
    },
    {
      "midi": 52,
      "hit": false,
      "t": 177045.47225000043,
      "d": 227.27275000000373,
      "v": 100
    },
    {
      "midi": 71,
      "hit": false,
      "t": 177272.7449999999,
      "d": 454.54550000000745,
      "v": 100
    },
    {
      "midi": 62,
      "hit": false,
      "t": 177272.74500000043,
      "d": 227.27275000000373,
      "v": 100
    },
    {
      "midi": 59,
      "hit": false,
      "t": 177500.01775000044,
      "d": 227.27275000000373,
      "v": 100
    },
    {
      "midi": 74,
      "hit": false,
      "t": 177727.29049999992,
      "d": 454.54550000000745,
      "v": 100
    },
    {
      "midi": 55,
      "hit": false,
      "t": 177727.29050000044,
      "d": 227.27275000000373,
      "v": 100
    },
    {
      "midi": 52,
      "hit": false,
      "t": 177954.56325000044,
      "d": 227.27275000000373,
      "v": 100
    },
    {
      "midi": 76,
      "hit": false,
      "t": 178181.83599999992,
      "d": 227.27275000000373,
      "v": 100
    },
    {
      "midi": 41,
      "hit": false,
      "t": 178181.83600000045,
      "d": 3636.3640000000596,
      "v": 100
    },
    {
      "midi": 74,
      "hit": false,
      "t": 178409.10874999993,
      "d": 227.27275000000373,
      "v": 100
    },
    {
      "midi": 76,
      "hit": false,
      "t": 178636.38149999993,
      "d": 1363.6364999999932,
      "v": 100
    },
    {
      "midi": 57,
      "hit": false,
      "t": 178636.38150000045,
      "d": 227.27275000000373,
      "v": 100
    },
    {
      "midi": 53,
      "hit": false,
      "t": 178863.65425000046,
      "d": 227.27275000000373,
      "v": 100
    },
    {
      "midi": 64,
      "hit": false,
      "t": 179090.92700000046,
      "d": 227.27275000000373,
      "v": 100
    },
    {
      "midi": 60,
      "hit": false,
      "t": 179318.19975000047,
      "d": 227.27275000000373,
      "v": 100
    },
    {
      "midi": 57,
      "hit": false,
      "t": 179545.47250000047,
      "d": 227.27275000000373,
      "v": 100
    },
    {
      "midi": 53,
      "hit": false,
      "t": 179772.74525000047,
      "d": 227.27275000000373,
      "v": 100
    },
    {
      "midi": 69,
      "hit": false,
      "t": 180000.01799999992,
      "d": 454.54550000000745,
      "v": 100
    },
    {
      "midi": 64,
      "hit": false,
      "t": 180000.01800000048,
      "d": 227.27275000000373,
      "v": 100
    },
    {
      "midi": 60,
      "hit": false,
      "t": 180227.29075000048,
      "d": 227.27275000000373,
      "v": 100
    },
    {
      "midi": 71,
      "hit": false,
      "t": 180454.56349999993,
      "d": 454.54550000000745,
      "v": 100
    },
    {
      "midi": 57,
      "hit": false,
      "t": 180454.56350000048,
      "d": 227.27275000000373,
      "v": 100
    },
    {
      "midi": 53,
      "hit": false,
      "t": 180681.8362500005,
      "d": 227.27275000000373,
      "v": 100
    },
    {
      "midi": 72,
      "hit": false,
      "t": 180909.10899999994,
      "d": 454.54550000000745,
      "v": 100
    },
    {
      "midi": 64,
      "hit": false,
      "t": 180909.1090000005,
      "d": 227.27275000000373,
      "v": 100
    },
    {
      "midi": 60,
      "hit": false,
      "t": 181136.3817500005,
      "d": 227.27275000000373,
      "v": 100
    },
    {
      "midi": 74,
      "hit": false,
      "t": 181363.65449999995,
      "d": 454.54550000000745,
      "v": 100
    },
    {
      "midi": 57,
      "hit": false,
      "t": 181363.6545000005,
      "d": 227.27275000000373,
      "v": 100
    },
    {
      "midi": 53,
      "hit": false,
      "t": 181590.9272500005,
      "d": 227.27275000000373,
      "v": 100
    },
    {
      "midi": 76,
      "hit": false,
      "t": 181818.19999999995,
      "d": 227.27275000000373,
      "v": 100
    },
    {
      "midi": 41,
      "hit": false,
      "t": 181818.2000000005,
      "d": 3636.3640000000596,
      "v": 100
    },
    {
      "midi": 74,
      "hit": false,
      "t": 182045.47274999996,
      "d": 227.27275000000373,
      "v": 100
    },
    {
      "midi": 76,
      "hit": false,
      "t": 182272.74549999996,
      "d": 1363.6364999999932,
      "v": 100
    },
    {
      "midi": 57,
      "hit": false,
      "t": 182272.7455000005,
      "d": 227.27275000000373,
      "v": 100
    },
    {
      "midi": 53,
      "hit": false,
      "t": 182500.01825000052,
      "d": 227.27275000000373,
      "v": 100
    },
    {
      "midi": 64,
      "hit": false,
      "t": 182727.29100000052,
      "d": 227.27275000000373,
      "v": 100
    },
    {
      "midi": 60,
      "hit": false,
      "t": 182954.56375000053,
      "d": 227.27275000000373,
      "v": 100
    },
    {
      "midi": 57,
      "hit": false,
      "t": 183181.83650000053,
      "d": 227.27275000000373,
      "v": 100
    },
    {
      "midi": 53,
      "hit": false,
      "t": 183409.10925000053,
      "d": 227.27275000000373,
      "v": 100
    },
    {
      "midi": 69,
      "hit": false,
      "t": 183636.38199999995,
      "d": 454.54550000000745,
      "v": 100
    },
    {
      "midi": 64,
      "hit": false,
      "t": 183636.38200000054,
      "d": 227.27275000000373,
      "v": 100
    },
    {
      "midi": 60,
      "hit": false,
      "t": 183863.65475000054,
      "d": 227.27275000000373,
      "v": 100
    },
    {
      "midi": 71,
      "hit": false,
      "t": 184090.92749999996,
      "d": 454.54550000000745,
      "v": 100
    },
    {
      "midi": 57,
      "hit": false,
      "t": 184090.92750000054,
      "d": 227.27275000000373,
      "v": 100
    },
    {
      "midi": 53,
      "hit": false,
      "t": 184318.20025000055,
      "d": 227.27275000000373,
      "v": 100
    },
    {
      "midi": 72,
      "hit": false,
      "t": 184545.47299999997,
      "d": 454.54550000000745,
      "v": 100
    },
    {
      "midi": 64,
      "hit": false,
      "t": 184545.47300000055,
      "d": 227.27275000000373,
      "v": 100
    },
    {
      "midi": 60,
      "hit": false,
      "t": 184772.74575000055,
      "d": 227.27275000000373,
      "v": 100
    },
    {
      "midi": 76,
      "hit": false,
      "t": 185000.01849999998,
      "d": 454.54550000000745,
      "v": 100
    },
    {
      "midi": 57,
      "hit": false,
      "t": 185000.01850000056,
      "d": 227.27275000000373,
      "v": 100
    },
    {
      "midi": 53,
      "hit": false,
      "t": 185227.29125000056,
      "d": 227.27275000000373,
      "v": 100
    },
    {
      "midi": 74,
      "hit": false,
      "t": 185454.56399999998,
      "d": 227.27275000000373,
      "v": 100
    },
    {
      "midi": 40,
      "hit": false,
      "t": 185454.56400000057,
      "d": 3636.3640000000596,
      "v": 100
    },
    {
      "midi": 72,
      "hit": false,
      "t": 185681.83675,
      "d": 227.27275000000373,
      "v": 100
    },
    {
      "midi": 74,
      "hit": false,
      "t": 185909.1095,
      "d": 1363.6364999999932,
      "v": 100
    },
    {
      "midi": 55,
      "hit": false,
      "t": 185909.10950000057,
      "d": 227.27275000000373,
      "v": 100
    },
    {
      "midi": 52,
      "hit": false,
      "t": 186136.38225000058,
      "d": 227.27275000000373,
      "v": 100
    },
    {
      "midi": 62,
      "hit": false,
      "t": 186363.65500000058,
      "d": 227.27275000000373,
      "v": 100
    },
    {
      "midi": 59,
      "hit": false,
      "t": 186590.92775000058,
      "d": 227.27275000000373,
      "v": 100
    },
    {
      "midi": 55,
      "hit": false,
      "t": 186818.2005000006,
      "d": 227.27275000000373,
      "v": 100
    },
    {
      "midi": 52,
      "hit": false,
      "t": 187045.4732500006,
      "d": 227.27275000000373,
      "v": 100
    },
    {
      "midi": 79,
      "hit": false,
      "t": 187272.74599999998,
      "d": 454.54550000000745,
      "v": 100
    },
    {
      "midi": 62,
      "hit": false,
      "t": 187272.7460000006,
      "d": 227.27275000000373,
      "v": 100
    },
    {
      "midi": 59,
      "hit": false,
      "t": 187500.0187500006,
      "d": 227.27275000000373,
      "v": 100
    },
    {
      "midi": 81,
      "hit": false,
      "t": 187727.2915,
      "d": 454.54550000000745,
      "v": 100
    },
    {
      "midi": 55,
      "hit": false,
      "t": 187727.2915000006,
      "d": 227.27275000000373,
      "v": 100
    },
    {
      "midi": 52,
      "hit": false,
      "t": 187954.5642500006,
      "d": 227.27275000000373,
      "v": 100
    },
    {
      "midi": 83,
      "hit": false,
      "t": 188181.837,
      "d": 454.54550000000745,
      "v": 100
    },
    {
      "midi": 62,
      "hit": false,
      "t": 188181.8370000006,
      "d": 227.27275000000373,
      "v": 100
    },
    {
      "midi": 59,
      "hit": false,
      "t": 188409.1097500006,
      "d": 227.27275000000373,
      "v": 100
    },
    {
      "midi": 84,
      "hit": false,
      "t": 188636.3825,
      "d": 454.54550000000745,
      "v": 100
    },
    {
      "midi": 55,
      "hit": false,
      "t": 188636.38250000062,
      "d": 227.27275000000373,
      "v": 100
    },
    {
      "midi": 52,
      "hit": false,
      "t": 188863.65525000062,
      "d": 227.27275000000373,
      "v": 100
    },
    {
      "midi": 81,
      "hit": false,
      "t": 189090.928,
      "d": 227.27275000000373,
      "v": 100
    },
    {
      "midi": 86,
      "hit": false,
      "t": 189090.928,
      "d": 909.0910000000149,
      "v": 100
    },
    {
      "midi": 83,
      "hit": false,
      "t": 189090.928,
      "d": 909.0910000000149,
      "v": 100
    },
    {
      "midi": 52,
      "hit": false,
      "t": 189090.92800000063,
      "d": 3636.3640000000014,
      "v": 100
    },
    {
      "midi": 40,
      "hit": false,
      "t": 189090.92800000063,
      "d": 3636.3640000000014,
      "v": 100
    },
    {
      "midi": 79,
      "hit": false,
      "t": 189318.20075000002,
      "d": 227.27275000000373,
      "v": 100
    },
    {
      "midi": 76,
      "hit": false,
      "t": 189545.47350000002,
      "d": 227.27275000000373,
      "v": 100
    },
    {
      "midi": 74,
      "hit": false,
      "t": 189772.74625000003,
      "d": 227.27275000000373,
      "v": 100
    },
    {
      "midi": 79,
      "hit": false,
      "t": 190000.01900000003,
      "d": 227.27275000000373,
      "v": 100
    },
    {
      "midi": 83,
      "hit": false,
      "t": 190000.01900000003,
      "d": 909.0910000000149,
      "v": 100
    },
    {
      "midi": 76,
      "hit": false,
      "t": 190227.29175000003,
      "d": 227.27275000000373,
      "v": 100
    },
    {
      "midi": 74,
      "hit": false,
      "t": 190454.56450000004,
      "d": 227.27275000000373,
      "v": 100
    },
    {
      "midi": 71,
      "hit": false,
      "t": 190681.83725000004,
      "d": 227.27275000000373,
      "v": 100
    },
    {
      "midi": 74,
      "hit": false,
      "t": 190909.11000000004,
      "d": 227.27275000000373,
      "v": 100
    },
    {
      "midi": 79,
      "hit": false,
      "t": 190909.11000000004,
      "d": 909.0910000000149,
      "v": 100
    },
    {
      "midi": 71,
      "hit": false,
      "t": 191136.38275000005,
      "d": 227.27275000000373,
      "v": 100
    },
    {
      "midi": 67,
      "hit": false,
      "t": 191363.65550000005,
      "d": 227.27275000000373,
      "v": 100
    },
    {
      "midi": 64,
      "hit": false,
      "t": 191590.92825000006,
      "d": 227.27275000000373,
      "v": 100
    },
    {
      "midi": 67,
      "hit": false,
      "t": 191818.20100000006,
      "d": 181.8182000000088,
      "v": 100
    },
    {
      "midi": 69,
      "hit": false,
      "t": 192000.01920000007,
      "d": 181.8182000000088,
      "v": 100
    },
    {
      "midi": 71,
      "hit": false,
      "t": 192181.83740000008,
      "d": 181.8182000000088,
      "v": 100
    },
    {
      "midi": 72,
      "hit": false,
      "t": 192363.6556000001,
      "d": 181.8182000000088,
      "v": 100
    },
    {
      "midi": 74,
      "hit": false,
      "t": 192545.4738000001,
      "d": 181.8182000000088,
      "v": 100
    },
    {
      "midi": 76,
      "hit": false,
      "t": 192727.2920000001,
      "d": 227.27275000000373,
      "v": 100
    },
    {
      "midi": 41,
      "hit": false,
      "t": 192727.29200000063,
      "d": 3636.3640000000596,
      "v": 100
    },
    {
      "midi": 74,
      "hit": false,
      "t": 192954.5647500001,
      "d": 227.27275000000373,
      "v": 100
    },
    {
      "midi": 76,
      "hit": false,
      "t": 193181.8375000001,
      "d": 1363.6364999999932,
      "v": 100
    },
    {
      "midi": 57,
      "hit": false,
      "t": 193181.83750000063,
      "d": 227.27275000000373,
      "v": 100
    },
    {
      "midi": 53,
      "hit": false,
      "t": 193409.11025000064,
      "d": 227.27275000000373,
      "v": 100
    },
    {
      "midi": 64,
      "hit": false,
      "t": 193636.38300000064,
      "d": 227.27275000000373,
      "v": 100
    },
    {
      "midi": 60,
      "hit": false,
      "t": 193863.65575000065,
      "d": 227.27275000000373,
      "v": 100
    },
    {
      "midi": 57,
      "hit": false,
      "t": 194090.92850000065,
      "d": 227.27275000000373,
      "v": 100
    },
    {
      "midi": 53,
      "hit": false,
      "t": 194318.20125000065,
      "d": 227.27275000000373,
      "v": 100
    },
    {
      "midi": 69,
      "hit": false,
      "t": 194545.4740000001,
      "d": 454.54550000000745,
      "v": 100
    },
    {
      "midi": 64,
      "hit": false,
      "t": 194545.47400000066,
      "d": 227.27275000000373,
      "v": 100
    },
    {
      "midi": 60,
      "hit": false,
      "t": 194772.74675000066,
      "d": 227.27275000000373,
      "v": 100
    },
    {
      "midi": 71,
      "hit": false,
      "t": 195000.0195000001,
      "d": 454.54550000000745,
      "v": 100
    },
    {
      "midi": 57,
      "hit": false,
      "t": 195000.01950000066,
      "d": 227.27275000000373,
      "v": 100
    },
    {
      "midi": 53,
      "hit": false,
      "t": 195227.29225000067,
      "d": 227.27275000000373,
      "v": 100
    },
    {
      "midi": 72,
      "hit": false,
      "t": 195454.56500000012,
      "d": 454.54550000000745,
      "v": 100
    },
    {
      "midi": 64,
      "hit": false,
      "t": 195454.56500000067,
      "d": 227.27275000000373,
      "v": 100
    },
    {
      "midi": 60,
      "hit": false,
      "t": 195681.83775000068,
      "d": 227.27275000000373,
      "v": 100
    },
    {
      "midi": 74,
      "hit": false,
      "t": 195909.11050000013,
      "d": 454.54550000000745,
      "v": 100
    },
    {
      "midi": 57,
      "hit": false,
      "t": 195909.11050000068,
      "d": 227.27275000000373,
      "v": 100
    },
    {
      "midi": 53,
      "hit": false,
      "t": 196136.38325000068,
      "d": 227.27275000000373,
      "v": 100
    },
    {
      "midi": 76,
      "hit": false,
      "t": 196363.65600000013,
      "d": 227.27275000000373,
      "v": 100
    },
    {
      "midi": 41,
      "hit": false,
      "t": 196363.6560000007,
      "d": 3636.3640000000596,
      "v": 100
    },
    {
      "midi": 74,
      "hit": false,
      "t": 196590.92875000014,
      "d": 227.27275000000373,
      "v": 100
    },
    {
      "midi": 76,
      "hit": false,
      "t": 196818.20150000014,
      "d": 1363.6364999999932,
      "v": 100
    },
    {
      "midi": 57,
      "hit": false,
      "t": 196818.2015000007,
      "d": 227.27275000000373,
      "v": 100
    },
    {
      "midi": 53,
      "hit": false,
      "t": 197045.4742500007,
      "d": 227.27275000000373,
      "v": 100
    },
    {
      "midi": 64,
      "hit": false,
      "t": 197272.7470000007,
      "d": 227.27275000000373,
      "v": 100
    },
    {
      "midi": 60,
      "hit": false,
      "t": 197500.0197500007,
      "d": 227.27275000000373,
      "v": 100
    },
    {
      "midi": 57,
      "hit": false,
      "t": 197727.2925000007,
      "d": 227.27275000000373,
      "v": 100
    },
    {
      "midi": 53,
      "hit": false,
      "t": 197954.5652500007,
      "d": 227.27275000000373,
      "v": 100
    },
    {
      "midi": 69,
      "hit": false,
      "t": 198181.83800000013,
      "d": 454.54550000000745,
      "v": 100
    },
    {
      "midi": 64,
      "hit": false,
      "t": 198181.83800000072,
      "d": 227.27275000000373,
      "v": 100
    },
    {
      "midi": 60,
      "hit": false,
      "t": 198409.11075000072,
      "d": 227.27275000000373,
      "v": 100
    },
    {
      "midi": 71,
      "hit": false,
      "t": 198636.38350000014,
      "d": 454.54550000000745,
      "v": 100
    },
    {
      "midi": 57,
      "hit": false,
      "t": 198636.38350000072,
      "d": 227.27275000000373,
      "v": 100
    },
    {
      "midi": 53,
      "hit": false,
      "t": 198863.65625000073,
      "d": 227.27275000000373,
      "v": 100
    },
    {
      "midi": 72,
      "hit": false,
      "t": 199090.92900000015,
      "d": 454.54550000000745,
      "v": 100
    },
    {
      "midi": 64,
      "hit": false,
      "t": 199090.92900000073,
      "d": 227.27275000000373,
      "v": 100
    },
    {
      "midi": 60,
      "hit": false,
      "t": 199318.20175000074,
      "d": 227.27275000000373,
      "v": 100
    },
    {
      "midi": 76,
      "hit": false,
      "t": 199545.47450000016,
      "d": 454.54550000000745,
      "v": 100
    },
    {
      "midi": 57,
      "hit": false,
      "t": 199545.47450000074,
      "d": 227.27275000000373,
      "v": 100
    },
    {
      "midi": 53,
      "hit": false,
      "t": 199772.74725000074,
      "d": 227.27275000000373,
      "v": 100
    },
    {
      "midi": 74,
      "hit": false,
      "t": 200000.02000000016,
      "d": 227.27275000000373,
      "v": 100
    },
    {
      "midi": 40,
      "hit": false,
      "t": 200000.02000000075,
      "d": 3636.3640000000596,
      "v": 100
    },
    {
      "midi": 72,
      "hit": false,
      "t": 200227.29275000017,
      "d": 227.27275000000373,
      "v": 100
    },
    {
      "midi": 74,
      "hit": false,
      "t": 200454.56550000017,
      "d": 1363.6364999999932,
      "v": 100
    },
    {
      "midi": 55,
      "hit": false,
      "t": 200454.56550000075,
      "d": 227.27275000000373,
      "v": 100
    },
    {
      "midi": 52,
      "hit": false,
      "t": 200681.83825000076,
      "d": 227.27275000000373,
      "v": 100
    },
    {
      "midi": 62,
      "hit": false,
      "t": 200909.11100000076,
      "d": 227.27275000000373,
      "v": 100
    },
    {
      "midi": 59,
      "hit": false,
      "t": 201136.38375000076,
      "d": 227.27275000000373,
      "v": 100
    },
    {
      "midi": 55,
      "hit": false,
      "t": 201363.65650000077,
      "d": 227.27275000000373,
      "v": 100
    },
    {
      "midi": 52,
      "hit": false,
      "t": 201590.92925000077,
      "d": 227.27275000000373,
      "v": 100
    },
    {
      "midi": 67,
      "hit": false,
      "t": 201818.20200000016,
      "d": 454.54550000000745,
      "v": 100
    },
    {
      "midi": 62,
      "hit": false,
      "t": 201818.20200000078,
      "d": 227.27275000000373,
      "v": 100
    },
    {
      "midi": 59,
      "hit": false,
      "t": 202045.47475000078,
      "d": 227.27275000000373,
      "v": 100
    },
    {
      "midi": 69,
      "hit": false,
      "t": 202272.74750000017,
      "d": 454.54550000000745,
      "v": 100
    },
    {
      "midi": 55,
      "hit": false,
      "t": 202272.74750000078,
      "d": 227.27275000000373,
      "v": 100
    },
    {
      "midi": 52,
      "hit": false,
      "t": 202500.0202500008,
      "d": 227.27275000000373,
      "v": 100
    },
    {
      "midi": 71,
      "hit": false,
      "t": 202727.29300000018,
      "d": 454.54550000000745,
      "v": 100
    },
    {
      "midi": 62,
      "hit": false,
      "t": 202727.2930000008,
      "d": 227.27275000000373,
      "v": 100
    },
    {
      "midi": 59,
      "hit": false,
      "t": 202954.5657500008,
      "d": 227.27275000000373,
      "v": 100
    },
    {
      "midi": 72,
      "hit": false,
      "t": 203181.8385000002,
      "d": 454.54550000000745,
      "v": 100
    },
    {
      "midi": 55,
      "hit": false,
      "t": 203181.8385000008,
      "d": 227.27275000000373,
      "v": 100
    },
    {
      "midi": 52,
      "hit": false,
      "t": 203409.1112500008,
      "d": 227.27275000000373,
      "v": 100
    },
    {
      "midi": 74,
      "hit": false,
      "t": 203636.3840000002,
      "d": 227.27275000000373,
      "v": 100
    },
    {
      "midi": 40,
      "hit": false,
      "t": 203636.3840000008,
      "d": 3636.3640000000596,
      "v": 100
    },
    {
      "midi": 72,
      "hit": false,
      "t": 203863.6567500002,
      "d": 227.27275000000373,
      "v": 100
    },
    {
      "midi": 74,
      "hit": false,
      "t": 204090.9295000002,
      "d": 1363.6364999999932,
      "v": 100
    },
    {
      "midi": 55,
      "hit": false,
      "t": 204090.9295000008,
      "d": 227.27275000000373,
      "v": 100
    },
    {
      "midi": 52,
      "hit": false,
      "t": 204318.20225000082,
      "d": 227.27275000000373,
      "v": 100
    },
    {
      "midi": 62,
      "hit": false,
      "t": 204545.47500000082,
      "d": 227.27275000000373,
      "v": 100
    },
    {
      "midi": 59,
      "hit": false,
      "t": 204772.74775000082,
      "d": 227.27275000000373,
      "v": 100
    },
    {
      "midi": 55,
      "hit": false,
      "t": 205000.02050000083,
      "d": 227.27275000000373,
      "v": 100
    },
    {
      "midi": 52,
      "hit": false,
      "t": 205227.29325000083,
      "d": 227.27275000000373,
      "v": 100
    },
    {
      "midi": 67,
      "hit": false,
      "t": 205454.5660000002,
      "d": 454.54550000000745,
      "v": 100
    },
    {
      "midi": 62,
      "hit": false,
      "t": 205454.56600000084,
      "d": 227.27275000000373,
      "v": 100
    },
    {
      "midi": 59,
      "hit": false,
      "t": 205681.83875000084,
      "d": 227.27275000000373,
      "v": 100
    },
    {
      "midi": 69,
      "hit": false,
      "t": 205909.1115000002,
      "d": 454.54550000000745,
      "v": 100
    },
    {
      "midi": 55,
      "hit": false,
      "t": 205909.11150000084,
      "d": 227.27275000000373,
      "v": 100
    },
    {
      "midi": 52,
      "hit": false,
      "t": 206136.38425000085,
      "d": 227.27275000000373,
      "v": 100
    },
    {
      "midi": 71,
      "hit": false,
      "t": 206363.6570000002,
      "d": 454.54550000000745,
      "v": 100
    },
    {
      "midi": 62,
      "hit": false,
      "t": 206363.65700000085,
      "d": 227.27275000000373,
      "v": 100
    },
    {
      "midi": 59,
      "hit": false,
      "t": 206590.92975000085,
      "d": 227.27275000000373,
      "v": 100
    },
    {
      "midi": 74,
      "hit": false,
      "t": 206818.20250000022,
      "d": 454.54550000000745,
      "v": 100
    },
    {
      "midi": 55,
      "hit": false,
      "t": 206818.20250000086,
      "d": 227.27275000000373,
      "v": 100
    },
    {
      "midi": 52,
      "hit": false,
      "t": 207045.47525000086,
      "d": 227.27275000000373,
      "v": 100
    },
    {
      "midi": 76,
      "hit": false,
      "t": 207272.74800000023,
      "d": 227.27275000000373,
      "v": 100
    },
    {
      "midi": 41,
      "hit": false,
      "t": 207272.74800000087,
      "d": 3636.3640000000596,
      "v": 100
    },
    {
      "midi": 74,
      "hit": false,
      "t": 207500.02075000023,
      "d": 227.27275000000373,
      "v": 100
    },
    {
      "midi": 76,
      "hit": false,
      "t": 207727.29350000023,
      "d": 1363.6364999999932,
      "v": 100
    },
    {
      "midi": 57,
      "hit": false,
      "t": 207727.29350000087,
      "d": 227.27275000000373,
      "v": 100
    },
    {
      "midi": 53,
      "hit": false,
      "t": 207954.56625000088,
      "d": 227.27275000000373,
      "v": 100
    },
    {
      "midi": 64,
      "hit": false,
      "t": 208181.83900000088,
      "d": 227.27275000000373,
      "v": 100
    },
    {
      "midi": 60,
      "hit": false,
      "t": 208409.11175000088,
      "d": 227.27275000000373,
      "v": 100
    },
    {
      "midi": 57,
      "hit": false,
      "t": 208636.3845000009,
      "d": 227.27275000000373,
      "v": 100
    },
    {
      "midi": 53,
      "hit": false,
      "t": 208863.6572500009,
      "d": 227.27275000000373,
      "v": 100
    },
    {
      "midi": 69,
      "hit": false,
      "t": 209090.93000000023,
      "d": 454.54550000000745,
      "v": 100
    },
    {
      "midi": 64,
      "hit": false,
      "t": 209090.9300000009,
      "d": 227.27275000000373,
      "v": 100
    },
    {
      "midi": 60,
      "hit": false,
      "t": 209318.2027500009,
      "d": 227.27275000000373,
      "v": 100
    },
    {
      "midi": 71,
      "hit": false,
      "t": 209545.47550000023,
      "d": 454.54550000000745,
      "v": 100
    },
    {
      "midi": 57,
      "hit": false,
      "t": 209545.4755000009,
      "d": 227.27275000000373,
      "v": 100
    },
    {
      "midi": 53,
      "hit": false,
      "t": 209772.7482500009,
      "d": 227.27275000000373,
      "v": 100
    },
    {
      "midi": 72,
      "hit": false,
      "t": 210000.02100000024,
      "d": 454.54550000000745,
      "v": 100
    },
    {
      "midi": 64,
      "hit": false,
      "t": 210000.0210000009,
      "d": 227.27275000000373,
      "v": 100
    },
    {
      "midi": 60,
      "hit": false,
      "t": 210227.2937500009,
      "d": 227.27275000000373,
      "v": 100
    },
    {
      "midi": 74,
      "hit": false,
      "t": 210454.56650000025,
      "d": 454.54550000000745,
      "v": 100
    },
    {
      "midi": 57,
      "hit": false,
      "t": 210454.56650000092,
      "d": 227.27275000000373,
      "v": 100
    },
    {
      "midi": 53,
      "hit": false,
      "t": 210681.83925000092,
      "d": 227.27275000000373,
      "v": 100
    },
    {
      "midi": 76,
      "hit": false,
      "t": 210909.11200000026,
      "d": 227.27275000000373,
      "v": 100
    },
    {
      "midi": 41,
      "hit": false,
      "t": 210909.11200000093,
      "d": 3636.3640000000596,
      "v": 100
    },
    {
      "midi": 74,
      "hit": false,
      "t": 211136.38475000026,
      "d": 227.27275000000373,
      "v": 100
    },
    {
      "midi": 76,
      "hit": false,
      "t": 211363.65750000026,
      "d": 1363.6364999999932,
      "v": 100
    },
    {
      "midi": 57,
      "hit": false,
      "t": 211363.65750000093,
      "d": 227.27275000000373,
      "v": 100
    },
    {
      "midi": 53,
      "hit": false,
      "t": 211590.93025000094,
      "d": 227.27275000000373,
      "v": 100
    },
    {
      "midi": 64,
      "hit": false,
      "t": 211818.20300000094,
      "d": 227.27275000000373,
      "v": 100
    },
    {
      "midi": 60,
      "hit": false,
      "t": 212045.47575000094,
      "d": 227.27275000000373,
      "v": 100
    },
    {
      "midi": 57,
      "hit": false,
      "t": 212272.74850000095,
      "d": 227.27275000000373,
      "v": 100
    },
    {
      "midi": 53,
      "hit": false,
      "t": 212500.02125000095,
      "d": 227.27275000000373,
      "v": 100
    },
    {
      "midi": 69,
      "hit": false,
      "t": 212727.29400000026,
      "d": 454.54550000000745,
      "v": 100
    },
    {
      "midi": 64,
      "hit": false,
      "t": 212727.29400000095,
      "d": 227.27275000000373,
      "v": 100
    },
    {
      "midi": 60,
      "hit": false,
      "t": 212954.56675000096,
      "d": 227.27275000000373,
      "v": 100
    },
    {
      "midi": 71,
      "hit": false,
      "t": 213181.83950000026,
      "d": 454.54550000000745,
      "v": 100
    },
    {
      "midi": 57,
      "hit": false,
      "t": 213181.83950000096,
      "d": 227.27275000000373,
      "v": 100
    },
    {
      "midi": 53,
      "hit": false,
      "t": 213409.11225000097,
      "d": 227.27275000000373,
      "v": 100
    },
    {
      "midi": 72,
      "hit": false,
      "t": 213636.38500000027,
      "d": 454.54550000000745,
      "v": 100
    },
    {
      "midi": 64,
      "hit": false,
      "t": 213636.38500000097,
      "d": 227.27275000000373,
      "v": 100
    },
    {
      "midi": 60,
      "hit": false,
      "t": 213863.65775000097,
      "d": 227.27275000000373,
      "v": 100
    },
    {
      "midi": 76,
      "hit": false,
      "t": 214090.93050000028,
      "d": 454.54550000000745,
      "v": 100
    },
    {
      "midi": 57,
      "hit": false,
      "t": 214090.93050000098,
      "d": 227.27275000000373,
      "v": 100
    },
    {
      "midi": 53,
      "hit": false,
      "t": 214318.20325000098,
      "d": 227.27275000000373,
      "v": 100
    },
    {
      "midi": 74,
      "hit": false,
      "t": 214545.4760000003,
      "d": 227.27275000000373,
      "v": 100
    },
    {
      "midi": 40,
      "hit": false,
      "t": 214545.47600000098,
      "d": 3636.3640000000596,
      "v": 100
    },
    {
      "midi": 72,
      "hit": false,
      "t": 214772.7487500003,
      "d": 227.27275000000373,
      "v": 100
    },
    {
      "midi": 74,
      "hit": false,
      "t": 215000.0215000003,
      "d": 1363.6364999999932,
      "v": 100
    },
    {
      "midi": 55,
      "hit": false,
      "t": 215000.021500001,
      "d": 227.27275000000373,
      "v": 100
    },
    {
      "midi": 52,
      "hit": false,
      "t": 215227.294250001,
      "d": 227.27275000000373,
      "v": 100
    },
    {
      "midi": 62,
      "hit": false,
      "t": 215454.567000001,
      "d": 227.27275000000373,
      "v": 100
    },
    {
      "midi": 59,
      "hit": false,
      "t": 215681.839750001,
      "d": 227.27275000000373,
      "v": 100
    },
    {
      "midi": 55,
      "hit": false,
      "t": 215909.112500001,
      "d": 227.27275000000373,
      "v": 100
    },
    {
      "midi": 52,
      "hit": false,
      "t": 216136.385250001,
      "d": 227.27275000000373,
      "v": 100
    },
    {
      "midi": 79,
      "hit": false,
      "t": 216363.6580000003,
      "d": 454.54550000000745,
      "v": 100
    },
    {
      "midi": 62,
      "hit": false,
      "t": 216363.658000001,
      "d": 227.27275000000373,
      "v": 100
    },
    {
      "midi": 59,
      "hit": false,
      "t": 216590.93075000102,
      "d": 227.27275000000373,
      "v": 100
    },
    {
      "midi": 81,
      "hit": false,
      "t": 216818.2035000003,
      "d": 454.54550000000745,
      "v": 100
    },
    {
      "midi": 55,
      "hit": false,
      "t": 216818.20350000102,
      "d": 227.27275000000373,
      "v": 100
    },
    {
      "midi": 52,
      "hit": false,
      "t": 217045.47625000103,
      "d": 227.27275000000373,
      "v": 100
    },
    {
      "midi": 83,
      "hit": false,
      "t": 217272.7490000003,
      "d": 454.54550000000745,
      "v": 100
    },
    {
      "midi": 62,
      "hit": false,
      "t": 217272.74900000103,
      "d": 227.27275000000373,
      "v": 100
    },
    {
      "midi": 59,
      "hit": false,
      "t": 217500.02175000103,
      "d": 227.27275000000373,
      "v": 100
    },
    {
      "midi": 84,
      "hit": false,
      "t": 217727.2945000003,
      "d": 454.54550000000745,
      "v": 100
    },
    {
      "midi": 55,
      "hit": false,
      "t": 217727.29450000104,
      "d": 227.27275000000373,
      "v": 100
    },
    {
      "midi": 52,
      "hit": false,
      "t": 217954.56725000104,
      "d": 227.27275000000373,
      "v": 100
    },
    {
      "midi": 81,
      "hit": false,
      "t": 218181.84000000032,
      "d": 227.27275000000373,
      "v": 100
    },
    {
      "midi": 86,
      "hit": false,
      "t": 218181.84000000032,
      "d": 909.0910000000149,
      "v": 100
    },
    {
      "midi": 83,
      "hit": false,
      "t": 218181.84000000032,
      "d": 909.0910000000149,
      "v": 100
    },
    {
      "midi": 52,
      "hit": false,
      "t": 218181.84000000104,
      "d": 7272.728000000003,
      "v": 100
    },
    {
      "midi": 40,
      "hit": false,
      "t": 218181.84000000104,
      "d": 7272.728000000003,
      "v": 100
    },
    {
      "midi": 79,
      "hit": false,
      "t": 218409.11275000032,
      "d": 227.27275000000373,
      "v": 100
    },
    {
      "midi": 76,
      "hit": false,
      "t": 218636.38550000032,
      "d": 227.27275000000373,
      "v": 100
    },
    {
      "midi": 74,
      "hit": false,
      "t": 218863.65825000033,
      "d": 227.27275000000373,
      "v": 100
    },
    {
      "midi": 79,
      "hit": false,
      "t": 219090.93100000033,
      "d": 227.27275000000373,
      "v": 100
    },
    {
      "midi": 83,
      "hit": false,
      "t": 219090.93100000033,
      "d": 909.0910000000149,
      "v": 100
    },
    {
      "midi": 76,
      "hit": false,
      "t": 219318.20375000034,
      "d": 227.27275000000373,
      "v": 100
    },
    {
      "midi": 74,
      "hit": false,
      "t": 219545.47650000034,
      "d": 227.27275000000373,
      "v": 100
    },
    {
      "midi": 71,
      "hit": false,
      "t": 219772.74925000034,
      "d": 227.27275000000373,
      "v": 100
    },
    {
      "midi": 74,
      "hit": false,
      "t": 220000.02200000035,
      "d": 227.27275000000373,
      "v": 100
    },
    {
      "midi": 79,
      "hit": false,
      "t": 220000.02200000035,
      "d": 909.0910000000149,
      "v": 100
    },
    {
      "midi": 71,
      "hit": false,
      "t": 220227.29475000035,
      "d": 227.27275000000373,
      "v": 100
    },
    {
      "midi": 67,
      "hit": false,
      "t": 220454.56750000035,
      "d": 227.27275000000373,
      "v": 100
    },
    {
      "midi": 64,
      "hit": false,
      "t": 220681.84025000036,
      "d": 227.27275000000373,
      "v": 100
    },
    {
      "midi": 74,
      "hit": false,
      "t": 220909.11300000036,
      "d": 4545.454999999987,
      "v": 100
    },
    {
      "midi": 71,
      "hit": false,
      "t": 220909.11300000036,
      "d": 4545.454999999987,
      "v": 100
    }
  ]
}