{
  "jsonPath": "Country/Arkansas Country/Narvel Felts/since-i-dont-have-you-studio.json",
  "path": "Country\\Arkansas Country\\Narvel Felts\\Since I Dont Have You (Studio).mid",
  "name": "Since I Dont Have You (Studio)",
  "difficulty": "Advanced",
  "bpm": 98.00174443105087,
  "notes": [
    {
      "midi": 57,
      "hit": false,
      "t": 5510.106,
      "d": 902.4074062500003,
      "v": 95
    },
    {
      "midi": 62,
      "hit": false,
      "t": 5510.106,
      "d": 904.0017656250002,
      "v": 116
    },
    {
      "midi": 59,
      "hit": false,
      "t": 5510.106,
      "d": 908.7848437500006,
      "v": 111
    },
    {
      "midi": 43,
      "hit": false,
      "t": 5510.106,
      "d": 3424.683937500002,
      "v": 101
    },
    {
      "midi": 67,
      "hit": false,
      "t": 6428.457,
      "d": 301.33392187499976,
      "v": 98
    },
    {
      "midi": 71,
      "hit": false,
      "t": 6428.457,
      "d": 306.1170000000002,
      "v": 109
    },
    {
      "midi": 69,
      "hit": false,
      "t": 6734.5740000000005,
      "d": 226.39903125,
      "v": 98
    },
    {
      "midi": 72,
      "hit": false,
      "t": 6734.5740000000005,
      "d": 247.12570312499975,
      "v": 75
    },
    {
      "midi": 74,
      "hit": false,
      "t": 7040.691000000001,
      "d": 229.5877499999997,
      "v": 101
    },
    {
      "midi": 71,
      "hit": false,
      "t": 7040.691000000001,
      "d": 243.93698437500007,
      "v": 111
    },
    {
      "midi": 71,
      "hit": false,
      "t": 7346.808000000001,
      "d": 542.0821875000001,
      "v": 111
    },
    {
      "midi": 74,
      "hit": false,
      "t": 7346.808000000001,
      "d": 546.8652656250006,
      "v": 106
    },
    {
      "midi": 69,
      "hit": false,
      "t": 7959.042000000001,
      "d": 575.5637343750004,
      "v": 103
    },
    {
      "midi": 72,
      "hit": false,
      "t": 7959.042000000001,
      "d": 586.7242500000011,
      "v": 81
    },
    {
      "midi": 67,
      "hit": false,
      "t": 8571.276000000002,
      "d": 581.9411718749998,
      "v": 92
    },
    {
      "midi": 71,
      "hit": false,
      "t": 8571.276000000002,
      "d": 581.9411718749998,
      "v": 89
    },
    {
      "midi": 60,
      "hit": false,
      "t": 9183.510000000002,
      "d": 1742.6347968749997,
      "v": 86
    },
    {
      "midi": 69,
      "hit": false,
      "t": 9183.510000000002,
      "d": 1749.012234374999,
      "v": 78
    },
    {
      "midi": 63,
      "hit": false,
      "t": 9183.510000000002,
      "d": 1750.6065937499989,
      "v": 79
    },
    {
      "midi": 48,
      "hit": false,
      "t": 9183.510000000002,
      "d": 1768.144546874999,
      "v": 95
    },
    {
      "midi": 67,
      "hit": false,
      "t": 9183.510000000002,
      "d": 1768.144546874999,
      "v": 75
    },
    {
      "midi": 62,
      "hit": false,
      "t": 11020.212000000001,
      "d": 768.4812187499992,
      "v": 106
    },
    {
      "midi": 59,
      "hit": false,
      "t": 11020.212000000001,
      "d": 770.0755781249991,
      "v": 106
    },
    {
      "midi": 66,
      "hit": false,
      "t": 11020.212000000001,
      "d": 811.5289218749986,
      "v": 74
    },
    {
      "midi": 50,
      "hit": false,
      "t": 11020.212000000001,
      "d": 899.2186874999989,
      "v": 109
    },
    {
      "midi": 48,
      "hit": false,
      "t": 11938.563,
      "d": 773.2642968750006,
      "v": 89
    },
    {
      "midi": 57,
      "hit": false,
      "t": 11938.563,
      "d": 792.3966093750005,
      "v": 103
    },
    {
      "midi": 60,
      "hit": false,
      "t": 11938.563,
      "d": 793.9909687500003,
      "v": 109
    },
    {
      "midi": 64,
      "hit": false,
      "t": 11938.563,
      "d": 814.7176406250001,
      "v": 106
    },
    {
      "midi": 57,
      "hit": false,
      "t": 12856.914,
      "d": 2444.1529218749984,
      "v": 95
    },
    {
      "midi": 59,
      "hit": false,
      "t": 12856.914,
      "d": 2584.456546874997,
      "v": 111
    },
    {
      "midi": 62,
      "hit": false,
      "t": 12856.914,
      "d": 2890.573546874997,
      "v": 116
    },
    {
      "midi": 43,
      "hit": false,
      "t": 12856.914,
      "d": 3424.6839374999963,
      "v": 101
    },
    {
      "midi": 67,
      "hit": false,
      "t": 13775.265000000001,
      "d": 272.6354531249999,
      "v": 98
    },
    {
      "midi": 71,
      "hit": false,
      "t": 13775.265000000001,
      "d": 277.41853124999943,
      "v": 109
    },
    {
      "midi": 69,
      "hit": false,
      "t": 14081.382000000001,
      "d": 226.3990312499991,
      "v": 98
    },
    {
      "midi": 72,
      "hit": false,
      "t": 14081.382000000001,
      "d": 247.12570312499884,
      "v": 75
    },
    {
      "midi": 74,
      "hit": false,
      "t": 14387.499,
      "d": 229.5877500000006,
      "v": 101
    },
    {
      "midi": 71,
      "hit": false,
      "t": 14387.499,
      "d": 243.93698437500097,
      "v": 111
    },
    {
      "midi": 71,
      "hit": false,
      "t": 14693.616,
      "d": 542.0821875000001,
      "v": 111
    },
    {
      "midi": 74,
      "hit": false,
      "t": 14693.616,
      "d": 546.8652656249997,
      "v": 106
    },
    {
      "midi": 69,
      "hit": false,
      "t": 15305.849999999999,
      "d": 575.5637343749986,
      "v": 103
    },
    {
      "midi": 72,
      "hit": false,
      "t": 15305.849999999999,
      "d": 586.7242499999993,
      "v": 81
    },
    {
      "midi": 67,
      "hit": false,
      "t": 15918.083999999997,
      "d": 581.9411718749998,
      "v": 92
    },
    {
      "midi": 71,
      "hit": false,
      "t": 15918.083999999997,
      "d": 581.9411718749998,
      "v": 89
    },
    {
      "midi": 41,
      "hit": false,
      "t": 16530.317999999996,
      "d": 2660.9857968749893,
      "v": 95
    },
    {
      "midi": 79,
      "hit": false,
      "t": 16530.317999999996,
      "d": 2731.1376093749896,
      "v": 89
    },
    {
      "midi": 75,
      "hit": false,
      "t": 16836.434999999994,
      "d": 2439.3698437499916,
      "v": 74
    },
    {
      "midi": 72,
      "hit": false,
      "t": 17142.551999999992,
      "d": 2133.252843749993,
      "v": 75
    },
    {
      "midi": 69,
      "hit": false,
      "t": 17448.66899999999,
      "d": 1822.3527656249935,
      "v": 78
    },
    {
      "midi": 67,
      "hit": false,
      "t": 17754.78599999999,
      "d": 1506.669609374996,
      "v": 68
    },
    {
      "midi": 63,
      "hit": false,
      "t": 18060.902999999988,
      "d": 1181.420296874996,
      "v": 62
    },
    {
      "midi": 60,
      "hit": false,
      "t": 18367.019999999986,
      "d": 868.9258593749983,
      "v": 83
    },
    {
      "midi": 58,
      "hit": false,
      "t": 19285.370999999985,
      "d": 782.8304531249996,
      "v": 89
    },
    {
      "midi": 60,
      "hit": false,
      "t": 19285.370999999985,
      "d": 803.5571249999994,
      "v": 101
    },
    {
      "midi": 63,
      "hit": false,
      "t": 19285.370999999985,
      "d": 835.4443124999998,
      "v": 91
    },
    {
      "midi": 42,
      "hit": false,
      "t": 19285.370999999985,
      "d": 856.1709843749995,
      "v": 94
    },
    {
      "midi": 43,
      "hit": false,
      "t": 20203.721999999983,
      "d": 3424.683937500002,
      "v": 101
    },
    {
      "midi": 55,
      "hit": false,
      "t": 20203.721999999983,
      "d": 3553.8270468750015,
      "v": 111
    },
    {
      "midi": 62,
      "hit": false,
      "t": 20203.721999999983,
      "d": 3611.223984375003,
      "v": 116
    },
    {
      "midi": 57,
      "hit": false,
      "t": 20203.721999999983,
      "d": 3630.356296875005,
      "v": 95
    },
    {
      "midi": 74,
      "hit": false,
      "t": 21724.740843749983,
      "d": 2118.9036093750037,
      "v": 86
    },
    {
      "midi": 71,
      "hit": false,
      "t": 22046.801437499984,
      "d": 1798.437375000005,
      "v": 83
    },
    {
      "midi": 60,
      "hit": false,
      "t": 23877.12599999999,
      "d": 1742.6347968750015,
      "v": 94
    },
    {
      "midi": 63,
      "hit": false,
      "t": 23877.12599999999,
      "d": 1750.6065937500025,
      "v": 94
    },
    {
      "midi": 48,
      "hit": false,
      "t": 23877.12599999999,
      "d": 1768.1445468750026,
      "v": 94
    },
    {
      "midi": 67,
      "hit": false,
      "t": 23877.12599999999,
      "d": 1768.1445468750026,
      "v": 94
    },
    {
      "midi": 57,
      "hit": false,
      "t": 23896.25831249999,
      "d": 1749.0122343750008,
      "v": 94
    },
    {
      "midi": 62,
      "hit": false,
      "t": 25713.82799999999,
      "d": 768.4812187499992,
      "v": 106
    },
    {
      "midi": 59,
      "hit": false,
      "t": 25713.82799999999,
      "d": 770.0755781250009,
      "v": 106
    },
    {
      "midi": 66,
      "hit": false,
      "t": 25713.82799999999,
      "d": 811.5289218750004,
      "v": 97
    },
    {
      "midi": 50,
      "hit": false,
      "t": 25713.82799999999,
      "d": 894.4356093749993,
      "v": 109
    },
    {
      "midi": 57,
      "hit": false,
      "t": 26632.17899999999,
      "d": 792.3966093750023,
      "v": 103
    },
    {
      "midi": 60,
      "hit": false,
      "t": 26632.17899999999,
      "d": 793.990968750004,
      "v": 109
    },
    {
      "midi": 64,
      "hit": false,
      "t": 26632.17899999999,
      "d": 814.7176406250037,
      "v": 106
    },
    {
      "midi": 50,
      "hit": false,
      "t": 26651.31131249999,
      "d": 773.2642968750006,
      "v": 89
    },
    {
      "midi": 43,
      "hit": false,
      "t": 27550.52999999999,
      "d": 3424.6839374999945,
      "v": 101
    },
    {
      "midi": 55,
      "hit": false,
      "t": 27550.52999999999,
      "d": 3553.8270468749943,
      "v": 111
    },
    {
      "midi": 62,
      "hit": false,
      "t": 27550.52999999999,
      "d": 3611.223984374996,
      "v": 116
    },
    {
      "midi": 57,
      "hit": false,
      "t": 27550.52999999999,
      "d": 3630.356296874994,
      "v": 95
    },
    {
      "midi": 74,
      "hit": false,
      "t": 28468.88099999999,
      "d": 2611.560656249996,
      "v": 75
    },
    {
      "midi": 86,
      "hit": false,
      "t": 28774.99799999999,
      "d": 2393.133421874998,
      "v": 86
    },
    {
      "midi": 83,
      "hit": false,
      "t": 29081.114999999987,
      "d": 2112.526171874997,
      "v": 68
    },
    {
      "midi": 79,
      "hit": false,
      "t": 29387.231999999985,
      "d": 1749.0122343750008,
      "v": 57
    },
    {
      "midi": 60,
      "hit": false,
      "t": 31223.933999999983,
      "d": 1742.6347968750015,
      "v": 94
    },
    {
      "midi": 57,
      "hit": false,
      "t": 31223.933999999983,
      "d": 1749.0122343750008,
      "v": 94
    },
    {
      "midi": 63,
      "hit": false,
      "t": 31223.933999999983,
      "d": 1750.6065937499989,
      "v": 94
    },
    {
      "midi": 48,
      "hit": false,
      "t": 31223.933999999983,
      "d": 1768.144546874999,
      "v": 94
    },
    {
      "midi": 67,
      "hit": false,
      "t": 31223.933999999983,
      "d": 1768.144546874999,
      "v": 94
    },
    {
      "midi": 62,
      "hit": false,
      "t": 33060.635999999984,
      "d": 768.4812187499992,
      "v": 106
    },
    {
      "midi": 59,
      "hit": false,
      "t": 33060.635999999984,
      "d": 770.0755781249973,
      "v": 106
    },
    {
      "midi": 66,
      "hit": false,
      "t": 33060.635999999984,
      "d": 811.5289218749967,
      "v": 97
    },
    {
      "midi": 50,
      "hit": false,
      "t": 33060.635999999984,
      "d": 851.3879062499982,
      "v": 109
    },
    {
      "midi": 50,
      "hit": false,
      "t": 33978.98699999998,
      "d": 773.2642968750006,
      "v": 89
    },
    {
      "midi": 57,
      "hit": false,
      "t": 33978.98699999998,
      "d": 792.3966093749987,
      "v": 103
    },
    {
      "midi": 60,
      "hit": false,
      "t": 33978.98699999998,
      "d": 793.9909687499967,
      "v": 109
    },
    {
      "midi": 64,
      "hit": false,
      "t": 33978.98699999998,
      "d": 814.7176406250001,
      "v": 106
    },
    {
      "midi": 43,
      "hit": false,
      "t": 34897.33799999998,
      "d": 2747.081203124995,
      "v": 98
    },
    {
      "midi": 79,
      "hit": false,
      "t": 34897.33799999998,
      "d": 3521.939859374994,
      "v": 95
    },
    {
      "midi": 74,
      "hit": false,
      "t": 35203.45499999998,
      "d": 3244.521328124996,
      "v": 83
    },
    {
      "midi": 76,
      "hit": false,
      "t": 35509.57199999998,
      "d": 2959.131000000001,
      "v": 83
    },
    {
      "midi": 71,
      "hit": false,
      "t": 35815.68899999998,
      "d": 2630.6929687500015,
      "v": 81
    },
    {
      "midi": 47,
      "hit": false,
      "t": 37652.390999999974,
      "d": 789.2078906250026,
      "v": 98
    },
    {
      "midi": 63,
      "hit": false,
      "t": 38570.74199999998,
      "d": 2983.0463906250006,
      "v": 102
    },
    {
      "midi": 48,
      "hit": false,
      "t": 38570.74199999998,
      "d": 3043.632046874998,
      "v": 101
    },
    {
      "midi": 67,
      "hit": false,
      "t": 38570.74199999998,
      "d": 3558.6101250000065,
      "v": 89
    },
    {
      "midi": 60,
      "hit": false,
      "t": 38570.74199999998,
      "d": 3585.7142343750093,
      "v": 101
    },
    {
      "midi": 81,
      "hit": false,
      "t": 39795.20999999998,
      "d": 2138.035921875002,
      "v": 89
    },
    {
      "midi": 79,
      "hit": false,
      "t": 40101.326999999976,
      "d": 1511.452687500001,
      "v": 64
    },
    {
      "midi": 75,
      "hit": false,
      "t": 40407.443999999974,
      "d": 1200.5526093750013,
      "v": 74
    },
    {
      "midi": 47,
      "hit": false,
      "t": 41631.911999999975,
      "d": 274.2298125000016,
      "v": 92
    },
    {
      "midi": 62,
      "hit": false,
      "t": 41631.911999999975,
      "d": 310.900078125007,
      "v": 98
    },
    {
      "midi": 46,
      "hit": false,
      "t": 41938.02899999998,
      "d": 291.7677656250089,
      "v": 74
    },
    {
      "midi": 63,
      "hit": false,
      "t": 41938.02899999998,
      "d": 291.7677656250089,
      "v": 98
    },
    {
      "midi": 60,
      "hit": false,
      "t": 42244.145999999986,
      "d": 310.9000781249997,
      "v": 98
    },
    {
      "midi": 64,
      "hit": false,
      "t": 42244.145999999986,
      "d": 1127.2120781249978,
      "v": 95
    },
    {
      "midi": 45,
      "hit": false,
      "t": 42244.145999999986,
      "d": 3596.8747500000027,
      "v": 98
    },
    {
      "midi": 57,
      "hit": false,
      "t": 42550.262999999984,
      "d": 2600.40014062501,
      "v": 89
    },
    {
      "midi": 60,
      "hit": false,
      "t": 42856.37999999998,
      "d": 1709.1532500000103,
      "v": 92
    },
    {
      "midi": 67,
      "hit": false,
      "t": 43162.49699999998,
      "d": 819.5007187500087,
      "v": 95
    },
    {
      "midi": 64,
      "hit": false,
      "t": 43468.61399999999,
      "d": 2404.2939374999987,
      "v": 73
    },
    {
      "midi": 67,
      "hit": false,
      "t": 44080.84799999999,
      "d": 1790.4655781249967,
      "v": 66
    },
    {
      "midi": 60,
      "hit": false,
      "t": 44693.081999999995,
      "d": 1170.2597812499953,
      "v": 95
    },
    {
      "midi": 57,
      "hit": false,
      "t": 45305.31599999999,
      "d": 572.3750156249953,
      "v": 73
    },
    {
      "midi": 50,
      "hit": false,
      "t": 45917.54999999999,
      "d": 344.3816250000018,
      "v": 106
    },
    {
      "midi": 57,
      "hit": false,
      "t": 45917.54999999999,
      "d": 389.0236875000046,
      "v": 95
    },
    {
      "midi": 62,
      "hit": false,
      "t": 45917.54999999999,
      "d": 787.6135312500046,
      "v": 111
    },
    {
      "midi": 66,
      "hit": false,
      "t": 45917.54999999999,
      "d": 805.1514843750047,
      "v": 77
    },
    {
      "midi": 57,
      "hit": false,
      "t": 46529.78399999999,
      "d": 169.00209375000122,
      "v": 68
    },
    {
      "midi": 50,
      "hit": false,
      "t": 46529.78399999999,
      "d": 341.1929062499985,
      "v": 106
    },
    {
      "midi": 57,
      "hit": false,
      "t": 46835.90099999999,
      "d": 245.53134375000081,
      "v": 92
    },
    {
      "midi": 48,
      "hit": false,
      "t": 46835.90099999999,
      "d": 443.2319062500028,
      "v": 86
    },
    {
      "midi": 66,
      "hit": false,
      "t": 46835.90099999999,
      "d": 463.95857812500617,
      "v": 68
    },
    {
      "midi": 62,
      "hit": false,
      "t": 46835.90099999999,
      "d": 467.1472968750095,
      "v": 95
    },
    {
      "midi": 62,
      "hit": false,
      "t": 47448.135,
      "d": 170.59645312499924,
      "v": 92
    },
    {
      "midi": 48,
      "hit": false,
      "t": 47448.135,
      "d": 315.68315625000105,
      "v": 78
    },
    {
      "midi": 57,
      "hit": false,
      "t": 47448.135,
      "d": 487.8739687499983,
      "v": 73
    },
    {
      "midi": 66,
      "hit": false,
      "t": 47448.135,
      "d": 2109.3374531250083,
      "v": 66
    },
    {
      "midi": 47,
      "hit": false,
      "t": 47754.252,
      "d": 406.5616406249974,
      "v": 81
    },
    {
      "midi": 60,
      "hit": false,
      "t": 47754.252,
      "d": 1817.569687500014,
      "v": 103
    },
    {
      "midi": 47,
      "hit": false,
      "t": 48366.486,
      "d": 339.59854687500047,
      "v": 92
    },
    {
      "midi": 57,
      "hit": false,
      "t": 48366.486,
      "d": 1195.7695312500146,
      "v": 92
    },
    {
      "midi": 45,
      "hit": false,
      "t": 48672.602999999996,
      "d": 302.9282812500023,
      "v": 83
    },
    {
      "midi": 50,
      "hit": false,
      "t": 48978.72,
      "d": 256.6918593750015,
      "v": 68
    },
    {
      "midi": 69,
      "hit": false,
      "t": 48978.72,
      "d": 301.3339218750043,
      "v": 92
    },
    {
      "midi": 45,
      "hit": false,
      "t": 49284.83700000001,
      "d": 242.3426249999975,
      "v": 86
    },
    {
      "midi": 70,
      "hit": false,
      "t": 49284.83700000001,
      "d": 263.0692968750009,
      "v": 82
    },
    {
      "midi": 43,
      "hit": false,
      "t": 49590.95400000001,
      "d": 3424.683937499998,
      "v": 101
    },
    {
      "midi": 55,
      "hit": false,
      "t": 49590.95400000001,
      "d": 3553.827046874998,
      "v": 111
    },
    {
      "midi": 62,
      "hit": false,
      "t": 49590.95400000001,
      "d": 3611.2239843749994,
      "v": 116
    },
    {
      "midi": 57,
      "hit": false,
      "t": 49590.95400000001,
      "d": 3630.3562968749975,
      "v": 95
    },
    {
      "midi": 74,
      "hit": false,
      "t": 51111.97284375001,
      "d": 2118.9036093750037,
      "v": 86
    },
    {
      "midi": 71,
      "hit": false,
      "t": 51434.03343750001,
      "d": 1803.2204531250027,
      "v": 83
    },
    {
      "midi": 60,
      "hit": false,
      "t": 53264.358000000015,
      "d": 1742.6347968749978,
      "v": 94
    },
    {
      "midi": 63,
      "hit": false,
      "t": 53264.358000000015,
      "d": 1750.6065937499952,
      "v": 94
    },
    {
      "midi": 48,
      "hit": false,
      "t": 53264.358000000015,
      "d": 1768.1445468749953,
      "v": 94
    },
    {
      "midi": 67,
      "hit": false,
      "t": 53264.358000000015,
      "d": 1768.1445468749953,
      "v": 94
    },
    {
      "midi": 57,
      "hit": false,
      "t": 53283.49031250001,
      "d": 1749.0122343749972,
      "v": 94
    },
    {
      "midi": 62,
      "hit": false,
      "t": 55101.06000000001,
      "d": 768.4812187499992,
      "v": 106
    },
    {
      "midi": 59,
      "hit": false,
      "t": 55101.06000000001,
      "d": 770.0755781249973,
      "v": 106
    },
    {
      "midi": 66,
      "hit": false,
      "t": 55101.06000000001,
      "d": 811.5289218749967,
      "v": 97
    },
    {
      "midi": 50,
      "hit": false,
      "t": 55101.06000000001,
      "d": 880.086374999999,
      "v": 109
    },
    {
      "midi": 57,
      "hit": false,
      "t": 56019.411000000015,
      "d": 792.3966093749987,
      "v": 103
    },
    {
      "midi": 60,
      "hit": false,
      "t": 56019.411000000015,
      "d": 793.9909687499967,
      "v": 109
    },
    {
      "midi": 64,
      "hit": false,
      "t": 56019.411000000015,
      "d": 814.7176406250001,
      "v": 106
    },
    {
      "midi": 50,
      "hit": false,
      "t": 56038.54331250001,
      "d": 773.2642968750006,
      "v": 89
    },
    {
      "midi": 43,
      "hit": false,
      "t": 56937.76200000002,
      "d": 3424.683937499998,
      "v": 101
    },
    {
      "midi": 55,
      "hit": false,
      "t": 56937.76200000002,
      "d": 3553.827046874998,
      "v": 111
    },
    {
      "midi": 57,
      "hit": false,
      "t": 56937.76200000002,
      "d": 3592.091671874994,
      "v": 95
    },
    {
      "midi": 62,
      "hit": false,
      "t": 56937.76200000002,
      "d": 3611.223984374992,
      "v": 116
    },
    {
      "midi": 74,
      "hit": false,
      "t": 57856.11300000002,
      "d": 2611.560656249996,
      "v": 75
    },
    {
      "midi": 86,
      "hit": false,
      "t": 58162.23000000002,
      "d": 2393.1334218749907,
      "v": 86
    },
    {
      "midi": 83,
      "hit": false,
      "t": 58468.347000000016,
      "d": 2056.7235937499936,
      "v": 68
    },
    {
      "midi": 79,
      "hit": false,
      "t": 58774.464000000014,
      "d": 1749.0122343749972,
      "v": 57
    },
    {
      "midi": 60,
      "hit": false,
      "t": 60611.16600000001,
      "d": 1742.6347968749978,
      "v": 94
    },
    {
      "midi": 57,
      "hit": false,
      "t": 60611.16600000001,
      "d": 1749.0122343749972,
      "v": 94
    },
    {
      "midi": 63,
      "hit": false,
      "t": 60611.16600000001,
      "d": 1750.6065937499952,
      "v": 94
    },
    {
      "midi": 48,
      "hit": false,
      "t": 60611.16600000001,
      "d": 1768.1445468749953,
      "v": 94
    },
    {
      "midi": 67,
      "hit": false,
      "t": 60611.16600000001,
      "d": 1768.1445468749953,
      "v": 94
    },
    {
      "midi": 62,
      "hit": false,
      "t": 62447.86800000001,
      "d": 768.4812187499992,
      "v": 106
    },
    {
      "midi": 59,
      "hit": false,
      "t": 62447.86800000001,
      "d": 770.0755781249973,
      "v": 106
    },
    {
      "midi": 66,
      "hit": false,
      "t": 62447.86800000001,
      "d": 811.5289218749967,
      "v": 97
    },
    {
      "midi": 50,
      "hit": false,
      "t": 62447.86800000001,
      "d": 856.1709843749995,
      "v": 109
    },
    {
      "midi": 50,
      "hit": false,
      "t": 63366.21900000001,
      "d": 773.2642968750006,
      "v": 89
    },
    {
      "midi": 57,
      "hit": false,
      "t": 63366.21900000001,
      "d": 792.3966093749987,
      "v": 103
    },
    {
      "midi": 60,
      "hit": false,
      "t": 63366.21900000001,
      "d": 793.9909687499967,
      "v": 109
    },
    {
      "midi": 64,
      "hit": false,
      "t": 63366.21900000001,
      "d": 814.7176406250001,
      "v": 106
    },
    {
      "midi": 43,
      "hit": false,
      "t": 64284.570000000014,
      "d": 2716.7883749999964,
      "v": 98
    },
    {
      "midi": 79,
      "hit": false,
      "t": 64284.570000000014,
      "d": 3521.9398593749866,
      "v": 95
    },
    {
      "midi": 74,
      "hit": false,
      "t": 64590.68700000001,
      "d": 3244.5213281249817,
      "v": 83
    },
    {
      "midi": 76,
      "hit": false,
      "t": 64896.80400000001,
      "d": 2959.1309999999867,
      "v": 83
    },
    {
      "midi": 71,
      "hit": false,
      "t": 65202.92100000001,
      "d": 2630.692968749987,
      "v": 81
    },
    {
      "midi": 47,
      "hit": false,
      "t": 67039.623,
      "d": 789.2078906249953,
      "v": 98
    },
    {
      "midi": 63,
      "hit": false,
      "t": 67957.974,
      "d": 2983.0463906249934,
      "v": 102
    },
    {
      "midi": 48,
      "hit": false,
      "t": 67957.974,
      "d": 3043.632046874991,
      "v": 101
    },
    {
      "midi": 60,
      "hit": false,
      "t": 67957.974,
      "d": 3585.7142343749874,
      "v": 101
    },
    {
      "midi": 67,
      "hit": false,
      "t": 67957.974,
      "d": 3619.1957812499895,
      "v": 89
    },
    {
      "midi": 81,
      "hit": false,
      "t": 69182.442,
      "d": 2160.356953124996,
      "v": 89
    },
    {
      "midi": 79,
      "hit": false,
      "t": 69488.559,
      "d": 1874.966625000001,
      "v": 64
    },
    {
      "midi": 75,
      "hit": false,
      "t": 69794.67599999999,
      "d": 1363.177265624996,
      "v": 74
    },
    {
      "midi": 47,
      "hit": false,
      "t": 71019.14399999999,
      "d": 274.22981250000885,
      "v": 92
    },
    {
      "midi": 62,
      "hit": false,
      "t": 71019.14399999999,
      "d": 310.900078125007,
      "v": 98
    },
    {
      "midi": 46,
      "hit": false,
      "t": 71325.261,
      "d": 291.7677656249871,
      "v": 74
    },
    {
      "midi": 63,
      "hit": false,
      "t": 71325.261,
      "d": 291.7677656249871,
      "v": 98
    },
    {
      "midi": 60,
      "hit": false,
      "t": 71631.37799999998,
      "d": 310.90007812499243,
      "v": 98
    },
    {
      "midi": 64,
      "hit": false,
      "t": 71631.37799999998,
      "d": 1127.2120781249978,
      "v": 95
    },
    {
      "midi": 45,
      "hit": false,
      "t": 71631.37799999998,
      "d": 1831.9189218749962,
      "v": 98
    },
    {
      "midi": 57,
      "hit": false,
      "t": 71937.49499999998,
      "d": 1492.3203749999957,
      "v": 89
    },
    {
      "midi": 60,
      "hit": false,
      "t": 72243.61199999998,
      "d": 1066.6264218750002,
      "v": 92
    },
    {
      "midi": 67,
      "hit": false,
      "t": 72549.72899999998,
      "d": 819.5007187500014,
      "v": 95
    },
    {
      "midi": 64,
      "hit": false,
      "t": 72855.84599999998,
      "d": 564.4032187499979,
      "v": 73
    },
    {
      "midi": 57,
      "hit": false,
      "t": 73468.07999999997,
      "d": 470.33601562499825,
      "v": 95
    },
    {
      "midi": 62,
      "hit": false,
      "t": 73468.07999999997,
      "d": 722.2447968749912,
      "v": 111
    },
    {
      "midi": 66,
      "hit": false,
      "t": 73468.07999999997,
      "d": 940.6720312499965,
      "v": 79
    },
    {
      "midi": 50,
      "hit": false,
      "t": 73468.07999999997,
      "d": 1803.2204531250027,
      "v": 111
    },
    {
      "midi": 57,
      "hit": false,
      "t": 74080.31399999997,
      "d": 1163.882343749996,
      "v": 92
    },
    {
      "midi": 62,
      "hit": false,
      "t": 74386.43099999997,
      "d": 470.33601562499825,
      "v": 109
    },
    {
      "midi": 66,
      "hit": false,
      "t": 74692.54799999997,
      "d": 569.1862968750065,
      "v": 77
    },
    {
      "midi": 62,
      "hit": false,
      "t": 74998.66499999996,
      "d": 256.6918593750015,
      "v": 98
    },
    {
      "midi": 43,
      "hit": false,
      "t": 75304.78199999998,
      "d": 3582.5255156249914,
      "v": 98
    },
    {
      "midi": 62,
      "hit": false,
      "t": 75610.89899999998,
      "d": 1308.9690468749905,
      "v": 89
    },
    {
      "midi": 67,
      "hit": false,
      "t": 75917.01599999997,
      "d": 833.8499531249981,
      "v": 83
    },
    {
      "midi": 69,
      "hit": false,
      "t": 76223.13299999997,
      "d": 325.2493125000037,
      "v": 89
    },
    {
      "midi": 74,
      "hit": false,
      "t": 76529.24999999997,
      "d": 872.1145781249943,
      "v": 92
    },
    {
      "midi": 69,
      "hit": false,
      "t": 76835.36699999997,
      "d": 320.4662343749951,
      "v": 89
    },
    {
      "midi": 67,
      "hit": false,
      "t": 77141.48399999997,
      "d": 1559.2834687499999,
      "v": 89
    },
    {
      "midi": 69,
      "hit": false,
      "t": 77447.60099999997,
      "d": 1420.5742031249974,
      "v": 86
    },
    {
      "midi": 74,
      "hit": false,
      "t": 77753.71799999996,
      "d": 395.40112500000396,
      "v": 78
    },
    {
      "midi": 79,
      "hit": false,
      "t": 78059.83499999996,
      "d": 867.3315000000002,
      "v": 73
    },
    {
      "midi": 74,
      "hit": false,
      "t": 78365.95199999996,
      "d": 562.8088593749999,
      "v": 86
    },
    {
      "midi": 69,
      "hit": false,
      "t": 78978.18599999996,
      "d": 3010.1505000000034,
      "v": 86
    },
    {
      "midi": 67,
      "hit": false,
      "t": 78978.18599999996,
      "d": 3019.716656250006,
      "v": 83
    },
    {
      "midi": 72,
      "hit": false,
      "t": 78978.18599999996,
      "d": 3026.0940937500127,
      "v": 89
    },
    {
      "midi": 76,
      "hit": false,
      "t": 78978.18599999996,
      "d": 3026.0940937500127,
      "v": 92
    },
    {
      "midi": 45,
      "hit": false,
      "t": 78978.18599999996,
      "d": 3649.48860937501,
      "v": 106
    },
    {
      "midi": 66,
      "hit": false,
      "t": 82039.35599999997,
      "d": 301.3339218750043,
      "v": 88
    },
    {
      "midi": 71,
      "hit": false,
      "t": 82039.35599999997,
      "d": 301.3339218750043,
      "v": 95
    },
    {
      "midi": 67,
      "hit": false,
      "t": 82345.47299999997,
      "d": 272.6354531249963,
      "v": 98
    },
    {
      "midi": 72,
      "hit": false,
      "t": 82345.47299999997,
      "d": 272.6354531249963,
      "v": 106
    },
    {
      "midi": 55,
      "hit": false,
      "t": 82651.58999999997,
      "d": 943.8607499999925,
      "v": 109
    },
    {
      "midi": 66,
      "hit": false,
      "t": 82651.58999999997,
      "d": 1741.0404374999925,
      "v": 77
    },
    {
      "midi": 69,
      "hit": false,
      "t": 82651.58999999997,
      "d": 2096.582578124988,
      "v": 103
    },
    {
      "midi": 71,
      "hit": false,
      "t": 82651.58999999997,
      "d": 2466.4739531249943,
      "v": 95
    },
    {
      "midi": 74,
      "hit": false,
      "t": 82651.58999999997,
      "d": 2911.300218749995,
      "v": 103
    },
    {
      "midi": 43,
      "hit": false,
      "t": 83569.94099999996,
      "d": 318.8718749999971,
      "v": 92
    },
    {
      "midi": 55,
      "hit": false,
      "t": 83876.05799999996,
      "d": 1723.5024843749998,
      "v": 98
    },
    {
      "midi": 66,
      "hit": false,
      "t": 84488.29199999996,
      "d": 1149.5331093749992,
      "v": 82
    },
    {
      "midi": 54,
      "hit": false,
      "t": 85712.75999999995,
      "d": 301.3339218750043,
      "v": 106
    },
    {
      "midi": 69,
      "hit": false,
      "t": 85712.75999999995,
      "d": 559.6201406250038,
      "v": 83
    },
    {
      "midi": 74,
      "hit": false,
      "t": 85712.75999999995,
      "d": 569.1862968750065,
      "v": 73
    },
    {
      "midi": 71,
      "hit": false,
      "t": 85712.75999999995,
      "d": 580.3468125000072,
      "v": 75
    },
    {
      "midi": 66,
      "hit": false,
      "t": 85712.75999999995,
      "d": 589.9129687500099,
      "v": 37
    },
    {
      "midi": 55,
      "hit": false,
      "t": 86018.87699999995,
      "d": 301.3339218750043,
      "v": 106
    },
    {
      "midi": 60,
      "hit": false,
      "t": 86324.99399999995,
      "d": 1772.9276249999966,
      "v": 109
    },
    {
      "midi": 64,
      "hit": false,
      "t": 86324.99399999995,
      "d": 1774.5219843749946,
      "v": 109
    },
    {
      "midi": 69,
      "hit": false,
      "t": 86324.99399999995,
      "d": 1800.031734374992,
      "v": 89
    },
    {
      "midi": 67,
      "hit": false,
      "t": 86324.99399999995,
      "d": 1801.62609374999,
      "v": 89
    },
    {
      "midi": 45,
      "hit": false,
      "t": 86324.99399999995,
      "d": 1812.7866093749908,
      "v": 116
    },
    {
      "midi": 72,
      "hit": false,
      "t": 88161.69599999994,
      "d": 570.7806562500045,
      "v": 101
    },
    {
      "midi": 79,
      "hit": false,
      "t": 88161.69599999994,
      "d": 586.7242499999993,
      "v": 95
    },
    {
      "midi": 76,
      "hit": false,
      "t": 88161.69599999994,
      "d": 588.3186093749973,
      "v": 106
    },
    {
      "midi": 50,
      "hit": false,
      "t": 88161.69599999994,
      "d": 1200.552609374994,
      "v": 106
    },
    {
      "midi": 71,
      "hit": false,
      "t": 88773.92999999993,
      "d": 591.5073281249934,
      "v": 89
    },
    {
      "midi": 74,
      "hit": false,
      "t": 88773.92999999993,
      "d": 597.884765625,
      "v": 103
    },
    {
      "midi": 78,
      "hit": false,
      "t": 88773.92999999993,
      "d": 601.073484374996,
      "v": 91
    },
    {
      "midi": 45,
      "hit": false,
      "t": 89386.16399999993,
      "d": 310.90007812499243,
      "v": 103
    },
    {
      "midi": 69,
      "hit": false,
      "t": 89386.16399999993,
      "d": 588.3186093749973,
      "v": 89
    },
    {
      "midi": 76,
      "hit": false,
      "t": 89386.16399999993,
      "d": 593.1016874999914,
      "v": 98
    },
    {
      "midi": 72,
      "hit": false,
      "t": 89386.16399999993,
      "d": 597.8847656249854,
      "v": 95
    },
    {
      "midi": 50,
      "hit": false,
      "t": 89692.28099999993,
      "d": 293.3621249999851,
      "v": 98
    },
    {
      "midi": 62,
      "hit": false,
      "t": 89998.39799999991,
      "d": 695.1406874999957,
      "v": 106
    },
    {
      "midi": 66,
      "hit": false,
      "t": 89998.39799999991,
      "d": 868.9258593749983,
      "v": 70
    },
    {
      "midi": 71,
      "hit": false,
      "t": 89998.39799999991,
      "d": 1138.3725937499985,
      "v": 92
    },
    {
      "midi": 69,
      "hit": false,
      "t": 89998.39799999991,
      "d": 1205.3356875000027,
      "v": 101
    },
    {
      "midi": 43,
      "hit": false,
      "t": 89998.39799999991,
      "d": 3075.5192343750095,
      "v": 116
    },
    {
      "midi": 62,
      "hit": false,
      "t": 90916.74899999991,
      "d": 2026.4307656250166,
      "v": 109
    },
    {
      "midi": 66,
      "hit": false,
      "t": 91222.86599999992,
      "d": 1170.2597812500026,
      "v": 77
    },
    {
      "midi": 74,
      "hit": false,
      "t": 91528.98299999992,
      "d": 2075.8559062499844,
      "v": 106
    },
    {
      "midi": 71,
      "hit": false,
      "t": 91835.09999999992,
      "d": 1780.8994218749867,
      "v": 106
    },
    {
      "midi": 66,
      "hit": false,
      "t": 92447.33399999993,
      "d": 1135.1838749999733,
      "v": 59
    },
    {
      "midi": 42,
      "hit": false,
      "t": 93059.56799999993,
      "d": 301.33392187498976,
      "v": 98
    },
    {
      "midi": 62,
      "hit": false,
      "t": 93059.56799999993,
      "d": 570.78065624999,
      "v": 83
    },
    {
      "midi": 43,
      "hit": false,
      "t": 93365.68499999991,
      "d": 258.28621874999953,
      "v": 106
    },
    {
      "midi": 57,
      "hit": false,
      "t": 93671.80199999992,
      "d": 1768.1445468750026,
      "v": 111
    },
    {
      "midi": 64,
      "hit": false,
      "t": 93671.80199999992,
      "d": 1772.9276249999966,
      "v": 111
    },
    {
      "midi": 60,
      "hit": false,
      "t": 93671.80199999992,
      "d": 1779.3050625000033,
      "v": 116
    },
    {
      "midi": 45,
      "hit": false,
      "t": 93671.80199999992,
      "d": 1800.0317343750066,
      "v": 113
    },
    {
      "midi": 67,
      "hit": false,
      "t": 93671.80199999992,
      "d": 1819.164046875012,
      "v": 95
    },
    {
      "midi": 76,
      "hit": false,
      "t": 95508.50399999993,
      "d": 301.3339218750043,
      "v": 106
    },
    {
      "midi": 72,
      "hit": false,
      "t": 95508.50399999993,
      "d": 352.3534218749992,
      "v": 92
    },
    {
      "midi": 50,
      "hit": false,
      "t": 95508.50399999993,
      "d": 962.9930624999979,
      "v": 113
    },
    {
      "midi": 74,
      "hit": false,
      "t": 95814.62099999993,
      "d": 301.3339218750043,
      "v": 83
    },
    {
      "midi": 71,
      "hit": false,
      "t": 95814.62099999993,
      "d": 326.84367187500175,
      "v": 75
    },
    {
      "midi": 72,
      "hit": false,
      "t": 96120.73799999992,
      "d": 530.9216718749958,
      "v": 83
    },
    {
      "midi": 69,
      "hit": false,
      "t": 96120.73799999992,
      "d": 556.4314218749932,
      "v": 89
    },
    {
      "midi": 45,
      "hit": false,
      "t": 96426.85499999992,
      "d": 310.90007812499243,
      "v": 92
    },
    {
      "midi": 67,
      "hit": false,
      "t": 96732.97199999992,
      "d": 204.07799999999406,
      "v": 95
    },
    {
      "midi": 50,
      "hit": false,
      "t": 96732.97199999992,
      "d": 288.57904687499104,
      "v": 106
    },
    {
      "midi": 71,
      "hit": false,
      "t": 96732.97199999992,
      "d": 310.9000781249779,
      "v": 106
    },
    {
      "midi": 69,
      "hit": false,
      "t": 97039.0889999999,
      "d": 213.64415624999674,
      "v": 103
    },
    {
      "midi": 72,
      "hit": false,
      "t": 97039.0889999999,
      "d": 235.96518749999814,
      "v": 98
    },
    {
      "midi": 45,
      "hit": false,
      "t": 97039.0889999999,
      "d": 248.72006249999686,
      "v": 95
    },
    {
      "midi": 43,
      "hit": false,
      "t": 97345.2059999999,
      "d": 1203.7413281250047,
      "v": 113
    },
    {
      "midi": 71,
      "hit": false,
      "t": 97345.2059999999,
      "d": 1761.7671093750105,
      "v": 103
    },
    {
      "midi": 74,
      "hit": false,
      "t": 97345.2059999999,
      "d": 1768.144546875017,
      "v": 101
    },
    {
      "midi": 55,
      "hit": false,
      "t": 98569.67399999991,
      "d": 272.6354531249963,
      "v": 111
    },
    {
      "midi": 54,
      "hit": false,
      "t": 98875.79099999991,
      "d": 259.8805781250121,
      "v": 98
    },
    {
      "midi": 52,
      "hit": false,
      "t": 99181.90799999992,
      "d": 880.086374999999,
      "v": 103
    },
    {
      "midi": 62,
      "hit": false,
      "t": 99181.90799999992,
      "d": 1798.437374999994,
      "v": 116
    },
    {
      "midi": 64,
      "hit": false,
      "t": 99181.90799999992,
      "d": 1803.2204531249881,
      "v": 106
    },
    {
      "midi": 71,
      "hit": false,
      "t": 99181.90799999992,
      "d": 1806.4091718749842,
      "v": 98
    },
    {
      "midi": 67,
      "hit": false,
      "t": 99181.90799999992,
      "d": 1812.7866093749908,
      "v": 92
    },
    {
      "midi": 40,
      "hit": false,
      "t": 100100.25899999992,
      "d": 277.4185312500049,
      "v": 109
    },
    {
      "midi": 42,
      "hit": false,
      "t": 100406.37599999992,
      "d": 306.11699999999837,
      "v": 88
    },
    {
      "midi": 43,
      "hit": false,
      "t": 100712.49299999991,
      "d": 245.53134375000081,
      "v": 106
    },
    {
      "midi": 57,
      "hit": false,
      "t": 101018.60999999991,
      "d": 1618.2747656249849,
      "v": 95
    },
    {
      "midi": 45,
      "hit": false,
      "t": 101018.60999999991,
      "d": 3667.0265624999593,
      "v": 103
    },
    {
      "midi": 60,
      "hit": false,
      "t": 101324.72699999991,
      "d": 1001.2576874999941,
      "v": 86
    },
    {
      "midi": 64,
      "hit": false,
      "t": 101630.84399999991,
      "d": 495.8457656249957,
      "v": 109
    },
    {
      "midi": 67,
      "hit": false,
      "t": 101936.96099999991,
      "d": 1701.1814531249693,
      "v": 113
    },
    {
      "midi": 64,
      "hit": false,
      "t": 102243.0779999999,
      "d": 1379.1208593749761,
      "v": 101
    },
    {
      "midi": 60,
      "hit": false,
      "t": 102549.1949999999,
      "d": 125.95439062498917,
      "v": 83
    },
    {
      "midi": 57,
      "hit": false,
      "t": 102855.31199999989,
      "d": 1808.0035312499822,
      "v": 111
    },
    {
      "midi": 60,
      "hit": false,
      "t": 103467.54599999989,
      "d": 1205.3356874999881,
      "v": 98
    },
    {
      "midi": 67,
      "hit": false,
      "t": 103773.66299999988,
      "d": 884.869453124993,
      "v": 106
    },
    {
      "midi": 64,
      "hit": false,
      "t": 104385.89699999988,
      "d": 291.7677656249871,
      "v": 103
    },
    {
      "midi": 50,
      "hit": false,
      "t": 104692.01399999988,
      "d": 516.5724374999991,
      "v": 109
    },
    {
      "midi": 57,
      "hit": false,
      "t": 104692.01399999988,
      "d": 1474.7824218749884,
      "v": 101
    },
    {
      "midi": 66,
      "hit": false,
      "t": 104692.01399999988,
      "d": 1490.7260156249831,
      "v": 77
    },
    {
      "midi": 60,
      "hit": false,
      "t": 104692.01399999988,
      "d": 1497.1034531249898,
      "v": 106
    },
    {
      "midi": 50,
      "hit": false,
      "t": 105304.24799999988,
      "d": 220.02159375000338,
      "v": 111
    },
    {
      "midi": 48,
      "hit": false,
      "t": 105610.36499999987,
      "d": 765.2924999999959,
      "v": 116
    },
    {
      "midi": 57,
      "hit": false,
      "t": 106222.59899999987,
      "d": 800.368406249996,
      "v": 95
    },
    {
      "midi": 66,
      "hit": false,
      "t": 106222.59899999987,
      "d": 838.6330312499922,
      "v": 85
    },
    {
      "midi": 60,
      "hit": false,
      "t": 106222.59899999987,
      "d": 840.2273906249902,
      "v": 68
    },
    {
      "midi": 47,
      "hit": false,
      "t": 106528.71599999987,
      "d": 841.8217500000028,
      "v": 109
    },
    {
      "midi": 60,
      "hit": false,
      "t": 107140.94999999987,
      "d": 607.4509218750172,
      "v": 101
    },
    {
      "midi": 57,
      "hit": false,
      "t": 107140.94999999987,
      "d": 1101.7023281250003,
      "v": 86
    },
    {
      "midi": 66,
      "hit": false,
      "t": 107140.94999999987,
      "d": 1136.7782343750005,
      "v": 68
    },
    {
      "midi": 45,
      "hit": false,
      "t": 107447.06699999988,
      "d": 140.30362500000047,
      "v": 113
    },
    {
      "midi": 40,
      "hit": false,
      "t": 107753.18399999988,
      "d": 323.65495312499115,
      "v": 109
    },
    {
      "midi": 60,
      "hit": false,
      "t": 107797.82606249988,
      "d": 306.1169999999838,
      "v": 113
    },
    {
      "midi": 42,
      "hit": false,
      "t": 108059.30099999988,
      "d": 264.6636562499916,
      "v": 85
    },
    {
      "midi": 61,
      "hit": false,
      "t": 108076.83895312487,
      "d": 250.31442187499488,
      "v": 105
    },
    {
      "midi": 43,
      "hit": false,
      "t": 108365.41799999986,
      "d": 3424.683937499998,
      "v": 101
    },
    {
      "midi": 55,
      "hit": false,
      "t": 108365.41799999986,
      "d": 3553.827046874998,
      "v": 111
    },
    {
      "midi": 62,
      "hit": false,
      "t": 108365.41799999986,
      "d": 3611.2239843749994,
      "v": 116
    },
    {
      "midi": 57,
      "hit": false,
      "t": 108365.41799999986,
      "d": 3630.356296875005,
      "v": 95
    },
    {
      "midi": 74,
      "hit": false,
      "t": 109886.43684374986,
      "d": 2118.9036093750037,
      "v": 86
    },
    {
      "midi": 71,
      "hit": false,
      "t": 110208.49743749986,
      "d": 1798.4373750000086,
      "v": 83
    },
    {
      "midi": 60,
      "hit": false,
      "t": 112038.82199999987,
      "d": 1742.6347968750051,
      "v": 94
    },
    {
      "midi": 63,
      "hit": false,
      "t": 112038.82199999987,
      "d": 1750.6065937500098,
      "v": 94
    },
    {
      "midi": 48,
      "hit": false,
      "t": 112038.82199999987,
      "d": 1768.1445468750026,
      "v": 94
    },
    {
      "midi": 67,
      "hit": false,
      "t": 112038.82199999987,
      "d": 1768.1445468750026,
      "v": 94
    },
    {
      "midi": 57,
      "hit": false,
      "t": 112057.95431249987,
      "d": 1749.0122343749972,
      "v": 94
    },
    {
      "midi": 62,
      "hit": false,
      "t": 113875.52399999987,
      "d": 768.4812187500065,
      "v": 106
    },
    {
      "midi": 59,
      "hit": false,
      "t": 113875.52399999987,
      "d": 770.0755781250045,
      "v": 106
    },
    {
      "midi": 66,
      "hit": false,
      "t": 113875.52399999987,
      "d": 811.5289218750113,
      "v": 97
    },
    {
      "midi": 50,
      "hit": false,
      "t": 113875.52399999987,
      "d": 894.4356093750102,
      "v": 109
    },
    {
      "midi": 57,
      "hit": false,
      "t": 114793.87499999988,
      "d": 792.3966093750059,
      "v": 103
    },
    {
      "midi": 60,
      "hit": false,
      "t": 114793.87499999988,
      "d": 793.990968750004,
      "v": 109
    },
    {
      "midi": 64,
      "hit": false,
      "t": 114793.87499999988,
      "d": 814.7176406250073,
      "v": 106
    },
    {
      "midi": 50,
      "hit": false,
      "t": 114813.00731249989,
      "d": 773.2642968750006,
      "v": 89
    },
    {
      "midi": 43,
      "hit": false,
      "t": 115712.2259999999,
      "d": 3424.6839374999836,
      "v": 101
    },
    {
      "midi": 55,
      "hit": false,
      "t": 115712.2259999999,
      "d": 3553.8270468749834,
      "v": 111
    },
    {
      "midi": 62,
      "hit": false,
      "t": 115712.2259999999,
      "d": 3611.223984374985,
      "v": 116
    },
    {
      "midi": 57,
      "hit": false,
      "t": 115712.2259999999,
      "d": 3630.35629687499,
      "v": 95
    },
    {
      "midi": 74,
      "hit": false,
      "t": 116630.57699999989,
      "d": 2611.560656249989,
      "v": 75
    },
    {
      "midi": 86,
      "hit": false,
      "t": 116936.69399999989,
      "d": 2393.133421874998,
      "v": 86
    },
    {
      "midi": 83,
      "hit": false,
      "t": 117242.81099999989,
      "d": 2112.526171874997,
      "v": 68
    },
    {
      "midi": 79,
      "hit": false,
      "t": 117548.92799999988,
      "d": 1749.0122343749972,
      "v": 57
    },
    {
      "midi": 60,
      "hit": false,
      "t": 119385.62999999989,
      "d": 1742.6347968750051,
      "v": 94
    },
    {
      "midi": 57,
      "hit": false,
      "t": 119385.62999999989,
      "d": 1749.0122343750118,
      "v": 94
    },
    {
      "midi": 63,
      "hit": false,
      "t": 119385.62999999989,
      "d": 1750.6065937500098,
      "v": 94
    },
    {
      "midi": 48,
      "hit": false,
      "t": 119385.62999999989,
      "d": 1768.1445468750026,
      "v": 94
    },
    {
      "midi": 67,
      "hit": false,
      "t": 119385.62999999989,
      "d": 1768.1445468750026,
      "v": 94
    },
    {
      "midi": 62,
      "hit": false,
      "t": 121222.3319999999,
      "d": 768.4812187500065,
      "v": 106
    },
    {
      "midi": 59,
      "hit": false,
      "t": 121222.3319999999,
      "d": 770.0755781250045,
      "v": 106
    },
    {
      "midi": 66,
      "hit": false,
      "t": 121222.3319999999,
      "d": 811.5289218750113,
      "v": 97
    },
    {
      "midi": 50,
      "hit": false,
      "t": 121222.3319999999,
      "d": 856.1709843750141,
      "v": 109
    },
    {
      "midi": 50,
      "hit": false,
      "t": 122140.6829999999,
      "d": 773.2642968750006,
      "v": 89
    },
    {
      "midi": 57,
      "hit": false,
      "t": 122140.6829999999,
      "d": 792.3966093750059,
      "v": 103
    },
    {
      "midi": 60,
      "hit": false,
      "t": 122140.6829999999,
      "d": 793.990968750004,
      "v": 109
    },
    {
      "midi": 64,
      "hit": false,
      "t": 122140.6829999999,
      "d": 814.7176406250073,
      "v": 106
    },
    {
      "midi": 43,
      "hit": false,
      "t": 123059.03399999991,
      "d": 2747.081203124995,
      "v": 98
    },
    {
      "midi": 79,
      "hit": false,
      "t": 123059.03399999991,
      "d": 3521.939859374994,
      "v": 95
    },
    {
      "midi": 74,
      "hit": false,
      "t": 123365.15099999991,
      "d": 3244.521328124989,
      "v": 83
    },
    {
      "midi": 76,
      "hit": false,
      "t": 123671.26799999991,
      "d": 2959.130999999994,
      "v": 83
    },
    {
      "midi": 71,
      "hit": false,
      "t": 123977.38499999991,
      "d": 2630.692968749994,
      "v": 81
    },
    {
      "midi": 47,
      "hit": false,
      "t": 125814.08699999991,
      "d": 789.2078906249953,
      "v": 98
    },
    {
      "midi": 63,
      "hit": false,
      "t": 126732.43799999991,
      "d": 2983.0463906249934,
      "v": 102
    },
    {
      "midi": 48,
      "hit": false,
      "t": 126732.43799999991,
      "d": 3043.632046874991,
      "v": 101
    },
    {
      "midi": 60,
      "hit": false,
      "t": 126732.43799999991,
      "d": 3585.7142343749874,
      "v": 101
    },
    {
      "midi": 67,
      "hit": false,
      "t": 126732.43799999991,
      "d": 3587.3085937499854,
      "v": 89
    },
    {
      "midi": 81,
      "hit": false,
      "t": 127956.9059999999,
      "d": 2160.356953124996,
      "v": 89
    },
    {
      "midi": 79,
      "hit": false,
      "t": 128263.0229999999,
      "d": 1874.966625000001,
      "v": 64
    },
    {
      "midi": 75,
      "hit": false,
      "t": 128569.1399999999,
      "d": 1363.177265624996,
      "v": 74
    },
    {
      "midi": 47,
      "hit": false,
      "t": 129793.60799999989,
      "d": 274.22981250000885,
      "v": 92
    },
    {
      "midi": 62,
      "hit": false,
      "t": 129793.60799999989,
      "d": 310.900078125007,
      "v": 98
    },
    {
      "midi": 46,
      "hit": false,
      "t": 130099.7249999999,
      "d": 291.7677656249871,
      "v": 74
    },
    {
      "midi": 63,
      "hit": false,
      "t": 130099.7249999999,
      "d": 291.7677656249871,
      "v": 98
    },
    {
      "midi": 60,
      "hit": false,
      "t": 130405.84199999989,
      "d": 310.90007812499243,
      "v": 98
    },
    {
      "midi": 64,
      "hit": false,
      "t": 130405.84199999989,
      "d": 1127.2120781249832,
      "v": 95
    },
    {
      "midi": 45,
      "hit": false,
      "t": 130405.84199999989,
      "d": 1808.0035312499967,
      "v": 98
    },
    {
      "midi": 57,
      "hit": false,
      "t": 130711.95899999989,
      "d": 1511.4526874999865,
      "v": 89
    },
    {
      "midi": 60,
      "hit": false,
      "t": 131018.07599999988,
      "d": 1066.6264218750002,
      "v": 92
    },
    {
      "midi": 67,
      "hit": false,
      "t": 131324.19299999988,
      "d": 819.5007187500014,
      "v": 95
    },
    {
      "midi": 64,
      "hit": false,
      "t": 131630.30999999988,
      "d": 578.7524531249946,
      "v": 73
    },
    {
      "midi": 57,
      "hit": false,
      "t": 132242.54399999988,
      "d": 470.3360156250128,
      "v": 95
    },
    {
      "midi": 62,
      "hit": false,
      "t": 132242.54399999988,
      "d": 722.2447968750203,
      "v": 111
    },
    {
      "midi": 66,
      "hit": false,
      "t": 132242.54399999988,
      "d": 940.6720312500256,
      "v": 79
    },
    {
      "midi": 50,
      "hit": false,
      "t": 132242.54399999988,
      "d": 1803.2204531250463,
      "v": 111
    },
    {
      "midi": 57,
      "hit": false,
      "t": 132854.7779999999,
      "d": 1163.8823437500105,
      "v": 92
    },
    {
      "midi": 62,
      "hit": false,
      "t": 133160.8949999999,
      "d": 470.3360156250128,
      "v": 109
    },
    {
      "midi": 66,
      "hit": false,
      "t": 133467.0119999999,
      "d": 602.6678437500377,
      "v": 77
    },
    {
      "midi": 62,
      "hit": false,
      "t": 133773.12899999993,
      "d": 256.69185937498696,
      "v": 98
    },
    {
      "midi": 43,
      "hit": false,
      "t": 134079.24599999993,
      "d": 3627.167578124965,
      "v": 98
    },
    {
      "midi": 62,
      "hit": false,
      "t": 134385.36299999992,
      "d": 1308.9690468749905,
      "v": 89
    },
    {
      "midi": 67,
      "hit": false,
      "t": 134691.47999999992,
      "d": 833.8499531249981,
      "v": 83
    },
    {
      "midi": 69,
      "hit": false,
      "t": 134997.59699999992,
      "d": 325.2493125000037,
      "v": 89
    },
    {
      "midi": 74,
      "hit": false,
      "t": 135303.71399999992,
      "d": 872.1145781249797,
      "v": 92
    },
    {
      "midi": 69,
      "hit": false,
      "t": 135609.83099999992,
      "d": 320.4662343749951,
      "v": 89
    },
    {
      "midi": 67,
      "hit": false,
      "t": 135915.94799999992,
      "d": 1559.2834687499562,
      "v": 89
    },
    {
      "midi": 69,
      "hit": false,
      "t": 136222.0649999999,
      "d": 1420.5742031249974,
      "v": 86
    },
    {
      "midi": 74,
      "hit": false,
      "t": 136528.18199999988,
      "d": 395.40112500000396,
      "v": 78
    },
    {
      "midi": 79,
      "hit": false,
      "t": 136834.29899999988,
      "d": 867.3315000000002,
      "v": 73
    },
    {
      "midi": 74,
      "hit": false,
      "t": 137140.41599999988,
      "d": 562.8088593750144,
      "v": 86
    },
    {
      "midi": 69,
      "hit": false,
      "t": 137752.64999999988,
      "d": 3010.150499999989,
      "v": 86
    },
    {
      "midi": 67,
      "hit": false,
      "t": 137752.64999999988,
      "d": 3019.716656249977,
      "v": 83
    },
    {
      "midi": 72,
      "hit": false,
      "t": 137752.64999999988,
      "d": 3026.094093749969,
      "v": 89
    },
    {
      "midi": 76,
      "hit": false,
      "t": 137752.64999999988,
      "d": 3026.094093749969,
      "v": 92
    },
    {
      "midi": 45,
      "hit": false,
      "t": 137752.64999999988,
      "d": 3635.1393749999406,
      "v": 106
    },
    {
      "midi": 66,
      "hit": false,
      "t": 140813.81999999983,
      "d": 301.33392187498976,
      "v": 88
    },
    {
      "midi": 71,
      "hit": false,
      "t": 140813.81999999983,
      "d": 301.33392187498976,
      "v": 95
    },
    {
      "midi": 67,
      "hit": false,
      "t": 141119.93699999983,
      "d": 267.85237499998766,
      "v": 98
    },
    {
      "midi": 72,
      "hit": false,
      "t": 141119.93699999983,
      "d": 267.85237499998766,
      "v": 106
    },
    {
      "midi": 55,
      "hit": false,
      "t": 141426.05399999983,
      "d": 943.8607499999925,
      "v": 109
    },
    {
      "midi": 66,
      "hit": false,
      "t": 141426.05399999983,
      "d": 1741.0404374999925,
      "v": 77
    },
    {
      "midi": 69,
      "hit": false,
      "t": 141426.05399999983,
      "d": 2096.5825781250023,
      "v": 103
    },
    {
      "midi": 71,
      "hit": false,
      "t": 141426.05399999983,
      "d": 2466.473953125009,
      "v": 95
    },
    {
      "midi": 74,
      "hit": false,
      "t": 141426.05399999983,
      "d": 2911.300218749995,
      "v": 103
    },
    {
      "midi": 43,
      "hit": false,
      "t": 142344.40499999982,
      "d": 318.87187500001164,
      "v": 92
    },
    {
      "midi": 55,
      "hit": false,
      "t": 142650.52199999982,
      "d": 1723.5024843749998,
      "v": 98
    },
    {
      "midi": 66,
      "hit": false,
      "t": 143262.75599999982,
      "d": 1149.5331093750137,
      "v": 82
    },
    {
      "midi": 54,
      "hit": false,
      "t": 144487.22399999984,
      "d": 301.33392187498976,
      "v": 106
    },
    {
      "midi": 69,
      "hit": false,
      "t": 144487.22399999984,
      "d": 559.6201406249893,
      "v": 83
    },
    {
      "midi": 74,
      "hit": false,
      "t": 144487.22399999984,
      "d": 569.1862968749774,
      "v": 73
    },
    {
      "midi": 71,
      "hit": false,
      "t": 144487.22399999984,
      "d": 580.3468124999781,
      "v": 75
    },
    {
      "midi": 66,
      "hit": false,
      "t": 144487.22399999984,
      "d": 589.9129687499662,
      "v": 37
    },
    {
      "midi": 55,
      "hit": false,
      "t": 144793.34099999984,
      "d": 277.4185312499758,
      "v": 106
    },
    {
      "midi": 60,
      "hit": false,
      "t": 145099.4579999998,
      "d": 1772.9276250000112,
      "v": 109
    },
    {
      "midi": 64,
      "hit": false,
      "t": 145099.4579999998,
      "d": 1774.5219843750237,
      "v": 109
    },
    {
      "midi": 45,
      "hit": false,
      "t": 145099.4579999998,
      "d": 1798.4373750000377,
      "v": 116
    },
    {
      "midi": 69,
      "hit": false,
      "t": 145099.4579999998,
      "d": 1800.0317343750503,
      "v": 89
    },
    {
      "midi": 67,
      "hit": false,
      "t": 145099.4579999998,
      "d": 1801.6260937500629,
      "v": 89
    },
    {
      "midi": 72,
      "hit": false,
      "t": 146936.15999999986,
      "d": 570.78065624999,
      "v": 101
    },
    {
      "midi": 76,
      "hit": false,
      "t": 146936.15999999986,
      "d": 583.5355312500033,
      "v": 106
    },
    {
      "midi": 79,
      "hit": false,
      "t": 146936.15999999986,
      "d": 586.7242499999993,
      "v": 95
    },
    {
      "midi": 50,
      "hit": false,
      "t": 146936.15999999986,
      "d": 1195.76953125,
      "v": 106
    },
    {
      "midi": 74,
      "hit": false,
      "t": 147548.39399999985,
      "d": 588.3186093750119,
      "v": 103
    },
    {
      "midi": 71,
      "hit": false,
      "t": 147548.39399999985,
      "d": 591.5073281250079,
      "v": 89
    },
    {
      "midi": 78,
      "hit": false,
      "t": 147548.39399999985,
      "d": 601.073484374996,
      "v": 91
    },
    {
      "midi": 45,
      "hit": false,
      "t": 148160.62799999985,
      "d": 310.900078125007,
      "v": 103
    },
    {
      "midi": 69,
      "hit": false,
      "t": 148160.62799999985,
      "d": 593.1016875000205,
      "v": 89
    },
    {
      "midi": 76,
      "hit": false,
      "t": 148160.62799999985,
      "d": 593.1016875000205,
      "v": 98
    },
    {
      "midi": 72,
      "hit": false,
      "t": 148160.62799999985,
      "d": 597.8847656250291,
      "v": 95
    },
    {
      "midi": 50,
      "hit": false,
      "t": 148466.74499999985,
      "d": 293.3621250000433,
      "v": 98
    },
    {
      "midi": 62,
      "hit": false,
      "t": 148772.8619999999,
      "d": 695.1406875000102,
      "v": 106
    },
    {
      "midi": 66,
      "hit": false,
      "t": 148772.8619999999,
      "d": 868.9258593750128,
      "v": 70
    },
    {
      "midi": 69,
      "hit": false,
      "t": 148772.8619999999,
      "d": 1205.3356875000172,
      "v": 101
    },
    {
      "midi": 71,
      "hit": false,
      "t": 148772.8619999999,
      "d": 1237.2228750000359,
      "v": 92
    },
    {
      "midi": 43,
      "hit": false,
      "t": 148772.8619999999,
      "d": 3075.5192343750386,
      "v": 116
    },
    {
      "midi": 62,
      "hit": false,
      "t": 149691.21299999993,
      "d": 2026.4307656250312,
      "v": 109
    },
    {
      "midi": 66,
      "hit": false,
      "t": 149997.32999999993,
      "d": 1170.2597812500317,
      "v": 77
    },
    {
      "midi": 74,
      "hit": false,
      "t": 150303.44699999996,
      "d": 2080.638984374993,
      "v": 106
    },
    {
      "midi": 71,
      "hit": false,
      "t": 150609.56399999995,
      "d": 1780.8994218749867,
      "v": 106
    },
    {
      "midi": 66,
      "hit": false,
      "t": 151221.79799999995,
      "d": 1135.183874999988,
      "v": 59
    },
    {
      "midi": 42,
      "hit": false,
      "t": 151834.03199999995,
      "d": 301.33392187498976,
      "v": 98
    },
    {
      "midi": 62,
      "hit": false,
      "t": 151834.03199999995,
      "d": 570.78065624999,
      "v": 83
    },
    {
      "midi": 43,
      "hit": false,
      "t": 152140.14899999995,
      "d": 258.28621874999953,
      "v": 106
    },
    {
      "midi": 57,
      "hit": false,
      "t": 152446.26599999995,
      "d": 1768.1445468750026,
      "v": 111
    },
    {
      "midi": 64,
      "hit": false,
      "t": 152446.26599999995,
      "d": 1772.9276250000112,
      "v": 111
    },
    {
      "midi": 60,
      "hit": false,
      "t": 152446.26599999995,
      "d": 1779.3050625000033,
      "v": 116
    },
    {
      "midi": 45,
      "hit": false,
      "t": 152446.26599999995,
      "d": 1800.031734374992,
      "v": 113
    },
    {
      "midi": 67,
      "hit": false,
      "t": 152446.26599999995,
      "d": 1819.1640468749974,
      "v": 95
    },
    {
      "midi": 76,
      "hit": false,
      "t": 154282.96799999994,
      "d": 301.33392187498976,
      "v": 106
    },
    {
      "midi": 72,
      "hit": false,
      "t": 154282.96799999994,
      "d": 352.35342187498463,
      "v": 92
    },
    {
      "midi": 50,
      "hit": false,
      "t": 154282.96799999994,
      "d": 962.9930624999979,
      "v": 113
    },
    {
      "midi": 74,
      "hit": false,
      "t": 154589.08499999993,
      "d": 301.33392187498976,
      "v": 83
    },
    {
      "midi": 71,
      "hit": false,
      "t": 154589.08499999993,
      "d": 326.8436718749872,
      "v": 75
    },
    {
      "midi": 72,
      "hit": false,
      "t": 154895.20199999993,
      "d": 530.9216718749958,
      "v": 83
    },
    {
      "midi": 69,
      "hit": false,
      "t": 154895.20199999993,
      "d": 556.4314218749932,
      "v": 89
    },
    {
      "midi": 45,
      "hit": false,
      "t": 155201.31899999993,
      "d": 310.900078125007,
      "v": 92
    },
    {
      "midi": 67,
      "hit": false,
      "t": 155507.43599999993,
      "d": 204.07800000000861,
      "v": 95
    },
    {
      "midi": 50,
      "hit": false,
      "t": 155507.43599999993,
      "d": 288.5790468750056,
      "v": 106
    },
    {
      "midi": 71,
      "hit": false,
      "t": 155507.43599999993,
      "d": 310.900078125007,
      "v": 106
    },
    {
      "midi": 69,
      "hit": false,
      "t": 155813.55299999993,
      "d": 213.64415624999674,
      "v": 103
    },
    {
      "midi": 72,
      "hit": false,
      "t": 155813.55299999993,
      "d": 235.96518749999814,
      "v": 98
    },
    {
      "midi": 45,
      "hit": false,
      "t": 155813.55299999993,
      "d": 243.9369843750028,
      "v": 95
    },
    {
      "midi": 43,
      "hit": false,
      "t": 156119.66999999993,
      "d": 1203.7413281250047,
      "v": 113
    },
    {
      "midi": 71,
      "hit": false,
      "t": 156119.66999999993,
      "d": 1761.7671093749814,
      "v": 103
    },
    {
      "midi": 74,
      "hit": false,
      "t": 156119.66999999993,
      "d": 1768.1445468749735,
      "v": 101
    },
    {
      "midi": 55,
      "hit": false,
      "t": 157344.13799999992,
      "d": 272.6354531249963,
      "v": 111
    },
    {
      "midi": 54,
      "hit": false,
      "t": 157650.25499999992,
      "d": 259.880578124983,
      "v": 98
    },
    {
      "midi": 52,
      "hit": false,
      "t": 157956.3719999999,
      "d": 908.784843750007,
      "v": 103
    },
    {
      "midi": 62,
      "hit": false,
      "t": 157956.3719999999,
      "d": 1798.4373749999795,
      "v": 116
    },
    {
      "midi": 64,
      "hit": false,
      "t": 157956.3719999999,
      "d": 1803.2204531249881,
      "v": 106
    },
    {
      "midi": 71,
      "hit": false,
      "t": 157956.3719999999,
      "d": 1806.4091718749842,
      "v": 98
    },
    {
      "midi": 67,
      "hit": false,
      "t": 157956.3719999999,
      "d": 1812.7866093749763,
      "v": 92
    },
    {
      "midi": 40,
      "hit": false,
      "t": 158874.72299999988,
      "d": 291.76776562500163,
      "v": 109
    },
    {
      "midi": 42,
      "hit": false,
      "t": 159180.83999999988,
      "d": 306.11699999999837,
      "v": 88
    },
    {
      "midi": 43,
      "hit": false,
      "t": 159486.95699999988,
      "d": 245.53134374998626,
      "v": 106
    },
    {
      "midi": 57,
      "hit": false,
      "t": 159793.07399999988,
      "d": 1618.274765625014,
      "v": 95
    },
    {
      "midi": 45,
      "hit": false,
      "t": 159793.07399999988,
      "d": 3667.0265625000466,
      "v": 103
    },
    {
      "midi": 60,
      "hit": false,
      "t": 160099.19099999988,
      "d": 1001.2576875000086,
      "v": 86
    },
    {
      "midi": 64,
      "hit": false,
      "t": 160405.30799999987,
      "d": 495.84576562501024,
      "v": 109
    },
    {
      "midi": 67,
      "hit": false,
      "t": 160711.42499999987,
      "d": 1701.1814531250275,
      "v": 113
    },
    {
      "midi": 64,
      "hit": false,
      "t": 161017.54199999987,
      "d": 1379.1208593750198,
      "v": 101
    },
    {
      "midi": 60,
      "hit": false,
      "t": 161323.6589999999,
      "d": 125.95439062500373,
      "v": 83
    },
    {
      "midi": 57,
      "hit": false,
      "t": 161629.7759999999,
      "d": 1808.0035312499967,
      "v": 111
    },
    {
      "midi": 60,
      "hit": false,
      "t": 162242.0099999999,
      "d": 1205.3356875000172,
      "v": 98
    },
    {
      "midi": 67,
      "hit": false,
      "t": 162548.1269999999,
      "d": 894.4356093750102,
      "v": 106
    },
    {
      "midi": 64,
      "hit": false,
      "t": 163160.3609999999,
      "d": 291.76776562503073,
      "v": 103
    },
    {
      "midi": 50,
      "hit": false,
      "t": 163466.47799999992,
      "d": 516.5724374999991,
      "v": 109
    },
    {
      "midi": 57,
      "hit": false,
      "t": 163466.47799999992,
      "d": 1474.7824218749884,
      "v": 101
    },
    {
      "midi": 66,
      "hit": false,
      "t": 163466.47799999992,
      "d": 1490.7260156249977,
      "v": 77
    },
    {
      "midi": 60,
      "hit": false,
      "t": 163466.47799999992,
      "d": 1497.1034531249898,
      "v": 106
    },
    {
      "midi": 50,
      "hit": false,
      "t": 164078.7119999999,
      "d": 220.02159374998882,
      "v": 111
    },
    {
      "midi": 48,
      "hit": false,
      "t": 164384.8289999999,
      "d": 814.7176406249928,
      "v": 116
    },
    {
      "midi": 57,
      "hit": false,
      "t": 164997.0629999999,
      "d": 800.368406249996,
      "v": 95
    },
    {
      "midi": 66,
      "hit": false,
      "t": 164997.0629999999,
      "d": 838.6330312500068,
      "v": 85
    },
    {
      "midi": 60,
      "hit": false,
      "t": 164997.0629999999,
      "d": 840.2273906250193,
      "v": 68
    },
    {
      "midi": 47,
      "hit": false,
      "t": 165303.1799999999,
      "d": 841.8217500000319,
      "v": 109
    },
    {
      "midi": 60,
      "hit": false,
      "t": 165915.41399999993,
      "d": 607.4509218749881,
      "v": 101
    },
    {
      "midi": 57,
      "hit": false,
      "t": 165915.41399999993,
      "d": 1101.7023281249858,
      "v": 86
    },
    {
      "midi": 66,
      "hit": false,
      "t": 165915.41399999993,
      "d": 1136.7782343749714,
      "v": 68
    },
    {
      "midi": 45,
      "hit": false,
      "t": 166221.53099999993,
      "d": 140.30362500000047,
      "v": 113
    },
    {
      "midi": 40,
      "hit": false,
      "t": 166527.64799999993,
      "d": 296.55084375001024,
      "v": 109
    },
    {
      "midi": 60,
      "hit": false,
      "t": 166572.29006249993,
      "d": 267.85237499998766,
      "v": 113
    },
    {
      "midi": 42,
      "hit": false,
      "t": 166833.76499999993,
      "d": 264.6636562499625,
      "v": 85
    },
    {
      "midi": 61,
      "hit": false,
      "t": 166851.30295312492,
      "d": 250.31442187496577,
      "v": 105
    },
    {
      "midi": 43,
      "hit": false,
      "t": 167139.8819999999,
      "d": 3424.683937499998,
      "v": 101
    },
    {
      "midi": 55,
      "hit": false,
      "t": 167139.8819999999,
      "d": 3553.827046874998,
      "v": 111
    },
    {
      "midi": 62,
      "hit": false,
      "t": 167139.8819999999,
      "d": 3611.223984374985,
      "v": 116
    },
    {
      "midi": 57,
      "hit": false,
      "t": 167139.8819999999,
      "d": 3630.35629687499,
      "v": 95
    },
    {
      "midi": 74,
      "hit": false,
      "t": 168660.9008437499,
      "d": 2118.9036093749746,
      "v": 86
    },
    {
      "midi": 71,
      "hit": false,
      "t": 168982.9614374999,
      "d": 1793.654296874971,
      "v": 83
    },
    {
      "midi": 60,
      "hit": false,
      "t": 170813.28599999988,
      "d": 1742.6347968750051,
      "v": 94
    },
    {
      "midi": 63,
      "hit": false,
      "t": 170813.28599999988,
      "d": 1750.6065937500098,
      "v": 94
    },
    {
      "midi": 48,
      "hit": false,
      "t": 170813.28599999988,
      "d": 1768.1445468750026,
      "v": 94
    },
    {
      "midi": 67,
      "hit": false,
      "t": 170813.28599999988,
      "d": 1768.1445468750026,
      "v": 94
    },
    {
      "midi": 57,
      "hit": false,
      "t": 170832.41831249988,
      "d": 1749.0122343749972,
      "v": 94
    },
    {
      "midi": 62,
      "hit": false,
      "t": 172649.98799999987,
      "d": 768.4812187500065,
      "v": 106
    },
    {
      "midi": 59,
      "hit": false,
      "t": 172649.98799999987,
      "d": 770.0755781250191,
      "v": 106
    },
    {
      "midi": 66,
      "hit": false,
      "t": 172649.98799999987,
      "d": 811.5289218750258,
      "v": 97
    },
    {
      "midi": 50,
      "hit": false,
      "t": 172649.98799999987,
      "d": 880.0863750000135,
      "v": 109
    },
    {
      "midi": 57,
      "hit": false,
      "t": 173568.3389999999,
      "d": 792.3966093749914,
      "v": 103
    },
    {
      "midi": 60,
      "hit": false,
      "t": 173568.3389999999,
      "d": 793.990968750004,
      "v": 109
    },
    {
      "midi": 64,
      "hit": false,
      "t": 173568.3389999999,
      "d": 814.7176406249928,
      "v": 106
    },
    {
      "midi": 50,
      "hit": false,
      "t": 173587.4713124999,
      "d": 773.264296874986,
      "v": 89
    },
    {
      "midi": 43,
      "hit": false,
      "t": 174486.6899999999,
      "d": 3424.683937499998,
      "v": 101
    },
    {
      "midi": 55,
      "hit": false,
      "t": 174486.6899999999,
      "d": 3553.827046874998,
      "v": 111
    },
    {
      "midi": 62,
      "hit": false,
      "t": 174486.6899999999,
      "d": 3611.223984374985,
      "v": 116
    },
    {
      "midi": 57,
      "hit": false,
      "t": 174486.6899999999,
      "d": 3630.35629687499,
      "v": 95
    },
    {
      "midi": 74,
      "hit": false,
      "t": 175405.04099999988,
      "d": 2611.560656249989,
      "v": 75
    },
    {
      "midi": 86,
      "hit": false,
      "t": 175711.15799999988,
      "d": 2381.9729062499828,
      "v": 86
    },
    {
      "midi": 83,
      "hit": false,
      "t": 176017.27499999988,
      "d": 2075.8559062499844,
      "v": 68
    },
    {
      "midi": 79,
      "hit": false,
      "t": 176323.39199999988,
      "d": 1749.0122343749972,
      "v": 57
    },
    {
      "midi": 60,
      "hit": false,
      "t": 178160.09399999987,
      "d": 1742.6347968750051,
      "v": 94
    },
    {
      "midi": 57,
      "hit": false,
      "t": 178160.09399999987,
      "d": 1749.0122343749972,
      "v": 94
    },
    {
      "midi": 63,
      "hit": false,
      "t": 178160.09399999987,
      "d": 1750.6065937500098,
      "v": 94
    },
    {
      "midi": 48,
      "hit": false,
      "t": 178160.09399999987,
      "d": 1768.1445468750026,
      "v": 94
    },
    {
      "midi": 67,
      "hit": false,
      "t": 178160.09399999987,
      "d": 1768.1445468750026,
      "v": 94
    },
    {
      "midi": 62,
      "hit": false,
      "t": 179996.79599999986,
      "d": 768.4812187500065,
      "v": 106
    },
    {
      "midi": 59,
      "hit": false,
      "t": 179996.79599999986,
      "d": 770.0755781250191,
      "v": 106
    },
    {
      "midi": 66,
      "hit": false,
      "t": 179996.79599999986,
      "d": 811.5289218750258,
      "v": 97
    },
    {
      "midi": 50,
      "hit": false,
      "t": 179996.79599999986,
      "d": 865.7371406250168,
      "v": 109
    },
    {
      "midi": 50,
      "hit": false,
      "t": 180915.14699999988,
      "d": 773.264296874986,
      "v": 89
    },
    {
      "midi": 57,
      "hit": false,
      "t": 180915.14699999988,
      "d": 792.3966093749914,
      "v": 103
    },
    {
      "midi": 60,
      "hit": false,
      "t": 180915.14699999988,
      "d": 793.990968750004,
      "v": 109
    },
    {
      "midi": 64,
      "hit": false,
      "t": 180915.14699999988,
      "d": 814.7176406249928,
      "v": 106
    },
    {
      "midi": 43,
      "hit": false,
      "t": 181833.49799999988,
      "d": 2747.0812031249807,
      "v": 98
    },
    {
      "midi": 79,
      "hit": false,
      "t": 181833.49799999988,
      "d": 3521.9398593749793,
      "v": 95
    },
    {
      "midi": 74,
      "hit": false,
      "t": 182139.61499999987,
      "d": 3244.5213281250035,
      "v": 83
    },
    {
      "midi": 76,
      "hit": false,
      "t": 182445.73199999987,
      "d": 2959.130999999994,
      "v": 83
    },
    {
      "midi": 71,
      "hit": false,
      "t": 182751.84899999987,
      "d": 2630.692968749994,
      "v": 81
    },
    {
      "midi": 47,
      "hit": false,
      "t": 184588.55099999986,
      "d": 789.2078906249953,
      "v": 98
    },
    {
      "midi": 63,
      "hit": false,
      "t": 185506.90199999986,
      "d": 2983.046390624979,
      "v": 102
    },
    {
      "midi": 48,
      "hit": false,
      "t": 185506.90199999986,
      "d": 3043.632046874991,
      "v": 101
    },
    {
      "midi": 67,
      "hit": false,
      "t": 185506.90199999986,
      "d": 3582.5255156249623,
      "v": 89
    },
    {
      "midi": 60,
      "hit": false,
      "t": 185506.90199999986,
      "d": 3585.7142343749583,
      "v": 101
    },
    {
      "midi": 81,
      "hit": false,
      "t": 186731.36999999985,
      "d": 2160.3569531249814,
      "v": 89
    },
    {
      "midi": 79,
      "hit": false,
      "t": 187037.48699999985,
      "d": 1874.9666249999718,
      "v": 64
    },
    {
      "midi": 75,
      "hit": false,
      "t": 187343.60399999985,
      "d": 1363.1772656249814,
      "v": 74
    },
    {
      "midi": 47,
      "hit": false,
      "t": 188568.07199999984,
      "d": 274.22981249997974,
      "v": 92
    },
    {
      "midi": 62,
      "hit": false,
      "t": 188568.07199999984,
      "d": 310.9000781249779,
      "v": 98
    },
    {
      "midi": 46,
      "hit": false,
      "t": 188874.1889999998,
      "d": 291.76776562500163,
      "v": 74
    },
    {
      "midi": 63,
      "hit": false,
      "t": 188874.1889999998,
      "d": 291.76776562500163,
      "v": 98
    },
    {
      "midi": 60,
      "hit": false,
      "t": 189180.3059999998,
      "d": 310.900078125007,
      "v": 98
    },
    {
      "midi": 64,
      "hit": false,
      "t": 189180.3059999998,
      "d": 1127.2120781249832,
      "v": 95
    },
    {
      "midi": 45,
      "hit": false,
      "t": 189180.3059999998,
      "d": 1831.9189218750107,
      "v": 98
    },
    {
      "midi": 57,
      "hit": false,
      "t": 189486.4229999998,
      "d": 1525.8019218750123,
      "v": 89
    },
    {
      "midi": 60,
      "hit": false,
      "t": 189792.5399999998,
      "d": 1066.6264218750002,
      "v": 92
    },
    {
      "midi": 67,
      "hit": false,
      "t": 190098.6569999998,
      "d": 819.5007187500014,
      "v": 95
    },
    {
      "midi": 64,
      "hit": false,
      "t": 190404.7739999998,
      "d": 607.4509218750172,
      "v": 73
    },
    {
      "midi": 60,
      "hit": false,
      "t": 191017.00799999983,
      "d": 310.900078125007,
      "v": 98
    },
    {
      "midi": 47,
      "hit": false,
      "t": 191017.00799999983,
      "d": 596.2904062500165,
      "v": 92
    },
    {
      "midi": 64,
      "hit": false,
      "t": 191017.00799999983,
      "d": 1127.2120781250123,
      "v": 95
    },
    {
      "midi": 57,
      "hit": false,
      "t": 191323.12499999983,
      "d": 1492.3203750000393,
      "v": 89
    },
    {
      "midi": 48,
      "hit": false,
      "t": 191629.24199999985,
      "d": 586.7242499999993,
      "v": 83
    },
    {
      "midi": 60,
      "hit": false,
      "t": 191629.24199999985,
      "d": 1066.6264218750002,
      "v": 92
    },
    {
      "midi": 67,
      "hit": false,
      "t": 191935.35899999985,
      "d": 819.5007187500014,
      "v": 95
    },
    {
      "midi": 50,
      "hit": false,
      "t": 192241.47599999985,
      "d": 578.7524531250237,
      "v": 95
    },
    {
      "midi": 64,
      "hit": false,
      "t": 192241.47599999985,
      "d": 578.7524531250237,
      "v": 73
    },
    {
      "midi": 57,
      "hit": false,
      "t": 192853.70999999988,
      "d": 470.3360156250128,
      "v": 95
    },
    {
      "midi": 62,
      "hit": false,
      "t": 192853.70999999988,
      "d": 722.2447968750203,
      "v": 111
    },
    {
      "midi": 66,
      "hit": false,
      "t": 192853.70999999988,
      "d": 940.6720312500256,
      "v": 79
    },
    {
      "midi": 50,
      "hit": false,
      "t": 192853.70999999988,
      "d": 1803.2204531250463,
      "v": 111
    },
    {
      "midi": 57,
      "hit": false,
      "t": 193465.9439999999,
      "d": 1163.8823437500105,
      "v": 92
    },
    {
      "midi": 62,
      "hit": false,
      "t": 193772.0609999999,
      "d": 470.3360156250128,
      "v": 109
    },
    {
      "midi": 66,
      "hit": false,
      "t": 194078.1779999999,
      "d": 602.6678437500377,
      "v": 77
    },
    {
      "midi": 62,
      "hit": false,
      "t": 194384.29499999993,
      "d": 256.69185937498696,
      "v": 98
    },
    {
      "midi": 57,
      "hit": false,
      "t": 194690.41199999992,
      "d": 470.3360156250128,
      "v": 95
    },
    {
      "midi": 62,
      "hit": false,
      "t": 194690.41199999992,
      "d": 722.2447968750203,
      "v": 111
    },
    {
      "midi": 66,
      "hit": false,
      "t": 194690.41199999992,
      "d": 940.6720312500256,
      "v": 79
    },
    {
      "midi": 50,
      "hit": false,
      "t": 194690.41199999992,
      "d": 1803.2204531250463,
      "v": 111
    },
    {
      "midi": 57,
      "hit": false,
      "t": 195302.64599999995,
      "d": 1163.8823437500105,
      "v": 92
    },
    {
      "midi": 62,
      "hit": false,
      "t": 195608.76299999995,
      "d": 470.3360156250128,
      "v": 109
    },
    {
      "midi": 66,
      "hit": false,
      "t": 195914.87999999995,
      "d": 583.5355312500324,
      "v": 77
    },
    {
      "midi": 62,
      "hit": false,
      "t": 196220.99699999997,
      "d": 256.69185937498696,
      "v": 98
    },
    {
      "midi": 62,
      "hit": false,
      "t": 196527.11399999997,
      "d": 487.8739687500056,
      "v": 116
    },
    {
      "midi": 66,
      "hit": false,
      "t": 196527.11399999997,
      "d": 731.8109531250084,
      "v": 88
    },
    {
      "midi": 67,
      "hit": false,
      "t": 196527.11399999997,
      "d": 1127.2120781250123,
      "v": 103
    },
    {
      "midi": 71,
      "hit": false,
      "t": 196527.11399999997,
      "d": 1133.5895156250044,
      "v": 106
    },
    {
      "midi": 43,
      "hit": false,
      "t": 196527.11399999997,
      "d": 1803.2204531249881,
      "v": 109
    },
    {
      "midi": 62,
      "hit": false,
      "t": 197139.34799999997,
      "d": 1176.6372187499946,
      "v": 103
    },
    {
      "midi": 71,
      "hit": false,
      "t": 197751.58199999997,
      "d": 588.3186093750119,
      "v": 106
    },
    {
      "midi": 67,
      "hit": false,
      "t": 198057.69899999996,
      "d": 277.4185312500049,
      "v": 83
    },
    {
      "midi": 59,
      "hit": false,
      "t": 198363.816,
      "d": 530.9216718749958,
      "v": 106
    },
    {
      "midi": 64,
      "hit": false,
      "t": 198363.816,
      "d": 1109.6741249999905,
      "v": 101
    },
    {
      "midi": 67,
      "hit": false,
      "t": 198363.816,
      "d": 1143.1556718749925,
      "v": 98
    },
    {
      "midi": 62,
      "hit": false,
      "t": 198363.816,
      "d": 1163.8823437499814,
      "v": 106
    },
    {
      "midi": 40,
      "hit": false,
      "t": 198363.816,
      "d": 1784.0881406249828,
      "v": 106
    },
    {
      "midi": 59,
      "hit": false,
      "t": 198976.05,
      "d": 1176.6372187499946,
      "v": 98
    },
    {
      "midi": 64,
      "hit": false,
      "t": 199588.28399999999,
      "d": 578.7524531249946,
      "v": 109
    },
    {
      "midi": 62,
      "hit": false,
      "t": 199588.28399999999,
      "d": 586.7242499999993,
      "v": 116
    },
    {
      "midi": 67,
      "hit": false,
      "t": 199588.28399999999,
      "d": 589.9129687499953,
      "v": 95
    },
    {
      "midi": 60,
      "hit": false,
      "t": 200200.51799999998,
      "d": 443.2319062500028,
      "v": 103
    },
    {
      "midi": 69,
      "hit": false,
      "t": 200200.51799999998,
      "d": 1080.975656249997,
      "v": 83
    },
    {
      "midi": 67,
      "hit": false,
      "t": 200200.51799999998,
      "d": 1136.7782343750005,
      "v": 89
    },
    {
      "midi": 64,
      "hit": false,
      "t": 200200.51799999998,
      "d": 1806.4091718750133,
      "v": 101
    },
    {
      "midi": 45,
      "hit": false,
      "t": 200200.51799999998,
      "d": 1820.75840625001,
      "v": 109
    },
    {
      "midi": 60,
      "hit": false,
      "t": 200812.75199999998,
      "d": 1203.7413281250047,
      "v": 103
    },
    {
      "midi": 69,
      "hit": false,
      "t": 201424.98599999998,
      "d": 580.3468125000072,
      "v": 109
    },
    {
      "midi": 67,
      "hit": false,
      "t": 201731.10299999997,
      "d": 282.2016093750135,
      "v": 66
    },
    {
      "midi": 74,
      "hit": false,
      "t": 202037.22,
      "d": 1803.2204531249881,
      "v": 106
    },
    {
      "midi": 50,
      "hit": false,
      "t": 202037.22,
      "d": 1811.1922499999928,
      "v": 101
    },
    {
      "midi": 72,
      "hit": false,
      "t": 202343.337,
      "d": 1497.1034531249898,
      "v": 70
    },
    {
      "midi": 69,
      "hit": false,
      "t": 202649.454,
      "d": 1189.3920937499788,
      "v": 66
    },
    {
      "midi": 66,
      "hit": false,
      "t": 202955.571,
      "d": 880.0863749999844,
      "v": 68
    },
    {
      "midi": 64,
      "hit": false,
      "t": 203261.688,
      "d": 207.26671875000466,
      "v": 83
    },
    {
      "midi": 62,
      "hit": false,
      "t": 203567.805,
      "d": 261.4749374999956,
      "v": 103
    },
    {
      "midi": 62,
      "hit": false,
      "t": 203873.922,
      "d": 487.8739687500056,
      "v": 116
    },
    {
      "midi": 66,
      "hit": false,
      "t": 203873.922,
      "d": 731.8109531250084,
      "v": 88
    },
    {
      "midi": 67,
      "hit": false,
      "t": 203873.922,
      "d": 1127.2120781250123,
      "v": 103
    },
    {
      "midi": 71,
      "hit": false,
      "t": 203873.922,
      "d": 1133.5895156250044,
      "v": 106
    },
    {
      "midi": 43,
      "hit": false,
      "t": 203873.922,
      "d": 1831.9189218750107,
      "v": 109
    },
    {
      "midi": 62,
      "hit": false,
      "t": 204486.156,
      "d": 1176.6372187499946,
      "v": 103
    },
    {
      "midi": 71,
      "hit": false,
      "t": 205098.38999999998,
      "d": 588.3186093750119,
      "v": 106
    },
    {
      "midi": 67,
      "hit": false,
      "t": 205404.50699999998,
      "d": 296.55084375001024,
      "v": 83
    },
    {
      "midi": 59,
      "hit": false,
      "t": 205710.624,
      "d": 530.9216718749958,
      "v": 106
    },
    {
      "midi": 64,
      "hit": false,
      "t": 205710.624,
      "d": 1109.6741249999905,
      "v": 101
    },
    {
      "midi": 67,
      "hit": false,
      "t": 205710.624,
      "d": 1143.1556718749925,
      "v": 98
    },
    {
      "midi": 62,
      "hit": false,
      "t": 205710.624,
      "d": 1163.8823437499814,
      "v": 106
    },
    {
      "midi": 40,
      "hit": false,
      "t": 205710.624,
      "d": 1784.0881406249828,
      "v": 106
    },
    {
      "midi": 59,
      "hit": false,
      "t": 206322.858,
      "d": 1176.6372187499946,
      "v": 98
    },
    {
      "midi": 64,
      "hit": false,
      "t": 206935.092,
      "d": 578.7524531249946,
      "v": 109
    },
    {
      "midi": 62,
      "hit": false,
      "t": 206935.092,
      "d": 586.7242499999993,
      "v": 116
    },
    {
      "midi": 67,
      "hit": false,
      "t": 206935.092,
      "d": 589.9129687499953,
      "v": 95
    },
    {
      "midi": 60,
      "hit": false,
      "t": 207547.326,
      "d": 443.2319062500028,
      "v": 103
    },
    {
      "midi": 69,
      "hit": false,
      "t": 207547.326,
      "d": 1080.975656249997,
      "v": 83
    },
    {
      "midi": 67,
      "hit": false,
      "t": 207547.326,
      "d": 1136.7782343750005,
      "v": 89
    },
    {
      "midi": 64,
      "hit": false,
      "t": 207547.326,
      "d": 1806.4091718750133,
      "v": 101
    },
    {
      "midi": 45,
      "hit": false,
      "t": 207547.326,
      "d": 1820.75840625001,
      "v": 109
    },
    {
      "midi": 60,
      "hit": false,
      "t": 208159.56,
      "d": 1203.7413281250047,
      "v": 103
    },
    {
      "midi": 69,
      "hit": false,
      "t": 208771.794,
      "d": 580.3468125000072,
      "v": 109
    },
    {
      "midi": 67,
      "hit": false,
      "t": 209077.911,
      "d": 282.2016093750135,
      "v": 66
    },
    {
      "midi": 50,
      "hit": false,
      "t": 209384.02800000002,
      "d": 1811.1922499999637,
      "v": 101
    },
    {
      "midi": 74,
      "hit": false,
      "t": 209384.02800000002,
      "d": 1812.7866093749763,
      "v": 106
    },
    {
      "midi": 72,
      "hit": false,
      "t": 209690.14500000002,
      "d": 1511.4526874999865,
      "v": 70
    },
    {
      "midi": 69,
      "hit": false,
      "t": 209996.26200000002,
      "d": 1189.3920937499788,
      "v": 66
    },
    {
      "midi": 66,
      "hit": false,
      "t": 210302.37900000002,
      "d": 889.6525312499725,
      "v": 68
    },
    {
      "midi": 64,
      "hit": false,
      "t": 210608.496,
      "d": 207.26671875000466,
      "v": 83
    },
    {
      "midi": 62,
      "hit": false,
      "t": 210914.613,
      "d": 261.4749374999956,
      "v": 103
    },
    {
      "midi": 62,
      "hit": false,
      "t": 211220.73,
      "d": 487.8739687500056,
      "v": 116
    },
    {
      "midi": 66,
      "hit": false,
      "t": 211220.73,
      "d": 731.8109531250084,
      "v": 88
    },
    {
      "midi": 67,
      "hit": false,
      "t": 211220.73,
      "d": 1127.2120781250123,
      "v": 103
    },
    {
      "midi": 71,
      "hit": false,
      "t": 211220.73,
      "d": 1133.5895156250044,
      "v": 106
    },
    {
      "midi": 43,
      "hit": false,
      "t": 211220.73,
      "d": 1803.2204531249881,
      "v": 109
    },
    {
      "midi": 62,
      "hit": false,
      "t": 211832.964,
      "d": 1176.6372187499946,
      "v": 103
    },
    {
      "midi": 71,
      "hit": false,
      "t": 212445.198,
      "d": 588.3186093749828,
      "v": 106
    },
    {
      "midi": 67,
      "hit": false,
      "t": 212751.315,
      "d": 296.55084374998114,
      "v": 83
    },
    {
      "midi": 59,
      "hit": false,
      "t": 213057.43199999997,
      "d": 530.9216718749958,
      "v": 106
    },
    {
      "midi": 64,
      "hit": false,
      "t": 213057.43199999997,
      "d": 1109.6741249999905,
      "v": 101
    },
    {
      "midi": 67,
      "hit": false,
      "t": 213057.43199999997,
      "d": 1143.1556718749925,
      "v": 98
    },
    {
      "midi": 62,
      "hit": false,
      "t": 213057.43199999997,
      "d": 1163.8823437499814,
      "v": 106
    },
    {
      "midi": 40,
      "hit": false,
      "t": 213057.43199999997,
      "d": 1784.0881406249828,
      "v": 106
    },
    {
      "midi": 59,
      "hit": false,
      "t": 213669.66599999997,
      "d": 1176.6372187499946,
      "v": 98
    },
    {
      "midi": 64,
      "hit": false,
      "t": 214281.89999999997,
      "d": 578.7524531249946,
      "v": 109
    },
    {
      "midi": 62,
      "hit": false,
      "t": 214281.89999999997,
      "d": 586.7242499999993,
      "v": 116
    },
    {
      "midi": 67,
      "hit": false,
      "t": 214281.89999999997,
      "d": 589.9129687499953,
      "v": 95
    },
    {
      "midi": 60,
      "hit": false,
      "t": 214894.13399999996,
      "d": 443.2319062500028,
      "v": 103
    },
    {
      "midi": 69,
      "hit": false,
      "t": 214894.13399999996,
      "d": 1080.975656249997,
      "v": 83
    },
    {
      "midi": 67,
      "hit": false,
      "t": 214894.13399999996,
      "d": 1136.7782343750005,
      "v": 89
    },
    {
      "midi": 64,
      "hit": false,
      "t": 214894.13399999996,
      "d": 1806.4091718750133,
      "v": 101
    },
    {
      "midi": 45,
      "hit": false,
      "t": 214894.13399999996,
      "d": 1820.75840625001,
      "v": 109
    },
    {
      "midi": 60,
      "hit": false,
      "t": 215506.36799999996,
      "d": 1203.7413281250047,
      "v": 103
    },
    {
      "midi": 69,
      "hit": false,
      "t": 216118.60199999996,
      "d": 580.3468125000072,
      "v": 109
    },
    {
      "midi": 67,
      "hit": false,
      "t": 216424.71899999995,
      "d": 282.2016093750135,
      "v": 66
    },
    {
      "midi": 50,
      "hit": false,
      "t": 216730.83599999998,
      "d": 1811.1922499999637,
      "v": 101
    },
    {
      "midi": 74,
      "hit": false,
      "t": 216730.83599999998,
      "d": 1817.5696874999558,
      "v": 106
    },
    {
      "midi": 72,
      "hit": false,
      "t": 217036.95299999998,
      "d": 1482.754218749993,
      "v": 70
    },
    {
      "midi": 69,
      "hit": false,
      "t": 217343.06999999998,
      "d": 1189.3920937499788,
      "v": 66
    },
    {
      "midi": 66,
      "hit": false,
      "t": 217649.18699999998,
      "d": 889.6525312499725,
      "v": 68
    },
    {
      "midi": 64,
      "hit": false,
      "t": 217955.30399999997,
      "d": 207.26671875000466,
      "v": 83
    },
    {
      "midi": 62,
      "hit": false,
      "t": 218261.42099999997,
      "d": 261.4749374999956,
      "v": 103
    },
    {
      "midi": 62,
      "hit": false,
      "t": 218567.53799999994,
      "d": 487.8739687500056,
      "v": 116
    },
    {
      "midi": 66,
      "hit": false,
      "t": 218567.53799999994,
      "d": 731.8109531250084,
      "v": 88
    },
    {
      "midi": 67,
      "hit": false,
      "t": 218567.53799999994,
      "d": 1127.2120781250123,
      "v": 103
    },
    {
      "midi": 71,
      "hit": false,
      "t": 218567.53799999994,
      "d": 1133.5895156250044,
      "v": 106
    },
    {
      "midi": 43,
      "hit": false,
      "t": 218567.53799999994,
      "d": 1798.4373749999795,
      "v": 109
    },
    {
      "midi": 62,
      "hit": false,
      "t": 219179.77199999994,
      "d": 1176.6372187499946,
      "v": 103
    },
    {
      "midi": 71,
      "hit": false,
      "t": 219792.00599999994,
      "d": 588.3186093749828,
      "v": 106
    },
    {
      "midi": 67,
      "hit": false,
      "t": 220098.12299999993,
      "d": 277.4185312499758,
      "v": 83
    },
    {
      "midi": 59,
      "hit": false,
      "t": 220404.23999999993,
      "d": 530.9216718750249,
      "v": 106
    },
    {
      "midi": 64,
      "hit": false,
      "t": 220404.23999999993,
      "d": 1109.6741250000487,
      "v": 101
    },
    {
      "midi": 67,
      "hit": false,
      "t": 220404.23999999993,
      "d": 1143.1556718750508,
      "v": 98
    },
    {
      "midi": 62,
      "hit": false,
      "t": 220404.23999999993,
      "d": 1163.8823437500396,
      "v": 106
    },
    {
      "midi": 40,
      "hit": false,
      "t": 220404.23999999993,
      "d": 1784.08814062507,
      "v": 106
    },
    {
      "midi": 59,
      "hit": false,
      "t": 221016.47399999996,
      "d": 1176.6372187500529,
      "v": 98
    },
    {
      "midi": 64,
      "hit": false,
      "t": 221628.70799999998,
      "d": 578.7524531250237,
      "v": 109
    },
    {
      "midi": 62,
      "hit": false,
      "t": 221628.70799999998,
      "d": 586.7242500000284,
      "v": 116
    },
    {
      "midi": 67,
      "hit": false,
      "t": 221628.70799999998,
      "d": 589.9129687500244,
      "v": 95
    },
    {
      "midi": 60,
      "hit": false,
      "t": 222240.942,
      "d": 443.2319062500028,
      "v": 103
    },
    {
      "midi": 69,
      "hit": false,
      "t": 222240.942,
      "d": 1080.975656249997,
      "v": 83
    },
    {
      "midi": 67,
      "hit": false,
      "t": 222240.942,
      "d": 1136.7782343750005,
      "v": 89
    },
    {
      "midi": 64,
      "hit": false,
      "t": 222240.942,
      "d": 1806.4091718750133,
      "v": 101
    },
    {
      "midi": 45,
      "hit": false,
      "t": 222240.942,
      "d": 1820.75840625001,
      "v": 109
    },
    {
      "midi": 60,
      "hit": false,
      "t": 222853.176,
      "d": 1203.7413281250047,
      "v": 103
    },
    {
      "midi": 69,
      "hit": false,
      "t": 223465.41,
      "d": 580.3468125000072,
      "v": 109
    },
    {
      "midi": 67,
      "hit": false,
      "t": 223771.527,
      "d": 282.2016093750135,
      "v": 66
    },
    {
      "midi": 50,
      "hit": false,
      "t": 224077.64400000003,
      "d": 1811.1922500000219,
      "v": 101
    },
    {
      "midi": 74,
      "hit": false,
      "t": 224077.64400000003,
      "d": 1817.569687500014,
      "v": 106
    },
    {
      "midi": 72,
      "hit": false,
      "t": 224383.76100000003,
      "d": 1497.1034531250189,
      "v": 70
    },
    {
      "midi": 69,
      "hit": false,
      "t": 224689.87800000003,
      "d": 1189.392093750008,
      "v": 66
    },
    {
      "midi": 66,
      "hit": false,
      "t": 224995.99500000002,
      "d": 889.6525312500307,
      "v": 68
    },
    {
      "midi": 64,
      "hit": false,
      "t": 225302.11200000002,
      "d": 207.26671875000466,
      "v": 83
    },
    {
      "midi": 62,
      "hit": false,
      "t": 225608.22900000002,
      "d": 261.4749375000247,
      "v": 103
    },
    {
      "midi": 62,
      "hit": false,
      "t": 225914.34600000005,
      "d": 487.8739687500056,
      "v": 116
    },
    {
      "midi": 66,
      "hit": false,
      "t": 225914.34600000005,
      "d": 731.8109531250084,
      "v": 88
    },
    {
      "midi": 67,
      "hit": false,
      "t": 225914.34600000005,
      "d": 1127.2120781250123,
      "v": 103
    },
    {
      "midi": 71,
      "hit": false,
      "t": 225914.34600000005,
      "d": 1133.5895156250044,
      "v": 106
    },
    {
      "midi": 43,
      "hit": false,
      "t": 225914.34600000005,
      "d": 1831.9189218750107,
      "v": 109
    },
    {
      "midi": 62,
      "hit": false,
      "t": 226526.58000000005,
      "d": 1176.6372187499946,
      "v": 102
    },
    {
      "midi": 71,
      "hit": false,
      "t": 227138.81400000004,
      "d": 588.3186093750119,
      "v": 97
    },
    {
      "midi": 67,
      "hit": false,
      "t": 227444.93100000004,
      "d": 296.55084375001024,
      "v": 95
    },
    {
      "midi": 59,
      "hit": false,
      "t": 227751.04800000007,
      "d": 530.9216718750249,
      "v": 93
    },
    {
      "midi": 64,
      "hit": false,
      "t": 227751.04800000007,
      "d": 1109.6741250000487,
      "v": 93
    },
    {
      "midi": 67,
      "hit": false,
      "t": 227751.04800000007,
      "d": 1143.1556718750508,
      "v": 93
    },
    {
      "midi": 62,
      "hit": false,
      "t": 227751.04800000007,
      "d": 1163.8823437500396,
      "v": 93
    },
    {
      "midi": 40,
      "hit": false,
      "t": 227751.04800000007,
      "d": 1784.08814062507,
      "v": 93
    },
    {
      "midi": 59,
      "hit": false,
      "t": 228363.2820000001,
      "d": 1176.6372187500529,
      "v": 88
    },
    {
      "midi": 64,
      "hit": false,
      "t": 228975.51600000012,
      "d": 578.7524531250237,
      "v": 84
    },
    {
      "midi": 62,
      "hit": false,
      "t": 228975.51600000012,
      "d": 586.7242500000284,
      "v": 84
    },
    {
      "midi": 67,
      "hit": false,
      "t": 228975.51600000012,
      "d": 589.9129687500244,
      "v": 84
    },
    {
      "midi": 60,
      "hit": false,
      "t": 229587.75000000015,
      "d": 443.2319062500028,
      "v": 80
    },
    {
      "midi": 69,
      "hit": false,
      "t": 229587.75000000015,
      "d": 1080.975656249997,
      "v": 80
    },
    {
      "midi": 67,
      "hit": false,
      "t": 229587.75000000015,
      "d": 1136.7782343750005,
      "v": 80
    },
    {
      "midi": 64,
      "hit": false,
      "t": 229587.75000000015,
      "d": 1806.4091718750133,
      "v": 80
    },
    {
      "midi": 45,
      "hit": false,
      "t": 229587.75000000015,
      "d": 1820.75840625001,
      "v": 80
    },
    {
      "midi": 60,
      "hit": false,
      "t": 230199.98400000014,
      "d": 1203.7413281250047,
      "v": 75
    },
    {
      "midi": 69,
      "hit": false,
      "t": 230812.21800000014,
      "d": 580.3468125000072,
      "v": 71
    },
    {
      "midi": 67,
      "hit": false,
      "t": 231118.33500000014,
      "d": 282.2016093750135,
      "v": 69
    },
    {
      "midi": 50,
      "hit": false,
      "t": 231424.45200000016,
      "d": 1811.1922499999928,
      "v": 66
    },
    {
      "midi": 74,
      "hit": false,
      "t": 231424.45200000016,
      "d": 1817.569687500014,
      "v": 66
    },
    {
      "midi": 72,
      "hit": false,
      "t": 231730.56900000016,
      "d": 1524.2075625000289,
      "v": 64
    },
    {
      "midi": 69,
      "hit": false,
      "t": 232036.68600000016,
      "d": 1189.392093750008,
      "v": 62
    },
    {
      "midi": 66,
      "hit": false,
      "t": 232342.80300000016,
      "d": 894.4356093750102,
      "v": 60
    },
    {
      "midi": 64,
      "hit": false,
      "t": 232648.92000000016,
      "d": 207.26671875000466,
      "v": 57
    },
    {
      "midi": 62,
      "hit": false,
      "t": 232955.03700000016,
      "d": 261.4749375000247,
      "v": 55
    },
    {
      "midi": 62,
      "hit": false,
      "t": 233261.15400000018,
      "d": 487.8739687500056,
      "v": 53
    },
    {
      "midi": 66,
      "hit": false,
      "t": 233261.15400000018,
      "d": 731.8109531250084,
      "v": 53
    },
    {
      "midi": 67,
      "hit": false,
      "t": 233261.15400000018,
      "d": 1127.2120781250123,
      "v": 53
    },
    {
      "midi": 71,
      "hit": false,
      "t": 233261.15400000018,
      "d": 1133.5895156250044,
      "v": 53
    },
    {
      "midi": 43,
      "hit": false,
      "t": 233261.15400000018,
      "d": 1831.9189218750107,
      "v": 53
    },
    {
      "midi": 62,
      "hit": false,
      "t": 233873.38800000018,
      "d": 1176.6372187499946,
      "v": 49
    },
    {
      "midi": 71,
      "hit": false,
      "t": 234485.62200000018,
      "d": 588.3186093750119,
      "v": 44
    },
    {
      "midi": 67,
      "hit": false,
      "t": 234791.73900000018,
      "d": 296.55084375001024,
      "v": 42
    },
    {
      "midi": 59,
      "hit": false,
      "t": 235097.8560000002,
      "d": 530.9216718750249,
      "v": 40
    },
    {
      "midi": 64,
      "hit": false,
      "t": 235097.8560000002,
      "d": 1109.6741250000487,
      "v": 40
    },
    {
      "midi": 67,
      "hit": false,
      "t": 235097.8560000002,
      "d": 1143.1556718750508,
      "v": 40
    },
    {
      "midi": 62,
      "hit": false,
      "t": 235097.8560000002,
      "d": 1163.8823437500396,
      "v": 40
    },
    {
      "midi": 40,
      "hit": false,
      "t": 235097.8560000002,
      "d": 1784.08814062507,
      "v": 40
    },
    {
      "midi": 59,
      "hit": false,
      "t": 235710.09000000023,
      "d": 1176.6372187500529,
      "v": 35
    },
    {
      "midi": 64,
      "hit": false,
      "t": 236322.32400000026,
      "d": 578.7524531250237,
      "v": 31
    },
    {
      "midi": 62,
      "hit": false,
      "t": 236322.32400000026,
      "d": 586.7242500000284,
      "v": 31
    },
    {
      "midi": 67,
      "hit": false,
      "t": 236322.32400000026,
      "d": 589.9129687500244,
      "v": 31
    },
    {
      "midi": 60,
      "hit": false,
      "t": 236934.55800000028,
      "d": 443.2319062500028,
      "v": 27
    },
    {
      "midi": 69,
      "hit": false,
      "t": 236934.55800000028,
      "d": 1080.975656249997,
      "v": 27
    },
    {
      "midi": 67,
      "hit": false,
      "t": 236934.55800000028,
      "d": 1136.7782343750005,
      "v": 27
    },
    {
      "midi": 64,
      "hit": false,
      "t": 236934.55800000028,
      "d": 1806.4091718750133,
      "v": 27
    },
    {
      "midi": 45,
      "hit": false,
      "t": 236934.55800000028,
      "d": 1820.75840625001,
      "v": 27
    },
    {
      "midi": 60,
      "hit": false,
      "t": 237546.79200000028,
      "d": 1203.7413281250047,
      "v": 22
    },
    {
      "midi": 69,
      "hit": false,
      "t": 238159.02600000027,
      "d": 580.3468125000072,
      "v": 18
    },
    {
      "midi": 67,
      "hit": false,
      "t": 238465.14300000027,
      "d": 282.2016093750135,
      "v": 16
    },
    {
      "midi": 50,
      "hit": false,
      "t": 238771.2600000003,
      "d": 1811.1922499999637,
      "v": 13
    },
    {
      "midi": 74,
      "hit": false,
      "t": 238771.2600000003,
      "d": 1817.5696874999558,
      "v": 13
    },
    {
      "midi": 72,
      "hit": false,
      "t": 239077.3770000003,
      "d": 1524.2075624999707,
      "v": 11
    },
    {
      "midi": 69,
      "hit": false,
      "t": 239383.4940000003,
      "d": 1189.3920937499788,
      "v": 9
    },
    {
      "midi": 66,
      "hit": false,
      "t": 239689.6110000003,
      "d": 919.9453593749786,
      "v": 7
    },
    {
      "midi": 64,
      "hit": false,
      "t": 239995.7280000003,
      "d": 207.26671875000466,
      "v": 4
    },
    {
      "midi": 62,
      "hit": false,
      "t": 240301.8450000003,
      "d": 261.4749374999956,
      "v": 2
    }
  ]
}