{
  "jsonPath": "Unknown/Unknown/Intermezzo/hope.json",
  "path": "Unknown\\Unknown\\Intermezzo\\Hope.mid",
  "name": "Hope",
  "difficulty": "Advanced",
  "bpm": 64.99999458333379,
  "notes": [
    {
      "midi": 72,
      "hit": false,
      "t": 3692.308,
      "d": 461.53849999999966,
      "v": 30
    },
    {
      "midi": 74,
      "hit": false,
      "t": 3692.308,
      "d": 461.53849999999966,
      "v": 32
    },
    {
      "midi": 76,
      "hit": false,
      "t": 3692.308,
      "d": 461.53849999999966,
      "v": 54
    },
    {
      "midi": 60,
      "hit": false,
      "t": 3692.308,
      "d": 1153.8462499999996,
      "v": 43
    },
    {
      "midi": 67,
      "hit": false,
      "t": 4153.8465,
      "d": 692.3077499999999,
      "v": 16
    },
    {
      "midi": 72,
      "hit": false,
      "t": 4615.384999999999,
      "d": 923.0770000000002,
      "v": 26
    },
    {
      "midi": 76,
      "hit": false,
      "t": 5076.9235,
      "d": 461.53849999999966,
      "v": 55
    },
    {
      "midi": 72,
      "hit": false,
      "t": 5538.4619999999995,
      "d": 461.53849999999966,
      "v": 41
    },
    {
      "midi": 77,
      "hit": false,
      "t": 5538.4619999999995,
      "d": 461.53849999999966,
      "v": 65
    },
    {
      "midi": 53,
      "hit": false,
      "t": 5538.4619999999995,
      "d": 1153.8462499999996,
      "v": 53
    },
    {
      "midi": 76,
      "hit": false,
      "t": 6000.000499999999,
      "d": 461.53849999999966,
      "v": 46
    },
    {
      "midi": 60,
      "hit": false,
      "t": 6000.000499999999,
      "d": 692.3077499999999,
      "v": 40
    },
    {
      "midi": 65,
      "hit": false,
      "t": 6461.538999999999,
      "d": 230.76925000000028,
      "v": 33
    },
    {
      "midi": 72,
      "hit": false,
      "t": 6461.538999999999,
      "d": 230.76925000000028,
      "v": 47
    },
    {
      "midi": 69,
      "hit": false,
      "t": 6923.077499999999,
      "d": 461.53850000000057,
      "v": 40
    },
    {
      "midi": 67,
      "hit": false,
      "t": 7384.616,
      "d": 230.76925000000028,
      "v": 52
    },
    {
      "midi": 48,
      "hit": false,
      "t": 7384.616,
      "d": 923.0770000000011,
      "v": 47
    },
    {
      "midi": 55,
      "hit": false,
      "t": 7846.154500000001,
      "d": 461.53850000000057,
      "v": 33
    },
    {
      "midi": 60,
      "hit": false,
      "t": 8076.923750000001,
      "d": 230.76925000000028,
      "v": 49
    },
    {
      "midi": 62,
      "hit": false,
      "t": 8307.693000000001,
      "d": 230.76924999999937,
      "v": 47
    },
    {
      "midi": 64,
      "hit": false,
      "t": 8538.46225,
      "d": 230.76924999999937,
      "v": 60
    },
    {
      "midi": 57,
      "hit": false,
      "t": 9230.77,
      "d": 461.53850000000057,
      "v": 42
    },
    {
      "midi": 45,
      "hit": false,
      "t": 9230.77,
      "d": 923.0770000000011,
      "v": 37
    },
    {
      "midi": 60,
      "hit": false,
      "t": 9230.77,
      "d": 923.0770000000011,
      "v": 44
    },
    {
      "midi": 52,
      "hit": false,
      "t": 9692.308500000001,
      "d": 461.53850000000057,
      "v": 29
    },
    {
      "midi": 57,
      "hit": false,
      "t": 10153.847000000002,
      "d": 461.53850000000057,
      "v": 35
    },
    {
      "midi": 65,
      "hit": false,
      "t": 11076.924000000003,
      "d": 923.0769999999993,
      "v": 70
    },
    {
      "midi": 50,
      "hit": false,
      "t": 11076.924000000003,
      "d": 1153.8462499999987,
      "v": 66
    },
    {
      "midi": 57,
      "hit": false,
      "t": 11538.462500000001,
      "d": 692.3077499999999,
      "v": 38
    },
    {
      "midi": 62,
      "hit": false,
      "t": 12000.001000000002,
      "d": 230.76924999999937,
      "v": 51
    },
    {
      "midi": 69,
      "hit": false,
      "t": 12461.5395,
      "d": 461.53849999999875,
      "v": 62
    },
    {
      "midi": 67,
      "hit": false,
      "t": 12923.078,
      "d": 230.76924999999937,
      "v": 67
    },
    {
      "midi": 43,
      "hit": false,
      "t": 12923.078,
      "d": 923.0769999999975,
      "v": 55
    },
    {
      "midi": 72,
      "hit": false,
      "t": 13384.616499999998,
      "d": 230.76924999999937,
      "v": 76
    },
    {
      "midi": 55,
      "hit": false,
      "t": 13384.616499999998,
      "d": 692.3077499999981,
      "v": 53
    },
    {
      "midi": 67,
      "hit": false,
      "t": 13846.154999999997,
      "d": 230.76924999999937,
      "v": 70
    },
    {
      "midi": 71,
      "hit": false,
      "t": 13846.154999999997,
      "d": 230.76924999999937,
      "v": 82
    },
    {
      "midi": 67,
      "hit": false,
      "t": 14307.693499999996,
      "d": 230.76924999999937,
      "v": 59
    },
    {
      "midi": 72,
      "hit": false,
      "t": 14307.693499999996,
      "d": 230.76924999999937,
      "v": 69
    },
    {
      "midi": 67,
      "hit": false,
      "t": 14769.231999999996,
      "d": 230.76924999999937,
      "v": 66
    },
    {
      "midi": 72,
      "hit": false,
      "t": 14769.231999999996,
      "d": 230.76924999999937,
      "v": 76
    },
    {
      "midi": 48,
      "hit": false,
      "t": 14769.231999999996,
      "d": 692.3077499999981,
      "v": 57
    },
    {
      "midi": 55,
      "hit": false,
      "t": 15230.770499999995,
      "d": 230.76924999999937,
      "v": 36
    },
    {
      "midi": 67,
      "hit": false,
      "t": 15692.308999999994,
      "d": 230.76924999999937,
      "v": 70
    },
    {
      "midi": 62,
      "hit": false,
      "t": 16153.847499999993,
      "d": 230.7692500000012,
      "v": 49
    },
    {
      "midi": 43,
      "hit": false,
      "t": 16153.847499999993,
      "d": 461.5385000000024,
      "v": 50
    },
    {
      "midi": 36,
      "hit": false,
      "t": 16615.385999999995,
      "d": 923.0770000000011,
      "v": 50
    },
    {
      "midi": 55,
      "hit": false,
      "t": 16615.385999999995,
      "d": 923.0770000000011,
      "v": 46
    },
    {
      "midi": 64,
      "hit": false,
      "t": 16615.385999999995,
      "d": 923.0770000000011,
      "v": 50
    },
    {
      "midi": 60,
      "hit": false,
      "t": 16615.385999999995,
      "d": 1153.8462500000023,
      "v": 63
    },
    {
      "midi": 55,
      "hit": false,
      "t": 18230.770749999996,
      "d": 692.3077500000036,
      "v": 38
    },
    {
      "midi": 69,
      "hit": false,
      "t": 18461.539999999997,
      "d": 230.7692500000012,
      "v": 49
    },
    {
      "midi": 60,
      "hit": false,
      "t": 18461.539999999997,
      "d": 461.5385000000024,
      "v": 55
    },
    {
      "midi": 64,
      "hit": false,
      "t": 18461.539999999997,
      "d": 461.5385000000024,
      "v": 60
    },
    {
      "midi": 67,
      "hit": false,
      "t": 18461.539999999997,
      "d": 461.5385000000024,
      "v": 50
    },
    {
      "midi": 36,
      "hit": false,
      "t": 18461.539999999997,
      "d": 923.0770000000011,
      "v": 42
    },
    {
      "midi": 48,
      "hit": false,
      "t": 18461.539999999997,
      "d": 923.0770000000011,
      "v": 44
    },
    {
      "midi": 55,
      "hit": false,
      "t": 19384.617,
      "d": 461.53849999999875,
      "v": 48
    },
    {
      "midi": 60,
      "hit": false,
      "t": 19384.617,
      "d": 461.53849999999875,
      "v": 62
    },
    {
      "midi": 64,
      "hit": false,
      "t": 19384.617,
      "d": 461.53849999999875,
      "v": 56
    },
    {
      "midi": 67,
      "hit": false,
      "t": 19384.617,
      "d": 461.53849999999875,
      "v": 50
    },
    {
      "midi": 36,
      "hit": false,
      "t": 19846.155499999997,
      "d": 230.7692500000012,
      "v": 36
    },
    {
      "midi": 55,
      "hit": false,
      "t": 20307.694,
      "d": 461.53849999999875,
      "v": 42
    },
    {
      "midi": 60,
      "hit": false,
      "t": 20307.694,
      "d": 461.53849999999875,
      "v": 54
    },
    {
      "midi": 64,
      "hit": false,
      "t": 20307.694,
      "d": 461.53849999999875,
      "v": 50
    },
    {
      "midi": 67,
      "hit": false,
      "t": 20307.694,
      "d": 461.53849999999875,
      "v": 44
    },
    {
      "midi": 36,
      "hit": false,
      "t": 20307.694,
      "d": 1153.8462499999987,
      "v": 47
    },
    {
      "midi": 48,
      "hit": false,
      "t": 20769.2325,
      "d": 461.53849999999875,
      "v": 12
    },
    {
      "midi": 64,
      "hit": false,
      "t": 21230.770999999997,
      "d": 230.7692500000012,
      "v": 60
    },
    {
      "midi": 67,
      "hit": false,
      "t": 21230.770999999997,
      "d": 230.7692500000012,
      "v": 49
    },
    {
      "midi": 55,
      "hit": false,
      "t": 21230.770999999997,
      "d": 461.5385000000024,
      "v": 54
    },
    {
      "midi": 60,
      "hit": false,
      "t": 21230.770999999997,
      "d": 461.5385000000024,
      "v": 70
    },
    {
      "midi": 48,
      "hit": false,
      "t": 21692.3095,
      "d": 230.7692500000012,
      "v": 51
    },
    {
      "midi": 57,
      "hit": false,
      "t": 22153.847999999998,
      "d": 461.5385000000024,
      "v": 57
    },
    {
      "midi": 60,
      "hit": false,
      "t": 22153.847999999998,
      "d": 461.5385000000024,
      "v": 71
    },
    {
      "midi": 65,
      "hit": false,
      "t": 22153.847999999998,
      "d": 461.5385000000024,
      "v": 65
    },
    {
      "midi": 41,
      "hit": false,
      "t": 22153.847999999998,
      "d": 923.0770000000011,
      "v": 61
    },
    {
      "midi": 53,
      "hit": false,
      "t": 22615.3865,
      "d": 461.53849999999875,
      "v": 25
    },
    {
      "midi": 57,
      "hit": false,
      "t": 23076.925,
      "d": 461.53849999999875,
      "v": 59
    },
    {
      "midi": 65,
      "hit": false,
      "t": 23076.925,
      "d": 461.53849999999875,
      "v": 64
    },
    {
      "midi": 60,
      "hit": false,
      "t": 23076.925,
      "d": 692.3077499999999,
      "v": 79
    },
    {
      "midi": 41,
      "hit": false,
      "t": 23538.463499999998,
      "d": 230.7692500000012,
      "v": 51
    },
    {
      "midi": 55,
      "hit": false,
      "t": 24000.002,
      "d": 461.5385000000024,
      "v": 50
    },
    {
      "midi": 60,
      "hit": false,
      "t": 24000.002,
      "d": 461.5385000000024,
      "v": 50
    },
    {
      "midi": 64,
      "hit": false,
      "t": 24000.002,
      "d": 461.5385000000024,
      "v": 56
    },
    {
      "midi": 67,
      "hit": false,
      "t": 24000.002,
      "d": 461.5385000000024,
      "v": 43
    },
    {
      "midi": 36,
      "hit": false,
      "t": 24000.002,
      "d": 923.0770000000011,
      "v": 53
    },
    {
      "midi": 48,
      "hit": false,
      "t": 24461.540500000003,
      "d": 461.53849999999875,
      "v": 18
    },
    {
      "midi": 55,
      "hit": false,
      "t": 24923.079,
      "d": 461.53849999999875,
      "v": 53
    },
    {
      "midi": 60,
      "hit": false,
      "t": 24923.079,
      "d": 461.53849999999875,
      "v": 69
    },
    {
      "midi": 64,
      "hit": false,
      "t": 24923.079,
      "d": 461.53849999999875,
      "v": 62
    },
    {
      "midi": 67,
      "hit": false,
      "t": 24923.079,
      "d": 461.53849999999875,
      "v": 49
    },
    {
      "midi": 48,
      "hit": false,
      "t": 25384.6175,
      "d": 230.7692500000012,
      "v": 49
    },
    {
      "midi": 57,
      "hit": false,
      "t": 25615.38675,
      "d": 923.0770000000011,
      "v": 44
    },
    {
      "midi": 38,
      "hit": false,
      "t": 25846.156000000003,
      "d": 461.53849999999875,
      "v": 45
    },
    {
      "midi": 62,
      "hit": false,
      "t": 25846.156000000003,
      "d": 692.3077499999999,
      "v": 56
    },
    {
      "midi": 65,
      "hit": false,
      "t": 25846.156000000003,
      "d": 692.3077499999999,
      "v": 67
    },
    {
      "midi": 50,
      "hit": false,
      "t": 26307.6945,
      "d": 230.7692500000012,
      "v": 49
    },
    {
      "midi": 52,
      "hit": false,
      "t": 26538.463750000003,
      "d": 230.7692500000012,
      "v": 38
    },
    {
      "midi": 53,
      "hit": false,
      "t": 26538.463750000003,
      "d": 230.7692500000012,
      "v": 39
    },
    {
      "midi": 57,
      "hit": false,
      "t": 26769.233000000004,
      "d": 230.7692500000012,
      "v": 62
    },
    {
      "midi": 62,
      "hit": false,
      "t": 27000.002250000005,
      "d": 230.7692500000012,
      "v": 77
    },
    {
      "midi": 57,
      "hit": false,
      "t": 27230.771500000006,
      "d": 230.7692500000012,
      "v": 11
    },
    {
      "midi": 65,
      "hit": false,
      "t": 27230.771500000006,
      "d": 230.7692500000012,
      "v": 84
    },
    {
      "midi": 55,
      "hit": false,
      "t": 27461.540750000007,
      "d": 461.53849999999875,
      "v": 51
    },
    {
      "midi": 59,
      "hit": false,
      "t": 27461.540750000007,
      "d": 461.53849999999875,
      "v": 52
    },
    {
      "midi": 62,
      "hit": false,
      "t": 27692.310000000005,
      "d": 230.7692500000012,
      "v": 71
    },
    {
      "midi": 43,
      "hit": false,
      "t": 27692.310000000005,
      "d": 923.0770000000011,
      "v": 53
    },
    {
      "midi": 50,
      "hit": false,
      "t": 28153.848500000007,
      "d": 461.53849999999875,
      "v": 15
    },
    {
      "midi": 62,
      "hit": false,
      "t": 28615.387000000006,
      "d": 230.7692500000012,
      "v": 55
    },
    {
      "midi": 67,
      "hit": false,
      "t": 28615.387000000006,
      "d": 230.7692500000012,
      "v": 64
    },
    {
      "midi": 43,
      "hit": false,
      "t": 29076.92550000001,
      "d": 230.7692500000012,
      "v": 45
    },
    {
      "midi": 36,
      "hit": false,
      "t": 29538.46400000001,
      "d": 461.5385000000024,
      "v": 47
    },
    {
      "midi": 55,
      "hit": false,
      "t": 29538.46400000001,
      "d": 692.3077500000036,
      "v": 40
    },
    {
      "midi": 60,
      "hit": false,
      "t": 29538.46400000001,
      "d": 692.3077500000036,
      "v": 57
    },
    {
      "midi": 64,
      "hit": false,
      "t": 29538.46400000001,
      "d": 692.3077500000036,
      "v": 55
    },
    {
      "midi": 48,
      "hit": false,
      "t": 30000.002500000013,
      "d": 230.7692500000012,
      "v": 29
    },
    {
      "midi": 52,
      "hit": false,
      "t": 30230.771750000014,
      "d": 230.7692500000012,
      "v": 54
    },
    {
      "midi": 55,
      "hit": false,
      "t": 30461.541000000016,
      "d": 230.7692500000012,
      "v": 54
    },
    {
      "midi": 60,
      "hit": false,
      "t": 30692.310250000017,
      "d": 230.7692500000012,
      "v": 94
    },
    {
      "midi": 55,
      "hit": false,
      "t": 31384.618000000017,
      "d": 230.76924999999756,
      "v": 54
    },
    {
      "midi": 57,
      "hit": false,
      "t": 31384.618000000017,
      "d": 461.53849999999875,
      "v": 49
    },
    {
      "midi": 60,
      "hit": false,
      "t": 31384.618000000017,
      "d": 461.53849999999875,
      "v": 64
    },
    {
      "midi": 65,
      "hit": false,
      "t": 31384.618000000017,
      "d": 461.53849999999875,
      "v": 68
    },
    {
      "midi": 43,
      "hit": false,
      "t": 31384.618000000017,
      "d": 923.0769999999975,
      "v": 56
    },
    {
      "midi": 50,
      "hit": false,
      "t": 31846.156500000016,
      "d": 461.53849999999875,
      "v": 49
    },
    {
      "midi": 55,
      "hit": false,
      "t": 32307.695000000014,
      "d": 230.7692500000012,
      "v": 59
    },
    {
      "midi": 59,
      "hit": false,
      "t": 32307.695000000014,
      "d": 230.7692500000012,
      "v": 66
    },
    {
      "midi": 62,
      "hit": false,
      "t": 32307.695000000014,
      "d": 230.7692500000012,
      "v": 61
    },
    {
      "midi": 43,
      "hit": false,
      "t": 32769.23350000002,
      "d": 230.76924999999756,
      "v": 51
    },
    {
      "midi": 55,
      "hit": false,
      "t": 33230.77200000001,
      "d": 461.5385000000024,
      "v": 43
    },
    {
      "midi": 60,
      "hit": false,
      "t": 33230.77200000001,
      "d": 461.5385000000024,
      "v": 57
    },
    {
      "midi": 64,
      "hit": false,
      "t": 33230.77200000001,
      "d": 461.5385000000024,
      "v": 55
    },
    {
      "midi": 67,
      "hit": false,
      "t": 33230.77200000001,
      "d": 461.5385000000024,
      "v": 44
    },
    {
      "midi": 36,
      "hit": false,
      "t": 33230.77200000001,
      "d": 923.0770000000048,
      "v": 54
    },
    {
      "midi": 48,
      "hit": false,
      "t": 33692.310500000014,
      "d": 692.3077499999999,
      "v": 14
    },
    {
      "midi": 55,
      "hit": false,
      "t": 34153.84900000002,
      "d": 461.5384999999951,
      "v": 50
    },
    {
      "midi": 60,
      "hit": false,
      "t": 34153.84900000002,
      "d": 461.5384999999951,
      "v": 55
    },
    {
      "midi": 64,
      "hit": false,
      "t": 34153.84900000002,
      "d": 461.5384999999951,
      "v": 49
    },
    {
      "midi": 67,
      "hit": false,
      "t": 34153.84900000002,
      "d": 461.5384999999951,
      "v": 38
    },
    {
      "midi": 36,
      "hit": false,
      "t": 34615.38750000001,
      "d": 1615.3847500000047,
      "v": 25
    },
    {
      "midi": 55,
      "hit": false,
      "t": 35076.926000000014,
      "d": 461.5385000000024,
      "v": 53
    },
    {
      "midi": 60,
      "hit": false,
      "t": 35076.926000000014,
      "d": 461.5385000000024,
      "v": 66
    },
    {
      "midi": 64,
      "hit": false,
      "t": 35076.926000000014,
      "d": 461.5385000000024,
      "v": 45
    },
    {
      "midi": 67,
      "hit": false,
      "t": 35076.926000000014,
      "d": 461.5385000000024,
      "v": 39
    },
    {
      "midi": 48,
      "hit": false,
      "t": 35538.46450000002,
      "d": 461.5385000000024,
      "v": 14
    },
    {
      "midi": 55,
      "hit": false,
      "t": 36000.00300000002,
      "d": 230.76924999999756,
      "v": 55
    },
    {
      "midi": 64,
      "hit": false,
      "t": 36000.00300000002,
      "d": 230.76924999999756,
      "v": 63
    },
    {
      "midi": 60,
      "hit": false,
      "t": 36000.00300000002,
      "d": 461.5384999999951,
      "v": 74
    },
    {
      "midi": 67,
      "hit": false,
      "t": 36000.00300000002,
      "d": 461.5384999999951,
      "v": 52
    },
    {
      "midi": 48,
      "hit": false,
      "t": 36461.541500000014,
      "d": 230.76924999999756,
      "v": 47
    },
    {
      "midi": 57,
      "hit": false,
      "t": 36923.080000000016,
      "d": 461.5384999999951,
      "v": 60
    },
    {
      "midi": 60,
      "hit": false,
      "t": 36923.080000000016,
      "d": 461.5384999999951,
      "v": 66
    },
    {
      "midi": 65,
      "hit": false,
      "t": 36923.080000000016,
      "d": 461.5384999999951,
      "v": 61
    },
    {
      "midi": 67,
      "hit": false,
      "t": 36923.080000000016,
      "d": 461.5384999999951,
      "v": 53
    },
    {
      "midi": 41,
      "hit": false,
      "t": 36923.080000000016,
      "d": 923.0769999999975,
      "v": 57
    },
    {
      "midi": 53,
      "hit": false,
      "t": 37384.61850000001,
      "d": 461.5385000000024,
      "v": 27
    },
    {
      "midi": 65,
      "hit": false,
      "t": 37846.157000000014,
      "d": 230.76924999999756,
      "v": 62
    },
    {
      "midi": 67,
      "hit": false,
      "t": 37846.157000000014,
      "d": 230.76924999999756,
      "v": 54
    },
    {
      "midi": 57,
      "hit": false,
      "t": 37846.157000000014,
      "d": 461.5384999999951,
      "v": 59
    },
    {
      "midi": 60,
      "hit": false,
      "t": 37846.157000000014,
      "d": 461.5384999999951,
      "v": 67
    },
    {
      "midi": 41,
      "hit": false,
      "t": 38307.69550000001,
      "d": 230.76924999999756,
      "v": 45
    },
    {
      "midi": 36,
      "hit": false,
      "t": 38769.23400000001,
      "d": 461.5385000000024,
      "v": 44
    },
    {
      "midi": 55,
      "hit": false,
      "t": 38769.23400000001,
      "d": 461.5385000000024,
      "v": 57
    },
    {
      "midi": 64,
      "hit": false,
      "t": 38769.23400000001,
      "d": 461.5385000000024,
      "v": 59
    },
    {
      "midi": 60,
      "hit": false,
      "t": 38769.23400000001,
      "d": 692.3077499999999,
      "v": 70
    },
    {
      "midi": 37,
      "hit": false,
      "t": 39692.311000000016,
      "d": 461.5385000000024,
      "v": 50
    },
    {
      "midi": 49,
      "hit": false,
      "t": 39692.311000000016,
      "d": 461.5385000000024,
      "v": 47
    },
    {
      "midi": 55,
      "hit": false,
      "t": 39692.311000000016,
      "d": 461.5385000000024,
      "v": 45
    },
    {
      "midi": 61,
      "hit": false,
      "t": 39692.311000000016,
      "d": 461.5385000000024,
      "v": 57
    },
    {
      "midi": 64,
      "hit": false,
      "t": 39692.311000000016,
      "d": 461.5385000000024,
      "v": 73
    },
    {
      "midi": 57,
      "hit": false,
      "t": 40615.38800000002,
      "d": 461.5385000000024,
      "v": 46
    },
    {
      "midi": 62,
      "hit": false,
      "t": 40615.38800000002,
      "d": 461.5385000000024,
      "v": 59
    },
    {
      "midi": 65,
      "hit": false,
      "t": 40615.38800000002,
      "d": 461.5385000000024,
      "v": 63
    },
    {
      "midi": 38,
      "hit": false,
      "t": 40615.38800000002,
      "d": 1153.8462500000023,
      "v": 63
    },
    {
      "midi": 50,
      "hit": false,
      "t": 41076.92650000002,
      "d": 461.5385000000024,
      "v": 38
    },
    {
      "midi": 57,
      "hit": false,
      "t": 41538.465000000026,
      "d": 230.76924999999756,
      "v": 60
    },
    {
      "midi": 62,
      "hit": false,
      "t": 41538.465000000026,
      "d": 230.76924999999756,
      "v": 70
    },
    {
      "midi": 65,
      "hit": false,
      "t": 41538.465000000026,
      "d": 230.76924999999756,
      "v": 66
    },
    {
      "midi": 50,
      "hit": false,
      "t": 42000.00350000002,
      "d": 230.76924999999756,
      "v": 43
    },
    {
      "midi": 55,
      "hit": false,
      "t": 42461.542000000016,
      "d": 230.76924999999756,
      "v": 66
    },
    {
      "midi": 59,
      "hit": false,
      "t": 42461.542000000016,
      "d": 230.76924999999756,
      "v": 72
    },
    {
      "midi": 62,
      "hit": false,
      "t": 42461.542000000016,
      "d": 230.76924999999756,
      "v": 66
    },
    {
      "midi": 43,
      "hit": false,
      "t": 42461.542000000016,
      "d": 1153.8462499999878,
      "v": 57
    },
    {
      "midi": 50,
      "hit": false,
      "t": 42923.08050000001,
      "d": 692.3077499999927,
      "v": 55
    },
    {
      "midi": 55,
      "hit": false,
      "t": 43153.84975000001,
      "d": 230.76924999999756,
      "v": 55
    },
    {
      "midi": 62,
      "hit": false,
      "t": 43384.619000000006,
      "d": 230.76924999999756,
      "v": 66
    },
    {
      "midi": 67,
      "hit": false,
      "t": 43384.619000000006,
      "d": 230.76924999999756,
      "v": 77
    },
    {
      "midi": 55,
      "hit": false,
      "t": 43615.38825,
      "d": 230.76924999999756,
      "v": 62
    },
    {
      "midi": 62,
      "hit": false,
      "t": 43846.1575,
      "d": 230.76924999999756,
      "v": 67
    },
    {
      "midi": 60,
      "hit": false,
      "t": 44076.92675,
      "d": 461.5385000000024,
      "v": 40
    },
    {
      "midi": 62,
      "hit": false,
      "t": 44307.696,
      "d": 230.76924999999756,
      "v": 52
    },
    {
      "midi": 64,
      "hit": false,
      "t": 44307.696,
      "d": 461.5384999999951,
      "v": 46
    },
    {
      "midi": 48,
      "hit": false,
      "t": 44307.696,
      "d": 923.0769999999975,
      "v": 59
    },
    {
      "midi": 55,
      "hit": false,
      "t": 44769.2345,
      "d": 461.5385000000024,
      "v": 46
    },
    {
      "midi": 60,
      "hit": false,
      "t": 45230.773,
      "d": 230.76924999999756,
      "v": 69
    },
    {
      "midi": 64,
      "hit": false,
      "t": 45230.773,
      "d": 230.76924999999756,
      "v": 66
    },
    {
      "midi": 48,
      "hit": false,
      "t": 45692.311499999996,
      "d": 230.76924999999756,
      "v": 52
    },
    {
      "midi": 60,
      "hit": false,
      "t": 46153.84999999999,
      "d": 230.76924999999756,
      "v": 70
    },
    {
      "midi": 64,
      "hit": false,
      "t": 46153.84999999999,
      "d": 461.5384999999951,
      "v": 70
    },
    {
      "midi": 67,
      "hit": false,
      "t": 46153.84999999999,
      "d": 461.5384999999951,
      "v": 66
    },
    {
      "midi": 48,
      "hit": false,
      "t": 46153.84999999999,
      "d": 692.3077499999927,
      "v": 60
    },
    {
      "midi": 55,
      "hit": false,
      "t": 46615.38849999999,
      "d": 230.76924999999756,
      "v": 39
    },
    {
      "midi": 60,
      "hit": false,
      "t": 46615.38849999999,
      "d": 230.76924999999756,
      "v": 69
    },
    {
      "midi": 60,
      "hit": false,
      "t": 47076.92699999998,
      "d": 230.76924999999756,
      "v": 81
    },
    {
      "midi": 64,
      "hit": false,
      "t": 47076.92699999998,
      "d": 230.76924999999756,
      "v": 83
    },
    {
      "midi": 67,
      "hit": false,
      "t": 47076.92699999998,
      "d": 230.76924999999756,
      "v": 77
    },
    {
      "midi": 45,
      "hit": false,
      "t": 47307.69624999998,
      "d": 230.76924999999756,
      "v": 66
    },
    {
      "midi": 60,
      "hit": false,
      "t": 47538.46549999998,
      "d": 230.76924999999756,
      "v": 59
    },
    {
      "midi": 64,
      "hit": false,
      "t": 47538.46549999998,
      "d": 230.76924999999756,
      "v": 63
    },
    {
      "midi": 67,
      "hit": false,
      "t": 47538.46549999998,
      "d": 230.76924999999756,
      "v": 70
    },
    {
      "midi": 62,
      "hit": false,
      "t": 48000.00399999997,
      "d": 230.76924999999756,
      "v": 67
    },
    {
      "midi": 67,
      "hit": false,
      "t": 48000.00399999997,
      "d": 230.76924999999756,
      "v": 75
    },
    {
      "midi": 71,
      "hit": false,
      "t": 48000.00399999997,
      "d": 230.76924999999756,
      "v": 71
    },
    {
      "midi": 43,
      "hit": false,
      "t": 48000.00399999997,
      "d": 923.0769999999975,
      "v": 62
    },
    {
      "midi": 55,
      "hit": false,
      "t": 48461.54249999997,
      "d": 461.5385000000024,
      "v": 19
    },
    {
      "midi": 62,
      "hit": false,
      "t": 48923.08099999997,
      "d": 230.76924999999756,
      "v": 53
    },
    {
      "midi": 74,
      "hit": false,
      "t": 48923.08099999997,
      "d": 230.76924999999756,
      "v": 60
    },
    {
      "midi": 67,
      "hit": false,
      "t": 48923.08099999997,
      "d": 461.5384999999951,
      "v": 62
    },
    {
      "midi": 43,
      "hit": false,
      "t": 49384.619499999964,
      "d": 230.76924999999756,
      "v": 53
    },
    {
      "midi": 62,
      "hit": false,
      "t": 49846.15799999996,
      "d": 461.5385000000024,
      "v": 48
    },
    {
      "midi": 67,
      "hit": false,
      "t": 49846.15799999996,
      "d": 461.5385000000024,
      "v": 63
    },
    {
      "midi": 71,
      "hit": false,
      "t": 49846.15799999996,
      "d": 461.5385000000024,
      "v": 72
    },
    {
      "midi": 43,
      "hit": false,
      "t": 49846.15799999996,
      "d": 1384.6154999999926,
      "v": 62
    },
    {
      "midi": 55,
      "hit": false,
      "t": 50307.69649999996,
      "d": 692.3077499999927,
      "v": 42
    },
    {
      "midi": 62,
      "hit": false,
      "t": 50538.46574999996,
      "d": 230.76924999999756,
      "v": 57
    },
    {
      "midi": 67,
      "hit": false,
      "t": 50769.23499999996,
      "d": 230.76924999999756,
      "v": 83
    },
    {
      "midi": 71,
      "hit": false,
      "t": 51000.004249999954,
      "d": 230.76924999999756,
      "v": 92
    },
    {
      "midi": 55,
      "hit": false,
      "t": 51230.77349999995,
      "d": 230.76924999999756,
      "v": 62
    },
    {
      "midi": 60,
      "hit": false,
      "t": 51692.311999999954,
      "d": 461.5384999999951,
      "v": 60
    },
    {
      "midi": 64,
      "hit": false,
      "t": 51692.311999999954,
      "d": 461.5384999999951,
      "v": 57
    },
    {
      "midi": 67,
      "hit": false,
      "t": 51692.311999999954,
      "d": 461.5384999999951,
      "v": 73
    },
    {
      "midi": 48,
      "hit": false,
      "t": 51692.311999999954,
      "d": 923.0769999999902,
      "v": 62
    },
    {
      "midi": 55,
      "hit": false,
      "t": 52153.85049999995,
      "d": 230.76924999999756,
      "v": 33
    },
    {
      "midi": 60,
      "hit": false,
      "t": 52615.388999999945,
      "d": 230.76924999999756,
      "v": 66
    },
    {
      "midi": 64,
      "hit": false,
      "t": 52615.388999999945,
      "d": 230.76924999999756,
      "v": 66
    },
    {
      "midi": 67,
      "hit": false,
      "t": 52615.388999999945,
      "d": 230.76924999999756,
      "v": 66
    },
    {
      "midi": 43,
      "hit": false,
      "t": 53076.92749999994,
      "d": 461.5385000000024,
      "v": 52
    },
    {
      "midi": 55,
      "hit": false,
      "t": 53538.46599999994,
      "d": 461.5385000000024,
      "v": 56
    },
    {
      "midi": 64,
      "hit": false,
      "t": 53538.46599999994,
      "d": 461.5385000000024,
      "v": 61
    },
    {
      "midi": 60,
      "hit": false,
      "t": 53538.46599999994,
      "d": 692.3077499999999,
      "v": 70
    },
    {
      "midi": 36,
      "hit": false,
      "t": 53538.46599999994,
      "d": 1384.6154999999926,
      "v": 49
    },
    {
      "midi": 48,
      "hit": false,
      "t": 54000.004499999945,
      "d": 692.3077499999927,
      "v": 34
    },
    {
      "midi": 55,
      "hit": false,
      "t": 54230.77374999994,
      "d": 461.5384999999951,
      "v": 51
    },
    {
      "midi": 60,
      "hit": false,
      "t": 54461.54299999994,
      "d": 230.76924999999756,
      "v": 92
    },
    {
      "midi": 64,
      "hit": false,
      "t": 54692.31224999994,
      "d": 230.76924999999756,
      "v": 90
    },
    {
      "midi": 48,
      "hit": false,
      "t": 54923.081499999935,
      "d": 230.76924999999756,
      "v": 60
    },
    {
      "midi": 60,
      "hit": false,
      "t": 55384.61999999993,
      "d": 461.5384999999951,
      "v": 67
    },
    {
      "midi": 65,
      "hit": false,
      "t": 55384.61999999993,
      "d": 461.5384999999951,
      "v": 66
    },
    {
      "midi": 69,
      "hit": false,
      "t": 55384.61999999993,
      "d": 461.5384999999951,
      "v": 59
    },
    {
      "midi": 41,
      "hit": false,
      "t": 55384.61999999993,
      "d": 923.0769999999975,
      "v": 63
    },
    {
      "midi": 53,
      "hit": false,
      "t": 55846.158499999925,
      "d": 461.5385000000024,
      "v": 20
    },
    {
      "midi": 60,
      "hit": false,
      "t": 56307.69699999993,
      "d": 461.5385000000024,
      "v": 76
    },
    {
      "midi": 65,
      "hit": false,
      "t": 56307.69699999993,
      "d": 461.5385000000024,
      "v": 72
    },
    {
      "midi": 69,
      "hit": false,
      "t": 56307.69699999993,
      "d": 461.5385000000024,
      "v": 65
    },
    {
      "midi": 40,
      "hit": false,
      "t": 56769.23549999993,
      "d": 230.76924999999756,
      "v": 50
    },
    {
      "midi": 52,
      "hit": false,
      "t": 56769.23549999993,
      "d": 230.76924999999756,
      "v": 53
    },
    {
      "midi": 38,
      "hit": false,
      "t": 57230.77399999993,
      "d": 230.76924999999756,
      "v": 63
    },
    {
      "midi": 50,
      "hit": false,
      "t": 57230.77399999993,
      "d": 230.76924999999756,
      "v": 60
    },
    {
      "midi": 62,
      "hit": false,
      "t": 57230.77399999993,
      "d": 461.5384999999951,
      "v": 60
    },
    {
      "midi": 66,
      "hit": false,
      "t": 57230.77399999993,
      "d": 461.5384999999951,
      "v": 67
    },
    {
      "midi": 69,
      "hit": false,
      "t": 57230.77399999993,
      "d": 461.5384999999951,
      "v": 63
    },
    {
      "midi": 50,
      "hit": false,
      "t": 57692.31249999993,
      "d": 692.3077499999927,
      "v": 56
    },
    {
      "midi": 57,
      "hit": false,
      "t": 57923.081749999925,
      "d": 461.5384999999951,
      "v": 54
    },
    {
      "midi": 62,
      "hit": false,
      "t": 58153.85099999992,
      "d": 230.76924999999756,
      "v": 69
    },
    {
      "midi": 66,
      "hit": false,
      "t": 58384.62024999992,
      "d": 230.76924999999756,
      "v": 87
    },
    {
      "midi": 69,
      "hit": false,
      "t": 58615.38949999992,
      "d": 230.76924999999756,
      "v": 87
    },
    {
      "midi": 62,
      "hit": false,
      "t": 58846.158749999915,
      "d": 692.3077500000072,
      "v": 51
    },
    {
      "midi": 67,
      "hit": false,
      "t": 58846.158749999915,
      "d": 692.3077500000072,
      "v": 59
    },
    {
      "midi": 71,
      "hit": false,
      "t": 59076.92799999992,
      "d": 461.5385000000024,
      "v": 75
    },
    {
      "midi": 43,
      "hit": false,
      "t": 59076.92799999992,
      "d": 923.0770000000048,
      "v": 63
    },
    {
      "midi": 55,
      "hit": false,
      "t": 59538.46649999992,
      "d": 461.5385000000024,
      "v": 20
    },
    {
      "midi": 62,
      "hit": false,
      "t": 60000.004999999925,
      "d": 461.5385000000024,
      "v": 66
    },
    {
      "midi": 67,
      "hit": false,
      "t": 60000.004999999925,
      "d": 461.5385000000024,
      "v": 70
    },
    {
      "midi": 71,
      "hit": false,
      "t": 60000.004999999925,
      "d": 461.5385000000024,
      "v": 64
    },
    {
      "midi": 43,
      "hit": false,
      "t": 60461.54349999993,
      "d": 230.76924999999756,
      "v": 38
    },
    {
      "midi": 55,
      "hit": false,
      "t": 60461.54349999993,
      "d": 230.76924999999756,
      "v": 65
    },
    {
      "midi": 43,
      "hit": false,
      "t": 60923.08199999992,
      "d": 230.76924999999756,
      "v": 54
    },
    {
      "midi": 55,
      "hit": false,
      "t": 60923.08199999992,
      "d": 230.76924999999756,
      "v": 58
    },
    {
      "midi": 62,
      "hit": false,
      "t": 60923.08199999992,
      "d": 230.76924999999756,
      "v": 66
    },
    {
      "midi": 71,
      "hit": false,
      "t": 60923.08199999992,
      "d": 230.76924999999756,
      "v": 70
    },
    {
      "midi": 67,
      "hit": false,
      "t": 60923.08199999992,
      "d": 461.5384999999951,
      "v": 76
    },
    {
      "midi": 62,
      "hit": false,
      "t": 61384.62049999992,
      "d": 230.76924999999756,
      "v": 49
    },
    {
      "midi": 45,
      "hit": false,
      "t": 61846.15899999991,
      "d": 230.76924999999756,
      "v": 49
    },
    {
      "midi": 57,
      "hit": false,
      "t": 61846.15899999991,
      "d": 230.76924999999756,
      "v": 55
    },
    {
      "midi": 62,
      "hit": false,
      "t": 61846.15899999991,
      "d": 230.76924999999756,
      "v": 77
    },
    {
      "midi": 67,
      "hit": false,
      "t": 61846.15899999991,
      "d": 230.76924999999756,
      "v": 82
    },
    {
      "midi": 71,
      "hit": false,
      "t": 61846.15899999991,
      "d": 230.76924999999756,
      "v": 77
    },
    {
      "midi": 67,
      "hit": false,
      "t": 62769.23599999992,
      "d": 230.76924999999756,
      "v": 63
    },
    {
      "midi": 72,
      "hit": false,
      "t": 62769.23599999992,
      "d": 230.76924999999756,
      "v": 66
    },
    {
      "midi": 76,
      "hit": false,
      "t": 62769.23599999992,
      "d": 230.76924999999756,
      "v": 66
    },
    {
      "midi": 36,
      "hit": false,
      "t": 62769.23599999992,
      "d": 923.0769999999975,
      "v": 39
    },
    {
      "midi": 48,
      "hit": false,
      "t": 63230.77449999991,
      "d": 461.5385000000024,
      "v": 17
    },
    {
      "midi": 60,
      "hit": false,
      "t": 63692.312999999915,
      "d": 230.76924999999756,
      "v": 70
    },
    {
      "midi": 64,
      "hit": false,
      "t": 63692.312999999915,
      "d": 461.5384999999951,
      "v": 70
    },
    {
      "midi": 67,
      "hit": false,
      "t": 63692.312999999915,
      "d": 461.5384999999951,
      "v": 66
    },
    {
      "midi": 48,
      "hit": false,
      "t": 64153.85149999991,
      "d": 230.76924999999756,
      "v": 56
    },
    {
      "midi": 60,
      "hit": false,
      "t": 64615.38999999991,
      "d": 461.5384999999951,
      "v": 78
    },
    {
      "midi": 65,
      "hit": false,
      "t": 64615.38999999991,
      "d": 461.5384999999951,
      "v": 77
    },
    {
      "midi": 69,
      "hit": false,
      "t": 64615.38999999991,
      "d": 461.5384999999951,
      "v": 70
    },
    {
      "midi": 41,
      "hit": false,
      "t": 64615.38999999991,
      "d": 1153.8462499999878,
      "v": 66
    },
    {
      "midi": 53,
      "hit": false,
      "t": 65076.92849999991,
      "d": 692.3077499999927,
      "v": 41
    },
    {
      "midi": 60,
      "hit": false,
      "t": 65307.697749999905,
      "d": 230.76924999999756,
      "v": 59
    },
    {
      "midi": 65,
      "hit": false,
      "t": 65538.4669999999,
      "d": 230.76924999999756,
      "v": 81
    },
    {
      "midi": 69,
      "hit": false,
      "t": 65769.2362499999,
      "d": 230.76924999999756,
      "v": 97
    },
    {
      "midi": 60,
      "hit": false,
      "t": 66461.54399999989,
      "d": 230.76924999999756,
      "v": 58
    },
    {
      "midi": 64,
      "hit": false,
      "t": 66461.54399999989,
      "d": 230.76924999999756,
      "v": 59
    },
    {
      "midi": 67,
      "hit": false,
      "t": 66461.54399999989,
      "d": 230.76924999999756,
      "v": 62
    },
    {
      "midi": 36,
      "hit": false,
      "t": 66461.54399999989,
      "d": 461.5384999999951,
      "v": 47
    },
    {
      "midi": 47,
      "hit": false,
      "t": 67384.62099999988,
      "d": 230.76924999999756,
      "v": 60
    },
    {
      "midi": 55,
      "hit": false,
      "t": 67384.62099999988,
      "d": 230.76924999999756,
      "v": 50
    },
    {
      "midi": 60,
      "hit": false,
      "t": 67384.62099999988,
      "d": 230.76924999999756,
      "v": 66
    },
    {
      "midi": 64,
      "hit": false,
      "t": 67384.62099999988,
      "d": 230.76924999999756,
      "v": 55
    },
    {
      "midi": 57,
      "hit": false,
      "t": 68307.69799999987,
      "d": 461.5384999999951,
      "v": 61
    },
    {
      "midi": 60,
      "hit": false,
      "t": 68307.69799999987,
      "d": 461.5384999999951,
      "v": 71
    },
    {
      "midi": 64,
      "hit": false,
      "t": 68307.69799999987,
      "d": 461.5384999999951,
      "v": 60
    },
    {
      "midi": 45,
      "hit": false,
      "t": 68307.69799999987,
      "d": 692.3077499999927,
      "v": 59
    },
    {
      "midi": 52,
      "hit": false,
      "t": 68769.23649999987,
      "d": 230.76924999999756,
      "v": 44
    },
    {
      "midi": 57,
      "hit": false,
      "t": 69000.00574999987,
      "d": 230.76924999999756,
      "v": 56
    },
    {
      "midi": 60,
      "hit": false,
      "t": 69230.77499999986,
      "d": 230.76924999999756,
      "v": 70
    },
    {
      "midi": 64,
      "hit": false,
      "t": 69461.54424999986,
      "d": 230.76924999999756,
      "v": 104
    },
    {
      "midi": 57,
      "hit": false,
      "t": 70153.85199999987,
      "d": 461.5384999999951,
      "v": 39
    },
    {
      "midi": 62,
      "hit": false,
      "t": 70153.85199999987,
      "d": 461.5384999999951,
      "v": 63
    },
    {
      "midi": 65,
      "hit": false,
      "t": 70153.85199999987,
      "d": 461.5384999999951,
      "v": 83
    },
    {
      "midi": 38,
      "hit": false,
      "t": 70153.85199999987,
      "d": 1153.8462499999878,
      "v": 62
    },
    {
      "midi": 50,
      "hit": false,
      "t": 70615.39049999986,
      "d": 692.3077499999927,
      "v": 27
    },
    {
      "midi": 57,
      "hit": false,
      "t": 71076.92899999986,
      "d": 230.76924999999756,
      "v": 63
    },
    {
      "midi": 62,
      "hit": false,
      "t": 71076.92899999986,
      "d": 230.76924999999756,
      "v": 70
    },
    {
      "midi": 65,
      "hit": false,
      "t": 71076.92899999986,
      "d": 230.76924999999756,
      "v": 69
    },
    {
      "midi": 50,
      "hit": false,
      "t": 71538.46749999985,
      "d": 230.76924999999756,
      "v": 50
    },
    {
      "midi": 53,
      "hit": false,
      "t": 72000.00599999985,
      "d": 230.76924999999756,
      "v": 54
    },
    {
      "midi": 55,
      "hit": false,
      "t": 72000.00599999985,
      "d": 461.5384999999951,
      "v": 54
    },
    {
      "midi": 59,
      "hit": false,
      "t": 72000.00599999985,
      "d": 461.5384999999951,
      "v": 55
    },
    {
      "midi": 62,
      "hit": false,
      "t": 72000.00599999985,
      "d": 461.5384999999951,
      "v": 63
    },
    {
      "midi": 67,
      "hit": false,
      "t": 72000.00599999985,
      "d": 461.5384999999951,
      "v": 46
    },
    {
      "midi": 43,
      "hit": false,
      "t": 72000.00599999985,
      "d": 1153.8462499999878,
      "v": 58
    },
    {
      "midi": 50,
      "hit": false,
      "t": 72461.54449999984,
      "d": 692.3077499999927,
      "v": 51
    },
    {
      "midi": 55,
      "hit": false,
      "t": 72923.08299999984,
      "d": 461.5384999999951,
      "v": 56
    },
    {
      "midi": 59,
      "hit": false,
      "t": 72923.08299999984,
      "d": 461.5384999999951,
      "v": 60
    },
    {
      "midi": 62,
      "hit": false,
      "t": 72923.08299999984,
      "d": 461.5384999999951,
      "v": 63
    },
    {
      "midi": 67,
      "hit": false,
      "t": 72923.08299999984,
      "d": 461.5384999999951,
      "v": 35
    },
    {
      "midi": 43,
      "hit": false,
      "t": 73384.62149999983,
      "d": 230.76924999999756,
      "v": 47
    },
    {
      "midi": 55,
      "hit": false,
      "t": 73846.15999999983,
      "d": 461.5384999999951,
      "v": 56
    },
    {
      "midi": 60,
      "hit": false,
      "t": 73846.15999999983,
      "d": 461.5384999999951,
      "v": 70
    },
    {
      "midi": 64,
      "hit": false,
      "t": 73846.15999999983,
      "d": 461.5384999999951,
      "v": 59
    },
    {
      "midi": 36,
      "hit": false,
      "t": 73846.15999999983,
      "d": 692.3077499999927,
      "v": 49
    },
    {
      "midi": 48,
      "hit": false,
      "t": 74307.69849999982,
      "d": 461.5384999999951,
      "v": 33
    },
    {
      "midi": 55,
      "hit": false,
      "t": 74538.46774999982,
      "d": 461.5384999999951,
      "v": 47
    },
    {
      "midi": 60,
      "hit": false,
      "t": 74769.23699999982,
      "d": 230.76924999999756,
      "v": 87
    },
    {
      "midi": 64,
      "hit": false,
      "t": 75000.00624999982,
      "d": 230.76924999999756,
      "v": 83
    },
    {
      "midi": 55,
      "hit": false,
      "t": 75692.31399999982,
      "d": 230.76924999999756,
      "v": 42
    },
    {
      "midi": 57,
      "hit": false,
      "t": 75692.31399999982,
      "d": 461.5384999999951,
      "v": 49
    },
    {
      "midi": 60,
      "hit": false,
      "t": 75692.31399999982,
      "d": 461.5384999999951,
      "v": 54
    },
    {
      "midi": 65,
      "hit": false,
      "t": 75692.31399999982,
      "d": 461.5384999999951,
      "v": 63
    },
    {
      "midi": 43,
      "hit": false,
      "t": 75692.31399999982,
      "d": 923.0769999999902,
      "v": 40
    },
    {
      "midi": 50,
      "hit": false,
      "t": 76153.85249999982,
      "d": 461.5384999999951,
      "v": 37
    },
    {
      "midi": 55,
      "hit": false,
      "t": 76615.39099999981,
      "d": 461.5384999999951,
      "v": 54
    },
    {
      "midi": 59,
      "hit": false,
      "t": 76615.39099999981,
      "d": 461.5384999999951,
      "v": 62
    },
    {
      "midi": 62,
      "hit": false,
      "t": 76615.39099999981,
      "d": 461.5384999999951,
      "v": 56
    },
    {
      "midi": 43,
      "hit": false,
      "t": 77076.92949999981,
      "d": 230.76924999999756,
      "v": 47
    },
    {
      "midi": 64,
      "hit": false,
      "t": 77538.4679999998,
      "d": 461.53850000000966,
      "v": 60
    },
    {
      "midi": 55,
      "hit": false,
      "t": 77538.4679999998,
      "d": 692.3077500000072,
      "v": 55
    },
    {
      "midi": 60,
      "hit": false,
      "t": 77538.4679999998,
      "d": 692.3077500000072,
      "v": 66
    },
    {
      "midi": 36,
      "hit": false,
      "t": 77769.23724999982,
      "d": 692.3077499999927,
      "v": 2
    }
  ]
}