{
  "jsonPath": "Animes/Rurouni Kenshin MIDI Collection/fourth-avenue-cafe.json",
  "path": "Animes\\Rurouni Kenshin MIDI Collection\\Fourth avenue cafe.mid",
  "name": "Fourth avenue cafe",
  "difficulty": "Advanced",
  "bpm": 136.0001450668214,
  "notes": [
    {
      "midi": 43,
      "hit": false,
      "t": 1764.7040000000002,
      "d": 330.88200000000006,
      "v": 100
    },
    {
      "midi": 80,
      "hit": false,
      "t": 1764.7040000000002,
      "d": 882.3520000000003,
      "v": 100
    },
    {
      "midi": 83,
      "hit": false,
      "t": 1764.7040000000002,
      "d": 882.3520000000003,
      "v": 100
    },
    {
      "midi": 78,
      "hit": false,
      "t": 1764.7040000000002,
      "d": 882.3520000000003,
      "v": 100
    },
    {
      "midi": 74,
      "hit": false,
      "t": 1764.7040000000002,
      "d": 882.3520000000003,
      "v": 100
    },
    {
      "midi": 50,
      "hit": false,
      "t": 2205.88,
      "d": 220.5880000000002,
      "v": 100
    },
    {
      "midi": 55,
      "hit": false,
      "t": 2426.4680000000003,
      "d": 220.5880000000002,
      "v": 100
    },
    {
      "midi": 71,
      "hit": false,
      "t": 2647.0560000000005,
      "d": 220.5880000000002,
      "v": 100
    },
    {
      "midi": 59,
      "hit": false,
      "t": 2647.0560000000005,
      "d": 1213.2340000000008,
      "v": 100
    },
    {
      "midi": 74,
      "hit": false,
      "t": 2867.6440000000007,
      "d": 220.5880000000002,
      "v": 100
    },
    {
      "midi": 78,
      "hit": false,
      "t": 3088.232000000001,
      "d": 220.5880000000002,
      "v": 100
    },
    {
      "midi": 80,
      "hit": false,
      "t": 3308.820000000001,
      "d": 220.5880000000002,
      "v": 100
    },
    {
      "midi": 81,
      "hit": false,
      "t": 3529.4080000000013,
      "d": 220.5880000000002,
      "v": 100
    },
    {
      "midi": 83,
      "hit": false,
      "t": 3749.9960000000015,
      "d": 772.0579999999995,
      "v": 100
    },
    {
      "midi": 45,
      "hit": false,
      "t": 4080.8780000000015,
      "d": 220.58799999999974,
      "v": 100
    },
    {
      "midi": 73,
      "hit": false,
      "t": 4080.8780000000015,
      "d": 661.7639999999992,
      "v": 100
    },
    {
      "midi": 76,
      "hit": false,
      "t": 4080.8780000000015,
      "d": 882.351999999999,
      "v": 100
    },
    {
      "midi": 52,
      "hit": false,
      "t": 4411.760000000001,
      "d": 220.58799999999974,
      "v": 100
    },
    {
      "midi": 59,
      "hit": false,
      "t": 4632.348000000001,
      "d": 330.8819999999996,
      "v": 100
    },
    {
      "midi": 61,
      "hit": false,
      "t": 4963.2300000000005,
      "d": 1102.9399999999996,
      "v": 100
    },
    {
      "midi": 76,
      "hit": false,
      "t": 4963.2300000000005,
      "d": 1102.9399999999996,
      "v": 100
    },
    {
      "midi": 81,
      "hit": false,
      "t": 4963.2300000000005,
      "d": 1102.9399999999996,
      "v": 100
    },
    {
      "midi": 85,
      "hit": false,
      "t": 4963.2300000000005,
      "d": 1102.9399999999996,
      "v": 100
    },
    {
      "midi": 36,
      "hit": false,
      "t": 7335.8906166666675,
      "d": 102.73974999999973,
      "v": 100
    },
    {
      "midi": 36,
      "hit": false,
      "t": 7438.630366666667,
      "d": 102.73974999999973,
      "v": 100
    },
    {
      "midi": 38,
      "hit": false,
      "t": 7541.370116666667,
      "d": 410.95899999999983,
      "v": 100
    },
    {
      "midi": 57,
      "hit": false,
      "t": 7541.370116666667,
      "d": 410.95899999999983,
      "v": 100
    },
    {
      "midi": 38,
      "hit": false,
      "t": 7952.329116666667,
      "d": 410.95899999999983,
      "v": 100
    },
    {
      "midi": 42,
      "hit": false,
      "t": 7952.329116666667,
      "d": 410.95899999999983,
      "v": 100
    },
    {
      "midi": 38,
      "hit": false,
      "t": 8363.288116666667,
      "d": 410.95900000000074,
      "v": 100
    },
    {
      "midi": 42,
      "hit": false,
      "t": 8363.288116666667,
      "d": 410.95900000000074,
      "v": 100
    },
    {
      "midi": 38,
      "hit": false,
      "t": 8774.247116666667,
      "d": 410.95900000000074,
      "v": 100
    },
    {
      "midi": 42,
      "hit": false,
      "t": 8774.247116666667,
      "d": 410.95900000000074,
      "v": 100
    },
    {
      "midi": 38,
      "hit": false,
      "t": 9185.206116666668,
      "d": 410.95900000000074,
      "v": 100
    },
    {
      "midi": 42,
      "hit": false,
      "t": 9185.206116666668,
      "d": 410.95900000000074,
      "v": 100
    },
    {
      "midi": 38,
      "hit": false,
      "t": 9596.165116666669,
      "d": 410.95900000000074,
      "v": 100
    },
    {
      "midi": 42,
      "hit": false,
      "t": 9596.165116666669,
      "d": 410.95900000000074,
      "v": 100
    },
    {
      "midi": 38,
      "hit": false,
      "t": 10007.12411666667,
      "d": 410.9589999999989,
      "v": 100
    },
    {
      "midi": 42,
      "hit": false,
      "t": 10007.12411666667,
      "d": 410.9589999999989,
      "v": 100
    },
    {
      "midi": 36,
      "hit": false,
      "t": 10212.603616666669,
      "d": 205.47949999999946,
      "v": 100
    },
    {
      "midi": 38,
      "hit": false,
      "t": 10418.083116666669,
      "d": 410.9589999999989,
      "v": 100
    },
    {
      "midi": 42,
      "hit": false,
      "t": 10418.083116666669,
      "d": 410.9589999999989,
      "v": 100
    },
    {
      "midi": 36,
      "hit": false,
      "t": 10623.562616666668,
      "d": 205.47949999999946,
      "v": 100
    },
    {
      "midi": 38,
      "hit": false,
      "t": 10829.042116666667,
      "d": 410.95900000000074,
      "v": 100
    },
    {
      "midi": 36,
      "hit": false,
      "t": 10829.042116666667,
      "d": 410.95900000000074,
      "v": 100
    },
    {
      "midi": 38,
      "hit": false,
      "t": 11240.001116666668,
      "d": 410.95900000000074,
      "v": 100
    },
    {
      "midi": 38,
      "hit": false,
      "t": 11650.960116666669,
      "d": 410.95900000000074,
      "v": 100
    },
    {
      "midi": 38,
      "hit": false,
      "t": 12061.91911666667,
      "d": 410.95900000000074,
      "v": 100
    },
    {
      "midi": 38,
      "hit": false,
      "t": 12472.87811666667,
      "d": 205.47949999999946,
      "v": 100
    },
    {
      "midi": 42,
      "hit": false,
      "t": 12472.87811666667,
      "d": 205.47949999999946,
      "v": 100
    },
    {
      "midi": 45,
      "hit": false,
      "t": 12678.35761666667,
      "d": 68.4931666666671,
      "v": 100
    },
    {
      "midi": 45,
      "hit": false,
      "t": 12746.850783333337,
      "d": 68.4931666666671,
      "v": 100
    },
    {
      "midi": 45,
      "hit": false,
      "t": 12815.343950000004,
      "d": 68.4931666666671,
      "v": 100
    },
    {
      "midi": 45,
      "hit": false,
      "t": 12883.837116666671,
      "d": 68.4931666666671,
      "v": 100
    },
    {
      "midi": 45,
      "hit": false,
      "t": 12952.330283333338,
      "d": 68.4931666666671,
      "v": 100
    },
    {
      "midi": 45,
      "hit": false,
      "t": 13020.823450000005,
      "d": 68.4931666666671,
      "v": 100
    },
    {
      "midi": 45,
      "hit": false,
      "t": 13089.316616666672,
      "d": 68.4931666666671,
      "v": 100
    },
    {
      "midi": 45,
      "hit": false,
      "t": 13157.80978333334,
      "d": 68.4931666666671,
      "v": 100
    },
    {
      "midi": 45,
      "hit": false,
      "t": 13226.302950000007,
      "d": 68.4931666666671,
      "v": 100
    },
    {
      "midi": 57,
      "hit": false,
      "t": 13294.796116666674,
      "d": 410.95900000000074,
      "v": 100
    },
    {
      "midi": 38,
      "hit": false,
      "t": 13294.796116666674,
      "d": 410.95900000000074,
      "v": 100
    },
    {
      "midi": 78,
      "hit": false,
      "t": 13500.275616666673,
      "d": 205.47950000000128,
      "v": 100
    },
    {
      "midi": 91,
      "hit": false,
      "t": 13620.13865833334,
      "d": 34.24658333333355,
      "v": 100
    },
    {
      "midi": 96,
      "hit": false,
      "t": 13633.837291666674,
      "d": 34.24658333333355,
      "v": 91
    },
    {
      "midi": 90,
      "hit": false,
      "t": 13654.385241666674,
      "d": 34.24658333333355,
      "v": 100
    },
    {
      "midi": 95,
      "hit": false,
      "t": 13668.083875000008,
      "d": 34.24658333333355,
      "v": 91
    },
    {
      "midi": 89,
      "hit": false,
      "t": 13688.631825000008,
      "d": 34.24658333333355,
      "v": 100
    },
    {
      "midi": 94,
      "hit": false,
      "t": 13702.330458333341,
      "d": 34.24658333333355,
      "v": 91
    },
    {
      "midi": 78,
      "hit": false,
      "t": 13705.755116666674,
      "d": 205.47950000000128,
      "v": 100
    },
    {
      "midi": 88,
      "hit": false,
      "t": 13722.878408333341,
      "d": 34.24658333333355,
      "v": 100
    },
    {
      "midi": 93,
      "hit": false,
      "t": 13736.577041666675,
      "d": 34.24658333333355,
      "v": 91
    },
    {
      "midi": 87,
      "hit": false,
      "t": 13757.124991666675,
      "d": 34.24658333333355,
      "v": 100
    },
    {
      "midi": 92,
      "hit": false,
      "t": 13770.823625000008,
      "d": 34.24658333333355,
      "v": 90
    },
    {
      "midi": 86,
      "hit": false,
      "t": 13791.371575000008,
      "d": 34.24658333333355,
      "v": 100
    },
    {
      "midi": 91,
      "hit": false,
      "t": 13805.070208333342,
      "d": 34.24658333333355,
      "v": 90
    },
    {
      "midi": 90,
      "hit": false,
      "t": 13839.316791666675,
      "d": 34.24658333333355,
      "v": 90
    },
    {
      "midi": 85,
      "hit": false,
      "t": 13859.864741666675,
      "d": 34.24658333333355,
      "v": 100
    },
    {
      "midi": 89,
      "hit": false,
      "t": 13873.563375000009,
      "d": 34.24658333333355,
      "v": 89
    },
    {
      "midi": 84,
      "hit": false,
      "t": 13894.111325000009,
      "d": 34.24658333333355,
      "v": 100
    },
    {
      "midi": 83,
      "hit": false,
      "t": 13928.357908333342,
      "d": 34.24658333333355,
      "v": 100
    },
    {
      "midi": 82,
      "hit": false,
      "t": 13962.604491666676,
      "d": 34.24658333333355,
      "v": 100
    },
    {
      "midi": 88,
      "hit": false,
      "t": 13972.878466666676,
      "d": 34.24658333333355,
      "v": 89
    },
    {
      "midi": 81,
      "hit": false,
      "t": 13996.85107500001,
      "d": 34.24658333333355,
      "v": 100
    },
    {
      "midi": 87,
      "hit": false,
      "t": 14007.12505000001,
      "d": 34.24658333333355,
      "v": 88
    },
    {
      "midi": 80,
      "hit": false,
      "t": 14031.097658333343,
      "d": 34.24658333333355,
      "v": 100
    },
    {
      "midi": 86,
      "hit": false,
      "t": 14041.371633333343,
      "d": 34.24658333333355,
      "v": 88
    },
    {
      "midi": 79,
      "hit": false,
      "t": 14065.344241666677,
      "d": 34.24658333333355,
      "v": 100
    },
    {
      "midi": 85,
      "hit": false,
      "t": 14075.618216666677,
      "d": 34.24658333333355,
      "v": 88
    },
    {
      "midi": 78,
      "hit": false,
      "t": 14099.59082500001,
      "d": 17.123291666666773,
      "v": 100
    },
    {
      "midi": 84,
      "hit": false,
      "t": 14109.86480000001,
      "d": 34.24658333333355,
      "v": 87
    },
    {
      "midi": 78,
      "hit": false,
      "t": 14116.714116666677,
      "d": 17.123291666666773,
      "v": 100
    },
    {
      "midi": 62,
      "hit": false,
      "t": 14116.714116666677,
      "d": 205.47950000000128,
      "v": 100
    },
    {
      "midi": 67,
      "hit": false,
      "t": 14116.714116666677,
      "d": 308.2192500000019,
      "v": 100
    },
    {
      "midi": 74,
      "hit": false,
      "t": 14116.714116666677,
      "d": 308.2192500000019,
      "v": 100
    },
    {
      "midi": 71,
      "hit": false,
      "t": 14116.714116666677,
      "d": 308.2192500000019,
      "v": 100
    },
    {
      "midi": 57,
      "hit": false,
      "t": 14116.714116666677,
      "d": 410.95900000000256,
      "v": 100
    },
    {
      "midi": 36,
      "hit": false,
      "t": 14116.714116666677,
      "d": 410.95900000000256,
      "v": 100
    },
    {
      "midi": 40,
      "hit": false,
      "t": 14116.714116666677,
      "d": 410.95900000000256,
      "v": 100
    },
    {
      "midi": 38,
      "hit": false,
      "t": 14116.714116666677,
      "d": 410.95900000000256,
      "v": 100
    },
    {
      "midi": 69,
      "hit": false,
      "t": 14116.714116666677,
      "d": 1643.8360000000011,
      "v": 100
    },
    {
      "midi": 77,
      "hit": false,
      "t": 14133.837408333344,
      "d": 34.24658333333355,
      "v": 100
    },
    {
      "midi": 83,
      "hit": false,
      "t": 14144.111383333344,
      "d": 34.24658333333355,
      "v": 87
    },
    {
      "midi": 82,
      "hit": false,
      "t": 14178.357966666677,
      "d": 34.24658333333355,
      "v": 87
    },
    {
      "midi": 81,
      "hit": false,
      "t": 14212.604550000011,
      "d": 34.24658333333355,
      "v": 87
    },
    {
      "midi": 62,
      "hit": false,
      "t": 14322.193616666678,
      "d": 205.47950000000128,
      "v": 100
    },
    {
      "midi": 78,
      "hit": false,
      "t": 14424.933366666679,
      "d": 102.73975000000064,
      "v": 100
    },
    {
      "midi": 74,
      "hit": false,
      "t": 14424.933366666679,
      "d": 102.73975000000064,
      "v": 100
    },
    {
      "midi": 71,
      "hit": false,
      "t": 14527.67311666668,
      "d": 205.47949999999946,
      "v": 100
    },
    {
      "midi": 66,
      "hit": false,
      "t": 14527.67311666668,
      "d": 205.47949999999946,
      "v": 100
    },
    {
      "midi": 62,
      "hit": false,
      "t": 14527.67311666668,
      "d": 205.47949999999946,
      "v": 100
    },
    {
      "midi": 40,
      "hit": false,
      "t": 14527.67311666668,
      "d": 308.2192500000001,
      "v": 100
    },
    {
      "midi": 78,
      "hit": false,
      "t": 14527.67311666668,
      "d": 410.95900000000074,
      "v": 100
    },
    {
      "midi": 74,
      "hit": false,
      "t": 14527.67311666668,
      "d": 410.95900000000074,
      "v": 100
    },
    {
      "midi": 42,
      "hit": false,
      "t": 14527.67311666668,
      "d": 410.95900000000074,
      "v": 100
    },
    {
      "midi": 62,
      "hit": false,
      "t": 14733.152616666679,
      "d": 102.73975000000064,
      "v": 100
    },
    {
      "midi": 62,
      "hit": false,
      "t": 14835.89236666668,
      "d": 102.73975000000064,
      "v": 100
    },
    {
      "midi": 38,
      "hit": false,
      "t": 14835.89236666668,
      "d": 102.73975000000064,
      "v": 100
    },
    {
      "midi": 62,
      "hit": false,
      "t": 14938.63211666668,
      "d": 205.47949999999946,
      "v": 100
    },
    {
      "midi": 40,
      "hit": false,
      "t": 14938.63211666668,
      "d": 205.47949999999946,
      "v": 100
    },
    {
      "midi": 78,
      "hit": false,
      "t": 14938.63211666668,
      "d": 205.47949999999946,
      "v": 100
    },
    {
      "midi": 42,
      "hit": false,
      "t": 14938.63211666668,
      "d": 410.9589999999989,
      "v": 100
    },
    {
      "midi": 38,
      "hit": false,
      "t": 14938.63211666668,
      "d": 410.9589999999989,
      "v": 100
    },
    {
      "midi": 36,
      "hit": false,
      "t": 15144.11161666668,
      "d": 205.47949999999946,
      "v": 100
    },
    {
      "midi": 71,
      "hit": false,
      "t": 15144.11161666668,
      "d": 410.9589999999989,
      "v": 100
    },
    {
      "midi": 43,
      "hit": false,
      "t": 15144.11161666668,
      "d": 410.9589999999989,
      "v": 100
    },
    {
      "midi": 62,
      "hit": false,
      "t": 15144.11161666668,
      "d": 410.9589999999989,
      "v": 100
    },
    {
      "midi": 66,
      "hit": false,
      "t": 15144.11161666668,
      "d": 410.9589999999989,
      "v": 100
    },
    {
      "midi": 76,
      "hit": false,
      "t": 15144.11161666668,
      "d": 410.9589999999989,
      "v": 100
    },
    {
      "midi": 38,
      "hit": false,
      "t": 15349.59111666668,
      "d": 410.9589999999989,
      "v": 100
    },
    {
      "midi": 42,
      "hit": false,
      "t": 15349.59111666668,
      "d": 410.9589999999989,
      "v": 100
    },
    {
      "midi": 36,
      "hit": false,
      "t": 15555.070616666679,
      "d": 205.47949999999946,
      "v": 100
    },
    {
      "midi": 62,
      "hit": false,
      "t": 15555.070616666679,
      "d": 205.47949999999946,
      "v": 100
    },
    {
      "midi": 40,
      "hit": false,
      "t": 15555.070616666679,
      "d": 205.47949999999946,
      "v": 100
    },
    {
      "midi": 74,
      "hit": false,
      "t": 15555.070616666679,
      "d": 410.9589999999989,
      "v": 100
    },
    {
      "midi": 81,
      "hit": false,
      "t": 15555.070616666679,
      "d": 410.9589999999989,
      "v": 100
    },
    {
      "midi": 78,
      "hit": false,
      "t": 15555.070616666679,
      "d": 410.9589999999989,
      "v": 100
    },
    {
      "midi": 62,
      "hit": false,
      "t": 15760.550116666678,
      "d": 205.47949999999946,
      "v": 100
    },
    {
      "midi": 42,
      "hit": false,
      "t": 15760.550116666678,
      "d": 205.47949999999946,
      "v": 100
    },
    {
      "midi": 36,
      "hit": false,
      "t": 15760.550116666678,
      "d": 410.9589999999989,
      "v": 100
    },
    {
      "midi": 38,
      "hit": false,
      "t": 15760.550116666678,
      "d": 410.9589999999989,
      "v": 100
    },
    {
      "midi": 67,
      "hit": false,
      "t": 15760.550116666678,
      "d": 616.4384999999984,
      "v": 100
    },
    {
      "midi": 73,
      "hit": false,
      "t": 15966.029616666678,
      "d": 205.47949999999946,
      "v": 100
    },
    {
      "midi": 76,
      "hit": false,
      "t": 15966.029616666678,
      "d": 205.47949999999946,
      "v": 100
    },
    {
      "midi": 69,
      "hit": false,
      "t": 15966.029616666678,
      "d": 205.47949999999946,
      "v": 100
    },
    {
      "midi": 45,
      "hit": false,
      "t": 15966.029616666678,
      "d": 205.47949999999946,
      "v": 100
    },
    {
      "midi": 66,
      "hit": false,
      "t": 15966.029616666678,
      "d": 205.47949999999946,
      "v": 100
    },
    {
      "midi": 64,
      "hit": false,
      "t": 15966.029616666678,
      "d": 205.47949999999946,
      "v": 100
    },
    {
      "midi": 79,
      "hit": false,
      "t": 15966.029616666678,
      "d": 410.9589999999989,
      "v": 100
    },
    {
      "midi": 62,
      "hit": false,
      "t": 16171.509116666677,
      "d": 205.47949999999946,
      "v": 100
    },
    {
      "midi": 47,
      "hit": false,
      "t": 16171.509116666677,
      "d": 205.47949999999946,
      "v": 100
    },
    {
      "midi": 38,
      "hit": false,
      "t": 16171.509116666677,
      "d": 410.95900000000074,
      "v": 100
    },
    {
      "midi": 76,
      "hit": false,
      "t": 16171.509116666677,
      "d": 410.95900000000074,
      "v": 100
    },
    {
      "midi": 42,
      "hit": false,
      "t": 16171.509116666677,
      "d": 410.95900000000074,
      "v": 100
    },
    {
      "midi": 73,
      "hit": false,
      "t": 16376.988616666677,
      "d": 205.47950000000128,
      "v": 100
    },
    {
      "midi": 49,
      "hit": false,
      "t": 16376.988616666677,
      "d": 410.95900000000256,
      "v": 100
    },
    {
      "midi": 66,
      "hit": false,
      "t": 16376.988616666677,
      "d": 410.95900000000256,
      "v": 100
    },
    {
      "midi": 78,
      "hit": false,
      "t": 16376.988616666677,
      "d": 410.95900000000256,
      "v": 100
    },
    {
      "midi": 64,
      "hit": false,
      "t": 16376.988616666677,
      "d": 410.95900000000256,
      "v": 100
    },
    {
      "midi": 61,
      "hit": false,
      "t": 16376.988616666677,
      "d": 1027.3975000000064,
      "v": 100
    },
    {
      "midi": 69,
      "hit": false,
      "t": 16376.988616666677,
      "d": 1027.3975000000064,
      "v": 100
    },
    {
      "midi": 38,
      "hit": false,
      "t": 16582.468116666678,
      "d": 410.95900000000256,
      "v": 100
    },
    {
      "midi": 42,
      "hit": false,
      "t": 16582.468116666678,
      "d": 410.95900000000256,
      "v": 100
    },
    {
      "midi": 36,
      "hit": false,
      "t": 16787.94761666668,
      "d": 205.47950000000128,
      "v": 100
    },
    {
      "midi": 73,
      "hit": false,
      "t": 16787.94761666668,
      "d": 205.47950000000128,
      "v": 100
    },
    {
      "midi": 64,
      "hit": false,
      "t": 16787.94761666668,
      "d": 205.47950000000128,
      "v": 100
    },
    {
      "midi": 47,
      "hit": false,
      "t": 16787.94761666668,
      "d": 205.47950000000128,
      "v": 100
    },
    {
      "midi": 66,
      "hit": false,
      "t": 16787.94761666668,
      "d": 205.47950000000128,
      "v": 100
    },
    {
      "midi": 76,
      "hit": false,
      "t": 16787.94761666668,
      "d": 616.4385000000038,
      "v": 100
    },
    {
      "midi": 64,
      "hit": false,
      "t": 16993.42711666668,
      "d": 205.47950000000128,
      "v": 100
    },
    {
      "midi": 66,
      "hit": false,
      "t": 16993.42711666668,
      "d": 205.47950000000128,
      "v": 100
    },
    {
      "midi": 73,
      "hit": false,
      "t": 16993.42711666668,
      "d": 205.47950000000128,
      "v": 100
    },
    {
      "midi": 45,
      "hit": false,
      "t": 16993.42711666668,
      "d": 205.47950000000128,
      "v": 100
    },
    {
      "midi": 38,
      "hit": false,
      "t": 16993.42711666668,
      "d": 410.95900000000256,
      "v": 100
    },
    {
      "midi": 36,
      "hit": false,
      "t": 17198.90661666668,
      "d": 205.47950000000128,
      "v": 100
    },
    {
      "midi": 73,
      "hit": false,
      "t": 17198.90661666668,
      "d": 205.47950000000128,
      "v": 100
    },
    {
      "midi": 42,
      "hit": false,
      "t": 17198.90661666668,
      "d": 205.47950000000128,
      "v": 100
    },
    {
      "midi": 64,
      "hit": false,
      "t": 17198.90661666668,
      "d": 205.47950000000128,
      "v": 100
    },
    {
      "midi": 66,
      "hit": false,
      "t": 17198.90661666668,
      "d": 205.47950000000128,
      "v": 100
    },
    {
      "midi": 62,
      "hit": false,
      "t": 17404.386116666683,
      "d": 205.47950000000128,
      "v": 100
    },
    {
      "midi": 38,
      "hit": false,
      "t": 17404.386116666683,
      "d": 410.95900000000256,
      "v": 100
    },
    {
      "midi": 76,
      "hit": false,
      "t": 17404.386116666683,
      "d": 410.95900000000256,
      "v": 100
    },
    {
      "midi": 36,
      "hit": false,
      "t": 17404.386116666683,
      "d": 410.95900000000256,
      "v": 100
    },
    {
      "midi": 42,
      "hit": false,
      "t": 17404.386116666683,
      "d": 410.95900000000256,
      "v": 100
    },
    {
      "midi": 61,
      "hit": false,
      "t": 17404.386116666683,
      "d": 1027.3975000000064,
      "v": 100
    },
    {
      "midi": 62,
      "hit": false,
      "t": 17609.865616666684,
      "d": 205.47950000000128,
      "v": 100
    },
    {
      "midi": 78,
      "hit": false,
      "t": 17815.345116666685,
      "d": 205.47950000000128,
      "v": 100
    },
    {
      "midi": 38,
      "hit": false,
      "t": 17815.345116666685,
      "d": 308.2192500000019,
      "v": 100
    },
    {
      "midi": 42,
      "hit": false,
      "t": 17815.345116666685,
      "d": 410.95900000000256,
      "v": 100
    },
    {
      "midi": 70,
      "hit": false,
      "t": 17815.345116666685,
      "d": 410.95900000000256,
      "v": 100
    },
    {
      "midi": 64,
      "hit": false,
      "t": 17815.345116666685,
      "d": 410.95900000000256,
      "v": 100
    },
    {
      "midi": 73,
      "hit": false,
      "t": 17815.345116666685,
      "d": 410.95900000000256,
      "v": 100
    },
    {
      "midi": 66,
      "hit": false,
      "t": 17815.345116666685,
      "d": 410.95900000000256,
      "v": 100
    },
    {
      "midi": 76,
      "hit": false,
      "t": 18020.824616666687,
      "d": 205.47950000000128,
      "v": 100
    },
    {
      "midi": 37,
      "hit": false,
      "t": 18123.564366666687,
      "d": 102.73975000000064,
      "v": 100
    },
    {
      "midi": 62,
      "hit": false,
      "t": 18226.304116666688,
      "d": 205.47950000000128,
      "v": 100
    },
    {
      "midi": 38,
      "hit": false,
      "t": 18226.304116666688,
      "d": 205.47950000000128,
      "v": 100
    },
    {
      "midi": 36,
      "hit": false,
      "t": 18431.78361666669,
      "d": 205.47950000000128,
      "v": 100
    },
    {
      "midi": 42,
      "hit": false,
      "t": 18431.78361666669,
      "d": 205.47950000000128,
      "v": 100
    },
    {
      "midi": 70,
      "hit": false,
      "t": 18431.78361666669,
      "d": 205.47950000000128,
      "v": 100
    },
    {
      "midi": 66,
      "hit": false,
      "t": 18431.78361666669,
      "d": 205.47950000000128,
      "v": 100
    },
    {
      "midi": 73,
      "hit": false,
      "t": 18431.78361666669,
      "d": 410.95900000000256,
      "v": 100
    },
    {
      "midi": 64,
      "hit": false,
      "t": 18431.78361666669,
      "d": 410.95900000000256,
      "v": 100
    },
    {
      "midi": 69,
      "hit": false,
      "t": 18431.78361666669,
      "d": 616.4385000000038,
      "v": 100
    },
    {
      "midi": 61,
      "hit": false,
      "t": 18431.78361666669,
      "d": 616.4385000000038,
      "v": 100
    },
    {
      "midi": 42,
      "hit": false,
      "t": 18637.26311666669,
      "d": 205.47950000000128,
      "v": 100
    },
    {
      "midi": 38,
      "hit": false,
      "t": 18637.26311666669,
      "d": 410.95900000000256,
      "v": 100
    },
    {
      "midi": 62,
      "hit": false,
      "t": 18842.742616666692,
      "d": 205.47950000000128,
      "v": 100
    },
    {
      "midi": 45,
      "hit": false,
      "t": 18842.742616666692,
      "d": 205.47950000000128,
      "v": 100
    },
    {
      "midi": 66,
      "hit": false,
      "t": 18842.742616666692,
      "d": 205.47950000000128,
      "v": 100
    },
    {
      "midi": 70,
      "hit": false,
      "t": 18842.742616666692,
      "d": 410.95900000000256,
      "v": 100
    },
    {
      "midi": 76,
      "hit": false,
      "t": 18842.742616666692,
      "d": 616.4385000000038,
      "v": 100
    },
    {
      "midi": 36,
      "hit": false,
      "t": 18945.482366666693,
      "d": 102.73975000000064,
      "v": 100
    },
    {
      "midi": 62,
      "hit": false,
      "t": 19048.222116666693,
      "d": 205.47950000000128,
      "v": 100
    },
    {
      "midi": 69,
      "hit": false,
      "t": 19048.222116666693,
      "d": 205.47950000000128,
      "v": 100
    },
    {
      "midi": 43,
      "hit": false,
      "t": 19048.222116666693,
      "d": 205.47950000000128,
      "v": 100
    },
    {
      "midi": 61,
      "hit": false,
      "t": 19048.222116666693,
      "d": 205.47950000000128,
      "v": 100
    },
    {
      "midi": 66,
      "hit": false,
      "t": 19048.222116666693,
      "d": 205.47950000000128,
      "v": 100
    },
    {
      "midi": 38,
      "hit": false,
      "t": 19048.222116666693,
      "d": 410.95900000000256,
      "v": 100
    },
    {
      "midi": 42,
      "hit": false,
      "t": 19048.222116666693,
      "d": 410.95900000000256,
      "v": 100
    },
    {
      "midi": 36,
      "hit": false,
      "t": 19253.701616666694,
      "d": 205.47950000000128,
      "v": 100
    },
    {
      "midi": 66,
      "hit": false,
      "t": 19253.701616666694,
      "d": 205.47950000000128,
      "v": 100
    },
    {
      "midi": 71,
      "hit": false,
      "t": 19253.701616666694,
      "d": 205.47950000000128,
      "v": 100
    },
    {
      "midi": 43,
      "hit": false,
      "t": 19253.701616666694,
      "d": 205.47950000000128,
      "v": 100
    },
    {
      "midi": 74,
      "hit": false,
      "t": 19253.701616666694,
      "d": 205.47950000000128,
      "v": 100
    },
    {
      "midi": 59,
      "hit": false,
      "t": 19253.701616666694,
      "d": 205.47950000000128,
      "v": 100
    },
    {
      "midi": 64,
      "hit": false,
      "t": 19253.701616666694,
      "d": 205.47950000000128,
      "v": 100
    },
    {
      "midi": 62,
      "hit": false,
      "t": 19459.181116666696,
      "d": 205.47950000000128,
      "v": 100
    },
    {
      "midi": 43,
      "hit": false,
      "t": 19459.181116666696,
      "d": 205.47950000000128,
      "v": 100
    },
    {
      "midi": 78,
      "hit": false,
      "t": 19459.181116666696,
      "d": 205.47950000000128,
      "v": 100
    },
    {
      "midi": 66,
      "hit": false,
      "t": 19459.181116666696,
      "d": 205.47950000000128,
      "v": 100
    },
    {
      "midi": 70,
      "hit": false,
      "t": 19459.181116666696,
      "d": 410.95900000000256,
      "v": 100
    },
    {
      "midi": 38,
      "hit": false,
      "t": 19459.181116666696,
      "d": 410.95900000000256,
      "v": 100
    },
    {
      "midi": 42,
      "hit": false,
      "t": 19459.181116666696,
      "d": 410.95900000000256,
      "v": 100
    },
    {
      "midi": 66,
      "hit": false,
      "t": 19664.660616666697,
      "d": 205.47950000000128,
      "v": 100
    },
    {
      "midi": 43,
      "hit": false,
      "t": 19664.660616666697,
      "d": 205.47950000000128,
      "v": 100
    },
    {
      "midi": 59,
      "hit": false,
      "t": 19664.660616666697,
      "d": 410.95900000000256,
      "v": 100
    },
    {
      "midi": 62,
      "hit": false,
      "t": 19664.660616666697,
      "d": 410.95900000000256,
      "v": 100
    },
    {
      "midi": 74,
      "hit": false,
      "t": 19664.660616666697,
      "d": 410.95900000000256,
      "v": 100
    },
    {
      "midi": 36,
      "hit": false,
      "t": 19767.400366666698,
      "d": 102.73975000000064,
      "v": 100
    },
    {
      "midi": 43,
      "hit": false,
      "t": 19870.1401166667,
      "d": 205.47950000000128,
      "v": 100
    },
    {
      "midi": 38,
      "hit": false,
      "t": 19870.1401166667,
      "d": 410.95900000000256,
      "v": 100
    },
    {
      "midi": 42,
      "hit": false,
      "t": 19870.1401166667,
      "d": 410.95900000000256,
      "v": 100
    },
    {
      "midi": 36,
      "hit": false,
      "t": 20075.6196166667,
      "d": 205.47950000000128,
      "v": 100
    },
    {
      "midi": 62,
      "hit": false,
      "t": 20075.6196166667,
      "d": 205.47950000000128,
      "v": 100
    },
    {
      "midi": 45,
      "hit": false,
      "t": 20075.6196166667,
      "d": 205.47950000000128,
      "v": 100
    },
    {
      "midi": 59,
      "hit": false,
      "t": 20075.6196166667,
      "d": 205.47950000000128,
      "v": 100
    },
    {
      "midi": 78,
      "hit": false,
      "t": 20075.6196166667,
      "d": 205.47950000000128,
      "v": 100
    },
    {
      "midi": 62,
      "hit": false,
      "t": 20281.0991166667,
      "d": 205.47950000000128,
      "v": 100
    },
    {
      "midi": 59,
      "hit": false,
      "t": 20281.0991166667,
      "d": 205.47950000000128,
      "v": 100
    },
    {
      "midi": 78,
      "hit": false,
      "t": 20281.0991166667,
      "d": 205.47950000000128,
      "v": 100
    },
    {
      "midi": 42,
      "hit": false,
      "t": 20281.0991166667,
      "d": 410.95900000000256,
      "v": 100
    },
    {
      "midi": 38,
      "hit": false,
      "t": 20281.0991166667,
      "d": 410.95900000000256,
      "v": 100
    },
    {
      "midi": 47,
      "hit": false,
      "t": 20281.0991166667,
      "d": 410.95900000000256,
      "v": 100
    },
    {
      "midi": 36,
      "hit": false,
      "t": 20486.578616666702,
      "d": 205.47950000000128,
      "v": 100
    },
    {
      "midi": 62,
      "hit": false,
      "t": 20486.578616666702,
      "d": 205.47950000000128,
      "v": 100
    },
    {
      "midi": 59,
      "hit": false,
      "t": 20486.578616666702,
      "d": 205.47950000000128,
      "v": 100
    },
    {
      "midi": 78,
      "hit": false,
      "t": 20486.578616666702,
      "d": 205.47950000000128,
      "v": 100
    },
    {
      "midi": 62,
      "hit": false,
      "t": 20692.058116666703,
      "d": 205.47950000000128,
      "v": 100
    },
    {
      "midi": 78,
      "hit": false,
      "t": 20692.058116666703,
      "d": 205.47950000000128,
      "v": 100
    },
    {
      "midi": 38,
      "hit": false,
      "t": 20692.058116666703,
      "d": 410.95900000000256,
      "v": 100
    },
    {
      "midi": 40,
      "hit": false,
      "t": 20692.058116666703,
      "d": 410.95900000000256,
      "v": 100
    },
    {
      "midi": 57,
      "hit": false,
      "t": 20692.058116666703,
      "d": 410.95900000000256,
      "v": 100
    },
    {
      "midi": 36,
      "hit": false,
      "t": 20692.058116666703,
      "d": 410.95900000000256,
      "v": 100
    },
    {
      "midi": 66,
      "hit": false,
      "t": 20692.058116666703,
      "d": 1643.8360000000102,
      "v": 100
    },
    {
      "midi": 62,
      "hit": false,
      "t": 20897.537616666705,
      "d": 205.47950000000128,
      "v": 100
    },
    {
      "midi": 76,
      "hit": false,
      "t": 20897.537616666705,
      "d": 410.95900000000256,
      "v": 100
    },
    {
      "midi": 62,
      "hit": false,
      "t": 21103.017116666706,
      "d": 205.47950000000128,
      "v": 100
    },
    {
      "midi": 59,
      "hit": false,
      "t": 21103.017116666706,
      "d": 205.47950000000128,
      "v": 100
    },
    {
      "midi": 55,
      "hit": false,
      "t": 21103.017116666706,
      "d": 205.47950000000128,
      "v": 100
    },
    {
      "midi": 40,
      "hit": false,
      "t": 21103.017116666706,
      "d": 308.2192500000019,
      "v": 100
    },
    {
      "midi": 67,
      "hit": false,
      "t": 21103.017116666706,
      "d": 410.95900000000256,
      "v": 100
    },
    {
      "midi": 78,
      "hit": false,
      "t": 21103.017116666706,
      "d": 410.95900000000256,
      "v": 100
    },
    {
      "midi": 74,
      "hit": false,
      "t": 21103.017116666706,
      "d": 410.95900000000256,
      "v": 100
    },
    {
      "midi": 42,
      "hit": false,
      "t": 21103.017116666706,
      "d": 410.95900000000256,
      "v": 100
    },
    {
      "midi": 71,
      "hit": false,
      "t": 21308.496616666707,
      "d": 205.47950000000128,
      "v": 100
    },
    {
      "midi": 62,
      "hit": false,
      "t": 21308.496616666707,
      "d": 205.47950000000128,
      "v": 100
    },
    {
      "midi": 38,
      "hit": false,
      "t": 21411.236366666708,
      "d": 102.73975000000064,
      "v": 100
    },
    {
      "midi": 62,
      "hit": false,
      "t": 21513.97611666671,
      "d": 205.47950000000128,
      "v": 100
    },
    {
      "midi": 40,
      "hit": false,
      "t": 21513.97611666671,
      "d": 205.47950000000128,
      "v": 100
    },
    {
      "midi": 42,
      "hit": false,
      "t": 21513.97611666671,
      "d": 410.95900000000256,
      "v": 100
    },
    {
      "midi": 38,
      "hit": false,
      "t": 21513.97611666671,
      "d": 410.95900000000256,
      "v": 100
    },
    {
      "midi": 36,
      "hit": false,
      "t": 21719.45561666671,
      "d": 205.47950000000128,
      "v": 100
    },
    {
      "midi": 55,
      "hit": false,
      "t": 21719.45561666671,
      "d": 410.95900000000256,
      "v": 100
    },
    {
      "midi": 43,
      "hit": false,
      "t": 21719.45561666671,
      "d": 410.95900000000256,
      "v": 100
    },
    {
      "midi": 62,
      "hit": false,
      "t": 21719.45561666671,
      "d": 410.95900000000256,
      "v": 100
    },
    {
      "midi": 59,
      "hit": false,
      "t": 21719.45561666671,
      "d": 410.95900000000256,
      "v": 100
    },
    {
      "midi": 38,
      "hit": false,
      "t": 21924.93511666671,
      "d": 410.95900000000256,
      "v": 100
    },
    {
      "midi": 42,
      "hit": false,
      "t": 21924.93511666671,
      "d": 410.95900000000256,
      "v": 100
    },
    {
      "midi": 36,
      "hit": false,
      "t": 22130.414616666712,
      "d": 205.47950000000128,
      "v": 100
    },
    {
      "midi": 40,
      "hit": false,
      "t": 22130.414616666712,
      "d": 205.47950000000128,
      "v": 100
    },
    {
      "midi": 62,
      "hit": false,
      "t": 22130.414616666712,
      "d": 205.47950000000128,
      "v": 100
    },
    {
      "midi": 78,
      "hit": false,
      "t": 22130.414616666712,
      "d": 410.95900000000256,
      "v": 100
    },
    {
      "midi": 74,
      "hit": false,
      "t": 22130.414616666712,
      "d": 410.95900000000256,
      "v": 100
    },
    {
      "midi": 64,
      "hit": false,
      "t": 22335.894116666714,
      "d": 205.47950000000128,
      "v": 100
    },
    {
      "midi": 61,
      "hit": false,
      "t": 22335.894116666714,
      "d": 205.47950000000128,
      "v": 100
    },
    {
      "midi": 71,
      "hit": false,
      "t": 22335.894116666714,
      "d": 205.47950000000128,
      "v": 100
    },
    {
      "midi": 42,
      "hit": false,
      "t": 22335.894116666714,
      "d": 205.47950000000128,
      "v": 100
    },
    {
      "midi": 59,
      "hit": false,
      "t": 22335.894116666714,
      "d": 205.47950000000128,
      "v": 100
    },
    {
      "midi": 57,
      "hit": false,
      "t": 22335.894116666714,
      "d": 205.47950000000128,
      "v": 100
    },
    {
      "midi": 66,
      "hit": false,
      "t": 22335.894116666714,
      "d": 205.47950000000128,
      "v": 100
    },
    {
      "midi": 67,
      "hit": false,
      "t": 22335.894116666714,
      "d": 205.47950000000128,
      "v": 100
    },
    {
      "midi": 38,
      "hit": false,
      "t": 22335.894116666714,
      "d": 410.95900000000256,
      "v": 100
    },
    {
      "midi": 36,
      "hit": false,
      "t": 22335.894116666714,
      "d": 410.95900000000256,
      "v": 100
    },
    {
      "midi": 57,
      "hit": false,
      "t": 22541.373616666715,
      "d": 205.47950000000128,
      "v": 100
    },
    {
      "midi": 73,
      "hit": false,
      "t": 22541.373616666715,
      "d": 205.47950000000128,
      "v": 100
    },
    {
      "midi": 76,
      "hit": false,
      "t": 22541.373616666715,
      "d": 205.47950000000128,
      "v": 100
    },
    {
      "midi": 61,
      "hit": false,
      "t": 22541.373616666715,
      "d": 205.47950000000128,
      "v": 100
    },
    {
      "midi": 69,
      "hit": false,
      "t": 22541.373616666715,
      "d": 205.47950000000128,
      "v": 100
    },
    {
      "midi": 64,
      "hit": false,
      "t": 22541.373616666715,
      "d": 205.47950000000128,
      "v": 100
    },
    {
      "midi": 49,
      "hit": false,
      "t": 22541.373616666715,
      "d": 410.95900000000256,
      "v": 100
    },
    {
      "midi": 62,
      "hit": false,
      "t": 22746.853116666716,
      "d": 102.73975000000064,
      "v": 100
    },
    {
      "midi": 38,
      "hit": false,
      "t": 22746.853116666716,
      "d": 410.95900000000256,
      "v": 100
    },
    {
      "midi": 42,
      "hit": false,
      "t": 22746.853116666716,
      "d": 410.95900000000256,
      "v": 100
    },
    {
      "midi": 81,
      "hit": false,
      "t": 22746.853116666716,
      "d": 410.95900000000256,
      "v": 100
    },
    {
      "midi": 62,
      "hit": false,
      "t": 22849.592866666717,
      "d": 102.73975000000064,
      "v": 100
    },
    {
      "midi": 61,
      "hit": false,
      "t": 22952.332616666718,
      "d": 410.95900000000256,
      "v": 100
    },
    {
      "midi": 47,
      "hit": false,
      "t": 22952.332616666718,
      "d": 410.95900000000256,
      "v": 100
    },
    {
      "midi": 64,
      "hit": false,
      "t": 22952.332616666718,
      "d": 410.95900000000256,
      "v": 100
    },
    {
      "midi": 57,
      "hit": false,
      "t": 22952.332616666718,
      "d": 410.95900000000256,
      "v": 100
    },
    {
      "midi": 69,
      "hit": false,
      "t": 22952.332616666718,
      "d": 1027.3975000000064,
      "v": 100
    },
    {
      "midi": 79,
      "hit": false,
      "t": 23157.81211666672,
      "d": 308.2192500000019,
      "v": 100
    },
    {
      "midi": 38,
      "hit": false,
      "t": 23157.81211666672,
      "d": 410.95900000000256,
      "v": 100
    },
    {
      "midi": 42,
      "hit": false,
      "t": 23157.81211666672,
      "d": 410.95900000000256,
      "v": 100
    },
    {
      "midi": 61,
      "hit": false,
      "t": 23363.29161666672,
      "d": 205.47950000000128,
      "v": 100
    },
    {
      "midi": 36,
      "hit": false,
      "t": 23363.29161666672,
      "d": 205.47950000000128,
      "v": 100
    },
    {
      "midi": 57,
      "hit": false,
      "t": 23363.29161666672,
      "d": 205.47950000000128,
      "v": 100
    },
    {
      "midi": 64,
      "hit": false,
      "t": 23363.29161666672,
      "d": 205.47950000000128,
      "v": 100
    },
    {
      "midi": 45,
      "hit": false,
      "t": 23363.29161666672,
      "d": 410.95900000000256,
      "v": 100
    },
    {
      "midi": 78,
      "hit": false,
      "t": 23466.03136666672,
      "d": 308.2192500000019,
      "v": 100
    },
    {
      "midi": 64,
      "hit": false,
      "t": 23568.77111666672,
      "d": 410.95900000000256,
      "v": 100
    },
    {
      "midi": 42,
      "hit": false,
      "t": 23568.77111666672,
      "d": 410.95900000000256,
      "v": 100
    },
    {
      "midi": 61,
      "hit": false,
      "t": 23568.77111666672,
      "d": 410.95900000000256,
      "v": 100
    },
    {
      "midi": 57,
      "hit": false,
      "t": 23568.77111666672,
      "d": 410.95900000000256,
      "v": 100
    },
    {
      "midi": 38,
      "hit": false,
      "t": 23568.77111666672,
      "d": 410.95900000000256,
      "v": 100
    },
    {
      "midi": 36,
      "hit": false,
      "t": 23774.250616666723,
      "d": 205.47950000000128,
      "v": 100
    },
    {
      "midi": 74,
      "hit": false,
      "t": 23774.250616666723,
      "d": 205.47950000000128,
      "v": 100
    },
    {
      "midi": 45,
      "hit": false,
      "t": 23774.250616666723,
      "d": 205.47950000000128,
      "v": 100
    },
    {
      "midi": 36,
      "hit": false,
      "t": 23979.730116666724,
      "d": 410.9589999999989,
      "v": 100
    },
    {
      "midi": 64,
      "hit": false,
      "t": 23979.730116666724,
      "d": 410.9589999999989,
      "v": 100
    },
    {
      "midi": 61,
      "hit": false,
      "t": 23979.730116666724,
      "d": 410.9589999999989,
      "v": 100
    },
    {
      "midi": 47,
      "hit": false,
      "t": 23979.730116666724,
      "d": 410.9589999999989,
      "v": 100
    },
    {
      "midi": 38,
      "hit": false,
      "t": 23979.730116666724,
      "d": 410.9589999999989,
      "v": 100
    },
    {
      "midi": 42,
      "hit": false,
      "t": 23979.730116666724,
      "d": 410.9589999999989,
      "v": 100
    },
    {
      "midi": 76,
      "hit": false,
      "t": 23979.730116666724,
      "d": 616.4385000000002,
      "v": 100
    },
    {
      "midi": 69,
      "hit": false,
      "t": 23979.730116666724,
      "d": 616.4385000000002,
      "v": 100
    },
    {
      "midi": 73,
      "hit": false,
      "t": 23979.730116666724,
      "d": 616.4385000000002,
      "v": 100
    },
    {
      "midi": 62,
      "hit": false,
      "t": 24390.689116666723,
      "d": 205.47950000000128,
      "v": 100
    },
    {
      "midi": 45,
      "hit": false,
      "t": 24390.689116666723,
      "d": 205.47950000000128,
      "v": 100
    },
    {
      "midi": 42,
      "hit": false,
      "t": 24390.689116666723,
      "d": 410.95900000000256,
      "v": 100
    },
    {
      "midi": 38,
      "hit": false,
      "t": 24390.689116666723,
      "d": 410.95900000000256,
      "v": 100
    },
    {
      "midi": 47,
      "hit": false,
      "t": 24596.168616666724,
      "d": 410.95900000000256,
      "v": 100
    },
    {
      "midi": 78,
      "hit": false,
      "t": 24596.168616666724,
      "d": 410.95900000000256,
      "v": 100
    },
    {
      "midi": 64,
      "hit": false,
      "t": 24596.168616666724,
      "d": 616.4385000000038,
      "v": 100
    },
    {
      "midi": 69,
      "hit": false,
      "t": 24596.168616666724,
      "d": 616.4385000000038,
      "v": 100
    },
    {
      "midi": 66,
      "hit": false,
      "t": 24596.168616666724,
      "d": 616.4385000000038,
      "v": 100
    },
    {
      "midi": 74,
      "hit": false,
      "t": 24596.168616666724,
      "d": 616.4385000000038,
      "v": 100
    },
    {
      "midi": 61,
      "hit": false,
      "t": 24596.168616666724,
      "d": 616.4385000000038,
      "v": 100
    },
    {
      "midi": 62,
      "hit": false,
      "t": 24596.168616666724,
      "d": 616.4385000000038,
      "v": 100
    },
    {
      "midi": 38,
      "hit": false,
      "t": 24801.648116666725,
      "d": 410.95900000000256,
      "v": 100
    },
    {
      "midi": 42,
      "hit": false,
      "t": 24801.648116666725,
      "d": 410.95900000000256,
      "v": 100
    },
    {
      "midi": 36,
      "hit": false,
      "t": 25007.127616666727,
      "d": 205.47950000000128,
      "v": 100
    },
    {
      "midi": 45,
      "hit": false,
      "t": 25007.127616666727,
      "d": 205.47950000000128,
      "v": 100
    },
    {
      "midi": 79,
      "hit": false,
      "t": 25007.127616666727,
      "d": 410.95900000000256,
      "v": 100
    },
    {
      "midi": 64,
      "hit": false,
      "t": 25212.607116666728,
      "d": 205.47950000000128,
      "v": 100
    },
    {
      "midi": 61,
      "hit": false,
      "t": 25212.607116666728,
      "d": 205.47950000000128,
      "v": 100
    },
    {
      "midi": 47,
      "hit": false,
      "t": 25212.607116666728,
      "d": 205.47950000000128,
      "v": 100
    },
    {
      "midi": 38,
      "hit": false,
      "t": 25212.607116666728,
      "d": 410.95900000000256,
      "v": 100
    },
    {
      "midi": 42,
      "hit": false,
      "t": 25212.607116666728,
      "d": 410.95900000000256,
      "v": 100
    },
    {
      "midi": 62,
      "hit": false,
      "t": 25418.08661666673,
      "d": 102.73975000000064,
      "v": 100
    },
    {
      "midi": 45,
      "hit": false,
      "t": 25418.08661666673,
      "d": 205.47950000000128,
      "v": 100
    },
    {
      "midi": 36,
      "hit": false,
      "t": 25520.82636666673,
      "d": 102.73975000000064,
      "v": 100
    },
    {
      "midi": 62,
      "hit": false,
      "t": 25520.82636666673,
      "d": 102.73975000000064,
      "v": 100
    },
    {
      "midi": 67,
      "hit": false,
      "t": 25623.56611666673,
      "d": 205.47950000000128,
      "v": 100
    },
    {
      "midi": 62,
      "hit": false,
      "t": 25623.56611666673,
      "d": 205.47950000000128,
      "v": 100
    },
    {
      "midi": 71,
      "hit": false,
      "t": 25623.56611666673,
      "d": 205.47950000000128,
      "v": 100
    },
    {
      "midi": 75,
      "hit": false,
      "t": 25623.56611666673,
      "d": 205.47950000000128,
      "v": 100
    },
    {
      "midi": 79,
      "hit": false,
      "t": 25623.56611666673,
      "d": 205.47950000000128,
      "v": 100
    },
    {
      "midi": 43,
      "hit": false,
      "t": 25623.56611666673,
      "d": 205.47950000000128,
      "v": 100
    },
    {
      "midi": 63,
      "hit": false,
      "t": 25623.56611666673,
      "d": 205.47950000000128,
      "v": 100
    },
    {
      "midi": 38,
      "hit": false,
      "t": 25623.56611666673,
      "d": 410.95900000000256,
      "v": 100
    },
    {
      "midi": 42,
      "hit": false,
      "t": 25623.56611666673,
      "d": 410.95900000000256,
      "v": 100
    },
    {
      "midi": 36,
      "hit": false,
      "t": 25829.04561666673,
      "d": 205.47950000000128,
      "v": 100
    },
    {
      "midi": 75,
      "hit": false,
      "t": 25829.04561666673,
      "d": 205.47950000000128,
      "v": 100
    },
    {
      "midi": 63,
      "hit": false,
      "t": 25829.04561666673,
      "d": 205.47950000000128,
      "v": 100
    },
    {
      "midi": 43,
      "hit": false,
      "t": 25829.04561666673,
      "d": 205.47950000000128,
      "v": 100
    },
    {
      "midi": 71,
      "hit": false,
      "t": 25829.04561666673,
      "d": 205.47950000000128,
      "v": 100
    },
    {
      "midi": 62,
      "hit": false,
      "t": 25829.04561666673,
      "d": 205.47950000000128,
      "v": 100
    },
    {
      "midi": 67,
      "hit": false,
      "t": 25829.04561666673,
      "d": 205.47950000000128,
      "v": 100
    },
    {
      "midi": 79,
      "hit": false,
      "t": 25829.04561666673,
      "d": 205.47950000000128,
      "v": 100
    },
    {
      "midi": 67,
      "hit": false,
      "t": 26034.525116666733,
      "d": 205.47950000000128,
      "v": 100
    },
    {
      "midi": 62,
      "hit": false,
      "t": 26034.525116666733,
      "d": 205.47950000000128,
      "v": 100
    },
    {
      "midi": 71,
      "hit": false,
      "t": 26034.525116666733,
      "d": 205.47950000000128,
      "v": 100
    },
    {
      "midi": 75,
      "hit": false,
      "t": 26034.525116666733,
      "d": 205.47950000000128,
      "v": 100
    },
    {
      "midi": 79,
      "hit": false,
      "t": 26034.525116666733,
      "d": 205.47950000000128,
      "v": 100
    },
    {
      "midi": 43,
      "hit": false,
      "t": 26034.525116666733,
      "d": 205.47950000000128,
      "v": 100
    },
    {
      "midi": 63,
      "hit": false,
      "t": 26034.525116666733,
      "d": 205.47950000000128,
      "v": 100
    },
    {
      "midi": 38,
      "hit": false,
      "t": 26034.525116666733,
      "d": 410.95900000000256,
      "v": 100
    },
    {
      "midi": 42,
      "hit": false,
      "t": 26034.525116666733,
      "d": 410.95900000000256,
      "v": 100
    },
    {
      "midi": 66,
      "hit": false,
      "t": 26240.004616666734,
      "d": 205.47950000000128,
      "v": 100
    },
    {
      "midi": 62,
      "hit": false,
      "t": 26240.004616666734,
      "d": 205.47950000000128,
      "v": 100
    },
    {
      "midi": 43,
      "hit": false,
      "t": 26240.004616666734,
      "d": 205.47950000000128,
      "v": 100
    },
    {
      "midi": 78,
      "hit": false,
      "t": 26240.004616666734,
      "d": 205.47950000000128,
      "v": 100
    },
    {
      "midi": 71,
      "hit": false,
      "t": 26240.004616666734,
      "d": 205.47950000000128,
      "v": 100
    },
    {
      "midi": 74,
      "hit": false,
      "t": 26240.004616666734,
      "d": 205.47950000000128,
      "v": 100
    },
    {
      "midi": 38,
      "hit": false,
      "t": 26445.484116666736,
      "d": 205.47950000000128,
      "v": 100
    },
    {
      "midi": 42,
      "hit": false,
      "t": 26445.484116666736,
      "d": 205.47950000000128,
      "v": 100
    },
    {
      "midi": 47,
      "hit": false,
      "t": 26650.963616666737,
      "d": 205.47950000000128,
      "v": 100
    },
    {
      "midi": 78,
      "hit": false,
      "t": 26650.963616666737,
      "d": 205.47950000000128,
      "v": 100
    },
    {
      "midi": 69,
      "hit": false,
      "t": 26650.963616666737,
      "d": 410.95900000000256,
      "v": 100
    },
    {
      "midi": 62,
      "hit": false,
      "t": 26650.963616666737,
      "d": 410.95900000000256,
      "v": 100
    },
    {
      "midi": 71,
      "hit": false,
      "t": 26650.963616666737,
      "d": 616.4385000000038,
      "v": 100
    },
    {
      "midi": 66,
      "hit": false,
      "t": 26650.963616666737,
      "d": 616.4385000000038,
      "v": 100
    },
    {
      "midi": 74,
      "hit": false,
      "t": 26650.963616666737,
      "d": 616.4385000000038,
      "v": 100
    },
    {
      "midi": 81,
      "hit": false,
      "t": 26650.963616666737,
      "d": 616.4385000000038,
      "v": 100
    },
    {
      "midi": 47,
      "hit": false,
      "t": 26856.44311666674,
      "d": 205.47950000000128,
      "v": 100
    },
    {
      "midi": 78,
      "hit": false,
      "t": 26856.44311666674,
      "d": 205.47950000000128,
      "v": 100
    },
    {
      "midi": 47,
      "hit": false,
      "t": 27061.92261666674,
      "d": 205.47950000000128,
      "v": 100
    },
    {
      "midi": 62,
      "hit": false,
      "t": 27061.92261666674,
      "d": 205.47950000000128,
      "v": 100
    },
    {
      "midi": 78,
      "hit": false,
      "t": 27061.92261666674,
      "d": 205.47950000000128,
      "v": 100
    },
    {
      "midi": 69,
      "hit": false,
      "t": 27061.92261666674,
      "d": 205.47950000000128,
      "v": 100
    },
    {
      "midi": 62,
      "hit": false,
      "t": 27267.40211666674,
      "d": 205.47950000000128,
      "v": 100
    },
    {
      "midi": 78,
      "hit": false,
      "t": 27267.40211666674,
      "d": 308.2192500000019,
      "v": 100
    },
    {
      "midi": 71,
      "hit": false,
      "t": 27267.40211666674,
      "d": 308.2192500000019,
      "v": 100
    },
    {
      "midi": 67,
      "hit": false,
      "t": 27267.40211666674,
      "d": 308.2192500000019,
      "v": 100
    },
    {
      "midi": 74,
      "hit": false,
      "t": 27267.40211666674,
      "d": 308.2192500000019,
      "v": 100
    },
    {
      "midi": 40,
      "hit": false,
      "t": 27267.40211666674,
      "d": 410.95900000000256,
      "v": 100
    },
    {
      "midi": 57,
      "hit": false,
      "t": 27267.40211666674,
      "d": 410.95900000000256,
      "v": 100
    },
    {
      "midi": 36,
      "hit": false,
      "t": 27267.40211666674,
      "d": 410.95900000000256,
      "v": 100
    },
    {
      "midi": 38,
      "hit": false,
      "t": 27267.40211666674,
      "d": 410.95900000000256,
      "v": 100
    },
    {
      "midi": 62,
      "hit": false,
      "t": 27472.881616666742,
      "d": 205.47950000000128,
      "v": 100
    },
    {
      "midi": 78,
      "hit": false,
      "t": 27575.621366666743,
      "d": 102.73975000000064,
      "v": 100
    },
    {
      "midi": 74,
      "hit": false,
      "t": 27575.621366666743,
      "d": 102.73975000000064,
      "v": 100
    },
    {
      "midi": 71,
      "hit": false,
      "t": 27575.621366666743,
      "d": 102.73975000000064,
      "v": 100
    },
    {
      "midi": 67,
      "hit": false,
      "t": 27575.621366666743,
      "d": 102.73975000000064,
      "v": 100
    },
    {
      "midi": 71,
      "hit": false,
      "t": 27678.361116666743,
      "d": 205.47950000000128,
      "v": 100
    },
    {
      "midi": 66,
      "hit": false,
      "t": 27678.361116666743,
      "d": 205.47950000000128,
      "v": 100
    },
    {
      "midi": 62,
      "hit": false,
      "t": 27678.361116666743,
      "d": 205.47950000000128,
      "v": 100
    },
    {
      "midi": 40,
      "hit": false,
      "t": 27678.361116666743,
      "d": 308.2192500000019,
      "v": 100
    },
    {
      "midi": 42,
      "hit": false,
      "t": 27678.361116666743,
      "d": 410.95900000000256,
      "v": 100
    },
    {
      "midi": 78,
      "hit": false,
      "t": 27678.361116666743,
      "d": 410.95900000000256,
      "v": 100
    },
    {
      "midi": 74,
      "hit": false,
      "t": 27678.361116666743,
      "d": 410.95900000000256,
      "v": 100
    },
    {
      "midi": 67,
      "hit": false,
      "t": 27678.361116666743,
      "d": 410.95900000000256,
      "v": 100
    },
    {
      "midi": 62,
      "hit": false,
      "t": 27883.840616666745,
      "d": 102.73975000000064,
      "v": 100
    },
    {
      "midi": 62,
      "hit": false,
      "t": 27986.580366666745,
      "d": 102.73975000000064,
      "v": 100
    },
    {
      "midi": 38,
      "hit": false,
      "t": 27986.580366666745,
      "d": 102.73975000000064,
      "v": 100
    },
    {
      "midi": 62,
      "hit": false,
      "t": 28089.320116666746,
      "d": 205.47950000000128,
      "v": 100
    },
    {
      "midi": 40,
      "hit": false,
      "t": 28089.320116666746,
      "d": 205.47950000000128,
      "v": 100
    },
    {
      "midi": 78,
      "hit": false,
      "t": 28089.320116666746,
      "d": 205.47950000000128,
      "v": 100
    },
    {
      "midi": 42,
      "hit": false,
      "t": 28089.320116666746,
      "d": 410.95900000000256,
      "v": 100
    },
    {
      "midi": 38,
      "hit": false,
      "t": 28089.320116666746,
      "d": 410.95900000000256,
      "v": 100
    },
    {
      "midi": 36,
      "hit": false,
      "t": 28294.799616666747,
      "d": 205.47950000000128,
      "v": 100
    },
    {
      "midi": 71,
      "hit": false,
      "t": 28294.799616666747,
      "d": 410.95900000000256,
      "v": 100
    },
    {
      "midi": 43,
      "hit": false,
      "t": 28294.799616666747,
      "d": 410.95900000000256,
      "v": 100
    },
    {
      "midi": 62,
      "hit": false,
      "t": 28294.799616666747,
      "d": 410.95900000000256,
      "v": 100
    },
    {
      "midi": 66,
      "hit": false,
      "t": 28294.799616666747,
      "d": 410.95900000000256,
      "v": 100
    },
    {
      "midi": 76,
      "hit": false,
      "t": 28294.799616666747,
      "d": 410.95900000000256,
      "v": 100
    },
    {
      "midi": 42,
      "hit": false,
      "t": 28500.27911666675,
      "d": 410.95900000000256,
      "v": 100
    },
    {
      "midi": 38,
      "hit": false,
      "t": 28500.27911666675,
      "d": 410.95900000000256,
      "v": 100
    },
    {
      "midi": 36,
      "hit": false,
      "t": 28705.75861666675,
      "d": 205.47950000000128,
      "v": 100
    },
    {
      "midi": 71,
      "hit": false,
      "t": 28705.75861666675,
      "d": 205.47950000000128,
      "v": 100
    },
    {
      "midi": 78,
      "hit": false,
      "t": 28705.75861666675,
      "d": 205.47950000000128,
      "v": 100
    },
    {
      "midi": 74,
      "hit": false,
      "t": 28705.75861666675,
      "d": 205.47950000000128,
      "v": 100
    },
    {
      "midi": 62,
      "hit": false,
      "t": 28705.75861666675,
      "d": 205.47950000000128,
      "v": 100
    },
    {
      "midi": 67,
      "hit": false,
      "t": 28705.75861666675,
      "d": 205.47950000000128,
      "v": 100
    },
    {
      "midi": 40,
      "hit": false,
      "t": 28705.75861666675,
      "d": 205.47950000000128,
      "v": 100
    },
    {
      "midi": 81,
      "hit": false,
      "t": 28705.75861666675,
      "d": 410.95900000000256,
      "v": 100
    },
    {
      "midi": 62,
      "hit": false,
      "t": 28911.23811666675,
      "d": 205.47950000000128,
      "v": 100
    },
    {
      "midi": 42,
      "hit": false,
      "t": 28911.23811666675,
      "d": 205.47950000000128,
      "v": 100
    },
    {
      "midi": 78,
      "hit": false,
      "t": 28911.23811666675,
      "d": 205.47950000000128,
      "v": 100
    },
    {
      "midi": 71,
      "hit": false,
      "t": 28911.23811666675,
      "d": 205.47950000000128,
      "v": 100
    },
    {
      "midi": 74,
      "hit": false,
      "t": 28911.23811666675,
      "d": 205.47950000000128,
      "v": 100
    },
    {
      "midi": 67,
      "hit": false,
      "t": 28911.23811666675,
      "d": 205.47950000000128,
      "v": 100
    },
    {
      "midi": 38,
      "hit": false,
      "t": 28911.23811666675,
      "d": 410.95900000000256,
      "v": 100
    },
    {
      "midi": 36,
      "hit": false,
      "t": 28911.23811666675,
      "d": 410.95900000000256,
      "v": 100
    },
    {
      "midi": 73,
      "hit": false,
      "t": 29116.717616666752,
      "d": 205.47950000000128,
      "v": 100
    },
    {
      "midi": 76,
      "hit": false,
      "t": 29116.717616666752,
      "d": 205.47950000000128,
      "v": 100
    },
    {
      "midi": 69,
      "hit": false,
      "t": 29116.717616666752,
      "d": 205.47950000000128,
      "v": 100
    },
    {
      "midi": 64,
      "hit": false,
      "t": 29116.717616666752,
      "d": 205.47950000000128,
      "v": 100
    },
    {
      "midi": 45,
      "hit": false,
      "t": 29116.717616666752,
      "d": 205.47950000000128,
      "v": 100
    },
    {
      "midi": 66,
      "hit": false,
      "t": 29116.717616666752,
      "d": 205.47950000000128,
      "v": 100
    },
    {
      "midi": 79,
      "hit": false,
      "t": 29116.717616666752,
      "d": 410.95900000000256,
      "v": 100
    },
    {
      "midi": 62,
      "hit": false,
      "t": 29322.197116666754,
      "d": 205.47950000000128,
      "v": 100
    },
    {
      "midi": 47,
      "hit": false,
      "t": 29322.197116666754,
      "d": 205.47950000000128,
      "v": 100
    },
    {
      "midi": 74,
      "hit": false,
      "t": 29322.197116666754,
      "d": 308.2192500000019,
      "v": 100
    },
    {
      "midi": 71,
      "hit": false,
      "t": 29322.197116666754,
      "d": 308.2192500000019,
      "v": 100
    },
    {
      "midi": 67,
      "hit": false,
      "t": 29322.197116666754,
      "d": 308.2192500000019,
      "v": 100
    },
    {
      "midi": 38,
      "hit": false,
      "t": 29322.197116666754,
      "d": 410.95900000000256,
      "v": 100
    },
    {
      "midi": 42,
      "hit": false,
      "t": 29322.197116666754,
      "d": 410.95900000000256,
      "v": 100
    },
    {
      "midi": 78,
      "hit": false,
      "t": 29527.676616666755,
      "d": 102.73975000000064,
      "v": 100
    },
    {
      "midi": 45,
      "hit": false,
      "t": 29527.676616666755,
      "d": 205.47950000000128,
      "v": 100
    },
    {
      "midi": 64,
      "hit": false,
      "t": 29527.676616666755,
      "d": 410.95900000000256,
      "v": 100
    },
    {
      "midi": 66,
      "hit": false,
      "t": 29527.676616666755,
      "d": 410.95900000000256,
      "v": 100
    },
    {
      "midi": 76,
      "hit": false,
      "t": 29630.416366666755,
      "d": 102.73975000000064,
      "v": 100
    },
    {
      "midi": 69,
      "hit": false,
      "t": 29630.416366666755,
      "d": 102.73975000000064,
      "v": 100
    },
    {
      "midi": 73,
      "hit": false,
      "t": 29630.416366666755,
      "d": 102.73975000000064,
      "v": 100
    },
    {
      "midi": 49,
      "hit": false,
      "t": 29733.156116666756,
      "d": 205.47950000000128,
      "v": 100
    },
    {
      "midi": 38,
      "hit": false,
      "t": 29733.156116666756,
      "d": 410.95900000000256,
      "v": 100
    },
    {
      "midi": 42,
      "hit": false,
      "t": 29733.156116666756,
      "d": 410.95900000000256,
      "v": 100
    },
    {
      "midi": 36,
      "hit": false,
      "t": 29938.635616666757,
      "d": 205.47950000000128,
      "v": 100
    },
    {
      "midi": 66,
      "hit": false,
      "t": 29938.635616666757,
      "d": 205.47950000000128,
      "v": 100
    },
    {
      "midi": 73,
      "hit": false,
      "t": 29938.635616666757,
      "d": 205.47950000000128,
      "v": 100
    },
    {
      "midi": 47,
      "hit": false,
      "t": 29938.635616666757,
      "d": 205.47950000000128,
      "v": 100
    },
    {
      "midi": 64,
      "hit": false,
      "t": 29938.635616666757,
      "d": 205.47950000000128,
      "v": 100
    },
    {
      "midi": 76,
      "hit": false,
      "t": 29938.635616666757,
      "d": 616.4385000000038,
      "v": 100
    },
    {
      "midi": 69,
      "hit": false,
      "t": 29938.635616666757,
      "d": 616.4385000000038,
      "v": 100
    },
    {
      "midi": 73,
      "hit": false,
      "t": 30144.11511666676,
      "d": 205.47950000000128,
      "v": 100
    },
    {
      "midi": 64,
      "hit": false,
      "t": 30144.11511666676,
      "d": 205.47950000000128,
      "v": 100
    },
    {
      "midi": 66,
      "hit": false,
      "t": 30144.11511666676,
      "d": 205.47950000000128,
      "v": 100
    },
    {
      "midi": 45,
      "hit": false,
      "t": 30144.11511666676,
      "d": 205.47950000000128,
      "v": 100
    },
    {
      "midi": 38,
      "hit": false,
      "t": 30144.11511666676,
      "d": 410.95900000000256,
      "v": 100
    },
    {
      "midi": 42,
      "hit": false,
      "t": 30144.11511666676,
      "d": 410.95900000000256,
      "v": 100
    },
    {
      "midi": 36,
      "hit": false,
      "t": 30349.59461666676,
      "d": 205.47950000000128,
      "v": 100
    },
    {
      "midi": 66,
      "hit": false,
      "t": 30349.59461666676,
      "d": 205.47950000000128,
      "v": 100
    },
    {
      "midi": 64,
      "hit": false,
      "t": 30349.59461666676,
      "d": 205.47950000000128,
      "v": 100
    },
    {
      "midi": 47,
      "hit": false,
      "t": 30349.59461666676,
      "d": 205.47950000000128,
      "v": 100
    },
    {
      "midi": 73,
      "hit": false,
      "t": 30349.59461666676,
      "d": 205.47950000000128,
      "v": 100
    },
    {
      "midi": 62,
      "hit": false,
      "t": 30555.07411666676,
      "d": 205.47950000000128,
      "v": 100
    },
    {
      "midi": 38,
      "hit": false,
      "t": 30555.07411666676,
      "d": 410.95900000000256,
      "v": 100
    },
    {
      "midi": 36,
      "hit": false,
      "t": 30555.07411666676,
      "d": 410.95900000000256,
      "v": 100
    },
    {
      "midi": 82,
      "hit": false,
      "t": 30555.07411666676,
      "d": 410.95900000000256,
      "v": 100
    },
    {
      "midi": 42,
      "hit": false,
      "t": 30555.07411666676,
      "d": 410.95900000000256,
      "v": 100
    },
    {
      "midi": 62,
      "hit": false,
      "t": 30760.553616666763,
      "d": 205.47950000000128,
      "v": 100
    },
    {
      "midi": 85,
      "hit": false,
      "t": 30966.033116666764,
      "d": 205.47950000000128,
      "v": 100
    },
    {
      "midi": 38,
      "hit": false,
      "t": 30966.033116666764,
      "d": 308.2192500000019,
      "v": 100
    },
    {
      "midi": 66,
      "hit": false,
      "t": 30966.033116666764,
      "d": 410.95900000000256,
      "v": 100
    },
    {
      "midi": 64,
      "hit": false,
      "t": 30966.033116666764,
      "d": 410.95900000000256,
      "v": 100
    },
    {
      "midi": 70,
      "hit": false,
      "t": 30966.033116666764,
      "d": 410.95900000000256,
      "v": 100
    },
    {
      "midi": 76,
      "hit": false,
      "t": 30966.033116666764,
      "d": 410.95900000000256,
      "v": 100
    },
    {
      "midi": 73,
      "hit": false,
      "t": 30966.033116666764,
      "d": 410.95900000000256,
      "v": 100
    },
    {
      "midi": 42,
      "hit": false,
      "t": 30966.033116666764,
      "d": 410.95900000000256,
      "v": 100
    },
    {
      "midi": 78,
      "hit": false,
      "t": 31171.512616666765,
      "d": 410.95900000000256,
      "v": 100
    },
    {
      "midi": 37,
      "hit": false,
      "t": 31274.252366666766,
      "d": 102.73975000000064,
      "v": 100
    },
    {
      "midi": 62,
      "hit": false,
      "t": 31376.992116666766,
      "d": 205.47950000000128,
      "v": 100
    },
    {
      "midi": 38,
      "hit": false,
      "t": 31376.992116666766,
      "d": 205.47950000000128,
      "v": 100
    },
    {
      "midi": 36,
      "hit": false,
      "t": 31582.471616666768,
      "d": 205.47950000000128,
      "v": 100
    },
    {
      "midi": 76,
      "hit": false,
      "t": 31582.471616666768,
      "d": 205.47950000000128,
      "v": 100
    },
    {
      "midi": 73,
      "hit": false,
      "t": 31582.471616666768,
      "d": 205.47950000000128,
      "v": 100
    },
    {
      "midi": 42,
      "hit": false,
      "t": 31582.471616666768,
      "d": 205.47950000000128,
      "v": 100
    },
    {
      "midi": 70,
      "hit": false,
      "t": 31582.471616666768,
      "d": 205.47950000000128,
      "v": 100
    },
    {
      "midi": 66,
      "hit": false,
      "t": 31582.471616666768,
      "d": 205.47950000000128,
      "v": 100
    },
    {
      "midi": 64,
      "hit": false,
      "t": 31582.471616666768,
      "d": 410.95900000000256,
      "v": 100
    },
    {
      "midi": 42,
      "hit": false,
      "t": 31787.95111666677,
      "d": 205.47950000000128,
      "v": 100
    },
    {
      "midi": 38,
      "hit": false,
      "t": 31787.95111666677,
      "d": 410.95900000000256,
      "v": 100
    },
    {
      "midi": 45,
      "hit": false,
      "t": 31993.43061666677,
      "d": 205.47950000000128,
      "v": 100
    },
    {
      "midi": 70,
      "hit": false,
      "t": 31993.43061666677,
      "d": 205.47950000000128,
      "v": 100
    },
    {
      "midi": 73,
      "hit": false,
      "t": 31993.43061666677,
      "d": 205.47950000000128,
      "v": 100
    },
    {
      "midi": 76,
      "hit": false,
      "t": 31993.43061666677,
      "d": 205.47950000000128,
      "v": 100
    },
    {
      "midi": 66,
      "hit": false,
      "t": 31993.43061666677,
      "d": 205.47950000000128,
      "v": 100
    },
    {
      "midi": 64,
      "hit": false,
      "t": 31993.43061666677,
      "d": 205.47950000000128,
      "v": 100
    },
    {
      "midi": 36,
      "hit": false,
      "t": 32096.17036666677,
      "d": 102.73975000000064,
      "v": 100
    },
    {
      "midi": 76,
      "hit": false,
      "t": 32198.91011666677,
      "d": 205.47950000000128,
      "v": 100
    },
    {
      "midi": 43,
      "hit": false,
      "t": 32198.91011666677,
      "d": 205.47950000000128,
      "v": 100
    },
    {
      "midi": 73,
      "hit": false,
      "t": 32198.91011666677,
      "d": 205.47950000000128,
      "v": 100
    },
    {
      "midi": 66,
      "hit": false,
      "t": 32198.91011666677,
      "d": 205.47950000000128,
      "v": 100
    },
    {
      "midi": 71,
      "hit": false,
      "t": 32198.91011666677,
      "d": 205.47950000000128,
      "v": 100
    },
    {
      "midi": 38,
      "hit": false,
      "t": 32198.91011666677,
      "d": 410.95900000000256,
      "v": 100
    },
    {
      "midi": 42,
      "hit": false,
      "t": 32198.91011666677,
      "d": 410.95900000000256,
      "v": 100
    },
    {
      "midi": 69,
      "hit": false,
      "t": 32198.91011666677,
      "d": 616.4385000000002,
      "v": 100
    },
    {
      "midi": 36,
      "hit": false,
      "t": 32404.389616666773,
      "d": 205.47950000000128,
      "v": 100
    },
    {
      "midi": 71,
      "hit": false,
      "t": 32404.389616666773,
      "d": 205.47950000000128,
      "v": 100
    },
    {
      "midi": 66,
      "hit": false,
      "t": 32404.389616666773,
      "d": 205.47950000000128,
      "v": 100
    },
    {
      "midi": 43,
      "hit": false,
      "t": 32404.389616666773,
      "d": 205.47950000000128,
      "v": 100
    },
    {
      "midi": 76,
      "hit": false,
      "t": 32404.389616666773,
      "d": 205.47950000000128,
      "v": 100
    },
    {
      "midi": 74,
      "hit": false,
      "t": 32404.389616666773,
      "d": 205.47950000000128,
      "v": 100
    },
    {
      "midi": 76,
      "hit": false,
      "t": 32609.869116666774,
      "d": 205.47949999999764,
      "v": 100
    },
    {
      "midi": 71,
      "hit": false,
      "t": 32609.869116666774,
      "d": 205.47949999999764,
      "v": 100
    },
    {
      "midi": 43,
      "hit": false,
      "t": 32609.869116666774,
      "d": 205.47949999999764,
      "v": 100
    },
    {
      "midi": 66,
      "hit": false,
      "t": 32609.869116666774,
      "d": 205.47949999999764,
      "v": 100
    },
    {
      "midi": 38,
      "hit": false,
      "t": 32609.869116666774,
      "d": 410.9589999999989,
      "v": 100
    },
    {
      "midi": 42,
      "hit": false,
      "t": 32609.869116666774,
      "d": 410.9589999999989,
      "v": 100
    },
    {
      "midi": 71,
      "hit": false,
      "t": 32815.34861666677,
      "d": 205.47950000000128,
      "v": 100
    },
    {
      "midi": 74,
      "hit": false,
      "t": 32815.34861666677,
      "d": 205.47950000000128,
      "v": 100
    },
    {
      "midi": 43,
      "hit": false,
      "t": 32815.34861666677,
      "d": 205.47950000000128,
      "v": 100
    },
    {
      "midi": 36,
      "hit": false,
      "t": 32918.08836666677,
      "d": 102.73975000000064,
      "v": 100
    },
    {
      "midi": 43,
      "hit": false,
      "t": 33020.82811666677,
      "d": 205.47950000000128,
      "v": 100
    },
    {
      "midi": 38,
      "hit": false,
      "t": 33020.82811666677,
      "d": 410.95900000000256,
      "v": 100
    },
    {
      "midi": 42,
      "hit": false,
      "t": 33020.82811666677,
      "d": 410.95900000000256,
      "v": 100
    },
    {
      "midi": 36,
      "hit": false,
      "t": 33226.307616666774,
      "d": 205.47950000000128,
      "v": 100
    },
    {
      "midi": 74,
      "hit": false,
      "t": 33226.307616666774,
      "d": 205.47950000000128,
      "v": 100
    },
    {
      "midi": 45,
      "hit": false,
      "t": 33226.307616666774,
      "d": 205.47950000000128,
      "v": 100
    },
    {
      "midi": 71,
      "hit": false,
      "t": 33226.307616666774,
      "d": 205.47950000000128,
      "v": 100
    },
    {
      "midi": 78,
      "hit": false,
      "t": 33226.307616666774,
      "d": 205.47950000000128,
      "v": 100
    },
    {
      "midi": 74,
      "hit": false,
      "t": 33431.787116666776,
      "d": 205.47950000000128,
      "v": 100
    },
    {
      "midi": 71,
      "hit": false,
      "t": 33431.787116666776,
      "d": 205.47950000000128,
      "v": 100
    },
    {
      "midi": 78,
      "hit": false,
      "t": 33431.787116666776,
      "d": 205.47950000000128,
      "v": 100
    },
    {
      "midi": 38,
      "hit": false,
      "t": 33431.787116666776,
      "d": 410.95900000000256,
      "v": 100
    },
    {
      "midi": 42,
      "hit": false,
      "t": 33431.787116666776,
      "d": 410.95900000000256,
      "v": 100
    },
    {
      "midi": 47,
      "hit": false,
      "t": 33431.787116666776,
      "d": 410.95900000000256,
      "v": 100
    },
    {
      "midi": 36,
      "hit": false,
      "t": 33637.26661666678,
      "d": 205.47950000000128,
      "v": 100
    },
    {
      "midi": 74,
      "hit": false,
      "t": 33637.26661666678,
      "d": 205.47950000000128,
      "v": 100
    },
    {
      "midi": 78,
      "hit": false,
      "t": 33637.26661666678,
      "d": 205.47950000000128,
      "v": 100
    },
    {
      "midi": 71,
      "hit": false,
      "t": 33637.26661666678,
      "d": 205.47950000000128,
      "v": 100
    },
    {
      "midi": 62,
      "hit": false,
      "t": 33842.74611666678,
      "d": 205.47950000000128,
      "v": 100
    },
    {
      "midi": 78,
      "hit": false,
      "t": 33842.74611666678,
      "d": 308.2192500000019,
      "v": 100
    },
    {
      "midi": 38,
      "hit": false,
      "t": 33842.74611666678,
      "d": 410.95900000000256,
      "v": 100
    },
    {
      "midi": 42,
      "hit": false,
      "t": 33842.74611666678,
      "d": 410.95900000000256,
      "v": 100
    },
    {
      "midi": 40,
      "hit": false,
      "t": 33842.74611666678,
      "d": 410.95900000000256,
      "v": 100
    },
    {
      "midi": 36,
      "hit": false,
      "t": 33842.74611666678,
      "d": 410.95900000000256,
      "v": 100
    },
    {
      "midi": 62,
      "hit": false,
      "t": 34048.22561666678,
      "d": 205.47950000000128,
      "v": 100
    },
    {
      "midi": 76,
      "hit": false,
      "t": 34150.96536666678,
      "d": 308.2192500000019,
      "v": 100
    },
    {
      "midi": 40,
      "hit": false,
      "t": 34253.70511666678,
      "d": 308.2192500000019,
      "v": 100
    },
    {
      "midi": 67,
      "hit": false,
      "t": 34253.70511666678,
      "d": 410.95900000000256,
      "v": 100
    },
    {
      "midi": 66,
      "hit": false,
      "t": 34253.70511666678,
      "d": 410.95900000000256,
      "v": 100
    },
    {
      "midi": 78,
      "hit": false,
      "t": 34253.70511666678,
      "d": 410.95900000000256,
      "v": 100
    },
    {
      "midi": 74,
      "hit": false,
      "t": 34253.70511666678,
      "d": 410.95900000000256,
      "v": 100
    },
    {
      "midi": 62,
      "hit": false,
      "t": 34253.70511666678,
      "d": 410.95900000000256,
      "v": 100
    },
    {
      "midi": 42,
      "hit": false,
      "t": 34253.70511666678,
      "d": 410.95900000000256,
      "v": 100
    },
    {
      "midi": 71,
      "hit": false,
      "t": 34459.18461666678,
      "d": 205.47950000000128,
      "v": 100
    },
    {
      "midi": 38,
      "hit": false,
      "t": 34561.92436666678,
      "d": 102.73975000000064,
      "v": 100
    },
    {
      "midi": 62,
      "hit": false,
      "t": 34664.66411666678,
      "d": 205.47950000000128,
      "v": 100
    },
    {
      "midi": 40,
      "hit": false,
      "t": 34664.66411666678,
      "d": 205.47950000000128,
      "v": 100
    },
    {
      "midi": 42,
      "hit": false,
      "t": 34664.66411666678,
      "d": 410.95900000000256,
      "v": 100
    },
    {
      "midi": 38,
      "hit": false,
      "t": 34664.66411666678,
      "d": 410.95900000000256,
      "v": 100
    },
    {
      "midi": 36,
      "hit": false,
      "t": 34870.143616666785,
      "d": 205.47950000000128,
      "v": 100
    },
    {
      "midi": 78,
      "hit": false,
      "t": 34870.143616666785,
      "d": 205.47950000000128,
      "v": 100
    },
    {
      "midi": 71,
      "hit": false,
      "t": 34870.143616666785,
      "d": 205.47950000000128,
      "v": 100
    },
    {
      "midi": 67,
      "hit": false,
      "t": 34870.143616666785,
      "d": 205.47950000000128,
      "v": 100
    },
    {
      "midi": 74,
      "hit": false,
      "t": 34870.143616666785,
      "d": 205.47950000000128,
      "v": 100
    },
    {
      "midi": 66,
      "hit": false,
      "t": 34870.143616666785,
      "d": 410.95900000000256,
      "v": 100
    },
    {
      "midi": 43,
      "hit": false,
      "t": 34870.143616666785,
      "d": 410.95900000000256,
      "v": 100
    },
    {
      "midi": 62,
      "hit": false,
      "t": 34870.143616666785,
      "d": 410.95900000000256,
      "v": 100
    },
    {
      "midi": 42,
      "hit": false,
      "t": 35075.623116666786,
      "d": 410.95900000000256,
      "v": 100
    },
    {
      "midi": 38,
      "hit": false,
      "t": 35075.623116666786,
      "d": 410.95900000000256,
      "v": 100
    },
    {
      "midi": 62,
      "hit": false,
      "t": 35281.10261666679,
      "d": 205.47950000000128,
      "v": 100
    },
    {
      "midi": 40,
      "hit": false,
      "t": 35281.10261666679,
      "d": 205.47950000000128,
      "v": 100
    },
    {
      "midi": 42,
      "hit": false,
      "t": 35486.58211666679,
      "d": 205.47950000000128,
      "v": 100
    },
    {
      "midi": 38,
      "hit": false,
      "t": 35486.58211666679,
      "d": 410.95900000000256,
      "v": 100
    },
    {
      "midi": 66,
      "hit": false,
      "t": 35486.58211666679,
      "d": 821.9180000000051,
      "v": 100
    },
    {
      "midi": 64,
      "hit": false,
      "t": 35486.58211666679,
      "d": 821.9180000000051,
      "v": 100
    },
    {
      "midi": 69,
      "hit": false,
      "t": 35486.58211666679,
      "d": 821.9180000000051,
      "v": 100
    },
    {
      "midi": 49,
      "hit": false,
      "t": 35692.06161666679,
      "d": 410.95900000000256,
      "v": 100
    },
    {
      "midi": 73,
      "hit": false,
      "t": 35897.54111666679,
      "d": 410.95900000000256,
      "v": 100
    },
    {
      "midi": 38,
      "hit": false,
      "t": 35897.54111666679,
      "d": 410.95900000000256,
      "v": 100
    },
    {
      "midi": 42,
      "hit": false,
      "t": 35897.54111666679,
      "d": 410.95900000000256,
      "v": 100
    },
    {
      "midi": 47,
      "hit": false,
      "t": 36103.02061666679,
      "d": 410.95900000000256,
      "v": 100
    },
    {
      "midi": 62,
      "hit": false,
      "t": 36308.50011666679,
      "d": 205.47950000000128,
      "v": 100
    },
    {
      "midi": 69,
      "hit": false,
      "t": 36308.50011666679,
      "d": 819.5333500000052,
      "v": 100
    },
    {
      "midi": 64,
      "hit": false,
      "t": 36308.50011666679,
      "d": 819.5333500000052,
      "v": 100
    },
    {
      "midi": 73,
      "hit": false,
      "t": 36513.979616666795,
      "d": 102.73975000000064,
      "v": 100
    },
    {
      "midi": 47,
      "hit": false,
      "t": 36513.979616666795,
      "d": 205.47950000000128,
      "v": 100
    },
    {
      "midi": 45,
      "hit": false,
      "t": 36513.979616666795,
      "d": 205.47950000000128,
      "v": 100
    },
    {
      "midi": 38,
      "hit": false,
      "t": 36513.979616666795,
      "d": 205.47950000000128,
      "v": 100
    },
    {
      "midi": 78,
      "hit": false,
      "t": 36513.979616666795,
      "d": 614.0538500000039,
      "v": 100
    },
    {
      "midi": 74,
      "hit": false,
      "t": 36616.719366666795,
      "d": 308.2192500000019,
      "v": 100
    },
    {
      "midi": 38,
      "hit": false,
      "t": 36719.459116666796,
      "d": 205.47950000000128,
      "v": 100
    },
    {
      "midi": 45,
      "hit": false,
      "t": 36719.459116666796,
      "d": 205.47950000000128,
      "v": 100
    },
    {
      "midi": 47,
      "hit": false,
      "t": 36719.459116666796,
      "d": 205.47950000000128,
      "v": 100
    },
    {
      "midi": 57,
      "hit": false,
      "t": 36719.459116666796,
      "d": 205.47950000000128,
      "v": 100
    },
    {
      "midi": 38,
      "hit": false,
      "t": 36924.9386166668,
      "d": 203.09485000000132,
      "v": 100
    },
    {
      "midi": 76,
      "hit": false,
      "t": 36924.9386166668,
      "d": 203.09485000000132,
      "v": 100
    },
    {
      "midi": 58,
      "hit": false,
      "t": 36924.9386166668,
      "d": 203.09485000000132,
      "v": 100
    },
    {
      "midi": 47,
      "hit": false,
      "t": 36924.9386166668,
      "d": 203.09485000000132,
      "v": 100
    },
    {
      "midi": 45,
      "hit": false,
      "t": 36924.9386166668,
      "d": 203.09485000000132,
      "v": 100
    },
    {
      "midi": 57,
      "hit": false,
      "t": 37128.0334666668,
      "d": 196.8798833333276,
      "v": 100
    },
    {
      "midi": 43,
      "hit": false,
      "t": 37128.0334666668,
      "d": 196.8798833333276,
      "v": 100
    },
    {
      "midi": 55,
      "hit": false,
      "t": 37128.0334666668,
      "d": 196.8798833333276,
      "v": 80
    },
    {
      "midi": 36,
      "hit": false,
      "t": 37128.0334666668,
      "d": 395.55538333332515,
      "v": 100
    },
    {
      "midi": 59,
      "hit": false,
      "t": 37128.0334666668,
      "d": 395.55538333332515,
      "v": 100
    },
    {
      "midi": 76,
      "hit": false,
      "t": 37128.0334666668,
      "d": 594.2308833333227,
      "v": 100
    },
    {
      "midi": 78,
      "hit": false,
      "t": 37128.0334666668,
      "d": 1587.6083833333105,
      "v": 100
    },
    {
      "midi": 71,
      "hit": false,
      "t": 37128.0334666668,
      "d": 1587.6083833333105,
      "v": 100
    },
    {
      "midi": 42,
      "hit": false,
      "t": 37324.913350000126,
      "d": 198.67549999999756,
      "v": 100
    },
    {
      "midi": 43,
      "hit": false,
      "t": 37324.913350000126,
      "d": 198.67549999999756,
      "v": 100
    },
    {
      "midi": 55,
      "hit": false,
      "t": 37324.913350000126,
      "d": 198.67549999999756,
      "v": 80
    },
    {
      "midi": 42,
      "hit": false,
      "t": 37523.588850000124,
      "d": 198.67549999999756,
      "v": 100
    },
    {
      "midi": 69,
      "hit": false,
      "t": 37523.588850000124,
      "d": 198.67549999999756,
      "v": 100
    },
    {
      "midi": 43,
      "hit": false,
      "t": 37523.588850000124,
      "d": 198.67549999999756,
      "v": 100
    },
    {
      "midi": 54,
      "hit": false,
      "t": 37523.588850000124,
      "d": 397.3509999999951,
      "v": 80
    },
    {
      "midi": 66,
      "hit": false,
      "t": 37523.588850000124,
      "d": 397.3509999999951,
      "v": 80
    },
    {
      "midi": 59,
      "hit": false,
      "t": 37523.588850000124,
      "d": 397.3509999999951,
      "v": 80
    },
    {
      "midi": 47,
      "hit": false,
      "t": 37523.588850000124,
      "d": 397.3509999999951,
      "v": 80
    },
    {
      "midi": 38,
      "hit": false,
      "t": 37523.588850000124,
      "d": 397.3509999999951,
      "v": 100
    },
    {
      "midi": 62,
      "hit": false,
      "t": 37523.588850000124,
      "d": 397.3509999999951,
      "v": 80
    },
    {
      "midi": 42,
      "hit": false,
      "t": 37722.26435000012,
      "d": 198.67549999999756,
      "v": 100
    },
    {
      "midi": 43,
      "hit": false,
      "t": 37722.26435000012,
      "d": 198.67549999999756,
      "v": 100
    },
    {
      "midi": 74,
      "hit": false,
      "t": 37722.26435000012,
      "d": 198.67549999999756,
      "v": 100
    },
    {
      "midi": 64,
      "hit": false,
      "t": 37722.26435000012,
      "d": 397.3509999999951,
      "v": 100
    },
    {
      "midi": 42,
      "hit": false,
      "t": 37920.93985000012,
      "d": 198.67549999999756,
      "v": 100
    },
    {
      "midi": 55,
      "hit": false,
      "t": 37920.93985000012,
      "d": 198.67549999999756,
      "v": 80
    },
    {
      "midi": 43,
      "hit": false,
      "t": 37920.93985000012,
      "d": 198.67549999999756,
      "v": 100
    },
    {
      "midi": 74,
      "hit": false,
      "t": 37920.93985000012,
      "d": 794.7019999999902,
      "v": 100
    },
    {
      "midi": 42,
      "hit": false,
      "t": 38119.61535000012,
      "d": 198.67549999999756,
      "v": 100
    },
    {
      "midi": 36,
      "hit": false,
      "t": 38119.61535000012,
      "d": 198.67549999999756,
      "v": 100
    },
    {
      "midi": 43,
      "hit": false,
      "t": 38119.61535000012,
      "d": 198.67549999999756,
      "v": 100
    },
    {
      "midi": 66,
      "hit": false,
      "t": 38119.61535000012,
      "d": 397.3509999999951,
      "v": 80
    },
    {
      "midi": 62,
      "hit": false,
      "t": 38119.61535000012,
      "d": 596.0264999999927,
      "v": 80
    },
    {
      "midi": 47,
      "hit": false,
      "t": 38119.61535000012,
      "d": 596.0264999999927,
      "v": 80
    },
    {
      "midi": 54,
      "hit": false,
      "t": 38119.61535000012,
      "d": 596.0264999999927,
      "v": 80
    },
    {
      "midi": 42,
      "hit": false,
      "t": 38318.290850000114,
      "d": 198.67549999999756,
      "v": 100
    },
    {
      "midi": 43,
      "hit": false,
      "t": 38318.290850000114,
      "d": 198.67549999999756,
      "v": 100
    },
    {
      "midi": 38,
      "hit": false,
      "t": 38318.290850000114,
      "d": 397.3509999999951,
      "v": 100
    },
    {
      "midi": 42,
      "hit": false,
      "t": 38516.96635000011,
      "d": 198.67549999999756,
      "v": 100
    },
    {
      "midi": 59,
      "hit": false,
      "t": 38516.96635000011,
      "d": 198.67549999999756,
      "v": 100
    },
    {
      "midi": 43,
      "hit": false,
      "t": 38516.96635000011,
      "d": 198.67549999999756,
      "v": 100
    },
    {
      "midi": 42,
      "hit": false,
      "t": 38715.64185000011,
      "d": 198.67549999999756,
      "v": 100
    },
    {
      "midi": 38,
      "hit": false,
      "t": 38715.64185000011,
      "d": 198.67549999999756,
      "v": 100
    },
    {
      "midi": 55,
      "hit": false,
      "t": 38715.64185000011,
      "d": 198.67549999999756,
      "v": 80
    },
    {
      "midi": 57,
      "hit": false,
      "t": 38715.64185000011,
      "d": 198.67549999999756,
      "v": 100
    },
    {
      "midi": 36,
      "hit": false,
      "t": 38715.64185000011,
      "d": 397.3509999999951,
      "v": 100
    },
    {
      "midi": 73,
      "hit": false,
      "t": 38715.64185000011,
      "d": 1589.4039999999877,
      "v": 100
    },
    {
      "midi": 81,
      "hit": false,
      "t": 38715.64185000011,
      "d": 1589.4039999999877,
      "v": 74
    },
    {
      "midi": 76,
      "hit": false,
      "t": 38715.64185000011,
      "d": 1589.4039999999877,
      "v": 100
    },
    {
      "midi": 78,
      "hit": false,
      "t": 38715.64185000011,
      "d": 1589.4039999999877,
      "v": 74
    },
    {
      "midi": 42,
      "hit": false,
      "t": 38914.31735000011,
      "d": 198.67549999999756,
      "v": 100
    },
    {
      "midi": 55,
      "hit": false,
      "t": 38914.31735000011,
      "d": 198.67549999999756,
      "v": 80
    },
    {
      "midi": 38,
      "hit": false,
      "t": 38914.31735000011,
      "d": 198.67549999999756,
      "v": 100
    },
    {
      "midi": 69,
      "hit": false,
      "t": 38914.31735000011,
      "d": 397.3509999999951,
      "v": 100
    },
    {
      "midi": 42,
      "hit": false,
      "t": 39112.992850000104,
      "d": 198.67549999999756,
      "v": 100
    },
    {
      "midi": 38,
      "hit": false,
      "t": 39112.992850000104,
      "d": 198.67549999999756,
      "v": 100
    },
    {
      "midi": 66,
      "hit": false,
      "t": 39112.992850000104,
      "d": 397.3509999999951,
      "v": 80
    },
    {
      "midi": 61,
      "hit": false,
      "t": 39112.992850000104,
      "d": 397.3509999999951,
      "v": 80
    },
    {
      "midi": 49,
      "hit": false,
      "t": 39112.992850000104,
      "d": 397.3509999999951,
      "v": 80
    },
    {
      "midi": 57,
      "hit": false,
      "t": 39112.992850000104,
      "d": 397.3509999999951,
      "v": 80
    },
    {
      "midi": 52,
      "hit": false,
      "t": 39112.992850000104,
      "d": 397.3509999999951,
      "v": 80
    },
    {
      "midi": 42,
      "hit": false,
      "t": 39311.6683500001,
      "d": 198.67549999999756,
      "v": 100
    },
    {
      "midi": 38,
      "hit": false,
      "t": 39311.6683500001,
      "d": 198.67549999999756,
      "v": 100
    },
    {
      "midi": 62,
      "hit": false,
      "t": 39311.6683500001,
      "d": 397.3509999999951,
      "v": 100
    },
    {
      "midi": 42,
      "hit": false,
      "t": 39510.3438500001,
      "d": 198.67549999999756,
      "v": 100
    },
    {
      "midi": 55,
      "hit": false,
      "t": 39510.3438500001,
      "d": 198.67549999999756,
      "v": 79
    },
    {
      "midi": 38,
      "hit": false,
      "t": 39510.3438500001,
      "d": 198.67549999999756,
      "v": 100
    },
    {
      "midi": 42,
      "hit": false,
      "t": 39709.0193500001,
      "d": 198.67549999999756,
      "v": 100
    },
    {
      "midi": 36,
      "hit": false,
      "t": 39709.0193500001,
      "d": 198.67549999999756,
      "v": 100
    },
    {
      "midi": 38,
      "hit": false,
      "t": 39709.0193500001,
      "d": 198.67549999999756,
      "v": 100
    },
    {
      "midi": 61,
      "hit": false,
      "t": 39709.0193500001,
      "d": 397.3509999999951,
      "v": 79
    },
    {
      "midi": 49,
      "hit": false,
      "t": 39709.0193500001,
      "d": 596.0264999999999,
      "v": 79
    },
    {
      "midi": 66,
      "hit": false,
      "t": 39709.0193500001,
      "d": 596.0264999999999,
      "v": 79
    },
    {
      "midi": 52,
      "hit": false,
      "t": 39709.0193500001,
      "d": 596.0264999999999,
      "v": 79
    },
    {
      "midi": 42,
      "hit": false,
      "t": 39907.694850000094,
      "d": 198.67549999999756,
      "v": 100
    },
    {
      "midi": 37,
      "hit": false,
      "t": 39907.694850000094,
      "d": 198.67549999999756,
      "v": 100
    },
    {
      "midi": 38,
      "hit": false,
      "t": 40106.37035000009,
      "d": 198.67550000000483,
      "v": 100
    },
    {
      "midi": 42,
      "hit": false,
      "t": 40106.37035000009,
      "d": 198.67550000000483,
      "v": 100
    },
    {
      "midi": 57,
      "hit": false,
      "t": 40106.37035000009,
      "d": 198.67550000000483,
      "v": 100
    },
    {
      "midi": 42,
      "hit": false,
      "t": 40305.0458500001,
      "d": 198.67549999999756,
      "v": 100
    },
    {
      "midi": 40,
      "hit": false,
      "t": 40305.0458500001,
      "d": 198.67549999999756,
      "v": 100
    },
    {
      "midi": 62,
      "hit": false,
      "t": 40305.0458500001,
      "d": 198.67549999999756,
      "v": 79
    },
    {
      "midi": 36,
      "hit": false,
      "t": 40305.0458500001,
      "d": 397.3509999999951,
      "v": 100
    },
    {
      "midi": 74,
      "hit": false,
      "t": 40305.0458500001,
      "d": 596.0264999999927,
      "v": 100
    },
    {
      "midi": 67,
      "hit": false,
      "t": 40305.0458500001,
      "d": 596.0264999999927,
      "v": 100
    },
    {
      "midi": 71,
      "hit": false,
      "t": 40305.0458500001,
      "d": 596.0264999999927,
      "v": 100
    },
    {
      "midi": 78,
      "hit": false,
      "t": 40305.0458500001,
      "d": 1589.4039999999804,
      "v": 75
    },
    {
      "midi": 79,
      "hit": false,
      "t": 40305.0458500001,
      "d": 1589.4039999999804,
      "v": 75
    },
    {
      "midi": 42,
      "hit": false,
      "t": 40503.721350000094,
      "d": 198.67549999999756,
      "v": 100
    },
    {
      "midi": 62,
      "hit": false,
      "t": 40503.721350000094,
      "d": 198.67549999999756,
      "v": 79
    },
    {
      "midi": 40,
      "hit": false,
      "t": 40503.721350000094,
      "d": 198.67549999999756,
      "v": 100
    },
    {
      "midi": 42,
      "hit": false,
      "t": 40702.39685000009,
      "d": 198.67549999999756,
      "v": 100
    },
    {
      "midi": 38,
      "hit": false,
      "t": 40702.39685000009,
      "d": 198.67549999999756,
      "v": 100
    },
    {
      "midi": 40,
      "hit": false,
      "t": 40702.39685000009,
      "d": 198.67549999999756,
      "v": 100
    },
    {
      "midi": 66,
      "hit": false,
      "t": 40702.39685000009,
      "d": 198.67549999999756,
      "v": 79
    },
    {
      "midi": 59,
      "hit": false,
      "t": 40702.39685000009,
      "d": 397.3509999999951,
      "v": 79
    },
    {
      "midi": 55,
      "hit": false,
      "t": 40702.39685000009,
      "d": 397.3509999999951,
      "v": 79
    },
    {
      "midi": 62,
      "hit": false,
      "t": 40702.39685000009,
      "d": 397.3509999999951,
      "v": 79
    },
    {
      "midi": 42,
      "hit": false,
      "t": 40901.07235000009,
      "d": 198.67549999999756,
      "v": 100
    },
    {
      "midi": 66,
      "hit": false,
      "t": 40901.07235000009,
      "d": 198.67549999999756,
      "v": 100
    },
    {
      "midi": 40,
      "hit": false,
      "t": 40901.07235000009,
      "d": 198.67549999999756,
      "v": 100
    },
    {
      "midi": 71,
      "hit": false,
      "t": 40901.07235000009,
      "d": 993.3774999999878,
      "v": 100
    },
    {
      "midi": 74,
      "hit": false,
      "t": 40901.07235000009,
      "d": 993.3774999999878,
      "v": 100
    },
    {
      "midi": 42,
      "hit": false,
      "t": 41099.74785000009,
      "d": 198.67549999999756,
      "v": 100
    },
    {
      "midi": 62,
      "hit": false,
      "t": 41099.74785000009,
      "d": 198.67549999999756,
      "v": 79
    },
    {
      "midi": 40,
      "hit": false,
      "t": 41099.74785000009,
      "d": 198.67549999999756,
      "v": 100
    },
    {
      "midi": 36,
      "hit": false,
      "t": 41099.74785000009,
      "d": 397.3509999999951,
      "v": 100
    },
    {
      "midi": 42,
      "hit": false,
      "t": 41298.423350000085,
      "d": 198.67549999999756,
      "v": 100
    },
    {
      "midi": 66,
      "hit": false,
      "t": 41298.423350000085,
      "d": 198.67549999999756,
      "v": 79
    },
    {
      "midi": 40,
      "hit": false,
      "t": 41298.423350000085,
      "d": 198.67549999999756,
      "v": 100
    },
    {
      "midi": 55,
      "hit": false,
      "t": 41298.423350000085,
      "d": 596.0264999999927,
      "v": 79
    },
    {
      "midi": 62,
      "hit": false,
      "t": 41298.423350000085,
      "d": 596.0264999999927,
      "v": 79
    },
    {
      "midi": 59,
      "hit": false,
      "t": 41298.423350000085,
      "d": 596.0264999999927,
      "v": 79
    },
    {
      "midi": 42,
      "hit": false,
      "t": 41497.09885000008,
      "d": 198.67549999999756,
      "v": 100
    },
    {
      "midi": 38,
      "hit": false,
      "t": 41497.09885000008,
      "d": 198.67549999999756,
      "v": 100
    },
    {
      "midi": 67,
      "hit": false,
      "t": 41497.09885000008,
      "d": 198.67549999999756,
      "v": 100
    },
    {
      "midi": 40,
      "hit": false,
      "t": 41497.09885000008,
      "d": 198.67549999999756,
      "v": 100
    },
    {
      "midi": 42,
      "hit": false,
      "t": 41695.77435000008,
      "d": 198.67549999999756,
      "v": 100
    },
    {
      "midi": 40,
      "hit": false,
      "t": 41695.77435000008,
      "d": 198.67549999999756,
      "v": 100
    },
    {
      "midi": 69,
      "hit": false,
      "t": 41695.77435000008,
      "d": 198.67549999999756,
      "v": 100
    },
    {
      "midi": 42,
      "hit": false,
      "t": 41894.44985000008,
      "d": 198.67549999999756,
      "v": 100
    },
    {
      "midi": 62,
      "hit": false,
      "t": 41894.44985000008,
      "d": 198.67549999999756,
      "v": 79
    },
    {
      "midi": 36,
      "hit": false,
      "t": 41894.44985000008,
      "d": 397.3509999999951,
      "v": 100
    },
    {
      "midi": 76,
      "hit": false,
      "t": 41894.44985000008,
      "d": 596.0264999999927,
      "v": 100
    },
    {
      "midi": 81,
      "hit": false,
      "t": 41894.44985000008,
      "d": 596.0264999999927,
      "v": 74
    },
    {
      "midi": 74,
      "hit": false,
      "t": 41894.44985000008,
      "d": 596.0264999999927,
      "v": 100
    },
    {
      "midi": 42,
      "hit": false,
      "t": 42093.125350000075,
      "d": 198.67549999999756,
      "v": 100
    },
    {
      "midi": 62,
      "hit": false,
      "t": 42093.125350000075,
      "d": 198.67549999999756,
      "v": 79
    },
    {
      "midi": 38,
      "hit": false,
      "t": 42291.80085000007,
      "d": 198.67549999999756,
      "v": 100
    },
    {
      "midi": 42,
      "hit": false,
      "t": 42291.80085000007,
      "d": 198.67549999999756,
      "v": 100
    },
    {
      "midi": 62,
      "hit": false,
      "t": 42291.80085000007,
      "d": 198.67549999999756,
      "v": 100
    },
    {
      "midi": 69,
      "hit": false,
      "t": 42291.80085000007,
      "d": 198.67549999999756,
      "v": 79
    },
    {
      "midi": 64,
      "hit": false,
      "t": 42291.80085000007,
      "d": 397.3509999999951,
      "v": 79
    },
    {
      "midi": 57,
      "hit": false,
      "t": 42291.80085000007,
      "d": 397.3509999999951,
      "v": 79
    },
    {
      "midi": 42,
      "hit": false,
      "t": 42490.47635000007,
      "d": 198.67549999999756,
      "v": 100
    },
    {
      "midi": 61,
      "hit": false,
      "t": 42490.47635000007,
      "d": 198.67549999999756,
      "v": 100
    },
    {
      "midi": 36,
      "hit": false,
      "t": 42490.47635000007,
      "d": 198.67549999999756,
      "v": 100
    },
    {
      "midi": 69,
      "hit": false,
      "t": 42490.47635000007,
      "d": 198.67549999999756,
      "v": 100
    },
    {
      "midi": 81,
      "hit": false,
      "t": 42490.47635000007,
      "d": 993.3774999999878,
      "v": 75
    },
    {
      "midi": 76,
      "hit": false,
      "t": 42490.47635000007,
      "d": 993.3774999999878,
      "v": 100
    },
    {
      "midi": 73,
      "hit": false,
      "t": 42490.47635000007,
      "d": 993.3774999999878,
      "v": 100
    },
    {
      "midi": 42,
      "hit": false,
      "t": 42689.15185000007,
      "d": 198.67549999999756,
      "v": 100
    },
    {
      "midi": 62,
      "hit": false,
      "t": 42689.15185000007,
      "d": 198.67549999999756,
      "v": 79
    },
    {
      "midi": 42,
      "hit": false,
      "t": 42887.827350000065,
      "d": 198.67549999999756,
      "v": 100
    },
    {
      "midi": 36,
      "hit": false,
      "t": 42887.827350000065,
      "d": 198.67549999999756,
      "v": 100
    },
    {
      "midi": 57,
      "hit": false,
      "t": 42887.827350000065,
      "d": 397.3509999999951,
      "v": 79
    },
    {
      "midi": 69,
      "hit": false,
      "t": 42887.827350000065,
      "d": 596.0264999999927,
      "v": 79
    },
    {
      "midi": 64,
      "hit": false,
      "t": 42887.827350000065,
      "d": 596.0264999999927,
      "v": 79
    },
    {
      "midi": 61,
      "hit": false,
      "t": 42887.827350000065,
      "d": 596.0264999999927,
      "v": 79
    },
    {
      "midi": 48,
      "hit": false,
      "t": 43086.50285000006,
      "d": 198.67549999999756,
      "v": 100
    },
    {
      "midi": 38,
      "hit": false,
      "t": 43086.50285000006,
      "d": 198.67549999999756,
      "v": 100
    },
    {
      "midi": 42,
      "hit": false,
      "t": 43086.50285000006,
      "d": 198.67549999999756,
      "v": 100
    },
    {
      "midi": 36,
      "hit": false,
      "t": 43285.17835000006,
      "d": 198.67549999999756,
      "v": 100
    },
    {
      "midi": 42,
      "hit": false,
      "t": 43285.17835000006,
      "d": 198.67549999999756,
      "v": 100
    },
    {
      "midi": 58,
      "hit": false,
      "t": 43285.17835000006,
      "d": 198.67549999999756,
      "v": 100
    },
    {
      "midi": 57,
      "hit": false,
      "t": 43483.85385000006,
      "d": 198.67549999999756,
      "v": 100
    },
    {
      "midi": 55,
      "hit": false,
      "t": 43483.85385000006,
      "d": 198.67549999999756,
      "v": 79
    },
    {
      "midi": 43,
      "hit": false,
      "t": 43483.85385000006,
      "d": 198.67549999999756,
      "v": 100
    },
    {
      "midi": 59,
      "hit": false,
      "t": 43483.85385000006,
      "d": 397.3509999999951,
      "v": 100
    },
    {
      "midi": 36,
      "hit": false,
      "t": 43483.85385000006,
      "d": 397.3509999999951,
      "v": 100
    },
    {
      "midi": 78,
      "hit": false,
      "t": 43483.85385000006,
      "d": 1589.4039999999804,
      "v": 100
    },
    {
      "midi": 74,
      "hit": false,
      "t": 43483.85385000006,
      "d": 1589.4039999999804,
      "v": 100
    },
    {
      "midi": 71,
      "hit": false,
      "t": 43483.85385000006,
      "d": 1589.4039999999804,
      "v": 100
    },
    {
      "midi": 42,
      "hit": false,
      "t": 43682.529350000055,
      "d": 198.67549999999756,
      "v": 100
    },
    {
      "midi": 55,
      "hit": false,
      "t": 43682.529350000055,
      "d": 198.67549999999756,
      "v": 79
    },
    {
      "midi": 43,
      "hit": false,
      "t": 43682.529350000055,
      "d": 198.67549999999756,
      "v": 100
    },
    {
      "midi": 42,
      "hit": false,
      "t": 43881.20485000005,
      "d": 198.67549999999756,
      "v": 100
    },
    {
      "midi": 43,
      "hit": false,
      "t": 43881.20485000005,
      "d": 198.67549999999756,
      "v": 100
    },
    {
      "midi": 38,
      "hit": false,
      "t": 43881.20485000005,
      "d": 198.67549999999756,
      "v": 100
    },
    {
      "midi": 69,
      "hit": false,
      "t": 43881.20485000005,
      "d": 198.67549999999756,
      "v": 100
    },
    {
      "midi": 47,
      "hit": false,
      "t": 43881.20485000005,
      "d": 397.3509999999951,
      "v": 79
    },
    {
      "midi": 59,
      "hit": false,
      "t": 43881.20485000005,
      "d": 397.3509999999951,
      "v": 79
    },
    {
      "midi": 54,
      "hit": false,
      "t": 43881.20485000005,
      "d": 397.3509999999951,
      "v": 79
    },
    {
      "midi": 62,
      "hit": false,
      "t": 43881.20485000005,
      "d": 397.3509999999951,
      "v": 79
    },
    {
      "midi": 66,
      "hit": false,
      "t": 43881.20485000005,
      "d": 397.3509999999951,
      "v": 79
    },
    {
      "midi": 42,
      "hit": false,
      "t": 44079.88035000005,
      "d": 198.67549999999756,
      "v": 100
    },
    {
      "midi": 43,
      "hit": false,
      "t": 44079.88035000005,
      "d": 198.67549999999756,
      "v": 100
    },
    {
      "midi": 64,
      "hit": false,
      "t": 44079.88035000005,
      "d": 397.3509999999951,
      "v": 100
    },
    {
      "midi": 42,
      "hit": false,
      "t": 44278.55585000005,
      "d": 198.67549999999756,
      "v": 100
    },
    {
      "midi": 55,
      "hit": false,
      "t": 44278.55585000005,
      "d": 198.67549999999756,
      "v": 79
    },
    {
      "midi": 43,
      "hit": false,
      "t": 44278.55585000005,
      "d": 198.67549999999756,
      "v": 100
    },
    {
      "midi": 36,
      "hit": false,
      "t": 44278.55585000005,
      "d": 397.3509999999951,
      "v": 100
    },
    {
      "midi": 42,
      "hit": false,
      "t": 44477.231350000045,
      "d": 198.67549999999756,
      "v": 100
    },
    {
      "midi": 43,
      "hit": false,
      "t": 44477.231350000045,
      "d": 198.67549999999756,
      "v": 100
    },
    {
      "midi": 66,
      "hit": false,
      "t": 44477.231350000045,
      "d": 397.3509999999951,
      "v": 79
    },
    {
      "midi": 47,
      "hit": false,
      "t": 44477.231350000045,
      "d": 596.0264999999927,
      "v": 79
    },
    {
      "midi": 54,
      "hit": false,
      "t": 44477.231350000045,
      "d": 596.0264999999927,
      "v": 79
    },
    {
      "midi": 62,
      "hit": false,
      "t": 44477.231350000045,
      "d": 596.0264999999927,
      "v": 79
    },
    {
      "midi": 42,
      "hit": false,
      "t": 44675.90685000004,
      "d": 198.67549999999756,
      "v": 100
    },
    {
      "midi": 38,
      "hit": false,
      "t": 44675.90685000004,
      "d": 198.67549999999756,
      "v": 100
    },
    {
      "midi": 43,
      "hit": false,
      "t": 44675.90685000004,
      "d": 198.67549999999756,
      "v": 100
    },
    {
      "midi": 42,
      "hit": false,
      "t": 44874.58235000004,
      "d": 198.67549999999756,
      "v": 100
    },
    {
      "midi": 59,
      "hit": false,
      "t": 44874.58235000004,
      "d": 198.67549999999756,
      "v": 100
    },
    {
      "midi": 43,
      "hit": false,
      "t": 44874.58235000004,
      "d": 198.67549999999756,
      "v": 100
    },
    {
      "midi": 42,
      "hit": false,
      "t": 45073.25785000004,
      "d": 198.67549999999756,
      "v": 100
    },
    {
      "midi": 57,
      "hit": false,
      "t": 45073.25785000004,
      "d": 198.67549999999756,
      "v": 100
    },
    {
      "midi": 38,
      "hit": false,
      "t": 45073.25785000004,
      "d": 198.67549999999756,
      "v": 100
    },
    {
      "midi": 55,
      "hit": false,
      "t": 45073.25785000004,
      "d": 198.67549999999756,
      "v": 79
    },
    {
      "midi": 36,
      "hit": false,
      "t": 45073.25785000004,
      "d": 397.3509999999951,
      "v": 100
    },
    {
      "midi": 81,
      "hit": false,
      "t": 45073.25785000004,
      "d": 1589.4039999999804,
      "v": 82
    },
    {
      "midi": 78,
      "hit": false,
      "t": 45073.25785000004,
      "d": 1589.4039999999804,
      "v": 82
    },
    {
      "midi": 76,
      "hit": false,
      "t": 45073.25785000004,
      "d": 1589.4039999999804,
      "v": 100
    },
    {
      "midi": 73,
      "hit": false,
      "t": 45073.25785000004,
      "d": 1589.4039999999804,
      "v": 100
    },
    {
      "midi": 42,
      "hit": false,
      "t": 45271.933350000036,
      "d": 198.67549999999756,
      "v": 100
    },
    {
      "midi": 55,
      "hit": false,
      "t": 45271.933350000036,
      "d": 198.67549999999756,
      "v": 79
    },
    {
      "midi": 38,
      "hit": false,
      "t": 45271.933350000036,
      "d": 198.67549999999756,
      "v": 100
    },
    {
      "midi": 69,
      "hit": false,
      "t": 45271.933350000036,
      "d": 397.3509999999951,
      "v": 100
    },
    {
      "midi": 42,
      "hit": false,
      "t": 45470.60885000003,
      "d": 198.67549999999756,
      "v": 100
    },
    {
      "midi": 38,
      "hit": false,
      "t": 45470.60885000003,
      "d": 198.67549999999756,
      "v": 100
    },
    {
      "midi": 66,
      "hit": false,
      "t": 45470.60885000003,
      "d": 397.3509999999951,
      "v": 79
    },
    {
      "midi": 57,
      "hit": false,
      "t": 45470.60885000003,
      "d": 397.3509999999951,
      "v": 79
    },
    {
      "midi": 52,
      "hit": false,
      "t": 45470.60885000003,
      "d": 397.3509999999951,
      "v": 79
    },
    {
      "midi": 49,
      "hit": false,
      "t": 45470.60885000003,
      "d": 397.3509999999951,
      "v": 79
    },
    {
      "midi": 61,
      "hit": false,
      "t": 45470.60885000003,
      "d": 397.3509999999951,
      "v": 79
    },
    {
      "midi": 42,
      "hit": false,
      "t": 45669.28435000003,
      "d": 198.67549999999756,
      "v": 100
    },
    {
      "midi": 38,
      "hit": false,
      "t": 45669.28435000003,
      "d": 198.67549999999756,
      "v": 100
    },
    {
      "midi": 62,
      "hit": false,
      "t": 45669.28435000003,
      "d": 397.3509999999951,
      "v": 100
    },
    {
      "midi": 42,
      "hit": false,
      "t": 45867.95985000003,
      "d": 198.67549999999756,
      "v": 100
    },
    {
      "midi": 38,
      "hit": false,
      "t": 45867.95985000003,
      "d": 198.67549999999756,
      "v": 100
    },
    {
      "midi": 55,
      "hit": false,
      "t": 45867.95985000003,
      "d": 198.67549999999756,
      "v": 79
    },
    {
      "midi": 36,
      "hit": false,
      "t": 45867.95985000003,
      "d": 397.3509999999951,
      "v": 100
    },
    {
      "midi": 42,
      "hit": false,
      "t": 46066.635350000026,
      "d": 198.67549999999756,
      "v": 100
    },
    {
      "midi": 38,
      "hit": false,
      "t": 46066.635350000026,
      "d": 198.67549999999756,
      "v": 100
    },
    {
      "midi": 61,
      "hit": false,
      "t": 46066.635350000026,
      "d": 397.3509999999951,
      "v": 79
    },
    {
      "midi": 66,
      "hit": false,
      "t": 46066.635350000026,
      "d": 596.0264999999927,
      "v": 79
    },
    {
      "midi": 52,
      "hit": false,
      "t": 46066.635350000026,
      "d": 596.0264999999927,
      "v": 79
    },
    {
      "midi": 49,
      "hit": false,
      "t": 46066.635350000026,
      "d": 596.0264999999927,
      "v": 79
    },
    {
      "midi": 42,
      "hit": false,
      "t": 46265.31085000002,
      "d": 198.67549999999756,
      "v": 100
    },
    {
      "midi": 38,
      "hit": false,
      "t": 46265.31085000002,
      "d": 198.67549999999756,
      "v": 100
    },
    {
      "midi": 37,
      "hit": false,
      "t": 46265.31085000002,
      "d": 198.67549999999756,
      "v": 100
    },
    {
      "midi": 42,
      "hit": false,
      "t": 46463.98635000002,
      "d": 198.67549999999756,
      "v": 100
    },
    {
      "midi": 38,
      "hit": false,
      "t": 46463.98635000002,
      "d": 198.67549999999756,
      "v": 100
    },
    {
      "midi": 57,
      "hit": false,
      "t": 46463.98635000002,
      "d": 198.67549999999756,
      "v": 100
    },
    {
      "midi": 36,
      "hit": false,
      "t": 46463.98635000002,
      "d": 198.67549999999756,
      "v": 100
    },
    {
      "midi": 42,
      "hit": false,
      "t": 46662.66185000002,
      "d": 198.67549999999756,
      "v": 100
    },
    {
      "midi": 40,
      "hit": false,
      "t": 46662.66185000002,
      "d": 198.67549999999756,
      "v": 100
    },
    {
      "midi": 62,
      "hit": false,
      "t": 46662.66185000002,
      "d": 198.67549999999756,
      "v": 79
    },
    {
      "midi": 36,
      "hit": false,
      "t": 46662.66185000002,
      "d": 397.3509999999951,
      "v": 100
    },
    {
      "midi": 74,
      "hit": false,
      "t": 46662.66185000002,
      "d": 596.0264999999927,
      "v": 100
    },
    {
      "midi": 67,
      "hit": false,
      "t": 46662.66185000002,
      "d": 596.0264999999927,
      "v": 100
    },
    {
      "midi": 71,
      "hit": false,
      "t": 46662.66185000002,
      "d": 596.0264999999927,
      "v": 100
    },
    {
      "midi": 78,
      "hit": false,
      "t": 46662.66185000002,
      "d": 1589.4039999999804,
      "v": 81
    },
    {
      "midi": 79,
      "hit": false,
      "t": 46662.66185000002,
      "d": 1589.4039999999804,
      "v": 81
    },
    {
      "midi": 42,
      "hit": false,
      "t": 46861.337350000016,
      "d": 198.67549999999756,
      "v": 100
    },
    {
      "midi": 62,
      "hit": false,
      "t": 46861.337350000016,
      "d": 198.67549999999756,
      "v": 79
    },
    {
      "midi": 40,
      "hit": false,
      "t": 46861.337350000016,
      "d": 198.67549999999756,
      "v": 100
    },
    {
      "midi": 38,
      "hit": false,
      "t": 47060.012850000014,
      "d": 198.67549999999756,
      "v": 100
    },
    {
      "midi": 40,
      "hit": false,
      "t": 47060.012850000014,
      "d": 198.67549999999756,
      "v": 100
    },
    {
      "midi": 66,
      "hit": false,
      "t": 47060.012850000014,
      "d": 198.67549999999756,
      "v": 79
    },
    {
      "midi": 59,
      "hit": false,
      "t": 47060.012850000014,
      "d": 397.3509999999951,
      "v": 79
    },
    {
      "midi": 55,
      "hit": false,
      "t": 47060.012850000014,
      "d": 397.3509999999951,
      "v": 79
    },
    {
      "midi": 62,
      "hit": false,
      "t": 47060.012850000014,
      "d": 397.3509999999951,
      "v": 79
    },
    {
      "midi": 57,
      "hit": false,
      "t": 47258.68835000001,
      "d": 198.67549999999756,
      "v": 100
    },
    {
      "midi": 36,
      "hit": false,
      "t": 47258.68835000001,
      "d": 198.67549999999756,
      "v": 100
    },
    {
      "midi": 66,
      "hit": false,
      "t": 47258.68835000001,
      "d": 198.67549999999756,
      "v": 100
    },
    {
      "midi": 40,
      "hit": false,
      "t": 47258.68835000001,
      "d": 198.67549999999756,
      "v": 100
    },
    {
      "midi": 74,
      "hit": false,
      "t": 47258.68835000001,
      "d": 993.3774999999878,
      "v": 100
    },
    {
      "midi": 42,
      "hit": false,
      "t": 47457.36385000001,
      "d": 198.67549999999756,
      "v": 100
    },
    {
      "midi": 40,
      "hit": false,
      "t": 47457.36385000001,
      "d": 198.67549999999756,
      "v": 100
    },
    {
      "midi": 62,
      "hit": false,
      "t": 47457.36385000001,
      "d": 198.67549999999756,
      "v": 79
    },
    {
      "midi": 67,
      "hit": false,
      "t": 47457.36385000001,
      "d": 264.900666666661,
      "v": 100
    },
    {
      "midi": 42,
      "hit": false,
      "t": 47656.03935000001,
      "d": 198.67549999999756,
      "v": 100
    },
    {
      "midi": 40,
      "hit": false,
      "t": 47656.03935000001,
      "d": 198.67549999999756,
      "v": 100
    },
    {
      "midi": 36,
      "hit": false,
      "t": 47656.03935000001,
      "d": 198.67549999999756,
      "v": 100
    },
    {
      "midi": 62,
      "hit": false,
      "t": 47656.03935000001,
      "d": 596.0264999999927,
      "v": 79
    },
    {
      "midi": 66,
      "hit": false,
      "t": 47656.03935000001,
      "d": 596.0264999999927,
      "v": 79
    },
    {
      "midi": 59,
      "hit": false,
      "t": 47656.03935000001,
      "d": 596.0264999999927,
      "v": 79
    },
    {
      "midi": 55,
      "hit": false,
      "t": 47656.03935000001,
      "d": 596.0264999999927,
      "v": 79
    },
    {
      "midi": 69,
      "hit": false,
      "t": 47722.26451666667,
      "d": 264.90066666666826,
      "v": 100
    },
    {
      "midi": 42,
      "hit": false,
      "t": 47854.714850000004,
      "d": 198.67549999999756,
      "v": 100
    },
    {
      "midi": 38,
      "hit": false,
      "t": 47854.714850000004,
      "d": 198.67549999999756,
      "v": 100
    },
    {
      "midi": 40,
      "hit": false,
      "t": 47854.714850000004,
      "d": 198.67549999999756,
      "v": 100
    },
    {
      "midi": 71,
      "hit": false,
      "t": 47987.16518333334,
      "d": 264.900666666661,
      "v": 100
    },
    {
      "midi": 42,
      "hit": false,
      "t": 48053.39035,
      "d": 198.67549999999756,
      "v": 100
    },
    {
      "midi": 40,
      "hit": false,
      "t": 48053.39035,
      "d": 198.67549999999756,
      "v": 100
    },
    {
      "midi": 62,
      "hit": false,
      "t": 48252.06585,
      "d": 198.67549999999756,
      "v": 79
    },
    {
      "midi": 42,
      "hit": false,
      "t": 48252.06585,
      "d": 198.67549999999756,
      "v": 100
    },
    {
      "midi": 38,
      "hit": false,
      "t": 48252.06585,
      "d": 298.01324999999633,
      "v": 100
    },
    {
      "midi": 74,
      "hit": false,
      "t": 48252.06585,
      "d": 397.3509999999951,
      "v": 100
    },
    {
      "midi": 76,
      "hit": false,
      "t": 48252.06585,
      "d": 596.0264999999927,
      "v": 100
    },
    {
      "midi": 81,
      "hit": false,
      "t": 48252.06585,
      "d": 596.0264999999927,
      "v": 79
    },
    {
      "midi": 62,
      "hit": false,
      "t": 48450.74135,
      "d": 198.67549999999756,
      "v": 79
    },
    {
      "midi": 49,
      "hit": false,
      "t": 48450.74135,
      "d": 397.3509999999951,
      "v": 100
    },
    {
      "midi": 38,
      "hit": false,
      "t": 48550.079099999995,
      "d": 99.33774999999878,
      "v": 100
    },
    {
      "midi": 38,
      "hit": false,
      "t": 48649.416849999994,
      "d": 198.67549999999756,
      "v": 100
    },
    {
      "midi": 74,
      "hit": false,
      "t": 48649.416849999994,
      "d": 198.67549999999756,
      "v": 100
    },
    {
      "midi": 69,
      "hit": false,
      "t": 48649.416849999994,
      "d": 198.67549999999756,
      "v": 79
    },
    {
      "midi": 64,
      "hit": false,
      "t": 48649.416849999994,
      "d": 397.3509999999951,
      "v": 79
    },
    {
      "midi": 61,
      "hit": false,
      "t": 48649.416849999994,
      "d": 397.3509999999951,
      "v": 79
    },
    {
      "midi": 57,
      "hit": false,
      "t": 48848.09234999999,
      "d": 198.67549999999756,
      "v": 100
    },
    {
      "midi": 36,
      "hit": false,
      "t": 48848.09234999999,
      "d": 198.67549999999756,
      "v": 100
    },
    {
      "midi": 69,
      "hit": false,
      "t": 48848.09234999999,
      "d": 198.67549999999756,
      "v": 100
    },
    {
      "midi": 47,
      "hit": false,
      "t": 48848.09234999999,
      "d": 397.3509999999951,
      "v": 100
    },
    {
      "midi": 73,
      "hit": false,
      "t": 48848.09234999999,
      "d": 397.3509999999951,
      "v": 100
    },
    {
      "midi": 81,
      "hit": false,
      "t": 48848.09234999999,
      "d": 993.3774999999878,
      "v": 85
    },
    {
      "midi": 42,
      "hit": false,
      "t": 49046.76784999999,
      "d": 198.67549999999756,
      "v": 100
    },
    {
      "midi": 62,
      "hit": false,
      "t": 49046.76784999999,
      "d": 198.67549999999756,
      "v": 79
    },
    {
      "midi": 42,
      "hit": false,
      "t": 49245.44334999999,
      "d": 198.67549999999756,
      "v": 100
    },
    {
      "midi": 36,
      "hit": false,
      "t": 49245.44334999999,
      "d": 198.67549999999756,
      "v": 100
    },
    {
      "midi": 45,
      "hit": false,
      "t": 49245.44334999999,
      "d": 198.67549999999756,
      "v": 100
    },
    {
      "midi": 76,
      "hit": false,
      "t": 49245.44334999999,
      "d": 397.3509999999951,
      "v": 100
    },
    {
      "midi": 61,
      "hit": false,
      "t": 49245.44334999999,
      "d": 596.0264999999927,
      "v": 79
    },
    {
      "midi": 64,
      "hit": false,
      "t": 49245.44334999999,
      "d": 596.0264999999927,
      "v": 79
    },
    {
      "midi": 42,
      "hit": false,
      "t": 49444.118849999984,
      "d": 198.67549999999756,
      "v": 100
    },
    {
      "midi": 38,
      "hit": false,
      "t": 49444.118849999984,
      "d": 198.67549999999756,
      "v": 100
    },
    {
      "midi": 47,
      "hit": false,
      "t": 49444.118849999984,
      "d": 198.67549999999756,
      "v": 100
    },
    {
      "midi": 69,
      "hit": false,
      "t": 49642.79434999998,
      "d": 99.33774999999878,
      "v": 89
    },
    {
      "midi": 62,
      "hit": false,
      "t": 49642.79434999998,
      "d": 99.33774999999878,
      "v": 89
    },
    {
      "midi": 57,
      "hit": false,
      "t": 49642.79434999998,
      "d": 99.33774999999878,
      "v": 89
    },
    {
      "midi": 54,
      "hit": false,
      "t": 49642.79434999998,
      "d": 99.33774999999878,
      "v": 89
    },
    {
      "midi": 47,
      "hit": false,
      "t": 49642.79434999998,
      "d": 99.33774999999878,
      "v": 89
    },
    {
      "midi": 42,
      "hit": false,
      "t": 49642.79434999998,
      "d": 198.67549999999756,
      "v": 100
    },
    {
      "midi": 69,
      "hit": false,
      "t": 49742.13209999998,
      "d": 99.33774999999878,
      "v": 83
    },
    {
      "midi": 57,
      "hit": false,
      "t": 49742.13209999998,
      "d": 99.33774999999878,
      "v": 83
    },
    {
      "midi": 47,
      "hit": false,
      "t": 49742.13209999998,
      "d": 99.33774999999878,
      "v": 83
    },
    {
      "midi": 54,
      "hit": false,
      "t": 49742.13209999998,
      "d": 99.33774999999878,
      "v": 83
    },
    {
      "midi": 62,
      "hit": false,
      "t": 49742.13209999998,
      "d": 99.33774999999878,
      "v": 83
    },
    {
      "midi": 57,
      "hit": false,
      "t": 49841.46984999998,
      "d": 198.67549999999756,
      "v": 100
    },
    {
      "midi": 62,
      "hit": false,
      "t": 49841.46984999998,
      "d": 198.67549999999756,
      "v": 79
    },
    {
      "midi": 36,
      "hit": false,
      "t": 49841.46984999998,
      "d": 397.3509999999951,
      "v": 100
    },
    {
      "midi": 43,
      "hit": false,
      "t": 49841.46984999998,
      "d": 397.3509999999951,
      "v": 100
    },
    {
      "midi": 69,
      "hit": false,
      "t": 49841.46984999998,
      "d": 1589.4039999999804,
      "v": 78
    },
    {
      "midi": 47,
      "hit": false,
      "t": 49841.46984999998,
      "d": 1589.4039999999804,
      "v": 78
    },
    {
      "midi": 54,
      "hit": false,
      "t": 49841.46984999998,
      "d": 1589.4039999999804,
      "v": 78
    },
    {
      "midi": 59,
      "hit": false,
      "t": 49841.46984999998,
      "d": 1589.4039999999804,
      "v": 100
    },
    {
      "midi": 42,
      "hit": false,
      "t": 50040.14534999998,
      "d": 198.67549999999756,
      "v": 100
    },
    {
      "midi": 62,
      "hit": false,
      "t": 50040.14534999998,
      "d": 198.67549999999756,
      "v": 91
    },
    {
      "midi": 42,
      "hit": false,
      "t": 50238.820849999975,
      "d": 198.67549999999756,
      "v": 100
    },
    {
      "midi": 38,
      "hit": false,
      "t": 50238.820849999975,
      "d": 198.67549999999756,
      "v": 100
    },
    {
      "midi": 43,
      "hit": false,
      "t": 50238.820849999975,
      "d": 198.67549999999756,
      "v": 100
    },
    {
      "midi": 66,
      "hit": false,
      "t": 50238.820849999975,
      "d": 397.3509999999951,
      "v": 91
    },
    {
      "midi": 57,
      "hit": false,
      "t": 50238.820849999975,
      "d": 397.3509999999951,
      "v": 91
    },
    {
      "midi": 62,
      "hit": false,
      "t": 50238.820849999975,
      "d": 397.3509999999951,
      "v": 91
    },
    {
      "midi": 42,
      "hit": false,
      "t": 50437.49634999997,
      "d": 198.67549999999756,
      "v": 100
    },
    {
      "midi": 38,
      "hit": false,
      "t": 50437.49634999997,
      "d": 397.3509999999951,
      "v": 100
    },
    {
      "midi": 42,
      "hit": false,
      "t": 50636.17184999997,
      "d": 198.67549999999756,
      "v": 100
    },
    {
      "midi": 62,
      "hit": false,
      "t": 50636.17184999997,
      "d": 198.67549999999756,
      "v": 91
    },
    {
      "midi": 36,
      "hit": false,
      "t": 50636.17184999997,
      "d": 397.3509999999951,
      "v": 100
    },
    {
      "midi": 42,
      "hit": false,
      "t": 50834.84734999997,
      "d": 198.67549999999756,
      "v": 100
    },
    {
      "midi": 38,
      "hit": false,
      "t": 50834.84734999997,
      "d": 198.67549999999756,
      "v": 100
    },
    {
      "midi": 66,
      "hit": false,
      "t": 50834.84734999997,
      "d": 198.67549999999756,
      "v": 91
    },
    {
      "midi": 57,
      "hit": false,
      "t": 50834.84734999997,
      "d": 596.0264999999927,
      "v": 91
    },
    {
      "midi": 62,
      "hit": false,
      "t": 50834.84734999997,
      "d": 596.0264999999927,
      "v": 91
    },
    {
      "midi": 42,
      "hit": false,
      "t": 51033.522849999965,
      "d": 198.67549999999756,
      "v": 100
    },
    {
      "midi": 38,
      "hit": false,
      "t": 51033.522849999965,
      "d": 198.67549999999756,
      "v": 100
    },
    {
      "midi": 43,
      "hit": false,
      "t": 51033.522849999965,
      "d": 198.67549999999756,
      "v": 100
    },
    {
      "midi": 71,
      "hit": false,
      "t": 51033.522849999965,
      "d": 198.67549999999756,
      "v": 100
    },
    {
      "midi": 42,
      "hit": false,
      "t": 51232.19834999996,
      "d": 198.67549999999756,
      "v": 100
    },
    {
      "midi": 73,
      "hit": false,
      "t": 51232.19834999996,
      "d": 198.67549999999756,
      "v": 100
    },
    {
      "midi": 38,
      "hit": false,
      "t": 51232.19834999996,
      "d": 198.67549999999756,
      "v": 100
    },
    {
      "midi": 42,
      "hit": false,
      "t": 51430.87384999996,
      "d": 198.67549999999756,
      "v": 100
    },
    {
      "midi": 62,
      "hit": false,
      "t": 51430.87384999996,
      "d": 198.67549999999756,
      "v": 91
    },
    {
      "midi": 74,
      "hit": false,
      "t": 51430.87384999996,
      "d": 198.67549999999756,
      "v": 100
    },
    {
      "midi": 36,
      "hit": false,
      "t": 51430.87384999996,
      "d": 397.3509999999951,
      "v": 100
    },
    {
      "midi": 42,
      "hit": false,
      "t": 51629.54934999996,
      "d": 198.67549999999756,
      "v": 100
    },
    {
      "midi": 62,
      "hit": false,
      "t": 51629.54934999996,
      "d": 198.67549999999756,
      "v": 91
    },
    {
      "midi": 74,
      "hit": false,
      "t": 51629.54934999996,
      "d": 397.3509999999951,
      "v": 100
    },
    {
      "midi": 38,
      "hit": false,
      "t": 51828.224849999955,
      "d": 198.67549999999756,
      "v": 100
    },
    {
      "midi": 42,
      "hit": false,
      "t": 51828.224849999955,
      "d": 198.67549999999756,
      "v": 100
    },
    {
      "midi": 61,
      "hit": false,
      "t": 51828.224849999955,
      "d": 397.3509999999951,
      "v": 91
    },
    {
      "midi": 66,
      "hit": false,
      "t": 51828.224849999955,
      "d": 397.3509999999951,
      "v": 91
    },
    {
      "midi": 57,
      "hit": false,
      "t": 51828.224849999955,
      "d": 397.3509999999951,
      "v": 91
    },
    {
      "midi": 42,
      "hit": false,
      "t": 52026.90034999995,
      "d": 198.67549999999756,
      "v": 100
    },
    {
      "midi": 38,
      "hit": false,
      "t": 52026.90034999995,
      "d": 397.3509999999951,
      "v": 100
    },
    {
      "midi": 73,
      "hit": false,
      "t": 52026.90034999995,
      "d": 397.3509999999951,
      "v": 100
    },
    {
      "midi": 42,
      "hit": false,
      "t": 52225.57584999995,
      "d": 198.67549999999756,
      "v": 100
    },
    {
      "midi": 62,
      "hit": false,
      "t": 52225.57584999995,
      "d": 198.67549999999756,
      "v": 91
    },
    {
      "midi": 36,
      "hit": false,
      "t": 52225.57584999995,
      "d": 397.3509999999951,
      "v": 100
    },
    {
      "midi": 42,
      "hit": false,
      "t": 52424.25134999995,
      "d": 198.67549999999756,
      "v": 100
    },
    {
      "midi": 38,
      "hit": false,
      "t": 52424.25134999995,
      "d": 198.67549999999756,
      "v": 100
    },
    {
      "midi": 69,
      "hit": false,
      "t": 52424.25134999995,
      "d": 397.3509999999951,
      "v": 100
    },
    {
      "midi": 66,
      "hit": false,
      "t": 52424.25134999995,
      "d": 596.0264999999927,
      "v": 91
    },
    {
      "midi": 57,
      "hit": false,
      "t": 52424.25134999995,
      "d": 596.0264999999927,
      "v": 91
    },
    {
      "midi": 61,
      "hit": false,
      "t": 52424.25134999995,
      "d": 596.0264999999927,
      "v": 91
    },
    {
      "midi": 38,
      "hit": false,
      "t": 52622.926849999945,
      "d": 198.67549999999756,
      "v": 100
    },
    {
      "midi": 42,
      "hit": false,
      "t": 52622.926849999945,
      "d": 198.67549999999756,
      "v": 100
    },
    {
      "midi": 37,
      "hit": false,
      "t": 52622.926849999945,
      "d": 198.67549999999756,
      "v": 100
    },
    {
      "midi": 36,
      "hit": false,
      "t": 52821.60234999994,
      "d": 198.67549999999756,
      "v": 100
    },
    {
      "midi": 64,
      "hit": false,
      "t": 52821.60234999994,
      "d": 198.67549999999756,
      "v": 100
    },
    {
      "midi": 38,
      "hit": false,
      "t": 52821.60234999994,
      "d": 198.67549999999756,
      "v": 100
    },
    {
      "midi": 42,
      "hit": false,
      "t": 52821.60234999994,
      "d": 198.67549999999756,
      "v": 100
    },
    {
      "midi": 42,
      "hit": false,
      "t": 53020.27784999994,
      "d": 198.67549999999756,
      "v": 100
    },
    {
      "midi": 62,
      "hit": false,
      "t": 53020.27784999994,
      "d": 198.67549999999756,
      "v": 92
    },
    {
      "midi": 36,
      "hit": false,
      "t": 53020.27784999994,
      "d": 397.3509999999951,
      "v": 100
    },
    {
      "midi": 69,
      "hit": false,
      "t": 53020.27784999994,
      "d": 596.0264999999927,
      "v": 100
    },
    {
      "midi": 40,
      "hit": false,
      "t": 53020.27784999994,
      "d": 596.0264999999927,
      "v": 100
    },
    {
      "midi": 42,
      "hit": false,
      "t": 53218.95334999994,
      "d": 198.67549999999756,
      "v": 100
    },
    {
      "midi": 62,
      "hit": false,
      "t": 53218.95334999994,
      "d": 198.67549999999756,
      "v": 92
    },
    {
      "midi": 38,
      "hit": false,
      "t": 53417.628849999935,
      "d": 198.67549999999756,
      "v": 100
    },
    {
      "midi": 59,
      "hit": false,
      "t": 53417.628849999935,
      "d": 198.67549999999756,
      "v": 92
    },
    {
      "midi": 42,
      "hit": false,
      "t": 53417.628849999935,
      "d": 198.67549999999756,
      "v": 100
    },
    {
      "midi": 62,
      "hit": false,
      "t": 53417.628849999935,
      "d": 198.67549999999756,
      "v": 92
    },
    {
      "midi": 66,
      "hit": false,
      "t": 53417.628849999935,
      "d": 397.3509999999951,
      "v": 92
    },
    {
      "midi": 42,
      "hit": false,
      "t": 53616.30434999993,
      "d": 198.67549999999756,
      "v": 100
    },
    {
      "midi": 38,
      "hit": false,
      "t": 53616.30434999993,
      "d": 198.67549999999756,
      "v": 100
    },
    {
      "midi": 59,
      "hit": false,
      "t": 53616.30434999993,
      "d": 198.67549999999756,
      "v": 100
    },
    {
      "midi": 62,
      "hit": false,
      "t": 53616.30434999993,
      "d": 198.67549999999756,
      "v": 100
    },
    {
      "midi": 71,
      "hit": false,
      "t": 53616.30434999993,
      "d": 596.0264999999927,
      "v": 100
    },
    {
      "midi": 69,
      "hit": false,
      "t": 53616.30434999993,
      "d": 993.3774999999878,
      "v": 100
    },
    {
      "midi": 42,
      "hit": false,
      "t": 53814.97984999993,
      "d": 198.67549999999756,
      "v": 100
    },
    {
      "midi": 62,
      "hit": false,
      "t": 53814.97984999993,
      "d": 198.67549999999756,
      "v": 92
    },
    {
      "midi": 40,
      "hit": false,
      "t": 53814.97984999993,
      "d": 198.67549999999756,
      "v": 100
    },
    {
      "midi": 36,
      "hit": false,
      "t": 53814.97984999993,
      "d": 397.3509999999951,
      "v": 100
    },
    {
      "midi": 42,
      "hit": false,
      "t": 54013.65534999993,
      "d": 198.67549999999756,
      "v": 100
    },
    {
      "midi": 59,
      "hit": false,
      "t": 54013.65534999993,
      "d": 596.0264999999927,
      "v": 92
    },
    {
      "midi": 66,
      "hit": false,
      "t": 54013.65534999993,
      "d": 596.0264999999927,
      "v": 92
    },
    {
      "midi": 38,
      "hit": false,
      "t": 54212.330849999926,
      "d": 198.67549999999756,
      "v": 100
    },
    {
      "midi": 42,
      "hit": false,
      "t": 54212.330849999926,
      "d": 198.67549999999756,
      "v": 100
    },
    {
      "midi": 43,
      "hit": false,
      "t": 54212.330849999926,
      "d": 198.67549999999756,
      "v": 100
    },
    {
      "midi": 62,
      "hit": false,
      "t": 54212.330849999926,
      "d": 397.3509999999951,
      "v": 100
    },
    {
      "midi": 42,
      "hit": false,
      "t": 54411.00634999992,
      "d": 198.67549999999756,
      "v": 100
    },
    {
      "midi": 45,
      "hit": false,
      "t": 54411.00634999992,
      "d": 198.67549999999756,
      "v": 100
    },
    {
      "midi": 42,
      "hit": false,
      "t": 54609.68184999992,
      "d": 198.67549999999756,
      "v": 100
    },
    {
      "midi": 62,
      "hit": false,
      "t": 54609.68184999992,
      "d": 198.67549999999756,
      "v": 92
    },
    {
      "midi": 47,
      "hit": false,
      "t": 54609.68184999992,
      "d": 397.3509999999951,
      "v": 100
    },
    {
      "midi": 36,
      "hit": false,
      "t": 54609.68184999992,
      "d": 397.3509999999951,
      "v": 100
    },
    {
      "midi": 79,
      "hit": false,
      "t": 54609.68184999992,
      "d": 397.3509999999951,
      "v": 100
    },
    {
      "midi": 71,
      "hit": false,
      "t": 54609.68184999992,
      "d": 397.3509999999951,
      "v": 100
    },
    {
      "midi": 42,
      "hit": false,
      "t": 54808.35734999992,
      "d": 198.67549999999756,
      "v": 100
    },
    {
      "midi": 62,
      "hit": false,
      "t": 54808.35734999992,
      "d": 198.67549999999756,
      "v": 92
    },
    {
      "midi": 42,
      "hit": false,
      "t": 55007.032849999916,
      "d": 198.67549999999756,
      "v": 100
    },
    {
      "midi": 71,
      "hit": false,
      "t": 55007.032849999916,
      "d": 198.67549999999756,
      "v": 100
    },
    {
      "midi": 79,
      "hit": false,
      "t": 55007.032849999916,
      "d": 198.67549999999756,
      "v": 100
    },
    {
      "midi": 45,
      "hit": false,
      "t": 55007.032849999916,
      "d": 198.67549999999756,
      "v": 100
    },
    {
      "midi": 66,
      "hit": false,
      "t": 55007.032849999916,
      "d": 397.3509999999951,
      "v": 92
    },
    {
      "midi": 62,
      "hit": false,
      "t": 55007.032849999916,
      "d": 397.3509999999951,
      "v": 92
    },
    {
      "midi": 59,
      "hit": false,
      "t": 55007.032849999916,
      "d": 397.3509999999951,
      "v": 92
    },
    {
      "midi": 42,
      "hit": false,
      "t": 55205.70834999991,
      "d": 198.67549999999756,
      "v": 100
    },
    {
      "midi": 36,
      "hit": false,
      "t": 55205.70834999991,
      "d": 198.67549999999756,
      "v": 100
    },
    {
      "midi": 69,
      "hit": false,
      "t": 55205.70834999991,
      "d": 397.3509999999951,
      "v": 100
    },
    {
      "midi": 78,
      "hit": false,
      "t": 55205.70834999991,
      "d": 397.3509999999951,
      "v": 100
    },
    {
      "midi": 47,
      "hit": false,
      "t": 55205.70834999991,
      "d": 397.3509999999951,
      "v": 100
    },
    {
      "midi": 42,
      "hit": false,
      "t": 55404.38384999991,
      "d": 198.67549999999756,
      "v": 100
    },
    {
      "midi": 62,
      "hit": false,
      "t": 55404.38384999991,
      "d": 198.67549999999756,
      "v": 92
    },
    {
      "midi": 42,
      "hit": false,
      "t": 55603.05934999991,
      "d": 198.67549999999756,
      "v": 100
    },
    {
      "midi": 36,
      "hit": false,
      "t": 55603.05934999991,
      "d": 198.67549999999756,
      "v": 100
    },
    {
      "midi": 45,
      "hit": false,
      "t": 55603.05934999991,
      "d": 198.67549999999756,
      "v": 100
    },
    {
      "midi": 66,
      "hit": false,
      "t": 55603.05934999991,
      "d": 596.0264999999927,
      "v": 92
    },
    {
      "midi": 74,
      "hit": false,
      "t": 55603.05934999991,
      "d": 596.0264999999927,
      "v": 100
    },
    {
      "midi": 59,
      "hit": false,
      "t": 55603.05934999991,
      "d": 596.0264999999927,
      "v": 92
    },
    {
      "midi": 42,
      "hit": false,
      "t": 55801.734849999906,
      "d": 198.67549999999756,
      "v": 100
    },
    {
      "midi": 42,
      "hit": false,
      "t": 56000.410349999904,
      "d": 198.67549999999756,
      "v": 100
    },
    {
      "midi": 62,
      "hit": false,
      "t": 56000.410349999904,
      "d": 198.67549999999756,
      "v": 100
    },
    {
      "midi": 38,
      "hit": false,
      "t": 56000.410349999904,
      "d": 198.67549999999756,
      "v": 100
    },
    {
      "midi": 42,
      "hit": false,
      "t": 56199.0858499999,
      "d": 198.67549999999756,
      "v": 100
    },
    {
      "midi": 62,
      "hit": false,
      "t": 56199.0858499999,
      "d": 198.67549999999756,
      "v": 92
    },
    {
      "midi": 36,
      "hit": false,
      "t": 56199.0858499999,
      "d": 397.3509999999951,
      "v": 100
    },
    {
      "midi": 69,
      "hit": false,
      "t": 56199.0858499999,
      "d": 397.3509999999951,
      "v": 100
    },
    {
      "midi": 40,
      "hit": false,
      "t": 56199.0858499999,
      "d": 397.3509999999951,
      "v": 100
    },
    {
      "midi": 67,
      "hit": false,
      "t": 56199.0858499999,
      "d": 1589.4039999999804,
      "v": 100
    },
    {
      "midi": 42,
      "hit": false,
      "t": 56397.7613499999,
      "d": 198.67549999999756,
      "v": 100
    },
    {
      "midi": 62,
      "hit": false,
      "t": 56397.7613499999,
      "d": 198.67549999999756,
      "v": 92
    },
    {
      "midi": 42,
      "hit": false,
      "t": 56596.4368499999,
      "d": 198.67549999999756,
      "v": 100
    },
    {
      "midi": 38,
      "hit": false,
      "t": 56596.4368499999,
      "d": 198.67549999999756,
      "v": 100
    },
    {
      "midi": 71,
      "hit": false,
      "t": 56596.4368499999,
      "d": 198.67549999999756,
      "v": 100
    },
    {
      "midi": 40,
      "hit": false,
      "t": 56596.4368499999,
      "d": 198.67549999999756,
      "v": 100
    },
    {
      "midi": 66,
      "hit": false,
      "t": 56596.4368499999,
      "d": 397.3509999999951,
      "v": 92
    },
    {
      "midi": 59,
      "hit": false,
      "t": 56596.4368499999,
      "d": 397.3509999999951,
      "v": 92
    },
    {
      "midi": 62,
      "hit": false,
      "t": 56596.4368499999,
      "d": 397.3509999999951,
      "v": 92
    },
    {
      "midi": 42,
      "hit": false,
      "t": 56795.112349999894,
      "d": 198.67549999999756,
      "v": 100
    },
    {
      "midi": 40,
      "hit": false,
      "t": 56795.112349999894,
      "d": 198.67549999999756,
      "v": 100
    },
    {
      "midi": 69,
      "hit": false,
      "t": 56795.112349999894,
      "d": 397.3509999999951,
      "v": 100
    },
    {
      "midi": 42,
      "hit": false,
      "t": 56993.78784999989,
      "d": 198.67549999999756,
      "v": 100
    },
    {
      "midi": 62,
      "hit": false,
      "t": 56993.78784999989,
      "d": 198.67549999999756,
      "v": 92
    },
    {
      "midi": 40,
      "hit": false,
      "t": 56993.78784999989,
      "d": 198.67549999999756,
      "v": 100
    },
    {
      "midi": 36,
      "hit": false,
      "t": 56993.78784999989,
      "d": 397.3509999999951,
      "v": 100
    },
    {
      "midi": 42,
      "hit": false,
      "t": 57192.46334999989,
      "d": 198.67549999999756,
      "v": 100
    },
    {
      "midi": 40,
      "hit": false,
      "t": 57192.46334999989,
      "d": 198.67549999999756,
      "v": 100
    },
    {
      "midi": 62,
      "hit": false,
      "t": 57192.46334999989,
      "d": 596.0264999999927,
      "v": 92
    },
    {
      "midi": 59,
      "hit": false,
      "t": 57192.46334999989,
      "d": 596.0264999999927,
      "v": 92
    },
    {
      "midi": 66,
      "hit": false,
      "t": 57192.46334999989,
      "d": 596.0264999999927,
      "v": 92
    },
    {
      "midi": 71,
      "hit": false,
      "t": 57192.46334999989,
      "d": 596.0264999999927,
      "v": 100
    },
    {
      "midi": 42,
      "hit": false,
      "t": 57391.13884999989,
      "d": 198.67549999999756,
      "v": 100
    },
    {
      "midi": 38,
      "hit": false,
      "t": 57391.13884999989,
      "d": 198.67549999999756,
      "v": 100
    },
    {
      "midi": 42,
      "hit": false,
      "t": 57589.814349999884,
      "d": 198.67549999999756,
      "v": 100
    },
    {
      "midi": 40,
      "hit": false,
      "t": 57589.814349999884,
      "d": 198.67549999999756,
      "v": 100
    },
    {
      "midi": 42,
      "hit": false,
      "t": 57788.48984999988,
      "d": 198.67549999999756,
      "v": 100
    },
    {
      "midi": 69,
      "hit": false,
      "t": 57788.48984999988,
      "d": 198.67549999999756,
      "v": 100
    },
    {
      "midi": 62,
      "hit": false,
      "t": 57788.48984999988,
      "d": 198.67549999999756,
      "v": 92
    },
    {
      "midi": 36,
      "hit": false,
      "t": 57788.48984999988,
      "d": 397.3509999999951,
      "v": 100
    },
    {
      "midi": 42,
      "hit": false,
      "t": 57987.16534999988,
      "d": 198.67549999999756,
      "v": 100
    },
    {
      "midi": 62,
      "hit": false,
      "t": 57987.16534999988,
      "d": 198.67549999999756,
      "v": 92
    },
    {
      "midi": 67,
      "hit": false,
      "t": 57987.16534999988,
      "d": 397.3509999999951,
      "v": 100
    },
    {
      "midi": 42,
      "hit": false,
      "t": 58185.84084999988,
      "d": 198.67549999999756,
      "v": 100
    },
    {
      "midi": 61,
      "hit": false,
      "t": 58185.84084999988,
      "d": 198.67549999999756,
      "v": 92
    },
    {
      "midi": 38,
      "hit": false,
      "t": 58185.84084999988,
      "d": 198.67549999999756,
      "v": 100
    },
    {
      "midi": 57,
      "hit": false,
      "t": 58185.84084999988,
      "d": 397.3509999999951,
      "v": 92
    },
    {
      "midi": 42,
      "hit": false,
      "t": 58384.516349999874,
      "d": 198.67549999999756,
      "v": 100
    },
    {
      "midi": 66,
      "hit": false,
      "t": 58384.516349999874,
      "d": 198.67549999999756,
      "v": 100
    },
    {
      "midi": 69,
      "hit": false,
      "t": 58384.516349999874,
      "d": 596.0264999999927,
      "v": 100
    },
    {
      "midi": 42,
      "hit": false,
      "t": 58583.19184999987,
      "d": 198.67549999999756,
      "v": 100
    },
    {
      "midi": 62,
      "hit": false,
      "t": 58583.19184999987,
      "d": 198.67549999999756,
      "v": 92
    },
    {
      "midi": 36,
      "hit": false,
      "t": 58583.19184999987,
      "d": 397.3509999999951,
      "v": 100
    },
    {
      "midi": 42,
      "hit": false,
      "t": 58781.86734999987,
      "d": 198.67549999999756,
      "v": 100
    },
    {
      "midi": 61,
      "hit": false,
      "t": 58781.86734999987,
      "d": 596.0264999999927,
      "v": 92
    },
    {
      "midi": 57,
      "hit": false,
      "t": 58781.86734999987,
      "d": 596.0264999999927,
      "v": 92
    },
    {
      "midi": 66,
      "hit": false,
      "t": 58781.86734999987,
      "d": 596.0264999999927,
      "v": 92
    },
    {
      "midi": 42,
      "hit": false,
      "t": 58980.54284999987,
      "d": 198.67549999999756,
      "v": 100
    },
    {
      "midi": 64,
      "hit": false,
      "t": 58980.54284999987,
      "d": 198.67549999999756,
      "v": 100
    },
    {
      "midi": 38,
      "hit": false,
      "t": 58980.54284999987,
      "d": 198.67549999999756,
      "v": 100
    },
    {
      "midi": 69,
      "hit": false,
      "t": 58980.54284999987,
      "d": 397.3509999999951,
      "v": 100
    },
    {
      "midi": 42,
      "hit": false,
      "t": 59179.218349999865,
      "d": 198.67549999999756,
      "v": 100
    },
    {
      "midi": 64,
      "hit": false,
      "t": 59179.218349999865,
      "d": 198.67549999999756,
      "v": 100
    },
    {
      "midi": 36,
      "hit": false,
      "t": 59179.218349999865,
      "d": 198.67549999999756,
      "v": 100
    },
    {
      "midi": 42,
      "hit": false,
      "t": 59377.89384999986,
      "d": 198.67549999999756,
      "v": 100
    },
    {
      "midi": 62,
      "hit": false,
      "t": 59377.89384999986,
      "d": 198.67549999999756,
      "v": 92
    },
    {
      "midi": 69,
      "hit": false,
      "t": 59377.89384999986,
      "d": 397.3509999999951,
      "v": 100
    },
    {
      "midi": 36,
      "hit": false,
      "t": 59377.89384999986,
      "d": 397.3509999999951,
      "v": 100
    },
    {
      "midi": 43,
      "hit": false,
      "t": 59377.89384999986,
      "d": 596.0264999999927,
      "v": 100
    },
    {
      "midi": 64,
      "hit": false,
      "t": 59377.89384999986,
      "d": 596.0264999999927,
      "v": 100
    },
    {
      "midi": 42,
      "hit": false,
      "t": 59576.56934999986,
      "d": 198.67549999999756,
      "v": 100
    },
    {
      "midi": 62,
      "hit": false,
      "t": 59576.56934999986,
      "d": 198.67549999999756,
      "v": 92
    },
    {
      "midi": 42,
      "hit": false,
      "t": 59775.24484999986,
      "d": 198.67549999999756,
      "v": 100
    },
    {
      "midi": 38,
      "hit": false,
      "t": 59775.24484999986,
      "d": 198.67549999999756,
      "v": 100
    },
    {
      "midi": 69,
      "hit": false,
      "t": 59775.24484999986,
      "d": 198.67549999999756,
      "v": 100
    },
    {
      "midi": 59,
      "hit": false,
      "t": 59775.24484999986,
      "d": 397.3509999999951,
      "v": 92
    },
    {
      "midi": 42,
      "hit": false,
      "t": 59973.920349999855,
      "d": 198.67549999999756,
      "v": 100
    },
    {
      "midi": 66,
      "hit": false,
      "t": 59973.920349999855,
      "d": 198.67549999999756,
      "v": 100
    },
    {
      "midi": 62,
      "hit": false,
      "t": 59973.920349999855,
      "d": 198.67549999999756,
      "v": 100
    },
    {
      "midi": 43,
      "hit": false,
      "t": 59973.920349999855,
      "d": 397.3509999999951,
      "v": 100
    },
    {
      "midi": 69,
      "hit": false,
      "t": 59973.920349999855,
      "d": 993.3774999999878,
      "v": 100
    },
    {
      "midi": 42,
      "hit": false,
      "t": 60172.59584999985,
      "d": 198.67549999999756,
      "v": 100
    },
    {
      "midi": 61,
      "hit": false,
      "t": 60172.59584999985,
      "d": 198.67549999999756,
      "v": 92
    },
    {
      "midi": 36,
      "hit": false,
      "t": 60172.59584999985,
      "d": 397.3509999999951,
      "v": 100
    },
    {
      "midi": 42,
      "hit": false,
      "t": 60371.27134999985,
      "d": 198.67549999999756,
      "v": 100
    },
    {
      "midi": 43,
      "hit": false,
      "t": 60371.27134999985,
      "d": 397.3509999999951,
      "v": 100
    },
    {
      "midi": 62,
      "hit": false,
      "t": 60371.27134999985,
      "d": 596.0264999999927,
      "v": 92
    },
    {
      "midi": 66,
      "hit": false,
      "t": 60371.27134999985,
      "d": 596.0264999999927,
      "v": 92
    },
    {
      "midi": 59,
      "hit": false,
      "t": 60371.27134999985,
      "d": 596.0264999999927,
      "v": 92
    },
    {
      "midi": 38,
      "hit": false,
      "t": 60569.94684999985,
      "d": 198.67549999999756,
      "v": 100
    },
    {
      "midi": 42,
      "hit": false,
      "t": 60768.622349999845,
      "d": 99.33774999999878,
      "v": 100
    },
    {
      "midi": 43,
      "hit": false,
      "t": 60768.622349999845,
      "d": 198.67549999999756,
      "v": 100
    },
    {
      "midi": 42,
      "hit": false,
      "t": 60867.960099999844,
      "d": 99.33774999999878,
      "v": 100
    },
    {
      "midi": 43,
      "hit": false,
      "t": 60967.29784999984,
      "d": 198.67549999999756,
      "v": 100
    },
    {
      "midi": 36,
      "hit": false,
      "t": 60967.29784999984,
      "d": 397.3509999999951,
      "v": 100
    },
    {
      "midi": 71,
      "hit": false,
      "t": 60967.29784999984,
      "d": 397.3509999999951,
      "v": 100
    },
    {
      "midi": 78,
      "hit": false,
      "t": 60967.29784999984,
      "d": 397.3509999999951,
      "v": 100
    },
    {
      "midi": 81,
      "hit": false,
      "t": 60967.29784999984,
      "d": 397.3509999999951,
      "v": 100
    },
    {
      "midi": 74,
      "hit": false,
      "t": 60967.29784999984,
      "d": 397.3509999999951,
      "v": 100
    },
    {
      "midi": 46,
      "hit": false,
      "t": 60967.29784999984,
      "d": 397.3509999999951,
      "v": 100
    },
    {
      "midi": 61,
      "hit": false,
      "t": 60967.29784999984,
      "d": 397.3509999999951,
      "v": 92
    },
    {
      "midi": 57,
      "hit": false,
      "t": 60967.29784999984,
      "d": 397.3509999999951,
      "v": 92
    },
    {
      "midi": 38,
      "hit": false,
      "t": 61165.97334999984,
      "d": 198.67549999999756,
      "v": 100
    },
    {
      "midi": 38,
      "hit": false,
      "t": 61364.64884999984,
      "d": 198.67549999999756,
      "v": 100
    },
    {
      "midi": 57,
      "hit": false,
      "t": 61364.64884999984,
      "d": 198.67549999999756,
      "v": 92
    },
    {
      "midi": 40,
      "hit": false,
      "t": 61364.64884999984,
      "d": 198.67549999999756,
      "v": 100
    },
    {
      "midi": 73,
      "hit": false,
      "t": 61364.64884999984,
      "d": 198.67549999999756,
      "v": 100
    },
    {
      "midi": 69,
      "hit": false,
      "t": 61364.64884999984,
      "d": 198.67549999999756,
      "v": 100
    },
    {
      "midi": 61,
      "hit": false,
      "t": 61364.64884999984,
      "d": 198.67549999999756,
      "v": 92
    },
    {
      "midi": 46,
      "hit": false,
      "t": 61563.324349999835,
      "d": 198.67549999999756,
      "v": 100
    },
    {
      "midi": 59,
      "hit": false,
      "t": 61563.324349999835,
      "d": 198.67549999999756,
      "v": 92
    },
    {
      "midi": 42,
      "hit": false,
      "t": 61563.324349999835,
      "d": 198.67549999999756,
      "v": 100
    },
    {
      "midi": 74,
      "hit": false,
      "t": 61563.324349999835,
      "d": 198.67549999999756,
      "v": 100
    },
    {
      "midi": 71,
      "hit": false,
      "t": 61563.324349999835,
      "d": 198.67549999999756,
      "v": 100
    },
    {
      "midi": 62,
      "hit": false,
      "t": 61563.324349999835,
      "d": 198.67549999999756,
      "v": 92
    },
    {
      "midi": 36,
      "hit": false,
      "t": 61563.324349999835,
      "d": 198.67549999999756,
      "v": 100
    },
    {
      "midi": 42,
      "hit": false,
      "t": 61761.99984999983,
      "d": 198.67549999999756,
      "v": 100
    },
    {
      "midi": 42,
      "hit": false,
      "t": 61960.67534999983,
      "d": 198.67549999999756,
      "v": 100
    },
    {
      "midi": 36,
      "hit": false,
      "t": 61960.67534999983,
      "d": 198.67549999999756,
      "v": 100
    },
    {
      "midi": 43,
      "hit": false,
      "t": 61960.67534999983,
      "d": 397.3509999999951,
      "v": 100
    },
    {
      "midi": 64,
      "hit": false,
      "t": 61960.67534999983,
      "d": 596.0264999999927,
      "v": 92
    },
    {
      "midi": 76,
      "hit": false,
      "t": 61960.67534999983,
      "d": 596.0264999999927,
      "v": 100
    },
    {
      "midi": 61,
      "hit": false,
      "t": 61960.67534999983,
      "d": 596.0264999999927,
      "v": 92
    },
    {
      "midi": 73,
      "hit": false,
      "t": 61960.67534999983,
      "d": 596.0264999999927,
      "v": 100
    },
    {
      "midi": 42,
      "hit": false,
      "t": 62159.35084999983,
      "d": 198.67549999999756,
      "v": 100
    },
    {
      "midi": 40,
      "hit": false,
      "t": 62159.35084999983,
      "d": 198.67549999999756,
      "v": 100
    },
    {
      "midi": 69,
      "hit": false,
      "t": 62358.026349999825,
      "d": 99.33774999999878,
      "v": 82
    },
    {
      "midi": 62,
      "hit": false,
      "t": 62358.026349999825,
      "d": 99.33774999999878,
      "v": 82
    },
    {
      "midi": 54,
      "hit": false,
      "t": 62358.026349999825,
      "d": 99.33774999999878,
      "v": 82
    },
    {
      "midi": 57,
      "hit": false,
      "t": 62358.026349999825,
      "d": 99.33774999999878,
      "v": 82
    },
    {
      "midi": 47,
      "hit": false,
      "t": 62358.026349999825,
      "d": 99.33774999999878,
      "v": 82
    },
    {
      "midi": 42,
      "hit": false,
      "t": 62358.026349999825,
      "d": 198.67549999999756,
      "v": 100
    },
    {
      "midi": 36,
      "hit": false,
      "t": 62358.026349999825,
      "d": 198.67549999999756,
      "v": 100
    },
    {
      "midi": 69,
      "hit": false,
      "t": 62457.364099999824,
      "d": 99.33774999999878,
      "v": 78
    },
    {
      "midi": 47,
      "hit": false,
      "t": 62457.364099999824,
      "d": 99.33774999999878,
      "v": 78
    },
    {
      "midi": 54,
      "hit": false,
      "t": 62457.364099999824,
      "d": 99.33774999999878,
      "v": 78
    },
    {
      "midi": 62,
      "hit": false,
      "t": 62457.364099999824,
      "d": 99.33774999999878,
      "v": 78
    },
    {
      "midi": 57,
      "hit": false,
      "t": 62457.364099999824,
      "d": 99.33774999999878,
      "v": 78
    },
    {
      "midi": 57,
      "hit": false,
      "t": 62556.70184999982,
      "d": 198.67549999999756,
      "v": 100
    },
    {
      "midi": 62,
      "hit": false,
      "t": 62556.70184999982,
      "d": 198.67549999999756,
      "v": 92
    },
    {
      "midi": 36,
      "hit": false,
      "t": 62556.70184999982,
      "d": 397.3509999999951,
      "v": 100
    },
    {
      "midi": 43,
      "hit": false,
      "t": 62556.70184999982,
      "d": 397.3509999999951,
      "v": 100
    },
    {
      "midi": 47,
      "hit": false,
      "t": 62556.70184999982,
      "d": 1589.4039999999804,
      "v": 74
    },
    {
      "midi": 54,
      "hit": false,
      "t": 62556.70184999982,
      "d": 1589.4039999999804,
      "v": 74
    },
    {
      "midi": 69,
      "hit": false,
      "t": 62556.70184999982,
      "d": 1589.4039999999804,
      "v": 74
    },
    {
      "midi": 59,
      "hit": false,
      "t": 62556.70184999982,
      "d": 1589.4039999999804,
      "v": 100
    },
    {
      "midi": 42,
      "hit": false,
      "t": 62755.37734999982,
      "d": 198.67549999999756,
      "v": 100
    },
    {
      "midi": 62,
      "hit": false,
      "t": 62755.37734999982,
      "d": 198.67549999999756,
      "v": 92
    },
    {
      "midi": 42,
      "hit": false,
      "t": 62954.05284999982,
      "d": 198.67549999999756,
      "v": 100
    },
    {
      "midi": 38,
      "hit": false,
      "t": 62954.05284999982,
      "d": 198.67549999999756,
      "v": 100
    },
    {
      "midi": 43,
      "hit": false,
      "t": 62954.05284999982,
      "d": 198.67549999999756,
      "v": 100
    },
    {
      "midi": 66,
      "hit": false,
      "t": 62954.05284999982,
      "d": 397.3509999999951,
      "v": 92
    },
    {
      "midi": 57,
      "hit": false,
      "t": 62954.05284999982,
      "d": 397.3509999999951,
      "v": 92
    },
    {
      "midi": 62,
      "hit": false,
      "t": 62954.05284999982,
      "d": 397.3509999999951,
      "v": 92
    },
    {
      "midi": 42,
      "hit": false,
      "t": 63152.728349999816,
      "d": 198.67549999999756,
      "v": 100
    },
    {
      "midi": 38,
      "hit": false,
      "t": 63152.728349999816,
      "d": 397.3509999999951,
      "v": 100
    },
    {
      "midi": 42,
      "hit": false,
      "t": 63351.40384999981,
      "d": 198.67549999999756,
      "v": 100
    },
    {
      "midi": 62,
      "hit": false,
      "t": 63351.40384999981,
      "d": 198.67549999999756,
      "v": 92
    },
    {
      "midi": 36,
      "hit": false,
      "t": 63351.40384999981,
      "d": 397.3509999999951,
      "v": 100
    },
    {
      "midi": 42,
      "hit": false,
      "t": 63550.07934999981,
      "d": 198.67549999999756,
      "v": 100
    },
    {
      "midi": 38,
      "hit": false,
      "t": 63550.07934999981,
      "d": 198.67549999999756,
      "v": 100
    },
    {
      "midi": 66,
      "hit": false,
      "t": 63550.07934999981,
      "d": 198.67549999999756,
      "v": 92
    },
    {
      "midi": 57,
      "hit": false,
      "t": 63550.07934999981,
      "d": 596.0264999999927,
      "v": 92
    },
    {
      "midi": 62,
      "hit": false,
      "t": 63550.07934999981,
      "d": 596.0264999999927,
      "v": 92
    },
    {
      "midi": 42,
      "hit": false,
      "t": 63748.75484999981,
      "d": 198.67549999999756,
      "v": 100
    },
    {
      "midi": 38,
      "hit": false,
      "t": 63748.75484999981,
      "d": 198.67549999999756,
      "v": 100
    },
    {
      "midi": 43,
      "hit": false,
      "t": 63748.75484999981,
      "d": 198.67549999999756,
      "v": 100
    },
    {
      "midi": 71,
      "hit": false,
      "t": 63748.75484999981,
      "d": 198.67549999999756,
      "v": 100
    },
    {
      "midi": 42,
      "hit": false,
      "t": 63947.430349999806,
      "d": 198.67549999999756,
      "v": 100
    },
    {
      "midi": 73,
      "hit": false,
      "t": 63947.430349999806,
      "d": 198.67549999999756,
      "v": 100
    },
    {
      "midi": 38,
      "hit": false,
      "t": 63947.430349999806,
      "d": 198.67549999999756,
      "v": 100
    },
    {
      "midi": 42,
      "hit": false,
      "t": 64146.1058499998,
      "d": 198.67549999999756,
      "v": 100
    },
    {
      "midi": 62,
      "hit": false,
      "t": 64146.1058499998,
      "d": 198.67549999999756,
      "v": 92
    },
    {
      "midi": 36,
      "hit": false,
      "t": 64146.1058499998,
      "d": 397.3509999999951,
      "v": 100
    },
    {
      "midi": 74,
      "hit": false,
      "t": 64146.1058499998,
      "d": 596.0264999999927,
      "v": 100
    },
    {
      "midi": 42,
      "hit": false,
      "t": 64344.7813499998,
      "d": 198.67549999999756,
      "v": 100
    },
    {
      "midi": 62,
      "hit": false,
      "t": 64344.7813499998,
      "d": 198.67549999999756,
      "v": 92
    },
    {
      "midi": 38,
      "hit": false,
      "t": 64543.4568499998,
      "d": 198.67549999999756,
      "v": 100
    },
    {
      "midi": 42,
      "hit": false,
      "t": 64543.4568499998,
      "d": 198.67549999999756,
      "v": 100
    },
    {
      "midi": 61,
      "hit": false,
      "t": 64543.4568499998,
      "d": 397.3509999999951,
      "v": 92
    },
    {
      "midi": 66,
      "hit": false,
      "t": 64543.4568499998,
      "d": 397.3509999999951,
      "v": 92
    },
    {
      "midi": 57,
      "hit": false,
      "t": 64543.4568499998,
      "d": 397.3509999999951,
      "v": 92
    },
    {
      "midi": 42,
      "hit": false,
      "t": 64742.132349999796,
      "d": 198.67549999999756,
      "v": 100
    },
    {
      "midi": 38,
      "hit": false,
      "t": 64742.132349999796,
      "d": 397.3509999999951,
      "v": 100
    },
    {
      "midi": 73,
      "hit": false,
      "t": 64742.132349999796,
      "d": 397.3509999999951,
      "v": 100
    },
    {
      "midi": 42,
      "hit": false,
      "t": 64940.807849999794,
      "d": 198.67549999999756,
      "v": 100
    },
    {
      "midi": 62,
      "hit": false,
      "t": 64940.807849999794,
      "d": 198.67549999999756,
      "v": 92
    },
    {
      "midi": 36,
      "hit": false,
      "t": 64940.807849999794,
      "d": 397.3509999999951,
      "v": 100
    },
    {
      "midi": 42,
      "hit": false,
      "t": 65139.48334999979,
      "d": 198.67549999999756,
      "v": 100
    },
    {
      "midi": 38,
      "hit": false,
      "t": 65139.48334999979,
      "d": 198.67549999999756,
      "v": 100
    },
    {
      "midi": 69,
      "hit": false,
      "t": 65139.48334999979,
      "d": 397.3509999999951,
      "v": 100
    },
    {
      "midi": 66,
      "hit": false,
      "t": 65139.48334999979,
      "d": 596.0264999999927,
      "v": 92
    },
    {
      "midi": 57,
      "hit": false,
      "t": 65139.48334999979,
      "d": 596.0264999999927,
      "v": 92
    },
    {
      "midi": 61,
      "hit": false,
      "t": 65139.48334999979,
      "d": 596.0264999999927,
      "v": 92
    },
    {
      "midi": 38,
      "hit": false,
      "t": 65338.15884999979,
      "d": 198.67549999999756,
      "v": 100
    },
    {
      "midi": 42,
      "hit": false,
      "t": 65338.15884999979,
      "d": 198.67549999999756,
      "v": 100
    },
    {
      "midi": 37,
      "hit": false,
      "t": 65338.15884999979,
      "d": 198.67549999999756,
      "v": 100
    },
    {
      "midi": 36,
      "hit": false,
      "t": 65536.83434999979,
      "d": 198.67549999999756,
      "v": 100
    },
    {
      "midi": 64,
      "hit": false,
      "t": 65536.83434999979,
      "d": 198.67549999999756,
      "v": 100
    },
    {
      "midi": 38,
      "hit": false,
      "t": 65536.83434999979,
      "d": 198.67549999999756,
      "v": 100
    },
    {
      "midi": 42,
      "hit": false,
      "t": 65536.83434999979,
      "d": 198.67549999999756,
      "v": 100
    },
    {
      "midi": 42,
      "hit": false,
      "t": 65735.50984999978,
      "d": 198.67549999999756,
      "v": 100
    },
    {
      "midi": 62,
      "hit": false,
      "t": 65735.50984999978,
      "d": 198.67549999999756,
      "v": 92
    },
    {
      "midi": 36,
      "hit": false,
      "t": 65735.50984999978,
      "d": 397.3509999999951,
      "v": 100
    },
    {
      "midi": 69,
      "hit": false,
      "t": 65735.50984999978,
      "d": 596.0264999999927,
      "v": 100
    },
    {
      "midi": 40,
      "hit": false,
      "t": 65735.50984999978,
      "d": 596.0264999999927,
      "v": 100
    },
    {
      "midi": 42,
      "hit": false,
      "t": 65934.18534999978,
      "d": 198.67549999999756,
      "v": 100
    },
    {
      "midi": 62,
      "hit": false,
      "t": 65934.18534999978,
      "d": 198.67549999999756,
      "v": 92
    },
    {
      "midi": 38,
      "hit": false,
      "t": 66132.86084999978,
      "d": 198.67549999999756,
      "v": 100
    },
    {
      "midi": 62,
      "hit": false,
      "t": 66132.86084999978,
      "d": 198.67549999999756,
      "v": 92
    },
    {
      "midi": 42,
      "hit": false,
      "t": 66132.86084999978,
      "d": 198.67549999999756,
      "v": 100
    },
    {
      "midi": 59,
      "hit": false,
      "t": 66132.86084999978,
      "d": 198.67549999999756,
      "v": 92
    },
    {
      "midi": 66,
      "hit": false,
      "t": 66132.86084999978,
      "d": 397.3509999999951,
      "v": 92
    },
    {
      "midi": 42,
      "hit": false,
      "t": 66331.53634999978,
      "d": 198.67549999999756,
      "v": 100
    },
    {
      "midi": 38,
      "hit": false,
      "t": 66331.53634999978,
      "d": 198.67549999999756,
      "v": 100
    },
    {
      "midi": 59,
      "hit": false,
      "t": 66331.53634999978,
      "d": 198.67549999999756,
      "v": 100
    },
    {
      "midi": 62,
      "hit": false,
      "t": 66331.53634999978,
      "d": 198.67549999999756,
      "v": 100
    },
    {
      "midi": 71,
      "hit": false,
      "t": 66331.53634999978,
      "d": 596.0264999999927,
      "v": 100
    },
    {
      "midi": 69,
      "hit": false,
      "t": 66331.53634999978,
      "d": 993.3774999999878,
      "v": 100
    },
    {
      "midi": 42,
      "hit": false,
      "t": 66530.21184999977,
      "d": 198.67549999999756,
      "v": 100
    },
    {
      "midi": 62,
      "hit": false,
      "t": 66530.21184999977,
      "d": 198.67549999999756,
      "v": 92
    },
    {
      "midi": 40,
      "hit": false,
      "t": 66530.21184999977,
      "d": 198.67549999999756,
      "v": 100
    },
    {
      "midi": 36,
      "hit": false,
      "t": 66530.21184999977,
      "d": 397.3509999999951,
      "v": 100
    },
    {
      "midi": 42,
      "hit": false,
      "t": 66728.88734999977,
      "d": 198.67549999999756,
      "v": 100
    },
    {
      "midi": 59,
      "hit": false,
      "t": 66728.88734999977,
      "d": 596.0264999999927,
      "v": 92
    },
    {
      "midi": 66,
      "hit": false,
      "t": 66728.88734999977,
      "d": 596.0264999999927,
      "v": 92
    },
    {
      "midi": 38,
      "hit": false,
      "t": 66927.56284999977,
      "d": 198.67549999999756,
      "v": 100
    },
    {
      "midi": 42,
      "hit": false,
      "t": 66927.56284999977,
      "d": 198.67549999999756,
      "v": 100
    },
    {
      "midi": 43,
      "hit": false,
      "t": 66927.56284999977,
      "d": 198.67549999999756,
      "v": 100
    },
    {
      "midi": 62,
      "hit": false,
      "t": 66927.56284999977,
      "d": 397.3509999999951,
      "v": 100
    },
    {
      "midi": 42,
      "hit": false,
      "t": 67126.23834999977,
      "d": 198.67549999999756,
      "v": 100
    },
    {
      "midi": 45,
      "hit": false,
      "t": 67126.23834999977,
      "d": 198.67549999999756,
      "v": 100
    },
    {
      "midi": 42,
      "hit": false,
      "t": 67324.91384999976,
      "d": 198.67549999999756,
      "v": 100
    },
    {
      "midi": 62,
      "hit": false,
      "t": 67324.91384999976,
      "d": 198.67549999999756,
      "v": 92
    },
    {
      "midi": 47,
      "hit": false,
      "t": 67324.91384999976,
      "d": 397.3509999999951,
      "v": 100
    },
    {
      "midi": 36,
      "hit": false,
      "t": 67324.91384999976,
      "d": 397.3509999999951,
      "v": 100
    },
    {
      "midi": 79,
      "hit": false,
      "t": 67324.91384999976,
      "d": 397.3509999999951,
      "v": 100
    },
    {
      "midi": 71,
      "hit": false,
      "t": 67324.91384999976,
      "d": 397.3509999999951,
      "v": 100
    },
    {
      "midi": 42,
      "hit": false,
      "t": 67523.58934999976,
      "d": 198.67549999999756,
      "v": 100
    },
    {
      "midi": 62,
      "hit": false,
      "t": 67523.58934999976,
      "d": 198.67549999999756,
      "v": 92
    },
    {
      "midi": 42,
      "hit": false,
      "t": 67722.26484999976,
      "d": 198.67549999999756,
      "v": 100
    },
    {
      "midi": 71,
      "hit": false,
      "t": 67722.26484999976,
      "d": 198.67549999999756,
      "v": 100
    },
    {
      "midi": 79,
      "hit": false,
      "t": 67722.26484999976,
      "d": 198.67549999999756,
      "v": 100
    },
    {
      "midi": 45,
      "hit": false,
      "t": 67722.26484999976,
      "d": 198.67549999999756,
      "v": 100
    },
    {
      "midi": 66,
      "hit": false,
      "t": 67722.26484999976,
      "d": 397.3509999999951,
      "v": 92
    },
    {
      "midi": 62,
      "hit": false,
      "t": 67722.26484999976,
      "d": 397.3509999999951,
      "v": 92
    },
    {
      "midi": 59,
      "hit": false,
      "t": 67722.26484999976,
      "d": 397.3509999999951,
      "v": 92
    },
    {
      "midi": 42,
      "hit": false,
      "t": 67920.94034999976,
      "d": 198.67549999999756,
      "v": 100
    },
    {
      "midi": 36,
      "hit": false,
      "t": 67920.94034999976,
      "d": 198.67549999999756,
      "v": 100
    },
    {
      "midi": 78,
      "hit": false,
      "t": 67920.94034999976,
      "d": 397.3509999999951,
      "v": 100
    },
    {
      "midi": 69,
      "hit": false,
      "t": 67920.94034999976,
      "d": 397.3509999999951,
      "v": 100
    },
    {
      "midi": 47,
      "hit": false,
      "t": 67920.94034999976,
      "d": 397.3509999999951,
      "v": 100
    },
    {
      "midi": 42,
      "hit": false,
      "t": 68119.61584999975,
      "d": 198.67549999999756,
      "v": 100
    },
    {
      "midi": 62,
      "hit": false,
      "t": 68119.61584999975,
      "d": 198.67549999999756,
      "v": 92
    },
    {
      "midi": 42,
      "hit": false,
      "t": 68318.29134999975,
      "d": 198.67549999999756,
      "v": 100
    },
    {
      "midi": 36,
      "hit": false,
      "t": 68318.29134999975,
      "d": 198.67549999999756,
      "v": 100
    },
    {
      "midi": 45,
      "hit": false,
      "t": 68318.29134999975,
      "d": 198.67549999999756,
      "v": 100
    },
    {
      "midi": 62,
      "hit": false,
      "t": 68318.29134999975,
      "d": 596.0264999999927,
      "v": 92
    },
    {
      "midi": 66,
      "hit": false,
      "t": 68318.29134999975,
      "d": 596.0264999999927,
      "v": 92
    },
    {
      "midi": 59,
      "hit": false,
      "t": 68318.29134999975,
      "d": 596.0264999999927,
      "v": 92
    },
    {
      "midi": 74,
      "hit": false,
      "t": 68318.29134999975,
      "d": 596.0264999999927,
      "v": 100
    },
    {
      "midi": 42,
      "hit": false,
      "t": 68516.96684999975,
      "d": 198.67549999999756,
      "v": 100
    },
    {
      "midi": 42,
      "hit": false,
      "t": 68715.64234999975,
      "d": 198.67549999999756,
      "v": 100
    },
    {
      "midi": 64,
      "hit": false,
      "t": 68715.64234999975,
      "d": 198.67549999999756,
      "v": 100
    },
    {
      "midi": 38,
      "hit": false,
      "t": 68715.64234999975,
      "d": 198.67549999999756,
      "v": 100
    },
    {
      "midi": 42,
      "hit": false,
      "t": 68914.31784999974,
      "d": 198.67549999999756,
      "v": 100
    },
    {
      "midi": 62,
      "hit": false,
      "t": 68914.31784999974,
      "d": 198.67549999999756,
      "v": 92
    },
    {
      "midi": 36,
      "hit": false,
      "t": 68914.31784999974,
      "d": 397.3509999999951,
      "v": 100
    },
    {
      "midi": 69,
      "hit": false,
      "t": 68914.31784999974,
      "d": 397.3509999999951,
      "v": 100
    },
    {
      "midi": 40,
      "hit": false,
      "t": 68914.31784999974,
      "d": 397.3509999999951,
      "v": 100
    },
    {
      "midi": 67,
      "hit": false,
      "t": 68914.31784999974,
      "d": 1589.4039999999804,
      "v": 100
    },
    {
      "midi": 42,
      "hit": false,
      "t": 69112.99334999974,
      "d": 198.67549999999756,
      "v": 100
    },
    {
      "midi": 62,
      "hit": false,
      "t": 69112.99334999974,
      "d": 198.67549999999756,
      "v": 92
    },
    {
      "midi": 42,
      "hit": false,
      "t": 69311.66884999974,
      "d": 198.67549999999756,
      "v": 100
    },
    {
      "midi": 38,
      "hit": false,
      "t": 69311.66884999974,
      "d": 198.67549999999756,
      "v": 100
    },
    {
      "midi": 71,
      "hit": false,
      "t": 69311.66884999974,
      "d": 198.67549999999756,
      "v": 100
    },
    {
      "midi": 40,
      "hit": false,
      "t": 69311.66884999974,
      "d": 198.67549999999756,
      "v": 100
    },
    {
      "midi": 66,
      "hit": false,
      "t": 69311.66884999974,
      "d": 397.3509999999951,
      "v": 92
    },
    {
      "midi": 59,
      "hit": false,
      "t": 69311.66884999974,
      "d": 397.3509999999951,
      "v": 92
    },
    {
      "midi": 62,
      "hit": false,
      "t": 69311.66884999974,
      "d": 397.3509999999951,
      "v": 92
    },
    {
      "midi": 42,
      "hit": false,
      "t": 69510.34434999974,
      "d": 198.67549999999756,
      "v": 100
    },
    {
      "midi": 40,
      "hit": false,
      "t": 69510.34434999974,
      "d": 198.67549999999756,
      "v": 100
    },
    {
      "midi": 69,
      "hit": false,
      "t": 69510.34434999974,
      "d": 397.3509999999951,
      "v": 100
    },
    {
      "midi": 42,
      "hit": false,
      "t": 69709.01984999974,
      "d": 198.67549999999756,
      "v": 100
    },
    {
      "midi": 62,
      "hit": false,
      "t": 69709.01984999974,
      "d": 198.67549999999756,
      "v": 92
    },
    {
      "midi": 40,
      "hit": false,
      "t": 69709.01984999974,
      "d": 198.67549999999756,
      "v": 100
    },
    {
      "midi": 36,
      "hit": false,
      "t": 69709.01984999974,
      "d": 397.3509999999951,
      "v": 100
    },
    {
      "midi": 42,
      "hit": false,
      "t": 69907.69534999973,
      "d": 198.67549999999756,
      "v": 100
    },
    {
      "midi": 40,
      "hit": false,
      "t": 69907.69534999973,
      "d": 198.67549999999756,
      "v": 100
    },
    {
      "midi": 62,
      "hit": false,
      "t": 69907.69534999973,
      "d": 596.0264999999927,
      "v": 92
    },
    {
      "midi": 59,
      "hit": false,
      "t": 69907.69534999973,
      "d": 596.0264999999927,
      "v": 92
    },
    {
      "midi": 66,
      "hit": false,
      "t": 69907.69534999973,
      "d": 596.0264999999927,
      "v": 92
    },
    {
      "midi": 71,
      "hit": false,
      "t": 69907.69534999973,
      "d": 596.0264999999927,
      "v": 100
    },
    {
      "midi": 42,
      "hit": false,
      "t": 70106.37084999973,
      "d": 198.67549999999756,
      "v": 100
    },
    {
      "midi": 38,
      "hit": false,
      "t": 70106.37084999973,
      "d": 198.67549999999756,
      "v": 100
    },
    {
      "midi": 42,
      "hit": false,
      "t": 70305.04634999973,
      "d": 198.67549999999756,
      "v": 100
    },
    {
      "midi": 40,
      "hit": false,
      "t": 70305.04634999973,
      "d": 198.67549999999756,
      "v": 100
    },
    {
      "midi": 42,
      "hit": false,
      "t": 70503.72184999973,
      "d": 198.67549999999756,
      "v": 100
    },
    {
      "midi": 69,
      "hit": false,
      "t": 70503.72184999973,
      "d": 198.67549999999756,
      "v": 100
    },
    {
      "midi": 62,
      "hit": false,
      "t": 70503.72184999973,
      "d": 198.67549999999756,
      "v": 92
    },
    {
      "midi": 36,
      "hit": false,
      "t": 70503.72184999973,
      "d": 397.3509999999951,
      "v": 100
    },
    {
      "midi": 42,
      "hit": false,
      "t": 70702.39734999972,
      "d": 198.67549999999756,
      "v": 100
    },
    {
      "midi": 62,
      "hit": false,
      "t": 70702.39734999972,
      "d": 198.67549999999756,
      "v": 92
    },
    {
      "midi": 73,
      "hit": false,
      "t": 70702.39734999972,
      "d": 397.3509999999951,
      "v": 100
    },
    {
      "midi": 42,
      "hit": false,
      "t": 70901.07284999972,
      "d": 198.67549999999756,
      "v": 100
    },
    {
      "midi": 61,
      "hit": false,
      "t": 70901.07284999972,
      "d": 198.67549999999756,
      "v": 92
    },
    {
      "midi": 38,
      "hit": false,
      "t": 70901.07284999972,
      "d": 198.67549999999756,
      "v": 100
    },
    {
      "midi": 66,
      "hit": false,
      "t": 70901.07284999972,
      "d": 397.3509999999951,
      "v": 92
    },
    {
      "midi": 57,
      "hit": false,
      "t": 70901.07284999972,
      "d": 397.3509999999951,
      "v": 92
    },
    {
      "midi": 42,
      "hit": false,
      "t": 71099.74834999972,
      "d": 198.67549999999756,
      "v": 100
    },
    {
      "midi": 76,
      "hit": false,
      "t": 71099.74834999972,
      "d": 596.0264999999927,
      "v": 100
    },
    {
      "midi": 69,
      "hit": false,
      "t": 71099.74834999972,
      "d": 596.0264999999927,
      "v": 100
    },
    {
      "midi": 42,
      "hit": false,
      "t": 71298.42384999972,
      "d": 198.67549999999756,
      "v": 100
    },
    {
      "midi": 62,
      "hit": false,
      "t": 71298.42384999972,
      "d": 198.67549999999756,
      "v": 92
    },
    {
      "midi": 36,
      "hit": false,
      "t": 71298.42384999972,
      "d": 397.3509999999951,
      "v": 100
    },
    {
      "midi": 42,
      "hit": false,
      "t": 71497.09934999971,
      "d": 198.67549999999756,
      "v": 100
    },
    {
      "midi": 57,
      "hit": false,
      "t": 71497.09934999971,
      "d": 596.0264999999927,
      "v": 92
    },
    {
      "midi": 61,
      "hit": false,
      "t": 71497.09934999971,
      "d": 596.0264999999927,
      "v": 92
    },
    {
      "midi": 66,
      "hit": false,
      "t": 71497.09934999971,
      "d": 596.0264999999927,
      "v": 92
    },
    {
      "midi": 45,
      "hit": false,
      "t": 71695.77484999971,
      "d": 198.67549999999756,
      "v": 100
    },
    {
      "midi": 73,
      "hit": false,
      "t": 71695.77484999971,
      "d": 198.67549999999756,
      "v": 100
    },
    {
      "midi": 49,
      "hit": false,
      "t": 71695.77484999971,
      "d": 397.3509999999951,
      "v": 100
    },
    {
      "midi": 64,
      "hit": false,
      "t": 71695.77484999971,
      "d": 397.3509999999951,
      "v": 100
    },
    {
      "midi": 38,
      "hit": false,
      "t": 71695.77484999971,
      "d": 397.3509999999951,
      "v": 100
    },
    {
      "midi": 69,
      "hit": false,
      "t": 71695.77484999971,
      "d": 397.3509999999951,
      "v": 100
    },
    {
      "midi": 42,
      "hit": false,
      "t": 71894.45034999971,
      "d": 198.67549999999756,
      "v": 100
    },
    {
      "midi": 74,
      "hit": false,
      "t": 71894.45034999971,
      "d": 2582.781499999968,
      "v": 100
    },
    {
      "midi": 49,
      "hit": false,
      "t": 72093.1258499997,
      "d": 198.67549999999756,
      "v": 100
    },
    {
      "midi": 36,
      "hit": false,
      "t": 72093.1258499997,
      "d": 397.3509999999951,
      "v": 100
    },
    {
      "midi": 47,
      "hit": false,
      "t": 72093.1258499997,
      "d": 397.3509999999951,
      "v": 100
    },
    {
      "midi": 66,
      "hit": false,
      "t": 72093.1258499997,
      "d": 1589.4039999999804,
      "v": 100
    },
    {
      "midi": 57,
      "hit": false,
      "t": 72093.1258499997,
      "d": 1589.4039999999804,
      "v": 100
    },
    {
      "midi": 62,
      "hit": false,
      "t": 72093.1258499997,
      "d": 1589.4039999999804,
      "v": 100
    },
    {
      "midi": 42,
      "hit": false,
      "t": 72291.8013499997,
      "d": 198.67549999999756,
      "v": 100
    },
    {
      "midi": 42,
      "hit": false,
      "t": 72490.4768499997,
      "d": 198.67549999999756,
      "v": 100
    },
    {
      "midi": 38,
      "hit": false,
      "t": 72490.4768499997,
      "d": 198.67549999999756,
      "v": 100
    },
    {
      "midi": 45,
      "hit": false,
      "t": 72490.4768499997,
      "d": 198.67549999999756,
      "v": 100
    },
    {
      "midi": 42,
      "hit": false,
      "t": 72689.1523499997,
      "d": 198.67549999999756,
      "v": 100
    },
    {
      "midi": 47,
      "hit": false,
      "t": 72689.1523499997,
      "d": 397.3509999999951,
      "v": 100
    },
    {
      "midi": 42,
      "hit": false,
      "t": 72887.8278499997,
      "d": 198.67549999999756,
      "v": 100
    },
    {
      "midi": 36,
      "hit": false,
      "t": 72887.8278499997,
      "d": 397.3509999999951,
      "v": 100
    },
    {
      "midi": 42,
      "hit": false,
      "t": 73086.5033499997,
      "d": 198.67549999999756,
      "v": 100
    },
    {
      "midi": 45,
      "hit": false,
      "t": 73086.5033499997,
      "d": 198.67549999999756,
      "v": 100
    },
    {
      "midi": 42,
      "hit": false,
      "t": 73285.17884999969,
      "d": 198.67549999999756,
      "v": 100
    },
    {
      "midi": 38,
      "hit": false,
      "t": 73285.17884999969,
      "d": 198.67549999999756,
      "v": 100
    },
    {
      "midi": 47,
      "hit": false,
      "t": 73285.17884999969,
      "d": 198.67549999999756,
      "v": 100
    },
    {
      "midi": 42,
      "hit": false,
      "t": 73483.85434999969,
      "d": 198.67549999999756,
      "v": 100
    },
    {
      "midi": 50,
      "hit": false,
      "t": 73483.85434999969,
      "d": 198.67549999999756,
      "v": 100
    },
    {
      "midi": 42,
      "hit": false,
      "t": 73682.52984999969,
      "d": 198.67549999999756,
      "v": 100
    },
    {
      "midi": 66,
      "hit": false,
      "t": 73682.52984999969,
      "d": 198.67549999999756,
      "v": 100
    },
    {
      "midi": 62,
      "hit": false,
      "t": 73682.52984999969,
      "d": 198.67549999999756,
      "v": 100
    },
    {
      "midi": 52,
      "hit": false,
      "t": 73682.52984999969,
      "d": 198.67549999999756,
      "v": 100
    },
    {
      "midi": 57,
      "hit": false,
      "t": 73682.52984999969,
      "d": 198.67549999999756,
      "v": 100
    },
    {
      "midi": 36,
      "hit": false,
      "t": 73682.52984999969,
      "d": 397.3509999999951,
      "v": 100
    },
    {
      "midi": 38,
      "hit": false,
      "t": 73881.20534999968,
      "d": 198.67549999999756,
      "v": 100
    },
    {
      "midi": 62,
      "hit": false,
      "t": 73881.20534999968,
      "d": 198.67549999999756,
      "v": 100
    },
    {
      "midi": 50,
      "hit": false,
      "t": 73881.20534999968,
      "d": 198.67549999999756,
      "v": 100
    },
    {
      "midi": 57,
      "hit": false,
      "t": 73881.20534999968,
      "d": 397.3509999999951,
      "v": 100
    },
    {
      "midi": 36,
      "hit": false,
      "t": 74079.88084999968,
      "d": 198.67549999999756,
      "v": 100
    },
    {
      "midi": 49,
      "hit": false,
      "t": 74079.88084999968,
      "d": 198.67549999999756,
      "v": 100
    },
    {
      "midi": 66,
      "hit": false,
      "t": 74079.88084999968,
      "d": 198.67549999999756,
      "v": 100
    },
    {
      "midi": 36,
      "hit": false,
      "t": 74278.55634999968,
      "d": 198.67549999999756,
      "v": 100
    },
    {
      "midi": 50,
      "hit": false,
      "t": 74278.55634999968,
      "d": 198.67549999999756,
      "v": 100
    },
    {
      "midi": 67,
      "hit": false,
      "t": 74278.55634999968,
      "d": 198.67549999999756,
      "v": 100
    },
    {
      "midi": 62,
      "hit": false,
      "t": 74278.55634999968,
      "d": 993.3774999999878,
      "v": 100
    },
    {
      "midi": 66,
      "hit": false,
      "t": 74278.55634999968,
      "d": 993.3774999999878,
      "v": 100
    },
    {
      "midi": 57,
      "hit": false,
      "t": 74278.55634999968,
      "d": 993.3774999999878,
      "v": 100
    },
    {
      "midi": 54,
      "hit": false,
      "t": 74477.23184999968,
      "d": 198.67549999999756,
      "v": 100
    },
    {
      "midi": 69,
      "hit": false,
      "t": 74477.23184999968,
      "d": 264.90066666666826,
      "v": 100
    },
    {
      "midi": 38,
      "hit": false,
      "t": 74477.23184999968,
      "d": 397.3509999999951,
      "v": 100
    },
    {
      "midi": 36,
      "hit": false,
      "t": 74675.90734999967,
      "d": 198.67549999999756,
      "v": 100
    },
    {
      "midi": 52,
      "hit": false,
      "t": 74675.90734999967,
      "d": 198.67549999999756,
      "v": 100
    },
    {
      "midi": 74,
      "hit": false,
      "t": 74675.90734999967,
      "d": 198.67549999999756,
      "v": 100
    },
    {
      "midi": 71,
      "hit": false,
      "t": 74742.13251666634,
      "d": 264.9006666666537,
      "v": 100
    },
    {
      "midi": 50,
      "hit": false,
      "t": 74874.58284999967,
      "d": 198.67549999999756,
      "v": 100
    },
    {
      "midi": 74,
      "hit": false,
      "t": 74874.58284999967,
      "d": 198.67549999999756,
      "v": 100
    },
    {
      "midi": 48,
      "hit": false,
      "t": 74874.58284999967,
      "d": 198.67549999999756,
      "v": 100
    },
    {
      "midi": 73,
      "hit": false,
      "t": 75007.033183333,
      "d": 264.90066666666826,
      "v": 100
    },
    {
      "midi": 48,
      "hit": false,
      "t": 75073.25834999967,
      "d": 198.67549999999756,
      "v": 100
    },
    {
      "midi": 74,
      "hit": false,
      "t": 75073.25834999967,
      "d": 198.67549999999756,
      "v": 100
    },
    {
      "midi": 47,
      "hit": false,
      "t": 75073.25834999967,
      "d": 198.67549999999756,
      "v": 100
    },
    {
      "midi": 49,
      "hit": false,
      "t": 75271.93384999967,
      "d": 198.67549999999756,
      "v": 100
    },
    {
      "midi": 62,
      "hit": false,
      "t": 75271.93384999967,
      "d": 198.67549999999756,
      "v": 100
    },
    {
      "midi": 55,
      "hit": false,
      "t": 75271.93384999967,
      "d": 198.67549999999756,
      "v": 70
    },
    {
      "midi": 36,
      "hit": false,
      "t": 75271.93384999967,
      "d": 397.3509999999951,
      "v": 100
    },
    {
      "midi": 40,
      "hit": false,
      "t": 75271.93384999967,
      "d": 397.3509999999951,
      "v": 100
    },
    {
      "midi": 74,
      "hit": false,
      "t": 75271.93384999967,
      "d": 794.7019999999902,
      "v": 100
    },
    {
      "midi": 42,
      "hit": false,
      "t": 75470.60934999966,
      "d": 198.67549999999756,
      "v": 100
    },
    {
      "midi": 62,
      "hit": false,
      "t": 75470.60934999966,
      "d": 198.67549999999756,
      "v": 100
    },
    {
      "midi": 59,
      "hit": false,
      "t": 75470.60934999966,
      "d": 198.67549999999756,
      "v": 70
    },
    {
      "midi": 42,
      "hit": false,
      "t": 75669.28484999966,
      "d": 198.67549999999756,
      "v": 100
    },
    {
      "midi": 40,
      "hit": false,
      "t": 75669.28484999966,
      "d": 198.67549999999756,
      "v": 100
    },
    {
      "midi": 38,
      "hit": false,
      "t": 75669.28484999966,
      "d": 198.67549999999756,
      "v": 100
    },
    {
      "midi": 62,
      "hit": false,
      "t": 75669.28484999966,
      "d": 198.67549999999756,
      "v": 100
    },
    {
      "midi": 59,
      "hit": false,
      "t": 75669.28484999966,
      "d": 397.3509999999951,
      "v": 100
    },
    {
      "midi": 55,
      "hit": false,
      "t": 75669.28484999966,
      "d": 397.3509999999951,
      "v": 100
    },
    {
      "midi": 42,
      "hit": false,
      "t": 75867.96034999966,
      "d": 198.67549999999756,
      "v": 100
    },
    {
      "midi": 66,
      "hit": false,
      "t": 75867.96034999966,
      "d": 198.67549999999756,
      "v": 70
    },
    {
      "midi": 47,
      "hit": false,
      "t": 75867.96034999966,
      "d": 397.3509999999951,
      "v": 100
    },
    {
      "midi": 42,
      "hit": false,
      "t": 76066.63584999966,
      "d": 198.67549999999756,
      "v": 100
    },
    {
      "midi": 62,
      "hit": false,
      "t": 76066.63584999966,
      "d": 198.67549999999756,
      "v": 100
    },
    {
      "midi": 36,
      "hit": false,
      "t": 76066.63584999966,
      "d": 397.3509999999951,
      "v": 100
    },
    {
      "midi": 42,
      "hit": false,
      "t": 76265.31134999965,
      "d": 198.67549999999756,
      "v": 100
    },
    {
      "midi": 47,
      "hit": false,
      "t": 76265.31134999965,
      "d": 198.67549999999756,
      "v": 100
    },
    {
      "midi": 74,
      "hit": false,
      "t": 76265.31134999965,
      "d": 397.3509999999951,
      "v": 100
    },
    {
      "midi": 59,
      "hit": false,
      "t": 76265.31134999965,
      "d": 596.0264999999927,
      "v": 100
    },
    {
      "midi": 66,
      "hit": false,
      "t": 76265.31134999965,
      "d": 596.0264999999927,
      "v": 100
    },
    {
      "midi": 62,
      "hit": false,
      "t": 76265.31134999965,
      "d": 596.0264999999927,
      "v": 100
    },
    {
      "midi": 55,
      "hit": false,
      "t": 76265.31134999965,
      "d": 596.0264999999927,
      "v": 100
    },
    {
      "midi": 42,
      "hit": false,
      "t": 76463.98684999965,
      "d": 198.67549999999756,
      "v": 100
    },
    {
      "midi": 38,
      "hit": false,
      "t": 76463.98684999965,
      "d": 198.67549999999756,
      "v": 100
    },
    {
      "midi": 52,
      "hit": false,
      "t": 76463.98684999965,
      "d": 397.3509999999951,
      "v": 100
    },
    {
      "midi": 42,
      "hit": false,
      "t": 76662.66234999965,
      "d": 198.67549999999756,
      "v": 100
    },
    {
      "midi": 73,
      "hit": false,
      "t": 76662.66234999965,
      "d": 198.67549999999756,
      "v": 100
    },
    {
      "midi": 42,
      "hit": false,
      "t": 76861.33784999965,
      "d": 198.67549999999756,
      "v": 100
    },
    {
      "midi": 62,
      "hit": false,
      "t": 76861.33784999965,
      "d": 198.67549999999756,
      "v": 100
    },
    {
      "midi": 57,
      "hit": false,
      "t": 76861.33784999965,
      "d": 198.67549999999756,
      "v": 70
    },
    {
      "midi": 45,
      "hit": false,
      "t": 76861.33784999965,
      "d": 198.67549999999756,
      "v": 100
    },
    {
      "midi": 36,
      "hit": false,
      "t": 76861.33784999965,
      "d": 397.3509999999951,
      "v": 100
    },
    {
      "midi": 73,
      "hit": false,
      "t": 76861.33784999965,
      "d": 794.7019999999902,
      "v": 100
    },
    {
      "midi": 42,
      "hit": false,
      "t": 77060.01334999964,
      "d": 198.67549999999756,
      "v": 100
    },
    {
      "midi": 62,
      "hit": false,
      "t": 77060.01334999964,
      "d": 198.67549999999756,
      "v": 100
    },
    {
      "midi": 61,
      "hit": false,
      "t": 77060.01334999964,
      "d": 198.67549999999756,
      "v": 70
    },
    {
      "midi": 42,
      "hit": false,
      "t": 77258.68884999964,
      "d": 198.67549999999756,
      "v": 100
    },
    {
      "midi": 64,
      "hit": false,
      "t": 77258.68884999964,
      "d": 198.67549999999756,
      "v": 100
    },
    {
      "midi": 38,
      "hit": false,
      "t": 77258.68884999964,
      "d": 198.67549999999756,
      "v": 100
    },
    {
      "midi": 45,
      "hit": false,
      "t": 77258.68884999964,
      "d": 198.67549999999756,
      "v": 100
    },
    {
      "midi": 61,
      "hit": false,
      "t": 77258.68884999964,
      "d": 397.3509999999951,
      "v": 100
    },
    {
      "midi": 57,
      "hit": false,
      "t": 77258.68884999964,
      "d": 397.3509999999951,
      "v": 100
    },
    {
      "midi": 42,
      "hit": false,
      "t": 77457.36434999964,
      "d": 198.67549999999756,
      "v": 100
    },
    {
      "midi": 69,
      "hit": false,
      "t": 77457.36434999964,
      "d": 198.67549999999756,
      "v": 70
    },
    {
      "midi": 49,
      "hit": false,
      "t": 77457.36434999964,
      "d": 198.67549999999756,
      "v": 100
    },
    {
      "midi": 42,
      "hit": false,
      "t": 77656.03984999964,
      "d": 198.67549999999756,
      "v": 100
    },
    {
      "midi": 62,
      "hit": false,
      "t": 77656.03984999964,
      "d": 198.67549999999756,
      "v": 100
    },
    {
      "midi": 54,
      "hit": false,
      "t": 77656.03984999964,
      "d": 198.67549999999756,
      "v": 100
    },
    {
      "midi": 36,
      "hit": false,
      "t": 77656.03984999964,
      "d": 397.3509999999951,
      "v": 100
    },
    {
      "midi": 42,
      "hit": false,
      "t": 77854.71534999963,
      "d": 198.67549999999756,
      "v": 100
    },
    {
      "midi": 52,
      "hit": false,
      "t": 77854.71534999963,
      "d": 198.67549999999756,
      "v": 100
    },
    {
      "midi": 69,
      "hit": false,
      "t": 77854.71534999963,
      "d": 596.0264999999927,
      "v": 100
    },
    {
      "midi": 61,
      "hit": false,
      "t": 77854.71534999963,
      "d": 596.0264999999927,
      "v": 100
    },
    {
      "midi": 64,
      "hit": false,
      "t": 77854.71534999963,
      "d": 596.0264999999927,
      "v": 100
    },
    {
      "midi": 57,
      "hit": false,
      "t": 77854.71534999963,
      "d": 596.0264999999927,
      "v": 100
    },
    {
      "midi": 38,
      "hit": false,
      "t": 78053.39084999963,
      "d": 198.67549999999756,
      "v": 100
    },
    {
      "midi": 50,
      "hit": false,
      "t": 78053.39084999963,
      "d": 198.67549999999756,
      "v": 100
    },
    {
      "midi": 73,
      "hit": false,
      "t": 78053.39084999963,
      "d": 397.3509999999951,
      "v": 100
    },
    {
      "midi": 38,
      "hit": false,
      "t": 78252.06634999963,
      "d": 198.67549999999756,
      "v": 100
    },
    {
      "midi": 45,
      "hit": false,
      "t": 78252.06634999963,
      "d": 198.67549999999756,
      "v": 100
    },
    {
      "midi": 42,
      "hit": false,
      "t": 78450.74184999963,
      "d": 198.67549999999756,
      "v": 100
    },
    {
      "midi": 62,
      "hit": false,
      "t": 78450.74184999963,
      "d": 198.67549999999756,
      "v": 100
    },
    {
      "midi": 57,
      "hit": false,
      "t": 78450.74184999963,
      "d": 198.67549999999756,
      "v": 70
    },
    {
      "midi": 76,
      "hit": false,
      "t": 78450.74184999963,
      "d": 298.0132500000036,
      "v": 100
    },
    {
      "midi": 36,
      "hit": false,
      "t": 78450.74184999963,
      "d": 397.35100000000966,
      "v": 100
    },
    {
      "midi": 42,
      "hit": false,
      "t": 78649.41734999963,
      "d": 198.6755000000121,
      "v": 100
    },
    {
      "midi": 62,
      "hit": false,
      "t": 78649.41734999963,
      "d": 198.6755000000121,
      "v": 100
    },
    {
      "midi": 61,
      "hit": false,
      "t": 78649.41734999963,
      "d": 198.6755000000121,
      "v": 70
    },
    {
      "midi": 76,
      "hit": false,
      "t": 78748.75509999963,
      "d": 298.0132500000036,
      "v": 100
    },
    {
      "midi": 42,
      "hit": false,
      "t": 78848.09284999964,
      "d": 198.67549999999756,
      "v": 100
    },
    {
      "midi": 64,
      "hit": false,
      "t": 78848.09284999964,
      "d": 198.67549999999756,
      "v": 100
    },
    {
      "midi": 38,
      "hit": false,
      "t": 78848.09284999964,
      "d": 198.67549999999756,
      "v": 100
    },
    {
      "midi": 61,
      "hit": false,
      "t": 78848.09284999964,
      "d": 397.3509999999951,
      "v": 100
    },
    {
      "midi": 57,
      "hit": false,
      "t": 78848.09284999964,
      "d": 397.3509999999951,
      "v": 100
    },
    {
      "midi": 42,
      "hit": false,
      "t": 79046.76834999963,
      "d": 198.67549999999756,
      "v": 100
    },
    {
      "midi": 69,
      "hit": false,
      "t": 79046.76834999963,
      "d": 198.67549999999756,
      "v": 70
    },
    {
      "midi": 76,
      "hit": false,
      "t": 79046.76834999963,
      "d": 198.67549999999756,
      "v": 100
    },
    {
      "midi": 49,
      "hit": false,
      "t": 79046.76834999963,
      "d": 397.3509999999951,
      "v": 100
    },
    {
      "midi": 42,
      "hit": false,
      "t": 79245.44384999963,
      "d": 198.67549999999756,
      "v": 100
    },
    {
      "midi": 62,
      "hit": false,
      "t": 79245.44384999963,
      "d": 198.67549999999756,
      "v": 100
    },
    {
      "midi": 76,
      "hit": false,
      "t": 79245.44384999963,
      "d": 198.67549999999756,
      "v": 100
    },
    {
      "midi": 36,
      "hit": false,
      "t": 79245.44384999963,
      "d": 397.3509999999951,
      "v": 100
    },
    {
      "midi": 42,
      "hit": false,
      "t": 79444.11934999963,
      "d": 198.67549999999756,
      "v": 100
    },
    {
      "midi": 47,
      "hit": false,
      "t": 79444.11934999963,
      "d": 198.67549999999756,
      "v": 100
    },
    {
      "midi": 74,
      "hit": false,
      "t": 79444.11934999963,
      "d": 397.3509999999951,
      "v": 100
    },
    {
      "midi": 61,
      "hit": false,
      "t": 79444.11934999963,
      "d": 596.0264999999927,
      "v": 100
    },
    {
      "midi": 64,
      "hit": false,
      "t": 79444.11934999963,
      "d": 596.0264999999927,
      "v": 100
    },
    {
      "midi": 57,
      "hit": false,
      "t": 79444.11934999963,
      "d": 596.0264999999927,
      "v": 100
    },
    {
      "midi": 69,
      "hit": false,
      "t": 79444.11934999963,
      "d": 596.0264999999927,
      "v": 100
    },
    {
      "midi": 42,
      "hit": false,
      "t": 79642.79484999963,
      "d": 198.67549999999756,
      "v": 100
    },
    {
      "midi": 45,
      "hit": false,
      "t": 79642.79484999963,
      "d": 198.67549999999756,
      "v": 100
    },
    {
      "midi": 38,
      "hit": false,
      "t": 79642.79484999963,
      "d": 198.67549999999756,
      "v": 100
    },
    {
      "midi": 42,
      "hit": false,
      "t": 79841.47034999962,
      "d": 198.67549999999756,
      "v": 100
    },
    {
      "midi": 73,
      "hit": false,
      "t": 79841.47034999962,
      "d": 198.67549999999756,
      "v": 100
    },
    {
      "midi": 42,
      "hit": false,
      "t": 80040.14584999962,
      "d": 198.67549999999756,
      "v": 100
    },
    {
      "midi": 55,
      "hit": false,
      "t": 80040.14584999962,
      "d": 198.67549999999756,
      "v": 100
    },
    {
      "midi": 67,
      "hit": false,
      "t": 80040.14584999962,
      "d": 198.67549999999756,
      "v": 70
    },
    {
      "midi": 62,
      "hit": false,
      "t": 80040.14584999962,
      "d": 198.67549999999756,
      "v": 70
    },
    {
      "midi": 47,
      "hit": false,
      "t": 80040.14584999962,
      "d": 198.67549999999756,
      "v": 100
    },
    {
      "midi": 36,
      "hit": false,
      "t": 80040.14584999962,
      "d": 397.3509999999951,
      "v": 100
    },
    {
      "midi": 74,
      "hit": false,
      "t": 80040.14584999962,
      "d": 794.7019999999902,
      "v": 100
    },
    {
      "midi": 42,
      "hit": false,
      "t": 80238.82134999962,
      "d": 198.67549999999756,
      "v": 100
    },
    {
      "midi": 55,
      "hit": false,
      "t": 80238.82134999962,
      "d": 198.67549999999756,
      "v": 100
    },
    {
      "midi": 45,
      "hit": false,
      "t": 80238.82134999962,
      "d": 198.67549999999756,
      "v": 100
    },
    {
      "midi": 69,
      "hit": false,
      "t": 80238.82134999962,
      "d": 397.3509999999951,
      "v": 70
    },
    {
      "midi": 42,
      "hit": false,
      "t": 80437.49684999962,
      "d": 198.67549999999756,
      "v": 100
    },
    {
      "midi": 38,
      "hit": false,
      "t": 80437.49684999962,
      "d": 198.67549999999756,
      "v": 100
    },
    {
      "midi": 47,
      "hit": false,
      "t": 80437.49684999962,
      "d": 198.67549999999756,
      "v": 100
    },
    {
      "midi": 62,
      "hit": false,
      "t": 80437.49684999962,
      "d": 198.67549999999756,
      "v": 100
    },
    {
      "midi": 57,
      "hit": false,
      "t": 80437.49684999962,
      "d": 397.3509999999951,
      "v": 100
    },
    {
      "midi": 42,
      "hit": false,
      "t": 80636.17234999962,
      "d": 198.67549999999756,
      "v": 100
    },
    {
      "midi": 66,
      "hit": false,
      "t": 80636.17234999962,
      "d": 198.67549999999756,
      "v": 70
    },
    {
      "midi": 50,
      "hit": false,
      "t": 80636.17234999962,
      "d": 198.67549999999756,
      "v": 100
    },
    {
      "midi": 62,
      "hit": false,
      "t": 80636.17234999962,
      "d": 198.67549999999756,
      "v": 70
    },
    {
      "midi": 42,
      "hit": false,
      "t": 80834.84784999961,
      "d": 198.67549999999756,
      "v": 100
    },
    {
      "midi": 55,
      "hit": false,
      "t": 80834.84784999961,
      "d": 198.67549999999756,
      "v": 100
    },
    {
      "midi": 52,
      "hit": false,
      "t": 80834.84784999961,
      "d": 198.67549999999756,
      "v": 100
    },
    {
      "midi": 36,
      "hit": false,
      "t": 80834.84784999961,
      "d": 397.3509999999951,
      "v": 100
    },
    {
      "midi": 42,
      "hit": false,
      "t": 81033.52334999961,
      "d": 198.67549999999756,
      "v": 100
    },
    {
      "midi": 74,
      "hit": false,
      "t": 81033.52334999961,
      "d": 198.67549999999756,
      "v": 100
    },
    {
      "midi": 50,
      "hit": false,
      "t": 81033.52334999961,
      "d": 198.67549999999756,
      "v": 100
    },
    {
      "midi": 57,
      "hit": false,
      "t": 81033.52334999961,
      "d": 596.0264999999927,
      "v": 100
    },
    {
      "midi": 62,
      "hit": false,
      "t": 81033.52334999961,
      "d": 596.0264999999927,
      "v": 100
    },
    {
      "midi": 66,
      "hit": false,
      "t": 81033.52334999961,
      "d": 596.0264999999927,
      "v": 100
    },
    {
      "midi": 38,
      "hit": false,
      "t": 81232.19884999961,
      "d": 198.67549999999756,
      "v": 100
    },
    {
      "midi": 74,
      "hit": false,
      "t": 81232.19884999961,
      "d": 198.67549999999756,
      "v": 100
    },
    {
      "midi": 47,
      "hit": false,
      "t": 81232.19884999961,
      "d": 198.67549999999756,
      "v": 100
    },
    {
      "midi": 38,
      "hit": false,
      "t": 81430.8743499996,
      "d": 198.67549999999756,
      "v": 100
    },
    {
      "midi": 45,
      "hit": false,
      "t": 81430.8743499996,
      "d": 198.67549999999756,
      "v": 100
    },
    {
      "midi": 74,
      "hit": false,
      "t": 81430.8743499996,
      "d": 198.67549999999756,
      "v": 100
    },
    {
      "midi": 42,
      "hit": false,
      "t": 81629.5498499996,
      "d": 198.67549999999756,
      "v": 100
    },
    {
      "midi": 62,
      "hit": false,
      "t": 81629.5498499996,
      "d": 198.67549999999756,
      "v": 100
    },
    {
      "midi": 55,
      "hit": false,
      "t": 81629.5498499996,
      "d": 198.67549999999756,
      "v": 72
    },
    {
      "midi": 36,
      "hit": false,
      "t": 81629.5498499996,
      "d": 397.3509999999951,
      "v": 100
    },
    {
      "midi": 40,
      "hit": false,
      "t": 81629.5498499996,
      "d": 397.3509999999951,
      "v": 100
    },
    {
      "midi": 74,
      "hit": false,
      "t": 81629.5498499996,
      "d": 794.7019999999902,
      "v": 100
    },
    {
      "midi": 42,
      "hit": false,
      "t": 81828.2253499996,
      "d": 198.67549999999756,
      "v": 100
    },
    {
      "midi": 62,
      "hit": false,
      "t": 81828.2253499996,
      "d": 198.67549999999756,
      "v": 100
    },
    {
      "midi": 59,
      "hit": false,
      "t": 81828.2253499996,
      "d": 198.67549999999756,
      "v": 72
    },
    {
      "midi": 42,
      "hit": false,
      "t": 82026.9008499996,
      "d": 198.67549999999756,
      "v": 100
    },
    {
      "midi": 40,
      "hit": false,
      "t": 82026.9008499996,
      "d": 198.67549999999756,
      "v": 100
    },
    {
      "midi": 38,
      "hit": false,
      "t": 82026.9008499996,
      "d": 198.67549999999756,
      "v": 100
    },
    {
      "midi": 62,
      "hit": false,
      "t": 82026.9008499996,
      "d": 198.67549999999756,
      "v": 100
    },
    {
      "midi": 55,
      "hit": false,
      "t": 82026.9008499996,
      "d": 397.3509999999951,
      "v": 100
    },
    {
      "midi": 59,
      "hit": false,
      "t": 82026.9008499996,
      "d": 397.3509999999951,
      "v": 100
    },
    {
      "midi": 42,
      "hit": false,
      "t": 82225.5763499996,
      "d": 198.67549999999756,
      "v": 100
    },
    {
      "midi": 66,
      "hit": false,
      "t": 82225.5763499996,
      "d": 198.67549999999756,
      "v": 72
    },
    {
      "midi": 64,
      "hit": false,
      "t": 82225.5763499996,
      "d": 198.67549999999756,
      "v": 100
    },
    {
      "midi": 47,
      "hit": false,
      "t": 82225.5763499996,
      "d": 397.3509999999951,
      "v": 100
    },
    {
      "midi": 42,
      "hit": false,
      "t": 82424.2518499996,
      "d": 198.67549999999756,
      "v": 100
    },
    {
      "midi": 62,
      "hit": false,
      "t": 82424.2518499996,
      "d": 198.67549999999756,
      "v": 100
    },
    {
      "midi": 36,
      "hit": false,
      "t": 82424.2518499996,
      "d": 397.3509999999951,
      "v": 100
    },
    {
      "midi": 42,
      "hit": false,
      "t": 82622.92734999959,
      "d": 198.67549999999756,
      "v": 100
    },
    {
      "midi": 47,
      "hit": false,
      "t": 82622.92734999959,
      "d": 198.67549999999756,
      "v": 100
    },
    {
      "midi": 57,
      "hit": false,
      "t": 82622.92734999959,
      "d": 198.67549999999756,
      "v": 100
    },
    {
      "midi": 74,
      "hit": false,
      "t": 82622.92734999959,
      "d": 397.3509999999951,
      "v": 100
    },
    {
      "midi": 66,
      "hit": false,
      "t": 82622.92734999959,
      "d": 596.0264999999927,
      "v": 100
    },
    {
      "midi": 62,
      "hit": false,
      "t": 82622.92734999959,
      "d": 596.0264999999927,
      "v": 100
    },
    {
      "midi": 55,
      "hit": false,
      "t": 82622.92734999959,
      "d": 596.0264999999927,
      "v": 100
    },
    {
      "midi": 59,
      "hit": false,
      "t": 82622.92734999959,
      "d": 596.0264999999927,
      "v": 100
    },
    {
      "midi": 42,
      "hit": false,
      "t": 82821.60284999959,
      "d": 198.67549999999756,
      "v": 100
    },
    {
      "midi": 38,
      "hit": false,
      "t": 82821.60284999959,
      "d": 198.67549999999756,
      "v": 100
    },
    {
      "midi": 54,
      "hit": false,
      "t": 82821.60284999959,
      "d": 198.67549999999756,
      "v": 100
    },
    {
      "midi": 40,
      "hit": false,
      "t": 82821.60284999959,
      "d": 397.3509999999951,
      "v": 100
    },
    {
      "midi": 42,
      "hit": false,
      "t": 83020.27834999959,
      "d": 198.67549999999756,
      "v": 100
    },
    {
      "midi": 73,
      "hit": false,
      "t": 83020.27834999959,
      "d": 198.67549999999756,
      "v": 100
    },
    {
      "midi": 57,
      "hit": false,
      "t": 83020.27834999959,
      "d": 198.67549999999756,
      "v": 100
    },
    {
      "midi": 42,
      "hit": false,
      "t": 83218.95384999958,
      "d": 198.67549999999756,
      "v": 100
    },
    {
      "midi": 62,
      "hit": false,
      "t": 83218.95384999958,
      "d": 198.67549999999756,
      "v": 100
    },
    {
      "midi": 57,
      "hit": false,
      "t": 83218.95384999958,
      "d": 198.67549999999756,
      "v": 72
    },
    {
      "midi": 45,
      "hit": false,
      "t": 83218.95384999958,
      "d": 198.67549999999756,
      "v": 100
    },
    {
      "midi": 36,
      "hit": false,
      "t": 83218.95384999958,
      "d": 397.3509999999951,
      "v": 100
    },
    {
      "midi": 73,
      "hit": false,
      "t": 83218.95384999958,
      "d": 794.7019999999902,
      "v": 100
    },
    {
      "midi": 42,
      "hit": false,
      "t": 83417.62934999958,
      "d": 198.67549999999756,
      "v": 100
    },
    {
      "midi": 62,
      "hit": false,
      "t": 83417.62934999958,
      "d": 198.67549999999756,
      "v": 100
    },
    {
      "midi": 64,
      "hit": false,
      "t": 83417.62934999958,
      "d": 198.67549999999756,
      "v": 100
    },
    {
      "midi": 61,
      "hit": false,
      "t": 83417.62934999958,
      "d": 198.67549999999756,
      "v": 72
    },
    {
      "midi": 42,
      "hit": false,
      "t": 83616.30484999958,
      "d": 198.67549999999756,
      "v": 100
    },
    {
      "midi": 62,
      "hit": false,
      "t": 83616.30484999958,
      "d": 198.67549999999756,
      "v": 100
    },
    {
      "midi": 38,
      "hit": false,
      "t": 83616.30484999958,
      "d": 198.67549999999756,
      "v": 100
    },
    {
      "midi": 64,
      "hit": false,
      "t": 83616.30484999958,
      "d": 198.67549999999756,
      "v": 100
    },
    {
      "midi": 47,
      "hit": false,
      "t": 83616.30484999958,
      "d": 198.67549999999756,
      "v": 100
    },
    {
      "midi": 61,
      "hit": false,
      "t": 83616.30484999958,
      "d": 397.3509999999951,
      "v": 100
    },
    {
      "midi": 42,
      "hit": false,
      "t": 83814.98034999958,
      "d": 198.67549999999756,
      "v": 100
    },
    {
      "midi": 57,
      "hit": false,
      "t": 83814.98034999958,
      "d": 198.67549999999756,
      "v": 100
    },
    {
      "midi": 69,
      "hit": false,
      "t": 83814.98034999958,
      "d": 198.67549999999756,
      "v": 72
    },
    {
      "midi": 49,
      "hit": false,
      "t": 83814.98034999958,
      "d": 397.3509999999951,
      "v": 100
    },
    {
      "midi": 42,
      "hit": false,
      "t": 84013.65584999957,
      "d": 198.67549999999756,
      "v": 100
    },
    {
      "midi": 62,
      "hit": false,
      "t": 84013.65584999957,
      "d": 198.67549999999756,
      "v": 100
    },
    {
      "midi": 55,
      "hit": false,
      "t": 84013.65584999957,
      "d": 198.67549999999756,
      "v": 100
    },
    {
      "midi": 36,
      "hit": false,
      "t": 84013.65584999957,
      "d": 298.0132500000036,
      "v": 100
    },
    {
      "midi": 47,
      "hit": false,
      "t": 84212.33134999957,
      "d": 198.6755000000121,
      "v": 100
    },
    {
      "midi": 57,
      "hit": false,
      "t": 84212.33134999957,
      "d": 198.6755000000121,
      "v": 100
    },
    {
      "midi": 42,
      "hit": false,
      "t": 84212.33134999957,
      "d": 198.6755000000121,
      "v": 100
    },
    {
      "midi": 71,
      "hit": false,
      "t": 84212.33134999957,
      "d": 397.35100000000966,
      "v": 100
    },
    {
      "midi": 64,
      "hit": false,
      "t": 84212.33134999957,
      "d": 596.0265000000072,
      "v": 100
    },
    {
      "midi": 61,
      "hit": false,
      "t": 84212.33134999957,
      "d": 596.0265000000072,
      "v": 100
    },
    {
      "midi": 36,
      "hit": false,
      "t": 84311.66909999958,
      "d": 99.33775000000605,
      "v": 100
    },
    {
      "midi": 42,
      "hit": false,
      "t": 84411.00684999958,
      "d": 198.67549999999756,
      "v": 100
    },
    {
      "midi": 45,
      "hit": false,
      "t": 84411.00684999958,
      "d": 198.67549999999756,
      "v": 100
    },
    {
      "midi": 38,
      "hit": false,
      "t": 84411.00684999958,
      "d": 198.67549999999756,
      "v": 100
    },
    {
      "midi": 42,
      "hit": false,
      "t": 84609.68234999958,
      "d": 198.67549999999756,
      "v": 100
    },
    {
      "midi": 69,
      "hit": false,
      "t": 84609.68234999958,
      "d": 198.67549999999756,
      "v": 100
    },
    {
      "midi": 36,
      "hit": false,
      "t": 84609.68234999958,
      "d": 198.67549999999756,
      "v": 100
    },
    {
      "midi": 57,
      "hit": false,
      "t": 84808.35784999958,
      "d": 198.67549999999756,
      "v": 100
    },
    {
      "midi": 55,
      "hit": false,
      "t": 84808.35784999958,
      "d": 198.67549999999756,
      "v": 100
    },
    {
      "midi": 71,
      "hit": false,
      "t": 84808.35784999958,
      "d": 198.67549999999756,
      "v": 100
    },
    {
      "midi": 36,
      "hit": false,
      "t": 84808.35784999958,
      "d": 397.3509999999951,
      "v": 100
    },
    {
      "midi": 47,
      "hit": false,
      "t": 84808.35784999958,
      "d": 397.3509999999951,
      "v": 100
    },
    {
      "midi": 74,
      "hit": false,
      "t": 84808.35784999958,
      "d": 596.0264999999927,
      "v": 100
    },
    {
      "midi": 79,
      "hit": false,
      "t": 84808.35784999958,
      "d": 596.0264999999927,
      "v": 100
    },
    {
      "midi": 42,
      "hit": false,
      "t": 85007.03334999958,
      "d": 198.67549999999756,
      "v": 100
    },
    {
      "midi": 55,
      "hit": false,
      "t": 85007.03334999958,
      "d": 198.67549999999756,
      "v": 100
    },
    {
      "midi": 69,
      "hit": false,
      "t": 85007.03334999958,
      "d": 397.3509999999951,
      "v": 100
    },
    {
      "midi": 38,
      "hit": false,
      "t": 85205.70884999957,
      "d": 198.67549999999756,
      "v": 100
    },
    {
      "midi": 45,
      "hit": false,
      "t": 85205.70884999957,
      "d": 198.67549999999756,
      "v": 100
    },
    {
      "midi": 62,
      "hit": false,
      "t": 85205.70884999957,
      "d": 198.67549999999756,
      "v": 100
    },
    {
      "midi": 67,
      "hit": false,
      "t": 85205.70884999957,
      "d": 198.67549999999756,
      "v": 100
    },
    {
      "midi": 50,
      "hit": false,
      "t": 85205.70884999957,
      "d": 397.3509999999951,
      "v": 100
    },
    {
      "midi": 57,
      "hit": false,
      "t": 85404.38434999957,
      "d": 198.67549999999756,
      "v": 100
    },
    {
      "midi": 36,
      "hit": false,
      "t": 85404.38434999957,
      "d": 198.67549999999756,
      "v": 100
    },
    {
      "midi": 62,
      "hit": false,
      "t": 85404.38434999957,
      "d": 198.67549999999756,
      "v": 90
    },
    {
      "midi": 47,
      "hit": false,
      "t": 85404.38434999957,
      "d": 397.3509999999951,
      "v": 100
    },
    {
      "midi": 74,
      "hit": false,
      "t": 85404.38434999957,
      "d": 993.3774999999878,
      "v": 100
    },
    {
      "midi": 78,
      "hit": false,
      "t": 85404.38434999957,
      "d": 993.3774999999878,
      "v": 100
    },
    {
      "midi": 69,
      "hit": false,
      "t": 85404.38434999957,
      "d": 993.3774999999878,
      "v": 100
    },
    {
      "midi": 42,
      "hit": false,
      "t": 85603.05984999957,
      "d": 198.67549999999756,
      "v": 100
    },
    {
      "midi": 55,
      "hit": false,
      "t": 85603.05984999957,
      "d": 198.67549999999756,
      "v": 100
    },
    {
      "midi": 42,
      "hit": false,
      "t": 85801.73534999957,
      "d": 198.67549999999756,
      "v": 100
    },
    {
      "midi": 43,
      "hit": false,
      "t": 85801.73534999957,
      "d": 198.67549999999756,
      "v": 100
    },
    {
      "midi": 36,
      "hit": false,
      "t": 85801.73534999957,
      "d": 198.67549999999756,
      "v": 100
    },
    {
      "midi": 57,
      "hit": false,
      "t": 85801.73534999957,
      "d": 198.67549999999756,
      "v": 100
    },
    {
      "midi": 42,
      "hit": false,
      "t": 86000.41084999956,
      "d": 198.67549999999756,
      "v": 100
    },
    {
      "midi": 38,
      "hit": false,
      "t": 86000.41084999956,
      "d": 198.67549999999756,
      "v": 100
    },
    {
      "midi": 47,
      "hit": false,
      "t": 86000.41084999956,
      "d": 198.67549999999756,
      "v": 100
    },
    {
      "midi": 62,
      "hit": false,
      "t": 86000.41084999956,
      "d": 198.67549999999756,
      "v": 100
    },
    {
      "midi": 42,
      "hit": false,
      "t": 86199.08634999956,
      "d": 198.67549999999756,
      "v": 100
    },
    {
      "midi": 66,
      "hit": false,
      "t": 86199.08634999956,
      "d": 198.67549999999756,
      "v": 100
    },
    {
      "midi": 50,
      "hit": false,
      "t": 86199.08634999956,
      "d": 198.67549999999756,
      "v": 100
    },
    {
      "midi": 42,
      "hit": false,
      "t": 86397.76184999956,
      "d": 198.67549999999756,
      "v": 100
    },
    {
      "midi": 64,
      "hit": false,
      "t": 86397.76184999956,
      "d": 198.67549999999756,
      "v": 100
    },
    {
      "midi": 67,
      "hit": false,
      "t": 86397.76184999956,
      "d": 198.67549999999756,
      "v": 100
    },
    {
      "midi": 50,
      "hit": false,
      "t": 86397.76184999956,
      "d": 198.67549999999756,
      "v": 100
    },
    {
      "midi": 52,
      "hit": false,
      "t": 86397.76184999956,
      "d": 198.67549999999756,
      "v": 100
    },
    {
      "midi": 57,
      "hit": false,
      "t": 86397.76184999956,
      "d": 198.67549999999756,
      "v": 100
    },
    {
      "midi": 62,
      "hit": false,
      "t": 86397.76184999956,
      "d": 198.67549999999756,
      "v": 100
    },
    {
      "midi": 36,
      "hit": false,
      "t": 86397.76184999956,
      "d": 397.3509999999951,
      "v": 100
    },
    {
      "midi": 69,
      "hit": false,
      "t": 86397.76184999956,
      "d": 596.0264999999927,
      "v": 100
    },
    {
      "midi": 76,
      "hit": false,
      "t": 86397.76184999956,
      "d": 596.0264999999927,
      "v": 100
    },
    {
      "midi": 74,
      "hit": false,
      "t": 86397.76184999956,
      "d": 596.0264999999927,
      "v": 100
    },
    {
      "midi": 42,
      "hit": false,
      "t": 86596.43734999956,
      "d": 198.67549999999756,
      "v": 100
    },
    {
      "midi": 62,
      "hit": false,
      "t": 86596.43734999956,
      "d": 198.67549999999756,
      "v": 100
    },
    {
      "midi": 66,
      "hit": false,
      "t": 86596.43734999956,
      "d": 198.67549999999756,
      "v": 100
    },
    {
      "midi": 50,
      "hit": false,
      "t": 86596.43734999956,
      "d": 198.67549999999756,
      "v": 100
    },
    {
      "midi": 64,
      "hit": false,
      "t": 86596.43734999956,
      "d": 198.67549999999756,
      "v": 100
    },
    {
      "midi": 57,
      "hit": false,
      "t": 86596.43734999956,
      "d": 198.67549999999756,
      "v": 100
    },
    {
      "midi": 38,
      "hit": false,
      "t": 86795.11284999955,
      "d": 198.67549999999756,
      "v": 100
    },
    {
      "midi": 64,
      "hit": false,
      "t": 86795.11284999955,
      "d": 198.67549999999756,
      "v": 100
    },
    {
      "midi": 62,
      "hit": false,
      "t": 86795.11284999955,
      "d": 198.67549999999756,
      "v": 100
    },
    {
      "midi": 47,
      "hit": false,
      "t": 86795.11284999955,
      "d": 198.67549999999756,
      "v": 100
    },
    {
      "midi": 50,
      "hit": false,
      "t": 86795.11284999955,
      "d": 198.67549999999756,
      "v": 100
    },
    {
      "midi": 57,
      "hit": false,
      "t": 86795.11284999955,
      "d": 198.67549999999756,
      "v": 100
    },
    {
      "midi": 57,
      "hit": false,
      "t": 86993.78834999955,
      "d": 198.67549999999756,
      "v": 100
    },
    {
      "midi": 36,
      "hit": false,
      "t": 86993.78834999955,
      "d": 198.67549999999756,
      "v": 100
    },
    {
      "midi": 54,
      "hit": false,
      "t": 86993.78834999955,
      "d": 397.3509999999951,
      "v": 100
    },
    {
      "midi": 62,
      "hit": false,
      "t": 86993.78834999955,
      "d": 397.3509999999951,
      "v": 100
    },
    {
      "midi": 66,
      "hit": false,
      "t": 86993.78834999955,
      "d": 397.3509999999951,
      "v": 100
    },
    {
      "midi": 50,
      "hit": false,
      "t": 86993.78834999955,
      "d": 397.3509999999951,
      "v": 100
    },
    {
      "midi": 69,
      "hit": false,
      "t": 86993.78834999955,
      "d": 993.3774999999878,
      "v": 100
    },
    {
      "midi": 78,
      "hit": false,
      "t": 86993.78834999955,
      "d": 993.3774999999878,
      "v": 100
    },
    {
      "midi": 42,
      "hit": false,
      "t": 87192.46384999955,
      "d": 198.67549999999756,
      "v": 100
    },
    {
      "midi": 42,
      "hit": false,
      "t": 87391.13934999955,
      "d": 198.67549999999756,
      "v": 100
    },
    {
      "midi": 62,
      "hit": false,
      "t": 87391.13934999955,
      "d": 198.67549999999756,
      "v": 100
    },
    {
      "midi": 74,
      "hit": false,
      "t": 87391.13934999955,
      "d": 198.67549999999756,
      "v": 100
    },
    {
      "midi": 66,
      "hit": false,
      "t": 87391.13934999955,
      "d": 198.67549999999756,
      "v": 100
    },
    {
      "midi": 52,
      "hit": false,
      "t": 87391.13934999955,
      "d": 198.67549999999756,
      "v": 100
    },
    {
      "midi": 36,
      "hit": false,
      "t": 87391.13934999955,
      "d": 198.67549999999756,
      "v": 100
    },
    {
      "midi": 57,
      "hit": false,
      "t": 87391.13934999955,
      "d": 198.67549999999756,
      "v": 100
    },
    {
      "midi": 50,
      "hit": false,
      "t": 87391.13934999955,
      "d": 198.67549999999756,
      "v": 100
    },
    {
      "midi": 48,
      "hit": false,
      "t": 87589.81484999954,
      "d": 198.67549999999756,
      "v": 100
    },
    {
      "midi": 74,
      "hit": false,
      "t": 87589.81484999954,
      "d": 198.67549999999756,
      "v": 100
    },
    {
      "midi": 50,
      "hit": false,
      "t": 87589.81484999954,
      "d": 198.67549999999756,
      "v": 100
    },
    {
      "midi": 62,
      "hit": false,
      "t": 87589.81484999954,
      "d": 397.3509999999951,
      "v": 100
    },
    {
      "midi": 57,
      "hit": false,
      "t": 87589.81484999954,
      "d": 397.3509999999951,
      "v": 100
    },
    {
      "midi": 66,
      "hit": false,
      "t": 87589.81484999954,
      "d": 397.3509999999951,
      "v": 100
    },
    {
      "midi": 48,
      "hit": false,
      "t": 87788.49034999954,
      "d": 198.67549999999756,
      "v": 100
    },
    {
      "midi": 74,
      "hit": false,
      "t": 87788.49034999954,
      "d": 198.67549999999756,
      "v": 100
    },
    {
      "midi": 47,
      "hit": false,
      "t": 87788.49034999954,
      "d": 198.67549999999756,
      "v": 100
    },
    {
      "midi": 57,
      "hit": false,
      "t": 87987.16584999954,
      "d": 198.67549999999756,
      "v": 100
    },
    {
      "midi": 62,
      "hit": false,
      "t": 87987.16584999954,
      "d": 198.67549999999756,
      "v": 100
    },
    {
      "midi": 55,
      "hit": false,
      "t": 87987.16584999954,
      "d": 198.67549999999756,
      "v": 73
    },
    {
      "midi": 36,
      "hit": false,
      "t": 87987.16584999954,
      "d": 397.3509999999951,
      "v": 100
    },
    {
      "midi": 40,
      "hit": false,
      "t": 87987.16584999954,
      "d": 397.3509999999951,
      "v": 100
    },
    {
      "midi": 74,
      "hit": false,
      "t": 87987.16584999954,
      "d": 794.7019999999902,
      "v": 100
    },
    {
      "midi": 42,
      "hit": false,
      "t": 88185.84134999954,
      "d": 198.67549999999756,
      "v": 100
    },
    {
      "midi": 62,
      "hit": false,
      "t": 88185.84134999954,
      "d": 198.67549999999756,
      "v": 100
    },
    {
      "midi": 59,
      "hit": false,
      "t": 88185.84134999954,
      "d": 198.67549999999756,
      "v": 74
    },
    {
      "midi": 42,
      "hit": false,
      "t": 88384.51684999953,
      "d": 198.67549999999756,
      "v": 100
    },
    {
      "midi": 40,
      "hit": false,
      "t": 88384.51684999953,
      "d": 198.67549999999756,
      "v": 100
    },
    {
      "midi": 38,
      "hit": false,
      "t": 88384.51684999953,
      "d": 198.67549999999756,
      "v": 100
    },
    {
      "midi": 62,
      "hit": false,
      "t": 88384.51684999953,
      "d": 198.67549999999756,
      "v": 100
    },
    {
      "midi": 55,
      "hit": false,
      "t": 88384.51684999953,
      "d": 397.3509999999951,
      "v": 100
    },
    {
      "midi": 59,
      "hit": false,
      "t": 88384.51684999953,
      "d": 397.3509999999951,
      "v": 100
    },
    {
      "midi": 42,
      "hit": false,
      "t": 88583.19234999953,
      "d": 198.67549999999756,
      "v": 100
    },
    {
      "midi": 66,
      "hit": false,
      "t": 88583.19234999953,
      "d": 198.67549999999756,
      "v": 74
    },
    {
      "midi": 47,
      "hit": false,
      "t": 88583.19234999953,
      "d": 397.3509999999951,
      "v": 100
    },
    {
      "midi": 42,
      "hit": false,
      "t": 88781.86784999953,
      "d": 198.67549999999756,
      "v": 100
    },
    {
      "midi": 62,
      "hit": false,
      "t": 88781.86784999953,
      "d": 198.67549999999756,
      "v": 100
    },
    {
      "midi": 36,
      "hit": false,
      "t": 88781.86784999953,
      "d": 397.3509999999951,
      "v": 100
    },
    {
      "midi": 42,
      "hit": false,
      "t": 88980.54334999953,
      "d": 198.67549999999756,
      "v": 100
    },
    {
      "midi": 47,
      "hit": false,
      "t": 88980.54334999953,
      "d": 198.67549999999756,
      "v": 100
    },
    {
      "midi": 74,
      "hit": false,
      "t": 88980.54334999953,
      "d": 397.3509999999951,
      "v": 100
    },
    {
      "midi": 59,
      "hit": false,
      "t": 88980.54334999953,
      "d": 596.0264999999927,
      "v": 100
    },
    {
      "midi": 55,
      "hit": false,
      "t": 88980.54334999953,
      "d": 596.0264999999927,
      "v": 100
    },
    {
      "midi": 62,
      "hit": false,
      "t": 88980.54334999953,
      "d": 596.0264999999927,
      "v": 100
    },
    {
      "midi": 66,
      "hit": false,
      "t": 88980.54334999953,
      "d": 596.0264999999927,
      "v": 100
    },
    {
      "midi": 42,
      "hit": false,
      "t": 89179.21884999952,
      "d": 198.67549999999756,
      "v": 100
    },
    {
      "midi": 38,
      "hit": false,
      "t": 89179.21884999952,
      "d": 198.67549999999756,
      "v": 100
    },
    {
      "midi": 40,
      "hit": false,
      "t": 89179.21884999952,
      "d": 397.3509999999951,
      "v": 100
    },
    {
      "midi": 42,
      "hit": false,
      "t": 89377.89434999952,
      "d": 198.67549999999756,
      "v": 100
    },
    {
      "midi": 73,
      "hit": false,
      "t": 89377.89434999952,
      "d": 198.67549999999756,
      "v": 100
    },
    {
      "midi": 42,
      "hit": false,
      "t": 89576.56984999952,
      "d": 198.67549999999756,
      "v": 100
    },
    {
      "midi": 62,
      "hit": false,
      "t": 89576.56984999952,
      "d": 198.67549999999756,
      "v": 100
    },
    {
      "midi": 57,
      "hit": false,
      "t": 89576.56984999952,
      "d": 198.67549999999756,
      "v": 74
    },
    {
      "midi": 36,
      "hit": false,
      "t": 89576.56984999952,
      "d": 397.3509999999951,
      "v": 100
    },
    {
      "midi": 66,
      "hit": false,
      "t": 89576.56984999952,
      "d": 596.0264999999927,
      "v": 100
    },
    {
      "midi": 73,
      "hit": false,
      "t": 89576.56984999952,
      "d": 794.7019999999902,
      "v": 100
    },
    {
      "midi": 42,
      "hit": false,
      "t": 89775.24534999952,
      "d": 198.67549999999756,
      "v": 100
    },
    {
      "midi": 62,
      "hit": false,
      "t": 89775.24534999952,
      "d": 198.67549999999756,
      "v": 100
    },
    {
      "midi": 45,
      "hit": false,
      "t": 89775.24534999952,
      "d": 198.67549999999756,
      "v": 100
    },
    {
      "midi": 61,
      "hit": false,
      "t": 89775.24534999952,
      "d": 198.67549999999756,
      "v": 74
    },
    {
      "midi": 38,
      "hit": false,
      "t": 89973.92084999951,
      "d": 198.67549999999756,
      "v": 100
    },
    {
      "midi": 47,
      "hit": false,
      "t": 89973.92084999951,
      "d": 198.67549999999756,
      "v": 100
    },
    {
      "midi": 42,
      "hit": false,
      "t": 89973.92084999951,
      "d": 198.67549999999756,
      "v": 100
    },
    {
      "midi": 64,
      "hit": false,
      "t": 89973.92084999951,
      "d": 198.67549999999756,
      "v": 100
    },
    {
      "midi": 57,
      "hit": false,
      "t": 89973.92084999951,
      "d": 397.3509999999951,
      "v": 100
    },
    {
      "midi": 61,
      "hit": false,
      "t": 89973.92084999951,
      "d": 397.3509999999951,
      "v": 100
    },
    {
      "midi": 42,
      "hit": false,
      "t": 90172.59634999951,
      "d": 198.67549999999756,
      "v": 100
    },
    {
      "midi": 69,
      "hit": false,
      "t": 90172.59634999951,
      "d": 198.67549999999756,
      "v": 74
    },
    {
      "midi": 64,
      "hit": false,
      "t": 90172.59634999951,
      "d": 198.67549999999756,
      "v": 100
    },
    {
      "midi": 45,
      "hit": false,
      "t": 90172.59634999951,
      "d": 198.67549999999756,
      "v": 100
    },
    {
      "midi": 42,
      "hit": false,
      "t": 90371.27184999951,
      "d": 198.67549999999756,
      "v": 100
    },
    {
      "midi": 62,
      "hit": false,
      "t": 90371.27184999951,
      "d": 198.67549999999756,
      "v": 100
    },
    {
      "midi": 49,
      "hit": false,
      "t": 90371.27184999951,
      "d": 198.67549999999756,
      "v": 100
    },
    {
      "midi": 36,
      "hit": false,
      "t": 90371.27184999951,
      "d": 397.3509999999951,
      "v": 100
    },
    {
      "midi": 42,
      "hit": false,
      "t": 90569.94734999951,
      "d": 198.67549999999756,
      "v": 100
    },
    {
      "midi": 47,
      "hit": false,
      "t": 90569.94734999951,
      "d": 198.67549999999756,
      "v": 100
    },
    {
      "midi": 64,
      "hit": false,
      "t": 90569.94734999951,
      "d": 198.67549999999756,
      "v": 100
    },
    {
      "midi": 57,
      "hit": false,
      "t": 90569.94734999951,
      "d": 596.0264999999927,
      "v": 100
    },
    {
      "midi": 69,
      "hit": false,
      "t": 90569.94734999951,
      "d": 596.0264999999927,
      "v": 100
    },
    {
      "midi": 38,
      "hit": false,
      "t": 90768.6228499995,
      "d": 198.67549999999756,
      "v": 100
    },
    {
      "midi": 42,
      "hit": false,
      "t": 90768.6228499995,
      "d": 198.67549999999756,
      "v": 100
    },
    {
      "midi": 45,
      "hit": false,
      "t": 90768.6228499995,
      "d": 198.67549999999756,
      "v": 100
    },
    {
      "midi": 73,
      "hit": false,
      "t": 90768.6228499995,
      "d": 397.3509999999951,
      "v": 100
    },
    {
      "midi": 61,
      "hit": false,
      "t": 90768.6228499995,
      "d": 397.3509999999951,
      "v": 100
    },
    {
      "midi": 42,
      "hit": false,
      "t": 90967.2983499995,
      "d": 198.67549999999756,
      "v": 100
    },
    {
      "midi": 42,
      "hit": false,
      "t": 91165.9738499995,
      "d": 198.67549999999756,
      "v": 100
    },
    {
      "midi": 62,
      "hit": false,
      "t": 91165.9738499995,
      "d": 198.67549999999756,
      "v": 100
    },
    {
      "midi": 58,
      "hit": false,
      "t": 91165.9738499995,
      "d": 198.67549999999756,
      "v": 77
    },
    {
      "midi": 36,
      "hit": false,
      "t": 91165.9738499995,
      "d": 397.3509999999951,
      "v": 100
    },
    {
      "midi": 76,
      "hit": false,
      "t": 91165.9738499995,
      "d": 960.2649166666524,
      "v": 100
    },
    {
      "midi": 42,
      "hit": false,
      "t": 91364.6493499995,
      "d": 198.67549999999756,
      "v": 100
    },
    {
      "midi": 62,
      "hit": false,
      "t": 91364.6493499995,
      "d": 198.67549999999756,
      "v": 100
    },
    {
      "midi": 61,
      "hit": false,
      "t": 91364.6493499995,
      "d": 198.67549999999756,
      "v": 78
    },
    {
      "midi": 38,
      "hit": false,
      "t": 91563.3248499995,
      "d": 198.67549999999756,
      "v": 100
    },
    {
      "midi": 42,
      "hit": false,
      "t": 91563.3248499995,
      "d": 198.67549999999756,
      "v": 100
    },
    {
      "midi": 66,
      "hit": false,
      "t": 91563.3248499995,
      "d": 198.67549999999756,
      "v": 100
    },
    {
      "midi": 58,
      "hit": false,
      "t": 91563.3248499995,
      "d": 397.3509999999951,
      "v": 100
    },
    {
      "midi": 61,
      "hit": false,
      "t": 91563.3248499995,
      "d": 397.3509999999951,
      "v": 100
    },
    {
      "midi": 42,
      "hit": false,
      "t": 91762.0003499995,
      "d": 198.67549999999756,
      "v": 100
    },
    {
      "midi": 70,
      "hit": false,
      "t": 91762.0003499995,
      "d": 198.67549999999756,
      "v": 79
    },
    {
      "midi": 49,
      "hit": false,
      "t": 91762.0003499995,
      "d": 397.3509999999951,
      "v": 100
    },
    {
      "midi": 42,
      "hit": false,
      "t": 91960.67584999949,
      "d": 198.67549999999756,
      "v": 100
    },
    {
      "midi": 62,
      "hit": false,
      "t": 91960.67584999949,
      "d": 198.67549999999756,
      "v": 100
    },
    {
      "midi": 36,
      "hit": false,
      "t": 91960.67584999949,
      "d": 397.3509999999951,
      "v": 100
    },
    {
      "midi": 42,
      "hit": false,
      "t": 92159.35134999949,
      "d": 198.67549999999756,
      "v": 100
    },
    {
      "midi": 70,
      "hit": false,
      "t": 92159.35134999949,
      "d": 198.67549999999756,
      "v": 100
    },
    {
      "midi": 47,
      "hit": false,
      "t": 92159.35134999949,
      "d": 198.67549999999756,
      "v": 100
    },
    {
      "midi": 74,
      "hit": false,
      "t": 92159.35134999949,
      "d": 397.3509999999951,
      "v": 100
    },
    {
      "midi": 61,
      "hit": false,
      "t": 92159.35134999949,
      "d": 596.0264999999927,
      "v": 100
    },
    {
      "midi": 58,
      "hit": false,
      "t": 92159.35134999949,
      "d": 596.0264999999927,
      "v": 100
    },
    {
      "midi": 66,
      "hit": false,
      "t": 92159.35134999949,
      "d": 596.0264999999927,
      "v": 100
    },
    {
      "midi": 38,
      "hit": false,
      "t": 92358.02684999949,
      "d": 198.67549999999756,
      "v": 100
    },
    {
      "midi": 42,
      "hit": false,
      "t": 92358.02684999949,
      "d": 198.67549999999756,
      "v": 100
    },
    {
      "midi": 45,
      "hit": false,
      "t": 92358.02684999949,
      "d": 198.67549999999756,
      "v": 100
    },
    {
      "midi": 42,
      "hit": false,
      "t": 92556.70234999948,
      "d": 198.67549999999756,
      "v": 100
    },
    {
      "midi": 73,
      "hit": false,
      "t": 92556.70234999948,
      "d": 198.67549999999756,
      "v": 100
    },
    {
      "midi": 42,
      "hit": false,
      "t": 92755.37784999948,
      "d": 198.67549999999756,
      "v": 100
    },
    {
      "midi": 62,
      "hit": false,
      "t": 92755.37784999948,
      "d": 198.67549999999756,
      "v": 100
    },
    {
      "midi": 43,
      "hit": false,
      "t": 92755.37784999948,
      "d": 198.67549999999756,
      "v": 100
    },
    {
      "midi": 73,
      "hit": false,
      "t": 92755.37784999948,
      "d": 397.3509999999951,
      "v": 84
    },
    {
      "midi": 66,
      "hit": false,
      "t": 92755.37784999948,
      "d": 397.3509999999951,
      "v": 84
    },
    {
      "midi": 36,
      "hit": false,
      "t": 92755.37784999948,
      "d": 397.3509999999951,
      "v": 100
    },
    {
      "midi": 64,
      "hit": false,
      "t": 92755.37784999948,
      "d": 596.0264999999927,
      "v": 100
    },
    {
      "midi": 74,
      "hit": false,
      "t": 92755.37784999948,
      "d": 794.7019999999902,
      "v": 100
    },
    {
      "midi": 42,
      "hit": false,
      "t": 92954.05334999948,
      "d": 198.67549999999756,
      "v": 100
    },
    {
      "midi": 62,
      "hit": false,
      "t": 92954.05334999948,
      "d": 198.67549999999756,
      "v": 100
    },
    {
      "midi": 43,
      "hit": false,
      "t": 92954.05334999948,
      "d": 198.67549999999756,
      "v": 100
    },
    {
      "midi": 38,
      "hit": false,
      "t": 93152.72884999948,
      "d": 198.67549999999756,
      "v": 100
    },
    {
      "midi": 43,
      "hit": false,
      "t": 93152.72884999948,
      "d": 198.67549999999756,
      "v": 100
    },
    {
      "midi": 66,
      "hit": false,
      "t": 93152.72884999948,
      "d": 198.67549999999756,
      "v": 100
    },
    {
      "midi": 62,
      "hit": false,
      "t": 93152.72884999948,
      "d": 198.67549999999756,
      "v": 100
    },
    {
      "midi": 42,
      "hit": false,
      "t": 93152.72884999948,
      "d": 198.67549999999756,
      "v": 100
    },
    {
      "midi": 73,
      "hit": false,
      "t": 93152.72884999948,
      "d": 198.67549999999756,
      "v": 86
    },
    {
      "midi": 59,
      "hit": false,
      "t": 93152.72884999948,
      "d": 397.3509999999951,
      "v": 100
    },
    {
      "midi": 42,
      "hit": false,
      "t": 93351.40434999947,
      "d": 198.67549999999756,
      "v": 100
    },
    {
      "midi": 71,
      "hit": false,
      "t": 93351.40434999947,
      "d": 198.67549999999756,
      "v": 87
    },
    {
      "midi": 43,
      "hit": false,
      "t": 93351.40434999947,
      "d": 198.67549999999756,
      "v": 100
    },
    {
      "midi": 62,
      "hit": false,
      "t": 93351.40434999947,
      "d": 198.67549999999756,
      "v": 87
    },
    {
      "midi": 66,
      "hit": false,
      "t": 93351.40434999947,
      "d": 198.67549999999756,
      "v": 87
    },
    {
      "midi": 42,
      "hit": false,
      "t": 93550.07984999947,
      "d": 198.67549999999756,
      "v": 100
    },
    {
      "midi": 61,
      "hit": false,
      "t": 93550.07984999947,
      "d": 198.67549999999756,
      "v": 100
    },
    {
      "midi": 43,
      "hit": false,
      "t": 93550.07984999947,
      "d": 198.67549999999756,
      "v": 100
    },
    {
      "midi": 36,
      "hit": false,
      "t": 93550.07984999947,
      "d": 397.3509999999951,
      "v": 100
    },
    {
      "midi": 57,
      "hit": false,
      "t": 93748.75534999947,
      "d": 198.67549999999756,
      "v": 100
    },
    {
      "midi": 38,
      "hit": false,
      "t": 93748.75534999947,
      "d": 198.67549999999756,
      "v": 100
    },
    {
      "midi": 45,
      "hit": false,
      "t": 93748.75534999947,
      "d": 198.67549999999756,
      "v": 100
    },
    {
      "midi": 78,
      "hit": false,
      "t": 93748.75534999947,
      "d": 397.3509999999951,
      "v": 100
    },
    {
      "midi": 71,
      "hit": false,
      "t": 93748.75534999947,
      "d": 596.0264999999927,
      "v": 100
    },
    {
      "midi": 66,
      "hit": false,
      "t": 93748.75534999947,
      "d": 596.0264999999927,
      "v": 100
    },
    {
      "midi": 62,
      "hit": false,
      "t": 93748.75534999947,
      "d": 596.0264999999927,
      "v": 100
    },
    {
      "midi": 59,
      "hit": false,
      "t": 93748.75534999947,
      "d": 596.0264999999927,
      "v": 100
    },
    {
      "midi": 74,
      "hit": false,
      "t": 93748.75534999947,
      "d": 596.0264999999927,
      "v": 89
    },
    {
      "midi": 57,
      "hit": false,
      "t": 93947.43084999947,
      "d": 397.3509999999951,
      "v": 100
    },
    {
      "midi": 38,
      "hit": false,
      "t": 93947.43084999947,
      "d": 397.3509999999951,
      "v": 100
    },
    {
      "midi": 47,
      "hit": false,
      "t": 93947.43084999947,
      "d": 397.3509999999951,
      "v": 100
    },
    {
      "midi": 78,
      "hit": false,
      "t": 94146.10634999946,
      "d": 198.67549999999756,
      "v": 100
    },
    {
      "midi": 57,
      "hit": false,
      "t": 94344.78184999946,
      "d": 198.67549999999756,
      "v": 100
    },
    {
      "midi": 62,
      "hit": false,
      "t": 94344.78184999946,
      "d": 198.67549999999756,
      "v": 100
    },
    {
      "midi": 78,
      "hit": false,
      "t": 94344.78184999946,
      "d": 298.0132500000036,
      "v": 100
    },
    {
      "midi": 40,
      "hit": false,
      "t": 94344.78184999946,
      "d": 397.35100000000966,
      "v": 100
    },
    {
      "midi": 36,
      "hit": false,
      "t": 94344.78184999946,
      "d": 397.35100000000966,
      "v": 100
    },
    {
      "midi": 62,
      "hit": false,
      "t": 94543.45734999946,
      "d": 198.6755000000121,
      "v": 100
    },
    {
      "midi": 42,
      "hit": false,
      "t": 94543.45734999946,
      "d": 198.6755000000121,
      "v": 100
    },
    {
      "midi": 76,
      "hit": false,
      "t": 94642.79509999946,
      "d": 298.0132500000036,
      "v": 100
    },
    {
      "midi": 42,
      "hit": false,
      "t": 94742.13284999947,
      "d": 198.67549999999756,
      "v": 100
    },
    {
      "midi": 38,
      "hit": false,
      "t": 94742.13284999947,
      "d": 198.67549999999756,
      "v": 100
    },
    {
      "midi": 40,
      "hit": false,
      "t": 94742.13284999947,
      "d": 198.67549999999756,
      "v": 100
    },
    {
      "midi": 59,
      "hit": false,
      "t": 94742.13284999947,
      "d": 397.3509999999951,
      "v": 100
    },
    {
      "midi": 55,
      "hit": false,
      "t": 94742.13284999947,
      "d": 397.3509999999951,
      "v": 100
    },
    {
      "midi": 66,
      "hit": false,
      "t": 94742.13284999947,
      "d": 397.3509999999951,
      "v": 100
    },
    {
      "midi": 62,
      "hit": false,
      "t": 94742.13284999947,
      "d": 397.3509999999951,
      "v": 100
    },
    {
      "midi": 42,
      "hit": false,
      "t": 94940.80834999947,
      "d": 198.67549999999756,
      "v": 100
    },
    {
      "midi": 43,
      "hit": false,
      "t": 94940.80834999947,
      "d": 397.3509999999951,
      "v": 100
    },
    {
      "midi": 42,
      "hit": false,
      "t": 95139.48384999947,
      "d": 198.67549999999756,
      "v": 100
    },
    {
      "midi": 62,
      "hit": false,
      "t": 95139.48384999947,
      "d": 198.67549999999756,
      "v": 100
    },
    {
      "midi": 71,
      "hit": false,
      "t": 95139.48384999947,
      "d": 794.7019999999902,
      "v": 100
    },
    {
      "midi": 42,
      "hit": false,
      "t": 95338.15934999946,
      "d": 198.67549999999756,
      "v": 100
    },
    {
      "midi": 36,
      "hit": false,
      "t": 95338.15934999946,
      "d": 198.67549999999756,
      "v": 100
    },
    {
      "midi": 40,
      "hit": false,
      "t": 95338.15934999946,
      "d": 198.67549999999756,
      "v": 100
    },
    {
      "midi": 66,
      "hit": false,
      "t": 95338.15934999946,
      "d": 596.0264999999927,
      "v": 100
    },
    {
      "midi": 62,
      "hit": false,
      "t": 95338.15934999946,
      "d": 596.0264999999927,
      "v": 100
    },
    {
      "midi": 55,
      "hit": false,
      "t": 95338.15934999946,
      "d": 596.0264999999927,
      "v": 100
    },
    {
      "midi": 59,
      "hit": false,
      "t": 95338.15934999946,
      "d": 596.0264999999927,
      "v": 100
    },
    {
      "midi": 42,
      "hit": false,
      "t": 95536.83484999946,
      "d": 198.67549999999756,
      "v": 100
    },
    {
      "midi": 38,
      "hit": false,
      "t": 95536.83484999946,
      "d": 198.67549999999756,
      "v": 100
    },
    {
      "midi": 40,
      "hit": false,
      "t": 95536.83484999946,
      "d": 198.67549999999756,
      "v": 100
    },
    {
      "midi": 42,
      "hit": false,
      "t": 95735.51034999946,
      "d": 198.67549999999756,
      "v": 100
    },
    {
      "midi": 40,
      "hit": false,
      "t": 95735.51034999946,
      "d": 198.67549999999756,
      "v": 100
    },
    {
      "midi": 42,
      "hit": false,
      "t": 95934.18584999946,
      "d": 198.67549999999756,
      "v": 100
    },
    {
      "midi": 43,
      "hit": false,
      "t": 95934.18584999946,
      "d": 198.67549999999756,
      "v": 100
    },
    {
      "midi": 62,
      "hit": false,
      "t": 95934.18584999946,
      "d": 198.67549999999756,
      "v": 100
    },
    {
      "midi": 36,
      "hit": false,
      "t": 95934.18584999946,
      "d": 397.3509999999951,
      "v": 100
    },
    {
      "midi": 67,
      "hit": false,
      "t": 95934.18584999946,
      "d": 794.7019999999902,
      "v": 100
    },
    {
      "midi": 42,
      "hit": false,
      "t": 96132.86134999945,
      "d": 198.67549999999756,
      "v": 100
    },
    {
      "midi": 62,
      "hit": false,
      "t": 96132.86134999945,
      "d": 198.67549999999756,
      "v": 100
    },
    {
      "midi": 40,
      "hit": false,
      "t": 96132.86134999945,
      "d": 198.67549999999756,
      "v": 100
    },
    {
      "midi": 42,
      "hit": false,
      "t": 96331.53684999945,
      "d": 198.67549999999756,
      "v": 100
    },
    {
      "midi": 38,
      "hit": false,
      "t": 96331.53684999945,
      "d": 198.67549999999756,
      "v": 100
    },
    {
      "midi": 40,
      "hit": false,
      "t": 96331.53684999945,
      "d": 198.67549999999756,
      "v": 100
    },
    {
      "midi": 62,
      "hit": false,
      "t": 96331.53684999945,
      "d": 397.3509999999951,
      "v": 100
    },
    {
      "midi": 66,
      "hit": false,
      "t": 96331.53684999945,
      "d": 397.3509999999951,
      "v": 100
    },
    {
      "midi": 59,
      "hit": false,
      "t": 96331.53684999945,
      "d": 397.3509999999951,
      "v": 100
    },
    {
      "midi": 55,
      "hit": false,
      "t": 96331.53684999945,
      "d": 397.3509999999951,
      "v": 100
    },
    {
      "midi": 42,
      "hit": false,
      "t": 96530.21234999945,
      "d": 198.67549999999756,
      "v": 100
    },
    {
      "midi": 43,
      "hit": false,
      "t": 96530.21234999945,
      "d": 198.67549999999756,
      "v": 100
    },
    {
      "midi": 42,
      "hit": false,
      "t": 96728.88784999945,
      "d": 198.67549999999756,
      "v": 100
    },
    {
      "midi": 40,
      "hit": false,
      "t": 96728.88784999945,
      "d": 198.67549999999756,
      "v": 100
    },
    {
      "midi": 62,
      "hit": false,
      "t": 96728.88784999945,
      "d": 198.67549999999756,
      "v": 100
    },
    {
      "midi": 74,
      "hit": false,
      "t": 96728.88784999945,
      "d": 794.7019999999902,
      "v": 100
    },
    {
      "midi": 42,
      "hit": false,
      "t": 96927.56334999944,
      "d": 198.67549999999756,
      "v": 100
    },
    {
      "midi": 36,
      "hit": false,
      "t": 96927.56334999944,
      "d": 198.67549999999756,
      "v": 100
    },
    {
      "midi": 40,
      "hit": false,
      "t": 96927.56334999944,
      "d": 198.67549999999756,
      "v": 100
    },
    {
      "midi": 78,
      "hit": false,
      "t": 96927.56334999944,
      "d": 198.67549999999756,
      "v": 100
    },
    {
      "midi": 59,
      "hit": false,
      "t": 96927.56334999944,
      "d": 596.0264999999927,
      "v": 100
    },
    {
      "midi": 66,
      "hit": false,
      "t": 96927.56334999944,
      "d": 596.0264999999927,
      "v": 100
    },
    {
      "midi": 55,
      "hit": false,
      "t": 96927.56334999944,
      "d": 596.0264999999927,
      "v": 100
    },
    {
      "midi": 62,
      "hit": false,
      "t": 96927.56334999944,
      "d": 596.0264999999927,
      "v": 100
    },
    {
      "midi": 42,
      "hit": false,
      "t": 97126.23884999944,
      "d": 198.67549999999756,
      "v": 100
    },
    {
      "midi": 38,
      "hit": false,
      "t": 97126.23884999944,
      "d": 198.67549999999756,
      "v": 100
    },
    {
      "midi": 49,
      "hit": false,
      "t": 97126.23884999944,
      "d": 198.67549999999756,
      "v": 100
    },
    {
      "midi": 78,
      "hit": false,
      "t": 97126.23884999944,
      "d": 198.67549999999756,
      "v": 100
    },
    {
      "midi": 42,
      "hit": false,
      "t": 97324.91434999944,
      "d": 198.67549999999756,
      "v": 100
    },
    {
      "midi": 78,
      "hit": false,
      "t": 97324.91434999944,
      "d": 198.67549999999756,
      "v": 100
    },
    {
      "midi": 47,
      "hit": false,
      "t": 97324.91434999944,
      "d": 198.67549999999756,
      "v": 100
    },
    {
      "midi": 64,
      "hit": false,
      "t": 97523.58984999944,
      "d": 198.67549999999756,
      "v": 100
    },
    {
      "midi": 58,
      "hit": false,
      "t": 97523.58984999944,
      "d": 198.67549999999756,
      "v": 100
    },
    {
      "midi": 54,
      "hit": false,
      "t": 97523.58984999944,
      "d": 198.67549999999756,
      "v": 100
    },
    {
      "midi": 45,
      "hit": false,
      "t": 97523.58984999944,
      "d": 198.67549999999756,
      "v": 100
    },
    {
      "midi": 76,
      "hit": false,
      "t": 97523.58984999944,
      "d": 298.0132500000036,
      "v": 100
    },
    {
      "midi": 66,
      "hit": false,
      "t": 97523.58984999944,
      "d": 397.35100000000966,
      "v": 100
    },
    {
      "midi": 73,
      "hit": false,
      "t": 97523.58984999944,
      "d": 397.35100000000966,
      "v": 100
    },
    {
      "midi": 78,
      "hit": false,
      "t": 97523.58984999944,
      "d": 397.35100000000966,
      "v": 100
    },
    {
      "midi": 70,
      "hit": false,
      "t": 97523.58984999944,
      "d": 397.35100000000966,
      "v": 100
    },
    {
      "midi": 38,
      "hit": false,
      "t": 97722.26534999943,
      "d": 198.6755000000121,
      "v": 100
    },
    {
      "midi": 36,
      "hit": false,
      "t": 97722.26534999943,
      "d": 198.6755000000121,
      "v": 100
    },
    {
      "midi": 55,
      "hit": false,
      "t": 97722.26534999943,
      "d": 198.6755000000121,
      "v": 100
    },
    {
      "midi": 74,
      "hit": false,
      "t": 97821.60309999944,
      "d": 298.0132500000036,
      "v": 100
    },
    {
      "midi": 55,
      "hit": false,
      "t": 97920.94084999945,
      "d": 198.67549999999756,
      "v": 100
    },
    {
      "midi": 38,
      "hit": false,
      "t": 97920.94084999945,
      "d": 198.67549999999756,
      "v": 100
    },
    {
      "midi": 36,
      "hit": false,
      "t": 97920.94084999945,
      "d": 397.3509999999951,
      "v": 100
    },
    {
      "midi": 38,
      "hit": false,
      "t": 98119.61634999944,
      "d": 198.67549999999756,
      "v": 100
    },
    {
      "midi": 73,
      "hit": false,
      "t": 98119.61634999944,
      "d": 198.67549999999756,
      "v": 100
    },
    {
      "midi": 45,
      "hit": false,
      "t": 98119.61634999944,
      "d": 198.67549999999756,
      "v": 100
    },
    {
      "midi": 66,
      "hit": false,
      "t": 98119.61634999944,
      "d": 198.67549999999756,
      "v": 100
    },
    {
      "midi": 64,
      "hit": false,
      "t": 98119.61634999944,
      "d": 198.67549999999756,
      "v": 100
    },
    {
      "midi": 70,
      "hit": false,
      "t": 98119.61634999944,
      "d": 198.67549999999756,
      "v": 100
    },
    {
      "midi": 58,
      "hit": false,
      "t": 98119.61634999944,
      "d": 198.67549999999756,
      "v": 100
    },
    {
      "midi": 78,
      "hit": false,
      "t": 98119.61634999944,
      "d": 198.67549999999756,
      "v": 100
    },
    {
      "midi": 54,
      "hit": false,
      "t": 98119.61634999944,
      "d": 198.67549999999756,
      "v": 100
    },
    {
      "midi": 36,
      "hit": false,
      "t": 98318.29184999944,
      "d": 198.67549999999756,
      "v": 100
    },
    {
      "midi": 55,
      "hit": false,
      "t": 98318.29184999944,
      "d": 198.67549999999756,
      "v": 100
    },
    {
      "midi": 38,
      "hit": false,
      "t": 98318.29184999944,
      "d": 198.67549999999756,
      "v": 100
    },
    {
      "midi": 36,
      "hit": false,
      "t": 98516.96734999944,
      "d": 198.67549999999756,
      "v": 100
    },
    {
      "midi": 55,
      "hit": false,
      "t": 98516.96734999944,
      "d": 198.67549999999756,
      "v": 100
    },
    {
      "midi": 38,
      "hit": false,
      "t": 98516.96734999944,
      "d": 198.67549999999756,
      "v": 100
    },
    {
      "midi": 45,
      "hit": false,
      "t": 98715.64284999944,
      "d": 198.67549999999756,
      "v": 100
    },
    {
      "midi": 73,
      "hit": false,
      "t": 98715.64284999944,
      "d": 397.3509999999951,
      "v": 100
    },
    {
      "midi": 57,
      "hit": false,
      "t": 98715.64284999944,
      "d": 397.3509999999951,
      "v": 100
    },
    {
      "midi": 64,
      "hit": false,
      "t": 98715.64284999944,
      "d": 1986.7550000000192,
      "v": 100
    },
    {
      "midi": 70,
      "hit": false,
      "t": 98715.64284999944,
      "d": 1986.7550000000192,
      "v": 100
    },
    {
      "midi": 66,
      "hit": false,
      "t": 98715.64284999944,
      "d": 1986.7550000000192,
      "v": 100
    },
    {
      "midi": 58,
      "hit": false,
      "t": 98715.64284999944,
      "d": 1986.7550000000192,
      "v": 100
    },
    {
      "midi": 78,
      "hit": false,
      "t": 98715.64284999944,
      "d": 1986.7550000000192,
      "v": 100
    },
    {
      "midi": 38,
      "hit": false,
      "t": 98914.31834999943,
      "d": 198.67549999999756,
      "v": 100
    },
    {
      "midi": 36,
      "hit": false,
      "t": 99112.99384999943,
      "d": 397.3509999999951,
      "v": 100
    },
    {
      "midi": 37,
      "hit": false,
      "t": 99311.66934999943,
      "d": 198.67549999999756,
      "v": 100
    },
    {
      "midi": 40,
      "hit": false,
      "t": 99311.66934999943,
      "d": 397.3509999999951,
      "v": 100
    },
    {
      "midi": 36,
      "hit": false,
      "t": 99510.34484999943,
      "d": 198.67549999999756,
      "v": 100
    },
    {
      "midi": 38,
      "hit": false,
      "t": 99510.34484999943,
      "d": 198.67549999999756,
      "v": 100
    },
    {
      "midi": 36,
      "hit": false,
      "t": 99709.02034999942,
      "d": 198.67549999999756,
      "v": 100
    },
    {
      "midi": 42,
      "hit": false,
      "t": 99709.02034999942,
      "d": 198.67549999999756,
      "v": 100
    },
    {
      "midi": 47,
      "hit": false,
      "t": 99907.69584999942,
      "d": 99.33775000000605,
      "v": 100
    },
    {
      "midi": 45,
      "hit": false,
      "t": 99907.69584999942,
      "d": 198.6755000000121,
      "v": 100
    },
    {
      "midi": 48,
      "hit": false,
      "t": 100007.03359999943,
      "d": 99.33775000000605,
      "v": 100
    },
    {
      "midi": 43,
      "hit": false,
      "t": 100106.37134999943,
      "d": 198.6755000000121,
      "v": 100
    },
    {
      "midi": 47,
      "hit": false,
      "t": 100106.37134999943,
      "d": 198.6755000000121,
      "v": 100
    },
    {
      "midi": 36,
      "hit": false,
      "t": 100205.70909999944,
      "d": 99.33775000000605,
      "v": 100
    },
    {
      "midi": 42,
      "hit": false,
      "t": 100305.04684999945,
      "d": 198.67549999999756,
      "v": 100
    },
    {
      "midi": 69,
      "hit": false,
      "t": 100503.72234999944,
      "d": 99.33775000000605,
      "v": 82
    },
    {
      "midi": 62,
      "hit": false,
      "t": 100503.72234999944,
      "d": 99.33775000000605,
      "v": 82
    },
    {
      "midi": 47,
      "hit": false,
      "t": 100503.72234999944,
      "d": 99.33775000000605,
      "v": 82
    },
    {
      "midi": 57,
      "hit": false,
      "t": 100503.72234999944,
      "d": 99.33775000000605,
      "v": 82
    },
    {
      "midi": 54,
      "hit": false,
      "t": 100503.72234999944,
      "d": 99.33775000000605,
      "v": 82
    },
    {
      "midi": 38,
      "hit": false,
      "t": 100503.72234999944,
      "d": 198.6755000000121,
      "v": 100
    },
    {
      "midi": 69,
      "hit": false,
      "t": 100603.06009999945,
      "d": 99.33775000000605,
      "v": 78
    },
    {
      "midi": 47,
      "hit": false,
      "t": 100603.06009999945,
      "d": 99.33775000000605,
      "v": 78
    },
    {
      "midi": 54,
      "hit": false,
      "t": 100603.06009999945,
      "d": 99.33775000000605,
      "v": 78
    },
    {
      "midi": 57,
      "hit": false,
      "t": 100603.06009999945,
      "d": 99.33775000000605,
      "v": 78
    },
    {
      "midi": 62,
      "hit": false,
      "t": 100603.06009999945,
      "d": 99.33775000000605,
      "v": 78
    },
    {
      "midi": 57,
      "hit": false,
      "t": 100702.39784999946,
      "d": 198.67549999999756,
      "v": 100
    },
    {
      "midi": 62,
      "hit": false,
      "t": 100702.39784999946,
      "d": 198.67549999999756,
      "v": 92
    },
    {
      "midi": 36,
      "hit": false,
      "t": 100702.39784999946,
      "d": 397.3509999999951,
      "v": 100
    },
    {
      "midi": 43,
      "hit": false,
      "t": 100702.39784999946,
      "d": 397.3509999999951,
      "v": 100
    },
    {
      "midi": 47,
      "hit": false,
      "t": 100702.39784999946,
      "d": 1589.4039999999804,
      "v": 74
    },
    {
      "midi": 54,
      "hit": false,
      "t": 100702.39784999946,
      "d": 1589.4039999999804,
      "v": 74
    },
    {
      "midi": 69,
      "hit": false,
      "t": 100702.39784999946,
      "d": 1589.4039999999804,
      "v": 74
    },
    {
      "midi": 59,
      "hit": false,
      "t": 100702.39784999946,
      "d": 1589.4039999999804,
      "v": 100
    },
    {
      "midi": 42,
      "hit": false,
      "t": 100901.07334999945,
      "d": 198.67549999999756,
      "v": 100
    },
    {
      "midi": 62,
      "hit": false,
      "t": 100901.07334999945,
      "d": 198.67549999999756,
      "v": 92
    },
    {
      "midi": 42,
      "hit": false,
      "t": 101099.74884999945,
      "d": 198.67549999999756,
      "v": 100
    },
    {
      "midi": 38,
      "hit": false,
      "t": 101099.74884999945,
      "d": 198.67549999999756,
      "v": 100
    },
    {
      "midi": 43,
      "hit": false,
      "t": 101099.74884999945,
      "d": 198.67549999999756,
      "v": 100
    },
    {
      "midi": 66,
      "hit": false,
      "t": 101099.74884999945,
      "d": 397.3509999999951,
      "v": 92
    },
    {
      "midi": 57,
      "hit": false,
      "t": 101099.74884999945,
      "d": 397.3509999999951,
      "v": 92
    },
    {
      "midi": 62,
      "hit": false,
      "t": 101099.74884999945,
      "d": 397.3509999999951,
      "v": 92
    },
    {
      "midi": 42,
      "hit": false,
      "t": 101298.42434999945,
      "d": 198.67549999999756,
      "v": 100
    },
    {
      "midi": 38,
      "hit": false,
      "t": 101298.42434999945,
      "d": 397.3509999999951,
      "v": 100
    },
    {
      "midi": 42,
      "hit": false,
      "t": 101497.09984999945,
      "d": 198.67549999999756,
      "v": 100
    },
    {
      "midi": 62,
      "hit": false,
      "t": 101497.09984999945,
      "d": 198.67549999999756,
      "v": 92
    },
    {
      "midi": 36,
      "hit": false,
      "t": 101497.09984999945,
      "d": 397.3509999999951,
      "v": 100
    },
    {
      "midi": 42,
      "hit": false,
      "t": 101695.77534999944,
      "d": 198.67549999999756,
      "v": 100
    },
    {
      "midi": 38,
      "hit": false,
      "t": 101695.77534999944,
      "d": 198.67549999999756,
      "v": 100
    },
    {
      "midi": 66,
      "hit": false,
      "t": 101695.77534999944,
      "d": 198.67549999999756,
      "v": 92
    },
    {
      "midi": 57,
      "hit": false,
      "t": 101695.77534999944,
      "d": 596.0264999999927,
      "v": 92
    },
    {
      "midi": 62,
      "hit": false,
      "t": 101695.77534999944,
      "d": 596.0264999999927,
      "v": 92
    },
    {
      "midi": 42,
      "hit": false,
      "t": 101894.45084999944,
      "d": 198.67549999999756,
      "v": 100
    },
    {
      "midi": 38,
      "hit": false,
      "t": 101894.45084999944,
      "d": 198.67549999999756,
      "v": 100
    },
    {
      "midi": 43,
      "hit": false,
      "t": 101894.45084999944,
      "d": 198.67549999999756,
      "v": 100
    },
    {
      "midi": 71,
      "hit": false,
      "t": 101894.45084999944,
      "d": 198.67549999999756,
      "v": 100
    },
    {
      "midi": 42,
      "hit": false,
      "t": 102093.12634999944,
      "d": 198.67549999999756,
      "v": 100
    },
    {
      "midi": 73,
      "hit": false,
      "t": 102093.12634999944,
      "d": 198.67549999999756,
      "v": 100
    },
    {
      "midi": 38,
      "hit": false,
      "t": 102093.12634999944,
      "d": 198.67549999999756,
      "v": 100
    },
    {
      "midi": 42,
      "hit": false,
      "t": 102291.80184999944,
      "d": 198.67549999999756,
      "v": 100
    },
    {
      "midi": 62,
      "hit": false,
      "t": 102291.80184999944,
      "d": 198.67549999999756,
      "v": 91
    },
    {
      "midi": 36,
      "hit": false,
      "t": 102291.80184999944,
      "d": 397.3509999999951,
      "v": 100
    },
    {
      "midi": 74,
      "hit": false,
      "t": 102291.80184999944,
      "d": 397.3509999999951,
      "v": 100
    },
    {
      "midi": 42,
      "hit": false,
      "t": 102490.47734999943,
      "d": 198.67549999999756,
      "v": 100
    },
    {
      "midi": 62,
      "hit": false,
      "t": 102490.47734999943,
      "d": 198.67549999999756,
      "v": 91
    },
    {
      "midi": 38,
      "hit": false,
      "t": 102689.15284999943,
      "d": 198.67549999999756,
      "v": 100
    },
    {
      "midi": 42,
      "hit": false,
      "t": 102689.15284999943,
      "d": 198.67549999999756,
      "v": 100
    },
    {
      "midi": 74,
      "hit": false,
      "t": 102689.15284999943,
      "d": 198.67549999999756,
      "v": 100
    },
    {
      "midi": 61,
      "hit": false,
      "t": 102689.15284999943,
      "d": 397.3509999999951,
      "v": 91
    },
    {
      "midi": 66,
      "hit": false,
      "t": 102689.15284999943,
      "d": 397.3509999999951,
      "v": 91
    },
    {
      "midi": 57,
      "hit": false,
      "t": 102689.15284999943,
      "d": 397.3509999999951,
      "v": 91
    },
    {
      "midi": 42,
      "hit": false,
      "t": 102887.82834999943,
      "d": 198.67549999999756,
      "v": 100
    },
    {
      "midi": 38,
      "hit": false,
      "t": 102887.82834999943,
      "d": 397.3509999999951,
      "v": 100
    },
    {
      "midi": 73,
      "hit": false,
      "t": 102887.82834999943,
      "d": 397.3509999999951,
      "v": 100
    },
    {
      "midi": 42,
      "hit": false,
      "t": 103086.50384999943,
      "d": 198.67549999999756,
      "v": 100
    },
    {
      "midi": 62,
      "hit": false,
      "t": 103086.50384999943,
      "d": 198.67549999999756,
      "v": 91
    },
    {
      "midi": 36,
      "hit": false,
      "t": 103086.50384999943,
      "d": 397.3509999999951,
      "v": 100
    },
    {
      "midi": 42,
      "hit": false,
      "t": 103285.17934999942,
      "d": 198.67549999999756,
      "v": 100
    },
    {
      "midi": 38,
      "hit": false,
      "t": 103285.17934999942,
      "d": 198.67549999999756,
      "v": 100
    },
    {
      "midi": 69,
      "hit": false,
      "t": 103285.17934999942,
      "d": 397.3509999999951,
      "v": 100
    },
    {
      "midi": 66,
      "hit": false,
      "t": 103285.17934999942,
      "d": 596.0264999999927,
      "v": 91
    },
    {
      "midi": 57,
      "hit": false,
      "t": 103285.17934999942,
      "d": 596.0264999999927,
      "v": 91
    },
    {
      "midi": 61,
      "hit": false,
      "t": 103285.17934999942,
      "d": 596.0264999999927,
      "v": 91
    },
    {
      "midi": 38,
      "hit": false,
      "t": 103483.85484999942,
      "d": 198.67549999999756,
      "v": 100
    },
    {
      "midi": 42,
      "hit": false,
      "t": 103483.85484999942,
      "d": 198.67549999999756,
      "v": 100
    },
    {
      "midi": 37,
      "hit": false,
      "t": 103483.85484999942,
      "d": 198.67549999999756,
      "v": 100
    },
    {
      "midi": 36,
      "hit": false,
      "t": 103682.53034999942,
      "d": 198.67549999999756,
      "v": 100
    },
    {
      "midi": 64,
      "hit": false,
      "t": 103682.53034999942,
      "d": 198.67549999999756,
      "v": 100
    },
    {
      "midi": 38,
      "hit": false,
      "t": 103682.53034999942,
      "d": 198.67549999999756,
      "v": 100
    },
    {
      "midi": 42,
      "hit": false,
      "t": 103682.53034999942,
      "d": 198.67549999999756,
      "v": 100
    },
    {
      "midi": 42,
      "hit": false,
      "t": 103881.20584999942,
      "d": 198.67549999999756,
      "v": 100
    },
    {
      "midi": 62,
      "hit": false,
      "t": 103881.20584999942,
      "d": 198.67549999999756,
      "v": 91
    },
    {
      "midi": 36,
      "hit": false,
      "t": 103881.20584999942,
      "d": 397.3509999999951,
      "v": 100
    },
    {
      "midi": 69,
      "hit": false,
      "t": 103881.20584999942,
      "d": 596.0264999999927,
      "v": 100
    },
    {
      "midi": 40,
      "hit": false,
      "t": 103881.20584999942,
      "d": 596.0264999999927,
      "v": 100
    },
    {
      "midi": 42,
      "hit": false,
      "t": 104079.88134999941,
      "d": 198.67549999999756,
      "v": 100
    },
    {
      "midi": 62,
      "hit": false,
      "t": 104079.88134999941,
      "d": 198.67549999999756,
      "v": 91
    },
    {
      "midi": 38,
      "hit": false,
      "t": 104278.55684999941,
      "d": 198.67549999999756,
      "v": 100
    },
    {
      "midi": 62,
      "hit": false,
      "t": 104278.55684999941,
      "d": 198.67549999999756,
      "v": 91
    },
    {
      "midi": 59,
      "hit": false,
      "t": 104278.55684999941,
      "d": 198.67549999999756,
      "v": 91
    },
    {
      "midi": 42,
      "hit": false,
      "t": 104278.55684999941,
      "d": 198.67549999999756,
      "v": 100
    },
    {
      "midi": 66,
      "hit": false,
      "t": 104278.55684999941,
      "d": 397.3509999999951,
      "v": 91
    },
    {
      "midi": 42,
      "hit": false,
      "t": 104477.23234999941,
      "d": 198.67549999999756,
      "v": 100
    },
    {
      "midi": 38,
      "hit": false,
      "t": 104477.23234999941,
      "d": 198.67549999999756,
      "v": 100
    },
    {
      "midi": 59,
      "hit": false,
      "t": 104477.23234999941,
      "d": 198.67549999999756,
      "v": 100
    },
    {
      "midi": 62,
      "hit": false,
      "t": 104477.23234999941,
      "d": 198.67549999999756,
      "v": 100
    },
    {
      "midi": 71,
      "hit": false,
      "t": 104477.23234999941,
      "d": 596.0264999999927,
      "v": 100
    },
    {
      "midi": 69,
      "hit": false,
      "t": 104477.23234999941,
      "d": 993.3774999999878,
      "v": 100
    },
    {
      "midi": 42,
      "hit": false,
      "t": 104675.9078499994,
      "d": 198.67549999999756,
      "v": 100
    },
    {
      "midi": 62,
      "hit": false,
      "t": 104675.9078499994,
      "d": 198.67549999999756,
      "v": 91
    },
    {
      "midi": 40,
      "hit": false,
      "t": 104675.9078499994,
      "d": 198.67549999999756,
      "v": 100
    },
    {
      "midi": 36,
      "hit": false,
      "t": 104675.9078499994,
      "d": 397.3509999999951,
      "v": 100
    },
    {
      "midi": 42,
      "hit": false,
      "t": 104874.5833499994,
      "d": 198.67549999999756,
      "v": 100
    },
    {
      "midi": 59,
      "hit": false,
      "t": 104874.5833499994,
      "d": 596.0264999999927,
      "v": 91
    },
    {
      "midi": 66,
      "hit": false,
      "t": 104874.5833499994,
      "d": 596.0264999999927,
      "v": 91
    },
    {
      "midi": 38,
      "hit": false,
      "t": 105073.2588499994,
      "d": 198.67549999999756,
      "v": 100
    },
    {
      "midi": 42,
      "hit": false,
      "t": 105073.2588499994,
      "d": 198.67549999999756,
      "v": 100
    },
    {
      "midi": 43,
      "hit": false,
      "t": 105073.2588499994,
      "d": 198.67549999999756,
      "v": 100
    },
    {
      "midi": 62,
      "hit": false,
      "t": 105073.2588499994,
      "d": 397.3509999999951,
      "v": 100
    },
    {
      "midi": 42,
      "hit": false,
      "t": 105271.9343499994,
      "d": 198.67549999999756,
      "v": 100
    },
    {
      "midi": 45,
      "hit": false,
      "t": 105271.9343499994,
      "d": 198.67549999999756,
      "v": 100
    },
    {
      "midi": 42,
      "hit": false,
      "t": 105470.6098499994,
      "d": 198.67549999999756,
      "v": 100
    },
    {
      "midi": 62,
      "hit": false,
      "t": 105470.6098499994,
      "d": 198.67549999999756,
      "v": 91
    },
    {
      "midi": 71,
      "hit": false,
      "t": 105470.6098499994,
      "d": 397.3509999999951,
      "v": 100
    },
    {
      "midi": 36,
      "hit": false,
      "t": 105470.6098499994,
      "d": 397.3509999999951,
      "v": 100
    },
    {
      "midi": 47,
      "hit": false,
      "t": 105470.6098499994,
      "d": 397.3509999999951,
      "v": 100
    },
    {
      "midi": 79,
      "hit": false,
      "t": 105470.6098499994,
      "d": 397.3509999999951,
      "v": 100
    },
    {
      "midi": 42,
      "hit": false,
      "t": 105669.2853499994,
      "d": 198.67549999999756,
      "v": 100
    },
    {
      "midi": 62,
      "hit": false,
      "t": 105669.2853499994,
      "d": 198.67549999999756,
      "v": 91
    },
    {
      "midi": 42,
      "hit": false,
      "t": 105867.96084999939,
      "d": 198.67549999999756,
      "v": 100
    },
    {
      "midi": 71,
      "hit": false,
      "t": 105867.96084999939,
      "d": 198.67549999999756,
      "v": 100
    },
    {
      "midi": 45,
      "hit": false,
      "t": 105867.96084999939,
      "d": 198.67549999999756,
      "v": 100
    },
    {
      "midi": 79,
      "hit": false,
      "t": 105867.96084999939,
      "d": 198.67549999999756,
      "v": 100
    },
    {
      "midi": 62,
      "hit": false,
      "t": 105867.96084999939,
      "d": 397.3509999999951,
      "v": 91
    },
    {
      "midi": 66,
      "hit": false,
      "t": 105867.96084999939,
      "d": 397.3509999999951,
      "v": 91
    },
    {
      "midi": 59,
      "hit": false,
      "t": 105867.96084999939,
      "d": 397.3509999999951,
      "v": 91
    },
    {
      "midi": 42,
      "hit": false,
      "t": 106066.63634999939,
      "d": 198.67549999999756,
      "v": 100
    },
    {
      "midi": 36,
      "hit": false,
      "t": 106066.63634999939,
      "d": 198.67549999999756,
      "v": 100
    },
    {
      "midi": 47,
      "hit": false,
      "t": 106066.63634999939,
      "d": 397.3509999999951,
      "v": 100
    },
    {
      "midi": 78,
      "hit": false,
      "t": 106066.63634999939,
      "d": 397.3509999999951,
      "v": 100
    },
    {
      "midi": 69,
      "hit": false,
      "t": 106066.63634999939,
      "d": 397.3509999999951,
      "v": 100
    },
    {
      "midi": 42,
      "hit": false,
      "t": 106265.31184999939,
      "d": 198.67549999999756,
      "v": 100
    },
    {
      "midi": 62,
      "hit": false,
      "t": 106265.31184999939,
      "d": 198.67549999999756,
      "v": 91
    },
    {
      "midi": 42,
      "hit": false,
      "t": 106463.98734999938,
      "d": 198.67549999999756,
      "v": 100
    },
    {
      "midi": 36,
      "hit": false,
      "t": 106463.98734999938,
      "d": 198.67549999999756,
      "v": 100
    },
    {
      "midi": 45,
      "hit": false,
      "t": 106463.98734999938,
      "d": 198.67549999999756,
      "v": 100
    },
    {
      "midi": 66,
      "hit": false,
      "t": 106463.98734999938,
      "d": 596.0264999999927,
      "v": 91
    },
    {
      "midi": 74,
      "hit": false,
      "t": 106463.98734999938,
      "d": 596.0264999999927,
      "v": 100
    },
    {
      "midi": 59,
      "hit": false,
      "t": 106463.98734999938,
      "d": 596.0264999999927,
      "v": 91
    },
    {
      "midi": 62,
      "hit": false,
      "t": 106463.98734999938,
      "d": 596.0264999999927,
      "v": 91
    },
    {
      "midi": 42,
      "hit": false,
      "t": 106662.66284999938,
      "d": 198.67549999999756,
      "v": 100
    },
    {
      "midi": 42,
      "hit": false,
      "t": 106861.33834999938,
      "d": 198.67549999999756,
      "v": 100
    },
    {
      "midi": 38,
      "hit": false,
      "t": 106861.33834999938,
      "d": 198.67549999999756,
      "v": 100
    },
    {
      "midi": 42,
      "hit": false,
      "t": 107060.01384999938,
      "d": 198.67549999999756,
      "v": 100
    },
    {
      "midi": 62,
      "hit": false,
      "t": 107060.01384999938,
      "d": 198.67549999999756,
      "v": 90
    },
    {
      "midi": 36,
      "hit": false,
      "t": 107060.01384999938,
      "d": 397.3509999999951,
      "v": 100
    },
    {
      "midi": 69,
      "hit": false,
      "t": 107060.01384999938,
      "d": 397.3509999999951,
      "v": 100
    },
    {
      "midi": 40,
      "hit": false,
      "t": 107060.01384999938,
      "d": 397.3509999999951,
      "v": 100
    },
    {
      "midi": 67,
      "hit": false,
      "t": 107060.01384999938,
      "d": 1589.4039999999804,
      "v": 100
    },
    {
      "midi": 42,
      "hit": false,
      "t": 107258.68934999937,
      "d": 198.67549999999756,
      "v": 100
    },
    {
      "midi": 62,
      "hit": false,
      "t": 107258.68934999937,
      "d": 198.67549999999756,
      "v": 90
    },
    {
      "midi": 42,
      "hit": false,
      "t": 107457.36484999937,
      "d": 198.67549999999756,
      "v": 100
    },
    {
      "midi": 38,
      "hit": false,
      "t": 107457.36484999937,
      "d": 198.67549999999756,
      "v": 100
    },
    {
      "midi": 71,
      "hit": false,
      "t": 107457.36484999937,
      "d": 198.67549999999756,
      "v": 100
    },
    {
      "midi": 40,
      "hit": false,
      "t": 107457.36484999937,
      "d": 198.67549999999756,
      "v": 100
    },
    {
      "midi": 66,
      "hit": false,
      "t": 107457.36484999937,
      "d": 397.3509999999951,
      "v": 90
    },
    {
      "midi": 59,
      "hit": false,
      "t": 107457.36484999937,
      "d": 397.3509999999951,
      "v": 90
    },
    {
      "midi": 62,
      "hit": false,
      "t": 107457.36484999937,
      "d": 397.3509999999951,
      "v": 90
    },
    {
      "midi": 42,
      "hit": false,
      "t": 107656.04034999937,
      "d": 198.67549999999756,
      "v": 100
    },
    {
      "midi": 40,
      "hit": false,
      "t": 107656.04034999937,
      "d": 198.67549999999756,
      "v": 100
    },
    {
      "midi": 69,
      "hit": false,
      "t": 107656.04034999937,
      "d": 397.3509999999951,
      "v": 100
    },
    {
      "midi": 42,
      "hit": false,
      "t": 107854.71584999937,
      "d": 198.67549999999756,
      "v": 100
    },
    {
      "midi": 62,
      "hit": false,
      "t": 107854.71584999937,
      "d": 198.67549999999756,
      "v": 90
    },
    {
      "midi": 40,
      "hit": false,
      "t": 107854.71584999937,
      "d": 198.67549999999756,
      "v": 100
    },
    {
      "midi": 36,
      "hit": false,
      "t": 107854.71584999937,
      "d": 397.3509999999951,
      "v": 100
    },
    {
      "midi": 42,
      "hit": false,
      "t": 108053.39134999937,
      "d": 198.67549999999756,
      "v": 100
    },
    {
      "midi": 40,
      "hit": false,
      "t": 108053.39134999937,
      "d": 198.67549999999756,
      "v": 100
    },
    {
      "midi": 62,
      "hit": false,
      "t": 108053.39134999937,
      "d": 596.0264999999927,
      "v": 90
    },
    {
      "midi": 59,
      "hit": false,
      "t": 108053.39134999937,
      "d": 596.0264999999927,
      "v": 90
    },
    {
      "midi": 66,
      "hit": false,
      "t": 108053.39134999937,
      "d": 596.0264999999927,
      "v": 90
    },
    {
      "midi": 71,
      "hit": false,
      "t": 108053.39134999937,
      "d": 596.0264999999927,
      "v": 100
    },
    {
      "midi": 42,
      "hit": false,
      "t": 108252.06684999936,
      "d": 198.67549999999756,
      "v": 100
    },
    {
      "midi": 38,
      "hit": false,
      "t": 108252.06684999936,
      "d": 198.67549999999756,
      "v": 100
    },
    {
      "midi": 42,
      "hit": false,
      "t": 108450.74234999936,
      "d": 198.67549999999756,
      "v": 100
    },
    {
      "midi": 40,
      "hit": false,
      "t": 108450.74234999936,
      "d": 198.67549999999756,
      "v": 100
    },
    {
      "midi": 42,
      "hit": false,
      "t": 108649.41784999936,
      "d": 198.67549999999756,
      "v": 100
    },
    {
      "midi": 69,
      "hit": false,
      "t": 108649.41784999936,
      "d": 198.67549999999756,
      "v": 100
    },
    {
      "midi": 62,
      "hit": false,
      "t": 108649.41784999936,
      "d": 198.67549999999756,
      "v": 90
    },
    {
      "midi": 36,
      "hit": false,
      "t": 108649.41784999936,
      "d": 397.3509999999951,
      "v": 100
    },
    {
      "midi": 42,
      "hit": false,
      "t": 108848.09334999936,
      "d": 198.67549999999756,
      "v": 100
    },
    {
      "midi": 62,
      "hit": false,
      "t": 108848.09334999936,
      "d": 198.67549999999756,
      "v": 90
    },
    {
      "midi": 67,
      "hit": false,
      "t": 108848.09334999936,
      "d": 397.3509999999951,
      "v": 100
    },
    {
      "midi": 42,
      "hit": false,
      "t": 109046.76884999935,
      "d": 198.67549999999756,
      "v": 100
    },
    {
      "midi": 61,
      "hit": false,
      "t": 109046.76884999935,
      "d": 198.67549999999756,
      "v": 90
    },
    {
      "midi": 38,
      "hit": false,
      "t": 109046.76884999935,
      "d": 198.67549999999756,
      "v": 100
    },
    {
      "midi": 57,
      "hit": false,
      "t": 109046.76884999935,
      "d": 397.3509999999951,
      "v": 90
    },
    {
      "midi": 42,
      "hit": false,
      "t": 109245.44434999935,
      "d": 198.67549999999756,
      "v": 100
    },
    {
      "midi": 66,
      "hit": false,
      "t": 109245.44434999935,
      "d": 198.67549999999756,
      "v": 100
    },
    {
      "midi": 69,
      "hit": false,
      "t": 109245.44434999935,
      "d": 596.0264999999927,
      "v": 100
    },
    {
      "midi": 42,
      "hit": false,
      "t": 109444.11984999935,
      "d": 198.67549999999756,
      "v": 100
    },
    {
      "midi": 62,
      "hit": false,
      "t": 109444.11984999935,
      "d": 198.67549999999756,
      "v": 90
    },
    {
      "midi": 36,
      "hit": false,
      "t": 109444.11984999935,
      "d": 397.3509999999951,
      "v": 100
    },
    {
      "midi": 42,
      "hit": false,
      "t": 109642.79534999935,
      "d": 198.67549999999756,
      "v": 100
    },
    {
      "midi": 61,
      "hit": false,
      "t": 109642.79534999935,
      "d": 596.0264999999927,
      "v": 90
    },
    {
      "midi": 57,
      "hit": false,
      "t": 109642.79534999935,
      "d": 596.0264999999927,
      "v": 90
    },
    {
      "midi": 66,
      "hit": false,
      "t": 109642.79534999935,
      "d": 596.0264999999927,
      "v": 90
    },
    {
      "midi": 42,
      "hit": false,
      "t": 109841.47084999934,
      "d": 198.67549999999756,
      "v": 100
    },
    {
      "midi": 64,
      "hit": false,
      "t": 109841.47084999934,
      "d": 198.67549999999756,
      "v": 100
    },
    {
      "midi": 38,
      "hit": false,
      "t": 109841.47084999934,
      "d": 198.67549999999756,
      "v": 100
    },
    {
      "midi": 69,
      "hit": false,
      "t": 109841.47084999934,
      "d": 397.3509999999951,
      "v": 100
    },
    {
      "midi": 42,
      "hit": false,
      "t": 110040.14634999934,
      "d": 198.67549999999756,
      "v": 100
    },
    {
      "midi": 64,
      "hit": false,
      "t": 110040.14634999934,
      "d": 198.67549999999756,
      "v": 100
    },
    {
      "midi": 36,
      "hit": false,
      "t": 110040.14634999934,
      "d": 198.67549999999756,
      "v": 100
    },
    {
      "midi": 42,
      "hit": false,
      "t": 110238.82184999934,
      "d": 198.67549999999756,
      "v": 100
    },
    {
      "midi": 62,
      "hit": false,
      "t": 110238.82184999934,
      "d": 198.67549999999756,
      "v": 90
    },
    {
      "midi": 69,
      "hit": false,
      "t": 110238.82184999934,
      "d": 397.3509999999951,
      "v": 100
    },
    {
      "midi": 36,
      "hit": false,
      "t": 110238.82184999934,
      "d": 397.3509999999951,
      "v": 100
    },
    {
      "midi": 43,
      "hit": false,
      "t": 110238.82184999934,
      "d": 596.0264999999927,
      "v": 100
    },
    {
      "midi": 64,
      "hit": false,
      "t": 110238.82184999934,
      "d": 596.0264999999927,
      "v": 100
    },
    {
      "midi": 42,
      "hit": false,
      "t": 110437.49734999934,
      "d": 198.67549999999756,
      "v": 100
    },
    {
      "midi": 62,
      "hit": false,
      "t": 110437.49734999934,
      "d": 198.67549999999756,
      "v": 90
    },
    {
      "midi": 42,
      "hit": false,
      "t": 110636.17284999933,
      "d": 198.67549999999756,
      "v": 100
    },
    {
      "midi": 69,
      "hit": false,
      "t": 110636.17284999933,
      "d": 198.67549999999756,
      "v": 100
    },
    {
      "midi": 38,
      "hit": false,
      "t": 110636.17284999933,
      "d": 198.67549999999756,
      "v": 100
    },
    {
      "midi": 59,
      "hit": false,
      "t": 110636.17284999933,
      "d": 397.3509999999951,
      "v": 90
    },
    {
      "midi": 42,
      "hit": false,
      "t": 110834.84834999933,
      "d": 198.67549999999756,
      "v": 100
    },
    {
      "midi": 66,
      "hit": false,
      "t": 110834.84834999933,
      "d": 198.67549999999756,
      "v": 100
    },
    {
      "midi": 62,
      "hit": false,
      "t": 110834.84834999933,
      "d": 198.67549999999756,
      "v": 100
    },
    {
      "midi": 43,
      "hit": false,
      "t": 110834.84834999933,
      "d": 397.3509999999951,
      "v": 100
    },
    {
      "midi": 69,
      "hit": false,
      "t": 110834.84834999933,
      "d": 993.3775000000023,
      "v": 100
    },
    {
      "midi": 42,
      "hit": false,
      "t": 111033.52384999933,
      "d": 198.67549999999756,
      "v": 100
    },
    {
      "midi": 61,
      "hit": false,
      "t": 111033.52384999933,
      "d": 198.67549999999756,
      "v": 90
    },
    {
      "midi": 36,
      "hit": false,
      "t": 111033.52384999933,
      "d": 397.3509999999951,
      "v": 100
    },
    {
      "midi": 42,
      "hit": false,
      "t": 111232.19934999933,
      "d": 198.67549999999756,
      "v": 100
    },
    {
      "midi": 43,
      "hit": false,
      "t": 111232.19934999933,
      "d": 397.3509999999951,
      "v": 100
    },
    {
      "midi": 62,
      "hit": false,
      "t": 111232.19934999933,
      "d": 596.0265000000072,
      "v": 90
    },
    {
      "midi": 66,
      "hit": false,
      "t": 111232.19934999933,
      "d": 596.0265000000072,
      "v": 90
    },
    {
      "midi": 59,
      "hit": false,
      "t": 111232.19934999933,
      "d": 596.0265000000072,
      "v": 90
    },
    {
      "midi": 38,
      "hit": false,
      "t": 111430.87484999932,
      "d": 198.67549999999756,
      "v": 100
    },
    {
      "midi": 42,
      "hit": false,
      "t": 111629.55034999932,
      "d": 99.33775000000605,
      "v": 100
    },
    {
      "midi": 43,
      "hit": false,
      "t": 111629.55034999932,
      "d": 198.6755000000121,
      "v": 100
    },
    {
      "midi": 42,
      "hit": false,
      "t": 111728.88809999933,
      "d": 99.33775000000605,
      "v": 100
    },
    {
      "midi": 43,
      "hit": false,
      "t": 111828.22584999933,
      "d": 198.67549999999756,
      "v": 100
    },
    {
      "midi": 36,
      "hit": false,
      "t": 111828.22584999933,
      "d": 397.3509999999951,
      "v": 100
    },
    {
      "midi": 71,
      "hit": false,
      "t": 111828.22584999933,
      "d": 397.3509999999951,
      "v": 100
    },
    {
      "midi": 74,
      "hit": false,
      "t": 111828.22584999933,
      "d": 397.3509999999951,
      "v": 100
    },
    {
      "midi": 81,
      "hit": false,
      "t": 111828.22584999933,
      "d": 397.3509999999951,
      "v": 100
    },
    {
      "midi": 78,
      "hit": false,
      "t": 111828.22584999933,
      "d": 397.3509999999951,
      "v": 100
    },
    {
      "midi": 46,
      "hit": false,
      "t": 111828.22584999933,
      "d": 397.3509999999951,
      "v": 100
    },
    {
      "midi": 61,
      "hit": false,
      "t": 111828.22584999933,
      "d": 397.3509999999951,
      "v": 92
    },
    {
      "midi": 57,
      "hit": false,
      "t": 111828.22584999933,
      "d": 397.3509999999951,
      "v": 92
    },
    {
      "midi": 38,
      "hit": false,
      "t": 112026.90134999933,
      "d": 198.67549999999756,
      "v": 100
    },
    {
      "midi": 38,
      "hit": false,
      "t": 112225.57684999933,
      "d": 198.67549999999756,
      "v": 100
    },
    {
      "midi": 57,
      "hit": false,
      "t": 112225.57684999933,
      "d": 198.67549999999756,
      "v": 92
    },
    {
      "midi": 40,
      "hit": false,
      "t": 112225.57684999933,
      "d": 198.67549999999756,
      "v": 100
    },
    {
      "midi": 73,
      "hit": false,
      "t": 112225.57684999933,
      "d": 198.67549999999756,
      "v": 100
    },
    {
      "midi": 69,
      "hit": false,
      "t": 112225.57684999933,
      "d": 198.67549999999756,
      "v": 100
    },
    {
      "midi": 61,
      "hit": false,
      "t": 112225.57684999933,
      "d": 198.67549999999756,
      "v": 92
    },
    {
      "midi": 46,
      "hit": false,
      "t": 112424.25234999933,
      "d": 198.67549999999756,
      "v": 100
    },
    {
      "midi": 59,
      "hit": false,
      "t": 112424.25234999933,
      "d": 198.67549999999756,
      "v": 92
    },
    {
      "midi": 42,
      "hit": false,
      "t": 112424.25234999933,
      "d": 198.67549999999756,
      "v": 100
    },
    {
      "midi": 71,
      "hit": false,
      "t": 112424.25234999933,
      "d": 198.67549999999756,
      "v": 100
    },
    {
      "midi": 74,
      "hit": false,
      "t": 112424.25234999933,
      "d": 198.67549999999756,
      "v": 100
    },
    {
      "midi": 62,
      "hit": false,
      "t": 112424.25234999933,
      "d": 198.67549999999756,
      "v": 92
    },
    {
      "midi": 36,
      "hit": false,
      "t": 112424.25234999933,
      "d": 198.67549999999756,
      "v": 100
    },
    {
      "midi": 42,
      "hit": false,
      "t": 112622.92784999932,
      "d": 198.67549999999756,
      "v": 100
    },
    {
      "midi": 42,
      "hit": false,
      "t": 112821.60334999932,
      "d": 198.67549999999756,
      "v": 100
    },
    {
      "midi": 36,
      "hit": false,
      "t": 112821.60334999932,
      "d": 198.67549999999756,
      "v": 100
    },
    {
      "midi": 43,
      "hit": false,
      "t": 112821.60334999932,
      "d": 397.3509999999951,
      "v": 100
    },
    {
      "midi": 64,
      "hit": false,
      "t": 112821.60334999932,
      "d": 596.0265000000072,
      "v": 92
    },
    {
      "midi": 73,
      "hit": false,
      "t": 112821.60334999932,
      "d": 596.0265000000072,
      "v": 100
    },
    {
      "midi": 61,
      "hit": false,
      "t": 112821.60334999932,
      "d": 596.0265000000072,
      "v": 92
    },
    {
      "midi": 76,
      "hit": false,
      "t": 112821.60334999932,
      "d": 596.0265000000072,
      "v": 100
    },
    {
      "midi": 42,
      "hit": false,
      "t": 113020.27884999932,
      "d": 198.67549999999756,
      "v": 100
    },
    {
      "midi": 40,
      "hit": false,
      "t": 113020.27884999932,
      "d": 198.67549999999756,
      "v": 100
    },
    {
      "midi": 69,
      "hit": false,
      "t": 113218.95434999932,
      "d": 99.33775000000605,
      "v": 82
    },
    {
      "midi": 62,
      "hit": false,
      "t": 113218.95434999932,
      "d": 99.33775000000605,
      "v": 82
    },
    {
      "midi": 54,
      "hit": false,
      "t": 113218.95434999932,
      "d": 99.33775000000605,
      "v": 82
    },
    {
      "midi": 57,
      "hit": false,
      "t": 113218.95434999932,
      "d": 99.33775000000605,
      "v": 82
    },
    {
      "midi": 47,
      "hit": false,
      "t": 113218.95434999932,
      "d": 99.33775000000605,
      "v": 82
    },
    {
      "midi": 42,
      "hit": false,
      "t": 113218.95434999932,
      "d": 198.6755000000121,
      "v": 100
    },
    {
      "midi": 36,
      "hit": false,
      "t": 113218.95434999932,
      "d": 198.6755000000121,
      "v": 100
    },
    {
      "midi": 69,
      "hit": false,
      "t": 113318.29209999932,
      "d": 99.33775000000605,
      "v": 78
    },
    {
      "midi": 47,
      "hit": false,
      "t": 113318.29209999932,
      "d": 99.33775000000605,
      "v": 78
    },
    {
      "midi": 54,
      "hit": false,
      "t": 113318.29209999932,
      "d": 99.33775000000605,
      "v": 78
    },
    {
      "midi": 62,
      "hit": false,
      "t": 113318.29209999932,
      "d": 99.33775000000605,
      "v": 78
    },
    {
      "midi": 57,
      "hit": false,
      "t": 113318.29209999932,
      "d": 99.33775000000605,
      "v": 78
    },
    {
      "midi": 57,
      "hit": false,
      "t": 113417.62984999933,
      "d": 198.67549999999756,
      "v": 100
    },
    {
      "midi": 62,
      "hit": false,
      "t": 113417.62984999933,
      "d": 198.67549999999756,
      "v": 92
    },
    {
      "midi": 36,
      "hit": false,
      "t": 113417.62984999933,
      "d": 397.3509999999951,
      "v": 100
    },
    {
      "midi": 43,
      "hit": false,
      "t": 113417.62984999933,
      "d": 397.3509999999951,
      "v": 100
    },
    {
      "midi": 47,
      "hit": false,
      "t": 113417.62984999933,
      "d": 1589.4039999999804,
      "v": 74
    },
    {
      "midi": 54,
      "hit": false,
      "t": 113417.62984999933,
      "d": 1589.4039999999804,
      "v": 74
    },
    {
      "midi": 69,
      "hit": false,
      "t": 113417.62984999933,
      "d": 1589.4039999999804,
      "v": 74
    },
    {
      "midi": 59,
      "hit": false,
      "t": 113417.62984999933,
      "d": 1589.4039999999804,
      "v": 100
    },
    {
      "midi": 42,
      "hit": false,
      "t": 113616.30534999933,
      "d": 198.67549999999756,
      "v": 100
    },
    {
      "midi": 62,
      "hit": false,
      "t": 113616.30534999933,
      "d": 198.67549999999756,
      "v": 92
    },
    {
      "midi": 42,
      "hit": false,
      "t": 113814.98084999932,
      "d": 198.67549999999756,
      "v": 100
    },
    {
      "midi": 38,
      "hit": false,
      "t": 113814.98084999932,
      "d": 198.67549999999756,
      "v": 100
    },
    {
      "midi": 43,
      "hit": false,
      "t": 113814.98084999932,
      "d": 198.67549999999756,
      "v": 100
    },
    {
      "midi": 66,
      "hit": false,
      "t": 113814.98084999932,
      "d": 397.3509999999951,
      "v": 92
    },
    {
      "midi": 57,
      "hit": false,
      "t": 113814.98084999932,
      "d": 397.3509999999951,
      "v": 92
    },
    {
      "midi": 62,
      "hit": false,
      "t": 113814.98084999932,
      "d": 397.3509999999951,
      "v": 92
    },
    {
      "midi": 42,
      "hit": false,
      "t": 114013.65634999932,
      "d": 198.67549999999756,
      "v": 100
    },
    {
      "midi": 38,
      "hit": false,
      "t": 114013.65634999932,
      "d": 397.3509999999951,
      "v": 100
    },
    {
      "midi": 42,
      "hit": false,
      "t": 114212.33184999932,
      "d": 198.67549999999756,
      "v": 100
    },
    {
      "midi": 62,
      "hit": false,
      "t": 114212.33184999932,
      "d": 198.67549999999756,
      "v": 92
    },
    {
      "midi": 36,
      "hit": false,
      "t": 114212.33184999932,
      "d": 397.3509999999951,
      "v": 100
    },
    {
      "midi": 42,
      "hit": false,
      "t": 114411.00734999932,
      "d": 198.67549999999756,
      "v": 100
    },
    {
      "midi": 38,
      "hit": false,
      "t": 114411.00734999932,
      "d": 198.67549999999756,
      "v": 100
    },
    {
      "midi": 66,
      "hit": false,
      "t": 114411.00734999932,
      "d": 198.67549999999756,
      "v": 92
    },
    {
      "midi": 57,
      "hit": false,
      "t": 114411.00734999932,
      "d": 596.0264999999927,
      "v": 92
    },
    {
      "midi": 62,
      "hit": false,
      "t": 114411.00734999932,
      "d": 596.0264999999927,
      "v": 92
    },
    {
      "midi": 42,
      "hit": false,
      "t": 114609.68284999931,
      "d": 198.67549999999756,
      "v": 100
    },
    {
      "midi": 38,
      "hit": false,
      "t": 114609.68284999931,
      "d": 198.67549999999756,
      "v": 100
    },
    {
      "midi": 43,
      "hit": false,
      "t": 114609.68284999931,
      "d": 198.67549999999756,
      "v": 100
    },
    {
      "midi": 71,
      "hit": false,
      "t": 114609.68284999931,
      "d": 198.67549999999756,
      "v": 100
    },
    {
      "midi": 42,
      "hit": false,
      "t": 114808.35834999931,
      "d": 198.67549999999756,
      "v": 100
    },
    {
      "midi": 73,
      "hit": false,
      "t": 114808.35834999931,
      "d": 198.67549999999756,
      "v": 100
    },
    {
      "midi": 38,
      "hit": false,
      "t": 114808.35834999931,
      "d": 198.67549999999756,
      "v": 100
    },
    {
      "midi": 42,
      "hit": false,
      "t": 115007.03384999931,
      "d": 198.67549999999756,
      "v": 100
    },
    {
      "midi": 62,
      "hit": false,
      "t": 115007.03384999931,
      "d": 198.67549999999756,
      "v": 92
    },
    {
      "midi": 36,
      "hit": false,
      "t": 115007.03384999931,
      "d": 397.3509999999951,
      "v": 100
    },
    {
      "midi": 74,
      "hit": false,
      "t": 115007.03384999931,
      "d": 397.3509999999951,
      "v": 100
    },
    {
      "midi": 42,
      "hit": false,
      "t": 115205.7093499993,
      "d": 198.67549999999756,
      "v": 100
    },
    {
      "midi": 62,
      "hit": false,
      "t": 115205.7093499993,
      "d": 198.67549999999756,
      "v": 92
    },
    {
      "midi": 38,
      "hit": false,
      "t": 115404.3848499993,
      "d": 198.67549999999756,
      "v": 100
    },
    {
      "midi": 42,
      "hit": false,
      "t": 115404.3848499993,
      "d": 198.67549999999756,
      "v": 100
    },
    {
      "midi": 74,
      "hit": false,
      "t": 115404.3848499993,
      "d": 198.67549999999756,
      "v": 100
    },
    {
      "midi": 61,
      "hit": false,
      "t": 115404.3848499993,
      "d": 397.3509999999951,
      "v": 92
    },
    {
      "midi": 66,
      "hit": false,
      "t": 115404.3848499993,
      "d": 397.3509999999951,
      "v": 92
    },
    {
      "midi": 57,
      "hit": false,
      "t": 115404.3848499993,
      "d": 397.3509999999951,
      "v": 92
    },
    {
      "midi": 42,
      "hit": false,
      "t": 115603.0603499993,
      "d": 198.67549999999756,
      "v": 100
    },
    {
      "midi": 38,
      "hit": false,
      "t": 115603.0603499993,
      "d": 397.3509999999951,
      "v": 100
    },
    {
      "midi": 73,
      "hit": false,
      "t": 115603.0603499993,
      "d": 397.3509999999951,
      "v": 100
    },
    {
      "midi": 42,
      "hit": false,
      "t": 115801.7358499993,
      "d": 198.67549999999756,
      "v": 100
    },
    {
      "midi": 62,
      "hit": false,
      "t": 115801.7358499993,
      "d": 198.67549999999756,
      "v": 92
    },
    {
      "midi": 36,
      "hit": false,
      "t": 115801.7358499993,
      "d": 397.3509999999951,
      "v": 100
    },
    {
      "midi": 42,
      "hit": false,
      "t": 116000.4113499993,
      "d": 198.67549999999756,
      "v": 100
    },
    {
      "midi": 38,
      "hit": false,
      "t": 116000.4113499993,
      "d": 198.67549999999756,
      "v": 100
    },
    {
      "midi": 69,
      "hit": false,
      "t": 116000.4113499993,
      "d": 397.3509999999951,
      "v": 100
    },
    {
      "midi": 66,
      "hit": false,
      "t": 116000.4113499993,
      "d": 596.0264999999927,
      "v": 92
    },
    {
      "midi": 57,
      "hit": false,
      "t": 116000.4113499993,
      "d": 596.0264999999927,
      "v": 92
    },
    {
      "midi": 61,
      "hit": false,
      "t": 116000.4113499993,
      "d": 596.0264999999927,
      "v": 92
    },
    {
      "midi": 38,
      "hit": false,
      "t": 116199.0868499993,
      "d": 198.67549999999756,
      "v": 100
    },
    {
      "midi": 42,
      "hit": false,
      "t": 116199.0868499993,
      "d": 198.67549999999756,
      "v": 100
    },
    {
      "midi": 37,
      "hit": false,
      "t": 116199.0868499993,
      "d": 198.67549999999756,
      "v": 100
    },
    {
      "midi": 36,
      "hit": false,
      "t": 116397.76234999929,
      "d": 198.67549999999756,
      "v": 100
    },
    {
      "midi": 64,
      "hit": false,
      "t": 116397.76234999929,
      "d": 198.67549999999756,
      "v": 100
    },
    {
      "midi": 38,
      "hit": false,
      "t": 116397.76234999929,
      "d": 198.67549999999756,
      "v": 100
    },
    {
      "midi": 42,
      "hit": false,
      "t": 116397.76234999929,
      "d": 198.67549999999756,
      "v": 100
    },
    {
      "midi": 42,
      "hit": false,
      "t": 116596.43784999929,
      "d": 198.67549999999756,
      "v": 100
    },
    {
      "midi": 62,
      "hit": false,
      "t": 116596.43784999929,
      "d": 198.67549999999756,
      "v": 91
    },
    {
      "midi": 36,
      "hit": false,
      "t": 116596.43784999929,
      "d": 397.3509999999951,
      "v": 100
    },
    {
      "midi": 69,
      "hit": false,
      "t": 116596.43784999929,
      "d": 596.0264999999927,
      "v": 100
    },
    {
      "midi": 40,
      "hit": false,
      "t": 116596.43784999929,
      "d": 596.0264999999927,
      "v": 100
    },
    {
      "midi": 42,
      "hit": false,
      "t": 116795.11334999929,
      "d": 198.67549999999756,
      "v": 100
    },
    {
      "midi": 62,
      "hit": false,
      "t": 116795.11334999929,
      "d": 198.67549999999756,
      "v": 91
    },
    {
      "midi": 38,
      "hit": false,
      "t": 116993.78884999928,
      "d": 198.67549999999756,
      "v": 100
    },
    {
      "midi": 62,
      "hit": false,
      "t": 116993.78884999928,
      "d": 198.67549999999756,
      "v": 91
    },
    {
      "midi": 42,
      "hit": false,
      "t": 116993.78884999928,
      "d": 198.67549999999756,
      "v": 100
    },
    {
      "midi": 59,
      "hit": false,
      "t": 116993.78884999928,
      "d": 198.67549999999756,
      "v": 91
    },
    {
      "midi": 66,
      "hit": false,
      "t": 116993.78884999928,
      "d": 397.3509999999951,
      "v": 91
    },
    {
      "midi": 42,
      "hit": false,
      "t": 117192.46434999928,
      "d": 198.67549999999756,
      "v": 100
    },
    {
      "midi": 38,
      "hit": false,
      "t": 117192.46434999928,
      "d": 198.67549999999756,
      "v": 100
    },
    {
      "midi": 59,
      "hit": false,
      "t": 117192.46434999928,
      "d": 198.67549999999756,
      "v": 100
    },
    {
      "midi": 62,
      "hit": false,
      "t": 117192.46434999928,
      "d": 198.67549999999756,
      "v": 100
    },
    {
      "midi": 71,
      "hit": false,
      "t": 117192.46434999928,
      "d": 596.0264999999927,
      "v": 100
    },
    {
      "midi": 69,
      "hit": false,
      "t": 117192.46434999928,
      "d": 993.3774999999878,
      "v": 100
    },
    {
      "midi": 42,
      "hit": false,
      "t": 117391.13984999928,
      "d": 198.67549999999756,
      "v": 100
    },
    {
      "midi": 62,
      "hit": false,
      "t": 117391.13984999928,
      "d": 198.67549999999756,
      "v": 91
    },
    {
      "midi": 40,
      "hit": false,
      "t": 117391.13984999928,
      "d": 198.67549999999756,
      "v": 100
    },
    {
      "midi": 36,
      "hit": false,
      "t": 117391.13984999928,
      "d": 397.3509999999951,
      "v": 100
    },
    {
      "midi": 42,
      "hit": false,
      "t": 117589.81534999928,
      "d": 198.67549999999756,
      "v": 100
    },
    {
      "midi": 59,
      "hit": false,
      "t": 117589.81534999928,
      "d": 596.0264999999927,
      "v": 91
    },
    {
      "midi": 66,
      "hit": false,
      "t": 117589.81534999928,
      "d": 596.0264999999927,
      "v": 91
    },
    {
      "midi": 38,
      "hit": false,
      "t": 117788.49084999927,
      "d": 198.67549999999756,
      "v": 100
    },
    {
      "midi": 42,
      "hit": false,
      "t": 117788.49084999927,
      "d": 198.67549999999756,
      "v": 100
    },
    {
      "midi": 43,
      "hit": false,
      "t": 117788.49084999927,
      "d": 198.67549999999756,
      "v": 100
    },
    {
      "midi": 62,
      "hit": false,
      "t": 117788.49084999927,
      "d": 397.3509999999951,
      "v": 100
    },
    {
      "midi": 42,
      "hit": false,
      "t": 117987.16634999927,
      "d": 198.67549999999756,
      "v": 100
    },
    {
      "midi": 45,
      "hit": false,
      "t": 117987.16634999927,
      "d": 198.67549999999756,
      "v": 100
    },
    {
      "midi": 42,
      "hit": false,
      "t": 118185.84184999927,
      "d": 198.67549999999756,
      "v": 100
    },
    {
      "midi": 62,
      "hit": false,
      "t": 118185.84184999927,
      "d": 198.67549999999756,
      "v": 91
    },
    {
      "midi": 47,
      "hit": false,
      "t": 118185.84184999927,
      "d": 397.3509999999951,
      "v": 100
    },
    {
      "midi": 36,
      "hit": false,
      "t": 118185.84184999927,
      "d": 397.3509999999951,
      "v": 100
    },
    {
      "midi": 71,
      "hit": false,
      "t": 118185.84184999927,
      "d": 397.3509999999951,
      "v": 100
    },
    {
      "midi": 79,
      "hit": false,
      "t": 118185.84184999927,
      "d": 397.3509999999951,
      "v": 100
    },
    {
      "midi": 42,
      "hit": false,
      "t": 118384.51734999927,
      "d": 198.67549999999756,
      "v": 100
    },
    {
      "midi": 62,
      "hit": false,
      "t": 118384.51734999927,
      "d": 198.67549999999756,
      "v": 91
    },
    {
      "midi": 42,
      "hit": false,
      "t": 118583.19284999926,
      "d": 198.67549999999756,
      "v": 100
    },
    {
      "midi": 71,
      "hit": false,
      "t": 118583.19284999926,
      "d": 198.67549999999756,
      "v": 100
    },
    {
      "midi": 79,
      "hit": false,
      "t": 118583.19284999926,
      "d": 198.67549999999756,
      "v": 100
    },
    {
      "midi": 45,
      "hit": false,
      "t": 118583.19284999926,
      "d": 198.67549999999756,
      "v": 100
    },
    {
      "midi": 66,
      "hit": false,
      "t": 118583.19284999926,
      "d": 397.3509999999951,
      "v": 91
    },
    {
      "midi": 62,
      "hit": false,
      "t": 118583.19284999926,
      "d": 397.3509999999951,
      "v": 91
    },
    {
      "midi": 59,
      "hit": false,
      "t": 118583.19284999926,
      "d": 397.3509999999951,
      "v": 91
    },
    {
      "midi": 42,
      "hit": false,
      "t": 118781.86834999926,
      "d": 198.67549999999756,
      "v": 100
    },
    {
      "midi": 36,
      "hit": false,
      "t": 118781.86834999926,
      "d": 198.67549999999756,
      "v": 100
    },
    {
      "midi": 69,
      "hit": false,
      "t": 118781.86834999926,
      "d": 397.3509999999951,
      "v": 100
    },
    {
      "midi": 78,
      "hit": false,
      "t": 118781.86834999926,
      "d": 397.3509999999951,
      "v": 100
    },
    {
      "midi": 47,
      "hit": false,
      "t": 118781.86834999926,
      "d": 397.3509999999951,
      "v": 100
    },
    {
      "midi": 42,
      "hit": false,
      "t": 118980.54384999926,
      "d": 198.67549999999756,
      "v": 100
    },
    {
      "midi": 62,
      "hit": false,
      "t": 118980.54384999926,
      "d": 198.67549999999756,
      "v": 91
    },
    {
      "midi": 42,
      "hit": false,
      "t": 119179.21934999926,
      "d": 198.67549999999756,
      "v": 100
    },
    {
      "midi": 36,
      "hit": false,
      "t": 119179.21934999926,
      "d": 198.67549999999756,
      "v": 100
    },
    {
      "midi": 45,
      "hit": false,
      "t": 119179.21934999926,
      "d": 198.67549999999756,
      "v": 100
    },
    {
      "midi": 62,
      "hit": false,
      "t": 119179.21934999926,
      "d": 596.0264999999927,
      "v": 91
    },
    {
      "midi": 66,
      "hit": false,
      "t": 119179.21934999926,
      "d": 596.0264999999927,
      "v": 91
    },
    {
      "midi": 59,
      "hit": false,
      "t": 119179.21934999926,
      "d": 596.0264999999927,
      "v": 91
    },
    {
      "midi": 74,
      "hit": false,
      "t": 119179.21934999926,
      "d": 596.0264999999927,
      "v": 100
    },
    {
      "midi": 42,
      "hit": false,
      "t": 119377.89484999925,
      "d": 198.67549999999756,
      "v": 100
    },
    {
      "midi": 42,
      "hit": false,
      "t": 119576.57034999925,
      "d": 198.67549999999756,
      "v": 100
    },
    {
      "midi": 64,
      "hit": false,
      "t": 119576.57034999925,
      "d": 198.67549999999756,
      "v": 100
    },
    {
      "midi": 38,
      "hit": false,
      "t": 119576.57034999925,
      "d": 198.67549999999756,
      "v": 100
    },
    {
      "midi": 42,
      "hit": false,
      "t": 119775.24584999925,
      "d": 198.67549999999756,
      "v": 100
    },
    {
      "midi": 62,
      "hit": false,
      "t": 119775.24584999925,
      "d": 198.67549999999756,
      "v": 91
    },
    {
      "midi": 36,
      "hit": false,
      "t": 119775.24584999925,
      "d": 397.3509999999951,
      "v": 100
    },
    {
      "midi": 69,
      "hit": false,
      "t": 119775.24584999925,
      "d": 397.3509999999951,
      "v": 100
    },
    {
      "midi": 40,
      "hit": false,
      "t": 119775.24584999925,
      "d": 397.3509999999951,
      "v": 100
    },
    {
      "midi": 67,
      "hit": false,
      "t": 119775.24584999925,
      "d": 1589.4039999999804,
      "v": 100
    },
    {
      "midi": 42,
      "hit": false,
      "t": 119973.92134999925,
      "d": 198.67549999999756,
      "v": 100
    },
    {
      "midi": 62,
      "hit": false,
      "t": 119973.92134999925,
      "d": 198.67549999999756,
      "v": 90
    },
    {
      "midi": 42,
      "hit": false,
      "t": 120172.59684999925,
      "d": 198.67549999999756,
      "v": 100
    },
    {
      "midi": 38,
      "hit": false,
      "t": 120172.59684999925,
      "d": 198.67549999999756,
      "v": 100
    },
    {
      "midi": 71,
      "hit": false,
      "t": 120172.59684999925,
      "d": 198.67549999999756,
      "v": 100
    },
    {
      "midi": 40,
      "hit": false,
      "t": 120172.59684999925,
      "d": 198.67549999999756,
      "v": 100
    },
    {
      "midi": 66,
      "hit": false,
      "t": 120172.59684999925,
      "d": 397.3509999999951,
      "v": 90
    },
    {
      "midi": 59,
      "hit": false,
      "t": 120172.59684999925,
      "d": 397.3509999999951,
      "v": 90
    },
    {
      "midi": 62,
      "hit": false,
      "t": 120172.59684999925,
      "d": 397.3509999999951,
      "v": 90
    },
    {
      "midi": 42,
      "hit": false,
      "t": 120371.27234999924,
      "d": 198.67549999999756,
      "v": 100
    },
    {
      "midi": 40,
      "hit": false,
      "t": 120371.27234999924,
      "d": 198.67549999999756,
      "v": 100
    },
    {
      "midi": 69,
      "hit": false,
      "t": 120371.27234999924,
      "d": 397.3509999999951,
      "v": 100
    },
    {
      "midi": 42,
      "hit": false,
      "t": 120569.94784999924,
      "d": 198.67549999999756,
      "v": 100
    },
    {
      "midi": 62,
      "hit": false,
      "t": 120569.94784999924,
      "d": 198.67549999999756,
      "v": 90
    },
    {
      "midi": 40,
      "hit": false,
      "t": 120569.94784999924,
      "d": 198.67549999999756,
      "v": 100
    },
    {
      "midi": 36,
      "hit": false,
      "t": 120569.94784999924,
      "d": 397.3509999999951,
      "v": 100
    },
    {
      "midi": 42,
      "hit": false,
      "t": 120768.62334999924,
      "d": 198.67549999999756,
      "v": 100
    },
    {
      "midi": 40,
      "hit": false,
      "t": 120768.62334999924,
      "d": 198.67549999999756,
      "v": 100
    },
    {
      "midi": 59,
      "hit": false,
      "t": 120768.62334999924,
      "d": 596.0264999999927,
      "v": 90
    },
    {
      "midi": 62,
      "hit": false,
      "t": 120768.62334999924,
      "d": 596.0264999999927,
      "v": 90
    },
    {
      "midi": 66,
      "hit": false,
      "t": 120768.62334999924,
      "d": 596.0264999999927,
      "v": 90
    },
    {
      "midi": 71,
      "hit": false,
      "t": 120768.62334999924,
      "d": 596.0264999999927,
      "v": 100
    },
    {
      "midi": 42,
      "hit": false,
      "t": 120967.29884999924,
      "d": 198.67549999999756,
      "v": 100
    },
    {
      "midi": 38,
      "hit": false,
      "t": 120967.29884999924,
      "d": 198.67549999999756,
      "v": 100
    },
    {
      "midi": 42,
      "hit": false,
      "t": 121165.97434999923,
      "d": 198.67549999999756,
      "v": 100
    },
    {
      "midi": 40,
      "hit": false,
      "t": 121165.97434999923,
      "d": 198.67549999999756,
      "v": 100
    },
    {
      "midi": 42,
      "hit": false,
      "t": 121364.64984999923,
      "d": 198.67549999999756,
      "v": 100
    },
    {
      "midi": 69,
      "hit": false,
      "t": 121364.64984999923,
      "d": 198.67549999999756,
      "v": 100
    },
    {
      "midi": 62,
      "hit": false,
      "t": 121364.64984999923,
      "d": 198.67549999999756,
      "v": 89
    },
    {
      "midi": 36,
      "hit": false,
      "t": 121364.64984999923,
      "d": 397.3509999999951,
      "v": 100
    },
    {
      "midi": 42,
      "hit": false,
      "t": 121563.32534999923,
      "d": 198.67549999999756,
      "v": 100
    },
    {
      "midi": 62,
      "hit": false,
      "t": 121563.32534999923,
      "d": 198.67549999999756,
      "v": 89
    },
    {
      "midi": 73,
      "hit": false,
      "t": 121563.32534999923,
      "d": 397.3509999999951,
      "v": 100
    },
    {
      "midi": 42,
      "hit": false,
      "t": 121762.00084999923,
      "d": 198.67549999999756,
      "v": 100
    },
    {
      "midi": 61,
      "hit": false,
      "t": 121762.00084999923,
      "d": 198.67549999999756,
      "v": 89
    },
    {
      "midi": 38,
      "hit": false,
      "t": 121762.00084999923,
      "d": 198.67549999999756,
      "v": 100
    },
    {
      "midi": 66,
      "hit": false,
      "t": 121762.00084999923,
      "d": 397.3509999999951,
      "v": 89
    },
    {
      "midi": 57,
      "hit": false,
      "t": 121762.00084999923,
      "d": 397.3509999999951,
      "v": 89
    },
    {
      "midi": 42,
      "hit": false,
      "t": 121960.67634999922,
      "d": 198.67549999999756,
      "v": 100
    },
    {
      "midi": 69,
      "hit": false,
      "t": 121960.67634999922,
      "d": 596.0264999999927,
      "v": 100
    },
    {
      "midi": 76,
      "hit": false,
      "t": 121960.67634999922,
      "d": 596.0264999999927,
      "v": 100
    },
    {
      "midi": 42,
      "hit": false,
      "t": 122159.35184999922,
      "d": 198.67549999999756,
      "v": 100
    },
    {
      "midi": 62,
      "hit": false,
      "t": 122159.35184999922,
      "d": 198.67549999999756,
      "v": 89
    },
    {
      "midi": 36,
      "hit": false,
      "t": 122159.35184999922,
      "d": 397.3509999999951,
      "v": 100
    },
    {
      "midi": 42,
      "hit": false,
      "t": 122358.02734999922,
      "d": 198.67549999999756,
      "v": 100
    },
    {
      "midi": 57,
      "hit": false,
      "t": 122358.02734999922,
      "d": 596.0264999999927,
      "v": 89
    },
    {
      "midi": 61,
      "hit": false,
      "t": 122358.02734999922,
      "d": 596.0264999999927,
      "v": 89
    },
    {
      "midi": 66,
      "hit": false,
      "t": 122358.02734999922,
      "d": 596.0264999999927,
      "v": 89
    },
    {
      "midi": 45,
      "hit": false,
      "t": 122556.70284999922,
      "d": 198.67549999999756,
      "v": 100
    },
    {
      "midi": 73,
      "hit": false,
      "t": 122556.70284999922,
      "d": 198.67549999999756,
      "v": 100
    },
    {
      "midi": 49,
      "hit": false,
      "t": 122556.70284999922,
      "d": 397.3509999999951,
      "v": 100
    },
    {
      "midi": 64,
      "hit": false,
      "t": 122556.70284999922,
      "d": 397.3509999999951,
      "v": 100
    },
    {
      "midi": 38,
      "hit": false,
      "t": 122556.70284999922,
      "d": 397.3509999999951,
      "v": 100
    },
    {
      "midi": 69,
      "hit": false,
      "t": 122556.70284999922,
      "d": 397.3509999999951,
      "v": 100
    },
    {
      "midi": 42,
      "hit": false,
      "t": 122755.37834999921,
      "d": 198.67549999999756,
      "v": 100
    },
    {
      "midi": 74,
      "hit": false,
      "t": 122755.37834999921,
      "d": 2582.781499999968,
      "v": 100
    },
    {
      "midi": 49,
      "hit": false,
      "t": 122954.05384999921,
      "d": 198.67549999999756,
      "v": 100
    },
    {
      "midi": 36,
      "hit": false,
      "t": 122954.05384999921,
      "d": 397.3509999999951,
      "v": 100
    },
    {
      "midi": 47,
      "hit": false,
      "t": 122954.05384999921,
      "d": 397.3509999999951,
      "v": 100
    },
    {
      "midi": 66,
      "hit": false,
      "t": 122954.05384999921,
      "d": 1589.4039999999804,
      "v": 100
    },
    {
      "midi": 57,
      "hit": false,
      "t": 122954.05384999921,
      "d": 1589.4039999999804,
      "v": 100
    },
    {
      "midi": 62,
      "hit": false,
      "t": 122954.05384999921,
      "d": 1589.4039999999804,
      "v": 100
    },
    {
      "midi": 42,
      "hit": false,
      "t": 123152.72934999921,
      "d": 198.67549999999756,
      "v": 100
    },
    {
      "midi": 42,
      "hit": false,
      "t": 123351.4048499992,
      "d": 198.67549999999756,
      "v": 100
    },
    {
      "midi": 38,
      "hit": false,
      "t": 123351.4048499992,
      "d": 198.67549999999756,
      "v": 100
    },
    {
      "midi": 45,
      "hit": false,
      "t": 123351.4048499992,
      "d": 198.67549999999756,
      "v": 100
    },
    {
      "midi": 42,
      "hit": false,
      "t": 123550.0803499992,
      "d": 198.67549999999756,
      "v": 100
    },
    {
      "midi": 47,
      "hit": false,
      "t": 123550.0803499992,
      "d": 397.3509999999951,
      "v": 100
    },
    {
      "midi": 42,
      "hit": false,
      "t": 123748.7558499992,
      "d": 198.67549999999756,
      "v": 100
    },
    {
      "midi": 36,
      "hit": false,
      "t": 123748.7558499992,
      "d": 397.3509999999951,
      "v": 100
    },
    {
      "midi": 42,
      "hit": false,
      "t": 123947.4313499992,
      "d": 198.67549999999756,
      "v": 100
    },
    {
      "midi": 45,
      "hit": false,
      "t": 123947.4313499992,
      "d": 198.67549999999756,
      "v": 100
    },
    {
      "midi": 42,
      "hit": false,
      "t": 124146.1068499992,
      "d": 198.67549999999756,
      "v": 100
    },
    {
      "midi": 38,
      "hit": false,
      "t": 124146.1068499992,
      "d": 198.67549999999756,
      "v": 100
    },
    {
      "midi": 47,
      "hit": false,
      "t": 124146.1068499992,
      "d": 198.67549999999756,
      "v": 100
    },
    {
      "midi": 42,
      "hit": false,
      "t": 124344.7823499992,
      "d": 198.67549999999756,
      "v": 100
    },
    {
      "midi": 50,
      "hit": false,
      "t": 124344.7823499992,
      "d": 198.67549999999756,
      "v": 100
    },
    {
      "midi": 42,
      "hit": false,
      "t": 124543.45784999919,
      "d": 198.67549999999756,
      "v": 100
    },
    {
      "midi": 66,
      "hit": false,
      "t": 124543.45784999919,
      "d": 198.67549999999756,
      "v": 100
    },
    {
      "midi": 62,
      "hit": false,
      "t": 124543.45784999919,
      "d": 198.67549999999756,
      "v": 100
    },
    {
      "midi": 52,
      "hit": false,
      "t": 124543.45784999919,
      "d": 198.67549999999756,
      "v": 100
    },
    {
      "midi": 57,
      "hit": false,
      "t": 124543.45784999919,
      "d": 198.67549999999756,
      "v": 100
    },
    {
      "midi": 36,
      "hit": false,
      "t": 124543.45784999919,
      "d": 397.3509999999951,
      "v": 100
    },
    {
      "midi": 38,
      "hit": false,
      "t": 124742.13334999919,
      "d": 198.67549999999756,
      "v": 100
    },
    {
      "midi": 62,
      "hit": false,
      "t": 124742.13334999919,
      "d": 198.67549999999756,
      "v": 100
    },
    {
      "midi": 50,
      "hit": false,
      "t": 124742.13334999919,
      "d": 198.67549999999756,
      "v": 100
    },
    {
      "midi": 57,
      "hit": false,
      "t": 124742.13334999919,
      "d": 397.3509999999951,
      "v": 100
    },
    {
      "midi": 36,
      "hit": false,
      "t": 124940.80884999919,
      "d": 198.67549999999756,
      "v": 100
    },
    {
      "midi": 49,
      "hit": false,
      "t": 124940.80884999919,
      "d": 198.67549999999756,
      "v": 100
    },
    {
      "midi": 66,
      "hit": false,
      "t": 124940.80884999919,
      "d": 198.67549999999756,
      "v": 100
    },
    {
      "midi": 36,
      "hit": false,
      "t": 125139.48434999918,
      "d": 198.67549999999756,
      "v": 100
    },
    {
      "midi": 50,
      "hit": false,
      "t": 125139.48434999918,
      "d": 198.67549999999756,
      "v": 100
    },
    {
      "midi": 67,
      "hit": false,
      "t": 125139.48434999918,
      "d": 198.67549999999756,
      "v": 100
    },
    {
      "midi": 62,
      "hit": false,
      "t": 125139.48434999918,
      "d": 993.3774999999878,
      "v": 100
    },
    {
      "midi": 66,
      "hit": false,
      "t": 125139.48434999918,
      "d": 993.3774999999878,
      "v": 100
    },
    {
      "midi": 57,
      "hit": false,
      "t": 125139.48434999918,
      "d": 993.3774999999878,
      "v": 100
    },
    {
      "midi": 54,
      "hit": false,
      "t": 125338.15984999918,
      "d": 198.67549999999756,
      "v": 100
    },
    {
      "midi": 69,
      "hit": false,
      "t": 125338.15984999918,
      "d": 264.90066666666826,
      "v": 100
    },
    {
      "midi": 38,
      "hit": false,
      "t": 125338.15984999918,
      "d": 397.3509999999951,
      "v": 100
    },
    {
      "midi": 36,
      "hit": false,
      "t": 125536.83534999918,
      "d": 198.67549999999756,
      "v": 100
    },
    {
      "midi": 52,
      "hit": false,
      "t": 125536.83534999918,
      "d": 198.67549999999756,
      "v": 100
    },
    {
      "midi": 74,
      "hit": false,
      "t": 125536.83534999918,
      "d": 198.67549999999756,
      "v": 100
    },
    {
      "midi": 71,
      "hit": false,
      "t": 125603.06051666585,
      "d": 264.9006666666537,
      "v": 100
    },
    {
      "midi": 50,
      "hit": false,
      "t": 125735.51084999918,
      "d": 198.67549999999756,
      "v": 100
    },
    {
      "midi": 74,
      "hit": false,
      "t": 125735.51084999918,
      "d": 198.67549999999756,
      "v": 100
    },
    {
      "midi": 48,
      "hit": false,
      "t": 125735.51084999918,
      "d": 198.67549999999756,
      "v": 100
    },
    {
      "midi": 73,
      "hit": false,
      "t": 125867.9611833325,
      "d": 264.90066666666826,
      "v": 100
    },
    {
      "midi": 48,
      "hit": false,
      "t": 125934.18634999917,
      "d": 198.67549999999756,
      "v": 100
    },
    {
      "midi": 74,
      "hit": false,
      "t": 125934.18634999917,
      "d": 198.67549999999756,
      "v": 100
    },
    {
      "midi": 47,
      "hit": false,
      "t": 125934.18634999917,
      "d": 198.67549999999756,
      "v": 100
    },
    {
      "midi": 49,
      "hit": false,
      "t": 126132.86184999917,
      "d": 198.67549999999756,
      "v": 100
    },
    {
      "midi": 62,
      "hit": false,
      "t": 126132.86184999917,
      "d": 198.67549999999756,
      "v": 100
    },
    {
      "midi": 55,
      "hit": false,
      "t": 126132.86184999917,
      "d": 198.67549999999756,
      "v": 77
    },
    {
      "midi": 36,
      "hit": false,
      "t": 126132.86184999917,
      "d": 397.3509999999951,
      "v": 100
    },
    {
      "midi": 40,
      "hit": false,
      "t": 126132.86184999917,
      "d": 397.3509999999951,
      "v": 100
    },
    {
      "midi": 74,
      "hit": false,
      "t": 126132.86184999917,
      "d": 794.7019999999902,
      "v": 100
    },
    {
      "midi": 42,
      "hit": false,
      "t": 126331.53734999917,
      "d": 198.67549999999756,
      "v": 100
    },
    {
      "midi": 62,
      "hit": false,
      "t": 126331.53734999917,
      "d": 198.67549999999756,
      "v": 100
    },
    {
      "midi": 59,
      "hit": false,
      "t": 126331.53734999917,
      "d": 198.67549999999756,
      "v": 77
    },
    {
      "midi": 42,
      "hit": false,
      "t": 126530.21284999917,
      "d": 198.67549999999756,
      "v": 100
    },
    {
      "midi": 40,
      "hit": false,
      "t": 126530.21284999917,
      "d": 198.67549999999756,
      "v": 100
    },
    {
      "midi": 38,
      "hit": false,
      "t": 126530.21284999917,
      "d": 198.67549999999756,
      "v": 100
    },
    {
      "midi": 62,
      "hit": false,
      "t": 126530.21284999917,
      "d": 198.67549999999756,
      "v": 100
    },
    {
      "midi": 59,
      "hit": false,
      "t": 126530.21284999917,
      "d": 397.3509999999951,
      "v": 100
    },
    {
      "midi": 55,
      "hit": false,
      "t": 126530.21284999917,
      "d": 397.3509999999951,
      "v": 100
    },
    {
      "midi": 42,
      "hit": false,
      "t": 126728.88834999916,
      "d": 198.67549999999756,
      "v": 100
    },
    {
      "midi": 66,
      "hit": false,
      "t": 126728.88834999916,
      "d": 198.67549999999756,
      "v": 77
    },
    {
      "midi": 47,
      "hit": false,
      "t": 126728.88834999916,
      "d": 397.3509999999951,
      "v": 100
    },
    {
      "midi": 42,
      "hit": false,
      "t": 126927.56384999916,
      "d": 198.67549999999756,
      "v": 100
    },
    {
      "midi": 62,
      "hit": false,
      "t": 126927.56384999916,
      "d": 198.67549999999756,
      "v": 100
    },
    {
      "midi": 36,
      "hit": false,
      "t": 126927.56384999916,
      "d": 397.3509999999951,
      "v": 100
    },
    {
      "midi": 42,
      "hit": false,
      "t": 127126.23934999916,
      "d": 198.67549999999756,
      "v": 100
    },
    {
      "midi": 47,
      "hit": false,
      "t": 127126.23934999916,
      "d": 198.67549999999756,
      "v": 100
    },
    {
      "midi": 74,
      "hit": false,
      "t": 127126.23934999916,
      "d": 397.3509999999951,
      "v": 100
    },
    {
      "midi": 59,
      "hit": false,
      "t": 127126.23934999916,
      "d": 596.0264999999927,
      "v": 100
    },
    {
      "midi": 66,
      "hit": false,
      "t": 127126.23934999916,
      "d": 596.0264999999927,
      "v": 100
    },
    {
      "midi": 55,
      "hit": false,
      "t": 127126.23934999916,
      "d": 596.0264999999927,
      "v": 100
    },
    {
      "midi": 62,
      "hit": false,
      "t": 127126.23934999916,
      "d": 596.0264999999927,
      "v": 100
    },
    {
      "midi": 42,
      "hit": false,
      "t": 127324.91484999916,
      "d": 198.67549999999756,
      "v": 100
    },
    {
      "midi": 38,
      "hit": false,
      "t": 127324.91484999916,
      "d": 198.67549999999756,
      "v": 100
    },
    {
      "midi": 52,
      "hit": false,
      "t": 127324.91484999916,
      "d": 397.3509999999951,
      "v": 100
    },
    {
      "midi": 42,
      "hit": false,
      "t": 127523.59034999915,
      "d": 198.67549999999756,
      "v": 100
    },
    {
      "midi": 73,
      "hit": false,
      "t": 127523.59034999915,
      "d": 198.67549999999756,
      "v": 100
    },
    {
      "midi": 42,
      "hit": false,
      "t": 127722.26584999915,
      "d": 198.67549999999756,
      "v": 100
    },
    {
      "midi": 62,
      "hit": false,
      "t": 127722.26584999915,
      "d": 198.67549999999756,
      "v": 100
    },
    {
      "midi": 57,
      "hit": false,
      "t": 127722.26584999915,
      "d": 198.67549999999756,
      "v": 79
    },
    {
      "midi": 45,
      "hit": false,
      "t": 127722.26584999915,
      "d": 198.67549999999756,
      "v": 100
    },
    {
      "midi": 36,
      "hit": false,
      "t": 127722.26584999915,
      "d": 397.3509999999951,
      "v": 100
    },
    {
      "midi": 73,
      "hit": false,
      "t": 127722.26584999915,
      "d": 794.7019999999902,
      "v": 100
    },
    {
      "midi": 42,
      "hit": false,
      "t": 127920.94134999915,
      "d": 198.67549999999756,
      "v": 100
    },
    {
      "midi": 62,
      "hit": false,
      "t": 127920.94134999915,
      "d": 198.67549999999756,
      "v": 100
    },
    {
      "midi": 61,
      "hit": false,
      "t": 127920.94134999915,
      "d": 198.67549999999756,
      "v": 79
    },
    {
      "midi": 42,
      "hit": false,
      "t": 128119.61684999915,
      "d": 198.67549999999756,
      "v": 100
    },
    {
      "midi": 64,
      "hit": false,
      "t": 128119.61684999915,
      "d": 198.67549999999756,
      "v": 100
    },
    {
      "midi": 38,
      "hit": false,
      "t": 128119.61684999915,
      "d": 198.67549999999756,
      "v": 100
    },
    {
      "midi": 45,
      "hit": false,
      "t": 128119.61684999915,
      "d": 198.67549999999756,
      "v": 100
    },
    {
      "midi": 61,
      "hit": false,
      "t": 128119.61684999915,
      "d": 397.3509999999951,
      "v": 100
    },
    {
      "midi": 57,
      "hit": false,
      "t": 128119.61684999915,
      "d": 397.3509999999951,
      "v": 100
    },
    {
      "midi": 42,
      "hit": false,
      "t": 128318.29234999914,
      "d": 198.67549999999756,
      "v": 100
    },
    {
      "midi": 69,
      "hit": false,
      "t": 128318.29234999914,
      "d": 198.67549999999756,
      "v": 79
    },
    {
      "midi": 49,
      "hit": false,
      "t": 128318.29234999914,
      "d": 198.67549999999756,
      "v": 100
    },
    {
      "midi": 42,
      "hit": false,
      "t": 128516.96784999914,
      "d": 198.67549999999756,
      "v": 100
    },
    {
      "midi": 62,
      "hit": false,
      "t": 128516.96784999914,
      "d": 198.67549999999756,
      "v": 100
    },
    {
      "midi": 54,
      "hit": false,
      "t": 128516.96784999914,
      "d": 198.67549999999756,
      "v": 100
    },
    {
      "midi": 36,
      "hit": false,
      "t": 128516.96784999914,
      "d": 397.3509999999951,
      "v": 100
    },
    {
      "midi": 42,
      "hit": false,
      "t": 128715.64334999914,
      "d": 198.67549999999756,
      "v": 100
    },
    {
      "midi": 52,
      "hit": false,
      "t": 128715.64334999914,
      "d": 198.67549999999756,
      "v": 100
    },
    {
      "midi": 61,
      "hit": false,
      "t": 128715.64334999914,
      "d": 596.0264999999927,
      "v": 100
    },
    {
      "midi": 69,
      "hit": false,
      "t": 128715.64334999914,
      "d": 596.0264999999927,
      "v": 100
    },
    {
      "midi": 64,
      "hit": false,
      "t": 128715.64334999914,
      "d": 596.0264999999927,
      "v": 100
    },
    {
      "midi": 57,
      "hit": false,
      "t": 128715.64334999914,
      "d": 596.0264999999927,
      "v": 100
    },
    {
      "midi": 38,
      "hit": false,
      "t": 128914.31884999914,
      "d": 198.67549999999756,
      "v": 100
    },
    {
      "midi": 50,
      "hit": false,
      "t": 128914.31884999914,
      "d": 198.67549999999756,
      "v": 100
    },
    {
      "midi": 73,
      "hit": false,
      "t": 128914.31884999914,
      "d": 198.67549999999756,
      "v": 100
    },
    {
      "midi": 38,
      "hit": false,
      "t": 129112.99434999914,
      "d": 198.67549999999756,
      "v": 100
    },
    {
      "midi": 73,
      "hit": false,
      "t": 129112.99434999914,
      "d": 198.67549999999756,
      "v": 100
    },
    {
      "midi": 45,
      "hit": false,
      "t": 129112.99434999914,
      "d": 198.67549999999756,
      "v": 100
    },
    {
      "midi": 42,
      "hit": false,
      "t": 129311.66984999913,
      "d": 198.67549999999756,
      "v": 100
    },
    {
      "midi": 62,
      "hit": false,
      "t": 129311.66984999913,
      "d": 198.67549999999756,
      "v": 100
    },
    {
      "midi": 57,
      "hit": false,
      "t": 129311.66984999913,
      "d": 198.67549999999756,
      "v": 80
    },
    {
      "midi": 76,
      "hit": false,
      "t": 129311.66984999913,
      "d": 298.0132500000036,
      "v": 100
    },
    {
      "midi": 36,
      "hit": false,
      "t": 129311.66984999913,
      "d": 397.35100000000966,
      "v": 100
    },
    {
      "midi": 42,
      "hit": false,
      "t": 129510.34534999913,
      "d": 198.6755000000121,
      "v": 100
    },
    {
      "midi": 62,
      "hit": false,
      "t": 129510.34534999913,
      "d": 198.6755000000121,
      "v": 100
    },
    {
      "midi": 61,
      "hit": false,
      "t": 129510.34534999913,
      "d": 198.6755000000121,
      "v": 81
    },
    {
      "midi": 76,
      "hit": false,
      "t": 129609.68309999914,
      "d": 298.0132500000036,
      "v": 100
    },
    {
      "midi": 42,
      "hit": false,
      "t": 129709.02084999914,
      "d": 198.67549999999756,
      "v": 100
    },
    {
      "midi": 64,
      "hit": false,
      "t": 129709.02084999914,
      "d": 198.67549999999756,
      "v": 100
    },
    {
      "midi": 38,
      "hit": false,
      "t": 129709.02084999914,
      "d": 198.67549999999756,
      "v": 100
    },
    {
      "midi": 61,
      "hit": false,
      "t": 129709.02084999914,
      "d": 397.3509999999951,
      "v": 100
    },
    {
      "midi": 57,
      "hit": false,
      "t": 129709.02084999914,
      "d": 397.3509999999951,
      "v": 100
    },
    {
      "midi": 42,
      "hit": false,
      "t": 129907.69634999914,
      "d": 198.67549999999756,
      "v": 100
    },
    {
      "midi": 69,
      "hit": false,
      "t": 129907.69634999914,
      "d": 198.67549999999756,
      "v": 81
    },
    {
      "midi": 76,
      "hit": false,
      "t": 129907.69634999914,
      "d": 198.67549999999756,
      "v": 100
    },
    {
      "midi": 49,
      "hit": false,
      "t": 129907.69634999914,
      "d": 397.3509999999951,
      "v": 100
    },
    {
      "midi": 42,
      "hit": false,
      "t": 130106.37184999914,
      "d": 198.67549999999756,
      "v": 100
    },
    {
      "midi": 62,
      "hit": false,
      "t": 130106.37184999914,
      "d": 198.67549999999756,
      "v": 100
    },
    {
      "midi": 76,
      "hit": false,
      "t": 130106.37184999914,
      "d": 198.67549999999756,
      "v": 100
    },
    {
      "midi": 36,
      "hit": false,
      "t": 130106.37184999914,
      "d": 397.3509999999951,
      "v": 100
    },
    {
      "midi": 42,
      "hit": false,
      "t": 130305.04734999913,
      "d": 198.67549999999756,
      "v": 100
    },
    {
      "midi": 47,
      "hit": false,
      "t": 130305.04734999913,
      "d": 198.67549999999756,
      "v": 100
    },
    {
      "midi": 74,
      "hit": false,
      "t": 130305.04734999913,
      "d": 397.3509999999951,
      "v": 100
    },
    {
      "midi": 57,
      "hit": false,
      "t": 130305.04734999913,
      "d": 596.0264999999927,
      "v": 100
    },
    {
      "midi": 64,
      "hit": false,
      "t": 130305.04734999913,
      "d": 596.0264999999927,
      "v": 100
    },
    {
      "midi": 61,
      "hit": false,
      "t": 130305.04734999913,
      "d": 596.0264999999927,
      "v": 100
    },
    {
      "midi": 69,
      "hit": false,
      "t": 130305.04734999913,
      "d": 596.0264999999927,
      "v": 100
    },
    {
      "midi": 42,
      "hit": false,
      "t": 130503.72284999913,
      "d": 198.67549999999756,
      "v": 100
    },
    {
      "midi": 45,
      "hit": false,
      "t": 130503.72284999913,
      "d": 198.67549999999756,
      "v": 100
    },
    {
      "midi": 38,
      "hit": false,
      "t": 130503.72284999913,
      "d": 198.67549999999756,
      "v": 100
    },
    {
      "midi": 42,
      "hit": false,
      "t": 130702.39834999913,
      "d": 198.67549999999756,
      "v": 100
    },
    {
      "midi": 73,
      "hit": false,
      "t": 130702.39834999913,
      "d": 198.67549999999756,
      "v": 100
    },
    {
      "midi": 42,
      "hit": false,
      "t": 130901.07384999913,
      "d": 198.67549999999756,
      "v": 100
    },
    {
      "midi": 55,
      "hit": false,
      "t": 130901.07384999913,
      "d": 198.67549999999756,
      "v": 100
    },
    {
      "midi": 67,
      "hit": false,
      "t": 130901.07384999913,
      "d": 198.67549999999756,
      "v": 82
    },
    {
      "midi": 62,
      "hit": false,
      "t": 130901.07384999913,
      "d": 198.67549999999756,
      "v": 82
    },
    {
      "midi": 47,
      "hit": false,
      "t": 130901.07384999913,
      "d": 198.67549999999756,
      "v": 100
    },
    {
      "midi": 36,
      "hit": false,
      "t": 130901.07384999913,
      "d": 397.35100000000966,
      "v": 100
    },
    {
      "midi": 74,
      "hit": false,
      "t": 130901.07384999913,
      "d": 794.7020000000339,
      "v": 100
    },
    {
      "midi": 42,
      "hit": false,
      "t": 131099.74934999913,
      "d": 198.6755000000121,
      "v": 100
    },
    {
      "midi": 55,
      "hit": false,
      "t": 131099.74934999913,
      "d": 198.6755000000121,
      "v": 100
    },
    {
      "midi": 45,
      "hit": false,
      "t": 131099.74934999913,
      "d": 198.6755000000121,
      "v": 100
    },
    {
      "midi": 69,
      "hit": false,
      "t": 131099.74934999913,
      "d": 397.3510000000242,
      "v": 83
    },
    {
      "midi": 42,
      "hit": false,
      "t": 131298.42484999914,
      "d": 198.6755000000121,
      "v": 100
    },
    {
      "midi": 38,
      "hit": false,
      "t": 131298.42484999914,
      "d": 198.6755000000121,
      "v": 100
    },
    {
      "midi": 47,
      "hit": false,
      "t": 131298.42484999914,
      "d": 198.6755000000121,
      "v": 100
    },
    {
      "midi": 62,
      "hit": false,
      "t": 131298.42484999914,
      "d": 198.6755000000121,
      "v": 100
    },
    {
      "midi": 57,
      "hit": false,
      "t": 131298.42484999914,
      "d": 397.3510000000242,
      "v": 100
    },
    {
      "midi": 42,
      "hit": false,
      "t": 131497.10034999915,
      "d": 198.6755000000121,
      "v": 100
    },
    {
      "midi": 66,
      "hit": false,
      "t": 131497.10034999915,
      "d": 198.6755000000121,
      "v": 83
    },
    {
      "midi": 50,
      "hit": false,
      "t": 131497.10034999915,
      "d": 198.6755000000121,
      "v": 100
    },
    {
      "midi": 62,
      "hit": false,
      "t": 131497.10034999915,
      "d": 198.6755000000121,
      "v": 83
    },
    {
      "midi": 42,
      "hit": false,
      "t": 131695.77584999916,
      "d": 198.6755000000121,
      "v": 100
    },
    {
      "midi": 55,
      "hit": false,
      "t": 131695.77584999916,
      "d": 198.6755000000121,
      "v": 100
    },
    {
      "midi": 52,
      "hit": false,
      "t": 131695.77584999916,
      "d": 198.6755000000121,
      "v": 100
    },
    {
      "midi": 36,
      "hit": false,
      "t": 131695.77584999916,
      "d": 397.3510000000242,
      "v": 100
    },
    {
      "midi": 42,
      "hit": false,
      "t": 131894.45134999917,
      "d": 198.6755000000121,
      "v": 100
    },
    {
      "midi": 74,
      "hit": false,
      "t": 131894.45134999917,
      "d": 198.6755000000121,
      "v": 100
    },
    {
      "midi": 50,
      "hit": false,
      "t": 131894.45134999917,
      "d": 198.6755000000121,
      "v": 100
    },
    {
      "midi": 57,
      "hit": false,
      "t": 131894.45134999917,
      "d": 596.0265000000363,
      "v": 100
    },
    {
      "midi": 62,
      "hit": false,
      "t": 131894.45134999917,
      "d": 596.0265000000363,
      "v": 100
    },
    {
      "midi": 66,
      "hit": false,
      "t": 131894.45134999917,
      "d": 596.0265000000363,
      "v": 100
    },
    {
      "midi": 38,
      "hit": false,
      "t": 132093.1268499992,
      "d": 198.6755000000121,
      "v": 100
    },
    {
      "midi": 74,
      "hit": false,
      "t": 132093.1268499992,
      "d": 198.6755000000121,
      "v": 100
    },
    {
      "midi": 47,
      "hit": false,
      "t": 132093.1268499992,
      "d": 198.6755000000121,
      "v": 100
    },
    {
      "midi": 38,
      "hit": false,
      "t": 132291.8023499992,
      "d": 198.6755000000121,
      "v": 100
    },
    {
      "midi": 45,
      "hit": false,
      "t": 132291.8023499992,
      "d": 198.6755000000121,
      "v": 100
    },
    {
      "midi": 74,
      "hit": false,
      "t": 132291.8023499992,
      "d": 198.6755000000121,
      "v": 100
    },
    {
      "midi": 42,
      "hit": false,
      "t": 132490.4778499992,
      "d": 198.6755000000121,
      "v": 100
    },
    {
      "midi": 62,
      "hit": false,
      "t": 132490.4778499992,
      "d": 198.6755000000121,
      "v": 100
    },
    {
      "midi": 55,
      "hit": false,
      "t": 132490.4778499992,
      "d": 198.6755000000121,
      "v": 75
    },
    {
      "midi": 36,
      "hit": false,
      "t": 132490.4778499992,
      "d": 397.3510000000242,
      "v": 100
    },
    {
      "midi": 40,
      "hit": false,
      "t": 132490.4778499992,
      "d": 397.3510000000242,
      "v": 100
    },
    {
      "midi": 74,
      "hit": false,
      "t": 132490.4778499992,
      "d": 794.7020000000484,
      "v": 100
    },
    {
      "midi": 42,
      "hit": false,
      "t": 132689.15334999922,
      "d": 198.6755000000121,
      "v": 100
    },
    {
      "midi": 62,
      "hit": false,
      "t": 132689.15334999922,
      "d": 198.6755000000121,
      "v": 100
    },
    {
      "midi": 59,
      "hit": false,
      "t": 132689.15334999922,
      "d": 198.6755000000121,
      "v": 75
    },
    {
      "midi": 42,
      "hit": false,
      "t": 132887.82884999923,
      "d": 198.6755000000121,
      "v": 100
    },
    {
      "midi": 40,
      "hit": false,
      "t": 132887.82884999923,
      "d": 198.6755000000121,
      "v": 100
    },
    {
      "midi": 38,
      "hit": false,
      "t": 132887.82884999923,
      "d": 198.6755000000121,
      "v": 100
    },
    {
      "midi": 62,
      "hit": false,
      "t": 132887.82884999923,
      "d": 198.6755000000121,
      "v": 100
    },
    {
      "midi": 55,
      "hit": false,
      "t": 132887.82884999923,
      "d": 397.3510000000242,
      "v": 100
    },
    {
      "midi": 59,
      "hit": false,
      "t": 132887.82884999923,
      "d": 397.3510000000242,
      "v": 100
    },
    {
      "midi": 42,
      "hit": false,
      "t": 133086.50434999925,
      "d": 198.6755000000121,
      "v": 100
    },
    {
      "midi": 66,
      "hit": false,
      "t": 133086.50434999925,
      "d": 198.6755000000121,
      "v": 76
    },
    {
      "midi": 64,
      "hit": false,
      "t": 133086.50434999925,
      "d": 198.6755000000121,
      "v": 100
    },
    {
      "midi": 47,
      "hit": false,
      "t": 133086.50434999925,
      "d": 397.3510000000242,
      "v": 100
    },
    {
      "midi": 42,
      "hit": false,
      "t": 133285.17984999926,
      "d": 198.6755000000121,
      "v": 100
    },
    {
      "midi": 62,
      "hit": false,
      "t": 133285.17984999926,
      "d": 198.6755000000121,
      "v": 100
    },
    {
      "midi": 36,
      "hit": false,
      "t": 133285.17984999926,
      "d": 397.3510000000242,
      "v": 100
    },
    {
      "midi": 42,
      "hit": false,
      "t": 133483.85534999927,
      "d": 198.6755000000121,
      "v": 100
    },
    {
      "midi": 47,
      "hit": false,
      "t": 133483.85534999927,
      "d": 198.6755000000121,
      "v": 100
    },
    {
      "midi": 57,
      "hit": false,
      "t": 133483.85534999927,
      "d": 198.6755000000121,
      "v": 100
    },
    {
      "midi": 74,
      "hit": false,
      "t": 133483.85534999927,
      "d": 397.3510000000242,
      "v": 100
    },
    {
      "midi": 66,
      "hit": false,
      "t": 133483.85534999927,
      "d": 596.0265000000363,
      "v": 100
    },
    {
      "midi": 59,
      "hit": false,
      "t": 133483.85534999927,
      "d": 596.0265000000363,
      "v": 100
    },
    {
      "midi": 62,
      "hit": false,
      "t": 133483.85534999927,
      "d": 596.0265000000363,
      "v": 100
    },
    {
      "midi": 55,
      "hit": false,
      "t": 133483.85534999927,
      "d": 596.0265000000363,
      "v": 100
    },
    {
      "midi": 42,
      "hit": false,
      "t": 133682.53084999928,
      "d": 198.6755000000121,
      "v": 100
    },
    {
      "midi": 38,
      "hit": false,
      "t": 133682.53084999928,
      "d": 198.6755000000121,
      "v": 100
    },
    {
      "midi": 54,
      "hit": false,
      "t": 133682.53084999928,
      "d": 198.6755000000121,
      "v": 100
    },
    {
      "midi": 40,
      "hit": false,
      "t": 133682.53084999928,
      "d": 397.3510000000242,
      "v": 100
    },
    {
      "midi": 42,
      "hit": false,
      "t": 133881.2063499993,
      "d": 198.6755000000121,
      "v": 100
    },
    {
      "midi": 73,
      "hit": false,
      "t": 133881.2063499993,
      "d": 198.6755000000121,
      "v": 100
    },
    {
      "midi": 57,
      "hit": false,
      "t": 133881.2063499993,
      "d": 198.6755000000121,
      "v": 100
    },
    {
      "midi": 42,
      "hit": false,
      "t": 134079.8818499993,
      "d": 198.6755000000121,
      "v": 100
    },
    {
      "midi": 62,
      "hit": false,
      "t": 134079.8818499993,
      "d": 198.6755000000121,
      "v": 100
    },
    {
      "midi": 57,
      "hit": false,
      "t": 134079.8818499993,
      "d": 198.6755000000121,
      "v": 78
    },
    {
      "midi": 45,
      "hit": false,
      "t": 134079.8818499993,
      "d": 198.6755000000121,
      "v": 100
    },
    {
      "midi": 36,
      "hit": false,
      "t": 134079.8818499993,
      "d": 397.3510000000242,
      "v": 100
    },
    {
      "midi": 73,
      "hit": false,
      "t": 134079.8818499993,
      "d": 794.7020000000484,
      "v": 100
    },
    {
      "midi": 42,
      "hit": false,
      "t": 134278.55734999932,
      "d": 198.6755000000121,
      "v": 100
    },
    {
      "midi": 62,
      "hit": false,
      "t": 134278.55734999932,
      "d": 198.6755000000121,
      "v": 100
    },
    {
      "midi": 64,
      "hit": false,
      "t": 134278.55734999932,
      "d": 198.6755000000121,
      "v": 100
    },
    {
      "midi": 61,
      "hit": false,
      "t": 134278.55734999932,
      "d": 198.6755000000121,
      "v": 79
    },
    {
      "midi": 42,
      "hit": false,
      "t": 134477.23284999933,
      "d": 198.6755000000121,
      "v": 100
    },
    {
      "midi": 62,
      "hit": false,
      "t": 134477.23284999933,
      "d": 198.6755000000121,
      "v": 100
    },
    {
      "midi": 38,
      "hit": false,
      "t": 134477.23284999933,
      "d": 198.6755000000121,
      "v": 100
    },
    {
      "midi": 64,
      "hit": false,
      "t": 134477.23284999933,
      "d": 198.6755000000121,
      "v": 100
    },
    {
      "midi": 47,
      "hit": false,
      "t": 134477.23284999933,
      "d": 198.6755000000121,
      "v": 100
    },
    {
      "midi": 61,
      "hit": false,
      "t": 134477.23284999933,
      "d": 397.3510000000242,
      "v": 100
    },
    {
      "midi": 42,
      "hit": false,
      "t": 134675.90834999934,
      "d": 198.6755000000121,
      "v": 100
    },
    {
      "midi": 57,
      "hit": false,
      "t": 134675.90834999934,
      "d": 198.6755000000121,
      "v": 100
    },
    {
      "midi": 69,
      "hit": false,
      "t": 134675.90834999934,
      "d": 198.6755000000121,
      "v": 79
    },
    {
      "midi": 49,
      "hit": false,
      "t": 134675.90834999934,
      "d": 397.3510000000242,
      "v": 100
    },
    {
      "midi": 42,
      "hit": false,
      "t": 134874.58384999936,
      "d": 198.6755000000121,
      "v": 100
    },
    {
      "midi": 62,
      "hit": false,
      "t": 134874.58384999936,
      "d": 198.6755000000121,
      "v": 100
    },
    {
      "midi": 55,
      "hit": false,
      "t": 134874.58384999936,
      "d": 198.6755000000121,
      "v": 100
    },
    {
      "midi": 36,
      "hit": false,
      "t": 134874.58384999936,
      "d": 298.01325000001816,
      "v": 100
    },
    {
      "midi": 47,
      "hit": false,
      "t": 135073.25934999937,
      "d": 198.6755000000121,
      "v": 100
    },
    {
      "midi": 57,
      "hit": false,
      "t": 135073.25934999937,
      "d": 198.6755000000121,
      "v": 100
    },
    {
      "midi": 42,
      "hit": false,
      "t": 135073.25934999937,
      "d": 198.6755000000121,
      "v": 100
    },
    {
      "midi": 71,
      "hit": false,
      "t": 135073.25934999937,
      "d": 397.3510000000242,
      "v": 100
    },
    {
      "midi": 61,
      "hit": false,
      "t": 135073.25934999937,
      "d": 596.0265000000363,
      "v": 100
    },
    {
      "midi": 64,
      "hit": false,
      "t": 135073.25934999937,
      "d": 596.0265000000363,
      "v": 100
    },
    {
      "midi": 36,
      "hit": false,
      "t": 135172.59709999937,
      "d": 99.33775000000605,
      "v": 100
    },
    {
      "midi": 42,
      "hit": false,
      "t": 135271.93484999938,
      "d": 198.6755000000121,
      "v": 100
    },
    {
      "midi": 45,
      "hit": false,
      "t": 135271.93484999938,
      "d": 198.6755000000121,
      "v": 100
    },
    {
      "midi": 38,
      "hit": false,
      "t": 135271.93484999938,
      "d": 198.6755000000121,
      "v": 100
    },
    {
      "midi": 42,
      "hit": false,
      "t": 135470.6103499994,
      "d": 198.6755000000121,
      "v": 100
    },
    {
      "midi": 69,
      "hit": false,
      "t": 135470.6103499994,
      "d": 198.6755000000121,
      "v": 100
    },
    {
      "midi": 36,
      "hit": false,
      "t": 135470.6103499994,
      "d": 198.6755000000121,
      "v": 100
    },
    {
      "midi": 57,
      "hit": false,
      "t": 135669.2858499994,
      "d": 198.6755000000121,
      "v": 100
    },
    {
      "midi": 55,
      "hit": false,
      "t": 135669.2858499994,
      "d": 198.6755000000121,
      "v": 100
    },
    {
      "midi": 71,
      "hit": false,
      "t": 135669.2858499994,
      "d": 198.6755000000121,
      "v": 100
    },
    {
      "midi": 36,
      "hit": false,
      "t": 135669.2858499994,
      "d": 397.3510000000242,
      "v": 100
    },
    {
      "midi": 47,
      "hit": false,
      "t": 135669.2858499994,
      "d": 397.3510000000242,
      "v": 100
    },
    {
      "midi": 74,
      "hit": false,
      "t": 135669.2858499994,
      "d": 596.0265000000363,
      "v": 100
    },
    {
      "midi": 79,
      "hit": false,
      "t": 135669.2858499994,
      "d": 596.0265000000363,
      "v": 100
    },
    {
      "midi": 42,
      "hit": false,
      "t": 135867.96134999942,
      "d": 198.6755000000121,
      "v": 100
    },
    {
      "midi": 55,
      "hit": false,
      "t": 135867.96134999942,
      "d": 198.6755000000121,
      "v": 100
    },
    {
      "midi": 69,
      "hit": false,
      "t": 135867.96134999942,
      "d": 397.3510000000242,
      "v": 100
    },
    {
      "midi": 38,
      "hit": false,
      "t": 136066.63684999943,
      "d": 198.6755000000121,
      "v": 100
    },
    {
      "midi": 45,
      "hit": false,
      "t": 136066.63684999943,
      "d": 198.6755000000121,
      "v": 100
    },
    {
      "midi": 62,
      "hit": false,
      "t": 136066.63684999943,
      "d": 198.6755000000121,
      "v": 100
    },
    {
      "midi": 67,
      "hit": false,
      "t": 136066.63684999943,
      "d": 198.6755000000121,
      "v": 100
    },
    {
      "midi": 50,
      "hit": false,
      "t": 136066.63684999943,
      "d": 397.3510000000242,
      "v": 100
    },
    {
      "midi": 57,
      "hit": false,
      "t": 136265.31234999944,
      "d": 198.6755000000121,
      "v": 100
    },
    {
      "midi": 36,
      "hit": false,
      "t": 136265.31234999944,
      "d": 198.6755000000121,
      "v": 100
    },
    {
      "midi": 62,
      "hit": false,
      "t": 136265.31234999944,
      "d": 198.6755000000121,
      "v": 83
    },
    {
      "midi": 47,
      "hit": false,
      "t": 136265.31234999944,
      "d": 397.3510000000242,
      "v": 100
    },
    {
      "midi": 69,
      "hit": false,
      "t": 136265.31234999944,
      "d": 993.3775000000605,
      "v": 100
    },
    {
      "midi": 78,
      "hit": false,
      "t": 136265.31234999944,
      "d": 993.3775000000605,
      "v": 100
    },
    {
      "midi": 74,
      "hit": false,
      "t": 136265.31234999944,
      "d": 993.3775000000605,
      "v": 100
    },
    {
      "midi": 42,
      "hit": false,
      "t": 136463.98784999945,
      "d": 198.6755000000121,
      "v": 100
    },
    {
      "midi": 55,
      "hit": false,
      "t": 136463.98784999945,
      "d": 198.6755000000121,
      "v": 100
    },
    {
      "midi": 42,
      "hit": false,
      "t": 136662.66334999946,
      "d": 198.6755000000121,
      "v": 100
    },
    {
      "midi": 43,
      "hit": false,
      "t": 136662.66334999946,
      "d": 198.6755000000121,
      "v": 100
    },
    {
      "midi": 36,
      "hit": false,
      "t": 136662.66334999946,
      "d": 198.6755000000121,
      "v": 100
    },
    {
      "midi": 57,
      "hit": false,
      "t": 136662.66334999946,
      "d": 198.6755000000121,
      "v": 100
    },
    {
      "midi": 42,
      "hit": false,
      "t": 136861.33884999948,
      "d": 198.6755000000121,
      "v": 100
    },
    {
      "midi": 38,
      "hit": false,
      "t": 136861.33884999948,
      "d": 198.6755000000121,
      "v": 100
    },
    {
      "midi": 47,
      "hit": false,
      "t": 136861.33884999948,
      "d": 198.6755000000121,
      "v": 100
    },
    {
      "midi": 62,
      "hit": false,
      "t": 136861.33884999948,
      "d": 198.6755000000121,
      "v": 100
    },
    {
      "midi": 42,
      "hit": false,
      "t": 137060.0143499995,
      "d": 198.6755000000121,
      "v": 100
    },
    {
      "midi": 66,
      "hit": false,
      "t": 137060.0143499995,
      "d": 198.6755000000121,
      "v": 100
    },
    {
      "midi": 50,
      "hit": false,
      "t": 137060.0143499995,
      "d": 198.6755000000121,
      "v": 100
    },
    {
      "midi": 42,
      "hit": false,
      "t": 137258.6898499995,
      "d": 198.6755000000121,
      "v": 100
    },
    {
      "midi": 64,
      "hit": false,
      "t": 137258.6898499995,
      "d": 198.6755000000121,
      "v": 100
    },
    {
      "midi": 67,
      "hit": false,
      "t": 137258.6898499995,
      "d": 198.6755000000121,
      "v": 100
    },
    {
      "midi": 50,
      "hit": false,
      "t": 137258.6898499995,
      "d": 198.6755000000121,
      "v": 100
    },
    {
      "midi": 52,
      "hit": false,
      "t": 137258.6898499995,
      "d": 198.6755000000121,
      "v": 100
    },
    {
      "midi": 57,
      "hit": false,
      "t": 137258.6898499995,
      "d": 198.6755000000121,
      "v": 100
    },
    {
      "midi": 62,
      "hit": false,
      "t": 137258.6898499995,
      "d": 198.6755000000121,
      "v": 100
    },
    {
      "midi": 36,
      "hit": false,
      "t": 137258.6898499995,
      "d": 397.3510000000242,
      "v": 100
    },
    {
      "midi": 74,
      "hit": false,
      "t": 137258.6898499995,
      "d": 596.0265000000363,
      "v": 100
    },
    {
      "midi": 76,
      "hit": false,
      "t": 137258.6898499995,
      "d": 596.0265000000363,
      "v": 100
    },
    {
      "midi": 69,
      "hit": false,
      "t": 137258.6898499995,
      "d": 596.0265000000363,
      "v": 100
    },
    {
      "midi": 42,
      "hit": false,
      "t": 137457.3653499995,
      "d": 198.6755000000121,
      "v": 100
    },
    {
      "midi": 62,
      "hit": false,
      "t": 137457.3653499995,
      "d": 198.6755000000121,
      "v": 100
    },
    {
      "midi": 66,
      "hit": false,
      "t": 137457.3653499995,
      "d": 198.6755000000121,
      "v": 100
    },
    {
      "midi": 50,
      "hit": false,
      "t": 137457.3653499995,
      "d": 198.6755000000121,
      "v": 100
    },
    {
      "midi": 64,
      "hit": false,
      "t": 137457.3653499995,
      "d": 198.6755000000121,
      "v": 100
    },
    {
      "midi": 57,
      "hit": false,
      "t": 137457.3653499995,
      "d": 198.6755000000121,
      "v": 100
    },
    {
      "midi": 38,
      "hit": false,
      "t": 137656.04084999952,
      "d": 198.6755000000121,
      "v": 100
    },
    {
      "midi": 64,
      "hit": false,
      "t": 137656.04084999952,
      "d": 198.6755000000121,
      "v": 100
    },
    {
      "midi": 62,
      "hit": false,
      "t": 137656.04084999952,
      "d": 198.6755000000121,
      "v": 100
    },
    {
      "midi": 47,
      "hit": false,
      "t": 137656.04084999952,
      "d": 198.6755000000121,
      "v": 100
    },
    {
      "midi": 50,
      "hit": false,
      "t": 137656.04084999952,
      "d": 198.6755000000121,
      "v": 100
    },
    {
      "midi": 57,
      "hit": false,
      "t": 137656.04084999952,
      "d": 198.6755000000121,
      "v": 100
    },
    {
      "midi": 57,
      "hit": false,
      "t": 137854.71634999954,
      "d": 198.6755000000121,
      "v": 100
    },
    {
      "midi": 36,
      "hit": false,
      "t": 137854.71634999954,
      "d": 198.6755000000121,
      "v": 100
    },
    {
      "midi": 54,
      "hit": false,
      "t": 137854.71634999954,
      "d": 397.3510000000242,
      "v": 100
    },
    {
      "midi": 62,
      "hit": false,
      "t": 137854.71634999954,
      "d": 397.3510000000242,
      "v": 100
    },
    {
      "midi": 66,
      "hit": false,
      "t": 137854.71634999954,
      "d": 397.3510000000242,
      "v": 100
    },
    {
      "midi": 50,
      "hit": false,
      "t": 137854.71634999954,
      "d": 397.3510000000242,
      "v": 100
    },
    {
      "midi": 78,
      "hit": false,
      "t": 137854.71634999954,
      "d": 993.3775000000605,
      "v": 100
    },
    {
      "midi": 69,
      "hit": false,
      "t": 137854.71634999954,
      "d": 993.3775000000605,
      "v": 100
    },
    {
      "midi": 42,
      "hit": false,
      "t": 138053.39184999955,
      "d": 198.6755000000121,
      "v": 100
    },
    {
      "midi": 42,
      "hit": false,
      "t": 138252.06734999956,
      "d": 198.6755000000121,
      "v": 100
    },
    {
      "midi": 62,
      "hit": false,
      "t": 138252.06734999956,
      "d": 198.6755000000121,
      "v": 100
    },
    {
      "midi": 74,
      "hit": false,
      "t": 138252.06734999956,
      "d": 198.6755000000121,
      "v": 100
    },
    {
      "midi": 66,
      "hit": false,
      "t": 138252.06734999956,
      "d": 198.6755000000121,
      "v": 100
    },
    {
      "midi": 52,
      "hit": false,
      "t": 138252.06734999956,
      "d": 198.6755000000121,
      "v": 100
    },
    {
      "midi": 36,
      "hit": false,
      "t": 138252.06734999956,
      "d": 198.6755000000121,
      "v": 100
    },
    {
      "midi": 57,
      "hit": false,
      "t": 138252.06734999956,
      "d": 198.6755000000121,
      "v": 100
    },
    {
      "midi": 50,
      "hit": false,
      "t": 138252.06734999956,
      "d": 198.6755000000121,
      "v": 100
    },
    {
      "midi": 48,
      "hit": false,
      "t": 138450.74284999957,
      "d": 198.6755000000121,
      "v": 100
    },
    {
      "midi": 74,
      "hit": false,
      "t": 138450.74284999957,
      "d": 198.6755000000121,
      "v": 100
    },
    {
      "midi": 50,
      "hit": false,
      "t": 138450.74284999957,
      "d": 198.6755000000121,
      "v": 100
    },
    {
      "midi": 62,
      "hit": false,
      "t": 138450.74284999957,
      "d": 397.3510000000242,
      "v": 100
    },
    {
      "midi": 57,
      "hit": false,
      "t": 138450.74284999957,
      "d": 397.3510000000242,
      "v": 100
    },
    {
      "midi": 66,
      "hit": false,
      "t": 138450.74284999957,
      "d": 397.3510000000242,
      "v": 100
    },
    {
      "midi": 48,
      "hit": false,
      "t": 138649.41834999959,
      "d": 198.6755000000121,
      "v": 100
    },
    {
      "midi": 74,
      "hit": false,
      "t": 138649.41834999959,
      "d": 198.6755000000121,
      "v": 100
    },
    {
      "midi": 47,
      "hit": false,
      "t": 138649.41834999959,
      "d": 198.6755000000121,
      "v": 100
    },
    {
      "midi": 57,
      "hit": false,
      "t": 138848.0938499996,
      "d": 198.6755000000121,
      "v": 100
    },
    {
      "midi": 62,
      "hit": false,
      "t": 138848.0938499996,
      "d": 198.6755000000121,
      "v": 100
    },
    {
      "midi": 55,
      "hit": false,
      "t": 138848.0938499996,
      "d": 198.6755000000121,
      "v": 72
    },
    {
      "midi": 36,
      "hit": false,
      "t": 138848.0938499996,
      "d": 397.3510000000242,
      "v": 100
    },
    {
      "midi": 40,
      "hit": false,
      "t": 138848.0938499996,
      "d": 397.3510000000242,
      "v": 100
    },
    {
      "midi": 74,
      "hit": false,
      "t": 138848.0938499996,
      "d": 794.7020000000484,
      "v": 100
    },
    {
      "midi": 42,
      "hit": false,
      "t": 139046.7693499996,
      "d": 198.6755000000121,
      "v": 100
    },
    {
      "midi": 62,
      "hit": false,
      "t": 139046.7693499996,
      "d": 198.6755000000121,
      "v": 100
    },
    {
      "midi": 59,
      "hit": false,
      "t": 139046.7693499996,
      "d": 198.6755000000121,
      "v": 72
    },
    {
      "midi": 42,
      "hit": false,
      "t": 139245.44484999962,
      "d": 198.6755000000121,
      "v": 100
    },
    {
      "midi": 40,
      "hit": false,
      "t": 139245.44484999962,
      "d": 198.6755000000121,
      "v": 100
    },
    {
      "midi": 38,
      "hit": false,
      "t": 139245.44484999962,
      "d": 198.6755000000121,
      "v": 100
    },
    {
      "midi": 62,
      "hit": false,
      "t": 139245.44484999962,
      "d": 198.6755000000121,
      "v": 100
    },
    {
      "midi": 55,
      "hit": false,
      "t": 139245.44484999962,
      "d": 397.3510000000242,
      "v": 100
    },
    {
      "midi": 59,
      "hit": false,
      "t": 139245.44484999962,
      "d": 397.3510000000242,
      "v": 100
    },
    {
      "midi": 42,
      "hit": false,
      "t": 139444.12034999963,
      "d": 198.6755000000121,
      "v": 100
    },
    {
      "midi": 66,
      "hit": false,
      "t": 139444.12034999963,
      "d": 198.6755000000121,
      "v": 72
    },
    {
      "midi": 47,
      "hit": false,
      "t": 139444.12034999963,
      "d": 397.3510000000242,
      "v": 100
    },
    {
      "midi": 42,
      "hit": false,
      "t": 139642.79584999965,
      "d": 198.6755000000121,
      "v": 100
    },
    {
      "midi": 62,
      "hit": false,
      "t": 139642.79584999965,
      "d": 198.6755000000121,
      "v": 100
    },
    {
      "midi": 36,
      "hit": false,
      "t": 139642.79584999965,
      "d": 397.3510000000242,
      "v": 100
    },
    {
      "midi": 42,
      "hit": false,
      "t": 139841.47134999966,
      "d": 198.6755000000121,
      "v": 100
    },
    {
      "midi": 47,
      "hit": false,
      "t": 139841.47134999966,
      "d": 198.6755000000121,
      "v": 100
    },
    {
      "midi": 74,
      "hit": false,
      "t": 139841.47134999966,
      "d": 397.3510000000242,
      "v": 100
    },
    {
      "midi": 62,
      "hit": false,
      "t": 139841.47134999966,
      "d": 596.0265000000363,
      "v": 100
    },
    {
      "midi": 55,
      "hit": false,
      "t": 139841.47134999966,
      "d": 596.0265000000363,
      "v": 100
    },
    {
      "midi": 66,
      "hit": false,
      "t": 139841.47134999966,
      "d": 596.0265000000363,
      "v": 100
    },
    {
      "midi": 59,
      "hit": false,
      "t": 139841.47134999966,
      "d": 596.0265000000363,
      "v": 100
    },
    {
      "midi": 42,
      "hit": false,
      "t": 140040.14684999967,
      "d": 198.6755000000121,
      "v": 100
    },
    {
      "midi": 38,
      "hit": false,
      "t": 140040.14684999967,
      "d": 198.6755000000121,
      "v": 100
    },
    {
      "midi": 40,
      "hit": false,
      "t": 140040.14684999967,
      "d": 397.3510000000242,
      "v": 100
    },
    {
      "midi": 42,
      "hit": false,
      "t": 140238.82234999968,
      "d": 198.6755000000121,
      "v": 100
    },
    {
      "midi": 73,
      "hit": false,
      "t": 140238.82234999968,
      "d": 198.6755000000121,
      "v": 100
    },
    {
      "midi": 42,
      "hit": false,
      "t": 140437.4978499997,
      "d": 198.6755000000121,
      "v": 100
    },
    {
      "midi": 62,
      "hit": false,
      "t": 140437.4978499997,
      "d": 198.6755000000121,
      "v": 100
    },
    {
      "midi": 57,
      "hit": false,
      "t": 140437.4978499997,
      "d": 198.6755000000121,
      "v": 74
    },
    {
      "midi": 36,
      "hit": false,
      "t": 140437.4978499997,
      "d": 397.3510000000242,
      "v": 100
    },
    {
      "midi": 66,
      "hit": false,
      "t": 140437.4978499997,
      "d": 596.0265000000363,
      "v": 100
    },
    {
      "midi": 73,
      "hit": false,
      "t": 140437.4978499997,
      "d": 794.7020000000484,
      "v": 100
    },
    {
      "midi": 42,
      "hit": false,
      "t": 140636.1733499997,
      "d": 198.6755000000121,
      "v": 100
    },
    {
      "midi": 62,
      "hit": false,
      "t": 140636.1733499997,
      "d": 198.6755000000121,
      "v": 100
    },
    {
      "midi": 45,
      "hit": false,
      "t": 140636.1733499997,
      "d": 198.6755000000121,
      "v": 100
    },
    {
      "midi": 61,
      "hit": false,
      "t": 140636.1733499997,
      "d": 198.6755000000121,
      "v": 74
    },
    {
      "midi": 38,
      "hit": false,
      "t": 140834.84884999972,
      "d": 198.6755000000121,
      "v": 100
    },
    {
      "midi": 47,
      "hit": false,
      "t": 140834.84884999972,
      "d": 198.6755000000121,
      "v": 100
    },
    {
      "midi": 42,
      "hit": false,
      "t": 140834.84884999972,
      "d": 198.6755000000121,
      "v": 100
    },
    {
      "midi": 64,
      "hit": false,
      "t": 140834.84884999972,
      "d": 198.6755000000121,
      "v": 100
    },
    {
      "midi": 57,
      "hit": false,
      "t": 140834.84884999972,
      "d": 397.3510000000242,
      "v": 100
    },
    {
      "midi": 61,
      "hit": false,
      "t": 140834.84884999972,
      "d": 397.3510000000242,
      "v": 100
    },
    {
      "midi": 42,
      "hit": false,
      "t": 141033.52434999973,
      "d": 198.6755000000121,
      "v": 100
    },
    {
      "midi": 69,
      "hit": false,
      "t": 141033.52434999973,
      "d": 198.6755000000121,
      "v": 75
    },
    {
      "midi": 64,
      "hit": false,
      "t": 141033.52434999973,
      "d": 198.6755000000121,
      "v": 100
    },
    {
      "midi": 45,
      "hit": false,
      "t": 141033.52434999973,
      "d": 198.6755000000121,
      "v": 100
    },
    {
      "midi": 42,
      "hit": false,
      "t": 141232.19984999974,
      "d": 198.6755000000121,
      "v": 100
    },
    {
      "midi": 62,
      "hit": false,
      "t": 141232.19984999974,
      "d": 198.6755000000121,
      "v": 100
    },
    {
      "midi": 49,
      "hit": false,
      "t": 141232.19984999974,
      "d": 198.6755000000121,
      "v": 100
    },
    {
      "midi": 36,
      "hit": false,
      "t": 141232.19984999974,
      "d": 397.3510000000242,
      "v": 100
    },
    {
      "midi": 42,
      "hit": false,
      "t": 141430.87534999975,
      "d": 198.6755000000121,
      "v": 100
    },
    {
      "midi": 47,
      "hit": false,
      "t": 141430.87534999975,
      "d": 198.6755000000121,
      "v": 100
    },
    {
      "midi": 64,
      "hit": false,
      "t": 141430.87534999975,
      "d": 198.6755000000121,
      "v": 100
    },
    {
      "midi": 57,
      "hit": false,
      "t": 141430.87534999975,
      "d": 596.0265000000363,
      "v": 100
    },
    {
      "midi": 69,
      "hit": false,
      "t": 141430.87534999975,
      "d": 596.0265000000363,
      "v": 100
    },
    {
      "midi": 38,
      "hit": false,
      "t": 141629.55084999977,
      "d": 198.6755000000121,
      "v": 100
    },
    {
      "midi": 42,
      "hit": false,
      "t": 141629.55084999977,
      "d": 198.6755000000121,
      "v": 100
    },
    {
      "midi": 45,
      "hit": false,
      "t": 141629.55084999977,
      "d": 198.6755000000121,
      "v": 100
    },
    {
      "midi": 73,
      "hit": false,
      "t": 141629.55084999977,
      "d": 397.3510000000242,
      "v": 100
    },
    {
      "midi": 61,
      "hit": false,
      "t": 141629.55084999977,
      "d": 397.3510000000242,
      "v": 100
    },
    {
      "midi": 42,
      "hit": false,
      "t": 141828.22634999978,
      "d": 198.6755000000121,
      "v": 100
    },
    {
      "midi": 42,
      "hit": false,
      "t": 142026.9018499998,
      "d": 198.6755000000121,
      "v": 100
    },
    {
      "midi": 62,
      "hit": false,
      "t": 142026.9018499998,
      "d": 198.6755000000121,
      "v": 100
    },
    {
      "midi": 58,
      "hit": false,
      "t": 142026.9018499998,
      "d": 198.6755000000121,
      "v": 76
    },
    {
      "midi": 36,
      "hit": false,
      "t": 142026.9018499998,
      "d": 397.3510000000242,
      "v": 100
    },
    {
      "midi": 76,
      "hit": false,
      "t": 142026.9018499998,
      "d": 960.2649166667252,
      "v": 100
    },
    {
      "midi": 42,
      "hit": false,
      "t": 142225.5773499998,
      "d": 198.6755000000121,
      "v": 100
    },
    {
      "midi": 62,
      "hit": false,
      "t": 142225.5773499998,
      "d": 198.6755000000121,
      "v": 100
    },
    {
      "midi": 61,
      "hit": false,
      "t": 142225.5773499998,
      "d": 198.6755000000121,
      "v": 76
    },
    {
      "midi": 38,
      "hit": false,
      "t": 142424.25284999982,
      "d": 198.6755000000121,
      "v": 100
    },
    {
      "midi": 42,
      "hit": false,
      "t": 142424.25284999982,
      "d": 198.6755000000121,
      "v": 100
    },
    {
      "midi": 66,
      "hit": false,
      "t": 142424.25284999982,
      "d": 198.6755000000121,
      "v": 100
    },
    {
      "midi": 58,
      "hit": false,
      "t": 142424.25284999982,
      "d": 397.3510000000242,
      "v": 100
    },
    {
      "midi": 61,
      "hit": false,
      "t": 142424.25284999982,
      "d": 397.3510000000242,
      "v": 100
    },
    {
      "midi": 42,
      "hit": false,
      "t": 142622.92834999983,
      "d": 198.6755000000121,
      "v": 100
    },
    {
      "midi": 70,
      "hit": false,
      "t": 142622.92834999983,
      "d": 198.6755000000121,
      "v": 77
    },
    {
      "midi": 49,
      "hit": false,
      "t": 142622.92834999983,
      "d": 397.3510000000242,
      "v": 100
    },
    {
      "midi": 42,
      "hit": false,
      "t": 142821.60384999984,
      "d": 198.6755000000121,
      "v": 100
    },
    {
      "midi": 62,
      "hit": false,
      "t": 142821.60384999984,
      "d": 198.6755000000121,
      "v": 100
    },
    {
      "midi": 36,
      "hit": false,
      "t": 142821.60384999984,
      "d": 397.3510000000242,
      "v": 100
    },
    {
      "midi": 42,
      "hit": false,
      "t": 143020.27934999985,
      "d": 198.6755000000121,
      "v": 100
    },
    {
      "midi": 70,
      "hit": false,
      "t": 143020.27934999985,
      "d": 198.6755000000121,
      "v": 100
    },
    {
      "midi": 47,
      "hit": false,
      "t": 143020.27934999985,
      "d": 198.6755000000121,
      "v": 100
    },
    {
      "midi": 78,
      "hit": false,
      "t": 143020.27934999985,
      "d": 397.3510000000242,
      "v": 100
    },
    {
      "midi": 61,
      "hit": false,
      "t": 143020.27934999985,
      "d": 596.0265000000363,
      "v": 100
    },
    {
      "midi": 58,
      "hit": false,
      "t": 143020.27934999985,
      "d": 596.0265000000363,
      "v": 100
    },
    {
      "midi": 66,
      "hit": false,
      "t": 143020.27934999985,
      "d": 596.0265000000363,
      "v": 100
    },
    {
      "midi": 38,
      "hit": false,
      "t": 143218.95484999986,
      "d": 198.6755000000121,
      "v": 100
    },
    {
      "midi": 42,
      "hit": false,
      "t": 143218.95484999986,
      "d": 198.6755000000121,
      "v": 100
    },
    {
      "midi": 45,
      "hit": false,
      "t": 143218.95484999986,
      "d": 198.6755000000121,
      "v": 100
    },
    {
      "midi": 73,
      "hit": false,
      "t": 143218.95484999986,
      "d": 397.3510000000242,
      "v": 78
    },
    {
      "midi": 42,
      "hit": false,
      "t": 143417.63034999988,
      "d": 198.6755000000121,
      "v": 100
    },
    {
      "midi": 76,
      "hit": false,
      "t": 143417.63034999988,
      "d": 198.6755000000121,
      "v": 100
    },
    {
      "midi": 42,
      "hit": false,
      "t": 143616.3058499999,
      "d": 198.6755000000121,
      "v": 100
    },
    {
      "midi": 62,
      "hit": false,
      "t": 143616.3058499999,
      "d": 198.6755000000121,
      "v": 100
    },
    {
      "midi": 43,
      "hit": false,
      "t": 143616.3058499999,
      "d": 198.6755000000121,
      "v": 100
    },
    {
      "midi": 73,
      "hit": false,
      "t": 143616.3058499999,
      "d": 397.3510000000242,
      "v": 78
    },
    {
      "midi": 66,
      "hit": false,
      "t": 143616.3058499999,
      "d": 397.3510000000242,
      "v": 78
    },
    {
      "midi": 36,
      "hit": false,
      "t": 143616.3058499999,
      "d": 397.3510000000242,
      "v": 100
    },
    {
      "midi": 64,
      "hit": false,
      "t": 143616.3058499999,
      "d": 596.0265000000363,
      "v": 100
    },
    {
      "midi": 74,
      "hit": false,
      "t": 143616.3058499999,
      "d": 794.7020000000484,
      "v": 100
    },
    {
      "midi": 42,
      "hit": false,
      "t": 143814.9813499999,
      "d": 198.6755000000121,
      "v": 100
    },
    {
      "midi": 62,
      "hit": false,
      "t": 143814.9813499999,
      "d": 198.6755000000121,
      "v": 100
    },
    {
      "midi": 43,
      "hit": false,
      "t": 143814.9813499999,
      "d": 198.6755000000121,
      "v": 100
    },
    {
      "midi": 38,
      "hit": false,
      "t": 144013.6568499999,
      "d": 198.6755000000121,
      "v": 100
    },
    {
      "midi": 43,
      "hit": false,
      "t": 144013.6568499999,
      "d": 198.6755000000121,
      "v": 100
    },
    {
      "midi": 66,
      "hit": false,
      "t": 144013.6568499999,
      "d": 198.6755000000121,
      "v": 100
    },
    {
      "midi": 62,
      "hit": false,
      "t": 144013.6568499999,
      "d": 198.6755000000121,
      "v": 100
    },
    {
      "midi": 42,
      "hit": false,
      "t": 144013.6568499999,
      "d": 198.6755000000121,
      "v": 100
    },
    {
      "midi": 73,
      "hit": false,
      "t": 144013.6568499999,
      "d": 198.6755000000121,
      "v": 89
    },
    {
      "midi": 59,
      "hit": false,
      "t": 144013.6568499999,
      "d": 397.3510000000242,
      "v": 100
    },
    {
      "midi": 42,
      "hit": false,
      "t": 144212.33234999992,
      "d": 198.6755000000121,
      "v": 100
    },
    {
      "midi": 71,
      "hit": false,
      "t": 144212.33234999992,
      "d": 198.6755000000121,
      "v": 91
    },
    {
      "midi": 43,
      "hit": false,
      "t": 144212.33234999992,
      "d": 198.6755000000121,
      "v": 100
    },
    {
      "midi": 62,
      "hit": false,
      "t": 144212.33234999992,
      "d": 198.6755000000121,
      "v": 91
    },
    {
      "midi": 66,
      "hit": false,
      "t": 144212.33234999992,
      "d": 198.6755000000121,
      "v": 91
    },
    {
      "midi": 42,
      "hit": false,
      "t": 144411.00784999994,
      "d": 198.6755000000121,
      "v": 100
    },
    {
      "midi": 61,
      "hit": false,
      "t": 144411.00784999994,
      "d": 198.6755000000121,
      "v": 100
    },
    {
      "midi": 43,
      "hit": false,
      "t": 144411.00784999994,
      "d": 198.6755000000121,
      "v": 100
    },
    {
      "midi": 36,
      "hit": false,
      "t": 144411.00784999994,
      "d": 397.3510000000242,
      "v": 100
    },
    {
      "midi": 57,
      "hit": false,
      "t": 144609.68334999995,
      "d": 198.6755000000121,
      "v": 100
    },
    {
      "midi": 38,
      "hit": false,
      "t": 144609.68334999995,
      "d": 198.6755000000121,
      "v": 100
    },
    {
      "midi": 45,
      "hit": false,
      "t": 144609.68334999995,
      "d": 198.6755000000121,
      "v": 100
    },
    {
      "midi": 78,
      "hit": false,
      "t": 144609.68334999995,
      "d": 397.3510000000242,
      "v": 100
    },
    {
      "midi": 71,
      "hit": false,
      "t": 144609.68334999995,
      "d": 596.0265000000363,
      "v": 100
    },
    {
      "midi": 66,
      "hit": false,
      "t": 144609.68334999995,
      "d": 596.0265000000363,
      "v": 100
    },
    {
      "midi": 62,
      "hit": false,
      "t": 144609.68334999995,
      "d": 596.0265000000363,
      "v": 100
    },
    {
      "midi": 59,
      "hit": false,
      "t": 144609.68334999995,
      "d": 596.0265000000363,
      "v": 100
    },
    {
      "midi": 74,
      "hit": false,
      "t": 144609.68334999995,
      "d": 596.0265000000363,
      "v": 94
    },
    {
      "midi": 57,
      "hit": false,
      "t": 144808.35884999996,
      "d": 397.3510000000242,
      "v": 100
    },
    {
      "midi": 38,
      "hit": false,
      "t": 144808.35884999996,
      "d": 397.3510000000242,
      "v": 100
    },
    {
      "midi": 47,
      "hit": false,
      "t": 144808.35884999996,
      "d": 397.3510000000242,
      "v": 100
    },
    {
      "midi": 78,
      "hit": false,
      "t": 145007.03434999997,
      "d": 198.6755000000121,
      "v": 100
    },
    {
      "midi": 57,
      "hit": false,
      "t": 145205.70984999998,
      "d": 198.6755000000121,
      "v": 100
    },
    {
      "midi": 62,
      "hit": false,
      "t": 145205.70984999998,
      "d": 198.6755000000121,
      "v": 100
    },
    {
      "midi": 78,
      "hit": false,
      "t": 145205.70984999998,
      "d": 298.01325000001816,
      "v": 100
    },
    {
      "midi": 40,
      "hit": false,
      "t": 145205.70984999998,
      "d": 397.3510000000242,
      "v": 100
    },
    {
      "midi": 36,
      "hit": false,
      "t": 145205.70984999998,
      "d": 397.3510000000242,
      "v": 100
    },
    {
      "midi": 62,
      "hit": false,
      "t": 145404.38535,
      "d": 198.6755000000121,
      "v": 100
    },
    {
      "midi": 42,
      "hit": false,
      "t": 145404.38535,
      "d": 198.6755000000121,
      "v": 100
    },
    {
      "midi": 76,
      "hit": false,
      "t": 145503.7231,
      "d": 298.01325000001816,
      "v": 100
    },
    {
      "midi": 42,
      "hit": false,
      "t": 145603.06085,
      "d": 198.6755000000121,
      "v": 100
    },
    {
      "midi": 38,
      "hit": false,
      "t": 145603.06085,
      "d": 198.6755000000121,
      "v": 100
    },
    {
      "midi": 40,
      "hit": false,
      "t": 145603.06085,
      "d": 198.6755000000121,
      "v": 100
    },
    {
      "midi": 59,
      "hit": false,
      "t": 145603.06085,
      "d": 397.3510000000242,
      "v": 100
    },
    {
      "midi": 55,
      "hit": false,
      "t": 145603.06085,
      "d": 397.3510000000242,
      "v": 100
    },
    {
      "midi": 66,
      "hit": false,
      "t": 145603.06085,
      "d": 397.3510000000242,
      "v": 100
    },
    {
      "midi": 62,
      "hit": false,
      "t": 145603.06085,
      "d": 397.3510000000242,
      "v": 100
    },
    {
      "midi": 42,
      "hit": false,
      "t": 145801.73635000002,
      "d": 198.6755000000121,
      "v": 100
    },
    {
      "midi": 43,
      "hit": false,
      "t": 145801.73635000002,
      "d": 397.3510000000242,
      "v": 100
    },
    {
      "midi": 42,
      "hit": false,
      "t": 146000.41185000003,
      "d": 198.6755000000121,
      "v": 100
    },
    {
      "midi": 62,
      "hit": false,
      "t": 146000.41185000003,
      "d": 198.6755000000121,
      "v": 100
    },
    {
      "midi": 71,
      "hit": false,
      "t": 146000.41185000003,
      "d": 794.7020000000484,
      "v": 100
    },
    {
      "midi": 42,
      "hit": false,
      "t": 146199.08735000005,
      "d": 198.6755000000121,
      "v": 100
    },
    {
      "midi": 36,
      "hit": false,
      "t": 146199.08735000005,
      "d": 198.6755000000121,
      "v": 100
    },
    {
      "midi": 40,
      "hit": false,
      "t": 146199.08735000005,
      "d": 198.6755000000121,
      "v": 100
    },
    {
      "midi": 66,
      "hit": false,
      "t": 146199.08735000005,
      "d": 596.0265000000363,
      "v": 100
    },
    {
      "midi": 62,
      "hit": false,
      "t": 146199.08735000005,
      "d": 596.0265000000363,
      "v": 100
    },
    {
      "midi": 55,
      "hit": false,
      "t": 146199.08735000005,
      "d": 596.0265000000363,
      "v": 100
    },
    {
      "midi": 59,
      "hit": false,
      "t": 146199.08735000005,
      "d": 596.0265000000363,
      "v": 100
    },
    {
      "midi": 42,
      "hit": false,
      "t": 146397.76285000006,
      "d": 198.6755000000121,
      "v": 100
    },
    {
      "midi": 38,
      "hit": false,
      "t": 146397.76285000006,
      "d": 198.6755000000121,
      "v": 100
    },
    {
      "midi": 40,
      "hit": false,
      "t": 146397.76285000006,
      "d": 198.6755000000121,
      "v": 100
    },
    {
      "midi": 42,
      "hit": false,
      "t": 146596.43835000007,
      "d": 198.6755000000121,
      "v": 100
    },
    {
      "midi": 40,
      "hit": false,
      "t": 146596.43835000007,
      "d": 198.6755000000121,
      "v": 100
    },
    {
      "midi": 42,
      "hit": false,
      "t": 146795.11385000008,
      "d": 198.6755000000121,
      "v": 100
    },
    {
      "midi": 43,
      "hit": false,
      "t": 146795.11385000008,
      "d": 198.6755000000121,
      "v": 100
    },
    {
      "midi": 62,
      "hit": false,
      "t": 146795.11385000008,
      "d": 198.6755000000121,
      "v": 100
    },
    {
      "midi": 36,
      "hit": false,
      "t": 146795.11385000008,
      "d": 397.3510000000242,
      "v": 100
    },
    {
      "midi": 67,
      "hit": false,
      "t": 146795.11385000008,
      "d": 794.7020000000484,
      "v": 100
    },
    {
      "midi": 42,
      "hit": false,
      "t": 146993.7893500001,
      "d": 198.6755000000121,
      "v": 100
    },
    {
      "midi": 62,
      "hit": false,
      "t": 146993.7893500001,
      "d": 198.6755000000121,
      "v": 100
    },
    {
      "midi": 40,
      "hit": false,
      "t": 146993.7893500001,
      "d": 198.6755000000121,
      "v": 100
    },
    {
      "midi": 42,
      "hit": false,
      "t": 147192.4648500001,
      "d": 198.6755000000121,
      "v": 100
    },
    {
      "midi": 38,
      "hit": false,
      "t": 147192.4648500001,
      "d": 198.6755000000121,
      "v": 100
    },
    {
      "midi": 40,
      "hit": false,
      "t": 147192.4648500001,
      "d": 198.6755000000121,
      "v": 100
    },
    {
      "midi": 62,
      "hit": false,
      "t": 147192.4648500001,
      "d": 397.3510000000242,
      "v": 100
    },
    {
      "midi": 66,
      "hit": false,
      "t": 147192.4648500001,
      "d": 397.3510000000242,
      "v": 100
    },
    {
      "midi": 59,
      "hit": false,
      "t": 147192.4648500001,
      "d": 397.3510000000242,
      "v": 100
    },
    {
      "midi": 55,
      "hit": false,
      "t": 147192.4648500001,
      "d": 397.3510000000242,
      "v": 100
    },
    {
      "midi": 42,
      "hit": false,
      "t": 147391.14035000012,
      "d": 198.6755000000121,
      "v": 100
    },
    {
      "midi": 43,
      "hit": false,
      "t": 147391.14035000012,
      "d": 198.6755000000121,
      "v": 100
    },
    {
      "midi": 42,
      "hit": false,
      "t": 147589.81585000013,
      "d": 198.6755000000121,
      "v": 100
    },
    {
      "midi": 40,
      "hit": false,
      "t": 147589.81585000013,
      "d": 198.6755000000121,
      "v": 100
    },
    {
      "midi": 62,
      "hit": false,
      "t": 147589.81585000013,
      "d": 198.6755000000121,
      "v": 100
    },
    {
      "midi": 74,
      "hit": false,
      "t": 147589.81585000013,
      "d": 794.7020000000484,
      "v": 100
    },
    {
      "midi": 42,
      "hit": false,
      "t": 147788.49135000014,
      "d": 198.6755000000121,
      "v": 100
    },
    {
      "midi": 36,
      "hit": false,
      "t": 147788.49135000014,
      "d": 198.6755000000121,
      "v": 100
    },
    {
      "midi": 40,
      "hit": false,
      "t": 147788.49135000014,
      "d": 198.6755000000121,
      "v": 100
    },
    {
      "midi": 78,
      "hit": false,
      "t": 147788.49135000014,
      "d": 198.6755000000121,
      "v": 100
    },
    {
      "midi": 59,
      "hit": false,
      "t": 147788.49135000014,
      "d": 596.0265000000363,
      "v": 100
    },
    {
      "midi": 66,
      "hit": false,
      "t": 147788.49135000014,
      "d": 596.0265000000363,
      "v": 100
    },
    {
      "midi": 55,
      "hit": false,
      "t": 147788.49135000014,
      "d": 596.0265000000363,
      "v": 100
    },
    {
      "midi": 62,
      "hit": false,
      "t": 147788.49135000014,
      "d": 596.0265000000363,
      "v": 100
    },
    {
      "midi": 42,
      "hit": false,
      "t": 147987.16685000015,
      "d": 198.6755000000121,
      "v": 100
    },
    {
      "midi": 38,
      "hit": false,
      "t": 147987.16685000015,
      "d": 198.6755000000121,
      "v": 100
    },
    {
      "midi": 49,
      "hit": false,
      "t": 147987.16685000015,
      "d": 198.6755000000121,
      "v": 100
    },
    {
      "midi": 78,
      "hit": false,
      "t": 147987.16685000015,
      "d": 198.6755000000121,
      "v": 100
    },
    {
      "midi": 42,
      "hit": false,
      "t": 148185.84235000017,
      "d": 198.6755000000121,
      "v": 100
    },
    {
      "midi": 78,
      "hit": false,
      "t": 148185.84235000017,
      "d": 198.6755000000121,
      "v": 100
    },
    {
      "midi": 47,
      "hit": false,
      "t": 148185.84235000017,
      "d": 198.6755000000121,
      "v": 100
    },
    {
      "midi": 64,
      "hit": false,
      "t": 148384.51785000018,
      "d": 198.6755000000121,
      "v": 100
    },
    {
      "midi": 58,
      "hit": false,
      "t": 148384.51785000018,
      "d": 198.6755000000121,
      "v": 100
    },
    {
      "midi": 54,
      "hit": false,
      "t": 148384.51785000018,
      "d": 198.6755000000121,
      "v": 100
    },
    {
      "midi": 45,
      "hit": false,
      "t": 148384.51785000018,
      "d": 198.6755000000121,
      "v": 100
    },
    {
      "midi": 70,
      "hit": false,
      "t": 148384.51785000018,
      "d": 397.3510000000242,
      "v": 100
    },
    {
      "midi": 66,
      "hit": false,
      "t": 148384.51785000018,
      "d": 397.3510000000242,
      "v": 100
    },
    {
      "midi": 73,
      "hit": false,
      "t": 148384.51785000018,
      "d": 397.3510000000242,
      "v": 100
    },
    {
      "midi": 76,
      "hit": false,
      "t": 148384.51785000018,
      "d": 397.3510000000242,
      "v": 100
    },
    {
      "midi": 78,
      "hit": false,
      "t": 148384.51785000018,
      "d": 397.3510000000242,
      "v": 100
    },
    {
      "midi": 36,
      "hit": false,
      "t": 148583.1933500002,
      "d": 198.6755000000121,
      "v": 100
    },
    {
      "midi": 38,
      "hit": false,
      "t": 148583.1933500002,
      "d": 198.6755000000121,
      "v": 100
    },
    {
      "midi": 55,
      "hit": false,
      "t": 148583.1933500002,
      "d": 198.6755000000121,
      "v": 100
    },
    {
      "midi": 55,
      "hit": false,
      "t": 148781.8688500002,
      "d": 198.6755000000121,
      "v": 100
    },
    {
      "midi": 78,
      "hit": false,
      "t": 148781.8688500002,
      "d": 198.6755000000121,
      "v": 100
    },
    {
      "midi": 38,
      "hit": false,
      "t": 148781.8688500002,
      "d": 198.6755000000121,
      "v": 100
    },
    {
      "midi": 36,
      "hit": false,
      "t": 148781.8688500002,
      "d": 397.3510000000242,
      "v": 100
    },
    {
      "midi": 38,
      "hit": false,
      "t": 148980.54435000021,
      "d": 198.6755000000121,
      "v": 100
    },
    {
      "midi": 73,
      "hit": false,
      "t": 148980.54435000021,
      "d": 198.6755000000121,
      "v": 100
    },
    {
      "midi": 78,
      "hit": false,
      "t": 148980.54435000021,
      "d": 198.6755000000121,
      "v": 100
    },
    {
      "midi": 45,
      "hit": false,
      "t": 148980.54435000021,
      "d": 198.6755000000121,
      "v": 100
    },
    {
      "midi": 66,
      "hit": false,
      "t": 148980.54435000021,
      "d": 198.6755000000121,
      "v": 100
    },
    {
      "midi": 64,
      "hit": false,
      "t": 148980.54435000021,
      "d": 198.6755000000121,
      "v": 100
    },
    {
      "midi": 70,
      "hit": false,
      "t": 148980.54435000021,
      "d": 198.6755000000121,
      "v": 100
    },
    {
      "midi": 58,
      "hit": false,
      "t": 148980.54435000021,
      "d": 198.6755000000121,
      "v": 100
    },
    {
      "midi": 54,
      "hit": false,
      "t": 148980.54435000021,
      "d": 198.6755000000121,
      "v": 100
    },
    {
      "midi": 76,
      "hit": false,
      "t": 148980.54435000021,
      "d": 397.3510000000242,
      "v": 100
    },
    {
      "midi": 36,
      "hit": false,
      "t": 149179.21985000023,
      "d": 198.6755000000121,
      "v": 100
    },
    {
      "midi": 38,
      "hit": false,
      "t": 149179.21985000023,
      "d": 198.6755000000121,
      "v": 100
    },
    {
      "midi": 55,
      "hit": false,
      "t": 149179.21985000023,
      "d": 198.6755000000121,
      "v": 100
    },
    {
      "midi": 36,
      "hit": false,
      "t": 149377.89535000024,
      "d": 198.6755000000121,
      "v": 100
    },
    {
      "midi": 78,
      "hit": false,
      "t": 149377.89535000024,
      "d": 198.6755000000121,
      "v": 100
    },
    {
      "midi": 38,
      "hit": false,
      "t": 149377.89535000024,
      "d": 198.6755000000121,
      "v": 100
    },
    {
      "midi": 55,
      "hit": false,
      "t": 149377.89535000024,
      "d": 198.6755000000121,
      "v": 100
    },
    {
      "midi": 45,
      "hit": false,
      "t": 149576.57085000025,
      "d": 198.6755000000121,
      "v": 100
    },
    {
      "midi": 57,
      "hit": false,
      "t": 149576.57085000025,
      "d": 397.3510000000242,
      "v": 100
    },
    {
      "midi": 76,
      "hit": false,
      "t": 149576.57085000025,
      "d": 794.7020000000484,
      "v": 100
    },
    {
      "midi": 73,
      "hit": false,
      "t": 149576.57085000025,
      "d": 1986.755000000121,
      "v": 100
    },
    {
      "midi": 54,
      "hit": false,
      "t": 149576.57085000025,
      "d": 1986.755000000121,
      "v": 100
    },
    {
      "midi": 70,
      "hit": false,
      "t": 149576.57085000025,
      "d": 1986.755000000121,
      "v": 100
    },
    {
      "midi": 66,
      "hit": false,
      "t": 149576.57085000025,
      "d": 1986.755000000121,
      "v": 100
    },
    {
      "midi": 64,
      "hit": false,
      "t": 149576.57085000025,
      "d": 1986.755000000121,
      "v": 100
    },
    {
      "midi": 58,
      "hit": false,
      "t": 149576.57085000025,
      "d": 1986.755000000121,
      "v": 100
    },
    {
      "midi": 38,
      "hit": false,
      "t": 149775.24635000026,
      "d": 198.6755000000121,
      "v": 100
    },
    {
      "midi": 38,
      "hit": false,
      "t": 149973.92185000028,
      "d": 99.33775000000605,
      "v": 100
    },
    {
      "midi": 50,
      "hit": false,
      "t": 150073.25960000028,
      "d": 198.6755000000121,
      "v": 100
    },
    {
      "midi": 57,
      "hit": false,
      "t": 150172.5973500003,
      "d": 198.6755000000121,
      "v": 100
    },
    {
      "midi": 36,
      "hit": false,
      "t": 150172.5973500003,
      "d": 198.6755000000121,
      "v": 100
    },
    {
      "midi": 50,
      "hit": false,
      "t": 150271.9351000003,
      "d": 298.01325000001816,
      "v": 100
    },
    {
      "midi": 38,
      "hit": false,
      "t": 150470.6106000003,
      "d": 99.33775000000605,
      "v": 100
    },
    {
      "midi": 38,
      "hit": false,
      "t": 150569.9483500003,
      "d": 198.6755000000121,
      "v": 100
    },
    {
      "midi": 50,
      "hit": false,
      "t": 150569.9483500003,
      "d": 596.0265000000363,
      "v": 100
    },
    {
      "midi": 48,
      "hit": false,
      "t": 150768.62385000032,
      "d": 99.33775000000605,
      "v": 100
    },
    {
      "midi": 47,
      "hit": false,
      "t": 150867.96160000033,
      "d": 99.33775000000605,
      "v": 100
    },
    {
      "midi": 38,
      "hit": false,
      "t": 150967.29935000034,
      "d": 198.6755000000121,
      "v": 100
    },
    {
      "midi": 78,
      "hit": false,
      "t": 150967.29935000034,
      "d": 198.6755000000121,
      "v": 100
    },
    {
      "midi": 36,
      "hit": false,
      "t": 151066.63710000034,
      "d": 99.33775000000605,
      "v": 100
    },
    {
      "midi": 78,
      "hit": false,
      "t": 151165.97485000035,
      "d": 198.6755000000121,
      "v": 100
    },
    {
      "midi": 38,
      "hit": false,
      "t": 151165.97485000035,
      "d": 397.3510000000242,
      "v": 100
    },
    {
      "midi": 36,
      "hit": false,
      "t": 151364.65035000036,
      "d": 198.6755000000121,
      "v": 100
    },
    {
      "midi": 78,
      "hit": false,
      "t": 151364.65035000036,
      "d": 198.6755000000121,
      "v": 100
    },
    {
      "midi": 62,
      "hit": false,
      "t": 151563.32585000037,
      "d": 198.6755000000121,
      "v": 100
    },
    {
      "midi": 78,
      "hit": false,
      "t": 151563.32585000037,
      "d": 298.01325000001816,
      "v": 100
    },
    {
      "midi": 71,
      "hit": false,
      "t": 151563.32585000037,
      "d": 298.01325000001816,
      "v": 100
    },
    {
      "midi": 67,
      "hit": false,
      "t": 151563.32585000037,
      "d": 298.01325000001816,
      "v": 100
    },
    {
      "midi": 74,
      "hit": false,
      "t": 151563.32585000037,
      "d": 298.01325000001816,
      "v": 100
    },
    {
      "midi": 38,
      "hit": false,
      "t": 151563.32585000037,
      "d": 397.3510000000242,
      "v": 100
    },
    {
      "midi": 57,
      "hit": false,
      "t": 151563.32585000037,
      "d": 397.3510000000242,
      "v": 100
    },
    {
      "midi": 36,
      "hit": false,
      "t": 151563.32585000037,
      "d": 397.3510000000242,
      "v": 100
    },
    {
      "midi": 40,
      "hit": false,
      "t": 151563.32585000037,
      "d": 397.3510000000242,
      "v": 100
    },
    {
      "midi": 69,
      "hit": false,
      "t": 151563.32585000037,
      "d": 1589.4040000000969,
      "v": 100
    },
    {
      "midi": 62,
      "hit": false,
      "t": 151762.00135000038,
      "d": 198.6755000000121,
      "v": 100
    },
    {
      "midi": 78,
      "hit": false,
      "t": 151861.3391000004,
      "d": 99.33775000000605,
      "v": 100
    },
    {
      "midi": 74,
      "hit": false,
      "t": 151861.3391000004,
      "d": 99.33775000000605,
      "v": 100
    },
    {
      "midi": 71,
      "hit": false,
      "t": 151960.6768500004,
      "d": 198.6755000000121,
      "v": 100
    },
    {
      "midi": 66,
      "hit": false,
      "t": 151960.6768500004,
      "d": 198.6755000000121,
      "v": 100
    },
    {
      "midi": 62,
      "hit": false,
      "t": 151960.6768500004,
      "d": 198.6755000000121,
      "v": 100
    },
    {
      "midi": 40,
      "hit": false,
      "t": 151960.6768500004,
      "d": 298.01325000001816,
      "v": 100
    },
    {
      "midi": 78,
      "hit": false,
      "t": 151960.6768500004,
      "d": 397.3510000000242,
      "v": 100
    },
    {
      "midi": 74,
      "hit": false,
      "t": 151960.6768500004,
      "d": 397.3510000000242,
      "v": 100
    },
    {
      "midi": 42,
      "hit": false,
      "t": 151960.6768500004,
      "d": 397.3510000000242,
      "v": 100
    },
    {
      "midi": 62,
      "hit": false,
      "t": 152159.3523500004,
      "d": 99.33775000000605,
      "v": 100
    },
    {
      "midi": 62,
      "hit": false,
      "t": 152258.6901000004,
      "d": 99.33775000000605,
      "v": 100
    },
    {
      "midi": 38,
      "hit": false,
      "t": 152258.6901000004,
      "d": 99.33775000000605,
      "v": 100
    },
    {
      "midi": 62,
      "hit": false,
      "t": 152358.02785000042,
      "d": 198.6755000000121,
      "v": 100
    },
    {
      "midi": 40,
      "hit": false,
      "t": 152358.02785000042,
      "d": 198.6755000000121,
      "v": 100
    },
    {
      "midi": 78,
      "hit": false,
      "t": 152358.02785000042,
      "d": 198.6755000000121,
      "v": 100
    },
    {
      "midi": 42,
      "hit": false,
      "t": 152358.02785000042,
      "d": 397.3510000000242,
      "v": 100
    },
    {
      "midi": 38,
      "hit": false,
      "t": 152358.02785000042,
      "d": 397.3510000000242,
      "v": 100
    },
    {
      "midi": 36,
      "hit": false,
      "t": 152556.70335000043,
      "d": 198.6755000000121,
      "v": 100
    },
    {
      "midi": 71,
      "hit": false,
      "t": 152556.70335000043,
      "d": 397.3510000000242,
      "v": 100
    },
    {
      "midi": 43,
      "hit": false,
      "t": 152556.70335000043,
      "d": 397.3510000000242,
      "v": 100
    },
    {
      "midi": 62,
      "hit": false,
      "t": 152556.70335000043,
      "d": 397.3510000000242,
      "v": 100
    },
    {
      "midi": 66,
      "hit": false,
      "t": 152556.70335000043,
      "d": 397.3510000000242,
      "v": 100
    },
    {
      "midi": 76,
      "hit": false,
      "t": 152556.70335000043,
      "d": 397.3510000000242,
      "v": 100
    },
    {
      "midi": 38,
      "hit": false,
      "t": 152755.37885000044,
      "d": 397.3510000000242,
      "v": 100
    },
    {
      "midi": 42,
      "hit": false,
      "t": 152755.37885000044,
      "d": 397.3510000000242,
      "v": 100
    },
    {
      "midi": 36,
      "hit": false,
      "t": 152954.05435000046,
      "d": 198.6755000000121,
      "v": 100
    },
    {
      "midi": 62,
      "hit": false,
      "t": 152954.05435000046,
      "d": 198.6755000000121,
      "v": 100
    },
    {
      "midi": 40,
      "hit": false,
      "t": 152954.05435000046,
      "d": 198.6755000000121,
      "v": 100
    },
    {
      "midi": 74,
      "hit": false,
      "t": 152954.05435000046,
      "d": 397.3510000000242,
      "v": 100
    },
    {
      "midi": 81,
      "hit": false,
      "t": 152954.05435000046,
      "d": 397.3510000000242,
      "v": 100
    },
    {
      "midi": 78,
      "hit": false,
      "t": 152954.05435000046,
      "d": 397.3510000000242,
      "v": 100
    },
    {
      "midi": 62,
      "hit": false,
      "t": 153152.72985000047,
      "d": 198.6755000000121,
      "v": 100
    },
    {
      "midi": 42,
      "hit": false,
      "t": 153152.72985000047,
      "d": 198.6755000000121,
      "v": 100
    },
    {
      "midi": 36,
      "hit": false,
      "t": 153152.72985000047,
      "d": 397.3510000000242,
      "v": 100
    },
    {
      "midi": 38,
      "hit": false,
      "t": 153152.72985000047,
      "d": 397.3510000000242,
      "v": 100
    },
    {
      "midi": 67,
      "hit": false,
      "t": 153152.72985000047,
      "d": 596.0265000000363,
      "v": 100
    },
    {
      "midi": 73,
      "hit": false,
      "t": 153351.40535000048,
      "d": 198.6755000000121,
      "v": 100
    },
    {
      "midi": 76,
      "hit": false,
      "t": 153351.40535000048,
      "d": 198.6755000000121,
      "v": 100
    },
    {
      "midi": 69,
      "hit": false,
      "t": 153351.40535000048,
      "d": 198.6755000000121,
      "v": 100
    },
    {
      "midi": 45,
      "hit": false,
      "t": 153351.40535000048,
      "d": 198.6755000000121,
      "v": 100
    },
    {
      "midi": 66,
      "hit": false,
      "t": 153351.40535000048,
      "d": 198.6755000000121,
      "v": 100
    },
    {
      "midi": 64,
      "hit": false,
      "t": 153351.40535000048,
      "d": 198.6755000000121,
      "v": 100
    },
    {
      "midi": 79,
      "hit": false,
      "t": 153351.40535000048,
      "d": 397.3510000000242,
      "v": 100
    },
    {
      "midi": 62,
      "hit": false,
      "t": 153550.0808500005,
      "d": 198.6755000000121,
      "v": 100
    },
    {
      "midi": 47,
      "hit": false,
      "t": 153550.0808500005,
      "d": 198.6755000000121,
      "v": 100
    },
    {
      "midi": 38,
      "hit": false,
      "t": 153550.0808500005,
      "d": 397.3510000000242,
      "v": 100
    },
    {
      "midi": 76,
      "hit": false,
      "t": 153550.0808500005,
      "d": 397.3510000000242,
      "v": 100
    },
    {
      "midi": 42,
      "hit": false,
      "t": 153550.0808500005,
      "d": 397.3510000000242,
      "v": 100
    },
    {
      "midi": 73,
      "hit": false,
      "t": 153748.7563500005,
      "d": 198.6755000000121,
      "v": 100
    },
    {
      "midi": 49,
      "hit": false,
      "t": 153748.7563500005,
      "d": 397.3510000000242,
      "v": 100
    },
    {
      "midi": 66,
      "hit": false,
      "t": 153748.7563500005,
      "d": 397.3510000000242,
      "v": 100
    },
    {
      "midi": 78,
      "hit": false,
      "t": 153748.7563500005,
      "d": 397.3510000000242,
      "v": 100
    },
    {
      "midi": 64,
      "hit": false,
      "t": 153748.7563500005,
      "d": 397.3510000000242,
      "v": 100
    },
    {
      "midi": 61,
      "hit": false,
      "t": 153748.7563500005,
      "d": 993.3775000000605,
      "v": 100
    },
    {
      "midi": 69,
      "hit": false,
      "t": 153748.7563500005,
      "d": 993.3775000000605,
      "v": 100
    },
    {
      "midi": 38,
      "hit": false,
      "t": 153947.43185000052,
      "d": 397.3510000000242,
      "v": 100
    },
    {
      "midi": 42,
      "hit": false,
      "t": 153947.43185000052,
      "d": 397.3510000000242,
      "v": 100
    },
    {
      "midi": 36,
      "hit": false,
      "t": 154146.10735000053,
      "d": 198.6755000000121,
      "v": 100
    },
    {
      "midi": 73,
      "hit": false,
      "t": 154146.10735000053,
      "d": 198.6755000000121,
      "v": 100
    },
    {
      "midi": 64,
      "hit": false,
      "t": 154146.10735000053,
      "d": 198.6755000000121,
      "v": 100
    },
    {
      "midi": 47,
      "hit": false,
      "t": 154146.10735000053,
      "d": 198.6755000000121,
      "v": 100
    },
    {
      "midi": 66,
      "hit": false,
      "t": 154146.10735000053,
      "d": 198.6755000000121,
      "v": 100
    },
    {
      "midi": 76,
      "hit": false,
      "t": 154146.10735000053,
      "d": 596.0265000000363,
      "v": 100
    },
    {
      "midi": 64,
      "hit": false,
      "t": 154344.78285000054,
      "d": 198.6755000000121,
      "v": 100
    },
    {
      "midi": 66,
      "hit": false,
      "t": 154344.78285000054,
      "d": 198.6755000000121,
      "v": 100
    },
    {
      "midi": 73,
      "hit": false,
      "t": 154344.78285000054,
      "d": 198.6755000000121,
      "v": 100
    },
    {
      "midi": 45,
      "hit": false,
      "t": 154344.78285000054,
      "d": 198.6755000000121,
      "v": 100
    },
    {
      "midi": 38,
      "hit": false,
      "t": 154344.78285000054,
      "d": 397.3510000000242,
      "v": 100
    },
    {
      "midi": 36,
      "hit": false,
      "t": 154543.45835000055,
      "d": 198.6755000000121,
      "v": 100
    },
    {
      "midi": 73,
      "hit": false,
      "t": 154543.45835000055,
      "d": 198.6755000000121,
      "v": 100
    },
    {
      "midi": 42,
      "hit": false,
      "t": 154543.45835000055,
      "d": 198.6755000000121,
      "v": 100
    },
    {
      "midi": 64,
      "hit": false,
      "t": 154543.45835000055,
      "d": 198.6755000000121,
      "v": 100
    },
    {
      "midi": 66,
      "hit": false,
      "t": 154543.45835000055,
      "d": 198.6755000000121,
      "v": 100
    },
    {
      "midi": 62,
      "hit": false,
      "t": 154742.13385000057,
      "d": 198.6755000000121,
      "v": 100
    },
    {
      "midi": 38,
      "hit": false,
      "t": 154742.13385000057,
      "d": 397.3510000000242,
      "v": 100
    },
    {
      "midi": 76,
      "hit": false,
      "t": 154742.13385000057,
      "d": 397.3510000000242,
      "v": 100
    },
    {
      "midi": 36,
      "hit": false,
      "t": 154742.13385000057,
      "d": 397.3510000000242,
      "v": 100
    },
    {
      "midi": 42,
      "hit": false,
      "t": 154742.13385000057,
      "d": 397.3510000000242,
      "v": 100
    },
    {
      "midi": 61,
      "hit": false,
      "t": 154742.13385000057,
      "d": 993.3775000000605,
      "v": 100
    },
    {
      "midi": 62,
      "hit": false,
      "t": 154940.80935000058,
      "d": 198.6755000000121,
      "v": 100
    },
    {
      "midi": 78,
      "hit": false,
      "t": 155139.4848500006,
      "d": 198.6755000000121,
      "v": 100
    },
    {
      "midi": 38,
      "hit": false,
      "t": 155139.4848500006,
      "d": 298.01325000001816,
      "v": 100
    },
    {
      "midi": 42,
      "hit": false,
      "t": 155139.4848500006,
      "d": 397.3510000000242,
      "v": 100
    },
    {
      "midi": 70,
      "hit": false,
      "t": 155139.4848500006,
      "d": 397.3510000000242,
      "v": 100
    },
    {
      "midi": 64,
      "hit": false,
      "t": 155139.4848500006,
      "d": 397.3510000000242,
      "v": 100
    },
    {
      "midi": 73,
      "hit": false,
      "t": 155139.4848500006,
      "d": 397.3510000000242,
      "v": 100
    },
    {
      "midi": 66,
      "hit": false,
      "t": 155139.4848500006,
      "d": 397.3510000000242,
      "v": 100
    },
    {
      "midi": 76,
      "hit": false,
      "t": 155338.1603500006,
      "d": 198.6755000000121,
      "v": 100
    },
    {
      "midi": 37,
      "hit": false,
      "t": 155437.4981000006,
      "d": 99.33775000000605,
      "v": 100
    },
    {
      "midi": 62,
      "hit": false,
      "t": 155536.8358500006,
      "d": 198.6755000000121,
      "v": 100
    },
    {
      "midi": 38,
      "hit": false,
      "t": 155536.8358500006,
      "d": 198.6755000000121,
      "v": 100
    },
    {
      "midi": 36,
      "hit": false,
      "t": 155735.51135000063,
      "d": 198.6755000000121,
      "v": 100
    },
    {
      "midi": 42,
      "hit": false,
      "t": 155735.51135000063,
      "d": 198.6755000000121,
      "v": 100
    },
    {
      "midi": 70,
      "hit": false,
      "t": 155735.51135000063,
      "d": 198.6755000000121,
      "v": 100
    },
    {
      "midi": 66,
      "hit": false,
      "t": 155735.51135000063,
      "d": 198.6755000000121,
      "v": 100
    },
    {
      "midi": 73,
      "hit": false,
      "t": 155735.51135000063,
      "d": 397.3510000000242,
      "v": 100
    },
    {
      "midi": 64,
      "hit": false,
      "t": 155735.51135000063,
      "d": 397.3510000000242,
      "v": 100
    },
    {
      "midi": 69,
      "hit": false,
      "t": 155735.51135000063,
      "d": 596.0265000000363,
      "v": 100
    },
    {
      "midi": 61,
      "hit": false,
      "t": 155735.51135000063,
      "d": 596.0265000000363,
      "v": 100
    },
    {
      "midi": 42,
      "hit": false,
      "t": 155934.18685000064,
      "d": 198.6755000000121,
      "v": 100
    },
    {
      "midi": 38,
      "hit": false,
      "t": 155934.18685000064,
      "d": 397.3510000000242,
      "v": 100
    },
    {
      "midi": 62,
      "hit": false,
      "t": 156132.86235000065,
      "d": 198.6755000000121,
      "v": 100
    },
    {
      "midi": 45,
      "hit": false,
      "t": 156132.86235000065,
      "d": 198.6755000000121,
      "v": 100
    },
    {
      "midi": 66,
      "hit": false,
      "t": 156132.86235000065,
      "d": 198.6755000000121,
      "v": 100
    },
    {
      "midi": 70,
      "hit": false,
      "t": 156132.86235000065,
      "d": 397.3510000000242,
      "v": 100
    },
    {
      "midi": 76,
      "hit": false,
      "t": 156132.86235000065,
      "d": 596.0265000000363,
      "v": 100
    },
    {
      "midi": 36,
      "hit": false,
      "t": 156232.20010000066,
      "d": 99.33775000000605,
      "v": 100
    },
    {
      "midi": 62,
      "hit": false,
      "t": 156331.53785000066,
      "d": 198.6755000000121,
      "v": 100
    },
    {
      "midi": 69,
      "hit": false,
      "t": 156331.53785000066,
      "d": 198.6755000000121,
      "v": 100
    },
    {
      "midi": 43,
      "hit": false,
      "t": 156331.53785000066,
      "d": 198.6755000000121,
      "v": 100
    },
    {
      "midi": 61,
      "hit": false,
      "t": 156331.53785000066,
      "d": 198.6755000000121,
      "v": 100
    },
    {
      "midi": 66,
      "hit": false,
      "t": 156331.53785000066,
      "d": 198.6755000000121,
      "v": 100
    },
    {
      "midi": 38,
      "hit": false,
      "t": 156331.53785000066,
      "d": 397.3510000000242,
      "v": 100
    },
    {
      "midi": 42,
      "hit": false,
      "t": 156331.53785000066,
      "d": 397.3510000000242,
      "v": 100
    },
    {
      "midi": 36,
      "hit": false,
      "t": 156530.21335000067,
      "d": 198.6755000000121,
      "v": 100
    },
    {
      "midi": 66,
      "hit": false,
      "t": 156530.21335000067,
      "d": 198.6755000000121,
      "v": 100
    },
    {
      "midi": 71,
      "hit": false,
      "t": 156530.21335000067,
      "d": 198.6755000000121,
      "v": 100
    },
    {
      "midi": 43,
      "hit": false,
      "t": 156530.21335000067,
      "d": 198.6755000000121,
      "v": 100
    },
    {
      "midi": 74,
      "hit": false,
      "t": 156530.21335000067,
      "d": 198.6755000000121,
      "v": 100
    },
    {
      "midi": 59,
      "hit": false,
      "t": 156530.21335000067,
      "d": 198.6755000000121,
      "v": 100
    },
    {
      "midi": 64,
      "hit": false,
      "t": 156530.21335000067,
      "d": 198.6755000000121,
      "v": 100
    },
    {
      "midi": 62,
      "hit": false,
      "t": 156728.8888500007,
      "d": 198.6755000000121,
      "v": 100
    },
    {
      "midi": 43,
      "hit": false,
      "t": 156728.8888500007,
      "d": 198.6755000000121,
      "v": 100
    },
    {
      "midi": 78,
      "hit": false,
      "t": 156728.8888500007,
      "d": 198.6755000000121,
      "v": 100
    },
    {
      "midi": 66,
      "hit": false,
      "t": 156728.8888500007,
      "d": 198.6755000000121,
      "v": 100
    },
    {
      "midi": 70,
      "hit": false,
      "t": 156728.8888500007,
      "d": 397.3510000000242,
      "v": 100
    },
    {
      "midi": 38,
      "hit": false,
      "t": 156728.8888500007,
      "d": 397.3510000000242,
      "v": 100
    },
    {
      "midi": 42,
      "hit": false,
      "t": 156728.8888500007,
      "d": 397.3510000000242,
      "v": 100
    },
    {
      "midi": 66,
      "hit": false,
      "t": 156927.5643500007,
      "d": 198.6755000000121,
      "v": 100
    },
    {
      "midi": 43,
      "hit": false,
      "t": 156927.5643500007,
      "d": 198.6755000000121,
      "v": 100
    },
    {
      "midi": 59,
      "hit": false,
      "t": 156927.5643500007,
      "d": 397.3510000000242,
      "v": 100
    },
    {
      "midi": 62,
      "hit": false,
      "t": 156927.5643500007,
      "d": 397.3510000000242,
      "v": 100
    },
    {
      "midi": 74,
      "hit": false,
      "t": 156927.5643500007,
      "d": 397.3510000000242,
      "v": 100
    },
    {
      "midi": 36,
      "hit": false,
      "t": 157026.9021000007,
      "d": 99.33775000000605,
      "v": 100
    },
    {
      "midi": 43,
      "hit": false,
      "t": 157126.2398500007,
      "d": 198.6755000000121,
      "v": 100
    },
    {
      "midi": 38,
      "hit": false,
      "t": 157126.2398500007,
      "d": 397.3510000000242,
      "v": 100
    },
    {
      "midi": 42,
      "hit": false,
      "t": 157126.2398500007,
      "d": 397.3510000000242,
      "v": 100
    },
    {
      "midi": 36,
      "hit": false,
      "t": 157324.91535000072,
      "d": 198.6755000000121,
      "v": 100
    },
    {
      "midi": 62,
      "hit": false,
      "t": 157324.91535000072,
      "d": 198.6755000000121,
      "v": 100
    },
    {
      "midi": 45,
      "hit": false,
      "t": 157324.91535000072,
      "d": 198.6755000000121,
      "v": 100
    },
    {
      "midi": 59,
      "hit": false,
      "t": 157324.91535000072,
      "d": 198.6755000000121,
      "v": 100
    },
    {
      "midi": 78,
      "hit": false,
      "t": 157324.91535000072,
      "d": 198.6755000000121,
      "v": 100
    },
    {
      "midi": 62,
      "hit": false,
      "t": 157523.59085000074,
      "d": 198.6755000000121,
      "v": 100
    },
    {
      "midi": 59,
      "hit": false,
      "t": 157523.59085000074,
      "d": 198.6755000000121,
      "v": 100
    },
    {
      "midi": 78,
      "hit": false,
      "t": 157523.59085000074,
      "d": 198.6755000000121,
      "v": 100
    },
    {
      "midi": 42,
      "hit": false,
      "t": 157523.59085000074,
      "d": 397.3510000000242,
      "v": 100
    },
    {
      "midi": 38,
      "hit": false,
      "t": 157523.59085000074,
      "d": 397.3510000000242,
      "v": 100
    },
    {
      "midi": 47,
      "hit": false,
      "t": 157523.59085000074,
      "d": 397.3510000000242,
      "v": 100
    },
    {
      "midi": 36,
      "hit": false,
      "t": 157722.26635000075,
      "d": 198.6755000000121,
      "v": 100
    },
    {
      "midi": 62,
      "hit": false,
      "t": 157722.26635000075,
      "d": 198.6755000000121,
      "v": 100
    },
    {
      "midi": 59,
      "hit": false,
      "t": 157722.26635000075,
      "d": 198.6755000000121,
      "v": 100
    },
    {
      "midi": 78,
      "hit": false,
      "t": 157722.26635000075,
      "d": 198.6755000000121,
      "v": 100
    },
    {
      "midi": 62,
      "hit": false,
      "t": 157920.94185000076,
      "d": 198.6755000000121,
      "v": 100
    },
    {
      "midi": 78,
      "hit": false,
      "t": 157920.94185000076,
      "d": 198.6755000000121,
      "v": 100
    },
    {
      "midi": 38,
      "hit": false,
      "t": 157920.94185000076,
      "d": 397.3510000000242,
      "v": 100
    },
    {
      "midi": 40,
      "hit": false,
      "t": 157920.94185000076,
      "d": 397.3510000000242,
      "v": 100
    },
    {
      "midi": 57,
      "hit": false,
      "t": 157920.94185000076,
      "d": 397.3510000000242,
      "v": 100
    },
    {
      "midi": 36,
      "hit": false,
      "t": 157920.94185000076,
      "d": 397.3510000000242,
      "v": 100
    },
    {
      "midi": 66,
      "hit": false,
      "t": 157920.94185000076,
      "d": 1589.4040000000969,
      "v": 100
    },
    {
      "midi": 62,
      "hit": false,
      "t": 158119.61735000077,
      "d": 198.6755000000121,
      "v": 100
    },
    {
      "midi": 76,
      "hit": false,
      "t": 158119.61735000077,
      "d": 397.3510000000242,
      "v": 100
    },
    {
      "midi": 62,
      "hit": false,
      "t": 158318.29285000078,
      "d": 198.6755000000121,
      "v": 100
    },
    {
      "midi": 59,
      "hit": false,
      "t": 158318.29285000078,
      "d": 198.6755000000121,
      "v": 100
    },
    {
      "midi": 55,
      "hit": false,
      "t": 158318.29285000078,
      "d": 198.6755000000121,
      "v": 100
    },
    {
      "midi": 40,
      "hit": false,
      "t": 158318.29285000078,
      "d": 298.01325000001816,
      "v": 100
    },
    {
      "midi": 67,
      "hit": false,
      "t": 158318.29285000078,
      "d": 397.3510000000242,
      "v": 100
    },
    {
      "midi": 78,
      "hit": false,
      "t": 158318.29285000078,
      "d": 397.3510000000242,
      "v": 100
    },
    {
      "midi": 74,
      "hit": false,
      "t": 158318.29285000078,
      "d": 397.3510000000242,
      "v": 100
    },
    {
      "midi": 42,
      "hit": false,
      "t": 158318.29285000078,
      "d": 397.3510000000242,
      "v": 100
    },
    {
      "midi": 71,
      "hit": false,
      "t": 158516.9683500008,
      "d": 198.6755000000121,
      "v": 100
    },
    {
      "midi": 62,
      "hit": false,
      "t": 158516.9683500008,
      "d": 198.6755000000121,
      "v": 100
    },
    {
      "midi": 38,
      "hit": false,
      "t": 158616.3061000008,
      "d": 99.33775000000605,
      "v": 100
    },
    {
      "midi": 62,
      "hit": false,
      "t": 158715.6438500008,
      "d": 198.6755000000121,
      "v": 100
    },
    {
      "midi": 40,
      "hit": false,
      "t": 158715.6438500008,
      "d": 198.6755000000121,
      "v": 100
    },
    {
      "midi": 42,
      "hit": false,
      "t": 158715.6438500008,
      "d": 397.3510000000242,
      "v": 100
    },
    {
      "midi": 38,
      "hit": false,
      "t": 158715.6438500008,
      "d": 397.3510000000242,
      "v": 100
    },
    {
      "midi": 36,
      "hit": false,
      "t": 158914.31935000082,
      "d": 198.6755000000121,
      "v": 100
    },
    {
      "midi": 55,
      "hit": false,
      "t": 158914.31935000082,
      "d": 397.3510000000242,
      "v": 100
    },
    {
      "midi": 43,
      "hit": false,
      "t": 158914.31935000082,
      "d": 397.3510000000242,
      "v": 100
    },
    {
      "midi": 62,
      "hit": false,
      "t": 158914.31935000082,
      "d": 397.3510000000242,
      "v": 100
    },
    {
      "midi": 59,
      "hit": false,
      "t": 158914.31935000082,
      "d": 397.3510000000242,
      "v": 100
    },
    {
      "midi": 38,
      "hit": false,
      "t": 159112.99485000083,
      "d": 397.3510000000242,
      "v": 100
    },
    {
      "midi": 42,
      "hit": false,
      "t": 159112.99485000083,
      "d": 397.3510000000242,
      "v": 100
    },
    {
      "midi": 36,
      "hit": false,
      "t": 159311.67035000084,
      "d": 198.6755000000121,
      "v": 100
    },
    {
      "midi": 40,
      "hit": false,
      "t": 159311.67035000084,
      "d": 198.6755000000121,
      "v": 100
    },
    {
      "midi": 62,
      "hit": false,
      "t": 159311.67035000084,
      "d": 198.6755000000121,
      "v": 100
    },
    {
      "midi": 78,
      "hit": false,
      "t": 159311.67035000084,
      "d": 397.3510000000242,
      "v": 100
    },
    {
      "midi": 74,
      "hit": false,
      "t": 159311.67035000084,
      "d": 397.3510000000242,
      "v": 100
    },
    {
      "midi": 64,
      "hit": false,
      "t": 159510.34585000086,
      "d": 198.6755000000121,
      "v": 100
    },
    {
      "midi": 61,
      "hit": false,
      "t": 159510.34585000086,
      "d": 198.6755000000121,
      "v": 100
    },
    {
      "midi": 71,
      "hit": false,
      "t": 159510.34585000086,
      "d": 198.6755000000121,
      "v": 100
    },
    {
      "midi": 42,
      "hit": false,
      "t": 159510.34585000086,
      "d": 198.6755000000121,
      "v": 100
    },
    {
      "midi": 59,
      "hit": false,
      "t": 159510.34585000086,
      "d": 198.6755000000121,
      "v": 100
    },
    {
      "midi": 57,
      "hit": false,
      "t": 159510.34585000086,
      "d": 198.6755000000121,
      "v": 100
    },
    {
      "midi": 66,
      "hit": false,
      "t": 159510.34585000086,
      "d": 198.6755000000121,
      "v": 100
    },
    {
      "midi": 67,
      "hit": false,
      "t": 159510.34585000086,
      "d": 198.6755000000121,
      "v": 100
    },
    {
      "midi": 38,
      "hit": false,
      "t": 159510.34585000086,
      "d": 397.3510000000242,
      "v": 100
    },
    {
      "midi": 36,
      "hit": false,
      "t": 159510.34585000086,
      "d": 397.3510000000242,
      "v": 100
    },
    {
      "midi": 57,
      "hit": false,
      "t": 159709.02135000087,
      "d": 198.6755000000121,
      "v": 100
    },
    {
      "midi": 73,
      "hit": false,
      "t": 159709.02135000087,
      "d": 198.6755000000121,
      "v": 100
    },
    {
      "midi": 76,
      "hit": false,
      "t": 159709.02135000087,
      "d": 198.6755000000121,
      "v": 100
    },
    {
      "midi": 61,
      "hit": false,
      "t": 159709.02135000087,
      "d": 198.6755000000121,
      "v": 100
    },
    {
      "midi": 69,
      "hit": false,
      "t": 159709.02135000087,
      "d": 198.6755000000121,
      "v": 100
    },
    {
      "midi": 64,
      "hit": false,
      "t": 159709.02135000087,
      "d": 198.6755000000121,
      "v": 100
    },
    {
      "midi": 49,
      "hit": false,
      "t": 159709.02135000087,
      "d": 397.3510000000242,
      "v": 100
    },
    {
      "midi": 62,
      "hit": false,
      "t": 159907.69685000088,
      "d": 99.33775000000605,
      "v": 100
    },
    {
      "midi": 38,
      "hit": false,
      "t": 159907.69685000088,
      "d": 397.3510000000242,
      "v": 100
    },
    {
      "midi": 42,
      "hit": false,
      "t": 159907.69685000088,
      "d": 397.3510000000242,
      "v": 100
    },
    {
      "midi": 81,
      "hit": false,
      "t": 159907.69685000088,
      "d": 397.3510000000242,
      "v": 100
    },
    {
      "midi": 62,
      "hit": false,
      "t": 160007.0346000009,
      "d": 99.33775000000605,
      "v": 100
    },
    {
      "midi": 61,
      "hit": false,
      "t": 160106.3723500009,
      "d": 397.3510000000242,
      "v": 100
    },
    {
      "midi": 47,
      "hit": false,
      "t": 160106.3723500009,
      "d": 397.3510000000242,
      "v": 100
    },
    {
      "midi": 64,
      "hit": false,
      "t": 160106.3723500009,
      "d": 397.3510000000242,
      "v": 100
    },
    {
      "midi": 57,
      "hit": false,
      "t": 160106.3723500009,
      "d": 397.3510000000242,
      "v": 100
    },
    {
      "midi": 69,
      "hit": false,
      "t": 160106.3723500009,
      "d": 993.3775000000605,
      "v": 100
    },
    {
      "midi": 79,
      "hit": false,
      "t": 160305.0478500009,
      "d": 298.01325000001816,
      "v": 100
    },
    {
      "midi": 38,
      "hit": false,
      "t": 160305.0478500009,
      "d": 397.3510000000242,
      "v": 100
    },
    {
      "midi": 42,
      "hit": false,
      "t": 160305.0478500009,
      "d": 397.3510000000242,
      "v": 100
    },
    {
      "midi": 61,
      "hit": false,
      "t": 160503.72335000092,
      "d": 198.6755000000121,
      "v": 100
    },
    {
      "midi": 36,
      "hit": false,
      "t": 160503.72335000092,
      "d": 198.6755000000121,
      "v": 100
    },
    {
      "midi": 57,
      "hit": false,
      "t": 160503.72335000092,
      "d": 198.6755000000121,
      "v": 100
    },
    {
      "midi": 64,
      "hit": false,
      "t": 160503.72335000092,
      "d": 198.6755000000121,
      "v": 100
    },
    {
      "midi": 45,
      "hit": false,
      "t": 160503.72335000092,
      "d": 397.3510000000242,
      "v": 100
    },
    {
      "midi": 78,
      "hit": false,
      "t": 160603.06110000092,
      "d": 298.01325000001816,
      "v": 100
    },
    {
      "midi": 64,
      "hit": false,
      "t": 160702.39885000093,
      "d": 397.3510000000242,
      "v": 100
    },
    {
      "midi": 42,
      "hit": false,
      "t": 160702.39885000093,
      "d": 397.3510000000242,
      "v": 100
    },
    {
      "midi": 61,
      "hit": false,
      "t": 160702.39885000093,
      "d": 397.3510000000242,
      "v": 100
    },
    {
      "midi": 57,
      "hit": false,
      "t": 160702.39885000093,
      "d": 397.3510000000242,
      "v": 100
    },
    {
      "midi": 38,
      "hit": false,
      "t": 160702.39885000093,
      "d": 397.3510000000242,
      "v": 100
    },
    {
      "midi": 36,
      "hit": false,
      "t": 160901.07435000094,
      "d": 198.6755000000121,
      "v": 100
    },
    {
      "midi": 74,
      "hit": false,
      "t": 160901.07435000094,
      "d": 198.6755000000121,
      "v": 100
    },
    {
      "midi": 45,
      "hit": false,
      "t": 160901.07435000094,
      "d": 198.6755000000121,
      "v": 100
    },
    {
      "midi": 36,
      "hit": false,
      "t": 161099.74985000095,
      "d": 397.3509999999951,
      "v": 100
    },
    {
      "midi": 64,
      "hit": false,
      "t": 161099.74985000095,
      "d": 397.3509999999951,
      "v": 100
    },
    {
      "midi": 61,
      "hit": false,
      "t": 161099.74985000095,
      "d": 397.3509999999951,
      "v": 100
    },
    {
      "midi": 47,
      "hit": false,
      "t": 161099.74985000095,
      "d": 397.3509999999951,
      "v": 100
    },
    {
      "midi": 38,
      "hit": false,
      "t": 161099.74985000095,
      "d": 397.3509999999951,
      "v": 100
    },
    {
      "midi": 42,
      "hit": false,
      "t": 161099.74985000095,
      "d": 397.3509999999951,
      "v": 100
    },
    {
      "midi": 76,
      "hit": false,
      "t": 161099.74985000095,
      "d": 596.0265000000072,
      "v": 100
    },
    {
      "midi": 69,
      "hit": false,
      "t": 161099.74985000095,
      "d": 596.0265000000072,
      "v": 100
    },
    {
      "midi": 73,
      "hit": false,
      "t": 161099.74985000095,
      "d": 596.0265000000072,
      "v": 100
    },
    {
      "midi": 62,
      "hit": false,
      "t": 161497.10085000095,
      "d": 198.6755000000121,
      "v": 100
    },
    {
      "midi": 45,
      "hit": false,
      "t": 161497.10085000095,
      "d": 198.6755000000121,
      "v": 100
    },
    {
      "midi": 42,
      "hit": false,
      "t": 161497.10085000095,
      "d": 397.3510000000242,
      "v": 100
    },
    {
      "midi": 38,
      "hit": false,
      "t": 161497.10085000095,
      "d": 397.3510000000242,
      "v": 100
    },
    {
      "midi": 47,
      "hit": false,
      "t": 161695.77635000096,
      "d": 397.3510000000242,
      "v": 100
    },
    {
      "midi": 78,
      "hit": false,
      "t": 161695.77635000096,
      "d": 397.3510000000242,
      "v": 100
    },
    {
      "midi": 64,
      "hit": false,
      "t": 161695.77635000096,
      "d": 596.0265000000363,
      "v": 100
    },
    {
      "midi": 69,
      "hit": false,
      "t": 161695.77635000096,
      "d": 596.0265000000363,
      "v": 100
    },
    {
      "midi": 66,
      "hit": false,
      "t": 161695.77635000096,
      "d": 596.0265000000363,
      "v": 100
    },
    {
      "midi": 74,
      "hit": false,
      "t": 161695.77635000096,
      "d": 596.0265000000363,
      "v": 100
    },
    {
      "midi": 61,
      "hit": false,
      "t": 161695.77635000096,
      "d": 596.0265000000363,
      "v": 100
    },
    {
      "midi": 62,
      "hit": false,
      "t": 161695.77635000096,
      "d": 596.0265000000363,
      "v": 100
    },
    {
      "midi": 38,
      "hit": false,
      "t": 161894.45185000097,
      "d": 397.3510000000242,
      "v": 100
    },
    {
      "midi": 42,
      "hit": false,
      "t": 161894.45185000097,
      "d": 397.3510000000242,
      "v": 100
    },
    {
      "midi": 36,
      "hit": false,
      "t": 162093.12735000098,
      "d": 198.6755000000121,
      "v": 100
    },
    {
      "midi": 45,
      "hit": false,
      "t": 162093.12735000098,
      "d": 198.6755000000121,
      "v": 100
    },
    {
      "midi": 79,
      "hit": false,
      "t": 162093.12735000098,
      "d": 397.3510000000242,
      "v": 100
    },
    {
      "midi": 64,
      "hit": false,
      "t": 162291.802850001,
      "d": 198.6755000000121,
      "v": 100
    },
    {
      "midi": 61,
      "hit": false,
      "t": 162291.802850001,
      "d": 198.6755000000121,
      "v": 100
    },
    {
      "midi": 47,
      "hit": false,
      "t": 162291.802850001,
      "d": 198.6755000000121,
      "v": 100
    },
    {
      "midi": 38,
      "hit": false,
      "t": 162291.802850001,
      "d": 397.3510000000242,
      "v": 100
    },
    {
      "midi": 42,
      "hit": false,
      "t": 162291.802850001,
      "d": 397.3510000000242,
      "v": 100
    },
    {
      "midi": 62,
      "hit": false,
      "t": 162490.478350001,
      "d": 99.33775000000605,
      "v": 100
    },
    {
      "midi": 45,
      "hit": false,
      "t": 162490.478350001,
      "d": 198.6755000000121,
      "v": 100
    },
    {
      "midi": 36,
      "hit": false,
      "t": 162589.81610000102,
      "d": 99.33775000000605,
      "v": 100
    },
    {
      "midi": 62,
      "hit": false,
      "t": 162589.81610000102,
      "d": 99.33775000000605,
      "v": 100
    },
    {
      "midi": 67,
      "hit": false,
      "t": 162689.15385000102,
      "d": 198.6755000000121,
      "v": 100
    },
    {
      "midi": 62,
      "hit": false,
      "t": 162689.15385000102,
      "d": 198.6755000000121,
      "v": 100
    },
    {
      "midi": 71,
      "hit": false,
      "t": 162689.15385000102,
      "d": 198.6755000000121,
      "v": 100
    },
    {
      "midi": 75,
      "hit": false,
      "t": 162689.15385000102,
      "d": 198.6755000000121,
      "v": 100
    },
    {
      "midi": 79,
      "hit": false,
      "t": 162689.15385000102,
      "d": 198.6755000000121,
      "v": 100
    },
    {
      "midi": 43,
      "hit": false,
      "t": 162689.15385000102,
      "d": 198.6755000000121,
      "v": 100
    },
    {
      "midi": 63,
      "hit": false,
      "t": 162689.15385000102,
      "d": 198.6755000000121,
      "v": 100
    },
    {
      "midi": 38,
      "hit": false,
      "t": 162689.15385000102,
      "d": 397.3510000000242,
      "v": 100
    },
    {
      "midi": 42,
      "hit": false,
      "t": 162689.15385000102,
      "d": 397.3510000000242,
      "v": 100
    },
    {
      "midi": 36,
      "hit": false,
      "t": 162887.82935000103,
      "d": 198.6755000000121,
      "v": 100
    },
    {
      "midi": 75,
      "hit": false,
      "t": 162887.82935000103,
      "d": 198.6755000000121,
      "v": 100
    },
    {
      "midi": 63,
      "hit": false,
      "t": 162887.82935000103,
      "d": 198.6755000000121,
      "v": 100
    },
    {
      "midi": 43,
      "hit": false,
      "t": 162887.82935000103,
      "d": 198.6755000000121,
      "v": 100
    },
    {
      "midi": 71,
      "hit": false,
      "t": 162887.82935000103,
      "d": 198.6755000000121,
      "v": 100
    },
    {
      "midi": 62,
      "hit": false,
      "t": 162887.82935000103,
      "d": 198.6755000000121,
      "v": 100
    },
    {
      "midi": 67,
      "hit": false,
      "t": 162887.82935000103,
      "d": 198.6755000000121,
      "v": 100
    },
    {
      "midi": 79,
      "hit": false,
      "t": 162887.82935000103,
      "d": 198.6755000000121,
      "v": 100
    },
    {
      "midi": 67,
      "hit": false,
      "t": 163086.50485000105,
      "d": 198.6755000000121,
      "v": 100
    },
    {
      "midi": 62,
      "hit": false,
      "t": 163086.50485000105,
      "d": 198.6755000000121,
      "v": 100
    },
    {
      "midi": 71,
      "hit": false,
      "t": 163086.50485000105,
      "d": 198.6755000000121,
      "v": 100
    },
    {
      "midi": 75,
      "hit": false,
      "t": 163086.50485000105,
      "d": 198.6755000000121,
      "v": 100
    },
    {
      "midi": 79,
      "hit": false,
      "t": 163086.50485000105,
      "d": 198.6755000000121,
      "v": 100
    },
    {
      "midi": 43,
      "hit": false,
      "t": 163086.50485000105,
      "d": 198.6755000000121,
      "v": 100
    },
    {
      "midi": 63,
      "hit": false,
      "t": 163086.50485000105,
      "d": 198.6755000000121,
      "v": 100
    },
    {
      "midi": 38,
      "hit": false,
      "t": 163086.50485000105,
      "d": 397.3510000000242,
      "v": 100
    },
    {
      "midi": 42,
      "hit": false,
      "t": 163086.50485000105,
      "d": 397.3510000000242,
      "v": 100
    },
    {
      "midi": 66,
      "hit": false,
      "t": 163285.18035000106,
      "d": 198.6755000000121,
      "v": 100
    },
    {
      "midi": 62,
      "hit": false,
      "t": 163285.18035000106,
      "d": 198.6755000000121,
      "v": 100
    },
    {
      "midi": 43,
      "hit": false,
      "t": 163285.18035000106,
      "d": 198.6755000000121,
      "v": 100
    },
    {
      "midi": 78,
      "hit": false,
      "t": 163285.18035000106,
      "d": 198.6755000000121,
      "v": 100
    },
    {
      "midi": 71,
      "hit": false,
      "t": 163285.18035000106,
      "d": 198.6755000000121,
      "v": 100
    },
    {
      "midi": 74,
      "hit": false,
      "t": 163285.18035000106,
      "d": 198.6755000000121,
      "v": 100
    },
    {
      "midi": 38,
      "hit": false,
      "t": 163483.85585000107,
      "d": 198.6755000000121,
      "v": 100
    },
    {
      "midi": 42,
      "hit": false,
      "t": 163483.85585000107,
      "d": 198.6755000000121,
      "v": 100
    },
    {
      "midi": 47,
      "hit": false,
      "t": 163682.53135000108,
      "d": 198.6755000000121,
      "v": 100
    },
    {
      "midi": 78,
      "hit": false,
      "t": 163682.53135000108,
      "d": 198.6755000000121,
      "v": 100
    },
    {
      "midi": 69,
      "hit": false,
      "t": 163682.53135000108,
      "d": 397.3510000000242,
      "v": 100
    },
    {
      "midi": 62,
      "hit": false,
      "t": 163682.53135000108,
      "d": 397.3510000000242,
      "v": 100
    },
    {
      "midi": 71,
      "hit": false,
      "t": 163682.53135000108,
      "d": 596.0265000000363,
      "v": 100
    },
    {
      "midi": 66,
      "hit": false,
      "t": 163682.53135000108,
      "d": 596.0265000000363,
      "v": 100
    },
    {
      "midi": 74,
      "hit": false,
      "t": 163682.53135000108,
      "d": 596.0265000000363,
      "v": 100
    },
    {
      "midi": 81,
      "hit": false,
      "t": 163682.53135000108,
      "d": 596.0265000000363,
      "v": 100
    },
    {
      "midi": 47,
      "hit": false,
      "t": 163881.2068500011,
      "d": 198.6755000000121,
      "v": 100
    },
    {
      "midi": 78,
      "hit": false,
      "t": 163881.2068500011,
      "d": 198.6755000000121,
      "v": 100
    },
    {
      "midi": 47,
      "hit": false,
      "t": 164079.8823500011,
      "d": 198.6755000000121,
      "v": 100
    },
    {
      "midi": 62,
      "hit": false,
      "t": 164079.8823500011,
      "d": 198.6755000000121,
      "v": 100
    },
    {
      "midi": 78,
      "hit": false,
      "t": 164079.8823500011,
      "d": 198.6755000000121,
      "v": 100
    },
    {
      "midi": 69,
      "hit": false,
      "t": 164079.8823500011,
      "d": 198.6755000000121,
      "v": 100
    },
    {
      "midi": 62,
      "hit": false,
      "t": 164278.55785000112,
      "d": 198.6755000000121,
      "v": 100
    },
    {
      "midi": 78,
      "hit": false,
      "t": 164278.55785000112,
      "d": 298.01325000001816,
      "v": 100
    },
    {
      "midi": 71,
      "hit": false,
      "t": 164278.55785000112,
      "d": 298.01325000001816,
      "v": 100
    },
    {
      "midi": 67,
      "hit": false,
      "t": 164278.55785000112,
      "d": 298.01325000001816,
      "v": 100
    },
    {
      "midi": 74,
      "hit": false,
      "t": 164278.55785000112,
      "d": 298.01325000001816,
      "v": 100
    },
    {
      "midi": 40,
      "hit": false,
      "t": 164278.55785000112,
      "d": 397.3510000000242,
      "v": 100
    },
    {
      "midi": 57,
      "hit": false,
      "t": 164278.55785000112,
      "d": 397.3510000000242,
      "v": 100
    },
    {
      "midi": 36,
      "hit": false,
      "t": 164278.55785000112,
      "d": 397.3510000000242,
      "v": 100
    },
    {
      "midi": 38,
      "hit": false,
      "t": 164278.55785000112,
      "d": 397.3510000000242,
      "v": 100
    },
    {
      "midi": 62,
      "hit": false,
      "t": 164477.23335000113,
      "d": 198.6755000000121,
      "v": 100
    },
    {
      "midi": 78,
      "hit": false,
      "t": 164576.57110000114,
      "d": 99.33775000000605,
      "v": 100
    },
    {
      "midi": 74,
      "hit": false,
      "t": 164576.57110000114,
      "d": 99.33775000000605,
      "v": 100
    },
    {
      "midi": 71,
      "hit": false,
      "t": 164576.57110000114,
      "d": 99.33775000000605,
      "v": 100
    },
    {
      "midi": 67,
      "hit": false,
      "t": 164576.57110000114,
      "d": 99.33775000000605,
      "v": 100
    },
    {
      "midi": 71,
      "hit": false,
      "t": 164675.90885000114,
      "d": 198.6755000000121,
      "v": 100
    },
    {
      "midi": 66,
      "hit": false,
      "t": 164675.90885000114,
      "d": 198.6755000000121,
      "v": 100
    },
    {
      "midi": 62,
      "hit": false,
      "t": 164675.90885000114,
      "d": 198.6755000000121,
      "v": 100
    },
    {
      "midi": 40,
      "hit": false,
      "t": 164675.90885000114,
      "d": 298.01325000001816,
      "v": 100
    },
    {
      "midi": 42,
      "hit": false,
      "t": 164675.90885000114,
      "d": 397.3510000000242,
      "v": 100
    },
    {
      "midi": 78,
      "hit": false,
      "t": 164675.90885000114,
      "d": 397.3510000000242,
      "v": 100
    },
    {
      "midi": 74,
      "hit": false,
      "t": 164675.90885000114,
      "d": 397.3510000000242,
      "v": 100
    },
    {
      "midi": 67,
      "hit": false,
      "t": 164675.90885000114,
      "d": 397.3510000000242,
      "v": 100
    },
    {
      "midi": 62,
      "hit": false,
      "t": 164874.58435000115,
      "d": 99.33775000000605,
      "v": 100
    },
    {
      "midi": 62,
      "hit": false,
      "t": 164973.92210000116,
      "d": 99.33775000000605,
      "v": 100
    },
    {
      "midi": 38,
      "hit": false,
      "t": 164973.92210000116,
      "d": 99.33775000000605,
      "v": 100
    },
    {
      "midi": 62,
      "hit": false,
      "t": 165073.25985000117,
      "d": 198.6755000000121,
      "v": 100
    },
    {
      "midi": 40,
      "hit": false,
      "t": 165073.25985000117,
      "d": 198.6755000000121,
      "v": 100
    },
    {
      "midi": 78,
      "hit": false,
      "t": 165073.25985000117,
      "d": 198.6755000000121,
      "v": 100
    },
    {
      "midi": 42,
      "hit": false,
      "t": 165073.25985000117,
      "d": 397.3510000000242,
      "v": 100
    },
    {
      "midi": 38,
      "hit": false,
      "t": 165073.25985000117,
      "d": 397.3510000000242,
      "v": 100
    },
    {
      "midi": 36,
      "hit": false,
      "t": 165271.93535000118,
      "d": 198.6755000000121,
      "v": 100
    },
    {
      "midi": 71,
      "hit": false,
      "t": 165271.93535000118,
      "d": 397.3510000000242,
      "v": 100
    },
    {
      "midi": 43,
      "hit": false,
      "t": 165271.93535000118,
      "d": 397.3510000000242,
      "v": 100
    },
    {
      "midi": 62,
      "hit": false,
      "t": 165271.93535000118,
      "d": 397.3510000000242,
      "v": 100
    },
    {
      "midi": 66,
      "hit": false,
      "t": 165271.93535000118,
      "d": 397.3510000000242,
      "v": 100
    },
    {
      "midi": 76,
      "hit": false,
      "t": 165271.93535000118,
      "d": 397.3510000000242,
      "v": 100
    },
    {
      "midi": 42,
      "hit": false,
      "t": 165470.6108500012,
      "d": 397.3510000000242,
      "v": 100
    },
    {
      "midi": 38,
      "hit": false,
      "t": 165470.6108500012,
      "d": 397.3510000000242,
      "v": 100
    },
    {
      "midi": 36,
      "hit": false,
      "t": 165669.2863500012,
      "d": 198.6755000000121,
      "v": 100
    },
    {
      "midi": 71,
      "hit": false,
      "t": 165669.2863500012,
      "d": 198.6755000000121,
      "v": 100
    },
    {
      "midi": 78,
      "hit": false,
      "t": 165669.2863500012,
      "d": 198.6755000000121,
      "v": 100
    },
    {
      "midi": 74,
      "hit": false,
      "t": 165669.2863500012,
      "d": 198.6755000000121,
      "v": 100
    },
    {
      "midi": 62,
      "hit": false,
      "t": 165669.2863500012,
      "d": 198.6755000000121,
      "v": 100
    },
    {
      "midi": 67,
      "hit": false,
      "t": 165669.2863500012,
      "d": 198.6755000000121,
      "v": 100
    },
    {
      "midi": 40,
      "hit": false,
      "t": 165669.2863500012,
      "d": 198.6755000000121,
      "v": 100
    },
    {
      "midi": 81,
      "hit": false,
      "t": 165669.2863500012,
      "d": 397.3510000000242,
      "v": 100
    },
    {
      "midi": 62,
      "hit": false,
      "t": 165867.96185000121,
      "d": 198.6755000000121,
      "v": 100
    },
    {
      "midi": 42,
      "hit": false,
      "t": 165867.96185000121,
      "d": 198.6755000000121,
      "v": 100
    },
    {
      "midi": 78,
      "hit": false,
      "t": 165867.96185000121,
      "d": 198.6755000000121,
      "v": 100
    },
    {
      "midi": 71,
      "hit": false,
      "t": 165867.96185000121,
      "d": 198.6755000000121,
      "v": 100
    },
    {
      "midi": 74,
      "hit": false,
      "t": 165867.96185000121,
      "d": 198.6755000000121,
      "v": 100
    },
    {
      "midi": 67,
      "hit": false,
      "t": 165867.96185000121,
      "d": 198.6755000000121,
      "v": 100
    },
    {
      "midi": 38,
      "hit": false,
      "t": 165867.96185000121,
      "d": 397.3510000000242,
      "v": 100
    },
    {
      "midi": 36,
      "hit": false,
      "t": 165867.96185000121,
      "d": 397.3510000000242,
      "v": 100
    },
    {
      "midi": 73,
      "hit": false,
      "t": 166066.63735000123,
      "d": 198.6755000000121,
      "v": 100
    },
    {
      "midi": 76,
      "hit": false,
      "t": 166066.63735000123,
      "d": 198.6755000000121,
      "v": 100
    },
    {
      "midi": 69,
      "hit": false,
      "t": 166066.63735000123,
      "d": 198.6755000000121,
      "v": 100
    },
    {
      "midi": 64,
      "hit": false,
      "t": 166066.63735000123,
      "d": 198.6755000000121,
      "v": 100
    },
    {
      "midi": 45,
      "hit": false,
      "t": 166066.63735000123,
      "d": 198.6755000000121,
      "v": 100
    },
    {
      "midi": 66,
      "hit": false,
      "t": 166066.63735000123,
      "d": 198.6755000000121,
      "v": 100
    },
    {
      "midi": 79,
      "hit": false,
      "t": 166066.63735000123,
      "d": 397.3510000000242,
      "v": 100
    },
    {
      "midi": 62,
      "hit": false,
      "t": 166265.31285000124,
      "d": 198.6755000000121,
      "v": 100
    },
    {
      "midi": 47,
      "hit": false,
      "t": 166265.31285000124,
      "d": 198.6755000000121,
      "v": 100
    },
    {
      "midi": 74,
      "hit": false,
      "t": 166265.31285000124,
      "d": 298.01325000001816,
      "v": 100
    },
    {
      "midi": 71,
      "hit": false,
      "t": 166265.31285000124,
      "d": 298.01325000001816,
      "v": 100
    },
    {
      "midi": 67,
      "hit": false,
      "t": 166265.31285000124,
      "d": 298.01325000001816,
      "v": 100
    },
    {
      "midi": 38,
      "hit": false,
      "t": 166265.31285000124,
      "d": 397.3510000000242,
      "v": 100
    },
    {
      "midi": 42,
      "hit": false,
      "t": 166265.31285000124,
      "d": 397.3510000000242,
      "v": 100
    },
    {
      "midi": 78,
      "hit": false,
      "t": 166463.98835000125,
      "d": 99.33775000000605,
      "v": 100
    },
    {
      "midi": 45,
      "hit": false,
      "t": 166463.98835000125,
      "d": 198.6755000000121,
      "v": 100
    },
    {
      "midi": 64,
      "hit": false,
      "t": 166463.98835000125,
      "d": 397.3510000000242,
      "v": 100
    },
    {
      "midi": 66,
      "hit": false,
      "t": 166463.98835000125,
      "d": 397.3510000000242,
      "v": 100
    },
    {
      "midi": 76,
      "hit": false,
      "t": 166563.32610000126,
      "d": 99.33775000000605,
      "v": 100
    },
    {
      "midi": 69,
      "hit": false,
      "t": 166563.32610000126,
      "d": 99.33775000000605,
      "v": 100
    },
    {
      "midi": 73,
      "hit": false,
      "t": 166563.32610000126,
      "d": 99.33775000000605,
      "v": 100
    },
    {
      "midi": 49,
      "hit": false,
      "t": 166662.66385000126,
      "d": 198.6755000000121,
      "v": 100
    },
    {
      "midi": 38,
      "hit": false,
      "t": 166662.66385000126,
      "d": 397.3510000000242,
      "v": 100
    },
    {
      "midi": 42,
      "hit": false,
      "t": 166662.66385000126,
      "d": 397.3510000000242,
      "v": 100
    },
    {
      "midi": 36,
      "hit": false,
      "t": 166861.33935000128,
      "d": 198.6755000000121,
      "v": 100
    },
    {
      "midi": 66,
      "hit": false,
      "t": 166861.33935000128,
      "d": 198.6755000000121,
      "v": 100
    },
    {
      "midi": 73,
      "hit": false,
      "t": 166861.33935000128,
      "d": 198.6755000000121,
      "v": 100
    },
    {
      "midi": 47,
      "hit": false,
      "t": 166861.33935000128,
      "d": 198.6755000000121,
      "v": 100
    },
    {
      "midi": 64,
      "hit": false,
      "t": 166861.33935000128,
      "d": 198.6755000000121,
      "v": 100
    },
    {
      "midi": 76,
      "hit": false,
      "t": 166861.33935000128,
      "d": 596.0265000000363,
      "v": 100
    },
    {
      "midi": 69,
      "hit": false,
      "t": 166861.33935000128,
      "d": 596.0265000000363,
      "v": 100
    },
    {
      "midi": 73,
      "hit": false,
      "t": 167060.0148500013,
      "d": 198.6755000000121,
      "v": 100
    },
    {
      "midi": 64,
      "hit": false,
      "t": 167060.0148500013,
      "d": 198.6755000000121,
      "v": 100
    },
    {
      "midi": 66,
      "hit": false,
      "t": 167060.0148500013,
      "d": 198.6755000000121,
      "v": 100
    },
    {
      "midi": 45,
      "hit": false,
      "t": 167060.0148500013,
      "d": 198.6755000000121,
      "v": 100
    },
    {
      "midi": 38,
      "hit": false,
      "t": 167060.0148500013,
      "d": 397.3510000000242,
      "v": 100
    },
    {
      "midi": 42,
      "hit": false,
      "t": 167060.0148500013,
      "d": 397.3510000000242,
      "v": 100
    },
    {
      "midi": 36,
      "hit": false,
      "t": 167258.6903500013,
      "d": 198.6755000000121,
      "v": 100
    },
    {
      "midi": 66,
      "hit": false,
      "t": 167258.6903500013,
      "d": 198.6755000000121,
      "v": 100
    },
    {
      "midi": 64,
      "hit": false,
      "t": 167258.6903500013,
      "d": 198.6755000000121,
      "v": 100
    },
    {
      "midi": 47,
      "hit": false,
      "t": 167258.6903500013,
      "d": 198.6755000000121,
      "v": 100
    },
    {
      "midi": 73,
      "hit": false,
      "t": 167258.6903500013,
      "d": 198.6755000000121,
      "v": 100
    },
    {
      "midi": 62,
      "hit": false,
      "t": 167457.3658500013,
      "d": 198.6755000000121,
      "v": 100
    },
    {
      "midi": 38,
      "hit": false,
      "t": 167457.3658500013,
      "d": 397.3510000000242,
      "v": 100
    },
    {
      "midi": 36,
      "hit": false,
      "t": 167457.3658500013,
      "d": 397.3510000000242,
      "v": 100
    },
    {
      "midi": 82,
      "hit": false,
      "t": 167457.3658500013,
      "d": 397.3510000000242,
      "v": 100
    },
    {
      "midi": 42,
      "hit": false,
      "t": 167457.3658500013,
      "d": 397.3510000000242,
      "v": 100
    },
    {
      "midi": 62,
      "hit": false,
      "t": 167656.04135000132,
      "d": 198.6755000000121,
      "v": 100
    },
    {
      "midi": 85,
      "hit": false,
      "t": 167854.71685000134,
      "d": 198.6755000000121,
      "v": 100
    },
    {
      "midi": 38,
      "hit": false,
      "t": 167854.71685000134,
      "d": 298.01325000001816,
      "v": 100
    },
    {
      "midi": 66,
      "hit": false,
      "t": 167854.71685000134,
      "d": 397.3510000000242,
      "v": 100
    },
    {
      "midi": 64,
      "hit": false,
      "t": 167854.71685000134,
      "d": 397.3510000000242,
      "v": 100
    },
    {
      "midi": 70,
      "hit": false,
      "t": 167854.71685000134,
      "d": 397.3510000000242,
      "v": 100
    },
    {
      "midi": 76,
      "hit": false,
      "t": 167854.71685000134,
      "d": 397.3510000000242,
      "v": 100
    },
    {
      "midi": 73,
      "hit": false,
      "t": 167854.71685000134,
      "d": 397.3510000000242,
      "v": 100
    },
    {
      "midi": 42,
      "hit": false,
      "t": 167854.71685000134,
      "d": 397.3510000000242,
      "v": 100
    },
    {
      "midi": 78,
      "hit": false,
      "t": 168053.39235000135,
      "d": 397.3510000000242,
      "v": 100
    },
    {
      "midi": 37,
      "hit": false,
      "t": 168152.73010000135,
      "d": 99.33775000000605,
      "v": 100
    },
    {
      "midi": 62,
      "hit": false,
      "t": 168252.06785000136,
      "d": 198.6755000000121,
      "v": 100
    },
    {
      "midi": 38,
      "hit": false,
      "t": 168252.06785000136,
      "d": 198.6755000000121,
      "v": 100
    },
    {
      "midi": 36,
      "hit": false,
      "t": 168450.74335000137,
      "d": 198.6755000000121,
      "v": 100
    },
    {
      "midi": 76,
      "hit": false,
      "t": 168450.74335000137,
      "d": 198.6755000000121,
      "v": 100
    },
    {
      "midi": 73,
      "hit": false,
      "t": 168450.74335000137,
      "d": 198.6755000000121,
      "v": 100
    },
    {
      "midi": 42,
      "hit": false,
      "t": 168450.74335000137,
      "d": 198.6755000000121,
      "v": 100
    },
    {
      "midi": 70,
      "hit": false,
      "t": 168450.74335000137,
      "d": 198.6755000000121,
      "v": 100
    },
    {
      "midi": 66,
      "hit": false,
      "t": 168450.74335000137,
      "d": 198.6755000000121,
      "v": 100
    },
    {
      "midi": 64,
      "hit": false,
      "t": 168450.74335000137,
      "d": 397.3510000000242,
      "v": 100
    },
    {
      "midi": 42,
      "hit": false,
      "t": 168649.41885000138,
      "d": 198.6755000000121,
      "v": 100
    },
    {
      "midi": 38,
      "hit": false,
      "t": 168649.41885000138,
      "d": 397.3510000000242,
      "v": 100
    },
    {
      "midi": 45,
      "hit": false,
      "t": 168848.0943500014,
      "d": 198.6755000000121,
      "v": 100
    },
    {
      "midi": 70,
      "hit": false,
      "t": 168848.0943500014,
      "d": 198.6755000000121,
      "v": 100
    },
    {
      "midi": 73,
      "hit": false,
      "t": 168848.0943500014,
      "d": 198.6755000000121,
      "v": 100
    },
    {
      "midi": 76,
      "hit": false,
      "t": 168848.0943500014,
      "d": 198.6755000000121,
      "v": 100
    },
    {
      "midi": 66,
      "hit": false,
      "t": 168848.0943500014,
      "d": 198.6755000000121,
      "v": 100
    },
    {
      "midi": 64,
      "hit": false,
      "t": 168848.0943500014,
      "d": 198.6755000000121,
      "v": 100
    },
    {
      "midi": 36,
      "hit": false,
      "t": 168947.4321000014,
      "d": 99.33775000000605,
      "v": 100
    },
    {
      "midi": 76,
      "hit": false,
      "t": 169046.7698500014,
      "d": 198.6755000000121,
      "v": 100
    },
    {
      "midi": 43,
      "hit": false,
      "t": 169046.7698500014,
      "d": 198.6755000000121,
      "v": 100
    },
    {
      "midi": 73,
      "hit": false,
      "t": 169046.7698500014,
      "d": 198.6755000000121,
      "v": 100
    },
    {
      "midi": 66,
      "hit": false,
      "t": 169046.7698500014,
      "d": 198.6755000000121,
      "v": 100
    },
    {
      "midi": 71,
      "hit": false,
      "t": 169046.7698500014,
      "d": 198.6755000000121,
      "v": 100
    },
    {
      "midi": 38,
      "hit": false,
      "t": 169046.7698500014,
      "d": 397.3510000000242,
      "v": 100
    },
    {
      "midi": 42,
      "hit": false,
      "t": 169046.7698500014,
      "d": 397.3510000000242,
      "v": 100
    },
    {
      "midi": 69,
      "hit": false,
      "t": 169046.7698500014,
      "d": 596.0265000000363,
      "v": 100
    },
    {
      "midi": 36,
      "hit": false,
      "t": 169245.44535000142,
      "d": 198.6755000000121,
      "v": 100
    },
    {
      "midi": 71,
      "hit": false,
      "t": 169245.44535000142,
      "d": 198.6755000000121,
      "v": 100
    },
    {
      "midi": 66,
      "hit": false,
      "t": 169245.44535000142,
      "d": 198.6755000000121,
      "v": 100
    },
    {
      "midi": 43,
      "hit": false,
      "t": 169245.44535000142,
      "d": 198.6755000000121,
      "v": 100
    },
    {
      "midi": 76,
      "hit": false,
      "t": 169245.44535000142,
      "d": 198.6755000000121,
      "v": 100
    },
    {
      "midi": 74,
      "hit": false,
      "t": 169245.44535000142,
      "d": 198.6755000000121,
      "v": 100
    },
    {
      "midi": 76,
      "hit": false,
      "t": 169444.12085000143,
      "d": 198.6755000000121,
      "v": 100
    },
    {
      "midi": 71,
      "hit": false,
      "t": 169444.12085000143,
      "d": 198.6755000000121,
      "v": 100
    },
    {
      "midi": 43,
      "hit": false,
      "t": 169444.12085000143,
      "d": 198.6755000000121,
      "v": 100
    },
    {
      "midi": 66,
      "hit": false,
      "t": 169444.12085000143,
      "d": 198.6755000000121,
      "v": 100
    },
    {
      "midi": 38,
      "hit": false,
      "t": 169444.12085000143,
      "d": 397.3510000000242,
      "v": 100
    },
    {
      "midi": 42,
      "hit": false,
      "t": 169444.12085000143,
      "d": 397.3510000000242,
      "v": 100
    },
    {
      "midi": 71,
      "hit": false,
      "t": 169642.79635000144,
      "d": 198.6755000000121,
      "v": 100
    },
    {
      "midi": 74,
      "hit": false,
      "t": 169642.79635000144,
      "d": 198.6755000000121,
      "v": 100
    },
    {
      "midi": 43,
      "hit": false,
      "t": 169642.79635000144,
      "d": 198.6755000000121,
      "v": 100
    },
    {
      "midi": 36,
      "hit": false,
      "t": 169742.13410000145,
      "d": 99.33775000000605,
      "v": 100
    },
    {
      "midi": 43,
      "hit": false,
      "t": 169841.47185000146,
      "d": 198.6755000000121,
      "v": 100
    },
    {
      "midi": 38,
      "hit": false,
      "t": 169841.47185000146,
      "d": 397.3510000000242,
      "v": 100
    },
    {
      "midi": 42,
      "hit": false,
      "t": 169841.47185000146,
      "d": 397.3510000000242,
      "v": 100
    },
    {
      "midi": 36,
      "hit": false,
      "t": 170040.14735000147,
      "d": 198.6755000000121,
      "v": 100
    },
    {
      "midi": 74,
      "hit": false,
      "t": 170040.14735000147,
      "d": 198.6755000000121,
      "v": 100
    },
    {
      "midi": 45,
      "hit": false,
      "t": 170040.14735000147,
      "d": 198.6755000000121,
      "v": 100
    },
    {
      "midi": 71,
      "hit": false,
      "t": 170040.14735000147,
      "d": 198.6755000000121,
      "v": 100
    },
    {
      "midi": 78,
      "hit": false,
      "t": 170040.14735000147,
      "d": 198.6755000000121,
      "v": 100
    },
    {
      "midi": 74,
      "hit": false,
      "t": 170238.82285000148,
      "d": 198.6755000000121,
      "v": 100
    },
    {
      "midi": 71,
      "hit": false,
      "t": 170238.82285000148,
      "d": 198.6755000000121,
      "v": 100
    },
    {
      "midi": 78,
      "hit": false,
      "t": 170238.82285000148,
      "d": 198.6755000000121,
      "v": 100
    },
    {
      "midi": 38,
      "hit": false,
      "t": 170238.82285000148,
      "d": 397.3510000000242,
      "v": 100
    },
    {
      "midi": 42,
      "hit": false,
      "t": 170238.82285000148,
      "d": 397.3510000000242,
      "v": 100
    },
    {
      "midi": 47,
      "hit": false,
      "t": 170238.82285000148,
      "d": 397.3510000000242,
      "v": 100
    },
    {
      "midi": 36,
      "hit": false,
      "t": 170437.4983500015,
      "d": 198.6755000000121,
      "v": 100
    },
    {
      "midi": 74,
      "hit": false,
      "t": 170437.4983500015,
      "d": 198.6755000000121,
      "v": 100
    },
    {
      "midi": 78,
      "hit": false,
      "t": 170437.4983500015,
      "d": 198.6755000000121,
      "v": 100
    },
    {
      "midi": 71,
      "hit": false,
      "t": 170437.4983500015,
      "d": 198.6755000000121,
      "v": 100
    },
    {
      "midi": 62,
      "hit": false,
      "t": 170636.1738500015,
      "d": 198.6755000000121,
      "v": 100
    },
    {
      "midi": 78,
      "hit": false,
      "t": 170636.1738500015,
      "d": 298.01325000001816,
      "v": 100
    },
    {
      "midi": 38,
      "hit": false,
      "t": 170636.1738500015,
      "d": 397.3510000000242,
      "v": 100
    },
    {
      "midi": 42,
      "hit": false,
      "t": 170636.1738500015,
      "d": 397.3510000000242,
      "v": 100
    },
    {
      "midi": 40,
      "hit": false,
      "t": 170636.1738500015,
      "d": 397.3510000000242,
      "v": 100
    },
    {
      "midi": 36,
      "hit": false,
      "t": 170636.1738500015,
      "d": 397.3510000000242,
      "v": 100
    },
    {
      "midi": 62,
      "hit": false,
      "t": 170834.84935000152,
      "d": 198.6755000000121,
      "v": 100
    },
    {
      "midi": 76,
      "hit": false,
      "t": 170934.18710000152,
      "d": 298.01325000001816,
      "v": 100
    },
    {
      "midi": 40,
      "hit": false,
      "t": 171033.52485000153,
      "d": 298.01325000001816,
      "v": 100
    },
    {
      "midi": 67,
      "hit": false,
      "t": 171033.52485000153,
      "d": 397.3510000000242,
      "v": 100
    },
    {
      "midi": 66,
      "hit": false,
      "t": 171033.52485000153,
      "d": 397.3510000000242,
      "v": 100
    },
    {
      "midi": 78,
      "hit": false,
      "t": 171033.52485000153,
      "d": 397.3510000000242,
      "v": 100
    },
    {
      "midi": 74,
      "hit": false,
      "t": 171033.52485000153,
      "d": 397.3510000000242,
      "v": 100
    },
    {
      "midi": 62,
      "hit": false,
      "t": 171033.52485000153,
      "d": 397.3510000000242,
      "v": 100
    },
    {
      "midi": 42,
      "hit": false,
      "t": 171033.52485000153,
      "d": 397.3510000000242,
      "v": 100
    },
    {
      "midi": 71,
      "hit": false,
      "t": 171232.20035000154,
      "d": 198.6755000000121,
      "v": 100
    },
    {
      "midi": 38,
      "hit": false,
      "t": 171331.53810000155,
      "d": 99.33775000000605,
      "v": 100
    },
    {
      "midi": 62,
      "hit": false,
      "t": 171430.87585000155,
      "d": 198.6755000000121,
      "v": 100
    },
    {
      "midi": 40,
      "hit": false,
      "t": 171430.87585000155,
      "d": 198.6755000000121,
      "v": 100
    },
    {
      "midi": 42,
      "hit": false,
      "t": 171430.87585000155,
      "d": 397.3510000000242,
      "v": 100
    },
    {
      "midi": 38,
      "hit": false,
      "t": 171430.87585000155,
      "d": 397.3510000000242,
      "v": 100
    },
    {
      "midi": 36,
      "hit": false,
      "t": 171629.55135000157,
      "d": 198.6755000000121,
      "v": 100
    },
    {
      "midi": 78,
      "hit": false,
      "t": 171629.55135000157,
      "d": 198.6755000000121,
      "v": 100
    },
    {
      "midi": 71,
      "hit": false,
      "t": 171629.55135000157,
      "d": 198.6755000000121,
      "v": 100
    },
    {
      "midi": 67,
      "hit": false,
      "t": 171629.55135000157,
      "d": 198.6755000000121,
      "v": 100
    },
    {
      "midi": 74,
      "hit": false,
      "t": 171629.55135000157,
      "d": 198.6755000000121,
      "v": 100
    },
    {
      "midi": 66,
      "hit": false,
      "t": 171629.55135000157,
      "d": 397.3510000000242,
      "v": 100
    },
    {
      "midi": 43,
      "hit": false,
      "t": 171629.55135000157,
      "d": 397.3510000000242,
      "v": 100
    },
    {
      "midi": 62,
      "hit": false,
      "t": 171629.55135000157,
      "d": 397.3510000000242,
      "v": 100
    },
    {
      "midi": 42,
      "hit": false,
      "t": 171828.22685000158,
      "d": 397.3510000000242,
      "v": 100
    },
    {
      "midi": 38,
      "hit": false,
      "t": 171828.22685000158,
      "d": 397.3510000000242,
      "v": 100
    },
    {
      "midi": 62,
      "hit": false,
      "t": 172026.9023500016,
      "d": 198.6755000000121,
      "v": 100
    },
    {
      "midi": 40,
      "hit": false,
      "t": 172026.9023500016,
      "d": 198.6755000000121,
      "v": 100
    },
    {
      "midi": 42,
      "hit": false,
      "t": 172225.5778500016,
      "d": 198.6755000000121,
      "v": 100
    },
    {
      "midi": 38,
      "hit": false,
      "t": 172225.5778500016,
      "d": 397.3510000000242,
      "v": 100
    },
    {
      "midi": 61,
      "hit": false,
      "t": 172225.5778500016,
      "d": 596.0265000000363,
      "v": 100
    },
    {
      "midi": 69,
      "hit": false,
      "t": 172225.5778500016,
      "d": 596.0265000000363,
      "v": 100
    },
    {
      "midi": 64,
      "hit": false,
      "t": 172225.5778500016,
      "d": 596.0265000000363,
      "v": 100
    },
    {
      "midi": 66,
      "hit": false,
      "t": 172225.5778500016,
      "d": 794.7020000000484,
      "v": 100
    },
    {
      "midi": 36,
      "hit": false,
      "t": 172424.2533500016,
      "d": 198.6755000000121,
      "v": 100
    },
    {
      "midi": 49,
      "hit": false,
      "t": 172424.2533500016,
      "d": 397.3510000000242,
      "v": 100
    },
    {
      "midi": 42,
      "hit": false,
      "t": 172622.92885000163,
      "d": 397.3510000000242,
      "v": 100
    },
    {
      "midi": 38,
      "hit": false,
      "t": 172622.92885000163,
      "d": 397.3510000000242,
      "v": 100
    },
    {
      "midi": 76,
      "hit": false,
      "t": 172821.60435000164,
      "d": 198.6755000000121,
      "v": 100
    },
    {
      "midi": 73,
      "hit": false,
      "t": 172821.60435000164,
      "d": 198.6755000000121,
      "v": 100
    },
    {
      "midi": 47,
      "hit": false,
      "t": 172821.60435000164,
      "d": 397.3510000000242,
      "v": 100
    },
    {
      "midi": 81,
      "hit": false,
      "t": 172821.60435000164,
      "d": 993.3775000000605,
      "v": 100
    },
    {
      "midi": 62,
      "hit": false,
      "t": 173020.27985000165,
      "d": 198.6755000000121,
      "v": 100
    },
    {
      "midi": 73,
      "hit": false,
      "t": 173020.27985000165,
      "d": 298.01325000001816,
      "v": 100
    },
    {
      "midi": 38,
      "hit": false,
      "t": 173020.27985000165,
      "d": 298.01325000001816,
      "v": 100
    },
    {
      "midi": 45,
      "hit": false,
      "t": 173218.95535000166,
      "d": 397.3510000000242,
      "v": 100
    },
    {
      "midi": 69,
      "hit": false,
      "t": 173218.95535000166,
      "d": 596.0265000000363,
      "v": 100
    },
    {
      "midi": 38,
      "hit": false,
      "t": 173318.29310000167,
      "d": 99.33775000000605,
      "v": 100
    },
    {
      "midi": 74,
      "hit": false,
      "t": 173318.29310000167,
      "d": 298.01325000001816,
      "v": 100
    },
    {
      "midi": 38,
      "hit": false,
      "t": 173417.63085000167,
      "d": 397.3510000000242,
      "v": 100
    },
    {
      "midi": 36,
      "hit": false,
      "t": 173616.3063500017,
      "d": 198.6755000000121,
      "v": 100
    },
    {
      "midi": 76,
      "hit": false,
      "t": 173616.3063500017,
      "d": 198.6755000000121,
      "v": 100
    },
    {
      "midi": 45,
      "hit": false,
      "t": 173616.3063500017,
      "d": 198.6755000000121,
      "v": 100
    },
    {
      "midi": 57,
      "hit": false,
      "t": 173814.9818500017,
      "d": 198.6755000000121,
      "v": 100
    },
    {
      "midi": 36,
      "hit": false,
      "t": 173814.9818500017,
      "d": 397.3510000000242,
      "v": 100
    },
    {
      "midi": 47,
      "hit": false,
      "t": 173814.9818500017,
      "d": 397.3510000000242,
      "v": 100
    },
    {
      "midi": 76,
      "hit": false,
      "t": 173814.9818500017,
      "d": 596.0265000000363,
      "v": 100
    },
    {
      "midi": 69,
      "hit": false,
      "t": 173814.9818500017,
      "d": 1589.4040000000969,
      "v": 100
    },
    {
      "midi": 62,
      "hit": false,
      "t": 174013.6573500017,
      "d": 198.6755000000121,
      "v": 114
    },
    {
      "midi": 66,
      "hit": false,
      "t": 174212.33285000172,
      "d": 198.6755000000121,
      "v": 114
    },
    {
      "midi": 45,
      "hit": false,
      "t": 174212.33285000172,
      "d": 198.6755000000121,
      "v": 100
    },
    {
      "midi": 38,
      "hit": false,
      "t": 174212.33285000172,
      "d": 397.3510000000242,
      "v": 100
    },
    {
      "midi": 42,
      "hit": false,
      "t": 174212.33285000172,
      "d": 397.3510000000242,
      "v": 100
    },
    {
      "midi": 74,
      "hit": false,
      "t": 174411.00835000174,
      "d": 198.6755000000121,
      "v": 100
    },
    {
      "midi": 47,
      "hit": false,
      "t": 174411.00835000174,
      "d": 397.3510000000242,
      "v": 100
    },
    {
      "midi": 67,
      "hit": false,
      "t": 174411.00835000174,
      "d": 397.3510000000242,
      "v": 114
    },
    {
      "midi": 42,
      "hit": false,
      "t": 174609.68385000175,
      "d": 397.3510000000242,
      "v": 100
    },
    {
      "midi": 74,
      "hit": false,
      "t": 174609.68385000175,
      "d": 794.7020000000484,
      "v": 100
    },
    {
      "midi": 36,
      "hit": false,
      "t": 174808.35935000176,
      "d": 198.6755000000121,
      "v": 100
    },
    {
      "midi": 66,
      "hit": false,
      "t": 174808.35935000176,
      "d": 198.6755000000121,
      "v": 114
    },
    {
      "midi": 45,
      "hit": false,
      "t": 174808.35935000176,
      "d": 198.6755000000121,
      "v": 100
    },
    {
      "midi": 62,
      "hit": false,
      "t": 175007.03485000177,
      "d": 198.6755000000121,
      "v": 114
    },
    {
      "midi": 47,
      "hit": false,
      "t": 175007.03485000177,
      "d": 198.6755000000121,
      "v": 100
    },
    {
      "midi": 40,
      "hit": false,
      "t": 175007.03485000177,
      "d": 397.3510000000242,
      "v": 100
    },
    {
      "midi": 42,
      "hit": false,
      "t": 175007.03485000177,
      "d": 397.3510000000242,
      "v": 100
    },
    {
      "midi": 57,
      "hit": false,
      "t": 175205.71035000178,
      "d": 198.6755000000121,
      "v": 114
    },
    {
      "midi": 45,
      "hit": false,
      "t": 175205.71035000178,
      "d": 198.6755000000121,
      "v": 100
    },
    {
      "midi": 42,
      "hit": false,
      "t": 175404.3858500018,
      "d": 132.4503333333414,
      "v": 100
    },
    {
      "midi": 62,
      "hit": false,
      "t": 175404.3858500018,
      "d": 132.4503333333414,
      "v": 114
    },
    {
      "midi": 57,
      "hit": false,
      "t": 175404.3858500018,
      "d": 1589.4040000000969,
      "v": 114
    },
    {
      "midi": 38,
      "hit": false,
      "t": 175536.83618333514,
      "d": 132.4503333333414,
      "v": 100
    },
    {
      "midi": 66,
      "hit": false,
      "t": 175536.83618333514,
      "d": 132.4503333333414,
      "v": 100
    },
    {
      "midi": 38,
      "hit": false,
      "t": 175669.28651666848,
      "d": 132.4503333333414,
      "v": 100
    },
    {
      "midi": 69,
      "hit": false,
      "t": 175669.28651666848,
      "d": 132.4503333333414,
      "v": 100
    },
    {
      "midi": 38,
      "hit": false,
      "t": 175801.73685000182,
      "d": 132.4503333333414,
      "v": 100
    },
    {
      "midi": 74,
      "hit": false,
      "t": 175801.73685000182,
      "d": 132.4503333333414,
      "v": 100
    },
    {
      "midi": 38,
      "hit": false,
      "t": 175934.18718333516,
      "d": 132.4503333333414,
      "v": 100
    },
    {
      "midi": 78,
      "hit": false,
      "t": 175934.18718333516,
      "d": 132.4503333333414,
      "v": 100
    },
    {
      "midi": 38,
      "hit": false,
      "t": 176066.6375166685,
      "d": 132.4503333333414,
      "v": 100
    },
    {
      "midi": 81,
      "hit": false,
      "t": 176066.6375166685,
      "d": 132.4503333333414,
      "v": 100
    },
    {
      "midi": 38,
      "hit": false,
      "t": 176199.08785000184,
      "d": 132.4503333333414,
      "v": 100
    },
    {
      "midi": 86,
      "hit": false,
      "t": 176199.08785000184,
      "d": 794.7020000000484,
      "v": 100
    },
    {
      "midi": 38,
      "hit": false,
      "t": 176331.5381833352,
      "d": 132.4503333333414,
      "v": 100
    },
    {
      "midi": 48,
      "hit": false,
      "t": 176463.98851666853,
      "d": 132.4503333333414,
      "v": 100
    },
    {
      "midi": 48,
      "hit": false,
      "t": 176596.43885000187,
      "d": 132.4503333333414,
      "v": 100
    },
    {
      "midi": 47,
      "hit": false,
      "t": 176728.8891833352,
      "d": 132.4503333333414,
      "v": 100
    },
    {
      "midi": 62,
      "hit": false,
      "t": 176795.11435000188,
      "d": 198.6755000000121,
      "v": 100
    },
    {
      "midi": 47,
      "hit": false,
      "t": 176861.33951666855,
      "d": 132.4503333333414,
      "v": 100
    },
    {
      "midi": 73,
      "hit": false,
      "t": 176993.7898500019,
      "d": 198.6755000000121,
      "v": 100
    },
    {
      "midi": 36,
      "hit": false,
      "t": 176993.7898500019,
      "d": 397.3510000000242,
      "v": 100
    },
    {
      "midi": 40,
      "hit": false,
      "t": 176993.7898500019,
      "d": 1192.0530000000144,
      "v": 100
    },
    {
      "midi": 57,
      "hit": false,
      "t": 176993.7898500019,
      "d": 1589.4040000000095,
      "v": 100
    },
    {
      "midi": 67,
      "hit": false,
      "t": 176993.7898500019,
      "d": 3178.8080000000773,
      "v": 100
    },
    {
      "midi": 71,
      "hit": false,
      "t": 176993.7898500019,
      "d": 3178.8080000000773,
      "v": 100
    },
    {
      "midi": 78,
      "hit": false,
      "t": 176993.7898500019,
      "d": 3178.8080000000773,
      "v": 100
    },
    {
      "midi": 74,
      "hit": false,
      "t": 177192.4653500019,
      "d": 596.0265000000072,
      "v": 100
    },
    {
      "midi": 74,
      "hit": false,
      "t": 178185.8428500019,
      "d": 397.3509999999951,
      "v": 100
    },
    {
      "midi": 59,
      "hit": false,
      "t": 178185.8428500019,
      "d": 397.3509999999951,
      "v": 100
    },
    {
      "midi": 59,
      "hit": false,
      "t": 178583.1938500019,
      "d": 198.6755000000121,
      "v": 100
    },
    {
      "midi": 57,
      "hit": false,
      "t": 178781.8693500019,
      "d": 198.6755000000121,
      "v": 100
    },
    {
      "midi": 61,
      "hit": false,
      "t": 178980.54485000193,
      "d": 198.6755000000121,
      "v": 100
    },
    {
      "midi": 59,
      "hit": false,
      "t": 179179.22035000194,
      "d": 397.3509999999951,
      "v": 100
    },
    {
      "midi": 57,
      "hit": false,
      "t": 179576.57135000193,
      "d": 198.6755000000121,
      "v": 100
    },
    {
      "midi": 74,
      "hit": false,
      "t": 179576.57135000193,
      "d": 198.6755000000121,
      "v": 100
    },
    {
      "midi": 57,
      "hit": false,
      "t": 179775.24685000195,
      "d": 198.6755000000121,
      "v": 100
    },
    {
      "midi": 74,
      "hit": false,
      "t": 179775.24685000195,
      "d": 198.6755000000121,
      "v": 100
    },
    {
      "midi": 59,
      "hit": false,
      "t": 179973.92235000196,
      "d": 198.6755000000121,
      "v": 100
    },
    {
      "midi": 74,
      "hit": false,
      "t": 179973.92235000196,
      "d": 198.6755000000121,
      "v": 100
    },
    {
      "midi": 73,
      "hit": false,
      "t": 180172.59785000197,
      "d": 198.6755000000121,
      "v": 100
    },
    {
      "midi": 57,
      "hit": false,
      "t": 180172.59785000197,
      "d": 596.0265000000363,
      "v": 100
    },
    {
      "midi": 78,
      "hit": false,
      "t": 180172.59785000197,
      "d": 3178.8080000001355,
      "v": 100
    },
    {
      "midi": 73,
      "hit": false,
      "t": 180371.27335000198,
      "d": 198.6755000000121,
      "v": 100
    },
    {
      "midi": 71,
      "hit": false,
      "t": 180569.948850002,
      "d": 198.6755000000121,
      "v": 100
    },
    {
      "midi": 54,
      "hit": false,
      "t": 180768.624350002,
      "d": 596.0265000000072,
      "v": 100
    },
    {
      "midi": 73,
      "hit": false,
      "t": 181165.975350002,
      "d": 198.6755000000121,
      "v": 100
    },
    {
      "midi": 52,
      "hit": false,
      "t": 181364.650850002,
      "d": 397.3510000000242,
      "v": 100
    },
    {
      "midi": 69,
      "hit": false,
      "t": 181563.32635000203,
      "d": 198.6755000000121,
      "v": 100
    },
    {
      "midi": 50,
      "hit": false,
      "t": 181762.00185000204,
      "d": 1390.7285000000556,
      "v": 100
    },
    {
      "midi": 66,
      "hit": false,
      "t": 181960.67735000205,
      "d": 198.6755000000121,
      "v": 100
    },
    {
      "midi": 62,
      "hit": false,
      "t": 182358.02835000207,
      "d": 198.6755000000121,
      "v": 100
    },
    {
      "midi": 64,
      "hit": false,
      "t": 182556.7038500021,
      "d": 794.7020000000193,
      "v": 100
    },
    {
      "midi": 50,
      "hit": false,
      "t": 183152.7303500021,
      "d": 198.6755000000121,
      "v": 100
    },
    {
      "midi": 62,
      "hit": false,
      "t": 183152.7303500021,
      "d": 198.6755000000121,
      "v": 100
    },
    {
      "midi": 74,
      "hit": false,
      "t": 183351.4058500021,
      "d": 198.6755000000121,
      "v": 100
    },
    {
      "midi": 52,
      "hit": false,
      "t": 183351.4058500021,
      "d": 1192.0530000000435,
      "v": 100
    },
    {
      "midi": 74,
      "hit": false,
      "t": 183550.08135000212,
      "d": 596.0265000000072,
      "v": 100
    },
    {
      "midi": 62,
      "hit": false,
      "t": 184344.78335000214,
      "d": 99.33775000000605,
      "v": 100
    },
    {
      "midi": 64,
      "hit": false,
      "t": 184444.12110000214,
      "d": 99.33775000000605,
      "v": 100
    },
    {
      "midi": 66,
      "hit": false,
      "t": 184543.45885000215,
      "d": 99.33775000000605,
      "v": 100
    },
    {
      "midi": 52,
      "hit": false,
      "t": 184543.45885000215,
      "d": 198.6755000000121,
      "v": 100
    },
    {
      "midi": 67,
      "hit": false,
      "t": 184642.79660000216,
      "d": 99.33775000000605,
      "v": 100
    },
    {
      "midi": 69,
      "hit": false,
      "t": 184742.13435000216,
      "d": 99.33775000000605,
      "v": 100
    },
    {
      "midi": 50,
      "hit": false,
      "t": 184742.13435000216,
      "d": 198.6755000000121,
      "v": 100
    },
    {
      "midi": 71,
      "hit": false,
      "t": 184841.47210000217,
      "d": 99.33775000000605,
      "v": 100
    },
    {
      "midi": 52,
      "hit": false,
      "t": 184940.80985000217,
      "d": 794.7019999999902,
      "v": 100
    },
    {
      "midi": 74,
      "hit": false,
      "t": 184940.80985000217,
      "d": 1589.4040000000386,
      "v": 100
    },
    {
      "midi": 55,
      "hit": false,
      "t": 185735.51185000216,
      "d": 397.3510000000242,
      "v": 100
    },
    {
      "midi": 71,
      "hit": false,
      "t": 185934.18735000218,
      "d": 198.6755000000121,
      "v": 100
    },
    {
      "midi": 78,
      "hit": false,
      "t": 186132.8628500022,
      "d": 198.6755000000121,
      "v": 100
    },
    {
      "midi": 61,
      "hit": false,
      "t": 186132.8628500022,
      "d": 397.3510000000242,
      "v": 100
    },
    {
      "midi": 78,
      "hit": false,
      "t": 186331.5383500022,
      "d": 198.6755000000121,
      "v": 100
    },
    {
      "midi": 57,
      "hit": false,
      "t": 186530.2138500022,
      "d": 596.0265000000072,
      "v": 100
    },
    {
      "midi": 76,
      "hit": false,
      "t": 186530.2138500022,
      "d": 596.0265000000072,
      "v": 100
    },
    {
      "midi": 69,
      "hit": false,
      "t": 186530.2138500022,
      "d": 3178.8080000000773,
      "v": 100
    },
    {
      "midi": 73,
      "hit": false,
      "t": 186530.2138500022,
      "d": 3178.8080000000773,
      "v": 100
    },
    {
      "midi": 54,
      "hit": false,
      "t": 187126.24035000222,
      "d": 596.0265000000072,
      "v": 100
    },
    {
      "midi": 76,
      "hit": false,
      "t": 187523.5913500022,
      "d": 198.6755000000121,
      "v": 100
    },
    {
      "midi": 78,
      "hit": false,
      "t": 187722.26685000223,
      "d": 198.6755000000121,
      "v": 100
    },
    {
      "midi": 57,
      "hit": false,
      "t": 187722.26685000223,
      "d": 397.3510000000242,
      "v": 100
    },
    {
      "midi": 78,
      "hit": false,
      "t": 187920.94235000224,
      "d": 198.6755000000121,
      "v": 100
    },
    {
      "midi": 78,
      "hit": false,
      "t": 188119.61785000225,
      "d": 264.9006666666537,
      "v": 100
    },
    {
      "midi": 62,
      "hit": false,
      "t": 188119.61785000225,
      "d": 596.0264999999781,
      "v": 100
    },
    {
      "midi": 78,
      "hit": false,
      "t": 188384.5185166689,
      "d": 264.9006666666537,
      "v": 100
    },
    {
      "midi": 76,
      "hit": false,
      "t": 188649.41918333556,
      "d": 264.9006666666828,
      "v": 100
    },
    {
      "midi": 61,
      "hit": false,
      "t": 188715.64435000223,
      "d": 397.3510000000242,
      "v": 100
    },
    {
      "midi": 76,
      "hit": false,
      "t": 188914.31985000224,
      "d": 264.9006666666828,
      "v": 100
    },
    {
      "midi": 59,
      "hit": false,
      "t": 189112.99535000225,
      "d": 198.6755000000121,
      "v": 100
    },
    {
      "midi": 74,
      "hit": false,
      "t": 189179.22051666892,
      "d": 264.9006666666828,
      "v": 100
    },
    {
      "midi": 57,
      "hit": false,
      "t": 189311.67085000227,
      "d": 397.3510000000242,
      "v": 100
    },
    {
      "midi": 76,
      "hit": false,
      "t": 189444.1211833356,
      "d": 264.9006666666828,
      "v": 100
    },
    {
      "midi": 62,
      "hit": false,
      "t": 189510.34635000228,
      "d": 198.6755000000121,
      "v": 100
    },
    {
      "midi": 57,
      "hit": false,
      "t": 189709.0218500023,
      "d": 198.6755000000121,
      "v": 58
    },
    {
      "midi": 74,
      "hit": false,
      "t": 189709.0218500023,
      "d": 198.6755000000121,
      "v": 61
    },
    {
      "midi": 59,
      "hit": false,
      "t": 189709.0218500023,
      "d": 596.0265000000363,
      "v": 100
    },
    {
      "midi": 71,
      "hit": false,
      "t": 189907.6973500023,
      "d": 198.6755000000121,
      "v": 65
    },
    {
      "midi": 57,
      "hit": false,
      "t": 189907.6973500023,
      "d": 397.3510000000242,
      "v": 60
    },
    {
      "midi": 67,
      "hit": false,
      "t": 190106.3728500023,
      "d": 198.6755000000121,
      "v": 70
    },
    {
      "midi": 57,
      "hit": false,
      "t": 190305.04835000233,
      "d": 198.6755000000121,
      "v": 62
    },
    {
      "midi": 76,
      "hit": false,
      "t": 190305.04835000233,
      "d": 198.6755000000121,
      "v": 75
    },
    {
      "midi": 61,
      "hit": false,
      "t": 190305.04835000233,
      "d": 596.0265000000363,
      "v": 100
    },
    {
      "midi": 71,
      "hit": false,
      "t": 190503.72385000234,
      "d": 198.6755000000121,
      "v": 80
    },
    {
      "midi": 57,
      "hit": false,
      "t": 190503.72385000234,
      "d": 397.3510000000242,
      "v": 63
    },
    {
      "midi": 67,
      "hit": false,
      "t": 190702.39935000235,
      "d": 198.6755000000121,
      "v": 85
    },
    {
      "midi": 57,
      "hit": false,
      "t": 190901.07485000236,
      "d": 198.6755000000121,
      "v": 66
    },
    {
      "midi": 78,
      "hit": false,
      "t": 190901.07485000236,
      "d": 198.6755000000121,
      "v": 90
    },
    {
      "midi": 62,
      "hit": false,
      "t": 190901.07485000236,
      "d": 397.3510000000242,
      "v": 100
    },
    {
      "midi": 57,
      "hit": false,
      "t": 191099.75035000237,
      "d": 198.6755000000121,
      "v": 67
    },
    {
      "midi": 67,
      "hit": false,
      "t": 191099.75035000237,
      "d": 198.6755000000121,
      "v": 95
    },
    {
      "midi": 74,
      "hit": false,
      "t": 191298.4258500024,
      "d": 198.6755000000121,
      "v": 100
    },
    {
      "midi": 59,
      "hit": false,
      "t": 191298.4258500024,
      "d": 596.0265000000363,
      "v": 100
    },
    {
      "midi": 57,
      "hit": false,
      "t": 191497.1013500024,
      "d": 198.6755000000121,
      "v": 69
    },
    {
      "midi": 71,
      "hit": false,
      "t": 191497.1013500024,
      "d": 198.6755000000121,
      "v": 105
    },
    {
      "midi": 67,
      "hit": false,
      "t": 191695.7768500024,
      "d": 198.6755000000121,
      "v": 109
    },
    {
      "midi": 57,
      "hit": false,
      "t": 191695.7768500024,
      "d": 397.3510000000242,
      "v": 71
    },
    {
      "midi": 76,
      "hit": false,
      "t": 191894.45235000242,
      "d": 198.6755000000121,
      "v": 114
    },
    {
      "midi": 61,
      "hit": false,
      "t": 191894.45235000242,
      "d": 596.0265000000363,
      "v": 100
    },
    {
      "midi": 57,
      "hit": false,
      "t": 192093.12785000243,
      "d": 198.6755000000121,
      "v": 73
    },
    {
      "midi": 71,
      "hit": false,
      "t": 192093.12785000243,
      "d": 198.6755000000121,
      "v": 119
    },
    {
      "midi": 67,
      "hit": false,
      "t": 192291.80335000245,
      "d": 198.6755000000121,
      "v": 124
    },
    {
      "midi": 57,
      "hit": false,
      "t": 192291.80335000245,
      "d": 397.3510000000242,
      "v": 74
    },
    {
      "midi": 74,
      "hit": false,
      "t": 192291.80335000245,
      "d": 397.3510000000242,
      "v": 100
    },
    {
      "midi": 78,
      "hit": false,
      "t": 192490.47885000246,
      "d": 198.6755000000121,
      "v": 124
    },
    {
      "midi": 62,
      "hit": false,
      "t": 192490.47885000246,
      "d": 397.3510000000242,
      "v": 100
    },
    {
      "midi": 57,
      "hit": false,
      "t": 192689.15435000247,
      "d": 198.6755000000121,
      "v": 77
    },
    {
      "midi": 67,
      "hit": false,
      "t": 192689.15435000247,
      "d": 198.6755000000121,
      "v": 125
    },
    {
      "midi": 74,
      "hit": false,
      "t": 192689.15435000247,
      "d": 397.3510000000242,
      "v": 100
    },
    {
      "midi": 73,
      "hit": false,
      "t": 192887.82985000248,
      "d": 198.6755000000121,
      "v": 125
    },
    {
      "midi": 57,
      "hit": false,
      "t": 192887.82985000248,
      "d": 397.3510000000242,
      "v": 78
    },
    {
      "midi": 69,
      "hit": false,
      "t": 193086.5053500025,
      "d": 198.6755000000121,
      "v": 125
    },
    {
      "midi": 73,
      "hit": false,
      "t": 193086.5053500025,
      "d": 596.0265000000363,
      "v": 100
    },
    {
      "midi": 57,
      "hit": false,
      "t": 193285.1808500025,
      "d": 198.6755000000121,
      "v": 80
    },
    {
      "midi": 64,
      "hit": false,
      "t": 193285.1808500025,
      "d": 198.6755000000121,
      "v": 125
    },
    {
      "midi": 57,
      "hit": false,
      "t": 193483.85635000252,
      "d": 198.6755000000121,
      "v": 82
    },
    {
      "midi": 74,
      "hit": false,
      "t": 193483.85635000252,
      "d": 198.6755000000121,
      "v": 124
    },
    {
      "midi": 59,
      "hit": false,
      "t": 193483.85635000252,
      "d": 596.0265000000363,
      "v": 100
    },
    {
      "midi": 69,
      "hit": false,
      "t": 193682.53185000253,
      "d": 198.6755000000121,
      "v": 124
    },
    {
      "midi": 57,
      "hit": false,
      "t": 193881.20735000254,
      "d": 198.6755000000121,
      "v": 84
    },
    {
      "midi": 64,
      "hit": false,
      "t": 193881.20735000254,
      "d": 198.6755000000121,
      "v": 124
    },
    {
      "midi": 76,
      "hit": false,
      "t": 194079.88285000256,
      "d": 198.6755000000121,
      "v": 123
    },
    {
      "midi": 57,
      "hit": false,
      "t": 194079.88285000256,
      "d": 397.3510000000242,
      "v": 85
    },
    {
      "midi": 61,
      "hit": false,
      "t": 194079.88285000256,
      "d": 397.3510000000242,
      "v": 100
    },
    {
      "midi": 64,
      "hit": false,
      "t": 194278.55835000257,
      "d": 198.6755000000121,
      "v": 123
    },
    {
      "midi": 74,
      "hit": false,
      "t": 194278.55835000257,
      "d": 397.3510000000242,
      "v": 100
    },
    {
      "midi": 73,
      "hit": false,
      "t": 194477.23385000258,
      "d": 198.6755000000121,
      "v": 123
    },
    {
      "midi": 57,
      "hit": false,
      "t": 194477.23385000258,
      "d": 794.7020000000484,
      "v": 100
    },
    {
      "midi": 64,
      "hit": false,
      "t": 194675.9093500026,
      "d": 198.6755000000121,
      "v": 122
    },
    {
      "midi": 69,
      "hit": false,
      "t": 194874.5848500026,
      "d": 198.6755000000121,
      "v": 122
    },
    {
      "midi": 73,
      "hit": false,
      "t": 195073.26035000262,
      "d": 198.6755000000121,
      "v": 122
    },
    {
      "midi": 38,
      "hit": false,
      "t": 195271.93585000263,
      "d": 198.6755000000121,
      "v": 100
    },
    {
      "midi": 36,
      "hit": false,
      "t": 195470.61135000264,
      "d": 596.0265000000072,
      "v": 100
    },
    {
      "midi": 69,
      "hit": false,
      "t": 195470.61135000264,
      "d": 596.0265000000072,
      "v": 100
    },
    {
      "midi": 74,
      "hit": false,
      "t": 195470.61135000264,
      "d": 596.0265000000072,
      "v": 100
    },
    {
      "midi": 73,
      "hit": false,
      "t": 195470.61135000264,
      "d": 596.0265000000072,
      "v": 100
    },
    {
      "midi": 64,
      "hit": false,
      "t": 195470.61135000264,
      "d": 596.0265000000072,
      "v": 100
    },
    {
      "midi": 66,
      "hit": false,
      "t": 195470.61135000264,
      "d": 596.0265000000072,
      "v": 100
    },
    {
      "midi": 38,
      "hit": false,
      "t": 195470.61135000264,
      "d": 596.0265000000072,
      "v": 100
    },
    {
      "midi": 57,
      "hit": false,
      "t": 195470.61135000264,
      "d": 596.0265000000072,
      "v": 100
    },
    {
      "midi": 36,
      "hit": false,
      "t": 196066.63785000265,
      "d": 397.3509999999951,
      "v": 100
    },
    {
      "midi": 71,
      "hit": false,
      "t": 196066.63785000265,
      "d": 794.7019999999902,
      "v": 100
    },
    {
      "midi": 74,
      "hit": false,
      "t": 196066.63785000265,
      "d": 794.7019999999902,
      "v": 100
    },
    {
      "midi": 57,
      "hit": false,
      "t": 196066.63785000265,
      "d": 1192.0529999999853,
      "v": 100
    },
    {
      "midi": 62,
      "hit": false,
      "t": 196066.63785000265,
      "d": 1589.4040000000095,
      "v": 100
    },
    {
      "midi": 66,
      "hit": false,
      "t": 196066.63785000265,
      "d": 1589.4040000000095,
      "v": 100
    },
    {
      "midi": 68,
      "hit": false,
      "t": 196066.63785000265,
      "d": 1589.4040000000095,
      "v": 100
    },
    {
      "midi": 40,
      "hit": false,
      "t": 196066.63785000265,
      "d": 3178.8080000001064,
      "v": 100
    },
    {
      "midi": 44,
      "hit": false,
      "t": 196066.63785000265,
      "d": 3178.8080000001064,
      "v": 100
    },
    {
      "midi": 71,
      "hit": false,
      "t": 196861.33985000264,
      "d": 794.7020000000193,
      "v": 100
    },
    {
      "midi": 74,
      "hit": false,
      "t": 196861.33985000264,
      "d": 794.7020000000193,
      "v": 100
    },
    {
      "midi": 42,
      "hit": false,
      "t": 197258.69085000263,
      "d": 198.6755000000121,
      "v": 100
    },
    {
      "midi": 38,
      "hit": false,
      "t": 197258.69085000263,
      "d": 198.6755000000121,
      "v": 100
    },
    {
      "midi": 42,
      "hit": false,
      "t": 197457.36635000265,
      "d": 198.6755000000121,
      "v": 100
    },
    {
      "midi": 38,
      "hit": false,
      "t": 197457.36635000265,
      "d": 198.6755000000121,
      "v": 100
    },
    {
      "midi": 38,
      "hit": false,
      "t": 197656.04185000266,
      "d": 198.6755000000121,
      "v": 100
    },
    {
      "midi": 42,
      "hit": false,
      "t": 197656.04185000266,
      "d": 198.6755000000121,
      "v": 100
    },
    {
      "midi": 78,
      "hit": false,
      "t": 197656.04185000266,
      "d": 794.7020000000484,
      "v": 100
    },
    {
      "midi": 86,
      "hit": false,
      "t": 197656.04185000266,
      "d": 1589.4040000000969,
      "v": 100
    },
    {
      "midi": 80,
      "hit": false,
      "t": 197656.04185000266,
      "d": 1589.4040000000969,
      "v": 100
    },
    {
      "midi": 38,
      "hit": false,
      "t": 197854.71735000267,
      "d": 198.6755000000121,
      "v": 100
    },
    {
      "midi": 42,
      "hit": false,
      "t": 197854.71735000267,
      "d": 198.6755000000121,
      "v": 100
    },
    {
      "midi": 38,
      "hit": false,
      "t": 198053.39285000268,
      "d": 198.6755000000121,
      "v": 100
    },
    {
      "midi": 42,
      "hit": false,
      "t": 198053.39285000268,
      "d": 198.6755000000121,
      "v": 100
    },
    {
      "midi": 38,
      "hit": false,
      "t": 198252.0683500027,
      "d": 198.6755000000121,
      "v": 100
    },
    {
      "midi": 42,
      "hit": false,
      "t": 198252.0683500027,
      "d": 198.6755000000121,
      "v": 100
    },
    {
      "midi": 38,
      "hit": false,
      "t": 198450.7438500027,
      "d": 198.6755000000121,
      "v": 100
    },
    {
      "midi": 42,
      "hit": false,
      "t": 198450.7438500027,
      "d": 198.6755000000121,
      "v": 100
    },
    {
      "midi": 83,
      "hit": false,
      "t": 198450.7438500027,
      "d": 794.7020000000484,
      "v": 100
    },
    {
      "midi": 38,
      "hit": false,
      "t": 198649.41935000272,
      "d": 198.6755000000121,
      "v": 100
    },
    {
      "midi": 42,
      "hit": false,
      "t": 198649.41935000272,
      "d": 198.6755000000121,
      "v": 100
    },
    {
      "midi": 38,
      "hit": false,
      "t": 198848.09485000273,
      "d": 198.6755000000121,
      "v": 100
    },
    {
      "midi": 42,
      "hit": false,
      "t": 198848.09485000273,
      "d": 198.6755000000121,
      "v": 100
    },
    {
      "midi": 74,
      "hit": false,
      "t": 198848.09485000273,
      "d": 198.6755000000121,
      "v": 100
    },
    {
      "midi": 38,
      "hit": false,
      "t": 199046.77035000274,
      "d": 99.33775000000605,
      "v": 100
    },
    {
      "midi": 76,
      "hit": false,
      "t": 199046.77035000274,
      "d": 198.6755000000121,
      "v": 100
    },
    {
      "midi": 38,
      "hit": false,
      "t": 199146.10810000275,
      "d": 99.33775000000605,
      "v": 100
    },
    {
      "midi": 38,
      "hit": false,
      "t": 199245.44585000275,
      "d": 198.6755000000121,
      "v": 100
    },
    {
      "midi": 76,
      "hit": false,
      "t": 199245.44585000275,
      "d": 198.6755000000121,
      "v": 100
    },
    {
      "midi": 73,
      "hit": false,
      "t": 199245.44585000275,
      "d": 1390.7285000000848,
      "v": 100
    },
    {
      "midi": 45,
      "hit": false,
      "t": 199245.44585000275,
      "d": 1390.7285000000848,
      "v": 100
    },
    {
      "midi": 81,
      "hit": false,
      "t": 199245.44585000275,
      "d": 1390.7285000000848,
      "v": 100
    },
    {
      "midi": 42,
      "hit": false,
      "t": 199245.44585000275,
      "d": 1390.7285000000848,
      "v": 100
    },
    {
      "midi": 36,
      "hit": false,
      "t": 199444.12135000277,
      "d": 198.6755000000121,
      "v": 100
    },
    {
      "midi": 57,
      "hit": false,
      "t": 199444.12135000277,
      "d": 198.6755000000121,
      "v": 100
    },
    {
      "midi": 76,
      "hit": false,
      "t": 199444.12135000277,
      "d": 596.0265000000363,
      "v": 100
    },
    {
      "midi": 38,
      "hit": false,
      "t": 199742.13460000278,
      "d": 99.33775000000605,
      "v": 100
    },
    {
      "midi": 38,
      "hit": false,
      "t": 199841.4723500028,
      "d": 198.6755000000121,
      "v": 100
    },
    {
      "midi": 38,
      "hit": false,
      "t": 200040.1478500028,
      "d": 298.01325000001816,
      "v": 100
    },
    {
      "midi": 76,
      "hit": false,
      "t": 200238.8233500028,
      "d": 198.6755000000121,
      "v": 100
    },
    {
      "midi": 38,
      "hit": false,
      "t": 200338.16110000282,
      "d": 99.33775000000605,
      "v": 100
    },
    {
      "midi": 38,
      "hit": false,
      "t": 200437.49885000283,
      "d": 198.6755000000121,
      "v": 100
    },
    {
      "midi": 76,
      "hit": false,
      "t": 200437.49885000283,
      "d": 198.6755000000121,
      "v": 100
    },
    {
      "midi": 48,
      "hit": false,
      "t": 200636.17435000284,
      "d": 198.6755000000121,
      "v": 100
    },
    {
      "midi": 78,
      "hit": false,
      "t": 200636.17435000284,
      "d": 596.0265000000363,
      "v": 100
    },
    {
      "midi": 73,
      "hit": false,
      "t": 200636.17435000284,
      "d": 596.0265000000363,
      "v": 100
    },
    {
      "midi": 70,
      "hit": false,
      "t": 200636.17435000284,
      "d": 596.0265000000363,
      "v": 100
    },
    {
      "midi": 42,
      "hit": false,
      "t": 200636.17435000284,
      "d": 1192.0530000000435,
      "v": 100
    },
    {
      "midi": 46,
      "hit": false,
      "t": 200636.17435000284,
      "d": 1788.0795000000799,
      "v": 100
    },
    {
      "midi": 38,
      "hit": false,
      "t": 200934.18760000286,
      "d": 99.33775000000605,
      "v": 100
    },
    {
      "midi": 38,
      "hit": false,
      "t": 201033.52535000286,
      "d": 198.6755000000121,
      "v": 100
    },
    {
      "midi": 38,
      "hit": false,
      "t": 201232.20085000288,
      "d": 298.01324999998906,
      "v": 100
    },
    {
      "midi": 78,
      "hit": false,
      "t": 201232.20085000288,
      "d": 397.3509999999951,
      "v": 100
    },
    {
      "midi": 38,
      "hit": false,
      "t": 201530.21410000286,
      "d": 99.33775000000605,
      "v": 100
    },
    {
      "midi": 38,
      "hit": false,
      "t": 201629.55185000287,
      "d": 198.6755000000121,
      "v": 100
    },
    {
      "midi": 85,
      "hit": false,
      "t": 201629.55185000287,
      "d": 397.3510000000242,
      "v": 100
    },
    {
      "midi": 48,
      "hit": false,
      "t": 201828.22735000288,
      "d": 198.6755000000121,
      "v": 100
    },
    {
      "midi": 50,
      "hit": false,
      "t": 201828.22735000288,
      "d": 198.6755000000121,
      "v": 100
    },
    {
      "midi": 66,
      "hit": false,
      "t": 201828.22735000288,
      "d": 397.3510000000242,
      "v": 75
    },
    {
      "midi": 48,
      "hit": false,
      "t": 202026.9028500029,
      "d": 99.33775000000605,
      "v": 100
    },
    {
      "midi": 52,
      "hit": false,
      "t": 202026.9028500029,
      "d": 397.3510000000242,
      "v": 100
    },
    {
      "midi": 85,
      "hit": false,
      "t": 202026.9028500029,
      "d": 397.3510000000242,
      "v": 100
    },
    {
      "midi": 38,
      "hit": false,
      "t": 202126.2406000029,
      "d": 99.33775000000605,
      "v": 100
    },
    {
      "midi": 38,
      "hit": false,
      "t": 202225.5783500029,
      "d": 198.6755000000121,
      "v": 100
    },
    {
      "midi": 66,
      "hit": false,
      "t": 202225.5783500029,
      "d": 198.6755000000121,
      "v": 87
    },
    {
      "midi": 66,
      "hit": false,
      "t": 202424.25385000292,
      "d": 298.01324999998906,
      "v": 76
    },
    {
      "midi": 62,
      "hit": false,
      "t": 202424.25385000292,
      "d": 298.01324999998906,
      "v": 76
    },
    {
      "midi": 55,
      "hit": false,
      "t": 202424.25385000292,
      "d": 298.01324999998906,
      "v": 76
    },
    {
      "midi": 59,
      "hit": false,
      "t": 202424.25385000292,
      "d": 298.01324999998906,
      "v": 76
    },
    {
      "midi": 36,
      "hit": false,
      "t": 202424.25385000292,
      "d": 397.3509999999951,
      "v": 100
    },
    {
      "midi": 38,
      "hit": false,
      "t": 202424.25385000292,
      "d": 397.3509999999951,
      "v": 100
    },
    {
      "midi": 57,
      "hit": false,
      "t": 202424.25385000292,
      "d": 397.3509999999951,
      "v": 100
    },
    {
      "midi": 40,
      "hit": false,
      "t": 202424.25385000292,
      "d": 397.3509999999951,
      "v": 100
    },
    {
      "midi": 66,
      "hit": false,
      "t": 202722.2671000029,
      "d": 99.33775000000605,
      "v": 76
    },
    {
      "midi": 55,
      "hit": false,
      "t": 202722.2671000029,
      "d": 99.33775000000605,
      "v": 76
    },
    {
      "midi": 62,
      "hit": false,
      "t": 202722.2671000029,
      "d": 99.33775000000605,
      "v": 76
    },
    {
      "midi": 59,
      "hit": false,
      "t": 202722.2671000029,
      "d": 99.33775000000605,
      "v": 76
    },
    {
      "midi": 40,
      "hit": false,
      "t": 202821.6048500029,
      "d": 298.01324999998906,
      "v": 100
    },
    {
      "midi": 66,
      "hit": false,
      "t": 202821.6048500029,
      "d": 397.3509999999951,
      "v": 76
    },
    {
      "midi": 78,
      "hit": false,
      "t": 202821.6048500029,
      "d": 397.3509999999951,
      "v": 100
    },
    {
      "midi": 71,
      "hit": false,
      "t": 202821.6048500029,
      "d": 397.3509999999951,
      "v": 100
    },
    {
      "midi": 74,
      "hit": false,
      "t": 202821.6048500029,
      "d": 397.3509999999951,
      "v": 100
    },
    {
      "midi": 42,
      "hit": false,
      "t": 202821.6048500029,
      "d": 397.3509999999951,
      "v": 100
    },
    {
      "midi": 67,
      "hit": false,
      "t": 202821.6048500029,
      "d": 397.3509999999951,
      "v": 100
    },
    {
      "midi": 59,
      "hit": false,
      "t": 202821.6048500029,
      "d": 1192.0529999999853,
      "v": 76
    },
    {
      "midi": 55,
      "hit": false,
      "t": 202821.6048500029,
      "d": 1192.0529999999853,
      "v": 76
    },
    {
      "midi": 38,
      "hit": false,
      "t": 203119.6181000029,
      "d": 99.33775000000605,
      "v": 100
    },
    {
      "midi": 40,
      "hit": false,
      "t": 203218.9558500029,
      "d": 198.6755000000121,
      "v": 100
    },
    {
      "midi": 66,
      "hit": false,
      "t": 203218.9558500029,
      "d": 298.01325000001816,
      "v": 88
    },
    {
      "midi": 42,
      "hit": false,
      "t": 203218.9558500029,
      "d": 397.3509999999951,
      "v": 100
    },
    {
      "midi": 38,
      "hit": false,
      "t": 203218.9558500029,
      "d": 397.3509999999951,
      "v": 100
    },
    {
      "midi": 36,
      "hit": false,
      "t": 203417.63135000292,
      "d": 198.675499999983,
      "v": 100
    },
    {
      "midi": 64,
      "hit": false,
      "t": 203417.63135000292,
      "d": 298.01324999995995,
      "v": 92
    },
    {
      "midi": 43,
      "hit": false,
      "t": 203417.63135000292,
      "d": 397.350999999966,
      "v": 100
    },
    {
      "midi": 62,
      "hit": false,
      "t": 203616.3068500029,
      "d": 298.01324999998906,
      "v": 89
    },
    {
      "midi": 38,
      "hit": false,
      "t": 203616.3068500029,
      "d": 397.3509999999951,
      "v": 100
    },
    {
      "midi": 42,
      "hit": false,
      "t": 203616.3068500029,
      "d": 397.3509999999951,
      "v": 100
    },
    {
      "midi": 40,
      "hit": false,
      "t": 203814.9823500029,
      "d": 198.6755000000121,
      "v": 100
    },
    {
      "midi": 36,
      "hit": false,
      "t": 203814.9823500029,
      "d": 198.6755000000121,
      "v": 100
    },
    {
      "midi": 69,
      "hit": false,
      "t": 204013.6578500029,
      "d": 99.33775000000605,
      "v": 100
    },
    {
      "midi": 42,
      "hit": false,
      "t": 204013.6578500029,
      "d": 198.6755000000121,
      "v": 100
    },
    {
      "midi": 71,
      "hit": false,
      "t": 204013.6578500029,
      "d": 298.01325000001816,
      "v": 84
    },
    {
      "midi": 38,
      "hit": false,
      "t": 204013.6578500029,
      "d": 397.3510000000242,
      "v": 100
    },
    {
      "midi": 36,
      "hit": false,
      "t": 204013.6578500029,
      "d": 397.3510000000242,
      "v": 100
    },
    {
      "midi": 64,
      "hit": false,
      "t": 204013.6578500029,
      "d": 596.0265000000363,
      "v": 100
    },
    {
      "midi": 45,
      "hit": false,
      "t": 204212.3333500029,
      "d": 198.6755000000121,
      "v": 100
    },
    {
      "midi": 61,
      "hit": false,
      "t": 204212.3333500029,
      "d": 397.3510000000242,
      "v": 81
    },
    {
      "midi": 47,
      "hit": false,
      "t": 204411.00885000292,
      "d": 198.6755000000121,
      "v": 100
    },
    {
      "midi": 42,
      "hit": false,
      "t": 204411.00885000292,
      "d": 397.3510000000242,
      "v": 100
    },
    {
      "midi": 38,
      "hit": false,
      "t": 204411.00885000292,
      "d": 397.3510000000242,
      "v": 100
    },
    {
      "midi": 49,
      "hit": false,
      "t": 204609.68435000294,
      "d": 397.3510000000242,
      "v": 100
    },
    {
      "midi": 61,
      "hit": false,
      "t": 204609.68435000294,
      "d": 695.3642500000424,
      "v": 100
    },
    {
      "midi": 69,
      "hit": false,
      "t": 204609.68435000294,
      "d": 993.3775000000605,
      "v": 100
    },
    {
      "midi": 64,
      "hit": false,
      "t": 204609.68435000294,
      "d": 993.3775000000605,
      "v": 100
    },
    {
      "midi": 38,
      "hit": false,
      "t": 204808.35985000295,
      "d": 397.3510000000242,
      "v": 100
    },
    {
      "midi": 42,
      "hit": false,
      "t": 204808.35985000295,
      "d": 397.3510000000242,
      "v": 100
    },
    {
      "midi": 36,
      "hit": false,
      "t": 205007.03535000296,
      "d": 198.6755000000121,
      "v": 100
    },
    {
      "midi": 47,
      "hit": false,
      "t": 205007.03535000296,
      "d": 198.6755000000121,
      "v": 100
    },
    {
      "midi": 45,
      "hit": false,
      "t": 205205.71085000297,
      "d": 198.6755000000121,
      "v": 100
    },
    {
      "midi": 38,
      "hit": false,
      "t": 205205.71085000297,
      "d": 397.3510000000242,
      "v": 100
    },
    {
      "midi": 66,
      "hit": false,
      "t": 205205.71085000297,
      "d": 397.3510000000242,
      "v": 76
    },
    {
      "midi": 36,
      "hit": false,
      "t": 205404.38635000298,
      "d": 198.6755000000121,
      "v": 100
    },
    {
      "midi": 42,
      "hit": false,
      "t": 205404.38635000298,
      "d": 198.6755000000121,
      "v": 100
    },
    {
      "midi": 66,
      "hit": false,
      "t": 205603.061850003,
      "d": 298.01324999998906,
      "v": 79
    },
    {
      "midi": 36,
      "hit": false,
      "t": 205603.061850003,
      "d": 397.3509999999951,
      "v": 100
    },
    {
      "midi": 38,
      "hit": false,
      "t": 205603.061850003,
      "d": 397.3509999999951,
      "v": 100
    },
    {
      "midi": 42,
      "hit": false,
      "t": 205603.061850003,
      "d": 397.3509999999951,
      "v": 100
    },
    {
      "midi": 70,
      "hit": false,
      "t": 205603.061850003,
      "d": 596.0265000000072,
      "v": 100
    },
    {
      "midi": 61,
      "hit": false,
      "t": 205603.061850003,
      "d": 596.0265000000072,
      "v": 100
    },
    {
      "midi": 67,
      "hit": false,
      "t": 205867.96251666965,
      "d": 298.01325000001816,
      "v": 80
    },
    {
      "midi": 38,
      "hit": false,
      "t": 206000.412850003,
      "d": 298.01325000001816,
      "v": 100
    },
    {
      "midi": 42,
      "hit": false,
      "t": 206000.412850003,
      "d": 397.3510000000242,
      "v": 100
    },
    {
      "midi": 66,
      "hit": false,
      "t": 206132.86318333633,
      "d": 66.2251666666707,
      "v": 82
    },
    {
      "midi": 36,
      "hit": false,
      "t": 206199.088350003,
      "d": 198.6755000000121,
      "v": 100
    },
    {
      "midi": 66,
      "hit": false,
      "t": 206199.088350003,
      "d": 231.78808333334746,
      "v": 100
    },
    {
      "midi": 61,
      "hit": false,
      "t": 206199.088350003,
      "d": 993.3775000000314,
      "v": 100
    },
    {
      "midi": 70,
      "hit": false,
      "t": 206199.088350003,
      "d": 993.3775000000314,
      "v": 100
    },
    {
      "midi": 37,
      "hit": false,
      "t": 206298.426100003,
      "d": 99.33775000000605,
      "v": 100
    },
    {
      "midi": 38,
      "hit": false,
      "t": 206397.76385000302,
      "d": 198.6755000000121,
      "v": 100
    },
    {
      "midi": 67,
      "hit": false,
      "t": 206397.76385000302,
      "d": 198.6755000000121,
      "v": 84
    },
    {
      "midi": 64,
      "hit": false,
      "t": 206596.43935000303,
      "d": 198.675499999983,
      "v": 85
    },
    {
      "midi": 42,
      "hit": false,
      "t": 206596.43935000303,
      "d": 198.675499999983,
      "v": 100
    },
    {
      "midi": 67,
      "hit": false,
      "t": 206695.77710000303,
      "d": 99.33774999997695,
      "v": 86
    },
    {
      "midi": 42,
      "hit": false,
      "t": 206795.114850003,
      "d": 198.6755000000121,
      "v": 100
    },
    {
      "midi": 66,
      "hit": false,
      "t": 206795.114850003,
      "d": 298.01325000001816,
      "v": 86
    },
    {
      "midi": 38,
      "hit": false,
      "t": 206795.114850003,
      "d": 397.3510000000242,
      "v": 100
    },
    {
      "midi": 64,
      "hit": false,
      "t": 206993.79035000302,
      "d": 198.6755000000121,
      "v": 87
    },
    {
      "midi": 45,
      "hit": false,
      "t": 206993.79035000302,
      "d": 198.6755000000121,
      "v": 100
    },
    {
      "midi": 36,
      "hit": false,
      "t": 207093.12810000303,
      "d": 99.33775000000605,
      "v": 100
    },
    {
      "midi": 43,
      "hit": false,
      "t": 207192.46585000303,
      "d": 198.6755000000121,
      "v": 100
    },
    {
      "midi": 64,
      "hit": false,
      "t": 207192.46585000303,
      "d": 397.3510000000242,
      "v": 89
    },
    {
      "midi": 38,
      "hit": false,
      "t": 207192.46585000303,
      "d": 397.3510000000242,
      "v": 100
    },
    {
      "midi": 42,
      "hit": false,
      "t": 207192.46585000303,
      "d": 397.3510000000242,
      "v": 100
    },
    {
      "midi": 66,
      "hit": false,
      "t": 207192.46585000303,
      "d": 993.3775000000605,
      "v": 100
    },
    {
      "midi": 71,
      "hit": false,
      "t": 207192.46585000303,
      "d": 993.3775000000605,
      "v": 100
    },
    {
      "midi": 36,
      "hit": false,
      "t": 207391.14135000305,
      "d": 198.6755000000121,
      "v": 100
    },
    {
      "midi": 43,
      "hit": false,
      "t": 207391.14135000305,
      "d": 198.6755000000121,
      "v": 100
    },
    {
      "midi": 62,
      "hit": false,
      "t": 207391.14135000305,
      "d": 397.3510000000242,
      "v": 90
    },
    {
      "midi": 43,
      "hit": false,
      "t": 207589.81685000306,
      "d": 198.6755000000121,
      "v": 100
    },
    {
      "midi": 42,
      "hit": false,
      "t": 207589.81685000306,
      "d": 397.3510000000242,
      "v": 100
    },
    {
      "midi": 38,
      "hit": false,
      "t": 207589.81685000306,
      "d": 397.3510000000242,
      "v": 100
    },
    {
      "midi": 61,
      "hit": false,
      "t": 207788.49235000307,
      "d": 198.6755000000121,
      "v": 92
    },
    {
      "midi": 43,
      "hit": false,
      "t": 207788.49235000307,
      "d": 198.6755000000121,
      "v": 100
    },
    {
      "midi": 36,
      "hit": false,
      "t": 207887.83010000308,
      "d": 99.33775000000605,
      "v": 100
    },
    {
      "midi": 43,
      "hit": false,
      "t": 207987.16785000308,
      "d": 198.6755000000121,
      "v": 100
    },
    {
      "midi": 42,
      "hit": false,
      "t": 207987.16785000308,
      "d": 397.3510000000242,
      "v": 100
    },
    {
      "midi": 38,
      "hit": false,
      "t": 207987.16785000308,
      "d": 397.3510000000242,
      "v": 100
    },
    {
      "midi": 61,
      "hit": false,
      "t": 207987.16785000308,
      "d": 397.3510000000242,
      "v": 92
    },
    {
      "midi": 36,
      "hit": false,
      "t": 208185.8433500031,
      "d": 198.6755000000121,
      "v": 100
    },
    {
      "midi": 45,
      "hit": false,
      "t": 208185.8433500031,
      "d": 198.6755000000121,
      "v": 100
    },
    {
      "midi": 62,
      "hit": false,
      "t": 208185.8433500031,
      "d": 496.68875000003027,
      "v": 92
    },
    {
      "midi": 71,
      "hit": false,
      "t": 208185.8433500031,
      "d": 596.0265000000363,
      "v": 100
    },
    {
      "midi": 47,
      "hit": false,
      "t": 208384.5188500031,
      "d": 198.6755000000121,
      "v": 100
    },
    {
      "midi": 38,
      "hit": false,
      "t": 208384.5188500031,
      "d": 397.3510000000242,
      "v": 100
    },
    {
      "midi": 48,
      "hit": false,
      "t": 208384.5188500031,
      "d": 397.3510000000242,
      "v": 100
    },
    {
      "midi": 36,
      "hit": false,
      "t": 208583.19435000312,
      "d": 198.6755000000121,
      "v": 100
    },
    {
      "midi": 66,
      "hit": false,
      "t": 208583.19435000312,
      "d": 198.6755000000121,
      "v": 92
    },
    {
      "midi": 43,
      "hit": false,
      "t": 208583.19435000312,
      "d": 198.6755000000121,
      "v": 100
    },
    {
      "midi": 66,
      "hit": false,
      "t": 208781.86985000313,
      "d": 99.33775000000605,
      "v": 76
    },
    {
      "midi": 55,
      "hit": false,
      "t": 208781.86985000313,
      "d": 298.01325000001816,
      "v": 76
    },
    {
      "midi": 62,
      "hit": false,
      "t": 208781.86985000313,
      "d": 298.01325000001816,
      "v": 76
    },
    {
      "midi": 59,
      "hit": false,
      "t": 208781.86985000313,
      "d": 298.01325000001816,
      "v": 76
    },
    {
      "midi": 67,
      "hit": false,
      "t": 208781.86985000313,
      "d": 298.01325000001816,
      "v": 92
    },
    {
      "midi": 38,
      "hit": false,
      "t": 208781.86985000313,
      "d": 397.3510000000242,
      "v": 100
    },
    {
      "midi": 40,
      "hit": false,
      "t": 208781.86985000313,
      "d": 397.3510000000242,
      "v": 100
    },
    {
      "midi": 57,
      "hit": false,
      "t": 208781.86985000313,
      "d": 397.3510000000242,
      "v": 100
    },
    {
      "midi": 36,
      "hit": false,
      "t": 208781.86985000313,
      "d": 397.3510000000242,
      "v": 100
    },
    {
      "midi": 71,
      "hit": false,
      "t": 208781.86985000313,
      "d": 1589.404000000126,
      "v": 100
    },
    {
      "midi": 66,
      "hit": false,
      "t": 208980.54535000314,
      "d": 99.33775000000605,
      "v": 92
    },
    {
      "midi": 66,
      "hit": false,
      "t": 209079.88310000315,
      "d": 99.33775000000605,
      "v": 77
    },
    {
      "midi": 55,
      "hit": false,
      "t": 209079.88310000315,
      "d": 99.33775000000605,
      "v": 77
    },
    {
      "midi": 62,
      "hit": false,
      "t": 209079.88310000315,
      "d": 99.33775000000605,
      "v": 77
    },
    {
      "midi": 59,
      "hit": false,
      "t": 209079.88310000315,
      "d": 99.33775000000605,
      "v": 77
    },
    {
      "midi": 66,
      "hit": false,
      "t": 209179.22085000316,
      "d": 99.33775000000605,
      "v": 78
    },
    {
      "midi": 64,
      "hit": false,
      "t": 209179.22085000316,
      "d": 298.01325000004726,
      "v": 91
    },
    {
      "midi": 40,
      "hit": false,
      "t": 209179.22085000316,
      "d": 298.01325000004726,
      "v": 100
    },
    {
      "midi": 42,
      "hit": false,
      "t": 209179.22085000316,
      "d": 397.3510000000242,
      "v": 100
    },
    {
      "midi": 59,
      "hit": false,
      "t": 209179.22085000316,
      "d": 1192.0530000001017,
      "v": 78
    },
    {
      "midi": 55,
      "hit": false,
      "t": 209179.22085000316,
      "d": 1192.0530000001017,
      "v": 78
    },
    {
      "midi": 66,
      "hit": false,
      "t": 209377.8963500032,
      "d": 596.0265000000072,
      "v": 91
    },
    {
      "midi": 38,
      "hit": false,
      "t": 209477.2341000032,
      "d": 99.33774999997695,
      "v": 100
    },
    {
      "midi": 40,
      "hit": false,
      "t": 209576.57185000318,
      "d": 198.6755000000121,
      "v": 100
    },
    {
      "midi": 38,
      "hit": false,
      "t": 209576.57185000318,
      "d": 397.3510000000242,
      "v": 100
    },
    {
      "midi": 42,
      "hit": false,
      "t": 209576.57185000318,
      "d": 397.3510000000242,
      "v": 100
    },
    {
      "midi": 36,
      "hit": false,
      "t": 209775.2473500032,
      "d": 198.6755000000121,
      "v": 100
    },
    {
      "midi": 64,
      "hit": false,
      "t": 209775.2473500032,
      "d": 198.6755000000121,
      "v": 91
    },
    {
      "midi": 43,
      "hit": false,
      "t": 209775.2473500032,
      "d": 397.3510000000533,
      "v": 100
    },
    {
      "midi": 64,
      "hit": false,
      "t": 209973.9228500032,
      "d": 99.33775000003516,
      "v": 91
    },
    {
      "midi": 38,
      "hit": false,
      "t": 209973.9228500032,
      "d": 397.3510000000533,
      "v": 100
    },
    {
      "midi": 42,
      "hit": false,
      "t": 209973.9228500032,
      "d": 397.3510000000533,
      "v": 100
    },
    {
      "midi": 66,
      "hit": false,
      "t": 210073.26060000324,
      "d": 99.33775000000605,
      "v": 91
    },
    {
      "midi": 64,
      "hit": false,
      "t": 210172.59835000325,
      "d": 99.33775000000605,
      "v": 91
    },
    {
      "midi": 40,
      "hit": false,
      "t": 210172.59835000325,
      "d": 198.6755000000121,
      "v": 100
    },
    {
      "midi": 36,
      "hit": false,
      "t": 210172.59835000325,
      "d": 198.6755000000121,
      "v": 100
    },
    {
      "midi": 62,
      "hit": false,
      "t": 210271.93610000325,
      "d": 99.33775000000605,
      "v": 91
    },
    {
      "midi": 62,
      "hit": false,
      "t": 210371.27385000326,
      "d": 99.33775000003516,
      "v": 91
    },
    {
      "midi": 42,
      "hit": false,
      "t": 210371.27385000326,
      "d": 198.6755000000412,
      "v": 100
    },
    {
      "midi": 38,
      "hit": false,
      "t": 210371.27385000326,
      "d": 397.3510000000533,
      "v": 100
    },
    {
      "midi": 36,
      "hit": false,
      "t": 210371.27385000326,
      "d": 397.3510000000533,
      "v": 100
    },
    {
      "midi": 71,
      "hit": false,
      "t": 210371.27385000326,
      "d": 596.0265000000654,
      "v": 100
    },
    {
      "midi": 66,
      "hit": false,
      "t": 210371.27385000326,
      "d": 596.0265000000654,
      "v": 100
    },
    {
      "midi": 67,
      "hit": false,
      "t": 210371.27385000326,
      "d": 596.0265000000654,
      "v": 100
    },
    {
      "midi": 64,
      "hit": false,
      "t": 210470.6116000033,
      "d": 99.33775000000605,
      "v": 91
    },
    {
      "midi": 62,
      "hit": false,
      "t": 210569.9493500033,
      "d": 99.33775000000605,
      "v": 90
    },
    {
      "midi": 49,
      "hit": false,
      "t": 210569.9493500033,
      "d": 397.3510000000242,
      "v": 100
    },
    {
      "midi": 61,
      "hit": false,
      "t": 210669.2871000033,
      "d": 99.33775000000605,
      "v": 90
    },
    {
      "midi": 61,
      "hit": false,
      "t": 210768.6248500033,
      "d": 198.6755000000121,
      "v": 90
    },
    {
      "midi": 42,
      "hit": false,
      "t": 210768.6248500033,
      "d": 397.3510000000242,
      "v": 100
    },
    {
      "midi": 38,
      "hit": false,
      "t": 210768.6248500033,
      "d": 397.3510000000242,
      "v": 100
    },
    {
      "midi": 47,
      "hit": false,
      "t": 210967.30035000332,
      "d": 397.3510000000242,
      "v": 100
    },
    {
      "midi": 61,
      "hit": false,
      "t": 210967.30035000332,
      "d": 596.0265000000363,
      "v": 90
    },
    {
      "midi": 69,
      "hit": false,
      "t": 210967.30035000332,
      "d": 993.3775000000605,
      "v": 100
    },
    {
      "midi": 38,
      "hit": false,
      "t": 211165.97585000333,
      "d": 298.01325000001816,
      "v": 100
    },
    {
      "midi": 42,
      "hit": false,
      "t": 211165.97585000333,
      "d": 298.01325000001816,
      "v": 100
    },
    {
      "midi": 45,
      "hit": false,
      "t": 211364.65135000335,
      "d": 198.6755000000121,
      "v": 100
    },
    {
      "midi": 62,
      "hit": false,
      "t": 211364.65135000335,
      "d": 596.0265000000363,
      "v": 90
    },
    {
      "midi": 38,
      "hit": false,
      "t": 211463.98910000335,
      "d": 99.33775000000605,
      "v": 100
    },
    {
      "midi": 38,
      "hit": false,
      "t": 211563.32685000336,
      "d": 198.6755000000121,
      "v": 100
    },
    {
      "midi": 45,
      "hit": false,
      "t": 211563.32685000336,
      "d": 198.6755000000121,
      "v": 100
    },
    {
      "midi": 36,
      "hit": false,
      "t": 211762.00235000337,
      "d": 198.6755000000121,
      "v": 100
    },
    {
      "midi": 45,
      "hit": false,
      "t": 211762.00235000337,
      "d": 198.6755000000121,
      "v": 100
    },
    {
      "midi": 64,
      "hit": false,
      "t": 211762.00235000337,
      "d": 198.6755000000121,
      "v": 90
    },
    {
      "midi": 42,
      "hit": false,
      "t": 211762.00235000337,
      "d": 198.6755000000121,
      "v": 100
    },
    {
      "midi": 47,
      "hit": false,
      "t": 211960.67785000338,
      "d": 397.3510000000242,
      "v": 100
    },
    {
      "midi": 42,
      "hit": false,
      "t": 211960.67785000338,
      "d": 397.3510000000242,
      "v": 100
    },
    {
      "midi": 69,
      "hit": false,
      "t": 211960.67785000338,
      "d": 596.0265000000363,
      "v": 100
    },
    {
      "midi": 64,
      "hit": false,
      "t": 211960.67785000338,
      "d": 596.0265000000363,
      "v": 89
    },
    {
      "midi": 62,
      "hit": false,
      "t": 211960.67785000338,
      "d": 596.0265000000363,
      "v": 100
    },
    {
      "midi": 36,
      "hit": false,
      "t": 212159.3533500034,
      "d": 198.6755000000121,
      "v": 100
    },
    {
      "midi": 45,
      "hit": false,
      "t": 212358.0288500034,
      "d": 198.6755000000121,
      "v": 100
    },
    {
      "midi": 38,
      "hit": false,
      "t": 212358.0288500034,
      "d": 298.01325000001816,
      "v": 100
    },
    {
      "midi": 42,
      "hit": false,
      "t": 212358.0288500034,
      "d": 298.01325000001816,
      "v": 100
    },
    {
      "midi": 47,
      "hit": false,
      "t": 212556.70435000342,
      "d": 397.3510000000242,
      "v": 100
    },
    {
      "midi": 66,
      "hit": false,
      "t": 212556.70435000342,
      "d": 695.3642500000424,
      "v": 89
    },
    {
      "midi": 62,
      "hit": false,
      "t": 212556.70435000342,
      "d": 993.3775000000605,
      "v": 100
    },
    {
      "midi": 69,
      "hit": false,
      "t": 212556.70435000342,
      "d": 993.3775000000605,
      "v": 100
    },
    {
      "midi": 38,
      "hit": false,
      "t": 212656.04210000343,
      "d": 99.33775000000605,
      "v": 100
    },
    {
      "midi": 38,
      "hit": false,
      "t": 212755.37985000343,
      "d": 198.6755000000121,
      "v": 100
    },
    {
      "midi": 57,
      "hit": false,
      "t": 212954.05535000344,
      "d": 198.6755000000121,
      "v": 100
    },
    {
      "midi": 45,
      "hit": false,
      "t": 212954.05535000344,
      "d": 198.6755000000121,
      "v": 100
    },
    {
      "midi": 36,
      "hit": false,
      "t": 212954.05535000344,
      "d": 198.6755000000121,
      "v": 100
    },
    {
      "midi": 47,
      "hit": false,
      "t": 213152.73085000346,
      "d": 198.6755000000121,
      "v": 100
    },
    {
      "midi": 75,
      "hit": false,
      "t": 213152.73085000346,
      "d": 198.6755000000121,
      "v": 89
    },
    {
      "midi": 76,
      "hit": false,
      "t": 213252.06860000346,
      "d": 198.6755000000121,
      "v": 89
    },
    {
      "midi": 57,
      "hit": false,
      "t": 213252.06860000346,
      "d": 298.01325000001816,
      "v": 100
    },
    {
      "midi": 36,
      "hit": false,
      "t": 213252.06860000346,
      "d": 298.01325000001816,
      "v": 100
    },
    {
      "midi": 45,
      "hit": false,
      "t": 213351.40635000347,
      "d": 198.6755000000121,
      "v": 100
    },
    {
      "midi": 78,
      "hit": false,
      "t": 213351.40635000347,
      "d": 198.6755000000121,
      "v": 92
    },
    {
      "midi": 43,
      "hit": false,
      "t": 213550.08185000348,
      "d": 198.6755000000121,
      "v": 100
    },
    {
      "midi": 78,
      "hit": false,
      "t": 213550.08185000348,
      "d": 298.01325000001816,
      "v": 92
    },
    {
      "midi": 57,
      "hit": false,
      "t": 213550.08185000348,
      "d": 298.01325000001816,
      "v": 100
    },
    {
      "midi": 36,
      "hit": false,
      "t": 213550.08185000348,
      "d": 397.3510000000242,
      "v": 100
    },
    {
      "midi": 71,
      "hit": false,
      "t": 213550.08185000348,
      "d": 596.0265000000363,
      "v": 100
    },
    {
      "midi": 63,
      "hit": false,
      "t": 213550.08185000348,
      "d": 596.0265000000363,
      "v": 100
    },
    {
      "midi": 74,
      "hit": false,
      "t": 213748.7573500035,
      "d": 198.6755000000121,
      "v": 92
    },
    {
      "midi": 43,
      "hit": false,
      "t": 213748.7573500035,
      "d": 198.6755000000121,
      "v": 100
    },
    {
      "midi": 38,
      "hit": false,
      "t": 213848.0951000035,
      "d": 99.33775000000605,
      "v": 100
    },
    {
      "midi": 38,
      "hit": false,
      "t": 213947.4328500035,
      "d": 198.6755000000121,
      "v": 100
    },
    {
      "midi": 43,
      "hit": false,
      "t": 213947.4328500035,
      "d": 198.6755000000121,
      "v": 100
    },
    {
      "midi": 74,
      "hit": false,
      "t": 213947.4328500035,
      "d": 298.01325000001816,
      "v": 92
    },
    {
      "midi": 43,
      "hit": false,
      "t": 214146.10835000352,
      "d": 198.6755000000121,
      "v": 100
    },
    {
      "midi": 38,
      "hit": false,
      "t": 214146.10835000352,
      "d": 198.6755000000121,
      "v": 100
    },
    {
      "midi": 71,
      "hit": false,
      "t": 214146.10835000352,
      "d": 496.68875000003027,
      "v": 92
    },
    {
      "midi": 64,
      "hit": false,
      "t": 214146.10835000352,
      "d": 596.0265000000363,
      "v": 100
    },
    {
      "midi": 38,
      "hit": false,
      "t": 214344.78385000353,
      "d": 99.33775000000605,
      "v": 100
    },
    {
      "midi": 43,
      "hit": false,
      "t": 214344.78385000353,
      "d": 198.6755000000121,
      "v": 100
    },
    {
      "midi": 38,
      "hit": false,
      "t": 214444.12160000353,
      "d": 99.33775000000605,
      "v": 100
    },
    {
      "midi": 45,
      "hit": false,
      "t": 214543.45935000354,
      "d": 198.6755000000121,
      "v": 100
    },
    {
      "midi": 38,
      "hit": false,
      "t": 214543.45935000354,
      "d": 198.6755000000121,
      "v": 100
    },
    {
      "midi": 66,
      "hit": false,
      "t": 214543.45935000354,
      "d": 198.6755000000121,
      "v": 91
    },
    {
      "midi": 47,
      "hit": false,
      "t": 214742.13485000355,
      "d": 198.6755000000121,
      "v": 100
    },
    {
      "midi": 66,
      "hit": false,
      "t": 214742.13485000355,
      "d": 298.01325000001816,
      "v": 91
    },
    {
      "midi": 71,
      "hit": false,
      "t": 214742.13485000355,
      "d": 397.3510000000242,
      "v": 100
    },
    {
      "midi": 38,
      "hit": false,
      "t": 214742.13485000355,
      "d": 397.3510000000242,
      "v": 100
    },
    {
      "midi": 43,
      "hit": false,
      "t": 214940.81035000356,
      "d": 198.6755000000121,
      "v": 100
    },
    {
      "midi": 36,
      "hit": false,
      "t": 214940.81035000356,
      "d": 198.6755000000121,
      "v": 100
    },
    {
      "midi": 69,
      "hit": false,
      "t": 214940.81035000356,
      "d": 298.01325000001816,
      "v": 91
    },
    {
      "midi": 66,
      "hit": false,
      "t": 215139.48585000358,
      "d": 298.01325000001816,
      "v": 76
    },
    {
      "midi": 55,
      "hit": false,
      "t": 215139.48585000358,
      "d": 298.01325000001816,
      "v": 76
    },
    {
      "midi": 62,
      "hit": false,
      "t": 215139.48585000358,
      "d": 298.01325000001816,
      "v": 76
    },
    {
      "midi": 59,
      "hit": false,
      "t": 215139.48585000358,
      "d": 298.01325000001816,
      "v": 76
    },
    {
      "midi": 38,
      "hit": false,
      "t": 215139.48585000358,
      "d": 397.3510000000242,
      "v": 100
    },
    {
      "midi": 36,
      "hit": false,
      "t": 215139.48585000358,
      "d": 397.3510000000242,
      "v": 100
    },
    {
      "midi": 40,
      "hit": false,
      "t": 215139.48585000358,
      "d": 397.3510000000242,
      "v": 100
    },
    {
      "midi": 57,
      "hit": false,
      "t": 215139.48585000358,
      "d": 397.3510000000242,
      "v": 100
    },
    {
      "midi": 67,
      "hit": false,
      "t": 215139.48585000358,
      "d": 794.7020000000193,
      "v": 91
    },
    {
      "midi": 71,
      "hit": false,
      "t": 215139.48585000358,
      "d": 794.7020000000193,
      "v": 100
    },
    {
      "midi": 66,
      "hit": false,
      "t": 215437.4991000036,
      "d": 99.33775000000605,
      "v": 77
    },
    {
      "midi": 55,
      "hit": false,
      "t": 215437.4991000036,
      "d": 99.33775000000605,
      "v": 77
    },
    {
      "midi": 62,
      "hit": false,
      "t": 215437.4991000036,
      "d": 99.33775000000605,
      "v": 77
    },
    {
      "midi": 59,
      "hit": false,
      "t": 215437.4991000036,
      "d": 99.33775000000605,
      "v": 77
    },
    {
      "midi": 40,
      "hit": false,
      "t": 215536.8368500036,
      "d": 298.01324999998906,
      "v": 100
    },
    {
      "midi": 66,
      "hit": false,
      "t": 215536.8368500036,
      "d": 397.3509999999951,
      "v": 78
    },
    {
      "midi": 42,
      "hit": false,
      "t": 215536.8368500036,
      "d": 397.3509999999951,
      "v": 100
    },
    {
      "midi": 62,
      "hit": false,
      "t": 215536.8368500036,
      "d": 397.3509999999951,
      "v": 78
    },
    {
      "midi": 55,
      "hit": false,
      "t": 215536.8368500036,
      "d": 1192.0530000000435,
      "v": 78
    },
    {
      "midi": 59,
      "hit": false,
      "t": 215536.8368500036,
      "d": 1192.0530000000435,
      "v": 78
    },
    {
      "midi": 38,
      "hit": false,
      "t": 215834.8501000036,
      "d": 99.33775000000605,
      "v": 100
    },
    {
      "midi": 40,
      "hit": false,
      "t": 215934.1878500036,
      "d": 198.6755000000121,
      "v": 100
    },
    {
      "midi": 67,
      "hit": false,
      "t": 215934.1878500036,
      "d": 198.6755000000121,
      "v": 100
    },
    {
      "midi": 62,
      "hit": false,
      "t": 215934.1878500036,
      "d": 298.01325000001816,
      "v": 100
    },
    {
      "midi": 66,
      "hit": false,
      "t": 215934.1878500036,
      "d": 298.01325000001816,
      "v": 100
    },
    {
      "midi": 71,
      "hit": false,
      "t": 215934.1878500036,
      "d": 298.01325000001816,
      "v": 100
    },
    {
      "midi": 42,
      "hit": false,
      "t": 215934.1878500036,
      "d": 397.3510000000242,
      "v": 100
    },
    {
      "midi": 38,
      "hit": false,
      "t": 215934.1878500036,
      "d": 397.3510000000242,
      "v": 100
    },
    {
      "midi": 36,
      "hit": false,
      "t": 216132.8633500036,
      "d": 198.6755000000121,
      "v": 100
    },
    {
      "midi": 76,
      "hit": false,
      "t": 216132.8633500036,
      "d": 198.6755000000121,
      "v": 73
    },
    {
      "midi": 43,
      "hit": false,
      "t": 216132.8633500036,
      "d": 397.3510000000242,
      "v": 100
    },
    {
      "midi": 62,
      "hit": false,
      "t": 216232.20110000361,
      "d": 99.33775000000605,
      "v": 100
    },
    {
      "midi": 71,
      "hit": false,
      "t": 216232.20110000361,
      "d": 99.33775000000605,
      "v": 100
    },
    {
      "midi": 66,
      "hit": false,
      "t": 216232.20110000361,
      "d": 99.33775000000605,
      "v": 100
    },
    {
      "midi": 67,
      "hit": false,
      "t": 216232.20110000361,
      "d": 99.33775000000605,
      "v": 100
    },
    {
      "midi": 76,
      "hit": false,
      "t": 216331.53885000362,
      "d": 298.01325000001816,
      "v": 76
    },
    {
      "midi": 42,
      "hit": false,
      "t": 216331.53885000362,
      "d": 397.3510000000242,
      "v": 100
    },
    {
      "midi": 38,
      "hit": false,
      "t": 216331.53885000362,
      "d": 397.3510000000242,
      "v": 100
    },
    {
      "midi": 40,
      "hit": false,
      "t": 216530.21435000363,
      "d": 198.6755000000121,
      "v": 100
    },
    {
      "midi": 62,
      "hit": false,
      "t": 216530.21435000363,
      "d": 198.6755000000121,
      "v": 100
    },
    {
      "midi": 36,
      "hit": false,
      "t": 216530.21435000363,
      "d": 198.6755000000121,
      "v": 100
    },
    {
      "midi": 74,
      "hit": false,
      "t": 216530.21435000363,
      "d": 198.6755000000121,
      "v": 78
    },
    {
      "midi": 66,
      "hit": false,
      "t": 216530.21435000363,
      "d": 198.6755000000121,
      "v": 100
    },
    {
      "midi": 67,
      "hit": false,
      "t": 216530.21435000363,
      "d": 596.0265000000363,
      "v": 100
    },
    {
      "midi": 71,
      "hit": false,
      "t": 216530.21435000363,
      "d": 596.0265000000363,
      "v": 100
    },
    {
      "midi": 42,
      "hit": false,
      "t": 216728.88985000364,
      "d": 198.6755000000121,
      "v": 100
    },
    {
      "midi": 38,
      "hit": false,
      "t": 216728.88985000364,
      "d": 397.3510000000242,
      "v": 100
    },
    {
      "midi": 74,
      "hit": false,
      "t": 216728.88985000364,
      "d": 397.3510000000242,
      "v": 79
    },
    {
      "midi": 36,
      "hit": false,
      "t": 216728.88985000364,
      "d": 397.3510000000242,
      "v": 100
    },
    {
      "midi": 45,
      "hit": false,
      "t": 216927.56535000366,
      "d": 198.6755000000121,
      "v": 100
    },
    {
      "midi": 73,
      "hit": false,
      "t": 217026.90310000366,
      "d": 397.3510000000242,
      "v": 80
    },
    {
      "midi": 47,
      "hit": false,
      "t": 217126.24085000367,
      "d": 198.6755000000121,
      "v": 100
    },
    {
      "midi": 42,
      "hit": false,
      "t": 217126.24085000367,
      "d": 397.3510000000242,
      "v": 100
    },
    {
      "midi": 38,
      "hit": false,
      "t": 217126.24085000367,
      "d": 397.3510000000242,
      "v": 100
    },
    {
      "midi": 64,
      "hit": false,
      "t": 217126.24085000367,
      "d": 1192.0530000000726,
      "v": 100
    },
    {
      "midi": 61,
      "hit": false,
      "t": 217126.24085000367,
      "d": 1192.0530000000726,
      "v": 100
    },
    {
      "midi": 45,
      "hit": false,
      "t": 217324.91635000368,
      "d": 198.6755000000121,
      "v": 100
    },
    {
      "midi": 69,
      "hit": false,
      "t": 217324.91635000368,
      "d": 596.0265000000363,
      "v": 81
    },
    {
      "midi": 49,
      "hit": false,
      "t": 217523.5918500037,
      "d": 198.6755000000121,
      "v": 100
    },
    {
      "midi": 38,
      "hit": false,
      "t": 217523.5918500037,
      "d": 397.3510000000242,
      "v": 100
    },
    {
      "midi": 42,
      "hit": false,
      "t": 217523.5918500037,
      "d": 397.3510000000242,
      "v": 100
    },
    {
      "midi": 36,
      "hit": false,
      "t": 217722.2673500037,
      "d": 198.6755000000121,
      "v": 100
    },
    {
      "midi": 47,
      "hit": false,
      "t": 217722.2673500037,
      "d": 198.6755000000121,
      "v": 100
    },
    {
      "midi": 76,
      "hit": false,
      "t": 217722.2673500037,
      "d": 496.68875000003027,
      "v": 83
    },
    {
      "midi": 45,
      "hit": false,
      "t": 217920.94285000372,
      "d": 198.6755000000121,
      "v": 100
    },
    {
      "midi": 42,
      "hit": false,
      "t": 217920.94285000372,
      "d": 397.3510000000242,
      "v": 100
    },
    {
      "midi": 38,
      "hit": false,
      "t": 217920.94285000372,
      "d": 397.3510000000242,
      "v": 100
    },
    {
      "midi": 74,
      "hit": false,
      "t": 218119.61835000373,
      "d": 198.6755000000121,
      "v": 84
    },
    {
      "midi": 47,
      "hit": false,
      "t": 218119.61835000373,
      "d": 198.6755000000121,
      "v": 100
    },
    {
      "midi": 36,
      "hit": false,
      "t": 218119.61835000373,
      "d": 198.6755000000121,
      "v": 100
    },
    {
      "midi": 74,
      "hit": false,
      "t": 218318.29385000374,
      "d": 198.6755000000121,
      "v": 85
    },
    {
      "midi": 42,
      "hit": false,
      "t": 218318.29385000374,
      "d": 397.3509999999078,
      "v": 100
    },
    {
      "midi": 38,
      "hit": false,
      "t": 218318.29385000374,
      "d": 397.3509999999078,
      "v": 100
    },
    {
      "midi": 70,
      "hit": false,
      "t": 218318.29385000374,
      "d": 993.3774999997986,
      "v": 100
    },
    {
      "midi": 66,
      "hit": false,
      "t": 218318.29385000374,
      "d": 993.3774999997986,
      "v": 100
    },
    {
      "midi": 61,
      "hit": false,
      "t": 218318.29385000374,
      "d": 993.3774999997986,
      "v": 100
    },
    {
      "midi": 73,
      "hit": false,
      "t": 218516.96935000375,
      "d": 66.2251666666416,
      "v": 86
    },
    {
      "midi": 74,
      "hit": false,
      "t": 218583.1945166704,
      "d": 66.2251666666416,
      "v": 86
    },
    {
      "midi": 36,
      "hit": false,
      "t": 218616.3071000037,
      "d": 99.33774999994785,
      "v": 100
    },
    {
      "midi": 73,
      "hit": false,
      "t": 218649.41968333704,
      "d": 66.2251666666125,
      "v": 87
    },
    {
      "midi": 71,
      "hit": false,
      "t": 218715.64485000365,
      "d": 298.01325000001816,
      "v": 87
    },
    {
      "midi": 38,
      "hit": false,
      "t": 218715.64485000365,
      "d": 298.01325000001816,
      "v": 100
    },
    {
      "midi": 42,
      "hit": false,
      "t": 218715.64485000365,
      "d": 397.3510000000242,
      "v": 100
    },
    {
      "midi": 76,
      "hit": false,
      "t": 218914.32035000366,
      "d": 198.6755000000121,
      "v": 88
    },
    {
      "midi": 36,
      "hit": false,
      "t": 218914.32035000366,
      "d": 198.6755000000121,
      "v": 100
    },
    {
      "midi": 37,
      "hit": false,
      "t": 219013.65810000367,
      "d": 99.33775000000605,
      "v": 100
    },
    {
      "midi": 74,
      "hit": false,
      "t": 219112.99585000367,
      "d": 66.22516666655429,
      "v": 88
    },
    {
      "midi": 38,
      "hit": false,
      "t": 219112.99585000367,
      "d": 198.6754999998666,
      "v": 100
    },
    {
      "midi": 76,
      "hit": false,
      "t": 219179.22101667023,
      "d": 66.2251666666416,
      "v": 89
    },
    {
      "midi": 74,
      "hit": false,
      "t": 219245.44618333687,
      "d": 66.2251666666707,
      "v": 89
    },
    {
      "midi": 42,
      "hit": false,
      "t": 219311.67135000354,
      "d": 198.6755000000121,
      "v": 100
    },
    {
      "midi": 73,
      "hit": false,
      "t": 219311.67135000354,
      "d": 298.01325000001816,
      "v": 89
    },
    {
      "midi": 66,
      "hit": false,
      "t": 219311.67135000354,
      "d": 596.0265000000363,
      "v": 100
    },
    {
      "midi": 70,
      "hit": false,
      "t": 219311.67135000354,
      "d": 596.0265000000363,
      "v": 100
    },
    {
      "midi": 61,
      "hit": false,
      "t": 219311.67135000354,
      "d": 596.0265000000363,
      "v": 100
    },
    {
      "midi": 36,
      "hit": false,
      "t": 219411.00910000355,
      "d": 99.33775000000605,
      "v": 100
    },
    {
      "midi": 42,
      "hit": false,
      "t": 219510.34685000355,
      "d": 198.6755000000121,
      "v": 100
    },
    {
      "midi": 74,
      "hit": false,
      "t": 219510.34685000355,
      "d": 298.01325000001816,
      "v": 90
    },
    {
      "midi": 38,
      "hit": false,
      "t": 219510.34685000355,
      "d": 298.01325000001816,
      "v": 100
    },
    {
      "midi": 45,
      "hit": false,
      "t": 219709.02235000356,
      "d": 198.6755000000121,
      "v": 100
    },
    {
      "midi": 76,
      "hit": false,
      "t": 219709.02235000356,
      "d": 198.6755000000121,
      "v": 91
    },
    {
      "midi": 38,
      "hit": false,
      "t": 219808.36010000357,
      "d": 99.33775000000605,
      "v": 100
    },
    {
      "midi": 38,
      "hit": false,
      "t": 219907.69785000358,
      "d": 198.6755000000121,
      "v": 100
    },
    {
      "midi": 43,
      "hit": false,
      "t": 219907.69785000358,
      "d": 198.6755000000121,
      "v": 100
    },
    {
      "midi": 78,
      "hit": false,
      "t": 219907.69785000358,
      "d": 198.6755000000121,
      "v": 92
    },
    {
      "midi": 62,
      "hit": false,
      "t": 219907.69785000358,
      "d": 596.0265000000363,
      "v": 100
    },
    {
      "midi": 66,
      "hit": false,
      "t": 219907.69785000358,
      "d": 596.0265000000363,
      "v": 100
    },
    {
      "midi": 73,
      "hit": false,
      "t": 219907.69785000358,
      "d": 596.0265000000363,
      "v": 100
    },
    {
      "midi": 48,
      "hit": false,
      "t": 220106.3733500036,
      "d": 198.6755000000121,
      "v": 100
    },
    {
      "midi": 43,
      "hit": false,
      "t": 220106.3733500036,
      "d": 198.6755000000121,
      "v": 100
    },
    {
      "midi": 76,
      "hit": false,
      "t": 220106.3733500036,
      "d": 496.68875000003027,
      "v": 93
    },
    {
      "midi": 43,
      "hit": false,
      "t": 220305.0488500036,
      "d": 198.6755000000121,
      "v": 100
    },
    {
      "midi": 48,
      "hit": false,
      "t": 220404.3866000036,
      "d": 298.01325000001816,
      "v": 100
    },
    {
      "midi": 43,
      "hit": false,
      "t": 220503.7243500036,
      "d": 198.6755000000121,
      "v": 100
    },
    {
      "midi": 78,
      "hit": false,
      "t": 220503.7243500036,
      "d": 298.01325000001816,
      "v": 94
    },
    {
      "midi": 62,
      "hit": false,
      "t": 220503.7243500036,
      "d": 993.3775000000605,
      "v": 100
    },
    {
      "midi": 66,
      "hit": false,
      "t": 220503.7243500036,
      "d": 993.3775000000605,
      "v": 100
    },
    {
      "midi": 73,
      "hit": false,
      "t": 220503.7243500036,
      "d": 993.3775000000605,
      "v": 100
    },
    {
      "midi": 43,
      "hit": false,
      "t": 220702.39985000363,
      "d": 198.6755000000121,
      "v": 100
    },
    {
      "midi": 79,
      "hit": false,
      "t": 220702.39985000363,
      "d": 298.01325000001816,
      "v": 95
    },
    {
      "midi": 48,
      "hit": false,
      "t": 220702.39985000363,
      "d": 298.01325000001816,
      "v": 100
    },
    {
      "midi": 45,
      "hit": false,
      "t": 220901.07535000364,
      "d": 198.6755000000121,
      "v": 100
    },
    {
      "midi": 78,
      "hit": false,
      "t": 220901.07535000364,
      "d": 298.01325000001816,
      "v": 96
    },
    {
      "midi": 38,
      "hit": false,
      "t": 221000.41310000364,
      "d": 99.33775000000605,
      "v": 100
    },
    {
      "midi": 47,
      "hit": false,
      "t": 221099.75085000365,
      "d": 198.6755000000121,
      "v": 100
    },
    {
      "midi": 79,
      "hit": false,
      "t": 221099.75085000365,
      "d": 298.01325000001816,
      "v": 97
    },
    {
      "midi": 38,
      "hit": false,
      "t": 221099.75085000365,
      "d": 397.3510000000242,
      "v": 100
    },
    {
      "midi": 43,
      "hit": false,
      "t": 221298.42635000366,
      "d": 198.6755000000121,
      "v": 100
    },
    {
      "midi": 81,
      "hit": false,
      "t": 221298.42635000366,
      "d": 198.6755000000121,
      "v": 95
    },
    {
      "midi": 36,
      "hit": false,
      "t": 221298.42635000366,
      "d": 198.6755000000121,
      "v": 100
    },
    {
      "midi": 66,
      "hit": false,
      "t": 221497.10185000367,
      "d": 298.01324999998906,
      "v": 79
    },
    {
      "midi": 62,
      "hit": false,
      "t": 221497.10185000367,
      "d": 298.01324999998906,
      "v": 79
    },
    {
      "midi": 55,
      "hit": false,
      "t": 221497.10185000367,
      "d": 298.01324999998906,
      "v": 79
    },
    {
      "midi": 59,
      "hit": false,
      "t": 221497.10185000367,
      "d": 298.01324999998906,
      "v": 79
    },
    {
      "midi": 38,
      "hit": false,
      "t": 221497.10185000367,
      "d": 397.3509999999951,
      "v": 100
    },
    {
      "midi": 57,
      "hit": false,
      "t": 221497.10185000367,
      "d": 397.3509999999951,
      "v": 100
    },
    {
      "midi": 36,
      "hit": false,
      "t": 221497.10185000367,
      "d": 397.3509999999951,
      "v": 100
    },
    {
      "midi": 40,
      "hit": false,
      "t": 221497.10185000367,
      "d": 397.3509999999951,
      "v": 100
    },
    {
      "midi": 81,
      "hit": false,
      "t": 221497.10185000367,
      "d": 894.0397499999963,
      "v": 93
    },
    {
      "midi": 67,
      "hit": false,
      "t": 221497.10185000367,
      "d": 1589.4040000000386,
      "v": 100
    },
    {
      "midi": 71,
      "hit": false,
      "t": 221497.10185000367,
      "d": 1589.4040000000386,
      "v": 100
    },
    {
      "midi": 66,
      "hit": false,
      "t": 221795.11510000366,
      "d": 99.33775000000605,
      "v": 79
    },
    {
      "midi": 55,
      "hit": false,
      "t": 221795.11510000366,
      "d": 99.33775000000605,
      "v": 79
    },
    {
      "midi": 62,
      "hit": false,
      "t": 221795.11510000366,
      "d": 99.33775000000605,
      "v": 79
    },
    {
      "midi": 59,
      "hit": false,
      "t": 221795.11510000366,
      "d": 99.33775000000605,
      "v": 79
    },
    {
      "midi": 40,
      "hit": false,
      "t": 221894.45285000367,
      "d": 298.01324999998906,
      "v": 100
    },
    {
      "midi": 42,
      "hit": false,
      "t": 221894.45285000367,
      "d": 397.3509999999951,
      "v": 100
    },
    {
      "midi": 66,
      "hit": false,
      "t": 221894.45285000367,
      "d": 1192.0530000000435,
      "v": 79
    },
    {
      "midi": 62,
      "hit": false,
      "t": 221894.45285000367,
      "d": 1192.0530000000435,
      "v": 79
    },
    {
      "midi": 55,
      "hit": false,
      "t": 221894.45285000367,
      "d": 1192.0530000000435,
      "v": 79
    },
    {
      "midi": 59,
      "hit": false,
      "t": 221894.45285000367,
      "d": 1192.0530000000435,
      "v": 79
    },
    {
      "midi": 38,
      "hit": false,
      "t": 222192.46610000366,
      "d": 99.33775000000605,
      "v": 100
    },
    {
      "midi": 40,
      "hit": false,
      "t": 222291.80385000366,
      "d": 198.6755000000121,
      "v": 100
    },
    {
      "midi": 42,
      "hit": false,
      "t": 222291.80385000366,
      "d": 397.3510000000242,
      "v": 100
    },
    {
      "midi": 38,
      "hit": false,
      "t": 222291.80385000366,
      "d": 397.3510000000242,
      "v": 100
    },
    {
      "midi": 36,
      "hit": false,
      "t": 222490.47935000368,
      "d": 198.6755000000121,
      "v": 100
    },
    {
      "midi": 43,
      "hit": false,
      "t": 222490.47935000368,
      "d": 397.3510000000242,
      "v": 100
    },
    {
      "midi": 83,
      "hit": false,
      "t": 222490.47935000368,
      "d": 596.0265000000363,
      "v": 91
    },
    {
      "midi": 38,
      "hit": false,
      "t": 222689.1548500037,
      "d": 397.3510000000242,
      "v": 100
    },
    {
      "midi": 42,
      "hit": false,
      "t": 222689.1548500037,
      "d": 397.3510000000242,
      "v": 100
    },
    {
      "midi": 36,
      "hit": false,
      "t": 222887.8303500037,
      "d": 198.6755000000121,
      "v": 100
    },
    {
      "midi": 40,
      "hit": false,
      "t": 222887.8303500037,
      "d": 198.6755000000121,
      "v": 100
    },
    {
      "midi": 42,
      "hit": false,
      "t": 223086.5058500037,
      "d": 198.6755000000121,
      "v": 100
    },
    {
      "midi": 83,
      "hit": false,
      "t": 223086.5058500037,
      "d": 264.9006666666828,
      "v": 91
    },
    {
      "midi": 36,
      "hit": false,
      "t": 223086.5058500037,
      "d": 397.3510000000242,
      "v": 100
    },
    {
      "midi": 38,
      "hit": false,
      "t": 223086.5058500037,
      "d": 397.3510000000242,
      "v": 100
    },
    {
      "midi": 71,
      "hit": false,
      "t": 223086.5058500037,
      "d": 596.0265000000363,
      "v": 100
    },
    {
      "midi": 61,
      "hit": false,
      "t": 223086.5058500037,
      "d": 596.0265000000363,
      "v": 100
    },
    {
      "midi": 64,
      "hit": false,
      "t": 223086.5058500037,
      "d": 596.0265000000363,
      "v": 100
    },
    {
      "midi": 49,
      "hit": false,
      "t": 223285.18135000372,
      "d": 397.3510000000242,
      "v": 100
    },
    {
      "midi": 83,
      "hit": false,
      "t": 223351.4065166704,
      "d": 397.3510000000242,
      "v": 91
    },
    {
      "midi": 38,
      "hit": false,
      "t": 223483.85685000374,
      "d": 397.3510000000242,
      "v": 100
    },
    {
      "midi": 42,
      "hit": false,
      "t": 223483.85685000374,
      "d": 397.3510000000242,
      "v": 100
    },
    {
      "midi": 81,
      "hit": false,
      "t": 223616.30718333708,
      "d": 397.3510000000242,
      "v": 91
    },
    {
      "midi": 47,
      "hit": false,
      "t": 223682.53235000375,
      "d": 397.3510000000242,
      "v": 100
    },
    {
      "midi": 61,
      "hit": false,
      "t": 223682.53235000375,
      "d": 993.3775000000605,
      "v": 100
    },
    {
      "midi": 64,
      "hit": false,
      "t": 223682.53235000375,
      "d": 993.3775000000605,
      "v": 100
    },
    {
      "midi": 71,
      "hit": false,
      "t": 223682.53235000375,
      "d": 993.3775000000605,
      "v": 100
    },
    {
      "midi": 38,
      "hit": false,
      "t": 223881.20785000376,
      "d": 397.3510000000242,
      "v": 100
    },
    {
      "midi": 42,
      "hit": false,
      "t": 223881.20785000376,
      "d": 397.3510000000242,
      "v": 100
    },
    {
      "midi": 79,
      "hit": false,
      "t": 223881.20785000376,
      "d": 397.3510000000242,
      "v": 91
    },
    {
      "midi": 36,
      "hit": false,
      "t": 224079.88335000377,
      "d": 198.6755000000121,
      "v": 100
    },
    {
      "midi": 45,
      "hit": false,
      "t": 224079.88335000377,
      "d": 198.6755000000121,
      "v": 100
    },
    {
      "midi": 78,
      "hit": false,
      "t": 224146.10851667044,
      "d": 397.3510000000242,
      "v": 91
    },
    {
      "midi": 38,
      "hit": false,
      "t": 224278.55885000378,
      "d": 298.01325000001816,
      "v": 100
    },
    {
      "midi": 45,
      "hit": false,
      "t": 224278.55885000378,
      "d": 397.3510000000242,
      "v": 100
    },
    {
      "midi": 36,
      "hit": false,
      "t": 224278.55885000378,
      "d": 397.3510000000242,
      "v": 100
    },
    {
      "midi": 74,
      "hit": false,
      "t": 224411.00918333713,
      "d": 264.9006666666828,
      "v": 91
    },
    {
      "midi": 38,
      "hit": false,
      "t": 224576.5721000038,
      "d": 99.33775000000605,
      "v": 100
    },
    {
      "midi": 38,
      "hit": false,
      "t": 224675.9098500038,
      "d": 198.6755000000121,
      "v": 100
    },
    {
      "midi": 47,
      "hit": false,
      "t": 224675.9098500038,
      "d": 397.3510000000242,
      "v": 100
    },
    {
      "midi": 64,
      "hit": false,
      "t": 224675.9098500038,
      "d": 596.0265000000363,
      "v": 100
    },
    {
      "midi": 69,
      "hit": false,
      "t": 224675.9098500038,
      "d": 596.0265000000363,
      "v": 100
    },
    {
      "midi": 62,
      "hit": false,
      "t": 224675.9098500038,
      "d": 596.0265000000363,
      "v": 100
    },
    {
      "midi": 74,
      "hit": false,
      "t": 224675.9098500038,
      "d": 1192.0530000000726,
      "v": 91
    },
    {
      "midi": 57,
      "hit": false,
      "t": 224874.58535000382,
      "d": 198.6755000000121,
      "v": 100
    },
    {
      "midi": 36,
      "hit": false,
      "t": 224874.58535000382,
      "d": 198.6755000000121,
      "v": 100
    },
    {
      "midi": 45,
      "hit": false,
      "t": 225073.26085000383,
      "d": 198.6755000000121,
      "v": 100
    },
    {
      "midi": 36,
      "hit": false,
      "t": 225271.93635000385,
      "d": 198.6755000000121,
      "v": 100
    },
    {
      "midi": 47,
      "hit": false,
      "t": 225271.93635000385,
      "d": 397.3510000000242,
      "v": 100
    },
    {
      "midi": 62,
      "hit": false,
      "t": 225271.93635000385,
      "d": 596.0265000000363,
      "v": 100
    },
    {
      "midi": 66,
      "hit": false,
      "t": 225271.93635000385,
      "d": 596.0265000000363,
      "v": 100
    },
    {
      "midi": 69,
      "hit": false,
      "t": 225271.93635000385,
      "d": 596.0265000000363,
      "v": 100
    },
    {
      "midi": 38,
      "hit": false,
      "t": 225470.61185000386,
      "d": 298.01325000001816,
      "v": 100
    },
    {
      "midi": 45,
      "hit": false,
      "t": 225669.28735000387,
      "d": 198.6755000000121,
      "v": 100
    },
    {
      "midi": 38,
      "hit": false,
      "t": 225768.62510000388,
      "d": 99.33775000000605,
      "v": 100
    },
    {
      "midi": 38,
      "hit": false,
      "t": 225867.96285000388,
      "d": 198.6755000000121,
      "v": 100
    },
    {
      "midi": 47,
      "hit": false,
      "t": 225867.96285000388,
      "d": 198.6755000000121,
      "v": 100
    },
    {
      "midi": 81,
      "hit": false,
      "t": 225867.96285000388,
      "d": 397.3510000000242,
      "v": 100
    },
    {
      "midi": 76,
      "hit": false,
      "t": 225867.96285000388,
      "d": 596.0265000000363,
      "v": 100
    },
    {
      "midi": 36,
      "hit": false,
      "t": 226066.6383500039,
      "d": 198.6755000000121,
      "v": 100
    },
    {
      "midi": 57,
      "hit": false,
      "t": 226066.6383500039,
      "d": 198.6755000000121,
      "v": 100
    },
    {
      "midi": 45,
      "hit": false,
      "t": 226066.6383500039,
      "d": 198.6755000000121,
      "v": 100
    },
    {
      "midi": 74,
      "hit": false,
      "t": 226066.6383500039,
      "d": 397.3510000000242,
      "v": 100
    },
    {
      "midi": 74,
      "hit": false,
      "t": 226463.98935000392,
      "d": 894.0397500000545,
      "v": 100
    },
    {
      "midi": 81,
      "hit": false,
      "t": 226463.98935000392,
      "d": 1390.7285000000848,
      "v": 100
    },
    {
      "midi": 78,
      "hit": false,
      "t": 226463.98935000392,
      "d": 1390.7285000000848,
      "v": 100
    },
    {
      "midi": 38,
      "hit": false,
      "t": 226662.66485000393,
      "d": 198.6755000000121,
      "v": 100
    },
    {
      "midi": 42,
      "hit": false,
      "t": 226662.66485000393,
      "d": 198.6755000000121,
      "v": 100
    },
    {
      "midi": 38,
      "hit": false,
      "t": 226861.34035000394,
      "d": 198.6755000000121,
      "v": 100
    },
    {
      "midi": 42,
      "hit": false,
      "t": 226861.34035000394,
      "d": 198.6755000000121,
      "v": 100
    },
    {
      "midi": 48,
      "hit": false,
      "t": 227060.01585000395,
      "d": 99.33775000000605,
      "v": 100
    },
    {
      "midi": 48,
      "hit": false,
      "t": 227159.35360000396,
      "d": 99.33775000000605,
      "v": 100
    },
    {
      "midi": 48,
      "hit": false,
      "t": 227258.69135000397,
      "d": 99.33775000000605,
      "v": 100
    },
    {
      "midi": 47,
      "hit": false,
      "t": 227358.02910000397,
      "d": 99.33775000000605,
      "v": 100
    },
    {
      "midi": 47,
      "hit": false,
      "t": 227457.36685000398,
      "d": 99.33775000000605,
      "v": 100
    },
    {
      "midi": 47,
      "hit": false,
      "t": 227556.70460000398,
      "d": 99.33775000000605,
      "v": 100
    },
    {
      "midi": 38,
      "hit": false,
      "t": 227656.042350004,
      "d": 99.33775000000605,
      "v": 100
    },
    {
      "midi": 38,
      "hit": false,
      "t": 227755.380100004,
      "d": 99.33775000000605,
      "v": 100
    },
    {
      "midi": 36,
      "hit": false,
      "t": 227854.717850004,
      "d": 397.3509999999951,
      "v": 100
    },
    {
      "midi": 78,
      "hit": false,
      "t": 227854.717850004,
      "d": 397.3509999999951,
      "v": 100
    },
    {
      "midi": 40,
      "hit": false,
      "t": 227854.717850004,
      "d": 1192.0530000000144,
      "v": 100
    },
    {
      "midi": 57,
      "hit": false,
      "t": 227854.717850004,
      "d": 1192.0530000000144,
      "v": 100
    },
    {
      "midi": 50,
      "hit": false,
      "t": 227854.717850004,
      "d": 1589.4040000000386,
      "v": 100
    },
    {
      "midi": 67,
      "hit": false,
      "t": 227854.717850004,
      "d": 1589.4040000000386,
      "v": 100
    },
    {
      "midi": 55,
      "hit": false,
      "t": 227854.717850004,
      "d": 1589.4040000000386,
      "v": 100
    },
    {
      "midi": 59,
      "hit": false,
      "t": 227854.717850004,
      "d": 1589.4040000000386,
      "v": 100
    },
    {
      "midi": 62,
      "hit": false,
      "t": 227854.717850004,
      "d": 1589.4040000000386,
      "v": 100
    },
    {
      "midi": 43,
      "hit": false,
      "t": 227854.717850004,
      "d": 1589.4040000000386,
      "v": 100
    },
    {
      "midi": 78,
      "hit": false,
      "t": 228252.068850004,
      "d": 397.3509999999951,
      "v": 100
    },
    {
      "midi": 78,
      "hit": false,
      "t": 228649.419850004,
      "d": 198.6755000000121,
      "v": 100
    },
    {
      "midi": 76,
      "hit": false,
      "t": 228848.095350004,
      "d": 198.6755000000121,
      "v": 100
    },
    {
      "midi": 78,
      "hit": false,
      "t": 229046.77085000402,
      "d": 198.6755000000121,
      "v": 100
    },
    {
      "midi": 42,
      "hit": false,
      "t": 229046.77085000402,
      "d": 397.3510000000242,
      "v": 100
    },
    {
      "midi": 49,
      "hit": false,
      "t": 229046.77085000402,
      "d": 397.3510000000242,
      "v": 100
    },
    {
      "midi": 76,
      "hit": false,
      "t": 229245.44635000403,
      "d": 198.6755000000121,
      "v": 100
    },
    {
      "midi": 78,
      "hit": false,
      "t": 229444.12185000404,
      "d": 198.6755000000121,
      "v": 100
    },
    {
      "midi": 57,
      "hit": false,
      "t": 229444.12185000404,
      "d": 397.3510000000242,
      "v": 100
    },
    {
      "midi": 42,
      "hit": false,
      "t": 229444.12185000404,
      "d": 397.3510000000242,
      "v": 100
    },
    {
      "midi": 52,
      "hit": false,
      "t": 229444.12185000404,
      "d": 397.3510000000242,
      "v": 100
    },
    {
      "midi": 45,
      "hit": false,
      "t": 229444.12185000404,
      "d": 397.3510000000242,
      "v": 100
    },
    {
      "midi": 36,
      "hit": false,
      "t": 229444.12185000404,
      "d": 397.3510000000242,
      "v": 100
    },
    {
      "midi": 64,
      "hit": false,
      "t": 229444.12185000404,
      "d": 596.0265000000363,
      "v": 100
    },
    {
      "midi": 69,
      "hit": false,
      "t": 229444.12185000404,
      "d": 596.0265000000363,
      "v": 100
    },
    {
      "midi": 61,
      "hit": false,
      "t": 229444.12185000404,
      "d": 596.0265000000363,
      "v": 100
    },
    {
      "midi": 78,
      "hit": false,
      "t": 229642.79735000405,
      "d": 397.3510000000242,
      "v": 100
    },
    {
      "midi": 55,
      "hit": false,
      "t": 229841.47285000407,
      "d": 198.6755000000121,
      "v": 100
    },
    {
      "midi": 37,
      "hit": false,
      "t": 229841.47285000407,
      "d": 198.6755000000121,
      "v": 100
    },
    {
      "midi": 36,
      "hit": false,
      "t": 230040.14835000408,
      "d": 198.6755000000121,
      "v": 100
    },
    {
      "midi": 57,
      "hit": false,
      "t": 230040.14835000408,
      "d": 198.6755000000121,
      "v": 100
    },
    {
      "midi": 42,
      "hit": false,
      "t": 230040.14835000408,
      "d": 596.0265000000363,
      "v": 100
    },
    {
      "midi": 64,
      "hit": false,
      "t": 230040.14835000408,
      "d": 993.3775000000314,
      "v": 100
    },
    {
      "midi": 69,
      "hit": false,
      "t": 230040.14835000408,
      "d": 993.3775000000314,
      "v": 100
    },
    {
      "midi": 52,
      "hit": false,
      "t": 230040.14835000408,
      "d": 993.3775000000314,
      "v": 100
    },
    {
      "midi": 61,
      "hit": false,
      "t": 230040.14835000408,
      "d": 993.3775000000314,
      "v": 100
    },
    {
      "midi": 76,
      "hit": false,
      "t": 230040.14835000408,
      "d": 993.3775000000314,
      "v": 100
    },
    {
      "midi": 45,
      "hit": false,
      "t": 230040.14835000408,
      "d": 993.3775000000314,
      "v": 100
    },
    {
      "midi": 36,
      "hit": false,
      "t": 230437.4993500041,
      "d": 198.6755000000121,
      "v": 100
    },
    {
      "midi": 38,
      "hit": false,
      "t": 230636.1748500041,
      "d": 397.3509999999951,
      "v": 100
    },
    {
      "midi": 50,
      "hit": false,
      "t": 230636.1748500041,
      "d": 397.3509999999951,
      "v": 100
    },
    {
      "midi": 42,
      "hit": false,
      "t": 230636.1748500041,
      "d": 397.3509999999951,
      "v": 100
    },
    {
      "midi": 36,
      "hit": false,
      "t": 231033.5258500041,
      "d": 397.3509999999951,
      "v": 100
    },
    {
      "midi": 73,
      "hit": false,
      "t": 231033.5258500041,
      "d": 794.7019999999902,
      "v": 100
    },
    {
      "midi": 38,
      "hit": false,
      "t": 231033.5258500041,
      "d": 1192.0530000000144,
      "v": 100
    },
    {
      "midi": 57,
      "hit": false,
      "t": 231033.5258500041,
      "d": 1589.4040000000386,
      "v": 100
    },
    {
      "midi": 49,
      "hit": false,
      "t": 231033.5258500041,
      "d": 1589.4040000000386,
      "v": 100
    },
    {
      "midi": 54,
      "hit": false,
      "t": 231033.5258500041,
      "d": 1589.4040000000386,
      "v": 100
    },
    {
      "midi": 42,
      "hit": false,
      "t": 231033.5258500041,
      "d": 1589.4040000000386,
      "v": 100
    },
    {
      "midi": 61,
      "hit": false,
      "t": 231033.5258500041,
      "d": 1589.4040000000386,
      "v": 100
    },
    {
      "midi": 66,
      "hit": false,
      "t": 231033.5258500041,
      "d": 1589.4040000000386,
      "v": 100
    },
    {
      "midi": 73,
      "hit": false,
      "t": 231828.2278500041,
      "d": 198.6755000000121,
      "v": 100
    },
    {
      "midi": 69,
      "hit": false,
      "t": 232026.9033500041,
      "d": 198.6755000000121,
      "v": 100
    },
    {
      "midi": 73,
      "hit": false,
      "t": 232225.57885000412,
      "d": 198.6755000000121,
      "v": 100
    },
    {
      "midi": 40,
      "hit": false,
      "t": 232225.57885000412,
      "d": 397.3510000000242,
      "v": 100
    },
    {
      "midi": 76,
      "hit": false,
      "t": 232424.25435000414,
      "d": 397.3510000000242,
      "v": 100
    },
    {
      "midi": 36,
      "hit": false,
      "t": 232821.60535000416,
      "d": 198.6755000000121,
      "v": 100
    },
    {
      "midi": 62,
      "hit": false,
      "t": 232821.60535000416,
      "d": 198.6755000000121,
      "v": 100
    },
    {
      "midi": 43,
      "hit": false,
      "t": 232821.60535000416,
      "d": 198.6755000000121,
      "v": 100
    },
    {
      "midi": 71,
      "hit": false,
      "t": 232821.60535000416,
      "d": 198.6755000000121,
      "v": 100
    },
    {
      "midi": 66,
      "hit": false,
      "t": 232821.60535000416,
      "d": 198.6755000000121,
      "v": 100
    },
    {
      "midi": 74,
      "hit": false,
      "t": 232821.60535000416,
      "d": 198.6755000000121,
      "v": 100
    },
    {
      "midi": 59,
      "hit": false,
      "t": 232821.60535000416,
      "d": 198.6755000000121,
      "v": 100
    },
    {
      "midi": 47,
      "hit": false,
      "t": 232821.60535000416,
      "d": 198.6755000000121,
      "v": 100
    },
    {
      "midi": 57,
      "hit": false,
      "t": 232821.60535000416,
      "d": 198.6755000000121,
      "v": 100
    },
    {
      "midi": 54,
      "hit": false,
      "t": 232821.60535000416,
      "d": 198.6755000000121,
      "v": 100
    },
    {
      "midi": 76,
      "hit": false,
      "t": 233020.28085000417,
      "d": 198.6755000000121,
      "v": 100
    },
    {
      "midi": 66,
      "hit": false,
      "t": 233020.28085000417,
      "d": 397.3510000000242,
      "v": 100
    },
    {
      "midi": 59,
      "hit": false,
      "t": 233020.28085000417,
      "d": 397.3510000000242,
      "v": 100
    },
    {
      "midi": 62,
      "hit": false,
      "t": 233020.28085000417,
      "d": 397.3510000000242,
      "v": 100
    },
    {
      "midi": 47,
      "hit": false,
      "t": 233020.28085000417,
      "d": 397.3510000000242,
      "v": 100
    },
    {
      "midi": 71,
      "hit": false,
      "t": 233020.28085000417,
      "d": 397.3510000000242,
      "v": 100
    },
    {
      "midi": 57,
      "hit": false,
      "t": 233020.28085000417,
      "d": 397.3510000000242,
      "v": 100
    },
    {
      "midi": 54,
      "hit": false,
      "t": 233020.28085000417,
      "d": 397.3510000000242,
      "v": 100
    },
    {
      "midi": 43,
      "hit": false,
      "t": 233020.28085000417,
      "d": 397.3510000000242,
      "v": 100
    },
    {
      "midi": 36,
      "hit": false,
      "t": 233020.28085000417,
      "d": 397.3510000000242,
      "v": 100
    },
    {
      "midi": 74,
      "hit": false,
      "t": 233218.95635000418,
      "d": 596.0265000000363,
      "v": 100
    },
    {
      "midi": 36,
      "hit": false,
      "t": 233616.3073500042,
      "d": 198.6755000000121,
      "v": 100
    },
    {
      "midi": 62,
      "hit": false,
      "t": 233616.3073500042,
      "d": 198.6755000000121,
      "v": 100
    },
    {
      "midi": 43,
      "hit": false,
      "t": 233616.3073500042,
      "d": 198.6755000000121,
      "v": 100
    },
    {
      "midi": 71,
      "hit": false,
      "t": 233616.3073500042,
      "d": 198.6755000000121,
      "v": 100
    },
    {
      "midi": 66,
      "hit": false,
      "t": 233616.3073500042,
      "d": 198.6755000000121,
      "v": 100
    },
    {
      "midi": 59,
      "hit": false,
      "t": 233616.3073500042,
      "d": 198.6755000000121,
      "v": 100
    },
    {
      "midi": 47,
      "hit": false,
      "t": 233616.3073500042,
      "d": 198.6755000000121,
      "v": 100
    },
    {
      "midi": 57,
      "hit": false,
      "t": 233616.3073500042,
      "d": 198.6755000000121,
      "v": 100
    },
    {
      "midi": 54,
      "hit": false,
      "t": 233616.3073500042,
      "d": 198.6755000000121,
      "v": 100
    },
    {
      "midi": 66,
      "hit": false,
      "t": 233814.98285000422,
      "d": 397.3510000000242,
      "v": 100
    },
    {
      "midi": 62,
      "hit": false,
      "t": 233814.98285000422,
      "d": 397.3510000000242,
      "v": 100
    },
    {
      "midi": 47,
      "hit": false,
      "t": 233814.98285000422,
      "d": 397.3510000000242,
      "v": 100
    },
    {
      "midi": 71,
      "hit": false,
      "t": 233814.98285000422,
      "d": 397.3510000000242,
      "v": 100
    },
    {
      "midi": 43,
      "hit": false,
      "t": 233814.98285000422,
      "d": 397.3510000000242,
      "v": 100
    },
    {
      "midi": 57,
      "hit": false,
      "t": 233814.98285000422,
      "d": 397.3510000000242,
      "v": 100
    },
    {
      "midi": 54,
      "hit": false,
      "t": 233814.98285000422,
      "d": 397.3510000000242,
      "v": 100
    },
    {
      "midi": 36,
      "hit": false,
      "t": 233814.98285000422,
      "d": 397.3510000000242,
      "v": 100
    },
    {
      "midi": 59,
      "hit": false,
      "t": 233814.98285000422,
      "d": 397.3510000000242,
      "v": 100
    },
    {
      "midi": 69,
      "hit": false,
      "t": 234013.65835000423,
      "d": 198.6755000000121,
      "v": 100
    },
    {
      "midi": 36,
      "hit": false,
      "t": 234212.33385000424,
      "d": 397.3509999999951,
      "v": 100
    },
    {
      "midi": 57,
      "hit": false,
      "t": 234212.33385000424,
      "d": 794.7019999999902,
      "v": 100
    },
    {
      "midi": 71,
      "hit": false,
      "t": 234212.33385000424,
      "d": 794.7019999999902,
      "v": 100
    },
    {
      "midi": 62,
      "hit": false,
      "t": 234212.33385000424,
      "d": 1589.4040000000386,
      "v": 100
    },
    {
      "midi": 55,
      "hit": false,
      "t": 234212.33385000424,
      "d": 1589.4040000000386,
      "v": 100
    },
    {
      "midi": 67,
      "hit": false,
      "t": 234212.33385000424,
      "d": 1589.4040000000386,
      "v": 100
    },
    {
      "midi": 59,
      "hit": false,
      "t": 234212.33385000424,
      "d": 1589.4040000000386,
      "v": 100
    },
    {
      "midi": 43,
      "hit": false,
      "t": 234212.33385000424,
      "d": 1589.4040000000386,
      "v": 100
    },
    {
      "midi": 40,
      "hit": false,
      "t": 234212.33385000424,
      "d": 1589.4040000000386,
      "v": 100
    },
    {
      "midi": 50,
      "hit": false,
      "t": 234212.33385000424,
      "d": 1589.4040000000386,
      "v": 100
    },
    {
      "midi": 71,
      "hit": false,
      "t": 235007.03585000423,
      "d": 198.6755000000121,
      "v": 100
    },
    {
      "midi": 38,
      "hit": false,
      "t": 235007.03585000423,
      "d": 397.3510000000242,
      "v": 100
    },
    {
      "midi": 42,
      "hit": false,
      "t": 235007.03585000423,
      "d": 397.3510000000242,
      "v": 100
    },
    {
      "midi": 78,
      "hit": false,
      "t": 235205.71135000425,
      "d": 198.6755000000121,
      "v": 100
    },
    {
      "midi": 71,
      "hit": false,
      "t": 235404.38685000426,
      "d": 198.6755000000121,
      "v": 100
    },
    {
      "midi": 38,
      "hit": false,
      "t": 235404.38685000426,
      "d": 264.9006666666828,
      "v": 100
    },
    {
      "midi": 73,
      "hit": false,
      "t": 235603.06235000427,
      "d": 993.3775000000605,
      "v": 100
    },
    {
      "midi": 38,
      "hit": false,
      "t": 235669.28751667094,
      "d": 132.4503333333414,
      "v": 100
    },
    {
      "midi": 48,
      "hit": false,
      "t": 235801.73785000428,
      "d": 132.4503333333414,
      "v": 100
    },
    {
      "midi": 57,
      "hit": false,
      "t": 235801.73785000428,
      "d": 794.7020000000484,
      "v": 100
    },
    {
      "midi": 69,
      "hit": false,
      "t": 235801.73785000428,
      "d": 794.7020000000484,
      "v": 100
    },
    {
      "midi": 61,
      "hit": false,
      "t": 235801.73785000428,
      "d": 794.7020000000484,
      "v": 100
    },
    {
      "midi": 64,
      "hit": false,
      "t": 235801.73785000428,
      "d": 794.7020000000484,
      "v": 100
    },
    {
      "midi": 42,
      "hit": false,
      "t": 235801.73785000428,
      "d": 794.7020000000484,
      "v": 100
    },
    {
      "midi": 52,
      "hit": false,
      "t": 235801.73785000428,
      "d": 794.7020000000484,
      "v": 100
    },
    {
      "midi": 48,
      "hit": false,
      "t": 235934.18818333762,
      "d": 132.4503333333414,
      "v": 100
    },
    {
      "midi": 48,
      "hit": false,
      "t": 236066.63851667097,
      "d": 132.4503333333414,
      "v": 100
    },
    {
      "midi": 48,
      "hit": false,
      "t": 236199.0888500043,
      "d": 132.4503333333414,
      "v": 100
    },
    {
      "midi": 47,
      "hit": false,
      "t": 236331.53918333765,
      "d": 132.4503333333414,
      "v": 100
    },
    {
      "midi": 45,
      "hit": false,
      "t": 236463.989516671,
      "d": 132.4503333333414,
      "v": 100
    },
    {
      "midi": 38,
      "hit": false,
      "t": 236596.43985000433,
      "d": 264.9006666666537,
      "v": 100
    },
    {
      "midi": 61,
      "hit": false,
      "t": 236596.43985000433,
      "d": 264.9006666666537,
      "v": 100
    },
    {
      "midi": 73,
      "hit": false,
      "t": 236596.43985000433,
      "d": 264.9006666666537,
      "v": 100
    },
    {
      "midi": 69,
      "hit": false,
      "t": 236596.43985000433,
      "d": 264.9006666666537,
      "v": 100
    },
    {
      "midi": 42,
      "hit": false,
      "t": 236596.43985000433,
      "d": 264.9006666666537,
      "v": 100
    },
    {
      "midi": 52,
      "hit": false,
      "t": 236596.43985000433,
      "d": 264.9006666666537,
      "v": 100
    },
    {
      "midi": 45,
      "hit": false,
      "t": 236596.43985000433,
      "d": 264.9006666666537,
      "v": 100
    },
    {
      "midi": 57,
      "hit": false,
      "t": 236596.43985000433,
      "d": 264.9006666666537,
      "v": 100
    },
    {
      "midi": 36,
      "hit": false,
      "t": 236861.34051667099,
      "d": 264.9006666666537,
      "v": 100
    },
    {
      "midi": 74,
      "hit": false,
      "t": 236861.34051667099,
      "d": 264.9006666666537,
      "v": 100
    },
    {
      "midi": 62,
      "hit": false,
      "t": 236861.34051667099,
      "d": 264.9006666666537,
      "v": 100
    },
    {
      "midi": 71,
      "hit": false,
      "t": 236861.34051667099,
      "d": 264.9006666666537,
      "v": 100
    },
    {
      "midi": 42,
      "hit": false,
      "t": 236861.34051667099,
      "d": 264.9006666666537,
      "v": 100
    },
    {
      "midi": 57,
      "hit": false,
      "t": 236861.34051667099,
      "d": 264.9006666666537,
      "v": 100
    },
    {
      "midi": 52,
      "hit": false,
      "t": 236861.34051667099,
      "d": 264.9006666666537,
      "v": 100
    },
    {
      "midi": 45,
      "hit": false,
      "t": 236861.34051667099,
      "d": 264.9006666666537,
      "v": 100
    },
    {
      "midi": 36,
      "hit": false,
      "t": 237126.24118333764,
      "d": 264.9006666666537,
      "v": 100
    },
    {
      "midi": 76,
      "hit": false,
      "t": 237126.24118333764,
      "d": 264.9006666666537,
      "v": 100
    },
    {
      "midi": 64,
      "hit": false,
      "t": 237126.24118333764,
      "d": 264.9006666666537,
      "v": 100
    },
    {
      "midi": 73,
      "hit": false,
      "t": 237126.24118333764,
      "d": 264.9006666666537,
      "v": 100
    },
    {
      "midi": 42,
      "hit": false,
      "t": 237126.24118333764,
      "d": 264.9006666666537,
      "v": 100
    },
    {
      "midi": 57,
      "hit": false,
      "t": 237126.24118333764,
      "d": 264.9006666666537,
      "v": 100
    },
    {
      "midi": 52,
      "hit": false,
      "t": 237126.24118333764,
      "d": 264.9006666666537,
      "v": 100
    },
    {
      "midi": 45,
      "hit": false,
      "t": 237126.24118333764,
      "d": 264.9006666666537,
      "v": 100
    },
    {
      "midi": 36,
      "hit": false,
      "t": 237391.1418500043,
      "d": 397.3509999999951,
      "v": 100
    },
    {
      "midi": 47,
      "hit": false,
      "t": 237391.1418500043,
      "d": 397.3509999999951,
      "v": 100
    },
    {
      "midi": 76,
      "hit": false,
      "t": 237391.1418500043,
      "d": 596.0265000000072,
      "v": 100
    },
    {
      "midi": 64,
      "hit": false,
      "t": 237391.1418500043,
      "d": 596.0265000000072,
      "v": 100
    },
    {
      "midi": 50,
      "hit": false,
      "t": 237391.1418500043,
      "d": 596.0265000000072,
      "v": 100
    },
    {
      "midi": 62,
      "hit": false,
      "t": 237391.1418500043,
      "d": 596.0265000000072,
      "v": 100
    },
    {
      "midi": 73,
      "hit": false,
      "t": 237391.1418500043,
      "d": 596.0265000000072,
      "v": 100
    },
    {
      "midi": 57,
      "hit": false,
      "t": 237391.1418500043,
      "d": 596.0265000000072,
      "v": 100
    },
    {
      "midi": 47,
      "hit": false,
      "t": 237788.4928500043,
      "d": 198.6755000000121,
      "v": 100
    },
    {
      "midi": 47,
      "hit": false,
      "t": 237987.1683500043,
      "d": 198.6755000000121,
      "v": 100
    },
    {
      "midi": 57,
      "hit": false,
      "t": 237987.1683500043,
      "d": 198.6755000000121,
      "v": 100
    },
    {
      "midi": 62,
      "hit": false,
      "t": 237987.1683500043,
      "d": 397.3510000000242,
      "v": 100
    },
    {
      "midi": 50,
      "hit": false,
      "t": 237987.1683500043,
      "d": 397.3510000000242,
      "v": 100
    },
    {
      "midi": 73,
      "hit": false,
      "t": 237987.1683500043,
      "d": 993.3775000000605,
      "v": 100
    },
    {
      "midi": 78,
      "hit": false,
      "t": 237987.1683500043,
      "d": 993.3775000000605,
      "v": 100
    },
    {
      "midi": 66,
      "hit": false,
      "t": 237987.1683500043,
      "d": 993.3775000000605,
      "v": 100
    },
    {
      "midi": 47,
      "hit": false,
      "t": 238185.8438500043,
      "d": 198.6755000000121,
      "v": 100
    },
    {
      "midi": 45,
      "hit": false,
      "t": 238384.51935000432,
      "d": 198.6755000000121,
      "v": 100
    },
    {
      "midi": 38,
      "hit": false,
      "t": 238384.51935000432,
      "d": 198.6755000000121,
      "v": 100
    },
    {
      "midi": 57,
      "hit": false,
      "t": 238384.51935000432,
      "d": 198.6755000000121,
      "v": 100
    },
    {
      "midi": 62,
      "hit": false,
      "t": 238384.51935000432,
      "d": 198.6755000000121,
      "v": 100
    },
    {
      "midi": 47,
      "hit": false,
      "t": 238384.51935000432,
      "d": 198.6755000000121,
      "v": 100
    },
    {
      "midi": 50,
      "hit": false,
      "t": 238384.51935000432,
      "d": 198.6755000000121,
      "v": 100
    },
    {
      "midi": 45,
      "hit": false,
      "t": 238583.19485000434,
      "d": 198.6755000000121,
      "v": 100
    },
    {
      "midi": 38,
      "hit": false,
      "t": 238583.19485000434,
      "d": 198.6755000000121,
      "v": 100
    },
    {
      "midi": 57,
      "hit": false,
      "t": 238583.19485000434,
      "d": 198.6755000000121,
      "v": 100
    },
    {
      "midi": 62,
      "hit": false,
      "t": 238583.19485000434,
      "d": 198.6755000000121,
      "v": 100
    },
    {
      "midi": 47,
      "hit": false,
      "t": 238583.19485000434,
      "d": 198.6755000000121,
      "v": 100
    },
    {
      "midi": 50,
      "hit": false,
      "t": 238583.19485000434,
      "d": 198.6755000000121,
      "v": 100
    },
    {
      "midi": 45,
      "hit": false,
      "t": 238781.87035000435,
      "d": 198.6755000000121,
      "v": 100
    },
    {
      "midi": 47,
      "hit": false,
      "t": 238781.87035000435,
      "d": 198.6755000000121,
      "v": 100
    },
    {
      "midi": 62,
      "hit": false,
      "t": 238781.87035000435,
      "d": 198.6755000000121,
      "v": 100
    },
    {
      "midi": 57,
      "hit": false,
      "t": 238781.87035000435,
      "d": 198.6755000000121,
      "v": 100
    },
    {
      "midi": 50,
      "hit": false,
      "t": 238781.87035000435,
      "d": 198.6755000000121,
      "v": 100
    },
    {
      "midi": 38,
      "hit": false,
      "t": 238781.87035000435,
      "d": 198.6755000000121,
      "v": 100
    },
    {
      "midi": 38,
      "hit": false,
      "t": 238980.54585000436,
      "d": 198.6755000000121,
      "v": 100
    },
    {
      "midi": 50,
      "hit": false,
      "t": 238980.54585000436,
      "d": 198.6755000000121,
      "v": 100
    },
    {
      "midi": 74,
      "hit": false,
      "t": 238980.54585000436,
      "d": 198.6755000000121,
      "v": 100
    },
    {
      "midi": 47,
      "hit": false,
      "t": 238980.54585000436,
      "d": 198.6755000000121,
      "v": 100
    },
    {
      "midi": 62,
      "hit": false,
      "t": 238980.54585000436,
      "d": 198.6755000000121,
      "v": 100
    },
    {
      "midi": 42,
      "hit": false,
      "t": 239179.22135000437,
      "d": 198.6755000000121,
      "v": 100
    },
    {
      "midi": 49,
      "hit": false,
      "t": 239179.22135000437,
      "d": 198.6755000000121,
      "v": 100
    },
    {
      "midi": 64,
      "hit": false,
      "t": 239179.22135000437,
      "d": 198.6755000000121,
      "v": 100
    },
    {
      "midi": 76,
      "hit": false,
      "t": 239179.22135000437,
      "d": 198.6755000000121,
      "v": 100
    },
    {
      "midi": 52,
      "hit": false,
      "t": 239179.22135000437,
      "d": 198.6755000000121,
      "v": 100
    },
    {
      "midi": 36,
      "hit": false,
      "t": 239179.22135000437,
      "d": 198.6755000000121,
      "v": 100
    },
    {
      "midi": 42,
      "hit": false,
      "t": 239377.89685000438,
      "d": 198.6755000000121,
      "v": 100
    },
    {
      "midi": 42,
      "hit": false,
      "t": 239576.5723500044,
      "d": 198.6755000000121,
      "v": 100
    },
    {
      "midi": 50,
      "hit": false,
      "t": 239576.5723500044,
      "d": 198.6755000000121,
      "v": 100
    },
    {
      "midi": 54,
      "hit": false,
      "t": 239576.5723500044,
      "d": 198.6755000000121,
      "v": 100
    },
    {
      "midi": 78,
      "hit": false,
      "t": 239576.5723500044,
      "d": 198.6755000000121,
      "v": 100
    },
    {
      "midi": 66,
      "hit": false,
      "t": 239576.5723500044,
      "d": 198.6755000000121,
      "v": 100
    },
    {
      "midi": 36,
      "hit": false,
      "t": 239576.5723500044,
      "d": 198.6755000000121,
      "v": 100
    },
    {
      "midi": 42,
      "hit": false,
      "t": 239775.2478500044,
      "d": 198.6755000000121,
      "v": 100
    },
    {
      "midi": 42,
      "hit": false,
      "t": 239973.92335000442,
      "d": 198.6755000000121,
      "v": 100
    },
    {
      "midi": 67,
      "hit": false,
      "t": 239973.92335000442,
      "d": 198.6755000000121,
      "v": 100
    },
    {
      "midi": 78,
      "hit": false,
      "t": 239973.92335000442,
      "d": 198.6755000000121,
      "v": 100
    },
    {
      "midi": 79,
      "hit": false,
      "t": 239973.92335000442,
      "d": 198.6755000000121,
      "v": 100
    },
    {
      "midi": 52,
      "hit": false,
      "t": 239973.92335000442,
      "d": 198.6755000000121,
      "v": 100
    },
    {
      "midi": 55,
      "hit": false,
      "t": 239973.92335000442,
      "d": 198.6755000000121,
      "v": 100
    },
    {
      "midi": 36,
      "hit": false,
      "t": 239973.92335000442,
      "d": 198.6755000000121,
      "v": 100
    },
    {
      "midi": 42,
      "hit": false,
      "t": 240172.59885000443,
      "d": 198.6755000000121,
      "v": 100
    },
    {
      "midi": 78,
      "hit": false,
      "t": 240172.59885000443,
      "d": 198.6755000000121,
      "v": 100
    },
    {
      "midi": 42,
      "hit": false,
      "t": 240371.27435000445,
      "d": 198.6755000000121,
      "v": 100
    },
    {
      "midi": 81,
      "hit": false,
      "t": 240371.27435000445,
      "d": 198.6755000000121,
      "v": 100
    },
    {
      "midi": 78,
      "hit": false,
      "t": 240371.27435000445,
      "d": 198.6755000000121,
      "v": 100
    },
    {
      "midi": 69,
      "hit": false,
      "t": 240371.27435000445,
      "d": 198.6755000000121,
      "v": 100
    },
    {
      "midi": 54,
      "hit": false,
      "t": 240371.27435000445,
      "d": 198.6755000000121,
      "v": 100
    },
    {
      "midi": 57,
      "hit": false,
      "t": 240371.27435000445,
      "d": 198.6755000000121,
      "v": 100
    },
    {
      "midi": 36,
      "hit": false,
      "t": 240371.27435000445,
      "d": 198.6755000000121,
      "v": 100
    },
    {
      "midi": 62,
      "hit": false,
      "t": 240569.94985000446,
      "d": 198.6755000000121,
      "v": 100
    },
    {
      "midi": 78,
      "hit": false,
      "t": 240569.94985000446,
      "d": 298.01325000001816,
      "v": 100
    },
    {
      "midi": 71,
      "hit": false,
      "t": 240569.94985000446,
      "d": 298.01325000001816,
      "v": 100
    },
    {
      "midi": 67,
      "hit": false,
      "t": 240569.94985000446,
      "d": 298.01325000001816,
      "v": 100
    },
    {
      "midi": 74,
      "hit": false,
      "t": 240569.94985000446,
      "d": 298.01325000001816,
      "v": 100
    },
    {
      "midi": 38,
      "hit": false,
      "t": 240569.94985000446,
      "d": 397.3510000000242,
      "v": 100
    },
    {
      "midi": 57,
      "hit": false,
      "t": 240569.94985000446,
      "d": 397.3510000000242,
      "v": 100
    },
    {
      "midi": 36,
      "hit": false,
      "t": 240569.94985000446,
      "d": 397.3510000000242,
      "v": 100
    },
    {
      "midi": 40,
      "hit": false,
      "t": 240569.94985000446,
      "d": 397.3510000000242,
      "v": 100
    },
    {
      "midi": 69,
      "hit": false,
      "t": 240569.94985000446,
      "d": 1589.4040000000969,
      "v": 100
    },
    {
      "midi": 62,
      "hit": false,
      "t": 240768.62535000447,
      "d": 198.6755000000121,
      "v": 100
    },
    {
      "midi": 78,
      "hit": false,
      "t": 240867.96310000448,
      "d": 99.33775000000605,
      "v": 100
    },
    {
      "midi": 74,
      "hit": false,
      "t": 240867.96310000448,
      "d": 99.33775000000605,
      "v": 100
    },
    {
      "midi": 71,
      "hit": false,
      "t": 240967.30085000448,
      "d": 198.6755000000121,
      "v": 100
    },
    {
      "midi": 66,
      "hit": false,
      "t": 240967.30085000448,
      "d": 198.6755000000121,
      "v": 100
    },
    {
      "midi": 62,
      "hit": false,
      "t": 240967.30085000448,
      "d": 198.6755000000121,
      "v": 100
    },
    {
      "midi": 40,
      "hit": false,
      "t": 240967.30085000448,
      "d": 298.01325000001816,
      "v": 100
    },
    {
      "midi": 78,
      "hit": false,
      "t": 240967.30085000448,
      "d": 397.3510000000242,
      "v": 100
    },
    {
      "midi": 74,
      "hit": false,
      "t": 240967.30085000448,
      "d": 397.3510000000242,
      "v": 100
    },
    {
      "midi": 42,
      "hit": false,
      "t": 240967.30085000448,
      "d": 397.3510000000242,
      "v": 100
    },
    {
      "midi": 62,
      "hit": false,
      "t": 241165.9763500045,
      "d": 99.33775000000605,
      "v": 100
    },
    {
      "midi": 62,
      "hit": false,
      "t": 241265.3141000045,
      "d": 99.33775000000605,
      "v": 100
    },
    {
      "midi": 38,
      "hit": false,
      "t": 241265.3141000045,
      "d": 99.33775000000605,
      "v": 100
    },
    {
      "midi": 62,
      "hit": false,
      "t": 241364.6518500045,
      "d": 198.6755000000121,
      "v": 100
    },
    {
      "midi": 40,
      "hit": false,
      "t": 241364.6518500045,
      "d": 198.6755000000121,
      "v": 100
    },
    {
      "midi": 78,
      "hit": false,
      "t": 241364.6518500045,
      "d": 198.6755000000121,
      "v": 100
    },
    {
      "midi": 42,
      "hit": false,
      "t": 241364.6518500045,
      "d": 397.3510000000242,
      "v": 100
    },
    {
      "midi": 38,
      "hit": false,
      "t": 241364.6518500045,
      "d": 397.3510000000242,
      "v": 100
    },
    {
      "midi": 36,
      "hit": false,
      "t": 241563.32735000452,
      "d": 198.6755000000121,
      "v": 100
    },
    {
      "midi": 71,
      "hit": false,
      "t": 241563.32735000452,
      "d": 397.3510000000242,
      "v": 100
    },
    {
      "midi": 43,
      "hit": false,
      "t": 241563.32735000452,
      "d": 397.3510000000242,
      "v": 100
    },
    {
      "midi": 62,
      "hit": false,
      "t": 241563.32735000452,
      "d": 397.3510000000242,
      "v": 100
    },
    {
      "midi": 66,
      "hit": false,
      "t": 241563.32735000452,
      "d": 397.3510000000242,
      "v": 100
    },
    {
      "midi": 76,
      "hit": false,
      "t": 241563.32735000452,
      "d": 397.3510000000242,
      "v": 100
    },
    {
      "midi": 38,
      "hit": false,
      "t": 241762.00285000453,
      "d": 397.3510000000242,
      "v": 100
    },
    {
      "midi": 42,
      "hit": false,
      "t": 241762.00285000453,
      "d": 397.3510000000242,
      "v": 100
    },
    {
      "midi": 36,
      "hit": false,
      "t": 241960.67835000454,
      "d": 198.6755000000121,
      "v": 100
    },
    {
      "midi": 62,
      "hit": false,
      "t": 241960.67835000454,
      "d": 198.6755000000121,
      "v": 100
    },
    {
      "midi": 40,
      "hit": false,
      "t": 241960.67835000454,
      "d": 198.6755000000121,
      "v": 100
    },
    {
      "midi": 74,
      "hit": false,
      "t": 241960.67835000454,
      "d": 397.3510000000242,
      "v": 100
    },
    {
      "midi": 81,
      "hit": false,
      "t": 241960.67835000454,
      "d": 397.3510000000242,
      "v": 100
    },
    {
      "midi": 78,
      "hit": false,
      "t": 241960.67835000454,
      "d": 397.3510000000242,
      "v": 100
    },
    {
      "midi": 62,
      "hit": false,
      "t": 242159.35385000455,
      "d": 198.6755000000121,
      "v": 100
    },
    {
      "midi": 42,
      "hit": false,
      "t": 242159.35385000455,
      "d": 198.6755000000121,
      "v": 100
    },
    {
      "midi": 36,
      "hit": false,
      "t": 242159.35385000455,
      "d": 397.3510000000242,
      "v": 100
    },
    {
      "midi": 38,
      "hit": false,
      "t": 242159.35385000455,
      "d": 397.3510000000242,
      "v": 100
    },
    {
      "midi": 67,
      "hit": false,
      "t": 242159.35385000455,
      "d": 596.0265000000363,
      "v": 100
    },
    {
      "midi": 73,
      "hit": false,
      "t": 242358.02935000457,
      "d": 198.6755000000121,
      "v": 100
    },
    {
      "midi": 76,
      "hit": false,
      "t": 242358.02935000457,
      "d": 198.6755000000121,
      "v": 100
    },
    {
      "midi": 69,
      "hit": false,
      "t": 242358.02935000457,
      "d": 198.6755000000121,
      "v": 100
    },
    {
      "midi": 79,
      "hit": false,
      "t": 242358.02935000457,
      "d": 198.6755000000121,
      "v": 100
    },
    {
      "midi": 45,
      "hit": false,
      "t": 242358.02935000457,
      "d": 198.6755000000121,
      "v": 100
    },
    {
      "midi": 66,
      "hit": false,
      "t": 242358.02935000457,
      "d": 198.6755000000121,
      "v": 100
    },
    {
      "midi": 64,
      "hit": false,
      "t": 242358.02935000457,
      "d": 198.6755000000121,
      "v": 100
    },
    {
      "midi": 62,
      "hit": false,
      "t": 242556.70485000458,
      "d": 198.6755000000121,
      "v": 100
    },
    {
      "midi": 47,
      "hit": false,
      "t": 242556.70485000458,
      "d": 198.6755000000121,
      "v": 100
    },
    {
      "midi": 79,
      "hit": false,
      "t": 242556.70485000458,
      "d": 198.6755000000121,
      "v": 100
    },
    {
      "midi": 38,
      "hit": false,
      "t": 242556.70485000458,
      "d": 397.3510000000242,
      "v": 100
    },
    {
      "midi": 42,
      "hit": false,
      "t": 242556.70485000458,
      "d": 397.3510000000242,
      "v": 100
    },
    {
      "midi": 76,
      "hit": false,
      "t": 242556.70485000458,
      "d": 397.3510000000242,
      "v": 100
    },
    {
      "midi": 79,
      "hit": false,
      "t": 242755.3803500046,
      "d": 198.6755000000121,
      "v": 100
    },
    {
      "midi": 73,
      "hit": false,
      "t": 242755.3803500046,
      "d": 198.6755000000121,
      "v": 100
    },
    {
      "midi": 49,
      "hit": false,
      "t": 242755.3803500046,
      "d": 397.3510000000242,
      "v": 100
    },
    {
      "midi": 66,
      "hit": false,
      "t": 242755.3803500046,
      "d": 397.3510000000242,
      "v": 100
    },
    {
      "midi": 64,
      "hit": false,
      "t": 242755.3803500046,
      "d": 397.3510000000242,
      "v": 100
    },
    {
      "midi": 69,
      "hit": false,
      "t": 242755.3803500046,
      "d": 993.3775000000605,
      "v": 100
    },
    {
      "midi": 61,
      "hit": false,
      "t": 242755.3803500046,
      "d": 993.3775000000605,
      "v": 100
    },
    {
      "midi": 78,
      "hit": false,
      "t": 242954.0558500046,
      "d": 198.6755000000121,
      "v": 100
    },
    {
      "midi": 42,
      "hit": false,
      "t": 242954.0558500046,
      "d": 397.3510000000242,
      "v": 100
    },
    {
      "midi": 38,
      "hit": false,
      "t": 242954.0558500046,
      "d": 397.3510000000242,
      "v": 100
    },
    {
      "midi": 36,
      "hit": false,
      "t": 243152.73135000461,
      "d": 198.6755000000121,
      "v": 100
    },
    {
      "midi": 73,
      "hit": false,
      "t": 243152.73135000461,
      "d": 198.6755000000121,
      "v": 100
    },
    {
      "midi": 64,
      "hit": false,
      "t": 243152.73135000461,
      "d": 198.6755000000121,
      "v": 100
    },
    {
      "midi": 47,
      "hit": false,
      "t": 243152.73135000461,
      "d": 198.6755000000121,
      "v": 100
    },
    {
      "midi": 66,
      "hit": false,
      "t": 243152.73135000461,
      "d": 198.6755000000121,
      "v": 100
    },
    {
      "midi": 76,
      "hit": false,
      "t": 243152.73135000461,
      "d": 596.0265000000363,
      "v": 100
    },
    {
      "midi": 64,
      "hit": false,
      "t": 243351.40685000463,
      "d": 198.6755000000121,
      "v": 100
    },
    {
      "midi": 66,
      "hit": false,
      "t": 243351.40685000463,
      "d": 198.6755000000121,
      "v": 100
    },
    {
      "midi": 73,
      "hit": false,
      "t": 243351.40685000463,
      "d": 198.6755000000121,
      "v": 100
    },
    {
      "midi": 45,
      "hit": false,
      "t": 243351.40685000463,
      "d": 198.6755000000121,
      "v": 100
    },
    {
      "midi": 38,
      "hit": false,
      "t": 243351.40685000463,
      "d": 397.3510000000242,
      "v": 100
    },
    {
      "midi": 36,
      "hit": false,
      "t": 243550.08235000464,
      "d": 198.6755000000121,
      "v": 100
    },
    {
      "midi": 73,
      "hit": false,
      "t": 243550.08235000464,
      "d": 198.6755000000121,
      "v": 100
    },
    {
      "midi": 42,
      "hit": false,
      "t": 243550.08235000464,
      "d": 198.6755000000121,
      "v": 100
    },
    {
      "midi": 66,
      "hit": false,
      "t": 243550.08235000464,
      "d": 198.6755000000121,
      "v": 100
    },
    {
      "midi": 64,
      "hit": false,
      "t": 243550.08235000464,
      "d": 198.6755000000121,
      "v": 100
    },
    {
      "midi": 62,
      "hit": false,
      "t": 243748.75785000465,
      "d": 198.6755000000121,
      "v": 100
    },
    {
      "midi": 38,
      "hit": false,
      "t": 243748.75785000465,
      "d": 397.3510000000242,
      "v": 100
    },
    {
      "midi": 82,
      "hit": false,
      "t": 243748.75785000465,
      "d": 397.3510000000242,
      "v": 100
    },
    {
      "midi": 36,
      "hit": false,
      "t": 243748.75785000465,
      "d": 397.3510000000242,
      "v": 100
    },
    {
      "midi": 42,
      "hit": false,
      "t": 243748.75785000465,
      "d": 397.3510000000242,
      "v": 100
    },
    {
      "midi": 61,
      "hit": false,
      "t": 243748.75785000465,
      "d": 993.3775000000605,
      "v": 100
    },
    {
      "midi": 62,
      "hit": false,
      "t": 243947.43335000466,
      "d": 198.6755000000121,
      "v": 100
    },
    {
      "midi": 85,
      "hit": false,
      "t": 244146.10885000468,
      "d": 198.6755000000121,
      "v": 100
    },
    {
      "midi": 38,
      "hit": false,
      "t": 244146.10885000468,
      "d": 298.01325000001816,
      "v": 100
    },
    {
      "midi": 42,
      "hit": false,
      "t": 244146.10885000468,
      "d": 397.3510000000242,
      "v": 100
    },
    {
      "midi": 70,
      "hit": false,
      "t": 244146.10885000468,
      "d": 397.3510000000242,
      "v": 100
    },
    {
      "midi": 76,
      "hit": false,
      "t": 244146.10885000468,
      "d": 397.3510000000242,
      "v": 100
    },
    {
      "midi": 64,
      "hit": false,
      "t": 244146.10885000468,
      "d": 397.3510000000242,
      "v": 100
    },
    {
      "midi": 73,
      "hit": false,
      "t": 244146.10885000468,
      "d": 397.3510000000242,
      "v": 100
    },
    {
      "midi": 66,
      "hit": false,
      "t": 244146.10885000468,
      "d": 397.3510000000242,
      "v": 100
    },
    {
      "midi": 83,
      "hit": false,
      "t": 244344.7843500047,
      "d": 397.3510000000242,
      "v": 100
    },
    {
      "midi": 37,
      "hit": false,
      "t": 244444.1221000047,
      "d": 99.33775000000605,
      "v": 100
    },
    {
      "midi": 62,
      "hit": false,
      "t": 244543.4598500047,
      "d": 198.6755000000121,
      "v": 100
    },
    {
      "midi": 38,
      "hit": false,
      "t": 244543.4598500047,
      "d": 198.6755000000121,
      "v": 100
    },
    {
      "midi": 36,
      "hit": false,
      "t": 244742.1353500047,
      "d": 198.6755000000121,
      "v": 100
    },
    {
      "midi": 42,
      "hit": false,
      "t": 244742.1353500047,
      "d": 198.6755000000121,
      "v": 100
    },
    {
      "midi": 70,
      "hit": false,
      "t": 244742.1353500047,
      "d": 198.6755000000121,
      "v": 100
    },
    {
      "midi": 66,
      "hit": false,
      "t": 244742.1353500047,
      "d": 198.6755000000121,
      "v": 100
    },
    {
      "midi": 73,
      "hit": false,
      "t": 244742.1353500047,
      "d": 397.3510000000242,
      "v": 100
    },
    {
      "midi": 64,
      "hit": false,
      "t": 244742.1353500047,
      "d": 397.3510000000242,
      "v": 100
    },
    {
      "midi": 69,
      "hit": false,
      "t": 244742.1353500047,
      "d": 596.0265000000363,
      "v": 100
    },
    {
      "midi": 61,
      "hit": false,
      "t": 244742.1353500047,
      "d": 596.0265000000363,
      "v": 100
    },
    {
      "midi": 42,
      "hit": false,
      "t": 244940.81085000472,
      "d": 198.6755000000121,
      "v": 100
    },
    {
      "midi": 38,
      "hit": false,
      "t": 244940.81085000472,
      "d": 397.3510000000242,
      "v": 100
    },
    {
      "midi": 62,
      "hit": false,
      "t": 245139.48635000474,
      "d": 198.6755000000121,
      "v": 100
    },
    {
      "midi": 45,
      "hit": false,
      "t": 245139.48635000474,
      "d": 198.6755000000121,
      "v": 100
    },
    {
      "midi": 66,
      "hit": false,
      "t": 245139.48635000474,
      "d": 198.6755000000121,
      "v": 100
    },
    {
      "midi": 70,
      "hit": false,
      "t": 245139.48635000474,
      "d": 397.3510000000242,
      "v": 100
    },
    {
      "midi": 76,
      "hit": false,
      "t": 245139.48635000474,
      "d": 596.0265000000363,
      "v": 100
    },
    {
      "midi": 36,
      "hit": false,
      "t": 245238.82410000474,
      "d": 99.33775000000605,
      "v": 100
    },
    {
      "midi": 62,
      "hit": false,
      "t": 245338.16185000475,
      "d": 198.6755000000121,
      "v": 100
    },
    {
      "midi": 69,
      "hit": false,
      "t": 245338.16185000475,
      "d": 198.6755000000121,
      "v": 100
    },
    {
      "midi": 43,
      "hit": false,
      "t": 245338.16185000475,
      "d": 198.6755000000121,
      "v": 100
    },
    {
      "midi": 61,
      "hit": false,
      "t": 245338.16185000475,
      "d": 198.6755000000121,
      "v": 100
    },
    {
      "midi": 66,
      "hit": false,
      "t": 245338.16185000475,
      "d": 198.6755000000121,
      "v": 100
    },
    {
      "midi": 38,
      "hit": false,
      "t": 245338.16185000475,
      "d": 397.3510000000242,
      "v": 100
    },
    {
      "midi": 42,
      "hit": false,
      "t": 245338.16185000475,
      "d": 397.3510000000242,
      "v": 100
    },
    {
      "midi": 36,
      "hit": false,
      "t": 245536.83735000476,
      "d": 198.6755000000121,
      "v": 100
    },
    {
      "midi": 66,
      "hit": false,
      "t": 245536.83735000476,
      "d": 198.6755000000121,
      "v": 100
    },
    {
      "midi": 71,
      "hit": false,
      "t": 245536.83735000476,
      "d": 198.6755000000121,
      "v": 100
    },
    {
      "midi": 43,
      "hit": false,
      "t": 245536.83735000476,
      "d": 198.6755000000121,
      "v": 100
    },
    {
      "midi": 74,
      "hit": false,
      "t": 245536.83735000476,
      "d": 198.6755000000121,
      "v": 100
    },
    {
      "midi": 59,
      "hit": false,
      "t": 245536.83735000476,
      "d": 198.6755000000121,
      "v": 100
    },
    {
      "midi": 64,
      "hit": false,
      "t": 245536.83735000476,
      "d": 198.6755000000121,
      "v": 100
    },
    {
      "midi": 62,
      "hit": false,
      "t": 245735.51285000477,
      "d": 198.6755000000121,
      "v": 100
    },
    {
      "midi": 43,
      "hit": false,
      "t": 245735.51285000477,
      "d": 198.6755000000121,
      "v": 100
    },
    {
      "midi": 78,
      "hit": false,
      "t": 245735.51285000477,
      "d": 198.6755000000121,
      "v": 100
    },
    {
      "midi": 66,
      "hit": false,
      "t": 245735.51285000477,
      "d": 198.6755000000121,
      "v": 100
    },
    {
      "midi": 70,
      "hit": false,
      "t": 245735.51285000477,
      "d": 397.3510000000242,
      "v": 100
    },
    {
      "midi": 38,
      "hit": false,
      "t": 245735.51285000477,
      "d": 397.3510000000242,
      "v": 100
    },
    {
      "midi": 42,
      "hit": false,
      "t": 245735.51285000477,
      "d": 397.3510000000242,
      "v": 100
    },
    {
      "midi": 66,
      "hit": false,
      "t": 245934.18835000478,
      "d": 198.6755000000121,
      "v": 100
    },
    {
      "midi": 43,
      "hit": false,
      "t": 245934.18835000478,
      "d": 198.6755000000121,
      "v": 100
    },
    {
      "midi": 59,
      "hit": false,
      "t": 245934.18835000478,
      "d": 397.3510000000242,
      "v": 100
    },
    {
      "midi": 62,
      "hit": false,
      "t": 245934.18835000478,
      "d": 397.3510000000242,
      "v": 100
    },
    {
      "midi": 74,
      "hit": false,
      "t": 245934.18835000478,
      "d": 397.3510000000242,
      "v": 100
    },
    {
      "midi": 36,
      "hit": false,
      "t": 246033.5261000048,
      "d": 99.33775000000605,
      "v": 100
    },
    {
      "midi": 43,
      "hit": false,
      "t": 246132.8638500048,
      "d": 198.6755000000121,
      "v": 100
    },
    {
      "midi": 38,
      "hit": false,
      "t": 246132.8638500048,
      "d": 397.3510000000242,
      "v": 100
    },
    {
      "midi": 42,
      "hit": false,
      "t": 246132.8638500048,
      "d": 397.3510000000242,
      "v": 100
    },
    {
      "midi": 36,
      "hit": false,
      "t": 246331.5393500048,
      "d": 198.6755000000121,
      "v": 100
    },
    {
      "midi": 62,
      "hit": false,
      "t": 246331.5393500048,
      "d": 198.6755000000121,
      "v": 100
    },
    {
      "midi": 45,
      "hit": false,
      "t": 246331.5393500048,
      "d": 198.6755000000121,
      "v": 100
    },
    {
      "midi": 59,
      "hit": false,
      "t": 246331.5393500048,
      "d": 198.6755000000121,
      "v": 100
    },
    {
      "midi": 78,
      "hit": false,
      "t": 246331.5393500048,
      "d": 397.3510000000242,
      "v": 100
    },
    {
      "midi": 62,
      "hit": false,
      "t": 246530.21485000482,
      "d": 198.6755000000121,
      "v": 100
    },
    {
      "midi": 59,
      "hit": false,
      "t": 246530.21485000482,
      "d": 198.6755000000121,
      "v": 100
    },
    {
      "midi": 42,
      "hit": false,
      "t": 246530.21485000482,
      "d": 397.3510000000242,
      "v": 100
    },
    {
      "midi": 38,
      "hit": false,
      "t": 246530.21485000482,
      "d": 397.3510000000242,
      "v": 100
    },
    {
      "midi": 47,
      "hit": false,
      "t": 246530.21485000482,
      "d": 397.3510000000242,
      "v": 100
    },
    {
      "midi": 36,
      "hit": false,
      "t": 246728.89035000483,
      "d": 198.6755000000121,
      "v": 100
    },
    {
      "midi": 59,
      "hit": false,
      "t": 246728.89035000483,
      "d": 198.6755000000121,
      "v": 100
    },
    {
      "midi": 62,
      "hit": false,
      "t": 246728.89035000483,
      "d": 198.6755000000121,
      "v": 100
    },
    {
      "midi": 78,
      "hit": false,
      "t": 246728.89035000483,
      "d": 198.6755000000121,
      "v": 100
    },
    {
      "midi": 62,
      "hit": false,
      "t": 246927.56585000484,
      "d": 198.6755000000121,
      "v": 100
    },
    {
      "midi": 78,
      "hit": false,
      "t": 246927.56585000484,
      "d": 198.6755000000121,
      "v": 100
    },
    {
      "midi": 38,
      "hit": false,
      "t": 246927.56585000484,
      "d": 397.3510000000242,
      "v": 100
    },
    {
      "midi": 40,
      "hit": false,
      "t": 246927.56585000484,
      "d": 397.3510000000242,
      "v": 100
    },
    {
      "midi": 57,
      "hit": false,
      "t": 246927.56585000484,
      "d": 397.3510000000242,
      "v": 100
    },
    {
      "midi": 36,
      "hit": false,
      "t": 246927.56585000484,
      "d": 397.3510000000242,
      "v": 100
    },
    {
      "midi": 66,
      "hit": false,
      "t": 246927.56585000484,
      "d": 1589.4040000000969,
      "v": 100
    },
    {
      "midi": 62,
      "hit": false,
      "t": 247126.24135000486,
      "d": 198.6755000000121,
      "v": 100
    },
    {
      "midi": 76,
      "hit": false,
      "t": 247126.24135000486,
      "d": 397.3510000000242,
      "v": 100
    },
    {
      "midi": 62,
      "hit": false,
      "t": 247324.91685000487,
      "d": 198.6755000000121,
      "v": 100
    },
    {
      "midi": 59,
      "hit": false,
      "t": 247324.91685000487,
      "d": 198.6755000000121,
      "v": 100
    },
    {
      "midi": 55,
      "hit": false,
      "t": 247324.91685000487,
      "d": 198.6755000000121,
      "v": 100
    },
    {
      "midi": 40,
      "hit": false,
      "t": 247324.91685000487,
      "d": 298.01325000001816,
      "v": 100
    },
    {
      "midi": 67,
      "hit": false,
      "t": 247324.91685000487,
      "d": 397.3510000000242,
      "v": 100
    },
    {
      "midi": 78,
      "hit": false,
      "t": 247324.91685000487,
      "d": 397.3510000000242,
      "v": 100
    },
    {
      "midi": 74,
      "hit": false,
      "t": 247324.91685000487,
      "d": 397.3510000000242,
      "v": 100
    },
    {
      "midi": 42,
      "hit": false,
      "t": 247324.91685000487,
      "d": 397.3510000000242,
      "v": 100
    },
    {
      "midi": 71,
      "hit": false,
      "t": 247523.59235000488,
      "d": 198.6755000000121,
      "v": 100
    },
    {
      "midi": 62,
      "hit": false,
      "t": 247523.59235000488,
      "d": 198.6755000000121,
      "v": 100
    },
    {
      "midi": 38,
      "hit": false,
      "t": 247622.9301000049,
      "d": 99.33775000000605,
      "v": 100
    },
    {
      "midi": 62,
      "hit": false,
      "t": 247722.2678500049,
      "d": 198.6755000000121,
      "v": 100
    },
    {
      "midi": 40,
      "hit": false,
      "t": 247722.2678500049,
      "d": 198.6755000000121,
      "v": 100
    },
    {
      "midi": 42,
      "hit": false,
      "t": 247722.2678500049,
      "d": 397.3510000000242,
      "v": 100
    },
    {
      "midi": 38,
      "hit": false,
      "t": 247722.2678500049,
      "d": 397.3510000000242,
      "v": 100
    },
    {
      "midi": 36,
      "hit": false,
      "t": 247920.9433500049,
      "d": 198.6755000000121,
      "v": 100
    },
    {
      "midi": 55,
      "hit": false,
      "t": 247920.9433500049,
      "d": 397.3510000000242,
      "v": 100
    },
    {
      "midi": 43,
      "hit": false,
      "t": 247920.9433500049,
      "d": 397.3510000000242,
      "v": 100
    },
    {
      "midi": 62,
      "hit": false,
      "t": 247920.9433500049,
      "d": 397.3510000000242,
      "v": 100
    },
    {
      "midi": 59,
      "hit": false,
      "t": 247920.9433500049,
      "d": 397.3510000000242,
      "v": 100
    },
    {
      "midi": 38,
      "hit": false,
      "t": 248119.61885000492,
      "d": 397.3510000000242,
      "v": 100
    },
    {
      "midi": 42,
      "hit": false,
      "t": 248119.61885000492,
      "d": 397.3510000000242,
      "v": 100
    },
    {
      "midi": 36,
      "hit": false,
      "t": 248318.29435000493,
      "d": 198.6755000000121,
      "v": 100
    },
    {
      "midi": 40,
      "hit": false,
      "t": 248318.29435000493,
      "d": 198.6755000000121,
      "v": 100
    },
    {
      "midi": 62,
      "hit": false,
      "t": 248318.29435000493,
      "d": 198.6755000000121,
      "v": 100
    },
    {
      "midi": 78,
      "hit": false,
      "t": 248318.29435000493,
      "d": 397.3510000000242,
      "v": 100
    },
    {
      "midi": 74,
      "hit": false,
      "t": 248318.29435000493,
      "d": 397.3510000000242,
      "v": 100
    },
    {
      "midi": 64,
      "hit": false,
      "t": 248516.96985000494,
      "d": 198.6755000000121,
      "v": 100
    },
    {
      "midi": 61,
      "hit": false,
      "t": 248516.96985000494,
      "d": 198.6755000000121,
      "v": 100
    },
    {
      "midi": 71,
      "hit": false,
      "t": 248516.96985000494,
      "d": 198.6755000000121,
      "v": 100
    },
    {
      "midi": 42,
      "hit": false,
      "t": 248516.96985000494,
      "d": 198.6755000000121,
      "v": 100
    },
    {
      "midi": 59,
      "hit": false,
      "t": 248516.96985000494,
      "d": 198.6755000000121,
      "v": 100
    },
    {
      "midi": 57,
      "hit": false,
      "t": 248516.96985000494,
      "d": 198.6755000000121,
      "v": 100
    },
    {
      "midi": 66,
      "hit": false,
      "t": 248516.96985000494,
      "d": 198.6755000000121,
      "v": 100
    },
    {
      "midi": 67,
      "hit": false,
      "t": 248516.96985000494,
      "d": 198.6755000000121,
      "v": 100
    },
    {
      "midi": 38,
      "hit": false,
      "t": 248516.96985000494,
      "d": 397.3510000000242,
      "v": 100
    },
    {
      "midi": 36,
      "hit": false,
      "t": 248516.96985000494,
      "d": 397.3510000000242,
      "v": 100
    },
    {
      "midi": 57,
      "hit": false,
      "t": 248715.64535000495,
      "d": 198.6755000000121,
      "v": 100
    },
    {
      "midi": 73,
      "hit": false,
      "t": 248715.64535000495,
      "d": 198.6755000000121,
      "v": 100
    },
    {
      "midi": 76,
      "hit": false,
      "t": 248715.64535000495,
      "d": 198.6755000000121,
      "v": 100
    },
    {
      "midi": 61,
      "hit": false,
      "t": 248715.64535000495,
      "d": 198.6755000000121,
      "v": 100
    },
    {
      "midi": 69,
      "hit": false,
      "t": 248715.64535000495,
      "d": 198.6755000000121,
      "v": 100
    },
    {
      "midi": 64,
      "hit": false,
      "t": 248715.64535000495,
      "d": 198.6755000000121,
      "v": 100
    },
    {
      "midi": 49,
      "hit": false,
      "t": 248715.64535000495,
      "d": 397.3510000000242,
      "v": 100
    },
    {
      "midi": 62,
      "hit": false,
      "t": 248914.32085000497,
      "d": 99.33775000000605,
      "v": 100
    },
    {
      "midi": 38,
      "hit": false,
      "t": 248914.32085000497,
      "d": 397.3510000000242,
      "v": 100
    },
    {
      "midi": 42,
      "hit": false,
      "t": 248914.32085000497,
      "d": 397.3510000000242,
      "v": 100
    },
    {
      "midi": 81,
      "hit": false,
      "t": 248914.32085000497,
      "d": 397.3510000000242,
      "v": 100
    },
    {
      "midi": 62,
      "hit": false,
      "t": 249013.65860000497,
      "d": 99.33775000000605,
      "v": 100
    },
    {
      "midi": 61,
      "hit": false,
      "t": 249112.99635000498,
      "d": 397.3510000000242,
      "v": 100
    },
    {
      "midi": 47,
      "hit": false,
      "t": 249112.99635000498,
      "d": 397.3510000000242,
      "v": 100
    },
    {
      "midi": 64,
      "hit": false,
      "t": 249112.99635000498,
      "d": 397.3510000000242,
      "v": 100
    },
    {
      "midi": 57,
      "hit": false,
      "t": 249112.99635000498,
      "d": 397.3510000000242,
      "v": 100
    },
    {
      "midi": 69,
      "hit": false,
      "t": 249112.99635000498,
      "d": 993.3775000000605,
      "v": 100
    },
    {
      "midi": 79,
      "hit": false,
      "t": 249311.671850005,
      "d": 298.01325000001816,
      "v": 100
    },
    {
      "midi": 38,
      "hit": false,
      "t": 249311.671850005,
      "d": 397.3510000000242,
      "v": 100
    },
    {
      "midi": 42,
      "hit": false,
      "t": 249311.671850005,
      "d": 397.3510000000242,
      "v": 100
    },
    {
      "midi": 61,
      "hit": false,
      "t": 249510.347350005,
      "d": 198.6755000000121,
      "v": 100
    },
    {
      "midi": 36,
      "hit": false,
      "t": 249510.347350005,
      "d": 198.6755000000121,
      "v": 100
    },
    {
      "midi": 57,
      "hit": false,
      "t": 249510.347350005,
      "d": 198.6755000000121,
      "v": 100
    },
    {
      "midi": 64,
      "hit": false,
      "t": 249510.347350005,
      "d": 198.6755000000121,
      "v": 100
    },
    {
      "midi": 45,
      "hit": false,
      "t": 249510.347350005,
      "d": 397.3510000000242,
      "v": 100
    },
    {
      "midi": 78,
      "hit": false,
      "t": 249609.685100005,
      "d": 298.01325000001816,
      "v": 100
    },
    {
      "midi": 64,
      "hit": false,
      "t": 249709.022850005,
      "d": 397.3510000000242,
      "v": 100
    },
    {
      "midi": 42,
      "hit": false,
      "t": 249709.022850005,
      "d": 397.3510000000242,
      "v": 100
    },
    {
      "midi": 61,
      "hit": false,
      "t": 249709.022850005,
      "d": 397.3510000000242,
      "v": 100
    },
    {
      "midi": 57,
      "hit": false,
      "t": 249709.022850005,
      "d": 397.3510000000242,
      "v": 100
    },
    {
      "midi": 38,
      "hit": false,
      "t": 249709.022850005,
      "d": 397.3510000000242,
      "v": 100
    },
    {
      "midi": 36,
      "hit": false,
      "t": 249907.69835000503,
      "d": 198.6755000000121,
      "v": 100
    },
    {
      "midi": 74,
      "hit": false,
      "t": 249907.69835000503,
      "d": 198.6755000000121,
      "v": 100
    },
    {
      "midi": 45,
      "hit": false,
      "t": 249907.69835000503,
      "d": 198.6755000000121,
      "v": 100
    },
    {
      "midi": 36,
      "hit": false,
      "t": 250106.37385000504,
      "d": 397.3509999999951,
      "v": 100
    },
    {
      "midi": 64,
      "hit": false,
      "t": 250106.37385000504,
      "d": 397.3509999999951,
      "v": 100
    },
    {
      "midi": 61,
      "hit": false,
      "t": 250106.37385000504,
      "d": 397.3509999999951,
      "v": 100
    },
    {
      "midi": 47,
      "hit": false,
      "t": 250106.37385000504,
      "d": 397.3509999999951,
      "v": 100
    },
    {
      "midi": 38,
      "hit": false,
      "t": 250106.37385000504,
      "d": 397.3509999999951,
      "v": 100
    },
    {
      "midi": 42,
      "hit": false,
      "t": 250106.37385000504,
      "d": 397.3509999999951,
      "v": 100
    },
    {
      "midi": 76,
      "hit": false,
      "t": 250106.37385000504,
      "d": 596.0265000000072,
      "v": 100
    },
    {
      "midi": 69,
      "hit": false,
      "t": 250106.37385000504,
      "d": 596.0265000000072,
      "v": 100
    },
    {
      "midi": 73,
      "hit": false,
      "t": 250106.37385000504,
      "d": 596.0265000000072,
      "v": 100
    },
    {
      "midi": 62,
      "hit": false,
      "t": 250503.72485000503,
      "d": 198.6755000000121,
      "v": 100
    },
    {
      "midi": 45,
      "hit": false,
      "t": 250503.72485000503,
      "d": 198.6755000000121,
      "v": 100
    },
    {
      "midi": 42,
      "hit": false,
      "t": 250503.72485000503,
      "d": 397.3510000000242,
      "v": 100
    },
    {
      "midi": 38,
      "hit": false,
      "t": 250503.72485000503,
      "d": 397.3510000000242,
      "v": 100
    },
    {
      "midi": 47,
      "hit": false,
      "t": 250702.40035000505,
      "d": 397.3510000000242,
      "v": 100
    },
    {
      "midi": 78,
      "hit": false,
      "t": 250702.40035000505,
      "d": 397.3510000000242,
      "v": 100
    },
    {
      "midi": 64,
      "hit": false,
      "t": 250702.40035000505,
      "d": 596.0265000000363,
      "v": 100
    },
    {
      "midi": 69,
      "hit": false,
      "t": 250702.40035000505,
      "d": 596.0265000000363,
      "v": 100
    },
    {
      "midi": 66,
      "hit": false,
      "t": 250702.40035000505,
      "d": 596.0265000000363,
      "v": 100
    },
    {
      "midi": 74,
      "hit": false,
      "t": 250702.40035000505,
      "d": 596.0265000000363,
      "v": 100
    },
    {
      "midi": 61,
      "hit": false,
      "t": 250702.40035000505,
      "d": 596.0265000000363,
      "v": 100
    },
    {
      "midi": 62,
      "hit": false,
      "t": 250702.40035000505,
      "d": 596.0265000000363,
      "v": 100
    },
    {
      "midi": 38,
      "hit": false,
      "t": 250901.07585000506,
      "d": 397.3510000000242,
      "v": 100
    },
    {
      "midi": 42,
      "hit": false,
      "t": 250901.07585000506,
      "d": 397.3510000000242,
      "v": 100
    },
    {
      "midi": 36,
      "hit": false,
      "t": 251099.75135000507,
      "d": 198.6755000000121,
      "v": 100
    },
    {
      "midi": 45,
      "hit": false,
      "t": 251099.75135000507,
      "d": 198.6755000000121,
      "v": 100
    },
    {
      "midi": 79,
      "hit": false,
      "t": 251099.75135000507,
      "d": 397.3510000000242,
      "v": 100
    },
    {
      "midi": 64,
      "hit": false,
      "t": 251298.42685000508,
      "d": 198.6755000000121,
      "v": 100
    },
    {
      "midi": 61,
      "hit": false,
      "t": 251298.42685000508,
      "d": 198.6755000000121,
      "v": 100
    },
    {
      "midi": 47,
      "hit": false,
      "t": 251298.42685000508,
      "d": 198.6755000000121,
      "v": 100
    },
    {
      "midi": 38,
      "hit": false,
      "t": 251298.42685000508,
      "d": 397.3510000000242,
      "v": 100
    },
    {
      "midi": 42,
      "hit": false,
      "t": 251298.42685000508,
      "d": 397.3510000000242,
      "v": 100
    },
    {
      "midi": 62,
      "hit": false,
      "t": 251497.1023500051,
      "d": 99.33775000000605,
      "v": 100
    },
    {
      "midi": 45,
      "hit": false,
      "t": 251497.1023500051,
      "d": 198.6755000000121,
      "v": 100
    },
    {
      "midi": 36,
      "hit": false,
      "t": 251596.4401000051,
      "d": 99.33775000000605,
      "v": 100
    },
    {
      "midi": 62,
      "hit": false,
      "t": 251596.4401000051,
      "d": 99.33775000000605,
      "v": 100
    },
    {
      "midi": 67,
      "hit": false,
      "t": 251695.7778500051,
      "d": 198.6755000000121,
      "v": 100
    },
    {
      "midi": 62,
      "hit": false,
      "t": 251695.7778500051,
      "d": 198.6755000000121,
      "v": 100
    },
    {
      "midi": 71,
      "hit": false,
      "t": 251695.7778500051,
      "d": 198.6755000000121,
      "v": 100
    },
    {
      "midi": 75,
      "hit": false,
      "t": 251695.7778500051,
      "d": 198.6755000000121,
      "v": 100
    },
    {
      "midi": 79,
      "hit": false,
      "t": 251695.7778500051,
      "d": 198.6755000000121,
      "v": 100
    },
    {
      "midi": 43,
      "hit": false,
      "t": 251695.7778500051,
      "d": 198.6755000000121,
      "v": 100
    },
    {
      "midi": 63,
      "hit": false,
      "t": 251695.7778500051,
      "d": 198.6755000000121,
      "v": 100
    },
    {
      "midi": 38,
      "hit": false,
      "t": 251695.7778500051,
      "d": 397.3510000000242,
      "v": 100
    },
    {
      "midi": 42,
      "hit": false,
      "t": 251695.7778500051,
      "d": 397.3510000000242,
      "v": 100
    },
    {
      "midi": 36,
      "hit": false,
      "t": 251894.45335000512,
      "d": 198.6755000000121,
      "v": 100
    },
    {
      "midi": 75,
      "hit": false,
      "t": 251894.45335000512,
      "d": 198.6755000000121,
      "v": 100
    },
    {
      "midi": 63,
      "hit": false,
      "t": 251894.45335000512,
      "d": 198.6755000000121,
      "v": 100
    },
    {
      "midi": 43,
      "hit": false,
      "t": 251894.45335000512,
      "d": 198.6755000000121,
      "v": 100
    },
    {
      "midi": 71,
      "hit": false,
      "t": 251894.45335000512,
      "d": 198.6755000000121,
      "v": 100
    },
    {
      "midi": 62,
      "hit": false,
      "t": 251894.45335000512,
      "d": 198.6755000000121,
      "v": 100
    },
    {
      "midi": 67,
      "hit": false,
      "t": 251894.45335000512,
      "d": 198.6755000000121,
      "v": 100
    },
    {
      "midi": 79,
      "hit": false,
      "t": 251894.45335000512,
      "d": 198.6755000000121,
      "v": 100
    },
    {
      "midi": 67,
      "hit": false,
      "t": 252093.12885000513,
      "d": 198.6755000000121,
      "v": 100
    },
    {
      "midi": 62,
      "hit": false,
      "t": 252093.12885000513,
      "d": 198.6755000000121,
      "v": 100
    },
    {
      "midi": 71,
      "hit": false,
      "t": 252093.12885000513,
      "d": 198.6755000000121,
      "v": 100
    },
    {
      "midi": 75,
      "hit": false,
      "t": 252093.12885000513,
      "d": 198.6755000000121,
      "v": 100
    },
    {
      "midi": 79,
      "hit": false,
      "t": 252093.12885000513,
      "d": 198.6755000000121,
      "v": 100
    },
    {
      "midi": 43,
      "hit": false,
      "t": 252093.12885000513,
      "d": 198.6755000000121,
      "v": 100
    },
    {
      "midi": 63,
      "hit": false,
      "t": 252093.12885000513,
      "d": 198.6755000000121,
      "v": 100
    },
    {
      "midi": 38,
      "hit": false,
      "t": 252093.12885000513,
      "d": 397.3510000000242,
      "v": 100
    },
    {
      "midi": 42,
      "hit": false,
      "t": 252093.12885000513,
      "d": 397.3510000000242,
      "v": 100
    },
    {
      "midi": 66,
      "hit": false,
      "t": 252291.80435000514,
      "d": 198.6755000000121,
      "v": 100
    },
    {
      "midi": 62,
      "hit": false,
      "t": 252291.80435000514,
      "d": 198.6755000000121,
      "v": 100
    },
    {
      "midi": 43,
      "hit": false,
      "t": 252291.80435000514,
      "d": 198.6755000000121,
      "v": 100
    },
    {
      "midi": 78,
      "hit": false,
      "t": 252291.80435000514,
      "d": 198.6755000000121,
      "v": 100
    },
    {
      "midi": 71,
      "hit": false,
      "t": 252291.80435000514,
      "d": 198.6755000000121,
      "v": 100
    },
    {
      "midi": 74,
      "hit": false,
      "t": 252291.80435000514,
      "d": 198.6755000000121,
      "v": 100
    },
    {
      "midi": 38,
      "hit": false,
      "t": 252490.47985000515,
      "d": 198.6755000000121,
      "v": 100
    },
    {
      "midi": 42,
      "hit": false,
      "t": 252490.47985000515,
      "d": 198.6755000000121,
      "v": 100
    },
    {
      "midi": 47,
      "hit": false,
      "t": 252689.15535000517,
      "d": 198.6755000000121,
      "v": 100
    },
    {
      "midi": 78,
      "hit": false,
      "t": 252689.15535000517,
      "d": 198.6755000000121,
      "v": 100
    },
    {
      "midi": 69,
      "hit": false,
      "t": 252689.15535000517,
      "d": 397.3510000000242,
      "v": 100
    },
    {
      "midi": 62,
      "hit": false,
      "t": 252689.15535000517,
      "d": 397.3510000000242,
      "v": 100
    },
    {
      "midi": 71,
      "hit": false,
      "t": 252689.15535000517,
      "d": 596.0265000000363,
      "v": 100
    },
    {
      "midi": 66,
      "hit": false,
      "t": 252689.15535000517,
      "d": 596.0265000000363,
      "v": 100
    },
    {
      "midi": 74,
      "hit": false,
      "t": 252689.15535000517,
      "d": 596.0265000000363,
      "v": 100
    },
    {
      "midi": 81,
      "hit": false,
      "t": 252689.15535000517,
      "d": 596.0265000000363,
      "v": 100
    },
    {
      "midi": 47,
      "hit": false,
      "t": 252887.83085000518,
      "d": 198.6755000000121,
      "v": 100
    },
    {
      "midi": 78,
      "hit": false,
      "t": 252887.83085000518,
      "d": 198.6755000000121,
      "v": 100
    },
    {
      "midi": 47,
      "hit": false,
      "t": 253086.5063500052,
      "d": 198.6755000000121,
      "v": 100
    },
    {
      "midi": 62,
      "hit": false,
      "t": 253086.5063500052,
      "d": 198.6755000000121,
      "v": 100
    },
    {
      "midi": 78,
      "hit": false,
      "t": 253086.5063500052,
      "d": 198.6755000000121,
      "v": 100
    },
    {
      "midi": 69,
      "hit": false,
      "t": 253086.5063500052,
      "d": 198.6755000000121,
      "v": 100
    },
    {
      "midi": 62,
      "hit": false,
      "t": 253285.1818500052,
      "d": 198.6755000000121,
      "v": 100
    },
    {
      "midi": 78,
      "hit": false,
      "t": 253285.1818500052,
      "d": 298.01325000001816,
      "v": 100
    },
    {
      "midi": 71,
      "hit": false,
      "t": 253285.1818500052,
      "d": 298.01325000001816,
      "v": 100
    },
    {
      "midi": 67,
      "hit": false,
      "t": 253285.1818500052,
      "d": 298.01325000001816,
      "v": 100
    },
    {
      "midi": 74,
      "hit": false,
      "t": 253285.1818500052,
      "d": 298.01325000001816,
      "v": 100
    },
    {
      "midi": 40,
      "hit": false,
      "t": 253285.1818500052,
      "d": 397.3510000000242,
      "v": 100
    },
    {
      "midi": 57,
      "hit": false,
      "t": 253285.1818500052,
      "d": 397.3510000000242,
      "v": 100
    },
    {
      "midi": 36,
      "hit": false,
      "t": 253285.1818500052,
      "d": 397.3510000000242,
      "v": 100
    },
    {
      "midi": 38,
      "hit": false,
      "t": 253285.1818500052,
      "d": 397.3510000000242,
      "v": 100
    },
    {
      "midi": 62,
      "hit": false,
      "t": 253483.85735000522,
      "d": 198.6755000000121,
      "v": 100
    },
    {
      "midi": 78,
      "hit": false,
      "t": 253583.19510000522,
      "d": 99.33775000000605,
      "v": 100
    },
    {
      "midi": 74,
      "hit": false,
      "t": 253583.19510000522,
      "d": 99.33775000000605,
      "v": 100
    },
    {
      "midi": 71,
      "hit": false,
      "t": 253583.19510000522,
      "d": 99.33775000000605,
      "v": 100
    },
    {
      "midi": 67,
      "hit": false,
      "t": 253583.19510000522,
      "d": 99.33775000000605,
      "v": 100
    },
    {
      "midi": 71,
      "hit": false,
      "t": 253682.53285000523,
      "d": 198.6755000000121,
      "v": 100
    },
    {
      "midi": 66,
      "hit": false,
      "t": 253682.53285000523,
      "d": 198.6755000000121,
      "v": 100
    },
    {
      "midi": 62,
      "hit": false,
      "t": 253682.53285000523,
      "d": 198.6755000000121,
      "v": 100
    },
    {
      "midi": 40,
      "hit": false,
      "t": 253682.53285000523,
      "d": 298.01325000001816,
      "v": 100
    },
    {
      "midi": 42,
      "hit": false,
      "t": 253682.53285000523,
      "d": 397.3510000000242,
      "v": 100
    },
    {
      "midi": 78,
      "hit": false,
      "t": 253682.53285000523,
      "d": 397.3510000000242,
      "v": 100
    },
    {
      "midi": 74,
      "hit": false,
      "t": 253682.53285000523,
      "d": 397.3510000000242,
      "v": 100
    },
    {
      "midi": 67,
      "hit": false,
      "t": 253682.53285000523,
      "d": 397.3510000000242,
      "v": 100
    },
    {
      "midi": 62,
      "hit": false,
      "t": 253881.20835000524,
      "d": 99.33775000000605,
      "v": 100
    },
    {
      "midi": 62,
      "hit": false,
      "t": 253980.54610000525,
      "d": 99.33775000000605,
      "v": 100
    },
    {
      "midi": 38,
      "hit": false,
      "t": 253980.54610000525,
      "d": 99.33775000000605,
      "v": 100
    },
    {
      "midi": 62,
      "hit": false,
      "t": 254079.88385000525,
      "d": 198.6755000000121,
      "v": 100
    },
    {
      "midi": 40,
      "hit": false,
      "t": 254079.88385000525,
      "d": 198.6755000000121,
      "v": 100
    },
    {
      "midi": 78,
      "hit": false,
      "t": 254079.88385000525,
      "d": 198.6755000000121,
      "v": 100
    },
    {
      "midi": 42,
      "hit": false,
      "t": 254079.88385000525,
      "d": 397.3510000000242,
      "v": 100
    },
    {
      "midi": 38,
      "hit": false,
      "t": 254079.88385000525,
      "d": 397.3510000000242,
      "v": 100
    },
    {
      "midi": 36,
      "hit": false,
      "t": 254278.55935000526,
      "d": 198.6755000000121,
      "v": 100
    },
    {
      "midi": 71,
      "hit": false,
      "t": 254278.55935000526,
      "d": 397.3510000000242,
      "v": 100
    },
    {
      "midi": 43,
      "hit": false,
      "t": 254278.55935000526,
      "d": 397.3510000000242,
      "v": 100
    },
    {
      "midi": 62,
      "hit": false,
      "t": 254278.55935000526,
      "d": 397.3510000000242,
      "v": 100
    },
    {
      "midi": 66,
      "hit": false,
      "t": 254278.55935000526,
      "d": 397.3510000000242,
      "v": 100
    },
    {
      "midi": 76,
      "hit": false,
      "t": 254278.55935000526,
      "d": 397.3510000000242,
      "v": 100
    },
    {
      "midi": 42,
      "hit": false,
      "t": 254477.23485000528,
      "d": 397.3510000000242,
      "v": 100
    },
    {
      "midi": 38,
      "hit": false,
      "t": 254477.23485000528,
      "d": 397.3510000000242,
      "v": 100
    },
    {
      "midi": 36,
      "hit": false,
      "t": 254675.9103500053,
      "d": 198.6755000000121,
      "v": 100
    },
    {
      "midi": 71,
      "hit": false,
      "t": 254675.9103500053,
      "d": 198.6755000000121,
      "v": 100
    },
    {
      "midi": 78,
      "hit": false,
      "t": 254675.9103500053,
      "d": 198.6755000000121,
      "v": 100
    },
    {
      "midi": 74,
      "hit": false,
      "t": 254675.9103500053,
      "d": 198.6755000000121,
      "v": 100
    },
    {
      "midi": 62,
      "hit": false,
      "t": 254675.9103500053,
      "d": 198.6755000000121,
      "v": 100
    },
    {
      "midi": 67,
      "hit": false,
      "t": 254675.9103500053,
      "d": 198.6755000000121,
      "v": 100
    },
    {
      "midi": 40,
      "hit": false,
      "t": 254675.9103500053,
      "d": 198.6755000000121,
      "v": 100
    },
    {
      "midi": 81,
      "hit": false,
      "t": 254675.9103500053,
      "d": 397.3510000000242,
      "v": 100
    },
    {
      "midi": 62,
      "hit": false,
      "t": 254874.5858500053,
      "d": 198.6755000000121,
      "v": 100
    },
    {
      "midi": 42,
      "hit": false,
      "t": 254874.5858500053,
      "d": 198.6755000000121,
      "v": 100
    },
    {
      "midi": 78,
      "hit": false,
      "t": 254874.5858500053,
      "d": 198.6755000000121,
      "v": 100
    },
    {
      "midi": 71,
      "hit": false,
      "t": 254874.5858500053,
      "d": 198.6755000000121,
      "v": 100
    },
    {
      "midi": 74,
      "hit": false,
      "t": 254874.5858500053,
      "d": 198.6755000000121,
      "v": 100
    },
    {
      "midi": 67,
      "hit": false,
      "t": 254874.5858500053,
      "d": 198.6755000000121,
      "v": 100
    },
    {
      "midi": 38,
      "hit": false,
      "t": 254874.5858500053,
      "d": 397.3510000000242,
      "v": 100
    },
    {
      "midi": 36,
      "hit": false,
      "t": 254874.5858500053,
      "d": 397.3510000000242,
      "v": 100
    },
    {
      "midi": 73,
      "hit": false,
      "t": 255073.2613500053,
      "d": 198.6755000000121,
      "v": 100
    },
    {
      "midi": 76,
      "hit": false,
      "t": 255073.2613500053,
      "d": 198.6755000000121,
      "v": 100
    },
    {
      "midi": 69,
      "hit": false,
      "t": 255073.2613500053,
      "d": 198.6755000000121,
      "v": 100
    },
    {
      "midi": 64,
      "hit": false,
      "t": 255073.2613500053,
      "d": 198.6755000000121,
      "v": 100
    },
    {
      "midi": 45,
      "hit": false,
      "t": 255073.2613500053,
      "d": 198.6755000000121,
      "v": 100
    },
    {
      "midi": 66,
      "hit": false,
      "t": 255073.2613500053,
      "d": 198.6755000000121,
      "v": 100
    },
    {
      "midi": 79,
      "hit": false,
      "t": 255073.2613500053,
      "d": 397.3510000000242,
      "v": 100
    },
    {
      "midi": 62,
      "hit": false,
      "t": 255271.93685000532,
      "d": 198.6755000000121,
      "v": 100
    },
    {
      "midi": 47,
      "hit": false,
      "t": 255271.93685000532,
      "d": 198.6755000000121,
      "v": 100
    },
    {
      "midi": 74,
      "hit": false,
      "t": 255271.93685000532,
      "d": 298.01325000001816,
      "v": 100
    },
    {
      "midi": 71,
      "hit": false,
      "t": 255271.93685000532,
      "d": 298.01325000001816,
      "v": 100
    },
    {
      "midi": 67,
      "hit": false,
      "t": 255271.93685000532,
      "d": 298.01325000001816,
      "v": 100
    },
    {
      "midi": 38,
      "hit": false,
      "t": 255271.93685000532,
      "d": 397.3510000000242,
      "v": 100
    },
    {
      "midi": 42,
      "hit": false,
      "t": 255271.93685000532,
      "d": 397.3510000000242,
      "v": 100
    },
    {
      "midi": 78,
      "hit": false,
      "t": 255470.61235000534,
      "d": 99.33775000000605,
      "v": 100
    },
    {
      "midi": 45,
      "hit": false,
      "t": 255470.61235000534,
      "d": 198.6755000000121,
      "v": 100
    },
    {
      "midi": 64,
      "hit": false,
      "t": 255470.61235000534,
      "d": 397.3510000000242,
      "v": 100
    },
    {
      "midi": 66,
      "hit": false,
      "t": 255470.61235000534,
      "d": 397.3510000000242,
      "v": 100
    },
    {
      "midi": 76,
      "hit": false,
      "t": 255569.95010000534,
      "d": 99.33775000000605,
      "v": 100
    },
    {
      "midi": 69,
      "hit": false,
      "t": 255569.95010000534,
      "d": 99.33775000000605,
      "v": 100
    },
    {
      "midi": 73,
      "hit": false,
      "t": 255569.95010000534,
      "d": 99.33775000000605,
      "v": 100
    },
    {
      "midi": 49,
      "hit": false,
      "t": 255669.28785000535,
      "d": 198.6755000000121,
      "v": 100
    },
    {
      "midi": 38,
      "hit": false,
      "t": 255669.28785000535,
      "d": 397.3510000000242,
      "v": 100
    },
    {
      "midi": 42,
      "hit": false,
      "t": 255669.28785000535,
      "d": 397.3510000000242,
      "v": 100
    },
    {
      "midi": 36,
      "hit": false,
      "t": 255867.96335000536,
      "d": 198.6755000000121,
      "v": 100
    },
    {
      "midi": 66,
      "hit": false,
      "t": 255867.96335000536,
      "d": 198.6755000000121,
      "v": 100
    },
    {
      "midi": 73,
      "hit": false,
      "t": 255867.96335000536,
      "d": 198.6755000000121,
      "v": 100
    },
    {
      "midi": 47,
      "hit": false,
      "t": 255867.96335000536,
      "d": 198.6755000000121,
      "v": 100
    },
    {
      "midi": 64,
      "hit": false,
      "t": 255867.96335000536,
      "d": 198.6755000000121,
      "v": 100
    },
    {
      "midi": 76,
      "hit": false,
      "t": 255867.96335000536,
      "d": 596.0265000000363,
      "v": 100
    },
    {
      "midi": 69,
      "hit": false,
      "t": 255867.96335000536,
      "d": 596.0265000000363,
      "v": 100
    },
    {
      "midi": 73,
      "hit": false,
      "t": 256066.63885000537,
      "d": 198.6755000000121,
      "v": 100
    },
    {
      "midi": 64,
      "hit": false,
      "t": 256066.63885000537,
      "d": 198.6755000000121,
      "v": 100
    },
    {
      "midi": 66,
      "hit": false,
      "t": 256066.63885000537,
      "d": 198.6755000000121,
      "v": 100
    },
    {
      "midi": 45,
      "hit": false,
      "t": 256066.63885000537,
      "d": 198.6755000000121,
      "v": 100
    },
    {
      "midi": 38,
      "hit": false,
      "t": 256066.63885000537,
      "d": 397.3510000000242,
      "v": 100
    },
    {
      "midi": 42,
      "hit": false,
      "t": 256066.63885000537,
      "d": 397.3510000000242,
      "v": 100
    },
    {
      "midi": 36,
      "hit": false,
      "t": 256265.31435000538,
      "d": 198.6755000000121,
      "v": 100
    },
    {
      "midi": 66,
      "hit": false,
      "t": 256265.31435000538,
      "d": 198.6755000000121,
      "v": 100
    },
    {
      "midi": 64,
      "hit": false,
      "t": 256265.31435000538,
      "d": 198.6755000000121,
      "v": 100
    },
    {
      "midi": 47,
      "hit": false,
      "t": 256265.31435000538,
      "d": 198.6755000000121,
      "v": 100
    },
    {
      "midi": 73,
      "hit": false,
      "t": 256265.31435000538,
      "d": 198.6755000000121,
      "v": 100
    },
    {
      "midi": 62,
      "hit": false,
      "t": 256463.9898500054,
      "d": 198.6755000000121,
      "v": 100
    },
    {
      "midi": 38,
      "hit": false,
      "t": 256463.9898500054,
      "d": 397.3510000000242,
      "v": 100
    },
    {
      "midi": 36,
      "hit": false,
      "t": 256463.9898500054,
      "d": 397.3510000000242,
      "v": 100
    },
    {
      "midi": 82,
      "hit": false,
      "t": 256463.9898500054,
      "d": 397.3510000000242,
      "v": 100
    },
    {
      "midi": 42,
      "hit": false,
      "t": 256463.9898500054,
      "d": 397.3510000000242,
      "v": 100
    },
    {
      "midi": 62,
      "hit": false,
      "t": 256662.6653500054,
      "d": 198.6755000000121,
      "v": 100
    },
    {
      "midi": 85,
      "hit": false,
      "t": 256861.34085000542,
      "d": 198.6755000000121,
      "v": 100
    },
    {
      "midi": 38,
      "hit": false,
      "t": 256861.34085000542,
      "d": 298.01325000001816,
      "v": 100
    },
    {
      "midi": 66,
      "hit": false,
      "t": 256861.34085000542,
      "d": 397.3510000000242,
      "v": 100
    },
    {
      "midi": 64,
      "hit": false,
      "t": 256861.34085000542,
      "d": 397.3510000000242,
      "v": 100
    },
    {
      "midi": 70,
      "hit": false,
      "t": 256861.34085000542,
      "d": 397.3510000000242,
      "v": 100
    },
    {
      "midi": 76,
      "hit": false,
      "t": 256861.34085000542,
      "d": 397.3510000000242,
      "v": 100
    },
    {
      "midi": 73,
      "hit": false,
      "t": 256861.34085000542,
      "d": 397.3510000000242,
      "v": 100
    },
    {
      "midi": 42,
      "hit": false,
      "t": 256861.34085000542,
      "d": 397.3510000000242,
      "v": 100
    },
    {
      "midi": 78,
      "hit": false,
      "t": 257060.01635000543,
      "d": 397.3510000000242,
      "v": 100
    },
    {
      "midi": 37,
      "hit": false,
      "t": 257159.35410000544,
      "d": 99.33775000000605,
      "v": 100
    },
    {
      "midi": 62,
      "hit": false,
      "t": 257258.69185000545,
      "d": 198.6755000000121,
      "v": 100
    },
    {
      "midi": 38,
      "hit": false,
      "t": 257258.69185000545,
      "d": 198.6755000000121,
      "v": 100
    },
    {
      "midi": 36,
      "hit": false,
      "t": 257457.36735000546,
      "d": 198.6755000000121,
      "v": 100
    },
    {
      "midi": 76,
      "hit": false,
      "t": 257457.36735000546,
      "d": 198.6755000000121,
      "v": 100
    },
    {
      "midi": 73,
      "hit": false,
      "t": 257457.36735000546,
      "d": 198.6755000000121,
      "v": 100
    },
    {
      "midi": 42,
      "hit": false,
      "t": 257457.36735000546,
      "d": 198.6755000000121,
      "v": 100
    },
    {
      "midi": 70,
      "hit": false,
      "t": 257457.36735000546,
      "d": 198.6755000000121,
      "v": 100
    },
    {
      "midi": 66,
      "hit": false,
      "t": 257457.36735000546,
      "d": 198.6755000000121,
      "v": 100
    },
    {
      "midi": 64,
      "hit": false,
      "t": 257457.36735000546,
      "d": 397.3510000000242,
      "v": 100
    },
    {
      "midi": 42,
      "hit": false,
      "t": 257656.04285000547,
      "d": 198.6755000000121,
      "v": 100
    },
    {
      "midi": 38,
      "hit": false,
      "t": 257656.04285000547,
      "d": 397.3510000000242,
      "v": 100
    },
    {
      "midi": 45,
      "hit": false,
      "t": 257854.71835000548,
      "d": 198.6755000000121,
      "v": 100
    },
    {
      "midi": 70,
      "hit": false,
      "t": 257854.71835000548,
      "d": 198.6755000000121,
      "v": 100
    },
    {
      "midi": 73,
      "hit": false,
      "t": 257854.71835000548,
      "d": 198.6755000000121,
      "v": 100
    },
    {
      "midi": 76,
      "hit": false,
      "t": 257854.71835000548,
      "d": 198.6755000000121,
      "v": 100
    },
    {
      "midi": 66,
      "hit": false,
      "t": 257854.71835000548,
      "d": 198.6755000000121,
      "v": 100
    },
    {
      "midi": 64,
      "hit": false,
      "t": 257854.71835000548,
      "d": 198.6755000000121,
      "v": 100
    },
    {
      "midi": 36,
      "hit": false,
      "t": 257954.0561000055,
      "d": 99.33775000000605,
      "v": 100
    },
    {
      "midi": 76,
      "hit": false,
      "t": 258053.3938500055,
      "d": 198.6755000000121,
      "v": 100
    },
    {
      "midi": 43,
      "hit": false,
      "t": 258053.3938500055,
      "d": 198.6755000000121,
      "v": 100
    },
    {
      "midi": 73,
      "hit": false,
      "t": 258053.3938500055,
      "d": 198.6755000000121,
      "v": 100
    },
    {
      "midi": 66,
      "hit": false,
      "t": 258053.3938500055,
      "d": 198.6755000000121,
      "v": 100
    },
    {
      "midi": 71,
      "hit": false,
      "t": 258053.3938500055,
      "d": 198.6755000000121,
      "v": 100
    },
    {
      "midi": 38,
      "hit": false,
      "t": 258053.3938500055,
      "d": 397.3510000000242,
      "v": 100
    },
    {
      "midi": 42,
      "hit": false,
      "t": 258053.3938500055,
      "d": 397.3510000000242,
      "v": 100
    },
    {
      "midi": 69,
      "hit": false,
      "t": 258053.3938500055,
      "d": 596.0265000000363,
      "v": 100
    },
    {
      "midi": 36,
      "hit": false,
      "t": 258252.0693500055,
      "d": 198.6755000000121,
      "v": 100
    },
    {
      "midi": 71,
      "hit": false,
      "t": 258252.0693500055,
      "d": 198.6755000000121,
      "v": 100
    },
    {
      "midi": 66,
      "hit": false,
      "t": 258252.0693500055,
      "d": 198.6755000000121,
      "v": 100
    },
    {
      "midi": 43,
      "hit": false,
      "t": 258252.0693500055,
      "d": 198.6755000000121,
      "v": 100
    },
    {
      "midi": 76,
      "hit": false,
      "t": 258252.0693500055,
      "d": 198.6755000000121,
      "v": 100
    },
    {
      "midi": 74,
      "hit": false,
      "t": 258252.0693500055,
      "d": 198.6755000000121,
      "v": 100
    },
    {
      "midi": 76,
      "hit": false,
      "t": 258450.74485000552,
      "d": 198.6755000000121,
      "v": 100
    },
    {
      "midi": 71,
      "hit": false,
      "t": 258450.74485000552,
      "d": 198.6755000000121,
      "v": 100
    },
    {
      "midi": 43,
      "hit": false,
      "t": 258450.74485000552,
      "d": 198.6755000000121,
      "v": 100
    },
    {
      "midi": 66,
      "hit": false,
      "t": 258450.74485000552,
      "d": 198.6755000000121,
      "v": 100
    },
    {
      "midi": 38,
      "hit": false,
      "t": 258450.74485000552,
      "d": 397.3510000000242,
      "v": 100
    },
    {
      "midi": 42,
      "hit": false,
      "t": 258450.74485000552,
      "d": 397.3510000000242,
      "v": 100
    },
    {
      "midi": 71,
      "hit": false,
      "t": 258649.42035000553,
      "d": 198.6755000000121,
      "v": 100
    },
    {
      "midi": 74,
      "hit": false,
      "t": 258649.42035000553,
      "d": 198.6755000000121,
      "v": 100
    },
    {
      "midi": 43,
      "hit": false,
      "t": 258649.42035000553,
      "d": 198.6755000000121,
      "v": 100
    },
    {
      "midi": 36,
      "hit": false,
      "t": 258748.75810000554,
      "d": 99.33775000000605,
      "v": 100
    },
    {
      "midi": 43,
      "hit": false,
      "t": 258848.09585000554,
      "d": 198.6755000000121,
      "v": 100
    },
    {
      "midi": 38,
      "hit": false,
      "t": 258848.09585000554,
      "d": 397.3510000000242,
      "v": 100
    },
    {
      "midi": 42,
      "hit": false,
      "t": 258848.09585000554,
      "d": 397.3510000000242,
      "v": 100
    },
    {
      "midi": 36,
      "hit": false,
      "t": 259046.77135000555,
      "d": 198.6755000000121,
      "v": 100
    },
    {
      "midi": 74,
      "hit": false,
      "t": 259046.77135000555,
      "d": 198.6755000000121,
      "v": 100
    },
    {
      "midi": 45,
      "hit": false,
      "t": 259046.77135000555,
      "d": 198.6755000000121,
      "v": 100
    },
    {
      "midi": 71,
      "hit": false,
      "t": 259046.77135000555,
      "d": 198.6755000000121,
      "v": 100
    },
    {
      "midi": 78,
      "hit": false,
      "t": 259046.77135000555,
      "d": 198.6755000000121,
      "v": 100
    },
    {
      "midi": 74,
      "hit": false,
      "t": 259245.44685000557,
      "d": 198.6755000000121,
      "v": 100
    },
    {
      "midi": 71,
      "hit": false,
      "t": 259245.44685000557,
      "d": 198.6755000000121,
      "v": 100
    },
    {
      "midi": 78,
      "hit": false,
      "t": 259245.44685000557,
      "d": 198.6755000000121,
      "v": 100
    },
    {
      "midi": 38,
      "hit": false,
      "t": 259245.44685000557,
      "d": 397.3510000000242,
      "v": 100
    },
    {
      "midi": 42,
      "hit": false,
      "t": 259245.44685000557,
      "d": 397.3510000000242,
      "v": 100
    },
    {
      "midi": 47,
      "hit": false,
      "t": 259245.44685000557,
      "d": 397.3510000000242,
      "v": 100
    },
    {
      "midi": 36,
      "hit": false,
      "t": 259444.12235000558,
      "d": 198.6755000000121,
      "v": 100
    },
    {
      "midi": 74,
      "hit": false,
      "t": 259444.12235000558,
      "d": 198.6755000000121,
      "v": 100
    },
    {
      "midi": 78,
      "hit": false,
      "t": 259444.12235000558,
      "d": 198.6755000000121,
      "v": 100
    },
    {
      "midi": 71,
      "hit": false,
      "t": 259444.12235000558,
      "d": 198.6755000000121,
      "v": 100
    },
    {
      "midi": 62,
      "hit": false,
      "t": 259642.7978500056,
      "d": 198.6755000000121,
      "v": 100
    },
    {
      "midi": 78,
      "hit": false,
      "t": 259642.7978500056,
      "d": 298.01325000001816,
      "v": 100
    },
    {
      "midi": 38,
      "hit": false,
      "t": 259642.7978500056,
      "d": 397.3510000000242,
      "v": 100
    },
    {
      "midi": 42,
      "hit": false,
      "t": 259642.7978500056,
      "d": 397.3510000000242,
      "v": 100
    },
    {
      "midi": 40,
      "hit": false,
      "t": 259642.7978500056,
      "d": 397.3510000000242,
      "v": 100
    },
    {
      "midi": 36,
      "hit": false,
      "t": 259642.7978500056,
      "d": 397.3510000000242,
      "v": 100
    },
    {
      "midi": 62,
      "hit": false,
      "t": 259841.4733500056,
      "d": 198.6755000000121,
      "v": 100
    },
    {
      "midi": 76,
      "hit": false,
      "t": 259940.8111000056,
      "d": 298.01325000001816,
      "v": 100
    },
    {
      "midi": 40,
      "hit": false,
      "t": 260040.14885000561,
      "d": 298.01325000001816,
      "v": 100
    },
    {
      "midi": 67,
      "hit": false,
      "t": 260040.14885000561,
      "d": 397.3510000000242,
      "v": 100
    },
    {
      "midi": 66,
      "hit": false,
      "t": 260040.14885000561,
      "d": 397.3510000000242,
      "v": 100
    },
    {
      "midi": 78,
      "hit": false,
      "t": 260040.14885000561,
      "d": 397.3510000000242,
      "v": 100
    },
    {
      "midi": 74,
      "hit": false,
      "t": 260040.14885000561,
      "d": 397.3510000000242,
      "v": 100
    },
    {
      "midi": 62,
      "hit": false,
      "t": 260040.14885000561,
      "d": 397.3510000000242,
      "v": 100
    },
    {
      "midi": 42,
      "hit": false,
      "t": 260040.14885000561,
      "d": 397.3510000000242,
      "v": 100
    },
    {
      "midi": 71,
      "hit": false,
      "t": 260238.82435000563,
      "d": 198.6755000000121,
      "v": 100
    },
    {
      "midi": 38,
      "hit": false,
      "t": 260338.16210000563,
      "d": 99.33775000000605,
      "v": 100
    },
    {
      "midi": 62,
      "hit": false,
      "t": 260437.49985000564,
      "d": 198.6755000000121,
      "v": 100
    },
    {
      "midi": 40,
      "hit": false,
      "t": 260437.49985000564,
      "d": 198.6755000000121,
      "v": 100
    },
    {
      "midi": 38,
      "hit": false,
      "t": 260437.49985000564,
      "d": 397.3510000000242,
      "v": 100
    },
    {
      "midi": 42,
      "hit": false,
      "t": 260437.49985000564,
      "d": 397.3510000000242,
      "v": 100
    },
    {
      "midi": 36,
      "hit": false,
      "t": 260636.17535000565,
      "d": 198.6755000000121,
      "v": 100
    },
    {
      "midi": 62,
      "hit": false,
      "t": 260636.17535000565,
      "d": 397.3510000000242,
      "v": 100
    },
    {
      "midi": 43,
      "hit": false,
      "t": 260636.17535000565,
      "d": 397.3510000000242,
      "v": 100
    },
    {
      "midi": 71,
      "hit": false,
      "t": 260636.17535000565,
      "d": 397.3510000000242,
      "v": 100
    },
    {
      "midi": 66,
      "hit": false,
      "t": 260636.17535000565,
      "d": 397.3510000000242,
      "v": 100
    },
    {
      "midi": 74,
      "hit": false,
      "t": 260636.17535000565,
      "d": 596.0265000000363,
      "v": 100
    },
    {
      "midi": 67,
      "hit": false,
      "t": 260636.17535000565,
      "d": 596.0265000000363,
      "v": 100
    },
    {
      "midi": 78,
      "hit": false,
      "t": 260636.17535000565,
      "d": 794.7020000000484,
      "v": 100
    },
    {
      "midi": 42,
      "hit": false,
      "t": 260834.85085000566,
      "d": 397.3510000000242,
      "v": 100
    },
    {
      "midi": 38,
      "hit": false,
      "t": 260834.85085000566,
      "d": 397.3510000000242,
      "v": 100
    },
    {
      "midi": 62,
      "hit": false,
      "t": 261033.52635000568,
      "d": 198.6755000000121,
      "v": 100
    },
    {
      "midi": 40,
      "hit": false,
      "t": 261033.52635000568,
      "d": 198.6755000000121,
      "v": 100
    },
    {
      "midi": 42,
      "hit": false,
      "t": 261232.2018500057,
      "d": 198.6755000000121,
      "v": 100
    },
    {
      "midi": 38,
      "hit": false,
      "t": 261232.2018500057,
      "d": 397.3510000000242,
      "v": 100
    },
    {
      "midi": 66,
      "hit": false,
      "t": 261232.2018500057,
      "d": 794.7020000000484,
      "v": 100
    },
    {
      "midi": 64,
      "hit": false,
      "t": 261232.2018500057,
      "d": 794.7020000000484,
      "v": 100
    },
    {
      "midi": 36,
      "hit": false,
      "t": 261430.8773500057,
      "d": 198.6755000000121,
      "v": 100
    },
    {
      "midi": 69,
      "hit": false,
      "t": 261430.8773500057,
      "d": 198.6755000000121,
      "v": 100
    },
    {
      "midi": 76,
      "hit": false,
      "t": 261430.8773500057,
      "d": 198.6755000000121,
      "v": 100
    },
    {
      "midi": 73,
      "hit": false,
      "t": 261430.8773500057,
      "d": 198.6755000000121,
      "v": 100
    },
    {
      "midi": 49,
      "hit": false,
      "t": 261430.8773500057,
      "d": 397.3510000000242,
      "v": 100
    },
    {
      "midi": 76,
      "hit": false,
      "t": 261629.5528500057,
      "d": 198.6755000000121,
      "v": 100
    },
    {
      "midi": 69,
      "hit": false,
      "t": 261629.5528500057,
      "d": 198.6755000000121,
      "v": 100
    },
    {
      "midi": 73,
      "hit": false,
      "t": 261629.5528500057,
      "d": 198.6755000000121,
      "v": 100
    },
    {
      "midi": 42,
      "hit": false,
      "t": 261629.5528500057,
      "d": 397.3510000000242,
      "v": 100
    },
    {
      "midi": 38,
      "hit": false,
      "t": 261629.5528500057,
      "d": 397.3510000000242,
      "v": 100
    },
    {
      "midi": 73,
      "hit": false,
      "t": 261828.22835000572,
      "d": 198.6755000000121,
      "v": 100
    },
    {
      "midi": 69,
      "hit": false,
      "t": 261828.22835000572,
      "d": 198.6755000000121,
      "v": 100
    },
    {
      "midi": 76,
      "hit": false,
      "t": 261828.22835000572,
      "d": 198.6755000000121,
      "v": 100
    },
    {
      "midi": 47,
      "hit": false,
      "t": 261828.22835000572,
      "d": 397.3509999999951,
      "v": 100
    },
    {
      "midi": 38,
      "hit": false,
      "t": 262026.90385000574,
      "d": 198.675499999983,
      "v": 100
    },
    {
      "midi": 57,
      "hit": false,
      "t": 262026.90385000574,
      "d": 198.675499999983,
      "v": 100
    },
    {
      "midi": 62,
      "hit": false,
      "t": 262026.90385000574,
      "d": 198.675499999983,
      "v": 100
    },
    {
      "midi": 73,
      "hit": false,
      "t": 262225.5793500057,
      "d": 66.2251666666707,
      "v": 100
    },
    {
      "midi": 48,
      "hit": false,
      "t": 262225.5793500057,
      "d": 198.6755000000121,
      "v": 100
    },
    {
      "midi": 45,
      "hit": false,
      "t": 262225.5793500057,
      "d": 198.6755000000121,
      "v": 100
    },
    {
      "midi": 78,
      "hit": false,
      "t": 262225.5793500057,
      "d": 596.0265000000363,
      "v": 100
    },
    {
      "midi": 74,
      "hit": false,
      "t": 262291.8045166724,
      "d": 264.9006666666828,
      "v": 100
    },
    {
      "midi": 45,
      "hit": false,
      "t": 262424.25485000573,
      "d": 198.6755000000121,
      "v": 100
    },
    {
      "midi": 73,
      "hit": false,
      "t": 262424.25485000573,
      "d": 397.3510000000242,
      "v": 100
    },
    {
      "midi": 69,
      "hit": false,
      "t": 262424.25485000573,
      "d": 397.3510000000242,
      "v": 100
    },
    {
      "midi": 47,
      "hit": false,
      "t": 262424.25485000573,
      "d": 397.3510000000242,
      "v": 100
    },
    {
      "midi": 76,
      "hit": false,
      "t": 262556.7051833391,
      "d": 264.9006666666828,
      "v": 100
    },
    {
      "midi": 45,
      "hit": false,
      "t": 262622.93035000574,
      "d": 198.6755000000121,
      "v": 100
    },
    {
      "midi": 73,
      "hit": false,
      "t": 262821.60585000576,
      "d": 198.6755000000121,
      "v": 100
    },
    {
      "midi": 36,
      "hit": false,
      "t": 262821.60585000576,
      "d": 397.3510000000242,
      "v": 100
    },
    {
      "midi": 57,
      "hit": false,
      "t": 262821.60585000576,
      "d": 397.3510000000242,
      "v": 100
    },
    {
      "midi": 83,
      "hit": false,
      "t": 262821.60585000576,
      "d": 596.0265000000363,
      "v": 100
    },
    {
      "midi": 78,
      "hit": false,
      "t": 262821.60585000576,
      "d": 596.0265000000363,
      "v": 100
    },
    {
      "midi": 76,
      "hit": false,
      "t": 262821.60585000576,
      "d": 596.0265000000363,
      "v": 100
    },
    {
      "midi": 43,
      "hit": false,
      "t": 262821.60585000576,
      "d": 596.0265000000363,
      "v": 100
    },
    {
      "midi": 74,
      "hit": false,
      "t": 262821.60585000576,
      "d": 596.0265000000363,
      "v": 100
    },
    {
      "midi": 71,
      "hit": false,
      "t": 263020.28135000577,
      "d": 198.6755000000121,
      "v": 100
    },
    {
      "midi": 38,
      "hit": false,
      "t": 263218.9568500058,
      "d": 198.6755000000121,
      "v": 100
    },
    {
      "midi": 66,
      "hit": false,
      "t": 263218.9568500058,
      "d": 198.6755000000121,
      "v": 100
    },
    {
      "midi": 57,
      "hit": false,
      "t": 263417.6323500058,
      "d": 198.6755000000121,
      "v": 100
    },
    {
      "midi": 36,
      "hit": false,
      "t": 263417.6323500058,
      "d": 198.6755000000121,
      "v": 100
    },
    {
      "midi": 42,
      "hit": false,
      "t": 263417.6323500058,
      "d": 198.6755000000121,
      "v": 100
    },
    {
      "midi": 62,
      "hit": false,
      "t": 263417.6323500058,
      "d": 397.3510000000242,
      "v": 100
    },
    {
      "midi": 78,
      "hit": false,
      "t": 263417.6323500058,
      "d": 993.3775000000605,
      "v": 100
    },
    {
      "midi": 82,
      "hit": false,
      "t": 263417.6323500058,
      "d": 993.3775000000605,
      "v": 100
    },
    {
      "midi": 74,
      "hit": false,
      "t": 263417.6323500058,
      "d": 993.3775000000605,
      "v": 100
    },
    {
      "midi": 42,
      "hit": false,
      "t": 263616.3078500058,
      "d": 198.6755000000121,
      "v": 100
    },
    {
      "midi": 36,
      "hit": false,
      "t": 263814.9833500058,
      "d": 198.6755000000121,
      "v": 100
    },
    {
      "midi": 42,
      "hit": false,
      "t": 263814.9833500058,
      "d": 198.6755000000121,
      "v": 100
    },
    {
      "midi": 64,
      "hit": false,
      "t": 263814.9833500058,
      "d": 397.3510000000242,
      "v": 100
    },
    {
      "midi": 42,
      "hit": false,
      "t": 264013.6588500058,
      "d": 198.6755000000121,
      "v": 100
    },
    {
      "midi": 57,
      "hit": false,
      "t": 264013.6588500058,
      "d": 298.01325000001816,
      "v": 100
    },
    {
      "midi": 38,
      "hit": false,
      "t": 264013.6588500058,
      "d": 298.01325000001816,
      "v": 100
    },
    {
      "midi": 42,
      "hit": false,
      "t": 264212.33435000584,
      "d": 198.6755000000121,
      "v": 100
    },
    {
      "midi": 66,
      "hit": false,
      "t": 264212.33435000584,
      "d": 397.3510000000242,
      "v": 100
    },
    {
      "midi": 38,
      "hit": false,
      "t": 264311.67210000585,
      "d": 99.33775000000605,
      "v": 100
    },
    {
      "midi": 38,
      "hit": false,
      "t": 264411.00985000585,
      "d": 298.01325000001816,
      "v": 100
    },
    {
      "midi": 78,
      "hit": false,
      "t": 264411.00985000585,
      "d": 596.0265000000363,
      "v": 100
    },
    {
      "midi": 81,
      "hit": false,
      "t": 264411.00985000585,
      "d": 596.0265000000363,
      "v": 100
    },
    {
      "midi": 41,
      "hit": false,
      "t": 264411.00985000585,
      "d": 596.0265000000363,
      "v": 100
    },
    {
      "midi": 74,
      "hit": false,
      "t": 264411.00985000585,
      "d": 596.0265000000363,
      "v": 100
    },
    {
      "midi": 62,
      "hit": false,
      "t": 264609.68535000586,
      "d": 198.6755000000121,
      "v": 100
    },
    {
      "midi": 38,
      "hit": false,
      "t": 264709.02310000587,
      "d": 99.33775000000605,
      "v": 100
    },
    {
      "midi": 38,
      "hit": false,
      "t": 264808.3608500059,
      "d": 99.33775000000605,
      "v": 100
    },
    {
      "midi": 59,
      "hit": false,
      "t": 264808.3608500059,
      "d": 198.6755000000121,
      "v": 100
    },
    {
      "midi": 38,
      "hit": false,
      "t": 264907.6986000059,
      "d": 99.33775000000605,
      "v": 100
    },
    {
      "midi": 57,
      "hit": false,
      "t": 265007.0363500059,
      "d": 198.6755000000121,
      "v": 100
    },
    {
      "midi": 36,
      "hit": false,
      "t": 265007.0363500059,
      "d": 198.6755000000121,
      "v": 100
    },
    {
      "midi": 40,
      "hit": false,
      "t": 265007.0363500059,
      "d": 397.3510000000242,
      "v": 100
    },
    {
      "midi": 76,
      "hit": false,
      "t": 265007.0363500059,
      "d": 993.3775000000605,
      "v": 100
    },
    {
      "midi": 62,
      "hit": false,
      "t": 265007.0363500059,
      "d": 993.3775000000605,
      "v": 100
    },
    {
      "midi": 71,
      "hit": false,
      "t": 265007.0363500059,
      "d": 993.3775000000605,
      "v": 100
    },
    {
      "midi": 80,
      "hit": false,
      "t": 265007.0363500059,
      "d": 993.3775000000605,
      "v": 100
    },
    {
      "midi": 36,
      "hit": false,
      "t": 265404.3873500059,
      "d": 198.6755000000121,
      "v": 100
    },
    {
      "midi": 78,
      "hit": false,
      "t": 265404.3873500059,
      "d": 198.6755000000121,
      "v": 100
    },
    {
      "midi": 47,
      "hit": false,
      "t": 265404.3873500059,
      "d": 596.0265000000363,
      "v": 100
    },
    {
      "midi": 78,
      "hit": false,
      "t": 265603.0628500059,
      "d": 198.6755000000121,
      "v": 100
    },
    {
      "midi": 57,
      "hit": false,
      "t": 265603.0628500059,
      "d": 397.3510000000242,
      "v": 100
    },
    {
      "midi": 38,
      "hit": false,
      "t": 265603.0628500059,
      "d": 397.3510000000242,
      "v": 100
    },
    {
      "midi": 78,
      "hit": false,
      "t": 265801.73835000594,
      "d": 198.6755000000121,
      "v": 100
    },
    {
      "midi": 62,
      "hit": false,
      "t": 266000.41385000595,
      "d": 198.6755000000121,
      "v": 100
    },
    {
      "midi": 78,
      "hit": false,
      "t": 266000.41385000595,
      "d": 198.6755000000121,
      "v": 100
    },
    {
      "midi": 36,
      "hit": false,
      "t": 266000.41385000595,
      "d": 397.3510000000242,
      "v": 100
    },
    {
      "midi": 40,
      "hit": false,
      "t": 266000.41385000595,
      "d": 397.3510000000242,
      "v": 100
    },
    {
      "midi": 57,
      "hit": false,
      "t": 266000.41385000595,
      "d": 397.3510000000242,
      "v": 100
    },
    {
      "midi": 59,
      "hit": false,
      "t": 266000.41385000595,
      "d": 1589.4040000000969,
      "v": 100
    },
    {
      "midi": 62,
      "hit": false,
      "t": 266199.08935000596,
      "d": 198.6755000000121,
      "v": 100
    },
    {
      "midi": 76,
      "hit": false,
      "t": 266199.08935000596,
      "d": 397.3510000000242,
      "v": 100
    },
    {
      "midi": 71,
      "hit": false,
      "t": 266397.764850006,
      "d": 198.6755000000121,
      "v": 100
    },
    {
      "midi": 66,
      "hit": false,
      "t": 266397.764850006,
      "d": 198.6755000000121,
      "v": 100
    },
    {
      "midi": 62,
      "hit": false,
      "t": 266397.764850006,
      "d": 198.6755000000121,
      "v": 100
    },
    {
      "midi": 40,
      "hit": false,
      "t": 266397.764850006,
      "d": 298.01325000001816,
      "v": 100
    },
    {
      "midi": 42,
      "hit": false,
      "t": 266397.764850006,
      "d": 397.3510000000242,
      "v": 100
    },
    {
      "midi": 62,
      "hit": false,
      "t": 266596.440350006,
      "d": 99.33775000000605,
      "v": 100
    },
    {
      "midi": 62,
      "hit": false,
      "t": 266695.778100006,
      "d": 99.33775000000605,
      "v": 100
    },
    {
      "midi": 38,
      "hit": false,
      "t": 266695.778100006,
      "d": 99.33775000000605,
      "v": 100
    },
    {
      "midi": 62,
      "hit": false,
      "t": 266795.115850006,
      "d": 198.6755000000121,
      "v": 100
    },
    {
      "midi": 40,
      "hit": false,
      "t": 266795.115850006,
      "d": 198.6755000000121,
      "v": 100
    },
    {
      "midi": 42,
      "hit": false,
      "t": 266795.115850006,
      "d": 397.3510000000242,
      "v": 100
    },
    {
      "midi": 74,
      "hit": false,
      "t": 266795.115850006,
      "d": 794.7020000000484,
      "v": 100
    },
    {
      "midi": 67,
      "hit": false,
      "t": 266795.115850006,
      "d": 794.7020000000484,
      "v": 100
    },
    {
      "midi": 36,
      "hit": false,
      "t": 266993.791350006,
      "d": 198.6755000000121,
      "v": 100
    },
    {
      "midi": 66,
      "hit": false,
      "t": 266993.791350006,
      "d": 397.3510000000242,
      "v": 100
    },
    {
      "midi": 62,
      "hit": false,
      "t": 266993.791350006,
      "d": 397.3510000000242,
      "v": 100
    },
    {
      "midi": 43,
      "hit": false,
      "t": 266993.791350006,
      "d": 397.3510000000242,
      "v": 100
    },
    {
      "midi": 71,
      "hit": false,
      "t": 266993.791350006,
      "d": 397.3510000000242,
      "v": 100
    },
    {
      "midi": 38,
      "hit": false,
      "t": 267192.466850006,
      "d": 397.3510000000242,
      "v": 100
    },
    {
      "midi": 42,
      "hit": false,
      "t": 267192.466850006,
      "d": 397.3510000000242,
      "v": 100
    },
    {
      "midi": 62,
      "hit": false,
      "t": 267391.14235000603,
      "d": 198.6755000000121,
      "v": 100
    },
    {
      "midi": 40,
      "hit": false,
      "t": 267391.14235000603,
      "d": 198.6755000000121,
      "v": 100
    },
    {
      "midi": 62,
      "hit": false,
      "t": 267589.81785000605,
      "d": 198.6755000000121,
      "v": 100
    },
    {
      "midi": 36,
      "hit": false,
      "t": 267589.81785000605,
      "d": 298.01325000001816,
      "v": 100
    },
    {
      "midi": 69,
      "hit": false,
      "t": 267589.81785000605,
      "d": 596.0265000000363,
      "v": 100
    },
    {
      "midi": 61,
      "hit": false,
      "t": 267589.81785000605,
      "d": 596.0265000000363,
      "v": 100
    },
    {
      "midi": 64,
      "hit": false,
      "t": 267788.49335000606,
      "d": 198.6755000000121,
      "v": 100
    },
    {
      "midi": 66,
      "hit": false,
      "t": 267788.49335000606,
      "d": 198.6755000000121,
      "v": 100
    },
    {
      "midi": 73,
      "hit": false,
      "t": 267788.49335000606,
      "d": 198.6755000000121,
      "v": 100
    },
    {
      "midi": 36,
      "hit": false,
      "t": 267887.83110000606,
      "d": 99.33775000000605,
      "v": 100
    },
    {
      "midi": 62,
      "hit": false,
      "t": 267987.16885000607,
      "d": 198.6755000000121,
      "v": 100
    },
    {
      "midi": 42,
      "hit": false,
      "t": 267987.16885000607,
      "d": 198.6755000000121,
      "v": 100
    },
    {
      "midi": 38,
      "hit": false,
      "t": 267987.16885000607,
      "d": 397.3510000000242,
      "v": 100
    },
    {
      "midi": 73,
      "hit": false,
      "t": 268185.8443500061,
      "d": 198.6755000000121,
      "v": 100
    },
    {
      "midi": 66,
      "hit": false,
      "t": 268185.8443500061,
      "d": 397.3510000000242,
      "v": 100
    },
    {
      "midi": 64,
      "hit": false,
      "t": 268185.8443500061,
      "d": 397.3510000000242,
      "v": 100
    },
    {
      "midi": 81,
      "hit": false,
      "t": 268185.8443500061,
      "d": 993.3775000000605,
      "v": 100
    },
    {
      "midi": 73,
      "hit": false,
      "t": 268384.5198500061,
      "d": 198.6755000000121,
      "v": 100
    },
    {
      "midi": 42,
      "hit": false,
      "t": 268384.5198500061,
      "d": 264.9006666666828,
      "v": 100
    },
    {
      "midi": 48,
      "hit": false,
      "t": 268384.5198500061,
      "d": 264.9006666666828,
      "v": 100
    },
    {
      "midi": 36,
      "hit": false,
      "t": 268516.97018333944,
      "d": 264.9006666666828,
      "v": 100
    },
    {
      "midi": 73,
      "hit": false,
      "t": 268583.1953500061,
      "d": 66.2251666666707,
      "v": 100
    },
    {
      "midi": 66,
      "hit": false,
      "t": 268583.1953500061,
      "d": 198.6755000000121,
      "v": 100
    },
    {
      "midi": 64,
      "hit": false,
      "t": 268583.1953500061,
      "d": 198.6755000000121,
      "v": 100
    },
    {
      "midi": 43,
      "hit": false,
      "t": 268649.4205166728,
      "d": 264.9006666666828,
      "v": 100
    },
    {
      "midi": 74,
      "hit": false,
      "t": 268649.4205166728,
      "d": 264.9006666666828,
      "v": 100
    },
    {
      "midi": 47,
      "hit": false,
      "t": 268649.4205166728,
      "d": 264.9006666666828,
      "v": 100
    },
    {
      "midi": 66,
      "hit": false,
      "t": 268781.8708500061,
      "d": 198.6755000000121,
      "v": 100
    },
    {
      "midi": 73,
      "hit": false,
      "t": 268781.8708500061,
      "d": 198.6755000000121,
      "v": 100
    },
    {
      "midi": 64,
      "hit": false,
      "t": 268781.8708500061,
      "d": 198.6755000000121,
      "v": 100
    },
    {
      "midi": 36,
      "hit": false,
      "t": 268781.8708500061,
      "d": 264.9006666666828,
      "v": 100
    },
    {
      "midi": 45,
      "hit": false,
      "t": 268914.32118333946,
      "d": 264.9006666666828,
      "v": 100
    },
    {
      "midi": 76,
      "hit": false,
      "t": 268914.32118333946,
      "d": 264.9006666666828,
      "v": 100
    },
    {
      "midi": 66,
      "hit": false,
      "t": 268980.54635000613,
      "d": 198.6755000000121,
      "v": 100
    },
    {
      "midi": 73,
      "hit": false,
      "t": 268980.54635000613,
      "d": 198.6755000000121,
      "v": 100
    },
    {
      "midi": 64,
      "hit": false,
      "t": 268980.54635000613,
      "d": 198.6755000000121,
      "v": 100
    },
    {
      "midi": 36,
      "hit": false,
      "t": 269046.7715166728,
      "d": 132.4503333333414,
      "v": 100
    },
    {
      "midi": 57,
      "hit": false,
      "t": 269179.22185000614,
      "d": 198.6755000000121,
      "v": 100
    },
    {
      "midi": 36,
      "hit": false,
      "t": 269179.22185000614,
      "d": 397.3510000000242,
      "v": 100
    },
    {
      "midi": 69,
      "hit": false,
      "t": 269179.22185000614,
      "d": 596.0265000000363,
      "v": 100
    },
    {
      "midi": 74,
      "hit": false,
      "t": 269179.22185000614,
      "d": 596.0265000000363,
      "v": 100
    },
    {
      "midi": 76,
      "hit": false,
      "t": 269179.22185000614,
      "d": 596.0265000000363,
      "v": 100
    },
    {
      "midi": 47,
      "hit": false,
      "t": 269179.22185000614,
      "d": 3178.8080000000773,
      "v": 100
    },
    {
      "midi": 62,
      "hit": false,
      "t": 269377.89735000615,
      "d": 198.6755000000121,
      "v": 110
    },
    {
      "midi": 66,
      "hit": false,
      "t": 269576.57285000617,
      "d": 198.6755000000121,
      "v": 110
    },
    {
      "midi": 79,
      "hit": false,
      "t": 269775.2483500062,
      "d": 198.6755000000121,
      "v": 100
    },
    {
      "midi": 67,
      "hit": false,
      "t": 269775.2483500062,
      "d": 198.6755000000121,
      "v": 110
    },
    {
      "midi": 74,
      "hit": false,
      "t": 269775.2483500062,
      "d": 198.6755000000121,
      "v": 100
    },
    {
      "midi": 74,
      "hit": false,
      "t": 269973.9238500062,
      "d": 2384.106000000029,
      "v": 100
    },
    {
      "midi": 78,
      "hit": false,
      "t": 270073.2616000062,
      "d": 298.01325000001816,
      "v": 100
    },
    {
      "midi": 66,
      "hit": false,
      "t": 270172.5993500062,
      "d": 198.6755000000121,
      "v": 110
    },
    {
      "midi": 62,
      "hit": false,
      "t": 270371.2748500062,
      "d": 198.6755000000121,
      "v": 110
    },
    {
      "midi": 69,
      "hit": false,
      "t": 270371.2748500062,
      "d": 397.3510000000242,
      "v": 100
    },
    {
      "midi": 57,
      "hit": false,
      "t": 270569.9503500062,
      "d": 198.6755000000121,
      "v": 110
    },
    {
      "midi": 57,
      "hit": false,
      "t": 270768.62585000624,
      "d": 1589.4039999999804,
      "v": 100
    },
    {
      "midi": 69,
      "hit": false,
      "t": 270768.62585000624,
      "d": 1589.4039999999804,
      "v": 100
    },
    {
      "midi": 66,
      "hit": false,
      "t": 270768.62585000624,
      "d": 1589.4039999999804,
      "v": 110
    },
    {
      "midi": 62,
      "hit": false,
      "t": 270768.62585000624,
      "d": 1589.4039999999804,
      "v": 110
    },
    {
      "midi": 66,
      "hit": false,
      "t": 272358.0298500062,
      "d": 1589.4040000000386,
      "v": 83
    },
    {
      "midi": 71,
      "hit": false,
      "t": 272358.0298500062,
      "d": 1589.4040000000386,
      "v": 83
    },
    {
      "midi": 67,
      "hit": false,
      "t": 272358.0298500062,
      "d": 1589.4040000000386,
      "v": 100
    },
    {
      "midi": 62,
      "hit": false,
      "t": 273351.4073500062,
      "d": 198.6755000000121,
      "v": 100
    },
    {
      "midi": 74,
      "hit": false,
      "t": 273550.08285000623,
      "d": 198.6755000000121,
      "v": 100
    },
    {
      "midi": 74,
      "hit": false,
      "t": 273748.75835000625,
      "d": 198.6755000000121,
      "v": 100
    },
    {
      "midi": 66,
      "hit": false,
      "t": 273947.43385000626,
      "d": 198.6755000000121,
      "v": 100
    },
    {
      "midi": 76,
      "hit": false,
      "t": 273947.43385000626,
      "d": 596.0265000000363,
      "v": 88
    },
    {
      "midi": 74,
      "hit": false,
      "t": 273947.43385000626,
      "d": 596.0265000000363,
      "v": 100
    },
    {
      "midi": 69,
      "hit": false,
      "t": 273947.43385000626,
      "d": 596.0265000000363,
      "v": 88
    },
    {
      "midi": 73,
      "hit": false,
      "t": 274146.10935000627,
      "d": 198.6755000000121,
      "v": 100
    },
    {
      "midi": 73,
      "hit": false,
      "t": 274543.4603500063,
      "d": 397.3510000000242,
      "v": 90
    },
    {
      "midi": 78,
      "hit": false,
      "t": 274543.4603500063,
      "d": 596.0265000000363,
      "v": 90
    },
    {
      "midi": 69,
      "hit": false,
      "t": 274940.8113500063,
      "d": 198.6755000000121,
      "v": 100
    },
    {
      "midi": 73,
      "hit": false,
      "t": 275139.48685000633,
      "d": 397.3510000000242,
      "v": 92
    },
    {
      "midi": 66,
      "hit": false,
      "t": 275338.16235000634,
      "d": 198.6755000000121,
      "v": 100
    },
    {
      "midi": 69,
      "hit": false,
      "t": 275536.83785000636,
      "d": 596.0264999999781,
      "v": 100
    },
    {
      "midi": 67,
      "hit": false,
      "t": 275536.83785000636,
      "d": 1589.4039999999804,
      "v": 94
    },
    {
      "midi": 74,
      "hit": false,
      "t": 275536.83785000636,
      "d": 1589.4039999999804,
      "v": 94
    },
    {
      "midi": 64,
      "hit": false,
      "t": 275536.83785000636,
      "d": 3178.807999999961,
      "v": 100
    },
    {
      "midi": 71,
      "hit": false,
      "t": 276132.86435000633,
      "d": 596.0264999999781,
      "v": 100
    },
    {
      "midi": 62,
      "hit": false,
      "t": 276728.8908500063,
      "d": 1192.0530000000144,
      "v": 100
    },
    {
      "midi": 81,
      "hit": false,
      "t": 277126.24185000634,
      "d": 596.0264999999781,
      "v": 99
    },
    {
      "midi": 71,
      "hit": false,
      "t": 277126.24185000634,
      "d": 596.0264999999781,
      "v": 99
    },
    {
      "midi": 74,
      "hit": false,
      "t": 277126.24185000634,
      "d": 596.0264999999781,
      "v": 99
    },
    {
      "midi": 79,
      "hit": false,
      "t": 277722.2683500063,
      "d": 993.3775000000023,
      "v": 100
    },
    {
      "midi": 64,
      "hit": false,
      "t": 278715.6458500063,
      "d": 198.6755000000121,
      "v": 100
    },
    {
      "midi": 69,
      "hit": false,
      "t": 278715.6458500063,
      "d": 397.3510000000242,
      "v": 100
    },
    {
      "midi": 57,
      "hit": false,
      "t": 278715.6458500063,
      "d": 596.0265000000363,
      "v": 101
    },
    {
      "midi": 67,
      "hit": false,
      "t": 278715.6458500063,
      "d": 596.0265000000363,
      "v": 101
    },
    {
      "midi": 62,
      "hit": false,
      "t": 278715.6458500063,
      "d": 596.0265000000363,
      "v": 101
    },
    {
      "midi": 71,
      "hit": false,
      "t": 278914.3213500063,
      "d": 198.6755000000121,
      "v": 100
    },
    {
      "midi": 71,
      "hit": false,
      "t": 279112.99685000634,
      "d": 198.6755000000121,
      "v": 100
    },
    {
      "midi": 76,
      "hit": false,
      "t": 279112.99685000634,
      "d": 1192.0094333333545,
      "v": 100
    },
    {
      "midi": 59,
      "hit": false,
      "t": 279311.67235000635,
      "d": 397.3510000000242,
      "v": 102
    },
    {
      "midi": 69,
      "hit": false,
      "t": 279311.67235000635,
      "d": 397.3510000000242,
      "v": 100
    },
    {
      "midi": 62,
      "hit": false,
      "t": 279709.0233500064,
      "d": 198.6755000000121,
      "v": 107
    },
    {
      "midi": 71,
      "hit": false,
      "t": 279709.0233500064,
      "d": 595.9829333333182,
      "v": 100
    },
    {
      "midi": 67,
      "hit": false,
      "t": 279907.6988500064,
      "d": 198.6755000000121,
      "v": 108
    },
    {
      "midi": 62,
      "hit": false,
      "t": 280106.3743500064,
      "d": 198.631933333294,
      "v": 109
    },
    {
      "midi": 66,
      "hit": false,
      "t": 280305.0062833397,
      "d": 203.69896666664863,
      "v": 100
    },
    {
      "midi": 69,
      "hit": false,
      "t": 280305.0062833397,
      "d": 203.69896666664863,
      "v": 110
    },
    {
      "midi": 61,
      "hit": false,
      "t": 280305.0062833397,
      "d": 638.1277833333006,
      "v": 110
    },
    {
      "midi": 73,
      "hit": false,
      "t": 280508.70525000634,
      "d": 212.65454999997746,
      "v": 100
    },
    {
      "midi": 67,
      "hit": false,
      "t": 280508.70525000634,
      "d": 434.428816666652,
      "v": 100
    },
    {
      "midi": 78,
      "hit": false,
      "t": 280721.3598000063,
      "d": 708.4175999999861,
      "v": 100
    },
    {
      "midi": 66,
      "hit": false,
      "t": 280943.134066673,
      "d": 486.6433333333116,
      "v": 100
    },
    {
      "midi": 62,
      "hit": false,
      "t": 280943.134066673,
      "d": 749.4573499999824,
      "v": 113
    },
    {
      "midi": 69,
      "hit": false,
      "t": 280943.134066673,
      "d": 749.4573499999824,
      "v": 113
    },
    {
      "midi": 78,
      "hit": false,
      "t": 281429.7774000063,
      "d": 798.5280166667071,
      "v": 100
    },
    {
      "midi": 64,
      "hit": false,
      "t": 281692.591416673,
      "d": 267.85700000001816,
      "v": 117
    },
    {
      "midi": 69,
      "hit": false,
      "t": 281692.591416673,
      "d": 535.7140000000363,
      "v": 117
    },
    {
      "midi": 64,
      "hit": false,
      "t": 281960.448416673,
      "d": 267.85700000001816,
      "v": 100
    },
    {
      "midi": 71,
      "hit": false,
      "t": 282228.305416673,
      "d": 267.7779833333334,
      "v": 119
    },
    {
      "midi": 64,
      "hit": false,
      "t": 282228.305416673,
      "d": 267.7779833333334,
      "v": 119
    },
    {
      "midi": 67,
      "hit": false,
      "t": 282228.305416673,
      "d": 4222.211099999957,
      "v": 100
    },
    {
      "midi": 62,
      "hit": false,
      "t": 282496.08340000635,
      "d": 1849.169116666657,
      "v": 120
    },
    {
      "midi": 69,
      "hit": false,
      "t": 284345.252516673,
      "d": 2105.2639999999665,
      "v": 127
    },
    {
      "midi": 74,
      "hit": false,
      "t": 284432.9718500063,
      "d": 2105.2639999999665,
      "v": 127
    },
    {
      "midi": 81,
      "hit": false,
      "t": 284520.69118333963,
      "d": 2105.2639999999665,
      "v": 127
    }
  ]
}