{
  "jsonPath": "Animes/Rurouni Kenshin MIDI Collection/light-shaded-dream.json",
  "path": "Animes\\Rurouni Kenshin MIDI Collection\\Light Shaded Dream.mid",
  "name": "Light Shaded Dream",
  "difficulty": "Advanced",
  "bpm": 69.00001725000432,
  "notes": [
    {
      "midi": 81,
      "hit": false,
      "t": 0,
      "d": 208.33328124999997,
      "v": 110
    },
    {
      "midi": 69,
      "hit": false,
      "t": 0,
      "d": 3260.8687499999996,
      "v": 110
    },
    {
      "midi": 76,
      "hit": false,
      "t": 217.39124999999996,
      "d": 5652.172499999999,
      "v": 110
    },
    {
      "midi": 74,
      "hit": false,
      "t": 1739.1299999999997,
      "d": 1521.73875,
      "v": 110
    },
    {
      "midi": 69,
      "hit": false,
      "t": 3478.2599999999998,
      "d": 1521.73875,
      "v": 110
    },
    {
      "midi": 72,
      "hit": false,
      "t": 3478.2599999999998,
      "d": 1521.73875,
      "v": 110
    },
    {
      "midi": 67,
      "hit": false,
      "t": 5217.389999999999,
      "d": 1521.7387499999995,
      "v": 110
    },
    {
      "midi": 71,
      "hit": false,
      "t": 5217.389999999999,
      "d": 1521.7387499999995,
      "v": 110
    },
    {
      "midi": 76,
      "hit": false,
      "t": 6086.954999999998,
      "d": 1295.2895312499995,
      "v": 110
    },
    {
      "midi": 65,
      "hit": false,
      "t": 6956.519999999999,
      "d": 1159.42,
      "v": 110
    },
    {
      "midi": 69,
      "hit": false,
      "t": 6956.519999999999,
      "d": 1159.42,
      "v": 110
    },
    {
      "midi": 74,
      "hit": false,
      "t": 7391.302499999998,
      "d": 425.7245312499999,
      "v": 110
    },
    {
      "midi": 71,
      "hit": false,
      "t": 7826.084999999998,
      "d": 425.724531249999,
      "v": 110
    },
    {
      "midi": 72,
      "hit": false,
      "t": 8260.867499999997,
      "d": 425.7245312499999,
      "v": 110
    },
    {
      "midi": 64,
      "hit": false,
      "t": 8260.867499999998,
      "d": 425.7245312499999,
      "v": 110
    },
    {
      "midi": 67,
      "hit": false,
      "t": 8260.867499999998,
      "d": 425.7245312499999,
      "v": 110
    },
    {
      "midi": 69,
      "hit": false,
      "t": 8695.649999999996,
      "d": 425.7245312499999,
      "v": 110
    },
    {
      "midi": 63,
      "hit": false,
      "t": 8695.649999999998,
      "d": 1521.7387500000004,
      "v": 110
    },
    {
      "midi": 66,
      "hit": false,
      "t": 8695.649999999998,
      "d": 1521.7387500000004,
      "v": 110
    },
    {
      "midi": 71,
      "hit": false,
      "t": 9130.432499999995,
      "d": 724.6375000000007,
      "v": 110
    },
    {
      "midi": 72,
      "hit": false,
      "t": 9999.997499999996,
      "d": 425.7245312499999,
      "v": 110
    },
    {
      "midi": 71,
      "hit": false,
      "t": 10434.779999999995,
      "d": 4999.998749999999,
      "v": 110
    },
    {
      "midi": 69,
      "hit": false,
      "t": 10434.779999999999,
      "d": 1521.7387500000004,
      "v": 110
    },
    {
      "midi": 64,
      "hit": false,
      "t": 10434.779999999999,
      "d": 3260.8687500000015,
      "v": 110
    },
    {
      "midi": 66,
      "hit": false,
      "t": 12173.91,
      "d": 1521.7387500000004,
      "v": 110
    },
    {
      "midi": 68,
      "hit": false,
      "t": 13913.04,
      "d": 1521.7387500000004,
      "v": 110
    },
    {
      "midi": 64,
      "hit": false,
      "t": 15652.170000000002,
      "d": 724.6375000000007,
      "v": 110
    },
    {
      "midi": 68,
      "hit": false,
      "t": 15652.170000000002,
      "d": 724.6375000000007,
      "v": 110
    },
    {
      "midi": 66,
      "hit": false,
      "t": 16521.735000000004,
      "d": 724.6374999999971,
      "v": 110
    },
    {
      "midi": 69,
      "hit": false,
      "t": 16521.735000000004,
      "d": 724.6374999999971,
      "v": 110
    },
    {
      "midi": 68,
      "hit": false,
      "t": 17391.300000000003,
      "d": 2391.303749999999,
      "v": 110
    },
    {
      "midi": 71,
      "hit": false,
      "t": 17391.300000000003,
      "d": 2391.303749999999,
      "v": 110
    },
    {
      "midi": 76,
      "hit": false,
      "t": 19565.212499999994,
      "d": 425.72453125000175,
      "v": 110
    },
    {
      "midi": 88,
      "hit": false,
      "t": 19999.994999999995,
      "d": 425.72453125000175,
      "v": 110
    },
    {
      "midi": 84,
      "hit": false,
      "t": 20434.777499999997,
      "d": 425.72453125000175,
      "v": 110
    },
    {
      "midi": 83,
      "hit": false,
      "t": 20869.559999999998,
      "d": 724.6375000000007,
      "v": 110
    },
    {
      "midi": 57,
      "hit": false,
      "t": 20869.56,
      "d": 1521.7387500000004,
      "v": 110
    },
    {
      "midi": 64,
      "hit": false,
      "t": 21304.342500000002,
      "d": 425.7245312499981,
      "v": 110
    },
    {
      "midi": 81,
      "hit": false,
      "t": 21739.125,
      "d": 724.6375000000007,
      "v": 110
    },
    {
      "midi": 60,
      "hit": false,
      "t": 21739.125,
      "d": 425.72453125000175,
      "v": 110
    },
    {
      "midi": 64,
      "hit": false,
      "t": 22173.9075,
      "d": 425.72453125000175,
      "v": 110
    },
    {
      "midi": 83,
      "hit": false,
      "t": 22608.690000000002,
      "d": 724.6375000000007,
      "v": 110
    },
    {
      "midi": 57,
      "hit": false,
      "t": 22608.690000000002,
      "d": 1521.738750000004,
      "v": 110
    },
    {
      "midi": 64,
      "hit": false,
      "t": 23043.472500000003,
      "d": 425.72453125000175,
      "v": 110
    },
    {
      "midi": 84,
      "hit": false,
      "t": 23478.255000000005,
      "d": 724.6375000000007,
      "v": 110
    },
    {
      "midi": 60,
      "hit": false,
      "t": 23478.255000000005,
      "d": 425.72453125000175,
      "v": 110
    },
    {
      "midi": 64,
      "hit": false,
      "t": 23913.037500000006,
      "d": 425.72453125000175,
      "v": 110
    },
    {
      "midi": 83,
      "hit": false,
      "t": 24347.820000000007,
      "d": 724.6375000000007,
      "v": 110
    },
    {
      "midi": 57,
      "hit": false,
      "t": 24347.820000000007,
      "d": 3260.8687500000015,
      "v": 110
    },
    {
      "midi": 65,
      "hit": false,
      "t": 24782.602500000008,
      "d": 425.72453125000175,
      "v": 110
    },
    {
      "midi": 81,
      "hit": false,
      "t": 25217.38500000001,
      "d": 724.6375000000007,
      "v": 110
    },
    {
      "midi": 60,
      "hit": false,
      "t": 25217.38500000001,
      "d": 425.72453125000175,
      "v": 110
    },
    {
      "midi": 65,
      "hit": false,
      "t": 25652.16750000001,
      "d": 1956.521249999998,
      "v": 110
    },
    {
      "midi": 76,
      "hit": false,
      "t": 26521.73250000001,
      "d": 425.7245312499981,
      "v": 110
    },
    {
      "midi": 88,
      "hit": false,
      "t": 26956.515000000007,
      "d": 425.72453125000175,
      "v": 110
    },
    {
      "midi": 84,
      "hit": false,
      "t": 27391.297500000008,
      "d": 425.72453125000175,
      "v": 110
    },
    {
      "midi": 83,
      "hit": false,
      "t": 27826.08000000001,
      "d": 724.6375000000007,
      "v": 110
    },
    {
      "midi": 57,
      "hit": false,
      "t": 27826.08000000001,
      "d": 1521.738750000004,
      "v": 110
    },
    {
      "midi": 64,
      "hit": false,
      "t": 28260.86250000001,
      "d": 425.72453125000175,
      "v": 110
    },
    {
      "midi": 81,
      "hit": false,
      "t": 28695.64500000001,
      "d": 724.6375000000007,
      "v": 110
    },
    {
      "midi": 60,
      "hit": false,
      "t": 28695.64500000001,
      "d": 425.72453125000175,
      "v": 110
    },
    {
      "midi": 64,
      "hit": false,
      "t": 29130.427500000013,
      "d": 425.72453125000175,
      "v": 110
    },
    {
      "midi": 83,
      "hit": false,
      "t": 29565.210000000014,
      "d": 724.6375000000007,
      "v": 110
    },
    {
      "midi": 57,
      "hit": false,
      "t": 29565.210000000014,
      "d": 1521.738750000004,
      "v": 110
    },
    {
      "midi": 64,
      "hit": false,
      "t": 29999.992500000015,
      "d": 425.72453125000175,
      "v": 110
    },
    {
      "midi": 84,
      "hit": false,
      "t": 30434.775000000016,
      "d": 724.6375000000007,
      "v": 110
    },
    {
      "midi": 60,
      "hit": false,
      "t": 30434.775000000016,
      "d": 425.72453125000175,
      "v": 110
    },
    {
      "midi": 64,
      "hit": false,
      "t": 30869.557500000017,
      "d": 425.72453125000175,
      "v": 110
    },
    {
      "midi": 83,
      "hit": false,
      "t": 31304.34000000002,
      "d": 724.6375000000007,
      "v": 110
    },
    {
      "midi": 57,
      "hit": false,
      "t": 31304.34000000002,
      "d": 3260.8687500000015,
      "v": 110
    },
    {
      "midi": 65,
      "hit": false,
      "t": 31739.12250000002,
      "d": 425.72453125000175,
      "v": 110
    },
    {
      "midi": 81,
      "hit": false,
      "t": 32173.90500000002,
      "d": 724.6374999999971,
      "v": 110
    },
    {
      "midi": 60,
      "hit": false,
      "t": 32173.90500000002,
      "d": 425.72453125000175,
      "v": 110
    },
    {
      "midi": 65,
      "hit": false,
      "t": 32608.687500000022,
      "d": 1956.521249999998,
      "v": 110
    },
    {
      "midi": 76,
      "hit": false,
      "t": 33478.25250000002,
      "d": 425.72453125000175,
      "v": 110
    },
    {
      "midi": 88,
      "hit": false,
      "t": 33913.03500000002,
      "d": 425.72453125000175,
      "v": 110
    },
    {
      "midi": 84,
      "hit": false,
      "t": 34347.81750000002,
      "d": 425.72453125000175,
      "v": 110
    },
    {
      "midi": 83,
      "hit": false,
      "t": 34782.60000000002,
      "d": 724.6374999999971,
      "v": 110
    },
    {
      "midi": 57,
      "hit": false,
      "t": 34782.60000000002,
      "d": 1521.738750000004,
      "v": 110
    },
    {
      "midi": 64,
      "hit": false,
      "t": 35217.38250000002,
      "d": 425.72453125000175,
      "v": 110
    },
    {
      "midi": 81,
      "hit": false,
      "t": 35652.165000000015,
      "d": 724.6374999999971,
      "v": 110
    },
    {
      "midi": 60,
      "hit": false,
      "t": 35652.16500000002,
      "d": 425.72453125000175,
      "v": 110
    },
    {
      "midi": 64,
      "hit": false,
      "t": 36086.947500000024,
      "d": 425.72453125000175,
      "v": 110
    },
    {
      "midi": 83,
      "hit": false,
      "t": 36521.73000000001,
      "d": 724.6374999999971,
      "v": 110
    },
    {
      "midi": 57,
      "hit": false,
      "t": 36521.730000000025,
      "d": 1521.738750000004,
      "v": 110
    },
    {
      "midi": 64,
      "hit": false,
      "t": 36956.512500000026,
      "d": 425.72453125000175,
      "v": 110
    },
    {
      "midi": 84,
      "hit": false,
      "t": 37391.295000000006,
      "d": 724.6374999999971,
      "v": 110
    },
    {
      "midi": 60,
      "hit": false,
      "t": 37391.29500000003,
      "d": 425.72453125000175,
      "v": 110
    },
    {
      "midi": 64,
      "hit": false,
      "t": 37826.07750000003,
      "d": 425.72453125000175,
      "v": 110
    },
    {
      "midi": 83,
      "hit": false,
      "t": 38260.86,
      "d": 724.6374999999971,
      "v": 110
    },
    {
      "midi": 55,
      "hit": false,
      "t": 38260.86000000003,
      "d": 1521.738750000004,
      "v": 110
    },
    {
      "midi": 64,
      "hit": false,
      "t": 38695.64250000003,
      "d": 425.72453125000175,
      "v": 110
    },
    {
      "midi": 81,
      "hit": false,
      "t": 39130.424999999996,
      "d": 724.6374999999971,
      "v": 110
    },
    {
      "midi": 60,
      "hit": false,
      "t": 39130.42500000003,
      "d": 425.72453125000175,
      "v": 110
    },
    {
      "midi": 64,
      "hit": false,
      "t": 39565.20750000003,
      "d": 425.72453125000175,
      "v": 110
    },
    {
      "midi": 83,
      "hit": false,
      "t": 39999.98999999999,
      "d": 724.6374999999971,
      "v": 110
    },
    {
      "midi": 55,
      "hit": false,
      "t": 39999.990000000034,
      "d": 1521.738750000004,
      "v": 110
    },
    {
      "midi": 64,
      "hit": false,
      "t": 40434.772500000036,
      "d": 425.72453125000175,
      "v": 110
    },
    {
      "midi": 84,
      "hit": false,
      "t": 40869.554999999986,
      "d": 724.6374999999971,
      "v": 110
    },
    {
      "midi": 60,
      "hit": false,
      "t": 40869.55500000004,
      "d": 425.72453125000175,
      "v": 110
    },
    {
      "midi": 64,
      "hit": false,
      "t": 41304.33750000004,
      "d": 425.72453125000175,
      "v": 110
    },
    {
      "midi": 83,
      "hit": false,
      "t": 41739.11999999998,
      "d": 724.6374999999971,
      "v": 110
    },
    {
      "midi": 53,
      "hit": false,
      "t": 41739.12000000004,
      "d": 1521.738750000004,
      "v": 110
    },
    {
      "midi": 60,
      "hit": false,
      "t": 42173.90250000004,
      "d": 425.72453125000175,
      "v": 110
    },
    {
      "midi": 81,
      "hit": false,
      "t": 42608.684999999976,
      "d": 724.6374999999971,
      "v": 110
    },
    {
      "midi": 57,
      "hit": false,
      "t": 42608.68500000004,
      "d": 425.72453125000175,
      "v": 110
    },
    {
      "midi": 60,
      "hit": false,
      "t": 43043.46750000004,
      "d": 425.72453125000175,
      "v": 110
    },
    {
      "midi": 83,
      "hit": false,
      "t": 43478.24999999997,
      "d": 724.6374999999971,
      "v": 110
    },
    {
      "midi": 53,
      "hit": false,
      "t": 43478.250000000044,
      "d": 1521.738750000004,
      "v": 110
    },
    {
      "midi": 60,
      "hit": false,
      "t": 43913.032500000045,
      "d": 425.72453125000175,
      "v": 110
    },
    {
      "midi": 84,
      "hit": false,
      "t": 44347.814999999966,
      "d": 724.6374999999971,
      "v": 110
    },
    {
      "midi": 57,
      "hit": false,
      "t": 44347.815000000046,
      "d": 425.72453125000175,
      "v": 110
    },
    {
      "midi": 60,
      "hit": false,
      "t": 44782.59750000005,
      "d": 425.72453125000175,
      "v": 110
    },
    {
      "midi": 86,
      "hit": false,
      "t": 45217.37999999996,
      "d": 1521.7387499999968,
      "v": 110
    },
    {
      "midi": 52,
      "hit": false,
      "t": 45217.38000000005,
      "d": 3260.8687500000015,
      "v": 110
    },
    {
      "midi": 59,
      "hit": false,
      "t": 45652.16250000005,
      "d": 425.72453125000175,
      "v": 110
    },
    {
      "midi": 55,
      "hit": false,
      "t": 46086.94500000005,
      "d": 425.72453125000175,
      "v": 110
    },
    {
      "midi": 59,
      "hit": false,
      "t": 46521.72750000005,
      "d": 1956.521249999998,
      "v": 110
    },
    {
      "midi": 76,
      "hit": false,
      "t": 47391.29249999996,
      "d": 425.72453125000175,
      "v": 110
    },
    {
      "midi": 88,
      "hit": false,
      "t": 47826.07499999996,
      "d": 425.72453125000175,
      "v": 110
    },
    {
      "midi": 84,
      "hit": false,
      "t": 48260.85749999996,
      "d": 425.72453125000175,
      "v": 110
    },
    {
      "midi": 83,
      "hit": false,
      "t": 48695.63999999996,
      "d": 724.6374999999971,
      "v": 110
    },
    {
      "midi": 57,
      "hit": false,
      "t": 48695.64000000005,
      "d": 1521.738750000004,
      "v": 110
    },
    {
      "midi": 64,
      "hit": false,
      "t": 49130.42250000005,
      "d": 425.72453125000175,
      "v": 110
    },
    {
      "midi": 81,
      "hit": false,
      "t": 49565.20499999996,
      "d": 724.6374999999971,
      "v": 110
    },
    {
      "midi": 60,
      "hit": false,
      "t": 49565.20500000005,
      "d": 425.72453125000175,
      "v": 110
    },
    {
      "midi": 64,
      "hit": false,
      "t": 49999.987500000054,
      "d": 425.72453125000175,
      "v": 110
    },
    {
      "midi": 83,
      "hit": false,
      "t": 50434.76999999995,
      "d": 724.6374999999971,
      "v": 110
    },
    {
      "midi": 57,
      "hit": false,
      "t": 50434.770000000055,
      "d": 1521.738750000004,
      "v": 110
    },
    {
      "midi": 64,
      "hit": false,
      "t": 50869.552500000056,
      "d": 425.72453125000175,
      "v": 110
    },
    {
      "midi": 84,
      "hit": false,
      "t": 51304.33499999995,
      "d": 724.6374999999971,
      "v": 110
    },
    {
      "midi": 60,
      "hit": false,
      "t": 51304.33500000006,
      "d": 425.72453125000175,
      "v": 110
    },
    {
      "midi": 64,
      "hit": false,
      "t": 51739.11750000006,
      "d": 425.72453125000175,
      "v": 110
    },
    {
      "midi": 83,
      "hit": false,
      "t": 52173.89999999994,
      "d": 724.6374999999971,
      "v": 110
    },
    {
      "midi": 57,
      "hit": false,
      "t": 52173.90000000006,
      "d": 3260.8687500000015,
      "v": 110
    },
    {
      "midi": 65,
      "hit": false,
      "t": 52608.68250000006,
      "d": 425.72453125000175,
      "v": 110
    },
    {
      "midi": 81,
      "hit": false,
      "t": 53043.46499999994,
      "d": 724.6374999999971,
      "v": 110
    },
    {
      "midi": 60,
      "hit": false,
      "t": 53043.46500000006,
      "d": 425.72453125000175,
      "v": 110
    },
    {
      "midi": 65,
      "hit": false,
      "t": 53478.24750000006,
      "d": 1956.521249999998,
      "v": 110
    },
    {
      "midi": 76,
      "hit": false,
      "t": 54347.812499999935,
      "d": 425.72453125000175,
      "v": 110
    },
    {
      "midi": 88,
      "hit": false,
      "t": 54782.594999999936,
      "d": 425.72453125000175,
      "v": 110
    },
    {
      "midi": 84,
      "hit": false,
      "t": 55217.37749999994,
      "d": 425.72453125000175,
      "v": 110
    },
    {
      "midi": 83,
      "hit": false,
      "t": 55652.15999999994,
      "d": 724.6374999999971,
      "v": 110
    },
    {
      "midi": 57,
      "hit": false,
      "t": 55652.16000000006,
      "d": 1521.738750000004,
      "v": 110
    },
    {
      "midi": 64,
      "hit": false,
      "t": 56086.94250000006,
      "d": 425.72453125000175,
      "v": 110
    },
    {
      "midi": 81,
      "hit": false,
      "t": 56521.72499999993,
      "d": 724.6374999999971,
      "v": 110
    },
    {
      "midi": 60,
      "hit": false,
      "t": 56521.725000000064,
      "d": 425.72453125000175,
      "v": 110
    },
    {
      "midi": 64,
      "hit": false,
      "t": 56956.507500000065,
      "d": 425.72453125000175,
      "v": 110
    },
    {
      "midi": 83,
      "hit": false,
      "t": 57391.28999999993,
      "d": 724.6374999999971,
      "v": 110
    },
    {
      "midi": 57,
      "hit": false,
      "t": 57391.290000000066,
      "d": 1521.738750000004,
      "v": 110
    },
    {
      "midi": 64,
      "hit": false,
      "t": 57826.07250000007,
      "d": 425.72453125000175,
      "v": 110
    },
    {
      "midi": 84,
      "hit": false,
      "t": 58260.85499999992,
      "d": 724.6374999999971,
      "v": 110
    },
    {
      "midi": 60,
      "hit": false,
      "t": 58260.85500000007,
      "d": 425.72453125000175,
      "v": 110
    },
    {
      "midi": 64,
      "hit": false,
      "t": 58695.63750000007,
      "d": 425.72453125000175,
      "v": 110
    },
    {
      "midi": 83,
      "hit": false,
      "t": 59130.41999999992,
      "d": 724.6374999999971,
      "v": 110
    },
    {
      "midi": 57,
      "hit": false,
      "t": 59130.42000000007,
      "d": 3260.8687500000015,
      "v": 110
    },
    {
      "midi": 65,
      "hit": false,
      "t": 59565.20250000007,
      "d": 425.72453125000175,
      "v": 110
    },
    {
      "midi": 81,
      "hit": false,
      "t": 59999.98499999991,
      "d": 724.6374999999971,
      "v": 110
    },
    {
      "midi": 60,
      "hit": false,
      "t": 59999.98500000007,
      "d": 425.72453125000175,
      "v": 110
    },
    {
      "midi": 65,
      "hit": false,
      "t": 60434.767500000075,
      "d": 1956.521249999998,
      "v": 110
    },
    {
      "midi": 76,
      "hit": false,
      "t": 61304.33249999991,
      "d": 425.72453125000175,
      "v": 110
    },
    {
      "midi": 88,
      "hit": false,
      "t": 61739.11499999991,
      "d": 425.72453125000175,
      "v": 110
    },
    {
      "midi": 84,
      "hit": false,
      "t": 62173.89749999991,
      "d": 425.72453125000175,
      "v": 110
    },
    {
      "midi": 83,
      "hit": false,
      "t": 62608.67999999991,
      "d": 724.6374999999971,
      "v": 110
    },
    {
      "midi": 57,
      "hit": false,
      "t": 62608.68000000007,
      "d": 1521.738750000004,
      "v": 110
    },
    {
      "midi": 64,
      "hit": false,
      "t": 63043.462500000074,
      "d": 425.72453125000175,
      "v": 110
    },
    {
      "midi": 81,
      "hit": false,
      "t": 63478.24499999991,
      "d": 724.6374999999971,
      "v": 110
    },
    {
      "midi": 60,
      "hit": false,
      "t": 63478.245000000075,
      "d": 425.72453125000175,
      "v": 110
    },
    {
      "midi": 64,
      "hit": false,
      "t": 63913.02750000008,
      "d": 425.72453125000175,
      "v": 110
    },
    {
      "midi": 83,
      "hit": false,
      "t": 64347.8099999999,
      "d": 724.6374999999971,
      "v": 110
    },
    {
      "midi": 57,
      "hit": false,
      "t": 64347.81000000008,
      "d": 1521.7387499999968,
      "v": 110
    },
    {
      "midi": 64,
      "hit": false,
      "t": 64782.59250000008,
      "d": 425.72453125000175,
      "v": 110
    },
    {
      "midi": 84,
      "hit": false,
      "t": 65217.3749999999,
      "d": 724.6374999999971,
      "v": 110
    },
    {
      "midi": 60,
      "hit": false,
      "t": 65217.37500000008,
      "d": 425.72453124999447,
      "v": 110
    },
    {
      "midi": 64,
      "hit": false,
      "t": 65652.15750000007,
      "d": 425.72453125000175,
      "v": 110
    },
    {
      "midi": 83,
      "hit": false,
      "t": 66086.9399999999,
      "d": 724.6374999999971,
      "v": 110
    },
    {
      "midi": 55,
      "hit": false,
      "t": 66086.94000000008,
      "d": 1521.738750000004,
      "v": 110
    },
    {
      "midi": 64,
      "hit": false,
      "t": 66521.72250000008,
      "d": 425.72453125000175,
      "v": 110
    },
    {
      "midi": 81,
      "hit": false,
      "t": 66956.5049999999,
      "d": 724.6374999999971,
      "v": 110
    },
    {
      "midi": 60,
      "hit": false,
      "t": 66956.50500000008,
      "d": 425.72453125000175,
      "v": 110
    },
    {
      "midi": 64,
      "hit": false,
      "t": 67391.28750000008,
      "d": 425.72453125000175,
      "v": 110
    },
    {
      "midi": 83,
      "hit": false,
      "t": 67826.0699999999,
      "d": 724.6374999999971,
      "v": 110
    },
    {
      "midi": 55,
      "hit": false,
      "t": 67826.07000000008,
      "d": 1521.738750000004,
      "v": 110
    },
    {
      "midi": 64,
      "hit": false,
      "t": 68260.85250000008,
      "d": 425.72453125000175,
      "v": 110
    },
    {
      "midi": 84,
      "hit": false,
      "t": 68695.63499999991,
      "d": 724.6374999999971,
      "v": 110
    },
    {
      "midi": 60,
      "hit": false,
      "t": 68695.63500000008,
      "d": 425.72453125000175,
      "v": 110
    },
    {
      "midi": 64,
      "hit": false,
      "t": 69130.41750000008,
      "d": 425.72453125000175,
      "v": 110
    },
    {
      "midi": 83,
      "hit": false,
      "t": 69565.19999999991,
      "d": 724.6374999999971,
      "v": 110
    },
    {
      "midi": 53,
      "hit": false,
      "t": 69565.20000000008,
      "d": 1521.738750000004,
      "v": 110
    },
    {
      "midi": 60,
      "hit": false,
      "t": 69999.98250000009,
      "d": 425.72453125000175,
      "v": 110
    },
    {
      "midi": 81,
      "hit": false,
      "t": 70434.76499999991,
      "d": 724.6374999999971,
      "v": 110
    },
    {
      "midi": 57,
      "hit": false,
      "t": 70434.76500000009,
      "d": 425.72453125000175,
      "v": 110
    },
    {
      "midi": 60,
      "hit": false,
      "t": 70869.54750000009,
      "d": 425.72453125000175,
      "v": 110
    },
    {
      "midi": 83,
      "hit": false,
      "t": 71304.32999999991,
      "d": 724.6374999999971,
      "v": 110
    },
    {
      "midi": 53,
      "hit": false,
      "t": 71304.33000000009,
      "d": 1521.738750000004,
      "v": 110
    },
    {
      "midi": 60,
      "hit": false,
      "t": 71739.11250000009,
      "d": 425.72453125000175,
      "v": 110
    },
    {
      "midi": 84,
      "hit": false,
      "t": 72173.89499999992,
      "d": 724.6374999999971,
      "v": 110
    },
    {
      "midi": 57,
      "hit": false,
      "t": 72173.89500000009,
      "d": 425.72453125000175,
      "v": 110
    },
    {
      "midi": 60,
      "hit": false,
      "t": 72608.67750000009,
      "d": 425.72453125000175,
      "v": 110
    },
    {
      "midi": 81,
      "hit": false,
      "t": 73043.45999999992,
      "d": 724.6374999999971,
      "v": 110
    },
    {
      "midi": 86,
      "hit": false,
      "t": 73043.45999999992,
      "d": 724.6374999999971,
      "v": 110
    },
    {
      "midi": 52,
      "hit": false,
      "t": 73043.4600000001,
      "d": 3260.868749999994,
      "v": 110
    },
    {
      "midi": 59,
      "hit": false,
      "t": 73043.4600000001,
      "d": 3260.868749999994,
      "v": 110
    },
    {
      "midi": 80,
      "hit": false,
      "t": 73913.02499999992,
      "d": 724.6374999999971,
      "v": 110
    },
    {
      "midi": 88,
      "hit": false,
      "t": 73913.02499999992,
      "d": 724.6374999999971,
      "v": 110
    },
    {
      "midi": 64,
      "hit": false,
      "t": 75217.37249999992,
      "d": 425.72453125000175,
      "v": 110
    },
    {
      "midi": 76,
      "hit": false,
      "t": 75652.15499999993,
      "d": 425.72453125000175,
      "v": 110
    },
    {
      "midi": 72,
      "hit": false,
      "t": 76086.93749999993,
      "d": 425.72453125000175,
      "v": 110
    },
    {
      "midi": 71,
      "hit": false,
      "t": 76521.71999999993,
      "d": 724.6374999999971,
      "v": 110
    },
    {
      "midi": 45,
      "hit": false,
      "t": 76521.72000000009,
      "d": 3260.8687500000087,
      "v": 110
    },
    {
      "midi": 52,
      "hit": false,
      "t": 76956.50250000009,
      "d": 425.72453125000175,
      "v": 110
    },
    {
      "midi": 69,
      "hit": false,
      "t": 77391.28499999993,
      "d": 724.6374999999971,
      "v": 110
    },
    {
      "midi": 48,
      "hit": false,
      "t": 77391.28500000009,
      "d": 425.72453125000175,
      "v": 110
    },
    {
      "midi": 52,
      "hit": false,
      "t": 77826.06750000009,
      "d": 425.72453125000175,
      "v": 110
    },
    {
      "midi": 71,
      "hit": false,
      "t": 78260.84999999993,
      "d": 1159.4199999999983,
      "v": 110
    },
    {
      "midi": 48,
      "hit": false,
      "t": 78260.8500000001,
      "d": 425.72453125000175,
      "v": 110
    },
    {
      "midi": 52,
      "hit": false,
      "t": 78695.6325000001,
      "d": 425.72453125000175,
      "v": 110
    },
    {
      "midi": 48,
      "hit": false,
      "t": 79130.4150000001,
      "d": 425.72453125000175,
      "v": 110
    },
    {
      "midi": 72,
      "hit": false,
      "t": 79565.19749999994,
      "d": 425.72453125000175,
      "v": 110
    },
    {
      "midi": 52,
      "hit": false,
      "t": 79565.1975000001,
      "d": 425.72453125000175,
      "v": 110
    },
    {
      "midi": 67,
      "hit": false,
      "t": 79999.97999999994,
      "d": 724.6374999999971,
      "v": 110
    },
    {
      "midi": 45,
      "hit": false,
      "t": 79999.9800000001,
      "d": 3260.8687500000087,
      "v": 110
    },
    {
      "midi": 53,
      "hit": false,
      "t": 80434.7625000001,
      "d": 425.72453125000175,
      "v": 110
    },
    {
      "midi": 65,
      "hit": false,
      "t": 80869.54499999994,
      "d": 724.6374999999971,
      "v": 110
    },
    {
      "midi": 48,
      "hit": false,
      "t": 80869.5450000001,
      "d": 425.72453125000175,
      "v": 110
    },
    {
      "midi": 53,
      "hit": false,
      "t": 81304.3275000001,
      "d": 425.72453125000175,
      "v": 110
    },
    {
      "midi": 67,
      "hit": false,
      "t": 81739.10999999994,
      "d": 1159.4199999999983,
      "v": 110
    },
    {
      "midi": 48,
      "hit": false,
      "t": 81739.1100000001,
      "d": 425.72453125000175,
      "v": 110
    },
    {
      "midi": 53,
      "hit": false,
      "t": 82173.8925000001,
      "d": 425.72453125000175,
      "v": 110
    },
    {
      "midi": 48,
      "hit": false,
      "t": 82608.6750000001,
      "d": 425.72453125000175,
      "v": 110
    },
    {
      "midi": 69,
      "hit": false,
      "t": 83043.45749999995,
      "d": 425.72453125000175,
      "v": 110
    },
    {
      "midi": 53,
      "hit": false,
      "t": 83043.4575000001,
      "d": 425.72453125000175,
      "v": 110
    },
    {
      "midi": 45,
      "hit": false,
      "t": 83478.2400000001,
      "d": 3260.8687500000087,
      "v": 110
    },
    {
      "midi": 52,
      "hit": false,
      "t": 83913.02250000011,
      "d": 425.72453125000175,
      "v": 110
    },
    {
      "midi": 48,
      "hit": false,
      "t": 84347.80500000011,
      "d": 425.72453125000175,
      "v": 110
    },
    {
      "midi": 52,
      "hit": false,
      "t": 84782.58750000011,
      "d": 425.72453125000175,
      "v": 110
    },
    {
      "midi": 72,
      "hit": false,
      "t": 85217.36999999995,
      "d": 724.6374999999971,
      "v": 110
    },
    {
      "midi": 48,
      "hit": false,
      "t": 85217.37000000011,
      "d": 425.72453125000175,
      "v": 110
    },
    {
      "midi": 52,
      "hit": false,
      "t": 85652.15250000011,
      "d": 425.72453125000175,
      "v": 110
    },
    {
      "midi": 71,
      "hit": false,
      "t": 86086.93499999995,
      "d": 724.6374999999971,
      "v": 110
    },
    {
      "midi": 48,
      "hit": false,
      "t": 86086.93500000011,
      "d": 425.72453125000175,
      "v": 110
    },
    {
      "midi": 52,
      "hit": false,
      "t": 86521.71750000012,
      "d": 425.72453125000175,
      "v": 110
    },
    {
      "midi": 67,
      "hit": false,
      "t": 86956.49999999996,
      "d": 724.6374999999971,
      "v": 110
    },
    {
      "midi": 45,
      "hit": false,
      "t": 86956.50000000012,
      "d": 3260.8687500000087,
      "v": 110
    },
    {
      "midi": 52,
      "hit": false,
      "t": 87391.28250000012,
      "d": 425.72453125000175,
      "v": 110
    },
    {
      "midi": 64,
      "hit": false,
      "t": 87826.06499999996,
      "d": 652.1737500000017,
      "v": 110
    },
    {
      "midi": 50,
      "hit": false,
      "t": 87826.06500000012,
      "d": 425.72453125000175,
      "v": 110
    },
    {
      "midi": 52,
      "hit": false,
      "t": 88260.84750000012,
      "d": 425.72453125000175,
      "v": 110
    },
    {
      "midi": 48,
      "hit": false,
      "t": 88695.63000000012,
      "d": 1521.738750000004,
      "v": 110
    },
    {
      "midi": 64,
      "hit": false,
      "t": 89130.41249999996,
      "d": 425.72453125000175,
      "v": 110
    },
    {
      "midi": 76,
      "hit": false,
      "t": 89565.19499999996,
      "d": 425.72453125000175,
      "v": 110
    },
    {
      "midi": 72,
      "hit": false,
      "t": 89999.97749999996,
      "d": 425.72453125000175,
      "v": 110
    },
    {
      "midi": 71,
      "hit": false,
      "t": 90434.75999999997,
      "d": 724.6374999999971,
      "v": 110
    },
    {
      "midi": 45,
      "hit": false,
      "t": 90434.76000000013,
      "d": 3260.8687500000087,
      "v": 110
    },
    {
      "midi": 52,
      "hit": false,
      "t": 90869.54250000013,
      "d": 425.72453125000175,
      "v": 110
    },
    {
      "midi": 69,
      "hit": false,
      "t": 91304.32499999997,
      "d": 724.6374999999971,
      "v": 110
    },
    {
      "midi": 48,
      "hit": false,
      "t": 91304.32500000013,
      "d": 425.72453125000175,
      "v": 110
    },
    {
      "midi": 52,
      "hit": false,
      "t": 91739.10750000013,
      "d": 425.72453125000175,
      "v": 110
    },
    {
      "midi": 71,
      "hit": false,
      "t": 92173.88999999997,
      "d": 1159.4199999999983,
      "v": 110
    },
    {
      "midi": 48,
      "hit": false,
      "t": 92173.89000000013,
      "d": 425.72453125000175,
      "v": 110
    },
    {
      "midi": 52,
      "hit": false,
      "t": 92608.67250000013,
      "d": 425.72453125000175,
      "v": 110
    },
    {
      "midi": 48,
      "hit": false,
      "t": 93043.45500000013,
      "d": 425.72453125000175,
      "v": 110
    },
    {
      "midi": 72,
      "hit": false,
      "t": 93478.23749999997,
      "d": 425.72453125000175,
      "v": 110
    },
    {
      "midi": 52,
      "hit": false,
      "t": 93478.23750000013,
      "d": 425.72453125000175,
      "v": 110
    },
    {
      "midi": 79,
      "hit": false,
      "t": 93913.01999999997,
      "d": 724.6374999999971,
      "v": 110
    },
    {
      "midi": 50,
      "hit": false,
      "t": 93913.02000000014,
      "d": 3260.8687500000087,
      "v": 110
    },
    {
      "midi": 57,
      "hit": false,
      "t": 94347.80250000014,
      "d": 425.72453125000175,
      "v": 110
    },
    {
      "midi": 77,
      "hit": false,
      "t": 94782.58499999998,
      "d": 1295.289531250004,
      "v": 110
    },
    {
      "midi": 53,
      "hit": false,
      "t": 94782.58500000014,
      "d": 425.72453125000175,
      "v": 110
    },
    {
      "midi": 57,
      "hit": false,
      "t": 95217.36750000014,
      "d": 425.72453125000175,
      "v": 110
    },
    {
      "midi": 53,
      "hit": false,
      "t": 95652.15000000014,
      "d": 425.72453125000175,
      "v": 110
    },
    {
      "midi": 69,
      "hit": false,
      "t": 96086.93249999998,
      "d": 425.72453125000175,
      "v": 110
    },
    {
      "midi": 57,
      "hit": false,
      "t": 96086.93250000014,
      "d": 425.72453125000175,
      "v": 110
    },
    {
      "midi": 71,
      "hit": false,
      "t": 96521.71499999998,
      "d": 425.72453125000175,
      "v": 110
    },
    {
      "midi": 53,
      "hit": false,
      "t": 96521.71500000014,
      "d": 425.72453125000175,
      "v": 110
    },
    {
      "midi": 69,
      "hit": false,
      "t": 96956.49749999998,
      "d": 425.72453125000175,
      "v": 110
    },
    {
      "midi": 57,
      "hit": false,
      "t": 96956.49750000014,
      "d": 425.72453125000175,
      "v": 110
    },
    {
      "midi": 69,
      "hit": false,
      "t": 97391.27999999998,
      "d": 2164.8545312500064,
      "v": 110
    },
    {
      "midi": 76,
      "hit": false,
      "t": 97391.27999999998,
      "d": 2164.8545312500064,
      "v": 110
    },
    {
      "midi": 52,
      "hit": false,
      "t": 97391.28000000014,
      "d": 3260.8687500000087,
      "v": 110
    },
    {
      "midi": 59,
      "hit": false,
      "t": 97826.06250000015,
      "d": 425.72453125000175,
      "v": 110
    },
    {
      "midi": 57,
      "hit": false,
      "t": 98260.84500000015,
      "d": 425.72453125000175,
      "v": 110
    },
    {
      "midi": 59,
      "hit": false,
      "t": 98695.62750000015,
      "d": 425.72453125000175,
      "v": 110
    },
    {
      "midi": 57,
      "hit": false,
      "t": 99130.41000000015,
      "d": 425.72453125000175,
      "v": 110
    },
    {
      "midi": 66,
      "hit": false,
      "t": 99565.19249999999,
      "d": 425.72453125000175,
      "v": 110
    },
    {
      "midi": 59,
      "hit": false,
      "t": 99565.19250000015,
      "d": 425.72453125000175,
      "v": 110
    },
    {
      "midi": 69,
      "hit": false,
      "t": 99999.97499999999,
      "d": 425.72453125000175,
      "v": 110
    },
    {
      "midi": 57,
      "hit": false,
      "t": 99999.97500000015,
      "d": 425.72453125000175,
      "v": 110
    },
    {
      "midi": 71,
      "hit": false,
      "t": 100434.75749999999,
      "d": 425.72453125000175,
      "v": 110
    },
    {
      "midi": 54,
      "hit": false,
      "t": 100434.75750000015,
      "d": 425.72453125000175,
      "v": 110
    },
    {
      "midi": 68,
      "hit": false,
      "t": 100869.54,
      "d": 1521.738750000004,
      "v": 110
    },
    {
      "midi": 52,
      "hit": false,
      "t": 100869.54000000015,
      "d": 3260.8687500000087,
      "v": 110
    },
    {
      "midi": 59,
      "hit": false,
      "t": 101304.32250000015,
      "d": 425.72453125000175,
      "v": 110
    },
    {
      "midi": 56,
      "hit": false,
      "t": 101739.10500000016,
      "d": 425.72453125000175,
      "v": 110
    },
    {
      "midi": 59,
      "hit": false,
      "t": 102173.88750000016,
      "d": 425.72453125000175,
      "v": 110
    },
    {
      "midi": 56,
      "hit": false,
      "t": 102608.67000000016,
      "d": 1521.738750000004,
      "v": 110
    },
    {
      "midi": 64,
      "hit": false,
      "t": 103043.4525,
      "d": 425.72453125000175,
      "v": 110
    },
    {
      "midi": 76,
      "hit": false,
      "t": 103478.235,
      "d": 425.72453125000175,
      "v": 110
    },
    {
      "midi": 72,
      "hit": false,
      "t": 103913.0175,
      "d": 425.72453125000175,
      "v": 110
    },
    {
      "midi": 71,
      "hit": false,
      "t": 104347.8,
      "d": 724.6374999999971,
      "v": 110
    },
    {
      "midi": 45,
      "hit": false,
      "t": 104347.80000000016,
      "d": 3260.8687500000087,
      "v": 110
    },
    {
      "midi": 52,
      "hit": false,
      "t": 104782.58250000016,
      "d": 425.72453125000175,
      "v": 110
    },
    {
      "midi": 69,
      "hit": false,
      "t": 105217.365,
      "d": 724.6374999999971,
      "v": 110
    },
    {
      "midi": 48,
      "hit": false,
      "t": 105217.36500000017,
      "d": 425.72453125000175,
      "v": 110
    },
    {
      "midi": 52,
      "hit": false,
      "t": 105652.14750000017,
      "d": 425.72453125000175,
      "v": 110
    },
    {
      "midi": 71,
      "hit": false,
      "t": 106086.93000000001,
      "d": 1159.4199999999983,
      "v": 110
    },
    {
      "midi": 48,
      "hit": false,
      "t": 106086.93000000017,
      "d": 425.72453125000175,
      "v": 110
    },
    {
      "midi": 52,
      "hit": false,
      "t": 106521.71250000017,
      "d": 425.72453125000175,
      "v": 110
    },
    {
      "midi": 48,
      "hit": false,
      "t": 106956.49500000017,
      "d": 425.72453125000175,
      "v": 110
    },
    {
      "midi": 72,
      "hit": false,
      "t": 107391.27750000001,
      "d": 425.72453125000175,
      "v": 110
    },
    {
      "midi": 52,
      "hit": false,
      "t": 107391.27750000017,
      "d": 425.72453125000175,
      "v": 110
    },
    {
      "midi": 67,
      "hit": false,
      "t": 107826.06000000001,
      "d": 724.6374999999971,
      "v": 110
    },
    {
      "midi": 45,
      "hit": false,
      "t": 107826.06000000017,
      "d": 3260.8687500000087,
      "v": 110
    },
    {
      "midi": 53,
      "hit": false,
      "t": 108260.84250000017,
      "d": 425.72453125000175,
      "v": 110
    },
    {
      "midi": 65,
      "hit": false,
      "t": 108695.62500000001,
      "d": 724.6374999999971,
      "v": 110
    },
    {
      "midi": 48,
      "hit": false,
      "t": 108695.62500000017,
      "d": 425.72453125000175,
      "v": 110
    },
    {
      "midi": 53,
      "hit": false,
      "t": 109130.40750000018,
      "d": 425.72453125000175,
      "v": 110
    },
    {
      "midi": 67,
      "hit": false,
      "t": 109565.19000000002,
      "d": 1159.4199999999983,
      "v": 110
    },
    {
      "midi": 48,
      "hit": false,
      "t": 109565.19000000018,
      "d": 425.72453125000175,
      "v": 110
    },
    {
      "midi": 53,
      "hit": false,
      "t": 109999.97250000018,
      "d": 425.72453125000175,
      "v": 110
    },
    {
      "midi": 48,
      "hit": false,
      "t": 110434.75500000018,
      "d": 425.72453125000175,
      "v": 110
    },
    {
      "midi": 69,
      "hit": false,
      "t": 110869.53750000002,
      "d": 425.72453125000175,
      "v": 110
    },
    {
      "midi": 53,
      "hit": false,
      "t": 110869.53750000018,
      "d": 425.72453125000175,
      "v": 110
    },
    {
      "midi": 64,
      "hit": false,
      "t": 111304.32000000002,
      "d": 4999.998749999999,
      "v": 110
    },
    {
      "midi": 45,
      "hit": false,
      "t": 111304.32000000018,
      "d": 3260.8687500000087,
      "v": 110
    },
    {
      "midi": 52,
      "hit": false,
      "t": 111739.10250000018,
      "d": 425.72453125000175,
      "v": 110
    },
    {
      "midi": 48,
      "hit": false,
      "t": 112173.88500000018,
      "d": 425.72453125000175,
      "v": 110
    },
    {
      "midi": 52,
      "hit": false,
      "t": 112608.66750000019,
      "d": 425.72453125000175,
      "v": 110
    },
    {
      "midi": 48,
      "hit": false,
      "t": 113043.45000000019,
      "d": 425.72453125000175,
      "v": 110
    },
    {
      "midi": 52,
      "hit": false,
      "t": 113478.23250000019,
      "d": 425.72453125000175,
      "v": 110
    },
    {
      "midi": 48,
      "hit": false,
      "t": 113913.01500000019,
      "d": 425.72453125000175,
      "v": 110
    },
    {
      "midi": 52,
      "hit": false,
      "t": 114347.79750000019,
      "d": 425.72453125000175,
      "v": 110
    },
    {
      "midi": 43,
      "hit": false,
      "t": 114782.58000000019,
      "d": 3260.8687500000087,
      "v": 110
    },
    {
      "midi": 52,
      "hit": false,
      "t": 115217.36250000019,
      "d": 425.72453125000175,
      "v": 110
    },
    {
      "midi": 48,
      "hit": false,
      "t": 115652.1450000002,
      "d": 425.72453125000175,
      "v": 110
    },
    {
      "midi": 52,
      "hit": false,
      "t": 116086.9275000002,
      "d": 425.72453125000175,
      "v": 110
    },
    {
      "midi": 48,
      "hit": false,
      "t": 116521.7100000002,
      "d": 425.72453125000175,
      "v": 110
    },
    {
      "midi": 64,
      "hit": false,
      "t": 116956.49250000002,
      "d": 425.72453125000175,
      "v": 110
    },
    {
      "midi": 52,
      "hit": false,
      "t": 116956.4925000002,
      "d": 425.72453125000175,
      "v": 110
    },
    {
      "midi": 76,
      "hit": false,
      "t": 117391.27500000002,
      "d": 425.72453125000175,
      "v": 110
    },
    {
      "midi": 48,
      "hit": false,
      "t": 117391.2750000002,
      "d": 425.72453125000175,
      "v": 110
    },
    {
      "midi": 72,
      "hit": false,
      "t": 117826.05750000002,
      "d": 425.72453125000175,
      "v": 110
    },
    {
      "midi": 52,
      "hit": false,
      "t": 117826.0575000002,
      "d": 425.72453125000175,
      "v": 110
    },
    {
      "midi": 71,
      "hit": false,
      "t": 118260.84000000003,
      "d": 724.6374999999971,
      "v": 110
    },
    {
      "midi": 41,
      "hit": false,
      "t": 118260.8400000002,
      "d": 3260.8687500000087,
      "v": 110
    },
    {
      "midi": 48,
      "hit": false,
      "t": 118695.6225000002,
      "d": 425.72453125000175,
      "v": 110
    },
    {
      "midi": 69,
      "hit": false,
      "t": 119130.40500000003,
      "d": 724.6374999999971,
      "v": 110
    },
    {
      "midi": 45,
      "hit": false,
      "t": 119130.4050000002,
      "d": 425.72453125000175,
      "v": 110
    },
    {
      "midi": 48,
      "hit": false,
      "t": 119565.1875000002,
      "d": 425.72453125000175,
      "v": 110
    },
    {
      "midi": 45,
      "hit": false,
      "t": 119999.9700000002,
      "d": 425.72453125000175,
      "v": 110
    },
    {
      "midi": 69,
      "hit": false,
      "t": 120434.75250000003,
      "d": 425.72453125000175,
      "v": 110
    },
    {
      "midi": 48,
      "hit": false,
      "t": 120434.7525000002,
      "d": 425.72453125000175,
      "v": 110
    },
    {
      "midi": 81,
      "hit": false,
      "t": 120869.53500000003,
      "d": 425.72453125000175,
      "v": 110
    },
    {
      "midi": 45,
      "hit": false,
      "t": 120869.5350000002,
      "d": 425.72453125000175,
      "v": 110
    },
    {
      "midi": 76,
      "hit": false,
      "t": 121304.31750000003,
      "d": 425.72453125000175,
      "v": 110
    },
    {
      "midi": 48,
      "hit": false,
      "t": 121304.31750000021,
      "d": 425.72453125000175,
      "v": 110
    },
    {
      "midi": 79,
      "hit": false,
      "t": 121739.10000000003,
      "d": 724.6374999999971,
      "v": 110
    },
    {
      "midi": 50,
      "hit": false,
      "t": 121739.10000000021,
      "d": 1521.738750000004,
      "v": 110
    },
    {
      "midi": 57,
      "hit": false,
      "t": 122173.88250000021,
      "d": 425.72453125000175,
      "v": 110
    },
    {
      "midi": 77,
      "hit": false,
      "t": 122608.66500000004,
      "d": 724.6374999999971,
      "v": 110
    },
    {
      "midi": 53,
      "hit": false,
      "t": 122608.66500000021,
      "d": 425.72453125000175,
      "v": 110
    },
    {
      "midi": 57,
      "hit": false,
      "t": 123043.44750000021,
      "d": 425.72453125000175,
      "v": 110
    },
    {
      "midi": 69,
      "hit": false,
      "t": 123478.23000000004,
      "d": 1159.4199999999983,
      "v": 110
    },
    {
      "midi": 51,
      "hit": false,
      "t": 123478.23000000021,
      "d": 1521.738750000004,
      "v": 110
    },
    {
      "midi": 57,
      "hit": false,
      "t": 123913.01250000022,
      "d": 425.72453125000175,
      "v": 110
    },
    {
      "midi": 54,
      "hit": false,
      "t": 124347.79500000022,
      "d": 425.72453125000175,
      "v": 110
    },
    {
      "midi": 71,
      "hit": false,
      "t": 124782.57750000004,
      "d": 425.72453125000175,
      "v": 110
    },
    {
      "midi": 57,
      "hit": false,
      "t": 124782.57750000022,
      "d": 425.72453125000175,
      "v": 110
    },
    {
      "midi": 69,
      "hit": false,
      "t": 125217.36000000004,
      "d": 1159.4199999999983,
      "v": 110
    },
    {
      "midi": 72,
      "hit": false,
      "t": 125217.36000000004,
      "d": 1159.4199999999983,
      "v": 110
    },
    {
      "midi": 52,
      "hit": false,
      "t": 125217.36000000022,
      "d": 1521.738750000004,
      "v": 110
    },
    {
      "midi": 60,
      "hit": false,
      "t": 125652.14250000022,
      "d": 425.72453125000175,
      "v": 110
    },
    {
      "midi": 57,
      "hit": false,
      "t": 126086.92500000022,
      "d": 425.72453125000175,
      "v": 110
    },
    {
      "midi": 66,
      "hit": false,
      "t": 126521.70750000005,
      "d": 425.72453125000175,
      "v": 110
    },
    {
      "midi": 74,
      "hit": false,
      "t": 126521.70750000005,
      "d": 425.72453125000175,
      "v": 110
    },
    {
      "midi": 60,
      "hit": false,
      "t": 126521.70750000022,
      "d": 425.72453125000175,
      "v": 110
    },
    {
      "midi": 68,
      "hit": false,
      "t": 126956.49000000005,
      "d": 1159.4199999999983,
      "v": 110
    },
    {
      "midi": 71,
      "hit": false,
      "t": 126956.49000000005,
      "d": 1159.4199999999983,
      "v": 110
    },
    {
      "midi": 52,
      "hit": false,
      "t": 126956.49000000022,
      "d": 1521.738750000004,
      "v": 110
    },
    {
      "midi": 59,
      "hit": false,
      "t": 127391.27250000022,
      "d": 425.72453125000175,
      "v": 110
    },
    {
      "midi": 56,
      "hit": false,
      "t": 127826.05500000023,
      "d": 425.72453125000175,
      "v": 110
    },
    {
      "midi": 69,
      "hit": false,
      "t": 128260.83750000005,
      "d": 425.72453125000175,
      "v": 110
    },
    {
      "midi": 59,
      "hit": false,
      "t": 128260.83750000023,
      "d": 425.72453125000175,
      "v": 110
    },
    {
      "midi": 69,
      "hit": false,
      "t": 128695.62000000005,
      "d": 1521.738750000004,
      "v": 110
    },
    {
      "midi": 62,
      "hit": false,
      "t": 128695.62000000023,
      "d": 724.6374999999971,
      "v": 110
    },
    {
      "midi": 57,
      "hit": false,
      "t": 128695.62000000023,
      "d": 2391.303749999992,
      "v": 110
    },
    {
      "midi": 59,
      "hit": false,
      "t": 129565.18500000023,
      "d": 724.6374999999971,
      "v": 110
    },
    {
      "midi": 60,
      "hit": false,
      "t": 130434.75000000023,
      "d": 724.6374999999825,
      "v": 110
    },
    {
      "midi": 64,
      "hit": false,
      "t": 130869.53250000006,
      "d": 425.7245312499872,
      "v": 110
    },
    {
      "midi": 76,
      "hit": false,
      "t": 131304.31500000006,
      "d": 425.7245312499872,
      "v": 110
    },
    {
      "midi": 72,
      "hit": false,
      "t": 131739.09750000006,
      "d": 425.7245312499872,
      "v": 110
    },
    {
      "midi": 71,
      "hit": false,
      "t": 132173.88000000006,
      "d": 724.6375000000116,
      "v": 110
    },
    {
      "midi": 45,
      "hit": false,
      "t": 132173.8800000002,
      "d": 3260.868749999994,
      "v": 110
    },
    {
      "midi": 52,
      "hit": false,
      "t": 132608.6625000002,
      "d": 425.7245312499872,
      "v": 110
    },
    {
      "midi": 69,
      "hit": false,
      "t": 133043.44500000007,
      "d": 724.6375000000116,
      "v": 110
    },
    {
      "midi": 48,
      "hit": false,
      "t": 133043.4450000002,
      "d": 425.7245312499872,
      "v": 110
    },
    {
      "midi": 52,
      "hit": false,
      "t": 133478.2275000002,
      "d": 425.7245312499872,
      "v": 110
    },
    {
      "midi": 71,
      "hit": false,
      "t": 133913.01000000007,
      "d": 1159.4200000000128,
      "v": 110
    },
    {
      "midi": 48,
      "hit": false,
      "t": 133913.0100000002,
      "d": 425.7245312499872,
      "v": 110
    },
    {
      "midi": 52,
      "hit": false,
      "t": 134347.7925000002,
      "d": 425.7245312499872,
      "v": 110
    },
    {
      "midi": 48,
      "hit": false,
      "t": 134782.57500000022,
      "d": 425.7245312499872,
      "v": 110
    },
    {
      "midi": 72,
      "hit": false,
      "t": 135217.35750000007,
      "d": 425.7245312499872,
      "v": 110
    },
    {
      "midi": 52,
      "hit": false,
      "t": 135217.35750000022,
      "d": 425.7245312499872,
      "v": 110
    },
    {
      "midi": 67,
      "hit": false,
      "t": 135652.14000000007,
      "d": 724.6375000000116,
      "v": 110
    },
    {
      "midi": 45,
      "hit": false,
      "t": 135652.14000000022,
      "d": 3260.868749999994,
      "v": 110
    },
    {
      "midi": 53,
      "hit": false,
      "t": 136086.92250000022,
      "d": 425.7245312499872,
      "v": 110
    },
    {
      "midi": 65,
      "hit": false,
      "t": 136521.70500000007,
      "d": 724.6375000000116,
      "v": 110
    },
    {
      "midi": 48,
      "hit": false,
      "t": 136521.70500000022,
      "d": 425.7245312499872,
      "v": 110
    },
    {
      "midi": 53,
      "hit": false,
      "t": 136956.48750000022,
      "d": 425.7245312499872,
      "v": 110
    },
    {
      "midi": 67,
      "hit": false,
      "t": 137391.27000000008,
      "d": 1159.4200000000128,
      "v": 110
    },
    {
      "midi": 48,
      "hit": false,
      "t": 137391.27000000022,
      "d": 425.7245312499872,
      "v": 110
    },
    {
      "midi": 53,
      "hit": false,
      "t": 137826.05250000022,
      "d": 425.7245312499872,
      "v": 110
    },
    {
      "midi": 48,
      "hit": false,
      "t": 138260.83500000022,
      "d": 425.7245312499872,
      "v": 110
    },
    {
      "midi": 69,
      "hit": false,
      "t": 138695.61750000008,
      "d": 425.7245312499872,
      "v": 110
    },
    {
      "midi": 53,
      "hit": false,
      "t": 138695.61750000023,
      "d": 425.7245312499872,
      "v": 110
    },
    {
      "midi": 45,
      "hit": false,
      "t": 139130.40000000023,
      "d": 3260.868749999994,
      "v": 110
    },
    {
      "midi": 52,
      "hit": false,
      "t": 139565.18250000023,
      "d": 425.7245312499872,
      "v": 110
    },
    {
      "midi": 48,
      "hit": false,
      "t": 139999.96500000023,
      "d": 425.7245312499872,
      "v": 110
    },
    {
      "midi": 52,
      "hit": false,
      "t": 140434.74750000023,
      "d": 425.7245312499872,
      "v": 110
    },
    {
      "midi": 72,
      "hit": false,
      "t": 140869.5300000001,
      "d": 724.6375000000116,
      "v": 110
    },
    {
      "midi": 48,
      "hit": false,
      "t": 140869.53000000023,
      "d": 425.7245312499872,
      "v": 110
    },
    {
      "midi": 52,
      "hit": false,
      "t": 141304.31250000023,
      "d": 425.7245312499872,
      "v": 110
    },
    {
      "midi": 71,
      "hit": false,
      "t": 141739.0950000001,
      "d": 724.6375000000116,
      "v": 110
    },
    {
      "midi": 48,
      "hit": false,
      "t": 141739.09500000023,
      "d": 425.7245312499872,
      "v": 110
    },
    {
      "midi": 52,
      "hit": false,
      "t": 142173.87750000024,
      "d": 425.7245312499872,
      "v": 110
    },
    {
      "midi": 67,
      "hit": false,
      "t": 142608.6600000001,
      "d": 724.6375000000116,
      "v": 110
    },
    {
      "midi": 45,
      "hit": false,
      "t": 142608.66000000024,
      "d": 3260.868749999994,
      "v": 110
    },
    {
      "midi": 52,
      "hit": false,
      "t": 143043.44250000024,
      "d": 425.7245312499872,
      "v": 110
    },
    {
      "midi": 64,
      "hit": false,
      "t": 143478.2250000001,
      "d": 652.1737499999872,
      "v": 110
    },
    {
      "midi": 50,
      "hit": false,
      "t": 143478.22500000024,
      "d": 425.7245312499872,
      "v": 110
    },
    {
      "midi": 52,
      "hit": false,
      "t": 143913.00750000024,
      "d": 425.7245312499872,
      "v": 110
    },
    {
      "midi": 48,
      "hit": false,
      "t": 144347.79000000024,
      "d": 1521.7387499999895,
      "v": 110
    },
    {
      "midi": 64,
      "hit": false,
      "t": 144782.57250000007,
      "d": 425.7245312499872,
      "v": 110
    },
    {
      "midi": 76,
      "hit": false,
      "t": 145217.35500000007,
      "d": 425.7245312499872,
      "v": 110
    },
    {
      "midi": 72,
      "hit": false,
      "t": 145652.13750000007,
      "d": 425.7245312499872,
      "v": 110
    },
    {
      "midi": 71,
      "hit": false,
      "t": 146086.92000000007,
      "d": 724.6375000000116,
      "v": 110
    },
    {
      "midi": 45,
      "hit": false,
      "t": 146086.92000000022,
      "d": 3260.868749999994,
      "v": 110
    },
    {
      "midi": 52,
      "hit": false,
      "t": 146521.70250000022,
      "d": 425.7245312499872,
      "v": 110
    },
    {
      "midi": 69,
      "hit": false,
      "t": 146956.48500000007,
      "d": 724.6375000000116,
      "v": 110
    },
    {
      "midi": 48,
      "hit": false,
      "t": 146956.48500000022,
      "d": 425.7245312499872,
      "v": 110
    },
    {
      "midi": 52,
      "hit": false,
      "t": 147391.26750000022,
      "d": 425.7245312499872,
      "v": 110
    },
    {
      "midi": 71,
      "hit": false,
      "t": 147826.05000000008,
      "d": 1159.4200000000128,
      "v": 110
    },
    {
      "midi": 48,
      "hit": false,
      "t": 147826.05000000022,
      "d": 425.7245312499872,
      "v": 110
    },
    {
      "midi": 52,
      "hit": false,
      "t": 148260.83250000022,
      "d": 425.7245312499872,
      "v": 110
    },
    {
      "midi": 48,
      "hit": false,
      "t": 148695.61500000022,
      "d": 425.7245312499872,
      "v": 110
    },
    {
      "midi": 72,
      "hit": false,
      "t": 149130.39750000008,
      "d": 425.7245312499872,
      "v": 110
    },
    {
      "midi": 52,
      "hit": false,
      "t": 149130.39750000022,
      "d": 425.7245312499872,
      "v": 110
    },
    {
      "midi": 79,
      "hit": false,
      "t": 149565.18000000008,
      "d": 724.6375000000116,
      "v": 110
    },
    {
      "midi": 50,
      "hit": false,
      "t": 149565.18000000023,
      "d": 3260.868749999994,
      "v": 110
    },
    {
      "midi": 57,
      "hit": false,
      "t": 149999.96250000023,
      "d": 425.7245312499872,
      "v": 110
    },
    {
      "midi": 77,
      "hit": false,
      "t": 150434.74500000008,
      "d": 1295.2895312499895,
      "v": 110
    },
    {
      "midi": 53,
      "hit": false,
      "t": 150434.74500000023,
      "d": 425.7245312499872,
      "v": 110
    },
    {
      "midi": 57,
      "hit": false,
      "t": 150869.52750000023,
      "d": 425.7245312499872,
      "v": 110
    },
    {
      "midi": 53,
      "hit": false,
      "t": 151304.31000000023,
      "d": 425.7245312499872,
      "v": 110
    },
    {
      "midi": 69,
      "hit": false,
      "t": 151739.0925000001,
      "d": 425.7245312499872,
      "v": 110
    },
    {
      "midi": 57,
      "hit": false,
      "t": 151739.09250000023,
      "d": 425.7245312499872,
      "v": 110
    },
    {
      "midi": 71,
      "hit": false,
      "t": 152173.8750000001,
      "d": 425.7245312499872,
      "v": 110
    },
    {
      "midi": 53,
      "hit": false,
      "t": 152173.87500000023,
      "d": 425.7245312499872,
      "v": 110
    },
    {
      "midi": 69,
      "hit": false,
      "t": 152608.6575000001,
      "d": 425.7245312499872,
      "v": 110
    },
    {
      "midi": 57,
      "hit": false,
      "t": 152608.65750000023,
      "d": 425.7245312499872,
      "v": 110
    },
    {
      "midi": 69,
      "hit": false,
      "t": 153043.4400000001,
      "d": 2164.854531249992,
      "v": 110
    },
    {
      "midi": 76,
      "hit": false,
      "t": 153043.4400000001,
      "d": 2164.854531249992,
      "v": 110
    },
    {
      "midi": 52,
      "hit": false,
      "t": 153043.44000000024,
      "d": 3260.868749999994,
      "v": 110
    },
    {
      "midi": 59,
      "hit": false,
      "t": 153478.22250000024,
      "d": 425.7245312499872,
      "v": 110
    },
    {
      "midi": 57,
      "hit": false,
      "t": 153913.00500000024,
      "d": 425.7245312499872,
      "v": 110
    },
    {
      "midi": 59,
      "hit": false,
      "t": 154347.78750000024,
      "d": 425.7245312499872,
      "v": 110
    },
    {
      "midi": 57,
      "hit": false,
      "t": 154782.57000000024,
      "d": 425.7245312499872,
      "v": 110
    },
    {
      "midi": 66,
      "hit": false,
      "t": 155217.3525000001,
      "d": 425.7245312499872,
      "v": 110
    },
    {
      "midi": 59,
      "hit": false,
      "t": 155217.35250000024,
      "d": 425.7245312499872,
      "v": 110
    },
    {
      "midi": 69,
      "hit": false,
      "t": 155652.1350000001,
      "d": 425.7245312499872,
      "v": 110
    },
    {
      "midi": 57,
      "hit": false,
      "t": 155652.13500000024,
      "d": 425.7245312499872,
      "v": 110
    },
    {
      "midi": 71,
      "hit": false,
      "t": 156086.9175000001,
      "d": 425.7245312499872,
      "v": 110
    },
    {
      "midi": 54,
      "hit": false,
      "t": 156086.91750000024,
      "d": 425.7245312499872,
      "v": 110
    },
    {
      "midi": 68,
      "hit": false,
      "t": 156521.7000000001,
      "d": 1521.7387499999895,
      "v": 110
    },
    {
      "midi": 52,
      "hit": false,
      "t": 156521.70000000024,
      "d": 3260.868749999994,
      "v": 110
    },
    {
      "midi": 59,
      "hit": false,
      "t": 156956.48250000025,
      "d": 425.7245312499872,
      "v": 110
    },
    {
      "midi": 56,
      "hit": false,
      "t": 157391.26500000025,
      "d": 425.7245312499872,
      "v": 110
    },
    {
      "midi": 59,
      "hit": false,
      "t": 157826.04750000025,
      "d": 425.7245312499872,
      "v": 110
    },
    {
      "midi": 56,
      "hit": false,
      "t": 158260.83000000025,
      "d": 1521.7387499999895,
      "v": 110
    },
    {
      "midi": 64,
      "hit": false,
      "t": 158695.61250000008,
      "d": 425.7245312499872,
      "v": 110
    },
    {
      "midi": 76,
      "hit": false,
      "t": 159130.39500000008,
      "d": 425.7245312499872,
      "v": 110
    },
    {
      "midi": 72,
      "hit": false,
      "t": 159565.17750000008,
      "d": 425.7245312499872,
      "v": 110
    },
    {
      "midi": 71,
      "hit": false,
      "t": 159999.96000000008,
      "d": 724.6375000000116,
      "v": 110
    },
    {
      "midi": 45,
      "hit": false,
      "t": 159999.96000000022,
      "d": 3260.868749999994,
      "v": 110
    },
    {
      "midi": 52,
      "hit": false,
      "t": 160434.74250000023,
      "d": 425.7245312499872,
      "v": 110
    },
    {
      "midi": 69,
      "hit": false,
      "t": 160869.52500000008,
      "d": 724.6375000000116,
      "v": 110
    },
    {
      "midi": 48,
      "hit": false,
      "t": 160869.52500000023,
      "d": 425.7245312499872,
      "v": 110
    },
    {
      "midi": 52,
      "hit": false,
      "t": 161304.30750000023,
      "d": 425.7245312499872,
      "v": 110
    },
    {
      "midi": 71,
      "hit": false,
      "t": 161739.09000000008,
      "d": 1159.4200000000128,
      "v": 110
    },
    {
      "midi": 48,
      "hit": false,
      "t": 161739.09000000023,
      "d": 425.7245312499872,
      "v": 110
    },
    {
      "midi": 52,
      "hit": false,
      "t": 162173.87250000023,
      "d": 425.7245312499872,
      "v": 110
    },
    {
      "midi": 48,
      "hit": false,
      "t": 162608.65500000023,
      "d": 425.7245312499872,
      "v": 110
    },
    {
      "midi": 72,
      "hit": false,
      "t": 163043.4375000001,
      "d": 425.7245312499872,
      "v": 110
    },
    {
      "midi": 52,
      "hit": false,
      "t": 163043.43750000023,
      "d": 425.7245312499872,
      "v": 110
    },
    {
      "midi": 67,
      "hit": false,
      "t": 163478.2200000001,
      "d": 724.6375000000116,
      "v": 110
    },
    {
      "midi": 45,
      "hit": false,
      "t": 163478.22000000023,
      "d": 3260.868749999994,
      "v": 110
    },
    {
      "midi": 53,
      "hit": false,
      "t": 163913.00250000024,
      "d": 425.7245312499872,
      "v": 110
    },
    {
      "midi": 65,
      "hit": false,
      "t": 164347.7850000001,
      "d": 724.6375000000116,
      "v": 110
    },
    {
      "midi": 48,
      "hit": false,
      "t": 164347.78500000024,
      "d": 425.7245312499872,
      "v": 110
    },
    {
      "midi": 53,
      "hit": false,
      "t": 164782.56750000024,
      "d": 425.7245312499872,
      "v": 110
    },
    {
      "midi": 67,
      "hit": false,
      "t": 165217.3500000001,
      "d": 1159.4200000000128,
      "v": 110
    },
    {
      "midi": 48,
      "hit": false,
      "t": 165217.35000000024,
      "d": 425.7245312499872,
      "v": 110
    },
    {
      "midi": 53,
      "hit": false,
      "t": 165652.13250000024,
      "d": 425.7245312499872,
      "v": 110
    },
    {
      "midi": 48,
      "hit": false,
      "t": 166086.91500000024,
      "d": 425.7245312499872,
      "v": 110
    },
    {
      "midi": 69,
      "hit": false,
      "t": 166521.6975000001,
      "d": 425.7245312499872,
      "v": 110
    },
    {
      "midi": 53,
      "hit": false,
      "t": 166521.69750000024,
      "d": 425.7245312499872,
      "v": 110
    },
    {
      "midi": 64,
      "hit": false,
      "t": 166956.4800000001,
      "d": 4999.998749999999,
      "v": 110
    },
    {
      "midi": 45,
      "hit": false,
      "t": 166956.48000000024,
      "d": 3260.868749999994,
      "v": 110
    },
    {
      "midi": 52,
      "hit": false,
      "t": 167391.26250000024,
      "d": 425.7245312499872,
      "v": 110
    },
    {
      "midi": 48,
      "hit": false,
      "t": 167826.04500000025,
      "d": 425.7245312499872,
      "v": 110
    },
    {
      "midi": 52,
      "hit": false,
      "t": 168260.82750000025,
      "d": 425.7245312499872,
      "v": 110
    },
    {
      "midi": 48,
      "hit": false,
      "t": 168695.61000000025,
      "d": 425.7245312499872,
      "v": 110
    },
    {
      "midi": 52,
      "hit": false,
      "t": 169130.39250000025,
      "d": 425.7245312499872,
      "v": 110
    },
    {
      "midi": 48,
      "hit": false,
      "t": 169565.17500000025,
      "d": 425.7245312499872,
      "v": 110
    },
    {
      "midi": 52,
      "hit": false,
      "t": 169999.95750000025,
      "d": 425.7245312499872,
      "v": 110
    },
    {
      "midi": 43,
      "hit": false,
      "t": 170434.74000000025,
      "d": 3260.868749999994,
      "v": 110
    },
    {
      "midi": 52,
      "hit": false,
      "t": 170869.52250000025,
      "d": 425.7245312499872,
      "v": 110
    },
    {
      "midi": 48,
      "hit": false,
      "t": 171304.30500000025,
      "d": 425.7245312499872,
      "v": 110
    },
    {
      "midi": 52,
      "hit": false,
      "t": 171739.08750000026,
      "d": 425.7245312499872,
      "v": 110
    },
    {
      "midi": 48,
      "hit": false,
      "t": 172173.87000000026,
      "d": 425.7245312499872,
      "v": 110
    },
    {
      "midi": 64,
      "hit": false,
      "t": 172608.65250000008,
      "d": 425.7245312499872,
      "v": 110
    },
    {
      "midi": 52,
      "hit": false,
      "t": 172608.65250000026,
      "d": 425.7245312499872,
      "v": 110
    },
    {
      "midi": 76,
      "hit": false,
      "t": 173043.43500000008,
      "d": 425.7245312499872,
      "v": 110
    },
    {
      "midi": 48,
      "hit": false,
      "t": 173043.43500000026,
      "d": 425.7245312499872,
      "v": 110
    },
    {
      "midi": 72,
      "hit": false,
      "t": 173478.2175000001,
      "d": 425.7245312499872,
      "v": 110
    },
    {
      "midi": 52,
      "hit": false,
      "t": 173478.21750000026,
      "d": 425.7245312499872,
      "v": 110
    },
    {
      "midi": 71,
      "hit": false,
      "t": 173913.0000000001,
      "d": 724.6375000000116,
      "v": 110
    },
    {
      "midi": 41,
      "hit": false,
      "t": 173913.00000000026,
      "d": 3260.868749999994,
      "v": 110
    },
    {
      "midi": 48,
      "hit": false,
      "t": 174347.78250000026,
      "d": 425.7245312499872,
      "v": 110
    },
    {
      "midi": 69,
      "hit": false,
      "t": 174782.5650000001,
      "d": 724.6375000000116,
      "v": 110
    },
    {
      "midi": 45,
      "hit": false,
      "t": 174782.56500000026,
      "d": 425.7245312499872,
      "v": 110
    },
    {
      "midi": 48,
      "hit": false,
      "t": 175217.34750000027,
      "d": 425.7245312499872,
      "v": 110
    },
    {
      "midi": 45,
      "hit": false,
      "t": 175652.13000000027,
      "d": 425.7245312499872,
      "v": 110
    },
    {
      "midi": 69,
      "hit": false,
      "t": 176086.9125000001,
      "d": 425.7245312499872,
      "v": 110
    },
    {
      "midi": 48,
      "hit": false,
      "t": 176086.91250000027,
      "d": 425.7245312499872,
      "v": 110
    },
    {
      "midi": 81,
      "hit": false,
      "t": 176521.6950000001,
      "d": 425.7245312499872,
      "v": 110
    },
    {
      "midi": 45,
      "hit": false,
      "t": 176521.69500000027,
      "d": 425.7245312499872,
      "v": 110
    },
    {
      "midi": 76,
      "hit": false,
      "t": 176956.4775000001,
      "d": 425.7245312499872,
      "v": 110
    },
    {
      "midi": 48,
      "hit": false,
      "t": 176956.47750000027,
      "d": 425.7245312499872,
      "v": 110
    },
    {
      "midi": 79,
      "hit": false,
      "t": 177391.2600000001,
      "d": 724.6375000000116,
      "v": 110
    },
    {
      "midi": 50,
      "hit": false,
      "t": 177391.26000000027,
      "d": 1521.7387499999895,
      "v": 110
    },
    {
      "midi": 57,
      "hit": false,
      "t": 177826.04250000027,
      "d": 425.7245312499872,
      "v": 110
    },
    {
      "midi": 77,
      "hit": false,
      "t": 178260.8250000001,
      "d": 724.6375000000116,
      "v": 110
    },
    {
      "midi": 53,
      "hit": false,
      "t": 178260.82500000027,
      "d": 425.7245312499872,
      "v": 110
    },
    {
      "midi": 57,
      "hit": false,
      "t": 178695.60750000027,
      "d": 425.7245312499872,
      "v": 110
    },
    {
      "midi": 69,
      "hit": false,
      "t": 179130.3900000001,
      "d": 1159.4200000000128,
      "v": 110
    },
    {
      "midi": 51,
      "hit": false,
      "t": 179130.39000000028,
      "d": 1521.7387499999895,
      "v": 110
    },
    {
      "midi": 57,
      "hit": false,
      "t": 179565.17250000028,
      "d": 425.7245312499872,
      "v": 110
    },
    {
      "midi": 54,
      "hit": false,
      "t": 179999.95500000028,
      "d": 425.7245312499872,
      "v": 110
    },
    {
      "midi": 71,
      "hit": false,
      "t": 180434.7375000001,
      "d": 425.7245312499872,
      "v": 110
    },
    {
      "midi": 57,
      "hit": false,
      "t": 180434.73750000028,
      "d": 425.7245312499872,
      "v": 110
    },
    {
      "midi": 69,
      "hit": false,
      "t": 180869.5200000001,
      "d": 1159.4200000000128,
      "v": 110
    },
    {
      "midi": 72,
      "hit": false,
      "t": 180869.5200000001,
      "d": 1159.4200000000128,
      "v": 110
    },
    {
      "midi": 52,
      "hit": false,
      "t": 180869.52000000028,
      "d": 1521.7387499999895,
      "v": 110
    },
    {
      "midi": 60,
      "hit": false,
      "t": 181304.30250000028,
      "d": 425.7245312499872,
      "v": 110
    },
    {
      "midi": 57,
      "hit": false,
      "t": 181739.08500000028,
      "d": 425.7245312499872,
      "v": 110
    },
    {
      "midi": 66,
      "hit": false,
      "t": 182173.8675000001,
      "d": 425.7245312499872,
      "v": 110
    },
    {
      "midi": 74,
      "hit": false,
      "t": 182173.8675000001,
      "d": 425.7245312499872,
      "v": 110
    },
    {
      "midi": 60,
      "hit": false,
      "t": 182173.86750000028,
      "d": 425.7245312499872,
      "v": 110
    },
    {
      "midi": 68,
      "hit": false,
      "t": 182608.6500000001,
      "d": 1159.4200000000128,
      "v": 110
    },
    {
      "midi": 71,
      "hit": false,
      "t": 182608.6500000001,
      "d": 1159.4200000000128,
      "v": 110
    },
    {
      "midi": 52,
      "hit": false,
      "t": 182608.65000000029,
      "d": 1521.7387499999895,
      "v": 110
    },
    {
      "midi": 59,
      "hit": false,
      "t": 183043.4325000003,
      "d": 425.7245312499872,
      "v": 110
    },
    {
      "midi": 56,
      "hit": false,
      "t": 183478.2150000003,
      "d": 425.7245312499872,
      "v": 110
    },
    {
      "midi": 69,
      "hit": false,
      "t": 183912.9975000001,
      "d": 425.7245312499872,
      "v": 110
    },
    {
      "midi": 59,
      "hit": false,
      "t": 183912.9975000003,
      "d": 425.7245312499872,
      "v": 110
    },
    {
      "midi": 69,
      "hit": false,
      "t": 184347.78000000012,
      "d": 2391.303749999992,
      "v": 110
    },
    {
      "midi": 62,
      "hit": false,
      "t": 184347.7800000003,
      "d": 724.6375000000116,
      "v": 110
    },
    {
      "midi": 57,
      "hit": false,
      "t": 184347.7800000003,
      "d": 2391.303749999992,
      "v": 110
    },
    {
      "midi": 59,
      "hit": false,
      "t": 185217.3450000003,
      "d": 724.6375000000116,
      "v": 110
    },
    {
      "midi": 60,
      "hit": false,
      "t": 186086.9100000003,
      "d": 724.6374999999825,
      "v": 110
    },
    {
      "midi": 64,
      "hit": false,
      "t": 186956.4750000001,
      "d": 724.6375000000116,
      "v": 110
    },
    {
      "midi": 71,
      "hit": false,
      "t": 187826.0400000001,
      "d": 724.6375000000116,
      "v": 110
    },
    {
      "midi": 64,
      "hit": false,
      "t": 187826.0400000001,
      "d": 1521.7387499999895,
      "v": 110
    },
    {
      "midi": 45,
      "hit": false,
      "t": 187826.04000000027,
      "d": 3260.868749999994,
      "v": 110
    },
    {
      "midi": 52,
      "hit": false,
      "t": 187826.04000000027,
      "d": 3260.868749999994,
      "v": 110
    },
    {
      "midi": 69,
      "hit": false,
      "t": 188695.6050000001,
      "d": 724.6374999999825,
      "v": 110
    },
    {
      "midi": 62,
      "hit": false,
      "t": 189565.17000000007,
      "d": 724.6375000000116,
      "v": 110
    },
    {
      "midi": 71,
      "hit": false,
      "t": 189565.17000000007,
      "d": 724.6375000000116,
      "v": 110
    },
    {
      "midi": 64,
      "hit": false,
      "t": 190434.73500000007,
      "d": 724.6375000000116,
      "v": 110
    },
    {
      "midi": 72,
      "hit": false,
      "t": 190434.73500000007,
      "d": 724.6375000000116,
      "v": 110
    },
    {
      "midi": 72,
      "hit": false,
      "t": 191304.30000000008,
      "d": 1159.4200000000128,
      "v": 110
    },
    {
      "midi": 45,
      "hit": false,
      "t": 191304.30000000025,
      "d": 3260.868749999994,
      "v": 110
    },
    {
      "midi": 53,
      "hit": false,
      "t": 191304.30000000025,
      "d": 3260.868749999994,
      "v": 110
    },
    {
      "midi": 65,
      "hit": false,
      "t": 192608.64750000008,
      "d": 217.39124999998603,
      "v": 110
    },
    {
      "midi": 65,
      "hit": false,
      "t": 193043.43000000008,
      "d": 1521.7387499999895,
      "v": 110
    },
    {
      "midi": 64,
      "hit": false,
      "t": 194782.56000000006,
      "d": 4999.998749999999,
      "v": 110
    },
    {
      "midi": 71,
      "hit": false,
      "t": 194782.56000000006,
      "d": 4999.998749999999,
      "v": 110
    },
    {
      "midi": 52,
      "hit": false,
      "t": 194782.56000000023,
      "d": 1521.7387499999895,
      "v": 110
    },
    {
      "midi": 45,
      "hit": false,
      "t": 194782.56000000023,
      "d": 3260.868749999965,
      "v": 110
    },
    {
      "midi": 50,
      "hit": false,
      "t": 196521.6900000002,
      "d": 724.6375000000116,
      "v": 110
    },
    {
      "midi": 52,
      "hit": false,
      "t": 197391.2550000002,
      "d": 724.6374999999825,
      "v": 110
    },
    {
      "midi": 45,
      "hit": false,
      "t": 198260.82000000018,
      "d": 3260.868749999994,
      "v": 110
    },
    {
      "midi": 50,
      "hit": false,
      "t": 198260.82000000018,
      "d": 3260.868749999994,
      "v": 110
    },
    {
      "midi": 69,
      "hit": false,
      "t": 199999.95000000004,
      "d": 1521.7387499999895,
      "v": 110
    },
    {
      "midi": 81,
      "hit": false,
      "t": 199999.95000000004,
      "d": 1521.7387499999895,
      "v": 110
    },
    {
      "midi": 71,
      "hit": false,
      "t": 201739.08000000002,
      "d": 724.6375000000116,
      "v": 110
    },
    {
      "midi": 64,
      "hit": false,
      "t": 201739.08000000002,
      "d": 1521.7387499999895,
      "v": 110
    },
    {
      "midi": 45,
      "hit": false,
      "t": 201739.08000000016,
      "d": 3260.868749999994,
      "v": 110
    },
    {
      "midi": 52,
      "hit": false,
      "t": 201739.08000000016,
      "d": 3260.868749999994,
      "v": 110
    },
    {
      "midi": 69,
      "hit": false,
      "t": 202608.64500000002,
      "d": 724.6374999999825,
      "v": 110
    },
    {
      "midi": 62,
      "hit": false,
      "t": 203478.21,
      "d": 724.6375000000116,
      "v": 110
    },
    {
      "midi": 71,
      "hit": false,
      "t": 203478.21,
      "d": 724.6375000000116,
      "v": 110
    },
    {
      "midi": 64,
      "hit": false,
      "t": 204347.775,
      "d": 724.6375000000116,
      "v": 110
    },
    {
      "midi": 72,
      "hit": false,
      "t": 204347.775,
      "d": 724.6375000000116,
      "v": 110
    },
    {
      "midi": 72,
      "hit": false,
      "t": 205217.34,
      "d": 1159.4200000000128,
      "v": 110
    },
    {
      "midi": 45,
      "hit": false,
      "t": 205217.34000000014,
      "d": 3260.868749999994,
      "v": 110
    },
    {
      "midi": 53,
      "hit": false,
      "t": 205217.34000000014,
      "d": 3260.868749999994,
      "v": 110
    },
    {
      "midi": 65,
      "hit": false,
      "t": 206521.6875,
      "d": 217.39124999998603,
      "v": 110
    },
    {
      "midi": 65,
      "hit": false,
      "t": 206956.47,
      "d": 1521.7387499999895,
      "v": 110
    },
    {
      "midi": 64,
      "hit": false,
      "t": 208695.59999999998,
      "d": 3260.868749999994,
      "v": 110
    },
    {
      "midi": 71,
      "hit": false,
      "t": 208695.59999999998,
      "d": 3260.868749999994,
      "v": 110
    },
    {
      "midi": 52,
      "hit": false,
      "t": 208695.60000000012,
      "d": 1521.7387499999895,
      "v": 110
    },
    {
      "midi": 45,
      "hit": false,
      "t": 208695.60000000012,
      "d": 3260.868749999965,
      "v": 110
    },
    {
      "midi": 50,
      "hit": false,
      "t": 210434.7300000001,
      "d": 724.6375000000116,
      "v": 110
    },
    {
      "midi": 52,
      "hit": false,
      "t": 211304.2950000001,
      "d": 724.6374999999825,
      "v": 110
    },
    {
      "midi": 69,
      "hit": false,
      "t": 212173.85999999996,
      "d": 1521.7387499999895,
      "v": 110
    },
    {
      "midi": 81,
      "hit": false,
      "t": 212173.85999999996,
      "d": 1521.7387499999895,
      "v": 110
    },
    {
      "midi": 45,
      "hit": false,
      "t": 212173.86000000007,
      "d": 2391.303749999992,
      "v": 110
    },
    {
      "midi": 50,
      "hit": false,
      "t": 212173.86000000007,
      "d": 2391.303749999992,
      "v": 110
    },
    {
      "midi": 76,
      "hit": false,
      "t": 214347.77249999993,
      "d": 425.7245312499872,
      "v": 110
    },
    {
      "midi": 88,
      "hit": false,
      "t": 214782.55499999993,
      "d": 425.7245312499872,
      "v": 110
    },
    {
      "midi": 84,
      "hit": false,
      "t": 215217.33749999994,
      "d": 425.7245312499872,
      "v": 110
    },
    {
      "midi": 83,
      "hit": false,
      "t": 215652.11999999994,
      "d": 724.6375000000116,
      "v": 110
    },
    {
      "midi": 57,
      "hit": false,
      "t": 215652.12000000005,
      "d": 1521.7387499999895,
      "v": 110
    },
    {
      "midi": 64,
      "hit": false,
      "t": 216086.90250000005,
      "d": 425.7245312499872,
      "v": 110
    },
    {
      "midi": 81,
      "hit": false,
      "t": 216521.68499999994,
      "d": 724.6375000000116,
      "v": 110
    },
    {
      "midi": 60,
      "hit": false,
      "t": 216521.68500000006,
      "d": 425.7245312499872,
      "v": 110
    },
    {
      "midi": 64,
      "hit": false,
      "t": 216956.46750000006,
      "d": 425.7245312499872,
      "v": 110
    },
    {
      "midi": 83,
      "hit": false,
      "t": 217391.24999999994,
      "d": 724.6375000000116,
      "v": 110
    },
    {
      "midi": 57,
      "hit": false,
      "t": 217391.25000000006,
      "d": 1521.7387499999895,
      "v": 110
    },
    {
      "midi": 64,
      "hit": false,
      "t": 217826.03250000006,
      "d": 425.7245312499872,
      "v": 110
    },
    {
      "midi": 84,
      "hit": false,
      "t": 218260.81499999994,
      "d": 724.6375000000116,
      "v": 110
    },
    {
      "midi": 60,
      "hit": false,
      "t": 218260.81500000006,
      "d": 425.7245312499872,
      "v": 110
    },
    {
      "midi": 64,
      "hit": false,
      "t": 218695.59750000006,
      "d": 425.7245312499872,
      "v": 110
    },
    {
      "midi": 83,
      "hit": false,
      "t": 219130.37999999995,
      "d": 724.6375000000116,
      "v": 110
    },
    {
      "midi": 65,
      "hit": false,
      "t": 219565.16250000003,
      "d": 425.7245312499872,
      "v": 110
    },
    {
      "midi": 81,
      "hit": false,
      "t": 219999.94499999995,
      "d": 724.6375000000116,
      "v": 110
    },
    {
      "midi": 60,
      "hit": false,
      "t": 219999.94500000004,
      "d": 425.7245312499872,
      "v": 110
    },
    {
      "midi": 65,
      "hit": false,
      "t": 220434.72750000004,
      "d": 1956.5212499999907,
      "v": 110
    },
    {
      "midi": 76,
      "hit": false,
      "t": 221304.29249999995,
      "d": 425.7245312499872,
      "v": 110
    },
    {
      "midi": 88,
      "hit": false,
      "t": 221739.07499999995,
      "d": 425.7245312499872,
      "v": 110
    },
    {
      "midi": 84,
      "hit": false,
      "t": 222173.85749999995,
      "d": 425.7245312499872,
      "v": 110
    },
    {
      "midi": 83,
      "hit": false,
      "t": 222608.63999999996,
      "d": 724.6375000000116,
      "v": 110
    },
    {
      "midi": 57,
      "hit": false,
      "t": 222608.64,
      "d": 1521.7387499999895,
      "v": 110
    },
    {
      "midi": 64,
      "hit": false,
      "t": 223043.42250000002,
      "d": 425.7245312499872,
      "v": 110
    },
    {
      "midi": 81,
      "hit": false,
      "t": 223478.20499999996,
      "d": 724.6375000000116,
      "v": 110
    },
    {
      "midi": 60,
      "hit": false,
      "t": 223478.20500000002,
      "d": 425.7245312499872,
      "v": 110
    },
    {
      "midi": 64,
      "hit": false,
      "t": 223912.98750000002,
      "d": 425.7245312499872,
      "v": 110
    },
    {
      "midi": 83,
      "hit": false,
      "t": 224347.76999999996,
      "d": 724.6375000000116,
      "v": 110
    },
    {
      "midi": 57,
      "hit": false,
      "t": 224347.77000000002,
      "d": 1521.7387499999895,
      "v": 110
    },
    {
      "midi": 64,
      "hit": false,
      "t": 224782.55250000002,
      "d": 425.7245312499872,
      "v": 110
    },
    {
      "midi": 84,
      "hit": false,
      "t": 225217.33499999996,
      "d": 724.6375000000116,
      "v": 110
    },
    {
      "midi": 60,
      "hit": false,
      "t": 225217.33500000002,
      "d": 425.7245312499872,
      "v": 110
    },
    {
      "midi": 64,
      "hit": false,
      "t": 225652.11750000002,
      "d": 425.7245312499872,
      "v": 110
    },
    {
      "midi": 83,
      "hit": false,
      "t": 226086.89999999997,
      "d": 724.6375000000116,
      "v": 110
    },
    {
      "midi": 65,
      "hit": false,
      "t": 226521.6825,
      "d": 425.7245312499872,
      "v": 110
    },
    {
      "midi": 81,
      "hit": false,
      "t": 226956.46499999997,
      "d": 724.6375000000116,
      "v": 110
    },
    {
      "midi": 60,
      "hit": false,
      "t": 226956.465,
      "d": 425.7245312499872,
      "v": 110
    },
    {
      "midi": 65,
      "hit": false,
      "t": 227391.2475,
      "d": 1956.5212499999907,
      "v": 110
    },
    {
      "midi": 76,
      "hit": false,
      "t": 228260.81249999997,
      "d": 425.7245312499872,
      "v": 110
    },
    {
      "midi": 88,
      "hit": false,
      "t": 228695.59499999997,
      "d": 425.7245312499872,
      "v": 110
    },
    {
      "midi": 84,
      "hit": false,
      "t": 229130.37749999997,
      "d": 425.7245312499872,
      "v": 110
    },
    {
      "midi": 83,
      "hit": false,
      "t": 229565.15999999997,
      "d": 724.6375000000116,
      "v": 110
    },
    {
      "midi": 57,
      "hit": false,
      "t": 229565.15999999997,
      "d": 1521.7387499999895,
      "v": 110
    },
    {
      "midi": 64,
      "hit": false,
      "t": 229999.94249999998,
      "d": 425.7245312499872,
      "v": 110
    },
    {
      "midi": 81,
      "hit": false,
      "t": 230434.72499999998,
      "d": 724.6375000000116,
      "v": 110
    },
    {
      "midi": 60,
      "hit": false,
      "t": 230434.72499999998,
      "d": 425.7245312499872,
      "v": 110
    },
    {
      "midi": 64,
      "hit": false,
      "t": 230869.50749999998,
      "d": 425.7245312499872,
      "v": 110
    },
    {
      "midi": 83,
      "hit": false,
      "t": 231304.28999999998,
      "d": 724.6375000000116,
      "v": 110
    },
    {
      "midi": 57,
      "hit": false,
      "t": 231304.28999999998,
      "d": 1521.7387499999895,
      "v": 110
    },
    {
      "midi": 64,
      "hit": false,
      "t": 231739.07249999998,
      "d": 425.7245312499872,
      "v": 110
    },
    {
      "midi": 84,
      "hit": false,
      "t": 232173.85499999998,
      "d": 724.6375000000116,
      "v": 110
    },
    {
      "midi": 60,
      "hit": false,
      "t": 232173.85499999998,
      "d": 425.7245312499872,
      "v": 110
    },
    {
      "midi": 64,
      "hit": false,
      "t": 232608.63749999998,
      "d": 425.7245312499872,
      "v": 110
    },
    {
      "midi": 83,
      "hit": false,
      "t": 233043.41999999998,
      "d": 724.6375000000116,
      "v": 110
    },
    {
      "midi": 55,
      "hit": false,
      "t": 233043.41999999998,
      "d": 1521.7387499999895,
      "v": 110
    },
    {
      "midi": 64,
      "hit": false,
      "t": 233478.20249999998,
      "d": 425.7245312499872,
      "v": 110
    },
    {
      "midi": 81,
      "hit": false,
      "t": 233912.985,
      "d": 724.6375000000116,
      "v": 110
    },
    {
      "midi": 60,
      "hit": false,
      "t": 233912.985,
      "d": 425.7245312499872,
      "v": 110
    },
    {
      "midi": 64,
      "hit": false,
      "t": 234347.7675,
      "d": 425.7245312499872,
      "v": 110
    },
    {
      "midi": 83,
      "hit": false,
      "t": 234782.55,
      "d": 724.6375000000116,
      "v": 110
    },
    {
      "midi": 55,
      "hit": false,
      "t": 234782.55,
      "d": 1521.7387499999895,
      "v": 110
    },
    {
      "midi": 64,
      "hit": false,
      "t": 235217.3325,
      "d": 425.7245312499872,
      "v": 110
    },
    {
      "midi": 84,
      "hit": false,
      "t": 235652.115,
      "d": 724.6375000000116,
      "v": 110
    },
    {
      "midi": 60,
      "hit": false,
      "t": 235652.115,
      "d": 425.7245312499872,
      "v": 110
    },
    {
      "midi": 64,
      "hit": false,
      "t": 236086.8975,
      "d": 425.7245312499872,
      "v": 110
    },
    {
      "midi": 86,
      "hit": false,
      "t": 236521.68,
      "d": 724.6375000000116,
      "v": 110
    },
    {
      "midi": 81,
      "hit": false,
      "t": 236521.68,
      "d": 1521.7387499999895,
      "v": 110
    },
    {
      "midi": 53,
      "hit": false,
      "t": 236521.68,
      "d": 1521.7387499999895,
      "v": 110
    },
    {
      "midi": 60,
      "hit": false,
      "t": 236956.4625,
      "d": 425.7245312499872,
      "v": 110
    },
    {
      "midi": 84,
      "hit": false,
      "t": 237391.245,
      "d": 724.6374999999825,
      "v": 110
    },
    {
      "midi": 57,
      "hit": false,
      "t": 237391.245,
      "d": 425.7245312499872,
      "v": 110
    },
    {
      "midi": 60,
      "hit": false,
      "t": 237826.0275,
      "d": 425.7245312499872,
      "v": 110
    },
    {
      "midi": 86,
      "hit": false,
      "t": 238260.80999999997,
      "d": 724.6375000000116,
      "v": 110
    },
    {
      "midi": 81,
      "hit": false,
      "t": 238260.80999999997,
      "d": 1521.7387499999895,
      "v": 110
    },
    {
      "midi": 53,
      "hit": false,
      "t": 238260.81,
      "d": 1521.7387499999895,
      "v": 110
    },
    {
      "midi": 60,
      "hit": false,
      "t": 238695.5925,
      "d": 425.7245312499872,
      "v": 110
    },
    {
      "midi": 88,
      "hit": false,
      "t": 239130.37499999997,
      "d": 724.6374999999825,
      "v": 110
    },
    {
      "midi": 57,
      "hit": false,
      "t": 239130.375,
      "d": 425.7245312499872,
      "v": 110
    },
    {
      "midi": 60,
      "hit": false,
      "t": 239565.1575,
      "d": 425.7245312499872,
      "v": 110
    },
    {
      "midi": 80,
      "hit": false,
      "t": 239999.93999999994,
      "d": 1521.7387499999895,
      "v": 110
    },
    {
      "midi": 83,
      "hit": false,
      "t": 239999.93999999994,
      "d": 1521.7387499999895,
      "v": 110
    },
    {
      "midi": 52,
      "hit": false,
      "t": 239999.94,
      "d": 2391.303749999992,
      "v": 110
    },
    {
      "midi": 59,
      "hit": false,
      "t": 240434.7225,
      "d": 425.7245312499872,
      "v": 110
    },
    {
      "midi": 56,
      "hit": false,
      "t": 240869.505,
      "d": 425.7245312499872,
      "v": 110
    },
    {
      "midi": 59,
      "hit": false,
      "t": 241304.2875,
      "d": 1159.4199999999837,
      "v": 110
    },
    {
      "midi": 76,
      "hit": false,
      "t": 242173.85249999992,
      "d": 425.7245312499872,
      "v": 110
    },
    {
      "midi": 88,
      "hit": false,
      "t": 242608.63499999992,
      "d": 425.7245312499872,
      "v": 110
    },
    {
      "midi": 84,
      "hit": false,
      "t": 243043.41749999992,
      "d": 425.7245312499872,
      "v": 110
    },
    {
      "midi": 83,
      "hit": false,
      "t": 243478.19999999992,
      "d": 724.6375000000116,
      "v": 110
    },
    {
      "midi": 57,
      "hit": false,
      "t": 243478.19999999998,
      "d": 1521.7387499999895,
      "v": 110
    },
    {
      "midi": 64,
      "hit": false,
      "t": 243912.98249999998,
      "d": 425.7245312499872,
      "v": 110
    },
    {
      "midi": 81,
      "hit": false,
      "t": 244347.76499999993,
      "d": 724.6375000000116,
      "v": 110
    },
    {
      "midi": 60,
      "hit": false,
      "t": 244347.76499999998,
      "d": 425.7245312499872,
      "v": 110
    },
    {
      "midi": 64,
      "hit": false,
      "t": 244782.5475,
      "d": 425.7245312499872,
      "v": 110
    },
    {
      "midi": 83,
      "hit": false,
      "t": 245217.32999999993,
      "d": 724.6375000000116,
      "v": 110
    },
    {
      "midi": 57,
      "hit": false,
      "t": 245217.33,
      "d": 1521.7387499999895,
      "v": 110
    },
    {
      "midi": 64,
      "hit": false,
      "t": 245652.1125,
      "d": 425.7245312499872,
      "v": 110
    },
    {
      "midi": 84,
      "hit": false,
      "t": 246086.89499999993,
      "d": 724.6375000000116,
      "v": 110
    },
    {
      "midi": 60,
      "hit": false,
      "t": 246086.895,
      "d": 425.7245312499872,
      "v": 110
    },
    {
      "midi": 64,
      "hit": false,
      "t": 246521.6775,
      "d": 425.7245312499872,
      "v": 110
    },
    {
      "midi": 83,
      "hit": false,
      "t": 246956.45999999993,
      "d": 724.6375000000116,
      "v": 110
    },
    {
      "midi": 65,
      "hit": false,
      "t": 247391.24249999996,
      "d": 425.7245312499872,
      "v": 110
    },
    {
      "midi": 81,
      "hit": false,
      "t": 247826.02499999994,
      "d": 724.6375000000116,
      "v": 110
    },
    {
      "midi": 60,
      "hit": false,
      "t": 247826.02499999997,
      "d": 425.7245312499872,
      "v": 110
    },
    {
      "midi": 65,
      "hit": false,
      "t": 248260.80749999997,
      "d": 1956.5212499999907,
      "v": 110
    },
    {
      "midi": 76,
      "hit": false,
      "t": 249130.37249999994,
      "d": 425.7245312499872,
      "v": 110
    },
    {
      "midi": 88,
      "hit": false,
      "t": 249565.15499999994,
      "d": 425.7245312499872,
      "v": 110
    },
    {
      "midi": 84,
      "hit": false,
      "t": 249999.93749999994,
      "d": 425.7245312499872,
      "v": 110
    },
    {
      "midi": 83,
      "hit": false,
      "t": 250434.71999999994,
      "d": 724.6375000000116,
      "v": 110
    },
    {
      "midi": 57,
      "hit": false,
      "t": 250434.71999999994,
      "d": 1521.7387499999895,
      "v": 110
    },
    {
      "midi": 64,
      "hit": false,
      "t": 250869.50249999994,
      "d": 425.7245312499872,
      "v": 110
    },
    {
      "midi": 81,
      "hit": false,
      "t": 251304.28499999995,
      "d": 724.6375000000116,
      "v": 110
    },
    {
      "midi": 60,
      "hit": false,
      "t": 251304.28499999995,
      "d": 425.7245312499872,
      "v": 110
    },
    {
      "midi": 64,
      "hit": false,
      "t": 251739.06749999995,
      "d": 425.7245312499872,
      "v": 110
    },
    {
      "midi": 83,
      "hit": false,
      "t": 252173.84999999995,
      "d": 724.6375000000116,
      "v": 110
    },
    {
      "midi": 57,
      "hit": false,
      "t": 252173.84999999995,
      "d": 1521.7387499999895,
      "v": 110
    },
    {
      "midi": 64,
      "hit": false,
      "t": 252608.63249999995,
      "d": 425.7245312499872,
      "v": 110
    },
    {
      "midi": 84,
      "hit": false,
      "t": 253043.41499999995,
      "d": 724.6375000000116,
      "v": 110
    },
    {
      "midi": 60,
      "hit": false,
      "t": 253043.41499999995,
      "d": 425.7245312499872,
      "v": 110
    },
    {
      "midi": 64,
      "hit": false,
      "t": 253478.19749999995,
      "d": 425.7245312499872,
      "v": 110
    },
    {
      "midi": 83,
      "hit": false,
      "t": 253912.97999999995,
      "d": 724.6375000000116,
      "v": 110
    },
    {
      "midi": 65,
      "hit": false,
      "t": 254347.76249999992,
      "d": 425.7245312499872,
      "v": 110
    },
    {
      "midi": 60,
      "hit": false,
      "t": 254782.54499999993,
      "d": 425.7245312499872,
      "v": 110
    },
    {
      "midi": 81,
      "hit": false,
      "t": 254782.54499999995,
      "d": 724.6375000000116,
      "v": 110
    },
    {
      "midi": 65,
      "hit": false,
      "t": 255217.32749999993,
      "d": 1956.5212499999907,
      "v": 110
    },
    {
      "midi": 76,
      "hit": false,
      "t": 256086.89249999996,
      "d": 425.7245312499872,
      "v": 110
    },
    {
      "midi": 88,
      "hit": false,
      "t": 256521.67499999996,
      "d": 425.7245312499872,
      "v": 110
    },
    {
      "midi": 84,
      "hit": false,
      "t": 256956.45749999996,
      "d": 425.7245312499872,
      "v": 110
    },
    {
      "midi": 57,
      "hit": false,
      "t": 257391.2399999999,
      "d": 1521.7387499999895,
      "v": 110
    },
    {
      "midi": 83,
      "hit": false,
      "t": 257391.23999999996,
      "d": 724.6375000000116,
      "v": 110
    },
    {
      "midi": 64,
      "hit": false,
      "t": 257826.0224999999,
      "d": 425.7245312499872,
      "v": 110
    },
    {
      "midi": 60,
      "hit": false,
      "t": 258260.8049999999,
      "d": 425.7245312499872,
      "v": 110
    },
    {
      "midi": 81,
      "hit": false,
      "t": 258260.80499999996,
      "d": 724.6375000000116,
      "v": 110
    },
    {
      "midi": 64,
      "hit": false,
      "t": 258695.5874999999,
      "d": 425.7245312499872,
      "v": 110
    },
    {
      "midi": 57,
      "hit": false,
      "t": 259130.3699999999,
      "d": 1521.7387499999895,
      "v": 110
    },
    {
      "midi": 83,
      "hit": false,
      "t": 259130.36999999997,
      "d": 724.6375000000116,
      "v": 110
    },
    {
      "midi": 64,
      "hit": false,
      "t": 259565.1524999999,
      "d": 425.7245312499872,
      "v": 110
    },
    {
      "midi": 60,
      "hit": false,
      "t": 259999.9349999999,
      "d": 425.7245312499872,
      "v": 110
    },
    {
      "midi": 84,
      "hit": false,
      "t": 259999.93499999997,
      "d": 724.6375000000116,
      "v": 110
    },
    {
      "midi": 64,
      "hit": false,
      "t": 260434.7174999999,
      "d": 425.7245312499872,
      "v": 110
    },
    {
      "midi": 55,
      "hit": false,
      "t": 260869.4999999999,
      "d": 1521.7387499999895,
      "v": 110
    },
    {
      "midi": 83,
      "hit": false,
      "t": 260869.49999999997,
      "d": 724.6375000000116,
      "v": 110
    },
    {
      "midi": 64,
      "hit": false,
      "t": 261304.2824999999,
      "d": 425.7245312499872,
      "v": 110
    },
    {
      "midi": 60,
      "hit": false,
      "t": 261739.06499999992,
      "d": 425.7245312499872,
      "v": 110
    },
    {
      "midi": 81,
      "hit": false,
      "t": 261739.06499999997,
      "d": 724.6374999999825,
      "v": 110
    },
    {
      "midi": 64,
      "hit": false,
      "t": 262173.8474999999,
      "d": 425.7245312499581,
      "v": 110
    },
    {
      "midi": 55,
      "hit": false,
      "t": 262608.6299999999,
      "d": 1521.7387500000186,
      "v": 110
    },
    {
      "midi": 83,
      "hit": false,
      "t": 262608.62999999995,
      "d": 724.6375000000116,
      "v": 110
    },
    {
      "midi": 64,
      "hit": false,
      "t": 263043.41249999986,
      "d": 425.7245312500163,
      "v": 110
    },
    {
      "midi": 60,
      "hit": false,
      "t": 263478.1949999999,
      "d": 425.7245312500163,
      "v": 110
    },
    {
      "midi": 84,
      "hit": false,
      "t": 263478.19499999995,
      "d": 724.6375000000116,
      "v": 110
    },
    {
      "midi": 64,
      "hit": false,
      "t": 263912.9774999999,
      "d": 425.7245312499581,
      "v": 110
    },
    {
      "midi": 53,
      "hit": false,
      "t": 264347.7599999999,
      "d": 1521.7387500000186,
      "v": 110
    },
    {
      "midi": 86,
      "hit": false,
      "t": 264347.75999999995,
      "d": 724.6375000000116,
      "v": 110
    },
    {
      "midi": 81,
      "hit": false,
      "t": 264347.75999999995,
      "d": 1521.7387500000186,
      "v": 110
    },
    {
      "midi": 60,
      "hit": false,
      "t": 264782.54249999986,
      "d": 425.7245312500163,
      "v": 110
    },
    {
      "midi": 57,
      "hit": false,
      "t": 265217.3249999999,
      "d": 425.7245312500163,
      "v": 110
    },
    {
      "midi": 84,
      "hit": false,
      "t": 265217.32499999995,
      "d": 724.6375000000116,
      "v": 110
    },
    {
      "midi": 60,
      "hit": false,
      "t": 265652.1074999999,
      "d": 425.7245312499581,
      "v": 110
    },
    {
      "midi": 53,
      "hit": false,
      "t": 266086.8899999999,
      "d": 1521.7387500000186,
      "v": 110
    },
    {
      "midi": 86,
      "hit": false,
      "t": 266086.88999999996,
      "d": 724.6375000000116,
      "v": 110
    },
    {
      "midi": 81,
      "hit": false,
      "t": 266086.88999999996,
      "d": 1521.7387500000186,
      "v": 110
    },
    {
      "midi": 60,
      "hit": false,
      "t": 266521.67249999987,
      "d": 425.7245312500163,
      "v": 110
    },
    {
      "midi": 57,
      "hit": false,
      "t": 266956.4549999999,
      "d": 425.7245312500163,
      "v": 110
    },
    {
      "midi": 88,
      "hit": false,
      "t": 266956.45499999996,
      "d": 724.6375000000116,
      "v": 110
    },
    {
      "midi": 60,
      "hit": false,
      "t": 267391.23749999993,
      "d": 425.7245312499581,
      "v": 110
    },
    {
      "midi": 52,
      "hit": false,
      "t": 267826.0199999999,
      "d": 3260.8687500000233,
      "v": 110
    },
    {
      "midi": 59,
      "hit": false,
      "t": 267826.0199999999,
      "d": 3260.8687500000233,
      "v": 110
    },
    {
      "midi": 81,
      "hit": false,
      "t": 267826.01999999996,
      "d": 724.6375000000116,
      "v": 110
    },
    {
      "midi": 88,
      "hit": false,
      "t": 267826.01999999996,
      "d": 724.6375000000116,
      "v": 110
    },
    {
      "midi": 78,
      "hit": false,
      "t": 268695.58499999996,
      "d": 724.6375000000116,
      "v": 110
    },
    {
      "midi": 83,
      "hit": false,
      "t": 268695.58499999996,
      "d": 1521.7387500000186,
      "v": 110
    },
    {
      "midi": 80,
      "hit": false,
      "t": 269565.14999999997,
      "d": 724.6375000000116,
      "v": 110
    },
    {
      "midi": 64,
      "hit": false,
      "t": 270434.71499999997,
      "d": 7608.693749999977,
      "v": 110
    },
    {
      "midi": 52,
      "hit": false,
      "t": 271304.2799999999,
      "d": 6739.128749999974,
      "v": 110
    },
    {
      "midi": 59,
      "hit": false,
      "t": 271304.2799999999,
      "d": 6739.128749999974,
      "v": 110
    },
    {
      "midi": 66,
      "hit": false,
      "t": 271304.27999999997,
      "d": 724.6375000000116,
      "v": 110
    },
    {
      "midi": 69,
      "hit": false,
      "t": 271304.27999999997,
      "d": 724.6375000000116,
      "v": 110
    },
    {
      "midi": 71,
      "hit": false,
      "t": 272173.845,
      "d": 5869.563749999972,
      "v": 110
    }
  ]
}