{
  "jsonPath": "Animes/Rurouni Kenshin MIDI Collection/painful-memories.json",
  "path": "Animes\\Rurouni Kenshin MIDI Collection\\Painful Memories.mid",
  "name": "Painful Memories",
  "difficulty": "Advanced",
  "bpm": 64,
  "notes": [
    {
      "midi": 64,
      "hit": false,
      "t": 0,
      "d": 781.25,
      "v": 110
    },
    {
      "midi": 76,
      "hit": false,
      "t": 937.5,
      "d": 1640.625,
      "v": 110
    },
    {
      "midi": 72,
      "hit": false,
      "t": 2812.5,
      "d": 781.25,
      "v": 110
    },
    {
      "midi": 52,
      "hit": false,
      "t": 2812.5,
      "d": 781.25,
      "v": 110
    },
    {
      "midi": 56,
      "hit": false,
      "t": 2812.5,
      "d": 781.25,
      "v": 110
    },
    {
      "midi": 62,
      "hit": false,
      "t": 3750,
      "d": 781.25,
      "v": 110
    },
    {
      "midi": 71,
      "hit": false,
      "t": 3750,
      "d": 781.25,
      "v": 110
    },
    {
      "midi": 45,
      "hit": false,
      "t": 3750,
      "d": 3515.625,
      "v": 110
    },
    {
      "midi": 52,
      "hit": false,
      "t": 3750,
      "d": 3515.625,
      "v": 110
    },
    {
      "midi": 60,
      "hit": false,
      "t": 4687.5,
      "d": 781.25,
      "v": 110
    },
    {
      "midi": 69,
      "hit": false,
      "t": 4687.5,
      "d": 781.25,
      "v": 110
    },
    {
      "midi": 62,
      "hit": false,
      "t": 5625,
      "d": 781.25,
      "v": 110
    },
    {
      "midi": 71,
      "hit": false,
      "t": 5625,
      "d": 781.25,
      "v": 110
    },
    {
      "midi": 64,
      "hit": false,
      "t": 6562.5,
      "d": 781.25,
      "v": 110
    },
    {
      "midi": 72,
      "hit": false,
      "t": 6562.5,
      "d": 781.25,
      "v": 110
    },
    {
      "midi": 65,
      "hit": false,
      "t": 7500,
      "d": 1640.625,
      "v": 110
    },
    {
      "midi": 72,
      "hit": false,
      "t": 7500,
      "d": 1640.625,
      "v": 110
    },
    {
      "midi": 50,
      "hit": false,
      "t": 7500,
      "d": 3515.625,
      "v": 110
    },
    {
      "midi": 57,
      "hit": false,
      "t": 7500,
      "d": 3515.625,
      "v": 110
    },
    {
      "midi": 64,
      "hit": false,
      "t": 9375,
      "d": 781.25,
      "v": 110
    },
    {
      "midi": 65,
      "hit": false,
      "t": 9375,
      "d": 781.25,
      "v": 110
    },
    {
      "midi": 62,
      "hit": false,
      "t": 10312.5,
      "d": 781.25,
      "v": 110
    },
    {
      "midi": 64,
      "hit": false,
      "t": 11250,
      "d": 1640.625,
      "v": 110
    },
    {
      "midi": 48,
      "hit": false,
      "t": 11250,
      "d": 1640.625,
      "v": 110
    },
    {
      "midi": 57,
      "hit": false,
      "t": 11250,
      "d": 1640.625,
      "v": 110
    },
    {
      "midi": 62,
      "hit": false,
      "t": 13125,
      "d": 781.25,
      "v": 110
    },
    {
      "midi": 64,
      "hit": false,
      "t": 13125,
      "d": 781.25,
      "v": 110
    },
    {
      "midi": 47,
      "hit": false,
      "t": 13125,
      "d": 1640.625,
      "v": 110
    },
    {
      "midi": 57,
      "hit": false,
      "t": 13125,
      "d": 1640.625,
      "v": 110
    },
    {
      "midi": 69,
      "hit": false,
      "t": 14062.5,
      "d": 781.25,
      "v": 110
    },
    {
      "midi": 69,
      "hit": false,
      "t": 15000,
      "d": 1640.625,
      "v": 110
    },
    {
      "midi": 64,
      "hit": false,
      "t": 15000,
      "d": 3515.625,
      "v": 110
    },
    {
      "midi": 52,
      "hit": false,
      "t": 15000,
      "d": 4531.25,
      "v": 110
    },
    {
      "midi": 59,
      "hit": false,
      "t": 15000,
      "d": 4531.25,
      "v": 110
    },
    {
      "midi": 64,
      "hit": false,
      "t": 19687.5,
      "d": 781.25,
      "v": 110
    },
    {
      "midi": 76,
      "hit": false,
      "t": 20625,
      "d": 781.25,
      "v": 110
    },
    {
      "midi": 72,
      "hit": false,
      "t": 21562.5,
      "d": 781.25,
      "v": 110
    },
    {
      "midi": 52,
      "hit": false,
      "t": 21562.5,
      "d": 781.25,
      "v": 110
    },
    {
      "midi": 56,
      "hit": false,
      "t": 21562.5,
      "d": 781.25,
      "v": 110
    },
    {
      "midi": 62,
      "hit": false,
      "t": 22500,
      "d": 781.25,
      "v": 110
    },
    {
      "midi": 71,
      "hit": false,
      "t": 22500,
      "d": 781.25,
      "v": 110
    },
    {
      "midi": 45,
      "hit": false,
      "t": 22500,
      "d": 3515.625,
      "v": 110
    },
    {
      "midi": 52,
      "hit": false,
      "t": 22500,
      "d": 3515.625,
      "v": 110
    },
    {
      "midi": 60,
      "hit": false,
      "t": 23437.5,
      "d": 781.25,
      "v": 110
    },
    {
      "midi": 69,
      "hit": false,
      "t": 23437.5,
      "d": 781.25,
      "v": 110
    },
    {
      "midi": 62,
      "hit": false,
      "t": 24375,
      "d": 781.25,
      "v": 110
    },
    {
      "midi": 71,
      "hit": false,
      "t": 24375,
      "d": 781.25,
      "v": 110
    },
    {
      "midi": 64,
      "hit": false,
      "t": 25312.5,
      "d": 781.25,
      "v": 110
    },
    {
      "midi": 72,
      "hit": false,
      "t": 25312.5,
      "d": 781.25,
      "v": 110
    },
    {
      "midi": 76,
      "hit": false,
      "t": 26250,
      "d": 781.25,
      "v": 110
    },
    {
      "midi": 79,
      "hit": false,
      "t": 26250,
      "d": 781.25,
      "v": 110
    },
    {
      "midi": 50,
      "hit": false,
      "t": 26250,
      "d": 1640.625,
      "v": 110
    },
    {
      "midi": 57,
      "hit": false,
      "t": 26250,
      "d": 1640.625,
      "v": 110
    },
    {
      "midi": 74,
      "hit": false,
      "t": 27187.5,
      "d": 1640.625,
      "v": 110
    },
    {
      "midi": 77,
      "hit": false,
      "t": 27187.5,
      "d": 1640.625,
      "v": 110
    },
    {
      "midi": 52,
      "hit": false,
      "t": 28125,
      "d": 781.25,
      "v": 110
    },
    {
      "midi": 56,
      "hit": false,
      "t": 28125,
      "d": 781.25,
      "v": 110
    },
    {
      "midi": 72,
      "hit": false,
      "t": 29062.5,
      "d": 781.25,
      "v": 110
    },
    {
      "midi": 76,
      "hit": false,
      "t": 29062.5,
      "d": 781.25,
      "v": 110
    },
    {
      "midi": 48,
      "hit": false,
      "t": 29062.5,
      "d": 781.25,
      "v": 110
    },
    {
      "midi": 57,
      "hit": false,
      "t": 29062.5,
      "d": 781.25,
      "v": 110
    },
    {
      "midi": 76,
      "hit": false,
      "t": 30000,
      "d": 781.25,
      "v": 110
    },
    {
      "midi": 71,
      "hit": false,
      "t": 30000,
      "d": 2578.125,
      "v": 110
    },
    {
      "midi": 44,
      "hit": false,
      "t": 30000,
      "d": 1640.625,
      "v": 110
    },
    {
      "midi": 53,
      "hit": false,
      "t": 30000,
      "d": 1640.625,
      "v": 110
    },
    {
      "midi": 74,
      "hit": false,
      "t": 30937.5,
      "d": 1640.625,
      "v": 110
    },
    {
      "midi": 45,
      "hit": false,
      "t": 31875,
      "d": 1640.625,
      "v": 110
    },
    {
      "midi": 52,
      "hit": false,
      "t": 31875,
      "d": 1640.625,
      "v": 110
    },
    {
      "midi": 69,
      "hit": false,
      "t": 32812.5,
      "d": 781.25,
      "v": 110
    },
    {
      "midi": 72,
      "hit": false,
      "t": 32812.5,
      "d": 781.25,
      "v": 110
    },
    {
      "midi": 72,
      "hit": false,
      "t": 33750,
      "d": 781.25,
      "v": 110
    },
    {
      "midi": 65,
      "hit": false,
      "t": 33750,
      "d": 1640.625,
      "v": 110
    },
    {
      "midi": 50,
      "hit": false,
      "t": 33750,
      "d": 1640.625,
      "v": 110
    },
    {
      "midi": 58,
      "hit": false,
      "t": 33750,
      "d": 1640.625,
      "v": 110
    },
    {
      "midi": 70,
      "hit": false,
      "t": 34687.5,
      "d": 458.984375,
      "v": 110
    },
    {
      "midi": 69,
      "hit": false,
      "t": 35156.25,
      "d": 458.984375,
      "v": 110
    },
    {
      "midi": 69,
      "hit": false,
      "t": 35625,
      "d": 458.984375,
      "v": 110
    },
    {
      "midi": 64,
      "hit": false,
      "t": 35625,
      "d": 1640.625,
      "v": 110
    },
    {
      "midi": 52,
      "hit": false,
      "t": 35625,
      "d": 1640.625,
      "v": 110
    },
    {
      "midi": 59,
      "hit": false,
      "t": 35625,
      "d": 1640.625,
      "v": 110
    },
    {
      "midi": 68,
      "hit": false,
      "t": 36093.75,
      "d": 781.25,
      "v": 110
    },
    {
      "midi": 69,
      "hit": false,
      "t": 37031.25,
      "d": 458.984375,
      "v": 110
    },
    {
      "midi": 62,
      "hit": false,
      "t": 37500,
      "d": 1640.625,
      "v": 110
    },
    {
      "midi": 69,
      "hit": false,
      "t": 37500,
      "d": 4531.25,
      "v": 110
    },
    {
      "midi": 45,
      "hit": false,
      "t": 37500,
      "d": 3515.625,
      "v": 110
    },
    {
      "midi": 52,
      "hit": false,
      "t": 37500,
      "d": 3515.625,
      "v": 110
    },
    {
      "midi": 61,
      "hit": false,
      "t": 39375,
      "d": 1640.625,
      "v": 110
    },
    {
      "midi": 60,
      "hit": false,
      "t": 41250,
      "d": 781.25,
      "v": 110
    },
    {
      "midi": 45,
      "hit": false,
      "t": 41250,
      "d": 3515.625,
      "v": 110
    },
    {
      "midi": 52,
      "hit": false,
      "t": 41250,
      "d": 3515.625,
      "v": 110
    },
    {
      "midi": 60,
      "hit": false,
      "t": 42187.5,
      "d": 781.25,
      "v": 110
    },
    {
      "midi": 69,
      "hit": false,
      "t": 42187.5,
      "d": 781.25,
      "v": 110
    },
    {
      "midi": 62,
      "hit": false,
      "t": 43125,
      "d": 781.25,
      "v": 110
    },
    {
      "midi": 71,
      "hit": false,
      "t": 43125,
      "d": 781.25,
      "v": 110
    },
    {
      "midi": 64,
      "hit": false,
      "t": 44062.5,
      "d": 781.25,
      "v": 110
    },
    {
      "midi": 72,
      "hit": false,
      "t": 44062.5,
      "d": 781.25,
      "v": 110
    },
    {
      "midi": 65,
      "hit": false,
      "t": 45000,
      "d": 1640.625,
      "v": 110
    },
    {
      "midi": 72,
      "hit": false,
      "t": 45000,
      "d": 1640.625,
      "v": 110
    },
    {
      "midi": 57,
      "hit": false,
      "t": 45000,
      "d": 2578.125,
      "v": 110
    },
    {
      "midi": 50,
      "hit": false,
      "t": 45000,
      "d": 3515.625,
      "v": 110
    },
    {
      "midi": 59,
      "hit": false,
      "t": 46875,
      "d": 1640.625,
      "v": 110
    },
    {
      "midi": 65,
      "hit": false,
      "t": 46875,
      "d": 1640.625,
      "v": 110
    },
    {
      "midi": 56,
      "hit": false,
      "t": 47812.5,
      "d": 781.25,
      "v": 110
    },
    {
      "midi": 64,
      "hit": false,
      "t": 48750,
      "d": 781.25,
      "v": 110
    },
    {
      "midi": 60,
      "hit": false,
      "t": 48750,
      "d": 1640.625,
      "v": 110
    },
    {
      "midi": 48,
      "hit": false,
      "t": 48750,
      "d": 1640.625,
      "v": 110
    },
    {
      "midi": 57,
      "hit": false,
      "t": 48750,
      "d": 1640.625,
      "v": 110
    },
    {
      "midi": 69,
      "hit": false,
      "t": 49687.5,
      "d": 781.25,
      "v": 110
    },
    {
      "midi": 71,
      "hit": false,
      "t": 50625,
      "d": 781.25,
      "v": 110
    },
    {
      "midi": 64,
      "hit": false,
      "t": 50625,
      "d": 1640.625,
      "v": 110
    },
    {
      "midi": 44,
      "hit": false,
      "t": 50625,
      "d": 781.25,
      "v": 110
    },
    {
      "midi": 72,
      "hit": false,
      "t": 51562.5,
      "d": 781.25,
      "v": 110
    },
    {
      "midi": 45,
      "hit": false,
      "t": 51562.5,
      "d": 781.25,
      "v": 110
    },
    {
      "midi": 65,
      "hit": false,
      "t": 52500,
      "d": 1640.625,
      "v": 110
    },
    {
      "midi": 74,
      "hit": false,
      "t": 52500,
      "d": 1640.625,
      "v": 110
    },
    {
      "midi": 41,
      "hit": false,
      "t": 52500,
      "d": 1640.625,
      "v": 110
    },
    {
      "midi": 48,
      "hit": false,
      "t": 52500,
      "d": 1640.625,
      "v": 110
    },
    {
      "midi": 60,
      "hit": false,
      "t": 54375,
      "d": 1640.625,
      "v": 110
    },
    {
      "midi": 65,
      "hit": false,
      "t": 54375,
      "d": 1640.625,
      "v": 110
    },
    {
      "midi": 43,
      "hit": false,
      "t": 54375,
      "d": 1640.625,
      "v": 110
    },
    {
      "midi": 50,
      "hit": false,
      "t": 54375,
      "d": 1640.625,
      "v": 110
    },
    {
      "midi": 60,
      "hit": false,
      "t": 56250,
      "d": 781.25,
      "v": 110
    },
    {
      "midi": 64,
      "hit": false,
      "t": 56250,
      "d": 781.25,
      "v": 110
    },
    {
      "midi": 48,
      "hit": false,
      "t": 56250,
      "d": 3515.625,
      "v": 110
    },
    {
      "midi": 55,
      "hit": false,
      "t": 56250,
      "d": 3515.625,
      "v": 110
    },
    {
      "midi": 64,
      "hit": false,
      "t": 57187.5,
      "d": 781.25,
      "v": 110
    },
    {
      "midi": 72,
      "hit": false,
      "t": 57187.5,
      "d": 781.25,
      "v": 110
    },
    {
      "midi": 65,
      "hit": false,
      "t": 58125,
      "d": 781.25,
      "v": 110
    },
    {
      "midi": 74,
      "hit": false,
      "t": 58125,
      "d": 781.25,
      "v": 110
    },
    {
      "midi": 67,
      "hit": false,
      "t": 59062.5,
      "d": 781.25,
      "v": 110
    },
    {
      "midi": 76,
      "hit": false,
      "t": 59062.5,
      "d": 781.25,
      "v": 110
    },
    {
      "midi": 79,
      "hit": false,
      "t": 60000,
      "d": 781.25,
      "v": 110
    },
    {
      "midi": 74,
      "hit": false,
      "t": 60000,
      "d": 3515.625,
      "v": 110
    },
    {
      "midi": 47,
      "hit": false,
      "t": 60000,
      "d": 3515.625,
      "v": 110
    },
    {
      "midi": 57,
      "hit": false,
      "t": 60000,
      "d": 3515.625,
      "v": 110
    },
    {
      "midi": 77,
      "hit": false,
      "t": 60937.5,
      "d": 1640.625,
      "v": 110
    },
    {
      "midi": 76,
      "hit": false,
      "t": 62812.5,
      "d": 781.25,
      "v": 110
    },
    {
      "midi": 69,
      "hit": false,
      "t": 63750,
      "d": 1640.625,
      "v": 110
    },
    {
      "midi": 76,
      "hit": false,
      "t": 63750,
      "d": 3515.625,
      "v": 110
    },
    {
      "midi": 52,
      "hit": false,
      "t": 63750,
      "d": 5390.625,
      "v": 110
    },
    {
      "midi": 59,
      "hit": false,
      "t": 63750,
      "d": 5390.625,
      "v": 110
    },
    {
      "midi": 66,
      "hit": false,
      "t": 65625,
      "d": 781.25,
      "v": 110
    },
    {
      "midi": 69,
      "hit": false,
      "t": 66562.5,
      "d": 781.25,
      "v": 110
    },
    {
      "midi": 68,
      "hit": false,
      "t": 67500,
      "d": 1640.625,
      "v": 110
    },
    {
      "midi": 74,
      "hit": false,
      "t": 67500,
      "d": 1640.625,
      "v": 110
    },
    {
      "midi": 64,
      "hit": false,
      "t": 69843.75,
      "d": 458.984375,
      "v": 110
    },
    {
      "midi": 76,
      "hit": false,
      "t": 70312.5,
      "d": 458.984375,
      "v": 110
    },
    {
      "midi": 72,
      "hit": false,
      "t": 70781.25,
      "d": 458.984375,
      "v": 110
    },
    {
      "midi": 62,
      "hit": false,
      "t": 71250,
      "d": 781.25,
      "v": 110
    },
    {
      "midi": 71,
      "hit": false,
      "t": 71250,
      "d": 781.25,
      "v": 110
    },
    {
      "midi": 45,
      "hit": false,
      "t": 71250,
      "d": 458.984375,
      "v": 110
    },
    {
      "midi": 52,
      "hit": false,
      "t": 71718.75,
      "d": 458.984375,
      "v": 110
    },
    {
      "midi": 60,
      "hit": false,
      "t": 72187.5,
      "d": 781.25,
      "v": 110
    },
    {
      "midi": 69,
      "hit": false,
      "t": 72187.5,
      "d": 781.25,
      "v": 110
    },
    {
      "midi": 48,
      "hit": false,
      "t": 72187.5,
      "d": 458.984375,
      "v": 110
    },
    {
      "midi": 52,
      "hit": false,
      "t": 72656.25,
      "d": 458.984375,
      "v": 110
    },
    {
      "midi": 62,
      "hit": false,
      "t": 73125,
      "d": 781.25,
      "v": 110
    },
    {
      "midi": 71,
      "hit": false,
      "t": 73125,
      "d": 781.25,
      "v": 110
    },
    {
      "midi": 48,
      "hit": false,
      "t": 73125,
      "d": 458.984375,
      "v": 110
    },
    {
      "midi": 52,
      "hit": false,
      "t": 73593.75,
      "d": 458.984375,
      "v": 110
    },
    {
      "midi": 64,
      "hit": false,
      "t": 74062.5,
      "d": 781.25,
      "v": 110
    },
    {
      "midi": 72,
      "hit": false,
      "t": 74062.5,
      "d": 781.25,
      "v": 110
    },
    {
      "midi": 48,
      "hit": false,
      "t": 74062.5,
      "d": 458.984375,
      "v": 110
    },
    {
      "midi": 52,
      "hit": false,
      "t": 74531.25,
      "d": 458.984375,
      "v": 110
    },
    {
      "midi": 76,
      "hit": false,
      "t": 75000,
      "d": 781.25,
      "v": 110
    },
    {
      "midi": 65,
      "hit": false,
      "t": 75000,
      "d": 2578.125,
      "v": 110
    },
    {
      "midi": 45,
      "hit": false,
      "t": 75000,
      "d": 458.984375,
      "v": 110
    },
    {
      "midi": 53,
      "hit": false,
      "t": 75468.75,
      "d": 458.984375,
      "v": 110
    },
    {
      "midi": 74,
      "hit": false,
      "t": 75937.5,
      "d": 1640.625,
      "v": 110
    },
    {
      "midi": 52,
      "hit": false,
      "t": 75937.5,
      "d": 458.984375,
      "v": 110
    },
    {
      "midi": 53,
      "hit": false,
      "t": 76406.25,
      "d": 458.984375,
      "v": 110
    },
    {
      "midi": 50,
      "hit": false,
      "t": 76875,
      "d": 781.25,
      "v": 110
    },
    {
      "midi": 65,
      "hit": false,
      "t": 77812.5,
      "d": 781.25,
      "v": 110
    },
    {
      "midi": 71,
      "hit": false,
      "t": 77812.5,
      "d": 781.25,
      "v": 110
    },
    {
      "midi": 64,
      "hit": false,
      "t": 78750,
      "d": 1640.625,
      "v": 110
    },
    {
      "midi": 72,
      "hit": false,
      "t": 78750,
      "d": 1640.625,
      "v": 110
    },
    {
      "midi": 45,
      "hit": false,
      "t": 78750,
      "d": 458.984375,
      "v": 110
    },
    {
      "midi": 52,
      "hit": false,
      "t": 79218.75,
      "d": 458.984375,
      "v": 110
    },
    {
      "midi": 48,
      "hit": false,
      "t": 79687.5,
      "d": 458.984375,
      "v": 110
    },
    {
      "midi": 52,
      "hit": false,
      "t": 80156.25,
      "d": 458.984375,
      "v": 110
    },
    {
      "midi": 48,
      "hit": false,
      "t": 80625,
      "d": 458.984375,
      "v": 110
    },
    {
      "midi": 64,
      "hit": false,
      "t": 81093.75,
      "d": 458.984375,
      "v": 110
    },
    {
      "midi": 52,
      "hit": false,
      "t": 81093.75,
      "d": 458.984375,
      "v": 110
    },
    {
      "midi": 76,
      "hit": false,
      "t": 81562.5,
      "d": 458.984375,
      "v": 110
    },
    {
      "midi": 48,
      "hit": false,
      "t": 81562.5,
      "d": 458.984375,
      "v": 110
    },
    {
      "midi": 72,
      "hit": false,
      "t": 82031.25,
      "d": 458.984375,
      "v": 110
    },
    {
      "midi": 52,
      "hit": false,
      "t": 82031.25,
      "d": 458.984375,
      "v": 110
    },
    {
      "midi": 62,
      "hit": false,
      "t": 82500,
      "d": 1640.625,
      "v": 110
    },
    {
      "midi": 71,
      "hit": false,
      "t": 82500,
      "d": 1640.625,
      "v": 110
    },
    {
      "midi": 45,
      "hit": false,
      "t": 82500,
      "d": 458.984375,
      "v": 110
    },
    {
      "midi": 52,
      "hit": false,
      "t": 82968.75,
      "d": 458.984375,
      "v": 110
    },
    {
      "midi": 50,
      "hit": false,
      "t": 83437.5,
      "d": 458.984375,
      "v": 110
    },
    {
      "midi": 52,
      "hit": false,
      "t": 83906.25,
      "d": 1250,
      "v": 110
    },
    {
      "midi": 64,
      "hit": false,
      "t": 84843.75,
      "d": 458.984375,
      "v": 110
    },
    {
      "midi": 76,
      "hit": false,
      "t": 85312.5,
      "d": 458.984375,
      "v": 110
    },
    {
      "midi": 72,
      "hit": false,
      "t": 85781.25,
      "d": 458.984375,
      "v": 110
    },
    {
      "midi": 62,
      "hit": false,
      "t": 86250,
      "d": 781.25,
      "v": 110
    },
    {
      "midi": 71,
      "hit": false,
      "t": 86250,
      "d": 781.25,
      "v": 110
    },
    {
      "midi": 45,
      "hit": false,
      "t": 86250,
      "d": 458.984375,
      "v": 110
    },
    {
      "midi": 52,
      "hit": false,
      "t": 86718.75,
      "d": 458.984375,
      "v": 110
    },
    {
      "midi": 60,
      "hit": false,
      "t": 87187.5,
      "d": 781.25,
      "v": 110
    },
    {
      "midi": 69,
      "hit": false,
      "t": 87187.5,
      "d": 781.25,
      "v": 110
    },
    {
      "midi": 48,
      "hit": false,
      "t": 87187.5,
      "d": 458.984375,
      "v": 110
    },
    {
      "midi": 52,
      "hit": false,
      "t": 87656.25,
      "d": 458.984375,
      "v": 110
    },
    {
      "midi": 62,
      "hit": false,
      "t": 88125,
      "d": 781.25,
      "v": 110
    },
    {
      "midi": 71,
      "hit": false,
      "t": 88125,
      "d": 781.25,
      "v": 110
    },
    {
      "midi": 48,
      "hit": false,
      "t": 88125,
      "d": 458.984375,
      "v": 110
    },
    {
      "midi": 52,
      "hit": false,
      "t": 88593.75,
      "d": 458.984375,
      "v": 110
    },
    {
      "midi": 64,
      "hit": false,
      "t": 89062.5,
      "d": 781.25,
      "v": 110
    },
    {
      "midi": 72,
      "hit": false,
      "t": 89062.5,
      "d": 781.25,
      "v": 110
    },
    {
      "midi": 48,
      "hit": false,
      "t": 89062.5,
      "d": 458.984375,
      "v": 110
    },
    {
      "midi": 52,
      "hit": false,
      "t": 89531.25,
      "d": 458.984375,
      "v": 110
    },
    {
      "midi": 76,
      "hit": false,
      "t": 90000,
      "d": 781.25,
      "v": 110
    },
    {
      "midi": 79,
      "hit": false,
      "t": 90000,
      "d": 781.25,
      "v": 110
    },
    {
      "midi": 50,
      "hit": false,
      "t": 90000,
      "d": 458.984375,
      "v": 110
    },
    {
      "midi": 57,
      "hit": false,
      "t": 90468.75,
      "d": 458.984375,
      "v": 110
    },
    {
      "midi": 74,
      "hit": false,
      "t": 90937.5,
      "d": 1640.625,
      "v": 110
    },
    {
      "midi": 77,
      "hit": false,
      "t": 90937.5,
      "d": 1640.625,
      "v": 110
    },
    {
      "midi": 53,
      "hit": false,
      "t": 90937.5,
      "d": 458.984375,
      "v": 110
    },
    {
      "midi": 57,
      "hit": false,
      "t": 91406.25,
      "d": 458.984375,
      "v": 110
    },
    {
      "midi": 53,
      "hit": false,
      "t": 91875,
      "d": 781.25,
      "v": 110
    },
    {
      "midi": 71,
      "hit": false,
      "t": 92812.5,
      "d": 781.25,
      "v": 110
    },
    {
      "midi": 74,
      "hit": false,
      "t": 92812.5,
      "d": 781.25,
      "v": 110
    },
    {
      "midi": 69,
      "hit": false,
      "t": 93750,
      "d": 2333.984375,
      "v": 110
    },
    {
      "midi": 76,
      "hit": false,
      "t": 93750,
      "d": 2333.984375,
      "v": 110
    },
    {
      "midi": 52,
      "hit": false,
      "t": 93750,
      "d": 458.984375,
      "v": 110
    },
    {
      "midi": 59,
      "hit": false,
      "t": 94218.75,
      "d": 458.984375,
      "v": 110
    },
    {
      "midi": 57,
      "hit": false,
      "t": 94687.5,
      "d": 458.984375,
      "v": 110
    },
    {
      "midi": 59,
      "hit": false,
      "t": 95156.25,
      "d": 458.984375,
      "v": 110
    },
    {
      "midi": 57,
      "hit": false,
      "t": 95625,
      "d": 458.984375,
      "v": 110
    },
    {
      "midi": 64,
      "hit": false,
      "t": 96093.75,
      "d": 458.984375,
      "v": 110
    },
    {
      "midi": 59,
      "hit": false,
      "t": 96093.75,
      "d": 458.984375,
      "v": 110
    },
    {
      "midi": 76,
      "hit": false,
      "t": 96562.5,
      "d": 458.984375,
      "v": 110
    },
    {
      "midi": 57,
      "hit": false,
      "t": 96562.5,
      "d": 458.984375,
      "v": 110
    },
    {
      "midi": 72,
      "hit": false,
      "t": 97031.25,
      "d": 458.984375,
      "v": 110
    },
    {
      "midi": 59,
      "hit": false,
      "t": 97031.25,
      "d": 458.984375,
      "v": 110
    },
    {
      "midi": 76,
      "hit": false,
      "t": 97500,
      "d": 458.984375,
      "v": 110
    },
    {
      "midi": 57,
      "hit": false,
      "t": 97500,
      "d": 781.25,
      "v": 110
    },
    {
      "midi": 52,
      "hit": false,
      "t": 97500,
      "d": 1640.625,
      "v": 110
    },
    {
      "midi": 72,
      "hit": false,
      "t": 97968.75,
      "d": 458.984375,
      "v": 110
    },
    {
      "midi": 71,
      "hit": false,
      "t": 98437.5,
      "d": 458.984375,
      "v": 110
    },
    {
      "midi": 56,
      "hit": false,
      "t": 98437.5,
      "d": 1396.484375,
      "v": 110
    },
    {
      "midi": 76,
      "hit": false,
      "t": 98906.25,
      "d": 927.734375,
      "v": 110
    },
    {
      "midi": 64,
      "hit": false,
      "t": 99843.75,
      "d": 458.984375,
      "v": 110
    },
    {
      "midi": 76,
      "hit": false,
      "t": 100312.5,
      "d": 458.984375,
      "v": 110
    },
    {
      "midi": 72,
      "hit": false,
      "t": 100781.25,
      "d": 458.984375,
      "v": 110
    },
    {
      "midi": 62,
      "hit": false,
      "t": 101250,
      "d": 781.25,
      "v": 110
    },
    {
      "midi": 71,
      "hit": false,
      "t": 101250,
      "d": 781.25,
      "v": 110
    },
    {
      "midi": 45,
      "hit": false,
      "t": 101250,
      "d": 458.984375,
      "v": 110
    },
    {
      "midi": 52,
      "hit": false,
      "t": 101718.75,
      "d": 458.984375,
      "v": 110
    },
    {
      "midi": 60,
      "hit": false,
      "t": 102187.5,
      "d": 781.25,
      "v": 110
    },
    {
      "midi": 69,
      "hit": false,
      "t": 102187.5,
      "d": 781.25,
      "v": 110
    },
    {
      "midi": 48,
      "hit": false,
      "t": 102187.5,
      "d": 458.984375,
      "v": 110
    },
    {
      "midi": 52,
      "hit": false,
      "t": 102656.25,
      "d": 458.984375,
      "v": 110
    },
    {
      "midi": 62,
      "hit": false,
      "t": 103125,
      "d": 781.25,
      "v": 110
    },
    {
      "midi": 71,
      "hit": false,
      "t": 103125,
      "d": 781.25,
      "v": 110
    },
    {
      "midi": 48,
      "hit": false,
      "t": 103125,
      "d": 458.984375,
      "v": 110
    },
    {
      "midi": 52,
      "hit": false,
      "t": 103593.75,
      "d": 458.984375,
      "v": 110
    },
    {
      "midi": 64,
      "hit": false,
      "t": 104062.5,
      "d": 781.25,
      "v": 110
    },
    {
      "midi": 72,
      "hit": false,
      "t": 104062.5,
      "d": 781.25,
      "v": 110
    },
    {
      "midi": 48,
      "hit": false,
      "t": 104062.5,
      "d": 458.984375,
      "v": 110
    },
    {
      "midi": 52,
      "hit": false,
      "t": 104531.25,
      "d": 458.984375,
      "v": 110
    },
    {
      "midi": 65,
      "hit": false,
      "t": 105000,
      "d": 1640.625,
      "v": 110
    },
    {
      "midi": 74,
      "hit": false,
      "t": 105000,
      "d": 1640.625,
      "v": 110
    },
    {
      "midi": 45,
      "hit": false,
      "t": 105000,
      "d": 458.984375,
      "v": 110
    },
    {
      "midi": 53,
      "hit": false,
      "t": 105468.75,
      "d": 458.984375,
      "v": 110
    },
    {
      "midi": 50,
      "hit": false,
      "t": 105937.5,
      "d": 458.984375,
      "v": 110
    },
    {
      "midi": 53,
      "hit": false,
      "t": 106406.25,
      "d": 1250,
      "v": 110
    },
    {
      "midi": 64,
      "hit": false,
      "t": 107343.75,
      "d": 458.984375,
      "v": 110
    },
    {
      "midi": 76,
      "hit": false,
      "t": 107812.5,
      "d": 458.984375,
      "v": 110
    },
    {
      "midi": 72,
      "hit": false,
      "t": 108281.25,
      "d": 458.984375,
      "v": 110
    },
    {
      "midi": 62,
      "hit": false,
      "t": 108750,
      "d": 781.25,
      "v": 110
    },
    {
      "midi": 71,
      "hit": false,
      "t": 108750,
      "d": 781.25,
      "v": 110
    },
    {
      "midi": 45,
      "hit": false,
      "t": 108750,
      "d": 458.984375,
      "v": 110
    },
    {
      "midi": 52,
      "hit": false,
      "t": 109218.75,
      "d": 458.984375,
      "v": 110
    },
    {
      "midi": 60,
      "hit": false,
      "t": 109687.5,
      "d": 781.25,
      "v": 110
    },
    {
      "midi": 69,
      "hit": false,
      "t": 109687.5,
      "d": 781.25,
      "v": 110
    },
    {
      "midi": 48,
      "hit": false,
      "t": 109687.5,
      "d": 458.984375,
      "v": 110
    },
    {
      "midi": 52,
      "hit": false,
      "t": 110156.25,
      "d": 458.984375,
      "v": 110
    },
    {
      "midi": 62,
      "hit": false,
      "t": 110625,
      "d": 781.25,
      "v": 110
    },
    {
      "midi": 71,
      "hit": false,
      "t": 110625,
      "d": 781.25,
      "v": 110
    },
    {
      "midi": 48,
      "hit": false,
      "t": 110625,
      "d": 458.984375,
      "v": 110
    },
    {
      "midi": 52,
      "hit": false,
      "t": 111093.75,
      "d": 458.984375,
      "v": 110
    },
    {
      "midi": 64,
      "hit": false,
      "t": 111562.5,
      "d": 781.25,
      "v": 110
    },
    {
      "midi": 72,
      "hit": false,
      "t": 111562.5,
      "d": 781.25,
      "v": 110
    },
    {
      "midi": 48,
      "hit": false,
      "t": 111562.5,
      "d": 458.984375,
      "v": 110
    },
    {
      "midi": 52,
      "hit": false,
      "t": 112031.25,
      "d": 458.984375,
      "v": 110
    },
    {
      "midi": 65,
      "hit": false,
      "t": 112500,
      "d": 1640.625,
      "v": 110
    },
    {
      "midi": 74,
      "hit": false,
      "t": 112500,
      "d": 1640.625,
      "v": 110
    },
    {
      "midi": 45,
      "hit": false,
      "t": 112500,
      "d": 458.984375,
      "v": 110
    },
    {
      "midi": 53,
      "hit": false,
      "t": 112968.75,
      "d": 458.984375,
      "v": 110
    },
    {
      "midi": 50,
      "hit": false,
      "t": 113437.5,
      "d": 458.984375,
      "v": 110
    },
    {
      "midi": 53,
      "hit": false,
      "t": 113906.25,
      "d": 1250,
      "v": 110
    },
    {
      "midi": 64,
      "hit": false,
      "t": 114843.75,
      "d": 458.984375,
      "v": 110
    },
    {
      "midi": 76,
      "hit": false,
      "t": 115312.5,
      "d": 458.984375,
      "v": 110
    },
    {
      "midi": 72,
      "hit": false,
      "t": 115781.25,
      "d": 458.984375,
      "v": 110
    },
    {
      "midi": 64,
      "hit": false,
      "t": 116250,
      "d": 781.25,
      "v": 110
    },
    {
      "midi": 71,
      "hit": false,
      "t": 116250,
      "d": 781.25,
      "v": 110
    },
    {
      "midi": 45,
      "hit": false,
      "t": 116250,
      "d": 458.984375,
      "v": 110
    },
    {
      "midi": 52,
      "hit": false,
      "t": 116718.75,
      "d": 458.984375,
      "v": 110
    },
    {
      "midi": 62,
      "hit": false,
      "t": 117187.5,
      "d": 781.25,
      "v": 110
    },
    {
      "midi": 69,
      "hit": false,
      "t": 117187.5,
      "d": 781.25,
      "v": 110
    },
    {
      "midi": 48,
      "hit": false,
      "t": 117187.5,
      "d": 458.984375,
      "v": 110
    },
    {
      "midi": 52,
      "hit": false,
      "t": 117656.25,
      "d": 458.984375,
      "v": 110
    },
    {
      "midi": 48,
      "hit": false,
      "t": 118125,
      "d": 458.984375,
      "v": 110
    },
    {
      "midi": 69,
      "hit": false,
      "t": 118593.75,
      "d": 458.984375,
      "v": 110
    },
    {
      "midi": 52,
      "hit": false,
      "t": 118593.75,
      "d": 458.984375,
      "v": 110
    },
    {
      "midi": 81,
      "hit": false,
      "t": 119062.5,
      "d": 458.984375,
      "v": 110
    },
    {
      "midi": 48,
      "hit": false,
      "t": 119062.5,
      "d": 458.984375,
      "v": 110
    },
    {
      "midi": 76,
      "hit": false,
      "t": 119531.25,
      "d": 458.984375,
      "v": 110
    },
    {
      "midi": 52,
      "hit": false,
      "t": 119531.25,
      "d": 458.984375,
      "v": 110
    },
    {
      "midi": 76,
      "hit": false,
      "t": 120000,
      "d": 781.25,
      "v": 110
    },
    {
      "midi": 79,
      "hit": false,
      "t": 120000,
      "d": 781.25,
      "v": 110
    },
    {
      "midi": 50,
      "hit": false,
      "t": 120000,
      "d": 458.984375,
      "v": 110
    },
    {
      "midi": 57,
      "hit": false,
      "t": 120468.75,
      "d": 458.984375,
      "v": 110
    },
    {
      "midi": 74,
      "hit": false,
      "t": 120937.5,
      "d": 781.25,
      "v": 110
    },
    {
      "midi": 77,
      "hit": false,
      "t": 120937.5,
      "d": 781.25,
      "v": 110
    },
    {
      "midi": 53,
      "hit": false,
      "t": 120937.5,
      "d": 458.984375,
      "v": 110
    },
    {
      "midi": 57,
      "hit": false,
      "t": 121406.25,
      "d": 458.984375,
      "v": 110
    },
    {
      "midi": 69,
      "hit": false,
      "t": 121875,
      "d": 781.25,
      "v": 110
    },
    {
      "midi": 51,
      "hit": false,
      "t": 121875,
      "d": 458.984375,
      "v": 110
    },
    {
      "midi": 57,
      "hit": false,
      "t": 122343.75,
      "d": 458.984375,
      "v": 110
    },
    {
      "midi": 71,
      "hit": false,
      "t": 122812.5,
      "d": 781.25,
      "v": 110
    },
    {
      "midi": 54,
      "hit": false,
      "t": 122812.5,
      "d": 458.984375,
      "v": 110
    },
    {
      "midi": 57,
      "hit": false,
      "t": 123281.25,
      "d": 458.984375,
      "v": 110
    },
    {
      "midi": 69,
      "hit": false,
      "t": 123750,
      "d": 1640.625,
      "v": 110
    },
    {
      "midi": 72,
      "hit": false,
      "t": 123750,
      "d": 1640.625,
      "v": 110
    },
    {
      "midi": 52,
      "hit": false,
      "t": 123750,
      "d": 458.984375,
      "v": 110
    },
    {
      "midi": 60,
      "hit": false,
      "t": 124218.75,
      "d": 458.984375,
      "v": 110
    },
    {
      "midi": 57,
      "hit": false,
      "t": 124687.5,
      "d": 458.984375,
      "v": 110
    },
    {
      "midi": 60,
      "hit": false,
      "t": 125156.25,
      "d": 458.984375,
      "v": 110
    },
    {
      "midi": 69,
      "hit": false,
      "t": 125625,
      "d": 781.25,
      "v": 110
    },
    {
      "midi": 72,
      "hit": false,
      "t": 125625,
      "d": 781.25,
      "v": 110
    },
    {
      "midi": 52,
      "hit": false,
      "t": 125625,
      "d": 458.984375,
      "v": 110
    },
    {
      "midi": 60,
      "hit": false,
      "t": 126093.75,
      "d": 458.984375,
      "v": 110
    },
    {
      "midi": 71,
      "hit": false,
      "t": 126562.5,
      "d": 781.25,
      "v": 110
    },
    {
      "midi": 74,
      "hit": false,
      "t": 126562.5,
      "d": 781.25,
      "v": 110
    },
    {
      "midi": 59,
      "hit": false,
      "t": 126562.5,
      "d": 458.984375,
      "v": 110
    },
    {
      "midi": 57,
      "hit": false,
      "t": 127031.25,
      "d": 458.984375,
      "v": 110
    },
    {
      "midi": 69,
      "hit": false,
      "t": 127500,
      "d": 781.25,
      "v": 110
    },
    {
      "midi": 76,
      "hit": false,
      "t": 127500,
      "d": 781.25,
      "v": 110
    },
    {
      "midi": 52,
      "hit": false,
      "t": 127500,
      "d": 3515.625,
      "v": 110
    },
    {
      "midi": 59,
      "hit": false,
      "t": 127500,
      "d": 3515.625,
      "v": 110
    },
    {
      "midi": 66,
      "hit": false,
      "t": 128437.5,
      "d": 781.25,
      "v": 110
    },
    {
      "midi": 71,
      "hit": false,
      "t": 128437.5,
      "d": 1640.625,
      "v": 110
    },
    {
      "midi": 68,
      "hit": false,
      "t": 129375,
      "d": 781.25,
      "v": 110
    },
    {
      "midi": 69,
      "hit": false,
      "t": 130312.5,
      "d": 781.25,
      "v": 110
    },
    {
      "midi": 69,
      "hit": false,
      "t": 131250,
      "d": 1250,
      "v": 110
    },
    {
      "midi": 45,
      "hit": false,
      "t": 131250,
      "d": 4531.25,
      "v": 110
    },
    {
      "midi": 52,
      "hit": false,
      "t": 132187.5,
      "d": 3593.75,
      "v": 110
    },
    {
      "midi": 59,
      "hit": false,
      "t": 132656.25,
      "d": 458.984375,
      "v": 110
    },
    {
      "midi": 60,
      "hit": false,
      "t": 133125,
      "d": 458.984375,
      "v": 110
    },
    {
      "midi": 64,
      "hit": false,
      "t": 133593.75,
      "d": 458.984375,
      "v": 110
    },
    {
      "midi": 69,
      "hit": false,
      "t": 134062.5,
      "d": 458.984375,
      "v": 110
    },
    {
      "midi": 71,
      "hit": false,
      "t": 134531.25,
      "d": 458.984375,
      "v": 110
    },
    {
      "midi": 76,
      "hit": false,
      "t": 135000,
      "d": 781.25,
      "v": 110
    },
    {
      "midi": 64,
      "hit": false,
      "t": 135937.5,
      "d": 781.25,
      "v": 110
    },
    {
      "midi": 76,
      "hit": false,
      "t": 136875,
      "d": 781.25,
      "v": 110
    },
    {
      "midi": 72,
      "hit": false,
      "t": 137812.5,
      "d": 781.25,
      "v": 110
    },
    {
      "midi": 52,
      "hit": false,
      "t": 137812.5,
      "d": 781.25,
      "v": 110
    },
    {
      "midi": 56,
      "hit": false,
      "t": 137812.5,
      "d": 781.25,
      "v": 110
    },
    {
      "midi": 62,
      "hit": false,
      "t": 138750,
      "d": 781.25,
      "v": 110
    },
    {
      "midi": 71,
      "hit": false,
      "t": 138750,
      "d": 781.25,
      "v": 110
    },
    {
      "midi": 45,
      "hit": false,
      "t": 138750,
      "d": 3515.625,
      "v": 110
    },
    {
      "midi": 52,
      "hit": false,
      "t": 138750,
      "d": 3515.625,
      "v": 110
    },
    {
      "midi": 60,
      "hit": false,
      "t": 139687.5,
      "d": 781.25,
      "v": 110
    },
    {
      "midi": 69,
      "hit": false,
      "t": 139687.5,
      "d": 781.25,
      "v": 110
    },
    {
      "midi": 62,
      "hit": false,
      "t": 140625,
      "d": 781.25,
      "v": 110
    },
    {
      "midi": 71,
      "hit": false,
      "t": 140625,
      "d": 781.25,
      "v": 110
    },
    {
      "midi": 64,
      "hit": false,
      "t": 141562.5,
      "d": 781.25,
      "v": 110
    },
    {
      "midi": 72,
      "hit": false,
      "t": 141562.5,
      "d": 781.25,
      "v": 110
    },
    {
      "midi": 65,
      "hit": false,
      "t": 142500,
      "d": 1640.625,
      "v": 110
    },
    {
      "midi": 72,
      "hit": false,
      "t": 142500,
      "d": 1640.625,
      "v": 110
    },
    {
      "midi": 50,
      "hit": false,
      "t": 142500,
      "d": 3515.625,
      "v": 110
    },
    {
      "midi": 57,
      "hit": false,
      "t": 142500,
      "d": 3515.625,
      "v": 110
    },
    {
      "midi": 64,
      "hit": false,
      "t": 144375,
      "d": 781.25,
      "v": 110
    },
    {
      "midi": 65,
      "hit": false,
      "t": 144375,
      "d": 781.25,
      "v": 110
    },
    {
      "midi": 62,
      "hit": false,
      "t": 145312.5,
      "d": 781.25,
      "v": 110
    },
    {
      "midi": 64,
      "hit": false,
      "t": 146250,
      "d": 1640.625,
      "v": 110
    },
    {
      "midi": 48,
      "hit": false,
      "t": 146250,
      "d": 1640.625,
      "v": 110
    },
    {
      "midi": 57,
      "hit": false,
      "t": 146250,
      "d": 1640.625,
      "v": 110
    },
    {
      "midi": 62,
      "hit": false,
      "t": 148125,
      "d": 781.25,
      "v": 110
    },
    {
      "midi": 64,
      "hit": false,
      "t": 148125,
      "d": 781.25,
      "v": 110
    },
    {
      "midi": 47,
      "hit": false,
      "t": 148125,
      "d": 1640.625,
      "v": 110
    },
    {
      "midi": 57,
      "hit": false,
      "t": 148125,
      "d": 1640.625,
      "v": 110
    },
    {
      "midi": 69,
      "hit": false,
      "t": 149062.5,
      "d": 781.25,
      "v": 110
    },
    {
      "midi": 69,
      "hit": false,
      "t": 150000,
      "d": 1640.625,
      "v": 110
    },
    {
      "midi": 64,
      "hit": false,
      "t": 150000,
      "d": 3515.625,
      "v": 110
    },
    {
      "midi": 52,
      "hit": false,
      "t": 150000,
      "d": 4531.25,
      "v": 110
    },
    {
      "midi": 59,
      "hit": false,
      "t": 150000,
      "d": 4531.25,
      "v": 110
    },
    {
      "midi": 64,
      "hit": false,
      "t": 154687.5,
      "d": 781.25,
      "v": 110
    },
    {
      "midi": 76,
      "hit": false,
      "t": 155625,
      "d": 781.25,
      "v": 110
    },
    {
      "midi": 72,
      "hit": false,
      "t": 156562.5,
      "d": 781.25,
      "v": 110
    },
    {
      "midi": 52,
      "hit": false,
      "t": 156562.5,
      "d": 781.25,
      "v": 110
    },
    {
      "midi": 56,
      "hit": false,
      "t": 156562.5,
      "d": 781.25,
      "v": 110
    },
    {
      "midi": 62,
      "hit": false,
      "t": 157500,
      "d": 781.25,
      "v": 110
    },
    {
      "midi": 71,
      "hit": false,
      "t": 157500,
      "d": 781.25,
      "v": 110
    },
    {
      "midi": 45,
      "hit": false,
      "t": 157500,
      "d": 3515.625,
      "v": 110
    },
    {
      "midi": 52,
      "hit": false,
      "t": 157500,
      "d": 3515.625,
      "v": 110
    },
    {
      "midi": 60,
      "hit": false,
      "t": 158437.5,
      "d": 781.25,
      "v": 110
    },
    {
      "midi": 69,
      "hit": false,
      "t": 158437.5,
      "d": 781.25,
      "v": 110
    },
    {
      "midi": 62,
      "hit": false,
      "t": 159375,
      "d": 781.25,
      "v": 110
    },
    {
      "midi": 71,
      "hit": false,
      "t": 159375,
      "d": 781.25,
      "v": 110
    },
    {
      "midi": 64,
      "hit": false,
      "t": 160312.5,
      "d": 781.25,
      "v": 110
    },
    {
      "midi": 72,
      "hit": false,
      "t": 160312.5,
      "d": 781.25,
      "v": 110
    },
    {
      "midi": 76,
      "hit": false,
      "t": 161250,
      "d": 781.25,
      "v": 110
    },
    {
      "midi": 79,
      "hit": false,
      "t": 161250,
      "d": 781.25,
      "v": 110
    },
    {
      "midi": 50,
      "hit": false,
      "t": 161250,
      "d": 1640.625,
      "v": 110
    },
    {
      "midi": 57,
      "hit": false,
      "t": 161250,
      "d": 1640.625,
      "v": 110
    },
    {
      "midi": 74,
      "hit": false,
      "t": 162187.5,
      "d": 1640.625,
      "v": 110
    },
    {
      "midi": 77,
      "hit": false,
      "t": 162187.5,
      "d": 1640.625,
      "v": 110
    },
    {
      "midi": 52,
      "hit": false,
      "t": 163125,
      "d": 781.25,
      "v": 110
    },
    {
      "midi": 56,
      "hit": false,
      "t": 163125,
      "d": 781.25,
      "v": 110
    },
    {
      "midi": 72,
      "hit": false,
      "t": 164062.5,
      "d": 781.25,
      "v": 110
    },
    {
      "midi": 76,
      "hit": false,
      "t": 164062.5,
      "d": 781.25,
      "v": 110
    },
    {
      "midi": 48,
      "hit": false,
      "t": 164062.5,
      "d": 781.25,
      "v": 110
    },
    {
      "midi": 57,
      "hit": false,
      "t": 164062.5,
      "d": 781.25,
      "v": 110
    },
    {
      "midi": 76,
      "hit": false,
      "t": 165000,
      "d": 781.25,
      "v": 110
    },
    {
      "midi": 71,
      "hit": false,
      "t": 165000,
      "d": 2578.125,
      "v": 110
    },
    {
      "midi": 44,
      "hit": false,
      "t": 165000,
      "d": 1640.625,
      "v": 110
    },
    {
      "midi": 53,
      "hit": false,
      "t": 165000,
      "d": 1640.625,
      "v": 110
    },
    {
      "midi": 74,
      "hit": false,
      "t": 165937.5,
      "d": 1640.625,
      "v": 110
    },
    {
      "midi": 45,
      "hit": false,
      "t": 166875,
      "d": 1640.625,
      "v": 110
    },
    {
      "midi": 52,
      "hit": false,
      "t": 166875,
      "d": 1640.625,
      "v": 110
    },
    {
      "midi": 69,
      "hit": false,
      "t": 167812.5,
      "d": 781.25,
      "v": 110
    },
    {
      "midi": 72,
      "hit": false,
      "t": 167812.5,
      "d": 781.25,
      "v": 110
    },
    {
      "midi": 72,
      "hit": false,
      "t": 168750,
      "d": 781.25,
      "v": 110
    },
    {
      "midi": 65,
      "hit": false,
      "t": 168750,
      "d": 1640.625,
      "v": 110
    },
    {
      "midi": 50,
      "hit": false,
      "t": 168750,
      "d": 1640.625,
      "v": 110
    },
    {
      "midi": 58,
      "hit": false,
      "t": 168750,
      "d": 1640.625,
      "v": 110
    },
    {
      "midi": 70,
      "hit": false,
      "t": 169687.5,
      "d": 458.984375,
      "v": 110
    },
    {
      "midi": 69,
      "hit": false,
      "t": 170156.25,
      "d": 458.984375,
      "v": 110
    },
    {
      "midi": 69,
      "hit": false,
      "t": 170625,
      "d": 458.984375,
      "v": 110
    },
    {
      "midi": 64,
      "hit": false,
      "t": 170625,
      "d": 1640.625,
      "v": 110
    },
    {
      "midi": 52,
      "hit": false,
      "t": 170625,
      "d": 1640.625,
      "v": 110
    },
    {
      "midi": 59,
      "hit": false,
      "t": 170625,
      "d": 1640.625,
      "v": 110
    },
    {
      "midi": 68,
      "hit": false,
      "t": 171093.75,
      "d": 781.25,
      "v": 110
    },
    {
      "midi": 69,
      "hit": false,
      "t": 172031.25,
      "d": 458.984375,
      "v": 110
    },
    {
      "midi": 62,
      "hit": false,
      "t": 172500,
      "d": 1640.625,
      "v": 110
    },
    {
      "midi": 69,
      "hit": false,
      "t": 172500,
      "d": 4531.25,
      "v": 110
    },
    {
      "midi": 45,
      "hit": false,
      "t": 172500,
      "d": 3515.625,
      "v": 110
    },
    {
      "midi": 52,
      "hit": false,
      "t": 172500,
      "d": 3515.625,
      "v": 110
    },
    {
      "midi": 61,
      "hit": false,
      "t": 174375,
      "d": 1640.625,
      "v": 110
    },
    {
      "midi": 60,
      "hit": false,
      "t": 176250,
      "d": 781.25,
      "v": 110
    },
    {
      "midi": 45,
      "hit": false,
      "t": 176250,
      "d": 3515.625,
      "v": 110
    },
    {
      "midi": 52,
      "hit": false,
      "t": 176250,
      "d": 3515.625,
      "v": 110
    },
    {
      "midi": 60,
      "hit": false,
      "t": 177187.5,
      "d": 781.25,
      "v": 110
    },
    {
      "midi": 69,
      "hit": false,
      "t": 177187.5,
      "d": 781.25,
      "v": 110
    },
    {
      "midi": 62,
      "hit": false,
      "t": 178125,
      "d": 781.25,
      "v": 110
    },
    {
      "midi": 71,
      "hit": false,
      "t": 178125,
      "d": 781.25,
      "v": 110
    },
    {
      "midi": 64,
      "hit": false,
      "t": 179062.5,
      "d": 781.25,
      "v": 110
    },
    {
      "midi": 72,
      "hit": false,
      "t": 179062.5,
      "d": 781.25,
      "v": 110
    },
    {
      "midi": 71,
      "hit": false,
      "t": 180000,
      "d": 781.25,
      "v": 110
    },
    {
      "midi": 74,
      "hit": false,
      "t": 180000,
      "d": 781.25,
      "v": 110
    },
    {
      "midi": 45,
      "hit": false,
      "t": 180000,
      "d": 3515.625,
      "v": 110
    },
    {
      "midi": 52,
      "hit": false,
      "t": 180000,
      "d": 3515.625,
      "v": 110
    },
    {
      "midi": 72,
      "hit": false,
      "t": 180937.5,
      "d": 2578.125,
      "v": 110
    },
    {
      "midi": 76,
      "hit": false,
      "t": 180937.5,
      "d": 2578.125,
      "v": 110
    },
    {
      "midi": 72,
      "hit": false,
      "t": 183750,
      "d": 3515.625,
      "v": 110
    },
    {
      "midi": 76,
      "hit": false,
      "t": 183750,
      "d": 3515.625,
      "v": 110
    },
    {
      "midi": 45,
      "hit": false,
      "t": 183750,
      "d": 3515.625,
      "v": 110
    },
    {
      "midi": 52,
      "hit": false,
      "t": 183750,
      "d": 3515.625,
      "v": 110
    }
  ]
}