{
  "jsonPath": "Rap/Trap Soul/Indica/ei-enaa.json",
  "path": "Rap\\Trap Soul\\Indica\\Ei enää.mid",
  "name": "Ei enää",
  "difficulty": "Advanced",
  "bpm": 100,
  "notes": [
    {
      "midi": 46,
      "hit": false,
      "t": 2400,
      "d": 1737.5,
      "v": 52
    },
    {
      "midi": 53,
      "hit": false,
      "t": 2700,
      "d": 2025,
      "v": 48
    },
    {
      "midi": 86,
      "hit": false,
      "t": 3000,
      "d": 125,
      "v": 71
    },
    {
      "midi": 58,
      "hit": false,
      "t": 3000,
      "d": 1050,
      "v": 36
    },
    {
      "midi": 86,
      "hit": false,
      "t": 3300,
      "d": 134.375,
      "v": 76
    },
    {
      "midi": 62,
      "hit": false,
      "t": 3300,
      "d": 318.75,
      "v": 51
    },
    {
      "midi": 86,
      "hit": false,
      "t": 3600,
      "d": 137.5,
      "v": 71
    },
    {
      "midi": 65,
      "hit": false,
      "t": 3600,
      "d": 290.625,
      "v": 36
    },
    {
      "midi": 86,
      "hit": false,
      "t": 3900,
      "d": 131.25,
      "v": 82
    },
    {
      "midi": 62,
      "hit": false,
      "t": 3900,
      "d": 275,
      "v": 43
    },
    {
      "midi": 86,
      "hit": false,
      "t": 4200,
      "d": 131.25,
      "v": 79
    },
    {
      "midi": 65,
      "hit": false,
      "t": 4200,
      "d": 437.5,
      "v": 42
    },
    {
      "midi": 70,
      "hit": false,
      "t": 4200,
      "d": 462.5,
      "v": 43
    },
    {
      "midi": 89,
      "hit": false,
      "t": 4500,
      "d": 125,
      "v": 86
    },
    {
      "midi": 62,
      "hit": false,
      "t": 4500,
      "d": 262.5,
      "v": 56
    },
    {
      "midi": 84,
      "hit": false,
      "t": 4800,
      "d": 1200,
      "v": 82
    },
    {
      "midi": 45,
      "hit": false,
      "t": 4800,
      "d": 1618.75,
      "v": 45
    },
    {
      "midi": 53,
      "hit": false,
      "t": 5100,
      "d": 1443.75,
      "v": 56
    },
    {
      "midi": 57,
      "hit": false,
      "t": 5400,
      "d": 981.25,
      "v": 52
    },
    {
      "midi": 60,
      "hit": false,
      "t": 5700,
      "d": 75,
      "v": 35
    },
    {
      "midi": 65,
      "hit": false,
      "t": 5700,
      "d": 631.25,
      "v": 32
    },
    {
      "midi": 60,
      "hit": false,
      "t": 6300,
      "d": 275,
      "v": 43
    },
    {
      "midi": 65,
      "hit": false,
      "t": 6600,
      "d": 331.25,
      "v": 45
    },
    {
      "midi": 60,
      "hit": false,
      "t": 6900,
      "d": 43.75,
      "v": 32
    },
    {
      "midi": 43,
      "hit": false,
      "t": 7200,
      "d": 1850,
      "v": 55
    },
    {
      "midi": 50,
      "hit": false,
      "t": 7500,
      "d": 1681.25,
      "v": 52
    },
    {
      "midi": 82,
      "hit": false,
      "t": 7800,
      "d": 125,
      "v": 77
    },
    {
      "midi": 58,
      "hit": false,
      "t": 7800,
      "d": 203.125,
      "v": 43
    },
    {
      "midi": 55,
      "hit": false,
      "t": 7800,
      "d": 1118.75,
      "v": 51
    },
    {
      "midi": 82,
      "hit": false,
      "t": 8100,
      "d": 118.75,
      "v": 64
    },
    {
      "midi": 62,
      "hit": false,
      "t": 8100,
      "d": 300,
      "v": 58
    },
    {
      "midi": 82,
      "hit": false,
      "t": 8400,
      "d": 118.75,
      "v": 71
    },
    {
      "midi": 58,
      "hit": false,
      "t": 8400,
      "d": 250,
      "v": 32
    },
    {
      "midi": 82,
      "hit": false,
      "t": 8700,
      "d": 125,
      "v": 71
    },
    {
      "midi": 62,
      "hit": false,
      "t": 8700,
      "d": 293.75,
      "v": 47
    },
    {
      "midi": 67,
      "hit": false,
      "t": 8700,
      "d": 450,
      "v": 32
    },
    {
      "midi": 82,
      "hit": false,
      "t": 9000,
      "d": 118.75,
      "v": 74
    },
    {
      "midi": 58,
      "hit": false,
      "t": 9000,
      "d": 375,
      "v": 42
    },
    {
      "midi": 62,
      "hit": false,
      "t": 9300,
      "d": 75,
      "v": 50
    },
    {
      "midi": 86,
      "hit": false,
      "t": 9300,
      "d": 93.75,
      "v": 82
    },
    {
      "midi": 41,
      "hit": false,
      "t": 9600,
      "d": 1131.25,
      "v": 56
    },
    {
      "midi": 81,
      "hit": false,
      "t": 9600,
      "d": 2162.5,
      "v": 79
    },
    {
      "midi": 53,
      "hit": false,
      "t": 9900,
      "d": 1700,
      "v": 48
    },
    {
      "midi": 57,
      "hit": false,
      "t": 10200,
      "d": 275,
      "v": 56
    },
    {
      "midi": 62,
      "hit": false,
      "t": 10500,
      "d": 775,
      "v": 51
    },
    {
      "midi": 57,
      "hit": false,
      "t": 11100,
      "d": 259.375,
      "v": 41
    },
    {
      "midi": 62,
      "hit": false,
      "t": 11400,
      "d": 268.75,
      "v": 37
    },
    {
      "midi": 57,
      "hit": false,
      "t": 11700,
      "d": 118.75,
      "v": 49
    },
    {
      "midi": 63,
      "hit": false,
      "t": 12000,
      "d": 256.25,
      "v": 32
    },
    {
      "midi": 39,
      "hit": false,
      "t": 12000,
      "d": 1028.125,
      "v": 61
    },
    {
      "midi": 58,
      "hit": false,
      "t": 12300,
      "d": 203.125,
      "v": 32
    },
    {
      "midi": 79,
      "hit": false,
      "t": 12600,
      "d": 87.5,
      "v": 56
    },
    {
      "midi": 63,
      "hit": false,
      "t": 12600,
      "d": 278.125,
      "v": 57
    },
    {
      "midi": 79,
      "hit": false,
      "t": 12900,
      "d": 134.375,
      "v": 77
    },
    {
      "midi": 58,
      "hit": false,
      "t": 12900,
      "d": 412.5,
      "v": 40
    },
    {
      "midi": 51,
      "hit": false,
      "t": 12900,
      "d": 1168.75,
      "v": 44
    },
    {
      "midi": 63,
      "hit": false,
      "t": 13200,
      "d": 12.5,
      "v": 32
    },
    {
      "midi": 79,
      "hit": false,
      "t": 13200,
      "d": 125,
      "v": 88
    },
    {
      "midi": 79,
      "hit": false,
      "t": 13500,
      "d": 125,
      "v": 79
    },
    {
      "midi": 58,
      "hit": false,
      "t": 13500,
      "d": 250,
      "v": 48
    },
    {
      "midi": 39,
      "hit": false,
      "t": 13650,
      "d": 268.75,
      "v": 40
    },
    {
      "midi": 79,
      "hit": false,
      "t": 13800,
      "d": 125,
      "v": 56
    },
    {
      "midi": 63,
      "hit": false,
      "t": 13800,
      "d": 178.125,
      "v": 32
    },
    {
      "midi": 82,
      "hit": false,
      "t": 14100,
      "d": 81.25,
      "v": 77
    },
    {
      "midi": 58,
      "hit": false,
      "t": 14100,
      "d": 125,
      "v": 32
    },
    {
      "midi": 60,
      "hit": false,
      "t": 14400,
      "d": 331.25,
      "v": 55
    },
    {
      "midi": 38,
      "hit": false,
      "t": 14400,
      "d": 1387.5,
      "v": 49
    },
    {
      "midi": 50,
      "hit": false,
      "t": 14400,
      "d": 2087.5,
      "v": 32
    },
    {
      "midi": 77,
      "hit": false,
      "t": 14400,
      "d": 2156.25,
      "v": 79
    },
    {
      "midi": 58,
      "hit": false,
      "t": 14700,
      "d": 281.25,
      "v": 32
    },
    {
      "midi": 60,
      "hit": false,
      "t": 15015.625,
      "d": 221.875,
      "v": 32
    },
    {
      "midi": 58,
      "hit": false,
      "t": 15300,
      "d": 315.625,
      "v": 46
    },
    {
      "midi": 58,
      "hit": false,
      "t": 15900,
      "d": 275,
      "v": 49
    },
    {
      "midi": 38,
      "hit": false,
      "t": 16200,
      "d": 193.75,
      "v": 43
    },
    {
      "midi": 58,
      "hit": false,
      "t": 16500,
      "d": 112.5,
      "v": 42
    },
    {
      "midi": 36,
      "hit": false,
      "t": 16800,
      "d": 2075,
      "v": 66
    },
    {
      "midi": 55,
      "hit": false,
      "t": 17100,
      "d": 150,
      "v": 50
    },
    {
      "midi": 76,
      "hit": false,
      "t": 17400,
      "d": 137.5,
      "v": 71
    },
    {
      "midi": 67,
      "hit": false,
      "t": 17400,
      "d": 250,
      "v": 52
    },
    {
      "midi": 60,
      "hit": false,
      "t": 17400,
      "d": 281.25,
      "v": 63
    },
    {
      "midi": 48,
      "hit": false,
      "t": 17400,
      "d": 1781.25,
      "v": 48
    },
    {
      "midi": 76,
      "hit": false,
      "t": 17700,
      "d": 131.25,
      "v": 79
    },
    {
      "midi": 60,
      "hit": false,
      "t": 18000,
      "d": 93.75,
      "v": 32
    },
    {
      "midi": 76,
      "hit": false,
      "t": 18000,
      "d": 237.5,
      "v": 71
    },
    {
      "midi": 67,
      "hit": false,
      "t": 18000,
      "d": 1187.5,
      "v": 36
    },
    {
      "midi": 82,
      "hit": false,
      "t": 18300,
      "d": 887.5,
      "v": 64
    },
    {
      "midi": 76,
      "hit": false,
      "t": 18600,
      "d": 243.75,
      "v": 71
    },
    {
      "midi": 60,
      "hit": false,
      "t": 18600,
      "d": 593.75,
      "v": 58
    },
    {
      "midi": 75,
      "hit": false,
      "t": 18900,
      "d": 296.875,
      "v": 71
    },
    {
      "midi": 67,
      "hit": false,
      "t": 19200,
      "d": 275,
      "v": 62
    },
    {
      "midi": 75,
      "hit": false,
      "t": 19200,
      "d": 281.25,
      "v": 51
    },
    {
      "midi": 58,
      "hit": false,
      "t": 19200,
      "d": 475,
      "v": 54
    },
    {
      "midi": 41,
      "hit": false,
      "t": 19200,
      "d": 993.75,
      "v": 52
    },
    {
      "midi": 63,
      "hit": false,
      "t": 19800,
      "d": 296.875,
      "v": 32
    },
    {
      "midi": 63,
      "hit": false,
      "t": 20100,
      "d": 168.75,
      "v": 49
    },
    {
      "midi": 58,
      "hit": false,
      "t": 20100,
      "d": 250,
      "v": 38
    },
    {
      "midi": 67,
      "hit": false,
      "t": 20100,
      "d": 281.25,
      "v": 52
    },
    {
      "midi": 77,
      "hit": false,
      "t": 20400,
      "d": 593.75,
      "v": 60
    },
    {
      "midi": 69,
      "hit": false,
      "t": 20400,
      "d": 1150,
      "v": 56
    },
    {
      "midi": 60,
      "hit": false,
      "t": 20400,
      "d": 1156.25,
      "v": 56
    },
    {
      "midi": 65,
      "hit": false,
      "t": 20400,
      "d": 1159.375,
      "v": 56
    },
    {
      "midi": 75,
      "hit": false,
      "t": 21000,
      "d": 618.75,
      "v": 56
    },
    {
      "midi": 46,
      "hit": false,
      "t": 21600,
      "d": 1734.375,
      "v": 52
    },
    {
      "midi": 53,
      "hit": false,
      "t": 21900,
      "d": 2025,
      "v": 48
    },
    {
      "midi": 86,
      "hit": false,
      "t": 22200,
      "d": 125,
      "v": 61
    },
    {
      "midi": 58,
      "hit": false,
      "t": 22200,
      "d": 1050,
      "v": 36
    },
    {
      "midi": 86,
      "hit": false,
      "t": 22500,
      "d": 137.5,
      "v": 66
    },
    {
      "midi": 62,
      "hit": false,
      "t": 22500,
      "d": 318.75,
      "v": 51
    },
    {
      "midi": 86,
      "hit": false,
      "t": 22800,
      "d": 137.5,
      "v": 61
    },
    {
      "midi": 65,
      "hit": false,
      "t": 22800,
      "d": 293.75,
      "v": 36
    },
    {
      "midi": 86,
      "hit": false,
      "t": 23100,
      "d": 131.25,
      "v": 72
    },
    {
      "midi": 62,
      "hit": false,
      "t": 23125,
      "d": 250,
      "v": 43
    },
    {
      "midi": 86,
      "hit": false,
      "t": 23400,
      "d": 131.25,
      "v": 69
    },
    {
      "midi": 65,
      "hit": false,
      "t": 23400,
      "d": 437.5,
      "v": 42
    },
    {
      "midi": 70,
      "hit": false,
      "t": 23400,
      "d": 462.5,
      "v": 43
    },
    {
      "midi": 89,
      "hit": false,
      "t": 23700,
      "d": 125,
      "v": 76
    },
    {
      "midi": 62,
      "hit": false,
      "t": 23700,
      "d": 262.5,
      "v": 56
    },
    {
      "midi": 84,
      "hit": false,
      "t": 24000,
      "d": 1200,
      "v": 72
    },
    {
      "midi": 45,
      "hit": false,
      "t": 24000,
      "d": 1618.75,
      "v": 45
    },
    {
      "midi": 53,
      "hit": false,
      "t": 24300,
      "d": 1443.75,
      "v": 56
    },
    {
      "midi": 57,
      "hit": false,
      "t": 24600,
      "d": 981.25,
      "v": 52
    },
    {
      "midi": 60,
      "hit": false,
      "t": 24900,
      "d": 75,
      "v": 35
    },
    {
      "midi": 65,
      "hit": false,
      "t": 24900,
      "d": 631.25,
      "v": 32
    },
    {
      "midi": 60,
      "hit": false,
      "t": 25500,
      "d": 275,
      "v": 43
    },
    {
      "midi": 65,
      "hit": false,
      "t": 25800,
      "d": 331.25,
      "v": 45
    },
    {
      "midi": 60,
      "hit": false,
      "t": 26100,
      "d": 43.75,
      "v": 32
    },
    {
      "midi": 43,
      "hit": false,
      "t": 26400,
      "d": 1850,
      "v": 55
    },
    {
      "midi": 50,
      "hit": false,
      "t": 26700,
      "d": 1681.25,
      "v": 52
    },
    {
      "midi": 82,
      "hit": false,
      "t": 27000,
      "d": 125,
      "v": 67
    },
    {
      "midi": 58,
      "hit": false,
      "t": 27000,
      "d": 206.25,
      "v": 43
    },
    {
      "midi": 55,
      "hit": false,
      "t": 27000,
      "d": 1118.75,
      "v": 51
    },
    {
      "midi": 82,
      "hit": false,
      "t": 27300,
      "d": 118.75,
      "v": 54
    },
    {
      "midi": 62,
      "hit": false,
      "t": 27300,
      "d": 300,
      "v": 58
    },
    {
      "midi": 82,
      "hit": false,
      "t": 27600,
      "d": 118.75,
      "v": 61
    },
    {
      "midi": 58,
      "hit": false,
      "t": 27600,
      "d": 250,
      "v": 32
    },
    {
      "midi": 82,
      "hit": false,
      "t": 27900,
      "d": 125,
      "v": 61
    },
    {
      "midi": 62,
      "hit": false,
      "t": 27900,
      "d": 293.75,
      "v": 47
    },
    {
      "midi": 67,
      "hit": false,
      "t": 27900,
      "d": 471.875,
      "v": 32
    },
    {
      "midi": 82,
      "hit": false,
      "t": 28200,
      "d": 118.75,
      "v": 64
    },
    {
      "midi": 58,
      "hit": false,
      "t": 28200,
      "d": 375,
      "v": 42
    },
    {
      "midi": 62,
      "hit": false,
      "t": 28500,
      "d": 75,
      "v": 50
    },
    {
      "midi": 86,
      "hit": false,
      "t": 28500,
      "d": 93.75,
      "v": 72
    },
    {
      "midi": 41,
      "hit": false,
      "t": 28800,
      "d": 1131.25,
      "v": 56
    },
    {
      "midi": 81,
      "hit": false,
      "t": 28800,
      "d": 2162.5,
      "v": 69
    },
    {
      "midi": 53,
      "hit": false,
      "t": 29100,
      "d": 1700,
      "v": 48
    },
    {
      "midi": 57,
      "hit": false,
      "t": 29400,
      "d": 275,
      "v": 56
    },
    {
      "midi": 62,
      "hit": false,
      "t": 29700,
      "d": 775,
      "v": 51
    },
    {
      "midi": 57,
      "hit": false,
      "t": 30300,
      "d": 262.5,
      "v": 41
    },
    {
      "midi": 62,
      "hit": false,
      "t": 30600,
      "d": 265.625,
      "v": 37
    },
    {
      "midi": 57,
      "hit": false,
      "t": 30900,
      "d": 118.75,
      "v": 49
    },
    {
      "midi": 63,
      "hit": false,
      "t": 31200,
      "d": 256.25,
      "v": 32
    },
    {
      "midi": 39,
      "hit": false,
      "t": 31200,
      "d": 1031.25,
      "v": 61
    },
    {
      "midi": 58,
      "hit": false,
      "t": 31500,
      "d": 206.25,
      "v": 32
    },
    {
      "midi": 79,
      "hit": false,
      "t": 31800,
      "d": 87.5,
      "v": 46
    },
    {
      "midi": 63,
      "hit": false,
      "t": 31800,
      "d": 281.25,
      "v": 57
    },
    {
      "midi": 79,
      "hit": false,
      "t": 32100,
      "d": 137.5,
      "v": 67
    },
    {
      "midi": 58,
      "hit": false,
      "t": 32100,
      "d": 412.5,
      "v": 40
    },
    {
      "midi": 51,
      "hit": false,
      "t": 32100,
      "d": 1168.75,
      "v": 44
    },
    {
      "midi": 63,
      "hit": false,
      "t": 32400,
      "d": 12.5,
      "v": 32
    },
    {
      "midi": 79,
      "hit": false,
      "t": 32400,
      "d": 125,
      "v": 78
    },
    {
      "midi": 79,
      "hit": false,
      "t": 32700,
      "d": 125,
      "v": 69
    },
    {
      "midi": 58,
      "hit": false,
      "t": 32700,
      "d": 250,
      "v": 48
    },
    {
      "midi": 39,
      "hit": false,
      "t": 32850,
      "d": 268.75,
      "v": 40
    },
    {
      "midi": 79,
      "hit": false,
      "t": 33000,
      "d": 125,
      "v": 46
    },
    {
      "midi": 63,
      "hit": false,
      "t": 33000,
      "d": 181.25,
      "v": 32
    },
    {
      "midi": 82,
      "hit": false,
      "t": 33300,
      "d": 81.25,
      "v": 67
    },
    {
      "midi": 58,
      "hit": false,
      "t": 33300,
      "d": 125,
      "v": 32
    },
    {
      "midi": 60,
      "hit": false,
      "t": 33600,
      "d": 331.25,
      "v": 55
    },
    {
      "midi": 38,
      "hit": false,
      "t": 33600,
      "d": 1387.5,
      "v": 49
    },
    {
      "midi": 50,
      "hit": false,
      "t": 33600,
      "d": 2087.5,
      "v": 32
    },
    {
      "midi": 77,
      "hit": false,
      "t": 33600,
      "d": 2156.25,
      "v": 69
    },
    {
      "midi": 58,
      "hit": false,
      "t": 33900,
      "d": 281.25,
      "v": 32
    },
    {
      "midi": 60,
      "hit": false,
      "t": 34200,
      "d": 237.5,
      "v": 32
    },
    {
      "midi": 58,
      "hit": false,
      "t": 34500,
      "d": 318.75,
      "v": 46
    },
    {
      "midi": 58,
      "hit": false,
      "t": 35100,
      "d": 275,
      "v": 49
    },
    {
      "midi": 38,
      "hit": false,
      "t": 35400,
      "d": 193.75,
      "v": 43
    },
    {
      "midi": 58,
      "hit": false,
      "t": 35700,
      "d": 112.5,
      "v": 42
    },
    {
      "midi": 36,
      "hit": false,
      "t": 36000,
      "d": 2075,
      "v": 66
    },
    {
      "midi": 55,
      "hit": false,
      "t": 36300,
      "d": 150,
      "v": 50
    },
    {
      "midi": 76,
      "hit": false,
      "t": 36600,
      "d": 137.5,
      "v": 61
    },
    {
      "midi": 67,
      "hit": false,
      "t": 36600,
      "d": 250,
      "v": 52
    },
    {
      "midi": 60,
      "hit": false,
      "t": 36600,
      "d": 281.25,
      "v": 63
    },
    {
      "midi": 48,
      "hit": false,
      "t": 36600,
      "d": 1781.25,
      "v": 48
    },
    {
      "midi": 76,
      "hit": false,
      "t": 36900,
      "d": 131.25,
      "v": 69
    },
    {
      "midi": 76,
      "hit": false,
      "t": 37200,
      "d": 237.5,
      "v": 61
    },
    {
      "midi": 67,
      "hit": false,
      "t": 37200,
      "d": 1184.375,
      "v": 36
    },
    {
      "midi": 82,
      "hit": false,
      "t": 37500,
      "d": 884.375,
      "v": 54
    },
    {
      "midi": 76,
      "hit": false,
      "t": 37800,
      "d": 243.75,
      "v": 61
    },
    {
      "midi": 60,
      "hit": false,
      "t": 37800,
      "d": 590.625,
      "v": 58
    },
    {
      "midi": 75,
      "hit": false,
      "t": 38100,
      "d": 296.875,
      "v": 61
    },
    {
      "midi": 67,
      "hit": false,
      "t": 38400,
      "d": 275,
      "v": 62
    },
    {
      "midi": 75,
      "hit": false,
      "t": 38400,
      "d": 281.25,
      "v": 41
    },
    {
      "midi": 58,
      "hit": false,
      "t": 38400,
      "d": 475,
      "v": 54
    },
    {
      "midi": 41,
      "hit": false,
      "t": 38400,
      "d": 990.625,
      "v": 52
    },
    {
      "midi": 63,
      "hit": false,
      "t": 39000,
      "d": 296.875,
      "v": 32
    },
    {
      "midi": 63,
      "hit": false,
      "t": 39300,
      "d": 168.75,
      "v": 49
    },
    {
      "midi": 58,
      "hit": false,
      "t": 39300,
      "d": 250,
      "v": 38
    },
    {
      "midi": 67,
      "hit": false,
      "t": 39300,
      "d": 281.25,
      "v": 52
    },
    {
      "midi": 77,
      "hit": false,
      "t": 39600,
      "d": 593.75,
      "v": 50
    },
    {
      "midi": 69,
      "hit": false,
      "t": 39600,
      "d": 1150,
      "v": 56
    },
    {
      "midi": 60,
      "hit": false,
      "t": 39600,
      "d": 1156.25,
      "v": 56
    },
    {
      "midi": 65,
      "hit": false,
      "t": 39600,
      "d": 1162.5,
      "v": 56
    },
    {
      "midi": 75,
      "hit": false,
      "t": 40200,
      "d": 600,
      "v": 46
    },
    {
      "midi": 46,
      "hit": false,
      "t": 40800,
      "d": 1737.5,
      "v": 52
    },
    {
      "midi": 53,
      "hit": false,
      "t": 41100,
      "d": 2025,
      "v": 48
    },
    {
      "midi": 86,
      "hit": false,
      "t": 41400,
      "d": 125,
      "v": 71
    },
    {
      "midi": 58,
      "hit": false,
      "t": 41400,
      "d": 1050,
      "v": 36
    },
    {
      "midi": 86,
      "hit": false,
      "t": 41700,
      "d": 137.5,
      "v": 56
    },
    {
      "midi": 62,
      "hit": false,
      "t": 41700,
      "d": 318.75,
      "v": 51
    },
    {
      "midi": 86,
      "hit": false,
      "t": 42000,
      "d": 137.5,
      "v": 61
    },
    {
      "midi": 65,
      "hit": false,
      "t": 42000,
      "d": 293.75,
      "v": 36
    },
    {
      "midi": 86,
      "hit": false,
      "t": 42300,
      "d": 131.25,
      "v": 72
    },
    {
      "midi": 62,
      "hit": false,
      "t": 42300,
      "d": 275,
      "v": 43
    },
    {
      "midi": 86,
      "hit": false,
      "t": 42600,
      "d": 128.125,
      "v": 69
    },
    {
      "midi": 65,
      "hit": false,
      "t": 42600,
      "d": 434.375,
      "v": 42
    },
    {
      "midi": 70,
      "hit": false,
      "t": 42600,
      "d": 459.375,
      "v": 43
    },
    {
      "midi": 89,
      "hit": false,
      "t": 42900,
      "d": 125,
      "v": 76
    },
    {
      "midi": 62,
      "hit": false,
      "t": 42900,
      "d": 262.5,
      "v": 56
    },
    {
      "midi": 84,
      "hit": false,
      "t": 43200,
      "d": 1200,
      "v": 72
    },
    {
      "midi": 45,
      "hit": false,
      "t": 43200,
      "d": 1618.75,
      "v": 45
    },
    {
      "midi": 53,
      "hit": false,
      "t": 43500,
      "d": 1443.75,
      "v": 56
    },
    {
      "midi": 57,
      "hit": false,
      "t": 43800,
      "d": 981.25,
      "v": 52
    },
    {
      "midi": 60,
      "hit": false,
      "t": 44100,
      "d": 75,
      "v": 35
    },
    {
      "midi": 65,
      "hit": false,
      "t": 44100,
      "d": 631.25,
      "v": 32
    },
    {
      "midi": 60,
      "hit": false,
      "t": 44700,
      "d": 275,
      "v": 43
    },
    {
      "midi": 65,
      "hit": false,
      "t": 45000,
      "d": 328.125,
      "v": 45
    },
    {
      "midi": 60,
      "hit": false,
      "t": 45300,
      "d": 43.75,
      "v": 32
    },
    {
      "midi": 43,
      "hit": false,
      "t": 45600,
      "d": 1850,
      "v": 55
    },
    {
      "midi": 50,
      "hit": false,
      "t": 45900,
      "d": 1681.25,
      "v": 52
    },
    {
      "midi": 82,
      "hit": false,
      "t": 46200,
      "d": 125,
      "v": 67
    },
    {
      "midi": 58,
      "hit": false,
      "t": 46200,
      "d": 206.25,
      "v": 43
    },
    {
      "midi": 55,
      "hit": false,
      "t": 46200,
      "d": 1118.75,
      "v": 51
    },
    {
      "midi": 82,
      "hit": false,
      "t": 46500,
      "d": 118.75,
      "v": 54
    },
    {
      "midi": 62,
      "hit": false,
      "t": 46500,
      "d": 300,
      "v": 58
    },
    {
      "midi": 82,
      "hit": false,
      "t": 46800,
      "d": 118.75,
      "v": 61
    },
    {
      "midi": 58,
      "hit": false,
      "t": 46800,
      "d": 250,
      "v": 32
    },
    {
      "midi": 82,
      "hit": false,
      "t": 47100,
      "d": 125,
      "v": 61
    },
    {
      "midi": 62,
      "hit": false,
      "t": 47100,
      "d": 293.75,
      "v": 47
    },
    {
      "midi": 67,
      "hit": false,
      "t": 47100,
      "d": 450,
      "v": 32
    },
    {
      "midi": 82,
      "hit": false,
      "t": 47400,
      "d": 118.75,
      "v": 64
    },
    {
      "midi": 58,
      "hit": false,
      "t": 47400,
      "d": 375,
      "v": 42
    },
    {
      "midi": 62,
      "hit": false,
      "t": 47700,
      "d": 75,
      "v": 50
    },
    {
      "midi": 86,
      "hit": false,
      "t": 47721.875,
      "d": 71.875,
      "v": 72
    },
    {
      "midi": 42,
      "hit": false,
      "t": 48000,
      "d": 1131.25,
      "v": 56
    },
    {
      "midi": 81,
      "hit": false,
      "t": 48000,
      "d": 2162.5,
      "v": 69
    },
    {
      "midi": 54,
      "hit": false,
      "t": 48300,
      "d": 1700,
      "v": 48
    },
    {
      "midi": 57,
      "hit": false,
      "t": 48600,
      "d": 275,
      "v": 56
    },
    {
      "midi": 62,
      "hit": false,
      "t": 48900,
      "d": 775,
      "v": 51
    },
    {
      "midi": 57,
      "hit": false,
      "t": 49500,
      "d": 262.5,
      "v": 41
    },
    {
      "midi": 62,
      "hit": false,
      "t": 49800,
      "d": 268.75,
      "v": 37
    },
    {
      "midi": 57,
      "hit": false,
      "t": 50100,
      "d": 118.75,
      "v": 49
    },
    {
      "midi": 63,
      "hit": false,
      "t": 50400,
      "d": 256.25,
      "v": 32
    },
    {
      "midi": 39,
      "hit": false,
      "t": 50400,
      "d": 1031.25,
      "v": 61
    },
    {
      "midi": 58,
      "hit": false,
      "t": 50700,
      "d": 206.25,
      "v": 32
    },
    {
      "midi": 79,
      "hit": false,
      "t": 51000,
      "d": 87.5,
      "v": 46
    },
    {
      "midi": 63,
      "hit": false,
      "t": 51000,
      "d": 281.25,
      "v": 57
    },
    {
      "midi": 79,
      "hit": false,
      "t": 51300,
      "d": 137.5,
      "v": 67
    },
    {
      "midi": 58,
      "hit": false,
      "t": 51300,
      "d": 412.5,
      "v": 40
    },
    {
      "midi": 51,
      "hit": false,
      "t": 51300,
      "d": 1168.75,
      "v": 44
    },
    {
      "midi": 63,
      "hit": false,
      "t": 51600,
      "d": 12.5,
      "v": 32
    },
    {
      "midi": 79,
      "hit": false,
      "t": 51600,
      "d": 125,
      "v": 78
    },
    {
      "midi": 79,
      "hit": false,
      "t": 51900,
      "d": 125,
      "v": 69
    },
    {
      "midi": 58,
      "hit": false,
      "t": 51900,
      "d": 250,
      "v": 48
    },
    {
      "midi": 39,
      "hit": false,
      "t": 52050,
      "d": 268.75,
      "v": 40
    },
    {
      "midi": 79,
      "hit": false,
      "t": 52200,
      "d": 121.875,
      "v": 46
    },
    {
      "midi": 63,
      "hit": false,
      "t": 52200,
      "d": 181.25,
      "v": 32
    },
    {
      "midi": 82,
      "hit": false,
      "t": 52500,
      "d": 81.25,
      "v": 61
    },
    {
      "midi": 58,
      "hit": false,
      "t": 52500,
      "d": 125,
      "v": 32
    },
    {
      "midi": 60,
      "hit": false,
      "t": 52800,
      "d": 331.25,
      "v": 55
    },
    {
      "midi": 38,
      "hit": false,
      "t": 52800,
      "d": 1387.5,
      "v": 49
    },
    {
      "midi": 50,
      "hit": false,
      "t": 52800,
      "d": 2087.5,
      "v": 32
    },
    {
      "midi": 77,
      "hit": false,
      "t": 52800,
      "d": 2156.25,
      "v": 69
    },
    {
      "midi": 58,
      "hit": false,
      "t": 53100,
      "d": 281.25,
      "v": 32
    },
    {
      "midi": 60,
      "hit": false,
      "t": 53400,
      "d": 237.5,
      "v": 32
    },
    {
      "midi": 58,
      "hit": false,
      "t": 53700,
      "d": 318.75,
      "v": 46
    },
    {
      "midi": 58,
      "hit": false,
      "t": 54300,
      "d": 275,
      "v": 49
    },
    {
      "midi": 38,
      "hit": false,
      "t": 54600,
      "d": 193.75,
      "v": 43
    },
    {
      "midi": 58,
      "hit": false,
      "t": 54900,
      "d": 112.5,
      "v": 42
    },
    {
      "midi": 36,
      "hit": false,
      "t": 55200,
      "d": 2075,
      "v": 66
    },
    {
      "midi": 55,
      "hit": false,
      "t": 55500,
      "d": 150,
      "v": 50
    },
    {
      "midi": 76,
      "hit": false,
      "t": 55800,
      "d": 137.5,
      "v": 61
    },
    {
      "midi": 67,
      "hit": false,
      "t": 55800,
      "d": 250,
      "v": 52
    },
    {
      "midi": 60,
      "hit": false,
      "t": 55800,
      "d": 281.25,
      "v": 63
    },
    {
      "midi": 48,
      "hit": false,
      "t": 55800,
      "d": 1778.125,
      "v": 48
    },
    {
      "midi": 76,
      "hit": false,
      "t": 56100,
      "d": 128.125,
      "v": 69
    },
    {
      "midi": 60,
      "hit": false,
      "t": 56400,
      "d": 93.75,
      "v": 32
    },
    {
      "midi": 76,
      "hit": false,
      "t": 56400,
      "d": 237.5,
      "v": 61
    },
    {
      "midi": 67,
      "hit": false,
      "t": 56400,
      "d": 1184.375,
      "v": 36
    },
    {
      "midi": 82,
      "hit": false,
      "t": 56700,
      "d": 225,
      "v": 54
    },
    {
      "midi": 76,
      "hit": false,
      "t": 57000,
      "d": 243.75,
      "v": 61
    },
    {
      "midi": 60,
      "hit": false,
      "t": 57000,
      "d": 593.75,
      "v": 58
    },
    {
      "midi": 75,
      "hit": false,
      "t": 57300,
      "d": 296.875,
      "v": 61
    },
    {
      "midi": 75,
      "hit": false,
      "t": 57600,
      "d": 278.125,
      "v": 41
    },
    {
      "midi": 63,
      "hit": false,
      "t": 57600,
      "d": 375,
      "v": 40
    },
    {
      "midi": 67,
      "hit": false,
      "t": 57600,
      "d": 643.75,
      "v": 53
    },
    {
      "midi": 58,
      "hit": false,
      "t": 57900,
      "d": 781.25,
      "v": 44
    },
    {
      "midi": 63,
      "hit": false,
      "t": 58200,
      "d": 668.75,
      "v": 61
    },
    {
      "midi": 67,
      "hit": false,
      "t": 58500,
      "d": 362.5,
      "v": 62
    },
    {
      "midi": 77,
      "hit": false,
      "t": 58800,
      "d": 593.75,
      "v": 50
    },
    {
      "midi": 60,
      "hit": false,
      "t": 58800,
      "d": 1021.875,
      "v": 55
    },
    {
      "midi": 65,
      "hit": false,
      "t": 58800,
      "d": 1040.625,
      "v": 66
    },
    {
      "midi": 69,
      "hit": false,
      "t": 58800,
      "d": 1046.875,
      "v": 66
    },
    {
      "midi": 75,
      "hit": false,
      "t": 59400,
      "d": 518.75,
      "v": 52
    },
    {
      "midi": 58,
      "hit": false,
      "t": 60000,
      "d": 618.75,
      "v": 50
    },
    {
      "midi": 67,
      "hit": false,
      "t": 60000,
      "d": 625,
      "v": 58
    },
    {
      "midi": 63,
      "hit": false,
      "t": 60000,
      "d": 656.25,
      "v": 50
    },
    {
      "midi": 39,
      "hit": false,
      "t": 60000,
      "d": 2375,
      "v": 50
    },
    {
      "midi": 58,
      "hit": false,
      "t": 61200,
      "d": 562.5,
      "v": 47
    },
    {
      "midi": 63,
      "hit": false,
      "t": 61200,
      "d": 1187.5,
      "v": 51
    },
    {
      "midi": 67,
      "hit": false,
      "t": 61200,
      "d": 1187.5,
      "v": 66
    },
    {
      "midi": 58,
      "hit": false,
      "t": 61800,
      "d": 137.5,
      "v": 51
    },
    {
      "midi": 70,
      "hit": false,
      "t": 62400,
      "d": 587.5,
      "v": 56
    },
    {
      "midi": 58,
      "hit": false,
      "t": 62400,
      "d": 631.25,
      "v": 49
    },
    {
      "midi": 65,
      "hit": false,
      "t": 62400,
      "d": 637.5,
      "v": 66
    },
    {
      "midi": 38,
      "hit": false,
      "t": 62400,
      "d": 2375,
      "v": 53
    },
    {
      "midi": 58,
      "hit": false,
      "t": 63600,
      "d": 500,
      "v": 41
    },
    {
      "midi": 65,
      "hit": false,
      "t": 63600,
      "d": 837.5,
      "v": 64
    },
    {
      "midi": 70,
      "hit": false,
      "t": 63600,
      "d": 850,
      "v": 58
    },
    {
      "midi": 58,
      "hit": false,
      "t": 64200,
      "d": 550,
      "v": 40
    },
    {
      "midi": 70,
      "hit": false,
      "t": 64800,
      "d": 312.5,
      "v": 45
    },
    {
      "midi": 60,
      "hit": false,
      "t": 64800,
      "d": 362.5,
      "v": 53
    },
    {
      "midi": 65,
      "hit": false,
      "t": 64800,
      "d": 600,
      "v": 61
    },
    {
      "midi": 41,
      "hit": false,
      "t": 64800,
      "d": 2375,
      "v": 56
    },
    {
      "midi": 53,
      "hit": false,
      "t": 64800,
      "d": 2456.25,
      "v": 49
    },
    {
      "midi": 60,
      "hit": false,
      "t": 65250,
      "d": 125,
      "v": 17
    },
    {
      "midi": 60,
      "hit": false,
      "t": 66000,
      "d": 500,
      "v": 42
    },
    {
      "midi": 65,
      "hit": false,
      "t": 66000,
      "d": 606.25,
      "v": 63
    },
    {
      "midi": 70,
      "hit": false,
      "t": 66000,
      "d": 631.25,
      "v": 59
    },
    {
      "midi": 60,
      "hit": false,
      "t": 66600,
      "d": 500,
      "v": 30
    },
    {
      "midi": 60,
      "hit": false,
      "t": 67200,
      "d": 381.25,
      "v": 42
    },
    {
      "midi": 41,
      "hit": false,
      "t": 67200,
      "d": 562.5,
      "v": 43
    },
    {
      "midi": 69,
      "hit": false,
      "t": 67200,
      "d": 587.5,
      "v": 58
    },
    {
      "midi": 65,
      "hit": false,
      "t": 67200,
      "d": 600,
      "v": 63
    },
    {
      "midi": 60,
      "hit": false,
      "t": 67800,
      "d": 93.75,
      "v": 24
    },
    {
      "midi": 65,
      "hit": false,
      "t": 68400,
      "d": 318.75,
      "v": 76
    },
    {
      "midi": 38,
      "hit": false,
      "t": 68400,
      "d": 706.25,
      "v": 81
    },
    {
      "midi": 50,
      "hit": false,
      "t": 68400,
      "d": 706.25,
      "v": 76
    },
    {
      "midi": 58,
      "hit": false,
      "t": 68400,
      "d": 750,
      "v": 67
    },
    {
      "midi": 70,
      "hit": false,
      "t": 68400,
      "d": 800,
      "v": 81
    },
    {
      "midi": 58,
      "hit": false,
      "t": 69600,
      "d": 500,
      "v": 83
    },
    {
      "midi": 67,
      "hit": false,
      "t": 69600,
      "d": 612.5,
      "v": 88
    },
    {
      "midi": 63,
      "hit": false,
      "t": 69600,
      "d": 1196.875,
      "v": 69
    },
    {
      "midi": 39,
      "hit": false,
      "t": 69600,
      "d": 2006.25,
      "v": 83
    },
    {
      "midi": 58,
      "hit": false,
      "t": 70800,
      "d": 256.25,
      "v": 68
    },
    {
      "midi": 67,
      "hit": false,
      "t": 70800,
      "d": 668.75,
      "v": 84
    },
    {
      "midi": 63,
      "hit": false,
      "t": 70800,
      "d": 775,
      "v": 72
    },
    {
      "midi": 58,
      "hit": false,
      "t": 71400,
      "d": 150,
      "v": 50
    },
    {
      "midi": 65,
      "hit": false,
      "t": 72000,
      "d": 650,
      "v": 77
    },
    {
      "midi": 70,
      "hit": false,
      "t": 72000,
      "d": 662.5,
      "v": 77
    },
    {
      "midi": 58,
      "hit": false,
      "t": 72000,
      "d": 700,
      "v": 68
    },
    {
      "midi": 50,
      "hit": false,
      "t": 72000,
      "d": 1481.25,
      "v": 79
    },
    {
      "midi": 58,
      "hit": false,
      "t": 73200,
      "d": 275,
      "v": 49
    },
    {
      "midi": 65,
      "hit": false,
      "t": 73200,
      "d": 878.125,
      "v": 89
    },
    {
      "midi": 70,
      "hit": false,
      "t": 73200,
      "d": 884.375,
      "v": 67
    },
    {
      "midi": 58,
      "hit": false,
      "t": 73800,
      "d": 368.75,
      "v": 52
    },
    {
      "midi": 65,
      "hit": false,
      "t": 74400,
      "d": 625,
      "v": 81
    },
    {
      "midi": 70,
      "hit": false,
      "t": 74400,
      "d": 712.5,
      "v": 86
    },
    {
      "midi": 41,
      "hit": false,
      "t": 74400,
      "d": 1056.25,
      "v": 77
    },
    {
      "midi": 60,
      "hit": false,
      "t": 75000,
      "d": 550,
      "v": 73
    },
    {
      "midi": 65,
      "hit": false,
      "t": 75600,
      "d": 587.5,
      "v": 86
    },
    {
      "midi": 70,
      "hit": false,
      "t": 75600,
      "d": 662.5,
      "v": 78
    },
    {
      "midi": 60,
      "hit": false,
      "t": 76200,
      "d": 106.25,
      "v": 53
    },
    {
      "midi": 53,
      "hit": false,
      "t": 76200,
      "d": 228.125,
      "v": 40
    },
    {
      "midi": 48,
      "hit": false,
      "t": 76500,
      "d": 137.5,
      "v": 50
    },
    {
      "midi": 60,
      "hit": false,
      "t": 76500,
      "d": 618.75,
      "v": 73
    },
    {
      "midi": 69,
      "hit": false,
      "t": 76500,
      "d": 825,
      "v": 89
    },
    {
      "midi": 65,
      "hit": false,
      "t": 76500,
      "d": 931.25,
      "v": 82
    },
    {
      "midi": 41,
      "hit": false,
      "t": 76800,
      "d": 2000,
      "v": 86
    },
    {
      "midi": 60,
      "hit": false,
      "t": 77400,
      "d": 131.25,
      "v": 48
    },
    {
      "midi": 57,
      "hit": false,
      "t": 78000,
      "d": 293.75,
      "v": 77
    },
    {
      "midi": 69,
      "hit": false,
      "t": 78000,
      "d": 493.75,
      "v": 86
    },
    {
      "midi": 65,
      "hit": false,
      "t": 78000,
      "d": 593.75,
      "v": 82
    },
    {
      "midi": 63,
      "hit": false,
      "t": 78300,
      "d": 293.75,
      "v": 73
    },
    {
      "midi": 67,
      "hit": false,
      "t": 78300,
      "d": 293.75,
      "v": 84
    },
    {
      "midi": 62,
      "hit": false,
      "t": 78600,
      "d": 293.75,
      "v": 84
    },
    {
      "midi": 65,
      "hit": false,
      "t": 78600,
      "d": 293.75,
      "v": 78
    },
    {
      "midi": 67,
      "hit": false,
      "t": 78900,
      "d": 1706.25,
      "v": 78
    },
    {
      "midi": 63,
      "hit": false,
      "t": 78900,
      "d": 1868.75,
      "v": 75
    },
    {
      "midi": 48,
      "hit": false,
      "t": 79200,
      "d": 1781.25,
      "v": 71
    },
    {
      "midi": 58,
      "hit": false,
      "t": 81000,
      "d": 368.75,
      "v": 59
    },
    {
      "midi": 65,
      "hit": false,
      "t": 81000,
      "d": 562.5,
      "v": 76
    },
    {
      "midi": 50,
      "hit": false,
      "t": 81000,
      "d": 581.25,
      "v": 60
    },
    {
      "midi": 58,
      "hit": false,
      "t": 81600,
      "d": 562.5,
      "v": 60
    },
    {
      "midi": 63,
      "hit": false,
      "t": 81600,
      "d": 562.5,
      "v": 65
    },
    {
      "midi": 67,
      "hit": false,
      "t": 81600,
      "d": 893.75,
      "v": 75
    },
    {
      "midi": 58,
      "hit": false,
      "t": 82800,
      "d": 40.625,
      "v": 48
    },
    {
      "midi": 63,
      "hit": false,
      "t": 82800,
      "d": 100,
      "v": 39
    },
    {
      "midi": 63,
      "hit": false,
      "t": 84000,
      "d": 518.75,
      "v": 63
    },
    {
      "midi": 67,
      "hit": false,
      "t": 84000,
      "d": 1406.25,
      "v": 68
    },
    {
      "midi": 48,
      "hit": false,
      "t": 84000,
      "d": 1781.25,
      "v": 81
    },
    {
      "midi": 60,
      "hit": false,
      "t": 84000,
      "d": 1781.25,
      "v": 59
    },
    {
      "midi": 58,
      "hit": false,
      "t": 85800,
      "d": 368.75,
      "v": 69
    },
    {
      "midi": 65,
      "hit": false,
      "t": 85800,
      "d": 562.5,
      "v": 86
    },
    {
      "midi": 50,
      "hit": false,
      "t": 85800,
      "d": 581.25,
      "v": 70
    },
    {
      "midi": 58,
      "hit": false,
      "t": 86400,
      "d": 562.5,
      "v": 70
    },
    {
      "midi": 63,
      "hit": false,
      "t": 86400,
      "d": 562.5,
      "v": 75
    },
    {
      "midi": 67,
      "hit": false,
      "t": 86400,
      "d": 893.75,
      "v": 85
    },
    {
      "midi": 51,
      "hit": false,
      "t": 86400,
      "d": 1212.5,
      "v": 88
    },
    {
      "midi": 63,
      "hit": false,
      "t": 87600,
      "d": 100,
      "v": 49
    },
    {
      "midi": 58,
      "hit": false,
      "t": 87600,
      "d": 187.5,
      "v": 58
    },
    {
      "midi": 67,
      "hit": false,
      "t": 87600,
      "d": 1100,
      "v": 65
    },
    {
      "midi": 67,
      "hit": false,
      "t": 88800,
      "d": 653.125,
      "v": 57
    },
    {
      "midi": 60,
      "hit": false,
      "t": 88800,
      "d": 706.25,
      "v": 62
    },
    {
      "midi": 63,
      "hit": false,
      "t": 88800,
      "d": 712.5,
      "v": 57
    },
    {
      "midi": 48,
      "hit": false,
      "t": 88800,
      "d": 2356.25,
      "v": 73
    },
    {
      "midi": 60,
      "hit": false,
      "t": 90000,
      "d": 268.75,
      "v": 55
    },
    {
      "midi": 67,
      "hit": false,
      "t": 90000,
      "d": 631.25,
      "v": 57
    },
    {
      "midi": 63,
      "hit": false,
      "t": 90000,
      "d": 650,
      "v": 59
    },
    {
      "midi": 60,
      "hit": false,
      "t": 90600,
      "d": 100,
      "v": 42
    },
    {
      "midi": 65,
      "hit": false,
      "t": 90900,
      "d": 618.75,
      "v": 73
    },
    {
      "midi": 60,
      "hit": false,
      "t": 90900,
      "d": 637.5,
      "v": 43
    },
    {
      "midi": 70,
      "hit": false,
      "t": 90900,
      "d": 637.5,
      "v": 76
    },
    {
      "midi": 41,
      "hit": false,
      "t": 91200,
      "d": 1875,
      "v": 68
    },
    {
      "midi": 60,
      "hit": false,
      "t": 91800,
      "d": 425,
      "v": 60
    },
    {
      "midi": 65,
      "hit": false,
      "t": 91800,
      "d": 481.25,
      "v": 65
    },
    {
      "midi": 60,
      "hit": false,
      "t": 92400,
      "d": 168.75,
      "v": 53
    },
    {
      "midi": 65,
      "hit": false,
      "t": 92400,
      "d": 312.5,
      "v": 48
    },
    {
      "midi": 67,
      "hit": false,
      "t": 92400,
      "d": 500,
      "v": 70
    },
    {
      "midi": 60,
      "hit": false,
      "t": 92700,
      "d": 118.75,
      "v": 48
    },
    {
      "midi": 60,
      "hit": false,
      "t": 93000,
      "d": 93.75,
      "v": 54
    },
    {
      "midi": 69,
      "hit": false,
      "t": 93000,
      "d": 131.25,
      "v": 78
    },
    {
      "midi": 65,
      "hit": false,
      "t": 93000,
      "d": 143.75,
      "v": 55
    },
    {
      "midi": 70,
      "hit": false,
      "t": 93300,
      "d": 393.75,
      "v": 79
    },
    {
      "midi": 62,
      "hit": false,
      "t": 93300,
      "d": 1600,
      "v": 77
    },
    {
      "midi": 65,
      "hit": false,
      "t": 93300,
      "d": 1712.5,
      "v": 79
    },
    {
      "midi": 46,
      "hit": false,
      "t": 93600,
      "d": 1668.75,
      "v": 65
    },
    {
      "midi": 63,
      "hit": false,
      "t": 95400,
      "d": 343.75,
      "v": 77
    },
    {
      "midi": 58,
      "hit": false,
      "t": 95400,
      "d": 406.25,
      "v": 79
    },
    {
      "midi": 67,
      "hit": false,
      "t": 95400,
      "d": 406.25,
      "v": 80
    },
    {
      "midi": 53,
      "hit": false,
      "t": 95400,
      "d": 437.5,
      "v": 76
    },
    {
      "midi": 58,
      "hit": false,
      "t": 96000,
      "d": 2250,
      "v": 68
    },
    {
      "midi": 46,
      "hit": false,
      "t": 96000,
      "d": 2262.5,
      "v": 52
    },
    {
      "midi": 65,
      "hit": false,
      "t": 96000,
      "d": 2262.5,
      "v": 89
    },
    {
      "midi": 62,
      "hit": false,
      "t": 96000,
      "d": 2268.75,
      "v": 87
    },
    {
      "midi": 63,
      "hit": false,
      "t": 98400,
      "d": 518.75,
      "v": 53
    },
    {
      "midi": 67,
      "hit": false,
      "t": 98400,
      "d": 1403.125,
      "v": 58
    },
    {
      "midi": 48,
      "hit": false,
      "t": 98400,
      "d": 1781.25,
      "v": 71
    },
    {
      "midi": 60,
      "hit": false,
      "t": 98400,
      "d": 1781.25,
      "v": 49
    },
    {
      "midi": 58,
      "hit": false,
      "t": 100200,
      "d": 368.75,
      "v": 59
    },
    {
      "midi": 65,
      "hit": false,
      "t": 100200,
      "d": 562.5,
      "v": 76
    },
    {
      "midi": 50,
      "hit": false,
      "t": 100200,
      "d": 581.25,
      "v": 60
    },
    {
      "midi": 58,
      "hit": false,
      "t": 100800,
      "d": 559.375,
      "v": 60
    },
    {
      "midi": 63,
      "hit": false,
      "t": 100800,
      "d": 559.375,
      "v": 65
    },
    {
      "midi": 67,
      "hit": false,
      "t": 100800,
      "d": 893.75,
      "v": 75
    },
    {
      "midi": 51,
      "hit": false,
      "t": 100800,
      "d": 1212.5,
      "v": 78
    },
    {
      "midi": 58,
      "hit": false,
      "t": 102000,
      "d": 43.75,
      "v": 48
    },
    {
      "midi": 63,
      "hit": false,
      "t": 102000,
      "d": 100,
      "v": 39
    },
    {
      "midi": 63,
      "hit": false,
      "t": 103200,
      "d": 518.75,
      "v": 63
    },
    {
      "midi": 67,
      "hit": false,
      "t": 103200,
      "d": 1406.25,
      "v": 68
    },
    {
      "midi": 48,
      "hit": false,
      "t": 103200,
      "d": 1781.25,
      "v": 81
    },
    {
      "midi": 60,
      "hit": false,
      "t": 103200,
      "d": 1781.25,
      "v": 59
    },
    {
      "midi": 58,
      "hit": false,
      "t": 105000,
      "d": 368.75,
      "v": 69
    },
    {
      "midi": 65,
      "hit": false,
      "t": 105000,
      "d": 562.5,
      "v": 86
    },
    {
      "midi": 50,
      "hit": false,
      "t": 105000,
      "d": 581.25,
      "v": 70
    },
    {
      "midi": 58,
      "hit": false,
      "t": 105600,
      "d": 562.5,
      "v": 70
    },
    {
      "midi": 63,
      "hit": false,
      "t": 105600,
      "d": 562.5,
      "v": 75
    },
    {
      "midi": 67,
      "hit": false,
      "t": 105600,
      "d": 893.75,
      "v": 85
    },
    {
      "midi": 51,
      "hit": false,
      "t": 105600,
      "d": 1212.5,
      "v": 88
    },
    {
      "midi": 63,
      "hit": false,
      "t": 106800,
      "d": 100,
      "v": 49
    },
    {
      "midi": 58,
      "hit": false,
      "t": 106800,
      "d": 187.5,
      "v": 58
    },
    {
      "midi": 67,
      "hit": false,
      "t": 106800,
      "d": 1100,
      "v": 65
    },
    {
      "midi": 67,
      "hit": false,
      "t": 108000,
      "d": 656.25,
      "v": 57
    },
    {
      "midi": 60,
      "hit": false,
      "t": 108000,
      "d": 706.25,
      "v": 62
    },
    {
      "midi": 63,
      "hit": false,
      "t": 108000,
      "d": 712.5,
      "v": 57
    },
    {
      "midi": 48,
      "hit": false,
      "t": 108000,
      "d": 2356.25,
      "v": 73
    },
    {
      "midi": 60,
      "hit": false,
      "t": 109200,
      "d": 265.625,
      "v": 55
    },
    {
      "midi": 67,
      "hit": false,
      "t": 109200,
      "d": 631.25,
      "v": 57
    },
    {
      "midi": 63,
      "hit": false,
      "t": 109200,
      "d": 646.875,
      "v": 59
    },
    {
      "midi": 60,
      "hit": false,
      "t": 109800,
      "d": 100,
      "v": 42
    },
    {
      "midi": 65,
      "hit": false,
      "t": 110100,
      "d": 618.75,
      "v": 73
    },
    {
      "midi": 60,
      "hit": false,
      "t": 110100,
      "d": 637.5,
      "v": 43
    },
    {
      "midi": 70,
      "hit": false,
      "t": 110100,
      "d": 637.5,
      "v": 76
    },
    {
      "midi": 41,
      "hit": false,
      "t": 110400,
      "d": 1875,
      "v": 68
    },
    {
      "midi": 60,
      "hit": false,
      "t": 111000,
      "d": 425,
      "v": 47
    },
    {
      "midi": 69,
      "hit": false,
      "t": 111000,
      "d": 475,
      "v": 60
    },
    {
      "midi": 65,
      "hit": false,
      "t": 111000,
      "d": 481.25,
      "v": 60
    },
    {
      "midi": 60,
      "hit": false,
      "t": 111600,
      "d": 168.75,
      "v": 53
    },
    {
      "midi": 65,
      "hit": false,
      "t": 111600,
      "d": 312.5,
      "v": 48
    },
    {
      "midi": 67,
      "hit": false,
      "t": 111600,
      "d": 500,
      "v": 70
    },
    {
      "midi": 60,
      "hit": false,
      "t": 111900,
      "d": 118.75,
      "v": 48
    },
    {
      "midi": 60,
      "hit": false,
      "t": 112200,
      "d": 93.75,
      "v": 54
    },
    {
      "midi": 69,
      "hit": false,
      "t": 112200,
      "d": 131.25,
      "v": 78
    },
    {
      "midi": 65,
      "hit": false,
      "t": 112200,
      "d": 143.75,
      "v": 55
    },
    {
      "midi": 46,
      "hit": false,
      "t": 112800,
      "d": 1734.375,
      "v": 52
    },
    {
      "midi": 53,
      "hit": false,
      "t": 113100,
      "d": 2025,
      "v": 48
    },
    {
      "midi": 86,
      "hit": false,
      "t": 113400,
      "d": 125,
      "v": 71
    },
    {
      "midi": 58,
      "hit": false,
      "t": 113400,
      "d": 1050,
      "v": 36
    },
    {
      "midi": 86,
      "hit": false,
      "t": 113700,
      "d": 134.375,
      "v": 76
    },
    {
      "midi": 62,
      "hit": false,
      "t": 113700,
      "d": 318.75,
      "v": 51
    },
    {
      "midi": 86,
      "hit": false,
      "t": 114000,
      "d": 137.5,
      "v": 71
    },
    {
      "midi": 65,
      "hit": false,
      "t": 114000,
      "d": 293.75,
      "v": 36
    },
    {
      "midi": 86,
      "hit": false,
      "t": 114300,
      "d": 131.25,
      "v": 82
    },
    {
      "midi": 62,
      "hit": false,
      "t": 114300,
      "d": 275,
      "v": 43
    },
    {
      "midi": 86,
      "hit": false,
      "t": 114600,
      "d": 131.25,
      "v": 79
    },
    {
      "midi": 65,
      "hit": false,
      "t": 114600,
      "d": 434.375,
      "v": 42
    },
    {
      "midi": 70,
      "hit": false,
      "t": 114600,
      "d": 462.5,
      "v": 43
    },
    {
      "midi": 89,
      "hit": false,
      "t": 114900,
      "d": 125,
      "v": 86
    },
    {
      "midi": 62,
      "hit": false,
      "t": 114900,
      "d": 262.5,
      "v": 56
    },
    {
      "midi": 84,
      "hit": false,
      "t": 115200,
      "d": 1200,
      "v": 82
    },
    {
      "midi": 45,
      "hit": false,
      "t": 115200,
      "d": 1618.75,
      "v": 45
    },
    {
      "midi": 53,
      "hit": false,
      "t": 115500,
      "d": 1443.75,
      "v": 56
    },
    {
      "midi": 57,
      "hit": false,
      "t": 115800,
      "d": 981.25,
      "v": 52
    },
    {
      "midi": 60,
      "hit": false,
      "t": 116100,
      "d": 75,
      "v": 35
    },
    {
      "midi": 65,
      "hit": false,
      "t": 116100,
      "d": 631.25,
      "v": 32
    },
    {
      "midi": 60,
      "hit": false,
      "t": 116700,
      "d": 275,
      "v": 43
    },
    {
      "midi": 65,
      "hit": false,
      "t": 117000,
      "d": 328.125,
      "v": 45
    },
    {
      "midi": 60,
      "hit": false,
      "t": 117300,
      "d": 40.625,
      "v": 32
    },
    {
      "midi": 43,
      "hit": false,
      "t": 117600,
      "d": 1850,
      "v": 55
    },
    {
      "midi": 50,
      "hit": false,
      "t": 117900,
      "d": 1681.25,
      "v": 52
    },
    {
      "midi": 82,
      "hit": false,
      "t": 118200,
      "d": 125,
      "v": 77
    },
    {
      "midi": 58,
      "hit": false,
      "t": 118200,
      "d": 206.25,
      "v": 43
    },
    {
      "midi": 55,
      "hit": false,
      "t": 118200,
      "d": 1115.625,
      "v": 51
    },
    {
      "midi": 82,
      "hit": false,
      "t": 118500,
      "d": 118.75,
      "v": 64
    },
    {
      "midi": 62,
      "hit": false,
      "t": 118500,
      "d": 300,
      "v": 58
    },
    {
      "midi": 82,
      "hit": false,
      "t": 118800,
      "d": 118.75,
      "v": 71
    },
    {
      "midi": 58,
      "hit": false,
      "t": 118800,
      "d": 250,
      "v": 32
    },
    {
      "midi": 82,
      "hit": false,
      "t": 119100,
      "d": 125,
      "v": 71
    },
    {
      "midi": 62,
      "hit": false,
      "t": 119100,
      "d": 293.75,
      "v": 47
    },
    {
      "midi": 67,
      "hit": false,
      "t": 119100,
      "d": 450,
      "v": 32
    },
    {
      "midi": 82,
      "hit": false,
      "t": 119400,
      "d": 118.75,
      "v": 74
    },
    {
      "midi": 58,
      "hit": false,
      "t": 119400,
      "d": 375,
      "v": 42
    },
    {
      "midi": 62,
      "hit": false,
      "t": 119700,
      "d": 75,
      "v": 50
    },
    {
      "midi": 86,
      "hit": false,
      "t": 119700,
      "d": 90.625,
      "v": 82
    },
    {
      "midi": 42,
      "hit": false,
      "t": 120000,
      "d": 1131.25,
      "v": 56
    },
    {
      "midi": 81,
      "hit": false,
      "t": 120000,
      "d": 2162.5,
      "v": 79
    },
    {
      "midi": 54,
      "hit": false,
      "t": 120300,
      "d": 1700,
      "v": 48
    },
    {
      "midi": 57,
      "hit": false,
      "t": 120600,
      "d": 275,
      "v": 56
    },
    {
      "midi": 62,
      "hit": false,
      "t": 120900,
      "d": 775,
      "v": 51
    },
    {
      "midi": 57,
      "hit": false,
      "t": 121500,
      "d": 262.5,
      "v": 41
    },
    {
      "midi": 62,
      "hit": false,
      "t": 121800,
      "d": 268.75,
      "v": 37
    },
    {
      "midi": 57,
      "hit": false,
      "t": 122100,
      "d": 118.75,
      "v": 49
    },
    {
      "midi": 63,
      "hit": false,
      "t": 122400,
      "d": 256.25,
      "v": 32
    },
    {
      "midi": 39,
      "hit": false,
      "t": 122400,
      "d": 1031.25,
      "v": 61
    },
    {
      "midi": 58,
      "hit": false,
      "t": 122700,
      "d": 206.25,
      "v": 32
    },
    {
      "midi": 79,
      "hit": false,
      "t": 123000,
      "d": 87.5,
      "v": 56
    },
    {
      "midi": 63,
      "hit": false,
      "t": 123000,
      "d": 281.25,
      "v": 57
    },
    {
      "midi": 79,
      "hit": false,
      "t": 123300,
      "d": 137.5,
      "v": 77
    },
    {
      "midi": 58,
      "hit": false,
      "t": 123300,
      "d": 412.5,
      "v": 40
    },
    {
      "midi": 51,
      "hit": false,
      "t": 123300,
      "d": 1168.75,
      "v": 44
    },
    {
      "midi": 63,
      "hit": false,
      "t": 123600,
      "d": 12.5,
      "v": 32
    },
    {
      "midi": 79,
      "hit": false,
      "t": 123600,
      "d": 125,
      "v": 88
    },
    {
      "midi": 79,
      "hit": false,
      "t": 123900,
      "d": 125,
      "v": 79
    },
    {
      "midi": 58,
      "hit": false,
      "t": 123900,
      "d": 250,
      "v": 48
    },
    {
      "midi": 39,
      "hit": false,
      "t": 124050,
      "d": 268.75,
      "v": 40
    },
    {
      "midi": 79,
      "hit": false,
      "t": 124200,
      "d": 125,
      "v": 56
    },
    {
      "midi": 63,
      "hit": false,
      "t": 124200,
      "d": 181.25,
      "v": 32
    },
    {
      "midi": 82,
      "hit": false,
      "t": 124500,
      "d": 81.25,
      "v": 77
    },
    {
      "midi": 58,
      "hit": false,
      "t": 124500,
      "d": 125,
      "v": 32
    },
    {
      "midi": 60,
      "hit": false,
      "t": 124800,
      "d": 331.25,
      "v": 55
    },
    {
      "midi": 38,
      "hit": false,
      "t": 124800,
      "d": 1387.5,
      "v": 49
    },
    {
      "midi": 50,
      "hit": false,
      "t": 124800,
      "d": 2087.5,
      "v": 32
    },
    {
      "midi": 77,
      "hit": false,
      "t": 124800,
      "d": 2156.25,
      "v": 79
    },
    {
      "midi": 58,
      "hit": false,
      "t": 125100,
      "d": 281.25,
      "v": 32
    },
    {
      "midi": 60,
      "hit": false,
      "t": 125400,
      "d": 237.5,
      "v": 32
    },
    {
      "midi": 58,
      "hit": false,
      "t": 125700,
      "d": 318.75,
      "v": 46
    },
    {
      "midi": 58,
      "hit": false,
      "t": 126300,
      "d": 275,
      "v": 49
    },
    {
      "midi": 38,
      "hit": false,
      "t": 126600,
      "d": 190.625,
      "v": 43
    },
    {
      "midi": 58,
      "hit": false,
      "t": 126900,
      "d": 112.5,
      "v": 42
    },
    {
      "midi": 36,
      "hit": false,
      "t": 127200,
      "d": 2075,
      "v": 66
    },
    {
      "midi": 55,
      "hit": false,
      "t": 127500,
      "d": 150,
      "v": 50
    },
    {
      "midi": 76,
      "hit": false,
      "t": 127800,
      "d": 137.5,
      "v": 71
    },
    {
      "midi": 67,
      "hit": false,
      "t": 127800,
      "d": 250,
      "v": 52
    },
    {
      "midi": 60,
      "hit": false,
      "t": 127800,
      "d": 281.25,
      "v": 63
    },
    {
      "midi": 48,
      "hit": false,
      "t": 127800,
      "d": 1781.25,
      "v": 48
    },
    {
      "midi": 76,
      "hit": false,
      "t": 128100,
      "d": 131.25,
      "v": 79
    },
    {
      "midi": 60,
      "hit": false,
      "t": 128400,
      "d": 93.75,
      "v": 32
    },
    {
      "midi": 76,
      "hit": false,
      "t": 128400,
      "d": 237.5,
      "v": 71
    },
    {
      "midi": 67,
      "hit": false,
      "t": 128400,
      "d": 1187.5,
      "v": 36
    },
    {
      "midi": 82,
      "hit": false,
      "t": 128700,
      "d": 887.5,
      "v": 64
    },
    {
      "midi": 76,
      "hit": false,
      "t": 129000,
      "d": 243.75,
      "v": 71
    },
    {
      "midi": 60,
      "hit": false,
      "t": 129000,
      "d": 593.75,
      "v": 58
    },
    {
      "midi": 75,
      "hit": false,
      "t": 129300,
      "d": 296.875,
      "v": 71
    },
    {
      "midi": 67,
      "hit": false,
      "t": 129600,
      "d": 275,
      "v": 62
    },
    {
      "midi": 75,
      "hit": false,
      "t": 129600,
      "d": 281.25,
      "v": 51
    },
    {
      "midi": 58,
      "hit": false,
      "t": 129600,
      "d": 475,
      "v": 54
    },
    {
      "midi": 41,
      "hit": false,
      "t": 129600,
      "d": 993.75,
      "v": 52
    },
    {
      "midi": 63,
      "hit": false,
      "t": 130200,
      "d": 296.875,
      "v": 32
    },
    {
      "midi": 63,
      "hit": false,
      "t": 130500,
      "d": 168.75,
      "v": 49
    },
    {
      "midi": 58,
      "hit": false,
      "t": 130500,
      "d": 250,
      "v": 38
    },
    {
      "midi": 67,
      "hit": false,
      "t": 130500,
      "d": 281.25,
      "v": 52
    },
    {
      "midi": 77,
      "hit": false,
      "t": 130796.875,
      "d": 593.75,
      "v": 60
    },
    {
      "midi": 69,
      "hit": false,
      "t": 130796.875,
      "d": 1153.125,
      "v": 56
    },
    {
      "midi": 60,
      "hit": false,
      "t": 130796.875,
      "d": 1159.375,
      "v": 56
    },
    {
      "midi": 65,
      "hit": false,
      "t": 130796.875,
      "d": 1162.5,
      "v": 56
    },
    {
      "midi": 75,
      "hit": false,
      "t": 131400,
      "d": 600,
      "v": 56
    },
    {
      "midi": 65,
      "hit": false,
      "t": 135600,
      "d": 1150,
      "v": 86
    },
    {
      "midi": 72,
      "hit": false,
      "t": 135606.25,
      "d": 1118.75,
      "v": 88
    },
    {
      "midi": 69,
      "hit": false,
      "t": 135606.25,
      "d": 1137.5,
      "v": 79
    },
    {
      "midi": 67,
      "hit": false,
      "t": 135612.5,
      "d": 1131.25,
      "v": 91
    },
    {
      "midi": 76,
      "hit": false,
      "t": 136840.625,
      "d": 518.75,
      "v": 90
    },
    {
      "midi": 72,
      "hit": false,
      "t": 136840.625,
      "d": 562.5,
      "v": 100
    },
    {
      "midi": 67,
      "hit": false,
      "t": 136846.875,
      "d": 462.5,
      "v": 100
    },
    {
      "midi": 79,
      "hit": false,
      "t": 138003.125,
      "d": 571.875,
      "v": 90
    },
    {
      "midi": 72,
      "hit": false,
      "t": 138006.25,
      "d": 768.75,
      "v": 95
    },
    {
      "midi": 76,
      "hit": false,
      "t": 138006.25,
      "d": 775,
      "v": 75
    },
    {
      "midi": 67,
      "hit": false,
      "t": 138581.25,
      "d": 150,
      "v": 87
    },
    {
      "midi": 36,
      "hit": false,
      "t": 138850,
      "d": 318.75,
      "v": 89
    },
    {
      "midi": 67,
      "hit": false,
      "t": 139212.5,
      "d": 462.5,
      "v": 96
    },
    {
      "midi": 71,
      "hit": false,
      "t": 139212.5,
      "d": 581.25,
      "v": 108
    },
    {
      "midi": 74,
      "hit": false,
      "t": 139212.5,
      "d": 618.75,
      "v": 103
    },
    {
      "midi": 47,
      "hit": false,
      "t": 139212.5,
      "d": 1862.5,
      "v": 94
    },
    {
      "midi": 67,
      "hit": false,
      "t": 139868.75,
      "d": 187.5,
      "v": 72
    },
    {
      "midi": 71,
      "hit": false,
      "t": 140112.5,
      "d": 325,
      "v": 83
    },
    {
      "midi": 79,
      "hit": false,
      "t": 140112.5,
      "d": 475,
      "v": 82
    },
    {
      "midi": 67,
      "hit": false,
      "t": 140406.25,
      "d": 225,
      "v": 69
    },
    {
      "midi": 71,
      "hit": false,
      "t": 140693.75,
      "d": 306.25,
      "v": 105
    },
    {
      "midi": 74,
      "hit": false,
      "t": 140693.75,
      "d": 306.25,
      "v": 110
    },
    {
      "midi": 67,
      "hit": false,
      "t": 141006.25,
      "d": 162.5,
      "v": 92
    },
    {
      "midi": 31,
      "hit": false,
      "t": 141275,
      "d": 237.5,
      "v": 110
    },
    {
      "midi": 64,
      "hit": false,
      "t": 141587.5,
      "d": 468.75,
      "v": 102
    },
    {
      "midi": 69,
      "hit": false,
      "t": 141587.5,
      "d": 681.25,
      "v": 120
    },
    {
      "midi": 33,
      "hit": false,
      "t": 141587.5,
      "d": 1750,
      "v": 120
    },
    {
      "midi": 72,
      "hit": false,
      "t": 141593.75,
      "d": 762.5,
      "v": 110
    },
    {
      "midi": 64,
      "hit": false,
      "t": 142231.25,
      "d": 231.25,
      "v": 62
    },
    {
      "midi": 69,
      "hit": false,
      "t": 142506.25,
      "d": 225,
      "v": 70
    },
    {
      "midi": 76,
      "hit": false,
      "t": 142818.75,
      "d": 400,
      "v": 95
    },
    {
      "midi": 69,
      "hit": false,
      "t": 142825,
      "d": 343.75,
      "v": 102
    },
    {
      "midi": 72,
      "hit": false,
      "t": 142825,
      "d": 831.25,
      "v": 108
    },
    {
      "midi": 64,
      "hit": false,
      "t": 143093.75,
      "d": 250,
      "v": 67
    },
    {
      "midi": 69,
      "hit": false,
      "t": 143393.75,
      "d": 262.5,
      "v": 75
    },
    {
      "midi": 64,
      "hit": false,
      "t": 143687.5,
      "d": 187.5,
      "v": 66
    },
    {
      "midi": 33,
      "hit": false,
      "t": 143706.25,
      "d": 87.5,
      "v": 73
    },
    {
      "midi": 64,
      "hit": false,
      "t": 144012.5,
      "d": 400,
      "v": 99
    },
    {
      "midi": 71,
      "hit": false,
      "t": 144012.5,
      "d": 834.375,
      "v": 111
    },
    {
      "midi": 32,
      "hit": false,
      "t": 144012.5,
      "d": 1887.5,
      "v": 125
    },
    {
      "midi": 64,
      "hit": false,
      "t": 144643.75,
      "d": 200,
      "v": 57
    },
    {
      "midi": 68,
      "hit": false,
      "t": 144887.5,
      "d": 281.25,
      "v": 60
    },
    {
      "midi": 76,
      "hit": false,
      "t": 145200,
      "d": 500,
      "v": 69
    },
    {
      "midi": 64,
      "hit": false,
      "t": 145206.25,
      "d": 218.75,
      "v": 76
    },
    {
      "midi": 71,
      "hit": false,
      "t": 145218.75,
      "d": 393.75,
      "v": 85
    },
    {
      "midi": 68,
      "hit": false,
      "t": 145468.75,
      "d": 231.25,
      "v": 72
    },
    {
      "midi": 68,
      "hit": false,
      "t": 145793.75,
      "d": 300,
      "v": 76
    },
    {
      "midi": 71,
      "hit": false,
      "t": 145796.875,
      "d": 278.125,
      "v": 83
    },
    {
      "midi": 64,
      "hit": false,
      "t": 145806.25,
      "d": 150,
      "v": 81
    },
    {
      "midi": 64,
      "hit": false,
      "t": 146106.25,
      "d": 87.5,
      "v": 66
    },
    {
      "midi": 65,
      "hit": false,
      "t": 146418.75,
      "d": 293.75,
      "v": 115
    },
    {
      "midi": 69,
      "hit": false,
      "t": 146418.75,
      "d": 356.25,
      "v": 105
    },
    {
      "midi": 29,
      "hit": false,
      "t": 146425,
      "d": 2075,
      "v": 115
    },
    {
      "midi": 60,
      "hit": false,
      "t": 146668.75,
      "d": 281.25,
      "v": 69
    },
    {
      "midi": 65,
      "hit": false,
      "t": 147006.25,
      "d": 243.75,
      "v": 85
    },
    {
      "midi": 60,
      "hit": false,
      "t": 147293.75,
      "d": 218.75,
      "v": 78
    },
    {
      "midi": 69,
      "hit": false,
      "t": 147300,
      "d": 931.25,
      "v": 103
    },
    {
      "midi": 65,
      "hit": false,
      "t": 147600,
      "d": 293.75,
      "v": 89
    },
    {
      "midi": 60,
      "hit": false,
      "t": 147887.5,
      "d": 293.75,
      "v": 76
    },
    {
      "midi": 65,
      "hit": false,
      "t": 148193.75,
      "d": 281.25,
      "v": 93
    },
    {
      "midi": 72,
      "hit": false,
      "t": 148193.75,
      "d": 343.75,
      "v": 98
    },
    {
      "midi": 60,
      "hit": false,
      "t": 148487.5,
      "d": 243.75,
      "v": 73
    },
    {
      "midi": 64,
      "hit": false,
      "t": 148790.625,
      "d": 328.125,
      "v": 95
    },
    {
      "midi": 72,
      "hit": false,
      "t": 148790.625,
      "d": 478.125,
      "v": 102
    },
    {
      "midi": 67,
      "hit": false,
      "t": 148800,
      "d": 475,
      "v": 96
    },
    {
      "midi": 43,
      "hit": false,
      "t": 148800,
      "d": 2368.75,
      "v": 120
    },
    {
      "midi": 60,
      "hit": false,
      "t": 149068.75,
      "d": 209.375,
      "v": 67
    },
    {
      "midi": 64,
      "hit": false,
      "t": 149415.625,
      "d": 259.375,
      "v": 60
    },
    {
      "midi": 67,
      "hit": false,
      "t": 149662.5,
      "d": 293.75,
      "v": 72
    },
    {
      "midi": 60,
      "hit": false,
      "t": 149668.75,
      "d": 212.5,
      "v": 62
    },
    {
      "midi": 64,
      "hit": false,
      "t": 149975,
      "d": 334.375,
      "v": 82
    },
    {
      "midi": 72,
      "hit": false,
      "t": 149984.375,
      "d": 690.625,
      "v": 100
    },
    {
      "midi": 60,
      "hit": false,
      "t": 150275,
      "d": 212.5,
      "v": 69
    },
    {
      "midi": 67,
      "hit": false,
      "t": 150575,
      "d": 256.25,
      "v": 82
    },
    {
      "midi": 64,
      "hit": false,
      "t": 150575,
      "d": 268.75,
      "v": 87
    },
    {
      "midi": 60,
      "hit": false,
      "t": 150859.375,
      "d": 84.375,
      "v": 81
    },
    {
      "midi": 74,
      "hit": false,
      "t": 151187.5,
      "d": 187.5,
      "v": 89
    },
    {
      "midi": 66,
      "hit": false,
      "t": 151187.5,
      "d": 256.25,
      "v": 96
    },
    {
      "midi": 69,
      "hit": false,
      "t": 151187.5,
      "d": 300,
      "v": 102
    },
    {
      "midi": 38,
      "hit": false,
      "t": 151187.5,
      "d": 2396.875,
      "v": 110
    },
    {
      "midi": 62,
      "hit": false,
      "t": 151412.5,
      "d": 256.25,
      "v": 47
    },
    {
      "midi": 66,
      "hit": false,
      "t": 151781.25,
      "d": 325,
      "v": 60
    },
    {
      "midi": 62,
      "hit": false,
      "t": 152068.75,
      "d": 231.25,
      "v": 66
    },
    {
      "midi": 69,
      "hit": false,
      "t": 152081.25,
      "d": 256.25,
      "v": 74
    },
    {
      "midi": 66,
      "hit": false,
      "t": 152393.75,
      "d": 250,
      "v": 73
    },
    {
      "midi": 74,
      "hit": false,
      "t": 152400,
      "d": 787.5,
      "v": 92
    },
    {
      "midi": 62,
      "hit": false,
      "t": 152668.75,
      "d": 231.25,
      "v": 74
    },
    {
      "midi": 66,
      "hit": false,
      "t": 152950,
      "d": 312.5,
      "v": 73
    },
    {
      "midi": 69,
      "hit": false,
      "t": 152956.25,
      "d": 287.5,
      "v": 78
    },
    {
      "midi": 62,
      "hit": false,
      "t": 153268.75,
      "d": 281.25,
      "v": 69
    },
    {
      "midi": 65,
      "hit": false,
      "t": 153587.5,
      "d": 321.875,
      "v": 117
    },
    {
      "midi": 69,
      "hit": false,
      "t": 153587.5,
      "d": 340.625,
      "v": 120
    },
    {
      "midi": 31,
      "hit": false,
      "t": 153600,
      "d": 2043.75,
      "v": 126
    },
    {
      "midi": 60,
      "hit": false,
      "t": 153875,
      "d": 293.75,
      "v": 65
    },
    {
      "midi": 65,
      "hit": false,
      "t": 154225,
      "d": 543.75,
      "v": 78
    },
    {
      "midi": 60,
      "hit": false,
      "t": 154484.375,
      "d": 140.625,
      "v": 74
    },
    {
      "midi": 69,
      "hit": false,
      "t": 154493.75,
      "d": 275,
      "v": 78
    },
    {
      "midi": 67,
      "hit": false,
      "t": 154809.375,
      "d": 265.625,
      "v": 105
    },
    {
      "midi": 71,
      "hit": false,
      "t": 154809.375,
      "d": 315.625,
      "v": 102
    },
    {
      "midi": 62,
      "hit": false,
      "t": 154818.75,
      "d": 156.25,
      "v": 103
    },
    {
      "midi": 62,
      "hit": false,
      "t": 155087.5,
      "d": 237.5,
      "v": 76
    },
    {
      "midi": 71,
      "hit": false,
      "t": 155400,
      "d": 225,
      "v": 93
    },
    {
      "midi": 67,
      "hit": false,
      "t": 155406.25,
      "d": 231.25,
      "v": 98
    },
    {
      "midi": 62,
      "hit": false,
      "t": 155668.75,
      "d": 50,
      "v": 80
    },
    {
      "midi": 69,
      "hit": false,
      "t": 156012.5,
      "d": 1100,
      "v": 115
    },
    {
      "midi": 65,
      "hit": false,
      "t": 156012.5,
      "d": 1125,
      "v": 122
    },
    {
      "midi": 60,
      "hit": false,
      "t": 156012.5,
      "d": 1612.5,
      "v": 115
    },
    {
      "midi": 41,
      "hit": false,
      "t": 156012.5,
      "d": 2243.75,
      "v": 115
    },
    {
      "midi": 65,
      "hit": false,
      "t": 157156.25,
      "d": 803.125,
      "v": 86
    },
    {
      "midi": 69,
      "hit": false,
      "t": 157175,
      "d": 759.375,
      "v": 115
    },
    {
      "midi": 60,
      "hit": false,
      "t": 157762.5,
      "d": 237.5,
      "v": 96
    },
    {
      "midi": 64,
      "hit": false,
      "t": 158381.25,
      "d": 756.25,
      "v": 116
    },
    {
      "midi": 43,
      "hit": false,
      "t": 158381.25,
      "d": 1893.75,
      "v": 109
    },
    {
      "midi": 67,
      "hit": false,
      "t": 158384.375,
      "d": 834.375,
      "v": 120
    },
    {
      "midi": 60,
      "hit": false,
      "t": 158390.625,
      "d": 562.5,
      "v": 110
    },
    {
      "midi": 60,
      "hit": false,
      "t": 159012.5,
      "d": 456.25,
      "v": 69
    },
    {
      "midi": 64,
      "hit": false,
      "t": 159618.75,
      "d": 650,
      "v": 112
    },
    {
      "midi": 72,
      "hit": false,
      "t": 159618.75,
      "d": 681.25,
      "v": 110
    },
    {
      "midi": 67,
      "hit": false,
      "t": 159618.75,
      "d": 696.875,
      "v": 112
    },
    {
      "midi": 60,
      "hit": false,
      "t": 160162.5,
      "d": 115.625,
      "v": 88
    },
    {
      "midi": 72,
      "hit": false,
      "t": 160756.25,
      "d": 812.5,
      "v": 115
    },
    {
      "midi": 43,
      "hit": false,
      "t": 160756.25,
      "d": 2103.125,
      "v": 113
    },
    {
      "midi": 67,
      "hit": false,
      "t": 160762.5,
      "d": 875,
      "v": 123
    },
    {
      "midi": 62,
      "hit": false,
      "t": 160775,
      "d": 825,
      "v": 118
    },
    {
      "midi": 62,
      "hit": false,
      "t": 161984.375,
      "d": 465.625,
      "v": 110
    },
    {
      "midi": 72,
      "hit": false,
      "t": 161984.375,
      "d": 665.625,
      "v": 115
    },
    {
      "midi": 67,
      "hit": false,
      "t": 161984.375,
      "d": 793.75,
      "v": 127
    },
    {
      "midi": 62,
      "hit": false,
      "t": 162571.875,
      "d": 212.5,
      "v": 80
    },
    {
      "midi": 71,
      "hit": false,
      "t": 163187.5,
      "d": 956.25,
      "v": 118
    },
    {
      "midi": 67,
      "hit": false,
      "t": 163187.5,
      "d": 1012.5,
      "v": 127
    },
    {
      "midi": 62,
      "hit": false,
      "t": 163187.5,
      "d": 1037.5,
      "v": 115
    },
    {
      "midi": 43,
      "hit": false,
      "t": 163187.5,
      "d": 1106.25,
      "v": 123
    },
    {
      "midi": 67,
      "hit": false,
      "t": 164406.25,
      "d": 918.75,
      "v": 127
    },
    {
      "midi": 72,
      "hit": false,
      "t": 164412.5,
      "d": 825,
      "v": 125
    },
    {
      "midi": 40,
      "hit": false,
      "t": 164412.5,
      "d": 915.625,
      "v": 127
    },
    {
      "midi": 60,
      "hit": false,
      "t": 164418.75,
      "d": 837.5,
      "v": 127
    },
    {
      "midi": 60,
      "hit": false,
      "t": 165612.5,
      "d": 640.625,
      "v": 127
    },
    {
      "midi": 69,
      "hit": false,
      "t": 165612.5,
      "d": 775,
      "v": 127
    },
    {
      "midi": 65,
      "hit": false,
      "t": 165612.5,
      "d": 781.25,
      "v": 127
    },
    {
      "midi": 41,
      "hit": false,
      "t": 165625,
      "d": 2368.75,
      "v": 127
    },
    {
      "midi": 65,
      "hit": false,
      "t": 166793.75,
      "d": 793.75,
      "v": 125
    },
    {
      "midi": 69,
      "hit": false,
      "t": 166793.75,
      "d": 818.75,
      "v": 127
    },
    {
      "midi": 60,
      "hit": false,
      "t": 167381.25,
      "d": 368.75,
      "v": 98
    },
    {
      "midi": 43,
      "hit": false,
      "t": 168006.25,
      "d": 1962.5,
      "v": 127
    },
    {
      "midi": 67,
      "hit": false,
      "t": 168012.5,
      "d": 650,
      "v": 127
    },
    {
      "midi": 64,
      "hit": false,
      "t": 168012.5,
      "d": 662.5,
      "v": 127
    },
    {
      "midi": 60,
      "hit": false,
      "t": 168018.75,
      "d": 418.75,
      "v": 123
    },
    {
      "midi": 72,
      "hit": false,
      "t": 169200,
      "d": 650,
      "v": 118
    },
    {
      "midi": 67,
      "hit": false,
      "t": 169206.25,
      "d": 750,
      "v": 125
    },
    {
      "midi": 64,
      "hit": false,
      "t": 169206.25,
      "d": 768.75,
      "v": 127
    },
    {
      "midi": 60,
      "hit": false,
      "t": 169787.5,
      "d": 200,
      "v": 88
    },
    {
      "midi": 43,
      "hit": false,
      "t": 170093.75,
      "d": 93.75,
      "v": 86
    },
    {
      "midi": 72,
      "hit": false,
      "t": 170381.25,
      "d": 587.5,
      "v": 118
    },
    {
      "midi": 67,
      "hit": false,
      "t": 170381.25,
      "d": 606.25,
      "v": 125
    },
    {
      "midi": 62,
      "hit": false,
      "t": 170387.5,
      "d": 400,
      "v": 112
    },
    {
      "midi": 43,
      "hit": false,
      "t": 170387.5,
      "d": 2056.25,
      "v": 125
    },
    {
      "midi": 62,
      "hit": false,
      "t": 170987.5,
      "d": 568.75,
      "v": 73
    },
    {
      "midi": 72,
      "hit": false,
      "t": 171606.25,
      "d": 800,
      "v": 127
    },
    {
      "midi": 67,
      "hit": false,
      "t": 171612.5,
      "d": 781.25,
      "v": 127
    },
    {
      "midi": 62,
      "hit": false,
      "t": 172231.25,
      "d": 281.25,
      "v": 116
    },
    {
      "midi": 62,
      "hit": false,
      "t": 172800,
      "d": 125,
      "v": 89
    },
    {
      "midi": 43,
      "hit": false,
      "t": 172800,
      "d": 562.5,
      "v": 127
    },
    {
      "midi": 67,
      "hit": false,
      "t": 172800,
      "d": 581.25,
      "v": 127
    },
    {
      "midi": 71,
      "hit": false,
      "t": 172800,
      "d": 581.25,
      "v": 120
    },
    {
      "midi": 62,
      "hit": false,
      "t": 174000,
      "d": 212.5,
      "v": 113
    },
    {
      "midi": 71,
      "hit": false,
      "t": 174000,
      "d": 256.25,
      "v": 122
    },
    {
      "midi": 60,
      "hit": false,
      "t": 174300,
      "d": 187.5,
      "v": 120
    },
    {
      "midi": 69,
      "hit": false,
      "t": 174300,
      "d": 275,
      "v": 107
    },
    {
      "midi": 59,
      "hit": false,
      "t": 174600,
      "d": 190.625,
      "v": 110
    },
    {
      "midi": 67,
      "hit": false,
      "t": 174600,
      "d": 250,
      "v": 115
    },
    {
      "midi": 60,
      "hit": false,
      "t": 174900,
      "d": 187.5,
      "v": 127
    },
    {
      "midi": 69,
      "hit": false,
      "t": 174900,
      "d": 187.5,
      "v": 127
    },
    {
      "midi": 72,
      "hit": false,
      "t": 177000,
      "d": 437.5,
      "v": 113
    },
    {
      "midi": 60,
      "hit": false,
      "t": 177000,
      "d": 475,
      "v": 120
    },
    {
      "midi": 67,
      "hit": false,
      "t": 177000,
      "d": 550,
      "v": 127
    },
    {
      "midi": 40,
      "hit": false,
      "t": 177000,
      "d": 562.5,
      "v": 116
    },
    {
      "midi": 72,
      "hit": false,
      "t": 177600,
      "d": 2112.5,
      "v": 125
    },
    {
      "midi": 65,
      "hit": false,
      "t": 177600,
      "d": 2143.75,
      "v": 127
    },
    {
      "midi": 69,
      "hit": false,
      "t": 177600,
      "d": 2143.75,
      "v": 127
    },
    {
      "midi": 60,
      "hit": false,
      "t": 177600,
      "d": 2206.25,
      "v": 120
    },
    {
      "midi": 41,
      "hit": false,
      "t": 177600,
      "d": 2318.75,
      "v": 120
    },
    {
      "midi": 62,
      "hit": false,
      "t": 180000,
      "d": 1456.25,
      "v": 116
    },
    {
      "midi": 69,
      "hit": false,
      "t": 180000,
      "d": 1462.5,
      "v": 125
    },
    {
      "midi": 65,
      "hit": false,
      "t": 180000,
      "d": 1468.75,
      "v": 127
    },
    {
      "midi": 38,
      "hit": false,
      "t": 180000,
      "d": 1487.5,
      "v": 127
    },
    {
      "midi": 72,
      "hit": false,
      "t": 181800,
      "d": 231.25,
      "v": 123
    },
    {
      "midi": 60,
      "hit": false,
      "t": 181800,
      "d": 250,
      "v": 122
    },
    {
      "midi": 67,
      "hit": false,
      "t": 181800,
      "d": 281.25,
      "v": 127
    },
    {
      "midi": 40,
      "hit": false,
      "t": 181800,
      "d": 312.5,
      "v": 122
    },
    {
      "midi": 60,
      "hit": false,
      "t": 182400,
      "d": 2268.75,
      "v": 122
    },
    {
      "midi": 72,
      "hit": false,
      "t": 182400,
      "d": 2275,
      "v": 118
    },
    {
      "midi": 69,
      "hit": false,
      "t": 182400,
      "d": 2293.75,
      "v": 125
    },
    {
      "midi": 65,
      "hit": false,
      "t": 182400,
      "d": 2300,
      "v": 125
    },
    {
      "midi": 41,
      "hit": false,
      "t": 182400,
      "d": 2356.25,
      "v": 125
    },
    {
      "midi": 62,
      "hit": false,
      "t": 184800,
      "d": 1918.75,
      "v": 115
    },
    {
      "midi": 65,
      "hit": false,
      "t": 184800,
      "d": 1956.25,
      "v": 127
    },
    {
      "midi": 69,
      "hit": false,
      "t": 184800,
      "d": 1981.25,
      "v": 127
    },
    {
      "midi": 38,
      "hit": false,
      "t": 184800,
      "d": 2018.75,
      "v": 127
    },
    {
      "midi": 72,
      "hit": false,
      "t": 186900,
      "d": 875,
      "v": 112
    },
    {
      "midi": 62,
      "hit": false,
      "t": 186900,
      "d": 2575,
      "v": 112
    },
    {
      "midi": 67,
      "hit": false,
      "t": 186900,
      "d": 2581.25,
      "v": 127
    },
    {
      "midi": 71,
      "hit": false,
      "t": 187800,
      "d": 1668.75,
      "v": 95
    },
    {
      "midi": 55,
      "hit": false,
      "t": 189600,
      "d": 1106.25,
      "v": 112
    },
    {
      "midi": 64,
      "hit": false,
      "t": 189600,
      "d": 1125,
      "v": 120
    },
    {
      "midi": 60,
      "hit": false,
      "t": 189600,
      "d": 1131.25,
      "v": 123
    },
    {
      "midi": 60,
      "hit": false,
      "t": 191100,
      "d": 437.5,
      "v": 127
    },
    {
      "midi": 57,
      "hit": false,
      "t": 191100,
      "d": 456.25,
      "v": 120
    },
    {
      "midi": 65,
      "hit": false,
      "t": 191100,
      "d": 462.5,
      "v": 125
    },
    {
      "midi": 55,
      "hit": false,
      "t": 192000,
      "d": 593.75,
      "v": 120
    },
    {
      "midi": 60,
      "hit": false,
      "t": 192000,
      "d": 593.75,
      "v": 123
    },
    {
      "midi": 64,
      "hit": false,
      "t": 192000,
      "d": 593.75,
      "v": 120
    },
    {
      "midi": 65,
      "hit": false,
      "t": 193193.75,
      "d": 237.5,
      "v": 118
    },
    {
      "midi": 69,
      "hit": false,
      "t": 193200,
      "d": 237.5,
      "v": 127
    },
    {
      "midi": 65,
      "hit": false,
      "t": 193500,
      "d": 287.5,
      "v": 113
    },
    {
      "midi": 69,
      "hit": false,
      "t": 193512.5,
      "d": 268.75,
      "v": 123
    },
    {
      "midi": 64,
      "hit": false,
      "t": 193775,
      "d": 300,
      "v": 112
    },
    {
      "midi": 67,
      "hit": false,
      "t": 193800,
      "d": 256.25,
      "v": 110
    },
    {
      "midi": 65,
      "hit": false,
      "t": 194075,
      "d": 2025,
      "v": 123
    },
    {
      "midi": 69,
      "hit": false,
      "t": 194081.25,
      "d": 2012.5,
      "v": 127
    },
    {
      "midi": 57,
      "hit": false,
      "t": 194387.5,
      "d": 1193.75,
      "v": 114
    },
    {
      "midi": 62,
      "hit": false,
      "t": 194387.5,
      "d": 1206.25,
      "v": 111
    },
    {
      "midi": 38,
      "hit": false,
      "t": 194400,
      "d": 1743.75,
      "v": 127
    },
    {
      "midi": 72,
      "hit": false,
      "t": 196200,
      "d": 437.5,
      "v": 113
    },
    {
      "midi": 67,
      "hit": false,
      "t": 196200,
      "d": 550,
      "v": 127
    },
    {
      "midi": 40,
      "hit": false,
      "t": 196200,
      "d": 562.5,
      "v": 116
    },
    {
      "midi": 60,
      "hit": false,
      "t": 196200,
      "d": 596.875,
      "v": 120
    },
    {
      "midi": 60,
      "hit": false,
      "t": 196800,
      "d": 600,
      "v": 120
    },
    {
      "midi": 72,
      "hit": false,
      "t": 196800,
      "d": 2112.5,
      "v": 125
    },
    {
      "midi": 65,
      "hit": false,
      "t": 196800,
      "d": 2143.75,
      "v": 127
    },
    {
      "midi": 69,
      "hit": false,
      "t": 196800,
      "d": 2143.75,
      "v": 127
    },
    {
      "midi": 41,
      "hit": false,
      "t": 196800,
      "d": 2318.75,
      "v": 120
    },
    {
      "midi": 62,
      "hit": false,
      "t": 199200,
      "d": 1456.25,
      "v": 116
    },
    {
      "midi": 69,
      "hit": false,
      "t": 199200,
      "d": 1462.5,
      "v": 125
    },
    {
      "midi": 65,
      "hit": false,
      "t": 199200,
      "d": 1468.75,
      "v": 127
    },
    {
      "midi": 38,
      "hit": false,
      "t": 199200,
      "d": 1487.5,
      "v": 127
    },
    {
      "midi": 72,
      "hit": false,
      "t": 201000,
      "d": 231.25,
      "v": 123
    },
    {
      "midi": 60,
      "hit": false,
      "t": 201000,
      "d": 250,
      "v": 122
    },
    {
      "midi": 67,
      "hit": false,
      "t": 201000,
      "d": 278.125,
      "v": 127
    },
    {
      "midi": 40,
      "hit": false,
      "t": 201000,
      "d": 312.5,
      "v": 122
    },
    {
      "midi": 60,
      "hit": false,
      "t": 201600,
      "d": 2268.75,
      "v": 122
    },
    {
      "midi": 72,
      "hit": false,
      "t": 201600,
      "d": 2275,
      "v": 118
    },
    {
      "midi": 69,
      "hit": false,
      "t": 201600,
      "d": 2290.625,
      "v": 125
    },
    {
      "midi": 65,
      "hit": false,
      "t": 201600,
      "d": 2300,
      "v": 125
    },
    {
      "midi": 41,
      "hit": false,
      "t": 201600,
      "d": 2353.125,
      "v": 125
    },
    {
      "midi": 62,
      "hit": false,
      "t": 204000,
      "d": 1918.75,
      "v": 115
    },
    {
      "midi": 65,
      "hit": false,
      "t": 204000,
      "d": 1956.25,
      "v": 127
    },
    {
      "midi": 69,
      "hit": false,
      "t": 204000,
      "d": 1981.25,
      "v": 127
    },
    {
      "midi": 38,
      "hit": false,
      "t": 204000,
      "d": 2018.75,
      "v": 127
    },
    {
      "midi": 72,
      "hit": false,
      "t": 206100,
      "d": 918.75,
      "v": 112
    },
    {
      "midi": 62,
      "hit": false,
      "t": 206100,
      "d": 2575,
      "v": 112
    },
    {
      "midi": 67,
      "hit": false,
      "t": 206100,
      "d": 2581.25,
      "v": 127
    },
    {
      "midi": 71,
      "hit": false,
      "t": 207000,
      "d": 1668.75,
      "v": 81
    },
    {
      "midi": 48,
      "hit": false,
      "t": 208800,
      "d": 1737.5,
      "v": 52
    },
    {
      "midi": 55,
      "hit": false,
      "t": 209100,
      "d": 2025,
      "v": 48
    },
    {
      "midi": 88,
      "hit": false,
      "t": 209400,
      "d": 125,
      "v": 71
    },
    {
      "midi": 60,
      "hit": false,
      "t": 209400,
      "d": 1046.875,
      "v": 36
    },
    {
      "midi": 88,
      "hit": false,
      "t": 209700,
      "d": 137.5,
      "v": 76
    },
    {
      "midi": 64,
      "hit": false,
      "t": 209700,
      "d": 318.75,
      "v": 51
    },
    {
      "midi": 88,
      "hit": false,
      "t": 210000,
      "d": 137.5,
      "v": 71
    },
    {
      "midi": 67,
      "hit": false,
      "t": 210000,
      "d": 293.75,
      "v": 36
    },
    {
      "midi": 64,
      "hit": false,
      "t": 210296.875,
      "d": 278.125,
      "v": 43
    },
    {
      "midi": 88,
      "hit": false,
      "t": 210300,
      "d": 131.25,
      "v": 82
    },
    {
      "midi": 88,
      "hit": false,
      "t": 210600,
      "d": 131.25,
      "v": 79
    },
    {
      "midi": 67,
      "hit": false,
      "t": 210600,
      "d": 437.5,
      "v": 42
    },
    {
      "midi": 72,
      "hit": false,
      "t": 210600,
      "d": 462.5,
      "v": 43
    },
    {
      "midi": 91,
      "hit": false,
      "t": 210900,
      "d": 125,
      "v": 86
    },
    {
      "midi": 64,
      "hit": false,
      "t": 210900,
      "d": 262.5,
      "v": 56
    },
    {
      "midi": 86,
      "hit": false,
      "t": 211200,
      "d": 1200,
      "v": 82
    },
    {
      "midi": 47,
      "hit": false,
      "t": 211200,
      "d": 1618.75,
      "v": 45
    },
    {
      "midi": 55,
      "hit": false,
      "t": 211500,
      "d": 1443.75,
      "v": 56
    },
    {
      "midi": 59,
      "hit": false,
      "t": 211800,
      "d": 981.25,
      "v": 52
    },
    {
      "midi": 62,
      "hit": false,
      "t": 212100,
      "d": 75,
      "v": 35
    },
    {
      "midi": 67,
      "hit": false,
      "t": 212100,
      "d": 631.25,
      "v": 32
    },
    {
      "midi": 62,
      "hit": false,
      "t": 212700,
      "d": 275,
      "v": 43
    },
    {
      "midi": 67,
      "hit": false,
      "t": 213000,
      "d": 331.25,
      "v": 45
    },
    {
      "midi": 62,
      "hit": false,
      "t": 213300,
      "d": 43.75,
      "v": 32
    },
    {
      "midi": 45,
      "hit": false,
      "t": 213600,
      "d": 1850,
      "v": 55
    },
    {
      "midi": 52,
      "hit": false,
      "t": 213900,
      "d": 1681.25,
      "v": 52
    },
    {
      "midi": 84,
      "hit": false,
      "t": 214200,
      "d": 121.875,
      "v": 77
    },
    {
      "midi": 60,
      "hit": false,
      "t": 214200,
      "d": 206.25,
      "v": 43
    },
    {
      "midi": 57,
      "hit": false,
      "t": 214200,
      "d": 1115.625,
      "v": 51
    },
    {
      "midi": 84,
      "hit": false,
      "t": 214500,
      "d": 118.75,
      "v": 64
    },
    {
      "midi": 64,
      "hit": false,
      "t": 214500,
      "d": 296.875,
      "v": 58
    },
    {
      "midi": 84,
      "hit": false,
      "t": 214800,
      "d": 115.625,
      "v": 71
    },
    {
      "midi": 60,
      "hit": false,
      "t": 214800,
      "d": 250,
      "v": 32
    },
    {
      "midi": 84,
      "hit": false,
      "t": 215100,
      "d": 125,
      "v": 71
    },
    {
      "midi": 64,
      "hit": false,
      "t": 215100,
      "d": 290.625,
      "v": 47
    },
    {
      "midi": 69,
      "hit": false,
      "t": 215100,
      "d": 450,
      "v": 32
    },
    {
      "midi": 84,
      "hit": false,
      "t": 215400,
      "d": 118.75,
      "v": 74
    },
    {
      "midi": 60,
      "hit": false,
      "t": 215400,
      "d": 375,
      "v": 42
    },
    {
      "midi": 64,
      "hit": false,
      "t": 215700,
      "d": 75,
      "v": 50
    },
    {
      "midi": 88,
      "hit": false,
      "t": 215700,
      "d": 90.625,
      "v": 82
    },
    {
      "midi": 43,
      "hit": false,
      "t": 216000,
      "d": 1131.25,
      "v": 56
    },
    {
      "midi": 83,
      "hit": false,
      "t": 216000,
      "d": 2162.5,
      "v": 79
    },
    {
      "midi": 55,
      "hit": false,
      "t": 216300,
      "d": 1700,
      "v": 48
    },
    {
      "midi": 59,
      "hit": false,
      "t": 216600,
      "d": 275,
      "v": 56
    },
    {
      "midi": 64,
      "hit": false,
      "t": 216900,
      "d": 775,
      "v": 51
    },
    {
      "midi": 59,
      "hit": false,
      "t": 217500,
      "d": 259.375,
      "v": 41
    },
    {
      "midi": 64,
      "hit": false,
      "t": 217800,
      "d": 268.75,
      "v": 37
    },
    {
      "midi": 59,
      "hit": false,
      "t": 218100,
      "d": 118.75,
      "v": 49
    },
    {
      "midi": 65,
      "hit": false,
      "t": 218400,
      "d": 256.25,
      "v": 32
    },
    {
      "midi": 41,
      "hit": false,
      "t": 218400,
      "d": 1031.25,
      "v": 61
    },
    {
      "midi": 60,
      "hit": false,
      "t": 218700,
      "d": 206.25,
      "v": 32
    },
    {
      "midi": 81,
      "hit": false,
      "t": 219000,
      "d": 87.5,
      "v": 56
    },
    {
      "midi": 65,
      "hit": false,
      "t": 219000,
      "d": 278.125,
      "v": 57
    },
    {
      "midi": 81,
      "hit": false,
      "t": 219300,
      "d": 137.5,
      "v": 77
    },
    {
      "midi": 60,
      "hit": false,
      "t": 219300,
      "d": 412.5,
      "v": 40
    },
    {
      "midi": 53,
      "hit": false,
      "t": 219300,
      "d": 1168.75,
      "v": 44
    },
    {
      "midi": 65,
      "hit": false,
      "t": 219600,
      "d": 12.5,
      "v": 32
    },
    {
      "midi": 81,
      "hit": false,
      "t": 219600,
      "d": 125,
      "v": 88
    },
    {
      "midi": 81,
      "hit": false,
      "t": 219900,
      "d": 125,
      "v": 79
    },
    {
      "midi": 60,
      "hit": false,
      "t": 219900,
      "d": 250,
      "v": 48
    },
    {
      "midi": 41,
      "hit": false,
      "t": 220050,
      "d": 265.625,
      "v": 40
    },
    {
      "midi": 81,
      "hit": false,
      "t": 220200,
      "d": 121.875,
      "v": 56
    },
    {
      "midi": 65,
      "hit": false,
      "t": 220200,
      "d": 178.125,
      "v": 32
    },
    {
      "midi": 84,
      "hit": false,
      "t": 220500,
      "d": 78.125,
      "v": 77
    },
    {
      "midi": 60,
      "hit": false,
      "t": 220500,
      "d": 125,
      "v": 32
    },
    {
      "midi": 62,
      "hit": false,
      "t": 220800,
      "d": 331.25,
      "v": 55
    },
    {
      "midi": 40,
      "hit": false,
      "t": 220800,
      "d": 1387.5,
      "v": 49
    },
    {
      "midi": 52,
      "hit": false,
      "t": 220800,
      "d": 2087.5,
      "v": 32
    },
    {
      "midi": 79,
      "hit": false,
      "t": 220800,
      "d": 2156.25,
      "v": 79
    },
    {
      "midi": 60,
      "hit": false,
      "t": 221100,
      "d": 278.125,
      "v": 32
    },
    {
      "midi": 62,
      "hit": false,
      "t": 221400,
      "d": 237.5,
      "v": 32
    },
    {
      "midi": 60,
      "hit": false,
      "t": 221700,
      "d": 318.75,
      "v": 46
    },
    {
      "midi": 60,
      "hit": false,
      "t": 222300,
      "d": 275,
      "v": 49
    },
    {
      "midi": 40,
      "hit": false,
      "t": 222600,
      "d": 193.75,
      "v": 43
    },
    {
      "midi": 60,
      "hit": false,
      "t": 222900,
      "d": 112.5,
      "v": 42
    },
    {
      "midi": 38,
      "hit": false,
      "t": 223200,
      "d": 2075,
      "v": 66
    },
    {
      "midi": 57,
      "hit": false,
      "t": 223500,
      "d": 150,
      "v": 50
    },
    {
      "midi": 78,
      "hit": false,
      "t": 223800,
      "d": 137.5,
      "v": 71
    },
    {
      "midi": 69,
      "hit": false,
      "t": 223800,
      "d": 250,
      "v": 52
    },
    {
      "midi": 62,
      "hit": false,
      "t": 223800,
      "d": 281.25,
      "v": 63
    },
    {
      "midi": 50,
      "hit": false,
      "t": 223800,
      "d": 1781.25,
      "v": 48
    },
    {
      "midi": 78,
      "hit": false,
      "t": 224100,
      "d": 131.25,
      "v": 79
    },
    {
      "midi": 62,
      "hit": false,
      "t": 224400,
      "d": 93.75,
      "v": 32
    },
    {
      "midi": 78,
      "hit": false,
      "t": 224400,
      "d": 237.5,
      "v": 71
    },
    {
      "midi": 69,
      "hit": false,
      "t": 224400,
      "d": 1187.5,
      "v": 36
    },
    {
      "midi": 84,
      "hit": false,
      "t": 224700,
      "d": 887.5,
      "v": 64
    },
    {
      "midi": 78,
      "hit": false,
      "t": 225000,
      "d": 243.75,
      "v": 71
    },
    {
      "midi": 62,
      "hit": false,
      "t": 225000,
      "d": 593.75,
      "v": 58
    },
    {
      "midi": 77,
      "hit": false,
      "t": 225300,
      "d": 296.875,
      "v": 71
    },
    {
      "midi": 69,
      "hit": false,
      "t": 225600,
      "d": 275,
      "v": 62
    },
    {
      "midi": 77,
      "hit": false,
      "t": 225600,
      "d": 281.25,
      "v": 51
    },
    {
      "midi": 60,
      "hit": false,
      "t": 225600,
      "d": 475,
      "v": 54
    },
    {
      "midi": 43,
      "hit": false,
      "t": 225600,
      "d": 993.75,
      "v": 52
    },
    {
      "midi": 65,
      "hit": false,
      "t": 226200,
      "d": 296.875,
      "v": 32
    },
    {
      "midi": 65,
      "hit": false,
      "t": 226500,
      "d": 168.75,
      "v": 49
    },
    {
      "midi": 60,
      "hit": false,
      "t": 226500,
      "d": 250,
      "v": 38
    },
    {
      "midi": 69,
      "hit": false,
      "t": 226500,
      "d": 281.25,
      "v": 52
    },
    {
      "midi": 79,
      "hit": false,
      "t": 226800,
      "d": 593.75,
      "v": 60
    },
    {
      "midi": 71,
      "hit": false,
      "t": 226800,
      "d": 1150,
      "v": 56
    },
    {
      "midi": 62,
      "hit": false,
      "t": 226800,
      "d": 1156.25,
      "v": 56
    },
    {
      "midi": 67,
      "hit": false,
      "t": 226800,
      "d": 1162.5,
      "v": 56
    },
    {
      "midi": 77,
      "hit": false,
      "t": 227400,
      "d": 600,
      "v": 56
    },
    {
      "midi": 36,
      "hit": false,
      "t": 228000,
      "d": 2375,
      "v": 60
    },
    {
      "midi": 43,
      "hit": false,
      "t": 228018.75,
      "d": 2375,
      "v": 60
    },
    {
      "midi": 48,
      "hit": false,
      "t": 228037.5,
      "d": 2362.5,
      "v": 60
    },
    {
      "midi": 52,
      "hit": false,
      "t": 228056.25,
      "d": 2343.75,
      "v": 60
    },
    {
      "midi": 55,
      "hit": false,
      "t": 228075,
      "d": 2325,
      "v": 60
    },
    {
      "midi": 60,
      "hit": false,
      "t": 228093.75,
      "d": 2306.25,
      "v": 60
    },
    {
      "midi": 64,
      "hit": false,
      "t": 228112.5,
      "d": 2287.5,
      "v": 60
    },
    {
      "midi": 67,
      "hit": false,
      "t": 228131.25,
      "d": 2268.75,
      "v": 60
    },
    {
      "midi": 72,
      "hit": false,
      "t": 228150,
      "d": 2250,
      "v": 60
    },
    {
      "midi": 74,
      "hit": false,
      "t": 228175,
      "d": 2228.125,
      "v": 60
    },
    {
      "midi": 76,
      "hit": false,
      "t": 228206.25,
      "d": 2212.5,
      "v": 52
    }
  ]
}