{
  "jsonPath": "Ultima Online/britain2.json",
  "path": "Ultima Online\\britain2.mid",
  "name": "britain2",
  "difficulty": "Advanced",
  "bpm": 69.99998833333528,
  "notes": [
    {
      "midi": 62,
      "hit": false,
      "t": 1714.2859999999998,
      "d": 1500.0002500000003,
      "v": 67
    },
    {
      "midi": 69,
      "hit": false,
      "t": 1714.2859999999998,
      "d": 1500.0002500000003,
      "v": 78
    },
    {
      "midi": 65,
      "hit": false,
      "t": 1714.2859999999998,
      "d": 1500.0002500000003,
      "v": 73
    },
    {
      "midi": 38,
      "hit": false,
      "t": 1714.2859999999998,
      "d": 1650.0002749999996,
      "v": 100
    },
    {
      "midi": 69,
      "hit": false,
      "t": 1721.4288583333332,
      "d": 714.2858333333334,
      "v": 106
    },
    {
      "midi": 67,
      "hit": false,
      "t": 2571.429,
      "d": 357.1429166666667,
      "v": 108
    },
    {
      "midi": 69,
      "hit": false,
      "t": 3142.857666666667,
      "d": 71.42858333333334,
      "v": 106
    },
    {
      "midi": 67,
      "hit": false,
      "t": 3285.7148333333334,
      "d": 71.42858333333334,
      "v": 109
    },
    {
      "midi": 34,
      "hit": false,
      "t": 3428.5719999999997,
      "d": 1664.2859916666662,
      "v": 100
    },
    {
      "midi": 65,
      "hit": false,
      "t": 3428.572,
      "d": 1500.00025,
      "v": 56
    },
    {
      "midi": 58,
      "hit": false,
      "t": 3428.572,
      "d": 1500.00025,
      "v": 93
    },
    {
      "midi": 62,
      "hit": false,
      "t": 3428.572,
      "d": 1500.00025,
      "v": 82
    },
    {
      "midi": 65,
      "hit": false,
      "t": 3428.572,
      "d": 678.5715416666662,
      "v": 106
    },
    {
      "midi": 65,
      "hit": false,
      "t": 4285.715,
      "d": 107.14287499999955,
      "v": 101
    },
    {
      "midi": 67,
      "hit": false,
      "t": 4571.4293333333335,
      "d": 107.14287499999955,
      "v": 107
    },
    {
      "midi": 65,
      "hit": false,
      "t": 4857.143666666667,
      "d": 107.14287499999955,
      "v": 106
    },
    {
      "midi": 36,
      "hit": false,
      "t": 5142.857999999999,
      "d": 3328.5719833333324,
      "v": 100
    },
    {
      "midi": 60,
      "hit": false,
      "t": 5142.858,
      "d": 3071.4290833333325,
      "v": 65
    },
    {
      "midi": 64,
      "hit": false,
      "t": 5142.858,
      "d": 3071.4290833333325,
      "v": 74
    },
    {
      "midi": 67,
      "hit": false,
      "t": 5142.858,
      "d": 3071.4290833333325,
      "v": 54
    },
    {
      "midi": 64,
      "hit": false,
      "t": 5142.858,
      "d": 714.2858333333334,
      "v": 109
    },
    {
      "midi": 60,
      "hit": false,
      "t": 6000.001,
      "d": 1428.5716666666667,
      "v": 105
    },
    {
      "midi": 81,
      "hit": false,
      "t": 6857.143999999999,
      "d": 285.71433333333334,
      "v": 107
    },
    {
      "midi": 79,
      "hit": false,
      "t": 7142.858333333333,
      "d": 107.14287499999955,
      "v": 109
    },
    {
      "midi": 79,
      "hit": false,
      "t": 7428.572666666665,
      "d": 100.00001666666685,
      "v": 109
    },
    {
      "midi": 79,
      "hit": false,
      "t": 7714.286999999998,
      "d": 264.28575833333343,
      "v": 107
    },
    {
      "midi": 60,
      "hit": false,
      "t": 7714.287,
      "d": 142.85716666666667,
      "v": 108
    },
    {
      "midi": 77,
      "hit": false,
      "t": 8000.001333333332,
      "d": 85.71429999999964,
      "v": 108
    },
    {
      "midi": 62,
      "hit": false,
      "t": 8000.001333333334,
      "d": 142.85716666666667,
      "v": 107
    },
    {
      "midi": 76,
      "hit": false,
      "t": 8285.715666666665,
      "d": 78.57144166666694,
      "v": 107
    },
    {
      "midi": 64,
      "hit": false,
      "t": 8285.715666666667,
      "d": 142.85716666666667,
      "v": 103
    },
    {
      "midi": 38,
      "hit": false,
      "t": 8571.429999999998,
      "d": 1700.0002833333328,
      "v": 100
    },
    {
      "midi": 74,
      "hit": false,
      "t": 8571.429999999998,
      "d": 3300.000549999999,
      "v": 75
    },
    {
      "midi": 62,
      "hit": false,
      "t": 8571.43,
      "d": 1500.000250000001,
      "v": 69
    },
    {
      "midi": 69,
      "hit": false,
      "t": 8571.43,
      "d": 1500.000250000001,
      "v": 56
    },
    {
      "midi": 65,
      "hit": false,
      "t": 8571.43,
      "d": 1500.000250000001,
      "v": 73
    },
    {
      "midi": 69,
      "hit": false,
      "t": 8571.43,
      "d": 750.0001250000005,
      "v": 108
    },
    {
      "midi": 67,
      "hit": false,
      "t": 9428.573,
      "d": 357.1429166666676,
      "v": 107
    },
    {
      "midi": 69,
      "hit": false,
      "t": 10000.001666666667,
      "d": 71.42858333333425,
      "v": 101
    },
    {
      "midi": 67,
      "hit": false,
      "t": 10142.858833333335,
      "d": 71.42858333333425,
      "v": 101
    },
    {
      "midi": 34,
      "hit": false,
      "t": 10285.715999999999,
      "d": 1678.571708333333,
      "v": 100
    },
    {
      "midi": 58,
      "hit": false,
      "t": 10285.716,
      "d": 1500.000250000001,
      "v": 86
    },
    {
      "midi": 65,
      "hit": false,
      "t": 10285.716,
      "d": 1500.000250000001,
      "v": 58
    },
    {
      "midi": 62,
      "hit": false,
      "t": 10285.716,
      "d": 1500.000250000001,
      "v": 76
    },
    {
      "midi": 65,
      "hit": false,
      "t": 10285.716000000004,
      "d": 714.2858333333334,
      "v": 106
    },
    {
      "midi": 65,
      "hit": false,
      "t": 11142.859000000004,
      "d": 107.14287499999955,
      "v": 105
    },
    {
      "midi": 67,
      "hit": false,
      "t": 11428.573333333337,
      "d": 107.14287499999955,
      "v": 108
    },
    {
      "midi": 65,
      "hit": false,
      "t": 11714.28766666667,
      "d": 107.14287499999955,
      "v": 102
    },
    {
      "midi": 36,
      "hit": false,
      "t": 12000.001999999999,
      "d": 3421.4291416666656,
      "v": 100
    },
    {
      "midi": 69,
      "hit": false,
      "t": 12000.002,
      "d": 571.4286666666667,
      "v": 71
    },
    {
      "midi": 62,
      "hit": false,
      "t": 12000.002,
      "d": 571.4286666666667,
      "v": 74
    },
    {
      "midi": 65,
      "hit": false,
      "t": 12000.002,
      "d": 571.4286666666667,
      "v": 74
    },
    {
      "midi": 48,
      "hit": false,
      "t": 12000.002,
      "d": 2857.1433333333334,
      "v": 72
    },
    {
      "midi": 67,
      "hit": false,
      "t": 12000.002000000004,
      "d": 2285.7146666666667,
      "v": 105
    },
    {
      "midi": 67,
      "hit": false,
      "t": 12857.145,
      "d": 2142.8575,
      "v": 70
    },
    {
      "midi": 60,
      "hit": false,
      "t": 12857.145,
      "d": 2142.8575,
      "v": 70
    },
    {
      "midi": 64,
      "hit": false,
      "t": 12857.145,
      "d": 2142.8575,
      "v": 75
    },
    {
      "midi": 81,
      "hit": false,
      "t": 13714.287999999997,
      "d": 257.14290000000074,
      "v": 108
    },
    {
      "midi": 79,
      "hit": false,
      "t": 14000.00233333333,
      "d": 128.57144999999946,
      "v": 109
    },
    {
      "midi": 79,
      "hit": false,
      "t": 14285.716666666664,
      "d": 100.00001666666685,
      "v": 107
    },
    {
      "midi": 79,
      "hit": false,
      "t": 14571.430999999997,
      "d": 257.14290000000074,
      "v": 109
    },
    {
      "midi": 67,
      "hit": false,
      "t": 14571.431000000004,
      "d": 107.14287499999955,
      "v": 107
    },
    {
      "midi": 77,
      "hit": false,
      "t": 14857.14533333333,
      "d": 114.28573333333406,
      "v": 109
    },
    {
      "midi": 65,
      "hit": false,
      "t": 14857.145333333337,
      "d": 107.14287499999955,
      "v": 93
    },
    {
      "midi": 76,
      "hit": false,
      "t": 15142.859666666664,
      "d": 121.42859166666676,
      "v": 109
    },
    {
      "midi": 64,
      "hit": false,
      "t": 15142.85966666667,
      "d": 107.14287499999955,
      "v": 97
    },
    {
      "midi": 38,
      "hit": false,
      "t": 15428.573999999997,
      "d": 1721.4288583333328,
      "v": 100
    },
    {
      "midi": 74,
      "hit": false,
      "t": 15428.573999999997,
      "d": 4628.572199999999,
      "v": 75
    },
    {
      "midi": 69,
      "hit": false,
      "t": 15428.574,
      "d": 1500.000250000001,
      "v": 64
    },
    {
      "midi": 62,
      "hit": false,
      "t": 15428.574,
      "d": 1500.000250000001,
      "v": 75
    },
    {
      "midi": 65,
      "hit": false,
      "t": 15428.574,
      "d": 1500.000250000001,
      "v": 78
    },
    {
      "midi": 69,
      "hit": false,
      "t": 15428.574000000004,
      "d": 714.2858333333334,
      "v": 106
    },
    {
      "midi": 67,
      "hit": false,
      "t": 16285.717000000004,
      "d": 357.1429166666676,
      "v": 106
    },
    {
      "midi": 69,
      "hit": false,
      "t": 16857.14566666667,
      "d": 71.42858333333425,
      "v": 105
    },
    {
      "midi": 67,
      "hit": false,
      "t": 17000.00283333334,
      "d": 107.14287500000137,
      "v": 107
    },
    {
      "midi": 34,
      "hit": false,
      "t": 17142.859999999997,
      "d": 1642.8574166666658,
      "v": 100
    },
    {
      "midi": 65,
      "hit": false,
      "t": 17142.86,
      "d": 1500.000250000001,
      "v": 52
    },
    {
      "midi": 62,
      "hit": false,
      "t": 17142.86,
      "d": 1500.000250000001,
      "v": 67
    },
    {
      "midi": 58,
      "hit": false,
      "t": 17142.86,
      "d": 1500.000250000001,
      "v": 81
    },
    {
      "midi": 65,
      "hit": false,
      "t": 17142.860000000008,
      "d": 714.2858333333352,
      "v": 101
    },
    {
      "midi": 65,
      "hit": false,
      "t": 18000.00300000001,
      "d": 392.8572083333347,
      "v": 105
    },
    {
      "midi": 67,
      "hit": false,
      "t": 18571.43166666668,
      "d": 71.42858333333425,
      "v": 101
    },
    {
      "midi": 65,
      "hit": false,
      "t": 18714.288833333347,
      "d": 71.42858333333425,
      "v": 107
    },
    {
      "midi": 36,
      "hit": false,
      "t": 18857.145999999997,
      "d": 3435.714858333333,
      "v": 100
    },
    {
      "midi": 64,
      "hit": false,
      "t": 18857.146,
      "d": 3071.4290833333325,
      "v": 75
    },
    {
      "midi": 67,
      "hit": false,
      "t": 18857.146,
      "d": 3071.4290833333325,
      "v": 65
    },
    {
      "midi": 60,
      "hit": false,
      "t": 18857.146,
      "d": 3071.4290833333325,
      "v": 79
    },
    {
      "midi": 64,
      "hit": false,
      "t": 18857.146000000015,
      "d": 750.0001249999987,
      "v": 102
    },
    {
      "midi": 60,
      "hit": false,
      "t": 19714.289000000015,
      "d": 1357.1430833333325,
      "v": 105
    },
    {
      "midi": 81,
      "hit": false,
      "t": 20571.431999999997,
      "d": 271.42861666666795,
      "v": 108
    },
    {
      "midi": 79,
      "hit": false,
      "t": 20857.14633333333,
      "d": 121.42859166666676,
      "v": 108
    },
    {
      "midi": 79,
      "hit": false,
      "t": 21142.860666666664,
      "d": 114.28573333333406,
      "v": 108
    },
    {
      "midi": 79,
      "hit": false,
      "t": 21428.574999999997,
      "d": 264.2857583333316,
      "v": 108
    },
    {
      "midi": 60,
      "hit": false,
      "t": 21428.575000000015,
      "d": 142.85716666666485,
      "v": 102
    },
    {
      "midi": 77,
      "hit": false,
      "t": 21714.28933333333,
      "d": 121.42859166666676,
      "v": 107
    },
    {
      "midi": 62,
      "hit": false,
      "t": 21714.28933333335,
      "d": 142.8571666666685,
      "v": 105
    },
    {
      "midi": 76,
      "hit": false,
      "t": 22000.003666666664,
      "d": 100.00001666666503,
      "v": 109
    },
    {
      "midi": 64,
      "hit": false,
      "t": 22000.003666666686,
      "d": 142.8571666666685,
      "v": 101
    },
    {
      "midi": 38,
      "hit": false,
      "t": 22285.717999999997,
      "d": 1635.7145583333331,
      "v": 100
    },
    {
      "midi": 74,
      "hit": false,
      "t": 22285.717999999997,
      "d": 1378.5716583333342,
      "v": 85
    },
    {
      "midi": 69,
      "hit": false,
      "t": 22285.718,
      "d": 1500.000250000001,
      "v": 73
    },
    {
      "midi": 62,
      "hit": false,
      "t": 22285.718,
      "d": 1500.000250000001,
      "v": 78
    },
    {
      "midi": 65,
      "hit": false,
      "t": 22285.718,
      "d": 1500.000250000001,
      "v": 79
    },
    {
      "midi": 69,
      "hit": false,
      "t": 22285.718000000023,
      "d": 800.0001333333348,
      "v": 103
    },
    {
      "midi": 69,
      "hit": false,
      "t": 23142.861000000023,
      "d": 250.00004166666622,
      "v": 106
    },
    {
      "midi": 67,
      "hit": false,
      "t": 23714.28966666669,
      "d": 185.71431666666467,
      "v": 100
    },
    {
      "midi": 65,
      "hit": false,
      "t": 23857.146833333354,
      "d": 185.71431666666467,
      "v": 105
    },
    {
      "midi": 33,
      "hit": false,
      "t": 24000.003999999997,
      "d": 1728.5717166666655,
      "v": 100
    },
    {
      "midi": 64,
      "hit": false,
      "t": 24000.004,
      "d": 1500.000250000001,
      "v": 69
    },
    {
      "midi": 57,
      "hit": false,
      "t": 24000.004,
      "d": 1500.000250000001,
      "v": 83
    },
    {
      "midi": 60,
      "hit": false,
      "t": 24000.004,
      "d": 1500.000250000001,
      "v": 78
    },
    {
      "midi": 64,
      "hit": false,
      "t": 24000.00400000002,
      "d": 1714.286,
      "v": 108
    },
    {
      "midi": 76,
      "hit": false,
      "t": 24928.57558333333,
      "d": 242.85718333333352,
      "v": 115
    },
    {
      "midi": 77,
      "hit": false,
      "t": 25214.289916666665,
      "d": 121.42859166666676,
      "v": 114
    },
    {
      "midi": 79,
      "hit": false,
      "t": 25492.861391666665,
      "d": 121.42859166666676,
      "v": 117
    },
    {
      "midi": 34,
      "hit": false,
      "t": 25714.289999999997,
      "d": 1692.8574249999983,
      "v": 100
    },
    {
      "midi": 58,
      "hit": false,
      "t": 25714.29,
      "d": 1500.000250000001,
      "v": 88
    },
    {
      "midi": 65,
      "hit": false,
      "t": 25714.29,
      "d": 1500.000250000001,
      "v": 70
    },
    {
      "midi": 62,
      "hit": false,
      "t": 25714.29,
      "d": 1500.000250000001,
      "v": 76
    },
    {
      "midi": 45,
      "hit": false,
      "t": 25714.29,
      "d": 821.4287083333329,
      "v": 67
    },
    {
      "midi": 77,
      "hit": false,
      "t": 25800.0043,
      "d": 1392.8573749999996,
      "v": 93
    },
    {
      "midi": 41,
      "hit": false,
      "t": 26571.433,
      "d": 871.4287166666654,
      "v": 69
    },
    {
      "midi": 65,
      "hit": false,
      "t": 26642.861583333353,
      "d": 178.57145833333198,
      "v": 106
    },
    {
      "midi": 67,
      "hit": false,
      "t": 26928.575916666687,
      "d": 142.85716666666485,
      "v": 105
    },
    {
      "midi": 69,
      "hit": false,
      "t": 27207.147391666684,
      "d": 142.85716666666485,
      "v": 107
    },
    {
      "midi": 29,
      "hit": false,
      "t": 27428.575999999997,
      "d": 1692.8574249999983,
      "v": 100
    },
    {
      "midi": 57,
      "hit": false,
      "t": 27428.576,
      "d": 1500.000250000001,
      "v": 71
    },
    {
      "midi": 53,
      "hit": false,
      "t": 27428.576,
      "d": 1500.000250000001,
      "v": 78
    },
    {
      "midi": 60,
      "hit": false,
      "t": 27428.576,
      "d": 1500.000250000001,
      "v": 71
    },
    {
      "midi": 45,
      "hit": false,
      "t": 27428.576,
      "d": 814.2858500000002,
      "v": 69
    },
    {
      "midi": 65,
      "hit": false,
      "t": 27514.290300000015,
      "d": 1428.5716666666667,
      "v": 106
    },
    {
      "midi": 41,
      "hit": false,
      "t": 28285.719,
      "d": 614.2858166666665,
      "v": 81
    },
    {
      "midi": 33,
      "hit": false,
      "t": 29142.861999999997,
      "d": 1707.1431416666674,
      "v": 100
    },
    {
      "midi": 45,
      "hit": false,
      "t": 29142.862,
      "d": 657.1429666666663,
      "v": 87
    },
    {
      "midi": 33,
      "hit": false,
      "t": 29142.862,
      "d": 1571.4288333333316,
      "v": 125
    },
    {
      "midi": 52,
      "hit": false,
      "t": 29142.862,
      "d": 214.2857499999991,
      "v": 107
    },
    {
      "midi": 51,
      "hit": false,
      "t": 29142.862,
      "d": 214.2857499999991,
      "v": 100
    },
    {
      "midi": 49,
      "hit": false,
      "t": 29142.862,
      "d": 214.2857499999991,
      "v": 100
    },
    {
      "midi": 64,
      "hit": false,
      "t": 29142.862000000005,
      "d": 1500.000250000001,
      "v": 65
    },
    {
      "midi": 57,
      "hit": false,
      "t": 29142.862000000005,
      "d": 1500.000250000001,
      "v": 76
    },
    {
      "midi": 60,
      "hit": false,
      "t": 29142.862000000005,
      "d": 1500.000250000001,
      "v": 74
    },
    {
      "midi": 41,
      "hit": false,
      "t": 30000.005,
      "d": 735.7144083333333,
      "v": 87
    },
    {
      "midi": 48,
      "hit": false,
      "t": 30000.005,
      "d": 214.2857499999991,
      "v": 107
    },
    {
      "midi": 29,
      "hit": false,
      "t": 30857.147999999997,
      "d": 1678.571708333333,
      "v": 100
    },
    {
      "midi": 45,
      "hit": false,
      "t": 30857.148,
      "d": 742.857266666666,
      "v": 87
    },
    {
      "midi": 29,
      "hit": false,
      "t": 30857.148,
      "d": 1571.4288333333316,
      "v": 123
    },
    {
      "midi": 50,
      "hit": false,
      "t": 30857.148,
      "d": 214.2857499999991,
      "v": 107
    },
    {
      "midi": 49,
      "hit": false,
      "t": 30857.148,
      "d": 214.2857499999991,
      "v": 100
    },
    {
      "midi": 60,
      "hit": false,
      "t": 30857.148000000005,
      "d": 1500.000250000001,
      "v": 79
    },
    {
      "midi": 53,
      "hit": false,
      "t": 30857.148000000005,
      "d": 1500.000250000001,
      "v": 79
    },
    {
      "midi": 57,
      "hit": false,
      "t": 30857.148000000005,
      "d": 1500.000250000001,
      "v": 69
    },
    {
      "midi": 41,
      "hit": false,
      "t": 31714.291,
      "d": 700.0001166666661,
      "v": 87
    },
    {
      "midi": 45,
      "hit": false,
      "t": 31714.291,
      "d": 214.2857499999991,
      "v": 107
    },
    {
      "midi": 33,
      "hit": false,
      "t": 32571.433999999997,
      "d": 1642.8574166666695,
      "v": 100
    },
    {
      "midi": 45,
      "hit": false,
      "t": 32571.434,
      "d": 785.7144166666694,
      "v": 87
    },
    {
      "midi": 33,
      "hit": false,
      "t": 32571.434,
      "d": 1571.4288333333316,
      "v": 125
    },
    {
      "midi": 52,
      "hit": false,
      "t": 32571.434,
      "d": 214.28575000000274,
      "v": 107
    },
    {
      "midi": 59,
      "hit": false,
      "t": 32571.434,
      "d": 214.28575000000274,
      "v": 90
    },
    {
      "midi": 57,
      "hit": false,
      "t": 32571.434,
      "d": 214.28575000000274,
      "v": 95
    },
    {
      "midi": 49,
      "hit": false,
      "t": 32571.434,
      "d": 214.28575000000274,
      "v": 95
    },
    {
      "midi": 64,
      "hit": false,
      "t": 32571.434000000005,
      "d": 1500.000250000001,
      "v": 73
    },
    {
      "midi": 57,
      "hit": false,
      "t": 32571.434000000005,
      "d": 1500.000250000001,
      "v": 77
    },
    {
      "midi": 60,
      "hit": false,
      "t": 32571.434000000005,
      "d": 1500.000250000001,
      "v": 73
    },
    {
      "midi": 41,
      "hit": false,
      "t": 33428.577000000005,
      "d": 764.285841666664,
      "v": 87
    },
    {
      "midi": 48,
      "hit": false,
      "t": 33428.577000000005,
      "d": 214.28575000000274,
      "v": 107
    },
    {
      "midi": 28,
      "hit": false,
      "t": 34285.72,
      "d": 1721.4288583333328,
      "v": 100
    },
    {
      "midi": 45,
      "hit": false,
      "t": 34285.72,
      "d": 792.8572750000021,
      "v": 87
    },
    {
      "midi": 28,
      "hit": false,
      "t": 34285.72,
      "d": 1571.4288333333316,
      "v": 123
    },
    {
      "midi": 51,
      "hit": false,
      "t": 34285.72,
      "d": 214.28575000000274,
      "v": 95
    },
    {
      "midi": 49,
      "hit": false,
      "t": 34285.72,
      "d": 214.28575000000274,
      "v": 95
    },
    {
      "midi": 52,
      "hit": false,
      "t": 34285.72000000001,
      "d": 1500.0002499999973,
      "v": 76
    },
    {
      "midi": 55,
      "hit": false,
      "t": 34285.72000000001,
      "d": 1500.0002499999973,
      "v": 78
    },
    {
      "midi": 59,
      "hit": false,
      "t": 34285.72000000001,
      "d": 1500.0002499999973,
      "v": 74
    },
    {
      "midi": 50,
      "hit": false,
      "t": 34285.72000000001,
      "d": 214.28575000000274,
      "v": 107
    },
    {
      "midi": 41,
      "hit": false,
      "t": 35142.863000000005,
      "d": 800.0001333333348,
      "v": 87
    },
    {
      "midi": 45,
      "hit": false,
      "t": 35142.86300000001,
      "d": 214.28575000000274,
      "v": 107
    },
    {
      "midi": 59,
      "hit": false,
      "t": 35957.148850000005,
      "d": 214.28575000000274,
      "v": 95
    },
    {
      "midi": 57,
      "hit": false,
      "t": 35957.148850000005,
      "d": 214.28575000000274,
      "v": 101
    },
    {
      "midi": 33,
      "hit": false,
      "t": 36000.006,
      "d": 1621.4288416666677,
      "v": 100
    },
    {
      "midi": 33,
      "hit": false,
      "t": 36000.006,
      "d": 1571.4288333333316,
      "v": 125
    },
    {
      "midi": 64,
      "hit": false,
      "t": 36000.00600000001,
      "d": 1500.0002499999973,
      "v": 70
    },
    {
      "midi": 57,
      "hit": false,
      "t": 36000.00600000001,
      "d": 1500.0002499999973,
      "v": 71
    },
    {
      "midi": 60,
      "hit": false,
      "t": 36000.00600000001,
      "d": 1500.0002499999973,
      "v": 71
    },
    {
      "midi": 45,
      "hit": false,
      "t": 36000.00600000001,
      "d": 750.0001249999987,
      "v": 87
    },
    {
      "midi": 49,
      "hit": false,
      "t": 36000.00600000001,
      "d": 214.28575000000274,
      "v": 95
    },
    {
      "midi": 52,
      "hit": false,
      "t": 36000.006000000016,
      "d": 214.28575000000274,
      "v": 107
    },
    {
      "midi": 41,
      "hit": false,
      "t": 36857.149000000005,
      "d": 750.0001249999987,
      "v": 87
    },
    {
      "midi": 48,
      "hit": false,
      "t": 36857.14900000002,
      "d": 214.28575000000274,
      "v": 107
    },
    {
      "midi": 29,
      "hit": false,
      "t": 37714.292,
      "d": 1750.0002916666635,
      "v": 100
    },
    {
      "midi": 45,
      "hit": false,
      "t": 37714.292,
      "d": 807.1429916666675,
      "v": 87
    },
    {
      "midi": 29,
      "hit": false,
      "t": 37714.292,
      "d": 1571.4288333333316,
      "v": 123
    },
    {
      "midi": 53,
      "hit": false,
      "t": 37714.29200000001,
      "d": 1500.0002499999973,
      "v": 69
    },
    {
      "midi": 60,
      "hit": false,
      "t": 37714.29200000001,
      "d": 1500.0002499999973,
      "v": 73
    },
    {
      "midi": 57,
      "hit": false,
      "t": 37714.29200000001,
      "d": 1500.0002499999973,
      "v": 70
    },
    {
      "midi": 49,
      "hit": false,
      "t": 37714.29200000001,
      "d": 214.28575000000274,
      "v": 95
    },
    {
      "midi": 50,
      "hit": false,
      "t": 37714.29200000002,
      "d": 214.28575000000274,
      "v": 107
    },
    {
      "midi": 41,
      "hit": false,
      "t": 38571.435000000005,
      "d": 828.5715666666656,
      "v": 87
    },
    {
      "midi": 45,
      "hit": false,
      "t": 38571.43500000003,
      "d": 214.28575000000274,
      "v": 107
    },
    {
      "midi": 59,
      "hit": false,
      "t": 39364.292275000014,
      "d": 214.28575000000274,
      "v": 101
    },
    {
      "midi": 57,
      "hit": false,
      "t": 39364.292275000014,
      "d": 214.28575000000274,
      "v": 103
    },
    {
      "midi": 30,
      "hit": false,
      "t": 39428.578,
      "d": 1721.4288583333328,
      "v": 100
    },
    {
      "midi": 49,
      "hit": false,
      "t": 39428.578,
      "d": 250.00004166666622,
      "v": 87
    },
    {
      "midi": 30,
      "hit": false,
      "t": 39428.578,
      "d": 1571.4288333333316,
      "v": 127
    },
    {
      "midi": 60,
      "hit": false,
      "t": 39428.57800000001,
      "d": 1500.0002499999973,
      "v": 80
    },
    {
      "midi": 57,
      "hit": false,
      "t": 39428.57800000001,
      "d": 1500.0002499999973,
      "v": 80
    },
    {
      "midi": 54,
      "hit": false,
      "t": 39428.57800000001,
      "d": 1500.0002499999973,
      "v": 91
    },
    {
      "midi": 49,
      "hit": false,
      "t": 39428.578000000016,
      "d": 214.28575000000274,
      "v": 95
    },
    {
      "midi": 48,
      "hit": false,
      "t": 39428.57800000003,
      "d": 214.28575000000274,
      "v": 107
    },
    {
      "midi": 44,
      "hit": false,
      "t": 39714.29233333333,
      "d": 121.4285916666704,
      "v": 87
    },
    {
      "midi": 49,
      "hit": false,
      "t": 40000.00666666667,
      "d": 57.14286666666885,
      "v": 87
    },
    {
      "midi": 49,
      "hit": false,
      "t": 40285.721000000005,
      "d": 242.85718333333352,
      "v": 87
    },
    {
      "midi": 44,
      "hit": false,
      "t": 40571.43533333334,
      "d": 235.71432500000083,
      "v": 87
    },
    {
      "midi": 49,
      "hit": false,
      "t": 40857.14966666668,
      "d": 107.14287499999773,
      "v": 87
    },
    {
      "midi": 31,
      "hit": false,
      "t": 41142.864,
      "d": 1657.1431333333312,
      "v": 100
    },
    {
      "midi": 31,
      "hit": false,
      "t": 41142.864,
      "d": 1571.4288333333316,
      "v": 123
    },
    {
      "midi": 62,
      "hit": false,
      "t": 41142.86400000001,
      "d": 1500.0002499999973,
      "v": 80
    },
    {
      "midi": 55,
      "hit": false,
      "t": 41142.86400000001,
      "d": 1500.0002499999973,
      "v": 80
    },
    {
      "midi": 59,
      "hit": false,
      "t": 41142.86400000001,
      "d": 1500.0002499999973,
      "v": 80
    },
    {
      "midi": 48,
      "hit": false,
      "t": 41142.86400000001,
      "d": 271.4286166666643,
      "v": 87
    },
    {
      "midi": 49,
      "hit": false,
      "t": 41142.864000000016,
      "d": 214.28575000000274,
      "v": 95
    },
    {
      "midi": 43,
      "hit": false,
      "t": 41428.57833333334,
      "d": 192.85717500000464,
      "v": 87
    },
    {
      "midi": 48,
      "hit": false,
      "t": 41714.292666666675,
      "d": 78.57144166666694,
      "v": 87
    },
    {
      "midi": 48,
      "hit": false,
      "t": 42000.007000000005,
      "d": 257.1428999999989,
      "v": 87
    },
    {
      "midi": 43,
      "hit": false,
      "t": 42285.721333333335,
      "d": 235.71432500000083,
      "v": 87
    },
    {
      "midi": 48,
      "hit": false,
      "t": 42571.43566666667,
      "d": 171.42859999999928,
      "v": 87
    },
    {
      "midi": 33,
      "hit": false,
      "t": 42857.15,
      "d": 1685.7145666666693,
      "v": 100
    },
    {
      "midi": 64,
      "hit": false,
      "t": 42857.15000000001,
      "d": 1500.0002499999973,
      "v": 80
    },
    {
      "midi": 57,
      "hit": false,
      "t": 42857.15000000001,
      "d": 1500.0002499999973,
      "v": 80
    },
    {
      "midi": 60,
      "hit": false,
      "t": 42857.15000000001,
      "d": 1500.0002499999973,
      "v": 80
    },
    {
      "midi": 59,
      "hit": false,
      "t": 42857.150000000016,
      "d": 214.28575000000274,
      "v": 93
    },
    {
      "midi": 57,
      "hit": false,
      "t": 42857.150000000016,
      "d": 214.28575000000274,
      "v": 101
    },
    {
      "midi": 72,
      "hit": false,
      "t": 42864.29285833333,
      "d": 828.5715666666656,
      "v": 106
    },
    {
      "midi": 49,
      "hit": false,
      "t": 43714.293000000005,
      "d": 171.42859999999928,
      "v": 87
    },
    {
      "midi": 69,
      "hit": false,
      "t": 43742.86443333333,
      "d": 235.71432500000083,
      "v": 102
    },
    {
      "midi": 44,
      "hit": false,
      "t": 44000.007333333335,
      "d": 178.57145833333925,
      "v": 87
    },
    {
      "midi": 71,
      "hit": false,
      "t": 44007.15019166666,
      "d": 250.00004166666622,
      "v": 103
    },
    {
      "midi": 67,
      "hit": false,
      "t": 44257.15023333333,
      "d": 271.4286166666643,
      "v": 105
    },
    {
      "midi": 49,
      "hit": false,
      "t": 44285.72166666668,
      "d": 142.85716666666121,
      "v": 87
    },
    {
      "midi": 29,
      "hit": false,
      "t": 44571.436,
      "d": 1671.4288499999966,
      "v": 100
    },
    {
      "midi": 53,
      "hit": false,
      "t": 44571.43600000001,
      "d": 1500.0002499999973,
      "v": 80
    },
    {
      "midi": 60,
      "hit": false,
      "t": 44571.43600000001,
      "d": 1500.0002499999973,
      "v": 80
    },
    {
      "midi": 57,
      "hit": false,
      "t": 44571.43600000001,
      "d": 1500.0002499999973,
      "v": 80
    },
    {
      "midi": 44,
      "hit": false,
      "t": 44571.43600000001,
      "d": 585.7143833333321,
      "v": 87
    },
    {
      "midi": 69,
      "hit": false,
      "t": 44578.57885833333,
      "d": 585.7143833333321,
      "v": 102
    },
    {
      "midi": 57,
      "hit": false,
      "t": 44857.15033333333,
      "d": 114.28573333333043,
      "v": 91
    },
    {
      "midi": 59,
      "hit": false,
      "t": 45150.00752499999,
      "d": 92.85715833333234,
      "v": 95
    },
    {
      "midi": 64,
      "hit": false,
      "t": 45178.578958333324,
      "d": 1135.7144750000007,
      "v": 105
    },
    {
      "midi": 43,
      "hit": false,
      "t": 45428.579000000005,
      "d": 207.14289166667004,
      "v": 87
    },
    {
      "midi": 60,
      "hit": false,
      "t": 45457.15043333333,
      "d": 485.71436666666705,
      "v": 97
    },
    {
      "midi": 48,
      "hit": false,
      "t": 45714.29333333334,
      "d": 171.42859999999928,
      "v": 87
    },
    {
      "midi": 43,
      "hit": false,
      "t": 46000.00766666667,
      "d": 192.85717499999737,
      "v": 87
    },
    {
      "midi": 60,
      "hit": false,
      "t": 46071.43625,
      "d": 107.14287499999773,
      "v": 99
    },
    {
      "midi": 59,
      "hit": false,
      "t": 46185.72198333333,
      "d": 135.7143083333358,
      "v": 97
    },
    {
      "midi": 33,
      "hit": false,
      "t": 46285.722,
      "d": 1657.1431333333312,
      "v": 100
    },
    {
      "midi": 57,
      "hit": false,
      "t": 46285.72200000001,
      "d": 1500.0002499999973,
      "v": 80
    },
    {
      "midi": 64,
      "hit": false,
      "t": 46285.72200000001,
      "d": 1500.0002499999973,
      "v": 80
    },
    {
      "midi": 60,
      "hit": false,
      "t": 46285.72200000001,
      "d": 1500.0002499999973,
      "v": 80
    },
    {
      "midi": 57,
      "hit": false,
      "t": 46328.57915,
      "d": 1507.14310833333,
      "v": 96
    },
    {
      "midi": 64,
      "hit": false,
      "t": 46607.150624999995,
      "d": 271.4286166666643,
      "v": 102
    },
    {
      "midi": 62,
      "hit": false,
      "t": 46857.15066666666,
      "d": 278.571474999997,
      "v": 103
    },
    {
      "midi": 49,
      "hit": false,
      "t": 47142.865000000005,
      "d": 192.85717499999737,
      "v": 87
    },
    {
      "midi": 60,
      "hit": false,
      "t": 47185.722149999994,
      "d": 578.5715249999994,
      "v": 105
    },
    {
      "midi": 44,
      "hit": false,
      "t": 47428.579333333335,
      "d": 192.85717499999737,
      "v": 87
    },
    {
      "midi": 49,
      "hit": false,
      "t": 47714.293666666665,
      "d": 157.14288333333388,
      "v": 87
    },
    {
      "midi": 62,
      "hit": false,
      "t": 47785.72224999999,
      "d": 142.8571666666685,
      "v": 104
    },
    {
      "midi": 60,
      "hit": false,
      "t": 47885.72226666666,
      "d": 207.14289166667004,
      "v": 104
    },
    {
      "midi": 28,
      "hit": false,
      "t": 48000.008,
      "d": 1728.5717166666655,
      "v": 100
    },
    {
      "midi": 44,
      "hit": false,
      "t": 48000.008,
      "d": 614.2858166666701,
      "v": 87
    },
    {
      "midi": 52,
      "hit": false,
      "t": 48000.00800000001,
      "d": 1500.0002499999973,
      "v": 80
    },
    {
      "midi": 59,
      "hit": false,
      "t": 48000.00800000001,
      "d": 1500.0002499999973,
      "v": 80
    },
    {
      "midi": 55,
      "hit": false,
      "t": 48000.00800000001,
      "d": 1500.0002499999973,
      "v": 80
    },
    {
      "midi": 59,
      "hit": false,
      "t": 48085.722299999994,
      "d": 1364.2859416666688,
      "v": 104
    },
    {
      "midi": 57,
      "hit": false,
      "t": 48292.865191666664,
      "d": 107.14287499999773,
      "v": 90
    },
    {
      "midi": 59,
      "hit": false,
      "t": 48578.579524999994,
      "d": 107.14287499999773,
      "v": 96
    },
    {
      "midi": 43,
      "hit": false,
      "t": 48857.151000000005,
      "d": 221.42860833333543,
      "v": 87
    },
    {
      "midi": 60,
      "hit": false,
      "t": 48878.57957499999,
      "d": 442.8572166666636,
      "v": 90
    },
    {
      "midi": 48,
      "hit": false,
      "t": 49142.86533333334,
      "d": 192.85717499999737,
      "v": 87
    },
    {
      "midi": 43,
      "hit": false,
      "t": 49428.57966666667,
      "d": 228.57146666666813,
      "v": 87
    },
    {
      "midi": 60,
      "hit": false,
      "t": 49507.15110833332,
      "d": 121.42859166666312,
      "v": 96
    },
    {
      "midi": 59,
      "hit": false,
      "t": 49635.72255833331,
      "d": 150.0000250000012,
      "v": 93
    },
    {
      "midi": 33,
      "hit": false,
      "t": 49714.294,
      "d": 1671.4288499999966,
      "v": 100
    },
    {
      "midi": 64,
      "hit": false,
      "t": 49714.29400000001,
      "d": 1500.0002499999973,
      "v": 80
    },
    {
      "midi": 57,
      "hit": false,
      "t": 49714.29400000001,
      "d": 1500.0002499999973,
      "v": 80
    },
    {
      "midi": 60,
      "hit": false,
      "t": 49714.29400000001,
      "d": 1500.0002499999973,
      "v": 80
    },
    {
      "midi": 72,
      "hit": false,
      "t": 49750.008291666665,
      "d": 828.5715666666656,
      "v": 104
    },
    {
      "midi": 57,
      "hit": false,
      "t": 49778.57972499998,
      "d": 1450.0002416666684,
      "v": 91
    },
    {
      "midi": 49,
      "hit": false,
      "t": 50571.437000000005,
      "d": 214.28575000000274,
      "v": 87
    },
    {
      "midi": 69,
      "hit": false,
      "t": 50592.865574999996,
      "d": 242.85718333333352,
      "v": 101
    },
    {
      "midi": 71,
      "hit": false,
      "t": 50842.86561666666,
      "d": 264.2857583333316,
      "v": 102
    },
    {
      "midi": 44,
      "hit": false,
      "t": 50857.15133333334,
      "d": 192.85717499999737,
      "v": 87
    },
    {
      "midi": 67,
      "hit": false,
      "t": 51121.43709166666,
      "d": 314.28576666666777,
      "v": 100
    },
    {
      "midi": 49,
      "hit": false,
      "t": 51142.86566666667,
      "d": 157.14288333333388,
      "v": 87
    },
    {
      "midi": 29,
      "hit": false,
      "t": 51428.58,
      "d": 1814.286016666665,
      "v": 100
    },
    {
      "midi": 60,
      "hit": false,
      "t": 51428.58000000001,
      "d": 1500.0002499999973,
      "v": 80
    },
    {
      "midi": 53,
      "hit": false,
      "t": 51428.58000000001,
      "d": 1500.0002499999973,
      "v": 80
    },
    {
      "midi": 57,
      "hit": false,
      "t": 51428.58000000001,
      "d": 1500.0002499999973,
      "v": 80
    },
    {
      "midi": 43,
      "hit": false,
      "t": 51428.58000000001,
      "d": 721.4286916666679,
      "v": 87
    },
    {
      "midi": 69,
      "hit": false,
      "t": 51464.29429166666,
      "d": 535.7143750000032,
      "v": 101
    },
    {
      "midi": 57,
      "hit": false,
      "t": 51728.58004999998,
      "d": 121.42859166666312,
      "v": 92
    },
    {
      "midi": 59,
      "hit": false,
      "t": 51992.865808333314,
      "d": 114.28573333333043,
      "v": 98
    },
    {
      "midi": 64,
      "hit": false,
      "t": 52028.58009999999,
      "d": 1100.00018333333,
      "v": 102
    },
    {
      "midi": 43,
      "hit": false,
      "t": 52285.72300000001,
      "d": 278.571474999997,
      "v": 87
    },
    {
      "midi": 60,
      "hit": false,
      "t": 52292.86585833331,
      "d": 657.1429666666663,
      "v": 95
    },
    {
      "midi": 48,
      "hit": false,
      "t": 52571.43733333334,
      "d": 171.42859999999928,
      "v": 87
    },
    {
      "midi": 43,
      "hit": false,
      "t": 52857.15166666667,
      "d": 157.14288333333388,
      "v": 87
    },
    {
      "midi": 30,
      "hit": false,
      "t": 53142.866,
      "d": 1664.285991666664,
      "v": 100
    },
    {
      "midi": 60,
      "hit": false,
      "t": 53142.86600000001,
      "d": 1500.0002499999973,
      "v": 80
    },
    {
      "midi": 54,
      "hit": false,
      "t": 53142.86600000001,
      "d": 1500.0002499999973,
      "v": 80
    },
    {
      "midi": 57,
      "hit": false,
      "t": 53142.86600000001,
      "d": 1500.0002499999973,
      "v": 80
    },
    {
      "midi": 49,
      "hit": false,
      "t": 53142.86600000001,
      "d": 250.00004166666622,
      "v": 87
    },
    {
      "midi": 60,
      "hit": false,
      "t": 53178.58029166664,
      "d": 278.571474999997,
      "v": 92
    },
    {
      "midi": 66,
      "hit": false,
      "t": 53185.72314999999,
      "d": 1092.8573249999972,
      "v": 103
    },
    {
      "midi": 44,
      "hit": false,
      "t": 53428.58033333334,
      "d": 171.42859999999928,
      "v": 87
    },
    {
      "midi": 59,
      "hit": false,
      "t": 53442.866049999975,
      "d": 171.42859999999928,
      "v": 88
    },
    {
      "midi": 57,
      "hit": false,
      "t": 53707.15180833331,
      "d": 121.42859166666312,
      "v": 91
    },
    {
      "midi": 49,
      "hit": false,
      "t": 53714.29466666667,
      "d": 71.42858333333425,
      "v": 87
    },
    {
      "midi": 49,
      "hit": false,
      "t": 54000.009000000005,
      "d": 271.4286166666643,
      "v": 87
    },
    {
      "midi": 60,
      "hit": false,
      "t": 54028.5804333333,
      "d": 235.71432500000083,
      "v": 95
    },
    {
      "midi": 44,
      "hit": false,
      "t": 54285.723333333335,
      "d": 314.2857666666605,
      "v": 87
    },
    {
      "midi": 59,
      "hit": false,
      "t": 54292.86619166663,
      "d": 164.28574166666658,
      "v": 97
    },
    {
      "midi": 64,
      "hit": false,
      "t": 54307.15190833332,
      "d": 264.2857583333316,
      "v": 109
    },
    {
      "midi": 57,
      "hit": false,
      "t": 54557.15194999996,
      "d": 135.7143083333358,
      "v": 95
    },
    {
      "midi": 49,
      "hit": false,
      "t": 54571.437666666665,
      "d": 114.28573333333043,
      "v": 87
    },
    {
      "midi": 66,
      "hit": false,
      "t": 54578.58052499998,
      "d": 321.42862500000047,
      "v": 103
    },
    {
      "midi": 62,
      "hit": false,
      "t": 54857.151999999965,
      "d": 307.1429083333351,
      "v": 93
    },
    {
      "midi": 48,
      "hit": false,
      "t": 54857.151999999995,
      "d": 271.4286166666643,
      "v": 87
    },
    {
      "midi": 31,
      "hit": false,
      "t": 54857.152,
      "d": 1464.2859583333338,
      "v": 100
    },
    {
      "midi": 55,
      "hit": false,
      "t": 54857.15200000001,
      "d": 1557.1431166666662,
      "v": 82
    },
    {
      "midi": 59,
      "hit": false,
      "t": 54857.15200000001,
      "d": 1571.4288333333316,
      "v": 82
    },
    {
      "midi": 62,
      "hit": false,
      "t": 54857.15200000001,
      "d": 1592.8574083333297,
      "v": 75
    },
    {
      "midi": 67,
      "hit": false,
      "t": 54907.152008333316,
      "d": 1542.8574000000008,
      "v": 106
    },
    {
      "midi": 43,
      "hit": false,
      "t": 55142.866333333324,
      "d": 364.2857750000039,
      "v": 87
    },
    {
      "midi": 60,
      "hit": false,
      "t": 55150.009191666635,
      "d": 135.71430833332852,
      "v": 92
    },
    {
      "midi": 59,
      "hit": false,
      "t": 55414.29494999997,
      "d": 114.28573333333043,
      "v": 96
    },
    {
      "midi": 48,
      "hit": false,
      "t": 55428.58066666666,
      "d": 92.85715833333234,
      "v": 87
    },
    {
      "midi": 48,
      "hit": false,
      "t": 55714.29499999999,
      "d": 250.00004166666622,
      "v": 87
    },
    {
      "midi": 62,
      "hit": false,
      "t": 55728.58071666663,
      "d": 278.571474999997,
      "v": 95
    },
    {
      "midi": 60,
      "hit": false,
      "t": 55985.723616666626,
      "d": 185.71431666666467,
      "v": 96
    },
    {
      "midi": 43,
      "hit": false,
      "t": 56000.00933333332,
      "d": 292.8571916666697,
      "v": 87
    },
    {
      "midi": 59,
      "hit": false,
      "t": 56250.00937499996,
      "d": 107.14287499999773,
      "v": 90
    },
    {
      "midi": 48,
      "hit": false,
      "t": 56285.72366666666,
      "d": 135.7143083333358,
      "v": 87
    },
    {
      "midi": 64,
      "hit": false,
      "t": 56571.438,
      "d": 1500.0002499999973,
      "v": 80
    },
    {
      "midi": 33,
      "hit": false,
      "t": 56571.438,
      "d": 1685.7145666666693,
      "v": 100
    },
    {
      "midi": 72,
      "hit": false,
      "t": 56578.58085833332,
      "d": 828.5715666666656,
      "v": 106
    },
    {
      "midi": 69,
      "hit": false,
      "t": 57457.15243333332,
      "d": 235.71432500000083,
      "v": 102
    },
    {
      "midi": 71,
      "hit": false,
      "t": 57721.43819166665,
      "d": 292.8571916666697,
      "v": 103
    },
    {
      "midi": 67,
      "hit": false,
      "t": 57971.43823333332,
      "d": 292.8571916666697,
      "v": 105
    },
    {
      "midi": 53,
      "hit": false,
      "t": 58285.724,
      "d": 1500.0002499999973,
      "v": 80
    },
    {
      "midi": 60,
      "hit": false,
      "t": 58285.724,
      "d": 1500.0002499999973,
      "v": 80
    },
    {
      "midi": 57,
      "hit": false,
      "t": 58285.724,
      "d": 1500.0002499999973,
      "v": 80
    },
    {
      "midi": 29,
      "hit": false,
      "t": 58285.724,
      "d": 1671.4288499999966,
      "v": 100
    },
    {
      "midi": 69,
      "hit": false,
      "t": 58292.86685833332,
      "d": 585.7143833333321,
      "v": 102
    },
    {
      "midi": 57,
      "hit": false,
      "t": 58571.43833333329,
      "d": 114.28573333333043,
      "v": 91
    },
    {
      "midi": 59,
      "hit": false,
      "t": 58864.29552499995,
      "d": 92.85715833333234,
      "v": 95
    },
    {
      "midi": 64,
      "hit": false,
      "t": 58892.86695833332,
      "d": 1135.7144750000007,
      "v": 105
    },
    {
      "midi": 60,
      "hit": false,
      "t": 59171.438433333286,
      "d": 485.71436666666705,
      "v": 97
    },
    {
      "midi": 60,
      "hit": false,
      "t": 59785.724249999956,
      "d": 107.14287499999773,
      "v": 99
    },
    {
      "midi": 59,
      "hit": false,
      "t": 59900.009983333286,
      "d": 135.7143083333358,
      "v": 97
    },
    {
      "midi": 57,
      "hit": false,
      "t": 60000.01,
      "d": 1500.0002499999973,
      "v": 80
    },
    {
      "midi": 64,
      "hit": false,
      "t": 60000.01,
      "d": 1500.0002499999973,
      "v": 80
    },
    {
      "midi": 60,
      "hit": false,
      "t": 60000.01,
      "d": 1500.0002499999973,
      "v": 80
    },
    {
      "midi": 33,
      "hit": false,
      "t": 60000.01,
      "d": 1657.1431333333312,
      "v": 100
    },
    {
      "midi": 57,
      "hit": false,
      "t": 60042.867149999955,
      "d": 1507.14310833333,
      "v": 96
    },
    {
      "midi": 64,
      "hit": false,
      "t": 60321.43862499999,
      "d": 271.4286166666643,
      "v": 102
    },
    {
      "midi": 62,
      "hit": false,
      "t": 60571.438666666654,
      "d": 278.571474999997,
      "v": 103
    },
    {
      "midi": 60,
      "hit": false,
      "t": 60900.01014999999,
      "d": 578.5715249999994,
      "v": 105
    },
    {
      "midi": 62,
      "hit": false,
      "t": 61500.010249999985,
      "d": 142.8571666666685,
      "v": 104
    },
    {
      "midi": 60,
      "hit": false,
      "t": 61600.01026666665,
      "d": 207.14289166667004,
      "v": 104
    },
    {
      "midi": 52,
      "hit": false,
      "t": 61714.296,
      "d": 1500.0002499999973,
      "v": 80
    },
    {
      "midi": 59,
      "hit": false,
      "t": 61714.296,
      "d": 1500.0002499999973,
      "v": 80
    },
    {
      "midi": 55,
      "hit": false,
      "t": 61714.296,
      "d": 1500.0002499999973,
      "v": 80
    },
    {
      "midi": 28,
      "hit": false,
      "t": 61714.296,
      "d": 1728.5717166666655,
      "v": 100
    },
    {
      "midi": 59,
      "hit": false,
      "t": 61800.01029999999,
      "d": 1364.2859416666688,
      "v": 104
    },
    {
      "midi": 57,
      "hit": false,
      "t": 62007.15319166662,
      "d": 107.14287499999773,
      "v": 90
    },
    {
      "midi": 59,
      "hit": false,
      "t": 62292.86752499995,
      "d": 107.14287499999773,
      "v": 96
    },
    {
      "midi": 60,
      "hit": false,
      "t": 62592.867574999946,
      "d": 442.8572166666636,
      "v": 90
    },
    {
      "midi": 60,
      "hit": false,
      "t": 63221.439108333274,
      "d": 121.42859166666312,
      "v": 96
    },
    {
      "midi": 59,
      "hit": false,
      "t": 63350.01055833327,
      "d": 150.0000250000012,
      "v": 93
    },
    {
      "midi": 64,
      "hit": false,
      "t": 63428.582,
      "d": 1500.0002499999973,
      "v": 80
    },
    {
      "midi": 57,
      "hit": false,
      "t": 63428.582,
      "d": 1500.0002499999973,
      "v": 80
    },
    {
      "midi": 60,
      "hit": false,
      "t": 63428.582,
      "d": 1500.0002499999973,
      "v": 80
    },
    {
      "midi": 33,
      "hit": false,
      "t": 63428.582,
      "d": 1671.4288499999966,
      "v": 100
    },
    {
      "midi": 72,
      "hit": false,
      "t": 63442.86771666665,
      "d": 828.5715666666656,
      "v": 104
    },
    {
      "midi": 57,
      "hit": false,
      "t": 63492.86772499994,
      "d": 1450.0002416666684,
      "v": 91
    },
    {
      "midi": 69,
      "hit": false,
      "t": 64307.15357499998,
      "d": 242.85718333333352,
      "v": 101
    },
    {
      "midi": 71,
      "hit": false,
      "t": 64557.15361666665,
      "d": 264.2857583333316,
      "v": 102
    },
    {
      "midi": 67,
      "hit": false,
      "t": 64835.725091666645,
      "d": 314.28576666666777,
      "v": 100
    },
    {
      "midi": 60,
      "hit": false,
      "t": 65142.868,
      "d": 1500.0002499999973,
      "v": 80
    },
    {
      "midi": 53,
      "hit": false,
      "t": 65142.868,
      "d": 1500.0002499999973,
      "v": 80
    },
    {
      "midi": 57,
      "hit": false,
      "t": 65142.868,
      "d": 1500.0002499999973,
      "v": 80
    },
    {
      "midi": 29,
      "hit": false,
      "t": 65142.868,
      "d": 1814.286016666665,
      "v": 100
    },
    {
      "midi": 69,
      "hit": false,
      "t": 65178.582291666644,
      "d": 535.7143750000032,
      "v": 101
    },
    {
      "midi": 57,
      "hit": false,
      "t": 65442.86804999994,
      "d": 121.42859166666312,
      "v": 92
    },
    {
      "midi": 59,
      "hit": false,
      "t": 65707.15380833327,
      "d": 114.2857333333377,
      "v": 98
    },
    {
      "midi": 64,
      "hit": false,
      "t": 65742.86809999998,
      "d": 1100.0001833333372,
      "v": 102
    },
    {
      "midi": 60,
      "hit": false,
      "t": 66007.15385833327,
      "d": 657.1429666666663,
      "v": 95
    },
    {
      "midi": 60,
      "hit": false,
      "t": 66857.154,
      "d": 1500.0002499999973,
      "v": 80
    },
    {
      "midi": 54,
      "hit": false,
      "t": 66857.154,
      "d": 1500.0002499999973,
      "v": 80
    },
    {
      "midi": 57,
      "hit": false,
      "t": 66857.154,
      "d": 1500.0002499999973,
      "v": 80
    },
    {
      "midi": 30,
      "hit": false,
      "t": 66857.154,
      "d": 1664.2859916666785,
      "v": 100
    },
    {
      "midi": 60,
      "hit": false,
      "t": 66892.8682916666,
      "d": 278.5714750000043,
      "v": 92
    },
    {
      "midi": 66,
      "hit": false,
      "t": 66900.01114999998,
      "d": 1092.8573250000045,
      "v": 103
    },
    {
      "midi": 59,
      "hit": false,
      "t": 67157.15404999994,
      "d": 171.42859999999928,
      "v": 88
    },
    {
      "midi": 57,
      "hit": false,
      "t": 67421.43980833328,
      "d": 121.4285916666704,
      "v": 91
    },
    {
      "midi": 60,
      "hit": false,
      "t": 67742.86843333328,
      "d": 235.71432499999355,
      "v": 95
    },
    {
      "midi": 59,
      "hit": false,
      "t": 68007.1541916666,
      "d": 164.28574166666658,
      "v": 97
    },
    {
      "midi": 64,
      "hit": false,
      "t": 68021.43990833331,
      "d": 264.2857583333389,
      "v": 109
    },
    {
      "midi": 57,
      "hit": false,
      "t": 68271.43994999994,
      "d": 135.7143083333358,
      "v": 95
    },
    {
      "midi": 66,
      "hit": false,
      "t": 68292.86852499998,
      "d": 321.42862500000047,
      "v": 103
    },
    {
      "midi": 62,
      "hit": false,
      "t": 68571.43999999994,
      "d": 307.1429083333351,
      "v": 93
    },
    {
      "midi": 55,
      "hit": false,
      "t": 68571.43999999999,
      "d": 1557.1431166666734,
      "v": 82
    },
    {
      "midi": 59,
      "hit": false,
      "t": 68571.43999999999,
      "d": 1571.4288333333388,
      "v": 82
    },
    {
      "midi": 62,
      "hit": false,
      "t": 68571.43999999999,
      "d": 1592.857408333337,
      "v": 75
    },
    {
      "midi": 31,
      "hit": false,
      "t": 68571.44,
      "d": 1464.2859583333338,
      "v": 100
    },
    {
      "midi": 67,
      "hit": false,
      "t": 68621.44000833332,
      "d": 1542.8573999999935,
      "v": 106
    },
    {
      "midi": 60,
      "hit": false,
      "t": 68864.29719166661,
      "d": 135.7143083333358,
      "v": 92
    },
    {
      "midi": 59,
      "hit": false,
      "t": 69128.58294999995,
      "d": 114.2857333333377,
      "v": 96
    },
    {
      "midi": 62,
      "hit": false,
      "t": 69442.86871666662,
      "d": 278.5714750000043,
      "v": 95
    },
    {
      "midi": 60,
      "hit": false,
      "t": 69700.01161666663,
      "d": 185.71431666666467,
      "v": 96
    },
    {
      "midi": 59,
      "hit": false,
      "t": 69964.29737499995,
      "d": 107.142875000005,
      "v": 90
    }
  ]
}