{
  "jsonPath": "Ultima Online/btcastle.json",
  "path": "Ultima Online\\btcastle.mid",
  "name": "btcastle",
  "difficulty": "Advanced",
  "bpm": 85.00004250002125,
  "notes": [
    {
      "midi": 61,
      "hit": false,
      "t": 0,
      "d": 235.29399999999998,
      "v": 104
    },
    {
      "midi": 43,
      "hit": false,
      "t": 0,
      "d": 2382.35175,
      "v": 94
    },
    {
      "midi": 55,
      "hit": false,
      "t": 0,
      "d": 2447.0576,
      "v": 95
    },
    {
      "midi": 43,
      "hit": false,
      "t": 0,
      "d": 2382.35175,
      "v": 94
    },
    {
      "midi": 55,
      "hit": false,
      "t": 0,
      "d": 2447.0576,
      "v": 95
    },
    {
      "midi": 69,
      "hit": false,
      "t": 11.7647,
      "d": 123.52935,
      "v": 76
    },
    {
      "midi": 69,
      "hit": false,
      "t": 11.7647,
      "d": 123.52935,
      "v": 76
    },
    {
      "midi": 73,
      "hit": false,
      "t": 17.64705,
      "d": 123.52935,
      "v": 87
    },
    {
      "midi": 73,
      "hit": false,
      "t": 17.64705,
      "d": 123.52935,
      "v": 87
    },
    {
      "midi": 76,
      "hit": false,
      "t": 29.411749999999998,
      "d": 176.47050000000002,
      "v": 71
    },
    {
      "midi": 73,
      "hit": false,
      "t": 182.35285,
      "d": 147.05874999999997,
      "v": 75
    },
    {
      "midi": 64,
      "hit": false,
      "t": 182.35285,
      "d": 270.5881,
      "v": 84
    },
    {
      "midi": 69,
      "hit": false,
      "t": 347.05865,
      "d": 94.11759999999998,
      "v": 71
    },
    {
      "midi": 69,
      "hit": false,
      "t": 347.05865,
      "d": 94.11759999999998,
      "v": 71
    },
    {
      "midi": 73,
      "hit": false,
      "t": 352.941,
      "d": 105.88229999999999,
      "v": 72
    },
    {
      "midi": 73,
      "hit": false,
      "t": 352.941,
      "d": 105.88229999999999,
      "v": 72
    },
    {
      "midi": 74,
      "hit": false,
      "t": 364.7057,
      "d": 1405.8816499999998,
      "v": 70
    },
    {
      "midi": 69,
      "hit": false,
      "t": 388.2351,
      "d": 2135.2930499999998,
      "v": 90
    },
    {
      "midi": 64,
      "hit": false,
      "t": 541.1762,
      "d": 58.82349999999997,
      "v": 60
    },
    {
      "midi": 54,
      "hit": false,
      "t": 688.2349499999999,
      "d": 252.94105000000002,
      "v": 65
    },
    {
      "midi": 54,
      "hit": false,
      "t": 2111.76365,
      "d": 117.64699999999993,
      "v": 82
    },
    {
      "midi": 46,
      "hit": false,
      "t": 2376.4694,
      "d": 347.05864999999994,
      "v": 67
    },
    {
      "midi": 46,
      "hit": false,
      "t": 2376.4694,
      "d": 347.05864999999994,
      "v": 67
    },
    {
      "midi": 58,
      "hit": false,
      "t": 2394.11645,
      "d": 358.82334999999966,
      "v": 77
    },
    {
      "midi": 58,
      "hit": false,
      "t": 2394.11645,
      "d": 358.82334999999966,
      "v": 77
    },
    {
      "midi": 55,
      "hit": false,
      "t": 2429.41055,
      "d": 64.70584999999983,
      "v": 104
    },
    {
      "midi": 45,
      "hit": false,
      "t": 2729.4103999999998,
      "d": 2529.410499999999,
      "v": 73
    },
    {
      "midi": 45,
      "hit": false,
      "t": 2729.4103999999998,
      "d": 2529.410499999999,
      "v": 73
    },
    {
      "midi": 61,
      "hit": false,
      "t": 2752.9397999999997,
      "d": 158.82344999999987,
      "v": 101
    },
    {
      "midi": 55,
      "hit": false,
      "t": 2752.9398,
      "d": 129.4117000000001,
      "v": 127
    },
    {
      "midi": 57,
      "hit": false,
      "t": 2758.8221499999995,
      "d": 2499.9987499999993,
      "v": 97
    },
    {
      "midi": 57,
      "hit": false,
      "t": 2758.8221499999995,
      "d": 2499.9987499999993,
      "v": 97
    },
    {
      "midi": 76,
      "hit": false,
      "t": 2776.4691999999995,
      "d": 129.4117000000001,
      "v": 79
    },
    {
      "midi": 64,
      "hit": false,
      "t": 2905.8808999999997,
      "d": 199.9998999999998,
      "v": 86
    },
    {
      "midi": 73,
      "hit": false,
      "t": 2923.5279499999997,
      "d": 123.5293499999998,
      "v": 107
    },
    {
      "midi": 74,
      "hit": false,
      "t": 3099.9984499999996,
      "d": 1735.2932500000002,
      "v": 73
    },
    {
      "midi": 69,
      "hit": false,
      "t": 3099.9984499999996,
      "d": 2311.76355,
      "v": 106
    },
    {
      "midi": 54,
      "hit": false,
      "t": 3429.4100499999995,
      "d": 105.88230000000021,
      "v": 113
    },
    {
      "midi": 69,
      "hit": false,
      "t": 3829.40985,
      "d": 58.82349999999997,
      "v": 91
    },
    {
      "midi": 74,
      "hit": false,
      "t": 3829.40985,
      "d": 64.70584999999983,
      "v": 95
    },
    {
      "midi": 69,
      "hit": false,
      "t": 3829.40985,
      "d": 58.82349999999997,
      "v": 91
    },
    {
      "midi": 74,
      "hit": false,
      "t": 3829.40985,
      "d": 64.70584999999983,
      "v": 95
    },
    {
      "midi": 69,
      "hit": false,
      "t": 4141.1744,
      "d": 76.47055,
      "v": 108
    },
    {
      "midi": 74,
      "hit": false,
      "t": 4141.1744,
      "d": 82.35289999999986,
      "v": 117
    },
    {
      "midi": 69,
      "hit": false,
      "t": 4141.1744,
      "d": 76.47055,
      "v": 108
    },
    {
      "midi": 74,
      "hit": false,
      "t": 4141.1744,
      "d": 82.35289999999986,
      "v": 117
    },
    {
      "midi": 74,
      "hit": false,
      "t": 4499.9977499999995,
      "d": 76.47055,
      "v": 127
    },
    {
      "midi": 69,
      "hit": false,
      "t": 4499.9977499999995,
      "d": 76.47055,
      "v": 114
    },
    {
      "midi": 74,
      "hit": false,
      "t": 4499.9977499999995,
      "d": 76.47055,
      "v": 127
    },
    {
      "midi": 69,
      "hit": false,
      "t": 4499.9977499999995,
      "d": 76.47055,
      "v": 114
    },
    {
      "midi": 54,
      "hit": false,
      "t": 4852.938749999999,
      "d": 99.99995000000035,
      "v": 119
    },
    {
      "midi": 46,
      "hit": false,
      "t": 5229.4091499999995,
      "d": 394.1174499999988,
      "v": 65
    },
    {
      "midi": 46,
      "hit": false,
      "t": 5229.4091499999995,
      "d": 394.1174499999988,
      "v": 65
    },
    {
      "midi": 58,
      "hit": false,
      "t": 5241.173849999999,
      "d": 352.9409999999998,
      "v": 72
    },
    {
      "midi": 58,
      "hit": false,
      "t": 5241.173849999999,
      "d": 352.9409999999998,
      "v": 72
    },
    {
      "midi": 55,
      "hit": false,
      "t": 5282.3503,
      "d": 64.70585000000028,
      "v": 80
    },
    {
      "midi": 43,
      "hit": false,
      "t": 5594.114849999999,
      "d": 2452.939949999998,
      "v": 87
    },
    {
      "midi": 43,
      "hit": false,
      "t": 5594.114849999999,
      "d": 2452.939949999998,
      "v": 87
    },
    {
      "midi": 55,
      "hit": false,
      "t": 5605.879550000001,
      "d": 141.17640000000029,
      "v": 127
    },
    {
      "midi": 55,
      "hit": false,
      "t": 5611.761899999999,
      "d": 2417.645849999999,
      "v": 84
    },
    {
      "midi": 55,
      "hit": false,
      "t": 5611.761899999999,
      "d": 2417.645849999999,
      "v": 84
    },
    {
      "midi": 76,
      "hit": false,
      "t": 5623.5266,
      "d": 158.82344999999987,
      "v": 80
    },
    {
      "midi": 61,
      "hit": false,
      "t": 5629.40895,
      "d": 188.23520000000008,
      "v": 107
    },
    {
      "midi": 73,
      "hit": false,
      "t": 5782.35005,
      "d": 147.05875000000015,
      "v": 110
    },
    {
      "midi": 64,
      "hit": false,
      "t": 5788.2324,
      "d": 211.76460000000043,
      "v": 73
    },
    {
      "midi": 74,
      "hit": false,
      "t": 5958.82055,
      "d": 2029.41075,
      "v": 78
    },
    {
      "midi": 69,
      "hit": false,
      "t": 5988.232300000001,
      "d": 1270.5875999999998,
      "v": 117
    },
    {
      "midi": 54,
      "hit": false,
      "t": 6299.9968499999995,
      "d": 94.11759999999958,
      "v": 116
    },
    {
      "midi": 54,
      "hit": false,
      "t": 7717.643199999999,
      "d": 88.23524999999972,
      "v": 123
    },
    {
      "midi": 67,
      "hit": false,
      "t": 7799.9961,
      "d": 182.35285000000022,
      "v": 100
    },
    {
      "midi": 41,
      "hit": false,
      "t": 8011.760699999998,
      "d": 441.1762499999977,
      "v": 79
    },
    {
      "midi": 41,
      "hit": false,
      "t": 8011.760699999998,
      "d": 441.1762499999977,
      "v": 79
    },
    {
      "midi": 53,
      "hit": false,
      "t": 8023.525399999998,
      "d": 399.9997999999987,
      "v": 61
    },
    {
      "midi": 53,
      "hit": false,
      "t": 8023.525399999998,
      "d": 399.9997999999987,
      "v": 61
    },
    {
      "midi": 69,
      "hit": false,
      "t": 8088.231249999999,
      "d": 64.70585000000028,
      "v": 110
    },
    {
      "midi": 69,
      "hit": false,
      "t": 8088.231249999999,
      "d": 64.70585000000028,
      "v": 110
    },
    {
      "midi": 74,
      "hit": false,
      "t": 8094.113599999999,
      "d": 64.70585000000028,
      "v": 108
    },
    {
      "midi": 74,
      "hit": false,
      "t": 8094.113599999999,
      "d": 64.70585000000028,
      "v": 108
    },
    {
      "midi": 55,
      "hit": false,
      "t": 8105.8783,
      "d": 58.82350000000042,
      "v": 102
    },
    {
      "midi": 65,
      "hit": false,
      "t": 8135.2900500000005,
      "d": 111.76465000000007,
      "v": 86
    },
    {
      "midi": 79,
      "hit": false,
      "t": 8411.7605,
      "d": 111.76464999999916,
      "v": 95
    },
    {
      "midi": 74,
      "hit": false,
      "t": 8411.7605,
      "d": 111.76464999999916,
      "v": 95
    },
    {
      "midi": 74,
      "hit": false,
      "t": 8423.525199999998,
      "d": 64.70585000000028,
      "v": 120
    },
    {
      "midi": 69,
      "hit": false,
      "t": 8423.525199999998,
      "d": 64.70585000000028,
      "v": 120
    },
    {
      "midi": 74,
      "hit": false,
      "t": 8423.525199999998,
      "d": 64.70585000000028,
      "v": 120
    },
    {
      "midi": 69,
      "hit": false,
      "t": 8423.525199999998,
      "d": 64.70585000000028,
      "v": 120
    },
    {
      "midi": 38,
      "hit": false,
      "t": 8435.289899999996,
      "d": 1399.9992999999995,
      "v": 73
    },
    {
      "midi": 38,
      "hit": false,
      "t": 8435.289899999996,
      "d": 1399.9992999999995,
      "v": 73
    },
    {
      "midi": 64,
      "hit": false,
      "t": 8435.2899,
      "d": 599.9997000000003,
      "v": 108
    },
    {
      "midi": 55,
      "hit": false,
      "t": 8441.172250000001,
      "d": 94.11759999999958,
      "v": 127
    },
    {
      "midi": 50,
      "hit": false,
      "t": 8470.583999999995,
      "d": 1376.4699,
      "v": 53
    },
    {
      "midi": 50,
      "hit": false,
      "t": 8470.583999999995,
      "d": 1376.4699,
      "v": 53
    },
    {
      "midi": 43,
      "hit": false,
      "t": 8470.583999999999,
      "d": 352.9410000000007,
      "v": 80
    },
    {
      "midi": 38,
      "hit": false,
      "t": 8470.583999999999,
      "d": 352.9410000000007,
      "v": 80
    },
    {
      "midi": 50,
      "hit": false,
      "t": 8470.583999999999,
      "d": 352.9410000000007,
      "v": 80
    },
    {
      "midi": 50,
      "hit": false,
      "t": 8470.583999999999,
      "d": 352.9410000000007,
      "v": 80
    },
    {
      "midi": 38,
      "hit": false,
      "t": 8470.583999999999,
      "d": 352.9410000000007,
      "v": 80
    },
    {
      "midi": 50,
      "hit": false,
      "t": 8470.583999999999,
      "d": 352.9410000000007,
      "v": 80
    },
    {
      "midi": 81,
      "hit": false,
      "t": 8494.1134,
      "d": 999.9994999999981,
      "v": 117
    },
    {
      "midi": 76,
      "hit": false,
      "t": 8494.1134,
      "d": 999.9994999999981,
      "v": 117
    },
    {
      "midi": 74,
      "hit": false,
      "t": 8747.054449999998,
      "d": 64.70585000000028,
      "v": 127
    },
    {
      "midi": 69,
      "hit": false,
      "t": 8747.054449999998,
      "d": 70.58820000000014,
      "v": 127
    },
    {
      "midi": 74,
      "hit": false,
      "t": 8747.054449999998,
      "d": 64.70585000000028,
      "v": 127
    },
    {
      "midi": 69,
      "hit": false,
      "t": 8747.054449999998,
      "d": 70.58820000000014,
      "v": 127
    },
    {
      "midi": 50,
      "hit": false,
      "t": 8823.525,
      "d": 352.9410000000007,
      "v": 78
    },
    {
      "midi": 45,
      "hit": false,
      "t": 8823.525,
      "d": 352.9410000000007,
      "v": 78
    },
    {
      "midi": 57,
      "hit": false,
      "t": 8823.525,
      "d": 352.9410000000007,
      "v": 78
    },
    {
      "midi": 57,
      "hit": false,
      "t": 8823.525,
      "d": 352.9410000000007,
      "v": 78
    },
    {
      "midi": 45,
      "hit": false,
      "t": 8823.525,
      "d": 352.9410000000007,
      "v": 78
    },
    {
      "midi": 57,
      "hit": false,
      "t": 8823.525,
      "d": 352.9410000000007,
      "v": 78
    },
    {
      "midi": 54,
      "hit": false,
      "t": 9147.054249999997,
      "d": 76.47055,
      "v": 123
    },
    {
      "midi": 55,
      "hit": false,
      "t": 9176.466,
      "d": 352.9410000000007,
      "v": 75
    },
    {
      "midi": 50,
      "hit": false,
      "t": 9176.466,
      "d": 352.9410000000007,
      "v": 75
    },
    {
      "midi": 62,
      "hit": false,
      "t": 9176.466,
      "d": 352.9410000000007,
      "v": 75
    },
    {
      "midi": 62,
      "hit": false,
      "t": 9176.466,
      "d": 352.9410000000007,
      "v": 75
    },
    {
      "midi": 50,
      "hit": false,
      "t": 9176.466,
      "d": 352.9410000000007,
      "v": 75
    },
    {
      "midi": 62,
      "hit": false,
      "t": 9176.466,
      "d": 352.9410000000007,
      "v": 75
    },
    {
      "midi": 82,
      "hit": false,
      "t": 9476.465849999999,
      "d": 347.05864999999903,
      "v": 91
    },
    {
      "midi": 77,
      "hit": false,
      "t": 9476.465849999999,
      "d": 347.05864999999903,
      "v": 91
    },
    {
      "midi": 50,
      "hit": false,
      "t": 9529.407000000001,
      "d": 352.9410000000007,
      "v": 73
    },
    {
      "midi": 45,
      "hit": false,
      "t": 9529.407000000001,
      "d": 352.9410000000007,
      "v": 73
    },
    {
      "midi": 57,
      "hit": false,
      "t": 9529.407000000001,
      "d": 352.9410000000007,
      "v": 73
    },
    {
      "midi": 57,
      "hit": false,
      "t": 9529.407000000001,
      "d": 352.9410000000007,
      "v": 73
    },
    {
      "midi": 45,
      "hit": false,
      "t": 9529.407000000001,
      "d": 352.9410000000007,
      "v": 73
    },
    {
      "midi": 57,
      "hit": false,
      "t": 9529.407000000001,
      "d": 352.9410000000007,
      "v": 73
    },
    {
      "midi": 39,
      "hit": false,
      "t": 9811.759799999996,
      "d": 1417.646349999999,
      "v": 74
    },
    {
      "midi": 39,
      "hit": false,
      "t": 9811.759799999996,
      "d": 1417.646349999999,
      "v": 74
    },
    {
      "midi": 51,
      "hit": false,
      "t": 9829.406849999996,
      "d": 1435.2933999999987,
      "v": 65
    },
    {
      "midi": 51,
      "hit": false,
      "t": 9829.406849999996,
      "d": 1435.2933999999987,
      "v": 65
    },
    {
      "midi": 79,
      "hit": false,
      "t": 9835.289199999997,
      "d": 1017.6465499999995,
      "v": 100
    },
    {
      "midi": 74,
      "hit": false,
      "t": 9835.289199999997,
      "d": 1017.6465499999995,
      "v": 100
    },
    {
      "midi": 51,
      "hit": false,
      "t": 9882.348000000002,
      "d": 1411.7639999999992,
      "v": 104
    },
    {
      "midi": 46,
      "hit": false,
      "t": 9882.348000000002,
      "d": 1411.7639999999992,
      "v": 104
    },
    {
      "midi": 58,
      "hit": false,
      "t": 9882.348000000002,
      "d": 1411.7639999999992,
      "v": 104
    },
    {
      "midi": 58,
      "hit": false,
      "t": 9882.348000000002,
      "d": 1411.7639999999992,
      "v": 104
    },
    {
      "midi": 46,
      "hit": false,
      "t": 9882.348000000002,
      "d": 1411.7639999999992,
      "v": 104
    },
    {
      "midi": 58,
      "hit": false,
      "t": 9882.348000000002,
      "d": 1411.7639999999992,
      "v": 104
    },
    {
      "midi": 54,
      "hit": false,
      "t": 10623.524099999997,
      "d": 82.35289999999986,
      "v": 119
    },
    {
      "midi": 55,
      "hit": false,
      "t": 10917.6416,
      "d": 52.94115000000056,
      "v": 117
    },
    {
      "midi": 79,
      "hit": false,
      "t": 10923.523949999997,
      "d": 117.64700000000084,
      "v": 88
    },
    {
      "midi": 74,
      "hit": false,
      "t": 10923.523949999997,
      "d": 117.64700000000084,
      "v": 88
    },
    {
      "midi": 81,
      "hit": false,
      "t": 10994.112149999997,
      "d": 147.05875000000015,
      "v": 77
    },
    {
      "midi": 76,
      "hit": false,
      "t": 10994.112149999997,
      "d": 147.05875000000015,
      "v": 77
    },
    {
      "midi": 82,
      "hit": false,
      "t": 11105.876799999998,
      "d": 135.2940499999986,
      "v": 91
    },
    {
      "midi": 77,
      "hit": false,
      "t": 11105.876799999998,
      "d": 135.2940499999986,
      "v": 91
    },
    {
      "midi": 43,
      "hit": false,
      "t": 11217.641449999996,
      "d": 1452.9404499999982,
      "v": 73
    },
    {
      "midi": 43,
      "hit": false,
      "t": 11217.641449999996,
      "d": 1452.9404499999982,
      "v": 73
    },
    {
      "midi": 55,
      "hit": false,
      "t": 11241.170849999995,
      "d": 1429.4110499999988,
      "v": 66
    },
    {
      "midi": 55,
      "hit": false,
      "t": 11241.170849999995,
      "d": 1429.4110499999988,
      "v": 66
    },
    {
      "midi": 84,
      "hit": false,
      "t": 11258.817899999996,
      "d": 1082.3523999999998,
      "v": 84
    },
    {
      "midi": 79,
      "hit": false,
      "t": 11258.817899999996,
      "d": 1082.3523999999998,
      "v": 84
    },
    {
      "midi": 55,
      "hit": false,
      "t": 11258.817900000002,
      "d": 99.99994999999944,
      "v": 127
    },
    {
      "midi": 43,
      "hit": false,
      "t": 11294.112000000001,
      "d": 352.9410000000007,
      "v": 94
    },
    {
      "midi": 38,
      "hit": false,
      "t": 11294.112000000001,
      "d": 352.9410000000007,
      "v": 94
    },
    {
      "midi": 50,
      "hit": false,
      "t": 11294.112000000001,
      "d": 352.9410000000007,
      "v": 94
    },
    {
      "midi": 50,
      "hit": false,
      "t": 11294.112000000001,
      "d": 352.9410000000007,
      "v": 94
    },
    {
      "midi": 38,
      "hit": false,
      "t": 11294.112000000001,
      "d": 352.9410000000007,
      "v": 94
    },
    {
      "midi": 50,
      "hit": false,
      "t": 11294.112000000001,
      "d": 352.9410000000007,
      "v": 94
    },
    {
      "midi": 50,
      "hit": false,
      "t": 11647.053000000002,
      "d": 352.9410000000007,
      "v": 71
    },
    {
      "midi": 45,
      "hit": false,
      "t": 11647.053000000002,
      "d": 352.9410000000007,
      "v": 71
    },
    {
      "midi": 57,
      "hit": false,
      "t": 11647.053000000002,
      "d": 352.9410000000007,
      "v": 71
    },
    {
      "midi": 57,
      "hit": false,
      "t": 11647.053000000002,
      "d": 352.9410000000007,
      "v": 71
    },
    {
      "midi": 45,
      "hit": false,
      "t": 11647.053000000002,
      "d": 352.9410000000007,
      "v": 71
    },
    {
      "midi": 57,
      "hit": false,
      "t": 11647.053000000002,
      "d": 352.9410000000007,
      "v": 71
    },
    {
      "midi": 54,
      "hit": false,
      "t": 11988.229299999997,
      "d": 70.58820000000014,
      "v": 116
    },
    {
      "midi": 55,
      "hit": false,
      "t": 11999.994000000002,
      "d": 352.9410000000007,
      "v": 81
    },
    {
      "midi": 50,
      "hit": false,
      "t": 11999.994000000002,
      "d": 352.9410000000007,
      "v": 81
    },
    {
      "midi": 62,
      "hit": false,
      "t": 11999.994000000002,
      "d": 352.9410000000007,
      "v": 81
    },
    {
      "midi": 62,
      "hit": false,
      "t": 11999.994000000002,
      "d": 352.9410000000007,
      "v": 81
    },
    {
      "midi": 50,
      "hit": false,
      "t": 11999.994000000002,
      "d": 352.9410000000007,
      "v": 81
    },
    {
      "midi": 62,
      "hit": false,
      "t": 11999.994000000002,
      "d": 352.9410000000007,
      "v": 81
    },
    {
      "midi": 82,
      "hit": false,
      "t": 12311.758549999997,
      "d": 205.88224999999875,
      "v": 87
    },
    {
      "midi": 77,
      "hit": false,
      "t": 12311.758549999997,
      "d": 205.88224999999875,
      "v": 87
    },
    {
      "midi": 58,
      "hit": false,
      "t": 12352.935000000003,
      "d": 382.35275,
      "v": 100
    },
    {
      "midi": 53,
      "hit": false,
      "t": 12352.935000000003,
      "d": 382.35275,
      "v": 100
    },
    {
      "midi": 65,
      "hit": false,
      "t": 12352.935000000003,
      "d": 382.35275,
      "v": 100
    },
    {
      "midi": 65,
      "hit": false,
      "t": 12352.935000000003,
      "d": 382.35275,
      "v": 100
    },
    {
      "midi": 53,
      "hit": false,
      "t": 12352.935000000003,
      "d": 382.35275,
      "v": 100
    },
    {
      "midi": 65,
      "hit": false,
      "t": 12352.935000000003,
      "d": 382.35275,
      "v": 100
    },
    {
      "midi": 81,
      "hit": false,
      "t": 12505.876099999996,
      "d": 194.11754999999903,
      "v": 75
    },
    {
      "midi": 76,
      "hit": false,
      "t": 12505.876099999996,
      "d": 194.11754999999903,
      "v": 75
    },
    {
      "midi": 45,
      "hit": false,
      "t": 12641.170149999994,
      "d": 1399.9992999999995,
      "v": 95
    },
    {
      "midi": 45,
      "hit": false,
      "t": 12641.170149999994,
      "d": 1399.9992999999995,
      "v": 95
    },
    {
      "midi": 57,
      "hit": false,
      "t": 12647.052499999994,
      "d": 1388.2345999999998,
      "v": 80
    },
    {
      "midi": 57,
      "hit": false,
      "t": 12647.052499999994,
      "d": 1388.2345999999998,
      "v": 80
    },
    {
      "midi": 86,
      "hit": false,
      "t": 12676.464249999995,
      "d": 1382.35225,
      "v": 94
    },
    {
      "midi": 81,
      "hit": false,
      "t": 12676.464249999995,
      "d": 1382.35225,
      "v": 94
    },
    {
      "midi": 62,
      "hit": false,
      "t": 12705.876000000004,
      "d": 1411.7639999999992,
      "v": 94
    },
    {
      "midi": 57,
      "hit": false,
      "t": 12705.876000000004,
      "d": 1411.7639999999992,
      "v": 94
    },
    {
      "midi": 69,
      "hit": false,
      "t": 12705.876000000004,
      "d": 1411.7639999999992,
      "v": 94
    },
    {
      "midi": 69,
      "hit": false,
      "t": 12705.876000000004,
      "d": 1411.7639999999992,
      "v": 94
    },
    {
      "midi": 57,
      "hit": false,
      "t": 12705.876000000004,
      "d": 1411.7639999999992,
      "v": 94
    },
    {
      "midi": 69,
      "hit": false,
      "t": 12705.876000000004,
      "d": 1411.7639999999992,
      "v": 94
    },
    {
      "midi": 54,
      "hit": false,
      "t": 13399.993299999998,
      "d": 76.47055,
      "v": 127
    },
    {
      "midi": 55,
      "hit": false,
      "t": 13705.875500000002,
      "d": 52.94115000000056,
      "v": 100
    },
    {
      "midi": 69,
      "hit": false,
      "t": 13717.640199999998,
      "d": 76.47055,
      "v": 120
    },
    {
      "midi": 74,
      "hit": false,
      "t": 13717.640199999998,
      "d": 76.47055,
      "v": 122
    },
    {
      "midi": 69,
      "hit": false,
      "t": 13717.640199999998,
      "d": 76.47055,
      "v": 120
    },
    {
      "midi": 74,
      "hit": false,
      "t": 13717.640199999998,
      "d": 76.47055,
      "v": 122
    },
    {
      "midi": 38,
      "hit": false,
      "t": 14029.404749999994,
      "d": 1470.5874999999996,
      "v": 72
    },
    {
      "midi": 38,
      "hit": false,
      "t": 14029.404749999994,
      "d": 1470.5874999999996,
      "v": 72
    },
    {
      "midi": 50,
      "hit": false,
      "t": 14047.051799999994,
      "d": 1464.7051499999998,
      "v": 79
    },
    {
      "midi": 50,
      "hit": false,
      "t": 14047.051799999994,
      "d": 1464.7051499999998,
      "v": 79
    },
    {
      "midi": 55,
      "hit": false,
      "t": 14052.934150000003,
      "d": 99.99994999999944,
      "v": 127
    },
    {
      "midi": 79,
      "hit": false,
      "t": 14064.698849999995,
      "d": 94.1176000000014,
      "v": 80
    },
    {
      "midi": 74,
      "hit": false,
      "t": 14064.698849999995,
      "d": 94.1176000000014,
      "v": 80
    },
    {
      "midi": 69,
      "hit": false,
      "t": 14070.581199999999,
      "d": 76.47055,
      "v": 127
    },
    {
      "midi": 69,
      "hit": false,
      "t": 14070.581199999999,
      "d": 76.47055,
      "v": 127
    },
    {
      "midi": 74,
      "hit": false,
      "t": 14076.463549999999,
      "d": 64.70585000000028,
      "v": 120
    },
    {
      "midi": 74,
      "hit": false,
      "t": 14076.463549999999,
      "d": 64.70585000000028,
      "v": 120
    },
    {
      "midi": 81,
      "hit": false,
      "t": 14105.875299999996,
      "d": 1058.8230000000003,
      "v": 80
    },
    {
      "midi": 76,
      "hit": false,
      "t": 14105.875299999996,
      "d": 1058.8230000000003,
      "v": 80
    },
    {
      "midi": 43,
      "hit": false,
      "t": 14117.640000000003,
      "d": 352.9410000000007,
      "v": 88
    },
    {
      "midi": 38,
      "hit": false,
      "t": 14117.640000000003,
      "d": 352.9410000000007,
      "v": 88
    },
    {
      "midi": 50,
      "hit": false,
      "t": 14117.640000000003,
      "d": 352.9410000000007,
      "v": 88
    },
    {
      "midi": 50,
      "hit": false,
      "t": 14117.640000000003,
      "d": 352.9410000000007,
      "v": 88
    },
    {
      "midi": 38,
      "hit": false,
      "t": 14117.640000000003,
      "d": 352.9410000000007,
      "v": 88
    },
    {
      "midi": 50,
      "hit": false,
      "t": 14117.640000000003,
      "d": 352.9410000000007,
      "v": 88
    },
    {
      "midi": 69,
      "hit": false,
      "t": 14411.757499999998,
      "d": 76.47055,
      "v": 127
    },
    {
      "midi": 74,
      "hit": false,
      "t": 14411.757499999998,
      "d": 82.35289999999986,
      "v": 127
    },
    {
      "midi": 69,
      "hit": false,
      "t": 14411.757499999998,
      "d": 76.47055,
      "v": 127
    },
    {
      "midi": 74,
      "hit": false,
      "t": 14411.757499999998,
      "d": 82.35289999999986,
      "v": 127
    },
    {
      "midi": 50,
      "hit": false,
      "t": 14470.581000000004,
      "d": 352.9410000000007,
      "v": 78
    },
    {
      "midi": 45,
      "hit": false,
      "t": 14470.581000000004,
      "d": 352.9410000000007,
      "v": 78
    },
    {
      "midi": 57,
      "hit": false,
      "t": 14470.581000000004,
      "d": 352.9410000000007,
      "v": 78
    },
    {
      "midi": 57,
      "hit": false,
      "t": 14470.581000000004,
      "d": 352.9410000000007,
      "v": 78
    },
    {
      "midi": 45,
      "hit": false,
      "t": 14470.581000000004,
      "d": 352.9410000000007,
      "v": 78
    },
    {
      "midi": 57,
      "hit": false,
      "t": 14470.581000000004,
      "d": 352.9410000000007,
      "v": 78
    },
    {
      "midi": 54,
      "hit": false,
      "t": 14764.698499999999,
      "d": 88.23524999999972,
      "v": 123
    },
    {
      "midi": 55,
      "hit": false,
      "t": 14823.522000000004,
      "d": 352.9410000000007,
      "v": 97
    },
    {
      "midi": 50,
      "hit": false,
      "t": 14823.522000000004,
      "d": 352.9410000000007,
      "v": 97
    },
    {
      "midi": 62,
      "hit": false,
      "t": 14823.522000000004,
      "d": 352.9410000000007,
      "v": 97
    },
    {
      "midi": 62,
      "hit": false,
      "t": 14823.522000000004,
      "d": 352.9410000000007,
      "v": 97
    },
    {
      "midi": 50,
      "hit": false,
      "t": 14823.522000000004,
      "d": 352.9410000000007,
      "v": 97
    },
    {
      "midi": 62,
      "hit": false,
      "t": 14823.522000000004,
      "d": 352.9410000000007,
      "v": 97
    },
    {
      "midi": 82,
      "hit": false,
      "t": 15141.168899999997,
      "d": 352.9409999999989,
      "v": 91
    },
    {
      "midi": 77,
      "hit": false,
      "t": 15141.168899999997,
      "d": 352.9409999999989,
      "v": 91
    },
    {
      "midi": 50,
      "hit": false,
      "t": 15176.463000000005,
      "d": 352.9410000000007,
      "v": 81
    },
    {
      "midi": 45,
      "hit": false,
      "t": 15176.463000000005,
      "d": 352.9410000000007,
      "v": 81
    },
    {
      "midi": 57,
      "hit": false,
      "t": 15176.463000000005,
      "d": 352.9410000000007,
      "v": 81
    },
    {
      "midi": 57,
      "hit": false,
      "t": 15176.463000000005,
      "d": 352.9410000000007,
      "v": 81
    },
    {
      "midi": 45,
      "hit": false,
      "t": 15176.463000000005,
      "d": 352.9410000000007,
      "v": 81
    },
    {
      "midi": 57,
      "hit": false,
      "t": 15176.463000000005,
      "d": 352.9410000000007,
      "v": 81
    },
    {
      "midi": 39,
      "hit": false,
      "t": 15476.462849999994,
      "d": 1341.175799999999,
      "v": 82
    },
    {
      "midi": 39,
      "hit": false,
      "t": 15476.462849999994,
      "d": 1341.175799999999,
      "v": 82
    },
    {
      "midi": 51,
      "hit": false,
      "t": 15488.227549999994,
      "d": 1394.1169499999978,
      "v": 97
    },
    {
      "midi": 51,
      "hit": false,
      "t": 15488.227549999994,
      "d": 1394.1169499999978,
      "v": 97
    },
    {
      "midi": 79,
      "hit": false,
      "t": 15499.992249999996,
      "d": 1411.7639999999992,
      "v": 94
    },
    {
      "midi": 74,
      "hit": false,
      "t": 15499.992249999996,
      "d": 1411.7639999999992,
      "v": 94
    },
    {
      "midi": 51,
      "hit": false,
      "t": 15529.404000000006,
      "d": 1411.7639999999992,
      "v": 116
    },
    {
      "midi": 46,
      "hit": false,
      "t": 15529.404000000006,
      "d": 1411.7639999999992,
      "v": 116
    },
    {
      "midi": 58,
      "hit": false,
      "t": 15529.404000000006,
      "d": 1411.7639999999992,
      "v": 116
    },
    {
      "midi": 58,
      "hit": false,
      "t": 15529.404000000006,
      "d": 1411.7639999999992,
      "v": 116
    },
    {
      "midi": 46,
      "hit": false,
      "t": 15529.404000000006,
      "d": 1411.7639999999992,
      "v": 116
    },
    {
      "midi": 58,
      "hit": false,
      "t": 15529.404000000006,
      "d": 1411.7639999999992,
      "v": 116
    },
    {
      "midi": 54,
      "hit": false,
      "t": 16229.403649999998,
      "d": 88.23524999999972,
      "v": 113
    },
    {
      "midi": 55,
      "hit": false,
      "t": 16564.697600000003,
      "d": 52.94114999999874,
      "v": 84
    },
    {
      "midi": 46,
      "hit": false,
      "t": 16811.756299999994,
      "d": 729.4113999999972,
      "v": 70
    },
    {
      "midi": 46,
      "hit": false,
      "t": 16811.756299999994,
      "d": 729.4113999999972,
      "v": 70
    },
    {
      "midi": 58,
      "hit": false,
      "t": 16841.168049999993,
      "d": 782.352549999996,
      "v": 95
    },
    {
      "midi": 58,
      "hit": false,
      "t": 16841.168049999993,
      "d": 782.352549999996,
      "v": 95
    },
    {
      "midi": 84,
      "hit": false,
      "t": 16899.991549999995,
      "d": 182.3528499999993,
      "v": 80
    },
    {
      "midi": 79,
      "hit": false,
      "t": 16899.991549999995,
      "d": 182.3528499999993,
      "v": 80
    },
    {
      "midi": 55,
      "hit": false,
      "t": 16917.638600000002,
      "d": 99.99995000000126,
      "v": 125
    },
    {
      "midi": 50,
      "hit": false,
      "t": 16941.168000000005,
      "d": 352.9409999999989,
      "v": 64
    },
    {
      "midi": 45,
      "hit": false,
      "t": 16941.168000000005,
      "d": 352.9409999999989,
      "v": 64
    },
    {
      "midi": 57,
      "hit": false,
      "t": 16941.168000000005,
      "d": 352.9409999999989,
      "v": 64
    },
    {
      "midi": 57,
      "hit": false,
      "t": 16941.168000000005,
      "d": 352.9409999999989,
      "v": 64
    },
    {
      "midi": 45,
      "hit": false,
      "t": 16941.168000000005,
      "d": 352.9409999999989,
      "v": 64
    },
    {
      "midi": 57,
      "hit": false,
      "t": 16941.168000000005,
      "d": 352.9409999999989,
      "v": 64
    },
    {
      "midi": 82,
      "hit": false,
      "t": 17052.932649999995,
      "d": 223.52929999999833,
      "v": 82
    },
    {
      "midi": 77,
      "hit": false,
      "t": 17052.932649999995,
      "d": 223.52929999999833,
      "v": 82
    },
    {
      "midi": 84,
      "hit": false,
      "t": 17270.579599999994,
      "d": 170.5881499999996,
      "v": 78
    },
    {
      "midi": 79,
      "hit": false,
      "t": 17270.579599999994,
      "d": 170.5881499999996,
      "v": 78
    },
    {
      "midi": 51,
      "hit": false,
      "t": 17294.109000000004,
      "d": 352.9409999999989,
      "v": 84
    },
    {
      "midi": 46,
      "hit": false,
      "t": 17294.109000000004,
      "d": 352.9409999999989,
      "v": 84
    },
    {
      "midi": 58,
      "hit": false,
      "t": 17294.109000000004,
      "d": 352.9409999999989,
      "v": 84
    },
    {
      "midi": 58,
      "hit": false,
      "t": 17294.109000000004,
      "d": 352.9409999999989,
      "v": 84
    },
    {
      "midi": 46,
      "hit": false,
      "t": 17294.109000000004,
      "d": 352.9409999999989,
      "v": 84
    },
    {
      "midi": 58,
      "hit": false,
      "t": 17294.109000000004,
      "d": 352.9409999999989,
      "v": 84
    },
    {
      "midi": 82,
      "hit": false,
      "t": 17411.755999999994,
      "d": 205.88224999999875,
      "v": 78
    },
    {
      "midi": 77,
      "hit": false,
      "t": 17411.755999999994,
      "d": 205.88224999999875,
      "v": 78
    },
    {
      "midi": 45,
      "hit": false,
      "t": 17541.16769999999,
      "d": 752.9407999999967,
      "v": 66
    },
    {
      "midi": 45,
      "hit": false,
      "t": 17541.16769999999,
      "d": 752.9407999999967,
      "v": 66
    },
    {
      "midi": 81,
      "hit": false,
      "t": 17611.755899999993,
      "d": 199.9998999999989,
      "v": 73
    },
    {
      "midi": 76,
      "hit": false,
      "t": 17611.755899999993,
      "d": 199.9998999999989,
      "v": 73
    },
    {
      "midi": 55,
      "hit": false,
      "t": 17617.63824999999,
      "d": 135.29405000000042,
      "v": 81
    },
    {
      "midi": 57,
      "hit": false,
      "t": 17617.63824999999,
      "d": 705.8819999999978,
      "v": 76
    },
    {
      "midi": 55,
      "hit": false,
      "t": 17617.63824999999,
      "d": 135.29405000000042,
      "v": 81
    },
    {
      "midi": 57,
      "hit": false,
      "t": 17617.63824999999,
      "d": 705.8819999999978,
      "v": 76
    },
    {
      "midi": 54,
      "hit": false,
      "t": 17635.2853,
      "d": 82.35290000000168,
      "v": 127
    },
    {
      "midi": 50,
      "hit": false,
      "t": 17647.050000000003,
      "d": 176.47049999999945,
      "v": 72
    },
    {
      "midi": 45,
      "hit": false,
      "t": 17647.050000000003,
      "d": 176.47049999999945,
      "v": 72
    },
    {
      "midi": 57,
      "hit": false,
      "t": 17647.050000000003,
      "d": 176.47049999999945,
      "v": 72
    },
    {
      "midi": 57,
      "hit": false,
      "t": 17647.050000000003,
      "d": 176.47049999999945,
      "v": 72
    },
    {
      "midi": 45,
      "hit": false,
      "t": 17647.050000000003,
      "d": 176.47049999999945,
      "v": 72
    },
    {
      "midi": 57,
      "hit": false,
      "t": 17647.050000000003,
      "d": 176.47049999999945,
      "v": 72
    },
    {
      "midi": 82,
      "hit": false,
      "t": 17788.226399999992,
      "d": 211.7645999999986,
      "v": 78
    },
    {
      "midi": 77,
      "hit": false,
      "t": 17788.226399999992,
      "d": 211.7645999999986,
      "v": 78
    },
    {
      "midi": 48,
      "hit": false,
      "t": 17823.520500000002,
      "d": 176.47049999999945,
      "v": 75
    },
    {
      "midi": 43,
      "hit": false,
      "t": 17823.520500000002,
      "d": 176.47049999999945,
      "v": 75
    },
    {
      "midi": 55,
      "hit": false,
      "t": 17823.520500000002,
      "d": 176.47049999999945,
      "v": 75
    },
    {
      "midi": 55,
      "hit": false,
      "t": 17823.520500000002,
      "d": 176.47049999999945,
      "v": 75
    },
    {
      "midi": 43,
      "hit": false,
      "t": 17823.520500000002,
      "d": 176.47049999999945,
      "v": 75
    },
    {
      "midi": 55,
      "hit": false,
      "t": 17823.520500000002,
      "d": 176.47049999999945,
      "v": 75
    },
    {
      "midi": 81,
      "hit": false,
      "t": 17988.22629999999,
      "d": 135.29405000000042,
      "v": 80
    },
    {
      "midi": 76,
      "hit": false,
      "t": 17988.22629999999,
      "d": 135.29405000000042,
      "v": 80
    },
    {
      "midi": 69,
      "hit": false,
      "t": 17999.990999999998,
      "d": 35.29409999999916,
      "v": 84
    },
    {
      "midi": 74,
      "hit": false,
      "t": 17999.990999999998,
      "d": 41.17644999999902,
      "v": 86
    },
    {
      "midi": 69,
      "hit": false,
      "t": 17999.990999999998,
      "d": 35.29409999999916,
      "v": 84
    },
    {
      "midi": 74,
      "hit": false,
      "t": 17999.990999999998,
      "d": 41.17644999999902,
      "v": 86
    },
    {
      "midi": 46,
      "hit": false,
      "t": 17999.991,
      "d": 176.47049999999945,
      "v": 68
    },
    {
      "midi": 41,
      "hit": false,
      "t": 17999.991,
      "d": 176.47049999999945,
      "v": 68
    },
    {
      "midi": 53,
      "hit": false,
      "t": 17999.991,
      "d": 176.47049999999945,
      "v": 68
    },
    {
      "midi": 53,
      "hit": false,
      "t": 17999.991,
      "d": 176.47049999999945,
      "v": 68
    },
    {
      "midi": 41,
      "hit": false,
      "t": 17999.991,
      "d": 176.47049999999945,
      "v": 68
    },
    {
      "midi": 53,
      "hit": false,
      "t": 17999.991,
      "d": 176.47049999999945,
      "v": 68
    },
    {
      "midi": 78,
      "hit": false,
      "t": 18176.46149999999,
      "d": 147.05875000000015,
      "v": 84
    },
    {
      "midi": 73,
      "hit": false,
      "t": 18176.46149999999,
      "d": 147.05875000000015,
      "v": 84
    },
    {
      "midi": 45,
      "hit": false,
      "t": 18176.4615,
      "d": 176.47049999999945,
      "v": 75
    },
    {
      "midi": 40,
      "hit": false,
      "t": 18176.4615,
      "d": 176.47049999999945,
      "v": 75
    },
    {
      "midi": 52,
      "hit": false,
      "t": 18176.4615,
      "d": 176.47049999999945,
      "v": 75
    },
    {
      "midi": 52,
      "hit": false,
      "t": 18176.4615,
      "d": 176.47049999999945,
      "v": 75
    },
    {
      "midi": 40,
      "hit": false,
      "t": 18176.4615,
      "d": 176.47049999999945,
      "v": 75
    },
    {
      "midi": 52,
      "hit": false,
      "t": 18176.4615,
      "d": 176.47049999999945,
      "v": 75
    },
    {
      "midi": 43,
      "hit": false,
      "t": 18282.343799999988,
      "d": 1582.3521499999988,
      "v": 80
    },
    {
      "midi": 43,
      "hit": false,
      "t": 18282.343799999988,
      "d": 1582.3521499999988,
      "v": 80
    },
    {
      "midi": 55,
      "hit": false,
      "t": 18294.108499999988,
      "d": 1582.3521499999988,
      "v": 83
    },
    {
      "midi": 55,
      "hit": false,
      "t": 18294.108499999988,
      "d": 1582.3521499999988,
      "v": 83
    },
    {
      "midi": 79,
      "hit": false,
      "t": 18352.93199999999,
      "d": 1094.1170999999995,
      "v": 94
    },
    {
      "midi": 74,
      "hit": false,
      "t": 18352.93199999999,
      "d": 1094.1170999999995,
      "v": 94
    },
    {
      "midi": 69,
      "hit": false,
      "t": 18352.931999999997,
      "d": 899.9995500000005,
      "v": 105
    },
    {
      "midi": 69,
      "hit": false,
      "t": 18352.931999999997,
      "d": 899.9995500000005,
      "v": 105
    },
    {
      "midi": 43,
      "hit": false,
      "t": 18352.932,
      "d": 705.8820000000014,
      "v": 88
    },
    {
      "midi": 38,
      "hit": false,
      "t": 18352.932,
      "d": 705.8820000000014,
      "v": 88
    },
    {
      "midi": 50,
      "hit": false,
      "t": 18352.932,
      "d": 705.8820000000014,
      "v": 88
    },
    {
      "midi": 50,
      "hit": false,
      "t": 18352.932,
      "d": 705.8820000000014,
      "v": 88
    },
    {
      "midi": 38,
      "hit": false,
      "t": 18352.932,
      "d": 705.8820000000014,
      "v": 88
    },
    {
      "midi": 50,
      "hit": false,
      "t": 18352.932,
      "d": 705.8820000000014,
      "v": 88
    },
    {
      "midi": 74,
      "hit": false,
      "t": 18358.814349999997,
      "d": 899.9995500000005,
      "v": 110
    },
    {
      "midi": 74,
      "hit": false,
      "t": 18358.814349999997,
      "d": 899.9995500000005,
      "v": 110
    },
    {
      "midi": 55,
      "hit": false,
      "t": 18364.696700000004,
      "d": 76.47055000000182,
      "v": 117
    },
    {
      "midi": 54,
      "hit": false,
      "t": 19082.3434,
      "d": 76.47055000000182,
      "v": 127
    },
    {
      "midi": 67,
      "hit": false,
      "t": 19394.107949999998,
      "d": 99.99995000000126,
      "v": 117
    },
    {
      "midi": 74,
      "hit": false,
      "t": 19394.107949999998,
      "d": 105.88230000000112,
      "v": 122
    },
    {
      "midi": 67,
      "hit": false,
      "t": 19394.107949999998,
      "d": 99.99995000000126,
      "v": 117
    },
    {
      "midi": 74,
      "hit": false,
      "t": 19394.107949999998,
      "d": 105.88230000000112,
      "v": 122
    },
    {
      "midi": 40,
      "hit": false,
      "t": 19411.754999999997,
      "d": 111.76465000000098,
      "v": 83
    },
    {
      "midi": 40,
      "hit": false,
      "t": 19411.754999999997,
      "d": 111.76465000000098,
      "v": 83
    },
    {
      "midi": 40,
      "hit": false,
      "t": 19529.402,
      "d": 111.76465000000098,
      "v": 81
    },
    {
      "midi": 40,
      "hit": false,
      "t": 19529.402,
      "d": 111.76465000000098,
      "v": 81
    },
    {
      "midi": 40,
      "hit": false,
      "t": 19647.049,
      "d": 111.76465000000098,
      "v": 98
    },
    {
      "midi": 40,
      "hit": false,
      "t": 19647.049,
      "d": 111.76465000000098,
      "v": 98
    },
    {
      "midi": 74,
      "hit": false,
      "t": 19752.9313,
      "d": 88.23525000000154,
      "v": 125
    },
    {
      "midi": 74,
      "hit": false,
      "t": 19752.9313,
      "d": 88.23525000000154,
      "v": 125
    },
    {
      "midi": 67,
      "hit": false,
      "t": 19758.81365,
      "d": 76.47055000000182,
      "v": 120
    },
    {
      "midi": 67,
      "hit": false,
      "t": 19758.81365,
      "d": 76.47055000000182,
      "v": 120
    },
    {
      "midi": 50,
      "hit": false,
      "t": 19764.695999999985,
      "d": 1376.4699,
      "v": 53
    },
    {
      "midi": 50,
      "hit": false,
      "t": 19764.695999999985,
      "d": 1376.4699,
      "v": 53
    },
    {
      "midi": 40,
      "hit": false,
      "t": 19764.696,
      "d": 111.76465000000098,
      "v": 127
    },
    {
      "midi": 40,
      "hit": false,
      "t": 19764.696,
      "d": 111.76465000000098,
      "v": 127
    },
    {
      "midi": 43,
      "hit": false,
      "t": 19764.696000000004,
      "d": 352.9409999999989,
      "v": 80
    },
    {
      "midi": 50,
      "hit": false,
      "t": 19764.696000000004,
      "d": 352.9409999999989,
      "v": 80
    },
    {
      "midi": 50,
      "hit": false,
      "t": 19764.696000000004,
      "d": 352.9409999999989,
      "v": 80
    },
    {
      "midi": 38,
      "hit": false,
      "t": 19764.696000000004,
      "d": 352.9409999999989,
      "v": 80
    },
    {
      "midi": 50,
      "hit": false,
      "t": 19764.696000000004,
      "d": 352.9409999999989,
      "v": 80
    },
    {
      "midi": 55,
      "hit": false,
      "t": 19764.696000000007,
      "d": 117.64700000000084,
      "v": 114
    },
    {
      "midi": 50,
      "hit": false,
      "t": 20117.637000000002,
      "d": 352.9409999999989,
      "v": 78
    },
    {
      "midi": 57,
      "hit": false,
      "t": 20117.637000000002,
      "d": 352.9409999999989,
      "v": 78
    },
    {
      "midi": 57,
      "hit": false,
      "t": 20117.637000000002,
      "d": 352.9409999999989,
      "v": 78
    },
    {
      "midi": 45,
      "hit": false,
      "t": 20117.637000000002,
      "d": 352.9409999999989,
      "v": 78
    },
    {
      "midi": 40,
      "hit": false,
      "t": 20117.637000000002,
      "d": 111.76465000000098,
      "v": 127
    },
    {
      "midi": 40,
      "hit": false,
      "t": 20117.637000000002,
      "d": 111.76465000000098,
      "v": 127
    },
    {
      "midi": 57,
      "hit": false,
      "t": 20117.637000000002,
      "d": 352.9409999999989,
      "v": 78
    },
    {
      "midi": 74,
      "hit": false,
      "t": 20117.637000000002,
      "d": 82.35289999999804,
      "v": 127
    },
    {
      "midi": 74,
      "hit": false,
      "t": 20117.637000000002,
      "d": 82.35289999999804,
      "v": 127
    },
    {
      "midi": 67,
      "hit": false,
      "t": 20123.519350000002,
      "d": 64.70584999999846,
      "v": 125
    },
    {
      "midi": 67,
      "hit": false,
      "t": 20123.519350000002,
      "d": 64.70584999999846,
      "v": 125
    },
    {
      "midi": 55,
      "hit": false,
      "t": 20470.578,
      "d": 352.9409999999989,
      "v": 75
    },
    {
      "midi": 62,
      "hit": false,
      "t": 20470.578,
      "d": 352.9409999999989,
      "v": 75
    },
    {
      "midi": 62,
      "hit": false,
      "t": 20470.578,
      "d": 352.9409999999989,
      "v": 75
    },
    {
      "midi": 50,
      "hit": false,
      "t": 20470.578,
      "d": 352.9409999999989,
      "v": 75
    },
    {
      "midi": 62,
      "hit": false,
      "t": 20470.578,
      "d": 352.9409999999989,
      "v": 75
    },
    {
      "midi": 54,
      "hit": false,
      "t": 20482.342700000005,
      "d": 88.23525000000154,
      "v": 123
    },
    {
      "midi": 50,
      "hit": false,
      "t": 20823.519,
      "d": 352.9409999999989,
      "v": 73
    },
    {
      "midi": 57,
      "hit": false,
      "t": 20823.519,
      "d": 352.9409999999989,
      "v": 73
    },
    {
      "midi": 57,
      "hit": false,
      "t": 20823.519,
      "d": 352.9409999999989,
      "v": 73
    },
    {
      "midi": 45,
      "hit": false,
      "t": 20823.519,
      "d": 352.9409999999989,
      "v": 73
    },
    {
      "midi": 57,
      "hit": false,
      "t": 20823.519,
      "d": 352.9409999999989,
      "v": 73
    },
    {
      "midi": 40,
      "hit": false,
      "t": 20823.519000000004,
      "d": 111.76465000000098,
      "v": 83
    },
    {
      "midi": 40,
      "hit": false,
      "t": 20823.519000000004,
      "d": 111.76465000000098,
      "v": 83
    },
    {
      "midi": 40,
      "hit": false,
      "t": 20941.166000000005,
      "d": 111.76465000000098,
      "v": 110
    },
    {
      "midi": 40,
      "hit": false,
      "t": 20941.166000000005,
      "d": 111.76465000000098,
      "v": 110
    },
    {
      "midi": 40,
      "hit": false,
      "t": 21058.813000000006,
      "d": 111.76465000000098,
      "v": 122
    },
    {
      "midi": 40,
      "hit": false,
      "t": 21058.813000000006,
      "d": 111.76465000000098,
      "v": 122
    },
    {
      "midi": 39,
      "hit": false,
      "t": 21105.871799999986,
      "d": 1417.646349999999,
      "v": 74
    },
    {
      "midi": 39,
      "hit": false,
      "t": 21105.871799999986,
      "d": 1417.646349999999,
      "v": 74
    },
    {
      "midi": 51,
      "hit": false,
      "t": 21123.518849999986,
      "d": 1435.2933999999987,
      "v": 65
    },
    {
      "midi": 51,
      "hit": false,
      "t": 21123.518849999986,
      "d": 1435.2933999999987,
      "v": 65
    },
    {
      "midi": 51,
      "hit": false,
      "t": 21176.46,
      "d": 1411.7639999999992,
      "v": 104
    },
    {
      "midi": 58,
      "hit": false,
      "t": 21176.46,
      "d": 1411.7639999999992,
      "v": 104
    },
    {
      "midi": 58,
      "hit": false,
      "t": 21176.46,
      "d": 1411.7639999999992,
      "v": 104
    },
    {
      "midi": 46,
      "hit": false,
      "t": 21176.46,
      "d": 1411.7639999999992,
      "v": 104
    },
    {
      "midi": 58,
      "hit": false,
      "t": 21176.46,
      "d": 1411.7639999999992,
      "v": 104
    },
    {
      "midi": 40,
      "hit": false,
      "t": 21176.460000000006,
      "d": 111.76465000000098,
      "v": 117
    },
    {
      "midi": 40,
      "hit": false,
      "t": 21176.460000000006,
      "d": 111.76465000000098,
      "v": 117
    },
    {
      "midi": 54,
      "hit": false,
      "t": 21852.930250000005,
      "d": 76.47054999999818,
      "v": 127
    },
    {
      "midi": 55,
      "hit": false,
      "t": 22211.753600000007,
      "d": 52.94114999999874,
      "v": 117
    },
    {
      "midi": 40,
      "hit": false,
      "t": 22235.283000000007,
      "d": 111.76465000000098,
      "v": 79
    },
    {
      "midi": 40,
      "hit": false,
      "t": 22235.283000000007,
      "d": 111.76465000000098,
      "v": 79
    },
    {
      "midi": 40,
      "hit": false,
      "t": 22352.930000000008,
      "d": 111.76465000000098,
      "v": 98
    },
    {
      "midi": 40,
      "hit": false,
      "t": 22352.930000000008,
      "d": 111.76465000000098,
      "v": 98
    },
    {
      "midi": 40,
      "hit": false,
      "t": 22470.57700000001,
      "d": 111.76465000000098,
      "v": 97
    },
    {
      "midi": 40,
      "hit": false,
      "t": 22470.57700000001,
      "d": 111.76465000000098,
      "v": 97
    },
    {
      "midi": 43,
      "hit": false,
      "t": 22511.753449999986,
      "d": 1452.9404499999982,
      "v": 73
    },
    {
      "midi": 43,
      "hit": false,
      "t": 22511.753449999986,
      "d": 1452.9404499999982,
      "v": 73
    },
    {
      "midi": 55,
      "hit": false,
      "t": 22535.282849999985,
      "d": 1429.4110499999988,
      "v": 66
    },
    {
      "midi": 55,
      "hit": false,
      "t": 22535.282849999985,
      "d": 1429.4110499999988,
      "v": 66
    },
    {
      "midi": 55,
      "hit": false,
      "t": 22552.929900000006,
      "d": 99.99995000000126,
      "v": 127
    },
    {
      "midi": 43,
      "hit": false,
      "t": 22588.224,
      "d": 352.9409999999989,
      "v": 94
    },
    {
      "midi": 50,
      "hit": false,
      "t": 22588.224,
      "d": 352.9409999999989,
      "v": 94
    },
    {
      "midi": 50,
      "hit": false,
      "t": 22588.224,
      "d": 352.9409999999989,
      "v": 94
    },
    {
      "midi": 38,
      "hit": false,
      "t": 22588.224,
      "d": 352.9409999999989,
      "v": 94
    },
    {
      "midi": 50,
      "hit": false,
      "t": 22588.224,
      "d": 352.9409999999989,
      "v": 94
    },
    {
      "midi": 40,
      "hit": false,
      "t": 22588.22400000001,
      "d": 111.76465000000098,
      "v": 122
    },
    {
      "midi": 40,
      "hit": false,
      "t": 22588.22400000001,
      "d": 111.76465000000098,
      "v": 122
    },
    {
      "midi": 50,
      "hit": false,
      "t": 22941.164999999997,
      "d": 352.9409999999989,
      "v": 71
    },
    {
      "midi": 57,
      "hit": false,
      "t": 22941.164999999997,
      "d": 352.9409999999989,
      "v": 71
    },
    {
      "midi": 57,
      "hit": false,
      "t": 22941.164999999997,
      "d": 352.9409999999989,
      "v": 71
    },
    {
      "midi": 45,
      "hit": false,
      "t": 22941.164999999997,
      "d": 352.9409999999989,
      "v": 71
    },
    {
      "midi": 57,
      "hit": false,
      "t": 22941.164999999997,
      "d": 352.9409999999989,
      "v": 71
    },
    {
      "midi": 40,
      "hit": false,
      "t": 22941.16500000001,
      "d": 111.76465000000098,
      "v": 122
    },
    {
      "midi": 40,
      "hit": false,
      "t": 22941.16500000001,
      "d": 111.76465000000098,
      "v": 122
    },
    {
      "midi": 54,
      "hit": false,
      "t": 23288.223650000004,
      "d": 76.47055000000182,
      "v": 127
    },
    {
      "midi": 55,
      "hit": false,
      "t": 23294.105999999996,
      "d": 352.9409999999989,
      "v": 81
    },
    {
      "midi": 62,
      "hit": false,
      "t": 23294.105999999996,
      "d": 352.9409999999989,
      "v": 81
    },
    {
      "midi": 62,
      "hit": false,
      "t": 23294.105999999996,
      "d": 352.9409999999989,
      "v": 81
    },
    {
      "midi": 50,
      "hit": false,
      "t": 23294.105999999996,
      "d": 352.9409999999989,
      "v": 81
    },
    {
      "midi": 62,
      "hit": false,
      "t": 23294.105999999996,
      "d": 352.9409999999989,
      "v": 81
    },
    {
      "midi": 40,
      "hit": false,
      "t": 23294.106000000014,
      "d": 111.76465000000098,
      "v": 114
    },
    {
      "midi": 40,
      "hit": false,
      "t": 23294.106000000014,
      "d": 111.76465000000098,
      "v": 114
    },
    {
      "midi": 58,
      "hit": false,
      "t": 23647.046999999995,
      "d": 382.3527499999982,
      "v": 100
    },
    {
      "midi": 65,
      "hit": false,
      "t": 23647.046999999995,
      "d": 382.3527499999982,
      "v": 100
    },
    {
      "midi": 65,
      "hit": false,
      "t": 23647.046999999995,
      "d": 382.3527499999982,
      "v": 100
    },
    {
      "midi": 53,
      "hit": false,
      "t": 23647.046999999995,
      "d": 382.3527499999982,
      "v": 100
    },
    {
      "midi": 65,
      "hit": false,
      "t": 23647.046999999995,
      "d": 382.3527499999982,
      "v": 100
    },
    {
      "midi": 40,
      "hit": false,
      "t": 23647.047000000017,
      "d": 111.76465000000098,
      "v": 98
    },
    {
      "midi": 40,
      "hit": false,
      "t": 23647.047000000017,
      "d": 111.76465000000098,
      "v": 98
    },
    {
      "midi": 40,
      "hit": false,
      "t": 23764.694000000018,
      "d": 111.76465000000098,
      "v": 100
    },
    {
      "midi": 40,
      "hit": false,
      "t": 23764.694000000018,
      "d": 111.76465000000098,
      "v": 100
    },
    {
      "midi": 40,
      "hit": false,
      "t": 23882.34100000002,
      "d": 111.76465000000098,
      "v": 122
    },
    {
      "midi": 40,
      "hit": false,
      "t": 23882.34100000002,
      "d": 111.76465000000098,
      "v": 122
    },
    {
      "midi": 45,
      "hit": false,
      "t": 23935.282149999985,
      "d": 1399.9992999999995,
      "v": 95
    },
    {
      "midi": 45,
      "hit": false,
      "t": 23935.282149999985,
      "d": 1399.9992999999995,
      "v": 95
    },
    {
      "midi": 57,
      "hit": false,
      "t": 23941.164499999984,
      "d": 1388.2345999999998,
      "v": 80
    },
    {
      "midi": 57,
      "hit": false,
      "t": 23941.164499999984,
      "d": 1388.2345999999998,
      "v": 80
    },
    {
      "midi": 62,
      "hit": false,
      "t": 23999.987999999994,
      "d": 1411.7639999999992,
      "v": 94
    },
    {
      "midi": 69,
      "hit": false,
      "t": 23999.987999999994,
      "d": 1411.7639999999992,
      "v": 94
    },
    {
      "midi": 69,
      "hit": false,
      "t": 23999.987999999994,
      "d": 1411.7639999999992,
      "v": 94
    },
    {
      "midi": 57,
      "hit": false,
      "t": 23999.987999999994,
      "d": 1411.7639999999992,
      "v": 94
    },
    {
      "midi": 69,
      "hit": false,
      "t": 23999.987999999994,
      "d": 1411.7639999999992,
      "v": 94
    },
    {
      "midi": 40,
      "hit": false,
      "t": 23999.98800000002,
      "d": 111.76465000000098,
      "v": 102
    },
    {
      "midi": 40,
      "hit": false,
      "t": 23999.98800000002,
      "d": 111.76465000000098,
      "v": 102
    },
    {
      "midi": 40,
      "hit": false,
      "t": 24705.87000000002,
      "d": 111.76465000000098,
      "v": 100
    },
    {
      "midi": 40,
      "hit": false,
      "t": 24705.87000000002,
      "d": 111.76465000000098,
      "v": 100
    },
    {
      "midi": 54,
      "hit": false,
      "t": 24711.752350000006,
      "d": 76.47055000000182,
      "v": 127
    },
    {
      "midi": 40,
      "hit": false,
      "t": 24823.51700000002,
      "d": 111.76465000000098,
      "v": 66
    },
    {
      "midi": 40,
      "hit": false,
      "t": 24823.51700000002,
      "d": 111.76465000000098,
      "v": 66
    },
    {
      "midi": 40,
      "hit": false,
      "t": 24941.164000000022,
      "d": 111.76465000000098,
      "v": 88
    },
    {
      "midi": 40,
      "hit": false,
      "t": 24941.164000000022,
      "d": 111.76465000000098,
      "v": 88
    },
    {
      "midi": 55,
      "hit": false,
      "t": 24999.987500000007,
      "d": 52.94114999999874,
      "v": 100
    },
    {
      "midi": 67,
      "hit": false,
      "t": 25029.399250000002,
      "d": 88.23525000000154,
      "v": 110
    },
    {
      "midi": 67,
      "hit": false,
      "t": 25029.399250000002,
      "d": 88.23525000000154,
      "v": 110
    },
    {
      "midi": 74,
      "hit": false,
      "t": 25035.281600000002,
      "d": 82.35290000000168,
      "v": 120
    },
    {
      "midi": 74,
      "hit": false,
      "t": 25035.281600000002,
      "d": 82.35290000000168,
      "v": 120
    },
    {
      "midi": 40,
      "hit": false,
      "t": 25058.811000000023,
      "d": 111.76465000000098,
      "v": 85
    },
    {
      "midi": 40,
      "hit": false,
      "t": 25058.811000000023,
      "d": 111.76465000000098,
      "v": 85
    },
    {
      "midi": 40,
      "hit": false,
      "t": 25176.458000000024,
      "d": 111.76465000000098,
      "v": 108
    },
    {
      "midi": 40,
      "hit": false,
      "t": 25176.458000000024,
      "d": 111.76465000000098,
      "v": 108
    },
    {
      "midi": 40,
      "hit": false,
      "t": 25294.105000000025,
      "d": 111.76465000000098,
      "v": 91
    },
    {
      "midi": 40,
      "hit": false,
      "t": 25294.105000000025,
      "d": 111.76465000000098,
      "v": 91
    },
    {
      "midi": 38,
      "hit": false,
      "t": 25323.516749999984,
      "d": 1470.5874999999978,
      "v": 72
    },
    {
      "midi": 38,
      "hit": false,
      "t": 25323.516749999984,
      "d": 1470.5874999999978,
      "v": 72
    },
    {
      "midi": 50,
      "hit": false,
      "t": 25341.163799999984,
      "d": 1464.705149999998,
      "v": 79
    },
    {
      "midi": 50,
      "hit": false,
      "t": 25341.163799999984,
      "d": 1464.705149999998,
      "v": 79
    },
    {
      "midi": 55,
      "hit": false,
      "t": 25347.046150000006,
      "d": 99.99995000000126,
      "v": 127
    },
    {
      "midi": 67,
      "hit": false,
      "t": 25364.693200000005,
      "d": 88.23525000000154,
      "v": 120
    },
    {
      "midi": 74,
      "hit": false,
      "t": 25364.693200000005,
      "d": 94.1176000000014,
      "v": 127
    },
    {
      "midi": 67,
      "hit": false,
      "t": 25364.693200000005,
      "d": 88.23525000000154,
      "v": 120
    },
    {
      "midi": 74,
      "hit": false,
      "t": 25364.693200000005,
      "d": 94.1176000000014,
      "v": 127
    },
    {
      "midi": 43,
      "hit": false,
      "t": 25411.751999999993,
      "d": 352.9409999999989,
      "v": 88
    },
    {
      "midi": 50,
      "hit": false,
      "t": 25411.751999999993,
      "d": 352.9409999999989,
      "v": 88
    },
    {
      "midi": 50,
      "hit": false,
      "t": 25411.751999999993,
      "d": 352.9409999999989,
      "v": 88
    },
    {
      "midi": 38,
      "hit": false,
      "t": 25411.751999999993,
      "d": 352.9409999999989,
      "v": 88
    },
    {
      "midi": 50,
      "hit": false,
      "t": 25411.751999999993,
      "d": 352.9409999999989,
      "v": 88
    },
    {
      "midi": 40,
      "hit": false,
      "t": 25411.752000000026,
      "d": 111.76465000000098,
      "v": 127
    },
    {
      "midi": 40,
      "hit": false,
      "t": 25411.752000000026,
      "d": 111.76465000000098,
      "v": 127
    },
    {
      "midi": 74,
      "hit": false,
      "t": 25747.045950000007,
      "d": 82.35289999999804,
      "v": 122
    },
    {
      "midi": 74,
      "hit": false,
      "t": 25747.045950000007,
      "d": 82.35289999999804,
      "v": 122
    },
    {
      "midi": 67,
      "hit": false,
      "t": 25752.928300000007,
      "d": 64.70584999999846,
      "v": 114
    },
    {
      "midi": 67,
      "hit": false,
      "t": 25752.928300000007,
      "d": 64.70584999999846,
      "v": 114
    },
    {
      "midi": 50,
      "hit": false,
      "t": 25764.692999999992,
      "d": 352.9409999999989,
      "v": 78
    },
    {
      "midi": 57,
      "hit": false,
      "t": 25764.692999999992,
      "d": 352.9409999999989,
      "v": 78
    },
    {
      "midi": 57,
      "hit": false,
      "t": 25764.692999999992,
      "d": 352.9409999999989,
      "v": 78
    },
    {
      "midi": 45,
      "hit": false,
      "t": 25764.692999999992,
      "d": 352.9409999999989,
      "v": 78
    },
    {
      "midi": 57,
      "hit": false,
      "t": 25764.692999999992,
      "d": 352.9409999999989,
      "v": 78
    },
    {
      "midi": 40,
      "hit": false,
      "t": 25764.69300000003,
      "d": 111.76465000000098,
      "v": 120
    },
    {
      "midi": 40,
      "hit": false,
      "t": 25764.69300000003,
      "d": 111.76465000000098,
      "v": 120
    },
    {
      "midi": 55,
      "hit": false,
      "t": 26117.63399999999,
      "d": 352.9409999999989,
      "v": 97
    },
    {
      "midi": 62,
      "hit": false,
      "t": 26117.63399999999,
      "d": 352.9409999999989,
      "v": 97
    },
    {
      "midi": 62,
      "hit": false,
      "t": 26117.63399999999,
      "d": 352.9409999999989,
      "v": 97
    },
    {
      "midi": 50,
      "hit": false,
      "t": 26117.63399999999,
      "d": 352.9409999999989,
      "v": 97
    },
    {
      "midi": 62,
      "hit": false,
      "t": 26117.63399999999,
      "d": 352.9409999999989,
      "v": 97
    },
    {
      "midi": 54,
      "hit": false,
      "t": 26123.51635000001,
      "d": 88.23525000000154,
      "v": 127
    },
    {
      "midi": 50,
      "hit": false,
      "t": 26470.57499999999,
      "d": 352.9409999999989,
      "v": 81
    },
    {
      "midi": 57,
      "hit": false,
      "t": 26470.57499999999,
      "d": 352.9409999999989,
      "v": 81
    },
    {
      "midi": 57,
      "hit": false,
      "t": 26470.57499999999,
      "d": 352.9409999999989,
      "v": 81
    },
    {
      "midi": 45,
      "hit": false,
      "t": 26470.57499999999,
      "d": 352.9409999999989,
      "v": 81
    },
    {
      "midi": 57,
      "hit": false,
      "t": 26470.57499999999,
      "d": 352.9409999999989,
      "v": 81
    },
    {
      "midi": 40,
      "hit": false,
      "t": 26470.57500000003,
      "d": 111.76465000000098,
      "v": 98
    },
    {
      "midi": 40,
      "hit": false,
      "t": 26470.57500000003,
      "d": 111.76465000000098,
      "v": 98
    },
    {
      "midi": 40,
      "hit": false,
      "t": 26588.22200000003,
      "d": 111.76465000000098,
      "v": 97
    },
    {
      "midi": 40,
      "hit": false,
      "t": 26588.22200000003,
      "d": 111.76465000000098,
      "v": 97
    },
    {
      "midi": 40,
      "hit": false,
      "t": 26705.86900000003,
      "d": 111.76465000000098,
      "v": 120
    },
    {
      "midi": 40,
      "hit": false,
      "t": 26705.86900000003,
      "d": 111.76465000000098,
      "v": 120
    },
    {
      "midi": 39,
      "hit": false,
      "t": 26770.574849999983,
      "d": 1341.1757999999973,
      "v": 82
    },
    {
      "midi": 39,
      "hit": false,
      "t": 26770.574849999983,
      "d": 1341.1757999999973,
      "v": 82
    },
    {
      "midi": 51,
      "hit": false,
      "t": 26782.339549999982,
      "d": 1394.116949999996,
      "v": 97
    },
    {
      "midi": 51,
      "hit": false,
      "t": 26782.339549999982,
      "d": 1394.116949999996,
      "v": 97
    },
    {
      "midi": 51,
      "hit": false,
      "t": 26823.51599999999,
      "d": 1411.7639999999992,
      "v": 116
    },
    {
      "midi": 58,
      "hit": false,
      "t": 26823.51599999999,
      "d": 1411.7639999999992,
      "v": 116
    },
    {
      "midi": 58,
      "hit": false,
      "t": 26823.51599999999,
      "d": 1411.7639999999992,
      "v": 116
    },
    {
      "midi": 46,
      "hit": false,
      "t": 26823.51599999999,
      "d": 1411.7639999999992,
      "v": 116
    },
    {
      "midi": 58,
      "hit": false,
      "t": 26823.51599999999,
      "d": 1411.7639999999992,
      "v": 116
    },
    {
      "midi": 40,
      "hit": false,
      "t": 26823.516000000032,
      "d": 111.76465000000098,
      "v": 102
    },
    {
      "midi": 40,
      "hit": false,
      "t": 26823.516000000032,
      "d": 111.76465000000098,
      "v": 102
    },
    {
      "midi": 54,
      "hit": false,
      "t": 27529.398000000012,
      "d": 82.35290000000168,
      "v": 127
    },
    {
      "midi": 67,
      "hit": false,
      "t": 27841.162550000005,
      "d": 58.8234999999986,
      "v": 102
    },
    {
      "midi": 74,
      "hit": false,
      "t": 27841.162550000005,
      "d": 64.70584999999846,
      "v": 117
    },
    {
      "midi": 67,
      "hit": false,
      "t": 27841.162550000005,
      "d": 58.8234999999986,
      "v": 102
    },
    {
      "midi": 74,
      "hit": false,
      "t": 27841.162550000005,
      "d": 64.70584999999846,
      "v": 117
    },
    {
      "midi": 55,
      "hit": false,
      "t": 27858.809600000008,
      "d": 52.94114999999874,
      "v": 84
    },
    {
      "midi": 46,
      "hit": false,
      "t": 28105.86829999998,
      "d": 729.4113999999972,
      "v": 70
    },
    {
      "midi": 46,
      "hit": false,
      "t": 28105.86829999998,
      "d": 729.4113999999972,
      "v": 70
    },
    {
      "midi": 58,
      "hit": false,
      "t": 28135.28004999998,
      "d": 782.352549999996,
      "v": 95
    },
    {
      "midi": 58,
      "hit": false,
      "t": 28135.28004999998,
      "d": 782.352549999996,
      "v": 95
    },
    {
      "midi": 67,
      "hit": false,
      "t": 28182.338850000004,
      "d": 76.47055000000182,
      "v": 127
    },
    {
      "midi": 74,
      "hit": false,
      "t": 28182.338850000004,
      "d": 88.23525000000154,
      "v": 127
    },
    {
      "midi": 67,
      "hit": false,
      "t": 28182.338850000004,
      "d": 76.47055000000182,
      "v": 127
    },
    {
      "midi": 74,
      "hit": false,
      "t": 28182.338850000004,
      "d": 88.23525000000154,
      "v": 127
    },
    {
      "midi": 55,
      "hit": false,
      "t": 28211.750600000007,
      "d": 99.99995000000126,
      "v": 125
    },
    {
      "midi": 50,
      "hit": false,
      "t": 28235.279999999988,
      "d": 352.9409999999989,
      "v": 64
    },
    {
      "midi": 57,
      "hit": false,
      "t": 28235.279999999988,
      "d": 352.9409999999989,
      "v": 64
    },
    {
      "midi": 57,
      "hit": false,
      "t": 28235.279999999988,
      "d": 352.9409999999989,
      "v": 64
    },
    {
      "midi": 45,
      "hit": false,
      "t": 28235.279999999988,
      "d": 352.9409999999989,
      "v": 64
    },
    {
      "midi": 57,
      "hit": false,
      "t": 28235.279999999988,
      "d": 352.9409999999989,
      "v": 64
    },
    {
      "midi": 40,
      "hit": false,
      "t": 28235.28000000003,
      "d": 111.76465000000098,
      "v": 112
    },
    {
      "midi": 40,
      "hit": false,
      "t": 28235.28000000003,
      "d": 111.76465000000098,
      "v": 112
    },
    {
      "midi": 51,
      "hit": false,
      "t": 28588.220999999987,
      "d": 352.9409999999989,
      "v": 84
    },
    {
      "midi": 58,
      "hit": false,
      "t": 28588.220999999987,
      "d": 352.9409999999989,
      "v": 84
    },
    {
      "midi": 58,
      "hit": false,
      "t": 28588.220999999987,
      "d": 352.9409999999989,
      "v": 84
    },
    {
      "midi": 46,
      "hit": false,
      "t": 28588.220999999987,
      "d": 352.9409999999989,
      "v": 84
    },
    {
      "midi": 58,
      "hit": false,
      "t": 28588.220999999987,
      "d": 352.9409999999989,
      "v": 84
    },
    {
      "midi": 40,
      "hit": false,
      "t": 28588.221000000034,
      "d": 111.76465000000098,
      "v": 90
    },
    {
      "midi": 40,
      "hit": false,
      "t": 28588.221000000034,
      "d": 111.76465000000098,
      "v": 90
    },
    {
      "midi": 40,
      "hit": false,
      "t": 28705.868000000035,
      "d": 111.76465000000098,
      "v": 81
    },
    {
      "midi": 40,
      "hit": false,
      "t": 28705.868000000035,
      "d": 111.76465000000098,
      "v": 81
    },
    {
      "midi": 40,
      "hit": false,
      "t": 28823.515000000036,
      "d": 111.76465000000098,
      "v": 106
    },
    {
      "midi": 40,
      "hit": false,
      "t": 28823.515000000036,
      "d": 111.76465000000098,
      "v": 106
    },
    {
      "midi": 45,
      "hit": false,
      "t": 28835.279699999977,
      "d": 752.9407999999967,
      "v": 66
    },
    {
      "midi": 45,
      "hit": false,
      "t": 28835.279699999977,
      "d": 752.9407999999967,
      "v": 66
    },
    {
      "midi": 54,
      "hit": false,
      "t": 28876.456150000013,
      "d": 82.35290000000168,
      "v": 127
    },
    {
      "midi": 55,
      "hit": false,
      "t": 28911.750249999975,
      "d": 135.29405000000042,
      "v": 81
    },
    {
      "midi": 57,
      "hit": false,
      "t": 28911.750249999975,
      "d": 705.8819999999978,
      "v": 76
    },
    {
      "midi": 55,
      "hit": false,
      "t": 28911.750249999975,
      "d": 135.29405000000042,
      "v": 81
    },
    {
      "midi": 57,
      "hit": false,
      "t": 28911.750249999975,
      "d": 705.8819999999978,
      "v": 76
    },
    {
      "midi": 50,
      "hit": false,
      "t": 28941.161999999986,
      "d": 176.47049999999945,
      "v": 72
    },
    {
      "midi": 57,
      "hit": false,
      "t": 28941.161999999986,
      "d": 176.47049999999945,
      "v": 72
    },
    {
      "midi": 57,
      "hit": false,
      "t": 28941.161999999986,
      "d": 176.47049999999945,
      "v": 72
    },
    {
      "midi": 45,
      "hit": false,
      "t": 28941.161999999986,
      "d": 176.47049999999945,
      "v": 72
    },
    {
      "midi": 57,
      "hit": false,
      "t": 28941.161999999986,
      "d": 176.47049999999945,
      "v": 72
    },
    {
      "midi": 40,
      "hit": false,
      "t": 28941.162000000037,
      "d": 111.76465000000098,
      "v": 114
    },
    {
      "midi": 40,
      "hit": false,
      "t": 28941.162000000037,
      "d": 111.76465000000098,
      "v": 114
    },
    {
      "midi": 48,
      "hit": false,
      "t": 29117.632499999985,
      "d": 176.47049999999945,
      "v": 75
    },
    {
      "midi": 55,
      "hit": false,
      "t": 29117.632499999985,
      "d": 176.47049999999945,
      "v": 75
    },
    {
      "midi": 55,
      "hit": false,
      "t": 29117.632499999985,
      "d": 176.47049999999945,
      "v": 75
    },
    {
      "midi": 43,
      "hit": false,
      "t": 29117.632499999985,
      "d": 176.47049999999945,
      "v": 75
    },
    {
      "midi": 55,
      "hit": false,
      "t": 29117.632499999985,
      "d": 176.47049999999945,
      "v": 75
    },
    {
      "midi": 67,
      "hit": false,
      "t": 29276.455950000007,
      "d": 58.8234999999986,
      "v": 112
    },
    {
      "midi": 74,
      "hit": false,
      "t": 29276.455950000007,
      "d": 64.70584999999846,
      "v": 114
    },
    {
      "midi": 67,
      "hit": false,
      "t": 29276.455950000007,
      "d": 58.8234999999986,
      "v": 112
    },
    {
      "midi": 74,
      "hit": false,
      "t": 29276.455950000007,
      "d": 64.70584999999846,
      "v": 114
    },
    {
      "midi": 46,
      "hit": false,
      "t": 29294.102999999985,
      "d": 176.47049999999945,
      "v": 68
    },
    {
      "midi": 53,
      "hit": false,
      "t": 29294.102999999985,
      "d": 176.47049999999945,
      "v": 68
    },
    {
      "midi": 53,
      "hit": false,
      "t": 29294.102999999985,
      "d": 176.47049999999945,
      "v": 68
    },
    {
      "midi": 41,
      "hit": false,
      "t": 29294.102999999985,
      "d": 176.47049999999945,
      "v": 68
    },
    {
      "midi": 53,
      "hit": false,
      "t": 29294.102999999985,
      "d": 176.47049999999945,
      "v": 68
    },
    {
      "midi": 40,
      "hit": false,
      "t": 29294.10300000004,
      "d": 111.76465000000098,
      "v": 108
    },
    {
      "midi": 40,
      "hit": false,
      "t": 29294.10300000004,
      "d": 111.76465000000098,
      "v": 108
    },
    {
      "midi": 40,
      "hit": false,
      "t": 29411.75000000004,
      "d": 111.76465000000098,
      "v": 85
    },
    {
      "midi": 40,
      "hit": false,
      "t": 29411.75000000004,
      "d": 111.76465000000098,
      "v": 85
    },
    {
      "midi": 45,
      "hit": false,
      "t": 29470.573499999984,
      "d": 176.47049999999945,
      "v": 75
    },
    {
      "midi": 52,
      "hit": false,
      "t": 29470.573499999984,
      "d": 176.47049999999945,
      "v": 75
    },
    {
      "midi": 52,
      "hit": false,
      "t": 29470.573499999984,
      "d": 176.47049999999945,
      "v": 75
    },
    {
      "midi": 40,
      "hit": false,
      "t": 29470.573499999984,
      "d": 176.47049999999945,
      "v": 75
    },
    {
      "midi": 52,
      "hit": false,
      "t": 29470.573499999984,
      "d": 176.47049999999945,
      "v": 75
    },
    {
      "midi": 40,
      "hit": false,
      "t": 29529.39700000004,
      "d": 111.76465000000098,
      "v": 85
    },
    {
      "midi": 40,
      "hit": false,
      "t": 29529.39700000004,
      "d": 111.76465000000098,
      "v": 85
    },
    {
      "midi": 43,
      "hit": false,
      "t": 29576.455799999974,
      "d": 1111.764149999999,
      "v": 80
    },
    {
      "midi": 43,
      "hit": false,
      "t": 29576.455799999974,
      "d": 1111.764149999999,
      "v": 80
    },
    {
      "midi": 55,
      "hit": false,
      "t": 29588.220499999974,
      "d": 1135.2935499999985,
      "v": 83
    },
    {
      "midi": 55,
      "hit": false,
      "t": 29588.220499999974,
      "d": 1135.2935499999985,
      "v": 83
    },
    {
      "midi": 67,
      "hit": false,
      "t": 29623.514600000006,
      "d": 676.4702499999985,
      "v": 111
    },
    {
      "midi": 74,
      "hit": false,
      "t": 29623.514600000006,
      "d": 676.4702499999985,
      "v": 111
    },
    {
      "midi": 67,
      "hit": false,
      "t": 29623.514600000006,
      "d": 676.4702499999985,
      "v": 111
    },
    {
      "midi": 74,
      "hit": false,
      "t": 29623.514600000006,
      "d": 676.4702499999985,
      "v": 111
    },
    {
      "midi": 43,
      "hit": false,
      "t": 29647.043999999983,
      "d": 705.8820000000014,
      "v": 88
    },
    {
      "midi": 50,
      "hit": false,
      "t": 29647.043999999983,
      "d": 705.8820000000014,
      "v": 88
    },
    {
      "midi": 50,
      "hit": false,
      "t": 29647.043999999983,
      "d": 705.8820000000014,
      "v": 88
    },
    {
      "midi": 38,
      "hit": false,
      "t": 29647.043999999983,
      "d": 705.8820000000014,
      "v": 88
    },
    {
      "midi": 50,
      "hit": false,
      "t": 29647.043999999983,
      "d": 705.8820000000014,
      "v": 88
    },
    {
      "midi": 40,
      "hit": false,
      "t": 29647.04400000004,
      "d": 111.76465000000098,
      "v": 122
    },
    {
      "midi": 40,
      "hit": false,
      "t": 29647.04400000004,
      "d": 111.76465000000098,
      "v": 122
    },
    {
      "midi": 55,
      "hit": false,
      "t": 29658.80870000001,
      "d": 76.47054999999818,
      "v": 117
    },
    {
      "midi": 54,
      "hit": false,
      "t": 30347.043650000014,
      "d": 70.58819999999832,
      "v": 127
    },
    {
      "midi": 40,
      "hit": false,
      "t": 30352.92600000004,
      "d": 111.76465000000098,
      "v": 117
    },
    {
      "midi": 40,
      "hit": false,
      "t": 30352.926000000043,
      "d": 111.76465000000098,
      "v": 117
    },
    {
      "midi": 67,
      "hit": false,
      "t": 30682.337600000003,
      "d": 70.58819999999832,
      "v": 108
    },
    {
      "midi": 74,
      "hit": false,
      "t": 30682.337600000003,
      "d": 76.47054999999818,
      "v": 110
    },
    {
      "midi": 67,
      "hit": false,
      "t": 30682.337600000003,
      "d": 70.58819999999832,
      "v": 108
    },
    {
      "midi": 74,
      "hit": false,
      "t": 30682.337600000003,
      "d": 76.47054999999818,
      "v": 110
    },
    {
      "midi": 40,
      "hit": false,
      "t": 30705.867000000042,
      "d": 111.76465000000098,
      "v": 94
    },
    {
      "midi": 40,
      "hit": false,
      "t": 30705.867000000046,
      "d": 111.76465000000098,
      "v": 94
    },
    {
      "midi": 67,
      "hit": false,
      "t": 31035.2786,
      "d": 70.58819999999832,
      "v": 114
    },
    {
      "midi": 74,
      "hit": false,
      "t": 31035.2786,
      "d": 76.47054999999818,
      "v": 120
    },
    {
      "midi": 67,
      "hit": false,
      "t": 31035.2786,
      "d": 70.58819999999832,
      "v": 114
    },
    {
      "midi": 74,
      "hit": false,
      "t": 31035.2786,
      "d": 76.47054999999818,
      "v": 120
    },
    {
      "midi": 50,
      "hit": false,
      "t": 31058.80799999997,
      "d": 1376.4699,
      "v": 53
    },
    {
      "midi": 50,
      "hit": false,
      "t": 31058.80799999997,
      "d": 1376.4699,
      "v": 53
    },
    {
      "midi": 50,
      "hit": false,
      "t": 31058.807999999986,
      "d": 352.9409999999989,
      "v": 80
    },
    {
      "midi": 50,
      "hit": false,
      "t": 31058.807999999986,
      "d": 352.9409999999989,
      "v": 80
    },
    {
      "midi": 43,
      "hit": false,
      "t": 31058.807999999986,
      "d": 117.64700000000084,
      "v": 114
    },
    {
      "midi": 38,
      "hit": false,
      "t": 31058.807999999986,
      "d": 352.94100000000253,
      "v": 80
    },
    {
      "midi": 50,
      "hit": false,
      "t": 31058.807999999986,
      "d": 352.9409999999989,
      "v": 80
    },
    {
      "midi": 70,
      "hit": false,
      "t": 31058.807999999997,
      "d": 323.5292499999996,
      "v": 127
    },
    {
      "midi": 55,
      "hit": false,
      "t": 31058.808000000008,
      "d": 117.64700000000084,
      "v": 114
    },
    {
      "midi": 40,
      "hit": false,
      "t": 31058.808000000045,
      "d": 111.76465000000098,
      "v": 117
    },
    {
      "midi": 40,
      "hit": false,
      "t": 31058.80800000005,
      "d": 111.76465000000098,
      "v": 117
    },
    {
      "midi": 62,
      "hit": false,
      "t": 31094.102099999986,
      "d": 341.1762999999992,
      "v": 108
    },
    {
      "midi": 74,
      "hit": false,
      "t": 31388.219599999997,
      "d": 2099.998950000001,
      "v": 120
    },
    {
      "midi": 74,
      "hit": false,
      "t": 31388.2196,
      "d": 76.47054999999818,
      "v": 125
    },
    {
      "midi": 74,
      "hit": false,
      "t": 31388.2196,
      "d": 76.47054999999818,
      "v": 125
    },
    {
      "midi": 67,
      "hit": false,
      "t": 31394.10195,
      "d": 58.8234999999986,
      "v": 112
    },
    {
      "midi": 67,
      "hit": false,
      "t": 31394.10195,
      "d": 58.8234999999986,
      "v": 112
    },
    {
      "midi": 57,
      "hit": false,
      "t": 31411.748999999985,
      "d": 352.9409999999989,
      "v": 78
    },
    {
      "midi": 57,
      "hit": false,
      "t": 31411.748999999985,
      "d": 352.9409999999989,
      "v": 78
    },
    {
      "midi": 57,
      "hit": false,
      "t": 31411.748999999985,
      "d": 352.9409999999989,
      "v": 78
    },
    {
      "midi": 45,
      "hit": false,
      "t": 31411.74899999999,
      "d": 352.9409999999989,
      "v": 78
    },
    {
      "midi": 40,
      "hit": false,
      "t": 31411.749000000047,
      "d": 111.76465000000098,
      "v": 114
    },
    {
      "midi": 40,
      "hit": false,
      "t": 31411.74900000005,
      "d": 111.76465000000098,
      "v": 114
    },
    {
      "midi": 67,
      "hit": false,
      "t": 31417.631349999985,
      "d": 2088.2342499999977,
      "v": 125
    },
    {
      "midi": 62,
      "hit": false,
      "t": 31764.689999999984,
      "d": 352.9409999999989,
      "v": 75
    },
    {
      "midi": 62,
      "hit": false,
      "t": 31764.689999999984,
      "d": 352.9409999999989,
      "v": 75
    },
    {
      "midi": 62,
      "hit": false,
      "t": 31764.689999999984,
      "d": 352.9409999999989,
      "v": 75
    },
    {
      "midi": 50,
      "hit": false,
      "t": 31764.689999999988,
      "d": 352.9409999999989,
      "v": 75
    },
    {
      "midi": 54,
      "hit": false,
      "t": 31776.454700000013,
      "d": 76.47055000000182,
      "v": 127
    },
    {
      "midi": 57,
      "hit": false,
      "t": 32117.630999999983,
      "d": 352.9409999999989,
      "v": 73
    },
    {
      "midi": 57,
      "hit": false,
      "t": 32117.630999999983,
      "d": 352.9409999999989,
      "v": 73
    },
    {
      "midi": 57,
      "hit": false,
      "t": 32117.630999999983,
      "d": 352.9409999999989,
      "v": 73
    },
    {
      "midi": 45,
      "hit": false,
      "t": 32117.630999999987,
      "d": 352.9409999999989,
      "v": 73
    },
    {
      "midi": 40,
      "hit": false,
      "t": 32117.63100000005,
      "d": 111.76465000000098,
      "v": 97
    },
    {
      "midi": 40,
      "hit": false,
      "t": 32117.631000000052,
      "d": 111.76465000000098,
      "v": 97
    },
    {
      "midi": 40,
      "hit": false,
      "t": 32235.27800000005,
      "d": 111.76465000000098,
      "v": 80
    },
    {
      "midi": 40,
      "hit": false,
      "t": 32235.278000000053,
      "d": 111.76465000000098,
      "v": 80
    },
    {
      "midi": 40,
      "hit": false,
      "t": 32352.92500000005,
      "d": 111.76465000000098,
      "v": 110
    },
    {
      "midi": 40,
      "hit": false,
      "t": 32352.925000000054,
      "d": 111.76465000000098,
      "v": 110
    },
    {
      "midi": 39,
      "hit": false,
      "t": 32399.983799999973,
      "d": 1417.6463499999954,
      "v": 74
    },
    {
      "midi": 39,
      "hit": false,
      "t": 32399.983799999973,
      "d": 1417.6463499999954,
      "v": 74
    },
    {
      "midi": 51,
      "hit": false,
      "t": 32417.630849999972,
      "d": 1435.293399999995,
      "v": 65
    },
    {
      "midi": 51,
      "hit": false,
      "t": 32417.630849999972,
      "d": 1435.293399999995,
      "v": 65
    },
    {
      "midi": 58,
      "hit": false,
      "t": 32470.571999999982,
      "d": 1411.7639999999992,
      "v": 104
    },
    {
      "midi": 58,
      "hit": false,
      "t": 32470.571999999982,
      "d": 1411.7639999999992,
      "v": 104
    },
    {
      "midi": 58,
      "hit": false,
      "t": 32470.571999999982,
      "d": 1411.7639999999992,
      "v": 104
    },
    {
      "midi": 46,
      "hit": false,
      "t": 32470.571999999986,
      "d": 1411.7639999999956,
      "v": 104
    },
    {
      "midi": 40,
      "hit": false,
      "t": 32470.57200000005,
      "d": 111.76465000000098,
      "v": 98
    },
    {
      "midi": 40,
      "hit": false,
      "t": 32470.572000000055,
      "d": 111.76465000000098,
      "v": 98
    },
    {
      "midi": 54,
      "hit": false,
      "t": 33176.45400000001,
      "d": 76.47054999999818,
      "v": 127
    },
    {
      "midi": 72,
      "hit": false,
      "t": 33488.21855,
      "d": 182.35285000000295,
      "v": 98
    },
    {
      "midi": 69,
      "hit": false,
      "t": 33499.98324999998,
      "d": 158.82344999999623,
      "v": 106
    },
    {
      "midi": 43,
      "hit": false,
      "t": 33505.86559999998,
      "d": 52.94114999999874,
      "v": 117
    },
    {
      "midi": 55,
      "hit": false,
      "t": 33505.86560000001,
      "d": 52.94114999999874,
      "v": 117
    },
    {
      "midi": 40,
      "hit": false,
      "t": 33529.395000000055,
      "d": 111.76464999999735,
      "v": 92
    },
    {
      "midi": 40,
      "hit": false,
      "t": 33529.395000000055,
      "d": 111.76464999999735,
      "v": 92
    },
    {
      "midi": 74,
      "hit": false,
      "t": 33535.27735,
      "d": 76.47054999999818,
      "v": 97
    },
    {
      "midi": 74,
      "hit": false,
      "t": 33535.27735,
      "d": 76.47054999999818,
      "v": 97
    },
    {
      "midi": 67,
      "hit": false,
      "t": 33541.1597,
      "d": 82.35289999999804,
      "v": 100
    },
    {
      "midi": 67,
      "hit": false,
      "t": 33541.1597,
      "d": 82.35289999999804,
      "v": 100
    },
    {
      "midi": 40,
      "hit": false,
      "t": 33647.04200000005,
      "d": 111.76464999999735,
      "v": 87
    },
    {
      "midi": 40,
      "hit": false,
      "t": 33647.04200000005,
      "d": 111.76464999999735,
      "v": 87
    },
    {
      "midi": 70,
      "hit": false,
      "t": 33652.92434999998,
      "d": 205.8822500000024,
      "v": 106
    },
    {
      "midi": 74,
      "hit": false,
      "t": 33658.8067,
      "d": 135.2940499999968,
      "v": 102
    },
    {
      "midi": 40,
      "hit": false,
      "t": 33764.68900000005,
      "d": 111.76464999999735,
      "v": 95
    },
    {
      "midi": 40,
      "hit": false,
      "t": 33764.68900000005,
      "d": 111.76464999999735,
      "v": 95
    },
    {
      "midi": 72,
      "hit": false,
      "t": 33788.2184,
      "d": 1117.6465000000026,
      "v": 110
    },
    {
      "midi": 43,
      "hit": false,
      "t": 33805.86544999997,
      "d": 1452.9404499999946,
      "v": 73
    },
    {
      "midi": 43,
      "hit": false,
      "t": 33805.86544999997,
      "d": 1452.9404499999946,
      "v": 73
    },
    {
      "midi": 69,
      "hit": false,
      "t": 33823.51249999998,
      "d": 1105.8817999999956,
      "v": 112
    },
    {
      "midi": 55,
      "hit": false,
      "t": 33829.39484999997,
      "d": 1429.4110499999952,
      "v": 66
    },
    {
      "midi": 55,
      "hit": false,
      "t": 33829.39484999997,
      "d": 1429.4110499999952,
      "v": 66
    },
    {
      "midi": 43,
      "hit": false,
      "t": 33847.04189999998,
      "d": 99.99994999999763,
      "v": 127
    },
    {
      "midi": 55,
      "hit": false,
      "t": 33847.04190000001,
      "d": 99.99994999999763,
      "v": 127
    },
    {
      "midi": 74,
      "hit": false,
      "t": 33864.688949999996,
      "d": 76.47054999999818,
      "v": 110
    },
    {
      "midi": 74,
      "hit": false,
      "t": 33864.688949999996,
      "d": 76.47054999999818,
      "v": 110
    },
    {
      "midi": 67,
      "hit": false,
      "t": 33876.453649999996,
      "d": 58.8234999999986,
      "v": 100
    },
    {
      "midi": 67,
      "hit": false,
      "t": 33876.453649999996,
      "d": 58.8234999999986,
      "v": 100
    },
    {
      "midi": 50,
      "hit": false,
      "t": 33882.33599999998,
      "d": 352.9409999999989,
      "v": 94
    },
    {
      "midi": 50,
      "hit": false,
      "t": 33882.33599999998,
      "d": 352.9409999999989,
      "v": 94
    },
    {
      "midi": 38,
      "hit": false,
      "t": 33882.33599999998,
      "d": 352.9409999999989,
      "v": 94
    },
    {
      "midi": 50,
      "hit": false,
      "t": 33882.33599999998,
      "d": 352.9409999999989,
      "v": 94
    },
    {
      "midi": 40,
      "hit": false,
      "t": 33882.33600000005,
      "d": 111.76464999999735,
      "v": 122
    },
    {
      "midi": 40,
      "hit": false,
      "t": 33882.33600000005,
      "d": 111.76464999999735,
      "v": 122
    },
    {
      "midi": 57,
      "hit": false,
      "t": 34235.27699999998,
      "d": 352.9409999999989,
      "v": 71
    },
    {
      "midi": 57,
      "hit": false,
      "t": 34235.27699999998,
      "d": 352.9409999999989,
      "v": 71
    },
    {
      "midi": 45,
      "hit": false,
      "t": 34235.27699999998,
      "d": 352.9409999999989,
      "v": 71
    },
    {
      "midi": 57,
      "hit": false,
      "t": 34235.27699999998,
      "d": 352.9409999999989,
      "v": 71
    },
    {
      "midi": 74,
      "hit": false,
      "t": 34235.276999999995,
      "d": 64.70584999999846,
      "v": 110
    },
    {
      "midi": 74,
      "hit": false,
      "t": 34235.276999999995,
      "d": 64.70584999999846,
      "v": 110
    },
    {
      "midi": 67,
      "hit": false,
      "t": 34241.159349999994,
      "d": 70.58819999999832,
      "v": 102
    },
    {
      "midi": 67,
      "hit": false,
      "t": 34241.159349999994,
      "d": 70.58819999999832,
      "v": 102
    },
    {
      "midi": 62,
      "hit": false,
      "t": 34588.21799999998,
      "d": 352.9409999999989,
      "v": 81
    },
    {
      "midi": 62,
      "hit": false,
      "t": 34588.21799999998,
      "d": 352.9409999999989,
      "v": 81
    },
    {
      "midi": 50,
      "hit": false,
      "t": 34588.21799999998,
      "d": 352.9409999999989,
      "v": 81
    },
    {
      "midi": 62,
      "hit": false,
      "t": 34588.21799999998,
      "d": 352.9409999999989,
      "v": 81
    },
    {
      "midi": 54,
      "hit": false,
      "t": 34599.98270000001,
      "d": 76.47054999999818,
      "v": 127
    },
    {
      "midi": 70,
      "hit": false,
      "t": 34899.98255,
      "d": 335.2939499999993,
      "v": 116
    },
    {
      "midi": 70,
      "hit": false,
      "t": 34911.74724999998,
      "d": 358.82334999999875,
      "v": 77
    },
    {
      "midi": 65,
      "hit": false,
      "t": 34941.15899999998,
      "d": 382.3527499999982,
      "v": 100
    },
    {
      "midi": 65,
      "hit": false,
      "t": 34941.15899999998,
      "d": 382.3527499999982,
      "v": 100
    },
    {
      "midi": 53,
      "hit": false,
      "t": 34941.15899999998,
      "d": 382.3527499999982,
      "v": 100
    },
    {
      "midi": 65,
      "hit": false,
      "t": 34941.15899999998,
      "d": 382.3527499999982,
      "v": 100
    },
    {
      "midi": 40,
      "hit": false,
      "t": 34941.15900000004,
      "d": 111.76464999999735,
      "v": 94
    },
    {
      "midi": 40,
      "hit": false,
      "t": 34941.15900000004,
      "d": 111.76464999999735,
      "v": 94
    },
    {
      "midi": 45,
      "hit": false,
      "t": 35229.394149999964,
      "d": 1399.9992999999959,
      "v": 95
    },
    {
      "midi": 45,
      "hit": false,
      "t": 35229.394149999964,
      "d": 1399.9992999999959,
      "v": 95
    },
    {
      "midi": 57,
      "hit": false,
      "t": 35235.27649999996,
      "d": 1388.2345999999961,
      "v": 80
    },
    {
      "midi": 57,
      "hit": false,
      "t": 35235.27649999996,
      "d": 1388.2345999999961,
      "v": 80
    },
    {
      "midi": 69,
      "hit": false,
      "t": 35247.0412,
      "d": 1417.6463500000027,
      "v": 110
    },
    {
      "midi": 62,
      "hit": false,
      "t": 35270.57059999998,
      "d": 1111.7641500000027,
      "v": 84
    },
    {
      "midi": 69,
      "hit": false,
      "t": 35294.09999999998,
      "d": 1411.7639999999956,
      "v": 94
    },
    {
      "midi": 69,
      "hit": false,
      "t": 35294.09999999998,
      "d": 1411.7639999999956,
      "v": 94
    },
    {
      "midi": 57,
      "hit": false,
      "t": 35294.09999999998,
      "d": 1411.7639999999956,
      "v": 94
    },
    {
      "midi": 69,
      "hit": false,
      "t": 35294.09999999998,
      "d": 1411.7639999999956,
      "v": 94
    },
    {
      "midi": 40,
      "hit": false,
      "t": 35294.10000000004,
      "d": 111.76464999999735,
      "v": 125
    },
    {
      "midi": 40,
      "hit": false,
      "t": 35294.10000000004,
      "d": 111.76464999999735,
      "v": 125
    },
    {
      "midi": 54,
      "hit": false,
      "t": 35988.217300000004,
      "d": 311.7645499999999,
      "v": 127
    },
    {
      "midi": 40,
      "hit": false,
      "t": 35999.98200000004,
      "d": 111.76464999999735,
      "v": 100
    },
    {
      "midi": 40,
      "hit": false,
      "t": 35999.98200000004,
      "d": 111.76464999999735,
      "v": 100
    },
    {
      "midi": 40,
      "hit": false,
      "t": 36117.62900000004,
      "d": 111.76464999999735,
      "v": 91
    },
    {
      "midi": 40,
      "hit": false,
      "t": 36117.62900000004,
      "d": 111.76464999999735,
      "v": 91
    },
    {
      "midi": 40,
      "hit": false,
      "t": 36235.276000000034,
      "d": 111.76464999999735,
      "v": 92
    },
    {
      "midi": 40,
      "hit": false,
      "t": 36235.276000000034,
      "d": 111.76464999999735,
      "v": 92
    },
    {
      "midi": 43,
      "hit": false,
      "t": 36294.099499999975,
      "d": 52.94114999999874,
      "v": 100
    },
    {
      "midi": 55,
      "hit": false,
      "t": 36294.09950000001,
      "d": 52.94114999999874,
      "v": 100
    },
    {
      "midi": 74,
      "hit": false,
      "t": 36317.628899999996,
      "d": 64.70584999999846,
      "v": 94
    },
    {
      "midi": 67,
      "hit": false,
      "t": 36317.628899999996,
      "d": 76.47054999999818,
      "v": 98
    },
    {
      "midi": 74,
      "hit": false,
      "t": 36317.628899999996,
      "d": 64.70584999999846,
      "v": 94
    },
    {
      "midi": 67,
      "hit": false,
      "t": 36317.628899999996,
      "d": 76.47054999999818,
      "v": 98
    },
    {
      "midi": 40,
      "hit": false,
      "t": 36352.92300000003,
      "d": 111.76464999999735,
      "v": 77
    },
    {
      "midi": 40,
      "hit": false,
      "t": 36352.92300000003,
      "d": 111.76464999999735,
      "v": 77
    },
    {
      "midi": 40,
      "hit": false,
      "t": 36470.57000000003,
      "d": 111.76464999999735,
      "v": 102
    },
    {
      "midi": 40,
      "hit": false,
      "t": 36470.57000000003,
      "d": 111.76464999999735,
      "v": 102
    },
    {
      "midi": 40,
      "hit": false,
      "t": 36588.217000000026,
      "d": 111.76464999999735,
      "v": 102
    },
    {
      "midi": 40,
      "hit": false,
      "t": 36588.217000000026,
      "d": 111.76464999999735,
      "v": 102
    },
    {
      "midi": 38,
      "hit": false,
      "t": 36617.62874999996,
      "d": 1470.5875000000015,
      "v": 72
    },
    {
      "midi": 38,
      "hit": false,
      "t": 36617.62874999996,
      "d": 1470.5875000000015,
      "v": 72
    },
    {
      "midi": 50,
      "hit": false,
      "t": 36635.27579999996,
      "d": 1464.7051500000016,
      "v": 79
    },
    {
      "midi": 50,
      "hit": false,
      "t": 36635.27579999996,
      "d": 1464.7051500000016,
      "v": 79
    },
    {
      "midi": 43,
      "hit": false,
      "t": 36641.158149999974,
      "d": 99.99994999999763,
      "v": 127
    },
    {
      "midi": 55,
      "hit": false,
      "t": 36641.15815000001,
      "d": 99.99994999999763,
      "v": 127
    },
    {
      "midi": 74,
      "hit": false,
      "t": 36658.805199999995,
      "d": 64.70584999999846,
      "v": 102
    },
    {
      "midi": 67,
      "hit": false,
      "t": 36658.805199999995,
      "d": 76.47054999999818,
      "v": 104
    },
    {
      "midi": 74,
      "hit": false,
      "t": 36658.805199999995,
      "d": 64.70584999999846,
      "v": 102
    },
    {
      "midi": 67,
      "hit": false,
      "t": 36658.805199999995,
      "d": 76.47054999999818,
      "v": 104
    },
    {
      "midi": 70,
      "hit": false,
      "t": 36670.5699,
      "d": 358.82334999999875,
      "v": 119
    },
    {
      "midi": 50,
      "hit": false,
      "t": 36705.86399999997,
      "d": 352.9409999999989,
      "v": 88
    },
    {
      "midi": 50,
      "hit": false,
      "t": 36705.86399999997,
      "d": 352.9409999999989,
      "v": 88
    },
    {
      "midi": 38,
      "hit": false,
      "t": 36705.86399999997,
      "d": 352.9409999999989,
      "v": 88
    },
    {
      "midi": 50,
      "hit": false,
      "t": 36705.86399999997,
      "d": 352.9409999999989,
      "v": 88
    },
    {
      "midi": 40,
      "hit": false,
      "t": 36705.86400000002,
      "d": 111.76464999999735,
      "v": 117
    },
    {
      "midi": 40,
      "hit": false,
      "t": 36705.86400000002,
      "d": 111.76464999999735,
      "v": 117
    },
    {
      "midi": 62,
      "hit": false,
      "t": 36723.51104999998,
      "d": 311.7645499999999,
      "v": 112
    },
    {
      "midi": 74,
      "hit": false,
      "t": 37011.7462,
      "d": 752.9407999999967,
      "v": 100
    },
    {
      "midi": 74,
      "hit": false,
      "t": 37041.15794999999,
      "d": 76.47054999999818,
      "v": 114
    },
    {
      "midi": 74,
      "hit": false,
      "t": 37041.15794999999,
      "d": 76.47054999999818,
      "v": 114
    },
    {
      "midi": 67,
      "hit": false,
      "t": 37052.92264999998,
      "d": 635.2937999999995,
      "v": 127
    },
    {
      "midi": 67,
      "hit": false,
      "t": 37052.92264999999,
      "d": 52.94114999999874,
      "v": 106
    },
    {
      "midi": 67,
      "hit": false,
      "t": 37052.92264999999,
      "d": 52.94114999999874,
      "v": 106
    },
    {
      "midi": 57,
      "hit": false,
      "t": 37058.80499999997,
      "d": 352.9409999999989,
      "v": 78
    },
    {
      "midi": 57,
      "hit": false,
      "t": 37058.80499999997,
      "d": 352.9409999999989,
      "v": 78
    },
    {
      "midi": 45,
      "hit": false,
      "t": 37058.80499999997,
      "d": 352.9409999999989,
      "v": 78
    },
    {
      "midi": 57,
      "hit": false,
      "t": 37058.80499999997,
      "d": 352.9409999999989,
      "v": 78
    },
    {
      "midi": 40,
      "hit": false,
      "t": 37058.80500000002,
      "d": 111.76464999999735,
      "v": 120
    },
    {
      "midi": 40,
      "hit": false,
      "t": 37058.80500000002,
      "d": 111.76464999999735,
      "v": 120
    },
    {
      "midi": 62,
      "hit": false,
      "t": 37411.74599999997,
      "d": 352.9409999999989,
      "v": 97
    },
    {
      "midi": 62,
      "hit": false,
      "t": 37411.74599999997,
      "d": 352.9409999999989,
      "v": 97
    },
    {
      "midi": 50,
      "hit": false,
      "t": 37411.74599999997,
      "d": 352.9409999999989,
      "v": 97
    },
    {
      "midi": 62,
      "hit": false,
      "t": 37411.74599999997,
      "d": 352.9409999999989,
      "v": 97
    },
    {
      "midi": 54,
      "hit": false,
      "t": 37411.74600000001,
      "d": 364.7056999999986,
      "v": 127
    },
    {
      "midi": 57,
      "hit": false,
      "t": 37764.68699999997,
      "d": 352.9409999999989,
      "v": 81
    },
    {
      "midi": 57,
      "hit": false,
      "t": 37764.68699999997,
      "d": 352.9409999999989,
      "v": 81
    },
    {
      "midi": 45,
      "hit": false,
      "t": 37764.68699999997,
      "d": 352.9409999999989,
      "v": 81
    },
    {
      "midi": 57,
      "hit": false,
      "t": 37764.68699999997,
      "d": 352.9409999999989,
      "v": 81
    },
    {
      "midi": 72,
      "hit": false,
      "t": 37764.687,
      "d": 123.52934999999707,
      "v": 97
    },
    {
      "midi": 40,
      "hit": false,
      "t": 37764.68700000002,
      "d": 111.76464999999735,
      "v": 95
    },
    {
      "midi": 40,
      "hit": false,
      "t": 37764.68700000002,
      "d": 111.76464999999735,
      "v": 95
    },
    {
      "midi": 67,
      "hit": false,
      "t": 37770.569349999976,
      "d": 152.94109999999637,
      "v": 100
    },
    {
      "midi": 74,
      "hit": false,
      "t": 37864.686949999996,
      "d": 152.94109999999637,
      "v": 95
    },
    {
      "midi": 40,
      "hit": false,
      "t": 37882.33400000002,
      "d": 111.76464999999735,
      "v": 87
    },
    {
      "midi": 40,
      "hit": false,
      "t": 37882.33400000002,
      "d": 111.76464999999735,
      "v": 87
    },
    {
      "midi": 69,
      "hit": false,
      "t": 37899.98104999997,
      "d": 129.41169999999693,
      "v": 95
    },
    {
      "midi": 77,
      "hit": false,
      "t": 37988.21629999999,
      "d": 141.17639999999665,
      "v": 98
    },
    {
      "midi": 70,
      "hit": false,
      "t": 37999.98099999997,
      "d": 129.41169999999693,
      "v": 104
    },
    {
      "midi": 40,
      "hit": false,
      "t": 37999.981000000014,
      "d": 111.76464999999735,
      "v": 117
    },
    {
      "midi": 40,
      "hit": false,
      "t": 37999.981000000014,
      "d": 111.76464999999735,
      "v": 117
    },
    {
      "midi": 39,
      "hit": false,
      "t": 38064.68684999996,
      "d": 1341.1757999999973,
      "v": 82
    },
    {
      "midi": 39,
      "hit": false,
      "t": 38064.68684999996,
      "d": 1341.1757999999973,
      "v": 82
    },
    {
      "midi": 51,
      "hit": false,
      "t": 38076.45154999996,
      "d": 1394.116949999996,
      "v": 97
    },
    {
      "midi": 51,
      "hit": false,
      "t": 38076.45154999996,
      "d": 1394.116949999996,
      "v": 97
    },
    {
      "midi": 72,
      "hit": false,
      "t": 38117.62799999997,
      "d": 1052.9406499999968,
      "v": 97
    },
    {
      "midi": 58,
      "hit": false,
      "t": 38117.62799999997,
      "d": 1411.7640000000029,
      "v": 116
    },
    {
      "midi": 58,
      "hit": false,
      "t": 38117.62799999997,
      "d": 1411.7640000000029,
      "v": 116
    },
    {
      "midi": 46,
      "hit": false,
      "t": 38117.62799999997,
      "d": 1411.7639999999956,
      "v": 116
    },
    {
      "midi": 58,
      "hit": false,
      "t": 38117.62799999997,
      "d": 1411.7640000000029,
      "v": 116
    },
    {
      "midi": 79,
      "hit": false,
      "t": 38117.62799999999,
      "d": 1011.7641999999978,
      "v": 102
    },
    {
      "midi": 40,
      "hit": false,
      "t": 38117.62800000001,
      "d": 111.76464999999735,
      "v": 125
    },
    {
      "midi": 40,
      "hit": false,
      "t": 38117.62800000001,
      "d": 111.76464999999735,
      "v": 125
    },
    {
      "midi": 54,
      "hit": false,
      "t": 38764.6865,
      "d": 241.17635000000155,
      "v": 127
    },
    {
      "midi": 77,
      "hit": false,
      "t": 39117.62749999999,
      "d": 317.64689999999973,
      "v": 94
    },
    {
      "midi": 74,
      "hit": false,
      "t": 39129.392199999995,
      "d": 76.47054999999818,
      "v": 73
    },
    {
      "midi": 74,
      "hit": false,
      "t": 39129.392199999995,
      "d": 76.47054999999818,
      "v": 73
    },
    {
      "midi": 70,
      "hit": false,
      "t": 39135.274549999966,
      "d": 194.1175499999954,
      "v": 87
    },
    {
      "midi": 67,
      "hit": false,
      "t": 39141.156899999994,
      "d": 70.58819999999832,
      "v": 73
    },
    {
      "midi": 67,
      "hit": false,
      "t": 39141.156899999994,
      "d": 70.58819999999832,
      "v": 73
    },
    {
      "midi": 43,
      "hit": false,
      "t": 39152.921599999965,
      "d": 52.94114999999874,
      "v": 84
    },
    {
      "midi": 55,
      "hit": false,
      "t": 39152.92160000001,
      "d": 52.94114999999874,
      "v": 84
    },
    {
      "midi": 40,
      "hit": false,
      "t": 39176.45100000001,
      "d": 111.76464999999735,
      "v": 97
    },
    {
      "midi": 40,
      "hit": false,
      "t": 39176.45100000001,
      "d": 111.76464999999735,
      "v": 97
    },
    {
      "midi": 69,
      "hit": false,
      "t": 39305.86269999996,
      "d": 176.4704999999958,
      "v": 117
    },
    {
      "midi": 46,
      "hit": false,
      "t": 39399.98029999996,
      "d": 729.4113999999972,
      "v": 70
    },
    {
      "midi": 46,
      "hit": false,
      "t": 39399.98029999996,
      "d": 729.4113999999972,
      "v": 70
    },
    {
      "midi": 58,
      "hit": false,
      "t": 39429.39204999996,
      "d": 782.352549999996,
      "v": 95
    },
    {
      "midi": 58,
      "hit": false,
      "t": 39429.39204999996,
      "d": 782.352549999996,
      "v": 95
    },
    {
      "midi": 74,
      "hit": false,
      "t": 39441.15674999999,
      "d": 411.7644999999975,
      "v": 91
    },
    {
      "midi": 70,
      "hit": false,
      "t": 39458.80379999996,
      "d": 388.23509999999806,
      "v": 114
    },
    {
      "midi": 74,
      "hit": false,
      "t": 39499.98024999999,
      "d": 711.7643499999976,
      "v": 100
    },
    {
      "midi": 67,
      "hit": false,
      "t": 39499.98024999999,
      "d": 717.6466999999975,
      "v": 102
    },
    {
      "midi": 74,
      "hit": false,
      "t": 39499.98024999999,
      "d": 711.7643499999976,
      "v": 100
    },
    {
      "midi": 67,
      "hit": false,
      "t": 39499.98024999999,
      "d": 717.6466999999975,
      "v": 102
    },
    {
      "midi": 43,
      "hit": false,
      "t": 39505.862599999964,
      "d": 99.99994999999763,
      "v": 125
    },
    {
      "midi": 55,
      "hit": false,
      "t": 39505.86260000001,
      "d": 99.99994999999763,
      "v": 125
    },
    {
      "midi": 45,
      "hit": false,
      "t": 39529.39199999996,
      "d": 352.9409999999989,
      "v": 64
    },
    {
      "midi": 57,
      "hit": false,
      "t": 39529.39199999997,
      "d": 352.9409999999989,
      "v": 64
    },
    {
      "midi": 57,
      "hit": false,
      "t": 39529.39199999997,
      "d": 352.9409999999989,
      "v": 64
    },
    {
      "midi": 57,
      "hit": false,
      "t": 39529.39199999997,
      "d": 352.9409999999989,
      "v": 64
    },
    {
      "midi": 40,
      "hit": false,
      "t": 39529.39200000001,
      "d": 111.76464999999735,
      "v": 127
    },
    {
      "midi": 40,
      "hit": false,
      "t": 39529.39200000001,
      "d": 111.76464999999735,
      "v": 127
    },
    {
      "midi": 69,
      "hit": false,
      "t": 39823.50949999996,
      "d": 376.47039999999834,
      "v": 110
    },
    {
      "midi": 77,
      "hit": false,
      "t": 39829.391849999985,
      "d": 382.3527499999982,
      "v": 77
    },
    {
      "midi": 46,
      "hit": false,
      "t": 39882.33299999996,
      "d": 352.9409999999989,
      "v": 84
    },
    {
      "midi": 58,
      "hit": false,
      "t": 39882.33299999997,
      "d": 352.9409999999989,
      "v": 84
    },
    {
      "midi": 58,
      "hit": false,
      "t": 39882.33299999997,
      "d": 352.9409999999989,
      "v": 84
    },
    {
      "midi": 58,
      "hit": false,
      "t": 39882.33299999997,
      "d": 352.9409999999989,
      "v": 84
    },
    {
      "midi": 45,
      "hit": false,
      "t": 40129.39169999996,
      "d": 752.9407999999967,
      "v": 66
    },
    {
      "midi": 45,
      "hit": false,
      "t": 40129.39169999996,
      "d": 752.9407999999967,
      "v": 66
    },
    {
      "midi": 54,
      "hit": false,
      "t": 40176.450500000006,
      "d": 276.4704500000007,
      "v": 127
    },
    {
      "midi": 67,
      "hit": false,
      "t": 40194.097549999955,
      "d": 476.47034999999596,
      "v": 108
    },
    {
      "midi": 72,
      "hit": false,
      "t": 40194.097549999984,
      "d": 399.9997999999978,
      "v": 87
    },
    {
      "midi": 55,
      "hit": false,
      "t": 40205.862249999955,
      "d": 135.2940499999968,
      "v": 81
    },
    {
      "midi": 57,
      "hit": false,
      "t": 40205.862249999955,
      "d": 705.8819999999978,
      "v": 76
    },
    {
      "midi": 55,
      "hit": false,
      "t": 40205.862249999955,
      "d": 135.2940499999968,
      "v": 81
    },
    {
      "midi": 57,
      "hit": false,
      "t": 40205.862249999955,
      "d": 705.8819999999978,
      "v": 76
    },
    {
      "midi": 45,
      "hit": false,
      "t": 40235.27399999996,
      "d": 176.47050000000309,
      "v": 72
    },
    {
      "midi": 57,
      "hit": false,
      "t": 40235.27399999997,
      "d": 176.47050000000309,
      "v": 72
    },
    {
      "midi": 57,
      "hit": false,
      "t": 40235.27399999997,
      "d": 176.47050000000309,
      "v": 72
    },
    {
      "midi": 57,
      "hit": false,
      "t": 40235.27399999997,
      "d": 176.47050000000309,
      "v": 72
    },
    {
      "midi": 40,
      "hit": false,
      "t": 40235.274000000005,
      "d": 111.76464999999735,
      "v": 117
    },
    {
      "midi": 40,
      "hit": false,
      "t": 40235.274000000005,
      "d": 111.76464999999735,
      "v": 117
    },
    {
      "midi": 43,
      "hit": false,
      "t": 40411.744499999964,
      "d": 176.47050000000309,
      "v": 75
    },
    {
      "midi": 55,
      "hit": false,
      "t": 40411.74449999997,
      "d": 176.47050000000309,
      "v": 75
    },
    {
      "midi": 55,
      "hit": false,
      "t": 40411.74449999997,
      "d": 176.47050000000309,
      "v": 75
    },
    {
      "midi": 55,
      "hit": false,
      "t": 40411.74449999997,
      "d": 176.47050000000309,
      "v": 75
    },
    {
      "midi": 74,
      "hit": false,
      "t": 40523.50914999999,
      "d": 70.58819999999832,
      "v": 75
    },
    {
      "midi": 74,
      "hit": false,
      "t": 40523.50914999999,
      "d": 70.58819999999832,
      "v": 75
    },
    {
      "midi": 67,
      "hit": false,
      "t": 40529.39149999999,
      "d": 76.47054999999818,
      "v": 73
    },
    {
      "midi": 67,
      "hit": false,
      "t": 40529.39149999999,
      "d": 76.47054999999818,
      "v": 73
    },
    {
      "midi": 65,
      "hit": false,
      "t": 40564.68559999995,
      "d": 335.2939499999993,
      "v": 108
    },
    {
      "midi": 74,
      "hit": false,
      "t": 40564.68559999998,
      "d": 364.7056999999986,
      "v": 108
    },
    {
      "midi": 41,
      "hit": false,
      "t": 40588.21499999997,
      "d": 176.47050000000309,
      "v": 68
    },
    {
      "midi": 53,
      "hit": false,
      "t": 40588.214999999975,
      "d": 176.47050000000309,
      "v": 68
    },
    {
      "midi": 53,
      "hit": false,
      "t": 40588.214999999975,
      "d": 176.47050000000309,
      "v": 68
    },
    {
      "midi": 53,
      "hit": false,
      "t": 40588.214999999975,
      "d": 176.47050000000309,
      "v": 68
    },
    {
      "midi": 40,
      "hit": false,
      "t": 40588.215000000004,
      "d": 111.76464999999735,
      "v": 102
    },
    {
      "midi": 40,
      "hit": false,
      "t": 40588.215000000004,
      "d": 111.76464999999735,
      "v": 102
    },
    {
      "midi": 40,
      "hit": false,
      "t": 40705.862,
      "d": 111.76464999999735,
      "v": 73
    },
    {
      "midi": 40,
      "hit": false,
      "t": 40705.862,
      "d": 111.76464999999735,
      "v": 73
    },
    {
      "midi": 40,
      "hit": false,
      "t": 40764.68549999997,
      "d": 176.47050000000309,
      "v": 75
    },
    {
      "midi": 52,
      "hit": false,
      "t": 40764.68549999998,
      "d": 176.47050000000309,
      "v": 75
    },
    {
      "midi": 52,
      "hit": false,
      "t": 40764.68549999998,
      "d": 176.47050000000309,
      "v": 75
    },
    {
      "midi": 52,
      "hit": false,
      "t": 40764.68549999998,
      "d": 176.47050000000309,
      "v": 75
    },
    {
      "midi": 40,
      "hit": false,
      "t": 40823.509,
      "d": 111.76464999999735,
      "v": 110
    },
    {
      "midi": 40,
      "hit": false,
      "t": 40823.509,
      "d": 111.76464999999735,
      "v": 110
    },
    {
      "midi": 43,
      "hit": false,
      "t": 40870.56779999995,
      "d": 1111.7641499999954,
      "v": 80
    },
    {
      "midi": 43,
      "hit": false,
      "t": 40870.56779999995,
      "d": 1111.7641499999954,
      "v": 80
    },
    {
      "midi": 55,
      "hit": false,
      "t": 40882.33249999995,
      "d": 1135.2935499999949,
      "v": 83
    },
    {
      "midi": 55,
      "hit": false,
      "t": 40882.33249999995,
      "d": 1135.2935499999949,
      "v": 83
    },
    {
      "midi": 67,
      "hit": false,
      "t": 40888.21484999995,
      "d": 1435.2934000000023,
      "v": 92
    },
    {
      "midi": 74,
      "hit": false,
      "t": 40917.62659999999,
      "d": 811.7643000000025,
      "v": 84
    },
    {
      "midi": 74,
      "hit": false,
      "t": 40917.62659999999,
      "d": 811.7643000000025,
      "v": 84
    },
    {
      "midi": 70,
      "hit": false,
      "t": 40929.39129999998,
      "d": 1399.9993000000031,
      "v": 99
    },
    {
      "midi": 67,
      "hit": false,
      "t": 40929.39129999999,
      "d": 788.2349000000031,
      "v": 78
    },
    {
      "midi": 67,
      "hit": false,
      "t": 40929.39129999999,
      "d": 788.2349000000031,
      "v": 78
    },
    {
      "midi": 38,
      "hit": false,
      "t": 40941.15599999997,
      "d": 705.8819999999978,
      "v": 88
    },
    {
      "midi": 50,
      "hit": false,
      "t": 40941.15599999998,
      "d": 705.8819999999978,
      "v": 88
    },
    {
      "midi": 50,
      "hit": false,
      "t": 40941.15599999998,
      "d": 705.8819999999978,
      "v": 88
    },
    {
      "midi": 50,
      "hit": false,
      "t": 40941.15599999998,
      "d": 705.8819999999978,
      "v": 88
    },
    {
      "midi": 40,
      "hit": false,
      "t": 40941.155999999995,
      "d": 111.76464999999735,
      "v": 127
    },
    {
      "midi": 40,
      "hit": false,
      "t": 40941.155999999995,
      "d": 111.76464999999735,
      "v": 127
    },
    {
      "midi": 43,
      "hit": false,
      "t": 40952.92069999997,
      "d": 76.47054999999818,
      "v": 117
    },
    {
      "midi": 55,
      "hit": false,
      "t": 40952.9207,
      "d": 76.47054999999818,
      "v": 117
    },
    {
      "midi": 54,
      "hit": false,
      "t": 41635.27330000001,
      "d": 129.41169999999693,
      "v": 127
    },
    {
      "midi": 40,
      "hit": false,
      "t": 41647.03799999999,
      "d": 111.76464999999735,
      "v": 92
    },
    {
      "midi": 40,
      "hit": false,
      "t": 41647.03799999999,
      "d": 111.76464999999735,
      "v": 92
    },
    {
      "midi": 40,
      "hit": false,
      "t": 41764.68499999999,
      "d": 111.76464999999735,
      "v": 84
    },
    {
      "midi": 40,
      "hit": false,
      "t": 41764.68499999999,
      "d": 111.76464999999735,
      "v": 84
    },
    {
      "midi": 40,
      "hit": false,
      "t": 41882.33199999999,
      "d": 111.76464999999735,
      "v": 102
    },
    {
      "midi": 40,
      "hit": false,
      "t": 41882.33199999999,
      "d": 111.76464999999735,
      "v": 102
    },
    {
      "midi": 40,
      "hit": false,
      "t": 41999.978999999985,
      "d": 111.76464999999735,
      "v": 88
    },
    {
      "midi": 40,
      "hit": false,
      "t": 41999.978999999985,
      "d": 111.76464999999735,
      "v": 88
    },
    {
      "midi": 40,
      "hit": false,
      "t": 42117.62599999998,
      "d": 111.76464999999735,
      "v": 108
    },
    {
      "midi": 40,
      "hit": false,
      "t": 42117.62599999998,
      "d": 111.76464999999735,
      "v": 108
    },
    {
      "midi": 40,
      "hit": false,
      "t": 42235.27299999998,
      "d": 111.76464999999735,
      "v": 106
    },
    {
      "midi": 40,
      "hit": false,
      "t": 42235.27299999998,
      "d": 111.76464999999735,
      "v": 106
    },
    {
      "midi": 67,
      "hit": false,
      "t": 42347.037649999955,
      "d": 23.52939999999944,
      "v": 98
    },
    {
      "midi": 45,
      "hit": false,
      "t": 42352.91999999995,
      "d": 1341.1757999999973,
      "v": 127
    },
    {
      "midi": 45,
      "hit": false,
      "t": 42352.91999999995,
      "d": 1341.1757999999973,
      "v": 127
    },
    {
      "midi": 50,
      "hit": false,
      "t": 42352.91999999998,
      "d": 352.9409999999989,
      "v": 80
    },
    {
      "midi": 50,
      "hit": false,
      "t": 42352.91999999998,
      "d": 352.9409999999989,
      "v": 80
    },
    {
      "midi": 40,
      "hit": false,
      "t": 42352.91999999998,
      "d": 111.76464999999735,
      "v": 127
    },
    {
      "midi": 50,
      "hit": false,
      "t": 42352.91999999998,
      "d": 352.9409999999989,
      "v": 80
    },
    {
      "midi": 77,
      "hit": false,
      "t": 42352.919999999984,
      "d": 352.9409999999989,
      "v": 97
    },
    {
      "midi": 65,
      "hit": false,
      "t": 42352.92,
      "d": 352.9409999999989,
      "v": 97
    },
    {
      "midi": 62,
      "hit": false,
      "t": 42388.214099999954,
      "d": 341.1762999999992,
      "v": 84
    },
    {
      "midi": 62,
      "hit": false,
      "t": 42388.21409999998,
      "d": 341.1762999999992,
      "v": 84
    },
    {
      "midi": 62,
      "hit": false,
      "t": 42388.21409999998,
      "d": 341.1762999999992,
      "v": 84
    },
    {
      "midi": 50,
      "hit": false,
      "t": 42388.2141,
      "d": 341.1762999999992,
      "v": 84
    },
    {
      "midi": 57,
      "hit": false,
      "t": 42705.860999999975,
      "d": 352.9409999999989,
      "v": 78
    },
    {
      "midi": 57,
      "hit": false,
      "t": 42705.860999999975,
      "d": 352.9409999999989,
      "v": 78
    },
    {
      "midi": 40,
      "hit": false,
      "t": 42705.860999999975,
      "d": 111.76464999999735,
      "v": 122
    },
    {
      "midi": 57,
      "hit": false,
      "t": 42705.860999999975,
      "d": 352.9409999999989,
      "v": 78
    },
    {
      "midi": 86,
      "hit": false,
      "t": 42705.86099999998,
      "d": 352.9409999999989,
      "v": 87
    },
    {
      "midi": 74,
      "hit": false,
      "t": 42705.861,
      "d": 352.9409999999989,
      "v": 87
    },
    {
      "midi": 69,
      "hit": false,
      "t": 42735.27274999995,
      "d": 323.5292499999996,
      "v": 80
    },
    {
      "midi": 69,
      "hit": false,
      "t": 42735.27274999998,
      "d": 323.5292499999996,
      "v": 80
    },
    {
      "midi": 69,
      "hit": false,
      "t": 42735.27274999998,
      "d": 323.5292499999996,
      "v": 80
    },
    {
      "midi": 57,
      "hit": false,
      "t": 42735.27275,
      "d": 323.5292499999996,
      "v": 80
    },
    {
      "midi": 74,
      "hit": false,
      "t": 43047.03729999995,
      "d": 352.9409999999989,
      "v": 83
    },
    {
      "midi": 74,
      "hit": false,
      "t": 43047.03729999998,
      "d": 352.94100000000617,
      "v": 83
    },
    {
      "midi": 74,
      "hit": false,
      "t": 43047.03729999998,
      "d": 352.9409999999989,
      "v": 83
    },
    {
      "midi": 62,
      "hit": false,
      "t": 43047.037299999996,
      "d": 352.9409999999989,
      "v": 83
    },
    {
      "midi": 62,
      "hit": false,
      "t": 43058.801999999974,
      "d": 352.9409999999989,
      "v": 75
    },
    {
      "midi": 62,
      "hit": false,
      "t": 43058.801999999974,
      "d": 352.9409999999989,
      "v": 75
    },
    {
      "midi": 62,
      "hit": false,
      "t": 43058.801999999974,
      "d": 352.9409999999989,
      "v": 75
    },
    {
      "midi": 89,
      "hit": false,
      "t": 43058.80199999998,
      "d": 176.47050000000309,
      "v": 78
    },
    {
      "midi": 77,
      "hit": false,
      "t": 43058.801999999996,
      "d": 176.47050000000309,
      "v": 78
    },
    {
      "midi": 54,
      "hit": false,
      "t": 43058.802,
      "d": 82.35289999999804,
      "v": 127
    },
    {
      "midi": 88,
      "hit": false,
      "t": 43235.272499999985,
      "d": 176.47050000000309,
      "v": 68
    },
    {
      "midi": 76,
      "hit": false,
      "t": 43235.2725,
      "d": 176.47050000000309,
      "v": 68
    },
    {
      "midi": 69,
      "hit": false,
      "t": 43399.97829999995,
      "d": 335.2939499999993,
      "v": 79
    },
    {
      "midi": 69,
      "hit": false,
      "t": 43399.97829999998,
      "d": 335.2939499999993,
      "v": 79
    },
    {
      "midi": 69,
      "hit": false,
      "t": 43399.97829999999,
      "d": 335.2939499999993,
      "v": 79
    },
    {
      "midi": 57,
      "hit": false,
      "t": 43399.978299999995,
      "d": 335.2939499999993,
      "v": 79
    },
    {
      "midi": 57,
      "hit": false,
      "t": 43411.74299999997,
      "d": 352.9409999999989,
      "v": 73
    },
    {
      "midi": 57,
      "hit": false,
      "t": 43411.74299999997,
      "d": 352.9409999999989,
      "v": 73
    },
    {
      "midi": 40,
      "hit": false,
      "t": 43411.74299999997,
      "d": 111.76464999999735,
      "v": 94
    },
    {
      "midi": 57,
      "hit": false,
      "t": 43411.74299999997,
      "d": 352.9409999999989,
      "v": 73
    },
    {
      "midi": 86,
      "hit": false,
      "t": 43411.74299999999,
      "d": 176.47050000000309,
      "v": 81
    },
    {
      "midi": 74,
      "hit": false,
      "t": 43411.743,
      "d": 176.47050000000309,
      "v": 81
    },
    {
      "midi": 40,
      "hit": false,
      "t": 43529.38999999997,
      "d": 111.76464999999735,
      "v": 86
    },
    {
      "midi": 40,
      "hit": false,
      "t": 43647.03699999997,
      "d": 111.76464999999735,
      "v": 80
    },
    {
      "midi": 44,
      "hit": false,
      "t": 43699.978149999944,
      "d": 1382.3522500000036,
      "v": 119
    },
    {
      "midi": 44,
      "hit": false,
      "t": 43699.978149999944,
      "d": 1382.3522500000036,
      "v": 119
    },
    {
      "midi": 68,
      "hit": false,
      "t": 43729.38989999995,
      "d": 1382.3522499999963,
      "v": 85
    },
    {
      "midi": 68,
      "hit": false,
      "t": 43729.38989999998,
      "d": 1382.3522499999963,
      "v": 85
    },
    {
      "midi": 68,
      "hit": false,
      "t": 43729.38989999999,
      "d": 1382.3522499999963,
      "v": 85
    },
    {
      "midi": 56,
      "hit": false,
      "t": 43729.389899999995,
      "d": 1382.3522499999963,
      "v": 85
    },
    {
      "midi": 40,
      "hit": false,
      "t": 43764.683999999965,
      "d": 111.76464999999735,
      "v": 120
    },
    {
      "midi": 58,
      "hit": false,
      "t": 43764.68399999997,
      "d": 1411.7640000000029,
      "v": 104
    },
    {
      "midi": 58,
      "hit": false,
      "t": 43764.68399999997,
      "d": 1411.7640000000029,
      "v": 104
    },
    {
      "midi": 58,
      "hit": false,
      "t": 43764.68399999997,
      "d": 1411.7640000000029,
      "v": 104
    },
    {
      "midi": 86,
      "hit": false,
      "t": 43764.68399999999,
      "d": 1411.7639999999956,
      "v": 70
    },
    {
      "midi": 74,
      "hit": false,
      "t": 43764.68400000001,
      "d": 1411.7640000000029,
      "v": 70
    },
    {
      "midi": 54,
      "hit": false,
      "t": 44529.389500000005,
      "d": 76.47054999999818,
      "v": 127
    },
    {
      "midi": 40,
      "hit": false,
      "t": 44823.50699999996,
      "d": 111.76464999999735,
      "v": 94
    },
    {
      "midi": 40,
      "hit": false,
      "t": 44941.15399999996,
      "d": 111.76464999999735,
      "v": 70
    },
    {
      "midi": 40,
      "hit": false,
      "t": 45058.800999999956,
      "d": 111.76464999999735,
      "v": 98
    },
    {
      "midi": 45,
      "hit": false,
      "t": 45088.21274999995,
      "d": 2711.763350000001,
      "v": 100
    },
    {
      "midi": 45,
      "hit": false,
      "t": 45088.21274999995,
      "d": 2711.763350000001,
      "v": 100
    },
    {
      "midi": 62,
      "hit": false,
      "t": 45105.85979999995,
      "d": 158.82344999999623,
      "v": 87
    },
    {
      "midi": 62,
      "hit": false,
      "t": 45105.85979999998,
      "d": 158.82344999999623,
      "v": 87
    },
    {
      "midi": 62,
      "hit": false,
      "t": 45105.859799999984,
      "d": 158.82344999999623,
      "v": 87
    },
    {
      "midi": 50,
      "hit": false,
      "t": 45105.85979999999,
      "d": 158.82344999999623,
      "v": 87
    },
    {
      "midi": 40,
      "hit": false,
      "t": 45176.44799999995,
      "d": 111.76464999999735,
      "v": 127
    },
    {
      "midi": 50,
      "hit": false,
      "t": 45176.447999999975,
      "d": 352.9409999999989,
      "v": 94
    },
    {
      "midi": 50,
      "hit": false,
      "t": 45176.447999999975,
      "d": 352.9409999999989,
      "v": 94
    },
    {
      "midi": 50,
      "hit": false,
      "t": 45176.447999999975,
      "d": 352.9409999999989,
      "v": 94
    },
    {
      "midi": 77,
      "hit": false,
      "t": 45176.44799999998,
      "d": 176.4704999999958,
      "v": 81
    },
    {
      "midi": 65,
      "hit": false,
      "t": 45176.44800000001,
      "d": 176.47050000000309,
      "v": 81
    },
    {
      "midi": 65,
      "hit": false,
      "t": 45282.33029999994,
      "d": 223.52930000000197,
      "v": 44
    },
    {
      "midi": 65,
      "hit": false,
      "t": 45282.33029999997,
      "d": 223.52930000000197,
      "v": 44
    },
    {
      "midi": 65,
      "hit": false,
      "t": 45282.33029999998,
      "d": 223.5292999999947,
      "v": 44
    },
    {
      "midi": 53,
      "hit": false,
      "t": 45282.33029999999,
      "d": 223.52930000000197,
      "v": 44
    },
    {
      "midi": 81,
      "hit": false,
      "t": 45352.91849999998,
      "d": 176.4704999999958,
      "v": 67
    },
    {
      "midi": 69,
      "hit": false,
      "t": 45352.918500000014,
      "d": 176.47050000000309,
      "v": 67
    },
    {
      "midi": 69,
      "hit": false,
      "t": 45464.683149999946,
      "d": 394.1174499999979,
      "v": 79
    },
    {
      "midi": 69,
      "hit": false,
      "t": 45464.683149999975,
      "d": 394.1174499999979,
      "v": 79
    },
    {
      "midi": 69,
      "hit": false,
      "t": 45464.683149999975,
      "d": 394.1174499999979,
      "v": 79
    },
    {
      "midi": 57,
      "hit": false,
      "t": 45464.68314999999,
      "d": 394.1174499999979,
      "v": 79
    },
    {
      "midi": 40,
      "hit": false,
      "t": 45529.38899999995,
      "d": 111.76464999999735,
      "v": 92
    },
    {
      "midi": 86,
      "hit": false,
      "t": 45529.388999999974,
      "d": 176.47050000000309,
      "v": 81
    },
    {
      "midi": 57,
      "hit": false,
      "t": 45529.388999999974,
      "d": 352.9409999999989,
      "v": 71
    },
    {
      "midi": 57,
      "hit": false,
      "t": 45529.388999999974,
      "d": 352.9409999999989,
      "v": 71
    },
    {
      "midi": 57,
      "hit": false,
      "t": 45529.388999999974,
      "d": 352.9409999999989,
      "v": 71
    },
    {
      "midi": 74,
      "hit": false,
      "t": 45529.38900000002,
      "d": 176.47050000000309,
      "v": 81
    },
    {
      "midi": 88,
      "hit": false,
      "t": 45705.85949999998,
      "d": 176.4704999999958,
      "v": 68
    },
    {
      "midi": 76,
      "hit": false,
      "t": 45705.85950000002,
      "d": 176.47050000000309,
      "v": 68
    },
    {
      "midi": 74,
      "hit": false,
      "t": 45829.388849999945,
      "d": 347.05864999999903,
      "v": 90
    },
    {
      "midi": 74,
      "hit": false,
      "t": 45829.388849999974,
      "d": 347.05864999999903,
      "v": 90
    },
    {
      "midi": 74,
      "hit": false,
      "t": 45829.388849999974,
      "d": 347.05864999999903,
      "v": 90
    },
    {
      "midi": 62,
      "hit": false,
      "t": 45829.38884999999,
      "d": 347.05864999999903,
      "v": 90
    },
    {
      "midi": 54,
      "hit": false,
      "t": 45852.91825,
      "d": 76.47054999999818,
      "v": 127
    },
    {
      "midi": 89,
      "hit": false,
      "t": 45882.32999999997,
      "d": 176.47050000000309,
      "v": 90
    },
    {
      "midi": 62,
      "hit": false,
      "t": 45882.32999999997,
      "d": 352.9409999999989,
      "v": 81
    },
    {
      "midi": 62,
      "hit": false,
      "t": 45882.32999999997,
      "d": 352.9409999999989,
      "v": 81
    },
    {
      "midi": 62,
      "hit": false,
      "t": 45882.32999999997,
      "d": 352.9409999999989,
      "v": 81
    },
    {
      "midi": 77,
      "hit": false,
      "t": 45882.33000000002,
      "d": 176.47050000000309,
      "v": 90
    },
    {
      "midi": 88,
      "hit": false,
      "t": 46058.800499999976,
      "d": 176.4704999999958,
      "v": 91
    },
    {
      "midi": 76,
      "hit": false,
      "t": 46058.80050000003,
      "d": 176.47050000000309,
      "v": 91
    },
    {
      "midi": 69,
      "hit": false,
      "t": 46176.447499999944,
      "d": 376.47039999999834,
      "v": 70
    },
    {
      "midi": 69,
      "hit": false,
      "t": 46176.44749999997,
      "d": 376.47039999999834,
      "v": 70
    },
    {
      "midi": 69,
      "hit": false,
      "t": 46176.44749999997,
      "d": 376.47039999999834,
      "v": 70
    },
    {
      "midi": 57,
      "hit": false,
      "t": 46176.44749999999,
      "d": 376.47039999999834,
      "v": 70
    },
    {
      "midi": 40,
      "hit": false,
      "t": 46235.27099999995,
      "d": 111.76464999999735,
      "v": 83
    },
    {
      "midi": 86,
      "hit": false,
      "t": 46235.27099999997,
      "d": 352.9409999999989,
      "v": 85
    },
    {
      "midi": 65,
      "hit": false,
      "t": 46235.27099999997,
      "d": 382.3527499999982,
      "v": 100
    },
    {
      "midi": 65,
      "hit": false,
      "t": 46235.27099999997,
      "d": 382.3527499999982,
      "v": 100
    },
    {
      "midi": 65,
      "hit": false,
      "t": 46235.27099999997,
      "d": 382.3527499999982,
      "v": 100
    },
    {
      "midi": 74,
      "hit": false,
      "t": 46235.27100000003,
      "d": 352.9409999999989,
      "v": 85
    },
    {
      "midi": 73,
      "hit": false,
      "t": 46564.68259999994,
      "d": 1376.4698999999964,
      "v": 84
    },
    {
      "midi": 73,
      "hit": false,
      "t": 46564.68259999997,
      "d": 1376.4698999999964,
      "v": 84
    },
    {
      "midi": 73,
      "hit": false,
      "t": 46564.68259999997,
      "d": 1376.4698999999964,
      "v": 84
    },
    {
      "midi": 61,
      "hit": false,
      "t": 46564.682599999986,
      "d": 1376.4698999999964,
      "v": 84
    },
    {
      "midi": 46,
      "hit": false,
      "t": 46576.44729999995,
      "d": 52.94114999999874,
      "v": 72
    },
    {
      "midi": 46,
      "hit": false,
      "t": 46576.44729999995,
      "d": 52.94114999999874,
      "v": 72
    },
    {
      "midi": 40,
      "hit": false,
      "t": 46588.21199999995,
      "d": 111.76464999999735,
      "v": 120
    },
    {
      "midi": 88,
      "hit": false,
      "t": 46588.21199999997,
      "d": 1411.7639999999956,
      "v": 91
    },
    {
      "midi": 69,
      "hit": false,
      "t": 46588.21199999997,
      "d": 1411.7639999999956,
      "v": 94
    },
    {
      "midi": 69,
      "hit": false,
      "t": 46588.21199999997,
      "d": 1411.7639999999956,
      "v": 94
    },
    {
      "midi": 69,
      "hit": false,
      "t": 46588.21199999997,
      "d": 1411.7639999999956,
      "v": 94
    },
    {
      "midi": 76,
      "hit": false,
      "t": 46588.21200000003,
      "d": 1411.7640000000029,
      "v": 91
    },
    {
      "midi": 56,
      "hit": false,
      "t": 47258.7999,
      "d": 82.35289999999804,
      "v": 127
    },
    {
      "midi": 40,
      "hit": false,
      "t": 47294.09399999995,
      "d": 111.76464999999735,
      "v": 98
    },
    {
      "midi": 40,
      "hit": false,
      "t": 47411.74099999994,
      "d": 111.76464999999735,
      "v": 80
    },
    {
      "midi": 40,
      "hit": false,
      "t": 47529.38799999994,
      "d": 111.76464999999735,
      "v": 91
    },
    {
      "midi": 40,
      "hit": false,
      "t": 47647.03499999994,
      "d": 111.76464999999735,
      "v": 92
    },
    {
      "midi": 40,
      "hit": false,
      "t": 47764.681999999935,
      "d": 111.76464999999735,
      "v": 102
    },
    {
      "midi": 40,
      "hit": false,
      "t": 47882.32899999993,
      "d": 111.76464999999735,
      "v": 98
    },
    {
      "midi": 45,
      "hit": false,
      "t": 47935.270149999946,
      "d": 1482.3522000000012,
      "v": 112
    },
    {
      "midi": 45,
      "hit": false,
      "t": 47935.270149999946,
      "d": 1482.3522000000012,
      "v": 112
    },
    {
      "midi": 62,
      "hit": false,
      "t": 47947.03484999994,
      "d": 358.82334999999875,
      "v": 77
    },
    {
      "midi": 62,
      "hit": false,
      "t": 47947.03484999997,
      "d": 358.82334999999875,
      "v": 77
    },
    {
      "midi": 62,
      "hit": false,
      "t": 47947.03484999997,
      "d": 358.82334999999875,
      "v": 77
    },
    {
      "midi": 50,
      "hit": false,
      "t": 47947.03484999998,
      "d": 358.82334999999875,
      "v": 77
    },
    {
      "midi": 40,
      "hit": false,
      "t": 47999.97599999993,
      "d": 111.76464999999735,
      "v": 122
    },
    {
      "midi": 77,
      "hit": false,
      "t": 47999.975999999966,
      "d": 352.9409999999989,
      "v": 80
    },
    {
      "midi": 50,
      "hit": false,
      "t": 47999.975999999966,
      "d": 352.9409999999989,
      "v": 88
    },
    {
      "midi": 50,
      "hit": false,
      "t": 47999.975999999966,
      "d": 352.9409999999989,
      "v": 88
    },
    {
      "midi": 50,
      "hit": false,
      "t": 47999.975999999966,
      "d": 352.9409999999989,
      "v": 88
    },
    {
      "midi": 65,
      "hit": false,
      "t": 47999.97600000003,
      "d": 352.9409999999989,
      "v": 80
    },
    {
      "midi": 69,
      "hit": false,
      "t": 48305.85819999994,
      "d": 341.1762999999992,
      "v": 70
    },
    {
      "midi": 69,
      "hit": false,
      "t": 48305.858199999966,
      "d": 341.1762999999992,
      "v": 70
    },
    {
      "midi": 69,
      "hit": false,
      "t": 48305.858199999966,
      "d": 341.1762999999992,
      "v": 70
    },
    {
      "midi": 57,
      "hit": false,
      "t": 48305.85819999998,
      "d": 341.1762999999992,
      "v": 70
    },
    {
      "midi": 40,
      "hit": false,
      "t": 48352.91699999993,
      "d": 111.76464999999735,
      "v": 117
    },
    {
      "midi": 86,
      "hit": false,
      "t": 48352.916999999965,
      "d": 352.9409999999989,
      "v": 81
    },
    {
      "midi": 57,
      "hit": false,
      "t": 48352.916999999965,
      "d": 352.9409999999989,
      "v": 78
    },
    {
      "midi": 57,
      "hit": false,
      "t": 48352.916999999965,
      "d": 352.9409999999989,
      "v": 78
    },
    {
      "midi": 57,
      "hit": false,
      "t": 48352.916999999965,
      "d": 352.9409999999989,
      "v": 78
    },
    {
      "midi": 74,
      "hit": false,
      "t": 48352.91700000003,
      "d": 352.9409999999989,
      "v": 81
    },
    {
      "midi": 74,
      "hit": false,
      "t": 48635.26979999994,
      "d": 399.9997999999978,
      "v": 55
    },
    {
      "midi": 74,
      "hit": false,
      "t": 48635.269799999965,
      "d": 399.9997999999978,
      "v": 55
    },
    {
      "midi": 74,
      "hit": false,
      "t": 48635.269799999965,
      "d": 399.9997999999978,
      "v": 55
    },
    {
      "midi": 62,
      "hit": false,
      "t": 48635.26979999998,
      "d": 399.9997999999978,
      "v": 55
    },
    {
      "midi": 89,
      "hit": false,
      "t": 48705.857999999964,
      "d": 176.47050000000309,
      "v": 78
    },
    {
      "midi": 62,
      "hit": false,
      "t": 48705.857999999964,
      "d": 352.9409999999989,
      "v": 97
    },
    {
      "midi": 62,
      "hit": false,
      "t": 48705.857999999964,
      "d": 352.9409999999989,
      "v": 97
    },
    {
      "midi": 62,
      "hit": false,
      "t": 48705.857999999964,
      "d": 352.9409999999989,
      "v": 97
    },
    {
      "midi": 77,
      "hit": false,
      "t": 48705.85800000003,
      "d": 176.47050000000309,
      "v": 78
    },
    {
      "midi": 54,
      "hit": false,
      "t": 48711.74034999999,
      "d": 94.11759999999776,
      "v": 127
    },
    {
      "midi": 88,
      "hit": false,
      "t": 48882.32849999997,
      "d": 176.4704999999958,
      "v": 70
    },
    {
      "midi": 76,
      "hit": false,
      "t": 48882.32850000003,
      "d": 176.47050000000309,
      "v": 70
    },
    {
      "midi": 69,
      "hit": false,
      "t": 49011.740199999935,
      "d": 382.3527499999982,
      "v": 58
    },
    {
      "midi": 69,
      "hit": false,
      "t": 49011.740199999964,
      "d": 382.3527499999982,
      "v": 58
    },
    {
      "midi": 69,
      "hit": false,
      "t": 49011.740199999964,
      "d": 382.3527499999982,
      "v": 58
    },
    {
      "midi": 57,
      "hit": false,
      "t": 49011.74019999998,
      "d": 382.3527499999982,
      "v": 58
    },
    {
      "midi": 40,
      "hit": false,
      "t": 49058.798999999926,
      "d": 111.76464999999735,
      "v": 80
    },
    {
      "midi": 86,
      "hit": false,
      "t": 49058.79899999996,
      "d": 176.47050000000309,
      "v": 86
    },
    {
      "midi": 57,
      "hit": false,
      "t": 49058.79899999996,
      "d": 352.9409999999989,
      "v": 81
    },
    {
      "midi": 57,
      "hit": false,
      "t": 49058.79899999996,
      "d": 352.9409999999989,
      "v": 81
    },
    {
      "midi": 57,
      "hit": false,
      "t": 49058.79899999996,
      "d": 352.9409999999989,
      "v": 81
    },
    {
      "midi": 74,
      "hit": false,
      "t": 49058.799000000035,
      "d": 176.47050000000309,
      "v": 86
    },
    {
      "midi": 50,
      "hit": false,
      "t": 49352.91649999995,
      "d": 1411.7639999999956,
      "v": 112
    },
    {
      "midi": 50,
      "hit": false,
      "t": 49352.91649999995,
      "d": 1411.7639999999956,
      "v": 112
    },
    {
      "midi": 70,
      "hit": false,
      "t": 49388.21059999993,
      "d": 1352.940499999997,
      "v": 83
    },
    {
      "midi": 70,
      "hit": false,
      "t": 49388.21059999996,
      "d": 1352.940499999997,
      "v": 83
    },
    {
      "midi": 70,
      "hit": false,
      "t": 49388.21059999996,
      "d": 1352.940499999997,
      "v": 83
    },
    {
      "midi": 58,
      "hit": false,
      "t": 49388.21059999998,
      "d": 1352.940499999997,
      "v": 83
    },
    {
      "midi": 40,
      "hit": false,
      "t": 49411.739999999925,
      "d": 111.76464999999735,
      "v": 117
    },
    {
      "midi": 86,
      "hit": false,
      "t": 49411.73999999996,
      "d": 1411.7639999999956,
      "v": 87
    },
    {
      "midi": 58,
      "hit": false,
      "t": 49411.73999999996,
      "d": 1411.7640000000029,
      "v": 116
    },
    {
      "midi": 58,
      "hit": false,
      "t": 49411.73999999996,
      "d": 1411.7640000000029,
      "v": 116
    },
    {
      "midi": 58,
      "hit": false,
      "t": 49411.73999999996,
      "d": 1411.7640000000029,
      "v": 116
    },
    {
      "midi": 74,
      "hit": false,
      "t": 49411.74000000004,
      "d": 1411.7640000000029,
      "v": 87
    },
    {
      "midi": 54,
      "hit": false,
      "t": 50135.26904999999,
      "d": 82.35289999999804,
      "v": 116
    },
    {
      "midi": 52,
      "hit": false,
      "t": 50735.268749999945,
      "d": 741.176099999997,
      "v": 100
    },
    {
      "midi": 52,
      "hit": false,
      "t": 50735.268749999945,
      "d": 741.176099999997,
      "v": 100
    },
    {
      "midi": 69,
      "hit": false,
      "t": 50747.03344999993,
      "d": 194.11755000000267,
      "v": 68
    },
    {
      "midi": 69,
      "hit": false,
      "t": 50747.03344999996,
      "d": 194.1175499999954,
      "v": 68
    },
    {
      "midi": 69,
      "hit": false,
      "t": 50747.03344999996,
      "d": 194.11755000000267,
      "v": 68
    },
    {
      "midi": 57,
      "hit": false,
      "t": 50747.03344999997,
      "d": 194.11755000000267,
      "v": 68
    },
    {
      "midi": 40,
      "hit": false,
      "t": 50823.50399999992,
      "d": 111.76464999999735,
      "v": 114
    },
    {
      "midi": 89,
      "hit": false,
      "t": 50823.50399999996,
      "d": 176.4704999999958,
      "v": 84
    },
    {
      "midi": 57,
      "hit": false,
      "t": 50823.503999999964,
      "d": 352.9409999999989,
      "v": 64
    },
    {
      "midi": 57,
      "hit": false,
      "t": 50823.503999999964,
      "d": 352.9409999999989,
      "v": 64
    },
    {
      "midi": 57,
      "hit": false,
      "t": 50823.503999999964,
      "d": 352.9409999999989,
      "v": 64
    },
    {
      "midi": 77,
      "hit": false,
      "t": 50823.504000000044,
      "d": 176.47050000000309,
      "v": 84
    },
    {
      "midi": 70,
      "hit": false,
      "t": 50935.26864999993,
      "d": 164.7057999999961,
      "v": 61
    },
    {
      "midi": 70,
      "hit": false,
      "t": 50935.268649999955,
      "d": 164.7057999999961,
      "v": 61
    },
    {
      "midi": 70,
      "hit": false,
      "t": 50935.26864999996,
      "d": 164.7057999999961,
      "v": 61
    },
    {
      "midi": 58,
      "hit": false,
      "t": 50935.268649999976,
      "d": 164.7057999999961,
      "v": 61
    },
    {
      "midi": 88,
      "hit": false,
      "t": 50999.97449999995,
      "d": 176.4704999999958,
      "v": 94
    },
    {
      "midi": 76,
      "hit": false,
      "t": 50999.97450000005,
      "d": 176.47050000000309,
      "v": 94
    },
    {
      "midi": 69,
      "hit": false,
      "t": 51088.20974999993,
      "d": 199.99990000000253,
      "v": 68
    },
    {
      "midi": 69,
      "hit": false,
      "t": 51088.20974999995,
      "d": 199.99989999999525,
      "v": 68
    },
    {
      "midi": 69,
      "hit": false,
      "t": 51088.20974999996,
      "d": 199.99990000000253,
      "v": 68
    },
    {
      "midi": 57,
      "hit": false,
      "t": 51088.20974999997,
      "d": 199.99990000000253,
      "v": 68
    },
    {
      "midi": 40,
      "hit": false,
      "t": 51176.44499999992,
      "d": 111.76464999999735,
      "v": 114
    },
    {
      "midi": 89,
      "hit": false,
      "t": 51176.44499999995,
      "d": 176.4704999999958,
      "v": 102
    },
    {
      "midi": 58,
      "hit": false,
      "t": 51176.44499999996,
      "d": 352.9409999999989,
      "v": 84
    },
    {
      "midi": 58,
      "hit": false,
      "t": 51176.44499999996,
      "d": 352.9409999999989,
      "v": 84
    },
    {
      "midi": 58,
      "hit": false,
      "t": 51176.44499999996,
      "d": 352.9409999999989,
      "v": 84
    },
    {
      "midi": 77,
      "hit": false,
      "t": 51176.44500000005,
      "d": 176.47050000000309,
      "v": 102
    },
    {
      "midi": 67,
      "hit": false,
      "t": 51276.44494999993,
      "d": 194.11755000000267,
      "v": 73
    },
    {
      "midi": 67,
      "hit": false,
      "t": 51276.44494999995,
      "d": 194.1175499999954,
      "v": 73
    },
    {
      "midi": 67,
      "hit": false,
      "t": 51276.44494999996,
      "d": 194.11755000000267,
      "v": 73
    },
    {
      "midi": 55,
      "hit": false,
      "t": 51276.444949999976,
      "d": 194.11755000000267,
      "v": 73
    },
    {
      "midi": 86,
      "hit": false,
      "t": 51352.915499999945,
      "d": 176.4704999999958,
      "v": 91
    },
    {
      "midi": 74,
      "hit": false,
      "t": 51352.915500000054,
      "d": 176.47050000000309,
      "v": 91
    },
    {
      "midi": 53,
      "hit": false,
      "t": 51447.03309999994,
      "d": 658.8231999999989,
      "v": 80
    },
    {
      "midi": 53,
      "hit": false,
      "t": 51447.03309999994,
      "d": 658.8231999999989,
      "v": 80
    },
    {
      "midi": 69,
      "hit": false,
      "t": 51452.915449999935,
      "d": 217.6469500000021,
      "v": 73
    },
    {
      "midi": 69,
      "hit": false,
      "t": 51452.91544999994,
      "d": 217.64694999999483,
      "v": 73
    },
    {
      "midi": 69,
      "hit": false,
      "t": 51452.915449999964,
      "d": 217.6469500000021,
      "v": 73
    },
    {
      "midi": 57,
      "hit": false,
      "t": 51452.91544999998,
      "d": 217.6469500000021,
      "v": 73
    },
    {
      "midi": 54,
      "hit": false,
      "t": 51505.85659999997,
      "d": 82.35289999999804,
      "v": 127
    },
    {
      "midi": 88,
      "hit": false,
      "t": 51529.38599999994,
      "d": 176.4704999999958,
      "v": 91
    },
    {
      "midi": 57,
      "hit": false,
      "t": 51529.38599999996,
      "d": 176.47050000000309,
      "v": 72
    },
    {
      "midi": 57,
      "hit": false,
      "t": 51529.38599999996,
      "d": 176.47050000000309,
      "v": 72
    },
    {
      "midi": 57,
      "hit": false,
      "t": 51529.38599999996,
      "d": 176.47050000000309,
      "v": 72
    },
    {
      "midi": 76,
      "hit": false,
      "t": 51529.38600000006,
      "d": 176.47050000000309,
      "v": 91
    },
    {
      "midi": 67,
      "hit": false,
      "t": 51629.38594999994,
      "d": 188.23519999999553,
      "v": 73
    },
    {
      "midi": 67,
      "hit": false,
      "t": 51629.38594999994,
      "d": 188.23519999999553,
      "v": 73
    },
    {
      "midi": 67,
      "hit": false,
      "t": 51629.38594999997,
      "d": 188.23519999999553,
      "v": 73
    },
    {
      "midi": 55,
      "hit": false,
      "t": 51629.38594999998,
      "d": 188.23519999999553,
      "v": 73
    },
    {
      "midi": 86,
      "hit": false,
      "t": 51705.856499999936,
      "d": 176.4704999999958,
      "v": 95
    },
    {
      "midi": 55,
      "hit": false,
      "t": 51705.856499999965,
      "d": 176.47050000000309,
      "v": 75
    },
    {
      "midi": 55,
      "hit": false,
      "t": 51705.856499999965,
      "d": 176.47050000000309,
      "v": 75
    },
    {
      "midi": 55,
      "hit": false,
      "t": 51705.856499999965,
      "d": 176.47050000000309,
      "v": 75
    },
    {
      "midi": 74,
      "hit": false,
      "t": 51705.85650000006,
      "d": 176.47050000000309,
      "v": 95
    },
    {
      "midi": 65,
      "hit": false,
      "t": 51794.091749999934,
      "d": 235.2939999999944,
      "v": 64
    },
    {
      "midi": 65,
      "hit": false,
      "t": 51794.091749999934,
      "d": 235.2940000000017,
      "v": 64
    },
    {
      "midi": 65,
      "hit": false,
      "t": 51794.09174999996,
      "d": 235.2940000000017,
      "v": 64
    },
    {
      "midi": 53,
      "hit": false,
      "t": 51794.09174999998,
      "d": 235.2940000000017,
      "v": 64
    },
    {
      "midi": 88,
      "hit": false,
      "t": 51882.32699999993,
      "d": 176.4704999999958,
      "v": 80
    },
    {
      "midi": 53,
      "hit": false,
      "t": 51882.32699999997,
      "d": 176.47050000000309,
      "v": 68
    },
    {
      "midi": 53,
      "hit": false,
      "t": 51882.32699999997,
      "d": 176.47050000000309,
      "v": 68
    },
    {
      "midi": 53,
      "hit": false,
      "t": 51882.32699999997,
      "d": 176.47050000000309,
      "v": 68
    },
    {
      "midi": 76,
      "hit": false,
      "t": 51882.32700000006,
      "d": 176.47050000000309,
      "v": 80
    },
    {
      "midi": 64,
      "hit": false,
      "t": 52005.85634999993,
      "d": 170.58814999999595,
      "v": 86
    },
    {
      "midi": 64,
      "hit": false,
      "t": 52005.856349999936,
      "d": 170.58814999999595,
      "v": 86
    },
    {
      "midi": 64,
      "hit": false,
      "t": 52005.856349999965,
      "d": 170.58814999999595,
      "v": 86
    },
    {
      "midi": 52,
      "hit": false,
      "t": 52005.85634999998,
      "d": 170.58814999999595,
      "v": 86
    },
    {
      "midi": 85,
      "hit": false,
      "t": 52058.79749999993,
      "d": 176.4704999999958,
      "v": 91
    },
    {
      "midi": 52,
      "hit": false,
      "t": 52058.79749999997,
      "d": 176.47050000000309,
      "v": 75
    },
    {
      "midi": 52,
      "hit": false,
      "t": 52058.79749999997,
      "d": 176.47050000000309,
      "v": 75
    },
    {
      "midi": 52,
      "hit": false,
      "t": 52058.79749999997,
      "d": 176.47050000000309,
      "v": 75
    },
    {
      "midi": 73,
      "hit": false,
      "t": 52058.797500000066,
      "d": 176.47050000000309,
      "v": 91
    },
    {
      "midi": 50,
      "hit": false,
      "t": 52117.62099999994,
      "d": 1305.881699999998,
      "v": 102
    },
    {
      "midi": 50,
      "hit": false,
      "t": 52117.62099999994,
      "d": 1305.881699999998,
      "v": 102
    },
    {
      "midi": 62,
      "hit": false,
      "t": 52188.209199999925,
      "d": 1005.8818499999979,
      "v": 60
    },
    {
      "midi": 62,
      "hit": false,
      "t": 52188.20919999993,
      "d": 1005.8818499999979,
      "v": 60
    },
    {
      "midi": 62,
      "hit": false,
      "t": 52188.20919999996,
      "d": 1005.8818499999979,
      "v": 60
    },
    {
      "midi": 50,
      "hit": false,
      "t": 52188.209199999976,
      "d": 1005.8818499999979,
      "v": 60
    },
    {
      "midi": 40,
      "hit": false,
      "t": 52235.267999999916,
      "d": 111.76464999999735,
      "v": 120
    },
    {
      "midi": 86,
      "hit": false,
      "t": 52235.26799999992,
      "d": 882.3525000000009,
      "v": 100
    },
    {
      "midi": 50,
      "hit": false,
      "t": 52235.267999999975,
      "d": 705.8819999999978,
      "v": 88
    },
    {
      "midi": 50,
      "hit": false,
      "t": 52235.267999999975,
      "d": 705.8819999999978,
      "v": 88
    },
    {
      "midi": 50,
      "hit": false,
      "t": 52235.267999999975,
      "d": 705.8819999999978,
      "v": 88
    },
    {
      "midi": 74,
      "hit": false,
      "t": 52235.26800000007,
      "d": 882.3525000000009,
      "v": 100
    },
    {
      "midi": 54,
      "hit": false,
      "t": 52905.855899999966,
      "d": 64.70584999999846,
      "v": 127
    },
    {
      "midi": 31,
      "hit": false,
      "t": 53323.50274999997,
      "d": 58.8234999999986,
      "v": 125
    },
    {
      "midi": 43,
      "hit": false,
      "t": 53323.50275,
      "d": 58.8234999999986,
      "v": 125
    },
    {
      "midi": 40,
      "hit": false,
      "t": 53647.03199999991,
      "d": 111.76464999999735,
      "v": 127
    },
    {
      "midi": 38,
      "hit": false,
      "t": 53647.03199999994,
      "d": 352.9409999999989,
      "v": 80
    },
    {
      "midi": 38,
      "hit": false,
      "t": 53647.03199999994,
      "d": 352.9409999999989,
      "v": 80
    },
    {
      "midi": 50,
      "hit": false,
      "t": 53647.03199999997,
      "d": 352.9409999999989,
      "v": 80
    },
    {
      "midi": 43,
      "hit": false,
      "t": 53647.03199999997,
      "d": 117.6469999999972,
      "v": 114
    },
    {
      "midi": 50,
      "hit": false,
      "t": 53647.03199999997,
      "d": 352.9409999999989,
      "v": 80
    },
    {
      "midi": 55,
      "hit": false,
      "t": 53647.032,
      "d": 117.6469999999972,
      "v": 114
    },
    {
      "midi": 50,
      "hit": false,
      "t": 53647.03200000007,
      "d": 352.9409999999989,
      "v": 80
    },
    {
      "midi": 40,
      "hit": false,
      "t": 53999.97299999991,
      "d": 111.76464999999735,
      "v": 122
    },
    {
      "midi": 45,
      "hit": false,
      "t": 53999.97299999994,
      "d": 352.9409999999989,
      "v": 78
    },
    {
      "midi": 45,
      "hit": false,
      "t": 53999.97299999994,
      "d": 352.9409999999989,
      "v": 78
    },
    {
      "midi": 57,
      "hit": false,
      "t": 53999.97299999997,
      "d": 352.9409999999989,
      "v": 78
    },
    {
      "midi": 57,
      "hit": false,
      "t": 53999.97299999997,
      "d": 352.9409999999989,
      "v": 78
    },
    {
      "midi": 57,
      "hit": false,
      "t": 53999.97300000007,
      "d": 352.9409999999989,
      "v": 78
    },
    {
      "midi": 50,
      "hit": false,
      "t": 54352.91399999994,
      "d": 352.9409999999989,
      "v": 75
    },
    {
      "midi": 50,
      "hit": false,
      "t": 54352.91399999994,
      "d": 352.9409999999989,
      "v": 75
    },
    {
      "midi": 62,
      "hit": false,
      "t": 54352.91399999997,
      "d": 352.9409999999989,
      "v": 75
    },
    {
      "midi": 62,
      "hit": false,
      "t": 54352.91399999997,
      "d": 352.9409999999989,
      "v": 75
    },
    {
      "midi": 62,
      "hit": false,
      "t": 54352.91400000007,
      "d": 352.9409999999989,
      "v": 75
    },
    {
      "midi": 54,
      "hit": false,
      "t": 54364.67869999997,
      "d": 76.47054999999818,
      "v": 127
    },
    {
      "midi": 40,
      "hit": false,
      "t": 54705.85499999991,
      "d": 111.76464999999735,
      "v": 94
    },
    {
      "midi": 45,
      "hit": false,
      "t": 54705.85499999994,
      "d": 352.9409999999989,
      "v": 73
    },
    {
      "midi": 45,
      "hit": false,
      "t": 54705.85499999994,
      "d": 352.9409999999989,
      "v": 73
    },
    {
      "midi": 57,
      "hit": false,
      "t": 54705.85499999997,
      "d": 352.9409999999989,
      "v": 73
    },
    {
      "midi": 57,
      "hit": false,
      "t": 54705.85499999997,
      "d": 352.9409999999989,
      "v": 73
    },
    {
      "midi": 57,
      "hit": false,
      "t": 54705.85500000007,
      "d": 352.9409999999989,
      "v": 73
    },
    {
      "midi": 40,
      "hit": false,
      "t": 54823.501999999906,
      "d": 111.76464999999735,
      "v": 86
    },
    {
      "midi": 40,
      "hit": false,
      "t": 54941.1489999999,
      "d": 111.76464999999735,
      "v": 80
    },
    {
      "midi": 40,
      "hit": false,
      "t": 55058.7959999999,
      "d": 111.76464999999735,
      "v": 120
    },
    {
      "midi": 46,
      "hit": false,
      "t": 55058.79599999994,
      "d": 1411.7640000000029,
      "v": 104
    },
    {
      "midi": 46,
      "hit": false,
      "t": 55058.79599999994,
      "d": 1411.7640000000029,
      "v": 104
    },
    {
      "midi": 58,
      "hit": false,
      "t": 55058.795999999966,
      "d": 1411.7640000000029,
      "v": 104
    },
    {
      "midi": 58,
      "hit": false,
      "t": 55058.795999999966,
      "d": 1411.7640000000029,
      "v": 104
    },
    {
      "midi": 58,
      "hit": false,
      "t": 55058.79600000007,
      "d": 1411.7640000000029,
      "v": 104
    },
    {
      "midi": 54,
      "hit": false,
      "t": 55747.030949999964,
      "d": 88.2352499999979,
      "v": 127
    },
    {
      "midi": 43,
      "hit": false,
      "t": 56094.08959999997,
      "d": 52.94114999999874,
      "v": 117
    },
    {
      "midi": 55,
      "hit": false,
      "t": 56094.0896,
      "d": 52.94114999999874,
      "v": 117
    },
    {
      "midi": 40,
      "hit": false,
      "t": 56117.6189999999,
      "d": 111.76464999999735,
      "v": 94
    },
    {
      "midi": 40,
      "hit": false,
      "t": 56235.265999999894,
      "d": 111.76464999999735,
      "v": 70
    },
    {
      "midi": 40,
      "hit": false,
      "t": 56352.91299999989,
      "d": 111.76464999999735,
      "v": 98
    },
    {
      "midi": 43,
      "hit": false,
      "t": 56435.26589999997,
      "d": 99.99994999999763,
      "v": 127
    },
    {
      "midi": 55,
      "hit": false,
      "t": 56435.2659,
      "d": 99.99994999999763,
      "v": 127
    },
    {
      "midi": 40,
      "hit": false,
      "t": 56470.55999999989,
      "d": 111.76464999999735,
      "v": 127
    },
    {
      "midi": 38,
      "hit": false,
      "t": 56470.55999999994,
      "d": 352.9409999999989,
      "v": 94
    },
    {
      "midi": 38,
      "hit": false,
      "t": 56470.55999999994,
      "d": 352.9409999999989,
      "v": 94
    },
    {
      "midi": 50,
      "hit": false,
      "t": 56470.55999999997,
      "d": 352.9409999999989,
      "v": 94
    },
    {
      "midi": 50,
      "hit": false,
      "t": 56470.55999999997,
      "d": 352.9409999999989,
      "v": 94
    },
    {
      "midi": 50,
      "hit": false,
      "t": 56470.56000000007,
      "d": 352.9409999999989,
      "v": 94
    },
    {
      "midi": 40,
      "hit": false,
      "t": 56823.50099999989,
      "d": 111.76464999999735,
      "v": 92
    },
    {
      "midi": 45,
      "hit": false,
      "t": 56823.50099999994,
      "d": 352.9409999999989,
      "v": 71
    },
    {
      "midi": 45,
      "hit": false,
      "t": 56823.50099999994,
      "d": 352.9409999999989,
      "v": 71
    },
    {
      "midi": 57,
      "hit": false,
      "t": 56823.50099999997,
      "d": 352.9409999999989,
      "v": 71
    },
    {
      "midi": 57,
      "hit": false,
      "t": 56823.50099999997,
      "d": 352.9409999999989,
      "v": 71
    },
    {
      "midi": 57,
      "hit": false,
      "t": 56823.50100000007,
      "d": 352.9409999999989,
      "v": 71
    },
    {
      "midi": 54,
      "hit": false,
      "t": 57158.79494999996,
      "d": 70.58819999999832,
      "v": 127
    },
    {
      "midi": 50,
      "hit": false,
      "t": 57176.44199999994,
      "d": 352.9409999999989,
      "v": 81
    },
    {
      "midi": 50,
      "hit": false,
      "t": 57176.44199999994,
      "d": 352.9409999999989,
      "v": 81
    },
    {
      "midi": 62,
      "hit": false,
      "t": 57176.441999999966,
      "d": 352.9409999999989,
      "v": 81
    },
    {
      "midi": 62,
      "hit": false,
      "t": 57176.441999999966,
      "d": 352.9409999999989,
      "v": 81
    },
    {
      "midi": 62,
      "hit": false,
      "t": 57176.44200000007,
      "d": 352.9409999999989,
      "v": 81
    },
    {
      "midi": 40,
      "hit": false,
      "t": 57529.382999999885,
      "d": 111.76464999999735,
      "v": 83
    },
    {
      "midi": 53,
      "hit": false,
      "t": 57529.382999999936,
      "d": 382.3527499999982,
      "v": 100
    },
    {
      "midi": 53,
      "hit": false,
      "t": 57529.382999999936,
      "d": 382.3527499999982,
      "v": 100
    },
    {
      "midi": 65,
      "hit": false,
      "t": 57529.382999999965,
      "d": 382.3527499999982,
      "v": 100
    },
    {
      "midi": 65,
      "hit": false,
      "t": 57529.382999999965,
      "d": 382.3527499999982,
      "v": 100
    },
    {
      "midi": 65,
      "hit": false,
      "t": 57529.38300000007,
      "d": 382.3527499999982,
      "v": 100
    },
    {
      "midi": 40,
      "hit": false,
      "t": 57882.323999999884,
      "d": 111.76464999999735,
      "v": 120
    },
    {
      "midi": 57,
      "hit": false,
      "t": 57882.323999999935,
      "d": 1411.7639999999956,
      "v": 94
    },
    {
      "midi": 57,
      "hit": false,
      "t": 57882.323999999935,
      "d": 1411.7639999999956,
      "v": 94
    },
    {
      "midi": 69,
      "hit": false,
      "t": 57882.323999999964,
      "d": 1411.7639999999956,
      "v": 94
    },
    {
      "midi": 69,
      "hit": false,
      "t": 57882.323999999964,
      "d": 1411.7639999999956,
      "v": 94
    },
    {
      "midi": 69,
      "hit": false,
      "t": 57882.324000000066,
      "d": 1411.7639999999956,
      "v": 94
    },
    {
      "midi": 54,
      "hit": false,
      "t": 58558.794249999955,
      "d": 70.58819999999832,
      "v": 127
    },
    {
      "midi": 40,
      "hit": false,
      "t": 58588.20599999988,
      "d": 111.76464999999735,
      "v": 98
    },
    {
      "midi": 40,
      "hit": false,
      "t": 58705.85299999988,
      "d": 111.76464999999735,
      "v": 80
    },
    {
      "midi": 40,
      "hit": false,
      "t": 58823.499999999876,
      "d": 111.76464999999735,
      "v": 91
    },
    {
      "midi": 43,
      "hit": false,
      "t": 58882.32349999997,
      "d": 52.94114999999874,
      "v": 100
    },
    {
      "midi": 55,
      "hit": false,
      "t": 58882.3235,
      "d": 52.94114999999874,
      "v": 100
    },
    {
      "midi": 40,
      "hit": false,
      "t": 58941.14699999987,
      "d": 111.76464999999735,
      "v": 92
    },
    {
      "midi": 40,
      "hit": false,
      "t": 59058.79399999987,
      "d": 111.76464999999735,
      "v": 102
    },
    {
      "midi": 40,
      "hit": false,
      "t": 59176.44099999987,
      "d": 111.76464999999735,
      "v": 98
    },
    {
      "midi": 43,
      "hit": false,
      "t": 59229.38214999997,
      "d": 99.99994999999763,
      "v": 127
    },
    {
      "midi": 55,
      "hit": false,
      "t": 59229.38215,
      "d": 99.99994999999763,
      "v": 127
    },
    {
      "midi": 40,
      "hit": false,
      "t": 59294.087999999865,
      "d": 111.76464999999735,
      "v": 122
    },
    {
      "midi": 38,
      "hit": false,
      "t": 59294.08799999993,
      "d": 352.9409999999989,
      "v": 88
    },
    {
      "midi": 38,
      "hit": false,
      "t": 59294.08799999993,
      "d": 352.9409999999989,
      "v": 88
    },
    {
      "midi": 50,
      "hit": false,
      "t": 59294.08799999996,
      "d": 352.9409999999989,
      "v": 88
    },
    {
      "midi": 50,
      "hit": false,
      "t": 59294.08799999996,
      "d": 352.9409999999989,
      "v": 88
    },
    {
      "midi": 50,
      "hit": false,
      "t": 59294.08800000006,
      "d": 352.9409999999989,
      "v": 88
    },
    {
      "midi": 40,
      "hit": false,
      "t": 59647.028999999864,
      "d": 111.76464999999735,
      "v": 117
    },
    {
      "midi": 45,
      "hit": false,
      "t": 59647.02899999993,
      "d": 352.9409999999989,
      "v": 78
    },
    {
      "midi": 45,
      "hit": false,
      "t": 59647.02899999993,
      "d": 352.9409999999989,
      "v": 78
    },
    {
      "midi": 57,
      "hit": false,
      "t": 59647.02899999996,
      "d": 352.9409999999989,
      "v": 78
    },
    {
      "midi": 57,
      "hit": false,
      "t": 59647.02899999996,
      "d": 352.9409999999989,
      "v": 78
    },
    {
      "midi": 57,
      "hit": false,
      "t": 59647.02900000006,
      "d": 352.9409999999989,
      "v": 78
    },
    {
      "midi": 50,
      "hit": false,
      "t": 59999.96999999993,
      "d": 352.9409999999989,
      "v": 97
    },
    {
      "midi": 50,
      "hit": false,
      "t": 59999.96999999993,
      "d": 352.9409999999989,
      "v": 97
    },
    {
      "midi": 62,
      "hit": false,
      "t": 59999.96999999996,
      "d": 352.9409999999989,
      "v": 97
    },
    {
      "midi": 62,
      "hit": false,
      "t": 59999.96999999996,
      "d": 352.9409999999989,
      "v": 97
    },
    {
      "midi": 62,
      "hit": false,
      "t": 59999.97000000006,
      "d": 352.9409999999989,
      "v": 97
    },
    {
      "midi": 54,
      "hit": false,
      "t": 60005.85234999995,
      "d": 70.58819999999832,
      "v": 127
    },
    {
      "midi": 40,
      "hit": false,
      "t": 60352.91099999986,
      "d": 111.76464999999735,
      "v": 80
    },
    {
      "midi": 45,
      "hit": false,
      "t": 60352.91099999993,
      "d": 352.9409999999989,
      "v": 81
    },
    {
      "midi": 45,
      "hit": false,
      "t": 60352.91099999993,
      "d": 352.9409999999989,
      "v": 81
    },
    {
      "midi": 57,
      "hit": false,
      "t": 60352.91099999996,
      "d": 352.9409999999989,
      "v": 81
    },
    {
      "midi": 57,
      "hit": false,
      "t": 60352.91099999996,
      "d": 352.9409999999989,
      "v": 81
    },
    {
      "midi": 57,
      "hit": false,
      "t": 60352.91100000006,
      "d": 352.9409999999989,
      "v": 81
    },
    {
      "midi": 40,
      "hit": false,
      "t": 60705.85199999986,
      "d": 111.76464999999735,
      "v": 117
    },
    {
      "midi": 46,
      "hit": false,
      "t": 60705.851999999926,
      "d": 1411.7640000000029,
      "v": 116
    },
    {
      "midi": 46,
      "hit": false,
      "t": 60705.851999999926,
      "d": 1411.7640000000029,
      "v": 116
    },
    {
      "midi": 58,
      "hit": false,
      "t": 60705.851999999955,
      "d": 1411.7640000000029,
      "v": 116
    },
    {
      "midi": 58,
      "hit": false,
      "t": 60705.851999999955,
      "d": 1411.7640000000029,
      "v": 116
    },
    {
      "midi": 58,
      "hit": false,
      "t": 60705.85200000006,
      "d": 1411.7640000000029,
      "v": 116
    },
    {
      "midi": 54,
      "hit": false,
      "t": 61399.969299999946,
      "d": 82.35289999999804,
      "v": 127
    },
    {
      "midi": 43,
      "hit": false,
      "t": 61741.14559999997,
      "d": 52.94114999999874,
      "v": 84
    },
    {
      "midi": 55,
      "hit": false,
      "t": 61741.145599999996,
      "d": 52.94114999999874,
      "v": 84
    },
    {
      "midi": 43,
      "hit": false,
      "t": 62094.086599999966,
      "d": 99.99994999999763,
      "v": 125
    },
    {
      "midi": 55,
      "hit": false,
      "t": 62094.086599999995,
      "d": 99.99994999999763,
      "v": 125
    },
    {
      "midi": 40,
      "hit": false,
      "t": 62117.615999999856,
      "d": 111.76464999999735,
      "v": 114
    },
    {
      "midi": 45,
      "hit": false,
      "t": 62117.61599999993,
      "d": 352.9409999999989,
      "v": 64
    },
    {
      "midi": 45,
      "hit": false,
      "t": 62117.61599999993,
      "d": 352.9409999999989,
      "v": 64
    },
    {
      "midi": 57,
      "hit": false,
      "t": 62117.61599999996,
      "d": 352.9409999999989,
      "v": 64
    },
    {
      "midi": 57,
      "hit": false,
      "t": 62117.61599999996,
      "d": 352.9409999999989,
      "v": 64
    },
    {
      "midi": 57,
      "hit": false,
      "t": 62117.61600000006,
      "d": 352.9409999999989,
      "v": 64
    },
    {
      "midi": 40,
      "hit": false,
      "t": 62470.556999999855,
      "d": 111.76464999999735,
      "v": 114
    },
    {
      "midi": 46,
      "hit": false,
      "t": 62470.55699999993,
      "d": 352.9409999999989,
      "v": 84
    },
    {
      "midi": 46,
      "hit": false,
      "t": 62470.55699999993,
      "d": 352.9409999999989,
      "v": 84
    },
    {
      "midi": 58,
      "hit": false,
      "t": 62470.55699999996,
      "d": 352.9409999999989,
      "v": 84
    },
    {
      "midi": 58,
      "hit": false,
      "t": 62470.55699999996,
      "d": 352.9409999999989,
      "v": 84
    },
    {
      "midi": 58,
      "hit": false,
      "t": 62470.55700000006,
      "d": 352.9409999999989,
      "v": 84
    },
    {
      "midi": 45,
      "hit": false,
      "t": 62823.49799999993,
      "d": 176.47050000000309,
      "v": 72
    },
    {
      "midi": 45,
      "hit": false,
      "t": 62823.49799999993,
      "d": 176.47050000000309,
      "v": 72
    },
    {
      "midi": 57,
      "hit": false,
      "t": 62823.497999999956,
      "d": 176.47050000000309,
      "v": 72
    },
    {
      "midi": 57,
      "hit": false,
      "t": 62823.497999999956,
      "d": 176.47050000000309,
      "v": 72
    },
    {
      "midi": 57,
      "hit": false,
      "t": 62823.49800000006,
      "d": 176.47050000000309,
      "v": 72
    },
    {
      "midi": 54,
      "hit": false,
      "t": 62829.38034999994,
      "d": 99.99994999999763,
      "v": 127
    },
    {
      "midi": 43,
      "hit": false,
      "t": 62999.96849999993,
      "d": 176.47050000000309,
      "v": 75
    },
    {
      "midi": 43,
      "hit": false,
      "t": 62999.96849999993,
      "d": 176.47050000000309,
      "v": 75
    },
    {
      "midi": 55,
      "hit": false,
      "t": 62999.96849999996,
      "d": 176.47050000000309,
      "v": 75
    },
    {
      "midi": 55,
      "hit": false,
      "t": 62999.96849999996,
      "d": 176.47050000000309,
      "v": 75
    },
    {
      "midi": 55,
      "hit": false,
      "t": 62999.96850000006,
      "d": 176.47050000000309,
      "v": 75
    },
    {
      "midi": 41,
      "hit": false,
      "t": 63176.43899999993,
      "d": 176.47050000000309,
      "v": 68
    },
    {
      "midi": 41,
      "hit": false,
      "t": 63176.43899999993,
      "d": 176.47050000000309,
      "v": 68
    },
    {
      "midi": 53,
      "hit": false,
      "t": 63176.43899999996,
      "d": 176.47050000000309,
      "v": 68
    },
    {
      "midi": 53,
      "hit": false,
      "t": 63176.43899999996,
      "d": 176.47050000000309,
      "v": 68
    },
    {
      "midi": 53,
      "hit": false,
      "t": 63176.439000000064,
      "d": 176.47050000000309,
      "v": 68
    },
    {
      "midi": 40,
      "hit": false,
      "t": 63352.909499999936,
      "d": 176.47050000000309,
      "v": 75
    },
    {
      "midi": 40,
      "hit": false,
      "t": 63352.909499999936,
      "d": 176.47050000000309,
      "v": 75
    },
    {
      "midi": 52,
      "hit": false,
      "t": 63352.909499999965,
      "d": 176.47050000000309,
      "v": 75
    },
    {
      "midi": 52,
      "hit": false,
      "t": 63352.909499999965,
      "d": 176.47050000000309,
      "v": 75
    },
    {
      "midi": 52,
      "hit": false,
      "t": 63352.90950000007,
      "d": 176.47050000000309,
      "v": 75
    },
    {
      "midi": 40,
      "hit": false,
      "t": 63529.37999999985,
      "d": 111.76464999999735,
      "v": 120
    },
    {
      "midi": 38,
      "hit": false,
      "t": 63529.37999999994,
      "d": 705.8819999999978,
      "v": 88
    },
    {
      "midi": 38,
      "hit": false,
      "t": 63529.37999999994,
      "d": 705.8819999999978,
      "v": 88
    },
    {
      "midi": 50,
      "hit": false,
      "t": 63529.37999999997,
      "d": 705.8819999999978,
      "v": 88
    },
    {
      "midi": 50,
      "hit": false,
      "t": 63529.37999999997,
      "d": 705.8819999999978,
      "v": 88
    },
    {
      "midi": 50,
      "hit": false,
      "t": 63529.38000000007,
      "d": 705.8819999999978,
      "v": 88
    },
    {
      "midi": 43,
      "hit": false,
      "t": 63541.14469999996,
      "d": 76.47054999999818,
      "v": 117
    },
    {
      "midi": 55,
      "hit": false,
      "t": 63541.14469999999,
      "d": 76.47054999999818,
      "v": 117
    },
    {
      "midi": 54,
      "hit": false,
      "t": 64223.49729999994,
      "d": 76.47054999999818,
      "v": 127
    },
    {
      "midi": 31,
      "hit": false,
      "t": 64582.32064999996,
      "d": 52.94114999999874,
      "v": 127
    },
    {
      "midi": 43,
      "hit": false,
      "t": 64582.32064999999,
      "d": 52.94114999999874,
      "v": 127
    },
    {
      "midi": 40,
      "hit": false,
      "t": 64941.14399999985,
      "d": 111.76464999999735,
      "v": 127
    },
    {
      "midi": 83,
      "hit": false,
      "t": 64941.14399999992,
      "d": 352.9409999999989,
      "v": 97
    },
    {
      "midi": 51,
      "hit": false,
      "t": 64941.143999999935,
      "d": 1341.1758000000045,
      "v": 127
    },
    {
      "midi": 51,
      "hit": false,
      "t": 64941.143999999935,
      "d": 1341.1758000000045,
      "v": 127
    },
    {
      "midi": 43,
      "hit": false,
      "t": 64941.14399999996,
      "d": 117.6469999999972,
      "v": 114
    },
    {
      "midi": 56,
      "hit": false,
      "t": 64941.143999999964,
      "d": 352.9409999999989,
      "v": 80
    },
    {
      "midi": 56,
      "hit": false,
      "t": 64941.143999999964,
      "d": 352.9409999999989,
      "v": 80
    },
    {
      "midi": 56,
      "hit": false,
      "t": 64941.14399999997,
      "d": 352.9409999999989,
      "v": 80
    },
    {
      "midi": 55,
      "hit": false,
      "t": 64941.143999999986,
      "d": 117.6469999999972,
      "v": 114
    },
    {
      "midi": 71,
      "hit": false,
      "t": 64941.144000000066,
      "d": 352.9409999999989,
      "v": 97
    },
    {
      "midi": 68,
      "hit": false,
      "t": 64976.438099999956,
      "d": 341.1762999999992,
      "v": 84
    },
    {
      "midi": 56,
      "hit": false,
      "t": 64976.43809999997,
      "d": 341.1762999999992,
      "v": 84
    },
    {
      "midi": 40,
      "hit": false,
      "t": 65294.084999999846,
      "d": 111.76464999999735,
      "v": 122
    },
    {
      "midi": 92,
      "hit": false,
      "t": 65294.08499999992,
      "d": 352.94100000000617,
      "v": 87
    },
    {
      "midi": 63,
      "hit": false,
      "t": 65294.08499999996,
      "d": 352.94100000000617,
      "v": 78
    },
    {
      "midi": 63,
      "hit": false,
      "t": 65294.08499999996,
      "d": 352.94100000000617,
      "v": 78
    },
    {
      "midi": 63,
      "hit": false,
      "t": 65294.08499999997,
      "d": 352.9409999999989,
      "v": 78
    },
    {
      "midi": 80,
      "hit": false,
      "t": 65294.085000000065,
      "d": 352.94100000000617,
      "v": 87
    },
    {
      "midi": 75,
      "hit": false,
      "t": 65323.496749999955,
      "d": 323.5292499999996,
      "v": 80
    },
    {
      "midi": 63,
      "hit": false,
      "t": 65323.49674999997,
      "d": 323.5292499999996,
      "v": 80
    },
    {
      "midi": 54,
      "hit": false,
      "t": 65635.26129999994,
      "d": 88.2352499999979,
      "v": 127
    },
    {
      "midi": 80,
      "hit": false,
      "t": 65635.26129999995,
      "d": 352.94100000000617,
      "v": 83
    },
    {
      "midi": 68,
      "hit": false,
      "t": 65635.26129999997,
      "d": 352.94100000000617,
      "v": 83
    },
    {
      "midi": 95,
      "hit": false,
      "t": 65647.02599999993,
      "d": 176.4704999999958,
      "v": 78
    },
    {
      "midi": 68,
      "hit": false,
      "t": 65647.02599999997,
      "d": 352.94100000000617,
      "v": 75
    },
    {
      "midi": 68,
      "hit": false,
      "t": 65647.02599999997,
      "d": 352.94100000000617,
      "v": 75
    },
    {
      "midi": 68,
      "hit": false,
      "t": 65647.02599999997,
      "d": 352.94100000000617,
      "v": 75
    },
    {
      "midi": 83,
      "hit": false,
      "t": 65647.02600000007,
      "d": 176.4704999999958,
      "v": 78
    },
    {
      "midi": 94,
      "hit": false,
      "t": 65823.49649999992,
      "d": 176.4704999999958,
      "v": 68
    },
    {
      "midi": 82,
      "hit": false,
      "t": 65823.49650000007,
      "d": 176.4704999999958,
      "v": 68
    },
    {
      "midi": 75,
      "hit": false,
      "t": 65988.20229999996,
      "d": 335.2939500000066,
      "v": 79
    },
    {
      "midi": 63,
      "hit": false,
      "t": 65988.20229999998,
      "d": 335.2939500000066,
      "v": 79
    },
    {
      "midi": 40,
      "hit": false,
      "t": 65999.96699999984,
      "d": 111.76464999999735,
      "v": 94
    },
    {
      "midi": 92,
      "hit": false,
      "t": 65999.96699999992,
      "d": 176.4704999999958,
      "v": 81
    },
    {
      "midi": 63,
      "hit": false,
      "t": 65999.96699999998,
      "d": 352.94100000000617,
      "v": 73
    },
    {
      "midi": 63,
      "hit": false,
      "t": 65999.96699999998,
      "d": 352.94100000000617,
      "v": 73
    },
    {
      "midi": 63,
      "hit": false,
      "t": 65999.96699999998,
      "d": 352.94100000000617,
      "v": 73
    },
    {
      "midi": 80,
      "hit": false,
      "t": 65999.96700000006,
      "d": 176.4704999999958,
      "v": 81
    },
    {
      "midi": 40,
      "hit": false,
      "t": 66117.61399999984,
      "d": 111.76464999999735,
      "v": 86
    },
    {
      "midi": 40,
      "hit": false,
      "t": 66235.26099999984,
      "d": 111.76464999999735,
      "v": 80
    },
    {
      "midi": 50,
      "hit": false,
      "t": 66288.20214999994,
      "d": 1382.3522499999963,
      "v": 119
    },
    {
      "midi": 50,
      "hit": false,
      "t": 66288.20214999994,
      "d": 1382.3522499999963,
      "v": 119
    },
    {
      "midi": 74,
      "hit": false,
      "t": 66317.61389999997,
      "d": 1382.3522499999963,
      "v": 85
    },
    {
      "midi": 62,
      "hit": false,
      "t": 66317.61389999998,
      "d": 1382.3522499999963,
      "v": 85
    },
    {
      "midi": 40,
      "hit": false,
      "t": 66352.90799999984,
      "d": 111.76464999999735,
      "v": 120
    },
    {
      "midi": 92,
      "hit": false,
      "t": 66352.90799999991,
      "d": 1411.7639999999956,
      "v": 70
    },
    {
      "midi": 64,
      "hit": false,
      "t": 66352.90799999998,
      "d": 1411.7639999999956,
      "v": 104
    },
    {
      "midi": 64,
      "hit": false,
      "t": 66352.90799999998,
      "d": 1411.7639999999956,
      "v": 104
    },
    {
      "midi": 64,
      "hit": false,
      "t": 66352.90799999998,
      "d": 1411.7639999999956,
      "v": 104
    },
    {
      "midi": 80,
      "hit": false,
      "t": 66352.90800000005,
      "d": 1411.7639999999956,
      "v": 70
    },
    {
      "midi": 54,
      "hit": false,
      "t": 67058.78999999994,
      "d": 82.35289999999804,
      "v": 127
    },
    {
      "midi": 43,
      "hit": false,
      "t": 67388.20159999996,
      "d": 52.94114999999874,
      "v": 94
    },
    {
      "midi": 55,
      "hit": false,
      "t": 67388.20159999999,
      "d": 52.94114999999874,
      "v": 94
    },
    {
      "midi": 41,
      "hit": false,
      "t": 67394.08394999996,
      "d": 35.29409999999916,
      "v": 84
    },
    {
      "midi": 53,
      "hit": false,
      "t": 67394.08394999999,
      "d": 35.29409999999916,
      "v": 84
    },
    {
      "midi": 40,
      "hit": false,
      "t": 67411.73099999984,
      "d": 111.76464999999735,
      "v": 94
    },
    {
      "midi": 40,
      "hit": false,
      "t": 67529.37799999984,
      "d": 111.76464999999735,
      "v": 70
    },
    {
      "midi": 40,
      "hit": false,
      "t": 67647.02499999983,
      "d": 111.76464999999735,
      "v": 98
    },
    {
      "midi": 51,
      "hit": false,
      "t": 67676.43674999994,
      "d": 2711.763349999994,
      "v": 100
    },
    {
      "midi": 51,
      "hit": false,
      "t": 67676.43674999994,
      "d": 2711.763349999994,
      "v": 100
    },
    {
      "midi": 68,
      "hit": false,
      "t": 67694.08379999996,
      "d": 158.82344999999623,
      "v": 87
    },
    {
      "midi": 56,
      "hit": false,
      "t": 67694.08379999998,
      "d": 158.82344999999623,
      "v": 87
    },
    {
      "midi": 43,
      "hit": false,
      "t": 67729.37789999995,
      "d": 99.99994999999763,
      "v": 127
    },
    {
      "midi": 55,
      "hit": false,
      "t": 67729.37789999998,
      "d": 99.99994999999763,
      "v": 127
    },
    {
      "midi": 40,
      "hit": false,
      "t": 67764.67199999983,
      "d": 111.76464999999735,
      "v": 127
    },
    {
      "midi": 83,
      "hit": false,
      "t": 67764.6719999999,
      "d": 176.4704999999958,
      "v": 81
    },
    {
      "midi": 56,
      "hit": false,
      "t": 67764.67199999998,
      "d": 352.94100000000617,
      "v": 94
    },
    {
      "midi": 56,
      "hit": false,
      "t": 67764.67199999998,
      "d": 352.94100000000617,
      "v": 94
    },
    {
      "midi": 56,
      "hit": false,
      "t": 67764.67199999998,
      "d": 352.94100000000617,
      "v": 94
    },
    {
      "midi": 71,
      "hit": false,
      "t": 67764.67200000005,
      "d": 176.4704999999958,
      "v": 81
    },
    {
      "midi": 71,
      "hit": false,
      "t": 67870.55429999996,
      "d": 223.5292999999947,
      "v": 44
    },
    {
      "midi": 59,
      "hit": false,
      "t": 67870.55429999997,
      "d": 223.5292999999947,
      "v": 44
    },
    {
      "midi": 87,
      "hit": false,
      "t": 67941.1424999999,
      "d": 176.4704999999958,
      "v": 67
    },
    {
      "midi": 75,
      "hit": false,
      "t": 67941.14250000005,
      "d": 176.4704999999958,
      "v": 67
    },
    {
      "midi": 75,
      "hit": false,
      "t": 68052.90714999996,
      "d": 394.1174500000052,
      "v": 79
    },
    {
      "midi": 63,
      "hit": false,
      "t": 68052.90714999997,
      "d": 394.1174500000052,
      "v": 79
    },
    {
      "midi": 40,
      "hit": false,
      "t": 68117.61299999982,
      "d": 111.76464999999735,
      "v": 92
    },
    {
      "midi": 92,
      "hit": false,
      "t": 68117.6129999999,
      "d": 176.4704999999958,
      "v": 81
    },
    {
      "midi": 63,
      "hit": false,
      "t": 68117.61299999998,
      "d": 352.94100000000617,
      "v": 71
    },
    {
      "midi": 63,
      "hit": false,
      "t": 68117.61299999998,
      "d": 352.94100000000617,
      "v": 71
    },
    {
      "midi": 63,
      "hit": false,
      "t": 68117.61299999998,
      "d": 352.94100000000617,
      "v": 71
    },
    {
      "midi": 80,
      "hit": false,
      "t": 68117.61300000004,
      "d": 176.4704999999958,
      "v": 81
    },
    {
      "midi": 94,
      "hit": false,
      "t": 68294.08349999989,
      "d": 176.4704999999958,
      "v": 68
    },
    {
      "midi": 82,
      "hit": false,
      "t": 68294.08350000004,
      "d": 176.4704999999958,
      "v": 68
    },
    {
      "midi": 80,
      "hit": false,
      "t": 68417.61284999996,
      "d": 347.0586500000063,
      "v": 90
    },
    {
      "midi": 68,
      "hit": false,
      "t": 68417.61284999998,
      "d": 347.0586500000063,
      "v": 90
    },
    {
      "midi": 54,
      "hit": false,
      "t": 68464.67164999993,
      "d": 94.11759999999776,
      "v": 127
    },
    {
      "midi": 95,
      "hit": false,
      "t": 68470.55399999989,
      "d": 176.4704999999958,
      "v": 90
    },
    {
      "midi": 68,
      "hit": false,
      "t": 68470.55399999999,
      "d": 352.94100000000617,
      "v": 81
    },
    {
      "midi": 68,
      "hit": false,
      "t": 68470.55399999999,
      "d": 352.94100000000617,
      "v": 81
    },
    {
      "midi": 68,
      "hit": false,
      "t": 68470.55399999999,
      "d": 352.94100000000617,
      "v": 81
    },
    {
      "midi": 83,
      "hit": false,
      "t": 68470.55400000003,
      "d": 176.4704999999958,
      "v": 90
    },
    {
      "midi": 94,
      "hit": false,
      "t": 68647.02449999988,
      "d": 176.4704999999958,
      "v": 91
    },
    {
      "midi": 82,
      "hit": false,
      "t": 68647.02450000003,
      "d": 176.4704999999958,
      "v": 91
    },
    {
      "midi": 75,
      "hit": false,
      "t": 68764.67149999997,
      "d": 376.4704000000056,
      "v": 70
    },
    {
      "midi": 63,
      "hit": false,
      "t": 68764.67149999998,
      "d": 376.4704000000056,
      "v": 70
    },
    {
      "midi": 40,
      "hit": false,
      "t": 68823.49499999982,
      "d": 111.76464999999735,
      "v": 83
    },
    {
      "midi": 92,
      "hit": false,
      "t": 68823.49499999988,
      "d": 352.94100000000617,
      "v": 85
    },
    {
      "midi": 71,
      "hit": false,
      "t": 68823.495,
      "d": 382.35275000000547,
      "v": 100
    },
    {
      "midi": 71,
      "hit": false,
      "t": 68823.495,
      "d": 382.35275000000547,
      "v": 100
    },
    {
      "midi": 71,
      "hit": false,
      "t": 68823.495,
      "d": 382.35275000000547,
      "v": 100
    },
    {
      "midi": 80,
      "hit": false,
      "t": 68823.49500000002,
      "d": 352.94100000000617,
      "v": 85
    },
    {
      "midi": 79,
      "hit": false,
      "t": 69152.90659999997,
      "d": 1376.4698999999964,
      "v": 84
    },
    {
      "midi": 67,
      "hit": false,
      "t": 69152.90659999999,
      "d": 1376.4698999999964,
      "v": 84
    },
    {
      "midi": 52,
      "hit": false,
      "t": 69164.67129999993,
      "d": 52.94114999999874,
      "v": 72
    },
    {
      "midi": 52,
      "hit": false,
      "t": 69164.67129999993,
      "d": 52.94114999999874,
      "v": 72
    },
    {
      "midi": 40,
      "hit": false,
      "t": 69176.43599999981,
      "d": 111.76464999999735,
      "v": 120
    },
    {
      "midi": 94,
      "hit": false,
      "t": 69176.43599999989,
      "d": 1411.7639999999956,
      "v": 91
    },
    {
      "midi": 75,
      "hit": false,
      "t": 69176.436,
      "d": 1411.7639999999956,
      "v": 94
    },
    {
      "midi": 75,
      "hit": false,
      "t": 69176.436,
      "d": 1411.7639999999956,
      "v": 94
    },
    {
      "midi": 75,
      "hit": false,
      "t": 69176.436,
      "d": 1411.7639999999956,
      "v": 94
    },
    {
      "midi": 82,
      "hit": false,
      "t": 69176.43600000003,
      "d": 1411.7639999999956,
      "v": 91
    },
    {
      "midi": 40,
      "hit": false,
      "t": 69882.31799999981,
      "d": 111.76464999999735,
      "v": 98
    },
    {
      "midi": 54,
      "hit": false,
      "t": 69894.08269999993,
      "d": 82.35289999999804,
      "v": 127
    },
    {
      "midi": 40,
      "hit": false,
      "t": 69999.96499999981,
      "d": 111.76464999999735,
      "v": 80
    },
    {
      "midi": 40,
      "hit": false,
      "t": 70117.6119999998,
      "d": 111.76464999999735,
      "v": 91
    },
    {
      "midi": 43,
      "hit": false,
      "t": 70176.43549999995,
      "d": 52.94114999999874,
      "v": 100
    },
    {
      "midi": 55,
      "hit": false,
      "t": 70176.43549999998,
      "d": 52.94114999999874,
      "v": 100
    },
    {
      "midi": 31,
      "hit": false,
      "t": 70211.72959999995,
      "d": 47.05879999999888,
      "v": 104
    },
    {
      "midi": 43,
      "hit": false,
      "t": 70211.72959999998,
      "d": 47.05879999999888,
      "v": 104
    },
    {
      "midi": 40,
      "hit": false,
      "t": 70235.2589999998,
      "d": 111.76464999999735,
      "v": 92
    },
    {
      "midi": 40,
      "hit": false,
      "t": 70352.9059999998,
      "d": 111.76464999999735,
      "v": 102
    },
    {
      "midi": 40,
      "hit": false,
      "t": 70470.5529999998,
      "d": 111.76464999999735,
      "v": 98
    },
    {
      "midi": 51,
      "hit": false,
      "t": 70523.49414999993,
      "d": 1482.352199999994,
      "v": 112
    },
    {
      "midi": 51,
      "hit": false,
      "t": 70523.49414999993,
      "d": 1482.352199999994,
      "v": 112
    },
    {
      "midi": 43,
      "hit": false,
      "t": 70523.49414999994,
      "d": 99.99994999999763,
      "v": 127
    },
    {
      "midi": 55,
      "hit": false,
      "t": 70523.49414999997,
      "d": 99.99994999999763,
      "v": 127
    },
    {
      "midi": 68,
      "hit": false,
      "t": 70535.25884999997,
      "d": 358.82335000000603,
      "v": 77
    },
    {
      "midi": 56,
      "hit": false,
      "t": 70535.25884999998,
      "d": 358.82335000000603,
      "v": 77
    },
    {
      "midi": 40,
      "hit": false,
      "t": 70588.1999999998,
      "d": 111.76464999999735,
      "v": 122
    },
    {
      "midi": 83,
      "hit": false,
      "t": 70588.19999999988,
      "d": 352.94100000000617,
      "v": 80
    },
    {
      "midi": 56,
      "hit": false,
      "t": 70588.2,
      "d": 352.94100000000617,
      "v": 88
    },
    {
      "midi": 56,
      "hit": false,
      "t": 70588.2,
      "d": 352.94100000000617,
      "v": 88
    },
    {
      "midi": 56,
      "hit": false,
      "t": 70588.2,
      "d": 352.94100000000617,
      "v": 88
    },
    {
      "midi": 71,
      "hit": false,
      "t": 70588.20000000003,
      "d": 352.94100000000617,
      "v": 80
    },
    {
      "midi": 75,
      "hit": false,
      "t": 70894.08219999998,
      "d": 341.17630000000645,
      "v": 70
    },
    {
      "midi": 63,
      "hit": false,
      "t": 70894.08219999999,
      "d": 341.17630000000645,
      "v": 70
    },
    {
      "midi": 40,
      "hit": false,
      "t": 70941.14099999978,
      "d": 111.76464999999735,
      "v": 117
    },
    {
      "midi": 92,
      "hit": false,
      "t": 70941.14099999989,
      "d": 352.94100000000617,
      "v": 81
    },
    {
      "midi": 63,
      "hit": false,
      "t": 70941.141,
      "d": 352.94100000000617,
      "v": 78
    },
    {
      "midi": 63,
      "hit": false,
      "t": 70941.141,
      "d": 352.94100000000617,
      "v": 78
    },
    {
      "midi": 63,
      "hit": false,
      "t": 70941.141,
      "d": 352.94100000000617,
      "v": 78
    },
    {
      "midi": 80,
      "hit": false,
      "t": 70941.14100000003,
      "d": 352.94100000000617,
      "v": 81
    },
    {
      "midi": 80,
      "hit": false,
      "t": 71223.49379999998,
      "d": 399.99980000000505,
      "v": 55
    },
    {
      "midi": 68,
      "hit": false,
      "t": 71223.4938,
      "d": 399.99980000000505,
      "v": 55
    },
    {
      "midi": 54,
      "hit": false,
      "t": 71276.43494999992,
      "d": 88.2352499999979,
      "v": 127
    },
    {
      "midi": 95,
      "hit": false,
      "t": 71294.0819999999,
      "d": 176.4704999999958,
      "v": 78
    },
    {
      "midi": 68,
      "hit": false,
      "t": 71294.08200000001,
      "d": 352.94100000000617,
      "v": 97
    },
    {
      "midi": 68,
      "hit": false,
      "t": 71294.08200000001,
      "d": 352.94100000000617,
      "v": 97
    },
    {
      "midi": 68,
      "hit": false,
      "t": 71294.08200000001,
      "d": 352.94100000000617,
      "v": 97
    },
    {
      "midi": 83,
      "hit": false,
      "t": 71294.08200000004,
      "d": 176.4704999999958,
      "v": 78
    },
    {
      "midi": 94,
      "hit": false,
      "t": 71470.55249999989,
      "d": 176.4704999999958,
      "v": 70
    },
    {
      "midi": 82,
      "hit": false,
      "t": 71470.55250000003,
      "d": 176.4704999999958,
      "v": 70
    },
    {
      "midi": 75,
      "hit": false,
      "t": 71599.96419999999,
      "d": 382.35275000000547,
      "v": 58
    },
    {
      "midi": 63,
      "hit": false,
      "t": 71599.9642,
      "d": 382.35275000000547,
      "v": 58
    },
    {
      "midi": 40,
      "hit": false,
      "t": 71647.02299999978,
      "d": 111.76464999999735,
      "v": 80
    },
    {
      "midi": 92,
      "hit": false,
      "t": 71647.02299999988,
      "d": 176.4704999999958,
      "v": 86
    },
    {
      "midi": 63,
      "hit": false,
      "t": 71647.02300000002,
      "d": 352.94100000000617,
      "v": 81
    },
    {
      "midi": 63,
      "hit": false,
      "t": 71647.02300000002,
      "d": 352.94100000000617,
      "v": 81
    },
    {
      "midi": 63,
      "hit": false,
      "t": 71647.02300000002,
      "d": 352.94100000000617,
      "v": 81
    },
    {
      "midi": 80,
      "hit": false,
      "t": 71647.02300000003,
      "d": 176.4704999999958,
      "v": 86
    },
    {
      "midi": 56,
      "hit": false,
      "t": 71941.14049999992,
      "d": 1411.7639999999956,
      "v": 112
    },
    {
      "midi": 56,
      "hit": false,
      "t": 71941.14049999992,
      "d": 1411.7639999999956,
      "v": 112
    },
    {
      "midi": 76,
      "hit": false,
      "t": 71976.4346,
      "d": 1352.940499999997,
      "v": 83
    },
    {
      "midi": 64,
      "hit": false,
      "t": 71976.43460000001,
      "d": 1352.940499999997,
      "v": 83
    },
    {
      "midi": 40,
      "hit": false,
      "t": 71999.96399999977,
      "d": 111.76464999999735,
      "v": 117
    },
    {
      "midi": 92,
      "hit": false,
      "t": 71999.96399999988,
      "d": 1411.7639999999956,
      "v": 87
    },
    {
      "midi": 64,
      "hit": false,
      "t": 71999.96400000002,
      "d": 1411.7639999999956,
      "v": 116
    },
    {
      "midi": 80,
      "hit": false,
      "t": 71999.96400000002,
      "d": 1411.7639999999956,
      "v": 87
    },
    {
      "midi": 64,
      "hit": false,
      "t": 71999.96400000002,
      "d": 1411.7639999999956,
      "v": 116
    },
    {
      "midi": 64,
      "hit": false,
      "t": 71999.96400000002,
      "d": 1411.7639999999956,
      "v": 116
    },
    {
      "midi": 54,
      "hit": false,
      "t": 72676.43424999992,
      "d": 88.2352499999979,
      "v": 127
    },
    {
      "midi": 43,
      "hit": false,
      "t": 73047.02229999994,
      "d": 29.4117499999993,
      "v": 102
    },
    {
      "midi": 55,
      "hit": false,
      "t": 73047.02229999997,
      "d": 29.4117499999993,
      "v": 102
    },
    {
      "midi": 58,
      "hit": false,
      "t": 73323.49274999992,
      "d": 741.176099999997,
      "v": 100
    },
    {
      "midi": 58,
      "hit": false,
      "t": 73323.49274999992,
      "d": 741.176099999997,
      "v": 100
    },
    {
      "midi": 75,
      "hit": false,
      "t": 73335.25744999999,
      "d": 194.1175499999954,
      "v": 68
    },
    {
      "midi": 63,
      "hit": false,
      "t": 73335.25745,
      "d": 194.1175499999954,
      "v": 68
    },
    {
      "midi": 43,
      "hit": false,
      "t": 73388.19859999993,
      "d": 99.99994999999763,
      "v": 125
    },
    {
      "midi": 55,
      "hit": false,
      "t": 73388.19859999996,
      "d": 99.99994999999763,
      "v": 125
    },
    {
      "midi": 40,
      "hit": false,
      "t": 73411.72799999977,
      "d": 111.76464999999735,
      "v": 114
    },
    {
      "midi": 95,
      "hit": false,
      "t": 73411.72799999987,
      "d": 176.4704999999958,
      "v": 84
    },
    {
      "midi": 63,
      "hit": false,
      "t": 73411.72800000002,
      "d": 352.94100000000617,
      "v": 64
    },
    {
      "midi": 83,
      "hit": false,
      "t": 73411.72800000002,
      "d": 176.4704999999958,
      "v": 84
    },
    {
      "midi": 63,
      "hit": false,
      "t": 73411.72800000002,
      "d": 352.94100000000617,
      "v": 64
    },
    {
      "midi": 63,
      "hit": false,
      "t": 73411.72800000002,
      "d": 352.94100000000617,
      "v": 64
    },
    {
      "midi": 76,
      "hit": false,
      "t": 73523.49264999999,
      "d": 164.7057999999961,
      "v": 61
    },
    {
      "midi": 64,
      "hit": false,
      "t": 73523.49265,
      "d": 164.7057999999961,
      "v": 61
    },
    {
      "midi": 94,
      "hit": false,
      "t": 73588.19849999987,
      "d": 176.4704999999958,
      "v": 94
    },
    {
      "midi": 82,
      "hit": false,
      "t": 73588.19850000001,
      "d": 176.4704999999958,
      "v": 94
    },
    {
      "midi": 75,
      "hit": false,
      "t": 73676.43374999998,
      "d": 199.99989999999525,
      "v": 68
    },
    {
      "midi": 63,
      "hit": false,
      "t": 73676.43375,
      "d": 199.99989999999525,
      "v": 68
    },
    {
      "midi": 40,
      "hit": false,
      "t": 73764.66899999976,
      "d": 111.76464999999735,
      "v": 114
    },
    {
      "midi": 95,
      "hit": false,
      "t": 73764.66899999986,
      "d": 176.4704999999958,
      "v": 102
    },
    {
      "midi": 83,
      "hit": false,
      "t": 73764.66900000001,
      "d": 176.4704999999958,
      "v": 102
    },
    {
      "midi": 64,
      "hit": false,
      "t": 73764.66900000002,
      "d": 352.94100000000617,
      "v": 84
    },
    {
      "midi": 64,
      "hit": false,
      "t": 73764.66900000002,
      "d": 352.94100000000617,
      "v": 84
    },
    {
      "midi": 64,
      "hit": false,
      "t": 73764.66900000002,
      "d": 352.94100000000617,
      "v": 84
    },
    {
      "midi": 73,
      "hit": false,
      "t": 73864.66894999998,
      "d": 194.1175499999954,
      "v": 73
    },
    {
      "midi": 61,
      "hit": false,
      "t": 73864.66894999999,
      "d": 194.1175499999954,
      "v": 73
    },
    {
      "midi": 92,
      "hit": false,
      "t": 73941.13949999986,
      "d": 176.4704999999958,
      "v": 91
    },
    {
      "midi": 80,
      "hit": false,
      "t": 73941.1395,
      "d": 176.4704999999958,
      "v": 91
    },
    {
      "midi": 59,
      "hit": false,
      "t": 74035.25709999992,
      "d": 658.8231999999989,
      "v": 80
    },
    {
      "midi": 59,
      "hit": false,
      "t": 74035.25709999992,
      "d": 658.8231999999989,
      "v": 80
    },
    {
      "midi": 75,
      "hit": false,
      "t": 74041.13944999997,
      "d": 217.64694999999483,
      "v": 73
    },
    {
      "midi": 63,
      "hit": false,
      "t": 74041.13944999999,
      "d": 217.64694999999483,
      "v": 73
    },
    {
      "midi": 54,
      "hit": false,
      "t": 74088.19824999991,
      "d": 99.99994999999763,
      "v": 127
    },
    {
      "midi": 94,
      "hit": false,
      "t": 74117.60999999986,
      "d": 176.4704999999958,
      "v": 91
    },
    {
      "midi": 82,
      "hit": false,
      "t": 74117.61,
      "d": 176.4704999999958,
      "v": 91
    },
    {
      "midi": 63,
      "hit": false,
      "t": 74117.61000000003,
      "d": 176.4704999999958,
      "v": 72
    },
    {
      "midi": 63,
      "hit": false,
      "t": 74117.61000000003,
      "d": 176.4704999999958,
      "v": 72
    },
    {
      "midi": 63,
      "hit": false,
      "t": 74117.61000000003,
      "d": 176.4704999999958,
      "v": 72
    },
    {
      "midi": 73,
      "hit": false,
      "t": 74217.60994999997,
      "d": 188.23519999999553,
      "v": 73
    },
    {
      "midi": 61,
      "hit": false,
      "t": 74217.60994999998,
      "d": 188.23519999999553,
      "v": 73
    },
    {
      "midi": 92,
      "hit": false,
      "t": 74294.08049999985,
      "d": 176.4704999999958,
      "v": 95
    },
    {
      "midi": 80,
      "hit": false,
      "t": 74294.0805,
      "d": 176.4704999999958,
      "v": 95
    },
    {
      "midi": 61,
      "hit": false,
      "t": 74294.08050000003,
      "d": 176.4704999999958,
      "v": 75
    },
    {
      "midi": 61,
      "hit": false,
      "t": 74294.08050000003,
      "d": 176.4704999999958,
      "v": 75
    },
    {
      "midi": 61,
      "hit": false,
      "t": 74294.08050000003,
      "d": 176.4704999999958,
      "v": 75
    },
    {
      "midi": 71,
      "hit": false,
      "t": 74382.31574999997,
      "d": 235.2939999999944,
      "v": 64
    },
    {
      "midi": 59,
      "hit": false,
      "t": 74382.31574999998,
      "d": 235.2939999999944,
      "v": 64
    },
    {
      "midi": 94,
      "hit": false,
      "t": 74470.55099999985,
      "d": 176.4704999999958,
      "v": 80
    },
    {
      "midi": 82,
      "hit": false,
      "t": 74470.55099999999,
      "d": 176.4704999999958,
      "v": 80
    },
    {
      "midi": 59,
      "hit": false,
      "t": 74470.55100000002,
      "d": 176.4704999999958,
      "v": 68
    },
    {
      "midi": 59,
      "hit": false,
      "t": 74470.55100000002,
      "d": 176.4704999999958,
      "v": 68
    },
    {
      "midi": 59,
      "hit": false,
      "t": 74470.55100000002,
      "d": 176.4704999999958,
      "v": 68
    },
    {
      "midi": 70,
      "hit": false,
      "t": 74594.08034999996,
      "d": 170.58814999999595,
      "v": 86
    },
    {
      "midi": 58,
      "hit": false,
      "t": 74594.08034999997,
      "d": 170.58814999999595,
      "v": 86
    },
    {
      "midi": 91,
      "hit": false,
      "t": 74647.02149999984,
      "d": 176.4704999999958,
      "v": 91
    },
    {
      "midi": 79,
      "hit": false,
      "t": 74647.02149999999,
      "d": 176.4704999999958,
      "v": 91
    },
    {
      "midi": 58,
      "hit": false,
      "t": 74647.02150000002,
      "d": 176.4704999999958,
      "v": 75
    },
    {
      "midi": 58,
      "hit": false,
      "t": 74647.02150000002,
      "d": 176.4704999999958,
      "v": 75
    },
    {
      "midi": 58,
      "hit": false,
      "t": 74647.02150000002,
      "d": 176.4704999999958,
      "v": 75
    },
    {
      "midi": 56,
      "hit": false,
      "t": 74705.84499999991,
      "d": 1305.881699999998,
      "v": 102
    },
    {
      "midi": 56,
      "hit": false,
      "t": 74705.84499999991,
      "d": 1305.881699999998,
      "v": 102
    },
    {
      "midi": 68,
      "hit": false,
      "t": 74776.43319999996,
      "d": 1005.8818500000052,
      "v": 60
    },
    {
      "midi": 56,
      "hit": false,
      "t": 74776.43319999997,
      "d": 1005.8818500000052,
      "v": 60
    },
    {
      "midi": 43,
      "hit": false,
      "t": 74794.08024999993,
      "d": 41.17644999999902,
      "v": 114
    },
    {
      "midi": 55,
      "hit": false,
      "t": 74794.08024999996,
      "d": 41.17644999999902,
      "v": 114
    },
    {
      "midi": 40,
      "hit": false,
      "t": 74823.49199999977,
      "d": 111.76464999999735,
      "v": 120
    },
    {
      "midi": 92,
      "hit": false,
      "t": 74823.49199999984,
      "d": 882.3524999999936,
      "v": 100
    },
    {
      "midi": 80,
      "hit": false,
      "t": 74823.49199999998,
      "d": 882.3524999999936,
      "v": 100
    },
    {
      "midi": 56,
      "hit": false,
      "t": 74823.49200000001,
      "d": 705.8819999999978,
      "v": 88
    },
    {
      "midi": 56,
      "hit": false,
      "t": 74823.49200000001,
      "d": 705.8819999999978,
      "v": 88
    },
    {
      "midi": 56,
      "hit": false,
      "t": 74823.49200000001,
      "d": 705.8819999999978,
      "v": 88
    },
    {
      "midi": 43,
      "hit": false,
      "t": 74835.25669999993,
      "d": 76.47054999999818,
      "v": 117
    },
    {
      "midi": 55,
      "hit": false,
      "t": 74835.25669999995,
      "d": 76.47054999999818,
      "v": 117
    },
    {
      "midi": 54,
      "hit": false,
      "t": 75488.19754999991,
      "d": 94.11759999999776,
      "v": 127
    },
    {
      "midi": 43,
      "hit": false,
      "t": 75864.66794999993,
      "d": 29.4117499999993,
      "v": 108
    },
    {
      "midi": 55,
      "hit": false,
      "t": 75864.66794999996,
      "d": 29.4117499999993,
      "v": 108
    },
    {
      "midi": 40,
      "hit": false,
      "t": 76235.25599999976,
      "d": 111.76464999999735,
      "v": 127
    },
    {
      "midi": 68,
      "hit": false,
      "t": 76235.25599999983,
      "d": 352.94100000000617,
      "v": 80
    },
    {
      "midi": 51,
      "hit": false,
      "t": 76235.2559999999,
      "d": 1341.1757999999973,
      "v": 127
    },
    {
      "midi": 51,
      "hit": false,
      "t": 76235.2559999999,
      "d": 1341.1757999999973,
      "v": 127
    },
    {
      "midi": 43,
      "hit": false,
      "t": 76235.25599999994,
      "d": 117.6469999999972,
      "v": 114
    },
    {
      "midi": 55,
      "hit": false,
      "t": 76235.25599999996,
      "d": 117.6469999999972,
      "v": 114
    },
    {
      "midi": 56,
      "hit": false,
      "t": 76235.256,
      "d": 2229.4106500000053,
      "v": 123
    },
    {
      "midi": 56,
      "hit": false,
      "t": 76235.25600000001,
      "d": 352.94100000000617,
      "v": 80
    },
    {
      "midi": 56,
      "hit": false,
      "t": 76235.25600000001,
      "d": 352.94100000000617,
      "v": 80
    },
    {
      "midi": 40,
      "hit": false,
      "t": 76588.19699999975,
      "d": 111.76464999999735,
      "v": 122
    },
    {
      "midi": 75,
      "hit": false,
      "t": 76588.19699999984,
      "d": 352.94100000000617,
      "v": 78
    },
    {
      "midi": 63,
      "hit": false,
      "t": 76588.19700000001,
      "d": 352.94100000000617,
      "v": 78
    },
    {
      "midi": 63,
      "hit": false,
      "t": 76588.19700000001,
      "d": 352.94100000000617,
      "v": 78
    },
    {
      "midi": 54,
      "hit": false,
      "t": 76935.2556499999,
      "d": 94.11759999999776,
      "v": 127
    },
    {
      "midi": 80,
      "hit": false,
      "t": 76941.13799999985,
      "d": 352.94100000000617,
      "v": 75
    },
    {
      "midi": 68,
      "hit": false,
      "t": 76941.13800000002,
      "d": 352.94100000000617,
      "v": 75
    },
    {
      "midi": 68,
      "hit": false,
      "t": 76941.13800000002,
      "d": 352.94100000000617,
      "v": 75
    },
    {
      "midi": 40,
      "hit": false,
      "t": 77294.07899999975,
      "d": 111.76464999999735,
      "v": 94
    },
    {
      "midi": 75,
      "hit": false,
      "t": 77294.07899999985,
      "d": 352.94100000000617,
      "v": 73
    },
    {
      "midi": 63,
      "hit": false,
      "t": 77294.07900000003,
      "d": 352.94100000000617,
      "v": 73
    },
    {
      "midi": 63,
      "hit": false,
      "t": 77294.07900000003,
      "d": 352.94100000000617,
      "v": 73
    },
    {
      "midi": 40,
      "hit": false,
      "t": 77411.72599999975,
      "d": 111.76464999999735,
      "v": 86
    },
    {
      "midi": 40,
      "hit": false,
      "t": 77529.37299999974,
      "d": 111.76464999999735,
      "v": 80
    },
    {
      "midi": 50,
      "hit": false,
      "t": 77582.3141499999,
      "d": 1382.3522499999963,
      "v": 119
    },
    {
      "midi": 50,
      "hit": false,
      "t": 77582.3141499999,
      "d": 1382.3522499999963,
      "v": 119
    },
    {
      "midi": 40,
      "hit": false,
      "t": 77647.01999999974,
      "d": 111.76464999999735,
      "v": 120
    },
    {
      "midi": 76,
      "hit": false,
      "t": 77647.01999999986,
      "d": 1411.7639999999956,
      "v": 104
    },
    {
      "midi": 64,
      "hit": false,
      "t": 77647.02000000003,
      "d": 1411.7639999999956,
      "v": 104
    },
    {
      "midi": 64,
      "hit": false,
      "t": 77647.02000000003,
      "d": 1411.7639999999956,
      "v": 104
    },
    {
      "midi": 54,
      "hit": false,
      "t": 78341.1372999999,
      "d": 94.11759999999776,
      "v": 127
    },
    {
      "midi": 43,
      "hit": false,
      "t": 78682.31359999994,
      "d": 52.94114999999874,
      "v": 117
    },
    {
      "midi": 55,
      "hit": false,
      "t": 78682.31359999996,
      "d": 52.94114999999874,
      "v": 117
    },
    {
      "midi": 41,
      "hit": false,
      "t": 78688.19594999994,
      "d": 35.29409999999916,
      "v": 84
    },
    {
      "midi": 53,
      "hit": false,
      "t": 78688.19594999996,
      "d": 35.29409999999916,
      "v": 84
    },
    {
      "midi": 40,
      "hit": false,
      "t": 78705.84299999975,
      "d": 111.76464999999735,
      "v": 94
    },
    {
      "midi": 40,
      "hit": false,
      "t": 78823.48999999974,
      "d": 111.76464999999735,
      "v": 70
    },
    {
      "midi": 40,
      "hit": false,
      "t": 78941.13699999974,
      "d": 111.76464999999735,
      "v": 98
    },
    {
      "midi": 51,
      "hit": false,
      "t": 78970.5487499999,
      "d": 2711.763349999994,
      "v": 100
    },
    {
      "midi": 51,
      "hit": false,
      "t": 78970.5487499999,
      "d": 2711.763349999994,
      "v": 100
    },
    {
      "midi": 43,
      "hit": false,
      "t": 79023.48989999993,
      "d": 99.99994999999763,
      "v": 127
    },
    {
      "midi": 55,
      "hit": false,
      "t": 79023.48989999996,
      "d": 99.99994999999763,
      "v": 127
    },
    {
      "midi": 56,
      "hit": false,
      "t": 79023.4899,
      "d": 2499.998749999999,
      "v": 127
    },
    {
      "midi": 40,
      "hit": false,
      "t": 79058.78399999974,
      "d": 111.76464999999735,
      "v": 127
    },
    {
      "midi": 68,
      "hit": false,
      "t": 79058.78399999985,
      "d": 352.94100000000617,
      "v": 94
    },
    {
      "midi": 56,
      "hit": false,
      "t": 79058.78400000003,
      "d": 352.94100000000617,
      "v": 94
    },
    {
      "midi": 56,
      "hit": false,
      "t": 79058.78400000003,
      "d": 352.94100000000617,
      "v": 94
    },
    {
      "midi": 40,
      "hit": false,
      "t": 79411.72499999973,
      "d": 111.76464999999735,
      "v": 92
    },
    {
      "midi": 75,
      "hit": false,
      "t": 79411.72499999986,
      "d": 352.94100000000617,
      "v": 71
    },
    {
      "midi": 63,
      "hit": false,
      "t": 79411.72500000003,
      "d": 352.94100000000617,
      "v": 71
    },
    {
      "midi": 63,
      "hit": false,
      "t": 79411.72500000003,
      "d": 352.94100000000617,
      "v": 71
    },
    {
      "midi": 54,
      "hit": false,
      "t": 79741.1365999999,
      "d": 88.2352499999979,
      "v": 127
    },
    {
      "midi": 80,
      "hit": false,
      "t": 79764.66599999987,
      "d": 352.94100000000617,
      "v": 81
    },
    {
      "midi": 68,
      "hit": false,
      "t": 79764.66600000004,
      "d": 352.94100000000617,
      "v": 81
    },
    {
      "midi": 68,
      "hit": false,
      "t": 79764.66600000004,
      "d": 352.94100000000617,
      "v": 81
    },
    {
      "midi": 40,
      "hit": false,
      "t": 80117.60699999973,
      "d": 111.76464999999735,
      "v": 83
    },
    {
      "midi": 83,
      "hit": false,
      "t": 80117.60699999987,
      "d": 382.35275000000547,
      "v": 100
    },
    {
      "midi": 71,
      "hit": false,
      "t": 80117.60700000005,
      "d": 382.35275000000547,
      "v": 100
    },
    {
      "midi": 71,
      "hit": false,
      "t": 80117.60700000005,
      "d": 382.35275000000547,
      "v": 100
    },
    {
      "midi": 52,
      "hit": false,
      "t": 80458.7832999999,
      "d": 52.94114999999874,
      "v": 72
    },
    {
      "midi": 52,
      "hit": false,
      "t": 80458.7832999999,
      "d": 52.94114999999874,
      "v": 72
    },
    {
      "midi": 40,
      "hit": false,
      "t": 80470.54799999972,
      "d": 111.76464999999735,
      "v": 120
    },
    {
      "midi": 87,
      "hit": false,
      "t": 80470.54799999988,
      "d": 1411.7639999999956,
      "v": 94
    },
    {
      "midi": 75,
      "hit": false,
      "t": 80470.54800000005,
      "d": 1411.7639999999956,
      "v": 94
    },
    {
      "midi": 75,
      "hit": false,
      "t": 80470.54800000005,
      "d": 1411.7639999999956,
      "v": 94
    },
    {
      "midi": 40,
      "hit": false,
      "t": 81176.42999999972,
      "d": 111.76464999999735,
      "v": 98
    },
    {
      "midi": 54,
      "hit": false,
      "t": 81199.95939999989,
      "d": 76.47054999999818,
      "v": 127
    },
    {
      "midi": 40,
      "hit": false,
      "t": 81294.07699999971,
      "d": 111.76464999999735,
      "v": 80
    },
    {
      "midi": 40,
      "hit": false,
      "t": 81411.72399999971,
      "d": 111.76464999999735,
      "v": 91
    },
    {
      "midi": 43,
      "hit": false,
      "t": 81470.54749999993,
      "d": 52.94114999999874,
      "v": 100
    },
    {
      "midi": 55,
      "hit": false,
      "t": 81470.54749999996,
      "d": 52.94114999999874,
      "v": 100
    },
    {
      "midi": 31,
      "hit": false,
      "t": 81505.84159999993,
      "d": 47.05879999999888,
      "v": 104
    },
    {
      "midi": 43,
      "hit": false,
      "t": 81505.84159999996,
      "d": 47.05879999999888,
      "v": 104
    },
    {
      "midi": 40,
      "hit": false,
      "t": 81529.37099999971,
      "d": 111.76464999999735,
      "v": 92
    },
    {
      "midi": 40,
      "hit": false,
      "t": 81647.0179999997,
      "d": 111.76464999999735,
      "v": 102
    },
    {
      "midi": 40,
      "hit": false,
      "t": 81764.6649999997,
      "d": 111.76464999999735,
      "v": 98
    },
    {
      "midi": 56,
      "hit": false,
      "t": 81799.9591,
      "d": 2447.0576,
      "v": 119
    },
    {
      "midi": 51,
      "hit": false,
      "t": 81817.60614999989,
      "d": 1482.352199999994,
      "v": 112
    },
    {
      "midi": 51,
      "hit": false,
      "t": 81817.60614999989,
      "d": 1482.352199999994,
      "v": 112
    },
    {
      "midi": 43,
      "hit": false,
      "t": 81817.60614999992,
      "d": 99.99994999999763,
      "v": 127
    },
    {
      "midi": 55,
      "hit": false,
      "t": 81817.60614999995,
      "d": 99.99994999999763,
      "v": 127
    },
    {
      "midi": 40,
      "hit": false,
      "t": 81882.3119999997,
      "d": 111.76464999999735,
      "v": 122
    },
    {
      "midi": 68,
      "hit": false,
      "t": 81882.31199999987,
      "d": 352.94100000000617,
      "v": 88
    },
    {
      "midi": 56,
      "hit": false,
      "t": 81882.31200000005,
      "d": 352.94100000000617,
      "v": 88
    },
    {
      "midi": 56,
      "hit": false,
      "t": 81882.31200000005,
      "d": 352.94100000000617,
      "v": 88
    },
    {
      "midi": 40,
      "hit": false,
      "t": 82235.25299999969,
      "d": 111.76464999999735,
      "v": 117
    },
    {
      "midi": 75,
      "hit": false,
      "t": 82235.25299999988,
      "d": 352.94100000000617,
      "v": 78
    },
    {
      "midi": 63,
      "hit": false,
      "t": 82235.25300000006,
      "d": 352.94100000000617,
      "v": 78
    },
    {
      "midi": 63,
      "hit": false,
      "t": 82235.25300000006,
      "d": 352.94100000000617,
      "v": 78
    },
    {
      "midi": 80,
      "hit": false,
      "t": 82588.19399999989,
      "d": 352.94100000000617,
      "v": 97
    },
    {
      "midi": 68,
      "hit": false,
      "t": 82588.19400000006,
      "d": 352.94100000000617,
      "v": 97
    },
    {
      "midi": 68,
      "hit": false,
      "t": 82588.19400000006,
      "d": 352.94100000000617,
      "v": 97
    },
    {
      "midi": 54,
      "hit": false,
      "t": 82599.95869999989,
      "d": 76.47054999999818,
      "v": 127
    },
    {
      "midi": 40,
      "hit": false,
      "t": 82941.13499999969,
      "d": 111.76464999999735,
      "v": 80
    },
    {
      "midi": 75,
      "hit": false,
      "t": 82941.1349999999,
      "d": 352.94100000000617,
      "v": 81
    },
    {
      "midi": 63,
      "hit": false,
      "t": 82941.13500000007,
      "d": 352.94100000000617,
      "v": 81
    },
    {
      "midi": 63,
      "hit": false,
      "t": 82941.13500000007,
      "d": 352.94100000000617,
      "v": 81
    },
    {
      "midi": 56,
      "hit": false,
      "t": 83235.25249999989,
      "d": 1411.7639999999956,
      "v": 112
    },
    {
      "midi": 56,
      "hit": false,
      "t": 83235.25249999989,
      "d": 1411.7639999999956,
      "v": 112
    },
    {
      "midi": 40,
      "hit": false,
      "t": 83294.07599999968,
      "d": 111.76464999999735,
      "v": 117
    },
    {
      "midi": 76,
      "hit": false,
      "t": 83294.0759999999,
      "d": 1411.7639999999956,
      "v": 116
    },
    {
      "midi": 64,
      "hit": false,
      "t": 83294.07600000007,
      "d": 1411.7639999999956,
      "v": 116
    },
    {
      "midi": 64,
      "hit": false,
      "t": 83294.07600000007,
      "d": 1411.7639999999956,
      "v": 116
    },
    {
      "midi": 54,
      "hit": false,
      "t": 83952.89919999988,
      "d": 82.35289999999804,
      "v": 127
    },
    {
      "midi": 43,
      "hit": false,
      "t": 84341.13429999992,
      "d": 29.4117499999993,
      "v": 102
    },
    {
      "midi": 55,
      "hit": false,
      "t": 84341.13429999995,
      "d": 29.4117499999993,
      "v": 102
    },
    {
      "midi": 58,
      "hit": false,
      "t": 84617.60474999988,
      "d": 741.176099999997,
      "v": 100
    },
    {
      "midi": 58,
      "hit": false,
      "t": 84617.60474999988,
      "d": 741.176099999997,
      "v": 100
    },
    {
      "midi": 56,
      "hit": false,
      "t": 84641.13415,
      "d": 1941.1754999999976,
      "v": 127
    },
    {
      "midi": 43,
      "hit": false,
      "t": 84682.31059999991,
      "d": 99.99994999999763,
      "v": 125
    },
    {
      "midi": 55,
      "hit": false,
      "t": 84682.31059999994,
      "d": 99.99994999999763,
      "v": 125
    },
    {
      "midi": 40,
      "hit": false,
      "t": 84705.83999999968,
      "d": 111.76464999999735,
      "v": 114
    },
    {
      "midi": 75,
      "hit": false,
      "t": 84705.8399999999,
      "d": 352.94100000000617,
      "v": 64
    },
    {
      "midi": 63,
      "hit": false,
      "t": 84705.84000000007,
      "d": 352.94100000000617,
      "v": 64
    },
    {
      "midi": 63,
      "hit": false,
      "t": 84705.84000000007,
      "d": 352.94100000000617,
      "v": 64
    },
    {
      "midi": 40,
      "hit": false,
      "t": 85058.78099999967,
      "d": 111.76464999999735,
      "v": 114
    },
    {
      "midi": 76,
      "hit": false,
      "t": 85058.7809999999,
      "d": 352.94100000000617,
      "v": 84
    },
    {
      "midi": 64,
      "hit": false,
      "t": 85058.78100000008,
      "d": 352.94100000000617,
      "v": 84
    },
    {
      "midi": 64,
      "hit": false,
      "t": 85058.78100000008,
      "d": 352.94100000000617,
      "v": 84
    },
    {
      "midi": 59,
      "hit": false,
      "t": 85329.36909999988,
      "d": 658.8231999999989,
      "v": 80
    },
    {
      "midi": 59,
      "hit": false,
      "t": 85329.36909999988,
      "d": 658.8231999999989,
      "v": 80
    },
    {
      "midi": 54,
      "hit": false,
      "t": 85399.95729999988,
      "d": 64.70584999999846,
      "v": 127
    },
    {
      "midi": 75,
      "hit": false,
      "t": 85411.7219999999,
      "d": 176.4704999999958,
      "v": 72
    },
    {
      "midi": 63,
      "hit": false,
      "t": 85411.72200000008,
      "d": 176.4704999999958,
      "v": 72
    },
    {
      "midi": 63,
      "hit": false,
      "t": 85411.72200000008,
      "d": 176.4704999999958,
      "v": 72
    },
    {
      "midi": 73,
      "hit": false,
      "t": 85588.1924999999,
      "d": 176.4704999999958,
      "v": 75
    },
    {
      "midi": 61,
      "hit": false,
      "t": 85588.19250000008,
      "d": 176.4704999999958,
      "v": 75
    },
    {
      "midi": 61,
      "hit": false,
      "t": 85588.19250000008,
      "d": 176.4704999999958,
      "v": 75
    },
    {
      "midi": 71,
      "hit": false,
      "t": 85764.6629999999,
      "d": 176.4704999999958,
      "v": 68
    },
    {
      "midi": 59,
      "hit": false,
      "t": 85764.66300000007,
      "d": 176.4704999999958,
      "v": 68
    },
    {
      "midi": 59,
      "hit": false,
      "t": 85764.66300000007,
      "d": 176.4704999999958,
      "v": 68
    },
    {
      "midi": 70,
      "hit": false,
      "t": 85941.1334999999,
      "d": 176.4704999999958,
      "v": 75
    },
    {
      "midi": 58,
      "hit": false,
      "t": 85941.13350000007,
      "d": 176.4704999999958,
      "v": 75
    },
    {
      "midi": 58,
      "hit": false,
      "t": 85941.13350000007,
      "d": 176.4704999999958,
      "v": 75
    },
    {
      "midi": 56,
      "hit": false,
      "t": 85999.95699999988,
      "d": 1305.881699999998,
      "v": 102
    },
    {
      "midi": 56,
      "hit": false,
      "t": 85999.95699999988,
      "d": 1305.881699999998,
      "v": 102
    },
    {
      "midi": 43,
      "hit": false,
      "t": 86088.1922499999,
      "d": 41.17644999999902,
      "v": 114
    },
    {
      "midi": 55,
      "hit": false,
      "t": 86088.19224999993,
      "d": 41.17644999999902,
      "v": 114
    },
    {
      "midi": 40,
      "hit": false,
      "t": 86117.60399999967,
      "d": 111.76464999999735,
      "v": 120
    },
    {
      "midi": 68,
      "hit": false,
      "t": 86117.60399999989,
      "d": 705.8819999999978,
      "v": 88
    },
    {
      "midi": 56,
      "hit": false,
      "t": 86117.60400000006,
      "d": 705.8819999999978,
      "v": 88
    },
    {
      "midi": 56,
      "hit": false,
      "t": 86117.60400000006,
      "d": 705.8819999999978,
      "v": 88
    },
    {
      "midi": 43,
      "hit": false,
      "t": 86129.3686999999,
      "d": 76.47054999999818,
      "v": 117
    },
    {
      "midi": 55,
      "hit": false,
      "t": 86129.36869999993,
      "d": 76.47054999999818,
      "v": 117
    },
    {
      "midi": 54,
      "hit": false,
      "t": 86782.30954999987,
      "d": 76.47054999999818,
      "v": 127
    },
    {
      "midi": 43,
      "hit": false,
      "t": 87158.77994999991,
      "d": 29.4117499999993,
      "v": 108
    },
    {
      "midi": 55,
      "hit": false,
      "t": 87158.77994999994,
      "d": 29.4117499999993,
      "v": 108
    },
    {
      "midi": 62,
      "hit": false,
      "t": 87494.07389999999,
      "d": 1176.4700000000012,
      "v": 122
    },
    {
      "midi": 40,
      "hit": false,
      "t": 87529.36799999967,
      "d": 111.76464999999735,
      "v": 127
    },
    {
      "midi": 45,
      "hit": false,
      "t": 87529.36799999987,
      "d": 1341.1757999999973,
      "v": 127
    },
    {
      "midi": 45,
      "hit": false,
      "t": 87529.36799999987,
      "d": 1341.1757999999973,
      "v": 127
    },
    {
      "midi": 77,
      "hit": false,
      "t": 87529.36799999989,
      "d": 352.94100000000617,
      "v": 97
    },
    {
      "midi": 43,
      "hit": false,
      "t": 87529.36799999991,
      "d": 117.6469999999972,
      "v": 114
    },
    {
      "midi": 55,
      "hit": false,
      "t": 87529.36799999994,
      "d": 117.6469999999972,
      "v": 114
    },
    {
      "midi": 65,
      "hit": false,
      "t": 87529.36799999997,
      "d": 352.94100000000617,
      "v": 97
    },
    {
      "midi": 50,
      "hit": false,
      "t": 87529.36800000006,
      "d": 352.94100000000617,
      "v": 80
    },
    {
      "midi": 50,
      "hit": false,
      "t": 87529.36800000006,
      "d": 352.94100000000617,
      "v": 80
    },
    {
      "midi": 62,
      "hit": false,
      "t": 87564.66209999996,
      "d": 341.17630000000645,
      "v": 84
    },
    {
      "midi": 50,
      "hit": false,
      "t": 87564.66209999997,
      "d": 341.17630000000645,
      "v": 84
    },
    {
      "midi": 40,
      "hit": false,
      "t": 87882.30899999966,
      "d": 111.76464999999735,
      "v": 122
    },
    {
      "midi": 86,
      "hit": false,
      "t": 87882.30899999989,
      "d": 352.94100000000617,
      "v": 87
    },
    {
      "midi": 74,
      "hit": false,
      "t": 87882.30899999998,
      "d": 352.94100000000617,
      "v": 87
    },
    {
      "midi": 57,
      "hit": false,
      "t": 87882.30900000007,
      "d": 352.94100000000617,
      "v": 78
    },
    {
      "midi": 57,
      "hit": false,
      "t": 87882.30900000007,
      "d": 352.94100000000617,
      "v": 78
    },
    {
      "midi": 69,
      "hit": false,
      "t": 87911.72074999996,
      "d": 323.52925000000687,
      "v": 80
    },
    {
      "midi": 57,
      "hit": false,
      "t": 87911.72074999998,
      "d": 323.52925000000687,
      "v": 80
    },
    {
      "midi": 74,
      "hit": false,
      "t": 88223.48529999997,
      "d": 352.94100000000617,
      "v": 83
    },
    {
      "midi": 62,
      "hit": false,
      "t": 88223.48529999999,
      "d": 352.94100000000617,
      "v": 83
    },
    {
      "midi": 54,
      "hit": false,
      "t": 88229.36764999987,
      "d": 76.47054999999818,
      "v": 127
    },
    {
      "midi": 89,
      "hit": false,
      "t": 88235.2499999999,
      "d": 176.4704999999958,
      "v": 78
    },
    {
      "midi": 77,
      "hit": false,
      "t": 88235.24999999999,
      "d": 176.4704999999958,
      "v": 78
    },
    {
      "midi": 62,
      "hit": false,
      "t": 88235.25000000007,
      "d": 352.94100000000617,
      "v": 75
    },
    {
      "midi": 62,
      "hit": false,
      "t": 88235.25000000007,
      "d": 352.94100000000617,
      "v": 75
    },
    {
      "midi": 88,
      "hit": false,
      "t": 88411.7204999999,
      "d": 176.4704999999958,
      "v": 68
    },
    {
      "midi": 76,
      "hit": false,
      "t": 88411.72049999998,
      "d": 176.4704999999958,
      "v": 68
    },
    {
      "midi": 69,
      "hit": false,
      "t": 88576.42629999998,
      "d": 335.2939500000066,
      "v": 79
    },
    {
      "midi": 57,
      "hit": false,
      "t": 88576.42629999999,
      "d": 335.2939500000066,
      "v": 79
    },
    {
      "midi": 40,
      "hit": false,
      "t": 88588.19099999966,
      "d": 111.76464999999735,
      "v": 94
    },
    {
      "midi": 86,
      "hit": false,
      "t": 88588.19099999989,
      "d": 176.4704999999958,
      "v": 81
    },
    {
      "midi": 74,
      "hit": false,
      "t": 88588.19099999998,
      "d": 176.4704999999958,
      "v": 81
    },
    {
      "midi": 57,
      "hit": false,
      "t": 88588.19100000008,
      "d": 352.94100000000617,
      "v": 73
    },
    {
      "midi": 57,
      "hit": false,
      "t": 88588.19100000008,
      "d": 352.94100000000617,
      "v": 73
    },
    {
      "midi": 40,
      "hit": false,
      "t": 88705.83799999965,
      "d": 111.76464999999735,
      "v": 86
    },
    {
      "midi": 40,
      "hit": false,
      "t": 88823.48499999965,
      "d": 111.76464999999735,
      "v": 80
    },
    {
      "midi": 44,
      "hit": false,
      "t": 88876.42614999987,
      "d": 1382.3522499999963,
      "v": 119
    },
    {
      "midi": 44,
      "hit": false,
      "t": 88876.42614999987,
      "d": 1382.3522499999963,
      "v": 119
    },
    {
      "midi": 68,
      "hit": false,
      "t": 88905.83789999998,
      "d": 1382.3522499999963,
      "v": 85
    },
    {
      "midi": 56,
      "hit": false,
      "t": 88905.8379,
      "d": 1382.3522499999963,
      "v": 85
    },
    {
      "midi": 65,
      "hit": false,
      "t": 88917.60259999998,
      "d": 1047.0583000000042,
      "v": 127
    },
    {
      "midi": 40,
      "hit": false,
      "t": 88941.13199999965,
      "d": 111.76464999999735,
      "v": 120
    },
    {
      "midi": 86,
      "hit": false,
      "t": 88941.13199999988,
      "d": 1411.7639999999956,
      "v": 70
    },
    {
      "midi": 74,
      "hit": false,
      "t": 88941.13199999997,
      "d": 1411.7639999999956,
      "v": 70
    },
    {
      "midi": 58,
      "hit": false,
      "t": 88941.13200000009,
      "d": 1411.7639999999956,
      "v": 104
    },
    {
      "midi": 58,
      "hit": false,
      "t": 88941.13200000009,
      "d": 1411.7639999999956,
      "v": 104
    },
    {
      "midi": 54,
      "hit": false,
      "t": 89635.24929999986,
      "d": 82.35289999999804,
      "v": 127
    },
    {
      "midi": 43,
      "hit": false,
      "t": 89976.42559999991,
      "d": 52.94114999999874,
      "v": 117
    },
    {
      "midi": 55,
      "hit": false,
      "t": 89976.42559999994,
      "d": 52.94114999999874,
      "v": 117
    },
    {
      "midi": 40,
      "hit": false,
      "t": 89999.95499999965,
      "d": 111.76464999999735,
      "v": 94
    },
    {
      "midi": 40,
      "hit": false,
      "t": 90117.60199999965,
      "d": 111.76464999999735,
      "v": 70
    },
    {
      "midi": 40,
      "hit": false,
      "t": 90235.24899999965,
      "d": 111.76464999999735,
      "v": 98
    },
    {
      "midi": 45,
      "hit": false,
      "t": 90264.66074999986,
      "d": 2711.763349999994,
      "v": 100
    },
    {
      "midi": 45,
      "hit": false,
      "t": 90264.66074999986,
      "d": 2711.763349999994,
      "v": 100
    },
    {
      "midi": 62,
      "hit": false,
      "t": 90282.30779999998,
      "d": 158.82344999999623,
      "v": 87
    },
    {
      "midi": 50,
      "hit": false,
      "t": 90282.3078,
      "d": 158.82344999999623,
      "v": 87
    },
    {
      "midi": 43,
      "hit": false,
      "t": 90317.6018999999,
      "d": 99.99994999999763,
      "v": 127
    },
    {
      "midi": 55,
      "hit": false,
      "t": 90317.60189999994,
      "d": 99.99994999999763,
      "v": 127
    },
    {
      "midi": 62,
      "hit": false,
      "t": 90335.24895,
      "d": 976.4701000000059,
      "v": 127
    },
    {
      "midi": 40,
      "hit": false,
      "t": 90352.89599999964,
      "d": 111.76464999999735,
      "v": 127
    },
    {
      "midi": 77,
      "hit": false,
      "t": 90352.89599999988,
      "d": 176.4704999999958,
      "v": 81
    },
    {
      "midi": 65,
      "hit": false,
      "t": 90352.89599999996,
      "d": 176.4704999999958,
      "v": 81
    },
    {
      "midi": 50,
      "hit": false,
      "t": 90352.89600000008,
      "d": 352.94100000000617,
      "v": 94
    },
    {
      "midi": 50,
      "hit": false,
      "t": 90352.89600000008,
      "d": 352.94100000000617,
      "v": 94
    },
    {
      "midi": 65,
      "hit": false,
      "t": 90458.77829999998,
      "d": 223.5292999999947,
      "v": 44
    },
    {
      "midi": 53,
      "hit": false,
      "t": 90458.77829999999,
      "d": 223.5292999999947,
      "v": 44
    },
    {
      "midi": 81,
      "hit": false,
      "t": 90529.36649999987,
      "d": 176.4704999999958,
      "v": 67
    },
    {
      "midi": 69,
      "hit": false,
      "t": 90529.36649999996,
      "d": 176.4704999999958,
      "v": 67
    },
    {
      "midi": 69,
      "hit": false,
      "t": 90641.13114999997,
      "d": 394.1174500000052,
      "v": 79
    },
    {
      "midi": 57,
      "hit": false,
      "t": 90641.13114999999,
      "d": 394.1174500000052,
      "v": 79
    },
    {
      "midi": 40,
      "hit": false,
      "t": 90705.83699999964,
      "d": 111.76464999999735,
      "v": 92
    },
    {
      "midi": 86,
      "hit": false,
      "t": 90705.83699999987,
      "d": 176.4704999999958,
      "v": 81
    },
    {
      "midi": 74,
      "hit": false,
      "t": 90705.83699999996,
      "d": 176.4704999999958,
      "v": 81
    },
    {
      "midi": 57,
      "hit": false,
      "t": 90705.83700000009,
      "d": 352.94100000000617,
      "v": 71
    },
    {
      "midi": 57,
      "hit": false,
      "t": 90705.83700000009,
      "d": 352.94100000000617,
      "v": 71
    },
    {
      "midi": 88,
      "hit": false,
      "t": 90882.30749999986,
      "d": 176.4704999999958,
      "v": 68
    },
    {
      "midi": 76,
      "hit": false,
      "t": 90882.30749999995,
      "d": 176.4704999999958,
      "v": 68
    },
    {
      "midi": 74,
      "hit": false,
      "t": 91005.83684999998,
      "d": 347.0586500000063,
      "v": 90
    },
    {
      "midi": 62,
      "hit": false,
      "t": 91005.83684999999,
      "d": 347.0586500000063,
      "v": 90
    },
    {
      "midi": 89,
      "hit": false,
      "t": 91058.77799999986,
      "d": 176.4704999999958,
      "v": 90
    },
    {
      "midi": 77,
      "hit": false,
      "t": 91058.77799999995,
      "d": 176.4704999999958,
      "v": 90
    },
    {
      "midi": 62,
      "hit": false,
      "t": 91058.7780000001,
      "d": 352.94100000000617,
      "v": 81
    },
    {
      "midi": 62,
      "hit": false,
      "t": 91058.7780000001,
      "d": 352.94100000000617,
      "v": 81
    },
    {
      "midi": 54,
      "hit": false,
      "t": 91076.42504999986,
      "d": 88.2352499999979,
      "v": 127
    },
    {
      "midi": 88,
      "hit": false,
      "t": 91235.24849999986,
      "d": 176.4704999999958,
      "v": 91
    },
    {
      "midi": 76,
      "hit": false,
      "t": 91235.24849999994,
      "d": 176.4704999999958,
      "v": 91
    },
    {
      "midi": 69,
      "hit": false,
      "t": 91352.89549999998,
      "d": 376.4704000000056,
      "v": 70
    },
    {
      "midi": 57,
      "hit": false,
      "t": 91352.8955,
      "d": 376.4704000000056,
      "v": 70
    },
    {
      "midi": 40,
      "hit": false,
      "t": 91411.71899999963,
      "d": 111.76464999999735,
      "v": 83
    },
    {
      "midi": 86,
      "hit": false,
      "t": 91411.71899999985,
      "d": 352.94100000000617,
      "v": 85
    },
    {
      "midi": 74,
      "hit": false,
      "t": 91411.71899999994,
      "d": 352.94100000000617,
      "v": 85
    },
    {
      "midi": 65,
      "hit": false,
      "t": 91411.7190000001,
      "d": 382.35275000000547,
      "v": 100
    },
    {
      "midi": 65,
      "hit": false,
      "t": 91411.7190000001,
      "d": 382.35275000000547,
      "v": 100
    },
    {
      "midi": 64,
      "hit": false,
      "t": 91717.6012,
      "d": 1105.8818000000028,
      "v": 125
    },
    {
      "midi": 73,
      "hit": false,
      "t": 91741.13059999999,
      "d": 1376.4698999999964,
      "v": 84
    },
    {
      "midi": 61,
      "hit": false,
      "t": 91741.1306,
      "d": 1376.4698999999964,
      "v": 84
    },
    {
      "midi": 46,
      "hit": false,
      "t": 91752.89529999986,
      "d": 52.94114999999874,
      "v": 72
    },
    {
      "midi": 46,
      "hit": false,
      "t": 91752.89529999986,
      "d": 52.94114999999874,
      "v": 72
    },
    {
      "midi": 40,
      "hit": false,
      "t": 91764.65999999963,
      "d": 111.76464999999735,
      "v": 120
    },
    {
      "midi": 88,
      "hit": false,
      "t": 91764.65999999986,
      "d": 1411.7639999999956,
      "v": 91
    },
    {
      "midi": 76,
      "hit": false,
      "t": 91764.65999999995,
      "d": 1411.7639999999956,
      "v": 91
    },
    {
      "midi": 69,
      "hit": false,
      "t": 91764.6600000001,
      "d": 1411.7639999999956,
      "v": 94
    },
    {
      "midi": 69,
      "hit": false,
      "t": 91764.6600000001,
      "d": 1411.7639999999956,
      "v": 94
    },
    {
      "midi": 54,
      "hit": false,
      "t": 92429.36554999986,
      "d": 94.11759999999776,
      "v": 127
    },
    {
      "midi": 40,
      "hit": false,
      "t": 92470.54199999962,
      "d": 111.76464999999735,
      "v": 98
    },
    {
      "midi": 40,
      "hit": false,
      "t": 92588.18899999962,
      "d": 111.76464999999735,
      "v": 80
    },
    {
      "midi": 40,
      "hit": false,
      "t": 92705.83599999962,
      "d": 111.76464999999735,
      "v": 91
    },
    {
      "midi": 43,
      "hit": false,
      "t": 92764.6594999999,
      "d": 52.94114999999874,
      "v": 100
    },
    {
      "midi": 55,
      "hit": false,
      "t": 92764.65949999994,
      "d": 52.94114999999874,
      "v": 100
    },
    {
      "midi": 40,
      "hit": false,
      "t": 92823.48299999961,
      "d": 111.76464999999735,
      "v": 92
    },
    {
      "midi": 40,
      "hit": false,
      "t": 92941.12999999961,
      "d": 111.76464999999735,
      "v": 102
    },
    {
      "midi": 40,
      "hit": false,
      "t": 93058.77699999961,
      "d": 111.76464999999735,
      "v": 98
    },
    {
      "midi": 45,
      "hit": false,
      "t": 93111.71814999986,
      "d": 1482.352199999994,
      "v": 112
    },
    {
      "midi": 45,
      "hit": false,
      "t": 93111.71814999986,
      "d": 1482.352199999994,
      "v": 112
    },
    {
      "midi": 43,
      "hit": false,
      "t": 93111.7181499999,
      "d": 99.99994999999763,
      "v": 127
    },
    {
      "midi": 55,
      "hit": false,
      "t": 93111.71814999993,
      "d": 99.99994999999763,
      "v": 127
    },
    {
      "midi": 62,
      "hit": false,
      "t": 93123.48284999999,
      "d": 358.82335000000603,
      "v": 77
    },
    {
      "midi": 50,
      "hit": false,
      "t": 93123.48285,
      "d": 358.82335000000603,
      "v": 77
    },
    {
      "midi": 62,
      "hit": false,
      "t": 93141.12990000001,
      "d": 835.2936999999947,
      "v": 125
    },
    {
      "midi": 40,
      "hit": false,
      "t": 93176.4239999996,
      "d": 111.76464999999735,
      "v": 122
    },
    {
      "midi": 77,
      "hit": false,
      "t": 93176.42399999985,
      "d": 352.94100000000617,
      "v": 80
    },
    {
      "midi": 65,
      "hit": false,
      "t": 93176.42399999994,
      "d": 352.94100000000617,
      "v": 80
    },
    {
      "midi": 50,
      "hit": false,
      "t": 93176.4240000001,
      "d": 352.94100000000617,
      "v": 88
    },
    {
      "midi": 50,
      "hit": false,
      "t": 93176.4240000001,
      "d": 352.94100000000617,
      "v": 88
    },
    {
      "midi": 69,
      "hit": false,
      "t": 93482.30619999999,
      "d": 341.17630000000645,
      "v": 70
    },
    {
      "midi": 57,
      "hit": false,
      "t": 93482.3062,
      "d": 341.17630000000645,
      "v": 70
    },
    {
      "midi": 40,
      "hit": false,
      "t": 93529.3649999996,
      "d": 111.76464999999735,
      "v": 117
    },
    {
      "midi": 86,
      "hit": false,
      "t": 93529.36499999986,
      "d": 352.94100000000617,
      "v": 81
    },
    {
      "midi": 74,
      "hit": false,
      "t": 93529.36499999995,
      "d": 352.94100000000617,
      "v": 81
    },
    {
      "midi": 57,
      "hit": false,
      "t": 93529.3650000001,
      "d": 352.94100000000617,
      "v": 78
    },
    {
      "midi": 57,
      "hit": false,
      "t": 93529.3650000001,
      "d": 352.94100000000617,
      "v": 78
    },
    {
      "midi": 74,
      "hit": false,
      "t": 93811.7178,
      "d": 399.99980000000505,
      "v": 55
    },
    {
      "midi": 62,
      "hit": false,
      "t": 93811.71780000001,
      "d": 399.99980000000505,
      "v": 55
    },
    {
      "midi": 54,
      "hit": false,
      "t": 93876.42364999985,
      "d": 76.47054999999818,
      "v": 127
    },
    {
      "midi": 89,
      "hit": false,
      "t": 93882.30599999987,
      "d": 176.4704999999958,
      "v": 78
    },
    {
      "midi": 77,
      "hit": false,
      "t": 93882.30599999995,
      "d": 176.4704999999958,
      "v": 78
    },
    {
      "midi": 62,
      "hit": false,
      "t": 93882.30600000011,
      "d": 352.94100000000617,
      "v": 97
    },
    {
      "midi": 62,
      "hit": false,
      "t": 93882.30600000011,
      "d": 352.94100000000617,
      "v": 97
    },
    {
      "midi": 88,
      "hit": false,
      "t": 94058.77649999986,
      "d": 176.4704999999958,
      "v": 70
    },
    {
      "midi": 76,
      "hit": false,
      "t": 94058.77649999995,
      "d": 176.4704999999958,
      "v": 70
    },
    {
      "midi": 69,
      "hit": false,
      "t": 94188.1882,
      "d": 382.35275000000547,
      "v": 58
    },
    {
      "midi": 57,
      "hit": false,
      "t": 94188.18820000002,
      "d": 382.35275000000547,
      "v": 58
    },
    {
      "midi": 40,
      "hit": false,
      "t": 94235.2469999996,
      "d": 111.76464999999735,
      "v": 80
    },
    {
      "midi": 86,
      "hit": false,
      "t": 94235.24699999986,
      "d": 176.4704999999958,
      "v": 86
    },
    {
      "midi": 74,
      "hit": false,
      "t": 94235.24699999994,
      "d": 176.4704999999958,
      "v": 86
    },
    {
      "midi": 57,
      "hit": false,
      "t": 94235.24700000012,
      "d": 352.94100000000617,
      "v": 81
    },
    {
      "midi": 57,
      "hit": false,
      "t": 94235.24700000012,
      "d": 352.94100000000617,
      "v": 81
    },
    {
      "midi": 50,
      "hit": false,
      "t": 94529.36449999985,
      "d": 1411.7639999999956,
      "v": 112
    },
    {
      "midi": 50,
      "hit": false,
      "t": 94529.36449999985,
      "d": 1411.7639999999956,
      "v": 112
    },
    {
      "midi": 67,
      "hit": false,
      "t": 94535.24685000001,
      "d": 852.9407499999943,
      "v": 127
    },
    {
      "midi": 70,
      "hit": false,
      "t": 94564.65860000001,
      "d": 1352.940499999997,
      "v": 83
    },
    {
      "midi": 58,
      "hit": false,
      "t": 94564.65860000002,
      "d": 1352.940499999997,
      "v": 83
    },
    {
      "midi": 40,
      "hit": false,
      "t": 94588.18799999959,
      "d": 111.76464999999735,
      "v": 117
    },
    {
      "midi": 86,
      "hit": false,
      "t": 94588.18799999985,
      "d": 1411.7639999999956,
      "v": 87
    },
    {
      "midi": 74,
      "hit": false,
      "t": 94588.18799999994,
      "d": 1411.7639999999956,
      "v": 87
    },
    {
      "midi": 58,
      "hit": false,
      "t": 94588.18800000013,
      "d": 1411.7639999999956,
      "v": 116
    },
    {
      "midi": 58,
      "hit": false,
      "t": 94588.18800000013,
      "d": 1411.7639999999956,
      "v": 116
    },
    {
      "midi": 54,
      "hit": false,
      "t": 95235.24649999985,
      "d": 88.2352499999979,
      "v": 127
    },
    {
      "midi": 43,
      "hit": false,
      "t": 95623.4815999999,
      "d": 52.94114999999874,
      "v": 84
    },
    {
      "midi": 55,
      "hit": false,
      "t": 95623.48159999993,
      "d": 52.94114999999874,
      "v": 84
    },
    {
      "midi": 52,
      "hit": false,
      "t": 95911.71674999985,
      "d": 741.176099999997,
      "v": 100
    },
    {
      "midi": 52,
      "hit": false,
      "t": 95911.71674999985,
      "d": 741.176099999997,
      "v": 100
    },
    {
      "midi": 69,
      "hit": false,
      "t": 95923.48145,
      "d": 194.1175499999954,
      "v": 68
    },
    {
      "midi": 65,
      "hit": false,
      "t": 95923.48145,
      "d": 617.6467499999999,
      "v": 120
    },
    {
      "midi": 57,
      "hit": false,
      "t": 95923.48145000002,
      "d": 194.1175499999954,
      "v": 68
    },
    {
      "midi": 43,
      "hit": false,
      "t": 95976.42259999989,
      "d": 99.99994999999763,
      "v": 125
    },
    {
      "midi": 55,
      "hit": false,
      "t": 95976.42259999992,
      "d": 99.99994999999763,
      "v": 125
    },
    {
      "midi": 40,
      "hit": false,
      "t": 95999.95199999958,
      "d": 0,
      "v": 114
    },
    {
      "midi": 40,
      "hit": false,
      "t": 95999.95199999958,
      "d": 0,
      "v": 106
    },
    {
      "midi": 40,
      "hit": false,
      "t": 95999.95199999958,
      "d": 0,
      "v": 65
    },
    {
      "midi": 40,
      "hit": false,
      "t": 95999.95199999958,
      "d": 111.76464999999735,
      "v": 80
    },
    {
      "midi": 89,
      "hit": false,
      "t": 95999.95199999984,
      "d": 176.4704999999958,
      "v": 84
    },
    {
      "midi": 62,
      "hit": false,
      "t": 95999.95199999984,
      "d": 176.4704999999958,
      "v": 112
    },
    {
      "midi": 50,
      "hit": false,
      "t": 95999.95199999984,
      "d": 176.4704999999958,
      "v": 112
    },
    {
      "midi": 77,
      "hit": false,
      "t": 95999.95199999993,
      "d": 176.4704999999958,
      "v": 84
    },
    {
      "midi": 57,
      "hit": false,
      "t": 95999.95200000012,
      "d": 352.94100000000617,
      "v": 64
    },
    {
      "midi": 57,
      "hit": false,
      "t": 95999.95200000012,
      "d": 352.94100000000617,
      "v": 64
    },
    {
      "midi": 70,
      "hit": false,
      "t": 96111.71665,
      "d": 164.7057999999961,
      "v": 61
    },
    {
      "midi": 58,
      "hit": false,
      "t": 96111.71665000002,
      "d": 164.7057999999961,
      "v": 61
    },
    {
      "midi": 88,
      "hit": false,
      "t": 96176.42249999984,
      "d": 176.4704999999958,
      "v": 94
    },
    {
      "midi": 76,
      "hit": false,
      "t": 96176.42249999993,
      "d": 176.4704999999958,
      "v": 94
    },
    {
      "midi": 69,
      "hit": false,
      "t": 96264.65775,
      "d": 199.99989999999525,
      "v": 68
    },
    {
      "midi": 57,
      "hit": false,
      "t": 96264.65775000001,
      "d": 199.99989999999525,
      "v": 68
    },
    {
      "midi": 40,
      "hit": false,
      "t": 96352.89299999957,
      "d": 111.76464999999735,
      "v": 125
    },
    {
      "midi": 89,
      "hit": false,
      "t": 96352.89299999984,
      "d": 176.4704999999958,
      "v": 102
    },
    {
      "midi": 77,
      "hit": false,
      "t": 96352.89299999992,
      "d": 176.4704999999958,
      "v": 102
    },
    {
      "midi": 58,
      "hit": false,
      "t": 96352.89300000013,
      "d": 352.94100000000617,
      "v": 84
    },
    {
      "midi": 58,
      "hit": false,
      "t": 96352.89300000013,
      "d": 352.94100000000617,
      "v": 84
    },
    {
      "midi": 67,
      "hit": false,
      "t": 96452.89295,
      "d": 194.1175499999954,
      "v": 73
    },
    {
      "midi": 55,
      "hit": false,
      "t": 96452.89295000001,
      "d": 194.1175499999954,
      "v": 73
    },
    {
      "midi": 86,
      "hit": false,
      "t": 96529.36349999983,
      "d": 176.4704999999958,
      "v": 91
    },
    {
      "midi": 74,
      "hit": false,
      "t": 96529.36349999992,
      "d": 176.4704999999958,
      "v": 91
    },
    {
      "midi": 53,
      "hit": false,
      "t": 96623.48109999984,
      "d": 658.8231999999989,
      "v": 80
    },
    {
      "midi": 53,
      "hit": false,
      "t": 96623.48109999984,
      "d": 658.8231999999989,
      "v": 80
    },
    {
      "midi": 69,
      "hit": false,
      "t": 96629.36344999999,
      "d": 217.64694999999483,
      "v": 73
    },
    {
      "midi": 57,
      "hit": false,
      "t": 96629.36345,
      "d": 217.64694999999483,
      "v": 73
    },
    {
      "midi": 54,
      "hit": false,
      "t": 96676.42224999984,
      "d": 88.2352499999979,
      "v": 127
    },
    {
      "midi": 88,
      "hit": false,
      "t": 96705.83399999983,
      "d": 176.4704999999958,
      "v": 91
    },
    {
      "midi": 76,
      "hit": false,
      "t": 96705.83399999992,
      "d": 176.4704999999958,
      "v": 91
    },
    {
      "midi": 64,
      "hit": false,
      "t": 96705.834,
      "d": 441.1762500000041,
      "v": 117
    },
    {
      "midi": 57,
      "hit": false,
      "t": 96705.83400000013,
      "d": 176.4704999999958,
      "v": 72
    },
    {
      "midi": 57,
      "hit": false,
      "t": 96705.83400000013,
      "d": 176.4704999999958,
      "v": 72
    },
    {
      "midi": 67,
      "hit": false,
      "t": 96805.83394999999,
      "d": 188.23519999999553,
      "v": 73
    },
    {
      "midi": 55,
      "hit": false,
      "t": 96805.83395,
      "d": 188.23519999999553,
      "v": 73
    },
    {
      "midi": 86,
      "hit": false,
      "t": 96882.30449999982,
      "d": 176.4704999999958,
      "v": 95
    },
    {
      "midi": 74,
      "hit": false,
      "t": 96882.30449999991,
      "d": 176.4704999999958,
      "v": 95
    },
    {
      "midi": 55,
      "hit": false,
      "t": 96882.30450000013,
      "d": 176.4704999999958,
      "v": 75
    },
    {
      "midi": 55,
      "hit": false,
      "t": 96882.30450000013,
      "d": 176.4704999999958,
      "v": 75
    },
    {
      "midi": 65,
      "hit": false,
      "t": 96970.53974999998,
      "d": 235.2939999999944,
      "v": 64
    },
    {
      "midi": 53,
      "hit": false,
      "t": 96970.53975,
      "d": 235.2939999999944,
      "v": 64
    },
    {
      "midi": 88,
      "hit": false,
      "t": 97058.77499999982,
      "d": 176.4704999999958,
      "v": 80
    },
    {
      "midi": 76,
      "hit": false,
      "t": 97058.7749999999,
      "d": 176.4704999999958,
      "v": 80
    },
    {
      "midi": 53,
      "hit": false,
      "t": 97058.77500000013,
      "d": 176.4704999999958,
      "v": 68
    },
    {
      "midi": 53,
      "hit": false,
      "t": 97058.77500000013,
      "d": 176.4704999999958,
      "v": 68
    },
    {
      "midi": 64,
      "hit": false,
      "t": 97182.30434999998,
      "d": 170.58814999999595,
      "v": 86
    },
    {
      "midi": 52,
      "hit": false,
      "t": 97182.30434999999,
      "d": 170.58814999999595,
      "v": 86
    },
    {
      "midi": 85,
      "hit": false,
      "t": 97235.24549999982,
      "d": 176.4704999999958,
      "v": 91
    },
    {
      "midi": 73,
      "hit": false,
      "t": 97235.2454999999,
      "d": 176.4704999999958,
      "v": 91
    },
    {
      "midi": 52,
      "hit": false,
      "t": 97235.24550000012,
      "d": 176.4704999999958,
      "v": 75
    },
    {
      "midi": 52,
      "hit": false,
      "t": 97235.24550000012,
      "d": 176.4704999999958,
      "v": 75
    },
    {
      "midi": 50,
      "hit": false,
      "t": 97294.06899999984,
      "d": 1305.881699999998,
      "v": 102
    },
    {
      "midi": 50,
      "hit": false,
      "t": 97294.06899999984,
      "d": 1305.881699999998,
      "v": 102
    },
    {
      "midi": 62,
      "hit": false,
      "t": 97364.65719999997,
      "d": 1005.8818500000052,
      "v": 60
    },
    {
      "midi": 50,
      "hit": false,
      "t": 97364.65719999999,
      "d": 1005.8818500000052,
      "v": 60
    },
    {
      "midi": 40,
      "hit": false,
      "t": 97411.71599999958,
      "d": 111.76464999999735,
      "v": 127
    },
    {
      "midi": 86,
      "hit": false,
      "t": 97411.71599999981,
      "d": 882.3524999999936,
      "v": 100
    },
    {
      "midi": 74,
      "hit": false,
      "t": 97411.7159999999,
      "d": 882.3524999999936,
      "v": 100
    },
    {
      "midi": 62,
      "hit": false,
      "t": 97411.716,
      "d": 788.2348999999958,
      "v": 125
    },
    {
      "midi": 50,
      "hit": false,
      "t": 97411.71600000012,
      "d": 705.8819999999978,
      "v": 88
    },
    {
      "midi": 50,
      "hit": false,
      "t": 97411.71600000012,
      "d": 705.8819999999978,
      "v": 88
    },
    {
      "midi": 43,
      "hit": false,
      "t": 97423.48069999988,
      "d": 76.47054999999818,
      "v": 117
    },
    {
      "midi": 55,
      "hit": false,
      "t": 97423.48069999991,
      "d": 76.47054999999818,
      "v": 117
    },
    {
      "midi": 54,
      "hit": false,
      "t": 98117.59799999984,
      "d": 99.99994999999763,
      "v": 127
    },
    {
      "midi": 69,
      "hit": false,
      "t": 98458.77429999999,
      "d": 105.88229999999749,
      "v": 70
    },
    {
      "midi": 74,
      "hit": false,
      "t": 98458.77429999999,
      "d": 105.88229999999749,
      "v": 80
    },
    {
      "midi": 69,
      "hit": false,
      "t": 98458.77429999999,
      "d": 105.88229999999749,
      "v": 70
    },
    {
      "midi": 74,
      "hit": false,
      "t": 98458.77429999999,
      "d": 105.88229999999749,
      "v": 80
    },
    {
      "midi": 40,
      "hit": false,
      "t": 98470.53899999958,
      "d": 111.76464999999735,
      "v": 85
    },
    {
      "midi": 40,
      "hit": false,
      "t": 98588.18599999958,
      "d": 111.76464999999735,
      "v": 80
    },
    {
      "midi": 40,
      "hit": false,
      "t": 98705.83299999958,
      "d": 111.76464999999735,
      "v": 110
    },
    {
      "midi": 62,
      "hit": false,
      "t": 98794.06824999984,
      "d": 2405.881150000001,
      "v": 127
    },
    {
      "midi": 50,
      "hit": false,
      "t": 98794.06824999984,
      "d": 2405.881150000001,
      "v": 127
    },
    {
      "midi": 74,
      "hit": false,
      "t": 98817.59764999998,
      "d": 105.88229999999749,
      "v": 110
    },
    {
      "midi": 74,
      "hit": false,
      "t": 98817.59764999998,
      "d": 105.88229999999749,
      "v": 110
    },
    {
      "midi": 40,
      "hit": false,
      "t": 98823.47999999957,
      "d": 111.76464999999735,
      "v": 127
    },
    {
      "midi": 69,
      "hit": false,
      "t": 98823.47999999998,
      "d": 94.11759999999776,
      "v": 98
    },
    {
      "midi": 69,
      "hit": false,
      "t": 98823.47999999998,
      "d": 94.11759999999776,
      "v": 98
    },
    {
      "midi": 62,
      "hit": false,
      "t": 98823.48000000011,
      "d": 170.58814999999595,
      "v": 87
    },
    {
      "midi": 69,
      "hit": false,
      "t": 98999.95050000011,
      "d": 170.58814999999595,
      "v": 50
    },
    {
      "midi": 69,
      "hit": false,
      "t": 99170.53864999997,
      "d": 152.94109999999637,
      "v": 108
    },
    {
      "midi": 74,
      "hit": false,
      "t": 99170.53864999997,
      "d": 152.94109999999637,
      "v": 127
    },
    {
      "midi": 69,
      "hit": false,
      "t": 99170.53864999997,
      "d": 152.94109999999637,
      "v": 108
    },
    {
      "midi": 74,
      "hit": false,
      "t": 99170.53864999997,
      "d": 152.94109999999637,
      "v": 127
    },
    {
      "midi": 40,
      "hit": false,
      "t": 99176.42099999957,
      "d": 111.76464999999735,
      "v": 127
    },
    {
      "midi": 74,
      "hit": false,
      "t": 99176.4210000001,
      "d": 170.58814999999595,
      "v": 74
    },
    {
      "midi": 76,
      "hit": false,
      "t": 99352.8915000001,
      "d": 170.58814999999595,
      "v": 75
    },
    {
      "midi": 54,
      "hit": false,
      "t": 99523.47964999983,
      "d": 88.2352499999979,
      "v": 127
    },
    {
      "midi": 77,
      "hit": false,
      "t": 99529.3620000001,
      "d": 170.58814999999595,
      "v": 79
    },
    {
      "midi": 76,
      "hit": false,
      "t": 99705.83250000009,
      "d": 170.58814999999595,
      "v": 65
    },
    {
      "midi": 74,
      "hit": false,
      "t": 99882.30300000009,
      "d": 170.58814999999595,
      "v": 76
    },
    {
      "midi": 69,
      "hit": false,
      "t": 100058.77350000008,
      "d": 170.58814999999595,
      "v": 59
    },
    {
      "midi": 40,
      "hit": false,
      "t": 100235.24399999957,
      "d": 111.76464999999735,
      "v": 122
    },
    {
      "midi": 62,
      "hit": false,
      "t": 100235.24400000008,
      "d": 170.58814999999595,
      "v": 71
    },
    {
      "midi": 69,
      "hit": false,
      "t": 100411.71450000007,
      "d": 170.58814999999595,
      "v": 52
    },
    {
      "midi": 74,
      "hit": false,
      "t": 100588.18500000007,
      "d": 170.58814999999595,
      "v": 72
    },
    {
      "midi": 76,
      "hit": false,
      "t": 100764.65550000007,
      "d": 170.58814999999595,
      "v": 75
    },
    {
      "midi": 54,
      "hit": false,
      "t": 100911.71424999983,
      "d": 94.11759999999776,
      "v": 127
    },
    {
      "midi": 77,
      "hit": false,
      "t": 100941.12600000006,
      "d": 170.58814999999595,
      "v": 80
    },
    {
      "midi": 76,
      "hit": false,
      "t": 101117.59650000006,
      "d": 170.58814999999595,
      "v": 74
    },
    {
      "midi": 65,
      "hit": false,
      "t": 101182.30234999984,
      "d": 388.23510000000533,
      "v": 85
    },
    {
      "midi": 53,
      "hit": false,
      "t": 101182.30234999984,
      "d": 388.23510000000533,
      "v": 85
    },
    {
      "midi": 69,
      "hit": false,
      "t": 101288.18464999997,
      "d": 135.2940499999968,
      "v": 78
    },
    {
      "midi": 69,
      "hit": false,
      "t": 101288.18464999997,
      "d": 135.2940499999968,
      "v": 78
    },
    {
      "midi": 40,
      "hit": false,
      "t": 101294.06699999957,
      "d": 111.76464999999735,
      "v": 66
    },
    {
      "midi": 74,
      "hit": false,
      "t": 101294.06700000005,
      "d": 170.58814999999595,
      "v": 85
    },
    {
      "midi": 74,
      "hit": false,
      "t": 101299.94934999997,
      "d": 105.88229999999749,
      "v": 92
    },
    {
      "midi": 74,
      "hit": false,
      "t": 101299.94934999997,
      "d": 105.88229999999749,
      "v": 92
    },
    {
      "midi": 40,
      "hit": false,
      "t": 101411.71399999957,
      "d": 111.76464999999735,
      "v": 80
    },
    {
      "midi": 69,
      "hit": false,
      "t": 101470.53750000005,
      "d": 170.58814999999595,
      "v": 65
    },
    {
      "midi": 40,
      "hit": false,
      "t": 101529.36099999957,
      "d": 111.76464999999735,
      "v": 94
    },
    {
      "midi": 64,
      "hit": false,
      "t": 101529.36099999984,
      "d": 2482.3516999999993,
      "v": 73
    },
    {
      "midi": 52,
      "hit": false,
      "t": 101529.36099999984,
      "d": 2482.3516999999993,
      "v": 73
    },
    {
      "midi": 69,
      "hit": false,
      "t": 101623.47859999996,
      "d": 105.88229999999749,
      "v": 79
    },
    {
      "midi": 69,
      "hit": false,
      "t": 101623.47859999996,
      "d": 105.88229999999749,
      "v": 79
    },
    {
      "midi": 73,
      "hit": false,
      "t": 101629.36094999996,
      "d": 88.2352499999979,
      "v": 99
    },
    {
      "midi": 73,
      "hit": false,
      "t": 101629.36094999996,
      "d": 88.2352499999979,
      "v": 99
    },
    {
      "midi": 40,
      "hit": false,
      "t": 101647.00799999957,
      "d": 111.76464999999735,
      "v": 106
    },
    {
      "midi": 64,
      "hit": false,
      "t": 101647.00800000005,
      "d": 170.58814999999595,
      "v": 97
    },
    {
      "midi": 69,
      "hit": false,
      "t": 101823.47850000004,
      "d": 170.58814999999595,
      "v": 60
    },
    {
      "midi": 69,
      "hit": false,
      "t": 101982.30194999995,
      "d": 129.41169999999693,
      "v": 92
    },
    {
      "midi": 69,
      "hit": false,
      "t": 101982.30194999995,
      "d": 129.41169999999693,
      "v": 92
    },
    {
      "midi": 73,
      "hit": false,
      "t": 101988.18429999995,
      "d": 129.41169999999693,
      "v": 104
    },
    {
      "midi": 73,
      "hit": false,
      "t": 101988.18429999995,
      "d": 129.41169999999693,
      "v": 104
    },
    {
      "midi": 40,
      "hit": false,
      "t": 101999.94899999956,
      "d": 111.76464999999735,
      "v": 114
    },
    {
      "midi": 74,
      "hit": false,
      "t": 101999.94900000004,
      "d": 170.58814999999595,
      "v": 77
    },
    {
      "midi": 76,
      "hit": false,
      "t": 102176.41950000003,
      "d": 170.58814999999595,
      "v": 80
    },
    {
      "midi": 54,
      "hit": false,
      "t": 102335.24294999983,
      "d": 88.2352499999979,
      "v": 127
    },
    {
      "midi": 74,
      "hit": false,
      "t": 102352.89000000003,
      "d": 170.58814999999595,
      "v": 78
    },
    {
      "midi": 73,
      "hit": false,
      "t": 102529.36050000002,
      "d": 170.58814999999595,
      "v": 87
    },
    {
      "midi": 40,
      "hit": false,
      "t": 102705.83099999955,
      "d": 111.76464999999735,
      "v": 81
    },
    {
      "midi": 74,
      "hit": false,
      "t": 102705.83100000002,
      "d": 170.58814999999595,
      "v": 73
    },
    {
      "midi": 73,
      "hit": false,
      "t": 102882.30150000002,
      "d": 170.58814999999595,
      "v": 70
    },
    {
      "midi": 40,
      "hit": false,
      "t": 103058.77199999955,
      "d": 111.76464999999735,
      "v": 104
    },
    {
      "midi": 64,
      "hit": false,
      "t": 103058.77200000001,
      "d": 170.58814999999595,
      "v": 80
    },
    {
      "midi": 69,
      "hit": false,
      "t": 103235.24250000001,
      "d": 170.58814999999595,
      "v": 48
    },
    {
      "midi": 74,
      "hit": false,
      "t": 103411.713,
      "d": 170.58814999999595,
      "v": 81
    },
    {
      "midi": 76,
      "hit": false,
      "t": 103588.1835,
      "d": 170.58814999999595,
      "v": 77
    },
    {
      "midi": 40,
      "hit": false,
      "t": 103764.65399999954,
      "d": 111.76464999999735,
      "v": 106
    },
    {
      "midi": 74,
      "hit": false,
      "t": 103764.654,
      "d": 170.58814999999595,
      "v": 80
    },
    {
      "midi": 54,
      "hit": false,
      "t": 103770.53634999982,
      "d": 99.99994999999763,
      "v": 127
    },
    {
      "midi": 73,
      "hit": false,
      "t": 103941.12449999999,
      "d": 170.58814999999595,
      "v": 87
    },
    {
      "midi": 62,
      "hit": false,
      "t": 103999.94799999984,
      "d": 388.23510000000533,
      "v": 94
    },
    {
      "midi": 50,
      "hit": false,
      "t": 103999.94799999984,
      "d": 388.23510000000533,
      "v": 94
    },
    {
      "midi": 73,
      "hit": false,
      "t": 104099.94794999994,
      "d": 129.41169999999693,
      "v": 78
    },
    {
      "midi": 73,
      "hit": false,
      "t": 104099.94794999994,
      "d": 129.41169999999693,
      "v": 78
    },
    {
      "midi": 69,
      "hit": false,
      "t": 104111.71264999994,
      "d": 105.88229999999749,
      "v": 65
    },
    {
      "midi": 69,
      "hit": false,
      "t": 104111.71264999994,
      "d": 105.88229999999749,
      "v": 65
    },
    {
      "midi": 74,
      "hit": false,
      "t": 104117.59499999999,
      "d": 170.58814999999595,
      "v": 78
    },
    {
      "midi": 73,
      "hit": false,
      "t": 104294.06549999998,
      "d": 170.58814999999595,
      "v": 78
    },
    {
      "midi": 61,
      "hit": false,
      "t": 104347.00664999985,
      "d": 2458.8223,
      "v": 82
    },
    {
      "midi": 49,
      "hit": false,
      "t": 104347.00664999985,
      "d": 2458.8223,
      "v": 82
    },
    {
      "midi": 76,
      "hit": false,
      "t": 104447.00659999994,
      "d": 94.11759999999776,
      "v": 88
    },
    {
      "midi": 76,
      "hit": false,
      "t": 104447.00659999994,
      "d": 94.11759999999776,
      "v": 88
    },
    {
      "midi": 69,
      "hit": false,
      "t": 104452.88894999993,
      "d": 88.2352499999979,
      "v": 73
    },
    {
      "midi": 69,
      "hit": false,
      "t": 104452.88894999993,
      "d": 88.2352499999979,
      "v": 73
    },
    {
      "midi": 40,
      "hit": false,
      "t": 104470.53599999954,
      "d": 111.76464999999735,
      "v": 104
    },
    {
      "midi": 61,
      "hit": false,
      "t": 104470.53599999998,
      "d": 170.58814999999595,
      "v": 85
    },
    {
      "midi": 76,
      "hit": false,
      "t": 104470.53599999998,
      "d": 170.58814999999595,
      "v": 80
    },
    {
      "midi": 73,
      "hit": false,
      "t": 104647.00649999997,
      "d": 170.58814999999595,
      "v": 95
    },
    {
      "midi": 64,
      "hit": false,
      "t": 104647.00649999997,
      "d": 170.58814999999595,
      "v": 65
    },
    {
      "midi": 69,
      "hit": false,
      "t": 104811.71229999993,
      "d": 105.88229999999749,
      "v": 92
    },
    {
      "midi": 76,
      "hit": false,
      "t": 104811.71229999993,
      "d": 111.76464999999735,
      "v": 112
    },
    {
      "midi": 69,
      "hit": false,
      "t": 104811.71229999993,
      "d": 105.88229999999749,
      "v": 92
    },
    {
      "midi": 76,
      "hit": false,
      "t": 104811.71229999993,
      "d": 111.76464999999735,
      "v": 112
    },
    {
      "midi": 40,
      "hit": false,
      "t": 104823.47699999953,
      "d": 111.76464999999735,
      "v": 106
    },
    {
      "midi": 74,
      "hit": false,
      "t": 104823.47699999997,
      "d": 529.411500000002,
      "v": 94
    },
    {
      "midi": 69,
      "hit": false,
      "t": 104823.47699999997,
      "d": 1058.823000000004,
      "v": 67
    },
    {
      "midi": 54,
      "hit": false,
      "t": 105182.30034999982,
      "d": 82.35289999999804,
      "v": 127
    },
    {
      "midi": 40,
      "hit": false,
      "t": 105529.35899999953,
      "d": 111.76464999999735,
      "v": 79
    },
    {
      "midi": 40,
      "hit": false,
      "t": 105647.00599999953,
      "d": 111.76464999999735,
      "v": 92
    },
    {
      "midi": 40,
      "hit": false,
      "t": 105764.65299999953,
      "d": 111.76464999999735,
      "v": 100
    },
    {
      "midi": 40,
      "hit": false,
      "t": 105882.29999999952,
      "d": 111.76464999999735,
      "v": 112
    },
    {
      "midi": 76,
      "hit": false,
      "t": 105882.29999999997,
      "d": 170.58814999999595,
      "v": 75
    },
    {
      "midi": 61,
      "hit": false,
      "t": 105882.29999999997,
      "d": 170.58814999999595,
      "v": 62
    },
    {
      "midi": 64,
      "hit": false,
      "t": 106058.77049999997,
      "d": 170.58814999999595,
      "v": 58
    },
    {
      "midi": 73,
      "hit": false,
      "t": 106058.77049999997,
      "d": 170.58814999999595,
      "v": 78
    },
    {
      "midi": 74,
      "hit": false,
      "t": 106235.24099999997,
      "d": 170.58814999999595,
      "v": 70
    },
    {
      "midi": 69,
      "hit": false,
      "t": 106235.24099999997,
      "d": 882.3524999999936,
      "v": 67
    },
    {
      "midi": 54,
      "hit": false,
      "t": 106564.65259999981,
      "d": 111.76464999999735,
      "v": 127
    },
    {
      "midi": 40,
      "hit": false,
      "t": 106588.18199999952,
      "d": 111.76464999999735,
      "v": 94
    },
    {
      "midi": 58,
      "hit": false,
      "t": 106776.41719999985,
      "d": 405.8821500000049,
      "v": 79
    },
    {
      "midi": 46,
      "hit": false,
      "t": 106776.41719999985,
      "d": 405.8821500000049,
      "v": 79
    },
    {
      "midi": 40,
      "hit": false,
      "t": 106941.12299999951,
      "d": 111.76464999999735,
      "v": 95
    },
    {
      "midi": 69,
      "hit": false,
      "t": 106941.12299999992,
      "d": 111.76464999999735,
      "v": 75
    },
    {
      "midi": 76,
      "hit": false,
      "t": 106941.12299999992,
      "d": 111.76464999999735,
      "v": 98
    },
    {
      "midi": 69,
      "hit": false,
      "t": 106941.12299999992,
      "d": 111.76464999999735,
      "v": 75
    },
    {
      "midi": 76,
      "hit": false,
      "t": 106941.12299999992,
      "d": 111.76464999999735,
      "v": 98
    },
    {
      "midi": 40,
      "hit": false,
      "t": 107058.76999999951,
      "d": 111.76464999999735,
      "v": 95
    },
    {
      "midi": 57,
      "hit": false,
      "t": 107158.76994999986,
      "d": 2858.822100000005,
      "v": 81
    },
    {
      "midi": 45,
      "hit": false,
      "t": 107158.76994999986,
      "d": 2858.822100000005,
      "v": 81
    },
    {
      "midi": 40,
      "hit": false,
      "t": 107176.4169999995,
      "d": 111.76464999999735,
      "v": 100
    },
    {
      "midi": 74,
      "hit": false,
      "t": 107264.65224999991,
      "d": 1441.1757499999949,
      "v": 100
    },
    {
      "midi": 69,
      "hit": false,
      "t": 107264.65224999991,
      "d": 2999.998499999987,
      "v": 84
    },
    {
      "midi": 74,
      "hit": false,
      "t": 107264.65224999991,
      "d": 1441.1757499999949,
      "v": 100
    },
    {
      "midi": 69,
      "hit": false,
      "t": 107264.65224999991,
      "d": 2999.998499999987,
      "v": 84
    },
    {
      "midi": 40,
      "hit": false,
      "t": 107294.0639999995,
      "d": 111.76464999999735,
      "v": 90
    },
    {
      "midi": 76,
      "hit": false,
      "t": 107294.06399999995,
      "d": 170.58814999999595,
      "v": 75
    },
    {
      "midi": 61,
      "hit": false,
      "t": 107294.06399999995,
      "d": 170.58814999999595,
      "v": 82
    },
    {
      "midi": 73,
      "hit": false,
      "t": 107470.53449999995,
      "d": 170.58814999999595,
      "v": 64
    },
    {
      "midi": 64,
      "hit": false,
      "t": 107470.53449999995,
      "d": 170.58814999999595,
      "v": 54
    },
    {
      "midi": 74,
      "hit": false,
      "t": 107647.00499999995,
      "d": 170.58814999999595,
      "v": 66
    },
    {
      "midi": 69,
      "hit": false,
      "t": 107647.00499999995,
      "d": 1058.8229999999894,
      "v": 77
    },
    {
      "midi": 54,
      "hit": false,
      "t": 107941.12249999981,
      "d": 99.99994999999763,
      "v": 123
    },
    {
      "midi": 40,
      "hit": false,
      "t": 107999.9459999995,
      "d": 111.76464999999735,
      "v": 104
    },
    {
      "midi": 73,
      "hit": false,
      "t": 108682.29859999991,
      "d": 1394.116949999996,
      "v": 93
    },
    {
      "midi": 73,
      "hit": false,
      "t": 108682.29859999991,
      "d": 1394.116949999996,
      "v": 93
    },
    {
      "midi": 40,
      "hit": false,
      "t": 108705.8279999995,
      "d": 111.76464999999735,
      "v": 98
    },
    {
      "midi": 61,
      "hit": false,
      "t": 108705.82799999994,
      "d": 170.58814999999595,
      "v": 110
    },
    {
      "midi": 76,
      "hit": false,
      "t": 108705.82799999994,
      "d": 170.58814999999595,
      "v": 64
    },
    {
      "midi": 64,
      "hit": false,
      "t": 108882.29849999993,
      "d": 170.58814999999595,
      "v": 68
    },
    {
      "midi": 73,
      "hit": false,
      "t": 108882.29849999993,
      "d": 170.58814999999595,
      "v": 60
    },
    {
      "midi": 74,
      "hit": false,
      "t": 109058.76899999993,
      "d": 170.58814999999595,
      "v": 56
    },
    {
      "midi": 69,
      "hit": false,
      "t": 109058.76899999993,
      "d": 1058.8229999999894,
      "v": 88
    },
    {
      "midi": 54,
      "hit": false,
      "t": 109405.8276499998,
      "d": 88.2352499999979,
      "v": 127
    },
    {
      "midi": 40,
      "hit": false,
      "t": 109411.7099999995,
      "d": 111.76464999999735,
      "v": 97
    },
    {
      "midi": 40,
      "hit": false,
      "t": 109764.65099999949,
      "d": 111.76464999999735,
      "v": 94
    },
    {
      "midi": 40,
      "hit": false,
      "t": 109882.29799999949,
      "d": 111.76464999999735,
      "v": 88
    },
    {
      "midi": 40,
      "hit": false,
      "t": 109999.94499999948,
      "d": 111.76464999999735,
      "v": 114
    },
    {
      "midi": 55,
      "hit": false,
      "t": 110035.23909999986,
      "d": 2147.0577499999927,
      "v": 97
    },
    {
      "midi": 43,
      "hit": false,
      "t": 110035.23909999986,
      "d": 2147.0577499999927,
      "v": 97
    },
    {
      "midi": 74,
      "hit": false,
      "t": 110099.9449499999,
      "d": 170.58814999999595,
      "v": 88
    },
    {
      "midi": 74,
      "hit": false,
      "t": 110099.9449499999,
      "d": 170.58814999999595,
      "v": 88
    },
    {
      "midi": 40,
      "hit": false,
      "t": 110117.59199999948,
      "d": 111.76464999999735,
      "v": 114
    },
    {
      "midi": 61,
      "hit": false,
      "t": 110117.59199999992,
      "d": 170.58814999999595,
      "v": 119
    },
    {
      "midi": 76,
      "hit": false,
      "t": 110117.59199999992,
      "d": 170.58814999999595,
      "v": 79
    },
    {
      "midi": 73,
      "hit": false,
      "t": 110294.06249999991,
      "d": 170.58814999999595,
      "v": 68
    },
    {
      "midi": 64,
      "hit": false,
      "t": 110294.06249999991,
      "d": 170.58814999999595,
      "v": 68
    },
    {
      "midi": 74,
      "hit": false,
      "t": 110423.4741999999,
      "d": 229.41164999999455,
      "v": 90
    },
    {
      "midi": 69,
      "hit": false,
      "t": 110423.4741999999,
      "d": 235.2939999999944,
      "v": 72
    },
    {
      "midi": 74,
      "hit": false,
      "t": 110423.4741999999,
      "d": 229.41164999999455,
      "v": 90
    },
    {
      "midi": 69,
      "hit": false,
      "t": 110423.4741999999,
      "d": 235.2939999999944,
      "v": 72
    },
    {
      "midi": 40,
      "hit": false,
      "t": 110470.53299999947,
      "d": 111.76464999999735,
      "v": 112
    },
    {
      "midi": 74,
      "hit": false,
      "t": 110470.53299999991,
      "d": 170.58814999999595,
      "v": 70
    },
    {
      "midi": 69,
      "hit": false,
      "t": 110470.53299999991,
      "d": 1058.8229999999894,
      "v": 69
    },
    {
      "midi": 54,
      "hit": false,
      "t": 110823.4739999998,
      "d": 70.58819999999832,
      "v": 127
    },
    {
      "midi": 40,
      "hit": false,
      "t": 111529.35599999948,
      "d": 111.76464999999735,
      "v": 112
    },
    {
      "midi": 76,
      "hit": false,
      "t": 111529.3559999999,
      "d": 170.58814999999595,
      "v": 73
    },
    {
      "midi": 61,
      "hit": false,
      "t": 111529.3559999999,
      "d": 170.58814999999595,
      "v": 123
    },
    {
      "midi": 73,
      "hit": false,
      "t": 111705.8264999999,
      "d": 170.58814999999595,
      "v": 72
    },
    {
      "midi": 64,
      "hit": false,
      "t": 111705.8264999999,
      "d": 170.58814999999595,
      "v": 67
    },
    {
      "midi": 74,
      "hit": false,
      "t": 111882.29699999989,
      "d": 170.58814999999595,
      "v": 76
    },
    {
      "midi": 69,
      "hit": false,
      "t": 111882.29699999989,
      "d": 1058.8229999999894,
      "v": 88
    },
    {
      "midi": 58,
      "hit": false,
      "t": 112129.35569999985,
      "d": 729.4113999999972,
      "v": 75
    },
    {
      "midi": 46,
      "hit": false,
      "t": 112129.35569999985,
      "d": 729.4113999999972,
      "v": 75
    },
    {
      "midi": 54,
      "hit": false,
      "t": 112176.4144999998,
      "d": 188.23519999999553,
      "v": 68
    },
    {
      "midi": 74,
      "hit": false,
      "t": 112529.35549999989,
      "d": 347.0586500000063,
      "v": 68
    },
    {
      "midi": 74,
      "hit": false,
      "t": 112529.35549999989,
      "d": 347.0586500000063,
      "v": 68
    },
    {
      "midi": 69,
      "hit": false,
      "t": 112547.00254999989,
      "d": 488.23505000000296,
      "v": 50
    },
    {
      "midi": 69,
      "hit": false,
      "t": 112547.00254999989,
      "d": 488.23505000000296,
      "v": 50
    },
    {
      "midi": 40,
      "hit": false,
      "t": 112588.17899999948,
      "d": 111.76464999999735,
      "v": 95
    },
    {
      "midi": 40,
      "hit": false,
      "t": 112705.82599999948,
      "d": 111.76464999999735,
      "v": 83
    },
    {
      "midi": 40,
      "hit": false,
      "t": 112823.47299999947,
      "d": 111.76464999999735,
      "v": 108
    },
    {
      "midi": 57,
      "hit": false,
      "t": 112858.76709999985,
      "d": 2717.6456999999937,
      "v": 70
    },
    {
      "midi": 45,
      "hit": false,
      "t": 112858.76709999985,
      "d": 2717.6456999999937,
      "v": 70
    },
    {
      "midi": 73,
      "hit": false,
      "t": 112864.6494499999,
      "d": 164.7057999999961,
      "v": 82
    },
    {
      "midi": 73,
      "hit": false,
      "t": 112864.6494499999,
      "d": 164.7057999999961,
      "v": 82
    },
    {
      "midi": 40,
      "hit": false,
      "t": 112941.11999999947,
      "d": 111.76464999999735,
      "v": 102
    },
    {
      "midi": 76,
      "hit": false,
      "t": 112941.11999999988,
      "d": 170.58814999999595,
      "v": 80
    },
    {
      "midi": 61,
      "hit": false,
      "t": 112941.11999999988,
      "d": 170.58814999999595,
      "v": 127
    },
    {
      "midi": 64,
      "hit": false,
      "t": 113117.59049999987,
      "d": 170.58814999999595,
      "v": 55
    },
    {
      "midi": 73,
      "hit": false,
      "t": 113117.59049999987,
      "d": 170.58814999999595,
      "v": 19
    },
    {
      "midi": 69,
      "hit": false,
      "t": 113211.70809999989,
      "d": 211.76459999999497,
      "v": 69
    },
    {
      "midi": 69,
      "hit": false,
      "t": 113211.70809999989,
      "d": 211.76459999999497,
      "v": 69
    },
    {
      "midi": 73,
      "hit": false,
      "t": 113223.47279999989,
      "d": 205.8822499999951,
      "v": 70
    },
    {
      "midi": 73,
      "hit": false,
      "t": 113223.47279999989,
      "d": 205.8822499999951,
      "v": 70
    },
    {
      "midi": 40,
      "hit": false,
      "t": 113294.06099999946,
      "d": 111.76464999999735,
      "v": 110
    },
    {
      "midi": 74,
      "hit": false,
      "t": 113294.06099999987,
      "d": 170.58814999999595,
      "v": 80
    },
    {
      "midi": 69,
      "hit": false,
      "t": 113294.06099999987,
      "d": 705.8819999999978,
      "v": 77
    },
    {
      "midi": 54,
      "hit": false,
      "t": 113658.76669999979,
      "d": 247.05869999999413,
      "v": 70
    },
    {
      "midi": 40,
      "hit": false,
      "t": 114352.88399999947,
      "d": 111.76464999999735,
      "v": 112
    },
    {
      "midi": 61,
      "hit": false,
      "t": 114352.88399999987,
      "d": 170.58814999999595,
      "v": 119
    },
    {
      "midi": 73,
      "hit": false,
      "t": 114352.88399999987,
      "d": 170.58814999999595,
      "v": 119
    },
    {
      "midi": 64,
      "hit": false,
      "t": 114529.35449999987,
      "d": 170.58814999999595,
      "v": 66
    },
    {
      "midi": 69,
      "hit": false,
      "t": 114705.82499999987,
      "d": 352.94100000000617,
      "v": 88
    },
    {
      "midi": 54,
      "hit": false,
      "t": 115052.88364999979,
      "d": 335.2939500000066,
      "v": 40
    }
  ]
}