{
  "jsonPath": "Ultima Online/combat1.json",
  "path": "Ultima Online\\combat1.mid",
  "name": "combat1",
  "difficulty": "Advanced",
  "bpm": 157.999931533363,
  "notes": [
    {
      "midi": 38,
      "hit": false,
      "t": 12.658233333333333,
      "d": 275.316575,
      "v": 111
    },
    {
      "midi": 38,
      "hit": false,
      "t": 12.658233333333333,
      "d": 379.747,
      "v": 110
    },
    {
      "midi": 38,
      "hit": false,
      "t": 28.481025,
      "d": 221.51908333333333,
      "v": 119
    },
    {
      "midi": 36,
      "hit": false,
      "t": 28.481025000000002,
      "d": 655.063575,
      "v": 122
    },
    {
      "midi": 38,
      "hit": false,
      "t": 44.30381666666666,
      "d": 240.50643333333335,
      "v": 122
    },
    {
      "midi": 57,
      "hit": false,
      "t": 126.58233333333334,
      "d": 56.962050000000005,
      "v": 95
    },
    {
      "midi": 59,
      "hit": false,
      "t": 189.8735,
      "d": 82.27851666666666,
      "v": 106
    },
    {
      "midi": 60,
      "hit": false,
      "t": 253.16466666666668,
      "d": 94.93674999999996,
      "v": 108
    },
    {
      "midi": 61,
      "hit": false,
      "t": 348.10141666666664,
      "d": 91.77219166666669,
      "v": 90
    },
    {
      "midi": 74,
      "hit": false,
      "t": 411.39258333333333,
      "d": 474.6837500000001,
      "v": 120
    },
    {
      "midi": 62,
      "hit": false,
      "t": 443.03816666666665,
      "d": 1069.6207166666668,
      "v": 103
    },
    {
      "midi": 62,
      "hit": false,
      "t": 443.03816666666665,
      "d": 1110.759975,
      "v": 111
    },
    {
      "midi": 38,
      "hit": false,
      "t": 1395.570225,
      "d": 56.96205000000009,
      "v": 111
    },
    {
      "midi": 38,
      "hit": false,
      "t": 1474.6841833333333,
      "d": 72.78484166666658,
      "v": 119
    },
    {
      "midi": 38,
      "hit": false,
      "t": 1518.988,
      "d": 291.13936666666655,
      "v": 108
    },
    {
      "midi": 38,
      "hit": false,
      "t": 1528.4816750000002,
      "d": 221.51908333333336,
      "v": 111
    },
    {
      "midi": 36,
      "hit": false,
      "t": 1531.6462333333334,
      "d": 360.75964999999997,
      "v": 119
    },
    {
      "midi": 38,
      "hit": false,
      "t": 1544.3044666666667,
      "d": 379.74700000000007,
      "v": 110
    },
    {
      "midi": 38,
      "hit": false,
      "t": 1569.6209333333331,
      "d": 370.25332500000013,
      "v": 119
    },
    {
      "midi": 59,
      "hit": false,
      "t": 1677.2159166666668,
      "d": 101.26586666666662,
      "v": 106
    },
    {
      "midi": 60,
      "hit": false,
      "t": 1756.3298750000001,
      "d": 60.12660833333325,
      "v": 107
    },
    {
      "midi": 61,
      "hit": false,
      "t": 1835.4438333333335,
      "d": 60.12660833333325,
      "v": 107
    },
    {
      "midi": 74,
      "hit": false,
      "t": 1920.8869083333334,
      "d": 474.68375000000015,
      "v": 120
    },
    {
      "midi": 62,
      "hit": false,
      "t": 1949.3679333333334,
      "d": 731.0129750000001,
      "v": 108
    },
    {
      "midi": 62,
      "hit": false,
      "t": 1962.0261666666665,
      "d": 724.6838583333333,
      "v": 116
    },
    {
      "midi": 57,
      "hit": false,
      "t": 2322.785816666667,
      "d": 142.40512500000023,
      "v": 98
    },
    {
      "midi": 50,
      "hit": false,
      "t": 2335.4440500000005,
      "d": 129.74689166666667,
      "v": 89
    },
    {
      "midi": 61,
      "hit": false,
      "t": 2651.8998833333335,
      "d": 1544.3044666666665,
      "v": 106
    },
    {
      "midi": 63,
      "hit": false,
      "t": 2651.8998833333335,
      "d": 1544.3044666666665,
      "v": 108
    },
    {
      "midi": 63,
      "hit": false,
      "t": 2680.380908333333,
      "d": 1351.2664083333334,
      "v": 106
    },
    {
      "midi": 61,
      "hit": false,
      "t": 2680.380908333333,
      "d": 1354.4309666666668,
      "v": 106
    },
    {
      "midi": 50,
      "hit": false,
      "t": 2715.1910500000004,
      "d": 123.41777499999989,
      "v": 119
    },
    {
      "midi": 57,
      "hit": false,
      "t": 2715.1910500000004,
      "d": 139.24056666666638,
      "v": 119
    },
    {
      "midi": 75,
      "hit": false,
      "t": 3436.7103500000003,
      "d": 85.44307499999968,
      "v": 84
    },
    {
      "midi": 78,
      "hit": false,
      "t": 3503.166075,
      "d": 72.78484166666658,
      "v": 98
    },
    {
      "midi": 82,
      "hit": false,
      "t": 3566.4572416666665,
      "d": 50.63293333333331,
      "v": 98
    },
    {
      "midi": 84,
      "hit": false,
      "t": 3636.0775249999997,
      "d": 72.78484166666658,
      "v": 98
    },
    {
      "midi": 88,
      "hit": false,
      "t": 3683.5458999999996,
      "d": 72.78484166666658,
      "v": 79
    },
    {
      "midi": 93,
      "hit": false,
      "t": 3750.0016249999994,
      "d": 66.45572500000026,
      "v": 90
    },
    {
      "midi": 91,
      "hit": false,
      "t": 3759.4952999999996,
      "d": 18.98734999999988,
      "v": 52
    },
    {
      "midi": 96,
      "hit": false,
      "t": 3813.2927916666663,
      "d": 82.27851666666675,
      "v": 92
    },
    {
      "midi": 50,
      "hit": false,
      "t": 3822.786466666667,
      "d": 126.58233333333328,
      "v": 98
    },
    {
      "midi": 57,
      "hit": false,
      "t": 3822.786466666667,
      "d": 126.58233333333328,
      "v": 107
    },
    {
      "midi": 57,
      "hit": false,
      "t": 3829.1155833333337,
      "d": 522.1521250000001,
      "v": 124
    },
    {
      "midi": 38,
      "hit": false,
      "t": 4189.875233333333,
      "d": 53.79749166666625,
      "v": 108
    },
    {
      "midi": 57,
      "hit": false,
      "t": 4208.8625833333335,
      "d": 66.45572499999889,
      "v": 119
    },
    {
      "midi": 50,
      "hit": false,
      "t": 4212.0271416666665,
      "d": 53.79749166666625,
      "v": 107
    },
    {
      "midi": 38,
      "hit": false,
      "t": 4265.824633333333,
      "d": 72.78484166666658,
      "v": 111
    },
    {
      "midi": 57,
      "hit": false,
      "t": 4325.951241666666,
      "d": 69.62028333333274,
      "v": 107
    },
    {
      "midi": 50,
      "hit": false,
      "t": 4329.115799999999,
      "d": 60.126608333333024,
      "v": 107
    },
    {
      "midi": 55,
      "hit": false,
      "t": 4335.444916666665,
      "d": 44.303816666666535,
      "v": 107
    },
    {
      "midi": 38,
      "hit": false,
      "t": 4351.267708333333,
      "d": 53.79749166666625,
      "v": 106
    },
    {
      "midi": 38,
      "hit": false,
      "t": 4433.546224999999,
      "d": 69.62028333333365,
      "v": 116
    },
    {
      "midi": 50,
      "hit": false,
      "t": 4449.369016666665,
      "d": 132.9114499999996,
      "v": 93
    },
    {
      "midi": 57,
      "hit": false,
      "t": 4449.369016666665,
      "d": 151.89879999999994,
      "v": 113
    },
    {
      "midi": 38,
      "hit": false,
      "t": 4541.1412083333325,
      "d": 446.2027250000001,
      "v": 122
    },
    {
      "midi": 38,
      "hit": false,
      "t": 4566.457675,
      "d": 379.7470000000003,
      "v": 110
    },
    {
      "midi": 38,
      "hit": false,
      "t": 4575.951349999999,
      "d": 310.12671666666665,
      "v": 106
    },
    {
      "midi": 38,
      "hit": false,
      "t": 4582.280466666667,
      "d": 221.51908333333358,
      "v": 116
    },
    {
      "midi": 36,
      "hit": false,
      "t": 4594.938700000001,
      "d": 313.2912749999996,
      "v": 122
    },
    {
      "midi": 59,
      "hit": false,
      "t": 4715.191916666667,
      "d": 104.43042500000047,
      "v": 111
    },
    {
      "midi": 60,
      "hit": false,
      "t": 4794.305875,
      "d": 104.43042500000047,
      "v": 111
    },
    {
      "midi": 61,
      "hit": false,
      "t": 4873.419833333333,
      "d": 60.126608333333934,
      "v": 111
    },
    {
      "midi": 62,
      "hit": false,
      "t": 4965.192025,
      "d": 1142.4055583333338,
      "v": 116
    },
    {
      "midi": 62,
      "hit": false,
      "t": 4981.014816666668,
      "d": 1110.7599750000008,
      "v": 111
    },
    {
      "midi": 74,
      "hit": false,
      "t": 4987.343933333334,
      "d": 474.68375000000015,
      "v": 120
    },
    {
      "midi": 50,
      "hit": false,
      "t": 5335.445349999998,
      "d": 110.75954166666634,
      "v": 107
    },
    {
      "midi": 57,
      "hit": false,
      "t": 5335.445349999998,
      "d": 120.25321666666605,
      "v": 113
    },
    {
      "midi": 50,
      "hit": false,
      "t": 5734.179699999998,
      "d": 104.43042499999956,
      "v": 119
    },
    {
      "midi": 57,
      "hit": false,
      "t": 5734.179699999998,
      "d": 113.92409999999927,
      "v": 127
    },
    {
      "midi": 63,
      "hit": false,
      "t": 6066.458325000001,
      "d": 1493.671533333334,
      "v": 87
    },
    {
      "midi": 61,
      "hit": false,
      "t": 6072.787441666668,
      "d": 1477.8487416666676,
      "v": 103
    },
    {
      "midi": 61,
      "hit": false,
      "t": 6085.445675000001,
      "d": 1329.1144999999997,
      "v": 103
    },
    {
      "midi": 63,
      "hit": false,
      "t": 6085.445675000001,
      "d": 1341.7727333333332,
      "v": 106
    },
    {
      "midi": 50,
      "hit": false,
      "t": 6787.977624999997,
      "d": 104.43042499999956,
      "v": 107
    },
    {
      "midi": 57,
      "hit": false,
      "t": 6787.977624999997,
      "d": 123.41777499999989,
      "v": 113
    },
    {
      "midi": 50,
      "hit": false,
      "t": 7199.37020833333,
      "d": 56.96205000000009,
      "v": 113
    },
    {
      "midi": 57,
      "hit": false,
      "t": 7199.37020833333,
      "d": 66.4557249999998,
      "v": 119
    },
    {
      "midi": 75,
      "hit": false,
      "t": 7202.534766666667,
      "d": 88.60763333333307,
      "v": 82
    },
    {
      "midi": 78,
      "hit": false,
      "t": 7268.9904916666665,
      "d": 85.44307500000014,
      "v": 95
    },
    {
      "midi": 50,
      "hit": false,
      "t": 7319.623424999996,
      "d": 56.96205000000009,
      "v": 102
    },
    {
      "midi": 57,
      "hit": false,
      "t": 7319.623424999996,
      "d": 69.62028333333365,
      "v": 113
    },
    {
      "midi": 82,
      "hit": false,
      "t": 7332.281658333333,
      "d": 75.94939999999951,
      "v": 95
    },
    {
      "midi": 84,
      "hit": false,
      "t": 7398.737383333333,
      "d": 82.27851666666629,
      "v": 91
    },
    {
      "midi": 57,
      "hit": false,
      "t": 7439.876641666663,
      "d": 82.27851666666629,
      "v": 107
    },
    {
      "midi": 50,
      "hit": false,
      "t": 7446.20575833333,
      "d": 53.79749166666625,
      "v": 85
    },
    {
      "midi": 88,
      "hit": false,
      "t": 7446.205758333333,
      "d": 85.44307500000014,
      "v": 79
    },
    {
      "midi": 93,
      "hit": false,
      "t": 7518.990599999999,
      "d": 72.78484166666658,
      "v": 92
    },
    {
      "midi": 96,
      "hit": false,
      "t": 7585.446324999999,
      "d": 85.44307500000014,
      "v": 92
    },
    {
      "midi": 57,
      "hit": false,
      "t": 7626.5855833333335,
      "d": 250.00010833333363,
      "v": 119
    },
    {
      "midi": 85,
      "hit": false,
      "t": 7626.5855833333335,
      "d": 262.6583416666672,
      "v": 119
    },
    {
      "midi": 38,
      "hit": false,
      "t": 7876.585691666666,
      "d": 60.126608333333024,
      "v": 106
    },
    {
      "midi": 38,
      "hit": false,
      "t": 7946.205975,
      "d": 379.7470000000003,
      "v": 110
    },
    {
      "midi": 38,
      "hit": false,
      "t": 7949.370533333333,
      "d": 66.4557249999998,
      "v": 106
    },
    {
      "midi": 38,
      "hit": false,
      "t": 7971.522441666666,
      "d": 278.48113333333276,
      "v": 106
    },
    {
      "midi": 38,
      "hit": false,
      "t": 7974.687000000001,
      "d": 202.53173333333325,
      "v": 116
    },
    {
      "midi": 36,
      "hit": false,
      "t": 7987.345233333333,
      "d": 373.4178833333335,
      "v": 122
    },
    {
      "midi": 38,
      "hit": false,
      "t": 8037.978166666666,
      "d": 373.4178833333335,
      "v": 122
    },
    {
      "midi": 38,
      "hit": false,
      "t": 8689.877183333332,
      "d": 291.1393666666663,
      "v": 103
    },
    {
      "midi": 38,
      "hit": false,
      "t": 8734.181,
      "d": 208.86084999999912,
      "v": 106
    },
    {
      "midi": 57,
      "hit": false,
      "t": 8737.345558333329,
      "d": 158.22791666666853,
      "v": 119
    },
    {
      "midi": 50,
      "hit": false,
      "t": 8740.510116666663,
      "d": 151.89880000000085,
      "v": 119
    },
    {
      "midi": 36,
      "hit": false,
      "t": 8746.839233333334,
      "d": 297.468483333334,
      "v": 122
    },
    {
      "midi": 38,
      "hit": false,
      "t": 8756.332908333334,
      "d": 379.7469999999994,
      "v": 119
    },
    {
      "midi": 38,
      "hit": false,
      "t": 8772.1557,
      "d": 294.30392500000016,
      "v": 124
    },
    {
      "midi": 57,
      "hit": false,
      "t": 9139.244466666663,
      "d": 88.60763333333125,
      "v": 113
    },
    {
      "midi": 50,
      "hit": false,
      "t": 9145.57358333333,
      "d": 75.94939999999951,
      "v": 107
    },
    {
      "midi": 34,
      "hit": false,
      "t": 9145.573583333331,
      "d": 658.228133333334,
      "v": 103
    },
    {
      "midi": 46,
      "hit": false,
      "t": 9151.902699999999,
      "d": 623.4179916666671,
      "v": 108
    },
    {
      "midi": 57,
      "hit": false,
      "t": 9518.991466666661,
      "d": 72.78484166666749,
      "v": 127
    },
    {
      "midi": 50,
      "hit": false,
      "t": 9522.156024999995,
      "d": 60.126608333333934,
      "v": 119
    },
    {
      "midi": 57,
      "hit": false,
      "t": 9645.573799999995,
      "d": 69.62028333333365,
      "v": 113
    },
    {
      "midi": 50,
      "hit": false,
      "t": 9648.738358333329,
      "d": 53.79749166666625,
      "v": 107
    },
    {
      "midi": 57,
      "hit": false,
      "t": 9765.827016666663,
      "d": 85.44307499999923,
      "v": 113
    },
    {
      "midi": 50,
      "hit": false,
      "t": 9778.485249999996,
      "d": 44.303816666666535,
      "v": 89
    },
    {
      "midi": 57,
      "hit": false,
      "t": 9867.09288333333,
      "d": 75.94940000000133,
      "v": 72
    },
    {
      "midi": 50,
      "hit": false,
      "t": 9882.915674999997,
      "d": 47.46837500000038,
      "v": 76
    },
    {
      "midi": 45,
      "hit": false,
      "t": 9901.903025,
      "d": 610.7597583333336,
      "v": 106
    },
    {
      "midi": 33,
      "hit": false,
      "t": 9911.396699999998,
      "d": 601.2660833333339,
      "v": 100
    },
    {
      "midi": 48,
      "hit": false,
      "t": 10623.422325,
      "d": 645.5699000000004,
      "v": 100
    },
    {
      "midi": 36,
      "hit": false,
      "t": 10639.245116666665,
      "d": 620.2534333333333,
      "v": 98
    },
    {
      "midi": 57,
      "hit": false,
      "t": 10664.56158333333,
      "d": 79.11395833333518,
      "v": 113
    },
    {
      "midi": 50,
      "hit": false,
      "t": 10667.726141666664,
      "d": 72.78484166666749,
      "v": 102
    },
    {
      "midi": 50,
      "hit": false,
      "t": 11044.308583333332,
      "d": 50.63293333333422,
      "v": 113
    },
    {
      "midi": 57,
      "hit": false,
      "t": 11044.308583333332,
      "d": 53.797491666668066,
      "v": 119
    },
    {
      "midi": 57,
      "hit": false,
      "t": 11151.903566666666,
      "d": 75.94939999999951,
      "v": 113
    },
    {
      "midi": 50,
      "hit": false,
      "t": 11158.232683333332,
      "d": 60.126608333333934,
      "v": 98
    },
    {
      "midi": 57,
      "hit": false,
      "t": 11291.144133333331,
      "d": 139.2405666666673,
      "v": 93
    },
    {
      "midi": 50,
      "hit": false,
      "t": 11297.473249999997,
      "d": 72.78484166666749,
      "v": 89
    },
    {
      "midi": 42,
      "hit": false,
      "t": 11373.42265,
      "d": 2297.4693499999994,
      "v": 114
    },
    {
      "midi": 30,
      "hit": false,
      "t": 11379.751766666664,
      "d": 2303.798466666667,
      "v": 103
    },
    {
      "midi": 57,
      "hit": false,
      "t": 12132.91665,
      "d": 101.26586666666844,
      "v": 107
    },
    {
      "midi": 50,
      "hit": false,
      "t": 12136.081208333333,
      "d": 94.93675000000076,
      "v": 102
    },
    {
      "midi": 59,
      "hit": false,
      "t": 12246.840750000003,
      "d": 88.60763333333307,
      "v": 103
    },
    {
      "midi": 60,
      "hit": false,
      "t": 12341.777500000002,
      "d": 98.10130833333278,
      "v": 85
    },
    {
      "midi": 61,
      "hit": false,
      "t": 12468.359833333334,
      "d": 75.94939999999951,
      "v": 100
    },
    {
      "midi": 57,
      "hit": false,
      "t": 12534.815558333334,
      "d": 101.26586666666662,
      "v": 119
    },
    {
      "midi": 50,
      "hit": false,
      "t": 12541.144675,
      "d": 91.77219166666691,
      "v": 102
    },
    {
      "midi": 74,
      "hit": false,
      "t": 12547.473791666667,
      "d": 474.68375000000015,
      "v": 120
    },
    {
      "midi": 62,
      "hit": false,
      "t": 12553.802908333333,
      "d": 756.3294416666668,
      "v": 116
    },
    {
      "midi": 62,
      "hit": false,
      "t": 12572.790258333334,
      "d": 1094.9371833333335,
      "v": 114
    },
    {
      "midi": 57,
      "hit": false,
      "t": 12933.549908333334,
      "d": 88.60763333333307,
      "v": 113
    },
    {
      "midi": 50,
      "hit": false,
      "t": 12939.879025,
      "d": 85.44307500000104,
      "v": 102
    },
    {
      "midi": 61,
      "hit": false,
      "t": 13291.145,
      "d": 316.45583333333343,
      "v": 98
    },
    {
      "midi": 63,
      "hit": false,
      "t": 13291.145,
      "d": 316.45583333333343,
      "v": 103
    },
    {
      "midi": 50,
      "hit": false,
      "t": 13325.955141666667,
      "d": 53.79749166666625,
      "v": 119
    },
    {
      "midi": 57,
      "hit": false,
      "t": 13325.955141666667,
      "d": 63.29116666666596,
      "v": 119
    },
    {
      "midi": 57,
      "hit": false,
      "t": 13449.372916666667,
      "d": 69.62028333333365,
      "v": 113
    },
    {
      "midi": 50,
      "hit": false,
      "t": 13455.702033333333,
      "d": 50.63293333333422,
      "v": 93
    },
    {
      "midi": 38,
      "hit": false,
      "t": 13509.499525,
      "d": 25.31646666666711,
      "v": 88
    },
    {
      "midi": 38,
      "hit": false,
      "t": 13553.803341666666,
      "d": 31.64558333333298,
      "v": 91
    },
    {
      "midi": 57,
      "hit": false,
      "t": 13566.461575000001,
      "d": 94.93675000000076,
      "v": 113
    },
    {
      "midi": 50,
      "hit": false,
      "t": 13569.626133333335,
      "d": 82.2785166666672,
      "v": 107
    },
    {
      "midi": 38,
      "hit": false,
      "t": 13594.942599999998,
      "d": 37.97470000000067,
      "v": 103
    },
    {
      "midi": 36,
      "hit": false,
      "t": 13686.714791666669,
      "d": 481.012866666666,
      "v": 124
    },
    {
      "midi": 38,
      "hit": false,
      "t": 13705.702141666665,
      "d": 3.1645583333338436,
      "v": 124
    },
    {
      "midi": 50,
      "hit": false,
      "t": 13718.360375,
      "d": 379.7469999999994,
      "v": 110
    },
    {
      "midi": 59,
      "hit": false,
      "t": 13829.119916666667,
      "d": 75.94939999999951,
      "v": 95
    },
    {
      "midi": 60,
      "hit": false,
      "t": 13924.056666666665,
      "d": 66.4557249999998,
      "v": 85
    },
    {
      "midi": 61,
      "hit": false,
      "t": 13987.347833333331,
      "d": 69.62028333333365,
      "v": 100
    },
    {
      "midi": 62,
      "hit": false,
      "t": 14053.803558333335,
      "d": 1012.6586666666662,
      "v": 111
    },
    {
      "midi": 74,
      "hit": false,
      "t": 14063.297233333335,
      "d": 474.68375000000015,
      "v": 120
    },
    {
      "midi": 62,
      "hit": false,
      "t": 14072.790908333332,
      "d": 750.0003249999991,
      "v": 120
    },
    {
      "midi": 57,
      "hit": false,
      "t": 14398.74041666667,
      "d": 94.93674999999894,
      "v": 107
    },
    {
      "midi": 50,
      "hit": false,
      "t": 14405.069533333335,
      "d": 85.44307499999923,
      "v": 102
    },
    {
      "midi": 75,
      "hit": false,
      "t": 14737.348158333332,
      "d": 129.74689166666576,
      "v": 76
    },
    {
      "midi": 57,
      "hit": false,
      "t": 14797.474766666668,
      "d": 63.29116666666778,
      "v": 127
    },
    {
      "midi": 50,
      "hit": false,
      "t": 14800.639325000002,
      "d": 50.63293333333422,
      "v": 113
    },
    {
      "midi": 61,
      "hit": false,
      "t": 14803.803883333332,
      "d": 376.58244166666555,
      "v": 100
    },
    {
      "midi": 63,
      "hit": false,
      "t": 14803.803883333332,
      "d": 379.7469999999994,
      "v": 103
    },
    {
      "midi": 78,
      "hit": false,
      "t": 14822.791233333332,
      "d": 101.26586666666662,
      "v": 90
    },
    {
      "midi": 38,
      "hit": false,
      "t": 14838.614024999999,
      "d": 41.13925833333269,
      "v": 87
    },
    {
      "midi": 82,
      "hit": false,
      "t": 14876.588724999998,
      "d": 104.43042500000229,
      "v": 103
    },
    {
      "midi": 38,
      "hit": false,
      "t": 14908.23430833333,
      "d": 37.97470000000067,
      "v": 92
    },
    {
      "midi": 50,
      "hit": false,
      "t": 14911.39886666667,
      "d": 53.79749166666625,
      "v": 107
    },
    {
      "midi": 57,
      "hit": false,
      "t": 14911.39886666667,
      "d": 56.96205000000009,
      "v": 113
    },
    {
      "midi": 88,
      "hit": false,
      "t": 14962.031799999999,
      "d": 136.07600833333345,
      "v": 76
    },
    {
      "midi": 84,
      "hit": false,
      "t": 14965.196358333333,
      "d": 104.43042500000047,
      "v": 106
    },
    {
      "midi": 38,
      "hit": false,
      "t": 14968.360916666665,
      "d": 28.481024999999136,
      "v": 97
    },
    {
      "midi": 38,
      "hit": false,
      "t": 15012.664733333331,
      "d": 34.81014166666682,
      "v": 99
    },
    {
      "midi": 57,
      "hit": false,
      "t": 15022.158408333336,
      "d": 72.78484166666567,
      "v": 113
    },
    {
      "midi": 50,
      "hit": false,
      "t": 15028.487525000002,
      "d": 69.62028333333365,
      "v": 98
    },
    {
      "midi": 38,
      "hit": false,
      "t": 15060.133108333332,
      "d": 28.481024999999136,
      "v": 103
    },
    {
      "midi": 93,
      "hit": false,
      "t": 15060.133108333333,
      "d": 126.58233333333192,
      "v": 92
    },
    {
      "midi": 38,
      "hit": false,
      "t": 15110.766041666664,
      "d": 56.96205000000009,
      "v": 109
    },
    {
      "midi": 96,
      "hit": false,
      "t": 15155.069858333332,
      "d": 164.55703333333258,
      "v": 100
    },
    {
      "midi": 38,
      "hit": false,
      "t": 15183.550883333332,
      "d": 28.481024999999136,
      "v": 117
    },
    {
      "midi": 46,
      "hit": false,
      "t": 15193.044558333333,
      "d": 626.5825499999992,
      "v": 114
    },
    {
      "midi": 50,
      "hit": false,
      "t": 15199.373674999999,
      "d": 379.7469999999994,
      "v": 110
    },
    {
      "midi": 57,
      "hit": false,
      "t": 15231.019258333334,
      "d": 471.5191916666663,
      "v": 116
    },
    {
      "midi": 85,
      "hit": false,
      "t": 15231.019258333334,
      "d": 481.012866666666,
      "v": 122
    },
    {
      "midi": 34,
      "hit": false,
      "t": 15237.348374999998,
      "d": 639.2407833333327,
      "v": 106
    },
    {
      "midi": 38,
      "hit": false,
      "t": 15246.842049999997,
      "d": 534.8103583333341,
      "v": 124
    },
    {
      "midi": 36,
      "hit": false,
      "t": 15259.500283333335,
      "d": 680.3800416666672,
      "v": 124
    },
    {
      "midi": 57,
      "hit": false,
      "t": 15936.71576666667,
      "d": 94.93675000000076,
      "v": 107
    },
    {
      "midi": 50,
      "hit": false,
      "t": 15939.880325000004,
      "d": 88.60763333333307,
      "v": 113
    },
    {
      "midi": 45,
      "hit": false,
      "t": 15943.044883333332,
      "d": 594.936966666668,
      "v": 108
    },
    {
      "midi": 33,
      "hit": false,
      "t": 15987.348699999997,
      "d": 582.2787333333345,
      "v": 95
    },
    {
      "midi": 57,
      "hit": false,
      "t": 16325.95644166667,
      "d": 63.29116666666778,
      "v": 119
    },
    {
      "midi": 50,
      "hit": false,
      "t": 16329.121000000005,
      "d": 60.126608333333934,
      "v": 113
    },
    {
      "midi": 50,
      "hit": false,
      "t": 16443.045100000007,
      "d": 56.96204999999827,
      "v": 107
    },
    {
      "midi": 57,
      "hit": false,
      "t": 16443.045100000007,
      "d": 63.29116666666596,
      "v": 113
    },
    {
      "midi": 50,
      "hit": false,
      "t": 16553.804641666673,
      "d": 91.77219166666691,
      "v": 107
    },
    {
      "midi": 57,
      "hit": false,
      "t": 16556.969200000007,
      "d": 91.77219166666691,
      "v": 107
    },
    {
      "midi": 36,
      "hit": false,
      "t": 16699.374324999997,
      "d": 607.5951999999997,
      "v": 95
    },
    {
      "midi": 48,
      "hit": false,
      "t": 16708.868,
      "d": 648.7344583333324,
      "v": 100
    },
    {
      "midi": 30,
      "hit": false,
      "t": 17430.3873,
      "d": 1443.0385999999999,
      "v": 103
    },
    {
      "midi": 42,
      "hit": false,
      "t": 17468.361999999997,
      "d": 1465.1905083333331,
      "v": 108
    },
    {
      "midi": 57,
      "hit": false,
      "t": 17484.184791666674,
      "d": 88.60763333333307,
      "v": 113
    },
    {
      "midi": 50,
      "hit": false,
      "t": 17487.349350000008,
      "d": 91.77219166666691,
      "v": 113
    },
    {
      "midi": 57,
      "hit": false,
      "t": 17889.24825833334,
      "d": 53.797491666668066,
      "v": 127
    },
    {
      "midi": 50,
      "hit": false,
      "t": 17892.412816666674,
      "d": 47.46837500000038,
      "v": 119
    },
    {
      "midi": 50,
      "hit": false,
      "t": 18000.007800000007,
      "d": 60.126608333332115,
      "v": 107
    },
    {
      "midi": 57,
      "hit": false,
      "t": 18003.17235833334,
      "d": 60.126608333332115,
      "v": 119
    },
    {
      "midi": 50,
      "hit": false,
      "t": 18126.59013333334,
      "d": 142.40512500000114,
      "v": 93
    },
    {
      "midi": 57,
      "hit": false,
      "t": 18126.59013333334,
      "d": 151.89880000000267,
      "v": 107
    },
    {
      "midi": 50,
      "hit": false,
      "t": 18974.691766666674,
      "d": 82.27851666666538,
      "v": 113
    },
    {
      "midi": 57,
      "hit": false,
      "t": 18974.691766666674,
      "d": 82.27851666666538,
      "v": 127
    },
    {
      "midi": 40,
      "hit": false,
      "t": 19003.172791666664,
      "d": 2050.6337999999996,
      "v": 116
    },
    {
      "midi": 28,
      "hit": false,
      "t": 19041.147491666667,
      "d": 2275.317441666666,
      "v": 87
    },
    {
      "midi": 59,
      "hit": false,
      "t": 19082.28675,
      "d": 66.4557249999998,
      "v": 107
    },
    {
      "midi": 60,
      "hit": false,
      "t": 19177.2235,
      "d": 85.44307499999923,
      "v": 108
    },
    {
      "midi": 61,
      "hit": false,
      "t": 19272.16025,
      "d": 72.78484166666749,
      "v": 111
    },
    {
      "midi": 57,
      "hit": false,
      "t": 19354.438766666673,
      "d": 56.96205000000191,
      "v": 113
    },
    {
      "midi": 50,
      "hit": false,
      "t": 19357.603325000007,
      "d": 44.303816666666535,
      "v": 102
    },
    {
      "midi": 62,
      "hit": false,
      "t": 19373.42611666667,
      "d": 1389.2411083333318,
      "v": 103
    },
    {
      "midi": 74,
      "hit": false,
      "t": 19386.08435,
      "d": 474.68375000000015,
      "v": 120
    },
    {
      "midi": 62,
      "hit": false,
      "t": 19405.0717,
      "d": 759.4939999999988,
      "v": 112
    },
    {
      "midi": 50,
      "hit": false,
      "t": 19484.185658333343,
      "d": 53.797491666668066,
      "v": 93
    },
    {
      "midi": 57,
      "hit": false,
      "t": 19484.185658333343,
      "d": 56.96205000000191,
      "v": 107
    },
    {
      "midi": 57,
      "hit": false,
      "t": 19610.76799166668,
      "d": 132.9114499999996,
      "v": 98
    },
    {
      "midi": 50,
      "hit": false,
      "t": 19613.932550000012,
      "d": 117.08865833333402,
      "v": 76
    },
    {
      "midi": 58,
      "hit": false,
      "t": 20044.312483333346,
      "d": 107.5949833333325,
      "v": 119
    },
    {
      "midi": 50,
      "hit": false,
      "t": 20056.970716666678,
      "d": 72.78484166666749,
      "v": 98
    },
    {
      "midi": 52,
      "hit": false,
      "t": 20066.46439166668,
      "d": 37.97469999999885,
      "v": 93
    },
    {
      "midi": 63,
      "hit": false,
      "t": 20148.742908333334,
      "d": 737.3420916666655,
      "v": 103
    },
    {
      "midi": 61,
      "hit": false,
      "t": 20148.742908333334,
      "d": 737.3420916666655,
      "v": 103
    },
    {
      "midi": 57,
      "hit": false,
      "t": 20512.66711666668,
      "d": 91.77219166666691,
      "v": 98
    },
    {
      "midi": 50,
      "hit": false,
      "t": 20515.831675000012,
      "d": 91.77219166666691,
      "v": 85
    },
    {
      "midi": 62,
      "hit": false,
      "t": 20892.414116666667,
      "d": 784.8104666666659,
      "v": 114
    },
    {
      "midi": 62,
      "hit": false,
      "t": 20905.072350000002,
      "d": 1215.1903999999995,
      "v": 111
    },
    {
      "midi": 74,
      "hit": false,
      "t": 20939.882491666667,
      "d": 474.68375000000015,
      "v": 120
    },
    {
      "midi": 50,
      "hit": false,
      "t": 20949.37616666668,
      "d": 88.60763333333307,
      "v": 107
    },
    {
      "midi": 57,
      "hit": false,
      "t": 20949.37616666668,
      "d": 91.77219166666691,
      "v": 113
    },
    {
      "midi": 50,
      "hit": false,
      "t": 21316.464933333347,
      "d": 85.44307499999923,
      "v": 85
    },
    {
      "midi": 57,
      "hit": false,
      "t": 21316.464933333347,
      "d": 91.77219166666691,
      "v": 102
    },
    {
      "midi": 63,
      "hit": false,
      "t": 21661.401791666667,
      "d": 376.58244166666555,
      "v": 106
    },
    {
      "midi": 61,
      "hit": false,
      "t": 21664.56635,
      "d": 389.2406750000009,
      "v": 103
    },
    {
      "midi": 58,
      "hit": false,
      "t": 21693.047375000013,
      "d": 129.74689166666576,
      "v": 127
    },
    {
      "midi": 50,
      "hit": false,
      "t": 21705.705608333345,
      "d": 94.93675000000076,
      "v": 113
    },
    {
      "midi": 64,
      "hit": false,
      "t": 22047.477908333334,
      "d": 955.696616666668,
      "v": 90
    },
    {
      "midi": 60,
      "hit": false,
      "t": 22050.642466666668,
      "d": 949.3675000000003,
      "v": 100
    },
    {
      "midi": 57,
      "hit": false,
      "t": 22072.794375000012,
      "d": 88.60763333333671,
      "v": 98
    },
    {
      "midi": 50,
      "hit": false,
      "t": 22079.12349166668,
      "d": 72.78484166666749,
      "v": 76
    },
    {
      "midi": 60,
      "hit": false,
      "t": 22085.452608333337,
      "d": 1129.7473250000003,
      "v": 85
    },
    {
      "midi": 64,
      "hit": false,
      "t": 22085.452608333337,
      "d": 1139.2410000000018,
      "v": 91
    },
    {
      "midi": 75,
      "hit": false,
      "t": 22446.212258333333,
      "d": 85.44307499999923,
      "v": 87
    },
    {
      "midi": 57,
      "hit": false,
      "t": 22465.19960833335,
      "d": 91.77219166666691,
      "v": 107
    },
    {
      "midi": 50,
      "hit": false,
      "t": 22468.364166666684,
      "d": 82.27851666666538,
      "v": 93
    },
    {
      "midi": 78,
      "hit": false,
      "t": 22518.9971,
      "d": 79.11395833333154,
      "v": 98
    },
    {
      "midi": 82,
      "hit": false,
      "t": 22582.288266666666,
      "d": 60.126608333332115,
      "v": 100
    },
    {
      "midi": 84,
      "hit": false,
      "t": 22642.414875,
      "d": 79.11395833333154,
      "v": 91
    },
    {
      "midi": 88,
      "hit": false,
      "t": 22699.376924999997,
      "d": 69.62028333333365,
      "v": 98
    },
    {
      "midi": 93,
      "hit": false,
      "t": 22765.832649999997,
      "d": 66.45572500000344,
      "v": 100
    },
    {
      "midi": 36,
      "hit": false,
      "t": 22800.64279166667,
      "d": 306.9621583333319,
      "v": 122
    },
    {
      "midi": 96,
      "hit": false,
      "t": 22822.7947,
      "d": 110.75954166666997,
      "v": 81
    },
    {
      "midi": 38,
      "hit": false,
      "t": 22825.959258333332,
      "d": 129.74689166666576,
      "v": 116
    },
    {
      "midi": 57,
      "hit": false,
      "t": 22825.95925833335,
      "d": 94.93675000000076,
      "v": 102
    },
    {
      "midi": 50,
      "hit": false,
      "t": 22829.123816666684,
      "d": 85.44307499999923,
      "v": 89
    },
    {
      "midi": 38,
      "hit": false,
      "t": 23072.794808333332,
      "d": 34.810141666665004,
      "v": 100
    },
    {
      "midi": 38,
      "hit": false,
      "t": 23132.921416666664,
      "d": 44.303816666666535,
      "v": 108
    },
    {
      "midi": 50,
      "hit": false,
      "t": 23174.060675,
      "d": 379.7469999999994,
      "v": 110
    },
    {
      "midi": 58,
      "hit": false,
      "t": 23180.389791666683,
      "d": 117.08865833333402,
      "v": 119
    },
    {
      "midi": 50,
      "hit": false,
      "t": 23189.883466666684,
      "d": 91.77219166666691,
      "v": 113
    },
    {
      "midi": 38,
      "hit": false,
      "t": 23193.048024999996,
      "d": 284.81024999999863,
      "v": 124
    },
    {
      "midi": 36,
      "hit": false,
      "t": 23196.212583333334,
      "d": 395.56979166666497,
      "v": 121
    },
    {
      "midi": 57,
      "hit": false,
      "t": 23518.99753333335,
      "d": 101.26586666666844,
      "v": 102
    },
    {
      "midi": 50,
      "hit": false,
      "t": 23528.49120833335,
      "d": 75.94940000000133,
      "v": 85
    },
    {
      "midi": 34,
      "hit": false,
      "t": 23569.630466666666,
      "d": 981.0130833333351,
      "v": 106
    },
    {
      "midi": 46,
      "hit": false,
      "t": 23594.94693333333,
      "d": 971.5194083333336,
      "v": 114
    },
    {
      "midi": 58,
      "hit": false,
      "t": 23601.276050000004,
      "d": 996.8358750000007,
      "v": 106
    },
    {
      "midi": 70,
      "hit": false,
      "t": 23607.605166666668,
      "d": 968.3548499999997,
      "v": 114
    },
    {
      "midi": 57,
      "hit": false,
      "t": 23924.06100000002,
      "d": 91.77219166666691,
      "v": 113
    },
    {
      "midi": 50,
      "hit": false,
      "t": 23927.225558333354,
      "d": 82.27851666666538,
      "v": 107
    },
    {
      "midi": 38,
      "hit": false,
      "t": 24174.061108333328,
      "d": 37.97469999999885,
      "v": 108
    },
    {
      "midi": 38,
      "hit": false,
      "t": 24227.858599999992,
      "d": 47.46837500000038,
      "v": 108
    },
    {
      "midi": 50,
      "hit": false,
      "t": 24281.656091666668,
      "d": 379.7469999999994,
      "v": 110
    },
    {
      "midi": 38,
      "hit": false,
      "t": 24303.807999999994,
      "d": 240.5064333333321,
      "v": 122
    },
    {
      "midi": 36,
      "hit": false,
      "t": 24303.807999999997,
      "d": 272.1520166666669,
      "v": 124
    },
    {
      "midi": 57,
      "hit": false,
      "t": 24313.30167500002,
      "d": 88.60763333333307,
      "v": 107
    },
    {
      "midi": 50,
      "hit": false,
      "t": 24319.63079166669,
      "d": 69.62028333333365,
      "v": 93
    },
    {
      "midi": 57,
      "hit": false,
      "t": 24674.06132500002,
      "d": 91.77219166666691,
      "v": 107
    },
    {
      "midi": 50,
      "hit": false,
      "t": 24680.39044166669,
      "d": 79.11395833333154,
      "v": 93
    },
    {
      "midi": 33,
      "hit": false,
      "t": 24686.719558333334,
      "d": 670.8863666666657,
      "v": 106
    },
    {
      "midi": 45,
      "hit": false,
      "t": 24696.21323333333,
      "d": 655.0635750000001,
      "v": 114
    },
    {
      "midi": 57,
      "hit": false,
      "t": 24721.529700000006,
      "d": 674.0509249999996,
      "v": 106
    },
    {
      "midi": 69,
      "hit": false,
      "t": 24724.694258333333,
      "d": 636.0762250000007,
      "v": 111
    },
    {
      "midi": 57,
      "hit": false,
      "t": 25050.643766666686,
      "d": 66.45572500000344,
      "v": 107
    },
    {
      "midi": 50,
      "hit": false,
      "t": 25060.137441666688,
      "d": 47.46837500000038,
      "v": 85
    },
    {
      "midi": 50,
      "hit": false,
      "t": 25193.04889166669,
      "d": 53.797491666668066,
      "v": 98
    },
    {
      "midi": 57,
      "hit": false,
      "t": 25193.04889166669,
      "d": 63.2911666666696,
      "v": 113
    },
    {
      "midi": 57,
      "hit": false,
      "t": 25325.960341666694,
      "d": 63.29116666666596,
      "v": 98
    },
    {
      "midi": 50,
      "hit": false,
      "t": 25341.78313333336,
      "d": 31.6455833333348,
      "v": 62
    },
    {
      "midi": 57,
      "hit": false,
      "t": 25443.049000000028,
      "d": 88.60763333333671,
      "v": 107
    },
    {
      "midi": 50,
      "hit": false,
      "t": 25452.54267500003,
      "d": 75.94940000000133,
      "v": 93
    },
    {
      "midi": 36,
      "hit": false,
      "t": 25455.707233333334,
      "d": 1069.6207166666682,
      "v": 100
    },
    {
      "midi": 72,
      "hit": false,
      "t": 25465.200908333332,
      "d": 952.5320583333341,
      "v": 100
    },
    {
      "midi": 48,
      "hit": false,
      "t": 25471.530024999996,
      "d": 958.8611750000018,
      "v": 106
    },
    {
      "midi": 60,
      "hit": false,
      "t": 25503.17560833334,
      "d": 968.3548499999997,
      "v": 103
    },
    {
      "midi": 57,
      "hit": false,
      "t": 25838.618791666697,
      "d": 82.27851666666538,
      "v": 107
    },
    {
      "midi": 50,
      "hit": false,
      "t": 25848.1124666667,
      "d": 56.96204999999827,
      "v": 89
    },
    {
      "midi": 58,
      "hit": false,
      "t": 26202.54300000003,
      "d": 123.41777500000171,
      "v": 113
    },
    {
      "midi": 50,
      "hit": false,
      "t": 26224.694908333364,
      "d": 75.94940000000133,
      "v": 93
    },
    {
      "midi": 42,
      "hit": false,
      "t": 26569.631766666665,
      "d": 670.8863666666657,
      "v": 108
    },
    {
      "midi": 57,
      "hit": false,
      "t": 26575.960883333366,
      "d": 98.10130833333096,
      "v": 107
    },
    {
      "midi": 66,
      "hit": false,
      "t": 26582.29,
      "d": 629.747108333333,
      "v": 114
    },
    {
      "midi": 50,
      "hit": false,
      "t": 26591.78367500003,
      "d": 66.4557249999998,
      "v": 89
    },
    {
      "midi": 54,
      "hit": false,
      "t": 26604.441908333338,
      "d": 645.5698999999986,
      "v": 108
    },
    {
      "midi": 30,
      "hit": false,
      "t": 26617.10014166667,
      "d": 648.7344583333324,
      "v": 108
    },
    {
      "midi": 57,
      "hit": false,
      "t": 26962.03700000003,
      "d": 98.1013083333346,
      "v": 113
    },
    {
      "midi": 50,
      "hit": false,
      "t": 26971.53067500003,
      "d": 79.11395833333154,
      "v": 102
    },
    {
      "midi": 57,
      "hit": false,
      "t": 27325.961208333363,
      "d": 63.29116666666596,
      "v": 107
    },
    {
      "midi": 50,
      "hit": false,
      "t": 27341.78400000003,
      "d": 31.6455833333348,
      "v": 68
    },
    {
      "midi": 64,
      "hit": false,
      "t": 27357.60679166667,
      "d": 629.747108333333,
      "v": 106
    },
    {
      "midi": 40,
      "hit": false,
      "t": 27360.77135,
      "d": 674.0509249999996,
      "v": 108
    },
    {
      "midi": 28,
      "hit": false,
      "t": 27367.10046666667,
      "d": 601.2660833333321,
      "v": 103
    },
    {
      "midi": 52,
      "hit": false,
      "t": 27382.923258333336,
      "d": 604.4306416666659,
      "v": 106
    },
    {
      "midi": 57,
      "hit": false,
      "t": 27452.543541666695,
      "d": 72.78484166666749,
      "v": 107
    },
    {
      "midi": 50,
      "hit": false,
      "t": 27455.70810000003,
      "d": 63.29116666666596,
      "v": 102
    },
    {
      "midi": 57,
      "hit": false,
      "t": 27601.277783333364,
      "d": 56.96205000000191,
      "v": 113
    },
    {
      "midi": 50,
      "hit": false,
      "t": 27610.771458333365,
      "d": 31.6455833333348,
      "v": 64
    },
    {
      "midi": 57,
      "hit": false,
      "t": 27712.037325000034,
      "d": 104.43042499999865,
      "v": 113
    },
    {
      "midi": 50,
      "hit": false,
      "t": 27718.3664416667,
      "d": 85.44307499999923,
      "v": 102
    },
    {
      "midi": 27,
      "hit": false,
      "t": 28063.303300000003,
      "d": 651.8990166666663,
      "v": 100
    },
    {
      "midi": 51,
      "hit": false,
      "t": 28075.961533333335,
      "d": 626.5825499999992,
      "v": 100
    },
    {
      "midi": 39,
      "hit": false,
      "t": 28107.607116666666,
      "d": 582.2787333333326,
      "v": 103
    },
    {
      "midi": 63,
      "hit": false,
      "t": 28123.429908333335,
      "d": 585.4432916666665,
      "v": 106
    },
    {
      "midi": 57,
      "hit": false,
      "t": 28132.923583333366,
      "d": 85.44307500000286,
      "v": 89
    },
    {
      "midi": 55,
      "hit": false,
      "t": 28136.0881416667,
      "d": 79.11395833333518,
      "v": 102
    },
    {
      "midi": 50,
      "hit": false,
      "t": 28145.5818166667,
      "d": 53.797491666668066,
      "v": 76
    },
    {
      "midi": 48,
      "hit": false,
      "t": 28151.91093333337,
      "d": 47.46837500000038,
      "v": 64
    },
    {
      "midi": 58,
      "hit": false,
      "t": 28490.518675000036,
      "d": 104.43042499999865,
      "v": 113
    },
    {
      "midi": 50,
      "hit": false,
      "t": 28506.3414666667,
      "d": 69.62028333333365,
      "v": 89
    },
    {
      "midi": 26,
      "hit": false,
      "t": 28825.961858333336,
      "d": 1566.456374999998,
      "v": 95
    },
    {
      "midi": 57,
      "hit": false,
      "t": 28825.96185833337,
      "d": 107.59498333333613,
      "v": 113
    },
    {
      "midi": 50,
      "hit": false,
      "t": 28832.290975000036,
      "d": 91.77219166666691,
      "v": 93
    },
    {
      "midi": 38,
      "hit": false,
      "t": 28848.113766666665,
      "d": 1547.4690249999985,
      "v": 114
    },
    {
      "midi": 50,
      "hit": false,
      "t": 28854.442883333333,
      "d": 1525.3171166666652,
      "v": 114
    },
    {
      "midi": 62,
      "hit": false,
      "t": 28879.75935,
      "d": 1579.1146083333333,
      "v": 100
    },
    {
      "midi": 62,
      "hit": false,
      "t": 28908.240375,
      "d": 398.7343499999988,
      "v": 95
    },
    {
      "midi": 57,
      "hit": false,
      "t": 29208.873416666705,
      "d": 98.1013083333346,
      "v": 113
    },
    {
      "midi": 50,
      "hit": false,
      "t": 29215.202533333373,
      "d": 88.60763333333307,
      "v": 93
    },
    {
      "midi": 64,
      "hit": false,
      "t": 29281.658258333333,
      "d": 82.27851666666902,
      "v": 61
    },
    {
      "midi": 65,
      "hit": false,
      "t": 29357.607658333334,
      "d": 63.29116666666596,
      "v": 78
    },
    {
      "midi": 67,
      "hit": false,
      "t": 29405.076033333335,
      "d": 63.29116666666232,
      "v": 93
    },
    {
      "midi": 69,
      "hit": false,
      "t": 29455.708966666665,
      "d": 60.12660833332848,
      "v": 90
    },
    {
      "midi": 71,
      "hit": false,
      "t": 29503.177341666662,
      "d": 60.126608333332115,
      "v": 95
    },
    {
      "midi": 72,
      "hit": false,
      "t": 29547.48115833333,
      "d": 69.62028333333001,
      "v": 93
    },
    {
      "midi": 57,
      "hit": false,
      "t": 29566.468508333375,
      "d": 69.62028333333365,
      "v": 107
    },
    {
      "midi": 50,
      "hit": false,
      "t": 29572.797625000043,
      "d": 60.126608333332115,
      "v": 93
    },
    {
      "midi": 74,
      "hit": false,
      "t": 29601.278649999993,
      "d": 759.4939999999988,
      "v": 90
    },
    {
      "midi": 51,
      "hit": false,
      "t": 29623.430558333337,
      "d": 180.37982499999998,
      "v": 66
    },
    {
      "midi": 38,
      "hit": false,
      "t": 29655.076141666657,
      "d": 47.46837500000038,
      "v": 96
    },
    {
      "midi": 57,
      "hit": false,
      "t": 29712.03819166671,
      "d": 66.4557249999998,
      "v": 107
    },
    {
      "midi": 54,
      "hit": false,
      "t": 29715.202750000004,
      "d": 113.92410000000018,
      "v": 69
    },
    {
      "midi": 50,
      "hit": false,
      "t": 29715.202750000044,
      "d": 50.63293333333422,
      "v": 93
    },
    {
      "midi": 38,
      "hit": false,
      "t": 29721.531866666657,
      "d": 37.97469999999885,
      "v": 93
    },
    {
      "midi": 38,
      "hit": false,
      "t": 29784.823033333323,
      "d": 34.810141666665004,
      "v": 91
    },
    {
      "midi": 57,
      "hit": false,
      "t": 29791.152150000005,
      "d": 75.9493999999977,
      "v": 70
    },
    {
      "midi": 38,
      "hit": false,
      "t": 29838.620524999988,
      "d": 28.481025000000955,
      "v": 91
    },
    {
      "midi": 57,
      "hit": false,
      "t": 29844.94964166671,
      "d": 69.62028333333365,
      "v": 107
    },
    {
      "midi": 61,
      "hit": false,
      "t": 29848.114200000004,
      "d": 155.06335833333287,
      "v": 71
    },
    {
      "midi": 50,
      "hit": false,
      "t": 29851.278758333377,
      "d": 47.46837500000038,
      "v": 89
    },
    {
      "midi": 38,
      "hit": false,
      "t": 29889.25345833332,
      "d": 34.810141666665004,
      "v": 91
    },
    {
      "midi": 63,
      "hit": false,
      "t": 29914.569925000003,
      "d": 101.2658666666648,
      "v": 74
    },
    {
      "midi": 38,
      "hit": false,
      "t": 29946.21550833332,
      "d": 31.6455833333348,
      "v": 91
    },
    {
      "midi": 57,
      "hit": false,
      "t": 29949.38006666671,
      "d": 91.77219166666691,
      "v": 98
    },
    {
      "midi": 50,
      "hit": false,
      "t": 29955.709183333376,
      "d": 79.11395833333154,
      "v": 85
    },
    {
      "midi": 66,
      "hit": false,
      "t": 29987.35476666667,
      "d": 113.92409999999654,
      "v": 77
    },
    {
      "midi": 38,
      "hit": false,
      "t": 29993.68388333332,
      "d": 34.810141666665004,
      "v": 91
    },
    {
      "midi": 38,
      "hit": false,
      "t": 30019.000350000002,
      "d": 37.97469999999885,
      "v": 88
    },
    {
      "midi": 71,
      "hit": false,
      "t": 30044.31681666667,
      "d": 94.93674999999712,
      "v": 75
    },
    {
      "midi": 38,
      "hit": false,
      "t": 30047.481374999985,
      "d": 34.810141666665004,
      "v": 92
    },
    {
      "midi": 69,
      "hit": false,
      "t": 30079.126958333334,
      "d": 75.9493999999977,
      "v": 76
    },
    {
      "midi": 38,
      "hit": false,
      "t": 30085.456075000002,
      "d": 34.810141666665004,
      "v": 72
    },
    {
      "midi": 38,
      "hit": false,
      "t": 30094.94974999998,
      "d": 41.13925833333269,
      "v": 92
    },
    {
      "midi": 38,
      "hit": false,
      "t": 30129.75989166667,
      "d": 34.810141666665004,
      "v": 74
    },
    {
      "midi": 38,
      "hit": false,
      "t": 30148.747241666646,
      "d": 37.97469999999885,
      "v": 93
    },
    {
      "midi": 73,
      "hit": false,
      "t": 30161.405475,
      "d": 22.151908333333267,
      "v": 75
    },
    {
      "midi": 38,
      "hit": false,
      "t": 30189.8865,
      "d": 31.6455833333348,
      "v": 72
    },
    {
      "midi": 38,
      "hit": false,
      "t": 30199.380174999977,
      "d": 31.6455833333348,
      "v": 96
    },
    {
      "midi": 38,
      "hit": false,
      "t": 30234.190316666667,
      "d": 31.6455833333348,
      "v": 72
    },
    {
      "midi": 75,
      "hit": false,
      "t": 30246.84855,
      "d": 85.44307499999923,
      "v": 73
    },
    {
      "midi": 38,
      "hit": false,
      "t": 30250.01310833331,
      "d": 31.6455833333348,
      "v": 99
    },
    {
      "midi": 38,
      "hit": false,
      "t": 30281.658691666667,
      "d": 34.810141666665004,
      "v": 72
    },
    {
      "midi": 38,
      "hit": false,
      "t": 30291.152366666647,
      "d": 31.6455833333348,
      "v": 104
    },
    {
      "midi": 78,
      "hit": false,
      "t": 30319.633391666666,
      "d": 88.60763333333307,
      "v": 72
    },
    {
      "midi": 38,
      "hit": false,
      "t": 30325.962508333334,
      "d": 28.481025000000955,
      "v": 72
    },
    {
      "midi": 38,
      "hit": false,
      "t": 30341.78529999998,
      "d": 34.810141666665004,
      "v": 111
    },
    {
      "midi": 57,
      "hit": false,
      "t": 30357.60809166671,
      "d": 104.43042500000229,
      "v": 113
    },
    {
      "midi": 50,
      "hit": false,
      "t": 30360.772650000043,
      "d": 94.93675000000076,
      "v": 102
    },
    {
      "midi": 38,
      "hit": false,
      "t": 30370.266325,
      "d": 18.987349999999424,
      "v": 62
    },
    {
      "midi": 37,
      "hit": false,
      "t": 30379.760000000002,
      "d": 82.27851666666538,
      "v": 114
    },
    {
      "midi": 49,
      "hit": false,
      "t": 30382.924558333314,
      "d": 575.949616666665,
      "v": 119
    },
    {
      "midi": 38,
      "hit": false,
      "t": 30398.74735,
      "d": 79.11395833333154,
      "v": 64
    },
    {
      "midi": 59,
      "hit": false,
      "t": 30411.405583333333,
      "d": 1617.0893083333322,
      "v": 103
    },
    {
      "midi": 81,
      "hit": false,
      "t": 30411.405583333333,
      "d": 91.77219166666691,
      "v": 71
    },
    {
      "midi": 73,
      "hit": false,
      "t": 30424.06381666667,
      "d": 2655.064441666662,
      "v": 103
    },
    {
      "midi": 85,
      "hit": false,
      "t": 30424.06381666667,
      "d": 2655.064441666662,
      "v": 106
    },
    {
      "midi": 73,
      "hit": false,
      "t": 30443.051166666657,
      "d": 2699.3682583333357,
      "v": 93
    },
    {
      "midi": 85,
      "hit": false,
      "t": 30474.69675,
      "d": 215.18996666666862,
      "v": 72
    },
    {
      "midi": 38,
      "hit": false,
      "t": 30594.949966666667,
      "d": 34.810141666665004,
      "v": 51
    },
    {
      "midi": 38,
      "hit": false,
      "t": 30680.393041666666,
      "d": 34.810141666665004,
      "v": 54
    },
    {
      "midi": 58,
      "hit": false,
      "t": 30718.367741666712,
      "d": 117.08865833333402,
      "v": 113
    },
    {
      "midi": 50,
      "hit": false,
      "t": 30737.35509166671,
      "d": 94.93675000000076,
      "v": 93
    },
    {
      "midi": 37,
      "hit": false,
      "t": 30759.507,
      "d": 82.27851666666538,
      "v": 106
    },
    {
      "midi": 38,
      "hit": false,
      "t": 30772.16523333333,
      "d": 44.303816666666535,
      "v": 60
    },
    {
      "midi": 38,
      "hit": false,
      "t": 30863.937424999996,
      "d": 34.810141666665004,
      "v": 51
    },
    {
      "midi": 38,
      "hit": false,
      "t": 30955.70961666666,
      "d": 34.810141666665004,
      "v": 54
    },
    {
      "midi": 38,
      "hit": false,
      "t": 31044.317249999993,
      "d": 31.6455833333348,
      "v": 51
    },
    {
      "midi": 57,
      "hit": false,
      "t": 31104.44385833338,
      "d": 104.43042499999865,
      "v": 113
    },
    {
      "midi": 50,
      "hit": false,
      "t": 31113.93753333338,
      "d": 82.27851666666538,
      "v": 93
    },
    {
      "midi": 37,
      "hit": false,
      "t": 31139.254,
      "d": 82.27851666666538,
      "v": 103
    },
    {
      "midi": 38,
      "hit": false,
      "t": 31151.91223333333,
      "d": 72.78484166666749,
      "v": 64
    },
    {
      "midi": 49,
      "hit": false,
      "t": 31174.064141666644,
      "d": 474.68375000000015,
      "v": 76
    },
    {
      "midi": 38,
      "hit": false,
      "t": 31351.27940833333,
      "d": 28.481025000000955,
      "v": 57
    },
    {
      "midi": 38,
      "hit": false,
      "t": 31449.380716666663,
      "d": 31.6455833333348,
      "v": 57
    },
    {
      "midi": 57,
      "hit": false,
      "t": 31477.86174166671,
      "d": 88.60763333333671,
      "v": 107
    },
    {
      "midi": 50,
      "hit": false,
      "t": 31484.19085833338,
      "d": 72.78484166666749,
      "v": 85
    },
    {
      "midi": 37,
      "hit": false,
      "t": 31519.001,
      "d": 82.27851666666538,
      "v": 103
    },
    {
      "midi": 38,
      "hit": false,
      "t": 31544.317466666667,
      "d": 25.31646666666711,
      "v": 71
    },
    {
      "midi": 38,
      "hit": false,
      "t": 31598.114958333335,
      "d": 22.151908333333267,
      "v": 56
    },
    {
      "midi": 38,
      "hit": false,
      "t": 31642.418775000002,
      "d": 34.810141666665004,
      "v": 57
    },
    {
      "midi": 38,
      "hit": false,
      "t": 31740.520083333333,
      "d": 28.481025000000955,
      "v": 60
    },
    {
      "midi": 57,
      "hit": false,
      "t": 31848.115066666716,
      "d": 66.4557249999998,
      "v": 107
    },
    {
      "midi": 50,
      "hit": false,
      "t": 31863.937858333382,
      "d": 41.13925833333269,
      "v": 80
    },
    {
      "midi": 38,
      "hit": false,
      "t": 31873.431533333332,
      "d": 3.1645583333338436,
      "v": 63
    },
    {
      "midi": 37,
      "hit": false,
      "t": 31898.748,
      "d": 82.27851666666538,
      "v": 106
    },
    {
      "midi": 38,
      "hit": false,
      "t": 31917.73535,
      "d": 79.11395833333154,
      "v": 65
    },
    {
      "midi": 49,
      "hit": false,
      "t": 31930.393583333313,
      "d": 518.9875666666667,
      "v": 91
    },
    {
      "midi": 57,
      "hit": false,
      "t": 31977.861958333382,
      "d": 69.62028333333728,
      "v": 107
    },
    {
      "midi": 50,
      "hit": false,
      "t": 31987.355633333384,
      "d": 50.63293333333422,
      "v": 102
    },
    {
      "midi": 38,
      "hit": false,
      "t": 32113.937966666665,
      "d": 34.810141666665004,
      "v": 52
    },
    {
      "midi": 57,
      "hit": false,
      "t": 32113.93796666672,
      "d": 75.94940000000133,
      "v": 107
    },
    {
      "midi": 50,
      "hit": false,
      "t": 32120.267083333387,
      "d": 60.126608333332115,
      "v": 89
    },
    {
      "midi": 38,
      "hit": false,
      "t": 32199.381041666664,
      "d": 34.810141666665004,
      "v": 54
    },
    {
      "midi": 37,
      "hit": false,
      "t": 32278.495,
      "d": 82.27851666666538,
      "v": 103
    },
    {
      "midi": 58,
      "hit": false,
      "t": 32281.659558333387,
      "d": 104.43042499999865,
      "v": 119
    },
    {
      "midi": 38,
      "hit": false,
      "t": 32291.153233333327,
      "d": 44.303816666666535,
      "v": 61
    },
    {
      "midi": 50,
      "hit": false,
      "t": 32294.31779166672,
      "d": 60.126608333332115,
      "v": 72
    },
    {
      "midi": 38,
      "hit": false,
      "t": 32382.925424999994,
      "d": 34.810141666665004,
      "v": 52
    },
    {
      "midi": 38,
      "hit": false,
      "t": 32474.697616666657,
      "d": 34.810141666665004,
      "v": 54
    },
    {
      "midi": 38,
      "hit": false,
      "t": 32563.30524999999,
      "d": 31.6455833333348,
      "v": 52
    },
    {
      "midi": 57,
      "hit": false,
      "t": 32626.596416666718,
      "d": 101.26586666666844,
      "v": 113
    },
    {
      "midi": 50,
      "hit": false,
      "t": 32636.09009166672,
      "d": 85.44307499999923,
      "v": 93
    },
    {
      "midi": 37,
      "hit": false,
      "t": 32658.242,
      "d": 82.27851666666538,
      "v": 100
    },
    {
      "midi": 38,
      "hit": false,
      "t": 32670.900233333326,
      "d": 72.78484166666749,
      "v": 65
    },
    {
      "midi": 49,
      "hit": false,
      "t": 32674.064791666646,
      "d": 537.9749166666697,
      "v": 87
    },
    {
      "midi": 38,
      "hit": false,
      "t": 32870.267408333326,
      "d": 28.481025000000955,
      "v": 57
    },
    {
      "midi": 38,
      "hit": false,
      "t": 32968.36871666666,
      "d": 31.64558333333116,
      "v": 57
    },
    {
      "midi": 50,
      "hit": false,
      "t": 33015.83709166672,
      "d": 85.44307500000286,
      "v": 93
    },
    {
      "midi": 57,
      "hit": false,
      "t": 33015.83709166672,
      "d": 91.77219166667055,
      "v": 107
    },
    {
      "midi": 37,
      "hit": false,
      "t": 33037.988999999994,
      "d": 82.27851666666538,
      "v": 100
    },
    {
      "midi": 38,
      "hit": false,
      "t": 33063.30546666665,
      "d": 25.316466666663473,
      "v": 64
    },
    {
      "midi": 38,
      "hit": false,
      "t": 33117.102958333315,
      "d": 22.151908333333267,
      "v": 45
    },
    {
      "midi": 38,
      "hit": false,
      "t": 33161.40677499998,
      "d": 34.81014166666864,
      "v": 47
    },
    {
      "midi": 38,
      "hit": false,
      "t": 33259.50808333332,
      "d": 28.481025000000955,
      "v": 52
    },
    {
      "midi": 38,
      "hit": false,
      "t": 33392.41953333332,
      "d": 3.1645583333302056,
      "v": 63
    },
    {
      "midi": 57,
      "hit": false,
      "t": 33395.58409166672,
      "d": 56.96204999999463,
      "v": 107
    },
    {
      "midi": 50,
      "hit": false,
      "t": 33405.07776666672,
      "d": 37.97469999999885,
      "v": 64
    },
    {
      "midi": 37,
      "hit": false,
      "t": 33417.73599999999,
      "d": 82.27851666666538,
      "v": 95
    },
    {
      "midi": 38,
      "hit": false,
      "t": 33436.723349999986,
      "d": 79.11395833333518,
      "v": 66
    },
    {
      "midi": 49,
      "hit": false,
      "t": 33439.887908333316,
      "d": 509.49389166666515,
      "v": 74
    },
    {
      "midi": 50,
      "hit": false,
      "t": 33531.66010000005,
      "d": 50.63293333333422,
      "v": 64
    },
    {
      "midi": 57,
      "hit": false,
      "t": 33531.66010000005,
      "d": 60.126608333332115,
      "v": 93
    },
    {
      "midi": 38,
      "hit": false,
      "t": 33632.925966666655,
      "d": 34.81014166666864,
      "v": 53
    },
    {
      "midi": 50,
      "hit": false,
      "t": 33651.913316666716,
      "d": 44.303816666666535,
      "v": 64
    },
    {
      "midi": 57,
      "hit": false,
      "t": 33655.077875000046,
      "d": 44.303816666666535,
      "v": 89
    },
    {
      "midi": 38,
      "hit": false,
      "t": 33718.36904166666,
      "d": 34.81014166666864,
      "v": 55
    },
    {
      "midi": 58,
      "hit": false,
      "t": 33765.83741666671,
      "d": 101.26586666666117,
      "v": 98
    },
    {
      "midi": 50,
      "hit": false,
      "t": 33781.66020833338,
      "d": 60.126608333332115,
      "v": 89
    },
    {
      "midi": 37,
      "hit": false,
      "t": 33797.482999999986,
      "d": 82.27851666666538,
      "v": 98
    },
    {
      "midi": 38,
      "hit": false,
      "t": 33810.14123333333,
      "d": 44.303816666666535,
      "v": 61
    },
    {
      "midi": 38,
      "hit": false,
      "t": 33901.91342499999,
      "d": 34.81014166666864,
      "v": 53
    },
    {
      "midi": 38,
      "hit": false,
      "t": 33993.68561666666,
      "d": 34.81014166666864,
      "v": 55
    },
    {
      "midi": 38,
      "hit": false,
      "t": 34082.293249999995,
      "d": 31.64558333333116,
      "v": 53
    },
    {
      "midi": 57,
      "hit": false,
      "t": 34136.09074166671,
      "d": 101.26586666666844,
      "v": 107
    },
    {
      "midi": 50,
      "hit": false,
      "t": 34145.58441666671,
      "d": 79.11395833333518,
      "v": 93
    },
    {
      "midi": 37,
      "hit": false,
      "t": 34177.22999999998,
      "d": 82.27851666666538,
      "v": 100
    },
    {
      "midi": 56,
      "hit": false,
      "t": 34177.229999999996,
      "d": 1075.9498333333322,
      "v": 114
    },
    {
      "midi": 38,
      "hit": false,
      "t": 34189.888233333324,
      "d": 72.78484166666749,
      "v": 66
    },
    {
      "midi": 49,
      "hit": false,
      "t": 34218.36925833332,
      "d": 471.5191916666663,
      "v": 84
    },
    {
      "midi": 56,
      "hit": false,
      "t": 34224.698375,
      "d": 1053.797924999999,
      "v": 92
    },
    {
      "midi": 38,
      "hit": false,
      "t": 34389.25540833332,
      "d": 28.481025000000955,
      "v": 58
    },
    {
      "midi": 38,
      "hit": false,
      "t": 34487.356716666654,
      "d": 31.64558333333116,
      "v": 58
    },
    {
      "midi": 37,
      "hit": false,
      "t": 34556.97699999998,
      "d": 82.27851666666538,
      "v": 100
    },
    {
      "midi": 57,
      "hit": false,
      "t": 34560.14155833338,
      "d": 75.9493999999977,
      "v": 107
    },
    {
      "midi": 50,
      "hit": false,
      "t": 34572.799791666715,
      "d": 53.79749166666443,
      "v": 85
    },
    {
      "midi": 38,
      "hit": false,
      "t": 34582.29346666665,
      "d": 25.316466666663473,
      "v": 65
    },
    {
      "midi": 38,
      "hit": false,
      "t": 34636.09095833331,
      "d": 22.151908333333267,
      "v": 46
    },
    {
      "midi": 38,
      "hit": false,
      "t": 34680.39477499998,
      "d": 34.81014166666864,
      "v": 48
    },
    {
      "midi": 38,
      "hit": false,
      "t": 34778.49608333332,
      "d": 28.481025000000955,
      "v": 53
    },
    {
      "midi": 38,
      "hit": false,
      "t": 34911.40753333332,
      "d": 3.1645583333302056,
      "v": 64
    },
    {
      "midi": 57,
      "hit": false,
      "t": 34917.73665000004,
      "d": 63.2911666666696,
      "v": 107
    },
    {
      "midi": 50,
      "hit": false,
      "t": 34930.39488333338,
      "d": 44.303816666666535,
      "v": 76
    },
    {
      "midi": 37,
      "hit": false,
      "t": 34936.72399999997,
      "d": 82.27851666666538,
      "v": 108
    },
    {
      "midi": 38,
      "hit": false,
      "t": 34955.71134999998,
      "d": 79.11395833333518,
      "v": 67
    },
    {
      "midi": 49,
      "hit": false,
      "t": 34977.86325833332,
      "d": 503.16477499999746,
      "v": 84
    },
    {
      "midi": 57,
      "hit": false,
      "t": 35044.31898333338,
      "d": 66.4557249999998,
      "v": 98
    },
    {
      "midi": 50,
      "hit": false,
      "t": 35050.64810000005,
      "d": 53.79749166666443,
      "v": 80
    },
    {
      "midi": 38,
      "hit": false,
      "t": 35151.91396666665,
      "d": 34.81014166666864,
      "v": 53
    },
    {
      "midi": 57,
      "hit": false,
      "t": 35186.72410833338,
      "d": 56.96205000000191,
      "v": 89
    },
    {
      "midi": 50,
      "hit": false,
      "t": 35199.382341666715,
      "d": 37.97469999999885,
      "v": 59
    },
    {
      "midi": 38,
      "hit": false,
      "t": 35237.357041666655,
      "d": 34.81014166666864,
      "v": 56
    },
    {
      "midi": 57,
      "hit": false,
      "t": 35300.64820833338,
      "d": 94.93675000000076,
      "v": 85
    },
    {
      "midi": 50,
      "hit": false,
      "t": 35313.30644166672,
      "d": 66.4557249999998,
      "v": 59
    },
    {
      "midi": 37,
      "hit": false,
      "t": 35316.47099999997,
      "d": 82.27851666666538,
      "v": 100
    },
    {
      "midi": 38,
      "hit": false,
      "t": 35329.129233333326,
      "d": 44.303816666666535,
      "v": 62
    },
    {
      "midi": 55,
      "hit": false,
      "t": 35354.4457,
      "d": 632.9116666666669,
      "v": 103
    },
    {
      "midi": 55,
      "hit": false,
      "t": 35376.59760833333,
      "d": 661.3926916666678,
      "v": 95
    },
    {
      "midi": 38,
      "hit": false,
      "t": 35420.90142499999,
      "d": 34.81014166666864,
      "v": 53
    },
    {
      "midi": 38,
      "hit": false,
      "t": 35512.67361666666,
      "d": 34.81014166666864,
      "v": 56
    },
    {
      "midi": 38,
      "hit": false,
      "t": 35601.28124999999,
      "d": 31.64558333333116,
      "v": 53
    },
    {
      "midi": 37,
      "hit": false,
      "t": 35696.217999999964,
      "d": 82.27851666666538,
      "v": 95
    },
    {
      "midi": 38,
      "hit": false,
      "t": 35708.87623333332,
      "d": 72.78484166666749,
      "v": 67
    },
    {
      "midi": 49,
      "hit": false,
      "t": 35718.36990833331,
      "d": 518.9875666666703,
      "v": 88
    },
    {
      "midi": 57,
      "hit": false,
      "t": 35727.86358333338,
      "d": 56.96205000000191,
      "v": 113
    },
    {
      "midi": 50,
      "hit": false,
      "t": 35740.52181666672,
      "d": 37.97469999999885,
      "v": 80
    },
    {
      "midi": 57,
      "hit": false,
      "t": 35844.95224166672,
      "d": 66.45572500000708,
      "v": 102
    },
    {
      "midi": 50,
      "hit": false,
      "t": 35857.61047500005,
      "d": 41.13925833333633,
      "v": 85
    },
    {
      "midi": 38,
      "hit": false,
      "t": 35908.24340833332,
      "d": 28.481025000000955,
      "v": 59
    },
    {
      "midi": 57,
      "hit": false,
      "t": 35974.69913333339,
      "d": 60.126608333332115,
      "v": 107
    },
    {
      "midi": 50,
      "hit": false,
      "t": 35984.19280833339,
      "d": 41.13925833333633,
      "v": 89
    },
    {
      "midi": 38,
      "hit": false,
      "t": 36006.34471666665,
      "d": 31.64558333333116,
      "v": 59
    },
    {
      "midi": 37,
      "hit": false,
      "t": 36075.96499999996,
      "d": 82.27851666666538,
      "v": 100
    },
    {
      "midi": 58,
      "hit": false,
      "t": 36085.458674999994,
      "d": 1069.6207166666645,
      "v": 108
    },
    {
      "midi": 57,
      "hit": false,
      "t": 36091.78779166673,
      "d": 75.9493999999977,
      "v": 113
    },
    {
      "midi": 50,
      "hit": false,
      "t": 36098.116908333395,
      "d": 60.126608333332115,
      "v": 98
    },
    {
      "midi": 38,
      "hit": false,
      "t": 36101.281466666645,
      "d": 25.316466666663473,
      "v": 66
    },
    {
      "midi": 58,
      "hit": false,
      "t": 36117.10425833333,
      "d": 1006.3295500000022,
      "v": 98
    },
    {
      "midi": 38,
      "hit": false,
      "t": 36155.07895833331,
      "d": 22.151908333333267,
      "v": 47
    },
    {
      "midi": 38,
      "hit": false,
      "t": 36199.38277499998,
      "d": 34.81014166666864,
      "v": 48
    },
    {
      "midi": 38,
      "hit": false,
      "t": 36297.484083333315,
      "d": 28.481025000000955,
      "v": 53
    },
    {
      "midi": 38,
      "hit": false,
      "t": 36430.395533333314,
      "d": 3.1645583333302056,
      "v": 65
    },
    {
      "midi": 37,
      "hit": false,
      "t": 36455.711999999956,
      "d": 82.27851666666538,
      "v": 106
    },
    {
      "midi": 38,
      "hit": false,
      "t": 36474.69934999998,
      "d": 79.11395833333518,
      "v": 68
    },
    {
      "midi": 49,
      "hit": false,
      "t": 36484.193024999986,
      "d": 515.8230083333328,
      "v": 90
    },
    {
      "midi": 57,
      "hit": false,
      "t": 36490.52214166673,
      "d": 56.96205000000191,
      "v": 113
    },
    {
      "midi": 57,
      "hit": false,
      "t": 36607.61080000006,
      "d": 60.12660833333939,
      "v": 107
    },
    {
      "midi": 50,
      "hit": false,
      "t": 36613.93991666673,
      "d": 41.13925833333633,
      "v": 80
    },
    {
      "midi": 38,
      "hit": false,
      "t": 36670.90196666665,
      "d": 34.81014166666864,
      "v": 54
    },
    {
      "midi": 57,
      "hit": false,
      "t": 36724.6994583334,
      "d": 63.29116666666232,
      "v": 107
    },
    {
      "midi": 50,
      "hit": false,
      "t": 36734.1931333334,
      "d": 47.46837499999674,
      "v": 93
    },
    {
      "midi": 38,
      "hit": false,
      "t": 36756.34504166665,
      "d": 34.81014166666864,
      "v": 56
    },
    {
      "midi": 37,
      "hit": false,
      "t": 36835.45899999995,
      "d": 82.27851666666538,
      "v": 98
    },
    {
      "midi": 38,
      "hit": false,
      "t": 36848.11723333332,
      "d": 44.303816666666535,
      "v": 63
    },
    {
      "midi": 58,
      "hit": false,
      "t": 36882.927375000065,
      "d": 101.26586666666117,
      "v": 113
    },
    {
      "midi": 50,
      "hit": false,
      "t": 36892.42105000006,
      "d": 47.46837499999674,
      "v": 85
    },
    {
      "midi": 38,
      "hit": false,
      "t": 36939.88942499999,
      "d": 34.81014166666864,
      "v": 54
    },
    {
      "midi": 38,
      "hit": false,
      "t": 37031.66161666666,
      "d": 34.81014166666864,
      "v": 56
    },
    {
      "midi": 38,
      "hit": false,
      "t": 37120.26924999999,
      "d": 31.64558333333116,
      "v": 54
    },
    {
      "midi": 37,
      "hit": false,
      "t": 37215.20599999995,
      "d": 82.27851666666538,
      "v": 98
    },
    {
      "midi": 38,
      "hit": false,
      "t": 37227.86423333332,
      "d": 72.78484166666749,
      "v": 68
    },
    {
      "midi": 52,
      "hit": false,
      "t": 37234.193349999994,
      "d": 1398.7347833333333,
      "v": 116
    },
    {
      "midi": 49,
      "hit": false,
      "t": 37237.35790833332,
      "d": 541.1394750000036,
      "v": 88
    },
    {
      "midi": 52,
      "hit": false,
      "t": 37243.687025,
      "d": 1395.5702250000031,
      "v": 106
    },
    {
      "midi": 57,
      "hit": false,
      "t": 37246.851583333395,
      "d": 107.59498333332886,
      "v": 119
    },
    {
      "midi": 50,
      "hit": false,
      "t": 37256.34525833339,
      "d": 82.27851666666538,
      "v": 102
    },
    {
      "midi": 38,
      "hit": false,
      "t": 37427.23140833332,
      "d": 28.481025000000955,
      "v": 60
    },
    {
      "midi": 38,
      "hit": false,
      "t": 37525.33271666665,
      "d": 31.64558333333116,
      "v": 60
    },
    {
      "midi": 37,
      "hit": false,
      "t": 37594.95299999994,
      "d": 82.27851666666538,
      "v": 98
    },
    {
      "midi": 38,
      "hit": false,
      "t": 37620.26946666664,
      "d": 25.316466666663473,
      "v": 67
    },
    {
      "midi": 57,
      "hit": false,
      "t": 37623.43402500006,
      "d": 85.44307499999559,
      "v": 107
    },
    {
      "midi": 50,
      "hit": false,
      "t": 37632.92770000006,
      "d": 69.62028333333001,
      "v": 93
    },
    {
      "midi": 38,
      "hit": false,
      "t": 37674.06695833331,
      "d": 22.151908333333267,
      "v": 47
    },
    {
      "midi": 38,
      "hit": false,
      "t": 37718.370774999974,
      "d": 34.81014166666864,
      "v": 49
    },
    {
      "midi": 38,
      "hit": false,
      "t": 37816.47208333331,
      "d": 28.481025000000955,
      "v": 54
    },
    {
      "midi": 38,
      "hit": false,
      "t": 37949.38353333331,
      "d": 3.1645583333302056,
      "v": 65
    },
    {
      "midi": 37,
      "hit": false,
      "t": 37974.69999999994,
      "d": 82.27851666666538,
      "v": 106
    },
    {
      "midi": 57,
      "hit": false,
      "t": 37987.35823333339,
      "d": 72.78484166666749,
      "v": 113
    },
    {
      "midi": 38,
      "hit": false,
      "t": 37993.68734999998,
      "d": 79.11395833333518,
      "v": 69
    },
    {
      "midi": 49,
      "hit": false,
      "t": 37993.687349999986,
      "d": 534.8103583333359,
      "v": 90
    },
    {
      "midi": 50,
      "hit": false,
      "t": 37993.68735000006,
      "d": 53.79749166666443,
      "v": 93
    },
    {
      "midi": 38,
      "hit": false,
      "t": 38189.88996666665,
      "d": 34.81014166666864,
      "v": 54
    },
    {
      "midi": 38,
      "hit": false,
      "t": 38275.33304166665,
      "d": 34.81014166666864,
      "v": 57
    },
    {
      "midi": 57,
      "hit": false,
      "t": 38351.28244166673,
      "d": 56.96205000000191,
      "v": 102
    },
    {
      "midi": 37,
      "hit": false,
      "t": 38354.446999999935,
      "d": 82.27851666666538,
      "v": 100
    },
    {
      "midi": 38,
      "hit": false,
      "t": 38367.10523333332,
      "d": 44.303816666666535,
      "v": 63
    },
    {
      "midi": 50,
      "hit": false,
      "t": 38370.26979166673,
      "d": 28.481025000000955,
      "v": 59
    },
    {
      "midi": 38,
      "hit": false,
      "t": 38458.877424999984,
      "d": 34.81014166666864,
      "v": 54
    },
    {
      "midi": 57,
      "hit": false,
      "t": 38474.70021666673,
      "d": 63.2911666666696,
      "v": 98
    },
    {
      "midi": 50,
      "hit": false,
      "t": 38481.0293333334,
      "d": 41.13925833333633,
      "v": 85
    },
    {
      "midi": 38,
      "hit": false,
      "t": 38550.649616666655,
      "d": 34.81014166666864,
      "v": 57
    },
    {
      "midi": 57,
      "hit": false,
      "t": 38594.9534333334,
      "d": 69.62028333333001,
      "v": 98
    },
    {
      "midi": 50,
      "hit": false,
      "t": 38598.11799166673,
      "d": 60.126608333332115,
      "v": 85
    },
    {
      "midi": 38,
      "hit": false,
      "t": 38639.25724999999,
      "d": 31.64558333333116,
      "v": 54
    },
    {
      "midi": 37,
      "hit": false,
      "t": 38734.19399999993,
      "d": 82.27851666666538,
      "v": 92
    },
    {
      "midi": 50,
      "hit": false,
      "t": 38740.52311666666,
      "d": 2281.646558333334,
      "v": 111
    },
    {
      "midi": 58,
      "hit": false,
      "t": 38743.68767500007,
      "d": 107.59498333333613,
      "v": 113
    },
    {
      "midi": 38,
      "hit": false,
      "t": 38746.85223333332,
      "d": 72.78484166666749,
      "v": 69
    },
    {
      "midi": 49,
      "hit": false,
      "t": 38746.852233333324,
      "d": 528.4812416666682,
      "v": 82
    },
    {
      "midi": 50,
      "hit": false,
      "t": 38750.016791666734,
      "d": 63.2911666666696,
      "v": 89
    },
    {
      "midi": 50,
      "hit": false,
      "t": 38765.839583333334,
      "d": 2183.545250000003,
      "v": 92
    },
    {
      "midi": 38,
      "hit": false,
      "t": 38946.219408333316,
      "d": 28.481025000000955,
      "v": 61
    },
    {
      "midi": 38,
      "hit": false,
      "t": 39044.32071666665,
      "d": 31.64558333333116,
      "v": 61
    },
    {
      "midi": 57,
      "hit": false,
      "t": 39098.118208333406,
      "d": 88.60763333334035,
      "v": 107
    },
    {
      "midi": 50,
      "hit": false,
      "t": 39110.77644166674,
      "d": 56.96205000000191,
      "v": 89
    },
    {
      "midi": 37,
      "hit": false,
      "t": 39113.940999999926,
      "d": 82.27851666666538,
      "v": 98
    },
    {
      "midi": 38,
      "hit": false,
      "t": 39139.25746666664,
      "d": 25.316466666663473,
      "v": 68
    },
    {
      "midi": 38,
      "hit": false,
      "t": 39193.054958333305,
      "d": 22.151908333333267,
      "v": 48
    },
    {
      "midi": 38,
      "hit": false,
      "t": 39237.35877499997,
      "d": 34.81014166666864,
      "v": 50
    },
    {
      "midi": 38,
      "hit": false,
      "t": 39335.46008333331,
      "d": 28.481025000000955,
      "v": 54
    },
    {
      "midi": 38,
      "hit": false,
      "t": 39468.37153333331,
      "d": 3.1645583333302056,
      "v": 66
    },
    {
      "midi": 57,
      "hit": false,
      "t": 39471.53609166675,
      "d": 88.60763333333307,
      "v": 119
    },
    {
      "midi": 50,
      "hit": false,
      "t": 39477.86520833342,
      "d": 66.4557249999998,
      "v": 93
    },
    {
      "midi": 37,
      "hit": false,
      "t": 39493.68799999992,
      "d": 82.27851666666538,
      "v": 108
    },
    {
      "midi": 38,
      "hit": false,
      "t": 39512.675349999976,
      "d": 79.11395833333518,
      "v": 70
    },
    {
      "midi": 49,
      "hit": false,
      "t": 39519.00446666666,
      "d": 509.49389166666515,
      "v": 84
    },
    {
      "midi": 38,
      "hit": false,
      "t": 39708.877966666645,
      "d": 34.81014166666864,
      "v": 54
    },
    {
      "midi": 38,
      "hit": false,
      "t": 39794.32104166665,
      "d": 34.81014166666864,
      "v": 58
    },
    {
      "midi": 37,
      "hit": false,
      "t": 39873.43499999992,
      "d": 82.27851666666538,
      "v": 100
    },
    {
      "midi": 57,
      "hit": false,
      "t": 39876.599558333415,
      "d": 69.62028333333728,
      "v": 107
    },
    {
      "midi": 38,
      "hit": false,
      "t": 39886.09323333332,
      "d": 44.303816666666535,
      "v": 64
    },
    {
      "midi": 50,
      "hit": false,
      "t": 39892.42235000008,
      "d": 41.13925833333633,
      "v": 60
    },
    {
      "midi": 67,
      "hit": false,
      "t": 39911.4097,
      "d": 740.5066499999957,
      "v": 72
    },
    {
      "midi": 79,
      "hit": false,
      "t": 39911.409700000004,
      "d": 740.5066499999957,
      "v": 72
    },
    {
      "midi": 69,
      "hit": false,
      "t": 39914.57425833333,
      "d": 737.3420916666655,
      "v": 78
    },
    {
      "midi": 81,
      "hit": false,
      "t": 39914.574258333334,
      "d": 737.3420916666655,
      "v": 78
    },
    {
      "midi": 38,
      "hit": false,
      "t": 39977.86542499998,
      "d": 34.81014166666864,
      "v": 54
    },
    {
      "midi": 38,
      "hit": false,
      "t": 40069.63761666665,
      "d": 34.81014166666864,
      "v": 58
    },
    {
      "midi": 38,
      "hit": false,
      "t": 40158.245249999985,
      "d": 31.64558333333116,
      "v": 54
    },
    {
      "midi": 57,
      "hit": false,
      "t": 40237.35920833342,
      "d": 82.27851666666538,
      "v": 107
    },
    {
      "midi": 50,
      "hit": false,
      "t": 40240.52376666675,
      "d": 82.27851666666538,
      "v": 93
    },
    {
      "midi": 37,
      "hit": false,
      "t": 40253.18199999991,
      "d": 82.27851666666538,
      "v": 100
    },
    {
      "midi": 38,
      "hit": false,
      "t": 40265.840233333314,
      "d": 72.78484166666749,
      "v": 70
    },
    {
      "midi": 49,
      "hit": false,
      "t": 40275.33390833333,
      "d": 500.00021666666726,
      "v": 87
    },
    {
      "midi": 38,
      "hit": false,
      "t": 40465.207408333314,
      "d": 28.481025000000955,
      "v": 61
    },
    {
      "midi": 38,
      "hit": false,
      "t": 40563.308716666645,
      "d": 31.64558333333116,
      "v": 61
    },
    {
      "midi": 57,
      "hit": false,
      "t": 40623.435325000086,
      "d": 79.1139583333279,
      "v": 107
    },
    {
      "midi": 50,
      "hit": false,
      "t": 40626.599883333416,
      "d": 66.4557249999998,
      "v": 93
    },
    {
      "midi": 37,
      "hit": false,
      "t": 40632.92899999991,
      "d": 82.27851666666538,
      "v": 100
    },
    {
      "midi": 66,
      "hit": false,
      "t": 40632.929,
      "d": 417.7216999999946,
      "v": 81
    },
    {
      "midi": 78,
      "hit": false,
      "t": 40632.929000000004,
      "d": 417.7216999999946,
      "v": 81
    },
    {
      "midi": 70,
      "hit": false,
      "t": 40636.09355833333,
      "d": 389.2406750000009,
      "v": 68
    },
    {
      "midi": 82,
      "hit": false,
      "t": 40636.093558333334,
      "d": 389.2406750000009,
      "v": 68
    },
    {
      "midi": 38,
      "hit": false,
      "t": 40658.24546666664,
      "d": 25.316466666663473,
      "v": 69
    },
    {
      "midi": 38,
      "hit": false,
      "t": 40712.0429583333,
      "d": 22.151908333333267,
      "v": 49
    },
    {
      "midi": 38,
      "hit": false,
      "t": 40756.34677499997,
      "d": 34.81014166666864,
      "v": 50
    },
    {
      "midi": 38,
      "hit": false,
      "t": 40854.44808333331,
      "d": 28.481025000000955,
      "v": 54
    },
    {
      "midi": 38,
      "hit": false,
      "t": 40987.35953333331,
      "d": 3.1645583333302056,
      "v": 67
    },
    {
      "midi": 57,
      "hit": false,
      "t": 41003.18232500008,
      "d": 91.77219166667055,
      "v": 113
    },
    {
      "midi": 50,
      "hit": false,
      "t": 41009.51144166675,
      "d": 72.78484166666749,
      "v": 98
    },
    {
      "midi": 37,
      "hit": false,
      "t": 41012.675999999905,
      "d": 82.27851666666538,
      "v": 108
    },
    {
      "midi": 71,
      "hit": false,
      "t": 41025.33423333333,
      "d": 1414.557574999999,
      "v": 70
    },
    {
      "midi": 83,
      "hit": false,
      "t": 41025.334233333335,
      "d": 1414.557574999999,
      "v": 70
    },
    {
      "midi": 38,
      "hit": false,
      "t": 41031.66334999997,
      "d": 79.11395833333518,
      "v": 71
    },
    {
      "midi": 65,
      "hit": false,
      "t": 41034.827908333325,
      "d": 1414.557574999999,
      "v": 64
    },
    {
      "midi": 77,
      "hit": false,
      "t": 41034.82790833333,
      "d": 1414.557574999999,
      "v": 64
    },
    {
      "midi": 49,
      "hit": false,
      "t": 41037.99246666666,
      "d": 518.987566666663,
      "v": 88
    },
    {
      "midi": 38,
      "hit": false,
      "t": 41227.86596666664,
      "d": 34.81014166666864,
      "v": 55
    },
    {
      "midi": 38,
      "hit": false,
      "t": 41313.309041666645,
      "d": 34.81014166666864,
      "v": 59
    },
    {
      "midi": 37,
      "hit": false,
      "t": 41392.4229999999,
      "d": 82.27851666666538,
      "v": 92
    },
    {
      "midi": 57,
      "hit": false,
      "t": 41392.42300000008,
      "d": 60.126608333332115,
      "v": 107
    },
    {
      "midi": 38,
      "hit": false,
      "t": 41405.081233333316,
      "d": 44.303816666666535,
      "v": 65
    },
    {
      "midi": 50,
      "hit": false,
      "t": 41405.08123333342,
      "d": 37.97469999999885,
      "v": 80
    },
    {
      "midi": 38,
      "hit": false,
      "t": 41496.85342499998,
      "d": 34.81014166666864,
      "v": 55
    },
    {
      "midi": 57,
      "hit": false,
      "t": 41528.49900833341,
      "d": 56.96205000000191,
      "v": 102
    },
    {
      "midi": 50,
      "hit": false,
      "t": 41531.66356666674,
      "d": 41.13925833333633,
      "v": 76
    },
    {
      "midi": 38,
      "hit": false,
      "t": 41588.62561666665,
      "d": 34.81014166666864,
      "v": 59
    },
    {
      "midi": 57,
      "hit": false,
      "t": 41648.752225000084,
      "d": 63.2911666666696,
      "v": 89
    },
    {
      "midi": 50,
      "hit": false,
      "t": 41661.41045833342,
      "d": 37.97469999999885,
      "v": 59
    },
    {
      "midi": 38,
      "hit": false,
      "t": 41677.23324999998,
      "d": 31.64558333333116,
      "v": 55
    },
    {
      "midi": 37,
      "hit": false,
      "t": 41772.1699999999,
      "d": 82.27851666666538,
      "v": 95
    },
    {
      "midi": 38,
      "hit": false,
      "t": 41784.82823333331,
      "d": 72.78484166666749,
      "v": 71
    },
    {
      "midi": 56,
      "hit": false,
      "t": 41784.82823333333,
      "d": 1022.1523416666678,
      "v": 108
    },
    {
      "midi": 49,
      "hit": false,
      "t": 41794.321908333324,
      "d": 541.1394750000036,
      "v": 88
    },
    {
      "midi": 58,
      "hit": false,
      "t": 41800.65102500009,
      "d": 110.75954166666634,
      "v": 102
    },
    {
      "midi": 50,
      "hit": false,
      "t": 41803.81558333342,
      "d": 72.78484166666749,
      "v": 89
    },
    {
      "midi": 56,
      "hit": false,
      "t": 41806.980141666674,
      "d": 1050.6333666666687,
      "v": 106
    },
    {
      "midi": 38,
      "hit": false,
      "t": 41984.19540833331,
      "d": 28.481025000000955,
      "v": 62
    },
    {
      "midi": 38,
      "hit": false,
      "t": 42082.29671666664,
      "d": 31.64558333333116,
      "v": 62
    },
    {
      "midi": 37,
      "hit": false,
      "t": 42151.91699999989,
      "d": 82.27851666666538,
      "v": 90
    },
    {
      "midi": 57,
      "hit": false,
      "t": 42155.08155833342,
      "d": 91.77219166667055,
      "v": 107
    },
    {
      "midi": 50,
      "hit": false,
      "t": 42164.57523333342,
      "d": 63.2911666666696,
      "v": 93
    },
    {
      "midi": 38,
      "hit": false,
      "t": 42177.233466666636,
      "d": 25.316466666663473,
      "v": 70
    },
    {
      "midi": 38,
      "hit": false,
      "t": 42231.0309583333,
      "d": 22.151908333333267,
      "v": 49
    },
    {
      "midi": 38,
      "hit": false,
      "t": 42275.33477499997,
      "d": 34.81014166666864,
      "v": 51
    },
    {
      "midi": 38,
      "hit": false,
      "t": 42373.436083333305,
      "d": 28.481025000000955,
      "v": 55
    },
    {
      "midi": 38,
      "hit": false,
      "t": 42506.347533333304,
      "d": 3.1645583333302056,
      "v": 68
    },
    {
      "midi": 57,
      "hit": false,
      "t": 42522.17032500009,
      "d": 88.6076333333258,
      "v": 113
    },
    {
      "midi": 37,
      "hit": false,
      "t": 42531.66399999989,
      "d": 82.27851666666538,
      "v": 103
    },
    {
      "midi": 50,
      "hit": false,
      "t": 42531.664000000084,
      "d": 69.62028333333001,
      "v": 102
    },
    {
      "midi": 38,
      "hit": false,
      "t": 42550.65134999997,
      "d": 79.11395833333518,
      "v": 72
    },
    {
      "midi": 49,
      "hit": false,
      "t": 42556.98046666666,
      "d": 528.4812416666682,
      "v": 90
    },
    {
      "midi": 60,
      "hit": false,
      "t": 42566.474141666666,
      "d": 680.3800416666636,
      "v": 92
    },
    {
      "midi": 38,
      "hit": false,
      "t": 42746.85396666664,
      "d": 34.81014166666864,
      "v": 56
    },
    {
      "midi": 38,
      "hit": false,
      "t": 42832.29704166664,
      "d": 34.81014166666864,
      "v": 59
    },
    {
      "midi": 57,
      "hit": false,
      "t": 42901.91732500008,
      "d": 60.12660833333939,
      "v": 102
    },
    {
      "midi": 37,
      "hit": false,
      "t": 42911.410999999884,
      "d": 82.27851666666538,
      "v": 88
    },
    {
      "midi": 50,
      "hit": false,
      "t": 42914.57555833342,
      "d": 41.13925833333633,
      "v": 80
    },
    {
      "midi": 38,
      "hit": false,
      "t": 42924.06923333331,
      "d": 44.303816666666535,
      "v": 65
    },
    {
      "midi": 55,
      "hit": false,
      "t": 42943.05658333333,
      "d": 674.0509250000032,
      "v": 103
    },
    {
      "midi": 55,
      "hit": false,
      "t": 42955.714816666674,
      "d": 670.8863666666657,
      "v": 100
    },
    {
      "midi": 38,
      "hit": false,
      "t": 43015.84142499998,
      "d": 34.81014166666864,
      "v": 56
    },
    {
      "midi": 57,
      "hit": false,
      "t": 43025.33510000009,
      "d": 72.78484166666021,
      "v": 102
    },
    {
      "midi": 50,
      "hit": false,
      "t": 43034.82877500009,
      "d": 53.79749166666443,
      "v": 89
    },
    {
      "midi": 38,
      "hit": false,
      "t": 43107.61361666665,
      "d": 34.81014166666864,
      "v": 59
    },
    {
      "midi": 57,
      "hit": false,
      "t": 43161.41110833342,
      "d": 66.45572500000708,
      "v": 93
    },
    {
      "midi": 50,
      "hit": false,
      "t": 43174.06934166676,
      "d": 41.13925833333633,
      "v": 72
    },
    {
      "midi": 38,
      "hit": false,
      "t": 43196.22124999998,
      "d": 31.64558333333116,
      "v": 56
    },
    {
      "midi": 37,
      "hit": false,
      "t": 43291.15799999988,
      "d": 82.27851666666538,
      "v": 90
    },
    {
      "midi": 57,
      "hit": false,
      "t": 43294.32255833343,
      "d": 91.77219166666328,
      "v": 107
    },
    {
      "midi": 38,
      "hit": false,
      "t": 43303.81623333331,
      "d": 72.78484166666749,
      "v": 72
    },
    {
      "midi": 50,
      "hit": false,
      "t": 43303.816233333426,
      "d": 69.62028333333001,
      "v": 98
    },
    {
      "midi": 49,
      "hit": false,
      "t": 43322.80358333333,
      "d": 509.49389166666515,
      "v": 87
    },
    {
      "midi": 59,
      "hit": false,
      "t": 43348.12005,
      "d": 1018.9877833333303,
      "v": 95
    },
    {
      "midi": 38,
      "hit": false,
      "t": 43503.18340833331,
      "d": 28.481025000000955,
      "v": 63
    },
    {
      "midi": 38,
      "hit": false,
      "t": 43601.28471666664,
      "d": 31.64558333333116,
      "v": 63
    },
    {
      "midi": 58,
      "hit": false,
      "t": 43667.74044166667,
      "d": 1389.2411083333354,
      "v": 103
    },
    {
      "midi": 37,
      "hit": false,
      "t": 43670.904999999875,
      "d": 82.27851666666538,
      "v": 98
    },
    {
      "midi": 38,
      "hit": false,
      "t": 43696.22146666663,
      "d": 25.316466666663473,
      "v": 71
    },
    {
      "midi": 58,
      "hit": false,
      "t": 43712.04425833334,
      "d": 1376.582875,
      "v": 103
    },
    {
      "midi": 57,
      "hit": false,
      "t": 43724.70249166676,
      "d": 82.27851666666538,
      "v": 113
    },
    {
      "midi": 50,
      "hit": false,
      "t": 43727.86705000009,
      "d": 66.4557249999998,
      "v": 107
    },
    {
      "midi": 38,
      "hit": false,
      "t": 43750.0189583333,
      "d": 22.151908333333267,
      "v": 50
    },
    {
      "midi": 38,
      "hit": false,
      "t": 43794.322774999964,
      "d": 34.81014166666864,
      "v": 52
    },
    {
      "midi": 38,
      "hit": false,
      "t": 43892.4240833333,
      "d": 28.481025000000955,
      "v": 56
    },
    {
      "midi": 38,
      "hit": false,
      "t": 44025.3355333333,
      "d": 3.1645583333302056,
      "v": 69
    },
    {
      "midi": 37,
      "hit": false,
      "t": 44050.65199999987,
      "d": 82.27851666666538,
      "v": 106
    },
    {
      "midi": 49,
      "hit": false,
      "t": 44050.651999999995,
      "d": 531.6457999999984,
      "v": 87
    },
    {
      "midi": 38,
      "hit": false,
      "t": 44069.63934999997,
      "d": 79.11395833333518,
      "v": 72
    },
    {
      "midi": 57,
      "hit": false,
      "t": 44091.791258333426,
      "d": 94.93675000000076,
      "v": 107
    },
    {
      "midi": 50,
      "hit": false,
      "t": 44094.955816666756,
      "d": 85.44307500000286,
      "v": 102
    },
    {
      "midi": 38,
      "hit": false,
      "t": 44265.84196666664,
      "d": 34.81014166666864,
      "v": 57
    },
    {
      "midi": 38,
      "hit": false,
      "t": 44351.28504166664,
      "d": 34.81014166666864,
      "v": 60
    },
    {
      "midi": 37,
      "hit": false,
      "t": 44430.39899999987,
      "d": 82.27851666666538,
      "v": 95
    },
    {
      "midi": 38,
      "hit": false,
      "t": 44443.05723333331,
      "d": 44.303816666666535,
      "v": 66
    },
    {
      "midi": 57,
      "hit": false,
      "t": 44455.71546666676,
      "d": 63.2911666666696,
      "v": 107
    },
    {
      "midi": 62,
      "hit": false,
      "t": 44471.53825833333,
      "d": 1373.4183166666699,
      "v": 98
    },
    {
      "midi": 50,
      "hit": false,
      "t": 44471.53825833343,
      "d": 34.81014166666864,
      "v": 68
    },
    {
      "midi": 38,
      "hit": false,
      "t": 44534.829424999974,
      "d": 34.81014166666864,
      "v": 57
    },
    {
      "midi": 57,
      "hit": false,
      "t": 44591.7914750001,
      "d": 63.29116666666232,
      "v": 107
    },
    {
      "midi": 50,
      "hit": false,
      "t": 44594.95603333343,
      "d": 50.63293333333422,
      "v": 89
    },
    {
      "midi": 38,
      "hit": false,
      "t": 44626.601616666645,
      "d": 34.81014166666864,
      "v": 60
    },
    {
      "midi": 38,
      "hit": false,
      "t": 44715.20924999998,
      "d": 31.64558333333116,
      "v": 57
    },
    {
      "midi": 57,
      "hit": false,
      "t": 44718.37380833343,
      "d": 75.9493999999977,
      "v": 102
    },
    {
      "midi": 50,
      "hit": false,
      "t": 44724.7029250001,
      "d": 53.79749166666443,
      "v": 89
    },
    {
      "midi": 37,
      "hit": false,
      "t": 44810.14599999986,
      "d": 82.27851666666538,
      "v": 91
    },
    {
      "midi": 49,
      "hit": false,
      "t": 44819.63967499999,
      "d": 525.3166833333307,
      "v": 88
    },
    {
      "midi": 38,
      "hit": false,
      "t": 44822.80423333331,
      "d": 72.78484166666749,
      "v": 72
    },
    {
      "midi": 58,
      "hit": false,
      "t": 44882.93084166676,
      "d": 129.74689166666212,
      "v": 113
    },
    {
      "midi": 50,
      "hit": false,
      "t": 44898.75363333343,
      "d": 69.62028333333001,
      "v": 89
    },
    {
      "midi": 38,
      "hit": false,
      "t": 45022.171408333306,
      "d": 28.481025000000955,
      "v": 63
    },
    {
      "midi": 38,
      "hit": false,
      "t": 45120.27271666664,
      "d": 31.64558333333116,
      "v": 63
    },
    {
      "midi": 57,
      "hit": false,
      "t": 45186.72844166676,
      "d": 123.41777499999444,
      "v": 107
    },
    {
      "midi": 37,
      "hit": false,
      "t": 45189.89299999986,
      "d": 82.27851666666538,
      "v": 95
    },
    {
      "midi": 50,
      "hit": false,
      "t": 45193.05755833343,
      "d": 91.77219166666328,
      "v": 93
    },
    {
      "midi": 52,
      "hit": false,
      "t": 45199.386675,
      "d": 1759.4944333333333,
      "v": 88
    },
    {
      "midi": 38,
      "hit": false,
      "t": 45215.20946666663,
      "d": 25.316466666663473,
      "v": 72
    },
    {
      "midi": 52,
      "hit": false,
      "t": 45218.37402500001,
      "d": 1806.96280833333,
      "v": 111
    },
    {
      "midi": 38,
      "hit": false,
      "t": 45269.006958333295,
      "d": 22.151908333333267,
      "v": 50
    },
    {
      "midi": 38,
      "hit": false,
      "t": 45313.31077499996,
      "d": 34.81014166666864,
      "v": 52
    },
    {
      "midi": 38,
      "hit": false,
      "t": 45411.4120833333,
      "d": 28.481025000000955,
      "v": 57
    },
    {
      "midi": 38,
      "hit": false,
      "t": 45544.3235333333,
      "d": 3.1645583333302056,
      "v": 70
    },
    {
      "midi": 57,
      "hit": false,
      "t": 45563.31088333342,
      "d": 126.58233333333192,
      "v": 93
    },
    {
      "midi": 37,
      "hit": false,
      "t": 45569.639999999854,
      "d": 82.27851666666538,
      "v": 106
    },
    {
      "midi": 50,
      "hit": false,
      "t": 45569.64000000009,
      "d": 101.26586666666844,
      "v": 93
    },
    {
      "midi": 55,
      "hit": false,
      "t": 45569.64000000009,
      "d": 110.75954166666634,
      "v": 107
    },
    {
      "midi": 49,
      "hit": false,
      "t": 45582.29823333332,
      "d": 500.00021666666726,
      "v": 87
    },
    {
      "midi": 38,
      "hit": false,
      "t": 45588.627349999966,
      "d": 79.11395833333518,
      "v": 72
    },
    {
      "midi": 38,
      "hit": false,
      "t": 45784.829966666635,
      "d": 34.81014166666864,
      "v": 57
    },
    {
      "midi": 38,
      "hit": false,
      "t": 45870.27304166664,
      "d": 34.81014166666864,
      "v": 61
    },
    {
      "midi": 57,
      "hit": false,
      "t": 45946.22244166675,
      "d": 132.91145000000688,
      "v": 102
    },
    {
      "midi": 37,
      "hit": false,
      "t": 45949.38699999985,
      "d": 82.27851666666538,
      "v": 95
    },
    {
      "midi": 56,
      "hit": false,
      "t": 45958.88067499999,
      "d": 2708.8619333333336,
      "v": 92
    },
    {
      "midi": 50,
      "hit": false,
      "t": 45958.88067500009,
      "d": 85.44307500000286,
      "v": 85
    },
    {
      "midi": 38,
      "hit": false,
      "t": 45962.04523333331,
      "d": 44.303816666666535,
      "v": 67
    },
    {
      "midi": 38,
      "hit": false,
      "t": 46053.81742499997,
      "d": 34.81014166666864,
      "v": 57
    },
    {
      "midi": 38,
      "hit": false,
      "t": 46145.58961666664,
      "d": 34.81014166666864,
      "v": 61
    },
    {
      "midi": 38,
      "hit": false,
      "t": 46234.197249999976,
      "d": 31.64558333333116,
      "v": 57
    },
    {
      "midi": 57,
      "hit": false,
      "t": 46316.47576666676,
      "d": 145.56968333333498,
      "v": 113
    },
    {
      "midi": 50,
      "hit": false,
      "t": 46322.804883333425,
      "d": 110.75954166666634,
      "v": 107
    },
    {
      "midi": 37,
      "hit": false,
      "t": 46329.133999999845,
      "d": 82.27851666666538,
      "v": 90
    },
    {
      "midi": 49,
      "hit": false,
      "t": 46332.29855833332,
      "d": 531.6457999999984,
      "v": 90
    },
    {
      "midi": 38,
      "hit": false,
      "t": 46341.792233333304,
      "d": 72.78484166666749,
      "v": 72
    },
    {
      "midi": 38,
      "hit": false,
      "t": 46541.159408333304,
      "d": 28.481025000000955,
      "v": 64
    },
    {
      "midi": 38,
      "hit": false,
      "t": 46639.260716666635,
      "d": 31.64558333333116,
      "v": 64
    },
    {
      "midi": 57,
      "hit": false,
      "t": 46705.71644166676,
      "d": 104.43042500000593,
      "v": 107
    },
    {
      "midi": 37,
      "hit": false,
      "t": 46708.88099999984,
      "d": 82.27851666666538,
      "v": 92
    },
    {
      "midi": 50,
      "hit": false,
      "t": 46712.045558333426,
      "d": 85.44307500000286,
      "v": 89
    },
    {
      "midi": 38,
      "hit": false,
      "t": 46734.19746666663,
      "d": 25.316466666663473,
      "v": 72
    },
    {
      "midi": 38,
      "hit": false,
      "t": 46787.99495833329,
      "d": 22.151908333333267,
      "v": 51
    },
    {
      "midi": 38,
      "hit": false,
      "t": 46832.29877499996,
      "d": 34.81014166666864,
      "v": 53
    },
    {
      "midi": 38,
      "hit": false,
      "t": 46930.4000833333,
      "d": 28.481025000000955,
      "v": 57
    },
    {
      "midi": 38,
      "hit": false,
      "t": 47063.3115333333,
      "d": 3.1645583333302056,
      "v": 71
    },
    {
      "midi": 57,
      "hit": false,
      "t": 47072.80520833343,
      "d": 98.10130833333096,
      "v": 113
    },
    {
      "midi": 50,
      "hit": false,
      "t": 47075.96976666676,
      "d": 82.27851666666538,
      "v": 102
    },
    {
      "midi": 51,
      "hit": false,
      "t": 47079.134325,
      "d": 664.557249999998,
      "v": 98
    },
    {
      "midi": 37,
      "hit": false,
      "t": 47088.62799999984,
      "d": 82.27851666666538,
      "v": 106
    },
    {
      "midi": 38,
      "hit": false,
      "t": 47107.615349999964,
      "d": 79.11395833333518,
      "v": 73
    },
    {
      "midi": 49,
      "hit": false,
      "t": 47117.10902499998,
      "d": 506.32933333333494,
      "v": 90
    },
    {
      "midi": 51,
      "hit": false,
      "t": 47129.76725833334,
      "d": 674.0509250000032,
      "v": 98
    },
    {
      "midi": 38,
      "hit": false,
      "t": 47303.81796666663,
      "d": 34.81014166666864,
      "v": 58
    },
    {
      "midi": 38,
      "hit": false,
      "t": 47389.261041666636,
      "d": 34.81014166666864,
      "v": 62
    },
    {
      "midi": 57,
      "hit": false,
      "t": 47439.8939750001,
      "d": 113.92409999999654,
      "v": 107
    },
    {
      "midi": 50,
      "hit": false,
      "t": 47452.552208333436,
      "d": 75.9493999999977,
      "v": 89
    },
    {
      "midi": 37,
      "hit": false,
      "t": 47468.37499999983,
      "d": 82.27851666666538,
      "v": 92
    },
    {
      "midi": 38,
      "hit": false,
      "t": 47481.033233333306,
      "d": 44.303816666666535,
      "v": 68
    },
    {
      "midi": 38,
      "hit": false,
      "t": 47572.80542499997,
      "d": 34.81014166666864,
      "v": 58
    },
    {
      "midi": 38,
      "hit": false,
      "t": 47664.57761666664,
      "d": 34.81014166666864,
      "v": 62
    },
    {
      "midi": 38,
      "hit": false,
      "t": 47753.18524999997,
      "d": 31.64558333333116,
      "v": 58
    },
    {
      "midi": 57,
      "hit": false,
      "t": 47835.46376666676,
      "d": 110.75954166666634,
      "v": 113
    },
    {
      "midi": 37,
      "hit": false,
      "t": 47848.12199999983,
      "d": 82.27851666666538,
      "v": 90
    },
    {
      "midi": 50,
      "hit": false,
      "t": 47848.1220000001,
      "d": 72.78484166666749,
      "v": 93
    },
    {
      "midi": 38,
      "hit": false,
      "t": 47860.7802333333,
      "d": 72.78484166666749,
      "v": 73
    },
    {
      "midi": 49,
      "hit": false,
      "t": 47879.76758333332,
      "d": 553.7977083333317,
      "v": 88
    },
    {
      "midi": 50,
      "hit": false,
      "t": 47886.096699999995,
      "d": 2145.5705499999967,
      "v": 92
    },
    {
      "midi": 50,
      "hit": false,
      "t": 47905.08405000001,
      "d": 2170.8870166666675,
      "v": 100
    },
    {
      "midi": 38,
      "hit": false,
      "t": 48060.1474083333,
      "d": 28.481025000000955,
      "v": 64
    },
    {
      "midi": 38,
      "hit": false,
      "t": 48158.24871666663,
      "d": 31.64558333333116,
      "v": 64
    },
    {
      "midi": 57,
      "hit": false,
      "t": 48208.8816500001,
      "d": 72.78484166666749,
      "v": 102
    },
    {
      "midi": 50,
      "hit": false,
      "t": 48221.53988333343,
      "d": 44.303816666666535,
      "v": 72
    },
    {
      "midi": 37,
      "hit": false,
      "t": 48227.868999999824,
      "d": 82.27851666666538,
      "v": 100
    },
    {
      "midi": 38,
      "hit": false,
      "t": 48253.185466666626,
      "d": 25.316466666663473,
      "v": 72
    },
    {
      "midi": 38,
      "hit": false,
      "t": 48306.98295833329,
      "d": 22.151908333333267,
      "v": 52
    },
    {
      "midi": 38,
      "hit": false,
      "t": 48351.28677499996,
      "d": 34.81014166666864,
      "v": 54
    },
    {
      "midi": 57,
      "hit": false,
      "t": 48354.45133333343,
      "d": 63.2911666666696,
      "v": 98
    },
    {
      "midi": 50,
      "hit": false,
      "t": 48363.94500833343,
      "d": 41.13925833333633,
      "v": 85
    },
    {
      "midi": 38,
      "hit": false,
      "t": 48449.388083333295,
      "d": 28.481025000000955,
      "v": 58
    },
    {
      "midi": 57,
      "hit": false,
      "t": 48477.869108333434,
      "d": 72.78484166666749,
      "v": 102
    },
    {
      "midi": 50,
      "hit": false,
      "t": 48484.1982250001,
      "d": 50.63293333333422,
      "v": 93
    },
    {
      "midi": 38,
      "hit": false,
      "t": 48582.299533333295,
      "d": 3.1645583333302056,
      "v": 72
    },
    {
      "midi": 37,
      "hit": false,
      "t": 48607.61599999982,
      "d": 82.27851666666538,
      "v": 106
    },
    {
      "midi": 38,
      "hit": false,
      "t": 48626.60334999996,
      "d": 79.11395833333518,
      "v": 74
    },
    {
      "midi": 49,
      "hit": false,
      "t": 48626.60334999998,
      "d": 544.3040333333338,
      "v": 87
    },
    {
      "midi": 58,
      "hit": false,
      "t": 48626.6033500001,
      "d": 117.08865833333402,
      "v": 113
    },
    {
      "midi": 50,
      "hit": false,
      "t": 48629.76790833343,
      "d": 85.44307500000286,
      "v": 89
    },
    {
      "midi": 38,
      "hit": false,
      "t": 48822.80596666663,
      "d": 34.81014166666864,
      "v": 59
    },
    {
      "midi": 38,
      "hit": false,
      "t": 48908.24904166663,
      "d": 34.81014166666864,
      "v": 62
    },
    {
      "midi": 57,
      "hit": false,
      "t": 48949.3883000001,
      "d": 123.41777500000171,
      "v": 113
    },
    {
      "midi": 50,
      "hit": false,
      "t": 48962.046533333436,
      "d": 88.60763333333307,
      "v": 93
    },
    {
      "midi": 37,
      "hit": false,
      "t": 48987.362999999816,
      "d": 82.27851666666538,
      "v": 95
    },
    {
      "midi": 62,
      "hit": false,
      "t": 48987.36299999999,
      "d": 1041.1396916666636,
      "v": 95
    },
    {
      "midi": 38,
      "hit": false,
      "t": 49000.021233333304,
      "d": 44.303816666666535,
      "v": 69
    },
    {
      "midi": 38,
      "hit": false,
      "t": 49091.79342499997,
      "d": 34.81014166666864,
      "v": 59
    },
    {
      "midi": 38,
      "hit": false,
      "t": 49183.56561666664,
      "d": 34.81014166666864,
      "v": 62
    },
    {
      "midi": 38,
      "hit": false,
      "t": 49272.17324999997,
      "d": 31.64558333333116,
      "v": 59
    },
    {
      "midi": 57,
      "hit": false,
      "t": 49357.616325000105,
      "d": 91.77219166666328,
      "v": 127
    },
    {
      "midi": 50,
      "hit": false,
      "t": 49360.780883333435,
      "d": 79.11395833333518,
      "v": 113
    },
    {
      "midi": 37,
      "hit": false,
      "t": 49367.10999999981,
      "d": 82.27851666666538,
      "v": 91
    },
    {
      "midi": 49,
      "hit": false,
      "t": 49376.603674999984,
      "d": 522.1521250000005,
      "v": 87
    },
    {
      "midi": 38,
      "hit": false,
      "t": 49379.7682333333,
      "d": 72.78484166666749,
      "v": 74
    },
    {
      "midi": 38,
      "hit": false,
      "t": 49579.1354083333,
      "d": 28.481025000000955,
      "v": 65
    },
    {
      "midi": 38,
      "hit": false,
      "t": 49677.23671666663,
      "d": 31.64558333333116,
      "v": 65
    },
    {
      "midi": 57,
      "hit": false,
      "t": 49718.375975000105,
      "d": 94.93675000000076,
      "v": 93
    },
    {
      "midi": 50,
      "hit": false,
      "t": 49737.36332500011,
      "d": 60.126608333332115,
      "v": 56
    },
    {
      "midi": 37,
      "hit": false,
      "t": 49746.85699999981,
      "d": 82.27851666666538,
      "v": 98
    },
    {
      "midi": 38,
      "hit": false,
      "t": 49772.17346666662,
      "d": 25.316466666663473,
      "v": 73
    },
    {
      "midi": 38,
      "hit": false,
      "t": 49825.97095833329,
      "d": 22.151908333333267,
      "v": 52
    },
    {
      "midi": 38,
      "hit": false,
      "t": 49870.274774999954,
      "d": 34.81014166666864,
      "v": 54
    },
    {
      "midi": 38,
      "hit": false,
      "t": 49968.37608333329,
      "d": 28.481025000000955,
      "v": 59
    },
    {
      "midi": 38,
      "hit": false,
      "t": 50101.28753333329,
      "d": 3.1645583333302056,
      "v": 72
    },
    {
      "midi": 57,
      "hit": false,
      "t": 50101.28753333344,
      "d": 98.10130833333824,
      "v": 113
    },
    {
      "midi": 50,
      "hit": false,
      "t": 50107.616650000105,
      "d": 85.44307500000286,
      "v": 93
    },
    {
      "midi": 49,
      "hit": false,
      "t": 50120.27488333332,
      "d": 534.8103583333359,
      "v": 91
    },
    {
      "midi": 37,
      "hit": false,
      "t": 50126.6039999998,
      "d": 82.27851666666538,
      "v": 103
    },
    {
      "midi": 38,
      "hit": false,
      "t": 50145.59134999996,
      "d": 79.11395833333518,
      "v": 75
    },
    {
      "midi": 49,
      "hit": false,
      "t": 50145.59134999999,
      "d": 1705.6969416666689,
      "v": 106
    },
    {
      "midi": 49,
      "hit": false,
      "t": 50164.57870000001,
      "d": 759.4939999999988,
      "v": 92
    },
    {
      "midi": 61,
      "hit": false,
      "t": 50167.74325833332,
      "d": 2000.000866666669,
      "v": 100
    },
    {
      "midi": 38,
      "hit": false,
      "t": 50341.79396666663,
      "d": 34.81014166666864,
      "v": 59
    },
    {
      "midi": 38,
      "hit": false,
      "t": 50427.23704166663,
      "d": 34.81014166666864,
      "v": 63
    },
    {
      "midi": 57,
      "hit": false,
      "t": 50481.03453333344,
      "d": 94.93674999999348,
      "v": 107
    },
    {
      "midi": 50,
      "hit": false,
      "t": 50484.19909166677,
      "d": 82.27851666666538,
      "v": 93
    },
    {
      "midi": 37,
      "hit": false,
      "t": 50506.3509999998,
      "d": 82.27851666666538,
      "v": 92
    },
    {
      "midi": 38,
      "hit": false,
      "t": 50519.0092333333,
      "d": 44.303816666666535,
      "v": 70
    },
    {
      "midi": 38,
      "hit": false,
      "t": 50610.781424999965,
      "d": 34.81014166666864,
      "v": 59
    },
    {
      "midi": 38,
      "hit": false,
      "t": 50702.553616666635,
      "d": 34.81014166666864,
      "v": 63
    },
    {
      "midi": 38,
      "hit": false,
      "t": 50791.16124999997,
      "d": 31.64558333333116,
      "v": 59
    },
    {
      "midi": 57,
      "hit": false,
      "t": 50854.45241666677,
      "d": 101.26586666666844,
      "v": 113
    },
    {
      "midi": 50,
      "hit": false,
      "t": 50860.78153333344,
      "d": 82.27851666666538,
      "v": 102
    },
    {
      "midi": 49,
      "hit": false,
      "t": 50863.94609166665,
      "d": 544.3040333333338,
      "v": 84
    },
    {
      "midi": 37,
      "hit": false,
      "t": 50886.097999999794,
      "d": 82.27851666666538,
      "v": 91
    },
    {
      "midi": 38,
      "hit": false,
      "t": 50898.7562333333,
      "d": 72.78484166666749,
      "v": 75
    },
    {
      "midi": 68,
      "hit": false,
      "t": 50901.92079166666,
      "d": 977.8485250000012,
      "v": 106
    },
    {
      "midi": 38,
      "hit": false,
      "t": 51098.1234083333,
      "d": 28.481025000000955,
      "v": 66
    },
    {
      "midi": 38,
      "hit": false,
      "t": 51196.22471666663,
      "d": 31.64558333333116,
      "v": 66
    },
    {
      "midi": 57,
      "hit": false,
      "t": 51246.85765000011,
      "d": 101.26586666666844,
      "v": 107
    },
    {
      "midi": 50,
      "hit": false,
      "t": 51256.351325000105,
      "d": 79.11395833333518,
      "v": 89
    },
    {
      "midi": 37,
      "hit": false,
      "t": 51265.84499999979,
      "d": 82.27851666666538,
      "v": 87
    },
    {
      "midi": 38,
      "hit": false,
      "t": 51291.16146666662,
      "d": 25.316466666663473,
      "v": 74
    },
    {
      "midi": 38,
      "hit": false,
      "t": 51344.958958333285,
      "d": 22.151908333333267,
      "v": 53
    },
    {
      "midi": 38,
      "hit": false,
      "t": 51389.26277499995,
      "d": 34.81014166666864,
      "v": 54
    },
    {
      "midi": 38,
      "hit": false,
      "t": 51487.36408333329,
      "d": 28.481025000000955,
      "v": 59
    },
    {
      "midi": 38,
      "hit": false,
      "t": 51620.27553333329,
      "d": 3.1645583333302056,
      "v": 72
    },
    {
      "midi": 71,
      "hit": false,
      "t": 51632.93376666667,
      "d": 756.3294416666686,
      "v": 111
    },
    {
      "midi": 37,
      "hit": false,
      "t": 51645.591999999786,
      "d": 82.27851666666538,
      "v": 106
    },
    {
      "midi": 57,
      "hit": false,
      "t": 51648.75655833344,
      "d": 117.08865833333402,
      "v": 107
    },
    {
      "midi": 50,
      "hit": false,
      "t": 51658.25023333344,
      "d": 79.11395833333518,
      "v": 80
    },
    {
      "midi": 38,
      "hit": false,
      "t": 51664.579349999956,
      "d": 79.11395833333518,
      "v": 76
    },
    {
      "midi": 49,
      "hit": false,
      "t": 51667.743908333316,
      "d": 518.987566666663,
      "v": 90
    },
    {
      "midi": 38,
      "hit": false,
      "t": 51860.781966666626,
      "d": 34.81014166666864,
      "v": 60
    },
    {
      "midi": 38,
      "hit": false,
      "t": 51946.22504166663,
      "d": 34.81014166666864,
      "v": 63
    },
    {
      "midi": 67,
      "hit": false,
      "t": 52009.51620833333,
      "d": 348.1014166666646,
      "v": 100
    },
    {
      "midi": 57,
      "hit": false,
      "t": 52015.84532500011,
      "d": 72.78484166666749,
      "v": 102
    },
    {
      "midi": 50,
      "hit": false,
      "t": 52022.17444166678,
      "d": 56.96205000000191,
      "v": 76
    },
    {
      "midi": 37,
      "hit": false,
      "t": 52025.33899999978,
      "d": 82.27851666666538,
      "v": 95
    },
    {
      "midi": 38,
      "hit": false,
      "t": 52037.9972333333,
      "d": 44.303816666666535,
      "v": 70
    },
    {
      "midi": 38,
      "hit": false,
      "t": 52129.76942499996,
      "d": 34.81014166666864,
      "v": 60
    },
    {
      "midi": 57,
      "hit": false,
      "t": 52161.415008333446,
      "d": 63.2911666666696,
      "v": 93
    },
    {
      "midi": 50,
      "hit": false,
      "t": 52170.908683333444,
      "d": 41.13925833333633,
      "v": 60
    },
    {
      "midi": 38,
      "hit": false,
      "t": 52221.54161666663,
      "d": 34.81014166666864,
      "v": 63
    },
    {
      "midi": 57,
      "hit": false,
      "t": 52284.83278333345,
      "d": 75.9493999999977,
      "v": 98
    },
    {
      "midi": 50,
      "hit": false,
      "t": 52287.99734166678,
      "d": 60.126608333332115,
      "v": 85
    },
    {
      "midi": 38,
      "hit": false,
      "t": 52310.149249999966,
      "d": 31.64558333333116,
      "v": 60
    },
    {
      "midi": 37,
      "hit": false,
      "t": 52405.08599999978,
      "d": 82.27851666666538,
      "v": 95
    },
    {
      "midi": 38,
      "hit": false,
      "t": 52417.744233333295,
      "d": 72.78484166666749,
      "v": 76
    },
    {
      "midi": 49,
      "hit": false,
      "t": 52436.73158333331,
      "d": 465.1900749999986,
      "v": 91
    },
    {
      "midi": 70,
      "hit": false,
      "t": 52449.389816666655,
      "d": 329.1140666666688,
      "v": 95
    },
    {
      "midi": 72,
      "hit": false,
      "t": 52455.71893333334,
      "d": 2243.671858333335,
      "v": 98
    },
    {
      "midi": 58,
      "hit": false,
      "t": 52458.88349166678,
      "d": 142.4051249999975,
      "v": 113
    },
    {
      "midi": 50,
      "hit": false,
      "t": 52474.70628333344,
      "d": 94.93675000000076,
      "v": 68
    },
    {
      "midi": 38,
      "hit": false,
      "t": 52617.111408333294,
      "d": 28.481025000000955,
      "v": 67
    },
    {
      "midi": 38,
      "hit": false,
      "t": 52715.212716666625,
      "d": 31.64558333333116,
      "v": 67
    },
    {
      "midi": 37,
      "hit": false,
      "t": 52784.83299999977,
      "d": 82.27851666666538,
      "v": 98
    },
    {
      "midi": 57,
      "hit": false,
      "t": 52797.49123333344,
      "d": 72.78484166667477,
      "v": 102
    },
    {
      "midi": 38,
      "hit": false,
      "t": 52810.14946666662,
      "d": 25.316466666663473,
      "v": 75
    },
    {
      "midi": 50,
      "hit": false,
      "t": 52816.478583333446,
      "d": 41.13925833333633,
      "v": 72
    },
    {
      "midi": 64,
      "hit": false,
      "t": 52848.124166666654,
      "d": 1863.924858333332,
      "v": 106
    },
    {
      "midi": 38,
      "hit": false,
      "t": 52863.94695833328,
      "d": 22.151908333333267,
      "v": 54
    },
    {
      "midi": 38,
      "hit": false,
      "t": 52908.25077499995,
      "d": 34.81014166666864,
      "v": 55
    },
    {
      "midi": 57,
      "hit": false,
      "t": 52933.56724166679,
      "d": 69.62028333333001,
      "v": 102
    },
    {
      "midi": 50,
      "hit": false,
      "t": 52936.73180000012,
      "d": 53.79749166666443,
      "v": 85
    },
    {
      "midi": 38,
      "hit": false,
      "t": 53006.35208333329,
      "d": 28.481025000000955,
      "v": 60
    },
    {
      "midi": 57,
      "hit": false,
      "t": 53060.14957500012,
      "d": 69.62028333333001,
      "v": 102
    },
    {
      "midi": 50,
      "hit": false,
      "t": 53066.47869166679,
      "d": 53.79749166666443,
      "v": 85
    },
    {
      "midi": 38,
      "hit": false,
      "t": 53139.26353333329,
      "d": 3.1645583333302056,
      "v": 73
    },
    {
      "midi": 37,
      "hit": false,
      "t": 53164.57999999977,
      "d": 82.27851666666538,
      "v": 108
    },
    {
      "midi": 38,
      "hit": false,
      "t": 53183.567349999954,
      "d": 79.11395833333518,
      "v": 77
    },
    {
      "midi": 49,
      "hit": false,
      "t": 53183.567349999976,
      "d": 541.1394750000036,
      "v": 100
    },
    {
      "midi": 58,
      "hit": false,
      "t": 53218.37749166678,
      "d": 110.75954166666634,
      "v": 107
    },
    {
      "midi": 50,
      "hit": false,
      "t": 53231.03572500012,
      "d": 72.78484166666749,
      "v": 76
    },
    {
      "midi": 38,
      "hit": false,
      "t": 53379.76996666662,
      "d": 34.81014166666864,
      "v": 61
    },
    {
      "midi": 38,
      "hit": false,
      "t": 53465.213041666626,
      "d": 34.81014166666864,
      "v": 64
    },
    {
      "midi": 37,
      "hit": false,
      "t": 53544.326999999765,
      "d": 82.27851666666538,
      "v": 98
    },
    {
      "midi": 57,
      "hit": false,
      "t": 53547.49155833345,
      "d": 139.24056666666002,
      "v": 102
    },
    {
      "midi": 38,
      "hit": false,
      "t": 53556.9852333333,
      "d": 44.303816666666535,
      "v": 71
    },
    {
      "midi": 69,
      "hit": false,
      "t": 53569.64346666666,
      "d": 79.11395833333518,
      "v": 68
    },
    {
      "midi": 50,
      "hit": false,
      "t": 53569.643466666785,
      "d": 91.77219166666328,
      "v": 64
    },
    {
      "midi": 44,
      "hit": false,
      "t": 53572.80802499998,
      "d": 373.41788333333534,
      "v": 77
    },
    {
      "midi": 63,
      "hit": false,
      "t": 53572.80802499999,
      "d": 72.78484166666749,
      "v": 77
    },
    {
      "midi": 66,
      "hit": false,
      "t": 53629.77007499999,
      "d": 75.9493999999977,
      "v": 85
    },
    {
      "midi": 72,
      "hit": false,
      "t": 53636.09919166666,
      "d": 69.62028333333728,
      "v": 87
    },
    {
      "midi": 38,
      "hit": false,
      "t": 53648.75742499996,
      "d": 34.81014166666864,
      "v": 61
    },
    {
      "midi": 70,
      "hit": false,
      "t": 53693.061241666655,
      "d": 53.797491666671704,
      "v": 93
    },
    {
      "midi": 76,
      "hit": false,
      "t": 53708.88403333333,
      "d": 72.78484166666749,
      "v": 93
    },
    {
      "midi": 38,
      "hit": false,
      "t": 53740.52961666663,
      "d": 34.81014166666864,
      "v": 64
    },
    {
      "midi": 72,
      "hit": false,
      "t": 53750.02329166666,
      "d": 75.9493999999977,
      "v": 57
    },
    {
      "midi": 78,
      "hit": false,
      "t": 53769.01064166666,
      "d": 75.94940000000497,
      "v": 78
    },
    {
      "midi": 76,
      "hit": false,
      "t": 53810.14989999999,
      "d": 66.4557249999998,
      "v": 77
    },
    {
      "midi": 82,
      "hit": false,
      "t": 53825.97269166666,
      "d": 63.2911666666696,
      "v": 85
    },
    {
      "midi": 38,
      "hit": false,
      "t": 53829.13724999996,
      "d": 31.64558333333116,
      "v": 61
    },
    {
      "midi": 81,
      "hit": false,
      "t": 53876.60562499999,
      "d": 66.4557249999998,
      "v": 90
    },
    {
      "midi": 87,
      "hit": false,
      "t": 53882.934741666664,
      "d": 79.11395833333518,
      "v": 79
    },
    {
      "midi": 37,
      "hit": false,
      "t": 53924.07399999976,
      "d": 82.27851666666538,
      "v": 92
    },
    {
      "midi": 57,
      "hit": false,
      "t": 53924.07400000011,
      "d": 110.75954166666634,
      "v": 107
    },
    {
      "midi": 82,
      "hit": false,
      "t": 53933.56767499999,
      "d": 117.08865833333402,
      "v": 79
    },
    {
      "midi": 57,
      "hit": false,
      "t": 53933.567675,
      "d": 389.2406750000009,
      "v": 82
    },
    {
      "midi": 38,
      "hit": false,
      "t": 53936.73223333329,
      "d": 72.78484166666749,
      "v": 77
    },
    {
      "midi": 50,
      "hit": false,
      "t": 53939.896791666775,
      "d": 75.9493999999977,
      "v": 85
    },
    {
      "midi": 49,
      "hit": false,
      "t": 53943.06134999998,
      "d": 522.1521249999932,
      "v": 87
    },
    {
      "midi": 88,
      "hit": false,
      "t": 53946.225908333334,
      "d": 110.75954166666634,
      "v": 57
    },
    {
      "midi": 38,
      "hit": false,
      "t": 54136.09940833329,
      "d": 28.481025000000955,
      "v": 68
    },
    {
      "midi": 38,
      "hit": false,
      "t": 54234.20071666662,
      "d": 31.64558333333116,
      "v": 68
    },
    {
      "midi": 57,
      "hit": false,
      "t": 54284.83365000011,
      "d": 120.25321666666423,
      "v": 107
    },
    {
      "midi": 50,
      "hit": false,
      "t": 54294.32732500011,
      "d": 85.44307500000286,
      "v": 93
    },
    {
      "midi": 37,
      "hit": false,
      "t": 54303.820999999756,
      "d": 82.27851666666538,
      "v": 95
    },
    {
      "midi": 75,
      "hit": false,
      "t": 54316.47923333333,
      "d": 82.27851666666538,
      "v": 82
    },
    {
      "midi": 38,
      "hit": false,
      "t": 54329.137466666616,
      "d": 25.316466666663473,
      "v": 76
    },
    {
      "midi": 44,
      "hit": false,
      "t": 54332.302024999975,
      "d": 382.91155833333323,
      "v": 78
    },
    {
      "midi": 63,
      "hit": false,
      "t": 54332.30202499999,
      "d": 79.11395833333518,
      "v": 82
    },
    {
      "midi": 38,
      "hit": false,
      "t": 54382.93495833328,
      "d": 22.151908333333267,
      "v": 54
    },
    {
      "midi": 78,
      "hit": false,
      "t": 54382.93495833333,
      "d": 66.4557249999998,
      "v": 82
    },
    {
      "midi": 66,
      "hit": false,
      "t": 54398.75774999999,
      "d": 63.2911666666696,
      "v": 87
    },
    {
      "midi": 38,
      "hit": false,
      "t": 54427.23877499995,
      "d": 34.81014166666864,
      "v": 55
    },
    {
      "midi": 82,
      "hit": false,
      "t": 54436.732449999996,
      "d": 69.62028333333728,
      "v": 95
    },
    {
      "midi": 70,
      "hit": false,
      "t": 54446.226124999994,
      "d": 63.29116666666232,
      "v": 90
    },
    {
      "midi": 72,
      "hit": false,
      "t": 54506.352733333326,
      "d": 82.27851666666538,
      "v": 66
    },
    {
      "midi": 84,
      "hit": false,
      "t": 54509.51729166666,
      "d": 79.11395833333518,
      "v": 71
    },
    {
      "midi": 38,
      "hit": false,
      "t": 54525.340083333285,
      "d": 28.481025000000955,
      "v": 61
    },
    {
      "midi": 88,
      "hit": false,
      "t": 54560.150225,
      "d": 72.78484166666749,
      "v": 71
    },
    {
      "midi": 76,
      "hit": false,
      "t": 54569.64389999999,
      "d": 66.4557249999998,
      "v": 85
    },
    {
      "midi": 93,
      "hit": false,
      "t": 54632.935066666665,
      "d": 75.9493999999977,
      "v": 79
    },
    {
      "midi": 81,
      "hit": false,
      "t": 54636.09962499999,
      "d": 82.27851666666538,
      "v": 82
    },
    {
      "midi": 38,
      "hit": false,
      "t": 54658.251533333285,
      "d": 3.1645583333302056,
      "v": 74
    },
    {
      "midi": 57,
      "hit": false,
      "t": 54661.416091666775,
      "d": 107.59498333333613,
      "v": 107
    },
    {
      "midi": 50,
      "hit": false,
      "t": 54667.74520833344,
      "d": 82.27851666666538,
      "v": 93
    },
    {
      "midi": 37,
      "hit": false,
      "t": 54683.56799999975,
      "d": 82.27851666666538,
      "v": 108
    },
    {
      "midi": 57,
      "hit": false,
      "t": 54683.568,
      "d": 382.91155833333323,
      "v": 85
    },
    {
      "midi": 96,
      "hit": false,
      "t": 54693.061675,
      "d": 91.77219166666328,
      "v": 65
    },
    {
      "midi": 49,
      "hit": false,
      "t": 54699.39079166664,
      "d": 534.8103583333286,
      "v": 91
    },
    {
      "midi": 38,
      "hit": false,
      "t": 54702.55534999995,
      "d": 79.11395833333518,
      "v": 78
    },
    {
      "midi": 84,
      "hit": false,
      "t": 54702.55534999999,
      "d": 101.26586666666844,
      "v": 69
    },
    {
      "midi": 38,
      "hit": false,
      "t": 54898.75796666662,
      "d": 34.81014166666864,
      "v": 62
    },
    {
      "midi": 38,
      "hit": false,
      "t": 54984.20104166662,
      "d": 34.81014166666864,
      "v": 64
    },
    {
      "midi": 57,
      "hit": false,
      "t": 55025.34030000011,
      "d": 66.45572499999253,
      "v": 102
    },
    {
      "midi": 50,
      "hit": false,
      "t": 55034.83397500011,
      "d": 47.46837499999674,
      "v": 64
    },
    {
      "midi": 37,
      "hit": false,
      "t": 55063.31499999975,
      "d": 82.27851666666538,
      "v": 95
    },
    {
      "midi": 44,
      "hit": false,
      "t": 55069.64411666664,
      "d": 376.58244166666555,
      "v": 79
    },
    {
      "midi": 38,
      "hit": false,
      "t": 55075.973233333294,
      "d": 44.303816666666535,
      "v": 72
    },
    {
      "midi": 57,
      "hit": false,
      "t": 55164.58086666677,
      "d": 69.62028333333728,
      "v": 98
    },
    {
      "midi": 38,
      "hit": false,
      "t": 55167.74542499996,
      "d": 34.81014166666864,
      "v": 62
    },
    {
      "midi": 50,
      "hit": false,
      "t": 55170.90998333344,
      "d": 50.63293333333422,
      "v": 76
    },
    {
      "midi": 38,
      "hit": false,
      "t": 55259.51761666663,
      "d": 34.81014166666864,
      "v": 64
    },
    {
      "midi": 57,
      "hit": false,
      "t": 55300.65687500011,
      "d": 69.62028333333001,
      "v": 98
    },
    {
      "midi": 50,
      "hit": false,
      "t": 55303.82143333344,
      "d": 56.96205000000191,
      "v": 80
    },
    {
      "midi": 38,
      "hit": false,
      "t": 55348.12524999996,
      "d": 31.64558333333116,
      "v": 62
    },
    {
      "midi": 37,
      "hit": false,
      "t": 55443.06199999974,
      "d": 82.27851666666538,
      "v": 95
    },
    {
      "midi": 38,
      "hit": false,
      "t": 55455.72023333329,
      "d": 72.78484166666749,
      "v": 78
    },
    {
      "midi": 49,
      "hit": false,
      "t": 55455.720233333304,
      "d": 493.67109999999957,
      "v": 84
    },
    {
      "midi": 50,
      "hit": false,
      "t": 55471.54302500011,
      "d": 110.75954166666634,
      "v": 64
    },
    {
      "midi": 58,
      "hit": false,
      "t": 55474.70758333344,
      "d": 129.7468916666694,
      "v": 102
    },
    {
      "midi": 68,
      "hit": false,
      "t": 55500.024049999985,
      "d": 977.8485250000012,
      "v": 108
    },
    {
      "midi": 38,
      "hit": false,
      "t": 55655.08740833329,
      "d": 28.481025000000955,
      "v": 68
    },
    {
      "midi": 38,
      "hit": false,
      "t": 55753.18871666662,
      "d": 31.64558333333116,
      "v": 68
    },
    {
      "midi": 57,
      "hit": false,
      "t": 55794.32797500011,
      "d": 145.56968333333498,
      "v": 107
    },
    {
      "midi": 50,
      "hit": false,
      "t": 55816.47988333344,
      "d": 85.44307500000286,
      "v": 68
    },
    {
      "midi": 37,
      "hit": false,
      "t": 55822.80899999974,
      "d": 82.27851666666538,
      "v": 95
    },
    {
      "midi": 44,
      "hit": false,
      "t": 55835.46723333331,
      "d": 398.7343499999988,
      "v": 93
    },
    {
      "midi": 38,
      "hit": false,
      "t": 55848.125466666614,
      "d": 25.316466666663473,
      "v": 77
    },
    {
      "midi": 38,
      "hit": false,
      "t": 55901.92295833328,
      "d": 22.151908333333267,
      "v": 54
    },
    {
      "midi": 38,
      "hit": false,
      "t": 55946.226774999945,
      "d": 34.81014166666864,
      "v": 56
    },
    {
      "midi": 38,
      "hit": false,
      "t": 56044.32808333328,
      "d": 28.481025000000955,
      "v": 62
    },
    {
      "midi": 38,
      "hit": false,
      "t": 56177.23953333328,
      "d": 3.1645583333302056,
      "v": 75
    },
    {
      "midi": 57,
      "hit": false,
      "t": 56196.226883333446,
      "d": 110.75954166667361,
      "v": 113
    },
    {
      "midi": 37,
      "hit": false,
      "t": 56202.555999999735,
      "d": 82.27851666666538,
      "v": 106
    },
    {
      "midi": 71,
      "hit": false,
      "t": 56208.88511666667,
      "d": 705.6965083333344,
      "v": 114
    },
    {
      "midi": 50,
      "hit": false,
      "t": 56208.88511666678,
      "d": 85.44307500000286,
      "v": 98
    },
    {
      "midi": 38,
      "hit": false,
      "t": 56221.54334999995,
      "d": 79.11395833333518,
      "v": 79
    },
    {
      "midi": 49,
      "hit": false,
      "t": 56250.02437499997,
      "d": 474.6837499999965,
      "v": 95
    },
    {
      "midi": 38,
      "hit": false,
      "t": 56417.74596666662,
      "d": 34.81014166666864,
      "v": 62
    },
    {
      "midi": 38,
      "hit": false,
      "t": 56503.18904166662,
      "d": 34.81014166666864,
      "v": 65
    },
    {
      "midi": 67,
      "hit": false,
      "t": 56575.97388333332,
      "d": 338.6077416666667,
      "v": 98
    },
    {
      "midi": 37,
      "hit": false,
      "t": 56582.30299999973,
      "d": 82.27851666666538,
      "v": 98
    },
    {
      "midi": 57,
      "hit": false,
      "t": 56582.303000000116,
      "d": 107.59498333332886,
      "v": 107
    },
    {
      "midi": 50,
      "hit": false,
      "t": 56591.796675000114,
      "d": 75.9493999999977,
      "v": 85
    },
    {
      "midi": 38,
      "hit": false,
      "t": 56594.96123333329,
      "d": 44.303816666666535,
      "v": 72
    },
    {
      "midi": 44,
      "hit": false,
      "t": 56610.78402499997,
      "d": 389.24067499999364,
      "v": 101
    },
    {
      "midi": 38,
      "hit": false,
      "t": 56686.733424999955,
      "d": 34.81014166666864,
      "v": 62
    },
    {
      "midi": 38,
      "hit": false,
      "t": 56778.505616666625,
      "d": 34.81014166666864,
      "v": 65
    },
    {
      "midi": 38,
      "hit": false,
      "t": 56867.11324999996,
      "d": 31.64558333333116,
      "v": 62
    },
    {
      "midi": 57,
      "hit": false,
      "t": 56946.22720833345,
      "d": 120.25321666666423,
      "v": 107
    },
    {
      "midi": 50,
      "hit": false,
      "t": 56955.720883333444,
      "d": 91.77219166666328,
      "v": 93
    },
    {
      "midi": 37,
      "hit": false,
      "t": 56962.04999999973,
      "d": 82.27851666666538,
      "v": 98
    },
    {
      "midi": 38,
      "hit": false,
      "t": 56974.70823333329,
      "d": 72.78484166666749,
      "v": 79
    },
    {
      "midi": 70,
      "hit": false,
      "t": 56993.69558333332,
      "d": 297.46848333333037,
      "v": 106
    },
    {
      "midi": 49,
      "hit": false,
      "t": 57003.189258333296,
      "d": 462.02551666666113,
      "v": 87
    },
    {
      "midi": 72,
      "hit": false,
      "t": 57012.68293333334,
      "d": 648.7344583333324,
      "v": 111
    },
    {
      "midi": 38,
      "hit": false,
      "t": 57174.07540833329,
      "d": 28.481025000000955,
      "v": 69
    },
    {
      "midi": 38,
      "hit": false,
      "t": 57272.17671666662,
      "d": 31.64558333333116,
      "v": 69
    },
    {
      "midi": 57,
      "hit": false,
      "t": 57322.80965000011,
      "d": 110.75954166666634,
      "v": 102
    },
    {
      "midi": 50,
      "hit": false,
      "t": 57325.97420833344,
      "d": 94.93675000000076,
      "v": 93
    },
    {
      "midi": 37,
      "hit": false,
      "t": 57341.79699999972,
      "d": 82.27851666666538,
      "v": 100
    },
    {
      "midi": 64,
      "hit": false,
      "t": 57363.94890833332,
      "d": 215.189966666665,
      "v": 108
    },
    {
      "midi": 38,
      "hit": false,
      "t": 57367.11346666661,
      "d": 25.316466666663473,
      "v": 78
    },
    {
      "midi": 44,
      "hit": false,
      "t": 57367.113466666626,
      "d": 379.74699999999575,
      "v": 106
    },
    {
      "midi": 38,
      "hit": false,
      "t": 57420.910958333276,
      "d": 22.151908333333267,
      "v": 55
    },
    {
      "midi": 38,
      "hit": false,
      "t": 57465.21477499994,
      "d": 34.81014166666864,
      "v": 57
    },
    {
      "midi": 65,
      "hit": false,
      "t": 57553.82240833332,
      "d": 158.22791666666308,
      "v": 72
    },
    {
      "midi": 38,
      "hit": false,
      "t": 57563.31608333328,
      "d": 28.481025000000955,
      "v": 62
    },
    {
      "midi": 67,
      "hit": false,
      "t": 57677.24018333331,
      "d": 132.91145000000688,
      "v": 103
    },
    {
      "midi": 38,
      "hit": false,
      "t": 57696.22753333328,
      "d": 3.1645583333302056,
      "v": 76
    },
    {
      "midi": 57,
      "hit": false,
      "t": 57705.721208333445,
      "d": 123.41777499999444,
      "v": 107
    },
    {
      "midi": 50,
      "hit": false,
      "t": 57715.21488333344,
      "d": 88.60763333333307,
      "v": 85
    },
    {
      "midi": 37,
      "hit": false,
      "t": 57721.54399999972,
      "d": 82.27851666666538,
      "v": 103
    },
    {
      "midi": 38,
      "hit": false,
      "t": 57740.53134999995,
      "d": 79.11395833333518,
      "v": 80
    },
    {
      "midi": 49,
      "hit": false,
      "t": 57750.02502499995,
      "d": 452.53184166666324,
      "v": 103
    },
    {
      "midi": 71,
      "hit": false,
      "t": 57759.5187,
      "d": 651.8990166666699,
      "v": 114
    },
    {
      "midi": 68,
      "hit": false,
      "t": 57791.16428333332,
      "d": 265.8229000000065,
      "v": 100
    },
    {
      "midi": 38,
      "hit": false,
      "t": 57936.733966666616,
      "d": 34.81014166666864,
      "v": 63
    },
    {
      "midi": 38,
      "hit": false,
      "t": 58022.17704166662,
      "d": 34.81014166666864,
      "v": 66
    },
    {
      "midi": 57,
      "hit": false,
      "t": 58072.809975000106,
      "d": 129.7468916666694,
      "v": 107
    },
    {
      "midi": 50,
      "hit": false,
      "t": 58079.13909166677,
      "d": 101.26586666666844,
      "v": 85
    },
    {
      "midi": 37,
      "hit": false,
      "t": 58101.290999999714,
      "d": 82.27851666666538,
      "v": 92
    },
    {
      "midi": 44,
      "hit": false,
      "t": 58113.94923333328,
      "d": 382.91155833333323,
      "v": 106
    },
    {
      "midi": 38,
      "hit": false,
      "t": 58113.94923333329,
      "d": 44.303816666666535,
      "v": 73
    },
    {
      "midi": 67,
      "hit": false,
      "t": 58136.10114166666,
      "d": 297.46848333333037,
      "v": 100
    },
    {
      "midi": 38,
      "hit": false,
      "t": 58205.72142499995,
      "d": 34.81014166666864,
      "v": 63
    },
    {
      "midi": 38,
      "hit": false,
      "t": 58297.49361666662,
      "d": 34.81014166666864,
      "v": 66
    },
    {
      "midi": 38,
      "hit": false,
      "t": 58386.101249999956,
      "d": 31.64558333333116,
      "v": 63
    },
    {
      "midi": 57,
      "hit": false,
      "t": 58468.379766666774,
      "d": 123.41777499999444,
      "v": 107
    },
    {
      "midi": 50,
      "hit": false,
      "t": 58474.70888333344,
      "d": 91.77219166666328,
      "v": 89
    },
    {
      "midi": 37,
      "hit": false,
      "t": 58481.03799999971,
      "d": 82.27851666666538,
      "v": 92
    },
    {
      "midi": 38,
      "hit": false,
      "t": 58493.696233333285,
      "d": 72.78484166666749,
      "v": 80
    },
    {
      "midi": 49,
      "hit": false,
      "t": 58500.025349999945,
      "d": 468.3546333333361,
      "v": 90
    },
    {
      "midi": 70,
      "hit": false,
      "t": 58512.683583333324,
      "d": 297.46848333333037,
      "v": 108
    },
    {
      "midi": 58,
      "hit": false,
      "t": 58515.848141666655,
      "d": 275.3165749999971,
      "v": 108
    },
    {
      "midi": 72,
      "hit": false,
      "t": 58515.84814166667,
      "d": 639.2407833333345,
      "v": 108
    },
    {
      "midi": 38,
      "hit": false,
      "t": 58693.063408333284,
      "d": 28.481025000000955,
      "v": 70
    },
    {
      "midi": 38,
      "hit": false,
      "t": 58791.164716666615,
      "d": 31.64558333333116,
      "v": 70
    },
    {
      "midi": 57,
      "hit": false,
      "t": 58825.97485833344,
      "d": 120.25321666666423,
      "v": 98
    },
    {
      "midi": 50,
      "hit": false,
      "t": 58832.303975000104,
      "d": 88.60763333333307,
      "v": 76
    },
    {
      "midi": 37,
      "hit": false,
      "t": 58860.784999999705,
      "d": 82.27851666666538,
      "v": 100
    },
    {
      "midi": 59,
      "hit": false,
      "t": 58873.44323333332,
      "d": 278.4811333333346,
      "v": 95
    },
    {
      "midi": 64,
      "hit": false,
      "t": 58873.443233333324,
      "d": 243.67099166666594,
      "v": 108
    },
    {
      "midi": 44,
      "hit": false,
      "t": 58879.77234999995,
      "d": 392.4052333333311,
      "v": 106
    },
    {
      "midi": 38,
      "hit": false,
      "t": 58886.10146666661,
      "d": 25.316466666663473,
      "v": 79
    },
    {
      "midi": 38,
      "hit": false,
      "t": 58939.89895833327,
      "d": 22.151908333333267,
      "v": 55
    },
    {
      "midi": 38,
      "hit": false,
      "t": 58984.20277499994,
      "d": 34.81014166666864,
      "v": 57
    },
    {
      "midi": 38,
      "hit": false,
      "t": 59082.30408333328,
      "d": 28.481025000000955,
      "v": 63
    },
    {
      "midi": 65,
      "hit": false,
      "t": 59085.46864166666,
      "d": 148.73424166666518,
      "v": 79
    },
    {
      "midi": 67,
      "hit": false,
      "t": 59199.392741666656,
      "d": 129.7468916666694,
      "v": 95
    },
    {
      "midi": 38,
      "hit": false,
      "t": 59215.21553333328,
      "d": 3.1645583333302056,
      "v": 77
    },
    {
      "midi": 60,
      "hit": false,
      "t": 59215.21553333332,
      "d": 303.79759999999806,
      "v": 103
    },
    {
      "midi": 57,
      "hit": false,
      "t": 59234.20288333343,
      "d": 126.58233333333192,
      "v": 107
    },
    {
      "midi": 37,
      "hit": false,
      "t": 59240.5319999997,
      "d": 82.27851666666538,
      "v": 106
    },
    {
      "midi": 50,
      "hit": false,
      "t": 59240.5320000001,
      "d": 94.93675000000076,
      "v": 89
    },
    {
      "midi": 49,
      "hit": false,
      "t": 59243.69655833328,
      "d": 303.79759999999806,
      "v": 92
    },
    {
      "midi": 73,
      "hit": false,
      "t": 59256.35479166666,
      "d": 98.10130833333096,
      "v": 63
    },
    {
      "midi": 38,
      "hit": false,
      "t": 59259.519349999944,
      "d": 79.11395833333518,
      "v": 81
    },
    {
      "midi": 77,
      "hit": false,
      "t": 59265.848466666655,
      "d": 94.93675000000076,
      "v": 63
    },
    {
      "midi": 71,
      "hit": false,
      "t": 59275.34214166667,
      "d": 642.4053416666648,
      "v": 116
    },
    {
      "midi": 68,
      "hit": false,
      "t": 59310.15228333332,
      "d": 231.01275833333784,
      "v": 100
    },
    {
      "midi": 74,
      "hit": false,
      "t": 59344.96242499999,
      "d": 117.08865833333402,
      "v": 63
    },
    {
      "midi": 78,
      "hit": false,
      "t": 59348.12698333332,
      "d": 94.93675000000076,
      "v": 63
    },
    {
      "midi": 75,
      "hit": false,
      "t": 59436.734616666654,
      "d": 104.43042500000593,
      "v": 64
    },
    {
      "midi": 79,
      "hit": false,
      "t": 59443.06373333332,
      "d": 107.59498333333613,
      "v": 64
    },
    {
      "midi": 38,
      "hit": false,
      "t": 59455.72196666661,
      "d": 34.81014166666864,
      "v": 63
    },
    {
      "midi": 80,
      "hit": false,
      "t": 59534.83592499999,
      "d": 98.10130833333096,
      "v": 66
    },
    {
      "midi": 76,
      "hit": false,
      "t": 59534.83592499999,
      "d": 113.92409999999654,
      "v": 66
    },
    {
      "midi": 38,
      "hit": false,
      "t": 59541.165041666616,
      "d": 34.81014166666864,
      "v": 67
    },
    {
      "midi": 61,
      "hit": false,
      "t": 59604.45620833332,
      "d": 319.62039166666364,
      "v": 100
    },
    {
      "midi": 57,
      "hit": false,
      "t": 59610.7853250001,
      "d": 72.78484166666021,
      "v": 113
    },
    {
      "midi": 50,
      "hit": false,
      "t": 59613.94988333343,
      "d": 60.126608333332115,
      "v": 93
    },
    {
      "midi": 37,
      "hit": false,
      "t": 59620.2789999997,
      "d": 82.27851666666538,
      "v": 98
    },
    {
      "midi": 67,
      "hit": false,
      "t": 59626.60811666666,
      "d": 313.2912750000032,
      "v": 103
    },
    {
      "midi": 38,
      "hit": false,
      "t": 59632.93723333329,
      "d": 44.303816666666535,
      "v": 74
    },
    {
      "midi": 77,
      "hit": false,
      "t": 59632.93723333332,
      "d": 110.75954166665906,
      "v": 66
    },
    {
      "midi": 81,
      "hit": false,
      "t": 59632.93723333332,
      "d": 117.08865833332675,
      "v": 66
    },
    {
      "midi": 44,
      "hit": false,
      "t": 59648.760024999945,
      "d": 360.75964999999997,
      "v": 101
    },
    {
      "midi": 38,
      "hit": false,
      "t": 59724.70942499995,
      "d": 34.81014166666864,
      "v": 63
    },
    {
      "midi": 78,
      "hit": false,
      "t": 59724.70942499999,
      "d": 98.10130833333096,
      "v": 65
    },
    {
      "midi": 82,
      "hit": false,
      "t": 59734.203099999984,
      "d": 101.26586666666117,
      "v": 65
    },
    {
      "midi": 57,
      "hit": false,
      "t": 59740.53221666676,
      "d": 69.62028333333001,
      "v": 98
    },
    {
      "midi": 50,
      "hit": false,
      "t": 59746.86133333343,
      "d": 47.46837499999674,
      "v": 89
    },
    {
      "midi": 38,
      "hit": false,
      "t": 59816.48161666662,
      "d": 34.81014166666864,
      "v": 67
    },
    {
      "midi": 83,
      "hit": false,
      "t": 59825.97529166665,
      "d": 94.93674999999348,
      "v": 64
    },
    {
      "midi": 79,
      "hit": false,
      "t": 59825.97529166665,
      "d": 101.26586666666117,
      "v": 64
    },
    {
      "midi": 57,
      "hit": false,
      "t": 59879.77278333342,
      "d": 60.126608333332115,
      "v": 98
    },
    {
      "midi": 50,
      "hit": false,
      "t": 59892.43101666676,
      "d": 31.64558333333116,
      "v": 64
    },
    {
      "midi": 38,
      "hit": false,
      "t": 59905.08924999995,
      "d": 31.64558333333116,
      "v": 63
    },
    {
      "midi": 80,
      "hit": false,
      "t": 59911.41836666664,
      "d": 113.92409999999654,
      "v": 64
    },
    {
      "midi": 84,
      "hit": false,
      "t": 59914.58292499997,
      "d": 101.26586666666844,
      "v": 64
    },
    {
      "midi": 57,
      "hit": false,
      "t": 59987.36776666675,
      "d": 104.43042500000593,
      "v": 107
    },
    {
      "midi": 62,
      "hit": false,
      "t": 59993.696883333316,
      "d": 291.13936666666996,
      "v": 91
    },
    {
      "midi": 50,
      "hit": false,
      "t": 59993.69688333342,
      "d": 79.11395833333518,
      "v": 85
    },
    {
      "midi": 37,
      "hit": false,
      "t": 60000.02599999969,
      "d": 82.27851666666538,
      "v": 100
    },
    {
      "midi": 85,
      "hit": false,
      "t": 60009.519674999974,
      "d": 104.43042499999865,
      "v": 64
    },
    {
      "midi": 81,
      "hit": false,
      "t": 60009.519674999974,
      "d": 107.59498333332886,
      "v": 64
    },
    {
      "midi": 38,
      "hit": false,
      "t": 60012.68423333328,
      "d": 72.78484166666749,
      "v": 81
    },
    {
      "midi": 70,
      "hit": false,
      "t": 60012.68423333333,
      "d": 284.81025000000227,
      "v": 106
    },
    {
      "midi": 49,
      "hit": false,
      "t": 60028.50702499995,
      "d": 234.17731666666805,
      "v": 93
    },
    {
      "midi": 72,
      "hit": false,
      "t": 60038.0007,
      "d": 439.87360833333514,
      "v": 108
    },
    {
      "midi": 82,
      "hit": false,
      "t": 60101.29186666664,
      "d": 117.08865833333402,
      "v": 64
    },
    {
      "midi": 86,
      "hit": false,
      "t": 60107.620983333305,
      "d": 88.60763333333307,
      "v": 64
    },
    {
      "midi": 87,
      "hit": false,
      "t": 60196.22861666664,
      "d": 107.59498333332886,
      "v": 64
    },
    {
      "midi": 83,
      "hit": false,
      "t": 60205.722291666636,
      "d": 104.43042499999865,
      "v": 64
    },
    {
      "midi": 38,
      "hit": false,
      "t": 60212.05140833328,
      "d": 28.481025000000955,
      "v": 71
    },
    {
      "midi": 84,
      "hit": false,
      "t": 60291.16536666664,
      "d": 98.10130833333096,
      "v": 64
    },
    {
      "midi": 88,
      "hit": false,
      "t": 60294.32992499997,
      "d": 136.0760083333298,
      "v": 64
    },
    {
      "midi": 38,
      "hit": false,
      "t": 60310.15271666661,
      "d": 31.64558333333116,
      "v": 71
    },
    {
      "midi": 57,
      "hit": false,
      "t": 60357.621091666755,
      "d": 72.78484166666749,
      "v": 113
    },
    {
      "midi": 63,
      "hit": false,
      "t": 60363.95020833332,
      "d": 322.7849500000011,
      "v": 106
    },
    {
      "midi": 50,
      "hit": false,
      "t": 60370.27932500009,
      "d": 44.303816666666535,
      "v": 89
    },
    {
      "midi": 64,
      "hit": false,
      "t": 60373.44388333333,
      "d": 186.70894166666403,
      "v": 108
    },
    {
      "midi": 37,
      "hit": false,
      "t": 60379.77299999969,
      "d": 82.27851666666538,
      "v": 100
    },
    {
      "midi": 85,
      "hit": false,
      "t": 60382.9375583333,
      "d": 113.92409999998927,
      "v": 64
    },
    {
      "midi": 44,
      "hit": false,
      "t": 60398.760349999946,
      "d": 34.81014166666864,
      "v": 97
    },
    {
      "midi": 89,
      "hit": false,
      "t": 60398.76034999997,
      "d": 94.93674999999348,
      "v": 64
    },
    {
      "midi": 38,
      "hit": false,
      "t": 60405.089466666606,
      "d": 25.316466666663473,
      "v": 80
    },
    {
      "midi": 38,
      "hit": false,
      "t": 60458.88695833327,
      "d": 22.151908333333267,
      "v": 56
    },
    {
      "midi": 44,
      "hit": false,
      "t": 60465.216074999946,
      "d": 37.97469999999885,
      "v": 100
    },
    {
      "midi": 86,
      "hit": false,
      "t": 60484.20342499996,
      "d": 98.10130833333096,
      "v": 64
    },
    {
      "midi": 90,
      "hit": false,
      "t": 60487.36798333329,
      "d": 101.26586666666844,
      "v": 64
    },
    {
      "midi": 38,
      "hit": false,
      "t": 60503.19077499994,
      "d": 34.81014166666864,
      "v": 58
    },
    {
      "midi": 57,
      "hit": false,
      "t": 60503.19077500009,
      "d": 60.126608333332115,
      "v": 107
    },
    {
      "midi": 44,
      "hit": false,
      "t": 60509.51989166661,
      "d": 28.481025000000955,
      "v": 100
    },
    {
      "midi": 50,
      "hit": false,
      "t": 60509.51989166676,
      "d": 44.303816666666535,
      "v": 85
    },
    {
      "midi": 71,
      "hit": false,
      "t": 60560.152825,
      "d": 85.44307499999559,
      "v": 102
    },
    {
      "midi": 44,
      "hit": false,
      "t": 60566.481941666614,
      "d": 37.97469999999885,
      "v": 104
    },
    {
      "midi": 87,
      "hit": false,
      "t": 60569.64649999996,
      "d": 117.08865833333402,
      "v": 64
    },
    {
      "midi": 65,
      "hit": false,
      "t": 60585.46929166666,
      "d": 82.27851666667266,
      "v": 106
    },
    {
      "midi": 91,
      "hit": false,
      "t": 60588.63384999996,
      "d": 101.26586666666117,
      "v": 64
    },
    {
      "midi": 38,
      "hit": false,
      "t": 60601.292083333276,
      "d": 28.481025000000955,
      "v": 63
    },
    {
      "midi": 44,
      "hit": false,
      "t": 60610.78575833328,
      "d": 31.64558333333116,
      "v": 106
    },
    {
      "midi": 57,
      "hit": false,
      "t": 60623.443991666754,
      "d": 72.78484166666749,
      "v": 113
    },
    {
      "midi": 50,
      "hit": false,
      "t": 60629.77310833342,
      "d": 53.79749166666443,
      "v": 93
    },
    {
      "midi": 69,
      "hit": false,
      "t": 60632.937666666665,
      "d": 101.26586666666117,
      "v": 107
    },
    {
      "midi": 72,
      "hit": false,
      "t": 60642.43134166666,
      "d": 101.26586666666117,
      "v": 107
    },
    {
      "midi": 66,
      "hit": false,
      "t": 60648.76045833333,
      "d": 79.11395833333518,
      "v": 127
    },
    {
      "midi": 44,
      "hit": false,
      "t": 60667.747808333275,
      "d": 56.96205000000191,
      "v": 107
    },
    {
      "midi": 86,
      "hit": false,
      "t": 60677.241483333295,
      "d": 88.6076333333258,
      "v": 72
    },
    {
      "midi": 93,
      "hit": false,
      "t": 60683.57059999996,
      "d": 75.94939999999042,
      "v": 82
    },
    {
      "midi": 67,
      "hit": false,
      "t": 60712.051625,
      "d": 66.4557249999998,
      "v": 127
    },
    {
      "midi": 38,
      "hit": false,
      "t": 60734.203533333275,
      "d": 3.1645583333302056,
      "v": 78
    },
    {
      "midi": 37,
      "hit": false,
      "t": 60759.519999999684,
      "d": 186.70894166666403,
      "v": 100
    },
    {
      "midi": 63,
      "hit": false,
      "t": 60759.51999999994,
      "d": 246.83555000000342,
      "v": 90
    },
    {
      "midi": 92,
      "hit": false,
      "t": 60765.84911666662,
      "d": 126.58233333333192,
      "v": 79
    },
    {
      "midi": 85,
      "hit": false,
      "t": 60765.84911666662,
      "d": 126.58233333333192,
      "v": 79
    },
    {
      "midi": 59,
      "hit": false,
      "t": 60765.849116666664,
      "d": 167.72159166666825,
      "v": 90
    },
    {
      "midi": 68,
      "hit": false,
      "t": 60769.013675,
      "d": 218.3545249999952,
      "v": 127
    },
    {
      "midi": 50,
      "hit": false,
      "t": 60769.01367500009,
      "d": 104.43042499999865,
      "v": 98
    },
    {
      "midi": 58,
      "hit": false,
      "t": 60769.01367500009,
      "d": 107.59498333332886,
      "v": 119
    },
    {
      "midi": 49,
      "hit": false,
      "t": 60778.50734999994,
      "d": 218.35452500000247,
      "v": 123
    },
    {
      "midi": 73,
      "hit": false,
      "t": 60781.67190833332,
      "d": 218.3545249999952,
      "v": 113
    },
    {
      "midi": 68,
      "hit": false,
      "t": 60784.83646666665,
      "d": 167.72159166666825,
      "v": 78
    },
    {
      "midi": 61,
      "hit": false,
      "t": 60784.83646666665,
      "d": 174.05070833333593,
      "v": 68
    },
    {
      "midi": 57,
      "hit": false,
      "t": 60784.836466666755,
      "d": 91.77219166666328,
      "v": 113
    },
    {
      "midi": 68,
      "hit": false,
      "t": 60788.00102499999,
      "d": 186.70894166666403,
      "v": 113
    },
    {
      "midi": 37,
      "hit": false,
      "t": 60791.165583333335,
      "d": 379.747000000003,
      "v": 110
    }
  ]
}